<?xml version="1.0" encoding="UTF-8"?>
<!DOCTYPE svg PUBLIC "-//W3C//DTD SVG 1.0//EN" "http://www.w3.org/TR/2001/REC-SVG-20010904/DTD/svg10.dtd">
<!-- Creator: CorelDRAW X7 -->
<svg xmlns="http://www.w3.org/2000/svg" xml:space="preserve" width="200mm" height="200mm" version="1.0" style="shape-rendering:geometricPrecision; text-rendering:geometricPrecision; image-rendering:optimizeQuality; fill-rule:evenodd; clip-rule:evenodd"
viewBox="0 0 20000 20000"
 xmlns:xlink="http://www.w3.org/1999/xlink">
 <defs>
  <style type="text/css">
   <![CDATA[
    .str0 {stroke:#3696A0;stroke-width:25}
    .fil14 {fill:#FEFEFE}
    .fil106 {fill:#F8B469}
    .fil93 {fill:#F3922E}
    .fil55 {fill:#FCFBFB}
    .fil15 {fill:#FAFBFB}
    .fil56 {fill:#F6F8F9}
    .fil16 {fill:#F6F5F6}
    .fil57 {fill:#F3F3F3}
    .fil89 {fill:#EFF1F3}
    .fil17 {fill:#EFEFF0}
    .fil58 {fill:#EDEDEF}
    .fil99 {fill:#E27C7F}
    .fil18 {fill:#EBEAEC}
    .fil59 {fill:#E9E9EC}
    .fil19 {fill:#E7E5E7}
    .fil94 {fill:#D44646}
    .fil87 {fill:#E4E4E8}
    .fil20 {fill:#E0E0E3}
    .fil60 {fill:#DFDEDF}
    .fil21 {fill:#DCDBDE}
    .fil61 {fill:#DAD9DB}
    .fil13 {fill:#D8D8DA}
    .fil22 {fill:#D8D6D9}
    .fil23 {fill:#D4D3D4}
    .fil62 {fill:#D4D1D3}
    .fil85 {fill:#D0D2D5}
    .fil97 {fill:#D0D0D3}
    .fil24 {fill:#CDCED0}
    .fil25 {fill:#C9C9CB}
    .fil63 {fill:#C8C6C8}
    .fil12 {fill:#C5C3C5}
    .fil103 {fill:#C5DDA6}
    .fil64 {fill:#C1C1C4}
    .fil26 {fill:#C1BFC1}
    .fil65 {fill:#BEBCBF}
    .fil86 {fill:#BDBDC1}
    .fil27 {fill:#BDBCBD}
    .fil28 {fill:#B6B6BA}
    .fil101 {fill:#B4B6BA}
    .fil66 {fill:#B4B4B7}
    .fil104 {fill:#B383B9}
    .fil29 {fill:#B2B0B4}
    .fil67 {fill:#ADACB1}
    .fil30 {fill:#ADACB0}
    .fil100 {fill:#ADCF7F}
    .fil68 {fill:#A9A9AD}
    .fil31 {fill:#A7A5A9}
    .fil69 {fill:#A7A5A8}
    .fil32 {fill:#A5A3A7}
    .fil70 {fill:#A2A1A4}
    .fil33 {fill:#A19EA2}
    .fil71 {fill:#9B9A9D}
    .fil34 {fill:#99989C}
    .fil72 {fill:#99989A}
    .fil35 {fill:#979598}
    .fil90 {fill:#94979C}
    .fil73 {fill:#949396}
    .fil36 {fill:#929093}
    .fil74 {fill:#918F92}
    .fil37 {fill:#8F8B8F}
    .fil75 {fill:#8F8B8D}
    .fil91 {fill:#955298}
    .fil95 {fill:#8DC04E}
    .fil38 {fill:#89878B}
    .fil76 {fill:#898789}
    .fil39 {fill:#858386}
    .fil77 {fill:#827E81}
    .fil40 {fill:#807D80}
    .fil105 {fill:#7F7B7F}
    .fil78 {fill:#7F7B7E}
    .fil41 {fill:#7D787B}
    .fil98 {fill:#69C3EF}
    .fil79 {fill:#79777A}
    .fil11 {fill:#767477}
    .fil42 {fill:#777477}
    .fil43 {fill:#716F72}
    .fil80 {fill:#706D70}
    .fil44 {fill:#6D6B6F}
    .fil81 {fill:#6C686B}
    .fil96 {fill:#6A676A}
    .fil45 {fill:#6A666A}
    .fil107 {fill:#696567}
    .fil108 {fill:#686467}
    .fil82 {fill:#686466}
    .fil46 {fill:#676365}
    .fil109 {fill:#656265}
    .fil110 {fill:#646264}
    .fil83 {fill:#625F62}
    .fil47 {fill:#625E60}
    .fil84 {fill:#615E5F}
    .fil48 {fill:#5C595B}
    .fil49 {fill:#5A5556}
    .fil112 {fill:#444342}
    .fil50 {fill:#545052}
    .fil51 {fill:#504C4E}
    .fil52 {fill:#4B484A}
    .fil53 {fill:#484444}
    .fil102 {fill:#4A484B}
    .fil54 {fill:#444141}
    .fil92 {fill:#34AAE1}
    .fil88 {fill:#312C2C}
    .fil10 {fill:#3497A1}
    .fil111 {fill:#3696A0}
    .fil2 {fill:#462713}
    .fil9 {fill:#603B1A}
    .fil7 {fill:#6BE9F9}
    .fil3 {fill:#8B613C}
    .fil6 {fill:#8BF0FB}
    .fil8 {fill:#DDDBD9}
    .fil5 {fill:#ECC78D}
    .fil1 {fill:#F0D5A7}
    .fil4 {fill:white}
    .fil0 {fill:url(#id0)}
   ]]>
  </style>
  <radialGradient id="id0" gradientUnits="userSpaceOnUse" gradientTransform="matrix(1.41421 -0 -0 1.41421 -4131 -4154)" cx="9974.09" cy="10029.4" r="10000" fx="9974.09" fy="10029.4">
   <stop offset="0" style="stop-opacity:1; stop-color:#FEFEFE"/>
   <stop offset="0.439216" style="stop-opacity:1; stop-color:#FEFEFE"/>
   <stop offset="1" style="stop-opacity:1; stop-color:#D1E2F2"/>
  </radialGradient>
 </defs>
 <g id="Layer_x0020_1">
  <metadata id="CorelCorpID_0Corel-Layer"/>
  <path class="fil0" d="M-26 29l20000 0 0 20000 -20000 0 0 -20000z"/>
  <g id="_286332491904">
   <g>
    <path class="fil1" d="M8342 14947l19 0 0 -578 130 0 0 -429 485 0c19,0 56,0 75,0 56,0 19,0 56,19l0 410 168 0c18,-504 -94,-485 298,-485 280,0 299,-37 299,112l0 373 149 0 18 224 634 0 19 -224 131 0 0 -429 615 19 0 596 0 38 19 0 0 -224 130 0 0 -2667 -3245 0 0 3245z"/>
    <path class="fil2" d="M8212 11590l0 37 130 0 0 75 3245 0 0 -75 131 -18c0,-75 -205,-522 -243,-653l-3021 0 -242 634z"/>
    <path class="fil3" d="M9275 14369l0 578 -914 0 -19 0 0 0c168,37 728,19 951,19 -18,186 -56,0 -56,168l672 18c0,-186 -56,0 -37,-205l0 -578 0 -373c0,-149 -19,-112 -299,-112 -392,0 -280,-19 -298,485z"/>
    <path class="fil4" d="M11587 11702l0 2667c0,149 -18,466 19,578l112 0 0 187 -1809 18 -672 -18 -540 18 -262 0 -223 0 3525 0 0 -4196 -262 0c38,131 243,578 243,653l-131 18 0 75zm-3375 3450l0 -18 0 18z"/>
    <path class="fil5" d="M9872 14947l1734 0c-37,-112 -19,-429 -19,-578l-130 0 0 224c18,74 18,93 -75,93 -93,0 -522,0 -578,-19 0,-93 -19,-37 37,-74l-18 -224 -131 0 -19 224c19,93 19,93 -93,93l-447 0c-112,0 -112,0 -94,-93l-18 -224 -149 0 0 578z"/>
    <path class="fil4" d="M8212 14947l130 0 0 0 0 -3245 0 -75 -130 0 0 3320z"/>
    <path class="fil2" d="M9909 15152l1809 -18 0 -187 -112 0 -1734 0c-19,205 37,19 37,205z"/>
    <path class="fil5" d="M8361 14947l914 0 0 -578 -168 0 0 186 0 38c37,37 19,18 37,74 -74,38 -615,19 -671,0 0,-93 -19,-37 18,-74l0 -224 -130 0 0 578z"/>
    <path class="fil6" d="M8491 14369l0 224 616 0 0 -38 -597 0c37,-37 75,-93 149,-130 56,-56 94,-112 131,-168 93,-93 186,-224 317,-298 -37,-19 0,-19 -56,-19 -19,0 -56,0 -75,0l-485 0 0 429z"/>
    <path class="fil6" d="M9872 12933l0 615 -579 0c56,-93 187,-205 280,-298l280 -317 -578 0 0 634 615 0c0,-75 19,-578 -18,-634z"/>
    <path class="fil6" d="M10823 14369l18 224 597 0 0 -38 -578 0c75,-111 168,-186 261,-298 75,-75 224,-261 317,-298l-615 -19 0 429z"/>
    <path class="fil6" d="M9275 12523c56,-19 112,-94 149,-150l448 -447 0 615c55,-112 18,-485 18,-634l-615 0 0 616z"/>
    <path class="fil7" d="M10058 12523c0,0 0,0 0,0 19,18 19,18 19,18 93,19 503,0 596,0l0 -615c-111,37 -242,224 -317,298l-223 224c-38,37 -38,56 -75,75z"/>
    <path class="fil6" d="M10673 13548l-596 0c18,-56 0,-18 56,-74l503 -541 -597 0 0 634c94,0 560,19 634,-19z"/>
    <path class="fil6" d="M9107 13548l-597 0c75,-93 187,-223 298,-298 38,-56 243,-261 280,-317l-597 0 0 634c75,0 560,19 616,-19z"/>
    <path class="fil6" d="M11438 13548l-578 0c19,-56 224,-261 261,-317 112,-74 243,-205 298,-298l-596 0 0 634 466 0c19,0 56,0 75,0l74 -19z"/>
    <path class="fil6" d="M8510 12541c37,-74 56,-56 131,-149 112,-130 410,-410 447,-485l-597 0c0,149 -37,522 19,634z"/>
    <path class="fil7" d="M8510 12541l597 0c0,-149 37,-522 -19,-634 -37,75 -335,355 -447,485 -75,93 -94,75 -131,149z"/>
    <path class="fil7" d="M10673 13548l0 -466c0,-19 0,-74 0,-74l-37 -75 -503 541c-56,56 -38,18 -56,74l596 0z"/>
    <path class="fil7" d="M10841 12541l597 0 0 -485c0,-56 19,-112 -19,-149 -18,56 -205,224 -298,317 -93,112 -261,261 -280,317z"/>
    <path class="fil6" d="M10841 12541c19,-56 187,-205 280,-317 93,-93 280,-261 298,-317l-596 0 0 597c18,37 18,19 18,37z"/>
    <path class="fil7" d="M10058 14555l19 19c0,0 18,0 18,0l560 0 0 -615c-93,37 -504,541 -597,596z"/>
    <path class="fil6" d="M10058 12523c37,-19 37,-38 75,-75l223 -224c75,-74 206,-261 317,-298l-37 -19c0,0 -18,0 -18,0 0,0 -19,0 -19,0l-560 0 19 616z"/>
    <path class="fil7" d="M11438 13548c0,-74 37,-559 -19,-615 -55,93 -186,224 -298,298 -37,56 -242,261 -261,317l578 0z"/>
    <path class="fil7" d="M9275 12523c93,56 447,18 597,18l0 -615 -448 447c-37,56 -93,131 -149,150z"/>
    <path class="fil2" d="M8212 15134l0 18 223 0 262 0 540 -18c0,-168 38,18 56,-168 -223,0 -783,18 -951,-19l-130 0 0 187z"/>
    <path class="fil7" d="M11438 14555l0 -596c-93,37 -242,223 -317,298 -93,112 -186,187 -261,298l578 0z"/>
    <path class="fil6" d="M10058 14555c93,-55 504,-559 597,-596 -37,-19 37,0 -56,-19l-224 0c-112,0 -224,0 -317,0l0 615z"/>
    <path class="fil7" d="M9107 14555l0 -186 0 -410c-131,74 -224,205 -317,298 -37,56 -75,112 -131,168 -74,37 -112,93 -149,130l597 0z"/>
    <path class="fil7" d="M9872 12933l-19 0 -280 317c-93,93 -224,205 -280,298l579 0 0 -615z"/>
    <path class="fil7" d="M9107 13548l-19 -615c-37,56 -242,261 -280,317 -111,75 -223,205 -298,298l597 0z"/>
    <path class="fil8" d="M9349 15040c0,-261 -37,-988 19,-1063 93,-18 261,-18 354,-18 94,0 94,0 94,93l0 988 37 0 0 -1119c-131,0 -448,-18 -560,19 -18,149 0,392 0,560 0,93 0,205 0,298 0,224 -18,224 56,242z"/>
    <path class="fil4" d="M8212 11590l242 -634 -242 0 0 634z"/>
    <path class="fil9" d="M8473 12597c0,38 -19,56 130,56l373 0c0,0 94,0 94,0 56,-18 37,0 56,-56 -38,-74 -243,-37 -318,-37l-279 0c-112,19 -19,0 -56,37z"/>
    <path class="fil9" d="M10673 14593l-634 0c-18,93 -18,93 94,93l447 0c112,0 112,0 93,-93z"/>
    <path class="fil9" d="M9107 14593l-616 0c-37,37 -18,-19 -18,74 56,19 597,38 671,0 -18,-56 0,-37 -37,-74z"/>
    <path class="fil9" d="M11457 14593l-19 0 -597 0c-56,37 -37,-19 -37,74 56,19 485,19 578,19 93,0 93,-19 75,-93z"/>
    <path class="fil9" d="M10021 12635c93,18 429,18 559,18 93,0 112,0 93,-74 0,0 0,-19 0,0 -18,0 -18,-19 -18,-19l-634 0 0 75z"/>
    <path class="fil9" d="M9256 12616c37,56 354,19 504,37 167,0 130,-18 149,-56 -19,-56 0,-37 -93,-37l-485 0c-75,0 -75,-19 -75,56z"/>
    <path class="fil9" d="M10021 13604c18,94 74,56 335,56 243,0 317,38 336,-56 -56,-37 -615,-37 -671,0z"/>
    <path class="fil9" d="M10804 12597c19,56 -19,19 37,38 0,0 578,37 616,-19 0,-75 0,-56 -112,-56l-466 0c-131,19 -56,19 -75,37z"/>
    <path class="fil9" d="M9256 13623c19,56 0,37 149,37l373 0c112,0 112,19 131,-56l-19 -18c-74,-19 -391,0 -485,0 -168,0 -130,0 -149,37z"/>
    <path class="fil9" d="M8473 13623c18,37 0,37 130,37 56,0 131,0 187,0l280 0c56,0 37,19 56,-37 0,-37 18,-37 -131,-37l-466 0c-94,18 -19,-19 -56,37z"/>
    <path class="fil9" d="M10804 13623c19,37 0,37 131,37 56,0 130,0 186,0 56,0 131,0 187,0 18,0 93,0 93,0 56,0 37,19 56,-37 0,-37 18,-37 -131,-37l-466 0c-93,18 -19,0 -56,37z"/>
   </g>
   <path class="fil10 str0" d="M3329 15933c0,32 -11,59 -34,82 -23,23 -50,34 -82,34l-116 0c-31,0 -58,-11 -81,-34 -23,-22 -34,-50 -34,-82l0 -347c0,-33 11,-60 33,-82 23,-23 50,-34 82,-34l116 0c32,0 60,11 82,34 23,22 34,50 34,82l0 347zm-58 0l0 -348c0,-16 -5,-30 -16,-41 -11,-11 -25,-17 -42,-17l-116 0c-16,0 -30,6 -41,17 -6,6 -10,12 -13,19 -2,7 -4,14 -4,22l0 348c0,17 6,31 17,42 6,5 12,9 19,12 8,3 15,4 22,4l116 0c16,0 30,-5 41,-16 12,-10 17,-24 17,-42zm278 -213l244 -242c5,-5 12,-8 19,-8 8,0 14,3 20,9 7,6 10,13 10,21 0,5 -3,11 -9,19l-172 172 178 315 4 15c0,7 -3,14 -10,19 -6,6 -13,9 -21,9 -9,0 -17,-5 -24,-15l-170 -302 -69 68 0 220c0,9 -3,16 -9,22 -5,5 -12,7 -20,7 -8,0 -15,-2 -20,-7 -6,-5 -9,-12 -9,-22l0 -522c0,-7 3,-14 9,-20 6,-5 12,-8 20,-8 7,0 14,2 20,7 6,4 9,12 9,21l0 222zm463 39l174 0c16,0 29,-5 41,-16 11,-10 17,-24 17,-42l0 -116c0,-16 -6,-30 -17,-41 -11,-11 -25,-17 -41,-17l-174 0 0 232zm0 58l0 203c0,9 -3,16 -9,22 -5,5 -12,7 -20,7 -8,0 -15,-2 -20,-7 -6,-5 -9,-12 -9,-22l0 -521c0,-19 10,-29 29,-29l202 0c33,0 60,11 82,34 23,22 34,50 34,82l0 115c0,32 -11,59 -34,82 -22,23 -50,34 -82,34l-173 0zm695 0l-174 0c-32,0 -59,-11 -82,-34 -23,-22 -34,-49 -34,-82l0 -202c0,-8 3,-15 9,-22 5,-5 12,-7 20,-7 7,0 14,2 20,7 6,5 9,12 9,22l0 203c0,16 5,30 16,41 6,5 12,9 19,12 8,3 16,4 23,4l174 0 0 -260c0,-8 2,-15 8,-22 6,-5 13,-7 20,-7 8,0 14,2 20,7 6,5 9,12 9,22l0 434c0,32 -11,59 -34,82 -22,23 -50,34 -82,34l-144 0c-9,0 -16,-3 -22,-8 -5,-6 -7,-13 -7,-21 0,-7 2,-13 7,-19 6,-6 13,-10 22,-10l145 0c16,0 29,-5 41,-16 11,-10 17,-24 17,-42l0 -116zm434 -121l150 -213c2,-4 5,-7 9,-9 5,-3 9,-4 14,-4 7,0 14,3 21,9 6,6 9,13 9,20 0,6 -2,12 -6,17l-152 216 154 274c3,5 4,11 4,15 0,7 -3,13 -9,19 -6,6 -13,9 -22,9 -9,0 -17,-5 -24,-15l-148 -265 0 251c0,9 -3,16 -8,22 -6,5 -13,7 -21,7 -8,0 -14,-2 -20,-7 -6,-5 -9,-12 -9,-22l0 -250 -148 264c-3,3 -6,7 -11,11l-7 3 -7 1c-8,0 -15,-3 -21,-8 -6,-5 -9,-12 -9,-20 0,-4 1,-8 4,-15l153 -274 -151 -216c-3,-2 -4,-8 -6,-17 0,-8 3,-14 9,-20 6,-6 13,-9 21,-9 8,0 16,4 23,13l150 213 0 -197c0,-8 3,-15 9,-22 6,-5 12,-7 20,-7 7,0 14,2 20,7 6,5 9,12 9,22l0 197zm607 6l0 -203c0,-8 3,-15 9,-20 6,-6 13,-9 20,-9 7,0 14,2 20,7 6,5 9,12 9,22l0 520c0,9 -3,16 -9,22 -7,5 -14,8 -20,8 -7,0 -14,-2 -20,-7 -6,-5 -9,-12 -9,-22l0 -261 -232 0 0 261c0,9 -2,16 -8,22 -5,5 -12,7 -20,7 -8,0 -15,-2 -21,-7 -5,-5 -8,-12 -8,-22l0 -521c0,-7 3,-15 8,-21 6,-5 13,-8 21,-8 7,0 14,3 19,8 6,4 9,12 9,21l0 203 232 0zm275 202l-41 125c-3,6 -6,11 -11,15 -4,2 -9,4 -16,5 -8,0 -14,-3 -20,-8 -6,-5 -10,-12 -10,-20l2 -10 175 -521c5,-17 14,-25 27,-25 12,0 21,8 27,25l173 521 2 10c0,7 -3,14 -9,20 -6,5 -13,8 -20,8 -4,0 -9,-1 -13,-3 -5,-2 -10,-7 -14,-17l-42 -125 -210 0zm191 -59l-85 -255 -86 255 171 0zm518 -86l0 -232 -174 0c-16,0 -30,6 -41,17 -6,6 -10,12 -13,19 -2,7 -4,14 -4,22l0 116c0,17 6,31 17,42 6,5 12,9 18,12 9,3 16,4 23,4l174 0zm-99 58l-137 218c-6,10 -14,14 -23,14 -8,0 -14,-3 -20,-9 -7,-6 -10,-13 -10,-20 0,-6 1,-11 4,-16l117 -187 -6 0c-31,0 -58,-11 -81,-34 -23,-22 -34,-49 -34,-82l0 -115c0,-33 11,-60 33,-82 23,-23 50,-34 82,-34l203 0c19,0 29,10 29,29l0 521c0,9 -3,16 -8,22 -6,5 -13,7 -21,7 -8,0 -14,-2 -20,-7 -6,-5 -9,-12 -9,-22l0 -203 -99 0zm967 203c0,9 -3,16 -8,22 -5,5 -12,7 -21,7 -7,0 -14,-2 -20,-7 -6,-5 -9,-12 -9,-22l0 -409 -234 423c-4,6 -8,11 -13,14l-7 4c-2,1 -4,1 -9,2 -5,0 -11,-3 -19,-9 -5,-6 -7,-14 -7,-25l0 -521c0,-7 3,-15 9,-21 5,-5 12,-8 20,-8 7,0 14,3 20,8 6,4 8,12 8,21l0 409 235 -423c3,-4 7,-9 13,-14 5,-4 10,-6 16,-6 6,0 12,4 17,10 6,6 9,14 9,24l0 521zm290 -261l-87 0c-9,0 -16,-2 -21,-8 -5,-5 -8,-12 -8,-20 0,-7 3,-14 8,-20 5,-6 12,-9 21,-9l87 0c16,0 30,-5 41,-16 11,-11 17,-25 17,-42l0 -58c0,-17 -6,-30 -16,-42 -11,-11 -25,-17 -42,-17l-58 0c-13,0 -24,4 -33,11 -10,7 -17,17 -22,30 -1,5 -4,9 -9,13 -2,2 -5,4 -8,6l-9 1c-8,0 -16,-3 -22,-8 -6,-6 -9,-13 -9,-21l2 -10c7,-23 21,-42 42,-57 20,-15 43,-22 68,-22l58 0c32,0 59,11 82,34 22,22 33,50 33,82l0 58c0,16 -3,33 -10,48 -6,15 -16,28 -29,39 26,22 39,50 39,86l0 116c0,32 -11,59 -33,82 -23,23 -50,34 -82,34l-58 0c-25,0 -47,-7 -67,-22 -20,-14 -34,-33 -43,-58l-2 -10c0,-7 3,-14 9,-20 6,-6 13,-8 22,-8 11,0 20,6 26,19 4,12 10,22 21,31 11,7 22,10 34,10l58 0c16,0 30,-5 41,-16 11,-10 17,-24 17,-42l0 -116c0,-17 -4,-30 -13,-40 -10,-12 -25,-18 -45,-18zm289 0l0 232 174 0c16,0 29,-5 41,-16 11,-10 17,-24 17,-42l0 -116c0,-16 -6,-30 -17,-41 -11,-11 -25,-17 -41,-17l-174 0zm0 -57l173 0c32,0 59,11 82,34 23,22 34,49 34,82l0 115c0,32 -11,59 -34,82 -22,23 -50,34 -82,34l-202 0c-19,0 -29,-10 -29,-29l0 -521c0,-19 10,-29 29,-29l232 0c7,0 14,3 20,9 6,6 8,12 8,20 0,6 -2,13 -7,19 -5,6 -12,9 -22,9l-202 0 0 175zm752 318c0,9 -3,16 -8,22 -5,5 -12,7 -21,7 -7,0 -14,-2 -20,-7 -6,-5 -8,-12 -8,-22l0 -409 -235 423c-4,6 -8,11 -13,14l-6 4c-2,1 -5,1 -9,2 -6,0 -12,-3 -20,-9 -4,-6 -7,-14 -7,-25l0 -521c0,-7 3,-15 9,-21 5,-5 12,-8 20,-8 7,0 14,3 20,8 6,4 9,12 9,21l0 409 235 -423c2,-4 6,-9 12,-14 5,-4 10,-6 16,-6 6,0 12,4 17,10 6,6 9,14 9,24l0 521zm174 -261l174 0c16,0 29,-5 41,-16 11,-10 17,-24 17,-42l0 -116c0,-16 -6,-30 -17,-41 -11,-11 -25,-17 -41,-17l-174 0 0 232zm0 58l0 203c0,9 -3,16 -9,22 -5,5 -12,7 -20,7 -8,0 -15,-2 -20,-7 -6,-5 -9,-12 -9,-22l0 -521c0,-19 10,-29 29,-29l202 0c33,0 60,11 82,34 23,22 34,50 34,82l0 115c0,32 -11,59 -34,82 -22,23 -50,34 -82,34l-173 0zm449 87l-42 125c-2,6 -6,11 -11,15 -4,2 -9,4 -15,5 -8,0 -15,-3 -21,-8 -6,-5 -9,-12 -9,-20l2 -10 174 -521c6,-17 15,-25 27,-25 13,0 22,8 27,25l174 521 2 10c0,7 -3,14 -10,20 -6,5 -13,8 -20,8 -4,0 -8,-1 -13,-3 -5,-2 -9,-7 -14,-17l-41 -125 -210 0zm190 -59l-85 -255 -85 255 170 0zm258 -318l-116 0c-9,0 -16,-2 -21,-7 -5,-7 -8,-14 -8,-21 0,-7 3,-13 7,-20 5,-6 13,-9 22,-9l289 0c9,0 15,3 21,9 6,6 8,12 8,20 0,6 -2,13 -7,19 -5,6 -12,9 -22,9l-115 0 0 493c0,9 -3,16 -9,22 -5,5 -12,7 -20,7 -8,0 -15,-2 -20,-7 -6,-5 -9,-12 -9,-22l0 -493zm376 175l145 0c8,0 15,3 21,9 6,6 9,12 9,20 0,7 -3,13 -8,19 -5,6 -12,9 -22,9l-145 0 0 232 203 0c8,0 15,3 21,9 6,6 8,13 8,20 0,7 -2,14 -7,20 -5,6 -12,9 -22,9l-232 0c-19,0 -29,-9 -29,-27l0 -523c0,-19 10,-29 29,-29l232 0c8,0 15,3 21,9 6,6 8,12 8,20 0,7 -2,13 -7,19 -5,6 -12,9 -22,9l-203 0 0 175zm695 318c0,9 -2,16 -8,22 -5,5 -12,7 -20,7 -8,0 -15,-2 -21,-7 -5,-5 -8,-12 -8,-22l0 -493 -94 0 -139 500c-1,6 -5,11 -10,16 -6,4 -11,6 -18,6 -8,0 -16,-2 -21,-7 -6,-5 -8,-12 -8,-21 0,-4 0,-7 1,-8l145 -522c4,-14 13,-21 28,-21l144 0c20,0 29,10 29,29l0 521zm173 -260l174 0c16,0 30,5 41,16 11,11 17,25 17,42l0 115c0,17 -6,31 -17,42 -5,5 -11,10 -18,12 -8,3 -15,4 -23,4l-174 0 0 -231zm0 -58l0 -203c0,-8 -3,-15 -9,-20 -6,-6 -13,-9 -20,-9 -6,0 -13,2 -19,7 -7,5 -10,12 -10,22l0 521c0,19 10,29 29,29l203 0c31,0 58,-11 81,-33 23,-23 35,-50 35,-83l0 -116c0,-31 -12,-58 -34,-81 -23,-23 -50,-34 -82,-34l-174 0zm695 0l0 -203c0,-8 3,-15 9,-20 5,-6 12,-9 20,-9 7,0 14,2 20,7 6,5 8,12 8,22l0 520c0,9 -2,16 -9,22 -6,5 -13,8 -20,8 -7,0 -14,-2 -20,-7 -5,-5 -8,-12 -8,-22l0 -261 -232 0 0 261c0,9 -3,16 -8,22 -5,5 -12,7 -21,7 -7,0 -14,-2 -20,-7 -6,-5 -9,-12 -9,-22l0 -521c0,-7 3,-15 9,-21 6,-5 13,-8 20,-8 7,0 14,3 20,8 6,4 9,12 9,21l0 203 232 0zm275 202l-42 125c-2,6 -6,11 -11,15 -3,2 -9,4 -15,5 -8,0 -15,-3 -21,-8 -6,-5 -9,-12 -9,-20l2 -10 174 -521c6,-17 15,-25 27,-25 13,0 22,8 28,25l173 521 2 10c0,7 -3,14 -10,20 -6,5 -12,8 -20,8 -4,0 -8,-1 -13,-3 -5,-2 -9,-7 -13,-17l-42 -125 -210 0zm191 -59l-86 -255 -85 255 171 0zm518 -86l0 -232 -174 0c-16,0 -30,6 -42,17 -5,6 -9,12 -12,19 -3,7 -4,14 -4,22l0 116c0,17 5,31 16,42 6,5 12,9 19,12 8,3 16,4 23,4l174 0zm-100 58l-136 218c-6,10 -14,14 -24,14 -7,0 -14,-3 -20,-9 -7,-6 -10,-13 -10,-20 0,-6 2,-11 5,-16l117 -187 -6 0c-31,0 -59,-11 -82,-34 -22,-22 -34,-49 -34,-82l0 -115c0,-33 11,-60 34,-82 22,-23 50,-34 82,-34l202 0c20,0 29,10 29,29l0 521c0,9 -2,16 -8,22 -5,5 -12,7 -20,7 -8,0 -15,-2 -21,-7 -5,-5 -8,-12 -8,-22l0 -203 -100 0zm678 -97l244 -242c6,-5 12,-8 20,-8 7,0 14,3 20,9 6,6 9,13 9,21 0,5 -3,11 -8,19l-173 172 178 315 4 15c0,7 -3,14 -9,19 -6,6 -13,9 -22,9 -9,0 -17,-5 -24,-15l-170 -302 -69 68 0 220c0,9 -3,16 -8,22 -5,5 -12,7 -21,7 -7,0 -14,-2 -20,-7 -6,-5 -9,-12 -9,-22l0 -522c0,-7 3,-14 9,-20 6,-5 13,-8 20,-8 8,0 14,2 20,7 6,4 9,12 9,21l0 222zm723 213c0,32 -11,59 -34,82 -22,23 -50,34 -81,34l-116 0c-32,0 -59,-11 -82,-34 -22,-22 -34,-50 -34,-82l0 -347c0,-33 11,-60 34,-82 22,-23 50,-34 82,-34l116 0c32,0 59,11 82,34 22,22 33,50 33,82l0 347zm-57 0l0 -348c0,-16 -6,-30 -17,-41 -11,-11 -25,-17 -41,-17l-116 0c-17,0 -30,6 -42,17 -5,6 -9,12 -12,19 -3,7 -4,14 -4,22l0 348c0,17 5,31 16,42 6,5 12,9 19,12 8,3 16,4 23,4l116 0c16,0 29,-5 41,-16 11,-10 17,-24 17,-42zm625 87c0,9 -3,16 -8,22 -5,5 -12,7 -21,7 -6,0 -13,-2 -19,-7 -7,-5 -10,-12 -10,-22l0 -413 -119 200c-8,12 -16,19 -26,19 -8,0 -16,-7 -25,-19l-120 -200 0 413c0,9 -3,16 -8,22 -5,5 -12,7 -21,7 -7,0 -14,-2 -20,-7 -6,-5 -9,-12 -9,-22l0 -518c0,-11 3,-20 9,-25 5,-6 11,-9 18,-9 5,0 10,2 14,4 4,3 8,8 13,15l149 248 149 -248c7,-13 16,-19 28,-19 6,0 13,3 18,9 5,7 8,15 8,25l0 518zm462 0c0,9 -2,16 -8,22 -5,5 -12,7 -20,7 -8,0 -15,-2 -21,-7 -5,-5 -8,-12 -8,-22l0 -409 -235 423c-4,6 -8,11 -13,14l-6 4c-2,1 -5,1 -9,2 -6,0 -12,-3 -19,-9 -5,-6 -8,-14 -8,-25l0 -521c0,-7 3,-15 9,-21 6,-5 12,-8 20,-8 7,0 14,3 20,8 6,4 9,12 9,21l0 409 235 -423c3,-4 7,-9 12,-14 5,-4 11,-6 16,-6 6,0 12,4 18,10 5,6 8,14 8,24l0 521zm377 29l-145 0c-31,0 -59,-11 -82,-34 -22,-22 -34,-50 -34,-82l0 -347c0,-33 11,-60 34,-82 22,-23 50,-34 82,-34l145 0c8,0 15,3 20,9 6,6 9,12 9,20 0,6 -2,13 -7,19 -5,6 -12,9 -22,9l-145 0c-16,0 -30,6 -42,17 -5,6 -9,12 -12,19 -3,7 -4,14 -4,22l0 348c0,17 5,31 16,42 6,5 12,9 19,12 8,3 16,4 23,4l145 0c8,0 15,3 20,9 6,6 9,13 9,20 0,7 -2,13 -7,20 -5,6 -12,9 -22,9zm379 0l-145 0c-31,0 -58,-11 -81,-34 -23,-22 -35,-50 -35,-82l0 -347c0,-33 12,-60 34,-82 22,-23 50,-34 82,-34l145 0c8,0 15,3 20,9 6,6 9,12 9,20 0,6 -2,13 -7,19 -5,6 -12,9 -22,9l-145 0c-16,0 -30,6 -42,17 -5,6 -9,12 -12,19 -3,7 -4,14 -4,22l0 348c0,17 5,31 16,42 6,5 12,9 19,12 8,3 16,4 23,4l145 0c8,0 15,3 20,9 6,6 9,13 9,20 0,7 -2,13 -7,20 -5,6 -12,9 -22,9zm491 -29c0,9 -2,16 -8,22 -5,5 -12,7 -20,7 -8,0 -15,-2 -20,-7 -6,-5 -9,-12 -9,-22l0 -409 -235 423c-3,6 -8,11 -13,14l-6 4c-2,1 -5,1 -9,2 -6,0 -12,-3 -19,-9 -5,-6 -8,-14 -8,-25l0 -521c0,-7 3,-15 9,-21 6,-5 13,-8 20,-8 7,0 14,3 20,8 6,4 9,12 9,21l0 409 235 -423c3,-4 7,-9 12,-14 6,-4 11,-6 16,-6 6,0 12,4 18,10 6,6 8,14 8,24l0 521zm406 -261l0 -232 -174 0c-16,0 -30,6 -42,17 -5,6 -9,12 -12,19 -3,7 -4,14 -4,22l0 116c0,17 5,31 16,42 6,5 13,9 19,12 8,3 16,4 23,4l174 0zm-100 58l-136 218c-6,10 -14,14 -23,14 -8,0 -15,-3 -21,-9 -6,-6 -10,-13 -10,-20 0,-6 2,-11 5,-16l117 -187 -6 0c-31,0 -59,-11 -81,-34 -23,-22 -35,-49 -35,-82l0 -115c0,-33 12,-60 34,-82 23,-23 50,-34 82,-34l203 0c19,0 28,10 28,29l0 521c0,9 -2,16 -8,22 -5,5 -12,7 -20,7 -8,0 -15,-2 -20,-7 -6,-5 -9,-12 -9,-22l0 -203 -100 0z"/>
   <g>
    <path class="fil11" d="M6567 5317c0,0 0,0 0,0z"/>
    <path class="fil12" d="M7376 3060l-4176 0 0 -490 4176 0 0 490z"/>
    <path class="fil13" d="M5955 5625l-2755 0 0 -2123 2755 0 0 2123z"/>
    <path class="fil12" d="M5033 6009l-1833 0 0 -311 1833 0 0 311z"/>
    <path class="fil12" d="M5915 3449l-2715 0 0 -36 2715 0 0 36z"/>
    <path class="fil13" d="M7351 3816l-1322 0 0 635 1322 0 0 -635z"/>
    <path class="fil13" d="M4555 6066l-1188 0 0 98 1188 0 0 -98z"/>
    <path class="fil13" d="M4555 6213l-1355 0 0 98 1355 0 0 -98z"/>
    <path class="fil13" d="M4555 6360l-1355 0 0 98 1355 0 0 -98z"/>
    <path class="fil13" d="M4555 6507l-1355 0 0 98 1355 0 0 -98z"/>
    <path class="fil13" d="M4555 6654l-1355 0 0 98 1355 0 0 -98z"/>
    <path class="fil13" d="M4555 6801l-1355 0 0 98 1355 0 0 -98z"/>
    <path class="fil13" d="M4555 6948l-1355 0 0 98 1355 0 0 -98z"/>
    <path class="fil13" d="M4555 7095l-1355 0 0 98 1355 0 0 -98z"/>
    <path class="fil13" d="M4275 7242l-1075 0 0 97 1075 0 0 -97z"/>
    <path class="fil13" d="M5964 6066l-1189 0 0 98 1189 0 0 -98z"/>
    <path class="fil13" d="M5964 6213l-1356 0 0 98 1356 0 0 -98z"/>
    <path class="fil13" d="M5964 6360l-1356 0 0 98 1356 0 0 -98z"/>
    <path class="fil13" d="M5964 6507l-1356 0 0 98 1356 0 0 -98z"/>
    <path class="fil13" d="M5964 6654l-1356 0 0 98 1356 0 0 -98z"/>
    <path class="fil13" d="M5964 6801l-1356 0 0 98 1356 0 0 -98z"/>
    <path class="fil13" d="M5964 6948l-1356 0 0 98 1356 0 0 -98z"/>
    <path class="fil13" d="M5964 7095l-1356 0 0 98 1356 0 0 -98z"/>
    <path class="fil13" d="M5683 7242l-1075 0 0 97 1075 0 0 -97z"/>
    <path class="fil13" d="M7372 6066l-1188 0 0 98 1188 0 0 -98z"/>
    <path class="fil13" d="M7372 6213l-1355 0 0 98 1355 0 0 -98z"/>
    <path class="fil13" d="M7372 6360l-1355 0 0 98 1355 0 0 -98z"/>
    <path class="fil13" d="M7372 6507l-1355 0 0 98 1355 0 0 -98z"/>
    <path class="fil13" d="M7372 6654l-1355 0 0 98 1355 0 0 -98z"/>
    <path class="fil13" d="M7372 6801l-1355 0 0 98 1355 0 0 -98z"/>
    <path class="fil13" d="M7372 6948l-1355 0 0 98 1355 0 0 -98z"/>
    <path class="fil13" d="M7372 7095l-1355 0 0 98 1355 0 0 -98z"/>
    <path class="fil13" d="M7092 7242l-1075 0 0 97 1075 0 0 -97z"/>
    <path class="fil13" d="M5955 3131l-2755 0 0 220 2755 0 0 -220z"/>
    <path class="fil10 str0" d="M3959 2922c0,3 0,5 -2,7 -2,1 -4,2 -7,2 -2,0 -4,-1 -6,-2 -2,-2 -3,-4 -3,-7l0 -128 -73 132c-1,2 -3,4 -4,5l-2 1c-1,0 -2,0 -3,1 -2,0 -4,-1 -6,-3 -1,-2 -2,-5 -2,-8l0 -163c0,-3 1,-5 2,-7 2,-1 4,-2 7,-2 2,0 4,1 6,2 2,2 3,4 3,7l0 128 73 -132c1,-2 3,-3 4,-5 2,-1 4,-2 5,-2 2,0 4,1 6,3 2,2 2,5 2,8l0 163zm91 -82l-27 0c-3,0 -5,0 -7,-2 -1,-2 -2,-4 -2,-7 0,-2 1,-4 2,-6 2,-2 4,-3 7,-3l27 0c5,0 10,-1 13,-5 4,-3 5,-7 5,-13l0 -18c0,-5 -1,-9 -5,-13 -3,-4 -7,-5 -13,-5l-18 0c-4,0 -7,1 -10,3 -3,2 -6,5 -7,9 0,2 -1,3 -3,5 -1,0 -2,1 -2,1l-3 1c-3,0 -5,-1 -7,-3 -2,-2 -3,-4 -3,-6l1 -4c2,-7 6,-13 13,-17 6,-5 13,-7 21,-7l18 0c10,0 19,3 26,10 7,7 10,16 10,26l0 18c0,5 -1,10 -3,15 -2,5 -5,9 -9,12 8,7 12,16 12,27l0 37c0,10 -3,18 -10,25 -7,7 -16,11 -26,11l-18 0c-8,0 -15,-2 -21,-7 -6,-4 -11,-10 -13,-18l-1 -3c0,-2 1,-5 3,-6 2,-2 4,-3 7,-3 3,0 6,2 8,6 1,4 3,7 6,10 4,2 7,3 11,3l18 0c5,0 10,-2 13,-5 4,-3 5,-8 5,-13l0 -36c0,-6 -1,-10 -4,-13 -3,-4 -8,-6 -14,-6zm91 0l0 73 54 0c5,0 9,-2 13,-5 4,-3 5,-8 5,-13l0 -36c0,-6 -1,-10 -5,-13 -3,-4 -8,-6 -13,-6l-54 0zm0 -18l54 0c10,0 18,4 26,11 7,7 10,15 10,26l0 36c0,10 -3,18 -10,25 -7,7 -16,11 -26,11l-63 0c-6,0 -9,-3 -9,-9l0 -163c0,-6 3,-9 9,-9l72 0c3,0 5,1 7,2 1,2 2,4 2,7 0,2 -1,4 -2,6 -2,2 -4,3 -7,3l-63 0 0 54zm235 100c0,3 -1,5 -2,7 -2,1 -4,2 -7,2 -2,0 -4,-1 -6,-2 -2,-2 -3,-4 -3,-7l0 -128 -73 132c-1,2 -3,4 -4,5l-2 1c-1,0 -2,0 -3,1 -2,0 -4,-1 -6,-3 -2,-2 -2,-5 -2,-8l0 -163c0,-3 0,-5 2,-7 2,-1 4,-2 7,-2 2,0 4,1 6,2 2,2 3,4 3,7l0 128 73 -132c1,-2 2,-3 4,-5 2,-1 3,-2 5,-2 2,0 4,1 6,3 1,2 2,5 2,8l0 163zm55 -82l54 0c5,0 9,-1 13,-5 4,-3 5,-7 5,-13l0 -36c0,-5 -1,-10 -5,-13 -3,-4 -8,-5 -13,-5l-54 0 0 72zm0 18l0 64c0,3 -1,5 -3,7 -2,1 -4,2 -6,2 -3,0 -5,-1 -7,-2 -2,-2 -2,-4 -2,-7l0 -163c0,-6 3,-9 9,-9l63 0c10,0 19,3 26,10 7,7 10,16 10,26l0 36c0,10 -3,19 -10,26 -7,7 -16,10 -26,10l-54 0zm140 28l-13 39c0,2 -2,3 -3,5 -1,0 -3,1 -5,1 -2,0 -5,-1 -6,-3 -2,-1 -3,-3 -3,-6l0 -3 55 -163c2,-5 4,-8 8,-8 4,0 7,3 9,8l54 163 1 3c0,3 -1,5 -3,7 -2,1 -4,2 -7,2 -1,0 -2,0 -4,-1 -1,0 -3,-2 -4,-5l-13 -39 -66 0zm60 -19l-27 -80 -26 80 53 0zm81 -99l-37 0c-2,0 -5,-1 -6,-3 -2,-2 -3,-4 -3,-6 0,-2 1,-4 3,-6 1,-2 3,-3 6,-3l91 0c3,0 5,1 6,2 2,2 3,4 3,7 0,2 -1,4 -2,6 -2,2 -4,3 -7,3l-36 0 0 154c0,3 -1,5 -3,7 -1,1 -4,2 -6,2 -3,0 -5,-1 -7,-2 -1,-2 -2,-4 -2,-7l0 -154zm117 54l46 0c2,0 5,1 6,3 2,2 3,4 3,6 0,3 -1,5 -2,6 -2,2 -4,3 -7,3l-46 0 0 73 64 0c3,0 5,1 7,3 1,2 2,4 2,6 0,2 -1,4 -2,6 -2,2 -4,3 -7,3l-73 0c-6,0 -9,-3 -9,-9l0 -163c0,-6 3,-9 9,-9l73 0c3,0 5,1 7,2 1,2 2,4 2,7 0,2 -1,4 -2,6 -2,2 -4,3 -7,3l-64 0 0 54zm218 100c0,3 -1,5 -2,7 -2,1 -4,2 -7,2 -2,0 -4,-1 -6,-2 -2,-2 -3,-4 -3,-7l0 -154 -29 0 -44 156c0,2 -1,4 -3,5 -2,1 -3,2 -5,2 -3,0 -5,-1 -7,-2 -2,-2 -3,-4 -3,-7 0,-1 0,-2 1,-2l45 -164c1,-4 4,-6 9,-6l45 0c6,0 9,3 9,9l0 163zm54 -82l55 0c5,0 9,2 13,6 3,3 5,7 5,13l0 36c0,5 -2,9 -5,13 -2,2 -4,3 -6,4 -2,1 -5,1 -7,1l-55 0 0 -73zm0 -18l0 -63c0,-3 -1,-5 -3,-7 -1,-1 -3,-2 -6,-2 -2,0 -4,0 -6,2 -2,1 -3,4 -3,7l0 163c0,6 3,9 9,9l64 0c9,0 18,-3 25,-10 7,-7 11,-16 11,-26l0 -36c0,-10 -4,-19 -11,-26 -7,-7 -15,-11 -25,-11l-55 0zm218 0l0 -63c0,-3 1,-5 3,-7 1,-1 4,-2 6,-2 2,0 4,0 6,2 2,1 3,4 3,7l0 163c0,2 -1,5 -3,7 -2,1 -4,2 -6,2 -2,0 -5,-1 -7,-2 -1,-2 -2,-4 -2,-7l0 -82 -73 0 0 82c0,3 -1,5 -2,7 -2,1 -4,2 -7,2 -2,0 -4,-1 -6,-2 -2,-2 -3,-4 -3,-7l0 -163c0,-3 1,-5 3,-7 2,-1 4,-2 6,-2 3,0 5,1 6,2 2,2 3,4 3,7l0 63 73 0zm181 100c0,3 -1,5 -2,7 -2,1 -4,2 -7,2 -2,0 -4,-1 -6,-2 -2,-2 -3,-4 -3,-7l0 -163c0,-3 1,-5 3,-7 2,-2 4,-2 6,-2 2,0 5,0 7,2 1,1 2,4 2,7l0 163zm-109 -82l0 73 37 0c5,0 9,-2 13,-5 3,-3 5,-8 5,-13l0 -36c0,-6 -2,-10 -5,-13 -4,-4 -8,-6 -13,-6l-37 0zm0 -18l37 0c9,0 18,4 25,11 7,7 11,15 11,26l0 36c0,10 -4,18 -11,25 -7,7 -15,11 -25,11l-46 0c-6,0 -9,-3 -9,-9l0 -163c0,-3 1,-5 3,-7 2,-2 4,-2 6,-2 3,0 5,0 6,2 2,1 3,4 3,7l0 63zm218 -90l-36 0c-3,0 -5,-1 -7,-3 -2,-2 -3,-4 -3,-6 0,-2 1,-4 3,-6 1,-2 4,-3 7,-3l36 0c2,0 4,1 6,2 2,2 3,4 3,7 0,2 -1,4 -2,6 -2,2 -4,3 -7,3zm36 190c0,3 -1,5 -3,7 -1,1 -3,2 -6,2 -2,0 -5,-1 -6,-2 -2,-2 -3,-4 -3,-7l0 -128 -74 132c-1,2 -2,4 -4,5l-2 1c0,0 -1,0 -2,1 -2,0 -4,-1 -6,-3 -2,-2 -3,-5 -3,-8l0 -163c0,-3 1,-5 3,-7 2,-1 4,-2 6,-2 3,0 5,1 7,2 1,2 2,4 2,7l0 128 74 -132c1,-2 2,-3 4,-5 1,-1 3,-2 5,-2 2,0 4,1 5,3 2,2 3,5 3,8l0 163zm236 -94c6,3 10,7 13,13 3,5 5,11 5,18l0 36c0,10 -4,18 -11,25 -7,7 -15,11 -25,11l-64 0c-6,0 -9,-3 -9,-9l0 -163c0,-6 3,-9 9,-9l55 0c10,0 18,3 25,10 7,7 11,16 11,26l0 18c0,4 -1,8 -2,12 -1,4 -4,8 -7,12zm-73 12l0 73 55 0c5,0 9,-2 12,-5 4,-3 6,-8 6,-13l0 -36c0,-6 -2,-10 -5,-13 -4,-4 -8,-6 -13,-6l-55 0zm46 -18c5,0 9,-1 12,-5 4,-3 6,-8 6,-13l0 -18c0,-5 -2,-9 -5,-13 -4,-4 -8,-5 -13,-5l-46 0 0 54 46 0zm99 0l46 0c2,0 4,1 6,3 2,2 3,4 3,6 0,3 -1,5 -3,6 -1,2 -3,3 -6,3l-46 0 0 73 64 0c2,0 4,1 6,3 2,2 3,4 3,6 0,2 -1,4 -2,6 -2,2 -4,3 -7,3l-73 0c-6,0 -9,-3 -9,-9l0 -163c0,-6 3,-9 9,-9l73 0c2,0 4,1 6,2 2,2 3,4 3,7 0,2 -1,4 -2,6 -2,2 -4,3 -7,3l-64 0 0 54zm181 109l-45 0c-10,0 -18,-3 -26,-11 -7,-7 -10,-15 -10,-25l0 -109c0,-10 3,-19 10,-26 7,-7 16,-10 26,-10l45 0c3,0 5,1 7,2 2,2 2,4 2,7 0,2 0,4 -2,6 -1,2 -4,3 -7,3l-45 0c-5,0 -9,1 -13,5 -2,2 -3,4 -4,6 -1,2 -1,4 -1,7l0 109c0,5 1,9 5,13 2,1 4,3 6,4 2,1 5,1 7,1l45 0c3,0 5,1 7,3 2,2 2,4 2,6 0,2 0,4 -2,6 -1,2 -4,3 -7,3zm91 -163l-36 0c-3,0 -5,-1 -7,-3 -2,-2 -2,-4 -2,-6 0,-2 0,-4 2,-6 1,-2 4,-3 7,-3l90 0c3,0 5,1 7,2 1,2 2,4 2,7 0,2 0,4 -2,6 -1,2 -4,3 -7,3l-36 0 0 154c0,3 -1,5 -3,7 -1,1 -3,2 -6,2 -2,0 -5,-1 -6,-2 -2,-2 -3,-4 -3,-7l0 -154zm190 54l0 -63c0,-3 1,-5 3,-7 2,-1 4,-2 6,-2 3,0 5,0 7,2 1,1 2,4 2,7l0 163c0,2 -1,5 -3,7 -2,1 -4,2 -6,2 -2,0 -4,-1 -6,-2 -2,-2 -3,-4 -3,-7l0 -82 -72 0 0 82c0,3 -1,5 -3,7 -2,1 -4,2 -6,2 -3,0 -5,-1 -7,-2 -2,-2 -2,-4 -2,-7l0 -163c0,-3 0,-5 2,-7 2,-1 4,-2 7,-2 2,0 4,1 6,2 2,2 3,4 3,7l0 63 72 0zm163 100c0,3 -1,5 -2,7 -2,1 -4,2 -7,2 -2,0 -4,-1 -6,-2 -2,-2 -3,-4 -3,-7l0 -128 -73 132c-1,2 -3,4 -4,5l-2 1c-1,0 -2,0 -3,1 -2,0 -4,-1 -6,-3 -2,-2 -2,-5 -2,-8l0 -163c0,-3 0,-5 2,-7 2,-1 4,-2 7,-2 2,0 4,1 6,2 2,2 3,4 3,7l0 128 73 -132c1,-2 2,-3 4,-5 2,-1 3,-2 5,-2 2,0 4,1 6,3 1,2 2,5 2,8l0 163zm55 -94l76 -76c2,-1 4,-2 6,-2 3,0 5,1 7,2 2,2 3,4 3,7 0,2 -1,4 -3,6l-54 54 55 98 2 5c0,3 -1,5 -3,6 -2,2 -4,3 -7,3 -3,0 -5,-2 -8,-5l-53 -94 -21 21 0 69c0,3 -1,5 -3,7 -2,1 -4,2 -6,2 -3,0 -5,-1 -7,-2 -2,-2 -2,-4 -2,-7l0 -163c0,-3 1,-5 2,-7 2,-1 4,-2 7,-2 2,0 4,0 6,2 2,1 3,4 3,6l0 70z"/>
    <path class="fil13" d="M7351 4486l-1322 0 0 1133 1322 0 0 -1133z"/>
   </g>
   <g>
    <path class="fil14" d="M15741 6854c-144,0 -282,-3 -408,-8l0 -2c126,5 263,8 408,8 596,0 1079,-49 1079,-109 0,-28 -103,-53 -272,-72 0,-1 0,-2 0,-3 183,19 295,46 295,75 0,61 -494,111 -1102,111z"/>
    <path class="fil15" d="M15741 6852c-145,0 -282,-3 -408,-8l0 -3c125,5 263,8 408,8 583,0 1056,-47 1056,-106 0,-26 -94,-50 -250,-69 0,-1 0,-2 1,-3 169,19 272,44 272,72 0,60 -483,109 -1079,109z"/>
    <path class="fil16" d="M15741 6849c-145,0 -283,-3 -408,-8l0 -2c125,5 263,8 408,8 571,0 1034,-46 1034,-104 0,-25 -86,-47 -229,-65 0,-2 0,-3 1,-4 156,19 250,43 250,69 0,59 -473,106 -1056,106z"/>
    <path class="fil17" d="M15741 6847c-145,0 -283,-3 -408,-8l0 -3c124,6 263,9 408,9 558,0 1011,-46 1011,-102 0,-23 -77,-45 -208,-62 1,-1 1,-2 2,-3 143,18 229,40 229,65 0,58 -463,104 -1034,104z"/>
    <path class="fil18" d="M15741 6845c-145,0 -284,-3 -408,-9l0 -2c124,5 262,9 408,9 546,0 988,-45 988,-100 0,-22 -69,-42 -186,-58 0,-1 1,-3 1,-4 131,17 208,39 208,62 0,56 -453,102 -1011,102z"/>
    <path class="fil19" d="M15741 6843c-146,0 -284,-4 -408,-9l0 -3c124,6 262,9 408,9 533,0 966,-43 966,-97 0,-20 -61,-39 -166,-55 1,-1 1,-2 2,-3 117,16 186,36 186,58 0,55 -442,100 -988,100z"/>
    <path class="fil20" d="M15741 6840c-146,0 -284,-3 -408,-9l0 -2c123,6 262,9 408,9 521,0 943,-43 943,-95 0,-19 -53,-36 -145,-51 1,-1 2,-2 2,-4 105,16 166,35 166,55 0,54 -433,97 -966,97z"/>
    <path class="fil21" d="M15741 6838c-146,0 -285,-3 -408,-9l0 -3c123,6 261,10 408,10 508,0 921,-42 921,-93 0,-17 -46,-33 -125,-47 1,-1 2,-2 2,-4 92,15 145,32 145,51 0,52 -422,95 -943,95z"/>
    <path class="fil22" d="M15741 6836c-147,0 -285,-4 -408,-10l0 -3c122,7 261,10 408,10 496,0 898,-40 898,-90 0,-15 -38,-30 -104,-42 1,-2 1,-3 2,-5 79,14 125,30 125,47 0,51 -413,93 -921,93z"/>
    <path class="fil23" d="M15741 6833c-147,0 -286,-3 -408,-10l0 -2c121,6 260,10 408,10 483,0 875,-40 875,-88 0,-14 -30,-26 -84,-38 1,-1 2,-3 3,-4 66,12 104,27 104,42 0,50 -402,90 -898,90z"/>
    <path class="fil24" d="M15741 6831c-148,0 -287,-4 -408,-10l0 -3c121,7 260,11 408,11 471,0 852,-39 852,-86 0,-12 -23,-23 -65,-33 1,-2 3,-3 4,-5 54,12 84,24 84,38 0,48 -392,88 -875,88z"/>
    <path class="fil25" d="M15741 6829c-148,0 -287,-4 -408,-11l0 -2c120,7 259,11 408,11 458,0 830,-38 830,-84 0,-10 -17,-19 -47,-28 1,-2 3,-3 4,-5 42,10 65,21 65,33 0,47 -381,86 -852,86z"/>
    <path class="fil12" d="M15741 6827c-149,0 -288,-4 -408,-11l0 -3c119,7 259,11 408,11 446,0 807,-36 807,-81 0,-8 -10,-15 -30,-22 2,-2 4,-4 6,-6 30,9 47,18 47,28 0,46 -372,84 -830,84z"/>
    <path class="fil26" d="M15741 6824c-149,0 -289,-4 -408,-11l0 -3c119,8 258,12 408,12 433,0 785,-35 785,-79 0,-5 -6,-10 -15,-15 2,-3 5,-5 7,-7 20,7 30,14 30,22 0,45 -361,81 -807,81z"/>
    <path class="fil27" d="M15741 6822c-150,0 -290,-4 -408,-12l0 -2c118,7 258,12 408,12 421,0 762,-35 762,-77 0,-3 -1,-5 -4,-8 4,-2 8,-5 12,-7 9,5 15,10 15,15 0,44 -352,79 -785,79z"/>
    <path class="fil28" d="M15741 6820c-150,0 -290,-5 -408,-12l0 -3c117,8 257,13 408,13 403,0 731,-33 739,-74 7,-2 13,-5 19,-9 3,3 4,5 4,8 0,42 -341,77 -762,77z"/>
    <path class="fil29" d="M15741 6818c-151,0 -291,-5 -408,-13l0 -3c115,8 256,13 408,13 372,0 678,-28 713,-65 9,-1 18,-3 26,-6 -8,41 -336,74 -739,74z"/>
    <path class="fil30" d="M15741 6815c-152,0 -293,-5 -408,-13l0 -3c114,9 255,14 408,14 358,0 652,-27 690,-62l13 0c4,0 7,-1 10,-1 -35,37 -341,65 -713,65z"/>
    <path class="fil31" d="M15741 6813c-153,0 -294,-5 -408,-14l0 -2c113,8 254,14 408,14 345,0 630,-27 667,-60l23 0c-38,35 -332,62 -690,62z"/>
    <path class="fil32" d="M15741 6811c-154,0 -295,-6 -408,-14l0 -3c111,9 253,14 408,14 333,0 607,-25 644,-57l7 0 16 0c-37,33 -322,60 -667,60z"/>
    <path class="fil33" d="M15741 6808c-155,0 -297,-5 -408,-14l0 -3c109,9 252,15 408,15 320,0 584,-24 622,-55l22 0c-37,32 -311,57 -644,57z"/>
    <path class="fil34" d="M15741 6806c-156,0 -299,-6 -408,-15l0 -3c107,10 250,16 408,16 308,0 562,-23 599,-53l23 0c-38,31 -302,55 -622,55z"/>
    <path class="fil35" d="M15741 6804c-158,0 -301,-6 -408,-16l0 -3c105,10 249,16 408,16 295,0 539,-22 576,-50l23 0c-37,30 -291,53 -599,53z"/>
    <path class="fil36" d="M15741 6801c-159,0 -303,-6 -408,-16l0 -4c102,11 247,18 408,18 283,0 516,-21 553,-48l23 0c-37,28 -281,50 -576,50z"/>
    <path class="fil37" d="M15741 6799c-161,0 -306,-7 -408,-18l0 -3c98,12 244,19 408,19 270,0 494,-20 530,-46l23 0c-37,27 -270,48 -553,48z"/>
    <path class="fil38" d="M15741 6797c-164,0 -310,-7 -408,-19l0 -4c93,13 241,21 408,21 258,0 471,-19 507,-44l23 0c-36,26 -260,46 -530,46z"/>
    <path class="fil39" d="M15741 6795c-167,0 -315,-8 -408,-21l0 -4c88,14 238,22 408,22 245,0 448,-18 484,-41l23 0c-36,25 -249,44 -507,44z"/>
    <path class="fil40" d="M15741 6792c-170,0 -320,-8 -408,-22l0 -4c80,14 232,24 408,24 232,0 425,-17 461,-39l23 0c-36,23 -239,41 -484,41z"/>
    <path class="fil41" d="M15741 6790c-176,0 -328,-10 -408,-24l0 -5c68,16 225,27 408,27 220,0 403,-16 438,-37l23 0c-36,22 -229,39 -461,39z"/>
    <path class="fil42" d="M15741 6788c-183,0 -340,-11 -408,-27l0 -7c48,18 212,32 408,32 207,0 380,-16 416,-35l22 0c-35,21 -218,37 -438,37z"/>
    <path class="fil43" d="M15741 6786c-196,0 -360,-14 -408,-32l0 -3 15 0c36,18 198,32 393,32 195,0 357,-14 392,-32l24 0c-36,19 -209,35 -416,35z"/>
    <path class="fil44" d="M15741 6783c-195,0 -357,-14 -393,-32l23 0c35,17 187,30 370,30 182,0 335,-13 369,-30l23 0c-35,18 -197,32 -392,32z"/>
    <path class="fil45" d="M15741 6781c-183,0 -335,-13 -370,-30l24 0c34,16 176,28 346,28 169,0 311,-12 346,-28l23 0c-34,17 -187,30 -369,30z"/>
    <path class="fil46" d="M15741 6779c-170,0 -312,-12 -346,-28l23 0c34,14 165,25 323,25 157,0 289,-11 323,-25l23 0c-35,16 -177,28 -346,28z"/>
    <path class="fil47" d="M15741 6776c-158,0 -289,-11 -323,-25l23 0c34,13 155,23 300,23 145,0 266,-10 300,-23l23 0c-34,14 -166,25 -323,25z"/>
    <path class="fil48" d="M15741 6774c-145,0 -266,-10 -300,-23l23 0c34,12 145,21 277,21 132,0 243,-9 276,-21l24 0c-34,13 -155,23 -300,23z"/>
    <path class="fil49" d="M15741 6772c-132,0 -243,-9 -277,-21l24 0c33,11 133,19 253,19 119,0 220,-8 253,-19l23 0c-33,12 -144,21 -276,21z"/>
    <path class="fil50" d="M15741 6770c-120,0 -220,-8 -253,-19l24 0c31,9 122,16 229,16 107,0 197,-7 229,-16l24 0c-33,11 -134,19 -253,19z"/>
    <path class="fil51" d="M15741 6767c-107,0 -198,-7 -229,-16l23 0c31,8 111,14 206,14 94,0 174,-6 205,-14l24 0c-32,9 -122,16 -229,16z"/>
    <path class="fil52" d="M15741 6765c-95,0 -175,-6 -206,-14l25 0c30,7 99,12 181,12 81,0 151,-5 181,-12l24 0c-31,8 -111,14 -205,14z"/>
    <path class="fil53" d="M15741 6763c-82,0 -151,-5 -181,-12l25 0c28,5 87,10 156,10 68,-1 128,-5 156,-10l25 0c-30,7 -100,12 -181,12z"/>
    <path class="fil54" d="M15741 6760c-69,0 -128,-4 -156,-9l312 0c-28,5 -88,10 -156,9z"/>
    <path class="fil14" d="M13464 6762c-1026,0 -1857,-34 -1857,-75 0,-42 831,-76 1857,-76 331,0 641,4 910,10l0 2c-268,-6 -578,-10 -910,-10 -1004,0 -1819,33 -1819,74 0,40 815,74 1819,74 332,-1 642,-4 910,-10l0 1c-269,6 -579,10 -910,10z"/>
    <path class="fil55" d="M13464 6760c-1004,0 -1819,-33 -1819,-73 0,-41 815,-74 1819,-74 332,0 642,4 910,10l0 2c-266,-7 -577,-10 -910,-10 -983,0 -1781,32 -1781,72 0,40 798,72 1781,72 333,0 644,-4 910,-10l0 2c-268,6 -578,10 -910,9z"/>
    <path class="fil56" d="M13464 6759c-983,0 -1781,-32 -1781,-72 0,-40 798,-72 1781,-72 333,0 644,3 910,10l0 1c-265,-6 -576,-10 -910,-10 -962,0 -1743,32 -1743,71 0,39 781,70 1743,70 334,0 645,-4 910,-10l0 2c-266,6 -577,10 -910,10z"/>
    <path class="fil57" d="M13464 6757c-962,0 -1743,-31 -1743,-70 0,-39 781,-71 1743,-71 334,0 645,4 910,10l0 2c-263,-7 -575,-10 -910,-10 -941,0 -1705,31 -1705,69 0,38 764,69 1705,69 335,0 647,-4 910,-11l0 2c-265,6 -576,10 -910,10z"/>
    <path class="fil58" d="M13464 6756c-941,0 -1705,-31 -1705,-69 0,-38 764,-69 1705,-69 335,0 647,3 910,10l0 2c-262,-7 -574,-11 -910,-11 -920,0 -1666,30 -1666,68 0,37 746,67 1666,67 336,0 648,-4 910,-11l0 2c-263,7 -575,11 -910,11z"/>
    <path class="fil59" d="M13464 6754c-920,0 -1666,-30 -1666,-67 0,-38 746,-68 1666,-68 336,0 648,4 910,11l0 2c-260,-7 -573,-11 -910,-11 -899,0 -1628,29 -1628,66 0,36 729,66 1628,66 337,0 650,-5 910,-12l0 2c-262,7 -574,11 -910,11z"/>
    <path class="fil19" d="M13464 6753c-899,0 -1628,-30 -1628,-66 0,-37 729,-66 1628,-66 337,0 650,4 910,11l0 2c-258,-8 -571,-12 -910,-12 -878,0 -1590,29 -1590,65 0,35 712,64 1590,64 339,0 652,-4 910,-11l0 1c-260,7 -573,12 -910,12z"/>
    <path class="fil20" d="M13464 6751c-878,0 -1590,-29 -1590,-64 0,-36 712,-65 1590,-65 339,0 652,4 910,12l0 2c-256,-8 -570,-12 -910,-12 -857,0 -1552,28 -1552,63 0,34 695,63 1552,63 340,0 654,-5 910,-12l0 2c-258,7 -571,11 -910,11z"/>
    <path class="fil60" d="M13464 6750c-857,0 -1552,-29 -1552,-63 0,-35 695,-63 1552,-63 340,0 654,4 910,12l0 2c-253,-8 -568,-13 -910,-13 -836,0 -1514,28 -1514,62 0,34 678,61 1514,61 342,0 657,-5 910,-12l0 2c-256,7 -570,12 -910,12z"/>
    <path class="fil61" d="M13464 6748c-836,0 -1514,-27 -1514,-61 0,-34 678,-62 1514,-62 342,0 657,5 910,13l0 2c-251,-8 -566,-13 -910,-13 -815,0 -1475,27 -1475,60 0,33 660,59 1475,59 344,0 659,-4 910,-12l0 2c-253,7 -568,12 -910,12z"/>
    <path class="fil22" d="M13464 6746c-815,0 -1475,-26 -1475,-59 0,-33 660,-60 1475,-60 344,0 659,5 910,13l0 2c-248,-8 -564,-13 -910,-13 -794,0 -1437,26 -1437,58 0,32 643,58 1437,58 346,0 662,-5 910,-13l0 2c-251,8 -566,12 -910,12z"/>
    <path class="fil62" d="M13464 6745c-794,0 -1437,-26 -1437,-58 0,-32 643,-58 1437,-58 346,0 662,5 910,13l0 2c-245,-9 -562,-14 -910,-14 -772,0 -1399,26 -1399,57 0,31 627,57 1399,57 348,0 665,-6 910,-14l0 2c-248,8 -564,13 -910,13z"/>
    <path class="fil24" d="M13464 6744c-772,0 -1399,-26 -1399,-57 0,-31 627,-57 1399,-57 348,0 665,5 910,14l0 2c-241,-9 -560,-14 -910,-14 -751,0 -1361,24 -1361,55 0,30 610,55 1361,55 350,0 669,-6 910,-14l0 2c-245,8 -562,14 -910,14z"/>
    <path class="fil25" d="M13464 6742c-751,0 -1361,-25 -1361,-55 0,-31 610,-55 1361,-55 350,0 669,5 910,14l0 2c-237,-9 -557,-15 -910,-15 -730,0 -1323,24 -1323,54 0,29 593,53 1323,53 353,0 673,-5 910,-14l0 2c-241,8 -560,14 -910,14z"/>
    <path class="fil63" d="M13464 6740c-730,0 -1323,-24 -1323,-53 0,-30 593,-54 1323,-54 353,0 673,6 910,15l0 2c-233,-9 -554,-15 -910,-15 -709,0 -1284,23 -1284,52 0,28 575,52 1284,52 356,0 677,-6 910,-15l0 2c-237,9 -557,14 -910,14z"/>
    <path class="fil64" d="M13464 6739c-709,0 -1284,-24 -1284,-52 0,-29 575,-52 1284,-52 356,0 677,6 910,15l0 2c-227,-10 -551,-16 -910,-16 -688,0 -1246,23 -1246,51 0,28 558,50 1246,50 359,0 683,-6 910,-16l0 3c-233,9 -554,15 -910,15z"/>
    <path class="fil65" d="M13464 6737c-688,0 -1246,-22 -1246,-50 0,-28 558,-51 1246,-51 359,0 683,6 910,16l0 2c-221,-10 -547,-16 -910,-16 -667,0 -1208,22 -1208,49 0,27 541,49 1208,49 363,0 689,-7 910,-17l0 2c-227,10 -551,16 -910,16z"/>
    <path class="fil27" d="M13464 6736c-667,0 -1208,-22 -1208,-49 0,-27 541,-49 1208,-49 363,0 689,6 910,16l0 3c-215,-11 -542,-18 -910,-18 -646,0 -1170,21 -1170,48 0,26 524,47 1170,47 368,0 695,-7 910,-17l0 2c-221,10 -547,17 -910,17z"/>
    <path class="fil28" d="M13464 6734c-646,0 -1170,-21 -1170,-47 0,-27 524,-48 1170,-48 368,0 695,7 910,18l0 2c-206,-11 -537,-18 -910,-18 -625,0 -1132,20 -1132,46 0,25 507,46 1132,46 373,0 704,-8 910,-19l0 3c-215,10 -542,17 -910,17z"/>
    <path class="fil66" d="M13464 6733c-625,0 -1132,-21 -1132,-46 0,-26 507,-46 1132,-46 373,0 704,7 910,18l0 3c-196,-12 -530,-20 -910,-20 -604,0 -1094,20 -1094,45 0,24 490,44 1094,44 380,0 714,-8 910,-20l0 3c-206,11 -537,19 -910,19z"/>
    <path class="fil67" d="M13464 6731c-604,0 -1094,-20 -1094,-44 0,-25 490,-45 1094,-45 380,0 714,8 910,20l0 3c-184,-13 -522,-21 -910,-21 -583,0 -1056,19 -1056,43 0,23 473,43 1056,43 388,0 726,-9 910,-22l0 3c-196,12 -530,20 -910,20z"/>
    <path class="fil68" d="M13464 6730c-583,0 -1056,-20 -1056,-43 0,-24 473,-43 1056,-43 388,0 726,8 910,21l0 3c-167,-13 -512,-22 -910,-22 -562,0 -1017,18 -1017,41 0,23 455,41 1017,41 398,0 743,-9 910,-23l0 3c-184,13 -522,22 -910,22z"/>
    <path class="fil69" d="M13464 6728c-562,0 -1017,-18 -1017,-41 0,-23 455,-41 1017,-41 398,0 743,9 910,22l0 4c-144,-15 -497,-25 -910,-25 -541,0 -979,18 -979,40 0,22 438,39 979,39 413,0 766,-10 910,-24l0 3c-167,14 -512,23 -910,23z"/>
    <path class="fil70" d="M13464 6726c-541,0 -979,-17 -979,-39 0,-22 438,-40 979,-40 413,0 766,10 910,25l0 5c-107,-16 -474,-28 -910,-28 -519,0 -941,17 -941,38 0,21 422,38 941,38 436,0 803,-12 910,-28l0 5c-144,14 -497,24 -910,24z"/>
    <path class="fil33" d="M13464 6725c-519,0 -941,-17 -941,-38 0,-21 422,-38 941,-38 436,0 803,12 910,28l0 20c-107,16 -474,28 -910,28zm0 -75c-498,0 -903,17 -903,37 0,20 405,36 903,36 499,0 904,-16 904,-36 0,-20 -405,-37 -904,-37z"/>
    <path class="fil71" d="M13464 6723c-498,0 -903,-16 -903,-36 0,-20 405,-37 903,-37 499,0 904,17 904,37 0,20 -405,36 -904,36zm0 -71c-477,0 -865,15 -865,35 0,19 388,35 865,35 478,0 866,-16 866,-35 0,-20 -388,-35 -866,-35z"/>
    <path class="fil72" d="M13464 6722c-477,0 -865,-16 -865,-35 0,-20 388,-35 865,-35 478,0 866,15 866,35 0,19 -388,35 -866,35zm0 -69c-456,0 -826,15 -826,34 0,18 370,33 826,33 457,0 827,-15 827,-33 0,-19 -370,-34 -827,-34z"/>
    <path class="fil73" d="M13464 6720c-456,0 -826,-15 -826,-33 0,-19 370,-34 826,-34 457,0 827,15 827,34 0,18 -370,33 -827,33zm0 -65c-435,0 -788,14 -788,32 0,17 353,32 788,32 436,0 789,-15 789,-32 0,-18 -353,-32 -789,-32z"/>
    <path class="fil74" d="M13464 6719c-435,0 -788,-15 -788,-32 0,-18 353,-32 788,-32 436,0 789,14 789,32 0,17 -353,32 -789,32zm0 -63c-414,0 -750,14 -750,31 0,16 336,30 750,30 415,0 751,-14 751,-30 0,-17 -336,-31 -751,-31z"/>
    <path class="fil75" d="M13464 6717c-414,0 -750,-14 -750,-30 0,-17 336,-31 750,-31 415,0 751,14 751,31 0,16 -336,30 -751,30zm0 -59c-393,0 -712,13 -712,29 0,16 319,28 712,28 394,0 713,-12 713,-28 0,-16 -319,-29 -713,-29z"/>
    <path class="fil76" d="M13464 6715c-393,0 -712,-12 -712,-28 0,-16 319,-29 712,-29 394,0 713,13 713,29 0,16 -319,28 -713,28zm0 -56c-372,0 -673,13 -673,28 0,15 301,27 673,27 373,0 675,-12 675,-27 0,-15 -302,-28 -675,-28z"/>
    <path class="fil39" d="M13464 6714c-372,0 -673,-12 -673,-27 0,-15 301,-28 673,-28 373,0 675,13 675,28 0,15 -302,27 -675,27zm0 -53c-351,0 -635,11 -635,26 0,14 284,26 635,26 352,0 636,-12 636,-26 0,-15 -284,-26 -636,-26z"/>
    <path class="fil77" d="M13464 6713c-351,0 -635,-12 -635,-26 0,-15 284,-26 635,-26 352,0 636,11 636,26 0,14 -284,26 -636,26zm0 -50c-329,0 -597,10 -597,24 0,13 268,24 597,24 331,0 598,-11 598,-24 0,-14 -267,-24 -598,-24z"/>
    <path class="fil78" d="M13464 6711c-329,0 -597,-11 -597,-24 0,-14 268,-24 597,-24 331,0 598,10 598,24 0,13 -267,24 -598,24zm0 -47c-308,0 -559,10 -559,23 0,12 251,22 559,22 309,0 560,-10 560,-22 0,-13 -251,-23 -560,-23z"/>
    <path class="fil79" d="M13464 6709c-308,0 -559,-10 -559,-22 0,-13 251,-23 559,-23 309,0 560,10 560,23 0,12 -251,22 -560,22zm0 -44c-287,0 -521,10 -521,22 0,12 234,21 521,21 288,0 522,-9 522,-21 0,-12 -234,-22 -522,-22z"/>
    <path class="fil42" d="M13464 6708c-287,0 -521,-9 -521,-21 0,-12 234,-22 521,-22 288,0 522,10 522,22 0,12 -234,21 -522,21zm0 -41c-266,0 -482,9 -482,20 0,11 216,19 482,19 267,0 484,-8 484,-19 0,-11 -217,-20 -484,-20z"/>
    <path class="fil43" d="M13464 6706c-266,0 -482,-8 -482,-19 0,-11 216,-20 482,-20 267,0 484,9 484,20 0,11 -217,19 -484,19zm0 -37c-245,0 -444,8 -444,18 0,10 199,18 444,18 246,0 445,-8 445,-18 0,-10 -199,-18 -445,-18z"/>
    <path class="fil80" d="M13464 6705c-245,0 -444,-8 -444,-18 0,-10 199,-18 444,-18 246,0 445,8 445,18 0,10 -199,18 -445,18zm0 -35c-224,0 -406,7 -406,17 0,9 182,16 406,16 225,0 407,-7 407,-16 0,-10 -182,-17 -407,-17z"/>
    <path class="fil81" d="M13464 6703c-224,0 -406,-7 -406,-16 0,-10 182,-17 406,-17 225,0 407,7 407,17 0,9 -182,16 -407,16zm0 -31c-203,0 -368,6 -368,15 0,8 165,15 368,15 204,0 369,-7 369,-15 0,-9 -165,-15 -369,-15z"/>
    <path class="fil82" d="M13464 6702c-203,0 -368,-7 -368,-15 0,-9 165,-15 368,-15 204,0 369,6 369,15 0,8 -165,15 -369,15zm0 -29c-182,0 -330,6 -330,14 0,7 148,13 330,13 183,0 331,-6 331,-13 0,-8 -148,-14 -331,-14z"/>
    <path class="fil83" d="M13464 6700c-182,0 -330,-6 -330,-13 0,-8 148,-14 330,-14 183,0 331,6 331,14 0,7 -148,13 -331,13zm0 -25c-161,0 -291,5 -291,12 0,6 130,12 291,12 162,0 293,-6 293,-12 0,-7 -131,-12 -293,-12z"/>
    <path class="fil84" d="M13464 6699c-161,0 -291,-6 -291,-12 0,-7 130,-12 291,-12 162,0 293,5 293,12 0,6 -131,12 -293,12z"/>
    <path class="fil85" d="M14074 6578l-1293 0 187 -873 919 0 187 873z"/>
    <path class="fil86" d="M13993 6199l-106 -494 -919 0 -106 494 1131 0z"/>
    <path class="fil87" d="M14345 6678l-1835 0c-97,0 -112,-129 -112,-129l2059 0c0,0 -15,129 -112,129z"/>
    <path class="fil88" d="M15855 5531c0,118 -96,214 -215,214l-4425 0c-118,0 -214,-96 -214,-214l0 -2571c0,-119 96,-215 214,-215l4425 0c119,0 215,96 215,215l0 2571z"/>
    <path class="fil87" d="M11001 5473l0 421c0,119 96,215 214,215l4425 0c119,0 215,-96 215,-215l0 -421 -4854 0z"/>
    <path class="fil89" d="M15698 5281l-4540 0 0 -2333 4540 0 0 2333z"/>
    <path class="fil90" d="M13583 5780c0,85 -70,155 -155,155 -86,0 -155,-70 -155,-155 0,-86 69,-156 155,-156 85,0 155,70 155,156z"/>
    <path class="fil91" d="M12750 3276l-989 0 0 -217 989 0 0 217z"/>
    <path class="fil86" d="M15094 3276l-2161 0 0 -217 2161 0 0 217z"/>
    <path class="fil92" d="M15094 3974l-3333 0 0 -599 3333 0 0 599z"/>
    <path class="fil93" d="M12750 4701l-989 0 0 -606 989 0 0 606z"/>
    <path class="fil94" d="M13922 4701l-989 0 0 -606 989 0 0 606z"/>
    <path class="fil95" d="M15094 4701l-989 0 0 -606 989 0 0 606z"/>
    <path class="fil90" d="M12750 4879l-989 0 0 -86 989 0 0 86z"/>
    <path class="fil86" d="M12750 5031l-989 0 0 -86 989 0 0 86z"/>
    <path class="fil86" d="M12750 5184l-989 0 0 -87 989 0 0 87z"/>
    <path class="fil90" d="M13922 4879l-989 0 0 -86 989 0 0 86z"/>
    <path class="fil86" d="M13922 5031l-989 0 0 -86 989 0 0 86z"/>
    <path class="fil86" d="M13922 5184l-989 0 0 -87 989 0 0 87z"/>
    <path class="fil90" d="M15094 4879l-989 0 0 -86 989 0 0 86z"/>
    <path class="fil86" d="M15094 5031l-989 0 0 -86 989 0 0 86z"/>
    <path class="fil86" d="M15094 5184l-989 0 0 -86 989 0 0 86z"/>
    <path class="fil96" d="M14900 5473l-687 0 -116 -192 803 0 0 192zm955 -1085l-157 0 0 -1440 -3009 0 -120 -199 3071 0c119,0 215,96 215,214l0 1425z"/>
    <path class="fil58" d="M14374 5739l-161 -266 687 0 0 131 -431 0 -4 0c-37,0 -70,22 -85,54l2 3c-5,11 -8,24 -8,37l0 41z"/>
    <path class="fil16" d="M14900 5281l-803 0 -175 -290 0 -46 -27 0 -40 -66 67 0 0 -86 -119 0 -56 -92 175 0 0 -606 -541 0 -73 -121 1786 0 0 -599 -2147 0 -258 -427 3009 0 0 1440 -604 0 0 -293 -989 0 0 606 795 0 0 92 -795 0 0 86 795 0 0 66 -795 0 0 86 795 0 0 67 -795 0 0 86 795 0 0 97zm-1967 -2222l0 217 2161 0 0 -217 -2161 0z"/>
    <path class="fil97" d="M15094 3276l-2161 0 0 -217 2161 0 0 217z"/>
    <path class="fil98" d="M15094 3974l-1786 0 -361 -599 2147 0 0 599z"/>
    <path class="fil99" d="M13922 4701l-175 0 -366 -606 541 0 0 606z"/>
    <path class="fil100" d="M14900 4701l-795 0 0 -606 989 0 0 293 -87 0c-2,0 -3,0 -5,0 -57,2 -102,49 -102,106l0 207z"/>
    <path class="fil101" d="M13922 4879l-67 0 -52 -86 119 0 0 86z"/>
    <path class="fil97" d="M13922 4991l-27 -46 27 0 0 46z"/>
    <path class="fil101" d="M14900 4879l-795 0 0 -86 795 0 0 86z"/>
    <path class="fil97" d="M14900 5031l-795 0 0 -86 795 0 0 86z"/>
    <path class="fil97" d="M14900 5184l-795 0 0 -86 795 0 0 86z"/>
    <path class="fil88" d="M15007 6751c-59,0 -107,-48 -107,-107l0 -2150c0,-58 48,-106 107,-106l1437 0c59,0 107,48 107,106l0 2150c0,59 -48,107 -107,107l-1437 0z"/>
    <path class="fil89" d="M15013 6521l0 -1904 1425 0 0 1904 -1425 0z"/>
    <path class="fil102" d="M15837 6642c0,21 -18,39 -39,39l-123 0c-22,0 -39,-18 -39,-39 0,-22 17,-39 39,-39l123 0c21,0 39,17 39,39z"/>
    <path class="fil91" d="M15529 4910l-441 0 0 -187 441 0 0 187z"/>
    <path class="fil86" d="M16363 4910l-756 0 0 -187 756 0 0 187z"/>
    <path class="fil92" d="M16363 5539l-1275 0 0 -528 1275 0 0 528z"/>
    <path class="fil93" d="M15668 5995l-580 0 0 -355 580 0 0 355z"/>
    <path class="fil94" d="M16355 5995l-580 0 0 -355 580 0 0 355z"/>
    <path class="fil90" d="M15668 6133l-580 0 0 -51 580 0 0 51z"/>
    <path class="fil86" d="M15668 6236l-580 0 0 -51 580 0 0 51z"/>
    <path class="fil86" d="M15668 6339l-580 0 0 -51 580 0 0 51z"/>
    <path class="fil86" d="M15668 6441l-580 0 0 -50 580 0 0 50z"/>
    <path class="fil90" d="M16355 6133l-580 0 0 -51 580 0 0 51z"/>
    <path class="fil86" d="M16355 6236l-580 0 0 -51 580 0 0 51z"/>
    <path class="fil86" d="M16355 6339l-580 0 0 -51 580 0 0 51z"/>
    <path class="fil86" d="M16355 6441l-580 0 0 -50 580 0 0 50z"/>
    <path class="fil103" d="M15002 4388c2,0 3,0 5,0 -2,0 -3,0 -5,0z"/>
    <path class="fil96" d="M16444 6751l-36 0 -16 0 -139 -230 185 0 0 -1904 -1334 0 -135 -222c11,-4 22,-7 33,-7 2,0 3,0 5,0l0 0 1437 0c59,0 107,48 107,106l0 2150c0,59 -48,107 -107,107z"/>
    <path class="fil16" d="M16438 6521l-185 0 -48 -80 150 0 0 -50 -180 0 -32 -52 212 0 0 -51 -242 0 -32 -52 274 0 0 -51 -304 0 -32 -52 336 0 0 -51 -367 0 -52 -87 419 0 0 -355 -580 0 0 89 -115 -190 703 0 0 -528 -1021 0 -61 -101 248 0 0 -187 -361 0 -64 -106 1334 0 0 1904zm-831 -1798l0 187 756 0 0 -187 -756 0z"/>
    <path class="fil104" d="M15529 4910l-248 0 -113 -187 361 0 0 187z"/>
    <path class="fil97" d="M16363 4910l-756 0 0 -187 756 0 0 187z"/>
    <path class="fil98" d="M16363 5539l-703 0 -318 -528 1021 0 0 528z"/>
    <path class="fil99" d="M16355 5995l-419 0 -161 -266 0 -89 580 0 0 355z"/>
    <path class="fil101" d="M16355 6133l-336 0 -31 -51 367 0 0 51z"/>
    <path class="fil97" d="M16355 6236l-274 0 -30 -51 304 0 0 51z"/>
    <path class="fil97" d="M16355 6339l-212 0 -30 -51 242 0 0 51z"/>
    <path class="fil97" d="M16355 6441l-150 0 -30 -50 180 0 0 50z"/>
    <path class="fil88" d="M15333 7170c0,52 -43,94 -95,94l-769 0c-53,0 -95,-42 -95,-94l0 -1472c0,-52 42,-94 95,-94l769 0c52,0 95,42 95,94l0 1472z"/>
    <path class="fil89" d="M15274 7031l-841 0 0 -1219 841 0 0 1219z"/>
    <path class="fil102" d="M14889 5719c0,20 -16,36 -36,36 -19,0 -35,-16 -35,-36 0,-19 16,-35 35,-35 20,0 36,16 36,35z"/>
    <path class="fil102" d="M14953 7149c0,21 -17,39 -39,39l-122 0c-21,0 -39,-18 -39,-39 0,-22 18,-39 39,-39l122 0c22,0 39,17 39,39z"/>
    <path class="fil91" d="M15234 5974l-759 0 0 -123 759 0 0 123z"/>
    <path class="fil86" d="M15234 6150l-759 0 0 -135 759 0 0 135z"/>
    <path class="fil92" d="M15234 6506l-759 0 0 -305 759 0 0 305z"/>
    <path class="fil93" d="M15234 6978l-759 0 0 -423 759 0 0 423z"/>
    <path class="fil57" d="M14382 5661l-2 -3c15,-32 48,-54 85,-54l4 0c-39,0 -73,23 -87,57z"/>
    <path class="fil96" d="M15323 7202c-4,-1 -8,-1 -12,-1l-102 -170 65 0 0 -1219 -801 0 -91 -151c14,-34 48,-57 87,-57l766 0c52,0 94,42 94,94l0 1472c0,11 -2,22 -6,32zm-470 -1518c-19,0 -35,16 -35,35 0,20 16,36 35,36 20,0 36,-16 36,-36 0,-19 -16,-35 -36,-35z"/>
    <path class="fil16" d="M15274 7031l-65 0 -32 -53 57 0 0 -423 -313 0 -29 -49 342 0 0 -305 -527 0 -30 -51 557 0 0 -135 -639 0 -25 -41 664 0 0 -123 -737 0 -24 -39 801 0 0 1219z"/>
    <path class="fil105" d="M14853 5755c-19,0 -35,-16 -35,-36 0,-19 16,-35 35,-35 20,0 36,16 36,35 0,20 -16,36 -36,36z"/>
    <path class="fil104" d="M15234 5974l-664 0 -73 -123 737 0 0 123z"/>
    <path class="fil97" d="M15234 6150l-557 0 -82 -135 639 0 0 135z"/>
    <path class="fil98" d="M15234 6506l-342 0 -185 -305 527 0 0 305z"/>
    <path class="fil106" d="M15234 6978l-57 0 -256 -423 313 0 0 423z"/>
    <path class="fil14" d="M14848 7339c-440,0 -796,-34 -796,-76 0,-25 129,-48 327,-62 1,1 1,1 1,2 -189,14 -312,35 -312,60 0,41 349,75 780,75 430,0 779,-34 779,-75 0,-24 -118,-45 -301,-59 0,-1 1,-1 1,-2 192,14 316,36 316,61 0,42 -356,76 -795,76z"/>
    <path class="fil88" d="M15326 7204c-1,0 -2,0 -3,0 0,-1 0,-2 0,-2 2,0 3,0 4,0 0,1 -1,1 -1,2zm-946 -1c0,-1 0,-1 -1,-2 116,-8 254,-13 405,-14 3,0 5,1 8,1l122 0c3,0 6,-1 8,-1 145,1 278,6 389,14l1 2c-129,-10 -290,-15 -464,-15 -176,0 -338,6 -468,15z"/>
    <path class="fil102" d="M14914 7188l-122 0c-3,0 -6,-1 -8,-1 21,0 42,0 64,0 25,0 50,0 74,0 -2,0 -5,1 -8,1z"/>
    <path class="fil96" d="M15323 7204c-4,-1 -7,-1 -11,-1l-1 -2c4,0 8,0 12,1 0,0 0,1 0,2z"/>
    <path class="fil15" d="M14848 7338c-431,0 -780,-34 -780,-75 0,-25 123,-46 312,-60 0,1 1,1 1,2 -180,13 -296,34 -296,58 0,41 341,73 763,73 421,0 763,-32 763,-73 0,-23 -111,-44 -286,-57 1,-1 1,-2 1,-2 183,14 301,35 301,59 0,41 -349,75 -779,75z"/>
    <path class="fil88" d="M15325 7206c-1,0 -2,0 -3,0 0,-1 1,-2 1,-2 1,0 2,0 3,0 0,0 0,1 -1,2zm-944 -1c0,-1 -1,-1 -1,-2 130,-9 292,-15 468,-15 174,0 335,5 464,15l2 2c-129,-10 -291,-15 -466,-15 -176,0 -338,5 -467,15z"/>
    <path class="fil107" d="M15322 7206c-3,-1 -5,-1 -8,-1l-2 -2c4,0 7,0 11,1 0,0 -1,1 -1,2z"/>
    <path class="fil16" d="M14848 7336c-422,0 -763,-32 -763,-73 0,-24 116,-45 296,-58 0,1 0,1 1,2 -171,13 -281,33 -281,56 0,40 334,72 747,72 412,0 747,-32 747,-72 0,-22 -105,-42 -270,-55 0,-1 0,-2 0,-2 175,13 286,34 286,57 0,41 -342,73 -763,73z"/>
    <path class="fil88" d="M15325 7208c-2,0 -3,0 -4,-1 0,0 1,-1 1,-1 1,0 2,0 3,0 0,0 0,1 0,2zm-10 -1c-128,-10 -290,-16 -467,-16 -177,0 -339,6 -466,16 -1,-1 -1,-1 -1,-2 129,-10 291,-15 467,-15 175,0 337,5 466,15l1 2z"/>
    <path class="fil108" d="M15321 7207c-2,0 -4,0 -6,0l-1 -2c3,0 5,0 8,1 0,0 -1,1 -1,1z"/>
    <path class="fil17" d="M14848 7335c-413,0 -747,-32 -747,-72 0,-23 110,-43 281,-56 0,1 0,1 1,2 -162,13 -266,32 -266,54 0,39 327,70 731,70 403,0 730,-31 730,-70 0,-21 -99,-40 -254,-53 0,-1 0,-2 1,-2 165,13 270,33 270,55 0,40 -335,72 -747,72z"/>
    <path class="fil88" d="M15324 7210c-1,0 -3,0 -4,0 1,-1 1,-2 1,-3 1,1 2,1 4,1 -1,0 -1,1 -1,2zm-8 -1c-126,-10 -290,-16 -468,-16 -177,0 -339,6 -465,16 -1,-1 -1,-1 -1,-2 127,-10 289,-16 466,-16 177,0 339,6 467,16l1 2z"/>
    <path class="fil109" d="M15320 7210c-1,-1 -2,-1 -4,-1l-1 -2c2,0 4,0 6,0 0,1 -1,2 -1,3z"/>
    <path class="fil18" d="M14848 7333c-404,0 -731,-31 -731,-70 0,-22 104,-41 266,-54 0,1 0,1 0,2 -152,12 -249,31 -249,52 0,38 319,69 714,69 394,0 714,-31 714,-69 0,-20 -93,-39 -239,-51 0,-1 0,-2 1,-2 155,13 254,32 254,53 0,39 -327,70 -730,70z"/>
    <path class="fil88" d="M15323 7212c-1,0 -3,0 -4,-1 1,0 1,-1 1,-1 1,0 3,0 4,0 -1,0 -1,1 -1,2zm-5 -1c-126,-10 -290,-17 -470,-17 -178,0 -340,7 -465,17 0,-1 0,-1 0,-2 126,-10 288,-16 465,-16 178,0 342,6 468,16l2 2z"/>
    <path class="fil109" d="M15319 7211c0,0 -1,0 -1,0l-2 -2c2,0 3,0 4,1 0,0 0,1 -1,1z"/>
    <path class="fil19" d="M14848 7332c-395,0 -714,-31 -714,-69 0,-21 97,-40 249,-52 1,1 1,1 1,2 -143,12 -234,30 -234,50 0,37 312,67 698,67 385,0 697,-30 697,-67 0,-20 -86,-37 -223,-49 0,-1 0,-2 1,-2 146,12 239,31 239,51 0,38 -320,69 -714,69z"/>
    <path class="fil88" d="M15322 7214c-125,-11 -291,-18 -474,-18 -178,0 -340,6 -464,17 0,-1 0,-1 -1,-2 125,-10 287,-17 465,-17 180,0 344,7 470,17l1 2c0,-1 0,-1 0,-2 1,1 3,1 4,1 -1,0 -1,1 -1,2z"/>
    <path class="fil110" d="M15319 7213l-1 -2c0,0 1,0 1,0 0,1 0,1 0,2z"/>
    <path class="fil20" d="M14848 7330c-386,0 -698,-30 -698,-67 0,-20 91,-38 234,-50 1,1 1,1 2,2 -135,12 -220,29 -220,48 0,36 305,65 682,65 376,0 681,-29 681,-65 0,-19 -80,-35 -209,-47 1,-1 1,-2 2,-2 137,12 223,30 223,49 0,37 -312,67 -697,67z"/>
    <path class="fil88" d="M15321 7216c-123,-11 -290,-18 -473,-18 -179,0 -341,6 -462,17 -1,-1 -1,-1 -2,-2 124,-11 286,-17 464,-17 183,0 349,7 474,18 -1,0 -1,1 -1,2z"/>
    <path class="fil21" d="M14848 7328c-377,0 -682,-29 -682,-65 0,-19 85,-36 220,-48 0,1 0,1 1,2 -126,12 -204,28 -204,46 0,35 297,64 665,64 367,0 665,-29 665,-64 0,-18 -74,-34 -194,-45 1,-1 1,-1 1,-2 129,12 209,28 209,47 0,36 -305,65 -681,65z"/>
    <path class="fil88" d="M15319 7218c-120,-12 -287,-19 -471,-19 -179,0 -342,7 -461,18 -1,-1 -1,-1 -1,-2 121,-11 283,-17 462,-17 183,0 350,7 472,18 0,1 0,1 -1,2z"/>
    <path class="fil22" d="M14848 7327c-367,0 -665,-29 -665,-64 0,-18 78,-34 204,-46 0,1 1,1 1,2 -117,11 -189,27 -189,44 0,34 291,62 649,62 358,0 648,-28 648,-62 0,-17 -67,-32 -178,-43 0,-1 1,-1 1,-2 120,11 194,27 194,45 0,35 -298,64 -665,64z"/>
    <path class="fil88" d="M15318 7220c-118,-12 -285,-19 -470,-19 -180,0 -343,7 -460,18 0,-1 -1,-1 -1,-2 119,-11 282,-18 461,-18 184,0 351,7 471,19 0,1 -1,1 -1,2z"/>
    <path class="fil23" d="M14848 7325c-358,0 -649,-28 -649,-62 0,-17 72,-33 189,-44 0,1 1,1 1,2 -107,11 -173,26 -173,42 0,33 283,61 632,61 349,0 632,-28 632,-61 0,-16 -62,-30 -163,-41 0,0 1,-1 1,-2 111,11 178,26 178,43 0,34 -290,62 -648,62z"/>
    <path class="fil88" d="M15317 7222c-116,-12 -283,-20 -469,-20 -181,0 -343,8 -459,19 0,-1 -1,-1 -1,-2 117,-11 280,-18 460,-18 185,0 352,7 470,19 0,1 -1,2 -1,2z"/>
    <path class="fil24" d="M14848 7324c-349,0 -632,-28 -632,-61 0,-16 66,-31 173,-42 1,1 1,2 2,2 -99,11 -159,25 -159,40 0,33 276,59 616,59 340,0 616,-26 616,-59 0,-15 -56,-28 -149,-39 1,0 1,-1 2,-2 101,11 163,25 163,41 0,33 -283,61 -632,61z"/>
    <path class="fil88" d="M15315 7224c-113,-12 -280,-20 -467,-20 -182,0 -344,7 -457,19 -1,0 -1,-1 -2,-2 116,-11 278,-19 459,-19 186,0 353,8 469,20 -1,1 -1,2 -2,2z"/>
    <path class="fil25" d="M14848 7322c-340,0 -616,-26 -616,-59 0,-15 60,-29 159,-40 0,1 1,2 1,3 -89,10 -144,23 -144,37 0,32 269,57 600,57 331,0 599,-25 599,-57 0,-14 -50,-26 -134,-36 1,-1 1,-2 2,-3 93,11 149,24 149,39 0,33 -276,59 -616,59z"/>
    <path class="fil88" d="M15313 7227c-110,-13 -277,-21 -465,-21 -182,0 -346,7 -456,20 0,-1 -1,-2 -1,-3 113,-12 275,-19 457,-19 187,0 354,8 467,20 -1,1 -1,2 -2,3z"/>
    <path class="fil12" d="M14848 7320c-331,0 -600,-25 -600,-57 0,-14 55,-27 144,-37 1,0 2,1 2,2 -81,9 -129,22 -129,35 0,31 261,56 583,56 322,0 583,-25 583,-56 0,-13 -45,-25 -119,-34 0,-1 1,-1 1,-2 84,10 134,22 134,36 0,32 -268,57 -599,57z"/>
    <path class="fil88" d="M15312 7229c-107,-13 -275,-22 -464,-22 -183,0 -347,8 -454,21 0,-1 -1,-2 -2,-2 110,-13 274,-20 456,-20 188,0 355,8 465,21 0,1 -1,1 -1,2z"/>
    <path class="fil26" d="M14848 7319c-322,0 -583,-25 -583,-56 0,-13 48,-26 129,-35 1,1 1,1 2,2 -72,9 -115,21 -115,33 0,30 254,54 567,54 313,0 566,-24 566,-54 0,-12 -38,-23 -104,-32 0,0 1,-1 2,-2 74,9 119,21 119,34 0,31 -261,56 -583,56z"/>
    <path class="fil88" d="M15310 7231c-103,-13 -272,-23 -462,-23 -185,0 -349,9 -452,22 -1,-1 -1,-1 -2,-2 107,-13 271,-21 454,-21 189,0 357,9 464,22 -1,1 -2,2 -2,2z"/>
    <path class="fil27" d="M14848 7317c-313,0 -567,-24 -567,-54 0,-12 43,-24 115,-33 1,1 1,2 2,3 -63,8 -101,19 -101,30 0,29 247,53 551,53 304,0 550,-24 550,-53 0,-11 -33,-21 -91,-29 1,-1 2,-2 3,-3 66,9 104,20 104,32 0,30 -253,54 -566,54z"/>
    <path class="fil88" d="M15307 7234c-98,-14 -267,-24 -459,-24 -186,0 -350,9 -450,23 -1,-1 -1,-2 -2,-3 103,-13 267,-22 452,-22 190,0 359,10 462,23 -1,1 -2,2 -3,3z"/>
    <path class="fil28" d="M14848 7316c-304,0 -551,-24 -551,-53 0,-11 38,-22 101,-30 1,0 2,1 2,2 -55,8 -86,18 -86,28 0,28 239,51 534,51 295,0 534,-23 534,-51 0,-10 -28,-19 -77,-27 1,0 1,-1 2,-2 58,8 91,18 91,29 0,29 -246,53 -550,53z"/>
    <path class="fil88" d="M15305 7236c-94,-14 -263,-24 -457,-24 -188,0 -352,9 -448,23 0,-1 -1,-2 -2,-2 100,-14 264,-23 450,-23 192,0 361,10 459,24 -1,1 -1,2 -2,2z"/>
    <path class="fil29" d="M14848 7314c-295,0 -534,-23 -534,-51 0,-10 31,-20 86,-28 1,1 2,2 3,2 -47,8 -73,17 -73,26 0,27 232,50 518,50 286,0 517,-23 517,-50 0,-9 -23,-17 -63,-24 1,-1 2,-2 3,-3 49,8 77,17 77,27 0,28 -239,51 -534,51z"/>
    <path class="fil88" d="M15302 7239c-88,-15 -258,-26 -454,-26 -189,0 -355,10 -445,24 -1,0 -2,-1 -3,-2 96,-14 260,-23 448,-23 194,0 363,10 457,24 -1,1 -2,2 -3,3z"/>
    <path class="fil30" d="M14848 7313c-286,0 -518,-23 -518,-50 0,-9 26,-18 73,-26 1,1 2,2 3,3 -38,7 -60,15 -60,23 0,26 225,48 502,48 277,0 501,-22 501,-48 0,-8 -18,-15 -50,-21 1,-1 2,-2 3,-3 40,7 63,15 63,24 0,27 -231,50 -517,50z"/>
    <path class="fil88" d="M15299 7242c-81,-16 -253,-27 -451,-27 -191,0 -358,10 -442,25 -1,-1 -2,-2 -3,-3 90,-14 256,-24 445,-24 196,0 366,11 454,26 -1,1 -2,2 -3,3z"/>
    <path class="fil31" d="M14848 7311c-277,0 -502,-22 -502,-48 0,-8 22,-16 60,-23 1,1 2,2 3,3 -30,6 -46,13 -46,20 0,26 217,47 485,47 268,0 485,-21 485,-47 0,-7 -14,-13 -38,-18 1,-1 3,-2 4,-3 32,6 50,13 50,21 0,26 -224,48 -501,48z"/>
    <path class="fil88" d="M15295 7245c-73,-17 -246,-29 -447,-29 -194,0 -361,11 -439,27 -1,-1 -2,-2 -3,-3 84,-15 251,-25 442,-25 198,0 370,11 451,27 -1,1 -3,2 -4,3z"/>
    <path class="fil32" d="M14848 7310c-268,0 -485,-21 -485,-47 0,-7 16,-14 46,-20 1,1 3,2 4,3 -22,5 -34,11 -34,17 0,25 210,45 469,45 259,0 468,-20 468,-45 0,-5 -9,-10 -25,-15 1,-1 3,-2 4,-3 24,5 38,11 38,18 0,26 -217,47 -485,47z"/>
    <path class="fil88" d="M15291 7248c-64,-17 -238,-30 -443,-30 -197,0 -365,12 -435,28 -1,-1 -3,-2 -4,-3 78,-16 245,-27 439,-27 201,0 374,12 447,29 -1,1 -3,2 -4,3z"/>
    <path class="fil33" d="M14848 7308c-259,0 -469,-20 -469,-45 0,-6 12,-12 34,-17 2,1 3,2 5,3 -15,5 -23,9 -23,14 0,24 203,43 453,43 249,0 452,-19 452,-43 0,-4 -5,-8 -15,-11 2,-1 4,-3 6,-4 16,5 25,10 25,15 0,25 -209,45 -468,45z"/>
    <path class="fil88" d="M15285 7252c-52,-19 -228,-32 -437,-32 -201,0 -371,12 -430,29 -2,-1 -3,-2 -5,-3 70,-16 238,-28 435,-28 205,0 379,13 443,30 -2,1 -4,3 -6,4z"/>
    <path class="fil34" d="M14848 7306c-250,0 -453,-19 -453,-43 0,-5 8,-9 23,-14 2,2 4,3 6,4 -8,3 -12,6 -12,10 0,23 195,42 436,42 240,0 436,-19 436,-42 0,-3 -3,-5 -7,-7 3,-2 5,-3 8,-4 10,3 15,7 15,11 0,24 -203,43 -452,43z"/>
    <path class="fil88" d="M15277 7256c-36,-20 -215,-35 -429,-35 -206,0 -378,14 -424,32 -2,-1 -4,-2 -6,-4 59,-17 229,-29 430,-29 209,0 385,13 437,32 -3,1 -5,2 -8,4z"/>
    <path class="fil35" d="M14848 7305c-241,0 -436,-19 -436,-42 0,-4 4,-7 12,-10 3,1 6,3 9,4 -3,2 -5,4 -5,6 0,22 188,40 420,40 231,0 419,-18 419,-40 0,-1 0,-2 -1,-3 4,-1 8,-3 11,-4 4,2 7,4 7,7 0,23 -196,42 -436,42z"/>
    <path class="fil88" d="M15266 7260c-16,-21 -198,-37 -418,-37 -211,0 -386,15 -415,34 -3,-1 -6,-3 -9,-4 46,-18 218,-32 424,-32 215,0 393,15 429,35 -3,1 -7,3 -11,4z"/>
    <path class="fil36" d="M14848 7303c-232,0 -420,-18 -420,-40 0,-2 2,-4 5,-6 4,2 8,3 12,4 0,1 0,1 0,2 0,21 180,39 403,39 221,0 402,-18 403,-39 5,-1 10,-2 15,-3 1,1 1,2 1,3 0,22 -188,40 -419,40z"/>
    <path class="fil88" d="M15251 7263c0,0 0,0 0,0 0,-21 -181,-39 -403,-39 -217,0 -393,17 -403,37 -4,-1 -8,-2 -12,-4 29,-19 204,-34 415,-34 220,0 402,16 418,37 -5,1 -10,2 -15,3z"/>
    <path class="fil37" d="M14848 7302c-223,0 -403,-18 -403,-39 0,-1 0,-1 0,-2 5,1 11,2 16,3 5,20 176,36 387,36 209,0 380,-16 386,-36l4 0c4,0 9,0 13,-1 -1,21 -182,39 -403,39z"/>
    <path class="fil88" d="M15238 7264l-4 0c1,0 1,-1 1,-1 0,-21 -173,-37 -387,-37 -214,0 -387,16 -387,37 0,0 0,0 0,1 -5,-1 -11,-2 -16,-3 10,-20 186,-37 403,-37 222,0 403,18 403,39 0,0 0,0 0,0 -4,1 -9,1 -13,1z"/>
    <path class="fil38" d="M14848 7300c-211,0 -382,-16 -387,-36 3,0 5,0 8,0l9 0c6,19 169,35 370,35 200,0 364,-16 370,-35l16 0c-6,20 -177,36 -386,36z"/>
    <path class="fil88" d="M15234 7264l-16 0c0,0 0,-1 0,-1 0,-20 -166,-36 -370,-36 -205,0 -371,16 -371,36 0,0 0,1 1,1l-9 0c-3,0 -5,0 -8,0 0,-1 0,-1 0,-1 0,-21 173,-37 387,-37 214,0 387,16 387,37 0,0 0,1 -1,1z"/>
    <path class="fil39" d="M14848 7299c-201,0 -364,-16 -370,-35l16 0c6,18 162,33 354,33 191,0 347,-15 354,-33l16 0c-6,19 -170,35 -370,35z"/>
    <path class="fil88" d="M15218 7264l-16 0c0,0 0,-1 0,-1 0,-19 -159,-34 -354,-34 -196,0 -354,15 -354,34 0,0 0,1 0,1l-16 0c-1,0 -1,-1 -1,-1 0,-20 166,-36 371,-36 204,0 370,16 370,36 0,0 0,1 0,1z"/>
    <path class="fil40" d="M14848 7297c-192,0 -348,-15 -354,-33l16 0c7,18 155,31 338,31 182,0 331,-13 337,-31l17 0c-7,18 -163,33 -354,33z"/>
    <path class="fil88" d="M15202 7264l-17 0c0,0 1,-1 1,-1 0,-18 -152,-32 -338,-32 -187,0 -338,14 -338,32 0,0 0,1 0,1l-16 0c0,0 0,-1 0,-1 0,-19 158,-34 354,-34 195,0 354,15 354,34 0,0 0,1 0,1z"/>
    <path class="fil41" d="M14848 7295c-183,0 -331,-13 -338,-31l17 0c6,17 147,30 321,30 173,0 315,-13 321,-30l16 0c-6,18 -155,31 -337,31z"/>
    <path class="fil88" d="M15185 7264l-16 0c0,0 0,-1 0,-1 0,-17 -144,-31 -321,-31 -178,0 -322,14 -322,31 0,0 1,1 1,1l-17 0c0,0 0,-1 0,-1 0,-18 151,-32 338,-32 186,0 338,14 338,32 0,0 -1,1 -1,1z"/>
    <path class="fil42" d="M14848 7294c-174,0 -315,-13 -321,-30l16 0c6,16 140,28 305,28 164,0 298,-12 304,-28l17 0c-6,17 -148,30 -321,30z"/>
    <path class="fil88" d="M15169 7264l-16 0c0,0 0,-1 0,-1 0,-16 -137,-29 -305,-29 -169,0 -305,13 -305,29 0,0 0,1 0,1l-16 0c0,0 -1,-1 -1,-1 0,-17 144,-31 322,-31 177,0 321,14 321,31 0,0 0,1 0,1z"/>
    <path class="fil43" d="M14848 7292c-165,0 -299,-12 -305,-28l16 0c7,15 133,27 289,27 155,0 282,-12 288,-27l17 0c-7,16 -141,28 -305,28z"/>
    <path class="fil88" d="M15153 7264l-17 0c0,0 0,-1 0,-1 0,-15 -129,-28 -288,-28 -160,0 -289,13 -289,28 0,0 0,1 0,1l-16 0c0,0 0,-1 0,-1 0,-16 136,-29 305,-29 168,0 305,13 305,29 0,0 0,1 0,1z"/>
    <path class="fil44" d="M14848 7291c-156,0 -282,-12 -289,-27l17 0c6,14 125,25 272,25 146,0 265,-11 272,-25l16 0c-6,15 -133,27 -288,27z"/>
    <path class="fil88" d="M15136 7264l-16 0c0,0 0,-1 0,-1 0,-14 -122,-26 -272,-26 -151,0 -272,12 -272,26 0,0 0,1 0,1l-17 0c0,0 0,-1 0,-1 0,-15 129,-28 289,-28 159,0 288,13 288,28 0,0 0,1 0,1z"/>
    <path class="fil45" d="M14848 7289c-147,0 -266,-11 -272,-25l16 0c6,13 118,23 256,23 137,0 249,-10 255,-23l17 0c-7,14 -126,25 -272,25z"/>
    <path class="fil88" d="M15120 7264l-17 0c1,0 1,-1 1,-1 0,-14 -115,-25 -256,-25 -142,0 -256,11 -256,25 0,0 0,1 0,1l-16 0c0,0 0,-1 0,-1 0,-14 121,-26 272,-26 150,0 272,12 272,26 0,0 0,1 0,1z"/>
    <path class="fil46" d="M14848 7287c-138,0 -250,-10 -256,-23l16 0c7,12 111,22 240,22 128,0 233,-10 239,-22l16 0c-6,13 -118,23 -255,23z"/>
    <path class="fil88" d="M15103 7264l-16 0c0,0 0,-1 0,-1 0,-13 -107,-23 -239,-23 -133,0 -240,10 -240,23 0,0 0,1 0,1l-16 0c0,0 0,-1 0,-1 0,-14 114,-25 256,-25 141,0 256,11 256,25 0,0 0,1 -1,1z"/>
    <path class="fil47" d="M14848 7286c-129,0 -233,-10 -240,-22l17 0c6,11 103,21 223,21 119,-1 216,-10 223,-21l16 0c-6,12 -111,22 -239,22z"/>
    <path class="fil88" d="M15087 7264l-16 0c0,0 0,-1 0,-1 0,-12 -100,-21 -223,-21 -124,0 -224,9 -224,21 0,0 0,1 1,1l-17 0c0,0 0,-1 0,-1 0,-13 107,-23 240,-23 132,0 239,10 239,23 0,0 0,1 0,1z"/>
    <path class="fil48" d="M14848 7284c-120,0 -217,-9 -223,-20l16 0c6,11 96,19 207,19 110,0 200,-8 206,-19l17 0c-7,11 -104,21 -223,20z"/>
    <path class="fil88" d="M15071 7264l-17 0c0,0 1,-1 1,-1 0,-11 -93,-20 -207,-20 -115,0 -207,9 -207,20 0,0 0,1 0,1l-16 0c-1,0 -1,-1 -1,-1 0,-12 100,-21 224,-21 123,0 223,9 223,21 0,0 0,1 0,1z"/>
    <path class="fil49" d="M14848 7283c-110,0 -201,-8 -207,-19l17 0c6,10 89,17 190,17 101,0 184,-7 190,-17l16 0c-6,11 -96,19 -206,19z"/>
    <path class="fil88" d="M15054 7264l-16 0c0,0 0,-1 0,-1 0,-10 -85,-18 -190,-18 -105,0 -191,8 -191,18 0,0 0,1 1,1l-17 0c0,0 0,-1 0,-1 0,-11 92,-20 207,-20 114,0 207,9 207,20 0,0 -1,1 -1,1z"/>
    <path class="fil50" d="M14848 7281c-101,0 -184,-7 -190,-17l16 0c6,9 82,16 174,16 92,0 167,-7 174,-16l16 0c-6,10 -89,17 -190,17z"/>
    <path class="fil88" d="M15038 7264l-16 0c0,0 0,-1 0,-1 0,-9 -78,-17 -174,-17 -96,0 -175,8 -175,17 0,0 1,1 1,1l-16 0c-1,0 -1,-1 -1,-1 0,-10 85,-18 191,-18 105,0 190,8 190,18 0,0 0,1 0,1z"/>
    <path class="fil51" d="M14848 7280c-92,0 -168,-7 -174,-16l16 0c7,8 75,14 158,14 83,0 151,-6 157,-14l17 0c-7,9 -82,16 -174,16z"/>
    <path class="fil88" d="M15022 7264l-17 0c1,0 1,-1 1,-1 0,-8 -71,-15 -158,-15 -87,0 -158,7 -158,15 0,0 0,1 0,1l-16 0c0,0 -1,-1 -1,-1 0,-9 79,-17 175,-17 96,0 174,8 174,17 0,0 0,1 0,1z"/>
    <path class="fil52" d="M14848 7278c-83,0 -152,-6 -158,-14l17 0c6,7 67,13 141,13 74,0 135,-6 141,-13l16 0c-6,8 -74,14 -157,14z"/>
    <path class="fil88" d="M15005 7264l-16 0c0,0 0,-1 0,-1 0,-7 -63,-14 -141,-14 -78,0 -142,7 -142,14 0,0 0,1 1,1l-17 0c0,0 0,-1 0,-1 0,-8 71,-15 158,-15 87,0 158,7 158,15 0,0 0,1 -1,1z"/>
    <path class="fil53" d="M14848 7277c-74,0 -135,-6 -141,-13l16 0c6,6 60,11 125,11 65,0 118,-5 124,-11l17 0c-6,7 -67,13 -141,13z"/>
    <path class="fil88" d="M14989 7264l-17 0c1,0 1,-1 1,-1 0,-7 -56,-12 -125,-12 -69,0 -125,5 -125,12 0,0 0,1 0,1l-16 0c-1,0 -1,-1 -1,-1 0,-7 64,-14 142,-14 78,0 141,7 141,14 0,0 0,1 0,1z"/>
    <path class="fil54" d="M14848 7275c-65,0 -119,-5 -125,-11l249 0c-6,6 -59,11 -124,11z"/>
    <path class="fil88" d="M14972 7264l-249 0c0,0 0,-1 0,-1 0,-7 56,-12 125,-12 69,0 125,5 125,12 0,0 0,1 -1,1z"/>
   </g>
   <path class="fil111 str0" d="M4912 8451l-145 0c-31,0 -59,-11 -82,-33 -22,-23 -34,-50 -34,-82l0 -348c0,-32 11,-60 34,-82 22,-22 50,-34 82,-34l145 0c8,0 15,3 20,9 6,6 9,13 9,20 0,7 -3,13 -7,19 -5,7 -12,10 -22,10l-145 0c-16,0 -30,5 -42,16 -5,6 -9,12 -12,19 -3,7 -4,15 -4,23l0 348c0,16 5,30 16,41 6,5 12,9 19,13 8,2 16,4 23,4l145 0c8,0 15,3 20,9 6,5 9,12 9,20 0,6 -3,13 -7,19 -5,6 -12,9 -22,9zm550 -29c0,9 -3,17 -8,22 -5,5 -12,7 -21,7 -7,0 -13,-2 -19,-7 -7,-5 -10,-12 -10,-22l0 -413 -119 200c-8,13 -16,19 -26,19 -8,0 -16,-6 -25,-19l-120 -200 0 413c0,9 -3,17 -8,22 -6,5 -12,7 -21,7 -8,0 -14,-2 -20,-7 -6,-5 -9,-12 -9,-22l0 -518c0,-11 3,-19 9,-25 5,-5 11,-8 18,-8 5,0 10,1 14,4 4,2 8,7 13,14l149 248 149 -248c7,-12 16,-18 28,-18 6,0 13,3 18,9 5,6 8,14 8,24l0 518zm462 0c0,9 -2,17 -8,22 -5,5 -12,7 -21,7 -7,0 -14,-2 -20,-7 -5,-5 -8,-12 -8,-22l0 -409 -235 424c-4,5 -8,10 -13,14l-6 3c-2,1 -5,2 -9,2 -6,0 -12,-3 -19,-8 -5,-6 -8,-15 -8,-25l0 -521c0,-8 3,-15 9,-22 6,-5 12,-7 20,-7 7,0 14,2 20,7 6,5 9,12 9,22l0 409 235 -423c2,-5 7,-10 12,-14 5,-4 11,-6 16,-6 6,0 12,3 18,9 5,6 8,14 8,24l0 521z"/>
   <path class="fil111 str0" d="M10898 8399l-145 0c-31,0 -58,-12 -81,-34 -23,-22 -34,-50 -34,-82l0 -348c0,-32 11,-59 33,-82 23,-22 50,-33 82,-33l145 0c8,0 15,3 21,8 5,6 8,13 8,20 0,7 -2,13 -7,20 -5,6 -12,9 -22,9l-145 0c-16,0 -30,6 -41,17 -6,5 -10,12 -13,19 -2,7 -4,14 -4,22l0 348c0,16 6,30 17,42 6,5 12,9 18,12 9,3 16,4 23,4l145 0c8,0 15,3 21,9 5,6 8,13 8,20 0,7 -2,13 -7,19 -5,7 -12,10 -22,10zm202 -347l146 0c8,0 15,3 20,8 6,6 9,13 9,20 0,7 -2,14 -7,20 -5,6 -12,9 -22,9l-146 0 0 232 204 0c8,0 15,3 20,9 6,6 9,13 9,20 0,7 -3,13 -7,19 -5,7 -12,10 -22,10l-232 0c-20,0 -29,-9 -29,-28l0 -522c0,-20 9,-29 29,-29l232 0c8,0 15,3 20,8 6,6 9,13 9,20 0,7 -3,14 -7,20 -5,6 -12,9 -22,9l-204 0 0 175zm493 -175l-116 0c-9,0 -16,-2 -22,-8 -5,-6 -7,-13 -7,-21 0,-6 2,-13 7,-19 5,-6 12,-9 22,-9l289 0c8,0 15,3 21,8 5,6 8,13 8,20 0,7 -2,13 -7,20 -5,6 -12,9 -22,9l-116 0 0 493c0,9 -2,16 -8,22 -5,4 -12,7 -21,7 -7,0 -14,-3 -20,-7 -6,-5 -8,-13 -8,-22l0 -493zm375 175l146 0c8,0 15,3 21,8 5,6 8,13 8,20 0,7 -2,14 -7,20 -5,6 -12,9 -22,9l-146 0 0 232 204 0c8,0 15,3 21,9 5,6 8,13 8,20 0,7 -2,13 -7,19 -5,7 -12,10 -22,10l-232 0c-20,0 -29,-9 -29,-28l0 -522c0,-20 9,-29 29,-29l232 0c8,0 15,3 21,8 5,6 8,13 8,20 0,7 -2,14 -7,20 -5,6 -12,9 -22,9l-204 0 0 175zm640 16c16,10 30,24 40,42 10,18 15,37 15,57l0 116c0,32 -11,59 -34,82 -22,22 -50,34 -82,34l-202 0c-19,0 -29,-10 -29,-29l0 -521c0,-20 10,-29 29,-29l174 0c32,0 59,11 82,33 22,23 33,50 33,82l0 58c0,14 -2,26 -6,39 -4,12 -11,24 -20,36zm-234 41l0 232 174 0c16,0 29,-5 41,-16 11,-11 17,-25 17,-42l0 -116c0,-16 -6,-30 -17,-41 -11,-11 -25,-17 -41,-17l-174 0zm145 -58c16,0 29,-5 41,-16 11,-11 17,-24 17,-42l0 -58c0,-16 -6,-30 -17,-41 -10,-11 -24,-17 -41,-17l-145 0 0 175 145 -1zm666 319c0,9 -3,16 -9,22 -5,4 -12,7 -20,7 -8,0 -15,-3 -20,-7 -6,-5 -9,-13 -9,-22l0 -521c0,-8 3,-15 9,-22 5,-5 12,-7 20,-7 7,0 14,2 20,7 6,5 9,12 9,22l0 521zm-348 -261l0 232 116 0c16,0 30,-5 41,-16 11,-11 17,-25 17,-42l0 -116c0,-16 -6,-30 -16,-41 -11,-11 -25,-17 -42,-17l-116 0zm0 -57l116 0c31,0 58,11 81,33 23,23 35,50 35,82l0 116c0,32 -12,59 -34,82 -23,22 -50,34 -82,34l-145 0c-19,0 -29,-10 -29,-29l0 -521c0,-8 3,-15 9,-22 5,-5 12,-7 20,-7 7,0 14,2 20,7 6,5 9,12 9,22l0 203zm520 0l146 0c8,0 15,3 20,8 6,6 9,13 9,20 0,7 -2,14 -7,20 -5,6 -12,9 -22,9l-146 0 0 232 204 0c8,0 15,3 20,9 6,6 9,13 9,20 0,7 -2,13 -7,19 -5,7 -12,10 -22,10l-232 0c-20,0 -29,-9 -29,-28l0 -522c0,-20 9,-29 29,-29l232 0c8,0 15,3 20,8 6,6 9,13 9,20 0,7 -2,14 -7,20 -5,6 -12,9 -22,9l-204 0 0 175zm1042 318c0,9 -2,16 -8,22 -5,4 -12,7 -20,7 -8,0 -15,-3 -21,-7 -5,-5 -8,-13 -8,-22l0 -409 -235 423c-4,6 -8,10 -13,14l-6 3c-2,1 -5,2 -9,3 -6,0 -12,-3 -19,-9 -5,-6 -8,-14 -8,-25l0 -521c0,-8 3,-15 9,-22 6,-5 12,-7 20,-7 7,0 14,2 20,7 6,5 9,12 9,22l0 409 235 -423c3,-5 7,-9 12,-14 5,-4 11,-6 16,-6 6,0 12,3 18,10 5,5 8,14 8,24l0 521zm290 -261l-86 0c-9,0 -17,-3 -22,-8 -5,-6 -7,-13 -7,-21 0,-7 2,-13 7,-19 5,-6 12,-9 22,-9l86 0c16,0 30,-6 41,-17 12,-10 17,-24 17,-42l0 -58c0,-16 -5,-30 -16,-41 -11,-11 -25,-17 -42,-17l-58 0c-12,0 -23,4 -33,11 -10,7 -17,16 -21,29 -2,5 -5,10 -10,14 -2,2 -5,4 -8,5l-9 2c-8,0 -15,-3 -22,-8 -5,-6 -8,-13 -8,-21l1 -10c8,-23 22,-42 42,-57 20,-15 43,-22 68,-22l58 0c32,0 60,11 82,33 23,23 34,50 34,82l0 58c0,17 -4,33 -10,49 -7,15 -17,28 -29,38 26,22 39,51 39,87l0 116c0,32 -11,59 -34,82 -23,22 -50,34 -82,34l-58 0c-25,0 -47,-7 -67,-22 -20,-14 -34,-34 -43,-58l-1 -10c0,-8 3,-14 8,-20 6,-6 13,-9 22,-9 12,0 20,7 26,20 4,11 11,22 21,31 11,7 23,10 34,10l58 0c16,0 30,-5 41,-16 12,-11 17,-25 17,-42l0 -116c0,-17 -4,-30 -13,-40 -10,-12 -25,-18 -45,-18zm263 232l55 -496c0,-17 9,-25 29,-25l173 0c20,0 29,9 29,29l0 492 29 0c20,0 30,10 30,29l0 58c0,7 -3,14 -9,20 -6,5 -13,8 -20,8 -7,0 -13,-2 -20,-7 -6,-5 -9,-12 -9,-21l0 -29 -290 0 0 29c0,7 -3,14 -9,20 -6,5 -13,8 -20,8 -7,0 -13,-2 -20,-7 -6,-5 -9,-12 -9,-21l0 -58c0,-19 10,-29 29,-29l32 0zm229 0l0 -464 -119 0 -52 464 171 0zm332 -87l-41 125c-3,6 -6,11 -11,15 -4,2 -9,4 -16,5 -7,0 -14,-3 -20,-9 -6,-5 -9,-11 -9,-19l1 -11 175 -521c5,-16 14,-24 27,-24 12,0 21,8 27,24l173 521 2 11c0,7 -3,14 -9,20 -6,5 -13,8 -20,8 -4,0 -8,-1 -13,-3 -5,-2 -10,-8 -14,-17l-42 -125 -210 0zm191 -59l-85 -255 -86 255 171 0zm518 -143l0 -204c0,-7 3,-14 9,-20 6,-6 12,-8 20,-8 7,0 14,2 20,7 6,5 9,12 9,22l0 520c0,8 -3,16 -9,22 -7,5 -14,8 -20,8 -7,0 -14,-3 -21,-7 -5,-5 -8,-12 -8,-22l0 -261 -232 0 0 261c0,9 -2,16 -8,22 -5,4 -12,7 -21,7 -7,0 -14,-3 -20,-7 -5,-5 -8,-13 -8,-22l0 -521c0,-8 3,-15 8,-22 6,-5 13,-7 20,-7 8,0 15,2 20,7 6,5 9,12 9,22l0 203 232 0zm521 318c0,9 -3,16 -8,22 -6,4 -13,7 -21,7 -8,0 -14,-3 -20,-7 -6,-5 -9,-13 -9,-22l0 -409 -235 423c-3,6 -7,10 -13,14l-6 3c-2,1 -5,2 -9,3 -5,0 -12,-3 -19,-9 -5,-6 -7,-14 -7,-25l0 -521c0,-8 3,-15 8,-22 6,-5 13,-7 20,-7 8,0 15,2 20,7 6,5 9,12 9,22l0 409 235 -423c3,-5 7,-9 13,-14 5,-4 10,-6 15,-6 7,0 13,3 18,10 6,5 9,14 9,24l0 521zm405 -261l0 -232 -174 0c-16,0 -30,6 -41,17 -6,5 -10,12 -13,19 -2,7 -4,14 -4,22l0 116c0,16 6,30 17,42 6,5 12,9 19,12 8,3 15,4 22,4l174 0zm-99 58l-137 218c-6,9 -14,14 -23,14 -8,0 -14,-3 -20,-9 -7,-6 -10,-13 -10,-21 0,-5 1,-11 4,-15l117 -187 -6 0c-31,0 -58,-12 -81,-34 -23,-22 -34,-50 -34,-82l0 -116c0,-32 11,-59 33,-82 23,-22 50,-33 82,-33l203 0c19,0 29,9 29,29l0 521c0,9 -3,16 -8,22 -6,4 -13,7 -21,7 -8,0 -14,-3 -20,-7 -6,-5 -9,-13 -9,-22l0 -203 -99 0z"/>
   <path class="fil112" d="M11758 9828c46,-71 92,-142 138,-213 7,-11 14,-21 20,-32 -53,81 -106,163 -158,245zm-191 308c-2,3 -3,7 -3,9 -2,2 -3,4 -4,6 6,-1 12,-2 18,-3 6,-3 11,-16 15,-22 3,-3 5,-6 7,-9 -7,9 -13,17 -20,26 -5,6 -14,-1 -13,-7zm181 -247c19,-31 39,-62 58,-94 21,-34 41,-69 61,-104 -61,97 -122,193 -183,289 22,-30 43,-60 64,-91zm-55 115c-22,34 -44,68 -67,102 -1,1 -1,2 -2,3 23,-34 47,-69 69,-105zm164 -541c43,-33 87,-64 132,-94 33,-29 65,-57 99,-86 9,-8 21,5 13,14 -2,3 -5,5 -7,8 0,1 0,1 0,2 0,1 -1,2 -1,4 0,2 0,4 0,6 1,0 2,0 3,0 0,0 1,-1 1,-1 0,-1 0,-1 0,-1 1,-12 19,-12 19,0 -1,0 -1,1 -1,1 2,3 2,7 0,10 -1,16 -1,32 -2,48 0,30 0,60 -3,90 -2,56 -6,112 -16,167 -1,10 -18,8 -18,-2 1,-5 1,-9 1,-14 0,0 0,0 0,0 -1,3 -1,5 -2,8 -3,10 -20,9 -19,-2 1,-9 2,-18 3,-27 -1,-1 -2,-3 -2,-5 1,-8 1,-16 2,-24 -1,1 -1,1 -2,2 -2,1 -5,0 -7,-1 -1,-1 -2,-2 -3,-3 -5,-5 3,-13 9,-8 -7,-6 5,-50 6,-59 1,-11 2,-22 3,-34 2,-25 4,-50 5,-76 -9,19 -19,37 -29,55 -127,262 -280,510 -453,744 -5,8 -18,1 -12,-7 6,-9 12,-18 18,-26 -17,20 -38,35 -55,11 -1,-2 -1,-5 0,-7 155,-262 319,-517 491,-767 -54,38 -107,76 -160,114 -8,6 -16,-3 -15,-10 -4,-4 -5,-10 0,-14 0,-1 1,-1 2,-2 -4,-4 -6,-10 0,-14z"/>
   <path class="fil112" d="M8367 9828c-46,-71 -92,-142 -139,-213 -6,-11 -13,-21 -20,-32 54,81 107,163 159,245zm191 308c2,3 3,7 3,9 1,2 2,4 4,6 -6,-1 -12,-2 -18,-3 -6,-3 -12,-16 -16,-22 -2,-3 -4,-6 -6,-9 6,9 13,17 20,26 4,6 14,-1 13,-7zm-181 -247c-20,-31 -39,-62 -58,-94 -21,-34 -41,-69 -61,-104 61,97 122,193 183,289 -22,-30 -43,-60 -64,-91zm55 115c22,34 44,68 66,102 1,1 2,2 3,3 -24,-34 -47,-69 -69,-105zm-164 -541c-43,-33 -87,-64 -132,-94 -33,-29 -66,-57 -99,-86 -9,-8 -22,5 -14,14 3,3 5,5 7,8 1,1 1,1 1,2 0,1 0,2 1,4 0,2 0,4 0,6 -1,0 -2,0 -3,0 -1,0 -1,-1 -2,-1 0,-1 0,-1 0,-1 0,-12 -18,-12 -18,0 0,0 0,1 0,1 -1,3 -1,7 1,10 0,16 1,32 2,48 -1,30 0,60 3,90 1,56 5,112 15,167 2,10 19,8 18,-2 0,-5 0,-9 -1,-14 0,0 0,0 0,0 1,3 2,5 3,8 3,10 19,9 18,-2 -1,-9 -1,-18 -2,-27 1,-1 1,-3 1,-5 0,-8 -1,-16 -1,-24 0,1 1,1 2,2 2,1 5,0 7,-1 1,-1 1,-2 2,-3 6,-5 -2,-13 -8,-8 6,-6 -5,-50 -6,-59 -1,-11 -3,-22 -4,-34 -1,-25 -3,-50 -5,-76 10,19 20,37 29,55 128,262 281,510 453,744 6,8 18,1 13,-7 -6,-9 -13,-18 -19,-26 18,20 39,35 55,11 2,-2 2,-5 0,-7 -154,-262 -319,-517 -490,-767 53,38 107,76 160,114 7,6 16,-3 15,-10 4,-4 5,-10 0,-14 -1,-1 -1,-1 -2,-2 4,-4 5,-10 0,-14z"/>
  </g>
 </g>
</svg>
