<?xml version="1.0" encoding="UTF-8"?>
<!DOCTYPE svg PUBLIC "-//W3C//DTD SVG 1.0//EN" "http://www.w3.org/TR/2001/REC-SVG-20010904/DTD/svg10.dtd">
<!-- Creator: CorelDRAW X7 -->
<svg xmlns="http://www.w3.org/2000/svg" xml:space="preserve" width="200mm" height="200mm" version="1.0" style="shape-rendering:geometricPrecision; text-rendering:geometricPrecision; image-rendering:optimizeQuality; fill-rule:evenodd; clip-rule:evenodd"
viewBox="0 0 20000 20000"
 xmlns:xlink="http://www.w3.org/1999/xlink">
 <defs>
  <style type="text/css">
   <![CDATA[
    .str0 {stroke:#4E877A;stroke-width:25}
    .fil6 {fill:#FEFEFE}
    .fil9 {fill:#E62C76}
    .fil3 {fill:#EBE3DD}
    .fil10 {fill:#D82358}
    .fil4 {fill:#D6ABA2}
    .fil1 {fill:#CDDE91}
    .fil2 {fill:#BDBBBA}
    .fil11 {fill:#A42A60}
    .fil5 {fill:#ABD7D4}
    .fil12 {fill:#98CA91}
    .fil7 {fill:#79B9E6}
    .fil14 {fill:#4D897C}
    .fil8 {fill:#39AAE1}
    .fil13 {fill:#43AC3E}
    .fil0 {fill:url(#id0)}
   ]]>
  </style>
  <radialGradient id="id0" gradientUnits="userSpaceOnUse" gradientTransform="matrix(1.41421 -0 -0 1.41421 -4142 -4138)" cx="10000" cy="9990" r="10000" fx="10000" fy="9990">
   <stop offset="0" style="stop-opacity:1; stop-color:#FEFEFE"/>
   <stop offset="0.439216" style="stop-opacity:1; stop-color:#FEFEFE"/>
   <stop offset="1" style="stop-opacity:1; stop-color:#D1E2F2"/>
  </radialGradient>
 </defs>
 <g id="Layer_x0020_1">
  <metadata id="CorelCorpID_0Corel-Layer"/>
  <path class="fil0" d="M0 -10l20000 0 0 20000 -20000 0 0 -20000z"/>
  <g id="_428647424592">
   <path class="fil1" d="M2260 1004l-1268 0 0 7140 1268 0 0 -7140z"/>
   <path class="fil2" d="M10195 1004l-6760 0 3156 3180 3604 -3180z"/>
   <path class="fil2" d="M2260 8571l-1268 0 0 4942 1268 0 0 -4942z"/>
   <path class="fil2" d="M2688 18406l0 942 2159 0 0 -942 -2159 0z"/>
   <path class="fil3" d="M2260 13941l-1268 0 0 4037 1268 0 0 -4037z"/>
   <path class="fil2" d="M992 18406l0 942 1268 0 0 -942 -1268 0z"/>
   <path class="fil2" d="M15530 14522l3806 0 0 -1113 -3806 0 0 1113z"/>
   <path class="fil2" d="M17975 10653l-2445 1597 0 731 3806 0 0 -8464 -1361 0 0 6136z"/>
   <path class="fil3" d="M8249 5854l3809 -3209 713 -1641 -1929 0 -3949 3484 1356 1366z"/>
   <path class="fil2" d="M8551 6159l1205 1214 4305 -3468 3486 0 0 -2901 -4310 0 -827 1903 -3859 3252z"/>
   <path class="fil4" d="M19336 3905l0 -2901 -1361 0 0 2901 1361 0z"/>
   <path class="fil4" d="M9458 7941l-2246 -2263 -1937 902 0 6933 2441 0 2844 -1449 -1102 -4123z"/>
   <path class="fil1" d="M2688 13941l0 4037 2159 0 0 -4037 -2159 0z"/>
   <path class="fil2" d="M5275 18406l0 942 5720 0 -1599 -942 -4121 0z"/>
   <path class="fil2" d="M2688 8862l0 4651 2159 0 0 -2566 -2159 -2085z"/>
   <path class="fil2" d="M11208 14488l-534 -2001 -2639 1343 1548 4098 4300 -1324 -2675 -2116z"/>
   <path class="fil2" d="M19336 14951l-3806 0 0 2176 2808 2221 998 0 0 -4397z"/>
   <path class="fil2" d="M5275 13941l0 4037 3869 0 -1525 -4037 -2344 0z"/>
   <path class="fil2" d="M4847 6307l2045 -952 -4204 -4235 0 7147 2159 2085 0 -4045z"/>
   <path class="fil3" d="M9980 18254l1858 1094 5514 0 -3061 -2422 -4311 1328z"/>
   <path class="fil5" d="M15889 8979l1066 1828 592 -386 0 -5904 -3270 0 -1713 1379 1769 2849 1556 234z"/>
   <path class="fil1" d="M11747 14134l3355 2654 0 -4770 1495 -976 -975 -1670 -1549 -233 -1845 -2973 -2149 1731 1668 6237z"/>
   <path class="fil6" d="M9583 17928l-1548 -4098 2639 -1343 534 2001 2675 2116 -4300 1324zm-4308 50l0 -4037 2344 0 1525 4037 -3869 0zm-2587 0l0 -4037 2159 0 0 4037 -2159 0zm2587 -4465l0 -6933 1937 -902 2246 2263 1102 4123 -2844 1449 -2441 0zm-2587 0l0 -4651 2159 2085 0 2566 -2159 0zm0 -5246l0 -7147 4204 4235 -2045 952 0 4045 -2159 -2085zm9540 -2101l1845 2973 1549 233 975 1670 -1495 976 0 4770 -3355 -2654 -1668 -6237 2149 -1731zm2049 -1649l3270 0 0 5904 -592 386 -1066 -1828 -1556 -234 -1769 -2849 1713 -1379zm1253 10434l3806 0 0 -429 -3806 0 0 -1113 3806 0 0 -428 -3806 0 0 -731 2445 -1597 0 -6136 1361 0 0 -612 -1361 0 0 -2901 -428 0 0 2901 -3486 0 -4305 3468 -1205 -1214 3859 -3252 827 -1903 -466 0 -713 1641 -3809 3209 -1356 -1366 3949 -3484 -647 0 -3604 3180 -3156 -3180 -1175 0 0 7140 -1268 0 0 427 1268 0 0 4942 -1268 0 0 428 1268 0 0 4037 -1268 0 0 428 1268 0 0 942 428 0 0 -942 2159 0 0 942 428 0 0 -942 4121 0 1599 942 843 0 -1858 -1094 4311 -1328 3061 2422 986 0 -2808 -2221 0 -2176z"/>
   <path class="fil7" d="M15432 7026l0 0c0,-349 -283,-632 -633,-632 -349,0 -633,283 -633,632 0,0 -49,445 633,1325 682,-880 633,-1325 633,-1325z"/>
   <path class="fil8" d="M14799 8351c682,-880 633,-1325 633,-1325 0,-349 -283,-632 -633,-632l0 1957z"/>
   <path class="fil6" d="M15347 7026c0,303 -245,548 -548,548 -302,0 -548,-245 -548,-548 0,-302 246,-547 548,-547 303,0 548,245 548,547z"/>
   <path class="fil9" d="M8157 11906l0 0c0,-349 -283,-633 -633,-633 -349,0 -632,284 -632,633 0,0 -50,445 632,1325 683,-880 633,-1325 633,-1325z"/>
   <path class="fil10" d="M7524 13231c683,-880 633,-1325 633,-1325 0,-349 -283,-633 -633,-633l0 1958z"/>
   <path class="fil6" d="M8072 11906c0,303 -245,548 -548,548 -302,0 -548,-245 -548,-548 0,-303 246,-548 548,-548 303,0 548,245 548,548z"/>
   <path class="fil10" d="M10449 5508l0 0c0,-349 -283,-633 -633,-633 -349,0 -633,284 -633,633 0,0 -49,445 633,1325 682,-880 633,-1325 633,-1325z"/>
   <path class="fil11" d="M9816 6833c682,-880 633,-1325 633,-1325 0,-349 -283,-633 -633,-633l0 1958z"/>
   <path class="fil6" d="M10364 5508c0,303 -245,548 -548,548 -302,0 -548,-245 -548,-548 0,-302 246,-548 548,-548 303,0 548,246 548,548z"/>
   <path class="fil12" d="M7167 2394l0 0c0,-350 -284,-633 -633,-633 -350,0 -633,283 -633,633 0,0 -49,445 633,1325 682,-880 633,-1325 633,-1325z"/>
   <path class="fil13" d="M6534 3719c682,-880 633,-1325 633,-1325 0,-350 -284,-633 -633,-633l0 1958z"/>
   <path class="fil6" d="M7082 2394c0,302 -246,548 -548,548 -303,0 -548,-246 -548,-548 0,-303 245,-548 548,-548 302,0 548,245 548,548z"/>
   <path class="fil14 str0" d="M11226 4047l81 0 198 373 173 -373 79 0 -227 472c-29,59 -52,97 -70,116 -18,18 -44,27 -78,27 -21,0 -46,-5 -76,-14l0 -69c21,12 44,19 68,19 20,0 36,-7 51,-19 14,-13 29,-42 47,-86l-246 -446zm601 0l73 0 0 480 323 -480 79 0 0 606 -73 0 0 -478 -322 478 -80 0 0 -606zm609 0l80 0 0 266c37,0 62,-7 77,-21 15,-15 34,-49 57,-103 17,-40 31,-68 42,-84 11,-17 26,-31 46,-42 20,-11 43,-17 67,-17 31,0 47,1 49,1l0 70c-3,0 -8,0 -16,-1 -9,0 -14,0 -16,0 -26,0 -45,6 -57,18 -13,13 -28,39 -44,80 -20,51 -37,84 -52,97 -14,13 -30,24 -50,32 39,11 78,47 116,109l125 201 -100 0 -102 -164c-27,-45 -51,-77 -69,-94 -19,-17 -43,-25 -73,-25l0 283 -80 0 0 -606zm727 0l80 0 298 470 0 -470 76 0 0 606 -80 0 -298 -467 0 467 -76 0 0 -606zm509 281c0,-49 14,-88 41,-117 28,-29 64,-44 109,-44 45,0 81,15 108,45 27,30 40,70 40,121 0,51 -14,92 -41,121 -28,30 -65,45 -110,45 -39,0 -74,-13 -103,-40 -29,-27 -44,-71 -44,-131zm72 2c0,37 7,66 22,84 15,19 33,29 55,29 20,0 38,-9 54,-28 15,-18 23,-45 23,-82 0,-39 -8,-67 -24,-85 -16,-17 -34,-26 -54,-26 -20,0 -38,10 -53,28 -16,18 -23,44 -23,80zm-64 213l282 0 0 61 -282 0 0 -61zm876 110l-75 0 0 -474c-18,17 -41,34 -70,51 -29,17 -56,30 -79,39l0 -72c42,-20 78,-43 109,-71 32,-28 54,-55 67,-81l48 0 0 608zm191 -159l78 -6c6,38 19,67 40,86 21,19 47,29 77,29 36,0 66,-14 91,-41 24,-27 37,-63 37,-107 0,-43 -12,-76 -36,-101 -23,-24 -54,-37 -93,-37 -24,0 -46,6 -65,17 -19,11 -34,25 -45,43l-70 -11 58 -311 301 0 0 71 -241 0 -33 164c36,-26 75,-39 114,-39 53,0 98,19 134,55 36,37 54,84 54,142 0,55 -15,102 -47,142 -39,49 -92,74 -159,74 -55,0 -100,-16 -135,-47 -35,-31 -55,-72 -60,-123z"/>
   <path class="fil14 str0" d="M14764 5617l81 0 199 372 172 -372 79 0 -227 471c-28,59 -52,98 -70,116 -18,18 -44,27 -78,27 -20,0 -46,-5 -76,-14l0 -69c22,13 44,19 68,19 20,0 37,-6 51,-19 14,-13 30,-41 47,-86l-246 -445zm601 0l73 0 0 480 323 -480 79 0 0 606 -73 0 0 -479 -321 479 -81 0 0 -606zm609 0l80 0 0 265c37,0 63,-7 77,-21 15,-14 34,-48 58,-103 16,-40 30,-68 41,-84 11,-17 27,-30 47,-42 20,-11 42,-16 66,-16 31,0 47,0 49,1l0 69c-3,0 -8,0 -16,0 -9,-1 -14,-1 -16,-1 -26,0 -45,6 -57,19 -13,12 -27,39 -44,79 -20,52 -37,84 -51,97 -14,14 -31,24 -51,32 39,11 78,47 116,109l125 202 -100 0 -101 -164c-28,-46 -51,-77 -70,-94 -19,-17 -43,-26 -73,-26l0 284 -80 0 0 -606zm727 0l80 0 298 469 0 -469 76 0 0 606 -80 0 -298 -468 0 468 -76 0 0 -606zm509 280c0,-49 14,-88 41,-117 28,-29 64,-43 109,-43 45,0 81,15 108,45 27,29 40,70 40,120 0,52 -14,92 -41,122 -28,30 -65,45 -110,45 -39,0 -73,-14 -103,-41 -29,-27 -44,-70 -44,-131zm72 3c0,37 8,65 22,84 15,18 33,28 55,28 20,0 38,-9 54,-27 16,-19 23,-46 23,-83 0,-39 -8,-67 -24,-84 -16,-18 -34,-26 -53,-26 -21,0 -39,9 -54,27 -15,18 -23,45 -23,81zm-63 213l281 0 0 61 -281 0 0 -61zm875 110l-75 0 0 -475c-17,18 -41,35 -70,52 -29,17 -55,30 -79,38l0 -72c42,-19 78,-43 110,-71 31,-28 53,-55 66,-81l48 0 0 609zm578 -458l-73 6c-7,-30 -16,-51 -29,-64 -20,-21 -45,-32 -74,-32 -24,0 -45,7 -64,20 -23,17 -41,42 -55,75 -14,32 -21,79 -21,140 18,-28 40,-48 66,-61 26,-13 53,-20 81,-20 50,0 92,18 127,55 35,36 53,84 53,142 0,38 -9,73 -25,106 -17,32 -39,57 -68,75 -28,17 -61,26 -97,26 -62,0 -113,-23 -152,-69 -39,-45 -59,-120 -59,-225 0,-117 22,-202 65,-256 38,-46 89,-69 153,-69 48,0 87,13 117,40 31,27 49,64 55,111zm-304 261c0,26 5,51 16,74 11,23 26,41 45,53 20,13 40,19 62,19 32,0 59,-13 82,-38 22,-26 33,-60 33,-104 0,-41 -11,-75 -33,-99 -22,-24 -50,-36 -85,-36 -33,0 -62,12 -85,36 -24,24 -35,56 -35,95z"/>
   <path class="fil14 str0" d="M7435 1972l81 0 199 373 172 -373 79 0 -227 471c-28,59 -51,98 -70,116 -18,19 -44,28 -78,28 -20,0 -46,-5 -76,-15l0 -68c22,12 45,18 69,18 19,0 36,-6 50,-19 14,-12 30,-41 47,-86l-246 -445zm601 0l73 0 0 480 323 -480 79 0 0 606 -72 0 0 -479 -322 479 -81 0 0 -606zm609 0l80 0 0 266c37,0 63,-7 78,-22 15,-14 34,-48 57,-102 16,-40 30,-68 41,-85 11,-16 27,-30 47,-41 20,-11 42,-17 66,-17 31,0 48,0 49,1l0 69c-3,0 -8,0 -16,0 -9,0 -14,-1 -16,-1 -26,0 -45,7 -57,19 -13,12 -27,39 -44,80 -20,51 -37,83 -51,97 -14,13 -31,24 -51,32 40,10 78,47 116,108l125 202 -99 0 -102 -164c-28,-46 -51,-77 -70,-94 -19,-17 -43,-26 -73,-26l0 284 -80 0 0 -606zm728 0l79 0 298 470 0 -470 76 0 0 606 -79 0 -299 -468 0 468 -75 0 0 -606zm508 281c0,-49 14,-88 41,-117 28,-29 64,-44 109,-44 45,0 81,15 108,45 27,30 40,70 40,121 0,51 -13,91 -41,121 -28,30 -64,45 -110,45 -39,0 -73,-14 -103,-41 -29,-26 -44,-70 -44,-130zm72 2c0,37 8,65 23,84 14,19 33,28 54,28 20,0 38,-9 54,-27 16,-18 23,-46 23,-83 0,-38 -8,-67 -24,-84 -16,-17 -34,-26 -53,-26 -21,0 -39,9 -54,27 -15,18 -23,45 -23,81zm-63 213l281 0 0 61 -281 0 0 -61zm875 110l-74 0 0 -474c-18,17 -42,34 -71,51 -29,17 -55,30 -78,38l0 -72c41,-19 78,-43 109,-71 31,-27 53,-54 66,-81l48 0 0 609zm196 -527l0 -72 392 0 0 58c-39,41 -77,96 -115,164 -38,68 -67,138 -88,210 -15,51 -24,107 -28,167l-77 0c1,-48 11,-105 29,-173 17,-68 43,-133 76,-196 34,-62 69,-115 107,-158l-296 0z"/>
   <path class="fil14 str0" d="M7204 10150l81 0 199 373 172 -373 79 0 -227 472c-28,59 -52,98 -70,116 -18,18 -44,27 -78,27 -20,0 -46,-5 -76,-14l0 -69c22,12 44,19 68,19 20,0 37,-7 51,-19 14,-13 30,-41 47,-86l-246 -446zm601 0l73 0 0 480 323 -480 79 0 0 607 -73 0 0 -479 -321 479 -81 0 0 -607zm609 0l80 0 0 266c37,0 63,-7 78,-21 15,-15 33,-49 57,-103 16,-40 30,-68 41,-84 11,-17 27,-31 47,-42 20,-11 42,-17 66,-17 31,0 47,1 49,1l0 70c-3,0 -8,0 -16,-1 -9,0 -14,0 -16,0 -26,0 -45,6 -57,19 -13,12 -27,38 -44,79 -20,51 -37,84 -51,97 -14,13 -31,24 -51,32 39,11 78,47 116,109l125 202 -100 0 -101 -165c-28,-45 -51,-77 -70,-94 -19,-17 -43,-25 -73,-25l0 284 -80 0 0 -607zm727 0l80 0 298 470 0 -470 76 0 0 607 -80 0 -298 -468 0 468 -76 0 0 -607zm509 281c0,-49 14,-88 41,-117 28,-29 64,-43 109,-43 45,0 81,14 108,44 27,30 40,70 40,121 0,51 -13,92 -41,122 -28,29 -64,44 -110,44 -39,0 -73,-13 -103,-40 -29,-27 -44,-71 -44,-131zm72 2c0,37 8,66 22,84 15,19 33,29 55,29 20,0 38,-9 54,-28 16,-18 23,-45 23,-82 0,-39 -8,-67 -24,-84 -16,-18 -34,-26 -53,-26 -21,0 -39,9 -54,27 -15,18 -23,45 -23,80zm-63 213l281 0 0 61 -281 0 0 -61zm875 111l-75 0 0 -475c-17,17 -41,34 -70,51 -29,18 -55,30 -79,39l0 -72c42,-20 79,-43 110,-71 31,-28 53,-55 66,-81l48 0 0 609zm306 -329c-31,-11 -54,-28 -69,-49 -14,-21 -22,-46 -22,-75 0,-44 16,-81 48,-111 31,-30 73,-45 126,-45 53,0 95,15 128,46 32,31 48,68 48,112 0,28 -7,53 -22,74 -15,20 -37,37 -67,48 37,12 65,31 84,59 20,27 29,59 29,96 0,52 -18,95 -54,131 -37,35 -85,53 -145,53 -60,0 -108,-18 -144,-53 -37,-36 -55,-80 -55,-133 0,-39 10,-72 30,-99 20,-26 48,-45 85,-54zm-15 -127c0,29 10,53 28,71 18,18 42,27 72,27 29,0 52,-9 70,-27 19,-18 28,-40 28,-66 0,-28 -10,-51 -28,-69 -19,-19 -43,-28 -71,-28 -29,0 -52,9 -71,27 -18,18 -28,40 -28,65zm-24 281c0,21 5,41 15,61 10,20 24,35 45,46 19,11 41,17 64,17 35,0 65,-12 88,-35 23,-22 34,-52 34,-87 0,-36 -12,-65 -35,-89 -24,-23 -54,-35 -90,-35 -35,0 -64,12 -87,35 -23,23 -34,52 -34,87z"/>
  </g>
 </g>
</svg>
