<?xml version="1.0" encoding="UTF-8"?>
<!DOCTYPE svg PUBLIC "-//W3C//DTD SVG 1.1//EN" "http://www.w3.org/Graphics/SVG/1.1/DTD/svg11.dtd">
<!-- Creator: CorelDRAW X6 -->
<svg xmlns="http://www.w3.org/2000/svg" xml:space="preserve" width="200mm" height="200mm" version="1.1" style="shape-rendering:geometricPrecision; text-rendering:geometricPrecision; image-rendering:optimizeQuality; fill-rule:evenodd; clip-rule:evenodd"
viewBox="0 0 20000 20000"
 xmlns:xlink="http://www.w3.org/1999/xlink">
 <defs>
  <style type="text/css">
   <![CDATA[
    .str5 {stroke:#AB8082;stroke-width:7.62}
    .str3 {stroke:#CC7587;stroke-width:30}
    .str2 {stroke:#AB8082;stroke-width:34.18}
    .str4 {stroke:#CC7587;stroke-width:68.92;stroke-linecap:round;stroke-linejoin:round}
    .str0 {stroke:#034540;stroke-width:132.61;stroke-linecap:round;stroke-linejoin:round}
    .str1 {stroke:#4D8A7D;stroke-width:132.61;stroke-linecap:round;stroke-linejoin:round}
    .fil2 {fill:none}
    .fil5 {fill:none;fill-rule:nonzero}
    .fil1 {fill:#EBF2D9}
    .fil6 {fill:#4D8A7D;fill-rule:nonzero}
    .fil3 {fill:#AB8082;fill-rule:nonzero}
    .fil4 {fill:#CC7587;fill-rule:nonzero}
    .fil0 {fill:url(#id0)}
   ]]>
  </style>
  <radialGradient id="id0" gradientUnits="userSpaceOnUse" cx="10000" cy="10000" r="10000" fx="10000" fy="10000">
   <stop offset="0" style="stop-color:#FEFEFE"/>
   <stop offset="0.439216" style="stop-color:#FEFEFE"/>
   <stop offset="1" style="stop-color:#D1E2F2"/>
  </radialGradient>
 </defs>
 <g id="Layer_x0020_1">
  <metadata id="CorelCorpID_0Corel-Layer"/>
  <g id="_908803824">
   <polygon class="fil0" points="0,0 20000,0 20000,20000 0,20000 "/>
   <polygon class="fil1 str0" points="10333,11680 12426,11680 12426,8539 10333,8539 "/>
   <polygon class="fil1 str0" points="4699,11680 6792,11680 6792,8539 4699,8539 "/>
   <path class="fil2 str1" d="M7033 11460c0,-1047 0,-2093 0,-3140 -698,0 -1396,0 -2093,0"/>
   <polygon class="fil1 str0" points="7516,11680 9609,11680 9609,8539 7516,8539 "/>
   <path class="fil2 str1" d="M9850 11460c0,-1047 0,-2093 0,-3140 -698,0 -1396,0 -2093,0"/>
   <path class="fil3 str2" d="M10977 10217c0,-25 9,-45 27,-53l100 -45c49,-22 60,-60 60,-97l0 -2c0,-63 -35,-97 -106,-97l-33 0c-56,0 -91,24 -91,82 0,14 7,26 26,26 19,0 26,-11 26,-26 0,-23 16,-33 40,-33l33 0c39,0 55,15 55,48l0 2c0,26 -8,41 -30,51l-93 41c-44,19 -64,60 -64,107l0 87 219 0c14,0 24,-7 24,-24 0,-17 -11,-24 -24,-24l-168 0 0 -43zm299 0c0,-25 9,-45 27,-53l100 -45c49,-22 60,-60 60,-97l0 -2c0,-63 -35,-97 -106,-97l-33 0c-56,0 -91,24 -91,82 0,14 7,26 26,26 19,0 26,-11 26,-26 0,-23 16,-33 40,-33l33 0c39,0 55,15 55,48l0 2c0,26 -8,41 -30,51l-93 41c-44,19 -64,60 -64,107l0 87 219 0c14,0 24,-7 24,-24 0,-17 -11,-24 -24,-24l-168 0 0 -43zm490 -23c0,-45 -19,-80 -59,-93 26,-15 40,-39 40,-74l0 -7c0,-63 -35,-97 -106,-97l-29 0c-56,0 -91,24 -91,82 0,14 7,26 26,26 19,0 26,-11 26,-26 0,-23 16,-33 40,-33l29 0c39,0 55,15 55,48l0 7c0,34 -20,59 -59,59l-31 0c-14,0 -24,7 -24,24 0,17 11,24 24,24l56 0c39,0 53,25 53,60l0 18c0,34 -16,54 -55,54l-58 0c-24,0 -40,-10 -40,-33 0,-14 -7,-26 -26,-26 -19,0 -26,11 -26,26 0,58 35,82 91,82l58 0c71,0 106,-40 106,-103l0 -18z"/>
   <path class="fil4 str3" d="M11371 10557c-16,0 -22,11 -22,23l0 195 -74 0 0 -195c0,-12 -6,-23 -22,-23 -16,0 -22,11 -22,23l0 195 -74 0 0 -195c0,-12 -6,-23 -22,-23 -16,0 -22,11 -22,23l0 214c0,12 6,23 22,23l237 0c16,0 22,-10 22,-23l0 -214c0,-12 -6,-23 -22,-23zm254 5l-162 0c-11,0 -22,5 -22,21 0,15 10,22 22,22l59 0 0 195c0,12 6,23 22,23 16,0 22,-11 22,-23l0 -195 59 0c11,0 22,-6 22,-22 0,-16 -10,-21 -22,-21z"/>
   <polyline class="fil5 str1" points="12909,11241 12909,8101 10815,8101 "/>
   <path class="fil5 str1" d="M12667 11460c0,-1047 0,-2093 0,-3140 -698,0 -1396,0 -2093,0"/>
   <path class="fil5 str4" d="M10917 10907c-164,-134 -269,-338 -269,-567 0,-228 105,-432 269,-567m926 0c164,134 269,338 269,567 0,228 -105,432 -269,567"/>
   <path class="fil3 str2" d="M8476 9928c-14,0 -24,7 -24,24l0 146c0,17 11,24 24,24l103 0c39,0 55,20 55,54l0 34c0,34 -16,54 -55,54l-48 0c-24,0 -40,-10 -40,-33 0,-14 -7,-26 -26,-26 -19,0 -26,11 -26,26 0,58 35,82 91,82l48 0c71,0 106,-40 106,-103l0 -34c0,-63 -35,-103 -106,-103l-76 0 0 -97 140 0c14,0 24,-7 24,-24 0,-17 -11,-24 -24,-24l-167 0z"/>
   <path class="fil4 str3" d="M8554 10557c-16,0 -22,11 -22,23l0 195 -74 0 0 -195c0,-12 -6,-23 -22,-23 -16,0 -22,11 -22,23l0 195 -74 0 0 -195c0,-12 -6,-23 -22,-23 -16,0 -22,11 -22,23l0 214c0,12 6,23 22,23l237 0c16,0 22,-10 22,-23l0 -214c0,-12 -6,-23 -22,-23zm254 5l-162 0c-11,0 -22,5 -22,21 0,15 10,22 22,22l59 0 0 195c0,12 6,23 22,23 16,0 22,-11 22,-23l0 -195 59 0c11,0 22,-6 22,-22 0,-16 -10,-21 -22,-21z"/>
   <path class="fil5 str4" d="M8100 10907c-164,-134 -269,-338 -269,-567 0,-228 105,-432 269,-567m926 0c164,134 269,338 269,567 0,228 -105,432 -269,567"/>
   <path class="fil3 str2" d="M5578 9918c-9,0 -15,4 -20,9 -27,29 -57,59 -88,88 -10,9 -14,21 -1,34 12,12 23,8 33,-1 20,-16 40,-37 57,-57l0 265 -68 0c-14,0 -24,7 -24,24 0,17 11,24 24,24l176 0c14,0 24,-7 24,-24 0,-17 -11,-24 -24,-24l-57 0 0 -312c0,-14 -4,-26 -23,-26l-9 0zm208 5c-14,0 -24,7 -24,24l0 146c0,17 11,24 24,24l103 0c39,0 55,20 55,54l0 34c0,34 -16,54 -55,54l-48 0c-24,0 -40,-10 -40,-33 0,-14 -7,-26 -26,-26 -19,0 -26,11 -26,26 0,58 35,82 91,82l48 0c71,0 106,-40 106,-103l0 -34c0,-63 -35,-103 -106,-103l-76 0 0 -97 140 0c14,0 24,-7 24,-24 0,-17 -11,-24 -24,-24l-167 0z"/>
   <path class="fil4 str3" d="M5737 10557c-16,0 -22,11 -22,23l0 195 -74 0 0 -195c0,-12 -6,-23 -22,-23 -16,0 -22,11 -22,23l0 195 -74 0 0 -195c0,-12 -6,-23 -22,-23 -16,0 -22,11 -22,23l0 214c0,12 6,23 22,23l237 0c16,0 22,-10 22,-23l0 -214c0,-12 -6,-23 -22,-23zm254 5l-162 0c-11,0 -22,5 -22,21 0,15 10,22 22,22l59 0 0 195c0,12 6,23 22,23 16,0 22,-11 22,-23l0 -195 59 0c11,0 22,-6 22,-22 0,-16 -10,-21 -22,-21z"/>
   <path class="fil5 str4" d="M5282 10907c-164,-134 -269,-338 -269,-567 0,-228 105,-432 269,-567m926 0c164,134 269,338 269,567 0,228 -105,432 -269,567"/>
   <polygon class="fil1 str0" points="1640,11680 3734,11680 3734,8539 1640,8539 "/>
   <polyline class="fil2 str1" points="4216,11241 4216,8101 2123,8101 "/>
   <path class="fil2 str1" d="M3975 11460c0,-1047 0,-2093 0,-3140 -698,0 -1396,0 -2093,0"/>
   <path class="fil3 str2" d="M2343 9913c-87,52 -114,121 -114,206l0 81c0,63 35,103 106,103l32 0c71,0 106,-38 106,-100l0 -27c0,-62 -35,-106 -106,-106l-83 0c8,-45 33,-81 87,-114 11,-7 20,-21 10,-36 -10,-15 -26,-14 -38,-7zm-8 341c-39,0 -55,-20 -55,-54l0 -81 87 0c39,0 55,22 55,57l0 27c0,34 -16,51 -55,51l-32 0zm239 -206c0,-54 20,-88 63,-88l19 0c43,0 63,33 63,88l0 119c0,54 -20,88 -63,88l-19 0c-43,0 -63,-33 -63,-88l0 -119zm196 0c0,-83 -39,-137 -114,-137l-19 0c-75,0 -114,53 -114,137l0 119c0,83 39,137 114,137l19 0c75,0 114,-53 114,-137l0 -119zm103 0c0,-54 20,-88 63,-88l19 0c43,0 63,33 63,88l0 119c0,54 -20,88 -63,88l-19 0c-43,0 -63,-33 -63,-88l0 -119zm196 0c0,-83 -39,-137 -114,-137l-19 0c-75,0 -114,53 -114,137l0 119c0,83 39,137 114,137l19 0c75,0 114,-53 114,-137l0 -119z"/>
   <path class="fil4 str3" d="M2679 10557c-16,0 -22,11 -22,23l0 195 -74 0 0 -195c0,-12 -6,-23 -22,-23 -16,0 -22,11 -22,23l0 195 -74 0 0 -195c0,-12 -6,-23 -22,-23 -16,0 -22,11 -22,23l0 214c0,12 6,23 22,23l237 0c16,0 22,-10 22,-23l0 -214c0,-12 -6,-23 -22,-23zm254 5l-162 0c-11,0 -22,5 -22,21 0,15 10,22 22,22l59 0 0 195c0,12 6,23 22,23 16,0 22,-11 22,-23l0 -195 59 0c11,0 22,-6 22,-22 0,-16 -10,-21 -22,-21z"/>
   <path class="fil5 str4" d="M2224 10907c-164,-134 -269,-338 -269,-567 0,-228 105,-432 269,-567m926 0c164,134 269,338 269,567 0,228 -105,432 -269,567"/>
   <path class="fil6" d="M1910 9283l-34 0 0 -70 76 0c9,0 17,-5 17,-17 0,-11 -8,-17 -17,-17l-94 0c-12,0 -17,7 -17,17l0 230c0,9 6,17 18,17l52 0c48,0 70,-25 70,-67l0 -22c0,-41 -22,-70 -70,-70zm35 92c0,23 -9,34 -35,34l-34 0 0 -94 34 0c26,0 35,14 35,37l0 23zm214 -200l-4 0c-50,0 -70,43 -70,84l0 27 -30 0 0 -94c0,-9 -4,-17 -17,-17 -12,0 -17,8 -17,17l0 236c0,9 5,17 17,17 12,0 17,-8 17,-17l0 -109 30 0 0 57c0,41 22,69 70,69l4 0c48,0 70,-32 70,-73l0 -124c0,-41 -22,-73 -70,-73zm34 198c0,23 -8,40 -34,40l-4 0c-26,0 -34,-12 -34,-35l0 -118c0,-23 7,-50 34,-50l4 0c26,0 34,16 34,40l0 124zm132 22c1,-8 12,-182 12,-182l53 0 0 216c0,9 5,17 18,17 12,0 17,-8 17,-17l0 -233c0,-9 -5,-17 -17,-17l-86 0c-12,0 -18,9 -18,17 0,0 -12,186 -12,190 0,5 -1,12 -3,16 -3,6 -9,11 -18,11 -9,0 -17,6 -17,18 0,13 8,17 17,17 27,0 43,-11 50,-30 3,-7 5,-15 5,-23zm201 0c1,-8 12,-182 12,-182l53 0 0 216c0,9 5,17 18,17 12,0 17,-8 17,-17l0 -233c0,-9 -5,-17 -17,-17l-86 0c-12,0 -18,9 -18,17 0,0 -12,186 -12,190 0,5 -1,12 -3,16 -3,6 -9,11 -18,11 -9,0 -17,6 -17,18 0,13 8,17 17,17 27,0 43,-11 50,-30 3,-7 5,-15 5,-23zm271 47c9,0 17,-5 17,-17 0,-11 -8,-17 -17,-17l-81 0 0 -85 64 0c9,0 17,-5 17,-17 0,-11 -8,-17 -17,-17l-64 0 0 -77 81 0c9,0 17,-5 17,-17 0,-11 -8,-17 -17,-17l-99 0c-12,0 -17,8 -17,17l0 229c0,9 5,17 17,17l99 0zm96 -14c0,9 5,17 17,17 12,0 18,-8 18,-17l0 -216 44 0c9,0 17,-5 17,-17 0,-11 -8,-17 -17,-17l-122 0c-9,0 -17,6 -17,17 0,12 8,17 17,17l44 0 0 216zm244 14c9,0 17,-5 17,-17 0,-11 -8,-17 -17,-17l-81 0 0 -85 64 0c9,0 17,-5 17,-17 0,-11 -8,-17 -17,-17l-64 0 0 -77 81 0c9,0 17,-5 17,-17 0,-11 -8,-17 -17,-17l-99 0c-12,0 -17,8 -17,17l0 229c0,9 5,17 17,17l99 0zm203 -250c0,-9 -6,-17 -18,-17 -12,0 -18,8 -18,17l0 94 -76 0 0 -94c0,-9 -5,-17 -18,-17 -12,0 -18,8 -18,17l0 236c0,9 6,17 18,17 12,0 18,-8 18,-17l0 -109 76 0 0 109c0,9 5,17 18,17 12,0 18,-8 18,-17l0 -236zm128 88l-38 0 0 -88c0,-9 -5,-17 -18,-17 -12,0 -18,8 -18,17l0 232c0,9 5,17 17,17l56 0c48,0 70,-25 70,-67l0 -23c0,-41 -22,-71 -70,-71zm-38 34l38 0c26,0 35,14 35,37l0 23c0,23 -9,34 -35,34l-38 0 0 -94z"/>
   <path class="fil6" d="M7785 9283l-34 0 0 -70 76 0c9,0 17,-5 17,-17 0,-11 -8,-17 -17,-17l-94 0c-12,0 -17,7 -17,17l0 230c0,9 6,17 18,17l52 0c48,0 70,-25 70,-67l0 -22c0,-41 -22,-70 -70,-70zm35 92c0,23 -9,34 -35,34l-34 0 0 -94 34 0c26,0 35,14 35,37l0 23zm214 -200l-4 0c-50,0 -70,43 -70,84l0 27 -30 0 0 -94c0,-9 -4,-17 -17,-17 -12,0 -17,8 -17,17l0 236c0,9 5,17 17,17 12,0 17,-8 17,-17l0 -109 30 0 0 57c0,41 22,69 70,69l4 0c48,0 70,-32 70,-73l0 -124c0,-41 -22,-73 -70,-73zm34 198c0,23 -8,40 -34,40l-4 0c-26,0 -34,-12 -34,-35l0 -118c0,-23 7,-50 34,-50l4 0c26,0 34,16 34,40l0 124zm132 22c1,-8 12,-182 12,-182l53 0 0 216c0,9 5,17 18,17 12,0 17,-8 17,-17l0 -233c0,-9 -5,-17 -17,-17l-86 0c-12,0 -18,9 -18,17 0,0 -12,186 -12,190 0,5 -1,12 -3,16 -3,6 -9,11 -18,11 -9,0 -17,6 -17,18 0,13 8,17 17,17 27,0 43,-11 50,-30 3,-7 5,-15 5,-23zm201 0c1,-8 12,-182 12,-182l53 0 0 216c0,9 5,17 18,17 12,0 17,-8 17,-17l0 -233c0,-9 -5,-17 -17,-17l-86 0c-12,0 -18,9 -18,17 0,0 -12,186 -12,190 0,5 -1,12 -3,16 -3,6 -9,11 -18,11 -9,0 -17,6 -17,18 0,13 8,17 17,17 27,0 43,-11 50,-30 3,-7 5,-15 5,-23zm271 47c9,0 17,-5 17,-17 0,-11 -8,-17 -17,-17l-81 0 0 -85 64 0c9,0 17,-5 17,-17 0,-11 -8,-17 -17,-17l-64 0 0 -77 81 0c9,0 17,-5 17,-17 0,-11 -8,-17 -17,-17l-99 0c-12,0 -17,8 -17,17l0 229c0,9 5,17 17,17l99 0zm96 -14c0,9 5,17 17,17 12,0 18,-8 18,-17l0 -216 44 0c9,0 17,-5 17,-17 0,-11 -8,-17 -17,-17l-122 0c-9,0 -17,6 -17,17 0,12 8,17 17,17l44 0 0 216zm244 14c9,0 17,-5 17,-17 0,-11 -8,-17 -17,-17l-81 0 0 -85 64 0c9,0 17,-5 17,-17 0,-11 -8,-17 -17,-17l-64 0 0 -77 81 0c9,0 17,-5 17,-17 0,-11 -8,-17 -17,-17l-99 0c-12,0 -17,8 -17,17l0 229c0,9 5,17 17,17l99 0zm203 -250c0,-9 -6,-17 -18,-17 -12,0 -18,8 -18,17l0 94 -76 0 0 -94c0,-9 -5,-17 -18,-17 -12,0 -18,8 -18,17l0 236c0,9 6,17 18,17 12,0 18,-8 18,-17l0 -109 76 0 0 109c0,9 5,17 18,17 12,0 18,-8 18,-17l0 -236zm128 88l-38 0 0 -88c0,-9 -5,-17 -18,-17 -12,0 -18,8 -18,17l0 232c0,9 5,17 17,17l56 0c48,0 70,-25 70,-67l0 -23c0,-41 -22,-71 -70,-71zm-38 34l38 0c26,0 35,14 35,37l0 23c0,23 -9,34 -35,34l-38 0 0 -94z"/>
   <path class="fil6" d="M10602 9283l-34 0 0 -70 76 0c9,0 17,-5 17,-17 0,-11 -8,-17 -17,-17l-94 0c-12,0 -17,7 -17,17l0 230c0,9 6,17 18,17l52 0c48,0 70,-25 70,-67l0 -22c0,-41 -22,-70 -70,-70zm35 92c0,23 -9,34 -35,34l-34 0 0 -94 34 0c26,0 35,14 35,37l0 23zm214 -200l-4 0c-50,0 -70,43 -70,84l0 27 -30 0 0 -94c0,-9 -4,-17 -17,-17 -12,0 -17,8 -17,17l0 236c0,9 5,17 17,17 12,0 17,-8 17,-17l0 -109 30 0 0 57c0,41 22,69 70,69l4 0c48,0 70,-32 70,-73l0 -124c0,-41 -22,-73 -70,-73zm34 198c0,23 -8,40 -34,40l-4 0c-26,0 -34,-12 -34,-35l0 -118c0,-23 7,-50 34,-50l4 0c26,0 34,16 34,40l0 124zm132 22c1,-8 12,-182 12,-182l53 0 0 216c0,9 5,17 18,17 12,0 17,-8 17,-17l0 -233c0,-9 -5,-17 -17,-17l-86 0c-12,0 -18,9 -18,17 0,0 -12,186 -12,190 0,5 -1,12 -3,16 -3,6 -9,11 -18,11 -9,0 -17,6 -17,18 0,13 8,17 17,17 27,0 43,-11 50,-30 3,-7 5,-15 5,-23zm201 0c1,-8 12,-182 12,-182l53 0 0 216c0,9 5,17 18,17 12,0 17,-8 17,-17l0 -233c0,-9 -5,-17 -17,-17l-86 0c-12,0 -18,9 -18,17 0,0 -12,186 -12,190 0,5 -1,12 -3,16 -3,6 -9,11 -18,11 -9,0 -17,6 -17,18 0,13 8,17 17,17 27,0 43,-11 50,-30 3,-7 5,-15 5,-23zm271 47c9,0 17,-5 17,-17 0,-11 -8,-17 -17,-17l-81 0 0 -85 64 0c9,0 17,-5 17,-17 0,-11 -8,-17 -17,-17l-64 0 0 -77 81 0c9,0 17,-5 17,-17 0,-11 -8,-17 -17,-17l-99 0c-12,0 -17,8 -17,17l0 229c0,9 5,17 17,17l99 0zm96 -14c0,9 5,17 17,17 12,0 18,-8 18,-17l0 -216 44 0c9,0 17,-5 17,-17 0,-11 -8,-17 -17,-17l-122 0c-9,0 -17,6 -17,17 0,12 8,17 17,17l44 0 0 216zm244 14c9,0 17,-5 17,-17 0,-11 -8,-17 -17,-17l-81 0 0 -85 64 0c9,0 17,-5 17,-17 0,-11 -8,-17 -17,-17l-64 0 0 -77 81 0c9,0 17,-5 17,-17 0,-11 -8,-17 -17,-17l-99 0c-12,0 -17,8 -17,17l0 229c0,9 5,17 17,17l99 0zm203 -250c0,-9 -6,-17 -18,-17 -12,0 -18,8 -18,17l0 94 -76 0 0 -94c0,-9 -5,-17 -18,-17 -12,0 -18,8 -18,17l0 236c0,9 6,17 18,17 12,0 18,-8 18,-17l0 -109 76 0 0 109c0,9 5,17 18,17 12,0 18,-8 18,-17l0 -236zm128 88l-38 0 0 -88c0,-9 -5,-17 -18,-17 -12,0 -18,8 -18,17l0 232c0,9 5,17 17,17l56 0c48,0 70,-25 70,-67l0 -23c0,-41 -22,-71 -70,-71zm-38 34l38 0c26,0 35,14 35,37l0 23c0,23 -9,34 -35,34l-38 0 0 -94z"/>
   <path class="fil6" d="M4968 9283l-34 0 0 -70 76 0c9,0 17,-5 17,-17 0,-11 -8,-17 -17,-17l-94 0c-12,0 -17,7 -17,17l0 230c0,9 6,17 18,17l52 0c48,0 70,-25 70,-67l0 -22c0,-41 -22,-70 -70,-70zm35 92c0,23 -9,34 -35,34l-34 0 0 -94 34 0c26,0 35,14 35,37l0 23zm214 -200l-4 0c-50,0 -70,43 -70,84l0 27 -30 0 0 -94c0,-9 -4,-17 -17,-17 -12,0 -17,8 -17,17l0 236c0,9 5,17 17,17 12,0 17,-8 17,-17l0 -109 30 0 0 57c0,41 22,69 70,69l4 0c48,0 70,-32 70,-73l0 -124c0,-41 -22,-73 -70,-73zm34 198c0,23 -8,40 -34,40l-4 0c-26,0 -34,-12 -34,-35l0 -118c0,-23 7,-50 34,-50l4 0c26,0 34,16 34,40l0 124zm132 22c1,-8 12,-182 12,-182l53 0 0 216c0,9 5,17 18,17 12,0 17,-8 17,-17l0 -233c0,-9 -5,-17 -17,-17l-86 0c-12,0 -18,9 -18,17 0,0 -12,186 -12,190 0,5 -1,12 -3,16 -3,6 -9,11 -18,11 -9,0 -17,6 -17,18 0,13 8,17 17,17 27,0 43,-11 50,-30 3,-7 5,-15 5,-23zm201 0c1,-8 12,-182 12,-182l53 0 0 216c0,9 5,17 18,17 12,0 17,-8 17,-17l0 -233c0,-9 -5,-17 -17,-17l-86 0c-12,0 -18,9 -18,17 0,0 -12,186 -12,190 0,5 -1,12 -3,16 -3,6 -9,11 -18,11 -9,0 -17,6 -17,18 0,13 8,17 17,17 27,0 43,-11 50,-30 3,-7 5,-15 5,-23zm271 47c9,0 17,-5 17,-17 0,-11 -8,-17 -17,-17l-81 0 0 -85 64 0c9,0 17,-5 17,-17 0,-11 -8,-17 -17,-17l-64 0 0 -77 81 0c9,0 17,-5 17,-17 0,-11 -8,-17 -17,-17l-99 0c-12,0 -17,8 -17,17l0 229c0,9 5,17 17,17l99 0zm96 -14c0,9 5,17 17,17 12,0 18,-8 18,-17l0 -216 44 0c9,0 17,-5 17,-17 0,-11 -8,-17 -17,-17l-122 0c-9,0 -17,6 -17,17 0,12 8,17 17,17l44 0 0 216zm244 14c9,0 17,-5 17,-17 0,-11 -8,-17 -17,-17l-81 0 0 -85 64 0c9,0 17,-5 17,-17 0,-11 -8,-17 -17,-17l-64 0 0 -77 81 0c9,0 17,-5 17,-17 0,-11 -8,-17 -17,-17l-99 0c-12,0 -17,8 -17,17l0 229c0,9 5,17 17,17l99 0zm203 -250c0,-9 -6,-17 -18,-17 -12,0 -18,8 -18,17l0 94 -76 0 0 -94c0,-9 -5,-17 -18,-17 -12,0 -18,8 -18,17l0 236c0,9 6,17 18,17 12,0 18,-8 18,-17l0 -109 76 0 0 109c0,9 5,17 18,17 12,0 18,-8 18,-17l0 -236zm128 88l-38 0 0 -88c0,-9 -5,-17 -18,-17 -12,0 -18,8 -18,17l0 232c0,9 5,17 17,17l56 0c48,0 70,-25 70,-67l0 -23c0,-41 -22,-71 -70,-71zm-38 34l38 0c26,0 35,14 35,37l0 23c0,23 -9,34 -35,34l-38 0 0 -94z"/>
   <path class="fil3 str5" d="M2824 7222l109 189c5,8 13,13 24,6 11,-6 11,-16 7,-24l-118 -204c-5,-8 -14,-12 -24,-6l-111 64c-11,6 -11,16 -7,24l118 204c5,8 14,12 24,6 11,-6 11,-16 7,-24l-109 -189 80 -46zm127 -29c-12,-20 -12,-41 11,-55l26 -15c23,-13 41,-2 53,18l61 106c12,20 12,41 -11,55l-26 15c-23,13 -41,2 -53,-18l-61 -106zm121 -70c-21,-36 -59,-54 -101,-30l-26 15c-42,24 -46,66 -25,102l61 106c21,36 59,54 101,30l26 -15c42,-24 46,-66 25,-102l-61 -106zm158 78c-9,-20 -73,-171 -73,-171l58 -33 109 189c5,8 13,13 25,6 11,-6 11,-16 6,-24l-118 -204c-5,-8 -13,-13 -24,-6l-86 50c-10,6 -11,15 -7,24 5,10 70,165 76,178 3,8 5,14 5,18 0,8 -4,13 -14,19 -8,5 -12,14 -6,24 6,11 16,11 24,6 29,-17 35,-33 32,-53 -1,-8 -3,-14 -7,-23zm176 -358c-12,3 -15,13 -13,22 0,0 20,72 36,131 -2,1 -13,7 -24,14 -12,7 -22,3 -28,-3 -14,-14 -84,-85 -84,-85 -6,-6 -16,-9 -25,0 -9,9 -7,19 -1,25 0,0 62,63 80,81 19,20 39,30 78,7 5,-3 10,-6 10,-6l1 -1c6,23 9,40 9,43 2,13 -8,24 -17,29l-13 7c-9,5 -12,14 -6,24 6,11 16,12 24,7l13 -7c22,-13 38,-31 35,-64 -2,-15 -2,-18 -7,-35 -4,-17 -47,-177 -47,-177 -2,-9 -9,-16 -22,-12zm180 77l42 -24 50 86c5,8 13,13 24,6 11,-6 11,-16 7,-24l-120 -207c-5,-8 -14,-12 -24,-6 -11,6 -11,16 -7,24l53 91c0,0 -33,19 -47,27 -19,11 -37,4 -46,-11 -8,-14 -36,-63 -36,-63 -5,-8 -13,-13 -24,-6 -11,6 -11,16 -7,24l34 60c20,35 51,53 101,24zm299 -42c8,-4 12,-13 6,-23 -6,-10 -16,-11 -23,-6l-90 52 -43 -74 75 -43c8,-4 12,-13 6,-23 -6,-10 -16,-11 -23,-6l-75 43 -39 -68 90 -52c8,-4 12,-13 6,-23 -6,-10 -15,-11 -23,-6l-106 61c-11,6 -11,16 -6,24l116 201c5,8 13,13 24,6l106 -61zm72 -334c-5,-8 -14,-12 -24,-6 -11,6 -11,16 -7,24l47 82 -87 50 -47 -82c-5,-8 -13,-13 -24,-6 -11,6 -11,16 -7,24l120 207c5,8 14,12 24,6 11,-6 11,-16 7,-24l-55 -95 87 -50 55 95c5,8 13,13 24,6 11,-6 11,-16 7,-24l-120 -207zm106 7c-12,-20 -12,-41 11,-55l26 -15c23,-13 41,-2 53,18l61 106c12,20 12,41 -11,55l-26 15c-23,13 -41,2 -53,-18l-61 -106zm121 -70c-21,-36 -59,-54 -101,-30l-26 15c-42,24 -46,66 -25,102l61 106c21,36 59,54 101,30l26 -15c42,-24 46,-66 25,-102l-61 -106z"/>
   <path class="fil3 str5" d="M5223 6520l-6 4 -107 -186c-5,-8 -13,-13 -24,-6l-80 46c-11,6 -11,16 -8,25l78 203 -10 6c-11,6 -11,16 -6,24l25 43c5,8 13,13 24,6 11,-6 12,-16 7,-24l-16 -28 126 -73 16 28c5,8 13,13 25,6 11,-6 11,-16 6,-24l-25 -43c-5,-8 -13,-13 -24,-6zm-126 43l-63 -162 53 -30 99 172 -81 46c-2,-10 -5,-17 -9,-25zm122 -225c-12,-20 -12,-41 11,-55l26 -15c23,-13 41,-2 53,18l61 106c12,20 12,41 -11,55l-26 15c-23,13 -41,2 -53,-18l-61 -106zm121 -70c-21,-36 -59,-54 -101,-30l-26 15c-42,24 -46,66 -25,102l61 106c21,36 59,54 101,30l26 -15c42,-24 46,-66 25,-102l-61 -106zm187 81c-23,13 -41,2 -53,-18l-61 -106c-12,-20 -12,-41 11,-55l34 -19c14,-8 25,-7 34,6 5,8 13,13 24,6 11,-6 12,-16 7,-24 -20,-34 -49,-37 -83,-18l-34 19c-42,24 -46,66 -25,102l61 106c21,36 59,54 101,30l34 -19c34,-19 46,-46 26,-80 -5,-8 -13,-13 -25,-6 -11,6 -10,16 -6,24 7,15 2,25 -12,33l-34 19zm103 -183l-47 -82 51 -30c23,-13 39,-7 50,13l10 17c12,20 10,40 -13,53l-51 30zm69 0c43,-25 47,-64 26,-101l-10 -17c-21,-37 -56,-49 -98,-24l-67 39c-11,6 -11,16 -6,24l118 204c5,8 13,13 24,6 11,-6 11,-16 7,-24l-45 -78 51 -30zm85 -154c-12,-20 -12,-41 11,-55l26 -15c23,-13 41,-2 53,18l61 106c12,20 12,41 -11,55l-26 15c-23,13 -41,2 -53,-18l-61 -106zm121 -70c-21,-36 -59,-54 -101,-30l-26 15c-42,24 -46,66 -25,102l61 106c21,36 59,54 101,30l26 -15c42,-24 46,-66 25,-102l-61 -106zm147 9l42 -24 50 86c5,8 13,13 24,6 11,-6 11,-16 7,-24l-120 -207c-5,-8 -14,-12 -24,-6 -11,6 -11,16 -7,24l53 91c0,0 -33,19 -47,27 -19,11 -37,4 -46,-11 -8,-14 -36,-63 -36,-63 -5,-8 -13,-13 -24,-6 -11,6 -11,16 -7,24l34 60c20,35 51,53 101,24zm200 -277c-5,-8 -14,-12 -24,-6 -11,6 -11,16 -7,24l47 82 -87 50 -47 -82c-5,-8 -13,-13 -24,-6 -11,6 -11,16 -7,24l120 207c5,8 14,12 24,6 11,-6 11,-16 7,-24l-55 -95 87 -50 55 95c5,8 13,13 24,6 11,-6 11,-16 7,-24l-120 -207zm106 7c-12,-20 -12,-41 11,-55l26 -15c23,-13 41,-2 53,18l61 106c12,20 12,41 -11,55l-26 15c-23,13 -41,2 -53,-18l-61 -106zm121 -70c-21,-36 -59,-54 -101,-30l-26 15c-42,24 -46,66 -25,102l61 106c21,36 59,54 101,30l26 -15c42,-24 46,-66 25,-102l-61 -106zm-1096 1302c9,-15 11,-30 0,-48l-2 -4c-17,-29 -43,-30 -76,-11l-52 30c-11,6 -11,15 -7,23l82 143c5,8 13,12 24,6l60 -35c30,-18 44,-42 25,-74l-5 -9c-12,-20 -28,-26 -50,-21zm-99 -13l32 -18c21,-12 33,-10 40,2l2 3c7,12 2,24 -12,32l-38 22 -24 -41zm122 56c9,15 4,27 -10,35l-45 26 -28 -49 40 -23c17,-10 32,-8 41,7l2 4zm238 -67c11,-6 11,-16 7,-24l-109 -189 48 -28c8,-4 12,-13 6,-23 -6,-10 -16,-11 -23,-6l-127 74c-8,4 -12,13 -6,23 6,11 16,11 23,6l48 -28 109 189c5,8 13,13 24,6zm216 -145c5,8 13,13 24,7 11,-6 11,-16 7,-24l-120 -207c-5,-8 -13,-13 -25,-6 -6,4 -9,8 -9,20l3 208 0 0c-3,-6 -7,-15 -12,-24l-75 -130c-5,-8 -13,-13 -24,-7 -11,6 -11,16 -7,24l120 207c5,8 13,13 25,6 6,-4 9,-8 9,-20l-3 -208 0 0c3,6 7,15 12,24l75 130zm221 -140l-129 -60 17 -126c2,-11 -3,-19 -13,-21 -12,-3 -20,6 -21,17l-15 134 -20 11 -49 -85c-5,-8 -13,-13 -24,-6 -11,6 -12,16 -7,24l120 207c5,8 13,13 25,6 11,-6 11,-16 6,-24l-53 -92 20 -12 129 60c8,4 18,3 24,-8 5,-12 0,-20 -9,-24zm82 -192c-28,-48 -41,-102 -21,-139 4,-8 5,-18 -5,-23 -10,-5 -17,1 -22,9 -30,53 -12,116 19,170l22 39c31,54 77,101 137,102 9,0 18,-3 19,-14 1,-12 -9,-16 -17,-16 -41,-1 -81,-40 -109,-88l-22 -39zm264 4c5,8 13,13 24,7 11,-6 11,-16 7,-24l-120 -207c-5,-8 -13,-13 -25,-6 -6,4 -9,8 -9,20l3 208 0 0c-3,-6 -7,-15 -12,-24l-75 -130c-5,-8 -13,-13 -24,-7 -11,6 -11,16 -7,24l120 207c5,8 13,13 25,6 6,-4 9,-8 9,-20l-3 -208 0 0c3,6 7,15 12,24l75 130zm221 -140l-129 -60 17 -126c2,-11 -3,-19 -13,-21 -12,-3 -20,6 -21,17l-15 134 -20 11 -49 -85c-5,-8 -13,-13 -24,-6 -11,6 -12,16 -7,24l120 207c5,8 13,13 25,6 11,-6 11,-16 6,-24l-53 -92 20 -12 129 60c8,4 18,3 24,-8 5,-12 0,-20 -9,-24zm80 -156c-6,-5 -12,-10 -19,-14l-110 -72c-10,-7 -15,-6 -22,-2 -11,6 -11,16 -6,24l120 207c5,8 13,13 24,6 11,-6 11,-16 6,-24l-74 -127c-5,-9 -10,-16 -14,-22l0 0 100 65c5,3 10,5 18,0 8,-5 9,-10 9,-16l-6 -119 0 0c3,6 7,15 12,24l74 127c5,8 13,13 24,6 11,-6 11,-16 6,-24l-120 -207c-5,-8 -13,-13 -24,-6 -7,4 -10,8 -9,20l7 131c0,8 1,16 3,23zm129 -161c-12,-20 -12,-41 11,-55l26 -15c23,-13 41,-2 53,18l61 106c12,20 12,41 -11,55l-26 15c-23,13 -41,2 -53,-18l-61 -106zm121 -70c-21,-36 -59,-54 -101,-30l-26 15c-42,24 -46,66 -25,102l61 106c21,36 59,54 101,30l26 -15c42,-24 46,-66 25,-102l-61 -106zm119 34c28,48 41,102 21,139 -4,8 -5,18 5,23 10,5 17,-1 22,-9 30,-53 12,-116 -19,-170l-22 -39c-31,-54 -77,-101 -137,-102 -9,0 -18,3 -19,14 -1,12 9,16 17,16 41,1 81,40 109,88l22 39zm-1492 1316c-5,3 -8,8 -8,17l-17 162c-3,-9 -6,-14 -11,-22 -7,-12 -50,-87 -50,-87 -5,-8 -13,-13 -23,-7 -10,6 -10,15 -5,23l85 148c5,8 12,13 22,8 7,-4 8,-11 9,-17l17 -162c3,9 6,14 11,22 7,12 50,87 50,87 5,8 13,13 22,7 11,-6 10,-16 6,-24l-85 -148c-5,-8 -12,-13 -22,-7zm237 -215c-12,3 -15,13 -13,22 0,0 20,72 36,131 -2,1 -13,7 -24,14 -12,7 -22,3 -28,-3 -14,-14 -84,-85 -84,-85 -6,-6 -16,-9 -25,0 -9,9 -7,19 -1,25 0,0 62,63 80,81 19,20 39,30 78,7 5,-3 10,-6 10,-6l1 -1c6,23 9,40 9,43 2,13 -8,24 -17,29l-13 7c-9,5 -12,14 -6,24 6,11 16,12 24,7l13 -7c22,-13 38,-31 35,-64 -2,-15 -2,-18 -7,-35 -4,-17 -47,-177 -47,-177 -2,-9 -9,-16 -22,-12zm288 130c5,8 13,13 24,7 11,-6 11,-16 7,-24l-120 -207c-5,-8 -13,-13 -25,-6 -6,4 -9,8 -9,20l3 208 0 0c-3,-6 -7,-15 -12,-24l-75 -130c-5,-8 -13,-13 -24,-7 -11,6 -11,16 -7,24l120 207c5,8 13,13 25,6 6,-4 9,-8 9,-20l-3 -208 0 0c3,6 7,15 12,24l75 130zm221 -140l-129 -60 17 -126c2,-11 -3,-19 -13,-21 -12,-3 -20,6 -21,17l-15 134 -20 11 -49 -85c-5,-8 -13,-13 -24,-6 -11,6 -12,16 -7,24l120 207c5,8 13,13 25,6 11,-6 11,-16 6,-24l-53 -92 20 -12 129 60c8,4 18,3 24,-8 5,-12 0,-20 -9,-24z"/>
   <path class="fil3 str5" d="M8136 6949l-6 4 -107 -186c-5,-8 -13,-13 -24,-6l-80 46c-11,6 -11,16 -8,25l78 203 -10 6c-11,6 -11,16 -6,24l25 43c5,8 13,13 24,6 11,-6 12,-16 7,-24l-16 -28 126 -73 16 28c5,8 13,13 25,6 11,-6 11,-16 6,-24l-25 -43c-5,-8 -13,-13 -24,-6zm-126 43l-63 -162 53 -30 99 172 -81 46c-2,-10 -5,-17 -9,-25zm122 -225c-12,-20 -12,-41 11,-55l26 -15c23,-13 41,-2 53,18l61 106c12,20 12,41 -11,55l-26 15c-23,13 -41,2 -53,-18l-61 -106zm121 -70c-21,-36 -59,-54 -101,-30l-26 15c-42,24 -46,66 -25,102l61 106c21,36 59,54 101,30l26 -15c42,-24 46,-66 25,-102l-61 -106zm187 81c-23,13 -41,2 -53,-18l-61 -106c-12,-20 -12,-41 11,-55l34 -19c14,-8 25,-7 34,6 5,8 13,13 24,6 11,-6 12,-16 7,-24 -20,-34 -49,-37 -82,-18l-34 19c-42,24 -46,66 -25,102l61 106c21,36 59,54 101,30l34 -19c34,-19 46,-46 26,-80 -5,-8 -13,-13 -25,-6 -11,6 -10,16 -6,24 7,15 2,25 -12,33l-34 19zm103 -183l-47 -82 51 -30c23,-13 39,-7 50,13l10 16c12,20 10,40 -13,53l-51 30zm69 0c43,-25 47,-64 26,-101l-10 -16c-21,-37 -56,-49 -98,-24l-67 39c-11,6 -11,16 -6,24l118 204c5,8 13,13 24,6 11,-6 11,-16 7,-24l-45 -78 51 -30zm85 -154c-12,-20 -12,-41 11,-55l26 -15c23,-13 41,-2 53,18l61 106c12,20 12,41 -11,55l-26 15c-23,13 -41,2 -53,-18l-61 -106zm121 -70c-21,-36 -59,-54 -101,-30l-26 15c-42,24 -46,66 -25,102l61 106c21,36 59,54 101,30l26 -15c42,-24 46,-66 25,-102l-61 -106zm147 9l42 -24 50 86c5,8 13,13 24,6 11,-6 11,-16 7,-24l-120 -207c-5,-8 -14,-12 -24,-6 -11,6 -11,16 -7,24l53 91c0,0 -33,19 -47,27 -19,11 -37,4 -46,-11 -8,-14 -36,-63 -36,-63 -5,-8 -13,-13 -24,-6 -11,6 -11,16 -7,24l34 60c20,35 51,53 101,24zm200 -277c-5,-8 -14,-12 -24,-6 -11,6 -11,16 -7,24l47 82 -87 50 -47 -82c-5,-8 -13,-13 -24,-6 -11,6 -11,16 -7,24l120 207c5,8 14,12 24,6 11,-6 11,-16 7,-24l-55 -95 87 -50 55 95c5,8 13,13 24,6 11,-6 11,-16 7,-24l-120 -207zm106 7c-12,-20 -12,-41 11,-55l26 -15c23,-13 41,-2 53,18l61 106c12,20 12,41 -11,55l-26 15c-23,13 -41,2 -53,-18l-61 -106zm121 -70c-21,-36 -59,-54 -101,-30l-26 15c-42,24 -46,66 -25,102l61 106c21,36 59,54 101,30l26 -15c42,-24 46,-66 25,-102l-61 -106zm-1096 1302c9,-15 11,-30 0,-48l-2 -4c-17,-29 -43,-30 -76,-11l-52 30c-11,6 -11,15 -7,23l82 143c5,8 13,12 24,6l60 -35c30,-18 44,-42 25,-74l-5 -9c-12,-20 -28,-26 -50,-21zm-99 -13l32 -18c21,-12 33,-10 40,2l2 3c7,12 2,24 -12,32l-38 22 -24 -41zm122 56c9,15 4,27 -10,35l-45 26 -28 -49 40 -23c17,-10 32,-8 41,7l2 4zm238 -67c11,-6 11,-16 7,-24l-109 -189 48 -28c8,-4 12,-13 6,-23 -6,-10 -16,-11 -23,-6l-127 74c-8,4 -12,13 -6,23 6,11 16,11 23,6l48 -28 109 189c5,8 13,13 24,6zm216 -145c5,8 13,13 24,7 11,-6 11,-16 7,-24l-120 -207c-5,-8 -13,-13 -25,-6 -6,4 -9,8 -9,20l3 208 0 0c-3,-6 -7,-15 -12,-24l-75 -130c-5,-8 -13,-13 -24,-7 -11,6 -11,16 -7,24l120 207c5,8 13,13 25,6 6,-4 9,-8 9,-20l-3 -208 0 0c3,6 7,15 12,24l75 130zm221 -140l-129 -60 17 -126c2,-11 -3,-19 -13,-21 -12,-3 -20,6 -21,17l-15 134 -20 11 -49 -85c-5,-8 -13,-13 -24,-6 -11,6 -12,16 -7,24l120 207c5,8 13,13 25,6 11,-6 11,-16 6,-24l-53 -92 20 -12 129 60c8,4 18,3 24,-8 5,-12 0,-20 -9,-24zm82 -192c-28,-48 -41,-102 -21,-139 4,-8 5,-18 -5,-23 -10,-5 -17,1 -22,9 -30,53 -12,116 19,170l22 39c31,54 77,101 137,102 9,0 18,-4 19,-14 1,-12 -9,-16 -17,-16 -41,-1 -81,-40 -109,-88l-22 -39zm264 4c5,8 13,13 24,7 11,-6 11,-16 7,-24l-120 -207c-5,-8 -13,-13 -25,-6 -6,4 -9,8 -9,20l3 208 0 0c-3,-6 -7,-15 -12,-24l-75 -130c-5,-8 -13,-13 -24,-7 -11,6 -11,16 -7,24l120 207c5,8 13,13 25,6 6,-4 9,-8 9,-20l-3 -208 0 0c3,6 7,15 12,24l75 130zm221 -140l-129 -60 17 -126c2,-11 -3,-19 -13,-21 -12,-3 -20,6 -21,17l-15 134 -20 11 -49 -85c-5,-8 -13,-13 -24,-6 -11,6 -12,16 -7,24l120 207c5,8 13,13 25,6 11,-6 11,-16 6,-24l-53 -92 20 -12 129 60c8,4 18,3 24,-8 5,-12 0,-20 -9,-24zm80 -156c-6,-5 -12,-10 -19,-14l-110 -72c-10,-7 -15,-6 -22,-2 -11,6 -11,16 -6,24l120 207c5,8 13,13 24,6 11,-6 11,-16 6,-24l-74 -127c-5,-9 -10,-16 -14,-22l0 0 100 65c5,3 10,5 18,0 8,-5 9,-10 9,-16l-6 -119 0 0c3,6 7,15 12,24l74 127c5,8 13,13 24,6 11,-6 11,-16 6,-24l-120 -207c-5,-8 -13,-13 -24,-6 -7,4 -10,8 -9,20l7 131c0,8 1,16 3,23zm129 -161c-12,-20 -12,-41 11,-55l26 -15c23,-13 41,-2 53,18l61 106c12,20 12,41 -11,55l-26 15c-23,13 -41,2 -53,-18l-61 -106zm121 -70c-21,-36 -59,-54 -101,-30l-26 15c-42,24 -46,66 -25,102l61 106c21,36 59,54 101,30l26 -15c42,-24 46,-66 25,-102l-61 -106zm119 34c28,48 41,102 21,139 -4,8 -5,18 5,23 10,5 17,-1 22,-9 30,-53 12,-116 -19,-170l-22 -39c-31,-54 -77,-101 -137,-102 -9,0 -18,3 -19,14 -1,12 9,16 17,16 41,1 81,40 109,88l22 39z"/>
   <path class="fil3 str5" d="M10909 6942l54 -31c23,-13 40,-3 52,17l4 7c11,20 9,36 -14,49l-54 31 -42 -73zm-17 -29l-40 -69 40 -23c22,-13 36,-10 48,9l5 8c11,20 10,39 -12,52l-40 23zm154 -3c-16,-27 -39,-39 -68,-33 9,-17 9,-36 -3,-57l-5 -8c-21,-37 -54,-45 -96,-21l-55 32c-11,6 -12,16 -7,24l116 201c5,8 13,13 25,6l69 -40c42,-24 49,-60 28,-97l-4 -7z"/>
   <path class="fil3 str5" d="M11198 6644l109 189c5,8 13,13 24,6 11,-6 11,-16 7,-24l-118 -204c-5,-8 -14,-12 -24,-6l-111 64c-11,6 -11,16 -7,24l118 204c5,8 14,12 24,6 11,-6 11,-16 7,-24l-109 -189 80 -46zm128 -30c-12,-20 -12,-41 11,-55l26 -15c23,-13 41,-2 53,18l61 106c12,20 12,41 -11,55l-26 15c-23,13 -41,2 -53,-18l-61 -106zm121 -70c-21,-36 -59,-54 -101,-30l-26 15c-42,24 -46,66 -25,102l61 106c21,36 59,54 101,30l26 -15c42,-24 46,-66 25,-102l-61 -106zm175 -14c-6,-5 -12,-10 -19,-14l-110 -72c-10,-7 -15,-6 -22,-2 -11,6 -11,16 -6,24l120 207c5,8 13,13 24,6 11,-6 11,-16 6,-24l-74 -127c-5,-9 -10,-16 -14,-22l0 0 100 65c5,3 10,5 18,0 8,-5 9,-10 9,-16l-6 -119 0 0c3,6 7,15 12,24l74 127c5,8 13,13 24,6 11,-6 11,-16 6,-24l-120 -207c-5,-8 -13,-13 -24,-6 -7,4 -10,8 -9,20l7 131c0,8 1,16 3,23zm321 -48c8,-4 12,-13 6,-23 -6,-10 -16,-11 -23,-6l-90 52 -43 -74 75 -43c8,-4 12,-13 6,-23 -6,-10 -16,-11 -23,-6l-75 43 -39 -68 90 -52c8,-4 12,-13 6,-23 -6,-10 -16,-11 -23,-6l-106 61c-11,6 -11,16 -6,24l116 201c5,8 13,13 24,6l106 -61zm223 -129c6,-3 12,-8 17,-11l0 43c0,4 1,7 3,10 3,6 14,12 25,6 6,-3 8,-10 8,-16l0 -73c0,-3 -1,-6 -3,-8 -6,-11 -15,-11 -23,-6l-14 8 -109 -189c-5,-8 -13,-13 -24,-6 -11,6 -12,16 -7,24l109 189 -55 32 -109 -189c-5,-8 -14,-12 -24,-6 -9,5 -10,16 -5,23l109 189 -55 32 -109 -189c-5,-8 -13,-13 -25,-6 -11,6 -11,16 -6,24l118 204c5,8 13,13 24,6l156 -90zm212 -122c8,-4 12,-13 6,-23 -6,-10 -15,-11 -23,-6l-90 52 -43 -74 75 -43c8,-4 12,-13 6,-23 -6,-10 -16,-11 -23,-6l-75 43 -39 -68 90 -52c8,-4 12,-13 6,-23 -6,-10 -16,-11 -23,-6l-106 61c-11,6 -11,16 -6,24l116 201c5,8 13,13 24,6l106 -61zm74 -335c-5,-8 -14,-12 -24,-6 -11,6 -11,16 -7,24l47 82 -87 50 -47 -82c-5,-8 -13,-13 -24,-6 -11,6 -11,16 -7,24l120 207c5,8 14,12 24,6 11,-6 11,-16 7,-24l-55 -95 87 -50 55 95c5,8 13,13 24,6 11,-6 11,-16 7,-24l-120 -207zm288 110c5,8 13,13 24,7 11,-6 11,-16 7,-24l-120 -207c-5,-8 -13,-13 -25,-6 -6,4 -9,8 -9,20l3 208 0 0c-3,-6 -7,-15 -12,-24l-75 -130c-5,-8 -13,-13 -24,-7 -11,6 -11,16 -7,24l120 207c5,8 13,13 25,6 6,-4 9,-8 9,-20l-3 -208 0 0c3,6 7,15 12,24l75 130zm199 -115c5,8 13,13 24,7 11,-6 11,-16 7,-24l-120 -207c-5,-8 -13,-13 -25,-6 -6,4 -9,8 -9,20l3 208 0 0c-3,-6 -7,-15 -12,-24l-75 -130c-5,-8 -13,-13 -24,-7 -11,6 -11,16 -7,24l120 207c5,8 13,13 25,6 6,-4 9,-8 9,-20l-3 -208 0 0c3,6 7,15 12,24l75 130z"/>
   <path class="fil3 str5" d="M11187 7234c-17,-30 -50,-43 -83,-24l-45 26c-8,5 -12,13 -7,23 6,10 15,10 23,6l43 -25c13,-7 28,-6 37,10l10 18 -41 23c-43,25 -47,68 -27,104l24 42c21,37 57,52 97,28l14 -8c39,-22 47,-59 24,-98l-72 -124zm42 141c12,20 12,40 -11,53l-14 8c-19,11 -38,6 -51,-17l-23 -40c-13,-22 -11,-46 13,-60l41 -23c0,0 41,72 46,80zm111 -213l-73 42c-10,6 -12,15 -8,25l49 121c5,11 2,25 -8,31 -7,4 -10,13 -5,22 5,9 14,11 23,6 24,-14 35,-35 21,-68l-47 -113 49 -28 76 131c5,8 13,13 24,7 11,-6 11,-15 6,-24l-83 -144c-5,-8 -13,-13 -24,-6zm157 -90l-62 36c-30,18 -38,50 -21,79l3 5c14,24 36,33 60,29l-3 69c0,8 6,15 17,15 12,0 17,-8 17,-17l0 -80 36 -21 30 52c5,8 13,13 23,7 11,-6 11,-16 6,-24l-84 -145c-5,-8 -13,-12 -24,-6zm32 89l-40 23c-20,12 -35,4 -43,-10l-2 -4c-7,-12 -5,-27 11,-36l44 -25 31 54 -1 -2zm186 -215l-74 43c-11,6 -11,16 -6,24l83 145c5,8 13,13 23,7 11,-6 11,-16 6,-24l-76 -131 60 -34c8,-4 12,-13 6,-23 -6,-11 -15,-10 -23,-5zm167 99c-22,13 -39,3 -51,-17l-30 -51c-12,-20 -11,-40 11,-53l14 -8c22,-13 39,-3 51,17l30 51c12,20 11,40 -11,53l-14 8zm30 20c41,-24 45,-62 24,-98l-30 -51c-21,-36 -56,-52 -97,-28l-14 8c-41,24 -45,62 -24,98l30 51c21,36 56,52 97,28l14 -8zm106 -294l-73 42c-10,6 -12,15 -8,25l49 121c5,11 2,25 -8,31 -7,4 -10,13 -5,22 5,9 14,11 23,6 24,-14 35,-35 21,-68l-47 -113 49 -28 76 131c5,8 13,13 24,7 11,-6 11,-15 6,-24l-83 -144c-5,-8 -13,-13 -24,-6zm192 84c-22,13 -39,3 -51,-17l-30 -51c-12,-20 -11,-40 11,-53l14 -8c22,-13 39,-3 51,17l30 51c12,20 11,40 -11,53l-14 8zm30 20c41,-24 45,-62 24,-98l-30 -51c-21,-36 -56,-52 -97,-28l-14 8c-41,24 -45,62 -24,98l30 51c21,36 56,52 97,28l14 -8zm132 -114c-22,13 -41,4 -53,-18l-31 -53c-11,-19 -9,-37 13,-50l16 -9c14,-8 26,-7 32,3 5,9 13,13 24,7 11,-6 11,-15 6,-24 -18,-30 -46,-33 -78,-14l-16 9c-41,24 -47,59 -26,95l31 53c22,37 58,53 100,29l15 -9c32,-19 44,-44 27,-75 -5,-9 -13,-13 -24,-7 -11,6 -11,15 -6,24 6,10 0,22 -13,29l-15 9zm150 -86c-22,13 -39,3 -51,-17l-30 -51c-12,-20 -11,-40 11,-53l14 -8c22,-13 39,-3 51,17l30 51c12,20 11,40 -11,53l-14 8zm30 20c41,-24 45,-62 24,-98l-30 -51c-21,-36 -56,-52 -97,-28l-14 8c-41,24 -45,62 -24,98l30 51c21,36 56,52 97,28l14 -8zm134 -203c9,-15 11,-30 0,-48l-2 -4c-17,-29 -43,-30 -76,-11l-52 30c-11,6 -11,15 -7,23l82 143c5,8 13,12 24,6l60 -35c30,-18 44,-42 25,-74l-5 -9c-12,-20 -28,-26 -50,-21zm-99 -13l32 -18c21,-12 33,-10 40,2l2 3c7,12 2,24 -12,32l-38 22 -24 -41zm122 56c9,15 4,27 -10,35l-45 26 -28 -49 40 -23c17,-10 32,-8 41,7l2 4zm10 -169c-8,5 -13,13 -7,22 6,10 15,10 23,5l43 -25c14,-8 27,-6 37,10l4 6 -46 27c-30,18 -42,43 -24,73l15 25c18,30 45,33 76,16l61 -35c11,-6 11,-16 6,-24l-61 -106c-17,-30 -49,-39 -82,-20l-43 25zm103 133c-14,8 -24,5 -30,-5l-14 -25c-6,-11 -3,-21 10,-29l46 -27 34 59 -46 27zm145 -280c-11,6 -11,16 -6,24l32 55 -77 45 -32 -55c-5,-8 -13,-13 -23,-7 -11,6 -11,16 -6,24l85 148c5,8 13,13 23,7 11,-6 11,-16 6,-24l-38 -65 77 -45 38 65c5,8 13,13 23,7 11,-6 11,-16 6,-24l-85 -148c-5,-8 -13,-13 -23,-7zm171 -99c-5,3 -8,8 -8,17l-17 162c-3,-9 -6,-14 -11,-22 -7,-12 -50,-87 -50,-87 -5,-8 -13,-13 -23,-7 -10,6 -10,15 -5,23l85 148c5,8 12,13 22,8 7,-4 8,-11 9,-17l17 -162c3,9 6,14 11,22 7,12 50,87 50,87 5,8 13,13 22,7 11,-6 10,-16 6,-24l-85 -148c-5,-8 -12,-13 -22,-7zm155 -85l-62 36c-30,18 -38,50 -21,79l3 5c14,24 36,33 60,29l-3 69c0,8 6,15 17,15 12,0 17,-8 17,-17l0 -80 36 -21 30 52c5,8 13,13 23,7 11,-6 11,-16 6,-24l-84 -145c-5,-8 -13,-12 -24,-6zm32 89l-40 23c-20,12 -35,4 -43,-10l-2 -4c-7,-12 -5,-27 11,-36l44 -25 31 54 -1 -2z"/>
   <path class="fil3 str5" d="M16934 7222l109 189c5,8 13,13 24,6 11,-6 11,-16 7,-24l-118 -204c-5,-8 -14,-12 -24,-6l-111 64c-11,6 -11,16 -7,24l118 204c5,8 14,12 24,6 11,-6 11,-16 7,-24l-109 -189 80 -46zm127 -29c-12,-20 -12,-41 11,-55l26 -15c23,-13 41,-2 53,18l61 106c12,20 12,41 -11,55l-26 15c-23,13 -41,2 -53,-18l-61 -106zm121 -70c-21,-36 -59,-54 -101,-30l-26 15c-42,24 -46,66 -25,102l61 106c21,36 59,54 101,30l26 -15c42,-24 46,-66 25,-102l-61 -106zm26 -99c-12,7 -13,17 -8,25l118 204c5,8 14,12 24,6 11,-6 11,-16 7,-24l-109 -189 88 -51c8,-4 12,-13 6,-23 -6,-10 -16,-11 -21,-7l-104 60zm313 41l52 47c7,6 17,7 25,-1 7,-8 6,-18 -1,-24l-186 -168c-7,-6 -13,-8 -22,-2l-2 1c-9,5 -11,12 -9,20l53 245c2,9 10,15 20,13 11,-2 16,-11 14,-21l-15 -68 72 -41zm-98 -76c-2,-9 -3,-13 -6,-22l0 0c6,7 9,10 16,16l64 59 -55 32 -19 -85zm263 -245c-11,6 -12,16 -7,24l109 189 -55 32 -109 -189c-5,-8 -14,-12 -24,-6 -9,5 -10,16 -5,23l109 189 -55 32 -109 -189c-5,-8 -13,-13 -25,-6 -11,6 -11,16 -6,24l118 204c5,8 13,13 24,6l171 -99c11,-6 11,-16 6,-24l-118 -204c-5,-8 -13,-13 -24,-6zm321 127c8,-4 12,-13 6,-23 -6,-10 -16,-11 -23,-6l-90 52 -43 -74 75 -43c8,-4 12,-13 6,-23 -6,-10 -16,-11 -23,-6l-75 43 -39 -68 90 -52c8,-4 12,-13 6,-23 -6,-10 -16,-11 -23,-6l-106 61c-11,6 -11,16 -6,24l116 201c5,8 13,13 24,6l106 -61zm72 -334c-5,-8 -14,-12 -24,-6 -11,6 -11,16 -7,24l47 82 -87 50 -47 -82c-5,-8 -13,-13 -24,-6 -11,6 -11,16 -7,24l120 207c5,8 14,12 24,6 11,-6 11,-16 7,-24l-55 -95 87 -50 55 95c5,8 13,13 24,6 11,-6 11,-16 7,-24l-120 -207zm106 7c-12,-20 -12,-41 11,-55l26 -15c23,-13 41,-2 53,18l61 106c12,20 12,41 -11,55l-26 15c-23,13 -41,2 -53,-18l-61 -106zm121 -70c-21,-36 -59,-54 -101,-30l-26 15c-42,24 -46,66 -25,102l61 106c21,36 59,54 101,30l26 -15c42,-24 46,-66 25,-102l-61 -106z"/>
   <polygon class="fil1 str0" points="15967,11680 18060,11680 18060,8539 15967,8539 "/>
   <polygon class="fil1 str0" points="13150,11680 15243,11680 15243,8539 13150,8539 "/>
   <path class="fil2 str1" d="M15485 11460c0,-1047 0,-2093 0,-3140 -698,0 -1396,0 -2093,0"/>
   <path class="fil3 str2" d="M16801 10193c0,-45 -19,-80 -59,-93 26,-15 40,-39 40,-74l0 -7c0,-63 -35,-97 -106,-97l-29 0c-56,0 -91,24 -91,82 0,14 7,26 26,26 19,0 26,-11 26,-26 0,-23 16,-33 40,-33l29 0c39,0 55,15 55,48l0 7c0,34 -20,59 -59,59l-31 0c-14,0 -24,7 -24,24 0,17 11,24 24,24l56 0c39,0 53,25 53,60l0 18c0,34 -16,54 -55,54l-58 0c-24,0 -40,-10 -40,-33 0,-14 -7,-26 -26,-26 -19,0 -26,11 -26,26 0,58 35,82 91,82l58 0c71,0 106,-40 106,-103l0 -18zm109 23c0,-25 9,-45 27,-53l100 -45c49,-22 60,-60 60,-97l0 -2c0,-63 -35,-97 -106,-97l-33 0c-56,0 -91,24 -91,82 0,14 7,26 26,26 19,0 26,-11 26,-26 0,-23 16,-33 40,-33l33 0c39,0 55,15 55,48l0 2c0,26 -8,41 -30,51l-93 41c-44,19 -64,60 -64,107l0 87 219 0c14,0 24,-7 24,-24 0,-17 -11,-24 -24,-24l-168 0 0 -43zm321 72c0,14 7,26 26,26 19,0 26,-11 26,-26l0 -46c0,-77 15,-124 53,-186l57 -91c14,-22 4,-38 -21,-38l-203 0c-14,0 -24,7 -24,24 0,17 11,24 24,24l160 0 -35 53c-49,75 -63,125 -63,212l0 46z"/>
   <path class="fil4 str3" d="M17005 10557c-16,0 -22,11 -22,23l0 195 -74 0 0 -195c0,-12 -6,-23 -22,-23 -16,0 -22,11 -22,23l0 195 -74 0 0 -195c0,-12 -6,-23 -22,-23 -16,0 -22,11 -22,23l0 214c0,12 6,23 22,23l237 0c16,0 22,-10 22,-23l0 -214c0,-12 -6,-23 -22,-23zm254 5l-162 0c-11,0 -22,5 -22,21 0,15 10,22 22,22l59 0 0 195c0,12 6,23 22,23 16,0 22,-11 22,-23l0 -195 59 0c11,0 22,-6 22,-22 0,-16 -10,-21 -22,-21z"/>
   <polyline class="fil5 str1" points="18543,11241 18543,8101 16449,8101 "/>
   <path class="fil5 str1" d="M18302 11460c0,-1047 0,-2093 0,-3140 -698,0 -1396,0 -2093,0"/>
   <path class="fil5 str4" d="M16551 10907c-164,-134 -269,-338 -269,-567 0,-228 105,-432 269,-567m926 0c164,134 269,338 269,567 0,228 -105,432 -269,567"/>
   <path class="fil3 str2" d="M14070 10288c0,14 7,26 25,26 19,0 25,-11 25,-26l0 -88 28 0c14,0 24,-7 24,-24 0,-17 -11,-24 -24,-24l-28 0 0 -106c0,-14 -7,-26 -25,-26 -19,0 -25,11 -25,26l0 106 -118 0c27,-62 50,-139 62,-206 2,-13 1,-27 -16,-32 -16,-4 -28,4 -31,18 -16,87 -42,161 -70,226 -3,8 -3,13 -3,19 0,17 11,24 24,24l153 0 0 88zm184 -230c0,-54 20,-88 63,-88l19 0c43,0 63,33 63,88l0 119c0,54 -20,88 -63,88l-19 0c-43,0 -63,-33 -63,-88l0 -119zm196 0c0,-83 -39,-137 -114,-137l-19 0c-75,0 -114,53 -114,137l0 119c0,83 39,137 114,137l19 0c75,0 114,-53 114,-137l0 -119z"/>
   <path class="fil4 str3" d="M14188 10557c-16,0 -22,11 -22,23l0 195 -74 0 0 -195c0,-12 -6,-23 -22,-23 -16,0 -22,11 -22,23l0 195 -74 0 0 -195c0,-12 -6,-23 -22,-23 -16,0 -22,11 -22,23l0 214c0,12 6,23 22,23l237 0c16,0 22,-10 22,-23l0 -214c0,-12 -6,-23 -22,-23zm254 5l-162 0c-11,0 -22,5 -22,21 0,15 10,22 22,22l59 0 0 195c0,12 6,23 22,23 16,0 22,-11 22,-23l0 -195 59 0c11,0 22,-6 22,-22 0,-16 -10,-21 -22,-21z"/>
   <path class="fil5 str4" d="M13734 10907c-164,-134 -269,-338 -269,-567 0,-228 105,-432 269,-567m926 0c164,134 269,338 269,567 0,228 -105,432 -269,567"/>
   <path class="fil6" d="M13419 9283l-34 0 0 -70 76 0c9,0 17,-5 17,-17 0,-11 -8,-17 -17,-17l-94 0c-12,0 -17,7 -17,17l0 230c0,9 6,17 18,17l52 0c48,0 70,-25 70,-67l0 -22c0,-41 -22,-70 -70,-70zm35 92c0,23 -9,34 -35,34l-34 0 0 -94 34 0c26,0 35,14 35,37l0 23zm214 -200l-4 0c-50,0 -70,43 -70,84l0 27 -30 0 0 -94c0,-9 -4,-17 -17,-17 -12,0 -17,8 -17,17l0 236c0,9 5,17 17,17 12,0 17,-8 17,-17l0 -109 30 0 0 57c0,41 22,69 70,69l4 0c48,0 70,-32 70,-73l0 -124c0,-41 -22,-73 -70,-73zm34 198c0,23 -8,40 -34,40l-4 0c-26,0 -34,-12 -34,-35l0 -118c0,-23 7,-50 34,-50l4 0c26,0 34,16 34,40l0 124zm132 22c1,-8 12,-182 12,-182l53 0 0 216c0,9 5,17 18,17 12,0 17,-8 17,-17l0 -233c0,-9 -5,-17 -17,-17l-86 0c-12,0 -18,9 -18,17 0,0 -12,186 -12,190 0,5 -1,12 -3,16 -3,6 -9,11 -18,11 -9,0 -17,6 -17,18 0,13 8,17 17,17 27,0 43,-11 50,-30 3,-7 5,-15 5,-23zm201 0c1,-8 12,-182 12,-182l53 0 0 216c0,9 5,17 18,17 12,0 17,-8 17,-17l0 -233c0,-9 -5,-17 -17,-17l-86 0c-12,0 -18,9 -18,17 0,0 -12,186 -12,190 0,5 -1,12 -3,16 -3,6 -9,11 -18,11 -9,0 -17,6 -17,18 0,13 8,17 17,17 27,0 43,-11 50,-30 3,-7 5,-15 5,-23zm271 47c9,0 17,-5 17,-17 0,-11 -8,-17 -17,-17l-81 0 0 -85 64 0c9,0 17,-5 17,-17 0,-11 -8,-17 -17,-17l-64 0 0 -77 81 0c9,0 17,-5 17,-17 0,-11 -8,-17 -17,-17l-99 0c-12,0 -17,8 -17,17l0 229c0,9 5,17 17,17l99 0zm96 -14c0,9 5,17 17,17 12,0 18,-8 18,-17l0 -216 44 0c9,0 17,-5 17,-17 0,-11 -8,-17 -17,-17l-122 0c-9,0 -17,6 -17,17 0,12 8,17 17,17l44 0 0 216zm244 14c9,0 17,-5 17,-17 0,-11 -8,-17 -17,-17l-81 0 0 -85 64 0c9,0 17,-5 17,-17 0,-11 -8,-17 -17,-17l-64 0 0 -77 81 0c9,0 17,-5 17,-17 0,-11 -8,-17 -17,-17l-99 0c-12,0 -17,8 -17,17l0 229c0,9 5,17 17,17l99 0zm203 -250c0,-9 -6,-17 -18,-17 -12,0 -18,8 -18,17l0 94 -76 0 0 -94c0,-9 -5,-17 -18,-17 -12,0 -18,8 -18,17l0 236c0,9 6,17 18,17 12,0 18,-8 18,-17l0 -109 76 0 0 109c0,9 5,17 18,17 12,0 18,-8 18,-17l0 -236zm128 88l-38 0 0 -88c0,-9 -5,-17 -18,-17 -12,0 -18,8 -18,17l0 232c0,9 5,17 17,17l56 0c48,0 70,-25 70,-67l0 -23c0,-41 -22,-71 -70,-71zm-38 34l38 0c26,0 35,14 35,37l0 23c0,23 -9,34 -35,34l-38 0 0 -94z"/>
   <path class="fil6" d="M16236 9283l-34 0 0 -70 76 0c9,0 17,-5 17,-17 0,-11 -8,-17 -17,-17l-94 0c-12,0 -17,7 -17,17l0 230c0,9 6,17 18,17l52 0c48,0 70,-25 70,-67l0 -22c0,-41 -22,-70 -70,-70zm35 92c0,23 -9,34 -35,34l-34 0 0 -94 34 0c26,0 35,14 35,37l0 23zm214 -200l-4 0c-50,0 -70,43 -70,84l0 27 -30 0 0 -94c0,-9 -4,-17 -17,-17 -12,0 -17,8 -17,17l0 236c0,9 5,17 17,17 12,0 17,-8 17,-17l0 -109 30 0 0 57c0,41 22,69 70,69l4 0c48,0 70,-32 70,-73l0 -124c0,-41 -22,-73 -70,-73zm34 198c0,23 -8,40 -34,40l-4 0c-26,0 -34,-12 -34,-35l0 -118c0,-23 7,-50 34,-50l4 0c26,0 34,16 34,40l0 124zm132 22c1,-8 12,-182 12,-182l53 0 0 216c0,9 5,17 18,17 12,0 17,-8 17,-17l0 -233c0,-9 -5,-17 -17,-17l-86 0c-12,0 -18,9 -18,17 0,0 -12,186 -12,190 0,5 -1,12 -3,16 -3,6 -9,11 -18,11 -9,0 -17,6 -17,18 0,13 8,17 17,17 27,0 43,-11 50,-30 3,-7 5,-15 5,-23zm201 0c1,-8 12,-182 12,-182l53 0 0 216c0,9 5,17 18,17 12,0 17,-8 17,-17l0 -233c0,-9 -5,-17 -17,-17l-86 0c-12,0 -18,9 -18,17 0,0 -12,186 -12,190 0,5 -1,12 -3,16 -3,6 -9,11 -18,11 -9,0 -17,6 -17,18 0,13 8,17 17,17 27,0 43,-11 50,-30 3,-7 5,-15 5,-23zm271 47c9,0 17,-5 17,-17 0,-11 -8,-17 -17,-17l-81 0 0 -85 64 0c9,0 17,-5 17,-17 0,-11 -8,-17 -17,-17l-64 0 0 -77 81 0c9,0 17,-5 17,-17 0,-11 -8,-17 -17,-17l-99 0c-12,0 -17,8 -17,17l0 229c0,9 5,17 17,17l99 0zm96 -14c0,9 5,17 17,17 12,0 18,-8 18,-17l0 -216 44 0c9,0 17,-5 17,-17 0,-11 -8,-17 -17,-17l-122 0c-9,0 -17,6 -17,17 0,12 8,17 17,17l44 0 0 216zm244 14c9,0 17,-5 17,-17 0,-11 -8,-17 -17,-17l-81 0 0 -85 64 0c9,0 17,-5 17,-17 0,-11 -8,-17 -17,-17l-64 0 0 -77 81 0c9,0 17,-5 17,-17 0,-11 -8,-17 -17,-17l-99 0c-12,0 -17,8 -17,17l0 229c0,9 5,17 17,17l99 0zm203 -250c0,-9 -6,-17 -18,-17 -12,0 -18,8 -18,17l0 94 -76 0 0 -94c0,-9 -5,-17 -18,-17 -12,0 -18,8 -18,17l0 236c0,9 6,17 18,17 12,0 18,-8 18,-17l0 -109 76 0 0 109c0,9 5,17 18,17 12,0 18,-8 18,-17l0 -236zm128 88l-38 0 0 -88c0,-9 -5,-17 -18,-17 -12,0 -18,8 -18,17l0 232c0,9 5,17 17,17l56 0c48,0 70,-25 70,-67l0 -23c0,-41 -22,-71 -70,-71zm-38 34l38 0c26,0 35,14 35,37l0 23c0,23 -9,34 -35,34l-38 0 0 -94z"/>
   <path class="fil3 str5" d="M13858 6519l54 -31c23,-13 40,-3 52,17l4 7c11,20 9,36 -14,49l-54 31 -42 -73zm-17 -29l-40 -69 40 -23c22,-13 36,-10 48,9l5 8c11,20 10,39 -12,52l-40 23zm154 -3c-16,-27 -39,-39 -68,-33 9,-17 9,-36 -3,-57l-5 -8c-21,-37 -54,-45 -96,-21l-55 32c-11,6 -12,16 -7,24l116 201c5,8 13,13 25,6l69 -40c42,-24 49,-60 28,-97l-4 -7zm102 -260c-5,-8 -14,-12 -24,-6 -11,6 -11,16 -7,24l47 82 -87 50 -47 -82c-5,-8 -13,-13 -24,-6 -11,6 -11,16 -7,24l120 207c5,8 14,12 24,6 11,-6 11,-16 7,-24l-55 -95 87 -50 55 95c5,8 13,13 24,6 11,-6 11,-16 7,-24l-120 -207zm298 120c8,-4 12,-13 6,-23 -6,-10 -16,-11 -23,-6l-90 52 -43 -74 75 -43c8,-4 12,-13 6,-23 -6,-10 -16,-11 -23,-6l-75 43 -39 -68 90 -52c8,-4 12,-13 6,-23 -6,-10 -16,-11 -23,-6l-106 61c-11,6 -11,16 -6,24l116 201c5,8 13,13 24,6l106 -61z"/>
   <path class="fil3 str5" d="M14127 6799l109 189c5,8 13,13 24,6 11,-6 11,-16 7,-24l-118 -204c-5,-8 -14,-12 -24,-6l-111 64c-11,6 -11,16 -7,24l118 204c5,8 14,12 24,6 11,-6 11,-16 7,-24l-109 -189 80 -46zm128 -30c-12,-20 -12,-41 11,-55l26 -15c23,-13 41,-2 53,18l61 106c12,20 12,41 -11,55l-26 15c-23,13 -41,2 -53,-18l-61 -106zm121 -70c-21,-36 -59,-54 -101,-30l-26 15c-42,24 -46,66 -25,102l61 106c21,36 59,54 101,30l26 -15c42,-24 46,-66 25,-102l-61 -106zm175 -14c-6,-5 -12,-10 -19,-14l-110 -72c-10,-7 -15,-6 -22,-2 -11,6 -11,16 -6,24l120 207c5,8 13,13 24,6 11,-6 11,-16 6,-24l-74 -127c-5,-9 -10,-16 -14,-22l0 0 100 65c5,3 10,5 18,0 8,-5 9,-10 9,-16l-6 -119 0 0c3,6 7,15 12,24l74 127c5,8 13,13 24,6 11,-6 11,-16 6,-24l-120 -207c-5,-8 -13,-13 -24,-6 -7,4 -10,8 -9,20l7 131c0,8 1,16 3,23zm321 -48c8,-4 12,-13 6,-23 -6,-10 -16,-11 -23,-6l-90 52 -43 -74 75 -43c8,-4 12,-13 6,-23 -6,-10 -16,-11 -23,-6l-75 43 -39 -68 90 -52c8,-4 12,-13 6,-23 -6,-10 -15,-11 -23,-6l-106 61c-11,6 -11,16 -6,24l116 201c5,8 13,13 24,6l106 -61zm223 -129c6,-3 12,-8 17,-11l0 43c0,4 1,7 3,10 3,6 14,12 25,6 6,-3 8,-10 8,-16l0 -73c0,-3 -1,-6 -3,-8 -6,-11 -16,-11 -23,-6l-14 8 -109 -189c-5,-8 -13,-13 -24,-6 -11,6 -12,16 -7,24l109 189 -55 32 -109 -189c-5,-8 -14,-12 -24,-6 -9,5 -10,16 -5,23l109 189 -55 32 -109 -189c-5,-8 -13,-13 -25,-6 -11,6 -11,16 -6,24l118 204c5,8 13,13 24,6l156 -90zm212 -122c8,-4 12,-13 6,-23 -6,-10 -15,-11 -23,-6l-90 52 -43 -74 75 -43c8,-4 12,-13 6,-23 -6,-10 -16,-11 -23,-6l-75 43 -39 -68 90 -52c8,-4 12,-13 6,-23 -6,-10 -16,-11 -23,-6l-106 61c-11,6 -11,16 -6,24l116 201c5,8 13,13 24,6l106 -61zm74 -335c-5,-8 -14,-12 -24,-6 -11,6 -11,16 -7,24l47 82 -87 50 -47 -82c-5,-8 -13,-13 -24,-6 -11,6 -11,16 -7,24l120 207c5,8 14,12 24,6 11,-6 11,-16 7,-24l-55 -95 87 -50 55 95c5,8 13,13 24,6 11,-6 11,-16 7,-24l-120 -207zm288 110c5,8 13,13 24,7 11,-6 11,-16 7,-24l-120 -207c-5,-8 -13,-13 -25,-6 -6,4 -9,8 -9,20l3 208 0 0c-3,-6 -7,-15 -12,-24l-75 -130c-5,-8 -13,-13 -24,-7 -11,6 -11,16 -7,24l120 207c5,8 13,13 25,6 6,-4 9,-8 9,-20l-3 -208 0 0c3,6 7,15 12,24l75 130zm-17 -189c14,24 43,43 75,39 0,5 0,10 2,21 0,0 8,73 9,82 1,9 8,16 20,15 13,-2 16,-11 15,-20 -1,-10 -13,-111 -13,-111l42 -24 48 83c5,8 13,13 24,6 11,-6 11,-16 7,-24l-118 -204c-5,-8 -13,-13 -24,-6l-63 37c-42,24 -49,63 -29,98l5 9zm84 0c-23,13 -41,2 -53,-18l-5 -9c-10,-18 -9,-36 15,-50l48 -28 44 77 -49 28z"/>
   <path class="fil3 str5" d="M14405 7234c-17,-30 -50,-43 -83,-24l-45 26c-8,5 -12,13 -7,23 6,10 15,10 23,6l43 -25c13,-7 28,-6 37,10l10 18 -41 23c-43,25 -47,68 -27,104l24 42c21,37 57,52 97,28l14 -8c39,-22 47,-59 24,-98l-72 -124zm42 141c12,20 12,40 -11,53l-14 8c-19,11 -38,6 -51,-17l-23 -40c-13,-22 -11,-46 13,-60l41 -23c0,0 41,72 46,80zm111 -213l-73 42c-10,6 -12,15 -8,25l49 121c5,11 2,25 -8,31 -7,4 -10,13 -5,22 5,9 14,11 23,6 24,-14 35,-35 21,-68l-47 -113 49 -28 76 131c5,8 13,13 24,7 11,-6 11,-16 6,-24l-83 -144c-5,-8 -13,-13 -24,-6zm157 -90l-62 36c-30,18 -38,50 -21,79l3 5c14,24 36,33 60,29l-3 69c0,8 6,15 17,15 12,0 17,-8 17,-17l0 -80 36 -21 30 52c5,8 13,13 23,7 11,-6 11,-16 6,-24l-84 -145c-5,-8 -13,-12 -24,-6zm32 89l-40 23c-20,12 -35,4 -43,-10l-2 -4c-7,-12 -5,-27 11,-36l44 -25 31 54 -1 -2zm186 -215l-74 43c-11,6 -11,16 -6,24l83 145c5,8 13,13 23,7 11,-6 11,-16 6,-24l-76 -131 60 -34c8,-4 12,-13 6,-23 -6,-11 -15,-10 -23,-5zm167 99c-22,13 -39,3 -51,-17l-30 -51c-12,-20 -11,-40 11,-53l14 -8c22,-13 39,-3 51,17l30 51c12,20 11,40 -11,53l-14 8zm30 20c41,-24 45,-62 24,-98l-30 -51c-21,-36 -56,-52 -97,-28l-14 8c-41,24 -45,62 -24,98l30 51c21,36 56,52 97,28l14 -8zm106 -294l-73 42c-10,6 -12,15 -8,25l49 121c5,11 2,25 -8,31 -7,4 -10,13 -5,22 5,9 14,11 23,6 24,-14 35,-35 21,-68l-47 -113 49 -28 76 131c5,8 13,13 24,7 11,-6 11,-16 6,-24l-83 -144c-5,-8 -13,-13 -24,-6zm192 84c-22,13 -39,3 -51,-17l-30 -51c-12,-20 -11,-40 11,-53l14 -8c22,-13 39,-3 51,17l30 51c12,20 11,40 -11,53l-14 8zm30 20c41,-24 45,-62 24,-98l-30 -51c-21,-36 -56,-52 -97,-28l-14 8c-41,24 -45,62 -24,98l30 51c21,36 56,52 97,28l14 -8zm132 -114c-22,13 -41,3 -53,-18l-31 -53c-11,-19 -9,-37 13,-50l16 -9c14,-8 26,-7 32,3 5,9 13,13 24,7 11,-6 11,-15 6,-24 -18,-30 -46,-33 -78,-14l-16 9c-41,24 -47,59 -26,95l31 53c22,37 58,53 100,29l15 -9c32,-19 44,-44 27,-75 -5,-9 -13,-13 -24,-7 -11,6 -11,15 -6,24 6,10 0,22 -13,29l-15 9zm150 -86c-22,13 -39,3 -51,-17l-30 -51c-12,-20 -11,-40 11,-53l14 -8c22,-13 39,-3 51,17l30 51c12,20 11,40 -11,53l-14 8zm30 20c41,-24 45,-62 24,-98l-30 -51c-21,-36 -56,-52 -97,-28l-14 8c-41,24 -45,62 -24,98l30 51c21,36 56,52 97,28l14 -8zm134 -203c9,-15 11,-30 0,-48l-2 -4c-17,-29 -43,-30 -76,-11l-52 30c-11,6 -11,15 -7,23l82 143c5,8 13,12 24,6l60 -35c30,-18 44,-42 25,-74l-5 -9c-12,-20 -28,-26 -50,-21zm-99 -13l32 -18c21,-12 33,-10 40,2l2 3c7,12 2,24 -12,32l-38 22 -24 -41zm122 56c9,15 4,27 -10,35l-45 26 -28 -49 40 -23c17,-10 32,-8 41,7l2 4zm10 -169c-8,5 -13,13 -7,22 6,10 15,10 23,5l43 -25c14,-8 27,-6 37,10l4 6 -46 27c-30,18 -42,43 -24,73l15 25c18,30 45,33 76,16l61 -35c11,-6 11,-16 6,-24l-61 -106c-17,-30 -49,-39 -82,-20l-43 25zm103 133c-14,8 -24,5 -30,-5l-14 -25c-6,-11 -3,-21 10,-29l46 -27 34 59 -46 27zm145 -280c-11,6 -11,16 -6,24l32 55 -77 45 -32 -55c-5,-8 -13,-13 -23,-7 -11,6 -11,16 -6,24l85 148c5,8 13,13 23,7 11,-6 11,-16 6,-24l-38 -65 77 -45 38 65c5,8 13,13 23,7 11,-6 11,-16 6,-24l-85 -148c-5,-8 -13,-13 -23,-7zm171 -99c-5,3 -8,8 -8,17l-17 162c-3,-9 -6,-14 -11,-22 -7,-12 -50,-87 -50,-87 -5,-8 -13,-13 -23,-7 -10,6 -10,15 -5,23l85 148c5,8 12,13 22,8 7,-4 8,-11 9,-17l17 -162c3,9 6,14 11,22 7,12 50,87 50,87 5,8 13,13 22,7 11,-6 10,-16 6,-24l-85 -148c-5,-8 -12,-13 -22,-7zm155 -85l-62 36c-30,18 -38,50 -21,79l3 5c14,24 36,33 60,29l-3 69c0,8 6,15 17,15 12,0 17,-8 17,-17l0 -80 36 -21 30 52c5,8 13,13 23,7 11,-6 11,-16 6,-24l-84 -145c-5,-8 -13,-12 -24,-6zm32 89l-40 23c-20,12 -35,4 -43,-10l-2 -4c-7,-12 -5,-27 11,-36l44 -25 31 54 -1 -2z"/>
   <path class="fil4 str3" d="M2733 12887c0,-49 18,-87 53,-103l195 -88c95,-42 116,-116 116,-188l0 -4c0,-122 -69,-189 -206,-189l-65 0c-109,0 -177,47 -177,159 0,28 14,50 50,50 36,0 50,-22 50,-50 0,-44 31,-64 77,-64l65 0c75,0 107,29 107,94l0 4c0,50 -16,80 -58,99l-181 80c-85,36 -125,116 -125,208l0 169 425 0c26,0 48,-14 48,-48 0,-34 -21,-48 -48,-48l-326 0 0 -84z"/>
   <path class="fil4 str3" d="M4637 12635c26,0 47,-13 47,-46 0,-33 -20,-46 -47,-46l-378 0c-26,0 -47,13 -47,46 0,33 20,46 47,46l378 0zm0 212c26,0 47,-13 47,-46 0,-33 -20,-46 -47,-46l-378 0c-26,0 -47,13 -47,46 0,33 20,46 47,46l378 0z"/>
   <path class="fil4 str3" d="M6155 12841c0,-88 -36,-156 -114,-180 50,-29 78,-75 78,-144l0 -14c0,-122 -69,-189 -206,-189l-56 0c-109,0 -177,47 -177,159 0,28 14,50 50,50 36,0 50,-22 50,-50 0,-44 31,-64 77,-64l56 0c75,0 107,29 107,94l0 14c0,67 -39,114 -115,114l-60 0c-26,0 -48,13 -48,47 0,34 21,47 48,47l108 0c75,0 104,49 104,116l0 35c0,67 -32,105 -107,105l-113 0c-47,0 -77,-19 -77,-64 0,-28 -14,-50 -50,-50 -36,0 -50,22 -50,50 0,112 68,159 177,159l113 0c138,0 206,-78 206,-200l0 -35z"/>
   <path class="fil4 str3" d="M7679 12737c26,0 47,-13 47,-46 0,-33 -20,-46 -47,-46l-399 0c-26,0 -47,13 -47,46 0,33 20,46 47,46l399 0z"/>
   <path class="fil4 str3" d="M8980 13026c0,28 13,50 49,50 36,0 49,-22 49,-50l0 -171 54 0c26,0 48,-14 48,-48 0,-34 -21,-48 -48,-48l-54 0 0 -205c0,-28 -13,-50 -49,-50 -36,0 -49,22 -49,50l0 205 -230 0c53,-121 97,-270 120,-401 4,-25 2,-53 -32,-61 -32,-8 -55,7 -60,35 -32,169 -83,313 -137,439 -6,15 -6,25 -6,37 0,34 21,47 48,47l297 0 0 171z"/>
   <path class="fil4 str3" d="M10351 12464c0,-26 -13,-47 -44,-47 -33,0 -47,20 -47,47l0 185 -175 0c-26,0 -47,13 -47,46 0,33 20,46 47,46l175 0 0 186c0,26 13,47 46,47 33,0 46,-20 46,-47l0 -186 176 0c26,0 47,-13 47,-46 0,-33 -20,-46 -47,-46l-176 0 0 -185z"/>
   <path class="fil4 str3" d="M11578 12325c-26,0 -48,14 -48,48l0 285c0,34 21,48 48,48l200 0c75,0 107,38 107,105l0 67c0,67 -32,105 -107,105l-94 0c-47,0 -77,-19 -77,-64 0,-28 -14,-50 -50,-50 -36,0 -50,22 -50,50 0,112 68,159 177,159l94 0c138,0 206,-78 206,-200l0 -67c0,-122 -69,-200 -206,-200l-148 0 0 -189 273 0c26,0 48,-14 48,-48 0,-34 -21,-48 -48,-48l-325 0z"/>
   <path class="fil4 str3" d="M13029 12464c0,-26 -13,-47 -44,-47 -33,0 -47,20 -47,47l0 185 -175 0c-26,0 -47,13 -47,46 0,33 20,46 47,46l175 0 0 186c0,26 13,47 46,47 33,0 46,-20 46,-47l0 -186 176 0c26,0 47,-13 47,-46 0,-33 -20,-46 -47,-46l-176 0 0 -185z"/>
   <path class="fil4 str3" d="M14416 12318c-168,101 -222,235 -222,401l0 157c0,122 69,200 206,200l61 0c138,0 206,-73 206,-195l0 -53c0,-121 -69,-205 -206,-205l-161 0c15,-87 64,-157 169,-221 22,-14 39,-40 19,-71 -19,-30 -50,-28 -73,-13zm-16 663c-75,0 -107,-38 -107,-105l0 -158 168 0c75,0 107,42 107,110l0 53c0,67 -32,99 -107,99l-61 0z"/>
   <path class="fil4 str3" d="M15848 12464c0,-26 -13,-47 -44,-47 -33,0 -47,20 -47,47l0 185 -175 0c-26,0 -47,13 -47,46 0,33 20,46 47,46l175 0 0 186c0,26 13,47 46,47 33,0 46,-20 46,-47l0 -186 176 0c26,0 47,-13 47,-46 0,-33 -20,-46 -47,-46l-176 0 0 -185z"/>
   <path class="fil4 str3" d="M17157 13026c0,28 14,50 50,50 36,0 50,-22 50,-50l0 -90c0,-149 30,-241 104,-361l110 -177c26,-42 8,-74 -40,-74l-395 0c-26,0 -48,14 -48,48 0,34 21,48 48,48l311 0 -68 104c-95,145 -122,242 -122,413l0 90z"/>
   <polyline class="fil5 str1" points="4458,11022 4458,7882 2364,7882 "/>
  </g>
 </g>
</svg>
