<?xml version="1.0" encoding="UTF-8"?>
<!DOCTYPE svg PUBLIC "-//W3C//DTD SVG 1.0//EN" "http://www.w3.org/TR/2001/REC-SVG-20010904/DTD/svg10.dtd">
<!-- Creator: CorelDRAW X7 -->
<svg xmlns="http://www.w3.org/2000/svg" xml:space="preserve" width="115mm" height="70.122mm" version="1.0" style="shape-rendering:geometricPrecision; text-rendering:geometricPrecision; image-rendering:optimizeQuality; fill-rule:evenodd; clip-rule:evenodd"
viewBox="0 0 11500 7012"
 xmlns:xlink="http://www.w3.org/1999/xlink">
 <defs>
  <style type="text/css">
   <![CDATA[
    .str2 {stroke:#1A5989;stroke-width:8.76524}
    .str0 {stroke:#3696A0;stroke-width:8.76524}
    .str3 {stroke:#61CCD8;stroke-width:8.76524}
    .str4 {stroke:#EF4652;stroke-width:8.76524}
    .str1 {stroke:#F69021;stroke-width:8.76524}
    .fil8 {fill:#FEFEFE}
    .fil7 {fill:#F28E2B}
    .fil11 {fill:#E84353}
    .fil3 {fill:#D8D8DA}
    .fil2 {fill:#C5C3C5}
    .fil1 {fill:#767477}
    .fil12 {fill:#5A5654}
    .fil10 {fill:#33BACC}
    .fil6 {fill:#484855}
    .fil9 {fill:#215C8B}
    .fil4 {fill:#3497A1}
    .fil5 {fill:#3696A0}
    .fil0 {fill:url(#id0)}
   ]]>
  </style>
  <radialGradient id="id0" gradientUnits="userSpaceOnUse" gradientTransform="matrix(1.17124 -0 -0 1.92083 -985 -3229)" cx="5750" cy="3506.1" r="3506.1" fx="5750" fy="3506.1">
   <stop offset="0" style="stop-opacity:1; stop-color:#FEFEFE"/>
   <stop offset="0.439216" style="stop-opacity:1; stop-color:#FEFEFE"/>
   <stop offset="1" style="stop-opacity:1; stop-color:#D1E2F2"/>
  </radialGradient>
 </defs>
 <g id="Layer_x0020_1">
  <metadata id="CorelCorpID_0Corel-Layer"/>
  <path class="fil0" d="M0 0l11500 0 0 7012 -11500 0 0 -7012z"/>
  <g id="_70886933440">
   <path class="fil1" d="M8204 6382c0,0 0,0 0,0z"/>
   <path class="fil2" d="M8812 4684l-3142 0 0 -368 3142 0 0 368z"/>
   <path class="fil3" d="M7743 6614l-2073 0 0 -1597 2073 0 0 1597z"/>
   <path class="fil2" d="M7713 4977l-2043 0 0 -28 2043 0 0 28z"/>
   <path class="fil2" d="M8812 4745l-1014 0 0 507 1014 0 0 -507z"/>
   <path class="fil3" d="M8793 5252l-995 0 0 479 995 0 0 -479z"/>
   <path class="fil3" d="M7743 4737l-2073 0 0 166 2073 0 0 -166z"/>
   <path class="fil4 str0" d="M6242 4580c0,2 -1,4 -2,5 -2,1 -3,2 -5,2 -2,0 -4,-1 -5,-2 -1,-1 -2,-3 -2,-5l0 -96 -55 99c-1,2 -2,3 -3,4l-2 1c0,0 -1,0 -2,0 -1,0 -3,-1 -4,-2 -2,-1 -2,-3 -2,-6l0 -123c0,-1 0,-3 2,-5 1,-1 3,-1 5,-1 1,0 3,0 4,1 2,1 2,3 2,5l0 97 56 -100c0,-1 1,-2 3,-3 1,-1 2,-2 3,-2 2,0 3,1 4,3 2,1 3,3 3,5l0 123zm68 -61l-21 0c-2,0 -3,-1 -5,-2 -1,-2 -1,-3 -1,-5 0,-2 0,-3 1,-5 2,-1 3,-2 5,-2l21 0c4,0 7,-1 10,-4 2,-2 3,-6 3,-10l0 -13c0,-4 -1,-7 -3,-10 -3,-3 -6,-4 -10,-4l-14 0c-3,0 -5,1 -8,3 -2,1 -4,3 -5,6 0,2 -1,3 -2,4 0,0 -1,1 -2,1l-2 0c-2,0 -4,0 -5,-2 -1,-1 -2,-3 -2,-5l0 -2c2,-5 5,-10 10,-13 5,-4 10,-6 16,-6l14 0c7,0 14,3 19,8 5,6 8,12 8,20l0 13c0,4 -1,8 -2,12 -2,3 -4,6 -7,9 6,5 9,12 9,20l0 28c0,7 -3,14 -8,19 -5,5 -12,8 -19,8l-14 0c-6,0 -11,-2 -16,-5 -4,-4 -8,-8 -10,-14l0 -2c0,-2 1,-4 2,-5 1,-1 3,-2 5,-2 3,0 5,2 6,5 1,2 3,5 5,7 3,2 5,2 8,2l14 0c4,0 7,-1 10,-3 2,-3 3,-6 3,-10l0 -28c0,-4 -1,-7 -3,-9 -2,-3 -5,-4 -10,-4zm68 0l0 54 41 0c4,0 7,-1 10,-3 2,-3 4,-6 4,-10l0 -28c0,-4 -2,-7 -4,-9 -3,-3 -6,-4 -10,-4l-41 0zm0 -14l41 0c7,0 14,3 19,8 5,5 8,12 8,19l0 28c0,7 -3,14 -8,19 -5,5 -12,8 -19,8l-48 0c-4,0 -7,-2 -7,-7l0 -123c0,-4 3,-7 7,-7l55 0c2,0 3,1 4,3 2,1 2,3 2,4 0,2 0,3 -1,5 -1,1 -3,2 -5,2l-48 0 0 41zm177 75c0,2 0,4 -2,5 -1,1 -3,2 -5,2 -1,0 -3,-1 -4,-2 -2,-1 -2,-3 -2,-5l0 -96 -56 99c-1,2 -2,3 -3,4l-1 1c-1,0 -1,0 -2,0 -2,0 -3,-1 -5,-2 -1,-1 -2,-3 -2,-6l0 -123c0,-1 1,-3 2,-5 2,-1 3,-1 5,-1 2,0 3,0 5,1 1,1 2,3 2,5l0 97 55 -100c1,-1 2,-2 3,-3 1,-1 3,-2 4,-2 1,0 3,1 4,3 1,1 2,3 2,5l0 123zm41 -61l41 0c4,0 7,-2 10,-4 2,-3 4,-6 4,-10l0 -27c0,-4 -2,-7 -4,-10 -3,-3 -6,-4 -10,-4l-41 0 0 55zm0 13l0 48c0,2 -1,4 -2,5 -1,1 -3,2 -5,2 -2,0 -3,-1 -5,-2 -1,-1 -2,-3 -2,-5l0 -123c0,-4 3,-7 7,-7l48 0c8,0 14,3 19,8 6,6 8,12 8,20l0 27c0,7 -2,14 -8,19 -5,6 -12,8 -19,8l-41 0zm106 21l-10 29c-1,2 -1,3 -3,4 0,0 -2,1 -3,1 -2,0 -4,-1 -5,-2 -1,-1 -2,-3 -2,-5l0 -2 41 -123c2,-4 4,-6 7,-6 3,0 5,2 6,6l41 123 0 2c0,2 0,4 -2,5 -1,1 -3,2 -5,2 -1,0 -2,0 -3,-1 -1,0 -2,-2 -3,-4l-10 -29 -49 0zm45 -14l-20 -60 -20 60 40 0zm60 -75l-27 0c-2,0 -4,-1 -5,-2 -1,-1 -2,-3 -2,-5 0,-1 1,-3 2,-4 1,-2 3,-3 5,-3l68 0c2,0 4,1 5,3 1,1 2,3 2,4 0,2 0,3 -2,5 -1,1 -2,2 -5,2l-27 0 0 116c0,2 -1,4 -2,5 -1,1 -3,2 -5,2 -2,0 -3,-1 -5,-2 -1,-1 -2,-3 -2,-5l0 -116zm89 41l34 0c2,0 4,1 5,2 1,2 2,3 2,5 0,2 0,3 -2,4 -1,2 -2,3 -5,3l-34 0 0 54 48 0c2,0 3,1 5,2 1,2 2,3 2,5 0,2 -1,3 -2,5 -1,1 -3,2 -5,2l-55 0c-4,0 -7,-2 -7,-7l0 -123c0,-4 3,-7 7,-7l55 0c2,0 3,1 5,3 1,1 2,3 2,4 0,2 -1,3 -2,5 -1,1 -3,2 -5,2l-48 0 0 41zm164 75c0,2 -1,4 -2,5 -1,1 -3,2 -5,2 -2,0 -3,-1 -5,-2 -1,-1 -2,-3 -2,-5l0 -116 -22 0 -33 118c0,1 -1,2 -2,3 -1,1 -3,2 -4,2 -2,0 -4,-1 -5,-2 -1,-1 -2,-3 -2,-5 0,-1 0,-1 0,-2l34 -122c1,-4 4,-6 7,-6l34 0c5,0 7,3 7,7l0 123zm41 -61l41 0c3,0 7,1 9,4 3,2 4,5 4,9l0 28c0,4 -1,7 -4,9 -1,2 -2,3 -4,3 -2,1 -4,1 -5,1l-41 0 0 -54zm0 -14l0 -48c0,-2 -1,-3 -3,-4 -1,-2 -3,-3 -4,-3 -2,0 -3,1 -5,2 -1,1 -2,3 -2,5l0 123c0,5 2,7 7,7l47 0c8,0 14,-3 20,-8 5,-5 8,-12 8,-19l0 -28c0,-7 -3,-13 -8,-19 -5,-5 -12,-8 -20,-8l-40 0zm163 0l0 -48c0,-2 1,-3 2,-5 2,-1 3,-2 5,-2 2,0 3,1 5,2 1,1 2,3 2,5l0 123c0,2 -1,4 -2,5 -2,1 -3,2 -5,2 -2,0 -3,-1 -5,-2 -1,-1 -2,-3 -2,-5l0 -61 -54 0 0 61c0,2 -1,4 -2,5 -2,1 -3,2 -5,2 -2,0 -4,-1 -5,-2 -1,-1 -2,-3 -2,-5l0 -123c0,-1 1,-3 2,-5 1,-1 3,-1 5,-1 2,0 3,0 5,1 1,1 2,3 2,5l0 48 54 0zm137 75c0,2 -1,4 -2,5 -1,1 -3,2 -5,2 -2,0 -3,-1 -5,-2 -1,-1 -2,-3 -2,-5l0 -123c0,-2 1,-3 2,-5 2,-1 3,-2 5,-2 2,0 3,1 5,2 1,1 2,3 2,5l0 123zm-82 -61l0 54 27 0c4,0 7,-1 10,-3 2,-3 4,-6 4,-10l0 -28c0,-4 -2,-7 -4,-9 -3,-3 -6,-4 -10,-4l-27 0zm0 -14l27 0c7,0 14,3 19,8 6,5 8,12 8,19l0 28c0,7 -2,14 -8,19 -5,5 -11,8 -19,8l-34 0c-5,0 -7,-2 -7,-7l0 -123c0,-2 1,-3 2,-5 2,-1 3,-2 5,-2 2,0 3,1 5,2 1,1 2,3 2,5l0 48zm163 -68l-27 0c-2,0 -4,-1 -5,-2 -1,-1 -2,-3 -2,-5 0,-1 1,-3 2,-4 1,-2 3,-3 5,-3l27 0c2,0 4,1 5,2 2,2 2,3 2,5 0,2 0,3 -2,5 -1,1 -2,2 -5,2zm28 143c0,2 -1,4 -2,5 -2,1 -3,2 -5,2 -2,0 -4,-1 -5,-2 -1,-1 -2,-3 -2,-5l0 -96 -55 99c-1,2 -2,3 -3,4l-2 1c0,0 -1,0 -2,0 -1,0 -3,-1 -4,-2 -2,-1 -2,-3 -2,-6l0 -123c0,-1 1,-3 2,-5 1,-1 3,-1 5,-1 1,0 3,0 4,1 2,1 2,3 2,5l0 97 56 -100c0,-1 1,-2 3,-3 1,-1 2,-2 3,-2 2,0 3,1 5,3 1,1 2,3 2,5l0 123zm178 -71c3,2 7,6 9,10 2,4 4,9 4,13l0 28c0,7 -3,14 -8,19 -6,5 -12,8 -20,8l-47 0c-5,0 -7,-2 -7,-7l0 -123c0,-4 2,-7 7,-7l40 0c8,0 15,3 20,8 5,6 8,12 8,20l0 13c0,4 -1,7 -2,9 -1,3 -2,6 -4,9zm-56 10l0 54 41 0c4,0 7,-1 10,-3 3,-3 4,-6 4,-10l0 -28c0,-4 -1,-7 -4,-9 -2,-3 -6,-4 -10,-4l-41 0zm35 -14c3,0 7,-1 9,-4 3,-2 4,-6 4,-10l0 -13c0,-4 -1,-7 -4,-10 -2,-3 -6,-4 -9,-4l-35 0 0 41 35 0zm74 0l35 0c2,0 3,1 5,2 1,2 2,3 2,5 0,2 -1,3 -2,4 -1,2 -3,3 -5,3l-35 0 0 54 48 0c2,0 4,1 5,2 2,2 2,3 2,5 0,2 0,3 -2,5 -1,1 -2,2 -5,2l-54 0c-5,0 -7,-2 -7,-7l0 -123c0,-4 2,-7 7,-7l54 0c2,0 4,1 5,3 2,1 2,3 2,4 0,2 0,3 -2,5 -1,1 -2,2 -5,2l-48 0 0 41zm137 82l-34 0c-8,0 -14,-3 -20,-8 -5,-5 -8,-12 -8,-19l0 -82c0,-8 3,-14 8,-20 6,-5 12,-8 20,-8l34 0c2,0 3,1 5,3 1,1 2,3 2,4 0,2 -1,3 -2,5 -1,1 -3,2 -5,2l-34 0c-4,0 -7,1 -10,4 -1,1 -2,3 -3,4 -1,2 -1,4 -1,6l0 82c0,4 1,7 4,9 1,2 3,3 4,3 2,1 4,1 6,1l34 0c2,0 3,1 5,2 1,2 2,3 2,5 0,2 -1,3 -2,5 -1,1 -3,2 -5,2zm68 -123l-27 0c-2,0 -4,-1 -5,-2 -2,-1 -2,-3 -2,-5 0,-1 0,-3 2,-4 1,-2 2,-3 5,-3l68 0c2,0 3,1 5,3 1,1 2,3 2,4 0,2 -1,3 -2,5 -1,1 -3,2 -5,2l-28 0 0 116c0,2 0,4 -1,5 -2,1 -3,2 -5,2 -2,0 -4,-1 -5,-2 -1,-1 -2,-3 -2,-5l0 -116zm143 41l0 -48c0,-2 1,-3 2,-5 2,-1 3,-2 5,-2 2,0 3,1 5,2 1,1 2,3 2,5l0 123c0,2 -1,4 -2,5 -2,1 -4,2 -5,2 -2,0 -3,-1 -5,-2 -1,-1 -2,-3 -2,-5l0 -61 -55 0 0 61c0,2 0,4 -1,5 -2,1 -3,2 -5,2 -2,0 -4,-1 -5,-2 -1,-1 -2,-3 -2,-5l0 -123c0,-1 1,-3 2,-5 1,-1 3,-1 5,-1 1,0 3,0 4,1 2,1 2,3 2,5l0 48 55 0zm123 75c0,2 -1,4 -2,5 -1,1 -3,2 -5,2 -2,0 -3,-1 -5,-2 -1,-1 -2,-3 -2,-5l0 -96 -55 99c-1,2 -2,3 -3,4l-2 1c0,0 -1,0 -2,0 -1,0 -3,-1 -4,-2 -1,-1 -2,-3 -2,-6l0 -123c0,-1 1,-3 2,-5 1,-1 3,-1 5,-1 1,0 3,0 4,1 2,1 3,3 3,5l0 97 55 -100c1,-1 2,-2 3,-3 1,-1 2,-2 4,-2 1,0 2,1 4,3 1,1 2,3 2,5l0 123zm41 -71l57 -57c1,-1 3,-2 5,-2 1,0 3,1 5,3 1,1 2,3 2,4 0,2 -1,3 -2,5l-41 41 42 74 1 3c0,2 -1,4 -2,5 -2,1 -3,2 -5,2 -2,0 -4,-1 -6,-4l-40 -71 -16 16 0 52c0,2 -1,4 -2,5 -2,1 -3,2 -5,2 -2,0 -4,-1 -5,-2 -1,-1 -2,-3 -2,-5l0 -123c0,-2 1,-3 2,-5 2,-1 3,-2 5,-2 2,0 3,1 5,2 1,1 2,3 2,5l0 52z"/>
   <path class="fil4 str0" d="M5787 4813l30 0c3,0 5,-1 8,-3 2,-2 3,-5 3,-8l0 -20c0,-3 -1,-5 -3,-7 -2,-2 -5,-3 -8,-3l-30 0 0 41zm0 10l0 36c0,1 -1,3 -2,4 -1,0 -2,1 -4,1 -1,0 -2,-1 -3,-1 -1,-1 -2,-3 -2,-4l0 -92c0,-4 2,-6 5,-6l36 0c6,0 11,2 15,6 4,4 6,9 6,15l0 20c0,6 -2,11 -6,15 -4,4 -9,6 -15,6l-30 0zm75 0l31 0 0 -10c0,-3 -1,-6 -3,-8 -2,-2 -4,-3 -7,-3l-11 0c-2,0 -5,1 -7,3 -1,1 -2,2 -2,4 -1,1 -1,2 -1,4l0 10zm0 10l0 10c0,3 1,6 3,8 1,1 2,1 3,2 2,0 3,1 4,1l26 0c1,0 3,0 4,1 1,1 1,2 1,4 0,1 0,2 -1,3 -1,1 -2,2 -4,2l-26 0c-5,0 -10,-2 -14,-6 -4,-4 -6,-9 -6,-15l0 -30c0,-6 2,-11 6,-15 4,-4 9,-6 14,-6l11 0c5,0 10,2 14,6 4,4 6,9 6,15l0 15c0,3 -2,5 -5,5l-36 0zm96 21l21 0 0 -57c0,-1 0,-2 1,-4 1,0 3,-1 4,-1 1,0 2,1 3,1 1,1 2,3 2,4l0 62c0,3 -2,5 -5,5l-46 0c-6,0 -10,-2 -14,-6 -5,-4 -7,-9 -7,-15l0 -46c0,-1 1,-2 2,-4 1,0 2,-1 4,-1 1,0 2,1 3,1 1,1 2,3 2,4l0 46c0,3 1,6 3,8 1,1 2,1 3,2 1,0 3,1 4,1l10 0 0 -57c0,-1 1,-2 2,-4 1,0 2,-1 3,-1 2,0 3,1 4,1 1,1 1,3 1,4l0 57zm56 -31l30 0 0 -10c0,-3 -1,-6 -3,-8 -1,-2 -4,-3 -7,-3l-10 0c-3,0 -6,1 -8,3 0,1 -1,2 -2,4 0,1 0,2 0,4l0 10zm0 10l0 10c0,3 1,6 2,8 1,1 3,1 4,2 1,0 3,1 4,1l25 0c2,0 3,0 4,1 1,1 2,2 2,4 0,1 -1,2 -2,3 -1,1 -2,2 -4,2l-25 0c-6,0 -11,-2 -15,-6 -4,-4 -6,-9 -6,-15l0 -30c0,-6 2,-11 6,-15 4,-4 9,-6 15,-6l10 0c6,0 10,2 14,6 5,4 7,9 7,15l0 15c0,3 -2,5 -6,5l-35 0zm96 -10l0 -26c0,-1 0,-2 1,-4 1,0 3,-1 4,-1 1,0 2,1 3,1 1,1 2,3 2,4l0 62c0,1 0,3 -1,4 -1,0 -3,1 -4,1 -1,0 -3,-1 -4,-1 -1,-1 -1,-3 -1,-4l0 -26 -31 0 0 26c0,1 0,3 -1,4 -1,0 -3,1 -4,1 -1,0 -3,-1 -4,-1 -1,-1 -1,-3 -1,-4l0 -62c0,-1 0,-2 1,-4 1,0 3,-1 4,-1 1,0 2,1 3,1 1,1 2,3 2,4l0 26 31 0zm75 36c0,3 -1,5 -5,5l-25 0c-6,0 -11,-2 -15,-6 -4,-4 -6,-9 -6,-15l0 -46c0,-1 1,-2 2,-4 1,0 2,-1 3,-1 2,0 3,1 4,1 1,1 1,3 1,4l0 46c0,3 1,6 3,8 1,1 2,1 4,2 1,0 2,1 4,1l20 0 0 -57c0,-1 1,-2 2,-4 1,0 2,-1 3,-1 2,0 3,1 4,1 1,1 1,3 1,4l0 62zm25 -36l31 0 0 -10c0,-3 -1,-6 -3,-8 -2,-2 -5,-3 -8,-3l-10 0c-3,0 -5,1 -7,3 -1,1 -2,2 -2,4 -1,1 -1,2 -1,4l0 10zm0 10l0 10c0,3 1,6 3,8 1,1 2,1 3,2 2,0 3,1 4,1l26 0c1,0 2,0 3,1 1,1 2,2 2,4 0,1 -1,2 -1,3 -1,1 -3,2 -4,2l-26 0c-5,0 -10,-2 -14,-6 -4,-4 -6,-9 -6,-15l0 -30c0,-6 2,-11 6,-15 4,-4 8,-6 14,-6l10 0c6,0 11,2 15,6 4,4 6,9 6,15l0 15c0,3 -2,5 -5,5l-36 0zm174 8c0,6 -2,12 -7,16 -4,5 -9,7 -16,7l-6 0c-6,0 -11,-2 -16,-7 -4,-4 -6,-9 -6,-16l0 -26c0,-6 2,-12 6,-16 5,-5 10,-7 16,-7l6 0c6,0 12,2 16,7 5,4 7,9 7,16l0 26zm-10 0l0 -26c0,-4 -2,-7 -4,-9 -2,-2 -5,-4 -9,-4l-6 0c-3,0 -6,2 -9,4 -2,2 -3,5 -3,9l0 26c0,4 1,7 3,9 3,2 6,4 9,4l6 0c4,0 7,-2 9,-4 2,-2 4,-5 4,-9zm133 -18l0 -26c0,-1 0,-2 1,-4 1,0 2,-1 4,-1 1,0 2,1 3,1 1,1 2,3 2,4l0 62c0,1 -1,3 -2,4 -1,0 -2,1 -3,1 -2,0 -3,-1 -4,-1 -1,-1 -1,-3 -1,-4l0 -26 -31 0 0 26c0,1 -1,3 -2,4 -1,0 -2,1 -3,1 -2,0 -3,-1 -4,-1 -1,-1 -1,-3 -1,-4l0 -62c0,-1 0,-2 1,-4 1,0 2,-1 4,-1 1,0 2,1 3,1 1,1 2,3 2,4l0 26 31 0zm65 20l0 -41 -20 0c-3,0 -6,1 -8,3 -1,1 -2,2 -2,4 -1,1 -1,2 -1,4l0 30c0,3 1,6 3,8 1,1 2,1 3,2 2,0 3,1 5,1l10 0c3,0 5,-1 7,-3 2,-2 3,-5 3,-8zm5 14c-2,2 -4,4 -7,5 -3,1 -5,2 -8,2l-10 0c-6,0 -11,-2 -15,-6 -4,-4 -6,-9 -6,-15l0 -30c0,-6 2,-11 6,-15 4,-4 9,-6 15,-6l25 0c4,0 5,2 5,5l0 46c0,2 1,4 2,7 1,1 3,3 5,4 2,1 4,2 4,5 0,1 -1,2 -2,3 -1,1 -2,2 -4,2 0,0 -1,0 -2,-1 -3,-1 -6,-3 -8,-6zm47 -24l-7 0c-2,0 -3,0 -4,-1 -1,-1 -1,-3 -1,-4 0,-1 0,-2 1,-4 1,-1 2,-1 4,-1l5 0c3,0 6,-1 8,-3 2,-2 2,-5 2,-7 0,-3 0,-6 -2,-8 -1,0 -2,-1 -3,-2 -2,0 -3,-1 -5,-1l-5 0c-5,0 -9,2 -12,5 -1,0 -2,0 -3,1 -1,0 -3,-1 -4,-2 -1,-1 -1,-2 -1,-4 0,-1 0,-3 2,-4 5,-4 11,-6 18,-6l5 0c7,0 12,2 15,7 4,3 6,8 6,14 0,1 -1,3 -1,4 0,1 0,3 -1,4 -1,2 -3,5 -5,7 2,2 4,4 5,7l1 4c0,1 1,3 1,4 0,6 -2,11 -6,14 -3,5 -8,7 -15,7l-5 0c-7,0 -13,-2 -18,-6 -2,-1 -2,-3 -2,-4 0,-2 0,-3 1,-4 1,-1 2,-2 4,-2 1,0 2,1 3,2 3,2 7,4 12,4l5 0c3,0 6,-1 8,-3 1,-3 2,-5 2,-8 0,-2 0,-5 -2,-6 -1,-2 -3,-3 -6,-4zm74 -10l0 -26c0,-1 0,-2 1,-4 1,0 3,-1 4,-1 1,0 2,1 3,1 2,1 2,3 2,4l0 62c0,1 0,3 -1,4 -1,0 -3,1 -4,1 -1,0 -3,-1 -4,-1 -1,-1 -1,-3 -1,-4l0 -26 -31 0 0 26c0,1 0,3 -1,4 -1,0 -3,1 -4,1 -1,0 -3,-1 -4,-1 -1,-1 -1,-3 -1,-4l0 -62c0,-1 0,-2 1,-4 1,0 3,-1 4,-1 1,0 2,1 3,1 2,1 2,3 2,4l0 26 31 0zm65 20l0 -41 -20 0c-3,0 -6,1 -8,3 -1,1 -1,2 -2,4 0,1 -1,2 -1,4l0 30c0,3 1,6 3,8 1,1 3,1 4,2 1,0 3,1 4,1l10 0c3,0 5,-1 7,-3 2,-2 3,-5 3,-8zm5 14c-1,2 -4,4 -6,5 -3,1 -6,2 -9,2l-10 0c-6,0 -11,-2 -15,-6 -4,-4 -6,-9 -6,-15l0 -30c0,-6 2,-11 6,-15 4,-4 9,-6 15,-6l25 0c4,0 5,2 5,5l0 46c0,2 1,4 2,7 2,1 3,3 6,4 2,1 3,2 3,5 0,1 -1,2 -2,3 -1,1 -2,2 -3,2 -1,0 -2,0 -2,-1 -4,-1 -7,-3 -9,-6zm61 -34l0 -26c0,-1 0,-2 1,-4 1,0 2,-1 4,-1 1,0 2,1 3,1 1,1 2,3 2,4l0 62c0,1 -1,3 -2,4 0,0 -2,1 -3,1 -2,0 -3,-1 -4,-1 -1,-1 -1,-3 -1,-4l0 -26 -21 0c-5,0 -10,-2 -14,-6 -4,-4 -6,-9 -6,-14l0 -16c0,-1 0,-2 1,-4 1,0 3,-1 4,-1 1,0 2,1 3,1 1,1 2,3 2,4l0 16c0,2 1,5 3,7 1,1 2,2 3,2 2,1 3,1 4,1l21 0zm34 0l31 0 0 -10c0,-3 -1,-6 -3,-8 -2,-2 -4,-3 -7,-3l-10 0c-3,0 -6,1 -8,3 -1,1 -1,2 -2,4 0,1 -1,2 -1,4l0 10zm0 10l0 10c0,3 1,6 3,8 1,1 2,1 4,2 1,0 2,1 4,1l25 0c2,0 3,0 4,1 1,1 1,2 1,4 0,1 0,2 -1,3 -1,1 -2,2 -4,2l-25 0c-6,0 -11,-2 -15,-6 -4,-4 -6,-9 -6,-15l0 -30c0,-6 2,-11 6,-15 4,-4 9,-6 15,-6l10 0c5,0 10,2 14,6 4,4 6,9 6,15l0 15c0,3 -1,5 -5,5l-36 0zm97 -10l0 -26c0,-1 0,-2 1,-4 1,0 2,-1 4,-1 1,0 2,1 3,1 1,1 2,3 2,4l0 62c0,1 -1,3 -2,4 -1,0 -2,1 -3,1 -2,0 -3,-1 -4,-1 -1,-1 -1,-3 -1,-4l0 -26 -31 0 0 26c0,1 -1,3 -2,4 -1,0 -2,1 -3,1 -2,0 -3,-1 -4,-1 -1,-1 -1,-3 -1,-4l0 -62c0,-1 0,-2 1,-4 1,0 2,-1 4,-1 1,0 2,1 3,1 1,1 2,3 2,4l0 26 31 0zm75 36c0,3 -1,5 -5,5l-25 0c-6,0 -11,-2 -15,-6 -4,-4 -6,-9 -6,-15l0 -46c0,-1 1,-2 2,-4 1,0 2,-1 3,-1 1,0 3,1 4,1 1,1 1,3 1,4l0 46c0,3 1,6 3,8 1,1 2,1 4,2 1,0 2,1 4,1l20 0 0 -57c0,-1 1,-2 2,-4 1,0 2,-1 3,-1 1,0 3,1 4,1 1,1 1,3 1,4l0 62zm66 0c0,3 -2,5 -5,5l-26 0c-5,0 -10,-2 -14,-6 -4,-4 -6,-9 -6,-15l0 -46c0,-1 0,-2 1,-4 1,0 2,-1 4,-1 1,0 2,1 3,1 1,1 2,3 2,4l0 46c0,3 1,6 3,8 1,1 2,1 3,2 1,0 3,1 4,1l21 0 0 -57c0,-1 0,-2 1,-4 1,0 2,-1 4,-1 1,0 2,1 3,1 1,1 2,3 2,4l0 62zm123 -16l0 -30c0,-3 -1,-6 -3,-8 -2,-2 -5,-3 -8,-3l-10 0c-3,0 -5,1 -7,3 -1,1 -2,2 -3,4 0,1 0,2 0,4l0 30c0,3 1,6 3,8 1,1 2,1 3,2 1,0 3,1 4,1l10 0c3,0 6,-1 7,-3 3,-2 4,-5 4,-8zm-31 -47l4 -3 6 -4c2,-2 3,-3 4,-4 1,-2 2,-3 2,-5 0,-2 -1,-4 -2,-6 -2,-1 -4,-2 -6,-2 -2,0 -4,1 -6,2 -2,1 -2,3 -2,6l0 16zm20 -3c7,0 12,1 16,5 3,4 5,9 5,15l0 30c0,6 -2,11 -6,15 -4,4 -9,6 -15,6l-10 0c-6,0 -10,-2 -14,-6 -4,-4 -6,-9 -6,-15l0 -63c0,-6 1,-10 5,-14 4,-3 8,-5 13,-5 5,0 9,2 13,5 3,4 5,8 5,14 0,3 0,6 -1,7 -1,2 -2,4 -5,6zm96 66c0,1 0,3 -1,4 -1,0 -2,1 -4,1 -1,0 -2,-1 -3,-1 -1,-1 -2,-3 -2,-4l0 -62c0,-1 1,-2 2,-4 1,0 2,-1 3,-1 2,0 3,1 4,1 1,1 1,3 1,4l0 62zm-51 -26l0 21 10 0c4,0 6,-1 8,-3 2,-3 3,-5 3,-8 0,-3 -1,-5 -3,-7 -1,-1 -2,-2 -3,-2 -1,-1 -3,-1 -5,-1l-10 0zm0 -10l10 0c7,0 12,2 16,6 3,4 5,9 5,14 0,6 -2,10 -5,14 -4,5 -9,7 -16,7l-15 0c-3,0 -5,-2 -5,-5l0 -62c0,-1 0,-2 1,-4 2,0 3,-1 4,-1 1,0 3,1 4,1 1,1 1,3 1,4l0 26zm107 20l0 -30c0,-3 -1,-6 -3,-8 -2,-2 -5,-3 -8,-3l-10 0c-3,0 -5,1 -7,3 -1,1 -2,2 -2,4 -1,1 -1,2 -1,4l0 30c0,3 1,6 3,8 1,1 2,1 3,2 2,0 3,1 4,1l10 0c3,0 6,-1 8,-3 2,-2 3,-5 3,-8zm-17 -51l-23 -22c-1,-1 -2,-2 -2,-4 0,-1 1,-2 2,-3 1,-1 2,-2 4,-2l41 0c1,0 2,1 3,2 1,1 2,2 2,4 0,1 -1,2 -1,3 -1,1 -3,2 -4,2l-28 0 27 26 1 1c3,4 5,9 5,14l0 30c0,6 -2,11 -6,15 -4,4 -9,6 -15,6l-10 0c-5,0 -10,-2 -14,-6 -4,-4 -6,-9 -6,-15l0 -30c0,-6 2,-11 6,-15 4,-4 8,-6 14,-6l4 0zm92 49c0,6 -2,12 -6,16 -5,5 -10,7 -16,7l-6 0c-6,0 -12,-2 -16,-7 -5,-4 -7,-9 -7,-16l0 -26c0,-6 2,-12 7,-16 4,-5 9,-7 16,-7l6 0c6,0 11,2 16,7 4,4 6,9 6,16l0 26zm-10 0l0 -26c0,-4 -1,-7 -3,-9 -3,-2 -6,-4 -9,-4l-6 0c-4,0 -7,2 -9,4 -3,2 -4,5 -4,9l0 26c0,4 1,7 4,9 2,2 5,4 9,4l6 0c3,0 6,-2 8,-4 3,-2 4,-5 4,-9zm35 13l20 0c3,0 6,-1 8,-3 2,-2 3,-5 3,-8l0 -30c0,-3 -1,-6 -3,-8 -2,-2 -5,-3 -8,-3l-20 0 0 52zm0 10l0 25c0,2 -1,3 -2,4 -1,1 -2,1 -3,1 -2,0 -3,0 -4,-1 -1,-1 -1,-2 -1,-4l0 -92c0,-3 1,-5 5,-5l25 0c6,0 11,2 15,6 4,4 6,9 6,15l0 30c0,6 -2,11 -6,15 -4,4 -9,6 -15,6l-20 0zm106 -23c0,6 -2,12 -6,16 -5,5 -10,7 -16,7l-6 0c-7,0 -12,-2 -16,-7 -5,-4 -7,-9 -7,-16l0 -26c0,-6 2,-12 7,-16 4,-5 9,-7 16,-7l6 0c6,0 11,2 15,7 5,4 7,9 7,16l0 26zm-10 0l0 -26c0,-4 -1,-7 -4,-9 -2,-2 -5,-4 -8,-4l-7 0c-3,0 -6,2 -8,4 -3,2 -4,5 -4,9l0 26c0,4 1,7 4,9 2,2 5,4 8,4l7 0c3,0 6,-2 8,-4 3,-2 4,-5 4,-9zm65 2l0 -30c0,-3 -1,-6 -2,-8 -2,-2 -5,-3 -8,-3l-10 0c-3,0 -5,1 -7,3 -1,1 -2,2 -3,4 0,1 0,2 0,4l0 30c0,3 1,6 3,8 1,1 2,1 3,2 1,0 3,1 4,1l10 0c3,0 5,-1 7,-3 2,-2 3,-5 3,-8zm-30 -47l4 -3 6 -4c2,-2 3,-3 4,-4 1,-2 2,-3 2,-5 0,-2 -1,-4 -2,-6 -2,-1 -4,-2 -6,-2 -2,0 -4,1 -6,2 -2,1 -2,3 -2,6l0 16zm20 -3c7,0 12,1 16,5 3,4 5,9 5,15l0 30c0,6 -2,11 -6,15 -4,4 -9,6 -15,6l-10 0c-6,0 -10,-2 -14,-6 -5,-4 -7,-9 -7,-15l0 -63c0,-6 2,-10 6,-14 4,-3 8,-5 13,-5 5,0 9,2 13,5 3,4 5,8 5,14 0,3 0,6 -1,7 -1,2 -3,4 -5,6z"/>
   <path class="fil3" d="M8793 5757l-995 0 0 852 995 0 0 -852z"/>
   <g>
    <path class="fil5 str0" d="M5988 5682c0,2 0,3 -1,4 -1,1 -2,1 -4,1 -1,0 -3,0 -4,-1 -1,-1 -1,-2 -1,-4l0 -46c0,-3 -1,-5 -3,-7 -2,-2 -4,-3 -7,-3l-21 0 0 56c0,2 0,3 -1,4 -1,1 -2,1 -4,1 -1,0 -3,0 -4,-1 -1,-1 -1,-2 -1,-4l0 -61c0,-4 2,-5 5,-5l26 0c5,0 10,2 14,6 4,3 6,8 6,14l0 46zm62 5l-21 0c-5,0 -10,-2 -14,-6 -4,-4 -6,-8 -6,-14l0 -46c0,-2 0,-3 1,-4 1,-1 2,-1 4,-1 1,0 2,0 3,1 1,1 2,2 2,4l0 46c0,3 1,5 3,7 1,1 2,2 3,2 1,1 3,1 4,1l21 0 0 -56c0,-2 0,-3 1,-4 1,-1 2,-1 4,-1 1,0 2,0 3,1 1,1 2,2 2,4l0 77c0,5 -2,10 -6,14 -4,4 -9,6 -15,6l-20 0c-2,0 -3,-1 -4,-2 -1,-1 -1,-2 -1,-3 0,-1 0,-3 1,-4 1,-1 2,-1 4,-1l20 0c3,0 6,-1 8,-3 2,-2 3,-4 3,-7l0 -11zm71 -20l0 -31c0,-3 -1,-5 -3,-7 -2,-2 -4,-3 -7,-3l-10 0c-3,0 -6,1 -8,3 -1,1 -2,2 -2,3 0,1 -1,3 -1,4l0 31c0,3 1,5 3,7 1,1 2,2 4,2 1,1 2,1 4,1l10 0c3,0 5,-1 7,-3 2,-2 3,-4 3,-7zm-16 -51l-23 -22c-2,-2 -2,-3 -2,-4 0,-2 0,-3 1,-4 1,-1 2,-1 4,-1l41 0c2,0 3,1 4,2 1,1 1,2 1,3 0,1 0,2 -1,3 -1,2 -2,2 -4,2l-28 0 27 26 1 2c4,4 5,8 5,13l0 31c0,5 -2,10 -6,14 -4,4 -9,6 -14,6l-10 0c-6,0 -11,-2 -15,-6 -4,-4 -6,-8 -6,-14l0 -31c0,-6 2,-10 6,-14 4,-4 9,-6 15,-6l4 0zm98 66c0,2 -1,3 -2,4 -1,1 -2,1 -3,1 -2,0 -3,0 -4,-1 -1,-1 -1,-2 -1,-4l0 -56 -12 0 -19 58c-1,1 -1,2 -2,3 0,0 -1,0 -3,0 -1,0 -2,0 -4,-1 -1,-1 -1,-2 -1,-4l0 -1 20 -62c1,-2 3,-3 5,-3l21 0c3,0 5,1 5,5l0 61zm71 0c0,4 -1,5 -5,5l-25 0c-6,0 -11,-2 -15,-6 -4,-4 -6,-8 -6,-14l0 -46c0,-2 1,-3 2,-4 1,-1 2,-1 3,-1 2,0 3,0 4,1 1,1 1,2 1,4l0 46c0,3 1,5 3,7 1,1 3,2 4,2 1,1 2,1 4,1l20 0 0 -56c0,-2 1,-3 2,-4 1,-1 2,-1 3,-1 2,0 3,0 4,1 1,1 1,2 1,4l0 61zm42 -28l-12 12 0 16c0,2 0,3 -1,4 -1,1 -3,1 -4,1 -1,0 -3,0 -4,-1 -1,-1 -1,-2 -1,-4l0 -61c0,-2 0,-3 1,-4 1,-1 3,-1 4,-1 1,0 2,0 3,1 1,1 2,2 2,4l0 30 32 -34c1,-1 2,-2 4,-2 1,0 2,1 3,2 1,1 2,2 2,4 0,1 -1,3 -2,4l-20 21 21 33c0,1 1,2 1,3 0,2 -1,3 -2,4 -1,1 -2,1 -3,1 -2,0 -3,0 -4,-2l-20 -31zm91 33l-20 0c-6,0 -10,-2 -14,-6 -5,-4 -7,-8 -7,-14l0 -46c0,-2 1,-3 2,-4 1,-1 2,-1 4,-1 1,0 2,0 3,1 1,1 2,2 2,4l0 46c0,3 1,5 3,7 1,1 2,2 3,2 1,1 3,1 4,1l20 0 0 -56c0,-2 1,-3 2,-4 1,-1 2,-1 4,-1 1,0 2,0 3,1 1,1 2,2 2,4l0 77c0,5 -2,10 -6,14 -4,4 -9,6 -15,6l-20 0c-2,0 -3,-1 -4,-2 -1,-1 -1,-2 -1,-3 0,-1 0,-3 1,-4 1,-1 2,-1 4,-1l20 0c3,0 5,-1 7,-3 2,-2 3,-4 3,-7l0 -11zm41 -41l31 0 0 -10c0,-3 -1,-5 -3,-7 -2,-2 -4,-3 -7,-3l-11 0c-2,0 -5,1 -7,3 -1,1 -2,2 -2,3 -1,1 -1,3 -1,4l0 10zm0 11l0 10c0,3 1,5 3,7 1,1 2,2 3,2 2,1 3,1 4,1l26 0c1,0 3,1 4,2 1,1 1,2 1,3 0,1 0,3 -1,4 -1,1 -2,1 -4,1l-26 0c-5,0 -10,-2 -14,-6 -4,-4 -6,-8 -6,-14l0 -31c0,-5 2,-10 6,-14 4,-4 9,-6 14,-6l11 0c5,0 10,2 14,6 4,4 6,8 6,14l0 15c0,4 -2,6 -5,6l-36 0zm92 -31l-20 0 0 56c0,2 -1,3 -2,4 -1,1 -2,1 -3,1 -2,0 -3,0 -4,-1 -1,-1 -1,-2 -1,-4l0 -61c0,-4 1,-5 5,-5l46 0c5,0 10,2 14,6 4,4 6,8 6,14l0 46c0,2 0,3 -1,4 -1,1 -2,1 -4,1 -1,0 -3,0 -4,-1 -1,-1 -1,-2 -1,-4l0 -46c0,-3 -1,-5 -3,-7 -2,-2 -4,-3 -7,-3l-11 0 0 56c0,2 0,3 -1,4 -1,1 -2,1 -4,1 -1,0 -2,0 -3,-1 -1,-1 -2,-2 -2,-4l0 -56zm97 61l-15 0c-5,0 -10,-2 -14,-6 -4,-4 -6,-8 -6,-14l0 -31c0,-6 2,-10 6,-14 4,-4 8,-6 14,-6l15 0c2,0 3,0 4,1 1,1 2,2 2,4 0,1 -1,2 -2,3 -1,1 -2,2 -4,2l-15 0c-3,0 -5,1 -7,3 -1,1 -2,2 -2,3 -1,1 -1,3 -1,4l0 31c0,3 1,5 3,7 1,1 2,2 3,2 2,1 3,1 4,1l15 0c2,0 3,1 4,2 1,1 2,2 2,3 0,1 -1,3 -2,4 -1,1 -2,1 -4,1zm67 -41l0 -20 -21 0c-2,0 -5,1 -7,3 -2,2 -3,4 -3,7 0,3 1,5 3,7 2,2 4,3 7,3l21 0zm-13 11l-19 28c0,1 -1,1 -2,2l-2 0c-1,0 -2,0 -3,-1 -1,-1 -2,-2 -2,-4 0,-1 0,-2 1,-3l15 -23c-5,0 -9,-3 -12,-7 -3,-4 -4,-8 -4,-13 0,-5 2,-10 5,-14 4,-4 9,-6 15,-6l26 0c3,0 5,1 5,5l0 61c0,2 0,3 -1,4 -1,1 -2,1 -4,1 -1,0 -2,0 -3,-1 -2,-1 -2,-2 -2,-4l0 -25 -13 0zm146 -11l0 -25c0,-2 0,-3 1,-4 1,-1 3,-1 4,-1 1,0 3,0 4,1 1,1 1,2 1,4l0 61c0,2 0,3 -1,4 -1,1 -2,1 -4,1 -1,0 -3,0 -4,-1 -1,-1 -1,-2 -1,-4l0 -26 -31 0 0 26c0,2 0,3 -1,4 -1,1 -2,1 -4,1 -1,0 -3,0 -4,-1 -1,-1 -1,-2 -1,-4l0 -61c0,-2 0,-3 1,-4 1,-1 3,-1 4,-1 1,0 3,0 4,1 1,1 1,2 1,4l0 25 31 0zm41 0l31 0 0 -10c0,-3 -1,-5 -3,-7 -2,-2 -5,-3 -8,-3l-10 0c-3,0 -5,1 -7,3 -1,1 -2,2 -3,3 0,1 0,3 0,4l0 10zm0 11l0 10c0,3 1,5 3,7 1,1 2,2 3,2 1,1 3,1 4,1l26 0c1,0 2,1 3,2 1,1 2,2 2,3 0,1 -1,3 -2,4 0,1 -2,1 -3,1l-26 0c-6,0 -10,-2 -14,-6 -4,-4 -6,-8 -6,-14l0 -31c0,-5 1,-10 5,-14 4,-4 9,-6 15,-6l10 0c6,0 11,2 15,6 4,4 6,8 6,14l0 15c0,4 -2,6 -5,6l-36 0zm174 25c0,2 -1,3 -2,4 -1,1 -2,1 -3,1 -2,0 -3,0 -4,-1 -1,-1 -2,-2 -2,-4l0 -46c0,-3 -1,-5 -2,-7 -2,-2 -5,-3 -8,-3l-20 0 0 56c0,2 -1,3 -2,4 -1,1 -2,1 -3,1 -2,0 -3,0 -4,-1 -1,-1 -2,-2 -2,-4l0 -61c0,-4 2,-5 6,-5l25 0c6,0 10,2 14,6 5,3 7,8 7,14l0 46zm71 -17c0,6 -2,11 -6,16 -5,4 -10,6 -16,6l-6 0c-7,0 -12,-2 -16,-6 -5,-5 -7,-10 -7,-16l0 -27c0,-6 2,-11 7,-16 4,-4 9,-6 16,-6l6 0c6,0 11,2 16,6 4,5 6,10 6,16l0 27zm-10 0l0 -27c0,-3 -1,-6 -4,-9 -2,-2 -5,-3 -8,-3l-6 0c-4,0 -7,1 -9,3 -3,3 -4,6 -4,9l0 27c0,3 1,6 4,8 2,3 5,4 9,4l6 0c3,0 6,-1 8,-3 3,-3 4,-6 4,-9zm58 -9l-7 0c-1,0 -3,0 -4,-1 -1,-1 -1,-2 -1,-4 0,-1 0,-2 1,-3 1,-1 3,-2 4,-2l5 0c3,0 6,-1 8,-3 2,-2 3,-4 3,-7 0,-3 -1,-5 -3,-7 -1,-1 -2,-2 -3,-2 -1,-1 -3,-1 -5,-1l-5 0c-5,0 -9,1 -12,4 -1,1 -2,1 -3,1 -1,0 -3,0 -4,-1 -1,-1 -1,-3 -1,-4 0,-2 0,-3 2,-4 5,-4 11,-6 18,-6l5 0c7,0 12,2 16,6 3,4 5,9 5,14 0,2 0,3 -1,5 0,1 0,2 -1,4 -1,2 -2,4 -5,6 2,2 4,5 5,7l1 5c1,1 1,2 1,4 0,6 -2,10 -5,14 -4,4 -9,6 -16,6l-5 0c-7,0 -13,-2 -18,-6 -2,-1 -2,-2 -2,-4 0,-1 0,-2 1,-3 1,-2 2,-2 4,-2 1,0 2,0 3,1 3,3 8,4 12,4l5 0c3,0 6,-1 8,-3 2,-2 3,-5 3,-7 0,-3 -1,-5 -3,-7 -1,-2 -3,-3 -6,-4zm80 -30l-20 0c-3,0 -6,1 -8,3 -1,1 -2,2 -2,3 0,1 -1,3 -1,4l0 31c0,3 1,5 3,7 1,1 2,2 4,2 1,1 2,1 4,1l10 0c3,0 5,-1 7,-3 2,-2 3,-4 3,-7l0 -41zm0 -10l0 -11c0,-2 -1,-5 -3,-7 -2,-2 -4,-3 -7,-3l-21 0c-1,0 -2,0 -3,-1 -1,-1 -2,-3 -2,-4 0,-1 1,-2 1,-3 1,-1 3,-2 4,-2l21 0c6,0 10,2 14,6 4,4 6,9 6,14l0 62c0,5 -2,10 -6,14 -4,4 -9,6 -14,6l-10 0c-6,0 -11,-2 -15,-6 -4,-4 -6,-8 -6,-14l0 -31c0,-6 2,-10 6,-14 4,-4 9,-6 15,-6l20 0zm72 30l0 -25c0,-2 0,-3 1,-4 1,-1 2,-1 4,-1 1,0 2,0 3,1 1,1 2,2 2,4l0 61c0,2 -1,3 -2,4 -1,1 -2,1 -3,1 -2,0 -3,0 -4,-1 -1,-1 -1,-2 -1,-4l0 -26 -31 0 0 26c0,2 -1,3 -2,4 -1,1 -2,1 -3,1 -2,0 -3,0 -4,-1 -1,-1 -1,-2 -1,-4l0 -61c0,-2 0,-3 1,-4 1,-1 2,-1 4,-1 1,0 2,0 3,1 1,1 2,2 2,4l0 25 31 0zm40 0l31 0 0 -10c0,-3 -1,-5 -3,-7 -2,-2 -4,-3 -7,-3l-10 0c-3,0 -6,1 -8,3 -1,1 -1,2 -2,3 0,1 -1,3 -1,4l0 10zm0 11l0 10c0,3 1,5 3,7 1,1 3,2 4,2 1,1 2,1 4,1l25 0c2,0 3,1 4,2 1,1 1,2 1,3 0,1 0,3 -1,4 -1,1 -2,1 -4,1l-25 0c-6,0 -11,-2 -15,-6 -4,-4 -6,-8 -6,-14l0 -31c0,-5 2,-10 6,-14 4,-4 9,-6 15,-6l10 0c6,0 10,2 14,6 4,4 6,8 6,14l0 15c0,4 -1,6 -5,6l-36 0zm72 -11l31 0 0 -10c0,-3 -1,-5 -3,-7 -2,-2 -4,-3 -7,-3l-11 0c-3,0 -5,1 -7,3 -1,1 -2,2 -2,3 -1,1 -1,3 -1,4l0 10zm0 11l0 10c0,3 1,5 3,7 1,1 2,2 3,2 2,1 3,1 4,1l26 0c1,0 3,1 4,2 1,1 1,2 1,3 0,1 0,3 -1,4 -1,1 -2,1 -4,1l-26 0c-5,0 -10,-2 -14,-6 -4,-4 -6,-8 -6,-14l0 -31c0,-5 2,-10 6,-14 4,-4 9,-6 14,-6l11 0c5,0 10,2 14,6 4,4 6,8 6,14l0 15c0,4 -2,6 -5,6l-36 0zm-1452 153l0 -26c0,-1 1,-2 2,-3 1,-1 2,-2 3,-2 1,0 3,1 4,2 1,0 1,2 1,3l0 62c0,1 0,3 -1,4 -1,1 -2,1 -4,1 -1,0 -2,0 -3,-1 -1,-1 -2,-2 -2,-4l0 -26 -20 0c-6,0 -11,-2 -15,-6 -4,-4 -6,-9 -6,-14l0 -16c0,-1 1,-2 2,-3 1,-1 2,-2 3,-2 1,0 3,1 4,2 1,0 1,2 1,3l0 16c0,3 1,5 3,7 1,1 2,2 3,2 2,1 3,1 4,1l21 0zm41 0l31 0 0 -10c0,-3 -1,-6 -3,-8 -2,-1 -5,-2 -8,-2l-10 0c-3,0 -5,0 -7,2 -1,1 -2,3 -2,4 -1,1 -1,2 -1,4l0 10zm0 10l0 11c0,2 1,5 3,7 1,1 2,1 3,2 1,1 3,1 4,1l26 0c1,0 2,0 3,1 1,1 2,3 2,4 0,1 -1,2 -1,3 -1,1 -3,2 -4,2l-26 0c-5,0 -10,-2 -14,-6 -4,-4 -6,-9 -6,-14l0 -31c0,-6 2,-10 6,-15 4,-4 8,-6 14,-6l10 0c6,0 11,2 15,6 4,4 6,9 6,15l0 15c0,4 -2,5 -5,5l-36 0zm123 26l0 -62c0,-1 -1,-3 -2,-4 -1,-1 -2,-1 -3,-1 -1,0 -3,1 -5,3l-21 29 -22 -29c-1,-2 -2,-3 -4,-3 -1,0 -3,0 -4,1 0,1 -1,3 -1,4l0 62c0,1 1,3 2,4 1,1 2,1 3,1 2,0 3,0 4,-1 1,-1 1,-3 1,-4l0 -46 17 23c1,2 2,3 4,3 1,0 3,-1 4,-3l16 -23 0 46c0,1 1,3 2,4 1,1 2,1 3,1 2,0 3,0 4,-1 1,-1 2,-3 2,-4zm122 -36l0 -26c0,-1 1,-2 2,-3 1,-1 2,-2 3,-2 2,0 3,1 4,2 1,0 2,2 2,3l0 62c0,1 -1,3 -2,4 -1,1 -2,1 -4,1 -1,0 -2,0 -3,-1 -1,-1 -2,-2 -2,-4l0 -26 -20 0c-6,0 -10,-2 -15,-6 -4,-4 -6,-9 -6,-14l0 -16c0,-1 1,-2 2,-3 1,-1 2,-2 3,-2 2,0 3,1 4,2 1,0 2,2 2,3l0 16c0,3 1,5 2,7 2,1 3,2 4,2 1,1 3,1 4,1l20 0zm41 0l31 0 0 -10c0,-3 -1,-6 -3,-8 -2,-1 -4,-2 -7,-2l-11 0c-2,0 -5,0 -7,2 -1,1 -2,3 -2,4 -1,1 -1,2 -1,4l0 10zm0 10l0 11c0,2 1,5 3,7 1,1 2,1 3,2 2,1 3,1 4,1l26 0c1,0 3,0 4,1 1,1 1,3 1,4 0,1 0,2 -1,3 -1,1 -2,2 -4,2l-26 0c-5,0 -10,-2 -14,-6 -4,-4 -6,-9 -6,-14l0 -31c0,-6 2,-10 6,-15 4,-4 9,-6 14,-6l11 0c5,0 10,2 14,6 4,4 6,9 6,15l0 15c0,4 -2,5 -5,5l-36 0zm72 21l20 0c3,0 6,-1 8,-3 2,-2 3,-4 3,-7l0 -31c0,-3 -1,-6 -3,-8 -2,-1 -5,-2 -8,-2l-20 0 0 51zm0 10l0 26c0,1 -1,2 -2,3 -1,1 -2,2 -3,2 -2,0 -3,-1 -4,-2 -1,0 -1,-2 -1,-3l0 -93c0,-3 1,-5 5,-5l25 0c6,0 11,2 15,6 4,4 6,9 6,15l0 31c0,5 -2,10 -6,14 -4,4 -9,6 -15,6l-20 0zm71 -41l31 0 0 -10c0,-3 -1,-6 -3,-8 -2,-1 -4,-2 -7,-2l-10 0c-3,0 -6,0 -8,2 -1,1 -1,3 -2,4 0,1 -1,2 -1,4l0 10zm0 10l0 11c0,2 1,5 3,7 1,1 2,1 4,2 1,1 2,1 4,1l25 0c2,0 3,0 4,1 1,1 1,3 1,4 0,1 0,2 -1,3 -1,1 -2,2 -4,2l-25 0c-6,0 -11,-2 -15,-6 -4,-4 -6,-9 -6,-14l0 -31c0,-6 2,-10 6,-15 4,-4 9,-6 15,-6l10 0c5,0 10,2 14,6 4,4 6,9 6,15l0 15c0,4 -1,5 -5,5l-36 0z"/>
    <path class="fil5 str0" d="M6542 5820l-7 0c-1,0 -3,0 -4,-1 0,-1 -1,-3 -1,-4 0,-1 1,-2 1,-3 1,-1 3,-2 4,-2l5 0c3,0 6,-1 8,-3 2,-2 3,-5 3,-7 0,-3 -1,-5 -3,-7 -1,-1 -2,-2 -3,-3 -1,0 -3,0 -5,0l-5 0c-4,0 -9,1 -12,4 -1,0 -2,1 -3,1 -1,0 -2,-1 -4,-2 -1,-1 -1,-2 -1,-3 0,-2 0,-3 2,-5 5,-4 11,-6 18,-6l5 0c7,0 12,2 16,7 3,4 5,8 5,14 0,1 0,3 -1,4 0,2 0,3 -1,4 -1,3 -2,5 -5,7 2,2 4,4 5,7l1 4c1,2 1,3 1,5 0,5 -2,10 -5,14 -4,4 -9,6 -16,6l-5 0c-7,0 -13,-2 -18,-6 -2,-1 -2,-3 -2,-4 0,-1 0,-3 1,-4 1,-1 2,-2 4,-2 1,0 2,1 3,2 4,2 8,4 12,4l5 0c3,0 6,-1 8,-3 2,-2 3,-5 3,-8 0,-2 -1,-4 -3,-6 -1,-2 -3,-3 -6,-4zm152 26c0,1 -1,3 -2,4 -1,1 -2,1 -3,1 -2,0 -3,0 -4,-1 -1,-1 -1,-2 -1,-4l0 -46c0,-3 -1,-6 -3,-8 -2,-1 -5,-2 -8,-2l-20 0 0 56c0,1 -1,3 -2,4 -1,1 -2,1 -3,1 -2,0 -3,0 -4,-1 -1,-1 -1,-2 -1,-4l0 -62c0,-3 1,-5 5,-5l25 0c6,0 10,2 15,6 4,4 6,9 6,15l0 46zm61 -36l0 -20 -20 0c-3,0 -6,1 -8,3 -2,2 -3,4 -3,7 0,2 1,5 3,7 2,2 4,3 8,3l20 0zm-12 10l-19 29c-1,0 -2,1 -2,1l-3 1c-1,0 -2,-1 -3,-2 -1,-1 -2,-2 -2,-3 0,-1 0,-2 1,-3l15 -23c-5,-1 -9,-3 -12,-7 -2,-4 -4,-8 -4,-13 0,-6 2,-10 5,-14 4,-5 9,-7 16,-7l25 0c4,0 5,2 5,5l0 62c0,1 0,3 -1,4 -1,1 -2,1 -4,1 -1,0 -2,0 -3,-1 -1,-1 -2,-2 -2,-4l0 -26 -12 0zm73 -30l-20 0 0 56c0,1 -1,3 -2,4 0,1 -2,1 -3,1 -2,0 -3,0 -4,-1 -1,-1 -1,-2 -1,-4l0 -62c0,-3 1,-5 5,-5l46 0c5,0 10,2 14,6 4,4 6,9 6,15l0 46c0,1 0,3 -1,4 -1,1 -2,1 -4,1 -1,0 -2,0 -3,-1 -1,-1 -2,-2 -2,-4l0 -46c0,-3 -1,-6 -3,-8 -2,-1 -4,-2 -7,-2l-10 0 0 56c0,1 -1,3 -2,4 -1,1 -2,1 -4,1 -1,0 -2,0 -3,-1 -1,-1 -2,-2 -2,-4l0 -56zm72 30l0 21 20 0c4,0 6,-1 8,-3 2,-2 3,-5 3,-8 0,-2 -1,-5 -3,-7 -1,-1 -2,-1 -3,-2 -1,-1 -3,-1 -5,-1l-20 0zm0 -10l20 0c7,0 12,2 16,6 3,4 5,9 5,14 0,6 -2,11 -5,15 -4,4 -9,6 -16,6l-25 0c-4,0 -5,-2 -5,-5l0 -62c0,-1 0,-2 1,-3 1,-1 2,-2 4,-2 1,0 2,1 3,2 1,0 2,2 2,3l0 26zm164 -20l-21 0c-3,0 -5,0 -7,2 -1,1 -2,3 -2,4 -1,1 -1,2 -1,4l0 31c0,2 1,5 3,7 1,1 2,1 3,2 2,1 3,1 4,1l10 0c3,0 6,-1 8,-3 2,-2 3,-4 3,-7l0 -41zm0 -11l0 -10c0,-3 -1,-5 -3,-7 -2,-2 -5,-3 -8,-3l-20 0c-2,0 -3,-1 -4,-2 -1,-1 -1,-2 -1,-3 0,-1 0,-3 1,-4 1,-1 2,-1 4,-1l20 0c6,0 11,2 15,6 4,4 6,8 6,14l0 62c0,5 -2,10 -6,14 -4,4 -9,6 -15,6l-10 0c-5,0 -10,-2 -14,-6 -4,-4 -6,-9 -6,-14l0 -31c0,-6 2,-11 6,-15 4,-4 9,-6 14,-6l21 0zm71 31l0 -26c0,-1 1,-2 2,-3 1,-1 2,-2 3,-2 2,0 3,1 4,2 1,0 1,2 1,3l0 62c0,1 0,3 -1,4 -1,1 -2,1 -4,1 -1,0 -2,0 -3,-1 -1,-1 -2,-2 -2,-4l0 -26 -31 0 0 26c0,1 0,3 -1,4 -1,1 -2,1 -4,1 -1,0 -2,0 -3,-1 -1,-1 -2,-2 -2,-4l0 -62c0,-1 1,-2 2,-3 1,-1 2,-2 3,-2 2,0 3,1 4,2 1,0 1,2 1,3l0 26 31 0zm41 0l31 0 0 -10c0,-3 -1,-6 -3,-8 -2,-1 -4,-2 -7,-2l-11 0c-3,0 -5,0 -7,2 -1,1 -2,3 -2,4 -1,1 -1,2 -1,4l0 10zm0 10l0 11c0,2 1,5 3,7 1,1 2,1 3,2 2,1 3,1 4,1l26 0c1,0 3,0 4,1 1,1 1,3 1,4 0,1 0,2 -1,3 -1,1 -2,2 -4,2l-26 0c-5,0 -10,-2 -14,-6 -4,-4 -6,-9 -6,-14l0 -31c0,-6 2,-10 6,-15 4,-4 9,-6 14,-6l11 0c5,0 10,2 14,6 4,4 6,9 6,15l0 15c0,4 -2,5 -5,5l-36 0zm97 -61l-20 0c-2,0 -3,-1 -4,-2 -1,-1 -1,-2 -1,-3 0,-1 0,-3 1,-4 1,-1 2,-1 4,-1l20 0c2,0 3,0 4,1 1,1 1,2 1,4 0,1 0,2 -1,3 -1,1 -2,2 -4,2zm16 87c0,3 -2,5 -6,5l-25 0c-6,0 -10,-2 -14,-6 -5,-4 -7,-9 -7,-14l0 -46c0,-2 1,-3 2,-4 1,-1 2,-2 4,-2 1,0 2,1 3,2 1,1 2,2 2,4l0 46c0,2 1,5 3,7 1,1 2,1 3,2 1,1 3,1 4,1l20 0 0 -56c0,-2 1,-3 2,-4 1,-1 2,-2 4,-2 1,0 2,1 3,2 1,1 2,2 2,4l0 61zm117 5l-15 0c-6,0 -10,-2 -15,-6 -4,-4 -6,-9 -6,-14l0 -31c0,-6 2,-11 6,-15 4,-4 9,-6 15,-6l15 0c2,0 3,1 4,2 1,1 1,2 1,3 0,2 0,3 -1,4 -1,1 -2,2 -4,2l-15 0c-3,0 -6,0 -7,2 -1,1 -2,3 -3,4 0,1 0,2 0,4l0 31c0,2 1,5 3,7 1,1 2,1 3,2 1,1 3,1 4,1l15 0c2,0 3,0 4,1 1,1 1,3 1,4 0,1 0,2 -1,3 -1,1 -2,2 -4,2zm77 -23c0,7 -2,12 -7,16 -4,5 -9,7 -16,7l-6 0c-6,0 -11,-2 -16,-7 -4,-4 -6,-9 -6,-16l0 -26c0,-6 2,-11 6,-16 5,-4 10,-7 16,-7l6 0c6,0 12,3 16,7 5,4 7,10 7,16l0 26zm-10 1l0 -27c0,-4 -1,-6 -4,-9 -2,-2 -5,-3 -9,-3l-6 0c-3,0 -6,1 -8,3 -3,2 -4,5 -4,9l0 27c0,3 1,6 4,8 2,3 5,4 8,4l6 0c4,0 7,-1 9,-4 3,-2 4,-5 4,-8zm-1276 124l-21 0c-2,0 -5,1 -7,3 -1,1 -2,2 -2,3 -1,2 -1,3 -1,4l0 31c0,3 1,6 3,8 1,0 2,1 3,2 2,0 3,1 4,1l11 0c3,0 5,-1 7,-3 2,-2 3,-5 3,-8l0 -41zm0 -10l0 -10c0,-3 -1,-6 -3,-8 -2,-1 -4,-2 -7,-2l-21 0c-1,0 -3,-1 -4,-2 0,-1 -1,-2 -1,-4 0,-1 1,-2 1,-3 1,-1 3,-2 4,-2l21 0c5,0 10,2 14,6 4,4 6,9 6,15l0 61c0,6 -2,11 -6,15 -4,4 -9,6 -14,6l-11 0c-5,0 -10,-2 -14,-6 -4,-4 -6,-9 -6,-15l0 -31c0,-5 2,-10 6,-14 4,-4 9,-6 15,-6l20 0zm72 31l0 -26c0,-1 0,-2 1,-4 1,-1 2,-1 4,-1 1,0 2,0 3,1 1,1 2,2 2,4l0 62c0,1 -1,2 -2,3 -1,1 -2,2 -3,2 -2,0 -3,-1 -4,-2 -1,0 -1,-2 -1,-3l0 -26 -31 0 0 26c0,1 -1,2 -2,3 -1,1 -2,2 -3,2 -2,0 -3,-1 -4,-2 -1,0 -1,-2 -1,-3l0 -62c0,-1 0,-2 1,-4 1,-1 2,-1 4,-1 1,0 2,0 3,1 1,1 2,2 2,4l0 26 31 0zm71 0l0 -21 -20 0c-3,0 -6,1 -8,3 -2,2 -3,5 -3,8 0,2 1,5 3,7 2,2 4,3 8,3l20 0zm-12 10l-19 28c-1,1 -1,2 -2,2l-3 1c-1,0 -2,-1 -3,-2 -1,-1 -2,-2 -2,-3 0,-1 0,-2 1,-3l15 -23c-5,-1 -9,-3 -12,-7 -2,-4 -4,-9 -4,-13 0,-6 2,-11 5,-15 4,-4 9,-6 16,-6l25 0c4,0 5,2 5,5l0 62c0,1 0,2 -1,3 -1,1 -2,2 -4,2 -1,0 -2,-1 -3,-2 -1,0 -2,-2 -2,-3l0 -26 -12 0zm114 -10l31 0 0 -10c0,-3 -1,-6 -3,-8 -2,-2 -4,-3 -7,-3l-10 0c-3,0 -6,1 -8,3 -1,1 -1,2 -2,3 0,2 -1,3 -1,5l0 10zm0 10l0 10c0,3 1,6 3,8 1,0 2,1 4,2 1,0 2,1 4,1l25 0c2,0 3,0 4,1 1,1 1,2 1,4 0,1 0,2 -1,3 -1,1 -2,2 -4,2l-25 0c-6,0 -11,-2 -15,-6 -4,-4 -6,-9 -6,-15l0 -31c0,-5 2,-10 6,-14 4,-4 9,-6 15,-6l10 0c5,0 10,2 14,6 4,4 6,9 6,15l0 15c0,3 -1,5 -5,5l-36 0zm110 26c-2,1 -6,3 -10,4l-6 1 -6 0 -7 0 -6 -1c-4,-1 -7,-3 -9,-6 -3,-3 -4,-6 -4,-10 0,-2 1,-4 1,-6 1,-2 3,-4 5,-6l33 -22c1,-1 1,-2 1,-3 0,-3 -2,-4 -5,-6 -4,-1 -8,-1 -12,-1 -3,0 -6,0 -9,0 -2,1 -4,2 -6,3 -1,1 -2,1 -3,2 -1,0 -3,-1 -4,-2 -1,-1 -1,-2 -1,-4 0,-1 0,-3 2,-4 2,-1 5,-3 9,-4 2,0 5,-1 7,-1 2,0 4,0 6,0 2,0 3,0 4,0 1,0 3,0 4,0 2,0 4,1 6,1 4,1 7,3 9,6 2,3 4,6 4,9 0,4 -2,8 -6,12l-33 22c-1,1 -2,3 -2,4 0,1 1,3 1,4 1,1 2,1 4,2l5 0 7 1c3,0 6,-1 9,-1 1,0 2,-1 3,-1 2,-1 3,-1 4,-2l1 0c1,-1 1,-1 2,-1 1,0 2,1 4,2 0,1 1,2 1,4 0,1 -1,3 -3,4zm74 -18c0,6 -2,12 -6,16 -4,4 -10,7 -16,7l-6 0c-6,0 -12,-2 -16,-7 -4,-4 -7,-10 -7,-16l0 -26c0,-6 2,-12 7,-16 4,-5 10,-7 16,-7l6 0c6,0 11,2 16,7 4,4 6,9 6,16l0 26zm-10 0l0 -26c0,-4 -1,-7 -3,-9 -3,-3 -6,-4 -9,-4l-6 0c-4,0 -6,1 -9,4 -2,2 -4,5 -4,9l0 26c0,4 2,6 4,9 2,2 5,4 9,4l6 0c3,0 6,-2 9,-4 2,-2 3,-5 3,-9zm143 18c0,1 0,2 -1,3 -1,1 -2,2 -4,2 -1,0 -2,-1 -3,-2 -1,0 -2,-2 -2,-3l0 -47c0,-2 -1,-5 -3,-7 -2,-2 -4,-3 -7,-3l-21 0 0 57c0,1 0,2 -1,3 -1,1 -2,2 -4,2 -1,0 -2,-1 -3,-2 -1,0 -2,-2 -2,-3l0 -62c0,-3 2,-5 5,-5l26 0c5,0 10,2 14,6 4,4 6,9 6,14l0 47zm31 -5l21 0c2,0 5,-1 7,-3 2,-2 3,-5 3,-8l0 -31c0,-2 -1,-5 -3,-7 -2,-2 -4,-3 -7,-3l-21 0 0 52zm0 10l0 25c0,2 -1,3 -2,4 -1,1 -2,1 -3,1 -1,0 -2,0 -4,-1 -1,-1 -1,-2 -1,-4l0 -92c0,-3 2,-5 5,-5l26 0c5,0 10,2 14,6 4,4 6,9 6,14l0 31c0,6 -2,11 -6,15 -4,4 -9,6 -15,6l-20 0zm113 -5c0,3 -2,5 -6,5l-25 0c-6,0 -10,-2 -14,-6 -5,-4 -7,-9 -7,-15l0 -46c0,-1 1,-2 2,-4 1,-1 2,-1 3,-1 2,0 3,0 4,1 1,1 2,2 2,4l0 46c0,3 1,6 3,8 1,0 2,1 3,2 1,0 3,1 4,1l20 0 0 -57c0,-1 1,-2 2,-4 1,-1 2,-1 3,-1 2,0 3,0 4,1 1,1 2,2 2,4l0 62zm61 -36l0 -26c0,-1 0,-2 2,-4 1,-1 2,-1 3,-1 1,0 3,0 4,1 1,1 1,2 1,4l0 62c0,1 0,2 -1,3 -1,1 -2,2 -4,2 -1,0 -2,-1 -3,-2 -2,0 -2,-2 -2,-3l0 -26 -31 0 0 26c0,1 0,2 -1,3 -1,1 -2,2 -4,2 -1,0 -2,-1 -3,-2 -2,0 -2,-2 -2,-3l0 -62c0,-1 0,-2 2,-4 1,-1 2,-1 3,-1 1,0 3,0 4,1 1,1 1,2 1,4l0 26 31 0zm72 0l0 -21 -21 0c-3,0 -5,1 -8,3 -1,2 -2,5 -2,8 0,2 1,5 2,7 2,2 5,3 8,3l21 0zm-13 10l-19 28c0,1 -1,2 -2,2l-2 1c-1,0 -2,-1 -4,-2 -1,-1 -1,-2 -1,-3 0,-1 0,-2 0,-3l16 -23c-5,-1 -9,-3 -12,-7 -3,-4 -4,-9 -4,-13 0,-6 1,-11 5,-15 4,-4 9,-6 15,-6l26 0c3,0 5,2 5,5l0 62c0,1 -1,2 -2,3 -1,1 -2,2 -3,2 -2,0 -3,-1 -4,-2 -1,0 -1,-2 -1,-3l0 -26 -13 0zm74 -31l-21 0 0 57c0,1 0,2 -1,3 -1,1 -2,2 -4,2 -1,0 -2,-1 -3,-2 -1,0 -2,-2 -2,-3l0 -62c0,-3 2,-5 5,-5l46 0c6,0 11,2 15,6 4,4 6,9 6,14l0 47c0,1 -1,2 -2,3 -1,1 -2,2 -3,2 -2,0 -3,-1 -4,-2 -1,0 -2,-2 -2,-3l0 -47c0,-2 0,-5 -2,-7 -2,-2 -5,-3 -8,-3l-10 0 0 57c0,1 0,2 -1,3 -1,1 -3,2 -4,2 -1,0 -3,-1 -4,-2 -1,0 -1,-2 -1,-3l0 -57zm112 57c0,3 -1,5 -5,5l-25 0c-6,0 -11,-2 -15,-6 -4,-4 -6,-9 -6,-15l0 -46c0,-1 1,-2 2,-4 1,-1 2,-1 3,-1 2,0 3,0 4,1 1,1 1,2 1,4l0 46c0,3 1,6 3,8 1,0 2,1 4,2 1,0 2,1 4,1l20 0 0 -57c0,-1 1,-2 2,-4 1,-1 2,-1 3,-1 2,0 3,0 4,1 1,1 1,2 1,4l0 62zm62 -36l0 -21 -21 0c-3,0 -5,1 -7,3 -2,2 -3,5 -3,8 0,2 1,5 3,7 1,2 4,3 7,3l21 0zm-13 10l-19 28c0,1 -1,2 -2,2l-2 1c-1,0 -2,-1 -4,-2 -1,-1 -1,-2 -1,-3 0,-1 0,-2 1,-3l15 -23c-5,-1 -9,-3 -12,-7 -3,-4 -4,-9 -4,-13 0,-6 1,-11 5,-15 4,-4 9,-6 15,-6l26 0c3,0 5,2 5,5l0 62c0,1 -1,2 -2,3 0,1 -2,2 -3,2 -1,0 -3,-1 -4,-2 -1,0 -1,-2 -1,-3l0 -26 -13 0z"/>
   </g>
  </g>
  <path class="fil6" d="M4484 4759l0 -3741 27 0 0 3741 -27 0z"/>
  <path class="fil6" d="M3341 2862l1165 0 0 26 -1165 0 0 -26z"/>
  <path class="fil7" d="M4497 4664c-53,0 -96,42 -96,95 0,53 43,96 96,96 53,0 96,-43 96,-96 0,-53 -43,-95 -96,-95z"/>
  <path class="fil8" d="M4497 4692c-37,0 -67,30 -67,67 0,38 30,68 67,68 37,0 68,-30 68,-68 0,-37 -31,-67 -68,-67z"/>
  <path class="fil7" d="M4497 4713c-25,0 -46,21 -46,46 0,26 21,46 46,46 26,0 46,-20 46,-46 0,-25 -20,-46 -46,-46z"/>
  <path class="fil9" d="M4497 3416c-53,0 -96,43 -96,96 0,53 43,96 96,96 53,0 96,-43 96,-96 0,-53 -43,-96 -96,-96z"/>
  <path class="fil8" d="M4497 3445c-37,0 -67,30 -67,67 0,37 30,68 67,68 37,0 68,-31 68,-68 0,-37 -31,-67 -68,-67z"/>
  <path class="fil9" d="M4497 3466c-25,0 -46,21 -46,46 0,25 21,46 46,46 26,0 46,-21 46,-46 0,-25 -20,-46 -46,-46z"/>
  <path class="fil10" d="M4497 2169c-53,0 -96,43 -96,96 0,53 43,96 96,96 53,0 96,-43 96,-96 0,-53 -43,-96 -96,-96z"/>
  <path class="fil8" d="M4497 2197c-37,0 -67,31 -67,68 0,37 30,67 67,67 37,0 68,-30 68,-67 0,-37 -31,-68 -68,-68z"/>
  <path class="fil10" d="M4497 2219c-25,0 -46,20 -46,46 0,25 21,46 46,46 26,0 46,-21 46,-46 0,-26 -20,-46 -46,-46z"/>
  <path class="fil11" d="M4497 922c-53,0 -96,43 -96,96 0,52 43,95 96,95 53,0 96,-43 96,-95 0,-53 -43,-96 -96,-96z"/>
  <path class="fil8" d="M4497 950c-37,0 -67,30 -67,68 0,37 30,67 67,67 37,0 68,-30 68,-67 0,-38 -31,-68 -68,-68z"/>
  <path class="fil11" d="M4497 972c-25,0 -46,20 -46,46 0,25 21,45 46,45 26,0 46,-20 46,-45 0,-26 -20,-46 -46,-46z"/>
  <path class="fil12" d="M3960 2888c0,438 -355,793 -793,793 -438,0 -793,-355 -793,-793 0,-437 355,-792 793,-792 438,0 793,355 793,792z"/>
  <path class="fil5 str0" d="M2641 2795l20 -174c0,-6 3,-9 10,-9l61 0c6,0 10,4 10,11l0 172 10 0c7,0 10,4 10,10l0 21c0,2 -1,5 -3,7 -2,2 -4,3 -7,3 -2,0 -4,-1 -7,-3 -2,-2 -3,-4 -3,-7l0 -11 -102 0 0 11c0,2 -1,5 -3,7 -2,2 -4,3 -7,3 -2,0 -4,-1 -7,-3 -2,-2 -3,-4 -3,-7l0 -21c0,-6 3,-10 10,-10l11 0zm81 0l0 -162 -42 0 -18 162 60 0zm182 -101l0 -71c0,-3 1,-6 3,-8 2,-2 5,-3 7,-3 3,0 5,1 7,3 2,2 3,4 3,8l0 182c0,3 -1,6 -3,8 -2,2 -5,2 -7,2 -2,0 -5,0 -7,-2 -2,-2 -3,-4 -3,-8l0 -91 -81 0 0 91c0,4 -1,6 -3,8 -2,2 -4,2 -7,2 -3,0 -5,0 -7,-2 -2,-2 -3,-4 -3,-8l0 -182c0,-3 1,-6 3,-8 2,-2 4,-2 7,-2 2,0 5,0 7,2 2,2 3,4 3,8l0 71 81 0zm81 0l51 0c3,0 5,1 7,3 2,2 3,4 3,7 0,2 0,5 -2,7 -2,2 -4,3 -8,3l-51 0 0 81 71 0c3,0 6,1 8,3 2,2 3,5 3,7 0,3 -1,5 -3,7 -2,2 -4,3 -7,3l-82 0c-7,0 -10,-3 -10,-9l0 -183c0,-7 3,-11 10,-11l82 0c2,0 5,1 7,4 2,2 3,4 3,7 0,2 -1,4 -3,6 -2,3 -4,4 -8,4l-71 0 0 61zm203 -102l-40 0c-4,0 -6,-1 -8,-2 -2,-3 -3,-5 -3,-8 0,-2 1,-4 3,-7 2,-2 4,-3 8,-3l40 0c3,0 5,1 7,3 2,2 3,5 3,7 0,2 -1,5 -2,7 -2,2 -4,3 -8,3zm41 213c0,4 -1,6 -3,8 -2,2 -4,2 -7,2 -3,0 -5,0 -7,-2 -3,-2 -3,-4 -3,-8l0 -143 -83 148c-1,2 -3,4 -4,5l-3 1c0,1 -1,1 -3,1 -2,0 -4,-1 -6,-3 -2,-2 -3,-5 -3,-9l0 -182c0,-3 1,-6 3,-8 2,-2 4,-2 7,-2 3,0 5,0 7,2 2,2 3,4 3,8l0 143 83 -148c1,-2 2,-3 4,-5 2,-1 4,-2 5,-2 3,0 5,1 7,3 2,2 3,5 3,9l0 182zm183 -10l20 -174c0,-6 3,-9 10,-9l61 0c6,0 10,4 10,11l0 172 10 0c7,0 10,4 10,10l0 21c0,2 -1,5 -3,7 -2,2 -4,3 -7,3 -2,0 -4,-1 -7,-3 -2,-2 -3,-4 -3,-7l0 -11 -102 0 0 11c0,2 -1,5 -3,7 -2,2 -4,3 -7,3 -2,0 -4,-1 -7,-3 -2,-2 -3,-4 -3,-7l0 -21c0,-6 3,-10 10,-10l11 0zm81 0l0 -162 -42 0 -18 162 60 0zm193 -20c0,11 -4,21 -12,29 -8,7 -17,11 -28,11l-41 0c-11,0 -20,-3 -28,-11 -8,-8 -12,-18 -12,-29l0 -122c0,-11 3,-21 11,-29 8,-8 18,-12 29,-12l41 0c11,0 21,4 28,12 8,8 12,18 12,29l0 122zm-20 0l0 -122c0,-6 -2,-11 -6,-14 -4,-4 -8,-6 -14,-6l-41 0c-6,0 -10,2 -15,5 -1,2 -3,5 -4,7 -1,3 -1,5 -1,8l0 122c0,6 2,11 5,15 3,1 5,3 7,4 3,1 6,1 8,1l41 0c5,0 10,-2 14,-5 4,-4 6,-9 6,-15zm-977 249c6,4 11,9 14,15 4,6 6,13 6,20l0 41c0,11 -4,20 -12,28 -8,8 -18,12 -29,12l-71 0c-7,0 -10,-3 -10,-10l0 -183c0,-6 3,-10 10,-10l61 0c11,0 21,4 29,12 8,8 12,18 12,29l0 20c0,5 -1,9 -3,14 -1,4 -3,8 -7,12zm-82 15l0 81 61 0c6,0 11,-2 15,-6 4,-3 6,-8 6,-14l0 -41c0,-6 -2,-10 -6,-14 -4,-4 -9,-6 -15,-6l-61 0zm51 -20c6,0 11,-2 15,-6 3,-4 5,-9 5,-15l0 -20c0,-6 -1,-11 -5,-15 -4,-4 -9,-6 -15,-6l-51 0 0 62 51 0zm234 111c0,3 -1,6 -3,8 -2,1 -5,2 -8,2 -2,0 -5,-1 -7,-2 -2,-2 -3,-4 -3,-8l0 -183c0,-2 1,-5 3,-7 2,-2 5,-3 7,-3 3,0 5,1 8,3 2,1 3,4 3,7l0 183zm-122 -91l0 81 40 0c6,0 11,-2 15,-6 4,-3 6,-8 6,-14l0 -41c0,-6 -2,-10 -6,-14 -4,-4 -9,-6 -15,-6l-40 0zm0 -20l40 0c11,0 21,4 29,11 8,8 12,18 12,29l0 41c0,11 -4,20 -12,28 -8,8 -18,12 -29,12l-51 0c-6,0 -10,-3 -10,-10l0 -183c0,-2 1,-5 3,-7 2,-2 5,-3 7,-3 3,0 5,1 7,3 3,2 4,4 4,7l0 72zm182 20l0 81 61 0c6,0 11,-2 15,-6 4,-3 5,-8 5,-14l0 -41c0,-6 -1,-10 -5,-14 -4,-4 -9,-6 -15,-6l-61 0zm0 -20l61 0c11,0 21,4 29,11 8,8 12,18 12,29l0 41c0,11 -4,20 -12,28 -8,8 -18,12 -29,12l-71 0c-7,0 -10,-3 -10,-10l0 -183c0,-6 3,-10 10,-10l81 0c3,0 5,1 7,3 2,2 3,5 3,7 0,3 0,5 -2,7 -2,2 -4,3 -8,3l-71 0 0 62zm264 81c0,11 -4,20 -12,28 -8,8 -17,12 -29,12l-40 0c-11,0 -21,-4 -29,-12 -8,-7 -12,-17 -12,-28l0 -122c0,-11 4,-21 12,-29 8,-8 18,-12 29,-12l40 0c12,0 21,4 29,12 8,8 12,18 12,29l0 122zm-20 0l0 -122c0,-6 -2,-11 -6,-15 -4,-4 -9,-6 -15,-6l-40 0c-6,0 -11,2 -15,6 -2,2 -3,4 -4,7 -1,2 -2,5 -2,8l0 122c0,5 2,10 6,14 2,2 5,3 7,5 3,1 5,1 8,1l40 0c6,0 11,-2 15,-6 4,-3 6,-8 6,-14zm97 -61l61 0c6,0 10,-2 14,-6 4,-4 6,-9 6,-15l0 -40c0,-6 -2,-11 -5,-15 -4,-4 -9,-6 -15,-6l-61 0 0 82zm0 20l0 71c0,3 -1,6 -3,8 -2,1 -4,2 -7,2 -3,0 -5,-1 -7,-2 -2,-2 -3,-4 -3,-8l0 -183c0,-6 3,-10 10,-10l71 0c11,0 21,4 29,12 8,8 12,18 12,29l0 40c0,12 -4,21 -12,29 -8,8 -18,12 -29,12l-61 0zm264 41c0,11 -4,20 -12,28 -8,8 -18,12 -29,12l-40 0c-11,0 -21,-4 -29,-12 -8,-7 -12,-17 -12,-28l0 -122c0,-11 4,-21 12,-29 8,-8 17,-12 29,-12l40 0c12,0 21,4 29,12 8,8 12,18 12,29l0 122zm-20 0l0 -122c0,-6 -2,-11 -6,-15 -4,-4 -9,-6 -15,-6l-40 0c-6,0 -11,2 -15,6 -2,2 -3,4 -4,7 -1,2 -2,5 -2,8l0 122c0,5 2,10 6,14 2,2 4,3 7,5 3,1 5,1 8,1l40 0c6,0 11,-2 15,-6 4,-3 6,-8 6,-14zm179 -76c6,4 11,9 14,15 4,6 5,13 5,20l0 41c0,11 -4,20 -11,28 -8,8 -18,12 -29,12l-71 0c-7,0 -10,-3 -10,-10l0 -183c0,-6 3,-10 10,-10l61 0c11,0 21,4 29,12 7,8 11,18 11,29l0 20c0,5 0,9 -2,14 -1,4 -4,8 -7,12zm-82 15l0 81 61 0c6,0 10,-2 14,-6 4,-3 6,-8 6,-14l0 -41c0,-6 -2,-10 -5,-14 -4,-4 -9,-6 -15,-6l-61 0zm51 -20c5,0 10,-2 14,-6 4,-4 6,-9 6,-15l0 -20c0,-6 -2,-11 -6,-15 -3,-4 -8,-6 -14,-6l-51 0 0 62 51 0z"/>
  <path class="fil7 str1" d="M3980 4871c0,5 -2,9 -4,12 -3,2 -7,3 -11,3 -4,0 -8,-1 -11,-4 -3,-2 -4,-6 -4,-11l0 -237 -35 35c-3,3 -7,4 -11,4 -4,0 -7,-1 -10,-4 -4,-4 -5,-7 -5,-11 0,-4 1,-7 4,-11l61 -61c2,-2 4,-4 6,-5 2,-1 5,-2 7,-2 3,0 6,2 9,5 3,3 4,7 4,13l0 274zm152 0c0,5 -1,9 -4,12 -3,2 -7,3 -11,3 -4,0 -8,-1 -11,-4 -3,-2 -4,-6 -4,-11l0 -237 -35 35c-3,3 -7,4 -11,4 -3,0 -7,-1 -10,-4 -3,-4 -5,-7 -5,-11 0,-4 1,-7 5,-11l60 -61c2,-2 4,-4 7,-5 2,-1 4,-2 7,-2 2,0 5,2 8,5 3,3 4,7 4,13l0 274zm213 -52c0,18 -6,34 -19,47 -13,14 -29,20 -48,20l-18 0c-18,0 -34,-6 -47,-19 -13,-13 -20,-29 -20,-48l0 -170c0,-18 6,-34 20,-47 13,-14 28,-20 47,-20l18 0c18,0 34,6 47,19 14,13 20,29 20,48l0 170zm-30 0l0 -170c0,-10 -4,-19 -11,-26 -7,-7 -15,-11 -26,-11l-18 0c-10,0 -19,4 -26,11 -7,7 -11,15 -11,26l0 170c0,10 4,19 11,26 7,7 16,11 26,11l18 0c10,0 19,-4 26,-10 7,-7 11,-16 11,-27z"/>
  <path class="fil9 str2" d="M3949 3623c0,5 -1,9 -4,12 -3,2 -6,4 -11,4 -4,0 -7,-2 -10,-4 -3,-3 -5,-6 -5,-12l0 -237 -35 35c-3,3 -6,5 -10,5 -4,0 -8,-2 -11,-5 -3,-3 -5,-7 -5,-11 0,-3 2,-7 5,-10l61 -61c2,-2 4,-4 6,-5 2,-2 4,-2 7,-2 3,0 5,1 9,4 2,4 3,8 3,13l0 274zm214 -51c0,18 -7,34 -20,47 -13,13 -29,20 -47,20l-19 0c-18,0 -34,-7 -47,-20 -13,-13 -20,-28 -20,-47l0 -171c0,-18 7,-33 20,-47 13,-13 29,-20 47,-20l19 0c18,0 33,7 47,20 13,13 20,28 20,47l0 171zm-31 0l0 -171c0,-10 -3,-19 -10,-26 -7,-7 -16,-11 -26,-11l-19 0c-10,0 -18,4 -26,11 -7,7 -10,16 -10,26l0 171c0,10 3,18 10,26 7,7 16,10 26,10l19 0c10,0 18,-3 25,-10 8,-7 11,-16 11,-26zm244 0c0,18 -7,34 -20,47 -13,13 -29,20 -47,20l-19 0c-18,0 -33,-7 -47,-20 -13,-13 -20,-28 -20,-47l0 -171c0,-18 7,-33 20,-47 13,-13 29,-20 47,-20l19 0c18,0 34,7 47,20 13,13 20,28 20,47l0 171zm-31 0l0 -171c0,-10 -3,-19 -10,-26 -7,-7 -16,-11 -26,-11l-19 0c-10,0 -18,4 -25,11 -8,7 -11,16 -11,26l0 171c0,10 3,18 10,26 7,7 16,10 26,10l19 0c10,0 18,-3 25,-10 8,-7 11,-16 11,-26z"/>
  <path class="fil10 str3" d="M4056 2211l0 -7 0 -9 0 -76c0,-8 -3,-16 -8,-21 -6,-6 -13,-9 -22,-9l-31 0c-8,0 -16,3 -22,8 -3,3 -5,7 -6,10 -2,4 -2,8 -2,12l0 61c0,9 2,16 8,22 3,3 7,5 10,7 5,1 9,2 12,2l61 0zm-6 30l-55 0c-16,0 -30,-6 -43,-18 -12,-11 -18,-26 -18,-43l0 -61c0,-16 6,-31 18,-43 12,-12 26,-18 43,-18l31 0c17,0 31,6 43,18 12,12 18,27 18,43l0 76c0,30 -6,57 -17,83 -8,19 -19,35 -34,50 -14,15 -31,26 -50,34l-7 1c-3,0 -6,-2 -10,-5 -3,-3 -4,-7 -4,-11 0,-2 0,-5 2,-7 1,-2 3,-4 7,-6 8,-3 15,-7 22,-11 6,-5 13,-10 19,-16 11,-12 20,-26 27,-42l4 -11 4 -13zm250 55c0,18 -7,34 -20,47 -13,13 -29,20 -47,20l-19 0c-18,0 -33,-6 -47,-19 -13,-13 -20,-29 -20,-48l0 -171c0,-17 7,-33 20,-46 13,-14 29,-21 47,-21l19 0c18,0 33,7 47,20 13,13 20,29 20,47l0 171zm-31 0l0 -171c0,-10 -3,-18 -10,-26 -7,-7 -16,-10 -26,-10l-19 0c-10,0 -18,3 -26,10 -7,8 -10,16 -10,26l0 171c0,10 3,19 10,26 7,7 16,11 26,11l19 0c10,0 18,-4 25,-11 8,-7 11,-15 11,-26z"/>
  <path class="fil11 str4" d="M4011 956c13,0 25,-5 34,-14 7,-9 11,-20 11,-32 0,-12 -4,-23 -11,-31 -8,-10 -20,-15 -34,-15 -14,0 -25,5 -35,15 -7,9 -11,19 -11,31 0,12 4,23 11,32 9,9 20,14 35,14zm0 30c-20,0 -35,7 -46,19 -11,12 -16,26 -16,42 0,17 5,31 16,42 11,13 27,19 46,19 19,0 34,-6 46,-19 10,-11 15,-25 15,-42 0,-16 -5,-30 -15,-42 -12,-12 -27,-19 -46,-19zm50 -17c13,8 24,19 31,33 7,14 10,29 10,45 0,24 -8,45 -23,63 -17,19 -39,29 -68,29 -29,0 -52,-10 -69,-29 -15,-17 -23,-38 -23,-63 0,-16 3,-31 10,-45 7,-14 17,-25 31,-33 -8,-7 -14,-16 -19,-26 -4,-11 -6,-22 -6,-33 0,-20 6,-38 19,-52 14,-16 33,-24 57,-24 23,0 42,8 56,24 13,14 20,32 20,52 0,11 -3,22 -7,33 -4,10 -11,19 -19,26zm254 103c0,18 -7,33 -20,47 -13,13 -28,20 -47,20l-18 0c-19,0 -34,-7 -48,-20 -13,-13 -19,-29 -19,-47l0 -171c0,-18 6,-34 19,-47 13,-13 29,-20 48,-20l18 0c18,0 34,6 47,19 13,13 20,29 20,48l0 171zm-30 0l0 -171c0,-10 -4,-19 -11,-26 -7,-7 -16,-11 -26,-11l-18 0c-11,0 -19,4 -26,11 -8,7 -11,16 -11,26l0 171c0,10 3,18 11,25 7,8 15,11 26,11l18 0c10,0 18,-3 26,-10 7,-7 11,-16 11,-26z"/>
  <path class="fil6" d="M4782 4681l0 -2512 27 0 0 2512 -27 0z"/>
  <path class="fil7" d="M4795 4664c-53,0 -96,42 -96,95 0,53 43,96 96,96 53,0 96,-43 96,-96 0,-53 -43,-95 -96,-95z"/>
  <path class="fil8" d="M4795 4692c-37,0 -67,30 -67,67 0,38 30,68 67,68 38,0 68,-30 68,-68 0,-37 -30,-67 -68,-67z"/>
  <path class="fil7" d="M4795 4713c-25,0 -46,21 -46,46 0,26 21,46 46,46 26,0 46,-20 46,-46 0,-25 -20,-46 -46,-46z"/>
  <path class="fil10" d="M4802 2169c-53,0 -96,43 -96,96 0,53 43,96 96,96 53,0 96,-43 96,-96 0,-53 -43,-96 -96,-96z"/>
  <path class="fil8" d="M4802 2197c-37,0 -67,31 -67,68 0,37 30,67 67,67 38,0 68,-30 68,-67 0,-37 -30,-68 -68,-68z"/>
  <path class="fil10" d="M4802 2219c-25,0 -46,20 -46,46 0,25 21,46 46,46 26,0 46,-21 46,-46 0,-26 -20,-46 -46,-46z"/>
  <path class="fil5 str0" d="M4947 3356l0 92 10 0c11,0 21,-4 29,-12 8,-8 12,-18 12,-29l0 -11c0,-10 -4,-20 -12,-28 -8,-8 -17,-12 -29,-12l-10 0zm-20 92l0 -92 -10 0c-11,0 -21,4 -29,11 -8,8 -12,18 -12,29l0 11c0,11 4,20 12,29 8,8 18,12 29,12l10 0zm0 20l-10 0c-17,0 -31,-6 -43,-18 -12,-12 -18,-26 -18,-43l0 -11c0,-16 6,-30 18,-43 12,-12 26,-18 43,-18l10 0 0 -20c0,-2 1,-5 3,-7 2,-2 4,-3 7,-3 3,0 5,1 7,3 2,1 3,4 3,7l0 20 10 0c17,0 31,6 43,18 6,6 10,13 13,20 3,7 5,15 5,23l0 11c0,16 -6,30 -18,43 -12,12 -26,18 -43,18l-10 0 0 30c0,3 -1,6 -3,8 -2,1 -4,2 -7,2 -3,0 -5,-1 -7,-2 -2,-2 -3,-5 -3,-8l0 -30zm152 -82l51 0c3,0 5,1 7,4 2,2 3,4 3,7 0,2 -1,4 -2,6 -2,3 -5,4 -8,4l-51 0 0 81 71 0c3,0 6,1 8,3 2,2 3,4 3,7 0,2 -1,5 -3,7 -2,2 -4,3 -8,3l-81 0c-7,0 -10,-3 -10,-9l0 -184c0,-7 3,-10 10,-10l81 0c3,0 6,1 8,3 2,2 3,5 3,7 0,3 -1,5 -3,7 -2,2 -4,3 -8,3l-71 0 0 61zm143 102l19 -174c0,-6 4,-9 11,-9l60 0c7,0 11,3 11,10l0 173 10 0c7,0 10,3 10,10l0 20c0,3 -1,5 -3,7 -2,2 -4,3 -7,3 -2,0 -5,-1 -7,-2 -2,-2 -3,-4 -3,-8l0 -10 -102 0 0 10c0,3 -1,5 -3,7 -2,2 -4,3 -7,3 -2,0 -5,-1 -7,-2 -2,-2 -3,-4 -3,-8l0 -20c0,-7 3,-10 10,-10l11 0zm80 0l0 -163 -41 0 -18 163 59 0zm102 -102l51 0c3,0 5,1 7,4 2,2 3,4 3,7 0,2 -1,4 -3,6 -1,3 -4,4 -7,4l-51 0 0 81 71 0c3,0 5,1 7,3 2,2 3,4 3,7 0,2 -1,5 -2,7 -2,2 -5,3 -8,3l-81 0c-7,0 -10,-3 -10,-9l0 -184c0,-7 3,-10 10,-10l81 0c3,0 5,1 7,3 2,2 3,5 3,7 0,3 -1,5 -2,7 -2,2 -5,3 -8,3l-71 0 0 61zm142 21l61 0c5,0 10,-2 14,-6 4,-4 6,-9 6,-15l0 -40c0,-6 -2,-11 -6,-15 -3,-4 -8,-6 -14,-6l-61 0 0 82zm0 20l0 71c0,3 -1,6 -3,8 -2,1 -4,2 -7,2 -3,0 -5,-1 -7,-2 -2,-2 -3,-5 -3,-8l0 -183c0,-7 3,-10 10,-10l71 0c11,0 21,4 28,12 8,8 12,17 12,29l0 40c0,11 -4,21 -12,29 -8,8 -17,12 -28,12l-61 0zm157 30l-14 44c-1,2 -2,4 -4,5 -2,1 -3,2 -6,2 -2,0 -5,-1 -7,-3 -2,-2 -3,-4 -3,-7l1 -3 61 -183c2,-6 5,-9 9,-9 5,0 8,3 10,9l61 183 0 3c0,3 -1,5 -3,7 -2,2 -5,3 -7,3 -2,0 -3,0 -5,-1 -1,-1 -3,-3 -4,-6l-15 -44 -74 0zm67 -20l-30 -90 -30 90 60 0zm202 61c0,3 -1,6 -3,8 -1,1 -4,2 -7,2 -3,0 -5,-1 -7,-2 -2,-2 -3,-5 -3,-8l0 -173 -33 0 -49 176c0,2 -1,3 -3,5 -2,1 -4,2 -6,2 -3,0 -6,-1 -8,-2 -2,-2 -3,-4 -3,-8 0,-1 0,-2 1,-3l51 -182c1,-5 4,-8 9,-8l51 0c7,0 10,3 10,10l0 183zm61 -91l61 0c5,0 10,2 14,5 4,4 6,9 6,15l0 41c0,5 -2,10 -6,14 -2,2 -4,4 -6,5 -3,0 -5,1 -8,1l-61 0 0 -81zm0 -21l0 -71c0,-2 -1,-5 -3,-7 -2,-2 -5,-3 -7,-3 -3,0 -5,1 -7,3 -2,1 -3,4 -3,7l0 183c0,7 3,10 10,10l71 0c11,0 20,-4 28,-12 8,-7 12,-17 12,-28l0 -41c0,-11 -4,-21 -12,-29 -7,-8 -17,-12 -28,-12l-61 0zm243 0l0 -71c0,-2 1,-5 3,-7 2,-2 5,-3 7,-3 3,0 5,1 7,3 3,1 4,4 4,7l0 183c0,3 -1,5 -4,7 -2,2 -4,3 -7,3 -2,0 -5,-1 -7,-2 -2,-2 -3,-4 -3,-8l0 -91 -81 0 0 91c0,3 -1,6 -3,8 -2,1 -4,2 -7,2 -3,0 -5,-1 -7,-2 -2,-2 -3,-5 -3,-8l0 -183c0,-2 1,-5 3,-7 2,-2 4,-3 7,-3 3,0 5,1 7,3 2,1 3,4 3,7l0 71 81 0zm203 112c0,3 -1,6 -2,8 -2,1 -5,2 -8,2 -2,0 -5,-1 -7,-2 -2,-2 -3,-5 -3,-8l0 -183c0,-2 1,-5 3,-7 2,-2 5,-3 7,-3 3,0 5,1 7,3 2,1 3,4 3,7l0 183zm-122 -91l0 81 41 0c6,0 11,-2 15,-6 4,-3 6,-8 6,-14l0 -41c0,-6 -2,-11 -6,-14 -4,-4 -9,-6 -15,-6l-41 0zm0 -21l41 0c11,0 21,4 29,12 8,8 12,18 12,29l0 41c0,11 -4,20 -12,28 -8,8 -18,12 -29,12l-51 0c-6,0 -10,-3 -10,-10l0 -183c0,-2 1,-5 3,-7 2,-2 5,-3 7,-3 3,0 5,1 7,3 2,1 3,4 3,7l0 71zm244 -101l-41 0c-3,0 -5,-1 -7,-3 -2,-2 -3,-5 -3,-7 0,-3 1,-5 3,-7 1,-2 4,-3 7,-3l41 0c3,0 5,1 7,3 2,2 3,4 3,7 0,2 -1,4 -2,7 -2,2 -5,3 -8,3zm41 213c0,3 -1,6 -3,8 -2,1 -5,2 -8,2 -2,0 -5,-1 -7,-2 -2,-2 -3,-5 -3,-8l0 -143 -82 148c-1,2 -3,4 -5,5l-2 1c0,0 -1,1 -3,1 -2,0 -4,-1 -7,-3 -1,-2 -2,-5 -2,-9l0 -183c0,-2 1,-5 3,-7 2,-2 4,-3 7,-3 2,0 5,1 7,3 2,1 3,4 3,7l0 144 82 -148c1,-2 3,-4 5,-5 2,-2 3,-2 5,-2 2,0 5,1 6,3 2,2 4,5 4,8l0 183zm-1144 294c0,11 -4,21 -12,29 -8,8 -17,12 -29,12l-40 0c-11,0 -21,-4 -29,-12 -8,-8 -12,-17 -12,-29l0 -121c0,-12 4,-21 12,-29 8,-8 18,-12 29,-12l40 0c12,0 21,4 29,12 8,8 12,17 12,29l0 121zm-20 0l0 -122c0,-5 -2,-10 -6,-14 -4,-4 -9,-6 -14,-6l-41 0c-6,0 -11,2 -15,6 -2,2 -3,4 -4,7 -1,2 -1,5 -1,7l0 122c0,6 1,11 5,15 2,2 5,3 7,4 3,1 5,2 8,2l41 0c5,0 10,-2 14,-6 4,-4 6,-9 6,-15zm97 -61l61 0c6,0 10,-1 14,-5 4,-4 6,-9 6,-15l0 -41c0,-5 -2,-10 -5,-14 -4,-4 -9,-6 -15,-6l-61 0 0 81zm0 21l0 71c0,3 -1,6 -3,7 -2,2 -4,3 -7,3 -3,0 -5,-1 -7,-3 -2,-1 -3,-4 -3,-7l0 -183c0,-7 3,-10 10,-10l71 0c11,0 21,4 29,12 8,8 12,17 12,28l0 41c0,11 -4,21 -12,29 -8,8 -18,12 -29,12l-61 0zm234 -102l-72 0 0 173c0,3 -1,6 -2,7 -2,2 -5,3 -8,3 -2,0 -5,-1 -7,-3 -2,-1 -3,-4 -3,-7l0 -183c0,-7 4,-10 10,-10l82 0c2,0 5,1 7,3 2,2 3,4 3,7 0,2 -1,5 -3,7 -1,2 -4,3 -7,3zm43 132l-14 44c-1,2 -2,4 -4,5 -1,1 -3,2 -5,2 -3,0 -6,-1 -8,-3 -2,-2 -3,-4 -3,-7l1 -4 61 -182c2,-6 5,-9 9,-9 5,0 8,3 10,9l61 182 0 4c0,3 -1,5 -3,7 -2,2 -4,3 -7,3 -1,0 -3,0 -5,-1 -1,-1 -3,-3 -4,-6l-15 -44 -74 0zm67 -21l-30 -89 -30 89 60 0zm182 -50l0 -71c0,-3 1,-5 3,-7 2,-2 4,-3 7,-3 3,0 5,1 7,2 2,2 3,5 3,8l0 183c0,2 -1,5 -3,7 -2,2 -5,3 -7,3 -3,0 -5,-1 -7,-3 -2,-1 -3,-4 -3,-7l0 -92 -81 0 0 92c0,3 -1,6 -3,7 -2,2 -5,3 -7,3 -3,0 -6,-1 -8,-3 -2,-1 -3,-4 -3,-7l0 -183c0,-3 1,-5 3,-7 2,-2 5,-3 8,-3 2,0 4,1 6,3 3,1 4,4 4,7l0 71 81 0z"/>
  <path class="fil6" d="M6787 3537l0 -1290 27 0 0 1290 -27 0z"/>
  <path class="fil9" d="M6801 3416c-53,0 -96,43 -96,96 0,53 43,96 96,96 53,0 95,-43 95,-96 0,-53 -42,-96 -95,-96z"/>
  <path class="fil8" d="M6801 3445c-38,0 -68,30 -68,67 0,37 30,68 68,68 37,0 67,-31 67,-68 0,-37 -30,-67 -67,-67z"/>
  <path class="fil9" d="M6801 3466c-26,0 -46,21 -46,46 0,25 20,46 46,46 25,0 46,-21 46,-46 0,-25 -21,-46 -46,-46z"/>
  <path class="fil10" d="M6801 2169c-53,0 -96,43 -96,96 0,53 43,96 96,96 53,0 95,-43 95,-96 0,-53 -42,-96 -95,-96z"/>
  <path class="fil8" d="M6801 2197c-38,0 -68,31 -68,68 0,37 30,67 68,67 37,0 67,-30 67,-67 0,-37 -30,-68 -67,-68z"/>
  <path class="fil10" d="M6801 2219c-26,0 -46,20 -46,46 0,25 20,46 46,46 25,0 46,-21 46,-46 0,-26 -21,-46 -46,-46z"/>
  <path class="fil5 str0" d="M7037 2922l-51 0c-11,0 -20,-4 -29,-12 -8,-8 -12,-17 -12,-29l0 -121c0,-12 4,-21 12,-29 8,-8 18,-12 29,-12l51 0c3,0 5,1 7,3 2,2 3,4 3,7 0,2 -1,5 -3,7 -1,2 -4,3 -7,3l-51 0c-6,0 -11,2 -15,6 -2,2 -3,4 -4,6 -1,3 -1,6 -1,8l0 122c0,6 2,11 5,15 2,2 5,3 7,4 3,1 6,2 8,2l51 0c3,0 5,1 7,3 2,2 3,4 3,7 0,2 -1,4 -3,7 -1,2 -4,3 -7,3zm152 -81l-61 0c-11,0 -20,-4 -28,-12 -9,-8 -13,-18 -13,-29l0 -71c0,-3 1,-5 4,-7 2,-2 4,-3 7,-3 2,0 5,1 7,2 2,2 3,5 3,8l0 71c0,6 2,11 5,15 3,1 5,3 7,4 3,1 6,1 8,1l61 0 0 -91c0,-3 1,-5 3,-7 2,-2 4,-3 7,-3 3,0 5,1 7,2 2,2 3,5 3,8l0 152c0,11 -4,21 -12,29 -8,8 -17,12 -28,12l-51 0c-3,0 -6,-1 -8,-3 -1,-2 -2,-4 -2,-7 0,-3 1,-5 2,-7 2,-2 5,-3 8,-3l51 0c5,0 10,-2 14,-6 4,-4 6,-9 6,-15l0 -40zm81 -21l0 82 61 0c6,0 10,-2 14,-6 4,-4 6,-9 6,-15l0 -40c0,-6 -2,-11 -5,-15 -4,-4 -9,-6 -15,-6l-61 0zm0 -20l61 0c11,0 20,4 28,12 9,8 13,18 13,29l0 40c0,11 -4,21 -12,29 -8,8 -18,12 -29,12l-71 0c-7,0 -10,-3 -10,-10l0 -183c0,-7 3,-10 10,-10l81 0c3,0 5,1 7,3 2,2 3,4 3,7 0,2 -1,5 -2,7 -2,2 -4,3 -8,3l-71 0 0 61zm203 20l0 82 61 0c6,0 10,-2 14,-6 4,-4 6,-9 6,-15l0 -40c0,-6 -2,-11 -5,-15 -4,-4 -9,-6 -15,-6l-61 0zm0 -20l61 0c11,0 21,4 29,12 8,8 12,18 12,29l0 40c0,12 -4,21 -12,29 -8,8 -18,12 -29,12l-71 0c-7,0 -10,-3 -10,-10l0 -173 -31 0c-3,0 -5,-1 -7,-3 -2,-2 -3,-4 -3,-7 0,-2 1,-5 3,-7 1,-2 4,-3 7,-3l41 0c7,0 10,3 10,10l0 71zm162 0l51 0c3,0 6,1 8,3 2,2 3,5 3,7 0,3 -1,5 -3,7 -2,2 -4,3 -8,3l-51 0 0 82 72 0c2,0 5,1 7,3 2,2 3,4 3,7 0,2 -1,5 -3,7 -1,2 -4,3 -7,3l-82 0c-7,0 -10,-3 -10,-10l0 -183c0,-7 3,-10 10,-10l82 0c2,0 5,1 7,3 2,2 3,4 3,7 0,2 -1,5 -3,7 -1,2 -4,3 -7,3l-72 0 0 61zm142 6l86 -84c2,-2 4,-3 7,-3 2,0 5,1 7,3 2,2 3,5 3,7 0,2 -1,4 -3,7l-60 60 62 111 1 5c0,3 -1,5 -3,7 -2,2 -4,3 -7,3 -4,0 -6,-2 -9,-5l-59 -106 -25 24 0 77c0,3 -1,6 -3,7 -1,2 -4,3 -7,3 -2,0 -5,-1 -7,-3 -2,-1 -3,-4 -3,-7l0 -183c0,-3 1,-5 3,-7 2,-2 5,-3 7,-3 3,0 5,1 7,2 2,2 3,4 3,8l0 77zm193 -67l-40 0c-3,0 -6,-1 -8,-3 -2,-2 -3,-4 -3,-7 0,-2 1,-5 3,-7 2,-2 4,-3 8,-3l101 0c3,0 5,1 7,3 2,2 3,4 3,7 0,2 -1,5 -2,7 -2,2 -5,3 -8,3l-41 0 0 173c0,3 -1,6 -2,7 -2,2 -5,3 -8,3 -2,0 -5,-1 -7,-3 -2,-1 -3,-4 -3,-7l0 -173zm-619 406l61 0c6,0 11,-2 15,-5 4,-4 5,-9 5,-15l0 -41c0,-6 -1,-10 -5,-14 -4,-4 -9,-6 -15,-6l-61 0 0 81zm0 20l0 72c0,3 -1,5 -3,7 -2,2 -4,3 -7,3 -3,0 -5,-1 -7,-3 -2,-1 -3,-4 -3,-7l0 -183c0,-7 3,-10 10,-10l71 0c11,0 21,4 29,12 8,7 12,17 12,28l0 41c0,11 -4,20 -12,28 -8,8 -18,12 -29,12l-61 0zm233 -71l0 92 11 0c11,0 20,-4 28,-12 8,-8 12,-17 12,-29l0 -10c0,-11 -4,-20 -12,-29 -7,-8 -17,-12 -28,-12l-11 0zm-20 92l0 -92 -10 0c-11,0 -20,4 -28,12 -9,8 -13,18 -13,29l0 10c0,11 4,21 12,29 8,8 18,12 29,12l10 0zm0 20l-10 0c-17,0 -31,-6 -43,-17 -12,-12 -18,-27 -18,-44l0 -10c0,-17 6,-31 18,-43 12,-12 26,-18 43,-18l10 0 0 -20c0,-3 1,-5 3,-8 2,-1 5,-2 7,-2 3,0 5,1 7,2 2,2 3,4 3,8l0 20 11 0c16,0 31,6 43,18 5,6 9,12 13,19 3,8 4,16 4,24l0 10c0,17 -6,31 -17,43 -12,12 -27,18 -43,18l-11 0 0 31c0,3 -1,5 -2,7 -2,2 -5,3 -8,3 -2,0 -5,-1 -7,-3 -2,-1 -3,-4 -3,-7l0 -31z"/>
  <path class="fil6" d="M7829 2304l0 -1243 26 0 0 1243 -26 0z"/>
  <path class="fil8" d="M5244 4692c-37,0 -68,30 -68,67 0,38 31,68 68,68 37,0 68,-30 68,-68 0,-37 -31,-67 -68,-67z"/>
  <path class="fil10" d="M7842 2169c-53,0 -96,43 -96,96 0,53 43,96 96,96 53,0 96,-43 96,-96 0,-53 -43,-96 -96,-96z"/>
  <path class="fil8" d="M7842 2197c-37,0 -68,31 -68,68 0,37 31,67 68,67 37,0 68,-30 68,-67 0,-37 -31,-68 -68,-68z"/>
  <path class="fil10" d="M7842 2219c-25,0 -46,20 -46,46 0,25 21,46 46,46 25,0 46,-21 46,-46 0,-26 -21,-46 -46,-46z"/>
  <path class="fil11" d="M7842 922c-53,0 -96,43 -96,96 0,52 43,95 96,95 53,0 96,-43 96,-95 0,-53 -43,-96 -96,-96z"/>
  <path class="fil8" d="M7842 950c-37,0 -68,30 -68,68 0,37 31,67 68,67 37,0 68,-30 68,-67 0,-38 -31,-68 -68,-68z"/>
  <path class="fil11" d="M7842 972c-25,0 -46,20 -46,46 0,25 21,45 46,45 25,0 46,-20 46,-45 0,-26 -21,-46 -46,-46z"/>
  <path class="fil5 str0" d="M8245 1709c0,3 -1,6 -2,8 -2,1 -5,2 -8,2 -2,0 -4,-1 -7,-2 -2,-2 -3,-4 -3,-8l0 -145 -42 70c-2,5 -5,7 -9,7 -3,0 -6,-2 -8,-7l-43 -70 0 145c0,3 -1,6 -3,8 -1,1 -4,2 -7,2 -2,0 -5,-1 -7,-2 -2,-2 -3,-4 -3,-8l0 -182c0,-3 1,-6 3,-8 2,-2 4,-3 6,-3 2,0 4,0 5,1 2,1 3,3 5,5l52 87 52 -87c3,-4 6,-6 10,-6 2,0 5,1 7,3 1,2 2,5 2,8l0 182zm132 10l-51 0c-11,0 -20,-4 -28,-12 -8,-7 -12,-17 -12,-28l0 -122c0,-11 4,-21 12,-29 7,-8 17,-12 28,-12l51 0c3,0 5,1 7,3 2,2 3,5 3,7 0,3 -1,5 -2,7 -2,2 -5,3 -8,3l-51 0c-5,0 -10,2 -14,6 -2,2 -4,4 -5,7 -1,2 -1,5 -1,8l0 122c0,5 2,10 6,14 2,2 4,4 6,5 3,1 6,1 8,1l51 0c3,0 5,1 7,3 2,2 3,5 3,7 0,3 -1,5 -2,7 -2,2 -5,3 -8,3zm152 -81l-61 0c-11,0 -20,-4 -28,-12 -8,-8 -12,-17 -12,-29l0 -71c0,-2 1,-5 3,-7 2,-2 4,-3 7,-3 2,0 5,1 7,3 2,1 3,4 3,7l0 72c0,5 2,10 6,14 2,2 4,3 6,4 3,1 6,2 8,2l61 0 0 -92c0,-2 1,-5 3,-7 2,-2 5,-3 7,-3 3,0 5,1 7,3 2,1 3,4 3,7l0 153c0,11 -4,20 -11,28 -8,8 -18,12 -29,12l-51 0c-3,0 -5,-1 -7,-3 -2,-2 -3,-4 -3,-7 0,-2 1,-4 3,-7 2,-2 4,-3 7,-3l51 0c6,0 10,-2 14,-6 4,-3 6,-8 6,-14l0 -41z"/>
  <path class="fil5 str0" d="M3199 525l0 -51c0,-3 1,-5 3,-8 2,-1 5,-2 7,-2 3,0 5,0 7,2 2,2 3,4 3,8l0 122c0,3 -1,5 -2,7 -2,2 -5,3 -8,3 -2,0 -5,-1 -7,-3 -2,-1 -3,-4 -3,-7l0 -51 -61 0 0 51c0,3 -1,5 -3,7 -2,2 -4,3 -7,3 -3,0 -5,-1 -7,-3 -2,-1 -3,-4 -3,-7l0 -122c0,-3 1,-5 3,-8 2,-1 4,-2 7,-2 3,0 5,0 7,2 2,2 3,4 3,8l0 51 61 0zm81 0l61 0 0 -21c0,-5 -2,-10 -6,-14 -3,-4 -8,-6 -14,-6l-21 0c-5,0 -10,2 -14,6 -2,2 -4,4 -4,6 -1,3 -2,5 -2,8l0 21zm0 20l0 20c0,6 2,11 6,15 2,2 4,3 6,4 3,1 6,2 8,2l51 0c3,0 5,1 7,3 2,2 3,4 3,7 0,2 0,4 -2,7 -2,2 -4,3 -8,3l-50 0c-12,0 -21,-4 -29,-12 -8,-8 -12,-17 -12,-29l0 -61c0,-11 4,-20 12,-28 7,-8 17,-12 29,-12l20 0c11,0 20,4 28,11 8,8 12,18 12,29l0 31c0,7 -3,10 -10,10l-71 0zm345 51c0,3 -1,5 -3,7 -1,2 -4,3 -7,3 -3,0 -5,-1 -7,-3 -2,-1 -3,-4 -3,-7l0 -92c0,-6 -2,-10 -6,-14 -4,-4 -8,-6 -14,-6l-41 0 0 112c0,3 -1,5 -3,7 -2,2 -4,3 -7,3 -3,0 -5,-1 -7,-3 -2,-1 -3,-4 -3,-7l0 -122c0,-7 3,-10 10,-10l51 0c10,0 20,4 28,11 8,8 12,18 12,29l0 92zm142 -35c0,12 -4,23 -13,32 -8,8 -19,13 -31,13l-13 0c-12,0 -22,-4 -31,-13 -9,-9 -13,-19 -13,-32l0 -53c0,-12 4,-22 13,-31 8,-9 19,-13 31,-13l13 0c12,0 22,4 31,13 9,8 13,19 13,31l0 53zm-20 0l0 -53c0,-6 -2,-12 -7,-17 -5,-5 -10,-7 -17,-7l-13 0c-6,0 -12,2 -17,7 -5,5 -7,10 -7,17l0 53c0,7 2,13 7,17 5,5 11,8 17,8l13 0c6,0 12,-3 17,-7 5,-5 7,-11 7,-18zm114 -16l-12 0c-4,0 -6,-1 -8,-3 -2,-2 -3,-5 -3,-7 0,-3 1,-5 3,-7 2,-2 4,-3 8,-3l10 0c6,0 11,-3 14,-7 4,-4 6,-8 6,-14 0,-6 -2,-10 -5,-14 -2,-2 -4,-3 -6,-4 -3,-2 -6,-2 -9,-2l-10 0c-10,0 -18,3 -25,8 -2,1 -4,2 -6,2 -2,0 -5,-1 -7,-3 -2,-2 -3,-4 -3,-7 0,-3 1,-6 4,-8 10,-8 23,-12 36,-12l11 0c12,0 23,4 30,12 7,8 10,17 10,28 0,3 0,6 -1,9 0,3 -1,5 -2,8 -2,5 -5,9 -10,14 4,3 8,8 10,14l2 8c1,2 1,5 1,8 0,12 -3,21 -10,28 -7,9 -17,13 -30,13l-11 0c-13,0 -25,-4 -36,-12 -3,-2 -4,-5 -4,-8 0,-3 1,-5 3,-7 2,-3 4,-4 7,-4 2,0 4,1 6,2 7,6 15,9 25,9l10 0c6,0 11,-2 14,-7 4,-4 6,-9 6,-14 0,-5 -1,-10 -4,-13 -3,-4 -8,-6 -14,-7zm160 -61l-41 0c-5,0 -10,2 -14,6 -2,2 -4,4 -5,6 -1,3 -1,5 -1,8l0 61c0,6 2,11 6,15 2,2 4,3 6,4 3,1 6,2 8,2l21 0c5,0 10,-2 14,-6 4,-4 6,-9 6,-15l0 -81zm0 -20l0 -21c0,-5 -2,-10 -6,-14 -4,-4 -8,-6 -14,-6l-41 0c-3,0 -6,-1 -8,-3 -1,-2 -2,-4 -2,-7 0,-2 1,-5 2,-7 2,-2 5,-3 8,-3l41 0c11,0 21,4 28,12 8,8 12,17 12,28l0 122c0,11 -4,21 -12,29 -8,8 -17,12 -28,12l-21 0c-11,0 -20,-4 -28,-12 -8,-8 -12,-17 -12,-29l0 -61c0,-11 4,-21 12,-28 8,-8 17,-12 28,-12l41 0zm142 61l0 -51c0,-3 1,-5 3,-8 2,-1 4,-2 7,-2 3,0 5,0 7,2 2,2 3,4 3,8l0 122c0,3 -1,5 -3,7 -1,2 -4,3 -7,3 -3,0 -5,-1 -7,-3 -2,-1 -3,-4 -3,-7l0 -51 -61 0 0 51c0,3 -1,5 -3,7 -2,2 -4,3 -7,3 -3,0 -5,-1 -7,-3 -2,-1 -3,-4 -3,-7l0 -122c0,-3 1,-5 3,-8 2,-1 4,-2 7,-2 2,0 5,0 7,2 2,2 3,4 3,8l0 51 61 0zm81 0l61 0 0 -21c0,-5 -2,-10 -6,-14 -4,-4 -8,-6 -14,-6l-21 0c-5,0 -10,2 -14,6 -2,2 -4,4 -5,6 -1,3 -1,5 -1,8l0 21zm0 20l0 20c0,6 2,11 6,15 2,2 4,3 6,4 3,1 6,2 8,2l51 0c3,0 5,1 7,3 2,2 3,4 3,7 0,2 -1,4 -2,7 -2,2 -4,3 -8,3l-51 0c-11,0 -20,-4 -28,-12 -8,-8 -12,-17 -12,-29l0 -61c0,-11 4,-20 11,-28 8,-8 18,-12 29,-12l21 0c11,0 20,4 28,11 8,8 12,18 12,29l0 31c0,7 -3,10 -10,10l-71 0zm142 -20l61 0 0 -21c0,-5 -2,-10 -6,-14 -3,-4 -8,-6 -14,-6l-21 0c-5,0 -10,2 -14,6 -2,2 -4,4 -5,6 -1,3 -1,5 -1,8l0 21zm0 20l0 20c0,6 2,11 6,15 2,2 4,3 6,4 3,1 6,2 8,2l51 0c3,0 5,1 7,3 2,2 3,4 3,7 0,2 -1,4 -2,7 -2,2 -4,3 -8,3l-51 0c-11,0 -20,-4 -28,-12 -8,-8 -12,-17 -12,-29l0 -61c0,-11 4,-20 12,-28 7,-8 17,-12 28,-12l21 0c11,0 20,4 28,11 8,8 12,18 12,29l0 31c0,7 -3,10 -10,10l-71 0zm325 -20l0 -51c0,-3 1,-5 3,-8 2,-1 4,-2 7,-2 3,0 5,0 7,2 2,2 3,4 3,8l0 122c0,3 -1,5 -3,7 -2,2 -4,3 -7,3 -3,0 -5,-1 -7,-3 -2,-1 -3,-4 -3,-7l0 -51 -41 0c-11,0 -20,-4 -28,-12 -8,-8 -12,-17 -12,-29l0 -30c0,-3 1,-5 3,-8 2,-1 4,-2 7,-2 2,0 5,0 7,2 2,2 3,4 3,8l0 30c0,6 2,11 6,15 2,1 4,3 6,4 3,1 6,2 8,2l41 0zm81 0l61 0 0 -21c0,-5 -2,-10 -6,-14 -4,-4 -8,-6 -14,-6l-21 0c-6,0 -10,2 -14,6 -2,2 -4,4 -5,6 -1,3 -1,5 -1,8l0 21zm0 20l0 20c0,6 2,11 6,15 2,2 4,3 6,4 3,1 6,2 8,2l51 0c3,0 5,1 7,3 2,2 3,4 3,7 0,2 -1,4 -2,7 -2,2 -5,3 -8,3l-51 0c-11,0 -20,-4 -28,-12 -8,-8 -12,-17 -12,-29l0 -61c0,-11 4,-20 11,-28 8,-8 18,-12 29,-12l21 0c11,0 20,4 28,11 8,8 12,18 12,29l0 31c0,7 -3,10 -10,10l-71 0zm243 51l0 -122c0,-4 0,-7 -2,-9 -2,-2 -4,-3 -7,-3 -3,0 -6,2 -9,6l-42 59 -43 -59c-3,-4 -6,-6 -9,-6 -3,0 -5,1 -7,3 -1,2 -2,5 -2,9l0 122c0,3 1,5 3,7 1,2 4,3 7,3 2,0 4,-1 7,-3 2,-2 3,-4 3,-7l0 -90 32 45c3,3 6,5 9,5 2,0 5,-2 8,-5l32 -45 0 90c0,3 1,5 3,7 2,2 4,3 7,3 3,0 5,-1 7,-3 2,-2 3,-4 3,-7zm216 -51l-12 0c-4,0 -6,-1 -8,-3 -2,-2 -3,-5 -3,-7 0,-3 1,-5 3,-7 2,-2 4,-3 8,-3l10 0c6,0 11,-3 14,-7 4,-4 6,-8 6,-14 0,-6 -2,-10 -5,-14 -2,-2 -4,-3 -6,-4 -3,-2 -6,-2 -9,-2l-10 0c-10,0 -18,3 -25,8 -2,1 -4,2 -6,2 -2,0 -5,-1 -7,-3 -2,-2 -3,-4 -3,-7 0,-3 1,-6 4,-8 10,-8 23,-12 36,-12l11 0c12,0 23,4 30,12 7,8 10,17 10,28 0,3 0,6 -1,9 0,3 -1,5 -2,8 -2,5 -5,9 -10,14 4,3 8,8 10,14l2 8c1,2 1,5 1,8 0,12 -3,21 -10,28 -7,9 -17,13 -30,13l-11 0c-13,0 -25,-4 -36,-12 -3,-2 -4,-5 -4,-8 0,-3 1,-5 3,-7 2,-3 4,-4 7,-4 2,0 4,1 6,2 7,6 15,9 25,9l10 0c6,0 11,-2 14,-7 4,-4 6,-9 6,-14 0,-5 -1,-10 -4,-13 -3,-4 -8,-6 -14,-7zm160 20l0 -81 -41 0c-6,0 -10,2 -14,6 -2,2 -4,4 -5,6 -1,3 -1,5 -1,8l0 61c0,6 2,11 6,15 2,2 4,3 6,4 3,1 6,2 8,2l21 0c5,0 10,-2 14,-6 4,-4 6,-9 6,-15zm10 27c-3,4 -8,7 -13,10 -6,3 -12,4 -17,4l-21 0c-11,0 -20,-4 -28,-12 -8,-8 -12,-17 -12,-29l0 -61c0,-11 4,-21 12,-28 8,-8 17,-12 28,-12l51 0c7,0 10,3 10,10l0 91c0,4 1,8 4,12 2,4 6,7 10,9 4,2 7,5 7,9 0,3 -1,6 -3,8 -2,2 -4,3 -8,3 -1,0 -2,-1 -4,-1 -6,-3 -12,-7 -16,-13z"/>
  <path class="fil5 str0" d="M3336 5249l0 -50c0,-3 1,-6 3,-8 2,-2 5,-2 7,-2 3,0 5,0 7,2 2,2 3,4 3,8l0 122c0,3 -1,5 -3,7 -1,2 -4,3 -7,3 -2,0 -5,-1 -7,-3 -2,-2 -3,-4 -3,-7l0 -51 -61 0 0 51c0,3 -1,5 -3,7 -2,2 -4,3 -7,3 -3,0 -5,-1 -7,-3 -2,-2 -3,-4 -3,-7l0 -122c0,-3 1,-6 3,-8 2,-2 4,-2 7,-2 2,0 5,0 7,2 2,2 3,4 3,8l0 50 61 0zm81 1l61 0 0 -21c0,-6 -2,-10 -6,-14 -3,-4 -8,-6 -14,-6l-21 0c-5,0 -10,2 -14,6 -2,2 -4,4 -5,6 0,3 -1,5 -1,8l0 21zm0 20l0 20c0,6 2,11 6,15 2,1 4,3 6,4 3,1 6,2 8,2l51 0c3,0 5,1 7,3 2,2 3,4 3,7 0,2 0,4 -2,6 -2,3 -4,4 -8,4l-51 0c-11,0 -20,-4 -28,-12 -8,-8 -12,-18 -12,-29l0 -61c0,-11 4,-20 12,-28 7,-8 17,-12 28,-12l21 0c11,0 20,3 28,11 8,8 12,18 12,29l0 31c0,6 -3,10 -10,10l-71 0zm264 41l41 0c5,0 10,-2 14,-6 4,-4 6,-9 6,-15l0 -61c0,-6 -2,-11 -6,-14 -4,-4 -8,-6 -14,-6l-41 0 0 102zm0 20l0 50c0,3 -1,6 -3,8 -2,2 -5,3 -7,3 -3,0 -5,-1 -7,-3 -2,-2 -3,-4 -3,-8l0 -182c0,-7 3,-10 10,-10l51 0c11,0 20,3 28,11 8,8 12,18 12,29l0 61c0,11 -4,21 -12,29 -8,8 -17,12 -28,12l-41 0zm203 -41l0 -81 -41 0c-5,0 -10,2 -14,6 -2,1 -4,4 -5,6 -1,3 -1,5 -1,8l0 61c0,6 2,11 6,15 2,1 4,3 6,4 3,1 6,2 8,2l21 0c5,0 10,-2 14,-6 4,-4 6,-9 6,-15zm10 27c-3,4 -8,7 -13,10 -6,2 -12,4 -17,4l-21 0c-11,0 -20,-4 -28,-12 -8,-8 -12,-17 -12,-29l0 -61c0,-11 4,-21 12,-29 8,-8 17,-11 28,-11l51 0c7,0 10,3 10,10l0 91c0,4 2,8 4,12 2,4 6,7 10,9 4,2 7,5 7,9 0,3 -1,6 -3,8 -2,2 -4,3 -7,3 -2,0 -3,-1 -5,-1 -6,-3 -12,-7 -16,-13zm132 -68l0 -50c0,-3 1,-6 3,-8 2,-2 5,-2 7,-2 3,0 5,0 7,2 2,2 3,4 3,8l0 122c0,3 -1,5 -3,7 -1,2 -4,3 -7,3 -2,0 -5,-1 -7,-3 -2,-2 -3,-4 -3,-7l0 -51 -61 0 0 51c0,3 -1,5 -3,7 -2,2 -4,3 -7,3 -3,0 -5,-1 -7,-3 -2,-2 -3,-4 -3,-7l0 -122c0,-3 1,-6 3,-8 2,-2 4,-2 7,-2 2,0 5,0 7,2 2,2 3,4 3,8l0 50 61 0zm81 1l61 0 0 -21c0,-6 -2,-10 -6,-14 -3,-4 -8,-6 -14,-6l-21 0c-5,0 -10,2 -14,6 -2,2 -4,4 -5,6 -1,3 -1,5 -1,8l0 21zm0 20l0 20c0,6 2,11 6,15 2,1 4,3 6,4 3,1 6,2 8,2l51 0c3,0 5,1 7,3 2,2 3,4 3,7 0,2 -1,4 -2,6 -2,3 -4,4 -8,4l-51 0c-11,0 -20,-4 -28,-12 -8,-8 -12,-18 -12,-29l0 -61c0,-11 4,-20 12,-28 7,-8 17,-12 28,-12l21 0c11,0 20,3 28,11 8,8 12,18 12,29l0 31c0,6 -3,10 -10,10l-71 0zm142 -20l61 0 0 -21c0,-6 -2,-10 -6,-14 -3,-4 -8,-6 -14,-6l-21 0c-5,0 -10,2 -14,6 -2,2 -4,4 -5,6 0,3 -1,5 -1,8l0 21zm0 20l0 20c0,6 2,11 6,15 2,1 4,3 6,4 3,1 6,2 8,2l51 0c3,0 5,1 7,3 2,2 3,4 3,7 0,2 0,4 -2,6 -2,3 -4,4 -8,4l-51 0c-11,0 -20,-4 -28,-12 -8,-8 -12,-18 -12,-29l0 -61c0,-11 4,-20 12,-28 7,-8 17,-12 28,-12l21 0c11,0 20,3 28,11 8,8 12,18 12,29l0 31c0,6 -3,10 -10,10l-71 0zm325 -21l0 -50c0,-3 1,-6 3,-8 2,-2 4,-2 7,-2 3,0 5,0 7,2 2,2 3,4 3,8l0 122c0,3 -1,5 -3,7 -2,2 -4,3 -7,3 -3,0 -5,-1 -7,-3 -2,-2 -3,-4 -3,-7l0 -51 -41 0c-11,0 -20,-4 -28,-12 -8,-8 -12,-18 -12,-29l0 -30c0,-3 1,-6 3,-8 2,-2 4,-2 7,-2 2,0 5,0 7,2 2,2 3,4 3,8l0 30c0,6 2,11 6,15 2,1 4,3 6,4 3,1 6,1 8,1l41 0zm81 1l61 0 0 -21c0,-6 -2,-10 -6,-14 -4,-4 -8,-6 -14,-6l-21 0c-5,0 -10,2 -14,6 -2,2 -4,4 -5,6 -1,3 -1,5 -1,8l0 21zm0 20l0 20c0,6 2,11 6,15 2,1 4,3 6,4 3,1 6,2 8,2l51 0c3,0 5,1 7,3 2,2 3,4 3,7 0,2 -1,4 -2,6 -2,3 -5,4 -8,4l-51 0c-11,0 -20,-4 -28,-12 -8,-8 -12,-18 -12,-29l0 -61c0,-11 4,-20 11,-28 8,-8 18,-12 29,-12l21 0c11,0 20,3 28,11 8,8 12,18 12,29l0 31c0,6 -3,10 -10,10l-71 0zm243 51l0 -122c0,-4 0,-7 -2,-9 -2,-2 -4,-3 -7,-3 -3,0 -6,2 -9,6l-42 59 -43 -59c-3,-4 -6,-6 -9,-6 -3,0 -5,1 -7,3 -1,2 -2,5 -2,9l0 122c0,3 1,5 3,7 1,2 4,3 7,3 2,0 5,-1 7,-3 2,-2 3,-4 3,-7l0 -91 32 46c3,3 6,5 9,5 2,0 5,-2 8,-5l32 -46 0 91c0,3 1,5 3,7 2,2 4,3 7,3 3,0 5,-1 7,-3 2,-2 3,-4 3,-7zm216 -51l-12 0c-4,0 -6,-1 -8,-3 -2,-2 -3,-5 -3,-8 0,-2 1,-4 3,-6 2,-3 4,-4 8,-4l10 0c6,0 11,-2 15,-6 3,-4 5,-9 5,-14 0,-6 -2,-10 -5,-14 -2,-2 -4,-3 -6,-5 -3,-1 -6,-1 -9,-1l-10 0c-10,0 -18,2 -25,8 -2,1 -4,2 -6,2 -2,0 -5,-1 -7,-3 -2,-2 -3,-4 -3,-7 0,-3 1,-6 4,-8 10,-8 23,-12 37,-12l10 0c12,0 23,4 30,12 7,8 10,17 10,28 0,3 0,6 -1,9 0,2 -1,5 -2,8 -2,5 -5,9 -10,14 4,3 8,8 10,13l2 9c1,2 1,5 1,8 0,11 -3,21 -10,28 -7,8 -17,13 -30,13l-10 0c-14,0 -26,-4 -37,-12 -3,-3 -4,-5 -4,-9 0,-2 1,-4 3,-7 2,-2 4,-3 7,-3 2,0 4,1 6,2 7,6 15,9 25,9l10 0c6,0 11,-3 14,-7 4,-4 6,-9 6,-14 0,-5 -1,-10 -4,-13 -3,-4 -8,-6 -14,-7zm160 20l0 -81 -41 0c-5,0 -10,2 -14,6 -2,1 -4,4 -5,6 -1,3 -1,5 -1,8l0 61c0,6 2,11 6,15 2,1 4,3 6,4 3,1 6,2 8,2l21 0c5,0 10,-2 14,-6 4,-4 6,-9 6,-15zm10 27c-3,4 -8,7 -13,10 -6,2 -12,4 -17,4l-21 0c-11,0 -20,-4 -28,-12 -8,-8 -12,-17 -12,-29l0 -61c0,-11 4,-21 12,-29 8,-8 17,-11 28,-11l51 0c7,0 10,3 10,10l0 91c0,4 2,8 4,12 2,4 6,7 10,9 4,2 7,5 7,9 0,3 -1,6 -3,8 -2,2 -4,3 -7,3 -2,0 -3,-1 -5,-1 -6,-3 -12,-7 -16,-13z"/>
 </g>
</svg>
