<?xml version="1.0" encoding="UTF-8"?>
<!DOCTYPE svg PUBLIC "-//W3C//DTD SVG 1.0//EN" "http://www.w3.org/TR/2001/REC-SVG-20010904/DTD/svg10.dtd">
<!-- Creator: CorelDRAW X7 -->
<svg xmlns="http://www.w3.org/2000/svg" xml:space="preserve" width="115mm" height="70.122mm" version="1.0" style="shape-rendering:geometricPrecision; text-rendering:geometricPrecision; image-rendering:optimizeQuality; fill-rule:evenodd; clip-rule:evenodd"
viewBox="0 0 11500 7012"
 xmlns:xlink="http://www.w3.org/1999/xlink">
 <defs>
  <style type="text/css">
   <![CDATA[
    .str0 {stroke:#3497A1;stroke-width:8.76524}
    .str1 {stroke:#5B5B5B;stroke-width:2.67165}
    .fil5 {fill:#FEFEFE}
    .fil39 {fill:#5B5B5B}
    .fil37 {fill:#434242}
    .fil11 {fill:#FCE2D5}
    .fil13 {fill:#FCDFC3}
    .fil45 {fill:#F9E1C9}
    .fil27 {fill:#F8E1D0}
    .fil2 {fill:#F8DDC9}
    .fil43 {fill:#F8D8B7}
    .fil33 {fill:#F7CFA5}
    .fil38 {fill:#F7CFB5}
    .fil47 {fill:#F7CBA8}
    .fil8 {fill:#F6F8F9}
    .fil19 {fill:#F5D8B9}
    .fil16 {fill:#F2F2F3}
    .fil31 {fill:#EED7C7}
    .fil7 {fill:#EDD1BF}
    .fil41 {fill:#EDC5AB}
    .fil52 {fill:#EDC3A0}
    .fil35 {fill:#ECC59B}
    .fil20 {fill:#EBECEC}
    .fil15 {fill:#CA3637}
    .fil17 {fill:#D4B699}
    .fil21 {fill:#B83633}
    .fil46 {fill:#CCB6A1}
    .fil28 {fill:#CCB5A5}
    .fil3 {fill:#CCB1A0}
    .fil44 {fill:#CCAF92}
    .fil34 {fill:#CAA781}
    .fil40 {fill:#CBA88F}
    .fil51 {fill:#CAA483}
    .fil29 {fill:#C69C3B}
    .fil48 {fill:#ACC1CB}
    .fil4 {fill:#8B674E}
    .fil18 {fill:#80604D}
    .fil22 {fill:#9AADB5}
    .fil42 {fill:#6C5C49}
    .fil26 {fill:#7D96A4}
    .fil14 {fill:#6B6560}
    .fil30 {fill:#758E9C}
    .fil24 {fill:#6E8695}
    .fil53 {fill:#444342}
    .fil12 {fill:#433F3E}
    .fil50 {fill:#3EA8DF}
    .fil25 {fill:#3F3C3A}
    .fil9 {fill:#3F3C3A}
    .fil36 {fill:#3E3B39}
    .fil49 {fill:#2F2D2B}
    .fil23 {fill:#2797CE}
    .fil1 {fill:#2C8187}
    .fil6 {fill:#277B81}
    .fil10 {fill:#287579}
    .fil55 {fill:#0050A0}
    .fil32 {fill:#3198A2}
    .fil56 {fill:#3497A1}
    .fil61 {fill:#3C4F59}
    .fil64 {fill:#581109}
    .fil60 {fill:#7C8E97}
    .fil62 {fill:#964230}
    .fil59 {fill:#BB8076}
    .fil63 {fill:#CBA097}
    .fil58 {fill:#D4EFFF}
    .fil57 {fill:#DBBCB6}
    .fil54 {fill:#FEE9D0}
    .fil65 {fill:white}
    .fil0 {fill:url(#id0)}
   ]]>
  </style>
  <radialGradient id="id0" gradientUnits="userSpaceOnUse" gradientTransform="matrix(1.17124 -0 -0 1.92083 -985 -3229)" cx="5750" cy="3506.1" r="3506.1" fx="5750" fy="3506.1">
   <stop offset="0" style="stop-opacity:1; stop-color:#FEFEFE"/>
   <stop offset="0.439216" style="stop-opacity:1; stop-color:#FEFEFE"/>
   <stop offset="1" style="stop-opacity:1; stop-color:#D1E2F2"/>
  </radialGradient>
 </defs>
 <g id="Layer_x0020_1">
  <metadata id="CorelCorpID_0Corel-Layer"/>
  <path class="fil0" d="M0 0l11500 0 0 7012 -11500 0 0 -7012z"/>
  <g id="_101446309632">
   <path class="fil1" d="M4154 925c-1,2 -128,4 -129,6 -40,57 -126,82 -195,97 -68,16 -71,102 -71,160l665 0c0,-58 -1,-144 -71,-160 -70,-15 -161,-43 -199,-103z"/>
   <path class="fil2" d="M4025 804l0 109 0 54c33,68 93,70 133,0l0 -54 0 -109c0,-88 -133,-88 -133,0z"/>
   <path class="fil2" d="M4267 728c-13,-6 -32,8 -42,32 -10,24 -7,49 6,55 14,6 33,-9 42,-33 10,-24 8,-48 -6,-54z"/>
   <path class="fil2" d="M3916 728c13,-6 32,8 42,32 10,24 7,49 -6,55 -14,6 -32,-9 -42,-33 -10,-24 -7,-48 6,-54z"/>
   <path class="fil3" d="M4091 931c-24,0 -66,-42 -66,-42l0 -4 133 0 0 4c0,0 -43,42 -67,42z"/>
   <path class="fil2" d="M4092 917c-42,0 -129,-69 -156,-166 -27,-99 24,-240 156,-240 131,0 183,141 155,240 -27,97 -114,166 -155,166z"/>
   <path class="fil4" d="M4061 633c-33,68 -46,88 -89,70 -43,-18 -35,32 -27,68 -38,-48 -33,-94 -21,-141 13,-51 78,-129 139,-127 34,-4 84,0 138,39 93,67 62,219 37,237 24,-140 -35,-112 -77,-185 -13,-33 -65,-35 -100,39z"/>
   <path class="fil5" d="M4083 1188l14 0 0 -168 -14 0 0 168z"/>
   <path class="fil5" d="M4025 931l-48 44 61 94 52 -50 -65 -88z"/>
   <path class="fil5" d="M4158 931l48 45 -64 93 -52 -50 68 -88z"/>
   <path class="fil1" d="M4021 700c-24,-1 -56,2 -61,4 -8,3 -8,3 -9,10 0,6 0,11 5,12 6,3 6,11 9,34 3,22 11,39 49,42 2,0 3,0 5,0l0 -6c-17,0 -36,-6 -43,-20 -9,-19 -10,-56 3,-64 5,-4 23,-6 42,-5l0 -7zm72 12c-8,1 -42,-9 -67,-11 -1,0 -3,-1 -5,-1l0 7c20,1 40,5 47,16 12,17 -9,59 -28,69 -5,2 -13,4 -21,4l0 6c33,0 45,-24 49,-31 8,-15 6,-36 25,-36 19,0 16,20 23,35 3,8 14,33 48,32l0 -6c-8,0 -16,-2 -22,-5 -18,-9 -36,-51 -24,-68 8,-11 28,-16 48,-17l0 -6c-2,0 -3,0 -5,0 -22,2 -48,12 -68,12zm71 90c1,0 3,0 4,-1 38,-3 47,-20 51,-41 5,-24 5,-32 11,-34 5,-2 6,-7 6,-13 0,-6 -1,-7 -8,-9 -6,-3 -38,-5 -62,-4l0 6c19,-1 37,2 42,5 13,8 9,46 -1,65 -7,13 -26,19 -43,20l0 6z"/>
   <path class="fil6" d="M4090 1019l0 0 0 0c0,0 0,0 0,0l0 0z"/>
   <path class="fil7" d="M4090 1019l-65 -88 0 -2 65 88 68 -88 0 2 -68 88c0,0 0,0 0,0z"/>
   <path class="fil8" d="M4090 1019l-65 -88 65 88 0 0z"/>
   <path class="fil8" d="M4090 1019l0 0 0 0 68 -88 -68 88z"/>
   <path class="fil9" d="M4165 960l0 0 0 0 0 0zm-28 0l0 0 0 0 0 0z"/>
   <path class="fil10" d="M4165 960l-28 0 0 0 28 0 0 0z"/>
   <path class="fil11" d="M4328 1250c-155,68 -201,105 -220,121 -28,25 -43,118 -60,198l350 0 351 0c-17,-80 -32,-173 -61,-198 -18,-16 -63,-52 -218,-120l-142 -1z"/>
   <path class="fil12" d="M4328 1250c-155,68 -201,105 -220,121 -28,25 -43,118 -60,198l350 0 351 0c-17,-80 -32,-173 -61,-198 -18,-16 -63,-52 -218,-120l-142 -1z"/>
   <path class="fil13" d="M4323 1115l0 115 0 57c41,49 109,50 151,0l0 -57 0 -115c0,-93 -151,-93 -151,0z"/>
   <path class="fil13" d="M4241 1007c14,-4 31,11 38,34 8,23 3,45 -10,49 -13,4 -30,-11 -38,-34 -7,-22 -3,-45 10,-49z"/>
   <path class="fil13" d="M4555 1007c-14,-4 -31,11 -38,34 -8,23 -3,45 10,49 13,4 30,-11 38,-34 7,-22 3,-45 -10,-49z"/>
   <path class="fil5" d="M4399 1324c0,0 -105,25 -105,32 0,6 40,213 40,213l142 0 17 -213 -94 -32z"/>
   <path class="fil14" d="M4323 1253l0 34 33 282 -56 0 -62 -126 59 -39 -72 -34 66 -103 32 -14z"/>
   <path class="fil14" d="M4474 1253l0 34 -33 282 56 0 62 -126 -59 -39 72 -34 -59 -100 -39 -17z"/>
   <path class="fil15" d="M4366 1359l18 28c10,0 19,0 28,0l19 -28 -32 -35 -33 35z"/>
   <path class="fil15" d="M4384 1387l-26 182 80 0 -26 -182 -28 0z"/>
   <path class="fil16" d="M4323 1230l-6 26 18 133 64 -65 -76 -94z"/>
   <path class="fil17" d="M4400 1251c0,0 -1,0 -2,0 -36,-2 -75,-47 -75,-47l0 -6 151 0 0 9c0,0 -38,44 -74,44z"/>
   <path class="fil18" d="M4518 820c34,5 53,29 61,61 21,83 -23,264 -177,266 -79,1 -136,-19 -157,-83 -21,-64 -29,-168 16,-226 57,-73 176,-73 257,-18z"/>
   <path class="fil13" d="M4398 807c-231,0 -142,317 -127,341 17,27 90,86 127,86 38,0 111,-59 128,-86 15,-24 104,-341 -128,-341z"/>
   <path class="fil18" d="M4287 906c41,25 73,-12 110,4 37,16 138,-61 160,108 35,-123 -18,-210 -153,-216 -143,-6 -201,124 -162,246 -2,-66 14,-109 45,-142z"/>
   <path class="fil18" d="M4283 895c1,22 37,25 52,26 15,1 28,-1 42,-5 17,-5 39,-11 52,-23 2,-1 1,-3 -1,-4 -26,-4 -53,17 -79,20 -20,2 -47,-1 -64,-15 -1,-1 -2,0 -2,1z"/>
   <path class="fil15" d="M4328 1001c-24,-1 -56,2 -62,4 -7,2 -7,3 -8,9 0,6 0,11 5,13 6,2 5,10 9,34 3,21 11,38 48,41 2,0 4,0 6,0l0 -6c-17,0 -36,-6 -43,-19 -9,-19 -10,-57 3,-65 5,-3 23,-6 42,-5l0 -6zm72 12c-9,0 -43,-10 -67,-12 -2,0 -3,0 -5,0l0 6c19,1 40,6 47,16 11,17 -9,60 -28,69 -6,3 -13,4 -21,4l0 6c32,0 45,-23 49,-31 7,-15 6,-35 24,-35 19,0 16,20 23,35 4,7 14,32 48,31l0 -6c-8,0 -16,-1 -22,-4 -18,-10 -36,-52 -24,-69 8,-10 28,-15 48,-16l0 -6c-2,0 -3,0 -5,0 -21,2 -48,12 -67,12zm70 89c1,0 3,0 4,0 38,-4 47,-20 51,-42 5,-23 5,-31 11,-34 5,-1 6,-6 6,-13 -1,-6 -1,-6 -8,-9 -6,-2 -38,-5 -62,-3l0 6c19,-1 37,1 42,5 12,8 9,45 -1,64 -7,13 -26,20 -43,20l0 6z"/>
   <path class="fil16" d="M4474 1230l5 25 -18 135 -62 -66 75 -94z"/>
   <path class="fil19" d="M4399 1324l0 0 -76 -94 0 -2 76 93 75 -93 0 2 -75 94z"/>
   <path class="fil20" d="M4413 1388l0 0 -1 -1 1 1zm-29 0l0 0 0 -1 0 1z"/>
   <path class="fil21" d="M4413 1388l-29 0 0 -1 28 0 1 1z"/>
   <path class="fil22" d="M4798 1480l0 0 0 -1 0 1zm-28 0l0 0 0 -1 0 1z"/>
   <path class="fil23" d="M4798 1480l-28 0 0 -1 28 0 0 1z"/>
   <path class="fil24" d="M3476 1602l0 0 0 -1 0 1zm-28 0l0 0 0 -1 0 1z"/>
   <path class="fil25" d="M4070 1000l0 0c0,0 0,0 0,0l0 0z"/>
   <path class="fil11" d="M3687 1251c-155,68 -202,104 -220,121 -28,25 -44,118 -61,197l351 0 350 0c-16,-79 -32,-172 -60,-197 -19,-17 -63,-52 -218,-120l-142 -1z"/>
   <path class="fil26" d="M3687 1251c-155,68 -202,104 -220,121 -28,25 -44,118 -61,197l351 0 350 0c-16,-79 -32,-172 -60,-197 -19,-17 -63,-52 -218,-120l-142 -1z"/>
   <path class="fil27" d="M3682 1116l0 115 0 57c41,49 109,50 150,0l0 -57 0 -115c0,-93 -150,-93 -150,0z"/>
   <path class="fil27" d="M3600 1008c13,-4 30,11 38,33 7,23 3,46 -11,50 -13,4 -30,-11 -37,-34 -8,-23 -3,-45 10,-49z"/>
   <path class="fil27" d="M3913 1008c-13,-4 -30,11 -38,33 -7,23 -2,46 11,50 13,4 30,-11 37,-34 8,-23 3,-45 -10,-49z"/>
   <path class="fil12" d="M3725 1360l18 28c9,0 19,0 28,0l18 -28 -32 -35 -32 35z"/>
   <path class="fil12" d="M3743 1388l-26 181 80 0 -26 -181 -28 0z"/>
   <path class="fil16" d="M3682 1231l-7 25 19 134 63 -65 -75 -94z"/>
   <path class="fil28" d="M3759 1252c-1,0 -2,0 -2,0 -37,-2 -75,-48 -75,-48l0 -5 150 0 0 9c0,0 -37,44 -73,44z"/>
   <path class="fil27" d="M3757 808c-231,0 -143,317 -128,341 17,27 91,86 128,86 37,0 111,-59 128,-86 15,-24 103,-341 -128,-341z"/>
   <path class="fil29" d="M3745 875c-1,0 -2,0 -4,-1 2,1 4,1 6,2 0,0 -1,0 -2,-1zm119 -60c-80,-70 -236,19 -273,71 15,51 8,117 19,190l0 0c0,0 0,1 0,2 0,1 2,2 2,3 0,0 3,0 4,-1 0,0 1,0 1,-1 0,-6 0,-19 0,-19 -1,-10 0,-20 -1,-30 7,-46 1,-48 26,-94 2,-4 16,-20 18,-21 42,-16 57,10 96,26 15,6 38,7 55,7 26,0 52,-29 52,-35 32,48 35,83 44,125 -1,7 -3,14 -3,22 0,0 -1,13 0,19 0,1 0,1 0,1 1,1 4,1 4,1 1,-1 2,-2 2,-3 1,-3 1,-5 1,-8 1,-4 1,-7 2,-11 12,-46 34,-225 -49,-244z"/>
   <path class="fil16" d="M3832 1231l5 25 -17 135 -63 -66 75 -94z"/>
   <path class="fil30" d="M3757 1325l0 0c0,0 0,0 0,0l0 0z"/>
   <path class="fil31" d="M3757 1325l0 0 -75 -94 0 -2 75 93 75 -93 0 2 -75 94z"/>
   <path class="fil24" d="M3771 1389l0 0 0 -1 0 1zm-28 0l0 0 0 -1 0 1z"/>
   <path class="fil9" d="M3771 1389l-28 0 0 -1 28 0 0 1z"/>
  </g>
  <g id="_136835466320">
   <path class="fil32 str0" d="M3083 1789c0,2 -1,4 -2,6 -2,1 -4,1 -6,1 -2,0 -4,0 -5,-1 -2,-2 -2,-4 -2,-6l0 -130 -61 0 0 130c0,2 -1,4 -2,6 -2,1 -4,1 -6,1 -2,0 -4,0 -5,-1 -2,-2 -2,-4 -2,-6l0 -137c0,-5 2,-8 7,-8l76 0c5,0 8,3 8,8l0 137zm106 -26c0,9 -3,17 -9,23 -7,7 -15,10 -24,10l-9 0c-9,0 -17,-3 -24,-9 -6,-7 -10,-15 -10,-24l0 -40c0,-9 4,-16 10,-23 7,-7 14,-10 24,-10l9 0c9,0 17,3 23,10 7,6 10,14 10,23l0 40zm-15 0l0 -40c0,-5 -2,-9 -5,-13 -4,-3 -8,-5 -13,-5l-9 0c-5,0 -10,2 -13,5 -4,4 -6,8 -6,13l0 40c0,5 2,9 6,13 3,3 8,5 13,5l9 0c5,0 9,-1 13,-5 3,-3 5,-8 5,-13zm122 26c0,2 -1,4 -2,6 -2,1 -3,1 -6,1 -2,0 -3,0 -5,-1 -1,-2 -2,-4 -2,-6l0 -84 -18 0 -28 86c-1,2 -2,3 -3,4 0,0 -2,1 -4,1 -2,0 -4,0 -6,-2 -1,-1 -2,-3 -2,-5l1 -3 30 -91c1,-3 3,-5 7,-5l30 0c5,0 8,2 8,7l0 92zm106 0c0,5 -2,7 -7,7l-38 0c-8,0 -16,-3 -22,-8 -6,-6 -9,-13 -9,-22l0 -69c0,-2 1,-4 3,-5 1,-2 3,-2 5,-2 2,0 4,0 5,2 2,1 2,3 2,5l0 69c0,4 2,8 5,11 1,1 3,2 5,3 2,1 4,1 6,1l30 0 0 -84c0,-2 1,-4 3,-5 1,-2 3,-2 5,-2 2,0 4,0 5,2 2,1 2,3 2,5l0 92zm77 -84l-31 0 0 84c0,2 -1,4 -2,6 -2,1 -3,1 -6,1 -2,0 -3,0 -5,-1 -1,-2 -2,-4 -2,-6l0 -92c0,-5 2,-7 7,-7l69 0c8,0 15,3 21,9 6,6 9,13 9,21l0 69c0,2 0,4 -2,6 -1,1 -3,1 -5,1 -2,0 -4,0 -6,-1 -1,-2 -2,-4 -2,-6l0 -69c0,-4 -1,-8 -4,-11 -3,-3 -7,-4 -11,-4l-15 0 0 84c0,2 -1,4 -3,6 -1,1 -3,1 -5,1 -2,0 -4,0 -5,-1 -2,-2 -2,-4 -2,-6l0 -84zm167 84c0,5 -3,7 -8,7l-38 0c-8,0 -15,-3 -21,-8 -6,-6 -9,-13 -9,-22l0 -69c0,-2 1,-4 2,-5 2,-2 3,-2 5,-2 2,0 4,0 6,2 1,1 2,3 2,5l0 69c0,4 1,8 4,11 2,1 3,2 5,3 2,1 4,1 6,1l31 0 0 -84c0,-2 1,-4 2,-5 2,-2 3,-2 5,-2 2,0 4,0 6,2 1,1 2,3 2,5l0 92zm91 -54l0 -38c0,-2 1,-4 3,-5 1,-2 3,-2 5,-2 2,0 4,0 5,2 2,1 2,3 2,5l0 92c0,2 0,4 -2,6 -1,1 -3,1 -5,1 -2,0 -4,0 -5,-2 -2,-1 -3,-3 -3,-5l0 -38 -30 0c-8,0 -15,-3 -22,-9 -6,-6 -9,-13 -9,-22l0 -23c0,-2 1,-4 3,-5 1,-2 3,-2 5,-2 2,0 4,0 5,2 2,1 2,3 2,5l0 23c0,4 2,8 5,11 1,1 3,2 5,3 2,1 4,1 6,1l30 0zm61 1l46 0 0 -16c0,-4 -2,-8 -4,-11 -3,-3 -7,-4 -11,-4l-16 0c-4,0 -8,1 -11,4 -1,2 -2,3 -3,5 -1,2 -1,4 -1,6l0 16zm0 15l0 15c0,4 1,8 4,11 2,1 4,2 5,3 2,1 4,1 6,1l38 0c2,0 4,1 6,3 1,1 2,3 2,5 0,2 -1,3 -2,5 -1,2 -3,2 -6,2l-38 0c-8,0 -15,-3 -21,-8 -6,-6 -9,-14 -9,-22l0 -46c0,-8 3,-15 9,-21 6,-6 13,-9 21,-9l16 0c8,0 15,3 21,9 6,6 9,13 9,21l0 23c0,5 -2,8 -8,8l-53 0zm145 45l-23 0c-8,0 -15,-3 -21,-8 -7,-6 -10,-13 -10,-22l0 -46c0,-8 3,-15 9,-21 6,-6 13,-9 22,-9l23 0c2,0 4,1 5,2 2,2 2,3 2,5 0,2 0,4 -2,5 -1,2 -3,3 -5,3l-23 0c-4,0 -8,1 -11,4 -2,2 -3,3 -3,5 -1,2 -1,4 -1,6l0 46c0,4 1,8 4,11 1,1 3,2 5,3 2,1 4,1 6,1l23 0c2,0 4,1 5,3 2,1 2,3 2,5 0,2 0,3 -2,5 -1,2 -3,2 -5,2zm68 -49l-17 17 0 25c0,2 0,4 -2,6 -1,1 -3,1 -5,1 -2,0 -4,0 -6,-1 -1,-2 -2,-4 -2,-6l0 -92c0,-2 1,-3 2,-5 2,-1 4,-2 6,-2 2,0 3,1 5,2 2,1 2,3 2,5l0 45 49 -50c1,-2 3,-2 5,-2 1,0 3,0 5,2 1,1 2,3 2,6 0,2 -1,4 -2,5l-31 32 31 49c2,2 2,4 2,5 0,2 -1,4 -2,5 -2,2 -4,3 -6,3 -2,0 -3,-1 -5,-3l-31 -47zm145 42c0,5 -3,7 -8,7l-38 0c-8,0 -15,-3 -21,-8 -6,-6 -9,-13 -9,-22l0 -69c0,-2 0,-4 2,-5 1,-2 3,-2 5,-2 2,0 4,0 5,2 2,1 3,3 3,5l0 69c0,4 1,8 4,11 2,1 3,2 5,3 2,1 4,1 6,1l31 0 0 -84c0,-2 0,-4 2,-5 1,-2 3,-2 5,-2 2,0 4,0 5,2 2,1 3,3 3,5l0 92zm45 -53l46 0 0 -16c0,-4 -1,-8 -4,-11 -3,-3 -7,-4 -11,-4l-15 0c-5,0 -8,1 -11,4 -2,2 -3,3 -4,5 0,2 -1,4 -1,6l0 16zm0 15l0 15c0,4 2,8 5,11 1,1 3,2 5,3 2,1 4,1 5,1l39 0c2,0 4,1 5,3 1,1 2,3 2,5 0,2 0,3 -2,5 -1,2 -3,2 -5,2l-38 0c-9,0 -16,-3 -22,-8 -6,-6 -9,-14 -9,-22l0 -46c0,-8 3,-15 9,-21 6,-6 13,-9 22,-9l15 0c8,0 15,3 21,9 6,6 9,13 9,21l0 23c0,5 -2,8 -7,8l-54 0zm259 38c0,2 -1,4 -2,6 -1,1 -3,1 -5,1 -2,0 -4,0 -6,-1 -1,-2 -2,-4 -2,-6l0 -69c0,-4 -2,-8 -4,-11 -3,-3 -7,-4 -11,-4l-31 0 0 84c0,2 -1,4 -2,6 -1,1 -3,1 -5,1 -2,0 -4,0 -6,-1 -1,-2 -2,-4 -2,-6l0 -92c0,-5 2,-7 8,-7l38 0c8,0 15,3 21,9 6,5 9,13 9,21l0 69zm91 -23l0 -61 -30 0c-4,0 -8,1 -11,4 -1,2 -3,3 -3,5 -1,2 -1,4 -1,6l0 46c0,4 1,8 4,11 2,1 3,2 5,3 2,1 4,1 6,1l15 0c4,0 8,-1 11,-4 3,-3 4,-6 4,-11zm8 20c-3,3 -6,6 -10,8 -4,1 -9,2 -13,2l-15 0c-8,0 -15,-3 -21,-8 -6,-6 -10,-13 -10,-22l0 -46c0,-8 3,-15 9,-21 6,-6 14,-9 22,-9l38 0c5,0 8,2 8,7l0 69c0,3 1,6 3,9 1,3 4,5 7,7 3,1 5,3 5,7 0,2 -1,4 -2,5 -2,2 -3,2 -6,2 -1,0 -2,0 -3,0 -5,-2 -9,-5 -12,-10zm53 -5l31 0c4,0 8,-1 11,-4 3,-3 4,-6 4,-11l0 -46c0,-4 -1,-8 -4,-11 -3,-3 -7,-4 -11,-4l-31 0 0 76zm0 15l0 38c0,3 -1,4 -2,6 -2,1 -3,2 -5,2 -2,0 -4,-1 -6,-2 -1,-1 -2,-3 -2,-6l0 -137c0,-5 3,-7 8,-7l38 0c8,0 15,3 21,9 6,6 9,13 9,21l0 46c0,8 -3,15 -9,21 -6,6 -13,9 -21,9l-31 0zm137 -91l-30 0 0 84c0,2 -1,4 -2,6 -2,1 -4,1 -6,1 -2,0 -4,0 -5,-1 -2,-2 -2,-4 -2,-6l0 -92c0,-5 2,-7 7,-7l69 0c8,0 15,3 21,9 6,6 9,13 9,21l0 69c0,2 -1,4 -2,6 -2,1 -3,1 -6,1 -2,0 -3,0 -5,-1 -1,-2 -2,-4 -2,-6l0 -69c0,-4 -2,-8 -4,-11 -3,-3 -7,-4 -11,-4l-16 0 0 84c0,2 0,4 -2,6 -1,1 -3,1 -5,1 -2,0 -4,0 -6,-1 -1,-2 -2,-4 -2,-6l0 -84zm168 84c0,5 -3,7 -8,7l-38 0c-8,0 -15,-3 -21,-8 -6,-6 -10,-13 -10,-22l0 -69c0,-2 1,-4 3,-5 1,-2 3,-2 5,-2 2,0 4,0 5,2 2,1 3,3 3,5l0 69c0,4 1,8 4,11 2,1 3,2 5,3 2,1 4,1 6,1l30 0 0 -84c0,-2 1,-4 3,-5 1,-2 3,-2 5,-2 2,0 4,0 5,2 2,1 3,3 3,5l0 92zm106 0c0,5 -2,7 -7,7l-39 0c-8,0 -15,-3 -21,-8 -6,-6 -9,-13 -9,-22l0 -69c0,-2 1,-4 2,-5 2,-2 4,-2 6,-2 2,0 3,0 5,2 1,1 2,3 2,5l0 69c0,4 2,8 5,11 1,1 3,2 4,3 3,1 5,1 6,1l31 0 0 -84c0,-2 1,-4 2,-5 2,-2 4,-2 6,-2 2,0 3,0 5,2 1,1 2,3 2,5l0 92zm-2058 243c0,6 -3,8 -8,8l-38 0c-8,0 -15,-3 -21,-9 -6,-6 -9,-13 -9,-21l0 -69c0,-2 0,-4 2,-6 1,-1 3,-2 5,-2 2,0 4,1 6,2 1,2 2,3 2,6l0 69c0,4 1,8 4,11 2,1 3,2 5,3 2,1 4,1 6,1l31 0 0 -84c0,-2 0,-4 2,-6 2,-1 3,-2 5,-2 2,0 4,1 6,2 1,2 2,3 2,6l0 91zm183 -83l-31 0c-4,0 -8,1 -11,4 -1,1 -2,3 -3,5 -1,2 -1,4 -1,6l0 46c0,4 1,8 4,11 2,1 3,2 5,3 2,1 4,1 6,1l15 0c5,0 8,-2 11,-4 3,-3 5,-7 5,-11l0 -61zm0 -16l0 -15c0,-4 -2,-8 -5,-11 -3,-3 -6,-4 -11,-4l-30 0c-3,0 -4,-1 -6,-2 -1,-2 -2,-4 -2,-6 0,-1 1,-3 2,-5 1,-1 3,-2 6,-2l30 0c9,0 16,3 22,9 6,6 9,13 9,21l0 92c0,8 -3,15 -9,21 -6,6 -13,9 -22,9l-15 0c-8,0 -15,-3 -21,-9 -6,-6 -9,-13 -9,-21l0 -46c0,-9 3,-16 9,-22 5,-6 13,-9 21,-9l31 0zm60 92l31 0c4,0 8,-2 11,-4 3,-3 4,-7 4,-11l0 -46c0,-4 -1,-8 -4,-11 -3,-3 -7,-4 -11,-4l-31 0 0 76zm0 15l0 38c0,2 -1,4 -2,5 -2,2 -3,3 -5,3 -2,0 -4,-1 -5,-2 -2,-1 -3,-3 -3,-6l0 -137c0,-5 3,-8 8,-8l38 0c8,0 15,3 21,9 6,6 9,13 9,22l0 46c0,8 -3,15 -9,21 -6,6 -13,9 -21,9l-31 0zm153 0l-31 0c-8,0 -15,-3 -21,-9 -6,-6 -9,-13 -9,-21l0 -69c0,-2 0,-4 2,-6 1,-1 3,-2 5,-2 2,0 4,1 5,2 2,2 3,3 3,6l0 69c0,4 1,8 4,11 2,1 3,2 5,3 2,1 4,1 6,1l31 0 0 -84c0,-2 0,-4 2,-6 1,-1 3,-2 5,-2 2,0 4,1 5,2 2,2 3,3 3,6l0 114c0,8 -3,16 -9,22 -6,6 -13,9 -22,9l-30 0c-2,0 -4,-1 -6,-3 -1,-1 -2,-3 -2,-5 0,-2 1,-4 2,-5 1,-2 3,-2 6,-2l30 0c5,0 8,-2 11,-5 3,-3 5,-6 5,-11l0 -15zm117 -7c-4,2 -9,4 -15,6l-8 1 -9 0 -11 0 -9 -1c-5,-1 -10,-4 -14,-8 -3,-5 -5,-10 -5,-15 0,-4 0,-7 2,-10 1,-3 3,-6 6,-8l49 -34c1,-1 2,-3 2,-5 0,-3 -2,-5 -8,-7 -5,-2 -11,-3 -17,-3 -5,0 -9,1 -13,1 -4,1 -7,3 -10,5 -1,1 -3,1 -4,1 -2,0 -4,0 -6,-2 -1,-1 -2,-3 -2,-5 0,-3 1,-5 3,-6 3,-3 8,-5 14,-6 3,-1 7,-2 10,-2 3,-1 7,-1 10,-1 2,0 4,0 6,0 1,0 3,1 6,1 2,0 5,1 8,2 6,1 10,4 14,8 3,4 5,9 5,14 0,6 -3,12 -9,17l-49 34c-1,1 -2,3 -2,5 0,2 0,4 2,6 1,1 3,2 5,3l8 1 9 0c6,0 10,0 14,-1 2,0 3,-1 5,-2 2,0 4,-1 6,-2l1 -1c1,0 2,0 3,0 2,0 4,0 5,2 2,2 2,4 2,6 0,2 -1,4 -4,6zm111 -1c0,6 -3,8 -8,8l-38 0c-8,0 -15,-3 -21,-9 -6,-6 -9,-13 -9,-21l0 -69c0,-2 0,-4 2,-6 1,-1 3,-2 5,-2 2,0 4,1 5,2 2,2 3,3 3,6l0 69c0,4 1,8 4,11 2,1 3,2 5,3 2,1 4,1 6,1l31 0 0 -84c0,-2 0,-4 2,-6 1,-1 3,-2 5,-2 2,0 4,1 5,2 2,2 3,3 3,6l0 91zm45 -53l46 0 0 -15c0,-4 -1,-8 -4,-11 -3,-3 -7,-4 -11,-4l-15 0c-5,0 -8,1 -11,4 -2,1 -3,3 -4,5 0,2 -1,4 -1,6l0 15zm0 15l0 16c0,4 2,8 5,11 1,1 3,2 5,3 2,1 4,1 6,1l38 0c2,0 4,1 5,2 2,2 2,4 2,5 0,2 0,4 -2,6 -1,1 -3,2 -5,2l-38 0c-9,0 -16,-3 -22,-9 -6,-6 -9,-13 -9,-21l0 -46c0,-8 3,-15 9,-22 6,-6 13,-9 22,-9l15 0c8,0 15,3 21,9 6,6 9,13 9,22l0 23c0,5 -2,7 -7,7l-54 0zm259 13c0,9 -3,16 -9,23 -7,7 -15,10 -24,10l-9 0c-9,0 -17,-3 -24,-10 -7,-6 -10,-14 -10,-23l0 -40c0,-9 3,-17 10,-24 6,-6 14,-10 24,-10l9 0c9,0 17,4 23,10 7,7 10,15 10,24l0 40zm-15 0l0 -40c0,-5 -2,-9 -5,-13 -4,-4 -8,-5 -13,-5l-9 0c-5,0 -10,1 -13,5 -4,3 -6,8 -6,13l0 40c0,5 2,9 6,12 3,4 7,6 13,6l9 0c5,0 9,-2 13,-5 3,-4 5,-8 5,-13zm107 3l0 -46c0,-4 -2,-8 -5,-11 -3,-3 -6,-4 -11,-4l-15 0c-4,0 -8,1 -11,4 -1,1 -2,3 -3,5 -1,2 -1,4 -1,6l0 46c0,4 1,8 4,11 2,1 3,2 5,3 2,1 4,1 6,1l15 0c5,0 8,-2 11,-4 3,-3 5,-7 5,-11zm-25 -77l-34 -32c-2,-2 -3,-4 -3,-7 0,-1 1,-3 2,-4 1,-2 3,-2 6,-2l61 0c2,0 4,1 6,2 1,2 2,3 2,5 0,2 -1,4 -2,5 -1,2 -3,3 -6,3l-42 0 41 38 1 3c5,6 8,12 8,20l0 46c0,8 -3,15 -9,21 -6,6 -13,9 -22,9l-15 0c-8,0 -15,-3 -21,-9 -6,-6 -9,-13 -9,-21l0 -46c0,-9 3,-16 9,-22 5,-6 13,-9 21,-9l6 0zm131 92l31 0 0 -84c0,-2 0,-4 2,-6 1,-1 3,-2 5,-2 2,0 4,1 6,2 1,2 2,3 2,6l0 84 7 0c5,0 8,2 8,7l0 16c0,2 -1,3 -2,5 -2,1 -4,2 -6,2 -1,0 -3,0 -5,-2 -1,-1 -2,-3 -2,-5l0 -8 -12 0 -64 0c-9,0 -16,-3 -22,-9 -6,-6 -9,-13 -9,-21l0 -69c0,-2 1,-4 2,-6 2,-1 4,-2 6,-2 2,0 3,1 5,2 2,2 2,3 2,6l0 69c0,4 2,8 5,11 1,1 3,2 5,3 2,1 4,1 6,1l15 0 0 -84c0,-2 1,-4 2,-6 2,-1 3,-2 5,-2 2,0 4,1 6,2 1,2 2,3 2,6l0 84z"/>
   <path class="fil32 str0" d="M4182 1979l46 0 0 -15c0,-4 -1,-8 -4,-11 -3,-3 -7,-4 -11,-4l-15 0c-5,0 -8,1 -11,4 -2,1 -3,3 -4,5 0,2 -1,4 -1,6l0 15zm0 15l0 16c0,4 2,8 5,11 1,1 3,2 5,3 2,1 4,1 6,1l38 0c2,0 4,1 5,2 2,2 2,4 2,5 0,2 0,4 -2,6 -1,1 -3,2 -5,2l-38 0c-9,0 -16,-3 -22,-9 -6,-6 -9,-13 -9,-21l0 -46c0,-8 3,-15 9,-22 6,-6 13,-9 22,-9l15 0c8,0 15,3 21,9 6,6 9,13 9,22l0 23c0,5 -2,7 -7,7l-54 0zm145 46l-23 0c-8,0 -15,-3 -21,-9 -6,-6 -9,-13 -9,-21l0 -46c0,-9 3,-16 9,-22 6,-6 13,-9 21,-9l23 0c2,0 4,1 5,3 2,1 3,3 3,5 0,2 -1,3 -2,5 -2,2 -3,3 -6,3l-23 0c-4,0 -8,1 -11,4 -1,1 -2,3 -3,5 -1,2 -1,4 -1,6l0 46c0,4 1,8 4,11 2,1 3,2 5,3 2,1 4,1 6,1l23 0c2,0 4,1 5,2 2,2 3,4 3,5 0,2 -1,4 -2,6 -2,1 -3,2 -6,2zm84 -91l-31 0 0 83c0,3 -1,5 -2,6 -1,1 -3,2 -5,2 -2,0 -4,-1 -6,-2 -1,-1 -2,-3 -2,-6l0 -91c0,-5 3,-8 8,-8l68 0c8,0 15,3 21,9 6,6 9,13 9,22l0 68c0,3 0,5 -2,6 -1,1 -3,2 -5,2 -2,0 -4,-1 -5,-2 -2,-1 -3,-3 -3,-6l0 -68c0,-5 -1,-8 -4,-11 -3,-3 -7,-4 -11,-4l-15 0 0 83c0,3 -1,5 -2,6 -2,1 -4,2 -6,2 -2,0 -4,-1 -5,-2 -2,-1 -2,-3 -2,-6l0 -83zm152 61l0 -46c0,-4 -1,-8 -4,-11 -3,-3 -7,-4 -11,-4l-16 0c-4,0 -8,1 -11,4 -1,1 -2,3 -3,5 -1,2 -1,4 -1,6l0 46c0,4 2,8 4,11 2,1 4,2 5,3 3,1 5,1 6,1l16 0c4,0 8,-2 10,-4 3,-3 5,-7 5,-11zm-46 -71l6 -4 9 -7c3,-2 5,-4 7,-5 2,-3 3,-5 3,-8 0,-3 -2,-6 -4,-9 -3,-2 -5,-3 -9,-3 -3,0 -6,1 -8,3 -3,2 -4,5 -4,9l0 24zm31 -5c9,0 17,3 22,9 6,5 8,12 8,21l0 46c0,8 -3,15 -9,21 -6,6 -13,9 -21,9l-16 0c-8,0 -15,-3 -21,-9 -6,-6 -9,-13 -9,-21l0 -95c0,-8 3,-15 8,-20 6,-5 12,-7 19,-7 7,0 14,2 19,7 6,5 9,11 9,20 0,5 -1,9 -2,11 -2,3 -4,5 -7,8zm76 45l45 0 0 -15c0,-4 -1,-8 -4,-11 -3,-3 -6,-4 -11,-4l-15 0c-4,0 -8,1 -11,4 -1,1 -3,3 -3,5 -1,2 -1,4 -1,6l0 15zm0 15l0 16c0,4 1,8 4,11 2,1 3,2 5,3 2,1 4,1 6,1l38 0c2,0 4,1 5,2 2,2 3,4 3,5 0,2 -1,4 -2,6 -2,1 -3,2 -6,2l-38 0c-8,0 -15,-3 -21,-9 -7,-6 -10,-13 -10,-21l0 -46c0,-8 3,-15 9,-22 6,-6 13,-9 22,-9l15 0c8,0 16,3 22,9 6,6 9,13 9,22l0 23c0,5 -3,7 -8,7l-53 0zm152 -15l0 -38c0,-2 1,-4 2,-6 2,-1 4,-2 6,-2 2,0 3,1 5,2 1,2 2,3 2,6l0 91c0,3 -1,5 -2,6 -1,1 -3,2 -5,2 -2,0 -4,-1 -6,-2 -1,-1 -2,-3 -2,-6l0 -38 -46 0 0 38c0,3 -1,5 -2,6 -1,1 -3,2 -5,2 -2,0 -4,-1 -6,-2 -1,-1 -2,-3 -2,-6l0 -91c0,-2 1,-4 2,-6 2,-1 4,-2 6,-2 2,0 3,1 5,2 1,2 2,3 2,6l0 38 46 0zm107 0l0 -38c0,-2 0,-4 2,-6 1,-1 3,-2 5,-2 2,0 4,1 5,2 2,2 3,3 3,6l0 91c0,3 -1,5 -2,6 -2,1 -4,2 -6,2 -2,0 -4,-1 -5,-2 -2,-1 -2,-3 -2,-6l0 -38 -46 0 0 38c0,3 -1,5 -2,6 -2,1 -4,2 -6,2 -2,0 -4,-1 -5,-2 -2,-1 -2,-3 -2,-6l0 -91c0,-2 0,-4 2,-6 1,-1 3,-2 5,-2 2,0 4,1 5,2 2,2 3,3 3,6l0 38 46 0zm136 53c0,3 0,5 -2,6 -1,1 -3,2 -5,2 -2,0 -4,-1 -6,-2 -1,-1 -2,-3 -2,-6l0 -91c0,-2 1,-4 2,-6 2,-1 4,-2 6,-2 2,0 4,1 5,2 2,2 2,3 2,6l0 91zm-76 -38l0 31 15 0c5,0 9,-2 12,-5 2,-3 4,-6 4,-10 0,-5 -1,-8 -4,-11 -1,-1 -3,-3 -5,-4 -2,0 -4,-1 -7,-1l-15 0zm0 -15l15 0c10,0 18,3 23,9 5,6 8,13 8,22 0,8 -3,15 -8,20 -5,7 -13,10 -23,10l-22 0c-5,0 -8,-2 -8,-8l0 -91c0,-2 1,-4 2,-6 2,-1 4,-2 6,-2 2,0 3,1 5,2 1,2 2,3 2,6l0 38zm122 0l46 0 0 -15c0,-4 -2,-8 -4,-11 -3,-3 -7,-4 -11,-4l-16 0c-4,0 -8,1 -11,4 -1,1 -2,3 -3,5 -1,2 -1,4 -1,6l0 15zm0 15l0 16c0,4 1,8 4,11 2,1 4,2 5,3 2,1 4,1 6,1l38 0c2,0 4,1 6,2 1,2 2,4 2,5 0,2 -1,4 -2,6 -1,1 -3,2 -6,2l-38 0c-8,0 -15,-3 -21,-9 -6,-6 -9,-13 -9,-21l0 -46c0,-8 3,-15 9,-22 6,-6 13,-9 21,-9l16 0c8,0 15,3 21,9 6,6 9,13 9,22l0 23c0,5 -3,7 -8,7l-53 0zm-1556 256c0,9 -3,17 -10,24 -6,6 -14,10 -24,10l-9 0c-9,0 -17,-4 -23,-10 -7,-7 -10,-14 -10,-24l0 -40c0,-8 3,-16 10,-23 6,-7 14,-10 23,-10l9 0c9,0 17,3 24,10 7,6 10,14 10,23l0 40zm-15 0l0 -40c0,-5 -2,-9 -5,-12 -4,-4 -8,-6 -14,-6l-9 0c-5,0 -9,2 -13,5 -3,4 -5,8 -5,13l0 40c0,5 2,9 5,13 4,4 8,5 13,5l9 0c5,0 10,-1 13,-5 4,-3 6,-8 6,-13zm106 3l0 -46c0,-4 -1,-8 -4,-10 -3,-3 -6,-5 -11,-5l-15 0c-5,0 -8,2 -11,5 -2,1 -3,3 -3,4 -1,2 -2,4 -2,6l0 46c0,5 2,8 5,11 1,1 3,3 5,3 2,1 4,1 6,1l15 0c4,0 8,-1 11,-4 3,-3 4,-6 4,-11zm-24 -76l-34 -33c-2,-2 -3,-4 -3,-6 0,-1 1,-3 2,-4 1,-2 3,-3 6,-3l61 0c2,0 4,1 5,3 2,1 2,3 2,5 0,2 0,3 -1,5 -2,2 -4,2 -6,2l-42 0 40 39 2 3c5,5 7,12 7,19l0 46c0,9 -2,16 -8,22 -6,6 -14,9 -22,9l-15 0c-8,0 -16,-3 -22,-9 -6,-6 -9,-13 -9,-22l0 -46c0,-8 3,-15 9,-21 6,-6 13,-9 22,-9l6 0zm93 61l0 30 30 0c5,0 9,-1 11,-4 3,-3 4,-7 4,-11 0,-4 -1,-8 -3,-11 -1,-1 -3,-2 -5,-3 -2,-1 -4,-1 -7,-1l-30 0zm0 -15l30 0c10,0 17,3 23,9 5,6 8,13 8,21 0,8 -3,15 -8,21 -6,6 -13,10 -23,10l-38 0c-5,0 -8,-3 -8,-8l0 -84 -7 0c-2,0 -4,-1 -6,-2 -1,-2 -2,-3 -2,-5 0,-2 1,-4 2,-6 2,-1 3,-2 6,-2l15 0c5,0 8,3 8,8l0 38zm106 0l46 0 0 -16c0,-4 -1,-7 -4,-10 -3,-3 -7,-5 -11,-5l-16 0c-4,0 -8,2 -10,5 -2,1 -3,3 -4,5 0,1 -1,3 -1,5l0 16zm0 15l0 15c0,5 2,8 4,11 2,1 4,3 5,3 3,1 5,1 6,1l39 0c2,0 3,1 5,3 1,1 2,3 2,5 0,2 0,3 -2,5 -1,2 -3,3 -5,3l-39 0c-8,0 -15,-3 -21,-9 -6,-6 -9,-13 -9,-22l0 -46c0,-8 3,-15 9,-21 6,-6 13,-9 21,-9l16 0c8,0 15,3 21,9 6,6 9,13 9,21l0 23c0,5 -2,8 -7,8l-54 0zm153 -46l-31 0c-4,0 -8,2 -11,5 -1,1 -2,3 -3,4 -1,2 -1,4 -1,6l0 46c0,5 1,8 4,11 2,1 3,3 5,3 2,1 4,1 6,1l15 0c4,0 8,-1 11,-4 3,-3 5,-6 5,-11l0 -61zm0 -15l0 -15c0,-5 -2,-8 -5,-11 -3,-3 -6,-5 -11,-5l-30 0c-3,0 -4,0 -6,-2 -1,-1 -2,-3 -2,-5 0,-2 1,-3 2,-5 1,-2 3,-3 6,-3l30 0c9,0 16,3 22,9 6,6 9,13 9,22l0 91c0,9 -3,16 -9,22 -6,6 -13,9 -22,9l-15 0c-8,0 -15,-3 -21,-9 -6,-6 -9,-13 -9,-22l0 -46c0,-8 3,-15 8,-21 6,-6 14,-9 22,-9l31 0zm121 99c0,5 -2,8 -7,8l-38 0c-9,0 -16,-3 -22,-9 -6,-6 -9,-13 -9,-22l0 -68c0,-2 1,-4 2,-6 2,-1 4,-2 6,-2 2,0 3,1 5,2 1,1 2,3 2,6l0 68c0,5 2,8 5,11 1,1 3,3 4,3 3,1 5,1 7,1l30 0 0 -83c0,-2 1,-4 2,-6 2,-1 4,-2 6,-2 2,0 3,1 5,2 1,1 2,3 2,6l0 91zm92 -53l0 -38c0,-2 0,-4 2,-6 1,-1 3,-2 5,-2 2,0 4,1 5,2 2,1 3,3 3,6l0 91c0,2 -1,4 -2,6 -2,1 -4,2 -6,2 -2,0 -4,-1 -5,-2 -2,-2 -2,-3 -2,-6l0 -38 -46 0 0 38c0,2 -1,4 -2,6 -2,1 -4,2 -6,2 -2,0 -4,-1 -5,-2 -2,-2 -2,-3 -2,-6l0 -91c0,-2 0,-4 2,-6 1,-1 3,-2 5,-2 2,0 4,1 5,2 2,1 3,3 3,6l0 38 46 0zm60 0l46 0 0 -16c0,-4 -1,-7 -4,-10 -3,-3 -7,-5 -11,-5l-15 0c-5,0 -8,2 -11,5 -2,1 -3,3 -4,5 0,1 -1,3 -1,5l0 16zm0 15l0 15c0,5 2,8 5,11 1,1 3,3 5,3 2,1 4,1 6,1l38 0c2,0 4,1 5,3 2,1 2,3 2,5 0,2 0,3 -2,5 -1,2 -3,3 -5,3l-38 0c-9,0 -16,-3 -22,-9 -6,-6 -9,-13 -9,-22l0 -46c0,-8 3,-15 9,-21 6,-6 13,-9 22,-9l15 0c8,0 15,3 21,9 6,6 9,13 9,21l0 23c0,5 -2,8 -7,8l-54 0zm153 -15l0 -38c0,-2 0,-4 2,-6 1,-1 3,-2 5,-2 2,0 4,1 5,2 2,1 3,3 3,6l0 91c0,2 -1,4 -2,6 -2,1 -4,2 -6,2 -2,0 -4,-1 -5,-2 -2,-2 -2,-3 -2,-6l0 -38 -46 0 0 38c0,2 -1,4 -2,6 -2,1 -4,2 -6,2 -2,0 -4,-1 -5,-2 -2,-2 -2,-3 -2,-6l0 -91c0,-2 0,-4 2,-6 1,-1 3,-2 5,-2 2,0 4,1 5,2 2,1 3,3 3,6l0 38 46 0zm121 53c0,5 -2,8 -7,8l-38 0c-9,0 -16,-3 -22,-9 -6,-6 -9,-13 -9,-22l0 -68c0,-2 1,-4 2,-6 2,-1 4,-2 6,-2 2,0 3,1 5,2 2,1 2,3 2,6l0 68c0,5 2,8 5,11 1,1 3,3 5,3 2,1 4,1 6,1l30 0 0 -83c0,-2 1,-4 2,-6 2,-1 4,-2 6,-2 2,0 3,1 5,2 2,1 2,3 2,6l0 91zm92 -53l0 -31 -31 0c-4,0 -8,2 -11,5 -3,3 -4,6 -4,10 0,4 1,8 4,11 3,3 6,5 11,5l31 0zm-19 15l-28 42c-1,1 -2,2 -3,3l-4 1c-1,0 -3,-1 -5,-3 -1,-1 -2,-3 -2,-5 0,-1 0,-3 1,-4l23 -34c-8,-2 -14,-5 -18,-11 -4,-6 -6,-12 -6,-20 0,-8 2,-15 7,-20 6,-7 14,-10 23,-10l38 0c5,0 8,3 8,8l0 91c0,2 -1,4 -2,6 -2,1 -3,2 -6,2 -2,0 -3,-1 -5,-2 -2,-2 -2,-3 -2,-6l0 -38 -19 0z"/>
  </g>
  <g id="_137020892240">
   <path class="fil24" d="M7633 1360l0 0 -1 -1 1 1zm-30 0l0 0 0 -1 0 1z"/>
   <path class="fil11" d="M7185 974c-160,71 -208,108 -227,125 -30,26 -46,123 -63,205l363 0 364 0c-18,-82 -34,-179 -63,-205 -19,-17 -66,-53 -226,-124l-148 -1z"/>
   <path class="fil12" d="M7185 974c-160,71 -208,108 -227,125 -30,26 -46,123 -63,205l363 0 364 0c-18,-82 -34,-179 -63,-205 -19,-17 -66,-53 -226,-124l-148 -1z"/>
   <path class="fil33" d="M7180 834l0 119 0 59c43,51 113,52 156,0l0 -59 0 -119c0,-96 -156,-96 -156,0z"/>
   <path class="fil33" d="M7095 722c14,-5 32,11 40,35 7,23 3,46 -11,51 -14,4 -31,-11 -39,-35 -8,-24 -3,-47 10,-51z"/>
   <path class="fil33" d="M7420 722c-14,-5 -31,11 -39,35 -8,23 -3,46 11,51 13,4 31,-11 39,-35 8,-24 3,-47 -11,-51z"/>
   <path class="fil5" d="M7180 953l-7 27 19 138 67 -67 -79 -98z"/>
   <path class="fil34" d="M7260 975c-1,0 -1,0 -2,0 -38,-2 -78,-49 -78,-49l0 -6 156 0 0 9c0,0 -39,46 -76,46z"/>
   <path class="fil33" d="M7258 514c-240,0 -148,329 -132,354 17,28 93,89 132,89 39,0 115,-61 133,-89 15,-25 107,-354 -133,-354z"/>
   <path class="fil4" d="M7429 739c12,-61 4,-203 -44,-198 -44,-45 -198,-54 -240,-5 -97,18 -52,204 -52,204 3,18 7,35 11,49 7,-1 13,-1 20,-2 -7,-12 -13,-25 -15,-35 -1,-6 -4,-26 -4,-30 1,-33 25,-131 67,-138 16,-3 57,33 83,33 28,0 63,-37 82,-35 43,6 79,95 79,138 0,6 -7,39 -17,63 7,-1 13,-1 20,-2 4,-12 7,-26 10,-42l0 0z"/>
   <path class="fil5" d="M7336 953l5 26 -17 140 -65 -68 77 -98z"/>
   <path class="fil25" d="M7259 1051l0 0c0,0 0,0 0,0l0 0z"/>
   <path class="fil35" d="M7259 1051l0 0 -79 -98 0 -2 79 97 77 -97 0 2 -77 98z"/>
   <path class="fil36" d="M7273 1117l-30 0 0 -1 30 0 0 1z"/>
   <path class="fil4" d="M7264 829c-3,0 -6,5 -6,5 0,0 -2,-5 -6,-5 -13,0 -70,6 -86,27 0,0 80,-2 84,-3 4,-1 8,-10 8,-10 0,0 4,9 9,10 4,1 84,3 84,3 -17,-21 -73,-27 -87,-27z"/>
   <path class="fil30" d="M6935 1387l0 0c0,0 0,0 0,0l0 0z"/>
   <path class="fil21" d="M7927 1092l-30 0 0 -1 30 0 0 1z"/>
   <path class="fil11" d="M7484 1271c-161,70 -209,108 -228,125 -29,26 -46,122 -63,205l363 0 364 0c-17,-83 -34,-179 -63,-205 -19,-17 -65,-54 -226,-124l-147 -1z"/>
   <path class="fil37" d="M7484 1271c-161,70 -209,108 -228,125 -29,26 -46,122 -63,205l363 0 364 0c-17,-83 -34,-179 -63,-205 -19,-17 -65,-54 -226,-124l-147 -1z"/>
   <path class="fil38" d="M7478 1130l0 120 0 58c43,51 114,53 156,0l0 -58 0 -120c0,-96 -156,-96 -156,0z"/>
   <path class="fil38" d="M7394 1018c14,-4 31,12 39,35 8,24 3,47 -11,51 -14,5 -31,-11 -39,-34 -8,-24 -3,-47 11,-52z"/>
   <path class="fil38" d="M7718 1018c-13,-4 -31,12 -39,35 -7,24 -3,47 11,51 14,5 31,-11 39,-34 8,-24 3,-47 -11,-52z"/>
   <path class="fil12" d="M7557 1347c0,0 -109,26 -109,33 0,6 41,221 41,221l148 0 17 -220 -97 -34z"/>
   <path class="fil39" d="M7478 1273l0 35 34 293 -58 0 -64 -131 61 -40 -75 -35 69 -107 33 -15z"/>
   <path class="fil39" d="M7634 1273l0 35 -34 293 59 0 64 -131 -62 -40 75 -35 -61 -104 -41 -18z"/>
   <path class="fil1" d="M7523 1383l19 30c10,0 19,0 29,0l19 -30 -33 -36 -34 36z"/>
   <path class="fil1" d="M7542 1413l-27 188 83 0 -27 -188 -29 0z"/>
   <path class="fil12" d="M7478 1250l-6 26 19 138 66 -67 -79 -97z"/>
   <path class="fil40" d="M7558 1271c0,0 -1,0 -2,0 -38,-1 -78,-49 -78,-49l0 -5 156 0 0 8c0,0 -38,46 -76,46z"/>
   <path class="fil38" d="M7557 811c-240,0 -148,328 -133,354 18,27 94,89 133,89 38,0 115,-62 132,-89 16,-26 108,-354 -132,-354z"/>
   <path class="fil12" d="M7634 1250l6 26 -18 140 -65 -69 77 -97z"/>
   <path class="fil41" d="M7557 1347l0 0 -79 -97 0 -3 79 97 77 -97 0 3 -77 97z"/>
   <path class="fil9" d="M7571 1414l0 0 0 -1 0 1zm-29 0l0 0 0 -1 0 1z"/>
   <path class="fil10" d="M7571 1414l-29 0 0 -1 29 0 0 1z"/>
   <path class="fil42" d="M7713 1054c-2,4 -3,8 -3,8 0,0 -21,74 -40,96 -35,44 -82,71 -113,72 -32,0 -77,-25 -113,-68 -15,-17 -41,-93 -41,-100 -1,-3 -1,-7 -2,-11 -5,0 -5,32 -5,32 7,38 12,63 27,84 24,33 91,86 132,86 41,0 108,-53 132,-86 15,-21 19,-49 27,-88 0,0 2,-25 -1,-25z"/>
   <path class="fil42" d="M7630 1152c-5,-12 -50,-27 -58,-30 -8,-3 -14,7 -14,7 0,0 -6,-10 -14,-7 -8,3 -52,18 -58,30 -6,12 -8,20 -8,28 0,8 0,36 0,36 0,0 8,1 12,-3 5,-3 10,-13 10,-25 0,-12 9,-22 20,-24 11,-3 38,-7 38,-14 0,7 29,12 38,14 11,2 20,12 20,24 0,12 5,22 10,25 4,4 12,3 12,3 0,0 0,-28 0,-36 0,-8 -2,-16 -8,-28z"/>
   <path class="fil1" d="M7485 999c-24,-1 -57,2 -63,4 -8,3 -8,3 -9,10 0,6 1,11 5,13 6,2 6,11 9,35 3,22 12,40 51,43 2,0 4,0 6,0l0 -6c-18,0 -38,-7 -45,-21 -9,-19 -10,-58 3,-66 5,-4 24,-6 43,-5l0 -7zm75 13c-9,0 -44,-10 -69,-13 -2,0 -4,0 -6,0l0 7c21,0 42,5 49,16 12,18 -9,61 -29,71 -6,3 -13,5 -21,5l0 6c33,0 46,-24 50,-32 8,-16 6,-37 25,-37 20,0 17,21 24,36 4,8 15,34 50,33l0 -7c-9,1 -17,-1 -23,-4 -19,-10 -37,-53 -24,-71 7,-11 28,-16 49,-17l0 -6c-2,0 -3,0 -5,0 -22,2 -50,12 -70,13zm73 92c1,0 3,-1 4,-1 39,-3 49,-20 53,-43 5,-24 5,-32 11,-35 5,-1 6,-7 6,-13 0,-6 0,-7 -8,-10 -6,-2 -39,-5 -64,-3l0 6c19,-1 38,2 44,5 12,8 9,47 -2,67 -7,13 -27,20 -44,20l0 7z"/>
   <path class="fil42" d="M7570 860c1,0 3,-1 4,-1 -2,1 -4,1 -6,2 1,0 1,-1 2,-1zm-126 -62c85,-73 251,20 290,73 -16,53 -9,121 -20,197l0 0c0,1 0,2 0,2 -1,1 -2,3 -2,3 -1,1 -4,0 -5,0 0,0 0,-1 0,-1 -1,-7 0,-20 0,-20 1,-11 -1,-21 1,-32 -8,-48 -2,-50 -29,-97 -2,-4 -16,-21 -18,-22 -45,-16 -60,11 -103,27 -16,7 -40,7 -58,7 -28,0 -55,-30 -55,-36 -33,51 -37,87 -47,130 2,7 3,15 4,23 0,0 0,13 0,20 0,0 0,1 -1,1 -1,0 -4,1 -4,0 -1,0 -2,-2 -2,-3 -1,-3 -1,-5 -1,-8 -1,-4 -1,-8 -2,-12 -13,-47 -36,-232 52,-252z"/>
  </g>
  <g id="_137020887728">
   <path class="fil32 str0" d="M6399 1888c0,2 -1,4 -3,6 -1,1 -3,1 -5,1 -2,0 -4,0 -5,-1 -2,-2 -2,-4 -2,-6l0 -130 -61 0 0 130c0,2 -1,4 -3,6 -1,1 -3,1 -5,1 -2,0 -4,0 -5,-1 -2,-2 -3,-4 -3,-6l0 -137c0,-5 3,-8 8,-8l76 0c5,0 8,3 8,8l0 137zm45 -8l31 0c4,0 8,-1 11,-4 3,-3 4,-6 4,-11l0 -46c0,-4 -1,-8 -4,-11 -3,-3 -7,-4 -11,-4l-31 0 0 76zm0 15l0 38c0,3 -1,4 -2,6 -2,1 -3,2 -5,2 -2,0 -4,-1 -5,-2 -2,-1 -3,-3 -3,-6l0 -137c0,-5 3,-7 8,-7l38 0c8,0 15,3 21,9 6,6 9,13 9,21l0 46c0,8 -3,15 -9,21 -6,6 -13,9 -21,9l-31 0zm107 -60l46 0 0 -16c0,-4 -2,-8 -5,-11 -3,-3 -6,-4 -11,-4l-15 0c-4,0 -8,1 -11,4 -1,2 -2,3 -3,5 -1,2 -1,4 -1,6l0 16zm0 15l0 15c0,4 1,8 4,11 2,1 3,2 5,3 2,1 4,1 6,1l38 0c2,0 4,1 6,3 1,1 2,3 2,5 0,2 -1,3 -2,5 -1,2 -3,2 -6,2l-38 0c-8,0 -15,-3 -21,-8 -6,-6 -9,-14 -9,-22l0 -46c0,-8 3,-15 8,-21 6,-6 14,-9 22,-9l15 0c9,0 16,3 22,9 6,6 9,13 9,21l0 23c0,5 -3,8 -8,8l-53 0zm152 -46l-30 0c-5,0 -8,1 -11,4 -2,2 -3,3 -4,5 0,2 -1,4 -1,6l0 46c0,4 2,8 5,11 1,1 3,2 5,3 2,1 4,1 6,1l15 0c4,0 8,-1 11,-4 3,-3 4,-6 4,-11l0 -61zm0 -15l0 -15c0,-5 -1,-8 -4,-11 -3,-3 -7,-5 -11,-5l-31 0c-2,0 -4,0 -5,-2 -2,-1 -2,-3 -2,-5 0,-2 0,-4 2,-5 1,-2 3,-3 5,-3l31 0c8,0 16,3 21,9 6,6 9,13 9,22l0 91c0,8 -3,15 -9,21 -6,6 -13,9 -21,9l-15 0c-9,0 -16,-3 -22,-8 -6,-6 -9,-13 -9,-22l0 -46c0,-8 3,-15 9,-21 6,-6 13,-9 22,-9l30 0zm99 106l-23 0c-8,0 -15,-3 -21,-8 -6,-6 -9,-13 -9,-22l0 -46c0,-8 3,-15 9,-21 6,-6 13,-9 21,-9l23 0c2,0 4,1 5,2 2,2 3,3 3,5 0,2 -1,4 -2,5 -2,2 -3,3 -6,3l-23 0c-4,0 -8,1 -11,4 -1,2 -2,3 -3,5 -1,2 -1,4 -1,6l0 46c0,4 1,8 4,11 2,1 3,2 5,3 2,1 4,1 6,1l23 0c2,0 4,1 5,3 2,1 3,3 3,5 0,2 -1,3 -2,5 -2,2 -3,2 -6,2zm84 -91l-31 0 0 84c0,2 -1,4 -2,6 -1,1 -3,1 -5,1 -2,0 -4,0 -6,-1 -1,-2 -2,-4 -2,-6l0 -92c0,-5 3,-7 8,-7l68 0c8,0 15,3 21,9 6,6 9,13 9,21l0 69c0,2 0,4 -2,6 -1,1 -3,1 -5,1 -2,0 -4,0 -5,-1 -2,-2 -3,-4 -3,-6l0 -69c0,-4 -1,-8 -4,-11 -3,-3 -7,-4 -11,-4l-15 0 0 84c0,2 -1,4 -2,6 -2,1 -4,1 -6,1 -2,0 -4,0 -5,-1 -2,-2 -2,-4 -2,-6l0 -84zm152 61l0 -61 -31 0c-4,0 -8,1 -10,4 -2,2 -3,3 -4,5 0,2 -1,4 -1,6l0 46c0,4 2,8 5,11 1,1 3,2 4,3 3,1 5,1 6,1l16 0c4,0 8,-1 11,-4 3,-3 4,-6 4,-11zm7 20c-2,3 -5,6 -10,8 -4,1 -8,2 -12,2l-16 0c-8,0 -15,-3 -21,-8 -6,-6 -9,-13 -9,-22l0 -46c0,-8 3,-15 9,-21 6,-6 13,-9 21,-9l39 0c5,0 7,2 7,7l0 69c0,3 1,6 3,9 2,3 4,5 8,7 3,1 4,3 4,7 0,2 0,4 -2,5 -1,2 -3,2 -5,2 -1,0 -2,0 -3,0 -5,-2 -9,-5 -13,-10zm100 -20l0 -46c0,-4 -2,-8 -5,-10 -3,-3 -6,-5 -11,-5l-15 0c-4,0 -8,2 -11,4 -1,2 -3,4 -3,5 -1,2 -1,4 -1,6l0 46c0,4 1,8 4,11 2,1 3,2 5,3 2,1 4,1 6,1l15 0c4,0 8,-1 11,-4 3,-3 5,-6 5,-11zm-46 -71l6 -4 9 -6c3,-2 5,-4 6,-6 2,-2 3,-5 3,-7 0,-4 -1,-7 -4,-9 -2,-2 -5,-3 -8,-3 -3,0 -6,1 -9,3 -2,2 -3,5 -3,9l0 23zm30 -5c10,0 18,3 23,9 5,5 8,13 8,21l0 46c0,8 -3,15 -9,21 -6,6 -13,9 -22,9l-15 0c-8,0 -15,-3 -21,-8 -6,-6 -9,-13 -9,-22l0 -94c0,-9 2,-16 8,-21 5,-5 12,-7 19,-7 7,0 13,2 19,7 6,5 8,12 8,21 0,4 0,8 -2,11 -1,2 -3,5 -7,7zm137 99c0,5 -2,7 -7,7l-38 0c-9,0 -16,-3 -22,-8 -6,-6 -9,-13 -9,-22l0 -69c0,-2 1,-4 2,-5 2,-2 4,-2 6,-2 2,0 3,0 5,2 1,1 2,3 2,5l0 69c0,4 2,8 5,11 1,1 3,2 4,3 3,1 5,1 6,1l31 0 0 -84c0,-2 1,-4 2,-5 2,-2 4,-2 6,-2 2,0 3,0 5,2 1,1 2,3 2,5l0 92zm76 -84l-30 0 0 84c0,2 -1,4 -2,6 -2,1 -4,1 -6,1 -2,0 -4,0 -5,-1 -2,-2 -2,-4 -2,-6l0 -92c0,-5 2,-7 7,-7l69 0c8,0 15,3 21,9 6,6 9,13 9,21l0 69c0,2 -1,4 -2,6 -2,1 -3,1 -6,1 -2,0 -3,0 -5,-1 -1,-2 -2,-4 -2,-6l0 -69c0,-4 -2,-8 -4,-11 -3,-3 -7,-4 -11,-4l-16 0 0 84c0,2 0,4 -2,6 -1,1 -3,1 -5,1 -2,0 -4,0 -6,-1 -1,-2 -2,-4 -2,-6l0 -84zm107 31l46 0 0 -16c0,-4 -2,-8 -5,-11 -3,-3 -6,-4 -11,-4l-15 0c-4,0 -8,1 -11,4 -1,2 -2,3 -3,5 -1,2 -1,4 -1,6l0 16zm0 15l0 15c0,4 1,8 4,11 2,1 3,2 5,3 2,1 4,1 6,1l38 0c2,0 4,1 5,3 2,1 3,3 3,5 0,2 -1,3 -2,5 -1,2 -3,2 -6,2l-38 0c-8,0 -15,-3 -21,-8 -6,-6 -9,-14 -9,-22l0 -46c0,-8 2,-15 8,-21 6,-6 13,-9 22,-9l15 0c8,0 16,3 22,9 6,6 9,13 9,21l0 23c0,5 -3,8 -8,8l-53 0zm167 38c0,2 0,4 -2,6 -1,1 -3,1 -5,1 -2,0 -4,0 -6,-1 -1,-2 -2,-4 -2,-6l0 -84 -17 0 -29 86c-1,2 -1,3 -3,4 0,0 -1,1 -4,1 -2,0 -4,0 -5,-2 -2,-1 -3,-3 -3,-5l1 -3 30 -91c1,-3 3,-5 7,-5l31 0c5,0 7,2 7,7l0 92zm46 -38l0 30 30 0c5,0 9,-1 11,-4 3,-3 5,-7 5,-11 0,-4 -2,-8 -4,-11 -1,-1 -3,-2 -5,-3 -2,-1 -4,-1 -7,-1l-30 0zm0 -16l30 0c10,0 17,4 23,10 5,6 8,13 8,21 0,8 -3,15 -8,21 -5,6 -13,9 -23,9l-38 0c-5,0 -7,-2 -7,-7l0 -92c0,-2 0,-4 2,-5 1,-2 3,-2 5,-2 2,0 4,0 5,2 2,1 3,3 3,5l0 38zm152 0l0 -38c0,-2 1,-4 2,-5 2,-2 4,-2 6,-2 2,0 3,0 5,2 2,1 2,3 2,5l0 92c0,2 0,4 -2,6 -1,1 -3,1 -5,1 -2,0 -4,0 -6,-2 -1,-1 -2,-3 -2,-5l0 -38 -46 0 0 38c0,2 0,4 -2,6 -1,1 -3,1 -5,1 -2,0 -4,0 -6,-1 -1,-2 -2,-4 -2,-6l0 -92c0,-2 1,-4 2,-5 2,-2 4,-2 6,-2 2,0 3,0 5,2 2,1 2,3 2,5l0 38 46 0zm137 54c0,2 -1,4 -2,6 -2,1 -3,1 -6,1 -2,0 -3,0 -5,-1 -1,-2 -2,-4 -2,-6l0 -92c0,-2 1,-4 2,-5 2,-2 3,-2 5,-2 2,0 4,0 6,2 1,1 2,3 2,5l0 92zm-76 -38l0 30 15 0c5,0 8,-1 11,-4 3,-3 4,-7 4,-11 0,-4 -1,-8 -3,-11 -2,-1 -3,-2 -5,-3 -2,-1 -4,-1 -7,-1l-15 0zm0 -16l15 0c10,0 17,4 23,10 5,6 7,13 7,21 0,8 -2,15 -7,21 -6,6 -13,9 -23,9l-23 0c-5,0 -7,-2 -7,-7l0 -92c0,-2 0,-4 2,-5 1,-2 3,-2 5,-2 2,0 4,0 5,2 2,1 3,3 3,5l0 38zm122 1l45 0 0 -16c0,-4 -1,-8 -4,-11 -3,-3 -6,-4 -11,-4l-15 0c-4,0 -8,1 -11,4 -2,2 -3,3 -3,5 -1,2 -1,4 -1,6l0 16zm0 15l0 15c0,4 1,8 4,11 1,1 3,2 5,3 2,1 4,1 6,1l38 0c2,0 4,1 5,3 2,1 3,3 3,5 0,2 -1,3 -2,5 -2,2 -4,2 -6,2l-38 0c-8,0 -16,-3 -22,-8 -6,-6 -9,-14 -9,-22l0 -46c0,-8 3,-15 9,-21 6,-6 13,-9 22,-9l15 0c8,0 16,3 22,9 6,6 9,13 9,21l0 23c0,5 -3,8 -8,8l-53 0zm258 12c0,9 -3,17 -9,23 -7,7 -15,10 -24,10l-9 0c-9,0 -17,-3 -24,-9 -6,-7 -10,-15 -10,-24l0 -40c0,-9 4,-16 10,-23 7,-7 15,-10 24,-10l9 0c9,0 17,3 23,9 7,7 10,15 10,24l0 40zm-15 0l0 -40c0,-5 -2,-9 -5,-13 -4,-3 -8,-5 -13,-5l-9 0c-5,0 -10,2 -13,5 -4,4 -6,8 -6,13l0 40c0,5 2,9 6,13 3,3 8,5 13,5l9 0c5,0 9,-1 13,-5 3,-3 5,-8 5,-13zm61 18l31 0c4,0 7,-1 10,-4 3,-3 5,-6 5,-11l0 -46c0,-4 -2,-8 -4,-11 -3,-3 -7,-4 -11,-4l-31 0 0 76zm0 15l0 38c0,3 -1,4 -2,6 -2,1 -4,2 -6,2 -1,0 -3,-1 -5,-2 -1,-1 -2,-3 -2,-6l0 -137c0,-5 2,-7 7,-7l38 0c9,0 16,3 22,9 6,6 9,13 9,21l0 46c0,8 -3,15 -9,21 -6,6 -13,9 -22,9l-30 0zm164 -6c-4,2 -9,3 -16,5l-8 1 -9 0 -10 0 -10 -1c-5,-1 -10,-4 -14,-8 -3,-4 -5,-9 -5,-15 0,-3 1,-6 2,-10 1,-3 3,-6 6,-8l49 -34c2,-1 2,-2 2,-4 0,-3 -2,-6 -7,-8 -6,-2 -11,-2 -18,-2 -5,0 -9,0 -13,1 -4,1 -7,2 -10,4 -1,1 -2,2 -4,2 -2,0 -4,-1 -6,-2 -1,-2 -2,-4 -2,-6 0,-2 1,-4 3,-6 4,-2 8,-4 15,-6 3,-1 6,-1 9,-2 3,0 7,0 10,0 2,0 4,0 6,0 2,0 4,0 6,0 2,1 5,1 8,2 6,2 10,5 14,9 3,4 5,8 5,13 0,7 -3,12 -9,17l-48 34c-2,2 -3,4 -3,6 0,2 1,3 2,5 1,2 3,3 5,3l8 1 9 0c6,0 11,0 14,-1 2,0 3,0 5,-1 2,-1 4,-2 6,-3l2 -1c0,0 1,0 2,0 2,0 4,1 5,2 2,2 3,4 3,6 0,3 -2,5 -4,7zm95 -24l0 -61 -31 0c-4,0 -8,1 -11,4 -1,2 -2,3 -3,5 -1,2 -1,4 -1,6l0 46c0,4 1,8 4,11 2,1 4,2 5,3 2,1 4,1 6,1l16 0c4,0 7,-1 10,-4 3,-3 5,-6 5,-11zm7 20c-2,3 -5,6 -10,8 -4,1 -8,2 -12,2l-16 0c-8,0 -15,-3 -21,-8 -6,-6 -9,-13 -9,-22l0 -46c0,-8 3,-15 9,-21 6,-6 13,-9 21,-9l38 0c5,0 8,2 8,7l0 69c0,3 1,6 3,9 2,3 4,5 8,7 3,1 4,3 4,7 0,2 0,4 -2,5 -1,2 -3,2 -5,2 -1,0 -2,0 -3,0 -5,-2 -9,-5 -13,-10zm99 -51l0 -38c0,-2 1,-4 3,-5 1,-2 3,-2 5,-2 2,0 4,0 5,2 2,1 3,3 3,5l0 92c0,2 -1,4 -3,6 -1,1 -3,1 -5,1 -2,0 -4,0 -5,-2 -2,-1 -3,-3 -3,-5l0 -38 -45 0 0 38c0,2 -1,4 -3,6 -1,1 -3,1 -5,1 -2,0 -4,0 -5,-1 -2,-2 -3,-4 -3,-6l0 -92c0,-2 1,-4 3,-5 1,-2 3,-2 5,-2 2,0 4,0 5,2 2,1 3,3 3,5l0 38 45 0zm137 54c0,2 0,4 -2,6 -1,1 -3,1 -5,1 -2,0 -4,0 -6,-1 -1,-2 -2,-4 -2,-6l0 -92c0,-2 1,-4 2,-5 2,-2 4,-2 6,-2 2,0 3,0 5,2 1,1 2,3 2,5l0 92zm-76 -38l0 30 15 0c5,0 9,-1 11,-4 3,-3 5,-7 5,-11 0,-4 -2,-8 -4,-11 -1,-1 -3,-2 -5,-3 -2,-1 -4,-1 -7,-1l-15 0zm0 -16l15 0c10,0 17,4 23,10 5,6 8,13 8,21 0,8 -3,15 -8,21 -5,6 -13,9 -23,9l-22 0c-6,0 -8,-2 -8,-7l0 -92c0,-2 1,-4 2,-5 2,-2 4,-2 6,-2 1,0 3,0 5,2 1,1 2,3 2,5l0 38zm-2401 297l0 -91c0,-3 0,-5 -2,-6 -1,-2 -3,-3 -4,-3 -3,0 -5,2 -7,5l-32 44 -32 -44c-2,-3 -5,-5 -7,-5 -2,0 -4,1 -5,3 -1,1 -2,3 -2,6l0 91c0,3 1,5 2,6 2,1 3,2 6,2 1,0 3,-1 5,-2 1,-1 2,-3 2,-6l0 -67 25 34c2,2 4,4 6,4 2,0 4,-2 6,-4l24 -34 0 67c0,3 1,5 2,6 2,1 4,2 6,2 2,0 3,-1 5,-2 2,-1 2,-3 2,-6zm92 8l-31 0c-8,0 -15,-3 -21,-9 -6,-6 -9,-13 -9,-21l0 -69c0,-2 1,-4 2,-6 2,-1 3,-2 5,-2 2,0 4,1 6,2 1,2 2,3 2,6l0 69c0,4 1,8 4,11 2,1 3,2 5,3 2,0 4,1 6,1l31 0 0 -84c0,-2 1,-4 2,-6 2,-1 3,-2 5,-2 2,0 4,1 6,2 1,2 2,3 2,6l0 114c0,8 -3,16 -9,22 -6,6 -13,9 -22,9l-30 0c-2,0 -4,-1 -6,-3 -1,-1 -2,-3 -2,-5 0,-2 1,-4 2,-5 2,-2 4,-2 6,-2l31 0c4,0 7,-2 10,-5 3,-3 5,-6 5,-11l0 -15zm106 -61l0 -38c0,-2 1,-4 3,-6 1,-1 3,-2 5,-2 2,0 4,1 5,2 2,2 2,3 2,6l0 91c0,3 0,5 -2,6 -1,1 -3,2 -5,2 -2,0 -4,-1 -5,-2 -2,-1 -3,-3 -3,-6l0 -38 -46 0 0 38c0,3 0,5 -2,6 -1,1 -3,2 -5,2 -2,0 -4,-1 -5,-2 -2,-1 -3,-3 -3,-6l0 -91c0,-2 1,-4 3,-6 1,-1 3,-2 5,-2 2,0 4,1 5,2 2,2 2,3 2,6l0 38 46 0zm122 53c0,5 -3,8 -8,8l-38 0c-8,0 -15,-3 -21,-9 -6,-6 -9,-13 -9,-21l0 -69c0,-2 1,-4 2,-6 2,-1 3,-2 5,-2 2,0 4,1 6,2 1,2 2,3 2,6l0 69c0,4 1,8 4,11 2,1 4,2 5,3 2,0 4,1 6,1l31 0 0 -84c0,-2 1,-4 2,-6 2,-1 3,-2 5,-2 2,0 4,1 6,2 1,2 2,3 2,6l0 91zm91 -7l0 -84c0,-2 1,-4 3,-6 1,-1 3,-2 5,-2 2,0 4,1 5,2 2,2 3,3 3,6l0 84 7 0c5,0 8,2 8,7l0 14c0,2 -1,4 -3,6 -1,1 -3,2 -5,2 -2,0 -3,-1 -5,-2 -2,-1 -2,-3 -2,-6l0 -6 -46 0c-8,0 -16,-3 -22,-9 -6,-6 -9,-13 -9,-21l0 -69c0,-2 1,-4 3,-6 1,-1 3,-2 5,-2 2,0 4,1 5,2 2,2 3,3 3,6l0 69c0,4 1,8 4,11 1,1 3,2 5,3 2,0 4,1 6,1l30 0z"/>
   <path class="fil32 str0" d="M6859 2131c0,5 -2,8 -8,8l-38 0c-8,0 -15,-3 -21,-9 -6,-6 -9,-13 -9,-21l0 -69c0,-2 1,-4 2,-6 2,-1 4,-2 6,-2 1,0 3,1 5,2 1,2 2,3 2,6l0 69c0,4 2,8 4,11 2,1 4,2 5,3 3,0 5,1 6,1l31 0 0 -84c0,-2 1,-4 2,-6 2,-1 4,-2 6,-2 1,0 3,1 5,2 1,2 2,3 2,6l0 91zm107 0c0,3 -1,5 -3,6 -1,1 -3,2 -5,2 -2,0 -4,-1 -5,-2 -2,-1 -3,-3 -3,-6l0 -68c0,-5 -1,-8 -4,-11 -3,-3 -6,-4 -11,-4l-30 0 0 83c0,3 -1,5 -3,6 -1,1 -3,2 -5,2 -2,0 -4,-1 -5,-2 -2,-1 -3,-3 -3,-6l0 -91c0,-5 3,-8 8,-8l38 0c8,0 15,3 21,9 7,6 10,13 10,22l0 68zm91 -22l0 -61 -31 0c-4,0 -8,1 -10,4 -2,1 -3,3 -4,5 0,2 -1,4 -1,6l0 46c0,4 2,8 5,10 1,2 3,3 4,4 3,0 5,1 6,1l16 0c4,0 8,-2 11,-4 3,-3 4,-7 4,-11zm7 20c-2,3 -5,5 -10,7 -4,2 -8,3 -12,3l-16 0c-8,0 -15,-3 -21,-9 -6,-6 -9,-13 -9,-21l0 -46c0,-9 3,-16 9,-22 6,-6 13,-9 21,-9l39 0c5,0 7,3 7,8l0 68c0,3 1,7 3,10 2,3 4,5 8,6 3,2 4,4 4,7 0,2 0,4 -2,6 -1,1 -3,2 -5,2 -1,0 -2,0 -3,-1 -5,-2 -9,-5 -13,-9zm115 2c0,3 -1,5 -2,6 -2,1 -4,2 -6,2 -2,0 -4,-1 -5,-2 -2,-1 -2,-3 -2,-6l0 -83 -18 0 -28 86c-1,1 -2,3 -3,4 -1,0 -2,0 -4,1 -2,0 -4,-1 -6,-2 -1,-1 -2,-3 -2,-5l0 -3 30 -91c1,-4 4,-6 8,-6l30 0c5,0 8,3 8,8l0 91zm45 -38l0 31 31 0c4,0 8,-2 11,-5 3,-3 4,-6 4,-10 0,-5 -1,-8 -4,-11 -1,-2 -2,-3 -4,-4 -2,0 -5,-1 -7,-1l-31 0zm0 -15l31 0c9,0 17,3 23,9 5,6 7,13 7,22 0,8 -2,15 -7,20 -6,7 -14,10 -23,10l-38 0c-5,0 -8,-3 -8,-8l0 -91c0,-2 1,-4 2,-6 2,-1 4,-2 6,-2 2,0 3,1 5,2 1,2 2,3 2,6l0 38zm153 0l0 -38c0,-2 0,-4 2,-6 1,-1 3,-2 5,-2 2,0 4,1 5,2 2,2 3,3 3,6l0 91c0,3 -1,5 -2,6 -2,1 -4,2 -6,2 -2,0 -4,-1 -5,-2 -2,-1 -2,-3 -2,-6l0 -38 -46 0 0 38c0,3 -1,5 -2,6 -2,1 -4,2 -6,2 -2,0 -4,-1 -5,-2 -2,-1 -2,-3 -2,-6l0 -91c0,-2 0,-4 2,-6 1,-1 3,-2 5,-2 2,0 4,1 5,2 2,2 3,3 3,6l0 38 46 0zm136 53c0,3 0,5 -2,6 -1,1 -3,2 -5,2 -2,0 -4,-1 -5,-2 -2,-1 -3,-3 -3,-6l0 -91c0,-2 1,-4 3,-6 1,-1 3,-2 5,-2 2,0 4,1 5,2 2,2 2,3 2,6l0 91zm-76 -38l0 31 16 0c4,0 8,-2 11,-5 2,-3 4,-6 4,-10 0,-5 -1,-8 -4,-11 -1,-2 -3,-3 -5,-4 -2,0 -4,-1 -6,-1l-16 0zm0 -15l15 0c10,0 18,3 23,9 5,6 8,13 8,22 0,8 -3,15 -8,20 -5,7 -13,10 -22,10l-23 0c-5,0 -8,-3 -8,-8l0 -91c0,-2 1,-4 2,-6 2,-1 4,-2 6,-2 2,0 3,1 5,2 1,2 2,3 2,6l0 38zm154 8l28 41 1 2 0 3c0,1 -1,3 -2,5l-1 1 -2 1 -3 0c-2,0 -4,-1 -6,-3l-24 -36 -24 36c-2,2 -4,3 -6,3 -2,0 -4,-1 -6,-2 -1,-2 -2,-4 -2,-6 0,-1 0,-2 1,-4l28 -41 -28 -42 -1 -2 0 -2c0,-2 1,-4 2,-5 2,-2 4,-3 6,-3 2,0 4,1 6,4l24 36 24 -36c2,-2 4,-4 6,-4 2,0 4,1 6,3 1,1 2,3 2,5 0,1 0,3 -1,4l-28 42zm227 19c0,10 -3,17 -10,24 -6,7 -14,10 -24,10l-9 0c-9,0 -17,-3 -23,-10 -7,-6 -10,-14 -10,-24l0 -39c0,-9 3,-17 10,-24 6,-6 14,-10 23,-10l9 0c9,0 17,4 24,10 7,7 10,15 10,24l0 39zm-15 1l0 -40c0,-5 -2,-9 -6,-13 -3,-4 -7,-5 -13,-5l-9 0c-5,0 -9,1 -13,5 -3,3 -5,8 -5,13l0 40c0,5 2,9 5,12 4,4 8,6 13,6l9 0c5,0 10,-2 13,-5 4,-4 6,-8 6,-13zm106 3l0 -46c0,-5 -1,-8 -4,-11 -3,-3 -7,-4 -11,-4l-15 0c-5,0 -8,1 -11,4 -2,1 -3,3 -4,5 0,2 -1,4 -1,6l0 46c0,4 2,8 5,10 1,2 3,3 5,4 2,0 4,1 6,1l15 0c4,0 8,-2 11,-4 3,-3 4,-7 4,-11zm-24 -77l-34 -32c-2,-2 -3,-4 -3,-7 0,-1 0,-3 2,-4 1,-2 3,-2 6,-2l61 0c2,0 4,1 5,2 2,2 2,3 2,5 0,2 0,4 -1,5 -2,2 -4,3 -6,3l-42 0 40 38 2 3c5,6 7,12 7,20l0 46c0,8 -3,15 -8,21 -6,6 -14,9 -22,9l-15 0c-8,0 -16,-3 -22,-9 -6,-6 -9,-13 -9,-21l0 -46c0,-9 3,-16 9,-22 6,-6 13,-9 22,-9l6 0zm85 92l31 0c4,0 7,-2 10,-4 3,-3 5,-7 5,-11l0 -46c0,-5 -2,-8 -5,-11 -2,-3 -6,-4 -10,-4l-31 0 0 76zm0 15l0 38c0,2 -1,4 -2,5 -2,2 -4,3 -6,3 -1,0 -3,-1 -5,-2 -1,-2 -2,-3 -2,-6l0 -137c0,-5 2,-8 7,-8l38 0c9,0 16,3 22,9 6,6 9,13 9,22l0 46c0,8 -3,15 -9,21 -6,6 -13,9 -22,9l-30 0zm152 -30l0 -61 -30 0c-5,0 -8,1 -11,4 -2,1 -3,3 -3,5 -1,2 -2,4 -2,6l0 46c0,4 2,8 5,10 1,2 3,3 5,4 2,0 4,1 6,1l15 0c4,0 8,-2 11,-4 3,-3 4,-7 4,-11zm8 20c-3,3 -6,5 -10,7 -5,2 -9,3 -13,3l-15 0c-8,0 -16,-3 -22,-9 -6,-6 -9,-13 -9,-21l0 -46c0,-9 3,-16 9,-22 6,-6 13,-9 22,-9l38 0c5,0 7,3 7,8l0 68c0,3 1,7 3,10 2,3 5,5 8,6 3,2 5,4 5,7 0,2 -1,4 -2,6 -2,1 -4,2 -6,2 -1,0 -2,0 -3,-1 -5,-2 -9,-5 -12,-9zm78 -36l-10 0c-2,0 -4,-1 -5,-2 -2,-2 -2,-3 -2,-5 0,-2 0,-4 2,-6 1,-1 3,-2 5,-2l8 0c5,0 8,-2 11,-5 3,-3 4,-6 4,-10 0,-5 -1,-8 -3,-11 -2,-1 -3,-2 -5,-3 -2,-1 -4,-1 -7,-1l-8 0c-7,0 -13,2 -18,6 -1,1 -3,1 -5,1 -1,0 -3,0 -5,-2 -1,-1 -2,-3 -2,-5 0,-3 1,-5 3,-6 8,-7 17,-10 27,-10l8 0c10,0 17,4 23,10 5,6 7,13 7,21 0,2 0,4 0,6 0,2 -1,4 -2,6 -1,4 -4,7 -7,11 3,2 5,6 7,10l2 6c0,2 0,4 0,7 0,8 -2,15 -7,21 -6,6 -13,9 -23,9l-8 0c-10,0 -19,-3 -27,-9 -2,-2 -3,-4 -3,-6 0,-2 1,-4 2,-5 2,-2 3,-3 5,-3 2,0 3,0 5,2 5,4 12,6 18,6l8 0c5,0 8,-2 11,-5 3,-3 4,-7 4,-11 0,-4 -1,-7 -3,-10 -2,-2 -5,-4 -10,-5zm135 12c0,10 -3,17 -10,24 -6,7 -14,10 -24,10l-9 0c-9,0 -17,-3 -23,-10 -7,-6 -10,-14 -10,-24l0 -39c0,-9 3,-17 10,-24 6,-6 14,-10 23,-10l9 0c9,0 17,4 24,10 7,7 10,15 10,24l0 39zm-15 1l0 -40c0,-5 -2,-9 -6,-13 -3,-4 -7,-5 -13,-5l-9 0c-5,0 -9,1 -13,5 -3,3 -5,8 -5,13l0 40c0,5 2,9 5,12 4,4 8,6 13,6l9 0c5,0 10,-2 13,-5 4,-4 6,-8 6,-13zm106 3l0 -46c0,-4 -1,-8 -4,-11 -3,-3 -7,-4 -11,-4l-15 0c-5,0 -8,1 -11,4 -2,1 -3,3 -3,5 -1,2 -2,4 -2,6l0 46c0,4 2,8 5,11 1,1 3,2 5,3 2,0 4,1 6,1l15 0c4,0 8,-2 11,-4 3,-3 4,-7 4,-11zm-46 -71l7 -4 9 -7c3,-2 5,-4 6,-5 2,-3 3,-5 3,-8 0,-3 -1,-6 -4,-9 -2,-2 -5,-3 -8,-3 -4,0 -7,1 -9,3 -2,2 -4,5 -4,9l0 24zm31 -5c10,0 17,3 23,9 5,5 7,12 7,21l0 46c0,8 -3,15 -8,21 -6,6 -14,9 -22,9l-15 0c-8,0 -16,-3 -22,-9 -6,-6 -9,-13 -9,-21l0 -95c0,-8 3,-15 9,-20 5,-5 11,-7 19,-7 7,0 13,2 19,7 5,5 8,11 8,20 0,5 -1,9 -2,11 -1,3 -4,5 -7,8zm122 76l0 -61 -31 0c-4,0 -8,1 -11,4 -1,1 -2,3 -3,5 -1,2 -1,4 -1,6l0 46c0,4 1,8 4,10 2,2 4,3 5,4 2,0 4,1 6,1l16 0c4,0 7,-2 10,-4 3,-3 5,-7 5,-11zm7 20c-2,3 -6,5 -10,7 -4,2 -8,3 -12,3l-16 0c-8,0 -15,-3 -21,-9 -6,-6 -9,-13 -9,-21l0 -46c0,-9 3,-16 9,-22 6,-6 13,-9 21,-9l38 0c5,0 8,3 8,8l0 68c0,3 1,7 3,10 2,3 4,5 8,6 3,2 4,4 4,7 0,2 0,4 -2,6 -1,1 -3,2 -5,2 -1,0 -2,0 -3,-1 -5,-2 -9,-5 -13,-9zm99 -51l0 -38c0,-2 1,-4 3,-6 1,-1 3,-2 5,-2 2,0 4,1 5,2 2,2 3,3 3,6l0 91c0,3 -1,5 -3,6 -1,1 -3,2 -5,2 -2,0 -4,-1 -5,-2 -2,-1 -3,-3 -3,-6l0 -38 -45 0 0 38c0,3 -1,5 -3,6 -1,1 -3,2 -5,2 -2,0 -4,-1 -5,-2 -2,-1 -3,-3 -3,-6l0 -91c0,-2 1,-4 3,-6 1,-1 3,-2 5,-2 2,0 4,1 5,2 2,2 3,3 3,6l0 38 45 0zm122 53c0,5 -2,8 -8,8l-38 0c-8,0 -15,-3 -21,-9 -6,-6 -9,-13 -9,-21l0 -69c0,-2 1,-4 2,-6 2,-1 3,-2 5,-2 2,0 4,1 6,2 1,2 2,3 2,6l0 69c0,4 2,8 4,11 2,1 4,2 5,3 3,0 5,1 6,1l31 0 0 -84c0,-2 1,-4 2,-6 2,-1 3,-2 5,-2 2,0 4,1 6,2 1,2 2,3 2,6l0 91zm84 -129l-31 0c-2,0 -4,-1 -5,-2 -2,-2 -2,-4 -2,-6 0,-1 0,-3 2,-5 1,-1 3,-2 5,-2l31 0c2,0 4,1 5,2 2,2 2,3 2,5 0,2 0,4 -2,5 -1,2 -3,3 -5,3zm23 129c0,5 -3,8 -8,8l-38 0c-8,0 -15,-3 -21,-9 -7,-6 -10,-13 -10,-21l0 -69c0,-2 1,-4 3,-6 1,-1 3,-2 5,-2 2,0 4,1 5,2 2,2 3,4 3,6l0 69c0,4 1,8 4,11 1,1 3,2 5,3 2,0 4,1 6,1l30 0 0 -84c0,-2 1,-4 3,-6 1,-1 3,-2 5,-2 2,0 4,1 5,2 2,2 3,4 3,6l0 91z"/>
  </g>
  <g id="_137020886000">
   <path class="fil32 str0" d="M6018 5845l-38 0c-8,0 -15,-3 -21,-9 -6,-6 -9,-13 -9,-22l0 -91c0,-9 3,-16 9,-22 5,-6 13,-9 21,-9l38 0c2,0 4,1 6,3 1,1 2,3 2,5 0,2 -1,3 -2,5 -1,2 -3,3 -6,3l-38 0c-4,0 -8,1 -11,4 -1,1 -2,3 -3,5 -1,2 -1,4 -1,6l0 91c0,5 1,8 4,11 2,2 3,3 5,4 2,0 4,1 6,1l38 0c2,0 4,0 6,2 1,1 2,3 2,5 0,2 -1,4 -2,5 -1,2 -3,3 -6,3zm107 -34c0,9 -3,17 -9,24 -7,6 -15,10 -24,10l-9 0c-9,0 -17,-3 -24,-10 -6,-6 -10,-14 -10,-24l0 -39c0,-9 4,-17 10,-24 7,-7 15,-10 24,-10l9 0c9,0 17,3 24,10 6,6 9,14 9,24l0 39zm-15 0l0 -39c0,-5 -1,-10 -5,-13 -4,-4 -8,-6 -13,-6l-9 0c-5,0 -10,2 -13,6 -4,3 -6,8 -6,13l0 39c0,5 2,10 6,13 3,4 8,6 13,6l9 0c5,0 9,-2 13,-6 4,-3 5,-7 5,-13zm107 3l0 -45c0,-5 -2,-8 -4,-11 -3,-3 -7,-5 -11,-5l-16 0c-4,0 -8,2 -11,5 -1,1 -2,3 -3,5 -1,1 -1,3 -1,6l0 45c0,5 1,8 4,11 2,2 4,3 5,4 2,0 4,1 6,1l16 0c4,0 7,-2 10,-5 3,-2 5,-6 5,-11zm-25 -76l-34 -32c-2,-2 -3,-5 -3,-7 0,-1 1,-3 2,-4 2,-2 4,-3 6,-3l61 0c2,0 4,1 6,3 1,1 2,3 2,5 0,2 -1,3 -2,5 -1,2 -3,3 -6,3l-42 0 41 38 2 3c5,5 7,12 7,20l0 45c0,9 -3,16 -9,22 -6,6 -13,9 -21,9l-16 0c-8,0 -15,-3 -21,-9 -6,-6 -9,-13 -9,-22l0 -45c0,-9 3,-16 9,-22 6,-6 13,-9 21,-9l6 0zm86 92l30 0c4,0 8,-2 11,-5 3,-2 4,-6 4,-11l0 -45c0,-5 -1,-8 -4,-11 -3,-3 -6,-5 -11,-5l-30 0 0 77zm0 15l0 38c0,2 -1,4 -3,5 -1,2 -3,2 -5,2 -2,0 -3,0 -5,-1 -2,-2 -3,-4 -3,-6l0 -137c0,-5 3,-8 8,-8l38 0c8,0 15,3 22,9 6,6 9,13 9,22l0 45c0,9 -3,16 -9,22 -6,6 -14,9 -22,9l-30 0zm152 -31l0 -61 -31 0c-4,0 -8,2 -11,5 -1,1 -2,3 -3,5 -1,1 -1,3 -1,6l0 45c0,5 2,8 4,11 2,2 4,3 5,4 3,0 5,1 6,1l16 0c4,0 7,-2 10,-5 3,-2 5,-6 5,-11zm7 21c-2,3 -5,5 -10,7 -4,2 -8,3 -12,3l-16 0c-8,0 -15,-3 -21,-9 -6,-6 -9,-13 -9,-22l0 -45c0,-9 3,-16 9,-22 6,-6 13,-9 21,-9l38 0c6,0 8,3 8,8l0 68c0,3 1,6 3,9 2,3 4,6 8,7 3,1 4,4 4,7 0,2 0,4 -2,5 -1,2 -3,3 -5,3 -1,0 -2,0 -3,-1 -5,-2 -9,-5 -13,-9zm99 -51l0 -38c0,-2 1,-4 3,-6 1,-1 3,-2 5,-2 2,0 4,1 5,2 2,1 3,3 3,6l0 91c0,3 -1,4 -3,6 -1,1 -3,2 -5,2 -2,0 -4,-1 -5,-2 -2,-1 -3,-3 -3,-6l0 -38 -45 0 0 38c0,3 -1,4 -3,6 -1,1 -3,2 -5,2 -2,0 -4,-1 -5,-2 -2,-1 -3,-3 -3,-6l0 -91c0,-2 1,-4 3,-6 1,-1 3,-2 5,-2 2,0 4,1 5,2 2,1 3,3 3,6l0 38 45 0zm122 53c0,5 -2,8 -7,8l-39 0c-8,0 -15,-3 -21,-9 -6,-6 -9,-13 -9,-22l0 -68c0,-2 1,-4 2,-6 2,-1 4,-2 6,-2 1,0 3,1 5,2 1,1 2,3 2,6l0 68c0,5 2,8 5,11 1,2 3,3 4,4 3,0 5,1 6,1l31 0 0 -84c0,-2 1,-4 2,-6 2,-1 4,-2 6,-2 1,0 3,1 5,2 1,1 2,3 2,6l0 91zm46 -53l46 0 0 -15c0,-5 -2,-8 -5,-11 -3,-3 -6,-5 -11,-5l-15 0c-4,0 -8,2 -11,5 -1,1 -3,3 -3,5 -1,2 -1,4 -1,6l0 15zm0 15l0 15c0,5 1,8 4,11 2,2 3,3 5,4 2,0 4,1 6,1l38 0c2,0 4,0 5,2 2,1 3,3 3,5 0,2 -1,4 -2,5 -1,2 -3,3 -6,3l-38 0c-8,0 -15,-3 -21,-9 -6,-6 -9,-13 -9,-22l0 -45c0,-9 2,-16 8,-22 6,-6 13,-9 22,-9l15 0c8,0 16,3 22,9 6,6 9,13 9,22l0 22c0,6 -3,8 -8,8l-53 0zm259 38c0,5 -3,8 -8,8l-38 0c-8,0 -15,-3 -22,-9 -6,-6 -9,-13 -9,-22l0 -68c0,-2 1,-4 3,-6 1,-1 3,-2 5,-2 2,0 4,1 5,2 2,1 3,3 3,6l0 68c0,5 1,8 4,11 1,2 3,3 5,4 2,0 4,1 6,1l30 0 0 -84c0,-2 1,-4 3,-6 1,-1 3,-2 5,-2 2,0 4,1 5,2 2,1 3,3 3,6l0 91zm70 -38l-10 0c-2,0 -4,-1 -5,-2 -1,-2 -2,-4 -2,-6 0,-1 1,-3 2,-5 1,-1 3,-2 5,-2l8 0c5,0 8,-2 11,-5 3,-3 4,-6 4,-10 0,-5 -1,-8 -3,-11 -2,-1 -3,-3 -5,-3 -2,-1 -4,-2 -7,-2l-8 0c-7,0 -13,2 -18,7 -1,0 -3,1 -4,1 -2,0 -4,-1 -6,-2 -1,-2 -2,-4 -2,-6 0,-2 1,-4 3,-6 8,-6 17,-9 27,-9l8 0c10,0 17,3 23,10 5,5 7,12 7,21 0,2 0,4 0,6 0,2 -1,4 -2,6 -1,4 -4,7 -7,10 3,3 5,7 7,11l2 6c0,2 0,4 0,6 0,9 -2,16 -7,21 -6,7 -13,10 -23,10l-8 0c-10,0 -19,-3 -27,-9 -2,-2 -3,-4 -3,-6 0,-2 1,-4 2,-6 2,-1 4,-2 6,-2 1,0 2,0 4,1 5,5 12,7 18,7l8 0c5,0 8,-2 11,-5 3,-3 4,-7 4,-11 0,-4 -1,-7 -3,-10 -2,-3 -5,-4 -10,-5zm120 15l0 -45c0,-5 -2,-8 -4,-11 -3,-3 -7,-5 -11,-5l-16 0c-4,0 -8,2 -11,5 -1,1 -2,3 -3,5 -1,1 -1,3 -1,6l0 45c0,5 1,8 4,11 2,2 3,3 5,4 2,0 4,1 6,1l16 0c4,0 7,-2 10,-5 3,-2 5,-6 5,-11zm-25 -76l-34 -32c-2,-2 -3,-5 -3,-7 0,-1 1,-3 2,-4 2,-2 4,-3 6,-3l61 0c2,0 4,1 6,3 1,1 2,3 2,5 0,2 -1,3 -2,5 -1,2 -3,3 -6,3l-42 0 41 38 2 3c5,5 7,12 7,20l0 45c0,9 -3,16 -9,22 -6,6 -13,9 -21,9l-16 0c-8,0 -15,-3 -21,-9 -6,-6 -9,-13 -9,-22l0 -45c0,-9 3,-16 9,-22 6,-6 13,-9 21,-9l6 0zm147 99c0,5 -3,8 -8,8l-38 0c-8,0 -16,-3 -22,-9 -6,-6 -9,-13 -9,-22l0 -68c0,-2 1,-4 3,-6 1,-1 3,-2 5,-2 2,0 4,1 5,2 2,1 2,3 2,6l0 68c0,5 2,8 5,11 1,2 3,3 5,4 2,0 4,1 6,1l30 0 0 -84c0,-2 1,-4 3,-6 1,-1 3,-2 5,-2 2,0 4,1 5,2 2,1 3,3 3,6l0 91zm45 -7l31 0c4,0 7,-2 10,-5 3,-2 5,-6 5,-11l0 -45c0,-5 -2,-8 -4,-11 -3,-3 -7,-5 -11,-5l-31 0 0 77zm0 15l0 38c0,2 -1,4 -2,5 -2,2 -4,2 -6,2 -1,0 -3,0 -5,-1 -1,-2 -2,-4 -2,-6l0 -137c0,-5 2,-8 7,-8l39 0c8,0 15,3 21,9 6,6 9,13 9,22l0 45c0,9 -3,16 -9,22 -6,6 -13,9 -21,9l-31 0zm152 -31l0 -61 -30 0c-4,0 -8,2 -11,5 -2,1 -3,3 -3,5 -1,1 -1,3 -1,6l0 45c0,5 1,8 4,11 1,2 3,3 5,4 2,0 4,1 6,1l15 0c4,0 8,-2 11,-5 3,-2 4,-6 4,-11zm8 21c-3,3 -6,5 -10,7 -4,2 -9,3 -13,3l-15 0c-8,0 -15,-3 -21,-9 -7,-6 -10,-13 -10,-22l0 -45c0,-9 3,-16 9,-22 6,-6 13,-9 22,-9l38 0c5,0 8,3 8,8l0 68c0,3 1,6 2,9 2,3 5,6 8,7 3,1 5,4 5,7 0,2 -1,4 -2,5 -2,2 -3,3 -6,3 -1,0 -2,0 -3,-1 -5,-2 -9,-5 -12,-9zm84 -82l-31 0 0 84c0,3 -1,4 -2,6 -1,1 -3,2 -5,2 -2,0 -4,-1 -6,-2 -1,-1 -2,-3 -2,-6l0 -91c0,-5 2,-8 8,-8l68 0c8,0 15,3 21,9 6,6 9,13 9,22l0 68c0,3 0,4 -2,6 -1,1 -3,2 -5,2 -2,0 -4,-1 -5,-2 -2,-1 -3,-3 -3,-6l0 -68c0,-5 -1,-8 -4,-11 -3,-3 -7,-5 -11,-5l-15 0 0 84c0,3 -1,4 -2,6 -2,1 -4,2 -6,2 -2,0 -4,-1 -5,-2 -2,-1 -2,-3 -2,-6l0 -84zm106 31l46 0 0 -15c0,-5 -2,-8 -4,-11 -3,-3 -7,-5 -11,-5l-16 0c-4,0 -8,2 -11,5 -1,1 -2,3 -3,5 -1,2 -1,4 -1,6l0 15zm0 15l0 15c0,5 2,8 4,11 2,2 4,3 5,4 2,0 4,1 6,1l38 0c3,0 4,0 6,2 1,1 2,3 2,5 0,2 -1,4 -2,5 -1,2 -3,3 -6,3l-38 0c-8,0 -15,-3 -21,-9 -6,-6 -9,-13 -9,-22l0 -45c0,-9 3,-16 9,-22 6,-6 13,-9 21,-9l16 0c8,0 15,3 21,9 6,6 9,13 9,22l0 22c0,6 -2,8 -8,8l-53 0zm168 38c0,3 -1,4 -3,6 -1,1 -3,2 -5,2 -2,0 -4,-1 -5,-2 -2,-1 -3,-3 -3,-6l0 -84 -17 0 -29 87c0,1 -1,3 -2,4 -1,0 -2,0 -5,1 -2,0 -3,-1 -5,-2 -2,-2 -2,-3 -2,-6l0 -2 30 -92c1,-3 4,-5 7,-5l31 0c5,0 8,3 8,8l0 91zm45 -53l46 0 0 -15c0,-5 -1,-8 -4,-11 -3,-3 -7,-5 -11,-5l-16 0c-4,0 -8,2 -11,5 -1,1 -2,3 -3,5 -1,2 -1,4 -1,6l0 15zm0 15l0 15c0,5 2,8 4,11 2,2 4,3 5,4 3,0 5,1 6,1l39 0c2,0 3,0 5,2 1,1 2,3 2,5 0,2 -1,4 -2,5 -1,2 -3,3 -5,3l-39 0c-8,0 -15,-3 -21,-9 -6,-6 -9,-13 -9,-22l0 -45c0,-9 3,-16 9,-22 6,-6 13,-9 21,-9l16 0c8,0 15,3 21,9 6,6 9,13 9,22l0 22c0,6 -2,8 -7,8l-54 0zm145 -91l-31 0c-2,0 -4,-1 -5,-2 -2,-2 -2,-4 -2,-6 0,-2 0,-3 2,-5 1,-2 3,-3 5,-3l31 0c2,0 4,1 5,3 2,1 2,3 2,5 0,2 0,3 -2,5 -1,2 -3,3 -5,3zm23 129c0,5 -3,8 -8,8l-38 0c-8,0 -15,-3 -21,-9 -6,-6 -9,-13 -9,-22l0 -68c0,-2 0,-4 2,-6 1,-1 3,-2 5,-2 2,0 4,1 5,2 2,1 3,3 3,6l0 68c0,5 1,8 4,11 2,2 3,3 5,4 2,0 4,1 6,1l31 0 0 -84c0,-2 0,-4 2,-6 1,-1 3,-2 5,-2 2,0 4,1 5,2 2,1 3,3 3,6l0 91zm198 0c0,3 -1,4 -3,6 -1,1 -3,2 -5,2 -2,0 -4,-1 -5,-2 -2,-1 -3,-3 -3,-6l0 -68c0,-5 -1,-8 -4,-11 -3,-3 -6,-5 -11,-5l-30 0 0 84c0,3 -1,4 -3,6 -1,1 -3,2 -5,2 -2,0 -4,-1 -5,-2 -2,-1 -3,-3 -3,-6l0 -91c0,-5 3,-8 8,-8l38 0c8,0 15,3 21,9 6,6 10,13 10,22l0 68zm106 -26c0,9 -3,17 -10,24 -6,6 -14,10 -23,10l-10 0c-9,0 -17,-3 -23,-10 -7,-6 -10,-14 -10,-24l0 -39c0,-9 3,-17 10,-24 6,-7 14,-10 23,-10l10 0c9,0 16,3 23,10 7,6 10,14 10,24l0 39zm-15 0l0 -39c0,-5 -2,-10 -5,-13 -4,-4 -8,-6 -13,-6l-10 0c-5,0 -9,2 -13,6 -3,3 -5,8 -5,13l0 39c0,5 2,10 5,13 4,4 8,6 13,6l10 0c5,0 9,-2 12,-6 4,-3 6,-7 6,-13zm-2413 270l0 -92c0,-2 0,-5 -2,-6 -1,-2 -3,-2 -5,-2 -2,0 -4,1 -7,4l-31 45 -32 -45c-2,-3 -5,-4 -7,-4 -2,0 -4,0 -5,2 -1,2 -2,4 -2,6l0 92c0,2 1,4 2,6 1,1 3,1 5,1 2,0 4,0 6,-2 1,-1 2,-3 2,-5l0 -68 24 34c2,3 4,4 7,4 2,0 4,-1 6,-4l24 -34 0 68c0,2 1,4 2,6 2,1 3,1 6,1 1,0 3,0 5,-2 1,-1 2,-3 2,-5zm46 -53l46 0 0 -16c0,-4 -2,-8 -5,-11 -3,-3 -6,-4 -11,-4l-15 0c-4,0 -8,1 -11,4 -1,2 -2,3 -3,5 -1,2 -1,4 -1,6l0 16zm0 15l0 15c0,4 1,8 4,11 2,1 3,2 5,3 2,1 4,1 6,1l38 0c2,0 4,1 6,3 1,1 2,3 2,5 0,2 -1,3 -2,5 -1,2 -3,2 -6,2l-38 0c-8,0 -15,-3 -21,-8 -6,-6 -9,-14 -9,-22l0 -46c0,-8 3,-15 8,-21 6,-6 14,-9 22,-9l15 0c9,0 16,3 22,9 6,6 9,13 9,21l0 23c0,5 -3,8 -8,8l-53 0zm145 45l-23 0c-9,0 -16,-3 -22,-8 -6,-6 -9,-14 -9,-22l0 -46c0,-8 3,-15 9,-21 6,-6 13,-9 22,-9l23 0c2,0 3,1 5,2 1,2 2,3 2,5 0,2 0,4 -2,5 -1,2 -3,3 -5,3l-23 0c-5,0 -8,1 -11,4 -2,2 -3,3 -4,5 0,2 -1,4 -1,6l0 46c0,4 2,8 5,11 1,1 3,2 5,3 2,1 4,1 6,1l23 0c2,0 3,1 5,3 1,1 2,3 2,5 0,2 0,3 -2,5 -1,2 -3,2 -5,2zm83 -91l-30 0 0 84c0,2 -1,4 -2,6 -2,1 -4,1 -6,1 -2,0 -4,0 -5,-2 -2,-1 -2,-3 -2,-5l0 -92c0,-5 2,-7 7,-7l69 0c8,0 15,3 21,9 6,6 9,13 9,21l0 69c0,2 -1,4 -2,6 -2,1 -3,1 -6,1 -2,0 -3,0 -5,-2 -1,-1 -2,-3 -2,-5l0 -69c0,-4 -2,-8 -5,-11 -2,-3 -6,-4 -10,-4l-16 0 0 84c0,2 0,4 -2,6 -1,1 -3,1 -5,1 -2,0 -4,0 -6,-2 -1,-1 -2,-3 -2,-5l0 -84zm152 91l-30 0c-8,0 -15,-3 -21,-8 -6,-6 -10,-14 -10,-22l0 -69c0,-2 1,-4 3,-5 1,-2 3,-2 5,-2 2,0 4,0 5,2 2,1 3,3 3,5l0 69c0,4 1,8 4,11 2,1 3,2 5,3 2,1 4,1 6,1l30 0 0 -84c0,-2 1,-4 3,-5 1,-2 3,-2 5,-2 2,0 4,0 5,2 2,1 3,3 3,5l0 115c0,8 -3,15 -9,21 -6,6 -13,9 -22,9l-30 0c-2,0 -4,-1 -6,-2 -1,-2 -2,-4 -2,-6 0,-2 1,-3 2,-5 1,-1 3,-2 6,-2l30 0c4,0 8,-2 11,-4 3,-3 4,-7 4,-11l0 -16zm200 -61l28 -42c1,-1 2,-2 3,-3l2 0 2 0c2,0 3,0 5,2 2,2 3,3 3,5 0,2 -1,3 -2,5l-27 41 27 41 1 3 1 2c0,2 -1,3 -3,5 -1,2 -3,2 -5,2 -3,0 -5,-1 -7,-3l-28 -42 -3 0 0 38c0,2 -1,4 -2,6 -2,1 -4,1 -6,1 -2,0 -4,0 -5,-2 -2,-1 -2,-3 -2,-5l0 -38 -4 0 -28 42c-1,1 -2,2 -3,3l-3 0c-2,0 -4,0 -6,-2 -1,-1 -2,-3 -2,-5 0,-2 0,-3 1,-5l28 -41 -28 -41 -1 -3 0 -2c0,-2 1,-3 2,-5 2,-1 4,-2 6,-2 2,0 4,1 6,3l28 42 4 0 0 -38c0,-2 0,-4 2,-5 1,-2 3,-2 5,-2 2,0 4,0 5,2 2,1 3,3 3,5l0 38 3 0z"/>
   <path class="fil32 str0" d="M6703 6081c0,5 -2,7 -7,7l-38 0c-8,0 -16,-3 -22,-8 -6,-6 -9,-14 -9,-22l0 -69c0,-2 1,-4 3,-5 1,-2 3,-2 5,-2 2,0 4,0 5,2 2,1 2,3 2,5l0 69c0,4 2,8 5,11 1,1 3,2 5,3 2,1 4,1 6,1l30 0 0 -84c0,-2 1,-4 3,-5 1,-2 3,-2 5,-2 2,0 4,0 5,2 2,1 2,3 2,5l0 92zm76 -84l-30 0 0 84c0,2 -1,4 -2,6 -2,1 -3,1 -6,1 -2,0 -3,0 -5,-2 -1,-1 -2,-3 -2,-5l0 -92c0,-5 2,-7 7,-7l69 0c8,0 15,3 21,9 6,6 9,13 9,21l0 69c0,2 0,4 -2,6 -1,1 -3,1 -5,1 -2,0 -4,0 -6,-2 -1,-1 -2,-3 -2,-5l0 -69c0,-4 -1,-8 -4,-11 -3,-3 -7,-4 -11,-4l-15 0 0 84c0,2 -1,4 -3,6 -1,1 -3,1 -5,1 -2,0 -4,0 -5,-2 -2,-1 -3,-3 -3,-5l0 -84zm107 31l46 0 0 -16c0,-4 -2,-8 -5,-11 -2,-3 -6,-4 -11,-4l-15 0c-4,0 -8,1 -11,4 -1,2 -2,3 -3,5 -1,2 -1,4 -1,6l0 16zm0 15l0 15c0,4 1,8 4,11 2,1 3,2 5,3 2,1 4,1 6,1l38 0c2,0 4,1 6,3 1,1 2,3 2,5 0,2 -1,3 -2,5 -1,2 -3,2 -6,2l-38 0c-8,0 -15,-3 -21,-8 -6,-6 -9,-14 -9,-22l0 -46c0,-8 3,-15 9,-21 5,-6 13,-9 21,-9l15 0c9,0 16,3 22,9 6,6 9,13 9,21l0 23c0,5 -3,8 -8,8l-53 0zm167 38c0,2 0,4 -2,6 -1,1 -3,1 -5,1 -2,0 -4,0 -5,-2 -2,-1 -3,-3 -3,-5l0 -84 -17 0 -29 86c0,2 -1,3 -3,4 0,0 -1,1 -4,1 -2,0 -3,0 -5,-2 -2,-1 -3,-3 -3,-5l1 -3 30 -91c1,-4 4,-5 7,-5l31 0c5,0 7,2 7,7l0 92zm46 -38l0 30 31 0c4,0 8,-1 11,-4 2,-4 4,-7 4,-11 0,-4 -1,-8 -4,-11 -1,-1 -3,-2 -5,-3 -2,-1 -4,-1 -6,-1l-31 0zm0 -16l30 0c10,0 18,4 23,10 5,6 8,13 8,21 0,8 -2,15 -8,21 -5,6 -13,9 -22,9l-39 0c-5,0 -7,-2 -7,-7l0 -92c0,-2 1,-4 2,-5 2,-2 3,-2 5,-2 2,0 4,0 6,2 1,1 2,3 2,5l0 38zm145 61l-23 0c-8,0 -15,-3 -22,-8 -6,-6 -9,-14 -9,-22l0 -46c0,-8 3,-15 9,-21 6,-6 13,-9 22,-9l23 0c2,0 4,1 5,2 2,2 2,3 2,5 0,2 0,4 -2,5 -1,2 -3,3 -5,3l-23 0c-4,0 -8,1 -11,4 -2,2 -3,3 -3,5 -1,2 -1,4 -1,6l0 46c0,4 1,8 4,11 1,1 3,2 5,3 2,1 4,1 6,1l23 0c2,0 4,1 5,3 2,1 2,3 2,5 0,2 0,3 -2,5 -1,2 -3,2 -5,2zm83 -91l-30 0 0 84c0,2 -1,4 -2,6 -2,1 -4,1 -6,1 -2,0 -4,0 -5,-2 -2,-1 -2,-3 -2,-5l0 -92c0,-5 2,-7 7,-7l69 0c8,0 15,3 21,9 6,6 9,13 9,21l0 69c0,2 -1,4 -2,6 -1,1 -3,1 -5,1 -2,0 -4,0 -6,-2 -1,-1 -2,-3 -2,-5l0 -69c0,-4 -1,-8 -4,-11 -3,-3 -7,-4 -11,-4l-16 0 0 84c0,2 0,4 -2,6 -1,1 -3,1 -5,1 -2,0 -4,0 -5,-2 -2,-1 -3,-3 -3,-5l0 -84zm153 61l0 -46c0,-4 -2,-8 -5,-11 -3,-2 -6,-4 -11,-4l-15 0c-4,0 -8,2 -11,4 -1,2 -2,4 -3,5 -1,2 -1,4 -1,6l0 46c0,4 1,8 4,11 2,1 3,2 5,3 2,1 4,1 6,1l15 0c5,0 8,-1 11,-4 3,-3 5,-6 5,-11zm-46 -71l6 -4 9 -6c3,-2 5,-4 6,-6 2,-2 3,-5 3,-7 0,-4 -1,-7 -3,-9 -3,-2 -6,-3 -9,-3 -3,0 -6,1 -9,3 -2,2 -3,5 -3,9l0 23zm30 -5c10,0 18,3 23,9 5,5 8,13 8,21l0 46c0,8 -3,15 -9,21 -6,6 -13,9 -22,9l-15 0c-8,0 -15,-3 -21,-8 -6,-6 -9,-14 -9,-22l0 -94c0,-9 2,-16 8,-21 5,-5 12,-7 19,-7 7,0 13,2 19,7 6,5 8,12 8,20 0,5 0,9 -2,12 -1,2 -3,5 -7,7zm122 76l0 -61 -30 0c-5,0 -8,1 -11,4 -2,2 -3,3 -4,5 0,2 -1,4 -1,6l0 46c0,4 2,8 5,11 1,1 3,2 5,3 2,1 4,1 6,1l15 0c4,0 8,-1 11,-4 3,-3 4,-7 4,-11zm8 20c-3,3 -6,6 -10,7 -5,2 -9,3 -13,3l-15 0c-9,0 -16,-3 -22,-8 -6,-6 -9,-14 -9,-22l0 -46c0,-8 3,-15 9,-21 6,-6 13,-9 22,-9l38 0c5,0 7,2 7,7l0 69c0,3 1,6 3,9 2,3 5,5 8,7 3,1 5,3 5,7 0,2 -1,4 -3,5 -1,2 -3,2 -5,2 -1,0 -2,0 -3,0 -5,-2 -9,-5 -12,-10zm54 3l0 2 -8 30c-1,4 -3,6 -7,6 -3,0 -4,-1 -6,-2 -1,-1 -2,-3 -2,-6l0 -2 8 -29 0 -7c0,-2 0,-4 2,-6 1,-1 3,-2 5,-2 2,0 4,1 5,2 2,2 3,4 3,6l0 8zm136 -8l30 0c5,0 8,-1 11,-4 3,-3 5,-7 5,-11l0 -46c0,-4 -2,-8 -5,-11 -3,-3 -6,-4 -11,-4l-30 0 0 76zm0 15l0 38c0,3 -1,4 -3,6 -1,1 -3,2 -5,2 -1,0 -3,-1 -5,-2 -1,-1 -2,-3 -2,-6l0 -137c0,-5 2,-7 7,-7l38 0c9,0 16,3 22,9 6,6 9,13 9,21l0 46c0,8 -3,15 -9,21 -6,6 -13,9 -22,9l-30 0zm152 -30l0 -61 -30 0c-5,0 -8,1 -11,4 -2,2 -3,3 -4,5 0,2 -1,4 -1,6l0 46c0,4 2,8 5,11 1,1 3,2 5,3 2,1 4,1 6,1l15 0c4,0 8,-1 11,-4 3,-3 4,-7 4,-11zm8 20c-3,3 -6,6 -10,7 -5,2 -9,3 -13,3l-15 0c-9,0 -16,-3 -22,-8 -6,-6 -9,-14 -9,-22l0 -46c0,-8 3,-15 9,-21 6,-6 13,-9 22,-9l38 0c5,0 7,2 7,7l0 69c0,3 1,6 3,9 2,3 5,5 8,7 3,1 5,3 5,7 0,2 -1,4 -3,5 -1,2 -3,2 -5,2 -1,0 -2,0 -3,0 -5,-2 -9,-5 -12,-10zm99 -20l0 -46c0,-4 -2,-8 -5,-11 -2,-3 -6,-4 -11,-4l-15 0c-4,0 -8,1 -11,4 -1,2 -2,3 -3,5 -1,2 -1,4 -1,6l0 46c0,4 1,8 4,11 2,1 3,2 5,3 2,1 4,1 6,1l15 0c5,0 8,-1 11,-4 3,-3 5,-7 5,-11zm-25 -76l-34 -33c-2,-2 -3,-4 -3,-6 0,-2 1,-3 2,-5 2,-1 4,-2 6,-2l61 0c2,0 4,1 6,2 1,2 2,4 2,6 0,1 -1,3 -2,5 -1,1 -3,2 -6,2l-42 0 41 39 2 2c4,6 7,13 7,20l0 46c0,8 -3,15 -9,21 -6,6 -13,9 -22,9l-15 0c-8,0 -15,-3 -21,-8 -6,-6 -9,-14 -9,-22l0 -46c0,-8 3,-15 9,-21 6,-6 13,-9 21,-9l6 0zm146 73c0,9 -3,17 -9,23 -7,7 -15,10 -24,10l-9 0c-9,0 -17,-3 -24,-9 -6,-7 -10,-15 -10,-24l0 -40c0,-9 4,-16 10,-23 7,-7 15,-10 24,-10l9 0c9,0 17,3 23,9 7,7 10,15 10,24l0 40zm-15 0l0 -40c0,-5 -1,-9 -5,-13 -4,-3 -8,-5 -13,-5l-9 0c-5,0 -10,2 -13,5 -4,4 -6,8 -6,13l0 40c0,5 2,9 6,13 3,3 8,5 13,5l9 0c5,0 9,-2 13,-5 3,-3 5,-8 5,-13zm91 -58l-30 0 0 84c0,2 -1,4 -2,6 -2,1 -3,1 -6,1 -2,0 -3,0 -5,-2 -1,-1 -2,-3 -2,-5l0 -92c0,-5 2,-7 7,-7l69 0c8,0 15,3 21,9 6,6 9,13 9,21l0 69c0,2 0,4 -2,6 -1,1 -3,1 -5,1 -2,0 -4,0 -6,-2 -1,-1 -2,-3 -2,-5l0 -69c0,-4 -1,-8 -4,-11 -3,-3 -7,-4 -11,-4l-15 0 0 84c0,2 -1,4 -3,6 -1,1 -3,1 -5,1 -2,0 -4,0 -5,-2 -2,-1 -3,-3 -3,-5l0 -84zm183 84c0,2 -1,4 -2,6 -1,1 -3,1 -6,1 -2,0 -3,0 -5,-2 -1,-1 -2,-3 -2,-5l0 -92c0,-2 1,-4 2,-5 2,-2 3,-2 5,-2 2,0 4,0 6,2 1,1 2,3 2,5l0 92zm-76 -38l0 30 15 0c5,0 9,-1 11,-4 3,-4 4,-7 4,-11 0,-4 -1,-8 -3,-11 -2,-1 -3,-2 -5,-3 -2,-1 -4,-1 -7,-1l-15 0zm0 -16l15 0c10,0 17,4 23,10 5,6 8,13 8,21 0,8 -3,15 -8,21 -6,6 -13,9 -23,9l-23 0c-5,0 -7,-2 -7,-7l0 -92c0,-2 1,-4 2,-5 2,-2 3,-2 5,-2 2,0 4,0 6,2 1,1 2,3 2,5l0 38zm123 54l0 2 -8 30c-1,4 -3,6 -8,6 -2,0 -4,-1 -5,-2 -2,-1 -2,-3 -2,-6l0 -2 7 -29 0 -7c0,-2 1,-4 3,-6 1,-1 3,-2 5,-2 2,0 4,1 5,2 2,2 3,4 3,6l0 8zm-1926 251l-23 0c-8,0 -16,-3 -22,-9 -6,-6 -9,-13 -9,-21l0 -46c0,-9 3,-16 9,-22 6,-6 13,-9 22,-9l23 0c2,0 4,1 5,3 2,1 2,3 2,5 0,2 0,3 -2,5 -1,2 -3,2 -5,2l-23 0c-5,0 -8,2 -11,5 -2,1 -3,3 -3,5 -1,2 -2,4 -2,6l0 46c0,4 2,7 5,10 1,2 3,3 5,4 2,0 4,1 6,1l23 0c2,0 4,1 5,2 2,2 2,3 2,5 0,2 0,4 -2,5 -1,2 -3,3 -5,3zm114 -8c0,3 -1,5 -2,6 -2,1 -4,2 -6,2 -2,0 -4,-1 -5,-2 -2,-1 -2,-3 -2,-6l0 -84 -18 0 -28 87c-1,1 -2,3 -3,4 -1,0 -2,0 -4,1 -2,0 -4,-1 -6,-2 -1,-2 -2,-3 -2,-5l0 -3 30 -91c2,-4 4,-6 8,-6l30 0c5,0 8,3 8,8l0 91zm91 8l-30 0c-9,0 -16,-3 -22,-9 -6,-6 -9,-13 -9,-21l0 -69c0,-2 1,-4 2,-6 2,-1 4,-2 6,-2 2,0 3,1 5,2 2,2 2,3 2,6l0 69c0,4 2,7 5,11 1,1 3,2 5,3 2,0 4,1 6,1l30 0 0 -84c0,-2 1,-4 2,-6 2,-1 4,-2 6,-2 2,0 3,1 5,2 2,1 2,3 2,6l0 114c0,8 -3,16 -9,22 -5,6 -13,9 -21,9l-31 0c-1,0 -3,-1 -5,-3 -2,-1 -2,-3 -2,-5 0,-2 0,-4 2,-5 1,-2 3,-3 5,-3l31 0c4,0 8,-1 11,-4 3,-3 4,-6 4,-11l0 -15zm109 -61l28 -42c0,-1 1,-2 3,-3l1 -1 2 0c2,0 4,1 6,3 1,1 2,3 2,5 0,1 0,3 -1,4l-28 42 28 41 1 2 0 2c0,2 -1,4 -2,6 -2,1 -4,2 -6,2 -2,0 -4,-1 -6,-4l-28 -42 -4 0 0 38c0,3 -1,5 -2,6 -1,1 -3,2 -5,2 -2,0 -4,-1 -6,-2 -1,-1 -2,-3 -2,-6l0 -38 -3 0 -29 42c0,1 -1,2 -3,3l-3 1c-2,0 -3,-1 -5,-2 -2,-2 -3,-4 -3,-6 0,-1 1,-2 1,-4l28 -41 -28 -42 -1 -2 0 -2c0,-2 1,-4 2,-5 2,-2 4,-3 6,-3 3,0 5,1 6,4l29 42 3 0 0 -38c0,-2 1,-4 2,-6 2,-1 4,-2 6,-2 2,0 3,1 5,2 1,1 2,3 2,6l0 38 4 0zm135 31l0 -46c0,-5 -2,-8 -5,-11 -3,-3 -6,-5 -11,-5l-15 0c-4,0 -8,2 -11,5 -1,1 -2,3 -3,5 -1,2 -1,4 -1,6l0 46c0,4 1,7 4,10 2,2 3,3 5,4 2,0 4,1 6,1l15 0c5,0 8,-2 11,-4 3,-3 5,-7 5,-11zm-25 -77l-34 -32c-2,-2 -3,-4 -3,-7 0,-1 1,-3 2,-4 1,-2 4,-2 6,-2l61 0c2,0 4,0 6,2 1,2 2,3 2,5 0,2 -1,4 -2,5 -1,2 -3,3 -6,3l-42 0 41 38 2 3c4,6 7,12 7,20l0 46c0,8 -3,15 -9,21 -6,6 -13,9 -22,9l-15 0c-8,0 -15,-3 -21,-9 -6,-6 -9,-13 -9,-21l0 -46c0,-9 3,-16 9,-22 5,-6 13,-9 21,-9l6 0zm161 99c0,3 0,5 -2,6 -1,1 -3,2 -5,2 -2,0 -4,-1 -5,-2 -2,-1 -3,-3 -3,-6l0 -91c0,-2 1,-4 3,-6 1,-1 3,-2 5,-2 2,0 4,1 5,2 2,2 2,3 2,6l0 91zm-76 -38l0 31 16 0c4,0 8,-2 11,-5 2,-3 4,-7 4,-11 0,-4 -1,-7 -4,-10 -1,-2 -3,-3 -5,-4 -2,0 -4,-1 -6,-1l-16 0zm0 -15l16 0c9,0 17,3 22,9 5,6 8,13 8,21 0,9 -3,16 -8,21 -5,7 -13,10 -22,10l-23 0c-5,0 -8,-3 -8,-8l0 -91c0,-2 1,-4 2,-6 2,-1 4,-2 6,-2 2,0 3,1 5,2 2,1 2,3 2,6l0 38zm123 53l0 2 -8 31c-1,4 -3,5 -7,5 -2,0 -4,0 -6,-2 -1,-1 -2,-3 -2,-5l0 -2 8 -30 0 -6c0,-2 1,-4 2,-6 2,-1 3,-2 5,-2 2,0 4,1 6,2 1,1 2,3 2,6l0 7zm182 8l-31 0c-8,0 -15,-3 -21,-9 -6,-6 -9,-13 -9,-21l0 -69c0,-2 1,-4 2,-6 2,-1 3,-2 5,-2 2,0 4,1 6,2 1,2 2,3 2,6l0 69c0,4 1,7 4,11 2,1 4,2 5,3 3,0 5,1 6,1l31 0 0 -84c0,-2 1,-4 2,-6 2,-1 3,-2 5,-2 2,0 4,1 6,2 1,1 2,3 2,6l0 114c0,8 -3,16 -9,22 -6,6 -13,9 -21,9l-31 0c-2,0 -4,-1 -6,-3 -1,-1 -1,-3 -1,-5 0,-2 0,-4 1,-5 2,-2 4,-3 6,-3l31 0c4,0 8,-1 10,-4 3,-3 5,-6 5,-11l0 -15zm106 -61l0 -38c0,-2 1,-4 3,-6 1,-1 3,-2 5,-2 2,0 4,1 5,2 2,2 3,3 3,6l0 91c0,3 -1,5 -3,6 -1,1 -3,2 -5,2 -2,0 -4,-1 -5,-2 -2,-1 -3,-3 -3,-6l0 -38 -30 0c-8,0 -15,-3 -21,-9 -7,-6 -10,-13 -10,-21l0 -23c0,-2 1,-4 3,-6 1,-1 3,-2 5,-2 2,0 4,1 5,2 2,1 3,3 3,6l0 23c0,4 1,8 4,11 1,1 3,2 5,3 2,1 4,1 6,1l30 0zm61 0l46 0 0 -15c0,-4 -1,-8 -4,-11 -3,-3 -7,-5 -11,-5l-16 0c-4,0 -8,2 -11,5 -1,1 -2,3 -3,5 -1,2 -1,4 -1,6l0 15zm0 15l0 16c0,4 2,7 4,11 2,1 4,2 5,3 3,0 5,1 6,1l38 0c3,0 4,1 6,2 1,2 2,3 2,5 0,2 -1,4 -2,5 -1,2 -3,3 -6,3l-38 0c-8,0 -15,-3 -21,-9 -6,-6 -9,-13 -9,-21l0 -46c0,-8 3,-16 9,-22 6,-6 13,-9 21,-9l16 0c8,0 15,3 21,9 6,6 9,13 9,22l0 23c0,5 -2,7 -8,7l-53 0zm152 16l0 -46c0,-5 -1,-8 -4,-11 -3,-3 -6,-5 -11,-5l-15 0c-4,0 -8,2 -11,5 -1,1 -3,3 -3,5 -1,2 -1,4 -1,6l0 46c0,4 1,7 4,10 2,2 3,3 5,4 2,0 4,1 6,1l15 0c4,0 8,-2 11,-4 3,-3 4,-7 4,-11zm-24 -77l-34 -32c-2,-2 -3,-4 -3,-7 0,-1 1,-3 2,-4 1,-2 3,-2 6,-2l61 0c2,0 4,0 5,2 2,2 3,3 3,5 0,2 -1,4 -2,5 -2,2 -3,3 -6,3l-42 0 41 38 1 3c5,6 8,12 8,20l0 46c0,8 -3,15 -9,21 -6,6 -13,9 -22,9l-15 0c-8,0 -15,-3 -21,-9 -6,-6 -10,-13 -10,-21l0 -46c0,-9 3,-16 9,-22 6,-6 14,-9 22,-9l6 0z"/>
   <path class="fil32 str0" d="M7814 6324c0,3 0,5 -2,6 -1,1 -3,2 -5,2 -2,0 -4,-1 -6,-2 -1,-1 -2,-3 -2,-6l0 -91c0,-2 1,-4 2,-6 2,-1 4,-2 6,-2 2,0 3,1 5,2 2,2 2,3 2,6l0 91zm-76 -38l0 31 15 0c5,0 9,-2 12,-5 2,-3 4,-7 4,-11 0,-4 -2,-7 -4,-10 -1,-2 -3,-3 -5,-4 -2,0 -4,-1 -7,-1l-15 0zm0 -15l15 0c10,0 18,3 23,9 5,6 8,13 8,21 0,9 -3,16 -8,21 -5,7 -13,10 -23,10l-22 0c-5,0 -8,-3 -8,-8l0 -91c0,-2 1,-4 2,-6 2,-1 4,-2 6,-2 2,0 3,1 5,2 1,1 2,3 2,6l0 38z"/>
  </g>
  <g id="_137045890912">
   <path class="fil11" d="M6769 5004c-176,78 -229,119 -250,137 -32,29 -50,135 -69,225l398 0 399 0c-19,-90 -37,-196 -69,-225 -21,-18 -72,-58 -248,-136l-161 -1z"/>
   <path class="fil15" d="M6769 5004c-176,78 -229,119 -250,137 -32,29 -50,135 -69,225l398 0 399 0c-19,-90 -37,-196 -69,-225 -21,-18 -72,-58 -248,-136l-161 -1z"/>
   <path class="fil43" d="M6763 4850l0 131 0 65c47,55 124,57 171,0l0 -65 0 -131c0,-105 -171,-105 -171,0z"/>
   <path class="fil43" d="M6670 4728c15,-5 34,12 43,38 8,26 3,51 -12,56 -15,5 -34,-12 -43,-38 -8,-26 -3,-51 12,-56z"/>
   <path class="fil43" d="M7026 4728c-15,-5 -34,12 -43,38 -8,26 -3,51 12,56 15,5 34,-12 43,-38 8,-26 3,-51 -12,-56z"/>
   <path class="fil44" d="M6850 5005c0,0 -1,0 -2,0 -41,-2 -85,-54 -85,-54l0 -6 171 0 0 10c0,0 -43,50 -84,50z"/>
   <path class="fil43" d="M6849 4500c-263,0 -163,360 -145,388 18,30 102,97 145,97 42,0 126,-67 145,-97 17,-28 118,-388 -145,-388z"/>
   <path class="fil12" d="M6832 4577c-2,0 -3,-1 -5,-1 3,0 5,1 7,2 -1,-1 -1,-1 -2,-1zm135 -68c-89,-70 -226,-29 -268,30 -52,72 -33,183 -21,266l0 0c0,1 0,2 0,2 1,1 2,3 2,4 1,0 4,0 5,-1 0,0 1,-1 1,-1 0,-7 0,-22 0,-22 -1,-12 -4,-23 -5,-34 8,-52 32,-63 45,-126 3,-5 6,-9 9,-13 4,-4 7,-9 12,-13 2,-1 4,-3 6,-4 48,-18 97,3 142,22 17,7 20,-24 39,-25 8,-1 25,27 32,26 68,-8 39,94 50,142 -2,8 -3,16 -4,25 0,0 0,15 0,22 0,0 0,1 1,1 1,1 4,1 4,1 1,-1 2,-3 2,-4 1,-3 1,-5 1,-9 1,-4 2,-8 2,-13 14,-51 39,-254 -55,-276z"/>
   <path class="fil21" d="M6865 5161l-33 0 0 -1 32 0 1 1z"/>
   <path class="fil12" d="M6899 4533c0,0 -76,-53 -145,-25 -68,29 -128,40 -143,21 0,0 -43,89 37,135 79,47 169,10 195,-19 26,-29 69,-75 92,-66 23,10 -36,-46 -36,-46z"/>
   <g>
    <path class="fil9" d="M7806 4794l0 0 0 -1 0 1zm-33 0l0 0 1 -1 -1 1z"/>
    <path class="fil29" d="M7458 4568c16,-29 145,-56 198,50 53,106 26,143 55,181 29,37 -39,327 -201,326 -174,-1 -212,-278 -177,-334 34,-56 4,-223 125,-223z"/>
    <path class="fil26" d="M7585 5061c-1,2 -145,5 -147,7 -45,65 -143,77 -221,94 -78,17 -81,116 -81,181l756 0c0,-65 -2,-163 -81,-181 -79,-18 -183,-33 -226,-101z"/>
    <path class="fil5" d="M7590 5067l0 36 -37 240 -79 0 -36 -237 0 -38 0 0c2,-2 146,-5 147,-7 2,2 3,4 5,6z"/>
    <path class="fil45" d="M7438 4907l0 124 0 61c38,78 106,80 152,0l0 -61 0 -124c0,-101 -152,-101 -152,0z"/>
    <path class="fil45" d="M7714 4820c-15,-7 -37,10 -48,37 -11,28 -8,55 7,62 15,7 36,-10 48,-37 11,-27 8,-55 -7,-62z"/>
    <path class="fil45" d="M7314 4820c15,-7 37,10 48,37 11,28 8,55 -7,62 -15,7 -36,-10 -48,-37 -11,-27 -8,-55 7,-62z"/>
    <path class="fil46" d="M7513 5051c-27,0 -75,-47 -75,-47l0 -5 152 0 0 4c0,0 -49,48 -77,48z"/>
    <path class="fil45" d="M7514 5035c-47,0 -146,-78 -177,-189 -31,-112 27,-272 177,-272 150,0 208,160 177,272 -31,111 -130,189 -177,189z"/>
    <path class="fil29" d="M7545 4713c36,77 51,99 100,79 49,-20 40,37 31,77 43,-55 38,-107 24,-160 -14,-58 -89,-146 -158,-145 -38,-4 -96,1 -157,45 -106,77 -71,249 -42,270 -28,-160 40,-128 87,-211 16,-37 75,-39 115,45z"/>
    <path class="fil16" d="M7475 5343l-64 0 -4 0 -66 -60 67 -44 -82 -39 54 -84 21 -33 37 -16 0 39 36 237 1 0z"/>
    <path class="fil16" d="M7619 5236l67 45 -66 62 -4 0 -64 0 1 0 37 -240 0 -38 44 19 20 34 47 80 -82 38z"/>
   </g>
   <path class="fil30" d="M6931 4822l0 0c0,0 0,0 0,0l0 0z"/>
   <path class="fil12" d="M7196 4809l21 32c11,0 21,0 32,0l21 -32 -37 -40 -37 40z"/>
   <path class="fil12" d="M7217 4841l-30 206 91 0 -29 -206 -32 0z"/>
   <path class="fil30" d="M7233 4769l0 0c0,0 0,0 0,0l0 0z"/>
   <path class="fil24" d="M7249 4842l0 0 0 -1 0 1zm-32 0l0 0 0 -1 0 1z"/>
   <path class="fil9" d="M7249 4842l-32 0 0 -1 32 0 0 1z"/>
   <path class="fil11" d="M7141 5260c-176,77 -229,118 -250,136 -32,29 -50,135 -69,225l398 0 399 0c-19,-90 -37,-196 -69,-225 -21,-18 -72,-58 -248,-135l-161 -1z"/>
   <path class="fil12" d="M7141 5260c-176,77 -229,118 -250,136 -32,29 -50,135 -69,225l398 0 399 0c-19,-90 -37,-196 -69,-225 -21,-18 -72,-58 -248,-135l-161 -1z"/>
   <path class="fil47" d="M7135 5106l0 130 0 65c47,55 124,57 171,0l0 -65 0 -130c0,-106 -171,-106 -171,0z"/>
   <path class="fil47" d="M7042 4983c15,-5 34,12 43,38 9,26 3,51 -12,56 -15,5 -34,-12 -43,-38 -8,-26 -3,-51 12,-56z"/>
   <path class="fil47" d="M7398 4983c-15,-5 -34,12 -43,38 -8,26 -3,51 12,56 15,5 34,-12 43,-38 8,-26 3,-51 -12,-56z"/>
   <path class="fil48" d="M7221 5343c0,0 -119,29 -119,36 0,7 45,242 45,242l162 0 19 -241 -107 -37z"/>
   <path class="fil49" d="M7135 5262l0 39 37 320 -64 0 -70 -143 67 -44 -82 -39 75 -116 37 -17z"/>
   <path class="fil49" d="M7306 5262l0 39 -38 320 64 0 71 -143 -68 -44 82 -39 -67 -113 -44 -20z"/>
   <path class="fil50" d="M7184 5383l20 32c11,0 22,0 32,0l21 -32 -36 -40 -37 40z"/>
   <path class="fil50" d="M7204 5415l-29 206 91 0 -30 -206 -32 0z"/>
   <path class="fil5" d="M7135 5236l-8 29 21 152 73 -74 -86 -107z"/>
   <path class="fil51" d="M7222 5260c0,0 -1,0 -2,0 -41,-2 -85,-54 -85,-54l0 -6 171 0 0 10c0,0 -43,50 -84,50z"/>
   <path class="fil47" d="M7221 4755c-263,0 -163,361 -145,388 18,31 102,98 145,98 42,0 126,-67 145,-98 17,-27 118,-388 -145,-388z"/>
   <path class="fil42" d="M7204 4832c-2,0 -3,0 -5,-1 3,1 5,1 7,2 -1,0 -1,0 -2,-1zm135 -68c-89,-70 -226,-28 -268,30 -52,73 -33,183 -21,267l0 -1c0,1 0,2 0,3 1,0 2,2 2,3 1,1 4,0 5,-1 1,0 1,0 1,-1 0,-7 0,-22 0,-22 -1,-11 -4,-22 -5,-34 8,-52 33,-63 45,-126 3,-4 6,-9 9,-13 4,-4 7,-9 12,-12 2,-2 4,-3 6,-5 48,-17 97,4 142,22 17,7 37,15 56,14 8,-1 14,-6 15,-13 21,65 39,95 50,142 -2,8 -3,17 -4,25 0,0 0,15 0,22 0,1 0,1 1,1 1,1 4,2 4,1 1,-1 2,-3 2,-3 1,-3 1,-6 1,-9 1,-4 2,-9 2,-13 14,-52 39,-255 -55,-277z"/>
   <path class="fil5" d="M7306 5236l6 29 -20 153 -71 -75 85 -107z"/>
   <path class="fil52" d="M7221 5343l0 0 -86 -107 0 -2 86 106 85 -106 0 2 -85 107z"/>
   <path class="fil22" d="M7237 5416l0 0 -1 -1 1 1zm-33 0l0 0 0 -1 0 1z"/>
   <path class="fil23" d="M7237 5416l-33 0 0 -1 32 0 1 1z"/>
   <path class="fil20" d="M6900 5292l0 0 0 -1 0 1zm-33 0l0 0 0 -1 0 1z"/>
  </g>
  <path class="fil32 str0" d="M3634 5731l-31 0c-2,0 -4,-1 -5,-2 -1,-2 -2,-4 -2,-6 0,-1 1,-3 2,-5 1,-1 3,-2 5,-2l77 0c2,0 3,1 5,2 1,2 2,4 2,5 0,2 0,4 -2,6 -1,1 -3,2 -5,2l-31 0 0 130c0,2 -1,4 -2,5 -1,2 -3,2 -5,2 -2,0 -4,0 -6,-2 -1,-1 -2,-3 -2,-5l0 -130zm175 130c0,2 -1,4 -2,5 -2,2 -3,2 -6,2 -2,0 -3,0 -5,-2 -1,-1 -2,-3 -2,-5l0 -108 -62 111c-1,2 -2,3 -3,4l-2 1c-1,0 -1,0 -2,0 -2,0 -4,0 -5,-2 -2,-1 -2,-4 -2,-6l0 -137c0,-2 0,-4 2,-6 1,-1 3,-2 5,-2 2,0 4,1 5,2 2,1 3,3 3,6l0 107 62 -111c0,-1 1,-2 3,-4 1,-1 3,-1 4,-1 2,0 3,1 5,2 1,2 2,4 2,7l0 137zm46 -79l64 -64c1,-1 3,-2 5,-2 2,0 4,1 5,2 2,2 3,4 3,6 0,1 -1,3 -3,5l-45 45 47 83 1 4c0,2 -1,3 -3,5 -1,1 -3,2 -5,2 -3,0 -5,-1 -7,-4l-44 -79 -18 18 0 58c0,2 -1,4 -3,5 -1,2 -3,2 -5,2 -2,0 -4,0 -5,-2 -2,-1 -3,-3 -3,-5l0 -138c0,-2 1,-3 3,-5 1,-1 3,-2 5,-2 2,0 4,0 5,2 2,1 3,3 3,5l0 59zm-609 322c0,3 -1,4 -2,6 -2,1 -3,2 -6,2 -2,0 -3,-1 -5,-2 -2,-1 -2,-3 -2,-6l0 -68c0,-5 -2,-8 -5,-11 -2,-3 -6,-5 -11,-5l-30 0 0 84c0,3 -1,4 -2,6 -2,1 -3,2 -6,2 -2,0 -3,-1 -5,-2 -2,-1 -2,-3 -2,-6l0 -91c0,-5 2,-8 7,-8l38 0c9,0 16,3 22,9 6,6 9,13 9,22l0 68zm45 -7l31 0c4,0 8,-2 11,-5 3,-2 4,-6 4,-11l0 -45c0,-5 -1,-8 -4,-11 -3,-3 -7,-5 -11,-5l-31 0 0 77zm0 15l0 38c0,2 0,4 -2,5 -1,2 -3,2 -5,2 -2,0 -4,0 -5,-1 -2,-2 -3,-4 -3,-6l0 -137c0,-5 3,-8 8,-8l38 0c8,0 15,3 21,9 6,6 9,13 9,22l0 45c0,9 -3,16 -9,22 -5,6 -13,9 -21,9l-31 0zm107 -61l46 0 0 -15c0,-5 -2,-8 -5,-11 -2,-3 -6,-5 -10,-5l-16 0c-4,0 -8,2 -11,5 -1,1 -2,3 -3,5 -1,2 -1,4 -1,6l0 15zm0 15l0 15c0,5 1,8 4,11 2,2 3,3 5,4 2,0 4,1 6,1l38 0c2,0 4,0 6,2 1,2 2,3 2,5 0,2 -1,4 -2,5 -1,2 -3,3 -6,3l-38 0c-8,0 -15,-3 -21,-9 -6,-6 -9,-13 -9,-22l0 -45c0,-9 3,-16 9,-22 5,-6 13,-9 21,-9l15 0c9,0 16,3 22,9 6,6 9,13 9,22l0 23c0,5 -3,7 -8,7l-53 0zm152 -46l-30 0c-5,0 -8,2 -11,5 -2,1 -3,3 -3,5 -1,1 -2,3 -2,6l0 45c0,5 2,8 5,11 1,2 3,3 5,4 2,0 4,1 6,1l15 0c4,0 8,-2 11,-5 3,-2 4,-6 4,-11l0 -61zm0 -15l0 -15c0,-4 -1,-8 -4,-11 -3,-3 -6,-4 -11,-4l-30 0c-3,0 -5,-1 -6,-2 -1,-2 -2,-4 -2,-6 0,-2 1,-3 2,-5 1,-2 3,-2 6,-2l30 0c9,0 16,2 22,8 6,6 8,14 8,22l0 91c0,9 -2,16 -8,22 -6,6 -14,9 -22,9l-15 0c-8,0 -16,-3 -22,-9 -6,-6 -9,-13 -9,-22l0 -45c0,-9 3,-16 9,-22 6,-6 13,-9 22,-9l30 0zm137 99c0,3 -1,4 -2,6 -1,1 -3,2 -5,2 -2,0 -4,-1 -6,-2 -1,-1 -2,-3 -2,-6l0 -91c0,-2 1,-4 2,-6 2,-1 4,-2 6,-2 2,0 3,1 5,2 1,1 2,3 2,6l0 91zm-76 -38l0 31 15 0c5,0 9,-2 11,-5 3,-3 5,-7 5,-11 0,-4 -2,-8 -4,-10 -1,-2 -3,-3 -5,-4 -2,-1 -4,-1 -7,-1l-15 0zm0 -15l15 0c10,0 17,3 23,9 5,6 8,13 8,21 0,8 -3,15 -8,21 -6,7 -13,10 -23,10l-23 0c-5,0 -7,-3 -7,-8l0 -91c0,-2 1,-4 2,-6 2,-1 3,-2 5,-2 2,0 4,1 6,2 1,1 2,3 2,6l0 38zm168 -31l-31 0c-4,0 -8,2 -11,5 -1,1 -2,3 -3,5 -1,1 -1,3 -1,6l0 45c0,5 1,8 4,11 2,2 3,3 5,4 2,0 4,1 6,1l15 0c5,0 8,-2 11,-5 3,-2 5,-6 5,-11l0 -61zm0 -15l0 -15c0,-4 -2,-8 -5,-11 -3,-3 -6,-4 -11,-4l-30 0c-2,0 -4,-1 -6,-2 -1,-2 -2,-4 -2,-6 0,-2 1,-3 2,-5 1,-2 3,-2 6,-2l30 0c9,0 16,2 22,8 6,6 9,14 9,22l0 91c0,9 -3,16 -9,22 -6,6 -13,9 -22,9l-15 0c-8,0 -15,-3 -21,-9 -6,-6 -9,-13 -9,-22l0 -45c0,-9 3,-16 9,-22 5,-6 13,-9 21,-9l31 0zm106 107l-30 0c-9,0 -16,-3 -22,-9 -6,-6 -9,-13 -9,-22l0 -68c0,-2 1,-4 2,-6 2,-1 4,-2 6,-2 2,0 3,1 5,2 2,1 2,3 2,6l0 68c0,5 2,8 5,11 1,2 3,3 5,4 2,0 4,1 6,1l30 0 0 -84c0,-2 1,-4 2,-6 2,-1 4,-2 6,-2 2,0 3,1 5,2 2,1 2,3 2,6l0 114c0,8 -3,15 -9,21 -5,6 -13,9 -21,9l-31 0c-1,0 -3,0 -5,-2 -2,-1 -2,-3 -2,-5 0,-2 0,-4 2,-5 1,-2 3,-3 5,-3l31 0c4,0 8,-1 11,-4 3,-3 4,-7 4,-11l0 -15zm106 -15l31 0 0 -84c0,-2 1,-4 2,-6 2,-1 4,-2 6,-2 2,0 3,1 5,2 2,1 2,3 2,6l0 84 8 0c5,0 7,2 7,7l0 15c0,2 0,4 -2,6 -1,1 -3,2 -5,2 -2,0 -4,-1 -5,-2 -2,-1 -3,-3 -3,-6l0 -7 -12 0 -64 0c-8,0 -15,-3 -21,-9 -6,-6 -9,-13 -9,-22l0 -68c0,-2 0,-4 2,-6 1,-1 3,-2 5,-2 2,0 4,1 5,2 2,1 3,3 3,6l0 68c0,5 1,8 4,11 2,2 3,3 5,4 2,0 4,1 6,1l15 0 0 -84c0,-2 1,-4 3,-6 1,-1 3,-2 5,-2 2,0 4,1 5,2 2,1 2,3 2,6l0 84zm92 -46l46 0 0 -15c0,-5 -2,-8 -5,-11 -3,-3 -6,-5 -11,-5l-15 0c-4,0 -8,2 -11,5 -1,1 -2,3 -3,5 -1,2 -1,4 -1,6l0 15zm0 15l0 15c0,5 1,8 4,11 2,2 3,3 5,4 2,0 4,1 6,1l38 0c2,0 4,0 6,2 1,2 2,3 2,5 0,2 -1,4 -2,5 -1,2 -3,3 -6,3l-38 0c-8,0 -15,-3 -21,-9 -6,-6 -9,-13 -9,-22l0 -45c0,-9 3,-16 8,-22 6,-6 14,-9 22,-9l15 0c9,0 16,3 22,9 6,6 9,13 9,22l0 23c0,5 -3,7 -8,7l-53 0zm163 39c-4,2 -9,4 -15,5l-8 2 -9 0 -11 0 -9 -2c-5,-1 -10,-3 -14,-8 -3,-4 -5,-9 -5,-15 0,-3 1,-6 2,-9 1,-3 3,-6 6,-9l49 -33c2,-1 2,-3 2,-5 0,-3 -2,-6 -8,-7 -5,-2 -11,-3 -17,-3 -5,0 -9,0 -13,1 -4,1 -7,2 -10,5 -1,0 -3,1 -4,1 -2,0 -4,-1 -6,-2 -1,-2 -2,-4 -2,-6 0,-2 1,-4 3,-6 3,-2 8,-4 15,-6 3,0 6,-1 9,-1 3,-1 7,-1 10,-1 2,0 4,0 6,0 1,0 4,0 6,1 2,0 5,1 8,2 6,1 10,4 14,8 3,4 5,9 5,14 0,6 -3,12 -9,17l-48 33c-2,2 -3,4 -3,6 0,2 0,4 2,6 1,1 3,2 5,3l8 0 9 1c6,0 10,0 14,-1 2,-1 3,-1 5,-2 2,-1 4,-1 6,-3l2 0c0,0 1,-1 2,-1 2,0 4,1 5,3 2,1 2,3 2,5 0,3 -1,5 -4,7zm111 -27c0,9 -3,17 -10,24 -6,6 -14,10 -24,10l-9 0c-9,0 -17,-3 -23,-10 -7,-6 -10,-14 -10,-24l0 -39c0,-9 3,-17 10,-24 6,-7 14,-10 23,-10l9 0c9,0 17,3 24,10 7,6 10,14 10,24l0 39zm-15 0l0 -39c0,-5 -2,-10 -6,-13 -3,-4 -7,-6 -13,-6l-9 0c-5,0 -9,2 -13,6 -3,3 -5,8 -5,13l0 39c0,5 2,10 5,13 4,4 8,6 13,6l9 0c5,0 10,-2 13,-6 4,-3 6,-7 6,-13zm-883 277l-23 0c-8,0 -15,-3 -21,-8 -6,-6 -9,-13 -9,-22l0 -46c0,-8 3,-15 9,-21 6,-6 13,-9 21,-9l23 0c2,0 4,1 5,2 2,2 3,3 3,5 0,2 -1,4 -2,5 -2,2 -3,3 -6,3l-23 0c-4,0 -8,1 -11,4 -1,2 -2,3 -3,5 -1,2 -1,4 -1,6l0 46c0,4 1,8 4,11 2,1 3,2 5,3 2,1 4,1 6,1l23 0c2,0 4,1 5,3 2,1 3,3 3,5 0,2 -1,3 -2,5 -2,2 -3,2 -6,2zm114 -33c0,9 -3,17 -10,23 -6,7 -14,10 -23,10l-10 0c-9,0 -16,-3 -23,-9 -7,-7 -10,-15 -10,-24l0 -40c0,-9 3,-16 10,-23 6,-7 14,-10 23,-10l10 0c9,0 17,3 23,9 7,7 10,15 10,24l0 40zm-15 0l0 -40c0,-5 -2,-9 -5,-13 -4,-3 -8,-5 -13,-5l-10 0c-5,0 -9,2 -12,5 -4,4 -6,8 -6,13l0 40c0,5 2,9 5,13 4,3 8,5 13,5l10 0c5,0 9,-1 13,-5 3,-3 5,-8 5,-13zm99 33l-23 0c-8,0 -15,-3 -21,-8 -6,-6 -10,-13 -10,-22l0 -46c0,-8 3,-15 9,-21 6,-6 14,-9 22,-9l23 0c2,0 4,1 5,2 2,2 2,3 2,5 0,2 0,4 -1,5 -2,2 -4,3 -6,3l-23 0c-4,0 -8,1 -11,4 -1,2 -3,3 -3,5 -1,2 -1,4 -1,6l0 46c0,4 1,8 4,11 2,1 3,2 5,3 2,1 4,1 6,1l23 0c2,0 4,1 5,3 2,1 2,3 2,5 0,2 0,3 -1,5 -2,2 -4,2 -6,2zm83 -91l-30 0 0 84c0,2 -1,4 -2,6 -2,1 -3,1 -6,1 -2,0 -3,0 -5,-1 -1,-2 -2,-4 -2,-6l0 -92c0,-5 2,-7 7,-7l69 0c8,0 15,3 21,9 6,6 9,13 9,21l0 69c0,2 0,4 -2,6 -1,1 -3,1 -5,1 -2,0 -4,0 -6,-1 -1,-2 -2,-4 -2,-6l0 -69c0,-4 -1,-8 -4,-11 -3,-3 -7,-4 -11,-4l-15 0 0 84c0,2 -1,4 -3,6 -1,1 -3,1 -5,1 -2,0 -4,0 -5,-1 -2,-2 -3,-4 -3,-6l0 -84zm153 61l0 -61 -31 0c-4,0 -8,1 -11,4 -1,2 -2,3 -3,5 -1,2 -1,4 -1,6l0 46c0,4 1,8 4,11 2,1 3,2 5,3 2,1 4,1 6,1l15 0c5,0 8,-1 11,-4 3,-3 5,-7 5,-11zm7 20c-2,3 -6,6 -10,8 -4,1 -8,2 -13,2l-15 0c-8,0 -15,-3 -21,-8 -6,-6 -9,-13 -9,-22l0 -46c0,-8 3,-15 9,-21 6,-6 13,-9 21,-9l38 0c5,0 8,2 8,7l0 69c0,3 1,6 3,9 2,3 4,5 7,7 4,1 5,3 5,7 0,2 -1,4 -2,5 -1,2 -3,2 -5,2 -1,0 -3,0 -4,0 -4,-2 -9,-5 -12,-10zm99 -20l0 -46c0,-4 -1,-8 -4,-11 -3,-2 -7,-4 -11,-4l-15 0c-5,0 -8,2 -11,4 -2,2 -3,4 -3,5 -1,2 -2,4 -2,6l0 46c0,4 2,8 5,11 1,1 3,2 5,3 2,1 4,1 6,1l15 0c4,0 8,-1 11,-4 3,-3 4,-6 4,-11zm-46 -71l7 -4 9 -6c3,-2 5,-4 6,-6 2,-2 3,-5 3,-7 0,-4 -1,-7 -4,-9 -2,-2 -5,-3 -8,-3 -4,0 -7,1 -9,3 -2,2 -4,5 -4,9l0 23zm31 -5c10,0 17,3 23,9 5,5 7,13 7,21l0 46c0,8 -3,15 -8,21 -6,6 -14,9 -22,9l-15 0c-8,0 -16,-3 -22,-8 -6,-6 -9,-13 -9,-22l0 -94c0,-9 3,-16 9,-21 5,-5 11,-7 19,-7 7,0 13,2 19,7 5,5 8,12 8,20 0,5 -1,9 -2,12 -1,2 -4,5 -7,7zm122 76l0 -61 -31 0c-4,0 -8,1 -11,4 -1,2 -2,3 -3,5 -1,2 -1,4 -1,6l0 46c0,4 1,8 4,11 2,1 4,2 5,3 2,1 4,1 6,1l16 0c4,0 7,-1 10,-4 3,-3 5,-7 5,-11zm7 20c-2,3 -6,6 -10,8 -4,1 -8,2 -12,2l-16 0c-8,0 -15,-3 -21,-8 -6,-6 -9,-13 -9,-22l0 -46c0,-8 3,-15 9,-21 6,-6 13,-9 21,-9l38 0c5,0 8,2 8,7l0 69c0,3 1,6 3,9 2,3 4,5 7,7 4,1 5,3 5,7 0,2 0,4 -2,5 -1,2 -3,2 -5,2 -1,0 -2,0 -3,0 -5,-2 -10,-5 -13,-10z"/>
  <g id="_137045891584">
   <path class="fil32 str0" d="M3640 3667l-30 0c-3,0 -4,0 -6,-2 -1,-1 -2,-3 -2,-5 0,-2 1,-4 2,-5 1,-2 3,-3 6,-3l76 0c2,0 4,1 5,3 2,1 2,3 2,5 0,2 0,3 -1,5 -2,2 -4,2 -6,2l-31 0 0 130c0,2 0,4 -2,6 -1,1 -3,2 -5,2 -2,0 -4,-1 -6,-2 -1,-2 -2,-4 -2,-6l0 -130zm99 46l38 0c2,0 4,1 6,3 1,1 2,3 2,5 0,2 -1,3 -2,5 -1,2 -3,2 -6,2l-38 0 0 61 54 0c2,0 3,1 5,3 1,1 2,3 2,5 0,2 0,3 -2,5 -1,2 -3,3 -5,3l-62 0c-5,0 -7,-3 -7,-8l0 -137c0,-5 2,-8 7,-8l62 0c2,0 3,1 5,3 1,1 2,3 2,5 0,2 0,3 -2,5 -1,2 -3,2 -5,2l-54 0 0 46zm107 15l45 0c5,0 8,-1 11,-4 3,-3 5,-6 5,-11l0 -30c0,-5 -2,-8 -5,-11 -3,-3 -6,-5 -11,-5l-45 0 0 61zm0 16l0 53c0,2 -1,4 -3,6 -1,1 -3,2 -5,2 -2,0 -4,-1 -5,-2 -2,-2 -3,-4 -3,-6l0 -137c0,-5 3,-8 8,-8l53 0c9,0 16,3 22,9 6,6 9,13 9,22l0 30c0,8 -3,16 -9,22 -6,5 -13,9 -22,9l-45 0zm121 -16l46 0c4,0 8,-1 11,-4 3,-3 4,-6 4,-11l0 -30c0,-5 -1,-8 -4,-11 -3,-3 -7,-5 -11,-5l-46 0 0 61zm0 16l0 53c0,2 0,4 -2,6 -1,1 -3,2 -5,2 -2,0 -4,-1 -6,-2 -1,-2 -2,-4 -2,-6l0 -137c0,-5 3,-8 8,-8l53 0c8,0 16,3 22,9 5,6 8,13 8,22l0 30c0,8 -3,16 -8,22 -6,5 -14,9 -22,9l-46 0zm198 53c0,2 -1,4 -2,6 -1,1 -3,2 -5,2 -2,0 -4,-1 -6,-2 -1,-2 -2,-4 -2,-6l0 -108 -62 112c-1,1 -2,2 -3,3l-2 1c0,0 -1,1 -2,1 -2,0 -3,-1 -5,-2 -1,-2 -2,-4 -2,-7l0 -137c0,-2 1,-4 2,-6 2,-1 3,-2 5,-2 2,0 4,1 6,2 1,1 2,3 2,6l0 108 62 -112c1,-1 2,-2 3,-3 1,-1 3,-2 4,-2 2,0 3,1 5,3 1,1 2,3 2,6l0 137zm69 -130l-31 0c-2,0 -4,0 -5,-2 -2,-1 -2,-3 -2,-5 0,-2 0,-4 2,-5 1,-2 3,-3 5,-3l76 0c2,0 4,1 6,3 1,1 2,3 2,5 0,2 -1,3 -2,5 -1,2 -3,2 -6,2l-30 0 0 130c0,2 -1,4 -2,6 -2,1 -3,2 -6,2 -2,0 -3,-1 -5,-2 -2,-2 -2,-4 -2,-6l0 -130zm167 107c0,8 -3,16 -9,22 -6,6 -13,9 -21,9l-31 0c-8,0 -15,-3 -21,-9 -6,-6 -9,-13 -9,-22l0 -91c0,-9 3,-16 9,-22 5,-6 13,-9 21,-9l31 0c8,0 15,3 21,9 6,6 9,13 9,22l0 91zm-15 0l0 -91c0,-5 -2,-8 -4,-11 -3,-3 -7,-5 -11,-5l-31 0c-4,0 -8,2 -11,5 -1,1 -2,3 -3,5 -1,2 -1,3 -1,6l0 91c0,4 1,8 4,11 2,1 3,2 5,3 2,1 4,1 6,1l31 0c4,0 7,-1 10,-4 3,-3 5,-6 5,-11zm73 -46l45 0c5,0 8,-1 11,-4 3,-3 5,-6 5,-11l0 -30c0,-5 -2,-8 -5,-11 -2,-3 -6,-5 -11,-5l-45 0 0 61zm0 16l0 53c0,2 -1,4 -2,6 -2,1 -4,2 -6,2 -2,0 -4,-1 -5,-2 -2,-2 -2,-4 -2,-6l0 -137c0,-5 2,-8 7,-8l53 0c9,0 16,3 22,9 6,6 9,13 9,22l0 30c0,8 -3,16 -9,22 -6,5 -13,9 -22,9l-45 0zm198 53c0,2 -1,4 -3,6 -1,1 -3,2 -5,2 -2,0 -4,-1 -5,-2 -2,-2 -3,-4 -3,-6l0 -108 -61 112c-1,1 -2,2 -4,3l-1 1c-1,0 -2,1 -3,1 -1,0 -3,-1 -5,-2 -1,-2 -2,-4 -2,-7l0 -137c0,-2 1,-4 3,-6 1,-1 3,-2 5,-2 2,0 4,1 5,2 2,1 2,3 2,6l0 108 62 -112c1,-1 2,-2 4,-3 1,-1 2,-2 4,-2 1,0 3,1 4,3 2,1 3,3 3,6l0 137zm57 -31l-11 33c-1,2 -2,3 -3,4 -1,1 -2,1 -4,2 -2,0 -4,-1 -5,-3 -2,-1 -3,-3 -3,-5l1 -3 45 -137c2,-4 4,-6 8,-6 3,0 5,2 7,6l45 137 1 3c0,2 -1,4 -3,5 -1,2 -3,3 -5,3 -1,0 -2,-1 -3,-1 -2,-1 -3,-2 -4,-5l-11 -33 -55 0zm50 -15l-22 -67 -23 67 45 0zm152 46c0,2 -1,4 -3,6 -1,1 -3,2 -5,2 -2,0 -4,-1 -5,-2 -2,-2 -3,-4 -3,-6l0 -130 -24 0 -37 132c0,1 -1,3 -2,4 -2,1 -3,2 -5,2 -2,0 -4,-1 -6,-2 -1,-2 -2,-3 -2,-6 0,-1 0,-2 0,-2l39 -137c1,-4 3,-6 7,-6l38 0c5,0 8,3 8,8l0 137zm45 -69l46 0c4,0 8,2 11,5 2,3 4,6 4,11l0 30c0,4 -2,8 -4,11 -2,1 -4,3 -5,3 -2,1 -4,1 -6,1l-46 0 0 -61zm0 -15l0 -53c0,-2 -1,-4 -2,-5 -2,-2 -4,-3 -6,-3 -1,0 -3,1 -5,2 -1,1 -2,3 -2,6l0 137c0,5 2,8 7,8l54 0c8,0 15,-3 21,-9 6,-6 9,-13 9,-22l0 -30c0,-9 -3,-16 -9,-22 -6,-6 -13,-9 -21,-9l-46 0zm183 0l0 -53c0,-2 0,-4 2,-6 1,-1 3,-2 5,-2 2,0 4,1 5,2 2,1 3,3 3,6l0 137c0,2 -1,4 -3,5 -1,2 -3,3 -5,3 -2,0 -3,-1 -5,-2 -2,-2 -2,-3 -2,-6l0 -69 -61 0 0 69c0,2 -1,4 -2,6 -2,1 -4,2 -6,2 -2,0 -4,-1 -5,-2 -2,-2 -2,-4 -2,-6l0 -137c0,-2 0,-4 2,-6 1,-1 3,-2 5,-2 2,0 4,1 5,2 2,1 3,3 3,6l0 53 61 0zm72 53l-11 33c-1,2 -2,3 -3,4 -1,1 -2,1 -4,2 -2,0 -4,-1 -5,-3 -2,-1 -3,-3 -3,-5l1 -3 46 -137c1,-4 3,-6 7,-6 3,0 5,2 7,6l45 137 1 3c0,2 -1,4 -3,5 -1,2 -3,3 -5,3 -1,0 -2,-1 -3,-1 -2,-1 -3,-2 -4,-5l-11 -33 -55 0zm50 -15l-22 -67 -23 67 45 0zm136 -23l0 -61 -45 0c-5,0 -8,2 -11,5 -2,1 -3,3 -4,5 0,2 -1,3 -1,6l0 30c0,4 2,8 5,11 1,1 3,2 5,3 2,1 4,1 6,1l45 0zm-26 16l-36 57c-1,2 -3,4 -6,4 -2,0 -4,-1 -5,-3 -2,-1 -3,-3 -3,-5 0,-2 1,-3 1,-4l31 -49 -1 0c-9,0 -16,-3 -22,-9 -6,-6 -9,-13 -9,-22l0 -30c0,-9 3,-16 9,-22 6,-6 13,-9 22,-9l53 0c5,0 8,3 8,8l0 137c0,2 -1,4 -3,6 -1,1 -3,2 -5,2 -2,0 -4,-1 -5,-2 -2,-2 -3,-4 -3,-6l0 -53 -26 0zm255 53c0,2 -1,4 -3,6 -1,1 -3,2 -5,2 -2,0 -4,-1 -5,-2 -2,-2 -3,-4 -3,-6l0 -108 -61 112c-1,1 -2,2 -4,3l-1 1c-1,0 -2,1 -3,1 -1,0 -3,-1 -5,-2 -1,-2 -2,-4 -2,-7l0 -137c0,-2 1,-4 3,-6 1,-1 3,-2 5,-2 2,0 4,1 5,2 2,1 2,3 2,6l0 108 62 -112c1,-1 2,-2 3,-3 2,-1 3,-2 5,-2 1,0 3,1 4,3 2,1 3,3 3,6l0 137zm76 -69l-23 0c-2,0 -4,0 -6,-2 -1,-1 -2,-3 -2,-5 0,-2 1,-4 2,-5 2,-2 4,-3 6,-3l23 0c4,0 8,-1 11,-4 3,-3 4,-7 4,-11l0 -15c0,-5 -1,-8 -4,-11 -3,-3 -7,-5 -11,-5l-15 0c-4,0 -7,1 -9,3 -3,2 -5,4 -6,8 0,1 -1,2 -2,3 -1,1 -2,2 -2,2l-3 0c-2,0 -4,0 -5,-2 -2,-1 -3,-3 -3,-5l1 -3c2,-6 5,-11 11,-15 5,-4 11,-6 18,-6l15 0c8,0 15,3 21,9 6,6 9,13 9,22l0 15c0,4 -1,9 -2,13 -2,4 -5,7 -8,10 7,6 10,13 10,23l0 30c0,8 -3,16 -9,22 -6,6 -13,9 -21,9l-15 0c-7,0 -13,-2 -18,-6 -5,-4 -9,-9 -11,-15l-1 -3c0,-2 1,-4 3,-5 1,-2 3,-3 5,-3 3,0 5,2 7,5 1,3 3,6 6,9 3,1 6,2 9,2l15 0c4,0 8,-1 11,-4 3,-3 4,-6 4,-11l0 -30c0,-5 -1,-8 -3,-11 -3,-3 -7,-5 -12,-5zm76 0l0 61 45 0c5,0 8,-1 11,-4 3,-3 5,-6 5,-11l0 -30c0,-5 -2,-8 -5,-11 -2,-3 -6,-5 -11,-5l-45 0zm0 -15l45 0c9,0 16,3 22,9 6,6 9,13 9,22l0 30c0,8 -3,16 -9,22 -6,6 -13,9 -22,9l-53 0c-5,0 -7,-3 -7,-8l0 -137c0,-5 2,-8 7,-8l61 0c2,0 4,1 5,3 2,1 3,3 3,5 0,2 -1,3 -2,5 -1,2 -3,2 -6,2l-53 0 0 46zm198 84c0,2 -1,4 -3,6 -1,1 -3,2 -5,2 -2,0 -4,-1 -5,-2 -2,-2 -3,-4 -3,-6l0 -108 -61 112c-1,1 -2,2 -4,3l-1 1c-1,0 -2,1 -3,1 -1,0 -3,-1 -5,-2 -1,-2 -2,-4 -2,-7l0 -137c0,-2 1,-4 3,-6 1,-1 3,-2 5,-2 2,0 4,1 5,2 2,1 2,3 2,6l0 108 62 -112c1,-1 2,-2 4,-3 1,-1 2,-2 4,-2 1,0 3,1 4,3 2,1 3,3 3,6l0 137zm45 -69l46 0c4,0 8,-1 11,-4 3,-3 4,-6 4,-11l0 -30c0,-5 -1,-8 -4,-11 -3,-3 -7,-5 -11,-5l-46 0 0 61zm0 16l0 53c0,2 0,4 -2,6 -1,1 -3,2 -5,2 -2,0 -4,-1 -6,-2 -1,-2 -2,-4 -2,-6l0 -137c0,-5 3,-8 8,-8l53 0c8,0 16,3 21,9 6,6 9,13 9,22l0 30c0,8 -3,16 -9,22 -6,5 -13,9 -21,9l-46 0zm118 22l-11 33c0,2 -1,3 -2,4 -1,1 -3,1 -5,2 -2,0 -3,-1 -5,-3 -2,-1 -2,-3 -2,-5l0 -3 46 -137c1,-4 4,-6 7,-6 3,0 6,2 7,6l46 137 0 3c0,2 -1,4 -2,5 -2,2 -4,3 -5,3 -2,0 -3,-1 -4,-1 -1,-1 -2,-2 -3,-5l-11 -33 -56 0zm50 -15l-22 -67 -22 67 44 0zm68 -84l-30 0c-3,0 -4,0 -6,-2 -1,-1 -2,-3 -2,-5 0,-2 1,-4 2,-5 1,-2 3,-3 6,-3l76 0c2,0 4,1 5,3 2,1 2,3 2,5 0,2 0,3 -1,5 -2,2 -4,2 -6,2l-31 0 0 130c0,2 0,4 -2,6 -1,1 -3,2 -5,2 -2,0 -4,-1 -6,-2 -1,-2 -2,-4 -2,-6l0 -130zm99 46l38 0c2,0 4,1 6,3 1,1 2,3 2,5 0,2 -1,3 -2,5 -1,2 -3,2 -6,2l-38 0 0 61 54 0c2,0 3,1 5,3 1,1 2,3 2,5 0,2 0,3 -2,5 -1,2 -3,3 -5,3l-61 0c-6,0 -8,-3 -8,-8l0 -137c0,-5 2,-8 8,-8l61 0c2,0 3,1 5,3 1,1 2,3 2,5 0,2 0,3 -2,5 -1,2 -3,2 -5,2l-54 0 0 46zm183 84c0,2 -1,4 -2,6 -2,1 -3,2 -6,2 -2,0 -3,-1 -5,-2 -1,-2 -2,-4 -2,-6l0 -130 -25 0 -37 132c0,1 -1,3 -2,4 -2,1 -3,2 -5,2 -2,0 -4,-1 -5,-2 -2,-2 -3,-3 -3,-6 0,-1 1,-2 1,-2l38 -137c1,-4 3,-6 7,-6l38 0c5,0 8,3 8,8l0 137zm45 -69l46 0c4,0 8,2 11,5 3,3 4,6 4,11l0 30c0,4 -1,8 -4,11 -2,1 -3,3 -5,3 -2,1 -4,1 -6,1l-46 0 0 -61zm0 -15l0 -53c0,-2 0,-4 -2,-5 -2,-2 -3,-3 -5,-3 -2,0 -4,1 -5,2 -2,1 -3,3 -3,6l0 137c0,5 3,8 8,8l53 0c8,0 15,-3 21,-9 6,-6 9,-13 9,-22l0 -30c0,-9 -3,-16 -8,-22 -6,-6 -14,-9 -22,-9l-46 0zm183 0l0 -53c0,-2 1,-4 2,-6 2,-1 4,-2 6,-2 2,0 3,1 5,2 1,1 2,3 2,6l0 137c0,2 -1,4 -2,5 -2,2 -4,3 -5,3 -2,0 -4,-1 -6,-2 -1,-2 -2,-3 -2,-6l0 -69 -61 0 0 69c0,2 -1,4 -2,6 -1,1 -3,2 -6,2 -2,0 -3,-1 -5,-2 -1,-2 -2,-4 -2,-6l0 -137c0,-2 1,-4 2,-6 2,-1 3,-2 5,-2 2,0 4,1 6,2 1,1 2,3 2,6l0 53 61 0zm72 53l-11 33c0,2 -1,3 -2,4 -1,1 -3,1 -5,2 -2,0 -3,-1 -5,-3 -2,-1 -2,-3 -2,-5l0 -3 46 -137c1,-4 4,-6 7,-6 3,0 6,2 7,6l46 137 0 3c0,2 0,4 -2,5 -2,2 -4,3 -5,3 -1,0 -3,-1 -4,-1 -1,-1 -2,-2 -3,-5l-11 -33 -56 0zm51 -15l-23 -67 -22 67 45 0zm136 -23l0 -61 -46 0c-4,0 -8,2 -11,5 -1,1 -2,3 -3,5 -1,2 -1,3 -1,6l0 30c0,4 1,8 4,11 2,1 3,2 5,3 2,1 4,1 6,1l46 0zm-26 16l-36 57c-2,2 -4,4 -6,4 -2,0 -4,-1 -6,-3 -2,-1 -2,-3 -2,-5 0,-2 0,-3 1,-4l31 -49 -2 0c-8,0 -15,-3 -21,-9 -6,-6 -9,-13 -9,-22l0 -30c0,-9 3,-16 8,-22 6,-6 14,-9 22,-9l53 0c5,0 8,3 8,8l0 137c0,2 -1,4 -2,6 -2,1 -3,2 -6,2 -2,0 -3,-1 -5,-2 -1,-2 -2,-4 -2,-6l0 -53 -26 0zm178 -26l64 -64c2,-1 3,-2 5,-2 2,0 4,1 5,3 2,1 3,3 3,5 0,1 -1,3 -2,5l-46 45 47 83 1 4c0,2 -1,4 -2,5 -2,2 -4,3 -6,3 -2,0 -4,-2 -6,-5l-45 -79 -18 18 0 58c0,2 -1,4 -2,6 -2,1 -4,2 -6,2 -2,0 -4,-1 -5,-2 -2,-2 -2,-4 -2,-6l0 -137c0,-2 0,-4 2,-6 2,-1 3,-2 5,-2 2,0 4,1 6,2 1,1 2,3 2,6l0 58zm190 56c0,8 -3,16 -9,22 -6,6 -13,9 -21,9l-31 0c-8,0 -15,-3 -21,-9 -6,-6 -9,-13 -9,-22l0 -91c0,-9 3,-16 9,-22 5,-6 13,-9 21,-9l31 0c8,0 15,3 21,9 6,6 9,13 9,22l0 91zm-15 0l0 -91c0,-5 -2,-8 -4,-11 -3,-3 -7,-5 -11,-5l-31 0c-4,0 -8,2 -11,5 -1,1 -2,3 -3,5 -1,2 -1,3 -1,6l0 91c0,4 1,8 4,11 2,1 3,2 5,3 2,1 4,1 6,1l31 0c4,0 7,-1 10,-4 3,-3 5,-6 5,-11zm164 23c0,2 0,4 -2,6 -1,1 -3,2 -5,2 -2,0 -4,-1 -5,-2 -2,-2 -3,-4 -3,-6l0 -109 -31 53c-2,3 -4,5 -7,5 -2,0 -4,-2 -7,-5l-31 -53 0 109c0,2 -1,4 -2,6 -2,1 -4,2 -6,2 -2,0 -4,-1 -5,-2 -2,-2 -2,-4 -2,-6l0 -136c0,-3 0,-5 2,-7 1,-1 3,-2 5,-2 1,0 2,0 3,1 1,1 3,2 4,4l39 65 39 -65c2,-4 4,-5 7,-5 2,0 4,1 5,2 2,2 2,4 2,7l0 136zm122 0c0,2 -1,4 -2,6 -2,1 -3,2 -6,2 -2,0 -3,-1 -5,-2 -2,-2 -2,-4 -2,-6l0 -108 -62 112c-1,1 -2,2 -3,3l-2 1c-1,0 -1,1 -2,1 -2,0 -4,-1 -5,-2 -2,-2 -2,-4 -2,-7l0 -137c0,-2 0,-4 2,-6 1,-1 3,-2 5,-2 2,0 4,1 5,2 2,1 3,3 3,6l0 108 62 -112c0,-1 1,-2 3,-3 1,-1 3,-2 4,-2 2,0 3,1 5,3 1,1 2,3 2,6l0 137zm99 8l-38 0c-8,0 -16,-3 -22,-9 -6,-6 -9,-13 -9,-22l0 -91c0,-9 3,-16 9,-22 6,-6 13,-9 22,-9l38 0c2,0 4,1 5,3 2,1 3,3 3,5 0,2 -1,3 -2,5 -2,2 -4,2 -6,2l-38 0c-5,0 -8,2 -11,5 -2,1 -3,3 -3,5 -1,2 -2,3 -2,6l0 91c0,4 2,8 5,11 1,1 3,2 5,3 2,1 4,1 6,1l38 0c2,0 4,1 5,3 2,1 3,3 3,5 0,2 -1,3 -2,5 -2,2 -4,3 -6,3z"/>
   <path class="fil32 str0" d="M7843 3805l-39 0c-8,0 -15,-3 -21,-9 -6,-6 -9,-13 -9,-22l0 -91c0,-9 3,-16 9,-22 6,-6 13,-9 21,-9l39 0c2,0 3,1 5,3 1,1 2,3 2,5 0,2 0,3 -2,5 -1,2 -3,2 -5,2l-39 0c-4,0 -8,2 -11,5 -1,1 -2,3 -3,5 0,2 -1,3 -1,6l0 91c0,4 2,8 4,11 2,1 4,2 5,3 3,1 5,1 6,1l39 0c2,0 3,1 5,3 1,1 2,3 2,5 0,2 0,3 -2,5 -1,2 -3,3 -5,3zm129 -8c0,2 -1,4 -2,6 -2,1 -4,2 -6,2 -2,0 -4,-1 -5,-2 -2,-2 -2,-4 -2,-6l0 -108 -62 112c-1,1 -2,2 -3,3l-2 1c-1,0 -1,1 -2,1 -2,0 -4,-1 -5,-2 -2,-2 -2,-4 -2,-7l0 -137c0,-2 0,-4 2,-6 1,-1 3,-2 5,-2 2,0 4,1 5,2 2,1 3,3 3,6l0 108 61 -112c1,-1 2,-2 4,-3 1,-1 2,-2 4,-2 2,0 3,1 5,3 1,1 2,3 2,6l0 137zm106 -69l0 -61 -45 0c-5,0 -8,2 -11,5 -2,1 -3,3 -4,5 0,2 -1,3 -1,6l0 30c0,4 2,8 5,11 1,1 3,2 5,3 2,1 4,1 6,1l45 0zm-26 16l-36 57c-1,2 -3,4 -6,4 -2,0 -4,-1 -5,-3 -2,-1 -3,-3 -3,-5 0,-2 1,-3 1,-4l31 -49 -1 0c-9,0 -16,-3 -22,-9 -6,-6 -9,-13 -9,-22l0 -30c0,-9 3,-16 9,-22 6,-6 13,-9 22,-9l53 0c5,0 8,3 8,8l0 137c0,2 -1,4 -3,6 -1,1 -3,2 -5,2 -2,0 -4,-1 -5,-2 -2,-2 -3,-4 -3,-6l0 -53 -26 0z"/>
  </g>
  <path class="fil53" d="M6622 4199c-20,-22 -39,-45 -59,-67 -3,-3 -6,-7 -9,-10 23,25 45,51 68,77zm81 97c1,1 2,2 2,3 0,1 1,2 2,2 -3,0 -5,0 -7,0 -2,-1 -5,-5 -6,-7 -1,-1 -2,-2 -3,-3 3,3 5,6 8,8 2,2 5,-1 4,-3zm-75 -76c-8,-10 -17,-20 -25,-30 -9,-11 -17,-22 -26,-33 26,30 52,61 78,91 -9,-9 -18,-19 -27,-28zm25 37c9,11 19,21 28,32 1,0 1,0 1,1 -10,-11 -19,-22 -29,-33zm-84 -180c-17,-9 -34,-17 -51,-25 -12,-9 -25,-17 -38,-25 -4,-3 -8,2 -4,5 1,1 2,2 3,3 0,0 0,0 0,0 0,0 0,1 0,1 0,1 1,2 1,2 -1,0 -1,1 -1,1 -1,0 -1,0 -1,-1 0,0 0,0 0,0 -1,-4 -7,-3 -6,1 0,0 0,0 0,1 -1,1 0,2 0,3 1,5 2,11 4,16 1,11 3,21 5,31 3,20 8,39 14,58 1,3 7,2 6,-2 0,-2 -1,-3 -1,-5 0,0 0,0 0,0 0,1 1,2 1,3 2,3 8,2 7,-2 -1,-3 -2,-6 -3,-9 1,0 1,-1 1,-2 -1,-3 -2,-5 -2,-8 0,0 0,0 1,0 0,1 2,0 2,0 0,-1 1,-1 1,-1 1,-2 -2,-5 -4,-3 2,-2 -4,-17 -5,-20 -1,-4 -2,-8 -3,-11 -1,-9 -3,-18 -5,-27 4,6 8,12 13,18 57,84 123,163 194,235 3,3 7,0 4,-3 -2,-2 -5,-5 -7,-8 7,6 15,10 19,1 1,0 0,-2 0,-2 -67,-83 -137,-163 -209,-242 21,11 41,21 61,32 3,1 6,-2 5,-4 1,-2 1,-4 -1,-5 0,0 0,-1 0,-1 1,-1 1,-3 -1,-5z"/>
  <path class="fil53" d="M4859 2474c19,22 39,44 59,66 3,3 6,6 9,10 -23,-25 -46,-51 -68,-76zm-84 -96c-1,-1 -1,-2 -1,-3 -1,-1 -1,-1 -2,-2 2,0 4,0 6,0 3,1 5,5 7,7 1,1 2,2 3,3 -3,-3 -6,-6 -9,-8 -2,-2 -4,1 -4,3zm77 75c8,10 17,20 25,30 9,10 18,21 27,32 -26,-30 -53,-60 -80,-90 10,10 19,19 28,28zm-26 -37c-9,-10 -19,-21 -29,-31 0,0 0,-1 -1,-1 11,11 20,21 30,32zm87 179c17,8 34,17 51,25 13,8 26,16 39,24 4,2 7,-3 4,-6 -1,0 -2,-1 -3,-2 0,0 0,0 0,0 0,-1 0,-1 0,-2 -1,-1 -1,-1 -1,-2 0,0 1,0 1,0 0,0 1,0 1,0 0,0 0,0 0,0 1,4 7,4 6,0 0,-1 0,-1 0,-1 0,-1 0,-2 -1,-3 -1,-6 -2,-11 -3,-17 -2,-10 -4,-21 -6,-31 -4,-19 -8,-38 -15,-57 -1,-3 -7,-2 -6,2 0,1 1,3 1,5 0,0 0,0 0,0 0,-1 -1,-2 -1,-3 -2,-3 -7,-2 -6,2 0,3 1,6 2,9 0,0 0,1 0,2 0,3 1,5 1,8 0,0 0,0 0,0 -1,-1 -2,0 -3,0 0,1 0,1 0,1 -2,2 1,5 3,3 -2,2 5,17 5,20 1,4 2,7 4,11 1,9 4,18 6,26 -5,-6 -9,-11 -14,-17 -58,-84 -125,-161 -198,-232 -2,-3 -6,1 -4,3 3,3 5,5 8,8 -7,-6 -15,-10 -20,-1 0,1 0,2 1,3 68,81 139,161 212,238 -20,-11 -41,-21 -62,-31 -2,-1 -5,2 -4,4 -1,2 -1,4 1,5 0,0 0,1 0,1 -1,1 -1,3 1,5z"/>
  <path class="fil53" d="M6662 2527c-19,23 -37,46 -55,70 -3,3 -6,7 -9,10 21,-27 42,-54 64,-80zm80 -99c1,-1 1,-2 2,-2 1,-1 1,-1 2,-2 0,2 1,4 1,6 -1,3 -4,6 -5,8 -1,1 -2,2 -3,3 2,-3 4,-6 6,-9 2,-3 -1,-5 -3,-4zm-61 88c-8,10 -17,20 -25,30 -9,11 -18,22 -27,32 25,-31 49,-62 74,-93 -7,10 -15,21 -22,31zm32 -31c8,-11 17,-23 25,-34 1,0 1,-1 1,-1 -8,12 -17,23 -26,35zm-161 116c-6,18 -11,36 -16,55 -6,14 -12,28 -17,42 -2,4 4,7 6,3 1,-1 1,-2 2,-3 0,0 0,0 0,0 1,-1 1,-1 1,-1 1,0 2,-1 2,-1 0,0 1,1 1,1 0,0 0,0 0,1 -1,0 -1,0 -1,0 -4,1 -2,7 2,6 0,0 1,0 1,0 1,0 2,-1 3,-2 5,-2 10,-4 16,-6 10,-3 19,-7 29,-11 19,-7 37,-15 54,-24 3,-2 0,-8 -3,-6 -2,1 -3,1 -5,2 0,0 0,0 1,0 0,-1 1,-1 2,-2 3,-2 1,-7 -3,-6 -3,1 -6,3 -9,4 0,0 -1,0 -2,0 -2,1 -5,2 -7,3 0,0 0,0 0,0 0,-1 0,-2 -1,-3 0,0 -1,0 -1,0 -2,-1 -4,2 -2,4 -3,-2 -16,7 -19,8 -3,2 -7,4 -10,5 -9,4 -17,7 -25,11 5,-6 10,-11 15,-16 72,-72 136,-151 194,-236 2,-2 -2,-6 -3,-3 -3,3 -5,6 -7,9 5,-8 7,-16 -2,-19 -1,-1 -2,0 -3,1 -69,81 -135,164 -198,250 7,-22 13,-44 20,-66 1,-3 -3,-5 -6,-4 -1,-1 -3,0 -4,2 0,0 0,0 -1,0 -1,0 -3,0 -4,2z"/>
  <path class="fil53" d="M4689 4202c20,-22 41,-43 61,-65 3,-3 6,-7 9,-10 -23,25 -46,50 -70,75zm-89 90c-1,1 -2,2 -3,2 -1,1 -1,1 -2,2 0,-2 0,-4 0,-6 0,-3 4,-6 6,-8 1,-1 2,-2 3,-3 -3,3 -5,6 -8,9 -1,2 2,5 4,4zm69 -82c9,-9 18,-18 27,-27 10,-10 20,-20 30,-30 -27,29 -55,58 -83,86 9,-9 17,-19 26,-29zm-35 28c-10,11 -19,21 -29,32 0,0 0,0 -1,1 10,-11 20,-22 30,-33zm171 -100c8,-18 14,-35 21,-53 7,-14 14,-27 21,-41 2,-4 -3,-7 -6,-3 -1,1 -1,2 -2,3 0,0 0,0 0,0 -1,0 -1,0 -2,1 0,0 -1,0 -2,0 0,0 0,-1 0,-1 0,0 0,0 0,-1 0,0 0,0 1,0 3,-1 2,-7 -2,-6 0,0 0,0 -1,0 -1,0 -2,0 -3,1 -5,2 -10,3 -16,5 -10,2 -20,5 -30,8 -19,6 -38,12 -56,20 -3,1 -1,7 2,6 2,-1 3,-1 5,-2 0,0 0,0 0,0 -1,1 -2,1 -3,2 -3,1 -1,7 3,6 3,-1 6,-2 9,-3 0,0 1,0 2,0 2,-1 5,-2 7,-3 0,1 0,1 0,1 0,1 0,2 1,2 0,1 1,1 1,1 2,1 4,-2 2,-4 3,2 17,-5 20,-7 4,-1 7,-2 11,-3 8,-3 17,-6 25,-9 -5,5 -10,10 -16,15 -78,65 -150,138 -216,216 -2,2 2,6 4,4 2,-3 5,-6 7,-9 -5,8 -9,16 1,20 1,0 2,0 2,-1 77,-74 150,-151 221,-230 -9,21 -17,42 -26,64 -1,3 3,5 5,4 2,1 4,1 5,-1 0,-1 0,-1 0,-1 2,1 4,1 5,-1z"/>
  <path class="fil54 str1" d="M6201 3506l-929 0 0 -545 929 0 0 545z"/>
  <path class="fil55 str1" d="M6269 2967l-1064 0 68 -132 928 0 68 132z"/>
  <path class="fil54 str1" d="M5468 2972l267 -212 270 212 -537 0z"/>
  <path class="fil55 str1" d="M5474 2978l261 -207 265 207c4,3 9,3 12,-1 3,-4 2,-9 -1,-12l-271 -211c-3,-3 -7,-3 -10,0l-267 211c-4,3 -4,8 -1,12 3,4 8,4 12,1z"/>
  <path class="fil56 str1" d="M5444 3465l-132 0 0 -269 132 0 0 269z"/>
  <path class="fil57 str1" d="M5444 3465l0 -4 -128 0 0 -261 124 0 0 265 4 0 0 -4 0 4 4 0 0 -273 -140 0 0 277 140 0 0 -4 -4 0z"/>
  <path class="fil58 str1" d="M5378 3196l0 273 0 -273z"/>
  <path class="fil57 str1" d="M5374 3196l0 273 8 0 0 -273 -8 0z"/>
  <path class="fil56 str1" d="M6162 3465l-133 0 0 -269 133 0 0 269z"/>
  <path class="fil57 str1" d="M6162 3465l0 -4 -129 0 0 -261 125 0 0 265 4 0 0 -4 0 4 4 0 0 -273 -140 0 0 277 140 0 0 -4 -4 0z"/>
  <path class="fil58 str1" d="M6096 3196l0 273 0 -273z"/>
  <path class="fil57 str1" d="M6092 3196l0 273 8 0 0 -273 -8 0z"/>
  <path class="fil59 str1" d="M5554 3506l-15 0 0 -331 15 0 0 331z"/>
  <path class="fil59 str1" d="M5935 3506l-15 0 0 -331 15 0 0 331z"/>
  <path class="fil55 str1" d="M5965 3180l-456 0 0 -53 456 0 0 53z"/>
  <path class="fil60 str1" d="M5873 3506l-273 0 0 -305 273 0 0 305z"/>
  <path class="fil61 str1" d="M5739 3506l-4 0 0 -305 4 0 0 305z"/>
  <path class="fil61 str1" d="M5724 3364l-12 0c-2,0 -4,-2 -4,-4 0,-2 2,-4 4,-4l12 0c2,0 4,2 4,4 0,2 -2,4 -4,4z"/>
  <path class="fil61 str1" d="M5764 3364l-12 0c-3,0 -4,-2 -4,-4 0,-2 1,-4 4,-4l12 0c2,0 4,2 4,4 0,2 -2,4 -4,4z"/>
  <path class="fil56 str1" d="M5390 3101l-77 0 0 -97 77 0 0 97z"/>
  <path class="fil57 str1" d="M5390 3101l0 -4 -73 0 0 -89 70 0 0 93 3 0 0 -4 0 4 4 0 0 -100 -85 0 0 104 85 0 0 -4 -4 0z"/>
  <path class="fil56 str1" d="M5501 3101l-77 0 0 -97 77 0 0 97z"/>
  <path class="fil57 str1" d="M5501 3101l0 -4 -73 0 0 -89 69 0 0 93 4 0 0 -4 0 4 4 0 0 -100 -85 0 0 104 85 0 0 -4 -4 0z"/>
  <path class="fil56 str1" d="M5612 3101l-77 0 0 -97 77 0 0 97z"/>
  <path class="fil57 str1" d="M5612 3101l0 -4 -73 0 0 -89 69 0 0 93 4 0 0 -4 0 4 4 0 0 -100 -85 0 0 104 85 0 0 -4 -4 0z"/>
  <path class="fil56 str1" d="M5722 3101l-77 0 0 -97 77 0 0 97z"/>
  <path class="fil57 str1" d="M5722 3101l0 -4 -73 0 0 -89 69 0 0 93 4 0 0 -4 0 4 4 0 0 -100 -85 0 0 104 85 0 0 -4 -4 0z"/>
  <path class="fil56 str1" d="M5833 3101l-77 0 0 -97 77 0 0 97z"/>
  <path class="fil57 str1" d="M5833 3101l0 -4 -73 0 0 -89 69 0 0 93 4 0 0 -4 0 4 4 0 0 -100 -85 0 0 104 85 0 0 -4 -4 0z"/>
  <path class="fil56 str1" d="M5944 3101l-77 0 0 -97 77 0 0 97z"/>
  <path class="fil57 str1" d="M5944 3101l0 -4 -74 0 0 -89 70 0 0 93 4 0 0 -4 0 4 4 0 0 -100 -85 0 0 104 85 0 0 -4 -4 0z"/>
  <path class="fil56 str1" d="M6054 3101l-77 0 0 -97 77 0 0 97z"/>
  <path class="fil57 str1" d="M6054 3101l0 -4 -73 0 0 -89 69 0 0 93 4 0 0 -4 0 4 4 0 0 -100 -85 0 0 104 85 0 0 -4 -4 0z"/>
  <path class="fil56 str1" d="M6165 3101l-77 0 0 -97 77 0 0 97z"/>
  <path class="fil57 str1" d="M6165 3101l0 -4 -73 0 0 -89 69 0 0 93 4 0 0 -4 0 4 4 0 0 -100 -85 0 0 104 85 0 0 -4 -4 0z"/>
  <path class="fil62 str1" d="M3545 5130l-245 2 -122 118 383 2 -16 -122z"/>
  <path class="fil62 str1" d="M3946 5130l245 2 122 118 -383 2 16 -122z"/>
  <path class="fil54 str1" d="M3217 5250l3 368 1068 0 1 -368 -1072 0z"/>
  <path class="fil54 str1" d="M3529 5271l0 -185 447 0 0 187 -447 -2z"/>
  <path class="fil63 str1" d="M3964 5618l-423 0 0 -256 423 0 0 256z"/>
  <path class="fil62 str1" d="M3938 5618l-371 0 0 -226 371 0 0 226z"/>
  <path class="fil64 str1" d="M3758 5618l-5 0 0 -226 5 0 0 226z"/>
  <path class="fil64 str1" d="M3739 5517l-13 0c-2,0 -4,-2 -4,-5 0,-2 2,-4 4,-4l13 0c2,0 4,2 4,4 0,3 -2,5 -4,5z"/>
  <path class="fil64 str1" d="M3786 5517l-13 0c-2,0 -4,-2 -4,-5 0,-2 2,-4 4,-4l13 0c2,0 4,2 4,4 0,3 -2,5 -4,5z"/>
  <path class="fil62 str1" d="M3992 5099l-125 -121 -233 0 -125 121 483 0z"/>
  <path class="fil63 str1" d="M3501 5502l-239 0 0 -142 239 0 0 142z"/>
  <path class="fil56 str1" d="M3272 5492l0 -122 219 0 0 122 -219 0z"/>
  <path class="fil63 str1" d="M3348 5498l-10 0 0 -131 10 0 0 131z"/>
  <path class="fil63 str1" d="M3422 5498l-9 0 0 -131 9 0 0 131z"/>
  <path class="fil63 str1" d="M4243 5502l-239 0 0 -142 239 0 0 142z"/>
  <path class="fil56 str1" d="M4014 5492l0 -122 219 0 0 122 -219 0z"/>
  <path class="fil63 str1" d="M4090 5498l-9 0 0 -131 9 0 0 131z"/>
  <path class="fil63 str1" d="M4164 5498l-9 0 0 -131 9 0 0 131z"/>
  <path class="fil63 str1" d="M3635 5249l-76 0 0 -120 76 0 0 120z"/>
  <path class="fil56 str1" d="M3568 5239l0 -100 57 0 0 100 -57 0z"/>
  <path class="fil63 str1" d="M3739 5249l-77 0 0 -120 77 0 0 120z"/>
  <path class="fil56 str1" d="M3672 5239l0 -100 57 0 0 100 -57 0z"/>
  <path class="fil63 str1" d="M3843 5249l-77 0 0 -120 77 0 0 120z"/>
  <path class="fil56 str1" d="M3776 5239l0 -100 57 0 0 100 -57 0z"/>
  <path class="fil63 str1" d="M3947 5249l-77 0 0 -120 77 0 0 120z"/>
  <path class="fil56 str1" d="M3880 5239l0 -100 57 0 0 100 -57 0z"/>
  <path class="fil65 str1" d="M3960 5337l-416 0 0 -63 416 0 0 63z"/>
 </g>
</svg>
