<?xml version="1.0" encoding="UTF-8"?>
<!DOCTYPE svg PUBLIC "-//W3C//DTD SVG 1.0//EN" "http://www.w3.org/TR/2001/REC-SVG-20010904/DTD/svg10.dtd">
<!-- Creator: CorelDRAW X7 -->
<svg xmlns="http://www.w3.org/2000/svg" xml:space="preserve" width="115mm" height="70.122mm" version="1.0" style="shape-rendering:geometricPrecision; text-rendering:geometricPrecision; image-rendering:optimizeQuality; fill-rule:evenodd; clip-rule:evenodd"
viewBox="0 0 11500 7012"
 xmlns:xlink="http://www.w3.org/1999/xlink">
 <defs>
  <style type="text/css">
   <![CDATA[
    .str0 {stroke:#3198A2;stroke-width:8.76524}
    .fil1 {fill:#D25F60}
    .fil2 {fill:#1494B7}
    .fil3 {fill:#2E99A3}
    .fil0 {fill:url(#id0)}
   ]]>
  </style>
  <radialGradient id="id0" gradientUnits="userSpaceOnUse" gradientTransform="matrix(1.17124 -0 -0 1.92083 -985 -3229)" cx="5750" cy="3506.1" r="3506.1" fx="5750" fy="3506.1">
   <stop offset="0" style="stop-opacity:1; stop-color:#FEFEFE"/>
   <stop offset="0.439216" style="stop-opacity:1; stop-color:#FEFEFE"/>
   <stop offset="1" style="stop-opacity:1; stop-color:#D1E2F2"/>
  </radialGradient>
 </defs>
 <g id="Layer_x0020_1">
  <metadata id="CorelCorpID_0Corel-Layer"/>
  <path class="fil0" d="M0 0l11500 0 0 7012 -11500 0 0 -7012z"/>
  <g id="_856637986256">
   <g>
    <path class="fil1" d="M3794 943l-811 0 0 663 811 0 0 -663zm-95 78l0 507 -621 0 0 -507 621 0z"/>
    <path class="fil2" d="M3381 1585l-338 -337 111 -73 209 209 540 -735 122 59 -644 877z"/>
   </g>
   <g>
    <path class="fil1" d="M3794 1849l-811 0 0 663 811 0 0 -663zm-95 78l0 507 -621 0 0 -507 621 0z"/>
    <path class="fil2" d="M3381 2464l-338 -337 111 -74 209 209 540 -735 122 60 -644 877z"/>
   </g>
   <g>
    <path class="fil1" d="M3794 2734l-811 0 0 662 811 0 0 -662zm-95 78l0 507 -621 0 0 -507 621 0z"/>
    <path class="fil2" d="M3381 3370l-338 -337 111 -74 209 209 540 -735 122 60 -644 877z"/>
   </g>
   <g>
    <path class="fil1" d="M3794 3678l-811 0 0 663 811 0 0 -663zm-95 78l0 507 -621 0 0 -507 621 0z"/>
    <path class="fil2" d="M3381 4254l-338 -337 111 -73 209 209 540 -735 122 59 -644 877z"/>
   </g>
   <g>
    <path class="fil1" d="M3794 4623l-811 0 0 662 811 0 0 -662zm-95 77l0 507 -621 0 0 -507 621 0z"/>
    <path class="fil2" d="M3381 5199l-338 -337 111 -74 209 209 540 -735 122 60 -644 877z"/>
   </g>
   <g>
    <path class="fil3 str0" d="M4473 1034l0 -144c0,-2 1,-4 2,-6 2,-1 4,-2 6,-2 2,0 4,1 6,2 2,1 3,3 3,6l0 144 8 0c6,0 9,3 9,9l0 25c0,2 -1,4 -3,6 -2,2 -4,3 -6,3 -2,0 -4,-1 -5,-3 -2,-1 -3,-3 -3,-6l0 -17 -93 0c-6,0 -9,-3 -9,-8l0 -153c0,-2 1,-4 3,-6 1,-1 3,-2 6,-2 2,0 4,1 5,2 2,1 3,3 3,6l0 144 68 0zm77 -50l51 0 0 -18c0,-4 -2,-8 -5,-12 -3,-3 -8,-5 -12,-5l-17 0c-5,0 -9,2 -13,5 -1,2 -2,4 -3,6 -1,2 -1,4 -1,6l0 18zm0 16l0 17c0,5 1,9 4,12 2,2 4,3 6,4 2,1 4,1 7,1l42 0c2,0 4,1 6,3 2,2 2,4 2,6 0,2 0,3 -2,5 -1,2 -3,3 -6,3l-42 0c-10,0 -18,-3 -24,-10 -7,-6 -10,-14 -10,-24l0 -51c0,-9 3,-17 10,-23 6,-7 14,-10 24,-10l17 0c9,0 17,3 23,9 7,7 10,15 10,24l0 26c0,5 -2,8 -8,8l-59 0zm169 -17l0 -42c0,-2 1,-4 2,-6 2,-2 4,-2 6,-2 2,0 4,0 6,2 2,1 3,3 3,6l0 102c0,2 -1,4 -3,6 -1,1 -3,2 -6,2 -2,0 -4,-1 -6,-2 -1,-1 -2,-4 -2,-6l0 -43 -51 0 0 43c0,2 -1,4 -2,6 -2,1 -4,2 -6,2 -3,0 -5,-1 -6,-2 -2,-1 -3,-4 -3,-6l0 -102c0,-2 1,-4 3,-6 1,-2 3,-2 6,-2 2,0 4,0 5,2 2,1 3,3 3,6l0 42 51 0zm101 -34l-34 0 0 94c0,2 0,4 -2,6 -2,1 -4,2 -6,2 -2,0 -4,-1 -6,-2 -2,-1 -3,-4 -3,-6l0 -102c0,-6 3,-8 9,-8l76 0c9,0 17,3 24,9 6,7 10,15 10,24l0 77c0,2 -1,4 -3,6 -1,1 -3,2 -6,2 -2,0 -4,-1 -6,-2 -1,-1 -2,-4 -2,-6l0 -77c0,-4 -2,-8 -5,-12 -3,-3 -7,-5 -12,-5l-17 0 0 94c0,2 -1,4 -2,6 -2,1 -4,2 -6,2 -3,0 -5,-1 -6,-2 -2,-1 -3,-4 -3,-6l0 -94zm118 85l34 0c5,0 9,-1 12,-5 4,-3 5,-7 5,-12l0 -51c0,-4 -1,-8 -4,-12 -4,-3 -8,-5 -13,-5l-34 0 0 85zm0 17l0 42c0,3 0,5 -2,6 -2,2 -4,3 -6,3 -2,0 -4,-1 -6,-2 -1,-2 -2,-4 -2,-7l0 -152c0,-6 2,-8 8,-8l42 0c10,0 18,3 24,9 7,7 10,15 10,24l0 51c0,9 -3,17 -10,24 -6,7 -14,10 -24,10l-34 0zm170 -34l0 -68 -34 0c-5,0 -9,2 -12,5 -2,2 -3,4 -4,6 -1,2 -1,4 -1,6l0 51c0,5 1,9 5,12 1,2 3,3 5,4 3,1 5,1 7,1l17 0c5,0 9,-1 12,-5 3,-3 5,-7 5,-12zm8 23c-3,3 -6,6 -11,8 -5,2 -10,3 -14,3l-17 0c-9,0 -17,-3 -24,-10 -7,-6 -10,-14 -10,-24l0 -51c0,-9 3,-17 10,-24 7,-6 15,-9 24,-9l42 0c6,0 9,2 9,8l0 76c0,3 1,7 3,10 2,4 5,6 8,8 4,1 6,4 6,7 0,3 -1,5 -3,6 -1,2 -3,3 -6,3 -1,0 -2,0 -3,-1 -6,-2 -10,-5 -14,-10zm127 3c0,2 -1,4 -2,6 -2,1 -4,2 -6,2 -3,0 -5,-1 -6,-2 -2,-1 -3,-4 -3,-6l0 -94 -19 0 -32 96c-1,2 -2,4 -3,5 0,0 -2,0 -5,1 -2,0 -4,-1 -6,-2 -1,-2 -2,-4 -2,-6l0 -3 34 -102c1,-4 4,-5 8,-5l34 0c5,0 8,2 8,8l0 102zm51 -43l0 34 34 0c5,0 9,-1 12,-5 3,-3 5,-7 5,-12 0,-5 -2,-9 -5,-12 -1,-1 -3,-2 -5,-3 -2,-1 -5,-2 -7,-2l-34 0zm0 -17l33 0c11,0 20,4 26,11 6,6 8,14 8,23 0,9 -2,17 -8,23 -6,8 -15,11 -25,11l-43 0c-5,0 -8,-3 -8,-8l0 -102c0,-2 1,-4 2,-6 2,-2 4,-2 6,-2 2,0 4,0 6,2 2,1 3,3 3,6l0 42zm169 0l0 -42c0,-2 1,-4 2,-6 2,-2 4,-2 6,-2 2,0 4,0 6,2 2,1 3,3 3,6l0 102c0,2 -1,4 -3,6 -1,1 -3,2 -6,2 -2,0 -4,-1 -6,-2 -1,-1 -2,-4 -2,-6l0 -43 -51 0 0 43c0,2 -1,4 -2,6 -2,1 -4,2 -6,2 -3,0 -5,-1 -6,-2 -2,-1 -3,-4 -3,-6l0 -102c0,-2 1,-4 3,-6 1,-2 3,-2 6,-2 2,0 4,0 5,2 2,1 3,3 3,6l0 42 51 0zm118 34l0 -68 -34 0c-4,0 -8,2 -12,5 -1,2 -3,4 -3,6 -1,2 -2,4 -2,6l0 51c0,5 2,9 5,12 2,2 4,3 6,4 2,1 4,1 6,1l17 0c5,0 9,-1 12,-5 4,-3 5,-7 5,-12zm9 23c-3,3 -7,6 -12,8 -4,2 -9,3 -14,3l-17 0c-9,0 -17,-3 -23,-10 -7,-6 -10,-14 -10,-24l0 -51c0,-9 3,-17 9,-24 7,-6 15,-9 24,-9l43 0c5,0 8,2 8,8l0 76c0,3 1,7 3,10 2,4 5,6 9,8 3,1 5,4 5,7 0,3 -1,5 -2,6 -2,2 -4,3 -6,3 -2,0 -3,0 -4,-1 -5,-2 -10,-5 -13,-10zm110 -56l0 -35 -34 0c-5,0 -9,2 -13,5 -3,4 -4,8 -4,12 0,5 1,9 4,12 3,4 7,6 13,6l34 0zm-21 16l-32 47c0,1 -1,2 -3,3l-4 1c-1,0 -3,-1 -5,-2 -2,-2 -3,-4 -3,-6 0,-2 0,-3 1,-5l26 -38c-9,-1 -15,-5 -20,-12 -5,-6 -7,-14 -7,-22 0,-9 3,-16 8,-23 7,-7 15,-10 26,-10l42 0c6,0 8,2 8,8l0 102c0,2 0,4 -2,6 -1,1 -3,2 -6,2 -2,0 -4,-1 -6,-2 -2,-1 -2,-4 -2,-6l0 -43 -21 0zm257 43c0,5 -2,8 -8,8l-42 0c-10,0 -17,-3 -24,-10 -7,-6 -10,-14 -10,-24l0 -76c0,-2 1,-4 2,-6 2,-2 4,-2 6,-2 2,0 4,0 6,2 2,1 3,3 3,6l0 76c0,5 1,9 4,12 2,2 4,3 6,4 2,1 5,1 7,1l34 0 0 -93c0,-2 0,-4 2,-6 2,-2 4,-2 6,-2 2,0 4,0 6,2 1,1 2,3 2,6l0 102zm79 -43l-11 0c-3,0 -5,-1 -6,-2 -2,-2 -2,-4 -2,-6 0,-2 0,-4 2,-6 1,-2 3,-3 6,-3l9 0c5,0 9,-1 12,-5 3,-3 4,-7 4,-12 0,-4 -1,-8 -4,-11 -1,-2 -3,-3 -5,-4 -2,-1 -5,-2 -7,-2l-9 0c-8,0 -15,3 -20,7 -2,1 -3,2 -5,2 -2,0 -4,-1 -6,-2 -2,-2 -3,-4 -3,-7 0,-2 1,-4 4,-6 8,-7 18,-10 30,-10l8 0c11,0 20,3 26,10 5,6 8,14 8,23 0,3 0,5 0,8 -1,2 -1,4 -2,6 -2,4 -5,8 -8,12 3,3 6,7 8,11l2 7c0,2 0,5 0,7 0,10 -3,17 -8,24 -6,7 -15,10 -26,10l-8 0c-11,0 -21,-3 -30,-10 -3,-2 -4,-4 -4,-7 0,-2 1,-4 3,-6 1,-2 3,-3 6,-3 1,0 3,1 5,2 6,5 12,7 20,7l9 0c5,0 9,-1 12,-5 3,-3 4,-7 4,-12 0,-4 -1,-8 -3,-11 -3,-3 -6,-5 -11,-6zm133 17l0 -51c0,-4 -2,-8 -5,-12 -3,-3 -7,-5 -12,-5l-17 0c-5,0 -9,2 -12,5 -2,2 -3,4 -4,6 -1,2 -1,4 -1,6l0 51c0,5 1,9 5,12 1,2 3,3 5,4 3,1 5,1 7,1l17 0c5,0 9,-1 12,-5 3,-3 5,-7 5,-12zm-28 -84l-37 -37c-2,-2 -3,-4 -3,-7 0,-1 0,-3 2,-5 1,-1 3,-2 6,-2l68 0c2,0 4,1 6,2 2,2 3,4 3,6 0,2 -1,4 -2,6 -2,2 -4,3 -7,3l-46 0 44 42 3 3c5,7 8,14 8,22l0 51c0,9 -4,17 -10,24 -7,7 -15,10 -24,10l-17 0c-9,0 -17,-3 -24,-10 -7,-6 -10,-14 -10,-24l0 -51c0,-9 3,-17 10,-24 7,-6 14,-9 24,-9l6 0zm163 110c0,5 -3,8 -8,8l-43 0c-9,0 -17,-3 -24,-10 -6,-6 -10,-14 -10,-24l0 -76c0,-2 1,-4 3,-6 2,-2 4,-2 6,-2 2,0 4,0 6,2 1,1 2,3 2,6l0 76c0,5 2,9 5,12 2,2 4,3 6,4 2,1 4,1 6,1l34 0 0 -93c0,-2 1,-4 3,-6 1,-2 3,-2 6,-2 2,0 4,0 5,2 2,1 3,3 3,6l0 102zm51 -9l34 0c4,0 8,-1 12,-5 3,-3 5,-7 5,-12l0 -51c0,-4 -2,-8 -5,-12 -3,-3 -8,-5 -12,-5l-34 0 0 85zm0 17l0 42c0,3 -1,5 -3,6 -2,2 -4,3 -6,3 -2,0 -4,-1 -5,-2 -2,-2 -3,-4 -3,-7l0 -152c0,-6 3,-8 8,-8l43 0c9,0 17,3 23,9 7,7 10,15 10,24l0 51c0,9 -3,17 -10,24 -6,7 -14,10 -24,10l-33 0zm169 -34l0 -68 -34 0c-5,0 -9,2 -12,5 -2,2 -3,4 -4,6 -1,2 -1,4 -1,6l0 51c0,5 2,9 5,12 1,2 3,3 5,4 3,1 5,1 7,1l17 0c5,0 9,-1 12,-5 3,-3 5,-7 5,-12zm8 23c-3,3 -6,6 -11,8 -5,2 -9,3 -14,3l-17 0c-9,0 -17,-3 -24,-10 -7,-6 -10,-14 -10,-24l0 -51c0,-9 3,-17 10,-24 7,-6 15,-9 24,-9l42 0c6,0 9,2 9,8l0 76c0,3 1,7 3,10 2,4 5,6 8,8 4,1 6,4 6,7 0,3 -1,5 -3,6 -1,2 -3,3 -6,3 -1,0 -2,0 -3,-1 -6,-2 -10,-5 -14,-10zm93 -91l-34 0 0 94c0,2 0,4 -2,6 -2,1 -4,2 -6,2 -2,0 -4,-1 -6,-2 -2,-1 -3,-4 -3,-6l0 -102c0,-6 3,-8 9,-8l76 0c9,0 17,3 24,9 6,7 10,15 10,24l0 77c0,2 -1,4 -3,6 -1,1 -3,2 -6,2 -2,0 -4,-1 -6,-2 -1,-1 -2,-4 -2,-6l0 -77c0,-4 -2,-8 -5,-12 -3,-3 -7,-5 -12,-5l-17 0 0 94c0,2 -1,4 -2,6 -2,1 -4,2 -6,2 -3,0 -5,-1 -6,-2 -2,-1 -3,-4 -3,-6l0 -94zm118 35l51 0 0 -18c0,-4 -1,-8 -4,-12 -4,-3 -8,-5 -13,-5l-17 0c-4,0 -8,2 -12,5 -1,2 -2,4 -3,6 -1,2 -2,4 -2,6l0 18zm0 16l0 17c0,5 2,9 5,12 2,2 4,3 6,4 2,1 4,1 6,1l43 0c2,0 4,1 6,3 1,2 2,4 2,6 0,2 0,3 -2,5 -1,2 -3,3 -6,3l-42 0c-10,0 -18,-3 -24,-10 -7,-6 -10,-14 -10,-24l0 -51c0,-9 3,-17 9,-23 7,-7 15,-10 25,-10l16 0c10,0 18,3 24,9 7,7 10,15 10,24l0 26c0,5 -3,8 -8,8l-60 0zm187 43c0,2 -1,4 -3,6 -1,1 -3,2 -6,2 -2,0 -4,-1 -6,-2 -1,-1 -2,-4 -2,-6l0 -94 -20 0 -31 96c-1,2 -2,4 -3,5 -1,0 -2,0 -5,1 -2,0 -4,-1 -6,-2 -2,-2 -3,-4 -3,-6l1 -3 33 -102c1,-4 4,-5 8,-5l34 0c6,0 9,2 9,8l0 102zm50 -43l0 34 34 0c5,0 10,-1 13,-5 3,-3 4,-7 4,-12 0,-5 -1,-9 -4,-12 -1,-1 -3,-2 -5,-3 -2,-1 -5,-2 -8,-2l-34 0zm0 -17l34 0c11,0 19,4 26,11 5,6 8,14 8,23 0,9 -3,17 -8,23 -7,8 -15,11 -26,11l-42 0c-6,0 -9,-3 -9,-8l0 -102c0,-2 1,-4 3,-6 2,-2 4,-2 6,-2 2,0 4,0 6,2 1,1 2,3 2,6l0 42zm170 0l0 -42c0,-2 0,-4 2,-6 2,-2 4,-2 6,-2 2,0 4,0 6,2 2,1 2,3 2,6l0 102c0,2 0,4 -2,6 -2,1 -4,2 -6,2 -2,0 -4,-1 -6,-2 -2,-1 -2,-4 -2,-6l0 -43 -51 0 0 43c0,2 -1,4 -3,6 -1,1 -3,2 -6,2 -2,0 -4,-1 -6,-2 -1,-1 -2,-4 -2,-6l0 -102c0,-2 1,-4 2,-6 2,-2 4,-2 6,-2 2,0 4,0 6,2 2,1 3,3 3,6l0 42 51 0zm118 34l0 -68 -34 0c-5,0 -9,2 -12,5 -2,2 -3,4 -4,6 -1,2 -1,4 -1,6l0 51c0,5 2,9 5,12 2,2 3,3 5,4 3,1 5,1 7,1l17 0c5,0 9,-1 12,-5 3,-3 5,-7 5,-12zm8 23c-3,3 -6,6 -11,8 -5,2 -9,3 -14,3l-17 0c-9,0 -17,-3 -24,-10 -6,-6 -10,-14 -10,-24l0 -51c0,-9 3,-17 10,-24 7,-6 15,-9 24,-9l42 0c6,0 9,2 9,8l0 76c0,3 1,7 3,10 2,4 5,6 8,8 4,1 6,4 6,7 0,3 -1,5 -3,6 -1,2 -3,3 -6,3 -1,0 -2,0 -3,-1 -6,-2 -10,-5 -14,-10zm110 -56l0 -35 -34 0c-4,0 -9,2 -12,5 -3,4 -5,8 -5,12 0,5 2,9 5,12 3,4 7,6 12,6l34 0zm-21 16l-31 47c-1,1 -2,2 -3,3l-4 1c-2,0 -4,-1 -6,-2 -2,-2 -2,-4 -2,-6 0,-2 0,-3 1,-5l25 -38c-8,-1 -15,-5 -19,-12 -5,-6 -7,-14 -7,-22 0,-9 2,-16 8,-23 6,-7 15,-10 25,-10l43 0c5,0 8,2 8,8l0 102c0,2 -1,4 -2,6 -2,1 -4,2 -6,2 -3,0 -5,-1 -6,-2 -2,-1 -3,-4 -3,-6l0 -43 -21 0zm208 -4l-20 20 0 27c0,2 0,4 -2,6 -1,1 -4,2 -6,2 -2,0 -4,-1 -6,-2 -2,-1 -2,-4 -2,-6l0 -102c0,-2 0,-4 2,-6 2,-2 4,-2 6,-2 2,0 4,0 6,2 2,1 2,3 2,6l0 50 54 -56c2,-2 3,-3 6,-3 1,0 3,1 5,3 2,2 3,4 3,6 0,3 -1,5 -3,7l-34 35 35 54c1,2 2,4 2,6 0,2 -1,4 -3,6 -1,1 -3,2 -6,2 -2,0 -4,-1 -6,-3l-33 -52zm160 18c0,10 -4,19 -11,26 -7,7 -16,11 -26,11l-11 0c-10,0 -18,-4 -26,-11 -7,-7 -11,-16 -11,-26l0 -44c0,-10 4,-19 11,-26 7,-8 16,-11 26,-11l11 0c10,0 18,3 26,10 7,8 11,16 11,27l0 44zm-17 0l0 -44c0,-6 -2,-11 -6,-15 -4,-4 -9,-6 -14,-6l-11 0c-5,0 -10,2 -14,6 -4,4 -6,9 -6,15l0 44c0,5 2,10 6,14 4,4 9,6 14,6l11 0c5,0 10,-2 14,-6 4,-3 6,-8 6,-14zm152 29l0 -102c0,-3 -1,-5 -2,-7 -2,-2 -3,-3 -6,-3 -2,0 -5,2 -7,5l-36 50 -35 -50c-2,-3 -5,-5 -8,-5 -2,0 -4,1 -5,3 -2,2 -2,4 -2,7l0 102c0,2 0,4 2,6 1,1 3,2 6,2 2,0 4,-1 6,-2 1,-2 2,-4 2,-6l0 -76 27 38c3,3 5,5 7,5 2,0 5,-2 7,-5l27 -38 0 76c0,2 1,4 3,6 1,1 3,2 6,2 2,0 3,-1 5,-2 2,-2 3,-4 3,-6zm118 0c0,5 -2,8 -8,8l-42 0c-9,0 -17,-3 -24,-10 -7,-6 -10,-14 -10,-24l0 -76c0,-2 1,-4 2,-6 2,-2 4,-2 6,-2 2,0 4,0 6,2 2,1 3,3 3,6l0 76c0,5 1,9 4,12 2,2 4,3 6,4 2,1 5,1 7,1l34 0 0 -93c0,-2 0,-4 2,-6 2,-2 4,-2 6,-2 2,0 4,0 6,2 2,1 2,3 2,6l0 102z"/>
    <path class="fil3 str0" d="M8058 1051l-25 0c-9,0 -17,-3 -24,-10 -6,-6 -10,-14 -10,-24l0 -51c0,-9 3,-17 10,-24 7,-6 15,-9 24,-9l25 0c3,0 5,0 6,2 2,2 3,4 3,6 0,2 -1,4 -2,6 -2,1 -4,2 -7,2l-25 0c-5,0 -9,2 -12,5 -2,2 -3,4 -4,6 -1,2 -1,4 -1,6l0 51c0,5 2,9 5,12 2,2 3,3 5,4 3,1 5,1 7,1l25 0c3,0 5,1 6,3 2,2 3,4 3,6 0,2 -1,3 -2,5 -2,2 -4,3 -7,3zm102 0l-26 0c-9,0 -17,-3 -23,-10 -7,-6 -10,-14 -10,-24l0 -51c0,-9 3,-17 10,-24 6,-6 14,-9 23,-9l26 0c2,0 4,0 6,2 2,2 2,4 2,6 0,2 0,4 -2,6 -1,1 -3,2 -6,2l-26 0c-4,0 -8,2 -12,5 -1,2 -3,4 -3,6 -1,2 -2,4 -2,6l0 51c0,5 2,9 5,12 2,2 4,3 6,4 2,1 4,1 6,1l26 0c2,0 4,1 6,3 2,2 2,4 2,6 0,2 0,3 -2,5 -1,2 -3,3 -6,3zm127 -8c0,5 -3,8 -9,8l-42 0c-9,0 -17,-3 -24,-10 -7,-6 -10,-14 -10,-24l0 -76c0,-2 1,-4 3,-6 1,-2 3,-2 5,-2 3,0 5,0 6,2 2,1 3,3 3,6l0 76c0,5 2,9 5,12 1,2 3,3 5,4 3,1 5,1 7,1l34 0 0 -93c0,-2 1,-4 2,-6 2,-2 4,-2 6,-2 2,0 4,0 6,2 2,1 3,3 3,6l0 102zm101 -59l0 -35 -34 0c-5,0 -9,2 -12,5 -3,4 -5,8 -5,12 0,5 2,9 5,12 3,4 7,6 12,6l34 0zm-21 16l-31 47c-1,1 -2,2 -3,3l-4 1c-2,0 -4,-1 -6,-2 -2,-2 -3,-4 -3,-6 0,-2 1,-3 2,-5l25 -38c-8,-1 -15,-5 -19,-12 -5,-6 -8,-14 -8,-22 0,-9 3,-16 9,-23 6,-7 15,-10 25,-10l43 0c5,0 8,2 8,8l0 102c0,2 -1,4 -2,6 -2,1 -4,2 -6,2 -3,0 -5,-1 -6,-2 -2,-1 -3,-4 -3,-6l0 -43 -21 0zm-3962 237l51 0c5,0 9,-1 12,-5 3,-3 5,-7 5,-12l0 -34c0,-4 -2,-8 -5,-12 -3,-3 -7,-5 -12,-5l-51 0 0 68zm0 17l0 59c0,3 -1,5 -2,7 -2,1 -4,2 -6,2 -3,0 -5,-1 -6,-2 -2,-2 -3,-4 -3,-7l0 -152c0,-6 3,-8 9,-8l59 0c9,0 17,3 24,9 6,7 10,15 10,24l0 34c0,9 -4,17 -10,24 -7,7 -15,10 -24,10l-51 0zm203 30c0,11 -4,19 -11,27 -7,7 -16,11 -26,11l-10 0c-10,0 -19,-4 -26,-11 -8,-7 -12,-16 -12,-27l0 -44c0,-9 4,-18 11,-26 8,-7 16,-11 27,-11l10 0c10,0 19,4 26,11 7,7 11,16 11,26l0 44zm-17 1l0 -45c0,-5 -2,-10 -6,-14 -4,-4 -8,-6 -14,-6l-10 0c-6,0 -11,2 -15,6 -4,4 -6,9 -6,14l0 45c0,5 2,10 6,14 4,4 9,6 15,6l10 0c5,0 10,-2 14,-6 4,-4 6,-9 6,-14zm110 37l-25 0c-9,0 -17,-4 -24,-10 -7,-7 -10,-15 -10,-24l0 -51c0,-9 3,-17 10,-24 6,-6 14,-10 24,-10l25 0c2,0 4,1 6,3 2,2 3,3 3,6 0,2 -1,3 -3,5 -1,2 -3,3 -6,3l-25 0c-5,0 -9,2 -12,5 -2,2 -3,3 -4,5 -1,2 -1,5 -1,7l0 51c0,5 1,9 5,12 1,2 3,3 5,4 2,0 5,1 7,1l25 0c2,0 4,1 6,3 2,1 3,3 3,5 0,2 -1,4 -3,6 -1,2 -3,3 -6,3zm102 0l-26 0c-9,0 -17,-4 -24,-10 -6,-7 -10,-15 -10,-24l0 -51c0,-9 4,-17 10,-24 7,-6 15,-10 24,-10l26 0c2,0 4,1 6,3 1,2 2,3 2,6 0,2 -1,3 -2,5 -1,2 -4,3 -6,3l-26 0c-5,0 -9,2 -12,5 -2,2 -3,3 -4,5 0,2 -1,5 -1,7l0 51c0,5 2,9 5,12 2,2 3,3 5,4 3,0 5,1 7,1l26 0c2,0 4,1 6,3 1,1 2,3 2,5 0,2 -1,4 -2,6 -1,2 -4,3 -6,3zm126 -9c0,6 -2,9 -8,9l-42 0c-9,0 -17,-4 -24,-10 -7,-7 -10,-15 -10,-24l0 -76c0,-3 1,-5 2,-7 2,-1 4,-2 6,-2 2,0 4,1 6,2 2,2 3,4 3,7l0 76c0,5 1,9 4,12 2,2 4,3 6,4 2,0 5,1 7,1l34 0 0 -93c0,-3 0,-5 2,-7 2,-1 4,-2 6,-2 2,0 4,1 6,2 2,2 2,4 2,7l0 101zm93 -144l-33 0c-3,0 -5,0 -7,-2 -1,-2 -2,-4 -2,-6 0,-2 1,-4 2,-6 2,-2 4,-2 7,-2l33 0c3,0 5,0 6,2 2,2 3,4 3,6 0,2 -1,4 -2,6 -2,1 -4,2 -7,2zm26 144c0,6 -3,9 -9,9l-42 0c-9,0 -17,-4 -24,-10 -6,-7 -10,-15 -10,-24l0 -76c0,-2 1,-5 3,-6 1,-2 3,-3 6,-3 2,0 4,1 5,2 2,2 3,4 3,7l0 76c0,5 2,9 5,12 2,2 3,3 5,4 3,0 5,1 7,1l34 0 0 -93c0,-2 1,-5 2,-6 2,-2 4,-3 6,-3 2,0 4,1 6,2 2,2 3,4 3,7l0 101zm93 9l-26 0c-9,0 -17,-4 -23,-10 -7,-7 -10,-15 -10,-24l0 -51c0,-9 3,-17 9,-24 7,-6 15,-10 24,-10l26 0c2,0 4,1 6,3 1,2 2,3 2,6 0,2 0,3 -2,5 -1,2 -3,3 -6,3l-26 0c-4,0 -9,2 -12,5 -1,2 -3,3 -3,5 -1,2 -2,5 -2,7l0 51c0,5 2,9 5,12 2,2 4,3 6,4 2,0 4,1 6,1l26 0c2,0 4,1 6,3 1,1 2,3 2,5 0,2 0,4 -2,6 -1,2 -3,3 -6,3zm76 -56l-19 20 0 27c0,3 -1,5 -2,7 -2,1 -4,2 -6,2 -3,0 -5,-1 -6,-2 -2,-2 -3,-4 -3,-7l0 -101c0,-2 1,-5 3,-6 1,-2 3,-3 6,-3 2,0 4,1 5,2 2,2 3,4 3,7l0 50 54 -57c1,-1 3,-2 5,-2 2,0 4,1 6,2 2,2 3,4 3,7 0,2 -1,4 -3,6l-34 36 35 54c1,2 2,4 2,6 0,2 -1,4 -3,5 -2,2 -4,3 -6,3 -2,0 -4,-1 -6,-3l-34 -53zm160 18c0,11 -3,19 -10,27 -8,7 -16,11 -27,11l-10 0c-10,0 -19,-4 -26,-11 -8,-7 -11,-16 -11,-27l0 -44c0,-9 3,-18 11,-26 7,-7 16,-11 26,-11l10 0c10,0 19,4 26,11 8,7 11,16 11,26l0 44zm-16 1l0 -45c0,-5 -2,-10 -6,-14 -4,-4 -9,-6 -15,-6l-10 0c-6,0 -10,2 -14,6 -4,4 -6,9 -6,14l0 45c0,5 2,10 6,14 3,4 8,6 14,6l10 0c6,0 10,-2 14,-6 5,-4 7,-9 7,-14zm109 -116l-34 0c-2,0 -4,0 -6,-2 -1,-2 -2,-4 -2,-6 0,-2 1,-4 2,-6 2,-2 4,-2 6,-2l34 0c3,0 5,0 6,2 2,2 3,4 3,6 0,2 -1,4 -2,6 -2,1 -4,2 -7,2zm26 144c0,6 -3,9 -9,9l-42 0c-9,0 -17,-4 -24,-10 -6,-7 -10,-15 -10,-24l0 -76c0,-2 1,-5 3,-6 1,-2 3,-3 6,-3 2,0 4,1 5,2 2,2 3,4 3,7l0 76c0,5 2,9 5,12 2,2 3,3 5,4 3,0 5,1 7,1l34 0 0 -93c0,-2 1,-5 2,-6 2,-2 4,-3 6,-3 2,0 4,1 6,2 2,2 3,4 3,7l0 101zm211 -118l0 76 8 0c10,0 18,-3 24,-10 7,-6 10,-14 10,-24l0 -8c0,-9 -3,-17 -10,-24 -6,-7 -14,-10 -24,-10l-8 0zm-17 76l0 -76 -8 0c-10,0 -17,3 -24,10 -7,6 -10,14 -10,24l0 8c0,10 3,18 10,24 6,7 14,10 24,10l8 0zm0 17l-8 0c-14,0 -26,-5 -36,-15 -10,-10 -15,-22 -15,-36l0 -8c0,-14 5,-26 15,-36 10,-10 22,-15 36,-15l8 0 0 -17c0,-2 1,-4 3,-6 1,-2 3,-2 6,-2 2,0 4,0 5,2 2,1 3,3 3,6l0 17 8 0c14,0 26,5 36,15 5,5 8,10 11,16 3,6 4,13 4,20l0 8c0,14 -5,26 -15,36 -10,10 -22,15 -36,15l-8 0 0 25c0,3 -1,5 -2,7 -2,1 -4,2 -6,2 -3,0 -5,-1 -6,-2 -2,-2 -3,-4 -3,-7l0 -25zm127 -34l51 0 0 -17c0,-5 -2,-9 -5,-12 -3,-3 -7,-5 -12,-5l-17 0c-5,0 -9,2 -12,5 -2,2 -3,3 -4,5 -1,3 -1,5 -1,7l0 17zm0 17l0 17c0,5 2,9 5,12 1,2 3,3 5,4 3,0 5,1 7,1l42 0c3,0 5,1 6,3 2,1 3,3 3,5 0,2 -1,4 -2,6 -2,2 -4,3 -7,3l-42 0c-9,0 -17,-4 -24,-10 -7,-7 -10,-15 -10,-24l0 -51c0,-9 3,-17 10,-24 6,-6 14,-10 24,-10l17 0c9,0 17,4 24,10 6,7 10,15 10,24l0 26c0,5 -3,8 -9,8l-59 0zm169 -51l-34 0c-5,0 -9,2 -12,5 -1,2 -3,3 -4,5 0,2 -1,5 -1,7l0 51c0,5 2,9 5,12 2,2 4,3 6,4 2,0 4,1 6,1l17 0c5,0 9,-2 12,-5 4,-3 5,-7 5,-12l0 -68zm0 -17l0 -17c0,-4 -1,-8 -5,-12 -3,-3 -7,-5 -12,-5l-34 0c-2,0 -4,0 -6,-2 -1,-2 -2,-4 -2,-6 0,-2 1,-4 2,-6 1,-2 4,-2 6,-2l34 0c10,0 18,3 24,9 7,7 10,15 10,24l0 102c0,9 -3,17 -10,24 -6,6 -14,10 -24,10l-17 0c-9,0 -17,-4 -23,-10 -7,-7 -11,-15 -11,-24l0 -51c0,-9 4,-17 10,-24 7,-6 15,-10 24,-10l34 0zm68 51l51 0 0 -17c0,-5 -2,-9 -5,-12 -3,-3 -7,-5 -12,-5l-17 0c-5,0 -9,2 -12,5 -2,2 -3,3 -4,5 -1,3 -1,5 -1,7l0 17zm0 17l0 17c0,5 1,9 4,12 2,2 4,3 6,4 2,0 5,1 7,1l42 0c2,0 4,1 6,3 2,1 2,3 2,5 0,2 0,4 -2,6 -1,2 -3,3 -6,3l-42 0c-10,0 -17,-4 -24,-10 -7,-7 -10,-15 -10,-24l0 -51c0,-9 3,-17 10,-24 6,-6 14,-10 24,-10l17 0c9,0 17,4 23,10 7,7 10,15 10,24l0 26c0,5 -2,8 -8,8l-59 0zm118 34l34 0c5,0 9,-2 12,-5 3,-3 5,-7 5,-12l0 -51c0,-5 -2,-9 -5,-12 -3,-3 -7,-5 -12,-5l-34 0 0 85zm0 17l0 42c0,2 -1,4 -3,6 -1,2 -3,2 -5,2 -2,0 -4,0 -6,-2 -2,-1 -3,-3 -3,-6l0 -152c0,-6 3,-9 9,-9l42 0c9,0 17,4 24,10 6,7 10,15 10,24l0 51c0,9 -3,17 -10,24 -7,6 -15,10 -24,10l-34 0zm169 -34l0 -68 -34 0c-4,0 -8,2 -12,5 -1,2 -3,3 -3,5 -1,2 -2,5 -2,7l0 51c0,5 2,9 5,12 2,2 4,3 6,4 2,0 4,1 6,1l17 0c5,0 9,-2 12,-5 4,-3 5,-7 5,-12zm9 23c-3,3 -7,5 -12,8 -4,2 -9,3 -14,3l-17 0c-9,0 -17,-4 -23,-10 -7,-7 -10,-15 -10,-24l0 -51c0,-9 3,-17 9,-24 7,-6 15,-10 24,-10l43 0c5,0 8,3 8,9l0 76c0,3 1,7 3,10 2,3 5,6 9,7 3,2 5,4 5,8 0,3 -1,5 -2,6 -2,2 -4,3 -6,3 -1,0 -3,-1 -4,-1 -5,-2 -10,-6 -13,-10zm110 -6l0 -93c0,-3 1,-5 2,-7 2,-1 4,-2 6,-2 2,0 4,1 6,2 2,2 3,4 3,7l0 93 8 0c6,0 8,3 8,8l0 16c0,2 0,4 -2,6 -2,1 -4,2 -6,2 -2,0 -4,-1 -6,-2 -2,-1 -2,-4 -2,-6l0 -7 -51 0c-9,0 -17,-4 -24,-10 -7,-7 -10,-15 -10,-24l0 -76c0,-3 1,-5 2,-7 2,-1 4,-2 6,-2 3,0 4,1 6,2 2,2 3,4 3,7l0 76c0,5 1,9 5,12 1,2 3,3 5,4 3,0 5,1 7,1l34 0zm135 8c0,6 -3,9 -9,9l-42 0c-9,0 -17,-4 -24,-10 -6,-7 -10,-15 -10,-24l0 -76c0,-3 1,-5 3,-7 2,-1 4,-2 6,-2 2,0 4,1 6,2 1,2 2,4 2,7l0 76c0,5 2,9 5,12 2,2 4,3 5,4 3,0 5,1 7,1l34 0 0 -93c0,-3 1,-5 3,-7 1,-1 3,-2 6,-2 2,0 4,1 5,2 2,2 3,4 3,7l0 101zm118 0c0,6 -3,9 -8,9l-42 0c-10,0 -17,-4 -24,-10 -7,-7 -10,-15 -10,-24l0 -76c0,-3 1,-5 2,-7 2,-1 4,-2 6,-2 2,0 4,1 6,2 2,2 3,4 3,7l0 76c0,5 1,9 4,12 2,2 4,3 6,4 2,0 4,1 6,1l34 0 0 -93c0,-3 1,-5 3,-7 2,-1 4,-2 6,-2 2,0 4,1 6,2 1,2 2,4 2,7l0 101z"/>
   </g>
   <g>
    <path class="fil3 str0" d="M4473 1935c0,5 -3,8 -9,8l-42 0c-9,0 -17,-3 -24,-10 -6,-6 -10,-14 -10,-24l0 -76c0,-2 1,-4 3,-6 1,-2 3,-2 6,-2 2,0 4,0 5,2 2,1 3,3 3,6l0 76c0,5 2,9 5,13 2,1 3,2 5,3 3,1 5,1 7,1l34 0 0 -93c0,-2 1,-4 2,-6 2,-2 4,-2 6,-2 3,0 5,0 6,2 2,1 3,3 3,6l0 102zm78 -43l-10 0c-3,0 -5,-1 -7,-2 -1,-2 -2,-4 -2,-6 0,-2 1,-4 2,-6 2,-2 4,-3 7,-3l8 0c5,0 9,-1 12,-5 3,-3 5,-7 5,-11 0,-5 -1,-9 -4,-12 -2,-2 -3,-3 -6,-4 -2,-1 -4,-1 -7,-1l-8 0c-8,0 -15,2 -21,6 -1,1 -3,2 -5,2 -2,0 -4,-1 -6,-2 -2,-2 -2,-4 -2,-6 0,-3 1,-5 3,-7 9,-7 19,-10 31,-10l8 0c11,0 19,3 25,10 6,7 9,14 9,24 0,2 0,5 -1,7 0,2 -1,4 -2,6 -2,4 -4,8 -8,12 3,3 6,7 8,11l2 7c1,2 1,5 1,8 0,9 -3,17 -9,23 -6,7 -14,10 -25,10l-8 0c-12,0 -22,-3 -31,-10 -2,-2 -3,-4 -3,-7 0,-2 0,-3 2,-5 2,-2 4,-3 6,-3 2,0 3,0 5,2 6,4 13,6 21,6l8 0c5,0 9,-1 12,-5 3,-3 5,-7 5,-12 0,-4 -1,-8 -4,-11 -2,-3 -6,-5 -11,-6zm133 17l0 -50c0,-5 -1,-9 -5,-13 -3,-3 -7,-4 -12,-4l-17 0c-4,0 -9,1 -12,4 -1,2 -3,4 -3,6 -1,2 -2,4 -2,7l0 50c0,5 2,9 5,13 2,1 4,2 6,3 2,1 4,1 6,1l17 0c5,0 9,-1 12,-4 4,-3 5,-8 5,-13zm-27 -84l-38 -36c-2,-3 -3,-5 -3,-7 0,-2 1,-4 2,-5 2,-2 4,-3 7,-3l68 0c2,0 4,1 6,3 1,1 2,3 2,5 0,2 -1,4 -2,6 -1,2 -4,3 -6,3l-47 0 45 43 2 2c5,7 8,14 8,23l0 50c0,10 -3,18 -10,24 -6,7 -14,10 -24,10l-17 0c-9,0 -17,-3 -23,-10 -7,-6 -11,-14 -11,-24l0 -50c0,-10 4,-18 10,-24 7,-7 15,-10 24,-10l7 0zm162 110c0,5 -2,8 -8,8l-42 0c-9,0 -17,-3 -24,-10 -7,-6 -10,-14 -10,-24l0 -76c0,-2 1,-4 2,-6 2,-2 4,-2 6,-2 2,0 4,0 6,2 2,1 3,3 3,6l0 76c0,5 1,9 5,13 1,1 3,2 5,3 2,1 5,1 7,1l34 0 0 -93c0,-2 0,-4 2,-6 2,-2 4,-2 6,-2 2,0 4,0 6,2 2,1 2,3 2,6l0 102zm51 -9l34 0c5,0 9,-1 12,-4 3,-3 5,-8 5,-13l0 -50c0,-5 -2,-9 -5,-13 -3,-3 -7,-4 -12,-4l-34 0 0 84zm0 17l0 42c0,3 -1,5 -3,6 -1,2 -3,3 -5,3 -2,0 -4,-1 -6,-2 -2,-2 -3,-4 -3,-7l0 -152c0,-5 3,-8 9,-8l42 0c9,0 17,3 24,10 6,6 10,14 10,24l0 50c0,10 -3,18 -10,24 -7,7 -15,10 -24,10l-34 0zm169 -34l0 -67 -34 0c-4,0 -8,1 -12,4 -1,2 -3,4 -3,6 -1,2 -2,4 -2,7l0 50c0,5 2,9 5,13 2,1 4,2 6,3 2,1 4,1 6,1l17 0c5,0 9,-1 12,-4 4,-3 5,-8 5,-13zm9 23c-3,3 -7,6 -12,8 -4,2 -9,3 -14,3l-17 0c-9,0 -17,-3 -23,-10 -7,-6 -10,-14 -10,-24l0 -50c0,-10 3,-18 9,-24 7,-7 15,-10 24,-10l43 0c5,0 8,3 8,8l0 76c0,4 1,7 3,11 2,3 5,5 9,7 3,1 5,4 5,8 0,2 -1,4 -2,6 -2,1 -4,2 -6,2 -1,0 -3,0 -4,-1 -5,-2 -10,-5 -13,-10zm93 -90l-34 0 0 93c0,2 -1,5 -3,6 -1,2 -3,2 -6,2 -2,0 -4,0 -6,-2 -1,-1 -2,-3 -2,-6l0 -102c0,-5 3,-8 8,-8l76 0c10,0 18,3 24,10 7,6 10,14 10,24l0 76c0,2 -1,5 -2,6 -2,2 -4,2 -6,2 -2,0 -4,0 -6,-2 -2,-1 -3,-3 -3,-6l0 -76c0,-5 -1,-9 -4,-13 -4,-3 -8,-4 -13,-4l-17 0 0 93c0,2 0,5 -2,6 -1,2 -3,2 -6,2 -2,0 -4,0 -6,-2 -2,-1 -2,-3 -2,-6l0 -93zm118 34l51 0 0 -17c0,-5 -2,-9 -5,-12 -3,-4 -7,-5 -12,-5l-17 0c-5,0 -9,1 -12,4 -2,2 -3,4 -4,6 -1,2 -1,4 -1,7l0 17zm0 17l0 16c0,5 2,9 5,13 2,1 3,2 5,3 3,1 5,1 7,1l42 0c3,0 5,1 6,3 2,2 3,4 3,6 0,2 -1,4 -2,5 -2,2 -4,3 -7,3l-42 0c-9,0 -17,-3 -24,-10 -7,-6 -10,-14 -10,-24l0 -50c0,-10 3,-17 10,-24 6,-7 14,-10 24,-10l17 0c9,0 17,3 24,10 6,6 10,14 10,24l0 25c0,6 -3,9 -9,9l-59 0zm186 42c0,2 -1,5 -2,6 -2,2 -4,2 -6,2 -3,0 -5,0 -6,-2 -2,-1 -3,-3 -3,-6l0 -93 -19 0 -32 95c0,2 -2,4 -3,5 0,0 -2,1 -5,1 -2,0 -4,-1 -6,-2 -1,-2 -2,-4 -2,-6l0 -3 34 -101c1,-4 4,-6 8,-6l34 0c5,0 8,3 8,8l0 102zm51 -43l0 34 34 0c5,0 9,-1 12,-5 3,-3 5,-7 5,-12 0,-4 -2,-8 -4,-11 -2,-2 -4,-3 -6,-4 -2,-1 -4,-2 -7,-2l-34 0zm0 -17l34 0c10,0 19,4 25,11 6,6 8,14 8,23 0,9 -2,17 -8,24 -6,7 -15,10 -25,10l-43 0c-5,0 -8,-3 -8,-8l0 -102c0,-2 1,-4 2,-6 2,-2 4,-2 6,-2 2,0 4,0 6,2 2,1 3,3 3,6l0 42zm169 0l0 -42c0,-2 1,-4 3,-6 1,-2 3,-2 5,-2 3,0 5,0 6,2 2,1 3,3 3,6l0 102c0,2 -1,5 -3,6 -1,2 -3,2 -6,2 -2,0 -4,0 -5,-2 -2,-1 -3,-3 -3,-6l0 -43 -51 0 0 43c0,2 -1,5 -2,6 -2,2 -4,2 -6,2 -3,0 -5,0 -6,-2 -2,-1 -3,-3 -3,-6l0 -102c0,-2 1,-4 3,-6 1,-2 3,-2 6,-2 2,0 4,0 5,2 2,1 3,3 3,6l0 42 51 0zm152 60c0,2 -1,5 -2,6 -2,2 -4,2 -6,2 -3,0 -5,0 -6,-2 -2,-1 -3,-3 -3,-6l0 -102c0,-2 1,-4 3,-6 1,-2 3,-2 6,-2 2,0 4,0 5,2 2,1 3,3 3,6l0 102zm-85 -43l0 34 17 0c6,0 10,-1 13,-5 3,-3 4,-7 4,-12 0,-4 -1,-8 -4,-11 -1,-2 -3,-3 -5,-4 -2,-1 -5,-2 -8,-2l-17 0zm0 -17l17 0c11,0 19,4 26,11 5,6 8,14 8,23 0,9 -3,17 -8,24 -7,7 -15,10 -26,10l-25 0c-6,0 -8,-3 -8,-8l0 -102c0,-2 0,-4 2,-6 2,-2 4,-2 6,-2 2,0 4,0 6,2 2,1 2,3 2,6l0 42zm136 1l51 0 0 -17c0,-5 -2,-9 -5,-12 -3,-4 -7,-5 -12,-5l-17 0c-5,0 -9,1 -12,4 -2,2 -3,4 -4,6 -1,2 -1,4 -1,7l0 17zm0 17l0 16c0,5 1,9 5,13 1,1 3,2 5,3 2,1 5,1 7,1l42 0c2,0 4,1 6,3 2,2 2,4 2,6 0,2 0,4 -2,5 -1,2 -3,3 -6,3l-42 0c-9,0 -17,-3 -24,-10 -7,-6 -10,-14 -10,-24l0 -50c0,-10 3,-17 10,-24 6,-7 14,-10 24,-10l17 0c9,0 17,3 23,10 7,6 10,14 10,24l0 25c0,6 -2,9 -8,9l-59 0zm237 -5l-19 20 0 27c0,2 -1,5 -3,6 -1,2 -3,2 -6,2 -2,0 -4,0 -5,-2 -2,-1 -3,-3 -3,-6l0 -102c0,-2 1,-4 3,-6 1,-1 3,-2 5,-2 3,0 5,1 6,2 2,1 3,4 3,6l0 50 53 -56c2,-2 4,-3 6,-3 2,0 4,1 6,3 2,2 2,4 2,6 0,3 -1,5 -2,7l-34 35 34 54c2,3 2,5 2,6 0,2 -1,4 -2,6 -2,2 -4,2 -6,2 -3,0 -5,-1 -6,-3l-34 -52zm160 18c0,10 -3,19 -11,26 -7,8 -16,11 -26,11l-10 0c-10,0 -19,-3 -26,-11 -8,-7 -11,-16 -11,-26l0 -44c0,-10 3,-19 10,-26 8,-8 16,-11 27,-11l10 0c10,0 19,3 26,11 7,7 11,16 11,26l0 44zm-17 0l0 -44c0,-6 -2,-10 -6,-14 -4,-4 -8,-6 -14,-6l-10 0c-6,0 -11,2 -15,6 -4,3 -6,8 -6,14l0 44c0,6 2,10 6,14 4,4 9,6 15,6l10 0c5,0 10,-2 14,-5 4,-4 6,-9 6,-15zm152 29l0 -102c0,-3 0,-5 -2,-7 -1,-2 -3,-2 -5,-2 -3,0 -5,1 -8,4l-35 50 -36 -50c-2,-3 -5,-4 -8,-4 -2,0 -3,0 -5,2 -1,2 -2,4 -2,7l0 102c0,2 1,5 2,6 2,2 4,2 6,2 2,0 4,-1 6,-2 2,-1 3,-4 3,-6l0 -75 27 37c2,3 4,5 7,5 2,0 4,-2 6,-5l27 -37 0 75c0,2 1,5 3,6 1,2 3,2 6,2 2,0 4,-1 6,-2 1,-1 2,-4 2,-6zm119 0c0,5 -3,8 -9,8l-42 0c-9,0 -17,-3 -24,-10 -6,-6 -10,-14 -10,-24l0 -76c0,-2 1,-4 3,-6 1,-2 3,-2 6,-2 2,0 4,0 5,2 2,1 3,3 3,6l0 76c0,5 2,9 5,13 2,1 3,2 5,3 3,1 5,1 7,1l34 0 0 -93c0,-2 1,-4 2,-6 2,-2 4,-2 6,-2 2,0 4,0 6,2 2,1 3,3 3,6l0 102zm93 8l-26 0c-9,0 -17,-3 -23,-10 -7,-6 -10,-14 -10,-24l0 -50c0,-10 3,-18 9,-24 7,-7 15,-10 24,-10l26 0c2,0 4,1 6,2 1,2 2,4 2,6 0,2 0,4 -2,6 -1,2 -3,3 -6,3l-26 0c-4,0 -8,1 -12,4 -1,2 -3,4 -3,6 -1,2 -2,4 -2,7l0 50c0,5 2,9 5,13 2,1 4,2 6,3 2,1 4,1 6,1l26 0c2,0 4,1 6,3 1,2 2,4 2,6 0,2 0,4 -2,5 -1,2 -3,3 -6,3zm101 0l-25 0c-9,0 -17,-3 -24,-10 -7,-6 -10,-14 -10,-24l0 -50c0,-10 3,-18 10,-24 7,-7 15,-10 24,-10l25 0c3,0 5,1 6,2 2,2 3,4 3,6 0,2 -1,4 -2,6 -2,2 -4,3 -7,3l-25 0c-5,0 -9,1 -12,4 -2,2 -3,4 -4,6 -1,2 -1,4 -1,7l0 50c0,5 1,9 5,13 1,1 3,2 5,3 3,1 5,1 7,1l25 0c3,0 5,1 6,3 2,2 3,4 3,6 0,2 -1,4 -2,5 -2,2 -4,3 -7,3zm127 -8c0,5 -3,8 -8,8l-43 0c-9,0 -17,-3 -23,-10 -7,-6 -11,-14 -11,-24l0 -76c0,-2 1,-4 3,-6 2,-2 4,-2 6,-2 2,0 4,0 6,2 1,1 2,3 2,6l0 76c0,5 2,9 5,13 2,1 4,2 6,3 2,1 4,1 6,1l34 0 0 -93c0,-2 1,-4 3,-6 1,-2 3,-2 6,-2 2,0 4,0 5,2 2,1 3,3 3,6l0 102zm118 0c0,5 -2,8 -8,8l-42 0c-9,0 -17,-3 -24,-10 -7,-6 -10,-14 -10,-24l0 -76c0,-2 1,-4 2,-6 2,-2 4,-2 6,-2 2,0 4,0 6,2 2,1 3,3 3,6l0 76c0,5 1,9 5,13 1,1 3,2 5,3 2,1 5,1 7,1l34 0 0 -93c0,-2 0,-4 2,-6 2,-2 4,-2 6,-2 2,0 4,0 6,2 2,1 2,3 2,6l0 102zm195 8l-25 0c-10,0 -18,-3 -24,-10 -7,-6 -10,-14 -10,-24l0 -50c0,-10 3,-18 10,-24 6,-7 14,-10 24,-10l25 0c2,0 4,1 6,2 2,2 2,4 2,6 0,2 0,4 -2,6 -1,2 -3,3 -6,3l-26 0c-4,0 -8,1 -12,4 -1,2 -2,4 -3,6 -1,2 -2,4 -2,7l0 50c0,5 2,9 5,13 2,1 4,2 6,3 2,1 4,1 6,1l26 0c2,0 4,1 6,3 2,2 2,4 2,6 0,2 0,4 -2,5 -1,2 -3,3 -6,3zm110 0l-34 0c-9,0 -17,-3 -24,-10 -6,-6 -10,-14 -10,-24l0 -76c0,-2 1,-4 3,-6 1,-2 3,-2 6,-2 2,0 4,0 5,2 2,1 3,3 3,6l0 76c0,5 2,9 5,13 2,1 3,2 5,3 3,1 5,1 7,1l34 0 0 -93c0,-2 1,-4 2,-6 2,-2 4,-2 6,-2 2,0 4,0 6,2 2,1 3,3 3,6l0 127c0,9 -4,17 -10,24 -7,7 -15,10 -24,10l-34 0c-2,0 -4,-1 -6,-3 -2,-1 -2,-3 -2,-5 0,-3 0,-5 2,-6 1,-2 3,-3 6,-3l34 0c5,0 9,-1 12,-5 3,-3 5,-7 5,-12l0 -17zm118 -34l0 -50c0,-5 -1,-9 -4,-13 -4,-3 -8,-4 -13,-4l-17 0c-4,0 -9,1 -12,4 -1,2 -3,4 -3,6 -1,2 -2,4 -2,7l0 50c0,5 2,9 5,13 2,1 4,2 6,3 2,1 4,1 6,1l17 0c5,0 9,-1 12,-4 4,-3 5,-8 5,-13zm-27 -84l-38 -36c-2,-3 -3,-5 -3,-7 0,-2 1,-4 2,-5 2,-2 4,-3 7,-3l68 0c2,0 4,1 6,3 1,1 2,3 2,5 0,2 -1,4 -2,6 -1,2 -4,3 -6,3l-47 0 45 43 2 2c5,7 8,14 8,23l0 50c0,10 -3,18 -10,24 -6,7 -14,10 -24,10l-17 0c-9,0 -17,-3 -23,-10 -7,-6 -10,-14 -10,-24l0 -50c0,-10 3,-18 9,-24 7,-7 15,-10 24,-10l7 0zm103 67l0 34 34 0c5,0 9,-1 12,-5 4,-3 5,-7 5,-12 0,-4 -1,-8 -4,-11 -1,-2 -3,-3 -5,-4 -3,-1 -5,-2 -8,-2l-34 0zm0 -17l34 0c11,0 19,4 25,11 6,6 9,14 9,23 0,9 -3,17 -8,24 -7,7 -15,10 -26,10l-42 0c-6,0 -9,-3 -9,-8l0 -93 -8 0c-3,0 -5,-1 -6,-3 -2,-2 -3,-4 -3,-6 0,-2 1,-4 3,-6 1,-1 3,-2 6,-2l17 0c5,0 8,3 8,8l0 42zm119 1l50 0 0 -17c0,-5 -1,-9 -4,-12 -4,-4 -8,-5 -13,-5l-16 0c-5,0 -9,1 -13,4 -1,2 -2,4 -3,6 -1,2 -1,4 -1,7l0 17zm0 17l0 16c0,5 1,9 4,13 2,1 4,2 6,3 2,1 4,1 6,1l43 0c2,0 4,1 6,3 1,2 2,4 2,6 0,2 0,4 -2,5 -1,2 -3,3 -6,3l-42 0c-10,0 -18,-3 -24,-10 -7,-6 -10,-14 -10,-24l0 -50c0,-10 3,-17 9,-24 7,-7 15,-10 25,-10l16 0c10,0 18,3 24,10 7,6 10,14 10,24l0 25c0,6 -3,9 -8,9l-59 0zm135 -5l-19 20 0 27c0,2 -1,5 -2,6 -2,2 -4,2 -6,2 -2,0 -4,0 -6,-2 -2,-1 -3,-3 -3,-6l0 -102c0,-2 1,-4 3,-6 2,-1 4,-2 6,-2 2,0 4,1 6,2 1,1 2,4 2,6l0 50 54 -56c1,-2 3,-3 5,-3 2,0 4,1 6,3 2,2 3,4 3,6 0,3 -1,5 -3,7l-34 35 35 54c1,3 2,5 2,6 0,2 -1,4 -3,6 -2,2 -4,2 -6,2 -2,0 -4,-1 -6,-3l-34 -52z"/>
    <path class="fil3 str0" d="M7846 1842l-34 0 0 93c0,2 -1,5 -2,6 -2,2 -4,2 -6,2 -2,0 -4,0 -6,-2 -2,-1 -3,-3 -3,-6l0 -102c0,-5 3,-8 9,-8l76 0c9,0 17,3 24,10 6,6 10,14 10,24l0 76c0,2 -1,5 -3,6 -1,2 -3,2 -6,2 -2,0 -4,0 -6,-2 -1,-1 -2,-3 -2,-6l0 -76c0,-5 -2,-9 -5,-13 -3,-3 -7,-4 -12,-4l-17 0 0 93c0,2 -1,5 -2,6 -2,2 -4,2 -6,2 -3,0 -5,0 -6,-2 -2,-1 -3,-3 -3,-6l0 -93zm186 64c0,10 -3,19 -11,26 -7,8 -16,11 -26,11l-10 0c-10,0 -19,-3 -26,-11 -8,-7 -11,-16 -11,-26l0 -44c0,-10 3,-19 10,-26 8,-8 17,-11 27,-11l10 0c10,0 19,3 26,11 8,7 11,16 11,26l0 44zm-17 0l0 -44c0,-6 -2,-10 -5,-14 -4,-4 -9,-6 -15,-6l-10 0c-6,0 -11,2 -15,6 -4,3 -6,8 -6,14l0 44c0,6 2,10 6,14 4,4 9,6 15,6l10 0c6,0 10,-2 14,-5 4,-4 6,-9 6,-15zm119 3l0 -50c0,-5 -2,-9 -5,-12 -3,-4 -7,-5 -12,-5l-17 0c-5,0 -9,1 -12,5 -2,1 -3,3 -4,5 -1,2 -1,4 -1,7l0 50c0,5 1,9 5,13 1,1 3,2 5,3 3,1 5,1 7,1l17 0c4,0 8,-1 12,-4 3,-3 5,-7 5,-13zm-51 -78l7 -5 10 -7c3,-2 5,-4 7,-6 2,-3 3,-5 3,-8 0,-4 -1,-8 -4,-10 -3,-2 -6,-4 -10,-4 -3,0 -7,2 -9,4 -3,2 -4,5 -4,10l0 26zm34 -6c11,0 19,4 25,10 6,6 9,14 9,24l0 50c0,10 -4,18 -10,24 -7,7 -15,10 -24,10l-17 0c-9,0 -17,-3 -24,-10 -7,-6 -10,-14 -10,-24l0 -104c0,-10 3,-17 9,-23 6,-5 13,-8 22,-8 7,0 14,3 21,8 6,5 9,13 9,22 0,6 -1,10 -3,13 -1,3 -3,5 -7,8zm-3712 304l51 0c5,0 9,-1 12,-4 3,-4 5,-8 5,-13l0 -34c0,-4 -2,-8 -5,-12 -3,-3 -7,-4 -12,-4l-51 0 0 67zm0 17l0 59c0,3 -1,5 -2,7 -2,1 -4,2 -6,2 -3,0 -5,-1 -6,-2 -2,-2 -3,-4 -3,-7l0 -152c0,-5 3,-8 9,-8l59 0c9,0 17,3 24,10 6,6 10,14 10,24l0 33c0,10 -4,18 -10,24 -7,7 -15,10 -24,10l-51 0zm203 31c0,10 -4,18 -11,26 -7,7 -16,11 -26,11l-10 0c-10,0 -19,-4 -26,-11 -8,-7 -12,-16 -12,-26l0 -44c0,-10 4,-19 11,-26 8,-8 16,-12 27,-12l10 0c10,0 19,4 26,11 7,7 11,16 11,27l0 44zm-17 0l0 -44c0,-6 -2,-11 -6,-15 -4,-4 -8,-6 -14,-6l-10 0c-6,0 -11,2 -15,6 -4,4 -6,9 -6,15l0 44c0,5 2,10 6,14 4,4 9,6 15,6l10 0c5,0 10,-2 14,-6 4,-4 6,-8 6,-14zm110 37l-25 0c-9,0 -17,-3 -24,-10 -7,-6 -10,-14 -10,-24l0 -51c0,-9 3,-17 10,-24 6,-6 14,-10 24,-10l25 0c2,0 4,1 6,3 2,2 3,4 3,6 0,2 -1,4 -3,5 -1,2 -3,3 -6,3l-25 0c-5,0 -9,2 -12,5 -2,2 -3,4 -4,6 -1,2 -1,4 -1,6l0 51c0,5 1,9 5,12 1,2 3,3 5,4 2,1 5,1 7,1l25 0c2,0 4,1 6,3 2,1 3,3 3,6 0,1 -1,3 -3,5 -1,2 -3,3 -6,3zm102 0l-26 0c-9,0 -17,-3 -24,-10 -6,-6 -10,-14 -10,-24l0 -51c0,-9 4,-17 10,-24 7,-6 15,-10 24,-10l26 0c2,0 4,1 6,3 1,2 2,4 2,6 0,2 -1,4 -2,5 -1,2 -4,3 -6,3l-26 0c-5,0 -9,2 -12,5 -2,2 -3,4 -4,6 0,2 -1,4 -1,6l0 51c0,5 2,9 5,12 2,2 3,3 5,4 3,1 5,1 7,1l26 0c2,0 4,1 6,3 1,1 2,3 2,6 0,1 -1,3 -2,5 -1,2 -4,3 -6,3zm126 -9c0,6 -2,9 -8,9l-42 0c-9,0 -17,-3 -24,-10 -7,-6 -10,-14 -10,-24l0 -76c0,-2 1,-4 2,-6 2,-2 4,-3 6,-3 2,0 4,1 6,3 2,1 3,3 3,6l0 76c0,5 1,9 4,12 2,2 4,3 6,4 2,1 5,1 7,1l34 0 0 -93c0,-2 0,-4 2,-6 2,-2 4,-3 6,-3 2,0 4,1 6,3 2,1 2,3 2,6l0 101zm93 -143l-33 0c-3,0 -5,-1 -7,-3 -1,-2 -2,-4 -2,-6 0,-2 1,-4 2,-6 2,-1 4,-2 7,-2l33 0c3,0 5,1 6,2 2,2 3,4 3,6 0,2 -1,4 -2,6 -2,2 -4,3 -7,3zm26 143c0,6 -3,9 -9,9l-42 0c-9,0 -17,-3 -24,-10 -6,-6 -10,-14 -10,-24l0 -76c0,-2 1,-4 3,-6 1,-2 3,-2 6,-2 2,0 4,0 5,2 2,1 3,3 3,6l0 76c0,5 2,9 5,12 2,2 3,3 5,4 3,1 5,1 7,1l34 0 0 -93c0,-2 1,-4 2,-6 2,-2 4,-2 6,-2 2,0 4,0 6,2 2,1 3,3 3,6l0 101zm93 9l-26 0c-9,0 -17,-3 -23,-10 -7,-6 -10,-14 -10,-24l0 -51c0,-9 3,-17 9,-24 7,-6 15,-10 24,-10l26 0c2,0 4,1 6,3 1,2 2,4 2,6 0,2 0,4 -2,5 -1,2 -3,3 -6,3l-26 0c-4,0 -9,2 -12,5 -1,2 -3,4 -3,6 -1,2 -2,4 -2,6l0 51c0,5 2,9 5,12 2,2 4,3 6,4 2,1 4,1 6,1l26 0c2,0 4,1 6,3 1,1 2,3 2,6 0,1 0,3 -2,5 -1,2 -3,3 -6,3zm76 -55l-19 19 0 27c0,3 -1,5 -2,7 -2,1 -4,2 -6,2 -3,0 -5,-1 -6,-2 -2,-2 -3,-4 -3,-7l0 -101c0,-2 1,-4 3,-6 1,-2 3,-2 6,-2 2,0 4,0 5,2 2,1 3,3 3,6l0 50 54 -56c1,-2 3,-3 5,-3 2,0 4,1 6,3 2,1 3,4 3,6 0,2 -1,5 -3,6l-34 36 35 54c1,2 2,4 2,6 0,2 -1,4 -3,6 -2,1 -4,2 -6,2 -2,0 -4,-1 -6,-3l-34 -52zm160 18c0,10 -3,18 -10,26 -8,7 -16,11 -27,11l-10 0c-10,0 -19,-4 -26,-11 -8,-7 -11,-16 -11,-26l0 -44c0,-10 3,-19 11,-26 7,-8 16,-12 26,-12l10 0c10,0 19,4 26,11 8,7 11,16 11,27l0 44zm-16 0l0 -44c0,-6 -2,-11 -6,-15 -4,-4 -9,-6 -15,-6l-10 0c-6,0 -10,2 -14,6 -4,4 -6,9 -6,15l0 44c0,5 2,10 6,14 3,4 8,6 14,6l10 0c6,0 10,-2 14,-6 5,-4 7,-8 7,-14zm109 -115l-34 0c-2,0 -4,-1 -6,-3 -1,-2 -2,-4 -2,-6 0,-2 1,-4 2,-6 2,-1 4,-2 6,-2l34 0c3,0 5,1 6,2 2,2 3,4 3,6 0,2 -1,4 -2,6 -2,2 -4,3 -7,3zm26 143c0,6 -3,9 -9,9l-42 0c-9,0 -17,-3 -24,-10 -6,-6 -10,-14 -10,-24l0 -76c0,-2 1,-4 3,-6 1,-2 3,-2 6,-2 2,0 4,0 5,2 2,1 3,3 3,6l0 76c0,5 2,9 5,12 2,2 3,3 5,4 3,1 5,1 7,1l34 0 0 -93c0,-2 1,-4 2,-6 2,-2 4,-2 6,-2 2,0 4,0 6,2 2,1 3,3 3,6l0 101zm211 -118l0 76 8 0c10,0 18,-3 24,-10 7,-6 10,-14 10,-24l0 -8c0,-9 -3,-17 -10,-24 -6,-7 -14,-10 -24,-10l-8 0zm-17 76l0 -76 -8 0c-10,0 -17,3 -24,10 -7,6 -10,14 -10,24l0 8c0,10 3,18 10,24 6,7 14,10 24,10l8 0zm0 17l-8 0c-14,0 -26,-5 -36,-15 -10,-9 -15,-21 -15,-36l0 -8c0,-14 5,-26 15,-36 10,-10 22,-15 36,-15l8 0 0 -17c0,-2 1,-4 3,-6 1,-2 3,-2 6,-2 2,0 4,0 5,2 2,1 3,3 3,6l0 17 8 0c14,0 26,5 36,15 5,5 8,10 11,16 3,6 4,13 4,20l0 8c0,14 -5,26 -15,36 -10,10 -22,15 -36,15l-8 0 0 26c0,2 -1,4 -2,6 -2,1 -4,2 -6,2 -3,0 -5,-1 -6,-2 -2,-2 -3,-4 -3,-6l0 -26zm127 -34l51 0 0 -17c0,-4 -2,-9 -5,-12 -3,-3 -7,-5 -12,-5l-17 0c-5,0 -9,2 -12,5 -2,2 -3,4 -4,6 -1,2 -1,4 -1,6l0 17zm0 17l0 17c0,5 2,9 5,12 1,2 3,3 5,4 3,1 5,1 7,1l42 0c3,0 5,1 6,3 2,1 3,3 3,6 0,1 -1,3 -2,5 -2,2 -4,3 -7,3l-42 0c-9,0 -17,-3 -24,-10 -7,-6 -10,-14 -10,-24l0 -51c0,-9 3,-17 10,-23 6,-7 14,-11 24,-11l17 0c9,0 17,4 24,10 6,7 10,15 10,24l0 26c0,5 -3,8 -9,8l-59 0zm169 -51l-34 0c-5,0 -9,2 -12,5 -1,2 -3,4 -4,6 0,2 -1,4 -1,6l0 51c0,5 2,9 5,12 2,2 4,3 6,4 2,1 4,1 6,1l17 0c5,0 9,-1 12,-5 4,-3 5,-7 5,-12l0 -68zm0 -17l0 -17c0,-4 -1,-8 -5,-12 -3,-3 -7,-4 -12,-4l-34 0c-2,0 -4,-1 -6,-3 -1,-2 -2,-4 -2,-6 0,-2 1,-4 2,-6 1,-1 4,-2 6,-2l34 0c10,0 18,3 24,10 7,6 10,14 10,24l0 101c0,9 -3,17 -10,24 -6,7 -14,10 -24,10l-17 0c-9,0 -17,-3 -23,-10 -7,-6 -11,-14 -11,-24l0 -51c0,-9 4,-17 10,-24 7,-6 15,-10 24,-10l34 0zm68 51l51 0 0 -17c0,-4 -2,-9 -5,-12 -3,-3 -7,-5 -12,-5l-17 0c-5,0 -9,2 -12,5 -2,2 -3,4 -4,6 -1,2 -1,4 -1,6l0 17zm0 17l0 17c0,5 1,9 4,12 2,2 4,3 6,4 2,1 5,1 7,1l42 0c2,0 4,1 6,3 2,1 2,3 2,6 0,1 0,3 -2,5 -1,2 -3,3 -6,3l-42 0c-10,0 -17,-3 -24,-10 -7,-6 -10,-14 -10,-24l0 -51c0,-9 3,-17 10,-23 6,-7 14,-11 24,-11l17 0c9,0 17,4 23,10 7,7 10,15 10,24l0 26c0,5 -2,8 -8,8l-59 0zm118 34l34 0c5,0 9,-1 12,-5 3,-3 5,-7 5,-12l0 -51c0,-5 -2,-9 -5,-12 -3,-3 -7,-5 -12,-5l-34 0 0 85zm0 17l0 42c0,3 -1,5 -3,6 -1,2 -3,3 -5,3 -2,0 -4,-1 -6,-2 -2,-2 -3,-4 -3,-7l0 -152c0,-6 3,-9 9,-9l42 0c9,0 17,4 24,10 6,7 10,15 10,24l0 51c0,9 -3,17 -10,24 -7,7 -15,10 -24,10l-34 0zm169 -34l0 -68 -34 0c-4,0 -8,2 -12,5 -1,2 -3,4 -3,6 -1,2 -2,4 -2,6l0 51c0,5 2,9 5,12 2,2 4,3 6,4 2,1 4,1 6,1l17 0c5,0 9,-1 12,-5 4,-3 5,-7 5,-12zm9 23c-3,3 -7,6 -12,8 -4,2 -9,3 -14,3l-17 0c-9,0 -17,-3 -23,-10 -7,-6 -10,-14 -10,-24l0 -51c0,-9 3,-17 9,-24 7,-6 15,-10 24,-10l43 0c5,0 8,3 8,9l0 76c0,3 1,7 3,10 2,3 5,6 9,8 3,1 5,4 5,7 0,3 -1,5 -2,6 -2,2 -4,3 -6,3 -1,0 -3,0 -4,-1 -5,-2 -10,-6 -13,-10zm110 -6l0 -93c0,-2 1,-4 2,-6 2,-2 4,-3 6,-3 2,0 4,1 6,3 2,1 3,3 3,6l0 93 8 0c6,0 8,3 8,9l0 15c0,2 0,4 -2,6 -2,1 -4,2 -6,2 -2,0 -4,0 -6,-2 -2,-1 -2,-3 -2,-6l0 -7 -51 0c-9,0 -17,-3 -24,-10 -7,-6 -10,-14 -10,-24l0 -76c0,-2 1,-4 2,-6 2,-2 4,-3 6,-3 3,0 4,1 6,3 2,1 3,3 3,6l0 76c0,5 1,9 5,12 1,2 3,3 5,4 3,1 5,1 7,1l34 0zm135 8c0,6 -3,9 -9,9l-42 0c-9,0 -17,-3 -24,-10 -6,-6 -10,-14 -10,-24l0 -76c0,-2 1,-4 3,-6 2,-2 4,-3 6,-3 2,0 4,1 6,3 1,1 2,3 2,6l0 76c0,5 2,9 5,12 2,2 4,3 5,4 3,1 5,1 7,1l34 0 0 -93c0,-2 1,-4 3,-6 1,-2 3,-3 6,-3 2,0 4,1 5,3 2,1 3,3 3,6l0 101zm118 0c0,6 -3,9 -8,9l-42 0c-10,0 -17,-3 -24,-10 -7,-6 -10,-14 -10,-24l0 -76c0,-2 1,-4 2,-6 2,-2 4,-3 6,-3 2,0 4,1 6,3 2,1 3,3 3,6l0 76c0,5 1,9 4,12 2,2 4,3 6,4 2,1 4,1 6,1l34 0 0 -93c0,-2 1,-4 3,-6 2,-2 4,-3 6,-3 2,0 4,1 6,3 1,1 2,3 2,6l0 101z"/>
   </g>
   <g>
    <path class="fil1" d="M3794 5567l-811 0 0 662 811 0 0 -662zm-95 77l0 508 -621 0 0 -508 621 0z"/>
    <path class="fil2" d="M3381 6143l-338 -337 111 -74 209 209 540 -735 122 60 -644 877z"/>
   </g>
   <g>
    <path class="fil3 str0" d="M4473 2830c0,6 -3,9 -9,9l-42 0c-9,0 -17,-4 -24,-10 -6,-7 -10,-15 -10,-24l0 -76c0,-3 1,-5 3,-7 1,-1 3,-2 6,-2 2,0 4,1 5,2 2,2 3,4 3,7l0 76c0,5 2,9 5,12 2,1 3,3 5,4 3,0 5,1 7,1l34 0 0 -93c0,-3 1,-5 2,-7 2,-1 4,-2 6,-2 3,0 5,1 6,2 2,2 3,4 3,7l0 101zm78 -42l-10 0c-3,0 -5,-1 -7,-3 -1,-1 -2,-3 -2,-6 0,-2 1,-4 2,-5 2,-2 4,-3 7,-3l8 0c5,0 9,-2 12,-5 3,-4 5,-8 5,-12 0,-5 -1,-9 -4,-12 -2,-1 -3,-3 -6,-4 -2,-1 -4,-1 -7,-1l-8 0c-8,0 -15,2 -21,7 -1,1 -3,1 -5,2 -2,0 -4,-1 -6,-3 -2,-2 -2,-4 -2,-6 0,-3 1,-5 3,-7 9,-7 19,-10 31,-10l8 0c11,0 19,4 25,11 6,6 9,14 9,23 0,3 0,5 -1,7 0,2 -1,5 -2,7 -2,4 -4,8 -8,11 3,3 6,7 8,12l2 7c1,2 1,4 1,7 0,9 -3,17 -9,23 -6,7 -14,11 -25,11l-8 0c-12,0 -22,-4 -31,-11 -2,-1 -3,-3 -3,-6 0,-2 0,-4 2,-6 2,-2 4,-3 6,-3 2,0 3,1 5,2 6,5 13,7 21,7l8 0c5,0 9,-2 12,-5 3,-4 5,-8 5,-12 0,-5 -1,-8 -4,-11 -2,-4 -6,-5 -11,-6zm133 17l0 -51c0,-5 -1,-9 -5,-12 -3,-3 -7,-5 -12,-5l-17 0c-4,0 -9,2 -12,5 -1,1 -3,3 -3,5 -1,2 -2,5 -2,7l0 51c0,5 2,9 5,12 2,1 4,3 6,4 2,0 4,1 6,1l17 0c5,0 9,-2 12,-5 4,-3 5,-7 5,-12zm-27 -85l-38 -36c-2,-2 -3,-5 -3,-7 0,-2 1,-3 2,-5 2,-2 4,-3 7,-3l68 0c2,0 4,1 6,3 1,2 2,4 2,6 0,2 -1,4 -2,5 -1,2 -4,3 -6,3l-47 0 45 43 2 3c5,6 8,14 8,22l0 51c0,9 -3,17 -10,24 -6,6 -14,10 -24,10l-17 0c-9,0 -17,-4 -23,-10 -7,-7 -11,-15 -11,-24l0 -51c0,-9 4,-17 10,-24 7,-7 15,-10 24,-10l7 0zm162 110c0,6 -2,9 -8,9l-42 0c-9,0 -17,-4 -24,-10 -7,-7 -10,-15 -10,-24l0 -76c0,-3 1,-5 2,-7 2,-1 4,-2 6,-2 2,0 4,1 6,2 2,2 3,4 3,7l0 76c0,5 1,9 5,12 1,1 3,3 5,4 2,0 5,1 7,1l34 0 0 -93c0,-3 0,-5 2,-7 2,-1 4,-2 6,-2 2,0 4,1 6,2 2,2 2,4 2,7l0 101zm51 -8l34 0c5,0 9,-2 12,-5 3,-3 5,-7 5,-12l0 -51c0,-5 -2,-9 -5,-12 -3,-3 -7,-5 -12,-5l-34 0 0 85zm0 17l0 42c0,2 -1,4 -3,6 -1,1 -3,2 -5,2 -2,0 -4,0 -6,-2 -2,-1 -3,-3 -3,-6l0 -152c0,-6 3,-9 9,-9l42 0c9,0 17,3 24,10 6,7 10,15 10,24l0 51c0,9 -3,17 -10,24 -7,6 -15,10 -24,10l-34 0zm169 -34l0 -68 -34 0c-4,0 -8,2 -12,5 -1,1 -3,3 -3,5 -1,2 -2,5 -2,7l0 51c0,5 2,9 5,12 2,1 4,3 6,4 2,0 4,1 6,1l17 0c5,0 9,-2 12,-5 4,-3 5,-7 5,-12zm9 22c-3,4 -7,6 -12,8 -4,3 -9,4 -14,4l-17 0c-9,0 -17,-4 -23,-10 -7,-7 -10,-15 -10,-24l0 -51c0,-9 3,-17 9,-24 7,-7 15,-10 24,-10l43 0c5,0 8,3 8,9l0 76c0,3 1,6 3,10 2,3 5,6 9,7 3,2 5,4 5,8 0,2 -1,4 -2,6 -2,2 -4,3 -6,3 -1,0 -3,-1 -4,-1 -5,-2 -10,-6 -13,-11zm93 -90l-34 0 0 93c0,3 -1,5 -3,7 -1,1 -3,2 -6,2 -2,0 -4,-1 -6,-2 -1,-2 -2,-4 -2,-7l0 -101c0,-6 3,-9 8,-9l76 0c10,0 18,3 24,10 7,7 10,15 10,24l0 76c0,3 -1,5 -2,7 -2,1 -4,2 -6,2 -2,0 -4,-1 -6,-2 -2,-2 -3,-4 -3,-7l0 -76c0,-5 -1,-9 -4,-12 -4,-3 -8,-5 -13,-5l-17 0 0 93c0,3 0,5 -2,7 -1,1 -3,2 -6,2 -2,0 -4,-1 -6,-2 -2,-2 -2,-4 -2,-7l0 -93zm118 34l51 0 0 -17c0,-5 -2,-9 -5,-12 -3,-3 -7,-5 -12,-5l-17 0c-5,0 -9,2 -12,5 -2,1 -3,3 -4,5 -1,2 -1,5 -1,7l0 17zm0 17l0 17c0,5 2,9 5,12 2,1 3,3 5,4 3,0 5,1 7,1l42 0c3,0 5,1 6,2 2,2 3,4 3,6 0,2 -1,4 -2,6 -2,2 -4,3 -7,3l-42 0c-9,0 -17,-4 -24,-10 -7,-7 -10,-15 -10,-24l0 -51c0,-9 3,-17 10,-24 6,-7 14,-10 24,-10l17 0c9,0 17,3 24,10 6,7 10,15 10,24l0 25c0,6 -3,9 -9,9l-59 0zm186 42c0,3 -1,5 -2,7 -2,1 -4,2 -6,2 -3,0 -5,-1 -6,-2 -2,-2 -3,-4 -3,-7l0 -93 -19 0 -32 96c0,2 -2,3 -3,4 0,1 -2,1 -5,2 -2,0 -4,-1 -6,-3 -1,-1 -2,-3 -2,-6l0 -3 34 -101c1,-4 4,-6 8,-6l34 0c5,0 8,3 8,9l0 101zm51 -42l0 34 34 0c5,0 9,-2 12,-5 3,-4 5,-8 5,-12 0,-5 -2,-9 -4,-12 -2,-2 -4,-3 -6,-4 -2,-1 -4,-1 -7,-1l-34 0zm0 -17l34 0c10,0 19,3 25,10 6,7 8,15 8,24 0,9 -2,16 -8,23 -6,7 -15,11 -25,11l-43 0c-5,0 -8,-3 -8,-9l0 -101c0,-3 1,-5 2,-7 2,-1 4,-2 6,-2 2,0 4,1 6,2 2,2 3,4 3,7l0 42zm169 0l0 -42c0,-3 1,-5 3,-7 1,-1 3,-2 5,-2 3,0 5,1 6,2 2,2 3,4 3,7l0 101c0,3 -1,5 -3,7 -1,1 -3,2 -6,2 -2,0 -4,-1 -5,-3 -2,-1 -3,-3 -3,-6l0 -42 -51 0 0 42c0,3 -1,5 -2,7 -2,1 -4,2 -6,2 -3,0 -5,-1 -6,-2 -2,-2 -3,-4 -3,-7l0 -101c0,-3 1,-5 3,-7 1,-1 3,-2 6,-2 2,0 4,1 5,2 2,2 3,4 3,7l0 42 51 0zm152 59c0,3 -1,5 -2,7 -2,1 -4,2 -6,2 -3,0 -5,-1 -6,-2 -2,-2 -3,-4 -3,-7l0 -101c0,-3 1,-5 3,-7 1,-1 3,-2 6,-2 2,0 4,1 5,2 2,2 3,4 3,7l0 101zm-85 -42l0 34 17 0c6,0 10,-2 13,-5 3,-4 4,-8 4,-12 0,-5 -1,-9 -4,-12 -1,-2 -3,-3 -5,-4 -2,-1 -5,-1 -8,-1l-17 0zm0 -17l17 0c11,0 19,3 26,10 5,7 8,15 8,24 0,9 -3,16 -8,23 -7,7 -15,11 -26,11l-25 0c-6,0 -8,-3 -8,-9l0 -101c0,-3 0,-5 2,-7 2,-1 4,-2 6,-2 2,0 4,1 6,2 2,2 2,4 2,7l0 42zm136 0l51 0 0 -17c0,-5 -2,-9 -5,-12 -3,-3 -7,-5 -12,-5l-17 0c-5,0 -9,2 -12,5 -2,1 -3,3 -4,5 -1,2 -1,5 -1,7l0 17zm0 17l0 17c0,5 1,9 5,12 1,1 3,3 5,4 2,0 5,1 7,1l42 0c2,0 4,1 6,2 2,2 2,4 2,6 0,2 0,4 -2,6 -1,2 -3,3 -6,3l-42 0c-9,0 -17,-4 -24,-10 -7,-7 -10,-15 -10,-24l0 -51c0,-9 3,-17 10,-24 6,-7 14,-10 24,-10l17 0c9,0 17,3 23,10 7,7 10,15 10,24l0 25c0,6 -2,9 -8,9l-59 0zm237 -5l-19 20 0 27c0,3 -1,5 -3,7 -1,1 -3,2 -6,2 -2,0 -4,-1 -5,-2 -2,-2 -3,-4 -3,-7l0 -101c0,-3 1,-5 3,-7 1,-1 3,-2 5,-2 3,0 5,1 6,2 2,2 3,4 3,7l0 50 53 -57c2,-1 4,-2 6,-2 2,0 4,1 6,2 2,2 2,4 2,7 0,2 -1,4 -2,6l-34 36 34 54c2,2 2,4 2,5 0,3 -1,5 -2,6 -2,2 -4,3 -6,3 -3,0 -5,-1 -6,-3l-34 -53zm160 18c0,10 -3,19 -11,27 -7,7 -16,11 -26,11l-10 0c-10,0 -19,-4 -26,-11 -8,-7 -11,-16 -11,-27l0 -44c0,-10 3,-18 10,-26 8,-7 16,-11 27,-11l10 0c10,0 19,4 26,11 7,7 11,16 11,26l0 44zm-17 0l0 -44c0,-5 -2,-10 -6,-14 -4,-4 -8,-6 -14,-6l-10 0c-6,0 -11,2 -15,6 -4,4 -6,9 -6,14l0 44c0,6 2,11 6,15 4,4 9,6 15,6l10 0c5,0 10,-2 14,-6 4,-4 6,-9 6,-15zm152 29l0 -101c0,-3 0,-6 -2,-8 -1,-1 -3,-2 -5,-2 -3,0 -5,1 -8,5l-35 49 -36 -49c-2,-4 -5,-5 -8,-5 -2,0 -3,1 -5,3 -1,1 -2,4 -2,7l0 101c0,3 1,5 2,7 2,1 4,2 6,2 2,0 4,-1 6,-3 2,-1 3,-3 3,-6l0 -75 27 38c2,3 4,4 7,4 2,0 4,-1 6,-4l27 -38 0 75c0,3 1,5 3,7 1,1 3,2 6,2 2,0 4,-1 6,-3 1,-1 2,-3 2,-6zm119 0c0,6 -3,9 -9,9l-42 0c-9,0 -17,-4 -24,-10 -6,-7 -10,-15 -10,-24l0 -76c0,-3 1,-5 3,-7 1,-1 3,-2 6,-2 2,0 4,1 5,2 2,2 3,4 3,7l0 76c0,5 2,9 5,12 2,1 3,3 5,4 3,0 5,1 7,1l34 0 0 -93c0,-3 1,-5 2,-7 2,-1 4,-2 6,-2 2,0 4,1 6,2 2,2 3,4 3,7l0 101zm93 9l-26 0c-9,0 -17,-4 -23,-10 -7,-7 -10,-15 -10,-24l0 -51c0,-9 3,-17 9,-24 7,-7 15,-10 24,-10l26 0c2,0 4,1 6,3 1,1 2,3 2,6 0,1 0,3 -2,5 -1,2 -3,3 -6,3l-26 0c-4,0 -8,2 -12,5 -1,1 -3,3 -3,5 -1,2 -2,5 -2,7l0 51c0,5 2,9 5,12 2,1 4,3 6,4 2,0 4,1 6,1l26 0c2,0 4,1 6,2 1,2 2,4 2,6 0,2 0,4 -2,6 -1,2 -3,3 -6,3zm101 0l-25 0c-9,0 -17,-4 -24,-10 -7,-7 -10,-15 -10,-24l0 -51c0,-9 3,-17 10,-24 7,-7 15,-10 24,-10l25 0c3,0 5,1 6,3 2,1 3,3 3,6 0,1 -1,3 -2,5 -2,2 -4,3 -7,3l-25 0c-5,0 -9,2 -12,5 -2,1 -3,3 -4,5 -1,2 -1,5 -1,7l0 51c0,5 1,9 5,12 1,1 3,3 5,4 3,0 5,1 7,1l25 0c3,0 5,1 6,2 2,2 3,4 3,6 0,2 -1,4 -2,6 -2,2 -4,3 -7,3zm127 -9c0,6 -3,9 -8,9l-43 0c-9,0 -17,-4 -23,-10 -7,-7 -11,-15 -11,-24l0 -76c0,-3 1,-5 3,-7 2,-1 4,-2 6,-2 2,0 4,1 6,2 1,2 2,4 2,7l0 76c0,5 2,9 5,12 2,1 4,3 6,4 2,0 4,1 6,1l34 0 0 -93c0,-3 1,-5 3,-7 1,-1 3,-2 6,-2 2,0 4,1 5,2 2,2 3,4 3,7l0 101zm118 0c0,6 -2,9 -8,9l-42 0c-9,0 -17,-4 -24,-10 -7,-7 -10,-15 -10,-24l0 -76c0,-3 1,-5 2,-7 2,-1 4,-2 6,-2 2,0 4,1 6,2 2,2 3,4 3,7l0 76c0,5 1,9 5,12 1,1 3,3 5,4 2,0 5,1 7,1l34 0 0 -93c0,-3 0,-5 2,-7 2,-1 4,-2 6,-2 2,0 4,1 6,2 2,2 2,4 2,7l0 101zm-2468 271l0 -102c0,-3 -1,-5 -3,-7 -1,-2 -3,-2 -5,-2 -2,0 -5,1 -8,4l-35 50 -35 -50c-3,-3 -5,-4 -8,-4 -2,0 -4,0 -6,2 -1,2 -2,4 -2,7l0 102c0,2 1,5 3,6 1,2 3,2 6,2 2,0 4,0 5,-2 2,-1 3,-4 3,-6l0 -75 27 38c2,2 5,4 7,4 2,0 4,-2 7,-4l27 -38 0 75c0,2 1,5 2,6 2,2 4,2 6,2 2,0 4,0 6,-2 2,-1 3,-4 3,-6zm101 8l-34 0c-9,0 -17,-3 -23,-10 -7,-6 -11,-14 -11,-24l0 -76c0,-2 1,-4 3,-6 2,-1 4,-2 6,-2 2,0 4,0 6,2 1,1 2,3 2,6l0 77c0,4 2,8 5,12 2,1 4,2 6,3 2,1 4,1 6,1l34 0 0 -93c0,-2 1,-4 3,-6 1,-1 3,-2 6,-2 2,0 4,0 5,2 2,1 3,3 3,6l0 127c0,9 -3,17 -10,24 -6,7 -14,10 -24,10l-34 0c-2,0 -4,-1 -6,-3 -1,-1 -2,-3 -2,-5 0,-3 1,-5 2,-6 1,-2 4,-3 6,-3l34 0c5,0 9,-1 12,-5 4,-3 5,-7 5,-12l0 -17zm119 -67l0 -43c0,-2 0,-4 2,-6 2,-1 4,-2 6,-2 2,0 4,0 6,2 2,1 2,3 2,6l0 102c0,2 0,5 -2,6 -1,2 -3,2 -6,2 -2,0 -4,0 -6,-2 -2,-1 -2,-3 -2,-6l0 -43 -51 0 0 43c0,2 -1,5 -3,6 -1,2 -3,2 -6,2 -2,0 -4,0 -6,-2 -1,-1 -2,-3 -2,-6l0 -102c0,-2 1,-4 2,-6 2,-1 4,-2 6,-2 2,0 4,0 6,2 2,1 3,3 3,6l0 43 51 0zm135 59c0,5 -3,8 -9,8l-42 0c-9,0 -17,-3 -24,-10 -6,-6 -10,-14 -10,-24l0 -76c0,-2 1,-4 3,-6 1,-1 3,-2 6,-2 2,0 4,0 5,2 2,1 3,3 3,6l0 77c0,4 2,8 5,12 2,1 3,2 5,3 3,1 5,1 7,1l34 0 0 -93c0,-2 1,-4 3,-6 1,-1 3,-2 5,-2 3,0 5,0 6,2 2,1 3,3 3,6l0 102zm101 -9l0 -93c0,-2 1,-4 3,-6 2,-1 4,-2 6,-2 2,0 4,0 6,2 1,1 2,3 2,6l0 93 9 0c5,0 8,3 8,9l0 15c0,2 -1,4 -3,6 -1,2 -3,3 -5,3 -2,0 -4,-1 -6,-3 -2,-1 -3,-3 -3,-6l0 -7 -51 0c-9,0 -17,-3 -23,-10 -7,-6 -10,-14 -10,-24l0 -76c0,-2 0,-4 2,-6 2,-1 4,-2 6,-2 2,0 4,0 6,2 2,1 2,3 2,6l0 77c0,4 2,8 5,12 2,1 4,2 6,3 2,1 4,1 6,1l34 0zm136 9c0,5 -3,8 -9,8l-42 0c-9,0 -17,-3 -24,-10 -7,-6 -10,-14 -10,-24l0 -76c0,-2 1,-4 2,-6 2,-1 4,-2 6,-2 3,0 4,0 6,2 2,1 3,3 3,6l0 77c0,4 1,8 5,12 1,1 3,2 5,3 3,1 5,1 7,1l34 0 0 -93c0,-2 1,-4 2,-6 2,-1 4,-2 6,-2 2,0 4,0 6,2 2,1 3,3 3,6l0 102zm118 0c0,2 -1,5 -2,6 -2,2 -4,2 -6,2 -3,0 -5,0 -6,-2 -2,-1 -3,-3 -3,-6l0 -76c0,-5 -2,-9 -5,-12 -3,-4 -7,-5 -12,-5l-34 0 0 93c0,2 -1,5 -2,6 -2,2 -4,2 -6,2 -2,0 -4,0 -6,-2 -2,-1 -3,-3 -3,-6l0 -102c0,-5 3,-8 9,-8l42 0c9,0 17,3 24,10 7,6 10,14 10,24l0 76z"/>
    <path class="fil3 str0" d="M5301 3075l0 -67 -34 0c-4,0 -8,1 -12,4 -1,2 -2,4 -3,6 -1,2 -1,4 -1,7l0 50c0,5 1,9 4,13 2,1 4,2 6,3 2,1 4,1 6,1l17 0c5,0 9,-1 12,-4 4,-3 5,-7 5,-13zm9 23c-3,3 -7,6 -11,8 -5,2 -10,3 -15,3l-16 0c-10,0 -17,-3 -24,-10 -7,-6 -10,-14 -10,-24l0 -50c0,-10 3,-18 10,-24 6,-7 14,-10 24,-10l42 0c5,0 8,3 8,8l0 76c0,4 1,7 4,11 1,3 4,5 8,7 4,1 5,4 5,8 0,2 -1,4 -2,6 -2,1 -4,2 -6,2 -1,0 -3,0 -4,-1 -5,-2 -10,-5 -13,-10zm127 3c0,2 -1,5 -3,6 -1,2 -3,2 -6,2 -2,0 -4,0 -6,-2 -1,-1 -2,-3 -2,-6l0 -93 -20 0 -31 95c-1,2 -2,4 -3,5 -1,0 -2,1 -5,1 -2,0 -4,-1 -6,-2 -2,-2 -3,-3 -3,-6l1 -3 33 -101c2,-4 4,-6 8,-6l34 0c6,0 9,3 9,8l0 102zm50 -43l0 34 34 0c5,0 10,-1 13,-5 3,-3 4,-7 4,-12 0,-4 -1,-8 -4,-11 -1,-2 -3,-3 -5,-4 -2,-1 -5,-2 -8,-2l-34 0zm0 -16l34 0c11,0 19,3 26,10 5,6 8,14 8,23 0,9 -3,17 -8,24 -7,7 -15,10 -26,10l-42 0c-6,0 -9,-3 -9,-8l0 -102c0,-2 1,-4 3,-6 2,-1 4,-2 6,-2 2,0 4,0 6,2 1,1 2,3 2,6l0 43zm170 0l0 -43c0,-2 0,-4 2,-6 2,-1 4,-2 6,-2 2,0 4,0 6,2 2,1 2,3 2,6l0 102c0,2 0,5 -2,6 -2,2 -4,2 -6,2 -2,0 -4,0 -6,-2 -2,-1 -2,-3 -2,-6l0 -43 -51 0 0 43c0,2 -1,5 -3,6 -1,2 -3,2 -6,2 -2,0 -4,0 -6,-2 -1,-1 -2,-3 -2,-6l0 -102c0,-2 1,-4 2,-6 2,-1 4,-2 6,-2 2,0 4,0 6,2 2,1 3,3 3,6l0 43 51 0zm152 59c0,2 -1,5 -3,6 -1,2 -3,2 -6,2 -2,0 -4,0 -6,-2 -1,-1 -2,-3 -2,-6l0 -102c0,-2 1,-4 2,-6 2,-1 4,-2 6,-2 2,0 4,0 6,2 2,1 3,3 3,6l0 102zm-85 -43l0 34 17 0c5,0 9,-1 12,-5 3,-3 5,-7 5,-12 0,-4 -1,-8 -4,-11 -2,-2 -3,-3 -6,-4 -2,-1 -4,-2 -7,-2l-17 0zm0 -16l17 0c11,0 19,3 25,10 6,6 9,14 9,23 0,9 -3,17 -9,24 -6,7 -14,10 -25,10l-25 0c-6,0 -9,-3 -9,-8l0 -102c0,-2 1,-4 3,-6 1,-1 3,-2 6,-2 2,0 4,0 5,2 2,1 3,3 3,6l0 43zm171 8l31 46 1 3 0 2c0,2 -1,4 -2,6l-2 1 -2 1 -3 0c-2,0 -4,-1 -6,-3l-27 -41 -27 40c-2,3 -4,4 -7,4 -2,0 -4,-1 -6,-2 -2,-2 -3,-4 -3,-6 0,-2 1,-3 2,-5l31 -46 -31 -46 -2 -3 0 -2c0,-2 1,-4 3,-6 2,-1 4,-2 6,-2 3,0 5,1 7,4l27 40 27 -40c1,-3 4,-4 7,-4 1,0 3,1 6,2 1,2 2,4 2,6 0,2 0,3 -1,5l-31 46zm252 22c0,10 -4,19 -11,26 -7,8 -16,11 -26,11l-10 0c-11,0 -19,-3 -27,-10 -7,-8 -11,-16 -11,-27l0 -44c0,-10 4,-19 11,-26 7,-8 16,-11 27,-11l10 0c10,0 18,3 26,11 7,7 11,16 11,26l0 44zm-17 0l0 -44c0,-6 -2,-10 -6,-14 -4,-4 -9,-6 -14,-6l-11 0c-5,0 -10,2 -14,6 -4,4 -6,8 -6,14l0 44c0,6 2,10 6,14 4,4 9,6 14,6l11 0c5,0 10,-1 14,-5 4,-4 6,-9 6,-15zm118 3l0 -50c0,-5 -1,-9 -4,-12 -4,-4 -8,-5 -13,-5l-17 0c-4,0 -8,1 -12,4 -1,2 -3,4 -3,6 -1,2 -2,4 -2,7l0 50c0,5 2,9 5,13 2,1 4,2 6,3 2,1 4,1 6,1l17 0c5,0 9,-1 12,-4 4,-3 5,-7 5,-13zm-27 -84l-38 -36c-2,-3 -3,-5 -3,-7 0,-2 1,-4 2,-5 2,-2 4,-3 7,-3l68 0c2,0 4,1 6,3 1,1 2,3 2,5 0,2 0,4 -2,6 -1,2 -3,3 -6,3l-47 0 45 43 2 2c6,7 8,14 8,23l0 50c0,10 -3,18 -10,24 -6,7 -14,10 -24,10l-17 0c-9,0 -17,-3 -23,-10 -7,-6 -10,-14 -10,-24l0 -50c0,-10 3,-18 10,-24 6,-7 14,-10 23,-10l7 0zm95 101l34 0c5,0 9,-1 12,-4 3,-3 5,-7 5,-13l0 -50c0,-5 -2,-9 -5,-12 -3,-4 -7,-5 -12,-5l-34 0 0 84zm0 17l0 43c0,2 -1,4 -3,6 -1,1 -3,2 -6,2 -2,0 -3,-1 -5,-2 -2,-2 -3,-4 -3,-6l0 -153c0,-5 3,-8 8,-8l43 0c9,0 17,3 24,10 6,6 10,14 10,24l0 50c0,10 -4,18 -10,24 -7,7 -15,10 -24,10l-34 0zm169 -34l0 -67 -34 0c-5,0 -9,1 -12,4 -2,2 -3,4 -4,6 0,2 -1,4 -1,7l0 50c0,5 2,9 5,13 2,1 4,2 6,3 2,1 4,1 6,1l17 0c5,0 9,-1 12,-4 4,-3 5,-7 5,-13zm8 23c-2,3 -6,6 -11,8 -4,2 -9,3 -14,3l-17 0c-9,0 -17,-3 -24,-10 -6,-6 -10,-14 -10,-24l0 -50c0,-10 4,-18 10,-24 7,-7 15,-10 24,-10l43 0c5,0 8,3 8,8l0 76c0,4 1,7 3,11 2,3 5,5 9,7 3,1 5,4 5,8 0,2 -1,4 -2,6 -2,1 -4,2 -6,2 -2,0 -3,0 -4,-1 -5,-2 -10,-5 -14,-10zm87 -40l-10 0c-3,0 -5,0 -7,-2 -1,-2 -2,-4 -2,-6 0,-2 1,-4 2,-6 2,-2 4,-2 7,-2l8 0c5,0 9,-2 13,-6 3,-3 4,-7 4,-11 0,-5 -1,-9 -4,-12 -1,-2 -3,-3 -5,-4 -3,-1 -5,-1 -8,-1l-8 0c-8,0 -15,2 -21,7 -1,1 -3,1 -5,1 -2,0 -4,0 -6,-2 -1,-2 -2,-4 -2,-6 0,-3 1,-5 3,-7 9,-7 19,-10 31,-10l8 0c11,0 19,3 25,10 6,7 9,14 9,24 0,2 0,5 -1,7 0,2 -1,4 -2,7 -1,3 -4,7 -8,11 4,3 6,7 8,12l2 6c1,2 1,5 1,8 0,9 -3,17 -9,23 -6,7 -14,10 -25,10l-8 0c-12,0 -22,-3 -31,-10 -2,-2 -3,-4 -3,-7 0,-1 1,-3 2,-5 2,-2 4,-3 6,-3 2,0 3,0 5,2 6,4 13,6 21,6l8 0c5,0 9,-1 12,-5 4,-3 5,-7 5,-12 0,-4 -1,-8 -4,-11 -2,-3 -6,-5 -11,-6zm150 14c0,10 -3,19 -11,26 -7,8 -16,11 -26,11l-10 0c-10,0 -19,-3 -26,-10 -8,-8 -11,-16 -11,-27l0 -44c0,-10 3,-19 11,-26 7,-8 16,-11 26,-11l10 0c10,0 19,3 26,11 8,7 11,16 11,26l0 44zm-17 0l0 -44c0,-6 -2,-10 -5,-14 -4,-4 -9,-6 -15,-6l-10 0c-6,0 -10,2 -14,6 -4,4 -7,8 -7,14l0 44c0,6 2,10 6,14 4,4 9,6 15,6l10 0c6,0 10,-1 14,-5 4,-4 6,-9 6,-15zm119 4l0 -51c0,-5 -2,-9 -5,-12 -3,-4 -7,-5 -12,-5l-17 0c-5,0 -9,1 -12,5 -2,1 -3,3 -4,5 -1,2 -1,4 -1,7l0 51c0,4 1,8 5,12 1,1 3,2 5,3 3,1 5,1 7,1l17 0c5,0 9,-1 12,-4 3,-3 5,-7 5,-12zm-51 -79l7 -5 10 -7c3,-2 5,-4 7,-6 2,-3 3,-5 3,-8 0,-4 -1,-7 -4,-10 -3,-2 -6,-4 -10,-4 -3,0 -6,2 -9,4 -3,2 -4,5 -4,10l0 26zm34 -6c11,0 19,4 25,10 6,6 9,14 9,24l0 50c0,10 -4,18 -10,24 -7,7 -15,10 -24,10l-17 0c-9,0 -17,-3 -24,-9 -7,-7 -10,-15 -10,-25l0 -104c0,-10 3,-17 9,-23 6,-5 13,-8 22,-8 7,0 14,3 21,8 6,5 9,13 9,23 0,5 -1,9 -2,12 -2,3 -4,5 -8,8zm135 84l0 -67 -34 0c-5,0 -9,1 -12,4 -2,2 -3,4 -4,6 0,2 -1,4 -1,7l0 50c0,5 2,9 5,13 2,1 4,2 6,3 2,1 4,1 6,1l17 0c5,0 9,-1 12,-4 4,-3 5,-7 5,-13zm8 23c-2,3 -6,6 -11,8 -4,2 -9,3 -14,3l-17 0c-9,0 -17,-3 -23,-10 -7,-6 -11,-14 -11,-24l0 -50c0,-10 4,-18 10,-24 7,-7 15,-10 24,-10l43 0c5,0 8,3 8,8l0 76c0,4 1,7 3,11 2,3 5,5 9,7 3,1 5,4 5,8 0,2 -1,4 -2,6 -2,1 -4,2 -6,2 -2,0 -3,0 -4,-1 -5,-2 -10,-5 -14,-10zm111 -56l0 -43c0,-2 0,-4 2,-6 2,-1 4,-2 6,-2 2,0 4,0 6,2 2,1 2,3 2,6l0 102c0,2 0,5 -2,6 -2,2 -4,2 -6,2 -2,0 -4,0 -6,-2 -2,-1 -2,-3 -2,-6l0 -43 -51 0 0 43c0,2 -1,5 -3,6 -1,2 -3,2 -6,2 -2,0 -4,0 -6,-2 -1,-1 -2,-3 -2,-6l0 -102c0,-2 1,-4 2,-6 2,-1 4,-2 6,-2 2,0 4,0 6,2 2,1 3,3 3,6l0 43 51 0zm135 59c0,5 -3,8 -9,8l-42 0c-9,0 -17,-3 -24,-10 -6,-6 -10,-14 -10,-24l0 -76c0,-2 1,-4 3,-6 1,-1 3,-2 6,-2 2,0 4,0 5,2 2,1 3,3 3,6l0 77c0,4 2,8 5,12 2,1 3,2 5,3 3,1 5,1 7,1l34 0 0 -93c0,-2 1,-4 2,-6 2,-1 4,-2 6,-2 2,0 4,0 6,2 2,1 3,3 3,6l0 102zm93 -144l-34 0c-3,0 -5,-1 -6,-2 -2,-2 -3,-4 -3,-7 0,-1 1,-3 3,-5 1,-2 3,-3 6,-3l34 0c2,0 4,1 6,3 1,1 2,3 2,5 0,2 -1,4 -2,6 -1,2 -3,3 -6,3zm25 144c0,5 -3,8 -8,8l-43 0c-9,0 -17,-3 -23,-9 -7,-7 -10,-15 -10,-25l0 -76c0,-2 0,-4 2,-6 2,-1 4,-2 6,-2 2,0 4,1 6,2 1,1 2,4 2,6l0 77c0,4 2,8 5,12 2,1 4,2 6,3 2,1 4,1 6,1l34 0 0 -93c0,-2 1,-4 3,-6 2,-1 3,-2 6,-2 2,0 4,1 6,2 1,1 2,4 2,6l0 102z"/>
   </g>
   <g>
    <path class="fil3 str0" d="M4473 3716c0,10 -4,19 -11,26 -7,7 -16,11 -26,11l-11 0c-10,0 -18,-4 -26,-11 -7,-7 -11,-16 -11,-26l0 -44c0,-10 4,-19 11,-26 7,-8 16,-11 26,-11l11 0c10,0 18,3 26,10 7,8 11,16 11,27l0 44zm-17 0l0 -44c0,-6 -2,-11 -6,-15 -4,-4 -9,-6 -14,-6l-11 0c-5,0 -10,2 -14,6 -4,4 -6,9 -6,15l0 44c0,5 2,10 6,14 4,4 9,6 14,6l11 0c5,0 10,-2 14,-6 4,-3 6,-8 6,-14zm85 -18l-19 20 0 27c0,2 -1,4 -3,6 -1,1 -3,2 -6,2 -2,0 -4,-1 -6,-2 -1,-1 -2,-4 -2,-6l0 -102c0,-2 1,-4 2,-6 2,-2 4,-2 6,-2 2,0 4,0 6,2 2,1 3,3 3,6l0 50 53 -56c2,-2 4,-3 6,-3 2,0 4,1 6,3 1,2 2,4 2,6 0,3 -1,5 -3,7l-33 35 34 54c2,2 2,4 2,6 0,2 -1,4 -3,6 -1,1 -3,2 -5,2 -3,0 -5,-1 -6,-3l-34 -52zm101 38l34 0c4,0 8,-1 12,-5 3,-3 5,-7 5,-12l0 -51c0,-4 -2,-8 -5,-12 -3,-3 -7,-5 -12,-5l-34 0 0 85zm0 17l0 42c0,3 -1,5 -3,6 -2,2 -4,3 -6,3 -2,0 -3,-1 -5,-2 -2,-2 -3,-4 -3,-7l0 -152c0,-6 3,-8 8,-8l43 0c9,0 17,3 24,9 6,7 10,15 10,24l0 51c0,9 -4,17 -10,24 -7,7 -15,10 -24,10l-34 0zm169 0l-34 0c-9,0 -17,-3 -24,-10 -6,-6 -10,-14 -10,-24l0 -76c0,-2 1,-4 3,-6 2,-2 3,-2 6,-2 2,0 4,0 6,2 1,1 2,3 2,6l0 76c0,5 2,9 5,12 2,2 3,3 5,4 3,1 5,1 7,1l34 0 0 -93c0,-2 1,-4 3,-6 1,-2 3,-2 5,-2 3,0 5,0 6,2 2,1 3,3 3,6l0 127c0,9 -3,17 -10,24 -6,6 -14,10 -24,10l-34 0c-2,0 -4,-1 -6,-3 -1,-1 -2,-3 -2,-6 0,-2 0,-4 2,-6 1,-1 3,-2 6,-2l34 0c5,0 9,-2 12,-5 3,-3 5,-7 5,-12l0 -17zm121 -68l31 -47c1,-1 2,-2 3,-3l2 0 2 0c2,0 4,0 6,2 2,2 3,4 3,6 0,2 -1,3 -2,5l-30 46 30 46 1 2 1 3c0,2 -1,4 -3,5 -2,2 -4,3 -6,3 -3,0 -5,-1 -7,-4l-31 -47 -4 0 0 43c0,2 -1,4 -3,6 -1,1 -3,2 -6,2 -2,0 -4,-1 -6,-2 -1,-1 -2,-4 -2,-6l0 -43 -4 0 -31 47c-1,1 -2,2 -4,3l-3 1c-2,0 -4,-1 -6,-3 -2,-1 -3,-3 -3,-6 0,-1 0,-3 1,-4l31 -46 -31 -46 -1 -3 0 -2c0,-2 1,-4 3,-6 1,-2 3,-2 6,-2 3,0 5,1 7,3l31 47 4 0 0 -42c0,-2 1,-4 2,-6 2,-2 4,-2 6,-2 2,0 4,0 6,2 2,1 3,3 3,6l0 42 4 0zm150 0l0 -42c0,-2 0,-4 2,-6 2,-2 4,-2 6,-2 2,0 4,0 6,2 2,1 2,3 2,6l0 102c0,2 0,4 -2,6 -1,1 -3,2 -6,2 -2,0 -4,-1 -6,-2 -2,-1 -2,-4 -2,-6l0 -43 -51 0 0 43c0,2 -1,4 -3,6 -1,1 -3,2 -6,2 -2,0 -4,-1 -6,-2 -1,-1 -2,-4 -2,-6l0 -102c0,-2 1,-4 2,-6 2,-2 4,-2 6,-2 2,0 4,0 6,2 2,1 3,3 3,6l0 42 51 0zm152 60c0,2 -1,4 -3,6 -1,1 -3,2 -6,2 -2,0 -4,-1 -6,-2 -1,-1 -2,-4 -2,-6l0 -102c0,-2 1,-4 2,-6 2,-2 4,-2 6,-2 2,0 4,0 6,2 2,1 3,3 3,6l0 102zm-85 -43l0 34 17 0c5,0 9,-2 12,-5 3,-3 5,-7 5,-12 0,-5 -1,-9 -4,-12 -2,-1 -3,-2 -6,-3 -2,-1 -4,-2 -7,-2l-17 0zm0 -17l17 0c11,0 19,4 25,11 6,6 9,14 9,23 0,9 -3,17 -9,23 -6,8 -14,11 -25,11l-25 0c-6,0 -9,-3 -9,-8l0 -102c0,-2 1,-4 3,-6 1,-2 3,-2 6,-2 2,0 4,0 5,2 2,1 3,3 3,6l0 42zm135 1l51 0 0 -18c0,-4 -1,-8 -5,-12 -3,-3 -7,-5 -12,-5l-17 0c-4,0 -9,2 -12,5 -1,2 -3,4 -3,6 -1,2 -2,4 -2,6l0 18zm0 16l0 17c0,5 2,9 5,12 2,2 4,3 6,4 2,1 4,1 6,1l43 0c2,0 4,1 6,3 1,2 2,3 2,6 0,2 -1,3 -2,5 -1,2 -4,3 -6,3l-43 0c-9,0 -17,-3 -23,-10 -7,-6 -11,-14 -11,-24l0 -51c0,-9 4,-17 10,-23 7,-7 15,-10 24,-10l17 0c9,0 17,3 24,9 7,7 10,15 10,24l0 26c0,5 -3,8 -8,8l-60 0zm288 43c0,5 -3,8 -9,8l-42 0c-9,0 -17,-3 -24,-10 -6,-6 -10,-14 -10,-24l0 -76c0,-2 1,-4 3,-6 2,-2 4,-2 6,-2 2,0 4,0 6,2 1,1 2,3 2,6l0 76c0,5 2,9 5,12 2,2 4,3 5,4 3,1 5,1 7,1l34 0 0 -93c0,-2 1,-4 3,-6 1,-2 3,-2 6,-2 2,0 4,0 5,2 2,1 3,3 3,6l0 102zm78 -43l-10 0c-3,0 -5,-1 -7,-2 -1,-2 -2,-4 -2,-6 0,-2 1,-4 2,-6 2,-2 4,-3 7,-3l8 0c5,0 9,-1 12,-5 4,-3 5,-7 5,-12 0,-4 -1,-8 -4,-11 -1,-2 -3,-3 -5,-4 -3,-1 -5,-2 -8,-2l-8 0c-8,0 -15,3 -21,7 -1,1 -3,2 -5,2 -2,0 -4,-1 -6,-2 -1,-2 -2,-4 -2,-7 0,-2 1,-4 3,-6 9,-7 19,-10 31,-10l8 0c11,0 19,3 25,10 6,6 9,14 9,23 0,3 0,5 -1,8 0,2 -1,4 -2,6 -1,4 -4,8 -8,12 3,3 6,7 8,11l2 7c1,2 1,5 1,7 0,10 -3,17 -9,24 -6,7 -14,10 -25,10l-8 0c-12,0 -22,-3 -31,-10 -2,-2 -3,-4 -3,-7 0,-2 1,-4 2,-6 2,-2 4,-3 6,-3 2,0 3,1 5,2 6,5 13,7 21,7l8 0c5,0 9,-2 12,-5 4,-3 5,-7 5,-12 0,-4 -1,-8 -4,-11 -2,-3 -6,-5 -11,-6zm133 17l0 -51c0,-4 -1,-8 -4,-12 -4,-3 -8,-5 -13,-5l-17 0c-4,0 -8,2 -12,5 -1,2 -3,4 -3,6 -1,2 -2,4 -2,6l0 51c0,5 2,9 5,12 2,2 4,3 6,4 2,1 4,1 6,1l17 0c5,0 9,-1 12,-5 4,-3 5,-7 5,-12zm-27 -84l-38 -37c-2,-2 -3,-4 -3,-7 0,-1 1,-3 2,-5 2,-1 4,-2 7,-2l68 0c2,0 4,1 6,2 1,2 2,4 2,6 0,2 0,4 -2,6 -1,2 -3,3 -6,3l-47 0 45 42 2 3c6,7 8,14 8,22l0 51c0,9 -3,17 -10,24 -6,7 -14,10 -24,10l-17 0c-9,0 -17,-3 -23,-10 -7,-6 -10,-14 -10,-24l0 -51c0,-9 3,-17 10,-24 6,-6 14,-9 23,-9l7 0zm163 110c0,5 -3,8 -9,8l-42 0c-9,0 -17,-3 -24,-10 -7,-6 -10,-14 -10,-24l0 -76c0,-2 1,-4 3,-6 1,-2 3,-2 5,-2 3,0 5,0 6,2 2,1 3,3 3,6l0 76c0,5 1,9 5,12 1,2 3,3 5,4 3,1 5,1 7,1l34 0 0 -93c0,-2 1,-4 2,-6 2,-2 4,-2 6,-2 2,0 4,0 6,2 2,1 3,3 3,6l0 102zm50 -9l34 0c5,0 9,-1 12,-5 3,-3 5,-7 5,-12l0 -51c0,-4 -1,-8 -5,-12 -3,-3 -7,-5 -12,-5l-34 0 0 85zm0 17l0 42c0,3 -1,5 -2,6 -2,2 -4,3 -6,3 -2,0 -4,-1 -6,-2 -2,-2 -3,-4 -3,-7l0 -152c0,-6 3,-8 9,-8l42 0c9,0 17,3 24,9 7,7 10,15 10,24l0 51c0,9 -3,17 -10,24 -7,7 -15,10 -24,10l-34 0zm170 -34l0 -68 -34 0c-5,0 -9,2 -13,5 -1,2 -2,4 -3,6 -1,2 -1,4 -1,6l0 51c0,5 1,9 4,12 2,2 4,3 6,4 2,1 5,1 7,1l17 0c4,0 8,-1 12,-5 3,-3 5,-7 5,-12zm8 23c-3,3 -7,6 -11,8 -5,2 -10,3 -14,3l-17 0c-10,0 -17,-3 -24,-10 -7,-6 -10,-14 -10,-24l0 -51c0,-9 3,-17 10,-24 6,-6 14,-9 24,-9l42 0c6,0 8,2 8,8l0 76c0,3 1,7 4,10 2,4 4,6 8,8 4,1 5,4 5,7 0,3 -1,5 -2,6 -2,2 -4,3 -6,3 -1,0 -2,0 -4,-1 -5,-2 -10,-5 -13,-10zm93 -91l-34 0 0 94c0,2 -1,4 -2,6 -2,1 -4,2 -6,2 -3,0 -5,-1 -6,-2 -2,-1 -3,-4 -3,-6l0 -102c0,-6 3,-8 9,-8l76 0c9,0 17,3 23,9 7,7 10,15 10,24l0 77c0,2 0,4 -2,6 -2,1 -4,2 -6,2 -2,0 -4,-1 -6,-2 -2,-1 -2,-4 -2,-6l0 -77c0,-4 -2,-8 -5,-12 -3,-3 -8,-5 -12,-5l-17 0 0 94c0,2 -1,4 -3,6 -1,1 -3,2 -6,2 -2,0 -4,-1 -6,-2 -1,-1 -2,-4 -2,-6l0 -94zm118 35l51 0 0 -18c0,-4 -2,-8 -5,-12 -3,-3 -7,-5 -12,-5l-17 0c-5,0 -9,2 -12,5 -2,2 -3,4 -4,6 0,2 -1,4 -1,6l0 18zm0 16l0 17c0,5 2,9 5,12 2,2 3,3 5,4 3,1 5,1 7,1l42 0c3,0 5,1 6,3 2,2 3,3 3,6 0,2 -1,3 -2,5 -2,2 -4,3 -7,3l-42 0c-9,0 -17,-3 -24,-10 -6,-6 -10,-14 -10,-24l0 -51c0,-9 4,-17 10,-23 7,-7 15,-10 24,-10l17 0c9,0 17,3 24,9 7,7 10,15 10,24l0 26c0,5 -3,8 -9,8l-59 0zm186 43c0,2 -1,4 -2,6 -2,1 -4,2 -6,2 -2,0 -4,-1 -6,-2 -2,-1 -3,-4 -3,-6l0 -94 -19 0 -32 96c0,2 -1,4 -3,5 0,0 -2,0 -4,1 -3,0 -5,-1 -6,-2 -2,-2 -3,-4 -3,-6l0 -3 34 -102c1,-4 4,-5 8,-5l34 0c5,0 8,2 8,8l0 102zm51 -43l0 34 34 0c5,0 9,-2 12,-5 3,-3 5,-7 5,-12 0,-5 -2,-9 -4,-12 -2,-1 -4,-2 -6,-3 -2,-1 -4,-2 -7,-2l-34 0zm0 -17l34 0c10,0 19,4 25,11 6,6 9,14 9,23 0,9 -3,17 -9,23 -6,8 -15,11 -25,11l-43 0c-5,0 -8,-3 -8,-8l0 -102c0,-2 1,-4 3,-6 1,-2 3,-2 5,-2 3,0 5,0 6,2 2,1 3,3 3,6l0 42zm169 0l0 -42c0,-2 1,-4 3,-6 1,-2 3,-2 6,-2 2,0 4,0 5,2 2,1 3,3 3,6l0 102c0,2 -1,4 -2,6 -2,1 -4,2 -6,2 -3,0 -5,-1 -6,-2 -2,-1 -3,-4 -3,-6l0 -43 -51 0 0 43c0,2 -1,4 -2,6 -2,1 -4,2 -6,2 -2,0 -4,-1 -6,-2 -2,-1 -3,-4 -3,-6l0 -102c0,-2 1,-4 3,-6 2,-2 4,-2 6,-2 2,0 4,0 6,2 1,1 2,3 2,6l0 42 51 0zm152 60c0,2 -1,4 -2,6 -2,1 -4,2 -6,2 -2,0 -4,-1 -6,-2 -2,-1 -3,-4 -3,-6l0 -102c0,-2 1,-4 3,-6 2,-2 4,-2 6,-2 2,0 4,0 6,2 1,1 2,3 2,6l0 102zm-84 -43l0 34 17 0c5,0 9,-2 12,-5 3,-3 4,-7 4,-12 0,-5 -1,-9 -4,-12 -1,-1 -3,-2 -5,-3 -2,-1 -5,-2 -7,-2l-17 0zm0 -17l16 0c11,0 20,4 26,11 5,6 8,14 8,23 0,9 -2,17 -8,23 -6,8 -15,11 -25,11l-26 0c-5,0 -8,-3 -8,-8l0 -102c0,-2 1,-4 2,-6 2,-2 4,-2 6,-2 2,0 4,0 6,2 2,1 3,3 3,6l0 42zm135 1l51 0 0 -18c0,-4 -2,-8 -5,-12 -3,-3 -7,-5 -12,-5l-17 0c-5,0 -9,2 -12,5 -2,2 -3,4 -4,6 -1,2 -1,4 -1,6l0 18zm0 16l0 17c0,5 1,9 5,12 1,2 3,3 5,4 3,1 5,1 7,1l42 0c2,0 5,1 6,3 2,2 3,3 3,6 0,2 -1,3 -2,5 -2,2 -4,3 -7,3l-42 0c-9,0 -17,-3 -24,-10 -7,-6 -10,-14 -10,-24l0 -51c0,-9 3,-17 10,-23 6,-7 14,-10 24,-10l17 0c9,0 17,3 24,9 6,7 10,15 10,24l0 26c0,5 -3,8 -9,8l-59 0zm237 -4l-19 20 0 27c0,2 -1,4 -2,6 -2,1 -4,2 -6,2 -3,0 -5,-1 -6,-2 -2,-1 -3,-4 -3,-6l0 -102c0,-2 1,-4 3,-6 1,-2 3,-2 6,-2 2,0 4,0 5,2 2,1 3,3 3,6l0 50 54 -56c1,-2 3,-3 5,-3 2,0 4,1 6,3 2,2 3,4 3,6 0,3 -1,5 -3,7l-34 35 35 54c1,2 2,4 2,6 0,2 -1,4 -3,6 -2,1 -4,2 -6,2 -2,0 -4,-1 -6,-3l-34 -52zm160 18c0,10 -3,19 -11,26 -7,7 -16,11 -26,11l-10 0c-10,0 -19,-4 -26,-11 -8,-7 -11,-16 -11,-26l0 -44c0,-10 3,-19 11,-26 7,-8 16,-11 26,-11l10 0c10,0 19,3 26,10 8,8 11,16 11,27l0 44zm-17 0l0 -44c0,-6 -2,-11 -5,-15 -4,-4 -9,-6 -15,-6l-10 0c-6,0 -11,2 -15,6 -4,4 -6,9 -6,15l0 44c0,5 2,10 6,14 4,4 9,6 15,6l10 0c6,0 10,-2 14,-6 4,-3 6,-8 6,-14zm152 29l0 -102c0,-3 0,-5 -2,-7 -1,-2 -3,-3 -5,-3 -3,0 -5,2 -8,5l-35 50 -36 -50c-2,-3 -5,-5 -7,-5 -2,0 -4,1 -6,3 -1,2 -2,4 -2,7l0 102c0,2 1,4 2,6 2,1 4,2 6,2 2,0 4,-1 6,-2 2,-2 3,-4 3,-6l0 -76 27 38c2,3 4,5 7,5 2,0 4,-2 7,-5l27 -38 0 76c0,2 0,4 2,6 2,1 4,2 6,2 2,0 4,-1 6,-2 2,-2 2,-4 2,-6zm119 0c0,5 -3,8 -9,8l-42 0c-9,0 -17,-3 -24,-10 -6,-6 -10,-14 -10,-24l0 -76c0,-2 1,-4 3,-6 1,-2 3,-2 6,-2 2,0 4,0 6,2 1,1 2,3 2,6l0 76c0,5 2,9 5,12 2,2 3,3 5,4 3,1 5,1 7,1l34 0 0 -93c0,-2 1,-4 3,-6 1,-2 3,-2 5,-2 3,0 5,0 6,2 2,1 3,3 3,6l0 102zm93 8l-25 0c-10,0 -18,-3 -24,-10 -7,-6 -10,-14 -10,-24l0 -51c0,-9 3,-17 10,-24 6,-6 14,-9 24,-9l25 0c2,0 4,0 6,2 2,2 2,4 2,6 0,2 0,4 -2,6 -1,1 -3,2 -6,2l-26 0c-4,0 -8,2 -12,5 -1,2 -2,4 -3,6 -1,2 -2,4 -2,6l0 51c0,5 2,9 5,12 2,2 4,3 6,4 2,1 4,1 6,1l26 0c2,0 4,1 6,3 2,2 2,3 2,6 0,2 0,3 -2,5 -1,2 -3,3 -6,3zm101 0l-25 0c-9,0 -17,-3 -24,-10 -6,-6 -10,-14 -10,-24l0 -51c0,-9 3,-17 10,-24 7,-6 15,-9 24,-9l25 0c3,0 5,0 6,2 2,2 3,4 3,6 0,2 -1,4 -2,6 -2,1 -4,2 -7,2l-25 0c-5,0 -9,2 -12,5 -2,2 -3,4 -4,6 -1,2 -1,4 -1,6l0 51c0,5 2,9 5,12 2,2 3,3 5,4 3,1 5,1 7,1l25 0c3,0 5,1 6,3 2,2 3,3 3,6 0,2 -1,3 -2,5 -2,2 -4,3 -7,3z"/>
    <path class="fil3 str0" d="M7939 3745c0,5 -3,8 -8,8l-43 0c-9,0 -17,-3 -23,-10 -7,-6 -10,-14 -10,-24l0 -76c0,-2 0,-4 2,-6 2,-2 4,-2 6,-2 2,0 4,0 6,2 2,1 2,3 2,6l0 76c0,5 2,9 5,12 2,2 4,3 6,4 2,1 4,1 6,1l34 0 0 -93c0,-2 1,-4 3,-6 2,-2 4,-2 6,-2 2,0 4,0 6,2 1,1 2,3 2,6l0 102zm119 0c0,5 -3,8 -9,8l-42 0c-9,0 -17,-3 -24,-10 -7,-6 -10,-14 -10,-24l0 -76c0,-2 1,-4 2,-6 2,-2 4,-2 6,-2 3,0 5,0 6,2 2,1 3,3 3,6l0 76c0,5 1,9 5,12 1,2 3,3 5,4 3,1 5,1 7,1l34 0 0 -93c0,-2 1,-4 2,-6 2,-2 4,-2 6,-2 2,0 4,0 6,2 2,1 3,3 3,6l0 102z"/>
   </g>
   <g>
    <path class="fil3 str0" d="M4441 4596l-34 0 0 93c0,3 -1,5 -3,6 -1,2 -3,2 -6,2 -2,0 -4,0 -6,-2 -1,-1 -2,-3 -2,-6l0 -102c0,-5 3,-8 8,-8l76 0c10,0 17,3 24,10 7,6 10,14 10,24l0 76c0,3 -1,5 -2,6 -2,2 -4,2 -6,2 -2,0 -4,0 -6,-2 -2,-1 -3,-3 -3,-6l0 -76c0,-5 -1,-9 -4,-12 -4,-4 -8,-5 -13,-5l-17 0 0 93c0,3 0,5 -2,6 -1,2 -3,2 -6,2 -2,0 -4,0 -6,-2 -2,-1 -2,-3 -2,-6l0 -93zm118 34l51 0 0 -17c0,-5 -2,-9 -5,-12 -3,-4 -7,-5 -12,-5l-17 0c-5,0 -9,1 -12,5 -2,1 -3,3 -4,5 -1,2 -1,4 -1,7l0 17zm0 17l0 17c0,4 2,8 5,12 1,1 3,2 5,3 3,1 5,2 7,2l42 0c3,0 5,0 6,2 2,2 3,4 3,6 0,2 -1,4 -2,6 -2,1 -4,2 -7,2l-42 0c-9,0 -17,-3 -24,-10 -7,-6 -10,-14 -10,-24l0 -50c0,-9 3,-17 10,-24 6,-7 14,-10 24,-10l17 0c9,0 17,3 24,10 6,6 10,14 10,24l0 25c0,6 -3,9 -9,9l-59 0zm118 34l34 0c5,0 9,-2 12,-5 4,-3 5,-7 5,-12l0 -51c0,-5 -1,-9 -5,-12 -3,-4 -7,-5 -12,-5l-34 0 0 85zm0 16l0 43c0,2 -1,4 -2,6 -2,1 -4,2 -6,2 -2,0 -4,-1 -6,-2 -2,-1 -3,-4 -3,-6l0 -153c0,-5 3,-8 9,-8l42 0c9,0 17,3 24,10 7,6 10,14 10,24l0 50c0,10 -3,18 -10,24 -6,7 -14,10 -24,10l-34 0zm119 -16l34 0c4,0 8,-2 12,-5 3,-3 5,-7 5,-12l0 -51c0,-5 -2,-9 -5,-12 -3,-4 -7,-5 -12,-5l-34 0 0 85zm0 16l0 43c0,2 -1,4 -3,6 -2,1 -4,2 -6,2 -2,0 -4,-1 -5,-2 -2,-1 -3,-4 -3,-6l0 -153c0,-5 3,-8 8,-8l43 0c9,0 17,3 23,10 7,6 10,14 10,24l0 50c0,10 -3,18 -9,24 -7,7 -15,10 -24,10l-34 0zm186 -8c0,6 -3,8 -9,8l-42 0c-9,0 -17,-3 -24,-9 -6,-7 -10,-15 -10,-25l0 -76c0,-2 1,-4 3,-6 1,-1 3,-2 6,-2 2,0 4,1 5,2 2,1 3,3 3,6l0 77c0,4 2,8 5,12 2,1 3,2 5,3 3,1 5,2 7,2l34 0 0 -94c0,-2 1,-4 3,-6 1,-1 3,-2 5,-2 3,0 5,1 6,2 2,1 3,3 3,6l0 102zm84 -93l-34 0 0 93c0,3 0,5 -2,6 -2,2 -4,2 -6,2 -2,0 -4,0 -6,-2 -2,-1 -2,-3 -2,-6l0 -102c0,-5 2,-8 8,-8l76 0c9,0 17,3 24,10 6,6 10,14 10,24l0 76c0,3 -1,5 -3,6 -1,2 -3,2 -6,2 -2,0 -4,0 -5,-2 -2,-1 -3,-3 -3,-6l0 -76c0,-5 -2,-9 -5,-12 -3,-4 -7,-5 -12,-5l-17 0 0 93c0,3 -1,5 -2,6 -2,2 -4,2 -6,2 -3,0 -4,0 -6,-2 -2,-1 -3,-3 -3,-6l0 -93zm186 64c0,10 -3,19 -10,26 -8,8 -16,11 -27,11l-10 0c-10,0 -19,-3 -26,-10 -8,-8 -11,-16 -11,-27l0 -44c0,-10 3,-19 11,-26 7,-7 16,-11 26,-11l10 0c10,0 19,3 26,11 8,7 11,16 11,26l0 44zm-16 0l0 -44c0,-6 -2,-10 -6,-14 -4,-4 -9,-6 -15,-6l-10 0c-6,0 -10,2 -14,6 -4,4 -6,8 -6,14l0 44c0,6 2,10 6,14 3,4 8,7 14,7l10 0c6,0 10,-2 14,-6 5,-4 7,-9 7,-15zm67 21l34 0c5,0 9,-2 12,-5 3,-3 5,-7 5,-12l0 -51c0,-5 -2,-9 -5,-12 -3,-4 -7,-5 -12,-5l-34 0 0 85zm0 16l0 43c0,2 -1,4 -3,6 -1,1 -3,2 -5,2 -2,0 -4,-1 -6,-2 -2,-1 -3,-4 -3,-6l0 -153c0,-5 3,-8 9,-8l42 0c9,0 17,3 24,10 6,6 10,14 10,24l0 50c0,10 -4,18 -10,24 -7,7 -15,10 -24,10l-34 0zm186 -8c0,6 -3,8 -8,8l-43 0c-9,0 -17,-3 -23,-9 -7,-7 -10,-15 -10,-25l0 -76c0,-2 0,-4 2,-6 2,-1 4,-2 6,-2 2,0 4,1 6,2 1,1 2,3 2,6l0 77c0,4 2,8 5,12 2,1 4,2 6,3 2,1 4,2 6,2l34 0 0 -94c0,-2 1,-4 3,-6 1,-1 3,-2 6,-2 2,0 4,1 6,2 1,1 2,3 2,6l0 102zm102 -25l0 -68 -34 0c-5,0 -9,1 -12,5 -2,1 -3,3 -4,5 -1,2 -1,4 -1,7l0 51c0,4 1,8 5,12 1,1 3,2 5,3 2,1 5,2 7,2l17 0c4,0 8,-2 12,-5 3,-3 5,-7 5,-12zm8 22c-3,3 -7,6 -11,8 -5,2 -10,3 -14,3l-17 0c-9,0 -17,-3 -24,-9 -7,-7 -10,-15 -10,-25l0 -50c0,-10 3,-18 10,-24 6,-7 14,-10 24,-10l42 0c6,0 8,3 8,8l0 76c0,4 2,7 4,11 2,3 4,5 8,7 4,1 5,4 5,8 0,2 0,4 -2,6 -1,1 -3,2 -6,2 -1,0 -2,0 -3,0 -6,-3 -11,-6 -14,-11zm127 3c0,3 -1,5 -3,6 -1,2 -3,2 -6,2 -2,0 -4,0 -5,-2 -2,-1 -3,-3 -3,-6l0 -93 -19 0 -32 96c-1,1 -2,3 -3,4 -1,0 -2,1 -5,1 -2,0 -4,0 -6,-2 -2,-2 -3,-3 -3,-6l1 -3 34 -101c1,-4 3,-6 7,-6l34 0c6,0 9,3 9,8l0 102zm50 -43l0 35 34 0c6,0 10,-2 13,-6 3,-3 4,-7 4,-12 0,-4 -1,-8 -4,-11 -1,-2 -3,-3 -5,-4 -2,-1 -5,-2 -8,-2l-34 0zm0 -16l34 0c11,0 19,3 26,10 5,6 8,14 8,23 0,9 -3,17 -8,24 -7,7 -15,10 -26,10l-42 0c-6,0 -8,-2 -8,-8l0 -102c0,-2 0,-4 2,-6 2,-1 4,-2 6,-2 2,0 4,1 6,2 2,1 2,3 2,6l0 43zm170 0l0 -43c0,-2 1,-4 2,-6 2,-1 4,-2 6,-2 2,0 4,1 6,2 2,1 3,3 3,6l0 102c0,3 -1,5 -3,6 -1,2 -3,2 -6,2 -2,0 -4,0 -6,-2 -1,-1 -2,-3 -2,-6l0 -43 -51 0 0 43c0,3 -1,5 -3,6 -1,2 -3,2 -6,2 -2,0 -4,0 -6,-2 -1,-1 -2,-3 -2,-6l0 -102c0,-2 1,-4 2,-6 2,-1 4,-2 6,-2 3,0 5,1 6,2 2,1 3,3 3,6l0 43 51 0zm152 59c0,3 -1,5 -3,6 -1,2 -3,2 -6,2 -2,0 -4,0 -6,-2 -1,-1 -2,-3 -2,-6l0 -102c0,-2 1,-4 2,-6 2,-1 4,-2 6,-2 3,0 4,1 6,2 2,1 3,3 3,6l0 102zm-85 -43l0 35 17 0c5,0 9,-2 12,-6 4,-3 5,-7 5,-12 0,-4 -1,-8 -4,-11 -1,-2 -3,-3 -5,-4 -3,-1 -5,-2 -8,-2l-17 0zm0 -16l17 0c11,0 19,3 25,10 6,6 9,14 9,23 0,9 -3,17 -8,24 -7,7 -15,10 -26,10l-25 0c-6,0 -9,-2 -9,-8l0 -102c0,-2 1,-4 3,-6 2,-1 4,-2 6,-2 2,0 4,1 6,2 1,1 2,3 2,6l0 43zm135 0l51 0 0 -17c0,-5 -1,-9 -4,-12 -4,-4 -8,-5 -13,-5l-17 0c-4,0 -8,1 -12,5 -1,1 -3,3 -3,5 -1,2 -2,4 -2,7l0 17zm0 17l0 17c0,4 2,8 5,12 2,1 4,2 6,3 2,1 4,2 6,2l43 0c2,0 4,0 6,2 1,2 2,4 2,6 0,2 0,4 -2,6 -1,1 -3,2 -6,2l-43 0c-9,0 -17,-3 -23,-10 -7,-6 -10,-14 -10,-24l0 -50c0,-9 3,-17 9,-24 7,-7 15,-10 24,-10l17 0c10,0 17,3 24,10 7,6 10,14 10,24l0 25c0,6 -3,9 -8,9l-60 0zm288 42c0,6 -3,8 -8,8l-43 0c-9,0 -17,-3 -23,-9 -7,-7 -11,-15 -11,-25l0 -76c0,-2 1,-4 3,-6 2,-1 4,-2 6,-2 2,0 4,1 6,2 1,1 2,3 2,6l0 77c0,4 2,8 5,12 2,1 4,2 6,3 2,1 4,2 6,2l34 0 0 -94c0,-2 1,-4 3,-6 1,-1 3,-2 6,-2 2,0 4,1 5,2 2,1 3,3 3,6l0 102zm78 -43l-10 0c-3,0 -5,0 -7,-2 -1,-2 -2,-4 -2,-6 0,-2 1,-4 3,-6 1,-2 3,-2 6,-2l8 0c5,0 10,-2 13,-6 3,-3 4,-7 4,-11 0,-5 -1,-9 -4,-12 -1,-2 -3,-3 -5,-4 -2,-1 -5,-1 -8,-1l-8 0c-8,0 -15,2 -21,7 -1,1 -3,1 -5,1 -1,0 -3,0 -6,-2 -1,-2 -2,-4 -2,-6 0,-3 1,-5 3,-7 9,-7 19,-10 31,-10l8 0c11,0 19,3 26,10 5,7 8,14 8,24 0,2 0,5 -1,7 0,2 -1,4 -2,7 -1,4 -4,7 -8,11 4,3 6,7 8,12l2 6c1,3 1,5 1,8 0,9 -3,17 -8,23 -6,7 -15,10 -26,10l-8 0c-12,0 -22,-3 -31,-10 -2,-2 -3,-4 -3,-7 0,-1 1,-3 2,-5 2,-2 4,-3 6,-3 2,0 4,0 5,2 6,4 13,7 21,7l8 0c5,0 9,-2 13,-6 3,-3 4,-7 4,-12 0,-4 -1,-8 -3,-11 -3,-3 -7,-5 -12,-6zm134 18l0 -51c0,-5 -2,-9 -5,-12 -3,-4 -8,-5 -12,-5l-17 0c-5,0 -9,1 -13,5 -1,1 -2,3 -3,5 -1,2 -1,4 -1,7l0 51c0,4 1,8 4,12 2,1 4,2 6,3 2,1 5,2 7,2l17 0c4,0 8,-2 12,-5 3,-3 5,-7 5,-12zm-28 -85l-38 -36c-2,-3 -3,-5 -3,-7 0,-2 1,-4 2,-5 2,-2 4,-3 7,-3l68 0c2,0 4,1 6,3 2,1 2,3 2,6 0,1 0,3 -2,5 -1,2 -3,3 -6,3l-47 0 45 43 2 3c6,6 8,13 8,22l0 50c0,10 -3,18 -10,24 -6,7 -14,10 -23,10l-17 0c-10,0 -17,-3 -24,-9 -7,-7 -10,-15 -10,-25l0 -50c0,-10 3,-18 10,-24 6,-7 14,-10 24,-10l6 0zm163 110c0,6 -3,8 -9,8l-42 0c-9,0 -17,-3 -24,-9 -7,-7 -10,-15 -10,-25l0 -76c0,-2 1,-4 3,-6 1,-1 3,-2 6,-2 2,0 4,1 5,2 2,1 3,3 3,6l0 77c0,4 2,8 5,12 1,1 3,2 5,3 3,1 5,2 7,2l34 0 0 -94c0,-2 1,-4 2,-6 2,-1 4,-2 6,-2 2,0 4,1 6,2 2,1 3,3 3,6l0 102zm50 -8l34 0c5,0 9,-2 12,-5 4,-3 5,-7 5,-12l0 -51c0,-5 -1,-9 -5,-12 -3,-4 -7,-5 -12,-5l-34 0 0 85zm0 16l0 43c0,2 -1,4 -2,6 -2,1 -4,2 -6,2 -2,0 -4,-1 -6,-2 -2,-1 -3,-4 -3,-6l0 -153c0,-5 3,-8 9,-8l42 0c9,0 17,3 24,10 7,6 10,14 10,24l0 50c0,10 -3,18 -10,24 -6,7 -14,10 -24,10l-34 0zm170 -33l0 -68 -34 0c-5,0 -9,1 -12,5 -2,1 -3,3 -4,5 -1,2 -1,4 -1,7l0 51c0,4 1,8 5,12 1,1 3,2 5,3 2,1 5,2 7,2l17 0c4,0 8,-2 12,-5 3,-3 5,-7 5,-12zm8 22c-3,3 -7,6 -11,8 -5,2 -10,3 -14,3l-17 0c-9,0 -17,-3 -24,-9 -7,-7 -10,-15 -10,-25l0 -50c0,-10 3,-18 10,-24 6,-7 14,-10 24,-10l42 0c6,0 8,3 8,8l0 76c0,4 2,7 4,11 2,3 4,5 8,7 4,1 5,4 5,8 0,2 0,4 -2,6 -1,1 -3,2 -6,2 -1,0 -2,0 -3,0 -6,-3 -11,-6 -14,-11zm93 -90l-34 0 0 93c0,3 -1,5 -2,6 -2,2 -4,2 -6,2 -3,0 -5,0 -6,-2 -2,-1 -3,-3 -3,-6l0 -102c0,-5 3,-8 9,-8l76 0c9,0 17,3 23,10 7,6 10,14 10,24l0 76c0,3 0,5 -2,6 -1,2 -3,2 -6,2 -2,0 -4,0 -6,-2 -2,-1 -2,-3 -2,-6l0 -76c0,-5 -2,-9 -5,-12 -3,-4 -7,-5 -12,-5l-17 0 0 93c0,3 -1,5 -3,6 -1,2 -3,2 -6,2 -2,0 -4,0 -6,-2 -1,-1 -2,-3 -2,-6l0 -93zm118 34l51 0 0 -17c0,-5 -1,-9 -5,-12 -3,-4 -7,-5 -12,-5l-17 0c-5,0 -9,1 -12,5 -2,1 -3,3 -4,5 0,2 -1,4 -1,7l0 17zm0 17l0 17c0,4 2,8 5,12 2,1 4,2 6,3 2,1 4,2 6,2l43 0c2,0 4,0 6,2 1,2 2,4 2,6 0,2 -1,4 -2,6 -2,1 -4,2 -6,2l-43 0c-9,0 -17,-3 -24,-10 -6,-6 -10,-14 -10,-24l0 -50c0,-9 4,-17 10,-24 7,-7 15,-10 24,-10l17 0c9,0 17,3 24,10 7,6 10,14 10,24l0 25c0,6 -3,9 -8,9l-60 0zm186 42c0,3 0,5 -2,6 -2,2 -4,2 -6,2 -2,0 -4,0 -6,-2 -2,-1 -2,-3 -2,-6l0 -93 -20 0 -32 96c0,1 -1,3 -3,4 0,0 -2,1 -4,1 -3,0 -5,0 -6,-2 -2,-2 -3,-3 -3,-6l1 -3 33 -101c1,-4 4,-6 8,-6l34 0c6,0 8,3 8,8l0 102zm51 -43l0 35 34 0c5,0 9,-2 12,-6 3,-3 5,-7 5,-12 0,-4 -1,-8 -4,-11 -2,-2 -3,-3 -6,-4 -2,-1 -4,-2 -7,-2l-34 0zm0 -16l34 0c10,0 19,3 25,10 6,6 9,14 9,23 0,9 -3,17 -9,24 -6,7 -14,10 -25,10l-42 0c-6,0 -9,-2 -9,-8l0 -102c0,-2 1,-4 3,-6 1,-1 3,-2 6,-2 2,0 4,1 5,2 2,1 3,3 3,6l0 43zm169 0l0 -43c0,-2 1,-4 3,-6 1,-1 3,-2 6,-2 2,0 4,1 6,2 1,1 2,3 2,6l0 102c0,3 -1,5 -2,6 -2,2 -4,2 -6,2 -3,0 -5,0 -6,-2 -2,-1 -3,-3 -3,-6l0 -43 -51 0 0 43c0,3 0,5 -2,6 -2,2 -4,2 -6,2 -2,0 -4,0 -6,-2 -2,-1 -2,-3 -2,-6l0 -102c0,-2 0,-4 2,-6 2,-1 4,-2 6,-2 2,0 4,1 6,2 1,1 2,3 2,6l0 43 51 0zm152 59c0,3 0,5 -2,6 -2,2 -4,2 -6,2 -2,0 -4,0 -6,-2 -2,-1 -3,-3 -3,-6l0 -102c0,-2 1,-4 3,-6 2,-1 4,-2 6,-2 2,0 4,1 6,2 1,1 2,3 2,6l0 102zm-84 -43l0 35 17 0c5,0 9,-2 12,-6 3,-3 5,-7 5,-12 0,-4 -2,-8 -5,-11 -1,-2 -3,-3 -5,-4 -2,-1 -5,-2 -7,-2l-17 0zm0 -16l17 0c10,0 19,3 25,10 6,6 8,14 8,23 0,9 -2,17 -8,24 -6,7 -15,10 -25,10l-26 0c-5,0 -8,-2 -8,-8l0 -102c0,-2 1,-4 2,-6 2,-1 4,-2 6,-2 2,0 4,1 6,2 2,1 3,3 3,6l0 43zm135 0l51 0 0 -17c0,-5 -2,-9 -5,-12 -3,-4 -7,-5 -12,-5l-17 0c-5,0 -9,1 -12,5 -2,1 -3,3 -4,5 -1,2 -1,4 -1,7l0 17zm0 17l0 17c0,4 2,8 5,12 2,1 3,2 5,3 3,1 5,2 7,2l42 0c3,0 5,0 6,2 2,2 3,4 3,6 0,2 -1,4 -2,6 -2,1 -4,2 -7,2l-42 0c-9,0 -17,-3 -24,-10 -7,-6 -10,-14 -10,-24l0 -50c0,-9 3,-17 10,-24 6,-7 14,-10 24,-10l17 0c9,0 17,3 24,10 6,6 10,14 10,24l0 25c0,6 -3,9 -9,9l-59 0z"/>
    <path class="fil3 str0" d="M4424 4913l-19 20 0 27c0,2 -1,4 -2,6 -2,1 -4,2 -6,2 -3,0 -5,-1 -6,-2 -2,-2 -3,-4 -3,-6l0 -102c0,-2 1,-4 3,-6 1,-2 3,-2 6,-2 2,0 4,0 5,2 2,1 3,3 3,6l0 50 54 -56c1,-2 3,-3 5,-3 2,0 4,1 6,3 2,1 3,4 3,6 0,3 -1,5 -3,7l-34 35 35 54c1,2 2,4 2,6 0,2 -1,4 -3,6 -2,1 -4,2 -6,2 -2,0 -4,-1 -6,-3l-34 -52zm160 18c0,10 -3,19 -10,26 -8,7 -17,11 -27,11l-10 0c-10,0 -19,-4 -26,-11 -8,-7 -11,-16 -11,-26l0 -44c0,-10 3,-19 11,-26 7,-8 16,-11 26,-11l10 0c10,0 19,3 26,10 8,8 11,16 11,27l0 44zm-16 0l0 -44c0,-6 -2,-11 -6,-15 -4,-4 -9,-6 -15,-6l-10 0c-6,0 -10,2 -14,6 -4,4 -6,9 -6,15l0 44c0,5 2,10 5,14 4,4 9,6 15,6l10 0c6,0 10,-2 14,-6 4,-4 7,-8 7,-14zm152 29l0 -102c0,-3 -1,-5 -3,-7 -1,-2 -3,-3 -5,-3 -2,0 -5,2 -8,5l-35 50 -36 -50c-2,-3 -4,-5 -7,-5 -2,0 -4,1 -6,3 -1,2 -2,4 -2,7l0 102c0,2 1,4 2,6 2,1 4,2 7,2 2,0 3,-1 5,-2 2,-2 3,-4 3,-6l0 -76 27 38c2,3 4,5 7,5 2,0 4,-2 7,-5l27 -38 0 76c0,2 0,4 2,6 2,1 4,2 6,2 2,0 4,-1 6,-2 2,-2 3,-4 3,-6zm118 0c0,5 -3,8 -8,8l-43 0c-9,0 -17,-3 -24,-10 -6,-6 -10,-14 -10,-24l0 -76c0,-2 1,-4 3,-6 2,-2 4,-2 6,-2 2,0 4,0 6,2 1,1 2,3 2,6l0 76c0,5 2,9 5,12 2,2 4,3 5,4 3,1 5,1 7,1l34 0 0 -93c0,-2 1,-4 3,-6 1,-2 3,-2 6,-2 2,0 4,0 5,2 2,1 3,3 3,6l0 102zm93 8l-25 0c-10,0 -17,-3 -24,-10 -7,-6 -10,-14 -10,-24l0 -51c0,-9 3,-17 10,-24 6,-6 14,-9 24,-9l25 0c2,0 4,0 6,2 2,2 2,4 2,6 0,2 0,4 -2,6 -1,1 -3,2 -6,2l-25 0c-5,0 -9,2 -13,5 -1,2 -2,4 -3,6 -1,2 -1,4 -1,6l0 51c0,5 1,9 4,12 2,2 4,3 6,4 2,1 5,1 7,1l25 0c2,0 4,1 6,3 2,1 2,3 2,6 0,2 0,3 -2,5 -1,2 -3,3 -6,3zm101 0l-25 0c-9,0 -17,-3 -24,-10 -6,-6 -10,-14 -10,-24l0 -51c0,-9 4,-17 10,-24 7,-6 15,-9 24,-9l25 0c3,0 5,0 6,2 2,2 3,4 3,6 0,2 -1,4 -2,6 -2,1 -4,2 -7,2l-25 0c-5,0 -9,2 -12,5 -2,2 -3,4 -4,6 -1,2 -1,4 -1,6l0 51c0,5 2,9 5,12 2,2 3,3 5,4 3,1 5,1 7,1l25 0c3,0 5,1 6,3 2,1 3,3 3,6 0,2 -1,3 -2,5 -2,2 -4,3 -7,3zm127 -8c0,5 -3,8 -8,8l-42 0c-10,0 -18,-3 -24,-10 -7,-6 -10,-14 -10,-24l0 -76c0,-2 0,-4 2,-6 2,-2 4,-2 6,-2 2,0 4,0 6,2 2,1 2,3 2,6l0 76c0,5 2,9 5,12 2,2 4,3 6,4 2,1 4,1 6,1l34 0 0 -93c0,-2 1,-4 3,-6 2,-2 4,-2 6,-2 2,0 4,0 6,2 1,1 2,3 2,6l0 102zm119 0c0,5 -3,8 -9,8l-42 0c-9,0 -17,-3 -24,-10 -7,-6 -10,-14 -10,-24l0 -76c0,-2 1,-4 3,-6 1,-2 3,-2 5,-2 3,0 5,0 6,2 2,1 3,3 3,6l0 76c0,5 1,9 5,12 1,2 3,3 5,4 3,1 5,1 7,1l34 0 0 -93c0,-2 1,-4 2,-6 2,-2 4,-2 6,-2 2,0 4,0 6,2 2,1 3,3 3,6l0 102z"/>
   </g>
   <g>
    <path class="fil3 str0" d="M4458 5642l-34 0c-9,0 -17,-4 -24,-10 -7,-7 -10,-15 -10,-24l0 -76c0,-3 1,-5 2,-7 2,-1 4,-2 6,-2 2,0 4,1 6,2 2,2 3,4 3,7l0 76c0,5 1,9 5,12 1,1 3,3 5,4 2,0 5,1 7,1l34 0 0 -93c0,-3 1,-5 2,-7 2,-1 4,-2 6,-2 2,0 4,1 6,2 2,2 3,4 3,7l0 126c0,10 -4,18 -10,24 -7,7 -15,10 -24,10l-34 0c-2,0 -4,0 -6,-2 -2,-2 -3,-4 -3,-6 0,-2 1,-4 3,-6 1,-2 3,-2 6,-2l34 0c5,0 9,-2 12,-5 3,-3 5,-8 5,-12l0 -17zm118 -68l0 -42c0,-3 1,-5 3,-7 1,-1 3,-2 5,-2 3,0 5,1 6,2 2,2 3,4 3,7l0 101c0,3 -1,5 -2,7 -2,1 -4,2 -7,2 -2,0 -4,-1 -5,-3 -2,-1 -3,-3 -3,-6l0 -42 -34 0c-9,0 -17,-4 -24,-10 -6,-7 -10,-15 -10,-24l0 -25c0,-3 1,-5 3,-7 2,-1 3,-2 6,-2 2,0 4,1 6,2 1,2 2,4 2,7l0 25c0,5 2,9 5,12 2,1 3,3 5,4 3,0 5,1 7,1l34 0zm118 34l0 -68 -34 0c-4,0 -8,2 -12,5 -1,1 -2,3 -3,5 -1,2 -2,5 -2,7l0 51c0,5 2,9 5,12 2,1 4,3 6,4 2,0 4,1 6,1l17 0c5,0 9,-2 12,-5 4,-3 5,-7 5,-12zm9 22c-3,4 -7,6 -11,8 -5,3 -10,4 -15,4l-16 0c-10,0 -18,-4 -24,-10 -7,-7 -10,-15 -10,-24l0 -51c0,-9 3,-17 10,-24 6,-7 14,-10 24,-10l42 0c5,0 8,3 8,9l0 76c0,3 1,6 4,10 1,3 4,6 8,7 3,2 5,4 5,8 0,2 -1,4 -2,6 -2,2 -4,3 -6,3 -1,0 -3,-1 -4,-1 -5,-2 -10,-6 -13,-11zm101 12l-25 0c-9,0 -17,-4 -24,-10 -7,-7 -10,-15 -10,-24l0 -51c0,-9 3,-17 10,-24 7,-7 15,-10 24,-10l25 0c3,0 5,1 6,3 2,1 3,3 3,6 0,1 -1,3 -2,5 -2,2 -4,3 -7,3l-25 0c-5,0 -9,2 -12,5 -2,1 -3,3 -4,5 -1,2 -1,5 -1,7l0 51c0,5 1,9 5,12 1,1 3,3 5,4 3,0 5,1 7,1l25 0c3,0 5,1 6,2 2,2 3,4 3,6 0,2 -1,4 -2,6 -2,2 -4,3 -7,3zm93 -102l-34 0 0 93c0,3 0,5 -2,7 -2,1 -4,2 -6,2 -2,0 -4,-1 -6,-2 -2,-2 -2,-4 -2,-7l0 -101c0,-6 2,-9 8,-9l76 0c9,0 17,3 24,10 6,7 10,15 10,24l0 76c0,3 -1,5 -3,7 -1,1 -3,2 -6,2 -2,0 -4,-1 -6,-2 -1,-2 -2,-4 -2,-7l0 -76c0,-5 -2,-9 -5,-12 -3,-3 -7,-5 -12,-5l-17 0 0 93c0,3 -1,5 -2,7 -2,1 -4,2 -6,2 -3,0 -5,-1 -6,-2 -2,-2 -3,-4 -3,-7l0 -93zm136 46l-19 20 0 27c0,3 -1,5 -3,7 -1,1 -3,2 -6,2 -2,0 -4,-1 -6,-2 -1,-2 -2,-4 -2,-7l0 -101c0,-3 1,-5 2,-7 2,-1 4,-2 6,-2 3,0 4,1 6,2 2,2 3,4 3,7l0 50 53 -57c2,-1 4,-2 6,-2 2,0 4,1 6,2 2,2 2,4 2,7 0,2 -1,4 -2,6l-34 36 34 54c2,2 2,4 2,5 0,3 -1,5 -2,6 -2,2 -4,3 -6,3 -3,0 -5,-1 -6,-3l-34 -53zm160 18c0,10 -4,19 -11,27 -7,7 -16,11 -26,11l-10 0c-10,0 -19,-4 -26,-11 -8,-7 -12,-16 -12,-27l0 -44c0,-10 4,-18 11,-26 8,-7 16,-11 27,-11l10 0c10,0 19,4 26,11 7,7 11,16 11,26l0 44zm-17 0l0 -44c0,-5 -2,-10 -6,-14 -4,-4 -8,-6 -14,-6l-10 0c-6,0 -11,2 -15,6 -4,4 -6,9 -6,14l0 44c0,6 2,11 6,15 4,4 9,6 15,6l10 0c5,0 10,-2 14,-6 4,-4 6,-9 6,-15zm119 4l0 -51c0,-5 -2,-9 -5,-12 -3,-3 -7,-5 -12,-5l-17 0c-5,0 -9,2 -12,5 -2,2 -3,3 -4,5 -1,3 -1,5 -1,7l0 51c0,5 1,9 5,12 1,1 3,3 5,4 2,0 5,1 7,1l17 0c4,0 8,-2 12,-5 3,-3 5,-7 5,-12zm-51 -79l7 -4 10 -7c3,-3 5,-5 7,-7 2,-2 3,-5 3,-8 0,-4 -1,-7 -4,-10 -3,-2 -6,-3 -10,-3 -3,0 -7,1 -9,3 -3,2 -4,6 -4,10l0 26zm34 -5c10,0 19,3 25,9 6,6 8,14 8,24l0 51c0,9 -3,17 -9,24 -7,6 -15,10 -24,10l-17 0c-9,0 -17,-4 -24,-10 -7,-7 -10,-15 -10,-24l0 -105c0,-9 3,-17 9,-23 6,-5 13,-8 21,-8 8,0 15,3 21,8 7,6 10,13 10,23 0,5 -1,9 -3,12 -1,3 -4,6 -7,9zm169 109c0,3 -1,5 -3,7 -1,1 -3,2 -6,2 -2,0 -4,-1 -6,-2 -1,-2 -2,-4 -2,-7l0 -101c0,-3 1,-5 2,-7 2,-1 4,-2 6,-2 2,0 4,1 6,2 2,2 3,4 3,7l0 101zm-85 -42l0 34 17 0c5,0 9,-2 12,-5 3,-4 5,-8 5,-12 0,-5 -1,-9 -4,-12 -2,-2 -3,-3 -6,-4 -2,-1 -4,-1 -7,-1l-17 0zm0 -17l17 0c11,0 19,3 25,10 6,7 9,15 9,24 0,9 -3,16 -9,23 -6,7 -14,11 -25,11l-25 0c-6,0 -9,-3 -9,-9l0 -101c0,-3 1,-5 3,-7 1,-1 3,-2 6,-2 2,0 4,1 5,2 2,2 3,4 3,7l0 42zm135 0l51 0 0 -17c0,-5 -1,-9 -5,-12 -3,-3 -7,-5 -12,-5l-17 0c-4,0 -9,2 -12,5 -1,1 -3,3 -3,5 -1,2 -2,5 -2,7l0 17zm0 17l0 17c0,5 2,9 5,12 2,1 4,3 6,4 2,0 4,1 6,1l43 0c2,0 4,1 6,2 1,2 2,4 2,6 0,2 -1,4 -2,6 -1,2 -4,3 -6,3l-43 0c-9,0 -17,-4 -23,-10 -7,-7 -11,-15 -11,-24l0 -51c0,-9 4,-17 10,-24 7,-6 15,-10 24,-10l17 0c9,0 17,3 24,10 7,7 10,15 10,24l0 25c0,6 -3,9 -8,9l-60 0zm288 42c0,6 -3,9 -9,9l-42 0c-9,0 -17,-4 -24,-10 -6,-7 -10,-15 -10,-24l0 -76c0,-3 1,-5 3,-7 2,-1 4,-2 6,-2 2,0 4,1 6,2 1,2 2,4 2,7l0 76c0,5 2,9 5,12 2,1 4,3 5,4 3,0 5,1 7,1l34 0 0 -93c0,-3 1,-5 3,-7 1,-1 3,-2 6,-2 2,0 4,1 5,2 2,2 3,4 3,7l0 101zm78 -42l-10 0c-3,0 -5,-1 -7,-3 -1,-1 -2,-3 -2,-6 0,-2 1,-4 2,-5 2,-2 4,-3 7,-3l8 0c5,0 9,-2 12,-5 4,-4 5,-8 5,-12 0,-5 -1,-9 -4,-12 -1,-1 -3,-3 -5,-4 -3,-1 -5,-1 -8,-1l-8 0c-8,0 -15,2 -21,7 -1,1 -3,1 -5,2 -2,0 -4,-1 -6,-3 -1,-2 -2,-4 -2,-6 0,-3 1,-5 3,-7 9,-6 19,-10 31,-10l8 0c11,0 19,4 25,11 6,6 9,14 9,23 0,3 0,5 -1,7 0,2 -1,5 -2,7 -1,4 -4,8 -8,11 3,3 6,7 8,12l2 7c1,2 1,4 1,7 0,9 -3,17 -9,23 -6,7 -14,11 -25,11l-8 0c-12,0 -22,-4 -31,-11 -2,-1 -3,-3 -3,-6 0,-2 1,-4 2,-6 2,-2 4,-3 6,-3 2,0 3,1 5,2 6,5 13,7 21,7l8 0c5,0 9,-2 12,-5 3,-4 5,-8 5,-12 0,-5 -1,-8 -4,-11 -2,-4 -6,-5 -11,-6zm133 17l0 -51c0,-5 -1,-9 -4,-12 -4,-3 -8,-5 -13,-5l-17 0c-4,0 -8,2 -12,5 -1,1 -3,3 -3,5 -1,2 -2,5 -2,7l0 51c0,5 2,9 5,12 2,1 4,3 6,4 2,0 4,1 6,1l17 0c5,0 9,-2 12,-5 4,-3 5,-7 5,-12zm-27 -85l-38 -36c-2,-2 -3,-5 -3,-7 0,-2 1,-3 2,-5 2,-2 4,-3 7,-3l68 0c2,0 4,1 6,3 1,2 2,4 2,6 0,2 0,4 -2,5 -1,2 -3,3 -6,3l-47 0 45 43 2 3c6,6 8,14 8,22l0 51c0,9 -3,17 -10,24 -6,6 -14,10 -24,10l-17 0c-9,0 -17,-4 -23,-10 -7,-7 -10,-15 -10,-24l0 -51c0,-9 3,-17 10,-24 6,-7 14,-10 23,-10l7 0zm163 110c0,6 -3,9 -9,9l-42 0c-9,0 -17,-4 -24,-10 -7,-7 -10,-15 -10,-24l0 -76c0,-3 1,-5 2,-7 2,-1 4,-2 6,-2 3,0 5,1 6,2 2,2 3,4 3,7l0 76c0,5 1,9 5,12 1,1 3,3 5,4 3,0 5,1 7,1l34 0 0 -93c0,-3 1,-5 2,-7 2,-1 4,-2 6,-2 2,0 4,1 6,2 2,2 3,4 3,7l0 101zm50 -8l34 0c5,0 9,-2 12,-5 3,-3 5,-7 5,-12l0 -51c0,-5 -1,-9 -5,-12 -3,-3 -7,-5 -12,-5l-34 0 0 85zm0 17l0 42c0,2 -1,4 -2,6 -2,2 -4,2 -6,2 -2,0 -4,0 -6,-2 -2,-1 -3,-3 -3,-6l0 -152c0,-6 3,-9 9,-9l42 0c9,0 17,3 24,10 7,7 10,15 10,24l0 51c0,9 -3,17 -10,24 -7,6 -15,10 -24,10l-34 0zm169 -34l0 -68 -33 0c-5,0 -9,2 -13,5 -1,1 -2,3 -3,5 -1,2 -1,5 -1,7l0 51c0,5 1,9 4,12 2,1 4,3 6,4 2,0 5,1 7,1l17 0c4,0 8,-2 12,-5 3,-3 4,-7 4,-12zm9 22c-3,4 -7,6 -11,8 -5,3 -10,4 -14,4l-17 0c-10,0 -17,-4 -24,-10 -7,-7 -10,-15 -10,-24l0 -51c0,-9 3,-17 10,-24 6,-7 14,-10 24,-10l42 0c6,0 8,3 8,9l0 76c0,3 1,6 4,10 2,3 4,6 8,7 4,2 5,4 5,8 0,2 -1,4 -2,6 -2,2 -4,3 -6,3 -1,0 -2,-1 -4,-1 -5,-2 -10,-6 -13,-11zm93 -90l-34 0 0 93c0,3 -1,5 -2,7 -2,1 -4,2 -7,2 -2,0 -4,-1 -5,-2 -2,-2 -3,-4 -3,-7l0 -101c0,-6 3,-9 9,-9l76 0c9,0 17,3 23,10 7,7 10,15 10,24l0 76c0,3 0,5 -2,7 -2,1 -4,2 -6,2 -2,0 -4,-1 -6,-2 -2,-2 -2,-4 -2,-7l0 -76c0,-5 -2,-9 -5,-12 -3,-3 -8,-5 -12,-5l-17 0 0 93c0,3 -1,5 -3,7 -1,1 -3,2 -6,2 -2,0 -4,-1 -6,-2 -1,-2 -2,-4 -2,-7l0 -93zm118 34l51 0 0 -17c0,-5 -2,-9 -5,-12 -3,-3 -7,-5 -12,-5l-17 0c-5,0 -9,2 -12,5 -2,1 -3,3 -4,5 -1,2 -1,5 -1,7l0 17zm0 17l0 17c0,5 2,9 5,12 2,1 3,3 5,4 3,0 5,1 7,1l42 0c3,0 5,1 6,2 2,2 3,4 3,6 0,2 -1,4 -2,6 -2,2 -4,3 -7,3l-42 0c-9,0 -17,-4 -24,-10 -6,-7 -10,-15 -10,-24l0 -51c0,-9 4,-17 10,-24 7,-6 15,-10 24,-10l17 0c9,0 17,3 24,10 7,7 10,15 10,24l0 25c0,6 -3,9 -9,9l-59 0zm186 42c0,3 -1,5 -2,7 -2,1 -4,2 -6,2 -2,0 -4,-1 -6,-2 -2,-2 -3,-4 -3,-7l0 -93 -19 0 -32 96c0,2 -1,3 -3,4 0,1 -2,1 -4,2 -3,0 -5,-1 -6,-3 -2,-1 -3,-3 -3,-6l0 -3 34 -101c1,-4 4,-6 8,-6l34 0c5,0 8,3 8,9l0 101zm51 -42l0 34 34 0c5,0 9,-2 12,-5 3,-4 5,-8 5,-12 0,-5 -2,-9 -4,-12 -2,-2 -4,-3 -6,-4 -2,-1 -4,-1 -7,-1l-34 0zm0 -17l34 0c10,0 19,3 25,10 6,7 9,15 9,24 0,9 -3,16 -9,23 -6,7 -15,11 -25,11l-43 0c-5,0 -8,-3 -8,-9l0 -101c0,-3 1,-5 3,-7 1,-1 3,-2 5,-2 3,0 5,1 6,2 2,2 3,4 3,7l0 42zm169 0l0 -42c0,-3 1,-5 3,-7 1,-1 3,-2 6,-2 2,0 4,1 5,2 2,2 3,4 3,7l0 101c0,3 -1,5 -2,7 -2,1 -4,2 -6,2 -3,0 -5,-1 -6,-3 -2,-1 -3,-3 -3,-6l0 -42 -51 0 0 42c0,3 -1,5 -2,7 -2,1 -4,2 -6,2 -2,0 -4,-1 -6,-2 -2,-2 -3,-4 -3,-7l0 -101c0,-3 1,-5 3,-7 2,-1 4,-2 6,-2 2,0 4,1 6,2 1,2 2,4 2,7l0 42 51 0zm152 59c0,3 -1,5 -2,7 -2,1 -4,2 -6,2 -2,0 -4,-1 -6,-2 -2,-2 -3,-4 -3,-7l0 -101c0,-3 1,-5 3,-7 2,-1 4,-2 6,-2 2,0 4,1 6,2 1,2 2,4 2,7l0 101zm-84 -42l0 34 17 0c5,0 9,-2 12,-5 3,-4 4,-8 4,-12 0,-5 -1,-9 -4,-12 -1,-2 -3,-3 -5,-4 -2,-1 -5,-1 -7,-1l-17 0zm0 -17l16 0c11,0 20,3 26,10 5,7 8,15 8,24 0,9 -2,16 -8,23 -6,7 -15,11 -25,11l-26 0c-5,0 -8,-3 -8,-9l0 -101c0,-3 1,-5 2,-7 2,-1 4,-2 6,-2 2,0 4,1 6,2 2,2 3,4 3,7l0 42zm135 0l51 0 0 -17c0,-5 -2,-9 -5,-12 -3,-3 -7,-5 -12,-5l-17 0c-5,0 -9,2 -12,5 -2,1 -3,3 -4,5 -1,2 -1,5 -1,7l0 17zm0 17l0 17c0,5 1,9 5,12 1,1 3,3 5,4 3,0 5,1 7,1l42 0c2,0 4,1 6,2 2,2 3,4 3,6 0,2 -1,4 -2,6 -2,2 -4,3 -7,3l-42 0c-9,0 -17,-4 -24,-10 -7,-7 -10,-15 -10,-24l0 -51c0,-9 3,-17 10,-24 6,-6 14,-10 24,-10l17 0c9,0 17,3 24,10 6,7 10,15 10,24l0 25c0,6 -3,9 -9,9l-59 0zm-2756 266l-19 20 0 27c0,2 -1,5 -2,6 -2,2 -4,2 -6,2 -3,0 -5,0 -6,-2 -2,-1 -3,-3 -3,-6l0 -102c0,-2 1,-4 3,-6 1,-1 3,-2 6,-2 2,0 4,1 5,2 2,1 3,4 3,6l0 50 54 -56c1,-2 3,-2 5,-2 2,0 4,0 6,2 2,2 3,4 3,6 0,3 -1,5 -3,7l-34 36 35 53c1,3 2,5 2,6 0,2 -1,4 -3,6 -2,2 -4,3 -6,3 -2,0 -4,-2 -6,-4l-34 -52zm160 18c0,10 -3,19 -10,26 -8,8 -17,11 -27,11l-10 0c-10,0 -19,-3 -26,-10 -8,-8 -11,-16 -11,-27l0 -44c0,-10 3,-19 11,-26 7,-7 16,-11 26,-11l10 0c10,0 19,3 26,11 8,7 11,16 11,26l0 44zm-16 0l0 -44c0,-6 -2,-10 -6,-14 -4,-4 -9,-6 -15,-6l-10 0c-6,0 -10,2 -14,6 -4,4 -6,8 -6,14l0 44c0,6 2,10 5,14 4,4 9,6 15,6l10 0c6,0 10,-1 14,-5 4,-4 7,-9 7,-15zm152 29l0 -102c0,-3 -1,-5 -3,-7 -1,-2 -3,-2 -5,-2 -2,0 -5,1 -8,4l-35 50 -36 -50c-2,-3 -4,-4 -7,-4 -2,0 -4,0 -6,2 -1,2 -2,4 -2,7l0 102c0,2 1,5 2,6 2,2 4,2 7,2 2,0 3,0 5,-2 2,-1 3,-4 3,-6l0 -75 27 38c2,2 4,4 7,4 2,0 4,-2 7,-4l27 -38 0 75c0,2 0,5 2,6 2,2 4,2 6,2 2,0 4,0 6,-2 2,-1 3,-4 3,-6z"/>
    <path class="fil3 str0" d="M4838 5904c0,5 -3,8 -8,8l-43 0c-9,0 -17,-3 -24,-10 -6,-6 -10,-14 -10,-24l0 -76c0,-2 1,-4 3,-6 2,-1 4,-2 6,-2 2,0 4,0 6,2 1,1 2,3 2,6l0 77c0,4 2,8 5,12 2,1 4,2 5,3 3,1 5,1 7,1l34 0 0 -93c0,-2 1,-4 3,-6 1,-1 3,-2 6,-2 2,0 4,0 5,2 2,1 3,3 3,6l0 102zm93 8l-25 0c-10,0 -17,-3 -24,-10 -7,-6 -10,-14 -10,-24l0 -50c0,-10 3,-18 10,-24 6,-7 14,-10 24,-10l25 0c2,0 4,1 6,2 2,2 2,4 2,6 0,2 0,4 -2,6 -1,2 -3,3 -6,3l-25 0c-5,0 -9,1 -13,4 -1,2 -2,4 -3,6 -1,2 -1,4 -1,7l0 50c0,5 1,9 4,13 2,1 4,2 6,3 2,1 5,1 7,1l25 0c2,0 4,1 6,3 2,2 2,4 2,6 0,2 0,4 -2,6 -1,1 -3,2 -6,2zm101 0l-25 0c-9,0 -17,-3 -24,-10 -6,-6 -10,-14 -10,-24l0 -50c0,-10 4,-18 10,-24 7,-7 15,-10 24,-10l25 0c3,0 5,1 6,2 2,2 3,4 3,6 0,2 -1,4 -2,6 -2,2 -4,3 -7,3l-25 0c-5,0 -9,1 -12,4 -2,2 -3,4 -4,6 -1,2 -1,4 -1,7l0 50c0,5 2,9 5,13 2,1 3,2 5,3 3,1 5,1 7,1l25 0c3,0 5,1 6,3 2,2 3,4 3,6 0,2 -1,4 -2,6 -2,1 -4,2 -7,2zm127 -8c0,5 -3,8 -8,8l-42 0c-10,0 -18,-3 -24,-10 -7,-6 -10,-14 -10,-24l0 -76c0,-2 0,-4 2,-6 2,-1 4,-2 6,-2 2,0 4,0 6,2 2,1 2,3 2,6l0 77c0,4 2,8 5,12 2,1 4,2 6,3 2,1 4,1 6,1l34 0 0 -93c0,-2 1,-4 3,-6 2,-1 4,-2 6,-2 2,0 4,0 6,2 1,1 2,3 2,6l0 102zm119 0c0,5 -3,8 -9,8l-42 0c-9,0 -17,-3 -24,-10 -7,-6 -10,-14 -10,-24l0 -76c0,-2 1,-4 3,-6 1,-1 3,-2 5,-2 3,0 5,0 6,2 2,1 3,3 3,6l0 77c0,4 1,8 5,12 1,1 3,2 5,3 3,1 5,1 7,1l34 0 0 -93c0,-2 1,-4 2,-6 2,-1 4,-2 6,-2 2,0 4,0 6,2 2,1 3,3 3,6l0 102z"/>
   </g>
  </g>
 </g>
</svg>
