<?xml version="1.0" encoding="UTF-8"?>
<!DOCTYPE svg PUBLIC "-//W3C//DTD SVG 1.0//EN" "http://www.w3.org/TR/2001/REC-SVG-20010904/DTD/svg10.dtd">
<!-- Creator: CorelDRAW X7 -->
<svg xmlns="http://www.w3.org/2000/svg" xml:space="preserve" width="115mm" height="70.122mm" version="1.0" style="shape-rendering:geometricPrecision; text-rendering:geometricPrecision; image-rendering:optimizeQuality; fill-rule:evenodd; clip-rule:evenodd"
viewBox="0 0 11500 7012"
 xmlns:xlink="http://www.w3.org/1999/xlink">
 <defs>
  <style type="text/css">
   <![CDATA[
    .str1 {stroke:#004641;stroke-width:8.76524}
    .str2 {stroke:#4D8A7D;stroke-width:8.76524}
    .str0 {stroke:#034540;stroke-width:43.0724;stroke-linecap:round;stroke-linejoin:round}
    .fil10 {fill:#FEFEFE}
    .fil27 {fill:#5B5B5B}
    .fil25 {fill:#434242}
    .fil7 {fill:#FCE2D5}
    .fil9 {fill:#FCDFC3}
    .fil32 {fill:#F8D8B7}
    .fil26 {fill:#F7CFB5}
    .fil23 {fill:#F7E1C2}
    .fil16 {fill:#F5D8B9}
    .fil13 {fill:#F2F2F3}
    .fil30 {fill:#EDC5AB}
    .fil17 {fill:#EBECEC}
    .fil12 {fill:#CA3637}
    .fil14 {fill:#D4B699}
    .fil18 {fill:#B83633}
    .fil24 {fill:#CDB799}
    .fil33 {fill:#CCAF92}
    .fil29 {fill:#CBA88F}
    .fil15 {fill:#80604D}
    .fil19 {fill:#9AADB5}
    .fil22 {fill:#6C5C49}
    .fil11 {fill:#6B6560}
    .fil31 {fill:#758E9C}
    .fil8 {fill:#433F3E}
    .fil21 {fill:#3F3C3A}
    .fil5 {fill:#3F3C3A}
    .fil20 {fill:#2797CE}
    .fil28 {fill:#2C8187}
    .fil6 {fill:#287579}
    .fil2 {fill:#034540}
    .fil34 {fill:#4D8A7D}
    .fil1 {fill:#AFAFC7}
    .fil3 {fill:#D8C650}
    .fil4 {fill:#4D8A7D;fill-rule:nonzero}
    .fil0 {fill:url(#id0)}
   ]]>
  </style>
  <radialGradient id="id0" gradientUnits="userSpaceOnUse" gradientTransform="matrix(1.17124 -0 -0 1.92083 -985 -3229)" cx="5750" cy="3506.1" r="3506.1" fx="5750" fy="3506.1">
   <stop offset="0" style="stop-opacity:1; stop-color:#FEFEFE"/>
   <stop offset="0.439216" style="stop-opacity:1; stop-color:#FEFEFE"/>
   <stop offset="1" style="stop-opacity:1; stop-color:#D1E2F2"/>
  </radialGradient>
 </defs>
 <g id="Layer_x0020_1">
  <metadata id="CorelCorpID_0Corel-Layer"/>
  <path class="fil0" d="M0 0l11500 0 0 7012 -11500 0 0 -7012z"/>
  <path class="fil1 str0" d="M6429 3156l0 2232c-424,0 -1186,0 -1610,0l0 -2232 1610 0z"/>
  <path class="fil2 str1" d="M4991 3289l0 46 5 0c5,0 10,-2 14,-6 4,-4 6,-8 6,-14l0 -5c0,-6 -2,-10 -6,-14 -4,-5 -8,-7 -14,-7l-5 0zm-10 46l0 -46 -5 0c-6,0 -11,2 -15,6 -4,4 -6,9 -6,15l0 5c0,6 2,10 6,14 4,4 9,6 15,6l5 0zm0 11l-5 0c-9,0 -16,-3 -22,-9 -6,-6 -9,-14 -9,-22l0 -5c0,-8 3,-16 9,-22 6,-6 13,-9 22,-9l5 0 0 -10c0,-1 0,-2 1,-4 1,0 2,-1 4,-1 1,0 2,1 3,1 1,1 2,3 2,4l0 10 5 0c8,0 15,3 21,9 3,3 5,6 7,10 1,4 2,8 2,12l0 5c0,8 -3,15 -9,21 -6,6 -13,10 -21,10l-5 0 0 15c0,1 -1,3 -2,3 -1,1 -2,2 -3,2 -2,0 -3,-1 -4,-2 -1,0 -1,-2 -1,-3l0 -15zm76 -41l25 0c2,0 3,0 4,1 1,1 1,3 1,4 0,1 0,2 -1,3 -1,1 -2,2 -4,2l-25 0 0 41 35 0c2,0 3,0 4,1 1,1 2,2 2,4 0,1 -1,2 -2,3 -1,1 -2,2 -4,2l-40 0c-4,0 -5,-2 -5,-5l0 -92c0,-3 1,-5 5,-5l40 0c2,0 3,1 4,2 1,1 2,2 2,3 0,1 -1,3 -2,4 -1,1 -2,1 -4,1l-35 0 0 31zm71 51l10 -87c0,-3 2,-5 5,-5l30 0c4,0 6,2 6,5l0 87 5 0c3,0 5,1 5,5l0 10c0,1 -1,2 -2,3 -1,1 -2,2 -3,2 -1,0 -3,-1 -4,-1 -1,-1 -1,-3 -1,-4l0 -5 -51 0 0 5c0,1 -1,2 -2,3 -1,1 -2,2 -3,2 -1,0 -3,-1 -4,-1 -1,-1 -1,-3 -1,-4l0 -10c0,-4 1,-5 5,-5l5 0zm40 0l0 -82 -20 0 -10 82 30 0zm51 -51l26 0c1,0 2,0 3,1 1,1 2,3 2,4 0,1 -1,2 -2,3 0,1 -2,2 -3,2l-26 0 0 41 36 0c1,0 2,0 3,1 1,1 2,2 2,4 0,1 -1,2 -1,3 -1,1 -3,2 -4,2l-41 0c-3,0 -5,-2 -5,-5l0 -92c0,-3 2,-5 5,-5l41 0c1,0 2,1 3,2 1,1 2,2 2,3 0,1 -1,3 -1,4 -1,1 -3,1 -4,1l-36 0 0 31zm71 10l31 0c2,0 5,-1 7,-3 2,-2 3,-4 3,-7l0 -21c0,-2 -1,-5 -3,-7 -2,-2 -4,-3 -7,-3l-31 0 0 41zm0 10l0 36c0,1 0,2 -1,3 -1,1 -2,2 -4,2 -1,0 -2,-1 -3,-2 -2,0 -2,-2 -2,-3l0 -92c0,-3 2,-5 5,-5l36 0c5,0 10,2 14,6 4,4 6,9 6,14l0 21c0,5 -2,10 -6,14 -4,4 -9,6 -14,6l-31 0zm79 15l-7 22c-1,1 -2,2 -2,3 -1,0 -2,1 -3,1 -1,0 -3,-1 -4,-2 -1,-1 -1,-2 -1,-3l0 -2 31 -91c1,-3 2,-5 4,-5 2,0 4,2 5,5l30 91 1 2c0,1 -1,2 -2,3 -1,1 -2,2 -3,2 -1,0 -2,0 -3,-1 -1,0 -1,-1 -2,-3l-7 -22 -37 0zm33 -10l-15 -45 -15 45 30 0zm101 31c0,1 0,2 -1,3 -1,1 -2,2 -4,2 -1,0 -2,-1 -3,-2 -1,0 -2,-2 -2,-3l0 -87 -16 0 -25 88c0,1 0,2 -1,3 -1,0 -2,1 -3,1 -2,0 -3,-1 -4,-2 -1,0 -2,-2 -2,-3 0,-1 0,-1 1,-2l25 -91c1,-3 2,-4 5,-4l25 0c4,0 5,2 5,5l0 92zm31 -46l30 0c3,0 5,1 7,3 2,2 3,4 3,7l0 20c0,3 -1,6 -3,8 -1,1 -2,1 -3,2 -1,0 -3,1 -4,1l-30 0 0 -41zm0 -10l0 -36c0,-1 -1,-2 -2,-3 -1,-1 -2,-2 -3,-2 -2,0 -3,1 -4,1 -1,1 -2,3 -2,4l0 92c0,3 2,5 6,5l35 0c6,0 10,-2 14,-6 4,-4 6,-9 6,-15l0 -20c0,-5 -2,-10 -6,-14 -4,-4 -8,-6 -14,-6l-30 0zm121 0l0 -36c0,-1 1,-2 2,-3 1,-1 2,-2 3,-2 2,0 3,1 4,1 1,1 2,3 2,4l0 91c0,2 -1,3 -2,4 -1,1 -2,2 -4,2 -1,0 -2,-1 -3,-2 -1,0 -2,-2 -2,-3l0 -46 -40 0 0 46c0,1 -1,2 -2,3 -1,1 -2,2 -3,2 -2,0 -3,-1 -4,-2 -1,0 -1,-2 -1,-3l0 -92c0,-1 0,-2 1,-3 1,-1 2,-2 4,-2 1,0 2,1 3,1 1,1 2,3 2,4l0 36 40 0zm102 56c0,1 -1,2 -2,3 0,1 -2,2 -3,2 -1,0 -3,-1 -4,-2 -1,0 -1,-2 -1,-3l0 -92c0,-1 0,-2 1,-4 1,0 3,-1 4,-1 1,0 2,1 3,1 1,1 2,3 2,4l0 92zm-61 -46l0 41 20 0c3,0 6,-1 7,-3 2,-2 3,-5 3,-8l0 -20c0,-3 0,-5 -2,-7 -2,-2 -5,-3 -8,-3l-20 0zm0 -10l20 0c6,0 11,2 15,6 4,4 6,8 6,14l0 20c0,6 -2,11 -6,15 -4,4 -9,6 -15,6l-25 0c-4,0 -5,-2 -5,-5l0 -92c0,-1 0,-2 1,-4 1,0 3,-1 4,-1 1,0 2,1 3,1 1,1 2,3 2,4l0 36zm122 -51l-21 0c-1,0 -2,0 -3,-1 -1,-1 -2,-3 -2,-4 0,-1 1,-2 2,-3 0,-1 2,-2 3,-2l21 0c1,0 2,0 3,2 1,1 2,2 2,3 0,1 -1,2 -2,3 0,2 -2,2 -3,2zm20 107c0,1 0,2 -1,3 -1,1 -3,2 -4,2 -1,0 -3,-1 -4,-2 -1,0 -1,-2 -1,-3l0 -72 -41 74c-1,1 -2,2 -3,3l-1 0c0,0 -1,0 -1,1 -1,0 -2,-1 -4,-2 0,-1 -1,-2 -1,-4l0 -92c0,-1 1,-2 2,-3 1,-1 2,-2 3,-2 1,0 3,1 4,1 1,1 1,3 1,4l0 72 41 -74c1,-1 2,-2 3,-3 0,0 1,-1 2,-1 1,0 2,1 3,2 1,1 2,3 2,4l0 92zm112 -46l-16 0c-1,0 -2,-1 -3,-2 -1,-1 -2,-2 -2,-3 0,-1 1,-2 2,-4 1,-1 2,-1 3,-1l16 0c2,0 5,-1 7,-3 2,-2 3,-4 3,-7l0 -11c0,-2 -1,-5 -3,-7 -2,-2 -4,-3 -7,-3l-10 0c-3,0 -5,1 -6,2 -2,1 -3,3 -4,5 0,1 -1,2 -2,3 0,0 -1,0 -1,1l-2 0c-1,0 -2,-1 -4,-2 -1,-1 -1,-2 -1,-3l0 -2c2,-4 4,-7 8,-10 3,-3 7,-4 11,-4l11 0c5,0 10,2 14,6 4,4 6,9 6,14l0 11c0,3 -1,5 -2,8 -1,3 -3,5 -5,7 5,4 7,9 7,15l0 20c0,6 -2,11 -6,15 -4,4 -9,6 -14,6l-11 0c-4,0 -8,-2 -11,-4 -4,-3 -6,-6 -8,-10l0 -2c0,-1 0,-3 1,-4 1,-1 3,-1 4,-1 2,0 4,1 5,3 0,2 2,4 4,6 1,1 3,2 6,2l10 0c2,0 5,-1 7,-3 2,-2 3,-5 3,-8l0 -20c0,-3 -1,-5 -2,-7 -2,-2 -5,-3 -8,-3zm53 25l-7 22c-1,1 -1,2 -2,3 -1,0 -2,1 -3,1 -1,0 -3,-1 -4,-2 -1,-1 -1,-2 -1,-3l0 -2 31 -91c1,-3 2,-5 4,-5 3,0 4,2 5,5l30 91 1 2c0,1 -1,2 -2,3 -1,1 -2,2 -3,2 -1,0 -2,0 -3,-1 -1,0 -1,-1 -2,-3l-7 -22 -37 0zm33 -10l-15 -45 -15 45 30 0zm50 -22l43 -42c1,-1 2,-2 4,-2 1,0 2,1 3,2 1,1 2,2 2,3 0,1 -1,2 -2,4l-30 30 31 55 1 3c0,1 -1,2 -2,3 -1,1 -2,2 -3,2 -2,0 -3,-1 -5,-3l-29 -53 -13 12 0 39c0,1 0,2 -1,3 -1,1 -2,2 -4,2 -1,0 -2,-1 -3,-2 -1,0 -2,-2 -2,-3l0 -92c0,-1 1,-2 2,-3 1,-1 2,-2 3,-2 2,0 3,1 4,1 1,1 1,2 1,4l0 39zm127 37c0,6 -2,11 -6,15 -4,4 -8,6 -14,6l-20 0c-6,0 -11,-2 -15,-6 -4,-4 -6,-9 -6,-15l0 -61c0,-5 2,-10 6,-14 4,-4 9,-6 15,-6l20 0c6,0 10,2 14,6 4,4 6,9 6,14l0 61zm-10 0l0 -61c0,-2 -1,-5 -3,-7 -2,-2 -4,-3 -7,-3l-20 0c-3,0 -6,1 -8,3 -1,1 -1,2 -2,3 0,2 -1,3 -1,4l0 61c0,3 1,6 3,8 1,1 2,1 4,2 1,0 2,1 4,1l20 0c3,0 5,-1 7,-3 2,-2 3,-5 3,-8zm89 -40l0 -36c0,-1 1,-2 2,-3 1,-1 2,-2 3,-2 2,0 3,1 4,1 1,1 1,3 1,4l0 91c0,2 0,3 -1,4 -1,1 -2,2 -4,2 -1,0 -2,-1 -3,-2 -1,0 -2,-2 -2,-3l0 -46 -40 0 0 46c0,1 -1,2 -2,3 -1,1 -2,2 -3,2 -2,0 -3,-1 -4,-2 -1,0 -1,-2 -1,-3l0 -92c0,-1 0,-2 1,-3 1,-1 2,-2 4,-2 1,0 2,1 3,1 1,1 2,3 2,4l0 36 40 0z"/>
  <g id="_136989239840">
   <path class="fil3" d="M5714 3559c25,21 6,33 -13,32 2,-14 5,-2 5,-19 -3,-1 -6,-1 -9,-1l-8 -1c-5,0 -11,2 -15,3 5,21 10,0 10,20 -7,-1 -2,-1 -5,-2 0,0 -1,0 -2,-1l-12 -5c-5,-3 -9,-6 -15,-6 -8,-7 -3,-6 -11,-7 -17,-1 -6,0 -4,6 4,7 16,9 24,13 -2,8 -3,7 -8,12 1,17 1,-1 6,13 -10,8 -15,21 -25,30 -16,5 -13,-14 -32,-27 2,-12 -7,-2 8,-10 -27,-2 -14,-16 -8,-21l7 -4c-3,-9 7,-7 -7,-5 -16,20 -19,0 -22,-7 -17,-2 -14,3 -14,3l-1 -8c-9,3 -2,2 -14,5l-4 4c3,9 1,2 4,6 3,4 2,1 4,7 -14,8 3,3 -17,7 -13,3 0,-3 -4,2 -3,5 2,4 -3,5 9,0 11,4 18,9 8,5 8,5 12,15 -11,-5 -19,0 -30,2 10,0 11,-2 25,-2l-4 3c-7,6 -5,3 -6,6 12,1 7,-7 28,-5 10,1 18,4 19,17 1,12 -2,11 -4,17 -4,9 1,-6 1,8 0,10 -11,13 -20,11 3,8 4,4 4,13 -11,6 -14,7 -27,1 0,0 -9,-6 -9,-6 -19,-15 9,-12 7,-26l-39 -33c-20,-10 -10,-13 -24,-24l-21 -24c-8,-11 -6,-4 -10,-14l-2 4 1 23 -14 -2c2,23 -3,4 -7,18 -2,10 3,9 6,16 -3,2 -7,3 -11,6 4,11 6,10 14,17 0,1 -1,1 -1,1 -1,0 -2,1 -2,1 -6,7 -2,-5 -5,9 13,15 14,8 14,17l-13 2 -4 5c7,3 12,6 13,15 -7,5 -12,4 -16,10 -2,3 -8,17 -9,20 43,13 7,4 51,6 -1,11 -3,9 -6,18 13,-2 13,-8 29,-8l-2 13c0,1 0,2 0,2 0,1 0,1 1,2 17,-6 2,-7 17,-12 11,7 6,8 6,8l2 3c5,-3 3,-2 7,-5 5,-4 0,-2 8,-6 9,5 4,5 11,7 9,-10 -1,-24 34,-17l0 25c-44,4 -32,22 -31,31l-4 1c1,13 7,2 16,13 -11,8 -40,27 -50,15l-11 -1c-1,0 -1,-2 -2,-1l-18 -20c-1,-1 -1,-2 -2,-2 0,0 -1,-1 -1,-1 2,8 4,10 2,18l12 9c-1,0 -18,14 6,24 12,5 5,-4 13,7 5,6 1,10 5,16l10 -1c-4,-13 -7,-4 -12,-20 4,-9 -1,-2 6,-8 3,-3 5,-5 9,-7 21,-11 25,-10 42,-14 16,-4 10,-5 12,-18l14 1c-7,-6 -15,-5 -9,-17 4,-8 14,-8 25,-7 4,7 9,10 5,21 -3,10 -6,12 -13,16l6 5c0,1 1,1 1,2 0,0 1,1 2,1 -21,4 -29,13 -42,24 -22,19 -13,-9 -21,-1 -8,7 1,17 2,19l-7 4 -4 5c-3,6 -2,4 -3,11 10,6 5,7 14,8 27,3 1,0 17,7 6,3 8,1 14,1 23,-2 7,3 24,7 7,1 11,-1 17,0 8,1 3,2 12,5 20,-15 14,0 33,-8l4 -3c3,-3 0,-1 3,-5 4,4 18,6 25,3 5,-1 8,-5 11,-6 15,-6 3,1 15,0 3,-5 5,-7 5,-16l-12 -10 5 -18c-4,-3 -3,5 -4,-7 0,0 -1,0 -1,1l-3 5c0,1 -2,5 -3,6 -16,-1 -19,-14 -52,-30 -1,0 -2,-1 -2,-1 -1,0 -2,-1 -2,-1 0,-1 0,-2 0,-2 1,0 1,-2 1,-2 1,-3 1,-2 2,-6 -4,-2 -9,-5 -12,-7 -2,-27 13,-35 32,-23l-2 13 -4 6c14,3 8,2 14,15l12 2c16,8 34,13 51,20 12,5 9,12 23,11 9,-1 20,-7 28,-9 9,-21 10,-22 7,-32 -3,-7 -3,-10 -9,-14 -6,-4 -11,-2 -13,-7 -35,0 -36,27 -40,34 -10,0 -27,-6 -33,-10 2,-9 1,-5 5,-11 4,-7 -1,-1 6,-5 -9,-8 -3,-10 -4,-20 -2,-12 -9,-6 -19,-15l-14 0c3,6 1,9 16,10 -9,-3 -6,3 -18,-5 -1,-1 -2,-2 -3,-2l-10 10c-2,-8 -2,-15 -18,-12 -10,3 -13,8 -19,9 -6,1 -12,-12 -19,5 -3,-15 -2,-9 1,-14 -28,2 -20,-2 -33,0 4,-15 2,-12 2,-24 0,-15 3,-6 0,-13l-6 -9 -18 0 6 -6c10,-13 -7,11 2,-3l8 -1c0,0 1,-1 1,-2 2,-5 -1,7 2,-5 0,1 0,5 0,5 3,9 -3,1 4,7l2 -27c27,1 83,-4 98,0 2,-1 4,-1 6,-3 6,-6 4,2 4,-8 -10,0 -13,1 -20,-4 3,-12 2,-5 11,-13l-16 -9c-1,-38 30,-26 31,-25l4 -11c5,-8 6,-4 17,-10 11,-6 4,-1 9,-6 2,-13 1,-3 -5,-14 6,-3 14,-5 21,-8 -2,-16 -20,-22 -2,-34 11,-3 2,0 6,-4 -16,-6 -26,-5 -30,15z"/>
   <path class="fil3" d="M5694 3770l-15 -2 0 -25c14,-2 14,1 28,2 0,9 -2,8 2,14l-2 -9c12,4 8,4 9,0 -7,-2 -2,0 -6,-3 -13,-8 -13,-1 -13,-22 6,4 7,-4 10,12 2,-4 1,-4 -1,-11 7,2 7,6 5,-3 -1,-6 0,-9 -4,-13l-7 14c-4,-8 9,6 -4,-1 -9,-5 -3,-9 -7,-16 0,0 -1,1 -1,1 -5,5 -4,3 -5,10l-1 5c-8,-4 -8,-2 -8,-13 0,-11 1,-12 4,-15l0 -2c-15,-4 -71,1 -98,0l-2 27c-7,-6 -1,2 -4,-7 0,0 0,-4 0,-5 -3,12 0,0 -2,5 0,1 -1,2 -1,2l-8 1c-9,14 8,-10 -2,3l-6 6 18 0 6 9c3,7 0,-2 0,13 0,12 2,9 -2,24 13,-2 5,2 33,0 -3,5 -4,-1 -1,14 7,-17 13,-4 19,-5 6,-1 9,-6 19,-9 16,-3 16,4 18,12l10 -10c1,0 2,1 3,2 12,8 9,2 18,5 -15,-1 -13,-4 -16,-10l14 0z"/>
   <path class="fil3" d="M5687 3699c-5,2 -1,-8 -5,2l0 4c29,8 39,3 52,-14 -8,-5 3,3 -3,-4l-5 -5c-5,-4 -3,2 -9,-9 25,-1 26,-5 31,-17 16,-1 7,3 16,-4l17 -9c-1,9 -4,4 -2,9l17 1 -2 6c-6,8 -2,2 -3,2l11 2c-2,5 -6,2 -13,14 6,3 10,-4 17,1l-15 12c-2,1 -5,2 -7,3 1,1 4,4 4,6 0,0 7,-2 -5,12 8,0 8,0 17,0l-3 9c0,2 -5,4 -7,15 -16,-1 -12,-10 -21,-3 -10,8 -3,9 -19,13 -9,2 3,-12 -5,2 -3,3 -2,6 2,18 10,0 -2,1 9,-8l25 11c1,-1 1,-2 1,-2l5 -10 23 5c-6,-28 -7,-12 15,-21 -7,-9 -8,-1 -11,-12 9,-11 10,-5 18,-13 -7,-6 -6,-3 -16,-7 2,-6 -5,-3 18,-13 -6,-7 -4,-4 -16,-7 2,-7 2,-8 12,-17 -7,-4 -2,0 -7,-2 0,0 -1,0 -2,0 0,-1 -1,-1 -1,-1l-4 -2c2,-4 17,-24 18,-25l-15 -5c2,-7 0,-2 5,-6 4,-3 1,4 6,-5 1,-3 2,-17 3,-21l-8 0 -1 -12c-7,3 -4,5 -13,5 -1,-9 2,-15 -2,-23 -4,2 -19,24 -22,28 -8,13 -34,28 -40,34 -3,3 -6,10 -10,15 -10,10 -18,12 -27,22 6,12 9,9 14,17 -9,10 -19,16 -37,9z"/>
   <path class="fil3" d="M5687 3699l-9 -4c-3,3 -4,4 -4,15 0,11 0,9 8,13l1 -5c1,-7 0,-5 5,-10 0,0 1,-1 1,-1 4,7 -2,11 7,16 13,7 0,-7 4,1l7 -14c4,4 3,7 4,13 2,9 2,5 -5,3 2,7 3,7 1,11 -3,-16 -4,-8 -10,-12 0,21 0,14 13,22 4,3 -1,1 6,3 -1,4 3,4 -9,0l2 9 7 7c9,-6 4,-7 13,-15 9,5 7,8 18,14 -4,-12 -5,-15 -2,-18 8,-14 -4,0 5,-2 16,-4 9,-5 19,-13 9,-7 5,2 21,3 2,-11 7,-13 7,-15l3 -9c-9,0 -9,0 -17,0 12,-14 5,-12 5,-12 0,-2 -3,-5 -4,-6 2,-1 5,-2 7,-3l15 -12c-7,-5 -11,2 -17,-1 7,-12 11,-9 13,-14l-11 -2c1,0 -3,6 3,-2l2 -6 -17 -1c-2,-5 1,0 2,-9l-17 9c-9,7 0,3 -16,4 -5,12 -6,16 -31,17 6,11 4,5 9,9l5 5c6,7 -5,-1 3,4 -13,17 -23,22 -52,14l0 -4c4,-10 0,0 5,-2z"/>
   <path class="fil3" d="M5600 3579c14,-2 4,-4 7,5l-7 4c7,-1 9,-1 15,-4l8 -8c1,0 1,-1 2,-1 8,2 3,0 10,3 -2,-6 -13,-7 4,-6 8,1 3,0 11,7 -3,-28 7,-16 7,-43l-12 -6c-5,-2 -8,-2 -16,-3 -1,-12 6,-11 -1,-18 -10,-9 -5,8 -5,9 -1,10 -4,10 -13,14 -33,14 -12,20 -10,47z"/>
   <path class="fil3" d="M5652 3822c4,-5 1,1 3,-5 0,-1 1,-7 2,-8 4,-7 2,-4 13,-4l2 -13c-19,-12 -34,-4 -32,23 3,2 8,5 12,7z"/>
   <path class="fil3" d="M5753 3548l7 3c-5,23 -6,19 6,33 4,-1 4,-1 6,-2 13,-7 8,-2 16,-6l-12 -5c-4,-19 6,-19 -5,-27l-18 4z"/>
   <path class="fil3" d="M5680 3877c7,-16 -16,-25 -25,-36 -8,-9 -3,-7 -17,-9 5,13 8,9 19,27 6,9 6,25 23,18z"/>
   <path class="fil3" d="M5573 3878c15,-1 12,-9 29,-32 4,-6 6,-4 9,-12 -14,1 -16,8 -27,17 -8,7 -16,15 -11,27z"/>
  </g>
  <g id="_136989237056">
   <path class="fil2 str1" d="M5300 4149c0,6 -2,11 -6,15 -4,4 -9,6 -14,6l-20 0c-6,0 -11,-2 -15,-6 -4,-4 -6,-9 -6,-15l0 -61c0,-5 2,-10 6,-14 4,-4 9,-6 15,-6l20 0c6,0 10,2 14,6 4,4 6,9 6,14l0 61zm-10 0l0 -61c0,-2 -1,-5 -3,-7 -2,-2 -4,-3 -7,-3l-20 0c-3,0 -6,1 -8,3 -1,1 -1,2 -2,3 0,2 -1,3 -1,4l0 61c0,3 1,6 3,8 1,1 2,1 4,2 1,0 2,1 4,1l20 0c3,0 5,-1 7,-3 2,-2 3,-5 3,-8zm79 0l0 -30c0,-3 -1,-5 -3,-7 -2,-2 -4,-3 -7,-3l-10 0c-3,0 -5,1 -7,3 -1,1 -2,2 -3,3 0,1 0,2 0,4l0 30c0,3 1,6 3,8 1,1 2,1 3,2 1,0 3,1 4,1l10 0c3,0 5,-1 7,-3 2,-2 3,-5 3,-8zm-16 -50l-23 -22c-1,-1 -2,-3 -2,-4 0,-1 1,-2 2,-3 0,-1 2,-2 4,-2l40 0c2,0 3,1 4,2 1,1 1,2 1,3 0,1 0,2 -1,4 -1,1 -2,1 -4,1l-28 0 27 26 1 2c4,3 5,8 5,13l0 30c0,6 -2,11 -6,15 -4,4 -8,6 -14,6l-10 0c-6,0 -10,-2 -14,-6 -4,-4 -6,-9 -6,-15l0 -30c0,-6 2,-11 6,-15 3,-3 8,-5 14,-5l4 0zm158 48c0,6 -2,12 -6,16 -5,4 -10,7 -16,7l-6 0c-6,0 -11,-3 -16,-7 -4,-4 -7,-9 -7,-16l0 -26c0,-6 3,-11 7,-16 4,-4 10,-6 16,-6l6 0c6,0 11,2 16,6 4,4 6,10 6,16l0 26zm-10 0l0 -26c0,-3 -1,-6 -3,-9 -3,-2 -6,-3 -9,-3l-6 0c-4,0 -6,1 -9,3 -2,3 -3,5 -3,9l0 26c0,4 1,7 3,9 2,2 5,4 9,4l6 0c3,0 6,-2 9,-4 2,-2 3,-5 3,-9zm66 23l-15 0c-6,0 -10,-2 -14,-6 -4,-4 -7,-9 -7,-15l0 -30c0,-6 2,-11 6,-15 4,-3 9,-5 15,-5l15 0c1,0 3,0 4,1 1,1 1,2 1,4 0,1 0,2 -1,3 -1,1 -2,2 -4,2l-15 0c-3,0 -6,1 -7,3 -1,1 -2,2 -3,3 0,1 0,2 0,4l0 30c0,3 1,6 3,8 1,1 2,1 3,2 1,0 3,1 4,1l15 0c1,0 3,0 4,1 1,1 1,2 1,4 0,1 0,2 -1,3 -1,1 -2,2 -4,2zm66 -41l0 -25c0,-2 1,-3 2,-4 1,-1 2,-1 3,-1 1,0 3,0 4,1 1,1 1,2 1,4l0 61c0,1 0,2 -1,3 -1,1 -2,2 -4,2 -1,0 -2,-1 -3,-2 -1,0 -2,-2 -2,-3l0 -26 -31 0 0 26c0,1 0,2 -1,3 -1,1 -2,2 -4,2 -1,0 -2,-1 -3,-2 -1,0 -2,-2 -2,-3l0 -61c0,-2 1,-3 2,-4 1,-1 2,-1 3,-1 2,0 3,0 4,1 1,1 1,2 1,4l0 25 31 0zm81 18c0,6 -2,12 -6,16 -5,4 -10,7 -16,7l-6 0c-6,0 -12,-3 -16,-7 -4,-4 -7,-9 -7,-16l0 -26c0,-6 3,-11 7,-16 4,-4 10,-6 16,-6l6 0c6,0 11,2 16,6 4,4 6,10 6,16l0 26zm-10 0l0 -26c0,-3 -1,-6 -3,-9 -3,-2 -6,-3 -9,-3l-6 0c-4,0 -7,1 -9,3 -2,3 -4,5 -4,9l0 26c0,4 2,7 4,9 2,2 5,4 9,4l6 0c3,0 6,-2 8,-4 3,-2 4,-5 4,-9zm71 2l0 -30c0,-3 -1,-5 -3,-7 -2,-2 -4,-3 -7,-3l-10 0c-3,0 -6,1 -8,3 -1,1 -1,2 -2,3 0,1 -1,3 -1,4l0 30c0,3 1,6 3,8 1,1 3,1 4,2 1,0 2,1 4,1l10 0c3,0 5,-1 7,-3 2,-2 3,-5 3,-8zm-31 -47l5 -3 6 -4c2,-1 3,-3 4,-4 1,-1 2,-3 2,-5 0,-2 -1,-4 -3,-5 -1,-2 -3,-2 -5,-2 -3,0 -4,0 -6,2 -2,1 -3,3 -3,5l0 16zm21 -3c6,0 11,2 15,6 3,3 5,8 5,14l0 30c0,6 -2,11 -6,15 -4,4 -9,6 -14,6l-10 0c-6,0 -11,-2 -15,-6 -4,-4 -6,-9 -6,-15l0 -63c0,-5 2,-10 6,-13 4,-3 8,-5 13,-5 4,0 9,2 12,5 4,3 6,8 6,13 0,4 -1,6 -2,8 0,1 -2,3 -4,5zm81 30l0 -25c0,-2 1,-3 2,-4 1,-1 2,-1 3,-1 1,0 3,0 4,1 1,1 1,2 1,4l0 61c0,1 0,2 -1,3 -1,1 -2,2 -4,2 -1,0 -2,-1 -3,-2 -1,0 -2,-2 -2,-3l0 -26 -30 0 0 26c0,1 -1,2 -2,3 -1,1 -2,2 -4,2 -1,0 -2,-1 -3,-2 -1,0 -2,-2 -2,-3l0 -61c0,-2 1,-3 2,-4 1,-1 2,-1 3,-1 2,0 3,0 4,1 1,1 2,2 2,4l0 25 30 0zm91 36c0,1 0,2 -1,3 -1,1 -2,2 -4,2 -1,0 -2,-1 -3,-2 -1,0 -2,-2 -2,-3l0 -61c0,-2 1,-3 2,-4 1,-1 2,-1 3,-1 2,0 3,0 4,1 1,1 1,2 1,4l0 61zm-50 -26l0 21 10 0c3,0 5,-1 7,-4 2,-2 3,-4 3,-7 0,-3 -1,-5 -3,-7 0,-1 -1,-1 -3,-2 -1,-1 -3,-1 -4,-1l-10 0zm0 -10l10 0c6,0 11,2 15,6 3,4 5,9 5,14 0,6 -2,10 -5,14 -4,5 -9,7 -15,7l-15 0c-4,0 -6,-2 -6,-5l0 -61c0,-2 1,-3 2,-4 1,-1 2,-1 3,-1 2,0 3,0 4,1 1,1 2,2 2,4l0 25zm102 5l19 28 1 1 0 2c0,1 -1,2 -2,3l-1 1 -1 0 -2 1c-1,0 -3,-1 -4,-3l-16 -24 -16 24c-1,2 -2,3 -4,3 -1,0 -2,-1 -4,-2 -1,-1 -1,-2 -1,-4 0,0 0,-1 0,-2l19 -28 -19 -28 0 -1 0 -1c0,-2 0,-3 1,-4 1,-1 2,-1 4,-1 1,0 3,0 4,2l16 24 16 -24c1,-2 3,-2 4,-2 1,0 3,0 4,1 1,1 2,2 2,4 0,1 -1,2 -1,3l-19 27zm-637 193c-2,2 -6,3 -10,4l-5 1 -6 0 -7 0 -6 -1c-4,-1 -7,-2 -10,-5 -2,-3 -3,-6 -3,-10 0,-2 0,-4 1,-7 1,-2 2,-4 4,-5l33 -23c1,0 1,-2 1,-3 0,-2 -1,-4 -5,-5 -3,-1 -7,-2 -11,-2 -4,0 -7,1 -9,1 -3,1 -5,2 -7,3 -1,1 -2,1 -3,1 -1,0 -2,0 -3,-1 -1,-1 -2,-3 -2,-4 0,-2 1,-3 2,-4 2,-1 6,-3 10,-4 2,0 4,-1 6,-1 2,0 4,0 7,0 1,0 2,0 3,0 2,0 3,0 5,0 1,0 3,1 5,1 4,1 7,3 9,6 3,3 4,6 4,9 0,4 -2,8 -6,11l-33 23c-1,1 -1,2 -1,4 0,1 0,2 1,3 1,1 2,2 3,2l6 1 6 0c4,0 7,0 9,-1 1,0 2,0 4,-1 1,0 2,-1 3,-2l1 0c1,0 1,0 2,0 1,0 3,0 4,1 1,1 1,3 1,4 0,2 -1,3 -3,4zm64 -15l0 -41 -20 0c-3,0 -6,1 -8,3 -1,1 -1,2 -2,3 0,1 -1,3 -1,4l0 31c0,3 1,5 3,7 1,1 2,2 4,2 1,1 2,1 4,1l10 0c3,0 5,-1 7,-3 2,-2 3,-4 3,-7zm5 13c-2,2 -4,4 -7,5 -3,1 -5,2 -8,2l-10 0c-6,0 -11,-2 -15,-6 -4,-4 -6,-9 -6,-14l0 -31c0,-5 2,-10 6,-14 4,-4 9,-6 15,-6l25 0c3,0 5,2 5,5l0 46c0,2 1,4 2,6 1,2 3,3 5,4 2,1 3,3 3,5 0,1 0,3 -1,4 -1,1 -2,1 -4,1 -1,0 -1,0 -2,0 -3,-2 -6,-4 -8,-7zm35 -3l21 0c3,0 5,-1 7,-3 2,-2 3,-4 3,-7l0 -31c0,-3 -1,-5 -3,-7 -2,-2 -4,-3 -7,-3l-21 0 0 51zm0 10l0 25c0,2 0,3 -1,4 -1,1 -2,1 -4,1 -1,0 -2,0 -3,-1 -1,-1 -2,-2 -2,-4l0 -91c0,-3 2,-5 5,-5l26 0c5,0 10,2 14,6 4,4 6,9 6,14l0 31c0,5 -2,10 -6,14 -4,4 -9,6 -14,6l-21 0zm102 -20l0 -41 -20 0c-3,0 -6,1 -8,3 -1,1 -1,2 -2,3 0,1 -1,3 -1,4l0 31c0,3 1,5 3,7 1,1 2,2 4,2 1,1 2,1 4,1l10 0c3,0 5,-1 7,-3 2,-2 3,-4 3,-7zm5 13c-2,2 -4,4 -7,5 -3,1 -5,2 -8,2l-10 0c-6,0 -11,-2 -15,-6 -4,-4 -6,-9 -6,-14l0 -31c0,-5 2,-10 6,-14 4,-4 9,-6 15,-6l25 0c3,0 5,2 5,5l0 46c0,2 1,4 2,6 1,2 3,3 5,4 2,1 3,3 3,5 0,1 0,3 -1,4 -1,1 -2,1 -4,1 -1,0 -1,0 -2,0 -3,-2 -6,-4 -8,-7zm66 -34l0 -25c0,-1 0,-3 1,-4 2,-1 3,-1 4,-1 1,0 2,0 4,1 1,1 1,2 1,4l0 61c0,2 0,3 -1,4 -1,1 -2,1 -4,1 -1,0 -2,0 -4,-1 -1,-1 -1,-2 -1,-4l0 -26 -31 0 0 26c0,2 0,3 -1,4 -1,1 -2,1 -4,1 -1,0 -2,0 -3,-1 -1,-1 -2,-2 -2,-4l0 -61c0,-1 1,-3 2,-4 1,-1 2,-1 3,-1 2,0 3,0 4,1 1,1 1,2 1,4l0 25 31 0zm61 -20l-21 0 0 56c0,2 0,3 -1,4 -1,1 -2,1 -4,1 -1,0 -2,0 -3,-1 -1,-1 -2,-2 -2,-4l0 -61c0,-3 2,-5 5,-5l46 0c6,0 10,2 14,6 4,4 6,9 6,14l0 46c0,2 0,3 -1,4 -1,1 -2,1 -4,1 -1,0 -2,0 -3,-1 -1,-1 -2,-2 -2,-4l0 -46c0,-3 -1,-5 -3,-7 -2,-2 -4,-3 -7,-3l-10 0 0 56c0,2 -1,3 -2,4 -1,1 -2,1 -3,1 -2,0 -3,0 -4,-1 -1,-1 -1,-2 -1,-4l0 -56zm111 56c0,3 -1,5 -5,5l-25 0c-6,0 -10,-2 -14,-6 -4,-4 -6,-9 -6,-14l0 -46c0,-1 0,-3 1,-4 1,-1 2,-1 4,-1 1,0 2,0 3,1 1,1 2,2 2,4l0 46c0,3 1,5 3,7 1,1 2,2 3,2 1,1 3,1 4,1l20 0 0 -56c0,-1 1,-3 2,-4 1,-1 2,-1 3,-1 2,0 3,0 4,1 1,1 1,2 1,4l0 61zm61 -35l0 -21 -20 0c-3,0 -5,1 -8,3 -1,2 -2,5 -2,7 0,3 1,5 2,7 2,2 5,4 8,4l20 0zm-12 10l-19 28c0,0 -1,1 -2,2l-2 0c-1,0 -2,0 -4,-1 -1,-1 -1,-3 -1,-4 0,-1 0,-2 0,-3l16 -23c-5,0 -9,-3 -12,-7 -3,-4 -4,-8 -4,-13 0,-5 1,-10 5,-14 4,-4 9,-6 15,-6l25 0c4,0 5,2 5,5l0 61c0,2 0,3 -1,4 -1,1 -2,1 -4,1 -1,0 -2,0 -3,-1 -1,-1 -2,-2 -2,-4l0 -25 -12 0zm74 -5l19 27 1 2 0 1c0,1 -1,3 -2,4l-1 0 -1 1 -2 0c-1,0 -3,-1 -4,-2l-16 -24 -16 24c-1,1 -2,2 -4,2 -1,0 -2,0 -4,-1 -1,-2 -1,-3 -1,-4 0,-1 0,-2 1,-3l18 -28 -19 -27 0 -2 0 -1c0,-1 0,-3 1,-4 1,-1 2,-1 4,-1 1,0 3,1 4,2l16 24 16 -24c1,-1 3,-2 4,-2 1,0 3,0 4,1 1,2 2,3 2,4 0,1 -1,2 -1,3l-19 28zm-886 192c0,4 -2,5 -5,5l-26 0c-5,0 -10,-2 -14,-5 -4,-4 -6,-9 -6,-15l0 -46c0,-1 1,-2 2,-3 1,-1 2,-2 3,-2 2,0 3,1 4,2 1,0 1,2 1,3l0 46c0,3 1,5 3,7 1,1 2,2 3,3 2,0 3,0 4,0l21 0 0 -56c0,-1 0,-2 1,-3 1,-1 3,-2 4,-2 1,0 2,1 3,2 1,0 2,2 2,3l0 61zm47 -25l-6 0c-2,0 -3,-1 -4,-2 -1,-1 -2,-2 -2,-3 0,-1 1,-3 2,-4 1,-1 2,-1 4,-1l5 0c3,0 5,-1 7,-3 2,-2 3,-5 3,-7 0,-3 -1,-6 -3,-7 0,-1 -2,-2 -3,-3 -1,0 -3,-1 -4,-1l-5 0c-5,0 -9,2 -13,5 0,0 -2,1 -3,1 -1,0 -2,-1 -3,-2 -1,-1 -2,-2 -2,-4 0,-1 1,-2 2,-4 6,-4 12,-6 19,-6l5 0c6,0 11,2 15,7 3,3 5,8 5,14 0,1 0,3 0,4 -1,1 -1,3 -2,4 -1,2 -2,5 -4,7 1,2 3,4 4,7l1 4c1,1 1,3 1,4 0,6 -2,10 -5,14 -4,4 -9,6 -15,6l-5 0c-7,0 -13,-2 -19,-6 -1,-1 -2,-2 -2,-4 0,-1 1,-2 2,-3 1,-1 2,-2 3,-2 1,0 2,0 3,1 4,3 8,4 13,4l5 0c3,0 5,-1 7,-3 2,-2 3,-4 3,-7 0,-3 -1,-5 -2,-7 -2,-1 -4,-3 -7,-3zm80 10l0 -30c0,-3 -1,-6 -3,-8 -2,-2 -4,-3 -7,-3l-11 0c-2,0 -5,1 -7,3 -1,1 -2,2 -2,4 -1,1 -1,2 -1,4l0 30c0,3 1,5 3,7 1,1 2,2 3,3 2,0 3,0 4,0l11 0c2,0 5,-1 7,-3 2,-1 3,-4 3,-7zm-17 -51l-22 -21c-2,-2 -2,-3 -2,-5 0,-1 0,-2 1,-3 1,-1 2,-1 4,-1l41 0c1,0 2,0 3,1 1,1 2,3 2,4 0,1 -1,2 -1,3 -1,1 -2,2 -4,2l-28 0 27 26 1 1c3,4 5,9 5,14l0 30c0,6 -2,10 -6,14 -4,4 -9,6 -14,6l-11 0c-5,0 -10,-2 -14,-5 -4,-4 -6,-9 -6,-15l0 -30c0,-6 2,-11 6,-15 4,-4 9,-6 14,-6l4 0zm98 66c0,4 -2,5 -5,5l-26 0c-5,0 -10,-2 -14,-5 -4,-4 -6,-9 -6,-15l0 -46c0,-1 1,-2 2,-3 1,-1 2,-2 3,-2 1,0 3,1 4,2 1,0 1,2 1,3l0 46c0,3 1,5 3,7 1,1 2,2 3,3 2,0 3,0 4,0l21 0 0 -56c0,-1 0,-2 1,-3 1,-1 3,-2 4,-2 1,0 2,1 3,2 1,0 2,2 2,3l0 61zm30 -5l21 0c2,0 5,-1 7,-3 2,-1 3,-4 3,-7l0 -30c0,-3 -1,-6 -3,-8 -2,-2 -4,-3 -7,-3l-21 0 0 51zm0 10l0 26c0,1 0,2 -1,3 -1,1 -2,2 -4,2 -1,0 -2,-1 -3,-1 -1,-1 -2,-3 -2,-4l0 -92c0,-3 2,-5 5,-5l26 0c5,0 10,2 14,6 4,4 6,9 6,15l0 30c0,6 -2,10 -6,14 -4,4 -9,6 -14,6l-21 0zm102 -20l0 -41 -21 0c-2,0 -5,1 -7,3 -1,1 -1,2 -2,4 0,1 -1,2 -1,4l0 30c0,3 1,5 3,7 1,1 2,2 3,3 2,0 3,0 4,0l11 0c2,0 5,-1 7,-3 2,-1 3,-4 3,-7zm5 14c-2,2 -4,3 -7,5 -3,1 -6,1 -8,1l-10 0c-6,0 -11,-2 -15,-5 -4,-4 -6,-9 -6,-15l0 -30c0,-6 2,-11 6,-15 4,-4 9,-6 15,-6l25 0c3,0 5,2 5,5l0 46c0,2 1,4 2,6 1,2 3,4 5,5 2,1 3,2 3,4 0,2 0,3 -1,4 -1,1 -2,1 -4,1 -1,0 -1,0 -2,0 -3,-1 -6,-3 -8,-6zm56 -55l-21 0 0 56c0,2 0,3 -1,4 -1,1 -2,1 -4,1 -1,0 -2,0 -3,-1 -1,-1 -2,-2 -2,-4l0 -61c0,-3 2,-5 5,-5l46 0c5,0 10,2 14,6 4,4 6,9 6,15l0 45c0,2 0,3 -1,4 -1,1 -2,1 -4,1 -1,0 -2,0 -3,-1 -1,-1 -2,-2 -2,-4l0 -45c0,-3 -1,-6 -3,-8 -2,-2 -4,-3 -7,-3l-10 0 0 56c0,2 -1,3 -2,4 -1,1 -2,1 -3,1 -2,0 -3,0 -4,-1 -1,-1 -1,-2 -1,-4l0 -56z"/>
   <path class="fil2 str1" d="M5510 4454l30 0 0 -10c0,-3 -1,-6 -3,-8 -2,-2 -4,-3 -7,-3l-10 0c-3,0 -5,1 -7,3 -1,1 -2,2 -3,4 0,1 0,2 0,4l0 10zm0 10l0 10c0,3 1,5 3,7 1,1 2,2 3,3 1,0 3,0 4,0l25 0c2,0 3,1 4,2 1,1 1,2 1,3 0,2 0,3 -1,4 -1,1 -2,1 -4,1l-25 0c-6,0 -10,-2 -14,-5 -4,-4 -6,-9 -6,-15l0 -30c0,-6 1,-11 5,-15 4,-4 9,-6 15,-6l10 0c5,0 10,2 14,6 4,4 6,9 6,15l0 15c0,3 -1,5 -5,5l-35 0zm111 25c0,2 0,3 -1,4 -1,1 -2,1 -4,1 -1,0 -2,0 -3,-1 -1,-1 -2,-2 -2,-4l0 -56 -11 0 -19 58c-1,1 -1,2 -2,3 -1,0 -2,0 -3,0 -1,0 -3,0 -4,-1 -1,-1 -1,-2 -1,-3l0 -2 20 -61c1,-3 2,-4 5,-4l20 0c4,0 5,2 5,5l0 61zm31 -25l0 20 20 0c3,0 6,-1 7,-3 2,-2 3,-4 3,-7 0,-3 -1,-5 -2,-7 -1,-1 -2,-2 -3,-2 -2,-1 -3,-1 -5,-1l-20 0zm0 -10l20 0c6,0 11,2 15,6 4,4 5,9 5,14 0,5 -1,10 -5,14 -4,4 -9,6 -15,6l-25 0c-4,0 -5,-1 -5,-5l0 -61c0,-1 0,-2 1,-3 1,-1 2,-2 4,-2 1,0 2,1 3,2 1,0 2,2 2,3l0 26zm101 0l0 -26c0,-1 1,-2 2,-3 1,-1 2,-2 3,-2 2,0 3,1 4,2 1,0 1,2 1,3l0 61c0,2 0,3 -1,4 -1,1 -2,1 -4,1 -1,0 -2,0 -3,-1 -1,-1 -2,-2 -2,-4l0 -25 -30 0 0 25c0,2 -1,3 -2,4 -1,1 -2,1 -3,1 -2,0 -3,0 -4,-1 -1,-1 -1,-2 -1,-4l0 -61c0,-1 0,-2 1,-3 1,-1 2,-2 4,-2 1,0 2,1 3,2 1,0 2,2 2,3l0 26 30 0zm91 35c0,2 0,3 -1,4 -1,1 -2,1 -4,1 -1,0 -2,0 -3,-1 -1,-1 -2,-2 -2,-4l0 -61c0,-1 1,-2 2,-3 1,-1 2,-2 3,-2 2,0 3,1 4,2 1,0 1,2 1,3l0 61zm-50 -25l0 20 10 0c3,0 5,-1 7,-3 2,-2 3,-4 3,-7 0,-3 -1,-5 -2,-7 -1,-1 -2,-2 -4,-2 -1,-1 -2,-1 -4,-1l-10 0zm0 -10l10 0c6,0 11,2 15,6 3,4 5,9 5,14 0,5 -2,10 -5,14 -4,4 -9,6 -15,6l-15 0c-4,0 -5,-1 -5,-5l0 -61c0,-1 0,-2 1,-3 1,-1 2,-2 4,-2 1,0 2,1 3,2 1,0 2,2 2,3l0 26zm102 5l19 28 1 1 0 1c0,2 -1,3 -2,4l-1 1 -1 0 -2 0c-1,0 -2,0 -4,-2l-16 -24 -16 24c-1,2 -2,2 -4,2 -1,0 -2,0 -4,-1 -1,-1 -1,-2 -1,-4 0,-1 0,-2 1,-3l18 -27 -18 -28 -1 -1 0 -2c0,-1 0,-2 1,-3 1,-1 3,-2 4,-2 2,0 3,1 4,3l16 24 16 -24c1,-2 3,-3 4,-3 1,0 3,1 4,2 1,1 2,2 2,3 0,1 -1,2 -1,3l-19 28zm151 30c0,2 0,3 -1,4 -1,1 -2,1 -4,1 -1,0 -2,0 -3,-1 -1,-1 -2,-2 -2,-4l0 -45c0,-3 -1,-6 -3,-8 -1,-2 -4,-3 -7,-3l-20 0 0 56c0,2 -1,3 -2,4 -1,1 -2,1 -3,1 -2,0 -3,0 -4,-1 -1,-1 -1,-2 -1,-4l0 -61c0,-3 1,-5 5,-5l25 0c6,0 10,2 14,6 4,4 6,9 6,15l0 45zm31 -5l20 0c3,0 5,-1 7,-3 2,-1 3,-4 3,-7l0 -30c0,-3 -1,-6 -3,-8 -1,-2 -4,-3 -7,-3l-20 0 0 51zm0 10l0 26c0,1 -1,2 -2,3 -1,1 -2,2 -3,2 -1,0 -3,-1 -4,-1 -1,-1 -1,-3 -1,-4l0 -92c0,-3 1,-5 5,-5l25 0c6,0 10,2 14,6 4,4 6,9 6,15l0 30c0,6 -2,10 -6,14 -3,4 -8,6 -14,6l-20 0zm101 -20l0 -41 -20 0c-3,0 -5,1 -7,3 -1,1 -2,2 -2,4 -1,1 -1,2 -1,4l0 30c0,3 1,5 3,7 1,1 2,2 3,3 1,0 3,0 4,0l10 0c3,0 5,-1 7,-3 2,-1 3,-4 3,-7zm5 14c-1,2 -4,3 -6,5 -3,1 -6,1 -9,1l-10 0c-5,0 -10,-2 -14,-5 -4,-4 -6,-9 -6,-15l0 -30c0,-6 2,-11 6,-15 4,-4 8,-6 14,-6l25 0c4,0 5,2 5,5l0 46c0,2 1,4 2,6 2,2 3,4 5,5 3,1 4,2 4,4 0,2 -1,3 -2,4 -1,1 -2,1 -3,1 -1,0 -2,0 -2,0 -4,-1 -7,-3 -9,-6zm66 -14l0 -30c0,-3 -1,-6 -2,-8 -2,-1 -5,-2 -8,-2l-10 0c-3,0 -5,1 -7,2 -1,1 -2,3 -2,4 -1,1 -1,2 -1,4l0 30c0,3 1,5 3,7 1,1 2,2 3,3 1,0 3,0 4,0l10 0c3,0 5,-1 7,-2 2,-2 3,-5 3,-8zm-30 -47l4 -3 6 -4c2,-1 3,-3 4,-4 1,-1 2,-3 2,-5 0,-2 -1,-4 -2,-6 -2,-1 -4,-2 -6,-2 -2,0 -4,1 -6,2 -1,2 -2,4 -2,6l0 16zm20 -3c7,0 12,2 15,5 4,4 5,9 5,15l0 30c0,6 -1,10 -5,14 -4,4 -9,6 -15,6l-10 0c-5,0 -10,-2 -14,-5 -4,-4 -6,-9 -6,-15l0 -63c0,-5 2,-10 5,-13 4,-4 8,-5 13,-5 5,0 9,1 13,5 3,3 5,7 5,13 0,3 0,6 -1,8 -1,1 -3,3 -5,5zm-1184 228c0,3 -2,5 -5,5l-26 0c-5,0 -10,-2 -14,-6 -4,-4 -6,-9 -6,-14l0 -46c0,-2 0,-3 1,-4 1,-1 3,-1 4,-1 1,0 2,0 3,1 1,1 2,2 2,4l0 46c0,2 1,5 3,7 1,1 2,1 3,2 2,0 3,1 4,1l21 0 0 -56c0,-2 0,-3 1,-4 1,-1 2,-1 4,-1 1,0 2,0 3,1 1,1 2,2 2,4l0 61zm132 0c0,1 -1,3 -2,4 -1,0 -2,1 -3,1 -2,0 -3,-1 -4,-1 -1,-1 -2,-3 -2,-4l0 -46c0,-3 0,-5 -2,-7 -2,-2 -5,-3 -8,-3l-20 0 0 56c0,1 -1,3 -2,4 0,0 -2,1 -3,1 -1,0 -3,-1 -4,-1 -1,-1 -1,-3 -1,-4l0 -61c0,-4 2,-5 5,-5l25 0c6,0 10,2 14,6 5,3 7,8 7,14l0 46zm30 -5l20 0c3,0 6,-1 8,-3 2,-2 3,-4 3,-7l0 -31c0,-3 -1,-5 -3,-7 -2,-2 -5,-3 -8,-3l-20 0 0 51zm0 10l0 25c0,2 -1,3 -2,4 -1,1 -2,1 -3,1 -1,0 -2,0 -4,-1 -1,-1 -1,-2 -1,-4l0 -91c0,-4 2,-5 5,-5l25 0c6,0 11,2 15,6 4,4 6,8 6,14l0 31c0,5 -2,10 -6,14 -4,4 -9,6 -15,6l-20 0zm102 -20l0 -41 -21 0c-3,0 -5,1 -7,3 -1,1 -2,2 -2,3 -1,1 -1,3 -1,4l0 31c0,2 1,5 3,7 1,1 2,1 3,2 2,0 3,1 4,1l10 0c3,0 6,-1 8,-3 2,-2 3,-4 3,-7zm5 13c-2,2 -4,4 -7,5 -3,1 -6,2 -9,2l-10 0c-5,0 -10,-2 -14,-6 -4,-4 -6,-9 -6,-14l0 -31c0,-6 2,-10 6,-14 4,-4 9,-6 14,-6l26 0c3,0 5,1 5,5l0 45c0,2 0,5 2,7 1,2 2,3 5,4 2,1 3,2 3,5 0,1 -1,2 -2,3 -1,1 -2,2 -3,2 -1,0 -2,0 -2,-1 -4,-1 -6,-3 -8,-6zm66 -13l0 -31c0,-3 -1,-5 -3,-7 -2,-2 -5,-3 -8,-3l-10 0c-3,0 -5,1 -7,3 -1,1 -2,2 -2,3 -1,1 -1,3 -1,4l0 31c0,2 1,5 3,7 1,1 2,1 3,2 2,0 3,1 4,1l10 0c3,0 6,-1 8,-3 2,-2 3,-4 3,-7zm-31 -48l4 -2 6 -5c2,-1 4,-2 4,-3 2,-2 2,-4 2,-5 0,-3 -1,-5 -2,-6 -2,-2 -4,-2 -6,-2 -2,0 -4,0 -6,2 -1,1 -2,3 -2,6l0 15zm20 -3c7,0 12,2 16,6 3,4 5,8 5,14l0 31c0,5 -2,10 -6,14 -4,4 -9,6 -15,6l-10 0c-5,0 -10,-2 -14,-6 -4,-4 -6,-9 -6,-14l0 -63c0,-6 2,-11 6,-14 3,-3 7,-5 12,-5 5,0 9,2 13,5 4,3 5,8 5,14 0,3 0,5 -1,7 -1,2 -2,3 -5,5zm82 51l0 -41 -21 0c-3,0 -5,1 -7,3 -1,1 -2,2 -2,3 -1,1 -1,3 -1,4l0 31c0,2 1,5 3,7 1,1 2,1 3,2 2,0 3,1 4,1l10 0c3,0 6,-1 8,-3 2,-2 3,-4 3,-7zm5 13c-2,2 -4,4 -7,5 -3,1 -6,2 -9,2l-10 0c-5,0 -10,-2 -14,-6 -4,-4 -6,-9 -6,-14l0 -31c0,-6 2,-10 6,-14 4,-4 9,-6 14,-6l26 0c3,0 5,1 5,5l0 45c0,2 0,5 2,7 1,2 2,3 5,4 2,1 3,2 3,5 0,1 -1,2 -2,3 0,1 -2,2 -3,2 -1,0 -2,0 -2,-1 -4,-1 -6,-3 -8,-6zm126 -34l0 -25c0,-2 1,-3 2,-4 1,-1 2,-1 4,-1 1,0 2,0 3,1 1,1 2,2 2,4l0 61c0,1 -1,3 -2,4 -1,0 -2,1 -3,1 -2,0 -3,-1 -4,-1 -1,-1 -2,-3 -2,-4l0 -26 -30 0 0 26c0,1 -1,3 -2,4 0,0 -2,1 -3,1 -1,0 -3,-1 -4,-1 -1,-1 -1,-3 -1,-4l0 -61c0,-2 0,-3 1,-4 1,-1 3,-1 4,-1 1,0 2,0 3,1 1,1 2,2 2,4l0 25 30 0zm71 21l0 -41 -20 0c-3,0 -5,1 -7,3 -1,1 -2,2 -2,3 -1,1 -1,3 -1,4l0 31c0,2 1,5 3,7 1,1 2,1 3,2 2,0 3,1 4,1l10 0c3,0 6,-1 7,-3 2,-2 3,-4 3,-7zm5 13c-1,2 -3,4 -6,5 -3,1 -6,2 -9,2l-10 0c-5,0 -10,-2 -14,-6 -4,-4 -6,-9 -6,-14l0 -31c0,-6 2,-10 6,-14 4,-4 9,-6 14,-6l26 0c3,0 5,1 5,5l0 45c0,2 0,5 2,7 1,2 2,3 5,4 2,1 3,2 3,5 0,1 -1,2 -2,3 -1,1 -2,2 -3,2 -1,0 -2,0 -2,-1 -4,-1 -6,-3 -9,-6zm127 7l-20 0c-5,0 -10,-2 -14,-6 -4,-4 -6,-9 -6,-14l0 -46c0,-2 0,-3 1,-4 1,-1 2,-1 4,-1 1,0 2,0 3,1 1,1 2,2 2,4l0 46c0,2 1,5 3,7 1,1 2,1 3,2 1,0 3,1 4,1l20 0 0 -56c0,-2 1,-3 2,-4 1,-1 2,-1 3,-1 2,0 3,0 4,1 1,1 1,2 1,4l0 76c0,5 -2,10 -5,14 -4,4 -9,6 -15,6l-20 0c-1,0 -3,0 -4,-1 -1,-1 -1,-2 -1,-4 0,-1 0,-2 1,-3 1,-1 2,-2 4,-2l20 0c3,0 5,-1 7,-3 2,-2 3,-4 3,-7l0 -10zm71 -41l0 -25c0,-2 1,-3 2,-4 1,-1 2,-1 3,-1 2,0 3,0 4,1 1,1 1,2 1,4l0 61c0,1 0,3 -1,4 -1,0 -2,1 -4,1 -1,0 -2,-1 -3,-1 -1,-1 -2,-3 -2,-4l0 -26 -20 0c-5,0 -10,-2 -14,-6 -4,-4 -6,-8 -6,-14l0 -15c0,-2 0,-3 1,-4 1,-1 2,-1 4,-1 1,0 2,0 3,1 1,1 2,2 2,4l0 15c0,3 1,5 3,7 1,1 2,2 3,2 1,1 3,1 4,1l20 0zm71 21l0 -41 -20 0c-3,0 -5,1 -7,3 -1,1 -2,2 -2,3 -1,1 -1,3 -1,4l0 31c0,2 1,5 3,7 1,1 2,1 3,2 1,0 3,1 4,1l10 0c3,0 5,-1 7,-3 2,-2 3,-4 3,-7zm5 13c-1,2 -3,4 -6,5 -3,1 -6,2 -9,2l-10 0c-5,0 -10,-2 -14,-6 -4,-4 -6,-9 -6,-14l0 -31c0,-6 2,-10 6,-14 4,-4 8,-6 14,-6l25 0c4,0 6,1 6,5l0 45c0,2 0,5 1,7 2,2 3,3 6,4 2,1 3,2 3,5 0,1 -1,2 -2,3 -1,1 -2,2 -3,2 -1,0 -2,0 -2,-1 -4,-1 -6,-3 -9,-6zm61 7l-15 0c-5,0 -10,-2 -14,-6 -4,-4 -6,-9 -6,-14l0 -31c0,-6 2,-10 6,-14 4,-4 8,-6 14,-6l15 0c2,0 3,0 4,1 1,1 1,2 1,4 0,1 0,2 -1,3 -1,1 -2,2 -4,2l-15 0c-3,0 -5,1 -7,3 -1,1 -2,2 -2,3 -1,1 -1,3 -1,4l0 31c0,2 1,5 3,7 1,1 2,1 3,2 2,0 3,1 4,1l15 0c2,0 3,0 4,1 1,1 1,2 1,4 0,1 0,2 -1,3 -1,1 -2,2 -4,2zm56 -61l-20 0 0 56c0,1 -1,3 -2,4 -1,0 -2,1 -3,1 -2,0 -3,-1 -4,-1 -1,-1 -1,-3 -1,-4l0 -61c0,-4 1,-5 5,-5l45 0c6,0 11,2 15,6 4,4 6,8 6,14l0 46c0,1 -1,3 -2,4 -1,0 -2,1 -3,1 -2,0 -3,-1 -4,-1 -1,-1 -1,-3 -1,-4l0 -46c0,-3 -1,-5 -3,-7 -2,-2 -5,-3 -8,-3l-10 0 0 56c0,1 0,3 -1,4 -1,0 -2,1 -4,1 -1,0 -2,-1 -3,-1 -1,-1 -2,-3 -2,-4l0 -56zm112 56c0,3 -2,5 -5,5l-26 0c-5,0 -10,-2 -14,-6 -4,-4 -6,-9 -6,-14l0 -46c0,-2 0,-3 1,-4 1,-1 3,-1 4,-1 1,0 2,0 3,1 2,1 2,2 2,4l0 46c0,2 1,5 3,7 1,1 2,1 3,2 2,0 3,1 4,1l21 0 0 -56c0,-2 0,-3 1,-4 1,-1 2,-1 4,-1 1,0 2,0 3,1 1,1 2,2 2,4l0 61zm30 -36l31 0 0 -10c0,-3 -1,-5 -3,-7 -2,-2 -5,-3 -8,-3l-10 0c-3,0 -5,1 -7,3 -1,1 -2,2 -2,3 -1,1 -1,3 -1,4l0 10zm0 10l0 11c0,2 1,5 3,7 1,1 2,1 3,2 2,0 3,1 4,1l26 0c1,0 2,0 3,1 1,1 2,2 2,4 0,1 -1,2 -2,3 0,1 -2,2 -3,2l-26 0c-5,0 -10,-2 -14,-6 -4,-4 -6,-9 -6,-14l0 -31c0,-5 2,-10 6,-14 4,-4 9,-6 14,-6l10 0c6,0 11,2 15,6 4,4 6,8 6,14l0 15c0,4 -2,5 -5,5l-36 0zm-999 173l0 -30c0,-3 -1,-6 -3,-8 -2,-2 -4,-3 -7,-3l-11 0c-2,0 -5,1 -7,3 -1,1 -2,2 -2,4 0,1 -1,2 -1,4l0 30c0,3 1,5 3,7 1,1 2,2 3,2 2,1 3,1 4,1l11 0c2,0 5,-1 7,-3 2,-2 3,-4 3,-7zm-31 -47l4 -3 6 -4c2,-2 4,-3 5,-4 1,-2 2,-3 2,-5 0,-2 -1,-4 -3,-6 -2,-1 -3,-2 -6,-2 -2,0 -4,1 -5,2 -2,2 -3,3 -3,6l0 16zm21 -3c6,0 11,1 15,5 3,4 5,9 5,14l0 31c0,5 -2,10 -6,14 -4,4 -9,6 -14,6l-11 0c-5,0 -10,-2 -14,-6 -4,-4 -6,-8 -6,-14l0 -63c0,-6 2,-10 6,-14 3,-3 8,-4 13,-4 4,0 8,1 12,4 4,4 6,8 6,14 0,3 -1,6 -2,7 -1,2 -2,4 -4,6zm111 60l21 0c2,0 5,-1 7,-3 2,-2 3,-4 3,-7l0 -31c0,-2 -1,-5 -3,-7 -2,-2 -4,-3 -7,-3l-21 0 0 51zm0 10l0 26c0,1 0,2 -1,3 -1,1 -3,2 -4,2 -1,0 -2,-1 -3,-2 -1,0 -2,-2 -2,-3l0 -92c0,-3 2,-5 5,-5l26 0c5,0 10,2 14,6 4,4 6,9 6,14l0 31c0,5 -2,10 -6,14 -4,4 -9,6 -14,6l-21 0z"/>
   <path class="fil2 str1" d="M5375 4779l31 0 0 -11c0,-2 -1,-5 -3,-7 -2,-2 -4,-3 -7,-3l-11 0c-2,0 -5,1 -7,3 -1,1 -2,2 -2,3 -1,2 -1,3 -1,4l0 11zm0 10l0 10c0,3 1,5 3,7 1,1 2,2 3,2 2,1 3,1 4,1l26 0c1,0 2,1 3,2 1,1 2,2 2,3 0,1 -1,2 -1,4 -1,1 -3,1 -4,1l-26 0c-5,0 -10,-2 -14,-6 -4,-4 -6,-8 -6,-14l0 -31c0,-5 2,-10 6,-14 4,-4 9,-6 14,-6l11 0c5,0 10,2 14,6 4,4 6,9 6,14l0 16c0,3 -2,5 -5,5l-36 0zm102 -31l0 51c5,0 10,-2 14,-6 4,-4 6,-9 6,-14l0 -10c0,-6 -2,-11 -6,-15 -4,-4 -9,-6 -14,-6zm-10 51l0 -51c-6,0 -11,2 -15,6 -4,4 -6,9 -6,15l0 10c0,5 2,10 6,14 4,4 9,6 15,6zm10 -61c8,0 15,3 21,9 6,6 9,13 9,22l0 10c0,8 -3,15 -9,21 -6,6 -13,9 -21,9l0 26c0,1 -1,2 -2,3 -1,1 -2,2 -3,2 -2,0 -3,-1 -4,-2 -1,0 -1,-2 -1,-3l0 -26c-9,0 -16,-3 -22,-9 -6,-6 -9,-13 -9,-21l0 -10c0,-9 3,-16 9,-22 6,-6 13,-9 22,-9l0 -15c0,-1 0,-3 1,-4 1,-1 2,-1 4,-1 1,0 2,0 3,1 1,1 2,2 2,4l0 15zm61 31l30 0 0 -11c0,-2 -1,-5 -3,-7 -2,-2 -4,-3 -7,-3l-10 0c-3,0 -6,1 -8,3 -1,1 -1,2 -2,3 0,2 0,3 0,4l0 11zm0 10l0 10c0,3 0,5 2,7 1,1 3,2 4,2 1,1 2,1 4,1l25 0c2,0 3,1 4,2 1,1 1,2 1,3 0,1 0,2 -1,4 -1,1 -2,1 -4,1l-25 0c-6,0 -11,-2 -15,-6 -4,-4 -6,-8 -6,-14l0 -31c0,-5 2,-10 6,-14 4,-4 9,-6 15,-6l10 0c5,0 10,2 14,6 4,4 6,9 6,14l0 16c0,3 -1,5 -5,5l-35 0zm71 20l20 0c3,0 5,-1 7,-3 2,-2 3,-4 3,-7l0 -31c0,-2 -1,-5 -3,-7 -2,-2 -4,-3 -7,-3l-20 0 0 51zm0 10l0 26c0,1 -1,2 -2,3 -1,1 -2,2 -4,2 -1,0 -2,-1 -3,-2 -1,0 -2,-2 -2,-3l0 -92c0,-3 2,-5 6,-5l25 0c5,0 10,2 14,6 4,4 6,9 6,14l0 31c0,5 -2,10 -6,14 -4,4 -9,6 -14,6l-20 0zm71 -40l30 0 0 -11c0,-2 -1,-5 -3,-7 -2,-2 -4,-3 -7,-3l-10 0c-3,0 -6,1 -8,3 0,1 -1,2 -2,3 0,2 0,3 0,4l0 11zm0 10l0 10c0,3 1,5 2,7 1,1 3,2 4,2 1,1 3,1 4,1l25 0c2,0 3,1 4,2 1,1 1,2 1,3 0,1 0,2 -1,4 -1,1 -2,1 -4,1l-25 0c-6,0 -10,-2 -15,-6 -4,-4 -6,-8 -6,-14l0 -31c0,-5 2,-10 6,-14 4,-4 9,-6 15,-6l10 0c5,0 10,2 14,6 4,4 6,9 6,14l0 16c0,3 -1,5 -5,5l-35 0zm101 -10l0 -26c0,-1 1,-2 2,-4 1,0 2,-1 3,-1 1,0 3,1 4,1 1,1 1,3 1,4l0 61c0,2 0,3 -1,4 -1,1 -2,1 -4,1 -1,0 -2,0 -3,-1 -1,-1 -2,-2 -2,-4l0 -25 -30 0 0 25c0,2 -1,3 -2,4 -1,1 -2,1 -3,1 -2,0 -3,0 -4,-1 -1,-1 -2,-2 -2,-4l0 -61c0,-1 1,-2 2,-4 1,0 2,-1 4,-1 1,0 2,1 3,1 1,1 2,3 2,4l0 26 30 0zm71 -21l-20 0c-3,0 -6,1 -7,3 -1,1 -2,2 -3,3 0,2 0,3 0,4l0 31c0,3 1,5 3,7 1,1 2,2 3,2 1,1 3,1 4,1l10 0c3,0 5,-1 7,-3 2,-2 3,-4 3,-7l0 -41zm0 -10l0 -10c0,-3 -1,-5 -3,-7 -2,-2 -4,-3 -7,-3l-20 0c-2,0 -3,-1 -4,-2 -1,-1 -1,-2 -1,-3 0,-1 0,-3 1,-4 1,-1 2,-1 4,-1l20 0c6,0 10,2 14,6 4,4 6,8 6,14l0 61c0,5 -2,10 -6,14 -4,4 -8,6 -14,6l-10 0c-6,0 -10,-2 -14,-6 -4,-4 -6,-8 -6,-14l0 -31c0,-5 1,-10 5,-14 4,-4 9,-6 15,-6l20 0zm71 71l-20 0c-6,0 -10,-2 -14,-6 -4,-4 -6,-8 -6,-14l0 -46c0,-1 0,-2 1,-4 1,0 2,-1 4,-1 1,0 2,1 3,1 1,1 2,3 2,4l0 46c0,3 1,5 3,7 1,1 2,2 3,2 1,1 3,1 4,1l20 0 0 -56c0,-1 1,-2 2,-4 1,0 2,-1 3,-1 2,0 3,1 4,1 1,1 1,3 1,4l0 76c0,6 -2,11 -6,15 -4,4 -8,6 -14,6l-20 0c-2,0 -3,-1 -4,-2 -1,-1 -1,-2 -1,-3 0,-2 0,-3 1,-4 1,-1 2,-1 4,-1l20 0c3,0 5,-1 7,-3 2,-2 3,-5 3,-8l0 -10zm91 -5l0 -61c0,-2 0,-3 -1,-4 -1,-1 -2,-2 -3,-2 -2,0 -3,1 -5,3l-21 30 -21 -30c-2,-2 -3,-3 -5,-3 -1,0 -2,1 -3,2 -1,1 -1,2 -1,4l0 61c0,2 0,3 1,4 1,1 2,1 4,1 1,0 2,0 3,-1 1,-1 2,-2 2,-4l0 -45 16 23c1,2 3,2 4,2 1,0 3,0 4,-2l16 -23 0 45c0,2 1,3 2,4 1,1 2,1 3,1 2,0 3,0 4,-1 1,-1 1,-2 1,-4zm31 -35l30 0 0 -11c0,-2 -1,-5 -2,-7 -2,-2 -5,-3 -8,-3l-10 0c-3,0 -5,1 -7,3 -1,1 -2,2 -2,3 -1,2 -1,3 -1,4l0 11zm0 10l0 10c0,3 1,5 3,7 1,1 2,2 3,2 1,1 3,1 4,1l25 0c2,0 3,1 4,2 1,1 1,2 1,3 0,1 0,2 -1,4 -1,1 -2,1 -4,1l-25 0c-5,0 -10,-2 -14,-6 -4,-4 -6,-8 -6,-14l0 -31c0,-5 2,-10 6,-14 4,-4 8,-6 14,-6l10 0c6,0 10,2 14,6 4,4 6,9 6,14l0 16c0,3 -1,5 -5,5l-35 0zm-622 188c-2,1 -6,3 -10,4l-5 0 -6 1 -7 -1 -6 0c-4,-1 -7,-3 -10,-6 -2,-3 -3,-6 -3,-10 0,-2 0,-4 1,-6 1,-2 2,-4 4,-6l33 -22c1,-1 1,-2 1,-3 0,-2 -1,-4 -5,-5 -3,-1 -7,-2 -11,-2 -4,0 -7,0 -9,1 -3,0 -5,1 -7,3 -1,0 -2,1 -3,1 -1,0 -2,-1 -3,-2 -1,-1 -2,-2 -2,-3 0,-2 1,-3 2,-4 2,-2 6,-3 10,-4 2,-1 4,-1 6,-1 2,-1 4,-1 7,-1 1,0 2,0 3,0 2,0 3,0 5,1 1,0 3,0 5,1 4,1 7,3 9,5 3,3 4,6 4,10 0,4 -2,8 -6,11l-33 22c-1,1 -1,3 -1,4 0,1 0,3 1,4 1,1 2,2 3,2l6 0 6 1c4,0 7,-1 9,-1 1,0 2,-1 4,-1 1,-1 2,-1 3,-2l1 0c1,-1 1,-1 2,-1 1,0 3,1 4,2 1,1 1,2 1,4 0,1 -1,3 -3,4zm33 -5l21 0c3,0 5,-1 7,-3 2,-2 3,-5 3,-8l0 -30c0,-3 -1,-5 -3,-7 -2,-2 -4,-3 -7,-3l-21 0 0 51zm0 10l0 25c0,1 0,3 -1,4 -1,1 -2,1 -4,1 -1,0 -2,0 -3,-1 -1,-1 -2,-2 -2,-4l0 -91c0,-4 2,-5 5,-5l26 0c5,0 10,2 14,5 4,4 6,9 6,15l0 30c0,6 -2,11 -6,15 -4,4 -9,6 -14,6l-21 0zm102 -21l0 -40 -20 0c-3,0 -6,1 -8,3 -1,1 -1,2 -2,3 0,1 -1,2 -1,4l0 30c0,3 1,6 3,8 1,1 2,1 4,2 1,0 2,1 4,1l10 0c3,0 5,-1 7,-3 2,-2 3,-5 3,-8zm5 14c-2,2 -4,3 -7,5 -3,1 -5,2 -8,2l-10 0c-6,0 -11,-2 -15,-6 -4,-4 -6,-9 -6,-15l0 -30c0,-6 2,-11 6,-15 4,-3 9,-5 15,-5l25 0c3,0 5,1 5,5l0 45c0,2 1,4 2,6 1,2 3,4 5,5 2,1 3,2 3,4 0,2 0,3 -1,4 -1,1 -2,2 -4,2 -1,0 -1,-1 -2,-1 -3,-1 -6,-3 -8,-6zm67 -34l19 -28c1,-1 1,-2 2,-2l1 0 1 0c2,0 3,0 4,1 1,1 2,2 2,4 0,1 -1,1 -1,2l-19 28 19 28 0 1 1 2c0,1 -1,2 -2,3 -1,1 -2,2 -4,2 -1,0 -3,-1 -4,-3l-19 -28 -2 0 0 26c0,1 -1,2 -1,3 -1,1 -3,2 -4,2 -1,0 -3,-1 -4,-2 -1,0 -1,-2 -1,-3l0 -26 -2 0 -19 28c-1,1 -1,2 -2,2l-3 1c-1,0 -2,-1 -3,-2 -1,-1 -2,-2 -2,-4 0,0 1,-1 1,-2l19 -28 -19 -28 -1 -1 0 -1c0,-2 1,-3 2,-4 1,-1 2,-1 4,-1 1,0 3,0 4,2l19 28 2 0 0 -25c0,-2 0,-3 1,-4 1,-1 3,-1 4,-1 1,0 2,0 3,1 1,1 2,2 2,4l0 25 2 0zm90 -20l-20 0c-3,0 -5,1 -7,3 -1,1 -2,2 -3,3 0,1 0,2 0,4l0 30c0,3 1,6 3,8 1,1 2,1 3,2 1,0 3,1 4,1l10 0c3,0 5,-1 7,-3 2,-2 3,-5 3,-8l0 -40zm0 -10l0 -11c0,-3 -1,-5 -3,-7 -1,-2 -4,-3 -7,-3l-20 0c-2,0 -3,0 -4,-1 -1,-1 -1,-3 -1,-4 0,-1 0,-2 1,-3 1,-1 2,-2 4,-2l20 0c6,0 11,2 14,6 4,4 6,9 6,14l0 61c0,6 -2,11 -6,15 -4,4 -8,6 -14,6l-10 0c-6,0 -10,-2 -14,-6 -4,-4 -6,-9 -6,-15l0 -30c0,-6 2,-11 6,-15 4,-3 8,-5 14,-5l20 0zm71 50l0 -40 -20 0c-3,0 -5,1 -7,3 -1,1 -2,2 -3,3 0,1 0,2 0,4l0 30c0,3 1,6 3,8 1,1 2,1 3,2 1,0 3,1 4,1l10 0c3,0 5,-1 7,-3 2,-2 3,-5 3,-8zm5 14c-1,2 -4,3 -6,5 -3,1 -6,2 -9,2l-10 0c-6,0 -10,-2 -14,-6 -4,-4 -6,-9 -6,-15l0 -30c0,-6 2,-11 6,-15 4,-3 8,-5 14,-5l25 0c4,0 5,1 5,5l0 45c0,2 1,4 2,6 2,2 3,4 5,5 3,1 4,2 4,4 0,2 -1,3 -2,4 -1,1 -2,2 -3,2 -1,0 -2,-1 -3,-1 -3,-1 -6,-3 -8,-6zm66 -34l0 -25c0,-2 1,-3 2,-4 1,-1 2,-1 3,-1 2,0 3,0 4,1 1,1 1,2 1,4l0 61c0,1 0,2 -1,3 -1,1 -2,2 -4,2 -1,0 -2,-1 -3,-2 -1,0 -2,-2 -2,-3l0 -26 -30 0 0 26c0,1 -1,2 -2,3 -1,1 -2,2 -3,2 -2,0 -3,-1 -4,-2 -1,0 -1,-2 -1,-3l0 -61c0,-2 0,-3 1,-4 1,-1 2,-1 4,-1 1,0 2,0 3,1 1,1 2,2 2,4l0 25 30 0zm-926 152l31 0c3,0 5,-1 7,-3 2,-1 3,-4 3,-7l0 -20c0,-3 -1,-6 -3,-7 -2,-2 -4,-3 -7,-3l-31 0 0 40zm0 10l0 36c0,2 0,3 -1,4 -1,1 -2,1 -4,1 -1,0 -2,0 -3,-1 -1,-1 -2,-2 -2,-4l0 -91c0,-4 2,-5 5,-5l36 0c6,0 10,1 14,5 4,4 6,9 6,15l0 20c0,6 -2,10 -6,14 -4,4 -9,6 -14,6l-31 0zm122 19c0,6 -2,11 -6,15 -5,5 -10,7 -16,7l-6 0c-6,0 -11,-2 -16,-6 -4,-5 -7,-10 -7,-16l0 -27c0,-6 3,-11 7,-15 4,-5 10,-7 16,-7l6 0c6,0 11,2 16,6 4,5 6,10 6,16l0 27zm-10 0l0 -27c0,-3 -1,-6 -3,-8 -3,-3 -6,-4 -9,-4l-6 0c-4,0 -6,1 -9,4 -2,2 -3,5 -3,8l0 27c0,3 1,6 3,8 3,3 5,4 9,4l6 0c3,0 6,-1 9,-4 2,-2 3,-5 3,-8zm66 22l-15 0c-6,0 -10,-2 -14,-6 -4,-4 -6,-9 -6,-14l0 -31c0,-5 1,-10 5,-14 4,-4 9,-6 15,-6l15 0c1,0 3,0 4,1 1,2 1,3 1,4 0,1 0,2 -1,3 -1,1 -2,2 -4,2l-15 0c-3,0 -6,1 -7,3 -1,1 -2,2 -3,3 0,1 0,3 0,4l0 31c0,3 1,5 3,7 1,1 2,2 3,2 1,1 3,1 4,1l15 0c1,0 3,0 4,1 1,2 1,3 1,4 0,1 0,2 -1,3 -1,1 -2,2 -4,2zm61 0l-15 0c-6,0 -11,-2 -15,-6 -4,-4 -6,-9 -6,-14l0 -31c0,-5 2,-10 6,-14 4,-4 9,-6 15,-6l15 0c1,0 3,0 4,1 1,2 1,3 1,4 0,1 0,2 -1,3 -1,1 -2,2 -4,2l-15 0c-3,0 -6,1 -8,3 -1,1 -1,2 -2,3 0,1 -1,3 -1,4l0 31c0,3 1,5 3,7 1,1 2,2 4,2 1,1 2,1 4,1l15 0c1,0 3,0 4,1 1,2 1,3 1,4 0,1 0,2 -1,3 -1,1 -2,2 -4,2zm76 -5c0,3 -2,5 -5,5l-25 0c-6,0 -11,-2 -15,-6 -4,-4 -6,-9 -6,-14l0 -46c0,-1 1,-3 2,-4 1,-1 2,-1 3,-1 2,0 3,0 4,1 1,1 1,2 1,4l0 46c0,3 1,5 3,7 1,1 2,2 4,2 1,1 2,1 4,1l20 0 0 -56c0,-1 0,-3 1,-4 1,-1 3,-1 4,-1 1,0 2,0 3,1 2,1 2,2 2,4l0 61zm56 -86l-21 0c-1,0 -2,-1 -3,-2 -1,-1 -2,-2 -2,-3 0,-2 1,-3 2,-4 1,-1 2,-1 3,-1l21 0c1,0 2,0 3,1 1,1 2,2 2,4 0,1 -1,2 -1,3 -1,1 -3,2 -4,2zm15 86c0,3 -2,5 -5,5l-25 0c-6,0 -11,-2 -15,-6 -4,-4 -6,-9 -6,-14l0 -46c0,-1 1,-3 2,-4 1,-1 2,-1 3,-1 2,0 3,0 4,1 1,1 1,2 1,4l0 46c0,3 1,5 3,7 1,1 2,2 4,2 1,1 2,1 4,1l20 0 0 -56c0,-1 0,-3 1,-4 1,-1 3,-1 4,-1 1,0 2,0 3,1 2,1 2,2 2,4l0 61zm56 5l-15 0c-6,0 -11,-2 -15,-6 -4,-4 -6,-9 -6,-14l0 -31c0,-5 2,-10 6,-14 4,-4 9,-6 15,-6l15 0c1,0 2,0 3,1 1,2 2,3 2,4 0,1 0,2 -1,3 -1,1 -2,2 -4,2l-15 0c-3,0 -6,1 -8,3 -1,1 -1,2 -2,3 0,1 -1,3 -1,4l0 31c0,3 1,5 3,7 1,1 2,2 4,2 1,1 2,1 4,1l15 0c1,0 2,0 3,1 1,2 2,3 2,4 0,1 0,2 -1,3 -1,1 -2,2 -4,2zm46 -33l-12 12 0 16c0,2 0,3 -1,4 -1,1 -2,1 -4,1 -1,0 -2,0 -3,-1 -1,-1 -2,-2 -2,-4l0 -61c0,-1 1,-3 2,-4 1,-1 2,-1 3,-1 1,0 3,0 4,1 1,1 1,2 1,4l0 30 32 -34c1,-1 2,-1 4,-1 1,0 2,0 3,1 1,1 2,3 2,4 0,2 -1,3 -2,4l-20 21 21 33c0,1 1,2 1,3 0,2 -1,3 -2,4 -1,1 -2,1 -3,1 -2,0 -3,0 -4,-2l-20 -31zm96 11c0,6 -2,11 -7,15 -4,5 -9,7 -16,7l-6 0c-6,0 -11,-2 -15,-6 -5,-5 -7,-10 -7,-16l0 -27c0,-6 2,-11 7,-15 4,-5 9,-7 15,-7l6 0c7,0 12,2 16,6 5,5 7,10 7,16l0 27zm-10 0l0 -27c0,-3 -1,-6 -4,-8 -2,-3 -5,-4 -9,-4l-6 0c-3,0 -6,1 -8,4 -3,2 -4,5 -4,8l0 27c0,3 1,6 4,8 2,3 5,4 8,4l6 0c4,0 7,-1 9,-4 3,-2 4,-5 4,-8z"/>
   <path class="fil2 str1" d="M5576 5053l-21 0c-1,0 -3,-1 -3,-2 -1,-1 -2,-2 -2,-3 0,-2 1,-3 1,-4 1,-1 3,-1 4,-1l21 0c1,0 2,0 3,1 1,1 2,2 2,4 0,1 -1,2 -2,3 0,1 -2,2 -3,2zm15 86c0,3 -2,5 -5,5l-26 0c-5,0 -10,-2 -14,-6 -4,-4 -6,-9 -6,-14l0 -46c0,-1 1,-3 2,-4 1,-1 2,-1 3,-1 1,0 3,0 4,1 1,1 1,2 1,4l0 46c0,3 1,5 3,7 1,1 2,2 3,2 2,1 3,1 4,1l21 0 0 -56c0,-1 0,-3 1,-4 1,-1 2,-1 4,-1 1,0 2,0 3,1 1,1 2,2 2,4l0 61zm127 -71l0 46 5 0c5,0 10,-2 14,-6 4,-4 6,-9 6,-15l0 -5c0,-5 -2,-10 -6,-14 -4,-4 -9,-6 -14,-6l-5 0zm-11 46l0 -46 -5 0c-5,0 -10,2 -14,6 -4,4 -6,8 -6,14l0 5c0,6 2,11 6,15 4,4 9,6 14,6l5 0zm0 10l-5 0c-8,0 -15,-3 -21,-9 -6,-6 -9,-13 -9,-22l0 -5c0,-8 3,-15 9,-21 6,-6 13,-9 21,-9l5 0 0 -10c0,-2 1,-3 2,-4 1,-1 2,-1 3,-1 2,0 3,0 4,1 1,1 2,2 2,4l0 10 5 0c8,0 15,3 21,9 3,2 5,6 7,9 1,4 2,8 2,12l0 5c0,9 -3,16 -9,22 -6,6 -13,9 -21,9l-5 0 0 15c0,2 -1,3 -2,4 -1,1 -2,1 -4,1 -1,0 -2,0 -3,-1 -1,-1 -2,-2 -2,-4l0 -15zm77 -20l30 0 0 -11c0,-3 -1,-5 -3,-7 -2,-2 -4,-3 -7,-3l-10 0c-3,0 -6,1 -8,3 -1,1 -1,2 -2,3 0,2 0,3 0,4l0 11zm0 10l0 10c0,3 1,5 2,7 1,1 3,2 4,2 1,1 2,1 4,1l25 0c2,0 3,0 4,1 1,2 1,3 1,4 0,1 0,2 -1,3 -1,1 -2,2 -4,2l-25 0c-6,0 -11,-2 -15,-6 -4,-4 -6,-9 -6,-14l0 -31c0,-5 2,-10 6,-14 4,-4 9,-6 15,-6l10 0c5,0 10,2 14,6 4,4 6,9 6,14l0 16c0,3 -1,5 -5,5l-35 0zm101 -31l-20 0c-3,0 -6,1 -8,3 0,1 -1,2 -2,3 0,1 0,3 0,4l0 31c0,3 1,5 2,7 1,1 3,2 4,2 1,1 3,1 4,1l10 0c3,0 5,-1 7,-3 2,-2 3,-4 3,-7l0 -41zm0 -10l0 -10c0,-3 -1,-6 -3,-7 -2,-2 -4,-3 -7,-3l-20 0c-2,0 -3,-1 -4,-2 -1,-1 -1,-2 -1,-3 0,-2 0,-3 1,-4 1,-1 2,-1 4,-1l20 0c6,0 10,1 14,5 4,4 6,9 6,15l0 61c0,5 -2,10 -6,14 -4,4 -8,6 -14,6l-10 0c-6,0 -10,-2 -14,-6 -5,-4 -7,-9 -7,-14l0 -31c0,-5 2,-10 6,-14 4,-4 9,-6 15,-6l20 0zm41 31l30 0 0 -11c0,-3 -1,-5 -3,-7 -2,-2 -4,-3 -7,-3l-10 0c-3,0 -6,1 -8,3 0,1 -1,2 -2,3 0,2 0,3 0,4l0 11zm0 10l0 10c0,3 1,5 2,7 2,1 3,2 4,2 1,1 3,1 4,1l25 0c2,0 3,0 4,1 1,2 1,3 1,4 0,1 0,2 -1,3 -1,1 -2,2 -4,2l-25 0c-6,0 -10,-2 -15,-6 -4,-4 -6,-9 -6,-14l0 -31c0,-5 2,-10 6,-14 4,-4 9,-6 15,-6l10 0c5,0 10,2 14,6 4,4 6,9 6,14l0 16c0,3 -1,5 -5,5l-35 0zm71 20l20 0c3,0 5,-1 7,-3 2,-2 3,-4 3,-7l0 -31c0,-3 -1,-5 -3,-7 -2,-2 -4,-3 -7,-3l-20 0 0 51zm0 10l0 25c0,2 -1,3 -2,4 -1,1 -2,1 -3,1 -2,0 -3,0 -4,-1 -1,-1 -1,-2 -1,-4l0 -91c0,-3 1,-5 5,-5l25 0c5,0 10,2 14,6 4,4 6,9 6,14l0 31c0,5 -2,10 -6,14 -4,4 -8,6 -14,6l-20 0zm101 -20l0 -41 -20 0c-3,0 -5,1 -7,3 -1,1 -2,2 -3,3 0,1 0,3 0,4l0 31c0,3 1,5 3,7 1,1 2,2 3,2 1,1 3,1 4,1l10 0c3,0 5,-1 7,-3 2,-2 3,-4 3,-7zm5 13c-1,2 -4,4 -7,5 -2,1 -5,2 -8,2l-10 0c-6,0 -10,-2 -14,-6 -4,-4 -6,-9 -6,-14l0 -31c0,-5 2,-10 5,-14 4,-4 9,-6 15,-6l25 0c4,0 5,2 5,5l0 46c0,2 1,4 2,6 1,2 3,3 5,4 2,1 3,3 3,5 0,1 0,3 -1,3 -1,2 -2,2 -4,2 0,0 -1,0 -2,0 -3,-2 -6,-4 -8,-7zm66 -3l0 -56c0,-1 1,-3 2,-4 1,-1 2,-1 3,-1 2,0 3,0 4,1 1,1 1,2 1,4l0 56 5 0c4,0 5,2 5,5l0 9c0,2 0,3 -1,4 -1,1 -2,1 -4,1 -1,0 -2,0 -3,-1 -1,-1 -2,-2 -2,-4l0 -4 -30 0c-6,0 -10,-2 -14,-6 -4,-4 -6,-9 -6,-14l0 -46c0,-1 0,-3 1,-4 1,-1 2,-1 4,-1 1,0 2,0 3,1 1,1 2,2 2,4l0 46c0,3 1,5 3,7 1,1 2,2 3,2 1,1 3,1 4,1l20 0zm81 5c0,3 -1,5 -5,5l-25 0c-6,0 -10,-2 -14,-6 -4,-4 -6,-9 -6,-14l0 -46c0,-1 0,-3 1,-4 1,-1 2,-1 4,-1 1,0 2,0 3,1 1,1 2,2 2,4l0 46c0,3 1,5 3,7 1,1 2,2 3,2 1,1 3,1 4,1l20 0 0 -56c0,-1 1,-3 2,-4 1,-1 2,-1 3,-1 2,0 3,0 4,1 1,1 1,2 1,4l0 61zm71 0c0,3 -1,5 -5,5l-25 0c-6,0 -10,-2 -14,-6 -4,-4 -6,-9 -6,-14l0 -46c0,-1 0,-3 1,-4 1,-1 2,-1 4,-1 1,0 2,0 3,1 1,1 2,2 2,4l0 46c0,3 1,5 3,7 1,1 2,2 3,2 1,1 3,1 4,1l20 0 0 -56c0,-1 1,-3 2,-4 1,-1 2,-1 3,-1 2,0 3,0 4,1 1,1 1,2 1,4l0 61z"/>
  </g>
  <g id="_136943942128">
   <g>
    <path class="fil4" d="M3482 2359c-12,0 -23,-8 -23,-18 0,-9 11,-17 23,-17l0 35zm4265 0l-4265 0 0 -35 4265 0 0 35zm0 -35c13,0 23,8 23,17 0,10 -10,18 -23,18l0 -35z"/>
   </g>
   <g id="_136970574368">
    <path class="fil5" d="M3641 1505l0 0 0 -1 0 1zm-38 0l0 0 0 -1 0 1z"/>
    <path class="fil6" d="M3641 1505l-38 0 0 -1 38 0 0 1z"/>
    <path class="fil7" d="M3862 1898c-210,92 -273,141 -298,163 -38,34 -59,160 -82,268l475 0 475 0c-23,-108 -44,-234 -82,-268 -25,-22 -86,-70 -296,-162l-192 -1z"/>
    <path class="fil8" d="M3862 1898c-210,92 -273,141 -298,163 -38,34 -59,160 -82,268l475 0 475 0c-23,-108 -44,-234 -82,-268 -25,-22 -86,-70 -296,-162l-192 -1z"/>
    <path class="fil9" d="M3855 1715l0 155 0 77c56,66 148,69 204,0l0 -77 0 -155c0,-126 -204,-126 -204,0z"/>
    <path class="fil9" d="M3745 1568c18,-6 40,15 51,46 10,31 4,61 -14,67 -18,6 -41,-15 -51,-46 -11,-31 -4,-61 14,-67z"/>
    <path class="fil9" d="M4169 1568c-18,-6 -41,15 -51,46 -11,31 -4,61 14,67 17,6 40,-15 51,-46 10,-31 3,-61 -14,-67z"/>
    <path class="fil10" d="M3958 1998c0,0 -143,34 -143,42 0,9 54,289 54,289l193 0 23 -287 -127 -44z"/>
    <path class="fil11" d="M3855 1901l0 46 44 382 -76 0 -83 -170 79 -53 -97 -46 90 -139 43 -20z"/>
    <path class="fil11" d="M4059 1901l0 46 -45 382 76 0 84 -170 -80 -53 98 -46 -80 -135 -53 -24z"/>
    <path class="fil12" d="M3913 2045l25 38c13,0 25,0 38,0l25 -38 -43 -47 -45 47z"/>
    <path class="fil12" d="M3938 2083l-35 246 108 0 -35 -246 -38 0z"/>
    <path class="fil13" d="M3855 1870l-9 35 25 180 87 -87 -103 -128z"/>
    <path class="fil14" d="M3959 1899c0,0 -1,0 -2,0 -50,-3 -102,-64 -102,-64l0 -8 204 0 0 12c0,0 -51,60 -100,60z"/>
    <path class="fil15" d="M4118 1315c47,7 73,39 84,82 29,113 -32,358 -240,361 -107,2 -185,-26 -213,-112 -28,-87 -40,-227 22,-306 77,-99 239,-100 347,-25z"/>
    <path class="fil9" d="M3957 1297c-313,0 -193,429 -173,462 23,37 123,116 173,116 51,0 150,-79 173,-116 20,-33 141,-462 -173,-462z"/>
    <path class="fil15" d="M3806 1432c55,34 99,-17 149,5 50,22 187,-83 216,147 48,-167 -24,-286 -206,-294 -194,-8 -273,169 -219,334 -4,-89 18,-148 60,-192z"/>
    <path class="fil15" d="M3801 1417c1,29 50,33 70,35 20,1 39,-2 58,-8 22,-6 51,-14 70,-30 2,-1 1,-5 -2,-5 -35,-6 -71,23 -107,26 -27,3 -64,-1 -86,-19 -1,-1 -4,-1 -3,1z"/>
    <path class="fil12" d="M3861 1560c-32,-2 -75,3 -83,5 -10,4 -10,5 -11,13 -1,8 1,15 6,17 8,3 8,14 13,46 4,29 15,52 65,56 3,0 6,0 8,0l0 -8c-23,0 -49,-8 -58,-26 -12,-26 -14,-77 3,-88 8,-4 32,-7 57,-6l0 -9zm98 17c-12,0 -58,-13 -90,-16 -3,-1 -5,-1 -8,-1l0 9c27,1 55,7 64,21 15,24 -12,81 -38,93 -7,4 -17,6 -28,6l0 8c44,0 60,-31 66,-42 10,-20 8,-48 33,-48 25,0 22,27 31,47 5,11 19,44 65,43l0 -8c-11,0 -22,-2 -30,-6 -24,-13 -49,-70 -32,-93 11,-14 38,-20 64,-22l0 -8c-2,0 -4,0 -5,0 -30,3 -66,16 -92,17zm95 120c2,0 4,0 5,-1 51,-4 64,-27 70,-56 6,-31 6,-42 15,-45 6,-3 7,-10 7,-18 0,-8 -1,-9 -10,-13 -8,-2 -52,-6 -85,-4l0 8c26,-1 51,2 58,7 16,10 12,61 -2,87 -10,17 -35,26 -58,27l0 8z"/>
    <path class="fil13" d="M4059 1870l7 34 -24 183 -84 -89 101 -128z"/>
    <path class="fil16" d="M3958 1998l0 0 -103 -128 0 -3 103 127 101 -127 0 3 -101 128z"/>
    <path class="fil17" d="M3976 2084l0 0 0 -1 0 1zm-38 0l0 0 0 -1 0 1z"/>
    <path class="fil18" d="M3976 2084l-38 0 0 -1 38 0 0 1z"/>
    <path class="fil19" d="M4499 2209l0 0 -1 -1 1 1zm-39 0l0 0 0 -1 0 1z"/>
    <path class="fil20" d="M4499 2209l-39 0 0 -1 38 0 1 1z"/>
   </g>
   <g id="_136970532224">
    <path class="fil21" d="M4719 1662l0 0c0,0 0,0 0,0l0 0z"/>
    <path class="fil22" d="M4934 1471c11,-36 96,-67 130,59 35,126 17,170 36,215 19,45 -26,389 -132,388 -113,-1 -138,-331 -116,-398 23,-66 3,-265 82,-264z"/>
    <path class="fil22" d="M5308 1471c-11,-36 -95,-67 -129,59 -35,126 -18,170 -37,215 -19,45 26,389 132,388 114,-1 139,-331 116,-398 -22,-66 -3,-265 -82,-264z"/>
    <path class="fil12" d="M5213 1988c-2,3 -174,6 -175,9 -55,77 -171,91 -264,112 -92,20 -96,138 -96,216l900 0c0,-78 -2,-195 -96,-216 -94,-21 -218,-40 -269,-121z"/>
    <path class="fil12" d="M5218 1996l0 42 -44 287 -93 0 -44 -283 0 -45 1 0c1,-3 173,-6 175,-9 2,3 4,6 5,8z"/>
    <path class="fil23" d="M5038 1804l0 148 0 73c45,93 126,95 180,0l0 -73 0 -148c0,-119 -180,-119 -180,0z"/>
    <path class="fil23" d="M5366 1701c-18,-8 -43,12 -57,45 -13,32 -9,65 9,73 18,8 43,-11 56,-44 14,-33 10,-66 -8,-74z"/>
    <path class="fil23" d="M4890 1701c18,-8 44,12 57,45 14,32 10,65 -8,73 -18,8 -44,-11 -57,-44 -13,-33 -10,-66 8,-74z"/>
    <path class="fil24" d="M5127 1977c-33,0 -89,-57 -89,-57l0 -6 180 0 0 6c0,0 -58,57 -91,57z"/>
    <path class="fil23" d="M5128 1957c-56,0 -174,-92 -211,-224 -37,-134 33,-326 211,-326 179,0 248,192 211,326 -36,132 -155,224 -211,224z"/>
    <path class="fil22" d="M5350 1569c-17,-69 -106,-174 -189,-173 -12,-1 -26,-1 -40,0 -15,-1 -29,-1 -41,0 -83,-1 -172,104 -189,173 -14,56 -21,111 13,168 6,17 14,29 20,34 -7,-44 -9,-75 -6,-99 6,-10 18,-13 39,-4 58,24 76,-3 120,-95 13,-28 23,-61 44,-61 20,0 30,33 44,61 43,92 61,119 119,95 21,-9 33,-6 39,4 3,24 1,55 -6,99 6,-5 14,-17 20,-34 34,-57 27,-112 13,-168z"/>
    <path class="fil13" d="M5082 2325l-77 0 -5 0 -78 -72 80 -53 -98 -46 65 -100 25 -39 43 -20 0 47 44 283 1 0z"/>
    <path class="fil13" d="M5254 2197l80 53 -79 75 -5 0 -76 0 0 0 44 -287 0 -45 54 23 23 40 56 95 -97 46z"/>
   </g>
   <g id="_102003283920">
    <path class="fil18" d="M6675 1659l-39 0 0 -1 39 0 0 1z"/>
    <path class="fil7" d="M6096 1893c-210,92 -273,141 -297,163 -39,34 -60,161 -83,268l475 0 475 0c-23,-107 -44,-234 -82,-268 -25,-22 -86,-69 -296,-161l-192 -2z"/>
    <path class="fil25" d="M6096 1893c-210,92 -273,141 -297,163 -39,34 -60,161 -83,268l475 0 475 0c-23,-107 -44,-234 -82,-268 -25,-22 -86,-69 -296,-161l-192 -2z"/>
    <path class="fil26" d="M6089 1710l0 156 0 77c56,66 148,68 204,0l0 -77 0 -156c0,-126 -204,-126 -204,0z"/>
    <path class="fil26" d="M5979 1564c18,-6 40,14 51,45 10,31 4,61 -14,67 -18,6 -41,-14 -51,-45 -11,-31 -4,-61 14,-67z"/>
    <path class="fil26" d="M6403 1564c-18,-6 -41,14 -51,45 -11,31 -4,61 14,67 18,6 40,-14 51,-45 10,-31 4,-61 -14,-67z"/>
    <path class="fil8" d="M6192 1993c0,0 -142,34 -142,43 0,8 54,288 54,288l193 0 22 -287 -127 -44z"/>
    <path class="fil27" d="M6089 1896l0 47 45 381 -77 0 -83 -170 80 -53 -98 -46 90 -139 43 -20z"/>
    <path class="fil27" d="M6293 1897l0 46 -45 381 76 0 84 -170 -80 -53 98 -46 -80 -135 -53 -23z"/>
    <path class="fil28" d="M6147 2040l25 39c13,0 26,0 38,0l25 -39 -43 -47 -45 47z"/>
    <path class="fil28" d="M6172 2079l-35 245 108 0 -35 -245 -38 0z"/>
    <path class="fil8" d="M6089 1866l-9 34 25 181 87 -88 -103 -127z"/>
    <path class="fil29" d="M6194 1894c-1,0 -2,0 -3,0 -50,-2 -102,-64 -102,-64l0 -7 204 0 0 11c0,0 -51,60 -99,60z"/>
    <path class="fil26" d="M6191 1292c-313,0 -193,430 -172,463 22,36 122,116 172,116 51,0 151,-80 173,-116 21,-33 141,-463 -173,-463z"/>
    <path class="fil8" d="M6293 1866l7 34 -23 183 -85 -90 101 -127z"/>
    <path class="fil30" d="M6192 1993l0 0 -103 -127 0 -3 103 127 101 -127 0 3 -101 127z"/>
    <path class="fil5" d="M6210 2080l0 0 0 -1 0 1zm-38 0l0 0 0 -1 0 1z"/>
    <path class="fil6" d="M6210 2080l-38 0 0 -1 38 0 0 1z"/>
    <path class="fil22" d="M6395 1610c-1,6 -3,11 -3,11 0,0 -28,96 -52,126 -47,57 -107,92 -149,93 -40,0 -100,-32 -147,-88 -19,-23 -53,-123 -54,-131 0,-5 -1,-10 -2,-15 -7,0 -7,42 -7,42 10,50 16,83 36,110 31,43 119,112 172,112 54,0 141,-68 173,-112 19,-27 25,-64 35,-116 0,0 3,-31 -2,-32z"/>
    <path class="fil22" d="M6287 1738c-7,-15 -65,-35 -76,-39 -10,-4 -18,9 -18,9 0,0 -7,-13 -18,-9 -10,4 -69,24 -76,39 -7,16 -11,26 -11,37 0,10 0,47 0,47 0,0 11,1 17,-3 6,-5 12,-18 12,-34 0,-16 12,-29 26,-31 15,-4 50,-9 50,-19 0,10 37,16 50,19 14,2 26,15 26,31 0,16 7,29 13,34 6,4 16,3 16,3 0,0 0,-37 0,-47 0,-11 -3,-21 -11,-37z"/>
    <path class="fil28" d="M6098 1538c-32,-1 -75,3 -83,5 -10,4 -10,5 -11,13 -1,8 0,16 6,18 8,3 8,14 12,45 4,29 16,52 66,56 3,0 5,0 8,0l0 -8c-23,1 -49,-8 -58,-26 -12,-26 -14,-77 3,-87 7,-5 32,-8 57,-7l0 -9zm98 17c-12,0 -58,-13 -90,-16 -3,0 -5,0 -8,-1l0 9c27,1 54,7 64,21 15,24 -12,81 -38,93 -7,4 -17,6 -28,6l0 8c44,1 60,-31 66,-42 10,-20 8,-47 33,-47 25,0 22,27 31,47 5,10 19,43 65,42l0 -8c-11,0 -22,-2 -30,-6 -24,-12 -49,-69 -32,-93 10,-14 38,-20 64,-21l0 -9c-2,0 -4,0 -6,0 -29,3 -65,16 -91,17zm95 120c2,0 3,0 5,0 51,-5 64,-27 70,-56 6,-32 6,-43 15,-46 6,-2 7,-9 7,-18 0,-8 -1,-9 -11,-12 -7,-3 -51,-7 -84,-5l0 9c26,-2 51,1 58,6 16,11 12,62 -2,87 -10,18 -35,27 -58,27l0 8z"/>
    <path class="fil22" d="M6209 1357c2,0 4,-1 5,-1 -2,0 -5,1 -8,2 1,0 2,-1 3,-1zm-164 -82c110,-95 327,27 377,96 -20,70 -10,159 -25,258l0 0c0,1 0,2 -1,3 0,0 -2,3 -2,3 -1,1 -5,0 -6,0 0,-1 -1,-1 -1,-2 0,-8 0,-26 0,-26 2,-14 0,-27 2,-41 -11,-62 -2,-65 -37,-127 -3,-6 -22,-27 -24,-29 -59,-21 -79,14 -134,36 -21,8 -53,9 -76,9 -37,0 -72,-39 -73,-47 -43,66 -48,113 -61,169 2,10 4,20 5,30 0,0 1,18 0,26 0,1 0,1 -1,2 -1,0 -5,1 -5,0 -1,0 -3,-3 -3,-3 -1,-4 -1,-7 -1,-11 -1,-5 -2,-10 -2,-16 -17,-61 -48,-303 68,-330z"/>
   </g>
   <path class="fil31" d="M7726 1721l0 0c0,0 0,0 0,0l0 0z"/>
   <path class="fil7" d="M7178 1878c-210,92 -273,141 -298,163 -38,34 -59,160 -82,268l475 0 474 0c-22,-108 -43,-234 -82,-268 -25,-22 -85,-70 -295,-162l-192 -1z"/>
   <path class="fil12" d="M7178 1895c-210,92 -273,141 -298,163 -38,34 -59,161 -82,268l475 0 474 0c-22,-107 -43,-234 -82,-268 -25,-22 -85,-69 -295,-161l-192 -2z"/>
   <path class="fil32" d="M7171 1695l0 155 0 77c56,66 148,69 204,0l0 -77 0 -155c0,-126 -204,-126 -204,0z"/>
   <path class="fil32" d="M7060 1548c18,-6 41,15 51,46 10,31 4,61 -14,67 -18,6 -41,-15 -51,-46 -10,-31 -4,-61 14,-67z"/>
   <path class="fil32" d="M7484 1548c-18,-6 -41,15 -51,46 -10,31 -4,61 14,67 18,6 41,-15 51,-46 10,-31 4,-61 -14,-67z"/>
   <path class="fil33" d="M7275 1879c-1,0 -2,0 -3,-1 -49,-2 -101,-64 -101,-64l0 -7 204 0 0 12c0,0 -51,60 -100,60z"/>
   <path class="fil32" d="M7273 1277c-314,0 -193,429 -173,462 23,36 122,116 173,116 50,0 150,-80 173,-116 20,-33 140,-462 -173,-462z"/>
   <path class="fil8" d="M7253 1369c-2,-1 -4,-1 -5,-2 2,1 5,2 8,2 -1,0 -2,0 -3,0zm160 -82c-105,-83 -269,-34 -318,36 -62,87 -40,219 -26,318l0 -1c1,1 1,2 1,3 0,1 2,3 2,4 1,1 5,0 6,-1 1,0 1,-1 1,-1 0,-9 0,-26 0,-26 -1,-14 -4,-27 -6,-40 10,-63 39,-76 54,-151 4,-5 7,-10 11,-15 4,-6 8,-11 13,-15 3,-2 5,-4 8,-6 57,-21 116,4 169,26 21,9 24,-28 47,-30 9,0 29,33 38,32 80,-10 47,112 59,169 -2,10 -3,20 -4,30 0,0 -1,17 0,26 0,0 0,1 0,1 2,1 5,2 6,1 0,-1 2,-3 2,-4 1,-4 1,-7 2,-10 0,-5 1,-11 2,-16 16,-61 46,-304 -67,-330z"/>
   <path class="fil18" d="M7292 2064l-39 0 1 -1 38 0 0 1z"/>
   <path class="fil8" d="M7333 1316c0,0 -91,-64 -172,-29 -82,34 -154,47 -171,24 0,0 -51,106 44,161 94,56 202,12 233,-22 30,-35 81,-90 109,-79 27,12 -43,-55 -43,-55z"/>
  </g>
  <g>
   <path class="fil34 str2" d="M2828 859l0 -76c0,-2 0,-4 2,-6 2,-2 4,-2 6,-2 2,0 4,0 6,2 2,1 2,3 2,6l0 152c0,3 0,5 -2,7 -1,1 -3,2 -6,2 -2,0 -4,-1 -6,-2 -2,-2 -2,-4 -2,-7l0 -59 -51 0c-9,0 -17,-3 -24,-10 -7,-6 -10,-14 -10,-24l0 -59c0,-2 1,-4 3,-6 1,-2 3,-2 5,-2 3,0 5,0 6,2 2,1 3,3 3,6l0 59c0,5 2,9 5,12 1,2 3,3 5,4 3,1 5,1 7,1l51 0zm152 76c0,3 -1,5 -2,7 -2,1 -4,2 -6,2 -3,0 -5,-1 -6,-2 -2,-2 -3,-4 -3,-7l0 -144 -27 0 -41 147c0,1 -1,3 -3,4 -1,1 -3,2 -5,2 -2,0 -5,-1 -6,-2 -2,-2 -3,-4 -3,-6 0,-1 1,-2 1,-3l42 -152c1,-4 4,-6 8,-6l43 0c5,0 8,2 8,8l0 152zm50 -93l43 0c2,0 4,1 6,3 2,2 2,4 2,6 0,2 0,4 -2,6 -1,1 -3,2 -6,2l-43 0 0 68 60 0c2,0 4,1 6,3 2,1 2,3 2,5 0,2 0,4 -2,6 -1,2 -3,3 -6,3l-68 0c-6,0 -8,-3 -8,-8l0 -153c0,-6 2,-8 8,-8l68 0c2,0 4,1 6,2 2,2 2,4 2,6 0,2 0,4 -2,6 -1,2 -3,2 -6,2l-60 0 0 51zm187 0l0 -59c0,-2 0,-4 2,-6 2,-2 4,-2 6,-2 2,0 4,0 6,2 2,1 2,3 2,6l0 152c0,3 0,5 -2,7 -2,1 -4,2 -6,2 -2,0 -4,-1 -6,-2 -2,-2 -2,-4 -2,-7l0 -76 -68 0 0 76c0,3 -1,5 -3,7 -1,1 -3,2 -6,2 -2,0 -4,-1 -5,-2 -2,-2 -3,-4 -3,-7l0 -152c0,-2 1,-4 3,-6 1,-2 3,-2 5,-2 3,0 5,0 6,2 2,1 3,3 3,6l0 59 68 0zm169 93c0,3 -1,5 -3,7 -1,1 -3,2 -6,2 -2,0 -4,-1 -6,-2 -1,-2 -2,-4 -2,-7l0 -152c0,-2 1,-4 2,-6 2,-2 4,-2 6,-2 2,0 4,0 6,2 2,1 3,3 3,6l0 152zm-102 -76l0 68 34 0c5,0 9,-2 12,-5 3,-3 5,-7 5,-12l0 -34c0,-5 -2,-9 -5,-12 -3,-3 -7,-5 -12,-5l-34 0zm0 -17l34 0c9,0 17,4 24,10 7,7 10,15 10,24l0 34c0,9 -3,17 -10,24 -7,7 -15,10 -24,10l-42 0c-6,0 -9,-3 -9,-9l0 -152c0,-2 1,-4 3,-6 1,-2 3,-2 6,-2 2,0 4,0 5,2 2,1 3,3 3,6l0 59zm279 -51l-34 0c-2,0 -4,0 -6,-2 -1,-2 -2,-4 -2,-6 0,-2 1,-4 2,-6 1,-1 4,-2 6,-2l85 0c2,0 4,1 6,2 2,2 2,4 2,6 0,2 0,4 -2,6 -1,2 -3,2 -6,2l-34 0 0 144c0,3 -1,5 -2,7 -2,1 -4,2 -6,2 -3,0 -5,-1 -6,-2 -2,-2 -3,-4 -3,-7l0 -144zm110 51l43 0c2,0 4,1 6,3 1,2 2,4 2,6 0,2 -1,4 -2,6 -2,1 -4,2 -6,2l-43 0 0 68 59 0c3,0 5,1 6,3 2,1 3,3 3,5 0,2 -1,4 -2,6 -2,2 -4,3 -7,3l-67 0c-6,0 -9,-3 -9,-8l0 -153c0,-6 3,-8 9,-8l67 0c3,0 5,1 6,2 2,2 3,4 3,6 0,2 -1,4 -2,6 -2,2 -4,2 -7,2l-59 0 0 51zm118 17l51 0c5,0 9,-1 12,-4 3,-4 5,-8 5,-13l0 -34c0,-4 -1,-8 -5,-12 -3,-3 -7,-5 -12,-5l-51 0 0 68zm0 17l0 59c0,3 0,5 -2,7 -2,1 -4,2 -6,2 -2,0 -4,-1 -6,-2 -2,-2 -2,-4 -2,-7l0 -152c0,-6 2,-8 8,-8l59 0c10,0 18,3 24,10 7,6 10,14 10,23l0 34c0,10 -3,17 -10,24 -7,7 -15,10 -24,10l-51 0zm136 -17l50 0c5,0 9,-1 12,-4 4,-4 5,-8 5,-13l0 -34c0,-4 -1,-8 -4,-12 -4,-3 -8,-5 -13,-5l-50 0 0 68zm0 17l0 59c0,3 -1,5 -3,7 -1,1 -3,2 -6,2 -2,0 -4,-1 -6,-2 -1,-2 -2,-4 -2,-7l0 -152c0,-6 3,-8 8,-8l59 0c10,0 18,3 24,10 7,6 10,14 10,23l0 34c0,10 -3,17 -10,24 -6,7 -14,10 -24,10l-50 0zm220 59c0,3 -1,5 -3,7 -1,1 -3,2 -6,2 -2,0 -4,-1 -6,-2 -1,-2 -2,-4 -2,-7l0 -119 -69 124c-1,1 -2,3 -4,4l-2 1c0,0 -1,0 -2,0 -2,0 -4,-1 -6,-2 -1,-2 -2,-4 -2,-8l0 -152c0,-2 1,-4 3,-6 1,-2 3,-2 6,-2 2,0 4,0 5,2 2,1 3,3 3,6l0 120 69 -124c0,-1 2,-3 3,-4 2,-1 3,-2 5,-2 2,0 3,1 5,3 2,2 3,4 3,7l0 152zm76 -144l-34 0c-3,0 -5,0 -6,-2 -2,-2 -3,-4 -3,-6 0,-2 1,-4 2,-6 2,-1 4,-2 7,-2l84 0c3,0 5,1 6,2 2,2 3,4 3,6 0,2 -1,4 -2,6 -2,2 -4,2 -7,2l-34 0 0 144c0,3 0,5 -2,7 -1,1 -3,2 -6,2 -2,0 -4,-1 -6,-2 -2,-2 -2,-4 -2,-7l0 -144zm185 119c0,9 -3,17 -9,24 -7,7 -15,10 -24,10l-34 0c-9,0 -17,-3 -24,-10 -7,-7 -10,-15 -10,-24l0 -102c0,-9 3,-17 10,-24 6,-6 14,-9 24,-9l34 0c9,0 17,3 24,10 6,6 9,14 9,23l0 102zm-16 0l0 -102c0,-4 -2,-8 -5,-12 -3,-3 -7,-5 -12,-5l-34 0c-5,0 -9,2 -12,5 -2,2 -3,4 -4,6 -1,2 -1,4 -1,6l0 102c0,5 1,9 5,12 1,2 3,3 5,4 3,1 5,1 7,1l34 0c4,0 8,-2 12,-5 3,-3 5,-7 5,-12zm81 -51l51 0c4,0 8,-1 12,-4 3,-4 4,-8 4,-13l0 -34c0,-4 -1,-8 -4,-12 -4,-3 -8,-5 -12,-5l-51 0 0 68zm0 17l0 59c0,3 -1,5 -3,7 -1,1 -3,2 -6,2 -2,0 -4,-1 -6,-2 -1,-2 -2,-4 -2,-7l0 -152c0,-6 3,-8 8,-8l59 0c10,0 18,3 24,10 7,6 10,14 10,23l0 34c0,10 -3,17 -10,24 -6,7 -14,10 -24,10l-50 0zm220 59c0,3 -1,5 -3,7 -1,1 -3,2 -6,2 -2,0 -4,-1 -6,-2 -1,-2 -2,-4 -2,-7l0 -119 -69 124c-1,1 -2,3 -4,4l-1 1c-1,0 -2,0 -3,0 -2,0 -4,-1 -6,-2 -1,-2 -2,-4 -2,-8l0 -152c0,-2 1,-4 3,-6 1,-2 3,-2 6,-2 2,0 4,0 5,2 2,1 3,3 3,6l0 120 69 -124c0,-1 2,-3 3,-4 2,-1 3,-2 5,-2 2,0 3,1 5,3 2,2 3,4 3,7l0 152zm63 -33l-12 36c-1,2 -2,3 -3,4 -1,1 -3,2 -5,2 -2,0 -4,-1 -6,-3 -2,-1 -3,-3 -3,-5l1 -3 51 -153c2,-4 4,-7 8,-7 4,0 6,3 8,7l50 153 1 3c0,2 -1,4 -3,6 -1,1 -3,2 -6,2 -1,0 -2,0 -3,-1 -2,-1 -3,-2 -4,-5l-13 -36 -61 0zm56 -18l-25 -74 -25 74 50 0zm168 51c0,3 -1,5 -2,7 -2,1 -4,2 -6,2 -2,0 -4,-1 -6,-2 -2,-2 -3,-4 -3,-7l0 -144 -27 0 -41 147c0,1 -1,3 -3,4 -1,1 -3,2 -5,2 -2,0 -4,-1 -6,-2 -2,-2 -2,-4 -2,-6 0,-1 0,-2 0,-3l42 -152c2,-4 4,-6 8,-6l43 0c5,0 8,2 8,8l0 152zm51 -76l51 0c4,0 8,2 12,5 3,3 4,7 4,12l0 34c0,5 -1,9 -4,12 -2,2 -4,3 -6,4 -2,1 -4,1 -6,1l-51 0 0 -68zm0 -17l0 -59c0,-2 -1,-4 -3,-6 -2,-1 -4,-2 -6,-2 -2,0 -4,0 -5,2 -2,1 -3,3 -3,6l0 152c0,6 3,9 8,9l59 0c10,0 17,-3 24,-10 7,-6 10,-14 10,-24l0 -34c0,-9 -3,-17 -10,-24 -6,-6 -14,-10 -24,-10l-50 0zm203 0l0 -59c0,-2 1,-4 2,-6 2,-2 4,-2 6,-2 2,0 4,0 6,2 2,1 3,3 3,6l0 152c0,3 -1,5 -3,7 -2,1 -4,2 -6,2 -2,0 -4,-1 -6,-2 -1,-2 -2,-4 -2,-7l0 -76 -68 0 0 76c0,3 -1,5 -2,7 -2,1 -4,2 -6,2 -3,0 -5,-1 -6,-2 -2,-2 -3,-4 -3,-7l0 -152c0,-2 1,-4 3,-6 1,-2 3,-2 6,-2 2,0 4,0 5,2 2,1 3,3 3,6l0 59 68 0zm152 68c0,9 -3,17 -10,24 -7,7 -15,10 -24,10l-34 0c-9,0 -17,-3 -24,-10 -6,-7 -10,-15 -10,-24l0 -102c0,-9 4,-17 10,-24 7,-6 15,-9 24,-9l34 0c9,0 17,3 24,10 7,6 10,14 10,23l0 102zm-17 0l0 -102c0,-4 -2,-8 -5,-12 -3,-3 -7,-5 -12,-5l-34 0c-5,0 -9,2 -12,5 -2,2 -3,4 -4,6 0,2 -1,4 -1,6l0 102c0,5 2,9 5,12 2,2 4,3 6,4 2,1 4,1 6,1l34 0c5,0 9,-2 12,-5 3,-3 5,-7 5,-12zm132 -152l-34 0c-3,0 -5,-1 -6,-2 -2,-2 -2,-4 -2,-7 0,-2 0,-3 2,-5 1,-2 3,-3 6,-3l34 0c2,0 4,1 6,3 1,1 2,3 2,5 0,2 0,4 -2,6 -1,2 -3,3 -6,3zm34 177c0,3 -1,5 -3,7 -1,1 -3,2 -6,2 -2,0 -4,-1 -6,-2 -1,-2 -2,-4 -2,-7l0 -119 -69 124c-1,1 -2,3 -4,4l-1 1c-1,0 -2,0 -3,0 -2,0 -4,-1 -6,-2 -1,-2 -2,-4 -2,-8l0 -152c0,-2 1,-4 3,-6 1,-2 3,-2 6,-2 2,0 4,0 5,2 2,1 3,3 3,6l0 120 69 -124c0,-1 2,-3 3,-4 2,-1 3,-2 5,-2 2,0 3,1 5,3 2,2 3,4 3,7l0 152zm236 0c0,3 0,5 -2,7 -2,1 -4,2 -6,2 -2,0 -4,-1 -6,-2 -2,-2 -2,-4 -2,-7l0 -119 -69 124c-1,1 -2,3 -4,4l-2 1c0,0 -1,0 -2,0 -2,0 -4,-1 -6,-2 -1,-2 -2,-4 -2,-8l0 -152c0,-2 1,-4 2,-6 2,-2 4,-2 6,-2 2,0 4,0 6,2 2,1 3,3 3,6l0 120 68 -124c1,-1 2,-3 4,-4 2,-1 3,-2 5,-2 1,0 3,1 5,3 1,2 2,4 2,7l0 152zm85 -76l-25 0c-3,0 -5,-1 -7,-2 -1,-2 -2,-4 -2,-6 0,-2 1,-4 2,-6 2,-2 4,-3 7,-3l25 0c5,0 9,-1 12,-4 3,-3 5,-8 5,-13l0 -17c0,-4 -2,-8 -5,-12 -3,-3 -7,-5 -12,-5l-17 0c-4,0 -7,1 -10,4 -2,2 -5,4 -6,8 0,2 -1,3 -3,4 0,1 -1,1 -2,2l-3 0c-2,0 -4,-1 -6,-2 -2,-2 -2,-4 -2,-6l0 -3c2,-7 6,-13 12,-17 6,-4 13,-6 20,-6l17 0c9,0 17,3 24,10 7,6 10,14 10,23l0 17c0,5 -1,10 -3,14 -2,5 -5,9 -9,12 8,6 12,15 12,25l0 34c0,9 -3,17 -10,24 -7,7 -15,10 -24,10l-17 0c-7,0 -14,-2 -20,-6 -5,-5 -10,-10 -12,-17l0 -3c0,-3 0,-5 2,-6 2,-2 4,-3 6,-3 4,0 6,2 8,6 1,3 3,6 6,9 3,2 7,3 10,3l17 0c5,0 9,-2 12,-5 3,-3 5,-7 5,-12l0 -34c0,-5 -1,-9 -4,-12 -3,-3 -7,-5 -13,-5zm84 0l0 68 51 0c5,0 9,-2 12,-5 4,-3 5,-7 5,-12l0 -34c0,-5 -1,-9 -5,-12 -3,-3 -7,-5 -12,-5l-51 0zm0 -17l51 0c9,0 17,4 24,10 7,7 10,15 10,24l0 34c0,9 -3,17 -10,24 -6,7 -14,10 -24,10l-59 0c-6,0 -8,-3 -8,-9l0 -152c0,-6 2,-8 8,-8l68 0c2,0 4,1 6,2 1,2 2,4 2,6 0,2 -1,4 -2,6 -1,2 -4,2 -6,2l-60 0 0 51zm220 93c0,3 -1,5 -2,7 -2,1 -4,2 -6,2 -2,0 -4,-1 -6,-2 -2,-2 -3,-4 -3,-7l0 -119 -68 124c-1,1 -2,3 -4,4l-2 1c0,0 -1,0 -2,0 -2,0 -4,-1 -6,-2 -1,-2 -2,-4 -2,-8l0 -152c0,-2 1,-4 2,-6 2,-2 4,-2 6,-2 2,0 4,0 6,2 2,1 3,3 3,6l0 120 68 -124c1,-1 2,-3 4,-4 1,-1 3,-2 5,-2 1,0 3,1 5,3 1,2 2,4 2,7l0 152zm51 -76l51 0c4,0 8,-1 12,-4 3,-4 5,-8 5,-13l0 -34c0,-4 -2,-8 -5,-12 -3,-3 -7,-5 -12,-5l-51 0 0 68zm0 17l0 59c0,3 -1,5 -2,7 -2,1 -4,2 -6,2 -3,0 -5,-1 -6,-2 -2,-2 -3,-4 -3,-7l0 -152c0,-6 3,-8 9,-8l59 0c9,0 17,3 24,10 6,6 10,14 10,23l0 34c0,10 -4,17 -10,24 -7,7 -15,10 -24,10l-51 0zm131 26l-12 36c-1,2 -2,3 -3,4 -1,1 -3,2 -5,2 -2,0 -4,-1 -6,-3 -2,-1 -2,-3 -2,-5l0 -3 51 -153c2,-4 4,-7 8,-7 4,0 6,3 8,7l51 153 0 3c0,2 -1,4 -3,6 -1,1 -3,2 -6,2 -1,0 -2,0 -3,-1 -2,-1 -3,-2 -4,-5l-12 -36 -62 0zm56 -18l-25 -74 -25 74 50 0zm75 -93l-34 0c-2,0 -4,0 -6,-2 -1,-2 -2,-4 -2,-6 0,-2 1,-4 2,-6 1,-1 4,-2 6,-2l85 0c2,0 4,1 6,2 1,2 2,4 2,6 0,2 0,4 -2,6 -1,2 -3,2 -6,2l-34 0 0 144c0,3 -1,5 -2,7 -2,1 -4,2 -6,2 -3,0 -5,-1 -6,-2 -2,-2 -3,-4 -3,-7l0 -144zm110 51l42 0c3,0 5,1 6,3 2,2 3,4 3,6 0,2 -1,4 -2,6 -2,1 -4,2 -7,2l-42 0 0 68 59 0c3,0 5,1 6,3 2,1 3,3 3,5 0,2 -1,4 -2,6 -2,2 -4,3 -7,3l-67 0c-6,0 -9,-3 -9,-8l0 -153c0,-6 3,-8 9,-8l67 0c3,0 5,1 6,2 2,2 3,4 3,6 0,2 -1,4 -2,6 -2,2 -4,2 -7,2l-59 0 0 51zm203 93c0,3 -1,5 -2,7 -2,1 -4,2 -6,2 -2,0 -4,-1 -6,-2 -2,-2 -3,-4 -3,-7l0 -144 -27 0 -41 147c0,1 -1,3 -3,4 -1,1 -3,2 -5,2 -2,0 -4,-1 -6,-2 -2,-2 -2,-4 -2,-6 0,-1 0,-2 0,-3l42 -152c1,-4 4,-6 8,-6l43 0c5,0 8,2 8,8l0 152zm51 -76l50 0c5,0 9,2 12,5 4,3 5,7 5,12l0 34c0,5 -1,9 -4,12 -2,2 -4,3 -6,4 -2,1 -4,1 -7,1l-50 0 0 -68zm0 -17l0 -59c0,-2 -1,-4 -3,-6 -2,-1 -4,-2 -6,-2 -2,0 -4,0 -5,2 -2,1 -3,3 -3,6l0 152c0,6 3,9 8,9l59 0c9,0 17,-3 24,-10 7,-6 10,-14 10,-24l0 -34c0,-9 -3,-17 -10,-24 -6,-6 -14,-10 -24,-10l-50 0zm203 0l0 -59c0,-2 0,-4 2,-6 2,-2 4,-2 6,-2 2,0 4,0 6,2 2,1 2,3 2,6l0 152c0,3 0,5 -2,7 -2,1 -4,2 -6,2 -2,0 -4,-1 -6,-2 -2,-2 -2,-4 -2,-7l0 -76 -68 0 0 76c0,3 -1,5 -3,7 -1,1 -3,2 -6,2 -2,0 -4,-1 -5,-2 -2,-2 -3,-4 -3,-7l0 -152c0,-2 1,-4 3,-6 1,-2 3,-2 5,-2 3,0 5,0 6,2 2,1 3,3 3,6l0 59 68 0zm152 68c0,9 -4,17 -10,24 -7,7 -15,10 -24,10l-34 0c-9,0 -17,-3 -24,-10 -6,-7 -10,-15 -10,-24l0 -102c0,-9 4,-17 10,-24 7,-6 15,-9 24,-9l34 0c9,0 17,3 24,10 6,6 10,14 10,23l0 102zm-17 0l0 -102c0,-4 -2,-8 -5,-12 -3,-3 -7,-5 -12,-5l-34 0c-5,0 -9,2 -12,5 -2,2 -3,4 -4,6 0,2 -1,4 -1,6l0 102c0,5 2,9 5,12 2,2 4,3 5,4 3,1 5,1 7,1l34 0c5,0 9,-2 12,-5 3,-3 5,-7 5,-12z"/>
   <path class="fil34 str2" d="M7307 758l-34 0c-3,0 -5,-1 -6,-2 -2,-2 -3,-4 -3,-7 0,-2 1,-3 3,-5 1,-2 3,-3 6,-3l34 0c2,0 4,1 6,3 1,1 2,3 2,5 0,2 0,4 -2,6 -1,2 -3,3 -6,3zm34 177c0,3 -1,5 -3,7 -1,1 -3,2 -6,2 -2,0 -4,-1 -6,-2 -1,-2 -2,-4 -2,-7l0 -119 -69 124c-1,1 -2,3 -4,4l-2 1c0,0 -1,0 -2,0 -2,0 -4,-1 -6,-2 -1,-2 -2,-4 -2,-8l0 -152c0,-2 1,-4 3,-6 1,-2 3,-2 6,-2 2,0 4,0 5,2 2,1 3,3 3,6l0 120 69 -124c0,-1 2,-3 3,-4 2,-1 3,-2 5,-2 2,0 3,1 5,3 2,2 3,4 3,7l0 152zm152 -87l71 -71c2,-2 4,-2 6,-2 2,0 4,1 6,2 1,2 2,4 2,6 0,2 0,4 -2,6l-51 50 52 92 2 5c0,2 -1,4 -3,5 -2,2 -4,3 -6,3 -3,0 -5,-2 -7,-5l-50 -88 -20 20 0 64c0,3 -1,5 -3,7 -1,1 -3,2 -6,2 -2,0 -4,-1 -6,-2 -1,-2 -2,-4 -2,-7l0 -152c0,-2 1,-4 2,-6 2,-2 4,-2 6,-2 2,0 4,0 6,2 2,1 3,3 3,6l0 65zm211 62c0,9 -3,17 -10,24 -7,7 -15,10 -24,10l-34 0c-9,0 -17,-3 -23,-10 -7,-7 -10,-15 -10,-24l0 -102c0,-9 3,-17 9,-24 7,-6 15,-9 24,-9l34 0c10,0 18,3 24,10 7,6 10,14 10,23l0 102zm-17 0l0 -102c0,-4 -1,-8 -5,-12 -3,-3 -7,-5 -12,-5l-34 0c-4,0 -8,2 -12,5 -1,2 -3,4 -3,6 -1,2 -2,4 -2,6l0 102c0,5 2,9 5,12 2,2 4,3 6,4 2,1 4,1 6,1l34 0c5,0 9,-2 12,-5 3,-3 5,-7 5,-12zm183 25c0,3 -1,5 -2,7 -2,1 -4,2 -7,2 -2,0 -3,-1 -5,-2 -2,-2 -3,-4 -3,-7l0 -120 -35 58c-2,4 -5,6 -7,6 -3,0 -5,-2 -8,-6l-35 -58 0 120c0,3 -1,5 -2,7 -2,1 -4,2 -6,2 -2,0 -4,-1 -6,-2 -2,-2 -3,-4 -3,-7l0 -151c0,-3 1,-6 3,-7 1,-2 3,-3 5,-3 2,0 3,1 4,1 1,1 3,3 4,5l44 72 43 -72c2,-4 5,-6 8,-6 2,0 4,1 6,3 1,2 2,4 2,7l0 151zm135 0c0,3 -1,5 -2,7 -2,1 -4,2 -6,2 -3,0 -5,-1 -6,-2 -2,-2 -3,-4 -3,-7l0 -119 -69 124c-1,1 -2,3 -3,4l-2 1c-1,0 -2,0 -3,0 -1,0 -3,-1 -5,-2 -2,-2 -2,-4 -2,-8l0 -152c0,-2 0,-4 2,-6 2,-2 4,-2 6,-2 2,0 4,0 6,2 1,1 2,3 2,6l0 120 69 -124c1,-1 2,-3 4,-4 1,-1 3,-2 4,-2 2,0 4,1 5,3 2,2 3,4 3,7l0 152zm110 9l-42 0c-10,0 -17,-3 -24,-10 -7,-7 -10,-15 -10,-24l0 -102c0,-9 3,-17 10,-24 6,-6 14,-9 24,-9l42 0c2,0 4,1 6,2 2,2 2,4 2,6 0,2 0,4 -2,6 -1,2 -3,2 -6,2l-42 0c-5,0 -9,2 -13,5 -1,2 -2,4 -3,6 -1,2 -1,4 -1,6l0 102c0,5 1,9 4,12 2,2 4,3 6,4 2,1 5,1 7,1l42 0c2,0 4,1 6,3 2,1 2,3 2,5 0,2 0,4 -2,6 -1,2 -3,3 -6,3zm111 0l-43 0c-9,0 -17,-3 -23,-10 -7,-7 -10,-15 -10,-24l0 -102c0,-9 3,-17 9,-24 7,-6 15,-9 24,-9l43 0c2,0 4,1 6,2 1,2 2,4 2,6 0,2 -1,4 -2,6 -1,2 -3,2 -6,2l-43 0c-4,0 -8,2 -12,5 -1,2 -3,4 -3,6 -1,2 -2,4 -2,6l0 102c0,5 2,9 5,12 2,2 4,3 6,4 2,1 4,1 6,1l43 0c2,0 4,1 6,3 1,1 2,3 2,5 0,2 -1,4 -2,6 -1,2 -3,3 -6,3zm143 -9c0,3 0,5 -2,7 -2,1 -4,2 -6,2 -2,0 -4,-1 -6,-2 -2,-2 -2,-4 -2,-7l0 -119 -69 124c-1,1 -2,3 -4,4l-2 1c0,0 -1,0 -2,0 -2,0 -4,-1 -6,-2 -1,-2 -2,-4 -2,-8l0 -152c0,-2 1,-4 2,-6 2,-2 4,-2 6,-2 2,0 4,0 6,2 2,1 3,3 3,6l0 120 68 -124c1,-1 2,-3 4,-4 2,-1 3,-2 5,-2 1,0 3,1 5,3 1,2 2,4 2,7l0 152zm136 0c0,3 -1,5 -3,7 -1,1 -3,2 -6,2 -2,0 -4,-1 -6,-2 -1,-2 -2,-4 -2,-7l0 -119 -69 124c-1,1 -2,3 -4,4l-1 1c-1,0 -2,0 -3,0 -2,0 -4,-1 -6,-2 -1,-2 -2,-4 -2,-8l0 -152c0,-2 1,-4 3,-6 1,-2 3,-2 6,-2 2,0 4,0 5,2 2,1 3,3 3,6l0 120 69 -124c0,-1 2,-3 3,-4 2,-1 3,-2 5,-2 2,0 3,1 5,3 2,2 3,4 3,7l0 152z"/>
  </g>
 </g>
</svg>
