<?xml version="1.0" encoding="UTF-8"?>
<!DOCTYPE svg PUBLIC "-//W3C//DTD SVG 1.0//EN" "http://www.w3.org/TR/2001/REC-SVG-20010904/DTD/svg10.dtd">
<!-- Creator: CorelDRAW X7 -->
<svg xmlns="http://www.w3.org/2000/svg" xml:space="preserve" width="200mm" height="200mm" version="1.0" style="shape-rendering:geometricPrecision; text-rendering:geometricPrecision; image-rendering:optimizeQuality; fill-rule:evenodd; clip-rule:evenodd"
viewBox="0 0 20000 20000"
 xmlns:xlink="http://www.w3.org/1999/xlink">
 <defs>
  <style type="text/css">
   <![CDATA[
    .str13 {stroke:#034540;stroke-width:21}
    .str8 {stroke:#AB8082;stroke-width:34.18}
    .str9 {stroke:#CC7587;stroke-width:30}
    .str12 {stroke:#4D8A7D;stroke-width:12.11}
    .str17 {stroke:#CC7587;stroke-width:14.69}
    .str6 {stroke:#AB8082;stroke-width:81.77}
    .str14 {stroke:#CC7587;stroke-width:20.44}
    .str11 {stroke:#034540;stroke-width:115.4;stroke-linecap:round;stroke-linejoin:round}
    .str1 {stroke:#B54F66;stroke-width:108.03;stroke-linecap:round;stroke-linejoin:round}
    .str16 {stroke:#4D8A7D;stroke-width:100.98;stroke-linecap:round;stroke-linejoin:round}
    .str2 {stroke:#B54F66;stroke-width:67.92;stroke-linecap:round;stroke-linejoin:round}
    .str15 {stroke:#034540;stroke-width:132;stroke-linecap:round;stroke-linejoin:round}
    .str4 {stroke:#034540;stroke-width:132.61;stroke-linecap:round;stroke-linejoin:round}
    .str0 {stroke:#2E99A3;stroke-width:132.61;stroke-linecap:round;stroke-linejoin:round}
    .str5 {stroke:#4D8A7D;stroke-width:132.61;stroke-linecap:round;stroke-linejoin:round}
    .str3 {stroke:#8F8AB0;stroke-width:132.61;stroke-linecap:round;stroke-linejoin:round}
    .str10 {stroke:#CC7587;stroke-width:68.92;stroke-linecap:round;stroke-linejoin:round}
    .str7 {stroke:#57A6B3;stroke-width:10.17;stroke-linecap:round;stroke-linejoin:round}
    .fil5 {fill:none}
    .fil22 {fill:none;fill-rule:nonzero}
    .fil17 {fill:#738287}
    .fil3 {fill:#ABC9BF}
    .fil10 {fill:#B3B3B3}
    .fil2 {fill:#BDD6D1}
    .fil9 {fill:#C4C7C7}
    .fil1 {fill:#C9E6E8}
    .fil7 {fill:#CC5770}
    .fil13 {fill:#D1CCE8}
    .fil11 {fill:#D9D9D9}
    .fil14 {fill:#EBF2D9}
    .fil24 {fill:#FFF7B3}
    .fil23 {fill:#FFFADB}
    .fil6 {fill:#0066A3;fill-rule:nonzero}
    .fil25 {fill:#034540;fill-rule:nonzero}
    .fil4 {fill:#2E99A3;fill-rule:nonzero}
    .fil15 {fill:#4D8A7D;fill-rule:nonzero}
    .fil19 {fill:#57A6B3;fill-rule:nonzero}
    .fil12 {fill:#5C5C5C;fill-rule:nonzero}
    .fil16 {fill:#738287;fill-rule:nonzero}
    .fil18 {fill:#AB8082;fill-rule:nonzero}
    .fil8 {fill:#B54F66;fill-rule:nonzero}
    .fil20 {fill:#BAB5D4;fill-rule:nonzero}
    .fil21 {fill:#CC7587;fill-rule:nonzero}
    .fil0 {fill:url(#id0)}
   ]]>
  </style>
  <radialGradient id="id0" gradientUnits="userSpaceOnUse" gradientTransform="matrix(1.41421 -0 -0 1.41421 -4142 -4142)" cx="10000" cy="10000" r="10000" fx="10000" fy="10000">
   <stop offset="0" style="stop-opacity:1; stop-color:#FEFEFE"/>
   <stop offset="0.439216" style="stop-opacity:1; stop-color:#FEFEFE"/>
   <stop offset="1" style="stop-opacity:1; stop-color:#D1E2F2"/>
  </radialGradient>
 </defs>
 <g id="Layer_x0020_1">
  <metadata id="CorelCorpID_0Corel-Layer"/>
  <g id="_895238141072">
   <path class="fil0" d="M0 0l20000 0 0 20000 -20000 0 0 -20000z"/>
   <path class="fil1" d="M7160 8733l0 -3493 978 -965 -2 965 2365 0 0 3493 -3341 0z"/>
   <path class="fil2" d="M11478 7669l0 -3394 -977 965 0 3493 977 -1064z"/>
   <path class="fil2" d="M8138 7769l3240 0 -877 964 -3341 0 978 -964z"/>
   <path class="fil3" d="M10501 7769l0 964 877 -964 -877 0z"/>
   <g>
    <path class="fil4" d="M11544 4275l0 3394 -132 0 0 -3394 19 -46 113 46zm-132 0c0,-36 29,-65 66,-65 36,0 66,29 66,65l-132 0zm-958 918l977 -964 94 93 -977 964 -114 -46 20 -47zm94 93c-26,26 -68,26 -94,0 -26,-25 -26,-67 0,-93l94 93zm-114 3447l0 -3493 133 0 0 3493 -17 45 -116 -45zm133 0c0,37 -30,66 -66,66 -37,0 -67,-29 -67,-66l133 0zm960 -1020l-977 1065 -98 -89 977 -1065 115 45 -17 44zm-98 -89c24,-26 66,-28 93,-4 28,24 30,66 5,93l-98 -89z"/>
   </g>
   <path class="fil5 str0" d="M7160 8733l0 -3493 3341 0 0 3493 -3341 0z"/>
   <g>
    <path class="fil6" d="M11478 4341l-3340 0 0 -132 3340 0 46 113 -46 19zm0 -132c36,0 65,29 65,66 0,37 -29,66 -65,66l0 -132zm-1023 983l977 -964 92 94 -977 965 -46 19 -46 -114zm92 95c-26,26 -68,25 -93,-1 -26,-26 -25,-68 1,-94l92 95zm-3387 -113l3341 0 0 132 -3341 0 -45 -114 45 -18zm0 132c-36,0 -65,-29 -65,-66 0,-37 29,-66 65,-66l0 132zm1023 -984l-977 965 -91 -95 977 -964 46 -19 45 113zm-91 -94c26,-26 67,-25 93,1 25,26 24,68 -2,93l-91 -94z"/>
   </g>
   <path class="fil5 str1" d="M6640 7268c-118,-117 -277,-183 -443,-183 -345,0 -625,280 -625,626 0,345 280,625 625,625 110,0 218,-29 313,-83"/>
   <path class="fil7" d="M5473 7628l53 -1c2,-23 4,-46 8,-69 4,-30 32,-50 61,-45 30,5 52,33 47,62 -3,17 -6,33 -8,49l29 0 164 226 19 842 -159 3 -190 5 -159 3 -19 -841 154 -234z"/>
   <path class="fil5 str2" d="M5628 7981c-43,-21 -94,-4 -116,39 -21,43 -3,94 39,116"/>
   <path class="fil8" d="M5844 8159c-38,-26 -78,-53 -121,-80 -30,-20 -62,-40 -108,-70 -25,-16 -58,-8 -74,17 -16,25 -9,58 16,74 32,21 72,47 108,70 65,41 123,81 179,116l0 -127zm-522 -174c-132,-50 -285,-89 -448,-117 -169,-29 -351,-46 -538,-50 -30,0 -53,-25 -53,-55 1,-30 26,-53 56,-53 189,5 377,22 553,52 154,26 299,62 427,107l3 116z"/>
   <path class="fil9" d="M11540 8733l0 -326 3407 0 0 326 -3407 0z"/>
   <path class="fil10" d="M15768 7827l0 -326 -821 906 0 326 821 -906z"/>
   <g>
    <path class="fil4" d="M15749 7818c25,-27 66,-29 93,-4 27,25 28,67 4,94l-97 -90zm-791 871l791 -871 97 90 -792 870 -48 22 -48 -111zm96 89c-24,27 -66,29 -92,4 -27,-25 -29,-67 -4,-93l96 89zm-3495 -111l3447 0 0 133 -3447 0 0 -133zm0 133c-37,0 -66,-30 -66,-67 0,-36 29,-66 66,-66l0 133z"/>
   </g>
   <g>
    <path class="fil11" d="M12521 7425l3240 0 -877 964 -3340 0 977 -964z"/>
    <path id="1" class="fil4" d="M15761 7491l-3240 0 0 -133 3240 0 49 112 -49 21zm0 -133c37,0 66,30 66,67 0,36 -29,66 -66,66l0 -133zm-925 987l877 -965 97 90 -877 964 -49 22 -48 -111zm97 89c-25,27 -66,29 -93,4 -27,-24 -29,-66 -4,-93l97 89zm-3389 -111l3340 0 0 133 -3340 0 -46 -114 46 -19zm0 133c-36,0 -66,-30 -66,-67 0,-36 30,-66 66,-66l0 133zm1023 -984l-977 965 -92 -95 977 -965 46 -19 46 114zm-92 -95c26,-25 68,-25 93,1 26,26 25,68 -1,94l-92 -95z"/>
   </g>
   <g>
    <path class="fil12" d="M12639 8007c-53,0 -95,-45 -95,-100 0,-55 42,-100 95,-100l0 200zm2028 0l-2028 0 0 -200 2028 0 0 200zm0 -200c52,0 95,45 95,100 0,55 -43,100 -95,100l0 -200z"/>
   </g>
   <path class="fil13 str3" d="M14170 15422l2994 0 0 -4040 -2994 0 0 4040z"/>
   <path class="fil14 str4" d="M9921 15422l2994 0 0 -4040 -2994 0 0 4040z"/>
   <path class="fil5 str5" d="M13397 14984l0 -4040 -2993 0"/>
   <path class="fil5 str5" d="M13156 15203c0,-1047 0,-2993 0,-4040 -698,0 -2296,0 -2993,0"/>
   <path class="fil15" d="M10314 12869l-49 0 0 -102 111 0c12,0 24,-7 24,-24 0,-17 -12,-25 -24,-25l-137 0c-18,0 -25,10 -25,24l0 333c0,14 8,26 25,26l75 0c70,0 101,-37 101,-98l0 -32c0,-60 -31,-102 -101,-102zm51 134c0,33 -13,49 -51,49l-49 0 0 -137 49 0c38,0 51,21 51,54l0 34zm311 -290l-5 0c-74,0 -101,61 -101,121l0 40 -45 0 0 -136c0,-13 -5,-25 -24,-25 -17,0 -24,12 -24,25l0 343c0,13 7,25 24,25 18,0 24,-12 24,-25l0 -158 45 0 0 82c0,61 31,101 101,101l5 0c70,0 101,-46 101,-107l0 -180c0,-60 -31,-106 -101,-106zm50 286c0,34 -12,58 -50,58l-5 0c-38,0 -50,-18 -50,-52l0 -171c0,-33 10,-72 50,-72l5 0c38,0 50,23 50,57l0 180zm192 33c1,-12 18,-265 18,-265l76 0 0 314c0,13 8,25 26,25 18,0 26,-12 26,-25l0 -338c0,-13 -8,-25 -26,-25l-125 0c-17,0 -25,13 -26,25 0,0 -17,270 -18,276 -1,7 -1,17 -4,24 -5,9 -13,15 -27,15 -13,0 -25,9 -25,26 0,19 12,25 25,25 39,0 62,-16 73,-43 3,-10 6,-23 7,-34zm291 0c2,-12 19,-265 19,-265l76 0 0 314c0,13 8,25 26,25 18,0 25,-12 25,-25l0 -338c0,-13 -7,-25 -25,-25l-125 0c-17,0 -26,13 -26,25 0,0 -18,270 -18,276 -1,7 -1,17 -5,24 -4,9 -13,15 -26,15 -13,0 -25,9 -25,26 0,19 12,25 25,25 39,0 61,-16 72,-43 4,-10 7,-23 7,-34zm393 69c13,0 24,-8 24,-25 0,-16 -11,-25 -24,-25l-117 0 0 -123 93 0c13,0 24,-7 24,-24 0,-17 -11,-25 -24,-25l-93 0 0 -112 117 0c13,0 24,-7 24,-24 0,-17 -11,-25 -24,-25l-143 0c-17,0 -25,12 -25,25l0 332c0,14 8,26 25,26l143 0zm140 -20c0,13 7,25 25,25 17,0 26,-12 26,-25l0 -314 63 0c13,0 24,-7 24,-24 0,-17 -11,-25 -24,-25l-178 0c-12,0 -24,8 -24,25 0,17 12,24 24,24l64 0 0 314zm353 20c13,0 24,-8 24,-25 0,-16 -11,-25 -24,-25l-117 0 0 -123 93 0c13,0 24,-7 24,-24 0,-17 -11,-25 -24,-25l-93 0 0 -112 117 0c13,0 24,-7 24,-24 0,-17 -11,-25 -24,-25l-143 0c-17,0 -25,12 -25,25l0 332c0,14 8,26 25,26l143 0zm295 -363c0,-13 -8,-25 -26,-25 -18,0 -25,12 -25,25l0 136 -111 0 0 -136c0,-13 -8,-25 -26,-25 -18,0 -26,12 -26,25l0 343c0,13 8,25 26,25 18,0 26,-12 26,-25l0 -158 111 0 0 158c0,13 7,25 25,25 18,0 26,-12 26,-25l0 -343zm185 128l-55 0 0 -128c0,-13 -8,-25 -26,-25 -18,0 -25,12 -25,25l0 337c0,13 7,25 25,25l81 0c70,0 101,-37 101,-98l0 -33c0,-60 -31,-103 -101,-103zm-55 49l55 0c38,0 51,21 51,54l0 33c0,33 -13,49 -51,49l-55 0 0 -136z"/>
   <path class="fil16" d="M10968 5181c-2,-76 41,-140 96,-143 55,-2 101,57 103,133 17,645 291,1034 583,1446l0 0 0 0c2,3 4,6 6,9 152,217 245,424 227,594 -20,191 -150,311 -438,318l0 -276c165,-3 235,-34 240,-81 8,-74 -61,-205 -172,-362 -1,-2 -3,-4 -4,-6l0 0 0 -1 -1 -1 0 0c-319,-452 -621,-878 -640,-1630z"/>
   <path class="fil17" d="M11174 5037c59,0 106,92 106,206 0,114 -47,206 -106,206 -59,0 -106,-92 -106,-206 0,-114 47,-206 106,-206z"/>
   <path class="fil18 str6" d="M9167 6342c-20,0 -35,9 -46,21 -64,70 -136,140 -211,209 -24,23 -33,50 -2,81 29,29 56,18 80,-1 47,-39 95,-89 135,-137l0 634 -163 0c-32,0 -58,17 -58,59 0,42 26,59 58,59l422 0c33,0 59,-17 59,-59 0,-42 -26,-59 -59,-59l-136 0 0 -746c0,-34 -11,-61 -56,-61l-23 0z"/>
   <path class="fil18" d="M8406 7028c0,23 3,47 5,62l-1 0 -190 -390c-10,-21 -23,-29 -39,-29 -29,0 -40,19 -40,39l0 526c0,21 11,39 39,39 27,0 38,-18 38,-39l0 -318c0,-23 -3,-46 -5,-62l1 0 189 391c10,20 24,28 40,28 28,0 40,-18 40,-39l0 -526c0,-20 -11,-39 -39,-39 -27,0 -38,19 -38,39l0 318zm212 -180c-25,0 -32,-14 -32,-38l0 -42c0,-23 7,-37 32,-37l13 0c25,0 32,14 32,37l0 42c0,24 -7,38 -32,38l-13 0zm13 56c58,0 86,-38 86,-89l0 -51c0,-51 -28,-89 -86,-89l-14 0c-58,0 -85,38 -85,89l0 51c0,51 27,89 85,89l14 0zm58 99c18,0 31,-8 31,-30 0,-22 -13,-30 -31,-30l-129 0c-17,0 -31,8 -31,30 0,22 14,30 31,30l129 0z"/>
   <path class="fil19 str7" d="M8228 7860c0,-41 -17,-67 -53,-79 25,-15 37,-34 37,-65l0 -17c0,-56 -33,-85 -96,-85l-59 0c-17,0 -24,11 -24,23l0 306c0,12 7,23 24,23l76 0c63,0 95,-33 95,-90l0 -16zm-148 -51l53 0c34,0 48,20 48,51l0 16c0,30 -14,45 -48,45l-53 0 0 -112zm0 -44l0 -106 36 0c34,0 48,10 48,40l0 17c0,30 -14,49 -48,49l-36 0zm287 -15l-35 0 0 -118c0,-12 -7,-23 -24,-23 -16,0 -23,11 -23,23l0 311c0,12 7,23 23,23l59 0c64,0 93,-34 93,-90l0 -31c0,-55 -29,-95 -93,-95zm-35 46l35 0c34,0 46,19 46,49l0 31c0,30 -12,45 -46,45l-35 0 0 -125zm211 152l0 -316c0,-12 -7,-23 -23,-23 -16,0 -24,11 -24,23l0 316c0,12 7,23 23,23 16,0 24,-11 24,-23zm165 -195l-45 0 0 -94 101 0c12,0 22,-6 22,-22 0,-16 -10,-23 -22,-23l-126 0c-16,0 -23,9 -23,22l0 307c0,12 8,23 24,23l69 0c64,0 93,-33 93,-90l0 -29c0,-55 -29,-94 -93,-94zm47 123c0,30 -12,46 -47,46l-45 0 0 -126 45 0c35,0 47,19 47,49l0 31zm145 -169c0,-31 11,-53 46,-53l15 0c34,0 45,22 45,53l0 166c0,31 -11,53 -45,53l-15 0c-35,0 -46,-22 -46,-53l0 -166zm154 0c0,-55 -29,-98 -93,-98l-15 0c-64,0 -94,43 -94,98l0 166c0,56 30,98 94,98l15 0c64,0 93,-42 93,-98l0 -166zm115 77l0 -125 50 0c35,0 47,15 47,45l0 30c0,31 -12,50 -47,50l-50 0zm50 45c64,0 94,-39 94,-95l0 -30c0,-56 -30,-90 -94,-90l-75 0c-16,0 -23,11 -23,23l0 311c0,12 7,23 24,23 17,0 24,-11 24,-23l0 -119 50 0zm233 -79l-35 0 0 -118c0,-12 -7,-23 -23,-23 -17,0 -24,11 -24,23l0 311c0,12 7,23 23,23l59 0c64,0 93,-34 93,-90l0 -31c0,-55 -29,-95 -93,-95zm-35 46l35 0c35,0 47,19 47,49l0 31c0,30 -12,45 -47,45l-35 0 0 -125zm211 152l0 -316c0,-12 -6,-23 -23,-23 -16,0 -24,11 -24,23l0 316c0,12 7,23 24,23 16,0 23,-11 23,-23z"/>
   <path class="fil20" d="M14536 13062l-50 0 0 -104 112 0c12,0 24,-7 24,-24 0,-17 -12,-25 -24,-25l-138 0c-18,0 -26,10 -26,24l0 337c0,13 9,25 26,25l76 0c70,0 102,-37 102,-99l0 -32c0,-60 -32,-102 -102,-102zm51 134c0,33 -13,50 -51,50l-50 0 0 -138 50 0c38,0 51,21 51,55l0 33zm314 -293l-5 0c-74,0 -102,63 -102,123l0 40 -45 0 0 -137c0,-14 -5,-26 -24,-26 -18,0 -25,12 -25,26l0 346c0,14 7,26 25,26 18,0 24,-12 24,-26l0 -159 45 0 0 83c0,61 32,102 102,102l5 0c71,0 103,-47 103,-108l0 -182c0,-61 -32,-108 -103,-108zm51 290c0,34 -12,58 -51,58l-5 0c-38,0 -50,-18 -50,-52l0 -173c0,-34 10,-73 50,-73l5 0c39,0 51,24 51,58l0 182zm194 33c1,-13 18,-268 18,-268l77 0 0 317c0,14 8,26 27,26 17,0 25,-12 25,-26l0 -341c0,-13 -8,-25 -25,-25l-127 0c-18,0 -26,12 -26,25 0,0 -18,272 -19,279 0,7 -1,17 -4,24 -5,9 -13,16 -27,16 -13,0 -25,8 -25,26 0,18 12,24 25,24 39,0 62,-16 73,-43 4,-10 7,-23 8,-34zm294 0c1,-13 19,-268 19,-268l77 0 0 317c0,14 8,26 26,26 18,0 26,-12 26,-26l0 -341c0,-13 -8,-25 -26,-25l-126 0c-18,0 -26,12 -27,25 0,0 -17,272 -18,279 0,7 -1,17 -4,24 -5,9 -13,16 -27,16 -13,0 -26,8 -26,26 0,18 13,24 26,24 39,0 62,-16 73,-43 4,-10 7,-23 7,-34zm397 69c13,0 25,-7 25,-25 0,-16 -12,-25 -25,-25l-118 0 0 -124 94 0c13,0 24,-7 24,-25 0,-16 -11,-24 -24,-24l-94 0 0 -114 118 0c13,0 25,-7 25,-24 0,-17 -12,-25 -25,-25l-144 0c-18,0 -26,12 -26,25l0 336c0,13 8,25 26,25l144 0zm141 -20c0,14 7,26 26,26 17,0 26,-12 26,-26l0 -317 64 0c12,0 24,-7 24,-24 0,-17 -12,-25 -24,-25l-180 0c-13,0 -24,8 -24,25 0,17 11,24 24,24l64 0 0 317zm357 20c13,0 25,-7 25,-25 0,-16 -12,-25 -25,-25l-118 0 0 -124 94 0c13,0 24,-7 24,-25 0,-16 -11,-24 -24,-24l-94 0 0 -114 118 0c13,0 25,-7 25,-24 0,-17 -12,-25 -25,-25l-144 0c-18,0 -26,12 -26,25l0 336c0,13 8,25 26,25l144 0zm298 -366c0,-14 -8,-26 -26,-26 -18,0 -26,12 -26,26l0 137 -112 0 0 -137c0,-14 -7,-26 -26,-26 -18,0 -26,12 -26,26l0 346c0,14 8,26 26,26 18,0 26,-12 26,-26l0 -159 112 0 0 159c0,14 7,26 26,26 18,0 26,-12 26,-26l0 -346zm187 129l-56 0 0 -129c0,-14 -7,-26 -25,-26 -19,0 -26,12 -26,26l0 340c0,13 7,26 25,26l82 0c70,0 102,-37 102,-99l0 -33c0,-61 -32,-105 -102,-105zm-56 50l56 0c38,0 52,21 52,55l0 33c0,33 -14,49 -52,49l-56 0 0 -137z"/>
   <path class="fil18 str8" d="M11261 13732c-9,0 -15,4 -20,9 -26,29 -56,58 -88,87 -10,9 -13,21 0,34 12,12 23,8 33,-1 19,-16 39,-37 56,-57l0 265 -68 0c-13,0 -24,7 -24,25 0,17 11,24 24,24l177 0c13,0 24,-7 24,-24 0,-18 -11,-25 -24,-25l-57 0 0 -312c0,-14 -5,-25 -24,-25l-9 0zm221 136c0,-54 20,-87 63,-87l20 0c43,0 62,33 62,87l0 119c0,54 -19,88 -62,88l-20 0c-43,0 -63,-34 -63,-88l0 -119zm196 0c0,-83 -38,-136 -113,-136l-20 0c-75,0 -114,53 -114,136l0 119c0,83 39,137 114,137l20 0c75,0 113,-54 113,-137l0 -119z"/>
   <path class="fil21 str9" d="M11416 14366c-17,0 -22,11 -22,23l0 195 -75 0 0 -195c0,-12 -6,-23 -22,-23 -16,0 -22,11 -22,23l0 195 -74 0 0 -195c0,-12 -6,-23 -22,-23 -16,0 -22,11 -22,23l0 214c0,12 6,23 22,23l237 0c15,0 22,-11 22,-23l0 -214c0,-12 -6,-23 -22,-23zm254 5l-162 0c-11,0 -22,5 -22,21 0,15 11,21 22,21l59 0 0 195c0,12 6,23 22,23 16,0 22,-11 22,-23l0 -195 59 0c11,0 21,-6 21,-21 0,-16 -10,-21 -21,-21z"/>
   <path class="fil22 str10" d="M10961 14717c-164,-134 -269,-338 -269,-567 0,-228 105,-432 269,-566m926 0c164,134 269,338 269,566 0,229 -105,433 -269,567"/>
   <path class="fil23 str11" d="M8625 9552l0 5870c-1591,0 -2657,0 -4247,0l0 -5870 4247 0z"/>
   <path class="fil24" d="M4378 9552l4247 0 0 2424 -4247 -2018c7,-208 0,-267 0,-406z"/>
   <path class="fil15 str12" d="M5543 11849c0,28 16,60 47,73 -3,5 -5,9 -10,20 0,0 -30,69 -34,77 -4,9 -1,19 10,24 13,5 20,-1 24,-10 4,-10 46,-106 46,-106l50 0 0 99c0,10 5,18 18,18 13,0 19,-8 19,-18l0 -242c0,-10 -6,-18 -19,-18l-75 0c-50,0 -76,31 -76,72l0 11zm74 43c-27,0 -37,-19 -37,-43l0 -11c0,-22 11,-37 39,-37l57 0 0 91 -59 0zm359 149c7,0 15,-1 21,-1l-23 38c-2,3 -3,7 -3,10 0,7 7,19 20,19 6,0 12,-5 15,-11l38 -64c1,-3 2,-6 2,-9 0,-13 -9,-18 -18,-18l-16 0 0 -225c0,-10 -5,-18 -18,-18 -13,0 -19,8 -19,18l0 225 -65 0 0 -225c0,-10 -6,-18 -18,-18 -11,0 -17,9 -17,18l0 225 -66 0 0 -225c0,-10 -5,-18 -19,-18 -12,0 -18,8 -18,18l0 242c0,10 6,19 18,19l186 0zm248 -15c0,10 5,18 18,18 13,0 18,-8 18,-18l0 -246c0,-10 -5,-18 -18,-18 -8,0 -13,3 -19,13l-105 187 0 0c1,-7 1,-16 1,-27l0 -155c0,-10 -5,-18 -17,-18 -14,0 -19,8 -19,18l0 246c0,10 6,18 19,18 8,0 13,-2 19,-13l104 -187 1 0c-1,7 -2,17 -2,27l0 155zm271 -11l-84 -119 80 -104c7,-9 7,-19 -1,-26 -9,-9 -21,-5 -27,4l-83 112 -23 0 0 -102c0,-10 -6,-18 -18,-18 -14,0 -19,8 -19,18l0 246c0,10 5,18 19,18 12,0 18,-8 18,-18l0 -109 24 0 84 120c5,7 15,12 25,5 11,-8 11,-19 5,-27zm379 -86c0,11 1,22 2,29l0 0 -89 -183c-5,-9 -11,-13 -19,-13 -13,0 -18,8 -18,18l0 246c0,10 5,18 18,18 13,0 18,-8 18,-18l0 -149c0,-10 -2,-21 -3,-28l1 0 89 182c4,10 10,13 18,13 13,0 19,-8 19,-18l0 -246c0,-10 -5,-18 -19,-18 -12,0 -17,8 -17,18l0 149zm99 -84c-12,0 -15,-7 -15,-18l0 -20c0,-11 3,-17 15,-17l6 0c12,0 15,6 15,17l0 20c0,11 -3,18 -15,18l-6 0zm6 26c27,0 40,-18 40,-42l0 -24c0,-24 -13,-41 -40,-41l-6 0c-27,0 -40,17 -40,41l0 24c0,24 13,42 40,42l6 0zm27 46c9,0 15,-4 15,-14 0,-10 -6,-14 -15,-14l-60 0c-8,0 -15,4 -15,14 0,10 7,14 15,14l60 0zm143 -155c-6,0 -11,3 -14,6 -19,21 -41,42 -64,63 -7,7 -10,15 0,25 8,8 17,5 24,-1 14,-12 28,-26 41,-41l0 191 -50 0c-9,0 -17,5 -17,18 0,12 8,18 17,18l128 0c9,0 17,-6 17,-18 0,-13 -8,-18 -17,-18l-42 0 0 -225c0,-10 -3,-18 -16,-18l-7 0z"/>
   <path class="fil25 str13" d="M6084 10881l37 119c5,16 20,26 37,19 17,-6 25,-22 19,-38l-131 -425c-5,-15 -13,-23 -31,-23l-3 0c-19,0 -26,8 -31,23l-132 425c-5,16 2,32 19,38 18,7 33,-3 38,-19l36 -119 142 0zm-81 -205c5,-15 7,-22 10,-39l1 0c3,17 5,24 9,39l45 148 -109 0 44 -148zm525 295l-141 -207 134 -180c11,-15 11,-32 -2,-44 -15,-15 -34,-8 -45,6l-137 194 -40 0 0 -176c0,-16 -9,-31 -30,-31 -22,0 -31,15 -31,31l0 426c0,17 9,31 31,31 21,0 30,-14 30,-31l0 -189 40 0 140 207c9,13 25,21 43,9 18,-14 17,-32 8,-46zm190 50c21,0 30,-14 30,-31l0 -389 95 0c15,0 29,-9 29,-31 0,-20 -14,-30 -29,-30l-251 0c-15,0 -29,10 -29,30 0,22 14,31 29,31l95 0 0 389c0,17 9,31 31,31z"/>
   <g>
    <path class="fil15" d="M4836 11577c-30,0 -54,-23 -54,-50 0,-28 24,-51 54,-51l0 101zm3330 0l-3330 0 0 -101 3330 0 0 101zm0 -101c30,0 55,23 55,51 0,27 -25,50 -55,50l0 -101z"/>
   </g>
   <g>
    <path class="fil15" d="M4874 14414c-25,0 -46,-23 -46,-51 0,-27 21,-50 46,-50l0 101zm1746 0l-1746 0 0 -101 1746 0 0 101zm0 -101c26,0 46,23 46,50 0,28 -20,51 -46,51l0 -101zm-1746 -769c-25,0 -46,-22 -46,-50 0,-28 21,-51 46,-51l0 101zm2457 0l-2457 0 0 -101 2457 0 0 101zm0 -101c26,0 47,23 47,51 0,28 -21,50 -47,50l0 -101zm-2457 391c-25,0 -46,-22 -46,-50 0,-28 21,-51 46,-51l0 101zm3308 0l-3308 0 0 -101 3308 0 0 101zm0 -101c26,0 46,23 46,51 0,28 -20,50 -46,50l0 -101zm-3308 391c-25,0 -46,-23 -46,-51 0,-27 21,-50 46,-50l0 101zm3308 0l-3308 0 0 -101 3308 0 0 101zm0 -101c26,0 46,23 46,50 0,28 -20,51 -46,51l0 -101z"/>
   </g>
   <path class="fil21 str14" d="M4857 12427c-10,0 -16,5 -22,11 -31,35 -65,71 -102,106 -11,11 -15,25 0,41 13,15 27,10 38,0 22,-20 46,-45 65,-70l0 322 -78 0c-16,0 -29,9 -29,30 0,21 13,30 29,30l203 0c16,0 28,-9 28,-30 0,-21 -12,-30 -28,-30l-66 0 0 -379c0,-17 -5,-31 -27,-31l-11 0zm256 166c0,-66 23,-106 72,-106l22 0c50,0 73,40 73,106l0 144c0,67 -23,107 -73,107l-22 0c-49,0 -72,-40 -72,-107l0 -144zm226 0c0,-101 -45,-166 -132,-166l-22 0c-86,0 -131,65 -131,166l0 144c0,102 45,167 131,167l22 0c87,0 132,-65 132,-167l0 -144z"/>
   <path class="fil22 str15" d="M8625 9552l0 5870c-1591,0 -2657,0 -4247,0l0 -5870 4247 0z"/>
   <path class="fil22 str16" d="M7344 14367c-359,1250 -114,542 -281,430 -167,-111 608,-537 557,-195 -51,342 -608,260 -592,332 15,72 233,122 298,-61 66,-182 -30,142 142,86 172,-56 243,-218 215,-127 -28,92 20,76 111,21 92,-56 195,-114 195,-114"/>
   <g>
    <path class="fil15" d="M4836 12034c-30,0 -54,-23 -54,-51 0,-27 24,-50 54,-50l0 101zm455 0l-455 0 0 -101 455 0 0 101zm0 -101c29,0 54,23 54,50 0,28 -25,51 -54,51l0 -101z"/>
   </g>
   <path class="fil21 str17" d="M5754 12865c0,12 6,22 20,22 15,0 21,-10 21,-22l0 -298c0,-12 -6,-22 -21,-22 -9,0 -15,3 -21,16l-120 226 -1 0c1,-8 2,-20 2,-32l0 -188c0,-12 -6,-22 -20,-22 -15,0 -21,10 -21,22l0 298c0,12 6,22 22,22 8,0 14,-3 21,-16l119 -226 1 0c-1,8 -2,20 -2,33l0 187zm760 0c0,12 6,22 20,22 16,0 21,-10 21,-22l0 -298c0,-12 -6,-22 -21,-22 -9,0 -14,3 -21,16l-120 226 0 0c1,-8 2,-20 2,-32l0 -188c0,-12 -6,-22 -20,-22 -16,0 -22,10 -22,22l0 298c0,12 7,22 22,22 8,0 14,-3 21,-16l120 -226 0 0c-1,8 -2,20 -2,33l0 187zm-520 -233c0,29 -19,56 -49,56l-17 0c-10,0 -19,7 -19,20 0,16 9,21 19,21l34 0c31,0 43,27 43,56l0 11c0,29 -10,48 -44,48l-33 0c-18,0 -35,-8 -36,-28 -1,-11 -7,-21 -21,-21 -15,0 -21,10 -21,21 0,46 31,71 77,71l37 0c54,0 83,-39 83,-91l0 -11c0,-40 -18,-74 -52,-83 30,-14 41,-41 41,-70 0,-52 -24,-87 -84,-87l-19 0c-46,0 -77,24 -77,71 0,11 6,22 21,22 15,0 21,-11 21,-22 1,-19 19,-28 38,-28l16 0c30,0 42,13 42,44zm214 49l-65 0 0 -89 115 0c10,0 19,-6 19,-21 0,-14 -9,-21 -19,-21l-135 0c-15,0 -22,10 -22,22l0 289c0,11 7,22 22,22l85 0c58,0 86,-40 86,-93l0 -21c0,-53 -28,-88 -86,-88zm44 114c0,29 -12,45 -43,45l-66 0 0 -119 65 0c31,0 44,17 44,46l0 28zm414 -85l0 -118 70 0c30,0 43,17 43,45l0 24c0,29 -13,49 -43,49l-70 0zm70 43c57,0 86,-40 86,-92l0 -24c0,-53 -29,-87 -86,-87l-92 0c-14,0 -20,10 -20,22l0 293c0,12 6,22 21,22 14,0 21,-10 21,-22l0 -112 70 0zm262 36l25 83c4,12 14,18 26,14 12,-4 17,-16 13,-27l-90 -298c-3,-10 -9,-16 -21,-16l-2 0c-13,0 -18,6 -21,16l-91 298c-3,11 1,23 13,27 12,4 23,-2 26,-14l25 -83 97 0zm-55 -144c3,-10 4,-15 6,-27l1 0c2,12 4,17 7,27l30 104 -75 0 31 -104zm218 242c14,0 21,-10 21,-22l0 -273 65 0c10,0 20,-6 20,-21 0,-14 -10,-21 -20,-21l-173 0c-10,0 -20,7 -20,21 0,15 10,21 20,21l66 0 0 273c0,12 6,22 21,22zm320 -4c10,0 20,-7 20,-22 0,-14 -10,-21 -20,-21l-123 0 0 -107 101 0c11,0 20,-6 20,-22 0,-14 -9,-21 -20,-21l-101 0 0 -98 123 0c10,0 20,-6 20,-21 0,-14 -10,-21 -20,-21l-144 0c-15,0 -21,10 -21,22l0 289c0,11 6,22 21,22l144 0zm132 -60c4,-27 27,-231 27,-231l78 0 0 273c0,12 6,22 22,22 14,0 20,-10 20,-22l0 -293c0,-12 -6,-22 -20,-22l-117 0c-13,0 -20,9 -22,22 -1,13 -25,221 -27,240 -2,11 -3,18 -6,23 -4,9 -12,11 -25,11 -11,0 -20,7 -20,22 0,16 9,22 20,22 39,0 55,-14 64,-37 3,-9 5,-18 6,-30zm380 60c10,0 20,-7 20,-22 0,-14 -10,-21 -20,-21l-123 0 0 -107 102 0c10,0 19,-6 19,-22 0,-14 -9,-21 -19,-21l-102 0 0 -98 123 0c10,0 20,-6 20,-21 0,-14 -10,-21 -20,-21l-144 0c-14,0 -21,10 -21,22l0 289c0,11 7,22 21,22l144 0zm172 -363c41,0 62,-31 62,-64 0,-10 -7,-17 -16,-17 -10,0 -16,7 -17,17 -1,18 -12,31 -29,31 -17,0 -28,-13 -29,-31 -1,-10 -7,-17 -17,-17 -9,0 -16,7 -16,17 0,33 21,64 62,64zm59 345c0,12 6,22 20,22 15,0 21,-10 21,-22l0 -298c0,-12 -6,-22 -22,-22 -8,0 -14,3 -21,16l-119 226 -1 0c1,-8 2,-20 2,-32l0 -188c0,-12 -6,-22 -20,-22 -15,0 -21,10 -21,22l0 298c0,12 6,22 22,22 8,0 14,-3 21,-16l119 -226 1 0c-1,8 -2,20 -2,33l0 187z"/>
  </g>
 </g>
</svg>
