<?xml version="1.0" encoding="UTF-8"?>
<!DOCTYPE svg PUBLIC "-//W3C//DTD SVG 1.0//EN" "http://www.w3.org/TR/2001/REC-SVG-20010904/DTD/svg10.dtd">
<!-- Creator: CorelDRAW X7 -->
<svg xmlns="http://www.w3.org/2000/svg" xml:space="preserve" width="200mm" height="200mm" version="1.0" style="shape-rendering:geometricPrecision; text-rendering:geometricPrecision; image-rendering:optimizeQuality; fill-rule:evenodd; clip-rule:evenodd"
viewBox="0 0 20000 20000"
 xmlns:xlink="http://www.w3.org/1999/xlink">
 <defs>
  <style type="text/css">
   <![CDATA[
    .str10 {stroke:#034540;stroke-width:20.54}
    .str9 {stroke:#4D8A7D;stroke-width:11.85}
    .str12 {stroke:#CC7587;stroke-width:14.69}
    .str11 {stroke:#CC7587;stroke-width:19.99}
    .str1 {stroke:#AB8082;stroke-width:81.77}
    .str7 {stroke:#AB8082;stroke-width:81.78}
    .str8 {stroke:#034540;stroke-width:112.83;stroke-linecap:round;stroke-linejoin:round}
    .str5 {stroke:#737370;stroke-width:67.92;stroke-linecap:round;stroke-linejoin:round}
    .str3 {stroke:#B54F66;stroke-width:67.92;stroke-linecap:round;stroke-linejoin:round}
    .str13 {stroke:#034540;stroke-width:132;stroke-linecap:round;stroke-linejoin:round}
    .str14 {stroke:#4D8A7D;stroke-width:98.73;stroke-linecap:round;stroke-linejoin:round}
    .str0 {stroke:#2E99A3;stroke-width:132.61;stroke-linecap:round;stroke-linejoin:round}
    .str2 {stroke:#57A6B3;stroke-width:10.17;stroke-linecap:round;stroke-linejoin:round}
    .str6 {stroke:#57A6B3;stroke-width:10.19;stroke-linecap:round;stroke-linejoin:round}
    .str4 {stroke:#CC5770;stroke-width:108.03;stroke-linecap:round;stroke-linejoin:round;stroke-dasharray:84.660000 253.980000}
    .fil8 {fill:none}
    .fil14 {fill:none;fill-rule:nonzero}
    .fil16 {fill:#738287}
    .fil7 {fill:#ABC9BF}
    .fil3 {fill:#B3B3B3}
    .fil2 {fill:#BDD6D1}
    .fil6 {fill:#C4C7C7}
    .fil1 {fill:#C9E6E8}
    .fil12 {fill:#CC5770}
    .fil4 {fill:#D9D9D9}
    .fil18 {fill:#FFF7B3}
    .fil17 {fill:#FFFADB}
    .fil20 {fill:#034540;fill-rule:nonzero}
    .fil5 {fill:#2E99A3;fill-rule:nonzero}
    .fil19 {fill:#4D8A7D;fill-rule:nonzero}
    .fil10 {fill:#57A6B3;fill-rule:nonzero}
    .fil11 {fill:#5C5C5C;fill-rule:nonzero}
    .fil15 {fill:#738287;fill-rule:nonzero}
    .fil9 {fill:#AB8082;fill-rule:nonzero}
    .fil13 {fill:#B54F66;fill-rule:nonzero}
    .fil21 {fill:#CC7587;fill-rule:nonzero}
    .fil0 {fill:url(#id0)}
   ]]>
  </style>
  <radialGradient id="id0" gradientUnits="userSpaceOnUse" gradientTransform="matrix(1.41421 -0 -0 1.41421 -4142 -4142)" cx="10000" cy="10000" r="10000" fx="10000" fy="10000">
   <stop offset="0" style="stop-opacity:1; stop-color:#FEFEFE"/>
   <stop offset="0.439216" style="stop-opacity:1; stop-color:#FEFEFE"/>
   <stop offset="1" style="stop-opacity:1; stop-color:#D1E2F2"/>
  </radialGradient>
 </defs>
 <g id="Layer_x0020_1">
  <metadata id="CorelCorpID_0Corel-Layer"/>
  <g id="_895370553488">
   <path class="fil0" d="M0 0l20000 0 0 20000 -20000 0 0 -20000z"/>
   <path class="fil1" d="M2876 7615l0 -3493 3340 0 0 3493 -3340 0z"/>
   <path class="fil2" d="M7093 6551l0 -3394 -877 965 0 3493 877 -1064z"/>
   <path class="fil3" d="M7037 3561l0 -326 -821 887 0 326 821 -887z"/>
   <g>
    <path class="fil4" d="M3853 3157l3240 0 -877 965 -3340 0 977 -965z"/>
    <path id="1" class="fil5" d="M7093 3224l-3240 0 0 -133 3240 0 49 111 -49 22zm0 -133c37,0 66,30 66,66 0,37 -29,67 -66,67l0 -133zm-925 986l877 -965 97 90 -877 965 -49 21 -48 -111zm97 90c-25,27 -66,29 -93,4 -27,-25 -29,-67 -4,-94l97 90zm-3389 -111l3340 0 0 132 -3340 0 -46 -113 46 -19zm0 132c-36,0 -66,-29 -66,-66 0,-37 30,-66 66,-66l0 132zm1023 -983l-977 964 -92 -94 977 -965 46 -19 46 114zm-92 -95c26,-26 68,-25 93,1 25,26 25,68 -1,94l-92 -95z"/>
   </g>
   <path class="fil6" d="M2876 4448l0 -326 3340 0 0 326 -3340 0z"/>
   <path class="fil2" d="M3780 6651l3240 0 -804 964 -3340 0 904 -964z"/>
   <path class="fil7" d="M6216 6651l0 964 795 -964 -795 0z"/>
   <g>
    <path class="fil5" d="M7160 3157l0 3394 -133 0 0 -3394 17 -44 116 44zm-133 0c0,-36 30,-65 66,-65 37,0 67,29 67,65l-133 0zm-860 921l877 -965 99 88 -877 965 -116 -44 17 -44zm99 88c-25,27 -67,29 -94,5 -27,-24 -29,-66 -5,-93l99 88zm-116 3450l0 -3494 133 0 0 3494 -15 41 -118 -41zm133 0c0,36 -30,65 -67,65 -36,0 -66,-29 -66,-65l133 0zm862 -1024l-877 1065 -103 -83 877 -1065 118 42 -15 41zm-103 -83c23,-28 65,-32 93,-9 29,23 33,64 10,92l-103 -83z"/>
   </g>
   <path class="fil8 str0" d="M7093 3556l-811 892 -3393 0"/>
   <path class="fil8 str0" d="M2876 7616l0 -3494 3340 0 0 3494 -3340 0z"/>
   <path class="fil9 str1" d="M4883 5224c-21,0 -35,9 -47,21 -64,70 -135,141 -211,210 -23,22 -32,49 -1,80 29,29 56,19 79,-1 47,-39 95,-89 136,-137l0 635 -163 0c-33,0 -59,17 -59,58 0,42 26,59 59,59l422 0c33,0 59,-17 59,-59 0,-41 -26,-58 -59,-58l-137 0 0 -747c0,-34 -10,-61 -56,-61l-22 0z"/>
   <path class="fil9" d="M4121 5911c0,22 4,46 5,61l0 0 -190 -390c-10,-20 -23,-29 -39,-29 -29,0 -41,19 -41,39l0 527c0,20 11,38 40,38 27,0 38,-18 38,-38l0 -319c0,-23 -4,-46 -6,-61l1 0 190 390c10,20 23,28 39,28 29,0 41,-18 41,-38l0 -527c0,-20 -11,-39 -40,-39 -27,0 -38,19 -38,39l0 319zm213 -181c-26,0 -32,-14 -32,-38l0 -41c0,-24 6,-38 32,-38l12 0c25,0 32,14 32,38l0 41c0,24 -7,38 -32,38l-12 0zm13 56c58,0 86,-38 86,-89l0 -51c0,-51 -28,-89 -86,-89l-14 0c-58,0 -86,38 -86,89l0 51c0,51 28,89 86,89l14 0zm58 99c18,0 30,-8 30,-30 0,-22 -12,-30 -30,-30l-129 0c-18,0 -31,8 -31,30 0,22 13,30 31,30l129 0z"/>
   <path class="fil10 str2" d="M3944 6742c0,-41 -18,-67 -54,-79 25,-14 37,-34 37,-65l0 -17c0,-56 -32,-85 -95,-85l-59 0c-17,0 -25,11 -25,23l0 306c0,12 8,23 25,23l75 0c64,0 96,-33 96,-90l0 -16zm-148 -51l52 0c35,0 48,21 48,51l0 16c0,31 -13,45 -48,45l-52 0 0 -112zm0 -44l0 -106 36 0c34,0 48,10 48,40l0 17c0,30 -14,49 -48,49l-36 0zm286 -15l-35 0 0 -118c0,-12 -7,-23 -23,-23 -17,0 -24,11 -24,23l0 311c0,12 7,23 23,23l59 0c64,0 93,-34 93,-90l0 -30c0,-56 -29,-96 -93,-96zm-35 46l35 0c35,0 47,19 47,50l0 30c0,30 -12,45 -47,45l-35 0 0 -125zm211 152l0 -316c0,-12 -6,-23 -23,-23 -16,0 -23,11 -23,23l0 316c0,12 6,23 23,23 16,0 23,-11 23,-23zm166 -195l-46 0 0 -94 102 0c11,0 22,-6 22,-22 0,-15 -11,-23 -22,-23l-126 0c-16,0 -23,10 -23,22l0 307c0,12 7,23 24,23l69 0c63,0 93,-33 93,-90l0 -29c0,-55 -30,-94 -93,-94zm46 123c0,31 -12,46 -46,46l-46 0 0 -126 46 0c34,0 46,19 46,50l0 30zm145 -169c0,-31 11,-53 46,-53l15 0c35,0 46,22 46,53l0 166c0,32 -11,53 -46,53l-15 0c-35,0 -46,-21 -46,-53l0 -166zm154 0c0,-55 -29,-98 -93,-98l-15 0c-64,0 -93,43 -93,98l0 166c0,56 29,98 93,98l15 0c64,0 93,-42 93,-98l0 -166zm115 77l0 -125 51 0c35,0 47,15 47,45l0 30c0,31 -12,50 -47,50l-51 0zm51 46c64,0 93,-40 93,-96l0 -30c0,-56 -29,-90 -93,-90l-75 0c-16,0 -23,11 -23,23l0 311c0,12 7,23 24,23 16,0 23,-11 23,-23l0 -118 51 0zm233 -80l-35 0 0 -118c0,-12 -7,-23 -24,-23 -16,0 -23,11 -23,23l0 311c0,12 7,23 23,23l59 0c64,0 93,-34 93,-90l0 -30c0,-56 -29,-96 -93,-96zm-35 46l35 0c34,0 46,19 46,50l0 30c0,30 -12,45 -46,45l-35 0 0 -125zm211 152l0 -316c0,-12 -7,-23 -23,-23 -16,0 -24,11 -24,23l0 316c0,12 6,23 23,23 16,0 24,-11 24,-23z"/>
   <g>
    <path class="fil11" d="M3926 3740c-52,0 -95,-45 -95,-100 0,-56 43,-100 95,-100l0 200zm2028 0l-2028 0 0 -200 2028 0 0 200zm0 -200c53,0 95,44 95,100 0,55 -42,100 -95,100l0 -200z"/>
   </g>
   <path class="fil12" d="M2800 3539l32 43c20,-13 40,-24 61,-34 26,-14 59,-3 72,23 13,27 3,61 -23,75 -15,7 -30,13 -45,22l18 23 -88 266 -671 507 -96 -126 -115 -152 -96 -127 672 -508 279 -12z"/>
   <path class="fil8 str3" d="M2605 3872c-8,-47 -53,-79 -100,-71 -47,8 -79,52 -71,99"/>
   <path class="fil8 str4" d="M3886 4017c113,354 -75,736 -427,861"/>
   <path class="fil13" d="M2908 3543c140,-64 294,-81 440,-55 177,33 343,129 460,284l1 0c14,19 27,38 39,57 21,35 1,67 -40,67l-60 0c-12,-20 -11,-40 -25,-59l0 0 0 0c-101,-133 -243,-215 -394,-242 -128,-24 -263,-8 -385,49l-2 2c26,-14 36,-48 23,-75 -11,-21 -34,-32 -57,-28zm-158 1247c136,108 307,169 488,164 29,-1 53,-26 52,-56 -1,-30 -26,-53 -56,-52 -154,5 -301,-47 -416,-140 -248,-198 -222,-406 -237,-700 -2,-36 -4,-74 -7,-128 -2,-30 -27,-53 -57,-51 -30,2 -52,27 -51,57 2,38 5,85 7,128 18,334 -3,554 277,778zm-328 -1164c-36,-137 -94,-283 -167,-432 -76,-154 -169,-312 -275,-465 -16,-25 -10,-58 14,-75 25,-17 58,-11 75,14 108,156 204,318 283,478 69,141 124,279 163,410l-93 70z"/>
   <path class="fil14 str5" d="M3702 3856c8,47 53,78 100,70 47,-8 78,-53 70,-100"/>
   <path class="fil14 str5" d="M3227 4986c48,4 89,-32 93,-80 3,-48 -33,-89 -81,-92"/>
   <path class="fil1" d="M13292 7615l0 -3493 3340 0 0 3493 -3340 0z"/>
   <path class="fil2" d="M17509 6551l0 -3394 -877 965 0 3493 877 -1064z"/>
   <path class="fil3" d="M17452 3561l0 -326 -820 887 0 326 820 -887z"/>
   <g>
    <path class="fil4" d="M14269 3157l3240 0 -877 965 -3340 0 977 -965z"/>
    <path id="1" class="fil5" d="M17509 3224l-3240 0 0 -133 3240 0 48 111 -48 22zm0 -133c36,0 66,30 66,66 0,37 -30,67 -66,67l0 -133zm-925 986l877 -965 96 90 -877 965 -48 21 -48 -111zm96 90c-24,27 -66,29 -93,4 -26,-25 -28,-67 -3,-94l96 90zm-3388 -111l3340 0 0 132 -3340 0 -46 -113 46 -19zm0 132c-37,0 -66,-29 -66,-66 0,-37 29,-66 66,-66l0 132zm1023 -983l-977 964 -92 -94 977 -965 46 -19 46 114zm-92 -95c26,-26 67,-25 93,1 25,26 25,68 -1,94l-92 -95z"/>
   </g>
   <path class="fil6" d="M13292 4448l0 -326 3340 0 0 326 -3340 0z"/>
   <path class="fil2" d="M14196 6651l3240 0 -804 964 -3340 0 904 -964z"/>
   <path class="fil7" d="M16632 6651l0 964 795 -964 -795 0z"/>
   <g>
    <path class="fil5" d="M17575 3157l0 3394 -132 0 0 -3394 17 -44 115 44zm-132 0c0,-36 29,-65 66,-65 37,0 66,29 66,65l-132 0zm-860 921l877 -965 98 88 -877 965 -115 -44 17 -44zm98 88c-24,27 -66,29 -93,5 -28,-24 -30,-66 -5,-93l98 88zm-115 3450l0 -3494 132 0 0 3494 -15 41 -117 -41zm132 0c0,36 -29,65 -66,65 -37,0 -66,-29 -66,-65l132 0zm862 -1024l-877 1065 -102 -83 877 -1065 117 42 -15 41zm-102 -83c23,-28 65,-32 93,-9 28,23 33,64 9,92l-102 -83z"/>
   </g>
   <path class="fil8 str0" d="M17509 3556l-811 892 -3393 0"/>
   <path class="fil8 str0" d="M13292 7616l0 -3494 3340 0 0 3494 -3340 0z"/>
   <path class="fil10 str6" d="M14359 6742c0,-41 -17,-67 -53,-79 25,-14 37,-34 37,-65l0 -17c0,-56 -32,-85 -96,-85l-59 0c-17,0 -24,11 -24,23l0 306c0,12 7,23 24,23l76 0c64,0 95,-33 95,-90l0 -16zm-148 -51l53 0c35,0 48,21 48,51l0 16c0,31 -13,45 -48,45l-53 0 0 -112zm0 -44l0 -106 36 0c34,0 49,10 49,40l0 17c0,30 -15,49 -49,49l-36 0zm287 -15l-35 0 0 -118c0,-12 -7,-23 -24,-23 -16,0 -23,11 -23,23l0 311c0,12 7,23 23,23l59 0c64,0 93,-34 93,-90l0 -30c0,-56 -29,-96 -93,-96zm-35 46l35 0c35,0 47,19 47,50l0 30c0,30 -12,45 -47,45l-35 0 0 -125zm211 152l0 -316c0,-12 -6,-23 -23,-23 -16,0 -24,11 -24,23l0 316c0,12 7,23 23,23 17,0 24,-11 24,-23zm165 -195l-45 0 0 -94 102 0c11,0 22,-6 22,-22 0,-15 -11,-23 -22,-23l-126 0c-16,0 -23,10 -23,22l0 307c0,12 7,23 23,23l69 0c64,0 93,-33 93,-90l0 -29c0,-55 -29,-94 -93,-94zm47 123c0,31 -12,46 -47,46l-45 0 0 -126 45 0c35,0 47,19 47,50l0 30zm145 -169c0,-31 11,-53 46,-53l15 0c35,0 46,22 46,53l0 166c0,32 -11,53 -46,53l-15 0c-35,0 -46,-21 -46,-53l0 -166zm154 0c0,-55 -29,-98 -93,-98l-15 0c-64,0 -93,43 -93,98l0 166c0,56 29,98 93,98l15 0c64,0 93,-42 93,-98l0 -166zm115 77l0 -125 51 0c34,0 46,15 46,45l0 30c0,31 -12,50 -46,50l-51 0zm51 46c64,0 93,-40 93,-96l0 -30c0,-56 -29,-90 -93,-90l-75 0c-16,0 -23,11 -23,23l0 311c0,12 7,23 23,23 17,0 24,-11 24,-23l0 -118 51 0zm232 -80l-34 0 0 -118c0,-12 -8,-23 -24,-23 -17,0 -24,11 -24,23l0 311c0,12 7,23 23,23l59 0c64,0 93,-34 93,-90l0 -30c0,-56 -29,-96 -93,-96zm-34 46l34 0c35,0 47,19 47,50l0 30c0,30 -12,45 -47,45l-34 0 0 -125zm210 152l0 -316c0,-12 -6,-23 -23,-23 -16,0 -23,11 -23,23l0 316c0,12 6,23 23,23 16,0 23,-11 23,-23z"/>
   <g>
    <path class="fil11" d="M14342 3740c-52,0 -95,-45 -95,-100 0,-56 43,-100 95,-100l0 200zm2028 0l-2028 0 0 -200 2028 0 0 200zm0 -200c52,0 95,44 95,100 0,55 -43,100 -95,100l0 -200z"/>
   </g>
   <path class="fil1" d="M8084 7615l0 -3493 3340 0 0 3493 -3340 0z"/>
   <path class="fil2" d="M12301 6551l0 -3394 -877 965 0 3493 877 -1064z"/>
   <path class="fil3" d="M12244 3561l0 -326 -820 887 0 326 820 -887z"/>
   <g>
    <path class="fil4" d="M9061 3157l3240 0 -877 965 -3340 0 977 -965z"/>
    <path id="1" class="fil5" d="M12301 3224l-3240 0 0 -133 3240 0 49 111 -49 22zm0 -133c36,0 66,30 66,66 0,37 -30,67 -66,67l0 -133zm-925 986l877 -965 97 90 -878 965 -48 21 -48 -111zm96 90c-24,27 -66,29 -92,4 -27,-25 -29,-67 -4,-94l96 90zm-3388 -111l3340 0 0 132 -3340 0 -46 -113 46 -19zm0 132c-36,0 -66,-29 -66,-66 0,-37 30,-66 66,-66l0 132zm1023 -983l-977 964 -92 -94 977 -965 46 -19 46 114zm-92 -95c26,-26 68,-25 93,1 25,26 25,68 -1,94l-92 -95z"/>
   </g>
   <path class="fil6" d="M8084 4448l0 -326 3340 0 0 326 -3340 0z"/>
   <path class="fil2" d="M8988 6651l3240 0 -804 964 -3340 0 904 -964z"/>
   <path class="fil7" d="M11424 6651l0 964 795 -964 -795 0z"/>
   <g>
    <path class="fil5" d="M12368 3157l0 3394 -133 0 0 -3394 17 -44 116 44zm-133 0c0,-36 30,-65 66,-65 37,0 67,29 67,65l-133 0zm-860 921l877 -965 99 88 -878 965 -115 -44 17 -44zm98 88c-24,27 -66,29 -93,5 -27,-24 -30,-66 -5,-93l98 88zm-115 3450l0 -3494 132 0 0 3494 -15 41 -117 -41zm132 0c0,36 -29,65 -66,65 -37,0 -66,-29 -66,-65l132 0zm863 -1024l-878 1065 -102 -83 877 -1065 118 42 -15 41zm-103 -83c23,-28 65,-32 93,-9 29,23 33,64 10,92l-103 -83z"/>
   </g>
   <path class="fil8 str0" d="M12301 3556l-811 892 -3393 0"/>
   <path class="fil8 str0" d="M8084 7616l0 -3494 3340 0 0 3494 -3340 0z"/>
   <path class="fil10 str6" d="M9152 6742c0,-41 -18,-67 -54,-79 25,-14 37,-34 37,-65l0 -17c0,-56 -32,-85 -96,-85l-59 0c-17,0 -24,11 -24,23l0 306c0,12 7,23 24,23l76 0c64,0 96,-33 96,-90l0 -16zm-148 -51l52 0c35,0 48,21 48,51l0 16c0,31 -13,45 -48,45l-52 0 0 -112zm0 -44l0 -106 35 0c35,0 49,10 49,40l0 17c0,30 -14,49 -49,49l-35 0zm286 -15l-35 0 0 -118c0,-12 -7,-23 -23,-23 -17,0 -24,11 -24,23l0 311c0,12 7,23 23,23l59 0c64,0 93,-34 93,-90l0 -30c0,-56 -29,-96 -93,-96zm-35 46l35 0c35,0 47,19 47,50l0 30c0,30 -12,45 -47,45l-35 0 0 -125zm211 152l0 -316c0,-12 -6,-23 -23,-23 -16,0 -24,11 -24,23l0 316c0,12 7,23 24,23 16,0 23,-11 23,-23zm165 -195l-45 0 0 -94 102 0c11,0 22,-6 22,-22 0,-15 -11,-23 -22,-23l-126 0c-16,0 -23,10 -23,22l0 307c0,12 7,23 23,23l69 0c64,0 93,-33 93,-90l0 -29c0,-55 -29,-94 -93,-94zm47 123c0,31 -12,46 -47,46l-45 0 0 -126 45 0c35,0 47,19 47,50l0 30zm145 -169c0,-31 11,-53 46,-53l15 0c35,0 46,22 46,53l0 166c0,32 -11,53 -46,53l-15 0c-35,0 -46,-21 -46,-53l0 -166zm154 0c0,-55 -29,-98 -93,-98l-15 0c-64,0 -93,43 -93,98l0 166c0,56 29,98 93,98l15 0c64,0 93,-42 93,-98l0 -166zm115 77l0 -125 51 0c35,0 47,15 47,45l0 30c0,31 -12,50 -47,50l-51 0zm51 46c64,0 93,-40 93,-96l0 -30c0,-56 -29,-90 -93,-90l-75 0c-16,0 -23,11 -23,23l0 311c0,12 7,23 23,23 17,0 24,-11 24,-23l0 -118 51 0zm232 -80l-34 0 0 -118c0,-12 -7,-23 -24,-23 -17,0 -24,11 -24,23l0 311c0,12 7,23 24,23l58 0c64,0 94,-34 94,-90l0 -30c0,-56 -30,-96 -94,-96zm-34 46l34 0c35,0 47,19 47,50l0 30c0,30 -12,45 -47,45l-34 0 0 -125zm211 152l0 -316c0,-12 -7,-23 -24,-23 -16,0 -23,11 -23,23l0 316c0,12 6,23 23,23 16,0 24,-11 24,-23z"/>
   <g>
    <path class="fil11" d="M9134 3740c-52,0 -95,-45 -95,-100 0,-56 43,-100 95,-100l0 200zm2028 0l-2028 0 0 -200 2028 0 0 200zm0 -200c53,0 95,44 95,100 0,55 -42,100 -95,100l0 -200z"/>
   </g>
   <path class="fil12" d="M8659 3496l-21 48c20,11 40,23 59,36 25,17 32,50 15,75 -16,25 -51,33 -76,16 -14,-9 -27,-19 -41,-27l-12 26 -274 54 -773 -334 64 -146 75 -175 64 -146 772 335 148 238z"/>
   <path class="fil8 str3" d="M8273 3489c37,-30 43,-84 13,-121 -30,-37 -84,-43 -121,-13"/>
   <path class="fil13" d="M8709 3591c103,76 184,175 236,288l-122 0c-45,-80 -107,-151 -185,-206l-2 -2c25,17 60,9 76,-16 14,-20 12,-46 -3,-64zm-339 1339c-93,13 -188,8 -282,-16l-2 0 -2 0c-173,-50 -318,-160 -414,-305 -94,-141 -140,-316 -119,-498l0 0c26,-214 141,-407 319,-527 57,-39 128,-84 216,-140 36,-23 76,-49 109,-69 25,-17 58,-9 74,16 16,25 9,58 -16,74 -46,29 -78,50 -109,69 -95,61 -168,108 -225,147 -15,11 -30,22 -43,34 -117,100 -198,243 -218,408l0 0 0 0c-18,156 22,306 102,427 82,123 206,217 354,260 85,21 172,24 256,11l0 109zm28 -1721c101,-99 200,-221 294,-358 96,-141 188,-300 269,-468 13,-26 46,-38 72,-24 27,13 38,45 25,72 -83,170 -177,333 -278,481 -88,129 -181,246 -276,343l-106 -46z"/>
   <path class="fil14 str4" d="M8951 4000c113,354 -74,736 -427,861"/>
   <path class="fil14 str5" d="M8767 3839c9,47 53,79 100,70 47,-8 79,-53 70,-100"/>
   <path class="fil14 str5" d="M8293 4969c47,4 89,-32 92,-80 3,-47 -32,-89 -80,-92"/>
   <path class="fil12" d="M13665 3442l-8 53c22,5 45,12 67,19 28,10 43,40 33,69 -9,28 -41,45 -69,35 -16,-5 -31,-12 -47,-16l-4 29 -251 123 -833 -124 23 -157 28 -188 24 -157 832 123 205 191z"/>
   <path class="fil8 str3" d="M13290 3536c29,-39 20,-93 -18,-121 -39,-28 -93,-19 -121,19"/>
   <path class="fil13" d="M13738 3521c119,47 223,122 302,217l-117 32c-64,-66 -143,-118 -232,-151l-3 -1c28,9 60,-7 69,-35 8,-23 0,-48 -19,-62zm19 1382c-86,36 -180,56 -277,58l-1 0 -2 0c-180,-4 -349,-73 -479,-187 -128,-113 -217,-269 -244,-451l0 0c-31,-213 31,-429 171,-592 46,-52 103,-114 173,-191 29,-31 61,-66 87,-94 20,-23 54,-24 76,-4 22,20 24,54 4,76 -37,40 -63,68 -87,95 -76,83 -135,147 -180,200 -12,14 -23,29 -33,44 -87,127 -128,286 -104,451l0 0 0 0c22,155 99,289 209,385 110,98 254,157 409,160 88,-2 172,-21 249,-56l29 106zm-419 -1670c72,-122 136,-265 192,-422 56,-161 104,-338 139,-521 6,-30 34,-49 63,-43 29,6 49,34 43,63 -36,187 -85,369 -144,537 -52,148 -112,284 -178,403l-115 -17z"/>
   <path class="fil14 str4" d="M14078 3854c201,313 118,730 -190,942"/>
   <path class="fil14 str5" d="M13859 3746c20,44 71,62 115,42 43,-20 61,-72 41,-115"/>
   <path class="fil14 str5" d="M13693 4961c46,-9 77,-55 68,-102 -9,-46 -54,-77 -101,-68"/>
   <path class="fil15" d="M11788 3951c-2,-76 41,-140 96,-142 55,-3 101,56 103,133 17,644 292,1034 583,1446l0 0 1 0c2,3 4,6 5,9 153,217 245,423 227,593 -20,191 -150,311 -438,319l0 -277c165,-3 236,-33 241,-81 7,-74 -62,-204 -172,-362 -2,-2 -3,-4 -5,-6l0 0 0 0 -1 -1 0 -1c-319,-451 -621,-877 -640,-1630z"/>
   <path class="fil16" d="M11994 3807c59,0 107,93 107,206 0,114 -48,206 -107,206 -59,0 -106,-92 -106,-206 0,-113 47,-206 106,-206z"/>
   <path class="fil15" d="M6582 3951c-2,-76 41,-140 96,-142 55,-3 101,56 103,133 16,644 291,1034 583,1446l0 0 0 0c2,3 4,6 6,9 152,217 244,423 227,593 -20,191 -150,311 -439,319l0 -277c165,-3 236,-33 241,-81 8,-74 -61,-204 -172,-362 -1,-2 -3,-4 -4,-6l-1 0 1 0 -1 -1 0 -1c-320,-451 -621,-877 -640,-1630z"/>
   <path class="fil16" d="M6788 3807c58,0 106,93 106,206 0,114 -48,206 -106,206 -59,0 -107,-92 -107,-206 0,-113 48,-206 107,-206z"/>
   <path class="fil9 str7" d="M9969 5929c0,-60 23,-107 65,-127l240 -108c117,-52 143,-143 143,-232l0 -5c0,-150 -84,-233 -254,-233l-79 0c-134,0 -218,57 -218,195 0,34 17,62 62,62 44,0 61,-28 61,-62 0,-54 38,-78 95,-78l79 0c93,0 132,35 132,116l0 5c0,62 -20,99 -72,123l-222 99c-105,44 -154,143 -154,256l0 209 524 0c32,0 58,-17 58,-59 0,-41 -26,-58 -58,-58l-402 0 0 -103z"/>
   <path class="fil9" d="M9378 5911c0,22 4,46 5,61l0 0 -190 -390c-10,-20 -24,-29 -39,-29 -29,0 -41,19 -41,39l0 527c0,20 11,38 40,38 27,0 37,-18 37,-38l0 -319c0,-23 -3,-46 -5,-61l1 0 190 390c10,20 23,28 39,28 29,0 41,-18 41,-38l0 -527c0,-20 -11,-39 -40,-39 -27,0 -38,19 -38,39l0 319zm213 -181c-26,0 -32,-14 -32,-38l0 -41c0,-24 6,-38 32,-38l12 0c25,0 32,14 32,38l0 41c0,24 -7,38 -32,38l-12 0zm13 56c58,0 86,-38 86,-89l0 -51c0,-51 -28,-89 -86,-89l-14 0c-58,0 -86,38 -86,89l0 51c0,51 28,89 86,89l14 0zm58 99c17,0 30,-8 30,-30 0,-22 -13,-30 -30,-30l-129 0c-18,0 -31,8 -31,30 0,22 13,30 31,30l129 0z"/>
   <path class="fil9 str7" d="M15682 5873c0,-108 -44,-192 -141,-222 62,-35 97,-92 97,-177l0 -17c0,-150 -85,-233 -254,-233l-69 0c-134,0 -218,57 -218,195 0,34 17,62 62,62 44,0 61,-28 61,-62 0,-54 38,-78 95,-78l69 0c92,0 131,35 131,116l0 17c0,82 -48,141 -142,141l-74 0c-32,0 -58,15 -58,57 0,42 26,57 58,57l133 0c93,0 128,60 128,144l0 43c0,82 -39,129 -132,129l-139 0c-57,0 -95,-24 -95,-79 0,-33 -17,-61 -61,-61 -45,0 -62,28 -62,61 0,139 84,196 218,196l139 0c169,0 254,-97 254,-246l0 -43z"/>
   <path class="fil9" d="M14635 5911c0,22 4,46 5,61l-1 0 -189 -390c-10,-20 -24,-29 -40,-29 -28,0 -40,19 -40,39l0 527c0,20 11,38 40,38 26,0 37,-18 37,-38l0 -319c0,-23 -3,-46 -5,-61l1 0 190 390c10,20 23,28 39,28 29,0 40,-18 40,-38l0 -527c0,-20 -10,-39 -39,-39 -27,0 -38,19 -38,39l0 319zm213 -181c-26,0 -32,-14 -32,-38l0 -41c0,-24 6,-38 32,-38l12 0c25,0 32,14 32,38l0 41c0,24 -7,38 -32,38l-12 0zm13 56c58,0 85,-38 85,-89l0 -51c0,-51 -27,-89 -85,-89l-14 0c-58,0 -86,38 -86,89l0 51c0,51 28,89 86,89l14 0zm58 99c17,0 30,-8 30,-30 0,-22 -13,-30 -30,-30l-129 0c-18,0 -31,8 -31,30 0,22 13,30 31,30l129 0z"/>
   <path class="fil15" d="M16996 3951c-2,-76 41,-140 96,-142 55,-3 101,56 103,133 17,644 292,1034 583,1446l0 0 1 0c2,3 3,6 5,9 153,217 245,423 227,593 -20,191 -150,311 -438,319l0 -277c165,-3 236,-33 240,-81 8,-74 -61,-204 -172,-362 -1,-2 -2,-4 -4,-6l0 0 0 0 -1 -1 0 -1c-319,-451 -621,-877 -640,-1630z"/>
   <path class="fil16" d="M17202 3807c59,0 107,93 107,206 0,114 -48,206 -107,206 -59,0 -106,-92 -106,-206 0,-113 47,-206 106,-206z"/>
   <path class="fil17 str8" d="M7064 10077l0 5728c-1555,0 -2597,0 -4153,0l0 -5728 4153 0z"/>
   <path class="fil18" d="M2911 10077l4153 0 0 2370 -4153 -1973c8,-204 0,-261 0,-397z"/>
   <g>
    <path class="fil19" d="M4050 12323c0,27 17,59 46,71 -2,5 -5,9 -9,19 0,0 -30,68 -34,76 -3,8 -1,19 11,23 12,5 19,-1 23,-10 4,-9 45,-103 45,-103l49 0 0 97c0,9 5,18 18,18 12,0 18,-9 18,-18l0 -237c0,-9 -6,-18 -18,-18l-74 0c-49,0 -75,31 -75,71l0 11zm73 42c-26,0 -37,-19 -37,-42l0 -11c0,-21 11,-36 38,-36l57 0 0 89 -58 0zm351 145c7,0 15,0 20,-1l-22 38c-2,3 -2,6 -2,10 0,6 6,17 18,17 7,0 12,-4 16,-10l36 -63c1,-2 2,-5 2,-8 0,-13 -8,-18 -17,-18l-15 0 0 -220c0,-9 -6,-18 -18,-18 -13,0 -19,9 -19,18l0 220 -64 0 0 -220c0,-10 -6,-18 -17,-18 -11,0 -17,9 -17,18l0 220 -64 0 0 -220c0,-9 -5,-18 -18,-18 -13,0 -18,9 -18,18l0 237c0,10 5,18 18,18l181 0zm243 -14c0,9 5,18 17,18 13,0 18,-9 18,-18l0 -241c0,-9 -5,-18 -18,-18 -8,0 -13,3 -18,13l-103 183 0 0c1,-7 1,-16 1,-26l0 -152c0,-9 -5,-18 -17,-18 -13,0 -18,9 -18,18l0 241c0,9 5,18 18,18 8,0 13,-3 18,-13l103 -183 0 0c0,7 -1,16 -1,27l0 151zm265 -11l-83 -117 79 -101c6,-9 6,-19 -1,-26 -9,-8 -21,-4 -27,4l-81 109 -23 0 0 -99c0,-9 -5,-18 -17,-18 -13,0 -19,9 -19,18l0 241c0,9 6,18 19,18 12,0 17,-9 17,-18l0 -107 24 0 82 117c5,8 15,12 25,5 11,-8 10,-18 5,-26zm370 -84c0,10 1,21 2,28l0 0 -87 -179c-5,-9 -11,-13 -18,-13 -13,0 -19,9 -19,18l0 241c0,9 5,18 19,18 12,0 17,-9 17,-18l0 -146c0,-10 -2,-21 -3,-28l1 0 87 179c4,9 10,13 18,13 13,0 18,-9 18,-18l0 -241c0,-9 -5,-18 -18,-18 -12,0 -17,9 -17,18l0 146zm97 -83c-12,0 -15,-6 -15,-17l0 -19c0,-11 3,-17 15,-17l6 0c11,0 14,6 14,17l0 19c0,11 -3,17 -14,17l-6 0zm6 26c27,0 39,-18 39,-41l0 -23c0,-23 -12,-41 -39,-41l-6 0c-27,0 -40,18 -40,41l0 23c0,23 13,41 40,41l6 0zm27 45c8,0 13,-3 13,-13 0,-10 -5,-14 -13,-14l-60 0c-8,0 -14,4 -14,14 0,10 6,13 14,13l60 0zm139 -152l-139 152 139 -152z"/>
    <path id="1" class="fil14 str9" d="M4050 12323c0,27 17,59 46,71 -2,5 -5,9 -9,19 0,0 -30,68 -34,76 -3,8 -1,19 11,23 12,5 19,-1 23,-10 4,-9 45,-103 45,-103l49 0 0 97c0,9 5,18 18,18 12,0 18,-9 18,-18l0 -237c0,-9 -6,-18 -18,-18l-74 0c-49,0 -75,31 -75,71l0 11zm73 42c-26,0 -37,-19 -37,-42l0 -11c0,-21 11,-36 38,-36l57 0 0 89 -58 0zm351 145c7,0 15,0 20,-1l-22 38c-2,3 -2,6 -2,10 0,6 6,17 18,17 7,0 12,-4 16,-10l36 -63c1,-2 2,-5 2,-8 0,-13 -8,-18 -17,-18l-15 0 0 -220c0,-9 -6,-18 -18,-18 -13,0 -19,9 -19,18l0 220 -64 0 0 -220c0,-10 -6,-18 -17,-18 -11,0 -17,9 -17,18l0 220 -64 0 0 -220c0,-9 -5,-18 -18,-18 -13,0 -18,9 -18,18l0 237c0,10 5,18 18,18l181 0zm243 -14c0,9 5,18 17,18 13,0 18,-9 18,-18l0 -241c0,-9 -5,-18 -18,-18 -8,0 -13,3 -18,13l-103 183 0 0c1,-7 1,-16 1,-26l0 -152c0,-9 -5,-18 -17,-18 -13,0 -18,9 -18,18l0 241c0,9 5,18 18,18 8,0 13,-3 18,-13l103 -183 0 0c0,7 -1,16 -1,27l0 151zm265 -11l-83 -117 79 -101c6,-9 6,-19 -1,-26 -9,-8 -21,-4 -27,4l-81 109 -23 0 0 -99c0,-9 -5,-18 -17,-18 -13,0 -19,9 -19,18l0 241c0,9 6,18 19,18 12,0 17,-9 17,-18l0 -107 24 0 82 117c5,8 15,12 25,5 11,-8 10,-18 5,-26zm370 -84c0,10 1,21 2,28l0 0 -87 -179c-5,-9 -11,-13 -18,-13 -13,0 -19,9 -19,18l0 241c0,9 5,18 19,18 12,0 17,-9 17,-18l0 -146c0,-10 -2,-21 -3,-28l1 0 87 179c4,9 10,13 18,13 13,0 18,-9 18,-18l0 -241c0,-9 -5,-18 -18,-18 -12,0 -17,9 -17,18l0 146zm97 -83c-12,0 -15,-6 -15,-17l0 -19c0,-11 3,-17 15,-17l6 0c11,0 14,6 14,17l0 19c0,11 -3,17 -14,17l-6 0zm6 26c27,0 39,-18 39,-41l0 -23c0,-23 -12,-41 -39,-41l-6 0c-27,0 -40,18 -40,41l0 23c0,23 13,41 40,41l6 0zm27 45c8,0 13,-3 13,-13 0,-10 -5,-14 -13,-14l-60 0c-8,0 -14,4 -14,14 0,10 6,13 14,13l60 0zm139 -152l-139 152"/>
   </g>
   <path class="fil20 str10" d="M4580 11376l35 116c6,16 20,26 37,20 17,-6 24,-22 19,-38l-129 -416c-4,-14 -12,-22 -30,-22l-3 0c-18,0 -26,8 -30,22l-129 416c-5,16 2,32 19,38 17,6 31,-4 37,-20l35 -116 139 0zm-79 -200c4,-15 6,-22 9,-38l1 0c3,16 5,23 9,38l44 144 -107 0 44 -144zm512 288l-137 -202 130 -176c12,-15 12,-32 -1,-44 -15,-14 -34,-7 -44,7l-134 189 -39 0 0 -172c0,-16 -9,-30 -29,-30 -22,0 -31,14 -31,30l0 417c0,16 9,31 31,31 20,0 29,-15 29,-31l0 -185 39 0 137 202c9,14 25,21 42,9 18,-13 16,-31 7,-45zm186 50c21,0 30,-15 30,-31l0 -381 93 0c15,0 28,-8 28,-30 0,-20 -13,-30 -28,-30l-246 0c-15,0 -28,10 -28,30 0,22 13,30 28,30l93 0 0 381c0,16 9,31 30,31z"/>
   <g>
    <path class="fil19" d="M3359 12057c-29,0 -52,-22 -52,-50 0,-27 23,-49 52,-49l0 99zm3257 0l-3257 0 0 -99 3257 0 0 99zm0 -99c29,0 53,22 53,49 0,28 -24,50 -53,50l0 -99z"/>
   </g>
   <g>
    <path class="fil19" d="M3397 14830c-25,0 -46,-22 -46,-49 0,-27 21,-49 46,-49l0 98zm1707 0l-1707 0 0 -98 1707 0 0 98zm0 -98c25,0 45,22 45,49 0,27 -20,49 -45,49l0 -98zm-1707 -752c-25,0 -46,-22 -46,-49 0,-27 21,-50 46,-50l0 99zm2402 0l-2402 0 0 -99 2402 0 0 99zm0 -99c25,0 46,23 46,50 0,27 -21,49 -46,49l0 -99zm-2402 383c-25,0 -46,-22 -46,-50 0,-27 21,-49 46,-49l0 99zm3234 0l-3234 0 0 -99 3234 0 0 99zm0 -99c25,0 45,22 45,49 0,28 -20,50 -45,50l0 -99zm-3234 382c-25,0 -46,-22 -46,-49 0,-28 21,-50 46,-50l0 99zm3234 0l-3234 0 0 -99 3234 0 0 99zm0 -99c25,0 45,22 45,50 0,27 -20,49 -45,49l0 -99z"/>
   </g>
   <path class="fil21 str11" d="M3380 12888c-9,0 -16,4 -22,10 -30,35 -63,70 -99,104 -11,11 -15,25 -1,41 14,14 27,9 38,-1 22,-20 45,-44 64,-68l0 315 -77 0c-15,0 -28,8 -28,29 0,21 13,29 28,29l199 0c15,0 27,-8 27,-29 0,-21 -12,-29 -27,-29l-65 0 0 -371c0,-16 -5,-30 -26,-30l-11 0zm250 162c0,-64 23,-104 71,-104l22 0c48,0 70,40 70,104l0 141c0,65 -22,105 -70,105l-22 0c-48,0 -71,-40 -71,-105l0 -141zm221 0c0,-99 -44,-162 -128,-162l-22 0c-85,0 -129,63 -129,162l0 141c0,99 44,163 129,163l22 0c84,0 128,-64 128,-163l0 -141z"/>
   <path class="fil21 str12" d="M4228 13326c0,12 6,22 20,22 15,0 21,-10 21,-22l0 -298c0,-12 -6,-22 -22,-22 -8,0 -14,3 -21,16l-119 226 -1 0c1,-8 2,-20 2,-32l0 -188c0,-12 -6,-22 -20,-22 -15,0 -21,10 -21,22l0 298c0,12 6,22 21,22 9,0 15,-3 22,-16l119 -226 1 0c-1,8 -2,20 -2,33l0 187zm760 0c0,12 6,22 20,22 16,0 21,-10 21,-22l0 -298c0,-12 -6,-22 -21,-22 -9,0 -14,3 -21,16l-120 226 0 0c1,-8 2,-20 2,-32l0 -188c0,-12 -6,-22 -21,-22 -15,0 -21,10 -21,22l0 298c0,12 7,22 22,22 8,0 14,-3 21,-16l119 -226 1 0c-1,8 -2,20 -2,33l0 187zm-520 -233c0,29 -19,56 -49,56l-17 0c-10,0 -19,7 -19,21 0,15 9,20 19,20l34 0c30,0 43,27 43,56l0 11c0,29 -10,49 -44,49l-33 0c-18,0 -35,-9 -36,-29 -1,-11 -7,-21 -21,-21 -15,0 -21,10 -21,21 0,46 31,71 77,71l37 0c54,0 83,-39 83,-91l0 -11c0,-40 -18,-74 -52,-83 30,-14 41,-41 41,-70 0,-52 -24,-87 -84,-87l-20 0c-45,0 -76,24 -76,71 0,11 6,22 21,22 15,0 20,-11 21,-22 1,-19 19,-28 38,-28l16 0c30,0 42,13 42,44zm214 49l-65 0 0 -89 115 0c10,0 19,-6 19,-21 0,-14 -9,-21 -19,-21l-135 0c-15,0 -22,10 -22,22l0 289c0,11 7,22 22,22l85 0c58,0 86,-40 86,-93l0 -21c0,-53 -28,-88 -86,-88zm44 114c0,29 -12,45 -43,45l-66 0 0 -119 65 0c31,0 44,17 44,46l0 28zm414 -85l0 -118 69 0c31,0 44,17 44,45l0 24c0,29 -13,49 -44,49l-69 0zm69 43c58,0 86,-40 86,-92l0 -24c0,-53 -28,-87 -86,-87l-91 0c-14,0 -20,10 -20,22l0 293c0,12 6,22 21,22 14,0 21,-10 21,-22l0 -112 69 0zm263 36l25 83c4,12 14,18 26,14 12,-4 17,-16 13,-27l-90 -298c-3,-10 -9,-16 -21,-16l-3 0c-12,0 -17,6 -21,16l-90 298c-3,11 1,23 13,27 12,4 23,-2 26,-14l25 -83 97 0zm-55 -144c3,-10 4,-15 6,-27l1 0c2,12 3,17 7,27l30 104 -75 0 31 -104zm217 242c15,0 22,-10 22,-22l0 -273 65 0c10,0 20,-6 20,-21 0,-14 -10,-21 -20,-21l-173 0c-10,0 -20,7 -20,21 0,15 10,21 20,21l65 0 0 273c0,12 7,22 21,22zm321 -4c10,0 19,-7 19,-22 0,-14 -9,-21 -19,-21l-123 0 0 -107 101 0c11,0 20,-6 20,-22 0,-14 -9,-21 -20,-21l-101 0 0 -98 123 0c10,0 19,-6 19,-21 0,-14 -9,-21 -19,-21l-144 0c-15,0 -21,10 -21,22l0 289c0,11 6,22 21,22l144 0zm132 -60c3,-27 27,-231 27,-231l78 0 0 273c0,12 6,22 22,22 14,0 20,-10 20,-22l0 -293c0,-12 -6,-22 -20,-22l-117 0c-13,0 -20,9 -22,22 -1,13 -25,221 -28,240 -1,11 -2,18 -5,23 -4,9 -12,11 -25,11 -11,0 -21,7 -21,22 0,16 10,22 21,22 39,0 55,-14 64,-37 3,-9 5,-18 6,-30zm380 60c10,0 20,-7 20,-22 0,-14 -10,-21 -20,-21l-123 0 0 -107 102 0c10,0 19,-6 19,-22 0,-14 -9,-21 -19,-21l-102 0 0 -98 123 0c10,0 20,-6 20,-21 0,-14 -10,-21 -20,-21l-144 0c-14,0 -21,10 -21,22l0 289c0,11 7,22 21,22l144 0zm172 -363c41,0 62,-31 62,-64 0,-10 -7,-17 -16,-17 -10,0 -16,7 -17,17 -1,18 -12,31 -29,31 -17,0 -28,-13 -29,-31 -1,-10 -7,-17 -17,-17 -9,0 -16,7 -16,17 0,33 21,64 62,64zm59 345c0,12 6,22 20,22 15,0 21,-10 21,-22l0 -298c0,-12 -6,-22 -22,-22 -8,0 -14,3 -21,16l-119 226 -1 0c1,-8 2,-20 2,-32l0 -188c0,-12 -6,-22 -20,-22 -15,0 -21,10 -21,22l0 298c0,12 6,22 21,22 9,0 15,-3 21,-16l120 -226 0 0c0,8 -1,20 -1,33l0 187z"/>
   <path class="fil14 str13" d="M7064 10077l0 5728c-1555,0 -2597,0 -4153,0l0 -5728 4153 0z"/>
   <path class="fil14 str14" d="M5812 14785c-352,1222 -112,529 -275,420 -163,-108 594,-524 544,-190 -49,334 -594,254 -579,324 15,71 228,119 292,-59 65,-179 -29,139 139,84 168,-55 237,-213 210,-124 -27,89 20,74 109,20 89,-55 190,-112 190,-112"/>
   <g>
    <path class="fil19" d="M3359 12503c-29,0 -52,-22 -52,-49 0,-27 23,-49 52,-49l0 98zm445 0l-445 0 0 -98 445 0 0 98zm0 -98c29,0 53,22 53,49 0,27 -24,49 -53,49l0 -98z"/>
   </g>
   <path class="fil17 str8" d="M12286 10077l0 5728c-1555,0 -2597,0 -4152,0l0 -5728 4152 0z"/>
   <path class="fil18" d="M8134 10077l4152 0 0 2370 -4152 -1973c7,-204 0,-261 0,-397z"/>
   <g>
    <path class="fil19" d="M9273 12323c0,27 16,59 46,71 -3,5 -5,9 -9,19 0,0 -30,68 -34,76 -3,8 -1,19 10,23 12,5 20,-1 24,-10 4,-9 44,-103 44,-103l49 0 0 97c0,9 6,18 18,18 13,0 18,-9 18,-18l0 -237c0,-9 -5,-18 -18,-18l-73 0c-49,0 -75,31 -75,71l0 11zm73 42c-27,0 -37,-19 -37,-42l0 -11c0,-21 11,-36 38,-36l56 0 0 89 -57 0zm351 145c7,0 14,0 20,-1l-22 38c-2,3 -3,6 -3,10 0,6 7,17 19,17 7,0 12,-4 15,-10l37 -63c1,-2 2,-5 2,-8 0,-13 -8,-18 -17,-18l-16 0 0 -220c0,-9 -5,-18 -17,-18 -14,0 -19,9 -19,18l0 220 -64 0 0 -220c0,-10 -6,-18 -18,-18 -10,0 -16,9 -16,18l0 220 -64 0 0 -220c0,-9 -6,-18 -19,-18 -12,0 -17,9 -17,18l0 237c0,10 5,18 17,18l182 0zm242 -14c0,9 5,18 18,18 13,0 18,-9 18,-18l0 -241c0,-9 -6,-18 -19,-18 -7,0 -12,3 -18,13l-102 183 -1 0c1,-7 2,-16 2,-26l0 -152c0,-9 -5,-18 -17,-18 -13,0 -18,9 -18,18l0 241c0,9 5,18 18,18 7,0 12,-3 18,-13l103 -183 0 0c-1,7 -2,16 -2,27l0 151zm265 -11l-82 -117 78 -101c7,-9 7,-19 -1,-26 -9,-8 -20,-4 -26,4l-81 109 -23 0 0 -99c0,-9 -6,-18 -18,-18 -13,0 -18,9 -18,18l0 241c0,9 5,18 18,18 12,0 18,-9 18,-18l0 -107 23 0 83 117c5,8 14,12 25,5 11,-8 10,-18 4,-26zm370 -84c0,10 2,21 3,28l-1 0 -86 -179c-5,-9 -11,-13 -18,-13 -14,0 -19,9 -19,18l0 241c0,9 5,18 18,18 12,0 17,-9 17,-18l0 -146c0,-10 -1,-21 -2,-28l1 0 86 179c5,9 11,13 18,13 13,0 19,-9 19,-18l0 -241c0,-9 -5,-18 -18,-18 -13,0 -18,9 -18,18l0 146zm98 -83c-12,0 -15,-6 -15,-17l0 -19c0,-11 3,-17 15,-17l5 0c12,0 15,6 15,17l0 19c0,11 -3,17 -15,17l-5 0zm6 26c26,0 39,-18 39,-41l0 -23c0,-23 -13,-41 -39,-41l-7 0c-26,0 -39,18 -39,41l0 23c0,23 13,41 39,41l7 0zm26 45c8,0 14,-3 14,-13 0,-10 -6,-14 -14,-14l-59 0c-8,0 -14,4 -14,14 0,10 6,13 14,13l59 0zm140 -152l-140 152 140 -152z"/>
    <path id="1" class="fil14 str9" d="M9273 12323c0,27 16,59 46,71 -3,5 -5,9 -9,19 0,0 -30,68 -34,76 -3,8 -1,19 10,23 12,5 20,-1 24,-10 4,-9 44,-103 44,-103l49 0 0 97c0,9 6,18 18,18 13,0 18,-9 18,-18l0 -237c0,-9 -5,-18 -18,-18l-73 0c-49,0 -75,31 -75,71l0 11zm73 42c-27,0 -37,-19 -37,-42l0 -11c0,-21 11,-36 38,-36l56 0 0 89 -57 0zm351 145c7,0 14,0 20,-1l-22 38c-2,3 -3,6 -3,10 0,6 7,17 19,17 7,0 12,-4 15,-10l37 -63c1,-2 2,-5 2,-8 0,-13 -8,-18 -17,-18l-16 0 0 -220c0,-9 -5,-18 -17,-18 -14,0 -19,9 -19,18l0 220 -64 0 0 -220c0,-10 -6,-18 -18,-18 -10,0 -16,9 -16,18l0 220 -64 0 0 -220c0,-9 -6,-18 -19,-18 -12,0 -17,9 -17,18l0 237c0,10 5,18 17,18l182 0zm242 -14c0,9 5,18 18,18 13,0 18,-9 18,-18l0 -241c0,-9 -6,-18 -19,-18 -7,0 -12,3 -18,13l-102 183 -1 0c1,-7 2,-16 2,-26l0 -152c0,-9 -5,-18 -17,-18 -13,0 -18,9 -18,18l0 241c0,9 5,18 18,18 7,0 12,-3 18,-13l103 -183 0 0c-1,7 -2,16 -2,27l0 151zm265 -11l-82 -117 78 -101c7,-9 7,-19 -1,-26 -9,-8 -20,-4 -26,4l-81 109 -23 0 0 -99c0,-9 -6,-18 -18,-18 -13,0 -18,9 -18,18l0 241c0,9 5,18 18,18 12,0 18,-9 18,-18l0 -107 23 0 83 117c5,8 14,12 25,5 11,-8 10,-18 4,-26zm370 -84c0,10 2,21 3,28l-1 0 -86 -179c-5,-9 -11,-13 -18,-13 -14,0 -19,9 -19,18l0 241c0,9 5,18 18,18 12,0 17,-9 17,-18l0 -146c0,-10 -1,-21 -2,-28l1 0 86 179c5,9 11,13 18,13 13,0 19,-9 19,-18l0 -241c0,-9 -5,-18 -18,-18 -13,0 -18,9 -18,18l0 146zm98 -83c-12,0 -15,-6 -15,-17l0 -19c0,-11 3,-17 15,-17l5 0c12,0 15,6 15,17l0 19c0,11 -3,17 -15,17l-5 0zm6 26c26,0 39,-18 39,-41l0 -23c0,-23 -13,-41 -39,-41l-7 0c-26,0 -39,18 -39,41l0 23c0,23 13,41 39,41l7 0zm26 45c8,0 14,-3 14,-13 0,-10 -6,-14 -14,-14l-59 0c-8,0 -14,4 -14,14 0,10 6,13 14,13l59 0zm140 -152l-140 152"/>
   </g>
   <path class="fil20 str10" d="M9802 11376l36 116c5,16 20,26 37,20 17,-6 24,-22 19,-38l-129 -416c-5,-14 -12,-22 -30,-22l-3 0c-18,0 -26,8 -30,22l-129 416c-5,16 2,32 18,38 17,6 32,-4 37,-20l36 -116 138 0zm-79 -200c5,-15 7,-22 10,-38l0 0c4,16 6,23 10,38l43 144 -106 0 43 -144zm513 288l-137 -202 130 -176c12,-15 12,-32 -1,-44 -15,-14 -34,-7 -45,7l-134 189 -38 0 0 -172c0,-16 -9,-30 -29,-30 -22,0 -31,14 -31,30l0 417c0,16 9,31 31,31 20,0 29,-15 29,-31l0 -185 39 0 137 202c8,14 24,21 41,9 18,-13 17,-31 8,-45zm186 50c21,0 30,-15 30,-31l0 -381 93 0c15,0 28,-8 28,-30 0,-20 -13,-30 -28,-30l-246 0c-15,0 -28,10 -28,30 0,22 13,30 28,30l93 0 0 381c0,16 9,31 30,31z"/>
   <g>
    <path class="fil19" d="M8582 12057c-29,0 -53,-22 -53,-50 0,-27 24,-49 53,-49l0 99zm3256 0l-3256 0 0 -99 3256 0 0 99zm0 -99c30,0 53,22 53,49 0,28 -23,50 -53,50l0 -99z"/>
   </g>
   <g>
    <path class="fil19" d="M8619 14830c-25,0 -45,-22 -45,-49 0,-27 20,-49 45,-49l0 98zm1707 0l-1707 0 0 -98 1707 0 0 98zm0 -98c25,0 46,22 46,49 0,27 -21,49 -46,49l0 -98zm-1707 -752c-25,0 -45,-22 -45,-49 0,-27 20,-50 45,-50l0 99zm2403 0l-2403 0 0 -99 2403 0 0 99zm0 -99c25,0 45,23 45,50 0,27 -20,49 -45,49l0 -99zm-2403 383c-25,0 -45,-22 -45,-50 0,-27 20,-49 45,-49l0 99zm3234 0l-3234 0 0 -99 3234 0 0 99zm0 -99c25,0 46,22 46,49 0,28 -21,50 -46,50l0 -99zm-3234 382c-25,0 -45,-22 -45,-49 0,-28 20,-50 45,-50l0 99zm3234 0l-3234 0 0 -99 3234 0 0 99zm0 -99c25,0 46,22 46,50 0,27 -21,49 -46,49l0 -99z"/>
   </g>
   <path class="fil21 str11" d="M8831 13323c0,17 8,31 29,31 21,0 29,-14 29,-31l0 -55c0,-91 17,-147 60,-220l63 -108c16,-26 5,-46 -23,-46l-229 0c-15,0 -27,9 -27,30 0,20 12,29 27,29l181 0 -40 63c-55,89 -70,148 -70,252l0 55z"/>
   <path class="fil14 str13" d="M12286 10077l0 5728c-1555,0 -2597,0 -4152,0l0 -5728 4152 0z"/>
   <path class="fil14 str14" d="M11034 14785c-351,1222 -111,529 -274,420 -164,-108 594,-524 544,-190 -50,334 -594,254 -579,324 15,71 228,119 292,-59 64,-179 -29,139 139,84 168,-55 237,-213 210,-124 -28,89 20,74 109,20 89,-55 190,-112 190,-112"/>
   <g>
    <path class="fil19" d="M8582 12503c-29,0 -53,-22 -53,-49 0,-27 24,-49 53,-49l0 98zm445 0l-445 0 0 -98 445 0 0 98zm0 -98c29,0 52,22 52,49 0,27 -23,49 -52,49l0 -98z"/>
   </g>
   <path class="fil17 str8" d="M17509 10077l0 5728c-1555,0 -2597,0 -4152,0l0 -5728 4152 0z"/>
   <path class="fil18" d="M13357 10077l4152 0 0 2370 -4152 -1973c7,-204 0,-261 0,-397z"/>
   <g>
    <path class="fil19" d="M14496 12323c0,27 16,59 46,71 -3,5 -5,9 -9,19 0,0 -30,68 -34,76 -4,8 -1,19 10,23 12,5 20,-1 24,-10 3,-9 44,-103 44,-103l49 0 0 97c0,9 5,18 18,18 13,0 18,-9 18,-18l0 -237c0,-9 -5,-18 -18,-18l-74 0c-49,0 -74,31 -74,71l0 11zm73 42c-27,0 -37,-19 -37,-42l0 -11c0,-21 11,-36 38,-36l56 0 0 89 -57 0zm350 145c7,0 15,0 20,-1l-21 38c-2,3 -3,6 -3,10 0,6 6,17 19,17 6,0 12,-4 15,-10l37 -63c1,-2 1,-5 1,-8 0,-13 -8,-18 -16,-18l-16 0 0 -220c0,-9 -6,-18 -18,-18 -13,0 -18,9 -18,18l0 220 -64 0 0 -220c0,-10 -7,-18 -18,-18 -11,0 -17,9 -17,18l0 220 -64 0 0 -220c0,-9 -5,-18 -18,-18 -12,0 -18,9 -18,18l0 237c0,10 6,18 18,18l181 0zm243 -14c0,9 5,18 17,18 13,0 18,-9 18,-18l0 -241c0,-9 -5,-18 -18,-18 -7,0 -12,3 -18,13l-103 183 0 0c1,-7 2,-16 2,-26l0 -152c0,-9 -5,-18 -18,-18 -13,0 -18,9 -18,18l0 241c0,9 6,18 19,18 7,0 12,-3 18,-13l102 -183 1 0c-1,7 -2,16 -2,27l0 151zm265 -11l-83 -117 79 -101c7,-9 7,-19 -1,-26 -9,-8 -20,-4 -27,4l-80 109 -24 0 0 -99c0,-9 -5,-18 -17,-18 -13,0 -19,9 -19,18l0 241c0,9 6,18 19,18 12,0 17,-9 17,-18l0 -107 24 0 82 117c5,8 15,12 25,5 11,-8 10,-18 5,-26zm370 -84c0,10 2,21 2,28l0 0 -87 -179c-4,-9 -11,-13 -18,-13 -13,0 -18,9 -18,18l0 241c0,9 5,18 18,18 12,0 17,-9 17,-18l0 -146c0,-10 -1,-21 -2,-28l0 0 87 179c5,9 11,13 18,13 13,0 18,-9 18,-18l0 -241c0,-9 -5,-18 -18,-18 -12,0 -17,9 -17,18l0 146zm97 -83c-11,0 -14,-6 -14,-17l0 -19c0,-11 3,-17 14,-17l6 0c11,0 15,6 15,17l0 19c0,11 -4,17 -15,17l-6 0zm6 26c27,0 39,-18 39,-41l0 -23c0,-23 -12,-41 -39,-41l-6 0c-27,0 -39,18 -39,41l0 23c0,23 12,41 39,41l6 0zm27 45c8,0 14,-3 14,-13 0,-10 -6,-14 -14,-14l-59 0c-8,0 -15,4 -15,14 0,10 7,13 15,13l59 0zm139 -152l-139 152 139 -152z"/>
    <path id="1" class="fil14 str9" d="M14496 12323c0,27 16,59 46,71 -3,5 -5,9 -9,19 0,0 -30,68 -34,76 -4,8 -1,19 10,23 12,5 20,-1 24,-10 3,-9 44,-103 44,-103l49 0 0 97c0,9 5,18 18,18 13,0 18,-9 18,-18l0 -237c0,-9 -5,-18 -18,-18l-74 0c-49,0 -74,31 -74,71l0 11zm73 42c-27,0 -37,-19 -37,-42l0 -11c0,-21 11,-36 38,-36l56 0 0 89 -57 0zm350 145c7,0 15,0 20,-1l-21 38c-2,3 -3,6 -3,10 0,6 6,17 19,17 6,0 12,-4 15,-10l37 -63c1,-2 1,-5 1,-8 0,-13 -8,-18 -16,-18l-16 0 0 -220c0,-9 -6,-18 -18,-18 -13,0 -18,9 -18,18l0 220 -64 0 0 -220c0,-10 -7,-18 -18,-18 -11,0 -17,9 -17,18l0 220 -64 0 0 -220c0,-9 -5,-18 -18,-18 -12,0 -18,9 -18,18l0 237c0,10 6,18 18,18l181 0zm243 -14c0,9 5,18 17,18 13,0 18,-9 18,-18l0 -241c0,-9 -5,-18 -18,-18 -7,0 -12,3 -18,13l-103 183 0 0c1,-7 2,-16 2,-26l0 -152c0,-9 -5,-18 -18,-18 -13,0 -18,9 -18,18l0 241c0,9 6,18 19,18 7,0 12,-3 18,-13l102 -183 1 0c-1,7 -2,16 -2,27l0 151zm265 -11l-83 -117 79 -101c7,-9 7,-19 -1,-26 -9,-8 -20,-4 -27,4l-80 109 -24 0 0 -99c0,-9 -5,-18 -17,-18 -13,0 -19,9 -19,18l0 241c0,9 6,18 19,18 12,0 17,-9 17,-18l0 -107 24 0 82 117c5,8 15,12 25,5 11,-8 10,-18 5,-26zm370 -84c0,10 2,21 2,28l0 0 -87 -179c-4,-9 -11,-13 -18,-13 -13,0 -18,9 -18,18l0 241c0,9 5,18 18,18 12,0 17,-9 17,-18l0 -146c0,-10 -1,-21 -2,-28l0 0 87 179c5,9 11,13 18,13 13,0 18,-9 18,-18l0 -241c0,-9 -5,-18 -18,-18 -12,0 -17,9 -17,18l0 146zm97 -83c-11,0 -14,-6 -14,-17l0 -19c0,-11 3,-17 14,-17l6 0c11,0 15,6 15,17l0 19c0,11 -4,17 -15,17l-6 0zm6 26c27,0 39,-18 39,-41l0 -23c0,-23 -12,-41 -39,-41l-6 0c-27,0 -39,18 -39,41l0 23c0,23 12,41 39,41l6 0zm27 45c8,0 14,-3 14,-13 0,-10 -6,-14 -14,-14l-59 0c-8,0 -15,4 -15,14 0,10 7,13 15,13l59 0zm139 -152l-139 152"/>
   </g>
   <path class="fil20 str10" d="M15025 11376l36 116c5,16 19,26 37,20 16,-6 23,-22 18,-38l-129 -416c-4,-14 -12,-22 -30,-22l-3 0c-18,0 -25,8 -30,22l-129 416c-5,16 2,32 19,38 17,6 32,-4 37,-20l36 -116 138 0zm-79 -200c4,-15 6,-22 9,-38l1 0c3,16 5,23 10,38l43 144 -106 0 43 -144zm513 288l-137 -202 130 -176c11,-15 11,-32 -2,-44 -15,-14 -33,-7 -44,7l-134 189 -38 0 0 -172c0,-16 -9,-30 -30,-30 -21,0 -30,14 -30,30l0 417c0,16 9,31 30,31 21,0 30,-15 30,-31l0 -185 38 0 138 202c8,14 24,21 41,9 18,-13 17,-31 8,-45zm185 50c21,0 30,-15 30,-31l0 -381 93 0c15,0 29,-8 29,-30 0,-20 -14,-30 -29,-30l-246 0c-14,0 -28,10 -28,30 0,22 14,30 28,30l93 0 0 381c0,16 9,31 30,31z"/>
   <g>
    <path class="fil19" d="M13805 12057c-29,0 -53,-22 -53,-50 0,-27 24,-49 53,-49l0 99zm3256 0l-3256 0 0 -99 3256 0 0 99zm0 -99c29,0 53,22 53,49 0,28 -24,50 -53,50l0 -99z"/>
   </g>
   <g>
    <path class="fil19" d="M13842 14830c-25,0 -45,-22 -45,-49 0,-27 20,-49 45,-49l0 98zm1707 0l-1707 0 0 -98 1707 0 0 98zm0 -98c25,0 45,22 45,49 0,27 -20,49 -45,49l0 -98zm-1707 -752c-25,0 -45,-22 -45,-49 0,-27 20,-50 45,-50l0 99zm2402 0l-2402 0 0 -99 2402 0 0 99zm0 -99c26,0 46,23 46,50 0,27 -20,49 -46,49l0 -99zm-2402 383c-25,0 -45,-22 -45,-50 0,-27 20,-49 45,-49l0 99zm3234 0l-3234 0 0 -99 3234 0 0 99zm0 -99c25,0 45,22 45,49 0,28 -20,50 -45,50l0 -99zm-3234 382c-25,0 -45,-22 -45,-49 0,-28 20,-50 45,-50l0 99zm3234 0l-3234 0 0 -99 3234 0 0 99zm0 -99c25,0 45,22 45,50 0,27 -20,49 -45,49l0 -99z"/>
   </g>
   <path class="fil21 str11" d="M14108 13351c97,-61 128,-143 128,-245l0 -96c0,-74 -40,-122 -119,-122l-36 0c-80,0 -119,45 -119,119l0 32c0,74 39,126 119,126l93 0c-8,53 -36,96 -98,135 -13,8 -22,25 -11,43 11,19 29,17 43,8zm9 -405c43,0 62,23 62,64l0 97 -98 0c-43,0 -62,-26 -62,-68l0 -32c0,-41 19,-61 62,-61l36 0z"/>
   <path class="fil14 str13" d="M17509 10077l0 5728c-1555,0 -2597,0 -4152,0l0 -5728 4152 0z"/>
   <path class="fil14 str14" d="M16257 14785c-351,1222 -111,529 -275,420 -163,-108 594,-524 545,-190 -50,334 -594,254 -579,324 15,71 227,119 292,-59 64,-179 -30,139 138,84 168,-55 238,-213 210,-124 -27,89 20,74 109,20 89,-55 191,-112 191,-112"/>
   <g>
    <path class="fil19" d="M13805 12503c-29,0 -53,-22 -53,-49 0,-27 24,-49 53,-49l0 98zm444 0l-444 0 0 -98 444 0 0 98zm0 -98c29,0 53,22 53,49 0,27 -24,49 -53,49l0 -98z"/>
   </g>
   <path class="fil19 str9" d="M5666 12226c-6,0 -11,3 -14,7 -20,22 -42,44 -66,65 -7,7 -10,15 0,25 9,9 17,6 24,0 15,-12 30,-28 43,-43l0 197 -51 0c-10,0 -18,6 -18,19 0,13 8,18 18,18l131 0c10,0 18,-5 18,-18 0,-13 -8,-19 -18,-19l-42 0 0 -232c0,-10 -4,-19 -18,-19l-7 0z"/>
   <path class="fil19 str9" d="M10834 12445c0,-18 7,-33 20,-39l75 -33c36,-17 44,-45 44,-73l0 -1c0,-47 -26,-73 -79,-73l-24 0c-42,0 -68,18 -68,61 0,11 5,19 19,19 14,0 19,-8 19,-19 0,-17 12,-24 30,-24l24 0c29,0 41,11 41,36l0 1c0,20 -6,31 -22,39l-69 30c-33,14 -48,45 -48,80l0 65 163 0c10,0 18,-5 18,-18 0,-13 -8,-19 -18,-19l-125 0 0 -32z"/>
   <path class="fil19 str9" d="M16212 12428c0,-34 -13,-60 -43,-69 19,-11 30,-29 30,-55l0 -5c0,-47 -27,-73 -79,-73l-22 0c-42,0 -67,18 -67,61 0,11 5,19 19,19 13,0 19,-8 19,-19 0,-17 11,-24 29,-24l22 0c28,0 41,11 41,36l0 5c0,26 -15,44 -45,44l-23 0c-10,0 -18,5 -18,18 0,13 8,17 18,17l42 0c28,0 39,19 39,45l0 13c0,26 -12,40 -41,40l-43 0c-18,0 -29,-7 -29,-24 0,-10 -6,-19 -19,-19 -14,0 -20,9 -20,19 0,43 26,61 68,61l43 0c53,0 79,-30 79,-77l0 -13z"/>
   <path class="fil21 str12" d="M9370 13326c0,12 6,22 20,22 15,0 21,-10 21,-22l0 -298c0,-12 -6,-22 -21,-22 -9,0 -15,3 -21,16l-120 226 0 0c1,-8 1,-20 1,-32l0 -188c0,-12 -5,-22 -20,-22 -15,0 -21,10 -21,22l0 298c0,12 7,22 22,22 8,0 14,-3 21,-16l119 -226 1 0c-1,8 -2,20 -2,33l0 187zm760 0c0,12 6,22 21,22 15,0 21,-10 21,-22l0 -298c0,-12 -7,-22 -22,-22 -8,0 -14,3 -21,16l-119 226 -1 0c1,-8 2,-20 2,-32l0 -188c0,-12 -6,-22 -20,-22 -15,0 -21,10 -21,22l0 298c0,12 6,22 21,22 9,0 14,-3 21,-16l120 -226 0 0c-1,8 -2,20 -2,33l0 187zm-520 -233c0,29 -19,56 -49,56l-16 0c-11,0 -20,7 -20,21 0,15 9,20 20,20l33 0c31,0 43,27 43,56l0 11c0,29 -10,49 -44,49l-33 0c-18,0 -34,-9 -36,-29 -1,-11 -6,-21 -21,-21 -15,0 -21,10 -21,21 0,46 32,71 77,71l38 0c54,0 82,-39 82,-91l0 -11c0,-40 -18,-74 -52,-83 30,-14 41,-41 41,-70 0,-52 -24,-87 -84,-87l-19 0c-46,0 -77,24 -77,71 0,11 6,22 22,22 14,0 20,-11 20,-22 1,-19 19,-28 38,-28l16 0c30,0 42,13 42,44zm215 49l-65 0 0 -89 114 0c10,0 20,-6 20,-21 0,-14 -10,-21 -20,-21l-135 0c-15,0 -21,10 -21,22l0 289c0,11 6,22 21,22l86 0c57,0 86,-40 86,-93l0 -21c0,-53 -29,-88 -86,-88zm43 114c0,29 -12,45 -43,45l-65 0 0 -119 65 0c30,0 43,17 43,46l0 28zm414 -85l0 -118 70 0c31,0 44,17 44,45l0 24c0,29 -13,49 -44,49l-70 0zm70 43c58,0 86,-40 86,-92l0 -24c0,-53 -28,-87 -86,-87l-92 0c-14,0 -20,10 -20,22l0 293c0,12 6,22 21,22 15,0 21,-10 21,-22l0 -112 70 0zm262 36l26 83c3,12 13,18 26,14 11,-4 16,-16 13,-27l-91 -298c-3,-10 -8,-16 -21,-16l-2 0c-13,0 -18,6 -21,16l-91 298c-3,11 2,23 13,27 12,4 23,-2 26,-14l25 -83 97 0zm-55 -144c3,-10 4,-15 7,-27l0 0c2,12 4,17 7,27l30 104 -74 0 30 -104zm218 242c15,0 21,-10 21,-22l0 -273 65 0c10,0 20,-6 20,-21 0,-14 -10,-21 -20,-21l-173 0c-10,0 -19,7 -19,21 0,15 9,21 19,21l66 0 0 273c0,12 6,22 21,22zm320 -4c10,0 20,-7 20,-22 0,-14 -10,-21 -20,-21l-123 0 0 -107 102 0c10,0 19,-6 19,-22 0,-14 -9,-21 -19,-21l-102 0 0 -98 123 0c10,0 20,-6 20,-21 0,-14 -10,-21 -20,-21l-144 0c-14,0 -21,10 -21,22l0 289c0,11 7,22 21,22l144 0zm133 -60c3,-27 26,-231 26,-231l78 0 0 273c0,12 7,22 22,22 14,0 21,-10 21,-22l0 -293c0,-12 -7,-22 -21,-22l-117 0c-13,0 -20,9 -21,22 -2,13 -26,221 -28,240 -2,11 -3,18 -6,23 -4,9 -12,11 -25,11 -10,0 -20,7 -20,22 0,16 10,22 20,22 39,0 55,-14 64,-37 3,-9 5,-18 7,-30zm379 60c11,0 20,-7 20,-22 0,-14 -9,-21 -20,-21l-122 0 0 -107 101 0c10,0 20,-6 20,-22 0,-14 -10,-21 -20,-21l-101 0 0 -98 122 0c11,0 20,-6 20,-21 0,-14 -9,-21 -20,-21l-144 0c-14,0 -20,10 -20,22l0 289c0,11 6,22 20,22l144 0zm172 -363c41,0 63,-31 63,-64 0,-10 -8,-17 -17,-17 -9,0 -16,7 -17,17 -1,18 -12,31 -29,31 -17,0 -27,-13 -29,-31 -1,-10 -7,-17 -16,-17 -10,0 -17,7 -17,17 0,33 22,64 62,64zm59 345c0,12 6,22 20,22 15,0 21,-10 21,-22l0 -298c0,-12 -6,-22 -21,-22 -9,0 -15,3 -21,16l-120 226 0 0c1,-8 1,-20 1,-32l0 -188c0,-12 -5,-22 -20,-22 -15,0 -21,10 -21,22l0 298c0,12 7,22 22,22 8,0 14,-3 21,-16l119 -226 1 0c-1,8 -2,20 -2,33l0 187z"/>
   <path class="fil21 str12" d="M14618 13326c0,12 6,22 21,22 15,0 21,-10 21,-22l0 -298c0,-12 -7,-22 -22,-22 -8,0 -14,3 -21,16l-120 226 0 0c1,-8 2,-20 2,-32l0 -188c0,-12 -6,-22 -20,-22 -16,0 -21,10 -21,22l0 298c0,12 6,22 21,22 9,0 14,-3 21,-16l120 -226 0 0c-1,8 -2,20 -2,33l0 187zm761 0c0,12 6,22 20,22 15,0 21,-10 21,-22l0 -298c0,-12 -6,-22 -22,-22 -8,0 -14,3 -21,16l-119 226 -1 0c1,-8 2,-20 2,-32l0 -188c0,-12 -6,-22 -20,-22 -15,0 -21,10 -21,22l0 298c0,12 6,22 22,22 8,0 14,-3 21,-16l119 -226 1 0c-1,8 -2,20 -2,33l0 187zm-521 -233c0,29 -18,56 -49,56l-16 0c-10,0 -20,7 -20,21 0,15 10,20 20,20l33 0c31,0 43,27 43,56l0 11c0,29 -10,49 -43,49l-34 0c-17,0 -34,-9 -36,-29 -1,-11 -6,-21 -20,-21 -16,0 -22,10 -22,21 0,46 32,71 78,71l37 0c54,0 82,-39 82,-91l0 -11c0,-40 -17,-74 -52,-83 31,-14 42,-41 42,-70 0,-52 -25,-87 -84,-87l-20 0c-46,0 -77,24 -77,71 0,11 7,22 22,22 14,0 20,-11 21,-22 0,-19 18,-28 38,-28l16 0c30,0 41,13 41,44zm215 49l-65 0 0 -89 114 0c10,0 20,-6 20,-21 0,-14 -10,-21 -20,-21l-135 0c-15,0 -21,10 -21,22l0 289c0,11 6,22 21,22l86 0c58,0 86,-40 86,-93l0 -21c0,-53 -28,-88 -86,-88zm44 114c0,29 -12,45 -43,45l-66 0 0 -119 65 0c31,0 44,17 44,46l0 28zm413 -85l0 -118 70 0c31,0 44,17 44,45l0 24c0,29 -13,49 -44,49l-70 0zm70 43c58,0 86,-40 86,-92l0 -24c0,-53 -28,-87 -86,-87l-91 0c-15,0 -21,10 -21,22l0 293c0,12 6,22 21,22 15,0 21,-10 21,-22l0 -112 70 0zm263 36l25 83c3,12 14,18 26,14 12,-4 16,-16 13,-27l-91 -298c-3,-10 -8,-16 -21,-16l-2 0c-12,0 -18,6 -21,16l-90 298c-4,11 1,23 13,27 12,4 22,-2 26,-14l25 -83 97 0zm-56 -144c3,-10 5,-15 7,-27l0 0c3,12 4,17 7,27l31 104 -75 0 30 -104zm218 242c15,0 21,-10 21,-22l0 -273 66 0c10,0 19,-6 19,-21 0,-14 -9,-21 -19,-21l-173 0c-11,0 -20,7 -20,21 0,15 9,21 20,21l65 0 0 273c0,12 6,22 21,22zm320 -4c11,0 20,-7 20,-22 0,-14 -9,-21 -20,-21l-122 0 0 -107 101 0c10,0 20,-6 20,-22 0,-14 -10,-21 -20,-21l-101 0 0 -98 122 0c11,0 20,-6 20,-21 0,-14 -9,-21 -20,-21l-144 0c-14,0 -20,10 -20,22l0 289c0,11 6,22 20,22l144 0zm133 -60c3,-27 26,-231 26,-231l79 0 0 273c0,12 6,22 21,22 15,0 21,-10 21,-22l0 -293c0,-12 -6,-22 -21,-22l-117 0c-13,0 -20,9 -21,22 -1,13 -26,221 -28,240 -1,11 -3,18 -5,23 -5,9 -12,11 -25,11 -11,0 -21,7 -21,22 0,16 10,22 21,22 39,0 55,-14 64,-37 3,-9 5,-18 6,-30zm380 60c10,0 19,-7 19,-22 0,-14 -9,-21 -19,-21l-123 0 0 -107 101 0c11,0 20,-6 20,-22 0,-14 -9,-21 -20,-21l-101 0 0 -98 123 0c10,0 19,-6 19,-21 0,-14 -9,-21 -19,-21l-144 0c-15,0 -21,10 -21,22l0 289c0,11 6,22 21,22l144 0zm172 -363c40,0 62,-31 62,-64 0,-10 -7,-17 -17,-17 -9,0 -15,7 -16,17 -2,18 -12,31 -29,31 -17,0 -28,-13 -29,-31 -1,-10 -8,-17 -17,-17 -9,0 -17,7 -17,17 0,33 22,64 63,64zm58 345c0,12 6,22 20,22 16,0 22,-10 22,-22l0 -298c0,-12 -7,-22 -22,-22 -8,0 -14,3 -21,16l-120 226 0 0c1,-8 2,-20 2,-32l0 -188c0,-12 -6,-22 -20,-22 -16,0 -21,10 -21,22l0 298c0,12 6,22 21,22 9,0 14,-3 21,-16l120 -226 0 0c-1,8 -2,20 -2,33l0 187z"/>
  </g>
 </g>
</svg>
