<?xml version="1.0" encoding="UTF-8"?>
<!DOCTYPE svg PUBLIC "-//W3C//DTD SVG 1.0//EN" "http://www.w3.org/TR/2001/REC-SVG-20010904/DTD/svg10.dtd">
<!-- Creator: CorelDRAW X7 -->
<svg xmlns="http://www.w3.org/2000/svg" xml:space="preserve" width="200mm" height="200mm" version="1.0" style="shape-rendering:geometricPrecision; text-rendering:geometricPrecision; image-rendering:optimizeQuality; fill-rule:evenodd; clip-rule:evenodd"
viewBox="0 0 20000 20000"
 xmlns:xlink="http://www.w3.org/1999/xlink">
 <defs>
  <style type="text/css">
   <![CDATA[
    .str4 {stroke:#CC7587;stroke-width:28.37}
    .str5 {stroke:#CC7587;stroke-width:20.86}
    .str7 {stroke:#CC7587;stroke-width:21.34}
    .str3 {stroke:#034540;stroke-width:29.14}
    .str2 {stroke:#034540;stroke-width:15.18}
    .str1 {stroke:#4D8A7D;stroke-width:15.18}
    .str0 {stroke:#034540;stroke-width:159.99;stroke-linecap:round;stroke-linejoin:round}
    .str6 {stroke:#4D8A7D;stroke-width:140;stroke-linecap:round;stroke-linejoin:round}
    .fil6 {fill:none;fill-rule:nonzero}
    .fil2 {fill:#FFF7B3}
    .fil1 {fill:#FFFADB}
    .fil4 {fill:#034540;fill-rule:nonzero}
    .fil3 {fill:#4D8A7D;fill-rule:nonzero}
    .fil5 {fill:#CC7587;fill-rule:nonzero}
    .fil7 {fill:#E83B40;fill-rule:nonzero}
    .fil0 {fill:url(#id0)}
   ]]>
  </style>
  <radialGradient id="id0" gradientUnits="userSpaceOnUse" gradientTransform="matrix(1.41421 -0 -0 1.41421 -4142 -4142)" cx="10000" cy="10000" r="10000" fx="10000" fy="10000">
   <stop offset="0" style="stop-opacity:1; stop-color:#FEFEFE"/>
   <stop offset="0.439216" style="stop-opacity:1; stop-color:#FEFEFE"/>
   <stop offset="1" style="stop-opacity:1; stop-color:#D1E2F2"/>
  </radialGradient>
 </defs>
 <g id="Layer_x0020_1">
  <metadata id="CorelCorpID_0Corel-Layer"/>
  <g id="_895246783760">
   <path class="fil0" d="M0 0l20000 0 0 20000 -20000 0 0 -20000z"/>
   <path class="fil1 str0" d="M12944 4584l0 8332c-2205,0 -3683,0 -5888,0l0 -8332 5888 0z"/>
   <path class="fil2" d="M7056 4584l5888 0 0 3361 -5888 -2798c10,-289 0,-370 0,-563z"/>
   <path class="fil3 str1" d="M10565 7695c0,13 2,27 3,36l-1 0 -110 -228c-6,-12 -14,-17 -24,-17 -16,0 -23,11 -23,23l0 308c0,12 6,22 23,22 16,0 22,-10 22,-22l0 -187c0,-13 -2,-27 -3,-36l1 0 111 229c5,12 13,16 23,16 16,0 23,-10 23,-22l0 -308c0,-12 -6,-23 -23,-23 -16,0 -22,11 -22,23l0 186zm124 -105c-14,0 -18,-9 -18,-23l0 -24c0,-14 4,-22 18,-22l8 0c14,0 18,8 18,22l0 24c0,14 -4,23 -18,23l-8 0zm8 32c34,0 50,-22 50,-52l0 -30c0,-30 -16,-52 -50,-52l-8 0c-34,0 -50,22 -50,52l0 30c0,30 16,52 50,52l8 0zm34 58c10,0 18,-5 18,-17 0,-13 -8,-18 -18,-18l-76 0c-10,0 -18,5 -18,18 0,12 8,17 18,17l76 0zm114 72c0,-23 8,-41 24,-48l91 -41c44,-19 54,-54 54,-87l0 -2c0,-57 -32,-88 -96,-88l-30 0c-51,0 -82,22 -82,74 0,12 6,23 23,23 17,0 23,-11 23,-23 0,-21 14,-30 36,-30l30 0c35,0 50,13 50,44l0 2c0,23 -8,37 -27,46l-84 37c-40,17 -58,54 -58,97l0 79 197 0c12,0 22,-7 22,-23 0,-15 -10,-22 -22,-22l-151 0 0 -38z"/>
   <path class="fil4 str2" d="M7892 8701l-71 0 0 -92 125 0c11,0 22,-6 22,-22 0,-15 -11,-22 -22,-22l-148 0c-16,0 -23,11 -23,22l0 299c0,12 7,22 23,22l94 0c63,0 94,-41 94,-95l0 -22c0,-55 -31,-90 -94,-90zm48 117c0,30 -13,46 -47,46l-72 0 0 -122 71 0c34,0 48,17 48,47l0 29zm288 -258c-65,0 -94,55 -94,109l0 36 -45 0 0 -123c0,-11 -5,-22 -22,-22 -15,0 -22,11 -22,22l0 309c0,12 7,22 22,22 17,0 22,-10 22,-22l0 -142 45 0 0 65c0,54 28,99 90,99l26 0c63,0 94,-44 94,-98l0 -157c0,-54 -31,-98 -94,-98l-22 0zm70 255c0,31 -14,54 -48,54l-23 0c-34,0 -47,-23 -47,-54l0 -142c0,-31 13,-69 48,-69l22 0c34,0 48,24 48,52l0 159zm174 32c4,-28 29,-238 29,-238l86 0 0 282c0,12 7,22 24,22 16,0 22,-10 22,-22l0 -304c0,-11 -6,-22 -22,-22l-128 0c-15,0 -22,9 -24,22 -1,15 -28,229 -30,248 -2,12 -3,19 -6,24 -5,9 -13,12 -28,12 -11,0 -22,7 -22,23 0,16 11,22 22,22 43,0 61,-14 71,-38 3,-10 5,-19 6,-31zm305 0c3,-28 29,-238 29,-238l86 0 0 282c0,12 7,22 23,22 16,0 23,-10 23,-22l0 -304c0,-11 -7,-22 -23,-22l-128 0c-14,0 -22,9 -23,22 -2,15 -28,229 -31,248 -1,12 -3,19 -6,24 -5,9 -13,12 -27,12 -12,0 -23,7 -23,23 0,16 11,22 23,22 42,0 60,-14 70,-38 3,-10 5,-19 7,-31zm416 61c11,0 22,-6 22,-22 0,-14 -11,-22 -22,-22l-134 0 0 -110 111 0c11,0 21,-7 21,-22 0,-15 -10,-22 -21,-22l-111 0 0 -101 134 0c11,0 22,-6 22,-22 0,-15 -11,-22 -22,-22l-158 0c-16,0 -23,11 -23,22l0 299c0,12 7,22 23,22l158 0zm164 5c16,0 23,-10 23,-22l0 -282 72 0c11,0 21,-6 21,-22 0,-15 -10,-22 -21,-22l-190 0c-11,0 -21,7 -21,22 0,16 10,22 21,22l72 0 0 282c0,12 7,22 23,22zm340 -5c12,0 22,-6 22,-22 0,-14 -10,-22 -22,-22l-134 0 0 -110 111 0c11,0 21,-7 21,-22 0,-15 -10,-22 -21,-22l-111 0 0 -101 134 0c12,0 22,-6 22,-22 0,-15 -10,-22 -22,-22l-158 0c-16,0 -22,11 -22,22l0 299c0,12 6,22 22,22l158 0zm298 -326c0,-11 -7,-22 -23,-22 -16,0 -23,11 -23,22l0 123 -129 0 0 -123c0,-11 -6,-22 -23,-22 -16,0 -23,11 -23,22l0 309c0,12 7,22 23,22 16,0 23,-10 23,-22l0 -142 129 0 0 142c0,12 6,22 23,22 16,0 23,-10 23,-22l0 -309zm256 326c11,0 21,-6 21,-22 0,-14 -10,-22 -21,-22l-135 0 0 -110 111 0c11,0 22,-7 22,-22 0,-15 -11,-22 -22,-22l-111 0 0 -101 135 0c11,0 21,-6 21,-22 0,-15 -10,-22 -21,-22l-159 0c-15,0 -22,11 -22,22l0 299c0,12 7,22 22,22l159 0zm188 -374c45,0 68,-32 68,-66 0,-10 -8,-17 -18,-17 -10,0 -17,7 -18,18 -2,18 -13,31 -32,31 -19,0 -30,-13 -32,-31 -1,-11 -8,-18 -18,-18 -10,0 -18,7 -18,17 0,34 23,66 68,66zm64 357c0,12 7,22 22,22 17,0 24,-10 24,-22l0 -309c0,-11 -7,-22 -24,-22 -9,0 -16,3 -23,17l-131 233 -1 0c1,-9 2,-20 2,-34l0 -194c0,-11 -6,-22 -22,-22 -17,0 -23,11 -23,22l0 309c0,12 7,22 24,22 9,0 15,-3 23,-16l131 -234 0 0c-1,9 -2,21 -2,34l0 194z"/>
   <path class="fil4 str3" d="M9422 6218l50 164c7,23 28,36 53,28 23,-9 33,-31 26,-54l-183 -589c-6,-21 -17,-32 -42,-32l-5 0c-25,0 -36,11 -42,32l-183 589c-7,23 3,45 26,54 25,8 45,-5 53,-28l50 -164 197 0zm-113 -284c7,-21 9,-31 14,-54l1 0c4,23 7,33 13,54l62 205 -151 0 61 -205zm728 409l-195 -287 185 -249c16,-22 16,-46 -2,-63 -22,-20 -48,-10 -63,10l-190 268 -55 0 0 -244c0,-22 -12,-43 -41,-43 -31,0 -44,21 -44,43l0 591c0,23 13,44 44,44 29,0 41,-21 41,-44l0 -262 56 0 194 287c12,19 34,29 59,12 25,-19 23,-44 11,-63zm263 70c30,0 42,-21 42,-44l0 -540 132 0c21,0 40,-12 40,-42 0,-28 -19,-43 -40,-43l-349 0c-21,0 -40,15 -40,43 0,30 19,42 40,42l132 0 0 540c0,23 13,44 43,44z"/>
   <g>
    <path class="fil3" d="M7691 7183c-41,0 -75,-32 -75,-70 0,-38 34,-70 75,-70l0 140zm4618 0l-4618 0 0 -140 4618 0 0 140zm0 -140c41,0 75,32 75,70 0,38 -34,70 -75,70l0 -140z"/>
   </g>
   <g>
    <path class="fil3" d="M7744 11116c-35,0 -64,-31 -64,-70 0,-39 29,-70 64,-70l0 140zm2420 0l-2420 0 0 -140 2420 0 0 140zm0 -140c36,0 65,31 65,70 0,39 -29,70 -65,70l0 -140zm-2420 -1066c-35,0 -64,-31 -64,-70 0,-38 29,-70 64,-70l0 140zm3407 0l-3407 0 0 -140 3407 0 0 140zm0 -140c35,0 64,32 64,70 0,39 -29,70 -64,70l0 -140zm-3407 542c-35,0 -64,-31 -64,-70 0,-38 29,-70 64,-70l0 140zm4586 0l-4586 0 0 -140 4586 0 0 140zm0 -140c36,0 64,32 64,70 0,39 -28,70 -64,70l0 -140zm-4586 542c-35,0 -64,-31 -64,-70 0,-38 29,-70 64,-70l0 140zm4586 0l-4586 0 0 -140 4586 0 0 140zm0 -140c36,0 64,32 64,70 0,39 -28,70 -64,70l0 -140z"/>
   </g>
   <path class="fil5 str4" d="M11231 8939c-62,0 -88,-33 -88,-90l0 -40c0,-59 26,-101 88,-101l70 0c61,0 87,42 87,101l0 40c0,57 -26,90 -87,90l-70 0zm24 -311c-61,0 -81,-33 -81,-90l0 -19c0,-57 20,-75 81,-75l21 0c62,0 82,18 82,75l0 19c0,57 -20,90 -82,90l-21 0zm215 181c0,-76 -32,-129 -88,-150 43,-25 58,-62 58,-121l0 -19c0,-105 -50,-158 -164,-158l-21 0c-114,0 -163,53 -163,158l0 19c0,59 15,96 57,121 -55,21 -88,74 -88,150l0 40c0,105 57,173 170,173l70 0c113,0 169,-68 169,-173l0 -40z"/>
   <path class="fil5 str5" d="M12026 8650c-21,0 -29,15 -29,31l0 269 -97 0 0 -269c0,-16 -7,-31 -28,-31 -21,0 -29,15 -29,31l0 269 -96 0 0 -269c0,-16 -8,-31 -29,-31 -21,0 -28,15 -28,31l0 296c0,16 8,31 28,31l308 0c20,0 28,-15 28,-31l0 -296c0,-16 -7,-31 -28,-31zm355 7l-210 0c-15,0 -28,7 -28,28 0,21 13,30 28,30l77 0 0 268c0,16 8,31 28,31 21,0 29,-15 29,-31l0 -268 76 0c15,0 28,-9 28,-30 0,-21 -13,-28 -28,-28z"/>
   <path class="fil6 str0" d="M12944 4584l0 8332c-2205,0 -3683,0 -5888,0l0 -8332 5888 0z"/>
   <path class="fil6 str6" d="M11168 11051c-498,1734 -158,751 -389,597 -232,-154 842,-744 772,-270 -71,474 -843,360 -821,460 21,99 322,168 414,-85 91,-252 -42,197 196,120 238,-78 337,-303 298,-176 -38,126 28,105 155,28 126,-77 270,-158 270,-158"/>
   <g>
    <path class="fil3" d="M7691 7816c-41,0 -75,-31 -75,-70 0,-38 34,-69 75,-69l0 139zm631 0l-631 0 0 -139 631 0 0 139zm0 -139c41,0 74,31 74,69 0,39 -33,70 -74,70l0 -139zm231 139c-41,0 -75,-31 -75,-70 0,-38 34,-69 75,-69l0 139zm245 0l-245 0 0 -139 245 0 0 139zm0 -139c41,0 75,31 75,69 0,39 -34,70 -75,70l0 -139zm258 139c-42,0 -75,-31 -75,-70 0,-38 33,-69 75,-69l0 139zm1137 0l-1137 0 0 -139 1137 0 0 139zm0 -139c42,0 75,31 75,69 0,39 -33,70 -75,70l0 -139z"/>
   </g>
   <g>
    <path class="fil7" d="M12172 8243l-103 -20 0 0 -16 -24 -17 -21 -16 -16 -16 -14 -18 -13 -21 -12 -24 -12 -27 -10 -29 -9 -32 -7 -33 -6 -34 -4 -35 -2 -36 0 -36 2 -37 3 -36 6 -36 6 -36 8 -35 10 -35 10 -33 12 -32 13 -31 14 -29 15 -28 16 -26 16 -24 17 -21 18 -19 17 -17 18 -14 19 -115 -91 16 -21 18 -19 21 -19 23 -19 25 -18 28 -17 29 -17 30 -15 33 -15 33 -14 35 -12 36 -11 37 -10 38 -9 38 -7 39 -5 39 -4 40 -2 40 0 39 2 40 5 40 7 41 9 40 12 41 16 41 20 42 25 41 29 39 33 36 37 32 39 27 41 0 0zm-122 779l-114 -92 0 0 16 -21 15 -22 15 -22 14 -22 14 -22 13 -23 12 -23 12 -23 11 -24 10 -23 10 -24 9 -23 7 -24 7 -24 7 -23 5 -24 4 -24 4 -23 3 -23 1 -24 1 -23 0 -22 -2 -23 -2 -22 -3 -21 -5 -21 -5 -21 -6 -20 -7 -19 -8 -19 -9 -18 -10 -17 103 20 15 25 12 25 11 25 9 25 8 25 6 25 5 24 4 25 3 25 1 25 0 25 0 25 -2 25 -3 25 -4 25 -4 25 -6 25 -7 25 -7 25 -8 24 -9 25 -10 24 -11 25 -11 24 -12 24 -13 23 -13 24 -14 23 -15 23 -15 22 -16 22 -16 22 0 0zm-1245 72l74 -19 0 0 18 19 20 17 20 17 23 16 23 16 26 14 27 14 29 13 31 11 32 11 33 8 34 8 36 5 36 4 37 2 38 0 38 -2 38 -4 39 -6 39 -8 39 -11 39 -13 38 -16 39 -18 38 -21 37 -23 37 -26 36 -29 36 -31 35 -34 33 -38 33 -40 114 92 -34 41 -34 39 -36 35 -37 33 -38 30 -38 27 -39 24 -40 21 -40 19 -41 17 -41 14 -41 11 -42 9 -41 7 -42 4 -42 3 -42 -1 -41 -2 -42 -4 -41 -7 -41 -9 -41 -10 -40 -13 -40 -16 -40 -17 -39 -20 -38 -22 -38 -24 -36 -27 -36 -28 -33 -31 -31 -31 0 0zm92 -934l108 97 0 0 -23 18 -23 20 -22 21 -21 21 -20 23 -18 23 -18 24 -17 24 -15 26 -14 26 -13 26 -12 27 -10 28 -9 28 -7 28 -6 28 -5 29 -3 29 -1 28 1 29 2 29 3 28 6 28 7 28 8 28 11 26 11 26 14 26 15 24 16 24 18 23 19 22 -74 19 -29 -34 -27 -34 -23 -34 -21 -34 -17 -34 -16 -33 -12 -33 -11 -33 -8 -33 -6 -33 -5 -32 -2 -32 0 -32 1 -31 3 -31 5 -31 6 -30 8 -30 9 -30 11 -29 12 -28 14 -28 15 -27 16 -26 17 -26 19 -25 19 -24 21 -24 22 -22 23 -22 23 -20 25 -19 0 0zm1003 114l-90 -1 -15 -19 -15 -16 -16 -15 -16 -14 -16 -12 -18 -12 -19 -11 -21 -11 -22 -10 -24 -9 -25 -8 -26 -7 -26 -5 -28 -5 -29 -3 -29 -2 -29 -1 -30 1 -30 2 -30 3 -30 5 -30 6 -30 7 -30 8 -29 10 -29 11 -29 12 -28 13 -27 15 -27 16 -26 17 -26 18 -108 -97 26 -19 28 -18 28 -17 29 -15 29 -14 30 -13 31 -11 31 -11 32 -9 32 -7 32 -7 32 -4 33 -4 33 -2 33 -1 33 1 33 2 33 4 33 5 33 7 33 9 34 11 33 13 34 15 33 17 34 19 33 22 32 25 31 27 30 28 27 30 25 31z"/>
   </g>
   <path class="fil5 str7" d="M5446 14425l-111 0 0 -143 195 0c18,0 34,-10 34,-35 0,-23 -16,-34 -34,-34l-230 0c-26,0 -36,17 -36,35l0 465c0,18 10,35 36,35l146 0c99,0 147,-64 147,-148l0 -35c0,-85 -48,-140 -147,-140zm75 182c0,46 -21,72 -73,72l-113 0 0 -190 111 0c53,0 75,27 75,72l0 46zm485 -402c-102,0 -147,87 -147,171l0 55 -70 0 0 -191c0,-18 -7,-35 -33,-35 -25,0 -35,17 -35,35l0 480c0,19 10,36 35,36 25,0 33,-17 33,-36l0 -220 70 0 0 101c0,84 44,155 141,155l41 0c97,0 145,-69 145,-153l0 -245c0,-84 -48,-153 -145,-153l-35 0zm108 398c0,47 -20,84 -73,84l-37 0c-53,0 -73,-37 -73,-84l0 -222c0,-47 20,-107 75,-107l35 0c52,0 73,38 73,80l0 249zm309 49c5,-44 45,-370 45,-370l134 0 0 438c0,19 11,36 37,36 24,0 35,-17 35,-36l0 -472c0,-18 -11,-35 -35,-35l-200 0c-22,0 -34,14 -37,35 -2,22 -43,356 -47,386 -2,18 -5,29 -9,37 -8,14 -21,18 -43,18 -18,0 -35,12 -35,36 0,26 17,34 35,34 66,0 94,-21 109,-59 6,-15 9,-28 11,-48zm511 0c5,-44 45,-370 45,-370l133 0 0 438c0,19 11,36 37,36 25,0 35,-17 35,-36l0 -472c0,-18 -10,-35 -35,-35l-199 0c-23,0 -35,14 -37,35 -2,22 -44,356 -47,386 -3,18 -5,29 -10,37 -7,14 -20,18 -42,18 -19,0 -36,12 -36,36 0,26 17,34 36,34 66,0 94,-21 109,-59 5,-15 8,-28 11,-48zm684 96c18,0 34,-10 34,-34 0,-23 -16,-35 -34,-35l-209 0 0 -172 173 0c17,0 33,-10 33,-34 0,-23 -16,-35 -33,-35l-173 0 0 -156 209 0c18,0 34,-10 34,-35 0,-23 -16,-34 -34,-34l-246 0c-24,0 -35,17 -35,35l0 465c0,18 11,35 35,35l246 0zm292 8c26,0 36,-17 36,-36l0 -438 112 0c17,0 34,-10 34,-35 0,-23 -17,-34 -34,-34l-295 0c-18,0 -34,11 -34,34 0,25 16,35 34,35l111 0 0 438c0,19 11,36 36,36zm567 -8c17,0 33,-10 33,-34 0,-23 -16,-35 -33,-35l-210 0 0 -172 173 0c18,0 34,-10 34,-34 0,-23 -16,-35 -34,-35l-173 0 0 -156 210 0c17,0 33,-10 33,-35 0,-23 -16,-34 -33,-34l-246 0c-25,0 -35,17 -35,35l0 465c0,18 10,35 35,35l246 0zm500 -508c0,-18 -11,-35 -36,-35 -25,0 -35,17 -35,35l0 191 -201 0 0 -191c0,-18 -10,-35 -36,-35 -25,0 -36,17 -36,35l0 480c0,19 11,36 36,36 25,0 36,-17 36,-36l0 -220 201 0 0 220c0,19 10,36 35,36 25,0 36,-17 36,-36l0 -480zm428 480c0,19 10,36 34,36 26,0 36,-17 36,-36l0 -480c0,-18 -11,-35 -37,-35 -14,0 -24,6 -36,26l-204 364 0 0c1,-14 3,-32 3,-53l0 -302c0,-18 -10,-35 -35,-35 -26,0 -36,17 -36,35l0 480c0,19 11,36 37,36 15,0 24,-6 36,-26l204 -364 1 0c-2,14 -3,32 -3,53l0 301zm702 0c0,19 10,36 34,36 26,0 36,-17 36,-36l0 -480c0,-18 -10,-35 -36,-35 -15,0 -25,6 -36,26l-204 364 -1 0c2,-14 3,-32 3,-53l0 -302c0,-18 -10,-35 -34,-35 -26,0 -36,17 -36,35l0 480c0,19 10,36 36,36 15,0 25,-6 36,-26l204 -364 1 0c-1,14 -3,32 -3,53l0 301zm446 -374c0,46 -32,89 -84,89l-27 0c-18,0 -34,11 -34,33 0,25 16,34 34,34l56 0c53,0 74,42 74,89l0 17c0,47 -17,79 -74,79l-58 0c-29,0 -58,-13 -61,-45 -1,-19 -10,-35 -35,-35 -26,0 -37,16 -37,35 0,72 55,114 133,114l63 0c93,0 141,-64 141,-148l0 -17c0,-64 -30,-119 -89,-133 52,-23 70,-65 70,-112 0,-84 -41,-141 -143,-141l-33 0c-78,0 -131,39 -131,114 0,19 11,35 37,35 24,0 34,-16 35,-35 1,-30 32,-45 65,-45l27 0c52,0 71,22 71,72zm399 29c0,55 33,118 92,142 -5,9 -10,18 -18,38 0,0 -60,135 -67,152 -7,16 -3,36 20,46 24,9 39,-3 47,-20 8,-19 89,-205 89,-205l97 0 0 192c0,19 10,36 35,36 26,0 36,-17 36,-36l0 -472c0,-18 -10,-35 -36,-35l-146 0c-97,0 -149,61 -149,141l0 21zm146 84c-53,0 -74,-37 -74,-84l0 -21c0,-42 22,-72 76,-72l112 0 0 177 -114 0zm735 289c14,0 29,-1 40,-2l-44 75c-4,6 -5,13 -5,20 0,13 13,35 37,35 13,0 24,-8 31,-20l72 -126c3,-4 4,-10 4,-16 0,-25 -16,-35 -33,-35l-32 0 0 -439c0,-18 -10,-35 -35,-35 -26,0 -37,17 -37,35l0 439 -127 0 0 -439c0,-19 -12,-35 -35,-35 -22,0 -33,18 -33,35l0 439 -128 0 0 -439c0,-18 -11,-35 -37,-35 -24,0 -35,17 -35,35l0 473c0,18 11,35 35,35l362 0zm520 -28c0,19 10,36 34,36 26,0 36,-17 36,-36l0 -480c0,-18 -11,-35 -37,-35 -14,0 -24,6 -36,26l-204 364 0 0c1,-14 3,-32 3,-53l0 -302c0,-18 -10,-35 -35,-35 -26,0 -36,17 -36,35l0 480c0,19 11,36 37,36 15,0 24,-6 36,-26l204 -364 1 0c-2,14 -3,32 -3,53l0 301zm564 -21l-165 -233 156 -203c14,-17 14,-36 -1,-50 -18,-17 -41,-8 -54,8l-160 217 -46 0 0 -198c0,-18 -11,-35 -35,-35 -26,0 -37,17 -37,35l0 480c0,19 11,36 37,36 24,0 35,-17 35,-36l0 -213 47 0 164 233c10,16 29,24 50,10 21,-15 19,-36 9,-51zm361 -102l42 134c6,18 24,29 45,22 20,-7 28,-25 22,-43l-155 -479c-5,-16 -14,-26 -35,-26l-4 0c-22,0 -31,10 -36,26l-155 479c-6,18 3,36 23,43 20,7 38,-4 44,-22l43 -134 166 0zm-95 -230c5,-17 7,-26 11,-44l1 0c4,18 6,27 12,44l51 166 -127 0 52 -166zm752 164c0,21 3,42 4,56l0 0 -173 -356c-9,-18 -21,-26 -36,-26 -26,0 -37,17 -37,35l0 480c0,19 10,36 36,36 25,0 35,-17 35,-36l0 -290c0,-21 -3,-42 -5,-56l1 0 173 356c9,18 21,26 36,26 26,0 36,-17 36,-36l0 -480c0,-18 -10,-35 -36,-35 -24,0 -34,17 -34,35l0 291zm193 -164c-23,0 -29,-13 -29,-35l0 -38c0,-21 6,-34 29,-34l12 0c23,0 29,13 29,34l0 38c0,22 -6,35 -29,35l-12 0zm12 51c53,0 78,-35 78,-82l0 -46c0,-46 -25,-81 -78,-81l-13 0c-52,0 -77,35 -77,81l0 46c0,47 25,82 77,82l13 0zm53 90c16,0 28,-8 28,-28 0,-19 -12,-27 -28,-27l-117 0c-17,0 -29,8 -29,27 0,20 12,28 29,28l117 0zm214 111c0,-35 13,-63 38,-74l141 -64c69,-30 84,-84 84,-136l0 -3c0,-88 -50,-137 -149,-137l-46 0c-79,0 -128,34 -128,115 0,20 10,36 36,36 26,0 36,-16 36,-36 0,-32 22,-46 56,-46l46 0c54,0 77,21 77,68l0 3c0,36 -11,58 -42,72l-130 58c-62,26 -91,84 -91,151l0 122 308 0c19,0 34,-10 34,-34 0,-25 -15,-35 -34,-35l-236 0 0 -60zm-10406 729l0 438c0,19 10,36 36,36 24,0 36,-17 36,-36l0 -472c0,-18 -12,-35 -36,-35l-258 0c-24,0 -36,17 -36,35l0 472c0,19 12,36 36,36 25,0 36,-17 36,-36l0 -438 186 0zm296 189l0 -190 120 0c52,0 74,27 74,73l0 38c0,46 -22,79 -74,79l-120 0zm120 69c98,0 146,-64 146,-148l0 -38c0,-86 -48,-141 -146,-141l-156 0c-25,0 -36,17 -36,35l0 472c0,19 11,36 36,36 26,0 36,-17 36,-36l0 -180 120 0zm548 180c0,19 10,36 34,36 26,0 36,-17 36,-36l0 -480c0,-18 -11,-35 -37,-35 -14,0 -24,6 -36,26l-204 364 -1 0c2,-14 4,-32 4,-53l0 -302c0,-18 -10,-35 -35,-35 -26,0 -36,17 -36,35l0 480c0,19 11,36 37,36 14,0 24,-6 36,-26l204 -364 1 0c-2,14 -3,32 -3,53l0 301zm446 -374c0,46 -32,89 -84,89l-28 0c-17,0 -33,11 -33,33 0,25 16,34 33,34l57 0c53,0 73,42 73,89l0 17c0,47 -17,79 -74,79l-57 0c-30,0 -58,-13 -61,-45 -2,-19 -11,-35 -35,-35 -26,0 -37,16 -37,35 0,72 54,114 132,114l64 0c92,0 140,-64 140,-148l0 -17c0,-64 -30,-119 -89,-133 52,-23 71,-65 71,-112 0,-84 -41,-141 -143,-141l-34 0c-78,0 -130,39 -130,114 0,19 10,35 36,35 25,0 35,-16 35,-35 2,-30 33,-45 65,-45l28 0c51,0 71,22 71,72zm565 -106c0,-18 -12,-35 -36,-35 -25,0 -36,17 -36,35l0 191 -201 0 0 -191c0,-18 -10,-35 -36,-35 -24,0 -36,17 -36,35l0 480c0,19 12,36 36,36 25,0 36,-17 36,-36l0 -220 201 0 0 220c0,19 10,36 36,36 24,0 36,-17 36,-36l0 -480zm381 357l43 134c6,18 24,29 44,22 20,-7 29,-25 23,-43l-155 -479c-5,-17 -14,-26 -36,-26l-4 0c-21,0 -30,9 -36,26l-154 479c-6,18 2,36 22,43 21,7 38,-4 45,-22l42 -134 166 0zm-95 -230c6,-17 8,-26 12,-44l1 0c4,18 6,27 11,44l52 166 -127 0 51 -166zm655 -127c0,-18 -11,-35 -35,-35 -26,0 -36,17 -36,35l0 191 -201 0 0 -191c0,-18 -10,-35 -36,-35 -25,0 -36,17 -36,35l0 480c0,19 11,36 36,36 25,0 36,-17 36,-36l0 -220 201 0 0 220c0,19 10,36 36,36 24,0 35,-17 35,-36l0 -480zm604 480l0 -480c0,-18 -10,-35 -36,-35 -24,0 -36,17 -36,35l0 480c0,19 10,36 36,36 24,0 36,-17 36,-36zm-284 -300l-95 0 0 -180c0,-18 -10,-35 -36,-35 -25,0 -36,17 -36,35l0 473c0,18 11,35 37,35l130 0c99,0 147,-64 147,-148l0 -35c0,-85 -46,-145 -147,-145zm75 187c0,46 -21,72 -73,72l-97 0 0 -190 95 0c53,0 75,27 75,72l0 46zm1116 -367c0,-18 -12,-35 -36,-35 -25,0 -36,17 -36,35l0 191 -201 0 0 -191c0,-18 -10,-35 -36,-35 -24,0 -36,17 -36,35l0 480c0,19 12,36 36,36 25,0 36,-17 36,-36l0 -220 201 0 0 220c0,19 10,36 36,36 24,0 36,-17 36,-36l0 -480zm434 508c18,0 34,-10 34,-34 0,-23 -16,-35 -34,-35l-209 0 0 -172 172 0c18,0 34,-10 34,-34 0,-23 -16,-35 -34,-35l-172 0 0 -156 209 0c18,0 34,-10 34,-35 0,-23 -16,-34 -34,-34l-246 0c-25,0 -35,17 -35,35l0 465c0,18 10,35 35,35l246 0zm517 -69l-15 0 0 -431c0,-18 -11,-35 -35,-35l-184 0c-25,0 -35,16 -38,35l-69 431 -24 0c-24,0 -35,17 -35,35l0 99c0,18 11,35 35,35 26,0 37,-17 37,-35l0 -65 291 0 0 65c0,18 11,35 37,35 24,0 35,-17 35,-35l0 -99c0,-18 -11,-35 -35,-35zm-263 -53l54 -344 122 0 0 397 -186 0c5,-19 8,-35 10,-53zm694 122c18,0 34,-10 34,-34 0,-23 -16,-35 -34,-35l-209 0 0 -172 173 0c17,0 33,-10 33,-34 0,-23 -16,-35 -33,-35l-173 0 0 -156 209 0c18,0 34,-10 34,-35 0,-23 -16,-34 -34,-34l-246 0c-24,0 -35,17 -35,35l0 465c0,18 11,35 35,35l246 0zm331 -583c69,0 106,-50 106,-103 0,-16 -12,-26 -28,-26 -16,0 -27,10 -29,27 -2,28 -20,49 -49,49 -29,0 -48,-21 -50,-49 -2,-17 -12,-27 -28,-27 -16,0 -29,10 -29,26 0,53 37,103 107,103zm100 555c0,19 10,36 34,36 26,0 36,-17 36,-36l0 -480c0,-18 -11,-35 -37,-35 -14,0 -24,6 -35,26l-205 364 0 0c1,-14 3,-32 3,-53l0 -302c0,-18 -10,-35 -35,-35 -26,0 -36,17 -36,35l0 480c0,19 11,36 37,36 15,0 25,-6 36,-26l204 -364 1 0c-2,14 -3,32 -3,53l0 301zm361 -33c-53,0 -74,-37 -74,-84l0 -245c0,-47 21,-84 74,-84l78 0c32,0 50,14 53,45 2,19 11,35 35,35 26,0 37,-16 37,-35 0,-79 -47,-114 -125,-114l-78 0c-97,0 -146,69 -146,153l0 245c0,84 49,153 146,153l78 0c78,0 125,-35 125,-114 0,-19 -11,-35 -37,-35 -24,0 -33,16 -35,35 -3,32 -21,45 -53,45l-78 0zm462 69c25,0 36,-17 36,-36l0 -438 112 0c17,0 33,-10 33,-35 0,-23 -16,-34 -33,-34l-295 0c-18,0 -34,11 -34,34 0,25 16,35 34,35l111 0 0 438c0,19 11,36 36,36zm357 -247l125 0c53,0 74,35 74,82l0 16c0,46 -21,72 -74,72l-125 0 0 -170zm0 -67l0 -160 92 0c52,0 74,18 74,64l0 18c0,46 -22,78 -74,78l-92 0zm271 149c0,-64 -29,-108 -85,-126 33,-20 52,-54 52,-101l0 -18c0,-86 -49,-133 -146,-133l-127 0c-26,0 -37,17 -37,35l0 465c0,18 11,35 37,35l160 0c97,0 146,-55 146,-141l0 -16zm404 129c0,19 10,36 34,36 26,0 36,-17 36,-36l0 -480c0,-18 -10,-35 -36,-35 -15,0 -25,6 -36,26l-204 364 -1 0c1,-14 3,-32 3,-53l0 -302c0,-18 -10,-35 -35,-35 -26,0 -35,17 -35,35l0 480c0,19 10,36 36,36 15,0 25,-6 36,-26l204 -364 1 0c-2,14 -3,32 -3,53l0 301zm355 36c26,0 36,-17 36,-36l0 -438 112 0c17,0 33,-10 33,-35 0,-23 -16,-34 -33,-34l-295 0c-18,0 -34,11 -34,34 0,25 16,35 34,35l111 0 0 438c0,19 11,36 36,36zm567 -8c17,0 33,-10 33,-34 0,-23 -16,-35 -33,-35l-210 0 0 -172 173 0c18,0 34,-10 34,-34 0,-23 -16,-35 -34,-35l-173 0 0 -156 210 0c17,0 33,-10 33,-35 0,-23 -16,-34 -33,-34l-246 0c-25,0 -36,17 -36,35l0 465c0,18 11,35 36,35l246 0zm270 -96c6,-44 45,-370 45,-370l134 0 0 438c0,19 11,36 37,36 24,0 35,-17 35,-36l0 -472c0,-18 -11,-35 -35,-35l-200 0c-22,0 -34,14 -36,35 -3,22 -44,356 -48,386 -2,18 -4,29 -9,37 -8,14 -21,18 -43,18 -18,0 -35,12 -35,36 0,26 17,34 35,34 67,0 94,-21 110,-59 5,-15 8,-28 10,-48zm596 -232l-120 0 0 -180c0,-18 -11,-35 -36,-35 -25,0 -36,17 -36,35l0 473c0,18 11,35 37,35l155 0c99,0 147,-64 147,-148l0 -35c0,-85 -46,-145 -147,-145zm75 187c0,46 -20,72 -73,72l-122 0 0 -190 120 0c53,0 75,27 75,72l0 46zm542 -367c0,-18 -11,-35 -36,-35 -25,0 -36,17 -36,35l0 191 -201 0 0 -191c0,-18 -9,-35 -35,-35 -25,0 -36,17 -36,35l0 480c0,19 11,36 36,36 25,0 35,-17 35,-36l0 -220 201 0 0 220c0,19 10,36 36,36 25,0 36,-17 36,-36l0 -480zm603 480l0 -480c0,-18 -10,-35 -35,-35 -24,0 -36,17 -36,35l0 480c0,19 10,36 35,36 25,0 36,-17 36,-36zm-283 -300l-95 0 0 -180c0,-18 -11,-35 -36,-35 -25,0 -36,17 -36,35l0 473c0,18 11,35 37,35l130 0c98,0 147,-64 147,-148l0 -35c0,-85 -46,-145 -147,-145zm75 187c0,46 -21,72 -74,72l-96 0 0 -190 95 0c53,0 75,27 75,72l0 46zm570 -98c-5,-14 -11,-29 -18,-43l-120 -235c-10,-21 -20,-26 -36,-26 -25,0 -35,17 -35,35l0 480c0,19 10,36 35,36 26,0 36,-17 36,-36l0 -295c0,-20 -2,-39 -3,-52l0 0 110 213c5,11 13,18 31,18 18,0 26,-7 31,-18l110 -213 0 0c-1,13 -3,32 -3,52l0 295c0,19 10,36 35,36 26,0 36,-17 36,-36l0 -480c0,-18 -10,-35 -36,-35 -16,0 -25,5 -36,26l-119 235c-7,14 -14,29 -18,43zm636 211c0,19 10,36 34,36 26,0 36,-17 36,-36l0 -480c0,-18 -11,-35 -37,-35 -14,0 -24,6 -35,26l-205 364 0 0c1,-14 3,-32 3,-53l0 -302c0,-18 -10,-35 -35,-35 -26,0 -36,17 -36,35l0 480c0,19 11,36 37,36 15,0 25,-6 36,-26l204 -364 1 0c-2,14 -3,32 -3,53l0 301z"/>
  </g>
 </g>
</svg>
