<?xml version="1.0" encoding="UTF-8"?>
<!DOCTYPE svg PUBLIC "-//W3C//DTD SVG 1.0//EN" "http://www.w3.org/TR/2001/REC-SVG-20010904/DTD/svg10.dtd">
<!-- Creator: CorelDRAW X7 -->
<svg xmlns="http://www.w3.org/2000/svg" xml:space="preserve" width="200mm" height="200mm" version="1.0" style="shape-rendering:geometricPrecision; text-rendering:geometricPrecision; image-rendering:optimizeQuality; fill-rule:evenodd; clip-rule:evenodd"
viewBox="0 0 20000 20000"
 xmlns:xlink="http://www.w3.org/1999/xlink">
 <defs>
  <style type="text/css">
   <![CDATA[
    .str1 {stroke:#CC7588;stroke-width:25}
    .str0 {stroke:#2E99A3;stroke-width:7.62}
    .fil4 {fill:#FEFEFE}
    .fil1 {fill:#F9F9F9}
    .fil2 {fill:#F1F1F1}
    .fil3 {fill:#E8E8E8}
    .fil13 {fill:#F9C5A1}
    .fil6 {fill:#FAC16A}
    .fil19 {fill:#CC7588}
    .fil11 {fill:#F9D6AA}
    .fil7 {fill:#E12528}
    .fil12 {fill:#E9B69A}
    .fil15 {fill:#DBE3E3}
    .fil5 {fill:#DAD9DA}
    .fil17 {fill:#BF2C2E}
    .fil10 {fill:#D4E8F8}
    .fil14 {fill:#71523E}
    .fil8 {fill:#3E6677}
    .fil9 {fill:#3A5E6A}
    .fil18 {fill:#149288}
    .fil16 {fill:#00897E}
    .fil0 {fill:url(#id0)}
   ]]>
  </style>
  <radialGradient id="id0" gradientUnits="userSpaceOnUse" gradientTransform="matrix(1.41421 -0 -0 1.41421 -4140 -4142)" cx="9995.05" cy="10000" r="10000" fx="9995.05" fy="10000">
   <stop offset="0" style="stop-opacity:1; stop-color:#FEFEFE"/>
   <stop offset="0.439216" style="stop-opacity:1; stop-color:#FEFEFE"/>
   <stop offset="1" style="stop-opacity:1; stop-color:#D1E2F2"/>
  </radialGradient>
 </defs>
 <g id="Layer_x0020_1">
  <metadata id="CorelCorpID_0Corel-Layer"/>
  <path class="fil0" d="M-5 0l20000 0 0 20000 -20000 0 0 -20000z"/>
  <g id="_324967918736">
   <path class="fil1 str0" d="M13123 13649c-262,155 -504,300 -747,442 -738,429 -1478,856 -2214,1289 -86,50 -145,50 -232,-2 -801,-483 -1605,-960 -2408,-1440 -32,-19 -61,-42 -108,-75 921,-531 1827,-1054 2759,-1591 0,367 0,715 0,1062 0,121 -2,241 -3,361 -2,105 59,179 152,166 61,-9 145,-88 157,-147 26,-135 17,-277 18,-416 1,-388 0,-776 0,-1191 884,519 1746,1025 2626,1542z"/>
   <path class="fil2 str0" d="M12782 13553c-261,155 -503,299 -747,441 -738,430 -1477,857 -2214,1289 -85,50 -145,51 -231,-1 -801,-483 -1605,-961 -2408,-1441 -32,-19 -62,-42 -108,-74 920,-531 1827,-1054 2759,-1591 0,367 0,714 0,1062 -1,120 -2,240 -4,360 -1,106 59,180 153,167 60,-9 145,-88 157,-148 26,-134 17,-277 18,-416 1,-388 0,-775 0,-1191 884,519 1745,1026 2625,1543z"/>
   <path class="fil3 str0" d="M12777 13304c-262,154 -503,299 -747,441 -738,430 -1478,856 -2214,1289 -86,50 -145,51 -232,-2 -801,-483 -1605,-960 -2408,-1440 -32,-19 -61,-42 -108,-75 921,-531 1827,-1053 2759,-1590 0,366 0,714 0,1062 0,120 -1,240 -3,360 -2,105 59,180 152,166 61,-8 145,-87 157,-147 27,-135 17,-277 18,-416 2,-388 1,-776 1,-1191 883,519 1745,1026 2625,1543z"/>
   <path class="fil1 str0" d="M13123 13217c-262,155 -504,299 -747,442 -738,429 -1478,856 -2214,1288 -86,50 -145,51 -232,-1 -801,-483 -1605,-961 -2408,-1440 -32,-19 -61,-42 -108,-75 921,-531 1827,-1054 2759,-1591 0,367 0,714 0,1062 0,120 -2,240 -3,360 -2,106 59,180 152,167 61,-9 145,-88 157,-148 27,-134 17,-276 18,-416 1,-387 0,-775 0,-1191 884,519 1746,1026 2626,1543z"/>
   <path class="fil2 str0" d="M12912 13034c-261,155 -503,300 -747,442 -738,429 -1478,856 -2214,1288 -85,50 -145,51 -231,-1 -801,-483 -1606,-961 -2409,-1440 -32,-19 -61,-42 -108,-75 921,-531 1828,-1054 2759,-1591 0,367 1,715 0,1062 0,120 -1,240 -3,360 -2,106 59,180 153,167 60,-9 145,-88 156,-147 27,-135 18,-277 18,-416 2,-388 1,-776 1,-1192 883,520 1745,1026 2625,1543z"/>
   <path class="fil3 str0" d="M12907 12785c-262,154 -504,299 -747,441 -739,430 -1478,857 -2214,1289 -86,50 -145,51 -232,-1 -801,-484 -1605,-961 -2408,-1441 -32,-19 -61,-42 -108,-75 921,-530 1827,-1053 2759,-1590 0,366 0,714 0,1062 0,120 -2,240 -4,360 -1,106 60,180 153,166 60,-8 145,-87 157,-147 26,-134 17,-277 18,-416 1,-388 0,-776 0,-1191 884,519 1746,1026 2626,1543z"/>
   <path class="fil4 str0" d="M12993 12396c-261,154 -503,299 -747,441 -738,430 -1478,857 -2214,1289 -85,50 -145,51 -231,-1 -801,-484 -1606,-961 -2409,-1441 -32,-19 -61,-42 -108,-75 921,-530 1828,-1053 2759,-1590 0,366 1,714 0,1062 0,120 -1,240 -3,360 -2,106 59,180 153,166 60,-8 144,-87 156,-147 27,-135 18,-277 18,-416 2,-388 1,-776 1,-1191 883,519 1745,1026 2625,1543z"/>
   <path class="fil3 str0" d="M12950 12309c-262,155 -504,300 -747,442 -738,429 -1478,856 -2214,1289 -86,49 -145,50 -232,-2 -801,-483 -1605,-961 -2408,-1440 -32,-19 -61,-42 -108,-75 921,-531 1827,-1054 2759,-1591 0,367 0,715 0,1062 0,120 -2,240 -3,360 -2,106 59,180 152,167 61,-9 145,-88 157,-148 26,-134 17,-276 18,-415 1,-388 1,-776 1,-1192 883,520 1745,1026 2625,1543z"/>
   <path class="fil1 str0" d="M12950 12007c-262,154 -504,299 -747,441 -738,430 -1478,857 -2214,1289 -86,50 -145,51 -232,-2 -801,-483 -1605,-960 -2408,-1440 -32,-19 -61,-42 -108,-75 921,-531 1827,-1053 2759,-1590 0,366 0,714 0,1062 0,120 -2,240 -3,360 -2,106 59,180 152,166 61,-8 145,-87 157,-147 26,-135 17,-277 18,-416 1,-388 0,-776 0,-1191 884,519 1746,1026 2626,1543z"/>
   <path class="fil2 str0" d="M12610 11910c-262,155 -504,300 -748,442 -738,429 -1477,856 -2214,1288 -85,50 -145,51 -231,-1 -801,-483 -1605,-961 -2408,-1440 -32,-19 -61,-43 -108,-75 920,-531 1827,-1054 2759,-1591 0,367 0,715 0,1062 -1,120 -2,240 -4,360 -1,106 60,180 153,167 60,-9 145,-88 157,-148 26,-134 17,-276 18,-416 1,-387 0,-775 0,-1191 884,520 1746,1026 2626,1543z"/>
   <path class="fil4 str0" d="M13484 12168l-2381 -1399 -3891 1813 2381 1399 3891 -1813z"/>
   <path class="fil5 str0" d="M10141 11772l-368 -217 86 -40 369 217 -87 40z"/>
   <path class="fil5 str0" d="M9985 11845l-369 -216 87 -41 368 217 -86 40z"/>
   <path class="fil5 str0" d="M9828 11918l-368 -217 86 -40 368 217 -86 40z"/>
   <path class="fil5 str0" d="M11837 12768l-1581 -929 86 -40 1581 929 -86 40z"/>
   <path class="fil5 str0" d="M11680 12841l-1581 -929 86 -40 1582 929 -87 40z"/>
   <path class="fil5 str0" d="M11524 12914l-1582 -929 87 -40 1581 929 -86 40z"/>
   <path class="fil5 str0" d="M9615 12017l-368 -217 87 -40 368 217 -87 40z"/>
   <path class="fil5 str0" d="M9459 12090l-368 -217 86 -40 368 217 -86 40z"/>
   <path class="fil5 str0" d="M9302 12163l-368 -217 86 -40 369 216 -87 41z"/>
   <path class="fil5 str0" d="M11311 13013l-1581 -929 86 -40 1582 929 -87 40z"/>
   <path class="fil5 str0" d="M11155 13086l-1582 -929 87 -40 1581 929 -86 40z"/>
   <path class="fil5 str0" d="M10998 13159l-1581 -929 86 -40 1581 929 -86 40z"/>
   <path class="fil5 str0" d="M10029 13608l-926 -544 86 -41 927 545 -87 40z"/>
   <path class="fil5 str0" d="M9873 13681l-927 -544 87 -41 926 545 -86 40z"/>
   <path class="fil5 str0" d="M9716 13754l-926 -545 86 -40 927 545 -87 40z"/>
   <path class="fil5 str0" d="M9560 13827l-927 -545 86 -40 927 545 -86 40z"/>
   <path class="fil5 str0" d="M8896 12942l-927 -545 86 -40 927 545 -86 40z"/>
   <path class="fil5 str0" d="M8739 13015l-927 -545 87 -40 926 545 -86 40z"/>
   <path class="fil5 str0" d="M8582 13088l-926 -545 86 -40 927 545 -87 40z"/>
   <path class="fil5 str0" d="M8426 13161l-927 -545 87 -40 926 544 -86 41z"/>
   <path class="fil5 str0" d="M9444 12588l-368 -217 86 -40 368 216 -86 41z"/>
   <path class="fil5 str0" d="M8992 12707l-282 -166 86 -40 282 166 -86 40z"/>
   <path class="fil6 str0" d="M8911 12370l-209 -123 266 -125 210 123 -267 125z"/>
   <path class="fil7 str0" d="M8546 12540l-210 -123 267 -124 209 123 -266 124z"/>
   <path class="fil5 str0" d="M10393 13145l-184 -108 86 -40 184 108 -86 40z"/>
   <path class="fil5 str0" d="M10125 13373l-282 -166 87 -40 282 166 -87 40z"/>
   <path class="fil8 str0" d="M10045 13036l-209 -123 266 -125 210 124 -267 124z"/>
   <path class="fil9 str0" d="M9679 13206l-209 -123 266 -124 210 123 -267 124z"/>
   <path class="fil5 str0" d="M11703 11764l-87 40 981 576 86 -40 -980 -576z"/>
   <path class="fil5 str0" d="M11546 11837l-86 40 980 576 87 -40 -981 -576z"/>
   <path class="fil5 str0" d="M11390 11910l-87 40 981 576 86 -40 -980 -576z"/>
   <path class="fil5 str0" d="M11233 11983l-86 40 980 576 86 -40 -980 -576z"/>
   <path class="fil4 str0" d="M12409 11926l-13 6c-32,15 -62,23 -91,24 -29,0 -55,-6 -79,-20 -23,-14 -33,-28 -27,-43 5,-16 24,-31 58,-47l117 -54c37,-18 70,-27 99,-30 29,-2 55,3 76,15 9,6 15,11 18,17 4,7 4,13 1,20l18 -9 32 20 -96 44 -35 -21 8 -4c16,-8 25,-15 29,-21 3,-7 0,-13 -8,-18 -11,-6 -22,-9 -35,-8 -13,1 -29,6 -46,14l-140 65c-18,8 -28,15 -31,22 -3,7 0,13 11,19 10,6 22,9 35,8 14,-1 29,-6 46,-14l16 -7 37 22z"/>
   <path class="fil4 str0" d="M12387 12027l221 -165 -14 -8 41 -20 76 45 -41 19 -18 -10 -156 105 219 -68 -18 -11 41 -19 73 42 -41 20 -17 -10 -335 98 -31 -18z"/>
   <path class="fil10 str0" d="M10892 11960l-837 -487 1060 -498 837 488 -1060 497z"/>
   <path class="fil11 str0" d="M11165 11526c-70,27 -156,70 -203,101 -28,20 -24,90 -70,91 -72,2 -200,-76 -229,-93 -30,-18 -138,-79 -120,-114 11,-21 129,-17 163,-33 45,-21 136,-50 193,-88 34,-23 67,67 91,81 21,13 218,39 175,55z"/>
   <path class="fil11 str0" d="M10945 11352c-16,8 -38,8 -51,0l0 0c-13,-7 -13,-13 46,-41l30 -23c27,-12 12,14 24,21l7 4c13,8 11,8 -4,15l-52 24z"/>
   <path class="fil11 str0" d="M11200 11501c-15,7 -17,19 -5,27l0 0c13,7 24,8 83,-20l46 -13c27,-13 -24,-8 -36,-15l-7 -4c-13,-7 -13,-7 -29,1l-52 24z"/>
   <path class="fil12 str0" d="M10962 11627c47,-31 133,-74 203,-101 43,-16 -154,-42 -175,-55 -24,-14 -57,-104 -91,-81 -24,16 -53,30 -83,43l-117 241c38,17 163,45 193,44 46,-1 42,-71 70,-91z"/>
   <path class="fil11 str0" d="M11174 11262c-61,-3 -127,38 -179,62l-90 42c-26,13 -58,26 -71,41 -25,28 -26,69 -7,97 8,11 29,12 45,21l428 -202c-34,-20 -79,-59 -126,-61z"/>
   <path class="fil13 str0" d="M11270 11484c57,-27 140,-58 135,-93 -3,-22 -74,-49 -103,-67 -1,0 -3,-1 -4,-2l-428 202c1,0 3,1 3,2 16,9 36,30 57,36 61,0 95,6 162,0 30,-6 62,-24 88,-36l90 -42z"/>
   <path class="fil14 str0" d="M11134 11227c-9,1 -17,3 -26,5 -35,9 -58,25 -76,42 -17,17 -32,34 -58,48 -14,7 -15,15 -16,24 15,-8 29,-16 43,-24 18,-10 39,-17 65,-16 16,0 29,-3 40,-10 5,-3 11,-7 16,-10 26,-15 51,-18 80,-7 20,7 37,16 53,26 37,22 73,44 110,67 3,2 7,3 10,6 14,10 12,21 -6,31 -6,4 -14,8 -22,10 -28,7 -42,19 -47,35 -4,12 -17,22 -36,30 -14,5 -28,11 -42,16 1,1 1,2 2,2 11,-2 24,-3 35,-7 25,-7 49,-15 73,-23 43,-13 85,-28 117,-48 27,-18 51,-49 18,-67 -1,2 -33,-3 -29,-7 11,-12 -5,-28 -18,-40 -23,-23 -62,-39 -93,-58 -80,-51 -180,-27 -193,-25z"/>
   <path class="fil15 str0" d="M10559 11766l134 -39 194 -59c-22,6 76,-42 76,-42 -6,-1 -243,-29 -249,-30 0,3 -111,58 -241,121l86 49z"/>
   <path class="fil15 str0" d="M10394 11671l82 47c137,-63 256,-117 261,-117 -1,-3 -27,-121 -28,-125 0,0 -107,45 -93,35l-132 94 -90 66z"/>
   <path class="fil4 str0" d="M10887 11718l-75 5 -4 -8 79 3z"/>
   <path class="fil16 str0" d="M10550 11761l340 198c65,-68 112,-97 152,-116 13,-6 -91,-82 -83,-170l12 -51c-6,4 -195,71 -195,71l-226 68z"/>
   <path class="fil17 str0" d="M10734 11598l-150 21 -61 85 158 -30 61 -71 -8 -5z"/>
   <path class="fil4 str0" d="M10715 11475l-175 150 196 -27 -21 -123z"/>
   <path class="fil4 str0" d="M10970 11623l-306 75 73 -99 233 24z"/>
   <path class="fil17 str0" d="M10505 11735l174 -108 -226 78 52 30z"/>
   <path class="fil18 str0" d="M10667 11830l71 -14 -23 -53 150 11 94 -96 11 -56 -422 138 119 70z"/>
   <path class="fil16 str0" d="M10113 11507c76,-45 141,-77 141,-77 -74,17 -140,32 -197,44l56 33z"/>
   <path class="fil16 str0" d="M10404 11676l156 -99c0,0 154,-102 162,-105l-73 4c-249,3 -321,-73 -356,-59 -7,3 -113,27 -230,61l341 198z"/>
   <path class="fil18 str0" d="M10321 11574l-32 35 119 70 313 -207 -125 5 -180 36 5 79 -100 -18z"/>
   <path class="fil3 str0" d="M12604 11661c-261,154 -503,299 -747,441 -738,430 -1478,857 -2214,1289 -85,50 -145,51 -232,-1 -800,-484 -1605,-961 -2408,-1441 -32,-19 -61,-42 -108,-75 921,-530 1828,-1053 2759,-1590 0,366 1,714 0,1062 0,120 -1,240 -3,360 -2,105 59,180 153,167 60,-9 144,-88 156,-148 27,-135 18,-277 18,-416 2,-388 1,-776 1,-1191 883,519 1745,1026 2625,1543z"/>
   <path class="fil1 str0" d="M12950 11574c-262,155 -504,300 -747,442 -738,429 -1478,856 -2214,1289 -86,50 -145,50 -232,-2 -801,-483 -1605,-961 -2408,-1440 -32,-19 -61,-42 -108,-75 921,-531 1827,-1054 2759,-1591 0,367 0,715 0,1062 0,120 -2,241 -3,361 -2,105 59,179 152,166 61,-9 145,-88 157,-147 26,-135 17,-277 18,-416 1,-388 1,-776 1,-1192 883,520 1745,1026 2625,1543z"/>
   <path class="fil3 str0" d="M13080 11229c-262,154 -504,299 -748,441 -738,429 -1477,856 -2214,1289 -85,50 -144,51 -231,-2 -801,-483 -1605,-960 -2408,-1440 -32,-19 -61,-42 -108,-75 920,-531 1827,-1053 2759,-1591 0,367 0,715 0,1062 -1,121 -2,241 -4,361 -1,105 60,180 153,166 60,-9 145,-88 157,-147 26,-135 17,-277 18,-416 1,-388 0,-776 0,-1191 884,519 1746,1025 2626,1543z"/>
   <path class="fil1 str0" d="M13080 10926c-262,154 -504,299 -748,441 -738,430 -1477,857 -2214,1289 -85,50 -145,51 -231,-1 -801,-483 -1605,-961 -2408,-1441 -32,-19 -61,-42 -108,-74 920,-531 1827,-1054 2759,-1591 0,366 0,714 0,1062 -1,120 -2,240 -4,360 -1,106 60,180 153,166 60,-8 145,-87 157,-147 26,-135 17,-277 18,-416 1,-388 0,-776 0,-1191 884,519 1746,1026 2626,1543z"/>
   <path class="fil2 str0" d="M12739 10829c-261,155 -503,300 -747,442 -738,429 -1477,856 -2214,1288 -85,51 -145,52 -231,-1 -801,-483 -1606,-961 -2409,-1440 -31,-19 -61,-42 -108,-75 921,-531 1828,-1054 2760,-1591 0,367 0,715 -1,1062 0,120 -1,240 -3,361 -2,105 59,179 153,166 60,-9 145,-88 156,-148 27,-134 18,-276 18,-415 2,-388 1,-776 1,-1191 883,519 1745,1025 2625,1542z"/>
   <path class="fil3 str0" d="M12734 10580c-262,155 -504,299 -748,441 -737,430 -1477,857 -2213,1289 -86,50 -145,51 -232,-1 -801,-483 -1605,-961 -2408,-1440 -32,-19 -61,-43 -108,-75 921,-531 1827,-1054 2759,-1591 0,367 0,714 0,1062 0,120 -2,240 -4,360 -1,106 60,180 153,167 61,-9 145,-88 157,-148 26,-134 17,-277 18,-416 1,-388 0,-776 0,-1191 884,519 1746,1026 2626,1543z"/>
   <path class="fil1 str0" d="M13080 10494c-262,154 -504,299 -748,441 -738,429 -1477,856 -2214,1289 -85,50 -144,51 -231,-1 -801,-484 -1605,-961 -2408,-1441 -32,-19 -61,-42 -108,-75 920,-531 1827,-1053 2759,-1591 0,367 0,715 0,1062 -1,121 -2,241 -4,361 -1,105 60,179 153,166 60,-8 145,-88 157,-147 26,-135 17,-277 18,-416 1,-388 0,-776 0,-1191 884,519 1746,1025 2626,1543z"/>
   <path class="fil2 str0" d="M12869 10311c-261,154 -503,299 -747,441 -738,429 -1478,856 -2214,1289 -85,50 -145,51 -232,-2 -800,-483 -1605,-960 -2408,-1440 -32,-19 -61,-42 -108,-75 921,-531 1828,-1053 2759,-1590 0,366 0,714 0,1062 0,120 -1,240 -3,360 -2,105 59,179 152,166 61,-8 145,-87 157,-147 27,-135 18,-277 18,-416 2,-388 1,-776 1,-1191 883,519 1745,1026 2625,1543z"/>
   <path class="fil3 str0" d="M12863 10061c-261,155 -503,300 -747,442 -738,429 -1477,856 -2214,1288 -85,51 -145,51 -231,-1 -801,-483 -1605,-961 -2409,-1440 -31,-19 -61,-42 -108,-75 921,-531 1828,-1054 2760,-1591 0,367 0,715 -1,1062 0,120 -1,240 -3,360 -2,106 59,180 153,167 60,-9 145,-88 157,-147 26,-135 17,-277 17,-416 2,-388 1,-776 1,-1192 884,520 1745,1026 2625,1543z"/>
   <path class="fil4 str0" d="M12950 9672c-262,155 -504,300 -747,441 -738,430 -1478,857 -2214,1289 -86,50 -145,51 -232,-1 -801,-483 -1605,-961 -2408,-1440 -32,-19 -61,-42 -108,-75 921,-531 1827,-1054 2759,-1591 0,367 0,714 0,1062 0,120 -2,240 -3,360 -2,106 59,180 152,167 61,-9 145,-88 157,-148 26,-134 17,-276 18,-416 1,-387 1,-775 1,-1191 883,520 1745,1026 2625,1543z"/>
   <path class="fil3 str0" d="M12907 9586c-262,154 -504,299 -747,441 -739,430 -1478,857 -2214,1289 -86,50 -145,51 -232,-1 -801,-484 -1605,-961 -2408,-1441 -32,-19 -61,-42 -108,-75 921,-530 1827,-1053 2759,-1590 0,366 0,714 0,1062 0,120 -2,240 -4,360 -1,105 60,180 153,166 60,-8 145,-87 157,-147 26,-135 17,-277 18,-416 1,-388 0,-776 0,-1191 884,519 1746,1026 2626,1543z"/>
   <path class="fil1 str0" d="M12907 9283c-262,155 -504,300 -748,441 -738,430 -1477,857 -2214,1289 -85,50 -144,51 -231,-1 -801,-483 -1605,-961 -2408,-1441 -32,-18 -61,-42 -108,-74 921,-531 1827,-1054 2759,-1591 0,367 0,714 0,1062 0,120 -2,240 -4,360 -1,106 60,180 153,167 60,-9 145,-88 157,-148 26,-134 17,-276 18,-416 1,-388 0,-776 0,-1191 884,519 1746,1026 2626,1543z"/>
   <path class="fil2 str0" d="M12566 9187c-261,154 -503,299 -747,441 -738,429 -1477,856 -2214,1289 -85,50 -145,50 -231,-2 -801,-483 -1605,-960 -2409,-1440 -31,-19 -61,-42 -108,-75 921,-531 1828,-1053 2760,-1590 0,366 0,714 -1,1062 0,120 -1,240 -3,360 -2,105 59,180 153,166 60,-8 145,-88 156,-147 27,-135 18,-277 18,-416 2,-388 1,-776 1,-1191 883,519 1745,1026 2625,1543z"/>
   <path class="fil3 str0" d="M12561 8937c-262,155 -504,300 -747,442 -738,429 -1478,856 -2214,1288 -86,50 -145,51 -232,-1 -801,-483 -1605,-961 -2408,-1440 -32,-19 -61,-42 -108,-75 921,-531 1827,-1054 2759,-1591 0,367 0,715 0,1062 0,120 -2,240 -3,360 -2,106 59,180 152,167 61,-9 145,-88 157,-148 26,-134 17,-276 18,-415 1,-388 0,-776 0,-1192 884,520 1746,1026 2626,1543z"/>
   <path class="fil1 str0" d="M12907 8851c-262,154 -504,299 -747,441 -739,430 -1478,857 -2214,1289 -86,50 -145,51 -232,-1 -801,-484 -1605,-961 -2408,-1441 -32,-19 -61,-42 -108,-75 921,-530 1827,-1053 2759,-1590 0,366 0,714 0,1062 0,120 -2,240 -4,360 -1,105 60,180 153,166 60,-8 145,-87 157,-147 26,-135 17,-277 18,-416 1,-388 0,-776 0,-1191 884,519 1746,1026 2626,1543z"/>
   <path class="fil2 str0" d="M12696 8668c-261,154 -503,299 -747,441 -738,430 -1478,857 -2214,1289 -85,50 -145,51 -231,-1 -801,-484 -1606,-961 -2409,-1441 -32,-19 -61,-42 -108,-75 921,-530 1828,-1053 2759,-1590 0,366 1,714 0,1062 0,120 -1,240 -3,360 -2,105 59,180 153,166 60,-8 144,-87 156,-147 27,-135 18,-277 18,-416 2,-388 1,-776 1,-1191 883,519 1745,1026 2625,1543z"/>
   <path class="fil3 str0" d="M12691 8332c-262,155 -504,299 -748,441 -738,430 -1477,857 -2214,1289 -85,50 -145,51 -231,-1 -801,-483 -1605,-961 -2409,-1441 -31,-19 -61,-42 -108,-74 921,-531 1828,-1054 2760,-1591 0,367 0,714 0,1062 -1,120 -2,240 -4,360 -1,106 60,180 153,166 60,-8 145,-87 157,-147 26,-134 17,-277 18,-416 1,-388 0,-775 0,-1191 884,519 1745,1026 2626,1543z"/>
   <path class="fil4 str0" d="M12792 8132l-2381 -1399 -3892 1812 2381 1399 3892 -1812z"/>
   <path class="fil5 str0" d="M9449 7736l-368 -217 86 -40 368 216 -86 41z"/>
   <path class="fil5 str0" d="M9292 7809l-368 -217 86 -40 369 216 -87 41z"/>
   <path class="fil5 str0" d="M9136 7882l-369 -217 87 -40 368 216 -86 41z"/>
   <path class="fil5 str0" d="M11145 8732l-1582 -929 87 -40 1581 929 -86 40z"/>
   <path class="fil5 str0" d="M10988 8805l-1581 -929 86 -41 1581 930 -86 40z"/>
   <path class="fil5 str0" d="M10831 8878l-1581 -929 86 -41 1582 930 -87 40z"/>
   <path class="fil5 str0" d="M8923 7980l-368 -216 86 -40 368 216 -86 40z"/>
   <path class="fil5 str0" d="M8767 8053l-369 -216 87 -40 368 216 -86 40z"/>
   <path class="fil5 str0" d="M8610 8126l-369 -216 87 -40 368 216 -86 40z"/>
   <path class="fil5 str0" d="M10619 8977l-1582 -930 87 -40 1581 929 -86 41z"/>
   <path class="fil5 str0" d="M10462 9050l-1581 -929 86 -41 1582 929 -87 41z"/>
   <path class="fil5 str0" d="M10306 9123l-1582 -929 87 -41 1581 929 -86 41z"/>
   <path class="fil5 str0" d="M9337 9572l-927 -545 87 -40 926 545 -86 40z"/>
   <path class="fil5 str0" d="M9180 9645l-926 -545 86 -40 927 544 -87 41z"/>
   <path class="fil5 str0" d="M9024 9717l-927 -544 87 -40 926 544 -86 40z"/>
   <path class="fil5 str0" d="M8867 9790l-926 -544 86 -40 927 544 -87 40z"/>
   <path class="fil5 str0" d="M8203 8906l-926 -545 86 -40 927 544 -87 41z"/>
   <path class="fil5 str0" d="M8047 8979l-927 -545 86 -40 927 544 -86 41z"/>
   <path class="fil5 str0" d="M7890 9051l-927 -544 87 -40 926 544 -86 40z"/>
   <path class="fil5 str0" d="M7733 9124l-926 -544 86 -40 927 544 -87 40z"/>
   <path class="fil5 str0" d="M8751 8551l-368 -216 86 -40 369 216 -87 40z"/>
   <path class="fil5 str0" d="M8299 8671l-282 -166 87 -40 282 165 -87 41z"/>
   <path class="fil6 str0" d="M8219 8333l-210 -123 267 -124 209 123 -266 124z"/>
   <path class="fil7 str0" d="M7853 8503l-209 -123 266 -124 210 123 -267 124z"/>
   <path class="fil5 str0" d="M9700 9109l-183 -108 86 -40 184 107 -87 41z"/>
   <path class="fil5 str0" d="M9433 9337l-282 -166 86 -40 282 166 -86 40z"/>
   <path class="fil8 str0" d="M9353 8999l-210 -123 267 -124 209 123 -266 124z"/>
   <path class="fil9 str0" d="M8987 9170l-210 -124 267 -124 209 123 -266 125z"/>
   <path class="fil5 str0" d="M11010 7728l-86 40 981 576 86 -40 -981 -576z"/>
   <path class="fil5 str0" d="M10854 7801l-87 40 981 576 86 -40 -980 -576z"/>
   <path class="fil5 str0" d="M10697 7874l-86 40 980 576 87 -40 -981 -576z"/>
   <path class="fil5 str0" d="M10541 7946l-87 41 981 576 86 -41 -980 -576z"/>
   <path class="fil10 str0" d="M11994 8172l-734 -431 343 -160 734 431 -343 160z"/>
   <path class="fil4 str0" d="M11717 7890l-13 6c-32,15 -63,23 -92,23 -29,1 -55,-5 -78,-19 -24,-14 -33,-28 -28,-44 6,-15 25,-31 59,-46l117 -55c36,-17 70,-27 99,-29 29,-2 54,3 75,15 9,5 15,11 19,17 3,6 4,13 1,19l17 -8 33 19 -96 45 -35 -21 8 -4c16,-8 25,-15 28,-22 4,-6 1,-12 -8,-17 -10,-6 -22,-9 -35,-8 -13,1 -28,5 -45,13l-141 66c-17,8 -27,15 -30,22 -3,6 0,13 11,19 10,6 22,8 35,7 14,-1 29,-5 45,-13l16 -7 38 22z"/>
   <path class="fil4 str0" d="M11694 7990l222 -164 -15 -9 42 -19 76 45 -42 19 -17 -10 -156 105 219 -68 -19 -11 42 -20 72 43 -41 19 -16 -9 -335 98 -32 -19z"/>
   <path class="fil10 str0" d="M10200 7924l-838 -487 1061 -498 837 487 -1060 498z"/>
   <path class="fil11 str0" d="M10473 7490c-71,27 -156,69 -203,101 -29,19 -25,90 -71,91 -71,2 -200,-76 -229,-93 -30,-18 -137,-80 -119,-115 11,-21 129,-16 163,-32 45,-21 136,-50 192,-88 34,-23 67,67 91,81 22,12 219,38 176,55z"/>
   <path class="fil11 str0" d="M10253 7316c-16,7 -39,7 -51,0l0 0c-13,-8 -14,-13 46,-41l30 -23c26,-12 11,13 24,21l7 4c12,7 11,7 -5,15l-51 24z"/>
   <path class="fil11 str0" d="M10508 7465c-15,7 -18,19 -5,26l0 0c13,7 24,8 83,-19l46 -14c26,-12 -24,-7 -37,-14l-6 -4c-13,-8 -14,-7 -29,0l-52 25z"/>
   <path class="fil12 str0" d="M10270 7591c47,-32 132,-74 203,-101 43,-17 -154,-43 -176,-55 -24,-14 -57,-104 -91,-81 -23,16 -53,30 -83,43l-117 241c39,17 163,45 193,44 46,-1 42,-72 71,-91z"/>
   <path class="fil11 str0" d="M10481 7226c-61,-3 -127,38 -178,62l-90 42c-26,12 -58,25 -72,41 -24,28 -25,69 -6,96 8,11 29,13 45,22l427 -202c-34,-20 -78,-59 -126,-61z"/>
   <path class="fil13 str0" d="M10577 7448c58,-27 140,-58 136,-93 -3,-22 -74,-50 -104,-67 0,0 -3,-2 -4,-2l-427 202c0,0 2,1 3,1 16,10 35,31 56,37 62,0 96,5 163,0 30,-6 62,-24 87,-36l90 -42z"/>
   <path class="fil14 str0" d="M10442 7191c-9,1 -18,3 -26,5 -36,9 -59,24 -76,42 -17,17 -32,34 -59,48 -14,7 -14,14 -15,24 15,-9 28,-17 42,-24 18,-10 39,-17 65,-16 17,0 29,-4 40,-10 6,-4 11,-7 17,-10 25,-15 51,-18 79,-8 20,8 37,17 54,27 37,21 73,44 109,66 4,2 7,4 10,6 15,10 13,22 -5,32 -7,4 -14,8 -22,10 -29,7 -42,19 -47,34 -4,12 -17,23 -36,31 -14,5 -28,10 -42,16 0,1 1,1 1,2 12,-2 25,-4 36,-7 24,-7 48,-16 73,-23 43,-14 84,-28 117,-49 27,-17 51,-49 17,-66 -1,2 -32,-3 -28,-7 10,-13 -6,-28 -18,-40 -24,-23 -62,-39 -94,-59 -79,-50 -180,-27 -192,-24z"/>
   <path class="fil15 str0" d="M9866 7730l135 -40 194 -58c-22,6 76,-42 76,-42 -6,-1 -243,-29 -250,-30 1,2 -111,57 -240,120l85 50z"/>
   <path class="fil15 str0" d="M9702 7634l82 48c136,-63 256,-117 261,-117 -1,-3 -27,-121 -28,-125 0,0 -107,45 -93,34l-132 95 -90 65z"/>
   <path class="fil4 str0" d="M10194 7682l-75 5 -4 -8 79 3z"/>
   <path class="fil16 str0" d="M9858 7725l340 198c65,-68 112,-97 152,-116 13,-6 -92,-83 -83,-171l12 -51c-7,4 -196,72 -196,72l-225 68z"/>
   <path class="fil17 str0" d="M10042 7562l-150 21 -61 84 158 -29 60 -72 -7 -4z"/>
   <path class="fil4 str0" d="M10023 7438l-175 151 196 -27 -21 -124z"/>
   <path class="fil4 str0" d="M10278 7587l-306 75 73 -99 233 24z"/>
   <path class="fil17 str0" d="M9813 7699l174 -109 -226 79 52 30z"/>
   <path class="fil18 str0" d="M9975 7793l71 -13 -24 -54 150 11 95 -96 11 -56 -422 139 119 69z"/>
   <path class="fil16 str0" d="M9421 7471c76,-45 140,-77 140,-77 -74,17 -139,32 -197,44l57 33z"/>
   <path class="fil16 str0" d="M9712 7640l155 -99c0,0 154,-103 163,-106l-74 5c-248,3 -320,-74 -355,-59 -7,3 -114,27 -230,61l341 198z"/>
   <path class="fil18 str0" d="M9629 7537l-32 36 119 69 313 -207 -126 6 -179 35 5 80 -100 -19z"/>
   <path class="fil4 str0" d="M12604 7770c-261,155 -503,299 -747,441 -738,430 -1478,857 -2214,1289 -85,50 -145,51 -232,-1 -800,-483 -1605,-961 -2408,-1441 -32,-19 -61,-42 -108,-74 921,-531 1828,-1054 2759,-1591 0,367 1,714 0,1062 0,120 -1,240 -3,360 -2,106 59,180 153,167 60,-9 144,-88 156,-148 27,-134 18,-277 18,-416 2,-388 1,-776 1,-1191 883,519 1745,1026 2625,1543z"/>
   <path class="fil3 str0" d="M12734 7554c-262,154 -504,299 -748,441 -737,430 -1477,857 -2213,1289 -86,50 -145,51 -232,-1 -801,-483 -1605,-961 -2408,-1441 -32,-19 -61,-42 -108,-74 921,-531 1827,-1054 2759,-1591 0,367 0,714 0,1062 0,120 -2,240 -4,360 -1,106 60,180 153,166 61,-8 145,-87 157,-147 26,-135 17,-277 18,-416 1,-388 0,-776 0,-1191 884,519 1746,1026 2626,1543z"/>
   <path class="fil1 str0" d="M12734 7251c-262,155 -504,300 -748,442 -737,429 -1477,856 -2214,1288 -85,50 -144,51 -231,-1 -801,-483 -1605,-961 -2408,-1440 -32,-19 -61,-42 -108,-75 921,-531 1827,-1054 2759,-1591 0,367 0,714 0,1062 0,120 -2,240 -4,360 -1,106 60,180 153,167 60,-9 145,-88 157,-148 26,-134 17,-276 18,-415 1,-388 0,-776 0,-1192 884,520 1746,1026 2626,1543z"/>
   <path class="fil2 str0" d="M12393 7155c-261,154 -503,299 -747,441 -738,430 -1477,856 -2214,1289 -85,50 -145,51 -231,-2 -801,-483 -1605,-960 -2409,-1440 -31,-19 -61,-42 -108,-75 921,-531 1828,-1053 2760,-1590 0,366 0,714 -1,1062 0,120 -1,240 -3,360 -2,105 59,180 153,166 60,-8 145,-87 157,-147 26,-135 17,-277 17,-416 2,-388 1,-776 1,-1191 883,519 1745,1026 2625,1543z"/>
   <path class="fil3 str0" d="M12388 6905c-262,155 -504,300 -747,442 -738,429 -1478,856 -2214,1289 -86,50 -145,50 -232,-2 -801,-483 -1605,-961 -2408,-1440 -32,-19 -61,-42 -108,-75 921,-531 1827,-1054 2759,-1591 0,367 0,715 0,1062 0,120 -2,240 -3,361 -2,105 59,179 152,166 61,-9 145,-88 157,-147 26,-135 17,-277 18,-416 1,-388 0,-776 0,-1191 884,519 1746,1025 2626,1542z"/>
   <path class="fil1 str0" d="M12734 6819c-262,155 -504,299 -748,441 -737,430 -1477,857 -2213,1289 -86,50 -145,51 -232,-1 -801,-483 -1605,-961 -2408,-1441 -32,-19 -61,-42 -108,-74 921,-531 1827,-1054 2759,-1591 0,367 0,714 0,1062 0,120 -2,240 -4,360 -1,106 60,180 153,166 61,-8 145,-87 157,-147 26,-134 17,-277 18,-416 1,-388 0,-776 0,-1191 884,519 1746,1026 2626,1543z"/>
   <path class="fil2 str0" d="M12523 6636c-261,154 -503,299 -747,441 -738,430 -1478,857 -2214,1289 -85,50 -145,51 -231,-1 -801,-483 -1606,-961 -2409,-1441 -32,-19 -61,-42 -108,-74 921,-531 1828,-1054 2759,-1591 0,367 1,714 0,1062 0,120 -1,240 -3,360 -2,106 59,180 153,167 60,-9 144,-88 156,-148 27,-135 18,-277 18,-416 2,-388 1,-776 1,-1191 883,519 1745,1026 2625,1543z"/>
   <path class="fil3 str0" d="M12517 6387c-261,154 -503,299 -747,441 -738,430 -1477,856 -2214,1289 -85,50 -145,51 -231,-2 -801,-483 -1605,-960 -2408,-1440 -32,-19 -62,-42 -108,-75 920,-531 1827,-1053 2759,-1590 0,366 0,714 0,1062 -1,120 -2,240 -4,360 -1,105 59,180 153,166 60,-8 145,-87 157,-147 26,-135 17,-277 18,-416 1,-388 0,-776 0,-1191 884,519 1745,1026 2625,1543z"/>
   <path class="fil4 str0" d="M12604 5998c-261,154 -503,299 -747,441 -738,429 -1478,856 -2214,1289 -85,50 -145,51 -232,-2 -800,-483 -1605,-960 -2408,-1440 -32,-19 -61,-42 -108,-75 921,-531 1828,-1053 2759,-1591 0,367 1,715 0,1063 0,120 -1,240 -3,360 -2,105 59,179 153,166 60,-8 144,-88 156,-147 27,-135 18,-277 18,-416 2,-388 1,-776 1,-1191 883,519 1745,1026 2625,1543z"/>
   <path class="fil3 str0" d="M12561 5911c-262,155 -504,299 -747,441 -738,430 -1478,857 -2214,1289 -86,50 -145,51 -232,-1 -801,-483 -1605,-961 -2408,-1440 -32,-19 -61,-43 -108,-75 921,-531 1827,-1054 2759,-1591 0,367 0,714 0,1062 0,120 -2,240 -4,360 -1,106 60,180 153,167 61,-9 145,-88 157,-148 26,-134 17,-277 18,-416 1,-387 0,-775 0,-1191 884,519 1746,1026 2626,1543z"/>
   <path class="fil1 str0" d="M12561 5609c-262,154 -504,299 -747,441 -738,429 -1478,856 -2214,1289 -86,50 -145,50 -232,-2 -801,-483 -1605,-961 -2408,-1440 -32,-19 -61,-42 -108,-75 921,-531 1827,-1053 2759,-1591 0,367 0,715 0,1062 0,120 -2,241 -4,361 -1,105 60,179 153,166 61,-9 145,-88 157,-147 26,-135 17,-277 18,-416 1,-388 0,-776 0,-1191 884,519 1746,1025 2626,1543z"/>
   <path class="fil2 str0" d="M12220 5512c-261,154 -503,299 -747,441 -738,430 -1477,857 -2214,1289 -85,50 -145,51 -231,-1 -801,-484 -1605,-961 -2408,-1441 -32,-19 -62,-42 -109,-74 921,-531 1828,-1054 2760,-1591 0,366 0,714 0,1062 -1,120 -2,240 -4,360 -2,106 59,180 153,167 60,-9 145,-88 157,-148 26,-134 17,-277 17,-416 2,-388 1,-776 1,-1191 884,519 1745,1026 2625,1543z"/>
   <path class="fil3 str0" d="M12215 5263c-262,154 -504,299 -747,441 -738,429 -1478,856 -2214,1289 -86,50 -145,51 -232,-2 -801,-483 -1605,-960 -2408,-1440 -32,-19 -61,-42 -108,-75 921,-531 1827,-1053 2759,-1590 0,366 0,714 0,1062 0,120 -2,240 -3,360 -2,105 59,179 152,166 61,-8 145,-87 157,-147 27,-135 17,-277 18,-416 1,-388 0,-776 0,-1191 884,519 1746,1026 2626,1543z"/>
   <path class="fil1 str0" d="M12561 5176c-262,155 -504,300 -747,441 -738,430 -1478,857 -2214,1289 -86,50 -145,51 -232,-1 -801,-483 -1605,-961 -2408,-1440 -32,-19 -61,-42 -108,-75 921,-531 1827,-1054 2759,-1591 0,367 0,714 0,1062 0,120 -2,240 -4,360 -1,106 60,180 153,167 61,-9 145,-88 157,-148 26,-134 17,-276 18,-416 1,-387 0,-775 0,-1191 884,520 1746,1026 2626,1543z"/>
   <path class="fil2 str0" d="M12350 4993c-261,155 -503,300 -747,442 -738,429 -1478,856 -2214,1288 -85,50 -145,51 -231,-1 -801,-483 -1606,-961 -2409,-1440 -32,-19 -61,-42 -108,-75 921,-531 1828,-1054 2759,-1591 0,367 1,714 0,1062 0,120 -1,240 -3,360 -2,106 59,180 153,167 60,-9 144,-88 156,-148 27,-134 18,-276 18,-415 2,-388 1,-776 1,-1192 883,520 1745,1026 2625,1543z"/>
   <path class="fil3 str0" d="M12345 4744c-262,154 -504,299 -748,441 -738,430 -1477,857 -2214,1289 -85,50 -145,51 -231,-1 -801,-484 -1605,-961 -2408,-1441 -32,-19 -61,-42 -108,-75 920,-530 1827,-1053 2759,-1590 0,366 0,714 0,1062 0,120 -2,240 -4,360 -1,106 60,180 153,166 60,-8 145,-87 157,-147 26,-135 17,-277 18,-416 1,-388 0,-776 0,-1191 884,519 1745,1026 2626,1543z"/>
   <path class="fil4 str0" d="M12803 4172l-2453 -1278 -3584 2110 2452 1279 3585 -2111z"/>
   <path class="fil5 str0" d="M9521 3984l-379 -198 80 -47 379 198 -80 47z"/>
   <path class="fil5 str0" d="M9377 4069l-379 -198 79 -47 380 198 -80 47z"/>
   <path class="fil5 str0" d="M9233 4154l-379 -198 79 -47 379 198 -79 47z"/>
   <path class="fil5 str0" d="M11268 4895l-1629 -850 80 -47 1629 850 -80 47z"/>
   <path class="fil5 str0" d="M11124 4979l-1629 -849 79 -47 1629 850 -79 46z"/>
   <path class="fil5 str0" d="M10979 5064l-1628 -849 79 -47 1629 850 -80 46z"/>
   <path class="fil5 str0" d="M9037 4269l-379 -198 79 -47 380 198 -80 47z"/>
   <path class="fil5 str0" d="M8893 4354l-379 -198 79 -47 380 198 -80 47z"/>
   <path class="fil5 str0" d="M8749 4439l-380 -198 80 -47 379 198 -79 47z"/>
   <path class="fil5 str0" d="M10784 5180l-1629 -850 79 -46 1629 849 -79 47z"/>
   <path class="fil5 str0" d="M10640 5265l-1629 -850 79 -46 1629 849 -79 47z"/>
   <path class="fil5 str0" d="M10495 5350l-1629 -849 80 -47 1629 849 -80 47z"/>
   <path class="fil5 str0" d="M9603 5873l-955 -498 80 -47 954 498 -79 47z"/>
   <path class="fil5 str0" d="M9459 5958l-955 -498 80 -47 954 498 -79 47z"/>
   <path class="fil5 str0" d="M9314 6043l-954 -498 79 -47 955 498 -80 47z"/>
   <path class="fil5 str0" d="M9170 6128l-954 -498 79 -47 955 498 -80 47z"/>
   <path class="fil5 str0" d="M8435 5264l-954 -497 79 -47 955 497 -80 47z"/>
   <path class="fil5 str0" d="M8291 5349l-955 -498 80 -46 955 497 -80 47z"/>
   <path class="fil5 str0" d="M8147 5434l-955 -498 80 -46 954 497 -79 47z"/>
   <path class="fil5 str0" d="M8002 5519l-954 -498 79 -47 955 498 -80 47z"/>
   <path class="fil5 str0" d="M8930 4865l-380 -198 80 -47 379 198 -79 47z"/>
   <path class="fil5 str0" d="M8504 5017l-291 -151 80 -47 290 151 -79 47z"/>
   <path class="fil5 str0" d="M9907 5375l-189 -99 80 -47 189 99 -80 47z"/>
   <path class="fil5 str0" d="M9672 5626l-291 -152 80 -46 290 151 -79 47z"/>
   <path class="fil5 str0" d="M11034 3874l-79 47 1009 526 80 -47 -1010 -526z"/>
   <path class="fil5 str0" d="M10890 3959l-80 47 1010 526 80 -47 -1010 -526z"/>
   <path class="fil5 str0" d="M10746 4044l-80 47 1010 526 79 -47 -1009 -526z"/>
   <path class="fil5 str0" d="M10601 4129l-79 47 1010 526 79 -47 -1010 -526z"/>
   <path class="fil5 str0" d="M9910 3310l-79 47 1010 526 79 -47 -1010 -526z"/>
   <path class="fil5 str0" d="M9766 3395l-79 47 1009 526 80 -47 -1010 -526z"/>
   <path class="fil5 str0" d="M9622 3480l-80 47 1010 526 80 -47 -1010 -526z"/>
   <path class="fil5 str0" d="M9478 3565l-80 47 1010 526 79 -47 -1009 -526z"/>
  </g>
  <path class="fil19 str1" d="M3809 16364l61 0 0 401 268 -401 67 0 0 506 -61 0 0 -399 -268 399 -67 0 0 -506zm508 506l0 -506 67 0 0 209 262 0 0 -209 67 0 0 506 -67 0 0 -238 -262 0 0 238 -67 0zm553 -506l308 0 0 446 45 0 0 177 -59 0 0 -117 -335 0 0 117 -59 0 0 -177 39 0c41,-61 61,-185 61,-372l0 -74zm241 60l-177 0 0 26c0,43 -4,102 -11,176 -8,75 -23,136 -46,184l234 0 0 -386zm192 -60l61 0 0 401 269 -401 66 0 0 506 -60 0 0 -399 -269 399 -67 0 0 -506zm503 506l0 -506 190 0c38,0 69,6 93,16 23,10 41,26 54,47 14,21 20,43 20,67 0,21 -6,42 -17,61 -12,19 -29,34 -53,46 30,9 54,24 70,46 17,21 25,47 25,76 0,24 -5,46 -15,66 -10,21 -22,36 -37,47 -15,11 -33,20 -55,25 -23,6 -50,9 -82,9l-193 0zm67 -293l110 0c29,0 51,-2 63,-6 17,-5 30,-14 39,-25 8,-12 13,-27 13,-45 0,-16 -4,-31 -12,-44 -8,-13 -20,-21 -35,-26 -15,-5 -40,-7 -77,-7l-101 0 0 153zm0 233l126 0c22,0 37,0 46,-2 15,-3 28,-7 38,-14 11,-6 19,-16 26,-28 7,-12 10,-27 10,-43 0,-19 -5,-35 -15,-49 -9,-14 -23,-24 -40,-29 -17,-6 -42,-9 -74,-9l-117 0 0 174zm408 -446l61 0 0 401 269 -401 66 0 0 506 -61 0 0 -399 -268 399 -67 0 0 -506zm552 0l307 0 0 446 46 0 0 177 -60 0 0 -117 -334 0 0 117 -59 0 0 -177 38 0c41,-61 62,-185 62,-372l0 -74zm240 60l-176 0 0 26c0,43 -4,102 -12,176 -7,75 -23,136 -45,184l233 0 0 -386zm148 -60l68 0 165 311 144 -311 66 0 -189 393c-24,50 -43,82 -59,97 -15,15 -36,23 -65,23 -17,0 -38,-4 -63,-12l0 -57c18,10 37,15 57,15 16,0 30,-5 42,-16 12,-10 25,-34 39,-71l-205 -372zm397 506l194 -506 74 0 205 506 -76 0 -58 -153 -213 0 -55 153 -71 0zm146 -208l172 0 -53 -140c-16,-42 -28,-78 -36,-105 -7,33 -16,65 -28,97l-55 148zm433 -298l316 0 0 506 -67 0 0 -446 -182 0 0 260c0,53 -2,92 -7,116 -5,25 -16,44 -31,58 -16,13 -37,20 -61,20 -15,0 -32,-3 -53,-9l12 -59c11,5 20,8 28,8 15,0 26,-5 34,-17 7,-11 11,-38 11,-80l0 -357zm429 0l67 0 0 216 120 0c56,0 97,6 122,19 25,13 44,31 55,54 11,22 16,46 16,70 0,39 -13,73 -40,102 -27,30 -76,45 -149,45l-191 0 0 -506zm67 449l122 0c49,0 82,-9 97,-27 15,-17 22,-39 22,-63 0,-21 -5,-38 -16,-52 -11,-14 -26,-23 -44,-27 -18,-4 -49,-6 -92,-6l-89 0 0 175zm396 57l0 -506 67 0 0 209 261 0 0 -209 67 0 0 506 -67 0 0 -238 -261 0 0 238 -67 0zm510 -506l67 0 0 216 120 0c79,0 131,14 156,44 25,29 37,62 37,99 0,39 -13,73 -40,103 -26,29 -76,44 -148,44l-192 0 0 -506zm67 449l122 0c42,0 72,-8 91,-22 19,-14 28,-36 28,-67 0,-21 -5,-39 -17,-53 -11,-15 -26,-24 -44,-28 -18,-3 -48,-5 -91,-5l-89 0 0 175zm374 -449l67 0 0 506 -67 0 0 -506zm182 506l0 -506 364 0 0 60 -297 0 0 155 278 0 0 59 -278 0 0 172 309 0 0 60 -376 0zm666 -506l396 0 0 506 -67 0 0 -446 -262 0 0 446 -67 0 0 -506zm506 506l0 -506 191 0c33,0 59,2 77,5 24,4 45,12 62,24 17,11 30,28 41,48 10,21 15,44 15,69 0,43 -14,79 -41,109 -27,30 -77,45 -148,45l-130 0 0 206 -67 0zm67 -266l131 0c43,0 73,-8 92,-24 18,-16 27,-38 27,-68 0,-21 -5,-39 -16,-54 -11,-15 -25,-25 -42,-30 -12,-3 -33,-4 -63,-4l-129 0 0 180zm405 -240l61 0 0 401 269 -401 66 0 0 506 -61 0 0 -399 -268 399 -67 0 0 -506zm507 0l327 0 0 60 -260 0 0 446 -67 0 0 -506zm379 0l315 0 0 506 -67 0 0 -446 -181 0 0 260c0,53 -3,92 -8,116 -5,25 -15,44 -31,58 -16,13 -36,20 -60,20 -15,0 -33,-3 -54,-9l12 -59c11,5 21,8 28,8 15,0 27,-5 34,-17 8,-11 12,-38 12,-80l0 -357zm370 506l194 -506 73 0 206 506 -76 0 -59 -153 -212 0 -55 153 -71 0zm145 -208l172 0 -52 -140c-16,-42 -28,-78 -36,-105 -7,33 -17,65 -28,97l-56 148zm382 -298l67 0 0 446 168 0 0 -446 67 0 0 446 167 0 0 -446 67 0 0 506 -536 0 0 -506zm647 506l0 -506 365 0 0 60 -298 0 0 155 279 0 0 59 -279 0 0 172 310 0 0 60 -377 0zm472 0l0 -506 67 0 0 209 261 0 0 -209 67 0 0 506 -67 0 0 -238 -261 0 0 238 -67 0zm508 -506l61 0 0 401 269 -401 66 0 0 506 -61 0 0 -399 -268 399 -67 0 0 -506zm905 506l0 -506 -224 0c-45,0 -79,5 -102,14 -24,9 -42,25 -56,48 -14,23 -21,48 -21,76 0,36 11,66 34,91 24,24 59,40 108,47 -18,8 -31,17 -41,25 -19,18 -37,40 -55,67l-87 138 83 0 67 -105c20,-31 36,-54 48,-70 13,-16 24,-27 34,-34 10,-6 20,-11 31,-13 7,-2 20,-3 37,-3l77 0 0 225 67 0zm-67 -283l-143 0c-31,0 -55,-3 -72,-9 -17,-6 -30,-16 -39,-30 -9,-14 -13,-29 -13,-46 0,-24 8,-43 26,-59 17,-15 44,-23 82,-23l159 0 0 167z"/>
 </g>
</svg>
