<?xml version="1.0" encoding="UTF-8"?>
<!DOCTYPE svg PUBLIC "-//W3C//DTD SVG 1.0//EN" "http://www.w3.org/TR/2001/REC-SVG-20010904/DTD/svg10.dtd">
<!-- Creator: CorelDRAW X7 -->
<svg xmlns="http://www.w3.org/2000/svg" xml:space="preserve" width="200mm" height="200mm" version="1.0" style="shape-rendering:geometricPrecision; text-rendering:geometricPrecision; image-rendering:optimizeQuality; fill-rule:evenodd; clip-rule:evenodd"
viewBox="0 0 20000 20000"
 xmlns:xlink="http://www.w3.org/1999/xlink">
 <defs>
  <style type="text/css">
   <![CDATA[
    .str0 {stroke:#2E99A3;stroke-width:25}
    .fil0 {fill:#FEFEFE}
    .fil19 {fill:#F9D1A0}
    .fil16 {fill:#F3C597}
    .fil17 {fill:#EEA176}
    .fil3 {fill:#F1F6EA}
    .fil13 {fill:#E7BC91}
    .fil18 {fill:#E29369}
    .fil8 {fill:#C85D4D}
    .fil9 {fill:#CDD1BD}
    .fil2 {fill:#AC372D}
    .fil14 {fill:#A46B30}
    .fil15 {fill:#9F6630}
    .fil5 {fill:#4D5671}
    .fil11 {fill:#454D5D}
    .fil6 {fill:#444958}
    .fil12 {fill:#3D4249}
    .fil4 {fill:#42475A}
    .fil10 {fill:#3D404B}
    .fil7 {fill:#393944}
    .fil20 {fill:#2E99A3}
    .fil1 {fill:url(#id0)}
   ]]>
  </style>
  <radialGradient id="id0" gradientUnits="userSpaceOnUse" gradientTransform="matrix(1.41421 -0 -0 1.41421 -4137 -4151)" cx="9986.73" cy="10020.6" r="10000" fx="9986.73" fy="10020.6">
   <stop offset="0" style="stop-opacity:1; stop-color:#FEFEFE"/>
   <stop offset="0.439216" style="stop-opacity:1; stop-color:#FEFEFE"/>
   <stop offset="1" style="stop-opacity:1; stop-color:#D1E2F2"/>
  </radialGradient>
 </defs>
 <g id="Layer_x0020_1">
  <metadata id="CorelCorpID_0Corel-Layer"/>
  <path class="fil0" d="M31761 12139c22,-21 33,-48 33,-81 0,-33 -11,-60 -33,-82 -22,-22 -49,-33 -82,-33 -32,0 -58,11 -80,33 -21,22 -32,49 -32,82 0,33 11,60 32,81 22,21 49,32 80,32 32,0 59,-11 82,-32l0 0z"/>
  <path class="fil1" d="M-13 21l20000 0 0 20000 -20000 0 0 -20000z"/>
  <g id="_324741921984">
   <path class="fil2" d="M15794 6274c-721,0 -1267,-636 -1346,-733 -7,-8 -10,-12 -10,-12 -6,-8 -11,-16 -14,-26 79,97 625,734 1346,734 781,0 1356,-746 1356,-746 16,-20 24,-47 24,-75 0,-16 -3,-33 -9,-49 6,8 10,13 10,13 6,7 10,16 14,25 16,40 11,90 -14,124 0,0 -576,745 -1357,745z"/>
   <path class="fil3" d="M17126 5342c32,41 32,108 0,149 0,0 -575,746 -1356,746 -781,0 -1356,-746 -1356,-746 -32,-41 -32,-108 0,-149 0,0 575,-746 1356,-746 781,0 1356,746 1356,746z"/>
   <path class="fil4" d="M16491 5463c0,399 -323,721 -721,721 -398,0 -721,-322 -721,-721 0,-398 323,-721 721,-721 398,0 721,323 721,721z"/>
   <path class="fil5" d="M16378 5463c0,336 -272,608 -608,608 -336,0 -608,-272 -608,-608 0,-335 272,-608 608,-608 336,0 608,273 608,608z"/>
   <path class="fil6" d="M15770 6010c-14,0 -27,-120 -33,-296 11,-35 22,-72 33,-112 11,40 22,77 33,112 -6,176 -19,296 -33,296zm0 -686c-11,-39 -22,-76 -33,-111 2,-49 4,-93 6,-131 9,0 18,0 27,0 9,0 18,0 27,0 2,38 4,82 6,131 -11,35 -22,72 -33,111z"/>
   <path class="fil6" d="M15911 5992c-15,0 -57,-112 -108,-278 -11,-35 -22,-72 -33,-112 4,-14 8,-29 13,-44 29,50 57,96 84,139 39,171 58,291 45,294 -1,0 -1,1 -1,1l0 0zm-153 -624c-30,-49 -58,-96 -85,-138 -12,-54 -23,-103 -31,-145 18,-1 36,-2 53,-2 13,38 27,81 42,130 11,35 22,72 33,111 -4,15 -8,29 -12,44z"/>
   <path class="fil6" d="M16042 5937c-16,0 -85,-96 -175,-240 -27,-43 -55,-89 -84,-139 2,-8 4,-15 6,-23 48,46 93,90 135,129 83,155 132,266 119,273 0,0 -1,0 -1,0l0 0zm-291 -545c-48,-47 -93,-90 -135,-129 -35,-66 -64,-124 -85,-169 17,-2 34,-3 51,-5 26,38 57,86 91,141 27,42 55,89 85,138 -3,8 -5,16 -7,24z"/>
   <path class="fil6" d="M16154 5851c-19,0 -109,-74 -230,-187 -42,-39 -87,-83 -135,-129 2,-5 3,-10 4,-16 63,36 123,69 178,98 120,129 196,223 186,233 -1,1 -2,1 -3,1l0 0zm-407 -444c-63,-36 -123,-69 -177,-98 -82,-87 -143,-158 -171,-198 12,-2 24,-4 36,-6 42,32 106,87 181,158 42,39 87,82 135,129 -1,5 -3,10 -4,15z"/>
   <path class="fil6" d="M16238 5739c-25,0 -128,-48 -267,-122 -55,-29 -115,-62 -178,-98 1,-3 2,-7 3,-10 74,19 145,37 208,51 149,93 247,164 240,177 -1,1 -3,2 -6,2l0 0zm-494 -321c-74,-20 -144,-37 -208,-51 -149,-94 -247,-165 -239,-177 0,-1 2,-2 5,-2 25,0 128,47 268,121 54,29 114,62 177,98 -1,4 -2,7 -3,11z"/>
   <path class="fil6" d="M16280 5609c-40,0 -143,-18 -276,-49 -63,-14 -134,-32 -208,-51 1,-3 2,-6 3,-9 79,0 155,-1 222,-4 168,52 281,95 277,109 -1,3 -7,4 -18,4zm-761 -179c-168,-51 -281,-94 -277,-108 1,-3 7,-5 19,-5 40,0 142,19 275,50 64,14 134,31 208,51 -1,3 -2,6 -2,8 -80,1 -155,2 -223,4z"/>
   <path class="fil6" d="M15799 5500c0,-2 1,-4 1,-6 80,-22 155,-43 221,-64 176,7 296,19 296,33 0,15 -120,27 -296,33 -67,3 -143,4 -222,4l0 0zm-280 -4c-175,-6 -296,-18 -296,-33 0,-14 121,-27 296,-33 68,-2 143,-3 223,-4 -1,3 -2,5 -2,7 -80,22 -154,43 -221,63z"/>
   <path class="fil6" d="M15261 5609c-12,0 -18,-1 -19,-4 -4,-14 109,-57 277,-109 67,-20 141,-41 221,-63 -1,2 -1,4 -2,6 -73,42 -141,84 -201,121 -134,31 -236,49 -276,49l0 0zm539 -115c1,-2 1,-4 2,-6 73,-43 142,-84 202,-121 133,-31 235,-50 276,-50 11,0 17,2 18,5 4,14 -109,57 -277,108 -66,21 -141,42 -221,64z"/>
   <path class="fil6" d="M15302 5739c-3,0 -5,-1 -5,-2 -8,-13 90,-84 240,-177 60,-37 128,-79 201,-121 0,2 -1,3 -1,5 -61,61 -118,120 -167,173 -140,74 -243,122 -268,122l0 0zm500 -251c0,-2 1,-4 1,-5 62,-62 118,-121 168,-174 139,-74 242,-121 267,-121 3,0 5,1 6,2 7,12 -91,83 -240,177 -60,37 -129,78 -202,121z"/>
   <path class="fil6" d="M15386 5851c-1,0 -2,0 -2,-1 -11,-10 66,-104 186,-233 49,-53 106,-112 167,-173 -1,2 -1,3 -1,5 -45,77 -85,150 -120,215 -121,113 -211,187 -230,187l0 0zm417 -368c1,-2 1,-4 2,-5 44,-77 84,-150 119,-215 76,-71 139,-126 181,-158 12,2 24,4 36,6 -28,40 -89,111 -170,198 -50,53 -106,112 -168,174z"/>
   <path class="fil6" d="M15498 5937c0,0 -1,0 -1,0 -13,-7 37,-118 119,-273 35,-65 75,-138 120,-215 -1,2 -1,3 -2,5 -23,87 -44,170 -61,243 -90,144 -159,240 -175,240l0 0zm307 -459c0,-2 0,-3 1,-5 23,-87 44,-170 61,-243 34,-55 65,-103 91,-141 17,2 34,3 51,5 -21,45 -50,103 -85,169 -35,65 -75,138 -119,215z"/>
   <path class="fil6" d="M15629 5992c0,0 0,-1 0,-1 -14,-3 5,-123 44,-294 17,-73 38,-156 61,-243 1,-2 1,-3 2,-5 0,-2 0,-3 1,-5 0,-2 1,-3 1,-5 1,-2 1,-4 2,-6 0,-2 1,-4 2,-7 0,-3 1,-5 2,-8 1,-4 2,-7 3,-11 1,-5 3,-10 4,-15 2,-8 4,-16 7,-24 4,-15 8,-29 12,-44 11,-39 22,-76 33,-111 15,-49 29,-92 42,-130 18,0 35,1 53,2 -8,42 -19,91 -31,145 -17,73 -38,156 -61,243 -1,2 -1,3 -1,5 -1,1 -1,3 -2,5 0,1 -1,3 -1,5 -1,2 -1,4 -2,6 0,2 -1,4 -1,6 -1,3 -2,6 -3,9 -1,3 -2,7 -3,10 -1,5 -2,11 -4,16 -2,8 -4,15 -6,23 -5,15 -9,30 -13,44 -11,40 -22,77 -33,112 -51,166 -93,278 -108,278z"/>
   <path class="fil7" d="M16067 5463c0,164 -133,297 -297,297 -164,0 -297,-133 -297,-297 0,-164 133,-297 297,-297 164,0 297,133 297,297z"/>
   <path class="fil8" d="M14402 5362c0,0 0,0 0,0 0,0 0,0 0,0l0 0zm0 0c0,-1 0,-1 0,-1 0,0 0,0 0,1l0 0zm0 -1c3,-7 7,-13 11,-19 -4,6 -8,12 -11,19zm2725 -18c0,0 0,0 0,0 0,0 0,0 0,0l0 0zm-2714 -1c1,0 1,0 1,0 0,0 0,0 -1,0l0 0zm2714 0c0,0 -1,0 -1,0 0,0 1,0 1,0z"/>
   <path class="fil9" d="M17143 5458c-155,-85 -407,-205 -713,-287 -112,-252 -366,-429 -660,-429 -294,0 -547,177 -659,429 -307,82 -558,202 -714,287 -10,-31 -9,-67 5,-96 0,0 0,0 0,0 0,0 0,0 0,0 0,-1 0,-1 0,-1 0,0 0,0 0,0 3,-7 7,-13 11,-19 0,0 0,0 0,0 1,0 1,0 1,0l0 0c0,0 575,-746 1356,-746 781,0 1356,746 1356,746l0 0c0,0 1,0 1,0 0,0 0,0 0,1 0,0 0,0 0,0 24,31 29,77 16,115z"/>
   <path class="fil10" d="M15111 5171c112,-252 365,-429 659,-429 294,0 548,177 660,429 -48,-12 -97,-24 -147,-34 -108,-170 -297,-282 -513,-282 -215,0 -405,112 -513,282 -50,10 -99,22 -146,34z"/>
   <path class="fil11" d="M15257 5137c108,-170 298,-282 513,-282 216,0 405,112 513,282 -46,-10 -94,-19 -142,-26 13,-19 19,-31 16,-34 -1,-1 -2,-1 -3,-1 -7,0 -24,10 -49,29 -32,-4 -64,-8 -96,-11 28,-62 42,-100 34,-104 0,0 0,0 -1,0 -10,0 -40,37 -84,99 -20,-1 -40,-3 -60,-4 17,-90 23,-147 14,-150 -1,0 -1,0 -1,0 -10,0 -35,56 -66,148 -16,-1 -32,-1 -48,-1 -7,-102 -17,-165 -27,-165 -10,0 -20,63 -27,165 -16,0 -32,0 -48,1 -31,-92 -55,-148 -66,-148 0,0 0,0 0,0 -10,3 -4,60 13,150 -20,1 -40,3 -60,4 -44,-62 -74,-99 -84,-99 0,0 -1,0 -1,0 -7,4 6,42 34,104 -32,3 -64,7 -96,11 -25,-19 -42,-29 -49,-29 -1,0 -2,0 -3,1 -3,3 3,15 16,34 -48,7 -95,16 -142,26z"/>
   <path class="fil12" d="M15743 5082c7,-102 17,-165 27,-165 10,0 20,63 27,165 -9,0 -18,0 -27,0 -9,0 -18,0 -27,0z"/>
   <path class="fil12" d="M15642 5085c-17,-90 -23,-147 -13,-150 0,0 0,0 0,0 11,0 35,56 66,148 -17,0 -35,1 -53,2z"/>
   <path class="fil12" d="M15531 5094c-28,-62 -41,-100 -34,-104 0,0 1,0 1,0 10,0 40,37 84,99 -17,2 -34,3 -51,5z"/>
   <path class="fil12" d="M15399 5111c-13,-19 -19,-31 -16,-34 1,-1 2,-1 3,-1 7,0 24,10 49,29 -12,2 -24,4 -36,6z"/>
   <path class="fil12" d="M16141 5111c-12,-2 -24,-4 -36,-6 25,-19 42,-29 49,-29 1,0 2,0 3,1 3,3 -3,15 -16,34z"/>
   <path class="fil12" d="M16009 5094c-17,-2 -34,-3 -51,-5 44,-62 74,-99 84,-99 1,0 1,0 1,0 8,4 -6,42 -34,104z"/>
   <path class="fil12" d="M15898 5085c-18,-1 -35,-2 -53,-2 31,-92 56,-148 66,-148 0,0 0,0 1,0 9,3 3,60 -14,150z"/>
   <path class="fil13" d="M17144 5457c12,-39 6,-84 -18,-115 0,0 -575,-746 -1356,-746 -781,0 -1356,746 -1356,746 -24,31 -30,76 -18,115 257,-222 776,-592 1374,-592 598,0 1117,370 1374,592z"/>
   <path class="fil0" d="M16175 5402c0,63 -50,113 -113,113 -62,0 -113,-50 -113,-113 0,-62 51,-113 113,-113 63,0 113,51 113,113z"/>
  </g>
  <g id="_324741920416">
   <path class="fil14" d="M9659 14002c-92,0 -181,-26 -246,-90 -11,-10 -21,-22 -30,-35 64,63 153,90 245,90 139,0 285,-61 366,-150 160,-177 675,-635 584,-1474 -30,-275 -115,-481 -234,-626 11,11 21,23 31,35 118,146 204,352 234,626 91,840 -425,1298 -585,1475 -80,89 -226,149 -365,149z"/>
   <path class="fil15" d="M9628 13967c-92,0 -181,-27 -245,-90 -30,-30 -55,-68 -72,-114 -86,-237 3,-471 32,-738 29,-267 -150,-410 -259,-593 -109,-184 -183,-759 306,-941 109,-40 225,-62 339,-62 229,0 453,88 615,288 119,145 204,351 234,626 91,839 -424,1297 -584,1474 -81,89 -227,150 -366,150z"/>
   <path class="fil16" d="M9084 12432c-109,-184 -183,-759 306,-941 489,-181 1096,12 1188,852 91,839 -424,1297 -584,1474 -160,176 -576,241 -683,-54 -86,-237 3,-471 32,-738 29,-267 -150,-410 -259,-593z"/>
   <path class="fil17" d="M9658 11710c-171,19 -364,74 -364,346 1,273 127,540 276,607 149,67 142,241 106,316 -36,75 -164,157 -202,199 -37,42 -91,332 94,379 229,59 343,-107 487,-291 143,-185 298,-697 263,-981 -54,-441 -489,-593 -660,-575z"/>
   <path class="fil16" d="M9617 11860c-79,87 223,229 94,279 -129,49 -278,53 -261,129 18,76 207,73 391,131 183,58 235,197 167,382 -68,186 11,138 96,28 85,-109 156,-564 -83,-780 -239,-215 -348,-230 -404,-169z"/>
   <path class="fil16" d="M9986 13055c-59,-19 -123,192 -283,204 -159,12 -241,144 -154,229 86,86 254,20 356,-148 102,-168 140,-267 81,-285z"/>
   <path class="fil18" d="M9636 12018c-65,-67 -169,-103 -257,-61 -88,42 -74,273 40,240 114,-33 281,-113 217,-179z"/>
   <path class="fil18" d="M9530 12410c62,-32 196,27 266,70 69,42 214,149 123,415 -33,98 -103,172 -209,176 -106,4 167,-292 -114,-441 -88,-47 -129,-187 -66,-220z"/>
   <path class="fil18" d="M10253 12726c45,-136 50,-316 28,-459 -34,-226 -226,-422 -436,-502 -86,-33 -184,-41 -274,-26 -15,2 -178,55 -121,81 22,10 68,-19 92,-25 42,-9 85,-9 128,-2 88,13 169,53 247,96 139,79 228,182 279,335 83,248 -30,618 -71,697 -42,80 -83,143 -36,138 46,-5 143,-269 164,-333z"/>
   <path class="fil19" d="M9169 11720c-86,153 -189,423 30,747 171,255 299,259 314,209 15,-50 -196,-129 -246,-438 -51,-308 5,-501 284,-565 279,-64 565,78 676,186 112,108 198,455 198,575 1,120 84,75 91,-41 7,-115 -61,-706 -473,-845 -412,-140 -789,20 -874,172z"/>
   <path class="fil19" d="M9513 13610c58,20 196,68 416,-75 221,-144 355,-435 381,-407 16,16 -93,263 -282,458 -130,133 -219,210 -405,212 -187,3 -268,-119 -243,-158 24,-39 75,-50 133,-30z"/>
  </g>
  <g id="_324741911232">
   <path class="fil2" d="M3693 6274c-721,0 -1267,-636 -1346,-733 -7,-8 -10,-12 -10,-12 -6,-8 -11,-16 -14,-26 79,97 625,734 1346,734 781,0 1356,-746 1356,-746 16,-20 24,-47 24,-75 0,-16 -3,-33 -9,-49 6,8 10,13 10,13 5,7 10,16 14,25 16,40 11,90 -14,124 0,0 -576,745 -1357,745z"/>
   <path class="fil3" d="M5025 5342c32,41 32,108 0,149 0,0 -575,746 -1356,746 -781,0 -1356,-746 -1356,-746 -32,-41 -32,-108 0,-149 0,0 575,-746 1356,-746 781,0 1356,746 1356,746z"/>
   <path class="fil4" d="M4390 5463c0,399 -323,721 -721,721 -398,0 -721,-322 -721,-721 0,-398 323,-721 721,-721 398,0 721,323 721,721z"/>
   <path class="fil5" d="M4277 5463c0,336 -272,608 -608,608 -336,0 -608,-272 -608,-608 0,-335 272,-608 608,-608 336,0 608,273 608,608z"/>
   <path class="fil6" d="M3669 6010c-14,0 -27,-120 -33,-296 11,-35 22,-72 33,-112 11,40 22,77 33,112 -6,176 -19,296 -33,296zm0 -686c-11,-39 -22,-76 -33,-111 2,-49 4,-93 6,-131 9,0 18,0 27,0 9,0 18,0 27,0 2,38 4,82 6,131 -11,35 -22,72 -33,111z"/>
   <path class="fil6" d="M3810 5992c-15,0 -57,-112 -108,-278 -11,-35 -22,-72 -33,-112 4,-14 8,-29 12,-44 30,50 58,96 85,139 39,171 58,291 44,294 0,0 0,1 0,1l0 0zm-153 -624c-30,-49 -58,-96 -85,-138 -12,-54 -23,-103 -31,-145 18,-1 35,-2 53,-2 13,38 27,81 42,130 11,35 22,72 33,111 -4,15 -8,29 -12,44z"/>
   <path class="fil6" d="M3941 5937c-16,0 -85,-96 -175,-240 -27,-43 -55,-89 -85,-139 3,-8 5,-15 7,-23 48,46 93,90 135,129 82,155 132,266 119,273 0,0 -1,0 -1,0l0 0zm-291 -545c-48,-47 -93,-90 -135,-129 -35,-66 -64,-124 -85,-169 17,-2 34,-3 51,-5 26,38 57,86 91,141 27,42 55,89 85,138 -3,8 -5,16 -7,24z"/>
   <path class="fil6" d="M4053 5851c-19,0 -109,-74 -230,-187 -42,-39 -87,-83 -135,-129 1,-5 3,-10 4,-16 63,36 123,69 178,98 120,129 196,223 186,233 -1,1 -2,1 -3,1l0 0zm-407 -444c-63,-36 -123,-69 -178,-98 -81,-87 -142,-158 -170,-198 12,-2 24,-4 36,-6 42,32 106,87 181,158 42,39 87,82 135,129 -1,5 -3,10 -4,15z"/>
   <path class="fil6" d="M4137 5739c-25,0 -128,-48 -267,-122 -55,-29 -115,-62 -178,-98 1,-3 2,-7 3,-10 74,19 144,37 208,51 149,93 247,164 239,177 0,1 -2,2 -5,2l0 0zm-494 -321c-74,-20 -144,-37 -208,-51 -149,-94 -247,-165 -239,-177 0,-1 2,-2 5,-2 25,0 128,47 267,121 55,29 115,62 178,98 -1,4 -2,7 -3,11z"/>
   <path class="fil6" d="M4179 5609c-41,0 -143,-18 -276,-49 -64,-14 -134,-32 -208,-51 1,-3 2,-6 2,-9 80,0 155,-1 223,-4 168,52 281,95 277,109 -1,3 -7,4 -18,4zm-761 -179c-168,-51 -281,-94 -277,-108 1,-3 7,-5 18,-5 41,0 143,19 276,50 64,14 134,31 208,51 -1,3 -2,6 -2,8 -80,1 -156,2 -223,4z"/>
   <path class="fil6" d="M3697 5500c1,-2 2,-4 2,-6 80,-22 154,-43 221,-64 175,7 296,19 296,33 0,15 -121,27 -296,33 -68,3 -143,4 -223,4l0 0zm-279 -4c-175,-6 -296,-18 -296,-33 0,-14 121,-27 296,-33 67,-2 143,-3 223,-4 -1,3 -2,5 -2,7 -80,22 -154,43 -221,63z"/>
   <path class="fil6" d="M3159 5609c-11,0 -17,-1 -18,-4 -4,-14 109,-57 277,-109 67,-20 141,-41 221,-63 -1,2 -1,4 -2,6 -73,42 -141,84 -202,121 -133,31 -235,49 -276,49l0 0zm540 -115c1,-2 1,-4 2,-6 73,-43 141,-84 202,-121 133,-31 235,-50 276,-50 11,0 17,2 18,5 4,14 -109,57 -277,108 -67,21 -141,42 -221,64z"/>
   <path class="fil6" d="M3201 5739c-3,0 -5,-1 -5,-2 -8,-13 90,-84 239,-177 61,-37 129,-79 202,-121 0,2 -1,3 -1,5 -61,61 -118,120 -168,173 -139,74 -242,122 -267,122l0 0zm500 -251c0,-2 1,-4 1,-5 61,-62 118,-121 168,-174 139,-74 242,-121 267,-121 3,0 5,1 5,2 8,12 -90,83 -239,177 -61,37 -129,78 -202,121z"/>
   <path class="fil6" d="M3285 5851c-1,0 -2,0 -3,-1 -10,-10 66,-104 186,-233 50,-53 107,-112 168,-173 -1,2 -1,3 -2,5 -44,77 -84,150 -119,215 -121,113 -211,187 -230,187l0 0zm417 -368c1,-2 1,-4 2,-5 44,-77 84,-150 119,-215 75,-71 139,-126 181,-158 12,2 24,4 36,6 -28,40 -89,111 -170,198 -50,53 -107,112 -168,174z"/>
   <path class="fil6" d="M3397 5937c0,0 -1,0 -1,0 -13,-7 37,-118 119,-273 35,-65 75,-138 119,-215 0,2 0,3 -1,5 -23,87 -44,170 -61,243 -90,144 -159,240 -175,240l0 0zm307 -459c0,-2 0,-3 1,-5 23,-87 44,-170 61,-243 34,-55 65,-103 91,-141 17,2 34,3 51,5 -21,45 -50,103 -85,169 -35,65 -75,138 -119,215z"/>
   <path class="fil6" d="M3528 5992c0,0 0,-1 0,-1 -14,-3 5,-123 44,-294 17,-73 38,-156 61,-243 1,-2 1,-3 1,-5 1,-2 1,-3 2,-5 0,-2 1,-3 1,-5 1,-2 1,-4 2,-6 0,-2 1,-4 2,-7 0,-3 1,-5 2,-8 1,-4 2,-7 3,-11 1,-5 3,-10 4,-15 2,-8 4,-16 7,-24 4,-15 8,-29 12,-44 11,-39 22,-76 33,-111 15,-49 29,-92 42,-130 18,0 35,1 53,2 -8,42 -19,91 -31,145 -17,73 -38,156 -61,243 -1,2 -1,3 -1,5 -1,1 -1,3 -2,5 0,1 -1,3 -1,5 -1,2 -1,4 -2,6 0,2 -1,4 -2,6 0,3 -1,6 -2,9 -1,3 -2,7 -3,10 -1,5 -3,11 -4,16 -2,8 -4,15 -7,23 -4,15 -8,30 -12,44 -11,40 -22,77 -33,112 -51,166 -93,278 -108,278z"/>
   <path class="fil7" d="M3966 5463c0,164 -133,297 -297,297 -164,0 -297,-133 -297,-297 0,-164 133,-297 297,-297 164,0 297,133 297,297z"/>
   <path class="fil8" d="M2301 5362c0,0 0,0 0,0 0,0 0,0 0,0l0 0zm0 0c0,-1 0,-1 0,-1 0,0 0,0 0,1l0 0zm0 -1c3,-7 7,-13 11,-19 -4,6 -8,12 -11,19zm2725 -18c0,0 0,0 0,0 0,0 0,0 0,0l0 0zm-2714 -1c0,0 1,0 1,0 0,0 -1,0 -1,0l0 0zm2714 0c-1,0 -1,0 -1,0 0,0 0,0 1,0z"/>
   <path class="fil9" d="M5042 5458c-155,-85 -407,-205 -713,-287 -113,-252 -366,-429 -660,-429 -294,0 -547,177 -660,429 -306,82 -558,202 -713,287 -11,-31 -9,-67 5,-96 0,0 0,0 0,0 0,0 0,0 0,0 0,-1 0,-1 0,-1 0,0 0,0 0,0 3,-7 7,-13 11,-19 0,0 0,0 0,0 0,0 1,0 1,0l0 0c0,0 575,-746 1356,-746 781,0 1356,746 1356,746l0 0c0,0 0,0 1,0 0,0 0,0 0,1 0,0 0,0 0,0 24,31 29,77 16,115z"/>
   <path class="fil10" d="M3009 5171c113,-252 366,-429 660,-429 294,0 547,177 660,429 -48,-12 -97,-24 -147,-34 -108,-170 -298,-282 -513,-282 -215,0 -405,112 -513,282 -50,10 -99,22 -147,34z"/>
   <path class="fil11" d="M3156 5137c108,-170 298,-282 513,-282 215,0 405,112 513,282 -46,-10 -94,-19 -142,-26 13,-19 19,-31 16,-34 -1,-1 -2,-1 -3,-1 -7,0 -24,10 -49,29 -32,-4 -64,-8 -96,-11 28,-62 42,-100 34,-104 0,0 -1,0 -1,0 -10,0 -40,37 -84,99 -20,-1 -40,-3 -60,-4 17,-90 23,-147 14,-150 -1,0 -1,0 -1,0 -10,0 -35,56 -66,148 -16,-1 -32,-1 -48,-1 -7,-102 -17,-165 -27,-165 -10,0 -20,63 -27,165 -16,0 -32,0 -48,1 -31,-92 -56,-148 -66,-148 0,0 0,0 -1,0 -9,3 -3,60 14,150 -20,1 -40,3 -60,4 -44,-62 -74,-99 -84,-99 0,0 -1,0 -1,0 -8,4 6,42 34,104 -32,3 -64,7 -96,11 -25,-19 -42,-29 -49,-29 -1,0 -2,0 -3,1 -3,3 3,15 16,34 -48,7 -95,16 -142,26z"/>
   <path class="fil12" d="M3642 5082c7,-102 17,-165 27,-165 10,0 20,63 27,165 -9,0 -18,0 -27,0 -9,0 -18,0 -27,0z"/>
   <path class="fil12" d="M3541 5085c-17,-90 -23,-147 -14,-150 1,0 1,0 1,0 10,0 35,56 66,148 -18,0 -35,1 -53,2z"/>
   <path class="fil12" d="M3430 5094c-28,-62 -42,-100 -34,-104 0,0 1,0 1,0 10,0 40,37 84,99 -17,2 -34,3 -51,5z"/>
   <path class="fil12" d="M3298 5111c-13,-19 -19,-31 -16,-34 1,-1 2,-1 3,-1 7,0 24,10 49,29 -12,2 -24,4 -36,6z"/>
   <path class="fil12" d="M4040 5111c-12,-2 -24,-4 -36,-6 25,-19 42,-29 49,-29 1,0 2,0 3,1 3,3 -3,15 -16,34z"/>
   <path class="fil12" d="M3908 5094c-17,-2 -34,-3 -51,-5 44,-62 74,-99 84,-99 0,0 1,0 1,0 8,4 -6,42 -34,104z"/>
   <path class="fil12" d="M3797 5085c-18,-1 -35,-2 -53,-2 31,-92 55,-148 66,-148 0,0 0,0 1,0 9,3 3,60 -14,150z"/>
   <path class="fil13" d="M5043 5457c12,-39 6,-84 -18,-115 0,0 -575,-746 -1356,-746 -781,0 -1356,746 -1356,746 -24,31 -30,76 -18,115 257,-222 776,-592 1374,-592 598,0 1117,370 1374,592z"/>
   <path class="fil0" d="M4074 5402c0,63 -50,113 -113,113 -62,0 -113,-50 -113,-113 0,-62 51,-113 113,-113 63,0 113,51 113,113z"/>
  </g>
  <path class="fil20 str0" d="M5314 2634l0 262 29 0c32,0 60,-11 82,-34 23,-23 34,-50 34,-82l0 -29c0,-32 -11,-59 -33,-82 -23,-23 -50,-35 -83,-35l-29 0zm-57 262l0 -262 -29 0c-32,0 -59,11 -82,34 -22,23 -34,50 -34,83l0 29c0,32 11,59 34,82 23,23 50,34 82,34l29 0zm0 58l-29 0c-48,0 -89,-17 -123,-51 -34,-33 -50,-75 -50,-123l0 -29c0,-48 16,-89 50,-123 34,-34 75,-52 123,-52l29 0 0 -57c0,-8 3,-15 8,-22 6,-5 13,-7 21,-7 7,0 14,2 20,7 5,5 8,12 8,22l0 57 29 0c48,0 89,17 123,51 16,17 28,36 37,56 9,21 14,43 14,68l0 29c0,47 -17,88 -51,122 -33,35 -75,52 -123,52l-29 0 0 86c0,9 -2,17 -8,22 -5,5 -12,7 -20,7 -8,0 -15,-2 -21,-7 -5,-5 -8,-12 -8,-22l0 -86zm723 -1c0,32 -11,59 -33,82 -23,23 -50,34 -82,34l-116 0c-31,0 -58,-11 -81,-34 -23,-22 -35,-49 -35,-82l0 -347c0,-32 12,-60 34,-82 23,-23 50,-34 82,-34l116 0c32,0 59,11 82,34 22,23 33,50 33,82l0 347zm-57 1l0 -348c0,-17 -6,-30 -16,-42 -11,-11 -25,-16 -42,-16l-116 0c-16,0 -30,5 -42,16 -5,6 -9,12 -12,19 -3,7 -4,15 -4,23l0 348c0,16 5,30 16,41 6,5 13,9 19,12 8,3 16,5 23,5l116 0c16,0 30,-6 41,-17 11,-10 17,-24 17,-41zm277 -174l174 0c16,0 30,-6 41,-17 12,-10 17,-24 17,-41l0 -116c0,-17 -5,-30 -16,-42 -11,-11 -25,-16 -42,-16l-174 0 0 232zm0 57l0 203c0,9 -2,17 -8,22 -5,5 -12,7 -21,7 -7,0 -14,-2 -20,-7 -6,-5 -8,-12 -8,-22l0 -521c0,-19 9,-29 29,-29l202 0c32,0 60,11 82,34 22,22 34,50 34,82l0 115c0,32 -12,59 -34,82 -23,23 -50,34 -82,34l-174 0zm811 203c0,9 -2,17 -8,22 -5,5 -12,7 -21,7 -6,0 -13,-2 -19,-7 -6,-5 -9,-12 -9,-22l0 -413 -120 200c-7,12 -16,19 -25,19 -9,0 -17,-7 -25,-19l-121 -200 0 413c0,9 -2,17 -8,22 -5,5 -12,7 -21,7 -7,0 -14,-2 -20,-7 -6,-5 -8,-12 -8,-22l0 -518c0,-11 2,-19 8,-25 5,-6 11,-9 18,-9 5,0 10,2 14,4 4,3 9,8 13,15l150 248 148 -248c7,-12 16,-19 28,-19 7,0 13,3 19,9 5,7 7,15 7,25l0 518zm521 0c0,9 -3,17 -8,22 -5,5 -12,7 -21,7 -7,0 -14,-2 -20,-7 -6,-5 -9,-12 -9,-22l0 -521c0,-8 3,-15 9,-21 6,-5 13,-8 20,-8 7,0 14,2 20,7 6,5 9,12 9,22l0 521zm-348 -260l0 232 116 0c16,0 30,-6 41,-17 12,-10 17,-24 17,-41l0 -116c0,-17 -5,-30 -16,-42 -11,-11 -25,-16 -42,-16l-116 0zm0 -58l116 0c31,0 59,11 82,34 23,22 34,50 34,82l0 115c0,32 -11,59 -34,82 -23,23 -50,34 -82,34l-145 0c-19,0 -29,-9 -29,-29l0 -521c0,-8 3,-15 9,-21 6,-5 13,-8 20,-8 8,0 14,2 20,7 6,5 9,12 9,22l0 203zm1158 318c0,9 -3,17 -8,22 -6,5 -13,7 -21,7 -8,0 -14,-2 -20,-7 -6,-5 -9,-12 -9,-22l0 -409 -235 423c-3,6 -7,11 -13,14l-6 4c-2,1 -5,1 -9,2 -5,0 -12,-3 -19,-9 -5,-5 -7,-14 -7,-24l0 -522c0,-7 2,-15 8,-21 6,-5 13,-8 20,-8 8,0 14,3 20,8 6,4 9,12 9,21l0 410 235 -424c3,-4 7,-9 13,-14 5,-4 10,-5 15,-5 7,0 12,3 18,9 6,6 9,14 9,24l0 521zm405 -318l0 -203c0,-8 3,-15 9,-20 6,-6 12,-9 20,-9 7,0 14,2 20,7 6,5 9,12 9,22l0 520c0,9 -3,16 -9,22 -7,5 -14,8 -21,8 -7,0 -13,-2 -20,-7 -5,-5 -8,-12 -8,-21l0 -261 -232 0 0 260c0,9 -3,17 -8,22 -5,5 -12,7 -21,7 -7,0 -14,-2 -20,-7 -6,-5 -8,-12 -8,-22l0 -521c0,-7 2,-15 8,-21 6,-5 13,-8 20,-8 8,0 14,3 20,8 6,4 9,12 9,21l0 203 232 0zm433 -88l0 262 29 0c32,0 60,-11 82,-34 23,-23 34,-50 34,-82l0 -29c0,-32 -11,-59 -33,-82 -23,-23 -50,-35 -83,-35l-29 0zm-57 262l0 -262 -29 0c-31,0 -59,11 -82,34 -22,23 -34,50 -34,83l0 29c0,32 11,59 34,82 23,23 50,34 82,34l29 0zm0 58l-29 0c-48,0 -89,-17 -123,-51 -34,-33 -50,-75 -50,-123l0 -29c0,-48 16,-89 50,-123 34,-34 75,-52 123,-52l29 0 0 -57c0,-8 3,-15 9,-22 5,-5 12,-7 20,-7 7,0 14,2 20,7 6,5 8,12 8,22l0 57 29 0c48,0 89,17 123,51 16,17 28,36 37,56 9,21 14,43 14,68l0 29c0,47 -17,88 -51,122 -33,35 -74,52 -123,52l-29 0 0 86c0,9 -2,17 -8,22 -5,5 -12,7 -20,7 -8,0 -15,-2 -20,-7 -6,-5 -9,-12 -9,-22l0 -86zm724 -1c0,32 -12,59 -34,82 -23,23 -50,34 -82,34l-116 0c-31,0 -58,-11 -81,-34 -23,-22 -35,-49 -35,-82l0 -347c0,-32 12,-60 34,-82 23,-23 50,-34 82,-34l116 0c32,0 59,11 82,34 22,23 34,50 34,82l0 347zm-58 1l0 -348c0,-17 -6,-30 -16,-42 -11,-11 -25,-16 -42,-16l-116 0c-16,0 -30,5 -42,16 -5,6 -9,12 -12,19 -3,7 -4,15 -4,23l0 348c0,16 5,30 16,41 6,5 13,9 19,12 8,3 16,5 23,5l116 0c16,0 30,-6 41,-17 11,-10 17,-24 17,-41zm277 -174l174 0c16,0 30,-6 41,-17 12,-10 17,-24 17,-41l0 -116c0,-17 -5,-30 -16,-42 -11,-11 -25,-16 -42,-16l-174 0 0 232zm0 57l0 203c0,9 -2,17 -8,22 -5,5 -12,7 -21,7 -7,0 -14,-2 -20,-7 -6,-5 -8,-12 -8,-22l0 -521c0,-19 9,-29 29,-29l202 0c32,0 60,11 82,34 23,22 34,50 34,82l0 115c0,32 -11,59 -34,82 -23,23 -50,34 -82,34l-174 0zm811 203c0,9 -2,17 -8,22 -5,5 -12,7 -21,7 -6,0 -13,-2 -19,-7 -6,-5 -9,-12 -9,-22l0 -413 -120 200c-7,12 -16,19 -25,19 -9,0 -17,-7 -25,-19l-121 -200 0 413c0,9 -2,17 -8,22 -5,5 -12,7 -21,7 -7,0 -14,-2 -20,-7 -6,-5 -8,-12 -8,-22l0 -518c0,-11 2,-19 8,-25 5,-6 11,-9 18,-9 5,0 10,2 14,4 4,3 9,8 13,15l150 248 148 -248c7,-12 16,-19 28,-19 7,0 13,3 19,9 5,7 7,15 7,25l0 518zm463 0c0,9 -3,17 -9,22 -5,5 -12,7 -20,7 -8,0 -15,-2 -20,-7 -6,-5 -9,-12 -9,-22l0 -409 -235 423c-3,6 -8,11 -13,14l-6 4c-2,1 -5,1 -9,2 -5,0 -12,-3 -19,-9 -5,-5 -8,-14 -8,-24l0 -522c0,-7 3,-15 9,-21 6,-5 13,-8 20,-8 8,0 14,3 20,8 6,4 9,12 9,21l0 410 235 -424c3,-4 7,-9 12,-14 6,-4 11,-5 16,-5 6,0 12,3 18,9 6,6 9,14 9,24l0 521zm173 -260l174 0c16,0 30,-6 41,-17 11,-10 17,-24 17,-41l0 -116c0,-17 -5,-30 -16,-42 -11,-11 -25,-16 -42,-16l-174 0 0 232zm0 57l0 203c0,9 -3,17 -8,22 -5,5 -12,7 -21,7 -7,0 -14,-2 -20,-7 -6,-5 -9,-12 -9,-22l0 -521c0,-19 10,-29 29,-29l203 0c32,0 59,11 82,34 22,22 34,50 34,82l0 115c0,32 -12,59 -34,82 -23,23 -50,34 -82,34l-174 0zm753 116c0,32 -12,59 -34,82 -23,23 -50,34 -82,34l-116 0c-31,0 -58,-11 -81,-34 -23,-22 -35,-49 -35,-82l0 -347c0,-32 12,-60 34,-82 23,-23 50,-34 82,-34l116 0c32,0 59,11 82,34 22,23 34,50 34,82l0 347zm-58 1l0 -348c0,-17 -5,-30 -16,-42 -11,-11 -25,-16 -42,-16l-116 0c-16,0 -30,5 -41,16 -6,6 -10,12 -13,19 -3,7 -4,15 -4,23l0 348c0,16 6,30 17,41 5,5 12,9 18,12 9,3 16,5 23,5l116 0c16,0 30,-6 41,-17 11,-10 17,-24 17,-41zm512 -215c16,10 29,24 40,41 10,18 15,37 15,58l0 115c0,32 -11,59 -34,82 -23,23 -50,34 -82,34l-202 0c-20,0 -29,-9 -29,-29l0 -521c0,-19 9,-29 29,-29l173 0c33,0 60,11 82,34 23,23 34,50 34,82l0 58c0,13 -2,26 -6,38 -4,13 -11,25 -20,37zm-235 41l0 232 174 0c16,0 30,-6 41,-17 12,-10 17,-24 17,-41l0 -116c0,-17 -5,-30 -16,-42 -11,-11 -25,-16 -42,-16l-174 0zm146 -58c15,0 29,-5 41,-16 11,-11 17,-25 17,-42l0 -58c0,-17 -6,-30 -17,-42 -11,-11 -25,-16 -41,-16l-146 0 0 174 146 0zm332 202l-42 125c-2,6 -6,11 -11,15 -3,3 -9,4 -15,5 -8,0 -15,-3 -20,-8 -7,-5 -10,-12 -10,-20l2 -10 174 -521c6,-17 15,-25 27,-25 13,0 22,8 28,25l173 521 2 10c0,8 -3,14 -10,20 -6,5 -12,8 -20,8 -4,0 -8,-1 -13,-3 -5,-2 -9,-7 -13,-17l-42 -125 -210 0zm191 -59l-86 -255 -85 255 171 0zm518 -143l0 -203c0,-8 3,-15 8,-20 6,-6 13,-9 21,-9 7,0 14,2 19,7 6,5 9,12 9,22l0 520c0,9 -3,16 -9,22 -7,5 -13,8 -20,8 -7,0 -14,-2 -20,-7 -6,-5 -8,-12 -8,-21l0 -261 -232 0 0 260c0,9 -3,17 -8,22 -6,5 -13,7 -21,7 -8,0 -14,-2 -20,-7 -6,-5 -9,-12 -9,-22l0 -521c0,-7 3,-15 9,-21 6,-5 12,-8 20,-8 7,0 14,3 20,8 6,4 9,12 9,21l0 203 232 0zm520 318c0,9 -2,17 -8,22 -5,5 -12,7 -20,7 -8,0 -15,-2 -21,-7 -5,-5 -8,-12 -8,-22l0 -409 -235 423c-4,6 -8,11 -13,14l-6 4c-2,1 -5,1 -9,2 -6,0 -12,-3 -19,-9 -5,-5 -8,-14 -8,-24l0 -522c0,-7 3,-15 9,-21 6,-5 12,-8 20,-8 7,0 14,3 20,8 6,4 9,12 9,21l0 410 235 -424c3,-4 7,-9 12,-14 5,-4 11,-5 16,-5 6,0 12,3 18,9 5,6 8,14 8,24l0 521zm406 -260l0 -232 -174 0c-16,0 -30,5 -42,16 -5,6 -9,12 -12,19 -3,7 -4,15 -4,23l0 116c0,16 5,30 16,41 6,5 12,9 19,13 8,2 16,4 23,4l174 0zm-100 57l-136 218c-6,10 -14,14 -24,14 -7,0 -14,-3 -20,-9 -7,-6 -10,-12 -10,-20 0,-6 2,-11 5,-16l117 -187 -6 0c-31,0 -59,-11 -82,-34 -22,-22 -34,-49 -34,-82l0 -115c0,-32 11,-60 34,-82 22,-23 50,-34 82,-34l202 0c20,0 29,10 29,29l0 521c0,9 -2,17 -8,22 -5,5 -12,7 -20,7 -8,0 -15,-2 -21,-7 -5,-5 -8,-12 -8,-22l0 -203 -100 0z"/>
  <path class="fil20 str0" d="M1216 6768l-87 0c-7,0 -12,-2 -16,-6 -4,-5 -6,-10 -6,-16 0,-5 2,-10 6,-15 3,-4 9,-7 16,-7l217 0c6,0 11,3 15,7 5,4 7,9 7,15 0,5 -2,10 -6,14 -3,5 -9,8 -16,8l-87 0 0 369c0,7 -2,12 -6,16 -4,4 -9,6 -15,6 -6,0 -11,-2 -16,-6 -4,-3 -6,-9 -6,-16l0 -369zm282 130l109 0c6,0 11,3 15,7 5,4 7,9 7,15 0,5 -2,10 -6,15 -3,4 -9,7 -16,7l-109 0 0 174 152 0c6,0 11,2 16,6 4,5 6,10 6,15 0,5 -2,10 -5,15 -4,4 -9,7 -17,7l-174 0c-14,0 -21,-7 -21,-21l0 -392c0,-14 7,-22 21,-22l174 0c6,0 12,3 16,7 4,4 6,9 6,15 0,5 -2,10 -5,15 -4,4 -9,7 -17,7l-152 0 0 130zm304 14l183 -182c4,-4 9,-6 15,-6 5,0 10,3 15,7 4,4 7,10 7,16 0,3 -3,8 -7,14l-129 129 133 236 3 12c0,5 -2,10 -7,14 -4,5 -10,7 -16,7 -7,0 -13,-4 -18,-12l-128 -226 -51 51 0 165c0,7 -2,12 -7,16 -3,4 -9,6 -15,6 -6,0 -11,-2 -15,-6 -4,-3 -7,-9 -7,-16l0 -391c0,-6 3,-11 7,-15 4,-4 10,-7 15,-7 6,0 11,2 15,5 4,4 7,9 7,16l0 167zm477 247l-108 0c-24,0 -44,-9 -62,-26 -17,-16 -25,-37 -25,-61l0 -261c0,-24 8,-44 25,-61 17,-17 37,-26 62,-26l108 0c6,0 11,3 16,7 4,4 6,9 6,15 0,5 -2,10 -5,14 -4,5 -10,8 -17,8l-109 0c-12,0 -22,4 -31,12 -4,4 -7,9 -9,14 -2,5 -3,11 -3,17l0 261c0,12 4,23 12,31 5,4 9,7 14,9 6,2 12,4 17,4l109 0c6,0 11,2 16,6 4,5 6,10 6,15 0,5 -2,10 -5,15 -4,4 -10,7 -17,7zm217 -391l-87 0c-6,0 -12,-2 -16,-6 -4,-5 -6,-10 -6,-16 0,-5 2,-10 6,-15 3,-4 9,-7 16,-7l217 0c6,0 11,3 15,7 5,4 7,9 7,15 0,5 -2,10 -6,14 -3,5 -9,8 -16,8l-87 0 0 369c0,7 -2,12 -6,16 -4,4 -9,6 -15,6 -6,0 -11,-2 -15,-6 -5,-3 -7,-9 -7,-16l0 -369zm477 304c0,24 -8,44 -25,61 -17,17 -38,26 -62,26l-86 0c-24,0 -44,-9 -62,-26 -17,-16 -25,-37 -25,-61l0 -261c0,-24 8,-44 25,-61 17,-17 37,-26 62,-26l86 0c24,0 45,9 62,26 17,17 25,37 25,61l0 261zm-43 0l0 -261c0,-12 -4,-22 -12,-31 -9,-8 -19,-12 -32,-12l-87 0c-12,0 -22,4 -31,12 -4,4 -7,9 -9,14 -2,5 -3,11 -3,17l0 261c0,12 4,23 12,31 5,4 9,7 14,9 7,2 12,4 17,4l87 0c12,0 23,-4 31,-13 9,-8 13,-18 13,-31zm384 -161c12,7 22,18 30,31 7,14 11,28 11,43l0 87c0,24 -8,44 -25,61 -17,17 -38,26 -62,26l-152 0c-14,0 -21,-7 -21,-22l0 -391c0,-14 7,-22 21,-22l131 0c24,0 44,9 61,26 17,17 25,37 25,61l0 44c0,10 -1,19 -4,29 -3,9 -8,18 -15,27zm-176 31l0 174 130 0c12,0 23,-4 31,-13 9,-8 13,-18 13,-31l0 -87c0,-12 -4,-22 -12,-31 -9,-8 -19,-12 -32,-12l-130 0zm109 -44c12,0 22,-4 31,-12 8,-8 12,-18 12,-31l0 -44c0,-12 -4,-22 -12,-31 -8,-8 -19,-12 -31,-12l-109 0 0 130 109 0zm499 239c0,7 -2,12 -6,16 -4,4 -9,6 -16,6 -5,0 -10,-2 -15,-6 -4,-3 -6,-9 -6,-16l0 -391c0,-6 2,-11 6,-16 5,-4 10,-6 15,-6 6,0 11,2 16,6 4,3 6,9 6,16l0 391zm-261 -195l0 174 87 0c12,0 23,-4 31,-13 9,-8 13,-18 13,-31l0 -87c0,-12 -4,-22 -12,-31 -9,-8 -19,-12 -32,-12l-87 0zm0 -44l87 0c24,0 44,9 61,26 18,16 26,37 26,61l0 87c0,24 -8,44 -25,61 -17,17 -38,26 -62,26l-108 0c-15,0 -22,-7 -22,-22l0 -391c0,-6 2,-11 6,-16 5,-4 10,-6 16,-6 5,0 10,2 14,6 5,3 7,9 7,16l0 152zm391 0l109 0c6,0 11,3 15,7 5,4 7,9 7,15 0,5 -2,10 -6,15 -3,4 -9,7 -16,7l-109 0 0 174 152 0c6,0 11,2 16,6 4,5 6,10 6,15 0,5 -2,10 -5,15 -4,4 -9,7 -17,7l-174 0c-14,0 -21,-7 -21,-21l0 -392c0,-14 7,-22 21,-22l174 0c6,0 12,3 16,7 4,4 6,9 6,15 0,5 -2,10 -5,15 -4,4 -9,7 -17,7l-152 0 0 130zm716 -66l0 197 21 0c25,0 45,-8 62,-25 17,-18 25,-38 25,-62l0 -22c0,-24 -8,-44 -25,-61 -17,-18 -37,-27 -62,-27l-21 0zm-43 197l0 -197 -22 0c-24,0 -44,9 -61,26 -17,17 -26,37 -26,62l0 22c0,24 9,44 25,61 17,18 38,26 62,26l22 0zm0 43l-22 0c-36,0 -67,-12 -92,-38 -25,-25 -38,-56 -38,-92l0 -22c0,-36 13,-66 38,-92 25,-26 56,-39 92,-39l22 0 0 -43c0,-6 2,-11 6,-16 4,-4 9,-6 15,-6 6,0 11,2 15,6 5,3 7,9 7,16l0 43 21 0c36,0 67,13 92,38 12,13 22,27 28,42 7,16 11,33 11,51l0 22c0,35 -13,65 -38,91 -26,26 -56,39 -93,39l-21 0 0 65c0,7 -2,12 -6,16 -4,4 -9,6 -16,6 -6,0 -11,-2 -15,-6 -4,-3 -6,-9 -6,-16l0 -65zm542 0c0,24 -8,44 -25,61 -17,17 -38,26 -61,26l-87 0c-24,0 -44,-9 -61,-26 -17,-16 -26,-37 -26,-61l0 -261c0,-24 8,-44 25,-61 17,-17 38,-26 62,-26l87 0c24,0 44,9 61,26 17,17 25,37 25,61l0 261zm-43 0l0 -261c0,-12 -4,-22 -12,-31 -8,-8 -19,-12 -31,-12l-87 0c-13,0 -23,4 -31,12 -5,4 -8,9 -10,14 -2,5 -3,11 -3,17l0 261c0,12 4,23 13,31 4,4 9,7 14,9 6,2 11,4 17,4l87 0c12,0 22,-4 30,-13 9,-8 13,-18 13,-31zm208 -130l131 0c12,0 22,-4 30,-13 9,-8 13,-18 13,-31l0 -87c0,-12 -4,-22 -12,-31 -8,-8 -19,-12 -31,-12l-131 0 0 174zm0 43l0 152c0,7 -2,12 -6,16 -4,4 -9,6 -15,6 -6,0 -11,-2 -16,-6 -4,-3 -6,-9 -6,-16l0 -391c0,-14 7,-22 22,-22l152 0c24,0 44,9 61,26 17,17 25,37 25,61l0 87c0,24 -8,44 -25,61 -17,17 -38,26 -62,26l-130 0zm608 152c0,7 -2,12 -5,16 -5,4 -10,6 -16,6 -5,0 -10,-2 -15,-6 -5,-3 -7,-9 -7,-16l0 -310 -90 150c-5,9 -11,14 -19,14 -6,0 -12,-5 -18,-14l-91 -150 0 310c0,7 -2,12 -6,16 -4,4 -9,6 -15,6 -6,0 -11,-2 -15,-6 -5,-3 -7,-9 -7,-16l0 -389c0,-8 2,-14 6,-18 4,-5 9,-7 14,-7 4,0 7,1 11,3 3,2 6,6 9,11l112 186 112 -186c5,-9 12,-14 21,-14 5,0 9,2 14,7 3,5 5,11 5,18l0 389zm391 0c0,7 -2,12 -6,16 -4,4 -9,6 -16,6 -5,0 -10,-2 -15,-6 -4,-3 -6,-9 -6,-16l0 -391c0,-6 2,-11 6,-16 5,-4 10,-6 15,-6 6,0 11,2 16,6 4,3 6,9 6,16l0 391zm-261 -195l0 174 87 0c12,0 23,-4 31,-13 9,-8 13,-18 13,-31l0 -87c0,-12 -4,-22 -12,-31 -9,-8 -19,-12 -32,-12l-87 0zm0 -44l87 0c24,0 44,9 61,26 17,16 26,37 26,61l0 87c0,24 -8,44 -25,61 -17,17 -38,26 -62,26l-108 0c-15,0 -22,-7 -22,-22l0 -391c0,-6 2,-11 6,-16 5,-4 10,-6 15,-6 6,0 11,2 15,6 5,3 7,9 7,16l0 152z"/>
  <path class="fil20 str0" d="M13215 6910c13,8 23,18 30,32 8,13 12,27 12,42l0 87c0,24 -9,44 -26,62 -16,17 -37,25 -61,25l-152 0c-14,0 -21,-7 -21,-22l0 -390c0,-15 7,-22 21,-22l131 0c24,0 44,8 61,25 17,17 25,38 25,62l0 43c0,10 -1,20 -4,29 -3,9 -9,18 -16,27zm-175 31l0 174 130 0c12,0 22,-4 31,-12 8,-8 13,-19 13,-32l0 -87c0,-12 -4,-22 -13,-30 -8,-9 -18,-13 -31,-13l-130 0zm109 -43c12,0 22,-4 30,-12 9,-9 13,-19 13,-32l0 -43c0,-13 -4,-23 -12,-31 -8,-9 -19,-13 -31,-13l-109 0 0 131 109 0zm455 238c0,7 -2,13 -6,17 -4,3 -9,5 -15,5 -6,0 -11,-2 -16,-5 -4,-4 -6,-9 -6,-17l0 -306 -176 317c-3,4 -6,8 -10,11l-5 2c-1,1 -3,1 -6,2 -4,0 -9,-2 -15,-7 -3,-4 -5,-10 -5,-18l0 -391c0,-6 2,-11 6,-16 5,-4 10,-6 15,-6 6,0 11,2 15,6 5,3 7,9 7,16l0 307 176 -318c2,-3 5,-7 9,-10 4,-3 8,-5 12,-5 5,0 9,3 14,8 4,4 6,10 6,18l0 390zm218 -195l-65 0c-7,0 -13,-2 -17,-6 -3,-5 -5,-10 -5,-16 0,-5 2,-10 6,-14 3,-5 9,-7 16,-7l65 0c12,0 22,-4 30,-12 9,-8 13,-19 13,-32l0 -43c0,-13 -4,-23 -12,-31 -8,-9 -19,-13 -31,-13l-44 0c-9,0 -18,3 -25,8 -7,5 -13,12 -16,22 -1,4 -3,7 -7,10 -2,2 -4,3 -6,4l-7 1c-6,0 -11,-2 -16,-6 -4,-4 -7,-9 -7,-15l2 -8c5,-17 16,-31 31,-43 15,-11 32,-16 51,-16l43 0c25,0 45,8 62,25 17,17 25,38 25,62l0 43c0,13 -2,25 -7,36 -5,12 -13,21 -22,29 19,17 29,38 29,65l0 87c0,24 -8,44 -25,62 -17,17 -38,25 -62,25l-43 0c-19,0 -35,-5 -50,-16 -15,-11 -26,-25 -32,-44l-2 -7c0,-6 3,-11 7,-15 4,-5 10,-7 16,-7 9,0 15,5 20,15 2,9 8,16 15,23 9,5 17,8 26,8l44 0c12,0 22,-4 30,-12 9,-8 13,-19 13,-32l0 -87c0,-12 -3,-22 -10,-30 -7,-9 -19,-13 -33,-13zm390 43l-130 0c-24,0 -44,-8 -61,-25 -18,-17 -26,-37 -26,-62l0 -151c0,-6 2,-12 6,-17 5,-3 10,-5 15,-5 6,0 11,2 15,5 5,4 7,9 7,17l0 152c0,12 4,22 12,31 5,3 10,6 14,9 7,2 12,3 18,3l130 0 0 -195c0,-6 2,-12 6,-17 5,-3 10,-5 16,-5 5,0 10,2 15,5 4,4 6,9 6,17l0 325c0,24 -8,44 -25,62 -17,17 -38,25 -62,25l-108 0c-7,0 -12,-2 -16,-6 -4,-4 -6,-10 -6,-15 0,-6 2,-10 6,-15 4,-5 9,-7 16,-7l109 0c12,0 22,-4 30,-12 9,-8 13,-19 13,-32l0 -87zm187 66l-32 93c-1,5 -4,8 -8,11 -3,2 -7,4 -11,4 -6,0 -11,-2 -16,-6 -4,-4 -7,-9 -7,-15l2 -8 130 -390c5,-13 11,-19 21,-19 9,0 16,6 20,19l130 390 2 8c0,6 -3,11 -7,15 -5,4 -10,6 -16,6 -3,0 -6,-1 -9,-2 -4,-1 -7,-6 -10,-13l-32 -93 -157 0zm143 -45l-64 -191 -64 191 128 0zm432 131c0,7 -2,13 -6,17 -4,3 -9,5 -15,5 -6,0 -11,-2 -16,-5 -4,-4 -6,-9 -6,-17l0 -369 -71 0 -104 375c-1,4 -3,8 -7,11 -4,4 -9,5 -14,5 -6,0 -11,-2 -15,-5 -5,-4 -7,-9 -7,-16 0,-3 1,-5 1,-6l109 -391c3,-11 10,-16 21,-16l108 0c15,0 22,7 22,22l0 390zm130 -195l130 0c12,0 23,4 31,12 8,9 13,19 13,32l0 86c0,13 -5,23 -13,32 -4,4 -9,7 -14,9 -5,2 -11,3 -17,3l-130 0 0 -174zm0 -43l0 -152c0,-6 -3,-11 -7,-16 -4,-4 -10,-6 -15,-6 -5,0 -10,2 -15,5 -4,4 -7,9 -7,17l0 390c0,15 8,22 22,22l152 0c23,0 44,-8 61,-25 17,-17 26,-37 26,-62l0 -87c0,-23 -9,-43 -26,-61 -16,-17 -37,-25 -61,-25l-130 0zm521 0l0 -153c0,-5 2,-10 6,-15 5,-4 10,-6 15,-6 6,0 11,2 15,5 5,4 7,9 7,17l0 390c0,6 -2,12 -7,16 -5,4 -10,6 -15,6 -5,0 -10,-2 -15,-5 -4,-4 -6,-9 -6,-16l0 -196 -174 0 0 195c0,7 -2,13 -6,17 -4,3 -9,5 -16,5 -5,0 -11,-2 -15,-5 -4,-4 -6,-9 -6,-17l0 -390c0,-6 2,-11 6,-16 4,-4 10,-6 15,-6 6,0 11,2 15,6 5,3 7,9 7,16l0 152 174 0zm434 238c0,7 -2,13 -6,17 -4,3 -9,5 -16,5 -5,0 -10,-2 -15,-5 -4,-4 -6,-9 -6,-17l0 -390c0,-6 2,-12 6,-17 5,-3 10,-5 15,-5 6,0 11,2 16,5 4,4 6,9 6,17l0 390zm-261 -195l0 174 87 0c12,0 23,-4 31,-12 9,-8 13,-19 13,-32l0 -87c0,-12 -4,-22 -12,-30 -9,-9 -19,-13 -32,-13l-87 0zm0 -43l87 0c24,0 44,8 61,25 17,17 26,37 26,62l0 86c0,24 -8,44 -25,62 -17,17 -38,25 -62,25l-108 0c-15,0 -22,-7 -22,-22l0 -390c0,-6 2,-12 6,-17 5,-3 10,-5 15,-5 6,0 11,2 15,5 5,4 7,9 7,17l0 152zm391 0l109 0c6,0 11,2 15,6 5,5 7,10 7,15 0,6 -2,10 -6,15 -3,5 -9,7 -16,7l-109 0 0 174 152 0c6,0 11,2 16,7 4,4 6,9 6,15 0,5 -2,10 -5,14 -4,5 -9,7 -17,7l-174 0c-14,0 -22,-7 -22,-20l0 -392c0,-15 8,-22 22,-22l174 0c6,0 12,2 16,6 4,5 6,10 6,15 0,6 -2,10 -5,15 -4,5 -9,7 -17,7l-152 0 0 131zm716 -66l0 197 21 0c24,0 45,-9 62,-26 17,-17 25,-38 25,-62l0 -22c0,-23 -8,-44 -25,-61 -17,-17 -37,-26 -62,-26l-21 0zm-43 197l0 -197 -22 0c-24,0 -44,8 -61,25 -17,17 -26,38 -26,62l0 22c0,24 8,45 25,62 17,17 38,26 62,26l22 0zm0 43l-22 0c-36,0 -67,-13 -92,-38 -25,-26 -38,-56 -38,-93l0 -22c0,-35 13,-66 38,-92 25,-26 56,-38 92,-38l22 0 0 -44c0,-5 2,-11 6,-16 4,-3 9,-5 15,-5 6,0 11,2 15,5 5,4 7,9 7,16l0 44 21 0c36,0 67,12 92,38 12,12 21,26 28,42 7,15 11,32 11,50l0 22c0,35 -13,66 -38,92 -26,26 -56,39 -93,39l-21 0 0 65c0,6 -2,12 -6,16 -4,3 -9,5 -16,5 -6,0 -11,-2 -15,-5 -4,-4 -6,-9 -6,-16l0 -65zm542 -1c0,24 -8,44 -25,62 -17,17 -38,25 -61,25l-87 0c-24,0 -44,-8 -61,-25 -17,-17 -26,-38 -26,-62l0 -260c0,-25 8,-45 25,-62 17,-17 38,-25 62,-25l87 0c24,0 44,8 61,25 17,17 25,38 25,62l0 260zm-43 0l0 -261c0,-12 -4,-22 -12,-30 -8,-9 -19,-13 -31,-13l-87 0c-13,0 -23,4 -32,12 -4,5 -7,9 -9,15 -2,5 -3,10 -3,16l0 261c0,13 4,23 12,32 5,3 10,6 15,9 6,2 11,3 17,3l87 0c12,0 22,-4 30,-12 9,-8 13,-19 13,-32zm208 -130l131 0c12,0 22,-4 30,-12 9,-8 13,-19 13,-32l0 -87c0,-12 -4,-22 -12,-30 -8,-9 -19,-13 -31,-13l-131 0 0 174zm0 43l0 152c0,7 -2,13 -6,17 -4,3 -9,5 -16,5 -5,0 -10,-2 -15,-5 -4,-4 -6,-9 -6,-17l0 -390c0,-15 7,-22 22,-22l151 0c25,0 45,8 62,25 17,17 25,38 25,62l0 86c0,24 -8,45 -25,62 -17,17 -38,25 -62,25l-130 0zm608 152c0,7 -2,13 -6,17 -4,3 -9,5 -15,5 -5,0 -10,-2 -15,-5 -5,-4 -7,-9 -7,-17l0 -310 -90 151c-5,9 -11,14 -19,14 -6,0 -12,-5 -18,-14l-91 -151 0 310c0,7 -2,13 -6,17 -4,3 -9,5 -15,5 -6,0 -11,-2 -15,-5 -5,-4 -7,-9 -7,-17l0 -388c0,-9 2,-15 6,-19 4,-4 9,-6 14,-6 4,0 7,1 10,3 4,2 7,5 10,11l112 186 112 -186c5,-10 12,-14 21,-14 5,0 9,2 14,6 3,5 5,11 5,19l0 388zm391 0c0,7 -2,13 -6,17 -4,3 -9,5 -16,5 -5,0 -10,-2 -15,-5 -4,-4 -6,-9 -6,-17l0 -390c0,-6 2,-12 6,-17 5,-3 10,-5 15,-5 6,0 11,2 15,5 5,4 7,9 7,17l0 390zm-261 -195l0 174 87 0c12,0 22,-4 31,-12 9,-8 13,-19 13,-32l0 -87c0,-12 -4,-22 -13,-30 -8,-9 -18,-13 -31,-13l-87 0zm0 -43l87 0c24,0 44,8 61,25 17,17 26,37 26,62l0 86c0,24 -9,44 -25,62 -18,17 -38,25 -62,25l-109 0c-14,0 -21,-7 -21,-22l0 -390c0,-6 2,-12 6,-17 5,-3 10,-5 15,-5 6,0 11,2 15,5 5,4 7,9 7,17l0 152z"/>
  <path class="fil20 str0" d="M7413 14689l-32 94c-1,5 -4,8 -8,11 -3,2 -7,3 -11,4 -6,0 -11,-2 -16,-6 -4,-4 -7,-9 -7,-15l2 -8 130 -391c5,-12 11,-18 21,-18 9,0 16,6 20,18l130 391 2 8c0,6 -3,10 -8,15 -4,4 -9,6 -15,6 -3,0 -6,-1 -9,-2 -4,-2 -7,-6 -11,-13l-31 -94 -157 0zm143 -44l-64 -191 -64 191 128 0zm366 -21l-130 0c-24,0 -44,-8 -61,-25 -17,-17 -26,-38 -26,-62l0 -152c0,-6 2,-11 7,-16 4,-3 9,-5 15,-5 5,0 10,1 15,5 4,4 6,9 6,16l0 152c0,13 4,23 13,31 4,4 9,7 14,10 6,2 12,3 17,3l130 0 0 -196c0,-6 2,-11 7,-16 4,-3 9,-5 15,-5 5,0 10,1 15,5 4,4 6,9 6,16l0 326c0,24 -8,44 -25,61 -17,17 -37,26 -61,26l-109 0c-6,0 -12,-2 -16,-6 -4,-5 -6,-10 -6,-16 0,-5 2,-10 6,-14 4,-5 9,-7 16,-7l109 0c12,0 22,-4 31,-12 8,-8 12,-19 12,-32l0 -87zm156 131l42 -372c0,-13 7,-19 21,-19l130 0c15,0 22,7 22,21l0 370 22 0c15,0 22,7 22,21l0 44c0,5 -2,11 -7,15 -4,4 -9,6 -15,6 -5,0 -9,-2 -14,-5 -5,-4 -7,-9 -7,-16l0 -22 -218 0 0 22c0,5 -2,11 -7,15 -4,4 -9,6 -15,6 -5,0 -9,-2 -14,-5 -5,-4 -7,-9 -7,-16l0 -44c0,-14 7,-21 21,-21l24 0zm172 0l0 -348 -89 0 -39 348 128 0zm434 21c0,7 -2,13 -6,17 -4,3 -10,5 -16,5 -6,0 -11,-2 -15,-5 -4,-4 -6,-10 -6,-17l0 -307 -177 318c-2,4 -5,8 -9,10l-5 3c-1,1 -4,1 -7,2 -4,0 -9,-3 -14,-7 -4,-4 -6,-10 -6,-19l0 -390c0,-6 2,-12 7,-17 4,-3 9,-5 15,-5 5,0 11,2 15,5 4,4 7,9 7,17l0 307 176 -318c2,-3 5,-7 9,-10 4,-3 8,-5 12,-5 5,0 9,3 13,7 4,5 7,11 7,18l0 391zm347 -65c0,24 -9,44 -25,61 -17,17 -38,26 -62,26l-87 0c-23,0 -44,-9 -61,-25 -17,-17 -25,-38 -25,-62l0 -260c0,-25 8,-45 25,-62 17,-17 37,-25 61,-25l87 0c24,0 45,8 62,25 16,17 25,37 25,62l0 260zm-43 0l0 -261c0,-12 -4,-22 -13,-31 -8,-8 -18,-12 -31,-12l-87 0c-12,0 -22,4 -31,12 -4,4 -7,9 -9,14 -2,6 -3,11 -3,17l0 261c0,12 4,23 12,31 5,4 9,7 14,10 6,2 12,3 17,3l87 0c12,0 23,-4 31,-12 9,-8 13,-19 13,-32zm360 87l-109 0c-23,0 -43,-9 -61,-25 -17,-17 -25,-38 -25,-62l0 -260c0,-25 8,-45 25,-62 17,-17 37,-25 61,-25l109 0c6,0 11,2 15,6 5,5 7,10 7,15 0,5 -2,10 -6,15 -3,4 -9,7 -16,7l-109 0c-12,0 -22,4 -31,12 -4,4 -7,9 -9,14 -2,6 -3,11 -3,17l0 261c0,12 4,23 12,31 5,4 9,7 14,10 6,2 12,3 17,3l109 0c6,0 11,2 15,6 5,5 7,10 7,15 0,5 -2,10 -6,15 -3,5 -9,7 -16,7zm349 -87c0,24 -8,44 -25,61 -17,17 -38,26 -62,26l-86 0c-24,0 -44,-9 -61,-25 -18,-17 -26,-38 -26,-62l0 -260c0,-25 8,-45 25,-62 17,-17 37,-25 62,-25l86 0c25,0 45,8 62,25 17,17 25,37 25,62l0 260zm-43 0l0 -261c0,-12 -4,-22 -12,-31 -8,-8 -19,-12 -32,-12l-86 0c-13,0 -23,4 -32,12 -4,4 -7,9 -9,14 -2,6 -3,11 -3,17l0 261c0,12 4,23 12,31 5,4 9,7 14,10 7,2 12,3 18,3l86 0c13,0 23,-4 31,-12 9,-8 13,-19 13,-32zm425 0c0,24 -8,44 -25,61 -17,17 -38,26 -62,26l-86 0c-24,0 -44,-9 -62,-25 -17,-17 -25,-38 -25,-62l0 -260c0,-25 8,-45 25,-62 17,-17 37,-25 62,-25l86 0c24,0 45,8 62,25 17,17 25,37 25,62l0 260zm-43 0l0 -261c0,-12 -4,-22 -12,-31 -8,-8 -19,-12 -32,-12l-87 0c-12,0 -22,4 -31,12 -4,4 -7,9 -9,14 -2,6 -3,11 -3,17l0 261c0,12 4,23 12,31 5,4 9,7 14,10 7,2 12,3 17,3l87 0c13,0 23,-4 31,-12 9,-8 13,-19 13,-32zm208 -130l0 174 130 0c12,0 23,-4 31,-12 9,-8 13,-19 13,-32l0 -87c0,-12 -4,-22 -12,-31 -9,-8 -19,-12 -32,-12l-130 0zm0 -43l130 0c24,0 44,8 61,25 18,17 26,37 26,61l0 87c0,24 -8,44 -25,61 -17,17 -38,26 -62,26l-152 0c-14,0 -21,-7 -21,-22l0 -391c0,-14 7,-21 21,-21l174 0c6,0 11,2 15,6 5,5 7,10 7,15 0,5 -2,10 -6,15 -3,4 -9,7 -16,7l-152 0 0 131zm651 260l-21 0 -304 0c-15,0 -22,-7 -22,-22l0 -391c0,-6 2,-11 6,-16 5,-3 10,-5 16,-5 5,0 10,1 14,5 5,4 7,9 7,16l0 370 109 0 0 -370c0,-5 2,-11 6,-16 5,-3 10,-5 15,-5 6,0 11,1 15,5 5,4 7,9 7,16l0 370 109 0 0 -370c0,-5 2,-11 7,-16 4,-3 9,-5 15,-5 5,0 10,1 15,5 4,4 6,9 6,16l0 370 22 0c14,0 21,7 21,21l0 66c0,6 -2,11 -6,15 -5,4 -10,6 -15,6 -5,0 -10,-1 -15,-5 -4,-4 -7,-9 -7,-16l0 -44zm174 -260l109 0c6,0 11,2 15,6 5,5 7,10 7,15 0,5 -2,10 -6,15 -3,4 -9,7 -16,7l-109 0 0 174 152 0c6,0 11,2 16,6 4,5 6,10 6,15 0,6 -2,10 -5,15 -4,5 -9,7 -17,7l-174 0c-14,0 -22,-7 -22,-21l0 -392c0,-14 8,-21 22,-21l174 0c6,0 11,2 16,6 4,5 6,10 6,15 0,5 -2,10 -5,15 -4,4 -9,7 -17,7l-152 0 0 131zm478 0l0 -153c0,-6 2,-11 6,-15 4,-4 9,-6 15,-6 6,0 11,1 15,5 4,4 7,9 7,16l0 391c0,6 -3,11 -7,16 -5,4 -10,6 -15,6 -6,0 -11,-2 -15,-5 -4,-4 -6,-9 -6,-17l0 -195 -174 0 0 195c0,7 -2,13 -7,17 -4,3 -9,5 -15,5 -6,0 -11,-2 -15,-5 -5,-4 -7,-10 -7,-17l0 -390c0,-6 2,-12 7,-17 4,-3 9,-5 15,-5 5,0 11,2 15,5 4,4 7,9 7,17l0 152 174 0zm390 238c0,7 -2,13 -6,17 -4,3 -9,5 -16,5 -5,0 -10,-2 -15,-5 -4,-4 -6,-10 -6,-17l0 -307 -176 318c-3,4 -6,8 -10,10l-5 3c-1,1 -3,1 -7,2 -4,0 -8,-3 -14,-7 -4,-4 -5,-10 -5,-19l0 -390c0,-6 2,-12 6,-17 4,-3 9,-5 15,-5 6,0 11,2 15,5 5,4 7,9 7,17l0 307 176 -318c2,-3 5,-7 9,-10 4,-3 8,-5 12,-5 5,0 9,3 13,7 5,5 7,11 7,18l0 391zm304 -195l0 -174 -131 0c-12,0 -22,4 -31,12 -4,4 -7,9 -9,14 -2,6 -3,11 -3,17l0 87c0,12 4,23 12,31 5,4 9,7 14,10 7,2 12,3 17,3l131 0zm-75 43l-102 164c-5,7 -10,10 -18,10 -5,0 -10,-2 -15,-7 -5,-4 -7,-9 -7,-15 0,-4 1,-8 3,-12l88 -140 -4 0c-24,0 -44,-8 -61,-25 -18,-17 -26,-38 -26,-62l0 -87c0,-24 8,-44 25,-61 17,-17 37,-25 62,-25l151 0c15,0 22,7 22,21l0 391c0,7 -2,13 -6,17 -4,3 -9,5 -15,5 -6,0 -11,-2 -16,-5 -4,-4 -6,-10 -6,-17l0 -152 -75 0z"/>
  <path class="fil20 str0" d="M2920 8635c0,7 -2,13 -6,17 -4,3 -9,5 -16,5 -6,0 -11,-2 -15,-5 -4,-4 -6,-9 -6,-17l0 -369 -174 0 0 369c0,7 -2,13 -7,17 -3,3 -9,5 -15,5 -6,0 -11,-2 -15,-5 -4,-4 -7,-9 -7,-17l0 -391c0,-14 8,-21 22,-21l217 0c15,0 22,7 22,21l0 391zm347 0c0,7 -2,13 -6,17 -4,3 -9,5 -16,5 -5,0 -10,-2 -15,-5 -4,-4 -6,-9 -6,-17l0 -307 -176 318c-3,4 -6,8 -10,10l-5 3c-1,1 -3,1 -6,2 -5,0 -9,-2 -15,-7 -3,-4 -5,-10 -5,-18l0 -391c0,-6 2,-12 6,-16 4,-4 10,-6 15,-6 6,0 11,2 15,5 5,4 7,9 7,17l0 307 176 -318c2,-3 5,-7 9,-10 4,-3 8,-5 12,-5 5,0 9,3 13,8 5,4 7,10 7,17l0 391zm282 22l-108 0c-24,0 -44,-8 -61,-25 -18,-17 -26,-38 -26,-62l0 -260c0,-25 8,-45 25,-62 17,-17 38,-25 62,-25l108 0c6,0 12,2 16,6 4,5 6,10 6,15 0,5 -2,10 -5,15 -4,5 -9,7 -17,7l-108 0c-13,0 -23,4 -32,12 -4,4 -7,9 -9,14 -2,6 -3,11 -3,17l0 261c0,13 4,23 12,31 5,4 10,7 15,10 6,2 11,3 17,3l108 0c6,0 12,2 16,7 4,4 6,9 6,14 0,5 -2,10 -5,15 -4,5 -9,7 -17,7zm152 -217l130 0c13,0 23,4 31,12 9,8 13,19 13,31l0 87c0,13 -4,23 -12,31 -5,5 -9,8 -15,10 -5,2 -11,3 -17,3l-130 0 0 -174zm0 -43l0 -153c0,-5 -2,-10 -7,-15 -4,-4 -9,-6 -15,-6 -5,0 -9,1 -14,5 -5,4 -7,9 -7,16l0 391c0,15 7,22 21,22l152 0c24,0 44,-8 61,-25 17,-17 26,-37 26,-62l0 -87c0,-23 -8,-44 -25,-61 -17,-17 -38,-25 -62,-25l-130 0zm608 238c0,7 -2,13 -6,17 -4,3 -9,5 -15,5 -5,0 -10,-2 -15,-5 -5,-4 -7,-9 -7,-17l0 -310 -90 150c-5,10 -12,14 -19,14 -6,0 -12,-4 -18,-14l-91 -150 0 310c0,7 -2,13 -6,17 -4,3 -9,5 -15,5 -6,0 -11,-2 -16,-5 -4,-4 -6,-9 -6,-17l0 -388c0,-9 2,-15 6,-19 4,-4 9,-7 14,-7 4,0 7,1 10,3 3,3 7,6 10,11l112 186 112 -186c5,-9 12,-14 21,-14 5,0 9,3 14,7 3,5 5,11 5,19l0 388zm163 -87l-31 94c-2,5 -5,8 -9,11 -2,2 -6,3 -11,4 -6,0 -11,-2 -16,-6 -4,-4 -7,-9 -7,-15l2 -8 130 -390c5,-13 12,-19 21,-19 9,0 16,6 20,19l130 390 2 8c0,6 -3,11 -7,15 -5,4 -10,6 -15,6 -3,0 -7,-1 -10,-2 -4,-2 -7,-6 -10,-13l-32 -94 -157 0zm143 -44l-64 -191 -64 191 128 0z"/>
  <path class="fil20 str0" d="M2523 9454c0,6 -2,12 -6,16 -4,3 -9,5 -15,5 -6,0 -11,-2 -15,-5 -5,-4 -7,-9 -7,-16l0 -370 -70 0 -105 375c0,5 -3,8 -7,12 -4,3 -9,4 -13,4 -7,0 -12,-2 -16,-5 -4,-4 -6,-9 -6,-15 0,-4 0,-6 0,-7l109 -391c3,-11 10,-16 21,-16l109 0c14,0 21,7 21,22l0 391zm347 0c0,6 -2,12 -6,16 -4,3 -9,5 -16,5 -5,0 -10,-2 -15,-5 -4,-4 -6,-9 -6,-16l0 -307 -177 317c-2,5 -5,8 -9,11l-5 2c-1,1 -3,1 -7,2 -4,0 -8,-2 -14,-7 -4,-4 -5,-10 -5,-18l0 -391c0,-6 2,-11 6,-16 4,-4 9,-6 15,-6 6,0 11,2 15,6 4,3 7,9 7,16l0 307 176 -318c2,-3 5,-7 9,-10 4,-3 8,-4 12,-4 5,0 9,2 13,7 5,4 7,10 7,18l0 391zm282 21l-108 0c-24,0 -44,-8 -62,-25 -17,-17 -25,-37 -25,-62l0 -260c0,-24 8,-45 25,-62 17,-17 37,-25 62,-25l108 0c6,0 11,2 16,7 4,4 6,9 6,15 0,4 -2,9 -5,14 -4,5 -9,7 -17,7l-109 0c-12,0 -22,4 -31,12 -4,5 -7,9 -9,15 -2,5 -3,11 -3,17l0 261c0,12 4,22 12,31 5,3 9,6 14,9 7,2 12,3 17,3l109 0c6,0 11,2 16,7 4,4 6,9 6,15 0,5 -2,9 -5,14 -4,5 -9,7 -17,7zm217 -391l-87 0c-6,0 -12,-2 -16,-6 -3,-4 -5,-10 -5,-15 0,-5 1,-10 5,-15 4,-5 9,-7 16,-7l217 0c6,0 11,2 16,7 4,4 6,9 6,15 0,4 -2,9 -5,14 -4,5 -10,7 -17,7l-87 0 0 370c0,6 -2,12 -6,16 -4,3 -9,5 -15,5 -6,0 -11,-2 -15,-5 -5,-4 -7,-9 -7,-16l0 -370zm477 304c0,24 -8,45 -25,62 -17,17 -38,25 -62,25l-86 0c-24,0 -44,-8 -61,-25 -18,-17 -26,-37 -26,-62l0 -260c0,-24 8,-45 25,-62 17,-17 38,-25 62,-25l86 0c25,0 45,8 62,25 17,17 25,38 25,62l0 260zm-43 1l0 -261c0,-13 -4,-23 -12,-31 -8,-9 -19,-13 -31,-13l-87 0c-13,0 -23,4 -32,12 -4,5 -7,9 -9,15 -2,5 -3,11 -3,17l0 261c0,12 4,22 12,31 5,3 10,6 14,9 7,2 12,3 18,3l87 0c12,0 22,-4 30,-12 9,-8 13,-19 13,-31zm384 -162c12,8 22,18 30,32 7,13 11,27 11,43l0 86c0,24 -8,45 -25,62 -17,17 -38,25 -62,25l-151 0c-15,0 -22,-7 -22,-21l0 -391c0,-15 7,-22 22,-22l130 0c24,0 44,8 61,25 17,17 26,38 26,62l0 43c0,10 -2,20 -5,29 -3,9 -8,19 -15,27zm-176 31l0 174 130 0c13,0 23,-4 31,-12 9,-8 13,-19 13,-31l0 -87c0,-13 -4,-23 -12,-31 -8,-9 -19,-13 -32,-13l-130 0zm109 -43c12,0 22,-4 31,-12 8,-8 12,-19 12,-32l0 -43c0,-13 -4,-23 -12,-31 -8,-9 -19,-13 -31,-13l-109 0 0 131 109 0zm238 13l183 -181c5,-4 10,-6 15,-6 6,0 11,2 15,7 5,4 7,9 7,15 0,4 -2,9 -6,15l-130 129 134 236 3 11c0,6 -3,11 -7,15 -5,4 -10,6 -16,6 -7,0 -13,-4 -18,-11l-128 -227 -52 51 0 166c0,6 -2,12 -6,16 -4,3 -9,5 -15,5 -6,0 -11,-2 -15,-5 -5,-4 -7,-9 -7,-17l0 -391c0,-6 2,-10 7,-15 4,-4 9,-6 15,-6 5,0 10,2 15,5 4,4 6,9 6,16l0 166zm565 226c0,6 -2,12 -7,16 -3,3 -9,5 -15,5 -6,0 -11,-2 -15,-5 -4,-4 -7,-9 -7,-16l0 -307 -176 317c-2,5 -5,8 -9,11l-5 2c-2,1 -4,1 -7,2 -4,0 -9,-2 -14,-7 -4,-4 -6,-10 -6,-18l0 -391c0,-6 2,-11 7,-16 4,-4 9,-6 15,-6 5,0 10,2 15,6 4,3 6,9 6,16l0 307 177 -318c2,-3 5,-7 9,-10 4,-3 8,-4 12,-4 5,0 9,2 13,7 4,4 7,10 7,18l0 391z"/>
  <path class="fil20 str0" d="M2172 10207c0,23 -9,44 -26,61 -17,17 -37,26 -61,26l-87 0c-23,0 -44,-9 -61,-26 -17,-17 -26,-37 -26,-61l0 -261c0,-24 9,-45 26,-62 16,-16 37,-25 61,-25l87 0c24,0 45,9 61,26 17,17 26,37 26,61l0 261zm-44 0l0 -261c0,-12 -4,-23 -12,-31 -8,-8 -18,-13 -31,-13l-87 0c-12,0 -23,4 -31,13 -4,4 -7,9 -9,14 -2,5 -3,11 -3,17l0 261c0,12 4,22 12,31 4,4 9,7 14,9 6,2 12,3 17,3l87 0c12,0 22,-4 31,-12 8,-8 12,-18 12,-31zm208 -131l0 174 131 0c12,0 22,-4 31,-12 8,-8 12,-18 12,-31l0 -87c0,-12 -4,-23 -12,-31 -8,-8 -18,-13 -31,-13l-131 0zm0 -43l131 0c23,0 44,9 61,25 17,17 26,38 26,62l0 87c0,24 -9,44 -26,61 -17,17 -37,26 -61,26l-152 0c-15,0 -22,-8 -22,-22l0 -391c0,-15 7,-22 22,-22l174 0c6,0 11,2 15,7 4,4 6,9 6,15 0,5 -1,10 -5,14 -4,5 -9,7 -16,7l-153 0 0 131zm435 43l0 174 130 0c12,0 22,-4 31,-12 8,-8 13,-18 13,-31l0 -87c0,-12 -4,-23 -13,-31 -8,-8 -18,-13 -31,-13l-130 0zm0 -43l130 0c24,0 45,9 62,26 16,17 25,37 25,61l0 87c0,24 -9,44 -25,61 -17,17 -38,26 -62,26l-152 0c-14,0 -21,-8 -21,-22l0 -370 -66 0c-6,0 -12,-2 -16,-5 -4,-5 -5,-11 -5,-16 0,-5 1,-10 5,-15 4,-4 9,-7 16,-7l87 0c14,0 22,7 22,22l0 152zm521 43l0 -174 -131 0c-12,0 -22,4 -31,13 -4,4 -7,9 -9,14 -2,5 -3,11 -3,17l0 87c0,12 4,22 12,31 5,4 9,7 14,9 6,2 12,3 17,3l131 0zm-75 44l-102 163c-5,7 -11,11 -18,11 -5,0 -10,-3 -15,-7 -5,-5 -7,-10 -7,-15 0,-5 1,-9 3,-12l88 -140 -5 0c-23,0 -43,-9 -61,-26 -17,-17 -25,-37 -25,-61l0 -87c0,-24 8,-45 25,-62 17,-16 37,-25 61,-25l152 0c15,0 22,7 22,22l0 391c0,7 -2,12 -6,16 -4,4 -9,6 -16,6 -5,0 -10,-2 -15,-6 -4,-4 -6,-9 -6,-16l0 -152 -75 0zm424 -74c12,7 22,18 30,31 7,13 11,28 11,43l0 87c0,23 -8,44 -25,61 -17,17 -38,26 -62,26l-151 0c-15,0 -22,-8 -22,-22l0 -391c0,-15 7,-22 22,-22l130 0c24,0 45,9 61,26 17,17 26,37 26,61l0 43c0,10 -2,20 -5,29 -3,10 -8,19 -15,28zm-176 30l0 174 131 0c12,0 22,-4 30,-12 9,-8 13,-18 13,-31l0 -87c0,-12 -4,-23 -12,-31 -8,-8 -19,-13 -31,-13l-131 0zm109 -43c12,0 22,-4 31,-12 8,-8 12,-19 12,-32l0 -43c0,-12 -4,-23 -12,-31 -8,-8 -18,-13 -31,-13l-109 0 0 131 109 0zm410 239c0,7 -2,12 -6,16 -4,4 -10,6 -16,6 -6,0 -11,-2 -15,-6 -4,-4 -7,-9 -7,-16l0 -370 -70 0 -104 375c-1,5 -4,8 -8,12 -4,3 -8,5 -13,5 -6,0 -12,-2 -16,-6 -4,-3 -6,-9 -6,-15 0,-3 0,-6 1,-7l109 -391c3,-10 9,-16 20,-16l109 0c14,0 22,7 22,22l0 391zm129 -239l109 0c6,0 11,2 16,7 4,4 6,9 6,15 0,5 -2,10 -5,14 -4,5 -9,7 -17,7l-109 0 0 174 153 0c6,0 11,3 15,7 4,4 6,9 6,15 0,5 -1,10 -5,15 -4,4 -9,7 -16,7l-174 0c-15,0 -22,-7 -22,-21l0 -392c0,-15 7,-22 22,-22l174 0c6,0 11,2 15,7 4,4 6,9 6,15 0,5 -1,10 -5,14 -4,5 -9,7 -16,7l-153 0 0 131zm478 0l0 -152c0,-6 2,-11 6,-15 5,-5 10,-7 16,-7 5,0 10,2 14,6 5,3 7,9 7,16l0 390c0,6 -2,12 -7,17 -5,4 -10,6 -15,6 -5,0 -10,-2 -15,-6 -4,-3 -6,-9 -6,-16l0 -196 -174 0 0 196c0,7 -2,12 -6,16 -4,4 -9,6 -16,6 -5,0 -10,-2 -15,-6 -4,-3 -6,-9 -6,-16l0 -391c0,-6 2,-11 6,-16 5,-4 10,-6 15,-6 6,0 11,2 15,6 5,3 7,9 7,16l0 152 174 0zm390 239c0,7 -2,12 -6,16 -4,4 -9,6 -15,6 -6,0 -11,-2 -15,-6 -5,-3 -7,-9 -7,-16l0 -307 -176 317c-3,5 -6,8 -10,11l-4 3c-2,0 -4,1 -7,1 -4,0 -9,-2 -14,-6 -4,-5 -6,-11 -6,-19l0 -391c0,-6 2,-11 6,-16 5,-4 10,-6 16,-6 5,0 10,2 15,6 4,3 6,9 6,16l0 307 176 -317c3,-4 6,-7 10,-11 4,-3 8,-4 11,-4 5,0 10,2 14,7 4,4 6,10 6,18l0 391zm304 -196l0 -174 -130 0c-12,0 -23,4 -31,13 -4,4 -7,9 -10,14 -2,5 -3,11 -3,17l0 87c0,12 5,22 13,31 4,4 9,7 14,9 6,2 12,3 17,3l130 0zm-74 44l-103 163c-4,7 -10,11 -17,11 -6,0 -11,-3 -15,-7 -5,-5 -8,-10 -8,-15 0,-5 1,-9 4,-12l87 -140 -4 0c-23,0 -44,-9 -61,-26 -17,-17 -26,-37 -26,-61l0 -87c0,-24 9,-45 26,-62 16,-16 37,-25 61,-25l152 0c14,0 22,7 22,22l0 391c0,7 -2,12 -7,16 -3,4 -9,6 -15,6 -6,0 -11,-2 -15,-6 -4,-4 -7,-9 -7,-16l0 -152 -74 0z"/>
  <path class="fil20 str0" d="M6927 16119l-109 0c-24,0 -44,-8 -61,-25 -17,-17 -26,-38 -26,-62l0 -260c0,-25 9,-45 25,-62 17,-17 38,-25 62,-25l109 0c6,0 11,2 15,6 4,5 6,10 6,15 0,5 -1,10 -5,15 -4,5 -9,7 -16,7l-109 0c-12,0 -23,4 -31,12 -5,5 -8,9 -10,14 -2,6 -3,11 -3,17l0 261c0,13 4,23 13,32 4,3 9,6 14,9 6,2 12,3 17,3l109 0c6,0 11,2 15,7 4,4 6,9 6,15 0,4 -1,9 -5,14 -4,5 -9,7 -16,7zm349 -87c0,24 -9,44 -26,61 -17,18 -37,26 -61,26l-87 0c-24,0 -44,-8 -61,-25 -17,-17 -26,-38 -26,-62l0 -260c0,-25 9,-45 26,-62 16,-17 37,-25 61,-25l87 0c24,0 45,8 61,25 17,17 26,38 26,62l0 260zm-44 0l0 -261c0,-12 -4,-22 -12,-30 -8,-9 -18,-13 -31,-13l-87 0c-12,0 -23,4 -31,12 -4,5 -7,9 -9,14 -2,6 -4,11 -4,17l0 261c0,13 5,23 13,32 4,3 9,6 14,9 6,2 12,3 17,3l87 0c12,0 22,-4 31,-12 8,-8 12,-19 12,-32zm426 0c0,24 -9,44 -26,61 -17,18 -37,26 -61,26l-87 0c-24,0 -44,-8 -61,-25 -17,-17 -26,-38 -26,-62l0 -260c0,-25 9,-45 26,-62 16,-17 37,-25 61,-25l87 0c24,0 44,8 61,25 17,17 26,38 26,62l0 260zm-44 0l0 -261c0,-12 -4,-22 -12,-30 -8,-9 -18,-13 -31,-13l-87 0c-12,0 -23,4 -31,12 -4,5 -7,9 -9,14 -3,6 -4,11 -4,17l0 261c0,13 5,23 13,32 4,3 9,6 14,9 6,2 12,3 17,3l87 0c12,0 22,-4 31,-12 8,-8 12,-19 12,-32zm208 -130l0 174 131 0c12,0 22,-4 31,-12 8,-8 12,-19 12,-32l0 -87c0,-12 -4,-22 -12,-30 -8,-9 -19,-13 -31,-13l-131 0zm0 -43l131 0c23,0 44,8 61,25 17,17 26,37 26,62l0 86c0,24 -9,44 -26,61 -17,18 -37,26 -61,26l-152 0c-15,0 -22,-7 -22,-22l0 -391c0,-14 7,-21 22,-21l174 0c6,0 11,2 15,6 4,5 6,10 6,15 0,5 -2,10 -5,15 -4,5 -9,7 -17,7l-152 0 0 131zm652 260l-22 0 -304 0c-14,0 -22,-7 -22,-22l0 -391c0,-5 3,-11 7,-16 4,-3 9,-5 15,-5 6,0 11,2 15,5 4,4 7,9 7,16l0 370 108 0 0 -370c0,-5 2,-11 7,-16 4,-3 9,-5 15,-5 5,0 10,2 15,5 4,4 6,9 6,16l0 370 110 0 0 -370c0,-5 2,-11 6,-16 4,-3 9,-5 15,-5 6,0 11,2 15,5 5,4 7,9 7,16l0 370 21 0c15,0 22,7 22,22l0 65c0,6 -2,11 -7,15 -4,4 -9,7 -15,7 -5,0 -9,-2 -14,-6 -5,-4 -7,-9 -7,-16l0 -44zm173 -260l109 0c6,0 11,2 16,6 4,5 6,10 6,15 0,6 -2,10 -5,15 -4,5 -9,7 -17,7l-109 0 0 174 153 0c6,0 11,2 15,7 4,4 7,9 7,15 0,5 -2,10 -6,14 -4,5 -9,7 -16,7l-174 0c-15,0 -22,-7 -22,-20l0 -393c0,-14 7,-21 22,-21l174 0c6,0 11,2 15,6 4,5 7,10 7,15 0,6 -2,10 -6,15 -4,5 -9,7 -16,7l-153 0 0 131zm478 0l0 -153c0,-5 2,-10 6,-15 5,-4 10,-6 16,-6 5,0 10,2 14,5 5,4 7,9 7,16l0 391c0,6 -2,12 -7,16 -5,4 -10,6 -15,6 -5,0 -10,-2 -15,-5 -4,-4 -6,-9 -6,-16l0 -196 -174 0 0 195c0,7 -2,13 -6,17 -4,3 -9,5 -16,5 -5,0 -10,-2 -15,-5 -4,-4 -6,-9 -6,-17l0 -390c0,-6 2,-11 6,-16 5,-4 10,-6 15,-6 6,0 11,2 15,5 5,4 7,9 7,17l0 152 174 0zm390 238c0,7 -2,13 -6,17 -4,3 -9,5 -15,5 -6,0 -11,-2 -15,-5 -5,-4 -7,-9 -7,-17l0 -307 -176 318c-3,4 -6,8 -10,10l-4 3c-2,1 -4,1 -7,2 -4,0 -9,-2 -14,-7 -4,-4 -6,-10 -6,-18l0 -391c0,-6 2,-11 7,-16 4,-4 9,-6 15,-6 5,0 10,2 15,5 4,4 6,9 6,17l0 307 176 -318c3,-3 6,-7 10,-10 4,-3 8,-5 12,-5 4,0 9,3 13,8 4,4 6,10 6,18l0 390zm304 -195l0 -174 -130 0c-12,0 -23,4 -31,12 -4,5 -7,9 -9,14 -2,6 -4,11 -4,17l0 87c0,13 5,23 13,32 4,3 9,6 14,9 6,2 12,3 17,3l130 0zm-74 43l-103 164c-4,7 -10,10 -17,10 -6,0 -11,-2 -15,-7 -5,-4 -8,-9 -8,-15 0,-4 1,-8 4,-12l87 -140 -4 0c-23,0 -44,-8 -61,-25 -17,-17 -26,-38 -26,-62l0 -86c0,-25 9,-45 26,-62 16,-17 37,-25 61,-25l152 0c14,0 22,7 22,21l0 391c0,7 -2,13 -6,17 -4,3 -10,5 -16,5 -6,0 -11,-2 -15,-5 -4,-4 -7,-9 -7,-17l0 -152 -74 0zm725 152c0,7 -2,13 -6,17 -4,3 -9,5 -15,5 -6,0 -11,-2 -15,-5 -5,-4 -7,-9 -7,-17l0 -369 -174 0 0 369c0,7 -2,13 -6,17 -4,3 -9,5 -15,5 -6,0 -11,-2 -16,-5 -4,-4 -6,-9 -6,-17l0 -391c0,-14 7,-21 22,-21l217 0c14,0 21,7 21,21l0 391zm348 -65c0,24 -9,44 -26,61 -17,18 -37,26 -61,26l-87 0c-24,0 -44,-8 -61,-25 -17,-17 -26,-38 -26,-62l0 -260c0,-25 9,-45 26,-62 16,-17 37,-25 61,-25l87 0c24,0 44,8 61,25 17,17 26,38 26,62l0 260zm-44 0l0 -261c0,-12 -4,-22 -12,-30 -8,-9 -18,-13 -31,-13l-87 0c-12,0 -23,4 -31,12 -4,5 -7,9 -10,14 -2,6 -3,11 -3,17l0 261c0,13 5,23 13,32 4,3 9,6 14,9 6,2 12,3 17,3l87 0c12,0 22,-4 31,-12 8,-8 12,-19 12,-32zm469 -130l130 0c12,0 23,-4 31,-12 9,-8 13,-19 13,-32l0 -87c0,-12 -4,-22 -12,-30 -9,-9 -19,-13 -32,-13l-130 0 0 174zm0 43l0 152c0,7 -2,13 -6,17 -4,3 -9,5 -16,5 -5,0 -11,-2 -15,-5 -4,-4 -6,-9 -6,-17l0 -391c0,-14 7,-21 21,-21l152 0c24,0 45,8 62,25 17,17 25,38 25,62l0 86c0,24 -8,44 -25,61 -17,18 -38,26 -62,26l-130 0zm337 66l-32 93c-1,5 -4,8 -8,11 -3,2 -7,3 -11,4 -6,0 -11,-2 -16,-6 -4,-4 -7,-9 -7,-15l2 -8 130 -390c5,-13 11,-19 21,-19 9,0 16,6 20,19l130 390 2 8c0,6 -3,11 -7,15 -5,4 -10,6 -16,6 -3,0 -6,-1 -9,-2 -4,-2 -7,-6 -10,-13l-32 -93 -157 0zm143 -45l-64 -191 -64 191 128 0zm217 110l41 -372c0,-13 7,-19 22,-19l130 0c14,0 21,7 21,21l0 370 22 0c15,0 22,7 22,22l0 43c0,6 -2,11 -6,15 -5,4 -10,6 -15,6 -5,0 -10,-2 -15,-5 -5,-4 -7,-9 -7,-16l0 -22 -218 0 0 22c0,6 -2,11 -6,15 -5,4 -10,6 -15,6 -5,0 -10,-2 -15,-5 -5,-4 -7,-9 -7,-16l0 -43c0,-15 7,-22 22,-22l24 0zm171 0l0 -348 -89 0 -39 348 128 0zm434 21c0,7 -2,13 -6,17 -4,3 -9,5 -15,5 -6,0 -11,-2 -16,-5 -4,-4 -6,-9 -6,-17l0 -307 -176 318c-3,4 -6,8 -10,10l-5 3c-1,1 -3,1 -6,2 -4,0 -9,-2 -15,-7 -3,-4 -5,-10 -5,-18l0 -391c0,-6 2,-11 6,-16 5,-4 10,-6 15,-6 6,0 11,2 15,5 5,4 7,9 7,17l0 307 176 -318c2,-3 5,-7 9,-10 4,-3 8,-5 12,-5 5,0 9,3 14,8 4,4 6,10 6,18l0 390zm347 -65c0,24 -8,44 -25,61 -17,18 -38,26 -61,26l-87 0c-24,0 -44,-8 -61,-25 -17,-17 -26,-38 -26,-62l0 -260c0,-25 8,-45 25,-62 17,-17 38,-25 62,-25l87 0c24,0 44,8 61,25 17,17 25,38 25,62l0 260zm-43 0l0 -261c0,-12 -4,-22 -12,-30 -8,-9 -19,-13 -31,-13l-87 0c-12,0 -23,4 -31,12 -5,5 -8,9 -10,14 -2,6 -3,11 -3,17l0 261c0,13 4,23 13,32 4,3 9,6 14,9 6,2 11,3 17,3l87 0c12,0 22,-4 30,-12 9,-8 13,-19 13,-32z"/>
  <path class="fil20 str0" d="M4427 16904c0,23 -9,44 -26,61 -17,17 -37,25 -61,25l-87 0c-24,0 -44,-8 -61,-25 -17,-17 -26,-37 -26,-61l0 -261c0,-24 9,-45 25,-62 17,-16 38,-25 62,-25l87 0c24,0 44,9 61,26 17,17 26,37 26,61l0 261zm-44 0l0 -261c0,-12 -4,-23 -12,-31 -8,-8 -19,-13 -31,-13l-87 0c-12,0 -23,4 -31,13 -4,4 -7,9 -10,14 -2,5 -3,11 -3,17l0 261c0,12 4,22 13,31 4,4 9,7 14,9 6,2 12,3 17,3l87 0c12,0 22,-4 31,-12 8,-8 12,-18 12,-31zm208 -131l0 174 131 0c12,0 22,-4 31,-12 8,-8 12,-18 12,-31l0 -87c0,-12 -4,-23 -12,-31 -8,-8 -19,-13 -31,-13l-131 0zm0 -43l131 0c23,0 43,9 61,25 17,17 25,38 25,62l0 87c0,23 -8,44 -25,61 -17,17 -37,25 -61,25l-152 0c-15,0 -22,-7 -22,-21l0 -391c0,-15 7,-22 22,-22l173 0c6,0 12,2 16,7 4,4 6,9 6,15 0,5 -2,9 -5,14 -4,5 -9,7 -17,7l-152 0 0 131zm435 43l0 174 130 0c12,0 22,-4 31,-12 8,-8 13,-18 13,-31l0 -87c0,-12 -5,-23 -13,-31 -8,-8 -18,-13 -31,-13l-130 0zm0 -43l130 0c24,0 45,9 61,26 17,16 26,37 26,61l0 87c0,24 -9,44 -26,61 -16,17 -37,25 -61,25l-152 0c-14,0 -22,-7 -22,-21l0 -370 -65 0c-7,0 -12,-2 -16,-6 -4,-4 -6,-10 -6,-15 0,-5 2,-10 6,-15 3,-5 9,-7 16,-7l87 0c14,0 22,7 22,22l0 152zm521 43l0 -174 -131 0c-12,0 -22,4 -31,13 -4,4 -7,9 -9,14 -2,5 -3,11 -3,17l0 87c0,12 4,22 12,31 4,4 9,7 14,9 6,2 12,3 17,3l131 0zm-75 43l-103 164c-4,7 -10,10 -17,10 -5,0 -11,-2 -15,-6 -5,-5 -8,-10 -8,-16 0,-4 2,-8 4,-11l88 -141 -5 0c-23,0 -44,-8 -61,-25 -17,-17 -26,-37 -26,-61l0 -87c0,-24 9,-45 26,-62 17,-16 37,-25 61,-25l152 0c15,0 22,7 22,22l0 391c0,7 -2,12 -6,16 -4,4 -9,5 -16,5 -5,0 -11,-1 -15,-5 -4,-4 -6,-9 -6,-16l0 -153 -75 0zm424 -73c12,7 22,17 30,31 7,13 11,28 11,43l0 87c0,23 -8,44 -25,61 -17,17 -38,25 -62,25l-152 0c-14,0 -21,-7 -21,-21l0 -391c0,-15 7,-22 21,-22l131 0c24,0 44,9 61,26 17,17 25,37 25,61l0 43c0,10 -1,20 -4,29 -3,10 -8,19 -15,28zm-176 30l0 174 130 0c12,0 23,-4 31,-12 9,-8 13,-18 13,-31l0 -87c0,-12 -4,-23 -12,-31 -9,-8 -19,-13 -32,-13l-130 0zm109 -43c12,0 22,-4 31,-12 8,-8 12,-19 12,-32l0 -43c0,-12 -4,-23 -12,-31 -8,-8 -19,-13 -31,-13l-109 0 0 131 109 0zm409 239c0,7 -2,12 -6,16 -4,4 -9,5 -15,5 -6,0 -11,-1 -15,-5 -5,-4 -7,-9 -7,-16l0 -370 -70 0 -105 375c0,5 -3,8 -7,12 -4,3 -8,4 -13,4 -7,0 -12,-1 -16,-5 -4,-4 -6,-9 -6,-15 0,-3 0,-6 1,-7l108 -391c3,-10 10,-16 21,-16l109 0c14,0 21,7 21,22l0 391zm130 -239l109 0c6,0 11,2 15,7 5,4 7,9 7,15 0,5 -2,10 -6,14 -3,5 -9,7 -16,7l-109 0 0 174 153 0c6,0 11,3 15,7 4,4 6,9 6,15 0,5 -1,10 -5,14 -4,5 -9,7 -16,7l-175 0c-14,0 -21,-6 -21,-20l0 -392c0,-15 7,-22 21,-22l175 0c6,0 11,2 15,7 4,4 6,9 6,15 0,5 -1,10 -5,14 -4,5 -9,7 -16,7l-153 0 0 131zm478 0l0 -152c0,-6 2,-11 6,-15 5,-5 10,-7 15,-7 6,0 11,2 15,6 5,3 7,9 7,16l0 390c0,6 -2,12 -7,17 -5,3 -10,5 -15,5 -5,0 -10,-1 -15,-5 -4,-3 -6,-9 -6,-16l0 -196 -174 0 0 196c0,7 -2,12 -6,16 -4,4 -9,5 -16,5 -6,0 -11,-1 -15,-5 -4,-4 -6,-9 -6,-16l0 -391c0,-6 2,-11 6,-16 4,-4 9,-6 15,-6 6,0 11,2 15,6 5,3 7,9 7,16l0 152 174 0zm390 239c0,7 -2,12 -6,16 -4,4 -9,5 -15,5 -6,0 -11,-1 -16,-5 -4,-4 -6,-9 -6,-16l0 -307 -176 317c-3,5 -6,8 -10,11l-5 2c-1,1 -3,2 -6,2 -4,0 -9,-2 -15,-6 -3,-5 -5,-11 -5,-19l0 -391c0,-6 2,-11 6,-16 5,-4 10,-6 15,-6 6,0 11,2 15,6 5,3 7,9 7,16l0 307 176 -317c2,-4 5,-7 10,-11 3,-3 7,-4 11,-4 5,0 9,2 14,7 4,4 6,10 6,18l0 391zm304 -196l0 -174 -130 0c-12,0 -23,4 -31,13 -4,4 -8,9 -10,14 -2,5 -3,11 -3,17l0 87c0,12 4,22 13,31 4,4 9,7 14,9 6,2 12,3 17,3l130 0zm-74 43l-103 164c-4,7 -10,10 -17,10 -6,0 -11,-2 -16,-6 -5,-5 -7,-10 -7,-16 0,-4 1,-8 3,-11l88 -141 -4 0c-24,0 -44,-8 -61,-25 -17,-17 -26,-37 -26,-61l0 -87c0,-24 9,-45 25,-62 17,-16 38,-25 62,-25l152 0c14,0 21,7 21,22l0 391c0,7 -2,12 -6,16 -4,4 -9,5 -15,5 -6,0 -11,-1 -15,-5 -5,-4 -7,-9 -7,-16l0 -153 -74 0zm725 153c0,7 -2,12 -6,16 -4,4 -9,5 -15,5 -6,0 -11,-1 -16,-5 -4,-4 -6,-9 -6,-16l0 -370 -174 0 0 370c0,7 -2,12 -6,16 -4,4 -9,5 -16,5 -5,0 -10,-1 -15,-5 -4,-4 -6,-9 -6,-16l0 -391c0,-15 7,-22 21,-22l217 0c15,0 22,7 22,22l0 391zm347 -65c0,23 -8,44 -25,61 -17,17 -38,25 -61,25l-87 0c-24,0 -44,-8 -61,-25 -17,-17 -26,-37 -26,-61l0 -261c0,-24 8,-45 25,-62 17,-16 38,-25 62,-25l87 0c24,0 44,9 61,26 17,17 25,37 25,61l0 261zm-43 0l0 -261c0,-12 -4,-23 -12,-31 -8,-8 -19,-13 -31,-13l-87 0c-12,0 -23,4 -31,13 -5,4 -8,9 -10,14 -2,5 -3,11 -3,17l0 261c0,12 4,22 13,31 4,4 9,7 14,9 6,2 11,3 17,3l87 0c12,0 22,-4 30,-12 9,-8 13,-18 13,-31zm621 86l-109 0c-23,0 -44,-8 -61,-25 -17,-17 -26,-37 -26,-61l0 -261c0,-24 9,-45 26,-62 17,-16 37,-25 61,-25l109 0c6,0 11,2 15,7 5,4 7,9 7,15 0,5 -2,9 -6,14 -3,5 -9,7 -16,7l-109 0c-12,0 -22,4 -31,13 -4,4 -7,9 -9,14 -2,5 -3,11 -3,17l0 261c0,12 4,22 12,31 4,4 9,7 14,9 6,2 12,3 17,3l109 0c6,0 11,3 15,7 5,4 7,9 7,15 0,5 -2,10 -6,14 -3,5 -9,7 -16,7zm369 -21c0,7 -2,12 -7,16 -3,4 -9,5 -15,5 -6,0 -11,-1 -15,-5 -4,-4 -7,-9 -7,-16l0 -307 -176 317c-2,5 -5,8 -9,11l-5 2c-2,1 -4,2 -7,2 -4,0 -9,-2 -14,-6 -4,-5 -6,-11 -6,-19l0 -391c0,-6 2,-11 7,-16 4,-4 9,-6 15,-6 5,0 10,2 15,6 4,3 6,9 6,16l0 307 177 -317c2,-4 5,-7 9,-11 4,-3 8,-4 12,-4 4,0 9,2 13,7 4,4 7,10 7,18l0 391zm282 21l-109 0c-23,0 -44,-8 -61,-25 -17,-17 -25,-37 -25,-61l0 -261c0,-24 8,-45 25,-62 17,-16 37,-25 61,-25l109 0c6,0 11,2 15,7 5,4 7,9 7,15 0,5 -2,9 -6,14 -3,5 -9,7 -16,7l-109 0c-12,0 -22,4 -31,13 -4,4 -7,9 -9,14 -2,5 -3,11 -3,17l0 261c0,12 4,22 12,31 5,4 9,7 14,9 6,2 12,3 17,3l109 0c6,0 11,3 15,7 5,4 7,9 7,15 0,5 -2,10 -6,14 -3,5 -9,7 -16,7zm217 -391l-87 0c-7,0 -12,-2 -16,-6 -4,-4 -6,-10 -6,-15 0,-5 2,-10 6,-15 3,-5 9,-7 16,-7l217 0c6,0 11,2 15,7 5,4 7,9 7,15 0,5 -2,9 -6,14 -3,5 -9,7 -16,7l-87 0 0 370c0,7 -2,12 -6,16 -4,4 -9,5 -15,5 -6,0 -11,-1 -16,-5 -4,-4 -6,-9 -6,-16l0 -370zm282 131l109 0c6,0 11,2 15,7 5,4 7,9 7,15 0,5 -2,10 -6,14 -3,5 -9,7 -16,7l-109 0 0 174 152 0c6,0 11,3 16,7 4,4 6,9 6,15 0,5 -2,10 -5,14 -4,5 -9,7 -17,7l-174 0c-14,0 -21,-6 -21,-20l0 -392c0,-15 7,-22 21,-22l174 0c6,0 12,2 16,7 4,4 6,9 6,15 0,5 -2,10 -5,14 -4,5 -9,7 -17,7l-152 0 0 131zm565 239c0,7 -2,12 -6,16 -4,4 -10,5 -16,5 -5,0 -10,-1 -14,-5 -5,-4 -8,-9 -8,-16l0 -310 -89 150c-6,9 -12,14 -19,14 -7,0 -13,-5 -19,-14l-90 -150 0 310c0,7 -2,12 -7,16 -3,4 -9,5 -15,5 -6,0 -11,-1 -15,-5 -4,-4 -7,-9 -7,-16l0 -389c0,-8 3,-14 7,-19 3,-4 8,-6 13,-6 4,0 8,1 11,3 3,2 6,6 10,11l112 186 111 -186c5,-9 12,-14 21,-14 5,0 10,2 14,7 4,4 6,11 6,18l0 389zm162 -87l-31 94c-2,4 -4,8 -8,11 -3,2 -7,3 -12,3 -6,0 -11,-2 -15,-6 -5,-3 -7,-8 -7,-15l1 -7 131 -391c4,-12 11,-19 20,-19 10,0 16,7 21,19l130 391 1 7c0,6 -2,11 -7,16 -4,3 -10,5 -15,5 -3,0 -6,0 -10,-2 -3,-1 -7,-5 -10,-12l-31 -94 -158 0zm143 -45l-64 -191 -64 191 128 0zm476 132c0,7 -2,12 -6,16 -4,4 -9,5 -16,5 -5,0 -9,-1 -14,-5 -5,-4 -7,-9 -7,-16l0 -310 -90 150c-5,9 -12,14 -19,14 -6,0 -12,-5 -19,-14l-90 -150 0 310c0,7 -2,12 -6,16 -4,4 -9,5 -16,5 -5,0 -10,-1 -15,-5 -4,-4 -6,-9 -6,-16l0 -389c0,-8 2,-14 6,-19 4,-4 8,-6 14,-6 4,0 7,1 10,3 3,2 7,6 10,11l112 186 112 -186c5,-9 11,-14 20,-14 5,0 10,2 14,7 4,4 6,11 6,18l0 389zm607 -65c0,23 -8,44 -25,61 -17,17 -38,25 -62,25l-86 0c-24,0 -44,-8 -61,-25 -18,-17 -26,-37 -26,-61l0 -261c0,-24 8,-45 25,-62 17,-16 37,-25 62,-25l86 0c24,0 45,9 62,26 17,17 25,37 25,61l0 261zm-43 0l0 -261c0,-12 -4,-23 -12,-31 -8,-8 -19,-13 -32,-13l-87 0c-12,0 -22,4 -31,13 -4,4 -7,9 -9,14 -2,5 -3,11 -3,17l0 261c0,12 4,22 12,31 5,4 9,7 14,9 7,2 12,3 17,3l87 0c13,0 23,-4 31,-12 9,-8 13,-18 13,-31zm425 65c0,7 -2,12 -6,16 -4,4 -9,5 -15,5 -6,0 -11,-1 -16,-5 -4,-4 -6,-9 -6,-16l0 -370 -174 0 0 370c0,7 -2,12 -6,16 -4,4 -9,5 -16,5 -5,0 -10,-1 -15,-5 -4,-4 -6,-9 -6,-16l0 -391c0,-15 7,-22 21,-22l217 0c15,0 22,7 22,22l0 391zm347 -65c0,23 -8,44 -25,61 -17,17 -38,25 -61,25l-87 0c-24,0 -44,-8 -61,-25 -17,-17 -26,-37 -26,-61l0 -261c0,-24 8,-45 25,-62 17,-16 38,-25 62,-25l87 0c24,0 44,9 61,26 17,17 25,37 25,61l0 261zm-43 0l0 -261c0,-12 -4,-23 -12,-31 -8,-8 -19,-13 -31,-13l-87 0c-13,0 -23,4 -31,13 -5,4 -8,9 -10,14 -2,5 -3,11 -3,17l0 261c0,12 4,22 13,31 4,4 9,7 14,9 6,2 11,3 17,3l87 0c12,0 22,-4 30,-12 9,-8 13,-18 13,-31zm384 -161c12,7 22,17 30,31 7,13 11,28 11,43l0 87c0,23 -8,44 -25,61 -17,17 -38,25 -61,25l-152 0c-15,0 -22,-7 -22,-21l0 -391c0,-15 7,-22 22,-22l130 0c24,0 45,9 61,26 17,17 26,37 26,61l0 43c0,10 -2,20 -5,29 -3,10 -8,19 -15,28zm-176 30l0 174 131 0c12,0 22,-4 30,-12 9,-8 13,-18 13,-31l0 -87c0,-12 -4,-23 -12,-31 -8,-8 -19,-13 -31,-13l-131 0zm109 -43c12,0 22,-4 31,-12 8,-8 13,-19 13,-32l0 -43c0,-12 -5,-23 -13,-31 -8,-8 -18,-13 -31,-13l-109 0 0 131 109 0zm238 0l110 0c6,0 11,2 15,7 4,4 6,9 6,15 0,5 -1,10 -5,14 -4,5 -9,7 -16,7l-110 0 0 174 153 0c6,0 11,3 15,7 5,4 7,9 7,15 0,5 -2,10 -6,14 -3,5 -9,7 -16,7l-174 0c-15,0 -22,-6 -22,-20l0 -392c0,-15 7,-22 22,-22l174 0c6,0 11,2 15,7 5,4 7,9 7,15 0,5 -2,10 -6,14 -3,5 -9,7 -16,7l-153 0 0 131zm608 260l-21 0 -304 0c-15,0 -22,-7 -22,-21l0 -391c0,-6 2,-11 6,-16 5,-4 10,-6 16,-6 5,0 10,2 15,6 4,3 6,9 6,16l0 369 109 0 0 -369c0,-6 2,-11 6,-16 5,-4 10,-6 15,-6 6,0 11,2 15,6 5,3 7,9 7,16l0 369 109 0 0 -369c0,-6 2,-11 7,-16 4,-4 9,-6 15,-6 5,0 10,2 15,5 4,4 6,10 6,17l0 369 22 0c14,0 22,7 22,22l0 65c0,6 -3,11 -7,16 -4,4 -10,6 -15,6 -5,0 -10,-2 -15,-6 -4,-3 -7,-9 -7,-16l0 -44zm174 -260l109 0c6,0 11,2 15,7 5,4 7,9 7,15 0,5 -2,10 -6,14 -3,5 -9,7 -16,7l-109 0 0 174 152 0c6,0 11,3 16,7 4,4 6,9 6,15 0,5 -2,10 -5,14 -4,5 -9,7 -17,7l-174 0c-14,0 -21,-6 -21,-20l0 -392c0,-15 7,-22 21,-22l174 0c6,0 12,2 16,7 4,4 6,9 6,15 0,5 -2,10 -5,14 -4,5 -9,7 -17,7l-152 0 0 131zm478 0l0 -152c0,-6 2,-11 6,-15 4,-5 9,-7 15,-7 6,0 11,2 15,6 5,3 7,9 7,16l0 390c0,6 -2,12 -7,17 -5,3 -10,5 -15,5 -5,0 -11,-1 -15,-5 -4,-3 -6,-9 -6,-16l0 -196 -174 0 0 196c0,7 -2,12 -7,16 -3,4 -9,5 -15,5 -6,0 -11,-1 -15,-5 -4,-4 -7,-9 -7,-16l0 -391c0,-6 3,-11 7,-16 4,-4 9,-6 15,-6 5,0 11,2 15,6 4,3 7,9 7,16l0 152 174 0zm390 239c0,7 -2,12 -6,16 -4,4 -9,5 -16,5 -5,0 -10,-1 -15,-5 -4,-4 -6,-9 -6,-16l0 -307 -176 317c-3,5 -6,8 -10,11l-5 2c-1,1 -3,2 -6,2 -5,0 -9,-2 -15,-6 -3,-5 -5,-11 -5,-19l0 -391c0,-6 2,-11 6,-16 4,-4 10,-6 15,-6 6,0 11,2 15,6 5,3 7,9 7,16l0 307 176 -317c2,-4 5,-7 9,-11 4,-3 8,-4 12,-4 5,0 9,2 13,7 5,4 7,10 7,18l0 391zm304 -196l0 -174 -130 0c-13,0 -23,4 -32,13 -4,4 -7,9 -9,14 -2,5 -3,11 -3,17l0 87c0,12 4,22 12,31 5,4 10,7 15,9 6,2 11,3 17,3l130 0zm-75 43l-102 164c-4,7 -10,10 -17,10 -6,0 -11,-2 -16,-6 -5,-5 -7,-10 -7,-16 0,-4 1,-8 3,-11l88 -141 -4 0c-24,0 -44,-8 -61,-25 -18,-17 -26,-37 -26,-61l0 -87c0,-24 8,-45 25,-62 17,-16 38,-25 62,-25l152 0c14,0 21,7 21,22l0 391c0,7 -2,12 -6,16 -4,4 -9,5 -15,5 -6,0 -11,-1 -15,-5 -5,-4 -7,-9 -7,-16l0 -153 -75 0z"/>
  <path class="fil20 str0" d="M14675 8440l131 0c12,0 22,-4 30,-13 9,-8 13,-18 13,-31l0 -87c0,-12 -4,-22 -12,-31 -8,-8 -19,-12 -31,-12l-131 0 0 174zm0 43l0 152c0,7 -2,12 -6,17 -4,3 -9,5 -15,5 -6,0 -11,-2 -16,-6 -4,-3 -6,-9 -6,-16l0 -391c0,-14 7,-22 22,-22l152 0c24,0 44,9 61,26 17,17 25,37 25,61l0 87c0,24 -8,44 -25,61 -17,17 -37,26 -62,26l-130 0zm565 152c0,7 -2,12 -7,17 -3,3 -9,5 -15,5 -6,0 -11,-2 -15,-6 -4,-3 -7,-9 -7,-16l0 -307 -176 318c-2,4 -5,8 -9,10l-5 3c-2,0 -4,1 -7,2 -4,-1 -9,-3 -14,-7 -4,-4 -6,-11 -6,-19l0 -391c0,-5 2,-11 7,-16 4,-3 9,-5 15,-5 5,0 10,2 15,5 4,4 6,9 6,16l0 307 177 -317c2,-3 5,-7 9,-10 4,-3 8,-5 12,-5 4,0 9,3 13,7 4,5 7,11 7,18l0 391zm282 22l-109 0c-23,0 -44,-9 -61,-25 -17,-17 -25,-38 -25,-62l0 -261c0,-24 8,-44 25,-61 17,-17 37,-26 61,-26l109 0c6,0 11,3 15,7 5,4 7,10 7,15 0,5 -2,10 -6,15 -3,4 -9,7 -16,7l-109 0c-12,0 -22,4 -31,12 -4,4 -7,9 -9,14 -2,6 -3,11 -3,17l0 261c0,12 4,23 12,31 5,4 9,7 14,10 6,2 12,3 17,3l109 0c6,0 11,2 15,6 5,5 7,10 7,15 0,5 -2,10 -6,15 -3,4 -9,7 -16,7zm326 -174l-131 0c-23,0 -44,-9 -61,-25 -17,-17 -26,-38 -26,-62l0 -152c0,-6 2,-11 7,-16 4,-4 9,-6 15,-6 5,0 11,2 15,6 4,3 7,9 7,16l0 152c0,12 4,23 12,31 4,4 9,7 14,10 6,2 12,3 17,3l131 0 0 -196c0,-6 2,-11 6,-16 4,-4 9,-6 15,-6 6,0 11,2 15,6 4,3 7,9 7,16l0 326c0,24 -9,44 -26,61 -17,17 -37,26 -61,26l-109 0c-6,0 -12,-2 -16,-6 -3,-5 -5,-10 -5,-16 0,-5 2,-10 5,-14 4,-5 10,-7 16,-7l109 0c12,0 22,-4 31,-13 8,-8 13,-18 13,-31l0 -87zm347 -87l0 -152c0,-6 2,-11 6,-15 5,-4 10,-7 15,-7 6,0 11,2 15,6 5,3 7,9 7,16l0 390c0,7 -2,12 -7,17 -5,4 -10,6 -15,6 -5,0 -10,-2 -15,-5 -4,-4 -6,-9 -6,-17l0 -195 -174 0 0 195c0,7 -2,12 -6,17 -4,3 -9,5 -16,5 -6,0 -11,-2 -15,-6 -4,-3 -6,-9 -6,-16l0 -391c0,-5 2,-11 6,-16 4,-3 9,-5 15,-5 6,0 11,2 15,5 5,4 7,9 7,16l0 152 174 0zm173 14l183 -182c4,-4 9,-6 15,-6 5,0 10,3 15,7 5,5 7,10 7,16 0,4 -2,8 -7,14l-129 129 134 236 3 12c0,5 -3,10 -8,14 -4,5 -9,7 -15,7 -7,0 -14,-4 -19,-12l-127 -226 -52 51 0 165c0,7 -2,12 -6,17 -4,3 -9,5 -16,5 -5,0 -10,-2 -15,-6 -4,-3 -6,-9 -6,-16l0 -391c0,-6 2,-11 7,-15 4,-4 9,-7 14,-7 6,0 11,2 16,5 4,4 6,10 6,17l0 166zm564 225c0,7 -2,12 -6,17 -4,3 -9,5 -15,5 -6,0 -11,-2 -15,-6 -5,-3 -7,-9 -7,-16l0 -307 -176 318c-3,4 -6,8 -10,10l-4 3c-2,0 -4,1 -7,2 -4,-1 -9,-3 -14,-7 -4,-4 -6,-11 -6,-19l0 -391c0,-5 2,-11 7,-16 4,-3 9,-5 15,-5 5,0 10,2 15,5 4,4 6,9 6,16l0 307 176 -317c3,-3 6,-7 10,-10 4,-3 8,-5 12,-5 4,0 9,3 13,7 4,5 6,11 6,18l0 391z"/>
  <path class="fil20 str0" d="M12043 9074l-152 0 0 370c0,7 -2,12 -7,16 -3,4 -9,6 -15,6 -6,0 -11,-2 -15,-6 -4,-3 -7,-9 -7,-16l0 -391c0,-15 8,-22 22,-22l174 0c6,0 11,2 15,7 5,4 7,9 7,15 0,5 -2,10 -6,14 -3,5 -9,7 -16,7zm151 174l131 0c12,0 22,-4 31,-12 8,-8 12,-18 12,-31l0 -87c0,-12 -4,-23 -12,-31 -8,-8 -18,-13 -31,-13l-131 0 0 174zm0 44l0 152c0,7 -2,12 -6,16 -4,4 -9,6 -15,6 -6,0 -11,-2 -15,-6 -5,-3 -7,-9 -7,-16l0 -391c0,-15 7,-22 22,-22l152 0c24,0 44,9 61,26 17,17 26,37 26,61l0 87c0,24 -9,44 -26,61 -17,17 -37,26 -61,26l-131 0zm337 65l-31 94c-2,4 -4,8 -8,11 -3,2 -7,3 -12,4 -6,0 -11,-3 -15,-7 -5,-3 -7,-8 -7,-15l1 -7 131 -391c4,-12 11,-19 20,-19 10,0 16,7 21,19l130 391 1 7c0,6 -2,11 -7,16 -4,4 -10,6 -15,6 -3,0 -6,-1 -10,-3 -3,-1 -7,-5 -10,-12l-31 -94 -158 0zm143 -45l-64 -191 -64 191 128 0zm320 -173l0 197 22 0c24,0 44,-9 61,-26 17,-17 26,-37 26,-62l0 -21c0,-24 -9,-44 -25,-62 -17,-17 -38,-26 -62,-26l-22 0zm-43 197l0 -197 -22 0c-23,0 -44,9 -61,26 -17,17 -26,37 -26,62l0 21c0,24 9,45 26,62 17,17 37,26 61,26l22 0zm0 43l-22 0c-36,0 -66,-13 -92,-38 -25,-25 -38,-56 -38,-93l0 -21c0,-36 13,-66 38,-92 26,-26 56,-39 92,-39l22 0 0 -43c0,-6 2,-11 6,-16 5,-4 10,-6 16,-6 5,0 10,2 15,6 4,3 6,9 6,16l0 43 22 0c36,0 66,13 92,38 12,13 21,27 28,42 7,16 10,32 10,51l0 21c0,36 -13,66 -38,92 -25,26 -56,39 -92,39l-22 0 0 65c0,7 -2,12 -6,16 -4,4 -9,6 -15,6 -6,0 -11,-2 -16,-6 -4,-3 -6,-9 -6,-16l0 -65zm543 65c0,7 -2,12 -6,16 -4,4 -10,6 -16,6 -6,0 -11,-2 -15,-6 -4,-3 -6,-9 -6,-16l0 -307 -177 317c-2,5 -5,8 -9,11l-5 3c-1,0 -4,1 -7,1 -4,0 -9,-2 -14,-6 -4,-5 -6,-11 -6,-19l0 -391c0,-6 3,-11 7,-16 4,-4 9,-6 15,-6 5,0 11,2 15,6 4,3 7,9 7,16l0 307 176 -317c2,-4 5,-7 9,-11 4,-3 8,-4 12,-4 5,0 9,2 13,7 5,4 7,10 7,18l0 391zm304 -196l0 -195c0,-6 2,-11 6,-16 5,-4 10,-6 15,-6 6,0 11,2 15,6 5,3 7,9 7,16l0 391c0,7 -2,12 -6,16 -4,4 -9,6 -16,6 -5,0 -10,-2 -15,-6 -4,-4 -6,-9 -6,-16l0 -152 -130 0c-24,0 -44,-9 -62,-26 -17,-17 -25,-37 -25,-61l0 -152c0,-6 2,-11 6,-16 4,-4 10,-6 15,-6 6,0 11,2 15,6 5,3 7,9 7,16l0 152c0,12 4,22 12,31 5,4 9,7 14,9 6,2 12,3 17,3l131 0zm173 -43l109 0c6,0 11,2 16,7 4,4 6,9 6,15 0,5 -2,10 -5,14 -4,5 -10,7 -17,7l-109 0 0 174 153 0c6,0 11,3 15,7 4,4 6,9 6,15 0,5 -1,10 -5,15 -4,4 -9,7 -16,7l-174 0c-15,0 -22,-7 -22,-21l0 -392c0,-15 7,-22 22,-22l174 0c6,0 11,2 15,7 4,4 6,9 6,15 0,5 -1,10 -5,14 -4,5 -9,7 -16,7l-153 0 0 131zm434 261l-108 0c-24,0 -44,-9 -62,-26 -17,-17 -25,-37 -25,-61l0 -261c0,-24 8,-45 25,-62 17,-16 37,-25 62,-25l108 0c6,0 11,2 16,7 4,4 6,9 6,15 0,5 -2,10 -5,14 -4,5 -10,7 -17,7l-109 0c-12,0 -22,4 -31,13 -4,4 -7,9 -9,14 -2,5 -3,11 -3,17l0 261c0,12 4,22 12,31 5,4 9,7 14,9 6,2 12,3 17,3l109 0c6,0 11,3 16,7 4,4 6,9 6,15 0,5 -2,10 -5,14 -4,5 -10,8 -17,8zm152 -248l183 -181c4,-4 9,-6 15,-6 5,0 10,2 15,7 4,4 7,9 7,16 0,3 -2,8 -7,14l-129 129 133 236 3 11c0,6 -2,11 -7,15 -4,4 -9,7 -16,7 -7,0 -13,-4 -18,-12l-127 -226 -52 51 0 165c0,7 -2,12 -6,16 -4,4 -10,6 -16,6 -6,0 -11,-2 -15,-6 -4,-4 -6,-9 -6,-16l0 -392c0,-5 2,-10 6,-14 5,-5 10,-7 15,-7 6,0 11,2 15,5 5,4 7,9 7,16l0 166zm564 226c0,7 -2,12 -6,16 -4,4 -9,6 -15,6 -6,0 -11,-2 -16,-6 -4,-3 -6,-9 -6,-16l0 -307 -176 317c-3,5 -6,8 -10,11l-5 3c-1,0 -3,1 -6,1 -4,0 -9,-2 -15,-6 -3,-5 -5,-11 -5,-19l0 -391c0,-6 2,-11 6,-16 5,-4 10,-6 15,-6 6,0 11,2 15,6 5,3 7,9 7,16l0 307 176 -317c2,-4 5,-7 10,-11 3,-3 7,-4 11,-4 5,0 9,2 14,7 4,4 6,10 6,18l0 391zm130 -239l109 0c6,0 12,2 16,7 4,4 6,9 6,15 0,5 -2,10 -5,14 -4,5 -9,7 -17,7l-109 0 0 174 153 0c6,0 11,3 15,7 5,4 7,9 7,15 0,5 -2,10 -6,15 -3,4 -9,7 -16,7l-174 0c-15,0 -22,-7 -22,-21l0 -392c0,-15 7,-22 22,-22l174 0c6,0 11,2 15,7 5,4 7,9 7,15 0,5 -2,10 -6,14 -3,5 -9,7 -16,7l-153 0 0 131zm782 239c0,7 -2,12 -6,16 -4,4 -10,6 -16,6 -6,0 -11,-2 -15,-6 -4,-3 -6,-9 -6,-16l0 -307 -177 317c-2,5 -5,8 -9,11l-5 3c-1,0 -4,1 -7,1 -4,0 -9,-2 -14,-6 -4,-5 -6,-11 -6,-19l0 -391c0,-6 2,-11 7,-16 4,-4 9,-6 15,-6 5,0 11,2 15,6 4,3 7,9 7,16l0 307 176 -317c2,-4 5,-7 9,-11 4,-3 8,-4 12,-4 5,0 9,2 13,7 4,4 7,10 7,18l0 391zm217 -196l-65 0c-7,0 -12,-2 -16,-6 -4,-4 -6,-9 -6,-15 0,-5 2,-10 6,-15 4,-5 9,-7 16,-7l65 0c12,0 22,-4 31,-12 8,-8 13,-19 13,-31l0 -44c0,-12 -5,-23 -13,-31 -8,-8 -18,-13 -31,-13l-43 0c-10,0 -18,3 -25,8 -8,5 -13,13 -16,22 -1,4 -4,8 -7,11 -2,1 -4,3 -6,4l-7 1c-6,0 -12,-2 -17,-6 -4,-4 -6,-10 -6,-16l1 -8c6,-17 16,-31 31,-42 15,-11 33,-17 52,-17l43 0c24,0 45,9 61,26 17,17 26,37 26,61l0 43c0,13 -3,25 -8,37 -5,11 -12,21 -22,29 20,16 30,38 30,65l0 87c0,23 -9,44 -26,61 -17,17 -37,26 -61,26l-43 0c-19,0 -36,-6 -51,-17 -15,-10 -25,-25 -32,-43l-1 -8c0,-6 2,-10 6,-15 5,-4 10,-6 17,-6 8,0 15,4 19,14 3,9 8,17 16,24 8,5 17,7 26,7l43 0c12,0 22,-4 31,-12 8,-8 13,-18 13,-31l0 -87c0,-13 -4,-23 -10,-31 -8,-8 -19,-13 -34,-13zm434 131c0,23 -9,44 -26,61 -17,17 -37,26 -61,26l-87 0c-23,0 -44,-9 -61,-26 -17,-17 -26,-37 -26,-61l0 -261c0,-24 9,-45 26,-62 17,-16 37,-25 61,-25l87 0c24,0 45,9 61,26 17,17 26,37 26,61l0 261zm-43 0l0 -261c0,-12 -5,-23 -13,-31 -8,-8 -18,-13 -31,-13l-87 0c-12,0 -22,4 -31,13 -4,4 -7,9 -9,14 -2,5 -3,11 -3,17l0 261c0,12 4,22 12,31 4,4 9,7 14,9 6,2 12,3 17,3l87 0c12,0 22,-4 31,-12 8,-8 13,-18 13,-31zm208 -131l0 174 130 0c12,0 22,-4 31,-12 8,-8 13,-18 13,-31l0 -87c0,-12 -5,-23 -13,-31 -8,-8 -18,-13 -31,-13l-130 0zm0 -43l130 0c23,0 44,9 61,25 17,17 26,38 26,62l0 87c0,24 -9,44 -26,61 -17,17 -37,26 -61,26l-152 0c-14,0 -22,-8 -22,-22l0 -391c0,-15 8,-22 22,-22l174 0c6,0 11,2 15,7 4,4 6,9 6,15 0,5 -1,10 -5,14 -4,5 -9,7 -16,7l-152 0 0 131zm347 43l130 0c12,0 23,-4 31,-12 9,-8 13,-18 13,-31l0 -87c0,-12 -4,-23 -12,-31 -9,-8 -19,-13 -32,-13l-130 0 0 174zm0 44l0 152c0,7 -2,12 -6,16 -4,4 -9,6 -16,6 -5,0 -11,-2 -15,-6 -4,-3 -6,-9 -6,-16l0 -391c0,-15 7,-22 21,-22l152 0c24,0 45,9 62,26 17,17 25,37 25,61l0 87c0,24 -8,44 -25,61 -17,17 -38,26 -62,26l-130 0zm337 65l-32 94c-1,4 -4,8 -8,11 -3,2 -7,3 -11,4 -6,0 -11,-3 -16,-7 -4,-3 -7,-8 -7,-15l2 -7 130 -391c5,-12 11,-19 21,-19 9,0 16,7 20,19l130 391 2 7c0,6 -3,11 -7,16 -5,4 -10,6 -16,6 -3,0 -6,-1 -9,-3 -4,-1 -7,-5 -11,-12l-31 -94 -157 0zm143 -45l-64 -191 -64 191 128 0zm367 -111l112 -160c2,-3 4,-5 7,-7 4,-2 7,-3 10,-3 6,0 11,2 16,7 5,4 7,9 7,15 0,4 -1,9 -4,13l-114 162 115 205c2,4 3,8 3,12 0,5 -2,9 -7,14 -4,4 -9,7 -16,7 -7,0 -13,-4 -18,-12l-111 -199 0 189c0,7 -2,12 -6,16 -4,4 -10,6 -16,6 -6,0 -11,-2 -15,-6 -4,-3 -6,-9 -6,-16l0 -188 -112 198c-2,3 -4,5 -8,8l-5 3 -6 1c-6,0 -11,-2 -15,-7 -5,-4 -7,-9 -7,-15 0,-2 1,-6 3,-11l115 -205 -114 -162c-1,-2 -3,-6 -4,-13 0,-6 2,-11 7,-15 4,-5 9,-7 15,-7 6,0 12,3 18,10l113 160 0 -148c0,-6 2,-11 6,-16 4,-4 9,-6 15,-6 6,0 11,2 15,6 4,3 7,9 7,16l0 148zm281 4l110 0c6,0 11,2 15,7 4,4 6,9 6,15 0,5 -1,10 -5,14 -4,5 -9,7 -16,7l-110 0 0 174 153 0c6,0 11,3 15,7 5,4 7,9 7,15 0,5 -2,10 -6,15 -3,4 -9,7 -16,7l-174 0c-15,0 -22,-7 -22,-21l0 -392c0,-15 7,-22 22,-22l174 0c6,0 11,2 15,7 5,4 7,9 7,15 0,5 -2,10 -6,14 -3,5 -9,7 -16,7l-153 0 0 131zm478 0l0 -152c0,-6 2,-11 7,-15 4,-5 9,-7 15,-7 5,0 10,2 15,6 4,3 6,9 6,16l0 390c0,6 -2,12 -6,17 -6,4 -10,6 -15,6 -6,0 -11,-2 -16,-6 -4,-3 -6,-9 -6,-16l0 -196 -174 0 0 196c0,7 -2,12 -6,16 -4,4 -9,6 -15,6 -6,0 -11,-2 -15,-6 -5,-3 -7,-9 -7,-16l0 -391c0,-6 2,-11 7,-16 4,-4 9,-6 15,-6 5,0 10,2 15,6 4,3 6,9 6,16l0 152 174 0zm391 239c0,7 -2,12 -6,16 -4,4 -10,6 -16,6 -6,0 -11,-2 -15,-6 -4,-3 -7,-9 -7,-16l0 -307 -176 317c-2,5 -5,8 -9,11l-5 3c-1,0 -4,1 -7,1 -4,0 -9,-2 -14,-6 -4,-5 -6,-11 -6,-19l0 -391c0,-6 2,-11 7,-16 4,-4 9,-6 15,-6 5,0 10,2 15,6 4,3 7,9 7,16l0 307 176 -317c2,-4 5,-7 9,-11 4,-3 8,-4 12,-4 5,0 9,2 13,7 4,4 7,10 7,18l0 391zm304 -196l0 -174 -131 0c-12,0 -22,4 -31,13 -4,4 -7,9 -9,14 -2,5 -3,11 -3,17l0 87c0,12 4,22 12,31 5,4 9,7 14,9 6,2 12,3 17,3l131 0zm-75 44l-102 163c-5,7 -11,11 -18,11 -5,0 -10,-3 -15,-7 -5,-5 -7,-10 -7,-15 0,-5 1,-9 3,-12l88 -140 -5 0c-23,0 -44,-9 -61,-26 -17,-17 -25,-37 -25,-61l0 -87c0,-24 8,-45 25,-62 17,-16 37,-25 61,-25l152 0c15,0 22,7 22,22l0 391c0,7 -2,12 -6,16 -4,4 -9,6 -16,6 -5,0 -10,-2 -15,-6 -4,-4 -6,-9 -6,-16l0 -152 -75 0z"/>
  <path class="fil20 str0" d="M14072 10026c12,7 22,18 30,31 7,14 11,28 11,43l0 87c0,24 -8,44 -25,61 -17,17 -38,26 -62,26l-152 0c-14,0 -21,-7 -21,-22l0 -391c0,-14 7,-22 21,-22l131 0c24,0 44,9 61,26 17,17 25,37 25,61l0 44c0,10 -1,19 -4,29 -3,9 -8,18 -15,27zm-176 31l0 174 130 0c12,0 23,-4 31,-13 9,-8 13,-18 13,-31l0 -87c0,-12 -4,-22 -12,-31 -9,-8 -19,-12 -32,-12l-130 0zm109 -44c12,0 22,-4 31,-12 8,-8 12,-18 12,-31l0 -44c0,-12 -4,-22 -12,-31 -8,-8 -19,-12 -31,-12l-109 0 0 130 109 0zm455 239c0,7 -2,12 -6,16 -4,4 -9,6 -15,6 -6,0 -11,-2 -15,-6 -5,-3 -7,-9 -7,-16l0 -307 -176 318c-3,4 -6,8 -10,10l-4 3c-2,0 -4,1 -7,1 -4,0 -9,-2 -15,-6 -3,-4 -5,-11 -5,-19l0 -391c0,-5 2,-11 6,-16 5,-3 10,-5 15,-5 6,0 11,2 15,5 5,4 7,9 7,16l0 307 176 -317c2,-4 5,-7 10,-10 4,-3 7,-5 11,-5 5,0 10,2 14,7 4,5 6,11 6,18l0 391zm133 -21l41 -372c0,-13 7,-20 22,-20l130 0c14,0 21,8 21,22l0 370 22 0c15,0 22,7 22,21l0 43c0,6 -2,11 -6,16 -5,4 -10,6 -15,6 -5,0 -10,-2 -15,-5 -5,-4 -7,-9 -7,-17l0 -21 -218 0 0 21c0,6 -2,11 -6,16 -5,4 -10,6 -15,6 -5,0 -10,-2 -15,-5 -5,-4 -7,-9 -7,-17l0 -43c0,-14 7,-21 22,-21l24 0zm171 0l0 -348 -89 0 -39 348 128 0zm217 -218l109 0c6,0 11,3 16,7 4,4 6,10 6,15 0,5 -2,10 -6,15 -3,4 -9,7 -16,7l-109 0 0 174 153 0c6,0 11,2 15,6 4,5 6,10 6,15 0,5 -1,10 -5,15 -4,4 -9,7 -16,7l-175 0c-14,0 -21,-7 -21,-21l0 -392c0,-14 7,-22 21,-22l175 0c6,0 11,3 15,7 4,4 6,10 6,15 0,5 -1,10 -5,15 -4,4 -9,7 -16,7l-153 0 0 130zm499 174c0,24 -9,44 -25,61 -17,17 -38,26 -62,26l-87 0c-23,0 -44,-9 -61,-26 -17,-16 -25,-37 -25,-61l0 -261c0,-24 8,-44 25,-61 17,-17 37,-26 61,-26l87 0c24,0 45,9 62,26 16,17 25,37 25,61l0 261zm-43 0l0 -261c0,-12 -4,-22 -13,-31 -8,-8 -18,-12 -31,-12l-87 0c-12,0 -22,4 -31,12 -4,4 -7,9 -9,14 -2,5 -3,11 -3,17l0 261c0,12 4,23 12,31 5,4 9,7 14,10 6,2 12,3 17,3l87 0c12,0 22,-4 31,-13 9,-8 13,-18 13,-31zm208 -130l130 0c12,0 22,-4 31,-13 8,-8 13,-18 13,-31l0 -87c0,-12 -4,-22 -13,-31 -8,-8 -18,-12 -31,-12l-130 0 0 174zm0 43l0 152c0,7 -2,12 -6,16 -4,4 -10,6 -16,6 -6,0 -11,-2 -15,-6 -4,-3 -6,-9 -6,-16l0 -391c0,-14 7,-22 21,-22l152 0c24,0 45,9 62,26 16,17 25,37 25,61l0 87c0,24 -9,44 -26,61 -17,17 -37,26 -61,26l-130 0zm564 87c0,24 -8,44 -25,61 -17,17 -38,26 -62,26l-86 0c-24,0 -44,-9 -61,-26 -18,-16 -26,-37 -26,-61l0 -261c0,-24 8,-44 25,-61 17,-17 37,-26 62,-26l86 0c24,0 45,9 62,26 17,17 25,37 25,61l0 261zm-43 0l0 -261c0,-12 -4,-22 -12,-31 -8,-8 -19,-12 -32,-12l-87 0c-12,0 -22,4 -31,12 -4,4 -7,9 -9,14 -2,5 -3,11 -3,17l0 261c0,12 4,23 12,31 5,4 9,7 14,10 7,2 12,3 17,3l87 0c13,0 23,-4 31,-13 9,-8 13,-18 13,-31zm382 65c0,7 -2,12 -6,16 -4,4 -9,6 -15,6 -6,0 -11,-2 -15,-6 -5,-3 -7,-9 -7,-16l0 -369 -70 0 -105 375c0,4 -3,8 -7,11 -4,3 -9,5 -13,5 -7,0 -12,-2 -16,-6 -4,-3 -6,-8 -6,-15 0,-3 0,-5 1,-7l108 -390c3,-11 10,-17 21,-17l109 0c14,0 21,8 21,22l0 391zm347 0c0,7 -2,12 -6,16 -4,4 -9,6 -16,6 -5,0 -10,-2 -15,-6 -4,-3 -6,-9 -6,-16l0 -307 -176 318c-3,4 -6,8 -10,10l-5 3c-1,0 -3,1 -7,1 -4,0 -8,-2 -14,-6 -4,-4 -5,-11 -5,-19l0 -391c0,-5 2,-11 6,-16 4,-3 9,-5 15,-5 6,0 11,2 15,5 5,4 7,9 7,16l0 307 176 -317c2,-4 5,-7 9,-10 4,-3 8,-5 12,-5 5,0 9,2 13,7 5,5 7,11 7,18l0 391zm130 -225l183 -182c4,-4 9,-6 15,-6 5,0 10,3 15,7 5,5 7,10 7,16 0,3 -2,8 -7,14l-129 129 133 236 4 12c0,5 -3,10 -8,14 -4,5 -9,7 -15,7 -7,0 -14,-4 -19,-12l-127 -226 -52 51 0 165c0,7 -2,12 -6,16 -4,4 -9,6 -16,6 -5,0 -10,-2 -15,-6 -4,-3 -6,-9 -6,-16l0 -391c0,-6 2,-11 6,-15 5,-4 10,-7 15,-7 6,0 11,2 16,5 4,4 6,10 6,17l0 166zm564 225c0,7 -2,12 -6,16 -4,4 -9,6 -15,6 -6,0 -11,-2 -15,-6 -5,-3 -7,-9 -7,-16l0 -307 -176 318c-3,4 -6,8 -10,10l-4 3c-2,0 -4,1 -7,1 -4,0 -9,-2 -14,-6 -4,-4 -6,-11 -6,-19l0 -391c0,-5 2,-11 7,-16 4,-3 9,-5 15,-5 5,0 10,2 15,5 4,4 6,9 6,16l0 307 176 -317c3,-4 6,-7 10,-10 4,-3 8,-5 12,-5 4,0 9,2 13,7 4,5 6,11 6,18l0 391z"/>
  <path class="fil20 str0" d="M7035 17717l-145 0c-26,0 -48,-10 -68,-28 -19,-19 -28,-42 -28,-69l0 -168c0,-7 2,-13 7,-18 5,-4 10,-7 17,-7 6,0 12,2 16,6 5,4 8,11 8,19l0 169c0,13 4,25 14,34 5,4 10,8 15,10 7,3 13,4 19,4l145 0 0 -217c0,-7 2,-13 7,-18 5,-4 11,-7 17,-7 6,0 12,2 17,6 5,4 7,11 7,19l0 362c0,26 -9,49 -28,68 -19,19 -42,28 -68,28l-121 0c-7,0 -13,-2 -18,-7 -4,-5 -6,-10 -6,-17 0,-6 2,-11 6,-16 5,-5 11,-8 18,-8l121 0c13,0 25,-4 34,-13 9,-9 14,-21 14,-35l0 -97zm362 193l-121 0c-26,0 -49,-9 -68,-28 -19,-19 -28,-42 -28,-68l0 -290c0,-27 9,-50 28,-68 18,-19 41,-29 68,-29l121 0c7,0 12,3 17,8 5,5 7,10 7,16 0,6 -2,11 -6,17 -4,5 -10,7 -18,7l-121 0c-14,0 -25,5 -35,14 -4,5 -8,10 -10,16 -2,6 -3,12 -3,19l0 290c0,13 4,25 13,34 5,4 11,8 16,11 7,2 13,3 19,3l121 0c7,0 12,3 17,7 5,5 7,11 7,17 0,6 -2,11 -6,16 -4,5 -10,8 -18,8zm241 -435l-97 0c-7,0 -13,-2 -17,-6 -5,-5 -7,-11 -7,-18 0,-5 2,-10 6,-16 4,-5 10,-8 18,-8l241 0c7,0 13,3 17,8 5,5 8,10 8,16 0,6 -2,11 -6,17 -4,5 -11,7 -19,7l-96 0 0 411c0,7 -2,14 -7,18 -4,4 -10,6 -17,6 -6,0 -12,-2 -17,-6 -5,-4 -7,-10 -7,-18l0 -411zm506 146l0 -170c0,-6 3,-12 8,-16 4,-5 10,-8 16,-8 6,0 12,2 17,6 5,4 7,11 7,19l0 433c0,7 -2,13 -7,18 -6,5 -11,7 -17,7 -6,0 -11,-2 -17,-6 -4,-4 -7,-10 -7,-18l0 -217 -193 0 0 217c0,7 -2,14 -7,18 -4,4 -10,6 -17,6 -6,0 -12,-2 -17,-6 -5,-4 -7,-10 -7,-18l0 -434c0,-7 2,-13 7,-18 5,-4 11,-6 17,-6 6,0 12,2 17,6 5,4 7,10 7,18l0 169 193 0zm483 265c0,7 -2,14 -7,18 -4,4 -10,6 -17,6 -6,0 -12,-2 -17,-6 -5,-4 -7,-10 -7,-18l0 -434c0,-7 2,-13 7,-18 5,-4 11,-7 17,-7 6,0 11,2 17,6 5,4 7,11 7,19l0 434zm-290 -217l0 193 97 0c13,0 25,-4 34,-13 10,-9 14,-21 14,-35l0 -97c0,-14 -4,-25 -13,-34 -10,-10 -21,-14 -35,-14l-97 0zm0 -48l97 0c26,0 48,9 68,28 19,19 28,41 28,68l0 97c0,26 -9,49 -28,68 -19,19 -42,28 -68,28l-121 0c-16,0 -24,-8 -24,-24l0 -434c0,-7 2,-13 7,-18 5,-4 11,-7 17,-7 6,0 12,2 16,6 5,5 8,11 8,19l0 169zm434 0l121 0c7,0 13,2 17,7 5,5 8,11 8,17 0,6 -2,11 -7,16 -4,5 -10,8 -18,8l-121 0 0 193 170 0c6,0 12,3 17,7 4,5 7,11 7,17 0,6 -2,11 -6,16 -4,5 -10,8 -18,8l-194 0c-16,0 -24,-8 -24,-23l0 -435c0,-17 8,-25 24,-25l194 0c6,0 12,3 17,8 4,5 7,10 7,16 0,6 -2,12 -6,17 -4,5 -10,7 -18,7l-170 0 0 146zm796 289l-120 0c-27,0 -49,-9 -68,-28 -20,-19 -29,-42 -29,-68l0 -290c0,-27 9,-50 28,-68 19,-19 42,-29 69,-29l120 0c7,0 13,3 17,8 5,5 7,10 7,16 0,6 -2,11 -6,17 -4,5 -10,7 -18,7l-121 0c-13,0 -25,5 -34,14 -5,5 -8,10 -11,16 -2,6 -3,12 -3,19l0 290c0,13 5,25 14,34 5,4 10,8 15,11 7,2 14,3 19,3l121 0c7,0 13,3 17,7 5,5 7,11 7,17 0,6 -2,11 -6,16 -4,5 -10,8 -18,8zm388 -96c0,26 -9,49 -28,68 -19,19 -42,28 -68,28l-97 0c-26,0 -49,-9 -68,-28 -19,-19 -28,-42 -28,-68l0 -290c0,-27 9,-50 28,-68 19,-19 41,-29 68,-29l97 0c26,0 49,10 68,29 19,19 28,41 28,68l0 290zm-48 0l0 -290c0,-14 -4,-25 -14,-35 -9,-9 -20,-14 -34,-14l-97 0c-13,0 -25,5 -34,14 -5,5 -8,10 -11,16 -2,6 -3,12 -3,19l0 290c0,13 4,25 14,34 4,4 10,8 15,11 7,2 13,3 19,3l97 0c13,0 24,-4 34,-13 9,-9 14,-21 14,-35zm472 0c0,26 -9,49 -28,68 -19,19 -41,28 -68,28l-96 0c-27,0 -49,-9 -68,-28 -19,-19 -29,-42 -29,-68l0 -290c0,-27 10,-50 28,-68 19,-19 42,-29 69,-29l96 0c27,0 50,10 68,29 19,19 28,41 28,68l0 290zm-47 0l0 -290c0,-14 -5,-25 -14,-35 -9,-9 -21,-14 -35,-14l-96 0c-14,0 -26,5 -35,14 -5,5 -8,10 -10,16 -3,6 -4,12 -4,19l0 290c0,13 5,25 14,34 5,4 10,8 16,11 6,2 13,3 19,3l96 0c14,0 25,-4 34,-13 10,-9 15,-21 15,-35zm231 -145l0 193 145 0c13,0 24,-4 34,-13 9,-9 14,-21 14,-35l0 -97c0,-14 -5,-25 -14,-34 -9,-10 -20,-14 -34,-14l-145 0zm0 -48l144 0c27,0 49,9 68,28 19,19 29,41 29,68l0 97c0,26 -10,49 -28,68 -19,19 -42,28 -69,28l-168 0c-16,0 -24,-8 -24,-24l0 -434c0,-17 8,-25 24,-25l193 0c6,0 12,3 17,8 4,5 7,10 7,16 0,6 -2,11 -6,17 -4,5 -10,7 -18,7l-169 0 0 146zm723 289l-24 0 -337 0c-17,0 -25,-8 -25,-24l0 -434c0,-7 3,-13 8,-18 4,-4 10,-7 16,-7 7,0 12,2 17,6 5,5 7,11 7,19l0 410 121 0 0 -410c0,-7 2,-13 7,-18 5,-4 11,-7 17,-7 6,0 12,2 17,6 5,5 7,11 7,19l0 410 121 0 0 -410c0,-7 3,-13 8,-18 4,-4 10,-7 16,-7 6,0 12,2 17,6 5,4 7,11 7,19l0 410 24 0c16,0 24,8 24,24l0 73c0,6 -2,12 -7,17 -5,4 -11,7 -17,7 -5,0 -10,-2 -16,-6 -5,-4 -8,-10 -8,-19l0 -48zm193 -289l121 0c7,0 13,2 17,7 5,5 8,11 8,17 0,6 -2,11 -7,16 -4,5 -10,8 -18,8l-121 0 0 193 170 0c6,0 12,3 17,7 4,5 7,11 7,17 0,6 -2,11 -6,16 -4,5 -10,8 -18,8l-194 0c-16,0 -24,-8 -24,-23l0 -435c0,-17 8,-25 24,-25l194 0c6,0 12,3 17,8 4,5 7,10 7,16 0,6 -2,12 -6,17 -4,5 -10,7 -18,7l-170 0 0 146zm531 0l0 -170c0,-6 2,-12 7,-16 5,-5 11,-8 17,-8 6,0 12,2 16,6 5,4 8,11 8,19l0 433c0,7 -3,13 -8,18 -5,5 -11,7 -16,7 -6,0 -12,-2 -17,-6 -5,-4 -7,-10 -7,-18l0 -217 -193 0 0 217c0,7 -3,14 -7,18 -5,4 -10,6 -17,6 -7,0 -12,-2 -17,-6 -5,-4 -7,-10 -7,-18l0 -434c0,-7 2,-13 7,-18 5,-4 10,-6 17,-6 6,0 11,2 16,6 5,4 8,10 8,18l0 169 193 0zm434 265c0,7 -3,14 -7,18 -4,4 -10,6 -17,6 -7,0 -12,-2 -17,-6 -5,-4 -7,-10 -7,-18l0 -341 -196 353c-3,5 -6,8 -11,11l-5 3c-2,1 -4,2 -7,2 -5,0 -10,-2 -16,-7 -4,-5 -7,-12 -7,-21l0 -434c0,-7 3,-13 8,-18 4,-4 10,-6 16,-6 7,0 12,2 17,6 5,4 7,10 7,18l0 341 196 -353c3,-4 6,-8 11,-11 4,-4 8,-5 13,-5 5,0 10,2 14,8 5,4 8,11 8,20l0 434zm338 -217l0 -194 -145 0c-14,0 -25,5 -35,14 -5,5 -8,10 -10,16 -3,6 -4,12 -4,19l0 96c0,14 5,25 14,35 5,4 10,8 16,10 6,3 13,4 19,4l145 0zm-83 48l-114 182c-5,7 -12,11 -20,11 -6,0 -11,-3 -17,-8 -5,-4 -8,-10 -8,-16 0,-5 2,-10 4,-13l98 -156 -5 0c-26,0 -49,-10 -68,-28 -19,-19 -29,-42 -29,-69l0 -96c0,-27 10,-50 28,-68 19,-19 42,-29 69,-29l168 0c17,0 25,8 25,25l0 434c0,7 -3,14 -7,18 -5,4 -10,6 -17,6 -7,0 -12,-2 -17,-6 -5,-4 -7,-10 -7,-18l0 -169 -83 0z"/>
 </g>
</svg>
