<?xml version="1.0" encoding="UTF-8"?>
<!DOCTYPE svg PUBLIC "-//W3C//DTD SVG 1.1//EN" "http://www.w3.org/Graphics/SVG/1.1/DTD/svg11.dtd">
<!-- Creator: CorelDRAW X6 -->
<svg xmlns="http://www.w3.org/2000/svg" xml:space="preserve" width="200mm" height="200mm" version="1.1" style="shape-rendering:geometricPrecision; text-rendering:geometricPrecision; image-rendering:optimizeQuality; fill-rule:evenodd; clip-rule:evenodd"
viewBox="0 0 20000 20000"
 xmlns:xlink="http://www.w3.org/1999/xlink">
 <defs>
  <style type="text/css">
   <![CDATA[
    .str5 {stroke:#024541;stroke-width:29.51}
    .str4 {stroke:#CC7588;stroke-width:63.72}
    .str7 {stroke:#024541;stroke-width:145;stroke-linecap:round;stroke-linejoin:round}
    .str0 {stroke:#024541;stroke-width:145.32;stroke-linecap:round;stroke-linejoin:round}
    .str6 {stroke:#024541;stroke-width:145.33;stroke-linecap:round;stroke-linejoin:round}
    .str1 {stroke:#024541;stroke-width:145.32;stroke-linecap:round;stroke-linejoin:round}
    .str3 {stroke:#024541;stroke-width:145.33;stroke-linecap:round;stroke-linejoin:round}
    .str2 {stroke:#4D897C;stroke-width:145.33;stroke-linecap:round;stroke-linejoin:round}
    .fil6 {fill:none}
    .fil9 {fill:#024541}
    .fil4 {fill:#A75F4A}
    .fil1 {fill:#B7B0A7}
    .fil8 {fill:#CC6F3C}
    .fil2 {fill:#FEFEFE}
    .fil10 {fill:#00315E}
    .fil7 {fill:#FFCA9C}
    .fil5 {fill:#024541;fill-rule:nonzero}
    .fil3 {fill:#4D897C;fill-rule:nonzero}
    .fil11 {fill:#CC7588;fill-rule:nonzero}
    .fil0 {fill:url(#id0)}
   ]]>
  </style>
  <radialGradient id="id0" gradientUnits="userSpaceOnUse" cx="10000" cy="10000" r="10000" fx="10000" fy="10000">
   <stop offset="0" style="stop-color:#FEFEFE"/>
   <stop offset="0.431373" style="stop-color:#FEFEFE"/>
   <stop offset="1" style="stop-color:#D1E2F2"/>
  </radialGradient>
 </defs>
 <g id="Layer_x0020_1">
  <metadata id="CorelCorpID_0Corel-Layer"/>
  <g id="_909719392">
   <polygon class="fil0" points="0,0 20000,0 20000,20000 0,20000 "/>
   <path class="fil1 str0" d="M10678 11628l208 0 45 0c266,0 485,222 484,494l-3 775 2 525 -536 0 -571 0 -1626 0 0 -1300c0,-272 218,-494 484,-494l289 0 532 1272 532 -1272 159 0z"/>
   <g>
    <path class="fil2" d="M15535 6144c0,2554 -4693,3445 -7967,2673l0 1196 -1440 -1696c-1000,-490 -1663,-1214 -1663,-2174 0,-3923 11070,-3923 11070,0z"/>
    <path id="1" class="fil3" d="M7623 8817l-110 0 64 -74 310 67 317 58 323 48 328 38 332 28 335 19 336 9 337 -1 336 -10 334 -20 331 -30 327 -40 322 -49 316 -59 308 -69 300 -78 290 -88 279 -98 267 -107 254 -117 240 -126 224 -136 208 -145 190 -154 171 -163 151 -172 130 -180 108 -188 86 -197 62 -205 38 -213 13 -223 110 0 -14 246 -42 236 -68 226 -93 214 -116 203 -138 192 -159 181 -178 170 -196 159 -214 149 -230 139 -245 129 -258 119 -271 109 -283 99 -293 89 -303 79 -311 69 -319 59 -325 50 -330 40 -334 30 -337 20 -338 10 -339 1 -338 -9 -337 -19 -334 -29 -330 -38 -326 -48 -319 -58 -312 -68 64 -74zm-45 -74l-19 148 -3 -1 -3 -1 -3 -1 -3 -1 -3 -1 -2 -2 -2 -2 -2 -2 -2 -2 -2 -2 -2 -2 -2 -2 -2 -3 -2 -3 -2 -3 -2 -3 -1 -3 -1 -3 -1 -3 -1 -3 -1 -3 -1 -3 -1 -3 -1 -4 -1 -4 0 -4 0 -4 0 -4 0 -4 0 -4 0 -4 0 -4 1 -4 1 -4 1 -4 1 -4 1 -3 1 -3 1 -3 1 -3 1 -3 2 -3 2 -3 2 -3 2 -3 2 -2 2 -2 2 -2 2 -2 2 -2 2 -2 2 -2 2 -1 2 -1 3 -1 3 -1 3 -1 3 -1 3 0 3 0 3 0 3 0 3 0 3 1zm-64 1270l0 -1196 110 0 0 1196 -90 57 -19 -57zm0 0l110 0 0 4 0 4 0 4 0 4 -1 4 -1 4 -1 3 -1 3 -1 3 -1 3 -1 3 -1 3 -2 3 -2 3 -2 3 -2 3 -2 2 -2 2 -2 2 -2 2 -2 2 -2 2 -2 2 -2 2 -2 1 -3 1 -3 1 -3 1 -3 1 -3 0 -3 0 -3 0 -3 0 -3 0 -3 0 -3 -1 -3 -1 -3 -1 -3 -1 -2 -1 -2 -2 -2 -2 -2 -2 -2 -2 -2 -2 -2 -2 -2 -2 -2 -2 -2 -3 -2 -3 -2 -3 -2 -3 -1 -3 -1 -3 -1 -3 -1 -3 -1 -3 -1 -3 -1 -4 -1 -4 0 -4 0 -4 0 -4 0 -4zm-1350 -1753l1440 1696 -71 114 -1440 -1696 54 -127 17 14zm0 0l-71 114 -2 -3 -2 -3 -2 -3 -2 -3 -2 -3 -1 -3 -1 -3 -1 -3 -1 -3 -1 -3 -1 -3 -1 -3 -1 -4 -1 -4 0 -4 0 -4 0 -4 0 -4 0 -4 0 -4 0 -4 0 -4 1 -4 1 -4 1 -3 1 -3 1 -3 1 -3 1 -3 2 -3 2 -3 2 -3 2 -3 2 -3 2 -3 2 -2 2 -2 2 -2 2 -2 2 -2 2 -2 2 -1 3 -1 3 -1 3 -1 3 -1 3 -1 3 0 3 0 3 0 3 0 3 0 3 1 3 1 3 1 3 1 3 1 2 1 2 2 2 2 2 2 2 2 2 2 2 2zm-1753 -2117l110 0 0 0 2 85 5 83 9 82 13 81 16 79 19 78 23 77 26 76 29 75 33 74 36 72 39 71 42 70 45 69 49 68 52 67 54 65 57 64 60 63 63 62 66 61 68 59 71 58 74 57 76 55 79 54 81 53 83 52 86 50 88 49 90 48 92 46 -37 141 -94 -47 -92 -48 -90 -50 -87 -51 -85 -53 -83 -54 -81 -56 -78 -57 -76 -59 -73 -60 -71 -61 -68 -63 -66 -64 -63 -66 -60 -67 -57 -69 -55 -71 -52 -72 -49 -74 -45 -75 -42 -77 -39 -79 -36 -80 -32 -82 -29 -83 -25 -85 -21 -86 -18 -88 -14 -90 -10 -91 -6 -92 -2 -94 0 0zm110 0l-110 0 0 -4 0 -4 0 -4 0 -4 1 -4 1 -4 1 -3 1 -3 1 -3 1 -3 1 -3 1 -3 2 -3 2 -3 2 -3 2 -3 2 -2 2 -2 2 -2 2 -2 2 -2 2 -2 2 -2 2 -2 2 -1 3 -1 3 -1 3 -1 3 -1 3 0 3 0 3 0 3 0 3 0 3 0 3 1 3 1 3 1 3 1 2 1 2 2 2 2 2 2 2 2 2 2 2 2 2 2 2 2 2 3 2 3 2 3 2 3 1 3 1 3 1 3 1 3 1 3 1 3 1 4 1 4 0 4 0 4 0 4 0 4zm11070 0l-110 0 0 0 -30 -338 -88 -317 -143 -298 -196 -278 -245 -258 -290 -237 -332 -216 -369 -194 -402 -171 -430 -148 -455 -126 -476 -103 -492 -80 -504 -57 -512 -34 -516 -11 -516 11 -512 34 -504 57 -492 80 -476 103 -455 126 -430 148 -402 171 -369 194 -332 216 -290 237 -245 258 -196 278 -143 298 -88 317 -30 338 -110 0 33 -374 97 -350 155 -323 208 -296 256 -270 300 -245 340 -221 376 -197 408 -174 436 -150 460 -127 480 -104 496 -81 508 -58 516 -35 520 -12 520 12 516 35 508 58 496 81 480 104 460 127 436 150 408 174 376 197 340 221 300 245 256 270 208 296 155 323 97 350 33 374 0 0zm-110 0l110 0 0 4 0 4 0 4 0 4 -1 4 -1 4 -1 3 -1 3 -1 3 -1 3 -1 3 -1 3 -2 3 -2 3 -2 3 -2 3 -2 2 -2 2 -2 2 -2 2 -2 2 -2 2 -2 2 -2 2 -2 1 -3 1 -3 1 -3 1 -3 1 -3 0 -3 0 -3 0 -3 0 -3 0 -3 0 -3 -1 -3 -1 -3 -1 -3 -1 -2 -1 -2 -2 -2 -2 -2 -2 -2 -2 -2 -2 -2 -2 -2 -2 -2 -2 -2 -3 -2 -3 -2 -3 -2 -3 -1 -3 -1 -3 -1 -3 -1 -3 -1 -3 -1 -3 -1 -4 -1 -4 0 -4 0 -4 0 -4 0 -4z"/>
   </g>
   <polygon class="fil1 str1" points="9987,13001 9622,12628 9622,12379 9321,12154 9386,11628 9456,11628 9987,12900 10519,11628 10589,11628 10654,12154 10353,12379 10353,12628 "/>
   <polygon class="fil4 str1" points="10146,12522 9987,12900 9826,12514 9902,11993 9987,11993 10073,11993 "/>
   <g>
    <polygon class="fil4" points="10154,11767 9821,11767 9902,11993 9987,11993 10073,11993 "/>
    <path id="1" class="fil5" d="M9821 11694l334 0 0 145 -334 0 -69 -48 69 -97zm0 0l0 145 -4 0 -4 0 -4 0 -4 -1 -4 -1 -3 -1 -3 -1 -3 -1 -3 -1 -3 -2 -3 -2 -3 -2 -3 -2 -3 -2 -3 -2 -3 -2 -2 -3 -2 -3 -2 -3 -2 -3 -2 -3 -2 -3 -2 -3 -1 -3 -1 -3 -1 -3 -1 -3 -1 -4 -1 -4 0 -4 0 -4 0 -4 0 -4 0 -4 0 -4 1 -4 1 -4 1 -3 1 -3 1 -3 1 -3 2 -3 2 -3 2 -3 2 -3 2 -3 2 -3 2 -3 3 -2 3 -2 3 -2 3 -2 3 -2 3 -2 3 -2 3 -1 3 -1 3 -1 3 -1 4 -1 4 -1 4 0 4 0 4 0zm12 324l-82 -226 138 -49 82 226 -69 97 -69 -48zm0 0l138 -49 1 4 1 4 1 4 1 4 0 4 0 4 0 4 0 4 0 4 0 3 -1 3 -1 3 -1 3 -1 3 -1 3 -1 3 -2 3 -2 3 -2 3 -2 3 -2 3 -2 3 -2 3 -3 2 -3 2 -3 2 -3 2 -3 2 -3 2 -3 2 -3 2 -4 1 -4 1 -4 1 -4 1 -4 1 -4 0 -4 0 -4 0 -4 0 -4 0 -4 0 -3 -1 -3 -1 -3 -1 -3 -1 -3 -1 -3 -1 -3 -2 -3 -2 -3 -2 -3 -2 -3 -2 -3 -2 -3 -2 -2 -3 -2 -3 -2 -3 -2 -3 -2 -3 -2 -3 -2 -3 -2 -3 -1 -3zm154 48l-85 0 0 -145 85 0 0 0 0 145zm0 0l0 -145 4 0 4 0 4 0 4 1 4 1 3 1 3 1 3 1 3 1 3 2 3 2 3 2 3 2 3 2 3 2 3 2 2 3 2 3 2 3 2 3 2 3 2 3 2 3 1 3 1 3 1 3 1 3 1 4 1 4 0 4 0 4 0 4 0 4 0 4 0 4 -1 4 -1 4 -1 3 -1 3 -1 3 -1 3 -2 3 -2 3 -2 3 -2 3 -2 3 -2 3 -2 3 -3 2 -3 2 -3 2 -3 2 -3 2 -3 2 -3 2 -3 1 -3 1 -3 1 -3 1 -4 1 -4 1 -4 0 -4 0 -4 0zm85 0l-85 0 0 -145 85 0 69 97 -69 48zm0 0l0 -145 4 0 4 0 4 0 4 1 4 1 3 1 3 1 3 1 3 1 3 2 3 2 3 2 3 2 3 2 3 2 3 2 2 3 2 3 2 3 2 3 2 3 2 3 2 3 1 3 1 3 1 3 1 3 1 4 1 4 0 4 0 4 0 4 0 4 0 4 0 4 -1 4 -1 4 -1 3 -1 3 -1 3 -1 3 -2 3 -2 3 -2 3 -2 3 -2 3 -2 3 -2 3 -3 2 -3 2 -3 2 -3 2 -3 2 -3 2 -3 2 -3 1 -3 1 -3 1 -3 1 -4 1 -4 1 -4 0 -4 0 -4 0zm151 -275l-82 226 -138 -49 82 -226 69 -48 69 97zm0 0l-138 -49 1 -3 2 -3 2 -3 2 -3 2 -3 2 -3 2 -3 2 -3 2 -3 3 -2 3 -2 3 -2 3 -2 3 -2 3 -2 3 -2 3 -1 3 -1 3 -1 3 -1 3 -1 3 -1 4 0 4 0 4 0 4 0 4 0 4 0 4 1 4 1 4 1 4 1 4 1 3 2 3 2 3 2 3 2 3 2 3 2 3 2 3 2 2 3 2 3 2 3 2 3 2 3 2 3 2 3 1 3 1 3 1 3 1 3 1 3 1 3 0 3 0 4 0 4 0 4 0 4 0 4 -1 4 -1 4 -1 4 -1 4z"/>
   </g>
   <polygon class="fil2 str1" points="9456,11628 9776,12023 9866,11894 9820,11767 9576,11444 "/>
   <line class="fil6 str1" x1="9219" y1="12792" x2="9219" y2= "13422" />
   <line class="fil6 str1" x1="9987" y1="12900" x2="9987" y2= "13422" />
   <path class="fil7 str1" d="M10154 11767l111 -147 0 -280c-115,49 -220,75 -278,75 -58,0 -162,-26 -278,-75l0 280 111 147 334 0z"/>
   <polygon class="fil2 str1" points="10519,11628 10199,12023 10108,11894 10154,11767 10398,11444 "/>
   <polygon class="fil2 str1" points="9710,11423 9710,11620 9576,11444 "/>
   <polygon class="fil2 str1" points="10265,11423 10265,11620 10399,11444 "/>
   <path class="fil7 str1" d="M9964 11482c176,48 862,-36 973,-451l127 -475c-39,-278 77,-416 -15,-590 -141,20 -276,-21 -406,-105 -221,266 -710,-6 -860,-234 -167,105 -136,283 -308,504l-127 475c-111,415 440,830 617,877z"/>
   <path class="fil8 str1" d="M10603 9097c-43,-20 -89,-37 -137,-50l0 0c-432,-116 -881,143 -997,575l-142 529c41,-26 94,-35 146,-21 172,-221 142,-399 308,-504 148,219 639,501 860,234 131,84 265,125 406,105 92,174 -24,313 15,590 52,14 94,48 116,91l142 -529c116,-432 -143,-881 -575,-997l0 0c-48,-13 -96,-21 -143,-25zm-1322 1287c-9,121 10,240 52,349 -2,-43 3,-86 14,-129l39 -147c-45,-12 -82,-39 -106,-74zm1695 500l-39 147c-12,43 -29,82 -52,119 91,-74 167,-167 220,-276 -38,18 -84,23 -129,11z"/>
   <path class="fil6 str1" d="M9782 9627c-57,-88 -85,-184 -79,-260 237,32 316,-93 500,-74"/>
   <path class="fil9 str1" d="M10617 10513c-31,-8 -62,10 -70,40 -8,31 10,62 40,70 31,8 62,-10 70,-40 8,-31 -10,-62 -40,-70zm-734 -197c31,8 49,40 40,70 -8,31 -40,49 -70,40 -31,-8 -49,-40 -40,-70 8,-31 40,-49 70,-40z"/>
   <path class="fil2 str1" d="M9256 10248c24,-91 122,-143 218,-117l-44 164 -44 164c-96,-26 -155,-120 -131,-211zm1939 519c24,-91 -34,-185 -131,-211l-44 164 -44 164c96,26 194,-27 218,-117z"/>
   <path class="fil10 str1" d="M10164 11211c-38,26 -94,34 -150,19 -90,-24 -148,-100 -129,-169 7,-25 23,-46 44,-61 48,85 130,161 235,210z"/>
   <path class="fil8 str1" d="M9810 10858c227,-57 416,10 582,156 -7,26 -14,51 -21,77 -17,62 -2,9 -19,71 -194,-52 -388,-104 -582,-156 23,-87 16,-60 39,-147z"/>
   <line class="fil6 str2" x1="8663" y1="13158" x2="8369" y2= "12060" />
   <g>
    <path class="fil3" d="M3587 13349l0 147 -5 0 -4 0 -4 0 -4 -1 -4 -1 -4 -1 -4 -1 -4 -1 -4 -1 -4 -2 -4 -2 -4 -2 -3 -2 -3 -2 -3 -2 -3 -2 -3 -3 -3 -3 -3 -3 -2 -3 -2 -3 -2 -3 -2 -3 -2 -3 -2 -3 -1 -3 -1 -3 -1 -4 -1 -4 -1 -4 0 -4 0 -4 0 -4 0 -4 1 -4 1 -4 1 -4 1 -3 1 -3 2 -3 2 -3 2 -3 2 -3 2 -3 2 -3 3 -3 3 -3 3 -3 3 -2 3 -2 3 -2 3 -2 4 -2 4 -2 4 -2 4 -1 4 -1 4 -1 4 -1 4 -1 4 -1 4 0 4 0 5 0zm12826 147l-12826 0 0 -147 12826 0 0 147zm0 0l0 -147 5 0 4 0 4 0 4 1 4 1 4 1 4 1 4 1 4 1 4 2 4 2 4 2 3 2 3 2 3 2 3 2 3 3 3 3 3 3 2 3 2 3 2 3 2 3 2 3 2 3 1 3 1 3 1 4 1 4 1 4 0 4 0 4 0 4 0 4 -1 4 -1 4 -1 4 -1 3 -1 3 -2 3 -2 3 -2 3 -2 3 -2 3 -2 3 -3 3 -3 3 -3 3 -3 2 -3 2 -3 2 -3 2 -4 2 -4 2 -4 2 -4 1 -4 1 -4 1 -4 1 -4 1 -4 1 -4 0 -4 0 -5 0z"/>
   </g>
   <path class="fil7 str3" d="M8390 13422l822 0c0,-40 0,-95 0,-133 0,-186 -85,-288 -210,-322 -77,-21 -200,-21 -272,23 -52,31 -93,85 -92,125 -85,-104 -251,-8 -251,168 0,24 3,95 3,139z"/>
   <path class="fil11 str4" d="M5889 6615c-94,0 -134,-48 -134,-131l0 -57c0,-85 40,-145 134,-145l106 0c94,0 134,61 134,145l0 57c0,83 -40,131 -134,131l-106 0zm37 -450c-94,0 -124,-46 -124,-130l0 -26c0,-82 30,-108 124,-108l32 0c94,0 124,26 124,108l0 26c0,83 -30,130 -124,130l-32 0zm327 262c0,-110 -49,-186 -134,-217 65,-36 87,-89 87,-175l0 -26c0,-152 -75,-227 -249,-227l-32 0c-173,0 -249,75 -249,227l0 26c0,86 22,139 87,175 -85,30 -134,107 -134,217l0 57c0,152 86,250 258,250l106 0c172,0 258,-98 258,-250l0 -57zm844 -458c0,-33 -16,-58 -56,-58 -41,0 -58,25 -58,58l0 231 -218 0c-33,0 -58,16 -58,57 0,41 25,57 58,57l218 0 0 233c0,33 16,58 57,58 41,0 57,-25 57,-58l0 -233 220 0c33,0 58,-16 58,-57 0,-41 -25,-57 -58,-57l-220 0 0 -231zm1051 759c210,-126 278,-294 278,-501l0 -196c0,-152 -86,-250 -258,-250l-77 0c-172,0 -258,91 -258,243l0 66c0,151 86,257 258,257l201 0c-19,108 -79,196 -212,276 -28,17 -49,50 -24,89 24,37 62,34 91,16zm20 -828c94,0 134,48 134,131l0 197 -210 0c-94,0 -134,-53 -134,-138l0 -66c0,-83 40,-124 134,-124l77 0zm1272 282c33,0 58,-16 58,-57 0,-41 -25,-57 -58,-57l-472 0c-33,0 -58,16 -58,57 0,41 25,57 58,57l472 0zm0 264c33,0 58,-16 58,-57 0,-41 -25,-57 -58,-57l-472 0c-33,0 -58,16 -58,57 0,41 25,57 58,57l472 0zm842 -665c-21,0 -36,9 -48,21 -65,71 -138,143 -214,213 -24,22 -33,50 -1,82 29,29 57,19 81,-1 48,-40 97,-90 138,-139l0 644 -165 0c-33,0 -60,17 -60,60 0,42 26,60 60,60l428 0c33,0 60,-17 60,-60 0,-42 -26,-60 -60,-60l-139 0 0 -758c0,-34 -11,-62 -57,-62l-22 0zm538 332c0,-132 49,-213 153,-213l46 0c104,0 152,81 152,213l0 288c0,132 -48,213 -152,213l-46 0c-104,0 -153,-81 -153,-213l0 -288zm476 0c0,-202 -94,-332 -276,-332l-46 0c-182,0 -278,130 -278,332l0 288c0,202 95,332 278,332l46 0c182,0 276,-130 276,-332l0 -288zm854 -144c0,-33 -16,-58 -56,-58 -41,0 -58,25 -58,58l0 231 -218 0c-33,0 -58,16 -58,57 0,41 25,57 58,57l218 0 0 233c0,33 16,58 57,58 41,0 57,-25 57,-58l0 -233 220 0c33,0 58,-16 58,-57 0,-41 -25,-57 -58,-57l-220 0 0 -231zm1055 -188c-21,0 -36,9 -48,21 -65,71 -138,143 -214,213 -24,22 -33,50 -1,82 29,29 57,19 81,-1 48,-40 97,-90 138,-139l0 644 -165 0c-33,0 -60,17 -60,60 0,42 26,60 60,60l428 0c33,0 60,-17 60,-60 0,-42 -26,-60 -60,-60l-139 0 0 -758c0,-34 -11,-62 -57,-62l-22 0zm727 0c-21,0 -36,9 -48,21 -65,71 -138,143 -214,213 -24,22 -33,50 -1,82 29,29 57,19 81,-1 48,-40 97,-90 138,-139l0 644 -165 0c-33,0 -60,17 -60,60 0,42 26,60 60,60l428 0c33,0 60,-17 60,-60 0,-42 -26,-60 -60,-60l-139 0 0 -758c0,-34 -11,-62 -57,-62l-22 0z"/>
   <path class="fil5 str5" d="M2620 14531c-42,0 -59,-29 -59,-67l0 -196c0,-38 17,-67 59,-67l62 0c26,0 40,11 43,36 1,15 9,28 28,28 21,0 29,-13 29,-28 0,-64 -38,-91 -100,-91l-62 0c-78,0 -116,55 -116,122l0 196c0,67 39,122 116,122l62 0c62,0 100,-28 100,-91 0,-15 -9,-28 -29,-28 -20,0 -27,13 -28,28 -2,26 -17,36 -43,36l-62 0zm476 -384c-19,-5 -31,6 -35,20 0,0 -29,116 -56,211 -4,0 -24,0 -45,0 -21,0 -33,-14 -37,-27 -8,-31 -48,-185 -48,-185 -4,-14 -15,-25 -34,-20 -20,6 -25,21 -21,35 0,0 36,138 47,177 10,42 30,73 103,73 9,0 19,-1 19,-1l2 0c-10,36 -20,62 -22,68 -8,19 -31,27 -47,27l-23 0c-16,0 -28,10 -28,29 0,20 13,29 28,29l23 0c40,0 78,-13 100,-62 10,-22 12,-28 19,-54 7,-27 77,-285 77,-285 4,-14 -1,-29 -21,-35zm246 242c-4,-12 -9,-23 -15,-35l-96 -188c-9,-17 -16,-21 -29,-21 -20,0 -28,13 -28,28l0 384c0,15 8,28 28,28 20,0 28,-13 28,-28l0 -236c0,-17 -1,-31 -2,-42l1 0 88 171c4,9 10,15 25,15 15,0 21,-6 25,-15l88 -171 1 0c-1,11 -2,26 -2,42l0 236c0,15 8,28 28,28 20,0 28,-13 28,-28l0 -384c0,-15 -8,-28 -28,-28 -13,0 -20,4 -29,21l-96 188c-6,12 -11,23 -15,35zm427 0c-4,-12 -9,-23 -15,-35l-96 -188c-9,-17 -16,-21 -29,-21 -20,0 -28,13 -28,28l0 384c0,15 8,28 28,28 20,0 28,-13 28,-28l0 -236c0,-17 -1,-31 -2,-42l1 0 88 171c4,9 10,15 25,15 15,0 21,-6 25,-15l88 -171 1 0c-1,11 -2,26 -2,42l0 236c0,15 8,28 28,28 20,0 28,-13 28,-28l0 -384c0,-15 -8,-28 -28,-28 -13,0 -20,4 -29,21l-96 188c-6,12 -11,23 -15,35zm443 70l34 107c5,15 19,23 36,18 16,-6 23,-20 18,-35l-124 -383c-4,-13 -12,-21 -29,-21l-3 0c-17,0 -24,7 -29,21l-124 383c-5,15 2,29 18,35 17,6 31,-3 36,-18l34 -107 133 0zm-76 -185c4,-13 6,-20 9,-35l1 0c3,15 5,21 9,35l42 133 -102 0 42 -133zm435 -7c0,-38 17,-67 59,-67l49 0c42,0 59,29 59,67l0 196c0,38 -17,67 -59,67l-49 0c-42,0 -59,-29 -59,-67l0 -196zm224 0c0,-67 -39,-122 -116,-122l-49 0c-78,0 -116,55 -116,122l0 196c0,67 39,122 116,122l49 0c78,0 116,-55 116,-122l0 -196zm233 53l-89 0 0 -114 156 0c14,0 27,-8 27,-28 0,-18 -13,-28 -27,-28l-184 0c-21,0 -29,13 -29,28l0 372c0,15 9,28 29,28l117 0c79,0 118,-51 118,-119l0 -28c0,-69 -39,-113 -118,-113zm60 146c0,37 -17,58 -59,58l-90 0 0 -152 89 0c42,0 60,21 60,58l0 37zm408 -294c0,-15 -9,-28 -29,-28 -20,0 -29,13 -29,28l0 152 -161 0 0 -152c0,-15 -8,-28 -29,-28 -20,0 -29,13 -29,28l0 384c0,15 9,28 29,28 20,0 29,-13 29,-28l0 -177 161 0 0 177c0,15 8,28 29,28 20,0 29,-13 29,-28l0 -384zm276 286l34 107c5,15 19,23 36,18 16,-6 23,-20 18,-35l-124 -383c-4,-13 -12,-21 -29,-21l-3 0c-17,0 -24,7 -29,21l-124 383c-5,15 2,29 18,35 17,6 31,-3 36,-18l34 -107 133 0zm-76 -185c4,-13 6,-20 9,-35l1 0c3,15 5,21 9,35l42 133 -102 0 42 -133zm277 84l0 -152 96 0c42,0 60,21 60,58l0 31c0,37 -18,64 -60,64l-96 0zm96 55c79,0 118,-51 118,-119l0 -31c0,-69 -39,-113 -118,-113l-125 0c-20,0 -28,13 -28,28l0 378c0,15 9,28 29,28 20,0 29,-13 29,-28l0 -144 96 0zm431 -267c-19,-5 -31,6 -35,20 0,0 -29,116 -56,211 -4,0 -24,0 -45,0 -21,0 -33,-14 -37,-27 -8,-31 -48,-185 -48,-185 -4,-14 -15,-25 -34,-20 -20,6 -25,21 -21,35 0,0 36,138 47,177 10,42 30,73 103,73 9,0 19,-1 19,-1l2 0c-10,36 -20,62 -22,68 -8,19 -31,27 -47,27l-23 0c-16,0 -28,10 -28,29 0,20 13,29 28,29l23 0c40,0 78,-13 100,-62 10,-22 12,-28 19,-54 7,-27 77,-285 77,-285 4,-14 -1,-29 -21,-35zm498 396l-125 -201 111 -153c10,-14 10,-30 -2,-40 -15,-13 -32,-6 -42,7l-113 161 -20 0 0 -143c0,-15 -8,-28 -27,-28 -20,0 -28,13 -28,28l0 143 -21 0 -113 -161c-10,-13 -28,-20 -42,-7 -13,10 -13,26 -2,40l111 153 -125 201c-7,13 -7,29 10,40 17,10 32,2 39,-10l121 -201 23 0 0 186c0,15 8,28 28,28 19,0 27,-13 27,-28l0 -186 22 0 121 201c7,12 22,20 39,10 18,-11 18,-28 10,-40zm296 37c14,0 27,-8 27,-28 0,-18 -13,-28 -27,-28l-168 0 0 -138 138 0c14,0 27,-8 27,-28 0,-18 -13,-28 -27,-28l-138 0 0 -126 168 0c14,0 27,-8 27,-28 0,-18 -13,-28 -27,-28l-197 0c-20,0 -28,13 -28,28l0 372c0,15 9,28 28,28l197 0zm372 -407c0,-15 -9,-28 -29,-28 -20,0 -29,13 -29,28l0 152 -161 0 0 -152c0,-15 -8,-28 -29,-28 -20,0 -29,13 -29,28l0 384c0,15 9,28 29,28 20,0 29,-13 29,-28l0 -177 161 0 0 177c0,15 8,28 29,28 20,0 29,-13 29,-28l0 -384zm369 0c0,-15 -9,-28 -29,-28 -20,0 -29,13 -29,28l0 152 -161 0 0 -152c0,-15 -8,-28 -29,-28 -20,0 -29,13 -29,28l0 384c0,15 9,28 29,28 20,0 29,-13 29,-28l0 -177 161 0 0 177c0,15 8,28 29,28 20,0 29,-13 29,-28l0 -384zm454 384l0 -384c0,-15 -8,-28 -28,-28 -20,0 -29,13 -29,28l0 384c0,15 8,28 28,28 20,0 29,-13 29,-28zm-227 -241l-76 0 0 -144c0,-15 -9,-28 -29,-28 -20,0 -29,13 -29,28l0 378c0,15 9,28 29,28l104 0c79,0 118,-51 118,-119l0 -28c0,-69 -37,-116 -118,-116zm60 150c0,37 -17,58 -59,58l-77 0 0 -152 76 0c42,0 60,21 60,58l0 37 0 0zm376 -164l-78 -141c-8,-14 -21,-21 -39,-12 -17,9 -18,26 -12,37l96 169 -107 190c-6,11 -6,28 12,37 17,9 31,2 39,-12l89 -162 89 162c8,15 21,21 39,12 17,-9 18,-26 12,-37l-107 -190 96 -169c6,-11 6,-28 -12,-37 -17,-9 -31,-2 -39,12l-78 141zm519 18l-89 0 0 -114 156 0c14,0 27,-8 27,-28 0,-18 -13,-28 -27,-28l-184 0c-21,0 -29,13 -29,28l0 372c0,15 9,28 29,28l117 0c79,0 118,-51 118,-119l0 -28c0,-69 -39,-113 -118,-113zm60 146c0,37 -17,58 -59,58l-90 0 0 -152 89 0c42,0 60,21 60,58l0 37zm359 -322c-82,0 -118,69 -118,137l0 44 -56 0 0 -152c0,-15 -6,-28 -27,-28 -20,0 -28,13 -28,28l0 384c0,15 8,28 28,28 20,0 27,-13 27,-28l0 -177 56 0 0 81c0,67 36,124 113,124l32 0c78,0 116,-55 116,-122l0 -196c0,-67 -39,-122 -116,-122l-28 0zm86 318c0,38 -17,67 -59,67l-29 0c-42,0 -59,-29 -59,-67l0 -178c0,-38 16,-86 61,-86l28 0c42,0 59,30 59,64l0 199zm230 39c4,-35 36,-296 36,-296l107 0 0 351c0,15 9,28 29,28 20,0 28,-13 28,-28l0 -378c0,-15 -9,-28 -28,-28l-160 0c-18,0 -28,12 -29,28 -2,18 -35,285 -38,309 -2,14 -4,23 -7,29 -6,12 -17,15 -34,15 -15,0 -28,9 -28,29 0,21 13,28 28,28 53,0 75,-17 88,-48 4,-12 7,-23 9,-39zm380 0c4,-35 36,-296 36,-296l107 0 0 351c0,15 9,28 29,28 20,0 28,-13 28,-28l0 -378c0,-15 -9,-28 -28,-28l-160 0c-18,0 -28,12 -29,28 -2,18 -35,285 -38,309 -2,14 -4,23 -7,29 -6,12 -17,15 -34,15 -15,0 -28,9 -28,29 0,21 13,28 28,28 53,0 75,-17 88,-48 4,-12 7,-23 9,-39zm519 77c14,0 27,-8 27,-28 0,-18 -13,-28 -27,-28l-168 0 0 -138 138 0c14,0 27,-8 27,-28 0,-18 -13,-28 -27,-28l-138 0 0 -126 168 0c14,0 27,-8 27,-28 0,-18 -13,-28 -27,-28l-197 0c-20,0 -28,13 -28,28l0 372c0,15 9,28 28,28l197 0zm201 6c20,0 29,-13 29,-28l0 -351 89 0c14,0 27,-8 27,-28 0,-18 -13,-28 -27,-28l-236 0c-14,0 -27,9 -27,28 0,20 13,28 27,28l89 0 0 351c0,15 9,28 29,28zm424 -6c14,0 27,-8 27,-28 0,-18 -13,-28 -27,-28l-168 0 0 -138 138 0c14,0 27,-8 27,-28 0,-18 -13,-28 -27,-28l-138 0 0 -126 168 0c14,0 27,-8 27,-28 0,-18 -13,-28 -27,-28l-197 0c-20,0 -28,13 -28,28l0 372c0,15 9,28 28,28l197 0zm372 -407c0,-15 -9,-28 -29,-28 -20,0 -29,13 -29,28l0 152 -161 0 0 -152c0,-15 -8,-28 -29,-28 -20,0 -29,13 -29,28l0 384c0,15 9,28 29,28 20,0 29,-13 29,-28l0 -177 161 0 0 177c0,15 8,28 29,28 20,0 29,-13 29,-28l0 -384zm318 407c14,0 27,-8 27,-28 0,-18 -13,-28 -27,-28l-168 0 0 -138 138 0c14,0 27,-8 27,-28 0,-18 -13,-28 -27,-28l-138 0 0 -126 168 0c14,0 27,-8 27,-28 0,-18 -13,-28 -27,-28l-197 0c-20,0 -28,13 -28,28l0 372c0,15 9,28 28,28l197 0zm235 -467c56,0 85,-40 85,-82 0,-13 -10,-21 -23,-21 -13,0 -21,9 -23,22 -2,23 -17,39 -40,39 -23,0 -38,-17 -40,-39 -1,-13 -10,-22 -23,-22 -13,0 -23,9 -23,21 0,42 29,82 85,82zm80 445c0,15 8,28 28,28 21,0 29,-13 29,-28l0 -384c0,-15 -9,-28 -29,-28 -12,0 -20,4 -29,21l-163 291 -1 0c1,-11 2,-26 2,-42l0 -242c0,-15 -8,-28 -28,-28 -21,0 -29,13 -29,28l0 384c0,15 9,28 29,28 12,0 20,-4 29,-21l163 -291 1 0c-1,11 -2,26 -2,42l0 242zm555 -411c-19,-5 -31,6 -35,20 0,0 -29,116 -56,211 -4,0 -24,0 -45,0 -21,0 -33,-14 -37,-27 -8,-31 -48,-185 -48,-185 -4,-14 -15,-25 -34,-20 -20,6 -25,21 -21,35 0,0 36,138 47,177 10,42 30,73 103,73 9,0 19,-1 19,-1l2 0c-10,36 -20,62 -22,68 -8,19 -31,27 -47,27l-23 0c-16,0 -28,10 -28,29 0,20 13,29 28,29l23 0c40,0 78,-13 100,-62 10,-22 12,-28 19,-54 7,-27 77,-285 77,-285 4,-14 -1,-29 -21,-35zm189 384c-42,0 -59,-29 -59,-67l0 -196c0,-38 17,-67 59,-67l62 0c26,0 40,11 43,36 1,15 9,28 28,28 21,0 29,-13 29,-28 0,-64 -38,-91 -100,-91l-62 0c-78,0 -116,55 -116,122l0 196c0,67 39,122 116,122l62 0c62,0 100,-28 100,-91 0,-15 -9,-28 -29,-28 -20,0 -27,13 -28,28 -2,26 -17,36 -43,36l-62 0zm341 55c20,0 29,-13 29,-28l0 -351 89 0c14,0 27,-8 27,-28 0,-18 -13,-28 -27,-28l-236 0c-14,0 -27,9 -27,28 0,20 13,28 27,28l89 0 0 351c0,15 9,28 29,28zm382 -127l34 107c5,15 19,23 36,18 16,-6 23,-20 18,-35l-124 -383c-4,-13 -12,-21 -29,-21l-3 0c-17,0 -24,7 -29,21l-124 383c-5,15 2,29 18,35 17,6 31,-3 36,-18l34 -107 133 0zm-76 -185c4,-13 6,-20 9,-35l1 0c3,15 5,21 9,35l42 133 -102 0 42 -133zm495 -101c0,-15 -9,-28 -29,-28 -20,0 -29,13 -29,28l0 152 -161 0 0 -152c0,-15 -8,-28 -29,-28 -20,0 -29,13 -29,28l0 384c0,15 9,28 29,28 20,0 29,-13 29,-28l0 -177 161 0 0 177c0,15 8,28 29,28 20,0 29,-13 29,-28l0 -384zm144 94c0,-38 17,-67 59,-67l49 0c42,0 59,29 59,67l0 196c0,38 -17,67 -59,67l-49 0c-42,0 -59,-29 -59,-67l0 -196zm224 0c0,-67 -39,-122 -116,-122l-49 0c-78,0 -116,55 -116,122l0 196c0,67 39,122 116,122l49 0c78,0 116,-55 116,-122l0 -196zm144 121l100 0c42,0 59,28 59,65l0 13c0,37 -17,58 -59,58l-100 0 0 -136zm0 -54l0 -129 74 0c42,0 59,15 59,51l0 15c0,37 -17,62 -59,62l-74 0zm217 119c0,-51 -23,-86 -68,-100 27,-17 42,-43 42,-81l0 -15c0,-69 -39,-107 -116,-107l-102 0c-21,0 -29,13 -29,28l0 372c0,15 9,28 29,28l129 0c78,0 116,-44 116,-113l0 -13zm160 49c4,-35 36,-296 36,-296l107 0 0 351c0,15 9,28 29,28 20,0 28,-13 28,-28l0 -378c0,-15 -9,-28 -28,-28l-160 0c-18,0 -28,12 -29,28 -2,18 -35,285 -38,309 -2,14 -4,23 -7,29 -6,12 -17,15 -34,15 -15,0 -28,9 -28,29 0,21 13,28 28,28 53,0 75,-17 88,-48 4,-12 7,-23 9,-39zm519 77c14,0 27,-8 27,-28 0,-18 -13,-28 -27,-28l-168 0 0 -138 138 0c14,0 27,-8 27,-28 0,-18 -13,-28 -27,-28l-138 0 0 -126 168 0c14,0 27,-8 27,-28 0,-18 -13,-28 -27,-28l-197 0c-20,0 -28,13 -28,28l0 372c0,15 9,28 28,28l197 0zm372 -407c0,-15 -9,-28 -29,-28 -20,0 -29,13 -29,28l0 152 -161 0 0 -152c0,-15 -8,-28 -29,-28 -20,0 -29,13 -29,28l0 384c0,15 9,28 29,28 20,0 29,-13 29,-28l0 -177 161 0 0 177c0,15 8,28 29,28 20,0 29,-13 29,-28l0 -384zm369 0c0,-15 -9,-28 -29,-28 -20,0 -29,13 -29,28l0 152 -161 0 0 -152c0,-15 -8,-28 -29,-28 -20,0 -29,13 -29,28l0 384c0,15 9,28 29,28 20,0 29,-13 29,-28l0 -177 161 0 0 177c0,15 8,28 29,28 20,0 29,-13 29,-28l0 -384zm144 94c0,-38 17,-67 59,-67l49 0c42,0 59,29 59,67l0 196c0,38 -17,67 -59,67l-49 0c-42,0 -59,-29 -59,-67l0 -196zm224 0c0,-67 -39,-122 -116,-122l-49 0c-78,0 -116,55 -116,122l0 196c0,67 39,122 116,122l49 0c78,0 116,-55 116,-122l0 -196zm227 -155c56,0 85,-40 85,-82 0,-13 -10,-21 -23,-21 -13,0 -21,9 -23,22 -2,23 -17,39 -40,39 -23,0 -38,-17 -40,-39 -1,-13 -10,-22 -23,-22 -13,0 -23,9 -23,21 0,42 29,82 85,82zm80 445c0,15 8,28 28,28 21,0 29,-13 29,-28l0 -384c0,-15 -9,-28 -29,-28 -12,0 -20,4 -29,21l-163 291 -1 0c1,-11 2,-26 2,-42l0 -242c0,-15 -8,-28 -28,-28 -21,0 -29,13 -29,28l0 384c0,15 9,28 29,28 12,0 20,-4 29,-21l163 -291 1 0c-1,11 -2,26 -2,42l0 242z"/>
   <path class="fil5 str5" d="M2740 14989l-34 0 0 -37c0,-15 -8,-28 -28,-28 -20,0 -29,13 -29,28l0 37 -34 0c-78,0 -116,44 -116,113l0 78c0,67 39,119 116,119l34 0 0 54c0,15 8,28 28,28 20,0 29,-13 29,-28l0 -54 34 0c78,0 116,-52 116,-119l0 -78c0,-69 -39,-113 -116,-113zm-91 258l-34 0c-42,0 -59,-30 -59,-67l0 -79c0,-37 17,-61 59,-61l34 0 0 208zm151 -67c0,37 -18,67 -60,67l-34 0 0 -208 34 0c42,0 60,24 60,61l0 79zm190 -124c0,-38 17,-67 59,-67l49 0c42,0 59,29 59,67l0 196c0,38 -17,67 -59,67l-49 0c-42,0 -59,-29 -59,-67l0 -196zm224 0c0,-67 -39,-122 -116,-122l-49 0c-78,0 -116,55 -116,122l0 196c0,67 39,122 116,122l49 0c78,0 116,-55 116,-122l0 -196zm144 91l0 -152 96 0c42,0 60,21 60,58l0 31c0,37 -18,64 -60,64l-96 0zm96 55c79,0 118,-51 118,-119l0 -31c0,-69 -39,-113 -118,-113l-125 0c-20,0 -28,13 -28,28l0 378c0,15 9,28 29,28 20,0 29,-13 29,-28l0 -144 96 0zm357 -24c-4,-12 -9,-23 -15,-35l-96 -188c-9,-17 -16,-21 -29,-21 -20,0 -28,13 -28,28l0 384c0,15 8,28 28,28 20,0 28,-13 28,-28l0 -236c0,-17 -1,-31 -2,-42l1 0 88 171c4,9 10,15 25,15 15,0 21,-6 25,-15l88 -171 1 0c-1,11 -2,26 -2,42l0 236c0,15 8,28 28,28 20,0 28,-13 28,-28l0 -384c0,-15 -8,-28 -28,-28 -13,0 -20,4 -29,21l-96 188c-6,12 -11,23 -15,35zm621 169l0 -384c0,-15 -8,-28 -28,-28 -20,0 -29,13 -29,28l0 384c0,15 8,28 28,28 20,0 29,-13 29,-28zm-227 -241l-76 0 0 -144c0,-15 -9,-28 -29,-28 -20,0 -29,13 -29,28l0 378c0,15 9,28 29,28l104 0c79,0 118,-51 118,-119l0 -28c0,-69 -37,-116 -118,-116zm60 150c0,37 -17,58 -59,58l-77 0 0 -152 76 0c42,0 60,21 60,58l0 37 0 0z"/>
   <path class="fil5 str5" d="M5037 15177l100 0c42,0 59,28 59,65l0 13c0,37 -17,58 -59,58l-100 0 0 -136zm0 -54l0 -129 74 0c42,0 59,15 59,51l0 15c0,37 -17,62 -59,62l-74 0zm217 119c0,-51 -23,-86 -68,-100 27,-17 42,-43 42,-81l0 -15c0,-69 -39,-107 -116,-107l-102 0c-21,0 -29,13 -29,28l0 372c0,15 9,28 29,28l129 0c78,0 116,-44 116,-113l0 -13z"/>
   <path class="fil5 str5" d="M5954 14994l0 351c0,15 8,28 29,28 20,0 29,-13 29,-28l0 -378c0,-15 -9,-28 -29,-28l-206 0c-20,0 -29,13 -29,28l0 378c0,15 9,28 29,28 20,0 29,-13 29,-28l0 -351 149 0zm376 373c14,0 27,-8 27,-28 0,-18 -13,-28 -27,-28l-168 0 0 -138 138 0c14,0 27,-8 27,-28 0,-18 -13,-28 -27,-28l-138 0 0 -126 168 0c14,0 27,-8 27,-28 0,-18 -13,-28 -27,-28l-197 0c-20,0 -28,13 -28,28l0 372c0,15 9,28 28,28l197 0zm153 -222l0 -152 96 0c42,0 60,21 60,58l0 31c0,37 -18,64 -60,64l-96 0zm96 55c79,0 118,-51 118,-119l0 -31c0,-69 -39,-113 -118,-113l-125 0c-20,0 -28,13 -28,28l0 378c0,15 9,28 29,28 20,0 29,-13 29,-28l0 -144 96 0zm415 167c14,0 27,-8 27,-28 0,-18 -13,-28 -27,-28l-168 0 0 -138 138 0c14,0 27,-8 27,-28 0,-18 -13,-28 -27,-28l-138 0 0 -126 168 0c14,0 27,-8 27,-28 0,-18 -13,-28 -27,-28l-197 0c-20,0 -28,13 -28,28l0 372c0,15 9,28 28,28l197 0zm372 -407c0,-15 -9,-28 -29,-28 -20,0 -29,13 -29,28l0 152 -161 0 0 -152c0,-15 -8,-28 -29,-28 -20,0 -29,13 -29,28l0 384c0,15 9,28 29,28 20,0 29,-13 29,-28l0 -177 161 0 0 177c0,15 8,28 29,28 20,0 29,-13 29,-28l0 -384zm144 94c0,-38 17,-67 59,-67l49 0c42,0 59,29 59,67l0 196c0,38 -17,67 -59,67l-49 0c-42,0 -59,-29 -59,-67l0 -196zm224 0c0,-67 -39,-122 -116,-122l-49 0c-78,0 -116,55 -116,122l0 196c0,67 39,122 116,122l49 0c78,0 116,-55 116,-122l0 -196zm197 263c-42,0 -59,-29 -59,-67l0 -196c0,-38 17,-67 59,-67l62 0c26,0 40,11 43,36 1,15 9,28 28,28 21,0 29,-13 29,-28 0,-64 -38,-91 -100,-91l-62 0c-78,0 -116,55 -116,122l0 196c0,67 39,122 116,122l62 0c62,0 100,-28 100,-91 0,-15 -9,-28 -29,-28 -20,0 -27,13 -28,28 -2,26 -17,36 -43,36l-62 0zm511 -358c0,-15 -9,-28 -29,-28 -20,0 -29,13 -29,28l0 152 -161 0 0 -152c0,-15 -8,-28 -29,-28 -20,0 -29,13 -29,28l0 384c0,15 9,28 29,28 20,0 29,-13 29,-28l0 -177 161 0 0 177c0,15 8,28 29,28 20,0 29,-13 29,-28l0 -384zm454 384l0 -384c0,-15 -8,-28 -28,-28 -20,0 -29,13 -29,28l0 384c0,15 8,28 28,28 20,0 29,-13 29,-28zm-227 -241l-76 0 0 -144c0,-15 -9,-28 -29,-28 -20,0 -29,13 -29,28l0 378c0,15 9,28 29,28l104 0c79,0 118,-51 118,-119l0 -28c0,-69 -37,-116 -118,-116zm60 150c0,37 -17,58 -59,58l-77 0 0 -152 76 0c42,0 60,21 60,58l0 37 0 0zm376 -164l-78 -141c-8,-14 -21,-21 -39,-12 -17,9 -18,26 -12,37l96 169 -107 190c-6,11 -6,28 12,37 17,9 31,2 39,-12l89 -162 89 162c8,15 21,21 39,12 17,-9 18,-26 12,-37l-107 -190 96 -169c6,-11 6,-28 -12,-37 -17,-9 -31,-2 -39,12l-78 141z"/>
   <path class="fil5 str5" d="M10033 15346c0,15 8,28 28,28 21,0 29,-13 29,-28l0 -384c0,-15 -9,-28 -29,-28 -12,0 -20,4 -29,21l-163 291 -1 0c1,-11 2,-26 2,-42l0 -242c0,-15 -8,-28 -28,-28 -21,0 -29,13 -29,28l0 384c0,15 9,28 29,28 12,0 20,-4 29,-21l163 -291 1 0c-1,11 -2,26 -2,42l0 242z"/>
   <path class="fil5 str5" d="M10711 15319c-42,0 -59,-29 -59,-67l0 -196c0,-38 17,-67 59,-67l62 0c26,0 40,11 43,36 1,15 9,28 28,28 21,0 29,-13 29,-28 0,-64 -38,-91 -100,-91l-62 0c-78,0 -116,55 -116,122l0 196c0,67 39,122 116,122l62 0c62,0 100,-28 100,-91 0,-15 -9,-28 -29,-28 -20,0 -27,13 -28,28 -2,26 -17,36 -43,36l-62 0zm341 55c20,0 29,-13 29,-28l0 -351 89 0c14,0 27,-8 27,-28 0,-18 -13,-28 -27,-28l-236 0c-14,0 -27,9 -27,28 0,20 13,28 27,28l89 0 0 351c0,15 9,28 29,28zm382 -127l34 107c5,15 19,23 36,18 16,-6 23,-20 18,-35l-124 -383c-4,-13 -12,-21 -29,-21l-3 0c-17,0 -24,7 -29,21l-124 383c-5,15 2,29 18,35 17,6 31,-3 36,-18l34 -107 133 0zm-76 -185c4,-13 6,-20 9,-35l1 0c3,15 5,21 9,35l42 133 -102 0 42 -133zm427 305c11,0 23,-1 32,-1l-35 60c-3,5 -4,10 -4,16 0,10 10,28 30,28 10,0 19,-7 24,-16l58 -101c2,-4 3,-9 3,-13 0,-20 -13,-28 -27,-28l-25 0 0 -351c0,-15 -9,-28 -29,-28 -21,0 -29,13 -29,28l0 351 -149 0 0 -351c0,-15 -9,-28 -29,-28 -20,0 -29,13 -29,28l0 378c0,15 9,28 29,28l179 0zm387 -22c0,15 8,28 28,28 21,0 29,-13 29,-28l0 -384c0,-15 -9,-28 -29,-28 -12,0 -20,4 -29,21l-163 291 -1 0c1,-11 2,-26 2,-42l0 -242c0,-15 -8,-28 -28,-28 -21,0 -29,13 -29,28l0 384c0,15 9,28 29,28 12,0 20,-4 29,-21l163 -291 1 0c-1,11 -2,26 -2,42l0 242zm201 -290c0,-38 17,-67 59,-67l49 0c42,0 59,29 59,67l0 196c0,38 -17,67 -59,67l-49 0c-42,0 -59,-29 -59,-67l0 -196zm224 0c0,-67 -39,-122 -116,-122l-49 0c-78,0 -116,55 -116,122l0 196c0,67 39,122 116,122l49 0c78,0 116,-55 116,-122l0 -196zm363 -94c0,-15 -9,-28 -29,-28 -20,0 -29,13 -29,28l0 152 -161 0 0 -152c0,-15 -8,-28 -29,-28 -20,0 -29,13 -29,28l0 384c0,15 9,28 29,28 20,0 29,-13 29,-28l0 -177 161 0 0 177c0,15 8,28 29,28 20,0 29,-13 29,-28l0 -384zm276 286l34 107c5,15 19,23 36,18 16,-6 23,-20 18,-35l-124 -383c-4,-13 -12,-21 -29,-21l-3 0c-17,0 -24,7 -29,21l-124 383c-5,15 2,29 18,35 17,6 31,-3 36,-18l34 -107 133 0zm-76 -185c4,-13 6,-20 9,-35l1 0c3,15 5,21 9,35l42 133 -102 0 42 -133zm277 84l0 -152 96 0c42,0 60,21 60,58l0 31c0,37 -18,64 -60,64l-96 0zm96 55c79,0 118,-51 118,-119l0 -31c0,-69 -39,-113 -118,-113l-125 0c-20,0 -28,13 -28,28l0 378c0,15 9,28 29,28 20,0 29,-13 29,-28l0 -144 96 0zm466 -240c0,-15 -9,-28 -29,-28 -20,0 -29,13 -29,28l0 152 -161 0 0 -152c0,-15 -8,-28 -29,-28 -20,0 -29,13 -29,28l0 384c0,15 9,28 29,28 20,0 29,-13 29,-28l0 -177 161 0 0 177c0,15 8,28 29,28 20,0 29,-13 29,-28l0 -384zm454 384l0 -384c0,-15 -8,-28 -28,-28 -20,0 -29,13 -29,28l0 384c0,15 8,28 28,28 20,0 29,-13 29,-28zm-227 -241l-76 0 0 -144c0,-15 -9,-28 -29,-28 -20,0 -29,13 -29,28l0 378c0,15 9,28 29,28l104 0c79,0 118,-51 118,-119l0 -28c0,-69 -37,-116 -118,-116zm60 150c0,37 -17,58 -59,58l-77 0 0 -152 76 0c42,0 60,21 60,58l0 37 0 0zm376 -164l-78 -141c-8,-14 -21,-21 -39,-12 -17,9 -18,26 -12,37l96 169 -107 190c-6,11 -6,28 12,37 17,9 31,2 39,-12l89 -162 89 162c8,15 21,21 39,12 17,-9 18,-26 12,-37l-107 -190 96 -169c6,-11 6,-28 -12,-37 -17,-9 -31,-2 -39,12l-78 141z"/>
   <path class="fil5 str5" d="M15332 15069c0,44 26,94 73,114 -4,7 -8,14 -15,31 0,0 -48,108 -54,121 -6,13 -2,29 17,37 19,7 31,-2 37,-16 6,-15 71,-164 71,-164l78 0 0 154c0,15 9,28 29,28 20,0 29,-13 29,-28l0 -378c0,-15 -9,-28 -29,-28l-118 0c-78,0 -119,49 -119,113l0 17zm116 67c-42,0 -59,-29 -59,-67l0 -17c0,-34 17,-58 61,-58l89 0 0 142 -91 0zm560 231c11,0 23,-1 32,-1l-35 60c-3,5 -4,10 -4,16 0,10 10,28 30,28 10,0 19,-7 24,-16l58 -101c2,-4 3,-9 3,-13 0,-20 -13,-28 -27,-28l-25 0 0 -351c0,-15 -9,-28 -28,-28 -21,0 -29,13 -29,28l0 351 -102 0 0 -351c0,-15 -10,-28 -28,-28 -17,0 -26,14 -26,28l0 351 -102 0 0 -351c0,-15 -9,-28 -29,-28 -20,0 -28,13 -28,28l0 378c0,15 9,28 28,28l290 0zm387 -22c0,15 8,28 28,28 21,0 29,-13 29,-28l0 -384c0,-15 -9,-28 -29,-28 -12,0 -20,4 -29,21l-163 291 -1 0c1,-11 2,-26 2,-42l0 -242c0,-15 -8,-28 -28,-28 -21,0 -29,13 -29,28l0 384c0,15 9,28 29,28 12,0 20,-4 29,-21l163 -291 1 0c-1,11 -2,26 -2,42l0 242zm422 -17l-132 -187 125 -162c11,-14 11,-29 -1,-40 -15,-13 -32,-7 -43,6l-129 174 -37 0 0 -159c0,-15 -9,-28 -28,-28 -21,0 -29,13 -29,28l0 384c0,15 9,28 29,28 20,0 28,-13 28,-28l0 -171 37 0 132 187c8,12 23,19 40,8 17,-12 16,-29 7,-41zm255 -81l34 107c5,15 19,23 36,18 16,-6 23,-20 18,-35l-124 -383c-4,-13 -12,-21 -29,-21l-3 0c-17,0 -24,7 -29,21l-124 383c-5,15 2,29 18,35 17,6 31,-3 36,-18l34 -107 133 0zm-76 -185c4,-13 6,-20 9,-35l1 0c3,15 5,21 9,35l42 133 -102 0 42 -133zm335 29l-78 -141c-8,-14 -21,-21 -39,-12 -17,9 -18,26 -12,37l96 169 -107 190c-6,11 -6,28 12,37 17,9 31,2 39,-12l89 -162 89 162c8,15 21,21 39,12 17,-9 18,-26 12,-37l-107 -190 96 -169c6,-11 6,-28 -12,-37 -17,-9 -31,-2 -39,12l-78 141z"/>
   <path class="fil5 str5" d="M2790 16101l-12 0 0 -345c0,-15 -9,-28 -28,-28l-148 0c-20,0 -28,13 -31,28l-55 345 -19 0c-20,0 -28,13 -28,28l0 79c0,15 9,28 28,28 21,0 29,-13 29,-28l0 -52 233 0 0 52c0,15 9,28 29,28 20,0 28,-13 28,-28l0 -79c0,-15 -9,-28 -28,-28l0 0zm-210 -42l43 -276 98 0 0 318 -149 0c4,-15 7,-28 9,-42l0 0zm387 20c4,-35 36,-296 36,-296l107 0 0 351c0,15 9,28 29,28 20,0 28,-13 28,-28l0 -378c0,-15 -9,-28 -28,-28l-160 0c-18,0 -28,12 -29,28 -2,18 -35,285 -38,309 -2,14 -4,23 -7,29 -6,12 -17,15 -34,15 -15,0 -28,9 -28,29 0,21 13,28 28,28 53,0 75,-17 88,-48 4,-12 7,-23 9,-39zm273 -222c0,44 26,94 73,114 -4,7 -8,14 -15,31 0,0 -48,108 -54,121 -6,13 -2,29 17,37 19,7 31,-2 37,-16 6,-15 71,-164 71,-164l78 0 0 154c0,15 9,28 29,28 20,0 29,-13 29,-28l0 -378c0,-15 -9,-28 -29,-28l-118 0c-78,0 -119,49 -119,113l0 17zm116 67c-42,0 -59,-29 -59,-67l0 -17c0,-34 17,-58 61,-58l89 0 0 142 -91 0z"/>
   <path class="fil5 str5" d="M4171 15727c-23,0 -32,13 -32,28l0 378c0,15 9,28 29,28 20,0 29,-13 29,-28l0 -351 164 0c14,0 27,-8 27,-28 0,-18 -13,-28 -24,-28l-193 0zm323 116c0,-38 17,-67 59,-67l49 0c42,0 59,29 59,67l0 196c0,38 -17,67 -59,67l-49 0c-42,0 -59,-29 -59,-67l0 -196zm224 0c0,-67 -39,-122 -116,-122l-49 0c-78,0 -116,55 -116,122l0 196c0,67 39,122 116,122l49 0c78,0 116,-55 116,-122l0 -196zm173 235c4,-35 36,-296 36,-296l107 0 0 351c0,15 9,28 29,28 20,0 28,-13 28,-28l0 -378c0,-15 -9,-28 -28,-28l-160 0c-18,0 -28,12 -29,28 -2,18 -35,285 -38,309 -2,14 -4,23 -7,29 -6,12 -17,15 -34,15 -15,0 -28,9 -28,29 0,21 13,28 28,28 53,0 75,-17 88,-48 4,-12 7,-23 9,-39zm345 -235c0,-38 17,-67 59,-67l49 0c42,0 59,29 59,67l0 196c0,38 -17,67 -59,67l-49 0c-42,0 -59,-29 -59,-67l0 -196zm224 0c0,-67 -39,-122 -116,-122l-49 0c-78,0 -116,55 -116,122l0 196c0,67 39,122 116,122l49 0c78,0 116,-55 116,-122l0 -196zm197 263c-42,0 -59,-29 -59,-67l0 -196c0,-38 17,-67 59,-67l62 0c26,0 40,11 43,36 1,15 9,28 28,28 21,0 29,-13 29,-28 0,-64 -38,-91 -100,-91l-62 0c-78,0 -116,55 -116,122l0 196c0,67 39,122 116,122l62 0c62,0 100,-28 100,-91 0,-15 -9,-28 -29,-28 -20,0 -27,13 -28,28 -2,26 -17,36 -43,36l-62 0zm287 -263c0,-38 17,-67 59,-67l49 0c42,0 59,29 59,67l0 196c0,38 -17,67 -59,67l-49 0c-42,0 -59,-29 -59,-67l0 -196zm224 0c0,-67 -39,-122 -116,-122l-49 0c-78,0 -116,55 -116,122l0 196c0,67 39,122 116,122l49 0c78,0 116,-55 116,-122l0 -196zm144 121l100 0c42,0 59,28 59,65l0 13c0,37 -17,58 -59,58l-100 0 0 -136zm0 -54l0 -129 74 0c42,0 59,15 59,51l0 15c0,37 -17,62 -59,62l-74 0zm217 119c0,-51 -23,-86 -68,-100 27,-17 42,-43 42,-81l0 -15c0,-69 -39,-107 -116,-107l-102 0c-21,0 -29,13 -29,28l0 372c0,15 9,28 29,28l129 0c78,0 116,-44 116,-113l0 -13zm258 6l34 107c5,15 19,23 36,18 16,-6 23,-20 18,-35l-124 -383c-4,-13 -12,-21 -29,-21l-3 0c-17,0 -24,7 -29,21l-124 383c-5,15 2,29 18,35 17,6 31,-3 36,-18l34 -107 133 0zm-76 -185c4,-13 6,-20 9,-35l1 0c3,15 5,21 9,35l42 133 -102 0 42 -133zm495 -101c0,-15 -9,-28 -29,-28 -20,0 -29,13 -29,28l0 152 -161 0 0 -152c0,-15 -8,-28 -29,-28 -20,0 -29,13 -29,28l0 384c0,15 9,28 29,28 20,0 29,-13 29,-28l0 -177 161 0 0 177c0,15 8,28 29,28 20,0 29,-13 29,-28l0 -384zm313 384c0,15 8,28 28,28 21,0 29,-13 29,-28l0 -384c0,-15 -9,-28 -29,-28 -12,0 -20,4 -29,21l-163 291 -1 0c1,-11 2,-26 2,-42l0 -242c0,-15 -8,-28 -28,-28 -21,0 -29,13 -29,28l0 384c0,15 9,28 29,28 12,0 20,-4 29,-21l163 -291 1 0c-1,11 -2,26 -2,42l0 242zm129 -277c0,44 26,94 73,114 -4,7 -8,14 -15,31 0,0 -48,108 -54,121 -6,13 -2,29 17,37 19,7 31,-2 37,-16 6,-15 71,-164 71,-164l78 0 0 154c0,15 9,28 29,28 20,0 29,-13 29,-28l0 -378c0,-15 -9,-28 -29,-28l-118 0c-78,0 -119,49 -119,113l0 17zm116 67c-42,0 -59,-29 -59,-67l0 -17c0,-34 17,-58 61,-58l89 0 0 142 -91 0z"/>
   <path class="fil5 str5" d="M9128 16101l-12 0 0 -345c0,-15 -9,-28 -28,-28l-148 0c-20,0 -28,13 -31,28l-55 345 -19 0c-20,0 -28,13 -28,28l0 79c0,15 9,28 28,28 21,0 29,-13 29,-28l0 -52 233 0 0 52c0,15 9,28 29,28 20,0 28,-13 28,-28l0 -79c0,-15 -9,-28 -28,-28l0 0zm-210 -42l43 -276 98 0 0 318 -149 0c4,-15 7,-28 9,-42l0 0zm353 -215c0,-38 17,-67 59,-67l49 0c42,0 59,29 59,67l0 196c0,38 -17,67 -59,67l-49 0c-42,0 -59,-29 -59,-67l0 -196zm224 0c0,-67 -39,-122 -116,-122l-49 0c-78,0 -116,55 -116,122l0 196c0,67 39,122 116,122l49 0c78,0 116,-55 116,-122l0 -196zm173 235c4,-35 36,-296 36,-296l107 0 0 351c0,15 9,28 29,28 20,0 28,-13 28,-28l0 -378c0,-15 -9,-28 -28,-28l-160 0c-18,0 -28,12 -29,28 -2,18 -35,285 -38,309 -2,14 -4,23 -7,29 -6,12 -17,15 -34,15 -15,0 -28,9 -28,29 0,21 13,28 28,28 53,0 75,-17 88,-48 4,-12 7,-23 9,-39zm713 40l-125 -201 111 -153c10,-14 10,-30 -2,-40 -15,-13 -32,-6 -42,7l-113 161 -20 0 0 -143c0,-15 -8,-28 -27,-28 -20,0 -28,13 -28,28l0 143 -21 0 -113 -161c-10,-13 -28,-20 -42,-7 -13,10 -13,26 -2,40l111 153 -125 201c-7,13 -7,29 10,40 17,10 32,2 39,-10l121 -201 23 0 0 186c0,15 8,28 28,28 19,0 27,-13 27,-28l0 -186 22 0 121 201c7,12 22,20 39,10 18,-11 18,-28 10,-40zm347 -369c0,-15 -9,-28 -29,-28 -20,0 -29,13 -29,28l0 152 -161 0 0 -152c0,-15 -8,-28 -29,-28 -20,0 -29,13 -29,28l0 384c0,15 9,28 29,28 20,0 29,-13 29,-28l0 -177 161 0 0 177c0,15 8,28 29,28 20,0 29,-13 29,-28l0 -384zm276 286l34 107c5,15 19,23 36,18 16,-6 23,-20 18,-35l-124 -383c-4,-13 -12,-21 -29,-21l-3 0c-17,0 -24,7 -29,21l-124 383c-5,15 2,29 18,35 17,6 31,-3 36,-18l34 -107 133 0zm-76 -185c4,-13 6,-20 9,-35l1 0c3,15 5,21 9,35l42 133 -102 0 42 -133z"/>
   <path class="fil5 str5" d="M11845 15934l0 -152 96 0c42,0 60,21 60,58l0 31c0,37 -18,64 -60,64l-96 0zm96 55c79,0 118,-51 118,-119l0 -31c0,-69 -39,-113 -118,-113l-125 0c-20,0 -28,13 -28,28l0 378c0,15 9,28 29,28 20,0 29,-13 29,-28l0 -144 96 0zm373 46l34 107c5,15 19,23 36,18 16,-6 23,-20 18,-35l-124 -383c-4,-13 -12,-21 -29,-21l-3 0c-17,0 -24,7 -29,21l-124 383c-5,15 2,29 18,35 17,6 31,-3 36,-18l34 -107 133 0zm-76 -185c4,-13 6,-20 9,-35l1 0c3,15 5,21 9,35l42 133 -102 0 42 -133zm277 114l100 0c42,0 59,28 59,65l0 13c0,37 -17,58 -59,58l-100 0 0 -136zm0 -54l0 -129 74 0c42,0 59,15 59,51l0 15c0,37 -17,62 -59,62l-74 0zm217 119c0,-51 -23,-86 -68,-100 27,-17 42,-43 42,-81l0 -15c0,-69 -39,-107 -116,-107l-102 0c-21,0 -29,13 -29,28l0 372c0,15 9,28 29,28l129 0c78,0 116,-44 116,-113l0 -13zm351 -280c0,-15 -9,-28 -29,-28 -20,0 -29,13 -29,28l0 152 -161 0 0 -152c0,-15 -8,-28 -29,-28 -20,0 -29,13 -29,28l0 384c0,15 9,28 29,28 20,0 29,-13 29,-28l0 -177 161 0 0 177c0,15 8,28 29,28 20,0 29,-13 29,-28l0 -384zm72 108c0,44 26,94 73,114 -4,7 -8,14 -15,31 0,0 -48,108 -54,121 -6,13 -2,29 17,37 19,7 31,-2 37,-16 6,-15 71,-164 71,-164l78 0 0 154c0,15 9,28 29,28 20,0 29,-13 29,-28l0 -378c0,-15 -9,-28 -29,-28l-118 0c-78,0 -119,49 -119,113l0 17zm116 67c-42,0 -59,-29 -59,-67l0 -17c0,-34 17,-58 61,-58l89 0 0 142 -91 0zm348 238c20,0 29,-13 29,-28l0 -351 89 0c14,0 27,-8 27,-28 0,-18 -13,-28 -27,-28l-236 0c-14,0 -27,9 -27,28 0,20 13,28 27,28l89 0 0 351c0,15 9,28 29,28zm353 -269l-97 0 0 -144c0,-15 -9,-28 -29,-28 -20,0 -29,13 -29,28l0 378c0,15 9,28 29,28l125 0c79,0 118,-51 118,-119l0 -28c0,-69 -37,-116 -118,-116zm60 150c0,37 -17,58 -59,58l-98 0 0 -152 97 0c42,0 60,21 60,58l0 37zm239 64c-42,0 -59,-29 -59,-67l0 -196c0,-38 17,-67 59,-67l62 0c26,0 40,11 43,36 1,15 9,28 28,28 21,0 29,-13 29,-28 0,-64 -38,-91 -100,-91l-62 0c-78,0 -116,55 -116,122l0 196c0,67 39,122 116,122l62 0c62,0 100,-28 100,-91 0,-15 -9,-28 -29,-28 -20,0 -27,13 -28,28 -2,26 -17,36 -43,36l-62 0zm214 -250c0,44 26,94 73,114 -4,7 -8,14 -15,31 0,0 -48,108 -54,121 -6,13 -2,29 17,37 19,7 31,-2 37,-16 6,-15 71,-164 71,-164l78 0 0 154c0,15 9,28 29,28 20,0 29,-13 29,-28l0 -378c0,-15 -9,-28 -29,-28l-118 0c-78,0 -119,49 -119,113l0 17zm116 67c-42,0 -59,-29 -59,-67l0 -17c0,-34 17,-58 61,-58l89 0 0 142 -91 0z"/>
   <path class="fil5 str5" d="M15701 16107c-42,0 -59,-29 -59,-67l0 -196c0,-38 17,-67 59,-67l62 0c26,0 40,11 43,36 1,15 9,28 28,28 21,0 29,-13 29,-28 0,-64 -38,-91 -100,-91l-62 0c-78,0 -116,55 -116,122l0 196c0,67 39,122 116,122l62 0c62,0 100,-28 100,-91 0,-15 -9,-28 -29,-28 -20,0 -27,13 -28,28 -2,26 -17,36 -43,36l-62 0zm476 -384c-19,-5 -31,6 -35,20 0,0 -29,116 -56,211 -4,0 -24,0 -45,0 -21,0 -33,-14 -37,-27 -8,-31 -48,-185 -48,-185 -4,-14 -15,-25 -34,-20 -20,6 -25,21 -21,35 0,0 36,138 47,177 10,42 30,73 103,73 9,0 19,-1 19,-1l2 0c-10,36 -20,62 -22,68 -8,19 -31,27 -47,27l-23 0c-16,0 -28,10 -28,29 0,20 13,29 28,29l23 0c40,0 78,-13 100,-62 10,-22 12,-28 19,-54 7,-27 77,-285 77,-285 4,-14 -1,-29 -21,-35zm246 242c-4,-12 -9,-23 -15,-35l-96 -188c-9,-17 -16,-21 -29,-21 -20,0 -28,13 -28,28l0 384c0,15 8,28 28,28 20,0 28,-13 28,-28l0 -236c0,-17 -1,-31 -2,-42l1 0 88 171c4,9 10,15 25,15 15,0 21,-6 25,-15l88 -171 1 0c-1,11 -2,26 -2,42l0 236c0,15 8,28 28,28 20,0 28,-13 28,-28l0 -384c0,-15 -8,-28 -28,-28 -13,0 -20,4 -29,21l-96 188c-6,12 -11,23 -15,35zm427 0c-4,-12 -9,-23 -15,-35l-96 -188c-9,-17 -16,-21 -29,-21 -20,0 -28,13 -28,28l0 384c0,15 8,28 28,28 20,0 28,-13 28,-28l0 -236c0,-17 -1,-31 -2,-42l1 0 88 171c4,9 10,15 25,15 15,0 21,-6 25,-15l88 -171 1 0c-1,11 -2,26 -2,42l0 236c0,15 8,28 28,28 20,0 28,-13 28,-28l0 -384c0,-15 -8,-28 -28,-28 -13,0 -20,4 -29,21l-96 188c-6,12 -11,23 -15,35zm485 191c14,0 27,-8 27,-28 0,-18 -13,-28 -27,-28l-168 0 0 -138 138 0c14,0 27,-8 27,-28 0,-18 -13,-28 -27,-28l-138 0 0 -126 168 0c14,0 27,-8 27,-28 0,-18 -13,-28 -27,-28l-197 0c-20,0 -28,13 -28,28l0 372c0,15 9,28 28,28l197 0z"/>
   <path class="fil5 str5" d="M2786 16537c0,-15 -9,-28 -29,-28 -20,0 -29,13 -29,28l0 152 -161 0 0 -152c0,-15 -8,-28 -29,-28 -20,0 -29,13 -29,28l0 384c0,15 9,28 29,28 20,0 29,-13 29,-28l0 -177 161 0 0 177c0,15 8,28 29,28 20,0 29,-13 29,-28l0 -384zm318 407c14,0 27,-8 27,-28 0,-18 -13,-28 -27,-28l-168 0 0 -138 138 0c14,0 27,-8 27,-28 0,-18 -13,-28 -27,-28l-138 0 0 -126 168 0c14,0 27,-8 27,-28 0,-18 -13,-28 -27,-28l-197 0c-20,0 -28,13 -28,28l0 372c0,15 9,28 28,28l197 0zm375 -55l-12 0 0 -345c0,-15 -9,-28 -28,-28l-148 0c-20,0 -28,13 -31,28l-55 345 -19 0c-20,0 -28,13 -28,28l0 79c0,15 9,28 28,28 21,0 29,-13 29,-28l0 -52 233 0 0 52c0,15 9,28 29,28 20,0 28,-13 28,-28l0 -79c0,-15 -9,-28 -28,-28l0 0zm-210 -42l43 -276 98 0 0 318 -149 0c4,-15 7,-28 9,-42l0 0zm527 97c14,0 27,-8 27,-28 0,-18 -13,-28 -27,-28l-168 0 0 -138 138 0c14,0 27,-8 27,-28 0,-18 -13,-28 -27,-28l-138 0 0 -126 168 0c14,0 27,-8 27,-28 0,-18 -13,-28 -27,-28l-197 0c-20,0 -28,13 -28,28l0 372c0,15 9,28 28,28l197 0zm235 -467c56,0 85,-40 85,-82 0,-13 -10,-21 -23,-21 -13,0 -21,9 -23,22 -2,23 -17,39 -40,39 -23,0 -38,-17 -40,-39 -1,-13 -10,-22 -23,-22 -13,0 -23,9 -23,21 0,42 29,82 85,82zm80 445c0,15 8,28 28,28 21,0 29,-13 29,-28l0 -384c0,-15 -9,-28 -29,-28 -12,0 -20,4 -29,21l-163 291 -1 0c1,-11 2,-26 2,-42l0 -242c0,-15 -8,-28 -28,-28 -21,0 -29,13 -29,28l0 384c0,15 9,28 29,28 12,0 20,-4 29,-21l163 -291 1 0c-1,11 -2,26 -2,42l0 242zm260 -27c-42,0 -59,-29 -59,-67l0 -196c0,-38 17,-67 59,-67l62 0c26,0 40,11 43,36 1,15 9,28 28,28 21,0 29,-13 29,-28 0,-64 -38,-91 -100,-91l-62 0c-78,0 -116,55 -116,122l0 196c0,67 39,122 116,122l62 0c62,0 100,-28 100,-91 0,-15 -9,-28 -29,-28 -20,0 -27,13 -28,28 -2,26 -17,36 -43,36l-62 0zm341 55c20,0 29,-13 29,-28l0 -351 89 0c14,0 27,-8 27,-28 0,-18 -13,-28 -27,-28l-236 0c-14,0 -27,9 -27,28 0,20 13,28 27,28l89 0 0 351c0,15 9,28 29,28zm257 -197l100 0c42,0 59,28 59,65l0 13c0,37 -17,58 -59,58l-100 0 0 -136zm0 -54l0 -129 74 0c42,0 59,15 59,51l0 15c0,37 -17,62 -59,62l-74 0zm217 119c0,-51 -23,-86 -68,-100 27,-17 42,-43 42,-81l0 -15c0,-69 -39,-107 -116,-107l-102 0c-21,0 -29,13 -29,28l0 372c0,15 9,28 29,28l129 0c78,0 116,-44 116,-113l0 -13zm294 104c0,15 8,28 28,28 21,0 29,-13 29,-28l0 -384c0,-15 -9,-28 -29,-28 -12,0 -20,4 -29,21l-163 291 -1 0c1,-11 2,-26 2,-42l0 -242c0,-15 -8,-28 -28,-28 -21,0 -29,13 -29,28l0 384c0,15 9,28 29,28 12,0 20,-4 29,-21l163 -291 1 0c-1,11 -2,26 -2,42l0 242zm255 28c20,0 29,-13 29,-28l0 -351 89 0c14,0 27,-8 27,-28 0,-18 -13,-28 -27,-28l-236 0c-14,0 -27,9 -27,28 0,20 13,28 27,28l89 0 0 351c0,15 9,28 29,28zm424 -6c14,0 27,-8 27,-28 0,-18 -13,-28 -27,-28l-168 0 0 -138 138 0c14,0 27,-8 27,-28 0,-18 -13,-28 -27,-28l-138 0 0 -126 168 0c14,0 27,-8 27,-28 0,-18 -13,-28 -27,-28l-197 0c-20,0 -28,13 -28,28l0 372c0,15 9,28 28,28l197 0zm181 -77c4,-35 36,-296 36,-296l107 0 0 351c0,15 9,28 29,28 20,0 28,-13 28,-28l0 -378c0,-15 -9,-28 -28,-28l-160 0c-18,0 -28,12 -29,28 -2,18 -35,285 -38,309 -2,14 -4,23 -7,29 -6,12 -17,15 -34,15 -15,0 -28,9 -28,29 0,21 13,28 28,28 53,0 75,-17 88,-48 4,-12 7,-23 9,-39zm448 -186l-97 0 0 -144c0,-15 -9,-28 -29,-28 -20,0 -29,13 -29,28l0 378c0,15 9,28 29,28l125 0c79,0 118,-51 118,-119l0 -28c0,-69 -37,-116 -118,-116zm60 150c0,37 -17,58 -59,58l-98 0 0 -152 97 0c42,0 60,21 60,58l0 37zm405 -294c0,-15 -9,-28 -29,-28 -20,0 -29,13 -29,28l0 152 -161 0 0 -152c0,-15 -8,-28 -29,-28 -20,0 -29,13 -29,28l0 384c0,15 9,28 29,28 20,0 29,-13 29,-28l0 -177 161 0 0 177c0,15 8,28 29,28 20,0 29,-13 29,-28l0 -384zm454 384l0 -384c0,-15 -8,-28 -28,-28 -20,0 -29,13 -29,28l0 384c0,15 8,28 28,28 20,0 29,-13 29,-28zm-227 -241l-76 0 0 -144c0,-15 -9,-28 -29,-28 -20,0 -29,13 -29,28l0 378c0,15 9,28 29,28l104 0c79,0 118,-51 118,-119l0 -28c0,-69 -37,-116 -118,-116zm60 150c0,37 -17,58 -59,58l-77 0 0 -152 76 0c42,0 60,21 60,58l0 37 0 0zm376 -164l-78 -141c-8,-14 -21,-21 -39,-12 -17,9 -18,26 -12,37l96 169 -107 190c-6,11 -6,28 12,37 17,9 31,2 39,-12l89 -162 89 162c8,15 21,21 39,12 17,-9 18,-26 12,-37l-107 -190 96 -169c6,-11 6,-28 -12,-37 -17,-9 -31,-2 -39,12l-78 141zm593 255c0,15 8,28 28,28 21,0 29,-13 29,-28l0 -384c0,-15 -9,-28 -29,-28 -12,0 -20,4 -29,21l-163 291 -1 0c1,-11 2,-26 2,-42l0 -242c0,-15 -8,-28 -28,-28 -21,0 -29,13 -29,28l0 384c0,15 9,28 29,28 12,0 20,-4 29,-21l163 -291 1 0c-1,11 -2,26 -2,42l0 242zm593 -33l-12 0 0 -345c0,-15 -9,-28 -28,-28l-148 0c-20,0 -28,13 -31,28l-55 345 -19 0c-20,0 -28,13 -28,28l0 79c0,15 9,28 28,28 21,0 29,-13 29,-28l0 -52 233 0 0 52c0,15 9,28 29,28 20,0 28,-13 28,-28l0 -79c0,-15 -9,-28 -28,-28l0 0zm-210 -42l43 -276 98 0 0 318 -149 0c4,-15 7,-28 9,-42l0 0zm527 97c14,0 27,-8 27,-28 0,-18 -13,-28 -27,-28l-168 0 0 -138 138 0c14,0 27,-8 27,-28 0,-18 -13,-28 -27,-28l-138 0 0 -126 168 0c14,0 27,-8 27,-28 0,-18 -13,-28 -27,-28l-197 0c-20,0 -28,13 -28,28l0 372c0,15 9,28 28,28l197 0zm235 -467c56,0 85,-40 85,-82 0,-13 -10,-21 -23,-21 -13,0 -21,9 -23,22 -2,23 -17,39 -40,39 -23,0 -38,-17 -40,-39 -1,-13 -10,-22 -23,-22 -13,0 -23,9 -23,21 0,42 29,82 85,82zm80 445c0,15 8,28 28,28 21,0 29,-13 29,-28l0 -384c0,-15 -9,-28 -29,-28 -12,0 -20,4 -29,21l-163 291 -1 0c1,-11 2,-26 2,-42l0 -242c0,-15 -8,-28 -28,-28 -21,0 -29,13 -29,28l0 384c0,15 9,28 29,28 12,0 20,-4 29,-21l163 -291 1 0c-1,11 -2,26 -2,42l0 242zm260 -27c-42,0 -59,-29 -59,-67l0 -196c0,-38 17,-67 59,-67l62 0c26,0 40,11 43,36 1,15 9,28 28,28 21,0 29,-13 29,-28 0,-64 -38,-91 -100,-91l-62 0c-78,0 -116,55 -116,122l0 196c0,67 39,122 116,122l62 0c62,0 100,-28 100,-91 0,-15 -9,-28 -29,-28 -20,0 -27,13 -28,28 -2,26 -17,36 -43,36l-62 0zm341 55c20,0 29,-13 29,-28l0 -351 89 0c14,0 27,-8 27,-28 0,-18 -13,-28 -27,-28l-236 0c-14,0 -27,9 -27,28 0,20 13,28 27,28l89 0 0 351c0,15 9,28 29,28zm257 -197l100 0c42,0 59,28 59,65l0 13c0,37 -17,58 -59,58l-100 0 0 -136zm0 -54l0 -129 74 0c42,0 59,15 59,51l0 15c0,37 -17,62 -59,62l-74 0zm217 119c0,-51 -23,-86 -68,-100 27,-17 42,-43 42,-81l0 -15c0,-69 -39,-107 -116,-107l-102 0c-21,0 -29,13 -29,28l0 372c0,15 9,28 29,28l129 0c78,0 116,-44 116,-113l0 -13zm294 104c0,15 8,28 28,28 21,0 29,-13 29,-28l0 -384c0,-15 -9,-28 -29,-28 -12,0 -20,4 -29,21l-163 291 -1 0c1,-11 2,-26 2,-42l0 -242c0,-15 -8,-28 -28,-28 -21,0 -29,13 -29,28l0 384c0,15 9,28 29,28 12,0 20,-4 29,-21l163 -291 1 0c-1,11 -2,26 -2,42l0 242zm255 28c20,0 29,-13 29,-28l0 -351 89 0c14,0 27,-8 27,-28 0,-18 -13,-28 -27,-28l-236 0c-14,0 -27,9 -27,28 0,20 13,28 27,28l89 0 0 351c0,15 9,28 29,28zm424 -6c14,0 27,-8 27,-28 0,-18 -13,-28 -27,-28l-168 0 0 -138 138 0c14,0 27,-8 27,-28 0,-18 -13,-28 -27,-28l-138 0 0 -126 168 0c14,0 27,-8 27,-28 0,-18 -13,-28 -27,-28l-197 0c-20,0 -28,13 -28,28l0 372c0,15 9,28 28,28l197 0zm181 -77c4,-35 36,-296 36,-296l107 0 0 351c0,15 9,28 29,28 20,0 28,-13 28,-28l0 -378c0,-15 -9,-28 -28,-28l-160 0c-18,0 -28,12 -29,28 -2,18 -35,285 -38,309 -2,14 -4,23 -7,29 -6,12 -17,15 -34,15 -15,0 -28,9 -28,29 0,21 13,28 28,28 53,0 75,-17 88,-48 4,-12 7,-23 9,-39zm448 -186l-97 0 0 -144c0,-15 -9,-28 -29,-28 -20,0 -29,13 -29,28l0 378c0,15 9,28 29,28l125 0c79,0 118,-51 118,-119l0 -28c0,-69 -37,-116 -118,-116zm60 150c0,37 -17,58 -59,58l-98 0 0 -152 97 0c42,0 60,21 60,58l0 37zm405 -294c0,-15 -9,-28 -29,-28 -20,0 -29,13 -29,28l0 152 -161 0 0 -152c0,-15 -8,-28 -29,-28 -20,0 -29,13 -29,28l0 384c0,15 9,28 29,28 20,0 29,-13 29,-28l0 -177 161 0 0 177c0,15 8,28 29,28 20,0 29,-13 29,-28l0 -384zm454 384l0 -384c0,-15 -8,-28 -28,-28 -20,0 -29,13 -29,28l0 384c0,15 8,28 28,28 20,0 29,-13 29,-28zm-227 -241l-76 0 0 -144c0,-15 -9,-28 -29,-28 -20,0 -29,13 -29,28l0 378c0,15 9,28 29,28l104 0c79,0 118,-51 118,-119l0 -28c0,-69 -37,-116 -118,-116zm60 150c0,37 -17,58 -59,58l-77 0 0 -152 76 0c42,0 60,21 60,58l0 37 0 0zm376 -164l-78 -141c-8,-14 -21,-21 -39,-12 -17,9 -18,26 -12,37l96 169 -107 190c-6,11 -6,28 12,37 17,9 31,2 39,-12l89 -162 89 162c8,15 21,21 39,12 17,-9 18,-26 12,-37l-107 -190 96 -169c6,-11 6,-28 -12,-37 -17,-9 -31,-2 -39,12l-78 141zm519 18l-89 0 0 -114 156 0c14,0 27,-8 27,-28 0,-18 -13,-28 -27,-28l-184 0c-21,0 -29,13 -29,28l0 372c0,15 9,28 29,28l117 0c79,0 118,-51 118,-119l0 -28c0,-69 -39,-113 -118,-113zm60 146c0,37 -17,58 -59,58l-90 0 0 -152 89 0c42,0 60,21 60,58l0 37zm359 -322c-82,0 -118,69 -118,137l0 44 -56 0 0 -152c0,-15 -6,-28 -27,-28 -20,0 -28,13 -28,28l0 384c0,15 8,28 28,28 20,0 27,-13 27,-28l0 -177 56 0 0 81c0,67 36,124 113,124l32 0c78,0 116,-55 116,-122l0 -196c0,-67 -39,-122 -116,-122l-28 0zm86 318c0,38 -17,67 -59,67l-29 0c-42,0 -59,-29 -59,-67l0 -178c0,-38 16,-86 61,-86l28 0c42,0 59,30 59,64l0 199zm230 39c4,-35 36,-296 36,-296l107 0 0 351c0,15 9,28 29,28 20,0 28,-13 28,-28l0 -378c0,-15 -9,-28 -28,-28l-160 0c-18,0 -28,12 -29,28 -2,18 -35,285 -38,309 -2,14 -4,23 -7,29 -6,12 -17,15 -34,15 -15,0 -28,9 -28,29 0,21 13,28 28,28 53,0 75,-17 88,-48 4,-12 7,-23 9,-39zm380 0c4,-35 36,-296 36,-296l107 0 0 351c0,15 9,28 29,28 20,0 28,-13 28,-28l0 -378c0,-15 -9,-28 -28,-28l-160 0c-18,0 -28,12 -29,28 -2,18 -35,285 -38,309 -2,14 -4,23 -7,29 -6,12 -17,15 -34,15 -15,0 -28,9 -28,29 0,21 13,28 28,28 53,0 75,-17 88,-48 4,-12 7,-23 9,-39zm519 77c14,0 27,-8 27,-28 0,-18 -13,-28 -27,-28l-168 0 0 -138 138 0c14,0 27,-8 27,-28 0,-18 -13,-28 -27,-28l-138 0 0 -126 168 0c14,0 27,-8 27,-28 0,-18 -13,-28 -27,-28l-197 0c-20,0 -28,13 -28,28l0 372c0,15 9,28 28,28l197 0zm201 6c20,0 29,-13 29,-28l0 -351 89 0c14,0 27,-8 27,-28 0,-18 -13,-28 -27,-28l-236 0c-14,0 -27,9 -27,28 0,20 13,28 27,28l89 0 0 351c0,15 9,28 29,28zm424 -6c14,0 27,-8 27,-28 0,-18 -13,-28 -27,-28l-168 0 0 -138 138 0c14,0 27,-8 27,-28 0,-18 -13,-28 -27,-28l-138 0 0 -126 168 0c14,0 27,-8 27,-28 0,-18 -13,-28 -27,-28l-197 0c-20,0 -28,13 -28,28l0 372c0,15 9,28 28,28l197 0zm372 -407c0,-15 -9,-28 -29,-28 -20,0 -29,13 -29,28l0 152 -161 0 0 -152c0,-15 -8,-28 -29,-28 -20,0 -29,13 -29,28l0 384c0,15 9,28 29,28 20,0 29,-13 29,-28l0 -177 161 0 0 177c0,15 8,28 29,28 20,0 29,-13 29,-28l0 -384zm318 407c14,0 27,-8 27,-28 0,-18 -13,-28 -27,-28l-168 0 0 -138 138 0c14,0 27,-8 27,-28 0,-18 -13,-28 -27,-28l-138 0 0 -126 168 0c14,0 27,-8 27,-28 0,-18 -13,-28 -27,-28l-197 0c-20,0 -28,13 -28,28l0 372c0,15 9,28 28,28l197 0zm235 -467c56,0 85,-40 85,-82 0,-13 -10,-21 -23,-21 -13,0 -21,9 -23,22 -2,23 -17,39 -40,39 -23,0 -38,-17 -40,-39 -1,-13 -10,-22 -23,-22 -13,0 -23,9 -23,21 0,42 29,82 85,82zm80 445c0,15 8,28 28,28 21,0 29,-13 29,-28l0 -384c0,-15 -9,-28 -29,-28 -12,0 -20,4 -29,21l-163 291 -1 0c1,-11 2,-26 2,-42l0 -242c0,-15 -8,-28 -28,-28 -21,0 -29,13 -29,28l0 384c0,15 9,28 29,28 12,0 20,-4 29,-21l163 -291 1 0c-1,11 -2,26 -2,42l0 242zm191 -11c0,-18 -9,-33 -33,-33 -24,0 -33,15 -33,33l0 6c0,18 9,33 33,33 24,0 33,-15 33,-33l0 -6z"/>
   <path class="fil7 str6" d="M10345 13422l-568 0c0,-40 0,-95 0,-133 0,-186 85,-288 210,-322 48,-13 240,-18 358,-9l0 464z"/>
   <polyline class="fil6 str7" points="10881,12489 10885,12921 10345,12921 10345,13422 11415,13422 11413,12988 "/>
  </g>
 </g>
</svg>
