<?xml version="1.0" encoding="UTF-8"?>
<!DOCTYPE svg PUBLIC "-//W3C//DTD SVG 1.1//EN" "http://www.w3.org/Graphics/SVG/1.1/DTD/svg11.dtd">
<!-- Creator: CorelDRAW X6 -->
<svg xmlns="http://www.w3.org/2000/svg" xml:space="preserve" width="200mm" height="200mm" version="1.1" style="shape-rendering:geometricPrecision; text-rendering:geometricPrecision; image-rendering:optimizeQuality; fill-rule:evenodd; clip-rule:evenodd"
viewBox="0 0 20000 20000"
 xmlns:xlink="http://www.w3.org/1999/xlink">
 <defs>
  <style type="text/css">
   <![CDATA[
    .str4 {stroke:#024541;stroke-width:29.51}
    .str3 {stroke:#CC7588;stroke-width:30.96}
    .str2 {stroke:#CC7588;stroke-width:63.72}
    .str6 {stroke:#024541;stroke-width:145;stroke-linecap:round;stroke-linejoin:round}
    .str0 {stroke:#024541;stroke-width:145.32;stroke-linecap:round;stroke-linejoin:round}
    .str5 {stroke:#024541;stroke-width:145.33;stroke-linecap:round;stroke-linejoin:round}
    .str1 {stroke:#024541;stroke-width:154.86;stroke-linecap:round;stroke-linejoin:round}
    .fil6 {fill:none}
    .fil9 {fill:#024541}
    .fil4 {fill:#A75F4A}
    .fil3 {fill:#B7B0A7}
    .fil8 {fill:#CC6F3C}
    .fil1 {fill:#FEFEFE}
    .fil10 {fill:#00315E}
    .fil7 {fill:#FFCA9C}
    .fil5 {fill:#024541;fill-rule:nonzero}
    .fil2 {fill:#4D897C;fill-rule:nonzero}
    .fil11 {fill:#CC7588;fill-rule:nonzero}
    .fil0 {fill:url(#id0)}
   ]]>
  </style>
  <radialGradient id="id0" gradientUnits="userSpaceOnUse" cx="10000" cy="10000" r="10000" fx="10000" fy="10000">
   <stop offset="0" style="stop-color:#FEFEFE"/>
   <stop offset="0.431373" style="stop-color:#FEFEFE"/>
   <stop offset="1" style="stop-color:#D1E2F2"/>
  </radialGradient>
 </defs>
 <g id="Layer_x0020_1">
  <metadata id="CorelCorpID_0Corel-Layer"/>
  <g id="_880646960">
   <polygon class="fil0" points="0,0 20000,0 20000,20000 0,20000 "/>
   <g>
    <path class="fil1" d="M15535 6144c0,2554 -4693,3445 -7967,2673l0 1196 -1440 -1696c-1000,-490 -1663,-1214 -1663,-2174 0,-3923 11070,-3923 11070,0z"/>
    <path id="1" class="fil2" d="M7623 8817l-110 0 64 -74 310 67 317 58 323 48 328 38 332 28 335 19 336 9 337 -1 336 -10 334 -20 331 -30 327 -40 322 -49 316 -59 308 -69 300 -78 290 -88 279 -98 267 -107 254 -117 240 -126 224 -136 208 -145 190 -154 171 -163 151 -172 130 -180 108 -188 86 -197 62 -205 38 -213 13 -223 110 0 -14 246 -42 236 -68 226 -93 214 -116 203 -138 192 -159 181 -178 170 -196 159 -214 149 -230 139 -245 129 -258 119 -271 109 -283 99 -293 89 -303 79 -311 69 -319 59 -325 50 -330 40 -334 30 -337 20 -338 10 -339 1 -338 -9 -337 -19 -334 -29 -330 -38 -326 -48 -319 -58 -312 -68 64 -74zm-45 -74l-19 148 -3 -1 -3 -1 -3 -1 -3 -1 -3 -1 -2 -2 -2 -2 -2 -2 -2 -2 -2 -2 -2 -2 -2 -2 -2 -3 -2 -3 -2 -3 -2 -3 -1 -3 -1 -3 -1 -3 -1 -3 -1 -3 -1 -3 -1 -3 -1 -4 -1 -4 0 -4 0 -4 0 -4 0 -4 0 -4 0 -4 0 -4 1 -4 1 -4 1 -4 1 -4 1 -3 1 -3 1 -3 1 -3 1 -3 2 -3 2 -3 2 -3 2 -3 2 -2 2 -2 2 -2 2 -2 2 -2 2 -2 2 -2 2 -1 2 -1 3 -1 3 -1 3 -1 3 -1 3 0 3 0 3 0 3 0 3 0 3 1zm-64 1270l0 -1196 110 0 0 1196 -90 57 -19 -57zm0 0l110 0 0 4 0 4 0 4 0 4 -1 4 -1 4 -1 3 -1 3 -1 3 -1 3 -1 3 -1 3 -2 3 -2 3 -2 3 -2 3 -2 2 -2 2 -2 2 -2 2 -2 2 -2 2 -2 2 -2 2 -2 1 -3 1 -3 1 -3 1 -3 1 -3 0 -3 0 -3 0 -3 0 -3 0 -3 0 -3 -1 -3 -1 -3 -1 -3 -1 -2 -1 -2 -2 -2 -2 -2 -2 -2 -2 -2 -2 -2 -2 -2 -2 -2 -2 -2 -3 -2 -3 -2 -3 -2 -3 -1 -3 -1 -3 -1 -3 -1 -3 -1 -3 -1 -3 -1 -4 -1 -4 0 -4 0 -4 0 -4 0 -4zm-1350 -1753l1440 1696 -71 114 -1440 -1696 54 -127 17 14zm0 0l-71 114 -2 -3 -2 -3 -2 -3 -2 -3 -2 -3 -1 -3 -1 -3 -1 -3 -1 -3 -1 -3 -1 -3 -1 -3 -1 -4 -1 -4 0 -4 0 -4 0 -4 0 -4 0 -4 0 -4 0 -4 0 -4 1 -4 1 -4 1 -3 1 -3 1 -3 1 -3 1 -3 2 -3 2 -3 2 -3 2 -3 2 -3 2 -3 2 -2 2 -2 2 -2 2 -2 2 -2 2 -2 2 -1 3 -1 3 -1 3 -1 3 -1 3 -1 3 0 3 0 3 0 3 0 3 0 3 1 3 1 3 1 3 1 3 1 2 1 2 2 2 2 2 2 2 2 2 2 2 2zm-1753 -2117l110 0 0 0 2 85 5 83 9 82 13 81 16 79 19 78 23 77 26 76 29 75 33 74 36 72 39 71 42 70 45 69 49 68 52 67 54 65 57 64 60 63 63 62 66 61 68 59 71 58 74 57 76 55 79 54 81 53 83 52 86 50 88 49 90 48 92 46 -37 141 -94 -47 -92 -48 -90 -50 -87 -51 -85 -53 -83 -54 -81 -56 -78 -57 -76 -59 -73 -60 -71 -61 -68 -63 -66 -64 -63 -66 -60 -67 -57 -69 -55 -71 -52 -72 -49 -74 -45 -75 -42 -77 -39 -79 -36 -80 -32 -82 -29 -83 -25 -85 -21 -86 -18 -88 -14 -90 -10 -91 -6 -92 -2 -94 0 0zm110 0l-110 0 0 -4 0 -4 0 -4 0 -4 1 -4 1 -4 1 -3 1 -3 1 -3 1 -3 1 -3 1 -3 2 -3 2 -3 2 -3 2 -3 2 -2 2 -2 2 -2 2 -2 2 -2 2 -2 2 -2 2 -2 2 -1 3 -1 3 -1 3 -1 3 -1 3 0 3 0 3 0 3 0 3 0 3 0 3 1 3 1 3 1 3 1 2 1 2 2 2 2 2 2 2 2 2 2 2 2 2 2 2 2 2 3 2 3 2 3 2 3 1 3 1 3 1 3 1 3 1 3 1 3 1 4 1 4 0 4 0 4 0 4 0 4zm11070 0l-110 0 0 0 -30 -338 -88 -317 -143 -298 -196 -278 -245 -258 -290 -237 -332 -216 -369 -194 -402 -171 -430 -148 -455 -126 -476 -103 -492 -80 -504 -57 -512 -34 -516 -11 -516 11 -512 34 -504 57 -492 80 -476 103 -455 126 -430 148 -402 171 -369 194 -332 216 -290 237 -245 258 -196 278 -143 298 -88 317 -30 338 -110 0 33 -374 97 -350 155 -323 208 -296 256 -270 300 -245 340 -221 376 -197 408 -174 436 -150 460 -127 480 -104 496 -81 508 -58 516 -35 520 -12 520 12 516 35 508 58 496 81 480 104 460 127 436 150 408 174 376 197 340 221 300 245 256 270 208 296 155 323 97 350 33 374 0 0zm-110 0l110 0 0 4 0 4 0 4 0 4 -1 4 -1 4 -1 3 -1 3 -1 3 -1 3 -1 3 -1 3 -2 3 -2 3 -2 3 -2 3 -2 2 -2 2 -2 2 -2 2 -2 2 -2 2 -2 2 -2 2 -2 1 -3 1 -3 1 -3 1 -3 1 -3 0 -3 0 -3 0 -3 0 -3 0 -3 0 -3 -1 -3 -1 -3 -1 -3 -1 -2 -1 -2 -2 -2 -2 -2 -2 -2 -2 -2 -2 -2 -2 -2 -2 -2 -2 -2 -3 -2 -3 -2 -3 -2 -3 -1 -3 -1 -3 -1 -3 -1 -3 -1 -3 -1 -3 -1 -4 -1 -4 0 -4 0 -4 0 -4 0 -4z"/>
   </g>
   <path class="fil3 str0" d="M10879 13422l0 -1160 1235 0 326 -1487c58,-265 -479,-667 -540,-408l-295 1261 -719 0 -368 0 -532 1272 -532 -1272 -289 0c-266,0 -484,222 -484,494l0 1300 2197 0z"/>
   <polygon class="fil3 str0" points="9987,13001 9622,12628 9622,12379 9321,12154 9386,11628 9456,11628 9987,12900 10519,11628 10589,11628 10654,12154 10353,12379 10353,12628 "/>
   <polygon class="fil4 str0" points="10146,12522 9987,12900 9826,12514 9902,11993 9987,11993 10073,11993 "/>
   <g>
    <polygon class="fil4" points="10154,11767 9821,11767 9902,11993 9987,11993 10073,11993 "/>
    <path id="1" class="fil5" d="M9821 11694l334 0 0 145 -334 0 -69 -48 69 -97zm0 0l0 145 -4 0 -4 0 -4 0 -4 -1 -4 -1 -3 -1 -3 -1 -3 -1 -3 -1 -3 -2 -3 -2 -3 -2 -3 -2 -3 -2 -3 -2 -3 -2 -2 -3 -2 -3 -2 -3 -2 -3 -2 -3 -2 -3 -2 -3 -1 -3 -1 -3 -1 -3 -1 -3 -1 -4 -1 -4 0 -4 0 -4 0 -4 0 -4 0 -4 0 -4 1 -4 1 -4 1 -3 1 -3 1 -3 1 -3 2 -3 2 -3 2 -3 2 -3 2 -3 2 -3 2 -3 3 -2 3 -2 3 -2 3 -2 3 -2 3 -2 3 -2 3 -1 3 -1 3 -1 3 -1 4 -1 4 -1 4 0 4 0 4 0zm12 324l-82 -226 138 -49 82 226 -69 97 -69 -48zm0 0l138 -49 1 4 1 4 1 4 1 4 0 4 0 4 0 4 0 4 0 4 0 3 -1 3 -1 3 -1 3 -1 3 -1 3 -1 3 -2 3 -2 3 -2 3 -2 3 -2 3 -2 3 -2 3 -3 2 -3 2 -3 2 -3 2 -3 2 -3 2 -3 2 -3 2 -4 1 -4 1 -4 1 -4 1 -4 1 -4 0 -4 0 -4 0 -4 0 -4 0 -4 0 -3 -1 -3 -1 -3 -1 -3 -1 -3 -1 -3 -1 -3 -2 -3 -2 -3 -2 -3 -2 -3 -2 -3 -2 -3 -2 -2 -3 -2 -3 -2 -3 -2 -3 -2 -3 -2 -3 -2 -3 -2 -3 -1 -3zm154 48l-85 0 0 -145 85 0 0 0 0 145zm0 0l0 -145 4 0 4 0 4 0 4 1 4 1 3 1 3 1 3 1 3 1 3 2 3 2 3 2 3 2 3 2 3 2 3 2 2 3 2 3 2 3 2 3 2 3 2 3 2 3 1 3 1 3 1 3 1 3 1 4 1 4 0 4 0 4 0 4 0 4 0 4 0 4 -1 4 -1 4 -1 3 -1 3 -1 3 -1 3 -2 3 -2 3 -2 3 -2 3 -2 3 -2 3 -2 3 -3 2 -3 2 -3 2 -3 2 -3 2 -3 2 -3 2 -3 1 -3 1 -3 1 -3 1 -4 1 -4 1 -4 0 -4 0 -4 0zm85 0l-85 0 0 -145 85 0 69 97 -69 48zm0 0l0 -145 4 0 4 0 4 0 4 1 4 1 3 1 3 1 3 1 3 1 3 2 3 2 3 2 3 2 3 2 3 2 3 2 2 3 2 3 2 3 2 3 2 3 2 3 2 3 1 3 1 3 1 3 1 3 1 4 1 4 0 4 0 4 0 4 0 4 0 4 0 4 -1 4 -1 4 -1 3 -1 3 -1 3 -1 3 -2 3 -2 3 -2 3 -2 3 -2 3 -2 3 -2 3 -3 2 -3 2 -3 2 -3 2 -3 2 -3 2 -3 2 -3 1 -3 1 -3 1 -3 1 -4 1 -4 1 -4 0 -4 0 -4 0zm151 -275l-82 226 -138 -49 82 -226 69 -48 69 97zm0 0l-138 -49 1 -3 2 -3 2 -3 2 -3 2 -3 2 -3 2 -3 2 -3 2 -3 3 -2 3 -2 3 -2 3 -2 3 -2 3 -2 3 -2 3 -1 3 -1 3 -1 3 -1 3 -1 3 -1 4 0 4 0 4 0 4 0 4 0 4 0 4 1 4 1 4 1 4 1 4 1 3 2 3 2 3 2 3 2 3 2 3 2 3 2 3 2 2 3 2 3 2 3 2 3 2 3 2 3 2 3 1 3 1 3 1 3 1 3 1 3 1 3 0 3 0 4 0 4 0 4 0 4 0 4 -1 4 -1 4 -1 4 -1 4z"/>
   </g>
   <polygon class="fil1 str0" points="9456,11628 9776,12023 9866,11894 9820,11767 9576,11444 "/>
   <line class="fil6 str0" x1="9987" y1="12900" x2="9987" y2= "13422" />
   <path class="fil7 str0" d="M9987 11416c183,1 823,-258 823,-687l0 -491c-109,-258 -33,-422 -167,-566 -131,56 -272,51 -420,4 -145,314 -687,178 -892,-4 -134,144 -58,308 -167,566l0 491c0,430 640,688 823,687z"/>
   <path class="fil7 str0" d="M10154 11767l111 -147 0 -280c-115,49 -220,75 -278,75 -58,0 -162,-26 -278,-75l0 280 111 147 334 0z"/>
   <polygon class="fil1 str0" points="10519,11628 10199,12023 10108,11894 10154,11767 10398,11444 "/>
   <path class="fil8 str0" d="M9987 8947c-47,-9 -96,-13 -145,-13l0 0c-448,0 -814,366 -814,814l0 547c33,-36 82,-58 136,-58 109,-258 33,-422 167,-566 200,173 747,318 892,4 148,47 289,52 420,-4 134,144 58,308 167,566 54,0 103,22 136,58l0 -547c0,-448 -366,-814 -814,-814l0 0c-49,0 -98,4 -145,13zm-944 1586c23,119 72,229 141,324 -13,-41 -20,-83 -20,-128l0 -152c-47,0 -89,-17 -121,-44zm1767 44l0 152c0,45 -7,87 -20,128 69,-95 118,-205 141,-324 -32,27 -75,44 -121,44z"/>
   <polygon class="fil1 str0" points="9710,11423 9710,11620 9576,11444 "/>
   <polygon class="fil1 str0" points="10265,11423 10265,11620 10399,11444 "/>
   <path class="fil6 str0" d="M9332 9671c-78,-71 -129,-155 -144,-230 237,-30 281,-172 464,-201"/>
   <polygon class="fil1 str0" points="10165,12882 10639,12882 10639,13155 10165,13155 "/>
   <path class="fil9 str0" d="M10367 10311c-32,0 -57,26 -57,57 0,32 26,57 57,57 32,0 57,-26 57,-57 0,-32 -26,-57 -57,-57zm-760 0c32,0 57,26 57,57 0,32 -26,57 -57,57 -32,0 -57,-26 -57,-57 0,-32 26,-57 57,-57z"/>
   <path class="fil1 str0" d="M8984 10407c0,-94 81,-170 181,-170l0 170 0 170c-100,0 -181,-76 -181,-170zm2007 0c0,-94 -81,-170 -181,-170l0 170 0 170c100,0 181,-76 181,-170z"/>
   <path class="fil10 str0" d="M10111 11102c-30,35 -82,58 -140,58 -93,0 -168,-58 -168,-130 0,-26 10,-50 27,-70 68,70 167,122 282,142z"/>
   <path class="fil8 str0" d="M9677 10853c204,-113 405,-99 603,0 0,27 0,53 0,80 0,64 0,9 0,73 -201,0 -402,0 -603,0 0,-90 0,-62 0,-153z"/>
   <g>
    <path class="fil2" d="M3587 13349l0 147 -5 0 -4 0 -4 0 -4 -1 -4 -1 -4 -1 -4 -1 -4 -1 -4 -1 -4 -2 -4 -2 -4 -2 -3 -2 -3 -2 -3 -2 -3 -2 -3 -3 -3 -3 -3 -3 -2 -3 -2 -3 -2 -3 -2 -3 -2 -3 -2 -3 -1 -3 -1 -3 -1 -4 -1 -4 -1 -4 0 -4 0 -4 0 -4 0 -4 1 -4 1 -4 1 -4 1 -3 1 -3 2 -3 2 -3 2 -3 2 -3 2 -3 2 -3 3 -3 3 -3 3 -3 3 -2 3 -2 3 -2 3 -2 4 -2 4 -2 4 -2 4 -1 4 -1 4 -1 4 -1 4 -1 4 -1 4 0 4 0 5 0zm12826 147l-12826 0 0 -147 12826 0 0 147zm0 0l0 -147 5 0 4 0 4 0 4 1 4 1 4 1 4 1 4 1 4 1 4 2 4 2 4 2 3 2 3 2 3 2 3 2 3 3 3 3 3 3 2 3 2 3 2 3 2 3 2 3 2 3 1 3 1 3 1 4 1 4 1 4 0 4 0 4 0 4 0 4 -1 4 -1 4 -1 4 -1 3 -1 3 -2 3 -2 3 -2 3 -2 3 -2 3 -2 3 -3 3 -3 3 -3 3 -3 2 -3 2 -3 2 -3 2 -4 2 -4 2 -4 2 -4 1 -4 1 -4 1 -4 1 -4 1 -4 1 -4 0 -4 0 -5 0z"/>
   </g>
   <path class="fil7 str1" d="M12034 9944l0 -447c0,-112 -9,-252 -155,-251 -156,1 -171,132 -171,254l-1 886c0,231 -48,361 239,356 30,0 134,0 163,0 250,1 449,4 449,-350 0,-84 1,-198 0,-203 -39,-228 -247,-244 -524,-246z"/>
   <path class="fil6 str1" d="M11787 10645c134,-25 317,-398 396,-517 33,-50 -1,-149 -58,-182l-397 209"/>
   <line class="fil6 str0" x1="12030" y1="10427" x2="12558" y2= "10427" />
   <path class="fil11 str2" d="M6958 4784c-21,0 -36,9 -48,21 -65,71 -138,143 -214,213 -24,22 -33,50 -1,82 29,29 57,19 81,-1 48,-40 97,-90 138,-139l0 644 -165 0c-33,0 -60,17 -60,60 0,42 26,60 60,60l428 0c33,0 60,-17 60,-60 0,-42 -26,-60 -60,-60l-139 0 0 -758c0,-34 -11,-62 -57,-62l-22 0zm727 0c-21,0 -36,9 -48,21 -65,71 -138,143 -214,213 -24,22 -33,50 -1,82 29,29 57,19 81,-1 48,-40 97,-90 138,-139l0 644 -165 0c-33,0 -60,17 -60,60 0,42 26,60 60,60l428 0c33,0 60,-17 60,-60 0,-42 -26,-60 -60,-60l-139 0 0 -758c0,-34 -11,-62 -57,-62l-22 0zm1288 401c33,0 58,-16 58,-57 0,-41 -25,-57 -58,-57l-472 0c-33,0 -58,16 -58,57 0,41 25,57 58,57l472 0zm0 264c33,0 58,-16 58,-57 0,-41 -25,-57 -58,-57l-472 0c-33,0 -58,16 -58,57 0,41 25,57 58,57l472 0z"/>
   <path class="fil11 str2" d="M9860 4784c-21,0 -36,9 -48,21 -65,71 -138,143 -214,213 -24,22 -33,50 -1,82 29,29 57,19 81,-1 48,-40 97,-90 138,-139l0 644 -165 0c-33,0 -60,17 -60,60 0,42 26,60 60,60l428 0c33,0 60,-17 60,-60 0,-42 -26,-60 -60,-60l-139 0 0 -758c0,-34 -11,-62 -57,-62l-22 0zm554 715c0,-61 22,-108 66,-128l243 -110c119,-53 145,-145 145,-235l0 -5c0,-152 -86,-237 -258,-237l-81 0c-136,0 -221,58 -221,198 0,34 17,62 62,62 45,0 62,-28 62,-62 0,-56 38,-79 97,-79l81 0c94,0 134,36 134,118l0 5c0,62 -20,101 -73,124l-226 101c-106,45 -156,145 -156,261l0 212 532 0c33,0 60,-17 60,-60 0,-42 -26,-60 -60,-60l-407 0 0 -104zm1314 -528c0,-33 -16,-58 -56,-58 -41,0 -58,25 -58,58l0 231 -218 0c-33,0 -58,16 -58,57 0,41 25,57 58,57l218 0 0 233c0,33 16,58 57,58 41,0 57,-25 57,-58l0 -233 220 0c33,0 58,-16 58,-57 0,-41 -25,-57 -58,-57l-220 0 0 -231z"/>
   <path class="fil11 str3" d="M9591 6421l105 0c44,0 62,29 62,68l0 14c0,39 -17,60 -62,60l-105 0 0 -143zm0 -57l0 -135 78 0c44,0 62,15 62,54l0 15c0,39 -18,66 -62,66l-78 0zm227 125c0,-53 -24,-91 -71,-105 28,-17 44,-46 44,-85l0 -15c0,-72 -41,-112 -122,-112l-107 0c-22,0 -31,14 -31,30l0 391c0,15 9,30 31,30l135 0c82,0 122,-46 122,-118l0 -14zm194 81c-44,0 -62,-31 -62,-71l0 -206c0,-40 17,-71 62,-71l66 0c28,0 42,12 45,38 1,15 9,30 30,30 22,0 31,-14 31,-30 0,-67 -40,-96 -105,-96l-66 0c-82,0 -122,58 -122,128l0 206c0,71 40,128 122,128l66 0c66,0 105,-29 105,-96 0,-15 -9,-30 -31,-30 -21,0 -28,14 -30,30 -3,27 -17,38 -45,38l-66 0zm483 51c15,0 28,-8 28,-29 0,-19 -13,-29 -28,-29l-176 0 0 -145 145 0c15,0 28,-8 28,-29 0,-19 -13,-29 -28,-29l-145 0 0 -132 176 0c15,0 28,-8 28,-29 0,-19 -13,-29 -28,-29l-207 0c-21,0 -30,14 -30,30l0 391c0,15 9,30 30,30l207 0zm489 -392l0 369c0,15 8,30 30,30 21,0 30,-14 30,-30l0 -397c0,-15 -10,-30 -30,-30l-217 0c-21,0 -30,14 -30,30l0 397c0,15 10,30 30,30 21,0 30,-14 30,-30l0 -369 156 0zm212 64c0,-40 17,-71 62,-71l51 0c44,0 62,31 62,71l0 206c0,40 -17,71 -62,71l-51 0c-44,0 -62,-31 -62,-71l0 -206zm235 0c0,-71 -40,-128 -122,-128l-51 0c-82,0 -122,58 -122,128l0 206c0,71 40,128 122,128l51 0c82,0 122,-58 122,-128l0 -206zm207 276c-44,0 -62,-31 -62,-71l0 -206c0,-40 17,-71 62,-71l66 0c28,0 42,12 45,38 1,15 9,30 30,30 22,0 31,-14 31,-30 0,-67 -40,-96 -105,-96l-66 0c-82,0 -122,58 -122,128l0 206c0,71 40,128 122,128l66 0c66,0 105,-29 105,-96 0,-15 -9,-30 -31,-30 -21,0 -28,14 -30,30 -3,27 -17,38 -45,38l-66 0zm337 -30c4,-37 38,-311 38,-311l112 0 0 369c0,15 9,30 31,30 21,0 30,-14 30,-30l0 -397c0,-15 -9,-30 -30,-30l-168 0c-19,0 -29,12 -31,30 -2,19 -37,299 -40,324 -2,15 -4,24 -8,31 -6,12 -17,15 -36,15 -15,0 -30,10 -30,30 0,22 14,29 30,29 56,0 79,-18 92,-50 5,-12 7,-24 9,-40zm545 81c15,0 28,-8 28,-29 0,-19 -13,-29 -28,-29l-176 0 0 -145 145 0c15,0 28,-8 28,-29 0,-19 -13,-29 -28,-29l-145 0 0 -132 176 0c15,0 28,-8 28,-29 0,-19 -13,-29 -28,-29l-207 0c-21,0 -30,14 -30,30l0 391c0,15 9,30 30,30l207 0zm394 -58l-12 0 0 -362c0,-15 -9,-30 -30,-30l-155 0c-21,0 -30,13 -32,30l-58 362 -20 0c-21,0 -30,14 -30,30l0 83c0,15 9,30 30,30 22,0 31,-14 31,-30l0 -55 245 0 0 55c0,15 9,30 31,30 21,0 30,-14 30,-30l0 -83c0,-15 -9,-30 -30,-30l0 0zm-220 -44l45 -290 103 0 0 334 -157 0c5,-16 7,-30 9,-44l0 0zm569 -353c-20,-5 -32,6 -37,21 0,0 -31,122 -58,222 -5,0 -25,0 -47,0 -22,0 -35,-15 -39,-28 -8,-33 -51,-194 -51,-194 -4,-15 -16,-26 -36,-21 -21,6 -26,22 -22,37 0,0 38,145 49,186 11,44 31,76 109,76 9,0 20,-1 20,-1l2 0c-10,38 -21,66 -23,71 -8,20 -32,28 -49,28l-24 0c-17,0 -30,11 -30,30 0,21 13,30 30,30l24 0c42,0 82,-13 105,-65 10,-23 12,-29 20,-57 8,-28 80,-299 80,-299 4,-15 -1,-31 -22,-37zm321 -1c-86,0 -124,73 -124,143l0 46 -58 0 0 -160c0,-15 -6,-30 -28,-30 -21,0 -29,14 -29,30l0 403c0,15 8,30 29,30 21,0 28,-14 28,-30l0 -186 58 0 0 85c0,71 37,130 119,130l34 0c82,0 122,-58 122,-128l0 -206c0,-71 -40,-128 -122,-128l-29 0zm91 334c0,40 -17,71 -62,71l-31 0c-44,0 -62,-31 -62,-71l0 -186c0,-40 17,-90 64,-90l29 0c44,0 62,31 62,67l0 209zm485 122c12,0 24,-1 33,-1l-37 63c-3,5 -5,11 -5,17 0,11 11,30 31,30 11,0 20,-7 26,-17l61 -106c2,-4 3,-9 3,-14 0,-21 -13,-29 -28,-29l-26 0 0 -369c0,-15 -9,-30 -30,-30 -22,0 -31,14 -31,30l0 369 -107 0 0 -369c0,-16 -10,-30 -30,-30 -18,0 -28,15 -28,30l0 369 -107 0 0 -369c0,-15 -9,-30 -31,-30 -21,0 -30,14 -30,30l0 397c0,15 9,30 30,30l304 0zm406 -23c0,15 8,30 29,30 22,0 30,-14 30,-30l0 -403c0,-15 -9,-30 -31,-30 -12,0 -21,4 -30,22l-172 306 -1 0c1,-12 3,-27 3,-44l0 -254c0,-15 -8,-30 -29,-30 -22,0 -30,14 -30,30l0 403c0,15 9,30 31,30 12,0 21,-4 30,-22l172 -306 1 0c-1,12 -3,27 -3,44l0 254zm393 23c15,0 28,-8 28,-29 0,-19 -13,-29 -28,-29l-176 0 0 -145 145 0c15,0 28,-8 28,-29 0,-19 -13,-29 -28,-29l-145 0 0 -132 176 0c15,0 28,-8 28,-29 0,-19 -13,-29 -28,-29l-207 0c-21,0 -30,14 -30,30l0 391c0,15 9,30 30,30l207 0z"/>
   <path class="fil11 str3" d="M9643 7476c-44,0 -62,-31 -62,-71l0 -206c0,-40 17,-71 62,-71l66 0c28,0 42,12 45,38 1,15 9,30 30,30 22,0 31,-14 31,-30 0,-67 -40,-96 -105,-96l-66 0c-82,0 -122,58 -122,128l0 206c0,71 40,128 122,128l66 0c66,0 105,-29 105,-96 0,-15 -9,-30 -31,-30 -21,0 -28,14 -30,30 -3,27 -17,38 -45,38l-66 0zm358 58c21,0 30,-14 30,-30l0 -369 94 0c15,0 28,-8 28,-29 0,-19 -14,-29 -28,-29l-248 0c-15,0 -28,10 -28,29 0,21 13,29 28,29l94 0 0 369c0,15 9,30 30,30zm269 -239l0 -160 100 0c44,0 63,22 63,61l0 32c0,39 -19,67 -63,67l-100 0zm100 58c83,0 123,-54 123,-125l0 -32c0,-72 -40,-118 -123,-118l-131 0c-21,0 -30,14 -30,30l0 397c0,15 9,30 30,30 21,0 30,-14 30,-30l0 -152 100 0zm253 -153c0,-40 17,-71 62,-71l51 0c44,0 62,31 62,71l0 206c0,40 -17,71 -62,71l-51 0c-44,0 -62,-31 -62,-71l0 -206zm235 0c0,-71 -40,-128 -122,-128l-51 0c-82,0 -122,58 -122,128l0 206c0,71 40,128 122,128l51 0c82,0 122,-58 122,-128l0 -206zm378 287l-138 -196 131 -170c12,-15 12,-31 -1,-42 -15,-14 -34,-7 -45,6l-135 183 -39 0 0 -166c0,-15 -9,-30 -30,-30 -22,0 -31,14 -31,30l0 403c0,15 9,30 31,30 21,0 30,-14 30,-30l0 -179 39 0 138 196c8,13 24,20 42,8 18,-13 17,-30 8,-43zm306 18c0,15 8,30 29,30 22,0 30,-14 30,-30l0 -403c0,-15 -9,-30 -31,-30 -12,0 -21,4 -30,22l-172 306 -1 0c1,-12 3,-27 3,-44l0 -254c0,-15 -8,-30 -29,-30 -22,0 -30,14 -30,30l0 403c0,15 9,30 31,30 12,0 21,-4 30,-22l172 -306 1 0c-1,12 -3,27 -3,44l0 254z"/>
   <path class="fil11 str3" d="M9744 7962l0 369c0,15 8,30 30,30 21,0 30,-14 30,-30l0 -397c0,-15 -10,-30 -30,-30l-217 0c-21,0 -30,14 -30,30l0 397c0,15 10,30 30,30 21,0 30,-14 30,-30l0 -369 156 0zm218 159l0 -160 100 0c44,0 63,22 63,61l0 32c0,39 -19,67 -63,67l-100 0zm100 58c83,0 123,-54 123,-125l0 -32c0,-72 -40,-118 -123,-118l-131 0c-21,0 -30,14 -30,30l0 397c0,15 9,30 30,30 21,0 30,-14 30,-30l0 -152 100 0zm253 -153c0,-40 17,-71 62,-71l51 0c44,0 62,31 62,71l0 206c0,40 -17,71 -62,71l-51 0c-44,0 -62,-31 -62,-71l0 -206zm235 0c0,-71 -40,-128 -122,-128l-51 0c-82,0 -122,58 -122,128l0 206c0,71 40,128 122,128l51 0c82,0 122,-58 122,-128l0 -206zm202 334c21,0 30,-14 30,-30l0 -369 94 0c15,0 28,-8 28,-29 0,-19 -14,-29 -28,-29l-248 0c-15,0 -28,10 -28,29 0,21 13,29 28,29l94 0 0 369c0,15 9,30 30,30zm263 -334c0,-40 17,-71 62,-71l51 0c44,0 62,31 62,71l0 206c0,40 -17,71 -62,71l-51 0c-44,0 -62,-31 -62,-71l0 -206zm235 0c0,-71 -40,-128 -122,-128l-51 0c-82,0 -122,58 -122,128l0 206c0,71 40,128 122,128l51 0c82,0 122,-58 122,-128l0 -206zm378 287l-138 -196 131 -170c12,-15 12,-31 -1,-42 -15,-14 -34,-7 -45,6l-135 183 -39 0 0 -166c0,-15 -9,-30 -30,-30 -22,0 -31,14 -31,30l0 403c0,15 9,30 31,30 21,0 30,-14 30,-30l0 -179 39 0 138 196c8,13 24,20 42,8 18,-13 17,-30 8,-43zm130 -287c0,-40 17,-71 62,-71l51 0c44,0 62,31 62,71l0 206c0,40 -17,71 -62,71l-51 0c-44,0 -62,-31 -62,-71l0 -206zm235 0c0,-71 -40,-128 -122,-128l-51 0c-82,0 -122,58 -122,128l0 206c0,71 40,128 122,128l51 0c82,0 122,-58 122,-128l0 -206zm181 247c4,-37 38,-311 38,-311l112 0 0 369c0,15 9,30 31,30 21,0 30,-14 30,-30l0 -397c0,-15 -9,-30 -30,-30l-168 0c-19,0 -29,12 -31,30 -2,19 -37,299 -40,324 -2,15 -4,24 -8,31 -6,12 -17,15 -36,15 -15,0 -30,10 -30,30 0,22 14,29 30,29 56,0 79,-18 92,-50 5,-12 7,-24 9,-40zm500 -46l36 112c5,15 20,24 37,19 17,-6 24,-21 19,-37l-130 -402c-5,-14 -12,-22 -30,-22l-3 0c-18,0 -26,8 -30,22l-130 402c-5,15 2,31 19,37 17,6 32,-3 37,-19l36 -112 139 0zm-80 -194c5,-14 6,-21 10,-37l1 0c3,15 5,22 10,37l44 140 -107 0 44 -140z"/>
   <path class="fil5 str4" d="M5063 14415l77 0 0 159c0,15 8,28 29,28 20,0 29,-13 29,-28l0 -384c0,-15 -9,-28 -29,-28 -20,0 -29,13 -29,28l0 170c0,0 -62,0 -87,0 -36,0 -54,-24 -54,-53 0,-26 0,-117 0,-117 0,-15 -8,-28 -29,-28 -20,0 -29,13 -29,28l0 111c0,66 29,114 122,114zm448 159c0,15 8,28 28,28 21,0 29,-13 29,-28l0 -384c0,-15 -9,-28 -29,-28 -12,0 -20,4 -29,21l-163 291 -1 0c1,-11 2,-26 2,-42l0 -242c0,-15 -8,-28 -28,-28 -21,0 -29,13 -29,28l0 384c0,15 9,28 29,28 12,0 20,-4 29,-21l163 -291 1 0c-1,11 -2,26 -2,42l0 242zm260 -27c-42,0 -59,-29 -59,-67l0 -196c0,-38 17,-67 59,-67l62 0c26,0 40,11 43,36 1,15 9,28 28,28 21,0 29,-13 29,-28 0,-64 -38,-91 -100,-91l-62 0c-78,0 -116,55 -116,122l0 196c0,67 39,122 116,122l62 0c62,0 100,-28 100,-91 0,-15 -9,-28 -29,-28 -20,0 -27,13 -28,28 -2,26 -17,36 -43,36l-62 0zm321 -28c4,-35 36,-296 36,-296l107 0 0 351c0,15 9,28 29,28 20,0 28,-13 28,-28l0 -378c0,-15 -9,-28 -28,-28l-160 0c-18,0 -28,12 -29,28 -2,18 -35,285 -38,309 -2,14 -4,23 -7,29 -6,12 -17,15 -34,15 -15,0 -28,9 -28,29 0,21 13,28 28,28 53,0 75,-17 88,-48 4,-12 7,-23 9,-39zm345 -235c0,-38 17,-67 59,-67l49 0c42,0 59,29 59,67l0 196c0,38 -17,67 -59,67l-49 0c-42,0 -59,-29 -59,-67l0 -196zm224 0c0,-67 -39,-122 -116,-122l-49 0c-78,0 -116,55 -116,122l0 196c0,67 39,122 116,122l49 0c78,0 116,-55 116,-122l0 -196zm531 257l-12 0 0 -345c0,-15 -9,-28 -28,-28l-148 0c-20,0 -28,13 -31,28l-55 345 -19 0c-20,0 -28,13 -28,28l0 79c0,15 9,28 28,28 21,0 29,-13 29,-28l0 -52 233 0 0 52c0,15 9,28 29,28 20,0 28,-13 28,-28l0 -79c0,-15 -9,-28 -28,-28l0 0zm-210 -42l43 -276 98 0 0 318 -149 0c4,-15 7,-28 9,-42l0 0zm527 97c14,0 27,-8 27,-28 0,-18 -13,-28 -27,-28l-168 0 0 -138 138 0c14,0 27,-8 27,-28 0,-18 -13,-28 -27,-28l-138 0 0 -126 168 0c14,0 27,-8 27,-28 0,-18 -13,-28 -27,-28l-197 0c-20,0 -28,13 -28,28l0 372c0,15 9,28 28,28l197 0zm235 -467c56,0 85,-40 85,-82 0,-13 -10,-21 -23,-21 -13,0 -21,9 -23,22 -2,23 -17,39 -40,39 -23,0 -38,-17 -40,-39 -1,-13 -10,-22 -23,-22 -13,0 -23,9 -23,21 0,42 29,82 85,82zm80 445c0,15 8,28 28,28 21,0 29,-13 29,-28l0 -384c0,-15 -9,-28 -29,-28 -12,0 -20,4 -29,21l-163 291 -1 0c1,-11 2,-26 2,-42l0 -242c0,-15 -8,-28 -28,-28 -21,0 -29,13 -29,28l0 384c0,15 9,28 29,28 12,0 20,-4 29,-21l163 -291 1 0c-1,11 -2,26 -2,42l0 242zm260 -27c-42,0 -59,-29 -59,-67l0 -196c0,-38 17,-67 59,-67l62 0c26,0 40,11 43,36 1,15 9,28 28,28 21,0 29,-13 29,-28 0,-64 -38,-91 -100,-91l-62 0c-78,0 -116,55 -116,122l0 196c0,67 39,122 116,122l62 0c62,0 100,-28 100,-91 0,-15 -9,-28 -29,-28 -20,0 -27,13 -28,28 -2,26 -17,36 -43,36l-62 0zm341 55c20,0 29,-13 29,-28l0 -351 89 0c14,0 27,-8 27,-28 0,-18 -13,-28 -27,-28l-236 0c-14,0 -27,9 -27,28 0,20 13,28 27,28l89 0 0 351c0,15 9,28 29,28zm257 -197l100 0c42,0 59,28 59,65l0 13c0,37 -17,58 -59,58l-100 0 0 -136zm0 -54l0 -129 74 0c42,0 59,15 59,51l0 15c0,37 -17,62 -59,62l-74 0zm217 119c0,-51 -23,-86 -68,-100 27,-17 42,-43 42,-81l0 -15c0,-69 -39,-107 -116,-107l-102 0c-21,0 -29,13 -29,28l0 372c0,15 9,28 29,28l129 0c78,0 116,-44 116,-113l0 -13zm294 104c0,15 8,28 28,28 21,0 29,-13 29,-28l0 -384c0,-15 -9,-28 -29,-28 -12,0 -20,4 -29,21l-163 291 -1 0c1,-11 2,-26 2,-42l0 -242c0,-15 -8,-28 -28,-28 -21,0 -29,13 -29,28l0 384c0,15 9,28 29,28 12,0 20,-4 29,-21l163 -291 1 0c-1,11 -2,26 -2,42l0 242zm255 28c20,0 29,-13 29,-28l0 -351 89 0c14,0 27,-8 27,-28 0,-18 -13,-28 -27,-28l-236 0c-14,0 -27,9 -27,28 0,20 13,28 27,28l89 0 0 351c0,15 9,28 29,28zm424 -6c14,0 27,-8 27,-28 0,-18 -13,-28 -27,-28l-168 0 0 -138 138 0c14,0 27,-8 27,-28 0,-18 -13,-28 -27,-28l-138 0 0 -126 168 0c14,0 27,-8 27,-28 0,-18 -13,-28 -27,-28l-197 0c-20,0 -28,13 -28,28l0 372c0,15 9,28 28,28l197 0zm181 -77c4,-35 36,-296 36,-296l107 0 0 351c0,15 9,28 29,28 20,0 28,-13 28,-28l0 -378c0,-15 -9,-28 -28,-28l-160 0c-18,0 -28,12 -29,28 -2,18 -35,285 -38,309 -2,14 -4,23 -7,29 -6,12 -17,15 -34,15 -15,0 -28,9 -28,29 0,21 13,28 28,28 53,0 75,-17 88,-48 4,-12 7,-23 9,-39zm448 -186l-97 0 0 -144c0,-15 -9,-28 -29,-28 -20,0 -29,13 -29,28l0 378c0,15 9,28 29,28l125 0c79,0 118,-51 118,-119l0 -28c0,-69 -37,-116 -118,-116zm60 150c0,37 -17,58 -59,58l-98 0 0 -152 97 0c42,0 60,21 60,58l0 37zm405 -294c0,-15 -9,-28 -29,-28 -20,0 -29,13 -29,28l0 152 -161 0 0 -152c0,-15 -8,-28 -29,-28 -20,0 -29,13 -29,28l0 384c0,15 9,28 29,28 20,0 29,-13 29,-28l0 -177 161 0 0 177c0,15 8,28 29,28 20,0 29,-13 29,-28l0 -384zm454 384l0 -384c0,-15 -8,-28 -28,-28 -20,0 -29,13 -29,28l0 384c0,15 8,28 28,28 20,0 29,-13 29,-28zm-227 -241l-76 0 0 -144c0,-15 -9,-28 -29,-28 -20,0 -29,13 -29,28l0 378c0,15 9,28 29,28l104 0c79,0 118,-51 118,-119l0 -28c0,-69 -37,-116 -118,-116zm60 150c0,37 -17,58 -59,58l-77 0 0 -152 76 0c42,0 60,21 60,58l0 37 0 0zm376 -164l-78 -141c-8,-14 -21,-21 -39,-12 -17,9 -18,26 -12,37l96 169 -107 190c-6,11 -6,28 12,37 17,9 31,2 39,-12l89 -162 89 162c8,15 21,21 39,12 17,-9 18,-26 12,-37l-107 -190 96 -169c6,-11 6,-28 -12,-37 -17,-9 -31,-2 -39,12l-78 141zm519 18l-89 0 0 -114 156 0c14,0 27,-8 27,-28 0,-18 -13,-28 -27,-28l-184 0c-21,0 -29,13 -29,28l0 372c0,15 9,28 29,28l117 0c79,0 118,-51 118,-119l0 -28c0,-69 -39,-113 -118,-113zm60 146c0,37 -17,58 -59,58l-90 0 0 -152 89 0c42,0 60,21 60,58l0 37zm359 -322c-82,0 -118,69 -118,137l0 44 -56 0 0 -152c0,-15 -6,-28 -27,-28 -20,0 -28,13 -28,28l0 384c0,15 8,28 28,28 20,0 27,-13 27,-28l0 -177 56 0 0 81c0,67 36,124 113,124l32 0c78,0 116,-55 116,-122l0 -196c0,-67 -39,-122 -116,-122l-28 0zm86 318c0,38 -17,67 -59,67l-29 0c-42,0 -59,-29 -59,-67l0 -178c0,-38 16,-86 61,-86l28 0c42,0 59,30 59,64l0 199zm230 39c4,-35 36,-296 36,-296l107 0 0 351c0,15 9,28 29,28 20,0 28,-13 28,-28l0 -378c0,-15 -9,-28 -28,-28l-160 0c-18,0 -28,12 -29,28 -2,18 -35,285 -38,309 -2,14 -4,23 -7,29 -6,12 -17,15 -34,15 -15,0 -28,9 -28,29 0,21 13,28 28,28 53,0 75,-17 88,-48 4,-12 7,-23 9,-39zm380 0c4,-35 36,-296 36,-296l107 0 0 351c0,15 9,28 29,28 20,0 28,-13 28,-28l0 -378c0,-15 -9,-28 -28,-28l-160 0c-18,0 -28,12 -29,28 -2,18 -35,285 -38,309 -2,14 -4,23 -7,29 -6,12 -17,15 -34,15 -15,0 -28,9 -28,29 0,21 13,28 28,28 53,0 75,-17 88,-48 4,-12 7,-23 9,-39zm519 77c14,0 27,-8 27,-28 0,-18 -13,-28 -27,-28l-168 0 0 -138 138 0c14,0 27,-8 27,-28 0,-18 -13,-28 -27,-28l-138 0 0 -126 168 0c14,0 27,-8 27,-28 0,-18 -13,-28 -27,-28l-197 0c-20,0 -28,13 -28,28l0 372c0,15 9,28 28,28l197 0zm201 6c20,0 29,-13 29,-28l0 -351 89 0c14,0 27,-8 27,-28 0,-18 -13,-28 -27,-28l-236 0c-14,0 -27,9 -27,28 0,20 13,28 27,28l89 0 0 351c0,15 9,28 29,28zm424 -6c14,0 27,-8 27,-28 0,-18 -13,-28 -27,-28l-168 0 0 -138 138 0c14,0 27,-8 27,-28 0,-18 -13,-28 -27,-28l-138 0 0 -126 168 0c14,0 27,-8 27,-28 0,-18 -13,-28 -27,-28l-197 0c-20,0 -28,13 -28,28l0 372c0,15 9,28 28,28l197 0zm372 -407c0,-15 -9,-28 -29,-28 -20,0 -29,13 -29,28l0 152 -161 0 0 -152c0,-15 -8,-28 -29,-28 -20,0 -29,13 -29,28l0 384c0,15 9,28 29,28 20,0 29,-13 29,-28l0 -177 161 0 0 177c0,15 8,28 29,28 20,0 29,-13 29,-28l0 -384zm318 407c14,0 27,-8 27,-28 0,-18 -13,-28 -27,-28l-168 0 0 -138 138 0c14,0 27,-8 27,-28 0,-18 -13,-28 -27,-28l-138 0 0 -126 168 0c14,0 27,-8 27,-28 0,-18 -13,-28 -27,-28l-197 0c-20,0 -28,13 -28,28l0 372c0,15 9,28 28,28l197 0zm235 -467c56,0 85,-40 85,-82 0,-13 -10,-21 -23,-21 -13,0 -21,9 -23,22 -2,23 -17,39 -40,39 -23,0 -38,-17 -40,-39 -1,-13 -10,-22 -23,-22 -13,0 -23,9 -23,21 0,42 29,82 85,82zm80 445c0,15 8,28 28,28 21,0 29,-13 29,-28l0 -384c0,-15 -9,-28 -29,-28 -12,0 -20,4 -29,21l-163 291 -1 0c1,-11 2,-26 2,-42l0 -242c0,-15 -8,-28 -28,-28 -21,0 -29,13 -29,28l0 384c0,15 9,28 29,28 12,0 20,-4 29,-21l163 -291 1 0c-1,11 -2,26 -2,42l0 242z"/>
   <path class="fil5 str4" d="M4503 15329l-12 0 0 -345c0,-15 -9,-28 -28,-28l-148 0c-20,0 -28,13 -31,28l-55 345 -19 0c-20,0 -28,13 -28,28l0 79c0,15 9,28 28,28 21,0 29,-13 29,-28l0 -52 233 0 0 52c0,15 9,28 29,28 20,0 28,-13 28,-28l0 -79c0,-15 -9,-28 -28,-28l0 0zm-210 -42l43 -276 98 0 0 318 -149 0c4,-15 7,-28 9,-42l0 0zm353 -215c0,-38 17,-67 59,-67l49 0c42,0 59,29 59,67l0 196c0,38 -17,67 -59,67l-49 0c-42,0 -59,-29 -59,-67l0 -196zm224 0c0,-67 -39,-122 -116,-122l-49 0c-78,0 -116,55 -116,122l0 196c0,67 39,122 116,122l49 0c78,0 116,-55 116,-122l0 -196zm173 235c4,-35 36,-296 36,-296l107 0 0 351c0,15 9,28 29,28 20,0 28,-13 28,-28l0 -378c0,-15 -9,-28 -28,-28l-160 0c-18,0 -28,12 -29,28 -2,18 -35,285 -38,309 -2,14 -4,23 -7,29 -6,12 -17,15 -34,15 -15,0 -28,9 -28,29 0,21 13,28 28,28 53,0 75,-17 88,-48 4,-12 7,-23 9,-39zm713 40l-125 -201 111 -153c10,-14 10,-30 -2,-40 -15,-13 -32,-6 -42,7l-113 161 -20 0 0 -143c0,-15 -8,-28 -27,-28 -20,0 -28,13 -28,28l0 143 -21 0 -113 -161c-10,-13 -28,-20 -42,-7 -13,10 -13,26 -2,40l111 153 -125 201c-7,13 -7,29 10,40 17,10 32,2 39,-10l121 -201 23 0 0 186c0,15 8,28 28,28 19,0 27,-13 27,-28l0 -186 22 0 121 201c7,12 22,20 39,10 18,-11 18,-28 10,-40zm347 -369c0,-15 -9,-28 -29,-28 -20,0 -29,13 -29,28l0 152 -161 0 0 -152c0,-15 -8,-28 -29,-28 -20,0 -29,13 -29,28l0 384c0,15 9,28 29,28 20,0 29,-13 29,-28l0 -177 161 0 0 177c0,15 8,28 29,28 20,0 29,-13 29,-28l0 -384zm144 94c0,-38 17,-67 59,-67l49 0c42,0 59,29 59,67l0 196c0,38 -17,67 -59,67l-49 0c-42,0 -59,-29 -59,-67l0 -196zm224 0c0,-67 -39,-122 -116,-122l-49 0c-78,0 -116,55 -116,122l0 196c0,67 39,122 116,122l49 0c78,0 116,-55 116,-122l0 -196zm309 91l0 -152 96 0c42,0 60,21 60,58l0 31c0,37 -18,64 -60,64l-96 0zm96 55c79,0 118,-51 118,-119l0 -31c0,-69 -39,-113 -118,-113l-125 0c-20,0 -28,13 -28,28l0 378c0,15 9,28 29,28 20,0 29,-13 29,-28l0 -144 96 0zm373 46l34 107c5,15 19,23 36,18 16,-6 23,-20 18,-35l-124 -383c-4,-13 -12,-21 -29,-21l-3 0c-17,0 -24,7 -29,21l-124 383c-5,15 2,29 18,35 17,6 31,-3 36,-18l34 -107 133 0zm-76 -185c4,-13 6,-20 9,-35l1 0c3,15 5,21 9,35l42 133 -102 0 42 -133zm277 114l100 0c42,0 59,28 59,65l0 13c0,37 -17,58 -59,58l-100 0 0 -136zm0 -54l0 -129 74 0c42,0 59,15 59,51l0 15c0,37 -17,62 -59,62l-74 0zm217 119c0,-51 -23,-86 -68,-100 27,-17 42,-43 42,-81l0 -15c0,-69 -39,-107 -116,-107l-102 0c-21,0 -29,13 -29,28l0 372c0,15 9,28 29,28l129 0c78,0 116,-44 116,-113l0 -13zm351 -280c0,-15 -9,-28 -29,-28 -20,0 -29,13 -29,28l0 152 -161 0 0 -152c0,-15 -8,-28 -29,-28 -20,0 -29,13 -29,28l0 384c0,15 9,28 29,28 20,0 29,-13 29,-28l0 -177 161 0 0 177c0,15 8,28 29,28 20,0 29,-13 29,-28l0 -384zm72 108c0,44 26,94 73,114 -4,7 -8,14 -15,31 0,0 -48,108 -54,121 -6,13 -2,29 17,37 19,7 31,-2 37,-16 6,-15 71,-164 71,-164l78 0 0 154c0,15 9,28 29,28 20,0 29,-13 29,-28l0 -378c0,-15 -9,-28 -29,-28l-118 0c-78,0 -119,49 -119,113l0 17zm116 67c-42,0 -59,-29 -59,-67l0 -17c0,-34 17,-58 61,-58l89 0 0 142 -91 0zm348 238c20,0 29,-13 29,-28l0 -351 89 0c14,0 27,-8 27,-28 0,-18 -13,-28 -27,-28l-236 0c-14,0 -27,9 -27,28 0,20 13,28 27,28l89 0 0 351c0,15 9,28 29,28zm353 -269l-97 0 0 -144c0,-15 -9,-28 -29,-28 -20,0 -29,13 -29,28l0 378c0,15 9,28 29,28l125 0c79,0 118,-51 118,-119l0 -28c0,-69 -37,-116 -118,-116zm60 150c0,37 -17,58 -59,58l-98 0 0 -152 97 0c42,0 60,21 60,58l0 37zm239 64c-42,0 -59,-29 -59,-67l0 -196c0,-38 17,-67 59,-67l62 0c26,0 40,11 43,36 1,15 9,28 28,28 21,0 29,-13 29,-28 0,-64 -38,-91 -100,-91l-62 0c-78,0 -116,55 -116,122l0 196c0,67 39,122 116,122l62 0c62,0 100,-28 100,-91 0,-15 -9,-28 -29,-28 -20,0 -27,13 -28,28 -2,26 -17,36 -43,36l-62 0zm214 -250c0,44 26,94 73,114 -4,7 -8,14 -15,31 0,0 -48,108 -54,121 -6,13 -2,29 17,37 19,7 31,-2 37,-16 6,-15 71,-164 71,-164l78 0 0 154c0,15 9,28 29,28 20,0 29,-13 29,-28l0 -378c0,-15 -9,-28 -29,-28l-118 0c-78,0 -119,49 -119,113l0 17zm116 67c-42,0 -59,-29 -59,-67l0 -17c0,-34 17,-58 61,-58l89 0 0 142 -91 0zm516 182c-42,0 -59,-29 -59,-67l0 -196c0,-38 17,-67 59,-67l62 0c26,0 40,11 43,36 1,15 9,28 28,28 21,0 29,-13 29,-28 0,-64 -38,-91 -100,-91l-62 0c-78,0 -116,55 -116,122l0 196c0,67 39,122 116,122l62 0c62,0 100,-28 100,-91 0,-15 -9,-28 -29,-28 -20,0 -27,13 -28,28 -2,26 -17,36 -43,36l-62 0zm476 -384c-19,-5 -31,6 -35,20 0,0 -29,116 -56,211 -4,0 -24,0 -45,0 -21,0 -33,-14 -37,-27 -8,-31 -48,-185 -48,-185 -4,-14 -15,-25 -34,-20 -20,6 -25,21 -21,35 0,0 36,138 47,177 10,42 30,73 103,73 9,0 19,-1 19,-1l2 0c-10,36 -20,62 -22,68 -8,19 -31,27 -47,27l-23 0c-16,0 -28,10 -28,29 0,20 13,29 28,29l23 0c40,0 78,-13 100,-62 10,-22 12,-28 19,-54 7,-27 77,-285 77,-285 4,-14 -1,-29 -21,-35zm246 242c-4,-12 -9,-23 -15,-35l-96 -188c-9,-17 -16,-21 -29,-21 -20,0 -28,13 -28,28l0 384c0,15 8,28 28,28 20,0 28,-13 28,-28l0 -236c0,-17 -1,-31 -2,-42l1 0 88 171c4,9 10,15 25,15 15,0 21,-6 25,-15l88 -171 1 0c-1,11 -2,26 -2,42l0 236c0,15 8,28 28,28 20,0 28,-13 28,-28l0 -384c0,-15 -8,-28 -28,-28 -13,0 -20,4 -29,21l-96 188c-6,12 -11,23 -15,35zm427 0c-4,-12 -9,-23 -15,-35l-96 -188c-9,-17 -16,-21 -29,-21 -20,0 -28,13 -28,28l0 384c0,15 8,28 28,28 20,0 28,-13 28,-28l0 -236c0,-17 -1,-31 -2,-42l1 0 88 171c4,9 10,15 25,15 15,0 21,-6 25,-15l88 -171 1 0c-1,11 -2,26 -2,42l0 236c0,15 8,28 28,28 20,0 28,-13 28,-28l0 -384c0,-15 -8,-28 -28,-28 -13,0 -20,4 -29,21l-96 188c-6,12 -11,23 -15,35zm485 191c14,0 27,-8 27,-28 0,-18 -13,-28 -27,-28l-168 0 0 -138 138 0c14,0 27,-8 27,-28 0,-18 -13,-28 -27,-28l-138 0 0 -126 168 0c14,0 27,-8 27,-28 0,-18 -13,-28 -27,-28l-197 0c-20,0 -28,13 -28,28l0 372c0,15 9,28 28,28l197 0zm372 -181l77 0 0 159c0,15 8,28 29,28 20,0 29,-13 29,-28l0 -384c0,-15 -9,-28 -29,-28 -20,0 -29,13 -29,28l0 170c0,0 -62,0 -87,0 -36,0 -54,-24 -54,-53 0,-26 0,-117 0,-117 0,-15 -8,-28 -29,-28 -20,0 -29,13 -29,28l0 111c0,66 29,114 122,114zm448 159c0,15 8,28 28,28 21,0 29,-13 29,-28l0 -384c0,-15 -9,-28 -29,-28 -12,0 -20,4 -29,21l-163 291 -1 0c1,-11 2,-26 2,-42l0 -242c0,-15 -8,-28 -28,-28 -21,0 -29,13 -29,28l0 384c0,15 9,28 29,28 12,0 20,-4 29,-21l163 -291 1 0c-1,11 -2,26 -2,42l0 242zm260 -27c-42,0 -59,-29 -59,-67l0 -196c0,-38 17,-67 59,-67l62 0c26,0 40,11 43,36 1,15 9,28 28,28 21,0 29,-13 29,-28 0,-64 -38,-91 -100,-91l-62 0c-78,0 -116,55 -116,122l0 196c0,67 39,122 116,122l62 0c62,0 100,-28 100,-91 0,-15 -9,-28 -29,-28 -20,0 -27,13 -28,28 -2,26 -17,36 -43,36l-62 0zm460 49c14,0 27,-8 27,-28 0,-18 -13,-28 -27,-28l-168 0 0 -138 138 0c14,0 27,-8 27,-28 0,-18 -13,-28 -27,-28l-138 0 0 -126 168 0c14,0 27,-8 27,-28 0,-18 -13,-28 -27,-28l-197 0c-20,0 -28,13 -28,28l0 372c0,15 9,28 28,28l197 0zm181 -77c4,-35 36,-296 36,-296l107 0 0 351c0,15 9,28 29,28 20,0 28,-13 28,-28l0 -378c0,-15 -9,-28 -28,-28l-160 0c-18,0 -28,12 -29,28 -2,18 -35,285 -38,309 -2,14 -4,23 -7,29 -6,12 -17,15 -34,15 -15,0 -28,9 -28,29 0,21 13,28 28,28 53,0 75,-17 88,-48 4,-12 7,-23 9,-39zm490 -351c-23,0 -32,13 -32,28l0 378c0,15 9,28 29,28 20,0 29,-13 29,-28l0 -351 164 0c14,0 27,-8 27,-28 0,-18 -13,-28 -24,-28l-193 0zm323 116c0,-38 17,-67 59,-67l49 0c42,0 59,29 59,67l0 196c0,38 -17,67 -59,67l-49 0c-42,0 -59,-29 -59,-67l0 -196zm224 0c0,-67 -39,-122 -116,-122l-49 0c-78,0 -116,55 -116,122l0 196c0,67 39,122 116,122l49 0c78,0 116,-55 116,-122l0 -196zm173 235c4,-35 36,-296 36,-296l107 0 0 351c0,15 9,28 29,28 20,0 28,-13 28,-28l0 -378c0,-15 -9,-28 -28,-28l-160 0c-18,0 -28,12 -29,28 -2,18 -35,285 -38,309 -2,14 -4,23 -7,29 -6,12 -17,15 -34,15 -15,0 -28,9 -28,29 0,21 13,28 28,28 53,0 75,-17 88,-48 4,-12 7,-23 9,-39zm345 -235c0,-38 17,-67 59,-67l49 0c42,0 59,29 59,67l0 196c0,38 -17,67 -59,67l-49 0c-42,0 -59,-29 -59,-67l0 -196zm224 0c0,-67 -39,-122 -116,-122l-49 0c-78,0 -116,55 -116,122l0 196c0,67 39,122 116,122l49 0c78,0 116,-55 116,-122l0 -196zm197 263c-42,0 -59,-29 -59,-67l0 -196c0,-38 17,-67 59,-67l62 0c26,0 40,11 43,36 1,15 9,28 28,28 21,0 29,-13 29,-28 0,-64 -38,-91 -100,-91l-62 0c-78,0 -116,55 -116,122l0 196c0,67 39,122 116,122l62 0c62,0 100,-28 100,-91 0,-15 -9,-28 -29,-28 -20,0 -27,13 -28,28 -2,26 -17,36 -43,36l-62 0zm287 -263c0,-38 17,-67 59,-67l49 0c42,0 59,29 59,67l0 196c0,38 -17,67 -59,67l-49 0c-42,0 -59,-29 -59,-67l0 -196zm224 0c0,-67 -39,-122 -116,-122l-49 0c-78,0 -116,55 -116,122l0 196c0,67 39,122 116,122l49 0c78,0 116,-55 116,-122l0 -196zm144 121l100 0c42,0 59,28 59,65l0 13c0,37 -17,58 -59,58l-100 0 0 -136zm0 -54l0 -129 74 0c42,0 59,15 59,51l0 15c0,37 -17,62 -59,62l-74 0zm217 119c0,-51 -23,-86 -68,-100 27,-17 42,-43 42,-81l0 -15c0,-69 -39,-107 -116,-107l-102 0c-21,0 -29,13 -29,28l0 372c0,15 9,28 29,28l129 0c78,0 116,-44 116,-113l0 -13z"/>
   <path class="fil5 str4" d="M4037 16150c0,15 8,28 28,28 21,0 29,-13 29,-28l0 -384c0,-15 -9,-28 -29,-28 -12,0 -20,4 -29,21l-163 291 -1 0c1,-11 2,-26 2,-42l0 -242c0,-15 -8,-28 -28,-28 -21,0 -29,13 -29,28l0 384c0,15 9,28 29,28 12,0 20,-4 29,-21l163 -291 1 0c-1,11 -2,26 -2,42l0 242zm328 -300c0,37 -26,71 -67,71l-22 0c-14,0 -27,9 -27,27 0,20 13,27 27,27l45 0c42,0 59,34 59,71l0 14c0,38 -13,63 -59,63l-46 0c-24,0 -47,-10 -49,-36 -1,-15 -9,-28 -28,-28 -21,0 -29,13 -29,28 0,58 43,91 106,91l51 0c74,0 113,-51 113,-118l0 -14c0,-51 -24,-95 -71,-107 42,-18 56,-52 56,-89 0,-67 -33,-113 -114,-113l-27 0c-62,0 -105,31 -105,91 0,15 9,28 29,28 20,0 28,-13 28,-28 1,-24 26,-36 52,-36l22 0c41,0 57,17 57,58zm293 63l-89 0 0 -114 156 0c14,0 27,-8 27,-28 0,-18 -13,-28 -27,-28l-184 0c-21,0 -29,13 -29,28l0 372c0,15 9,28 29,28l117 0c79,0 118,-51 118,-119l0 -28c0,-69 -39,-113 -118,-113zm60 146c0,37 -17,58 -59,58l-90 0 0 -152 89 0c42,0 60,21 60,58l0 37zm352 91c0,15 8,28 28,28 21,0 29,-13 29,-28l0 -384c0,-15 -9,-28 -29,-28 -12,0 -20,4 -29,21l-163 291 -1 0c1,-11 2,-26 2,-42l0 -242c0,-15 -8,-28 -28,-28 -21,0 -29,13 -29,28l0 384c0,15 9,28 29,28 12,0 20,-4 29,-21l163 -291 1 0c-1,11 -2,26 -2,42l0 242zm207 -200l0 -152 96 0c42,0 60,21 60,58l0 31c0,37 -18,64 -60,64l-96 0zm96 55c79,0 118,-51 118,-119l0 -31c0,-69 -39,-113 -118,-113l-125 0c-20,0 -28,13 -28,28l0 378c0,15 9,28 29,28 20,0 29,-13 29,-28l0 -144 96 0zm373 46l34 107c5,15 19,23 36,18 16,-6 23,-20 18,-35l-124 -383c-4,-13 -12,-21 -29,-21l-3 0c-17,0 -24,7 -29,21l-124 383c-5,15 2,29 18,35 17,6 31,-3 36,-18l34 -107 133 0zm-76 -185c4,-13 6,-20 9,-35l1 0c3,15 5,21 9,35l42 133 -102 0 42 -133zm325 312c20,0 29,-13 29,-28l0 -351 89 0c14,0 27,-8 27,-28 0,-18 -13,-28 -27,-28l-236 0c-14,0 -27,9 -27,28 0,20 13,28 27,28l89 0 0 351c0,15 9,28 29,28zm424 -6c14,0 27,-8 27,-28 0,-18 -13,-28 -27,-28l-168 0 0 -138 138 0c14,0 27,-8 27,-28 0,-18 -13,-28 -27,-28l-138 0 0 -126 168 0c14,0 27,-8 27,-28 0,-18 -13,-28 -27,-28l-197 0c-20,0 -28,13 -28,28l0 372c0,15 9,28 28,28l197 0zm181 -77c4,-35 36,-296 36,-296l107 0 0 351c0,15 9,28 29,28 20,0 28,-13 28,-28l0 -378c0,-15 -9,-28 -28,-28l-160 0c-18,0 -28,12 -29,28 -2,18 -35,285 -38,309 -2,14 -4,23 -7,29 -6,12 -17,15 -34,15 -15,0 -28,9 -28,29 0,21 13,28 28,28 53,0 75,-17 88,-48 4,-12 7,-23 9,-39zm519 77c14,0 27,-8 27,-28 0,-18 -13,-28 -27,-28l-168 0 0 -138 138 0c14,0 27,-8 27,-28 0,-18 -13,-28 -27,-28l-138 0 0 -126 168 0c14,0 27,-8 27,-28 0,-18 -13,-28 -27,-28l-197 0c-20,0 -28,13 -28,28l0 372c0,15 9,28 28,28l197 0zm235 -467c56,0 85,-40 85,-82 0,-13 -10,-21 -23,-21 -13,0 -21,9 -23,22 -2,23 -17,39 -40,39 -23,0 -38,-17 -40,-39 -1,-13 -10,-22 -23,-22 -13,0 -23,9 -23,21 0,42 29,82 85,82zm80 445c0,15 8,28 28,28 21,0 29,-13 29,-28l0 -384c0,-15 -9,-28 -29,-28 -12,0 -20,4 -29,21l-163 291 -1 0c1,-11 2,-26 2,-42l0 -242c0,-15 -8,-28 -28,-28 -21,0 -29,13 -29,28l0 384c0,15 9,28 29,28 12,0 20,-4 29,-21l163 -291 1 0c-1,11 -2,26 -2,42l0 242zm129 94c0,19 10,24 21,24 14,0 20,-10 22,-21l18 -96c6,-31 -4,-47 -30,-47 -26,0 -32,17 -32,35l0 103zm501 -446l0 351c0,15 8,28 29,28 20,0 29,-13 29,-28l0 -378c0,-15 -9,-28 -29,-28l-206 0c-20,0 -29,13 -29,28l0 378c0,15 9,28 29,28 20,0 29,-13 29,-28l0 -351 149 0zm202 61c0,-38 17,-67 59,-67l49 0c42,0 59,29 59,67l0 196c0,38 -17,67 -59,67l-49 0c-42,0 -59,-29 -59,-67l0 -196zm224 0c0,-67 -39,-122 -116,-122l-49 0c-78,0 -116,55 -116,122l0 196c0,67 39,122 116,122l49 0c78,0 116,-55 116,-122l0 -196zm367 257l-12 0 0 -345c0,-15 -9,-28 -28,-28l-148 0c-20,0 -28,13 -31,28l-55 345 -19 0c-20,0 -28,13 -28,28l0 79c0,15 9,28 28,28 21,0 29,-13 29,-28l0 -52 233 0 0 52c0,15 9,28 29,28 20,0 28,-13 28,-28l0 -79c0,-15 -9,-28 -28,-28l0 0zm-210 -42l43 -276 98 0 0 318 -149 0c4,-15 7,-28 9,-42l0 0zm484 -23l34 107c5,15 19,23 36,18 16,-6 23,-20 18,-35l-124 -383c-4,-13 -12,-21 -29,-21l-3 0c-17,0 -24,7 -29,21l-124 383c-5,15 2,29 18,35 17,6 31,-3 36,-18l34 -107 133 0zm-76 -185c4,-13 6,-20 9,-35l1 0c3,15 5,21 9,35l42 133 -102 0 42 -133zm495 -101c0,-15 -9,-28 -29,-28 -20,0 -29,13 -29,28l0 152 -161 0 0 -152c0,-15 -8,-28 -29,-28 -20,0 -29,13 -29,28l0 384c0,15 9,28 29,28 20,0 29,-13 29,-28l0 -177 161 0 0 177c0,15 8,28 29,28 20,0 29,-13 29,-28l0 -384zm369 0c0,-15 -9,-28 -29,-28 -20,0 -29,13 -29,28l0 152 -161 0 0 -152c0,-15 -8,-28 -29,-28 -20,0 -29,13 -29,28l0 384c0,15 9,28 29,28 20,0 29,-13 29,-28l0 -177 161 0 0 177c0,15 8,28 29,28 20,0 29,-13 29,-28l0 -384zm454 384l0 -384c0,-15 -8,-28 -28,-28 -20,0 -29,13 -29,28l0 384c0,15 8,28 28,28 20,0 29,-13 29,-28zm-227 -241l-76 0 0 -144c0,-15 -9,-28 -29,-28 -20,0 -29,13 -29,28l0 378c0,15 9,28 29,28l104 0c79,0 118,-51 118,-119l0 -28c0,-69 -37,-116 -118,-116zm60 150c0,37 -17,58 -59,58l-77 0 0 -152 76 0c42,0 60,21 60,58l0 37 0 0zm376 -164l-78 -141c-8,-14 -21,-21 -39,-12 -17,9 -18,26 -12,37l96 169 -107 190c-6,11 -6,28 12,37 17,9 31,2 39,-12l89 -162 89 162c8,15 21,21 39,12 17,-9 18,-26 12,-37l-107 -190 96 -169c6,-11 6,-28 -12,-37 -17,-9 -31,-2 -39,12l-78 141zm552 -45c0,37 -26,71 -67,71l-22 0c-14,0 -27,9 -27,27 0,20 13,27 27,27l45 0c42,0 59,34 59,71l0 14c0,38 -13,63 -59,63l-46 0c-24,0 -47,-10 -49,-36 -1,-15 -9,-28 -28,-28 -21,0 -29,13 -29,28 0,58 43,91 106,91l51 0c74,0 113,-51 113,-118l0 -14c0,-51 -24,-95 -71,-107 42,-18 56,-52 56,-89 0,-67 -33,-113 -114,-113l-27 0c-62,0 -105,31 -105,91 0,15 9,28 29,28 20,0 28,-13 28,-28 1,-24 26,-36 52,-36l22 0c41,0 57,17 57,58zm330 201l34 107c5,15 19,23 36,18 16,-6 23,-20 18,-35l-124 -383c-4,-13 -12,-21 -29,-21l-3 0c-17,0 -24,7 -29,21l-124 383c-5,15 2,29 18,35 17,6 31,-3 36,-18l34 -107 133 0zm-76 -185c4,-13 6,-20 9,-35l1 0c3,15 5,21 9,35l42 133 -102 0 42 -133zm441 114l100 0c42,0 59,28 59,65l0 13c0,37 -17,58 -59,58l-100 0 0 -136zm0 -54l0 -129 74 0c42,0 59,15 59,51l0 15c0,37 -17,62 -59,62l-74 0zm217 119c0,-51 -23,-86 -68,-100 27,-17 42,-43 42,-81l0 -15c0,-69 -39,-107 -116,-107l-102 0c-21,0 -29,13 -29,28l0 372c0,15 9,28 29,28l129 0c78,0 116,-44 116,-113l0 -13zm185 77c-42,0 -59,-29 -59,-67l0 -196c0,-38 17,-67 59,-67l62 0c26,0 40,11 43,36 1,15 9,28 28,28 21,0 29,-13 29,-28 0,-64 -38,-91 -100,-91l-62 0c-78,0 -116,55 -116,122l0 196c0,67 39,122 116,122l62 0c62,0 100,-28 100,-91 0,-15 -9,-28 -29,-28 -20,0 -27,13 -28,28 -2,26 -17,36 -43,36l-62 0zm460 49c14,0 27,-8 27,-28 0,-18 -13,-28 -27,-28l-168 0 0 -138 138 0c14,0 27,-8 27,-28 0,-18 -13,-28 -27,-28l-138 0 0 -126 168 0c14,0 27,-8 27,-28 0,-18 -13,-28 -27,-28l-197 0c-20,0 -28,13 -28,28l0 372c0,15 9,28 28,28l197 0zm211 -277l-78 -141c-8,-14 -21,-21 -39,-12 -17,9 -18,26 -12,37l96 169 -107 190c-6,11 -6,28 12,37 17,9 31,2 39,-12l89 -162 89 162c8,15 21,21 39,12 17,-9 18,-26 12,-37l-107 -190 96 -169c6,-11 6,-28 -12,-37 -17,-9 -31,-2 -39,12l-78 141zm646 238l-132 -187 125 -162c11,-14 11,-29 -1,-40 -15,-13 -32,-7 -43,6l-129 174 -37 0 0 -159c0,-15 -9,-28 -28,-28 -21,0 -29,13 -29,28l0 384c0,15 9,28 29,28 20,0 28,-13 28,-28l0 -171 37 0 132 187c8,12 23,19 40,8 17,-12 16,-29 7,-41zm255 -81l34 107c5,15 19,23 36,18 16,-6 23,-20 18,-35l-124 -383c-4,-13 -12,-21 -29,-21l-3 0c-17,0 -24,7 -29,21l-124 383c-5,15 2,29 18,35 17,6 31,-3 36,-18l34 -107 133 0zm-76 -185c4,-13 6,-20 9,-35l1 0c3,15 5,21 9,35l42 133 -102 0 42 -133zm495 -101c0,-15 -9,-28 -29,-28 -20,0 -29,13 -29,28l0 152 -161 0 0 -152c0,-15 -8,-28 -29,-28 -20,0 -29,13 -29,28l0 384c0,15 9,28 29,28 20,0 29,-13 29,-28l0 -177 161 0 0 177c0,15 8,28 29,28 20,0 29,-13 29,-28l0 -384zm373 351l-12 0 0 -345c0,-15 -9,-28 -28,-28l-148 0c-20,0 -28,13 -31,28l-55 345 -19 0c-20,0 -28,13 -28,28l0 79c0,15 9,28 28,28 21,0 29,-13 29,-28l0 -52 233 0 0 52c0,15 9,28 29,28 20,0 28,-13 28,-28l0 -79c0,-15 -9,-28 -28,-28l0 0zm-210 -42l43 -276 98 0 0 318 -149 0c4,-15 7,-28 9,-42l0 0zm521 75c0,15 8,28 28,28 21,0 29,-13 29,-28l0 -384c0,-15 -9,-28 -29,-28 -12,0 -20,4 -29,21l-163 291 -1 0c1,-11 2,-26 2,-42l0 -242c0,-15 -8,-28 -28,-28 -21,0 -29,13 -29,28l0 384c0,15 9,28 29,28 12,0 20,-4 29,-21l163 -291 1 0c-1,11 -2,26 -2,42l0 242zm429 -33l-12 0 0 -345c0,-15 -9,-28 -28,-28l-148 0c-20,0 -28,13 -31,28l-55 345 -19 0c-20,0 -28,13 -28,28l0 79c0,15 9,28 28,28 21,0 29,-13 29,-28l0 -52 233 0 0 52c0,15 9,28 29,28 20,0 28,-13 28,-28l0 -79c0,-15 -9,-28 -28,-28l0 0zm-210 -42l43 -276 98 0 0 318 -149 0c4,-15 7,-28 9,-42l0 0zm484 -23l34 107c5,15 19,23 36,18 16,-6 23,-20 18,-35l-124 -383c-4,-13 -12,-21 -29,-21l-3 0c-17,0 -24,7 -29,21l-124 383c-5,15 2,29 18,35 17,6 31,-3 36,-18l34 -107 133 0zm-76 -185c4,-13 6,-20 9,-35l1 0c3,15 5,21 9,35l42 133 -102 0 42 -133zm325 312c20,0 29,-13 29,-28l0 -351 89 0c14,0 27,-8 27,-28 0,-18 -13,-28 -27,-28l-236 0c-14,0 -27,9 -27,28 0,20 13,28 27,28l89 0 0 351c0,15 9,28 29,28zm250 -318c0,-38 17,-67 59,-67l49 0c42,0 59,29 59,67l0 196c0,38 -17,67 -59,67l-49 0c-42,0 -59,-29 -59,-67l0 -196zm224 0c0,-67 -39,-122 -116,-122l-49 0c-78,0 -116,55 -116,122l0 196c0,67 39,122 116,122l49 0c78,0 116,-55 116,-122l0 -196zm144 121l100 0c42,0 59,28 59,65l0 13c0,37 -17,58 -59,58l-100 0 0 -136zm0 -54l0 -129 74 0c42,0 59,15 59,51l0 15c0,37 -17,62 -59,62l-74 0zm217 119c0,-51 -23,-86 -68,-100 27,-17 42,-43 42,-81l0 -15c0,-69 -39,-107 -116,-107l-102 0c-21,0 -29,13 -29,28l0 372c0,15 9,28 29,28l129 0c78,0 116,-44 116,-113l0 -13z"/>
   <path class="fil7 str5" d="M9752 13422l568 0c0,-40 0,-95 0,-133 0,-186 -85,-288 -210,-322 -48,-13 -240,-18 -358,-9l0 464z"/>
   <polyline class="fil6 str6" points="9215,12489 9212,12921 9752,12921 9752,13422 8682,13422 8684,12988 "/>
  </g>
 </g>
</svg>
