<?xml version="1.0" encoding="UTF-8"?>
<!DOCTYPE svg PUBLIC "-//W3C//DTD SVG 1.1//EN" "http://www.w3.org/Graphics/SVG/1.1/DTD/svg11.dtd">
<!-- Creator: CorelDRAW X6 -->
<svg xmlns="http://www.w3.org/2000/svg" xml:space="preserve" width="200mm" height="200mm" version="1.1" style="shape-rendering:geometricPrecision; text-rendering:geometricPrecision; image-rendering:optimizeQuality; fill-rule:evenodd; clip-rule:evenodd"
viewBox="0 0 20000 20000"
 xmlns:xlink="http://www.w3.org/1999/xlink">
 <defs>
  <style type="text/css">
   <![CDATA[
    .str2 {stroke:#CC7588;stroke-width:162.6;stroke-linecap:round;stroke-linejoin:round;stroke-dasharray:507.960000 338.640000}
    .str0 {stroke:#024541;stroke-width:162.6;stroke-linecap:round;stroke-linejoin:round}
    .str1 {stroke:#4D897C;stroke-width:162.6;stroke-linecap:round;stroke-linejoin:round}
    .str3 {stroke:#7690C9;stroke-width:195.52;stroke-linecap:round;stroke-linejoin:round}
    .fil2 {fill:none}
    .fil5 {fill:none;fill-rule:nonzero}
    .fil3 {fill:#CDDBAC}
    .fil1 {fill:#EBF2D9}
    .fil4 {fill:#4D897C;fill-rule:nonzero}
    .fil0 {fill:url(#id0)}
   ]]>
  </style>
  <radialGradient id="id0" gradientUnits="userSpaceOnUse" cx="10000" cy="10000" r="10000" fx="10000" fy="10000">
   <stop offset="0" style="stop-color:#FEFEFE"/>
   <stop offset="0.431373" style="stop-color:#FEFEFE"/>
   <stop offset="1" style="stop-color:#D1E2F2"/>
  </radialGradient>
 </defs>
 <g id="Layer_x0020_1">
  <metadata id="CorelCorpID_0Corel-Layer"/>
  <g id="_910639568">
   <polygon class="fil0" points="0,0 20000,0 20000,20000 0,20000 "/>
   <polygon class="fil1" points="7766,10152 7766,11752 9736,11752 "/>
   <polyline class="fil2 str0" points="7766,10152 7766,11752 9697,11752 "/>
   <path class="fil1" d="M11147 4562l-3935 0 0 5141 1970 1600 2524 0 0 -6182c0,-309 -250,-559 -559,-559z"/>
   <polygon class="fil3" points="9178,11303 11678,11303 11678,8855 8170,10478 "/>
   <g>
    <path class="fil4" d="M8325 9884l0 146 -4 0 -4 0 -4 0 -4 -1 -4 -1 -4 -1 -4 -1 -4 -1 -4 -1 -4 -2 -3 -2 -3 -2 -3 -2 -3 -2 -3 -2 -3 -2 -3 -3 -3 -3 -2 -3 -2 -3 -2 -3 -2 -3 -2 -3 -2 -3 -1 -3 -1 -3 -1 -3 -1 -4 -1 -4 -1 -4 0 -4 0 -4 0 -4 0 -4 1 -4 1 -4 1 -4 1 -3 1 -3 1 -3 2 -3 2 -3 2 -3 2 -3 2 -3 2 -3 3 -3 3 -3 3 -2 3 -2 3 -2 3 -2 3 -2 3 -2 4 -2 4 -1 4 -1 4 -1 4 -1 4 -1 4 -1 4 0 4 0 4 0zm2597 146l-2597 0 0 -146 2597 0 0 146zm0 0l0 -146 4 0 4 0 4 0 4 1 4 1 4 1 4 1 4 1 4 1 4 2 3 2 3 2 3 2 3 2 3 2 3 2 3 3 3 3 2 3 2 3 2 3 2 3 2 3 2 3 1 3 1 3 1 3 1 4 1 4 1 4 0 4 0 4 0 4 0 4 -1 4 -1 4 -1 4 -1 3 -1 3 -1 3 -2 3 -2 3 -2 3 -2 3 -2 3 -2 3 -3 3 -3 3 -3 2 -3 2 -3 2 -3 2 -3 2 -3 2 -4 2 -4 1 -4 1 -4 1 -4 1 -4 1 -4 1 -4 0 -4 0 -4 0zm-2925 -3817l0 146 -4 0 -4 0 -4 0 -4 -1 -4 -1 -4 -1 -4 -1 -4 -1 -4 -1 -4 -2 -3 -2 -3 -2 -3 -2 -3 -2 -3 -2 -3 -2 -3 -3 -3 -3 -2 -3 -2 -3 -2 -3 -2 -3 -2 -3 -2 -3 -1 -3 -1 -3 -1 -3 -1 -4 -1 -4 -1 -4 0 -4 0 -4 0 -4 0 -4 1 -4 1 -4 1 -4 1 -3 1 -3 1 -3 2 -3 2 -3 2 -3 2 -3 2 -3 2 -3 3 -3 3 -3 3 -2 3 -2 3 -2 3 -2 3 -2 3 -2 4 -2 4 -1 4 -1 4 -1 4 -1 4 -1 4 -1 4 0 4 0 4 0zm2925 146l-2925 0 0 -146 2925 0 0 146zm0 0l0 -146 4 0 4 0 4 0 4 1 4 1 4 1 4 1 4 1 4 1 4 2 3 2 3 2 3 2 3 2 3 2 3 2 3 3 3 3 2 3 2 3 2 3 2 3 2 3 2 3 1 3 1 3 1 3 1 4 1 4 1 4 0 4 0 4 0 4 0 4 -1 4 -1 4 -1 4 -1 3 -1 3 -1 3 -2 3 -2 3 -2 3 -2 3 -2 3 -2 3 -3 3 -3 3 -3 2 -3 2 -3 2 -3 2 -3 2 -3 2 -4 2 -4 1 -4 1 -4 1 -4 1 -4 1 -4 1 -4 0 -4 0 -4 0zm-2925 -601l0 146 -4 0 -4 0 -4 0 -4 -1 -4 -1 -4 -1 -4 -1 -4 -1 -4 -1 -4 -2 -3 -2 -3 -2 -3 -2 -3 -2 -3 -2 -3 -2 -3 -3 -3 -3 -2 -3 -2 -3 -2 -3 -2 -3 -2 -3 -2 -3 -1 -3 -1 -3 -1 -3 -1 -4 -1 -4 -1 -4 0 -4 0 -4 0 -4 0 -4 1 -4 1 -4 1 -4 1 -3 1 -3 1 -3 2 -3 2 -3 2 -3 2 -3 2 -3 2 -3 3 -3 3 -3 3 -2 3 -2 3 -2 3 -2 3 -2 3 -2 4 -2 4 -1 4 -1 4 -1 4 -1 4 -1 4 -1 4 0 4 0 4 0zm2925 146l-2925 0 0 -146 2925 0 0 146zm0 0l0 -146 4 0 4 0 4 0 4 1 4 1 4 1 4 1 4 1 4 1 4 2 3 2 3 2 3 2 3 2 3 2 3 2 3 3 3 3 2 3 2 3 2 3 2 3 2 3 2 3 1 3 1 3 1 3 1 4 1 4 1 4 0 4 0 4 0 4 0 4 -1 4 -1 4 -1 4 -1 3 -1 3 -1 3 -2 3 -2 3 -2 3 -2 3 -2 3 -2 3 -3 3 -3 3 -3 2 -3 2 -3 2 -3 2 -3 2 -3 2 -4 2 -4 1 -4 1 -4 1 -4 1 -4 1 -4 1 -4 0 -4 0 -4 0zm-2925 -601l0 146 -4 0 -4 0 -4 0 -4 -1 -4 -1 -4 -1 -4 -1 -4 -1 -4 -1 -4 -2 -3 -2 -3 -2 -3 -2 -3 -2 -3 -2 -3 -2 -3 -3 -3 -3 -2 -3 -2 -3 -2 -3 -2 -3 -2 -3 -2 -3 -1 -3 -1 -3 -1 -3 -1 -4 -1 -4 -1 -4 0 -4 0 -4 0 -4 0 -4 1 -4 1 -4 1 -4 1 -3 1 -3 1 -3 2 -3 2 -3 2 -3 2 -3 2 -3 2 -3 3 -3 3 -3 3 -2 3 -2 3 -2 3 -2 3 -2 3 -2 4 -2 4 -1 4 -1 4 -1 4 -1 4 -1 4 -1 4 0 4 0 4 0zm2925 146l-2925 0 0 -146 2925 0 0 146zm0 0l0 -146 4 0 4 0 4 0 4 1 4 1 4 1 4 1 4 1 4 1 4 2 3 2 3 2 3 2 3 2 3 2 3 2 3 3 3 3 2 3 2 3 2 3 2 3 2 3 2 3 1 3 1 3 1 3 1 4 1 4 1 4 0 4 0 4 0 4 0 4 -1 4 -1 4 -1 4 -1 3 -1 3 -1 3 -2 3 -2 3 -2 3 -2 3 -2 3 -2 3 -3 3 -3 3 -3 2 -3 2 -3 2 -3 2 -3 2 -3 2 -4 2 -4 1 -4 1 -4 1 -4 1 -4 1 -4 1 -4 0 -4 0 -4 0z"/>
   </g>
   <g>
    <path class="fil4" d="M10288 8518l0 146 -4 0 -4 0 -4 0 -4 -1 -4 -1 -4 -1 -4 -1 -4 -1 -4 -1 -4 -2 -3 -2 -3 -2 -3 -2 -3 -2 -3 -2 -3 -2 -3 -3 -3 -3 -2 -3 -2 -3 -2 -3 -2 -3 -2 -3 -2 -3 -1 -3 -1 -3 -1 -3 -1 -4 -1 -4 -1 -4 0 -4 0 -4 0 -4 0 -4 1 -4 1 -4 1 -4 1 -3 1 -3 1 -3 2 -3 2 -3 2 -3 2 -3 2 -3 2 -3 3 -3 3 -3 3 -2 3 -2 3 -2 3 -2 3 -2 3 -2 4 -2 4 -1 4 -1 4 -1 4 -1 4 -1 4 -1 4 0 4 0 4 0zm635 146l-635 0 0 -146 635 0 0 146zm0 0l0 -146 4 0 4 0 4 0 4 1 4 1 4 1 4 1 4 1 4 1 4 2 3 2 3 2 3 2 3 2 3 2 3 2 3 3 3 3 2 3 2 3 2 3 2 3 2 3 2 3 1 3 1 3 1 3 1 4 1 4 1 4 0 4 0 4 0 4 0 4 -1 4 -1 4 -1 4 -1 3 -1 3 -1 3 -2 3 -2 3 -2 3 -2 3 -2 3 -2 3 -3 3 -3 3 -3 2 -3 2 -3 2 -3 2 -3 2 -3 2 -4 2 -4 1 -4 1 -4 1 -4 1 -4 1 -4 1 -4 0 -4 0 -4 0zm-2925 -1541l0 146 -4 0 -4 0 -4 0 -4 -1 -4 -1 -4 -1 -4 -1 -4 -1 -4 -1 -4 -2 -3 -2 -3 -2 -3 -2 -3 -2 -3 -2 -3 -2 -3 -3 -3 -3 -2 -3 -2 -3 -2 -3 -2 -3 -2 -3 -2 -3 -1 -3 -1 -3 -1 -3 -1 -4 -1 -4 -1 -4 0 -4 0 -4 0 -4 0 -4 1 -4 1 -4 1 -4 1 -3 1 -3 1 -3 2 -3 2 -3 2 -3 2 -3 2 -3 2 -3 3 -3 3 -3 3 -2 3 -2 3 -2 3 -2 3 -2 3 -2 4 -2 4 -1 4 -1 4 -1 4 -1 4 -1 4 -1 4 0 4 0 4 0zm871 146l-871 0 0 -146 871 0 0 146zm0 0l0 -146 4 0 4 0 4 0 4 1 4 1 4 1 4 1 4 1 4 1 4 2 3 2 3 2 3 2 3 2 3 2 3 2 3 3 3 3 2 3 2 3 2 3 2 3 2 3 2 3 1 3 1 3 1 3 1 4 1 4 1 4 0 4 0 4 0 4 0 4 -1 4 -1 4 -1 4 -1 3 -1 3 -1 3 -2 3 -2 3 -2 3 -2 3 -2 3 -2 3 -3 3 -3 3 -3 2 -3 2 -3 2 -3 2 -3 2 -3 2 -4 2 -4 1 -4 1 -4 1 -4 1 -4 1 -4 1 -4 0 -4 0 -4 0zm-871 -601l0 146 -4 0 -4 0 -4 0 -4 -1 -4 -1 -4 -1 -4 -1 -4 -1 -4 -1 -4 -2 -3 -2 -3 -2 -3 -2 -3 -2 -3 -2 -3 -2 -3 -3 -3 -3 -2 -3 -2 -3 -2 -3 -2 -3 -2 -3 -2 -3 -1 -3 -1 -3 -1 -3 -1 -4 -1 -4 -1 -4 0 -4 0 -4 0 -4 0 -4 1 -4 1 -4 1 -4 1 -3 1 -3 1 -3 2 -3 2 -3 2 -3 2 -3 2 -3 2 -3 3 -3 3 -3 3 -2 3 -2 3 -2 3 -2 3 -2 3 -2 4 -2 4 -1 4 -1 4 -1 4 -1 4 -1 4 -1 4 0 4 0 4 0zm1807 146l-1807 0 0 -146 1807 0 0 146zm0 0l0 -146 4 0 4 0 4 0 4 1 4 1 4 1 4 1 4 1 4 1 4 2 3 2 3 2 3 2 3 2 3 2 3 2 3 3 3 3 2 3 2 3 2 3 2 3 2 3 2 3 1 3 1 3 1 3 1 4 1 4 1 4 0 4 0 4 0 4 0 4 -1 4 -1 4 -1 4 -1 3 -1 3 -1 3 -2 3 -2 3 -2 3 -2 3 -2 3 -2 3 -3 3 -3 3 -3 2 -3 2 -3 2 -3 2 -3 2 -3 2 -4 2 -4 1 -4 1 -4 1 -4 1 -4 1 -4 1 -4 0 -4 0 -4 0zm-993 2615l0 146 -4 0 -4 0 -4 0 -4 -1 -4 -1 -4 -1 -4 -1 -4 -1 -4 -1 -4 -2 -3 -2 -3 -2 -3 -2 -3 -2 -3 -2 -3 -2 -3 -3 -3 -3 -2 -3 -2 -3 -2 -3 -2 -3 -2 -3 -2 -3 -1 -3 -1 -3 -1 -3 -1 -4 -1 -4 -1 -4 0 -4 0 -4 0 -4 0 -4 1 -4 1 -4 1 -4 1 -3 1 -3 1 -3 2 -3 2 -3 2 -3 2 -3 2 -3 2 -3 3 -3 3 -3 3 -2 3 -2 3 -2 3 -2 3 -2 3 -2 4 -2 4 -1 4 -1 4 -1 4 -1 4 -1 4 -1 4 0 4 0 4 0zm2112 146l-2112 0 0 -146 2112 0 0 146zm0 0l0 -146 4 0 4 0 4 0 4 1 4 1 4 1 4 1 4 1 4 1 4 2 3 2 3 2 3 2 3 2 3 2 3 2 3 3 3 3 2 3 2 3 2 3 2 3 2 3 2 3 1 3 1 3 1 3 1 4 1 4 1 4 0 4 0 4 0 4 0 4 -1 4 -1 4 -1 4 -1 3 -1 3 -1 3 -2 3 -2 3 -2 3 -2 3 -2 3 -2 3 -3 3 -3 3 -3 2 -3 2 -3 2 -3 2 -3 2 -3 2 -4 2 -4 1 -4 1 -4 1 -4 1 -4 1 -4 1 -4 0 -4 0 -4 0zm-1389 -601l0 146 -4 0 -4 0 -4 0 -4 -1 -4 -1 -4 -1 -4 -1 -4 -1 -4 -1 -4 -2 -3 -2 -3 -2 -3 -2 -3 -2 -3 -2 -3 -2 -3 -3 -3 -3 -2 -3 -2 -3 -2 -3 -2 -3 -2 -3 -2 -3 -1 -3 -1 -3 -1 -3 -1 -4 -1 -4 -1 -4 0 -4 0 -4 0 -4 0 -4 1 -4 1 -4 1 -4 1 -3 1 -3 1 -3 2 -3 2 -3 2 -3 2 -3 2 -3 2 -3 3 -3 3 -3 3 -2 3 -2 3 -2 3 -2 3 -2 3 -2 4 -2 4 -1 4 -1 4 -1 4 -1 4 -1 4 -1 4 0 4 0 4 0zm1389 146l-1389 0 0 -146 1389 0 0 146zm0 0l0 -146 4 0 4 0 4 0 4 1 4 1 4 1 4 1 4 1 4 1 4 2 3 2 3 2 3 2 3 2 3 2 3 2 3 3 3 3 2 3 2 3 2 3 2 3 2 3 2 3 1 3 1 3 1 3 1 4 1 4 1 4 0 4 0 4 0 4 0 4 -1 4 -1 4 -1 4 -1 3 -1 3 -1 3 -2 3 -2 3 -2 3 -2 3 -2 3 -2 3 -3 3 -3 3 -3 2 -3 2 -3 2 -3 2 -3 2 -3 2 -4 2 -4 1 -4 1 -4 1 -4 1 -4 1 -4 1 -4 0 -4 0 -4 0z"/>
   </g>
   <polyline class="fil2 str0" points="7213,9700 7213,4562 11678,4562 11678,11303 9183,11303 "/>
   <path class="fil4" d="M7845 8859l-68 40 -82 -142 154 -89c18,-10 28,-29 14,-54 -13,-23 -36,-25 -53,-15l-190 110c-24,14 -27,35 -16,54l268 464c11,18 32,28 56,14l104 -60c97,-56 111,-132 62,-218l-25 -44c-48,-84 -126,-116 -223,-60zm178 145c26,46 21,79 -31,109l-69 40 -110 -190 68 -40c53,-30 87,-12 114,34l27 46zm200 -654l-8 4c-102,59 -91,167 -43,251l32 55 -62 36 -109 -190c-11,-18 -28,-31 -54,-16 -24,14 -25,37 -14,55l276 478c11,18 30,29 54,15 25,-15 24,-36 13,-54l-127 -220 62 -36 66 115c48,84 125,115 222,59l8 -4c97,-56 103,-146 55,-230l-145 -251c-48,-84 -130,-123 -227,-67zm300 360c27,47 29,90 -23,120l-8 4c-53,30 -83,16 -111,-32l-138 -238c-27,-47 -45,-109 11,-141l8 -4c53,-30 88,-7 115,40l145 251zm293 -109c-8,-18 -188,-383 -188,-383l107 -62 252 437c11,18 31,29 57,14 24,-14 25,-37 15,-55l-272 -470c-11,-18 -31,-29 -55,-15l-174 101c-24,14 -26,38 -16,56 0,0 192,389 197,399 5,10 12,24 13,36 1,17 -6,33 -25,44 -18,11 -28,32 -14,56 15,26 37,25 55,14 54,-31 73,-72 67,-119 -3,-17 -9,-36 -17,-53zm406 -235c-8,-18 -188,-383 -188,-383l107 -62 252 437c11,18 31,29 57,14 24,-14 25,-37 15,-55l-272 -470c-11,-18 -31,-29 -55,-15l-174 101c-24,14 -26,38 -16,56 0,0 192,389 197,399 5,10 12,24 13,36 1,17 -6,33 -25,44 -18,11 -28,32 -14,56 15,26 37,25 55,14 54,-31 73,-72 67,-119 -3,-17 -9,-36 -17,-53zm603 -220c18,-10 28,-29 14,-54 -13,-23 -36,-25 -53,-15l-163 94 -99 -171 129 -75c18,-10 28,-29 14,-54 -13,-23 -36,-25 -53,-15l-129 75 -90 -156 163 -94c18,-10 28,-29 14,-54 -13,-23 -36,-25 -53,-15l-199 115c-24,14 -25,37 -15,55l267 463c11,18 31,29 55,15l199 -115zm174 -137c11,18 30,29 55,15 24,-14 26,-37 16,-56l-252 -437 88 -51c18,-10 28,-29 14,-54 -13,-23 -36,-25 -53,-15l-247 143c-18,10 -27,31 -14,54 14,24 36,25 53,15l88 -51 252 437zm508 -257c18,-10 28,-29 14,-54 -13,-23 -36,-25 -53,-15l-163 94 -99 -171 129 -75c18,-10 28,-29 14,-54 -13,-23 -36,-25 -53,-15l-129 75 -90 -156 163 -94c18,-10 28,-29 14,-54 -13,-23 -36,-25 -53,-15l-199 115c-24,14 -25,37 -15,55l267 463c11,18 31,29 55,15l199 -115zm118 -742c-11,-18 -32,-28 -56,-14 -25,15 -26,37 -16,56l109 190 -155 89 -109 -190c-11,-18 -30,-29 -56,-14 -24,14 -26,37 -16,56l276 478c11,18 32,28 56,14 25,-15 26,-37 16,-56l-127 -220 155 -89 127 220c11,18 30,29 56,14 24,-14 26,-37 16,-56l-276 -478zm361 30l-77 44 -103 -179c-11,-18 -31,-29 -56,-14 -25,15 -26,37 -16,56l271 470c11,18 31,29 55,15l113 -65c97,-56 111,-132 62,-218l-26 -46c-48,-84 -127,-118 -224,-63zm-37 113l77 -44c53,-30 87,-12 114,34l26 46c26,46 21,79 -31,109l-77 44 -109 -190z"/>
   <line class="fil5 str1" x1="6621" y1="5100" x2="6621" y2= "10238" />
   <path class="fil5 str1" d="M6917 4831c0,1283 0,3855 0,5139"/>
   <path class="fil5 str1" d="M6325 5368c0,1283 0,3855 0,5139"/>
   <polyline class="fil5 str1" points="7470,10421 7470,12021 9440,12021 "/>
   <polyline class="fil5 str1" points="7174,10690 7174,12290 9145,12290 "/>
   <polyline class="fil5 str1" points="6879,10959 6879,12559 8849,12559 "/>
   <line class="fil5 str1" x1="9514" y1="11572" x2="11421" y2= "11572" />
   <line class="fil5 str1" x1="9623" y1="11840" x2="11125" y2= "11840" />
   <line class="fil5 str1" x1="9413" y1="12109" x2="10829" y2= "12109" />
   <polyline class="fil5 str2" points="10384,12316 10314,12258 6312,8973 "/>
   <line class="fil5 str2" x1="10635" y1="12522" x2="11661" y2= "13363" />
   <path class="fil5 str3" d="M12757 14042c-173,-177 -169,-460 7,-633 177,-173 460,-169 633,7 173,177 169,460 -7,633 -131,128 -321,159 -481,95l-2665 -1014 -19 65 1449 630"/>
   <path class="fil5 str3" d="M12335 14464c-177,-173 -460,-169 -633,7 -173,177 -169,460 7,633 177,173 460,169 633,-7 128,-131 159,-321 95,-481l-1014 -2665 65 -19 630 1449"/>
  </g>
 </g>
</svg>
