<?xml version="1.0" encoding="UTF-8"?>
<!DOCTYPE svg PUBLIC "-//W3C//DTD SVG 1.1//EN" "http://www.w3.org/Graphics/SVG/1.1/DTD/svg11.dtd">
<!-- Creator: CorelDRAW X6 -->
<svg xmlns="http://www.w3.org/2000/svg" xml:space="preserve" width="200mm" height="200mm" version="1.1" style="shape-rendering:geometricPrecision; text-rendering:geometricPrecision; image-rendering:optimizeQuality; fill-rule:evenodd; clip-rule:evenodd"
viewBox="0 0 20000 20000"
 xmlns:xlink="http://www.w3.org/1999/xlink">
 <defs>
  <style type="text/css">
   <![CDATA[
    .str1 {stroke:#024541;stroke-width:12.73}
    .str4 {stroke:#CC7588;stroke-width:17.38}
    .str3 {stroke:#CC7588;stroke-width:20.05}
    .str2 {stroke:#024541;stroke-width:29.14}
    .str0 {stroke:#024541;stroke-width:159.99;stroke-linecap:round;stroke-linejoin:round}
    .fil6 {fill:none;fill-rule:nonzero}
    .fil2 {fill:#CDDBAC}
    .fil1 {fill:#EBF2D9}
    .fil3 {fill:#024541;fill-rule:nonzero}
    .fil4 {fill:#4D897C;fill-rule:nonzero}
    .fil5 {fill:#CC7588;fill-rule:nonzero}
    .fil0 {fill:url(#id0)}
   ]]>
  </style>
  <radialGradient id="id0" gradientUnits="userSpaceOnUse" cx="10000" cy="10000" r="10000" fx="10000" fy="10000">
   <stop offset="0" style="stop-color:#FEFEFE"/>
   <stop offset="0.431373" style="stop-color:#FEFEFE"/>
   <stop offset="1" style="stop-color:#D1E2F2"/>
  </radialGradient>
 </defs>
 <g id="Layer_x0020_1">
  <metadata id="CorelCorpID_0Corel-Layer"/>
  <g id="_896299552">
   <polygon class="fil0" points="0,0 20000,0 20000,20000 0,20000 "/>
   <path class="fil1 str0" d="M12944 5584l0 8832c-2205,0 -3683,0 -5888,0l0 -8832 5888 0z"/>
   <path class="fil2" d="M7056 5584l5888 0 0 3361 -5888 -2798c10,-289 0,-370 0,-563z"/>
   <path class="fil3 str1" d="M7578 10159l52 0 0 107c0,10 5,19 19,19 13,0 19,-9 19,-19l0 -258c0,-10 -6,-19 -19,-19 -14,0 -19,9 -19,19l0 114c0,0 -42,0 -58,0 -24,0 -37,-16 -37,-35 0,-17 0,-79 0,-79 0,-10 -5,-19 -19,-19 -13,0 -19,9 -19,19l0 74c0,44 20,77 82,77zm301 107c0,10 5,19 19,19 14,0 19,-9 19,-19l0 -258c0,-10 -6,-19 -20,-19 -8,0 -13,3 -19,14l-110 196 0 0c1,-7 2,-17 2,-28l0 -163c0,-10 -5,-19 -19,-19 -14,0 -19,9 -19,19l0 258c0,10 6,19 20,19 8,0 13,-3 19,-14l110 -196 0 0c-1,7 -2,17 -2,28l0 163zm174 -18c-28,0 -40,-20 -40,-45l0 -132c0,-26 11,-45 40,-45l42 0c18,0 27,7 29,24 1,10 6,19 19,19 14,0 20,-9 20,-19 0,-43 -26,-61 -67,-61l-42 0c-52,0 -78,37 -78,82l0 132c0,45 26,82 78,82l42 0c42,0 67,-19 67,-61 0,-10 -6,-19 -20,-19 -13,0 -18,9 -19,19 -2,17 -11,24 -29,24l-42 0zm216 -19c3,-23 24,-199 24,-199l72 0 0 236c0,10 6,19 20,19 13,0 19,-9 19,-19l0 -254c0,-10 -6,-19 -19,-19l-107 0c-12,0 -19,8 -20,19 -1,12 -23,192 -26,208 -1,9 -2,16 -5,20 -4,8 -11,10 -23,10 -10,0 -19,6 -19,19 0,14 9,19 19,19 36,0 51,-12 59,-32 3,-8 5,-15 6,-26zm232 -158c0,-26 11,-45 40,-45l33 0c28,0 40,20 40,45l0 132c0,26 -11,45 -40,45l-33 0c-28,0 -40,-20 -40,-45l0 -132zm151 0c0,-45 -26,-82 -78,-82l-33 0c-52,0 -78,37 -78,82l0 132c0,45 26,82 78,82l33 0c52,0 78,-37 78,-82l0 -132zm307 -41l0 236c0,10 5,19 19,19 13,0 19,-9 19,-19l0 -254c0,-10 -6,-19 -19,-19l-139 0c-13,0 -19,9 -19,19l0 254c0,10 6,19 19,19 14,0 19,-9 19,-19l0 -236 100 0zm136 41c0,-26 11,-45 40,-45l33 0c28,0 40,20 40,45l0 132c0,26 -11,45 -40,45l-33 0c-28,0 -40,-20 -40,-45l0 -132zm151 0c0,-45 -26,-82 -78,-82l-33 0c-52,0 -78,37 -78,82l0 132c0,45 26,82 78,82l33 0c52,0 78,-37 78,-82l0 -132zm80 -78c-15,0 -21,9 -21,19l0 254c0,10 6,19 19,19 14,0 19,-9 19,-19l0 -236 110 0c9,0 18,-5 18,-19 0,-12 -9,-19 -16,-19l-130 0zm305 207l23 72c3,10 13,16 24,12 11,-4 15,-14 12,-23l-83 -258c-3,-9 -8,-14 -19,-14l-2 0c-12,0 -16,5 -19,14l-83 258c-3,10 1,20 12,23 11,4 21,-2 24,-12l23 -72 89 0zm-51 -124c3,-9 4,-14 6,-23l0 0c2,10 3,14 6,23l28 90 -69 0 28 -90zm380 -87c-14,0 -20,9 -20,19l0 236 -69 0 0 -236c0,-10 -7,-19 -19,-19 -12,0 -18,9 -18,19l0 236 -69 0 0 -236c0,-10 -6,-19 -20,-19 -13,0 -19,9 -19,19l0 254c0,10 6,19 19,19l214 0c13,0 19,-9 19,-19l0 -254c0,-10 -6,-19 -19,-19zm233 292c9,0 18,-5 18,-19 0,-12 -9,-19 -18,-19l-113 0 0 -93 93 0c9,0 18,-5 18,-19 0,-12 -9,-19 -18,-19l-93 0 0 -84 113 0c9,0 18,-5 18,-19 0,-12 -9,-19 -18,-19l-133 0c-13,0 -19,9 -19,19l0 250c0,10 6,19 19,19l133 0zm250 -273c0,-10 -6,-19 -19,-19 -14,0 -19,9 -19,19l0 102 -108 0 0 -102c0,-10 -5,-19 -19,-19 -13,0 -19,9 -19,19l0 258c0,10 6,19 19,19 14,0 19,-9 19,-19l0 -119 108 0 0 119c0,10 5,19 19,19 13,0 19,-9 19,-19l0 -258zm248 0c0,-10 -6,-19 -19,-19 -14,0 -19,9 -19,19l0 102 -108 0 0 -102c0,-10 -5,-19 -19,-19 -13,0 -19,9 -19,19l0 258c0,10 6,19 19,19 14,0 19,-9 19,-19l0 -119 108 0 0 119c0,10 5,19 19,19 13,0 19,-9 19,-19l0 -258zm305 258l0 -258c0,-10 -5,-19 -19,-19 -13,0 -19,9 -19,19l0 258c0,10 5,19 19,19 13,0 19,-9 19,-19zm-153 -162l-51 0 0 -97c0,-10 -6,-19 -19,-19 -14,0 -19,9 -19,19l0 254c0,10 6,19 20,19l70 0c53,0 79,-35 79,-80l0 -19c0,-46 -25,-78 -79,-78zm40 101c0,25 -11,39 -40,39l-52 0 0 -102 51 0c28,0 40,14 40,39l0 25 0 0zm253 -110l-52 -95c-5,-9 -14,-14 -26,-8 -12,6 -12,17 -8,25l64 114 -72 128c-4,7 -4,19 8,25 12,6 21,1 26,-8l60 -109 60 109c5,10 14,14 26,8 12,-6 12,-17 8,-25l-72 -128 64 -114c4,-7 4,-19 -8,-25 -12,-6 -21,-1 -26,8l-52 95z"/>
   <path class="fil3 str1" d="M8981 10636l-60 0 0 -77 105 0c9,0 18,-5 18,-19 0,-12 -9,-19 -18,-19l-124 0c-14,0 -20,9 -20,19l0 250c0,10 6,19 20,19l79 0c53,0 79,-35 79,-80l0 -19c0,-46 -26,-76 -79,-76zm40 98c0,25 -11,39 -40,39l-60 0 0 -102 60 0c28,0 40,14 40,39l0 25zm242 -216c-55,0 -79,47 -79,92l0 30 -37 0 0 -102c0,-10 -4,-19 -18,-19 -13,0 -19,9 -19,19l0 258c0,10 5,19 19,19 14,0 18,-9 18,-19l0 -119 37 0 0 55c0,45 24,83 76,83l22 0c52,0 78,-37 78,-82l0 -132c0,-45 -26,-82 -78,-82l-19 0zm58 214c0,26 -11,45 -40,45l-20 0c-28,0 -40,-20 -40,-45l0 -119c0,-26 11,-58 41,-58l19 0c28,0 40,20 40,43l0 134zm155 26c3,-23 24,-199 24,-199l72 0 0 236c0,10 6,19 20,19 13,0 19,-9 19,-19l0 -254c0,-10 -6,-19 -19,-19l-107 0c-12,0 -19,8 -20,19 -1,12 -23,192 -26,208 -1,9 -2,16 -5,20 -4,8 -11,10 -23,10 -10,0 -19,6 -19,19 0,14 9,19 19,19 36,0 51,-12 59,-32 3,-8 5,-15 6,-26zm255 0c3,-23 24,-199 24,-199l72 0 0 236c0,10 6,19 20,19 13,0 19,-9 19,-19l0 -254c0,-10 -6,-19 -19,-19l-107 0c-12,0 -19,8 -20,19 -1,12 -23,192 -26,208 -1,9 -2,16 -5,20 -4,8 -11,10 -23,10 -10,0 -19,6 -19,19 0,14 9,19 19,19 36,0 51,-12 59,-32 3,-8 5,-15 6,-26zm349 52c9,0 18,-5 18,-19 0,-12 -9,-19 -18,-19l-113 0 0 -93 93 0c9,0 18,-5 18,-19 0,-12 -9,-19 -18,-19l-93 0 0 -84 113 0c9,0 18,-5 18,-19 0,-12 -9,-19 -18,-19l-133 0c-13,0 -19,9 -19,19l0 250c0,10 6,19 19,19l133 0zm135 4c14,0 19,-9 19,-19l0 -236 60 0c9,0 18,-5 18,-19 0,-12 -9,-19 -18,-19l-159 0c-9,0 -18,6 -18,19 0,13 9,19 18,19l60 0 0 236c0,10 6,19 19,19zm285 -4c9,0 18,-5 18,-19 0,-12 -9,-19 -18,-19l-113 0 0 -93 93 0c9,0 18,-5 18,-19 0,-12 -9,-19 -18,-19l-93 0 0 -84 113 0c9,0 18,-5 18,-19 0,-12 -9,-19 -18,-19l-133 0c-13,0 -19,9 -19,19l0 250c0,10 6,19 19,19l133 0zm250 -273c0,-10 -6,-19 -19,-19 -14,0 -19,9 -19,19l0 102 -108 0 0 -102c0,-10 -5,-19 -19,-19 -13,0 -19,9 -19,19l0 258c0,10 6,19 19,19 14,0 19,-9 19,-19l0 -119 108 0 0 119c0,10 5,19 19,19 13,0 19,-9 19,-19l0 -258zm214 273c9,0 18,-5 18,-19 0,-12 -9,-19 -18,-19l-113 0 0 -93 93 0c9,0 18,-5 18,-19 0,-12 -9,-19 -18,-19l-93 0 0 -84 113 0c9,0 18,-5 18,-19 0,-12 -9,-19 -18,-19l-133 0c-13,0 -19,9 -19,19l0 250c0,10 6,19 19,19l133 0zm158 -314c37,0 57,-27 57,-55 0,-9 -7,-14 -15,-14 -9,0 -14,6 -15,15 -1,15 -11,26 -27,26 -16,0 -26,-11 -27,-26 -1,-9 -7,-15 -15,-15 -9,0 -15,6 -15,14 0,28 20,55 57,55zm54 299c0,10 5,19 19,19 14,0 19,-9 19,-19l0 -258c0,-10 -6,-19 -20,-19 -8,0 -13,3 -19,14l-110 196 0 0c1,-7 2,-17 2,-28l0 -163c0,-10 -5,-19 -19,-19 -14,0 -19,9 -19,19l0 258c0,10 6,19 20,19 8,0 13,-3 19,-14l110 -196 0 0c-1,7 -2,17 -2,28l0 163z"/>
   <path class="fil3 str2" d="M8156 6838l0 540c0,23 12,43 43,43 29,0 43,-21 43,-43l0 -582c0,-23 -14,-43 -43,-43l-305 0c-29,0 -43,21 -43,43l0 582c0,23 14,43 43,43 30,0 43,-21 43,-43l0 -540 220 0zm308 233l0 -234 141 0c62,0 89,33 89,89l0 47c0,57 -26,98 -89,98l-141 0zm141 85c117,0 174,-79 174,-183l0 -47c0,-105 -57,-173 -174,-173l-185 0c-29,0 -42,21 -42,43l0 582c0,23 13,43 43,43 30,0 43,-21 43,-43l0 -222 141 0zm356 -224c0,-58 24,-104 87,-104l72 0c62,0 87,45 87,104l0 301c0,58 -24,104 -87,104l-72 0c-62,0 -87,-45 -87,-104l0 -301zm331 0c0,-104 -57,-188 -172,-188l-72 0c-115,0 -172,85 -172,188l0 301c0,104 57,188 172,188l72 0c115,0 172,-85 172,-188l0 -301zm285 489c30,0 43,-21 43,-43l0 -540 132 0c21,0 40,-12 40,-42 0,-28 -19,-42 -40,-42l-349 0c-21,0 -40,14 -40,42 0,30 19,42 40,42l132 0 0 540c0,23 13,43 43,43zm370 -489c0,-58 24,-104 87,-104l72 0c62,0 87,45 87,104l0 301c0,58 -24,104 -87,104l-72 0c-62,0 -87,-45 -87,-104l0 -301zm331 0c0,-104 -57,-188 -172,-188l-72 0c-115,0 -172,85 -172,188l0 301c0,104 57,188 172,188l72 0c115,0 172,-85 172,-188l0 -301zm532 420l-194 -287 185 -249c16,-22 16,-45 -2,-62 -22,-21 -48,-10 -63,9l-190 268 -54 0 0 -244c0,-23 -13,-43 -42,-43 -31,0 -43,21 -43,43l0 591c0,23 13,43 43,43 29,0 42,-21 42,-43l0 -263 55 0 194 287c12,19 34,29 59,12 25,-19 24,-44 11,-63zm183 -420c0,-58 24,-104 87,-104l72 0c62,0 87,45 87,104l0 301c0,58 -24,104 -87,104l-72 0c-62,0 -87,-45 -87,-104l0 -301zm331 0c0,-104 -57,-188 -172,-188l-72 0c-115,0 -172,85 -172,188l0 301c0,104 57,188 172,188l72 0c115,0 172,-85 172,-188l0 -301zm255 361c6,-54 53,-455 53,-455l158 0 0 540c0,23 13,43 43,43 29,0 42,-21 42,-43l0 -582c0,-23 -13,-43 -42,-43l-236 0c-26,0 -41,18 -43,43 -3,27 -52,439 -56,475 -3,22 -5,36 -11,45 -9,18 -24,23 -51,23 -22,0 -42,14 -42,44 0,32 20,42 42,42 79,0 111,-26 129,-73 6,-18 10,-35 13,-59z"/>
   <g>
    <path class="fil4" d="M7744 13285l0 140 -3 0 -3 0 -3 0 -3 -1 -3 -1 -3 -1 -3 -1 -3 -1 -3 -1 -3 -2 -3 -2 -3 -2 -3 -2 -2 -2 -2 -2 -2 -2 -2 -2 -2 -3 -2 -3 -2 -3 -2 -3 -2 -3 -1 -3 -1 -3 -1 -3 -1 -3 -1 -3 -1 -3 -1 -3 0 -4 0 -4 0 -4 0 -4 0 -4 0 -4 1 -3 1 -3 1 -3 1 -3 1 -3 1 -3 1 -3 2 -3 2 -3 2 -3 2 -3 2 -3 2 -2 2 -2 2 -2 2 -2 3 -2 3 -2 3 -2 3 -2 3 -1 3 -1 3 -1 3 -1 3 -1 3 -1 3 0 3 0 3 0zm2420 140l-2420 0 0 -140 2420 0 0 140zm0 0l0 -140 3 0 3 0 3 0 3 1 3 1 3 1 3 1 3 1 3 1 3 2 3 2 3 2 3 2 2 2 2 2 2 2 2 2 2 3 2 3 2 3 2 3 2 3 1 3 1 3 1 3 1 3 1 3 1 3 1 3 0 4 0 4 0 4 0 4 0 4 0 4 -1 3 -1 3 -1 3 -1 3 -1 3 -1 3 -1 3 -2 3 -2 3 -2 3 -2 3 -2 3 -2 2 -2 2 -2 2 -2 2 -3 2 -3 2 -3 2 -3 2 -3 1 -3 1 -3 1 -3 1 -3 1 -3 1 -3 0 -3 0 -3 0zm-2420 -1779l0 140 -3 0 -3 0 -3 0 -3 -1 -3 -1 -3 -1 -3 -1 -3 -1 -3 -1 -3 -2 -3 -2 -3 -2 -3 -2 -2 -2 -2 -2 -2 -2 -2 -2 -2 -3 -2 -3 -2 -3 -2 -3 -2 -3 -1 -3 -1 -3 -1 -3 -1 -3 -1 -3 -1 -3 -1 -3 0 -4 0 -4 0 -4 0 -4 0 -4 0 -4 1 -3 1 -3 1 -3 1 -3 1 -3 1 -3 1 -3 2 -3 2 -3 2 -3 2 -3 2 -3 2 -2 2 -2 2 -2 2 -2 3 -2 3 -2 3 -2 3 -2 3 -1 3 -1 3 -1 3 -1 3 -1 3 -1 3 0 3 0 3 0zm3411 140l-3411 0 0 -140 3411 0 0 140zm0 0l0 -140 3 0 3 0 3 0 3 1 3 1 3 1 3 1 3 1 3 1 3 2 3 2 3 2 3 2 2 2 2 2 2 2 2 2 2 3 2 3 2 3 2 3 2 3 1 3 1 3 1 3 1 3 1 3 1 3 1 3 0 4 0 4 0 4 0 4 0 4 0 4 -1 3 -1 3 -1 3 -1 3 -1 3 -1 3 -1 3 -2 3 -2 3 -2 3 -2 3 -2 3 -2 2 -2 2 -2 2 -2 2 -3 2 -3 2 -3 2 -3 2 -3 1 -3 1 -3 1 -3 1 -3 1 -3 1 -3 0 -3 0 -3 0zm-3411 -542l0 140 -3 0 -3 0 -3 0 -3 -1 -3 -1 -3 -1 -3 -1 -3 -1 -3 -1 -3 -2 -3 -2 -3 -2 -3 -2 -2 -2 -2 -2 -2 -2 -2 -2 -2 -3 -2 -3 -2 -3 -2 -3 -2 -3 -1 -3 -1 -3 -1 -3 -1 -3 -1 -3 -1 -3 -1 -3 0 -4 0 -4 0 -4 0 -4 0 -4 0 -4 1 -3 1 -3 1 -3 1 -3 1 -3 1 -3 1 -3 2 -3 2 -3 2 -3 2 -3 2 -3 2 -2 2 -2 2 -2 2 -2 3 -2 3 -2 3 -2 3 -2 3 -1 3 -1 3 -1 3 -1 3 -1 3 -1 3 0 3 0 3 0zm3407 140l-3407 0 0 -140 3407 0 0 140zm0 0l0 -140 3 0 3 0 3 0 3 1 3 1 3 1 3 1 3 1 3 1 3 2 3 2 3 2 3 2 2 2 2 2 2 2 2 2 2 3 2 3 2 3 2 3 2 3 1 3 1 3 1 3 1 3 1 3 1 3 1 3 0 4 0 4 0 4 0 4 0 4 0 4 -1 3 -1 3 -1 3 -1 3 -1 3 -1 3 -1 3 -2 3 -2 3 -2 3 -2 3 -2 3 -2 2 -2 2 -2 2 -2 2 -3 2 -3 2 -3 2 -3 2 -3 1 -3 1 -3 1 -3 1 -3 1 -3 1 -3 0 -3 0 -3 0zm-3407 664l0 140 -3 0 -3 0 -3 0 -3 -1 -3 -1 -3 -1 -3 -1 -3 -1 -3 -1 -3 -2 -3 -2 -3 -2 -3 -2 -2 -2 -2 -2 -2 -2 -2 -2 -2 -3 -2 -3 -2 -3 -2 -3 -2 -3 -1 -3 -1 -3 -1 -3 -1 -3 -1 -3 -1 -3 -1 -3 0 -4 0 -4 0 -4 0 -4 0 -4 0 -4 1 -3 1 -3 1 -3 1 -3 1 -3 1 -3 1 -3 2 -3 2 -3 2 -3 2 -3 2 -3 2 -2 2 -2 2 -2 2 -2 3 -2 3 -2 3 -2 3 -2 3 -1 3 -1 3 -1 3 -1 3 -1 3 -1 3 0 3 0 3 0zm4586 140l-4586 0 0 -140 4586 0 0 140zm0 0l0 -140 3 0 3 0 3 0 3 1 3 1 3 1 3 1 3 1 3 1 3 2 3 2 3 2 3 2 2 2 2 2 2 2 2 2 2 3 2 3 2 3 2 3 2 3 1 3 1 3 1 3 1 3 1 3 1 3 1 3 0 4 0 4 0 4 0 4 0 4 0 4 -1 3 -1 3 -1 3 -1 3 -1 3 -1 3 -1 3 -2 3 -2 3 -2 3 -2 3 -2 3 -2 2 -2 2 -2 2 -2 2 -3 2 -3 2 -3 2 -3 2 -3 1 -3 1 -3 1 -3 1 -3 1 -3 1 -3 0 -3 0 -3 0zm-4586 262l0 140 -3 0 -3 0 -3 0 -3 -1 -3 -1 -3 -1 -3 -1 -3 -1 -3 -1 -3 -2 -3 -2 -3 -2 -3 -2 -2 -2 -2 -2 -2 -2 -2 -2 -2 -3 -2 -3 -2 -3 -2 -3 -2 -3 -1 -3 -1 -3 -1 -3 -1 -3 -1 -3 -1 -3 -1 -3 0 -4 0 -4 0 -4 0 -4 0 -4 0 -4 1 -3 1 -3 1 -3 1 -3 1 -3 1 -3 1 -3 2 -3 2 -3 2 -3 2 -3 2 -3 2 -2 2 -2 2 -2 2 -2 3 -2 3 -2 3 -2 3 -2 3 -1 3 -1 3 -1 3 -1 3 -1 3 -1 3 0 3 0 3 0zm3407 140l-3407 0 0 -140 3407 0 0 140zm0 0l0 -140 3 0 3 0 3 0 3 1 3 1 3 1 3 1 3 1 3 1 3 2 3 2 3 2 3 2 2 2 2 2 2 2 2 2 2 3 2 3 2 3 2 3 2 3 1 3 1 3 1 3 1 3 1 3 1 3 1 3 0 4 0 4 0 4 0 4 0 4 0 4 -1 3 -1 3 -1 3 -1 3 -1 3 -1 3 -1 3 -2 3 -2 3 -2 3 -2 3 -2 3 -2 2 -2 2 -2 2 -2 2 -3 2 -3 2 -3 2 -3 2 -3 1 -3 1 -3 1 -3 1 -3 1 -3 1 -3 0 -3 0 -3 0zm-3407 262l0 140 -3 0 -3 0 -3 0 -3 -1 -3 -1 -3 -1 -3 -1 -3 -1 -3 -1 -3 -2 -3 -2 -3 -2 -3 -2 -2 -2 -2 -2 -2 -2 -2 -2 -2 -3 -2 -3 -2 -3 -2 -3 -2 -3 -1 -3 -1 -3 -1 -3 -1 -3 -1 -3 -1 -3 -1 -3 0 -4 0 -4 0 -4 0 -4 0 -4 0 -4 1 -3 1 -3 1 -3 1 -3 1 -3 1 -3 1 -3 2 -3 2 -3 2 -3 2 -3 2 -3 2 -2 2 -2 2 -2 2 -2 3 -2 3 -2 3 -2 3 -2 3 -1 3 -1 3 -1 3 -1 3 -1 3 -1 3 0 3 0 3 0zm4586 140l-4586 0 0 -140 4586 0 0 140zm0 0l0 -140 3 0 3 0 3 0 3 1 3 1 3 1 3 1 3 1 3 1 3 2 3 2 3 2 3 2 2 2 2 2 2 2 2 2 2 3 2 3 2 3 2 3 2 3 1 3 1 3 1 3 1 3 1 3 1 3 1 3 0 4 0 4 0 4 0 4 0 4 0 4 -1 3 -1 3 -1 3 -1 3 -1 3 -1 3 -1 3 -2 3 -2 3 -2 3 -2 3 -2 3 -2 2 -2 2 -2 2 -2 2 -3 2 -3 2 -3 2 -3 2 -3 1 -3 1 -3 1 -3 1 -3 1 -3 1 -3 0 -3 0 -3 0zm-4586 -3559l0 140 -3 0 -3 0 -3 0 -3 -1 -3 -1 -3 -1 -3 -1 -3 -1 -3 -1 -3 -2 -3 -2 -3 -2 -3 -2 -2 -2 -2 -2 -2 -2 -2 -2 -2 -3 -2 -3 -2 -3 -2 -3 -2 -3 -1 -3 -1 -3 -1 -3 -1 -3 -1 -3 -1 -3 -1 -3 0 -4 0 -4 0 -4 0 -4 0 -4 0 -4 1 -3 1 -3 1 -3 1 -3 1 -3 1 -3 1 -3 2 -3 2 -3 2 -3 2 -3 2 -3 2 -2 2 -2 2 -2 2 -2 3 -2 3 -2 3 -2 3 -2 3 -1 3 -1 3 -1 3 -1 3 -1 3 -1 3 0 3 0 3 0zm4332 140l-4332 0 0 -140 4332 0 0 140zm0 0l0 -140 3 0 3 0 3 0 3 1 3 1 3 1 3 1 3 1 3 1 3 2 3 2 3 2 3 2 2 2 2 2 2 2 2 2 2 3 2 3 2 3 2 3 2 3 1 3 1 3 1 3 1 3 1 3 1 3 1 3 0 4 0 4 0 4 0 4 0 4 0 4 -1 3 -1 3 -1 3 -1 3 -1 3 -1 3 -1 3 -2 3 -2 3 -2 3 -2 3 -2 3 -2 2 -2 2 -2 2 -2 2 -3 2 -3 2 -3 2 -3 2 -3 1 -3 1 -3 1 -3 1 -3 1 -3 1 -3 0 -3 0 -3 0z"/>
   </g>
   <path class="fil5 str3" d="M11820 10142c0,-54 -21,-95 -66,-110 29,-18 45,-46 45,-88l0 -8c0,-75 -40,-116 -120,-116l-33 0c-63,0 -103,29 -103,97 0,17 8,30 29,30 21,0 29,-14 29,-30 0,-27 18,-39 45,-39l33 0c44,0 62,17 62,58l0 8c0,41 -23,70 -67,70l-35 0c-15,0 -28,8 -28,29 0,21 12,29 28,29l63 0c44,0 60,30 60,71l0 21c0,41 -18,64 -62,64l-66 0c-27,0 -45,-12 -45,-39 0,-17 -8,-30 -29,-30 -21,0 -29,14 -29,30 0,69 39,97 103,97l66 0c80,0 120,-48 120,-122l0 -21zm123 28c0,-30 10,-53 31,-63l113 -54c55,-26 68,-71 68,-115l0 -3c0,-75 -40,-116 -120,-116l-37 0c-63,0 -103,29 -103,97 0,17 8,30 29,30 21,0 29,-14 29,-30 0,-27 18,-39 45,-39l37 0c44,0 62,17 62,58l0 3c0,30 -9,49 -34,61l-105 49c-49,22 -72,71 -72,128l0 104 247 0c15,0 28,-8 28,-29 0,-21 -12,-29 -28,-29l-189 0 0 -51zm362 86c0,17 8,30 29,30 21,0 29,-14 29,-30l0 -55c0,-91 17,-148 60,-221l64 -108c15,-26 5,-45 -23,-45l-229 0c-15,0 -28,8 -28,29 0,21 12,29 28,29l181 0 -39 64c-55,89 -71,148 -71,253l0 55z"/>
   <path class="fil5 str4" d="M12036 10513c-18,0 -24,12 -24,26l0 224 -81 0 0 -224c0,-13 -6,-26 -24,-26 -18,0 -24,12 -24,26l0 224 -81 0 0 -224c0,-13 -6,-26 -24,-26 -18,0 -24,12 -24,26l0 246c0,14 7,26 24,26l258 0c17,0 24,-12 24,-26l0 -246c0,-13 -6,-26 -24,-26zm277 6l-176 0c-12,0 -23,6 -23,24 0,17 11,25 23,25l64 0 0 224c0,13 6,26 24,26 17,0 24,-12 24,-26l0 -224 64 0c12,0 23,-7 23,-25 0,-18 -11,-24 -23,-24z"/>
   <path class="fil6 str0" d="M12944 5584l0 8832c-2205,0 -3683,0 -5888,0l0 -8832 5888 0z"/>
   <g>
    <path class="fil5" d="M11555 11646l0 140 -3 0 -3 0 -3 0 -3 -1 -3 -1 -3 -1 -3 -1 -3 -1 -3 -1 -3 -2 -3 -2 -3 -2 -3 -2 -2 -2 -2 -2 -2 -2 -2 -2 -2 -3 -2 -3 -2 -3 -2 -3 -2 -3 -1 -3 -1 -3 -1 -3 -1 -3 -1 -3 -1 -3 -1 -3 0 -4 0 -4 0 -4 0 -4 0 -4 0 -4 1 -3 1 -3 1 -3 1 -3 1 -3 1 -3 1 -3 2 -3 2 -3 2 -3 2 -3 2 -3 2 -2 2 -2 2 -2 2 -2 3 -2 3 -2 3 -2 3 -2 3 -1 3 -1 3 -1 3 -1 3 -1 3 -1 3 0 3 0 3 0zm770 140l-770 0 0 -140 770 0 0 140zm0 0l0 -140 3 0 3 0 3 0 3 1 3 1 3 1 3 1 3 1 3 1 3 2 3 2 3 2 3 2 2 2 2 2 2 2 2 2 2 3 2 3 2 3 2 3 2 3 1 3 1 3 1 3 1 3 1 3 1 3 1 3 0 4 0 4 0 4 0 4 0 4 0 4 -1 3 -1 3 -1 3 -1 3 -1 3 -1 3 -1 3 -2 3 -2 3 -2 3 -2 3 -2 3 -2 2 -2 2 -2 2 -2 2 -3 2 -3 2 -3 2 -3 2 -3 1 -3 1 -3 1 -3 1 -3 1 -3 1 -3 0 -3 0 -3 0zm-825 664l0 140 -3 0 -3 0 -3 0 -3 -1 -3 -1 -3 -1 -3 -1 -3 -1 -3 -1 -3 -2 -3 -2 -3 -2 -3 -2 -2 -2 -2 -2 -2 -2 -2 -2 -2 -3 -2 -3 -2 -3 -2 -3 -2 -3 -1 -3 -1 -3 -1 -3 -1 -3 -1 -3 -1 -3 -1 -3 0 -4 0 -4 0 -4 0 -4 0 -4 0 -4 1 -3 1 -3 1 -3 1 -3 1 -3 1 -3 1 -3 2 -3 2 -3 2 -3 2 -3 2 -3 2 -2 2 -2 2 -2 2 -2 3 -2 3 -2 3 -2 3 -2 3 -1 3 -1 3 -1 3 -1 3 -1 3 -1 3 0 3 0 3 0zm770 140l-770 0 0 -140 770 0 0 140zm0 0l0 -140 3 0 3 0 3 0 3 1 3 1 3 1 3 1 3 1 3 1 3 2 3 2 3 2 3 2 2 2 2 2 2 2 2 2 2 3 2 3 2 3 2 3 2 3 1 3 1 3 1 3 1 3 1 3 1 3 1 3 0 4 0 4 0 4 0 4 0 4 0 4 -1 3 -1 3 -1 3 -1 3 -1 3 -1 3 -1 3 -2 3 -2 3 -2 3 -2 3 -2 3 -2 2 -2 2 -2 2 -2 2 -3 2 -3 2 -3 2 -3 2 -3 1 -3 1 -3 1 -3 1 -3 1 -3 1 -3 0 -3 0 -3 0z"/>
   </g>
   <g>
    <path class="fil4" d="M8390 8195l0 140 -3 0 -3 0 -3 0 -3 -1 -3 -1 -3 -1 -3 -1 -3 -1 -3 -1 -3 -2 -3 -2 -3 -2 -3 -2 -2 -2 -2 -2 -2 -2 -2 -2 -2 -3 -2 -3 -2 -3 -2 -3 -2 -3 -1 -3 -1 -3 -1 -3 -1 -3 -1 -3 -1 -3 -1 -3 0 -4 0 -4 0 -4 0 -4 0 -4 0 -4 1 -3 1 -3 1 -3 1 -3 1 -3 1 -3 1 -3 2 -3 2 -3 2 -3 2 -3 2 -3 2 -2 2 -2 2 -2 2 -2 3 -2 3 -2 3 -2 3 -2 3 -1 3 -1 3 -1 3 -1 3 -1 3 -1 3 0 3 0 3 0zm3940 140l-3940 0 0 -140 3940 0 0 140zm0 0l0 -140 3 0 3 0 3 0 3 1 3 1 3 1 3 1 3 1 3 1 3 2 3 2 3 2 3 2 2 2 2 2 2 2 2 2 2 3 2 3 2 3 2 3 2 3 1 3 1 3 1 3 1 3 1 3 1 3 1 3 0 4 0 4 0 4 0 4 0 4 0 4 -1 3 -1 3 -1 3 -1 3 -1 3 -1 3 -1 3 -2 3 -2 3 -2 3 -2 3 -2 3 -2 2 -2 2 -2 2 -2 2 -3 2 -3 2 -3 2 -3 2 -3 1 -3 1 -3 1 -3 1 -3 1 -3 1 -3 0 -3 0 -3 0zm-4575 262l0 140 -3 0 -3 0 -3 0 -3 -1 -3 -1 -3 -1 -3 -1 -3 -1 -3 -1 -3 -2 -3 -2 -3 -2 -3 -2 -2 -2 -2 -2 -2 -2 -2 -2 -2 -3 -2 -3 -2 -3 -2 -3 -2 -3 -1 -3 -1 -3 -1 -3 -1 -3 -1 -3 -1 -3 -1 -3 0 -4 0 -4 0 -4 0 -4 0 -4 0 -4 1 -3 1 -3 1 -3 1 -3 1 -3 1 -3 1 -3 2 -3 2 -3 2 -3 2 -3 2 -3 2 -2 2 -2 2 -2 2 -2 3 -2 3 -2 3 -2 3 -2 3 -1 3 -1 3 -1 3 -1 3 -1 3 -1 3 0 3 0 3 0zm4422 140l-4422 0 0 -140 4422 0 0 140zm0 0l0 -140 3 0 3 0 3 0 3 1 3 1 3 1 3 1 3 1 3 1 3 2 3 2 3 2 3 2 2 2 2 2 2 2 2 2 2 3 2 3 2 3 2 3 2 3 1 3 1 3 1 3 1 3 1 3 1 3 1 3 0 4 0 4 0 4 0 4 0 4 0 4 -1 3 -1 3 -1 3 -1 3 -1 3 -1 3 -1 3 -2 3 -2 3 -2 3 -2 3 -2 3 -2 2 -2 2 -2 2 -2 2 -3 2 -3 2 -3 2 -3 2 -3 1 -3 1 -3 1 -3 1 -3 1 -3 1 -3 0 -3 0 -3 0zm-4433 262l0 140 -3 0 -3 0 -3 0 -3 -1 -3 -1 -3 -1 -3 -1 -3 -1 -3 -1 -3 -2 -3 -2 -3 -2 -3 -2 -2 -2 -2 -2 -2 -2 -2 -2 -2 -3 -2 -3 -2 -3 -2 -3 -2 -3 -1 -3 -1 -3 -1 -3 -1 -3 -1 -3 -1 -3 -1 -3 0 -4 0 -4 0 -4 0 -4 0 -4 0 -4 1 -3 1 -3 1 -3 1 -3 1 -3 1 -3 1 -3 2 -3 2 -3 2 -3 2 -3 2 -3 2 -2 2 -2 2 -2 2 -2 3 -2 3 -2 3 -2 3 -2 3 -1 3 -1 3 -1 3 -1 3 -1 3 -1 3 0 3 0 3 0zm4586 140l-4586 0 0 -140 4586 0 0 140zm0 0l0 -140 3 0 3 0 3 0 3 1 3 1 3 1 3 1 3 1 3 1 3 2 3 2 3 2 3 2 2 2 2 2 2 2 2 2 2 3 2 3 2 3 2 3 2 3 1 3 1 3 1 3 1 3 1 3 1 3 1 3 0 4 0 4 0 4 0 4 0 4 0 4 -1 3 -1 3 -1 3 -1 3 -1 3 -1 3 -1 3 -2 3 -2 3 -2 3 -2 3 -2 3 -2 2 -2 2 -2 2 -2 2 -3 2 -3 2 -3 2 -3 2 -3 1 -3 1 -3 1 -3 1 -3 1 -3 1 -3 0 -3 0 -3 0z"/>
   </g>
  </g>
 </g>
</svg>
