<?xml version="1.0" encoding="UTF-8"?>
<!DOCTYPE svg PUBLIC "-//W3C//DTD SVG 1.1//EN" "http://www.w3.org/Graphics/SVG/1.1/DTD/svg11.dtd">
<!-- Creator: CorelDRAW X6 -->
<svg xmlns="http://www.w3.org/2000/svg" xml:space="preserve" width="200mm" height="200mm" version="1.1" style="shape-rendering:geometricPrecision; text-rendering:geometricPrecision; image-rendering:optimizeQuality; fill-rule:evenodd; clip-rule:evenodd"
viewBox="0 0 20000 20000"
 xmlns:xlink="http://www.w3.org/1999/xlink">
 <defs>
  <style type="text/css">
   <![CDATA[
    .str8 {stroke:#024541;stroke-width:29.51}
    .str4 {stroke:#AB8082;stroke-width:51.72}
    .str6 {stroke:#CC7588;stroke-width:53.78}
    .str7 {stroke:#CC7588;stroke-width:84.5;stroke-linecap:round;stroke-linejoin:round}
    .str5 {stroke:#CC7588;stroke-width:139.55;stroke-linecap:round;stroke-linejoin:round}
    .str2 {stroke:#024541;stroke-width:162;stroke-linecap:round;stroke-linejoin:round}
    .str0 {stroke:#024541;stroke-width:162.6;stroke-linecap:round;stroke-linejoin:round}
    .str1 {stroke:#4D897C;stroke-width:162.6;stroke-linecap:round;stroke-linejoin:round}
    .str3 {stroke:#4D897C;stroke-width:162.62;stroke-linecap:round;stroke-linejoin:round}
    .fil3 {fill:none}
    .fil6 {fill:none;fill-rule:nonzero}
    .fil2 {fill:#CDDBAC}
    .fil1 {fill:#EBF2D9}
    .fil8 {fill:#024541;fill-rule:nonzero}
    .fil7 {fill:#4D897C;fill-rule:nonzero}
    .fil5 {fill:#AB8082;fill-rule:nonzero}
    .fil4 {fill:#CC7588;fill-rule:nonzero}
    .fil0 {fill:url(#id0)}
   ]]>
  </style>
  <radialGradient id="id0" gradientUnits="userSpaceOnUse" cx="10000" cy="10000" r="10000" fx="10000" fy="10000">
   <stop offset="0" style="stop-color:#FEFEFE"/>
   <stop offset="0.431373" style="stop-color:#FEFEFE"/>
   <stop offset="1" style="stop-color:#D1E2F2"/>
  </radialGradient>
 </defs>
 <g id="Layer_x0020_1">
  <metadata id="CorelCorpID_0Corel-Layer"/>
  <g id="_913137264">
   <polygon class="fil0" points="0,0 20000,0 20000,20000 0,20000 "/>
   <path class="fil1" d="M9359 5738l-3935 0 0 5141 1970 1600 2524 0 0 -6182c0,-309 -250,-559 -559,-559z"/>
   <polygon class="fil2" points="7390,12479 9890,12479 9890,10031 6381,11654 "/>
   <polyline class="fil3 str0" points="5424,10877 5424,5738 9890,5738 9890,12479 7395,12479 "/>
   <line class="fil3 str0" x1="4833" y1="6276" x2="4833" y2= "11414" />
   <path class="fil3 str0" d="M5129 6007c0,1283 0,3855 0,5139"/>
   <path class="fil3 str1" d="M4537 6544c0,1283 0,3855 0,5139"/>
   <line class="fil3 str2" x1="7094" y1="12748" x2="9633" y2= "12748" />
   <line class="fil3 str2" x1="6798" y1="13016" x2="9337" y2= "13016" />
   <line class="fil3 str3" x1="6502" y1="13285" x2="9041" y2= "13285" />
   <g>
    <path class="fil4" d="M7322 12545l136 -132 4 3 4 3 3 3 3 4 3 4 3 4 2 4 2 4 2 4 2 4 1 4 1 4 1 4 1 4 1 4 0 4 0 4 0 4 0 4 -1 4 -1 4 -1 4 -1 4 -2 4 -2 4 -2 4 -2 4 -2 4 -3 4 -3 4 -3 4 -3 3 -4 3 -4 3 -4 3 -4 3 -4 3 -4 2 -4 2 -4 2 -5 2 -5 2 -5 1 -5 1 -5 1 -5 1 -5 1 -5 0 -5 0 -5 0 -5 0 -5 -1 -5 -1 -5 -1 -5 -1 -5 -1 -5 -2 -5 -2 -4 -2 -4 -2 -4 -2 -4 -3 -4 -3 -4 -3zm-1829 -1732l1965 1600 -136 132 -1965 -1600 136 -132zm0 0l-136 132 -4 -3 -4 -3 -3 -3 -3 -4 -3 -4 -3 -4 -2 -4 -2 -4 -2 -4 -2 -4 -1 -4 -1 -4 -1 -4 -1 -4 -1 -4 0 -4 0 -4 0 -4 0 -4 1 -4 1 -4 1 -4 1 -4 2 -4 2 -4 2 -4 2 -4 2 -4 3 -4 3 -4 3 -4 3 -3 4 -3 4 -3 4 -3 4 -3 4 -3 4 -2 4 -2 4 -2 5 -2 5 -2 5 -1 5 -1 5 -1 5 -1 5 -1 5 0 5 0 5 0 5 0 5 1 5 1 5 1 5 1 5 1 5 2 5 2 4 2 4 2 4 2 4 3 4 3 4 3z"/>
   </g>
   <g>
    <path class="fil4" d="M7026 12811l136 -132 4 3 4 3 3 3 3 4 3 4 3 4 2 4 2 4 2 4 2 4 1 4 1 4 1 4 1 4 1 4 0 4 0 4 0 4 0 4 -1 4 -1 4 -1 4 -1 4 -2 4 -2 4 -2 4 -2 4 -2 4 -3 4 -3 4 -3 4 -3 3 -4 3 -4 3 -4 3 -4 3 -4 3 -4 2 -4 2 -4 2 -5 2 -5 2 -5 1 -5 1 -5 1 -5 1 -5 1 -5 0 -5 0 -5 0 -5 0 -5 -1 -5 -1 -5 -1 -5 -1 -5 -1 -5 -2 -5 -2 -4 -2 -4 -2 -4 -2 -4 -3 -4 -3 -4 -3zm-1829 -1732l1965 1600 -136 132 -1965 -1600 136 -132zm0 0l-136 132 -4 -3 -4 -3 -3 -3 -3 -4 -3 -4 -3 -4 -2 -4 -2 -4 -2 -4 -2 -4 -1 -4 -1 -4 -1 -4 -1 -4 -1 -4 0 -4 0 -4 0 -4 0 -4 1 -4 1 -4 1 -4 1 -4 2 -4 2 -4 2 -4 2 -4 2 -4 3 -4 3 -4 3 -4 3 -3 4 -3 4 -3 4 -3 4 -3 4 -3 4 -2 4 -2 4 -2 5 -2 5 -2 5 -1 5 -1 5 -1 5 -1 5 -1 5 0 5 0 5 0 5 0 5 1 5 1 5 1 5 1 5 1 5 2 5 2 4 2 4 2 4 2 4 3 4 3 4 3z"/>
   </g>
   <g>
    <path class="fil4" d="M6730 13078l136 -132 4 3 4 3 3 3 3 4 3 4 3 4 2 4 2 4 2 4 2 4 1 4 1 4 1 4 1 4 1 4 0 4 0 4 0 4 0 4 -1 4 -1 4 -1 4 -1 4 -2 4 -2 4 -2 4 -2 4 -2 4 -3 4 -3 4 -3 4 -3 3 -4 3 -4 3 -4 3 -4 3 -4 3 -4 2 -4 2 -4 2 -5 2 -5 2 -5 1 -5 1 -5 1 -5 1 -5 1 -5 0 -5 0 -5 0 -5 0 -5 -1 -5 -1 -5 -1 -5 -1 -5 -1 -5 -2 -5 -2 -4 -2 -4 -2 -4 -2 -4 -3 -4 -3 -4 -3zm-1829 -1732l1965 1600 -136 132 -1965 -1600 136 -132zm0 0l-136 132 -4 -3 -4 -3 -3 -3 -3 -4 -3 -4 -3 -4 -2 -4 -2 -4 -2 -4 -2 -4 -1 -4 -1 -4 -1 -4 -1 -4 -1 -4 0 -4 0 -4 0 -4 0 -4 1 -4 1 -4 1 -4 1 -4 2 -4 2 -4 2 -4 2 -4 2 -4 3 -4 3 -4 3 -4 3 -3 4 -3 4 -3 4 -3 4 -3 4 -3 4 -2 4 -2 4 -2 5 -2 5 -2 5 -1 5 -1 5 -1 5 -1 5 -1 5 0 5 0 5 0 5 0 5 1 5 1 5 1 5 1 5 1 5 2 5 2 4 2 4 2 4 2 4 3 4 3 4 3z"/>
   </g>
   <g>
    <path class="fil4" d="M6434 13345l136 -132 4 3 4 3 3 3 3 4 3 4 3 4 2 4 2 4 2 4 2 4 1 4 1 4 1 4 1 4 1 4 0 4 0 4 0 4 0 4 -1 4 -1 4 -1 4 -1 4 -2 4 -2 4 -2 4 -2 4 -2 4 -3 4 -3 4 -3 4 -3 3 -4 3 -4 3 -4 3 -4 3 -4 3 -4 2 -4 2 -4 2 -5 2 -5 2 -5 1 -5 1 -5 1 -5 1 -5 1 -5 0 -5 0 -5 0 -5 0 -5 -1 -5 -1 -5 -1 -5 -1 -5 -1 -5 -2 -5 -2 -4 -2 -4 -2 -4 -2 -4 -3 -4 -3 -4 -3zm-1829 -1732l1965 1600 -136 132 -1965 -1600 136 -132zm0 0l-136 132 -4 -3 -4 -3 -3 -3 -3 -4 -3 -4 -3 -4 -2 -4 -2 -4 -2 -4 -2 -4 -1 -4 -1 -4 -1 -4 -1 -4 -1 -4 0 -4 0 -4 0 -4 0 -4 1 -4 1 -4 1 -4 1 -4 2 -4 2 -4 2 -4 2 -4 2 -4 3 -4 3 -4 3 -4 3 -3 4 -3 4 -3 4 -3 4 -3 4 -3 4 -2 4 -2 4 -2 5 -2 5 -2 5 -1 5 -1 5 -1 5 -1 5 -1 5 0 5 0 5 0 5 0 5 1 5 1 5 1 5 1 5 1 5 2 5 2 4 2 4 2 4 2 4 3 4 3 4 3z"/>
   </g>
   <path class="fil5 str4" d="M7673 10153c-25,0 -34,17 -34,35l0 304 -116 0 0 -304c0,-18 -9,-35 -34,-35 -25,0 -34,17 -34,35l0 304 -116 0 0 -304c0,-18 -9,-35 -34,-35 -25,0 -34,17 -34,35l0 334c0,19 10,35 34,35l369 0c24,0 34,-16 34,-35l0 -334c0,-18 -9,-35 -34,-35zm397 8l-253 0c-18,0 -34,8 -34,32 0,24 16,34 34,34l92 0 0 304c0,18 9,35 34,35 24,0 34,-17 34,-35l0 -304 92 0c18,0 34,-10 34,-34 0,-24 -16,-32 -34,-32z"/>
   <path class="fil6 str5" d="M6749 10834c-332,-272 -544,-685 -544,-1147 0,-463 212,-876 544,-1147m1875 0c332,272 544,685 544,1147 0,463 -212,876 -544,1147"/>
   <path class="fil4 str6" d="M7263 9592c0,-93 -38,-164 -121,-190 52,-30 83,-79 83,-152l0 -15c0,-128 -73,-200 -218,-200l-59 0c-115,0 -186,49 -186,167 0,29 15,52 52,52 38,0 52,-23 52,-52 0,-47 32,-67 81,-67l59 0c79,0 113,30 113,99l0 15c0,70 -41,121 -122,121l-64 0c-28,0 -50,13 -50,49 0,36 22,49 50,49l114 0c79,0 109,51 109,123l0 37c0,70 -33,110 -113,110l-119 0c-49,0 -81,-20 -81,-67 0,-29 -15,-52 -52,-52 -38,0 -52,23 -52,52 0,118 71,167 186,167l119 0c145,0 218,-83 218,-211l0 -37zm223 48c0,-51 19,-92 56,-108l205 -93c100,-45 123,-123 123,-199l0 -4c0,-128 -73,-200 -218,-200l-68 0c-115,0 -186,49 -186,167 0,29 15,52 52,52 38,0 52,-23 52,-52 0,-47 32,-67 81,-67l68 0c79,0 113,30 113,99l0 4c0,52 -17,85 -61,105l-191 85c-89,38 -132,123 -132,220l0 179 449 0c28,0 50,-15 50,-50 0,-36 -22,-50 -50,-50l-344 0 0 -88zm741 -599c-177,106 -234,248 -234,423l0 165c0,128 73,211 218,211l65 0c145,0 218,-77 218,-205l0 -56c0,-127 -73,-217 -218,-217l-170 0c16,-92 67,-165 179,-233 23,-15 41,-42 20,-75 -20,-31 -52,-29 -77,-13zm-17 699c-79,0 -113,-40 -113,-110l0 -166 177 0c79,0 113,45 113,116l0 56c0,70 -33,105 -113,105l-65 0z"/>
   <path class="fil7" d="M5959 7409l-74 0 0 -153 166 0c19,0 36,-11 36,-37 0,-25 -17,-37 -36,-37l-205 0c-26,0 -38,16 -38,36l0 501c0,20 12,38 39,38l112 0c104,0 152,-55 152,-147l0 -48c0,-90 -48,-153 -152,-153zm76 200c0,49 -20,74 -76,74l-74 0 0 -205 74 0c57,0 76,31 76,81l0 50zm467 -436l-8 0c-110,0 -152,93 -152,183l0 59 -66 0 0 -204c0,-20 -8,-38 -36,-38 -26,0 -37,18 -37,38l0 515c0,20 11,38 37,38 27,0 36,-18 36,-38l0 -237 66 0 0 124c0,90 48,151 152,151l8 0c104,0 152,-70 152,-160l0 -271c0,-90 -48,-160 -152,-160zm75 431c0,51 -18,86 -75,86l-8 0c-57,0 -75,-26 -75,-77l0 -257c0,-51 15,-109 75,-109l8 0c57,0 75,35 75,86l0 271zm288 48c2,-18 27,-397 27,-397l115 0 0 471c0,20 11,38 39,38 26,0 38,-18 38,-38l0 -507c0,-20 -11,-38 -38,-38l-188 0c-26,0 -39,19 -39,38 0,0 -26,405 -27,414 -1,10 -2,25 -7,35 -7,14 -20,24 -40,24 -20,0 -38,12 -38,39 0,28 18,37 38,37 58,0 93,-24 109,-65 6,-15 10,-34 11,-51zm438 0c2,-18 27,-397 27,-397l115 0 0 471c0,20 11,38 39,38 26,0 38,-18 38,-38l0 -507c0,-20 -11,-38 -38,-38l-188 0c-26,0 -39,19 -39,38 0,0 -26,405 -27,414 -1,10 -2,25 -7,35 -7,14 -20,24 -40,24 -20,0 -38,12 -38,39 0,28 18,37 38,37 58,0 93,-24 109,-65 6,-15 10,-34 11,-51zm590 103c19,0 36,-11 36,-37 0,-25 -17,-37 -36,-37l-176 0 0 -185 140 0c19,0 36,-11 36,-37 0,-25 -17,-37 -36,-37l-140 0 0 -168 176 0c19,0 36,-11 36,-37 0,-25 -17,-37 -36,-37l-215 0c-26,0 -38,18 -38,38l0 499c0,20 11,38 38,38l215 0zm205 -30c0,20 11,38 38,38 26,0 39,-18 39,-38l0 -471 95 0c19,0 36,-11 36,-37 0,-25 -17,-37 -36,-37l-267 0c-19,0 -36,12 -36,37 0,26 17,37 36,37l95 0 0 471zm531 30c19,0 36,-11 36,-37 0,-25 -17,-37 -36,-37l-176 0 0 -185 140 0c19,0 36,-11 36,-37 0,-25 -17,-37 -36,-37l-140 0 0 -168 176 0c19,0 36,-11 36,-37 0,-25 -17,-37 -36,-37l-215 0c-26,0 -38,18 -38,38l0 499c0,20 11,38 38,38l215 0zm442 -545c0,-20 -12,-38 -39,-38 -27,0 -39,18 -39,38l0 204 -167 0 0 -204c0,-20 -11,-38 -39,-38 -26,0 -39,18 -39,38l0 515c0,20 12,38 39,38 27,0 39,-18 39,-38l0 -237 167 0 0 237c0,20 11,38 39,38 26,0 39,-18 39,-38l0 -515zm278 193l-83 0 0 -193c0,-20 -11,-38 -39,-38 -27,0 -39,18 -39,38l0 506c0,20 11,38 38,38l122 0c104,0 152,-55 152,-147l0 -49c0,-90 -48,-155 -152,-155zm-83 74l83 0c57,0 76,31 76,81l0 49c0,49 -20,74 -76,74l-83 0 0 -204z"/>
   <path class="fil1" d="M15580 5738l-3935 0 0 5141 1970 1600 2524 0 0 -6182c0,-309 -250,-559 -559,-559z"/>
   <polygon class="fil2" points="13610,12479 16110,12479 16110,10031 12602,11654 "/>
   <polyline class="fil3 str0" points="11645,10877 11645,5738 16110,5738 16110,12479 13615,12479 "/>
   <g>
    <path class="fil4" d="M13542 12545l136 -132 4 3 4 3 3 3 3 4 3 4 3 4 2 4 2 4 2 4 2 4 1 4 1 4 1 4 1 4 1 4 0 4 0 4 0 4 0 4 -1 4 -1 4 -1 4 -1 4 -2 4 -2 4 -2 4 -2 4 -2 4 -3 4 -3 4 -3 4 -3 3 -4 3 -4 3 -4 3 -4 3 -4 3 -4 2 -4 2 -4 2 -5 2 -5 2 -5 1 -5 1 -5 1 -5 1 -5 1 -5 0 -5 0 -5 0 -5 0 -5 -1 -5 -1 -5 -1 -5 -1 -5 -1 -5 -2 -5 -2 -4 -2 -4 -2 -4 -2 -4 -3 -4 -3 -4 -3zm-1829 -1732l1965 1600 -136 132 -1965 -1600 136 -132zm0 0l-136 132 -4 -3 -4 -3 -3 -3 -3 -4 -3 -4 -3 -4 -2 -4 -2 -4 -2 -4 -2 -4 -1 -4 -1 -4 -1 -4 -1 -4 -1 -4 0 -4 0 -4 0 -4 0 -4 1 -4 1 -4 1 -4 1 -4 2 -4 2 -4 2 -4 2 -4 2 -4 3 -4 3 -4 3 -4 3 -3 4 -3 4 -3 4 -3 4 -3 4 -3 4 -2 4 -2 4 -2 5 -2 5 -2 5 -1 5 -1 5 -1 5 -1 5 -1 5 0 5 0 5 0 5 0 5 1 5 1 5 1 5 1 5 1 5 2 5 2 4 2 4 2 4 2 4 3 4 3 4 3z"/>
   </g>
   <path class="fil5 str4" d="M13864 10153c-25,0 -34,17 -34,35l0 304 -116 0 0 -304c0,-18 -9,-35 -34,-35 -25,0 -34,17 -34,35l0 304 -116 0 0 -304c0,-18 -9,-35 -34,-35 -25,0 -34,17 -34,35l0 334c0,19 10,35 34,35l369 0c24,0 34,-16 34,-35l0 -334c0,-18 -9,-35 -34,-35zm397 8l-253 0c-18,0 -34,8 -34,32 0,24 16,34 34,34l92 0 0 304c0,18 9,35 34,35 24,0 34,-17 34,-35l0 -304 92 0c18,0 34,-10 34,-34 0,-24 -16,-32 -34,-32z"/>
   <path class="fil6 str5" d="M12940 10834c-332,-272 -544,-685 -544,-1147 0,-463 212,-876 544,-1147m1875 0c332,272 544,685 544,1147 0,463 -212,876 -544,1147"/>
   <path class="fil4 str6" d="M13885 9022c-18,0 -30,8 -40,18 -55,60 -116,121 -181,180 -20,19 -28,42 -1,69 25,25 48,16 68,-1 40,-33 81,-76 116,-117l0 543 -140 0c-28,0 -50,15 -50,50 0,36 22,50 50,50l362 0c28,0 50,-15 50,-50 0,-36 -22,-50 -50,-50l-117 0 0 -639c0,-29 -9,-52 -48,-52l-19 0z"/>
   <path class="fil7" d="M12180 7409l-74 0 0 -153 166 0c19,0 36,-11 36,-37 0,-25 -17,-37 -36,-37l-205 0c-26,0 -38,16 -38,36l0 501c0,20 12,38 39,38l112 0c104,0 152,-55 152,-147l0 -48c0,-90 -48,-153 -152,-153zm76 200c0,49 -20,74 -76,74l-74 0 0 -205 74 0c57,0 76,31 76,81l0 50zm467 -436l-8 0c-110,0 -152,93 -152,183l0 59 -66 0 0 -204c0,-20 -8,-38 -36,-38 -26,0 -37,18 -37,38l0 515c0,20 11,38 37,38 27,0 36,-18 36,-38l0 -237 66 0 0 124c0,90 48,151 152,151l8 0c104,0 152,-70 152,-160l0 -271c0,-90 -48,-160 -152,-160zm75 431c0,51 -18,86 -75,86l-8 0c-57,0 -75,-26 -75,-77l0 -257c0,-51 15,-109 75,-109l8 0c57,0 75,35 75,86l0 271zm288 48c2,-18 27,-397 27,-397l115 0 0 471c0,20 11,38 39,38 26,0 38,-18 38,-38l0 -507c0,-20 -11,-38 -38,-38l-188 0c-26,0 -39,19 -39,38 0,0 -26,405 -27,414 -1,10 -2,25 -7,35 -7,14 -20,24 -40,24 -20,0 -38,12 -38,39 0,28 18,37 38,37 58,0 93,-24 109,-65 6,-15 10,-34 11,-51zm438 0c2,-18 27,-397 27,-397l115 0 0 471c0,20 11,38 39,38 26,0 38,-18 38,-38l0 -507c0,-20 -11,-38 -38,-38l-188 0c-26,0 -39,19 -39,38 0,0 -26,405 -27,414 -1,10 -2,25 -7,35 -7,14 -20,24 -40,24 -20,0 -38,12 -38,39 0,28 18,37 38,37 58,0 93,-24 109,-65 6,-15 10,-34 11,-51zm590 103c19,0 36,-11 36,-37 0,-25 -17,-37 -36,-37l-176 0 0 -185 140 0c19,0 36,-11 36,-37 0,-25 -17,-37 -36,-37l-140 0 0 -168 176 0c19,0 36,-11 36,-37 0,-25 -17,-37 -36,-37l-215 0c-26,0 -38,18 -38,38l0 499c0,20 11,38 38,38l215 0zm205 -30c0,20 11,38 38,38 26,0 39,-18 39,-38l0 -471 95 0c19,0 36,-11 36,-37 0,-25 -17,-37 -36,-37l-267 0c-19,0 -36,12 -36,37 0,26 17,37 36,37l95 0 0 471zm531 30c19,0 36,-11 36,-37 0,-25 -17,-37 -36,-37l-176 0 0 -185 140 0c19,0 36,-11 36,-37 0,-25 -17,-37 -36,-37l-140 0 0 -168 176 0c19,0 36,-11 36,-37 0,-25 -17,-37 -36,-37l-215 0c-26,0 -38,18 -38,38l0 499c0,20 11,38 38,38l215 0zm442 -545c0,-20 -12,-38 -39,-38 -27,0 -39,18 -39,38l0 204 -167 0 0 -204c0,-20 -11,-38 -39,-38 -26,0 -39,18 -39,38l0 515c0,20 12,38 39,38 27,0 39,-18 39,-38l0 -237 167 0 0 237c0,20 11,38 39,38 26,0 39,-18 39,-38l0 -515zm278 193l-83 0 0 -193c0,-20 -11,-38 -39,-38 -27,0 -39,18 -39,38l0 506c0,20 11,38 38,38l122 0c104,0 152,-55 152,-147l0 -49c0,-90 -48,-155 -152,-155zm-83 74l83 0c57,0 76,31 76,81l0 49c0,49 -20,74 -76,74l-83 0 0 -204z"/>
   <path class="fil6 str1" d="M4242 6818c0,1283 0,3855 0,5139"/>
   <line class="fil6 str3" x1="6207" y1="13559" x2="8746" y2= "13559" />
   <g>
    <path class="fil4" d="M6139 13618l136 -132 4 3 4 3 3 3 3 4 3 4 3 4 2 4 2 4 2 4 2 4 1 4 1 4 1 4 1 4 1 4 0 4 0 4 0 4 0 4 -1 4 -1 4 -1 4 -1 4 -2 4 -2 4 -2 4 -2 4 -2 4 -3 4 -3 4 -3 4 -3 3 -4 3 -4 3 -4 3 -4 3 -4 3 -4 2 -4 2 -4 2 -5 2 -5 2 -5 1 -5 1 -5 1 -5 1 -5 1 -5 0 -5 0 -5 0 -5 0 -5 -1 -5 -1 -5 -1 -5 -1 -5 -1 -5 -2 -5 -2 -4 -2 -4 -2 -4 -2 -4 -3 -4 -3 -4 -3zm-1829 -1732l1965 1600 -136 132 -1965 -1600 136 -132zm0 0l-136 132 -4 -3 -4 -3 -3 -3 -3 -4 -3 -4 -3 -4 -2 -4 -2 -4 -2 -4 -2 -4 -1 -4 -1 -4 -1 -4 -1 -4 -1 -4 0 -4 0 -4 0 -4 0 -4 1 -4 1 -4 1 -4 1 -4 2 -4 2 -4 2 -4 2 -4 2 -4 3 -4 3 -4 3 -4 3 -3 4 -3 4 -3 4 -3 4 -3 4 -3 4 -2 4 -2 4 -2 5 -2 5 -2 5 -1 5 -1 5 -1 5 -1 5 -1 5 0 5 0 5 0 5 0 5 1 5 1 5 1 5 1 5 1 5 2 5 2 4 2 4 2 4 2 4 3 4 3 4 3z"/>
   </g>
   <path class="fil6 str1" d="M3946 7085c0,1283 0,3855 0,5139"/>
   <line class="fil6 str3" x1="5911" y1="13825" x2="8450" y2= "13825" />
   <g>
    <path class="fil4" d="M5843 13885l136 -132 4 3 4 3 3 3 3 4 3 4 3 4 2 4 2 4 2 4 2 4 1 4 1 4 1 4 1 4 1 4 0 4 0 4 0 4 0 4 -1 4 -1 4 -1 4 -1 4 -2 4 -2 4 -2 4 -2 4 -2 4 -3 4 -3 4 -3 4 -3 3 -4 3 -4 3 -4 3 -4 3 -4 3 -4 2 -4 2 -4 2 -5 2 -5 2 -5 1 -5 1 -5 1 -5 1 -5 1 -5 0 -5 0 -5 0 -5 0 -5 -1 -5 -1 -5 -1 -5 -1 -5 -1 -5 -2 -5 -2 -4 -2 -4 -2 -4 -2 -4 -3 -4 -3 -4 -3zm-1829 -1732l1965 1600 -136 132 -1965 -1600 136 -132zm0 0l-136 132 -4 -3 -4 -3 -3 -3 -3 -4 -3 -4 -3 -4 -2 -4 -2 -4 -2 -4 -2 -4 -1 -4 -1 -4 -1 -4 -1 -4 -1 -4 0 -4 0 -4 0 -4 0 -4 1 -4 1 -4 1 -4 1 -4 2 -4 2 -4 2 -4 2 -4 2 -4 3 -4 3 -4 3 -4 3 -3 4 -3 4 -3 4 -3 4 -3 4 -3 4 -2 4 -2 4 -2 5 -2 5 -2 5 -1 5 -1 5 -1 5 -1 5 -1 5 0 5 0 5 0 5 0 5 1 5 1 5 1 5 1 5 1 5 2 5 2 4 2 4 2 4 2 4 3 4 3 4 3z"/>
   </g>
   <path class="fil6 str7" d="M4368 5076c-201,-165 -330,-415 -330,-695 0,-280 128,-530 330,-695m1135 0c201,165 330,415 330,695 0,280 -128,530 -330,695"/>
   <path class="fil5" d="M11997 3621c-17,0 -25,10 -34,23l-167 272c3,-20 4,-34 4,-53 0,-30 0,-204 0,-204 0,-20 -9,-38 -34,-38 -25,0 -34,18 -34,38l0 368c0,20 9,38 33,38 20,0 25,-10 34,-22l167 -271c-3,21 -3,33 -3,52 0,30 0,204 0,204 0,20 9,38 33,38 26,0 35,-18 35,-38l0 -368c0,-20 -9,-38 -34,-38zm281 373c-55,0 -68,-34 -68,-87l0 -140c0,-48 11,-75 66,-75l11 0c34,0 57,16 57,40 0,21 11,38 37,38 26,0 37,-16 37,-38 0,-75 -50,-111 -130,-111l-11 0c-103,0 -140,55 -140,145l0 140c0,93 39,158 142,158l8 0c80,0 130,-35 130,-111 0,-21 -11,-38 -37,-38 -26,0 -37,16 -37,38 0,25 -23,40 -57,40l-8 0zm473 -364l-207 0c-26,0 -38,18 -38,38l0 359c0,21 11,38 37,38 26,0 37,-17 37,-38l0 -326 135 0 0 326c0,21 11,38 37,38 26,0 37,-17 37,-38l0 -359c0,-20 -11,-38 -38,-38zm281 365c-55,0 -65,-32 -65,-83l0 -137c0,-51 10,-83 65,-83l18 0c55,0 65,32 65,83l0 137c0,51 -10,83 -65,83l-18 0zm18 71c103,0 139,-63 139,-153l0 -137c0,-90 -36,-153 -139,-153l-18 0c-103,0 -139,63 -139,153l0 137c0,90 36,153 139,153l18 0zm281 -436c-26,0 -38,18 -38,38l0 556c0,21 11,38 37,38 26,0 37,-17 37,-38l0 -167 59 0c103,0 150,-65 150,-157l0 -125c0,-92 -45,-145 -148,-145l-98 0zm36 356l0 -286 62 0c55,0 74,25 74,75l0 125c0,53 -21,86 -76,86l-59 0zm537 -364c-28,0 -38,18 -38,38l0 176 -78 0c-34,0 -46,-13 -46,-38l0 -143c0,-20 -10,-38 -36,-38 -28,0 -38,18 -38,38l0 143c0,76 44,107 120,107l78 0 0 122c0,20 10,38 36,38 28,0 38,-18 38,-38l0 -368c0,-20 -10,-38 -36,-38zm429 145c0,-90 -32,-145 -135,-145l-11 0c-103,0 -143,55 -143,145l0 133c0,92 43,157 145,157l75 0c21,0 36,-11 36,-35 0,-25 -16,-35 -36,-35l-75 0c-55,0 -71,-34 -71,-86l0 -24 178 0c21,0 36,-11 36,-36l0 -73zm-214 40l0 -40c0,-48 14,-76 69,-76l11 0c55,0 61,28 61,76l0 40 -140 0zm573 -185c-28,0 -38,18 -38,38l0 137 -150 0 0 -137c0,-20 -10,-38 -36,-38 -28,0 -38,18 -38,38l0 368c0,20 10,38 36,38 28,0 38,-18 38,-38l0 -162 150 0 0 162c0,20 10,38 36,38 28,0 38,-18 38,-38l0 -368c0,-20 -10,-38 -36,-38zm413 0c-28,0 -38,18 -38,38l0 137 -150 0 0 -137c0,-20 -10,-38 -36,-38 -28,0 -38,18 -38,38l0 368c0,20 10,38 36,38 28,0 38,-18 38,-38l0 -162 150 0 0 162c0,20 10,38 36,38 28,0 38,-18 38,-38l0 -368c0,-20 -10,-38 -36,-38zm295 148l-71 0 0 -110c0,-20 -10,-38 -36,-38 -28,0 -38,18 -38,38l0 361c0,20 11,36 38,36l111 0c75,0 123,-40 123,-116l0 -56c0,-75 -67,-116 -127,-116zm53 168c0,25 -15,50 -48,50l-75 0 0 -148 66 0c34,0 57,30 57,57l0 41zm177 -316c-28,0 -38,18 -38,38l0 368c0,20 10,38 36,38 28,0 38,-18 38,-38l0 -368c0,-20 -10,-38 -36,-38zm415 0c-17,0 -25,10 -34,23l-167 272c3,-20 4,-34 4,-53 0,-30 0,-204 0,-204 0,-20 -9,-38 -34,-38 -25,0 -34,18 -34,38l0 368c0,20 9,38 33,38 20,0 25,-10 34,-22l167 -271c-3,21 -3,33 -3,52 0,30 0,204 0,204 0,20 9,38 33,38 26,0 35,-18 35,-38l0 -368c0,-20 -9,-38 -34,-38zm-116 -32c71,0 106,-53 106,-110 0,-17 -12,-29 -30,-29 -17,0 -28,11 -30,30 -2,30 -18,53 -47,53 -29,0 -44,-22 -47,-53 -2,-18 -12,-30 -30,-30 -17,0 -30,11 -30,29 0,57 35,110 106,110l0 0z"/>
   <path class="fil5" d="M12107 4677c-17,0 -25,10 -34,23l-167 272c3,-20 4,-34 4,-53 0,-30 0,-204 0,-204 0,-20 -9,-38 -34,-38 -25,0 -34,18 -34,38l0 368c0,20 9,38 33,38 20,0 25,-10 34,-22l167 -271c-3,21 -3,33 -3,52 0,30 0,204 0,204 0,20 9,38 33,38 26,0 35,-18 35,-38l0 -368c0,-20 -9,-38 -34,-38zm330 207c17,-5 64,-25 64,-89 0,-84 -43,-118 -134,-118 -91,0 -126,22 -126,98 0,21 13,38 39,38 25,0 33,-16 33,-36 0,-23 23,-30 56,-30 35,0 62,11 62,60 0,34 -34,48 -69,48 -25,0 -30,17 -30,32 0,16 6,33 32,33 54,0 72,25 72,72 0,36 -26,57 -66,57l-9 0c-31,0 -58,-8 -58,-30 0,-20 -11,-35 -37,-35 -26,0 -37,16 -37,38 0,71 50,98 130,98l11 0c105,0 139,-60 139,-129 0,-79 -45,-100 -74,-108zm322 -167l-14 0c-25,0 -50,11 -69,30l0 -23c0,-53 18,-75 76,-81 78,-8 110,-38 110,-105 0,-21 -10,-40 -35,-40 -24,0 -34,19 -35,39 -2,22 -8,31 -39,36 -108,10 -150,70 -150,161l0 236c0,90 36,153 139,153l18 0c103,0 139,-63 139,-153l0 -98c0,-90 -36,-153 -139,-153zm65 251c0,51 -10,83 -65,83l-18 0c-55,0 -65,-32 -65,-83l0 -114c0,-43 21,-66 59,-66l24 0c55,0 65,32 65,83l0 98zm443 -290c-17,0 -25,10 -34,23l-167 272c3,-20 4,-34 4,-53 0,-30 0,-204 0,-204 0,-20 -9,-38 -34,-38 -25,0 -34,18 -34,38l0 368c0,20 9,38 33,38 20,0 25,-10 34,-22l167 -271c-3,21 -3,33 -3,52 0,30 0,204 0,204 0,20 9,38 33,38 26,0 35,-18 35,-38l0 -368c0,-20 -9,-38 -34,-38zm186 8c-26,0 -38,18 -38,38l0 556c0,21 11,38 37,38 26,0 37,-17 37,-38l0 -167 59 0c103,0 150,-65 150,-157l0 -125c0,-92 -45,-145 -148,-145l-98 0zm36 356l0 -286 62 0c55,0 74,25 74,75l0 125c0,53 -21,86 -76,86l-59 0zm377 -356c-21,0 -37,11 -37,35 0,25 16,35 37,35l69 0c34,0 53,11 53,53l0 19 -78 0c-75,0 -120,31 -120,107l0 71c0,75 44,107 120,107l114 0c26,0 38,-16 38,-36l0 -268c0,-75 -46,-122 -127,-122l-69 0zm44 358c-34,0 -46,-13 -46,-38l0 -70c0,-26 12,-39 46,-39l78 0 0 147 -78 0zm479 -358l-218 0c-19,0 -36,10 -36,36 0,25 17,34 36,34l72 0 0 327c0,20 10,38 36,38 28,0 38,-18 38,-38l0 -327 72 0c19,0 36,-9 36,-34 0,-26 -17,-36 -36,-36zm392 137c0,-90 -32,-145 -135,-145l-11 0c-103,0 -143,55 -143,145l0 133c0,92 43,157 145,157l75 0c21,0 36,-11 36,-35 0,-25 -16,-35 -36,-35l-75 0c-55,0 -71,-34 -71,-86l0 -24 178 0c21,0 36,-11 36,-36l0 -73zm-214 40l0 -40c0,-48 14,-76 69,-76l11 0c55,0 61,28 61,76l0 40 -140 0zm560 -177l-166 0c-28,0 -38,18 -38,38 0,0 -16,225 -21,280 -2,25 -16,48 -41,48 -17,0 -33,13 -33,35 0,23 16,35 36,35 60,0 100,-34 106,-104 5,-59 16,-198 21,-262l98 0 0 326c0,21 11,38 37,38 26,0 37,-17 37,-38l0 -359c0,-20 -11,-38 -38,-38zm431 137c0,-90 -32,-145 -135,-145l-11 0c-103,0 -143,55 -143,145l0 133c0,92 43,157 145,157l75 0c21,0 36,-11 36,-35 0,-25 -16,-35 -36,-35l-75 0c-55,0 -71,-34 -71,-86l0 -24 178 0c21,0 36,-11 36,-36l0 -73zm-214 40l0 -40c0,-48 14,-76 69,-76l11 0c55,0 61,28 61,76l0 40 -140 0zm611 -185c-21,0 -28,11 -36,26 0,0 -67,140 -77,161 -4,10 -12,31 -20,52 -7,-21 -15,-42 -20,-52 -9,-21 -76,-161 -76,-161 -8,-16 -15,-26 -36,-26 -28,0 -35,18 -35,38l0 368c0,20 7,38 34,38 28,0 35,-18 35,-38 0,0 0,-141 0,-172 0,-22 -2,-45 -6,-70l75 156c7,14 12,21 30,21 18,0 24,-7 30,-21l75 -156c-3,25 -6,48 -6,70 0,30 0,172 0,172 0,20 7,38 35,38 26,0 34,-18 34,-38l0 -368c0,-20 -7,-38 -35,-38z"/>
   <path class="fil4 str6" d="M10850 9175c0,-28 -13,-49 -47,-49 -35,0 -49,21 -49,49l0 195 -184 0c-28,0 -49,13 -49,48 0,35 21,48 49,48l184 0 0 196c0,28 13,49 48,49 35,0 48,-21 48,-49l0 -196 185 0c28,0 49,-13 49,-48 0,-35 -21,-48 -49,-48l-185 0 0 -195z"/>
   <path class="fil8 str8" d="M7288 16654c0,15 8,28 28,28 21,0 29,-13 29,-28l0 -384c0,-15 -9,-28 -29,-28 -12,0 -20,4 -29,21l-163 291 -1 0c1,-11 2,-26 2,-42l0 -242c0,-15 -8,-28 -28,-28 -21,0 -29,13 -29,28l0 384c0,15 9,28 29,28 12,0 20,-4 29,-21l163 -291 1 0c-1,11 -2,26 -2,42l0 242zm255 28c20,0 29,-13 29,-28l0 -351 89 0c14,0 27,-8 27,-28 0,-18 -13,-28 -27,-28l-236 0c-14,0 -27,9 -27,28 0,20 13,28 27,28l89 0 0 351c0,15 9,28 29,28zm250 -318c0,-38 17,-67 59,-67l49 0c42,0 59,29 59,67l0 196c0,38 -17,67 -59,67l-49 0c-42,0 -59,-29 -59,-67l0 -196zm224 0c0,-67 -39,-122 -116,-122l-49 0c-78,0 -116,55 -116,122l0 196c0,67 39,122 116,122l49 0c78,0 116,-55 116,-122l0 -196zm119 -116c-23,0 -32,13 -32,28l0 378c0,15 9,28 29,28 20,0 29,-13 29,-28l0 -351 164 0c14,0 27,-8 27,-28 0,-18 -13,-28 -24,-28l-193 0zm323 116c0,-38 17,-67 59,-67l49 0c42,0 59,29 59,67l0 196c0,38 -17,67 -59,67l-49 0c-42,0 -59,-29 -59,-67l0 -196zm224 0c0,-67 -39,-122 -116,-122l-49 0c-78,0 -116,55 -116,122l0 196c0,67 39,122 116,122l49 0c78,0 116,-55 116,-122l0 -196zm304 53c0,-18 -9,-33 -33,-33 -24,0 -33,15 -33,33l0 6c0,18 9,33 33,33 24,0 33,-15 33,-33l0 -6zm0 227c0,-18 -9,-33 -33,-33 -24,0 -33,15 -33,33l0 6c0,18 9,33 33,33 24,0 33,-15 33,-33l0 -6zm2372 -291c-20,0 -28,13 -28,28l0 244 -93 0 0 -244c0,-15 -7,-28 -28,-28 -20,0 -28,13 -28,28l0 244 -93 0 0 -244c0,-15 -7,-28 -28,-28 -20,0 -28,13 -28,28l0 268c0,15 8,28 28,28l296 0c20,0 28,-13 28,-28l0 -268c0,-15 -7,-28 -28,-28zm318 6l-203 0c-14,0 -27,6 -27,26 0,19 13,27 27,27l74 0 0 244c0,15 7,28 28,28 20,0 28,-13 28,-28l0 -244 73 0c14,0 27,-8 27,-27 0,-20 -13,-26 -27,-26z"/>
   <path class="fil4 str6" d="M9697 16460c0,-93 -38,-164 -121,-190 52,-30 83,-79 83,-152l0 -15c0,-128 -73,-200 -218,-200l-59 0c-115,0 -186,49 -186,167 0,29 15,52 52,52 38,0 52,-23 52,-52 0,-47 32,-67 81,-67l59 0c79,0 113,30 113,99l0 15c0,70 -41,121 -122,121l-64 0c-28,0 -50,13 -50,49 0,36 22,49 50,49l114 0c79,0 109,51 109,123l0 37c0,70 -33,110 -113,110l-119 0c-49,0 -81,-20 -81,-67 0,-29 -15,-52 -52,-52 -38,0 -52,23 -52,52 0,118 71,167 186,167l119 0c145,0 218,-83 218,-211l0 -37zm223 48c0,-51 19,-92 56,-108l205 -93c100,-45 123,-123 123,-199l0 -4c0,-128 -73,-200 -218,-200l-68 0c-115,0 -186,49 -186,167 0,29 15,52 52,52 38,0 52,-23 52,-52 0,-47 32,-67 81,-67l68 0c79,0 113,30 113,99l0 4c0,52 -17,85 -61,105l-191 85c-89,38 -132,123 -132,220l0 179 449 0c28,0 50,-15 50,-50 0,-36 -22,-50 -50,-50l-344 0 0 -88zm658 147c0,29 15,52 52,52 38,0 52,-23 52,-52l0 -95c0,-157 31,-254 109,-381l116 -186c28,-45 9,-78 -42,-78l-416 0c-28,0 -50,15 -50,50 0,36 22,50 50,50l328 0 -71 109c-100,153 -128,256 -128,435l0 95z"/>
   <g>
    <path class="fil4" d="M6679 14216l-154 0 0 -4 0 -4 0 -4 1 -4 1 -4 1 -4 1 -4 1 -3 2 -3 2 -3 2 -3 2 -3 2 -3 2 -3 2 -3 3 -3 3 -3 3 -2 3 -2 3 -2 3 -2 3 -2 3 -2 3 -2 4 -1 4 -1 4 -1 4 -1 4 -1 4 0 4 0 4 0 4 0 4 0 4 0 4 1 4 1 4 1 4 1 4 1 3 2 3 2 3 2 3 2 3 2 3 2 3 2 3 3 3 3 2 3 2 3 2 3 2 3 2 3 2 3 2 3 1 3 1 4 1 4 1 4 1 4 0 4 0 4 0 4zm-154 423l0 -423 154 0 0 423 -77 76 -77 -76zm0 0l154 0 0 4 0 4 0 4 -1 4 -1 4 -1 4 -1 4 -1 3 -2 3 -2 3 -2 3 -2 3 -2 3 -2 3 -2 3 -3 3 -3 3 -3 2 -3 2 -3 2 -3 2 -3 2 -3 2 -3 2 -4 1 -4 1 -4 1 -4 1 -4 1 -4 0 -4 0 -4 0 -4 0 -4 0 -4 0 -4 -1 -4 -1 -4 -1 -4 -1 -4 -1 -3 -2 -3 -2 -3 -2 -3 -2 -3 -2 -3 -2 -3 -2 -3 -3 -3 -3 -2 -3 -2 -3 -2 -3 -2 -3 -2 -3 -2 -3 -2 -3 -1 -3 -1 -4 -1 -4 -1 -4 -1 -4 0 -4 0 -4 0 -4zm3354 76l-3277 0 0 -151 3277 0 0 0 0 151zm0 0l0 -151 4 0 4 0 4 0 4 1 4 1 4 1 4 1 4 1 3 2 3 2 3 2 3 2 3 2 3 2 3 2 3 3 3 3 2 3 2 3 2 3 2 3 2 3 2 3 2 3 1 3 1 4 1 4 1 4 1 4 0 4 0 4 0 4 0 4 0 4 0 4 -1 4 -1 4 -1 4 -1 4 -1 3 -2 3 -2 3 -2 3 -2 3 -2 3 -2 3 -2 3 -3 3 -3 3 -3 2 -3 2 -3 2 -3 2 -3 2 -3 2 -3 2 -4 1 -4 1 -4 1 -4 1 -4 1 -4 0 -4 0 -4 0zm4028 0l-4028 0 0 -151 4028 0 77 76 -77 76zm0 0l0 -151 4 0 4 0 4 0 4 1 4 1 4 1 4 1 4 1 3 2 3 2 3 2 3 2 3 2 3 2 3 2 3 3 3 3 2 3 2 3 2 3 2 3 2 3 2 3 2 3 1 3 1 4 1 4 1 4 1 4 0 4 0 4 0 4 0 4 0 4 0 4 -1 4 -1 4 -1 4 -1 4 -1 3 -2 3 -2 3 -2 3 -2 3 -2 3 -2 3 -2 3 -3 3 -3 3 -3 2 -3 2 -3 2 -3 2 -3 2 -3 2 -3 2 -4 1 -4 1 -4 1 -4 1 -4 1 -4 0 -4 0 -4 0zm77 -499l0 423 -154 0 0 -423 154 0zm0 0l-154 0 0 -4 0 -4 0 -4 1 -4 1 -4 1 -4 1 -4 1 -3 2 -3 2 -3 2 -3 2 -3 2 -3 2 -3 2 -3 3 -3 3 -3 3 -2 3 -2 3 -2 3 -2 3 -2 3 -2 3 -2 4 -1 4 -1 4 -1 4 -1 4 -1 4 0 4 0 4 0 4 0 4 0 4 0 4 1 4 1 4 1 4 1 4 1 3 2 3 2 3 2 3 2 3 2 3 2 3 2 3 3 3 3 2 3 2 3 2 3 2 3 2 3 2 3 2 3 1 3 1 4 1 4 1 4 1 4 0 4 0 4 0 4z"/>
   </g>
   <g>
    <path class="fil4" d="M10139 14639l-164 0 0 -4 0 -4 1 -4 1 -4 1 -4 1 -4 1 -4 1 -3 2 -3 2 -3 2 -3 2 -3 2 -3 2 -3 3 -3 3 -3 3 -3 3 -2 3 -2 3 -2 3 -2 3 -2 4 -2 4 -2 4 -1 4 -1 4 -1 4 -1 4 -1 4 0 4 0 4 0 4 0 4 0 4 0 4 1 4 1 4 1 4 1 4 1 4 2 4 2 3 2 3 2 3 2 3 2 3 2 3 3 3 3 3 3 2 3 2 3 2 3 2 3 2 3 2 3 1 3 1 4 1 4 1 4 1 4 1 4 0 4 0 4zm-164 821l0 -821 164 0 0 821 -164 0zm0 0l164 0 0 4 0 4 -1 4 -1 4 -1 4 -1 4 -1 4 -1 3 -2 3 -2 3 -2 3 -2 3 -2 3 -2 3 -3 3 -3 3 -3 3 -3 2 -3 2 -3 2 -3 2 -3 2 -4 2 -4 2 -4 1 -4 1 -4 1 -4 1 -4 1 -4 0 -4 0 -4 0 -4 0 -4 0 -4 0 -4 -1 -4 -1 -4 -1 -4 -1 -4 -1 -4 -2 -4 -2 -3 -2 -3 -2 -3 -2 -3 -2 -3 -2 -3 -3 -3 -3 -3 -3 -2 -3 -2 -3 -2 -3 -2 -3 -2 -3 -2 -3 -1 -3 -1 -4 -1 -4 -1 -4 -1 -4 -1 -4 0 -4 0 -4z"/>
   </g>
   <path class="fil4" d="M10108 15585l-102 0 -312 -481 102 -66 312 481 -102 0 102 66zm0 0l-51 79 -51 -79 102 0zm261 -514l51 33 -312 481 -102 -66 312 -481 51 33zm-251 387l0 3 0 3 0 3 -1 3 -1 3 -1 3 -1 3 -1 3 -1 3 -1 2 -1 2 -2 2 -2 2 -2 2 -2 2 -2 2 -2 2 -2 2 -2 2 -2 2 -2 1 -3 1 -3 1 -3 1 -3 1 -3 1 -3 1 -3 1 -3 1 -3 0 -3 0 -3 0 -3 0 -3 0 -3 0 -3 -1 -3 -1 -3 -1 -3 -1 -3 -1 -3 -1 -3 -1 -3 -1 -2 -1 -2 -2 -2 -2 -2 -2 -2 -2 -2 -2 -2 -2 -2 -2 -2 -2 -2 -2 -1 -2 -1 -2 -1 -3 -1 -3 -1 -3 -1 -3 -1 -3 -1 -3 0 -3 0 -3 0 -3 122 0zm-122 -711l122 0 0 711 -122 0 0 -711zm0 0l0 -3 0 -3 0 -3 1 -3 1 -3 1 -3 1 -3 1 -3 1 -3 1 -2 1 -2 2 -2 2 -2 2 -2 2 -2 2 -2 2 -2 2 -2 2 -2 2 -2 2 -1 3 -1 3 -1 3 -1 3 -1 3 -1 3 -1 3 -1 3 -1 3 0 3 0 3 0 3 0 3 0 3 0 3 1 3 1 3 1 3 1 3 1 3 1 3 1 3 1 2 1 2 2 2 2 2 2 2 2 2 2 2 2 2 2 2 2 2 2 1 2 1 2 1 3 1 3 1 3 1 3 1 3 1 3 0 3 0 3 0 3 -122 0z"/>
   <path class="fil5" d="M4394 4176c-15,14 -21,31 -1,51 18,18 36,12 51,0 24,-21 48,-47 68,-71l0 400 -86 0c-21,0 -37,11 -37,37 0,26 16,37 37,37l233 0c21,0 37,-11 37,-37 0,-26 -16,-37 -37,-37l-70 0 0 -470c0,-21 -7,-39 -35,-39l-14 0c-13,0 -22,6 -30,13 -35,39 -75,78 -117,117zm432 -121c-21,0 -37,11 -37,37l0 221c0,26 16,37 37,37l110 0c58,0 79,25 79,77l0 60c0,52 -21,77 -79,77l-28 0c-36,0 -60,-15 -60,-49 0,-21 -11,-39 -39,-39 -28,0 -39,17 -39,39 0,87 53,123 137,123l28 0c107,0 156,-57 156,-151l0 -60c0,-94 -49,-151 -156,-151l-70 0 0 -147 162 0c21,0 37,-11 37,-37 0,-26 -16,-37 -37,-37l-203 0zm418 194c0,-82 22,-128 87,-128l4 0c65,0 86,46 86,128l0 187c0,82 -21,128 -86,128l-4 0c-65,0 -87,-46 -87,-128l0 -187zm254 0c0,-126 -50,-202 -163,-202l-4 0c-113,0 -164,76 -164,202l0 187c0,126 51,202 164,202l4 0c113,0 163,-76 163,-202l0 -187z"/>
   <path class="fil5" d="M6218 4188c0,-21 -10,-36 -34,-36 -25,0 -36,16 -36,36l0 119 -111 0c-21,0 -36,10 -36,35 0,25 16,35 36,35l111 0 0 120c0,21 10,36 35,36 25,0 35,-16 35,-36l0 -120 112 0c21,0 36,-10 36,-35 0,-25 -16,-35 -36,-35l-112 0 0 -119z"/>
   <path class="fil5" d="M6875 4176c-15,14 -21,31 -1,51 18,18 36,12 51,0 24,-21 48,-47 68,-71l0 400 -86 0c-21,0 -37,11 -37,37 0,26 16,37 37,37l233 0c21,0 37,-11 37,-37 0,-26 -16,-37 -37,-37l-70 0 0 -470c0,-21 -7,-39 -35,-39l-14 0c-13,0 -22,6 -30,13 -35,39 -75,78 -117,117zm469 423c0,21 11,39 39,39 28,0 39,-17 39,-39l0 -70c0,-116 7,-190 56,-272l85 -145c21,-33 7,-57 -31,-57l-257 0c-21,0 -37,11 -37,37 0,26 16,37 37,37l192 0 -53 89c-62,103 -70,180 -70,312l0 70zm487 -549c-130,78 -172,182 -172,311l0 121c0,94 49,155 156,155l7 0c107,0 156,-53 156,-147l0 -49c0,-94 -49,-155 -156,-155l-80 0c11,-67 49,-121 131,-172 17,-11 30,-31 15,-55 -15,-23 -39,-21 -57,-10zm-16 514c-58,0 -79,-30 -79,-81l0 -122 85 0c58,0 79,29 79,81l0 49c0,52 -21,73 -79,73l-7 0z"/>
   <path class="fil5" d="M8971 4195c-25,0 -35,17 -35,38l0 326 -102 0 0 -326c0,-21 -10,-38 -35,-38 -25,0 -36,17 -36,38l0 326 -100 0 0 -326c0,-21 -11,-38 -36,-38 -25,0 -35,17 -35,38l0 359c0,20 11,38 36,38l343 0c25,0 37,-18 37,-38l0 -359c0,-21 -11,-38 -36,-38zm368 7l-218 0c-19,0 -36,10 -36,36 0,25 17,34 36,34l72 0 0 327c0,20 10,38 36,38 28,0 38,-18 38,-38l0 -327 72 0c19,0 36,-9 36,-34 0,-26 -17,-36 -36,-36z"/>
   <path class="fil6 str7" d="M6848 5076c-201,-165 -330,-415 -330,-695 0,-280 128,-530 330,-695m1135 0c201,165 330,415 330,695 0,280 -128,530 -330,695"/>
  </g>
 </g>
</svg>
