<?xml version="1.0" encoding="UTF-8"?>
<!DOCTYPE svg PUBLIC "-//W3C//DTD SVG 1.0//EN" "http://www.w3.org/TR/2001/REC-SVG-20010904/DTD/svg10.dtd">
<!-- Creator: CorelDRAW X7 -->
<svg xmlns="http://www.w3.org/2000/svg" xml:space="preserve" width="115.711mm" height="70.5556mm" version="1.0" style="shape-rendering:geometricPrecision; text-rendering:geometricPrecision; image-rendering:optimizeQuality; fill-rule:evenodd; clip-rule:evenodd"
viewBox="0 0 11571 7056"
 xmlns:xlink="http://www.w3.org/1999/xlink">
 <defs>
  <style type="text/css">
   <![CDATA[
    .str1 {stroke:#024541;stroke-width:12.73}
    .str2 {stroke:#024541;stroke-width:16.29}
    .str3 {stroke:#CC7588;stroke-width:11.21}
    .str4 {stroke:#CC7588;stroke-width:9.71}
    .str0 {stroke:#024541;stroke-width:89.43;stroke-linecap:round;stroke-linejoin:round}
    .fil6 {fill:none;fill-rule:nonzero}
    .fil1 {fill:#EBF2D9}
    .fil2 {fill:#CDDBAC}
    .fil5 {fill:#CC7588;fill-rule:nonzero}
    .fil4 {fill:#4D897C;fill-rule:nonzero}
    .fil3 {fill:#024541;fill-rule:nonzero}
    .fil0 {fill:url(#id0)}
   ]]>
  </style>
    <radialGradient id="id0" gradientUnits="userSpaceOnUse" cx="6103.05" cy="3845.28" r="5785.57" fx="6103.05" fy="3845.28">
   <stop offset="0" style="stop-color:#FEFEFE"/>
   <stop offset="0.45098" style="stop-color:#FEFEFE"/>
   <stop offset="1" style="stop-color:#D2E2F2"/>
  </radialGradient>

 </defs>
 <g id="Layer_x0020_1">
  <metadata id="CorelCorpID_0Corel-Layer"/>
  <g id="_148357121888">
   <path class="fil0" d="M0 3l11572 0 0 7055 -11572 0 0 -7055z"/>
   <path class="fil1 str0" d="M7552 930l0 4937c-1232,0 -2058,0 -3291,0l0 -4937 3291 0z"/>
   <path class="fil2" d="M4261 930l3291 0 0 1879 -3291 -1564c6,-162 0,-207 0,-315z"/>
   <path class="fil3 str1" d="M4553 3487l29 0 0 60c0,6 3,11 11,11 7,0 11,-5 11,-11l0 -144c0,-6 -4,-11 -11,-11 -8,0 -11,5 -11,11l0 63c0,0 -23,0 -33,0 -13,0 -20,-9 -20,-19 0,-10 0,-44 0,-44 0,-6 -3,-11 -11,-11 -7,0 -11,5 -11,11l0 41c0,25 11,43 46,43zm168 60c0,6 3,11 11,11 7,0 10,-5 10,-11l0 -144c0,-6 -3,-11 -11,-11 -4,0 -7,2 -11,8l-61 109 0 0c0,-4 1,-9 1,-16l0 -90c0,-6 -3,-11 -11,-11 -7,0 -10,5 -10,11l0 144c0,6 3,11 11,11 4,0 7,-2 10,-8l62 -110 0 0c0,4 -1,10 -1,16l0 91zm98 -10c-16,0 -22,-11 -22,-25l0 -74c0,-14 6,-25 22,-25l23 0c10,0 15,4 16,13 1,6 3,11 11,11 8,0 11,-5 11,-11 0,-24 -14,-34 -38,-34l-23 0c-30,0 -44,21 -44,46l0 74c0,25 14,46 44,46l23 0c24,0 38,-11 38,-35 0,-5 -3,-10 -11,-10 -8,0 -10,5 -11,10 -1,10 -6,14 -16,14l-23 0zm120 -11c2,-13 14,-111 14,-111l40 0 0 132c0,6 3,11 11,11 7,0 11,-5 11,-11l0 -142c0,-6 -4,-11 -11,-11l-60 0c-7,0 -10,5 -11,11 -1,7 -13,107 -14,116 -1,5 -2,9 -3,11 -2,4 -6,6 -13,6 -5,0 -10,3 -10,10 0,8 5,11 10,11 20,0 28,-7 33,-18 2,-5 3,-9 3,-15zm130 -88c0,-14 6,-25 22,-25l18 0c16,0 23,11 23,25l0 74c0,14 -7,25 -23,25l-18 0c-16,0 -22,-11 -22,-25l0 -74zm84 0c0,-25 -14,-46 -44,-46l-18 0c-29,0 -44,21 -44,46l0 74c0,25 15,46 44,46l18 0c30,0 44,-21 44,-46l0 -74zm172 -23l0 132c0,6 3,11 11,11 7,0 11,-5 11,-11l0 -142c0,-6 -4,-11 -11,-11l-78 0c-7,0 -11,5 -11,11l0 142c0,6 4,11 11,11 8,0 11,-5 11,-11l0 -132 56 0zm76 23c0,-14 6,-25 22,-25l18 0c16,0 22,11 22,25l0 74c0,14 -6,25 -22,25l-18 0c-16,0 -22,-11 -22,-25l0 -74zm84 0c0,-25 -14,-46 -44,-46l-18 0c-29,0 -44,21 -44,46l0 74c0,25 15,46 44,46l18 0c30,0 44,-21 44,-46l0 -74zm45 -44c-9,0 -12,5 -12,11l0 142c0,6 3,11 11,11 7,0 10,-5 10,-11l0 -132 62 0c5,0 10,-3 10,-10 0,-7 -5,-11 -9,-11l-72 0zm170 116l13 40c2,6 7,9 14,7 6,-2 8,-8 6,-13l-46 -144c-2,-5 -5,-8 -11,-8l-1 0c-7,0 -9,3 -11,8l-46 144c-2,5 0,11 6,13 6,2 12,-1 14,-7l12 -40 50 0zm-28 -69c1,-6 2,-8 3,-14l1 0c1,6 1,8 3,14l16 50 -39 0 16 -50zm212 -49c-7,0 -11,5 -11,11l0 132 -38 0 0 -132c0,-6 -4,-11 -11,-11 -6,0 -10,5 -10,11l0 132 -38 0 0 -132c0,-6 -3,-11 -11,-11 -7,0 -11,5 -11,11l0 142c0,5 4,10 11,10l119 0c8,0 11,-5 11,-10l0 -142c0,-6 -3,-11 -11,-11zm131 163c5,0 10,-3 10,-10 0,-7 -5,-10 -10,-10l-63 0 0 -52 52 0c5,0 10,-3 10,-10 0,-7 -5,-11 -10,-11l-52 0 0 -47 63 0c5,0 10,-3 10,-10 0,-7 -5,-11 -10,-11l-74 0c-8,0 -11,5 -11,11l0 140c0,5 3,10 11,10l74 0zm139 -152c0,-6 -3,-11 -11,-11 -7,0 -10,5 -10,11l0 57 -61 0 0 -57c0,-6 -3,-11 -11,-11 -7,0 -11,5 -11,11l0 144c0,6 4,11 11,11 8,0 11,-5 11,-11l0 -66 61 0 0 66c0,6 3,11 10,11 8,0 11,-5 11,-11l0 -144zm139 0c0,-6 -4,-11 -11,-11 -7,0 -11,5 -11,11l0 57 -60 0 0 -57c0,-6 -3,-11 -11,-11 -7,0 -11,5 -11,11l0 144c0,6 4,11 11,11 8,0 11,-5 11,-11l0 -66 60 0 0 66c0,6 3,11 11,11 7,0 11,-5 11,-11l0 -144zm170 144l0 -144c0,-6 -3,-11 -10,-11 -8,0 -11,5 -11,11l0 144c0,6 3,11 11,11 7,0 10,-5 10,-11zm-85 -90l-28 0 0 -54c0,-6 -4,-11 -11,-11 -8,0 -11,5 -11,11l0 142c0,5 3,10 11,10l39 0c30,0 44,-19 44,-44l0 -11c0,-25 -14,-43 -44,-43zm23 56c0,14 -7,22 -23,22l-28 0 0 -58 28 0c16,0 23,8 23,22l0 14 0 0zm141 -62l-29 -53c-3,-5 -8,-8 -15,-4 -6,3 -7,9 -4,13l36 64 -40 71c-3,4 -2,11 4,14 6,3 11,1 14,-5l34 -60 33 60c3,6 8,8 15,5 6,-3 6,-10 4,-14l-40 -71 36 -64c2,-4 2,-10 -4,-13 -7,-4 -12,-1 -15,4l-29 53z"/>
   <path class="fil3 str1" d="M5337 3754l-33 0 0 -43 58 0c6,0 11,-3 11,-10 0,-7 -5,-11 -11,-11l-69 0c-8,0 -11,5 -11,11l0 140c0,5 3,10 11,10l44 0c30,0 44,-19 44,-44l0 -11c0,-25 -14,-42 -44,-42zm23 55c0,14 -6,22 -22,22l-34 0 0 -58 33 0c16,0 23,8 23,22l0 14zm135 -121c-31,0 -45,26 -45,51l0 17 -21 0 0 -57c0,-6 -2,-11 -10,-11 -7,0 -10,5 -10,11l0 144c0,6 3,11 10,11 8,0 10,-5 10,-11l0 -66 21 0 0 30c0,25 14,47 43,47l12 0c29,0 44,-21 44,-46l0 -74c0,-25 -15,-46 -44,-46l-10 0zm32 120c0,14 -6,25 -22,25l-11 0c-16,0 -22,-11 -22,-25l0 -67c0,-14 6,-32 23,-32l10 0c16,0 22,11 22,24l0 75zm87 14c1,-13 13,-111 13,-111l40 0 0 132c0,6 4,11 12,11 7,0 10,-5 10,-11l0 -142c0,-6 -3,-11 -10,-11l-61 0c-6,0 -10,5 -11,11 0,7 -13,107 -14,116 0,5 -1,9 -3,11 -2,4 -6,6 -12,6 -6,0 -11,3 -11,10 0,8 5,11 11,11 20,0 28,-7 32,-18 2,-5 3,-9 4,-15zm142 0c2,-13 14,-111 14,-111l40 0 0 132c0,6 3,11 11,11 8,0 11,-5 11,-11l0 -142c0,-6 -3,-11 -11,-11l-60 0c-7,0 -10,5 -11,11 -1,7 -13,107 -14,116 -1,5 -2,9 -3,11 -2,4 -6,6 -13,6 -5,0 -10,3 -10,10 0,8 5,11 10,11 20,0 28,-7 33,-18 2,-5 3,-9 3,-15zm195 29c6,0 10,-3 10,-10 0,-7 -4,-10 -10,-10l-63 0 0 -52 52 0c6,0 10,-3 10,-10 0,-7 -4,-11 -10,-11l-52 0 0 -47 63 0c6,0 10,-3 10,-10 0,-7 -4,-11 -10,-11l-74 0c-7,0 -10,5 -10,11l0 140c0,5 3,10 10,10l74 0zm76 3c8,0 11,-5 11,-11l0 -132 33 0c6,0 11,-3 11,-10 0,-7 -5,-11 -11,-11l-88 0c-6,0 -10,4 -10,11 0,7 4,10 10,10l33 0 0 132c0,6 3,11 11,11zm159 -3c6,0 11,-3 11,-10 0,-7 -5,-10 -11,-10l-63 0 0 -52 52 0c6,0 11,-3 11,-10 0,-7 -5,-11 -11,-11l-52 0 0 -47 63 0c6,0 11,-3 11,-10 0,-7 -5,-11 -11,-11l-74 0c-7,0 -10,5 -10,11l0 140c0,5 3,10 10,10l74 0zm140 -152c0,-6 -3,-11 -11,-11 -7,0 -11,5 -11,11l0 57 -60 0 0 -57c0,-6 -3,-11 -11,-11 -7,0 -11,5 -11,11l0 144c0,6 4,11 11,11 8,0 11,-5 11,-11l0 -66 60 0 0 66c0,6 3,11 11,11 8,0 11,-5 11,-11l0 -144zm120 152c5,0 10,-3 10,-10 0,-7 -5,-10 -10,-10l-63 0 0 -52 52 0c5,0 10,-3 10,-10 0,-7 -5,-11 -10,-11l-52 0 0 -47 63 0c5,0 10,-3 10,-10 0,-7 -5,-11 -10,-11l-74 0c-8,0 -11,5 -11,11l0 140c0,5 3,10 11,10l74 0zm88 -175c21,0 32,-15 32,-31 0,-5 -4,-8 -9,-8 -4,0 -8,3 -8,8 -1,9 -6,15 -15,15 -9,0 -14,-6 -15,-15 0,-5 -4,-8 -8,-8 -5,0 -9,3 -9,8 0,16 11,31 32,31zm30 167c0,6 3,11 10,11 8,0 11,-5 11,-11l0 -144c0,-6 -3,-11 -11,-11 -4,0 -7,2 -11,8l-61 109 0 0c0,-4 1,-9 1,-16l0 -90c0,-6 -3,-11 -11,-11 -7,0 -10,5 -10,11l0 144c0,6 3,11 11,11 4,0 7,-2 10,-8l62 -110 0 0c0,4 -1,10 -1,16l0 91z"/>
   <path class="fil3 str2" d="M4876 1631l0 302c0,12 6,24 23,24 17,0 24,-12 24,-24l0 -325c0,-13 -7,-25 -24,-25l-170 0c-16,0 -24,12 -24,25l0 325c0,12 8,24 24,24 17,0 24,-12 24,-24l0 -302 123 0zm172 130l0 -131 78 0c35,0 50,19 50,50l0 27c0,32 -15,54 -50,54l-78 0zm78 48c66,0 98,-45 98,-102l0 -27c0,-59 -32,-97 -98,-97l-103 0c-16,0 -23,12 -23,25l0 325c0,12 7,24 24,24 16,0 24,-12 24,-24l0 -124 78 0zm200 -126c0,-32 13,-57 48,-57l41 0c35,0 48,25 48,57l0 169c0,32 -13,58 -48,58l-41 0c-35,0 -48,-26 -48,-58l0 -169zm185 0c0,-57 -32,-105 -96,-105l-41 0c-64,0 -96,48 -96,105l0 169c0,58 32,105 96,105l41 0c64,0 96,-47 96,-105l0 -169zm159 274c17,0 24,-12 24,-24l0 -302 74 0c11,0 22,-7 22,-24 0,-16 -11,-24 -22,-24l-196 0c-11,0 -22,8 -22,24 0,17 11,24 22,24l74 0 0 302c0,12 7,24 24,24zm207 -274c0,-32 13,-57 48,-57l41 0c35,0 48,25 48,57l0 169c0,32 -13,58 -48,58l-41 0c-35,0 -48,-26 -48,-58l0 -169zm185 0c0,-57 -32,-105 -96,-105l-41 0c-64,0 -96,48 -96,105l0 169c0,58 32,105 96,105l41 0c64,0 96,-47 96,-105l0 -169zm297 235l-109 -160 104 -140c9,-12 9,-25 -1,-35 -13,-11 -27,-5 -36,6l-106 150 -30 0 0 -137c0,-12 -7,-24 -24,-24 -17,0 -24,12 -24,24l0 331c0,12 7,24 24,24 17,0 24,-12 24,-24l0 -147 30 0 109 160c7,11 19,17 33,7 14,-10 13,-24 6,-35zm102 -235c0,-32 14,-57 49,-57l40 0c35,0 49,25 49,57l0 169c0,32 -14,58 -49,58l-40 0c-35,0 -49,-26 -49,-58l0 -169zm185 0c0,-57 -32,-105 -96,-105l-40 0c-64,0 -96,48 -96,105l0 169c0,58 32,105 96,105l40 0c64,0 96,-47 96,-105l0 -169zm143 202c3,-30 30,-254 30,-254l88 0 0 302c0,12 7,24 24,24 17,0 24,-12 24,-24l0 -325c0,-13 -7,-25 -24,-25l-131 0c-15,0 -23,10 -25,25 -1,15 -29,245 -31,265 -2,12 -3,20 -6,26 -5,10 -14,12 -28,12 -13,0 -24,8 -24,25 0,18 11,24 24,24 44,0 62,-15 72,-41 3,-10 5,-20 7,-34z"/>
   <g>
    <path class="fil4" d="M4646 5313c-20,0 -36,-18 -36,-39 0,-22 16,-40 36,-40l0 79zm1352 0l-1352 0 0 -79 1352 0 0 79zm0 -79c20,0 36,18 36,40 0,21 -16,39 -36,39l0 -79zm-1352 -837c-20,0 -36,-18 -36,-40 0,-21 16,-39 36,-39l0 79zm1906 0l-1906 0 0 -79 1906 0 0 79zm0 -79c20,0 36,18 36,39 0,22 -16,40 -36,40l0 -79zm-1906 -146c-20,0 -36,-18 -36,-39 0,-22 16,-39 36,-39l0 78zm1904 0l-1904 0 0 -78 1904 0 0 78zm0 -78c20,0 36,17 36,39 0,21 -16,39 -36,39l0 -78zm-1904 527c-20,0 -36,-17 -36,-39 0,-22 16,-39 36,-39l0 78zm2563 0l-2563 0 0 -78 2563 0 0 78zm0 -78c20,0 36,17 36,39 0,22 -16,39 -36,39l0 -78zm-2563 303c-20,0 -36,-18 -36,-39 0,-22 16,-39 36,-39l0 78zm1904 0l-1904 0 0 -78 1904 0 0 78zm0 -78c20,0 36,17 36,39 0,21 -16,39 -36,39l0 -78zm-1904 303c-20,0 -36,-18 -36,-40 0,-21 16,-39 36,-39l0 79zm2563 0l-2563 0 0 -79 2563 0 0 79zm0 -79c20,0 36,18 36,39 0,22 -16,40 -36,40l0 -79zm-2563 -1832c-20,0 -36,-18 -36,-40 0,-21 16,-39 36,-39l0 79zm2421 0l-2421 0 0 -79 2421 0 0 79zm0 -79c20,0 36,18 36,39 0,22 -16,40 -36,40l0 -79z"/>
   </g>
   <path class="fil5 str3" d="M6924 3478c0,-30 -12,-53 -37,-62 16,-9 25,-25 25,-49l0 -4c0,-42 -22,-65 -67,-65l-18 0c-36,0 -58,16 -58,54 0,9 5,17 17,17 11,0 16,-8 16,-17 0,-15 10,-22 25,-22l18 0c24,0 35,10 35,33l0 4c0,23 -13,39 -38,39l-19 0c-9,0 -16,5 -16,16 0,12 7,16 16,16l35 0c24,0 33,17 33,40l0 12c0,23 -10,36 -34,36l-37 0c-15,0 -25,-7 -25,-22 0,-9 -5,-17 -16,-17 -12,0 -16,8 -16,17 0,39 22,54 57,54l37 0c44,0 67,-26 67,-68l0 -12zm68 16c0,-17 6,-30 17,-36l64 -30c31,-14 37,-39 37,-64l0 -1c0,-42 -22,-65 -67,-65l-21 0c-35,0 -57,16 -57,54 0,9 5,17 16,17 12,0 16,-8 16,-17 0,-15 10,-22 25,-22l21 0c25,0 35,10 35,33l0 1c0,17 -5,27 -19,34l-58 28c-28,12 -41,39 -41,71l0 58 138 0c9,0 15,-5 15,-16 0,-12 -6,-17 -15,-17l-106 0 0 -28zm203 47c0,10 4,17 16,17 12,0 16,-7 16,-17l0 -30c0,-51 10,-83 34,-124l35 -60c9,-15 3,-26 -13,-26l-128 0c-8,0 -15,5 -15,17 0,11 7,16 15,16l101 0 -22 35c-31,50 -39,83 -39,142l0 30z"/>
   <path class="fil5 str4" d="M7045 3685c-10,0 -14,7 -14,14l0 125 -45 0 0 -125c0,-7 -4,-14 -13,-14 -10,0 -14,7 -14,14l0 125 -45 0 0 -125c0,-7 -4,-14 -13,-14 -10,0 -14,7 -14,14l0 138c0,8 4,14 14,14l144 0c9,0 13,-6 13,-14l0 -138c0,-7 -4,-14 -13,-14zm154 3l-98 0c-7,0 -13,3 -13,13 0,10 6,14 13,14l36 0 0 125c0,8 3,15 13,15 10,0 14,-7 14,-15l0 -125 35 0c7,0 13,-4 13,-14 0,-10 -6,-13 -13,-13z"/>
   <path class="fil6 str0" d="M7552 930l0 4937c-1233,0 -2058,0 -3291,0l0 -4937 3291 0z"/>
   <g>
    <path class="fil5" d="M6776 4397c-20,0 -36,-18 -36,-40 0,-21 16,-39 36,-39l0 79zm430 0l-430 0 0 -79 430 0 0 79zm0 -79c20,0 36,18 36,39 0,22 -16,40 -36,40l0 -79zm-461 528c-20,0 -36,-18 -36,-39 0,-22 16,-39 36,-39l0 78zm430 0l-430 0 0 -78 430 0 0 78zm0 -78c20,0 36,17 36,39 0,21 -16,39 -36,39l0 -78z"/>
   </g>
   <g>
    <path class="fil4" d="M5006 2468c-19,0 -36,-17 -36,-39 0,-22 17,-39 36,-39l0 78zm2203 0l-2203 0 0 -78 2203 0 0 78zm0 -78c20,0 36,17 36,39 0,22 -16,39 -36,39l0 -78zm-2557 303c-20,0 -36,-18 -36,-39 0,-22 16,-40 36,-40l0 79zm2471 0l-2471 0 0 -79 2471 0 0 79zm0 -79c20,0 36,18 36,40 0,21 -16,39 -36,39l0 -79zm-2477 303c-20,0 -36,-17 -36,-39 0,-21 16,-39 36,-39l0 78zm2563 0l-2563 0 0 -78 2563 0 0 78zm0 -78c20,0 36,18 36,39 0,22 -16,39 -36,39l0 -78z"/>
   </g>
  </g>
 </g>
</svg>
