<?xml version="1.0" encoding="UTF-8"?>
<!DOCTYPE svg PUBLIC "-//W3C//DTD SVG 1.0//EN" "http://www.w3.org/TR/2001/REC-SVG-20010904/DTD/svg10.dtd">
<!-- Creator: CorelDRAW X7 -->
<svg xmlns="http://www.w3.org/2000/svg" xml:space="preserve" width="115.711mm" height="70.5556mm" version="1.0" style="shape-rendering:geometricPrecision; text-rendering:geometricPrecision; image-rendering:optimizeQuality; fill-rule:evenodd; clip-rule:evenodd"
viewBox="0 0 11571 7056"
 xmlns:xlink="http://www.w3.org/1999/xlink">
 <defs>
  <style type="text/css">
   <![CDATA[
    .str1 {stroke:#024541;stroke-width:12.73}
    .str4 {stroke:#CC7588;stroke-width:6.06}
    .str3 {stroke:#CC7588;stroke-width:6.99}
    .str2 {stroke:#024541;stroke-width:10.17}
    .str0 {stroke:#024541;stroke-width:55.81;stroke-linecap:round;stroke-linejoin:round}
    .fil6 {fill:none;fill-rule:nonzero}
    .fil1 {fill:#EBF2D9}
    .fil2 {fill:#CDDBAC}
    .fil5 {fill:#CC7588;fill-rule:nonzero}
    .fil4 {fill:#4D897C;fill-rule:nonzero}
    .fil3 {fill:#024541;fill-rule:nonzero}
    .fil0 {fill:url(#id0)}
   ]]>
  </style>
  <radialGradient id="id0" gradientUnits="userSpaceOnUse" gradientTransform="matrix(1.41421 -0 -0 2.34361 -2382 -4740)" cx="5750.67" cy="3527.78" r="10000" fx="5750.67" fy="3527.78">
   <stop offset="0" style="stop-opacity:1; stop-color:#FEFEFE"/>
   <stop offset="0.431373" style="stop-opacity:1; stop-color:#FEFEFE"/>
   <stop offset="1" style="stop-opacity:1; stop-color:#D1E2F2"/>
  </radialGradient>
 </defs>
 <g id="Layer_x0020_1">
  <metadata id="CorelCorpID_0Corel-Layer"/>
  <path class="fil0" d="M-30 39l11562 0 0 6977 -11562 0 0 -6977z"/>
  <path class="fil1 str0" d="M6813 1987l0 3081c-770,0 -1285,0 -2055,0l0 -3081 2055 0z"/>
  <path class="fil2" d="M4758 1987l2055 0 0 1173 -2055 -976c4,-101 0,-130 0,-197z"/>
  <path class="fil3 str1" d="M4941 3583l18 0 0 38c0,3 2,6 7,6 4,0 6,-3 6,-6l0 -91c0,-3 -2,-6 -6,-6 -5,0 -7,3 -7,6l0 40c0,0 -15,0 -21,0 -8,0 -12,-5 -12,-12 0,-6 0,-28 0,-28 0,-3 -2,-6 -7,-6 -5,0 -7,3 -7,6l0 26c0,16 7,27 29,27zm105 38c0,3 2,6 6,6 5,0 7,-3 7,-6l0 -91c0,-3 -2,-6 -7,-6 -3,0 -5,1 -7,5l-38 68 0 0c0,-3 0,-6 0,-10l0 -57c0,-3 -1,-6 -6,-6 -5,0 -7,3 -7,6l0 91c0,3 2,6 7,6 3,0 5,-1 7,-5l38 -68 0 0c0,3 0,6 0,10l0 57zm61 -7c-10,0 -14,-7 -14,-16l0 -46c0,-8 4,-15 14,-15l14 0c6,0 10,2 10,8 1,4 2,7 7,7 5,0 7,-3 7,-7 0,-15 -9,-21 -24,-21l-14 0c-19,0 -28,13 -28,28l0 46c0,16 9,29 28,29l14 0c15,0 24,-6 24,-21 0,-4 -2,-7 -7,-7 -5,0 -6,3 -7,7 0,6 -4,8 -10,8l-14 0zm75 -6c1,-9 8,-70 8,-70l25 0 0 83c0,3 2,6 7,6 5,0 7,-3 7,-6l0 -89c0,-4 -2,-7 -7,-7l-37 0c-4,0 -7,3 -7,7 0,4 -8,67 -9,72 0,4 -1,6 -2,7 -1,3 -4,4 -8,4 -3,0 -6,2 -6,6 0,5 3,7 6,7 13,0 18,-4 21,-11 1,-3 1,-6 2,-9zm81 -56c0,-8 4,-15 14,-15l11 0c10,0 14,7 14,15l0 46c0,9 -4,16 -14,16l-11 0c-10,0 -14,-7 -14,-16l0 -46zm52 0c0,-15 -9,-28 -27,-28l-11 0c-19,0 -28,13 -28,28l0 46c0,16 9,29 28,29l11 0c18,0 27,-13 27,-29l0 -46zm108 -14l0 83c0,3 1,6 6,6 5,0 7,-3 7,-6l0 -89c0,-4 -2,-7 -7,-7l-48 0c-5,0 -7,3 -7,7l0 89c0,3 2,6 7,6 5,0 7,-3 7,-6l0 -83 35 0zm47 14c0,-8 4,-15 14,-15l11 0c10,0 14,7 14,15l0 46c0,9 -4,16 -14,16l-11 0c-10,0 -14,-7 -14,-16l0 -46zm53 0c0,-15 -10,-28 -28,-28l-11 0c-18,0 -28,13 -28,28l0 46c0,16 10,29 28,29l11 0c18,0 28,-13 28,-29l0 -46zm27 -27c-5,0 -7,3 -7,7l0 89c0,3 2,6 7,6 4,0 6,-3 6,-6l0 -83 39 0c3,0 6,-2 6,-6 0,-5 -3,-7 -5,-7l-46 0zm107 72l8 26c1,3 4,5 8,4 4,-2 6,-5 4,-8l-29 -90c-1,-4 -2,-5 -6,-5l-1 0c-4,0 -6,1 -7,5l-29 90c-1,3 1,6 4,8 4,1 8,-1 9,-4l8 -26 31 0zm-18 -43c1,-3 2,-5 2,-8l0 0c1,3 2,5 3,8l9 31 -24 0 10 -31zm133 -30c-5,0 -7,3 -7,6l0 83 -24 0 0 -83c0,-3 -2,-6 -7,-6 -4,0 -6,3 -6,6l0 83 -24 0 0 -83c0,-3 -2,-6 -7,-6 -4,0 -6,3 -6,6l0 89c0,4 2,7 6,7l75 0c4,0 6,-3 6,-7l0 -89c0,-3 -2,-6 -6,-6zm81 102c3,0 6,-2 6,-7 0,-4 -3,-6 -6,-6l-39 0 0 -33 32 0c3,0 6,-1 6,-6 0,-4 -3,-6 -6,-6l-32 0 0 -30 39 0c3,0 6,-2 6,-6 0,-5 -3,-7 -6,-7l-46 0c-5,0 -7,3 -7,7l0 87c0,4 2,7 7,7l46 0zm87 -96c0,-3 -2,-6 -7,-6 -4,0 -6,3 -6,6l0 36 -38 0 0 -36c0,-3 -2,-6 -7,-6 -4,0 -7,3 -7,6l0 91c0,3 3,6 7,6 5,0 7,-3 7,-6l0 -42 38 0 0 42c0,3 1,6 6,6 5,0 7,-3 7,-6l0 -91zm87 0c0,-3 -2,-6 -7,-6 -5,0 -7,3 -7,6l0 36 -38 0 0 -36c0,-3 -1,-6 -6,-6 -5,0 -7,3 -7,6l0 91c0,3 2,6 7,6 4,0 6,-3 6,-6l0 -42 38 0 0 42c0,3 2,6 7,6 5,0 7,-3 7,-6l0 -91zm106 91l0 -91c0,-3 -2,-6 -7,-6 -4,0 -6,3 -6,6l0 91c0,3 2,6 6,6 5,0 7,-3 7,-6zm-53 -57l-18 0 0 -34c0,-3 -2,-6 -7,-6 -4,0 -6,3 -6,6l0 89c0,4 2,7 6,7l25 0c18,0 27,-12 27,-28l0 -7c0,-16 -8,-27 -27,-27zm14 35c0,9 -4,14 -14,14l-18 0 0 -36 18 0c10,0 14,5 14,14l0 8 0 0zm88 -38l-18 -33c-2,-4 -5,-5 -9,-3 -4,2 -4,6 -3,8l22 40 -25 45c-1,2 -1,6 3,8 4,2 7,1 9,-3l21 -38 21 38c2,4 5,5 9,3 4,-2 4,-6 3,-8l-25 -45 22 -40c1,-2 1,-6 -3,-8 -4,-2 -7,-1 -9,3l-18 33z"/>
  <path class="fil3 str1" d="M5430 3750l-21 0 0 -27 37 0c3,0 6,-2 6,-7 0,-4 -3,-6 -6,-6l-43 0c-5,0 -7,3 -7,7l0 87c0,3 2,6 7,6l27 0c19,0 28,-12 28,-27l0 -7c0,-16 -9,-26 -28,-26zm14 34c0,9 -4,14 -14,14l-21 0 0 -36 21 0c10,0 14,5 14,13l0 9zm85 -75c-20,0 -28,16 -28,32l0 10 -13 0 0 -36c0,-3 -2,-6 -7,-6 -4,0 -6,3 -6,6l0 90c0,4 2,7 6,7 5,0 7,-3 7,-7l0 -41 13 0 0 19c0,16 8,29 26,29l8 0c18,0 27,-13 27,-29l0 -46c0,-16 -9,-28 -27,-28l-6 0zm20 74c0,9 -4,16 -14,16l-7 0c-10,0 -14,-7 -14,-16l0 -41c0,-9 4,-21 15,-21l6 0c10,0 14,7 14,16l0 46zm54 9c1,-8 8,-69 8,-69l25 0 0 82c0,4 2,7 7,7 5,0 7,-3 7,-7l0 -88c0,-4 -2,-7 -7,-7l-37 0c-4,0 -7,3 -7,7 -1,4 -8,66 -9,72 0,3 -1,6 -2,7 -1,3 -4,3 -8,3 -3,0 -6,3 -6,7 0,5 3,7 6,7 13,0 18,-4 21,-12 1,-2 1,-5 2,-9zm89 0c1,-8 8,-69 8,-69l25 0 0 82c0,4 2,7 7,7 5,0 7,-3 7,-7l0 -88c0,-4 -2,-7 -7,-7l-37 0c-4,0 -7,3 -7,7 -1,4 -8,66 -9,72 0,3 -1,6 -2,7 -1,3 -4,3 -8,3 -3,0 -6,3 -6,7 0,5 3,7 6,7 13,0 18,-4 21,-12 1,-2 1,-5 2,-9zm121 18c4,0 7,-1 7,-6 0,-4 -3,-6 -7,-6l-39 0 0 -33 33 0c3,0 6,-2 6,-6 0,-5 -3,-7 -6,-7l-33 0 0 -29 39 0c4,0 7,-2 7,-7 0,-4 -3,-6 -7,-6l-46 0c-4,0 -6,3 -6,7l0 87c0,3 2,6 6,6l46 0zm48 2c4,0 6,-3 6,-7l0 -82 21 0c4,0 7,-2 7,-7 0,-4 -3,-6 -7,-6l-55 0c-3,0 -6,2 -6,6 0,5 3,7 6,7l21 0 0 82c0,4 2,7 7,7zm99 -2c4,0 7,-1 7,-6 0,-4 -3,-6 -7,-6l-39 0 0 -33 32 0c4,0 7,-2 7,-6 0,-5 -3,-7 -7,-7l-32 0 0 -29 39 0c4,0 7,-2 7,-7 0,-4 -3,-6 -7,-6l-46 0c-5,0 -7,3 -7,7l0 87c0,3 2,6 7,6l46 0zm87 -95c0,-3 -2,-6 -6,-6 -5,0 -7,3 -7,6l0 36 -38 0 0 -36c0,-3 -2,-6 -7,-6 -4,0 -6,3 -6,6l0 90c0,4 2,7 6,7 5,0 7,-3 7,-7l0 -41 38 0 0 41c0,4 2,7 7,7 4,0 6,-3 6,-7l0 -90zm75 95c3,0 6,-1 6,-6 0,-4 -3,-6 -6,-6l-39 0 0 -33 32 0c3,0 6,-2 6,-6 0,-5 -3,-7 -6,-7l-32 0 0 -29 39 0c3,0 6,-2 6,-7 0,-4 -3,-6 -6,-6l-46 0c-5,0 -7,3 -7,7l0 87c0,3 2,6 7,6l46 0zm55 -109c13,0 20,-9 20,-19 0,-3 -2,-5 -5,-5 -3,0 -5,2 -6,5 0,5 -3,9 -9,9 -5,0 -9,-4 -9,-9 0,-3 -2,-5 -5,-5 -4,0 -6,2 -6,5 0,10 7,19 20,19zm19 104c0,4 2,7 6,7 5,0 7,-3 7,-7l0 -90c0,-3 -2,-6 -7,-6 -2,0 -4,1 -6,4l-39 69 0 0c0,-3 1,-6 1,-10l0 -57c0,-3 -2,-6 -7,-6 -5,0 -7,3 -7,6l0 90c0,4 2,7 7,7 3,0 5,-1 7,-5l38 -68 1 0c-1,2 -1,6 -1,10l0 56z"/>
  <path class="fil3 str2" d="M5142 2425l0 188c0,8 4,15 15,15 10,0 15,-7 15,-15l0 -203c0,-8 -5,-15 -15,-15l-106 0c-10,0 -15,7 -15,15l0 203c0,8 5,15 15,15 10,0 14,-7 14,-15l0 -188 77 0zm107 81l0 -82 50 0c21,0 31,12 31,31l0 17c0,20 -10,34 -31,34l-50 0zm50 30c40,0 60,-28 60,-64l0 -17c0,-36 -20,-60 -60,-60l-65 0c-10,0 -14,7 -14,15l0 203c0,8 4,15 15,15 10,0 14,-7 14,-15l0 -77 50 0zm124 -79c0,-20 9,-36 30,-36l26 0c21,0 30,16 30,36l0 105c0,21 -9,37 -30,37l-26 0c-21,0 -30,-16 -30,-37l0 -105zm115 0c0,-36 -19,-65 -59,-65l-26 0c-40,0 -60,29 -60,65l0 105c0,37 20,66 60,66l26 0c40,0 59,-29 59,-66l0 -105zm100 171c10,0 15,-7 15,-15l0 -188 46 0c7,0 14,-5 14,-15 0,-10 -7,-15 -14,-15l-122 0c-7,0 -14,5 -14,15 0,10 7,15 14,15l46 0 0 188c0,8 4,15 15,15zm129 -171c0,-20 8,-36 30,-36l26 0c21,0 30,16 30,36l0 105c0,21 -9,37 -30,37l-26 0c-22,0 -30,-16 -30,-37l0 -105zm115 0c0,-36 -19,-65 -59,-65l-26 0c-40,0 -60,29 -60,65l0 105c0,37 20,66 60,66l26 0c40,0 59,-29 59,-66l0 -105zm186 147l-68 -100 65 -87c5,-8 5,-16 -1,-22 -8,-7 -17,-4 -22,3l-66 94 -19 0 0 -85c0,-8 -5,-15 -15,-15 -11,0 -15,7 -15,15l0 206c0,8 4,15 15,15 10,0 15,-7 15,-15l0 -92 19 0 68 101c4,6 12,10 20,4 9,-7 8,-16 4,-22zm64 -147c0,-20 8,-36 30,-36l25 0c22,0 31,16 31,36l0 105c0,21 -9,37 -31,37l-25 0c-22,0 -30,-16 -30,-37l0 -105zm115 0c0,-36 -20,-65 -60,-65l-25 0c-40,0 -60,29 -60,65l0 105c0,37 20,66 60,66l25 0c40,0 60,-29 60,-66l0 -105zm89 126c2,-18 19,-158 19,-158l55 0 0 188c0,8 4,15 15,15 10,0 15,-7 15,-15l0 -203c0,-8 -5,-15 -15,-15l-82 0c-9,0 -14,6 -15,15 -1,10 -18,153 -20,166 -1,7 -2,12 -4,16 -3,6 -8,8 -17,8 -8,0 -15,4 -15,15 0,11 7,15 15,15 27,0 39,-9 45,-26 2,-6 3,-12 4,-21z"/>
  <g>
   <path class="fil4" d="M4999 4723c-13,0 -23,-11 -23,-25 0,-13 10,-24 23,-24l0 49zm844 0l-844 0 0 -49 844 0 0 49zm0 -49c12,0 22,11 22,24 0,14 -10,25 -22,25l0 -49zm-844 -523c-13,0 -23,-11 -23,-25 0,-13 10,-24 23,-24l0 49zm1190 0l-1190 0 0 -49 1190 0 0 49zm0 -49c12,0 22,11 22,24 0,14 -10,25 -22,25l0 -49zm-1190 -91c-13,0 -23,-11 -23,-25 0,-13 10,-24 23,-24l0 49zm1188 0l-1188 0 0 -49 1188 0 0 49zm0 -49c12,0 23,11 23,24 0,14 -11,25 -23,25l0 -49zm-1188 329c-13,0 -23,-11 -23,-24 0,-14 10,-25 23,-25l0 49zm1599 0l-1599 0 0 -49 1599 0 0 49zm0 -49c13,0 23,11 23,25 0,13 -10,24 -23,24l0 -49zm-1599 189c-13,0 -23,-11 -23,-24 0,-14 10,-25 23,-25l0 49zm1188 0l-1188 0 0 -49 1188 0 0 49zm0 -49c12,0 23,11 23,25 0,13 -11,24 -23,24l0 -49zm-1188 189c-13,0 -23,-11 -23,-24 0,-14 10,-24 23,-24l0 48zm1599 0l-1599 0 0 -48 1599 0 0 48zm0 -48c13,0 23,10 23,24 0,13 -10,24 -23,24l0 -48zm-1599 -1144c-13,0 -23,-11 -23,-25 0,-13 10,-24 23,-24l0 49zm1511 0l-1511 0 0 -49 1511 0 0 49zm0 -49c12,0 22,11 22,24 0,14 -10,25 -22,25l0 -49z"/>
  </g>
  <path class="fil5 str3" d="M6420 3577c0,-18 -7,-33 -23,-38 10,-6 16,-16 16,-31l0 -3c0,-26 -14,-40 -42,-40l-11 0c-22,0 -36,10 -36,34 0,6 3,10 10,10 7,0 10,-4 10,-10 0,-10 6,-14 16,-14l11 0c15,0 22,6 22,20l0 3c0,15 -8,25 -23,25l-13 0c-5,0 -9,2 -9,10 0,7 4,10 9,10l22 0c15,0 21,10 21,24l0 8c0,14 -6,22 -21,22l-23 0c-10,0 -16,-4 -16,-13 0,-6 -3,-11 -10,-11 -7,0 -10,5 -10,11 0,24 14,34 36,34l23 0c27,0 41,-17 41,-43l0 -8zm43 10c0,-10 4,-18 11,-22l39 -18c20,-10 24,-25 24,-41l0 -1c0,-26 -14,-40 -42,-40l-13 0c-22,0 -36,10 -36,34 0,6 3,10 10,10 8,0 10,-4 10,-10 0,-10 7,-14 16,-14l13 0c15,0 22,6 22,20l0 1c0,11 -3,17 -12,22l-37 17c-17,7 -25,25 -25,44l0 36 86 0c6,0 10,-3 10,-10 0,-7 -4,-10 -10,-10l-66 0 0 -18zm127 30c0,6 2,11 10,11 7,0 10,-5 10,-11l0 -19c0,-32 6,-52 21,-77l22 -38c5,-9 2,-16 -8,-16l-80 0c-5,0 -10,3 -10,10 0,8 5,10 10,10l63 0 -14 23c-19,31 -24,51 -24,88l0 19z"/>
  <path class="fil5 str4" d="M6496 3707c-6,0 -9,4 -9,9l0 78 -28 0 0 -78c0,-5 -2,-9 -8,-9 -6,0 -8,4 -8,9l0 78 -29 0 0 -78c0,-5 -2,-9 -8,-9 -6,0 -8,4 -8,9l0 85c0,5 2,9 8,9l90 0c6,0 8,-4 8,-9l0 -85c0,-5 -2,-9 -8,-9zm96 2l-61 0c-4,0 -8,2 -8,8 0,6 4,8 8,8l22 0 0 78c0,5 3,9 9,9 6,0 8,-4 8,-9l0 -78 22 0c5,0 9,-2 9,-8 0,-6 -4,-8 -9,-8z"/>
  <path class="fil6 str0" d="M6813 1987l0 3081c-770,0 -1285,0 -2055,0l0 -3081 2055 0z"/>
  <g>
   <path class="fil5" d="M6328 4151c-12,0 -22,-11 -22,-25 0,-13 10,-24 22,-24l0 49zm269 0l-269 0 0 -49 269 0 0 49zm0 -49c12,0 22,11 22,24 0,14 -10,25 -22,25l0 -49zm-288 329c-13,0 -23,-11 -23,-24 0,-14 10,-25 23,-25l0 49zm268 0l-268 0 0 -49 268 0 0 49zm0 -49c13,0 23,11 23,25 0,13 -10,24 -23,24l0 -49z"/>
  </g>
  <g>
   <path class="fil4" d="M5224 2947c-13,0 -23,-11 -23,-24 0,-14 10,-25 23,-25l0 49zm1374 0l-1374 0 0 -49 1374 0 0 49zm0 -49c13,0 23,11 23,25 0,13 -10,24 -23,24l0 -49zm-1596 189c-12,0 -22,-11 -22,-24 0,-14 10,-25 22,-25l0 49zm1543 0l-1543 0 0 -49 1543 0 0 49zm0 -49c12,0 22,11 22,25 0,13 -10,24 -22,24l0 -49zm-1546 190c-13,0 -23,-11 -23,-25 0,-13 10,-24 23,-24l0 49zm1599 0l-1599 0 0 -49 1599 0 0 49zm0 -49c13,0 23,11 23,24 0,14 -10,25 -23,25l0 -49z"/>
  </g>
 </g>
</svg>
