<?xml version="1.0" encoding="UTF-8"?>
<!DOCTYPE svg PUBLIC "-//W3C//DTD SVG 1.0//EN" "http://www.w3.org/TR/2001/REC-SVG-20010904/DTD/svg10.dtd">
<!-- Creator: CorelDRAW X7 -->
<svg xmlns="http://www.w3.org/2000/svg" xml:space="preserve" width="115.711mm" height="70.5556mm" version="1.0" style="shape-rendering:geometricPrecision; text-rendering:geometricPrecision; image-rendering:optimizeQuality; fill-rule:evenodd; clip-rule:evenodd"
viewBox="0 0 11571 7056"
 xmlns:xlink="http://www.w3.org/1999/xlink">
 <defs>
  <style type="text/css">
   <![CDATA[
    .str0 {stroke:#CC7587;stroke-width:14.52}
    .fil2 {fill:#BAB5D4}
    .fil1 {fill:#D1CCE8}
    .fil4 {fill:#8F8AB0;fill-rule:nonzero}
    .fil3 {fill:#BAB5D4;fill-rule:nonzero}
    .fil5 {fill:#CC7587;fill-rule:nonzero}
    .fil0 {fill:url(#id0)}
   ]]>
  </style>
  <radialGradient id="id0" gradientUnits="userSpaceOnUse" gradientTransform="matrix(1.17124 -0 -0 1.92083 -991 -3248)" cx="5785.55" cy="3527.78" r="10000" fx="5785.55" fy="3527.78">
   <stop offset="0" style="stop-opacity:1; stop-color:#FEFEFE"/>
   <stop offset="0.439216" style="stop-opacity:1; stop-color:#FEFEFE"/>
   <stop offset="1" style="stop-opacity:1; stop-color:#D1E2F2"/>
  </radialGradient>
 </defs>
 <g id="Layer_x0020_1">
  <metadata id="CorelCorpID_0Corel-Layer"/>
  <g id="_581205030128">
   <path class="fil0" d="M0 0l11571 0 0 7056 -11571 0 0 -7056z"/>
   <path class="fil1" d="M4875 1543l1977 0 0 3003 -1977 0 0 -3003z"/>
   <path class="fil2" d="M6852 4546l-1977 0 0 -1083 1977 910 0 173z"/>
   <g>
    <path class="fil3" d="M5259 3841c-19,0 -34,-14 -34,-31 0,-17 15,-31 34,-31l0 62zm1232 0l-1232 0 0 -62 1232 0 0 62zm0 -62c19,0 34,14 34,31 0,17 -15,31 -34,31l0 -62zm-1232 -1483c-19,0 -34,-14 -34,-31 0,-17 15,-31 34,-31l0 62zm1232 0l-1232 0 0 -62 1232 0 0 62zm0 -62c19,0 34,14 34,31 0,17 -15,31 -34,31l0 -62zm-1232 -130c-19,0 -34,-14 -34,-31 0,-17 15,-30 34,-30l0 61zm1232 0l-1232 0 0 -61 1232 0 0 61zm0 -61c19,0 34,13 34,30 0,17 -15,31 -34,31l0 -61zm-1232 -131c-19,0 -34,-13 -34,-30 0,-17 15,-31 34,-31l0 61zm1232 0l-1232 0 0 -61 1232 0 0 61zm0 -61c19,0 34,14 34,31 0,17 -15,30 -34,30l0 -61zm-1232 2181c-19,0 -34,-13 -34,-30 0,-17 15,-31 34,-31l0 61zm1232 0l-1232 0 0 -61 1232 0 0 61zm0 -61c19,0 34,14 34,31 0,17 -15,30 -34,30l0 -61z"/>
   </g>
   <g>
    <path class="fil3" d="M6223 3266c-19,0 -34,-14 -34,-31 0,-17 15,-30 34,-30l0 61zm268 0l-268 0 0 -61 268 0 0 61zm0 -61c19,0 34,13 34,30 0,17 -15,31 -34,31l0 -61zm-1232 -526c-19,0 -34,-14 -34,-31 0,-17 15,-31 34,-31l0 62zm367 0l-367 0 0 -62 367 0 0 62zm0 -62c19,0 34,14 34,31 0,17 -15,31 -34,31l0 -62zm-367 -130c-19,0 -34,-14 -34,-31 0,-17 15,-30 34,-30l0 61zm761 0l-761 0 0 -61 761 0 0 61zm0 -61c19,0 34,13 34,30 0,17 -15,31 -34,31l0 -61zm-512 1223c-19,0 -34,-14 -34,-30 0,-17 15,-31 34,-31l0 61zm983 0l-983 0 0 -61 983 0 0 61zm0 -61c19,0 34,14 34,31 0,16 -15,30 -34,30l0 -61zm-621 -130c-19,0 -34,-14 -34,-31 0,-17 15,-31 34,-31l0 62zm621 0l-621 0 0 -62 621 0 0 62zm0 -62c19,0 34,14 34,31 0,17 -15,31 -34,31l0 -62z"/>
   </g>
   <g>
    <path class="fil4" d="M4903 1578l0 2968 -56 0 0 -2968 28 -25 28 25zm-56 0c0,-14 13,-25 28,-25 16,0 28,11 28,25l-56 0zm2005 25l-1977 0 0 -50 1977 0 28 25 -28 25zm0 -50c15,0 28,11 28,25 0,13 -13,25 -28,25l0 -50zm-28 2993l0 -2968 56 0 0 2968 -28 25 -28 -25zm56 0c0,14 -13,25 -28,25 -16,0 -28,-11 -28,-25l56 0zm-2005 -25l1977 0 0 50 -1977 0 -28 -25 28 -25zm0 50c-15,0 -28,-11 -28,-25 0,-14 13,-25 28,-25l0 50z"/>
   </g>
   <path class="fil3" d="M5062 2933l-35 0 0 -73 79 0c9,0 17,-5 17,-18 0,-12 -8,-18 -17,-18l-98 0c-13,0 -18,8 -18,18l0 239c0,10 6,18 18,18l54 0c50,0 73,-26 73,-70l0 -23c0,-43 -23,-73 -73,-73zm37 96c0,24 -10,35 -37,35l-35 0 0 -98 35 0c27,0 37,15 37,39l0 24zm223 -209l-4 0c-52,0 -72,45 -72,88l0 28 -32 0 0 -98c0,-9 -4,-18 -18,-18 -12,0 -17,9 -17,18l0 247c0,10 5,18 17,18 13,0 18,-8 18,-18l0 -113 32 0 0 59c0,43 22,72 72,72l4 0c50,0 73,-33 73,-76l0 -130c0,-43 -23,-77 -73,-77zm36 207c0,24 -9,41 -36,41l-4 0c-27,0 -35,-13 -35,-37l0 -123c0,-24 7,-52 35,-52l4 0c27,0 36,17 36,41l0 130zm138 23c1,-9 13,-190 13,-190l55 0 0 225c0,10 5,18 19,18 12,0 18,-8 18,-18l0 -243c0,-9 -6,-18 -18,-18l-90 0c-13,0 -19,9 -19,18 0,0 -13,194 -13,199 -1,4 -1,12 -3,17 -4,6 -10,11 -20,11 -9,0 -18,6 -18,18 0,14 9,18 18,18 28,0 45,-11 53,-31 2,-7 4,-16 5,-24zm210 0c0,-9 13,-190 13,-190l55 0 0 225c0,10 5,18 18,18 13,0 18,-8 18,-18l0 -243c0,-9 -5,-18 -18,-18l-90 0c-12,0 -18,9 -18,18 0,0 -13,194 -13,199 -1,4 -1,12 -4,17 -3,6 -9,11 -19,11 -9,0 -18,6 -18,18 0,14 9,18 18,18 28,0 45,-11 52,-31 3,-7 5,-16 6,-24zm282 49c9,0 17,-5 17,-17 0,-12 -8,-18 -17,-18l-84 0 0 -88 67 0c9,0 17,-6 17,-18 0,-12 -8,-18 -17,-18l-67 0 0 -80 84 0c9,0 17,-5 17,-18 0,-12 -8,-18 -17,-18l-103 0c-12,0 -18,9 -18,18l0 239c0,10 6,18 18,18l103 0zm100 -14c0,10 5,18 18,18 13,0 19,-8 19,-18l0 -225 45 0c9,0 18,-5 18,-18 0,-12 -9,-18 -18,-18l-127 0c-9,0 -18,6 -18,18 0,13 9,18 18,18l45 0 0 225zm254 14c9,0 18,-5 18,-17 0,-12 -9,-18 -18,-18l-84 0 0 -88 67 0c9,0 17,-6 17,-18 0,-12 -8,-18 -17,-18l-67 0 0 -80 84 0c9,0 18,-5 18,-18 0,-12 -9,-18 -18,-18l-103 0c-12,0 -18,9 -18,18l0 239c0,10 6,18 18,18l103 0zm212 -261c0,-9 -6,-18 -18,-18 -13,0 -19,9 -19,18l0 98 -80 0 0 -98c0,-9 -5,-18 -18,-18 -13,0 -18,9 -18,18l0 247c0,10 5,18 18,18 13,0 18,-8 18,-18l0 -113 80 0 0 113c0,10 5,18 19,18 12,0 18,-8 18,-18l0 -247zm133 93l-39 0 0 -93c0,-9 -6,-18 -19,-18 -13,0 -18,9 -18,18l0 243c0,9 5,18 18,18l58 0c50,0 73,-26 73,-70l0 -24c0,-43 -23,-74 -73,-74zm-39 35l39 0c27,0 37,15 37,39l0 24c0,23 -10,35 -37,35l-39 0 0 -98z"/>
   <path class="fil5 str0" d="M5407 4843l-26 0 0 -34 46 0c5,0 9,-3 9,-8 0,-6 -4,-9 -9,-9l-55 0c-6,0 -8,4 -8,9l0 111c0,4 2,8 8,8l35 0c24,0 35,-15 35,-35l0 -8c0,-21 -11,-34 -35,-34zm18 44c0,11 -5,17 -17,17l-27 0 0 -46 26 0c13,0 18,7 18,18l0 11zm116 -96c-24,0 -35,20 -35,40l0 14 -17 0 0 -46c0,-4 -1,-8 -8,-8 -5,0 -8,4 -8,8l0 115c0,4 3,8 8,8 6,0 8,-4 8,-8l0 -53 17 0 0 24c0,20 11,37 34,37l10 0c23,0 34,-16 34,-36l0 -59c0,-20 -11,-36 -34,-36l-9 0zm26 95c0,11 -5,20 -17,20l-9 0c-13,0 -18,-9 -18,-20l0 -53c0,-12 5,-26 18,-26l9 0c12,0 17,9 17,19l0 60zm74 11c1,-10 11,-88 11,-88l32 0 0 105c0,4 2,8 9,8 6,0 8,-4 8,-8l0 -113c0,-5 -2,-9 -8,-9l-48 0c-5,0 -8,4 -9,9 0,5 -10,85 -11,92 -1,4 -1,7 -2,9 -2,3 -5,4 -11,4 -4,0 -8,3 -8,9 0,6 4,8 8,8 16,0 23,-5 27,-14 1,-4 2,-7 2,-12zm122 0c2,-10 11,-88 11,-88l32 0 0 105c0,4 3,8 9,8 6,0 8,-4 8,-8l0 -113c0,-5 -2,-9 -8,-9l-48 0c-5,0 -8,4 -9,9 0,5 -10,85 -11,92 -1,4 -1,7 -2,9 -2,3 -5,4 -10,4 -5,0 -9,3 -9,9 0,6 4,8 9,8 15,0 22,-5 26,-14 1,-4 2,-7 2,-12zm164 23c4,0 8,-2 8,-8 0,-5 -4,-8 -8,-8l-50 0 0 -41 41 0c5,0 8,-3 8,-8 0,-6 -3,-9 -8,-9l-41 0 0 -37 50 0c4,0 8,-3 8,-8 0,-6 -4,-9 -8,-9l-59 0c-6,0 -8,4 -8,9l0 111c0,4 2,8 8,8l59 0zm70 2c6,0 9,-4 9,-8l0 -105 26 0c4,0 8,-3 8,-8 0,-6 -4,-9 -8,-9l-70 0c-5,0 -8,3 -8,9 0,5 3,8 8,8l26 0 0 105c0,4 3,8 9,8zm135 -2c5,0 9,-2 9,-8 0,-5 -4,-8 -9,-8l-50 0 0 -41 42 0c4,0 8,-3 8,-8 0,-6 -4,-9 -8,-9l-42 0 0 -37 50 0c5,0 9,-3 9,-8 0,-6 -4,-9 -9,-9l-58 0c-6,0 -9,4 -9,9l0 111c0,4 3,8 9,8l58 0zm120 -121c0,-4 -2,-8 -8,-8 -6,0 -9,4 -9,8l0 46 -48 0 0 -46c0,-4 -2,-8 -9,-8 -5,0 -8,4 -8,8l0 115c0,4 3,8 8,8 6,0 9,-4 9,-8l0 -53 48 0 0 53c0,4 2,8 9,8 6,0 8,-4 8,-8l0 -115zm83 43l-29 0 0 -43c0,-4 -3,-8 -9,-8 -6,0 -8,4 -8,8l0 113c0,4 2,8 9,8l37 0c23,0 35,-15 35,-35l0 -8c0,-21 -11,-35 -35,-35zm18 45c0,11 -5,17 -18,17l-29 0 0 -46 29 0c13,0 18,7 18,18l0 11zm-1578 121c0,-5 -2,-9 -8,-9 -6,0 -9,4 -9,9l0 45 -48 0 0 -45c0,-5 -2,-9 -9,-9 -5,0 -8,4 -8,9l0 115c0,4 3,8 8,8 6,0 9,-4 9,-8l0 -53 48 0 0 53c0,4 2,8 9,8 6,0 8,-4 8,-8l0 -115zm104 121c4,0 8,-2 8,-8 0,-6 -4,-8 -8,-8l-50 0 0 -41 41 0c5,0 8,-3 8,-9 0,-5 -3,-8 -8,-8l-41 0 0 -37 50 0c4,0 8,-3 8,-9 0,-5 -4,-8 -8,-8l-59 0c-6,0 -8,4 -8,9l0 111c0,4 2,8 8,8l59 0zm110 -129c-6,-2 -10,2 -11,6 0,0 -9,35 -17,63 -1,0 -7,0 -13,0 -6,0 -10,-4 -11,-8 -2,-10 -14,-55 -14,-55 -1,-5 -5,-8 -11,-6 -6,1 -7,6 -6,10 0,0 11,41 14,53 3,12 9,22 31,22 2,0 6,-1 6,-1l0 0c-3,11 -6,19 -7,21 -2,5 -9,8 -14,8l-7 0c-4,0 -8,3 -8,8 0,6 4,9 8,9l7 0c12,0 24,-4 30,-19 3,-6 4,-8 6,-16 2,-8 23,-85 23,-85 1,-4 0,-9 -6,-10zm65 115c-13,0 -18,-9 -18,-21l0 -58c0,-11 5,-20 18,-20l18 0c8,0 13,3 13,11 1,4 3,8 9,8 6,0 8,-4 8,-8 0,-19 -11,-28 -30,-28l-18 0c-23,0 -35,17 -35,37l0 58c0,21 12,37 35,37l18 0c19,0 30,-8 30,-27 0,-5 -2,-9 -8,-9 -6,0 -8,4 -9,9 0,7 -5,11 -13,11l-18 0zm110 16c6,0 9,-4 9,-8l0 -105 27 0c4,0 8,-3 8,-9 0,-5 -4,-8 -8,-8l-71 0c-4,0 -8,3 -8,8 0,6 4,9 8,9l27 0 0 105c0,4 2,8 8,8zm113 -38l11 32c1,5 5,7 10,5 5,-1 7,-6 5,-10l-37 -114c-1,-4 -3,-7 -8,-7l-1 0c-5,0 -7,3 -9,7l-37 114c-1,4 1,9 6,10 5,2 9,0 10,-5l11 -32 39 0zm-22 -55c1,-4 1,-6 2,-10l1 0c0,4 1,6 2,10l13 40 -31 0 13 -40zm156 -30c0,-5 -2,-9 -8,-9 -6,0 -9,4 -9,9l0 45 -48 0 0 -45c0,-5 -2,-9 -9,-9 -5,0 -8,4 -8,9l0 115c0,4 3,8 8,8 6,0 9,-4 9,-8l0 -53 48 0 0 53c0,4 3,8 9,8 6,0 8,-4 8,-8l0 -115zm52 28c0,-11 5,-20 18,-20l14 0c13,0 18,9 18,20l0 58c0,12 -5,21 -18,21l-14 0c-13,0 -18,-9 -18,-21l0 -58zm67 0c0,-20 -11,-37 -35,-37l-14 0c-23,0 -35,17 -35,37l0 58c0,21 12,37 35,37l14 0c24,0 35,-16 35,-37l0 -58zm52 36l30 0c13,0 18,8 18,20l0 4c0,11 -5,17 -18,17l-30 0 0 -41zm0 -16l0 -38 22 0c13,0 18,4 18,15l0 4c0,11 -5,19 -18,19l-22 0zm65 36c0,-16 -7,-26 -20,-30 8,-5 12,-13 12,-25l0 -4c0,-20 -12,-32 -35,-32l-30 0c-6,0 -9,4 -9,9l0 111c0,4 3,8 9,8l38 0c23,0 35,-13 35,-33l0 -4zm54 14c1,-10 11,-88 11,-88l32 0 0 105c0,4 2,8 8,8 6,0 9,-4 9,-8l0 -113c0,-5 -3,-9 -9,-9l-47 0c-6,0 -9,4 -9,9 -1,5 -11,85 -11,92 -1,4 -2,7 -3,9 -1,3 -5,4 -10,4 -4,0 -8,3 -8,9 0,6 4,8 8,8 16,0 23,-5 26,-14 2,-4 2,-7 3,-12zm164 23c4,0 8,-2 8,-8 0,-6 -4,-8 -8,-8l-50 0 0 -41 41 0c4,0 8,-3 8,-9 0,-5 -4,-8 -8,-8l-41 0 0 -37 50 0c4,0 8,-3 8,-9 0,-5 -4,-8 -8,-8l-59 0c-6,0 -9,4 -9,9l0 111c0,4 3,8 9,8l59 0zm119 -121c0,-5 -2,-9 -8,-9 -6,0 -9,4 -9,9l0 45 -48 0 0 -45c0,-5 -2,-9 -8,-9 -6,0 -9,4 -9,9l0 115c0,4 3,8 9,8 6,0 8,-4 8,-8l0 -53 48 0 0 53c0,4 3,8 9,8 6,0 8,-4 8,-8l0 -115zm119 0c0,-5 -2,-9 -8,-9 -6,0 -9,4 -9,9l0 45 -48 0 0 -45c0,-5 -2,-9 -8,-9 -6,0 -9,4 -9,9l0 115c0,4 3,8 9,8 6,0 8,-4 8,-8l0 -53 48 0 0 53c0,4 3,8 9,8 6,0 8,-4 8,-8l0 -115zm52 28c0,-11 5,-20 18,-20l15 0c12,0 17,9 17,20l0 58c0,12 -5,21 -17,21l-15 0c-13,0 -18,-9 -18,-21l0 -58zm67 0c0,-20 -11,-37 -34,-37l-15 0c-23,0 -35,17 -35,37l0 58c0,21 12,37 35,37l15 0c23,0 34,-16 34,-37l0 -58zm77 -46c16,0 25,-12 25,-25 0,-4 -3,-6 -7,-6 -3,0 -6,2 -6,6 -1,7 -5,12 -12,12 -7,0 -12,-5 -12,-12 0,-4 -3,-6 -7,-6 -4,0 -7,2 -7,6 0,13 9,25 26,25zm24 133c0,4 2,8 8,8 6,0 9,-4 9,-8l0 -115c0,-5 -3,-9 -9,-9 -4,0 -6,2 -9,7l-49 87 0 0c1,-4 1,-8 1,-13l0 -72c0,-5 -2,-9 -8,-9 -7,0 -9,4 -9,9l0 115c0,4 3,8 9,8 3,0 6,-1 8,-6l49 -87 0 0c0,3 0,7 0,12l0 73zm171 -107l-10 0 0 -11c0,-5 -3,-9 -9,-9 -5,0 -8,4 -8,9l0 11 -10 0c-23,0 -35,13 -35,34l0 23c0,20 12,36 35,36l10 0 0 16c0,4 2,8 8,8 6,0 9,-4 9,-8l0 -16 10 0c23,0 35,-16 35,-36l0 -23c0,-21 -12,-34 -35,-34zm-27 77l-10 0c-13,0 -18,-9 -18,-20l0 -24c0,-10 5,-18 18,-18l10 0 0 62zm45 -20c0,11 -5,20 -18,20l-10 0 0 -62 10 0c13,0 18,8 18,18l0 24zm65 -37c0,-11 5,-20 18,-20l14 0c13,0 18,9 18,20l0 58c0,12 -5,21 -18,21l-14 0c-13,0 -18,-9 -18,-21l0 -58zm67 0c0,-20 -11,-37 -35,-37l-14 0c-23,0 -35,17 -35,37l0 58c0,21 12,37 35,37l14 0c24,0 35,-16 35,-37l0 -58zm52 27l0 -46 29 0c12,0 18,7 18,18l0 9c0,11 -6,19 -18,19l-29 0zm29 16c23,0 35,-15 35,-35l0 -9c0,-21 -12,-34 -35,-34l-38 0c-5,0 -8,4 -8,9l0 113c0,4 3,8 9,8 6,0 8,-4 8,-8l0 -44 29 0zm115 -7c-1,-3 -2,-7 -4,-10l-29 -56c-2,-6 -5,-7 -8,-7 -6,0 -9,4 -9,9l0 115c0,4 3,8 9,8 6,0 8,-4 8,-8l0 -71c0,-5 0,-9 -1,-13l0 0 27 51c1,3 3,5 7,5 4,0 6,-2 8,-5l26 -51 0 0c0,4 -1,8 -1,13l0 71c0,4 3,8 9,8 6,0 8,-4 8,-8l0 -115c0,-5 -2,-9 -8,-9 -4,0 -6,1 -9,7l-29 56c-1,3 -3,7 -4,10zm194 51l0 -115c0,-5 -2,-9 -8,-9 -6,0 -9,4 -9,9l0 115c0,4 3,8 9,8 6,0 8,-4 8,-8zm-68 -72l-22 0 0 -43c0,-5 -3,-9 -9,-9 -6,0 -8,4 -8,9l0 113c0,4 2,8 8,8l31 0c24,0 36,-15 36,-35l0 -8c0,-21 -11,-35 -36,-35zm18 45c0,11 -5,17 -17,17l-23 0 0 -46 22 0c13,0 18,7 18,18l0 11z"/>
  </g>
 </g>
</svg>
