<?xml version="1.0" encoding="UTF-8"?>
<!DOCTYPE svg PUBLIC "-//W3C//DTD SVG 1.0//EN" "http://www.w3.org/TR/2001/REC-SVG-20010904/DTD/svg10.dtd">
<!-- Creator: CorelDRAW X7 -->
<svg xmlns="http://www.w3.org/2000/svg" xml:space="preserve" width="115.711mm" height="70.5556mm" version="1.0" style="shape-rendering:geometricPrecision; text-rendering:geometricPrecision; image-rendering:optimizeQuality; fill-rule:evenodd; clip-rule:evenodd"
viewBox="0 0 11571 7056"
 xmlns:xlink="http://www.w3.org/1999/xlink">
 <defs>
  <style type="text/css">
   <![CDATA[
    .str0 {stroke:#024541;stroke-width:25}
    .str1 {stroke:#2B2A29;stroke-width:20}
    .str3 {stroke:#2B2A29;stroke-width:20}
    .str2 {stroke:#4D897C;stroke-width:20}
    .fil2 {fill:none}
    .fil3 {fill:#4D897C}
    .fil1 {fill:#024541}
    .fil4 {fill:#2B2926}
    .fil0 {fill:url(#id0)}
   ]]>
  </style>
  <radialGradient id="id0" gradientUnits="userSpaceOnUse" cx="6103.05" cy="3845.28" r="5785.57" fx="6103.05" fy="3845.28">
   <stop offset="0" style="stop-color:#FEFEFE"/>
   <stop offset="0.45098" style="stop-color:#FEFEFE"/>
   <stop offset="1" style="stop-color:#D2E2F2"/>
  </radialGradient>

 </defs>
 <g id="Layer_x0020_1">
  <metadata id="CorelCorpID_0Corel-Layer"/>
  <g id="_148361203952">
   <path class="fil0" d="M6 -8l11571 0 0 7056 -11571 0 0 -7056z"/>
   <g>
    <path class="fil1 str0" d="M2853 630l-36 0c-3,0 -5,0 -7,-2 -1,-2 -2,-4 -2,-6 0,-2 1,-4 2,-6 2,-2 4,-3 7,-3l89 0c2,0 4,1 6,2 2,2 3,4 3,7 0,2 -1,4 -3,5 -1,2 -3,3 -6,3l-36 0 0 152c0,3 -1,5 -2,7 -2,1 -4,2 -7,2 -2,0 -4,-1 -6,-3 -2,-1 -2,-3 -2,-6l0 -152zm103 116l-13 39c-1,1 -2,3 -4,4 -1,1 -2,1 -4,2 -3,0 -5,-1 -7,-3 -2,-1 -3,-3 -3,-6l1 -3 54 -160c1,-5 4,-8 8,-8 4,0 7,3 8,8l54 160 0 3c0,2 -1,4 -3,6 -2,2 -4,3 -6,3 -1,0 -2,-1 -4,-1 -1,-1 -3,-3 -4,-5l-13 -39 -64 0zm58 -18l-26 -78 -26 78 52 0zm98 -26l0 71 53 0c5,0 9,-2 13,-5 3,-3 5,-8 5,-13l0 -35c0,-6 -2,-10 -5,-13 -3,-4 -8,-5 -13,-5l-53 0zm0 -18l53 0c10,0 18,3 25,10 7,7 11,16 11,26l0 35c0,10 -4,18 -11,25 -7,7 -15,11 -25,11l-62 0c-6,0 -9,-3 -9,-9l0 -160c0,-6 3,-9 9,-9l71 0c3,0 5,1 6,2 2,2 3,4 3,7 0,2 -1,4 -2,5 -2,2 -4,3 -7,3l-62 0 0 54zm233 98c0,3 -1,5 -3,7 -1,1 -3,2 -6,2 -2,0 -4,-1 -6,-3 -2,-1 -3,-3 -3,-6l0 -152 -29 0 -43 154c0,2 -1,3 -2,5 -2,1 -4,2 -6,2 -3,0 -5,-1 -6,-3 -2,-1 -3,-3 -3,-6 0,-1 0,-2 0,-3l45 -160c1,-4 4,-6 8,-6l45 0c6,0 9,3 9,9l0 160zm151 0c0,3 0,5 -2,7 -2,1 -4,2 -6,2 -3,0 -5,-1 -7,-3 -1,-1 -2,-3 -2,-6l0 -126 -72 130c-1,2 -3,3 -4,4l-2 1c-1,1 -2,1 -3,1 -2,0 -4,-1 -6,-2 -1,-2 -2,-5 -2,-8l0 -160c0,-3 1,-5 2,-7 2,-1 4,-2 7,-2 2,0 4,1 6,2 2,2 2,4 2,7l0 125 73 -130c1,-1 2,-2 3,-4 2,-1 4,-2 5,-2 2,0 4,1 6,3 2,2 2,5 2,8l0 160zm135 -9l0 -151c0,-3 1,-5 2,-7 2,-2 4,-2 7,-2 2,0 4,0 6,2 1,1 2,4 2,7l0 151 9 0c6,0 9,3 9,9l0 27c0,2 -1,4 -2,6 -2,2 -4,2 -7,2 -2,0 -4,0 -5,-2 -2,-1 -3,-3 -3,-6l0 -18 -98 0c-6,0 -9,-3 -9,-9l0 -160c0,-3 1,-5 2,-7 2,-2 4,-2 7,-2 2,0 4,0 6,2 1,1 2,4 2,7l0 151 72 0zm112 -27l-13 39c-1,1 -2,3 -4,4 -1,1 -2,1 -4,2 -3,0 -5,-1 -7,-3 -2,-1 -3,-3 -3,-6l1 -3 54 -160c1,-5 4,-8 8,-8 4,0 7,3 8,8l54 160 0 3c0,2 -1,4 -3,6 -2,2 -4,3 -6,3 -1,0 -2,-1 -4,-1 -1,-1 -3,-3 -4,-5l-13 -39 -64 0zm58 -18l-26 -78 -26 78 52 0zm284 54c0,3 -1,5 -3,7 -1,1 -3,2 -6,2 -2,0 -4,-1 -6,-3 -2,-1 -3,-3 -3,-6l0 -152 -71 0 0 152c0,3 -1,5 -3,7 -1,1 -3,2 -6,2 -2,0 -4,-1 -6,-3 -2,-1 -3,-3 -3,-6l0 -160c0,-6 3,-9 9,-9l89 0c6,0 9,3 9,9l0 160zm152 -27c0,10 -4,18 -11,25 -7,7 -15,11 -25,11l-35 0c-10,0 -18,-4 -25,-11 -7,-7 -11,-15 -11,-25l0 -107c0,-10 4,-18 10,-25 7,-7 16,-10 26,-10l35 0c10,0 18,3 25,10 7,7 11,15 11,25l0 107zm-18 0l0 -107c0,-5 -2,-9 -5,-12 -3,-4 -8,-6 -13,-6l-35 0c-5,0 -10,2 -13,5 -2,2 -3,4 -4,6 -1,2 -1,5 -1,7l0 107c0,5 1,9 5,13 2,1 4,3 6,4 2,1 4,1 7,1l35 0c5,0 9,-2 13,-5 3,-3 5,-8 5,-13zm86 18l17 -152c0,-6 3,-8 9,-8l54 0c5,0 8,3 8,9l0 151 9 0c6,0 9,3 9,9l0 18c0,2 -1,4 -2,6 -2,1 -4,2 -6,2 -3,0 -4,0 -6,-2 -2,-1 -3,-4 -3,-6l0 -9 -90 0 0 9c0,2 0,4 -2,6 -2,1 -4,2 -6,2 -2,0 -4,0 -6,-2 -2,-1 -3,-4 -3,-6l0 -18c0,-6 3,-9 9,-9l9 0zm71 0l0 -143 -37 0 -16 143 53 0zm152 18l-45 0c-10,0 -18,-4 -25,-11 -7,-7 -11,-15 -11,-25l0 -107c0,-10 4,-18 11,-25 7,-7 15,-10 25,-10l45 0c2,0 4,1 6,2 2,2 2,4 2,7 0,2 0,4 -2,5 -1,2 -4,3 -6,3l-45 0c-5,0 -9,2 -13,5 -2,2 -3,4 -4,6 0,2 -1,5 -1,7l0 107c0,5 2,9 5,13 2,1 4,3 6,4 2,1 5,1 7,1l45 0c2,0 4,1 6,3 2,1 2,4 2,6 0,2 0,4 -2,6 -1,2 -4,3 -6,3zm143 -89l0 -80c0,-3 0,-5 2,-7 2,-2 4,-2 6,-2 3,0 5,0 6,2 2,1 3,4 3,7l0 160c0,3 -1,5 -2,7 -2,1 -4,2 -7,2 -2,0 -4,-1 -6,-3 -2,-1 -2,-3 -2,-6l0 -63 -54 0c-10,0 -18,-3 -25,-10 -7,-7 -10,-15 -10,-25l0 -62c0,-3 0,-5 2,-7 2,-2 4,-2 6,-2 3,0 5,0 6,2 2,1 3,4 3,7l0 62c0,5 2,9 5,13 2,1 4,2 6,3 3,1 5,2 7,2l54 0zm80 -18l45 0c2,0 4,1 6,3 2,2 3,4 3,6 0,2 -1,4 -2,6 -2,2 -4,3 -7,3l-45 0 0 71 63 0c2,0 4,1 6,3 2,1 3,4 3,6 0,2 -1,4 -3,6 -1,2 -3,3 -6,3l-72 0c-6,0 -9,-3 -9,-9l0 -160c0,-6 3,-9 9,-9l72 0c2,0 4,1 6,2 2,2 3,4 3,7 0,2 -1,4 -3,6 -1,1 -3,2 -6,2l-63 0 0 54zm161 -54l-36 0c-2,0 -4,0 -6,-2 -2,-2 -2,-4 -2,-6 0,-2 0,-4 2,-6 1,-2 3,-3 6,-3l89 0c3,0 5,1 7,2 1,2 2,4 2,7 0,2 -1,4 -2,5 -1,2 -4,3 -7,3l-35 0 0 152c0,3 -1,5 -3,7 -1,1 -4,2 -6,2 -2,0 -5,-1 -6,-3 -2,-1 -3,-3 -3,-6l0 -152zm103 116l-13 39c0,1 -2,3 -3,4 -1,1 -3,1 -5,2 -2,0 -4,-1 -6,-3 -2,-1 -3,-3 -3,-6l1 -3 53 -160c2,-5 5,-8 8,-8 4,0 7,3 9,8l53 160 1 3c0,2 -1,4 -3,6 -2,2 -4,3 -6,3 -2,0 -3,-1 -4,-1 -2,-1 -3,-3 -5,-5l-12 -39 -65 0zm59 -18l-27 -78 -26 78 53 0zm257 -98l-63 0 0 152c0,3 0,5 -2,7 -2,1 -4,2 -7,2 -2,0 -4,-1 -6,-3 -1,-1 -2,-3 -2,-6l0 -160c0,-6 3,-9 9,-9l71 0c2,0 4,1 6,2 2,2 3,4 3,7 0,2 -1,4 -3,5 -1,2 -3,3 -6,3zm151 125c0,10 -3,18 -10,25 -7,7 -15,11 -25,11l-36 0c-9,0 -18,-4 -25,-11 -7,-7 -10,-15 -10,-25l0 -107c0,-10 3,-18 10,-25 7,-7 15,-10 25,-10l36 0c10,0 18,3 25,10 7,7 10,15 10,25l0 107zm-17 0l0 -107c0,-5 -2,-9 -5,-12 -4,-4 -8,-6 -13,-6l-36 0c-5,0 -9,2 -12,5 -2,2 -3,4 -4,6 -1,2 -2,5 -2,7l0 107c0,5 2,9 6,13 1,1 3,3 5,4 3,1 5,1 7,1l36 0c5,0 9,-2 13,-5 3,-3 5,-8 5,-13zm166 27c0,3 -1,5 -2,7 -2,1 -4,2 -7,2 -2,0 -4,-1 -6,-3 -2,-1 -3,-3 -3,-6l0 -152 -29 0 -42 154c-1,2 -2,3 -3,5 -2,1 -4,2 -6,2 -2,0 -5,-1 -6,-3 -2,-1 -3,-3 -3,-6 0,-1 0,-2 1,-3l44 -160c1,-4 4,-6 9,-6l44 0c6,0 9,3 9,9l0 160zm152 -27c0,10 -4,18 -11,25 -7,7 -15,11 -25,11l-35 0c-10,0 -18,-4 -25,-11 -8,-7 -11,-15 -11,-25l0 -107c0,-10 3,-18 10,-25 7,-7 16,-10 26,-10l35 0c10,0 18,3 25,10 7,7 11,15 11,25l0 107zm-18 0l0 -107c0,-5 -2,-9 -5,-12 -3,-4 -8,-6 -13,-6l-36 0c-4,0 -9,2 -12,5 -2,2 -3,4 -4,6 -1,2 -1,5 -1,7l0 107c0,5 1,9 5,13 2,1 3,3 6,4 2,1 4,1 6,1l36 0c5,0 9,-2 13,-5 3,-3 5,-8 5,-13zm157 36l-44 0c-10,0 -18,-4 -25,-11 -7,-7 -11,-15 -11,-25l0 -107c0,-10 4,-18 10,-25 7,-7 16,-10 26,-10l44 0c3,0 5,1 7,2 1,2 2,4 2,7 0,2 -1,4 -2,5 -2,2 -4,3 -7,3l-44 0c-5,0 -10,2 -13,5 -2,2 -3,4 -4,6 -1,2 -1,5 -1,7l0 107c0,5 1,9 5,13 2,1 4,3 6,4 2,1 4,1 7,1l44 0c3,0 5,1 7,3 1,1 2,4 2,6 0,2 -1,4 -2,6 -2,2 -4,3 -7,3zm153 -36c0,10 -4,18 -11,25 -6,7 -15,11 -25,11l-35 0c-10,0 -18,-4 -25,-11 -7,-7 -11,-15 -11,-25l0 -107c0,-10 4,-18 11,-25 6,-7 15,-10 25,-10l35 0c10,0 19,3 25,10 7,7 11,15 11,25l0 107zm-18 0l0 -107c0,-5 -2,-9 -5,-12 -3,-4 -8,-6 -13,-6l-35 0c-5,0 -10,2 -13,5 -2,2 -3,4 -4,6 -1,2 -1,5 -1,7l0 107c0,5 2,9 5,13 2,1 4,3 6,4 2,1 5,1 7,1l35 0c5,0 9,-2 13,-5 3,-3 5,-8 5,-13zm167 -66c5,3 9,7 12,13 3,5 5,11 5,18l0 35c0,10 -3,18 -10,25 -7,7 -16,11 -26,11l-62 0c-6,0 -9,-3 -9,-9l0 -160c0,-6 3,-9 9,-9l54 0c9,0 18,3 25,10 7,7 10,15 10,25l0 18c0,4 -1,8 -2,12 -1,4 -3,7 -6,11zm-72 13l0 71 53 0c5,0 10,-2 13,-5 4,-3 5,-8 5,-13l0 -35c0,-6 -1,-10 -5,-13 -3,-4 -7,-5 -13,-5l-53 0zm45 -18c5,0 9,-2 12,-5 4,-3 5,-8 5,-13l0 -18c0,-5 -1,-9 -5,-12 -3,-4 -7,-6 -12,-6l-45 0 0 54 45 0zm-3176 382c0,3 0,6 -2,7 -2,2 -4,2 -6,2 -3,0 -5,0 -7,-2 -1,-1 -2,-4 -2,-7l0 -151 -72 0 0 151c0,3 0,6 -2,7 -2,2 -4,2 -6,2 -3,0 -5,0 -7,-2 -1,-1 -2,-4 -2,-7l0 -160c0,-6 3,-9 9,-9l89 0c5,0 8,3 8,9l0 160zm77 -35l-13 38c-1,2 -2,4 -3,5 -1,1 -3,1 -5,1 -2,0 -5,0 -6,-2 -2,-2 -3,-4 -3,-6l0 -3 54 -161c2,-5 4,-7 8,-7 4,0 7,2 9,7l53 161 1 3c0,2 -1,4 -3,6 -2,2 -4,2 -7,2 -1,0 -2,0 -4,-1 -1,0 -3,-2 -4,-5l-13 -38 -64 0zm58 -18l-26 -79 -26 79 52 0zm143 -27l0 -80c0,-2 0,-4 2,-6 2,-2 4,-3 6,-3 3,0 5,1 6,3 2,1 3,3 3,6l0 160c0,3 -1,6 -2,7 -2,2 -4,2 -7,2 -2,0 -4,0 -6,-2 -2,-1 -2,-4 -2,-7l0 -62 -54 0c-10,0 -18,-3 -25,-10 -7,-7 -10,-16 -10,-25l0 -63c0,-2 0,-4 2,-6 2,-2 4,-3 6,-3 3,0 5,1 6,3 2,1 3,3 3,6l0 63c0,5 2,9 5,12 2,2 4,3 6,4 3,1 5,1 7,1l54 0zm80 -12l75 -74c2,-2 4,-3 6,-3 2,0 4,1 6,3 2,2 3,4 3,7 0,1 -1,3 -2,6l-53 52 54 97 1 5c0,2 0,4 -2,6 -2,1 -4,2 -7,2 -3,0 -5,-1 -7,-4l-53 -93 -21 21 0 67c0,3 -1,6 -2,7 -2,2 -4,2 -7,2 -2,0 -4,0 -6,-2 -2,-1 -3,-4 -3,-7l0 -160c0,-2 1,-4 3,-6 2,-2 4,-3 6,-3 3,0 5,1 6,2 2,2 3,4 3,7l0 68zm166 57l-13 38c-1,2 -2,4 -4,5 -1,1 -2,1 -4,1 -3,0 -5,0 -7,-2 -2,-2 -3,-4 -3,-6l1 -3 54 -161c1,-5 4,-7 8,-7 4,0 7,2 8,7l54 161 0 3c0,2 -1,4 -3,6 -2,2 -4,2 -6,2 -1,0 -2,0 -4,-1 -1,0 -3,-2 -4,-5l-13 -38 -64 0zm58 -18l-26 -79 -26 79 52 0zm355 -53c0,7 -3,14 -8,20 -5,4 -12,6 -19,6 -7,0 -13,-2 -18,-6 -5,-5 -8,-12 -8,-20l0 -36c0,-8 3,-15 8,-20 5,-4 11,-7 18,-7 8,0 14,3 19,7 5,5 8,11 8,20l0 36zm-71 106c0,3 -1,5 -3,7 -2,2 -4,2 -6,2 -4,0 -6,-1 -8,-4l-72 -130 0 125c0,3 -1,6 -3,7 -1,2 -3,2 -6,2 -2,0 -4,0 -6,-2 -2,-1 -3,-4 -3,-7l0 -160c0,-2 1,-4 3,-6 2,-2 4,-3 6,-3 3,0 6,2 8,5l72 130 0 -126c0,-2 1,-4 3,-6 2,-2 4,-3 6,-3 2,0 4,1 6,3 2,1 3,3 3,6l0 160zm53 -106l0 -36c0,-3 -1,-5 -2,-7 -2,-1 -4,-2 -7,-2 -2,0 -4,1 -6,2 -2,2 -3,4 -3,7l0 36c0,3 1,5 3,7 2,1 4,2 6,2 2,0 4,-1 6,-3 2,-1 3,-3 3,-6zm214 106c0,3 -1,6 -3,7 -2,2 -4,2 -6,2 -3,0 -5,0 -6,-2 -2,-1 -3,-4 -3,-7l0 -138 -21 20c-1,2 -3,3 -6,3 -2,0 -4,-1 -6,-3 -2,-2 -3,-4 -3,-6 0,-2 1,-4 3,-6l36 -36c1,-1 2,-2 3,-3 1,-1 3,-1 4,-1 2,0 4,1 5,3 2,2 3,4 3,7l0 160zm185 24c1,2 2,4 2,5 0,2 -1,4 -3,6 -2,2 -4,2 -7,2 -2,0 -5,-1 -7,-4 -8,-15 -15,-32 -20,-50 -2,-8 -3,-16 -5,-26 -1,-9 -2,-18 -2,-27 0,-36 9,-70 27,-103 1,-1 2,-2 3,-3 1,-1 3,-1 5,-2 2,0 4,1 6,3 2,2 3,4 3,6 0,2 -1,3 -2,5 -1,3 -3,7 -5,10 -2,3 -3,7 -5,11 -1,4 -3,7 -4,11 -1,4 -2,9 -4,13 -4,17 -6,33 -6,49 0,33 8,65 24,94zm100 -24c0,3 -1,6 -3,7 -1,2 -3,2 -6,2 -2,0 -4,0 -6,-2 -2,-1 -3,-4 -3,-7l0 -138 -20 20c-2,2 -4,3 -6,3 -2,0 -4,-1 -6,-3 -2,-2 -3,-4 -3,-6 0,-2 1,-4 2,-6l36 -36c1,-1 2,-2 4,-3 1,-1 2,-1 4,-1 1,0 3,1 5,3 1,2 2,4 2,7l0 160zm134 -30c0,11 -4,20 -11,28 -8,8 -17,11 -28,11l-11 0c-10,0 -19,-3 -27,-11 -8,-7 -12,-17 -12,-28l0 -99c0,-11 4,-20 12,-28 7,-8 16,-12 27,-12l11 0c11,0 20,4 28,12 7,7 11,17 11,28l0 99zm-18 0l0 -100c0,-5 -2,-10 -6,-15 -4,-4 -9,-6 -15,-6l-11 0c-6,0 -11,2 -15,6 -4,4 -6,10 -6,15l0 100c0,6 2,11 6,15 4,5 9,7 15,7l11 0c6,0 11,-2 15,-6 4,-5 6,-10 6,-16zm178 -50l0 72 54 0c4,0 9,-2 12,-5 4,-4 5,-8 5,-13l0 -36c0,-5 -1,-9 -5,-12 -3,-4 -7,-6 -12,-6l-54 0zm0 -17l53 0c10,0 18,3 26,10 7,7 10,15 10,25l0 36c0,10 -3,18 -10,25 -7,7 -16,10 -25,10l-63 0c-6,0 -9,-3 -9,-9l0 -160c0,-6 3,-9 9,-9l71 0c3,0 5,1 7,3 1,2 2,4 2,6 0,2 0,4 -2,6 -1,2 -4,3 -7,3l-62 0 0 54z"/>
    <path class="fil1 str0" d="M4974 1040l0 -107c0,-5 -1,-9 -5,-13 -3,-3 -7,-5 -13,-5l-18 0c-5,0 -9,2 -12,5 -2,2 -3,4 -4,6 -1,2 -1,4 -1,7l0 107c0,5 1,9 5,13 2,1 3,2 5,3 3,1 5,2 7,2l18 0c5,0 10,-2 13,-5 3,-4 5,-8 5,-13zm-89 -71l18 0 0 -36c0,-10 3,-18 10,-25 7,-7 16,-11 26,-11l17 0c10,0 19,4 26,11 6,7 10,15 10,25l0 107c0,10 -4,18 -10,25 -7,7 -16,10 -26,10l-17 0c-10,0 -18,-3 -26,-10 -7,-7 -10,-15 -10,-25l0 -54 -18 0 0 80c0,3 -1,6 -3,7 -1,2 -3,2 -6,2 -2,0 -4,0 -6,-2 -2,-1 -3,-4 -3,-7l0 -160c0,-2 1,-4 3,-6 2,-2 4,-3 6,-3 2,0 4,1 6,3 2,1 3,3 3,6l0 63zm241 97c0,3 -1,6 -2,7 -2,2 -4,2 -7,2 -2,0 -4,0 -6,-2 -2,-1 -3,-4 -3,-7l0 -151 -29 0 -42 154c-1,2 -2,3 -3,4 -2,2 -4,2 -6,2 -2,0 -4,0 -6,-2 -2,-1 -3,-3 -3,-6 0,-1 0,-2 1,-3l44 -160c1,-4 4,-7 9,-7l44 0c6,0 9,3 9,9l0 160zm152 0c0,3 -1,6 -3,7 -1,2 -3,2 -6,2 -2,0 -4,0 -6,-2 -2,-1 -3,-4 -3,-7l0 -151 -29 0 -42 154c-1,2 -2,3 -3,4 -2,2 -4,2 -6,2 -2,0 -5,0 -6,-2 -2,-1 -3,-3 -3,-6 0,-1 0,-2 1,-3l44 -160c1,-4 4,-7 9,-7l44 0c6,0 9,3 9,9l0 160zm63 -97l44 0c3,0 5,1 7,2 1,2 2,4 2,7 0,2 0,4 -2,6 -1,1 -4,2 -7,2l-44 0 0 72 62 0c3,0 5,1 7,2 1,2 2,4 2,7 0,2 -1,4 -2,6 -2,1 -4,2 -7,2l-71 0c-6,0 -9,-2 -9,-8l0 -161c0,-6 3,-9 9,-9l71 0c3,0 5,1 7,3 1,2 2,4 2,6 0,2 -1,4 -2,6 -2,2 -4,3 -7,3l-62 0 0 54zm161 -54l-36 0c-3,0 -5,-1 -7,-2 -1,-2 -2,-4 -2,-7 0,-2 1,-4 2,-6 2,-2 4,-3 7,-3l89 0c2,0 4,1 6,3 2,2 3,4 3,6 0,2 -1,4 -2,6 -2,2 -4,3 -7,3l-36 0 0 151c0,3 -1,6 -2,7 -2,2 -4,2 -7,2 -2,0 -4,0 -6,-2 -2,-1 -2,-4 -2,-7l0 -151zm125 54l44 0c3,0 5,1 7,2 1,2 2,4 2,7 0,2 0,4 -2,6 -1,1 -4,2 -7,2l-44 0 0 72 62 0c3,0 5,1 7,2 1,2 2,4 2,7 0,2 -1,4 -2,6 -2,1 -4,2 -7,2l-71 0c-6,0 -9,-2 -9,-8l0 -161c0,-6 3,-9 9,-9l71 0c3,0 5,1 7,3 1,2 2,4 2,6 0,2 -1,4 -2,6 -2,2 -4,3 -7,3l-62 0 0 54zm205 0l0 -63c0,-2 1,-4 3,-6 1,-2 4,-3 6,-3 2,0 4,1 6,3 2,1 3,3 3,6l0 160c0,3 -1,5 -3,7 -2,2 -4,2 -6,2 -2,0 -4,0 -6,-2 -2,-1 -3,-3 -3,-6l0 -81 -71 0 0 80c0,3 -1,6 -3,7 -1,2 -3,2 -6,2 -2,0 -4,0 -6,-2 -2,-1 -3,-4 -3,-7l0 -160c0,-2 1,-4 3,-6 2,-2 4,-3 6,-3 2,0 4,1 6,3 2,1 3,3 3,6l0 63 71 0zm81 0l44 0c3,0 5,1 7,2 1,2 2,4 2,7 0,2 0,4 -2,6 -1,1 -4,2 -7,2l-44 0 0 72 62 0c3,0 5,1 7,2 1,2 2,4 2,7 0,2 -1,4 -2,6 -2,1 -4,2 -7,2l-71 0c-6,0 -9,-2 -9,-8l0 -161c0,-6 3,-9 9,-9l71 0c3,0 5,1 7,3 1,2 2,4 2,6 0,2 -1,4 -2,6 -2,2 -4,3 -7,3l-62 0 0 54zm187 -89l-35 0c-3,0 -5,-1 -7,-3 -1,-2 -2,-4 -2,-6 0,-2 0,-4 2,-6 1,-2 4,-3 7,-3l35 0c3,0 5,1 7,3 1,2 2,4 2,6 0,2 -1,4 -2,6 -2,2 -4,3 -7,3zm36 186c0,3 -1,6 -3,7 -1,2 -3,2 -6,2 -2,0 -5,0 -6,-2 -2,-1 -3,-4 -3,-7l0 -125 -72 130c-1,2 -2,3 -4,4l-2 1c-1,0 -2,1 -3,1 -1,0 -3,-1 -6,-3 -1,-2 -2,-4 -2,-7l0 -161c0,-2 1,-4 3,-6 2,-2 4,-3 6,-3 2,0 4,1 6,3 2,1 3,3 3,6l0 126 72 -130c1,-1 2,-3 4,-4 1,-1 3,-2 5,-2 2,0 3,1 5,3 2,2 3,4 3,7l0 160zm61 33c-1,1 -2,2 -3,3l-3 1 -2 0c-2,0 -4,0 -6,-2 -2,-2 -3,-4 -3,-6 0,-1 0,-3 1,-5 7,-13 14,-29 18,-46 5,-16 7,-32 7,-48 0,-9 -1,-18 -2,-25 -1,-7 -2,-15 -4,-23l-4 -12 -2 -6 -2 -6c-3,-7 -6,-14 -11,-22l-1 -5c0,-2 1,-4 3,-6 2,-2 4,-2 6,-2 3,0 6,1 8,4 4,8 8,16 11,24 3,7 6,16 8,26 2,8 4,16 5,26 2,9 2,19 2,27 0,10 0,19 -1,28 -1,8 -3,17 -5,25 -4,17 -11,34 -20,50z"/>
   </g>
   <g>
    <path class="fil2 str1" d="M3113 6442l0 -9 0 -862 0 -861 0 -862 0 -862 0 -862 0 -862 0 -9"/>
    <path class="fil2 str1" d="M4690 6442l0 -9 0 -431 0 -431 0 -431 0 -430 0 -431 0 -431 0 -431 0 -431 0 -431 0 -431 0 -431 0 -431 0 -9"/>
    <path class="fil2 str1" d="M4690 6442l0 -9 0 -431 0 -431 0 -431 0 -430 0 -431 0 -431 0 -431 0 -431 0 -431 0 -431 0 -431 0 -431 0 -9"/>
    <path class="fil2 str1" d="M5478 6442l0 -9 0 -431 0 -431 0 -431 0 -430 0 -431 0 -431 0 -431 0 -431 0 -431 0 -431 0 -9"/>
    <path class="fil2 str1" d="M6266 6442l0 -9 0 -431 0 -431 0 -431 0 -430 0 -431 0 -431 0 -431 0 -431 0 -431 0 -431 0 -9"/>
    <path class="fil2 str1" d="M7055 6442l0 -9 0 -431 0 -431 0 -431 0 -430 0 -431 0 -431 0 -431 0 -431 0 -431 0 -431 0 -9"/>
    <path class="fil2 str1" d="M7843 6442l0 -9 0 -431 0 -431 0 -431 0 -430 0 -431 0 -431 0 -431 0 -431 0 -431 0 -431 0 -9"/>
    <path class="fil2 str1" d="M8631 6442l0 -9 0 -431 0 -431 0 -431 0 -430 0 -431 0 -431 0 -431 0 -431 0 -431 0 -431 0 -862 0 -9"/>
    <path class="fil2 str1" d="M3104 6433l9 0 1577 0 0 0 788 0 788 0 789 0 788 0 788 0 9 0"/>
    <path class="fil2 str1" d="M4681 6002l9 0 0 0 788 0 788 0 789 0 788 0 788 0 9 0"/>
    <path class="fil2 str1" d="M3104 5571l9 0 1577 0 0 0 788 0 788 0 789 0 788 0 788 0 9 0"/>
    <path class="fil2 str1" d="M4681 5140l9 0 0 0 788 0 788 0 789 0 788 0 788 0 9 0"/>
    <path class="fil2 str1" d="M3104 4710l9 0 1577 0 0 0 788 0 788 0 789 0 788 0 788 0 9 0"/>
    <path class="fil2 str1" d="M4681 4279l9 0 0 0 788 0 788 0 789 0 788 0 788 0 9 0"/>
    <path class="fil2 str1" d="M3104 3848l9 0 1577 0 0 0 788 0 788 0 789 0 788 0 788 0 9 0"/>
    <path class="fil2 str1" d="M4681 3417l9 0 0 0 788 0 788 0 789 0 788 0 788 0 9 0"/>
    <path class="fil2 str1" d="M3104 2986l9 0 1577 0 0 0 788 0 788 0 789 0 788 0 788 0 9 0"/>
    <path class="fil2 str1" d="M4681 2555l9 0 0 0 788 0 788 0 789 0 788 0 788 0 9 0"/>
    <path class="fil2 str1" d="M3104 2124l9 0 1577 0 0 0 788 0 788 0 789 0 788 0 788 0 9 0"/>
    <path class="fil2 str1" d="M4681 1693l9 0 0 0 9 0"/>
    <path class="fil2 str1" d="M3104 1262l9 0 1577 0 0 0 3941 0 9 0"/>
   </g>
   <path class="fil3 str2" d="M3427 2542l56 -56c2,-1 3,-2 5,-2 2,0 3,1 5,2 1,2 2,3 2,5 0,1 -1,3 -2,5l-40 39 41 73 1 3c0,2 -1,3 -2,5 -1,1 -3,2 -5,2 -2,0 -4,-1 -6,-4l-39 -69 -16 15 0 51c0,2 0,4 -2,5 -1,1 -2,2 -4,2 -2,0 -4,-1 -5,-2 -1,-1 -2,-3 -2,-5l0 -120c0,-2 1,-4 2,-5 1,-1 3,-2 5,-2 1,0 3,1 4,2 2,1 2,3 2,5l0 51zm117 42l-10 29c0,1 -1,3 -2,4 -1,0 -2,0 -4,1 -1,0 -3,-1 -4,-2 -2,-1 -2,-3 -2,-5l0 -2 40 -120c1,-4 4,-6 6,-6 3,0 5,2 7,6l40 120 0 2c0,2 -1,3 -2,5 -1,1 -3,2 -5,2 -1,0 -2,-1 -3,-1 -1,0 -2,-2 -3,-4l-9 -29 -49 0zm44 -13l-20 -59 -19 59 39 0zm119 -33l0 -47c0,-2 1,-3 2,-5 2,-1 3,-2 5,-2 2,0 3,1 5,2 1,1 2,3 2,5l0 120c0,2 -1,3 -2,5 -2,1 -3,2 -5,2 -2,0 -3,-1 -5,-2 -1,-1 -2,-3 -2,-5l0 -60 -53 0 0 60c0,2 -1,4 -2,5 -1,1 -3,2 -5,2 -1,0 -3,-1 -4,-2 -2,-1 -2,-3 -2,-5l0 -120c0,-2 0,-3 2,-5 1,-1 3,-2 4,-2 2,0 4,1 5,2 1,1 2,3 2,5l0 47 53 0zm54 66l13 -114c0,-4 2,-6 7,-6l40 0c4,0 6,2 6,7l0 113 7 0c5,0 7,3 7,7l0 13c0,2 -1,4 -2,5 -1,1 -3,2 -5,2 -1,0 -3,-1 -4,-2 -2,-1 -2,-2 -2,-5l0 -6 -67 0 0 6c0,2 -1,4 -2,5 -2,1 -3,2 -5,2 -1,0 -3,-1 -4,-2 -2,-1 -3,-2 -3,-5l0 -13c0,-4 3,-7 7,-7l7 0zm53 0l0 -107 -27 0 -12 107 39 0zm134 7c0,2 -1,4 -2,5 -2,1 -3,2 -5,2 -2,0 -3,-1 -5,-2 -1,-1 -2,-3 -2,-5l0 -94 -54 97c-1,2 -2,3 -3,3l-1 1c-1,0 -1,1 -2,1 -2,0 -3,-1 -5,-2 -1,-2 -2,-3 -2,-6l0 -120c0,-2 1,-3 2,-5 2,-1 3,-2 5,-2 2,0 3,1 5,2 1,1 2,3 2,5l0 94 54 -97c1,-1 2,-2 3,-3 1,-1 2,-2 3,-2 2,0 3,1 4,2 2,2 3,4 3,6l0 120zm40 -7l13 -114c0,-4 2,-6 7,-6l40 0c4,0 6,2 6,7l0 113 7 0c4,0 7,3 7,7l0 13c0,2 -1,4 -2,5 -2,1 -3,2 -5,2 -1,0 -3,-1 -4,-2 -2,-1 -3,-2 -3,-5l0 -6 -67 0 0 6c0,2 0,4 -2,5 -1,1 -2,2 -4,2 -2,0 -3,-1 -5,-2 -1,-1 -2,-2 -2,-5l0 -13c0,-4 2,-7 7,-7l7 0zm53 0l0 -107 -27 0 -12 107 39 0zm77 -20l-10 29c0,1 -1,3 -2,4 -1,0 -3,0 -4,1 -2,0 -3,-1 -5,-2 -1,-1 -2,-3 -2,-5l1 -2 40 -120c1,-4 3,-6 6,-6 3,0 5,2 6,6l40 120 1 2c0,2 -1,3 -3,5 -1,1 -2,2 -4,2 -1,0 -2,-1 -3,-1 -1,0 -2,-2 -3,-4l-10 -29 -48 0zm44 -13l-20 -59 -20 59 40 0zm59 -74l-27 0c-2,0 -3,0 -5,-1 -1,-2 -1,-3 -1,-5 0,-2 0,-3 1,-5 1,-1 3,-2 5,-2l67 0c2,0 3,1 5,2 1,2 2,3 2,5 0,1 -1,3 -2,4 -1,2 -3,2 -5,2l-27 0 0 114c0,2 0,4 -2,5 -1,1 -2,2 -4,2 -2,0 -4,-1 -5,-2 -1,-1 -2,-3 -2,-5l0 -114zm166 114c0,2 0,4 -2,5 -1,1 -2,2 -4,2 -2,0 -4,-1 -5,-2 -1,-1 -2,-3 -2,-5l0 -104 -15 15c-2,2 -3,2 -5,2 -2,0 -3,0 -5,-2 -1,-1 -2,-3 -2,-4 0,-2 1,-4 2,-5l27 -27c1,-1 2,-1 3,-2 1,-1 2,-1 3,-1 1,0 2,1 4,2 1,2 1,3 1,6l0 120z"/>
   <path class="fil3 str2" d="M3795 1540l0 61 7 0c8,0 14,-3 19,-8 5,-6 8,-12 8,-19l0 -7c0,-7 -3,-13 -8,-19 -5,-5 -11,-8 -19,-8l-7 0zm-13 61l0 -61 -6 0c-8,0 -14,3 -19,8 -6,5 -8,12 -8,19l0 7c0,7 2,13 8,19 5,5 11,8 19,8l6 0zm0 13l-6 0c-12,0 -21,-4 -29,-12 -8,-8 -11,-17 -11,-28l0 -7c0,-11 3,-20 11,-28 8,-8 18,-12 29,-12l6 0 0 -13c0,-2 1,-4 2,-5 2,-2 3,-2 5,-2 2,0 3,0 4,2 2,1 2,2 2,5l0 13 7 0c11,0 21,4 28,12 4,3 7,8 9,12 2,5 3,10 3,16l0 7c0,11 -4,20 -12,28 -7,8 -17,12 -28,12l-7 0 0 20c0,2 0,4 -1,5 -2,1 -3,1 -5,1 -2,0 -3,0 -5,-1 -1,-1 -2,-3 -2,-5l0 -20zm167 20c0,2 -1,4 -2,5 -1,1 -3,1 -5,1 -1,0 -3,0 -4,-1 -2,-1 -2,-3 -2,-5l0 -95 -54 98c-1,1 -2,2 -3,3l-2 1c0,0 -1,0 -2,1 -1,0 -3,-1 -4,-2 -1,-2 -2,-4 -2,-6l0 -120c0,-2 1,-4 2,-5 1,-1 3,-2 5,-2 1,0 3,1 4,2 2,1 2,2 2,5l0 94 54 -98c1,-1 2,-2 3,-3 1,-1 3,-1 4,-1 1,0 3,1 4,2 1,1 2,3 2,6l0 120zm107 -20c0,7 -3,13 -8,19 -5,5 -12,7 -19,7l-27 0c-7,0 -13,-2 -18,-7 -6,-6 -8,-12 -8,-19l0 -80c0,-8 2,-14 7,-19 6,-5 12,-8 19,-8l27 0c7,0 14,3 19,8 5,5 8,11 8,19l0 80zm-14 0l0 -80c0,-4 -1,-7 -3,-10 -3,-2 -6,-4 -10,-4l-27 0c-3,0 -7,1 -9,4 -1,1 -2,3 -3,4 -1,2 -1,4 -1,6l0 80c0,4 1,7 4,9 1,1 3,2 4,3 2,1 4,1 5,1l27 0c4,0 7,-1 10,-4 2,-2 3,-5 3,-9zm-601 123l56 -55c1,-1 3,-2 5,-2 1,0 3,1 4,2 2,1 2,3 2,5 0,1 0,2 -2,4l-39 40 41 72 1 4c0,2 -1,3 -3,4 -1,2 -3,2 -5,2 -2,0 -4,-1 -5,-3l-39 -70 -16 16 0 51c0,2 -1,3 -2,5 -1,1 -3,1 -5,1 -2,0 -3,0 -5,-1 -1,-1 -2,-3 -2,-5l0 -121c0,-1 1,-3 3,-4 1,-1 2,-2 4,-2 2,0 3,0 5,1 1,2 2,3 2,5l0 51zm117 43l-10 29c-1,1 -1,2 -3,3 0,1 -2,1 -3,1 -2,0 -3,0 -5,-2 -1,-1 -2,-2 -2,-4l0 -2 41 -121c1,-3 3,-5 6,-5 3,0 5,2 6,5l40 121 1 2c0,2 -1,3 -3,5 -1,1 -3,1 -4,1 -1,0 -2,0 -3,0 -1,-1 -2,-2 -3,-4l-10 -29 -48 0zm44 -14l-20 -58 -20 58 40 0zm119 -33l0 -46c0,-2 1,-4 2,-5 1,-1 3,-2 5,-2 1,0 3,0 4,2 2,1 2,2 2,5l0 120c0,1 0,3 -2,5 -1,1 -3,1 -4,1 -2,0 -4,0 -5,-1 -1,-1 -2,-3 -2,-5l0 -60 -54 0 0 60c0,2 0,3 -1,5 -2,1 -3,1 -5,1 -2,0 -3,0 -5,-1 -1,-1 -2,-3 -2,-5l0 -120c0,-2 1,-4 2,-5 2,-1 3,-2 5,-2 2,0 3,1 4,2 2,1 2,2 2,5l0 46 54 0zm54 67l13 -114c0,-4 2,-6 6,-6l40 0c5,0 7,2 7,7l0 113 7 0c4,0 6,2 6,7l0 13c0,2 0,3 -2,5 -1,1 -3,2 -4,2 -2,0 -3,-1 -5,-2 -1,-1 -2,-3 -2,-5l0 -7 -67 0 0 7c0,2 0,3 -2,5 -1,1 -3,2 -4,2 -2,0 -3,-1 -5,-2 -1,-1 -2,-3 -2,-5l0 -13c0,-5 2,-7 7,-7l7 0zm53 0l0 -107 -28 0 -12 107 40 0zm133 7c0,2 -1,3 -2,5 -1,1 -3,1 -5,1 -1,0 -3,0 -4,-1 -2,-1 -2,-3 -2,-5l0 -95 -54 98c-1,1 -2,2 -3,3l-2 1c0,0 -1,0 -2,1 -1,-1 -3,-1 -4,-3 -1,-1 -2,-3 -2,-5l0 -120c0,-2 1,-4 2,-5 1,-1 3,-2 5,-2 1,0 3,1 4,2 2,1 2,2 2,5l0 94 54 -98c1,-1 2,-2 3,-3 1,-1 3,-1 4,-1 1,0 3,1 4,2 1,1 2,3 2,6l0 120zm41 -7l12 -114c0,-4 3,-6 7,-6l40 0c4,0 7,2 7,7l0 113 6 0c5,0 7,2 7,7l0 13c0,2 -1,3 -2,5 -1,1 -3,2 -4,2 -2,0 -3,-1 -5,-2 -1,-1 -2,-3 -2,-5l0 -7 -67 0 0 7c0,2 -1,3 -2,5 -1,1 -3,2 -5,2 -1,0 -3,-1 -4,-2 -2,-1 -2,-3 -2,-5l0 -13c0,-5 2,-7 6,-7l8 0zm52 0l0 -107 -27 0 -12 107 39 0zm77 -20l-9 29c-1,1 -2,2 -3,3 -1,1 -2,1 -4,1 -1,0 -3,0 -4,-2 -2,-1 -2,-2 -2,-4l0 -2 40 -121c2,-3 4,-5 6,-5 3,0 5,2 7,5l40 121 0 2c0,2 -1,3 -2,5 -1,1 -3,1 -5,1 -1,0 -2,0 -3,0 -1,-1 -2,-2 -3,-4l-9 -29 -49 0zm44 -14l-20 -58 -19 58 39 0zm59 -73l-26 0c-2,0 -4,0 -5,-2 -1,-1 -2,-3 -2,-4 0,-2 1,-3 2,-5 1,-1 3,-2 5,-2l66 0c2,0 4,1 5,2 1,1 2,3 2,5 0,1 0,3 -2,4 -1,1 -2,2 -5,2l-26 0 0 114c0,2 -1,3 -2,5 -1,1 -3,1 -5,1 -2,0 -3,0 -5,-1 -1,-1 -2,-3 -2,-5l0 -114zm71 87l-10 29c-1,1 -1,2 -3,3 0,1 -2,1 -3,1 -2,0 -3,0 -5,-2 -1,-1 -2,-2 -2,-4l0 -2 41 -121c1,-3 3,-5 6,-5 3,0 5,2 6,5l40 121 1 2c0,2 -1,3 -3,5 -1,1 -3,1 -4,1 -1,0 -2,0 -3,0 -1,-1 -2,-2 -3,-4l-10 -29 -48 0zm44 -14l-20 -58 -20 58 40 0z"/>
   <path class="fil3 str2" d="M5129 1670l57 -56c1,-1 3,-2 4,-2 2,0 3,1 5,2 1,2 2,3 2,5 0,1 -1,3 -2,5l-40 39 41 73 1 3c0,2 0,3 -2,5 -1,1 -3,2 -5,2 -2,0 -4,-1 -5,-4l-40 -69 -16 15 0 51c0,2 0,4 -1,5 -2,1 -3,2 -5,2 -2,0 -4,-1 -5,-2 -1,-1 -2,-3 -2,-5l0 -120c0,-2 1,-4 2,-5 2,-1 3,-2 5,-2 1,0 3,1 4,2 2,1 2,3 2,5l0 51zm167 49c0,7 -2,14 -8,19 -5,5 -11,8 -19,8l-26 0c-7,0 -14,-3 -19,-8 -5,-5 -8,-12 -8,-19l0 -80c0,-7 3,-14 8,-19 5,-5 11,-8 19,-8l26 0c8,0 14,3 19,8 6,5 8,12 8,19l0 80zm-13 0l0 -80c0,-4 -1,-7 -4,-10 -2,-2 -6,-3 -10,-3l-26 0c-4,0 -7,1 -10,3 -1,2 -2,3 -3,5 0,1 -1,3 -1,5l0 80c0,4 2,7 4,10 2,1 3,2 5,3 1,0 3,0 5,0l26 0c4,0 7,-1 10,-3 3,-3 4,-6 4,-10zm117 20c0,2 0,4 -2,5 -1,1 -2,2 -4,2 -2,0 -4,-1 -5,-2 -1,-1 -2,-3 -2,-5l0 -113 -22 0 -32 115c0,1 -1,2 -2,3 -1,1 -3,2 -4,2 -2,0 -4,-1 -5,-2 -1,-1 -2,-3 -2,-5 0,-1 0,-1 1,-2l33 -120c1,-3 3,-5 6,-5l34 0c4,0 6,2 6,7l0 120zm107 0c0,2 -1,4 -2,5 -1,1 -3,2 -5,2 -2,0 -3,-1 -4,-2 -2,-1 -2,-3 -2,-5l0 -94 -55 97c0,2 -1,3 -3,4l-1 0c0,1 -1,1 -2,1 -1,0 -3,-1 -4,-2 -2,-1 -2,-3 -2,-6l0 -120c0,-2 1,-3 2,-5 1,-1 3,-2 5,-2 1,0 3,1 4,2 1,1 2,3 2,5l0 94 54 -97c1,-1 2,-2 3,-3 1,-1 3,-2 4,-2 1,0 3,1 4,2 1,2 2,4 2,6l0 120zm93 -60l0 -60c0,-2 1,-4 2,-5 2,-1 3,-2 5,-2 2,0 3,1 5,2 1,1 2,3 2,5l0 120c0,2 -1,4 -2,5 -2,1 -3,2 -5,2 -2,0 -3,-1 -5,-2 -1,-1 -2,-3 -2,-5l0 -47 -40 0c-7,0 -13,-2 -19,-8 -5,-5 -7,-11 -7,-18l0 -47c0,-2 0,-4 2,-5 1,-1 2,-2 4,-2 2,0 3,1 5,2 1,1 2,3 2,5l0 47c0,3 1,7 4,9 1,1 2,2 4,3 2,1 4,1 5,1l40 0zm54 -13l33 0c2,0 4,0 5,2 1,1 2,3 2,4 0,2 -1,3 -2,5 -1,1 -3,2 -5,2l-33 0 0 53 46 0c2,0 4,1 5,3 2,1 2,2 2,4 0,2 0,3 -2,5 -1,1 -2,2 -5,2l-53 0c-4,0 -7,-2 -7,-7l0 -120c0,-5 3,-7 7,-7l53 0c2,0 4,1 5,2 2,2 2,3 2,5 0,1 0,3 -2,4 -1,2 -2,3 -5,3l-46 0 0 40zm133 80l-33 0c-8,0 -14,-3 -19,-8 -5,-5 -8,-12 -8,-19l0 -80c0,-7 3,-14 8,-19 5,-5 11,-8 19,-8l33 0c2,0 3,1 5,2 1,2 2,3 2,5 0,1 -1,3 -2,4 -1,2 -3,3 -5,3l-33 0c-4,0 -7,1 -10,3 -1,2 -2,3 -3,5 -1,1 -1,3 -1,5l0 80c0,4 1,7 4,10 1,1 3,2 4,3 2,0 4,0 6,0l33 0c2,0 3,1 5,3 1,1 2,2 2,4 0,2 -1,3 -2,5 -1,1 -3,2 -5,2zm67 -120l-27 0c-2,0 -4,-1 -5,-2 -1,-2 -2,-3 -2,-5 0,-2 1,-3 2,-5 1,-1 3,-2 5,-2l67 0c1,0 3,1 4,2 2,2 2,3 2,5 0,1 0,3 -1,4 -1,2 -3,3 -5,3l-27 0 0 113c0,2 -1,4 -2,5 -1,1 -3,2 -5,2 -1,0 -3,-1 -4,-2 -2,-1 -2,-3 -2,-5l0 -113zm140 44c4,2 7,5 9,9 3,4 4,9 4,13l0 27c0,7 -3,14 -8,19 -5,5 -11,8 -19,8l-46 0c-5,0 -7,-2 -7,-7l0 -120c0,-5 2,-7 7,-7l40 0c7,0 13,3 19,8 5,5 7,12 7,19l0 13c0,3 0,6 -1,9 -1,3 -3,6 -5,9zm-54 9l0 53 40 0c4,0 7,-1 10,-3 2,-3 4,-6 4,-10l0 -27c0,-3 -2,-7 -4,-9 -3,-3 -6,-4 -10,-4l-40 0zm34 -13c3,0 7,-2 9,-4 3,-3 4,-6 4,-10l0 -13c0,-4 -1,-7 -4,-10 -2,-2 -5,-3 -9,-3l-34 0 0 40 34 0zm140 53c0,7 -3,14 -8,19 -5,5 -12,8 -19,8l-27 0c-7,0 -13,-3 -18,-8 -6,-5 -8,-12 -8,-19l0 -80c0,-7 2,-14 7,-19 6,-5 12,-8 19,-8l27 0c7,0 14,3 19,8 5,5 8,12 8,19l0 80zm-14 0l0 -80c0,-4 -1,-7 -3,-10 -3,-2 -6,-3 -10,-3l-27 0c-3,0 -7,1 -9,3 -1,2 -2,3 -3,5 -1,1 -1,3 -1,5l0 80c0,4 1,7 4,10 1,1 3,2 4,3 2,0 4,0 5,0l27 0c4,0 7,-1 10,-3 2,-3 3,-6 3,-10zm184 0c0,7 -3,14 -8,19 -5,5 -11,8 -19,8l-26 0c-8,0 -14,-3 -19,-8 -5,-5 -8,-12 -8,-19l0 -80c0,-7 3,-14 8,-19 5,-5 11,-8 19,-8l26 0c8,0 14,3 19,8 5,5 8,12 8,19l0 80zm-13 0l0 -80c0,-4 -2,-7 -4,-10 -3,-2 -6,-3 -10,-3l-26 0c-4,0 -7,1 -10,3 -1,2 -2,3 -3,5 0,1 -1,3 -1,5l0 80c0,4 1,7 4,10 1,1 3,2 4,3 2,0 4,0 6,0l26 0c4,0 7,-1 10,-3 2,-3 4,-6 4,-10zm77 -93l-27 0c-2,0 -3,-1 -5,-2 -1,-2 -1,-3 -1,-5 0,-2 0,-3 1,-5 1,-1 3,-2 5,-2l67 0c2,0 3,1 5,2 1,2 2,3 2,5 0,1 -1,3 -2,4 -1,2 -3,3 -5,3l-27 0 0 113c0,2 0,4 -2,5 -1,1 -3,2 -4,2 -2,0 -4,-1 -5,-2 -1,-1 -2,-3 -2,-5l0 -113zm167 113c0,2 -1,4 -2,5 -1,1 -3,2 -5,2 -1,0 -3,-1 -4,-2 -2,-1 -3,-3 -3,-5l0 -95 -27 46c-2,3 -4,4 -6,4 -2,0 -4,-1 -6,-4l-28 -46 0 95c0,2 0,4 -1,5 -2,1 -3,2 -5,2 -2,0 -3,-1 -5,-2 -1,-1 -2,-3 -2,-5l0 -119c0,-3 1,-5 2,-6 1,-1 3,-2 4,-2 2,0 3,0 4,1 1,0 2,2 3,3l34 57 34 -57c2,-3 4,-4 7,-4 1,0 3,1 4,2 1,1 2,3 2,6l0 119zm40 -73l33 0c2,0 4,0 5,2 1,1 2,3 2,4 0,2 -1,3 -2,5 -1,1 -3,2 -5,2l-33 0 0 53 46 0c2,0 4,1 5,3 1,1 2,2 2,4 0,2 0,3 -2,5 -1,1 -2,2 -5,2l-53 0c-5,0 -7,-2 -7,-7l0 -120c0,-5 2,-7 7,-7l53 0c2,0 4,1 5,2 1,2 2,3 2,5 0,1 0,3 -2,4 -1,2 -2,3 -5,3l-46 0 0 40zm113 -40l-27 0c-2,0 -3,-1 -5,-2 -1,-2 -1,-3 -1,-5 0,-2 0,-3 1,-5 1,-1 3,-2 5,-2l67 0c2,0 3,1 5,2 1,2 2,3 2,5 0,1 -1,3 -2,4 -1,2 -3,3 -5,3l-27 0 0 113c0,2 0,4 -2,5 -1,1 -2,2 -4,2 -2,0 -4,-1 -5,-2 -1,-1 -2,-3 -2,-5l0 -113zm147 93c0,7 -3,14 -8,19 -5,5 -12,8 -19,8l-27 0c-7,0 -13,-3 -18,-8 -6,-5 -8,-12 -8,-19l0 -80c0,-7 2,-14 7,-19 6,-5 12,-8 19,-8l27 0c7,0 14,3 19,8 5,5 8,12 8,19l0 80zm-14 0l0 -80c0,-4 -1,-7 -3,-10 -3,-2 -6,-3 -10,-3l-27 0c-4,0 -7,1 -9,3 -2,2 -3,3 -3,5 -1,1 -1,3 -1,5l0 80c0,4 1,7 4,10 1,1 2,2 4,3 2,0 4,0 5,0l27 0c4,0 7,-1 9,-3 3,-3 4,-6 4,-10zm64 -49l56 -56c2,-1 3,-2 5,-2 2,0 3,1 5,2 1,2 2,3 2,5 0,1 -1,3 -2,5l-40 39 41 73 1 3c0,2 -1,3 -2,5 -1,1 -3,2 -5,2 -2,0 -4,-1 -6,-4l-39 -69 -16 15 0 51c0,2 0,4 -2,5 -1,1 -2,2 -4,2 -2,0 -4,-1 -5,-2 -1,-1 -2,-3 -2,-5l0 -120c0,-2 1,-4 2,-5 1,-1 3,-2 5,-2 1,0 3,1 4,2 2,1 2,3 2,5l0 51zm227 69c0,2 -1,4 -2,5 -2,1 -3,2 -5,2 -2,0 -3,-1 -5,-2 -1,-1 -2,-3 -2,-5l0 -94 -54 97c-1,2 -2,3 -3,4l-1 0c-1,1 -1,1 -2,1 -2,0 -3,-1 -5,-2 -1,-1 -1,-3 -1,-6l0 -120c0,-2 0,-3 2,-5 1,-1 2,-2 4,-2 2,0 3,1 5,2 1,1 2,3 2,5l0 94 54 -97c1,-1 2,-2 3,-3 1,-1 2,-2 3,-2 2,0 3,1 5,2 1,2 2,4 2,6l0 120zm66 -60l-20 0c-2,0 -3,-1 -5,-2 -1,-1 -1,-3 -1,-5 0,-1 0,-3 1,-4 2,-2 3,-2 5,-2l20 0c4,0 7,-2 10,-4 2,-3 4,-6 4,-10l0 -13c0,-4 -2,-7 -4,-10 -3,-2 -6,-3 -10,-3l-13 0c-3,0 -6,0 -8,2 -2,2 -4,4 -5,7 0,1 -1,2 -2,3 0,0 -1,1 -2,1l-2 0c-2,0 -3,0 -5,-1 -1,-2 -2,-3 -2,-5l1 -3c1,-5 5,-9 9,-13 5,-3 10,-5 16,-5l13 0c8,0 14,3 19,8 5,5 8,12 8,19l0 13c0,4 -1,8 -2,11 -2,4 -4,7 -7,9 6,5 9,12 9,20l0 27c0,7 -3,14 -8,19 -5,5 -11,8 -19,8l-13 0c-6,0 -11,-2 -16,-5 -4,-4 -7,-8 -9,-14l-1 -2c0,-2 1,-3 2,-5 2,-1 3,-2 5,-2 3,0 5,2 6,5 1,3 3,5 5,7 3,2 5,2 8,2l13 0c4,0 7,-1 10,-3 2,-3 4,-6 4,-10l0 -27c0,-4 -1,-7 -3,-9 -3,-3 -6,-4 -11,-4zm67 0l0 53 40 0c4,0 7,-1 9,-3 3,-3 4,-6 4,-10l0 -27c0,-3 -1,-7 -3,-9 -3,-3 -6,-4 -10,-4l-40 0zm0 -13l40 0c7,0 13,2 19,7 5,6 8,12 8,19l0 27c0,7 -3,14 -8,19 -5,5 -12,8 -19,8l-47 0c-4,0 -6,-2 -6,-7l0 -120c0,-5 2,-7 6,-7l54 0c1,0 3,1 4,2 2,2 2,3 2,5 0,1 0,3 -1,4 -1,2 -3,3 -5,3l-47 0 0 40zm173 73c0,2 0,4 -2,5 -1,1 -2,2 -4,2 -2,0 -4,-1 -5,-2 -1,-1 -2,-3 -2,-5l0 -94 -54 97c-1,2 -2,3 -3,4l-1 0c-1,1 -2,1 -3,1 -1,0 -2,-1 -4,-2 -1,-1 -2,-3 -2,-6l0 -120c0,-2 1,-3 2,-5 2,-1 3,-2 5,-2 2,0 3,1 5,2 1,1 2,3 2,5l0 94 54 -97c0,-1 1,-2 3,-3 1,-1 2,-2 3,-2 2,0 3,1 4,2 2,2 2,4 2,6l0 120zm40 -60l40 0c4,0 7,-1 10,-4 2,-2 4,-5 4,-9l0 -27c0,-4 -1,-7 -4,-10 -3,-2 -6,-3 -10,-3l-40 0 0 53zm0 13l0 47c0,2 0,4 -2,5 -1,1 -2,2 -4,2 -2,0 -4,-1 -5,-2 -1,-1 -2,-3 -2,-5l0 -120c0,-5 2,-7 7,-7l46 0c8,0 14,3 19,8 5,5 8,12 8,19l0 27c0,7 -3,13 -8,18 -5,6 -11,8 -19,8l-40 0zm104 20l-10 29c0,2 -1,3 -2,4 -1,0 -2,1 -4,1 -2,0 -3,-1 -5,-2 -1,-1 -2,-3 -2,-5l1 -2 40 -120c1,-4 3,-6 6,-6 3,0 5,2 6,6l40 120 1 2c0,2 -1,4 -2,5 -2,1 -3,2 -5,2 -1,0 -2,0 -3,-1 -1,0 -2,-2 -3,-4l-10 -29 -48 0zm44 -13l-20 -59 -20 59 40 0zm59 -73l-27 0c-2,0 -3,-1 -4,-2 -2,-2 -2,-3 -2,-5 0,-2 0,-3 1,-5 2,-1 3,-2 5,-2l67 0c2,0 4,1 5,2 1,2 2,3 2,5 0,1 -1,3 -2,4 -1,2 -3,3 -5,3l-27 0 0 113c0,2 0,4 -1,5 -2,1 -3,2 -5,2 -2,0 -4,-1 -5,-2 -1,-1 -2,-3 -2,-5l0 -113zm87 40l33 0c2,0 4,0 5,2 1,1 2,3 2,4 0,2 -1,3 -2,5 -1,1 -2,2 -5,2l-33 0 0 53 47 0c2,0 3,1 4,3 2,1 2,2 2,4 0,2 0,3 -1,5 -1,1 -3,2 -5,2l-54 0c-4,0 -7,-2 -7,-7l0 -120c0,-5 3,-7 7,-7l54 0c2,0 3,1 4,2 2,2 2,3 2,5 0,1 0,3 -1,4 -1,2 -3,3 -5,3l-47 0 0 40zm160 73c0,2 -1,4 -2,5 -1,1 -3,2 -5,2 -1,0 -3,-1 -4,-2 -2,-1 -2,-3 -2,-5l0 -113 -22 0 -32 115c0,1 -1,2 -2,3 -1,1 -3,2 -4,2 -2,0 -4,-1 -5,-2 -1,-1 -2,-3 -2,-5 0,-1 0,-1 0,-2l34 -120c1,-3 3,-5 6,-5l33 0c5,0 7,2 7,7l0 120zm40 -73l33 0c2,0 4,0 5,2 1,1 2,3 2,4 0,2 0,3 -2,5 -1,1 -2,2 -5,2l-33 0 0 53 47 0c2,0 3,1 5,3 1,1 1,2 1,4 0,2 0,3 -1,5 -1,1 -3,2 -5,2l-54 0c-4,0 -6,-2 -6,-7l0 -120c0,-5 2,-7 6,-7l54 0c2,0 3,1 5,2 1,2 1,3 1,5 0,1 0,3 -1,4 -1,2 -3,3 -5,3l-47 0 0 40zm133 -67l-26 0c-2,0 -4,-1 -5,-2 -1,-1 -2,-3 -2,-5 0,-1 1,-3 2,-4 1,-2 2,-2 5,-2l26 0c2,0 4,0 5,2 1,1 2,3 2,4 0,2 -1,3 -2,5 -1,1 -2,2 -5,2zm27 140c0,2 -1,4 -2,5 -1,1 -3,2 -5,2 -1,0 -3,-1 -4,-2 -2,-1 -2,-3 -2,-5l0 -94 -54 97c-1,2 -2,3 -3,4l-2 0c0,1 -1,1 -2,1 -1,0 -3,-1 -4,-2 -1,-1 -2,-3 -2,-6l0 -120c0,-2 1,-3 2,-5 1,-1 3,-2 5,-2 1,0 3,1 4,2 2,1 2,3 2,5l0 94 54 -97c1,-1 2,-2 3,-3 1,-1 3,-2 4,-2 1,0 3,1 4,2 1,2 2,4 2,6l0 120z"/>
   <path class="fil3 str2" d="M3427 3441l56 -56c2,-1 3,-2 5,-2 2,0 3,1 5,2 1,2 2,3 2,5 0,1 -1,3 -2,4l-40 40 41 73 1 3c0,2 -1,3 -2,5 -1,1 -3,2 -5,2 -2,0 -4,-2 -6,-4l-39 -69 -16 15 0 51c0,2 0,4 -2,5 -1,1 -2,2 -4,2 -2,0 -4,-1 -5,-2 -1,-1 -2,-3 -2,-5l0 -120c0,-2 1,-4 2,-5 1,-1 3,-2 5,-2 1,0 3,1 4,2 2,1 2,2 2,5l0 51zm117 42l-10 29c0,1 -1,3 -2,3 -1,1 -2,1 -4,2 -1,0 -3,-1 -4,-2 -2,-1 -2,-3 -2,-5l0 -2 40 -120c1,-4 4,-6 6,-6 3,0 5,2 7,6l40 120 0 2c0,2 -1,3 -2,5 -1,1 -3,2 -5,2 -1,0 -2,-1 -3,-1 -1,0 -2,-2 -3,-4l-9 -29 -49 0zm44 -13l-20 -59 -19 59 39 0zm119 -33l0 -47c0,-2 1,-4 2,-5 2,-1 3,-2 5,-2 2,0 3,1 5,2 1,1 2,3 2,5l0 120c0,2 -1,3 -2,5 -2,1 -3,2 -5,2 -2,0 -3,-1 -5,-2 -1,-1 -2,-3 -2,-5l0 -60 -53 0 0 60c0,2 -1,4 -2,5 -1,1 -3,2 -5,2 -1,0 -3,-1 -4,-2 -2,-1 -2,-3 -2,-5l0 -120c0,-2 0,-4 2,-5 1,-1 3,-2 4,-2 2,0 4,1 5,2 1,1 2,3 2,5l0 47 53 0zm54 66l13 -114c0,-4 2,-6 7,-6l40 0c4,0 6,2 6,7l0 113 7 0c5,0 7,3 7,7l0 13c0,2 -1,4 -2,5 -1,1 -3,2 -5,2 -1,0 -3,-1 -4,-2 -2,-1 -2,-3 -2,-5l0 -6 -67 0 0 6c0,2 -1,4 -2,5 -2,1 -3,2 -5,2 -1,0 -3,-1 -4,-2 -2,-1 -3,-3 -3,-5l0 -13c0,-4 3,-7 7,-7l7 0zm53 0l0 -107 -27 0 -12 107 39 0zm134 7c0,2 -1,4 -2,5 -2,1 -3,2 -5,2 -2,0 -3,-1 -5,-2 -1,-1 -2,-3 -2,-5l0 -94 -54 97c-1,2 -2,3 -3,3l-1 1c-1,0 -1,1 -2,1 -2,0 -3,-1 -5,-2 -1,-2 -2,-4 -2,-6l0 -120c0,-2 1,-4 2,-5 2,-1 3,-2 5,-2 2,0 3,1 5,2 1,1 2,3 2,5l0 94 54 -97c1,-1 2,-2 3,-4 1,0 2,-1 3,-1 2,0 3,1 4,2 2,2 3,3 3,6l0 120zm40 -7l13 -114c0,-4 2,-6 7,-6l40 0c4,0 6,2 6,7l0 113 7 0c4,0 7,3 7,7l0 13c0,2 -1,4 -2,5 -2,1 -3,2 -5,2 -1,0 -3,-1 -4,-2 -2,-1 -3,-3 -3,-5l0 -6 -67 0 0 6c0,2 0,4 -2,5 -1,1 -2,2 -4,2 -2,0 -3,-1 -5,-2 -1,-1 -2,-3 -2,-5l0 -13c0,-4 2,-7 7,-7l7 0zm53 0l0 -107 -27 0 -12 107 39 0zm77 -20l-10 29c0,1 -1,3 -2,3 -1,1 -3,1 -4,2 -2,0 -3,-1 -5,-2 -1,-1 -2,-3 -2,-5l1 -2 40 -120c1,-4 3,-6 6,-6 3,0 5,2 6,6l40 120 1 2c0,2 -1,3 -3,5 -1,1 -2,2 -4,2 -1,0 -2,-1 -3,-1 -1,0 -2,-2 -3,-4l-10 -29 -48 0zm44 -13l-20 -59 -20 59 40 0zm59 -74l-27 0c-2,0 -3,0 -5,-1 -1,-2 -1,-3 -1,-5 0,-2 0,-3 1,-5 1,-1 3,-2 5,-2l67 0c2,0 3,1 5,2 1,2 2,3 2,5 0,1 -1,3 -2,4 -1,2 -3,2 -5,2l-27 0 0 114c0,2 0,4 -2,5 -1,1 -2,2 -4,2 -2,0 -4,-1 -5,-2 -1,-1 -2,-3 -2,-5l0 -114zm188 39l-43 68 41 0c2,0 4,1 5,2 1,2 2,3 2,5 0,2 -1,3 -2,4 -1,2 -3,3 -5,3l-53 0c-5,0 -7,-2 -7,-6 0,-1 0,-3 1,-5l50 -78c1,-4 2,-7 2,-10 0,-6 -2,-11 -7,-15 -2,-2 -4,-4 -7,-5 -3,-1 -6,-2 -9,-2 -3,0 -7,1 -10,3 -3,2 -5,5 -7,8 -1,1 -2,1 -3,2l-3 1c-2,0 -3,-1 -5,-2 -1,-1 -2,-3 -2,-5 0,-1 1,-2 1,-4 3,-4 7,-8 13,-11 2,-2 5,-3 7,-4 3,0 6,-1 8,-1 10,0 19,4 27,10 7,7 10,16 10,25 0,6 -1,11 -4,17z"/>
   <path class="fil3 str2" d="M3427 4275l56 -56c2,-1 3,-1 5,-1 2,0 3,0 5,2 1,1 2,3 2,4 0,2 -1,3 -2,5l-40 39 41 73 1 4c0,1 -1,3 -2,4 -1,1 -3,2 -5,2 -2,0 -4,-1 -6,-4l-39 -69 -16 16 0 50c0,2 0,4 -2,5 -1,1 -2,2 -4,2 -2,0 -4,-1 -5,-2 -1,-1 -2,-2 -2,-5l0 -120c0,-2 1,-3 2,-5 1,-1 3,-1 5,-1 1,0 3,0 4,1 2,1 2,3 2,5l0 51zm117 43l-10 28c0,2 -1,3 -2,4 -1,0 -2,1 -4,1 -1,0 -3,-1 -4,-2 -2,-1 -2,-3 -2,-4l0 -3 40 -120c1,-4 4,-6 6,-6 3,0 5,2 7,6l40 120 0 3c0,1 -1,3 -2,4 -1,1 -3,2 -5,2 -1,0 -2,0 -3,-1 -1,0 -2,-1 -3,-4l-9 -28 -49 0zm44 -14l-20 -59 -19 59 39 0zm119 -33l0 -47c0,-2 1,-3 2,-4 2,-2 3,-2 5,-2 2,0 3,0 5,1 1,1 2,3 2,5l0 120c0,2 -1,4 -2,5 -2,1 -3,2 -5,2 -2,0 -3,-1 -5,-2 -1,-1 -2,-2 -2,-5l0 -60 -53 0 0 60c0,2 -1,4 -2,5 -1,1 -3,2 -5,2 -1,0 -3,-1 -4,-2 -2,-1 -2,-2 -2,-5l0 -120c0,-1 0,-3 2,-5 1,-1 3,-1 4,-1 2,0 4,0 5,1 1,1 2,3 2,5l0 47 53 0zm54 67l13 -115c0,-4 2,-5 7,-5l40 0c4,0 6,2 6,6l0 114 7 0c5,0 7,2 7,6l0 14c0,1 -1,3 -2,4 -1,2 -3,2 -5,2 -1,0 -3,0 -4,-1 -2,-1 -2,-3 -2,-5l0 -7 -67 0 0 7c0,1 -1,3 -2,4 -2,2 -3,2 -5,2 -1,0 -3,0 -4,-1 -2,-1 -3,-3 -3,-5l0 -14c0,-4 3,-6 7,-6l7 0zm53 0l0 -107 -27 0 -12 107 39 0zm134 6c0,2 -1,4 -2,5 -2,1 -3,2 -5,2 -2,0 -3,-1 -5,-2 -1,-1 -2,-2 -2,-5l0 -94 -54 98c-1,1 -2,2 -3,3l-1 1c-1,0 -1,0 -2,0 -2,0 -3,-1 -5,-2 -1,-1 -2,-3 -2,-6l0 -120c0,-1 1,-3 2,-5 2,-1 3,-1 5,-1 2,0 3,0 5,1 1,1 2,3 2,5l0 95 54 -98c1,-1 2,-2 3,-3 1,-1 2,-2 3,-2 2,0 3,1 4,3 2,1 3,3 3,5l0 120zm40 -6l13 -115c0,-4 2,-5 7,-5l40 0c4,0 6,2 6,6l0 114 7 0c4,0 7,2 7,6l0 14c0,1 -1,3 -2,4 -2,2 -3,2 -5,2 -1,0 -3,0 -4,-1 -2,-1 -3,-3 -3,-5l0 -7 -67 0 0 7c0,1 0,3 -2,4 -1,2 -2,2 -4,2 -2,0 -3,0 -5,-1 -1,-1 -2,-3 -2,-5l0 -14c0,-4 2,-6 7,-6l7 0zm53 0l0 -107 -27 0 -12 107 39 0zm77 -20l-10 28c0,2 -1,3 -2,4 -1,0 -3,1 -4,1 -2,0 -3,-1 -5,-2 -1,-1 -2,-3 -2,-4l1 -3 40 -120c1,-4 3,-6 6,-6 3,0 5,2 6,6l40 120 1 3c0,1 -1,3 -3,4 -1,1 -2,2 -4,2 -1,0 -2,0 -3,-1 -1,0 -2,-1 -3,-4l-10 -28 -48 0zm44 -14l-20 -59 -20 59 40 0zm59 -73l-27 0c-2,0 -3,-1 -5,-2 -1,-1 -1,-3 -1,-5 0,-1 0,-3 1,-4 1,-2 3,-2 5,-2l67 0c2,0 3,0 5,2 1,1 2,2 2,4 0,2 -1,3 -2,5 -1,1 -3,2 -5,2l-27 0 0 113c0,2 0,4 -2,5 -1,1 -2,2 -4,2 -2,0 -4,-1 -5,-2 -1,-1 -2,-2 -2,-5l0 -113zm159 0l-27 0c-2,0 -3,-1 -5,-2 -1,-1 -1,-3 -1,-5 0,-1 0,-3 1,-4 2,-2 3,-2 5,-2l27 0c10,0 19,3 25,10 6,6 8,14 8,23 0,5 -1,10 -3,15 -2,4 -5,8 -10,12 4,3 7,7 10,11 2,5 3,10 3,15l0 14c0,9 -3,17 -9,23 -7,7 -15,10 -24,10l-27 0c-2,0 -3,-1 -5,-2 -1,-1 -1,-3 -1,-5 0,-1 0,-3 1,-4 1,-2 3,-2 5,-2l27 0c6,0 10,-2 14,-6 4,-4 6,-9 6,-14l0 -14c0,-5 -2,-10 -6,-14 -4,-4 -8,-6 -14,-6l-13 0c-2,0 -4,0 -5,-2 -1,-1 -2,-3 -2,-4 0,-2 0,-3 2,-5 1,-1 2,-2 5,-2l13 0c6,0 11,-2 15,-6 3,-4 4,-9 4,-14 0,-6 -1,-10 -4,-14 -4,-4 -9,-6 -15,-6z"/>
   <path class="fil3 str2" d="M3427 5142l56 -56c2,-1 3,-2 5,-2 2,0 3,1 5,2 1,2 2,3 2,5 0,1 -1,3 -2,5l-40 39 41 73 1 3c0,2 -1,3 -2,5 -1,1 -3,2 -5,2 -2,0 -4,-2 -6,-4l-39 -69 -16 15 0 51c0,2 0,4 -2,5 -1,1 -2,2 -4,2 -2,0 -4,-1 -5,-2 -1,-1 -2,-3 -2,-5l0 -120c0,-2 1,-4 2,-5 1,-1 3,-2 5,-2 1,0 3,1 4,2 2,1 2,3 2,5l0 51zm117 42l-10 29c0,1 -1,3 -2,4 -1,0 -2,0 -4,1 -1,0 -3,-1 -4,-2 -2,-1 -2,-3 -2,-5l0 -2 40 -120c1,-4 4,-6 6,-6 3,0 5,2 7,6l40 120 0 2c0,2 -1,3 -2,5 -1,1 -3,2 -5,2 -1,0 -2,-1 -3,-1 -1,0 -2,-2 -3,-4l-9 -29 -49 0zm44 -13l-20 -59 -19 59 39 0zm119 -33l0 -47c0,-2 1,-3 2,-5 2,-1 3,-2 5,-2 2,0 3,1 5,2 1,1 2,3 2,5l0 120c0,2 -1,3 -2,5 -2,1 -3,2 -5,2 -2,0 -3,-1 -5,-2 -1,-1 -2,-3 -2,-5l0 -60 -53 0 0 60c0,2 -1,4 -2,5 -1,1 -3,2 -5,2 -1,0 -3,-1 -4,-2 -2,-1 -2,-3 -2,-5l0 -120c0,-2 0,-3 2,-5 1,-1 3,-2 4,-2 2,0 4,1 5,2 1,1 2,3 2,5l0 47 53 0zm54 66l13 -114c0,-4 2,-6 7,-6l40 0c4,0 6,2 6,7l0 113 7 0c5,0 7,3 7,7l0 13c0,2 -1,4 -2,5 -1,1 -3,2 -5,2 -1,0 -3,-1 -4,-2 -2,-1 -2,-2 -2,-5l0 -6 -67 0 0 6c0,2 -1,4 -2,5 -2,1 -3,2 -5,2 -1,0 -3,-1 -4,-2 -2,-1 -3,-2 -3,-5l0 -13c0,-4 3,-7 7,-7l7 0zm53 0l0 -107 -27 0 -12 107 39 0zm134 7c0,2 -1,4 -2,5 -2,1 -3,2 -5,2 -2,0 -3,-1 -5,-2 -1,-1 -2,-3 -2,-5l0 -94 -54 97c-1,2 -2,3 -3,3l-1 1c-1,0 -1,1 -2,1 -2,0 -3,-1 -5,-2 -1,-2 -2,-3 -2,-6l0 -120c0,-2 1,-3 2,-5 2,-1 3,-2 5,-2 2,0 3,1 5,2 1,1 2,3 2,5l0 94 54 -97c1,-1 2,-2 3,-3 1,-1 2,-2 3,-2 2,0 3,1 4,2 2,2 3,4 3,6l0 120zm40 -7l13 -114c0,-4 2,-6 7,-6l40 0c4,0 6,2 6,7l0 113 7 0c4,0 7,3 7,7l0 13c0,2 -1,4 -2,5 -2,1 -3,2 -5,2 -1,0 -3,-1 -4,-2 -2,-1 -3,-2 -3,-5l0 -6 -67 0 0 6c0,2 0,4 -2,5 -1,1 -2,2 -4,2 -2,0 -3,-1 -5,-2 -1,-1 -2,-2 -2,-5l0 -13c0,-4 2,-7 7,-7l7 0zm53 0l0 -107 -27 0 -12 107 39 0zm77 -20l-10 29c0,1 -1,3 -2,4 -1,0 -3,0 -4,1 -2,0 -3,-1 -5,-2 -1,-1 -2,-3 -2,-5l1 -2 40 -120c1,-4 3,-6 6,-6 3,0 5,2 6,6l40 120 1 2c0,2 -1,3 -3,5 -1,1 -2,2 -4,2 -1,0 -2,-1 -3,-1 -1,0 -2,-2 -3,-4l-10 -29 -48 0zm44 -13l-20 -59 -20 59 40 0zm59 -74l-27 0c-2,0 -3,0 -5,-1 -1,-2 -1,-3 -1,-5 0,-2 0,-3 1,-5 1,-1 3,-2 5,-2l67 0c2,0 3,1 5,2 1,2 2,3 2,5 0,1 -1,3 -2,4 -1,2 -3,2 -5,2l-27 0 0 114c0,2 0,4 -2,5 -1,1 -2,2 -4,2 -2,0 -4,-1 -5,-2 -1,-1 -2,-3 -2,-5l0 -114zm186 81l14 0c1,0 3,1 4,2 2,1 2,3 2,4 0,2 0,3 -1,5 -1,1 -3,2 -5,2l-14 0 0 20c0,2 0,4 -2,5 -1,1 -2,2 -4,2 -2,0 -4,-1 -5,-2 -1,-1 -2,-3 -2,-5l0 -20 -40 0c-5,0 -7,-2 -7,-5l0 -2 1 -1 26 -94c1,-1 1,-3 3,-4l1 0c0,-1 1,-1 2,-1 2,0 4,1 5,2 2,1 2,3 2,5l0 2 -24 85 31 0 0 -20c0,-2 1,-4 2,-5 1,-1 3,-2 5,-2 1,0 3,1 4,2 2,1 2,3 2,5l0 20z"/>
   <path class="fil3 str2" d="M3427 5985l56 -55c2,-2 3,-2 5,-2 2,0 3,0 5,2 1,1 2,3 2,5 0,1 -1,2 -2,4l-40 40 41 72 1 4c0,2 -1,3 -2,4 -1,2 -3,2 -5,2 -2,0 -4,-1 -6,-3l-39 -70 -16 16 0 51c0,2 0,3 -2,5 -1,1 -2,1 -4,1 -2,0 -4,0 -5,-1 -1,-2 -2,-3 -2,-5l0 -121c0,-1 1,-3 2,-4 1,-2 3,-2 5,-2 1,0 3,0 4,1 2,1 2,3 2,5l0 51zm117 43l-10 29c0,1 -1,2 -2,3 -1,1 -2,1 -4,1 -1,0 -3,0 -4,-2 -2,-1 -2,-2 -2,-4l0 -3 40 -120c1,-3 4,-5 6,-5 3,0 5,2 7,5l40 120 0 3c0,2 -1,3 -2,4 -1,2 -3,2 -5,2 -1,0 -2,0 -3,0 -1,-1 -2,-2 -3,-4l-9 -29 -49 0zm44 -14l-20 -58 -19 58 39 0zm119 -33l0 -47c0,-1 1,-3 2,-4 2,-2 3,-2 5,-2 2,0 3,0 5,1 1,2 2,3 2,5l0 120c0,2 -1,4 -2,5 -2,2 -3,2 -5,2 -2,0 -3,0 -5,-1 -1,-1 -2,-3 -2,-5l0 -60 -53 0 0 60c0,2 -1,3 -2,5 -1,1 -3,1 -5,1 -1,0 -3,0 -4,-1 -2,-1 -2,-3 -2,-5l0 -120c0,-2 0,-4 2,-5 1,-2 3,-2 4,-2 2,0 4,0 5,2 1,1 2,2 2,5l0 46 53 0zm54 67l13 -114c0,-4 2,-6 7,-6l40 0c4,0 6,2 6,6l0 114 7 0c5,0 7,2 7,7l0 13c0,2 -1,3 -2,5 -1,1 -3,2 -5,2 -1,0 -3,-1 -4,-2 -2,-1 -2,-3 -2,-5l0 -7 -67 0 0 7c0,2 -1,3 -2,5 -2,1 -3,2 -5,2 -1,0 -3,-1 -4,-2 -2,-1 -3,-3 -3,-5l0 -13c0,-5 3,-7 7,-7l7 0zm53 0l0 -107 -27 0 -12 107 39 0zm134 7c0,2 -1,3 -2,5 -2,1 -3,1 -5,1 -2,0 -3,0 -5,-1 -1,-1 -2,-3 -2,-5l0 -95 -54 98c-1,1 -2,2 -3,3l-1 1c-1,0 -1,0 -2,0 -2,0 -3,0 -5,-2 -1,-1 -2,-3 -2,-5l0 -120c0,-2 1,-4 2,-5 2,-2 3,-2 5,-2 2,0 3,0 5,2 1,1 2,2 2,5l0 94 54 -98c1,-1 2,-2 3,-3 1,-1 2,-1 3,-1 2,0 3,1 4,2 2,1 3,3 3,5l0 121zm40 -7l13 -114c0,-4 2,-6 7,-6l40 0c4,0 6,2 6,6l0 114 7 0c4,0 7,2 7,7l0 13c0,2 -1,3 -2,5 -2,1 -3,2 -5,2 -1,0 -3,-1 -4,-2 -2,-1 -3,-3 -3,-5l0 -7 -67 0 0 7c0,2 0,3 -2,5 -1,1 -2,2 -4,2 -2,0 -3,-1 -5,-2 -1,-1 -2,-3 -2,-5l0 -13c0,-5 2,-7 7,-7l7 0zm53 0l0 -107 -27 0 -12 107 39 0zm77 -20l-10 29c0,1 -1,2 -2,3 -1,1 -3,1 -4,1 -2,0 -3,0 -5,-2 -1,-1 -2,-2 -2,-4l1 -3 40 -120c1,-3 3,-5 6,-5 3,0 5,2 6,5l40 120 1 3c0,2 -1,3 -3,4 -1,2 -2,2 -4,2 -1,0 -2,0 -3,0 -1,-1 -2,-2 -3,-4l-10 -29 -48 0zm44 -14l-20 -58 -20 58 40 0zm59 -73l-27 0c-2,0 -3,-1 -5,-2 -1,-1 -1,-3 -1,-5 0,-1 0,-3 1,-4 1,-1 3,-2 5,-2l67 0c2,0 3,0 5,2 1,1 2,3 2,4 0,2 -1,3 -2,5 -1,1 -3,2 -5,2l-27 0 0 114c0,2 0,3 -2,5 -1,1 -2,1 -4,1 -2,0 -4,0 -5,-1 -1,-2 -2,-3 -2,-5l0 -114zm139 0l0 40 21 0c9,0 16,4 23,10 7,7 10,14 10,24l0 13c0,9 -3,17 -10,23 -6,7 -14,10 -23,10l-27 0c-2,0 -4,0 -5,-2 -1,-1 -2,-3 -2,-4 0,-2 1,-3 2,-5 1,-1 3,-2 5,-2l27 0c5,0 10,-2 14,-6 4,-4 6,-8 6,-14l0 -13c0,-6 -2,-11 -6,-15 -4,-4 -9,-5 -14,-5l-27 0c-5,0 -7,-3 -7,-7l0 -54c0,-4 2,-6 7,-6l53 0c2,0 4,0 5,2 1,1 2,3 2,4 0,2 -1,3 -2,5 -1,1 -3,2 -5,2l-47 0z"/>
   <path class="fil3 str2" d="M5393 2514c0,2 -1,4 -2,5 -1,1 -3,2 -5,2 -2,0 -3,-1 -5,-2 -1,-1 -2,-3 -2,-5l0 -104 -15 15c-1,2 -3,2 -4,2 -2,0 -4,0 -5,-2 -2,-1 -2,-3 -2,-5 0,-1 0,-3 2,-4l26 -27c1,-1 2,-2 3,-2 1,-1 2,-1 3,-1 1,0 3,1 4,2 1,1 2,3 2,6l0 120z"/>
   <path class="fil3 str2" d="M6217 2439l-43 68 41 0c2,0 3,1 5,2 1,2 2,3 2,5 0,1 -1,3 -2,4 -1,2 -3,3 -5,3l-53 0c-5,0 -8,-2 -8,-6 0,-1 1,-3 2,-5l49 -78c2,-4 3,-7 3,-10 0,-6 -3,-11 -7,-15 -2,-2 -5,-4 -7,-5 -3,-1 -6,-2 -9,-2 -4,0 -7,1 -10,3 -3,2 -6,5 -8,8 0,0 -1,1 -2,2l-3 1c-2,0 -4,-1 -5,-2 -2,-1 -2,-3 -2,-5 0,-1 0,-2 1,-4 3,-4 7,-8 12,-11 3,-2 5,-3 8,-4 3,0 5,-1 8,-1 10,0 19,4 26,10 7,7 11,16 11,25 0,6 -1,11 -4,17z"/>
   <path class="fil3 str2" d="M6971 2401l-26 0c-2,0 -4,-1 -5,-2 -2,-2 -2,-3 -2,-5 0,-2 0,-3 2,-5 1,-1 2,-2 5,-2l26 0c11,0 19,4 25,10 6,7 9,14 9,23 0,6 -1,11 -4,15 -2,5 -5,9 -9,12 3,3 6,7 9,12 2,5 4,10 4,15l0 13c0,9 -4,17 -10,24 -7,6 -15,10 -24,10l-26 0c-2,0 -4,-1 -5,-2 -2,-2 -2,-3 -2,-5 0,-2 0,-3 2,-5 1,-1 2,-2 5,-2l26 0c6,0 11,-2 14,-6 4,-3 6,-8 6,-14l0 -13c0,-6 -2,-10 -5,-14 -4,-4 -9,-6 -15,-6l-13 0c-2,0 -4,-1 -5,-2 -1,-1 -2,-3 -2,-5 0,-1 1,-3 2,-4 1,-2 3,-2 5,-2l13 0c6,0 11,-3 15,-7 3,-4 5,-8 5,-14 0,-5 -2,-10 -5,-13 -3,-4 -8,-6 -15,-6z"/>
   <path class="fil3 str2" d="M7805 2481l14 0c2,0 3,0 4,2 2,1 2,3 2,4 0,2 0,3 -1,5 -1,1 -3,2 -5,2l-14 0 0 20c0,2 0,4 -2,5 -1,1 -2,2 -4,2 -2,0 -4,-1 -5,-2 -1,-1 -2,-3 -2,-5l0 -20 -40 0c-5,0 -7,-2 -7,-5l0 -2 1 -2 26 -93c1,-1 1,-3 3,-4l1 0c1,-1 1,-1 2,-1 2,0 4,1 5,2 2,1 2,3 2,5l0 2 -24 85 31 0 0 -20c0,-2 1,-4 2,-5 1,-1 3,-2 5,-2 1,0 3,1 4,2 2,1 2,2 2,5l0 20z"/>
   <path class="fil3 str2" d="M8538 2400l0 41 20 0c9,0 17,3 23,9 7,7 10,15 10,24l0 13c0,9 -3,17 -10,24 -6,6 -14,10 -23,10l-27 0c-2,0 -4,-1 -5,-2 -1,-2 -2,-3 -2,-5 0,-2 1,-3 2,-5 1,-1 3,-2 5,-2l27 0c5,0 10,-2 14,-5 4,-4 6,-9 6,-15l0 -13c0,-6 -2,-10 -6,-14 -4,-4 -9,-6 -14,-6l-27 0c-4,0 -7,-2 -7,-7l0 -53c0,-5 3,-7 7,-7l53 0c2,0 4,1 5,2 1,1 2,3 2,5 0,1 -1,3 -2,4 -1,2 -2,2 -5,2l-46 0z"/>
   <path class="fil3 str2" d="M5366 2887l0 7 0 33c0,4 1,7 4,10 1,1 3,2 4,3 2,0 4,1 5,1l14 0c3,0 7,-2 9,-4 3,-3 4,-6 4,-10l0 -26c0,-4 -1,-7 -4,-10 -2,-3 -5,-4 -9,-4l-27 0zm3 -13l24 0c7,0 13,2 19,8 5,5 7,11 7,19l0 26c0,8 -2,14 -7,19 -6,5 -12,8 -19,8l-14 0c-7,0 -13,-3 -18,-8 -6,-5 -8,-11 -8,-19l0 -33c0,-13 2,-25 7,-36 3,-8 8,-15 15,-22 6,-6 13,-11 22,-15l3 -1c1,0 3,1 4,3 1,1 2,3 2,4 0,2 0,3 -1,4 0,1 -1,1 -3,2 -2,1 -3,2 -5,3 -1,0 -3,1 -4,2 -3,2 -6,4 -9,7 -5,5 -9,11 -12,18l-2 5 -1 6z"/>
   <path class="fil3 str2" d="M6168 2834l0 6c0,3 -1,4 -2,6 -1,1 -3,1 -5,1 -1,0 -3,0 -4,-2 -2,-1 -2,-2 -2,-5l0 -13c0,-4 2,-7 7,-7l53 0c4,0 7,2 7,6l-1 3 -33 120c0,1 -1,2 -2,3 -2,1 -3,2 -4,2 -2,0 -4,-1 -5,-2 -1,-1 -2,-2 -2,-5 0,0 0,-1 0,-1l31 -112 -38 0z"/>
   <path class="fil3 str2" d="M6979 2874c6,0 11,-2 15,-6 3,-4 5,-9 5,-14 0,-6 -2,-10 -5,-14 -4,-4 -9,-6 -15,-6 -6,0 -11,2 -15,6 -4,4 -5,8 -5,14 0,5 1,10 5,14 3,4 8,6 15,6zm0 13c-9,0 -16,3 -21,8 -4,6 -6,12 -6,19 0,7 2,13 6,18 5,6 12,9 21,9 8,0 15,-3 20,-9 4,-5 6,-11 6,-18 0,-7 -2,-13 -6,-18 -5,-6 -12,-9 -20,-9zm22 -7c6,3 10,8 13,14 3,6 5,13 5,20 0,10 -4,20 -10,27 -8,9 -18,13 -30,13 -13,0 -23,-4 -30,-12 -7,-8 -11,-17 -11,-28 0,-7 2,-14 5,-20 3,-6 7,-11 14,-14 -4,-3 -7,-7 -9,-12 -2,-4 -3,-9 -3,-14 0,-9 3,-17 9,-23 6,-7 14,-11 25,-11 10,0 18,4 24,11 6,6 9,14 9,23 0,5 -1,10 -3,14 -2,5 -5,9 -8,12z"/>
   <path class="fil3 str2" d="M7798 2887l1 -3 0 -4 0 -33c0,-4 -2,-7 -4,-9 -3,-3 -6,-4 -10,-4l-13 0c-4,0 -7,1 -10,3 -1,2 -2,3 -3,5 0,1 -1,3 -1,5l0 27c0,4 2,7 4,9 2,1 3,2 5,3 2,1 3,1 5,1l26 0zm-2 13l-24 0c-7,0 -14,-2 -19,-7 -5,-5 -8,-12 -8,-19l0 -27c0,-7 3,-14 8,-19 5,-5 12,-8 19,-8l13 0c8,0 14,3 19,8 5,5 8,12 8,19l0 33c0,13 -2,25 -7,36 -4,9 -9,16 -15,23 -6,6 -14,11 -22,14l-3 1c-2,0 -3,-1 -4,-2 -2,-2 -2,-3 -2,-5 0,-1 0,-2 0,-3 1,-1 2,-2 4,-3 3,-1 6,-3 9,-5 3,-2 6,-4 8,-7 5,-5 9,-11 12,-18l2 -5 2 -6z"/>
   <path class="fil3 str2" d="M8500 2947c0,2 -1,4 -2,5 -1,1 -3,2 -5,2 -2,0 -3,-1 -5,-2 -1,-1 -2,-3 -2,-5l0 -104 -15 16c-1,1 -3,2 -4,2 -2,0 -4,-1 -5,-2 -1,-2 -2,-3 -2,-5 0,-2 1,-3 2,-5l26 -27c1,-1 2,-1 3,-2 1,0 2,-1 3,-1 1,0 3,1 4,2 1,2 2,4 2,6l0 120zm93 -22c0,7 -3,14 -8,20 -6,6 -13,9 -21,9l-8 0c-8,0 -15,-3 -21,-9 -6,-5 -9,-12 -9,-20l0 -75c0,-8 3,-15 9,-21 6,-6 13,-9 21,-9l8 0c8,0 15,3 20,9 6,6 9,13 9,21l0 75zm-13 0l0 -75c0,-5 -2,-8 -5,-12 -3,-3 -7,-4 -11,-4l-8 0c-5,0 -8,1 -12,4 -3,3 -4,7 -4,12l0 75c0,4 1,8 4,11 4,3 7,5 12,5l8 0c4,0 8,-2 11,-5 3,-3 5,-7 5,-11z"/>
   <path class="fil3 str2" d="M5393 3381c0,2 -1,3 -2,5 -1,1 -3,1 -5,1 -2,0 -3,0 -5,-1 -1,-2 -2,-3 -2,-5l0 -104 -15 15c-1,1 -3,2 -4,2 -2,0 -4,-1 -5,-2 -2,-2 -2,-3 -2,-5 0,-1 0,-3 2,-5l26 -26c1,-1 2,-2 3,-2 1,-1 2,-1 3,-1 1,0 3,0 4,2 1,1 2,3 2,5l0 121z"/>
   <path class="fil3 str2" d="M6217 3305l-43 69 41 0c2,0 3,1 5,2 1,1 2,3 2,5 0,1 -1,3 -2,4 -1,2 -3,2 -5,2l-53 0c-5,0 -8,-2 -8,-5 0,-1 1,-3 2,-5l49 -79c2,-3 3,-7 3,-10 0,-5 -3,-10 -7,-15 -2,-2 -5,-3 -7,-4 -3,-1 -6,-2 -9,-2 -4,0 -7,1 -10,3 -3,2 -6,4 -8,7 0,1 -1,2 -2,3l-3 0c-2,0 -4,0 -5,-1 -2,-2 -2,-3 -2,-5 0,-1 0,-2 1,-4 3,-5 7,-9 12,-12 3,-1 5,-2 8,-3 3,-1 5,-1 8,-1 10,0 19,3 26,10 7,7 11,15 11,25 0,5 -1,11 -4,16z"/>
   <path class="fil3 str2" d="M6971 3267l-26 0c-2,0 -4,0 -5,-2 -2,-1 -2,-3 -2,-4 0,-2 0,-4 2,-5 1,-1 2,-2 5,-2l26 0c11,0 19,3 25,10 6,7 9,14 9,23 0,5 -1,10 -4,15 -2,4 -5,9 -9,12 3,3 6,7 9,12 2,4 4,9 4,15l0 13c0,9 -4,17 -10,23 -7,7 -15,10 -24,10l-26 0c-2,0 -4,0 -5,-2 -2,-1 -2,-3 -2,-4 0,-2 0,-3 2,-5 1,-1 2,-2 5,-2l26 0c6,0 11,-2 14,-6 4,-4 6,-9 6,-14l0 -13c0,-6 -2,-11 -5,-15 -4,-4 -9,-6 -15,-6l-13 0c-2,0 -4,0 -5,-1 -1,-2 -2,-3 -2,-5 0,-2 1,-3 2,-5 1,-1 3,-2 5,-2l13 0c6,0 11,-2 15,-6 3,-4 5,-9 5,-14 0,-6 -2,-10 -5,-14 -3,-4 -8,-6 -15,-6z"/>
   <path class="fil3 str2" d="M7805 3347l14 0c2,0 3,1 4,2 2,2 2,3 2,5 0,2 0,3 -1,5 -1,1 -3,2 -5,2l-14 0 0 20c0,2 0,3 -2,5 -1,1 -2,1 -4,1 -2,0 -4,0 -5,-1 -1,-2 -2,-3 -2,-5l0 -20 -40 0c-5,0 -7,-2 -7,-6l0 -1 1 -2 26 -93c1,-2 1,-3 3,-4l1 -1c1,0 1,0 2,0 2,0 4,0 5,2 2,1 2,2 2,4l0 2 -24 85 31 0 0 -20c0,-1 1,-3 2,-5 1,-1 3,-1 5,-1 1,0 3,0 4,1 2,1 2,3 2,5l0 20z"/>
   <path class="fil3 str2" d="M8538 3267l0 40 20 0c9,0 17,3 23,10 7,6 10,14 10,24l0 13c0,9 -3,17 -10,23 -6,7 -14,10 -23,10l-27 0c-2,0 -4,0 -5,-2 -1,-1 -2,-3 -2,-4 0,-2 1,-3 2,-5 1,-1 3,-2 5,-2l27 0c5,0 10,-2 14,-6 4,-4 6,-8 6,-14l0 -13c0,-6 -2,-11 -6,-15 -4,-4 -9,-6 -14,-6l-27 0c-4,0 -7,-2 -7,-6l0 -54c0,-4 3,-6 7,-6l53 0c2,0 4,0 5,2 1,1 2,3 2,4 0,2 -1,3 -2,5 -1,1 -2,2 -5,2l-46 0z"/>
   <path class="fil3 str2" d="M5366 3754l0 6 0 34c0,4 1,7 4,9 1,2 3,3 4,3 2,1 4,1 5,1l14 0c3,0 7,-1 9,-3 3,-3 4,-6 4,-10l0 -27c0,-4 -1,-7 -4,-9 -2,-3 -5,-4 -9,-4l-27 0zm3 -13l24 0c7,0 13,2 19,7 5,6 7,12 7,19l0 27c0,7 -2,13 -7,19 -6,5 -12,8 -19,8l-14 0c-7,0 -13,-3 -18,-8 -6,-5 -8,-12 -8,-19l0 -33c0,-13 2,-25 7,-36 3,-8 8,-16 15,-22 6,-6 13,-12 22,-15l3 -1c1,0 3,1 4,2 1,2 2,3 2,5 0,1 0,2 -1,3 0,1 -1,2 -3,3 -2,1 -3,1 -5,2 -1,1 -3,2 -4,3 -3,2 -6,4 -9,7 -5,5 -9,11 -12,18l-2 5 -1 6z"/>
   <path class="fil3 str2" d="M6168 3700l0 7c0,2 -1,4 -2,5 -1,1 -3,2 -5,2 -1,0 -3,-1 -4,-2 -2,-1 -2,-3 -2,-5l0 -13c0,-5 2,-7 7,-7l53 0c4,0 7,2 7,6l-1 2 -33 121c0,1 -1,2 -2,3 -2,1 -3,2 -4,2 -2,0 -4,-1 -5,-2 -1,-1 -2,-3 -2,-5 0,-1 0,-1 0,-2l31 -112 -38 0z"/>
   <path class="fil3 str2" d="M6979 3741c6,0 11,-3 15,-7 3,-4 5,-8 5,-14 0,-5 -2,-10 -5,-13 -4,-5 -9,-7 -15,-7 -6,0 -11,2 -15,7 -4,4 -5,8 -5,13 0,6 1,10 5,14 3,4 8,7 15,7zm0 13c-9,0 -16,3 -21,8 -4,5 -6,11 -6,19 0,7 2,13 6,18 5,5 12,8 21,8 8,0 15,-2 20,-8 4,-5 6,-11 6,-18 0,-7 -2,-14 -6,-19 -5,-5 -12,-8 -20,-8zm22 -8c6,4 10,9 13,15 3,6 5,13 5,20 0,10 -4,19 -10,27 -8,8 -18,13 -30,13 -13,0 -23,-5 -30,-13 -7,-7 -11,-16 -11,-27 0,-7 2,-14 5,-20 3,-6 7,-11 14,-15 -4,-3 -7,-7 -9,-11 -2,-5 -3,-10 -3,-15 0,-8 3,-16 9,-23 6,-6 14,-10 25,-10 10,0 18,4 24,10 6,7 9,15 9,23 0,5 -1,10 -3,15 -2,4 -5,8 -8,11z"/>
   <path class="fil3 str2" d="M7798 3754l1 -3 0 -4 0 -33c0,-4 -2,-7 -4,-10 -3,-2 -6,-4 -10,-4l-13 0c-4,0 -7,2 -10,4 -1,1 -2,3 -3,5 0,1 -1,3 -1,5l0 26c0,4 2,7 4,10 2,1 3,2 5,3 2,1 3,1 5,1l26 0zm-2 13l-24 0c-7,0 -14,-2 -19,-8 -5,-5 -8,-11 -8,-19l0 -26c0,-8 3,-14 8,-19 5,-5 12,-8 19,-8l13 0c8,0 14,3 19,8 5,5 8,11 8,19l0 33c0,13 -2,25 -7,36 -4,8 -9,16 -15,22 -6,7 -14,12 -22,15l-3 1c-2,0 -3,-1 -4,-3 -2,-1 -2,-3 -2,-4 0,-1 0,-3 0,-4 1,-1 2,-1 4,-2 3,-2 6,-3 9,-5 3,-2 6,-4 8,-7 5,-5 9,-11 12,-18l2 -5 2 -6z"/>
   <path class="fil3 str2" d="M8500 3814c0,2 -1,4 -2,5 -1,1 -3,2 -5,2 -2,0 -3,-1 -5,-2 -1,-1 -2,-3 -2,-5l0 -104 -15 15c-1,2 -3,2 -4,2 -2,0 -4,0 -5,-2 -1,-1 -2,-3 -2,-5 0,-1 1,-3 2,-4l26 -27c1,-1 2,-2 3,-2 1,-1 2,-1 3,-1 1,0 3,1 4,2 1,1 2,3 2,6l0 120zm93 -23c0,8 -3,15 -8,21 -6,6 -13,9 -21,9l-8 0c-8,0 -15,-3 -21,-9 -6,-6 -9,-13 -9,-21l0 -75c0,-7 3,-14 9,-20 6,-6 13,-9 21,-9l8 0c8,0 15,3 20,9 6,5 9,12 9,20l0 75zm-13 0l0 -75c0,-4 -2,-8 -5,-11 -3,-3 -7,-5 -11,-5l-8 0c-5,0 -8,2 -12,5 -3,3 -4,7 -4,11l0 75c0,5 1,8 4,12 4,3 7,4 12,4l8 0c4,0 8,-1 11,-4 3,-3 5,-7 5,-12z"/>
   <path class="fil3 str2" d="M5393 4233c0,2 -1,4 -2,5 -1,2 -3,2 -5,2 -2,0 -3,0 -5,-2 -1,-1 -2,-2 -2,-5l0 -104 -15 16c-1,1 -3,2 -4,2 -2,0 -4,-1 -5,-2 -2,-2 -2,-3 -2,-5 0,-2 0,-3 2,-5l26 -26c1,-1 2,-2 3,-3 1,0 2,0 3,0 1,0 3,0 4,2 1,1 2,3 2,5l0 120z"/>
   <path class="fil3 str2" d="M6217 4158l-43 69 41 0c2,0 3,0 5,2 1,1 2,3 2,4 0,2 -1,3 -2,5 -1,1 -3,2 -5,2l-53 0c-5,0 -8,-2 -8,-5 0,-2 1,-3 2,-5l49 -79c2,-3 3,-7 3,-10 0,-6 -3,-11 -7,-15 -2,-2 -5,-3 -7,-4 -3,-2 -6,-2 -9,-2 -4,0 -7,1 -10,3 -3,2 -6,4 -8,7 0,1 -1,2 -2,3l-3 0c-2,0 -4,0 -5,-2 -2,-1 -2,-2 -2,-4 0,-1 0,-2 1,-4 3,-5 7,-9 12,-12 3,-1 5,-2 8,-3 3,-1 5,-1 8,-1 10,0 19,3 26,10 7,7 11,15 11,25 0,5 -1,11 -4,16z"/>
   <path class="fil3 str2" d="M6971 4120l-26 0c-2,0 -4,-1 -5,-2 -2,-1 -2,-3 -2,-5 0,-1 0,-3 2,-4 1,-2 2,-2 5,-2l26 0c11,0 19,3 25,10 6,6 9,14 9,23 0,5 -1,10 -4,15 -2,4 -5,8 -9,12 3,3 6,7 9,11 2,5 4,10 4,15l0 14c0,9 -4,17 -10,23 -7,7 -15,10 -24,10l-26 0c-2,0 -4,-1 -5,-2 -2,-1 -2,-3 -2,-5 0,-1 0,-3 2,-4 1,-1 2,-2 5,-2l26 0c6,0 11,-2 14,-6 4,-4 6,-9 6,-14l0 -14c0,-5 -2,-10 -5,-14 -4,-4 -9,-6 -15,-6l-13 0c-2,0 -4,0 -5,-1 -1,-2 -2,-4 -2,-5 0,-2 1,-3 2,-5 1,-1 3,-2 5,-2l13 0c6,0 11,-2 15,-6 3,-4 5,-9 5,-14 0,-6 -2,-10 -5,-14 -3,-4 -8,-6 -15,-6z"/>
   <path class="fil3 str2" d="M7805 4200l14 0c2,0 3,1 4,2 2,2 2,3 2,5 0,1 0,3 -1,4 -1,2 -3,3 -5,3l-14 0 0 19c0,3 0,4 -2,5 -1,2 -2,2 -4,2 -2,0 -4,0 -5,-2 -1,-1 -2,-2 -2,-5l0 -19 -40 0c-5,0 -7,-2 -7,-6l0 -2 1 -1 26 -94c1,-1 1,-2 3,-3l1 -1c1,0 1,0 2,0 2,0 4,0 5,2 2,1 2,2 2,4l0 2 -24 85 31 0 0 -20c0,-2 1,-3 2,-5 1,-1 3,-1 5,-1 1,0 3,0 4,1 2,1 2,3 2,5l0 20z"/>
   <path class="fil3 str2" d="M8538 4120l0 40 20 0c9,0 17,3 23,10 7,6 10,14 10,23l0 14c0,9 -3,17 -10,23 -6,7 -14,10 -23,10l-27 0c-2,0 -4,-1 -5,-2 -1,-1 -2,-3 -2,-5 0,-1 1,-3 2,-4 1,-1 3,-2 5,-2l27 0c5,0 10,-2 14,-6 4,-4 6,-9 6,-14l0 -14c0,-5 -2,-10 -6,-14 -4,-4 -9,-6 -14,-6l-27 0c-4,0 -7,-2 -7,-6l0 -54c0,-4 3,-6 7,-6l53 0c2,0 4,0 5,2 1,1 2,3 2,4 0,2 -1,3 -2,5 -1,1 -2,2 -5,2l-46 0z"/>
   <path class="fil3 str2" d="M5366 4607l0 6 0 34c0,3 1,7 4,9 1,1 3,2 4,3 2,1 4,1 5,1l14 0c3,0 7,-1 9,-4 3,-2 4,-5 4,-9l0 -27c0,-4 -1,-7 -4,-9 -2,-3 -5,-4 -9,-4l-27 0zm3 -14l24 0c7,0 13,3 19,8 5,5 7,12 7,19l0 27c0,7 -2,13 -7,19 -6,5 -12,7 -19,7l-14 0c-7,0 -13,-2 -18,-7 -6,-5 -8,-12 -8,-19l0 -34c0,-12 2,-24 7,-36 3,-8 8,-15 15,-21 6,-7 13,-12 22,-15l3 -1c1,0 3,1 4,2 1,1 2,3 2,5 0,1 0,2 -1,3 0,1 -1,2 -3,3 -2,1 -3,1 -5,2 -1,1 -3,2 -4,3 -3,2 -6,4 -9,7 -5,5 -9,11 -12,18l-2 5 -1 5z"/>
   <path class="fil3 str2" d="M6168 4553l0 7c0,2 -1,4 -2,5 -1,1 -3,2 -5,2 -1,0 -3,-1 -4,-2 -2,-1 -2,-3 -2,-5l0 -13c0,-5 2,-7 7,-7l53 0c4,0 7,2 7,5l-1 3 -33 120c0,2 -1,3 -2,4 -2,1 -3,1 -4,1 -2,0 -4,0 -5,-1 -1,-1 -2,-3 -2,-5 0,-1 0,-2 0,-2l31 -112 -38 0z"/>
   <path class="fil3 str2" d="M6979 4593c6,0 11,-2 15,-6 3,-4 5,-8 5,-14 0,-5 -2,-10 -5,-14 -4,-4 -9,-6 -15,-6 -6,0 -11,2 -15,6 -4,4 -5,9 -5,14 0,6 1,10 5,14 3,4 8,6 15,6zm0 14c-9,0 -16,2 -21,8 -4,5 -6,11 -6,18 0,8 2,14 6,19 5,5 12,8 21,8 8,0 15,-3 20,-8 4,-5 6,-11 6,-19 0,-7 -2,-13 -6,-18 -5,-6 -12,-8 -20,-8zm22 -8c6,4 10,8 13,15 3,6 5,12 5,19 0,11 -4,20 -10,28 -8,8 -18,12 -30,12 -13,0 -23,-4 -30,-12 -7,-7 -11,-17 -11,-28 0,-7 2,-13 5,-19 3,-6 7,-11 14,-15 -4,-3 -7,-7 -9,-11 -2,-5 -3,-10 -3,-15 0,-9 3,-16 9,-23 6,-7 14,-10 25,-10 10,0 18,3 24,10 6,7 9,14 9,23 0,5 -1,10 -3,15 -2,4 -5,8 -8,11z"/>
   <path class="fil3 str2" d="M7798 4607l1 -3 0 -4 0 -33c0,-4 -2,-7 -4,-10 -3,-3 -6,-4 -10,-4l-13 0c-4,0 -7,1 -10,4 -1,1 -2,3 -3,4 0,2 -1,4 -1,6l0 26c0,4 2,7 4,10 2,1 3,2 5,3 2,0 3,1 5,1l26 0zm-2 13l-24 0c-7,0 -14,-3 -19,-8 -5,-5 -8,-11 -8,-19l0 -26c0,-8 3,-14 8,-19 5,-5 12,-8 19,-8l13 0c8,0 14,3 19,8 5,5 8,11 8,19l0 33c0,13 -2,25 -7,36 -4,8 -9,16 -15,22 -6,6 -14,11 -22,15l-3 0c-2,0 -3,0 -4,-2 -2,-1 -2,-3 -2,-5 0,-1 0,-2 0,-3 1,-1 2,-2 4,-2 3,-2 6,-3 9,-5 3,-2 6,-5 8,-7 5,-5 9,-11 12,-18l2 -5 2 -6z"/>
   <path class="fil3 str2" d="M8500 4667c0,2 -1,4 -2,5 -1,1 -3,1 -5,1 -2,0 -3,0 -5,-1 -1,-1 -2,-3 -2,-5l0 -104 -15 15c-1,1 -3,2 -4,2 -2,0 -4,-1 -5,-2 -1,-1 -2,-3 -2,-5 0,-1 1,-3 2,-4l26 -27c1,-1 2,-2 3,-2 1,-1 2,-1 3,-1 1,0 3,1 4,2 1,1 2,3 2,6l0 120zm93 -23c0,8 -3,15 -8,21 -6,6 -13,8 -21,8l-8 0c-8,0 -15,-2 -21,-8 -6,-6 -9,-13 -9,-21l0 -75c0,-8 3,-14 9,-20 6,-6 13,-9 21,-9l8 0c8,0 15,3 20,8 6,6 9,13 9,21l0 75zm-13 0l0 -75c0,-4 -2,-8 -5,-11 -3,-3 -7,-5 -11,-5l-8 0c-5,0 -8,2 -12,5 -3,3 -4,7 -4,11l0 75c0,4 1,8 4,11 4,4 7,5 12,5l8 0c4,0 8,-1 11,-4 3,-4 5,-7 5,-12z"/>
   <path class="fil3 str2" d="M5393 5105c0,2 -1,3 -2,5 -1,1 -3,1 -5,1 -2,0 -3,0 -5,-1 -1,-1 -2,-3 -2,-5l0 -104 -15 15c-1,1 -3,2 -4,2 -2,0 -4,-1 -5,-2 -2,-1 -2,-3 -2,-5 0,-1 0,-3 2,-4l26 -27c1,-1 2,-2 3,-2 1,-1 2,-1 3,-1 1,0 3,1 4,2 1,1 2,3 2,5l0 121z"/>
   <path class="fil3 str2" d="M6217 5029l-43 69 41 0c2,0 3,1 5,2 1,1 2,3 2,5 0,1 -1,3 -2,4 -1,2 -3,2 -5,2l-53 0c-5,0 -8,-1 -8,-5 0,-1 1,-3 2,-5l49 -79c2,-3 3,-6 3,-10 0,-5 -3,-10 -7,-15 -2,-1 -5,-3 -7,-4 -3,-1 -6,-2 -9,-2 -4,0 -7,1 -10,3 -3,2 -6,4 -8,7 0,1 -1,2 -2,3l-3 0c-2,0 -4,0 -5,-1 -2,-2 -2,-3 -2,-5 0,-1 0,-2 1,-4 3,-5 7,-8 12,-11 3,-2 5,-3 8,-4 3,-1 5,-1 8,-1 10,0 19,3 26,10 7,7 11,15 11,25 0,5 -1,11 -4,16z"/>
   <path class="fil3 str2" d="M6971 4991l-26 0c-2,0 -4,0 -5,-2 -2,-1 -2,-2 -2,-4 0,-2 0,-3 2,-5 1,-1 2,-2 5,-2l26 0c11,0 19,3 25,10 6,7 9,14 9,23 0,6 -1,11 -4,15 -2,5 -5,9 -9,12 3,3 6,7 9,12 2,4 4,9 4,15l0 13c0,9 -4,17 -10,23 -7,7 -15,10 -24,10l-26 0c-2,0 -4,0 -5,-1 -2,-2 -2,-4 -2,-5 0,-2 0,-3 2,-5 1,-1 2,-2 5,-2l26 0c6,0 11,-2 14,-6 4,-4 6,-8 6,-14l0 -13c0,-6 -2,-11 -5,-14 -4,-4 -9,-6 -15,-6l-13 0c-2,0 -4,-1 -5,-2 -1,-2 -2,-3 -2,-5 0,-2 1,-3 2,-4 1,-2 3,-3 5,-3l13 0c6,0 11,-2 15,-6 3,-4 5,-9 5,-14 0,-6 -2,-10 -5,-14 -3,-4 -8,-6 -15,-6z"/>
   <path class="fil3 str2" d="M7805 5072l14 0c2,0 3,0 4,2 2,1 2,2 2,4 0,2 0,3 -1,5 -1,1 -3,2 -5,2l-14 0 0 20c0,2 0,3 -2,5 -1,1 -2,1 -4,1 -2,0 -4,0 -5,-1 -1,-1 -2,-3 -2,-5l0 -20 -40 0c-5,0 -7,-2 -7,-6l0 -1 1 -2 26 -93c1,-2 1,-3 3,-4l1 -1c1,0 1,0 2,0 2,0 4,1 5,2 2,1 2,3 2,4l0 2 -24 86 31 0 0 -21c0,-1 1,-3 2,-4 1,-2 3,-2 5,-2 1,0 3,0 4,1 2,2 2,3 2,5l0 21z"/>
   <path class="fil3 str2" d="M8538 4991l0 40 20 0c9,0 17,4 23,10 7,7 10,14 10,24l0 13c0,9 -3,17 -10,23 -6,7 -14,10 -23,10l-27 0c-2,0 -4,0 -5,-2 -1,-1 -2,-2 -2,-4 0,-2 1,-3 2,-5 1,-1 3,-2 5,-2l27 0c5,0 10,-2 14,-6 4,-3 6,-8 6,-14l0 -13c0,-6 -2,-11 -6,-15 -4,-3 -9,-5 -14,-5l-27 0c-4,0 -7,-3 -7,-7l0 -53c0,-5 3,-7 7,-7l53 0c2,0 4,1 5,2 1,1 2,3 2,4 0,2 -1,3 -2,5 -1,1 -2,2 -5,2l-46 0z"/>
   <path class="fil3 str2" d="M5366 5478l0 7 0 33c0,4 1,7 4,10 1,1 3,2 4,2 2,1 4,1 5,1l14 0c3,0 7,-1 9,-3 3,-3 4,-6 4,-10l0 -27c0,-3 -1,-7 -4,-9 -2,-3 -5,-4 -9,-4l-27 0zm3 -13l24 0c7,0 13,2 19,7 5,6 7,12 7,19l0 27c0,7 -2,14 -7,19 -6,5 -12,8 -19,8l-14 0c-7,0 -13,-3 -18,-8 -6,-5 -8,-12 -8,-19l0 -33c0,-13 2,-25 7,-36 3,-8 8,-15 15,-22 6,-6 13,-11 22,-15l3 -1c1,0 3,1 4,2 1,2 2,3 2,5 0,1 0,2 -1,3 0,1 -1,2 -3,3 -2,1 -3,2 -5,2 -1,1 -3,2 -4,3 -3,2 -6,4 -9,7 -5,5 -9,11 -12,18l-2 5 -1 6z"/>
   <path class="fil3 str2" d="M6168 5424l0 7c0,2 -1,4 -2,5 -1,1 -3,2 -5,2 -1,0 -3,-1 -4,-2 -2,-1 -2,-3 -2,-5l0 -13c0,-5 2,-7 7,-7l53 0c4,0 7,2 7,6l-1 3 -33 120c0,1 -1,2 -2,3 -2,1 -3,2 -4,2 -2,0 -4,-1 -5,-2 -1,-1 -2,-3 -2,-5 0,-1 0,-1 0,-2l31 -112 -38 0z"/>
   <path class="fil3 str2" d="M6979 5465c6,0 11,-2 15,-7 3,-4 5,-8 5,-13 0,-6 -2,-10 -5,-14 -4,-4 -9,-7 -15,-7 -6,0 -11,3 -15,7 -4,4 -5,8 -5,14 0,5 1,10 5,13 3,5 8,7 15,7zm0 13c-9,0 -16,3 -21,8 -4,5 -6,11 -6,19 0,7 2,13 6,18 5,6 12,8 21,8 8,0 15,-2 20,-8 4,-5 6,-11 6,-18 0,-7 -2,-14 -6,-19 -5,-5 -12,-8 -20,-8zm22 -7c6,3 10,8 13,14 3,6 5,13 5,20 0,10 -4,19 -10,27 -8,8 -18,13 -30,13 -13,0 -23,-4 -30,-13 -7,-7 -11,-16 -11,-27 0,-7 2,-14 5,-20 3,-6 7,-11 14,-15 -4,-3 -7,-6 -9,-11 -2,-5 -3,-9 -3,-14 0,-9 3,-17 9,-23 6,-7 14,-11 25,-11 10,0 18,4 24,11 6,6 9,14 9,23 0,5 -1,9 -3,14 -2,5 -5,8 -8,12z"/>
   <path class="fil3 str2" d="M7798 5478l1 -3 0 -4 0 -33c0,-4 -2,-7 -4,-10 -3,-2 -6,-4 -10,-4l-13 0c-4,0 -7,2 -10,4 -1,2 -2,3 -3,5 0,1 -1,3 -1,5l0 27c0,3 2,6 4,9 2,1 3,2 5,3 2,1 3,1 5,1l26 0zm-2 13l-24 0c-7,0 -14,-2 -19,-8 -5,-5 -8,-11 -8,-18l0 -27c0,-7 3,-14 8,-19 5,-5 12,-8 19,-8l13 0c8,0 14,3 19,8 5,5 8,12 8,19l0 33c0,13 -2,25 -7,36 -4,9 -9,16 -15,22 -6,7 -14,12 -22,15l-3 1c-2,0 -3,-1 -4,-2 -2,-2 -2,-4 -2,-5 0,-1 0,-2 0,-3 1,-1 2,-2 4,-3 3,-1 6,-3 9,-5 3,-2 6,-4 8,-7 5,-5 9,-11 12,-18l2 -5 2 -6z"/>
   <path class="fil3 str2" d="M8500 5538c0,2 -1,4 -2,5 -1,1 -3,2 -5,2 -2,0 -3,-1 -5,-2 -1,-1 -2,-3 -2,-5l0 -104 -15 15c-1,2 -3,2 -4,2 -2,0 -4,0 -5,-2 -1,-1 -2,-3 -2,-5 0,-1 1,-3 2,-4l26 -27c1,-1 2,-1 3,-2 1,-1 2,-1 3,-1 1,0 3,1 4,2 1,2 2,3 2,6l0 120zm93 -23c0,8 -3,15 -8,21 -6,6 -13,9 -21,9l-8 0c-8,0 -15,-3 -21,-9 -6,-5 -9,-12 -9,-21l0 -74c0,-8 3,-15 9,-21 6,-6 13,-9 21,-9l8 0c8,0 15,3 20,9 6,5 9,12 9,21l0 74zm-13 0l0 -75c0,-4 -2,-8 -5,-11 -3,-3 -7,-5 -11,-5l-8 0c-5,0 -8,2 -12,5 -3,3 -4,7 -4,11l0 75c0,5 1,9 4,12 4,3 7,4 12,4l8 0c4,0 8,-1 11,-4 3,-3 5,-7 5,-12z"/>
   <path class="fil3 str2" d="M5393 5962c0,2 -1,4 -2,5 -1,1 -3,2 -5,2 -2,0 -3,-1 -5,-2 -1,-1 -2,-3 -2,-5l0 -104 -15 15c-1,2 -3,2 -4,2 -2,0 -4,0 -5,-2 -2,-1 -2,-3 -2,-4 0,-2 0,-3 2,-5l26 -27c1,-1 2,-1 3,-2 1,0 2,-1 3,-1 1,0 3,1 4,2 1,2 2,4 2,6l0 120z"/>
   <path class="fil3 str2" d="M6217 5887l-43 69 41 0c2,0 3,0 5,2 1,1 2,2 2,4 0,2 -1,3 -2,5 -1,1 -3,2 -5,2l-53 0c-5,0 -8,-2 -8,-6 0,-1 1,-3 2,-5l49 -78c2,-4 3,-7 3,-10 0,-6 -3,-11 -7,-15 -2,-2 -5,-4 -7,-5 -3,-1 -6,-1 -9,-1 -4,0 -7,0 -10,2 -3,2 -6,5 -8,8 0,1 -1,1 -2,2l-3 1c-2,0 -4,-1 -5,-2 -2,-1 -2,-3 -2,-5 0,0 0,-2 1,-3 3,-5 7,-9 12,-12 3,-2 5,-3 8,-3 3,-1 5,-2 8,-2 10,0 19,4 26,11 7,7 11,15 11,24 0,6 -1,11 -4,17z"/>
   <path class="fil3 str2" d="M6971 5849l-26 0c-2,0 -4,-1 -5,-2 -2,-1 -2,-3 -2,-5 0,-1 0,-3 2,-4 1,-2 2,-3 5,-3l26 0c11,0 19,4 25,11 6,6 9,14 9,23 0,5 -1,10 -4,14 -2,5 -5,9 -9,13 3,3 6,6 9,11 2,5 4,10 4,15l0 13c0,10 -4,17 -10,24 -7,6 -15,10 -24,10l-26 0c-2,0 -4,-1 -5,-2 -2,-1 -2,-3 -2,-5 0,-1 0,-3 2,-4 1,-2 2,-2 5,-2l26 0c6,0 11,-2 14,-6 4,-4 6,-9 6,-15l0 -13c0,-5 -2,-10 -5,-14 -4,-4 -9,-6 -15,-6l-13 0c-2,0 -4,-1 -5,-2 -1,-1 -2,-3 -2,-5 0,-1 1,-3 2,-4 1,-2 3,-2 5,-2l13 0c6,0 11,-2 15,-7 3,-3 5,-8 5,-14 0,-5 -2,-10 -5,-13 -3,-4 -8,-6 -15,-6z"/>
   <path class="fil3 str2" d="M7805 5929l14 0c2,0 3,1 4,2 2,1 2,3 2,5 0,1 0,3 -1,4 -1,2 -3,2 -5,2l-14 0 0 20c0,2 0,4 -2,5 -1,1 -2,2 -4,2 -2,0 -4,-1 -5,-2 -1,-1 -2,-3 -2,-5l0 -20 -40 0c-5,0 -7,-2 -7,-5l0 -2 1 -1 26 -94c1,-1 1,-2 3,-3l1 -1c1,-1 1,-1 2,-1 2,0 4,1 5,2 2,1 2,3 2,5l0 2 -24 85 31 0 0 -20c0,-2 1,-4 2,-5 1,-1 3,-2 5,-2 1,0 3,1 4,2 2,1 2,3 2,5l0 20z"/>
   <path class="fil3 str2" d="M8538 5849l0 40 20 0c9,0 17,3 23,10 7,6 10,14 10,23l0 13c0,10 -3,17 -10,24 -6,6 -14,10 -23,10l-27 0c-2,0 -4,-1 -5,-2 -1,-1 -2,-3 -2,-5 0,-1 1,-3 2,-4 1,-2 3,-2 5,-2l27 0c5,0 10,-2 14,-6 4,-4 6,-9 6,-15l0 -13c0,-5 -2,-10 -6,-14 -4,-4 -9,-6 -14,-6l-27 0c-4,0 -7,-2 -7,-7l0 -53c0,-4 3,-7 7,-7l53 0c2,0 4,1 5,2 1,2 2,3 2,5 0,1 -1,3 -2,4 -1,2 -2,3 -5,3l-46 0z"/>
   <path class="fil3 str2" d="M5366 6335l0 7 0 33c0,4 1,7 4,10 1,1 3,2 4,3 2,1 4,1 5,1l14 0c3,0 7,-1 9,-4 3,-2 4,-6 4,-10l0 -26c0,-4 -1,-7 -4,-10 -2,-2 -5,-4 -9,-4l-27 0zm3 -13l24 0c7,0 13,3 19,8 5,5 7,11 7,19l0 26c0,8 -2,14 -7,19 -6,5 -12,8 -19,8l-14 0c-7,0 -13,-2 -18,-8 -6,-5 -8,-11 -8,-19l0 -33c0,-13 2,-25 7,-36 3,-8 8,-15 15,-21 6,-7 13,-12 22,-16l3 0c1,0 3,0 4,2 1,1 2,3 2,5 0,1 0,2 -1,3 0,1 -1,2 -3,3 -2,0 -3,1 -5,2 -1,0 -3,1 -4,3 -3,1 -6,4 -9,6 -5,6 -9,12 -12,18l-2 6 -1 5z"/>
   <path class="fil3 str2" d="M6168 6282l0 7c0,2 -1,3 -2,5 -1,1 -3,1 -5,1 -1,0 -3,0 -4,-1 -2,-1 -2,-3 -2,-5l0 -14c0,-4 2,-6 7,-6l53 0c4,0 7,1 7,5l-1 3 -33 120c0,2 -1,3 -2,4 -2,1 -3,1 -4,1 -2,0 -4,0 -5,-2 -1,-1 -2,-2 -2,-4 0,-1 0,-2 0,-2l31 -112 -38 0z"/>
   <path class="fil3 str2" d="M6979 6322c6,0 11,-2 15,-6 3,-4 5,-9 5,-14 0,-5 -2,-10 -5,-14 -4,-4 -9,-6 -15,-6 -6,0 -11,2 -15,6 -4,4 -5,9 -5,14 0,5 1,10 5,14 3,4 8,6 15,6zm0 13c-9,0 -16,3 -21,9 -4,5 -6,11 -6,18 0,7 2,13 6,18 5,6 12,9 21,9 8,0 15,-3 20,-8 4,-5 6,-12 6,-19 0,-7 -2,-13 -6,-18 -5,-6 -12,-9 -20,-9zm22 -7c6,3 10,8 13,14 3,6 5,13 5,20 0,11 -4,20 -10,28 -8,8 -18,12 -30,12 -13,0 -23,-4 -30,-12 -7,-8 -11,-17 -11,-28 0,-7 2,-14 5,-20 3,-6 7,-11 14,-14 -4,-3 -7,-7 -9,-12 -2,-4 -3,-9 -3,-14 0,-9 3,-17 9,-23 6,-7 14,-10 25,-10 10,0 18,3 24,10 6,6 9,14 9,23 0,5 -1,10 -3,14 -2,5 -5,9 -8,12z"/>
   <path class="fil3 str2" d="M7798 6335l1 -3 0 -3 0 -34c0,-4 -2,-7 -4,-9 -3,-3 -6,-4 -10,-4l-13 0c-4,0 -7,1 -10,4 -1,1 -2,2 -3,4 0,2 -1,3 -1,5l0 27c0,4 2,7 4,10 2,1 3,2 5,2 2,1 3,1 5,1l26 0zm-2 14l-24 0c-7,0 -14,-3 -19,-8 -5,-5 -8,-12 -8,-19l0 -27c0,-7 3,-13 8,-19 5,-5 12,-7 19,-7l13 0c8,0 14,2 19,7 5,6 8,12 8,19l0 34c0,12 -2,24 -7,36 -4,8 -9,15 -15,22 -6,6 -14,11 -22,15l-3 0c-2,0 -3,-1 -4,-2 -2,-1 -2,-3 -2,-5 0,-1 0,-2 0,-3 1,-1 2,-2 4,-3 3,-1 6,-3 9,-5 3,-1 6,-4 8,-7 5,-5 9,-11 12,-18l2 -5 2 -5z"/>
   <path class="fil3 str2" d="M8500 6395c0,3 -1,4 -2,5 -1,2 -3,2 -5,2 -2,0 -3,0 -5,-2 -1,-1 -2,-2 -2,-5l0 -104 -15 16c-1,1 -3,2 -4,2 -2,0 -4,-1 -5,-2 -1,-2 -2,-3 -2,-5 0,-2 1,-3 2,-5l26 -26c1,-1 2,-2 3,-3 1,0 2,0 3,0 1,0 3,0 4,2 1,1 2,3 2,5l0 120zm93 -22c0,8 -3,15 -8,20 -6,6 -13,9 -21,9l-8 0c-8,0 -15,-3 -21,-8 -6,-6 -9,-13 -9,-21l0 -75c0,-8 3,-15 9,-21 6,-5 13,-8 21,-8l8 0c8,0 15,2 20,8 6,6 9,13 9,21l0 75zm-13 0l0 -75c0,-4 -2,-8 -5,-11 -3,-4 -7,-5 -11,-5l-8 0c-5,0 -8,1 -12,5 -3,3 -4,6 -4,11l0 75c0,4 1,8 4,11 4,3 7,5 12,5l8 0c4,0 8,-2 11,-5 3,-3 5,-7 5,-11z"/>
   <path class="fil4 str3" d="M5073 2313l69 -103c1,-2 2,-4 4,-5l3 -1 3 0c4,0 7,1 10,4 3,3 4,6 4,9 0,3 -1,5 -2,8l-75 112 75 113 2 4 0 4c0,3 -1,6 -4,9 -3,3 -6,4 -10,4 -4,0 -8,-2 -10,-6l-69 -103 -69 103c-1,1 -3,3 -5,5l-6 1c-3,0 -6,-1 -9,-4 -3,-3 -5,-6 -5,-10 0,-2 1,-4 3,-7l75 -113 -76 -112 -2 -4 0 -4c0,-3 2,-6 4,-9 3,-3 6,-4 10,-4 5,0 8,2 11,6l69 103z"/>
   <path class="fil4 str3" d="M5856 2313l69 -103c1,-2 3,-4 5,-5l3 -1 3 0c3,0 7,1 10,4 3,3 4,6 4,9 0,3 -1,5 -2,8l-75 112 75 113 1 4 1 4c0,3 -1,6 -4,9 -3,3 -6,4 -10,4 -4,0 -8,-2 -11,-6l-69 -103 -68 103c-1,1 -3,3 -5,5l-6 1c-3,0 -6,-1 -10,-4 -3,-3 -4,-6 -4,-10 0,-2 1,-4 2,-7l75 -113 -75 -112 -2 -4 0 -4c0,-3 1,-6 4,-9 3,-3 6,-4 10,-4 4,0 8,2 11,6l68 103z"/>
   <path class="fil4 str3" d="M5073 2765l69 -104c1,-1 2,-3 4,-4l3 -1 3 0c4,0 7,1 10,4 3,2 4,6 4,9 0,3 -1,5 -2,8l-75 112 75 113 2 4 0 3c0,4 -1,7 -4,10 -3,2 -6,4 -10,4 -4,0 -8,-2 -10,-6l-69 -104 -69 104c-1,1 -3,3 -5,4l-6 2c-3,0 -6,-2 -9,-4 -3,-3 -5,-6 -5,-10 0,-2 1,-5 3,-7l75 -113 -76 -112 -2 -4 0 -4c0,-3 2,-6 4,-9 3,-3 6,-4 10,-4 5,0 8,2 11,6l69 103z"/>
   <path class="fil4 str3" d="M6617 2313l69 -103c1,-2 3,-4 5,-5l2 -1 4 0c3,0 6,1 9,4 3,3 5,6 5,9 0,3 -1,5 -3,8l-75 112 75 113 2 4 1 4c0,3 -2,6 -5,9 -2,3 -6,4 -10,4 -4,0 -7,-2 -10,-6l-69 -103 -69 103c-1,1 -2,3 -5,5l-6 1c-2,0 -6,-1 -9,-4 -3,-3 -4,-6 -4,-10 0,-2 0,-4 2,-7l75 -113 -76 -112 -1 -4 0 -4c0,-3 1,-6 4,-9 2,-3 6,-4 10,-4 4,0 7,2 10,6l69 103z"/>
   <path class="fil4 str3" d="M5073 3185l69 -104c1,-2 2,-3 4,-5l3 -1 3 0c4,0 7,2 10,4 3,3 4,6 4,10 0,2 -1,5 -2,7l-75 113 75 112 2 4 0 4c0,3 -1,6 -4,9 -3,3 -6,4 -10,4 -4,0 -8,-2 -10,-6l-69 -103 -69 103c-1,2 -3,3 -5,5l-6 1c-3,0 -6,-1 -9,-4 -3,-2 -5,-6 -5,-9 0,-3 1,-5 3,-8l75 -112 -76 -113 -2 -4 0 -3c0,-4 2,-7 4,-10 3,-2 6,-4 10,-4 5,0 8,2 11,6l69 104z"/>
   <path class="fil4 str3" d="M5856 3185l69 -104c1,-2 3,-3 5,-5l3 -1 3 0c3,0 7,2 10,4 3,3 4,6 4,10 0,2 -1,5 -2,7l-75 113 75 112 1 4 1 4c0,3 -1,6 -4,9 -3,3 -6,4 -10,4 -4,0 -8,-2 -11,-6l-69 -103 -68 103c-1,2 -3,3 -5,5l-6 1c-3,0 -6,-1 -10,-4 -3,-2 -4,-6 -4,-9 0,-3 1,-5 2,-8l75 -112 -75 -113 -2 -4 0 -3c0,-4 1,-7 4,-10 3,-2 6,-4 10,-4 4,0 8,2 11,6l68 104z"/>
   <path class="fil4 str3" d="M6617 3185l69 -104c1,-2 3,-3 5,-5l2 -1 4 0c3,0 6,2 9,4 3,3 5,6 5,10 0,2 -1,5 -3,7l-75 113 75 112 2 4 1 4c0,3 -2,6 -5,9 -2,3 -6,4 -10,4 -4,0 -7,-2 -10,-6l-69 -103 -69 103c-1,2 -2,3 -5,5l-6 1c-2,0 -6,-1 -9,-4 -3,-2 -4,-6 -4,-9 0,-3 0,-5 2,-8l75 -112 -76 -113 -1 -4 0 -3c0,-4 1,-7 4,-10 2,-2 6,-4 10,-4 4,0 7,2 10,6l69 104z"/>
   <path class="fil4 str3" d="M7428 2313l69 -103c1,-2 3,-4 5,-5l3 -1 3 0c3,0 7,1 10,4 3,3 4,6 4,9 0,3 -1,5 -2,8l-75 112 75 113 1 4 1 4c0,3 -1,6 -4,9 -3,3 -6,4 -10,4 -4,0 -8,-2 -11,-6l-69 -103 -68 103c-1,1 -3,3 -5,5l-6 1c-3,0 -6,-1 -10,-4 -3,-3 -4,-6 -4,-10 0,-2 1,-4 2,-7l75 -113 -75 -112 -2 -4 0 -4c0,-3 1,-6 4,-9 3,-3 6,-4 10,-4 4,0 8,2 11,6l68 103z"/>
   <path class="fil4 str3" d="M8189 2313l69 -103c1,-2 3,-4 5,-5l2 -1 4 0c3,0 6,1 9,4 3,3 5,6 5,9 0,3 -1,5 -3,8l-75 112 75 113 2 4 1 4c0,3 -2,6 -5,9 -2,3 -6,4 -10,4 -4,0 -7,-2 -10,-6l-69 -103 -69 103c-1,1 -2,3 -5,5l-6 1c-2,0 -6,-1 -9,-4 -3,-3 -4,-6 -4,-10 0,-2 0,-4 2,-7l75 -113 -76 -112 -1 -4 0 -4c0,-3 1,-6 4,-9 2,-3 6,-4 10,-4 4,0 7,2 10,6l69 103z"/>
   <path class="fil4 str3" d="M5073 4028l69 -103c1,-2 2,-4 4,-5l3 -1 3 0c4,0 7,1 10,4 3,3 4,6 4,9 0,3 -1,5 -2,8l-75 112 75 113 2 4 0 3c0,4 -1,7 -4,10 -3,2 -6,4 -10,4 -4,0 -8,-2 -10,-6l-69 -103 -69 103c-1,1 -3,3 -5,4l-6 2c-3,0 -6,-2 -9,-4 -3,-3 -5,-6 -5,-10 0,-2 1,-4 3,-7l75 -113 -76 -112 -2 -4 0 -4c0,-3 2,-6 4,-9 3,-3 6,-4 10,-4 5,0 8,2 11,6l69 103z"/>
   <path class="fil4 str3" d="M5054 5768l69 -103c1,-2 3,-4 5,-5l3 -1 3 0c3,0 6,1 10,4 2,3 4,6 4,9 0,3 -1,5 -3,8l-75 112 75 113 2 4 1 3c0,4 -2,7 -4,10 -3,2 -6,4 -10,4 -5,0 -8,-2 -11,-6l-69 -104 -69 104c0,1 -2,3 -5,4l-6 2c-2,0 -5,-2 -9,-4 -3,-3 -4,-6 -4,-10 0,-2 1,-5 2,-7l75 -113 -75 -112 -2 -4 0 -4c0,-3 1,-6 4,-9 3,-3 6,-4 10,-4 4,0 8,2 10,6l69 103z"/>
   <path class="fil4 str3" d="M5838 5768l69 -103c1,-2 2,-4 4,-5l3 -1 3 0c4,0 7,1 10,4 3,3 4,6 4,9 0,3 0,5 -2,8l-75 112 75 113 2 4 0 3c0,4 -1,7 -4,10 -2,2 -6,4 -10,4 -4,0 -7,-2 -10,-6l-69 -104 -69 104c-1,1 -3,3 -5,4l-6 2c-3,0 -6,-2 -9,-4 -3,-3 -5,-6 -5,-10 0,-2 1,-5 3,-7l75 -113 -76 -112 -2 -4 0 -4c0,-3 2,-6 5,-9 2,-3 6,-4 10,-4 4,0 7,2 10,6l69 103z"/>
   <path class="fil4 str3" d="M6599 5768l68 -103c1,-2 3,-4 5,-5l3 -1 3 0c4,0 7,1 10,4 3,3 4,6 4,9 0,3 -1,5 -2,8l-75 112 75 113 1 4 1 3c0,4 -1,7 -4,10 -3,2 -6,4 -10,4 -4,0 -8,-2 -11,-6l-68 -104 -69 104c-1,1 -3,3 -5,4l-6 2c-3,0 -6,-2 -10,-4 -3,-3 -4,-6 -4,-10 0,-2 1,-5 2,-7l75 -113 -75 -112 -2 -4 0 -4c0,-3 1,-6 4,-9 3,-3 6,-4 10,-4 4,0 8,2 11,6l69 103z"/>
   <path class="fil4 str3" d="M7410 5768l69 -103c1,-2 2,-4 4,-5l3 -1 3 0c4,0 7,1 10,4 3,3 4,6 4,9 0,3 0,5 -2,8l-75 112 75 113 2 4 0 3c0,4 -1,7 -4,10 -2,2 -6,4 -10,4 -4,0 -7,-2 -10,-6l-69 -104 -69 104c-1,1 -3,3 -5,4l-6 2c-3,0 -6,-2 -9,-4 -3,-3 -5,-6 -5,-10 0,-2 1,-5 3,-7l75 -113 -76 -112 -2 -4 0 -4c0,-3 2,-6 5,-9 2,-3 6,-4 10,-4 4,0 7,2 10,6l69 103z"/>
  </g>
 </g>
</svg>
