<?xml version="1.0" encoding="UTF-8"?>
<!DOCTYPE svg PUBLIC "-//W3C//DTD SVG 1.0//EN" "http://www.w3.org/TR/2001/REC-SVG-20010904/DTD/svg10.dtd">
<!-- Creator: CorelDRAW X7 -->
<svg xmlns="http://www.w3.org/2000/svg" xml:space="preserve" width="115.711mm" height="70.5556mm" version="1.0" style="shape-rendering:geometricPrecision; text-rendering:geometricPrecision; image-rendering:optimizeQuality; fill-rule:evenodd; clip-rule:evenodd"
viewBox="0 0 11571 7056"
 xmlns:xlink="http://www.w3.org/1999/xlink">
 <defs>
  <style type="text/css">
   <![CDATA[
    .str0 {stroke:#CC7587;stroke-width:14.52}
    .fil2 {fill:#BAB5D4}
    .fil1 {fill:#D1CCE8}
    .fil4 {fill:#8F8AB0;fill-rule:nonzero}
    .fil3 {fill:#BAB5D4;fill-rule:nonzero}
    .fil5 {fill:#CC7587;fill-rule:nonzero}
    .fil0 {fill:url(#id0)}
   ]]>
  </style>
  <radialGradient id="id0" gradientUnits="userSpaceOnUse" cx="6103.05" cy="3845.28" r="5785.57" fx="6103.05" fy="3845.28">
   <stop offset="0" style="stop-color:#FEFEFE"/>
   <stop offset="0.45098" style="stop-color:#FEFEFE"/>
   <stop offset="1" style="stop-color:#D2E2F2"/>
  </radialGradient>
 </defs>
 <g id="Layer_x0020_1">
  <metadata id="CorelCorpID_0Corel-Layer"/>
  <path class="fil0" d="M4 3l11571 0 0 7055 -11571 0 0 -7055z"/>
  <path class="fil1" d="M4510 880l2707 0 0 4113 -2707 0 0 -4113z"/>
  <path class="fil2" d="M7217 4993l-2707 0 0 -1485 2707 1248 0 237z"/>
  <g>
   <path class="fil3" d="M5036 4027c-26,0 -48,-19 -48,-42 0,-24 22,-42 48,-42l0 84zm1686 0l-1686 0 0 -84 1686 0 0 84zm0 -84c27,0 48,18 48,42 0,23 -21,42 -48,42l0 -84zm-1686 -2033c-26,0 -48,-19 -48,-42 0,-23 22,-42 48,-42l0 84zm1686 0l-1686 0 0 -84 1686 0 0 84zm0 -84c27,0 48,19 48,42 0,23 -21,42 -48,42l0 -84zm-1686 -179c-26,0 -48,-18 -48,-42 0,-23 22,-42 48,-42l0 84zm1686 0l-1686 0 0 -84 1686 0 0 84zm0 -84c27,0 48,19 48,42 0,24 -21,42 -48,42l0 -84zm-1686 -178c-26,0 -48,-19 -48,-42 0,-23 22,-42 48,-42l0 84zm1686 0l-1686 0 0 -84 1686 0 0 84zm0 -84c27,0 48,19 48,42 0,23 -21,42 -48,42l0 -84zm-1686 2988c-26,0 -48,-19 -48,-42 0,-23 22,-42 48,-42l0 84zm1686 0l-1686 0 0 -84 1686 0 0 84zm0 -84c27,0 48,19 48,42 0,23 -21,42 -48,42l0 -84z"/>
  </g>
  <g>
   <path class="fil3" d="M6357 3239c-26,0 -48,-19 -48,-42 0,-23 22,-42 48,-42l0 84zm365 0l-365 0 0 -84 365 0 0 84zm0 -84c27,0 48,19 48,42 0,23 -21,42 -48,42l0 -84zm-1686 -720c-26,0 -48,-19 -48,-42 0,-23 22,-42 48,-42l0 84zm502 0l-502 0 0 -84 502 0 0 84zm0 -84c26,0 47,19 47,42 0,23 -21,42 -47,42l0 -84zm-502 -179c-26,0 -48,-18 -48,-42 0,-23 22,-42 48,-42l0 84zm1042 0l-1042 0 0 -84 1042 0 0 84zm0 -84c26,0 47,19 47,42 0,24 -21,42 -47,42l0 -84zm-701 1676c-26,0 -47,-19 -47,-42 0,-23 21,-42 47,-42l0 84zm1345 0l-1345 0 0 -84 1345 0 0 84zm0 -84c27,0 48,19 48,42 0,23 -21,42 -48,42l0 -84zm-849 -178c-26,0 -47,-19 -47,-42 0,-24 21,-42 47,-42l0 84zm849 0l-849 0 0 -84 849 0 0 84zm0 -84c27,0 48,18 48,42 0,23 -21,42 -48,42l0 -84z"/>
  </g>
  <g>
   <path class="fil4" d="M4548 927l0 4066 -77 0 0 -4066 39 -35 38 35zm-77 0c0,-19 18,-35 39,-35 21,0 38,16 38,35l-77 0zm2746 34l-2707 0 0 -69 2707 0 39 35 -39 34zm0 -69c21,0 39,16 39,35 0,18 -18,34 -39,34l0 -69zm-38 4101l0 -4066 77 0 0 4066 -39 34 -38 -34zm77 0c0,18 -18,34 -39,34 -21,0 -38,-16 -38,-34l77 0zm-2746 -35l2707 0 0 69 -2707 0 -39 -34 39 -35zm0 69c-21,0 -39,-16 -39,-34 0,-19 18,-35 39,-35l0 69z"/>
  </g>
  <path class="fil3" d="M4766 2783l-49 0 0 -100 109 0c12,0 24,-7 24,-25 0,-16 -12,-24 -24,-24l-135 0c-17,0 -24,10 -24,24l0 328c0,13 8,25 25,25l74 0c68,0 99,-36 99,-96l0 -32c0,-59 -31,-100 -99,-100zm50 132c0,32 -13,48 -50,48l-49 0 0 -135 49 0c37,0 50,21 50,54l0 33zm306 -286l-5 0c-73,0 -100,61 -100,120l0 39 -44 0 0 -134c0,-13 -5,-25 -23,-25 -17,0 -24,12 -24,25l0 337c0,13 7,25 24,25 18,0 23,-12 23,-25l0 -155 44 0 0 81c0,59 31,99 100,99l5 0c68,0 100,-45 100,-105l0 -177c0,-59 -32,-105 -100,-105zm49 282c0,34 -12,57 -49,57l-5 0c-38,0 -49,-17 -49,-51l0 -168c0,-34 9,-72 49,-72l5 0c37,0 49,23 49,57l0 177zm189 32c1,-12 18,-260 18,-260l75 0 0 308c0,13 7,25 26,25 17,0 24,-12 24,-25l0 -332c0,-13 -7,-25 -24,-25l-123 0c-18,0 -26,13 -26,25 0,0 -18,265 -18,272 -1,6 -1,16 -4,23 -5,9 -13,15 -27,15 -13,0 -24,9 -24,26 0,18 11,24 24,24 38,0 61,-16 72,-43 4,-9 6,-22 7,-33zm287 0c1,-12 18,-260 18,-260l75 0 0 308c0,13 8,25 26,25 17,0 25,-12 25,-25l0 -332c0,-13 -8,-25 -25,-25l-123 0c-17,0 -25,13 -26,25 0,0 -17,265 -18,272 0,6 -1,16 -4,23 -5,9 -13,15 -26,15 -13,0 -25,9 -25,26 0,18 12,24 25,24 38,0 60,-16 71,-43 4,-9 7,-22 7,-33zm387 68c12,0 24,-7 24,-24 0,-16 -12,-25 -24,-25l-115 0 0 -121 91 0c13,0 24,-7 24,-24 0,-16 -11,-24 -24,-24l-91 0 0 -110 115 0c12,0 24,-7 24,-25 0,-16 -12,-24 -24,-24l-141 0c-17,0 -25,12 -25,25l0 327c0,13 8,25 25,25l141 0zm137 -20c0,13 7,25 25,25 17,0 25,-12 25,-25l0 -308 63 0c12,0 23,-7 23,-25 0,-16 -11,-24 -23,-24l-175 0c-13,0 -24,8 -24,24 0,18 11,25 24,25l62 0 0 308zm348 20c13,0 24,-7 24,-24 0,-16 -11,-25 -24,-25l-115 0 0 -121 92 0c12,0 23,-7 23,-24 0,-16 -11,-24 -23,-24l-92 0 0 -110 115 0c13,0 24,-7 24,-25 0,-16 -11,-24 -24,-24l-141 0c-17,0 -24,12 -24,25l0 327c0,13 7,25 24,25l141 0zm290 -357c0,-13 -8,-25 -25,-25 -18,0 -25,12 -25,25l0 134 -109 0 0 -134c0,-13 -7,-25 -26,-25 -17,0 -25,12 -25,25l0 337c0,13 8,25 25,25 18,0 26,-12 26,-25l0 -155 109 0 0 155c0,13 7,25 25,25 17,0 25,-12 25,-25l0 -337zm183 126l-54 0 0 -126c0,-13 -8,-25 -26,-25 -17,0 -25,12 -25,25l0 332c0,12 8,24 25,24l80 0c68,0 99,-36 99,-96l0 -32c0,-59 -31,-102 -99,-102zm-54 48l54 0c37,0 50,21 50,54l0 32c0,32 -13,48 -50,48l-54 0 0 -134z"/>
  <path class="fil5 str0" d="M5239 5400l-37 0 0 -47 64 0c6,0 11,-4 11,-12 0,-7 -5,-11 -11,-11l-75 0c-9,0 -12,6 -12,12l0 152c0,6 3,11 12,11l48 0c32,0 48,-21 48,-48l0 -11c0,-28 -16,-46 -48,-46zm24 59c0,15 -7,24 -24,24l-37 0 0 -62 37 0c17,0 24,8 24,23l0 15zm159 -131c-33,0 -48,28 -48,55l0 19 -23 0 0 -63c0,-6 -2,-11 -11,-11 -8,0 -11,5 -11,11l0 157c0,6 3,12 11,12 8,0 11,-6 11,-12l0 -72 23 0 0 33c0,28 14,51 46,51l14 0c31,0 47,-23 47,-50l0 -80c0,-28 -16,-50 -47,-50l-12 0zm36 130c0,15 -7,27 -24,27l-12 0c-18,0 -25,-12 -25,-27l0 -73c0,-15 7,-35 25,-35l12 0c17,0 24,12 24,26l0 82zm101 16c2,-14 15,-121 15,-121l43 0 0 143c0,6 4,12 12,12 8,0 12,-6 12,-12l0 -154c0,-6 -4,-12 -12,-12l-65 0c-7,0 -11,5 -12,12 -1,7 -14,116 -15,126 -1,6 -2,10 -3,12 -3,5 -7,6 -15,6 -6,0 -11,4 -11,12 0,8 5,11 11,11 22,0 31,-7 36,-19 2,-5 3,-10 4,-16zm167 0c2,-14 15,-121 15,-121l44 0 0 143c0,6 3,12 12,12 8,0 11,-6 11,-12l0 -154c0,-6 -3,-12 -11,-12l-66 0c-7,0 -11,5 -12,12 0,7 -14,116 -15,126 -1,6 -2,10 -3,12 -3,5 -7,6 -14,6 -6,0 -12,4 -12,12 0,8 6,11 12,11 22,0 31,-7 36,-19 1,-5 2,-10 3,-16zm225 31c5,0 11,-3 11,-11 0,-7 -6,-11 -11,-11l-69 0 0 -56 57 0c5,0 11,-4 11,-12 0,-7 -6,-11 -11,-11l-57 0 0 -51 69 0c5,0 11,-4 11,-12 0,-7 -6,-11 -11,-11l-81 0c-8,0 -12,6 -12,12l0 152c0,6 4,11 12,11l81 0zm95 3c9,0 12,-6 12,-12l0 -143 37 0c5,0 11,-4 11,-12 0,-7 -6,-11 -11,-11l-97 0c-6,0 -11,4 -11,11 0,8 5,12 11,12l37 0 0 143c0,6 3,12 11,12zm186 -3c6,0 11,-3 11,-11 0,-7 -5,-11 -11,-11l-69 0 0 -56 57 0c6,0 11,-4 11,-12 0,-7 -5,-11 -11,-11l-57 0 0 -51 69 0c6,0 11,-4 11,-12 0,-7 -5,-11 -11,-11l-81 0c-8,0 -11,6 -11,12l0 152c0,6 3,11 11,11l81 0zm164 -166c0,-6 -4,-11 -12,-11 -8,0 -12,5 -12,11l0 63 -65 0 0 -63c0,-6 -4,-11 -12,-11 -8,0 -12,5 -12,11l0 157c0,6 4,12 12,12 8,0 12,-6 12,-12l0 -72 65 0 0 72c0,6 4,12 12,12 8,0 12,-6 12,-12l0 -157zm113 59l-39 0 0 -59c0,-6 -4,-11 -12,-11 -8,0 -12,5 -12,11l0 155c0,6 4,11 12,11l51 0c33,0 48,-21 48,-48l0 -11c0,-28 -15,-48 -48,-48zm25 61c0,15 -7,24 -24,24l-40 0 0 -62 39 0c18,0 25,8 25,23l0 15zm-2161 166c0,-6 -4,-11 -12,-11 -8,0 -12,5 -12,11l0 63 -66 0 0 -63c0,-6 -3,-11 -11,-11 -8,0 -12,5 -12,11l0 157c0,6 4,12 12,12 8,0 11,-6 11,-12l0 -72 66 0 0 72c0,6 4,12 12,12 8,0 12,-6 12,-12l0 -157zm142 166c6,0 11,-3 11,-11 0,-7 -5,-11 -11,-11l-69 0 0 -56 57 0c6,0 11,-4 11,-12 0,-7 -5,-11 -11,-11l-57 0 0 -51 69 0c6,0 11,-4 11,-12 0,-7 -5,-11 -11,-11l-81 0c-8,0 -11,6 -11,12l0 152c0,6 3,11 11,11l81 0zm150 -177c-8,-2 -13,3 -14,8 0,0 -12,48 -23,87 -2,0 -10,0 -18,0 -9,0 -14,-6 -15,-11 -4,-13 -20,-76 -20,-76 -2,-6 -7,-10 -14,-8 -9,2 -11,8 -9,14 0,0 15,57 19,73 4,17 12,29 42,29 4,0 8,0 8,0l1 0c-4,15 -8,26 -9,28 -3,8 -13,11 -19,11l-10 0c-6,0 -12,4 -12,12 0,8 6,11 12,11l10 0c16,0 31,-5 40,-25 4,-9 5,-11 8,-22 3,-11 31,-117 31,-117 2,-5 0,-12 -8,-14zm89 157c-17,0 -24,-12 -24,-27l0 -80c0,-16 7,-28 24,-28l26 0c11,0 16,5 17,15 1,6 4,12 12,12 8,0 12,-6 12,-12 0,-26 -16,-37 -41,-37l-26 0c-31,0 -47,22 -47,50l0 80c0,27 16,50 47,50l26 0c25,0 41,-11 41,-37 0,-6 -4,-12 -12,-12 -8,0 -11,6 -12,12 -1,10 -6,14 -17,14l-26 0zm152 23c8,0 12,-6 12,-12l0 -143 36 0c6,0 11,-4 11,-12 0,-7 -5,-11 -11,-11l-96 0c-6,0 -11,4 -11,11 0,8 5,12 11,12l36 0 0 143c0,6 4,12 12,12zm154 -52l14 44c2,6 8,10 15,7 7,-2 9,-8 7,-14l-50 -157c-2,-5 -5,-8 -12,-8l-1 0c-7,0 -10,3 -12,8l-51 157c-2,6 1,12 8,14 6,3 12,-1 14,-7l14 -44 54 0zm-31 -75c2,-6 3,-9 4,-15l0 0c2,6 2,9 4,15l17 54 -42 0 17 -54zm215 -42c0,-6 -4,-11 -12,-11 -8,0 -11,5 -11,11l0 63 -66 0 0 -63c0,-6 -4,-11 -12,-11 -8,0 -12,5 -12,11l0 157c0,6 4,12 12,12 8,0 12,-6 12,-12l0 -72 66 0 0 72c0,6 3,12 11,12 8,0 12,-6 12,-12l0 -157zm71 39c0,-16 7,-28 24,-28l20 0c18,0 24,12 24,28l0 80c0,15 -6,27 -24,27l-20 0c-17,0 -24,-12 -24,-27l0 -80zm92 0c0,-28 -16,-50 -48,-50l-20 0c-32,0 -47,22 -47,50l0 80c0,27 15,50 47,50l20 0c32,0 48,-23 48,-50l0 -80zm71 49l41 0c17,0 24,12 24,27l0 5c0,15 -7,24 -24,24l-41 0 0 -56zm0 -22l0 -52 30 0c17,0 24,6 24,21l0 6c0,15 -7,25 -24,25l-30 0zm89 49c0,-21 -10,-35 -28,-41 11,-7 17,-18 17,-33l0 -6c0,-28 -16,-44 -48,-44l-41 0c-9,0 -12,6 -12,12l0 152c0,6 3,11 12,11l52 0c32,0 48,-18 48,-46l0 -5zm74 20c1,-14 14,-121 14,-121l44 0 0 143c0,6 4,12 12,12 8,0 12,-6 12,-12l0 -154c0,-6 -4,-12 -12,-12l-65 0c-7,0 -11,5 -12,12 -1,7 -14,116 -16,126 0,6 -1,10 -3,12 -2,5 -6,6 -14,6 -6,0 -11,4 -11,12 0,8 5,11 11,11 22,0 31,-7 36,-19 2,-5 3,-10 4,-16zm224 31c6,0 11,-3 11,-11 0,-7 -5,-11 -11,-11l-69 0 0 -56 57 0c6,0 11,-4 11,-12 0,-7 -5,-11 -11,-11l-57 0 0 -51 69 0c6,0 11,-4 11,-12 0,-7 -5,-11 -11,-11l-81 0c-8,0 -11,6 -11,12l0 152c0,6 3,11 11,11l81 0zm164 -166c0,-6 -4,-11 -12,-11 -8,0 -11,5 -11,11l0 63 -66 0 0 -63c0,-6 -4,-11 -12,-11 -8,0 -12,5 -12,11l0 157c0,6 4,12 12,12 8,0 12,-6 12,-12l0 -72 66 0 0 72c0,6 3,12 11,12 8,0 12,-6 12,-12l0 -157zm163 0c0,-6 -4,-11 -12,-11 -8,0 -11,5 -11,11l0 63 -66 0 0 -63c0,-6 -3,-11 -12,-11 -8,0 -12,5 -12,11l0 157c0,6 4,12 12,12 8,0 12,-6 12,-12l0 -72 66 0 0 72c0,6 3,12 11,12 8,0 12,-6 12,-12l0 -157zm71 39c0,-16 7,-28 24,-28l20 0c18,0 25,12 25,28l0 80c0,15 -7,27 -25,27l-20 0c-17,0 -24,-12 -24,-27l0 -80zm92 0c0,-28 -16,-50 -48,-50l-20 0c-31,0 -47,22 -47,50l0 80c0,27 16,50 47,50l20 0c32,0 48,-23 48,-50l0 -80zm105 -64c23,0 35,-16 35,-33 0,-5 -4,-9 -10,-9 -5,0 -8,4 -9,9 -1,9 -7,16 -16,16 -10,0 -16,-7 -17,-16 0,-5 -4,-9 -9,-9 -5,0 -9,4 -9,9 0,17 12,33 35,33zm33 182c0,6 3,12 11,12 8,0 12,-6 12,-12l0 -157c0,-6 -4,-11 -12,-11 -5,0 -8,1 -12,8l-67 119 0 0c0,-4 1,-10 1,-17l0 -99c0,-6 -4,-11 -12,-11 -8,0 -11,5 -11,11l0 157c0,6 3,12 12,12 4,0 8,-2 11,-9l67 -119 1 0c-1,5 -1,11 -1,18l0 98zm234 -146l-14 0 0 -15c0,-6 -3,-11 -11,-11 -8,0 -12,5 -12,11l0 15 -14 0c-32,0 -47,18 -47,47l0 31c0,28 15,49 47,49l14 0 0 22c0,6 3,12 11,12 9,0 12,-6 12,-12l0 -22 14 0c32,0 48,-21 48,-49l0 -31c0,-29 -16,-47 -48,-47zm-37 106l-14 0c-17,0 -24,-12 -24,-27l0 -33c0,-15 7,-25 24,-25l14 0 0 85zm62 -27c0,15 -8,27 -25,27l-14 0 0 -85 14 0c17,0 25,10 25,25l0 33zm89 -51c0,-16 7,-28 24,-28l20 0c18,0 24,12 24,28l0 80c0,15 -6,27 -24,27l-20 0c-17,0 -24,-12 -24,-27l0 -80zm92 0c0,-28 -16,-50 -48,-50l-20 0c-31,0 -47,22 -47,50l0 80c0,27 16,50 47,50l20 0c32,0 48,-23 48,-50l0 -80zm71 37l0 -63 39 0c17,0 25,9 25,24l0 13c0,15 -8,26 -25,26l-39 0zm39 22c32,0 48,-21 48,-48l0 -13c0,-28 -16,-46 -48,-46l-51 0c-8,0 -11,6 -11,12l0 154c0,6 3,12 11,12 9,0 12,-6 12,-12l0 -59 39 0zm158 -10c-1,-4 -3,-9 -6,-14l-39 -77c-3,-7 -6,-8 -12,-8 -8,0 -11,5 -11,11l0 157c0,6 3,12 11,12 9,0 12,-6 12,-12l0 -96c0,-7 -1,-13 -1,-17l0 0 36 69c2,4 4,6 10,6 6,0 9,-2 11,-6l35 -69 1 0c-1,4 -1,10 -1,17l0 96c0,6 3,12 11,12 8,0 12,-6 12,-12l0 -157c0,-6 -4,-11 -12,-11 -5,0 -8,1 -12,8l-39 77c-2,5 -4,10 -6,14zm266 69l0 -157c0,-6 -3,-11 -11,-11 -8,0 -12,5 -12,11l0 157c0,6 3,12 11,12 8,0 12,-6 12,-12zm-93 -98l-31 0 0 -59c0,-6 -3,-11 -12,-11 -8,0 -11,5 -11,11l0 155c0,6 3,11 12,11l42 0c33,0 48,-21 48,-48l0 -11c0,-28 -15,-48 -48,-48zm25 61c0,15 -7,24 -24,24l-32 0 0 -62 31 0c18,0 25,8 25,23l0 15z"/>
 </g>
</svg>
