<?xml version="1.0" encoding="UTF-8"?>
<!DOCTYPE svg PUBLIC "-//W3C//DTD SVG 1.1//EN" "http://www.w3.org/Graphics/SVG/1.1/DTD/svg11.dtd">
<!-- Creator: CorelDRAW X6 -->
<svg xmlns="http://www.w3.org/2000/svg" xml:space="preserve" width="200mm" height="200mm" version="1.1" style="shape-rendering:geometricPrecision; text-rendering:geometricPrecision; image-rendering:optimizeQuality; fill-rule:evenodd; clip-rule:evenodd"
viewBox="0 0 20000 20000"
 xmlns:xlink="http://www.w3.org/1999/xlink">
 <defs>
  <style type="text/css">
   <![CDATA[
    .str1 {stroke:#B9687A;stroke-width:12.73}
    .str2 {stroke:#806350;stroke-width:33.31}
    .str0 {stroke:#AB8082;stroke-width:182.9;stroke-linecap:round;stroke-linejoin:round}
    .fil3 {fill:none}
    .fil2 {fill:#FFF7B3}
    .fil1 {fill:#FFFADB}
    .fil4 {fill:#B9687A;fill-rule:nonzero}
    .fil5 {fill:#806350;fill-rule:nonzero}
    .fil6 {fill:#A37D66;fill-rule:nonzero}
    .fil0 {fill:url(#id0)}
   ]]>
  </style>
  <radialGradient id="id0" gradientUnits="objectBoundingBox" cx="50%" cy="50%" r="50%" fx="50%" fy="50%">
   <stop offset="0" style="stop-color:#FEFEFE"/>
   <stop offset="0.458824" style="stop-color:#FEFEFE"/>
   <stop offset="1" style="stop-color:#D1E2F2"/>
  </radialGradient>
 </defs>
 <g id="Layer_x0020_1">
  <metadata id="CorelCorpID_0Corel-Layer"/>
  <g id="_727408160">
   <polygon class="fil0" points="0,0 20000,0 20000,20000 0,20000 "/>
   <path class="fil1" d="M13366 4951l0 10097c-2521,0 -4210,0 -6732,0l0 -10097 6732 0z"/>
   <path class="fil2" d="M6634 4951l6732 0 0 5586 -6732 -3199c11,-331 0,-2166 0,-2387z"/>
   <path class="fil3 str0" d="M13366 4951l0 10097c-2521,0 -4210,0 -6732,0l0 -10097 6732 0z"/>
   <path class="fil4 str1" d="M10372 5541l0 302c0,13 7,24 25,24 17,0 25,-12 25,-24l0 -325c0,-13 -8,-24 -25,-24l-177 0c-17,0 -25,12 -25,24l0 325c0,13 8,24 25,24 17,0 25,-12 25,-24l0 -302 128 0zm174 53c0,-33 14,-58 50,-58l42 0c36,0 50,25 50,58l0 168c0,33 -14,58 -50,58l-42 0c-36,0 -50,-25 -50,-58l0 -168zm192 0c0,-58 -33,-105 -100,-105l-42 0c-67,0 -100,47 -100,105l0 168c0,58 33,105 100,105l42 0c67,0 100,-47 100,-105l0 -168zm124 104l86 0c36,0 50,24 50,56l0 12c0,32 -14,49 -50,49l-86 0 0 -117zm0 -46l0 -110 64 0c36,0 50,13 50,44l0 13c0,32 -15,54 -50,54l-64 0zm186 102c0,-44 -19,-74 -58,-86 23,-14 36,-37 36,-69l0 -13c0,-59 -34,-92 -100,-92l-88 0c-18,0 -25,12 -25,24l0 320c0,13 7,24 25,24l110 0c67,0 100,-38 100,-97l0 -12zm155 114c17,0 25,-12 25,-24l0 -302 77 0c12,0 23,-7 23,-24 0,-16 -11,-24 -23,-24l-203 0c-12,0 -23,8 -23,24 0,17 11,24 23,24l77 0 0 302c0,13 7,24 25,24zm215 -273c0,-33 14,-58 50,-58l42 0c36,0 50,25 50,58l0 168c0,33 -14,58 -50,58l-42 0c-36,0 -50,-25 -50,-58l0 -168zm192 0c0,-58 -33,-105 -100,-105l-42 0c-67,0 -100,47 -100,105l0 168c0,58 33,105 100,105l42 0c67,0 100,-47 100,-105l0 -168zm124 78l0 -131 82 0c36,0 52,18 52,50l0 26c0,32 -15,55 -52,55l-82 0zm82 47c68,0 101,-44 101,-102l0 -26c0,-59 -33,-97 -101,-97l-107 0c-17,0 -24,12 -24,24l0 325c0,13 7,24 25,24 17,0 25,-12 25,-24l0 -124 82 0zm400 -206c0,-13 -8,-24 -25,-24 -17,0 -25,12 -25,24l0 131 -138 0 0 -131c0,-13 -7,-24 -25,-24 -17,0 -25,12 -25,24l0 330c0,13 8,24 25,24 17,0 25,-12 25,-24l0 -152 138 0 0 152c0,13 7,24 25,24 17,0 25,-12 25,-24l0 -330zm390 330l0 -330c0,-13 -7,-24 -24,-24 -17,0 -25,12 -25,24l0 330c0,13 7,24 24,24 17,0 25,-12 25,-24zm-195 -207l-65 0 0 -124c0,-13 -7,-24 -25,-24 -17,0 -25,12 -25,24l0 325c0,13 7,24 25,24l89 0c68,0 101,-44 101,-102l0 -24c0,-59 -32,-100 -101,-100zm52 129c0,32 -14,49 -50,49l-66 0 0 -131 65 0c36,0 52,18 52,50l0 32 0 0zm343 -304c48,0 73,-34 73,-70 0,-11 -8,-18 -19,-18 -11,0 -18,7 -19,19 -2,19 -14,34 -34,34 -20,0 -33,-14 -34,-34 -1,-12 -8,-19 -19,-19 -11,0 -19,7 -19,18 0,36 25,70 73,70zm69 382c0,13 7,24 24,24 18,0 25,-12 25,-24l0 -330c0,-13 -7,-24 -25,-24 -10,0 -17,4 -25,18l-140 250 -1 0c1,-9 2,-22 2,-36l0 -208c0,-13 -7,-24 -24,-24 -18,0 -25,12 -25,24l0 330c0,13 7,24 25,24 10,0 17,-4 25,-18l140 -250 1 0c-1,9 -2,22 -2,36l0 208z"/>
   <path class="fil5 str2" d="M8061 7355l0 619c0,26 14,50 51,50 35,0 51,-24 51,-50l0 -666c0,-26 -16,-50 -51,-50l-363 0c-35,0 -51,24 -51,50l0 666c0,26 16,50 51,50 36,0 51,-24 51,-50l0 -619 262 0zm367 267l0 -269 168 0c74,0 106,38 106,102l0 54c0,66 -31,112 -106,112l-168 0zm168 97c139,0 207,-91 207,-209l0 -54c0,-121 -68,-198 -207,-198l-220 0c-35,0 -50,24 -50,50l0 666c0,26 15,50 51,50 36,0 51,-24 51,-50l0 -255 168 0zm425 -257c0,-67 29,-119 104,-119l86 0c74,0 104,52 104,119l0 345c0,67 -29,119 -104,119l-86 0c-74,0 -104,-52 -104,-119l0 -345zm395 0c0,-119 -68,-216 -205,-216l-86 0c-137,0 -205,97 -205,216l0 345c0,119 68,216 205,216l86 0c137,0 205,-97 205,-216l0 -345zm340 561c36,0 51,-24 51,-50l0 -619 157 0c25,0 47,-14 47,-49 0,-32 -23,-49 -47,-49l-416 0c-25,0 -47,16 -47,49 0,35 23,49 47,49l157 0 0 619c0,26 15,50 51,50zm441 -561c0,-67 29,-119 104,-119l86 0c74,0 104,52 104,119l0 345c0,67 -29,119 -104,119l-86 0c-74,0 -104,-52 -104,-119l0 -345zm395 0c0,-119 -68,-216 -205,-216l-86 0c-137,0 -205,97 -205,216l0 345c0,119 68,216 205,216l86 0c137,0 205,-97 205,-216l0 -345zm634 481l-232 -329 220 -286c19,-25 19,-52 -2,-71 -26,-24 -57,-12 -75,11l-226 307 -65 0 0 -279c0,-26 -15,-50 -50,-50 -37,0 -52,24 -52,50l0 677c0,26 15,50 52,50 35,0 50,-24 50,-50l0 -301 66 0 232 329c14,22 41,33 70,14 30,-22 28,-51 13,-72zm218 -481c0,-67 29,-119 104,-119l86 0c74,0 104,52 104,119l0 345c0,67 -29,119 -104,119l-86 0c-74,0 -104,-52 -104,-119l0 -345zm395 0c0,-119 -68,-216 -205,-216l-86 0c-137,0 -205,97 -205,216l0 345c0,119 68,216 205,216l86 0c137,0 205,-97 205,-216l0 -345zm304 414c8,-61 64,-522 64,-522l189 0 0 619c0,26 15,50 52,50 35,0 50,-24 50,-50l0 -666c0,-26 -15,-50 -50,-50l-281 0c-31,0 -49,21 -52,50 -3,31 -61,503 -67,545 -3,25 -6,41 -13,52 -11,20 -29,26 -60,26 -26,0 -50,16 -50,51 0,37 24,49 50,49 94,0 133,-30 154,-84 8,-20 12,-40 15,-68z"/>
   <g>
    <path class="fil6" d="M7693 5790l0 111 -3 0 -3 0 -3 0 -3 0 -3 -1 -3 -1 -3 -1 -3 -1 -3 -1 -3 -1 -3 -1 -3 -1 -3 -2 -2 -2 -2 -2 -2 -2 -2 -2 -2 -2 -2 -2 -2 -2 -2 -2 -2 -2 -1 -2 -1 -2 -1 -3 -1 -3 -1 -3 -1 -3 -1 -3 0 -3 0 -3 0 -3 0 -3 0 -3 0 -3 1 -3 1 -3 1 -3 1 -3 1 -3 1 -2 1 -2 2 -2 2 -2 2 -2 2 -2 2 -2 2 -2 2 -2 2 -2 2 -2 3 -2 3 -1 3 -1 3 -1 3 -1 3 -1 3 -1 3 -1 3 -1 3 0 3 0 3 0 3 0zm860 111l-860 0 0 -111 860 0 0 111zm0 0l0 -111 3 0 3 0 3 0 3 0 3 1 3 1 3 1 3 1 3 1 3 1 3 1 3 1 3 2 2 2 2 2 2 2 2 2 2 2 2 2 2 2 2 2 2 2 1 2 1 2 1 3 1 3 1 3 1 3 1 3 0 3 0 3 0 3 0 3 0 3 0 3 -1 3 -1 3 -1 3 -1 3 -1 3 -1 2 -1 2 -2 2 -2 2 -2 2 -2 2 -2 2 -2 2 -2 2 -2 2 -2 2 -3 2 -3 1 -3 1 -3 1 -3 1 -3 1 -3 1 -3 1 -3 1 -3 0 -3 0 -3 0 -3 0zm-860 718l0 111 -3 0 -3 0 -3 0 -3 0 -3 -1 -3 -1 -3 -1 -3 -1 -3 -1 -3 -1 -3 -1 -3 -1 -3 -2 -2 -2 -2 -2 -2 -2 -2 -2 -2 -2 -2 -2 -2 -2 -2 -2 -2 -2 -1 -2 -1 -2 -1 -3 -1 -3 -1 -3 -1 -3 -1 -3 0 -3 0 -3 0 -3 0 -3 0 -3 0 -3 1 -3 1 -3 1 -3 1 -3 1 -3 1 -2 1 -2 2 -2 2 -2 2 -2 2 -2 2 -2 2 -2 2 -2 2 -2 2 -2 3 -2 3 -1 3 -1 3 -1 3 -1 3 -1 3 -1 3 -1 3 -1 3 0 3 0 3 0 3 0zm2193 111l-2193 0 0 -111 2193 0 0 111zm0 0l0 -111 3 0 3 0 3 0 3 0 3 1 3 1 3 1 3 1 3 1 3 1 3 1 3 1 3 2 2 2 2 2 2 2 2 2 2 2 2 2 2 2 2 2 2 2 1 2 1 2 1 3 1 3 1 3 1 3 1 3 0 3 0 3 0 3 0 3 0 3 0 3 -1 3 -1 3 -1 3 -1 3 -1 3 -1 2 -1 2 -2 2 -2 2 -2 2 -2 2 -2 2 -2 2 -2 2 -2 2 -2 2 -3 2 -3 1 -3 1 -3 1 -3 1 -3 1 -3 1 -3 1 -3 1 -3 0 -3 0 -3 0 -3 0zm-2193 -526l0 111 -3 0 -3 0 -3 0 -3 0 -3 -1 -3 -1 -3 -1 -3 -1 -3 -1 -3 -1 -3 -1 -3 -1 -3 -2 -2 -2 -2 -2 -2 -2 -2 -2 -2 -2 -2 -2 -2 -2 -2 -2 -2 -2 -1 -2 -1 -2 -1 -3 -1 -3 -1 -3 -1 -3 -1 -3 0 -3 0 -3 0 -3 0 -3 0 -3 0 -3 1 -3 1 -3 1 -3 1 -3 1 -3 1 -2 1 -2 2 -2 2 -2 2 -2 2 -2 2 -2 2 -2 2 -2 2 -2 2 -2 3 -2 3 -1 3 -1 3 -1 3 -1 3 -1 3 -1 3 -1 3 -1 3 0 3 0 3 0 3 0zm2183 111l-2183 0 0 -111 2183 0 0 111zm0 0l0 -111 3 0 3 0 3 0 3 0 3 1 3 1 3 1 3 1 3 1 3 1 3 1 3 1 3 2 2 2 2 2 2 2 2 2 2 2 2 2 2 2 2 2 2 2 1 2 1 2 1 3 1 3 1 3 1 3 1 3 0 3 0 3 0 3 0 3 0 3 0 3 -1 3 -1 3 -1 3 -1 3 -1 3 -1 2 -1 2 -2 2 -2 2 -2 2 -2 2 -2 2 -2 2 -2 2 -2 2 -2 2 -3 2 -3 1 -3 1 -3 1 -3 1 -3 1 -3 1 -3 1 -3 1 -3 0 -3 0 -3 0 -3 0z"/>
   </g>
   <g>
    <path class="fil6" d="M7591 9571l0 140 -3 0 -3 0 -3 0 -3 -1 -3 -1 -3 -1 -3 -1 -3 -1 -3 -1 -3 -2 -3 -2 -3 -2 -3 -2 -2 -2 -2 -2 -2 -2 -2 -2 -2 -3 -2 -3 -2 -3 -2 -3 -2 -3 -1 -3 -1 -3 -1 -3 -1 -3 -1 -3 -1 -3 -1 -3 0 -4 0 -4 0 -4 0 -4 0 -4 0 -4 1 -3 1 -3 1 -3 1 -3 1 -3 1 -3 1 -3 2 -3 2 -3 2 -3 2 -3 2 -3 2 -2 2 -2 2 -2 2 -2 3 -2 3 -2 3 -2 3 -2 3 -1 3 -1 3 -1 3 -1 3 -1 3 -1 3 0 3 0 3 0zm1733 140l-1733 0 0 -140 1733 0 0 140zm0 0l0 -140 3 0 3 0 3 0 3 1 3 1 3 1 3 1 3 1 3 1 3 2 3 2 3 2 3 2 2 2 2 2 2 2 2 2 2 3 2 3 2 3 2 3 2 3 1 3 1 3 1 3 1 3 1 3 1 3 1 3 0 4 0 4 0 4 0 4 0 4 0 4 -1 3 -1 3 -1 3 -1 3 -1 3 -1 3 -1 3 -2 3 -2 3 -2 3 -2 3 -2 3 -2 2 -2 2 -2 2 -2 2 -3 2 -3 2 -3 2 -3 2 -3 1 -3 1 -3 1 -3 1 -3 1 -3 1 -3 0 -3 0 -3 0zm-1733 2795l0 140 -3 0 -3 0 -3 0 -3 -1 -3 -1 -3 -1 -3 -1 -3 -1 -3 -1 -3 -2 -3 -2 -3 -2 -3 -2 -2 -2 -2 -2 -2 -2 -2 -2 -2 -3 -2 -3 -2 -3 -2 -3 -2 -3 -1 -3 -1 -3 -1 -3 -1 -3 -1 -3 -1 -3 -1 -3 0 -4 0 -4 0 -4 0 -4 0 -4 0 -4 1 -3 1 -3 1 -3 1 -3 1 -3 1 -3 1 -3 2 -3 2 -3 2 -3 2 -3 2 -3 2 -2 2 -2 2 -2 2 -2 3 -2 3 -2 3 -2 3 -2 3 -1 3 -1 3 -1 3 -1 3 -1 3 -1 3 0 3 0 3 0zm1572 140l-1572 0 0 -140 1572 0 0 140zm0 0l0 -140 3 0 3 0 3 0 3 1 3 1 3 1 3 1 3 1 3 1 3 2 3 2 3 2 3 2 2 2 2 2 2 2 2 2 2 3 2 3 2 3 2 3 2 3 1 3 1 3 1 3 1 3 1 3 1 3 1 3 0 4 0 4 0 4 0 4 0 4 0 4 -1 3 -1 3 -1 3 -1 3 -1 3 -1 3 -1 3 -2 3 -2 3 -2 3 -2 3 -2 3 -2 2 -2 2 -2 2 -2 2 -3 2 -3 2 -3 2 -3 2 -3 1 -3 1 -3 1 -3 1 -3 1 -3 1 -3 0 -3 0 -3 0zm-1572 228l0 140 -3 0 -3 0 -3 0 -3 -1 -3 -1 -3 -1 -3 -1 -3 -1 -3 -1 -3 -2 -3 -2 -3 -2 -3 -2 -2 -2 -2 -2 -2 -2 -2 -2 -2 -3 -2 -3 -2 -3 -2 -3 -2 -3 -1 -3 -1 -3 -1 -3 -1 -3 -1 -3 -1 -3 -1 -3 0 -4 0 -4 0 -4 0 -4 0 -4 0 -4 1 -3 1 -3 1 -3 1 -3 1 -3 1 -3 1 -3 2 -3 2 -3 2 -3 2 -3 2 -3 2 -2 2 -2 2 -2 2 -2 3 -2 3 -2 3 -2 3 -2 3 -1 3 -1 3 -1 3 -1 3 -1 3 -1 3 0 3 0 3 0zm2135 140l-2135 0 0 -140 2135 0 0 140zm0 0l0 -140 3 0 3 0 3 0 3 1 3 1 3 1 3 1 3 1 3 1 3 2 3 2 3 2 3 2 2 2 2 2 2 2 2 2 2 3 2 3 2 3 2 3 2 3 1 3 1 3 1 3 1 3 1 3 1 3 1 3 0 4 0 4 0 4 0 4 0 4 0 4 -1 3 -1 3 -1 3 -1 3 -1 3 -1 3 -1 3 -2 3 -2 3 -2 3 -2 3 -2 3 -2 2 -2 2 -2 2 -2 2 -3 2 -3 2 -3 2 -3 2 -3 1 -3 1 -3 1 -3 1 -3 1 -3 1 -3 0 -3 0 -3 0zm-2135 -1487l0 140 -3 0 -3 0 -3 0 -3 -1 -3 -1 -3 -1 -3 -1 -3 -1 -3 -1 -3 -2 -3 -2 -3 -2 -3 -2 -2 -2 -2 -2 -2 -2 -2 -2 -2 -3 -2 -3 -2 -3 -2 -3 -2 -3 -1 -3 -1 -3 -1 -3 -1 -3 -1 -3 -1 -3 -1 -3 0 -4 0 -4 0 -4 0 -4 0 -4 0 -4 1 -3 1 -3 1 -3 1 -3 1 -3 1 -3 1 -3 2 -3 2 -3 2 -3 2 -3 2 -3 2 -2 2 -2 2 -2 2 -2 3 -2 3 -2 3 -2 3 -2 3 -1 3 -1 3 -1 3 -1 3 -1 3 -1 3 0 3 0 3 0zm3710 140l-3710 0 0 -140 3710 0 0 140zm0 0l0 -140 3 0 3 0 3 0 3 1 3 1 3 1 3 1 3 1 3 1 3 2 3 2 3 2 3 2 2 2 2 2 2 2 2 2 2 3 2 3 2 3 2 3 2 3 1 3 1 3 1 3 1 3 1 3 1 3 1 3 0 4 0 4 0 4 0 4 0 4 0 4 -1 3 -1 3 -1 3 -1 3 -1 3 -1 3 -1 3 -2 3 -2 3 -2 3 -2 3 -2 3 -2 2 -2 2 -2 2 -2 2 -3 2 -3 2 -3 2 -3 2 -3 1 -3 1 -3 1 -3 1 -3 1 -3 1 -3 0 -3 0 -3 0zm-3710 228l0 140 -3 0 -3 0 -3 0 -3 -1 -3 -1 -3 -1 -3 -1 -3 -1 -3 -1 -3 -2 -3 -2 -3 -2 -3 -2 -2 -2 -2 -2 -2 -2 -2 -2 -2 -3 -2 -3 -2 -3 -2 -3 -2 -3 -1 -3 -1 -3 -1 -3 -1 -3 -1 -3 -1 -3 -1 -3 0 -4 0 -4 0 -4 0 -4 0 -4 0 -4 1 -3 1 -3 1 -3 1 -3 1 -3 1 -3 1 -3 2 -3 2 -3 2 -3 2 -3 2 -3 2 -2 2 -2 2 -2 2 -2 3 -2 3 -2 3 -2 3 -2 3 -1 3 -1 3 -1 3 -1 3 -1 3 -1 3 0 3 0 3 0zm2501 140l-2501 0 0 -140 2501 0 0 140zm0 0l0 -140 3 0 3 0 3 0 3 1 3 1 3 1 3 1 3 1 3 1 3 2 3 2 3 2 3 2 2 2 2 2 2 2 2 2 2 3 2 3 2 3 2 3 2 3 1 3 1 3 1 3 1 3 1 3 1 3 1 3 0 4 0 4 0 4 0 4 0 4 0 4 -1 3 -1 3 -1 3 -1 3 -1 3 -1 3 -1 3 -2 3 -2 3 -2 3 -2 3 -2 3 -2 2 -2 2 -2 2 -2 2 -3 2 -3 2 -3 2 -3 2 -3 1 -3 1 -3 1 -3 1 -3 1 -3 1 -3 0 -3 0 -3 0zm-2501 -1487l0 140 -3 0 -3 0 -3 0 -3 -1 -3 -1 -3 -1 -3 -1 -3 -1 -3 -1 -3 -2 -3 -2 -3 -2 -3 -2 -2 -2 -2 -2 -2 -2 -2 -2 -2 -3 -2 -3 -2 -3 -2 -3 -2 -3 -1 -3 -1 -3 -1 -3 -1 -3 -1 -3 -1 -3 -1 -3 0 -4 0 -4 0 -4 0 -4 0 -4 0 -4 1 -3 1 -3 1 -3 1 -3 1 -3 1 -3 1 -3 2 -3 2 -3 2 -3 2 -3 2 -3 2 -2 2 -2 2 -2 2 -2 3 -2 3 -2 3 -2 3 -2 3 -1 3 -1 3 -1 3 -1 3 -1 3 -1 3 0 3 0 3 0zm3710 140l-3710 0 0 -140 3710 0 0 140zm0 0l0 -140 3 0 3 0 3 0 3 1 3 1 3 1 3 1 3 1 3 1 3 2 3 2 3 2 3 2 2 2 2 2 2 2 2 2 2 3 2 3 2 3 2 3 2 3 1 3 1 3 1 3 1 3 1 3 1 3 1 3 0 4 0 4 0 4 0 4 0 4 0 4 -1 3 -1 3 -1 3 -1 3 -1 3 -1 3 -1 3 -2 3 -2 3 -2 3 -2 3 -2 3 -2 2 -2 2 -2 2 -2 2 -3 2 -3 2 -3 2 -3 2 -3 1 -3 1 -3 1 -3 1 -3 1 -3 1 -3 0 -3 0 -3 0zm-3710 228l0 140 -3 0 -3 0 -3 0 -3 -1 -3 -1 -3 -1 -3 -1 -3 -1 -3 -1 -3 -2 -3 -2 -3 -2 -3 -2 -2 -2 -2 -2 -2 -2 -2 -2 -2 -3 -2 -3 -2 -3 -2 -3 -2 -3 -1 -3 -1 -3 -1 -3 -1 -3 -1 -3 -1 -3 -1 -3 0 -4 0 -4 0 -4 0 -4 0 -4 0 -4 1 -3 1 -3 1 -3 1 -3 1 -3 1 -3 1 -3 2 -3 2 -3 2 -3 2 -3 2 -3 2 -2 2 -2 2 -2 2 -2 3 -2 3 -2 3 -2 3 -2 3 -1 3 -1 3 -1 3 -1 3 -1 3 -1 3 0 3 0 3 0zm2703 140l-2703 0 0 -140 2703 0 0 140zm0 0l0 -140 3 0 3 0 3 0 3 1 3 1 3 1 3 1 3 1 3 1 3 2 3 2 3 2 3 2 2 2 2 2 2 2 2 2 2 3 2 3 2 3 2 3 2 3 1 3 1 3 1 3 1 3 1 3 1 3 1 3 0 4 0 4 0 4 0 4 0 4 0 4 -1 3 -1 3 -1 3 -1 3 -1 3 -1 3 -1 3 -2 3 -2 3 -2 3 -2 3 -2 3 -2 2 -2 2 -2 2 -2 2 -3 2 -3 2 -3 2 -3 2 -3 1 -3 1 -3 1 -3 1 -3 1 -3 1 -3 0 -3 0 -3 0zm-2703 -1118l0 140 -3 0 -3 0 -3 0 -3 -1 -3 -1 -3 -1 -3 -1 -3 -1 -3 -1 -3 -2 -3 -2 -3 -2 -3 -2 -2 -2 -2 -2 -2 -2 -2 -2 -2 -3 -2 -3 -2 -3 -2 -3 -2 -3 -1 -3 -1 -3 -1 -3 -1 -3 -1 -3 -1 -3 -1 -3 0 -4 0 -4 0 -4 0 -4 0 -4 0 -4 1 -3 1 -3 1 -3 1 -3 1 -3 1 -3 1 -3 2 -3 2 -3 2 -3 2 -3 2 -3 2 -2 2 -2 2 -2 2 -2 3 -2 3 -2 3 -2 3 -2 3 -1 3 -1 3 -1 3 -1 3 -1 3 -1 3 0 3 0 3 0zm3723 140l-3723 0 0 -140 3723 0 0 140zm0 0l0 -140 3 0 3 0 3 0 3 1 3 1 3 1 3 1 3 1 3 1 3 2 3 2 3 2 3 2 2 2 2 2 2 2 2 2 2 3 2 3 2 3 2 3 2 3 1 3 1 3 1 3 1 3 1 3 1 3 1 3 0 4 0 4 0 4 0 4 0 4 0 4 -1 3 -1 3 -1 3 -1 3 -1 3 -1 3 -1 3 -2 3 -2 3 -2 3 -2 3 -2 3 -2 2 -2 2 -2 2 -2 2 -3 2 -3 2 -3 2 -3 2 -3 1 -3 1 -3 1 -3 1 -3 1 -3 1 -3 0 -3 0 -3 0z"/>
   </g>
   <g>
    <path class="fil5" d="M7609 8508l0 155 -5 0 -5 0 -5 0 -4 -1 -4 -1 -4 -1 -4 -1 -4 -1 -4 -2 -4 -2 -4 -2 -4 -2 -4 -2 -3 -2 -3 -2 -3 -3 -3 -3 -3 -3 -3 -3 -3 -3 -2 -3 -2 -3 -2 -3 -2 -3 -2 -4 -1 -4 -1 -4 -1 -4 -1 -4 -1 -4 0 -4 0 -4 0 -4 0 -4 1 -4 1 -4 1 -4 1 -4 1 -4 2 -4 2 -3 2 -3 2 -3 2 -3 3 -3 3 -3 3 -3 3 -3 3 -3 3 -2 3 -2 4 -2 4 -2 4 -2 4 -2 4 -2 4 -1 4 -1 4 -1 4 -1 4 -1 5 0 5 0 5 0zm4950 155l-4950 0 0 -155 4950 0 0 155zm0 0l0 -155 5 0 5 0 5 0 4 1 4 1 4 1 4 1 4 1 4 2 4 2 4 2 4 2 4 2 3 2 3 2 3 3 3 3 3 3 3 3 3 3 2 3 2 3 2 3 2 3 2 4 1 4 1 4 1 4 1 4 1 4 0 4 0 4 0 4 0 4 -1 4 -1 4 -1 4 -1 4 -1 4 -2 4 -2 3 -2 3 -2 3 -2 3 -3 3 -3 3 -3 3 -3 3 -3 3 -3 2 -3 2 -4 2 -4 2 -4 2 -4 2 -4 2 -4 1 -4 1 -4 1 -4 1 -4 1 -5 0 -5 0 -5 0zm-3821 -457l0 155 -5 0 -5 0 -5 0 -4 -1 -4 -1 -4 -1 -4 -1 -4 -1 -4 -2 -4 -2 -4 -2 -4 -2 -4 -2 -3 -2 -3 -2 -3 -3 -3 -3 -3 -3 -3 -3 -3 -3 -2 -3 -2 -3 -2 -3 -2 -3 -2 -4 -1 -4 -1 -4 -1 -4 -1 -4 -1 -4 0 -4 0 -4 0 -4 0 -4 1 -4 1 -4 1 -4 1 -4 1 -4 2 -4 2 -3 2 -3 2 -3 2 -3 3 -3 3 -3 3 -3 3 -3 3 -3 3 -2 3 -2 4 -2 4 -2 4 -2 4 -2 4 -2 4 -1 4 -1 4 -1 4 -1 4 -1 5 0 5 0 5 0zm2632 155l-2632 0 0 -155 2632 0 0 155zm0 0l0 -155 5 0 5 0 5 0 4 1 4 1 4 1 4 1 4 1 4 2 4 2 4 2 4 2 4 2 3 2 3 2 3 3 3 3 3 3 3 3 3 3 2 3 2 3 2 3 2 3 2 4 1 4 1 4 1 4 1 4 1 4 0 4 0 4 0 4 0 4 -1 4 -1 4 -1 4 -1 4 -1 4 -2 4 -2 3 -2 3 -2 3 -2 3 -3 3 -3 3 -3 3 -3 3 -3 3 -3 2 -3 2 -4 2 -4 2 -4 2 -4 2 -4 2 -4 1 -4 1 -4 1 -4 1 -4 1 -5 0 -5 0 -5 0z"/>
   </g>
  </g>
 </g>
</svg>
