<?xml version="1.0" encoding="UTF-8"?>
<!DOCTYPE svg PUBLIC "-//W3C//DTD SVG 1.0//EN" "http://www.w3.org/TR/2001/REC-SVG-20010904/DTD/svg10.dtd">
<!-- Creator: CorelDRAW X7 -->
<svg xmlns="http://www.w3.org/2000/svg" xml:space="preserve" width="115.711mm" height="70.5556mm" version="1.0" style="shape-rendering:geometricPrecision; text-rendering:geometricPrecision; image-rendering:optimizeQuality; fill-rule:evenodd; clip-rule:evenodd"
viewBox="0 0 11571 7056"
 xmlns:xlink="http://www.w3.org/1999/xlink">
 <defs>
  <style type="text/css">
   <![CDATA[
    .str0 {stroke:#CC7588;stroke-width:25}
    .fil1 {fill:#CC7588}
    .fil0 {fill:url(#id0)}
   ]]>
  </style>
  <radialGradient id="id0" gradientUnits="userSpaceOnUse" gradientTransform="matrix(1.17124 -0 -0 1.92083 -991 -3248)" cx="5785.55" cy="3527.78" r="10000" fx="5785.55" fy="3527.78">
   <stop offset="0" style="stop-opacity:1; stop-color:#FEFEFE"/>
   <stop offset="0.439216" style="stop-opacity:1; stop-color:#FEFEFE"/>
   <stop offset="1" style="stop-opacity:1; stop-color:#D1E2F2"/>
  </radialGradient>
 </defs>
 <g id="Layer_x0020_1">
  <metadata id="CorelCorpID_0Corel-Layer"/>
  <g id="_599948708544">
   <path class="fil0" d="M0 0l11571 0 0 7056 -11571 0 0 -7056z"/>
   <path class="fil1 str0" d="M430 3399l244 -242c6,-5 12,-7 20,-7 7,0 14,3 20,8 6,6 9,13 9,21 0,5 -3,12 -8,20l-173 172 178 314 4 16c0,7 -3,13 -9,19 -6,6 -13,9 -22,9 -9,0 -17,-5 -24,-16l-170 -301 -69 67 0 221c0,9 -3,16 -8,22 -5,4 -12,7 -21,7 -7,0 -14,-3 -20,-8 -6,-4 -9,-12 -9,-21l0 -522c0,-8 3,-14 9,-20 6,-6 13,-8 20,-8 8,0 14,2 20,6 6,5 9,12 9,22l0 221zm608 330l-116 0c-31,0 -58,-11 -81,-34 -23,-22 -35,-50 -35,-82l0 -261c0,-8 3,-15 9,-21 5,-5 12,-8 20,-8 7,0 14,3 20,7 6,5 9,12 9,22l0 261c0,16 5,30 16,42 6,5 12,9 19,12 8,3 16,4 23,4l116 0 0 -319c0,-8 3,-15 9,-21 5,-5 12,-8 20,-8 7,0 14,3 20,7 6,5 9,12 9,22l0 434c0,32 -12,59 -34,82 -23,23 -50,34 -82,34l-116 0c-7,0 -14,-3 -22,-8 -4,-6 -7,-13 -7,-21 0,-7 2,-14 7,-20 5,-5 12,-8 22,-8l116 0c16,0 30,-6 41,-17 11,-11 17,-25 17,-41l0 -58zm231 -58l116 0c16,0 30,-5 41,-16 12,-11 17,-25 17,-42l0 -174c0,-17 -5,-30 -16,-41 -11,-12 -25,-17 -42,-17l-116 0 0 290zm0 58l0 144c0,8 -3,15 -9,21 -6,5 -13,8 -20,8 -7,0 -13,-2 -19,-7 -7,-5 -10,-12 -10,-22l0 -521c0,-19 10,-29 29,-29l145 0c31,0 58,11 81,34 23,22 35,50 35,82l0 174c0,32 -12,59 -34,82 -23,22 -50,34 -82,34l-116 0zm550 0l-87 0c-31,0 -58,-11 -81,-34 -23,-22 -35,-50 -35,-82l0 -174c0,-32 12,-59 34,-82 23,-23 50,-34 82,-34l87 0c8,0 15,3 21,9 5,6 8,13 8,20 0,7 -2,13 -7,19 -5,7 -12,10 -22,10l-87 0c-16,0 -30,5 -41,16 -6,6 -10,12 -13,19 -3,7 -4,15 -4,23l0 174c0,16 5,30 17,41 5,6 12,10 18,13 9,3 16,4 23,4l87 0c8,0 15,3 21,9 5,6 8,13 8,20 0,7 -2,13 -7,19 -5,7 -12,10 -22,10zm724 -232l0 -145c0,-8 3,-15 8,-21 6,-5 13,-8 21,-8 7,0 14,3 20,7 5,5 8,12 8,22l0 348c0,9 -2,16 -8,22 -5,4 -12,7 -20,7 -8,0 -15,-3 -21,-8 -5,-4 -8,-12 -8,-21l0 -146 -175 0 0 146c0,9 -2,16 -8,22 -5,4 -12,7 -20,7 -8,0 -15,-3 -21,-8 -5,-4 -8,-12 -8,-21l0 -348c0,-8 3,-15 8,-21 6,-5 13,-8 21,-8 7,0 14,3 20,7 5,5 8,12 8,22l0 145 175 0zm405 116l0 -232 -116 0c-17,0 -30,5 -42,16 -5,6 -9,12 -12,19 -3,7 -4,15 -4,23l0 174c0,16 5,30 16,41 6,6 12,10 19,13 8,3 16,4 23,4l58 0c16,0 30,-5 41,-16 11,-11 17,-25 17,-42zm28 78c-9,10 -22,19 -38,27 -16,7 -32,11 -48,11l-58 0c-31,0 -58,-11 -81,-34 -23,-22 -35,-50 -35,-82l0 -174c0,-32 11,-59 34,-82 23,-23 50,-34 82,-34l145 0c19,0 29,10 29,29l0 260c0,12 3,24 11,36 6,10 16,19 29,25 12,5 18,14 18,26 0,9 -3,15 -9,21 -5,6 -11,9 -20,9 -4,0 -8,-1 -12,-3 -19,-8 -34,-19 -47,-35zm325 -165l106 158 5 8 0 8c0,8 -3,14 -9,20l-5 4 -6 3 -11 2c-8,0 -16,-5 -23,-13l-92 -137 -91 137c-6,8 -14,13 -24,13 -6,0 -13,-3 -20,-9 -7,-6 -10,-13 -10,-21 0,-5 2,-10 5,-16l105 -157 -106 -158 -4 -8 0 -8c0,-8 3,-14 9,-20 6,-6 13,-9 22,-9 8,0 15,4 23,13l91 138 92 -138c6,-8 14,-13 24,-13 6,0 12,3 21,9 6,6 9,13 9,20 0,5 -2,11 -5,17l-106 157zm515 75c0,35 -12,65 -37,90 -25,25 -55,38 -91,38l-34 0c-35,0 -65,-13 -90,-37 -25,-25 -38,-55 -38,-91l0 -150c0,-34 13,-64 38,-90 24,-25 54,-38 90,-38l34 0c35,0 65,12 90,37 25,25 38,55 38,91l0 150zm-58 0l0 -151c0,-19 -7,-35 -20,-49 -13,-13 -30,-20 -49,-20l-35 0c-19,0 -36,6 -50,20 -13,14 -20,30 -20,49l0 151c0,19 7,36 20,50 14,13 30,20 50,20l35 0c18,0 35,-7 49,-20 13,-13 20,-30 20,-50zm405 -220l-116 0c-16,0 -30,5 -41,16 -6,6 -10,12 -13,19 -3,7 -4,15 -4,23l0 174c0,16 5,30 17,41 5,6 12,10 18,13 9,3 16,4 23,4l58 0c16,0 30,-5 41,-16 12,-11 17,-25 17,-42l0 -232zm0 -58l0 -58c0,-16 -5,-30 -16,-41 -11,-11 -25,-17 -42,-17l-116 0c-8,0 -16,-2 -21,-8 -5,-6 -8,-13 -8,-21 0,-6 3,-13 8,-19 4,-6 12,-9 21,-9l116 0c32,0 60,11 82,33 23,23 34,50 34,82l0 348c0,32 -11,59 -34,82 -23,22 -50,34 -82,34l-58 0c-31,0 -58,-11 -81,-34 -23,-22 -35,-50 -35,-82l0 -174c0,-32 12,-59 34,-82 23,-23 50,-34 82,-34l116 0zm463 377c0,19 -9,29 -29,29l-145 0c-31,0 -58,-11 -81,-34 -23,-22 -34,-50 -34,-82l0 -261c0,-8 2,-15 8,-21 6,-5 13,-8 20,-8 8,0 14,3 20,7 6,5 9,12 9,22l0 261c0,16 6,30 17,42 6,5 12,9 18,12 9,3 16,4 23,4l117 0 0 -319c0,-8 2,-15 8,-21 6,-5 13,-8 20,-8 8,0 14,3 20,7 6,5 9,12 9,22l0 348zm289 -319l-116 0 0 319c0,9 -2,16 -8,22 -5,4 -12,7 -21,7 -7,0 -14,-3 -20,-8 -6,-4 -8,-12 -8,-21l0 -348c0,-19 9,-29 29,-29l260 0c31,0 58,11 81,34 23,22 34,50 34,82l0 261c0,9 -2,16 -8,22 -5,4 -12,7 -20,7 -8,0 -15,-3 -21,-8 -5,-4 -8,-12 -8,-21l0 -261c0,-17 -6,-30 -17,-41 -10,-12 -24,-17 -41,-17l-58 0 0 319c0,9 -3,16 -8,22 -6,4 -13,7 -21,7 -8,0 -14,-3 -20,-8 -6,-4 -9,-12 -9,-21l0 -319zm550 348l-87 0c-31,0 -58,-11 -81,-34 -23,-22 -34,-50 -34,-82l0 -174c0,-32 11,-59 34,-82 22,-23 49,-34 81,-34l87 0c8,0 15,3 21,9 6,6 8,13 8,20 0,7 -2,13 -7,19 -5,7 -12,10 -22,10l-87 0c-16,0 -30,5 -41,16 -6,6 -10,12 -13,19 -3,7 -4,15 -4,23l0 174c0,16 6,30 17,41 6,6 12,10 18,13 9,3 16,4 23,4l87 0c8,0 15,3 21,9 6,6 8,13 8,20 0,7 -2,13 -7,19 -5,7 -12,10 -22,10zm377 -231l0 -117 -116 0c-17,0 -31,5 -44,17 -10,12 -15,25 -15,41 0,15 5,28 15,40 11,12 25,19 44,19l116 0zm-71 57l-108 161c-2,3 -6,6 -11,10l-13 3c-6,0 -13,-3 -20,-9 -6,-6 -9,-13 -9,-21 0,-4 1,-10 4,-16l87 -130c-28,-4 -51,-17 -67,-40 -16,-22 -24,-47 -24,-74 0,-31 9,-58 29,-79 22,-25 51,-37 87,-37l144 0c20,0 29,10 29,29l0 348c0,9 -2,16 -8,22 -5,4 -12,7 -20,7 -8,0 -15,-3 -21,-8 -5,-4 -8,-12 -8,-21l0 -145 -71 0zm823 58l0 -174c0,-16 -5,-30 -16,-41 -11,-11 -25,-17 -42,-17l-58 0c-16,0 -30,6 -42,17 -5,5 -9,12 -12,19 -3,7 -4,14 -4,22l0 174c0,16 5,30 16,42 6,5 12,9 19,12 8,3 16,4 23,4l58 0c16,0 30,-5 41,-16 12,-11 17,-25 17,-42zm-174 -269l23 -16 35 -24c11,-8 19,-15 24,-21 7,-9 11,-19 11,-29 0,-13 -5,-24 -14,-33 -10,-8 -21,-12 -33,-12 -12,0 -23,4 -33,12 -9,7 -13,18 -13,33l0 90zm116 -19c37,0 66,11 87,33 19,21 29,48 29,81l0 174c0,32 -12,59 -34,82 -23,22 -50,34 -82,34l-58 0c-31,0 -58,-11 -81,-34 -23,-22 -35,-50 -35,-82l0 -359c0,-32 11,-58 32,-78 21,-18 45,-26 73,-26 26,0 50,9 72,27 21,18 31,44 31,77 0,18 -2,32 -8,42 -4,10 -13,19 -26,29zm636 346l116 0c17,0 30,-5 42,-16 11,-11 17,-25 17,-42l0 -174c0,-17 -6,-30 -17,-41 -11,-12 -25,-17 -42,-17l-116 0 0 290zm0 58l0 144c0,8 -3,15 -9,21 -5,5 -12,8 -20,8 -6,0 -13,-2 -19,-7 -6,-5 -9,-12 -9,-22l0 -521c0,-19 9,-29 29,-29l144 0c32,0 59,11 82,34 23,22 34,50 34,82l0 174c0,32 -11,59 -34,82 -22,22 -50,34 -82,34l-116 0zm580 -116l0 -232 -117 0c-16,0 -30,5 -41,16 -6,6 -10,12 -13,19 -2,7 -4,15 -4,23l0 174c0,16 6,30 17,41 6,6 12,10 19,13 8,3 16,4 22,4l59 0c16,0 29,-5 41,-16 11,-11 17,-25 17,-42zm28 78c-9,10 -22,19 -38,27 -16,7 -32,11 -48,11l-58 0c-32,0 -59,-11 -82,-34 -23,-22 -34,-50 -34,-82l0 -174c0,-32 11,-59 34,-82 22,-23 50,-34 82,-34l144 0c20,0 29,10 29,29l0 260c0,12 4,24 11,36 7,10 17,19 29,25 12,5 18,14 18,26 0,9 -2,15 -8,21 -5,6 -12,9 -20,9 -5,0 -9,-1 -12,-3 -19,-8 -35,-19 -47,-35zm298 -137l-37 0c-9,0 -16,-2 -21,-8 -5,-6 -8,-13 -8,-21 0,-6 3,-13 8,-19 5,-6 12,-9 21,-9l29 0c18,0 32,-6 42,-18 11,-12 16,-25 16,-40 0,-17 -5,-30 -14,-41 -5,-5 -11,-9 -18,-12 -8,-4 -16,-5 -26,-5l-29 0c-27,0 -50,8 -69,23 -5,4 -11,6 -18,7 -6,0 -13,-3 -20,-9 -6,-6 -9,-13 -9,-21 0,-9 4,-17 12,-23 30,-23 64,-35 104,-35l29 0c36,0 65,12 87,36 19,22 29,49 29,80 0,9 -1,17 -2,25 -2,7 -4,15 -7,23 -6,13 -15,26 -28,39 11,10 20,23 28,39l6 23c2,8 3,16 3,25 0,32 -10,58 -29,80 -21,24 -50,36 -87,36l-29 0c-39,0 -74,-12 -104,-35 -8,-6 -12,-14 -12,-23 0,-7 3,-13 9,-20 5,-7 12,-10 20,-10 5,0 11,2 18,7 20,15 43,23 69,23l29 0c18,0 32,-6 42,-18 11,-11 16,-25 16,-41 0,-15 -4,-27 -12,-38 -9,-10 -21,-17 -38,-20zm281 117l116 0c16,0 30,-5 41,-16 11,-11 17,-25 17,-42l0 -174c0,-17 -5,-30 -16,-41 -11,-12 -25,-17 -42,-17l-116 0 0 290zm0 58l0 144c0,8 -3,15 -9,21 -6,5 -13,8 -20,8 -7,0 -13,-2 -19,-7 -7,-5 -10,-12 -10,-22l0 -521c0,-19 10,-29 29,-29l145 0c31,0 58,11 81,34 23,22 35,50 35,82l0 174c0,32 -12,59 -34,82 -23,22 -50,34 -82,34l-116 0zm579 -116l0 -232 -116 0c-16,0 -30,5 -42,16 -5,6 -9,12 -12,19 -3,7 -4,15 -4,23l0 174c0,16 5,30 16,41 6,6 12,10 19,13 8,3 16,4 23,4l58 0c16,0 30,-5 41,-16 12,-11 17,-25 17,-42zm29 78c-10,10 -23,19 -39,27 -16,7 -32,11 -48,11l-58 0c-31,0 -58,-11 -81,-34 -23,-22 -35,-50 -35,-82l0 -174c0,-32 11,-59 34,-82 23,-23 50,-34 82,-34l145 0c19,0 29,10 29,29l0 260c0,12 3,24 11,36 7,10 16,19 29,25 12,5 18,14 18,26 0,9 -3,15 -8,21 -5,6 -12,9 -21,9 -4,0 -8,-1 -12,-3 -19,-8 -34,-19 -46,-35zm376 -78l0 -174c0,-17 -5,-30 -16,-41 -11,-12 -25,-17 -42,-17l-58 0c-16,0 -30,5 -41,16 -6,6 -10,12 -13,19 -3,7 -4,15 -4,23l0 174c0,16 5,30 17,41 5,6 12,10 18,13 9,3 16,4 23,4l58 0c16,0 30,-5 41,-16 12,-11 17,-25 17,-42zm-93 -290l-130 -123c-7,-8 -10,-16 -10,-25 0,-6 2,-11 7,-17 5,-6 13,-8 23,-8l232 0c8,0 15,3 20,8 6,6 9,13 9,20 0,7 -3,13 -7,20 -5,6 -12,9 -22,9l-159 0 153 147 7 9c19,22 28,47 28,76l0 174c0,32 -11,59 -34,82 -23,22 -50,34 -82,34l-58 0c-31,0 -58,-11 -81,-34 -23,-22 -35,-50 -35,-82l0 -174c0,-32 12,-59 34,-82 23,-23 50,-34 82,-34l23 0zm556 278c0,35 -12,65 -37,90 -25,25 -55,38 -90,38l-35 0c-35,0 -64,-13 -90,-37 -25,-25 -38,-55 -38,-91l0 -150c0,-34 13,-64 38,-90 25,-25 55,-38 90,-38l35 0c34,0 64,12 89,37 25,25 38,55 38,91l0 150zm-58 0l0 -151c0,-19 -6,-35 -20,-49 -13,-13 -30,-20 -49,-20l-35 0c-19,0 -36,6 -49,20 -14,14 -21,30 -21,49l0 151c0,19 7,36 20,50 14,13 30,20 50,20l35 0c19,0 35,-7 49,-20 14,-13 20,-30 20,-50zm347 -220l-116 0 0 319c0,9 -3,16 -8,22 -5,4 -12,7 -21,7 -7,0 -14,-3 -20,-8 -6,-4 -8,-12 -8,-21l0 -348c0,-19 9,-29 29,-29l260 0c31,0 58,11 81,34 23,22 34,50 34,82l0 261c0,9 -2,16 -8,22 -5,4 -12,7 -20,7 -8,0 -15,-3 -21,-8 -5,-4 -8,-12 -8,-21l0 -261c0,-17 -6,-30 -17,-41 -11,-12 -24,-17 -41,-17l-58 0 0 319c0,9 -3,16 -8,22 -6,4 -13,7 -21,7 -8,0 -14,-3 -20,-8 -6,-4 -9,-12 -9,-21l0 -319zm464 158l-65 68 0 93c0,9 -3,16 -8,22 -5,4 -12,7 -21,7 -7,0 -14,-3 -20,-8 -6,-4 -8,-12 -8,-21l0 -348c0,-7 2,-14 8,-21 6,-5 13,-7 20,-7 8,0 14,2 20,7 6,5 9,12 9,21l0 171 184 -192c5,-6 11,-9 18,-9 6,0 13,3 21,9 6,6 8,13 8,22 0,8 -3,15 -9,22l-116 122 119 184c4,8 6,14 6,20 0,8 -3,14 -9,20 -6,6 -13,9 -20,9 -8,0 -15,-4 -21,-12l-116 -179zm320 -41l174 0 0 -59c0,-16 -5,-30 -16,-41 -11,-12 -25,-17 -42,-17l-58 0c-16,0 -30,5 -41,16 -6,6 -10,12 -13,19 -3,7 -4,15 -4,23l0 59zm0 57l0 58c0,16 6,30 17,42 5,5 12,9 18,12 8,3 16,4 23,4l145 0c8,0 15,3 21,9 5,6 8,13 8,20 0,7 -2,13 -7,19 -5,7 -12,10 -22,10l-145 0c-31,0 -58,-12 -81,-34 -23,-22 -35,-50 -35,-82l0 -174c0,-31 12,-58 34,-81 22,-23 50,-35 82,-35l58 0c32,0 59,11 82,34 23,22 34,50 34,82l0 87c0,19 -10,29 -29,29l-203 0z"/>
  </g>
 </g>
</svg>
