<?xml version="1.0" encoding="UTF-8"?>
<!DOCTYPE svg PUBLIC "-//W3C//DTD SVG 1.0//EN" "http://www.w3.org/TR/2001/REC-SVG-20010904/DTD/svg10.dtd">
<!-- Creator: CorelDRAW X7 -->
<svg xmlns="http://www.w3.org/2000/svg" xml:space="preserve" width="115.711mm" height="70.5555mm" version="1.0" style="shape-rendering:geometricPrecision; text-rendering:geometricPrecision; image-rendering:optimizeQuality; fill-rule:evenodd; clip-rule:evenodd"
viewBox="0 0 11571 7056"
 xmlns:xlink="http://www.w3.org/1999/xlink">
 <defs>
  <style type="text/css">
   <![CDATA[
    .str1 {stroke:#3198A2;stroke-width:8.81944}
    .str0 {stroke:#2B2A29;stroke-width:7.05555}
    .fil46 {fill:none}
    .fil25 {fill:black}
    .fil8 {fill:#0000FD}
    .fil43 {fill:#0A9986}
    .fil26 {fill:#0C1319}
    .fil42 {fill:#101C23}
    .fil32 {fill:#111415}
    .fil33 {fill:#1679BE}
    .fil27 {fill:#18303B}
    .fil14 {fill:#1952A9}
    .fil44 {fill:#254E51}
    .fil15 {fill:#2B6AB4}
    .fil30 {fill:#2C2B2A}
    .fil47 {fill:#2E99A3}
    .fil31 {fill:#434C4D}
    .fil35 {fill:#4ACD92}
    .fil10 {fill:#5476AB}
    .fil36 {fill:#585D91}
    .fil24 {fill:#5B99D3}
    .fil39 {fill:#6CB2C6}
    .fil20 {fill:#727089}
    .fil38 {fill:#7E7D7B}
    .fil5 {fill:#8C0005}
    .fil22 {fill:#8D8B9F}
    .fil12 {fill:#95023D}
    .fil23 {fill:#A5A3B2}
    .fil13 {fill:#AB4C74}
    .fil1 {fill:#C62002}
    .fil19 {fill:#C7C6CF}
    .fil6 {fill:#D6BCC1}
    .fil21 {fill:#E1E1E5}
    .fil2 {fill:#E7CCC4}
    .fil17 {fill:#E9D1BE}
    .fil40 {fill:#EFC18D}
    .fil7 {fill:#F4EBEB}
    .fil16 {fill:#F52C16}
    .fil41 {fill:#F6D0A1}
    .fil45 {fill:#F7F7F7}
    .fil29 {fill:#F8C996}
    .fil18 {fill:#F8F8F8}
    .fil28 {fill:#FAFAFA}
    .fil3 {fill:#FAFBFB}
    .fil34 {fill:#FBD959}
    .fil11 {fill:#FDF8FA}
    .fil9 {fill:#FDFF01}
    .fil37 {fill:#FE786D}
    .fil4 {fill:#FEFEFE}
    .fil0 {fill:url(#id0)}
   ]]>
  </style>
  <radialGradient id="id0" gradientUnits="userSpaceOnUse" gradientTransform="matrix(1.17124 -0 -0 1.92083 -991 -3248)" cx="5785.55" cy="3527.77" r="3527.77" fx="5785.55" fy="3527.77">
   <stop offset="0" style="stop-opacity:1; stop-color:#FEFEFE"/>
   <stop offset="0.439216" style="stop-opacity:1; stop-color:#FEFEFE"/>
   <stop offset="1" style="stop-opacity:1; stop-color:#D1E2F2"/>
  </radialGradient>
 </defs>
 <g id="Layer_x0020_1">
  <metadata id="CorelCorpID_0Corel-Layer"/>
  <path class="fil0" d="M0 0l11571 0 0 7056 -11571 0 0 -7056z"/>
  <g id="Порядок_x0020_формирования">
   <g>
    <path class="fil1" d="M5603 4781l0 -880 -881 0 0 880 881 0z"/>
    <path class="fil2" d="M4746 4757l839 2 1 -839 -838 -2c-11,43 -10,766 -2,839z"/>
    <path class="fil1" d="M4757 4747l815 -1 -1 -813 -813 -1 -1 815z"/>
    <path class="fil2" d="M5259 4156c-82,-10 -112,30 -126,-4l0 -31c-36,2 -89,3 -95,48l-57 2 38 196c5,55 -9,5 -19,56l43 38c28,-4 38,-14 61,-15 36,-2 31,13 58,12 24,-2 19,-16 58,-12 24,3 29,13 62,15 25,-39 -12,-29 42,-31 -11,-54 -28,-17 -14,-61 8,-25 16,-23 19,-58 1,-24 10,-129 8,-136l-58 -4c-10,-27 -38,-58 -59,-69l39 54z"/>
    <path class="fil1" d="M5072 4355c9,-23 -6,-7 19,-17 20,20 31,30 65,46l1 -113c-32,-20 -69,-52 -80,-74l-40 34c-13,-9 -17,-10 -24,-23l-9 -22c-12,-22 19,7 -5,-7 -1,2 -2,2 -2,6 -1,8 -7,9 -1,43l29 155c38,-28 17,-28 47,-28z"/>
    <path class="fil1" d="M5275 4358c29,-20 34,-79 23,-116 -15,-52 -25,-87 -90,-82 -37,2 -42,14 -44,46 -2,37 12,52 27,69 32,36 51,61 84,83z"/>
    <path class="fil3" d="M5372 4689c48,-7 -17,2 49,-23 51,-20 52,-78 0,-99l-22 -9c-18,-10 -2,-17 -33,-13 -30,4 2,0 -51,23 -47,19 -47,77 1,97 16,6 12,3 26,11 22,11 -16,9 30,13z"/>
    <path class="fil3" d="M5020 4689l41 -1 9 -99c1,-2 2,-4 3,-6 11,4 21,-6 21,48 0,19 -1,35 0,55l42 3 2 -138 -118 -3 0 141z"/>
    <path class="fil3" d="M4929 4641l26 47 47 0c-58,-114 -39,-41 -4,-139l-44 0 -26 42c-5,-51 15,-42 -34,-43 -18,22 -15,81 -12,108 2,22 -5,50 32,30 22,-12 9,-16 15,-45z"/>
    <path class="fil3" d="M5166 4687l34 3 12 -37c43,-3 73,-21 59,-69 -12,-42 -67,-40 -106,-33l1 136z"/>
    <path class="fil1" d="M5072 4355c7,32 -2,19 -22,45 -29,36 -6,39 -3,47l15 1c42,-4 8,-20 96,1 -3,-45 -7,-32 -37,-52 -19,-12 -29,-27 -49,-42z"/>
    <path class="fil1" d="M5167 4390c45,4 45,10 82,-9 -14,-24 -58,-74 -83,-86l1 95z"/>
    <path class="fil1" d="M5095 4179c6,3 46,45 63,61l-1 -66c-18,-7 -18,-10 -39,-17l-23 22z"/>
   </g>
   <g>
    <path class="fil4" d="M4916 5535l1306 0 0 -762 -1306 0 0 762z"/>
    <path class="fil5" d="M5711 5299l-404 0 -47 217 476 1c39,-110 71,-261 102,-382 32,-120 -1,-122 -50,-279 -24,-78 -11,-72 -57,-68 16,65 82,211 87,263 3,37 -91,200 -107,248z"/>
    <path class="fil5" d="M5530 5242l85 1 1 -104c62,0 95,0 119,-40 19,-33 27,-83 19,-126 -22,-114 -110,-95 -222,-91l-2 360z"/>
    <path class="fil5" d="M5500 5244c2,-152 3,-84 -60,-114 -34,-16 -79,-145 61,-145l0 -104c-74,0 -101,0 -141,45 -30,33 -49,81 -48,139 1,122 66,181 188,179z"/>
    <path class="fil4" d="M5454 5483c17,9 23,16 50,7 -4,-24 2,-2 -11,-18 -12,-14 -3,16 -13,-20 17,-21 3,-13 33,-17 15,36 -12,69 61,55 -12,-29 -13,-4 -30,-30 14,-36 20,-8 39,-37 -8,-5 -5,-11 -30,-6 -14,3 -17,8 -25,15 -5,-5 -18,-29 -53,-11 -25,13 -26,30 -21,62z"/>
    <path class="fil6" d="M5565 5377c20,-6 24,8 19,-23l1 24 134 -8c-1,-22 2,-21 -12,-38 -25,10 -12,-8 -23,32l-4 -31 -100 0c-15,22 -16,19 -15,44z"/>
    <path class="fil7" d="M5369 5441l2 45c47,24 89,-5 73,-62 -42,-20 -48,-6 -75,17z"/>
    <path class="fil7" d="M5670 5431l-37 -15 -21 33c9,-12 -4,-28 -9,-33 -23,14 -12,-3 -20,35 -5,24 -6,24 5,43 40,-2 28,7 39,-29 0,2 1,3 1,6 4,22 20,22 20,22 1,-2 3,-7 3,-5 1,1 3,-5 4,-6 2,-6 3,-12 5,-18 4,-18 3,-19 10,-33z"/>
    <path class="fil4" d="M5670 5431c12,53 5,12 -9,62 31,-3 22,-4 39,-24 1,1 2,2 2,4 2,13 10,17 20,20 17,-16 20,-46 23,-77 -36,0 -57,3 -75,15z"/>
    <path class="fil4" d="M5614 5052l51 -4c9,-48 12,-95 -51,-78l0 82z"/>
    <path class="fil4" d="M5297 5493c27,-11 -4,-6 44,-24 33,-12 26,-15 25,-49l-65 -3c-8,37 -18,53 -4,76z"/>
    <path class="fil6" d="M5409 5377c24,-9 22,-4 32,-3 23,3 27,3 47,0l0 -43c-38,3 -29,-4 -38,34 -9,-33 3,-21 -19,-33 -19,18 -18,16 -22,45z"/>
   </g>
   <g>
    <path class="fil8" d="M3991 5758l1254 0 0 -626 -1254 0 0 626z"/>
    <path class="fil9" d="M4387 5615l48 -2 2 -54 126 0 3 55 49 0 2 -94c-5,-42 2,1 -10,-20 -24,-39 -13,-151 -12,-198l-173 -2c3,278 -29,151 -38,227 -2,19 0,68 3,88z"/>
    <path class="fil9" d="M4154 5558c133,11 87,-86 98,-194l45 0 1 193 64 1 0 -255 -176 -3c0,49 1,98 1,146 0,77 -21,37 -32,74 -3,10 -1,28 -1,38z"/>
    <path class="fil9" d="M4702 5561l0 -196 72 -4 2 197 60 1 0 -10 0 -238 0 -11 -196 0 1 257 61 4z"/>
    <path class="fil9" d="M4877 5311l0 247 64 0 1 -94c79,-5 121,-15 106,-107 -12,-77 -96,-57 -171,-57l0 11z"/>
    <path class="fil8" d="M4469 5498l62 0 0 -134 -48 0 -14 134z"/>
    <path class="fil10" d="M4702 5561l8 -194 60 0c-1,35 -9,164 6,191l-2 -197 -72 4 0 196z"/>
    <path class="fil8" d="M4941 5408c47,4 58,-16 38,-48 -21,-9 -11,-8 -38,-4l0 52z"/>
   </g>
   <g>
    <path class="fil11" d="M4708 5975l1387 0 0 -366 -1387 0 0 366z"/>
    <path class="fil12" d="M4740 5943c36,-25 29,-53 94,-88 78,-43 102,-12 150,17 24,-23 64,-61 54,-96 -59,-5 -56,6 -60,47 -50,-62 3,-77 73,-64 20,-243 -351,-87 -311,184z"/>
    <path class="fil12" d="M5476 5916c25,-12 9,-19 18,-57 69,-1 91,-16 74,-82 -35,-15 -61,-12 -107,-11l-2 120c5,46 -5,20 17,30z"/>
    <path class="fil12" d="M5295 5916c50,-2 35,-50 92,-35 35,20 0,3 19,21 16,16 -6,12 36,14 -8,-28 -45,-147 -71,-150 -32,-4 -67,121 -76,150z"/>
    <path class="fil12" d="M5740 5914c32,3 17,5 31,-9 0,0 36,-53 76,-11 20,22 -20,21 40,21 -8,-28 -20,-53 -31,-81 -5,-13 -9,-24 -15,-38 -15,-40 -38,-48 -56,-5l-45 123z"/>
    <path class="fil12" d="M5618 5916c26,-15 4,9 16,-66l55 1c9,86 -10,54 18,65 19,-10 14,19 14,-76 0,-12 2,-35 1,-45 -3,-41 4,-20 -15,-29 -22,8 -14,-2 -17,57l-58 2c-5,-74 5,-49 -14,-60 -23,9 -17,-25 -17,75 0,102 -6,67 17,76z"/>
    <path class="fil12" d="M5170 5916c22,-8 10,4 17,-16l3 -107 54 -2c4,24 4,40 3,65 0,6 -1,33 0,37 4,31 -7,11 13,23 21,-8 13,1 18,-23l-1 -128 -119 1 -1 120c3,38 -4,19 13,30z"/>
    <path class="fil12" d="M6014 5867c-36,-7 -7,1 -31,17 -55,37 -81,-63 -35,-89 45,-22 19,19 73,14 -8,-67 -125,-68 -126,32 -1,38 17,69 52,75 20,4 34,3 52,-8 7,-4 12,-8 16,-15 22,-44 3,-18 -1,-26z"/>
    <path class="fil13" d="M5980 5729c26,-1 38,-4 48,-8l-1 -42c-20,15 15,-16 -9,8l-33 -9 -5 51z"/>
    <path class="fil11" d="M5490 5833l52 -6c1,-42 -11,-36 -49,-36l-3 42z"/>
   </g>
   <g>
    <path class="fil14" d="M3887 5176l1000 0 0 -999 -242 0c-7,17 -3,35 1,65 12,108 -4,55 -61,68 -26,6 -39,0 -72,0l30 16c-64,-1 -71,10 -98,-14 0,3 -1,13 -1,16 0,1 1,6 1,5 0,-1 1,3 1,5 91,-6 166,5 167,102l-8 -9c-45,-58 -72,-58 -174,-51l-4 -24c-5,-13 15,-2 -12,-13 -34,-14 -129,4 -163,36 -10,-8 -7,18 -10,-16l0 -10c-13,19 15,13 -27,13 -16,1 -19,-5 -31,-16l-8 -7c-1,-1 -3,-3 -4,-3 0,-1 -20,-9 -21,-10 4,-39 -9,-27 14,-29l-41 1c-32,1 -40,-37 -45,-43 -25,-37 -57,-22 -69,-82l-123 0 0 999z"/>
    <path class="fil15" d="M4242 4363c46,-31 133,-90 203,-51 27,24 34,13 98,14l-30 -16c33,0 46,6 72,0 57,-13 73,40 61,-68 -4,-30 -8,-48 -1,-65l-635 0c12,60 44,45 69,82 5,6 13,44 45,43l41 -1c-23,2 -10,-10 -14,29 1,1 21,9 21,10 1,0 3,2 4,3l8 7c12,11 15,17 31,16 42,0 14,6 27,-13l0 10z"/>
    <path class="fil16" d="M4213 4472c60,-16 103,-48 177,-37 -11,20 -5,-4 -18,26 67,12 226,-39 214,112 19,-17 27,-39 24,-67 -11,-104 -147,-86 -193,-86 -10,-29 6,-10 -8,-33 -45,-5 -82,-3 -121,11 -43,14 -65,28 -75,74z"/>
    <path class="fil17" d="M4272 4557c71,37 21,0 60,63 6,10 4,8 10,14l7 -62c19,9 15,11 42,19 9,-25 -1,-10 15,-24 -42,97 6,28 -53,67 1,19 0,7 3,15l10 19c1,2 3,5 4,7l-50 -3c29,9 37,3 65,3l54 3c0,-2 1,-10 1,-11 8,-19 16,-3 1,-28l-9 -15c-17,35 -10,26 -7,37 19,63 -3,-38 7,18l-49 -5c2,-42 2,-18 10,-35 1,-1 14,-22 18,-28 14,-18 28,-33 50,-41 35,37 8,7 16,49 4,28 12,34 37,44 -20,-19 -24,-14 -32,-46l39 -21c-57,26 -34,1 -42,-8 24,-5 45,-9 67,-23 -1,-2 -4,-5 -5,-4 -1,2 -16,-18 -60,-32 -58,-17 -33,-5 -79,-4 -54,1 -115,-32 -130,32z"/>
    <path class="fil17" d="M4242 4363c3,34 0,8 10,16 34,-32 129,-50 163,-36 27,11 7,0 12,13l4 24c102,-7 129,-7 174,51l8 9c-1,-97 -76,-108 -167,-102 0,-2 -1,-6 -1,-5 0,1 -1,-4 -1,-5 0,-3 1,-13 1,-16 -70,-39 -157,20 -203,51z"/>
    <path class="fil17" d="M4143 4874c53,-7 5,0 30,-15 10,-6 -15,-8 28,-11 68,-4 14,14 59,26 18,-35 -2,-57 -4,-66 -5,-25 1,-47 -5,-76l-83 1c-7,151 -21,33 -25,141z"/>
    <path class="fil17" d="M4217 4891c-33,11 -56,32 -41,79 9,31 43,47 80,37 76,-22 45,-142 -39,-116z"/>
    <path class="fil17" d="M4279 4852c67,-4 37,-33 78,-63 4,50 -8,49 15,63 12,-5 19,6 19,-48 0,-24 0,-48 1,-72 -66,4 -39,31 -79,64 0,-61 6,-53 -16,-64 -11,5 -18,-5 -18,48 0,24 1,48 0,72z"/>
    <path class="fil17" d="M4525 5010c58,11 32,-28 79,-59 -1,79 -4,53 14,62 12,-5 18,6 17,-53 -1,-23 0,-42 -4,-64 -58,0 -27,25 -76,61l0 -60 -29 -1 -1 114z"/>
    <path class="fil17" d="M4676 4975c-17,19 -16,16 -25,36 39,5 38,-2 49,-32 1,2 2,3 3,7l8 17c9,9 -20,9 26,9 11,-27 7,-81 3,-114 -32,-3 -93,-9 -87,38l23 39z"/>
    <path class="fil17" d="M4681 4818l-20 31c27,11 35,-5 47,-32 20,27 -4,36 40,34l1 -112c-23,-5 -62,-9 -78,6 -29,27 4,61 10,73z"/>
    <path class="fil17" d="M4424 4852c24,-10 7,4 17,-19 3,-6 0,-13 5,-27l34 0c4,37 -7,44 30,44l7 -92c-5,-26 4,-15 -18,-25 -23,10 -5,-1 -16,19 -15,27 18,3 -14,25 -52,-7 -13,2 -27,-25 -9,-15 17,-16 -25,-19 -1,1 -26,99 7,119z"/>
    <path class="fil17" d="M4536 4854c54,-10 1,-34 58,-22 39,8 -9,19 51,19l-39 -117c-30,-1 -46,-14 -71,84l1 36z"/>
    <path class="fil17" d="M4081 5010c33,-4 8,3 18,-9l7 -17c0,-2 1,-4 2,-6 1,-2 1,-5 3,-7l44 -9c17,-78 -15,-67 -83,-69l-4 90c6,47 -3,14 13,27z"/>
    <path class="fil17" d="M4062 4850c33,0 52,6 70,-9 -4,-23 -3,-11 -20,-20 -18,-9 -4,3 -17,-10 38,-13 20,10 36,-23l-20 -8c-16,-10 -7,3 -15,-14 7,-3 21,-5 22,-6 19,-9 8,5 17,-16 -18,-17 23,-8 -31,-13 -7,-1 -32,0 -42,0l0 119z"/>
    <path class="fil17" d="M4399 4977c-51,21 -68,-10 -48,-53 34,-12 15,-10 48,4 6,-90 -136,-17 -79,61 13,18 78,56 79,-12z"/>
    <path class="fil17" d="M4502 5007l3 -29c-27,12 -20,12 -50,3 -8,-18 -9,-34 -5,-55 27,-8 27,-12 54,3 0,-70 -78,-32 -88,2 -16,55 28,102 86,76z"/>
    <path class="fil14" d="M4212 4920c-22,98 72,78 46,4 -12,-6 -30,-14 -46,-4z"/>
   </g>
   <g>
    <path class="fil18" d="M5788 2453l0 -272 429 -2 1 274 49 0 0 -97 425 0 0 -37 -37 0 0 -1321 37 0 0 -37c-84,0 -170,-2 -254,0 -43,0 -68,8 -119,8 -70,0 -52,-12 -52,-83l30 0 0 -37 -612 0c1,37 0,36 37,37l0 75c-72,0 -144,0 -216,0 -76,0 -129,7 -209,7l0 30 37 0 0 1321 -37 0 0 37 425 0 0 97 66 0z"/>
    <path class="fil19" d="M6375 1285l-4 16 80 0 -4 75 -76 -2 3 15c-17,16 -10,248 -10,250 1,2 1,4 2,6l4 12 -2 10 -5 130c0,5 0,17 0,22l7 24 -1 10c-13,30 -5,267 -2,287 24,-10 56,-9 84,-4l-3 77 20 0 -3 -74c23,-9 60,-8 83,1l0 -30 -43 12c-36,0 -31,-5 -34,-8 0,0 -38,-85 42,-78l36 14 -1 -30c-23,10 -60,11 -83,2l1 -70c23,-9 58,-8 81,1l3 -27c-26,14 -53,11 -83,6l1 -75c29,-4 55,-7 81,5 13,-58 10,-65 1,-123 -25,12 -54,11 -85,6l3 -75c29,-5 55,-7 81,6l0 -26 -86 6c1,-27 -2,-57 7,-82l82 6 -3 -22c-25,9 -60,11 -81,0l0 -72c28,-5 54,-7 82,3l0 -26c-26,8 -61,10 -83,-1 -9,-75 -4,-88 80,-68l1 -23 -80 0 0 -67c21,-8 56,-7 80,0 3,-28 4,-63 4,-97 0,-30 8,-75 -8,-95l-1 77 -77 2 0 -85 -14 3 -4 82 -73 -3 1 -78c-13,17 -21,163 -1,175z"/>
    <path class="fil19" d="M5437 1183l0 26 84 -2c19,75 -10,90 -83,72l2 24c25,-6 60,-8 82,1l-1 71 -81 -3c-12,98 -3,604 -6,791 0,44 0,39 10,51l-2 -79 78 -1 0 82 18 -1 -2 -81 81 3 2 -22 -76 7c-12,-25 -10,-59 -2,-84 31,-3 58,-3 78,5l-1 -19 -79 4 -4 -81 82 3 3 -18 -85 4 2 -81 82 3 -1 -19 -81 2 5 -79 75 4 3 -21 -84 2 1 -80 82 4 -1 -19 -82 2 6 -79 75 3 1 -16 -80 1 1 -80 81 2 0 -18 -84 1 6 -78 75 2 0 -18 -77 0 0 -75 77 2 -1 -19 -76 0 -2 -77 83 1 0 -17 -82 0 -1 -79 -16 1 -1 74c-24,13 -65,8 -84,-2z"/>
    <path class="fil20" d="M5788 2453l65 0 0 -220c38,-10 253,-8 301,-2l-1 222 65 0 -1 -274 -429 2 0 272z"/>
    <path class="fil18" d="M5901 2453l239 0 0 -149 -239 0 0 149z"/>
    <path class="fil21" d="M5853 2453l48 0 0 -149 239 0 0 149 13 0 1 -222c-48,-6 -263,-8 -301,2l0 220z"/>
    <path class="fil22" d="M6008 1092c184,3 166,33 158,-158 -39,-16 -118,-7 -163,-6 -2,43 -9,127 5,164z"/>
    <path class="fil22" d="M5985 1088l3 -161c-46,0 -126,-8 -166,6 -1,28 -7,142 5,154 12,12 137,8 158,1z"/>
    <path class="fil22" d="M5821 1270l166 0 0 -164 -167 -1 1 165z"/>
    <path class="fil22" d="M6003 1625l163 1 3 -165 -168 0 2 164z"/>
    <path class="fil22" d="M6001 1270l165 -1 1 -163 -166 -1 0 165z"/>
    <path class="fil22" d="M5821 1979l161 2c12,-40 8,-121 3,-164l-163 1 -1 161z"/>
    <path class="fil22" d="M6001 1379l1 64c40,12 118,5 164,4l1 -163 -161 0 -5 95z"/>
    <path class="fil22" d="M6002 1978l159 3c13,-37 9,-123 4,-164 -45,0 -123,-8 -162,5l-1 156z"/>
    <path class="fil22" d="M5821 1803l163 0 3 -163 -163 -1 -3 164z"/>
    <path class="fil22" d="M6002 1803l161 0 4 -163 -163 -1 -2 164z"/>
    <path class="fil22" d="M5822 1622c32,8 134,9 164,-1l0 -155 -162 -4 -2 160z"/>
    <path class="fil22" d="M5821 1444l165 4 1 -159 -163 -4 -3 159z"/>
    <path class="fil22" d="M6377 2121c58,5 76,14 75,-40l-2 -131 -78 -4c-2,32 -4,155 5,175z"/>
    <path class="fil22" d="M5447 1394l-2 166c20,8 57,8 76,-2 6,-84 -5,-42 -2,-88 3,-53 21,-77 -21,-81 -18,-2 -40,0 -51,5z"/>
    <path class="fil22" d="M5444 1931c72,15 78,-5 78,-37l1 -84c1,-16 1,-30 -2,-43l-75 -5 -2 169z"/>
    <path class="fil18" d="M5901 2277l207 0 1 -35 -208 -4 0 39z"/>
    <path class="fil22" d="M5516 2035l-70 0c-7,26 -8,65 1,84 9,2 23,4 37,3 37,-2 21,4 31,-11 19,-15 6,-60 1,-76z"/>
    <path class="fil22" d="M5446 2035l70 0c8,-31 8,-54 5,-87l-77 0 2 87z"/>
    <path class="fil22" d="M5619 2115l0 -72c-20,-8 -47,-8 -78,-5 -8,25 -10,59 2,84l76 -7z"/>
    <path class="fil22" d="M5437 1183c19,10 60,15 84,2l1 -74 -82 -3 -3 75z"/>
    <path class="fil22" d="M5621 1189l0 -75c-24,-10 -56,-8 -83,-4l1 79 82 0z"/>
    <path class="fil22" d="M6368 1667l3 80 83 1 -2 -79 -84 -2z"/>
    <path class="fil22" d="M6550 1463l-3 -69c-84,-20 -89,-7 -80,68 22,11 57,9 83,1z"/>
    <path class="fil22" d="M6549 1650l3 -70 -82 -6c-9,25 -6,55 -7,82l86 -6z"/>
    <path class="fil22" d="M6467 1835c20,11 53,7 79,8l2 -76c-17,-5 -60,-11 -75,-2 -15,8 -9,51 -6,70z"/>
    <path class="fil22" d="M6448 2213l3 -77c-28,-5 -60,-6 -84,4l0 72 81 1z"/>
    <path class="fil22" d="M6548 2110l1 -60 -36 -14c-80,-7 -42,78 -42,78 3,3 -2,8 34,8l43 -12z"/>
    <path class="fil22" d="M5620 1932l-1 -74 -82 -3 -2 81 85 -4z"/>
    <path class="fil22" d="M5438 1279c73,18 102,3 83,-72l-84 2 1 70z"/>
    <path class="fil22" d="M6549 1558l1 -69c-28,-10 -54,-8 -82,-3l0 72c21,11 56,9 81,0z"/>
    <path class="fil22" d="M6550 1739l-1 -63c-26,-13 -52,-11 -81,-6l-3 75c31,5 60,6 85,-6z"/>
    <path class="fil22" d="M6550 1926l-1 -64c-26,-12 -52,-9 -81,-5l-1 75c30,5 57,8 83,-6z"/>
    <path class="fil22" d="M6468 2213l80 1 0 -74c-23,-9 -60,-10 -83,-1l3 74z"/>
    <path class="fil22" d="M5538 2215l80 0 -1 -78 -81 -3 2 81z"/>
    <path class="fil22" d="M5620 1745l-1 -74 -82 -4 -1 80 84 -2z"/>
    <path class="fil22" d="M6548 2020l-1 -67c-23,-9 -58,-10 -81,-1l-1 70c23,9 60,8 83,-2z"/>
    <path class="fil22" d="M6544 1112l-78 -6 0 85 77 -2 1 -77z"/>
    <path class="fil22" d="M5618 1562l2 -77 -81 -2 -1 80 80 -1z"/>
    <path class="fil22" d="M6370 1657l82 -2 -2 -78 -74 -3 -6 83z"/>
    <path class="fil22" d="M5443 1652c25,7 59,7 80,-4l0 -68c-21,-8 -57,-8 -77,-2l-3 74z"/>
    <path class="fil22" d="M5444 2214l76 2 0 -82 -78 1 2 79z"/>
    <path class="fil22" d="M6370 1843l80 -2c3,-26 5,-55 -4,-77l-69 -2 -7 81z"/>
    <path class="fil22" d="M5618 2024l-1 -74 -82 -3 4 81 79 -4z"/>
    <path class="fil22" d="M5443 1747c29,2 55,3 78,-5l1 -69c-25,-8 -55,-9 -79,-2l0 76z"/>
    <path class="fil22" d="M6375 1285l71 -2c10,-20 7,-53 6,-78l-79 -1 2 81z"/>
    <path class="fil22" d="M5616 1282l5 -76 -83 -1 2 77 76 0z"/>
    <path class="fil22" d="M5620 1467l-3 -75 -75 -2 -6 78 84 -1z"/>
    <path class="fil22" d="M5618 1652l-1 -74 -75 -3 -6 79 82 -2z"/>
    <path class="fil22" d="M6369 1853c2,27 -1,60 9,79l68 0 5 -75 -82 -4z"/>
    <path class="fil22" d="M6452 1109l-76 1 -1 78 73 3 4 -82z"/>
    <path class="fil22" d="M6374 1563l74 1 2 -79 -75 -3 -1 81z"/>
    <path class="fil22" d="M5440 1372l81 3 1 -71c-22,-9 -57,-7 -82,-1l0 69z"/>
    <path class="fil22" d="M6374 1389l-1 78 78 2 -1 -77 -76 -3z"/>
    <path class="fil22" d="M6538 1278c9,-15 6,-49 5,-71l-75 -2c-4,20 -9,62 3,73 12,12 59,5 67,0z"/>
    <path class="fil22" d="M5618 1839l-1 -73 -75 -4 -5 79 81 -2z"/>
    <path class="fil22" d="M6371 1374l76 2 4 -75 -80 0 0 73z"/>
    <path class="fil22" d="M6548 1371l0 -67c-24,-7 -59,-8 -80,0l0 67 80 0z"/>
    <path class="fil22" d="M5617 1374l0 -73 -77 -2 0 75 77 0z"/>
    <path class="fil23" d="M5895 1182c-25,-2 -48,-11 -55,10l58 4 -1 48c1,2 2,5 2,6 1,2 2,4 2,6 22,-24 10,-26 15,-57 29,-5 48,6 53,-14l-59 -4c1,-27 10,-49 -9,-56l-6 57z"/>
    <path class="fil23" d="M6071 1002c-29,-2 -39,-9 -51,11l59 6c-4,25 -14,48 9,55l2 -57c25,2 37,6 58,-4 -6,-16 -31,-8 -57,-7l-2 -61c-24,7 -9,26 -18,57z"/>
    <path class="fil23" d="M6076 1183l-56 -1c6,23 33,14 58,12 -2,26 -12,53 10,58l2 -58 59 0c-7,-23 -34,-13 -59,-12l-1 -57c-23,5 -13,31 -13,58z"/>
   </g>
   <g>
    <path class="fil24" d="M4872 3074c37,9 43,19 50,58 2,1 4,1 5,4l15 11 1 -66c26,7 8,-2 20,21 8,14 0,15 13,18 34,7 13,-25 37,-40 18,23 9,70 10,99 -64,-14 28,-43 -54,-42l-10 47c88,233 -22,447 -226,503 -133,36 -100,-79 -100,378l0 0c399,0 722,-321 724,-721l0 -7c-2,-399 -325,-720 -724,-720l0 0c0,63 -9,301 0,344 9,43 26,6 128,43 34,13 94,44 111,70z"/>
    <path class="fil25" d="M4551 3311c0,55 -6,53 12,78 6,9 -1,-1 6,8 24,27 86,17 86,-71 0,-104 -104,-85 -104,-15z"/>
    <path class="fil25" d="M4439 3281l0 2 0 36c1,26 10,22 60,22 -1,48 -11,41 -60,30 2,92 148,3 80,-50 -15,-11 -28,-10 -50,-10l0 -22c46,0 56,11 59,-30 -36,0 -89,-12 -89,22z"/>
    <path class="fil25" d="M4700 3102c0,58 -5,56 8,82 25,-7 10,1 20,-17l9 -28c3,30 5,32 23,45 19,-14 6,-1 22,-37l5 -10c0,-1 2,-3 3,-5l0 52 22 0 0 -104c-67,1 -17,29 -60,59 -2,-80 -52,-69 -52,-37z"/>
    <path class="fil25" d="M4536 3132c0,62 81,75 97,15 -46,1 -19,7 -42,11 -23,4 -20,3 -25,-19 22,0 67,7 67,-14 0,-77 -97,-64 -97,7z"/>
    <path class="fil25" d="M4922 3132c-7,-39 -13,-49 -50,-58 -50,5 -45,32 -45,88l24 21c44,1 62,9 65,-36 -38,3 -47,40 -59,-8 31,0 44,5 65,-7z"/>
    <path class="fil26" d="M5043 3099c-15,108 73,97 86,55 -35,-17 -40,46 -65,-15l68 -5c-3,-69 -47,-76 -89,-35z"/>
    <path class="fil26" d="M5148 3100c-15,104 73,99 86,54 -35,-17 -40,45 -65,-15l68 -5c-7,-89 -65,-58 -89,-34z"/>
    <path class="fil25" d="M4439 3184l22 0 0 -45 38 0 0 45 22 0 0 -104 -22 0 0 37 -38 0 0 -37 -22 0 0 104z"/>
    <path class="fil25" d="M4942 3147l-4 37 21 0 10 -47c82,-1 -10,28 54,42 -1,-29 8,-76 -10,-99 -24,15 -3,47 -37,40 -13,-3 -5,-4 -13,-18 -12,-23 6,-14 -20,-21l-1 66z"/>
    <path class="fil26" d="M4722 3333l8 -7 7 -15c0,-38 -5,-39 -25,-56 -1,-1 -3,-2 -4,-4 -21,10 -69,10 -30,82l44 0z"/>
    <path class="fil25" d="M4760 3333c-6,27 -8,25 -8,60 40,21 34,17 67,0 0,-66 -1,-73 -59,-60z"/>
    <path class="fil25" d="M4737 3311l-7 15 -8 7c-24,47 -37,48 -44,75 51,-4 40,-44 82,-75 12,-44 41,-35 45,-82 -47,4 -23,30 -68,60z"/>
   </g>
   <g>
    <path class="fil27" d="M7195 4303l0 -52c6,-16 3,-13 16,-23 -25,-6 -11,-7 -15,-36 -6,-40 10,-19 -18,-36 30,-2 6,1 16,-9l-2 -58 -82 0 -9 0 -81 0c0,99 8,183 8,289 -15,4 -42,14 -19,26 3,2 7,3 11,4l53 0c9,-45 17,-185 37,-216l22 216 53 0c4,-1 8,-2 12,-4 22,-12 -4,-22 -20,-26l0 -67 18 -8z"/>
    <path class="fil28" d="M7110 3857c10,35 7,83 11,121 4,56 17,75 -11,111l82 0 0 -91 8 0 0 135c27,-22 13,11 44,-23 0,-67 -3,-129 -12,-182 -6,-28 -8,-58 -25,-72 -17,-13 -55,-20 -75,-17l-22 18z"/>
    <path class="fil28" d="M6968 4106l45 1 0 -124 7 0 0 106 81 0c-15,-17 -19,-20 -17,-54 2,-21 5,-45 7,-66 3,-34 0,-91 11,-112 -7,-8 -8,-7 -15,-16 -9,-10 -4,-3 -12,-15 -53,49 -70,-21 -93,96 -12,66 -14,99 -14,180l0 4z"/>
    <path class="fil29" d="M7013 3730c5,21 16,37 29,53 8,9 10,10 19,18 14,15 14,4 14,25 8,12 3,5 12,15 7,9 8,8 15,16l8 0 22 -18 0 -28c25,-13 22,-6 38,-30 11,-15 20,-31 22,-54 -44,-5 -7,-41 -47,-54 -9,-3 -62,3 -87,-1 -19,21 -21,24 -24,58l-21 0z"/>
    <path class="fil30" d="M7013 3730l21 0c3,-34 5,-37 24,-58 25,4 78,-2 87,1 40,13 3,49 47,54 0,-66 -30,-114 -69,-125l-34 0c-9,2 -18,6 -27,12 -40,27 -49,52 -49,116z"/>
    <path class="fil31" d="M7200 4133l-6 14c-10,10 14,7 -16,9 28,17 12,-4 18,36 4,29 -10,30 15,36 30,-9 64,-28 86,-43l0 -76c-12,0 -20,2 -29,3l-20 -1c0,0 -2,0 -4,-1 -31,34 -17,1 -44,23z"/>
    <path class="fil32" d="M7211 4228c-13,10 -10,7 -16,23l0 52c51,-9 54,-33 102,-44l0 -74c-22,15 -56,34 -86,43z"/>
    <path class="fil33" d="M7101 4089l9 0c28,-36 15,-55 11,-111 -4,-38 -1,-86 -11,-121l-8 0c-11,21 -8,78 -11,112 -2,21 -5,45 -7,66 -2,34 2,37 17,54z"/>
    <path class="fil29" d="M7013 4107l-45 -1c0,24 3,30 8,48l22 0 -8 -29c11,5 9,3 23,7l0 -25z"/>
   </g>
   <g>
    <path class="fil34" d="M7035 2699l112 0c92,0 104,-156 -22,-156l-67 0c-127,0 -115,156 -23,156z"/>
    <path class="fil34" d="M7013 2416c0,157 157,112 157,30 0,-51 -5,-105 -82,-105 -41,0 -75,34 -75,75z"/>
    <path class="fil35" d="M6991 3035c0,48 27,63 62,67l87 0c48,0 113,-127 -60,-127 -41,0 -89,21 -89,60z"/>
    <path class="fil36" d="M7452 3102c34,-3 61,-16 61,-59 0,-88 -172,-89 -196,-17 -11,35 17,76 62,76l73 0z"/>
    <path class="fil37" d="M6670 3043c0,43 27,56 61,59l73 0c33,0 61,-24 64,-54 9,-79 -91,-65 -139,-65 -36,0 -59,23 -59,60z"/>
    <path class="fil35" d="M7028 2886c0,102 127,102 127,0 0,-86 -127,-86 -127,0z"/>
    <path class="fil36" d="M7356 2878c0,35 -5,82 60,82 63,0 60,-53 60,-89 0,-53 -120,-77 -120,7z"/>
    <path class="fil37" d="M6707 2886c0,57 18,74 75,74 44,0 100,-134 -30,-134 -24,0 -45,33 -45,60z"/>
    <path class="fil38" d="M7408 2796l15 0c0,-168 -15,-186 -179,-186 24,32 -5,-2 66,9 18,2 51,12 66,23 41,30 32,88 32,154z"/>
    <path class="fil38" d="M6759 2796l15 0c0,-100 -13,-156 93,-176 78,-15 46,25 71,-10 -161,0 -179,16 -179,186z"/>
    <path class="fil38" d="M7088 2796l7 0 0 -82 -7 0 0 82z"/>
   </g>
   <g>
    <path class="fil39" d="M6717 5572l698 0c-2,-14 -3,-32 -6,-45 -6,-28 -3,-23 -18,-35 -22,-15 -42,-11 -65,-35l-30 -6c-37,-10 -40,-8 -61,-34l-5 10 -59 -19 -47 106 -29 -19c-21,20 -7,14 -25,18l-13 -22 -32 22 -49 -105 -73 26 1 -63c-7,28 -11,53 -61,44 -24,-4 -28,-28 -34,-34l10 87c-110,31 -92,41 -102,104z"/>
    <path class="fil40" d="M7043 5119c2,2 5,5 7,6l16 7 5 272c-43,-10 -58,-22 -81,-41l52 89 29 26c41,-22 63,-49 100,-70l0 -30c-7,-87 17,-94 26,-130 2,-10 3,-37 13,-49l0 -8 -20 0 -15 27 -25 -110c-51,-3 -54,14 -107,11z"/>
    <path class="fil41" d="M6945 5191l-14 0c1,52 9,60 22,83 1,1 2,3 3,4 1,2 2,4 3,5 13,29 19,62 14,102l3 23c27,10 9,2 32,20 3,3 16,13 16,13 18,12 3,4 18,11l-52 -89c23,19 38,31 81,41l-5 -272 -16 -7c-2,-1 -5,-4 -7,-6 -89,-44 -61,47 -86,99l-12 -27z"/>
    <path class="fil42" d="M6945 5191l12 27c25,-52 -3,-143 86,-99 53,3 56,-14 107,-11l25 110 15 -27c3,-27 22,-104 -2,-138 -11,-16 -39,-19 -55,-26 -76,-34 -164,-2 -185,33 -23,38 -10,86 -3,131z"/>
    <path class="fil41" d="M7216 5244c-9,12 -5,0 -4,18 2,14 6,18 9,27 10,29 8,29 9,66l5 62c21,26 24,24 61,34l6 -7 -6 -51c15,-15 22,-14 39,-30l1 -8c-3,-30 -5,-36 3,-62 7,-23 17,-19 5,-49l-9 13c-20,-79 -2,-49 -96,-55 -11,19 -4,16 -11,33 -5,13 -1,4 -6,9 -24,23 2,9 -6,0z"/>
    <path class="fil43" d="M6655 5572l62 0c10,-63 -8,-73 102,-104l-10 -87c6,6 10,30 34,34 50,9 54,-16 61,-44 -22,8 1,-4 -26,14 -6,4 -13,11 -16,13 -22,-10 -35,-23 -58,-35 -27,13 -110,33 -123,56 -5,9 -26,137 -26,153z"/>
    <path class="fil44" d="M7326 5457c23,24 43,20 65,35 15,12 12,7 18,35 3,13 4,31 6,45l68 0c0,-17 -20,-140 -25,-154 -10,-25 -27,-26 -54,-36 -21,-8 -52,-18 -68,-27l-1 8 -9 94z"/>
    <path class="fil40" d="M6789 5257c0,2 -1,3 -1,4 0,2 0,4 0,5 2,30 4,13 11,35 8,24 5,33 5,62 23,12 36,25 58,35 3,-2 10,-9 16,-13 27,-18 4,-6 26,-14l5 -7c0,-30 -3,-37 5,-63 7,-23 18,-21 4,-50l-8 14 -16 -53c-17,0 -69,1 -84,2l-10 48 -11 -5z"/>
    <path class="fil44" d="M7171 5408c-37,21 -59,48 -100,70l-29 -26c-15,-7 0,1 -18,-11 0,0 -13,-10 -16,-13 -23,-18 -5,-10 -32,-20l49 105 32 -22 13 22c18,-4 4,2 25,-18l29 19 47 -106z"/>
    <path class="fil42" d="M6789 5257l11 5 10 -48c15,-1 67,-2 84,-2l16 53 8 -14c20,-58 -3,-88 -62,-90 -22,-1 -52,7 -61,21 -11,17 -6,52 -6,75z"/>
    <path class="fil42" d="M7210 5191l0 8c1,19 3,19 6,45 8,9 -18,23 6,0 5,-5 1,4 6,-9 7,-17 0,-14 11,-33 94,6 76,-24 96,55l9 -13c12,-43 13,-77 -35,-88 -57,-12 -81,3 -99,35z"/>
    <path class="fil43" d="M6976 5408l-3 -23c-24,-6 -42,-18 -64,-21l-5 7 -1 63 73 -26z"/>
    <path class="fil44" d="M7171 5378l0 30 59 19 5 -10 -5 -62c-20,11 -34,16 -59,23z"/>
    <path class="fil45" d="M7296 5451l30 6 9 -94c-17,16 -24,15 -39,30l6 51 -6 7z"/>
   </g>
  </g>
  <path class="fil46 str0" d="M5786 0l0 0"/>
  <path class="fil46 str0" d="M5786 0l0 0"/>
  <path class="fil46 str0" d="M5998 2503l0 1717"/>
  <path class="fil47 str1" d="M5688 609l-61 0c-5,0 -9,-1 -11,-4 -3,-3 -4,-7 -4,-11 0,-3 1,-7 3,-10 3,-4 7,-5 12,-5l153 0c4,0 8,1 11,5 3,3 4,6 4,10 0,4 -1,7 -4,10 -2,4 -6,5 -11,5l-61 0 0 261c0,5 -2,9 -5,12 -2,2 -6,3 -11,3 -4,0 -7,-1 -10,-4 -3,-2 -5,-6 -5,-11l0 -261zm352 261c0,5 -1,9 -4,12 -3,2 -6,3 -11,3 -4,0 -8,-1 -11,-4 -3,-2 -4,-6 -4,-11l0 -217 -125 224c-1,3 -4,6 -6,8l-4 2c-1,0 -2,1 -4,1 -3,0 -7,-2 -10,-5 -3,-3 -4,-7 -4,-13l0 -276c0,-4 1,-8 4,-11 3,-3 7,-4 11,-4 4,0 7,1 10,4 3,2 5,6 5,11l0 217 124 -224c2,-3 4,-5 7,-7 3,-3 5,-4 8,-4 4,0 7,2 10,6 3,3 4,7 4,12l0 276zm92 -159l129 -128c3,-3 7,-4 11,-4 3,0 7,1 10,5 4,3 5,6 5,11 0,2 -1,6 -4,10l-92 91 94 166 3 8c0,4 -2,8 -5,11 -3,3 -7,4 -12,4 -4,0 -9,-2 -12,-8l-90 -160 -37 36 0 117c0,5 -1,9 -4,12 -3,2 -7,3 -11,3 -4,0 -8,-1 -11,-4 -3,-2 -4,-6 -4,-11l0 -276c0,-4 1,-8 4,-11 3,-3 7,-4 11,-4 4,0 7,1 10,3 4,3 5,7 5,12l0 117z"/>
  <path class="fil47 str1" d="M6673 3289c0,7 -2,13 -7,18 -5,6 -11,8 -19,8l-7 0c-7,0 -13,-2 -18,-7 -6,-5 -8,-12 -8,-19l0 -31c0,-7 2,-13 8,-18 5,-6 11,-8 18,-8l7 0c7,0 13,2 19,7 5,5 7,12 7,19l0 31zm-11 0l0 -31c0,-4 -2,-7 -5,-10 -2,-3 -6,-4 -10,-4l-7 0c-4,0 -7,1 -10,4 -3,3 -4,6 -4,10l0 31c0,4 1,7 4,10 3,3 6,4 10,4l7 0c4,0 7,-1 10,-4 3,-2 5,-6 5,-10zm83 2l0 -35c0,-4 -1,-7 -3,-9 -3,-2 -6,-3 -9,-3l-12 0c-3,0 -6,1 -8,3 -2,1 -2,2 -3,4 -1,1 -1,3 -1,5l0 35c0,4 1,7 4,9 1,1 2,2 3,3 2,0 4,0 5,0l12 0c3,0 6,-1 8,-3 3,-2 4,-5 4,-9zm-19 -59l-27 -26c-1,-1 -2,-3 -2,-5 0,-1 0,-2 1,-3 1,-1 3,-2 5,-2l48 0c1,0 3,1 4,2 1,1 2,2 2,4 0,1 -1,3 -2,4 -1,1 -2,2 -4,2l-33 0 32 30 1 2c4,4 6,10 6,16l0 35c0,7 -3,13 -7,17 -5,5 -10,7 -17,7l-12 0c-6,0 -12,-2 -17,-7 -4,-4 -7,-10 -7,-17l0 -35c0,-7 3,-13 7,-17 5,-5 10,-7 17,-7l5 0zm102 71l24 0 0 -65c0,-2 1,-3 2,-5 1,-1 3,-1 4,-1 2,0 3,0 4,1 1,1 2,3 2,5l0 65 6 0c4,0 6,2 6,6l0 12c0,2 -1,3 -2,4 -1,2 -3,2 -4,2 -1,0 -3,0 -4,-1 -1,-1 -2,-3 -2,-5l0 -6 -9 0 -51 0c-6,0 -12,-2 -16,-7 -5,-4 -7,-10 -7,-17l0 -53c0,-2 0,-3 1,-5 2,-1 3,-1 5,-1 1,0 2,0 4,1 1,1 1,3 1,5l0 53c0,4 2,7 4,9 1,1 2,2 4,3 1,0 3,0 4,0l12 0 0 -65c0,-2 1,-3 2,-5 1,-1 3,-1 4,-1 2,0 3,0 4,1 2,1 2,3 2,5l0 65zm72 -35l36 0 0 -12c0,-4 -2,-7 -4,-9 -2,-2 -5,-3 -8,-3l-12 0c-4,0 -7,1 -9,3 -1,1 -2,3 -3,4 0,1 0,3 0,5l0 12zm0 12l0 11c0,4 1,7 3,9 1,1 3,2 4,3 2,0 3,0 5,0l29 0c2,0 3,1 5,2 1,1 1,3 1,4 0,2 0,3 -1,4 -1,2 -3,2 -5,2l-29 0c-7,0 -12,-2 -17,-7 -5,-4 -7,-10 -7,-17l0 -35c0,-7 2,-12 7,-17 4,-5 10,-7 17,-7l12 0c6,0 12,2 16,7 5,4 7,10 7,17l0 18c0,4 -2,6 -6,6l-41 0zm113 35l-18 0c-6,0 -12,-2 -17,-7 -4,-4 -7,-10 -7,-17l0 -35c0,-7 3,-13 7,-17 5,-5 10,-7 17,-7l18 0c2,0 3,0 4,2 1,1 2,2 2,4 0,1 -1,2 -2,4 -1,1 -2,2 -4,2l-18 0c-3,0 -6,1 -9,3 -1,1 -2,2 -2,4 -1,1 -1,3 -1,5l0 35c0,4 1,7 3,9 2,1 3,2 4,3 2,0 4,0 5,0l18 0c2,0 3,1 4,2 1,1 2,3 2,4 0,2 -1,3 -2,4 -1,2 -2,2 -4,2zm65 -71l-24 0 0 65c0,2 0,4 -1,5 -1,1 -3,1 -4,1 -2,0 -3,0 -5,-1 -1,-1 -1,-3 -1,-5l0 -71c0,-4 2,-6 6,-6l53 0c7,0 12,2 17,7 5,4 7,10 7,17l0 53c0,2 -1,4 -2,5 -1,1 -2,1 -4,1 -2,0 -3,0 -4,-1 -1,-1 -2,-3 -2,-5l0 -53c0,-4 -1,-7 -3,-9 -3,-2 -5,-3 -9,-3l-12 0 0 65c0,2 0,4 -1,5 -2,1 -3,1 -5,1 -1,0 -3,0 -4,-1 -1,-1 -2,-3 -2,-5l0 -65zm120 47l0 -35c0,-4 -2,-6 -4,-9 -2,-2 -5,-3 -8,-3l-12 0c-4,0 -7,1 -9,3 -1,1 -2,3 -2,4 -1,2 -1,3 -1,5l0 35c0,4 1,7 3,9 1,1 3,2 4,3 2,0 3,0 5,0l12 0c3,0 6,-1 8,-3 2,-2 4,-5 4,-9zm-36 -55l5 -3 7 -5c2,-2 4,-3 5,-5 1,-1 2,-3 2,-5 0,-3 -1,-5 -3,-7 -2,-2 -4,-3 -7,-3 -2,0 -5,1 -7,3 -1,1 -2,4 -2,7l0 18zm24 -4c7,0 13,2 17,7 4,4 6,10 6,17l0 35c0,7 -2,13 -7,17 -4,5 -10,7 -16,7l-12 0c-7,0 -12,-2 -17,-7 -5,-4 -7,-10 -7,-17l0 -73c0,-7 2,-12 6,-17 5,-3 10,-5 15,-5 6,0 11,2 15,6 5,3 7,9 7,15 0,4 -1,7 -2,9 -1,2 -3,4 -5,6zm59 36l36 0 0 -12c0,-4 -1,-7 -3,-9 -3,-2 -6,-3 -9,-3l-12 0c-3,0 -6,1 -9,3 -1,1 -2,3 -2,4 -1,1 -1,3 -1,5l0 12zm0 12l0 11c0,4 1,7 3,9 2,1 3,2 4,3 2,0 4,0 5,0l30 0c1,0 3,1 4,2 1,1 2,3 2,4 0,2 -1,3 -2,4 -1,2 -2,2 -4,2l-30 0c-6,0 -12,-2 -17,-7 -4,-4 -7,-10 -7,-17l0 -35c0,-7 2,-12 7,-17 5,-5 10,-7 17,-7l12 0c6,0 12,2 17,7 4,4 7,10 7,17l0 18c0,4 -2,6 -6,6l-42 0zm119 -13l0 -29c0,-2 1,-3 2,-5 1,-1 3,-1 4,-1 2,0 3,0 4,1 2,1 2,3 2,5l0 71c0,2 0,4 -2,5 -1,1 -2,1 -4,1 -1,0 -3,0 -4,-1 -1,-1 -2,-3 -2,-5l0 -30 -36 0 0 30c0,2 0,4 -1,5 -1,1 -3,1 -5,1 -1,0 -2,0 -4,-1 -1,-1 -1,-3 -1,-5l0 -71c0,-2 0,-3 1,-5 2,-1 3,-1 4,-1 2,0 3,0 5,1 1,1 1,3 1,5l0 29 36 0zm84 0l0 -29c0,-2 0,-3 1,-5 2,-1 3,-1 5,-1 1,0 2,0 4,1 1,1 2,3 2,5l0 71c0,2 -1,4 -2,5 -1,1 -3,1 -4,1 -2,0 -3,0 -5,-1 -1,-1 -1,-3 -1,-5l0 -30 -36 0 0 30c0,2 -1,4 -2,5 -1,1 -2,1 -4,1 -2,0 -3,0 -4,-1 -1,-1 -2,-3 -2,-5l0 -71c0,-2 1,-3 2,-5 1,-1 2,-1 4,-1 1,0 3,0 4,1 1,1 2,3 2,5l0 29 36 0zm107 42c0,2 -1,4 -2,5 -1,1 -2,1 -4,1 -2,0 -3,0 -4,-1 -2,-1 -2,-3 -2,-5l0 -71c0,-2 0,-3 2,-5 1,-1 2,-1 4,-1 1,0 3,0 4,1 1,1 2,3 2,5l0 71zm-60 -30l0 24 12 0c4,0 7,-1 9,-3 2,-3 3,-5 3,-9 0,-3 -1,-6 -3,-8 -1,-1 -2,-2 -4,-3 -1,0 -3,-1 -5,-1l-12 0zm0 -12l12 0c8,0 13,3 18,8 4,4 6,10 6,16 0,7 -2,12 -6,17 -4,5 -10,7 -18,7l-18 0c-4,0 -6,-2 -6,-6l0 -71c0,-2 1,-3 2,-5 1,-1 3,-1 4,-1 2,0 3,0 4,1 2,1 2,3 2,5l0 29zm95 1l36 0 0 -12c0,-4 -1,-7 -3,-9 -2,-2 -5,-3 -9,-3l-12 0c-3,0 -6,1 -8,3 -1,1 -2,3 -3,4 0,1 -1,3 -1,5l0 12zm0 12l0 11c0,4 2,7 4,9 1,1 2,2 4,3 1,0 3,0 4,0l30 0c2,0 3,1 4,2 2,1 2,3 2,4 0,2 0,3 -1,4 -1,2 -3,2 -5,2l-30 0c-6,0 -12,-2 -16,-7 -5,-4 -7,-10 -7,-17l0 -35c0,-7 2,-12 6,-17 5,-5 11,-7 17,-7l12 0c7,0 12,2 17,7 5,4 7,10 7,17l0 18c0,4 -2,6 -6,6l-42 0zm-854 200c0,7 -3,13 -8,18 -5,5 -11,8 -18,8l-7 0c-7,0 -14,-3 -19,-8 -5,-5 -8,-11 -8,-18l0 -31c0,-7 3,-13 8,-19 5,-5 11,-8 19,-8l7 0c7,0 13,3 18,8 5,5 8,11 8,19l0 31zm-12 0l0 -31c0,-4 -1,-8 -4,-10 -3,-3 -6,-5 -10,-5l-7 0c-4,0 -8,2 -11,4 -2,3 -4,7 -4,11l0 31c0,4 2,7 4,10 3,3 7,4 11,4l7 0c4,0 7,-1 10,-4 3,-3 4,-6 4,-10zm84 2l0 -36c0,-3 -2,-6 -4,-8 -2,-3 -5,-4 -8,-4l-12 0c-4,0 -7,1 -9,4 -1,1 -2,2 -3,4 0,1 0,3 0,4l0 36c0,3 1,6 3,9 1,1 3,1 4,2 2,1 3,1 5,1l12 0c3,0 6,-1 8,-3 2,-3 4,-5 4,-9zm-20 -60l-26 -25c-2,-2 -3,-3 -3,-5 0,-1 1,-2 2,-4 1,-1 3,-1 5,-1l47 0c2,0 3,0 5,2 1,1 1,2 1,4 0,1 0,2 -1,4 -1,1 -3,2 -5,2l-32 0 31 30 2 2c3,4 5,9 5,15l0 36c0,7 -2,12 -7,17 -4,5 -10,7 -16,7l-12 0c-7,0 -12,-2 -17,-7 -5,-5 -7,-10 -7,-17l0 -36c0,-6 2,-12 7,-17 4,-4 10,-7 17,-7l4 0zm73 48l0 24 24 0c3,0 6,-1 9,-4 2,-2 3,-5 3,-8 0,-3 -1,-6 -3,-8 -1,-1 -2,-2 -4,-3 -1,-1 -3,-1 -5,-1l-24 0zm0 -12l24 0c7,0 13,3 18,8 4,4 6,10 6,16 0,6 -2,12 -6,16 -5,5 -11,8 -18,8l-30 0c-4,0 -6,-2 -6,-6l0 -66 -6 0c-2,0 -3,0 -4,-1 -1,-2 -2,-3 -2,-5 0,-1 1,-2 2,-4 1,-1 2,-2 4,-2l12 0c4,0 6,2 6,6l0 30zm83 0l36 0 0 -12c0,-3 -1,-6 -3,-8 -2,-3 -5,-4 -9,-4l-12 0c-3,0 -6,1 -8,4 -1,1 -2,2 -3,4 0,1 -1,3 -1,4l0 12zm0 12l0 12c0,3 1,6 4,9 1,1 2,1 4,2 1,1 3,1 4,1l30 0c2,0 3,1 4,2 1,1 2,2 2,4 0,1 0,3 -1,4 -1,1 -3,2 -5,2l-30 0c-6,0 -12,-2 -16,-7 -5,-5 -8,-10 -8,-17l0 -36c0,-6 3,-12 7,-16 5,-5 11,-8 17,-8l12 0c7,0 12,3 17,7 5,5 7,11 7,17l0 18c0,4 -2,6 -6,6l-42 0zm120 -36l-24 0c-4,0 -7,1 -9,4 -1,1 -2,2 -2,4 -1,1 -1,3 -1,4l0 36c0,3 1,6 3,9 1,1 3,1 4,2 2,1 3,1 5,1l12 0c3,0 6,-1 8,-3 2,-3 4,-5 4,-9l0 -48zm0 -12l0 -12c0,-3 -2,-6 -4,-8 -2,-2 -5,-3 -8,-3l-24 0c-2,0 -4,-1 -5,-2 -1,-1 -1,-3 -1,-4 0,-2 0,-3 1,-4 1,-2 3,-2 5,-2l24 0c6,0 12,2 16,7 5,4 7,10 7,17l0 71c0,7 -2,12 -7,17 -4,5 -10,7 -16,7l-12 0c-7,0 -12,-2 -17,-7 -5,-5 -7,-10 -7,-17l0 -36c0,-6 2,-12 7,-17 4,-4 10,-7 17,-7l24 0zm95 78c0,4 -2,6 -6,6l-30 0c-6,0 -12,-2 -17,-7 -4,-5 -7,-10 -7,-17l0 -54c0,-1 1,-3 2,-4 1,-1 3,-2 4,-2 2,0 3,1 4,2 1,1 2,2 2,4l0 54c0,3 1,6 3,9 2,1 3,1 4,2 2,1 4,1 5,1l24 0 0 -66c0,-1 1,-3 2,-4 1,-1 2,-2 4,-2 1,0 3,1 4,2 1,1 2,2 2,4l0 72zm71 -42l0 -30c0,-1 1,-3 2,-4 1,-1 3,-2 4,-2 2,0 3,1 4,2 2,1 2,2 2,4l0 72c0,2 0,3 -2,4 -1,1 -2,2 -4,2 -1,0 -3,-1 -4,-2 -1,-1 -2,-2 -2,-4l0 -30 -36 0 0 30c0,2 0,3 -1,4 -1,1 -3,2 -5,2 -1,0 -2,-1 -4,-2 -1,-1 -1,-2 -1,-4l0 -72c0,-1 0,-3 1,-4 2,-1 3,-2 4,-2 2,0 3,1 5,2 1,1 1,2 1,4l0 30 36 0zm48 0l36 0 0 -12c0,-3 -1,-6 -4,-8 -2,-3 -5,-4 -8,-4l-12 0c-4,0 -6,1 -9,4 -1,1 -2,2 -2,4 -1,1 -1,3 -1,4l0 12zm0 12l0 12c0,3 1,6 3,9 1,1 3,1 4,2 2,1 3,1 5,1l30 0c1,0 3,1 4,2 1,1 2,2 2,4 0,1 -1,3 -2,4 -1,1 -2,2 -4,2l-30 0c-7,0 -12,-2 -17,-7 -5,-5 -7,-10 -7,-17l0 -36c0,-6 2,-12 7,-16 4,-5 10,-8 17,-8l12 0c6,0 12,3 16,7 5,5 8,11 8,17l0 18c0,4 -2,6 -6,6l-42 0zm119 -12l0 -30c0,-1 1,-3 2,-4 1,-1 2,-2 4,-2 1,0 3,1 4,2 1,1 2,2 2,4l0 72c0,2 -1,3 -2,4 -1,1 -2,2 -4,2 -2,0 -3,-1 -4,-2 -1,-1 -2,-2 -2,-4l0 -30 -36 0 0 30c0,2 0,3 -2,4 -1,1 -2,2 -4,2 -1,0 -3,-1 -4,-2 -1,-1 -2,-2 -2,-4l0 -72c0,-1 1,-3 2,-4 1,-1 3,-2 4,-2 2,0 3,1 4,2 2,1 2,2 2,4l0 30 36 0zm95 42c0,4 -2,6 -6,6l-29 0c-7,0 -12,-2 -17,-7 -5,-5 -7,-10 -7,-17l0 -54c0,-1 0,-3 1,-4 2,-1 3,-2 5,-2 1,0 2,1 4,2 1,1 2,2 2,4l0 54c0,3 1,6 3,9 1,1 2,1 4,2 1,1 3,1 4,1l24 0 0 -66c0,-1 1,-3 2,-4 1,-1 3,-2 4,-2 2,0 3,1 4,2 2,1 2,2 2,4l0 72zm72 -42l0 -24 -24 0c-4,0 -6,1 -9,4 -2,2 -3,5 -3,8 0,3 1,6 3,9 2,2 5,3 9,3l24 0zm-15 12l-22 33c0,1 -1,2 -2,2l-3 1c-1,0 -3,-1 -4,-2 -1,-1 -2,-3 -2,-4 0,-1 0,-2 1,-3l18 -27c-6,-1 -11,-4 -14,-8 -3,-5 -5,-10 -5,-16 0,-6 2,-12 6,-16 4,-5 10,-8 18,-8l30 0c4,0 6,2 6,6l0 72c0,2 -1,3 -2,4 -1,1 -3,2 -4,2 -2,0 -3,-1 -4,-2 -2,-1 -2,-2 -2,-4l0 -30 -15 0z"/>
  <path class="fil47 str1" d="M6476 4625c0,2 -1,3 -2,4 -1,1 -3,2 -4,2 -2,0 -3,-1 -4,-2 -2,-1 -2,-2 -2,-4l0 -54c0,-3 -1,-6 -4,-8 -2,-3 -5,-4 -8,-4l-24 0 0 66c0,2 -1,3 -2,4 -1,1 -2,2 -4,2 -2,0 -3,-1 -4,-2 -1,-1 -2,-2 -2,-4l0 -72c0,-4 2,-6 6,-6l30 0c6,0 12,2 16,7 5,5 8,10 8,17l0 54zm35 -6l24 0c3,0 6,-1 9,-4 2,-2 3,-5 3,-8l0 -36c0,-3 -1,-6 -3,-8 -2,-3 -5,-4 -9,-4l-24 0 0 60zm0 12l0 29c0,2 0,3 -2,5 -1,1 -2,1 -4,1 -1,0 -2,0 -4,-1 -1,-1 -2,-3 -2,-5l0 -107c0,-4 2,-6 6,-6l30 0c7,0 12,3 17,7 5,5 7,10 7,17l0 36c0,6 -2,12 -7,17 -5,4 -10,7 -17,7l-24 0zm84 -48l36 0 0 -12c0,-3 -2,-6 -4,-8 -2,-3 -5,-4 -8,-4l-12 0c-4,0 -7,1 -9,3 -1,2 -2,3 -3,4 0,2 0,3 0,5l0 12zm0 12l0 12c0,3 1,6 3,8 1,1 3,2 4,3 2,1 3,1 5,1l29 0c2,0 3,0 5,2 1,1 1,2 1,4 0,1 0,2 -1,4 -1,1 -3,2 -5,2l-29 0c-7,0 -12,-3 -17,-7 -5,-5 -7,-11 -7,-17l0 -36c0,-6 2,-12 7,-17 4,-4 10,-7 17,-7l12 0c6,0 12,3 16,7 5,5 7,10 7,17l0 18c0,4 -2,6 -6,6l-41 0zm119 -36l-24 0c-3,0 -6,1 -9,3 -1,2 -2,3 -2,4 -1,2 -1,3 -1,5l0 36c0,3 1,6 3,8 2,1 3,2 4,3 2,1 4,1 5,1l12 0c3,0 6,-1 8,-4 3,-2 4,-5 4,-8l0 -48zm0 -12l0 -12c0,-3 -1,-6 -3,-8 -3,-3 -6,-4 -9,-4l-24 0c-2,0 -3,0 -4,-1 -1,-2 -2,-3 -2,-5 0,-1 1,-2 2,-4 1,-1 2,-2 4,-2l24 0c7,0 12,3 17,7 4,5 7,11 7,17l0 72c0,6 -3,12 -7,17 -5,4 -11,7 -17,7l-12 0c-6,0 -12,-3 -17,-7 -4,-5 -7,-10 -7,-17l0 -36c0,-7 2,-12 7,-17 5,-4 10,-7 17,-7l24 0zm77 84l-18 0c-6,0 -12,-3 -16,-7 -5,-5 -7,-10 -7,-17l0 -36c0,-7 2,-12 7,-17 4,-4 10,-7 16,-7l18 0c2,0 3,1 4,2 2,1 2,3 2,4 0,1 0,3 -1,4 -1,1 -3,2 -5,2l-18 0c-3,0 -6,1 -8,3 -1,2 -2,3 -3,4 0,2 -1,3 -1,5l0 36c0,3 1,6 4,8 1,1 2,2 4,3 1,1 3,1 4,1l18 0c2,0 3,0 4,2 2,1 2,2 2,4 0,1 0,2 -1,4 -1,1 -3,2 -5,2zm66 -72l-24 0 0 66c0,2 -1,3 -2,4 -1,1 -2,2 -4,2 -2,0 -3,-1 -4,-2 -1,-1 -2,-2 -2,-4l0 -72c0,-4 2,-6 6,-6l53 0c7,0 12,3 17,7 5,5 7,10 7,17l0 54c0,2 0,3 -1,4 -2,1 -3,2 -5,2 -1,0 -3,-1 -4,-2 -1,-1 -2,-2 -2,-4l0 -54c0,-3 -1,-6 -3,-8 -2,-3 -5,-4 -9,-4l-11 0 0 66c0,2 -1,3 -2,4 -1,1 -3,2 -4,2 -2,0 -3,-1 -5,-2 -1,-1 -1,-2 -1,-4l0 -66zm119 48l0 -48 -24 0c-3,0 -6,1 -9,3 -1,2 -2,3 -2,4 -1,2 -1,3 -1,5l0 36c0,3 1,6 3,8 2,1 3,2 4,3 2,1 4,1 5,1l12 0c3,0 6,-1 8,-4 3,-2 4,-5 4,-8zm6 16c-2,2 -5,4 -8,5 -3,2 -7,3 -10,3l-12 0c-6,0 -12,-3 -17,-7 -4,-5 -7,-10 -7,-17l0 -36c0,-7 2,-12 7,-17 5,-4 10,-7 17,-7l30 0c4,0 6,2 6,6l0 54c0,2 0,4 2,7 1,2 3,4 6,5 2,1 4,3 4,6 0,1 -1,3 -2,4 -1,1 -2,2 -4,2 -1,0 -2,-1 -3,-1 -4,-1 -7,-4 -9,-7zm77 -16l0 -36c0,-3 -1,-6 -3,-8 -2,-3 -5,-4 -9,-4l-12 0c-3,0 -6,1 -8,4 -1,1 -2,2 -3,3 0,2 -1,3 -1,5l0 36c0,3 1,6 4,8 1,1 2,2 4,3 1,1 3,1 4,1l12 0c4,0 6,-1 9,-4 2,-2 3,-5 3,-8zm-36 -56l5 -3 7 -5c3,-1 4,-3 5,-4 2,-2 3,-4 3,-6 0,-3 -1,-5 -3,-7 -2,-2 -5,-2 -7,-2 -3,0 -5,0 -7,2 -2,2 -3,4 -3,7l0 18zm24 -3c8,0 14,2 18,6 4,5 6,10 6,17l0 36c0,6 -2,12 -7,17 -5,4 -10,7 -17,7l-12 0c-6,0 -12,-3 -16,-7 -5,-5 -7,-10 -7,-17l0 -74c0,-7 2,-12 6,-16 4,-4 9,-6 15,-6 6,0 10,2 15,6 4,4 6,9 6,16 0,4 0,7 -1,9 -1,2 -3,4 -6,6zm107 77c0,4 -2,6 -5,6l-30 0c-7,0 -12,-3 -17,-7 -5,-5 -7,-10 -7,-17l0 -54c0,-1 0,-3 2,-4 1,-1 2,-2 4,-2 1,0 3,1 4,2 1,1 2,2 2,4l0 54c0,3 1,6 3,8 1,1 3,2 4,3 2,1 3,1 5,1l24 0 0 -66c0,-1 0,-3 1,-4 2,-1 3,-2 5,-2 1,0 2,1 4,2 1,1 1,2 1,4l0 72zm60 -66l-24 0 0 66c0,2 0,3 -2,4 -1,1 -2,2 -4,2 -1,0 -3,-1 -4,-2 -1,-1 -2,-2 -2,-4l0 -72c0,-4 2,-6 6,-6l54 0c6,0 12,3 16,7 5,5 8,10 8,17l0 54c0,2 -1,3 -2,4 -1,1 -3,2 -4,2 -2,0 -3,-1 -5,-2 -1,-1 -1,-2 -1,-4l0 -54c0,-3 -1,-6 -4,-8 -2,-3 -5,-4 -8,-4l-12 0 0 66c0,2 -1,3 -2,4 -1,1 -2,2 -4,2 -2,0 -3,-1 -4,-2 -1,-1 -2,-2 -2,-4l0 -66zm83 24l36 0 0 -12c0,-3 -1,-6 -3,-8 -2,-3 -5,-4 -9,-4l-12 0c-3,0 -6,1 -8,3 -1,2 -2,3 -3,4 0,2 -1,3 -1,5l0 12zm0 12l0 12c0,3 1,6 4,8 1,1 2,2 4,3 1,1 3,1 4,1l30 0c2,0 3,0 4,2 1,1 2,2 2,4 0,1 0,2 -1,4 -1,1 -3,2 -5,2l-30 0c-6,0 -12,-3 -17,-7 -4,-5 -7,-11 -7,-17l0 -36c0,-6 3,-12 7,-17 5,-4 11,-7 17,-7l12 0c7,0 12,3 17,7 5,5 7,10 7,17l0 18c0,4 -2,6 -6,6l-42 0zm131 30c0,2 0,3 -1,4 -1,1 -3,2 -5,2 -1,0 -2,-1 -4,-2 -1,-1 -1,-2 -1,-4l0 -66 -14 0 -22 68c-1,1 -2,2 -3,3 0,0 -1,0 -3,1 -2,0 -3,-1 -4,-2 -1,-1 -2,-2 -2,-4l0 -2 24 -72c1,-2 3,-4 6,-4l23 0c4,0 6,2 6,6l0 72zm36 -30l0 24 24 0c4,0 7,-1 9,-4 2,-2 3,-5 3,-8 0,-4 -1,-6 -3,-9 -1,-1 -2,-2 -4,-2 -1,-1 -3,-1 -5,-1l-24 0zm0 -12l24 0c7,0 13,2 18,7 4,5 6,10 6,17 0,6 -2,12 -6,16 -5,5 -11,8 -18,8l-30 0c-4,0 -6,-2 -6,-6l0 -72c0,-1 1,-3 2,-4 1,-1 3,-2 4,-2 2,0 3,1 4,2 1,1 2,2 2,4l0 30zm119 0l0 -30c0,-1 1,-3 2,-4 1,-1 3,-2 4,-2 2,0 3,1 4,2 2,1 2,2 2,4l0 72c0,2 0,3 -2,4 -1,1 -2,2 -4,2 -1,0 -3,-1 -4,-2 -1,-1 -2,-2 -2,-4l0 -30 -36 0 0 30c0,2 0,3 -1,4 -1,1 -3,2 -5,2 -1,0 -2,-1 -4,-2 -1,-1 -1,-2 -1,-4l0 -72c0,-1 0,-3 1,-4 2,-1 3,-2 4,-2 2,0 3,1 5,2 1,1 1,2 1,4l0 30 36 0zm107 42c0,2 0,3 -1,4 -1,1 -3,2 -5,2 -1,0 -3,-1 -4,-2 -1,-1 -2,-2 -2,-4l0 -72c0,-1 1,-3 2,-4 1,-1 3,-2 4,-2 2,0 3,1 5,2 1,1 1,2 1,4l0 72zm-59 -30l0 24 12 0c3,0 6,-1 8,-4 3,-2 4,-5 4,-8 0,-4 -1,-6 -3,-9 -1,-1 -2,-2 -4,-2 -2,-1 -3,-1 -5,-1l-12 0zm0 -12l12 0c7,0 13,2 18,7 3,5 5,10 5,17 0,6 -1,12 -5,16 -5,5 -11,8 -18,8l-18 0c-4,0 -6,-2 -6,-6l0 -72c0,-1 0,-3 2,-4 1,-1 2,-2 4,-2 1,0 3,1 4,2 1,1 2,2 2,4l0 30zm125 -60l-24 0c-2,0 -3,0 -4,-1 -1,-2 -2,-3 -2,-5 0,-1 1,-2 2,-4 1,-1 2,-2 4,-2l24 0c2,0 3,1 4,2 1,2 2,3 2,4 0,2 -1,3 -2,4 -1,2 -2,2 -4,2zm18 102c0,4 -2,6 -6,6l-30 0c-6,0 -12,-3 -17,-7 -4,-5 -7,-10 -7,-17l0 -54c0,-1 1,-3 2,-4 1,-1 3,-2 4,-2 2,0 3,1 4,2 1,1 2,2 2,4l0 54c0,3 1,6 3,8 2,1 3,2 4,3 2,1 4,1 5,1l24 0 0 -66c0,-1 1,-3 2,-4 1,-1 2,-2 4,-2 1,0 3,1 4,2 1,1 2,2 2,4l0 72zm-995 170c0,7 -2,13 -7,19 -5,5 -12,7 -19,7l-7 0c-7,0 -13,-2 -18,-7 -6,-5 -8,-12 -8,-19l0 -31c0,-7 2,-13 7,-18 6,-6 12,-8 19,-8l7 0c7,0 13,2 19,7 5,6 7,12 7,19l0 31zm-12 0l0 -31c0,-4 -1,-7 -4,-10 -2,-3 -6,-4 -10,-4l-7 0c-4,0 -7,1 -10,4 -3,3 -4,6 -4,10l0 31c0,4 1,7 4,10 3,3 6,4 10,4l7 0c4,0 7,-1 10,-4 3,-2 4,-6 4,-10zm48 14l24 0c3,0 6,-1 8,-3 3,-2 4,-5 4,-9l0 -35c0,-4 -1,-7 -4,-9 -2,-2 -5,-3 -8,-3l-24 0 0 59zm0 12l0 30c0,2 -1,3 -2,4 -1,1 -2,2 -4,2 -1,0 -3,0 -4,-1 -1,-1 -2,-3 -2,-5l0 -107c0,-4 2,-6 6,-6l30 0c6,0 12,2 17,7 4,4 7,10 7,17l0 35c0,7 -3,13 -7,17 -5,5 -11,7 -17,7l-24 0zm128 -5c-3,2 -7,3 -12,4l-6 1 -7 0 -9 0 -7 -1c-4,-1 -8,-3 -11,-6 -3,-4 -4,-7 -4,-12 0,-2 1,-5 2,-7 1,-3 2,-5 5,-7l38 -26c1,-1 2,-2 2,-4 0,-2 -3,-4 -7,-6 -4,-1 -8,-2 -13,-2 -4,0 -8,1 -11,1 -3,1 -5,2 -7,4 -1,0 -2,1 -4,1 -1,0 -2,-1 -4,-2 -1,-1 -2,-3 -2,-4 0,-2 1,-4 3,-5 2,-2 6,-3 11,-5 2,0 5,-1 7,-1 3,0 6,0 8,0 2,0 3,0 5,0 1,0 3,0 5,0 1,0 3,1 6,1 4,2 8,4 11,7 2,3 4,7 4,11 0,5 -3,9 -7,13l-38 27c-2,1 -2,2 -2,4 0,2 0,3 1,4 1,1 2,2 4,3l7 0 7 1c4,0 8,-1 11,-1 1,0 2,-1 4,-1 1,-1 3,-2 4,-3l1 0c1,0 2,0 2,0 2,0 3,0 4,1 2,2 2,3 2,5 0,2 -1,3 -3,5zm75 -19l0 -47 -24 0c-4,0 -7,1 -9,3 -1,1 -2,3 -2,4 -1,1 -1,3 -1,5l0 35c0,4 1,7 3,9 1,1 3,2 4,3 2,0 3,0 5,0l12 0c3,0 6,-1 8,-3 2,-2 4,-5 4,-9zm5 16c-2,3 -4,5 -7,6 -4,2 -7,2 -10,2l-12 0c-7,0 -12,-2 -17,-7 -5,-4 -7,-10 -7,-17l0 -35c0,-7 2,-13 7,-17 4,-5 10,-7 17,-7l29 0c4,0 6,2 6,6l0 53c0,3 1,5 3,8 1,2 3,4 6,5 2,1 3,3 3,5 0,2 0,3 -1,4 -1,2 -3,2 -5,2 0,0 -1,0 -2,0 -4,-2 -7,-4 -10,-8zm78 -39l0 -30c0,-2 1,-3 2,-5 1,-1 2,-1 4,-1 1,0 3,0 4,1 1,1 2,3 2,5l0 71c0,2 -1,4 -2,5 -1,1 -2,1 -4,1 -2,0 -3,0 -4,-1 -1,-1 -2,-3 -2,-5l0 -30 -36 0 0 30c0,2 -1,4 -2,5 -1,1 -2,1 -4,1 -1,0 -3,0 -4,-1 -1,-1 -2,-3 -2,-5l0 -71c0,-2 1,-3 2,-5 1,-1 3,-1 4,-1 2,0 3,0 4,1 1,1 2,3 2,5l0 30 36 0zm190 41c0,2 0,4 -1,5 -1,1 -3,1 -4,1 -2,0 -3,0 -4,-1 -2,-1 -2,-3 -2,-5l0 -85 -25 41c-1,3 -3,4 -5,4 -2,0 -4,-1 -5,-4l-25 -41 0 85c0,2 -1,4 -2,5 -1,1 -2,1 -4,1 -2,0 -3,0 -4,-1 -1,-1 -2,-3 -2,-5l0 -106c0,-3 1,-4 2,-5 1,-2 2,-2 3,-2 2,0 3,0 3,1 1,0 2,1 3,3l31 51 30 -51c2,-3 4,-4 6,-4 1,0 3,0 4,2 1,1 1,3 1,5l0 106zm78 6l-30 0c-6,0 -12,-2 -17,-7 -4,-4 -7,-10 -7,-17l0 -71c0,-7 3,-12 7,-17 5,-5 10,-7 17,-7l30 0c2,0 3,1 4,2 1,1 2,3 2,4 0,1 -1,3 -2,4 -1,1 -2,2 -4,2l-30 0c-3,0 -6,1 -9,3 -1,2 -2,3 -2,4 -1,2 -1,3 -1,5l0 72c0,3 1,6 3,8 2,1 3,2 4,3 2,0 4,0 5,0l30 0c2,0 3,1 4,2 1,1 2,3 2,4 0,2 -1,3 -2,4 -1,2 -2,2 -4,2zm89 -47l-36 0c-6,0 -12,-3 -16,-7 -5,-5 -7,-11 -7,-17l0 -42c0,-2 0,-3 1,-4 2,-1 3,-2 5,-2 1,0 2,1 4,2 1,1 1,2 1,4l0 42c0,3 2,6 4,8 1,1 2,2 4,3 1,0 3,1 4,1l36 0 0 -54c0,-2 1,-3 2,-4 1,-1 3,-2 4,-2 2,0 3,1 4,2 1,1 2,2 2,4l0 89c0,7 -2,13 -7,17 -5,5 -10,7 -17,7l-30 0c-1,0 -3,0 -4,-1 -1,-2 -2,-3 -2,-5 0,-1 1,-2 2,-4 1,-1 3,-2 4,-2l30 0c4,0 6,-1 9,-3 2,-2 3,-5 3,-9l0 -23z"/>
  <path class="fil47 str1" d="M6777 5763l-17 0c-7,0 -12,-2 -17,-7 -5,-4 -7,-10 -7,-17l0 -35c0,-7 2,-13 7,-17 4,-5 10,-7 17,-7l17 0c2,0 4,0 5,2 1,1 1,2 1,4 0,1 0,2 -1,4 -1,1 -3,2 -5,2l-17 0c-4,0 -7,1 -9,3 -1,1 -2,2 -3,4 0,1 0,3 0,5l0 35c0,4 1,7 3,9 1,1 2,2 4,2 2,1 3,1 5,1l17 0c2,0 3,1 5,2 1,1 1,3 1,4 0,2 0,3 -1,4 -1,2 -3,2 -5,2zm90 -26c0,7 -3,13 -8,18 -5,6 -11,8 -18,8l-8 0c-7,0 -13,-2 -18,-7 -5,-5 -8,-12 -8,-19l0 -31c0,-7 3,-13 8,-18 5,-6 11,-8 18,-8l8 0c7,0 13,2 18,7 5,5 8,12 8,19l0 31zm-12 0l0 -31c0,-4 -1,-7 -4,-10 -3,-3 -6,-4 -10,-4l-8 0c-4,0 -7,1 -10,4 -3,3 -4,6 -4,10l0 31c0,4 1,7 4,10 3,3 6,4 10,4l8 0c3,0 7,-1 10,-4 2,-2 4,-6 4,-10zm83 2l0 -35c0,-4 -1,-7 -3,-9 -2,-2 -5,-3 -9,-3l-12 0c-3,0 -6,1 -8,3 -1,1 -2,2 -3,4 0,1 -1,3 -1,5l0 35c0,4 2,7 4,9 1,1 2,2 4,2 1,1 3,1 4,1l12 0c4,0 6,-1 9,-3 2,-2 3,-5 3,-9zm-19 -59l-27 -26c-1,-1 -2,-3 -2,-5 0,-1 1,-2 2,-3 1,-1 2,-2 4,-2l48 0c2,0 3,1 4,2 2,1 2,2 2,4 0,1 0,3 -1,4 -1,1 -3,2 -5,2l-33 0 32 30 1 2c4,4 6,10 6,16l0 35c0,7 -2,12 -7,17 -5,5 -10,7 -17,7l-12 0c-6,0 -12,-2 -16,-7 -5,-4 -7,-10 -7,-17l0 -35c0,-7 2,-13 7,-17 4,-5 10,-7 16,-7l5 0zm67 71l24 0c3,0 6,-1 8,-3 2,-2 4,-5 4,-9l0 -35c0,-4 -1,-7 -4,-9 -2,-2 -5,-3 -8,-3l-24 0 0 59zm0 12l0 30c0,2 -1,3 -2,4 -1,1 -3,2 -4,2 -2,0 -3,-1 -4,-2 -1,-1 -2,-2 -2,-4l0 -107c0,-4 2,-6 6,-6l30 0c6,0 12,2 16,7 5,4 8,10 8,17l0 35c0,7 -3,12 -7,17 -5,5 -11,7 -17,7l-24 0zm119 -24l0 -47 -24 0c-3,0 -6,1 -8,3 -2,1 -2,2 -3,4 -1,1 -1,3 -1,5l0 35c0,4 1,7 4,9 1,1 2,2 3,2 2,1 4,1 5,1l12 0c3,0 6,-1 9,-3 2,-2 3,-5 3,-9zm6 16c-2,3 -5,4 -8,6 -3,1 -7,2 -10,2l-12 0c-6,0 -12,-2 -17,-7 -4,-4 -7,-10 -7,-17l0 -35c0,-7 3,-13 7,-17 5,-5 11,-7 17,-7l30 0c4,0 6,2 6,6l0 53c0,3 1,5 2,8 2,2 4,3 6,5 3,1 4,2 4,5 0,2 -1,3 -2,4 -1,2 -2,2 -4,2 -1,0 -2,0 -3,0 -3,-2 -7,-4 -9,-8zm77 -40l0 -29c0,-2 1,-3 2,-5 1,-1 3,-1 4,-1 2,0 3,0 4,1 2,1 2,3 2,5l0 71c0,2 0,4 -1,5 -2,1 -3,1 -5,1 -1,0 -3,0 -4,-1 -1,-1 -2,-3 -2,-5l0 -30 -36 0 0 30c0,2 0,4 -1,5 -1,1 -3,1 -4,1 -2,0 -3,0 -5,-1 -1,-1 -1,-3 -1,-5l0 -71c0,-2 0,-3 1,-5 2,-1 3,-1 5,-1 1,0 2,0 4,1 1,1 1,3 1,5l0 29 36 0zm96 42c0,4 -2,6 -6,6l-30 0c-7,0 -12,-2 -17,-7 -5,-4 -7,-10 -7,-17l0 -53c0,-2 1,-3 2,-5 1,-1 2,-1 4,-1 1,0 3,0 4,1 1,1 2,3 2,5l0 53c0,4 1,7 3,9 1,1 3,2 4,2 2,1 3,1 5,1l24 0 0 -65c0,-2 0,-3 2,-5 1,-1 2,-1 4,-1 1,0 3,0 4,1 1,1 2,3 2,5l0 71zm35 -41l36 0 0 -12c0,-4 -1,-7 -3,-9 -3,-2 -5,-3 -9,-3l-12 0c-3,0 -6,1 -8,3 -1,1 -2,2 -3,4 0,1 -1,3 -1,5l0 12zm0 11l0 12c0,4 1,7 4,9 1,1 2,2 3,2 2,1 4,1 5,1l30 0c2,0 3,1 4,2 1,1 2,3 2,4 0,2 -1,3 -2,4 0,2 -2,2 -4,2l-30 0c-6,0 -12,-2 -17,-7 -4,-4 -7,-10 -7,-17l0 -35c0,-7 3,-12 7,-17 5,-5 11,-7 17,-7l12 0c7,0 12,2 17,7 5,4 7,10 7,17l0 17c0,4 -2,6 -6,6l-42 0zm-664 221c0,4 -2,6 -6,6l-29 0c-7,0 -12,-2 -17,-7 -5,-5 -7,-10 -7,-17l0 -54c0,-1 0,-3 2,-4 1,-1 2,-2 4,-2 1,0 3,1 4,2 1,1 2,2 2,4l0 54c0,3 1,6 3,9 1,1 3,1 4,2 2,1 3,1 5,1l24 0 0 -66c0,-1 0,-3 1,-4 1,-1 3,-2 4,-2 2,0 3,1 5,2 1,1 1,2 1,4l0 72zm56 -30l-8 0c-2,0 -3,-1 -4,-2 -1,-1 -2,-2 -2,-4 0,-1 1,-3 2,-4 1,-1 2,-2 4,-2l6 0c4,0 7,-1 9,-4 2,-2 3,-5 3,-8 0,-3 -1,-6 -3,-8 -1,-1 -2,-2 -4,-3 -1,0 -3,-1 -5,-1l-6 0c-5,0 -10,2 -14,5 -1,1 -2,1 -4,1 -1,0 -3,0 -4,-1 -1,-2 -2,-3 -2,-5 0,-2 1,-3 3,-4 6,-5 13,-8 21,-8l6 0c7,0 13,3 18,8 4,4 6,10 6,16 0,2 0,4 -1,5 0,2 0,3 -1,5 -1,3 -3,5 -6,8 3,2 4,5 6,8l1 5c1,1 1,3 1,5 0,7 -2,12 -6,16 -4,5 -10,8 -18,8l-6 0c-8,0 -15,-3 -21,-7 -2,-2 -3,-3 -3,-5 0,-1 1,-3 2,-4 1,-2 3,-2 4,-2 1,0 2,0 4,1 4,3 9,5 14,5l6 0c4,0 7,-1 9,-4 2,-2 3,-5 3,-8 0,-3 -1,-6 -3,-8 -1,-2 -4,-3 -7,-4zm93 12l0 -36c0,-3 -1,-6 -3,-8 -2,-3 -5,-4 -9,-4l-12 0c-3,0 -6,1 -8,4 -1,1 -2,2 -3,3 0,2 -1,4 -1,5l0 36c0,3 2,6 4,9 1,1 2,1 4,2 1,1 3,1 4,1l12 0c4,0 6,-1 9,-3 2,-3 3,-5 3,-9zm-19 -60l-27 -25c-1,-2 -2,-3 -2,-5 0,-1 1,-2 2,-4 1,-1 2,-1 5,-1l47 0c2,0 3,0 4,1 2,2 2,3 2,5 0,1 0,2 -1,4 -1,1 -3,1 -5,1l-33 0 32 31 1 2c4,4 6,9 6,15l0 36c0,7 -2,12 -7,17 -4,4 -10,7 -17,7l-12 0c-6,0 -12,-2 -16,-7 -5,-5 -7,-10 -7,-17l0 -36c0,-6 2,-12 7,-17 4,-4 10,-7 16,-7l5 0zm115 78c0,4 -2,6 -6,6l-30 0c-7,0 -12,-2 -17,-7 -5,-5 -7,-10 -7,-17l0 -54c0,-1 1,-3 2,-4 1,-1 2,-2 4,-2 1,0 3,1 4,2 1,1 2,2 2,4l0 54c0,3 1,6 3,9 1,1 3,1 4,2 2,1 3,1 5,1l24 0 0 -66c0,-1 0,-3 1,-4 2,-1 3,-2 5,-2 1,0 2,1 4,2 1,1 2,2 2,4l0 72zm35 -6l24 0c3,0 6,-1 9,-3 2,-3 3,-5 3,-9l0 -36c0,-3 -1,-6 -3,-8 -3,-3 -5,-4 -9,-4l-24 0 0 60zm0 12l0 30c0,1 0,3 -2,4 -1,1 -2,2 -4,2 -1,0 -2,-1 -4,-2 -1,-1 -2,-2 -2,-4l0 -108c0,-4 2,-6 6,-6l30 0c7,0 12,3 17,7 5,5 7,11 7,17l0 36c0,7 -2,12 -7,17 -5,4 -10,7 -17,7l-24 0zm119 -24l0 -48 -24 0c-3,0 -6,1 -8,4 -1,1 -2,2 -3,3 0,2 0,4 0,5l0 36c0,3 1,6 3,9 1,1 2,1 4,2 1,1 3,1 4,1l12 0c4,0 7,-1 9,-3 2,-3 3,-5 3,-9zm6 16c-2,2 -4,4 -8,6 -3,1 -6,2 -10,2l-11 0c-7,0 -12,-2 -17,-7 -5,-5 -7,-10 -7,-17l0 -36c0,-6 2,-12 7,-17 4,-4 10,-7 17,-7l29 0c4,0 6,2 6,6l0 54c0,2 1,5 3,7 1,2 3,4 5,5 3,1 4,3 4,6 0,1 0,3 -1,4 -2,1 -3,2 -5,2 -1,0 -1,0 -2,-1 -4,-1 -7,-4 -10,-7zm66 -64l-24 0 0 66c0,2 -1,3 -2,4 -1,1 -2,2 -4,2 -2,0 -3,-1 -4,-2 -1,-1 -2,-2 -2,-4l0 -72c0,-4 2,-6 6,-6l54 0c6,0 12,3 16,7 5,5 7,11 7,17l0 54c0,2 0,3 -1,4 -1,1 -3,2 -5,2 -1,0 -3,-1 -4,-2 -1,-1 -2,-2 -2,-4l0 -54c0,-3 -1,-6 -3,-8 -2,-3 -5,-4 -8,-4l-12 0 0 66c0,2 -1,3 -2,4 -1,1 -3,2 -4,2 -2,0 -3,-1 -4,-2 -2,-1 -2,-2 -2,-4l0 -66zm83 24l36 0 0 -12c0,-3 -1,-6 -3,-8 -3,-3 -6,-4 -9,-4l-12 0c-3,0 -6,1 -9,4 -1,1 -2,2 -2,4 -1,1 -1,3 -1,4l0 12zm0 12l0 12c0,3 1,6 3,9 2,1 3,1 4,2 2,1 4,1 5,1l30 0c1,0 3,1 4,2 1,1 2,2 2,4 0,1 -1,3 -2,4 -1,1 -2,2 -4,2l-30 0c-6,0 -12,-3 -17,-7 -4,-5 -7,-10 -7,-17l0 -36c0,-6 3,-12 7,-17 5,-4 10,-7 17,-7l12 0c6,0 12,3 17,7 4,5 7,11 7,17l0 18c0,4 -2,6 -6,6l-42 0zm131 30c0,2 0,3 -2,4 -1,1 -2,2 -4,2 -1,0 -3,-1 -4,-2 -1,-1 -2,-2 -2,-4l0 -66 -13 0 -23 68c0,1 -1,2 -2,3 0,0 -1,0 -3,1 -2,0 -3,-1 -4,-2 -2,-1 -2,-2 -2,-4l0 -2 24 -72c1,-2 2,-4 5,-4l24 0c4,0 6,2 6,6l0 72zm36 -42l36 0 0 -12c0,-3 -1,-6 -4,-8 -2,-3 -5,-4 -8,-4l-12 0c-4,0 -6,1 -9,4 -1,1 -2,2 -2,4 -1,1 -1,3 -1,4l0 12zm0 12l0 12c0,3 1,6 3,9 1,1 3,1 4,2 2,1 3,1 5,1l30 0c1,0 3,1 4,2 1,1 2,2 2,4 0,1 -1,3 -2,4 -1,1 -2,2 -4,2l-30 0c-7,0 -12,-3 -17,-7 -5,-5 -7,-10 -7,-17l0 -36c0,-6 2,-12 7,-17 4,-4 10,-7 17,-7l12 0c6,0 12,3 16,7 5,5 8,11 8,17l0 18c0,4 -2,6 -6,6l-42 0zm113 -72l-24 0c-2,0 -3,0 -4,-1 -1,-1 -2,-3 -2,-4 0,-2 1,-3 2,-4 1,-2 2,-2 4,-2l24 0c2,0 3,0 4,1 1,2 2,3 2,5 0,1 -1,2 -2,4 -1,1 -2,1 -4,1zm18 102c0,4 -2,6 -6,6l-30 0c-6,0 -12,-2 -17,-7 -4,-5 -7,-10 -7,-17l0 -54c0,-1 1,-3 2,-4 1,-1 3,-2 4,-2 2,0 3,1 4,2 2,1 2,2 2,4l0 54c0,3 1,6 4,9 1,1 2,1 3,2 2,1 4,1 5,1l24 0 0 -66c0,-1 1,-3 2,-4 1,-1 2,-2 4,-2 1,0 3,1 4,2 1,1 2,2 2,4l0 72z"/>
  <g id="_629950881056">
   <path class="fil47 str1" d="M4098 6180c0,2 -1,4 -2,5 -1,1 -2,1 -4,1 -2,0 -3,0 -4,-1 -2,-1 -2,-3 -2,-5l0 -53c0,-4 -1,-7 -4,-9 -2,-2 -5,-3 -8,-3l-24 0 0 65c0,2 -1,4 -2,5 -1,1 -2,1 -4,1 -2,0 -3,0 -4,-1 -1,-1 -2,-3 -2,-5l0 -71c0,-4 2,-6 6,-6l30 0c6,0 12,2 17,7 4,4 7,10 7,17l0 53zm83 -20c0,7 -2,13 -8,19 -5,5 -11,7 -18,7l-7 0c-7,0 -14,-2 -19,-7 -5,-5 -8,-12 -8,-19l0 -31c0,-7 3,-13 8,-18 5,-6 11,-8 19,-8l7 0c7,0 13,2 18,7 5,6 8,12 8,19l0 31zm-12 0l0 -31c0,-4 -1,-7 -4,-10 -3,-3 -6,-4 -10,-4l-7 0c-4,0 -8,1 -10,4 -3,3 -5,6 -5,10l0 31c0,4 2,7 5,10 2,3 6,4 10,4l7 0c4,0 7,-1 10,-4 3,-2 4,-6 4,-10zm95 20c0,2 0,4 -1,5 -1,1 -3,1 -4,1 -2,0 -3,0 -5,-1 -1,-1 -1,-3 -1,-5l0 -65 -14 0 -22 67c-1,2 -2,3 -3,3 0,1 -1,1 -3,1 -1,0 -3,0 -4,-1 -1,-1 -2,-3 -2,-4l0 -3 24 -71c1,-3 3,-4 6,-4l23 0c4,0 6,2 6,6l0 71zm84 0c0,4 -2,6 -6,6l-30 0c-6,0 -12,-2 -17,-7 -4,-4 -7,-10 -7,-17l0 -53c0,-2 1,-3 2,-5 1,-1 3,-1 4,-1 2,0 3,0 4,1 1,1 2,3 2,5l0 54c0,3 1,6 4,8 1,1 2,2 3,3 2,0 4,0 5,0l24 0 0 -65c0,-2 1,-3 2,-5 1,-1 2,-1 4,-1 1,0 3,0 4,1 1,1 2,3 2,5l0 71zm59 -65l-24 0 0 65c0,2 0,4 -1,5 -1,1 -3,1 -4,1 -2,0 -3,0 -5,-1 -1,-1 -1,-3 -1,-5l0 -71c0,-4 2,-6 6,-6l53 0c7,0 12,2 17,7 5,4 7,10 7,17l0 53c0,2 -1,4 -2,5 -1,1 -2,1 -4,1 -2,0 -3,0 -4,-1 -1,-1 -2,-3 -2,-5l0 -53c0,-4 -1,-7 -3,-9 -3,-2 -5,-3 -9,-3l-12 0 0 65c0,2 0,4 -2,5 -1,1 -2,1 -4,1 -1,0 -3,0 -4,-1 -1,-1 -2,-3 -2,-5l0 -65zm131 65c0,4 -2,6 -6,6l-29 0c-7,0 -12,-2 -17,-7 -5,-4 -7,-10 -7,-17l0 -53c0,-2 0,-3 2,-5 1,-1 2,-1 4,-1 1,0 3,0 4,1 1,1 2,3 2,5l0 54c0,3 1,6 3,8 1,1 3,2 4,3 2,0 3,0 5,0l24 0 0 -65c0,-2 0,-3 1,-5 1,-1 3,-1 4,-1 2,0 3,0 5,1 1,1 1,3 1,5l0 71zm72 -41l0 -30c0,-2 0,-3 2,-5 1,-1 2,-1 4,-1 1,0 3,0 4,1 1,1 2,3 2,5l0 71c0,2 -1,4 -2,5 -1,1 -2,1 -4,1 -2,0 -3,0 -4,-1 -2,-1 -2,-3 -2,-5l0 -30 -24 0c-6,0 -12,-2 -17,-6 -4,-5 -7,-11 -7,-17l0 -18c0,-2 1,-3 2,-5 1,-1 3,-1 4,-1 2,0 3,0 4,1 1,1 2,3 2,5l0 18c0,3 1,6 3,8 2,1 3,2 4,3 2,0 4,1 5,1l24 0zm47 0l36 0 0 -12c0,-4 -1,-6 -3,-9 -2,-2 -5,-3 -9,-3l-12 0c-3,0 -6,1 -8,3 -1,1 -2,3 -3,4 0,2 -1,3 -1,5l0 12zm0 12l0 12c0,3 2,6 4,8 1,1 2,2 4,3 1,0 3,0 4,0l30 0c2,0 3,1 4,2 2,1 2,3 2,4 0,2 0,3 -1,4 -1,2 -3,2 -5,2l-30 0c-6,0 -12,-2 -16,-7 -5,-4 -7,-10 -7,-17l0 -35c0,-7 2,-12 6,-17 5,-5 11,-7 17,-7l12 0c7,0 12,2 17,7 5,4 7,10 7,17l0 18c0,4 -2,6 -6,6l-42 0zm114 35l-18 0c-7,0 -12,-2 -17,-7 -5,-4 -7,-10 -7,-17l0 -35c0,-7 2,-13 7,-17 5,-5 10,-7 17,-7l18 0c1,0 3,0 4,2 1,1 2,2 2,4 0,1 -1,2 -2,4 -1,1 -2,2 -4,2l-18 0c-4,0 -7,1 -9,3 -1,1 -2,3 -2,4 -1,1 -1,3 -1,5l0 35c0,4 1,7 3,9 1,1 3,2 4,3 2,0 3,0 5,0l18 0c1,0 3,1 4,2 1,1 2,3 2,4 0,2 -1,3 -2,4 -1,2 -2,2 -4,2zm53 -39l-13 14 0 19c0,2 -1,4 -2,5 -1,1 -2,1 -4,1 -2,0 -3,0 -4,-1 -1,-1 -2,-3 -2,-5l0 -71c0,-2 1,-3 2,-5 1,-1 2,-1 4,-1 2,0 3,0 4,1 1,1 2,3 2,5l0 35 38 -40c1,-1 2,-1 4,-1 1,0 2,0 4,1 1,2 2,3 2,5 0,2 -1,3 -2,4l-24 26 24 37c1,2 2,3 2,5 0,1 -1,3 -2,4 -2,1 -3,1 -5,1 -1,0 -3,0 -4,-2l-24 -37zm113 33c0,4 -2,6 -6,6l-29 0c-7,0 -12,-2 -17,-7 -5,-4 -7,-10 -7,-17l0 -53c0,-2 0,-3 1,-5 2,-1 3,-1 5,-1 1,0 3,0 4,1 1,1 2,3 2,5l0 54c0,3 1,6 3,8 1,1 2,2 4,3 1,0 3,0 4,0l24 0 0 -65c0,-2 1,-3 2,-5 1,-1 3,-1 4,-1 2,0 3,0 4,1 2,1 2,3 2,5l0 71zm36 -41l36 0 0 -12c0,-4 -1,-6 -4,-9 -2,-2 -5,-3 -8,-3l-12 0c-4,0 -6,1 -9,3 -1,1 -2,3 -2,4 -1,2 -1,3 -1,5l0 12zm0 12l0 12c0,3 1,6 3,8 2,1 3,2 4,3 2,0 3,0 5,0l30 0c1,0 3,1 4,2 1,1 2,3 2,4 0,2 -1,3 -2,4 -1,2 -2,2 -4,2l-30 0c-7,0 -12,-2 -17,-7 -5,-4 -7,-10 -7,-17l0 -35c0,-7 2,-12 7,-17 5,-5 10,-7 17,-7l12 0c6,0 12,2 17,7 4,4 7,10 7,17l0 18c0,4 -2,6 -6,6l-42 0zm202 29c0,2 0,4 -1,5 -1,1 -3,1 -4,1 -2,0 -3,0 -5,-1 -1,-1 -1,-3 -1,-5l0 -53c0,-4 -2,-7 -4,-9 -2,-2 -5,-3 -8,-3l-24 0 0 65c0,2 -1,4 -2,5 -1,1 -2,1 -4,1 -2,0 -3,0 -4,-1 -2,-1 -2,-3 -2,-5l0 -71c0,-4 2,-6 6,-6l30 0c6,0 12,2 16,7 5,4 7,10 7,17l0 53zm72 -18l0 -47 -24 0c-3,0 -6,1 -8,3 -2,1 -2,3 -3,4 -1,1 -1,3 -1,5l0 35c0,4 1,7 4,9 1,1 2,2 3,3 2,0 4,0 5,0l12 0c3,0 6,-1 8,-3 3,-2 4,-5 4,-9zm6 16c-2,3 -5,5 -8,6 -3,2 -7,2 -10,2l-12 0c-6,0 -12,-2 -17,-7 -4,-4 -7,-10 -7,-17l0 -35c0,-7 3,-13 7,-17 5,-5 10,-7 17,-7l30 0c4,0 6,2 6,6l0 53c0,3 1,5 2,8 1,2 3,4 6,5 3,1 4,3 4,5 0,2 -1,3 -2,5 -1,1 -2,1 -4,1 -1,0 -2,0 -3,0 -3,-2 -7,-4 -9,-8zm41 -4l24 0c4,0 7,-1 9,-3 2,-2 3,-5 3,-9l0 -35c0,-4 -1,-7 -3,-9 -2,-2 -5,-3 -9,-3l-24 0 0 59zm0 12l0 30c0,2 0,3 -1,4 -2,1 -3,2 -4,2 -2,0 -3,0 -4,-1 -2,-1 -2,-3 -2,-5l0 -107c0,-4 2,-6 6,-6l29 0c7,0 12,2 17,7 5,4 7,10 7,17l0 35c0,7 -2,13 -7,17 -4,5 -10,7 -17,7l-24 0zm108 -71l-24 0 0 65c0,2 -1,4 -2,5 -1,1 -2,1 -4,1 -2,0 -3,0 -4,-1 -1,-1 -2,-3 -2,-5l0 -71c0,-4 2,-6 6,-6l53 0c7,0 13,2 17,7 5,4 7,10 7,17l0 53c0,2 0,4 -1,5 -1,1 -3,1 -5,1 -1,0 -3,0 -4,-1 -1,-1 -2,-3 -2,-5l0 -53c0,-4 -1,-7 -3,-9 -2,-2 -5,-3 -9,-3l-11 0 0 65c0,2 -1,4 -2,5 -1,1 -3,1 -4,1 -2,0 -3,0 -5,-1 -1,-1 -1,-3 -1,-5l0 -65zm131 65c0,4 -2,6 -6,6l-30 0c-6,0 -12,-2 -17,-7 -4,-4 -7,-10 -7,-17l0 -53c0,-2 1,-3 2,-5 1,-1 3,-1 4,-1 2,0 3,0 4,1 1,1 2,3 2,5l0 54c0,3 1,6 3,8 2,1 3,2 4,3 2,0 4,0 5,0l24 0 0 -65c0,-2 0,-3 2,-5 1,-1 2,-1 4,-1 1,0 3,0 4,1 1,1 2,3 2,5l0 71zm83 0c0,4 -2,6 -6,6l-30 0c-6,0 -12,-2 -16,-7 -5,-4 -7,-10 -7,-17l0 -53c0,-2 0,-3 1,-5 1,-1 3,-1 4,-1 2,0 3,0 5,1 1,1 1,3 1,5l0 54c0,3 2,6 4,8 1,1 2,2 4,3 1,0 3,0 4,0l24 0 0 -65c0,-2 1,-3 2,-5 1,-1 3,-1 4,-1 2,0 3,0 4,1 2,1 2,3 2,5l0 71zm155 0c0,4 -2,6 -6,6l-30 0c-6,0 -12,-2 -17,-7 -4,-4 -7,-10 -7,-17l0 -53c0,-2 1,-3 2,-5 1,-1 3,-1 4,-1 2,0 3,0 4,1 2,1 2,3 2,5l0 54c0,3 1,6 4,8 1,1 2,2 3,3 2,0 4,0 5,0l24 0 0 -65c0,-2 1,-3 2,-5 1,-1 2,-1 4,-1 2,0 3,0 4,1 1,1 2,3 2,5l0 71zm-1849 191c0,4 -2,6 -6,6l-30 0c-6,0 -12,-2 -16,-7 -5,-5 -8,-10 -8,-17l0 -54c0,-1 1,-3 2,-4 1,-1 3,-2 4,-2 2,0 3,1 4,2 2,1 2,2 2,4l0 54c0,4 1,6 4,9 1,1 2,2 4,2 1,1 3,1 4,1l24 0 0 -66c0,-1 1,-3 2,-4 1,-1 3,-2 4,-2 2,0 3,1 4,2 1,1 2,2 2,4l0 72zm55 -30l-7 0c-2,0 -4,0 -5,-2 -1,-1 -1,-2 -1,-4 0,-1 0,-3 1,-4 1,-1 3,-2 5,-2l6 0c3,0 6,-1 8,-3 3,-3 4,-6 4,-9 0,-3 -1,-6 -3,-8 -1,-1 -3,-2 -4,-3 -2,0 -3,-1 -5,-1l-6 0c-6,0 -11,2 -15,5 -1,1 -2,1 -3,2 -2,0 -3,-1 -4,-2 -2,-2 -2,-3 -2,-5 0,-2 1,-3 2,-4 6,-5 14,-8 22,-8l6 0c7,0 13,3 17,8 4,4 6,10 6,16 0,2 0,4 0,5 0,2 -1,4 -1,5 -2,3 -3,6 -6,8 2,2 4,5 6,8l1 5c0,2 0,3 0,5 0,7 -2,12 -6,17 -4,4 -10,7 -17,7l-6 0c-8,0 -15,-2 -22,-7 -1,-1 -2,-3 -2,-5 0,-1 0,-3 2,-4 1,-1 2,-2 4,-2 1,0 2,0 3,1 5,4 9,5 15,5l6 0c3,0 6,-1 8,-4 2,-2 4,-5 4,-8 0,-3 -1,-6 -3,-8 -2,-2 -4,-3 -8,-4zm94 12l0 -36c0,-3 -1,-6 -3,-8 -3,-3 -6,-4 -9,-4l-12 0c-3,0 -6,1 -9,4 -1,1 -2,2 -2,4 -1,1 -1,3 -1,4l0 36c0,4 1,6 3,9 2,1 3,2 4,2 2,1 4,1 5,1l12 0c3,0 6,-1 8,-3 3,-2 4,-5 4,-9zm-19 -60l-27 -25c-1,-2 -2,-3 -2,-5 0,-1 0,-2 1,-3 1,-2 3,-2 5,-2l48 0c1,0 3,0 4,2 1,1 2,2 2,4 0,1 -1,2 -2,4 -1,1 -2,2 -4,2l-33 0 32 30 1 2c4,4 6,9 6,15l0 36c0,7 -3,12 -7,17 -5,5 -10,7 -17,7l-12 0c-6,0 -12,-2 -17,-7 -4,-5 -7,-10 -7,-17l0 -36c0,-6 3,-12 7,-17 5,-4 10,-7 17,-7l5 0zm114 78c0,4 -2,6 -6,6l-30 0c-6,0 -12,-2 -16,-7 -5,-5 -7,-10 -7,-17l0 -54c0,-1 0,-3 1,-4 2,-1 3,-2 4,-2 2,0 3,1 5,2 1,1 1,2 1,4l0 54c0,4 2,6 4,9 1,1 2,2 4,2 1,1 3,1 4,1l24 0 0 -66c0,-1 1,-3 2,-4 1,-1 3,-2 4,-2 2,0 3,1 4,2 2,1 2,2 2,4l0 72zm36 -6l24 0c3,0 6,-1 8,-3 3,-2 4,-5 4,-9l0 -36c0,-3 -1,-6 -4,-8 -2,-3 -5,-4 -8,-4l-24 0 0 60zm0 12l0 30c0,1 -1,3 -2,4 -1,1 -3,2 -4,2 -2,0 -3,-1 -4,-2 -1,-1 -2,-2 -2,-4l0 -108c0,-4 2,-6 6,-6l30 0c6,0 12,3 16,7 5,5 8,11 8,17l0 36c0,7 -3,12 -7,17 -5,5 -11,7 -17,7l-24 0zm119 -24l0 -48 -24 0c-3,0 -6,1 -8,4 -2,1 -2,2 -3,4 -1,1 -1,3 -1,4l0 36c0,4 1,6 4,9 1,1 2,2 3,2 2,1 4,1 5,1l12 0c3,0 6,-1 9,-3 2,-2 3,-5 3,-9zm6 16c-2,2 -5,4 -8,6 -3,1 -7,2 -10,2l-12 0c-6,0 -12,-2 -17,-7 -4,-5 -7,-10 -7,-17l0 -36c0,-6 3,-12 7,-17 5,-4 11,-7 17,-7l30 0c4,0 6,2 6,6l0 54c0,2 1,5 2,7 2,2 4,4 6,5 3,1 4,3 4,6 0,2 -1,3 -2,4 -1,1 -2,2 -4,2 -1,0 -2,0 -3,-1 -3,-1 -7,-4 -9,-7zm65 -64l-23 0 0 66c0,2 -1,3 -2,4 -1,1 -3,2 -4,2 -2,0 -3,-1 -5,-2 -1,-1 -1,-2 -1,-4l0 -72c0,-4 2,-6 6,-6l53 0c7,0 12,3 17,7 5,5 7,11 7,17l0 54c0,2 -1,3 -2,4 -1,1 -2,2 -4,2 -2,0 -3,-1 -4,-2 -1,-1 -2,-2 -2,-4l0 -54c0,-3 -1,-6 -3,-8 -2,-3 -5,-4 -9,-4l-12 0 0 66c0,2 0,3 -1,4 -2,1 -3,2 -5,2 -1,0 -3,-1 -4,-2 -1,-1 -2,-2 -2,-4l0 -66zm84 24l36 0 0 -12c0,-3 -2,-6 -4,-8 -2,-3 -5,-4 -8,-4l-12 0c-4,0 -7,1 -9,4 -1,1 -2,2 -2,4 -1,1 -1,3 -1,4l0 12zm0 12l0 12c0,4 1,6 3,9 1,1 3,2 4,2 2,1 3,1 5,1l29 0c2,0 4,1 5,2 1,1 1,3 1,4 0,1 0,3 -1,4 -1,1 -3,2 -5,2l-29 0c-7,0 -12,-2 -17,-7 -5,-5 -7,-10 -7,-17l0 -36c0,-6 2,-12 7,-16 4,-5 10,-8 17,-8l12 0c6,0 12,3 16,7 5,5 7,11 7,17l0 18c0,4 -2,6 -6,6l-41 0zm131 30c0,2 -1,3 -2,4 -1,1 -2,2 -4,2 -2,0 -3,-1 -4,-2 -1,-1 -2,-2 -2,-4l0 -66 -14 0 -22 68c-1,1 -1,2 -2,3 -1,0 -2,0 -4,1 -1,0 -2,-1 -4,-2 -1,-1 -2,-2 -2,-4l1 -2 23 -71c1,-3 3,-5 6,-5l24 0c4,0 6,2 6,6l0 72zm35 -30l0 24 24 0c4,0 7,-1 9,-4 2,-2 3,-5 3,-8 0,-3 -1,-6 -3,-8 -1,-1 -2,-2 -3,-3 -2,-1 -4,-1 -6,-1l-24 0zm0 -12l24 0c8,0 14,3 18,8 4,4 6,10 6,16 0,6 -2,12 -6,16 -4,5 -10,8 -18,8l-29 0c-4,0 -6,-2 -6,-6l0 -72c0,-1 0,-3 1,-4 2,-1 3,-2 5,-2 1,0 2,1 4,2 1,1 1,2 1,4l0 30zm120 0l0 -30c0,-1 0,-3 1,-4 2,-1 3,-2 5,-2 1,0 3,1 4,2 1,1 2,2 2,4l0 72c0,2 -1,3 -2,4 -1,1 -3,2 -4,2 -2,0 -3,-1 -5,-2 -1,-1 -1,-2 -1,-4l0 -30 -36 0 0 30c0,2 -1,3 -2,4 -1,1 -2,2 -4,2 -2,0 -3,-1 -4,-2 -1,-1 -2,-2 -2,-4l0 -72c0,-1 1,-3 2,-4 1,-1 2,-2 4,-2 1,0 3,1 4,2 1,1 2,2 2,4l0 30 36 0z"/>
   <path class="fil47 str1" d="M4869 6371c0,2 -1,3 -2,4 -1,1 -2,2 -4,2 -2,0 -3,-1 -4,-2 -2,-1 -2,-2 -2,-4l0 -72c0,-1 0,-3 2,-4 1,-1 2,-2 4,-2 1,0 3,1 4,2 1,1 2,2 2,4l0 72zm-60 -30l0 24 12 0c4,0 7,-1 9,-4 2,-2 3,-5 3,-8 0,-3 -1,-6 -3,-8 -1,-1 -2,-2 -4,-3 -1,-1 -3,-1 -5,-1l-12 0zm0 -12l12 0c8,0 14,3 18,8 4,4 6,10 6,16 0,6 -2,12 -6,16 -4,5 -10,8 -18,8l-18 0c-4,0 -6,-2 -6,-6l0 -72c0,-1 1,-3 2,-4 1,-1 3,-2 4,-2 2,0 3,1 4,2 2,1 2,2 2,4l0 30zm95 0l36 0 0 -12c0,-3 -1,-6 -3,-8 -2,-3 -5,-4 -9,-4l-12 0c-3,0 -6,1 -8,4 -1,1 -2,2 -3,4 0,1 -1,3 -1,4l0 12zm0 12l0 12c0,4 2,6 4,9 1,1 2,2 4,2 1,1 3,1 4,1l30 0c2,0 3,1 4,2 2,1 2,3 2,4 0,1 0,3 -1,4 -1,1 -3,2 -5,2l-30 0c-6,0 -12,-2 -16,-7 -5,-5 -7,-10 -7,-17l0 -36c0,-6 2,-12 6,-16 5,-5 11,-8 17,-8l12 0c7,0 12,3 17,7 5,5 7,11 7,17l0 18c0,4 -2,6 -6,6l-42 0zm203 10c0,7 -3,13 -8,18 -5,5 -11,8 -18,8l-7 0c-7,0 -14,-3 -19,-8 -5,-5 -8,-11 -8,-18l0 -31c0,-7 3,-13 8,-19 5,-5 11,-8 19,-8l7 0c7,0 13,3 18,8 5,5 8,11 8,19l0 31zm-12 0l0 -31c0,-4 -1,-8 -4,-10 -3,-3 -6,-5 -10,-5l-7 0c-4,0 -8,2 -10,5 -3,2 -5,6 -5,10l0 31c0,4 2,7 4,10 3,3 7,4 11,4l7 0c4,0 7,-1 10,-4 3,-3 4,-6 4,-10zm84 2l0 -36c0,-3 -2,-6 -4,-8 -2,-3 -5,-4 -8,-4l-12 0c-4,0 -7,1 -9,4 -1,1 -2,2 -3,4 0,1 0,3 0,4l0 36c0,4 1,6 3,9 1,1 3,2 4,2 2,1 3,1 5,1l12 0c3,0 6,-1 8,-3 2,-2 4,-5 4,-9zm-20 -60l-26 -25c-2,-2 -3,-3 -3,-5 0,-1 1,-2 2,-3 1,-2 3,-2 5,-2l47 0c2,0 3,0 5,2 1,1 1,2 1,4 0,1 0,2 -1,4 -1,1 -3,2 -5,2l-32 0 31 30 2 2c4,4 5,9 5,15l0 36c0,7 -2,12 -7,17 -4,5 -10,7 -16,7l-12 0c-7,0 -12,-2 -17,-7 -5,-5 -7,-10 -7,-17l0 -36c0,-6 2,-12 7,-17 4,-4 10,-7 17,-7l4 0zm73 48l0 24 24 0c4,0 6,-1 9,-4 2,-2 3,-5 3,-8 0,-3 -1,-6 -3,-8 -1,-1 -2,-2 -4,-3 -1,-1 -3,-1 -5,-1l-24 0zm0 -12l24 0c7,0 13,3 18,8 4,4 6,10 6,16 0,6 -2,12 -6,16 -5,5 -11,8 -18,8l-30 0c-4,0 -6,-2 -6,-6l0 -66 -6 0c-2,0 -3,0 -4,-1 -1,-2 -2,-3 -2,-5 0,-1 1,-2 2,-4 1,-1 2,-2 4,-2l12 0c4,0 6,2 6,6l0 30zm83 0l36 0 0 -12c0,-3 -1,-6 -3,-8 -2,-3 -5,-4 -9,-4l-12 0c-3,0 -6,1 -8,4 -1,1 -2,2 -3,4 0,1 -1,3 -1,4l0 12zm0 12l0 12c0,4 1,6 4,9 1,1 2,2 4,2 1,1 3,1 4,1l30 0c2,0 3,1 4,2 1,1 2,3 2,4 0,1 0,3 -1,4 -1,1 -3,2 -5,2l-30 0c-6,0 -12,-2 -16,-7 -5,-5 -8,-10 -8,-17l0 -36c0,-6 3,-12 7,-16 5,-5 11,-8 17,-8l12 0c7,0 12,3 17,7 5,5 7,11 7,17l0 18c0,4 -2,6 -6,6l-42 0zm120 -36l-24 0c-4,0 -7,1 -9,4 -1,1 -2,2 -2,4 -1,1 -1,3 -1,4l0 36c0,4 1,6 3,9 1,1 3,2 4,2 2,1 3,1 5,1l12 0c3,0 6,-1 8,-3 2,-2 4,-5 4,-9l0 -48zm0 -12l0 -11c0,-4 -2,-7 -4,-9 -2,-2 -5,-3 -8,-3l-24 0c-2,0 -4,-1 -5,-2 -1,-1 -1,-3 -1,-4 0,-2 0,-3 1,-4 1,-2 3,-2 5,-2l24 0c6,0 12,2 17,7 4,4 6,10 6,17l0 71c0,7 -2,12 -7,17 -4,5 -10,7 -16,7l-12 0c-7,0 -12,-2 -17,-7 -5,-5 -7,-10 -7,-17l0 -36c0,-6 2,-12 7,-17 5,-4 10,-7 17,-7l24 0zm95 78c0,4 -2,6 -6,6l-30 0c-6,0 -12,-2 -17,-7 -4,-5 -7,-10 -7,-17l0 -54c0,-1 1,-3 2,-4 1,-1 3,-2 4,-2 2,0 3,1 4,2 1,1 2,2 2,4l0 54c0,4 1,6 4,9 1,1 2,2 3,2 2,1 4,1 5,1l24 0 0 -66c0,-1 1,-3 2,-4 1,-1 2,-2 4,-2 1,0 3,1 4,2 1,1 2,2 2,4l0 72zm71 -42l0 -30c0,-1 1,-3 2,-4 1,-1 3,-2 4,-2 2,0 3,1 4,2 2,1 2,2 2,4l0 72c0,2 0,3 -1,4 -2,1 -3,2 -5,2 -1,0 -3,-1 -4,-2 -1,-1 -2,-2 -2,-4l0 -30 -36 0 0 30c0,2 0,3 -1,4 -1,1 -3,2 -4,2 -2,0 -3,-1 -5,-2 -1,-1 -1,-2 -1,-4l0 -72c0,-1 0,-3 1,-4 2,-1 3,-2 5,-2 1,0 2,1 4,2 1,1 1,2 1,4l0 30 36 0zm48 0l36 0 0 -12c0,-3 -1,-6 -4,-8 -2,-3 -5,-4 -8,-4l-12 0c-4,0 -6,1 -9,4 -1,1 -2,2 -2,4 -1,1 -1,3 -1,4l0 12zm0 12l0 12c0,4 1,6 3,9 1,1 3,2 4,2 2,1 3,1 5,1l30 0c1,0 3,1 4,2 1,1 2,3 2,4 0,1 -1,3 -2,4 -1,1 -2,2 -4,2l-30 0c-7,0 -12,-2 -17,-7 -5,-5 -7,-10 -7,-17l0 -36c0,-6 2,-12 7,-16 4,-5 10,-8 17,-8l12 0c6,0 12,3 16,7 5,5 8,11 8,17l0 18c0,4 -2,6 -6,6l-42 0zm119 -12l0 -30c0,-1 1,-3 2,-4 1,-1 2,-2 4,-2 2,0 3,1 4,2 1,1 2,2 2,4l0 72c0,2 -1,3 -2,4 -1,1 -2,2 -4,2 -2,0 -3,-1 -4,-2 -1,-1 -2,-2 -2,-4l0 -30 -36 0 0 30c0,2 0,3 -2,4 -1,1 -2,2 -4,2 -1,0 -3,-1 -4,-2 -1,-1 -2,-2 -2,-4l0 -72c0,-1 1,-3 2,-4 1,-1 3,-2 4,-2 2,0 3,1 4,2 2,1 2,2 2,4l0 30 36 0zm95 42c0,4 -2,6 -6,6l-29 0c-7,0 -12,-2 -17,-7 -5,-5 -7,-10 -7,-17l0 -54c0,-1 0,-3 1,-4 2,-1 3,-2 5,-2 1,0 3,1 4,2 1,1 2,2 2,4l0 54c0,4 1,6 3,9 1,1 2,2 4,2 2,1 3,1 5,1l23 0 0 -66c0,-1 1,-3 2,-4 1,-1 3,-2 4,-2 2,0 3,1 4,2 2,1 2,2 2,4l0 72zm72 -42l0 -24 -24 0c-3,0 -6,2 -9,4 -2,2 -3,5 -3,8 0,3 1,6 3,9 2,2 5,3 9,3l24 0zm-15 12l-22 33c0,1 -1,2 -2,2l-3 1c-1,0 -2,-1 -4,-2 -1,-1 -2,-2 -2,-4 0,-1 0,-2 1,-3l18 -27c-6,-1 -11,-4 -14,-8 -3,-5 -5,-10 -5,-16 0,-6 2,-12 6,-16 5,-5 10,-8 18,-8l30 0c4,0 6,2 6,6l0 72c0,2 -1,3 -2,4 -1,1 -3,2 -4,2 -2,0 -3,-1 -4,-2 -2,-1 -2,-2 -2,-4l0 -30 -15 0z"/>
  </g>
 </g>
</svg>
