<?xml version="1.0" encoding="UTF-8"?>
<!DOCTYPE svg PUBLIC "-//W3C//DTD SVG 1.0//EN" "http://www.w3.org/TR/2001/REC-SVG-20010904/DTD/svg10.dtd">
<!-- Creator: CorelDRAW X7 -->
<svg xmlns="http://www.w3.org/2000/svg" xml:space="preserve" width="115.711mm" height="70.5555mm" version="1.0" style="shape-rendering:geometricPrecision; text-rendering:geometricPrecision; image-rendering:optimizeQuality; fill-rule:evenodd; clip-rule:evenodd"
viewBox="0 0 11571 7056"
 xmlns:xlink="http://www.w3.org/1999/xlink">
 <defs>
  <style type="text/css">
   <![CDATA[
    .str0 {stroke:#3198A2;stroke-width:8.81944}
    .str1 {stroke:#5797B4;stroke-width:26.4583;stroke-linecap:round;stroke-linejoin:round}
    .str2 {stroke:#008CD1;stroke-width:45.6882;stroke-linecap:round;stroke-linejoin:round}
    .fil3 {fill:none;fill-rule:nonzero}
    .fil10 {fill:#FEFEFE}
    .fil7 {fill:#F9C5A1}
    .fil5 {fill:#F9D6AA}
    .fil6 {fill:#E9B69A}
    .fil9 {fill:#DBE3E3}
    .fil12 {fill:#BF2C2E}
    .fil4 {fill:#D4E8F8}
    .fil8 {fill:#71523E}
    .fil1 {fill:#2E99A3}
    .fil13 {fill:#149288}
    .fil11 {fill:#00897E}
    .fil2 {fill:#AB8082;fill-rule:nonzero}
    .fil0 {fill:url(#id0)}
   ]]>
  </style>
  <radialGradient id="id0" gradientUnits="userSpaceOnUse" gradientTransform="matrix(1.17124 -0 -0 1.92083 -991 -3248)" cx="5785.55" cy="3527.77" r="3527.77" fx="5785.55" fy="3527.77">
   <stop offset="0" style="stop-opacity:1; stop-color:#FEFEFE"/>
   <stop offset="0.439216" style="stop-opacity:1; stop-color:#FEFEFE"/>
   <stop offset="1" style="stop-opacity:1; stop-color:#D1E2F2"/>
  </radialGradient>
 </defs>
 <g id="Layer_x0020_1">
  <metadata id="CorelCorpID_0Corel-Layer"/>
  <path class="fil0" d="M0 0l11571 0 0 7056 -11571 0 0 -7056z"/>
  <g id="_630016783824">
   <path class="fil1 str0" d="M4650 2556l-62 0c-11,0 -20,-4 -28,-12 -8,-8 -12,-17 -12,-29l0 -71c0,-3 1,-5 3,-8 2,-2 4,-2 7,-2 2,0 5,0 7,2 2,2 3,4 3,8l0 71c0,6 2,11 6,15 2,2 4,3 6,4 3,1 6,2 8,2l62 0 0 -92c0,-3 1,-5 3,-8 2,-2 4,-2 7,-2 2,0 5,0 7,2 2,2 3,4 3,8l0 153c0,11 -4,21 -12,29 -8,8 -17,12 -29,12l-51 0c-3,0 -5,-1 -7,-3 -2,-2 -3,-4 -3,-7 0,-3 1,-5 3,-7 2,-2 4,-3 7,-3l51 0c6,0 11,-2 15,-6 4,-4 6,-9 6,-15l0 -41zm73 62l20 -175c0,-6 3,-9 10,-9l61 0c7,0 10,3 10,10l0 174 10 0c7,0 11,3 11,10l0 20c0,3 -1,5 -3,7 -2,2 -5,3 -7,3 -3,0 -5,-1 -7,-2 -2,-2 -4,-5 -4,-8l0 -10 -102 0 0 10c0,3 -1,5 -3,7 -2,2 -5,3 -7,3 -2,0 -5,-1 -7,-2 -2,-2 -3,-5 -3,-8l0 -20c0,-7 3,-10 10,-10l11 0zm81 0l0 -164 -42 0 -18 164 60 0zm195 -21c0,11 -4,21 -12,29 -8,8 -18,12 -29,12l-41 0c-11,0 -21,-4 -29,-12 -8,-8 -12,-18 -12,-29l0 -123c0,-11 4,-21 12,-29 8,-7 18,-11 29,-11l41 0c11,0 21,4 29,12 8,8 12,17 12,28l0 123zm-21 0l0 -123c0,-5 -2,-10 -5,-14 -4,-4 -9,-6 -15,-6l-41 0c-6,0 -11,2 -15,6 -2,2 -3,4 -4,6 -1,3 -1,6 -1,8l0 123c0,6 1,11 5,15 2,1 5,3 7,4 3,1 6,2 8,2l41 0c6,0 10,-2 14,-6 4,-4 6,-9 6,-15zm170 41l-51 0c-11,0 -21,-4 -29,-12 -8,-8 -12,-18 -12,-29l0 -123c0,-11 4,-21 12,-29 8,-7 17,-11 29,-11l51 0c3,0 5,1 7,3 2,2 3,4 3,7 0,2 -1,4 -2,7 -2,2 -5,3 -8,3l-51 0c-6,0 -11,2 -15,6 -2,2 -3,4 -4,6 -1,3 -2,6 -2,8l0 123c0,6 2,11 6,15 2,1 4,3 7,4 3,1 5,2 8,2l51 0c3,0 5,1 7,3 2,2 3,4 3,7 0,2 -1,4 -2,7 -2,2 -5,3 -8,3zm102 -184l-41 0c-3,0 -6,-1 -8,-3 -1,-2 -2,-5 -2,-7 0,-3 1,-5 2,-7 2,-2 5,-3 8,-3l102 0c3,0 5,1 7,3 2,2 3,4 3,7 0,2 -1,4 -2,7 -2,2 -5,3 -8,3l-41 0 0 174c0,3 -1,5 -3,7 -2,2 -4,3 -7,3 -3,0 -5,-1 -7,-3 -2,-1 -3,-4 -3,-7l0 -174zm224 143c0,11 -4,21 -12,29 -8,8 -17,12 -29,12l-40 0c-11,0 -21,-4 -29,-12 -8,-8 -12,-18 -12,-29l0 -123c0,-11 4,-21 12,-29 8,-7 17,-11 29,-11l40 0c12,0 21,4 29,12 8,8 12,17 12,28l0 123zm-20 0l0 -123c0,-5 -2,-10 -6,-14 -4,-4 -9,-6 -15,-6l-40 0c-6,0 -11,2 -15,6 -2,2 -3,4 -4,6 -1,3 -2,6 -2,8l0 123c0,6 2,11 6,15 2,1 4,3 7,4 2,1 5,2 8,2l40 0c6,0 11,-2 15,-6 4,-4 6,-9 6,-15zm180 -76c6,4 11,9 15,15 3,6 5,13 5,20l0 41c0,11 -4,21 -12,29 -8,8 -18,12 -29,12l-71 0c-7,0 -11,-4 -11,-10l0 -184c0,-7 4,-10 11,-10l61 0c11,0 21,4 29,12 8,8 12,17 12,28l0 21c0,5 -1,9 -2,13 -2,5 -4,9 -8,13zm-82 15l0 82 61 0c6,0 11,-2 15,-6 4,-4 6,-9 6,-15l0 -41c0,-6 -2,-10 -6,-14 -4,-4 -9,-6 -15,-6l-61 0zm51 -21c6,0 10,-2 14,-5 4,-4 6,-9 6,-15l0 -21c0,-5 -1,-10 -5,-14 -4,-4 -9,-6 -15,-6l-51 0 0 61 51 0zm112 0l51 0c3,0 6,1 8,4 2,2 3,4 3,7 0,2 -1,4 -3,6 -2,3 -4,4 -8,4l-51 0 0 82 72 0c3,0 5,1 7,3 2,2 3,4 3,7 0,2 -1,4 -2,7 -2,2 -5,3 -8,3l-82 0c-7,0 -10,-3 -10,-10l0 -184c0,-7 3,-10 10,-10l82 0c3,0 5,1 7,3 2,2 3,4 3,7 0,2 -1,4 -2,7 -2,2 -5,3 -8,3l-72 0 0 61zm143 21l61 0c6,0 11,-2 15,-6 4,-4 6,-9 6,-15l0 -41c0,-5 -2,-10 -6,-14 -4,-4 -9,-6 -15,-6l-61 0 0 82zm0 20l0 72c0,3 -1,5 -3,7 -2,2 -4,3 -7,3 -3,0 -5,-1 -7,-3 -2,-1 -3,-4 -3,-7l0 -184c0,-7 3,-10 10,-10l71 0c12,0 21,4 29,12 8,7 12,17 12,28l0 41c0,11 -4,21 -12,29 -8,8 -17,12 -29,12l-61 0zm163 -41l52 0c3,0 5,1 7,4 2,2 3,4 3,7 0,2 -1,4 -3,6 -1,3 -4,4 -7,4l-52 0 0 82 72 0c3,0 5,1 7,3 2,2 3,4 3,7 0,2 0,4 -2,7 -2,2 -4,3 -8,3l-82 0c-7,0 -10,-3 -10,-10l0 -184c0,-7 3,-10 10,-10l82 0c3,0 5,1 7,3 2,2 3,4 3,7 0,2 0,4 -2,7 -2,2 -4,3 -8,3l-72 0 0 61zm225 0l0 -71c0,-3 1,-5 3,-7 2,-2 5,-3 7,-3 3,0 5,0 7,2 2,2 3,4 3,8l0 183c0,3 -1,6 -3,8 -2,2 -5,3 -7,3 -2,0 -5,-1 -7,-3 -2,-1 -3,-4 -3,-7l0 -92 -82 0 0 92c0,3 -1,5 -3,7 -1,2 -4,3 -7,3 -3,0 -5,-1 -7,-3 -2,-1 -3,-4 -3,-7l0 -184c0,-3 1,-5 3,-8 2,-1 4,-2 7,-2 3,0 5,1 7,2 2,2 3,4 3,8l0 71 82 0zm184 113c0,3 -1,5 -3,7 -2,2 -4,3 -7,3 -3,0 -5,-1 -8,-3 -2,-1 -3,-4 -3,-7l0 -145 -82 150c-2,2 -3,3 -5,5l-2 1c-1,0 -2,0 -3,1 -2,0 -5,-1 -7,-3 -2,-3 -3,-5 -3,-9l0 -184c0,-3 1,-5 3,-8 2,-1 5,-2 7,-2 3,0 5,1 7,2 3,2 4,4 4,8l0 144 82 -149c1,-2 3,-3 5,-5 2,-1 4,-2 5,-2 3,0 5,1 7,3 2,2 3,5 3,9l0 184zm61 -113l51 0c3,0 6,1 8,4 2,2 3,4 3,7 0,2 -1,4 -3,6 -2,3 -4,4 -8,4l-51 0 0 82 72 0c3,0 5,1 7,3 2,2 3,4 3,7 0,2 -1,4 -3,7 -1,2 -4,3 -7,3l-82 0c-7,0 -10,-3 -10,-10l0 -184c0,-7 3,-10 10,-10l82 0c3,0 5,1 7,3 2,2 3,4 3,7 0,2 -1,4 -3,7 -1,2 -4,3 -7,3l-72 0 0 61z"/>
   <g>
    <path class="fil2" d="M8079 4704l0 -2374 127 0 0 2374 -64 21 -63 -21zm127 0c0,12 -29,21 -64,21 -35,0 -63,-9 -63,-21l127 0zm-4819 0l127 0 -64 -22 163 0 160 0 157 0 154 0 152 0 149 0 148 0 145 0 143 0 142 0 141 0 140 0 139 0 138 0 138 0 137 0 138 0 138 0 138 0 139 0 140 0 140 0 142 0 144 0 145 0 147 0 150 0 151 0 154 0 157 0 160 0 163 0 0 43 -163 0 -160 0 -157 0 -154 0 -151 0 -150 0 -147 0 -145 0 -144 0 -142 0 -140 0 -140 0 -139 0 -138 0 -138 0 -138 0 -137 0 -138 0 -138 0 -139 0 -140 0 -141 0 -142 0 -143 0 -145 0 -148 0 -149 0 -152 0 -154 0 -157 0 -160 0 -163 0 -63 -21zm63 21c-35,0 -63,-9 -63,-21 0,-12 28,-22 63,-22l0 43zm64 -2395l0 2374 -127 0 0 -2374 63 -21 64 21zm-127 0c0,-12 28,-21 63,-21 36,0 64,9 64,21l-127 0zm4755 22l-4692 0 0 -43 4692 0 64 21 -64 22zm0 -43c35,0 64,9 64,21 0,12 -29,22 -64,22l0 -43z"/>
   </g>
   <g id="_630016809840">
    <path class="fil1 str0" d="M4188 3009l0 -69c0,-2 1,-4 2,-5 2,-2 4,-2 6,-2 1,0 3,0 5,2 1,1 2,3 2,5l0 138c0,3 -1,5 -2,6 -1,1 -3,2 -5,2 -2,0 -4,-1 -6,-2 -1,-1 -2,-3 -2,-6l0 -53 -46 0c-8,0 -16,-3 -22,-9 -6,-6 -9,-14 -9,-22l0 -54c0,-2 1,-4 3,-5 1,-2 3,-2 5,-2 2,0 4,0 5,2 2,1 3,3 3,5l0 54c0,4 1,8 4,11 1,1 3,2 5,3 2,1 4,1 6,1l46 0zm138 69c0,3 -1,5 -2,6 -2,1 -3,2 -6,2 -2,0 -4,-1 -5,-2 -2,-1 -2,-3 -2,-6l0 -130 -25 0 -37 132c0,2 -1,3 -3,4 -1,1 -3,2 -4,2 -3,0 -4,-1 -6,-2 -1,-1 -2,-3 -2,-5 0,-2 0,-2 0,-3l39 -138c1,-3 3,-5 7,-5l38 0c5,0 8,2 8,7l0 138zm46 -84l38 0c2,0 4,1 5,2 2,2 3,4 3,6 0,2 -1,3 -2,5 -1,1 -3,2 -6,2l-38 0 0 62 53 0c3,0 4,0 6,2 1,2 2,3 2,5 0,2 -1,4 -2,5 -1,2 -3,3 -6,3l-61 0c-5,0 -8,-3 -8,-7l0 -139c0,-5 3,-7 8,-7l61 0c3,0 4,0 6,2 1,2 2,3 2,5 0,2 -1,4 -2,5 -1,2 -3,3 -6,3l-53 0 0 46zm168 0l0 -54c0,-2 1,-4 2,-5 2,-2 4,-2 6,-2 2,0 3,0 5,2 2,1 2,3 2,5l0 138c0,2 0,4 -2,6 -2,1 -4,2 -5,2 -2,0 -4,-1 -6,-2 -1,-1 -2,-3 -2,-6l0 -69 -61 0 0 69c0,3 -1,5 -2,6 -2,1 -4,2 -6,2 -2,0 -4,-1 -5,-2 -2,-1 -2,-3 -2,-6l0 -138c0,-2 0,-4 2,-5 1,-2 3,-2 5,-2 2,0 4,0 5,2 2,1 3,3 3,5l0 54 61 0zm215 31l-46 0c-9,0 -16,-3 -22,-9 -6,-6 -9,-14 -9,-22l0 -54c0,-2 1,-4 2,-5 2,-2 3,-2 6,-2 1,0 3,0 5,2 1,1 2,3 2,5l0 54c0,4 2,8 4,11 2,1 4,2 5,3 3,1 5,1 6,1l47 0 0 -69c0,-2 0,-4 2,-5 1,-2 3,-2 5,-2 2,0 4,0 5,2 2,1 3,3 3,5l0 115c0,9 -3,16 -9,22 -6,6 -13,9 -22,9l-38 0c-2,0 -4,-1 -6,-2 -1,-2 -2,-4 -2,-6 0,-2 1,-3 2,-5 2,-2 3,-2 6,-2l38 0c4,0 8,-2 11,-5 3,-2 5,-6 5,-11l0 -30zm122 -16l0 -69c0,-2 1,-4 2,-5 2,-2 4,-2 6,-2 2,0 3,0 5,2 1,1 2,3 2,5l0 138c0,3 0,5 -2,6 -1,1 -3,2 -5,2 -2,0 -4,-1 -6,-2 -1,-1 -2,-3 -2,-6l0 -53 -46 0c-8,0 -15,-3 -22,-9 -6,-6 -9,-14 -9,-22l0 -54c0,-2 1,-4 3,-5 1,-2 3,-2 5,-2 2,0 4,0 5,2 2,1 3,3 3,5l0 54c0,4 1,8 4,11 2,1 3,2 5,3 2,1 4,1 6,1l46 0zm73 39l-11 33c-1,1 -2,3 -3,4 -1,0 -3,1 -4,1 -2,0 -4,-1 -6,-2 -1,-2 -2,-3 -2,-6l0 -2 46 -138c2,-4 4,-7 8,-7 3,0 5,3 7,7l46 138 0 2c0,2 -1,4 -2,6 -2,1 -4,2 -6,2 -1,0 -2,0 -3,-1 -1,0 -3,-2 -4,-4l-11 -33 -55 0zm50 -16l-22 -68 -23 68 45 0zm130 54l-39 0c-8,0 -15,-3 -21,-9 -6,-6 -9,-13 -9,-22l0 -92c0,-8 3,-15 9,-21 6,-6 13,-9 21,-9l39 0c2,0 4,0 5,2 2,2 2,3 2,5 0,2 0,4 -2,5 -1,2 -3,3 -5,3l-39 0c-4,0 -8,1 -11,4 -1,2 -2,3 -3,5 -1,2 -1,4 -1,6l0 92c0,5 1,8 4,11 2,2 4,3 5,4 2,0 4,1 6,1l39 0c2,0 4,0 5,2 2,2 2,3 2,5 0,2 0,4 -2,5 -1,2 -3,3 -5,3zm76 -138l-30 0c-3,0 -5,-1 -6,-2 -1,-2 -2,-4 -2,-6 0,-1 1,-3 2,-5 1,-2 3,-2 6,-2l76 0c2,0 4,0 5,2 2,2 3,3 3,5 0,2 -1,4 -2,5 -1,2 -3,3 -6,3l-31 0 0 130c0,3 0,5 -2,6 -1,1 -3,2 -5,2 -2,0 -4,-1 -6,-2 -1,-1 -2,-3 -2,-6l0 -130zm100 51l64 -64c2,-2 3,-2 5,-2 2,0 4,0 6,2 1,2 2,3 2,6 0,1 -1,3 -2,5l-46 45 47 83 1 4c0,2 0,4 -2,6 -2,1 -3,2 -6,2 -2,0 -4,-1 -6,-4l-45 -80 -18 18 0 58c0,3 -1,5 -3,6 -1,1 -3,2 -5,2 -2,0 -4,-1 -5,-2 -2,-1 -3,-3 -3,-6l0 -138c0,-2 1,-4 3,-5 1,-2 3,-2 5,-2 2,0 4,0 5,1 2,2 3,4 3,6l0 59zm191 56c0,9 -3,16 -9,22 -6,6 -13,9 -22,9l-30 0c-9,0 -16,-3 -22,-9 -6,-6 -9,-13 -9,-22l0 -92c0,-8 3,-15 9,-21 6,-6 13,-9 22,-9l30 0c9,0 16,3 22,9 6,6 9,13 9,21l0 92zm-15 0l0 -92c0,-4 -2,-8 -5,-11 -2,-3 -6,-4 -11,-4l-30 0c-5,0 -8,1 -11,4 -2,2 -3,3 -4,5 0,2 -1,4 -1,6l0 92c0,5 2,8 5,11 1,2 3,3 5,4 2,0 4,1 6,1l30 0c5,0 8,-2 11,-5 3,-2 5,-6 5,-11zm135 -57c4,3 8,7 11,12 2,4 4,9 4,15l0 30c0,9 -3,16 -9,22 -6,6 -13,9 -22,9l-53 0c-6,0 -8,-3 -8,-8l0 -138c0,-5 2,-7 8,-7l45 0c9,0 16,3 22,9 6,6 9,13 9,21l0 16c0,3 0,7 -2,10 -1,3 -2,6 -5,9zm-62 11l0 62 46 0c4,0 8,-2 11,-5 3,-2 4,-6 4,-11l0 -30c0,-5 -1,-8 -4,-11 -3,-3 -6,-5 -11,-5l-46 0zm39 -15c4,0 7,-1 10,-4 3,-3 5,-7 5,-11l0 -16c0,-4 -2,-8 -4,-11 -3,-3 -7,-4 -11,-4l-39 0 0 46 39 0zm160 61c0,9 -3,16 -9,22 -6,6 -13,9 -21,9l-31 0c-8,0 -16,-3 -22,-9 -6,-6 -9,-13 -9,-22l0 -92c0,-8 3,-15 9,-21 6,-6 13,-9 22,-9l31 0c8,0 15,3 21,9 6,6 9,13 9,21l0 92zm-15 0l0 -92c0,-4 -1,-8 -4,-11 -3,-3 -7,-4 -11,-4l-31 0c-4,0 -8,1 -11,4 -1,2 -3,3 -3,5 -1,2 -1,4 -1,6l0 92c0,5 1,8 4,11 2,2 3,3 5,4 2,0 4,1 6,1l31 0c4,0 7,-2 10,-5 3,-2 5,-6 5,-11zm119 -138l-30 0c-3,0 -5,0 -6,-2 -1,-1 -2,-3 -2,-5 0,-2 1,-4 2,-5 1,-2 3,-3 6,-3l30 0c2,0 4,1 6,3 1,1 2,3 2,5 0,2 -1,3 -2,5 -1,2 -3,2 -6,2zm31 161c0,3 -1,5 -2,6 -2,1 -3,2 -6,2 -2,0 -3,-1 -5,-2 -2,-1 -2,-3 -2,-6l0 -108 -62 112c-1,2 -2,3 -4,4l-1 1c-1,0 -2,0 -3,0 -1,0 -3,-1 -5,-2 -1,-2 -2,-4 -2,-7l0 -138c0,-2 1,-4 2,-5 2,-2 4,-2 6,-2 2,0 3,0 5,2 2,1 2,3 2,5l0 109 62 -112c1,-1 2,-3 4,-4 1,-1 3,-1 4,-1 2,0 3,0 5,2 1,2 2,4 2,6l0 138zm-2081 209c0,2 0,4 -2,5 -1,2 -3,2 -5,2 -2,0 -4,0 -5,-2 -2,-1 -3,-3 -3,-5l0 -109 -62 112c-1,2 -2,3 -3,4l-2 1c0,0 -1,0 -2,1 -2,0 -3,-1 -5,-3 -2,-1 -2,-3 -2,-6l0 -138c0,-2 0,-4 2,-6 1,-1 3,-2 5,-2 2,0 4,1 6,2 1,1 2,3 2,6l0 108 62 -112c1,-1 2,-2 3,-4 2,-1 3,-1 4,-1 2,0 4,1 5,2 2,2 2,4 2,7l0 138zm77 -69l-23 0c-2,0 -4,-1 -5,-3 -2,-1 -2,-3 -2,-5 0,-2 0,-4 2,-5 1,-2 3,-3 5,-3l23 0c4,0 8,-1 11,-4 3,-3 5,-6 5,-11l0 -15c0,-5 -2,-8 -5,-11 -3,-3 -6,-5 -11,-5l-15 0c-3,0 -6,1 -9,3 -3,2 -4,4 -6,8 0,1 -1,2 -2,3 -1,1 -1,2 -2,2l-3 0c-2,0 -4,0 -5,-2 -2,-1 -3,-3 -3,-5l1 -3c2,-6 5,-11 11,-15 5,-4 11,-6 18,-6l15 0c9,0 16,3 22,9 6,6 9,13 9,22l0 15c0,4 -1,9 -3,13 -2,4 -4,7 -8,10 7,6 11,13 11,23l0 31c0,8 -3,15 -9,21 -6,6 -13,9 -22,9l-15 0c-7,0 -13,-2 -18,-5 -5,-4 -9,-9 -11,-16l-1 -3c0,-2 1,-3 3,-5 1,-1 3,-2 5,-2 3,0 6,2 7,5 1,3 3,6 6,8 3,2 6,3 9,3l15 0c4,0 8,-1 11,-4 3,-3 5,-7 5,-11l0 -31c0,-5 -2,-8 -4,-11 -3,-3 -7,-4 -12,-4zm77 0l0 61 46 0c4,0 7,-1 10,-4 3,-3 5,-7 5,-11l0 -31c0,-4 -2,-8 -4,-11 -3,-3 -7,-4 -11,-4l-46 0zm0 -16l46 0c8,0 15,3 21,9 6,6 9,14 9,22l0 31c0,8 -3,15 -9,21 -6,6 -13,9 -21,9l-54 0c-5,0 -8,-2 -8,-7l0 -138c0,-5 3,-8 8,-8l61 0c2,0 4,1 6,2 1,2 2,4 2,6 0,1 -1,3 -2,5 -1,1 -3,2 -6,2l-53 0 0 46zm199 85c0,2 -1,4 -2,5 -2,2 -4,2 -6,2 -2,0 -4,0 -5,-2 -2,-1 -3,-3 -3,-5l0 -109 -62 112c-1,2 -2,3 -3,4l-2 1c0,0 -1,0 -2,1 -2,0 -3,-1 -5,-3 -1,-1 -2,-3 -2,-6l0 -138c0,-2 1,-4 2,-6 2,-1 3,-2 5,-2 2,0 4,1 6,2 1,1 2,3 2,6l0 108 62 -112c1,-1 2,-2 4,-4 1,-1 2,-1 4,-1 1,0 3,1 4,2 2,2 3,4 3,7l0 138zm46 -69l46 0c4,0 7,-2 10,-5 3,-2 5,-6 5,-11l0 -30c0,-5 -2,-8 -4,-11 -3,-3 -7,-5 -11,-5l-46 0 0 62zm0 15l0 54c0,2 -1,4 -3,5 -1,2 -3,2 -5,2 -2,0 -4,0 -5,-2 -2,-1 -3,-3 -3,-5l0 -138c0,-5 3,-8 8,-8l54 0c8,0 15,3 21,9 6,6 9,13 9,22l0 30c0,9 -3,16 -9,22 -6,6 -13,9 -21,9l-46 0zm118 23l-11 33c0,2 -1,3 -2,4 -1,1 -3,1 -5,1 -2,0 -3,-1 -5,-2 -2,-1 -3,-3 -3,-5l1 -3 46 -138c2,-4 4,-6 7,-6 4,0 6,2 7,6l46 138 1 3c0,2 -1,4 -3,5 -1,2 -3,2 -5,2 -1,0 -2,0 -3,-1 -2,0 -3,-2 -4,-4l-11 -33 -56 0zm51 -16l-23 -67 -22 67 45 0zm68 -84l-31 0c-2,0 -4,0 -5,-2 -2,-1 -2,-3 -2,-5 0,-2 0,-4 2,-5 1,-2 3,-3 5,-3l77 0c2,0 4,1 5,2 2,2 3,4 3,6 0,1 -1,3 -2,5 -2,1 -4,2 -6,2l-31 0 0 131c0,2 0,4 -2,5 -1,2 -3,2 -5,2 -2,0 -4,0 -6,-2 -1,-1 -2,-3 -2,-5l0 -131zm99 46l39 0c2,0 4,1 5,3 2,1 3,3 3,5 0,2 -1,4 -2,5 -2,2 -3,3 -6,3l-39 0 0 61 54 0c2,0 4,1 6,2 1,2 2,4 2,6 0,1 -1,3 -2,5 -1,1 -3,2 -6,2l-61 0c-5,0 -8,-2 -8,-7l0 -138c0,-5 3,-8 8,-8l61 0c2,0 4,1 6,2 1,2 2,4 2,6 0,1 -1,3 -2,5 -1,1 -3,2 -6,2l-54 0 0 46zm184 85c0,2 0,4 -2,5 -1,2 -3,2 -5,2 -2,0 -4,0 -5,-2 -2,-1 -3,-3 -3,-5l0 -131 -25 0 -36 133c-1,1 -2,2 -3,4 -1,1 -3,1 -5,1 -2,0 -4,0 -5,-2 -2,-1 -3,-3 -3,-5 0,-1 1,-2 1,-2l38 -138c1,-4 4,-6 7,-6l39 0c5,0 7,3 7,8l0 138zm46 -69l46 0c5,0 8,1 11,4 3,3 5,7 5,11l0 31c0,4 -2,8 -5,11 -1,1 -3,2 -5,3 -2,1 -4,1 -6,1l-46 0 0 -61zm0 -16l0 -53c0,-2 -1,-4 -2,-6 -2,-1 -4,-2 -5,-2 -2,0 -4,1 -6,2 -1,1 -2,3 -2,6l0 138c0,5 2,7 8,7l53 0c8,0 16,-3 22,-9 6,-6 9,-13 9,-21l0 -31c0,-8 -3,-16 -9,-22 -6,-6 -13,-9 -22,-9l-46 0zm184 0l0 -53c0,-2 1,-4 2,-6 2,-1 4,-2 6,-2 2,0 3,1 5,2 1,1 2,3 2,6l0 137c0,3 -1,5 -2,6 -2,2 -4,2 -5,2 -2,0 -4,0 -6,-2 -1,-1 -2,-3 -2,-5l0 -69 -61 0 0 69c0,2 -1,4 -3,5 -1,2 -3,2 -5,2 -2,0 -4,0 -5,-2 -2,-1 -3,-3 -3,-5l0 -138c0,-2 1,-4 3,-6 1,-1 3,-2 5,-2 2,0 4,1 5,2 2,1 3,3 3,6l0 53 61 0zm138 62c0,8 -3,15 -9,21 -6,6 -13,9 -22,9l-30 0c-9,0 -16,-3 -22,-9 -6,-6 -9,-13 -9,-21l0 -92c0,-9 3,-16 9,-22 6,-6 13,-9 22,-9l30 0c9,0 16,3 22,9 6,6 9,13 9,22l0 92zm-15 0l0 -92c0,-5 -2,-8 -5,-11 -3,-3 -6,-5 -11,-5l-31 0c-4,0 -7,2 -11,5 -1,1 -2,3 -3,5 0,1 -1,3 -1,6l0 92c0,4 2,8 4,11 2,1 4,2 5,3 3,1 5,1 6,1l31 0c4,0 8,-1 11,-4 3,-3 5,-7 5,-11zm119 -138l-31 0c-2,0 -4,-1 -5,-2 -2,-2 -2,-4 -2,-6 0,-2 0,-3 2,-5 1,-2 3,-2 5,-2l31 0c2,0 4,0 5,2 2,1 3,3 3,5 0,2 -1,4 -2,5 -2,2 -4,3 -6,3zm30 161c0,2 0,4 -2,5 -1,2 -3,2 -5,2 -2,0 -4,0 -5,-2 -2,-1 -3,-3 -3,-5l0 -109 -62 112c-1,2 -2,3 -3,4l-2 1c0,0 -1,0 -2,1 -2,0 -3,-1 -5,-3 -2,-1 -2,-3 -2,-6l0 -138c0,-2 0,-4 2,-6 1,-1 3,-2 5,-2 2,0 4,1 6,2 1,1 2,3 2,6l0 108 62 -112c1,-1 2,-2 3,-4 2,-1 3,-1 4,-1 2,0 4,1 5,2 2,2 2,4 2,7l0 138zm138 -80l65 -64c1,-1 3,-2 5,-2 2,0 4,1 5,2 2,2 3,4 3,6 0,1 -1,3 -2,5l-46 46 47 83 1 4c0,2 -1,3 -2,5 -2,1 -4,2 -6,2 -2,0 -5,-1 -6,-4l-45 -80 -19 18 0 59c0,2 0,4 -2,5 -1,2 -3,2 -5,2 -2,0 -4,0 -6,-2 -1,-1 -2,-3 -2,-5l0 -139c0,-1 1,-3 2,-5 2,-1 4,-2 6,-2 2,0 3,1 5,2 2,1 2,3 2,5l0 59zm192 57c0,8 -3,15 -9,21 -6,6 -14,9 -22,9l-31 0c-8,0 -15,-3 -21,-9 -6,-6 -9,-13 -9,-21l0 -92c0,-9 3,-16 9,-22 6,-6 13,-9 21,-9l31 0c9,0 16,3 22,9 6,6 9,13 9,22l0 92zm-16 0l0 -92c0,-5 -1,-8 -4,-11 -3,-3 -7,-5 -11,-5l-31 0c-4,0 -8,2 -11,5 -1,1 -2,3 -3,5 -1,1 -1,3 -1,6l0 92c0,4 1,8 4,11 2,1 4,2 5,3 2,1 5,1 6,1l31 0c4,0 8,-1 11,-4 3,-3 4,-7 4,-11zm166 23c0,2 -1,4 -2,5 -2,2 -4,2 -6,2 -2,0 -3,0 -5,-2 -2,-1 -2,-3 -2,-5l0 -110 -32 53c-2,3 -4,5 -7,5 -2,0 -4,-2 -6,-5l-32 -53 0 110c0,2 -1,4 -2,5 -2,2 -4,2 -6,2 -2,0 -4,0 -5,-2 -2,-1 -2,-3 -2,-5l0 -138c0,-2 0,-5 2,-6 1,-2 3,-2 5,-2 1,0 2,0 3,1 1,0 2,2 4,4l39 65 40 -65c1,-4 4,-5 7,-5 2,0 3,0 5,2 1,2 2,4 2,6l0 138z"/>
    <path class="fil1 str0" d="M5831 3287c0,2 -1,4 -2,5 -1,2 -3,2 -5,2 -2,0 -4,0 -6,-2 -1,-1 -2,-3 -2,-5l0 -109 -62 112c-1,2 -2,3 -4,4l-1 1c-1,0 -2,0 -3,1 -1,0 -3,-1 -5,-3 -1,-1 -2,-3 -2,-6l0 -138c0,-2 1,-4 3,-6 1,-1 3,-2 5,-2 2,0 4,1 5,2 2,1 3,3 3,6l0 108 62 -112c0,-1 2,-2 3,-4 1,-1 3,-1 4,-1 2,0 3,1 5,2 1,2 2,4 2,7l0 138zm100 7l-39 0c-8,0 -15,-3 -21,-9 -6,-6 -9,-13 -9,-21l0 -92c0,-9 3,-16 9,-22 6,-6 13,-9 21,-9l39 0c2,0 4,1 5,2 2,2 2,4 2,6 0,1 0,3 -1,5 -2,1 -4,2 -6,2l-39 0c-4,0 -8,2 -11,5 -1,1 -2,3 -3,5 -1,1 -1,3 -1,6l0 92c0,4 1,8 4,11 2,1 4,2 5,3 3,1 5,1 6,1l39 0c2,0 4,1 5,2 2,2 2,4 2,6 0,1 0,3 -1,5 -2,1 -4,2 -6,2zm100 0l-38 0c-9,0 -16,-3 -22,-9 -6,-6 -9,-13 -9,-21l0 -92c0,-9 3,-16 9,-22 6,-6 13,-9 22,-9l38 0c2,0 4,1 6,2 1,2 2,4 2,6 0,1 -1,3 -2,5 -1,1 -3,2 -6,2l-38 0c-5,0 -8,2 -11,5 -2,1 -3,3 -4,5 0,1 -1,3 -1,6l0 92c0,4 2,8 5,11 1,1 3,2 5,3 2,1 4,1 6,1l38 0c2,0 4,1 6,2 1,2 2,4 2,6 0,1 -1,3 -2,5 -1,1 -3,2 -6,2zm130 -7c0,2 -1,4 -2,5 -1,2 -3,2 -5,2 -3,0 -4,0 -6,-2 -1,-1 -2,-3 -2,-5l0 -109 -62 112c-1,2 -2,3 -4,4l-1 1c-1,0 -2,0 -3,1 -1,0 -3,-1 -5,-3 -1,-1 -2,-3 -2,-6l0 -138c0,-2 1,-4 3,-6 1,-1 3,-2 5,-2 2,0 4,1 5,2 2,1 3,3 3,6l0 108 62 -112c0,-1 2,-2 3,-4 1,-1 3,-1 4,-1 2,0 3,1 5,2 1,2 2,4 2,7l0 138zm123 0c0,2 -1,4 -3,5 -1,2 -3,2 -5,2 -2,0 -4,0 -5,-2 -2,-1 -3,-3 -3,-5l0 -109 -62 112c-1,2 -2,3 -3,4l-2 1c0,0 -1,0 -2,1 -2,0 -3,-1 -5,-3 -2,-1 -2,-3 -2,-6l0 -138c0,-2 1,-4 2,-6 2,-1 3,-2 5,-2 2,0 4,1 6,2 1,1 2,3 2,6l0 108 62 -112c1,-1 2,-2 3,-4 2,-1 3,-1 5,-1 1,0 3,1 4,2 2,2 3,4 3,7l0 138z"/>
   </g>
   <path class="fil1 str0" d="M3754 3646l-38 0c-8,0 -16,-3 -22,-9 -6,-6 -9,-13 -9,-22l0 -92c0,-8 3,-16 9,-22 6,-5 13,-8 22,-8l38 0c2,0 4,0 6,2 1,1 2,3 2,5 0,2 -1,4 -2,5 -1,2 -3,3 -6,3l-38 0c-4,0 -8,1 -11,4 -2,2 -3,3 -3,5 -1,2 -2,4 -2,6l0 92c0,4 2,8 5,11 1,1 3,3 5,3 2,1 4,2 6,2l38 0c2,0 4,0 6,2 1,1 2,3 2,5 0,2 -1,4 -2,5 -1,2 -3,3 -6,3zm222 -8c0,2 -1,4 -2,6 -1,1 -3,2 -5,2 -2,0 -4,-1 -6,-2 -1,-1 -2,-3 -2,-6l0 -130 -61 0 0 130c0,2 -1,4 -3,6 -1,1 -3,2 -5,2 -2,0 -4,-1 -5,-2 -2,-1 -3,-3 -3,-6l0 -138c0,-5 3,-7 8,-7l77 0c5,0 7,2 7,7l0 138zm46 -69l46 0c4,0 8,-1 11,-4 3,-3 4,-7 4,-11l0 -31c0,-4 -1,-8 -4,-11 -3,-3 -6,-4 -11,-4l-46 0 0 61zm0 15l0 54c0,2 -1,4 -2,6 -1,1 -3,2 -6,2 -2,0 -3,-1 -5,-2 -1,-1 -2,-3 -2,-6l0 -138c0,-5 2,-7 7,-7l54 0c9,0 16,3 22,8 6,6 9,14 9,22l0 31c0,8 -3,15 -9,21 -6,6 -14,9 -22,9l-46 0zm119 23l-11 33c-1,2 -2,3 -3,4 -1,1 -2,2 -4,2 -2,0 -4,-1 -6,-2 -1,-2 -2,-4 -2,-6l1 -2 46 -138c1,-5 4,-7 7,-7 3,0 5,2 7,7l46 138 0 2c0,2 0,4 -2,6 -2,1 -4,2 -5,2 -2,0 -3,-1 -4,-1 -1,-1 -2,-2 -3,-5l-12 -33 -55 0zm50 -15l-22 -68 -23 68 45 0zm138 -34c4,3 8,7 11,11 2,5 4,10 4,15l0 31c0,8 -3,16 -9,22 -6,6 -14,9 -22,9l-54 0c-5,0 -7,-3 -7,-8l0 -138c0,-5 2,-7 7,-7l46 0c9,0 16,3 22,8 6,6 9,14 9,22l0 15c0,4 -1,7 -2,11 -1,3 -2,6 -5,9zm-62 11l0 62 46 0c4,0 8,-2 11,-5 3,-3 4,-6 4,-11l0 -31c0,-4 -1,-7 -4,-10 -3,-3 -6,-5 -11,-5l-46 0zm38 -15c5,0 8,-2 11,-4 3,-3 5,-7 5,-12l0 -15c0,-4 -2,-8 -5,-11 -2,-3 -6,-4 -11,-4l-38 0 0 46 38 0zm161 61c0,8 -3,16 -9,22 -6,6 -13,9 -21,9l-31 0c-8,0 -16,-3 -22,-9 -6,-6 -9,-13 -9,-22l0 -92c0,-8 3,-16 9,-22 6,-5 13,-8 22,-8l31 0c8,0 15,3 21,8 6,6 9,14 9,22l0 92zm-15 0l0 -92c0,-4 -2,-8 -4,-11 -3,-3 -7,-4 -11,-4l-31 0c-4,0 -8,1 -11,4 -2,2 -3,3 -3,5 -1,2 -1,4 -1,6l0 92c0,4 1,8 4,11 1,1 3,3 5,3 2,1 4,2 6,2l31 0c4,0 7,-2 10,-5 3,-3 5,-6 5,-11zm165 23c0,2 0,4 -2,6 -1,1 -3,2 -5,2 -2,0 -4,-1 -5,-2 -2,-1 -3,-3 -3,-6l0 -109 -32 53c-1,3 -4,5 -6,5 -2,0 -5,-2 -7,-5l-32 -53 0 109c0,2 0,4 -2,6 -1,1 -3,2 -5,2 -2,0 -4,-1 -6,-2 -1,-1 -2,-3 -2,-6l0 -137c0,-3 1,-5 2,-7 2,-1 3,-2 5,-2 1,0 3,0 4,1 1,1 2,2 3,4l40 66 39 -66c2,-3 4,-5 7,-5 2,0 4,1 5,2 2,2 2,4 2,7l0 137zm192 8l-39 0c-8,0 -15,-3 -21,-9 -6,-6 -9,-13 -9,-22l0 -92c0,-8 3,-16 9,-22 6,-5 13,-8 21,-8l39 0c2,0 4,0 5,2 2,1 2,3 2,5 0,2 0,4 -1,5 -2,2 -4,3 -6,3l-39 0c-4,0 -8,1 -11,4 -1,2 -2,3 -3,5 -1,2 -1,4 -1,6l0 92c0,4 1,8 4,11 2,1 4,3 5,3 2,1 5,2 6,2l39 0c2,0 4,0 5,2 2,1 2,3 2,5 0,2 0,4 -1,5 -2,2 -4,3 -6,3zm123 -31c0,8 -3,16 -9,22 -6,6 -13,9 -22,9l-30 0c-9,0 -16,-3 -22,-9 -6,-6 -9,-13 -9,-22l0 -92c0,-8 3,-16 9,-22 6,-5 13,-8 22,-8l30 0c9,0 16,3 22,8 6,6 9,14 9,22l0 92zm-15 0l0 -92c0,-4 -2,-8 -5,-11 -3,-3 -6,-4 -11,-4l-30 0c-5,0 -8,1 -11,4 -2,2 -3,3 -4,5 0,2 -1,4 -1,6l0 92c0,4 2,8 5,11 1,1 3,3 5,3 2,1 4,2 6,2l30 0c5,0 8,-2 11,-5 3,-3 5,-6 5,-11zm135 -57c4,3 8,7 11,11 2,5 4,10 4,15l0 31c0,8 -3,16 -9,22 -6,6 -14,9 -22,9l-54 0c-5,0 -7,-3 -7,-8l0 -138c0,-5 2,-7 7,-7l46 0c9,0 16,3 22,8 6,6 9,14 9,22l0 15c0,4 -1,7 -2,11 -1,3 -3,6 -5,9zm-62 11l0 62 46 0c4,0 8,-2 11,-5 3,-3 4,-6 4,-11l0 -31c0,-4 -1,-7 -4,-10 -3,-3 -7,-5 -11,-5l-46 0zm38 -15c5,0 8,-2 11,-4 3,-3 5,-7 5,-12l0 -15c0,-4 -2,-8 -5,-11 -2,-3 -6,-4 -11,-4l-38 0 0 46 38 0zm85 0l38 0c2,0 4,1 5,2 2,2 3,4 3,6 0,1 -1,3 -2,5 -1,1 -3,2 -6,2l-38 0 0 62 53 0c2,0 4,0 6,2 1,1 2,3 2,5 0,2 -1,4 -2,5 -1,2 -3,3 -6,3l-61 0c-5,0 -8,-3 -8,-8l0 -138c0,-5 3,-7 8,-7l61 0c2,0 4,0 6,2 1,1 2,3 2,5 0,2 -1,4 -2,5 -1,2 -3,3 -6,3l-53 0 0 46zm214 92l-8 0 -107 0c-5,0 -8,-3 -8,-8l0 -138c0,-2 1,-4 3,-6 1,-1 3,-1 5,-1 2,0 4,0 5,1 2,2 3,4 3,6l0 131 38 0 0 -131c0,-2 1,-4 2,-6 2,-1 4,-1 6,-1 2,0 3,0 5,1 1,2 2,4 2,6l0 131 39 0 0 -131c0,-2 1,-4 2,-6 2,-1 3,-1 5,-1 2,0 4,0 6,1 1,2 2,4 2,6l0 131 8 0c5,0 7,2 7,7l0 23c0,2 -1,4 -2,6 -2,1 -3,2 -5,2 -2,0 -4,-1 -5,-2 -2,-1 -3,-3 -3,-6l0 -15zm73 -39l-11 33c-1,2 -2,3 -3,4 -1,1 -3,2 -4,2 -2,0 -4,-1 -6,-2 -1,-2 -2,-4 -2,-6l0 -2 46 -138c2,-5 4,-7 8,-7 3,0 5,2 7,7l46 138 0 2c0,2 -1,4 -2,6 -2,1 -4,2 -6,2 -1,0 -2,-1 -3,-1 -1,-1 -2,-2 -4,-5l-11 -33 -55 0zm50 -15l-22 -68 -23 68 45 0zm68 -84l-30 0c-3,0 -4,-1 -6,-2 -1,-2 -2,-4 -2,-6 0,-2 1,-3 2,-5 1,-2 3,-2 6,-2l76 0c2,0 4,0 6,2 1,1 2,3 2,5 0,2 -1,4 -2,5 -1,2 -3,3 -6,3l-30 0 0 130c0,2 -1,4 -3,6 -1,1 -3,2 -5,2 -2,0 -4,-1 -5,-2 -2,-1 -3,-3 -3,-6l0 -130zm100 46l38 0c3,0 4,1 6,2 1,2 2,4 2,6 0,1 -1,3 -2,5 -1,1 -3,2 -6,2l-38 0 0 62 54 0c2,0 4,0 5,2 2,1 2,3 2,5 0,2 0,4 -2,5 -1,2 -3,3 -5,3l-62 0c-5,0 -7,-3 -7,-8l0 -138c0,-5 2,-7 7,-7l62 0c2,0 4,0 5,2 2,1 2,3 2,5 0,2 0,4 -2,5 -1,2 -3,3 -5,3l-54 0 0 46zm184 84c0,2 -1,4 -2,6 -2,1 -3,2 -6,2 -2,0 -4,-1 -5,-2 -2,-1 -2,-3 -2,-6l0 -130 -25 0 -37 132c0,2 -1,3 -3,4 -1,1 -3,2 -4,2 -3,0 -4,-1 -6,-2 -1,-1 -2,-3 -2,-6 0,-1 0,-1 0,-2l39 -138c1,-4 3,-5 7,-5l38 0c5,0 8,2 8,7l0 138zm46 -69l46 0c4,0 8,2 10,4 3,3 5,7 5,12l0 30c0,4 -2,8 -4,11 -2,2 -4,3 -5,3 -2,1 -4,2 -6,2l-46 0 0 -62zm0 -15l0 -54c0,-2 -1,-4 -3,-5 -1,-2 -3,-2 -5,-2 -2,0 -4,0 -5,1 -2,2 -3,4 -3,6l0 138c0,5 3,8 8,8l54 0c8,0 15,-3 21,-9 6,-6 9,-13 9,-22l0 -31c0,-8 -3,-15 -9,-21 -6,-6 -13,-9 -21,-9l-46 0zm183 0l0 -54c0,-2 1,-4 3,-5 1,-2 3,-2 5,-2 2,0 4,0 5,1 2,2 3,4 3,6l0 138c0,2 -1,4 -3,6 -2,1 -3,2 -5,2 -2,0 -4,-1 -5,-2 -2,-1 -3,-3 -3,-6l0 -69 -61 0 0 69c0,2 -1,4 -2,6 -2,1 -3,2 -6,2 -2,0 -3,-1 -5,-2 -1,-1 -2,-3 -2,-6l0 -138c0,-2 1,-4 2,-5 2,-2 3,-2 5,-2 2,0 4,0 6,2 1,1 2,3 2,5l0 54 61 0zm138 61c0,8 -3,16 -9,22 -6,6 -13,9 -21,9l-31 0c-8,0 -16,-3 -22,-9 -6,-6 -9,-13 -9,-22l0 -92c0,-8 3,-16 9,-22 6,-5 13,-8 22,-8l31 0c8,0 15,3 21,8 6,6 9,14 9,22l0 92zm-15 0l0 -92c0,-4 -2,-8 -4,-11 -3,-3 -7,-4 -11,-4l-31 0c-4,0 -8,1 -11,4 -2,2 -3,3 -3,5 -1,2 -1,4 -1,6l0 92c0,4 1,8 4,11 1,1 3,3 5,3 2,1 4,2 6,2l31 0c4,0 7,-2 10,-5 3,-3 5,-6 5,-11zm127 -107l-54 0 0 130c0,2 0,4 -2,6 -1,1 -3,2 -5,2 -2,0 -4,-1 -6,-2 -1,-1 -2,-3 -2,-6l0 -138c0,-5 3,-7 8,-7l61 0c2,0 4,0 5,2 2,1 3,3 3,5 0,2 -1,4 -2,5 -2,2 -3,3 -6,3zm122 107c0,8 -3,16 -9,22 -6,6 -13,9 -21,9l-31 0c-8,0 -15,-3 -21,-9 -6,-6 -10,-13 -10,-22l0 -92c0,-8 3,-16 9,-22 6,-5 14,-8 22,-8l31 0c8,0 15,3 21,8 6,6 9,14 9,22l0 92zm-15 0l0 -92c0,-4 -1,-8 -4,-11 -3,-3 -7,-4 -11,-4l-31 0c-4,0 -8,1 -11,4 -1,2 -2,3 -3,5 -1,2 -1,4 -1,6l0 92c0,4 1,8 4,11 2,1 3,3 5,3 2,1 4,2 6,2l31 0c4,0 8,-2 11,-5 3,-3 4,-6 4,-11zm-1613 101l-54 0 0 130c0,3 -1,5 -2,6 -2,1 -3,2 -6,2 -2,0 -4,-1 -5,-2 -2,-1 -2,-3 -2,-6l0 -137c0,-6 2,-8 7,-8l62 0c2,0 4,1 5,2 2,2 2,4 2,5 0,2 0,4 -2,6 -1,1 -3,2 -5,2zm122 107c0,9 -3,16 -9,22 -6,6 -13,9 -22,9l-30 0c-9,0 -16,-3 -22,-9 -6,-6 -9,-13 -9,-22l0 -91c0,-9 3,-16 9,-22 6,-6 13,-9 22,-9l30 0c9,0 16,3 22,9 6,6 9,13 9,22l0 91zm-15 1l0 -93c0,-4 -2,-8 -5,-10 -2,-3 -6,-5 -11,-5l-30 0c-5,0 -8,2 -11,4 -2,2 -3,4 -4,5 0,2 -1,4 -1,6l0 93c0,4 2,7 5,10 1,2 3,3 5,4 2,0 4,1 6,1l30 0c5,0 8,-2 11,-4 3,-3 5,-7 5,-11zm135 22c0,3 -1,5 -3,6 -1,1 -3,2 -5,2 -2,0 -4,-1 -5,-2 -2,-1 -3,-3 -3,-6l0 -130 -25 0 -36 132c-1,2 -1,3 -3,4 -1,2 -3,2 -5,2 -2,0 -4,-1 -5,-2 -2,-1 -2,-3 -2,-5 0,-1 0,-2 0,-3l38 -137c1,-4 4,-6 8,-6l38 0c5,0 8,2 8,8l0 137zm122 -23c0,9 -3,16 -9,22 -6,6 -13,9 -22,9l-30 0c-9,0 -16,-3 -22,-9 -6,-6 -9,-13 -9,-22l0 -91c0,-9 3,-16 9,-22 6,-6 13,-9 22,-9l30 0c9,0 16,3 22,9 6,6 9,13 9,22l0 91zm-15 1l0 -93c0,-4 -2,-8 -5,-10 -3,-3 -6,-5 -11,-5l-30 0c-5,0 -8,2 -11,4 -2,2 -3,4 -4,5 0,2 -1,4 -1,6l0 93c0,4 2,7 5,10 1,2 3,3 5,4 2,0 4,1 6,1l30 0c5,0 8,-2 11,-4 3,-3 5,-7 5,-11zm127 30l-39 0c-8,0 -15,-3 -21,-9 -6,-6 -9,-13 -9,-22l0 -91c0,-9 3,-16 9,-22 6,-6 13,-9 21,-9l39 0c2,0 4,1 5,2 2,2 2,4 2,5 0,2 0,4 -1,6 -2,1 -4,2 -6,2l-39 0c-4,0 -8,2 -11,4 -1,2 -2,4 -3,5 -1,2 -1,4 -1,6l0 93c0,4 1,7 4,10 2,2 4,3 5,4 3,0 5,1 6,1l39 0c2,0 4,1 5,2 2,2 2,4 2,5 0,2 0,4 -1,6 -2,1 -4,2 -6,2zm65 -38l-11 33c-1,1 -2,3 -3,4 -1,0 -2,1 -4,1 -2,0 -4,-1 -6,-2 -1,-1 -2,-3 -2,-5l0 -3 47 -138c1,-4 3,-6 7,-6 3,0 5,2 7,6l46 138 0 3c0,2 0,3 -2,5 -2,1 -4,2 -6,2 -1,0 -2,0 -3,-1 -1,0 -2,-2 -4,-4l-11 -33 -55 0zm50 -16l-22 -67 -23 67 45 0z"/>
   <path class="fil3 str1" d="M5941 4451c0,44 31,52 71,44 79,-17 100,-222 78,-209 -31,19 -126,33 -127,98 -1,14 1,25 5,33 29,56 152,-20 207,-31 75,-16 14,-112 -67,-64 -18,10 -97,53 -105,71 -32,67 23,67 68,72 40,4 229,-77 225,-69 -1,1 -35,70 -14,56 35,-24 250,-54 142,-74 -31,-6 -147,-21 -175,-15"/>
   <path class="fil4" d="M7963 3778l-1004 0 29 -1160 1005 0 -30 1160z"/>
   <path class="fil5" d="M7630 3161c-8,71 -8,166 1,228 6,38 86,108 62,137 -37,46 -195,42 -230,42 -36,0 -164,1 -193,-47 -18,-28 53,-95 54,-132 1,-50 19,-135 7,-209 -7,-45 112,30 141,30 25,0 163,-93 158,-49z"/>
   <path class="fil5" d="M7315 3113c-1,17 -13,31 -28,31l-1 0c-15,0 -22,-6 -20,-71l-8 -42c0,-29 21,7 36,7l8 0c15,0 15,1 14,18l-1 57z"/>
   <path class="fil5" d="M7621 3113c0,17 12,31 27,31l0 0c15,0 22,-6 24,-71l10 -42c1,-29 -21,7 -36,7l-8 0c-16,0 -15,1 -15,18l-2 57z"/>
   <path class="fil6" d="M7631 3389c-9,-62 -9,-157 -1,-228 5,-44 -133,49 -158,49 -29,0 -148,-75 -141,-30 5,31 5,64 3,95l204 322c40,-6 140,-52 155,-71 24,-29 -56,-99 -62,-137z"/>
   <path class="fil5" d="M7340 2881c-36,34 -27,116 -29,172l-3 99c0,28 -3,61 7,85 17,44 63,88 104,105 16,6 30,-5 48,-5l11 -469c-41,-1 -109,-14 -138,13z"/>
   <path class="fil7" d="M7640 3053c2,-62 13,-144 -28,-178 -26,-21 -96,-7 -132,-7 0,0 -4,0 -4,0l-11 469c1,0 3,0 3,0 20,0 54,10 72,3 34,-37 59,-52 89,-98 11,-24 8,-62 9,-90l2 -99z"/>
   <path class="fil8" d="M7279 2868c-3,7 -6,14 -8,21 -9,31 -5,61 5,90 9,27 20,55 21,85 0,16 8,25 19,35 -2,-18 -4,-35 -4,-51 -1,-21 3,-41 18,-57 9,-9 12,-21 10,-34 0,-7 -1,-14 -1,-20 -3,-31 8,-50 35,-56 19,-5 39,-5 59,-5 45,0 90,2 134,3 5,0 9,0 13,0 19,2 31,15 32,37 1,7 1,16 -1,23 -8,25 -2,45 12,64 11,15 16,34 14,54 -1,14 -3,28 -5,42 2,0 3,1 4,1 4,-9 9,-18 11,-28 6,-23 10,-46 15,-69 9,-40 15,-80 10,-121 -5,-35 -26,-82 -64,-80 1,3 -21,17 -24,10 -8,-19 -34,-26 -54,-31 -39,-9 -78,-2 -117,-4 -100,-4 -129,81 -134,91z"/>
   <path class="fil9" d="M7563 3778l30 -123 42 -178c-5,19 -5,-90 -5,-90 -5,3 -167,117 -171,120 3,2 3,127 2,271l102 0z"/>
   <path class="fil9" d="M7366 3778l98 0c5,-148 10,-277 14,-280 -5,-3 -151,-110 -155,-113 0,0 -9,111 -13,92l33 178 23 123z"/>
   <path class="fil10" d="M7690 3529l-35 51 -11 -6 46 -45z"/>
   <path class="fil11" d="M7553 3778l408 0c-40,-110 -47,-169 -46,-213 1,-14 -142,-30 -235,-127l-51 -61c1,8 -28,193 -28,193l-48 208z"/>
   <path class="fil12" d="M7473 3496l-60 114 61 124 54 -126 -47 -112 -8 0z"/>
   <path class="fil10" d="M7324 3380l72 263 78 -147 -150 -116z"/>
   <path class="fil10" d="M7630 3380l-85 262 -70 -146 155 -116z"/>
   <path class="fil12" d="M7499 3778l-25 -219 -37 219 62 0z"/>
   <path class="fil13" d="M7693 3778l25 -57 -73 -42 95 -79 -55 -157 -56 -65 -78 400 142 0z"/>
   <path class="fil11" d="M7029 3778c-8,-93 -8,-165 -8,-165 -22,62 -42,117 -60,165l68 0z"/>
   <path class="fil11" d="M7378 3778l-25 -198c0,0 -29,-200 -28,-208l-36 49c-133,154 -258,118 -261,154 -1,7 -32,97 -59,203l409 0z"/>
   <path class="fil13" d="M7218 3721l22 57 143 0 -58 -405 -64 81 -59 146 91 80 -75 41z"/>
   <path class="fil3 str2" d="M6794 3231c282,-28 533,177 561,458 28,282 -177,533 -458,561 -282,28 -533,-177 -561,-459 -28,-281 177,-532 458,-560zm-327 449c27,-167 163,-303 340,-321 177,-17 338,88 397,247m20 194c-27,168 -163,304 -340,321 -177,18 -338,-88 -397,-247m375 111c-46,5 1,-42 -55,-37 -26,3 -78,66 -89,55 -12,-12 -45,-47 -38,-60 18,-28 26,-62 62,-75 -20,-20 -92,-8 -94,-41 0,-1 -130,-108 -56,-155 14,-9 -6,-54 9,-82 12,-23 193,29 190,1 -1,-12 -17,-44 -59,-56 -7,-2 42,-5 68,-12 6,-1 -8,-20 -6,-22 12,-6 13,-8 27,-9m472 196c0,0 -33,24 -13,32m-873 82c0,-19 34,-15 7,-42m464 224c46,-5 -9,-42 46,-47 26,-3 90,48 99,35 9,-14 35,-55 25,-66 -23,-24 -38,-56 -76,-61 16,-24 89,-26 84,-59 0,-1 107,-132 25,-163 -16,-6 -6,-54 -25,-78 -17,-21 -184,66 -187,38 -1,-12 8,-47 47,-66 6,-4 -42,3 -70,2 -5,-1 5,-22 2,-23 -12,-4 -14,-6 -27,-4"/>
   <path class="fil1 str0" d="M3976 4492c0,2 -1,4 -2,6 -2,1 -4,2 -6,2 -2,0 -4,-1 -5,-2 -2,-2 -3,-3 -3,-6l0 -130 -61 0 0 130c0,2 -1,4 -2,6 -1,1 -3,2 -6,2 -2,0 -3,-1 -5,-2 -1,-2 -2,-3 -2,-6l0 -138c0,-5 2,-8 7,-8l77 0c5,0 8,3 8,8l0 138zm46 -69l46 0c4,0 7,-1 10,-4 3,-3 5,-7 5,-11l0 -31c0,-4 -2,-8 -4,-11 -3,-3 -7,-4 -11,-4l-46 0 0 61zm0 15l0 54c0,2 -1,4 -3,6 -1,1 -3,2 -5,2 -2,0 -4,-1 -5,-2 -2,-2 -3,-3 -3,-6l0 -138c0,-5 3,-8 8,-8l54 0c8,0 15,3 21,9 6,6 9,14 9,22l0 31c0,8 -3,15 -9,21 -6,6 -13,9 -21,9l-46 0zm122 -30l39 0c2,0 4,1 5,2 2,2 2,3 2,5 0,2 0,4 -2,6 -1,1 -3,2 -5,2l-39 0 0 61 54 0c2,0 4,1 5,3 2,1 3,3 3,5 0,2 -1,4 -2,5 -2,2 -4,3 -6,3l-62 0c-5,0 -7,-3 -7,-8l0 -138c0,-5 2,-8 7,-8l62 0c2,0 4,1 5,3 2,1 3,3 3,5 0,2 -1,4 -2,5 -2,2 -4,3 -6,3l-54 0 0 46zm108 76l15 -131c0,-4 2,-7 7,-7l46 0c5,0 8,3 8,8l0 130 8 0c5,0 7,3 7,8l0 15c0,2 0,4 -2,6 -2,1 -3,2 -5,2 -2,0 -4,-1 -5,-2 -2,-1 -3,-3 -3,-6l0 -7 -77 0 0 7c0,2 -1,4 -2,6 -2,1 -3,2 -5,2 -2,0 -4,-1 -5,-2 -2,-1 -3,-3 -3,-6l0 -15c0,-5 3,-8 8,-8l8 0zm61 0l0 -122 -32 0 -14 122 46 0zm122 16l-38 0c-9,0 -16,-3 -22,-9 -6,-6 -9,-13 -9,-22l0 -92c0,-8 3,-16 9,-22 6,-6 13,-9 22,-9l38 0c2,0 4,1 5,3 2,1 3,3 3,5 0,2 -1,3 -2,5 -1,2 -3,3 -6,3l-38 0c-5,0 -8,1 -11,4 -2,2 -3,3 -4,5 0,2 -1,4 -1,6l0 92c0,4 2,8 5,11 1,1 3,2 5,3 2,1 4,1 6,1l38 0c2,0 4,1 5,3 2,1 3,3 3,5 0,2 -1,3 -2,5 -1,2 -3,3 -6,3zm53 -92l39 0c2,0 4,1 5,2 2,2 3,3 3,5 0,2 -1,4 -2,6 -1,1 -3,2 -6,2l-39 0 0 61 54 0c2,0 4,1 6,3 1,1 2,3 2,5 0,2 -1,4 -2,5 -1,2 -3,3 -6,3l-61 0c-5,0 -8,-3 -8,-8l0 -138c0,-5 3,-8 8,-8l61 0c2,0 4,1 6,3 1,1 2,3 2,5 0,2 -1,4 -2,5 -1,2 -3,3 -6,3l-54 0 0 46zm109 76l14 -131c0,-4 3,-7 8,-7l46 0c5,0 7,3 7,8l0 130 8 0c5,0 8,3 8,8l0 15c0,2 -1,4 -3,6 -1,1 -3,2 -5,2 -2,0 -3,-1 -5,-2 -2,-1 -2,-3 -2,-6l0 -7 -77 0 0 7c0,2 -1,4 -3,6 -1,1 -3,2 -5,2 -2,0 -3,-1 -5,-2 -2,-1 -3,-3 -3,-6l0 -15c0,-5 3,-8 8,-8l9 0zm60 0l0 -122 -31 0 -14 122 45 0zm88 -23l-11 33c-1,2 -1,3 -3,4 -1,1 -2,1 -4,2 -2,0 -4,-1 -5,-3 -2,-1 -3,-3 -3,-5l1 -3 46 -137c1,-5 4,-7 7,-7 3,0 6,2 7,7l46 137 1 3c0,2 -1,4 -3,6 -1,1 -3,2 -5,2 -1,0 -2,-1 -4,-1 -1,-1 -2,-2 -3,-5l-11 -33 -56 0zm51 -15l-23 -68 -23 68 46 0zm68 -84l-31 0c-2,0 -4,-1 -6,-2 -1,-2 -2,-4 -2,-6 0,-2 1,-3 2,-5 2,-2 4,-3 6,-3l77 0c2,0 4,1 5,3 2,1 2,3 2,5 0,2 0,3 -2,5 -1,2 -3,3 -5,3l-31 0 0 130c0,2 -1,4 -2,6 -2,1 -3,2 -6,2 -2,0 -3,-1 -5,-2 -1,-2 -2,-3 -2,-6l0 -130zm99 46l39 0c2,0 4,1 5,2 2,2 2,3 2,5 0,2 0,4 -2,6 -1,1 -3,2 -5,2l-39 0 0 61 54 0c2,0 4,1 5,3 2,1 3,3 3,5 0,2 -1,4 -2,5 -1,2 -3,3 -6,3l-61 0c-6,0 -8,-3 -8,-8l0 -138c0,-5 2,-8 8,-8l61 0c2,0 4,1 5,3 2,1 3,3 3,5 0,2 -1,4 -2,5 -1,2 -3,3 -6,3l-54 0 0 46zm184 84c0,2 0,4 -2,6 -1,1 -3,2 -5,2 -2,0 -4,-1 -6,-2 -1,-2 -2,-3 -2,-6l0 -130 -25 0 -37 132c0,2 -1,3 -2,4 -2,1 -3,2 -5,2 -2,0 -4,-1 -6,-2 -1,-2 -2,-3 -2,-6 0,-1 0,-2 1,-2l38 -138c1,-4 3,-6 7,-6l39 0c5,0 7,3 7,8l0 138zm46 -69l46 0c4,0 8,2 11,4 3,3 4,7 4,11l0 31c0,4 -1,8 -4,11 -2,2 -3,3 -5,3 -2,1 -4,1 -6,1l-46 0 0 -61zm0 -15l0 -54c0,-2 -1,-4 -2,-5 -2,-2 -4,-3 -6,-3 -1,0 -3,1 -5,2 -2,2 -2,4 -2,6l0 138c0,5 2,8 7,8l54 0c8,0 15,-3 21,-9 6,-6 9,-13 9,-22l0 -31c0,-8 -3,-15 -8,-21 -6,-6 -14,-9 -22,-9l-46 0zm237 -46l-30 0c-3,0 -5,-1 -6,-2 -1,-2 -2,-4 -2,-6 0,-2 1,-3 2,-5 1,-2 3,-3 6,-3l76 0c2,0 4,1 6,3 1,1 2,3 2,5 0,2 -1,3 -2,5 -1,2 -3,3 -6,3l-30 0 0 130c0,2 -1,4 -3,6 -1,1 -3,2 -5,2 -2,0 -4,-1 -5,-2 -2,-2 -3,-3 -3,-6l0 -130zm176 130c0,2 0,4 -2,6 -1,1 -3,2 -5,2 -2,0 -4,-1 -6,-2 -1,-2 -2,-3 -2,-6l0 -108 -62 112c-1,1 -2,2 -3,3l-2 1c-1,1 -1,1 -2,1 -2,0 -4,-1 -5,-2 -2,-2 -2,-4 -2,-7l0 -138c0,-2 0,-4 2,-6 1,-1 3,-1 5,-1 2,0 4,0 5,1 2,2 3,4 3,6l0 108 62 -111c1,-2 2,-3 3,-4 2,-1 3,-2 4,-2 2,0 4,1 5,3 2,1 2,3 2,6l0 138zm46 -79l65 -64c1,-2 3,-3 5,-3 2,0 4,1 5,3 2,1 3,3 3,5 0,2 -1,3 -2,5l-46 46 47 83 1 4c0,2 -1,4 -2,5 -2,2 -4,3 -6,3 -3,0 -5,-2 -7,-4l-44 -80 -19 18 0 58c0,2 0,4 -2,6 -1,1 -3,2 -5,2 -2,0 -4,-1 -6,-2 -1,-2 -2,-3 -2,-6l0 -138c0,-2 1,-4 2,-5 2,-2 4,-3 6,-3 2,0 3,1 5,2 2,1 2,3 2,6l0 59z"/>
   <path class="fil1 str0" d="M6703 4492c0,2 -1,4 -3,6 -1,1 -3,2 -5,2 -2,0 -4,-1 -5,-2 -2,-2 -3,-3 -3,-6l0 -130 -61 0 0 130c0,2 -1,4 -2,6 -2,1 -3,2 -6,2 -2,0 -3,-1 -5,-2 -2,-2 -2,-3 -2,-6l0 -138c0,-5 2,-8 7,-8l77 0c5,0 8,3 8,8l0 138zm45 -84l39 0c2,0 4,1 5,2 2,2 3,3 3,5 0,2 -1,4 -2,6 -2,1 -3,2 -6,2l-39 0 0 61 54 0c2,0 4,1 6,3 1,1 2,3 2,5 0,2 -1,4 -2,5 -1,2 -3,3 -6,3l-61 0c-5,0 -8,-3 -8,-8l0 -138c0,-5 3,-8 8,-8l61 0c2,0 4,1 6,3 1,1 2,3 2,5 0,2 -1,4 -2,5 -1,2 -3,3 -6,3l-54 0 0 46zm131 -46l-31 0c-2,0 -4,-1 -6,-2 -1,-2 -2,-4 -2,-6 0,-2 1,-3 2,-5 2,-2 4,-3 6,-3l77 0c2,0 4,1 5,3 2,1 2,3 2,5 0,2 0,3 -2,5 -1,2 -3,3 -5,3l-31 0 0 130c0,2 -1,4 -2,6 -2,1 -3,2 -6,2 -2,0 -3,-1 -5,-2 -2,-2 -2,-3 -2,-6l0 -130zm99 61l46 0c4,0 8,-1 11,-4 3,-3 5,-7 5,-11l0 -31c0,-4 -2,-8 -5,-11 -3,-3 -6,-4 -11,-4l-46 0 0 61zm0 15l0 54c0,2 -1,4 -2,6 -1,1 -3,2 -5,2 -2,0 -4,-1 -6,-2 -1,-2 -2,-3 -2,-6l0 -138c0,-5 2,-8 8,-8l53 0c9,0 16,3 22,9 6,6 9,14 9,22l0 31c0,8 -3,15 -9,21 -6,6 -13,9 -22,9l-46 0zm199 31c0,8 -3,16 -9,22 -6,6 -13,9 -21,9l-31 0c-8,0 -15,-3 -22,-9 -6,-6 -9,-13 -9,-22l0 -92c0,-8 3,-16 9,-22 6,-6 14,-9 22,-9l31 0c8,0 15,3 21,9 6,6 9,14 9,22l0 92zm-15 0l0 -92c0,-4 -1,-8 -4,-11 -3,-3 -7,-4 -11,-4l-31 0c-4,0 -8,1 -11,4 -1,2 -3,3 -3,5 -1,2 -1,4 -1,6l0 92c0,4 1,8 4,11 2,1 3,2 5,3 2,1 4,1 6,1l31 0c4,0 8,-1 11,-4 3,-3 4,-6 4,-11zm135 -57c5,3 8,7 11,11 3,5 4,10 4,15l0 31c0,8 -3,16 -9,22 -6,6 -13,9 -22,9l-53 0c-5,0 -8,-3 -8,-8l0 -138c0,-5 3,-8 8,-8l46 0c8,0 16,3 21,9 6,6 9,14 9,22l0 15c0,4 0,7 -1,11 -1,3 -3,6 -6,9zm-62 11l0 61 46 0c5,0 8,-1 11,-4 3,-3 5,-6 5,-11l0 -31c0,-4 -2,-8 -5,-11 -2,-2 -6,-4 -11,-4l-46 0zm39 -15c4,0 8,-2 11,-5 3,-2 4,-6 4,-11l0 -15c0,-4 -1,-8 -4,-11 -3,-3 -7,-4 -11,-4l-39 0 0 46 39 0zm187 53l-11 33c0,2 -1,3 -2,4 -1,1 -3,1 -5,2 -2,0 -3,-1 -5,-3 -2,-1 -2,-3 -2,-5l0 -3 46 -137c2,-5 4,-7 7,-7 4,0 6,2 8,7l45 137 1 3c0,2 -1,4 -3,6 -1,1 -3,2 -5,2 -1,0 -2,-1 -3,-1 -2,-1 -3,-2 -4,-5l-11 -33 -56 0zm51 -15l-23 -68 -22 68 45 0zm60 46c0,-2 1,-4 3,-5 1,-2 3,-3 5,-3 2,0 3,1 5,3 2,1 3,3 3,5 0,2 -1,4 -3,5 -1,2 -3,3 -5,3 -2,0 -4,-1 -6,-3 -1,-1 -2,-3 -2,-5zm138 0c0,2 -1,4 -2,6 -1,1 -3,2 -5,2 -3,0 -4,-1 -6,-2 -1,-2 -2,-3 -2,-6l0 -130 -61 0 0 130c0,2 -1,4 -3,6 -1,1 -3,2 -5,2 -2,0 -4,-1 -5,-2 -2,-2 -3,-3 -3,-6l0 -138c0,-5 3,-8 8,-8l76 0c6,0 8,3 8,8l0 138zm31 0c0,-2 1,-4 2,-5 2,-2 3,-3 5,-3 2,0 4,1 5,3 2,1 3,3 3,5 0,2 -1,4 -2,5 -2,2 -4,3 -6,3 -2,0 -4,-1 -5,-3 -2,-1 -2,-3 -2,-5z"/>
  </g>
 </g>
</svg>
