<?xml version="1.0" encoding="UTF-8"?>
<!DOCTYPE svg PUBLIC "-//W3C//DTD SVG 1.1//EN" "http://www.w3.org/Graphics/SVG/1.1/DTD/svg11.dtd">
<!-- Creator: CorelDRAW X6 -->
<svg xmlns="http://www.w3.org/2000/svg" xml:space="preserve" width="200mm" height="200mm" version="1.1" style="shape-rendering:geometricPrecision; text-rendering:geometricPrecision; image-rendering:optimizeQuality; fill-rule:evenodd; clip-rule:evenodd"
viewBox="0 0 20000 20000"
 xmlns:xlink="http://www.w3.org/1999/xlink">
 <defs>
  <style type="text/css">
   <![CDATA[
    .str2 {stroke:#806350;stroke-width:12.73}
    .str0 {stroke:#024541;stroke-width:14.52}
    .str6 {stroke:#CC7588;stroke-width:14.52}
    .str5 {stroke:#806350;stroke-width:30.27}
    .str4 {stroke:#CC7588;stroke-width:32.31}
    .str3 {stroke:#AB8082;stroke-width:161.1;stroke-linecap:round;stroke-linejoin:round}
    .str1 {stroke:#B59A8B;stroke-width:161.1}
    .fil7 {fill:none}
    .fil4 {fill:none;fill-rule:nonzero}
    .fil8 {fill:#CC7588}
    .fil6 {fill:#FFF7B3}
    .fil5 {fill:#FFFADB}
    .fil1 {fill:#024541;fill-rule:nonzero}
    .fil10 {fill:#CC7588;fill-rule:nonzero}
    .fil3 {fill:#806350;fill-rule:nonzero}
    .fil9 {fill:#A37D66;fill-rule:nonzero}
    .fil2 {fill:#FFFADB;fill-rule:nonzero}
    .fil0 {fill:url(#id0)}
   ]]>
  </style>
  <radialGradient id="id0" gradientUnits="objectBoundingBox" cx="50%" cy="50%" r="50%" fx="50%" fy="50%">
   <stop offset="0" style="stop-color:#FEFEFE"/>
   <stop offset="0.458824" style="stop-color:#FEFEFE"/>
   <stop offset="1" style="stop-color:#D1E2F2"/>
  </radialGradient>
 </defs>
 <g id="Layer_x0020_1">
  <metadata id="CorelCorpID_0Corel-Layer"/>
  <g id="_729719792">
   <polygon class="fil0" points="0,0 20000,0 20000,20000 0,20000 "/>
   <path class="fil1 str0" d="M9373 17051l0 297c0,12 7,24 24,24 17,0 24,-11 24,-24l0 -320c0,-12 -8,-24 -24,-24l-174 0c-17,0 -24,11 -24,24l0 320c0,12 8,24 24,24 17,0 24,-11 24,-24l0 -297 126 0zm318 316c12,0 23,-7 23,-23 0,-16 -11,-23 -23,-23l-142 0 0 -116 117 0c12,0 23,-7 23,-23 0,-16 -11,-23 -23,-23l-117 0 0 -106 142 0c12,0 23,-7 23,-23 0,-16 -11,-23 -23,-23l-167 0c-17,0 -24,11 -24,24l0 315c0,12 7,24 24,24l167 0zm129 -187l0 -129 81 0c36,0 51,18 51,49l0 26c0,32 -15,54 -51,54l-81 0zm81 47c67,0 99,-43 99,-100l0 -26c0,-58 -33,-95 -99,-95l-106 0c-17,0 -24,11 -24,24l0 320c0,12 7,24 24,24 17,0 24,-11 24,-24l0 -122 81 0zm209 -21l85 0c36,0 50,23 50,55l0 11c0,31 -14,49 -50,49l-85 0 0 -115zm0 -46l0 -109 63 0c35,0 50,12 50,43l0 12c0,31 -15,53 -50,53l-63 0zm183 100c0,-43 -19,-73 -57,-85 23,-14 35,-37 35,-68l0 -12c0,-58 -33,-90 -98,-90l-86 0c-18,0 -25,11 -25,24l0 315c0,12 7,24 25,24l109 0c66,0 98,-37 98,-95l0 -11zm368 88l0 -325c0,-12 -7,-24 -24,-24 -17,0 -24,11 -24,24l0 325c0,12 7,24 24,24 17,0 24,-11 24,-24zm-192 -203l-64 0 0 -122c0,-12 -7,-24 -24,-24 -17,0 -24,11 -24,24l0 320c0,12 7,24 25,24l88 0c67,0 99,-43 99,-100l0 -23c0,-58 -31,-98 -99,-98zm51 127c0,31 -14,49 -50,49l-65 0 0 -129 64 0c36,0 51,18 51,49l0 31 0 0zm338 -300c47,0 72,-34 72,-69 0,-11 -8,-18 -19,-18 -11,0 -18,7 -19,19 -2,19 -14,33 -34,33 -20,0 -32,-14 -34,-33 -1,-11 -8,-19 -19,-19 -11,0 -19,7 -19,18 0,36 25,69 72,69zm68 376c0,12 7,24 23,24 18,0 24,-11 24,-24l0 -325c0,-12 -7,-24 -25,-24 -10,0 -17,4 -24,18l-138 246 -1 0c1,-9 2,-22 2,-36l0 -204c0,-12 -7,-24 -23,-24 -18,0 -24,11 -24,24l0 325c0,12 7,24 25,24 10,0 17,-4 24,-18l138 -246 1 0c-1,9 -2,22 -2,36l0 204zm390 -349l-52 0c-53,0 -89,26 -89,77 0,12 7,24 25,24 17,0 22,-11 24,-24 3,-21 22,-31 44,-31l48 0c38,0 47,23 47,57l0 54 -86 0c-12,0 -23,8 -23,23 0,17 11,23 23,23l86 0 0 68c0,32 -9,53 -50,53l-48 0c-20,0 -39,-9 -41,-31 -1,-12 -7,-24 -24,-24 -18,0 -25,11 -25,24 0,49 37,77 90,77l52 0c66,0 95,-42 95,-99l0 -170c0,-57 -26,-104 -95,-104zm400 334l-111 -158 106 -137c9,-12 9,-25 -1,-34 -12,-11 -27,-6 -36,5l-109 148 -31 0 0 -134c0,-12 -7,-24 -24,-24 -18,0 -25,11 -25,24l0 325c0,12 7,24 25,24 17,0 24,-11 24,-24l0 -144 32 0 111 158c7,10 20,16 34,7 15,-10 13,-24 6,-35zm212 -239c0,31 -22,60 -57,60l-19 0c-12,0 -23,8 -23,23 0,17 11,23 23,23l38 0c36,0 50,28 50,60l0 12c0,32 -11,53 -50,53l-39 0c-20,0 -39,-9 -41,-31 -1,-12 -7,-24 -24,-24 -18,0 -25,11 -25,24 0,49 37,77 90,77l43 0c63,0 95,-43 95,-100l0 -12c0,-43 -20,-80 -60,-90 35,-16 48,-44 48,-76 0,-57 -28,-95 -97,-95l-23 0c-53,0 -89,26 -89,77 0,12 7,24 25,24 17,0 23,-11 24,-24 1,-21 22,-31 44,-31l19 0c35,0 48,15 48,49zm315 272c12,0 23,-7 23,-23 0,-16 -11,-23 -23,-23l-142 0 0 -116 117 0c12,0 23,-7 23,-23 0,-16 -11,-23 -23,-23l-117 0 0 -106 142 0c12,0 23,-7 23,-23 0,-16 -11,-23 -23,-23l-167 0c-17,0 -24,11 -24,24l0 315c0,12 7,24 24,24l167 0zm222 -162c-3,-10 -7,-20 -12,-30l-81 -159c-7,-15 -13,-18 -24,-18 -17,0 -24,11 -24,24l0 325c0,12 7,24 24,24 17,0 24,-11 24,-24l0 -200c0,-14 -1,-26 -2,-36l1 0 74 144c4,7 9,12 21,12 12,0 18,-5 21,-12l74 -144 1 0c-1,9 -2,22 -2,36l0 200c0,12 7,24 24,24 17,0 24,-11 24,-24l0 -325c0,-12 -7,-24 -24,-24 -11,0 -17,3 -24,18l-81 159c-5,10 -9,20 -12,30zm394 -154l0 297c0,12 7,24 24,24 17,0 24,-11 24,-24l0 -320c0,-12 -8,-24 -24,-24l-174 0c-17,0 -24,11 -24,24l0 320c0,12 8,24 24,24 17,0 24,-11 24,-24l0 -297 126 0zm200 251c4,-30 31,-251 31,-251l91 0 0 297c0,12 7,24 25,24 17,0 24,-11 24,-24l0 -320c0,-12 -7,-24 -24,-24l-135 0c-15,0 -23,10 -25,24 -2,15 -30,241 -32,261 -2,12 -3,20 -6,25 -5,10 -14,12 -29,12 -12,0 -24,8 -24,24 0,18 11,23 24,23 45,0 64,-15 74,-40 4,-10 6,-19 7,-33zm231 -187c0,37 22,80 62,96 -4,6 -7,12 -12,26 0,0 -40,91 -46,103 -5,11 -2,25 14,31 16,6 26,-2 32,-13 5,-12 60,-139 60,-139l66 0 0 130c0,12 7,24 24,24 17,0 24,-11 24,-24l0 -320c0,-12 -7,-24 -24,-24l-99 0c-66,0 -100,41 -100,95l0 15zm98 57c-36,0 -50,-25 -50,-57l0 -15c0,-28 15,-49 51,-49l76 0 0 120 -77 0zm253 8l0 -129 81 0c36,0 51,18 51,49l0 26c0,32 -15,54 -51,54l-81 0zm81 47c67,0 99,-43 99,-100l0 -26c0,-58 -33,-95 -99,-95l-106 0c-17,0 -24,11 -24,24l0 320c0,12 7,24 24,24 17,0 24,-11 24,-24l0 -122 81 0z"/>
   <path class="fil2 str1" d="M10829 1782l0 8894c-2221,0 -3709,0 -5929,0l0 -8894 5929 0z"/>
   <path class="fil2 str1" d="M11545 2890l0 8894c-2221,0 -3709,0 -5929,0l0 -8894 5929 0z"/>
   <path class="fil3 str2" d="M6949 3537l0 -141 88 0c39,0 55,20 55,54l0 28c0,35 -16,59 -55,59l-88 0zm88 51c73,0 109,-48 109,-110l0 -28c0,-63 -36,-104 -109,-104l-115 0c-18,0 -26,12 -26,26l0 350c0,14 8,26 27,26 19,0 27,-12 27,-26l0 -134 88 0zm384 154c13,0 25,-7 25,-25 0,-17 -12,-25 -25,-25l-155 0 0 -127 128 0c13,0 25,-7 25,-25 0,-17 -12,-25 -25,-25l-128 0 0 -116 155 0c13,0 25,-7 25,-25 0,-17 -12,-25 -25,-25l-182 0c-18,0 -26,12 -26,26l0 344c0,14 8,26 26,26l182 0zm408 -402c-19,0 -27,12 -27,26l0 325 -94 0 0 -325c0,-14 -9,-26 -26,-26 -16,0 -24,13 -24,26l0 325 -94 0 0 -325c0,-14 -8,-26 -27,-26 -18,0 -26,12 -26,26l0 350c0,14 8,26 26,26l294 0c18,0 26,-12 26,-26l0 -350c0,-14 -8,-26 -26,-26zm320 402c13,0 25,-7 25,-25 0,-17 -12,-25 -25,-25l-155 0 0 -127 128 0c13,0 25,-7 25,-25 0,-17 -12,-25 -25,-25l-128 0 0 -116 155 0c13,0 25,-7 25,-25 0,-17 -12,-25 -25,-25l-182 0c-18,0 -26,12 -26,26l0 344c0,14 8,26 26,26l182 0zm343 -376c0,-14 -8,-26 -27,-26 -19,0 -27,12 -27,26l0 141 -149 0 0 -141c0,-14 -7,-26 -27,-26 -18,0 -27,12 -27,26l0 355c0,14 8,26 27,26 19,0 27,-12 27,-26l0 -164 149 0 0 164c0,14 7,26 27,26 18,0 27,-12 27,-26l0 -355zm289 355c0,14 7,26 25,26 19,0 27,-12 27,-26l0 -355c0,-14 -8,-26 -27,-26 -11,0 -18,4 -27,19l-151 269 -1 0c1,-10 2,-24 2,-39l0 -223c0,-14 -7,-26 -25,-26 -19,0 -27,12 -27,26l0 355c0,14 8,26 27,26 11,0 18,-4 27,-19l151 -269 1 0c-1,10 -2,24 -2,39l0 223zm346 20c13,0 25,-7 25,-25 0,-17 -12,-25 -25,-25l-155 0 0 -127 128 0c13,0 25,-7 25,-25 0,-17 -12,-25 -25,-25l-128 0 0 -116 155 0c13,0 25,-7 25,-25 0,-17 -12,-25 -25,-25l-182 0c-18,0 -26,12 -26,26l0 344c0,14 8,26 26,26l182 0zm463 -401c-18,-5 -28,6 -32,19 0,0 -27,107 -51,195 -4,0 -22,0 -41,0 -20,0 -31,-13 -34,-25 -7,-29 -45,-171 -45,-171 -3,-13 -14,-23 -32,-19 -19,5 -23,19 -20,32 0,0 33,127 43,164 10,39 28,67 96,67 8,0 18,-1 18,-1l2 0c-9,33 -18,58 -20,63 -7,18 -28,25 -44,25l-21 0c-15,0 -26,10 -26,27 0,18 12,27 26,27l21 0c37,0 72,-12 92,-57 9,-20 11,-25 18,-50 7,-25 71,-263 71,-263 3,-13 -1,-27 -19,-32zm276 380c0,14 7,26 25,26 19,0 27,-12 27,-26l0 -355c0,-14 -8,-26 -27,-26 -11,0 -18,4 -27,19l-151 269 -1 0c1,-10 2,-24 2,-39l0 -223c0,-14 -7,-26 -25,-26 -19,0 -27,12 -27,26l0 355c0,14 8,26 27,26 11,0 18,-4 27,-19l151 -269 1 0c-1,10 -2,24 -2,39l0 223zm390 -16l-122 -173 115 -150c10,-13 10,-27 -1,-37 -14,-12 -30,-6 -40,6l-119 161 -34 0 0 -147c0,-14 -8,-26 -26,-26 -19,0 -27,12 -27,26l0 355c0,14 8,26 27,26 18,0 26,-12 26,-26l0 -158 35 0 122 173c7,11 22,18 37,7 16,-11 15,-27 7,-38z"/>
   <path class="fil2 str1" d="M12262 3999l0 8894c-2221,0 -3709,0 -5929,0l0 -8894 5929 0z"/>
   <path class="fil3 str2" d="M8646 4816l-115 -186 102 -141c10,-13 10,-28 -2,-37 -14,-12 -30,-6 -39,7l-105 149 -19 0 0 -132c0,-14 -7,-26 -25,-26 -19,0 -26,12 -26,26l0 132 -20 0 -105 -149c-9,-12 -25,-19 -39,-7 -12,10 -12,24 -2,37l102 141 -115 186c-7,12 -7,27 10,37 15,9 29,2 36,-10l112 -186 22 0 0 172c0,14 7,26 26,26 18,0 25,-12 25,-26l0 -172 20 0 112 186c6,11 20,19 36,10 16,-10 16,-25 10,-37zm235 -77l32 99c5,14 18,22 33,16 15,-5 21,-19 16,-32l-114 -354c-4,-12 -11,-19 -27,-19l-3 0c-16,0 -23,7 -27,19l-114 354c-5,14 2,27 16,32 15,5 28,-3 33,-16l32 -99 123 0zm-70 -171c4,-12 6,-19 8,-32l1 0c3,14 5,20 8,32l38 123 -94 0 38 -123zm282 211c4,-32 33,-274 33,-274l99 0 0 325c0,14 8,26 27,26 18,0 26,-12 26,-26l0 -350c0,-14 -8,-26 -26,-26l-148 0c-16,0 -25,11 -27,26 -2,16 -32,264 -35,286 -2,13 -3,22 -7,27 -6,11 -15,14 -32,14 -14,0 -26,8 -26,27 0,19 12,25 26,25 49,0 70,-16 81,-44 4,-11 6,-21 8,-36zm319 -217c0,-35 15,-62 54,-62l45 0c39,0 54,27 54,62l0 181c0,35 -15,62 -54,62l-45 0c-39,0 -54,-27 -54,-62l0 -181zm207 0c0,-62 -36,-113 -107,-113l-45 0c-72,0 -107,51 -107,113l0 181c0,62 36,113 107,113l45 0c72,0 107,-51 107,-113l0 -181zm216 49l-82 0 0 -106 144 0c13,0 25,-7 25,-25 0,-17 -12,-25 -25,-25l-170 0c-19,0 -27,12 -27,26l0 344c0,14 8,26 27,26l108 0c73,0 109,-48 109,-110l0 -25c0,-63 -36,-104 -109,-104zm55 135c0,34 -15,53 -54,53l-83 0 0 -141 82 0c39,0 55,20 55,54l0 34zm455 84l0 -355c0,-14 -7,-26 -26,-26 -18,0 -27,12 -27,26l0 355c0,14 7,26 26,26 18,0 27,-12 27,-26zm-210 -222l-70 0 0 -133c0,-14 -8,-26 -27,-26 -19,0 -27,12 -27,26l0 350c0,14 8,26 27,26l96 0c73,0 109,-48 109,-110l0 -25c0,-63 -34,-108 -109,-108zm55 139c0,34 -15,53 -54,53l-71 0 0 -141 70 0c39,0 55,20 55,54l0 34 0 0z"/>
   <path class="fil2 str1" d="M12979 5107l0 8894c-2221,0 -3709,0 -5929,0l0 -8894 5929 0z"/>
   <path class="fil3 str2" d="M8230 5755l0 -141 88 0c39,0 55,20 55,54l0 28c0,35 -16,59 -55,59l-88 0zm88 51c73,0 109,-48 109,-110l0 -28c0,-63 -36,-104 -109,-104l-115 0c-18,0 -26,12 -26,26l0 350c0,14 8,26 27,26 19,0 27,-12 27,-26l0 -134 88 0zm384 154c13,0 25,-7 25,-25 0,-17 -12,-25 -25,-25l-155 0 0 -127 128 0c13,0 25,-7 25,-25 0,-17 -12,-25 -25,-25l-128 0 0 -116 155 0c13,0 25,-7 25,-25 0,-17 -12,-25 -25,-25l-182 0c-18,0 -26,12 -26,26l0 344c0,14 8,26 26,26l182 0zm296 0c13,0 25,-7 25,-25 0,-17 -12,-25 -25,-25l-155 0 0 -127 128 0c13,0 25,-7 25,-25 0,-17 -12,-25 -25,-25l-128 0 0 -116 155 0c13,0 25,-7 25,-25 0,-17 -12,-25 -25,-25l-182 0c-18,0 -26,12 -26,26l0 344c0,14 8,26 26,26l182 0zm190 -45c-39,0 -54,-27 -54,-62l0 -181c0,-35 15,-62 54,-62l58 0c24,0 37,10 40,33 1,14 8,26 26,26 19,0 27,-12 27,-26 0,-59 -35,-84 -93,-84l-58 0c-72,0 -107,51 -107,113l0 181c0,62 36,113 107,113l58 0c58,0 93,-25 93,-84 0,-14 -8,-26 -27,-26 -18,0 -25,12 -26,26 -2,24 -15,33 -40,33l-58 0zm315 51c19,0 27,-12 27,-26l0 -325 83 0c13,0 25,-7 25,-25 0,-17 -12,-25 -25,-25l-218 0c-13,0 -25,8 -25,25 0,18 12,25 25,25l83 0 0 325c0,14 8,26 27,26zm237 -210l0 -141 88 0c39,0 55,20 55,54l0 28c0,35 -16,59 -55,59l-88 0zm88 51c73,0 109,-48 109,-110l0 -28c0,-63 -36,-104 -109,-104l-115 0c-18,0 -26,12 -26,26l0 350c0,14 8,26 27,26 19,0 27,-12 27,-26l0 -134 88 0zm714 119l-115 -186 102 -141c10,-13 10,-28 -2,-37 -14,-12 -30,-6 -39,7l-105 149 -19 0 0 -132c0,-14 -7,-26 -25,-26 -19,0 -26,12 -26,26l0 132 -20 0 -105 -149c-9,-12 -25,-19 -39,-7 -12,10 -12,24 -2,37l102 141 -115 186c-7,12 -7,27 10,37 15,9 29,2 36,-10l112 -186 22 0 0 172c0,14 7,26 26,26 18,0 25,-12 25,-26l0 -172 20 0 112 186c6,11 20,19 36,10 16,-10 16,-25 10,-37zm235 -77l32 99c5,14 18,22 33,16 15,-5 21,-19 16,-32l-114 -354c-4,-12 -11,-19 -27,-19l-3 0c-16,0 -23,7 -27,19l-114 354c-5,14 2,27 16,32 15,5 28,-3 33,-16l32 -99 123 0zm-70 -171c4,-12 6,-19 8,-32l1 0c3,14 5,20 8,32l38 123 -94 0 38 -123zm282 211c4,-32 33,-274 33,-274l99 0 0 325c0,14 8,26 27,26 18,0 26,-12 26,-26l0 -350c0,-14 -8,-26 -26,-26l-148 0c-16,0 -25,11 -27,26 -2,16 -32,264 -35,286 -2,13 -3,22 -7,27 -6,11 -15,14 -32,14 -14,0 -26,8 -26,27 0,19 12,25 26,25 49,0 70,-16 81,-44 4,-11 6,-21 8,-36zm319 -217c0,-35 15,-62 54,-62l45 0c39,0 54,27 54,62l0 181c0,35 -15,62 -54,62l-45 0c-39,0 -54,-27 -54,-62l0 -181zm207 0c0,-62 -36,-113 -107,-113l-45 0c-72,0 -107,51 -107,113l0 181c0,62 36,113 107,113l45 0c72,0 107,-51 107,-113l0 -181zm216 49l-82 0 0 -106 144 0c13,0 25,-7 25,-25 0,-17 -12,-25 -25,-25l-170 0c-19,0 -27,12 -27,26l0 344c0,14 8,26 27,26l108 0c73,0 109,-48 109,-110l0 -25c0,-63 -36,-104 -109,-104zm55 135c0,34 -15,53 -54,53l-83 0 0 -141 82 0c39,0 55,20 55,54l0 34z"/>
   <path class="fil2 str1" d="M13696 6216l0 8894c-2221,0 -3709,0 -5929,0l0 -8894 5929 0z"/>
   <path class="fil3 str2" d="M8765 6779c0,-35 15,-62 54,-62l45 0c39,0 54,27 54,62l0 181c0,35 -15,62 -54,62l-45 0c-39,0 -54,-27 -54,-62l0 -181zm207 0c0,-62 -36,-113 -107,-113l-45 0c-72,0 -107,51 -107,113l0 181c0,62 36,113 107,113l45 0c72,0 107,-51 107,-113l0 -181zm182 243c-39,0 -54,-27 -54,-62l0 -181c0,-35 15,-62 54,-62l58 0c24,0 37,10 40,33 1,14 8,26 26,26 19,0 27,-12 27,-26 0,-59 -35,-84 -93,-84l-58 0c-72,0 -107,51 -107,113l0 181c0,62 36,113 107,113l58 0c58,0 93,-25 93,-84 0,-14 -8,-26 -27,-26 -18,0 -25,12 -26,26 -2,24 -15,33 -40,33l-58 0zm265 -243c0,-35 15,-62 54,-62l45 0c39,0 54,27 54,62l0 181c0,35 -15,62 -54,62l-45 0c-39,0 -54,-27 -54,-62l0 -181zm207 0c0,-62 -36,-113 -107,-113l-45 0c-72,0 -107,51 -107,113l0 181c0,62 36,113 107,113l45 0c72,0 107,-51 107,-113l0 -181zm216 49l-82 0 0 -106 144 0c13,0 25,-7 25,-25 0,-17 -12,-25 -25,-25l-170 0c-19,0 -27,12 -27,26l0 344c0,14 8,26 27,26l108 0c73,0 109,-48 109,-110l0 -25c0,-63 -36,-104 -109,-104zm55 135c0,34 -15,53 -54,53l-83 0 0 -141 82 0c39,0 55,20 55,54l0 34zm170 -184c0,-35 15,-62 54,-62l45 0c39,0 54,27 54,62l0 181c0,35 -15,62 -54,62l-45 0c-39,0 -54,-27 -54,-62l0 -181zm207 0c0,-62 -36,-113 -107,-113l-45 0c-72,0 -107,51 -107,113l0 181c0,62 36,113 107,113l45 0c72,0 107,-51 107,-113l0 -181zm289 289c13,0 25,-7 25,-25 0,-17 -12,-25 -25,-25l-155 0 0 -127 128 0c13,0 25,-7 25,-25 0,-17 -12,-25 -25,-25l-128 0 0 -116 155 0c13,0 25,-7 25,-25 0,-17 -12,-25 -25,-25l-182 0c-18,0 -26,12 -26,26l0 344c0,14 8,26 26,26l182 0zm394 -177c-3,-11 -8,-22 -14,-32l-88 -174c-8,-16 -15,-19 -27,-19 -19,0 -26,12 -26,26l0 355c0,14 7,26 26,26 19,0 26,-12 26,-26l0 -218c0,-15 -1,-29 -2,-39l1 0 81 158c4,8 10,14 23,14 14,0 19,-6 23,-14l81 -158 1 0c-1,10 -2,24 -2,39l0 218c0,14 7,26 26,26 19,0 26,-12 26,-26l0 -355c0,-14 -7,-26 -26,-26 -12,0 -19,3 -27,19l-88 174c-6,11 -10,22 -14,32zm496 -199c0,-14 -8,-26 -27,-26 -19,0 -27,12 -27,26l0 141 -149 0 0 -141c0,-14 -7,-26 -27,-26 -18,0 -27,12 -27,26l0 355c0,14 8,26 27,26 19,0 27,-12 27,-26l0 -164 149 0 0 164c0,14 7,26 27,26 18,0 27,-12 27,-26l0 -355zm294 376c13,0 25,-7 25,-25 0,-17 -12,-25 -25,-25l-155 0 0 -127 128 0c13,0 25,-7 25,-25 0,-17 -12,-25 -25,-25l-128 0 0 -116 155 0c13,0 25,-7 25,-25 0,-17 -12,-25 -25,-25l-182 0c-18,0 -26,12 -26,26l0 344c0,14 8,26 26,26l182 0zm343 -376c0,-14 -8,-26 -27,-26 -19,0 -27,12 -27,26l0 141 -149 0 0 -141c0,-14 -7,-26 -27,-26 -18,0 -27,12 -27,26l0 355c0,14 8,26 27,26 19,0 27,-12 27,-26l0 -164 149 0 0 164c0,14 7,26 27,26 18,0 27,-12 27,-26l0 -355zm289 355c0,14 7,26 25,26 19,0 27,-12 27,-26l0 -355c0,-14 -8,-26 -27,-26 -11,0 -18,4 -27,19l-151 269 -1 0c1,-10 2,-24 2,-39l0 -223c0,-14 -7,-26 -25,-26 -19,0 -27,12 -27,26l0 355c0,14 8,26 27,26 11,0 18,-4 27,-19l151 -269 1 0c-1,10 -2,24 -2,39l0 223zm346 20c13,0 25,-7 25,-25 0,-17 -12,-25 -25,-25l-155 0 0 -127 128 0c13,0 25,-7 25,-25 0,-17 -12,-25 -25,-25l-128 0 0 -116 155 0c13,0 25,-7 25,-25 0,-17 -12,-25 -25,-25l-182 0c-18,0 -26,12 -26,26l0 344c0,14 8,26 26,26l182 0z"/>
   <path class="fil4 str3" d="M14413 7325l0 8894c-2221,0 -3709,0 -5929,0l0 -8894 5929 0z"/>
   <path class="fil5" d="M14413 7325l0 8894c-2221,0 -3709,0 -5929,0l0 -8894 5929 0z"/>
   <path class="fil6" d="M8484 7325l5929 0 0 4920 -5929 -2817c10,-291 0,-1908 0,-2102z"/>
   <path class="fil7 str3" d="M14413 7325l0 8894c-2221,0 -3709,0 -5929,0l0 -8894 5929 0z"/>
   <path class="fil3 str2" d="M7626 2522l32 99c5,14 18,22 33,16 15,-5 21,-19 16,-32l-114 -354c-4,-12 -11,-19 -27,-19l-3 0c-16,0 -23,7 -27,19l-114 354c-5,14 2,27 16,32 15,5 28,-3 33,-16l32 -99 123 0zm-70 -171c4,-12 6,-19 8,-32l1 0c3,14 5,20 8,32l38 123 -94 0 38 -123zm455 246l-122 -173 115 -150c10,-13 10,-27 -1,-37 -14,-12 -30,-6 -40,6l-119 161 -34 0 0 -147c0,-14 -8,-26 -26,-26 -19,0 -27,12 -27,26l0 355c0,14 8,26 27,26 18,0 26,-12 26,-26l0 -158 35 0 122 173c7,11 22,18 37,7 16,-11 15,-27 7,-38zm165 42c19,0 27,-12 27,-26l0 -325 83 0c13,0 25,-7 25,-25 0,-17 -12,-25 -25,-25l-218 0c-13,0 -25,8 -25,25 0,18 12,25 25,25l83 0 0 325c0,14 8,26 27,26z"/>
   <path class="fil8 str4" d="M17810 18001c116,-116 173,-268 170,-420l312 1 -558 -398 -514 395 312 1 0 0c1,150 -56,299 -170,413 -135,135 -239,128 -412,128l-408 0c-47,0 -46,49 -1,49l858 0c149,0 298,-57 411,-170z"/>
   <path class="fil3 str5" d="M9695 9787l0 562c0,24 13,45 46,45 31,0 46,-22 46,-45l0 -606c0,-23 -15,-45 -46,-45l-330 0c-31,0 -46,22 -46,45l0 606c0,24 15,45 46,45 32,0 46,-22 46,-45l0 -562 238 0zm333 243l0 -244 153 0c68,0 96,34 96,93l0 49c0,60 -28,102 -96,102l-153 0zm153 88c126,0 188,-82 188,-190l0 -49c0,-110 -62,-180 -188,-180l-200 0c-31,0 -45,22 -45,45l0 606c0,24 14,45 46,45 32,0 46,-22 46,-45l0 -231 153 0zm386 -233c0,-61 26,-108 94,-108l78 0c68,0 94,47 94,108l0 314c0,61 -26,108 -94,108l-78 0c-68,0 -94,-47 -94,-108l0 -314zm359 0c0,-108 -62,-196 -186,-196l-78 0c-124,0 -186,88 -186,196l0 314c0,108 62,196 186,196l78 0c124,0 186,-88 186,-196l0 -314zm309 510c32,0 46,-22 46,-45l0 -562 143 0c23,0 43,-13 43,-44 0,-29 -21,-44 -43,-44l-378 0c-23,0 -43,15 -43,44 0,31 21,44 43,44l143 0 0 562c0,24 14,45 46,45zm401 -510c0,-61 26,-108 94,-108l78 0c68,0 94,47 94,108l0 314c0,61 -26,108 -94,108l-78 0c-68,0 -94,-47 -94,-108l0 -314zm359 0c0,-108 -62,-196 -186,-196l-78 0c-124,0 -186,88 -186,196l0 314c0,108 62,196 186,196l78 0c124,0 186,-88 186,-196l0 -314zm576 437l-211 -299 200 -260c18,-23 18,-47 -2,-65 -24,-22 -52,-11 -69,10l-206 279 -59 0 0 -254c0,-24 -14,-45 -45,-45 -33,0 -47,22 -47,45l0 615c0,24 14,45 47,45 31,0 45,-22 45,-45l0 -273 60 0 211 299c13,20 37,30 64,13 27,-20 25,-46 12,-66zm198 -437c0,-61 26,-108 94,-108l78 0c68,0 94,47 94,108l0 314c0,61 -26,108 -94,108l-78 0c-68,0 -94,-47 -94,-108l0 -314zm359 0c0,-108 -62,-196 -186,-196l-78 0c-124,0 -186,88 -186,196l0 314c0,108 62,196 186,196l78 0c124,0 186,-88 186,-196l0 -314zm276 376c7,-56 58,-474 58,-474l171 0 0 562c0,24 14,45 47,45 31,0 45,-22 45,-45l0 -606c0,-23 -14,-45 -45,-45l-256 0c-28,0 -44,19 -47,45 -3,28 -56,457 -61,495 -3,23 -6,37 -12,47 -10,19 -26,24 -55,24 -24,0 -45,15 -45,46 0,33 22,44 45,44 85,0 121,-27 140,-76 7,-19 11,-36 14,-62z"/>
   <g>
    <path class="fil9" d="M9360 8206l0 140 -3 0 -3 0 -3 0 -3 -1 -3 -1 -3 -1 -3 -1 -3 -1 -3 -1 -3 -2 -3 -2 -3 -2 -3 -2 -2 -2 -2 -2 -2 -2 -2 -2 -2 -3 -2 -3 -2 -3 -2 -3 -2 -3 -1 -3 -1 -3 -1 -3 -1 -3 -1 -3 -1 -3 -1 -3 0 -4 0 -4 0 -4 0 -4 0 -4 0 -4 1 -3 1 -3 1 -3 1 -3 1 -3 1 -3 1 -3 2 -3 2 -3 2 -3 2 -3 2 -3 2 -2 2 -2 2 -2 2 -2 3 -2 3 -2 3 -2 3 -2 3 -1 3 -1 3 -1 3 -1 3 -1 3 -1 3 0 3 0 3 0zm781 140l-781 0 0 -140 781 0 0 140zm0 0l0 -140 3 0 3 0 3 0 3 1 3 1 3 1 3 1 3 1 3 1 3 2 3 2 3 2 3 2 2 2 2 2 2 2 2 2 2 3 2 3 2 3 2 3 2 3 1 3 1 3 1 3 1 3 1 3 1 3 1 3 0 4 0 4 0 4 0 4 0 4 0 4 -1 3 -1 3 -1 3 -1 3 -1 3 -1 3 -1 3 -2 3 -2 3 -2 3 -2 3 -2 3 -2 2 -2 2 -2 2 -2 2 -3 2 -3 2 -3 2 -3 2 -3 1 -3 1 -3 1 -3 1 -3 1 -3 1 -3 0 -3 0 -3 0zm-781 614l0 140 -3 0 -3 0 -3 0 -3 -1 -3 -1 -3 -1 -3 -1 -3 -1 -3 -1 -3 -2 -3 -2 -3 -2 -3 -2 -2 -2 -2 -2 -2 -2 -2 -2 -2 -3 -2 -3 -2 -3 -2 -3 -2 -3 -1 -3 -1 -3 -1 -3 -1 -3 -1 -3 -1 -3 -1 -3 0 -4 0 -4 0 -4 0 -4 0 -4 0 -4 1 -3 1 -3 1 -3 1 -3 1 -3 1 -3 1 -3 2 -3 2 -3 2 -3 2 -3 2 -3 2 -2 2 -2 2 -2 2 -2 3 -2 3 -2 3 -2 3 -2 3 -1 3 -1 3 -1 3 -1 3 -1 3 -1 3 0 3 0 3 0zm2656 140l-2656 0 0 -140 2656 0 0 140zm0 0l0 -140 3 0 3 0 3 0 3 1 3 1 3 1 3 1 3 1 3 1 3 2 3 2 3 2 3 2 2 2 2 2 2 2 2 2 2 3 2 3 2 3 2 3 2 3 1 3 1 3 1 3 1 3 1 3 1 3 1 3 0 4 0 4 0 4 0 4 0 4 0 4 -1 3 -1 3 -1 3 -1 3 -1 3 -1 3 -1 3 -2 3 -2 3 -2 3 -2 3 -2 3 -2 2 -2 2 -2 2 -2 2 -3 2 -3 2 -3 2 -3 2 -3 1 -3 1 -3 1 -3 1 -3 1 -3 1 -3 0 -3 0 -3 0zm-2656 -517l0 140 -3 0 -3 0 -3 0 -3 -1 -3 -1 -3 -1 -3 -1 -3 -1 -3 -1 -3 -2 -3 -2 -3 -2 -3 -2 -2 -2 -2 -2 -2 -2 -2 -2 -2 -3 -2 -3 -2 -3 -2 -3 -2 -3 -1 -3 -1 -3 -1 -3 -1 -3 -1 -3 -1 -3 -1 -3 0 -4 0 -4 0 -4 0 -4 0 -4 0 -4 1 -3 1 -3 1 -3 1 -3 1 -3 1 -3 1 -3 2 -3 2 -3 2 -3 2 -3 2 -3 2 -2 2 -2 2 -2 2 -2 3 -2 3 -2 3 -2 3 -2 3 -1 3 -1 3 -1 3 -1 3 -1 3 -1 3 0 3 0 3 0zm2647 140l-2647 0 0 -140 2647 0 0 140zm0 0l0 -140 3 0 3 0 3 0 3 1 3 1 3 1 3 1 3 1 3 1 3 2 3 2 3 2 3 2 2 2 2 2 2 2 2 2 2 3 2 3 2 3 2 3 2 3 1 3 1 3 1 3 1 3 1 3 1 3 1 3 0 4 0 4 0 4 0 4 0 4 0 4 -1 3 -1 3 -1 3 -1 3 -1 3 -1 3 -1 3 -2 3 -2 3 -2 3 -2 3 -2 3 -2 2 -2 2 -2 2 -2 2 -3 2 -3 2 -3 2 -3 2 -3 1 -3 1 -3 1 -3 1 -3 1 -3 1 -3 0 -3 0 -3 0z"/>
   </g>
   <g>
    <path class="fil9" d="M9268 11933l0 140 -3 0 -3 0 -3 0 -3 -1 -3 -1 -3 -1 -3 -1 -3 -1 -3 -1 -3 -2 -3 -2 -3 -2 -3 -2 -2 -2 -2 -2 -2 -2 -2 -2 -2 -3 -2 -3 -2 -3 -2 -3 -2 -3 -1 -3 -1 -3 -1 -3 -1 -3 -1 -3 -1 -3 -1 -3 0 -4 0 -4 0 -4 0 -4 0 -4 0 -4 1 -3 1 -3 1 -3 1 -3 1 -3 1 -3 1 -3 2 -3 2 -3 2 -3 2 -3 2 -3 2 -2 2 -2 2 -2 2 -2 3 -2 3 -2 3 -2 3 -2 3 -1 3 -1 3 -1 3 -1 3 -1 3 -1 3 0 3 0 3 0zm1575 140l-1575 0 0 -140 1575 0 0 140zm0 0l0 -140 3 0 3 0 3 0 3 1 3 1 3 1 3 1 3 1 3 1 3 2 3 2 3 2 3 2 2 2 2 2 2 2 2 2 2 3 2 3 2 3 2 3 2 3 1 3 1 3 1 3 1 3 1 3 1 3 1 3 0 4 0 4 0 4 0 4 0 4 0 4 -1 3 -1 3 -1 3 -1 3 -1 3 -1 3 -1 3 -2 3 -2 3 -2 3 -2 3 -2 3 -2 2 -2 2 -2 2 -2 2 -3 2 -3 2 -3 2 -3 2 -3 1 -3 1 -3 1 -3 1 -3 1 -3 1 -3 0 -3 0 -3 0zm-1575 2527l0 140 -3 0 -3 0 -3 0 -3 -1 -3 -1 -3 -1 -3 -1 -3 -1 -3 -1 -3 -2 -3 -2 -3 -2 -3 -2 -2 -2 -2 -2 -2 -2 -2 -2 -2 -3 -2 -3 -2 -3 -2 -3 -2 -3 -1 -3 -1 -3 -1 -3 -1 -3 -1 -3 -1 -3 -1 -3 0 -4 0 -4 0 -4 0 -4 0 -4 0 -4 1 -3 1 -3 1 -3 1 -3 1 -3 1 -3 1 -3 2 -3 2 -3 2 -3 2 -3 2 -3 2 -2 2 -2 2 -2 2 -2 3 -2 3 -2 3 -2 3 -2 3 -1 3 -1 3 -1 3 -1 3 -1 3 -1 3 0 3 0 3 0zm1428 140l-1428 0 0 -140 1428 0 0 140zm0 0l0 -140 3 0 3 0 3 0 3 1 3 1 3 1 3 1 3 1 3 1 3 2 3 2 3 2 3 2 2 2 2 2 2 2 2 2 2 3 2 3 2 3 2 3 2 3 1 3 1 3 1 3 1 3 1 3 1 3 1 3 0 4 0 4 0 4 0 4 0 4 0 4 -1 3 -1 3 -1 3 -1 3 -1 3 -1 3 -1 3 -2 3 -2 3 -2 3 -2 3 -2 3 -2 2 -2 2 -2 2 -2 2 -3 2 -3 2 -3 2 -3 2 -3 1 -3 1 -3 1 -3 1 -3 1 -3 1 -3 0 -3 0 -3 0zm-1428 195l0 140 -3 0 -3 0 -3 0 -3 -1 -3 -1 -3 -1 -3 -1 -3 -1 -3 -1 -3 -2 -3 -2 -3 -2 -3 -2 -2 -2 -2 -2 -2 -2 -2 -2 -2 -3 -2 -3 -2 -3 -2 -3 -2 -3 -1 -3 -1 -3 -1 -3 -1 -3 -1 -3 -1 -3 -1 -3 0 -4 0 -4 0 -4 0 -4 0 -4 0 -4 1 -3 1 -3 1 -3 1 -3 1 -3 1 -3 1 -3 2 -3 2 -3 2 -3 2 -3 2 -3 2 -2 2 -2 2 -2 2 -2 3 -2 3 -2 3 -2 3 -2 3 -1 3 -1 3 -1 3 -1 3 -1 3 -1 3 0 3 0 3 0zm1940 140l-1940 0 0 -140 1940 0 0 140zm0 0l0 -140 3 0 3 0 3 0 3 1 3 1 3 1 3 1 3 1 3 1 3 2 3 2 3 2 3 2 2 2 2 2 2 2 2 2 2 3 2 3 2 3 2 3 2 3 1 3 1 3 1 3 1 3 1 3 1 3 1 3 0 4 0 4 0 4 0 4 0 4 0 4 -1 3 -1 3 -1 3 -1 3 -1 3 -1 3 -1 3 -2 3 -2 3 -2 3 -2 3 -2 3 -2 2 -2 2 -2 2 -2 2 -3 2 -3 2 -3 2 -3 2 -3 1 -3 1 -3 1 -3 1 -3 1 -3 1 -3 0 -3 0 -3 0zm-1940 -1364l0 140 -3 0 -3 0 -3 0 -3 -1 -3 -1 -3 -1 -3 -1 -3 -1 -3 -1 -3 -2 -3 -2 -3 -2 -3 -2 -2 -2 -2 -2 -2 -2 -2 -2 -2 -3 -2 -3 -2 -3 -2 -3 -2 -3 -1 -3 -1 -3 -1 -3 -1 -3 -1 -3 -1 -3 -1 -3 0 -4 0 -4 0 -4 0 -4 0 -4 0 -4 1 -3 1 -3 1 -3 1 -3 1 -3 1 -3 1 -3 2 -3 2 -3 2 -3 2 -3 2 -3 2 -2 2 -2 2 -2 2 -2 3 -2 3 -2 3 -2 3 -2 3 -1 3 -1 3 -1 3 -1 3 -1 3 -1 3 0 3 0 3 0zm3371 140l-3371 0 0 -140 3371 0 0 140zm0 0l0 -140 3 0 3 0 3 0 3 1 3 1 3 1 3 1 3 1 3 1 3 2 3 2 3 2 3 2 2 2 2 2 2 2 2 2 2 3 2 3 2 3 2 3 2 3 1 3 1 3 1 3 1 3 1 3 1 3 1 3 0 4 0 4 0 4 0 4 0 4 0 4 -1 3 -1 3 -1 3 -1 3 -1 3 -1 3 -1 3 -2 3 -2 3 -2 3 -2 3 -2 3 -2 2 -2 2 -2 2 -2 2 -3 2 -3 2 -3 2 -3 2 -3 1 -3 1 -3 1 -3 1 -3 1 -3 1 -3 0 -3 0 -3 0zm-3371 195l0 140 -3 0 -3 0 -3 0 -3 -1 -3 -1 -3 -1 -3 -1 -3 -1 -3 -1 -3 -2 -3 -2 -3 -2 -3 -2 -2 -2 -2 -2 -2 -2 -2 -2 -2 -3 -2 -3 -2 -3 -2 -3 -2 -3 -1 -3 -1 -3 -1 -3 -1 -3 -1 -3 -1 -3 -1 -3 0 -4 0 -4 0 -4 0 -4 0 -4 0 -4 1 -3 1 -3 1 -3 1 -3 1 -3 1 -3 1 -3 2 -3 2 -3 2 -3 2 -3 2 -3 2 -2 2 -2 2 -2 2 -2 3 -2 3 -2 3 -2 3 -2 3 -1 3 -1 3 -1 3 -1 3 -1 3 -1 3 0 3 0 3 0zm2272 140l-2272 0 0 -140 2272 0 0 140zm0 0l0 -140 3 0 3 0 3 0 3 1 3 1 3 1 3 1 3 1 3 1 3 2 3 2 3 2 3 2 2 2 2 2 2 2 2 2 2 3 2 3 2 3 2 3 2 3 1 3 1 3 1 3 1 3 1 3 1 3 1 3 0 4 0 4 0 4 0 4 0 4 0 4 -1 3 -1 3 -1 3 -1 3 -1 3 -1 3 -1 3 -2 3 -2 3 -2 3 -2 3 -2 3 -2 2 -2 2 -2 2 -2 2 -3 2 -3 2 -3 2 -3 2 -3 1 -3 1 -3 1 -3 1 -3 1 -3 1 -3 0 -3 0 -3 0zm-2272 -1364l0 140 -3 0 -3 0 -3 0 -3 -1 -3 -1 -3 -1 -3 -1 -3 -1 -3 -1 -3 -2 -3 -2 -3 -2 -3 -2 -2 -2 -2 -2 -2 -2 -2 -2 -2 -3 -2 -3 -2 -3 -2 -3 -2 -3 -1 -3 -1 -3 -1 -3 -1 -3 -1 -3 -1 -3 -1 -3 0 -4 0 -4 0 -4 0 -4 0 -4 0 -4 1 -3 1 -3 1 -3 1 -3 1 -3 1 -3 1 -3 2 -3 2 -3 2 -3 2 -3 2 -3 2 -2 2 -2 2 -2 2 -2 3 -2 3 -2 3 -2 3 -2 3 -1 3 -1 3 -1 3 -1 3 -1 3 -1 3 0 3 0 3 0zm3371 140l-3371 0 0 -140 3371 0 0 140zm0 0l0 -140 3 0 3 0 3 0 3 1 3 1 3 1 3 1 3 1 3 1 3 2 3 2 3 2 3 2 2 2 2 2 2 2 2 2 2 3 2 3 2 3 2 3 2 3 1 3 1 3 1 3 1 3 1 3 1 3 1 3 0 4 0 4 0 4 0 4 0 4 0 4 -1 3 -1 3 -1 3 -1 3 -1 3 -1 3 -1 3 -2 3 -2 3 -2 3 -2 3 -2 3 -2 2 -2 2 -2 2 -2 2 -3 2 -3 2 -3 2 -3 2 -3 1 -3 1 -3 1 -3 1 -3 1 -3 1 -3 0 -3 0 -3 0zm-3371 195l0 140 -3 0 -3 0 -3 0 -3 -1 -3 -1 -3 -1 -3 -1 -3 -1 -3 -1 -3 -2 -3 -2 -3 -2 -3 -2 -2 -2 -2 -2 -2 -2 -2 -2 -2 -3 -2 -3 -2 -3 -2 -3 -2 -3 -1 -3 -1 -3 -1 -3 -1 -3 -1 -3 -1 -3 -1 -3 0 -4 0 -4 0 -4 0 -4 0 -4 0 -4 1 -3 1 -3 1 -3 1 -3 1 -3 1 -3 1 -3 2 -3 2 -3 2 -3 2 -3 2 -3 2 -2 2 -2 2 -2 2 -2 3 -2 3 -2 3 -2 3 -2 3 -1 3 -1 3 -1 3 -1 3 -1 3 -1 3 0 3 0 3 0zm2456 140l-2456 0 0 -140 2456 0 0 140zm0 0l0 -140 3 0 3 0 3 0 3 1 3 1 3 1 3 1 3 1 3 1 3 2 3 2 3 2 3 2 2 2 2 2 2 2 2 2 2 3 2 3 2 3 2 3 2 3 1 3 1 3 1 3 1 3 1 3 1 3 1 3 0 4 0 4 0 4 0 4 0 4 0 4 -1 3 -1 3 -1 3 -1 3 -1 3 -1 3 -1 3 -2 3 -2 3 -2 3 -2 3 -2 3 -2 2 -2 2 -2 2 -2 2 -3 2 -3 2 -3 2 -3 2 -3 1 -3 1 -3 1 -3 1 -3 1 -3 1 -3 0 -3 0 -3 0zm-2456 -1029l0 140 -3 0 -3 0 -3 0 -3 -1 -3 -1 -3 -1 -3 -1 -3 -1 -3 -1 -3 -2 -3 -2 -3 -2 -3 -2 -2 -2 -2 -2 -2 -2 -2 -2 -2 -3 -2 -3 -2 -3 -2 -3 -2 -3 -1 -3 -1 -3 -1 -3 -1 -3 -1 -3 -1 -3 -1 -3 0 -4 0 -4 0 -4 0 -4 0 -4 0 -4 1 -3 1 -3 1 -3 1 -3 1 -3 1 -3 1 -3 2 -3 2 -3 2 -3 2 -3 2 -3 2 -2 2 -2 2 -2 2 -2 3 -2 3 -2 3 -2 3 -2 3 -1 3 -1 3 -1 3 -1 3 -1 3 -1 3 0 3 0 3 0zm3383 140l-3383 0 0 -140 3383 0 0 140zm0 0l0 -140 3 0 3 0 3 0 3 1 3 1 3 1 3 1 3 1 3 1 3 2 3 2 3 2 3 2 2 2 2 2 2 2 2 2 2 3 2 3 2 3 2 3 2 3 1 3 1 3 1 3 1 3 1 3 1 3 1 3 0 4 0 4 0 4 0 4 0 4 0 4 -1 3 -1 3 -1 3 -1 3 -1 3 -1 3 -1 3 -2 3 -2 3 -2 3 -2 3 -2 3 -2 2 -2 2 -2 2 -2 2 -3 2 -3 2 -3 2 -3 2 -3 1 -3 1 -3 1 -3 1 -3 1 -3 1 -3 0 -3 0 -3 0z"/>
   </g>
   <g>
    <path class="fil3" d="M9284 10840l0 129 -4 0 -4 0 -4 0 -4 -1 -4 -1 -4 -1 -3 -1 -3 -1 -3 -1 -3 -1 -3 -2 -3 -2 -3 -2 -3 -2 -3 -2 -3 -2 -2 -2 -2 -2 -2 -2 -2 -3 -2 -3 -2 -3 -2 -3 -2 -3 -1 -3 -1 -3 -1 -3 -1 -3 -1 -3 0 -3 0 -3 0 -3 0 -3 0 -3 0 -3 1 -3 1 -3 1 -3 1 -3 1 -3 2 -3 2 -3 2 -3 2 -3 2 -3 2 -2 2 -2 2 -2 3 -2 3 -2 3 -2 3 -2 3 -2 3 -2 3 -1 3 -1 3 -1 3 -1 4 -1 4 -1 4 -1 4 0 4 0 4 0zm4497 129l-4497 0 0 -129 4497 0 0 129zm0 0l0 -129 4 0 4 0 4 0 4 1 4 1 4 1 3 1 3 1 3 1 3 1 3 2 3 2 3 2 3 2 3 2 3 2 2 2 2 2 2 2 2 3 2 3 2 3 2 3 2 3 1 3 1 3 1 3 1 3 1 3 0 3 0 3 0 3 0 3 0 3 0 3 -1 3 -1 3 -1 3 -1 3 -1 3 -2 3 -2 3 -2 3 -2 3 -2 3 -2 2 -2 2 -2 2 -3 2 -3 2 -3 2 -3 2 -3 2 -3 2 -3 1 -3 1 -3 1 -3 1 -4 1 -4 1 -4 1 -4 0 -4 0 -4 0zm-3472 -404l0 129 -4 0 -4 0 -4 0 -4 -1 -4 -1 -4 -1 -3 -1 -3 -1 -3 -1 -3 -1 -3 -2 -3 -2 -3 -2 -3 -2 -3 -2 -3 -2 -2 -2 -2 -2 -2 -2 -2 -3 -2 -3 -2 -3 -2 -3 -2 -3 -1 -3 -1 -3 -1 -3 -1 -3 -1 -3 0 -3 0 -3 0 -3 0 -3 0 -3 0 -3 1 -3 1 -3 1 -3 1 -3 1 -3 2 -3 2 -3 2 -3 2 -3 2 -3 2 -2 2 -2 2 -2 3 -2 3 -2 3 -2 3 -2 3 -2 3 -2 3 -1 3 -1 3 -1 3 -1 4 -1 4 -1 4 -1 4 0 4 0 4 0zm2391 129l-2391 0 0 -129 2391 0 0 129zm0 0l0 -129 4 0 4 0 4 0 4 1 4 1 4 1 3 1 3 1 3 1 3 1 3 2 3 2 3 2 3 2 3 2 3 2 2 2 2 2 2 2 2 3 2 3 2 3 2 3 2 3 1 3 1 3 1 3 1 3 1 3 0 3 0 3 0 3 0 3 0 3 0 3 -1 3 -1 3 -1 3 -1 3 -1 3 -2 3 -2 3 -2 3 -2 3 -2 3 -2 2 -2 2 -2 2 -3 2 -3 2 -3 2 -3 2 -3 2 -3 2 -3 1 -3 1 -3 1 -3 1 -4 1 -4 1 -4 1 -4 0 -4 0 -4 0z"/>
   </g>
   <path class="fil10 str6" d="M6534 17831c0,-12 -8,-24 -24,-24 -17,0 -24,11 -24,24l0 127 -135 0 0 -127c0,-12 -7,-24 -24,-24 -16,0 -24,11 -24,24l0 321c0,12 8,24 24,24 17,0 24,-11 24,-24l0 -148 135 0 0 148c0,12 7,24 24,24 16,0 24,-11 24,-24l0 -321zm231 239l29 90c4,12 16,19 30,15 13,-5 19,-17 15,-29l-103 -320c-4,-11 -10,-17 -24,-17l-3 0c-14,0 -20,6 -24,17l-103 320c-4,12 2,25 15,29 14,5 26,-3 30,-15l29 -90 111 0zm-63 -155c4,-11 5,-17 8,-29l1 0c3,12 4,18 8,29l35 112 -85 0 35 -112zm356 -57l0 294c0,12 7,24 24,24 16,0 24,-11 24,-24l0 -316c0,-12 -8,-24 -24,-24l-172 0c-16,0 -24,11 -24,24l0 316c0,12 8,24 24,24 17,0 24,-11 24,-24l0 -294 124 0zm174 127l0 -127 80 0c35,0 50,18 50,49l0 26c0,31 -15,53 -50,53l-80 0zm80 46c66,0 98,-43 98,-99l0 -26c0,-57 -32,-94 -98,-94l-104 0c-16,0 -24,11 -24,24l0 316c0,12 7,24 24,24 17,0 24,-11 24,-24l0 -121 80 0zm290 38l29 90c4,12 16,19 30,15 13,-5 19,-17 15,-29l-103 -320c-4,-11 -10,-17 -24,-17l-3 0c-14,0 -20,6 -24,17l-103 320c-4,12 2,25 15,29 14,5 26,-3 30,-15l29 -90 111 0zm-63 -155c4,-11 5,-17 8,-29l1 0c3,12 4,18 8,29l35 112 -85 0 35 -112zm231 96l84 0c35,0 49,23 49,54l0 11c0,31 -14,48 -49,48l-84 0 0 -114zm0 -45l0 -107 62 0c35,0 49,12 49,43l0 12c0,31 -14,52 -49,52l-62 0zm181 99c0,-42 -19,-72 -57,-84 23,-14 35,-36 35,-68l0 -12c0,-57 -33,-89 -97,-89l-85 0c-17,0 -25,11 -25,24l0 311c0,12 7,24 25,24l107 0c65,0 97,-37 97,-94l0 -11zm126 41c4,-29 30,-248 30,-248l90 0 0 294c0,12 7,24 25,24 16,0 24,-11 24,-24l0 -316c0,-12 -7,-24 -24,-24l-134 0c-15,0 -23,10 -25,24 -2,15 -29,238 -32,258 -2,12 -3,19 -6,25 -5,10 -14,12 -29,12 -12,0 -24,8 -24,24 0,17 11,23 24,23 45,0 63,-14 73,-40 4,-10 6,-19 7,-32l0 0zm228 -185c0,37 21,79 61,95 -4,6 -7,12 -12,26 0,0 -40,90 -45,101 -5,11 -2,25 14,31 16,6 26,-2 31,-13 5,-12 59,-137 59,-137l65 0 0 129c0,12 7,24 24,24 17,0 24,-11 24,-24l0 -316c0,-12 -7,-24 -24,-24l-98 0c-65,0 -99,41 -99,94l0 14zm97 56c-35,0 -49,-25 -49,-56l0 -14c0,-28 14,-48 51,-48l75 0 0 119 -76 0zm390 193c12,0 23,-7 23,-23 0,-15 -11,-23 -23,-23l-140 0 0 -115 116 0c12,0 23,-7 23,-23 0,-15 -11,-23 -23,-23l-116 0 0 -105 140 0c12,0 23,-7 23,-23 0,-15 -11,-23 -23,-23l-165 0c-16,0 -24,11 -24,24l0 311c0,12 7,24 24,24l165 0zm171 5c17,0 24,-11 24,-24l0 -294 75 0c12,0 23,-7 23,-23 0,-15 -11,-23 -23,-23l-198 0c-12,0 -23,8 -23,23 0,16 11,23 23,23l75 0 0 294c0,12 7,24 24,24zm246 -46c-35,0 -49,-25 -49,-56l0 -164c0,-32 14,-56 49,-56l52 0c22,0 34,9 36,30 1,12 7,24 24,24 17,0 25,-11 25,-24 0,-53 -32,-76 -84,-76l-52 0c-65,0 -97,46 -97,102l0 164c0,56 32,102 97,102l52 0c52,0 84,-23 84,-76 0,-12 -7,-24 -25,-24 -16,0 -23,11 -24,24 -2,21 -14,30 -36,30l-52 0zm179 -209c0,37 21,79 61,95 -4,6 -7,12 -12,26 0,0 -40,90 -45,101 -5,11 -2,25 14,31 16,6 26,-2 31,-13 5,-12 59,-137 59,-137l65 0 0 129c0,12 7,24 24,24 17,0 24,-11 24,-24l0 -316c0,-12 -7,-24 -24,-24l-98 0c-65,0 -99,41 -99,94l0 14zm97 56c-35,0 -49,-25 -49,-56l0 -14c0,-28 14,-48 51,-48l75 0 0 119 -76 0zm387 34l84 0c35,0 49,23 49,54l0 11c0,31 -14,48 -49,48l-84 0 0 -114zm0 -45l0 -107 62 0c35,0 49,12 49,43l0 12c0,31 -14,52 -49,52l-62 0zm181 99c0,-42 -19,-72 -57,-84 23,-14 35,-36 35,-68l0 -12c0,-57 -33,-89 -97,-89l-85 0c-17,0 -25,11 -25,24l0 311c0,12 7,24 25,24l107 0c65,0 97,-37 97,-94l0 -11zm248 -54l84 0c35,0 49,23 49,54l0 11c0,31 -14,48 -49,48l-84 0 0 -114zm0 -45l0 -107 62 0c35,0 49,12 49,43l0 12c0,31 -14,52 -49,52l-62 0zm181 99c0,-42 -19,-72 -57,-84 23,-14 35,-36 35,-68l0 -12c0,-57 -33,-89 -97,-89l-85 0c-17,0 -25,11 -25,24l0 311c0,12 7,24 25,24l107 0c65,0 97,-37 97,-94l0 -11zm364 87l0 -321c0,-12 -7,-24 -24,-24 -16,0 -24,11 -24,24l0 321c0,12 7,24 24,24 16,0 24,-11 24,-24zm-190 -201l-63 0 0 -120c0,-12 -7,-24 -24,-24 -17,0 -24,11 -24,24l0 316c0,12 7,24 25,24l87 0c66,0 98,-43 98,-99l0 -23c0,-57 -31,-97 -98,-97zm50 125c0,31 -14,48 -49,48l-64 0 0 -127 63 0c35,0 50,18 50,49l0 31 0 0zm507 -269c-17,0 -25,11 -25,24l0 294 -85 0 0 -294c0,-13 -8,-24 -24,-24 -14,0 -22,12 -22,24l0 294 -85 0 0 -294c0,-12 -7,-24 -25,-24 -16,0 -24,11 -24,24l0 316c0,12 7,24 24,24l266 0c16,0 24,-11 24,-24l0 -316c0,-12 -7,-24 -24,-24zm290 363c12,0 23,-7 23,-23 0,-15 -11,-23 -23,-23l-140 0 0 -115 116 0c12,0 23,-7 23,-23 0,-15 -11,-23 -23,-23l-116 0 0 -105 140 0c12,0 23,-7 23,-23 0,-15 -11,-23 -23,-23l-165 0c-16,0 -24,11 -24,24l0 311c0,12 7,24 24,24l165 0zm167 -41c-35,0 -49,-25 -49,-56l0 -164c0,-32 14,-56 49,-56l52 0c22,0 34,9 36,30 1,12 7,24 24,24 17,0 25,-11 25,-24 0,-53 -32,-76 -84,-76l-52 0c-65,0 -97,46 -97,102l0 164c0,56 32,102 97,102l52 0c52,0 84,-23 84,-76 0,-12 -7,-24 -25,-24 -16,0 -23,11 -24,24 -2,21 -14,30 -36,30l-52 0zm285 46c17,0 24,-11 24,-24l0 -294 75 0c12,0 23,-7 23,-23 0,-15 -11,-23 -23,-23l-198 0c-12,0 -23,8 -23,23 0,16 11,23 23,23l75 0 0 294c0,12 7,24 24,24zm196 -266c0,-32 14,-56 49,-56l41 0c35,0 49,25 49,56l0 164c0,32 -14,56 -49,56l-41 0c-35,0 -49,-25 -49,-56l0 -164zm187 0c0,-56 -32,-102 -97,-102l-41 0c-65,0 -97,46 -97,102l0 164c0,56 32,102 97,102l41 0c65,0 97,-46 97,-102l0 -164zm55 11c0,37 21,79 61,95 -4,6 -7,12 -12,26 0,0 -40,90 -45,101 -5,11 -2,25 14,31 16,6 26,-2 31,-13 5,-12 59,-137 59,-137l65 0 0 129c0,12 7,24 24,24 17,0 24,-11 24,-24l0 -316c0,-12 -7,-24 -24,-24l-98 0c-65,0 -99,41 -99,94l0 14zm97 56c-35,0 -49,-25 -49,-56l0 -14c0,-28 14,-48 51,-48l75 0 0 119 -76 0zm468 193c9,0 19,-1 27,-1l-29 50c-3,4 -4,9 -4,13 0,9 9,24 25,24 9,0 16,-6 20,-13l49 -84c2,-3 3,-7 3,-11 0,-16 -11,-23 -23,-23l-21 0 0 -294c0,-12 -7,-24 -24,-24 -17,0 -25,11 -25,24l0 294 -85 0 0 -294c0,-13 -8,-24 -24,-24 -14,0 -22,12 -22,24l0 294 -85 0 0 -294c0,-12 -7,-24 -25,-24 -16,0 -24,11 -24,24l0 316c0,12 7,24 24,24l242 0 0 0zm341 -362c-16,-4 -26,5 -29,17 0,0 -25,97 -47,177 -4,0 -20,0 -37,0 -18,0 -28,-12 -31,-23 -7,-26 -40,-155 -40,-155 -3,-12 -13,-21 -29,-17 -17,5 -21,17 -18,29 0,0 30,115 39,148 9,35 25,61 86,61 7,0 16,-1 16,-1l2 0c-8,30 -16,52 -18,57 -7,16 -26,23 -39,23l-19 0c-13,0 -24,9 -24,24 0,16 11,24 24,24l19 0c34,0 65,-11 83,-52 8,-18 10,-23 16,-46 6,-23 64,-238 64,-238 3,-12 -1,-25 -17,-29zm256 -1c-69,0 -99,58 -99,114l0 37 -47 0 0 -127c0,-12 -5,-24 -23,-24 -16,0 -23,11 -23,24l0 321c0,12 7,24 23,24 17,0 23,-11 23,-24l0 -148 47 0 0 68c0,56 30,103 95,103l27 0c65,0 97,-46 97,-102l0 -164c0,-56 -32,-102 -97,-102l-23 0zm72 266c0,32 -14,56 -49,56l-25 0c-35,0 -49,-25 -49,-56l0 -148c0,-32 13,-72 51,-72l23 0c35,0 49,25 49,54l0 166zm486 64l-110 -156 104 -136c9,-12 9,-25 -1,-34 -12,-11 -27,-6 -36,5l-107 146 -31 0 0 -133c0,-12 -7,-24 -24,-24 -17,0 -25,11 -25,24l0 321c0,12 7,24 25,24 16,0 24,-11 24,-24l0 -143 31 0 110 156c7,10 19,16 33,7 14,-10 13,-24 6,-34zm96 -228c0,-32 14,-56 49,-56l41 0c35,0 49,25 49,56l0 164c0,32 -14,56 -49,56l-41 0c-35,0 -49,-25 -49,-56l0 -164zm187 0c0,-56 -32,-102 -97,-102l-41 0c-65,0 -97,46 -97,102l0 164c0,56 32,102 97,102l41 0c65,0 97,-46 97,-102l0 -164zm212 101c-3,-10 -7,-19 -12,-29l-80 -157c-7,-14 -13,-17 -24,-17 -17,0 -24,11 -24,24l0 321c0,12 7,24 24,24 17,0 24,-11 24,-24l0 -198c0,-14 -1,-26 -2,-35l1 0 73 143c4,7 9,12 21,12 12,0 17,-5 21,-12l73 -143 1 0c-1,9 -2,21 -2,35l0 198c0,12 7,24 24,24 17,0 24,-11 24,-24l0 -321c0,-12 -7,-24 -24,-24 -11,0 -17,3 -24,17l-80 157c-5,10 -9,19 -12,29zm401 141c0,12 7,24 23,24 17,0 24,-11 24,-24l0 -321c0,-12 -7,-24 -25,-24 -10,0 -16,4 -24,17l-137 244 -1 0c1,-9 2,-21 2,-35l0 -202c0,-12 -7,-24 -23,-24 -17,0 -24,11 -24,24l0 321c0,12 7,24 25,24 10,0 16,-4 24,-17l137 -244 1 0c-1,9 -2,21 -2,35l0 202zm217 -23c-35,0 -49,-25 -49,-56l0 -164c0,-32 14,-56 49,-56l52 0c22,0 34,9 36,30 1,12 7,24 24,24 17,0 25,-11 25,-24 0,-53 -32,-76 -84,-76l-52 0c-65,0 -97,46 -97,102l0 164c0,56 32,102 97,102l52 0c52,0 84,-23 84,-76 0,-12 -7,-24 -25,-24 -16,0 -23,11 -24,24 -2,21 -14,30 -36,30l-52 0zm289 0c-35,0 -49,-25 -49,-56l0 -164c0,-32 14,-56 49,-56l52 0c22,0 34,9 36,30 1,12 7,24 24,24 17,0 25,-11 25,-24 0,-53 -32,-76 -84,-76l-52 0c-65,0 -97,46 -97,102l0 164c0,56 32,102 97,102l52 0c52,0 84,-23 84,-76 0,-12 -7,-24 -25,-24 -16,0 -23,11 -24,24 -2,21 -14,30 -36,30l-52 0zm380 23c0,12 7,24 23,24 17,0 24,-11 24,-24l0 -321c0,-12 -7,-24 -25,-24 -10,0 -16,4 -24,17l-137 244 -1 0c1,-9 2,-21 2,-35l0 -202c0,-12 -7,-24 -23,-24 -17,0 -24,11 -24,24l0 321c0,12 7,24 25,24 10,0 16,-4 24,-17l137 -244 1 0c-1,9 -2,21 -2,35l0 202zm315 -345c-69,0 -99,58 -99,114l0 37 -47 0 0 -127c0,-12 -5,-24 -23,-24 -16,0 -23,11 -23,24l0 321c0,12 7,24 23,24 17,0 23,-11 23,-24l0 -148 47 0 0 68c0,56 30,103 95,103l27 0c65,0 97,-46 97,-102l0 -164c0,-56 -32,-102 -97,-102l-23 0zm72 266c0,32 -14,56 -49,56l-25 0c-35,0 -49,-25 -49,-56l0 -148c0,-32 13,-72 51,-72l23 0c35,0 49,25 49,54l0 166z"/>
  </g>
 </g>
</svg>
