<?xml version="1.0" encoding="UTF-8"?>
<!DOCTYPE svg PUBLIC "-//W3C//DTD SVG 1.0//EN" "http://www.w3.org/TR/2001/REC-SVG-20010904/DTD/svg10.dtd">
<!-- Creator: CorelDRAW X7 -->
<svg xmlns="http://www.w3.org/2000/svg" xml:space="preserve" width="200mm" height="200mm" version="1.0" style="shape-rendering:geometricPrecision; text-rendering:geometricPrecision; image-rendering:optimizeQuality; fill-rule:evenodd; clip-rule:evenodd"
viewBox="0 0 20000 20000"
 xmlns:xlink="http://www.w3.org/1999/xlink">
 <defs>
  <style type="text/css">
   <![CDATA[
    .str4 {stroke:#3497A1;stroke-width:25}
    .str1 {stroke:#3696A0;stroke-width:25}
    .str2 {stroke:#2B2A29;stroke-width:10}
    .str0 {stroke:#5B5B5B;stroke-width:7.62}
    .str3 {stroke:#2E99A3;stroke-width:7.62}
    .str12 {stroke:#CC7588;stroke-width:150;stroke-linecap:round;stroke-linejoin:round}
    .str5 {stroke:#024541;stroke-width:150;stroke-linecap:round;stroke-linejoin:round}
    .str8 {stroke:#024541;stroke-width:118.73;stroke-linecap:round;stroke-linejoin:round}
    .str9 {stroke:#CC7588;stroke-width:172.55;stroke-linecap:round;stroke-linejoin:round}
    .str11 {stroke:#CC7588;stroke-width:150;stroke-linecap:round;stroke-linejoin:round}
    .str7 {stroke:#024541;stroke-width:150;stroke-linecap:round;stroke-linejoin:round}
    .str16 {stroke:#CC7588;stroke-width:150;stroke-linecap:round;stroke-linejoin:round}
    .str10 {stroke:#CC7588;stroke-width:150;stroke-linecap:round;stroke-linejoin:round}
    .str6 {stroke:#024541;stroke-width:150;stroke-linecap:round;stroke-linejoin:round}
    .str14 {stroke:#CC7588;stroke-width:150;stroke-linecap:round;stroke-linejoin:round}
    .str15 {stroke:#B9687A;stroke-width:150;stroke-linecap:round;stroke-linejoin:round}
    .str13 {stroke:#B9687A;stroke-width:150;stroke-linecap:round;stroke-linejoin:round}
    .fil13 {fill:none}
    .fil25 {fill:#FEFEFE}
    .fil19 {fill:#C5C6C6}
    .fil31 {fill:#F9CCC3}
    .fil23 {fill:#A75F4A}
    .fil27 {fill:#CC6F3C}
    .fil15 {fill:#E31E24}
    .fil32 {fill:#B9687A}
    .fil22 {fill:#B7B0A7}
    .fil16 {fill:#444342}
    .fil28 {fill:#024541}
    .fil29 {fill:#00315E}
    .fil2 {fill:#0050A0}
    .fil17 {fill:#0E1111}
    .fil14 {fill:#1884F0}
    .fil18 {fill:#212226}
    .fil3 {fill:#3497A1}
    .fil21 {fill:#3696A0}
    .fil8 {fill:#3C4F59}
    .fil20 {fill:#434244}
    .fil7 {fill:#7C8E97}
    .fil9 {fill:#8A771A}
    .fil6 {fill:#BB8076}
    .fil5 {fill:#D4EFFF}
    .fil4 {fill:#DBBCB6}
    .fil10 {fill:#E9E5D3}
    .fil11 {fill:#FDF3BE}
    .fil1 {fill:#FEE9D0}
    .fil26 {fill:#FFCA9C}
    .fil12 {fill:white}
    .fil30 {fill:#4D897C;fill-rule:nonzero}
    .fil24 {fill:#024541;fill-rule:nonzero}
    .fil0 {fill:url(#id0)}
   ]]>
  </style>
  <radialGradient id="id0" gradientUnits="userSpaceOnUse" gradientTransform="matrix(1.41421 -0 -0 1.41421 -4131 -4154)" cx="9974.09" cy="10029.4" r="10000" fx="9974.09" fy="10029.4">
   <stop offset="0" style="stop-opacity:1; stop-color:#FEFEFE"/>
   <stop offset="0.439216" style="stop-opacity:1; stop-color:#FEFEFE"/>
   <stop offset="1" style="stop-opacity:1; stop-color:#D1E2F2"/>
  </radialGradient>
 </defs>
 <g id="Layer_x0020_1">
  <metadata id="CorelCorpID_0Corel-Layer"/>
  <path class="fil0" d="M-26 29l20000 0 0 20000 -20000 0 0 -20000z"/>
  <g id="_1076410192240">
   <g>
    <g>
     <path class="fil1 str0" d="M5544 6222l-3243 0 0 -1901 3243 0 0 1901z"/>
     <path class="fil2 str0" d="M5779 4341l-3714 0 239 -461 3237 0 238 461z"/>
     <path class="fil1 str0" d="M2985 4358l931 -738 943 738 -1874 0z"/>
     <path class="fil2 str0" d="M3004 4381l912 -723 925 724c13,10 32,7 42,-6 10,-13 8,-31 -5,-41l-944 -738c-11,-9 -26,-9 -37,0l-930 738c-13,10 -15,29 -5,42 10,13 29,15 42,4z"/>
     <path class="fil3 str0" d="M2901 6080l-462 0 0 -938 462 0 0 938z"/>
     <path class="fil4 str0" d="M2901 6080l0 -14 -448 0 0 -911 435 0 0 925 13 0 0 -14 0 14 14 0 0 -952 -489 0 0 965 489 0 0 -13 -14 0z"/>
     <path class="fil5 str0" d="M2670 5142l0 950 0 -950z"/>
     <path class="fil4 str0" d="M2657 5142l0 950 27 0 0 -950 -27 0z"/>
     <path class="fil3 str0" d="M5405 6080l-462 0 0 -938 462 0 0 938z"/>
     <path class="fil4 str0" d="M5405 6080l0 -14 -448 0 0 -911 435 0 0 925 13 0 0 -14 0 14 14 0 0 -952 -489 0 0 965 489 0 0 -13 -14 0z"/>
     <path class="fil5 str0" d="M5174 5142l0 950 0 -950z"/>
     <path class="fil4 str0" d="M5161 5142l0 950 27 0 0 -950 -27 0z"/>
     <path class="fil6 str0" d="M3283 6222l-52 0 0 -1156 52 0 0 1156z"/>
     <path class="fil6 str0" d="M4614 6222l-52 0 0 -1156 52 0 0 1156z"/>
     <path class="fil2 str0" d="M4718 5087l-1591 0 0 -186 1591 0 0 186z"/>
     <path class="fil7 str0" d="M4399 6222l-953 0 0 -1064 953 0 0 1064z"/>
     <path class="fil8 str0" d="M3929 6222l-13 0 0 -1064 13 0 0 1064z"/>
     <path class="fil8 str0" d="M3878 5728l-43 0c-8,0 -15,-7 -15,-15 0,-8 7,-15 15,-15l43 0c8,0 14,7 14,15 0,8 -6,15 -14,15z"/>
     <path class="fil8 str0" d="M4017 5728l-43 0c-8,0 -14,-7 -14,-15 0,-8 6,-15 14,-15l43 0c8,0 15,7 15,15 0,8 -7,15 -15,15z"/>
     <path class="fil3 str0" d="M2713 4808l-269 0 0 -336 269 0 0 336z"/>
     <path class="fil4 str0" d="M2713 4808l0 -13 -255 0 0 -309 242 0 0 322 13 0 0 -13 0 13 14 0 0 -349 -296 0 0 363 296 0 0 -14 -14 0z"/>
     <path class="fil3 str0" d="M3099 4808l-269 0 0 -336 269 0 0 336z"/>
     <path class="fil4 str0" d="M3099 4808l0 -13 -255 0 0 -309 242 0 0 322 13 0 0 -13 0 13 14 0 0 -349 -296 0 0 363 296 0 0 -14 -14 0z"/>
     <path class="fil3 str0" d="M3485 4808l-269 0 0 -336 269 0 0 336z"/>
     <path class="fil4 str0" d="M3485 4808l0 -13 -255 0 0 -309 242 0 0 322 13 0 0 -13 0 13 14 0 0 -349 -296 0 0 363 296 0 0 -14 -14 0z"/>
     <path class="fil3 str0" d="M3872 4808l-269 0 0 -336 269 0 0 336z"/>
     <path class="fil4 str0" d="M3872 4808l0 -13 -256 0 0 -309 242 0 0 322 14 0 0 -13 0 13 13 0 0 -349 -296 0 0 363 296 0 0 -14 -13 0z"/>
     <path class="fil3 str0" d="M4258 4808l-269 0 0 -336 269 0 0 336z"/>
     <path class="fil4 str0" d="M4258 4808l0 -13 -256 0 0 -309 242 0 0 322 14 0 0 -13 0 13 13 0 0 -349 -296 0 0 363 296 0 0 -14 -13 0z"/>
     <path class="fil3 str0" d="M4644 4808l-269 0 0 -336 269 0 0 336z"/>
     <path class="fil4 str0" d="M4644 4808l0 -13 -256 0 0 -309 242 0 0 322 14 0 0 -13 0 13 13 0 0 -349 -296 0 0 363 296 0 0 -14 -13 0z"/>
     <path class="fil3 str0" d="M5030 4808l-269 0 0 -336 269 0 0 336z"/>
     <path class="fil4 str0" d="M5030 4808l0 -13 -255 0 0 -309 241 0 0 322 14 0 0 -13 0 13 13 0 0 -349 -296 0 0 363 296 0 0 -14 -13 0z"/>
     <path class="fil3 str0" d="M5416 4808l-269 0 0 -336 269 0 0 336z"/>
     <path class="fil4 str0" d="M5416 4808l0 -13 -255 0 0 -309 241 0 0 322 14 0 0 -13 0 13 14 0 0 -349 -297 0 0 363 297 0 0 -14 -14 0z"/>
    </g>
    <path class="fil3 str1" d="M3366 6603l-130 0c-10,0 -18,-3 -24,-9 -6,-7 -9,-15 -9,-23 0,-8 3,-15 8,-22 6,-7 14,-11 25,-11l325 0c10,0 17,4 24,10 6,7 9,15 9,23 0,7 -3,14 -8,22 -5,7 -14,10 -25,10l-130 0 0 555c0,10 -3,18 -9,24 -6,6 -14,8 -23,8 -9,0 -17,-2 -23,-8 -7,-5 -10,-13 -10,-24l0 -555zm749 555c0,10 -3,18 -9,24 -6,6 -14,8 -23,8 -9,0 -16,-2 -23,-8 -6,-5 -10,-13 -10,-24l0 -461 -264 477c-4,6 -9,11 -15,15l-6 4c-3,1 -6,2 -11,3 -6,0 -13,-3 -21,-10 -6,-6 -9,-16 -9,-28l0 -587c0,-8 4,-16 10,-24 7,-5 14,-8 23,-8 8,0 16,3 22,8 7,5 10,13 10,24l0 461 265 -476c3,-6 8,-11 14,-16 6,-5 12,-7 17,-7 8,0 14,4 20,11 7,7 10,16 10,27l0 587zm196 -338l274 -273c7,-6 14,-9 23,-9 8,0 15,4 22,10 7,7 11,15 11,24 0,5 -3,13 -10,22l-194 193 200 354 5 18c0,8 -4,15 -11,22 -7,6 -14,9 -24,9 -10,0 -20,-5 -27,-17l-192 -340 -77 77 0 248c0,10 -3,18 -10,24 -6,6 -13,8 -23,8 -8,0 -16,-2 -23,-8 -6,-5 -9,-13 -9,-24l0 -588c0,-8 3,-16 10,-22 6,-6 14,-10 22,-10 8,0 16,3 23,8 6,5 10,13 10,24l0 250z"/>
   </g>
   <g>
    <path class="fil9" d="M10523 3490l-24 0 0 -661 24 0 0 661z"/>
    <path class="fil10 str0" d="M13039 6247l-5036 0 0 -2109 5036 0 0 2109z"/>
    <path class="fil10" d="M9018 4320l1492 -852 1514 852 -3006 0z"/>
    <path class="fil11 str0" d="M9018 4320l16 29 1476 -843 1387 781 -2879 0 0 33 16 29 -16 -29 0 33 3132 0 -1640 -923 -1617 923 125 0 0 -33z"/>
    <path class="fil3 str0" d="M11950 6103l-2859 0 0 -1728 2859 0 0 1728z"/>
    <path class="fil11 str0" d="M12140 4603l-3238 0 0 -265 3238 0 0 265z"/>
    <path class="fil12" d="M10283 4075c87,131 265,167 396,79 132,-88 167,-265 80,-396 -88,-132 -266,-167 -397,-80 -131,88 -167,265 -79,397z"/>
    <path class="fil9" d="M10283 4075l-16 11c58,88 155,136 254,136 58,0 117,-17 169,-52 88,-59 136,-155 136,-254 0,-58 -16,-117 -51,-169 -59,-88 -156,-136 -255,-136 -58,0 -117,16 -169,51 -88,59 -136,156 -136,254 0,59 17,118 52,170l16 -11 16 -11c-30,-45 -45,-97 -45,-148 0,-86 42,-170 119,-221 45,-31 97,-45 147,-45 87,0 171,41 222,118 31,46 45,97 45,148 0,86 -41,171 -118,222 -46,30 -97,45 -148,45 -86,0 -171,-42 -222,-119l-16 11z"/>
    <path class="fil7" d="M10501 3920l16 -11 126 189 -16 10 -126 -188z"/>
    <path class="fil7" d="M10518 3930l-17 -10 113 -196 17 10 -113 196z"/>
    <path class="fil11 str0" d="M9269 6247l-338 0 0 -144 338 0 0 144z"/>
    <path class="fil11 str0" d="M9232 6155l-257 0 22 -1562 213 0 22 1562z"/>
    <path class="fil11 str0" d="M9226 4579c-16,0 -235,0 -252,0 -40,0 -73,32 -73,73 0,40 33,73 73,73 27,0 50,-15 63,-36l127 0c13,21 36,36 62,36 41,0 73,-33 73,-73 0,-41 -32,-73 -73,-73z"/>
    <path class="fil11 str0" d="M12110 6247l-338 0 0 -144 338 0 0 144z"/>
    <path class="fil11 str0" d="M12072 6155l-257 0 22 -1562 213 0 22 1562z"/>
    <path class="fil11 str0" d="M12067 4579c-17,0 -236,0 -252,0 -41,0 -73,32 -73,73 0,40 32,73 73,73 26,0 49,-15 62,-36l127 0c13,21 36,36 63,36 40,0 73,-33 73,-73 0,-41 -33,-73 -73,-73z"/>
    <path class="fil11 str0" d="M11163 6247l-338 0 0 -144 338 0 0 144z"/>
    <path class="fil11 str0" d="M11125 6155l-257 0 22 -1562 213 0 22 1562z"/>
    <path class="fil11 str0" d="M11120 4579c-17,0 -236,0 -252,0 -41,0 -73,32 -73,73 0,40 32,73 73,73 26,0 49,-15 62,-36l128 0c12,21 35,36 62,36 40,0 73,-33 73,-73 0,-41 -33,-73 -73,-73z"/>
    <path class="fil11 str0" d="M10216 6247l-338 0 0 -144 338 0 0 144z"/>
    <path class="fil11 str0" d="M10179 6155l-257 0 22 -1562 213 0 22 1562z"/>
    <path class="fil11 str0" d="M10173 4579c-16,0 -236,0 -252,0 -40,0 -73,32 -73,73 0,40 33,73 73,73 27,0 50,-15 62,-36l128 0c12,21 36,36 62,36 40,0 73,-33 73,-73 0,-41 -33,-73 -73,-73z"/>
    <path class="fil3" d="M8310 5928l-131 0 0 -1203 131 0 0 1203z"/>
    <path class="fil3" d="M8564 5928l-131 0 0 -1203 131 0 0 1203z"/>
    <path class="fil3" d="M8817 5928l-131 0 0 -1203 131 0 0 1203z"/>
    <path class="fil3" d="M12343 5928l-130 0 0 -1203 130 0 0 1203z"/>
    <path class="fil3" d="M12597 5928l-131 0 0 -1203 131 0 0 1203z"/>
    <path class="fil3" d="M12850 5928l-130 0 0 -1203 130 0 0 1203z"/>
    <path class="fil13 str2" d="M10520 2835l661 0 0 129 -661 0 0 -129z"/>
    <path class="fil14 str2" d="M10520 2962l661 0 0 130 -661 0 0 -130z"/>
    <path class="fil15 str2" d="M10520 3089l661 0 0 130 -661 0 0 -130z"/>
   </g>
   <path class="fil3 str1" d="M9908 7065c0,36 -12,67 -38,92 -25,26 -56,39 -92,39l-130 0c-36,0 -66,-13 -92,-38 -26,-25 -39,-56 -39,-93l0 -391c0,-36 13,-67 38,-92 26,-25 56,-38 93,-38l130 0c36,0 67,13 92,38 26,26 38,56 38,92l0 391zm-65 1l0 -392c0,-18 -6,-34 -18,-46 -12,-13 -28,-19 -47,-19l-130 0c-19,0 -34,6 -47,18 -6,7 -11,14 -14,22 -3,8 -5,16 -5,25l0 392c0,18 6,34 19,47 6,5 13,10 21,13 9,4 18,5 26,5l130 0c18,0 33,-6 46,-18 13,-12 19,-28 19,-47zm704 97c0,11 -2,19 -8,25 -7,5 -15,8 -24,8 -8,0 -15,-3 -22,-8 -7,-6 -10,-14 -10,-25l0 -465 -135 225c-8,14 -18,21 -29,21 -9,0 -18,-7 -28,-21l-135 -225 0 465c0,11 -3,19 -10,25 -6,5 -13,8 -23,8 -8,0 -16,-3 -23,-8 -6,-6 -9,-14 -9,-25l0 -583c0,-13 3,-22 9,-28 6,-7 13,-10 21,-10 6,0 11,2 15,5 5,3 10,8 15,16l168 279 168 -279c7,-14 18,-21 31,-21 7,0 14,3 21,10 6,7 8,17 8,28l0 583zm424 33l-163 0c-36,0 -66,-13 -92,-38 -26,-25 -39,-56 -39,-93l0 -391c0,-36 13,-67 38,-92 25,-25 56,-38 93,-38l163 0c9,0 16,3 23,10 6,6 9,14 9,22 0,8 -2,15 -8,22 -5,7 -13,11 -24,11l-164 0c-18,0 -34,6 -46,18 -7,7 -11,14 -14,22 -3,8 -5,16 -5,25l0 392c0,18 6,34 19,47 6,5 13,10 21,13 9,4 17,5 25,5l164 0c9,0 16,3 23,10 6,7 9,14 9,23 0,7 -2,14 -8,21 -5,7 -13,11 -24,11zm488 -261l-195 0c-36,0 -66,-13 -92,-38 -26,-25 -39,-56 -39,-93l0 -228c0,-8 3,-16 10,-24 6,-5 14,-8 23,-8 8,0 16,3 22,8 7,5 10,14 10,24l0 229c0,18 6,34 19,46 6,6 13,10 21,14 9,3 18,5 25,5l196 0 0 -294c0,-8 3,-16 10,-24 6,-5 14,-8 23,-8 8,0 16,3 22,8 7,5 10,14 10,24l0 489c0,36 -13,67 -38,92 -25,26 -56,39 -92,39l-163 0c-10,0 -18,-3 -24,-9 -6,-7 -9,-15 -9,-23 0,-8 3,-16 9,-22 6,-7 14,-11 24,-11l163 0c18,0 34,-6 46,-18 13,-12 19,-28 19,-47l0 -131z"/>
   <path class="fil16" d="M10561 8490c-2,-85 -5,-169 -8,-254 0,-13 0,-25 0,-38 4,97 6,195 8,292zm4 362c0,4 -1,8 -2,10 0,2 0,5 0,7 -5,-4 -9,-8 -14,-12 -3,-6 -1,-20 -2,-27 0,-3 0,-7 -1,-11 2,11 3,21 4,32 1,8 12,7 15,1zm-27 -304c0,-37 -1,-74 -1,-111 0,-40 1,-80 2,-120 2,113 4,227 7,341 -3,-37 -6,-73 -8,-110zm-13 126c1,41 3,81 5,122 0,1 0,2 0,4 -2,-42 -4,-84 -5,-126zm141 -547c-20,-51 -42,-100 -64,-149 -13,-42 -27,-83 -40,-125 -4,-12 -21,-7 -19,5 0,4 1,7 2,11 0,0 0,0 0,1 -1,1 -2,2 -2,4 -1,2 -2,3 -3,5 -1,0 -2,-1 -3,-1 0,-1 0,-1 0,-2 0,0 0,-1 0,-1 5,-10 -10,-20 -15,-10 -1,1 -1,2 -1,2 -3,2 -5,5 -5,8 -7,14 -15,28 -23,42 -16,26 -31,52 -44,79 -28,49 -53,99 -73,151 -4,10 11,17 16,8 2,-4 4,-9 7,-13 0,0 0,0 0,0 -1,3 -2,6 -3,8 -2,10 13,18 18,8 3,-8 7,-16 11,-24 2,-1 3,-2 4,-4 4,-7 7,-14 11,-21 0,1 1,2 1,2 1,3 4,4 7,3 1,0 2,0 3,0 7,-2 4,-13 -3,-12 9,-1 22,-45 26,-54 4,-10 9,-20 14,-30 12,-23 23,-45 35,-68 -1,21 -2,42 -3,62 -27,290 -25,581 1,871 1,9 15,10 14,1 0,-11 -1,-22 -2,-33 5,27 15,51 41,39 3,-1 4,-4 4,-7 3,-303 -5,-607 -21,-910 25,61 51,121 77,181 4,9 15,6 18,-1 6,-1 10,-6 8,-12 -1,-1 -1,-2 -1,-2 5,-2 9,-6 7,-12z"/>
   <path class="fil16" d="M5424 8588c-43,-60 -86,-120 -130,-180 -6,-9 -12,-18 -19,-27 50,68 100,137 149,207zm179 259c2,3 3,5 3,8 2,1 3,3 4,5 -5,-1 -11,-1 -16,-2 -5,-3 -11,-14 -14,-18 -2,-3 -4,-6 -6,-8 6,7 12,14 18,21 4,5 12,-1 11,-6zm-168 -207c-18,-26 -37,-53 -55,-79 -19,-29 -38,-58 -57,-88 57,81 114,162 172,243 -21,-25 -40,-50 -60,-76zm53 98c20,28 41,57 62,85 1,1 2,2 2,3 -22,-29 -43,-58 -64,-88zm-166 -464c-39,-26 -79,-51 -119,-75 -30,-24 -60,-48 -90,-71 -8,-6 -18,5 -11,13 2,2 5,4 7,6 0,1 0,1 0,2 0,1 0,2 1,3 0,2 0,4 1,5 -1,0 -2,0 -3,1 -1,-1 -1,-1 -2,-1 0,-1 0,-1 0,-1 -1,-10 -16,-10 -15,1 0,0 0,1 0,1 -1,3 -1,6 0,8 2,14 3,28 4,42 1,26 3,52 7,78 4,49 10,97 21,145 2,9 16,6 15,-3 0,-4 -1,-8 -1,-12 0,0 0,0 0,0 1,2 1,5 2,7 3,8 18,7 16,-3 -1,-8 -2,-15 -3,-23 1,-1 1,-3 1,-5 -1,-6 -2,-13 -2,-20 0,0 1,1 1,1 2,1 5,1 7,-1 0,-1 1,-1 2,-2 4,-5 -3,-12 -8,-7 5,-5 -7,-43 -8,-51 -2,-10 -3,-20 -5,-29 -2,-22 -5,-44 -7,-66 9,15 18,31 28,46 122,222 265,431 426,628 5,6 15,-1 10,-7 -6,-8 -11,-15 -17,-22 16,17 35,28 48,7 1,-2 1,-5 0,-6 -146,-221 -300,-436 -460,-646 48,31 96,62 145,93 6,4 13,-3 12,-10 3,-3 4,-9 -1,-12 0,-1 -1,-1 -1,-1 3,-4 4,-9 -1,-13z"/>
   <g>
    <path class="fil13 str3" d="M15711 3830l24 29c-18,68 -6,7 -25,41 -33,58 -50,511 -53,595 -3,62 -4,78 -49,137l-26 26c-77,-31 -54,-135 -48,-202 20,-191 6,-314 85,-461 48,-90 -1,-98 63,-173 18,-19 8,-10 23,-33 -18,-8 -18,-4 -35,-20 -36,-34 19,44 -23,-34 -70,16 -179,95 -247,132 22,58 -37,142 -52,171 -2,4 -4,6 -5,10 -13,27 -6,13 -12,42 -29,143 11,120 -5,279 -14,133 -49,469 -19,570 44,148 59,35 21,254 -4,26 -8,21 -2,46 20,78 3,24 35,47 -8,-80 1,-155 6,-233 3,-50 29,-172 54,-207 206,90 402,-2 597,-37 12,16 6,4 19,27 12,23 46,189 25,230 -23,44 -31,-38 -61,112 18,19 8,7 21,18l26 23c-37,44 -7,92 0,149 32,-98 81,-52 169,-90 23,17 4,-10 13,37 48,-41 6,-137 47,-270 68,-220 101,-696 26,-822l-56 26c3,3 18,16 19,18 13,25 12,-10 0,20 -87,-45 -103,-189 -74,-250l83 5c-7,-52 -34,-81 -58,-132 -43,-92 24,-55 -118,-136 -56,-31 -23,-30 -81,-46 -37,-10 -50,2 -76,-17 -24,-18 -16,-28 -40,-63 -14,65 23,16 -43,67 -13,10 -32,19 -54,31 -113,61 -85,40 -94,84z"/>
    <path class="fil17" d="M16048 5368c-45,18 -14,8 -40,38l-80 80c-20,23 -8,28 -72,52 -35,13 -38,11 -84,-3 -49,-15 -66,-15 -103,-46 2,-1 6,-1 7,-1l23 0c10,1 38,9 40,10l29 0c3,-1 7,-3 9,-4 42,-19 -7,21 24,-24 -46,-6 -90,-2 -126,-29 48,-10 73,-12 117,-30 -4,-4 -8,-6 -12,-8 -62,-33 -46,-15 -112,-25 31,-23 70,-23 101,-38 -24,-22 32,-4 -41,-21l-183 -9c-95,116 28,-12 -83,79 3,2 8,4 11,5l60 20c-70,2 -95,-19 -126,30l138 20c-41,23 -13,5 -45,7 -61,5 -31,12 -57,17l-12 0c-2,0 -6,-2 -8,-2 -2,-1 -6,-3 -8,-3 -19,-5 8,-3 -23,-7l-6 30c-13,90 82,493 100,626 14,97 50,218 43,312 -8,120 -23,230 26,326l-18 18c-12,15 -5,2 -15,21 -24,47 1,90 -96,141 -72,37 -193,51 -157,131 17,19 92,19 126,15 37,-5 84,-13 121,-20 76,-13 126,-46 219,-55 -15,66 -64,110 -14,160 54,35 176,3 222,-38 19,-16 75,-165 81,-205 14,-110 -62,-49 2,-209 21,-51 50,-188 56,-245 16,-161 -7,-405 -11,-572 -2,-86 27,-159 30,-252 12,-347 -45,-275 129,-345 -9,-47 10,-20 -13,-37 -88,38 -137,-8 -169,90z"/>
    <path class="fil18" d="M15361 5286c1,71 -4,174 25,220l6 -30c31,4 4,2 23,7 2,0 6,2 8,3 2,0 6,2 8,2l12 0c26,-5 -4,-12 57,-17 32,-2 4,16 45,-7l-138 -20c31,-49 56,-28 126,-30l-60 -20c-3,-1 -8,-3 -11,-5 111,-91 -12,37 83,-79l183 9c73,17 17,-1 41,21 -31,15 -70,15 -101,38 66,10 50,-8 112,25 4,2 8,4 12,8 -44,18 -69,20 -117,30 36,27 80,23 126,29 -31,45 18,5 -24,24 -2,1 -6,3 -9,4l-29 0c-2,-1 -30,-9 -40,-10l-23 0c-1,0 -5,0 -7,1 37,31 54,31 103,46 46,14 49,16 84,3 64,-24 52,-29 72,-52l80 -80c26,-30 -5,-20 40,-38 -7,-57 -37,-105 0,-149l-26 -23c-13,-11 -3,1 -21,-18 30,-150 38,-68 61,-112 21,-41 -13,-207 -25,-230 -13,-23 -7,-11 -19,-27 -195,35 -391,127 -597,37 -25,35 -51,157 -54,207 -5,78 -14,153 -6,233z"/>
    <path class="fil18" d="M15542 3399c58,-25 138,-29 213,-20 114,13 112,-6 128,108 42,-28 3,-29 73,-39 318,-102 -209,-642 -444,-318 -104,143 -2,227 30,269z"/>
    <path class="fil19" d="M15542 3399c42,126 -13,141 57,231 27,35 55,73 48,105 42,78 -13,0 23,34 17,16 17,12 35,20 -15,23 -5,14 -23,33l29 8c9,-44 -19,-23 94,-84 22,-12 41,-21 54,-31 66,-51 29,-2 43,-67 2,-100 78,-50 54,-200 -70,10 -31,11 -73,39 -16,-114 -14,-95 -128,-108 -75,-9 -155,-5 -213,20z"/>
    <path class="fil18" d="M15711 3830l-29 -8c-64,75 -15,83 -63,173 -79,147 -65,270 -85,461 -6,67 -29,171 48,202l26 -26c45,-59 46,-75 49,-137 3,-84 20,-537 53,-595 19,-34 7,27 25,-41l-24 -29z"/>
    <path class="fil20" d="M16303 4223l-28 -181 -83 -5c-29,61 -13,205 74,250 12,-30 13,5 0,-20 -1,-2 -16,-15 -19,-18l56 -26z"/>
   </g>
   <path class="fil16" d="M14760 8588c43,-60 86,-120 129,-180 7,-9 13,-18 20,-27 -51,68 -100,137 -149,207zm-179 259c-2,3 -3,5 -4,8 -1,1 -2,3 -3,5 5,-1 10,-1 16,-2 5,-3 10,-14 14,-18 2,-3 4,-6 6,-8 -6,7 -12,14 -18,21 -5,5 -13,-1 -11,-6zm168 -207c18,-26 36,-53 54,-79 20,-29 39,-58 58,-88 -57,81 -115,162 -172,243 20,-25 40,-50 60,-76zm-53 98c-21,28 -41,57 -63,85 0,1 -1,2 -2,3 22,-29 44,-58 65,-88zm166 -464c39,-26 78,-51 119,-75 29,-24 59,-48 89,-71 9,-6 19,5 12,13 -3,2 -5,4 -7,6 0,1 0,1 -1,2 1,1 0,2 0,3 -1,2 -1,4 -1,5 1,0 2,0 3,1 0,-1 1,-1 1,-1 0,-1 0,-1 0,-1 2,-10 17,-10 16,1 0,0 0,1 0,1 1,3 1,6 -1,8 -1,14 -2,28 -4,42 0,26 -3,52 -6,78 -4,49 -10,97 -21,145 -2,9 -17,6 -15,-3 0,-4 0,-8 1,-12 0,0 0,0 0,0 -1,2 -2,5 -2,7 -4,8 -18,7 -17,-3 2,-8 3,-15 4,-23 -1,-1 -1,-3 -1,-5 1,-6 1,-13 2,-20 0,0 -1,1 -2,1 -2,1 -4,1 -6,-1 0,-1 -1,-1 -2,-2 -4,-5 3,-12 8,-7 -6,-5 6,-43 8,-51 1,-10 3,-20 4,-29 3,-22 5,-44 8,-66 -9,15 -19,31 -28,46 -122,222 -266,431 -426,628 -5,6 -16,-1 -10,-7 5,-8 11,-15 17,-22 -16,17 -35,28 -48,7 -2,-2 -1,-5 0,-6 146,-221 299,-436 459,-646 -48,31 -96,62 -144,93 -6,4 -13,-3 -12,-10 -3,-3 -4,-9 0,-12 1,-1 2,-1 2,-1 -3,-4 -4,-9 1,-13z"/>
   <g>
    <path class="fil21 str4" d="M7379 17147c0,9 -3,16 -8,22 -5,5 -12,7 -21,7 -7,0 -14,-2 -20,-7 -6,-5 -9,-12 -9,-22l0 -493 -232 0 0 493c0,9 -2,16 -8,22 -5,5 -12,7 -20,7 -8,0 -15,-2 -21,-7 -5,-5 -8,-12 -8,-22l0 -521c0,-20 9,-29 29,-29l289 0c19,0 29,9 29,29l0 521zm173 -261l174 0c16,0 30,-5 41,-16 12,-11 17,-25 17,-42l0 -116c0,-16 -5,-30 -16,-41 -11,-11 -25,-17 -42,-17l-174 0 0 232zm0 58l0 203c0,9 -2,16 -8,22 -5,5 -12,7 -20,7 -8,0 -15,-2 -21,-7 -5,-5 -8,-12 -8,-22l0 -521c0,-20 9,-29 29,-29l202 0c32,0 60,11 82,34 23,22 34,50 34,82l0 115c0,32 -11,59 -34,82 -23,23 -50,34 -82,34l-174 0zm463 -115l146 0c8,0 15,3 20,9 6,5 9,12 9,20 0,6 -2,13 -7,19 -5,6 -12,9 -22,9l-146 0 0 232 204 0c8,0 15,3 20,9 6,6 9,13 9,20 0,7 -2,14 -7,20 -5,6 -12,9 -22,9l-232 0c-20,0 -29,-9 -29,-27l0 -523c0,-20 9,-29 29,-29l232 0c8,0 15,3 20,9 6,5 9,12 9,20 0,7 -2,13 -7,19 -5,6 -12,9 -22,9l-204 0 0 175zm409 289l55 -496c0,-17 9,-25 29,-25l173 0c19,0 29,9 29,29l0 492 29 0c20,0 29,10 29,29l0 58c0,8 -2,14 -8,20 -6,6 -13,8 -20,8 -7,0 -13,-2 -20,-7 -6,-4 -9,-12 -9,-21l0 -29 -290 0 0 29c0,8 -3,14 -9,20 -6,6 -13,8 -20,8 -7,0 -13,-2 -20,-7 -6,-4 -9,-12 -9,-21l0 -58c0,-19 10,-29 29,-29l32 0zm228 0l0 -464 -118 0 -52 464 170 0zm463 58l-145 0c-31,0 -58,-11 -81,-34 -23,-22 -35,-50 -35,-82l0 -347c0,-33 12,-60 34,-82 23,-23 50,-34 82,-34l145 0c8,0 15,3 21,9 5,5 8,12 8,20 0,6 -2,13 -7,19 -5,6 -12,9 -22,9l-145 0c-16,0 -30,6 -41,17 -6,6 -10,12 -13,19 -3,7 -4,14 -4,22l0 348c0,17 6,30 17,42 5,5 12,9 18,12 8,3 16,4 23,4l145 0c8,0 15,3 21,9 5,6 8,13 8,20 0,7 -2,13 -7,19 -5,7 -12,10 -22,10zm202 -347l146 0c8,0 15,3 20,9 6,5 9,12 9,20 0,6 -3,13 -8,19 -4,6 -12,9 -21,9l-146 0 0 232 204 0c8,0 14,3 20,9 6,6 9,13 9,20 0,7 -3,14 -8,20 -4,6 -12,9 -21,9l-233 0c-19,0 -28,-9 -28,-27l0 -523c0,-20 9,-29 28,-29l233 0c8,0 15,3 20,9 6,5 9,12 9,20 0,7 -3,13 -8,19 -4,6 -12,9 -21,9l-204 0 0 175zm409 289l54 -496c0,-17 10,-25 29,-25l174 0c19,0 29,9 29,29l0 492 29 0c20,0 29,10 29,29l0 58c0,8 -3,14 -9,20 -5,6 -12,8 -20,8 -6,0 -13,-2 -19,-7 -6,-4 -9,-12 -9,-21l0 -29 -291 0 0 29c0,8 -3,14 -9,20 -5,6 -12,8 -20,8 -6,0 -13,-2 -19,-7 -6,-4 -9,-12 -9,-21l0 -58c0,-19 9,-29 29,-29l32 0zm228 0l0 -464 -119 0 -52 464 171 0zm333 -87l-42 125c-2,6 -5,11 -10,15 -4,2 -10,4 -16,5 -8,0 -15,-3 -20,-8 -7,-5 -10,-12 -10,-20l2 -10 174 -521c6,-17 15,-25 28,-25 12,0 21,8 27,25l173 521 2 10c0,7 -3,14 -9,20 -6,5 -13,8 -21,8 -4,0 -8,-1 -13,-3 -5,-2 -9,-8 -13,-17l-42 -125 -210 0zm191 -59l-85 -255 -86 255 171 0zm257 -318l-115 0c-9,0 -16,-2 -22,-7 -5,-7 -7,-14 -7,-21 0,-7 2,-13 7,-20 5,-6 12,-9 22,-9l289 0c8,0 15,3 20,9 6,5 9,12 9,20 0,6 -3,13 -7,19 -5,6 -13,9 -22,9l-116 0 0 493c0,9 -3,16 -8,22 -5,5 -12,7 -21,7 -7,0 -14,-2 -20,-7 -6,-5 -9,-12 -9,-22l0 -493zm376 175l146 0c8,0 15,3 20,9 6,5 9,12 9,20 0,6 -2,13 -7,19 -5,6 -13,9 -22,9l-146 0 0 232 204 0c8,0 15,3 20,9 6,6 9,13 9,20 0,7 -3,14 -7,20 -5,6 -13,9 -22,9l-232 0c-20,0 -29,-9 -29,-27l0 -523c0,-20 9,-29 29,-29l232 0c8,0 15,3 20,9 6,5 9,12 9,20 0,7 -3,13 -8,19 -4,6 -12,9 -21,9l-204 0 0 175zm696 318c0,9 -3,16 -8,22 -6,5 -13,7 -21,7 -8,0 -14,-2 -20,-7 -6,-5 -9,-12 -9,-22l0 -493 -94 0 -139 500c-1,6 -4,11 -10,16 -5,4 -11,6 -17,6 -9,0 -16,-2 -22,-7 -5,-5 -8,-12 -8,-21 0,-4 0,-7 1,-8l145 -522c4,-14 14,-21 28,-21l145 0c19,0 29,9 29,29l0 521zm172 -260l174 0c17,0 30,5 42,16 11,11 16,25 16,42l0 115c0,17 -5,30 -16,42 -6,5 -12,9 -19,12 -7,3 -15,4 -23,4l-174 0 0 -231zm0 -58l0 -203c0,-8 -3,-15 -9,-20 -5,-6 -12,-9 -19,-9 -7,0 -13,2 -20,7 -6,5 -9,12 -9,22l0 521c0,19 9,29 29,29l202 0c31,0 58,-11 81,-34 23,-22 35,-49 35,-82l0 -116c0,-31 -11,-58 -34,-81 -22,-23 -50,-34 -82,-34l-174 0zm1043 115l-174 0c-32,0 -59,-11 -82,-34 -23,-22 -34,-50 -34,-82l0 -202c0,-8 3,-15 9,-22 5,-5 12,-7 20,-7 7,0 14,2 20,7 6,5 9,12 9,22l0 203c0,16 5,30 16,41 6,5 12,9 19,12 8,3 16,4 23,4l174 0 0 -260c0,-8 2,-15 8,-22 6,-5 13,-7 20,-7 8,0 14,2 20,7 6,5 9,12 9,22l0 434c0,32 -11,59 -34,82 -22,22 -50,34 -82,34l-144 0c-9,0 -16,-3 -22,-8 -5,-6 -7,-13 -7,-21 0,-7 2,-13 8,-19 5,-7 12,-10 21,-10l145 0c16,0 29,-5 41,-16 11,-11 17,-25 17,-42l0 -116zm520 203c0,9 -3,16 -8,22 -5,5 -12,7 -21,7 -7,0 -14,-2 -20,-7 -6,-5 -8,-12 -8,-22l0 -409 -235 423c-4,6 -8,11 -13,14l-6 4c-2,0 -5,1 -9,2 -6,0 -12,-3 -19,-9 -5,-6 -8,-14 -8,-25l0 -521c0,-8 3,-15 9,-21 5,-5 12,-8 20,-8 7,0 14,3 20,7 6,5 9,12 9,22l0 409 235 -423c2,-4 6,-9 12,-14 5,-4 10,-6 16,-6 6,0 12,4 17,10 6,6 9,14 9,24l0 521zm174 -300l244 -242c5,-6 12,-8 19,-8 8,0 14,3 21,9 6,6 9,13 9,21 0,5 -3,11 -9,19l-172 172 178 314 4 16c0,7 -3,14 -10,19 -6,6 -13,9 -21,9 -9,0 -17,-5 -24,-15l-170 -302 -69 68 0 220c0,9 -3,16 -9,22 -5,5 -12,7 -20,7 -8,0 -15,-2 -20,-7 -6,-5 -9,-12 -9,-22l0 -522c0,-7 3,-14 9,-20 6,-5 12,-8 20,-8 7,0 14,2 20,6 6,5 9,13 9,22l0 222z"/>
    <path class="fil22 str5" d="M12006 13251l0 777c0,323 -259,579 -575,579l-1185 0 0 1344 0 0 -2727 0 0 -1543c0,-322 259,-586 575,-586l462 0 631 1509 631 -1509 336 0 306 0c138,0 227,62 300,154 95,120 508,-104 508,78l0 -803 738 0z"/>
    <path class="fil22 str6" d="M9187 15451l-434 -443 0 -296 -357 -266 77 -624 83 0 631 1509 631 -1509 83 0 77 624 -357 266 0 296 -434 443z"/>
    <path class="fil23 str6" d="M9375 14882l-188 449 -191 -457 90 -619 101 0 101 0 87 627z"/>
    <g>
     <path class="fil23" d="M9385 13986l-396 0 97 269 101 0 101 0 97 -269z"/>
     <path id="1" class="fil24" d="M8989 13912l396 0 0 148 -396 0 -71 -49 71 -99zm0 148c-42,0 -75,-33 -75,-74 0,-41 33,-74 75,-74l0 148zm26 220l-97 -269 142 -50 97 269 -71 99 -71 -49zm142 -50c13,38 -7,81 -46,95 -39,14 -82,-7 -96,-45l142 -50zm30 99l-101 0 0 -149 101 0 0 0 0 149zm0 -149c41,0 75,34 75,75 0,41 -34,74 -75,74l0 -149zm101 149l-101 0 0 -149 101 0 71 100 -71 49zm0 -149c42,0 75,34 75,75 0,41 -33,74 -75,74l0 -149zm168 -169l-97 269 -142 -50 97 -269 71 -49 71 99zm-142 -50c14,-39 57,-59 96,-45 39,14 60,56 46,95l-142 -50z"/>
    </g>
    <path class="fil25 str6" d="M8556 13822l380 468 107 -153 -54 -151 -290 -383 -143 219z"/>
    <path class="fil13 str7" d="M8156 15051l0 901"/>
    <path class="fil13 str6" d="M9187 15331l0 621"/>
    <path class="fil26 str7" d="M9187 13569c217,1 977,-306 977,-816l0 -584c-130,-306 -40,-501 -199,-672 -155,66 -322,60 -498,4 -172,374 -816,211 -1058,-4 -159,171 -69,366 -199,672l0 584c0,510 760,817 977,816z"/>
    <path class="fil26 str7" d="M9385 13986l132 -174 0 -332c-137,59 -261,89 -330,89 -69,0 -193,-30 -330,-89l0 332 132 174 396 0z"/>
    <path class="fil25 str6" d="M9818 13822l-380 468 -107 -153 54 -151 290 -383 143 219z"/>
    <path class="fil27 str7" d="M9187 10638c-56,-10 -113,-16 -172,-16l0 0c-532,0 -966,435 -966,966l0 650c39,-42 97,-69 161,-69 130,-306 40,-501 199,-672 237,206 886,378 1058,4 176,56 343,62 498,-4 159,171 69,366 199,672 64,0 122,27 161,69l0 -650c0,-531 -434,-966 -966,-966l0 0c-59,0 -116,6 -172,16zm-1121 1883c27,141 85,272 167,384 -15,-48 -23,-99 -23,-152l0 -180c-55,0 -106,-20 -144,-52zm2098 52l0 180c0,53 -8,104 -23,152 82,-113 140,-243 167,-384 -38,32 -89,52 -144,52z"/>
    <path class="fil25 str7" d="M8857 13578l0 234 -158 -209 158 -25z"/>
    <path class="fil25 str7" d="M9517 13578l0 234 158 -209 -158 -25z"/>
    <path class="fil25 str7" d="M9398 15310l563 0 0 324 -563 0 0 -324z"/>
    <path class="fil28 str8" d="M9638 12257c-37,0 -68,31 -68,68 0,38 31,68 68,68 38,0 68,-30 68,-68 0,-37 -30,-68 -68,-68zm-902 0c37,0 68,31 68,68 0,38 -31,68 -68,68 -38,0 -68,-30 -68,-68 0,-37 30,-68 68,-68z"/>
    <path class="fil25 str7" d="M7996 12371c0,-111 96,-202 214,-202l0 202 0 202c-118,0 -214,-90 -214,-202zm2382 0c0,-111 -96,-202 -214,-202l0 202 0 202c118,0 214,-90 214,-202z"/>
    <path class="fil29 str7" d="M9334 13197c-36,41 -97,68 -167,68 -110,0 -200,-69 -200,-154 0,-30 12,-59 32,-83 81,83 199,144 335,169z"/>
    <path class="fil27 str7" d="M8819 12900c242,-134 480,-117 715,0 0,32 0,63 0,95 0,76 0,11 0,87 -238,0 -477,0 -715,0 0,-108 0,-74 0,-182z"/>
    <path class="fil13 str9" d="M7496 15638l-349 -1304"/>
    <g>
     <path class="fil30" d="M7172 16024c-36,0 -65,-33 -65,-72 0,-40 29,-72 65,-72l0 144zm6663 0l-6663 0 0 -144 6663 0 0 144zm0 -144c36,0 66,32 66,72 0,39 -30,72 -66,72l0 -144z"/>
    </g>
    <path class="fil26 str7" d="M7172 15952l976 0c0,-48 0,-113 0,-158 0,-220 -101,-341 -250,-382 -91,-25 -237,-25 -322,27 -61,37 -111,100 -109,148 -101,-123 -299,-10 -299,200 0,29 4,112 4,165z"/>
    <path class="fil31 str10" d="M11217 12309l-106 0c-106,0 -182,-31 -230,-92 -48,-61 -72,-159 -72,-293 0,-97 16,-163 48,-197 32,-35 93,-52 182,-52l114 0c-29,89 -43,169 -43,241 0,135 36,266 107,393zm409 1696c-121,72 -315,120 -468,146 -17,-78 -32,-156 -32,-232 0,-151 18,-405 196,-405 131,0 197,-198 197,-593 0,-408 -66,-612 -198,-612l-107 0c-79,-136 -104,-261 -104,-393 0,-79 14,-164 43,-241 144,24 343,73 473,146 62,167 109,341 140,522 30,181 46,369 46,563 0,202 -16,394 -46,577 -31,184 -78,357 -140,522zm-468 146l-145 0c-82,0 -138,-18 -168,-53 -30,-35 -45,-99 -45,-193 0,-133 24,-231 70,-295 47,-64 118,-96 214,-96l142 0c-66,125 -100,260 -100,405 0,83 11,160 32,232z"/>
    <path class="fil31 str11" d="M12524 14727l362 0 0 -164 267 0 0 226 319 510c46,74 77,135 91,182 15,47 22,110 22,187l0 284 -1761 0 0 -284c0,-120 41,-245 121,-374l311 -505 0 -226 268 0 0 164z"/>
    <path class="fil32" d="M13034 15027l0 104 -151 0 0 -104 151 0zm-508 357l0 104 -151 0 0 -104 151 0zm253 0l0 104 -149 0 0 -104 149 0zm255 0l0 104 -151 0 0 -104 151 0zm-508 -179l0 104 -151 0 0 -104 151 0zm253 0l0 104 -149 0 0 -104 149 0zm255 0l0 104 -151 0 0 -104 151 0zm-508 -178l0 104 -151 0 0 -104 151 0zm253 0l0 104 -149 0 0 -104 149 0z"/>
    <g>
     <path class="fil26" d="M11699 12398l0 -355c270,-85 317,91 317,221l1 794c0,220 47,343 -233,338 -28,0 -130,0 -158,0 -243,1 -436,4 -436,-332 0,-79 -1,-428 0,-433 38,-216 240,-231 509,-233z"/>
     <path id="1" class="fil24" d="M11775 12043l0 355 -151 0 0 -355 52 -70 99 70zm-151 0c0,-41 34,-74 75,-74 42,0 76,33 76,74l-151 0zm468 221l-151 0 0 0 0 -11 -1 -11 0 -10 -1 -11 -2 -10 -1 -11 -2 -10 -2 -9 -3 -10 -3 -8 -3 -9 -4 -7 -3 -7 -4 -7 -5 -5 -4 -6 -5 -4 -5 -4 -5 -4 -6 -4 -6 -3 -7 -2 -9 -3 -9 -1 -11 -2 -12 0 -14 0 -15 1 -17 3 -18 3 -20 5 -22 7 -46 -141 28 -8 27 -7 26 -5 25 -3 24 -2 24 -1 22 1 22 3 22 4 20 5 19 8 19 8 17 10 16 12 15 12 13 13 12 14 10 15 10 15 8 15 7 16 6 15 5 16 5 15 3 16 3 15 3 16 2 15 1 15 1 14 0 15 1 14 0 0zm0 0c0,40 -34,73 -76,73 -41,1 -75,-33 -75,-73l151 0zm-151 794l0 -794 151 0 0 794 0 0 -151 0zm151 0c0,41 -34,74 -75,74 -42,0 -76,-33 -76,-74l151 0zm-309 412l3 -147 0 0 23 0 20 -1 19 -1 16 -2 15 -2 12 -3 10 -3 8 -3 7 -3 5 -3 3 -2 3 -3 2 -2 2 -3 2 -3 2 -5 2 -5 2 -7 2 -8 1 -10 1 -11 1 -12 0 -13 0 -14 0 -15 0 -16 0 -17 -1 -18 -1 -18 0 -20 0 -20 -1 -22 151 0 0 20 1 19 0 19 1 18 0 18 1 18 0 17 0 17 0 17 0 17 -2 17 -1 17 -3 16 -3 17 -5 17 -6 16 -7 17 -9 16 -12 16 -13 14 -14 13 -16 12 -18 10 -18 8 -20 7 -20 6 -21 5 -22 3 -24 3 -24 2 -26 0 -28 0 0 0zm0 0c-41,0 -75,-34 -74,-75 1,-41 35,-73 77,-72l-3 147zm-157 0l0 -148 0 0 3 0 3 0 3 0 4 0 5 0 4 0 5 0 5 0 6 0 5 0 6 0 6 0 6 0 6 0 6 0 6 0 6 0 6 0 6 0 6 0 6 0 6 0 5 0 6 0 5 0 5 0 5 0 4 0 4 0 4 1 3 0 4 0 -3 147 -3 0 -3 0 -3 0 -4 0 -4 0 -5 0 -5 0 -5 0 -5 0 -6 0 -5 0 -6 0 -6 0 -6 0 -6 0 -6 0 -6 0 -6 0 -6 0 -6 0 -6 0 -6 0 -5 0 -6 0 -5 0 -4 0 -5 0 -4 0 -4 0 -4 0 -3 0 -3 0 0 0zm0 0c-41,0 -75,-33 -75,-73 -1,-41 33,-74 75,-75l0 148zm-512 -406l151 0 0 0 1 28 1 26 2 23 4 21 4 20 4 17 5 15 6 13 6 12 7 11 6 9 7 8 8 7 8 6 9 6 9 5 10 5 12 5 12 4 13 4 15 3 15 2 16 3 17 1 18 2 19 1 20 1 20 0 21 0 21 0 22 0 23 0 0 148 -22 0 -23 0 -22 0 -23 0 -22 -1 -22 0 -22 -2 -22 -1 -21 -3 -22 -3 -21 -3 -21 -5 -21 -6 -21 -7 -20 -8 -20 -9 -19 -11 -19 -13 -18 -14 -16 -16 -16 -18 -14 -19 -13 -20 -11 -22 -10 -23 -8 -25 -7 -26 -6 -27 -4 -29 -3 -30 -2 -31 -1 -34 0 0zm0 0c0,-40 34,-73 76,-73 41,0 75,33 75,73l-151 0zm2 -445l148 25 0 0 1 -9 0 2 0 5 0 6 0 9 0 9 0 11 0 13 0 13 0 15 0 15 0 16 0 17 0 18 0 17 0 19 0 18 0 19 0 18 0 18 0 19 0 17 0 18 0 17 0 16 0 15 0 15 0 13 0 12 0 11 0 10 0 8 -151 0 0 -8 0 -10 0 -11 0 -12 0 -13 0 -15 0 -15 0 -16 0 -17 0 -17 0 -18 0 -18 0 -19 0 -18 0 -19 0 -18 0 -19 0 -17 0 -18 0 -17 0 -16 0 -15 0 -15 0 -13 0 -13 0 -11 0 -10 0 -9 0 -7 0 -5 0 -5 2 -11 0 0zm0 0c7,-41 46,-68 87,-61 41,7 68,45 61,86l-148 -25zm508 -221l151 0 -75 74 -25 0 -24 0 -24 1 -23 0 -22 1 -22 1 -21 2 -21 1 -20 2 -19 2 -18 3 -17 3 -17 3 -15 4 -15 4 -14 5 -13 4 -12 6 -11 5 -10 6 -9 6 -9 7 -8 7 -7 7 -6 8 -7 9 -5 10 -6 10 -5 12 -4 13 -4 14 -3 16 -148 -25 4 -24 7 -23 7 -22 9 -21 10 -20 11 -19 13 -18 14 -17 15 -16 16 -14 17 -13 17 -12 18 -10 19 -10 20 -8 19 -8 21 -6 20 -6 21 -5 22 -4 21 -4 22 -3 23 -3 23 -2 23 -2 23 -1 24 -1 24 -1 25 -1 24 0 25 -1 26 0 -75 74zm75 -74c41,0 75,33 76,73 0,41 -34,75 -75,75l-1 -148z"/>
    </g>
    <path class="fil13 str12" d="M11518 15564c0,-85 68,-154 153,-154 85,0 153,69 153,154"/>
    <path class="fil13 str13" d="M11301 15347c60,-60 157,-60 217,0 60,60 60,157 0,217"/>
    <path class="fil13 str14" d="M11221 15050c82,-22 166,27 188,109 22,82 -27,166 -108,188"/>
    <path class="fil13 str15" d="M11142 14754c82,-22 166,27 188,108 22,82 -27,166 -109,188"/>
    <path class="fil13 str16" d="M11142 14743c82,22 166,-26 188,-108 22,-82 -27,-166 -109,-188"/>
    <path class="fil13 str15" d="M11142 14151c82,-22 166,26 188,108 22,82 -27,166 -109,188"/>
   </g>
  </g>
 </g>
</svg>
