<?xml version="1.0" encoding="UTF-8"?>
<!DOCTYPE svg PUBLIC "-//W3C//DTD SVG 1.0//EN" "http://www.w3.org/TR/2001/REC-SVG-20010904/DTD/svg10.dtd">
<!-- Creator: CorelDRAW X7 -->
<svg xmlns="http://www.w3.org/2000/svg" xml:space="preserve" width="200mm" height="200mm" version="1.0" style="shape-rendering:geometricPrecision; text-rendering:geometricPrecision; image-rendering:optimizeQuality; fill-rule:evenodd; clip-rule:evenodd"
viewBox="0 0 20000 20000"
 xmlns:xlink="http://www.w3.org/1999/xlink">
 <defs>
  <style type="text/css">
   <![CDATA[
    .str0 {stroke:#2E99A3;stroke-width:25}
    .fil1 {fill:#D25F60}
    .fil2 {fill:#1494B7}
    .fil3 {fill:#2E99A3}
    .fil0 {fill:url(#id0)}
   ]]>
  </style>
  <radialGradient id="id0" gradientUnits="userSpaceOnUse" gradientTransform="matrix(1.41421 -0 -0 1.41421 -4155 -4129)" cx="10030.6" cy="9969.4" r="10000" fx="10030.6" fy="9969.4">
   <stop offset="0" style="stop-opacity:1; stop-color:#FEFEFE"/>
   <stop offset="0.439216" style="stop-opacity:1; stop-color:#FEFEFE"/>
   <stop offset="1" style="stop-opacity:1; stop-color:#D1E2F2"/>
  </radialGradient>
 </defs>
 <g id="Layer_x0020_1">
  <metadata id="CorelCorpID_0Corel-Layer"/>
  <path class="fil0" d="M31 -31l20000 0 0 20000 -20000 0 0 -20000z"/>
  <path class="fil1" d="M3975 4928l-2315 0 0 1889 2315 0 0 -1889zm-271 221l0 1447 -1773 0 0 -1447 1773 0z"/>
  <path class="fil2" d="M2796 6759l-963 -961 315 -209 596 595 1541 -2097 349 171 -1838 2501z"/>
  <path class="fil1" d="M3975 7640l-2315 0 0 1889 2315 0 0 -1889zm-271 221l0 1447 -1773 0 0 -1447 1773 0z"/>
  <path class="fil2" d="M2796 9391l-963 -960 315 -210 596 595 1541 -2096 349 170 -1838 2501z"/>
  <path class="fil1" d="M3975 10281l-2315 0 0 1890 2315 0 0 -1890zm-271 221l0 1448 -1773 0 0 -1448 1773 0z"/>
  <path class="fil2" d="M2796 12094l-963 -960 315 -210 596 596 1541 -2097 349 170 -1838 2501z"/>
  <path class="fil1" d="M3975 13039l-2315 0 0 1889 2315 0 0 -1889zm-271 221l0 1447 -1773 0 0 -1447 1773 0z"/>
  <path class="fil2" d="M2796 14681l-963 -960 315 -210 596 596 1541 -2097 349 170 -1838 2501z"/>
  <g id="_326354627968">
   <path class="fil3 str0" d="M5699 8069l46 -413c0,-14 8,-21 24,-21l144 0c17,0 25,8 25,24l0 410 24 0c16,0 24,8 24,24l0 48c0,7 -2,12 -7,17 -5,5 -11,7 -17,7 -5,0 -11,-2 -16,-6 -5,-4 -8,-10 -8,-18l0 -24 -242 0 0 24c0,7 -2,12 -7,17 -5,5 -11,7 -17,7 -5,0 -11,-2 -16,-6 -5,-4 -8,-10 -8,-18l0 -48c0,-16 8,-24 24,-24l27 0zm191 0l0 -386 -99 0 -44 386 143 0zm460 -48c0,26 -10,49 -28,68 -19,19 -42,28 -69,28l-96 0c-26,0 -49,-9 -68,-28 -19,-19 -28,-41 -28,-68l0 -290c0,-27 9,-50 28,-68 18,-19 41,-28 68,-28l96 0c27,0 50,9 69,28 18,19 28,41 28,68l0 290zm-48 0l0 -290c0,-14 -5,-25 -14,-34 -9,-10 -20,-14 -34,-14l-97 0c-14,0 -25,4 -35,13 -4,5 -8,10 -10,16 -2,6 -3,12 -3,19l0 290c0,13 4,25 13,35 5,4 10,7 16,10 7,2 13,3 19,3l97 0c13,0 24,-4 34,-13 9,-9 14,-21 14,-35zm400 96l-120 0c-27,0 -49,-9 -68,-28 -20,-19 -29,-41 -29,-68l0 -290c0,-27 9,-50 28,-68 19,-19 42,-28 69,-28l120 0c7,0 13,2 17,7 5,5 7,11 7,17 0,5 -2,10 -6,16 -4,5 -10,8 -18,8l-121 0c-13,0 -25,4 -34,13 -5,5 -8,10 -11,16 -2,6 -3,12 -3,19l0 290c0,13 5,25 14,35 5,4 10,7 15,10 7,2 14,3 19,3l121 0c7,0 13,3 17,8 5,4 7,10 7,16 0,6 -2,11 -6,16 -4,6 -10,8 -18,8zm241 -434l-96 0c-8,0 -14,-2 -18,-7 -4,-5 -6,-11 -6,-17 0,-6 2,-11 6,-16 4,-6 10,-8 18,-8l241 0c6,0 12,2 17,7 5,5 7,11 7,17 0,5 -2,10 -6,16 -4,5 -10,8 -18,8l-97 0 0 410c0,8 -2,14 -7,18 -4,4 -10,6 -17,6 -6,0 -12,-2 -17,-6 -4,-4 -7,-10 -7,-18l0 -410zm530 338c0,26 -9,49 -28,68 -19,19 -42,28 -68,28l-97 0c-26,0 -48,-9 -67,-28 -20,-19 -29,-41 -29,-68l0 -290c0,-27 9,-50 28,-68 19,-19 42,-28 68,-28l97 0c27,0 49,9 68,28 19,19 28,41 28,68l0 290zm-48 0l0 -290c0,-14 -4,-25 -13,-34 -9,-10 -21,-14 -35,-14l-97 0c-13,0 -25,4 -34,13 -5,5 -8,10 -11,16 -2,6 -3,12 -3,19l0 290c0,13 5,25 14,35 5,4 10,7 15,10 7,2 13,3 19,3l97 0c13,0 25,-4 34,-13 10,-9 14,-21 14,-35zm427 -179c13,8 24,20 33,35 8,15 13,30 13,47l0 97c0,26 -10,49 -29,68 -18,19 -41,28 -68,28l-169 0c-16,0 -24,-8 -24,-24l0 -434c0,-16 8,-24 24,-24l145 0c27,0 50,9 69,28 18,19 28,41 28,68l0 48c0,11 -2,22 -6,33 -3,10 -9,20 -16,30zm-196 34l0 193 145 0c14,0 25,-4 35,-13 9,-9 14,-21 14,-35l0 -97c0,-13 -5,-25 -14,-34 -9,-9 -21,-14 -35,-14l-145 0zm121 -48c14,0 25,-5 35,-14 9,-9 14,-20 14,-35l0 -48c0,-14 -5,-25 -14,-34 -9,-10 -21,-14 -35,-14l-121 0 0 145 121 0zm265 0l121 0c7,0 13,2 18,7 4,5 7,11 7,17 0,6 -2,11 -6,16 -4,5 -11,8 -19,8l-121 0 0 193 170 0c6,0 12,3 17,8 5,4 7,10 7,16 0,6 -2,11 -6,16 -4,6 -10,8 -18,8l-194 0c-16,0 -24,-7 -24,-23l0 -435c0,-16 8,-24 24,-24l194 0c6,0 12,2 17,7 5,5 7,11 7,17 0,5 -2,11 -6,16 -4,5 -10,8 -18,8l-170 0 0 145zm338 48l145 0c13,0 24,-5 34,-14 9,-9 14,-20 14,-34l0 -97c0,-14 -5,-25 -14,-34 -9,-10 -20,-14 -34,-14l-145 0 0 193zm0 48l0 169c0,8 -2,14 -7,18 -4,4 -10,6 -17,6 -7,0 -12,-2 -17,-6 -5,-4 -7,-10 -7,-18l0 -434c0,-16 8,-24 24,-24l169 0c26,0 49,9 68,28 19,19 28,41 28,68l0 96c0,27 -9,50 -28,68 -19,19 -42,29 -69,29l-144 0zm579 -96l0 -169c0,-7 2,-12 7,-17 5,-5 11,-7 17,-7 6,0 12,2 16,6 5,4 8,10 8,18l0 433c0,7 -3,13 -8,19 -5,4 -11,6 -16,6 -6,0 -12,-2 -17,-6 -5,-4 -7,-10 -7,-18l0 -217 -193 0 0 217c0,8 -3,14 -7,18 -5,4 -10,6 -17,6 -7,0 -12,-2 -17,-6 -5,-4 -7,-10 -7,-18l0 -434c0,-6 2,-12 7,-18 5,-4 10,-6 17,-6 6,0 11,2 16,6 5,4 8,10 8,18l0 169 193 0zm434 193c0,26 -10,49 -29,68 -18,19 -41,28 -68,28l-96 0c-26,0 -49,-9 -68,-28 -19,-19 -29,-41 -29,-68l0 -290c0,-27 10,-50 29,-68 18,-19 41,-28 68,-28l96 0c27,0 50,9 69,28 18,19 28,41 28,68l0 290zm-48 0l0 -290c0,-14 -5,-25 -14,-34 -9,-10 -21,-14 -35,-14l-96 0c-14,0 -25,4 -35,13 -4,5 -8,10 -10,16 -2,6 -4,12 -4,19l0 290c0,13 5,25 14,35 5,4 10,7 16,10 7,2 13,3 19,3l96 0c14,0 25,-4 35,-13 9,-9 14,-21 14,-35zm400 96l-121 0c-26,0 -48,-9 -68,-28 -19,-19 -28,-41 -28,-68l0 -290c0,-27 9,-50 28,-68 19,-19 41,-28 68,-28l121 0c7,0 12,2 17,7 5,5 7,11 7,17 0,5 -2,10 -6,16 -4,5 -10,8 -18,8l-121 0c-13,0 -25,4 -34,13 -5,5 -8,10 -11,16 -2,6 -3,12 -3,19l0 290c0,13 4,25 14,35 4,4 10,7 15,10 7,2 13,3 19,3l121 0c7,0 12,3 17,8 5,4 7,10 7,16 0,6 -2,11 -6,16 -4,6 -10,8 -18,8zm241 -434l-96 0c-8,0 -14,-2 -18,-7 -4,-5 -7,-11 -7,-17 0,-6 2,-11 6,-16 4,-6 11,-8 19,-8l241 0c6,0 12,2 17,7 4,5 7,11 7,17 0,5 -2,10 -6,16 -4,5 -10,8 -18,8l-97 0 0 410c0,8 -2,14 -7,18 -4,4 -10,6 -17,6 -6,0 -12,-2 -17,-6 -5,-4 -7,-10 -7,-18l0 -410zm313 193l145 0c14,0 25,5 35,14 9,9 14,20 14,34l0 97c0,14 -5,25 -14,35 -5,4 -10,8 -16,10 -6,2 -12,3 -19,3l-145 0 0 -193zm0 -48l0 -169c0,-7 -2,-12 -7,-17 -5,-5 -11,-7 -17,-7 -5,0 -11,2 -16,6 -5,4 -8,10 -8,18l0 434c0,16 8,24 24,24l169 0c26,0 49,-9 68,-28 19,-18 29,-41 29,-68l0 -97c0,-26 -10,-49 -29,-68 -18,-19 -41,-28 -68,-28l-145 0zm675 48l145 0c14,0 25,-5 35,-14 9,-9 14,-20 14,-34l0 -97c0,-14 -5,-25 -14,-34 -9,-10 -21,-14 -35,-14l-145 0 0 193zm0 48l0 169c0,8 -2,14 -6,18 -5,4 -11,6 -18,6 -6,0 -12,-2 -16,-6 -5,-4 -8,-10 -8,-18l0 -434c0,-16 8,-24 25,-24l168 0c27,0 50,9 69,28 18,19 28,41 28,68l0 96c0,27 -10,50 -28,68 -19,19 -42,29 -69,29l-145 0zm375 73l-35 104c-2,5 -5,9 -9,12 -3,2 -8,4 -13,4 -7,0 -12,-2 -17,-7 -5,-4 -8,-9 -8,-16l2 -9 145 -434c5,-14 12,-21 23,-21 10,0 17,7 22,21l145 434 1 9c0,6 -2,12 -8,17 -5,4 -10,6 -16,6 -4,0 -7,-1 -11,-2 -4,-2 -8,-6 -11,-14l-35 -104 -175 0zm159 -50l-71 -212 -72 212 143 0zm407 170l-120 0c-27,0 -49,-9 -68,-28 -19,-19 -29,-41 -29,-68l0 -290c0,-27 10,-50 28,-68 19,-19 42,-28 69,-28l120 0c7,0 13,2 17,7 5,5 8,11 8,17 0,5 -2,10 -6,16 -5,5 -11,8 -19,8l-121 0c-13,0 -25,4 -34,13 -5,5 -8,10 -11,16 -2,6 -3,12 -3,19l0 290c0,13 5,25 14,35 5,4 10,7 15,10 7,2 14,3 19,3l121 0c7,0 13,3 17,8 5,4 8,10 8,16 0,6 -2,11 -6,16 -5,6 -11,8 -19,8zm410 -24c0,8 -2,14 -7,18 -4,4 -10,6 -17,6 -6,0 -12,-2 -17,-6 -5,-4 -7,-10 -7,-18l0 -410 -193 0 0 410c0,8 -3,14 -7,18 -4,4 -10,6 -17,6 -7,0 -12,-2 -17,-6 -5,-4 -7,-10 -7,-18l0 -434c0,-16 8,-24 24,-24l241 0c16,0 24,8 24,24l0 434zm145 -217l144 0c14,0 25,-5 35,-14 9,-9 14,-20 14,-34l0 -97c0,-14 -5,-25 -14,-34 -9,-10 -21,-14 -35,-14l-144 0 0 193zm0 48l0 169c0,8 -3,14 -7,18 -5,4 -10,6 -17,6 -7,0 -12,-2 -17,-6 -5,-4 -7,-10 -7,-18l0 -434c0,-16 8,-24 24,-24l168 0c27,0 50,9 69,28 18,19 28,41 28,68l0 96c0,27 -10,50 -28,68 -19,19 -42,29 -69,29l-144 0zm627 97c0,26 -10,49 -29,68 -18,19 -41,28 -68,28l-96 0c-26,0 -49,-9 -68,-28 -19,-19 -29,-41 -29,-68l0 -290c0,-27 10,-50 28,-68 19,-19 42,-28 69,-28l96 0c27,0 50,9 69,28 18,19 28,41 28,68l0 290zm-48 0l0 -290c0,-14 -5,-25 -14,-34 -9,-10 -21,-14 -35,-14l-96 0c-14,0 -25,4 -35,13 -5,5 -8,10 -10,16 -3,6 -4,12 -4,19l0 290c0,13 5,25 14,35 5,4 10,7 16,10 7,2 13,3 19,3l96 0c14,0 25,-4 35,-13 9,-9 14,-21 14,-35zm400 96l-121 0c-26,0 -49,-9 -68,-28 -19,-19 -28,-41 -28,-68l0 -290c0,-27 9,-50 28,-68 19,-19 41,-28 68,-28l121 0c7,0 12,2 17,7 5,5 7,11 7,17 0,5 -2,10 -6,16 -4,5 -10,8 -18,8l-121 0c-13,0 -25,4 -35,13 -4,5 -8,10 -10,16 -2,6 -3,12 -3,19l0 290c0,13 4,25 13,35 5,4 11,7 16,10 7,2 13,3 19,3l121 0c7,0 12,3 17,8 5,4 7,10 7,16 0,6 -2,11 -6,16 -4,6 -10,8 -18,8zm241 -434l-97 0c-7,0 -13,-2 -17,-7 -5,-5 -7,-11 -7,-17 0,-6 2,-11 6,-16 4,-6 10,-8 18,-8l242 0c6,0 12,2 17,7 4,5 7,11 7,17 0,5 -2,10 -6,16 -4,5 -10,8 -18,8l-97 0 0 410c0,8 -2,14 -7,18 -4,4 -10,6 -17,6 -6,0 -12,-2 -17,-6 -5,-4 -7,-10 -7,-18l0 -410zm313 193l145 0c14,0 25,-5 34,-14 10,-9 14,-20 14,-34l0 -97c0,-14 -4,-25 -13,-34 -9,-10 -21,-14 -35,-14l-145 0 0 193zm0 48l0 169c0,8 -2,14 -7,18 -4,4 -10,6 -17,6 -6,0 -12,-2 -17,-6 -4,-4 -7,-10 -7,-18l0 -434c0,-16 8,-24 24,-24l169 0c27,0 50,9 68,28 19,19 28,41 28,68l0 96c0,27 -9,50 -28,68 -19,19 -41,29 -68,29l-145 0zm374 73l-34 104c-2,5 -5,9 -9,12 -3,2 -8,4 -13,4 -7,0 -12,-2 -17,-7 -6,-4 -8,-9 -8,-16l1 -9 146 -434c4,-14 12,-21 22,-21 11,0 18,7 23,21l144 434 2 9c0,6 -3,12 -8,17 -5,4 -11,6 -17,6 -3,0 -6,-1 -11,-2 -4,-2 -7,-6 -11,-14l-35 -104 -175 0zm159 -50l-71 -212 -71 212 142 0zm432 -119l0 -169c0,-7 2,-12 7,-17 5,-5 11,-7 17,-7 6,0 12,2 17,6 5,4 7,10 7,18l0 433c0,7 -2,13 -7,19 -6,4 -12,6 -17,6 -6,0 -12,-2 -17,-6 -5,-4 -7,-10 -7,-18l0 -217 -193 0 0 217c0,8 -2,14 -7,18 -4,4 -10,6 -17,6 -7,0 -12,-2 -17,-6 -5,-4 -7,-10 -7,-18l0 -434c0,-6 2,-12 7,-18 5,-4 10,-6 17,-6 6,0 12,2 16,6 5,4 8,10 8,18l0 169 193 0zm386 48l0 -193 -145 0c-14,0 -25,4 -35,13 -4,5 -8,10 -10,16 -2,6 -3,12 -3,19l0 97c0,13 4,25 13,34 5,4 10,8 16,11 7,2 13,3 19,3l145 0zm-83 48l-114 182c-5,7 -11,11 -19,11 -6,0 -12,-2 -17,-7 -6,-5 -8,-11 -8,-17 0,-5 1,-9 3,-13l98 -156 -5 0c-26,0 -49,-9 -68,-28 -19,-19 -28,-42 -28,-69l0 -96c0,-27 9,-50 28,-68 18,-19 41,-28 68,-28l169 0c16,0 24,8 24,24l0 434c0,8 -2,14 -7,18 -4,4 -10,6 -17,6 -6,0 -12,-2 -17,-6 -5,-4 -7,-10 -7,-18l0 -169 -83 0zm275 -96l122 0c6,0 12,2 17,7 5,5 7,11 7,17 0,6 -2,11 -6,16 -4,5 -10,8 -18,8l-122 0 0 193 170 0c7,0 12,3 17,8 5,4 7,10 7,16 0,6 -2,11 -6,16 -4,6 -10,8 -18,8l-193 0c-17,0 -25,-7 -25,-23l0 -435c0,-16 8,-24 25,-24l193 0c7,0 12,2 17,7 5,5 7,11 7,17 0,5 -2,11 -6,16 -4,5 -10,8 -18,8l-170 0 0 145zm628 265c0,8 -2,14 -6,18 -5,4 -11,6 -18,6 -5,0 -11,-2 -16,-6 -5,-4 -8,-10 -8,-18l0 -344 -100 166c-6,11 -13,16 -21,16 -7,0 -14,-5 -21,-16l-100 -166 0 344c0,8 -2,14 -7,18 -4,4 -10,6 -17,6 -6,0 -12,-2 -17,-6 -5,-4 -7,-10 -7,-18l0 -432c0,-9 2,-16 7,-20 4,-5 9,-8 15,-8 5,0 8,1 12,4 3,2 7,6 11,12l124 206 124 -206c6,-11 13,-16 23,-16 6,0 11,3 16,8 4,5 6,12 6,20l0 432zm385 -72c0,26 -9,49 -28,68 -19,19 -41,28 -68,28l-96 0c-27,0 -49,-9 -68,-28 -19,-19 -29,-41 -29,-68l0 -290c0,-27 10,-50 28,-68 19,-19 42,-28 69,-28l96 0c27,0 50,9 68,28 19,19 28,41 28,68l0 290zm-48 0l0 -290c0,-14 -4,-25 -13,-34 -9,-10 -21,-14 -35,-14l-97 0c-13,0 -25,4 -34,13 -5,5 -8,10 -11,16 -2,6 -3,12 -3,19l0 290c0,13 5,25 14,35 5,4 10,7 15,10 7,2 14,3 19,3l97 0c13,0 25,-4 34,-13 10,-9 14,-21 14,-35zm376 -434l-96 0c-7,0 -13,-2 -18,-7 -4,-5 -6,-11 -6,-17 0,-6 2,-11 6,-16 4,-6 10,-8 18,-8l96 0c7,0 13,2 18,7 4,5 7,11 7,17 0,5 -2,10 -7,16 -4,5 -10,8 -18,8zm97 506c0,8 -2,14 -7,18 -4,4 -10,6 -17,6 -7,0 -12,-2 -17,-6 -5,-4 -7,-10 -7,-18l0 -341 -196 353c-3,5 -6,9 -11,12l-5 2c-2,1 -4,2 -7,2 -5,0 -10,-2 -16,-7 -4,-5 -7,-12 -7,-21l0 -434c0,-6 3,-12 8,-18 4,-4 10,-6 16,-6 7,0 12,2 17,6 5,4 7,10 7,18l0 341 196 -352c3,-4 6,-8 11,-12 4,-3 8,-5 13,-5 5,0 10,3 14,8 5,5 8,12 8,20l0 434zm-11046 772c0,8 -3,14 -7,18 -5,4 -10,6 -17,6 -7,0 -12,-2 -17,-6 -5,-4 -7,-10 -7,-18l0 -341 -196 353c-3,5 -7,9 -11,12l-5 2c-2,1 -4,2 -8,2 -4,0 -9,-2 -15,-7 -5,-5 -7,-12 -7,-21l0 -434c0,-6 3,-12 7,-18 5,-4 11,-6 17,-6 6,0 12,2 17,6 5,4 7,10 7,18l0 341 196 -353c2,-3 6,-7 10,-11 5,-3 9,-5 13,-5 6,0 11,3 15,8 5,5 8,11 8,20l0 434zm337 -265l0 -169c0,-7 3,-12 8,-17 4,-5 10,-7 16,-7 7,0 12,2 17,6 5,4 7,10 7,18l0 433c0,7 -2,13 -7,19 -6,4 -11,6 -17,6 -6,0 -11,-2 -17,-6 -4,-4 -7,-10 -7,-18l0 -217 -193 0 0 217c0,8 -2,14 -7,18 -4,4 -10,6 -17,6 -6,0 -12,-2 -17,-6 -5,-4 -7,-10 -7,-18l0 -434c0,-6 2,-12 7,-18 5,-4 11,-6 17,-6 6,0 12,2 17,6 5,4 7,10 7,18l0 169 193 0z"/>
   <path class="fil3 str0" d="M6637 8527l0 218 24 0c26,0 49,-9 68,-28 19,-19 28,-42 28,-69l0 -24c0,-26 -9,-49 -28,-68 -18,-20 -41,-29 -68,-29l-24 0zm-48 218l0 -218 -25 0c-26,0 -48,9 -68,28 -19,19 -28,42 -28,69l0 24c0,27 9,50 28,69 19,19 42,28 68,28l25 0zm0 48l-25 0c-40,0 -74,-14 -102,-42 -28,-28 -42,-62 -42,-103l0 -24c0,-40 14,-74 42,-102 28,-29 63,-43 102,-43l25 0 0 -48c0,-7 2,-13 7,-18 5,-4 10,-6 17,-6 6,0 11,2 16,6 5,4 8,10 8,18l0 48 24 0c40,0 74,14 102,42 13,14 23,29 31,47 7,17 11,36 11,56l0 24c0,39 -14,73 -42,102 -28,29 -62,43 -102,43l-24 0 0 72c0,8 -3,14 -7,18 -5,4 -10,6 -17,6 -7,0 -12,-2 -17,-6 -5,-4 -7,-10 -7,-18l0 -72zm603 0c0,26 -10,49 -29,68 -18,19 -41,28 -68,28l-96 0c-26,0 -49,-9 -68,-28 -19,-19 -29,-41 -29,-68l0 -290c0,-27 10,-50 28,-68 19,-19 42,-28 69,-28l96 0c27,0 50,9 68,28 19,19 29,41 29,68l0 290zm-48 0l0 -290c0,-14 -5,-25 -14,-34 -9,-10 -21,-14 -35,-14l-96 0c-14,0 -25,4 -35,13 -5,5 -8,10 -10,16 -3,6 -4,12 -4,19l0 290c0,13 5,25 14,35 5,4 10,7 16,10 6,2 13,3 19,3l96 0c14,0 25,-4 34,-13 10,-9 15,-21 15,-35zm231 -145l145 0c13,0 24,-5 34,-14 9,-9 14,-20 14,-34l0 -97c0,-14 -5,-25 -14,-34 -9,-10 -20,-14 -34,-14l-145 0 0 193zm0 48l0 169c0,8 -3,14 -7,18 -5,4 -10,6 -17,6 -7,0 -12,-2 -17,-6 -5,-4 -7,-10 -7,-18l0 -434c0,-16 8,-24 24,-24l169 0c26,0 49,9 68,28 19,19 28,41 28,68l0 96c0,27 -9,50 -28,68 -19,19 -42,29 -69,29l-144 0zm675 169c0,8 -2,14 -6,18 -5,4 -10,6 -18,6 -5,0 -10,-2 -16,-6 -5,-4 -8,-10 -8,-18l0 -344 -99 166c-6,11 -13,16 -21,16 -7,0 -14,-5 -21,-16l-101 -166 0 344c0,8 -2,14 -6,18 -5,4 -10,6 -17,6 -7,0 -12,-2 -17,-6 -5,-4 -7,-10 -7,-18l0 -432c0,-9 2,-16 6,-20 5,-5 10,-8 16,-8 4,0 8,1 11,4 4,2 7,6 11,12l125 206 124 -206c5,-11 13,-16 23,-16 5,0 10,3 15,8 4,5 6,12 6,20l0 432zm181 -96l-35 104c-1,5 -4,9 -9,12 -3,2 -7,4 -13,4 -6,0 -12,-2 -17,-7 -5,-4 -7,-9 -7,-16l1 -9 145 -434c5,-14 13,-21 23,-21 10,0 18,7 23,21l144 434 2 9c0,6 -3,12 -8,17 -5,4 -11,6 -17,6 -3,0 -7,-1 -11,-2 -4,-2 -8,-6 -11,-14l-35 -104 -175 0zm159 -50l-71 -212 -71 212 142 0zm432 122l0 -410c0,-7 2,-13 7,-18 5,-4 11,-6 17,-6 6,0 12,2 16,6 5,4 8,10 8,18l0 410 24 0c16,0 25,8 25,24l0 73c0,6 -3,12 -8,17 -5,5 -10,7 -16,7 -6,0 -11,-2 -17,-6 -5,-4 -7,-10 -7,-18l0 -49 -266 0c-16,0 -24,-8 -24,-24l0 -434c0,-7 2,-13 7,-18 5,-4 10,-6 17,-6 6,0 11,2 16,6 5,4 8,10 8,18l0 410 193 0zm482 24c0,8 -2,14 -7,18 -4,4 -10,6 -17,6 -6,0 -12,-2 -17,-6 -5,-4 -7,-10 -7,-18l0 -341 -196 353c-3,5 -6,9 -11,12l-5 2c-1,1 -4,2 -7,2 -5,0 -10,-2 -16,-7 -4,-5 -6,-12 -6,-21l0 -434c0,-6 2,-12 7,-18 5,-4 10,-6 17,-6 6,0 11,2 16,6 5,4 8,10 8,18l0 341 195 -353c3,-3 6,-7 11,-11 4,-3 8,-5 13,-5 5,0 10,3 15,8 4,5 7,11 7,20l0 434zm386 0c0,8 -3,14 -7,18 -4,4 -10,6 -17,6 -7,0 -12,-2 -17,-6 -5,-4 -7,-10 -7,-18l0 -341 -196 353c-3,5 -6,9 -11,12l-5 2c-2,1 -4,2 -7,2 -5,0 -10,-2 -16,-7 -4,-5 -7,-12 -7,-21l0 -434c0,-6 3,-12 8,-18 4,-4 10,-6 16,-6 7,0 12,2 17,6 5,4 7,10 7,18l0 341 196 -353c3,-3 6,-7 11,-11 4,-3 8,-5 13,-5 5,0 10,3 14,8 5,5 8,11 8,20l0 434z"/>
  </g>
  <g id="_326354628032">
   <path class="fil3 str0" d="M5866 10861l-121 0c-26,0 -49,-10 -68,-28 -19,-19 -29,-42 -29,-69l0 -289c0,-27 10,-50 28,-69 19,-19 42,-28 69,-28l121 0c6,0 12,3 17,8 4,4 7,10 7,16 0,6 -2,11 -6,16 -4,5 -10,8 -19,8l-120 0c-14,0 -25,5 -35,14 -5,5 -8,10 -10,16 -3,5 -4,12 -4,18l0 290c0,14 5,25 14,35 5,4 10,7 16,10 6,3 13,4 19,4l120 0c7,0 13,2 18,7 4,5 7,11 7,17 0,5 -2,11 -6,16 -4,5 -10,8 -18,8zm387 -97c0,27 -9,49 -28,68 -19,19 -41,29 -68,29l-96 0c-27,0 -49,-10 -68,-28 -19,-19 -29,-42 -29,-69l0 -289c0,-27 10,-50 28,-69 19,-19 42,-28 69,-28l96 0c27,0 50,9 68,28 19,19 28,42 28,69l0 289zm-48 0l0 -290c0,-13 -4,-25 -13,-34 -9,-9 -21,-14 -35,-14l-97 0c-13,0 -25,5 -34,14 -5,5 -8,10 -10,16 -3,5 -4,12 -4,18l0 290c0,14 5,25 14,35 5,4 10,7 16,10 6,3 13,4 18,4l97 0c14,0 25,-5 34,-14 10,-9 14,-20 14,-35zm232 -145l0 194 145 0c13,0 24,-5 34,-14 9,-9 14,-20 14,-35l0 -96c0,-14 -5,-25 -14,-35 -9,-9 -20,-14 -34,-14l-145 0zm0 -48l144 0c27,0 49,10 68,29 19,18 29,41 29,68l0 96c0,27 -10,49 -28,68 -19,19 -42,29 -69,29l-168 0c-16,0 -24,-8 -24,-24l0 -435c0,-16 8,-24 24,-24l193 0c6,0 12,3 17,8 4,4 7,10 7,16 0,6 -2,11 -6,16 -4,5 -10,8 -18,8l-169 0 0 145zm606 266c0,7 -3,13 -7,18 -5,4 -10,6 -17,6 -7,0 -12,-2 -17,-6 -5,-4 -7,-10 -7,-18l0 -411 -79 0 -116 417c0,5 -3,9 -8,12 -4,4 -9,6 -15,6 -7,0 -13,-2 -17,-6 -5,-4 -7,-10 -7,-17 0,-4 0,-6 1,-8l121 -434c3,-12 11,-18 23,-18l120 0c17,0 25,8 25,24l0 435zm385 -73l0 -290c0,-13 -4,-25 -13,-34 -9,-9 -21,-14 -35,-14l-48 0c-14,0 -26,5 -35,14 -5,5 -8,10 -11,16 -2,5 -3,12 -3,18l0 290c0,14 5,25 14,35 5,4 10,7 15,10 7,3 14,4 20,4l48 0c13,0 25,-5 34,-14 10,-9 14,-20 14,-35zm-242 -193l49 0 0 -96c0,-27 10,-50 28,-69 19,-19 42,-28 69,-28l48 0c27,0 50,9 68,28 19,19 28,42 28,69l0 289c0,27 -9,49 -28,68 -19,19 -41,29 -68,29l-48 0c-27,0 -49,-10 -68,-28 -19,-19 -29,-42 -29,-69l0 -145 -49 0 0 218c0,7 -2,13 -6,18 -5,4 -11,6 -18,6 -6,0 -12,-2 -16,-6 -5,-4 -8,-10 -8,-18l0 -435c0,-6 3,-12 8,-18 4,-4 10,-6 16,-6 7,0 12,2 17,6 5,4 7,10 7,18l0 169zm389 242l46 -414c0,-14 8,-21 24,-21l144 0c17,0 25,8 25,24l0 411 24 0c16,0 24,8 24,24l0 48c0,6 -2,12 -7,17 -5,4 -11,7 -17,7 -5,0 -11,-2 -16,-6 -5,-4 -8,-10 -8,-18l0 -24 -242 0 0 24c0,6 -2,12 -7,17 -5,4 -11,7 -17,7 -5,0 -11,-2 -16,-6 -5,-4 -8,-10 -8,-18l0 -48c0,-16 8,-24 24,-24l27 0zm191 0l0 -387 -99 0 -44 387 143 0zm240 -242l122 0c6,0 12,3 17,8 5,5 7,10 7,16 0,6 -2,12 -6,17 -4,5 -10,7 -18,7l-122 0 0 194 170 0c7,0 12,2 17,7 5,5 7,11 7,17 0,5 -2,11 -6,16 -4,5 -10,8 -18,8l-194 0c-16,0 -24,-8 -24,-23l0 -436c0,-16 8,-24 24,-24l194 0c7,0 12,3 17,8 5,4 7,10 7,16 0,6 -2,11 -6,16 -4,5 -10,8 -18,8l-170 0 0 145zm531 0l0 -169c0,-6 3,-12 7,-17 5,-5 11,-7 17,-7 6,0 12,2 17,6 5,4 7,10 7,18l0 434c0,7 -2,13 -7,18 -6,4 -12,7 -17,7 -6,0 -12,-2 -17,-6 -5,-4 -7,-10 -7,-18l0 -218 -193 0 0 218c0,7 -2,13 -7,18 -4,4 -10,6 -17,6 -6,0 -12,-2 -17,-6 -5,-4 -7,-10 -7,-18l0 -435c0,-6 2,-12 7,-17 5,-5 11,-7 17,-7 6,0 12,2 16,6 5,4 8,10 8,19l0 168 193 0zm434 266c0,7 -2,13 -7,18 -4,4 -10,6 -17,6 -6,0 -12,-2 -17,-6 -5,-4 -7,-10 -7,-18l0 -341 -196 352c-3,5 -6,9 -10,12l-6 3c-1,1 -4,1 -7,2 -5,0 -10,-3 -16,-7 -4,-5 -6,-12 -6,-21l0 -434c0,-7 2,-13 7,-18 5,-5 10,-7 17,-7 6,0 11,2 16,6 5,4 8,10 8,19l0 341 196 -353c2,-4 5,-8 10,-12 4,-3 9,-5 13,-5 5,0 10,3 15,8 5,5 7,12 7,20l0 435zm145 -266l121 0c7,0 12,3 17,8 5,5 7,10 7,16 0,6 -2,12 -6,17 -4,5 -10,7 -18,7l-121 0 0 194 169 0c7,0 12,2 17,7 5,5 7,11 7,17 0,5 -2,11 -6,16 -4,5 -10,8 -18,8l-193 0c-16,0 -24,-8 -24,-23l0 -436c0,-16 8,-24 24,-24l193 0c7,0 13,3 17,8 5,4 7,10 7,16 0,6 -2,11 -6,16 -4,5 -10,8 -18,8l-169 0 0 145zm627 48l145 0c13,0 24,-4 34,-13 9,-9 14,-21 14,-35l0 -97c0,-13 -5,-25 -14,-34 -9,-9 -20,-14 -34,-14l-145 0 0 193zm0 48l0 169c0,8 -3,14 -7,19 -5,4 -10,6 -17,6 -7,0 -12,-2 -17,-6 -5,-4 -7,-10 -7,-18l0 -435c0,-16 8,-24 24,-24l168 0c27,0 50,9 69,28 18,19 28,42 28,69l0 96c0,26 -10,49 -28,68 -19,19 -42,28 -69,28l-144 0zm374 73l-35 104c-2,5 -5,9 -9,13 -3,2 -8,3 -13,4 -6,0 -12,-3 -17,-7 -5,-4 -8,-10 -8,-17l2 -8 145 -434c5,-14 12,-21 23,-21 10,0 18,7 22,21l145 434 2 8c0,7 -3,12 -8,17 -6,4 -11,7 -17,7 -4,0 -7,-1 -11,-3 -4,-1 -8,-6 -11,-14l-35 -104 -175 0zm159 -49l-71 -213 -72 213 143 0zm434 -106c13,9 24,20 33,35 8,15 12,31 12,48l0 96c0,27 -9,49 -28,68 -19,19 -41,29 -68,29l-169 0c-16,0 -24,-8 -24,-24l0 -435c0,-16 8,-24 24,-24l145 0c27,0 50,9 68,28 19,19 29,42 29,69l0 48c0,11 -2,22 -6,32 -3,10 -9,20 -16,30zm-196 34l0 194 145 0c14,0 25,-5 34,-14 10,-9 15,-20 15,-35l0 -96c0,-14 -5,-25 -14,-35 -9,-9 -21,-14 -35,-14l-145 0zm121 -48c13,0 25,-4 34,-13 10,-9 15,-21 15,-35l0 -48c0,-14 -5,-26 -14,-35 -9,-9 -21,-14 -35,-14l-121 0 0 145 121 0zm265 0l121 0c7,0 13,3 17,8 5,5 8,10 8,16 0,6 -2,12 -7,17 -4,5 -10,7 -18,7l-121 0 0 194 170 0c6,0 12,2 17,7 4,5 7,11 7,17 0,5 -2,11 -6,16 -4,5 -10,8 -18,8l-194 0c-16,0 -24,-8 -24,-23l0 -436c0,-16 8,-24 24,-24l194 0c6,0 12,3 17,8 4,4 7,10 7,16 0,6 -2,11 -6,16 -4,5 -10,8 -18,8l-170 0 0 145zm531 0l0 -169c0,-6 2,-12 7,-17 5,-5 11,-7 17,-7 6,0 12,2 17,6 4,4 7,10 7,18l0 434c0,7 -3,13 -8,18 -5,4 -11,7 -16,7 -6,0 -12,-2 -17,-6 -5,-4 -7,-10 -7,-18l0 -218 -193 0 0 218c0,7 -3,13 -7,18 -5,4 -10,6 -17,6 -7,0 -12,-2 -17,-6 -5,-4 -7,-10 -7,-18l0 -435c0,-6 2,-12 7,-17 5,-5 10,-7 17,-7 6,0 11,2 16,6 5,4 8,10 8,19l0 168 193 0zm362 290l-121 0c-26,0 -49,-10 -68,-28 -19,-19 -29,-42 -29,-69l0 -289c0,-27 10,-50 29,-69 18,-19 41,-28 68,-28l121 0c6,0 12,3 17,8 5,4 7,10 7,16 0,6 -2,11 -6,16 -4,5 -10,8 -18,8l-121 0c-14,0 -25,5 -35,14 -4,5 -8,10 -10,16 -2,5 -4,12 -4,18l0 290c0,14 5,25 14,35 5,4 10,7 16,10 7,3 13,4 19,4l121 0c6,0 12,2 17,7 5,5 7,11 7,17 0,5 -2,11 -6,16 -4,5 -10,8 -18,8zm241 -435l-97 0c-7,0 -13,-2 -18,-6 -4,-6 -6,-12 -6,-18 0,-5 2,-11 6,-16 4,-5 10,-8 18,-8l241 0c7,0 13,3 17,8 5,4 7,10 7,16 0,6 -2,11 -6,16 -4,5 -10,8 -18,8l-96 0 0 411c0,7 -3,13 -7,18 -4,4 -10,6 -17,6 -7,0 -12,-2 -17,-6 -5,-4 -7,-10 -7,-18l0 -411zm508 159c14,9 25,20 33,35 9,15 13,31 13,48l0 96c0,27 -9,49 -28,68 -19,19 -42,29 -68,29l-169 0c-16,0 -24,-8 -24,-24l0 -435c0,-16 8,-24 24,-24l145 0c27,0 49,9 68,28 19,19 28,42 28,69l0 48c0,11 -2,22 -5,32 -3,10 -9,20 -17,30zm-195 34l0 194 145 0c13,0 25,-5 34,-14 9,-9 14,-20 14,-35l0 -96c0,-14 -4,-25 -13,-35 -10,-9 -21,-14 -35,-14l-145 0zm121 -48c13,0 25,-4 34,-13 10,-9 14,-21 14,-35l0 -48c0,-14 -4,-26 -13,-35 -9,-9 -21,-14 -35,-14l-121 0 0 145 121 0zm277 169l-35 104c-2,5 -5,9 -9,13 -3,2 -7,3 -13,4 -6,0 -12,-3 -17,-7 -5,-4 -8,-10 -8,-17l2 -8 145 -434c5,-14 12,-21 23,-21 10,0 18,7 22,21l145 434 2 8c0,7 -3,12 -8,17 -5,4 -11,7 -17,7 -3,0 -7,-1 -11,-3 -4,-1 -8,-6 -11,-14l-35 -104 -175 0zm159 -49l-71 -213 -71 213 142 0zm769 146c0,7 -2,13 -7,18 -4,4 -10,6 -17,6 -6,0 -12,-2 -17,-6 -5,-4 -7,-10 -7,-18l0 -411 -193 0 0 411c0,7 -3,13 -7,18 -5,4 -10,6 -17,6 -7,0 -12,-2 -17,-6 -5,-4 -7,-10 -7,-18l0 -435c0,-16 8,-24 24,-24l241 0c16,0 24,8 24,24l0 435zm144 -218l145 0c14,0 25,-4 35,-13 9,-9 14,-21 14,-35l0 -97c0,-13 -5,-25 -14,-34 -9,-9 -21,-14 -35,-14l-145 0 0 193zm0 48l0 169c0,8 -2,14 -6,19 -5,4 -10,6 -17,6 -7,0 -12,-2 -17,-6 -5,-4 -7,-10 -7,-18l0 -435c0,-16 8,-24 24,-24l168 0c27,0 50,9 69,28 18,19 28,42 28,69l0 96c0,26 -10,49 -28,68 -19,19 -42,28 -69,28l-145 0zm375 73l-35 104c-2,5 -5,9 -9,13 -3,2 -8,3 -13,4 -6,0 -12,-3 -17,-7 -5,-4 -8,-10 -8,-17l2 -8 145 -434c5,-14 12,-21 23,-21 10,0 18,7 22,21l145 434 1 8c0,7 -2,12 -7,17 -6,4 -11,7 -17,7 -4,0 -7,-1 -11,-3 -4,-1 -8,-6 -11,-14l-35 -104 -175 0zm159 -49l-71 -213 -72 213 143 0zm433 -106c14,9 25,20 34,35 8,15 12,31 12,48l0 96c0,27 -9,49 -28,68 -19,19 -41,29 -68,29l-169 0c-16,0 -24,-8 -24,-24l0 -435c0,-16 8,-24 24,-24l145 0c27,0 50,9 68,28 19,19 28,42 28,69l0 48c0,11 -1,22 -5,32 -3,10 -9,20 -17,30zm-195 34l0 194 145 0c14,0 25,-5 34,-14 10,-9 14,-20 14,-35l0 -96c0,-14 -4,-25 -13,-35 -9,-9 -21,-14 -35,-14l-145 0zm121 -48c13,0 25,-4 34,-13 10,-9 14,-21 14,-35l0 -48c0,-14 -4,-26 -13,-35 -9,-9 -21,-14 -35,-14l-121 0 0 145 121 0zm554 15l204 -201c5,-5 10,-7 16,-7 6,0 12,3 17,8 5,4 8,10 8,17 0,4 -3,9 -7,16l-144 143 148 262 3 13c0,7 -2,12 -7,16 -5,5 -11,8 -18,8 -8,0 -15,-5 -20,-13l-142 -252 -58 57 0 184c0,7 -2,13 -6,18 -5,4 -11,6 -18,6 -6,0 -12,-2 -16,-6 -5,-4 -8,-10 -8,-19l0 -434c0,-7 3,-12 8,-17 5,-5 10,-7 16,-7 6,0 12,2 17,6 5,4 7,10 7,17l0 185zm423 154l-35 104c-2,5 -5,9 -9,13 -3,2 -8,3 -13,4 -6,0 -12,-3 -17,-7 -5,-4 -8,-10 -8,-17l2 -8 145 -434c5,-14 12,-21 23,-21 10,0 18,7 22,21l145 434 2 8c0,7 -3,12 -8,17 -5,4 -11,7 -17,7 -4,0 -7,-1 -11,-3 -4,-1 -8,-6 -11,-14l-35 -104 -175 0zm159 -49l-71 -213 -72 213 143 0zm432 -120l0 -169c0,-6 2,-12 7,-17 5,-5 10,-7 17,-7 6,0 11,2 16,6 5,4 8,10 8,18l0 434c0,7 -3,13 -8,18 -6,4 -11,7 -17,7 -6,0 -11,-2 -17,-6 -4,-4 -6,-10 -6,-18l0 -218 -194 0 0 218c0,7 -2,13 -7,18 -4,4 -10,6 -17,6 -6,0 -12,-2 -17,-6 -4,-4 -7,-10 -7,-18l0 -435c0,-6 3,-12 7,-17 5,-5 11,-7 17,-7 6,0 12,2 17,6 5,4 7,10 7,19l0 168 194 0zm195 242l45 -414c0,-14 8,-21 25,-21l144 0c16,0 24,8 24,24l0 411 25 0c16,0 24,8 24,24l0 48c0,6 -2,12 -7,17 -5,4 -11,7 -17,7 -5,0 -11,-2 -16,-6 -5,-4 -8,-10 -8,-18l0 -24 -242 0 0 24c0,6 -2,12 -7,17 -5,4 -11,7 -17,7 -5,0 -11,-2 -16,-6 -5,-4 -8,-10 -8,-18l0 -48c0,-16 8,-24 24,-24l27 0zm190 0l0 -387 -99 0 -43 387 142 0zm482 24c0,7 -2,13 -6,18 -5,4 -11,6 -18,6 -6,0 -12,-2 -16,-6 -5,-4 -8,-10 -8,-18l0 -341 -195 352c-3,5 -7,9 -11,12l-5 3c-2,1 -4,1 -8,2 -4,0 -10,-3 -16,-7 -4,-5 -6,-12 -6,-21l0 -434c0,-7 2,-13 7,-18 5,-5 11,-7 17,-7 6,0 12,2 17,6 5,4 7,10 7,19l0 341 196 -353c2,-4 6,-8 10,-12 5,-3 9,-5 13,-5 6,0 11,3 15,8 5,5 7,12 7,20l0 435zm148 -24l45 -414c0,-14 8,-21 24,-21l145 0c16,0 24,8 24,24l0 411 25 0c16,0 24,8 24,24l0 48c0,6 -3,12 -8,17 -4,4 -10,7 -16,7 -6,0 -11,-2 -16,-6 -6,-4 -8,-10 -8,-18l0 -24 -242 0 0 24c0,6 -3,12 -8,17 -4,4 -10,7 -16,7 -6,0 -11,-2 -16,-6 -5,-4 -8,-10 -8,-18l0 -48c0,-16 8,-24 24,-24l27 0zm190 0l0 -387 -99 0 -43 387 142 0zm278 -73l-35 104c-2,5 -5,9 -9,13 -3,2 -8,3 -13,4 -7,0 -12,-3 -17,-7 -5,-4 -8,-10 -8,-17l2 -8 145 -434c5,-14 12,-21 22,-21 11,0 18,7 23,21l145 434 1 8c0,7 -2,12 -8,17 -5,4 -10,7 -16,7 -4,0 -7,-1 -11,-3 -4,-1 -8,-6 -12,-14l-34 -104 -175 0zm158 -49l-71 -213 -71 213 142 0zm215 -265l-96 0c-8,0 -14,-2 -18,-6 -4,-6 -6,-12 -6,-18 0,-5 2,-11 6,-16 4,-5 10,-8 18,-8l241 0c6,0 12,3 17,8 5,4 7,10 7,16 0,6 -2,11 -6,16 -4,5 -10,8 -18,8l-97 0 0 411c0,7 -2,13 -7,18 -4,4 -10,6 -17,6 -6,0 -12,-2 -17,-6 -4,-4 -7,-10 -7,-18l0 -411zm530 338c0,27 -9,49 -28,68 -19,19 -42,29 -68,29l-97 0c-26,0 -48,-10 -67,-28 -20,-19 -29,-42 -29,-69l0 -289c0,-27 9,-50 28,-69 19,-19 42,-28 68,-28l97 0c27,0 49,9 68,28 19,19 28,42 28,69l0 289zm-48 0l0 -290c0,-13 -4,-25 -13,-34 -9,-9 -21,-14 -35,-14l-97 0c-13,0 -25,5 -34,14 -5,5 -8,10 -11,16 -2,5 -3,12 -3,18l0 290c0,14 4,25 14,35 5,4 10,7 15,10 7,3 13,4 19,4l97 0c13,0 25,-5 34,-14 10,-9 14,-20 14,-35zm427 -179c13,9 24,20 33,35 8,15 13,31 13,48l0 96c0,27 -10,49 -29,68 -18,19 -41,29 -68,29l-169 0c-16,0 -24,-8 -24,-24l0 -435c0,-16 8,-24 24,-24l145 0c27,0 50,9 69,28 18,19 28,42 28,69l0 48c0,11 -2,22 -6,32 -3,10 -9,20 -16,30zm-196 34l0 194 145 0c14,0 25,-5 35,-14 9,-9 14,-20 14,-35l0 -96c0,-14 -5,-25 -14,-35 -9,-9 -21,-14 -35,-14l-145 0zm121 -48c14,0 25,-4 35,-13 9,-9 14,-21 14,-35l0 -48c0,-14 -5,-26 -14,-35 -9,-9 -21,-14 -35,-14l-121 0 0 145 121 0zm268 265l0 6 -24 97c-3,12 -11,18 -24,18 -7,0 -13,-2 -17,-7 -5,-3 -8,-9 -8,-17l1 -6 24 -94 0 -21c0,-6 2,-12 7,-18 5,-4 11,-6 17,-6 6,0 12,2 17,6 4,4 7,10 7,18l0 24z"/>
   <path class="fil3 str0" d="M5938 11609c0,7 -3,13 -7,18 -5,4 -10,6 -17,6 -7,0 -12,-2 -17,-6 -5,-4 -7,-10 -7,-18l0 -341 -196 352c-3,5 -7,9 -11,12l-5 3c-2,1 -4,1 -8,2 -4,0 -9,-3 -15,-7 -5,-5 -7,-12 -7,-21l0 -434c0,-7 3,-13 7,-18 5,-5 11,-7 17,-7 6,0 12,2 17,6 5,4 7,10 7,19l0 341 196 -353c2,-4 6,-8 10,-12 5,-3 9,-5 13,-5 6,0 11,3 15,8 5,5 8,12 8,20l0 435zm241 -218l-72 0c-8,0 -14,-2 -18,-6 -4,-5 -6,-11 -6,-18 0,-5 2,-11 6,-16 4,-5 10,-8 18,-8l72 0c14,0 25,-4 34,-13 10,-9 14,-21 14,-35l0 -48c0,-14 -4,-26 -13,-35 -9,-9 -21,-14 -35,-14l-48 0c-11,0 -20,3 -28,9 -8,6 -14,14 -18,24 -1,5 -3,9 -7,12 -2,2 -5,3 -7,4l-8 1c-7,0 -13,-2 -18,-6 -5,-5 -7,-11 -7,-18l1 -8c6,-19 18,-35 35,-47 17,-13 36,-19 57,-19l48 0c27,0 50,9 68,28 19,19 28,42 28,69l0 48c0,14 -2,27 -8,40 -6,13 -14,24 -24,32 22,19 32,43 32,73l0 96c0,27 -9,49 -28,68 -19,19 -41,29 -68,29l-48 0c-21,0 -40,-6 -56,-18 -17,-12 -29,-28 -36,-49l-1 -8c0,-6 2,-12 7,-17 5,-5 11,-7 18,-7 10,0 17,5 22,16 3,10 9,18 17,26 10,6 19,9 29,9l48 0c14,0 25,-5 34,-14 10,-9 14,-20 14,-35l0 -96c0,-15 -3,-26 -11,-34 -8,-10 -20,-15 -37,-15zm241 0l0 194 145 0c13,0 24,-5 34,-14 9,-9 14,-20 14,-35l0 -96c0,-14 -5,-25 -14,-35 -9,-9 -20,-14 -34,-14l-145 0zm0 -48l144 0c27,0 49,10 68,29 19,18 29,41 29,68l0 96c0,27 -9,49 -28,68 -19,19 -42,29 -68,29l-169 0c-16,0 -24,-8 -24,-24l0 -435c0,-16 8,-24 24,-24l193 0c6,0 12,3 17,8 5,4 7,10 7,16 0,6 -2,11 -6,16 -4,5 -10,8 -18,8l-169 0 0 145zm627 266c0,7 -2,13 -7,18 -4,4 -10,6 -17,6 -7,0 -12,-2 -17,-6 -5,-4 -7,-10 -7,-18l0 -341 -196 352c-3,5 -6,9 -11,12l-5 3c-1,1 -4,1 -7,2 -5,0 -10,-3 -16,-7 -4,-5 -6,-12 -6,-21l0 -434c0,-7 2,-13 7,-18 5,-5 10,-7 17,-7 6,0 11,2 16,6 5,4 8,10 8,19l0 341 195 -353c3,-4 6,-8 11,-12 4,-3 8,-5 13,-5 5,0 10,3 15,8 4,5 7,12 7,20l0 435zm144 -218l145 0c14,0 25,-4 35,-13 9,-9 14,-21 14,-35l0 -97c0,-13 -5,-25 -14,-34 -9,-9 -21,-14 -35,-14l-145 0 0 193zm0 48l0 169c0,8 -2,14 -6,19 -5,4 -11,6 -18,6 -6,0 -12,-2 -16,-6 -5,-4 -8,-10 -8,-18l0 -435c0,-16 8,-24 24,-24l169 0c27,0 50,9 69,28 18,19 28,42 28,69l0 96c0,26 -10,49 -29,68 -19,19 -41,28 -68,28l-145 0zm375 73l-35 104c-2,5 -5,9 -9,13 -3,2 -8,3 -13,4 -7,0 -12,-3 -17,-7 -5,-4 -8,-10 -8,-17l2 -8 145 -434c5,-14 12,-21 22,-21 11,0 18,7 23,21l145 434 1 8c0,7 -2,12 -8,17 -5,4 -10,7 -16,7 -4,0 -7,-1 -11,-3 -4,-1 -8,-6 -12,-14l-34 -104 -175 0zm159 -49l-72 -213 -71 213 143 0zm214 -265l-96 0c-8,0 -14,-2 -18,-6 -4,-6 -6,-12 -6,-18 0,-5 2,-11 6,-16 4,-5 10,-8 18,-8l241 0c6,0 12,3 17,8 5,4 7,10 7,16 0,6 -2,11 -6,16 -4,5 -10,8 -18,8l-97 0 0 411c0,7 -2,13 -7,18 -4,4 -10,6 -17,6 -6,0 -12,-2 -17,-6 -4,-4 -7,-10 -7,-18l0 -411zm313 145l122 0c6,0 12,3 17,8 5,5 7,10 7,16 0,6 -2,12 -6,17 -4,5 -10,7 -18,7l-122 0 0 194 170 0c7,0 12,2 17,7 5,5 7,11 7,17 0,5 -2,11 -6,16 -4,5 -10,8 -18,8l-193 0c-17,0 -25,-8 -25,-23l0 -436c0,-16 8,-24 25,-24l193 0c7,0 12,3 17,8 5,4 7,10 7,16 0,6 -2,11 -6,16 -4,5 -10,8 -18,8l-170 0 0 145zm580 266c0,7 -2,13 -7,18 -4,4 -10,6 -17,6 -6,0 -12,-2 -17,-6 -5,-4 -7,-10 -7,-18l0 -411 -78 0 -116 417c-1,5 -4,9 -8,12 -5,4 -10,6 -15,6 -7,0 -13,-2 -18,-6 -4,-4 -7,-10 -7,-17 0,-4 1,-6 1,-8l121 -434c3,-12 11,-18 23,-18l121 0c16,0 24,8 24,24l0 435zm144 -217l145 0c13,0 25,4 34,13 9,9 14,21 14,35l0 96c0,14 -4,25 -14,35 -4,5 -10,8 -15,10 -6,3 -12,4 -19,4l-145 0 0 -193zm0 -49l0 -169c0,-6 -3,-12 -8,-17 -4,-4 -10,-7 -16,-7 -6,0 -11,2 -16,6 -6,4 -8,10 -8,18l0 435c0,16 8,24 24,24l169 0c26,0 48,-10 67,-28 19,-19 29,-42 29,-69l0 -96c0,-26 -9,-49 -28,-68 -19,-19 -42,-29 -68,-29l-145 0zm579 0l0 -169c0,-6 2,-12 7,-17 5,-5 11,-7 17,-7 6,0 12,2 17,6 4,4 7,10 7,18l0 434c0,7 -3,13 -8,18 -5,4 -11,7 -16,7 -6,0 -12,-2 -17,-6 -5,-4 -7,-10 -7,-18l0 -218 -193 0 0 218c0,7 -3,13 -7,18 -5,4 -10,6 -17,6 -7,0 -12,-2 -17,-6 -5,-4 -7,-10 -7,-18l0 -435c0,-6 2,-12 7,-17 5,-5 10,-7 17,-7 6,0 11,2 16,6 5,4 8,10 8,19l0 168 193 0zm482 266c0,7 -2,13 -6,18 -5,4 -10,6 -18,6 -6,0 -12,-2 -16,-6 -5,-4 -8,-10 -8,-18l0 -435c0,-6 3,-12 8,-18 4,-4 10,-6 16,-6 6,0 12,2 17,6 5,4 7,10 7,18l0 435zm-290 -218l0 194 97 0c14,0 25,-5 35,-14 9,-9 14,-20 14,-35l0 -96c0,-14 -5,-25 -14,-35 -9,-9 -21,-14 -35,-14l-97 0zm0 -48l97 0c26,0 49,10 68,29 19,18 29,41 29,68l0 96c0,27 -10,49 -28,68 -19,19 -42,29 -69,29l-120 0c-17,0 -25,-8 -25,-24l0 -435c0,-6 3,-12 8,-18 4,-4 10,-6 16,-6 7,0 12,2 17,6 5,4 7,10 7,18l0 169zm555 5l125 -188c2,-3 5,-6 8,-8l6 -2 5 0c7,0 12,2 18,7 5,5 7,11 7,18 0,4 -1,8 -4,13l-135 203 135 204 3 7 1 7c0,6 -2,11 -7,16 -5,5 -11,8 -18,8 -8,0 -14,-4 -19,-11l-125 -187 -124 187c-2,3 -5,6 -9,8l-11 3c-5,0 -10,-3 -17,-8 -5,-4 -7,-10 -7,-17 0,-4 1,-8 4,-13l135 -204 -136 -203 -3 -7 0 -7c0,-6 2,-12 7,-16 5,-5 11,-8 18,-8 8,0 14,4 19,11l124 187zm844 188c0,27 -9,49 -28,68 -19,19 -42,29 -68,29l-97 0c-26,0 -48,-10 -67,-28 -20,-19 -29,-42 -29,-69l0 -289c0,-27 9,-50 28,-69 19,-19 42,-28 68,-28l97 0c27,0 49,9 68,28 19,19 28,42 28,69l0 289zm-48 0l0 -290c0,-13 -4,-25 -13,-34 -9,-9 -21,-14 -35,-14l-97 0c-13,0 -25,5 -34,14 -5,5 -8,10 -11,16 -2,5 -3,12 -3,18l0 290c0,14 5,25 14,35 5,4 10,7 15,10 7,3 13,4 19,4l97 0c13,0 25,-5 34,-14 10,-9 14,-20 14,-35zm231 -145l0 194 145 0c14,0 25,-5 35,-14 9,-9 14,-20 14,-35l0 -96c0,-14 -5,-25 -14,-35 -9,-9 -21,-14 -35,-14l-145 0zm0 -48l145 0c26,0 49,10 68,29 19,18 29,41 29,68l0 96c0,27 -10,49 -29,68 -18,19 -41,29 -68,29l-169 0c-16,0 -24,-8 -24,-24l0 -435c0,-16 8,-24 24,-24l193 0c7,0 13,3 17,8 5,4 8,10 8,16 0,6 -2,11 -7,16 -4,5 -10,8 -18,8l-169 0 0 145zm483 48l0 194 145 0c13,0 24,-5 34,-14 9,-9 14,-20 14,-35l0 -96c0,-14 -4,-25 -14,-35 -9,-9 -20,-14 -34,-14l-145 0zm0 -48l145 0c26,0 49,10 68,29 19,18 28,41 28,68l0 96c0,27 -9,50 -28,69 -19,18 -42,28 -68,28l-169 0c-16,0 -24,-8 -24,-24l0 -411 -73 0c-7,0 -13,-2 -18,-6 -4,-6 -6,-12 -6,-18 0,-5 2,-11 6,-16 4,-5 10,-8 18,-8l97 0c16,0 24,8 24,24l0 169zm386 0l121 0c7,0 12,3 17,8 5,5 7,10 7,16 0,6 -2,12 -6,17 -4,5 -10,7 -18,7l-121 0 0 194 169 0c7,0 12,2 17,7 5,5 7,11 7,17 0,5 -2,11 -6,16 -4,5 -10,8 -18,8l-193 0c-16,0 -24,-8 -24,-23l0 -436c0,-16 8,-24 24,-24l193 0c7,0 13,3 17,8 5,4 7,10 7,16 0,6 -2,11 -6,16 -4,5 -10,8 -18,8l-169 0 0 145zm340 242l46 -414c0,-14 8,-21 24,-21l144 0c16,0 24,8 24,24l0 411 25 0c16,0 24,8 24,24l0 48c0,6 -2,12 -7,17 -5,4 -11,7 -17,7 -5,0 -11,-2 -16,-6 -5,-4 -8,-10 -8,-18l0 -24 -242 0 0 24c0,6 -2,12 -7,17 -5,4 -11,7 -17,7 -5,0 -11,-2 -16,-6 -5,-4 -8,-10 -8,-18l0 -48c0,-16 8,-24 24,-24l27 0zm190 0l0 -387 -99 0 -43 387 142 0zm482 24c0,7 -2,13 -6,18 -5,4 -10,6 -18,6 -6,0 -12,-2 -16,-6 -5,-4 -8,-10 -8,-18l0 -341 -195 352c-3,5 -7,9 -11,12l-5 3c-2,1 -4,1 -8,2 -4,0 -10,-3 -16,-7 -4,-5 -6,-12 -6,-21l0 -434c0,-7 3,-13 7,-18 5,-5 11,-7 17,-7 6,0 12,2 17,6 5,4 7,10 7,19l0 341 196 -353c2,-4 6,-8 10,-12 5,-3 9,-5 13,-5 6,0 11,3 15,8 5,5 7,12 7,20l0 435zm338 -266l0 -169c0,-6 3,-12 7,-17 5,-5 11,-7 17,-7 6,0 12,2 17,6 5,4 7,10 7,18l0 434c0,7 -2,13 -7,18 -6,4 -12,7 -17,7 -6,0 -12,-2 -17,-6 -4,-4 -7,-10 -7,-18l0 -218 -193 0 0 218c0,7 -2,13 -7,18 -4,4 -10,6 -17,6 -6,0 -12,-2 -17,-6 -5,-4 -7,-10 -7,-18l0 -435c0,-6 2,-12 7,-17 5,-5 11,-7 17,-7 6,0 12,2 17,6 5,4 7,10 7,19l0 168 193 0zm193 0l121 0c7,0 13,3 17,8 5,5 7,10 7,16 0,6 -2,12 -6,17 -4,5 -10,7 -18,7l-121 0 0 194 169 0c7,0 13,2 18,7 4,5 7,11 7,17 0,5 -2,11 -6,16 -5,5 -11,8 -19,8l-193 0c-16,0 -24,-8 -24,-23l0 -436c0,-16 8,-24 24,-24l193 0c7,0 13,3 18,8 4,4 7,10 7,16 0,6 -2,11 -7,16 -4,5 -10,8 -18,8l-169 0 0 145zm531 0l0 -169c0,-6 2,-12 7,-17 5,-5 10,-7 17,-7 6,0 11,2 16,6 5,4 8,10 8,18l0 434c0,7 -3,13 -8,18 -6,4 -11,7 -17,7 -6,0 -11,-2 -16,-6 -5,-4 -7,-10 -7,-18l0 -218 -194 0 0 218c0,7 -2,13 -6,18 -5,4 -11,6 -18,6 -6,0 -12,-2 -16,-6 -5,-4 -8,-10 -8,-18l0 -435c0,-6 3,-12 8,-17 4,-5 10,-7 16,-7 7,0 12,2 17,6 5,4 7,10 7,19l0 168 194 0zm434 266c0,7 -3,13 -7,18 -5,4 -10,6 -17,6 -7,0 -12,-2 -17,-6 -5,-4 -7,-10 -7,-18l0 -341 -196 352c-3,5 -7,9 -11,12l-5 3c-2,1 -4,1 -8,2 -4,0 -10,-3 -16,-7 -4,-5 -6,-12 -6,-21l0 -434c0,-7 3,-13 7,-18 5,-5 11,-7 17,-7 6,0 12,2 17,6 5,4 7,10 7,19l0 341 196 -353c2,-4 6,-8 10,-12 5,-3 9,-5 13,-5 6,0 11,3 15,8 5,5 8,12 8,20l0 435zm289 -507l-97 0c-7,0 -13,-2 -17,-6 -4,-6 -7,-12 -7,-18 0,-5 2,-11 7,-16 4,-5 10,-8 17,-8l97 0c7,0 12,3 17,8 5,4 7,10 7,16 0,6 -2,11 -6,16 -4,6 -10,8 -18,8zm96 507c0,7 -2,13 -6,18 -5,4 -11,6 -18,6 -6,0 -12,-2 -16,-6 -5,-4 -8,-10 -8,-18l0 -341 -195 352c-3,5 -7,9 -11,12l-5 3c-2,1 -4,1 -8,2 -4,0 -10,-3 -16,-7 -4,-5 -6,-12 -6,-21l0 -434c0,-7 2,-13 7,-18 5,-5 11,-7 17,-7 6,0 12,2 17,6 5,4 7,10 7,19l0 341 196 -353c2,-4 6,-8 10,-12 5,-3 9,-4 13,-4 6,0 10,2 15,8 5,4 7,11 7,19l0 435z"/>
  </g>
  <g id="_326354626592">
   <path class="fil3 str0" d="M5938 5451c0,27 -10,49 -29,68 -18,19 -41,29 -68,29l-96 0c-27,0 -49,-10 -68,-28 -19,-19 -29,-42 -29,-69l0 -289c0,-27 10,-50 28,-69 19,-18 42,-28 69,-28l96 0c27,0 50,10 68,28 19,19 29,42 29,69l0 289zm-48 0l0 -290c0,-13 -5,-25 -14,-34 -9,-9 -21,-14 -35,-14l-96 0c-14,0 -25,5 -35,14 -5,5 -8,10 -10,16 -3,6 -4,12 -4,18l0 290c0,14 5,25 14,35 5,4 10,8 16,10 6,3 13,4 19,4l96 0c14,0 25,-5 34,-14 10,-9 15,-20 15,-35zm231 -145l0 194 145 0c13,0 24,-5 34,-14 9,-9 14,-20 14,-35l0 -96c0,-14 -5,-25 -14,-35 -9,-9 -20,-14 -34,-14l-145 0zm0 -48l144 0c27,0 49,10 68,29 19,18 29,41 29,68l0 96c0,27 -9,49 -28,68 -19,19 -42,29 -68,29l-169 0c-16,0 -24,-8 -24,-24l0 -435c0,-16 8,-24 24,-24l193 0c6,0 12,3 17,8 5,4 7,10 7,16 0,6 -2,11 -6,16 -4,6 -10,8 -18,8l-169 0 0 145zm482 48l0 194 145 0c14,0 25,-5 34,-14 10,-9 14,-20 14,-35l0 -96c0,-14 -4,-25 -13,-35 -9,-9 -21,-14 -35,-14l-145 0zm0 -48l145 0c27,0 50,10 68,29 19,19 28,41 28,68l0 96c0,27 -9,50 -28,69 -18,18 -41,28 -68,28l-169 0c-16,0 -24,-8 -24,-24l0 -411 -72 0c-8,0 -14,-2 -18,-6 -4,-6 -6,-12 -6,-18 0,-5 2,-11 6,-16 3,-5 10,-8 18,-8l96 0c16,0 24,8 24,24l0 169zm386 0l121 0c7,0 13,3 17,8 5,5 7,10 7,16 0,6 -2,12 -6,17 -4,5 -10,7 -18,7l-121 0 0 194 169 0c7,0 13,2 18,7 4,5 7,11 7,17 0,6 -2,11 -6,16 -4,5 -10,8 -18,8l-194 0c-16,0 -24,-8 -24,-23l0 -436c0,-16 8,-24 24,-24l194 0c6,0 12,3 17,8 4,4 7,10 7,16 0,6 -2,11 -6,16 -4,6 -10,8 -19,8l-169 0 0 145zm337 15l204 -201c5,-5 10,-7 16,-7 6,0 12,3 17,8 5,4 8,10 8,17 0,4 -3,9 -7,16l-144 143 148 263 4 12c0,7 -3,12 -8,16 -5,5 -11,8 -18,8 -8,0 -15,-4 -20,-13l-142 -251 -58 56 0 184c0,7 -2,13 -6,18 -5,4 -10,6 -18,6 -6,0 -12,-2 -16,-6 -5,-4 -8,-10 -8,-18l0 -435c0,-7 3,-12 8,-17 5,-5 10,-7 16,-7 7,0 12,2 17,6 5,4 7,10 7,18l0 184zm459 -160l-97 0c-7,0 -13,-2 -17,-6 -5,-6 -7,-12 -7,-18 0,-5 2,-11 6,-16 4,-5 10,-8 18,-8l241 0c7,0 13,3 18,8 4,4 7,10 7,16 0,6 -2,11 -6,16 -4,6 -11,8 -19,8l-96 0 0 411c0,7 -2,13 -7,18 -4,4 -10,6 -17,6 -6,0 -12,-2 -17,-6 -5,-4 -7,-10 -7,-18l0 -411zm554 411c0,7 -2,13 -6,18 -5,4 -11,6 -18,6 -6,0 -12,-2 -16,-6 -5,-4 -8,-10 -8,-18l0 -341 -195 352c-3,5 -7,9 -11,12l-5 3c-2,1 -4,1 -8,2 -4,0 -10,-3 -16,-7 -4,-5 -6,-12 -6,-21l0 -434c0,-7 2,-13 7,-18 5,-5 11,-7 17,-7 6,0 12,2 17,6 5,4 7,10 7,19l0 341 196 -353c2,-4 6,-8 10,-12 5,-3 9,-5 13,-5 6,0 11,3 15,8 5,5 7,12 7,20l0 435zm340 -252c14,9 25,20 34,35 8,15 12,31 12,48l0 96c0,27 -9,49 -28,68 -19,19 -42,29 -68,29l-169 0c-16,0 -24,-8 -24,-24l0 -435c0,-16 8,-24 24,-24l145 0c27,0 49,10 68,28 19,19 28,42 28,69l0 48c0,11 -2,22 -5,32 -3,10 -9,20 -17,30zm-195 34l0 194 145 0c13,0 25,-5 34,-14 10,-9 14,-20 14,-35l0 -96c0,-14 -4,-25 -13,-35 -9,-9 -21,-14 -35,-14l-145 0zm121 -48c13,0 25,-4 34,-13 10,-9 14,-21 14,-35l0 -48c0,-14 -4,-25 -13,-35 -9,-9 -21,-14 -35,-14l-121 0 0 145 121 0zm458 0l0 -169c0,-6 2,-12 7,-17 5,-5 11,-7 17,-7 6,0 12,2 17,6 5,4 7,10 7,18l0 434c0,7 -2,13 -7,18 -6,5 -12,7 -17,7 -6,0 -12,-2 -17,-6 -5,-4 -7,-10 -7,-18l0 -218 -193 0 0 218c0,7 -2,13 -7,18 -4,4 -10,6 -17,6 -7,0 -12,-2 -17,-6 -5,-4 -7,-10 -7,-18l0 -435c0,-6 2,-12 7,-17 5,-5 10,-7 17,-7 6,0 12,2 16,6 5,4 8,10 8,19l0 168 193 0zm434 193c0,27 -10,49 -28,68 -19,19 -42,29 -69,29l-96 0c-26,0 -49,-10 -68,-28 -19,-19 -28,-42 -28,-69l0 -289c0,-27 9,-50 28,-69 18,-18 41,-28 68,-28l96 0c27,0 50,10 69,28 18,19 28,42 28,69l0 289zm-48 0l0 -290c0,-13 -5,-25 -14,-34 -9,-9 -20,-14 -34,-14l-97 0c-14,0 -25,5 -35,14 -4,5 -8,10 -10,16 -2,6 -3,12 -3,18l0 290c0,14 4,25 13,35 5,4 10,8 16,10 7,3 13,4 19,4l97 0c13,0 24,-5 34,-14 9,-9 14,-20 14,-35zm231 -193l121 0c7,0 13,3 17,8 5,5 8,10 8,16 0,6 -2,12 -7,17 -4,5 -10,7 -18,7l-121 0 0 194 170 0c6,0 12,2 17,7 4,5 7,11 7,17 0,6 -2,11 -6,16 -4,5 -10,8 -18,8l-194 0c-16,0 -24,-8 -24,-23l0 -436c0,-16 8,-24 24,-24l194 0c6,0 12,3 17,8 4,4 7,10 7,16 0,6 -2,11 -6,16 -4,6 -10,8 -18,8l-170 0 0 145zm868 193c0,27 -9,49 -28,68 -19,19 -42,29 -68,29l-97 0c-26,0 -48,-10 -67,-28 -19,-19 -29,-42 -29,-69l0 -289c0,-27 9,-50 28,-69 19,-18 42,-28 68,-28l97 0c27,0 49,10 68,28 19,19 28,42 28,69l0 289zm-48 0l0 -290c0,-13 -4,-25 -13,-34 -9,-9 -21,-14 -35,-14l-97 0c-13,0 -25,5 -34,14 -5,5 -8,10 -11,16 -2,6 -3,12 -3,18l0 290c0,14 5,25 14,35 5,4 10,8 15,10 7,3 14,4 19,4l97 0c13,0 25,-5 34,-14 10,-9 14,-20 14,-35zm401 97l-121 0c-26,0 -49,-10 -68,-28 -19,-19 -29,-42 -29,-69l0 -289c0,-27 10,-50 28,-69 19,-18 42,-28 69,-28l121 0c6,0 12,3 17,8 4,4 7,10 7,16 0,6 -2,11 -6,16 -4,6 -10,8 -18,8l-121 0c-14,0 -25,5 -35,14 -4,5 -8,10 -10,16 -2,6 -4,12 -4,18l0 290c0,14 5,25 14,35 5,4 10,8 16,10 7,3 13,4 19,4l121 0c6,0 12,2 17,7 4,5 7,11 7,17 0,5 -2,11 -6,16 -4,5 -10,8 -18,8zm363 -276c14,9 25,20 34,35 8,15 12,31 12,48l0 96c0,27 -9,49 -28,68 -19,19 -42,29 -68,29l-169 0c-16,0 -24,-8 -24,-24l0 -435c0,-16 8,-24 24,-24l145 0c27,0 49,10 68,28 19,19 28,42 28,69l0 48c0,11 -1,22 -5,32 -3,10 -9,20 -17,30zm-195 34l0 194 145 0c13,0 25,-5 34,-14 10,-9 14,-20 14,-35l0 -96c0,-14 -4,-25 -13,-35 -9,-9 -21,-14 -35,-14l-145 0zm121 -48c13,0 25,-4 34,-13 10,-9 14,-21 14,-35l0 -48c0,-14 -4,-25 -13,-35 -9,-9 -21,-14 -35,-14l-121 0 0 145 121 0zm265 0l121 0c7,0 12,3 17,8 5,5 7,10 7,16 0,6 -2,12 -6,17 -4,5 -10,7 -18,7l-121 0 0 194 169 0c7,0 13,2 18,7 4,5 7,11 7,17 0,6 -2,11 -6,16 -5,5 -11,8 -19,8l-193 0c-16,0 -24,-8 -24,-23l0 -436c0,-16 8,-24 24,-24l193 0c7,0 13,3 18,8 4,4 7,10 7,16 0,6 -2,11 -7,16 -4,6 -10,8 -18,8l-169 0 0 145zm675 290l-24 0 -337 0c-17,0 -25,-8 -25,-24l0 -435c0,-6 3,-12 8,-18 4,-4 10,-6 16,-6 7,0 12,2 17,6 5,4 7,10 7,18l0 411 121 0 0 -411c0,-6 2,-12 7,-18 5,-4 11,-6 17,-6 6,0 12,2 17,6 5,4 7,10 7,18l0 411 121 0 0 -411c0,-6 3,-12 8,-18 4,-4 10,-6 16,-6 6,0 12,2 17,6 5,4 7,10 7,18l0 411 24 0c16,0 24,8 24,24l0 72c0,7 -2,13 -7,17 -5,5 -11,7 -17,7 -5,0 -10,-2 -16,-6 -5,-4 -8,-10 -8,-18l0 -48zm193 -290l121 0c7,0 13,3 17,8 5,5 8,10 8,16 0,6 -2,12 -7,17 -4,5 -10,7 -18,7l-121 0 0 194 170 0c6,0 12,2 17,7 4,5 7,11 7,17 0,6 -2,11 -6,16 -4,5 -10,8 -18,8l-194 0c-16,0 -24,-8 -24,-23l0 -436c0,-16 8,-24 24,-24l194 0c6,0 12,3 17,8 4,4 7,10 7,16 0,6 -2,11 -6,16 -4,6 -10,8 -18,8l-170 0 0 145zm531 0l0 -169c0,-6 2,-12 7,-17 5,-5 11,-7 17,-7 6,0 12,2 16,6 5,4 8,10 8,18l0 434c0,7 -3,13 -8,18 -5,5 -11,7 -16,7 -6,0 -12,-2 -17,-6 -5,-4 -7,-10 -7,-18l0 -218 -193 0 0 218c0,7 -3,13 -7,18 -5,4 -10,6 -17,6 -7,0 -12,-2 -17,-6 -5,-4 -7,-10 -7,-18l0 -435c0,-6 2,-12 7,-17 5,-5 10,-7 17,-7 6,0 11,2 16,6 5,4 8,10 8,19l0 168 193 0zm434 266c0,7 -3,13 -7,18 -4,4 -10,6 -17,6 -7,0 -12,-2 -17,-6 -5,-4 -7,-10 -7,-18l0 -341 -196 352c-3,5 -6,9 -11,12l-5 3c-2,1 -4,1 -7,2 -5,0 -10,-3 -16,-7 -4,-5 -7,-12 -7,-21l0 -434c0,-7 3,-13 8,-18 4,-5 10,-7 16,-7 7,0 12,2 17,6 5,4 7,10 7,19l0 341 196 -353c3,-4 6,-8 11,-12 4,-3 8,-5 13,-5 5,0 10,3 14,8 5,5 8,12 8,20l0 435zm144 -266l122 0c6,0 12,3 17,8 4,5 7,10 7,16 0,6 -2,12 -6,17 -4,5 -10,7 -18,7l-122 0 0 194 170 0c6,0 12,2 17,7 5,5 7,11 7,17 0,6 -2,11 -6,16 -4,5 -10,8 -18,8l-194 0c-16,0 -24,-8 -24,-23l0 -436c0,-16 8,-24 24,-24l194 0c6,0 12,3 17,8 5,4 7,10 7,16 0,6 -2,11 -6,16 -4,6 -10,8 -18,8l-170 0 0 145zm-7494 1038c0,7 -3,13 -7,18 -5,4 -10,6 -17,6 -7,0 -12,-2 -17,-6 -5,-4 -7,-10 -7,-18l0 -341 -196 352c-3,5 -7,9 -11,12l-5 3c-2,1 -4,1 -8,2 -4,0 -9,-3 -15,-7 -5,-5 -7,-12 -7,-21l0 -434c0,-7 3,-13 7,-18 5,-5 11,-7 17,-7 6,0 12,2 17,6 5,4 7,10 7,19l0 341 196 -353c2,-4 6,-8 10,-12 5,-3 9,-5 13,-5 6,0 11,3 15,8 5,5 8,12 8,20l0 435zm241 -218l-72 0c-8,0 -14,-2 -18,-6 -4,-5 -6,-11 -6,-18 0,-5 2,-11 6,-16 4,-5 10,-8 18,-8l72 0c14,0 25,-4 34,-13 10,-9 14,-21 14,-35l0 -48c0,-14 -4,-25 -13,-35 -9,-9 -21,-14 -35,-14l-48 0c-11,0 -20,3 -28,9 -8,6 -14,14 -18,25 -1,4 -3,8 -7,11 -2,2 -5,3 -7,4l-8 1c-7,0 -13,-2 -18,-6 -5,-5 -7,-11 -7,-18l1 -8c6,-19 18,-35 35,-47 17,-13 36,-19 57,-19l48 0c27,0 50,10 68,28 19,19 28,42 28,69l0 48c0,14 -2,27 -8,40 -6,13 -14,24 -24,32 22,19 32,43 32,73l0 96c0,27 -9,49 -28,68 -19,19 -41,29 -68,29l-48 0c-21,0 -40,-6 -56,-18 -17,-12 -29,-28 -36,-49l-1 -8c0,-6 2,-12 7,-17 5,-5 11,-7 18,-7 10,0 17,5 22,16 3,10 9,18 17,26 10,6 19,9 29,9l48 0c14,0 25,-5 34,-14 10,-9 14,-20 14,-35l0 -96c0,-14 -3,-26 -11,-34 -8,-10 -20,-15 -37,-15zm241 0l0 194 145 0c13,0 24,-5 34,-14 9,-9 14,-20 14,-35l0 -96c0,-14 -5,-25 -14,-35 -9,-9 -20,-14 -34,-14l-145 0zm0 -48l144 0c27,0 49,10 68,29 19,18 29,41 29,68l0 96c0,27 -9,49 -28,68 -19,19 -42,29 -68,29l-169 0c-16,0 -24,-8 -24,-24l0 -435c0,-16 8,-24 24,-24l193 0c6,0 12,3 17,8 5,4 7,10 7,16 0,6 -2,11 -6,16 -4,6 -10,8 -18,8l-169 0 0 145zm627 266c0,7 -2,13 -7,18 -4,4 -10,6 -17,6 -7,0 -12,-2 -17,-6 -5,-4 -7,-10 -7,-18l0 -341 -196 352c-3,5 -6,9 -11,12l-5 3c-1,1 -4,1 -7,2 -5,0 -10,-3 -16,-7 -4,-5 -6,-12 -6,-21l0 -434c0,-7 2,-13 7,-18 5,-5 10,-7 17,-7 6,0 11,2 16,6 5,4 8,10 8,19l0 341 195 -353c3,-4 6,-8 11,-12 4,-3 8,-5 13,-5 5,0 10,3 15,8 4,5 7,12 7,20l0 435zm144 -218l145 0c14,0 25,-4 35,-13 9,-9 14,-21 14,-35l0 -97c0,-13 -5,-25 -14,-34 -9,-9 -21,-14 -35,-14l-145 0 0 193zm0 48l0 170c0,7 -2,13 -6,18 -5,4 -11,6 -18,6 -6,0 -12,-2 -16,-6 -5,-4 -8,-10 -8,-18l0 -435c0,-16 8,-24 24,-24l169 0c27,0 50,10 69,28 18,19 28,42 28,69l0 96c0,26 -10,49 -29,68 -19,19 -41,28 -68,28l-145 0zm375 73l-35 104c-2,5 -5,9 -9,13 -3,2 -8,3 -13,4 -7,0 -12,-3 -17,-7 -5,-4 -8,-10 -8,-17l2 -8 145 -434c5,-14 12,-21 22,-21 11,0 18,7 23,21l145 434 1 8c0,7 -2,12 -8,17 -5,5 -10,7 -16,7 -4,0 -7,-1 -11,-3 -4,-1 -8,-6 -12,-14l-34 -104 -175 0zm159 -49l-72 -213 -71 213 143 0zm214 -265l-96 0c-8,0 -14,-2 -18,-6 -4,-6 -6,-12 -6,-18 0,-5 2,-11 6,-16 4,-5 10,-8 18,-8l241 0c6,0 12,3 17,8 5,4 7,10 7,16 0,6 -2,11 -6,16 -4,6 -10,8 -18,8l-97 0 0 411c0,7 -2,13 -7,18 -4,4 -10,6 -17,6 -6,0 -12,-2 -17,-6 -4,-4 -7,-10 -7,-18l0 -411zm313 145l122 0c6,0 12,3 17,8 5,5 7,10 7,16 0,6 -2,12 -6,17 -4,5 -10,7 -18,7l-122 0 0 194 170 0c7,0 12,2 17,7 5,5 7,11 7,17 0,6 -2,11 -6,16 -4,5 -10,8 -18,8l-193 0c-17,0 -25,-8 -25,-23l0 -436c0,-16 8,-24 25,-24l193 0c7,0 12,3 17,8 5,4 7,10 7,16 0,6 -2,11 -6,16 -4,6 -10,8 -18,8l-170 0 0 145zm580 266c0,7 -2,13 -7,18 -4,4 -10,6 -17,6 -6,0 -12,-2 -17,-6 -5,-4 -7,-10 -7,-18l0 -411 -78 0 -116 417c-1,5 -4,9 -8,12 -5,4 -10,6 -15,6 -7,0 -13,-2 -18,-6 -4,-4 -7,-10 -7,-17 0,-4 1,-6 1,-8l121 -434c3,-12 11,-18 23,-18l121 0c16,0 24,8 24,24l0 435zm144 -217l145 0c13,0 25,4 34,13 9,9 14,21 14,35l0 96c0,14 -4,25 -14,35 -4,5 -10,8 -15,10 -6,3 -12,4 -19,4l-145 0 0 -193zm0 -49l0 -169c0,-6 -3,-12 -8,-17 -4,-4 -10,-7 -16,-7 -6,0 -11,2 -16,6 -6,4 -8,10 -8,18l0 435c0,16 8,24 24,24l169 0c26,0 48,-10 67,-28 19,-19 29,-42 29,-69l0 -96c0,-26 -9,-49 -28,-68 -19,-19 -42,-29 -68,-29l-145 0zm579 0l0 -169c0,-6 2,-12 7,-17 5,-5 11,-7 17,-7 6,0 12,2 17,6 4,4 7,10 7,18l0 434c0,7 -3,13 -8,18 -5,5 -11,7 -16,7 -6,0 -12,-2 -17,-6 -5,-4 -7,-10 -7,-18l0 -218 -193 0 0 218c0,7 -3,13 -7,18 -5,4 -10,6 -17,6 -7,0 -12,-2 -17,-6 -5,-4 -7,-10 -7,-18l0 -435c0,-6 2,-12 7,-17 5,-5 10,-7 17,-7 6,0 11,2 16,6 5,4 8,10 8,19l0 168 193 0z"/>
   <path class="fil3 str0" d="M9989 6223c0,27 -10,49 -28,68 -19,19 -42,29 -69,29l-96 0c-26,0 -49,-10 -68,-28 -19,-19 -29,-42 -29,-69l0 -289c0,-27 10,-50 29,-69 18,-18 41,-28 68,-28l96 0c27,0 50,10 69,28 18,19 28,42 28,69l0 289zm-48 0l0 -290c0,-13 -5,-25 -14,-34 -9,-9 -21,-14 -35,-14l-96 0c-14,0 -25,5 -35,14 -4,5 -8,10 -10,16 -2,6 -4,12 -4,18l0 290c0,14 5,25 14,35 5,4 10,8 16,10 7,3 13,4 19,4l96 0c14,0 25,-5 35,-14 9,-9 14,-20 14,-35zm376 -434l-97 0c-7,0 -13,-2 -18,-6 -4,-6 -6,-11 -6,-18 0,-5 2,-11 6,-16 4,-5 10,-8 18,-8l97 0c6,0 12,3 17,8 5,4 7,10 7,16 0,6 -2,11 -6,16 -4,6 -10,8 -18,8zm96 507c0,7 -2,13 -7,18 -4,4 -10,6 -17,6 -6,0 -12,-2 -17,-6 -4,-4 -7,-10 -7,-18l0 -341 -196 352c-2,5 -6,9 -10,12l-6 3c-1,1 -4,1 -7,2 -5,0 -10,-3 -16,-7 -4,-5 -6,-12 -6,-21l0 -434c0,-7 2,-13 7,-18 5,-5 11,-7 17,-7 6,0 12,2 16,6 5,4 8,10 8,19l0 341 196 -353c2,-4 5,-8 10,-12 4,-3 9,-4 13,-4 5,0 10,2 15,8 5,4 7,11 7,19l0 435zm434 -251l203 -201c5,-5 11,-7 17,-7 6,0 11,3 17,8 5,4 8,10 8,17 0,4 -3,9 -8,16l-143 143 148 263 3 12c0,7 -2,12 -8,16 -5,5 -10,8 -17,8 -8,0 -15,-4 -21,-13l-141 -251 -58 56 0 184c0,7 -2,13 -7,18 -4,4 -10,6 -17,6 -6,0 -12,-2 -17,-6 -5,-4 -7,-10 -7,-18l0 -435c0,-7 3,-12 7,-17 5,-5 11,-7 17,-7 6,0 12,2 17,6 5,4 7,10 7,18l0 184zm423 154l-35 104c-2,5 -5,9 -9,13 -3,2 -8,3 -13,4 -7,0 -12,-3 -17,-7 -5,-4 -8,-10 -8,-17l2 -8 145 -434c5,-14 12,-21 22,-21 11,0 18,7 23,21l145 434 1 8c0,7 -2,12 -8,17 -5,5 -10,7 -17,7 -3,0 -6,-1 -10,-3 -4,-1 -8,-6 -12,-14l-34 -104 -175 0zm158 -49l-71 -213 -71 213 142 0zm529 146c0,7 -2,13 -7,18 -4,4 -10,6 -17,6 -6,0 -11,-2 -16,-6 -5,-4 -8,-10 -8,-18l0 -345 -100 167c-6,10 -13,15 -21,15 -7,0 -14,-5 -21,-15l-100 -167 0 345c0,7 -2,13 -7,18 -4,4 -10,6 -17,6 -6,0 -12,-2 -17,-6 -5,-4 -7,-10 -7,-18l0 -432c0,-10 2,-16 7,-21 4,-5 9,-7 15,-7 4,0 8,1 12,3 3,2 7,6 11,12l124 207 124 -207c6,-10 13,-15 23,-15 6,0 11,2 16,7 4,6 6,12 6,21l0 432zm385 0c0,7 -2,13 -7,18 -4,4 -10,6 -17,6 -6,0 -12,-2 -17,-6 -4,-4 -7,-10 -7,-18l0 -411 -193 0 0 411c0,7 -2,13 -7,18 -4,4 -10,6 -17,6 -6,0 -12,-2 -17,-6 -5,-4 -7,-10 -7,-18l0 -435c0,-16 8,-24 24,-24l241 0c16,0 24,8 24,24l0 435zm181 -97l-34 104c-2,5 -5,9 -9,13 -3,2 -8,3 -13,4 -7,0 -12,-3 -17,-7 -6,-4 -8,-10 -8,-17l2 -8 145 -434c4,-14 12,-21 22,-21 11,0 18,7 23,21l144 434 2 8c0,7 -3,12 -8,17 -5,5 -11,7 -17,7 -3,0 -6,-1 -11,-3 -4,-1 -7,-6 -11,-14l-35 -104 -175 0zm159 -49l-71 -213 -71 213 142 0zm432 -120l0 -169c0,-6 2,-12 7,-17 5,-5 11,-7 17,-7 6,0 12,2 17,6 5,4 7,10 7,18l0 434c0,7 -2,13 -7,18 -6,5 -12,7 -17,7 -6,0 -12,-2 -17,-6 -5,-4 -7,-10 -7,-18l0 -218 -193 0 0 218c0,7 -2,13 -7,18 -4,4 -10,6 -17,6 -7,0 -12,-2 -17,-6 -5,-4 -7,-10 -7,-18l0 -435c0,-6 2,-12 7,-17 5,-5 10,-7 17,-7 6,0 12,2 16,6 5,4 8,10 8,19l0 168 193 0zm434 266c0,7 -2,13 -7,18 -4,4 -10,6 -17,6 -6,0 -12,-2 -17,-6 -5,-4 -7,-10 -7,-18l0 -341 -196 352c-3,5 -6,9 -11,12l-5 3c-1,1 -4,1 -7,2 -5,0 -10,-3 -16,-7 -4,-5 -6,-12 -6,-21l0 -434c0,-7 2,-13 7,-18 5,-5 10,-7 17,-7 6,0 11,2 16,6 5,4 8,10 8,19l0 341 195 -353c3,-4 6,-8 11,-12 4,-3 8,-5 13,-5 5,0 10,3 15,8 4,5 7,12 7,20l0 435zm386 0c0,7 -2,13 -7,18 -4,4 -10,6 -17,6 -7,0 -12,-2 -17,-6 -5,-4 -7,-10 -7,-18l0 -341 -196 352c-3,5 -6,9 -11,12l-5 3c-2,1 -4,1 -7,2 -5,0 -10,-3 -16,-7 -4,-5 -7,-12 -7,-21l0 -434c0,-7 3,-13 8,-18 4,-5 10,-7 16,-7 7,0 12,2 17,6 5,4 7,10 7,19l0 341 196 -353c3,-4 6,-8 11,-12 4,-3 8,-5 13,-5 5,0 10,3 14,8 5,5 8,12 8,20l0 435z"/>
  </g>
  <g id="_326354139472">
   <path class="fil3 str0" d="M5866 13779l-121 0c-26,0 -49,-9 -68,-28 -19,-19 -29,-42 -29,-68l0 -290c0,-27 10,-50 28,-68 19,-19 42,-29 69,-29l121 0c6,0 12,3 17,8 4,5 7,10 7,16 0,6 -2,11 -6,17 -4,5 -10,7 -19,7l-120 0c-14,0 -25,5 -35,14 -5,5 -8,10 -10,16 -3,6 -4,12 -4,19l0 290c0,13 5,25 14,34 5,4 10,8 16,11 6,2 13,3 19,3l120 0c7,0 13,3 18,8 4,4 7,10 7,16 0,6 -2,11 -6,16 -4,5 -10,8 -18,8zm363 -275c14,8 25,20 33,34 9,15 13,31 13,48l0 97c0,26 -9,49 -28,68 -19,19 -42,28 -68,28l-169 0c-16,0 -24,-8 -24,-24l0 -434c0,-17 8,-25 24,-25l145 0c27,0 49,10 68,29 19,19 28,41 28,68l0 48c0,11 -2,22 -5,32 -3,11 -9,21 -17,31zm-195 34l0 193 145 0c13,0 25,-4 34,-13 10,-9 14,-21 14,-35l0 -97c0,-14 -4,-25 -13,-34 -9,-10 -21,-14 -35,-14l-145 0zm121 -48c13,0 25,-5 34,-14 10,-9 14,-20 14,-35l0 -48c0,-14 -4,-25 -13,-35 -9,-9 -21,-14 -35,-14l-121 0 0 146 121 0zm506 193c0,26 -9,49 -28,68 -19,19 -42,28 -68,28l-97 0c-26,0 -49,-9 -68,-28 -19,-19 -28,-42 -28,-68l0 -290c0,-27 9,-50 28,-68 19,-19 41,-29 68,-29l97 0c26,0 49,10 68,29 19,19 28,41 28,68l0 290zm-48 0l0 -290c0,-14 -5,-25 -14,-35 -9,-9 -20,-14 -34,-14l-97 0c-13,0 -25,5 -35,14 -4,5 -8,10 -10,16 -2,6 -3,12 -3,19l0 290c0,13 4,25 13,34 5,4 11,8 16,11 7,2 13,3 19,3l97 0c13,0 24,-4 34,-13 9,-9 14,-21 14,-35zm231 -145l0 193 145 0c13,0 25,-4 34,-13 10,-9 14,-21 14,-35l0 -97c0,-14 -4,-25 -13,-34 -9,-10 -21,-14 -35,-14l-145 0zm0 -48l145 0c26,0 49,9 68,28 19,19 28,41 28,68l0 97c0,26 -9,49 -28,68 -19,19 -41,28 -68,28l-169 0c-16,0 -24,-8 -24,-24l0 -434c0,-17 8,-25 24,-25l193 0c7,0 13,3 17,8 5,5 7,10 7,16 0,6 -2,11 -6,17 -4,5 -10,7 -18,7l-169 0 0 146zm627 193c0,26 -9,49 -28,68 -19,19 -42,28 -68,28l-97 0c-26,0 -48,-9 -67,-28 -20,-19 -29,-42 -29,-68l0 -290c0,-27 9,-50 28,-68 19,-19 42,-29 68,-29l97 0c27,0 49,10 68,29 19,19 28,41 28,68l0 290zm-48 0l0 -290c0,-14 -4,-25 -13,-35 -9,-9 -21,-14 -35,-14l-97 0c-13,0 -25,5 -34,14 -5,5 -8,10 -11,16 -2,6 -3,12 -3,19l0 290c0,13 4,25 14,34 5,4 10,8 15,11 7,2 13,3 19,3l97 0c13,0 25,-4 34,-13 10,-9 14,-21 14,-35zm208 48l46 -413c0,-14 8,-22 24,-22l145 0c16,0 24,8 24,25l0 410 24 0c17,0 25,8 25,24l0 48c0,7 -3,12 -8,17 -4,5 -10,7 -16,7 -6,0 -11,-2 -16,-6 -6,-4 -8,-10 -8,-18l0 -24 -242 0 0 24c0,7 -3,12 -8,17 -4,5 -10,7 -16,7 -6,0 -11,-2 -16,-6 -6,-4 -8,-10 -8,-18l0 -48c0,-16 8,-24 24,-24l26 0zm191 0l0 -387 -99 0 -43 387 142 0zm278 -73l-35 104c-2,6 -5,10 -9,13 -3,2 -8,3 -13,4 -7,0 -12,-2 -17,-7 -6,-4 -8,-10 -8,-16l2 -9 145 -434c4,-14 12,-21 22,-21 11,0 18,7 23,21l144 434 2 9c0,6 -2,11 -8,16 -5,5 -10,7 -17,7 -3,0 -6,-1 -11,-2 -4,-2 -7,-7 -11,-15l-35 -104 -174 0zm158 -49l-71 -212 -71 212 142 0zm531 122l46 -413c0,-14 8,-22 24,-22l144 0c17,0 25,8 25,25l0 410 24 0c16,0 24,8 24,24l0 48c0,7 -2,12 -7,17 -5,5 -11,7 -17,7 -5,0 -11,-2 -16,-6 -5,-4 -8,-10 -8,-18l0 -24 -242 0 0 24c0,7 -2,12 -7,17 -5,5 -11,7 -17,7 -5,0 -11,-2 -16,-6 -5,-4 -8,-10 -8,-18l0 -48c0,-16 8,-24 24,-24l27 0zm191 0l0 -387 -99 0 -44 387 143 0zm240 -241l122 0c6,0 12,2 17,7 5,5 7,11 7,17 0,6 -2,11 -6,16 -4,5 -10,8 -18,8l-122 0 0 193 170 0c7,0 12,3 17,8 5,4 7,10 7,16 0,6 -2,11 -6,16 -4,5 -10,8 -18,8l-194 0c-16,0 -24,-8 -24,-23l0 -435c0,-17 8,-25 24,-25l194 0c7,0 12,3 17,8 5,5 7,10 7,16 0,6 -2,12 -6,17 -4,5 -10,7 -18,7l-170 0 0 146zm531 48l0 -194 -145 0c-13,0 -25,5 -34,14 -5,5 -8,10 -11,16 -2,6 -3,12 -3,19l0 96c0,14 4,25 14,35 5,4 10,8 15,10 7,3 13,4 19,4l145 0zm-83 48l-114 182c-4,7 -11,11 -19,11 -6,0 -12,-3 -17,-8 -5,-4 -8,-10 -8,-16 0,-5 1,-10 4,-13l97 -156 -5 0c-26,0 -48,-10 -67,-28 -20,-19 -29,-42 -29,-69l0 -96c0,-27 9,-50 28,-68 19,-19 42,-29 68,-29l169 0c16,0 24,8 24,25l0 434c0,7 -2,14 -7,18 -4,4 -10,6 -17,6 -6,0 -12,-2 -17,-6 -4,-4 -7,-10 -7,-18l0 -169 -83 0zm348 -242l-96 0c-7,0 -13,-2 -18,-6 -4,-5 -6,-11 -6,-18 0,-5 2,-10 6,-16 4,-5 10,-8 18,-8l241 0c7,0 12,3 17,8 5,5 7,10 7,16 0,6 -2,11 -6,17 -4,5 -10,7 -18,7l-97 0 0 411c0,7 -2,14 -6,18 -5,4 -11,6 -18,6 -6,0 -12,-2 -16,-6 -5,-4 -8,-10 -8,-18l0 -411zm314 146l121 0c7,0 12,2 17,7 5,5 7,11 7,17 0,6 -2,11 -6,16 -4,5 -10,8 -18,8l-121 0 0 193 169 0c7,0 12,3 17,8 5,4 7,10 7,16 0,6 -2,11 -6,16 -4,5 -10,8 -18,8l-193 0c-16,0 -24,-8 -24,-23l0 -435c0,-17 8,-25 24,-25l193 0c7,0 13,3 17,8 5,5 7,10 7,16 0,6 -2,12 -6,17 -4,5 -10,7 -18,7l-169 0 0 146zm579 265c0,7 -2,14 -7,18 -4,4 -10,6 -17,6 -6,0 -12,-2 -17,-6 -4,-4 -7,-10 -7,-18l0 -411 -78 0 -116 417c-1,5 -4,9 -8,13 -5,3 -10,5 -15,5 -7,0 -13,-2 -18,-6 -4,-4 -7,-10 -7,-17 0,-4 1,-6 1,-7l121 -435c4,-12 11,-18 23,-18l121 0c16,0 24,8 24,25l0 434zm144 -217l145 0c14,0 25,4 34,14 10,9 14,20 14,34l0 97c0,13 -4,25 -13,34 -5,5 -10,8 -16,11 -6,2 -12,3 -19,3l-145 0 0 -193zm0 -48l0 -169c0,-7 -2,-12 -7,-17 -5,-5 -11,-8 -17,-8 -6,0 -11,2 -16,6 -5,4 -8,11 -8,19l0 434c0,16 8,24 24,24l169 0c26,0 48,-9 67,-28 20,-18 29,-41 29,-68l0 -97c0,-26 -9,-49 -28,-68 -19,-19 -41,-28 -68,-28l-145 0zm579 0l0 -170c0,-6 2,-12 7,-16 5,-5 11,-8 17,-8 6,0 12,2 17,6 5,4 7,11 7,19l0 433c0,7 -2,13 -7,18 -6,5 -12,7 -17,7 -6,0 -12,-2 -17,-6 -5,-4 -7,-10 -7,-18l0 -217 -193 0 0 217c0,7 -2,14 -7,18 -4,4 -10,6 -17,6 -7,0 -12,-2 -17,-6 -5,-4 -7,-10 -7,-18l0 -434c0,-7 2,-13 7,-18 5,-4 10,-6 17,-6 6,0 12,2 16,6 5,4 8,10 8,18l0 169 193 0zm434 193c0,26 -9,49 -28,68 -19,19 -42,28 -69,28l-96 0c-26,0 -49,-9 -68,-28 -19,-19 -28,-42 -28,-68l0 -290c0,-27 9,-50 28,-68 18,-19 41,-29 68,-29l96 0c27,0 50,10 69,29 19,19 28,41 28,68l0 290zm-48 0l0 -290c0,-14 -5,-25 -14,-35 -9,-9 -20,-14 -34,-14l-97 0c-14,0 -25,5 -35,14 -4,5 -8,10 -10,16 -2,6 -3,12 -3,19l0 290c0,13 4,25 13,34 5,4 10,8 16,11 7,2 13,3 19,3l97 0c13,0 24,-4 34,-13 9,-9 14,-21 14,-35zm400 96l-120 0c-27,0 -49,-9 -68,-28 -19,-19 -29,-42 -29,-68l0 -290c0,-27 9,-50 28,-68 19,-19 42,-29 69,-29l120 0c7,0 13,3 17,8 5,5 7,10 7,16 0,6 -2,11 -6,17 -4,5 -10,7 -18,7l-121 0c-13,0 -25,5 -34,14 -5,5 -8,10 -11,16 -2,6 -3,12 -3,19l0 290c0,13 5,25 14,34 5,4 10,8 15,11 7,2 14,3 19,3l121 0c7,0 13,3 17,8 5,4 7,10 7,16 0,6 -2,11 -6,16 -4,5 -10,8 -18,8zm241 -435l-96 0c-8,0 -14,-2 -18,-6 -4,-5 -6,-11 -6,-18 0,-5 2,-10 6,-16 4,-5 10,-8 18,-8l241 0c7,0 12,3 17,8 5,5 7,10 7,16 0,6 -2,11 -6,17 -4,5 -10,7 -18,7l-97 0 0 411c0,7 -2,14 -7,18 -4,4 -10,6 -17,6 -6,0 -12,-2 -17,-6 -4,-4 -7,-10 -7,-18l0 -411zm555 411c0,7 -2,14 -7,18 -4,4 -10,6 -17,6 -7,0 -12,-2 -17,-6 -5,-4 -7,-10 -7,-18l0 -341 -196 353c-3,5 -6,8 -11,11l-5 3c-2,1 -4,2 -7,2 -5,0 -10,-2 -16,-7 -4,-5 -7,-12 -7,-21l0 -434c0,-7 3,-13 8,-18 4,-4 10,-6 16,-6 7,0 12,2 17,6 5,4 7,10 7,18l0 341 196 -353c3,-4 6,-7 11,-11 4,-4 8,-5 13,-5 5,0 10,2 14,8 5,5 8,11 8,20l0 434zm675 -72c0,26 -9,49 -28,68 -19,19 -42,28 -68,28l-97 0c-26,0 -49,-9 -68,-28 -19,-19 -28,-42 -28,-68l0 -290c0,-27 9,-50 28,-68 18,-19 41,-29 68,-29l97 0c26,0 49,10 68,29 19,19 28,41 28,68l0 290zm-48 0l0 -290c0,-14 -5,-25 -14,-35 -9,-9 -20,-14 -34,-14l-97 0c-14,0 -25,5 -35,14 -4,5 -8,10 -10,16 -2,6 -3,12 -3,19l0 290c0,13 4,25 13,34 5,4 11,8 16,11 7,2 13,3 19,3l97 0c13,0 24,-4 34,-13 9,-9 14,-21 14,-35zm231 -145l145 0c13,0 25,-5 34,-14 10,-9 14,-20 14,-35l0 -96c0,-14 -4,-25 -13,-35 -9,-9 -21,-14 -35,-14l-145 0 0 194zm0 48l0 169c0,7 -2,14 -7,18 -4,4 -10,6 -17,6 -6,0 -12,-2 -17,-6 -5,-4 -7,-10 -7,-18l0 -434c0,-17 8,-25 24,-25l169 0c27,0 50,10 68,29 19,19 28,41 28,68l0 96c0,27 -9,49 -28,68 -19,19 -41,29 -68,29l-145 0zm555 -242l-169 0 0 411c0,7 -2,14 -7,18 -4,4 -10,6 -17,6 -6,0 -12,-2 -17,-6 -5,-4 -7,-10 -7,-18l0 -434c0,-17 8,-25 24,-25l193 0c7,0 13,3 17,8 5,5 7,10 7,16 0,6 -2,11 -6,17 -4,5 -10,7 -18,7zm104 314l-35 104c-1,6 -4,10 -8,13 -4,2 -8,3 -14,4 -6,0 -12,-2 -16,-7 -6,-4 -8,-10 -8,-16l1 -9 145 -434c5,-14 13,-21 23,-21 10,0 18,7 23,21l144 434 2 9c0,6 -3,11 -8,16 -5,5 -11,7 -17,7 -3,0 -7,-1 -11,-2 -4,-2 -8,-7 -11,-15l-35 -104 -175 0zm159 -49l-71 -212 -71 212 142 0zm432 -119l0 -170c0,-6 2,-12 7,-16 5,-5 11,-8 17,-8 6,0 12,2 17,6 4,4 7,11 7,19l0 433c0,7 -3,13 -8,18 -5,5 -11,7 -16,7 -6,0 -12,-2 -17,-6 -5,-4 -7,-10 -7,-18l0 -217 -193 0 0 217c0,7 -3,14 -7,18 -5,4 -10,6 -17,6 -7,0 -12,-2 -17,-6 -5,-4 -7,-10 -7,-18l0 -434c0,-7 2,-13 7,-18 5,-4 10,-6 17,-6 6,0 11,2 16,6 5,4 8,10 8,18l0 169 193 0zm434 265c0,7 -2,14 -7,18 -4,4 -10,6 -17,6 -7,0 -12,-2 -17,-6 -5,-4 -7,-10 -7,-18l0 -341 -196 353c-3,5 -6,8 -11,11l-5 3c-2,1 -4,2 -7,2 -5,0 -10,-2 -16,-7 -4,-5 -7,-12 -7,-21l0 -434c0,-7 3,-13 8,-18 4,-4 10,-6 16,-6 7,0 12,2 17,6 5,4 7,10 7,18l0 341 196 -353c3,-4 6,-7 11,-11 4,-4 8,-5 13,-5 5,0 10,2 14,8 5,5 8,11 8,20l0 434zm241 -217l-72 0c-7,0 -13,-2 -18,-7 -4,-5 -6,-11 -6,-17 0,-6 2,-11 6,-16 5,-6 10,-8 18,-8l72 0c14,0 25,-5 34,-14 10,-9 15,-20 15,-35l0 -48c0,-14 -5,-25 -14,-35 -9,-9 -21,-14 -35,-14l-48 0c-11,0 -20,3 -28,9 -8,6 -14,14 -17,25 -2,4 -4,8 -8,11 -2,2 -4,4 -7,5l-8 1c-6,0 -12,-2 -18,-7 -5,-4 -7,-10 -7,-17l1 -9c7,-19 18,-35 35,-47 17,-12 36,-19 57,-19l48 0c27,0 50,10 68,29 19,19 29,41 29,68l0 48c0,14 -3,28 -9,40 -5,13 -14,24 -24,33 22,18 33,42 33,72l0 97c0,26 -10,49 -29,68 -18,19 -41,28 -68,28l-48 0c-21,0 -39,-6 -56,-18 -17,-12 -28,-28 -36,-48l-1 -9c0,-6 2,-12 7,-16 5,-5 11,-8 18,-8 10,0 17,6 22,17 3,9 9,18 17,25 10,6 19,9 29,9l48 0c14,0 25,-4 34,-13 10,-9 15,-21 15,-35l0 -97c0,-14 -4,-25 -11,-34 -9,-9 -21,-14 -38,-14zm253 120l-35 104c-2,6 -5,10 -9,13 -3,2 -7,3 -13,4 -6,0 -12,-2 -17,-7 -5,-4 -8,-10 -8,-16l2 -9 145 -434c5,-14 13,-21 23,-21 10,0 18,7 23,21l144 434 2 9c0,6 -3,11 -8,16 -5,5 -11,7 -17,7 -3,0 -7,-1 -11,-2 -4,-2 -8,-7 -11,-15l-35 -104 -175 0zm159 -49l-71 -212 -71 212 142 0zm432 122l0 -410c0,-7 2,-13 7,-18 5,-4 10,-7 17,-7 6,0 12,2 16,6 5,5 8,11 8,19l0 410 24 0c16,0 24,8 24,24l0 73c0,6 -2,12 -7,17 -5,4 -10,7 -17,7 -5,0 -10,-2 -16,-6 -5,-4 -8,-10 -8,-18l0 -49 -265 0c-16,0 -25,-8 -25,-24l0 -434c0,-7 3,-13 8,-18 4,-4 10,-7 16,-7 7,0 12,2 17,6 5,5 7,11 7,19l0 410 194 0zm482 24c0,7 -2,14 -7,18 -4,4 -10,6 -17,6 -7,0 -12,-2 -17,-6 -5,-4 -7,-10 -7,-18l0 -341 -196 353c-3,5 -6,8 -11,11l-5 3c-1,1 -4,2 -7,2 -5,0 -10,-2 -16,-7 -4,-5 -6,-12 -6,-21l0 -434c0,-7 2,-13 7,-18 5,-4 10,-6 17,-6 6,0 11,2 16,6 5,4 7,10 7,18l0 341 196 -353c3,-4 6,-7 11,-11 4,-4 8,-5 13,-5 5,0 10,2 15,8 4,5 7,11 7,20l0 434zm289 -507l-96 0c-8,0 -14,-2 -18,-6 -4,-5 -6,-11 -6,-17 0,-6 2,-11 6,-17 4,-5 10,-7 18,-7l96 0c7,0 13,2 17,7 5,5 7,10 7,17 0,5 -2,10 -6,16 -4,5 -10,7 -18,7zm97 507c0,7 -3,14 -7,18 -5,4 -10,6 -17,6 -7,0 -12,-2 -17,-6 -5,-4 -7,-10 -7,-18l0 -341 -196 353c-3,5 -7,8 -11,11l-5 3c-2,1 -4,2 -8,2 -4,0 -9,-2 -15,-7 -5,-5 -7,-12 -7,-21l0 -434c0,-7 3,-13 8,-18 4,-4 10,-6 16,-6 6,0 12,2 17,6 5,4 7,10 7,18l0 341 196 -352c2,-4 6,-8 10,-12 5,-3 9,-5 14,-5 5,0 10,3 14,8 5,5 8,11 8,20l0 434zm147 0l0 6 -24 96c-3,13 -11,19 -24,19 -7,0 -13,-3 -17,-7 -5,-4 -8,-9 -8,-17l1 -6 24 -95 0 -20c0,-7 2,-13 7,-18 5,-4 11,-7 17,-7 6,0 12,2 17,6 4,5 7,11 7,19l0 24zm-11918 700c0,26 -10,49 -29,68 -18,19 -41,28 -68,28l-96 0c-27,0 -49,-9 -68,-28 -19,-19 -29,-42 -29,-68l0 -290c0,-27 10,-50 28,-68 19,-19 42,-29 69,-29l96 0c27,0 50,10 68,29 19,19 29,41 29,68l0 290zm-48 0l0 -290c0,-14 -5,-25 -14,-35 -9,-9 -21,-14 -35,-14l-96 0c-14,0 -25,5 -35,14 -5,5 -8,10 -10,16 -3,6 -4,12 -4,19l0 290c0,13 5,25 14,34 5,4 10,8 16,11 6,2 13,3 19,3l96 0c14,0 25,-4 34,-13 10,-9 15,-21 15,-35z"/>
   <path class="fil3 str0" d="M6290 14551l-121 0c-26,0 -49,-9 -68,-28 -19,-19 -28,-42 -28,-68l0 -290c0,-27 9,-50 28,-68 18,-19 41,-29 68,-29l121 0c7,0 12,3 17,8 5,5 7,10 7,16 0,6 -2,11 -6,17 -4,5 -10,7 -18,7l-121 0c-14,0 -25,5 -35,14 -4,5 -8,10 -10,16 -2,6 -3,12 -3,19l0 290c0,13 4,25 13,34 5,4 11,8 16,11 7,2 13,3 19,3l121 0c7,0 12,3 17,8 5,4 7,10 7,16 0,6 -2,11 -6,16 -4,5 -10,8 -18,8zm362 -193l-145 0c-26,0 -49,-10 -68,-28 -19,-19 -29,-42 -29,-69l0 -168c0,-7 3,-13 7,-18 5,-4 11,-7 17,-7 6,0 12,2 17,6 5,4 7,11 7,19l0 169c0,13 5,25 14,34 5,4 10,8 16,10 6,3 13,4 19,4l145 0 0 -217c0,-7 2,-13 7,-18 5,-4 10,-7 17,-7 6,0 11,2 16,6 5,4 8,11 8,19l0 362c0,26 -10,49 -29,68 -18,19 -41,28 -68,28l-120 0c-8,0 -14,-2 -18,-7 -4,-5 -6,-10 -6,-17 0,-6 2,-11 6,-16 4,-5 10,-8 18,-8l120 0c14,0 25,-4 34,-13 10,-9 15,-21 15,-35l0 -97zm530 193l-24 0 -338 0c-16,0 -24,-8 -24,-24l0 -434c0,-7 2,-13 7,-18 5,-4 11,-7 17,-7 6,0 12,2 17,6 5,5 7,11 7,19l0 410 121 0 0 -410c0,-7 2,-13 7,-18 5,-4 10,-7 17,-7 6,0 11,2 16,6 5,5 8,11 8,19l0 410 121 0 0 -410c0,-7 2,-13 7,-18 5,-4 11,-7 17,-7 6,0 12,2 17,6 5,4 7,11 7,19l0 410 24 0c16,0 24,8 24,24l0 73c0,6 -2,12 -7,17 -5,4 -11,7 -17,7 -5,0 -11,-2 -16,-6 -5,-4 -8,-10 -8,-18l0 -49zm193 -289l121 0c7,0 12,2 17,7 5,5 7,11 7,17 0,6 -2,11 -6,16 -4,5 -10,8 -18,8l-121 0 0 193 169 0c7,0 13,3 17,8 5,4 7,10 7,16 0,6 -2,11 -6,16 -4,5 -10,8 -18,8l-193 0c-16,0 -24,-8 -24,-23l0 -435c0,-17 8,-25 24,-25l193 0c7,0 13,3 17,8 5,5 7,10 7,16 0,6 -2,12 -6,17 -4,5 -10,7 -18,7l-169 0 0 146zm482 289l-121 0c-26,0 -48,-9 -68,-28 -19,-19 -28,-42 -28,-68l0 -290c0,-27 9,-50 28,-68 19,-19 41,-29 68,-29l121 0c7,0 13,3 17,8 5,5 7,10 7,16 0,6 -2,11 -6,17 -4,5 -10,7 -18,7l-121 0c-13,0 -25,5 -34,14 -5,5 -8,10 -11,16 -2,6 -3,12 -3,19l0 290c0,13 4,25 14,34 5,4 10,8 15,11 7,2 13,3 19,3l121 0c7,0 13,3 17,8 5,4 7,10 7,16 0,6 -2,11 -6,16 -4,5 -10,8 -18,8zm241 -435l-96 0c-8,0 -14,-2 -18,-6 -4,-5 -7,-11 -7,-18 0,-5 2,-10 6,-16 4,-5 11,-8 19,-8l241 0c6,0 12,3 17,8 4,5 7,10 7,16 0,6 -2,11 -6,17 -4,5 -10,7 -18,7l-97 0 0 411c0,7 -2,14 -7,18 -4,4 -10,6 -17,6 -6,0 -12,-2 -17,-6 -5,-4 -7,-10 -7,-18l0 -411zm509 160c13,8 24,20 33,34 8,15 13,31 13,48l0 97c0,26 -10,49 -29,68 -18,19 -41,28 -68,28l-169 0c-16,0 -24,-8 -24,-24l0 -434c0,-17 8,-25 24,-25l145 0c27,0 50,10 68,29 19,19 29,41 29,68l0 48c0,11 -2,22 -6,32 -3,11 -9,21 -16,31zm-196 34l0 193 145 0c14,0 25,-4 34,-13 10,-9 15,-21 15,-35l0 -97c0,-14 -5,-25 -14,-34 -9,-10 -21,-14 -35,-14l-145 0zm121 -48c14,0 25,-5 34,-14 10,-9 15,-20 15,-35l0 -48c0,-14 -5,-25 -14,-35 -9,-9 -21,-14 -35,-14l-121 0 0 146 121 0zm455 265c0,7 -2,14 -6,18 -5,4 -10,6 -18,6 -6,0 -12,-2 -16,-6 -5,-4 -8,-10 -8,-18l0 -411 -78 0 -116 417c-1,5 -3,9 -8,13 -4,3 -9,5 -15,5 -7,0 -13,-2 -17,-6 -5,-4 -7,-10 -7,-17 0,-4 0,-6 1,-7l121 -435c3,-12 11,-18 23,-18l120 0c16,0 24,8 24,25l0 434zm338 -217l0 -194 -145 0c-14,0 -25,5 -35,14 -5,5 -8,10 -10,16 -3,6 -4,12 -4,19l0 96c0,14 5,25 14,35 5,4 10,8 16,10 6,3 13,4 19,4l145 0zm-83 48l-114 182c-5,7 -12,11 -20,11 -6,0 -11,-3 -16,-8 -6,-4 -9,-10 -9,-16 0,-5 2,-10 4,-13l98 -156 -5 0c-26,0 -49,-10 -68,-28 -19,-19 -29,-42 -29,-69l0 -96c0,-27 10,-50 28,-68 19,-19 42,-29 69,-29l168 0c17,0 25,8 25,25l0 434c0,7 -3,14 -7,18 -5,4 -10,6 -17,6 -7,0 -12,-2 -17,-6 -5,-4 -7,-10 -7,-18l0 -169 -83 0zm275 -96l121 0c7,0 13,2 17,7 5,5 8,11 8,17 0,6 -2,11 -6,16 -4,5 -11,8 -19,8l-121 0 0 193 170 0c6,0 12,3 17,8 5,4 7,10 7,16 0,6 -2,11 -6,16 -4,5 -10,8 -18,8l-194 0c-16,0 -24,-8 -24,-23l0 -435c0,-17 8,-25 24,-25l194 0c6,0 12,3 17,8 5,5 7,10 7,16 0,6 -2,12 -6,17 -4,5 -10,7 -18,7l-170 0 0 146zm628 265c0,7 -2,14 -7,18 -4,4 -10,6 -17,6 -6,0 -11,-2 -16,-6 -6,-4 -8,-10 -8,-18l0 -344 -100 166c-6,11 -13,16 -21,16 -7,0 -14,-5 -21,-16l-100 -166 0 344c0,7 -3,14 -7,18 -4,4 -10,6 -17,6 -7,0 -12,-2 -17,-6 -5,-4 -7,-10 -7,-18l0 -432c0,-9 2,-16 7,-21 4,-4 9,-7 15,-7 4,0 8,1 11,3 4,3 8,7 12,13l124 206 124 -206c5,-11 13,-16 23,-16 5,0 11,3 15,8 5,5 7,12 7,20l0 432zm434 0c0,7 -3,14 -7,18 -4,4 -10,6 -17,6 -7,0 -12,-2 -17,-6 -5,-4 -7,-10 -7,-18l0 -434c0,-7 2,-13 7,-18 5,-4 10,-7 17,-7 6,0 11,2 17,6 4,4 7,11 7,19l0 434zm-290 -217l0 193 97 0c13,0 24,-4 34,-13 9,-9 14,-21 14,-35l0 -97c0,-14 -4,-25 -14,-34 -9,-10 -20,-14 -34,-14l-97 0zm0 -48l96 0c27,0 49,9 68,28 20,19 29,41 29,68l0 97c0,26 -9,49 -28,68 -19,19 -42,28 -68,28l-121 0c-16,0 -24,-8 -24,-24l0 -434c0,-7 2,-13 7,-18 5,-4 10,-7 17,-7 6,0 12,2 16,6 5,5 8,11 8,19l0 169zm555 4l124 -187c2,-3 5,-6 9,-8l5 -3 6 0c6,0 12,3 17,8 5,5 8,10 8,17 0,4 -2,9 -4,13l-136 204 136 203 3 7 1 7c0,6 -3,12 -8,17 -5,5 -11,7 -18,7 -7,0 -14,-4 -19,-11l-124 -186 -125 186c-1,3 -4,6 -9,9l-10 2c-5,0 -11,-2 -17,-7 -6,-5 -8,-11 -8,-17 0,-5 1,-9 4,-14l136 -203 -137 -204 -3 -7 0 -6c0,-7 2,-12 7,-17 5,-5 11,-8 18,-8 8,0 14,4 19,12l125 186zm798 10c13,8 24,20 33,34 8,15 13,31 13,48l0 97c0,26 -10,49 -29,68 -19,19 -41,28 -68,28l-169 0c-16,0 -24,-8 -24,-24l0 -434c0,-17 8,-25 24,-25l145 0c27,0 50,10 68,29 19,19 29,41 29,68l0 48c0,11 -2,22 -6,32 -3,11 -9,21 -16,31zm-196 34l0 193 145 0c14,0 25,-4 34,-13 10,-9 15,-21 15,-35l0 -97c0,-14 -5,-25 -14,-34 -9,-10 -21,-14 -35,-14l-145 0zm121 -48c14,0 25,-5 34,-14 10,-9 15,-20 15,-35l0 -48c0,-14 -5,-25 -14,-35 -9,-9 -21,-14 -35,-14l-121 0 0 146 121 0zm555 265c0,7 -2,14 -7,18 -4,4 -10,6 -17,6 -6,0 -12,-2 -17,-6 -5,-4 -7,-10 -7,-18l0 -434c0,-7 2,-13 7,-18 5,-4 11,-7 17,-7 6,0 12,2 17,6 5,4 7,11 7,19l0 434zm-290 -217l0 193 97 0c13,0 25,-4 34,-13 10,-9 14,-21 14,-35l0 -97c0,-14 -4,-25 -13,-34 -9,-10 -21,-14 -35,-14l-97 0zm0 -48l97 0c26,0 49,9 68,28 19,19 28,41 28,68l0 97c0,26 -9,49 -28,68 -19,19 -41,28 -68,28l-121 0c-16,0 -24,-8 -24,-24l0 -434c0,-7 2,-13 7,-18 5,-4 11,-7 17,-7 6,0 12,2 17,6 5,5 7,11 7,19l0 169zm675 265c0,7 -2,14 -6,18 -5,4 -11,6 -18,6 -6,0 -12,-2 -16,-6 -5,-4 -8,-10 -8,-18l0 -411 -193 0 0 411c0,7 -2,14 -7,18 -4,4 -10,6 -17,6 -6,0 -12,-2 -17,-6 -5,-4 -7,-10 -7,-18l0 -434c0,-17 8,-25 24,-25l241 0c16,0 24,8 24,25l0 434zm338 -169l-145 0c-26,0 -48,-10 -68,-28 -19,-19 -28,-42 -28,-69l0 -168c0,-7 2,-13 7,-18 5,-4 11,-7 17,-7 6,0 12,2 16,6 5,4 8,11 8,19l0 169c0,13 4,25 14,34 5,4 10,8 15,10 7,3 13,4 19,4l145 0 0 -217c0,-7 3,-13 7,-18 5,-4 11,-7 17,-7 6,0 12,2 17,6 5,4 7,11 7,19l0 362c0,26 -9,49 -28,68 -19,19 -42,28 -68,28l-121 0c-7,0 -13,-2 -18,-7 -4,-5 -6,-10 -6,-17 0,-6 2,-11 6,-16 5,-5 11,-8 18,-8l121 0c13,0 25,-4 34,-13 10,-9 14,-21 14,-35l0 -97zm362 193l-121 0c-26,0 -49,-9 -68,-28 -19,-19 -28,-42 -28,-68l0 -290c0,-27 9,-50 28,-68 19,-19 41,-29 68,-29l121 0c7,0 12,3 17,8 5,5 7,10 7,16 0,6 -2,11 -6,17 -4,5 -10,7 -18,7l-121 0c-13,0 -25,5 -35,14 -4,5 -8,10 -10,16 -2,6 -3,12 -3,19l0 290c0,13 4,25 13,34 5,4 11,8 16,11 7,2 13,3 19,3l121 0c7,0 12,3 17,8 5,4 7,10 7,16 0,6 -2,11 -6,16 -4,5 -10,8 -18,8zm168 -274l204 -202c4,-4 10,-7 16,-7 6,0 12,3 17,8 5,5 8,11 8,17 0,4 -3,10 -7,17l-144 143 148 262 3 13c0,6 -2,11 -7,16 -5,5 -11,7 -18,7 -8,0 -15,-4 -20,-13l-142 -251 -58 56 0 184c0,7 -2,14 -6,18 -5,4 -11,6 -18,6 -6,0 -12,-2 -16,-6 -5,-4 -8,-10 -8,-18l0 -435c0,-6 3,-12 8,-16 5,-5 10,-8 16,-8 6,0 12,2 17,6 5,4 7,10 7,18l0 185zm845 274l-121 0c-26,0 -49,-9 -68,-28 -19,-19 -28,-42 -28,-68l0 -290c0,-27 9,-50 28,-68 18,-19 41,-29 68,-29l121 0c6,0 12,3 17,8 5,5 7,10 7,16 0,6 -2,11 -6,17 -4,5 -10,7 -18,7l-121 0c-14,0 -25,5 -35,14 -4,5 -8,10 -10,16 -2,6 -3,12 -3,19l0 290c0,13 4,25 13,34 5,4 10,8 16,11 7,2 13,3 19,3l121 0c6,0 12,3 17,8 5,4 7,10 7,16 0,6 -2,11 -6,16 -4,5 -10,8 -18,8zm458 -24c0,7 -2,14 -6,18 -5,4 -11,6 -18,6 -5,0 -11,-2 -16,-6 -5,-4 -8,-10 -8,-18l0 -344 -100 166c-6,11 -13,16 -21,16 -7,0 -13,-5 -20,-16l-101 -166 0 344c0,7 -2,14 -7,18 -4,4 -10,6 -17,6 -6,0 -12,-2 -17,-6 -4,-4 -7,-10 -7,-18l0 -432c0,-9 3,-16 7,-21 4,-4 9,-7 15,-7 5,0 9,1 12,3 3,3 7,7 11,13l124 206 124 -206c6,-11 14,-16 23,-16 6,0 11,3 16,8 4,5 6,12 6,20l0 432zm386 0c0,7 -3,14 -7,18 -5,4 -10,6 -17,6 -7,0 -12,-2 -17,-6 -5,-4 -7,-10 -7,-18l0 -341 -196 353c-3,5 -7,8 -11,11l-5 3c-2,1 -4,2 -8,2 -4,0 -10,-2 -16,-7 -4,-5 -6,-12 -6,-21l0 -434c0,-7 3,-13 7,-18 5,-4 11,-6 17,-6 6,0 12,2 17,6 5,4 7,10 7,18l0 341 196 -353c2,-4 6,-7 10,-11 5,-4 9,-5 13,-5 6,0 11,2 15,8 5,5 8,11 8,20l0 434z"/>
  </g>
 </g>
</svg>
