<?xml version="1.0" encoding="UTF-8"?>
<!DOCTYPE svg PUBLIC "-//W3C//DTD SVG 1.0//EN" "http://www.w3.org/TR/2001/REC-SVG-20010904/DTD/svg10.dtd">
<!-- Creator: CorelDRAW X7 -->
<svg xmlns="http://www.w3.org/2000/svg" xml:space="preserve" width="200mm" height="200mm" version="1.0" style="shape-rendering:geometricPrecision; text-rendering:geometricPrecision; image-rendering:optimizeQuality; fill-rule:evenodd; clip-rule:evenodd"
viewBox="0 0 20000 20000"
 xmlns:xlink="http://www.w3.org/1999/xlink">
 <defs>
  <style type="text/css">
   <![CDATA[
    .str5 {stroke:#2B2A29;stroke-width:25}
    .str4 {stroke:white;stroke-width:25}
    .str0 {stroke:#024541;stroke-width:150;stroke-linecap:round;stroke-linejoin:round}
    .str3 {stroke:#024541;stroke-width:118.73;stroke-linecap:round;stroke-linejoin:round}
    .str2 {stroke:#024541;stroke-width:150;stroke-linecap:round;stroke-linejoin:round}
    .str1 {stroke:#024541;stroke-width:150;stroke-linecap:round;stroke-linejoin:round}
    .fil6 {fill:none}
    .fil5 {fill:#FEFEFE}
    .fil29 {fill:#2B2A29}
    .fil3 {fill:#A75F4A}
    .fil8 {fill:#CC6F3C}
    .fil25 {fill:#FCFAFA}
    .fil18 {fill:#F19321}
    .fil19 {fill:#E3E1E0}
    .fil28 {fill:#D5693D}
    .fil13 {fill:#CC2A29}
    .fil20 {fill:#C5C2C1}
    .fil2 {fill:#B7B0A7}
    .fil26 {fill:#9D9A99}
    .fil16 {fill:#89CCC6}
    .fil17 {fill:#6DC3BD}
    .fil27 {fill:#6B8687}
    .fil12 {fill:#354045}
    .fil23 {fill:#283C4B}
    .fil24 {fill:#283643}
    .fil9 {fill:#024541}
    .fil22 {fill:#27455E}
    .fil21 {fill:#263E57}
    .fil15 {fill:#23364B}
    .fil10 {fill:#00315E}
    .fil1 {fill:#F4F4F4}
    .fil7 {fill:#FFCA9C}
    .fil14 {fill:white}
    .fil11 {fill:#4D897C;fill-rule:nonzero}
    .fil4 {fill:#024541;fill-rule:nonzero}
    .fil0 {fill:url(#id0)}
   ]]>
  </style>
  <radialGradient id="id0" gradientUnits="userSpaceOnUse" gradientTransform="matrix(1.41421 -0 -0 1.41421 -4142 -4142)" cx="10000" cy="10000" r="10000" fx="10000" fy="10000">
   <stop offset="0" style="stop-opacity:1; stop-color:#FEFEFE"/>
   <stop offset="0.439216" style="stop-opacity:1; stop-color:#FEFEFE"/>
   <stop offset="1" style="stop-opacity:1; stop-color:#D1E2F2"/>
  </radialGradient>
 </defs>
 <g id="Layer_x0020_1">
  <metadata id="CorelCorpID_0Corel-Layer"/>
  <path class="fil0" d="M0 0l20000 0 0 20000 -20000 0 0 -20000z"/>
  <g id="_504773499200">
   <path class="fil1" d="M7545 3514l325 1 -1 -428 -325 0 1 427z"/>
   <path class="fil1" d="M8840 3515l320 0 1 -225 -320 2 -1 223z"/>
   <path class="fil1" d="M6249 3515l322 0 1 -220 -322 -4 -1 224z"/>
   <g>
    <path class="fil2 str0" d="M9583 5749l0 777c0,323 -259,580 -575,580l-1185 0 0 1344 0 0 -2727 0 0 -1544c0,-322 259,-586 575,-586l462 0 631 1509 631 -1509 336 0 306 0c138,0 227,63 300,154 95,120 508,-104 508,79l0 -804 738 0z"/>
    <path class="fil2 str1" d="M6764 7949l-434 -443 0 -296 -357 -266 77 -624 83 0 631 1510 631 -1510 83 0 77 624 -357 266 0 296 -434 443z"/>
    <path class="fil3 str1" d="M6952 7380l-188 450 -191 -458 90 -619 101 0 101 0 87 627z"/>
    <g>
     <path class="fil3" d="M6962 6484l-396 0 97 269 101 0 101 0 97 -269z"/>
     <path id="1" class="fil4" d="M6566 6410l396 0 0 148 -396 0 -71 -49 71 -99zm0 148c-42,0 -75,-33 -75,-74 0,-41 33,-74 75,-74l0 148zm26 220l-97 -269 142 -50 97 269 -71 99 -71 -49zm142 -50c13,39 -7,81 -46,95 -39,14 -82,-6 -96,-45l142 -50zm30 99l-101 0 0 -148 101 0 0 0 0 148zm0 -148c41,0 75,33 75,74 0,41 -34,74 -75,74l0 -148zm101 148l-101 0 0 -148 101 0 71 99 -71 49zm0 -148c42,0 75,33 75,74 0,41 -33,74 -75,74l0 -148zm168 -170l-97 269 -142 -50 97 -269 71 -49 71 99zm-142 -50c14,-39 57,-59 96,-45 39,14 60,56 46,95l-142 -50z"/>
    </g>
    <path class="fil5 str1" d="M6133 6320l380 468 107 -153 -54 -151 -290 -383 -143 219z"/>
    <path class="fil6 str2" d="M5733 7550l0 900"/>
    <path class="fil6 str1" d="M6764 7830l0 620"/>
    <path class="fil7 str2" d="M6764 6067c217,1 977,-306 977,-816l0 -583c-130,-307 -40,-502 -199,-673 -155,67 -322,60 -498,5 -172,373 -816,210 -1058,-5 -159,171 -69,366 -199,673l0 583c0,510 760,817 977,816z"/>
    <path class="fil7 str2" d="M6962 6484l132 -174 0 -332c-137,59 -261,90 -330,89 -69,1 -193,-30 -330,-89l0 332 132 174 396 0z"/>
    <path class="fil5 str1" d="M7395 6320l-380 468 -107 -153 54 -151 290 -383 143 219z"/>
    <path class="fil8 str2" d="M6764 3136c-56,-10 -113,-15 -172,-15l0 0c-532,0 -966,434 -966,966l0 650c39,-43 97,-69 161,-69 130,-307 40,-502 199,-673 237,206 886,378 1058,5 176,55 343,62 498,-5 159,171 69,366 199,673 64,0 122,26 161,69l0 -650c0,-532 -434,-966 -966,-966l0 0c-58,0 -116,5 -172,15zm-1121 1883c27,141 85,272 167,384 -15,-48 -23,-99 -23,-152l0 -180c-55,0 -106,-20 -144,-52zm2098 52l0 180c0,53 -8,104 -23,152 82,-112 140,-243 167,-384 -38,32 -89,52 -144,52z"/>
    <path class="fil5 str2" d="M6434 6076l0 234 -158 -209 158 -25z"/>
    <path class="fil5 str2" d="M7094 6076l0 234 158 -209 -158 -25z"/>
    <path class="fil5 str2" d="M6975 7808l563 0 0 324 -563 0 0 -324z"/>
    <path class="fil9 str3" d="M7215 4756c-37,0 -68,30 -68,68 0,37 31,67 68,67 38,0 68,-30 68,-67 0,-38 -30,-68 -68,-68zm-902 0c37,0 68,30 68,68 0,37 -31,67 -68,67 -38,0 -68,-30 -68,-67 0,-38 30,-68 68,-68z"/>
    <path class="fil5 str2" d="M5573 4869c0,-111 96,-201 214,-201l0 201 0 202c-118,0 -214,-90 -214,-202zm2382 0c0,-111 -96,-201 -214,-201l0 201 0 202c118,0 214,-90 214,-202z"/>
    <path class="fil10 str2" d="M6911 5695c-36,41 -97,69 -166,69 -111,0 -201,-69 -201,-154 0,-31 12,-60 32,-84 81,84 199,145 335,169z"/>
    <path class="fil8 str2" d="M6396 5399c242,-135 480,-117 715,0 0,31 0,63 0,94 0,76 0,11 0,87 -238,0 -477,0 -715,0 0,-107 0,-74 0,-181z"/>
    <g>
     <path class="fil11" d="M4749 8522c-24,0 -43,-32 -43,-72 0,-40 19,-72 43,-72l0 144zm4399 0l-4399 0 0 -144 4399 0 0 144zm0 -144c24,0 43,32 43,72 0,40 -19,72 -43,72l0 -144z"/>
    </g>
    <path class="fil7 str2" d="M4749 8450l976 0c0,-48 0,-113 0,-158 0,-220 -101,-341 -250,-382 -91,-25 -237,-25 -322,27 -61,37 -111,100 -109,148 -101,-123 -299,-9 -299,200 0,29 4,112 4,165z"/>
    <g>
     <path class="fil7" d="M9276 4896l0 -355c270,-85 317,91 317,221l1 795c0,219 47,342 -233,338 -28,-1 -130,-1 -158,-1 -243,1 -436,5 -436,-331 0,-80 -1,-429 0,-434 38,-216 240,-231 509,-233z"/>
     <path id="1" class="fil4" d="M9352 4541l0 355 -151 0 0 -355 52 -70 99 70zm-151 0c0,-40 34,-73 75,-73 42,0 76,33 76,73l-151 0zm468 221l-151 0 0 0 0 -11 -1 -10 0 -11 -1 -11 -2 -10 -1 -10 -2 -10 -2 -10 -3 -9 -3 -9 -3 -8 -4 -8 -3 -7 -4 -6 -5 -6 -4 -5 -5 -5 -5 -4 -5 -4 -6 -3 -6 -3 -7 -3 -9 -2 -9 -2 -11 -2 -12 0 -14 0 -15 2 -17 2 -18 3 -20 5 -22 7 -46 -141 28 -8 27 -7 26 -5 25 -3 24 -2 24 -1 22 1 22 3 22 4 20 6 20 7 18 9 17 10 16 11 15 12 13 14 12 14 10 14 10 15 8 15 7 16 6 15 5 16 5 16 3 15 3 16 3 15 2 15 1 15 1 14 0 15 1 14 0 0zm0 0c0,41 -34,74 -76,74 -41,0 -75,-33 -75,-74l151 0zm-151 795l0 -795 151 0 0 795 0 0 -151 0zm151 0c0,40 -34,73 -75,73 -42,1 -76,-33 -76,-73l151 0zm-309 411l3 -147 0 0 23 0 20 -1 19 -1 16 -2 15 -2 12 -3 10 -3 8 -3 7 -3 5 -2 3 -3 3 -2 2 -3 2 -3 2 -3 2 -5 2 -5 2 -7 2 -8 1 -10 1 -10 1 -12 0 -13 0 -14 0 -16 0 -16 0 -17 -1 -18 -1 -18 0 -20 0 -20 -1 -21 151 0 0 19 1 19 0 19 1 18 0 18 1 18 0 17 0 18 0 17 0 16 -2 17 -1 17 -3 17 -3 16 -5 17 -6 17 -7 16 -9 16 -12 16 -13 14 -14 13 -16 12 -18 10 -18 9 -20 7 -20 5 -21 5 -22 4 -24 2 -24 2 -26 1 -28 -1 0 0zm0 0c-41,0 -75,-34 -74,-75 1,-40 35,-73 77,-72l-3 147zm-157 0l0 -147 0 0 3 0 3 0 3 0 4 0 5 -1 4 0 5 0 5 0 6 0 5 0 6 0 6 0 6 0 6 0 6 0 6 0 6 0 6 0 6 0 6 0 6 0 6 1 5 0 6 0 5 0 5 0 5 0 4 0 4 0 4 0 3 0 4 0 -3 147 -3 0 -3 0 -3 0 -4 0 -4 0 -5 0 -5 0 -5 0 -5 0 -6 0 -5 0 -6 0 -6 0 -6 0 -6 0 -6 0 -6 0 -6 0 -6 0 -6 0 -6 0 -6 0 -5 0 -6 0 -5 0 -4 0 -5 0 -4 0 -4 0 -4 0 -3 0 -3 0 0 0zm0 0c-41,0 -75,-33 -75,-73 -1,-41 33,-74 75,-74l0 147zm-512 -405l151 0 0 0 1 27 1 26 2 23 4 22 4 19 4 17 5 15 6 14 6 11 7 11 6 9 7 8 8 7 8 6 9 6 9 6 10 5 12 4 12 4 13 4 15 3 15 3 16 2 17 2 18 1 19 1 20 1 20 0 21 1 21 0 22 0 23 0 0 147 -22 0 -23 0 -22 0 -23 0 -22 0 -22 -1 -22 -2 -22 -1 -21 -3 -22 -3 -21 -3 -21 -5 -21 -6 -21 -6 -20 -8 -20 -10 -19 -11 -19 -13 -18 -14 -16 -16 -16 -17 -14 -19 -13 -21 -11 -22 -10 -23 -8 -25 -7 -26 -6 -27 -4 -28 -3 -31 -2 -31 -1 -33 0 0zm0 0c0,-41 34,-74 76,-74 41,0 75,33 75,74l-151 0zm2 -446l148 25 0 0 1 -9 0 2 0 5 0 7 0 8 0 9 0 12 0 12 0 13 0 15 0 15 0 16 0 17 0 18 0 18 0 18 0 18 0 19 0 18 0 19 0 18 0 18 0 17 0 17 0 16 0 15 0 15 0 13 0 13 0 11 0 9 0 9 -151 0 0 -9 0 -9 0 -11 0 -13 0 -13 0 -14 0 -16 0 -16 0 -17 0 -17 0 -18 0 -18 0 -19 0 -18 0 -19 0 -18 0 -18 0 -18 0 -18 0 -17 0 -16 0 -15 0 -15 0 -13 0 -13 0 -11 0 -10 0 -8 0 -7 0 -6 0 -4 2 -12 0 0zm0 0c7,-40 46,-67 87,-60 41,6 68,45 61,85l-148 -25zm508 -221l151 0 -75 74 -25 0 -24 1 -24 0 -23 1 -22 0 -22 1 -21 2 -21 1 -20 2 -19 3 -18 2 -17 3 -17 4 -15 3 -15 4 -14 5 -13 5 -12 5 -11 5 -10 6 -9 6 -9 7 -8 7 -7 7 -6 9 -7 8 -5 10 -6 10 -5 12 -4 13 -4 14 -3 16 -148 -25 4 -24 7 -23 7 -22 9 -21 10 -20 11 -19 13 -18 14 -17 15 -15 16 -15 17 -13 17 -11 18 -11 19 -10 20 -8 19 -7 21 -7 20 -6 21 -5 22 -4 21 -4 22 -3 23 -2 23 -3 23 -2 23 -1 24 -1 24 -1 25 -1 24 0 25 -1 26 0 -75 74zm75 -74c41,0 75,33 76,74 0,40 -34,74 -75,74l-1 -148z"/>
    </g>
    <path class="fil12" d="M7013 7289l-111 -2 -230 -5 -111 -2c-18,-1 -33,13 -33,31l76 1692c0,18 14,33 32,33l1 0 230 5 0 0c18,0 33,-14 34,-32l144 -1687c0,-18 -14,-33 -32,-33z"/>
    <path class="fil12" d="M7214 6585c-5,228 -193,409 -421,404 -228,-4 -409,-193 -404,-421 4,-228 193,-409 421,-404 228,5 409,193 404,421z"/>
    <path class="fil13" d="M7237 6586c0,16 -13,29 -30,28l-813 -16c-16,0 -29,-14 -29,-30l0 0c0,-16 14,-29 30,-29l814 16c16,1 29,14 28,31l0 0z"/>
    <path class="fil13" d="M7205 7318c-1,25 -22,46 -48,45l-744 -15c-25,0 -46,-22 -45,-47l8 -384c0,-26 21,-46 47,-46l744 16c26,0 46,21 46,47l-8 384z"/>
    <path class="fil14 str4" d="M6657 6999l-59 0c-4,0 -8,-2 -11,-4 -2,-3 -4,-7 -4,-11 0,-3 2,-7 4,-10 2,-3 6,-5 11,-5l148 0c4,0 7,2 10,5 3,3 5,6 5,10 0,3 -2,7 -4,10 -2,3 -6,5 -11,5l-59 0 0 252c0,4 -2,8 -4,11 -3,2 -7,3 -11,3 -4,0 -7,-1 -10,-3 -3,-3 -5,-7 -5,-11l0 -252zm312 97c9,6 15,13 20,22 6,9 8,19 8,29l0 59c0,16 -5,30 -17,42 -12,11 -26,17 -42,17l-103 0c-10,0 -15,-5 -15,-14l0 -267c0,-10 5,-15 15,-15l88 0c17,0 31,6 42,18 12,11 18,25 18,42l0 29c0,7 -2,13 -4,20 -2,6 -5,12 -10,18zm-120 21l0 119 89 0c8,0 15,-3 21,-8 6,-6 9,-13 9,-22l0 -59c0,-8 -3,-15 -9,-21 -5,-6 -12,-9 -21,-9l-89 0zm75 -29c8,0 15,-3 20,-8 6,-6 9,-13 9,-22l0 -30c0,-8 -3,-15 -8,-21 -6,-5 -13,-8 -21,-8l-75 0 0 89 75 0z"/>
   </g>
   <g>
    <path class="fil15" d="M3741 13968c-18,106 -118,177 -223,159l0 0c-106,-18 -177,-118 -159,-223l45 -349c18,-105 117,-90 223,-72l0 0c105,18 250,61 233,166l-119 319z"/>
    <path class="fil15" d="M7827 13968c17,106 117,177 223,159l0 0c105,-18 176,-118 158,-223l-44 -349c-18,-105 -117,-90 -223,-72l0 0c-105,18 -251,61 -233,166l119 319z"/>
    <path class="fil15" d="M5550 10532c0,291 -236,527 -527,527 -291,0 -527,-236 -527,-527 0,-291 236,-527 527,-527 291,0 527,236 527,527z"/>
    <path class="fil15" d="M8760 13092c0,377 -306,683 -684,683l-4585 0c-377,0 -683,-306 -683,-683l0 -2189c0,-377 306,-683 683,-683l4585 0c378,0 684,306 684,684l0 2188z"/>
    <path class="fil16" d="M6783 10640l-2904 0c-377,0 -683,306 -683,684l0 1525c0,213 97,403 249,528l3824 -2534c-124,-125 -296,-203 -486,-203z"/>
    <path class="fil17" d="M3445 13377c118,97 269,156 434,156l2904 0c378,0 684,-306 684,-684l0 -1525c0,-188 -76,-357 -198,-481l-3824 2534z"/>
    <path class="fil18" d="M7841 11283c0,57 -47,103 -104,103 -56,0 -103,-46 -103,-103 0,-57 47,-103 103,-103 57,0 104,46 104,103z"/>
    <path class="fil18" d="M8197 11283c0,57 -46,103 -103,103 -57,0 -103,-46 -103,-103 0,-57 46,-103 103,-103 57,0 103,46 103,103z"/>
    <path class="fil18" d="M8553 11283c0,57 -46,103 -103,103 -57,0 -103,-46 -103,-103 0,-57 46,-103 103,-103 57,0 103,46 103,103z"/>
    <path class="fil19" d="M8573 11692l-939 0 0 -150 939 0 0 150z"/>
    <path class="fil19" d="M8573 12031l-939 0 0 -149 939 0 0 149z"/>
    <path class="fil19" d="M8573 12370l-939 0 0 -149 939 0 0 149z"/>
    <path class="fil19" d="M8573 12710l-939 0 0 -149 939 0 0 149z"/>
   </g>
   <g>
    <path class="fil19" d="M13954 5181l-745 -745 -417 0 0 -222 509 0 810 810 -157 157z"/>
    <path class="fil20" d="M12994 5761l-1728 0 0 509 1728 0 0 -509z"/>
    <path class="fil19" d="M11266 6270l0 509 1728 0 0 -509 -1728 0z"/>
    <path class="fil21" d="M14351 5789c0,-139 -113,-253 -253,-253l-1815 0c-140,0 -253,114 -253,253l0 481 2321 0 0 -481z"/>
    <path class="fil22" d="M12030 6270l0 481c0,140 113,253 253,253l1815 0c140,0 253,-113 253,-253l0 -481 -2321 0z"/>
    <path class="fil23" d="M13080 6270l0 975c0,283 208,513 466,513l3344 0c258,0 467,-230 467,-513l0 -975 -4277 0z"/>
    <path class="fil24" d="M17357 5296c0,-284 -209,-514 -467,-514l-3344 0c-258,0 -467,230 -467,514l1 974 4277 0 0 -974z"/>
    <path class="fil21" d="M11294 5703l0 -7 -822 -499 0 1073 822 0 0 -567z"/>
    <path class="fil22" d="M10472 6270l0 1073 822 -498 0 -8 0 -567 -822 0z"/>
    <path class="fil20" d="M16682 6240l0 -617c0,-179 -132,-325 -295,-325l-2117 0c-163,0 -295,146 -295,325l0 617 2707 0z"/>
    <path class="fil19" d="M13975 6857c0,179 132,325 295,325l2117 0c163,0 295,-146 295,-325l0 -617 -2707 0 0 617z"/>
    <path class="fil24" d="M12893 4156c-51,-24 -112,-39 -179,-39 -165,0 -300,88 -311,198l490 0 0 -159z"/>
    <path class="fil21" d="M12403 4315c-1,5 -1,10 -1,15 0,117 139,212 312,212 67,0 128,-14 179,-39l0 -188 -490 0z"/>
   </g>
   <g>
    <path class="fil25" d="M11823 17609l6580 0 0 -371 -6475 0 -105 371z"/>
    <path class="fil26" d="M11823 17609c231,0 259,-399 259,-399l5811 0 0 -5408 -6314 0 0 5532c24,108 88,275 244,275z"/>
    <path class="fil25" d="M18402 17276l-6315 0 0 -5912 6315 0 0 5912z"/>
    <path class="fil27" d="M17898 12600l-1898 0 0 -453 1898 0 0 453z"/>
    <path class="fil26" d="M18181 13172l-5683 0 0 -260 5683 0 0 260z"/>
    <path class="fil27" d="M15531 15134l-3014 0 0 -1811 3014 0 0 1811z"/>
    <path class="fil26" d="M18181 13528l-2492 0 0 -205 2492 0 0 205z"/>
    <path class="fil26" d="M18181 14064l-2492 0 0 -206 2492 0 0 206z"/>
    <path class="fil26" d="M18181 14599l-2492 0 0 -206 2492 0 0 206z"/>
    <path class="fil26" d="M18181 15134l-2492 0 0 -206 2492 0 0 206z"/>
    <path class="fil28" d="M18008 16197l-5426 0 0 -746 5426 0 0 746z"/>
    <path class="fil27" d="M14849 16882l-2267 0 0 -417 2267 0 0 417z"/>
    <path class="fil27" d="M18008 16882l-2345 0 0 -417 2345 0 0 417z"/>
    <path class="fil26" d="M14851 17308l-2269 0 0 -205 2269 0 0 205z"/>
    <path class="fil26" d="M18008 17308l-2269 0 0 -205 2269 0 0 205z"/>
    <path class="fil29 str5" d="M12191 12466l0 -553 73 0 0 228 286 0 0 -228 73 0 0 553 -73 0 0 -260 -286 0 0 260 -73 0zm531 -269c0,-92 25,-163 74,-215 50,-52 113,-78 191,-78 51,0 97,12 138,37 41,24 72,58 94,102 21,43 32,92 32,148 0,55 -11,106 -34,150 -23,44 -55,77 -96,100 -42,23 -86,34 -134,34 -52,0 -99,-13 -140,-38 -41,-25 -72,-59 -93,-102 -21,-44 -32,-90 -32,-138zm76 1c0,67 18,119 54,157 35,38 80,58 134,58 55,0 100,-20 136,-58 36,-39 53,-94 53,-165 0,-44 -7,-84 -22,-117 -16,-34 -38,-60 -67,-78 -29,-18 -62,-28 -99,-28 -51,0 -96,18 -133,54 -37,35 -56,94 -56,177zm544 268l0 -553 207 0c42,0 76,6 102,17 25,11 45,29 59,52 15,23 22,47 22,73 0,23 -6,46 -19,66 -13,21 -32,38 -58,51 34,10 59,26 77,50 18,24 27,51 27,84 0,26 -5,50 -16,72 -11,22 -25,39 -41,51 -16,12 -36,21 -60,28 -24,6 -54,9 -89,9l-211 0zm73 -320l120 0c32,0 55,-3 69,-7 19,-5 33,-15 42,-27 10,-13 14,-29 14,-49 0,-18 -4,-34 -13,-48 -9,-14 -21,-24 -37,-29 -17,-5 -45,-8 -84,-8l-111 0 0 168zm0 255l138 0c23,0 40,-1 50,-3 16,-3 30,-8 42,-15 11,-7 20,-17 28,-31 7,-13 11,-29 11,-46 0,-21 -6,-39 -16,-54 -11,-15 -26,-26 -44,-32 -19,-6 -46,-10 -81,-10l-128 0 0 191zm397 -204c0,-92 24,-163 73,-215 50,-52 113,-78 191,-78 51,0 97,12 138,37 41,24 72,58 94,102 21,43 32,92 32,148 0,55 -11,106 -34,150 -23,44 -55,77 -96,100 -42,23 -86,34 -134,34 -52,0 -99,-13 -140,-38 -41,-25 -72,-59 -93,-102 -21,-44 -31,-90 -31,-138zm75 1c0,67 18,119 54,157 35,38 80,58 134,58 55,0 101,-20 136,-58 36,-39 53,-94 53,-165 0,-44 -7,-84 -22,-117 -16,-34 -38,-60 -67,-78 -29,-18 -62,-28 -98,-28 -52,0 -97,18 -134,54 -37,35 -56,94 -56,177zm940 74l74 19c-16,60 -43,105 -83,137 -40,31 -88,47 -146,47 -59,0 -107,-12 -145,-36 -37,-24 -65,-60 -85,-106 -19,-46 -29,-95 -29,-147 0,-58 11,-108 33,-151 22,-43 53,-75 94,-98 40,-22 85,-33 134,-33 55,0 101,14 139,42 37,29 64,68 78,119l-71 17c-13,-40 -32,-70 -56,-88 -24,-18 -55,-27 -92,-27 -42,0 -78,10 -106,30 -28,20 -48,48 -60,82 -11,34 -17,70 -17,106 0,47 7,88 20,123 14,35 35,61 64,79 29,17 60,26 93,26 41,0 76,-12 104,-36 28,-23 47,-58 57,-105zm279 194l0 -488 -182 0 0 -65 437 0 0 65 -182 0 0 488 -73 0zm332 -553l67 0 0 438 294 -438 72 0 0 553 -66 0 0 -436 -294 436 -73 0 0 -553z"/>
   </g>
  </g>
 </g>
</svg>
