<?xml version="1.0" encoding="UTF-8"?>
<!DOCTYPE svg PUBLIC "-//W3C//DTD SVG 1.0//EN" "http://www.w3.org/TR/2001/REC-SVG-20010904/DTD/svg10.dtd">
<!-- Creator: CorelDRAW X7 -->
<svg xmlns="http://www.w3.org/2000/svg" xml:space="preserve" width="115.711mm" height="70.5555mm" version="1.0" style="shape-rendering:geometricPrecision; text-rendering:geometricPrecision; image-rendering:optimizeQuality; fill-rule:evenodd; clip-rule:evenodd"
viewBox="0 0 11571 7056"
 xmlns:xlink="http://www.w3.org/1999/xlink">
 <defs>
  <style type="text/css">
   <![CDATA[
    .str0 {stroke:#4E877A;stroke-width:8.81944}
    .fil6 {fill:#FEFEFE}
    .fil9 {fill:#E62C76}
    .fil3 {fill:#EBE3DD}
    .fil10 {fill:#D82358}
    .fil4 {fill:#D6ABA2}
    .fil1 {fill:#CDDE91}
    .fil2 {fill:#BDBBBA}
    .fil11 {fill:#A42A60}
    .fil5 {fill:#ABD7D4}
    .fil12 {fill:#98CA91}
    .fil7 {fill:#79B9E6}
    .fil14 {fill:#4D897C}
    .fil8 {fill:#39AAE1}
    .fil13 {fill:#43AC3E}
    .fil0 {fill:url(#id0)}
   ]]>
  </style>
  <radialGradient id="id0" gradientUnits="userSpaceOnUse" gradientTransform="matrix(1.17124 -0 -0 1.92083 -991 -3248)" cx="5785.55" cy="3527.77" r="3527.77" fx="5785.55" fy="3527.77">
   <stop offset="0" style="stop-opacity:1; stop-color:#FEFEFE"/>
   <stop offset="0.439216" style="stop-opacity:1; stop-color:#FEFEFE"/>
   <stop offset="1" style="stop-opacity:1; stop-color:#D1E2F2"/>
  </radialGradient>
 </defs>
 <g id="Layer_x0020_1">
  <metadata id="CorelCorpID_0Corel-Layer"/>
  <path class="fil0" d="M0 0l11571 0 0 7056 -11571 0 0 -7056z"/>
  <g id="_428657069008">
   <path class="fil1" d="M3055 354l-447 0 0 2519 447 0 0 -2519z"/>
   <path class="fil2" d="M5854 354l-2385 0 1114 1122 1271 -1122z"/>
   <path class="fil2" d="M3055 3024l-447 0 0 1743 447 0 0 -1743z"/>
   <path class="fil2" d="M3206 6493l0 332 762 0 0 -332 -762 0z"/>
   <path class="fil3" d="M3055 4918l-447 0 0 1424 447 0 0 -1424z"/>
   <path class="fil2" d="M2608 6493l0 332 447 0 0 -332 -447 0z"/>
   <path class="fil2" d="M7736 5123l1343 0 0 -393 -1343 0 0 393z"/>
   <path class="fil2" d="M8599 3758l-863 563 0 258 1343 0 0 -2986 -480 0 0 2165z"/>
   <path class="fil3" d="M5168 2065l1343 -1132 252 -579 -681 0 -1393 1229 479 482z"/>
   <path class="fil2" d="M5274 2173l425 428 1519 -1223 1230 0 0 -1024 -1520 0 -292 672 -1362 1147z"/>
   <path class="fil4" d="M9079 1378l0 -1024 -480 0 0 1024 480 0z"/>
   <path class="fil4" d="M5594 2801l-792 -798 -683 318 0 2446 861 0 1003 -511 -389 -1455z"/>
   <path class="fil1" d="M3206 4918l0 1424 762 0 0 -1424 -762 0z"/>
   <path class="fil2" d="M4119 6493l0 332 2018 0 -565 -332 -1453 0z"/>
   <path class="fil2" d="M3206 3126l0 1641 762 0 0 -905 -762 -736z"/>
   <path class="fil2" d="M6212 5111l-189 -706 -931 474 546 1446 1518 -467 -944 -747z"/>
   <path class="fil2" d="M9079 5274l-1343 0 0 768 991 783 352 0 0 -1551z"/>
   <path class="fil2" d="M4119 4918l0 1424 1365 0 -538 -1424 -827 0z"/>
   <path class="fil2" d="M3968 2225l721 -336 -1483 -1494 0 2521 762 736 0 -1427z"/>
   <path class="fil3" d="M5779 6439l655 386 1945 0 -1080 -854 -1520 468z"/>
   <path class="fil5" d="M7863 3168l376 645 209 -137 0 -2083 -1154 0 -604 487 624 1005 549 83z"/>
   <path class="fil1" d="M6402 4986l1183 936 0 -1682 528 -345 -344 -589 -546 -82 -651 -1049 -758 611 588 2200z"/>
   <path class="fil6" d="M5638 6325l-546 -1446 931 -474 189 706 944 747 -1518 467zm-1519 17l0 -1424 827 0 538 1424 -1365 0zm-913 0l0 -1424 762 0 0 1424 -762 0zm913 -1575l0 -2446 683 -318 792 798 389 1455 -1003 511 -861 0zm-913 0l0 -1641 762 736 0 905 -762 0zm0 -1851l0 -2521 1483 1494 -721 336 0 1427 -762 -736zm3366 -741l651 1049 546 82 344 589 -528 345 0 1682 -1183 -936 -588 -2200 758 -611zm722 -582l1154 0 0 2083 -209 137 -376 -645 -549 -83 -624 -1005 604 -487zm442 3681l1343 0 0 -151 -1343 0 0 -393 1343 0 0 -151 -1343 0 0 -258 863 -563 0 -2165 480 0 0 -215 -480 0 0 -1024 -151 0 0 1024 -1230 0 -1519 1223 -425 -428 1362 -1147 292 -672 -165 0 -252 579 -1343 1132 -479 -482 1393 -1229 -228 0 -1271 1122 -1114 -1122 -414 0 0 2519 -447 0 0 151 447 0 0 1743 -447 0 0 151 447 0 0 1424 -447 0 0 151 447 0 0 332 151 0 0 -332 762 0 0 332 151 0 0 -332 1453 0 565 332 297 0 -655 -386 1520 -468 1080 854 348 0 -991 -783 0 -768z"/>
   <path class="fil7" d="M7702 2479l0 0c0,-124 -100,-223 -223,-223 -124,0 -224,99 -224,223 0,0 -17,157 224,467 240,-310 223,-467 223,-467z"/>
   <path class="fil8" d="M7479 2946c240,-310 223,-467 223,-467 0,-124 -100,-223 -223,-223l0 690z"/>
   <path class="fil6" d="M7672 2479c0,107 -87,193 -193,193 -107,0 -194,-86 -194,-193 0,-107 87,-194 194,-194 106,0 193,87 193,194z"/>
   <path class="fil9" d="M5135 4200l0 0c0,-123 -100,-223 -223,-223 -123,0 -223,100 -223,223 0,0 -17,157 223,468 241,-311 223,-468 223,-468z"/>
   <path class="fil10" d="M4912 4668c241,-311 223,-468 223,-468 0,-123 -100,-223 -223,-223l0 691z"/>
   <path class="fil6" d="M5105 4200c0,107 -86,193 -193,193 -107,0 -193,-86 -193,-193 0,-107 86,-193 193,-193 107,0 193,86 193,193z"/>
   <path class="fil10" d="M5944 1943l0 0c0,-123 -100,-223 -223,-223 -124,0 -224,100 -224,223 0,0 -17,157 224,468 240,-311 223,-468 223,-468z"/>
   <path class="fil11" d="M5721 2411c240,-311 223,-468 223,-468 0,-123 -100,-223 -223,-223l0 691z"/>
   <path class="fil6" d="M5914 1943c0,107 -87,193 -193,193 -107,0 -194,-86 -194,-193 0,-107 87,-193 194,-193 106,0 193,86 193,193z"/>
   <path class="fil12" d="M4786 844l0 0c0,-123 -100,-223 -223,-223 -124,0 -223,100 -223,223 0,0 -18,157 223,468 240,-311 223,-468 223,-468z"/>
   <path class="fil13" d="M4563 1312c240,-311 223,-468 223,-468 0,-123 -100,-223 -223,-223l0 691z"/>
   <path class="fil6" d="M4756 844c0,107 -86,194 -193,194 -107,0 -194,-87 -194,-194 0,-106 87,-193 194,-193 107,0 193,87 193,193z"/>
   <path class="fil14 str0" d="M6218 1428l29 0 70 131 60 -131 28 0 -80 166c-10,21 -18,35 -24,41 -7,6 -16,10 -28,10 -7,0 -16,-2 -27,-5l0 -25c8,5 16,7 24,7 7,0 13,-2 18,-7 5,-4 11,-14 17,-30l-87 -157zm212 0l26 0 0 169 114 -169 28 0 0 214 -26 0 0 -169 -114 169 -28 0 0 -214zm215 0l28 0 0 94c13,0 22,-3 27,-8 6,-5 12,-17 20,-36 6,-14 11,-24 15,-30 4,-6 9,-11 17,-15 7,-4 15,-6 23,-6 11,0 17,1 17,1l0 24c-1,0 -3,0 -5,0 -3,0 -5,0 -6,0 -9,0 -16,2 -20,7 -5,4 -10,13 -16,28 -7,18 -13,29 -18,34 -5,5 -11,8 -18,11 14,4 28,17 41,38l44 72 -35 0 -36 -58c-9,-16 -18,-27 -24,-33 -7,-6 -15,-9 -26,-9l0 100 -28 0 0 -214zm256 0l29 0 105 165 0 -165 27 0 0 214 -29 0 -105 -165 0 165 -27 0 0 -214zm180 99c0,-17 5,-31 14,-41 10,-11 23,-16 39,-16 16,0 28,5 38,16 9,11 14,25 14,43 0,18 -5,32 -15,42 -9,11 -22,16 -38,16 -14,0 -26,-5 -37,-14 -10,-10 -15,-25 -15,-46zm25 1c0,13 3,23 8,29 5,7 12,10 19,10 8,0 14,-3 19,-9 6,-7 9,-16 9,-30 0,-13 -3,-23 -9,-29 -6,-6 -12,-9 -19,-9 -7,0 -13,3 -19,9 -5,6 -8,16 -8,29zm-22 75l99 0 0 21 -99 0 0 -21zm309 39l-27 0 0 -168c-6,6 -14,12 -24,18 -11,6 -20,11 -28,14l0 -25c15,-7 27,-16 38,-26 11,-9 19,-19 24,-28l17 0 0 215zm67 -57l28 -2c2,14 6,24 14,31 7,6 16,10 27,10 13,0 23,-5 32,-15 9,-9 13,-22 13,-38 0,-14 -4,-26 -12,-35 -9,-9 -20,-13 -33,-13 -9,0 -17,2 -23,6 -7,4 -12,9 -16,15l-25 -4 21 -110 106 0 0 26 -85 0 -12 57c13,-9 26,-13 40,-13 19,0 35,6 48,19 12,13 19,30 19,50 0,19 -6,36 -17,50 -14,18 -32,26 -56,26 -20,0 -35,-5 -48,-16 -12,-11 -19,-25 -21,-44z"/>
   <path class="fil14 str0" d="M7466 1981l29 0 70 132 61 -132 28 0 -81 167c-10,21 -18,34 -24,41 -7,6 -16,9 -28,9 -7,0 -16,-1 -27,-5l0 -24c8,4 16,7 25,7 6,0 12,-3 17,-7 5,-5 11,-15 17,-30l-87 -158zm212 0l26 0 0 170 114 -170 28 0 0 214 -26 0 0 -169 -113 169 -29 0 0 -214zm215 0l28 0 0 94c13,0 22,-2 28,-7 5,-5 12,-17 20,-37 6,-14 11,-24 14,-29 4,-6 10,-11 17,-15 7,-4 15,-6 23,-6 11,0 17,0 18,0l0 25c-1,0 -3,0 -6,0 -3,0 -5,0 -6,0 -9,0 -16,2 -20,6 -4,5 -10,14 -15,28 -7,18 -14,30 -19,34 -4,5 -10,9 -17,12 14,4 27,16 41,38l44 71 -36 0 -35 -58c-10,-16 -18,-27 -25,-33 -7,-6 -15,-9 -26,-9l0 100 -28 0 0 -214zm257 0l28 0 105 166 0 -166 27 0 0 214 -28 0 -106 -165 0 165 -26 0 0 -214zm179 99c0,-17 5,-31 15,-41 9,-10 22,-15 38,-15 16,0 29,5 38,16 10,10 14,24 14,42 0,18 -5,33 -14,43 -10,11 -23,16 -39,16 -14,0 -26,-5 -36,-14 -11,-10 -16,-25 -16,-47zm26 1c0,13 2,23 7,30 6,7 12,10 20,10 7,0 13,-3 19,-10 5,-6 8,-16 8,-29 0,-14 -3,-24 -9,-30 -5,-6 -12,-9 -18,-9 -8,0 -14,3 -19,10 -6,6 -8,16 -8,28zm-23 75l99 0 0 22 -99 0 0 -22zm309 39l-26 0 0 -167c-7,6 -15,12 -25,18 -11,6 -20,11 -28,14l0 -26c15,-7 28,-15 39,-25 11,-10 18,-19 23,-29l17 0 0 215zm204 -161l-26 2c-2,-11 -6,-18 -10,-23 -7,-7 -16,-11 -26,-11 -9,0 -16,2 -23,7 -8,6 -14,15 -19,26 -5,12 -8,28 -8,50 7,-10 14,-17 23,-22 10,-4 19,-7 29,-7 18,0 33,7 45,20 12,13 19,29 19,50 0,13 -3,26 -9,37 -6,12 -14,20 -24,27 -10,6 -22,9 -34,9 -22,0 -40,-8 -54,-24 -14,-16 -21,-43 -21,-80 0,-41 8,-71 23,-90 14,-16 32,-25 54,-25 17,0 31,5 42,15 10,9 17,22 19,39zm-108 92c0,9 2,18 6,26 4,8 9,14 16,19 7,4 14,6 22,6 11,0 21,-4 29,-13 8,-9 12,-21 12,-37 0,-14 -4,-26 -12,-35 -8,-8 -18,-12 -30,-12 -12,0 -22,4 -30,12 -8,9 -13,20 -13,34z"/>
   <path class="fil14 str0" d="M4881 696l28 0 70 131 61 -131 28 0 -80 166c-10,21 -18,34 -25,41 -6,6 -15,9 -27,9 -7,0 -16,-1 -27,-5l0 -24c8,5 16,7 24,7 7,0 13,-2 18,-7 5,-4 10,-14 16,-30l-86 -157zm212 0l26 0 0 169 113 -169 28 0 0 213 -25 0 0 -168 -114 168 -28 0 0 -213zm215 0l28 0 0 93c13,0 22,-2 27,-7 5,-5 12,-17 20,-36 6,-14 11,-24 15,-30 4,-6 9,-11 16,-15 7,-4 15,-6 24,-6 11,0 16,0 17,1l0 24c-1,0 -3,0 -6,0 -3,0 -5,0 -5,0 -9,0 -16,2 -20,6 -5,5 -10,14 -16,28 -7,19 -13,30 -18,35 -5,4 -11,8 -18,11 14,4 28,17 41,38l44 71 -35 0 -36 -57c-10,-17 -18,-28 -24,-34 -7,-6 -16,-9 -26,-9l0 100 -28 0 0 -213zm256 0l28 0 105 165 0 -165 27 0 0 213 -28 0 -105 -164 0 164 -27 0 0 -213zm180 99c0,-18 5,-31 14,-42 10,-10 23,-15 39,-15 16,0 28,5 38,16 9,10 14,25 14,42 0,18 -5,33 -15,43 -10,11 -22,16 -39,16 -13,0 -25,-5 -36,-14 -10,-10 -15,-25 -15,-46zm25 0c0,14 3,23 8,30 5,7 12,10 19,10 7,0 14,-3 19,-10 6,-6 8,-16 8,-29 0,-13 -2,-23 -8,-29 -6,-7 -12,-10 -19,-10 -7,0 -14,4 -19,10 -5,6 -8,16 -8,28zm-22 76l99 0 0 21 -99 0 0 -21zm308 38l-26 0 0 -167c-6,6 -14,12 -25,18 -10,6 -19,11 -27,14l0 -26c14,-6 27,-15 38,-25 11,-10 19,-19 24,-28l16 0 0 214zm69 -186l0 -25 139 0 0 21c-14,14 -27,33 -41,57 -13,24 -23,49 -31,75 -5,18 -8,37 -10,58l-27 0c1,-16 4,-37 10,-61 7,-23 16,-46 27,-69 12,-22 25,-40 38,-56l-105 0z"/>
   <path class="fil14 str0" d="M4799 3581l29 0 70 131 61 -131 28 0 -81 166c-10,21 -18,35 -24,41 -7,6 -16,10 -28,10 -7,0 -16,-2 -26,-5l0 -25c7,5 15,7 24,7 6,0 12,-2 17,-7 5,-4 11,-14 17,-30l-87 -157zm212 0l26 0 0 169 114 -169 28 0 0 214 -26 0 0 -169 -113 169 -29 0 0 -214zm215 0l28 0 0 94c13,0 22,-3 28,-8 5,-5 12,-17 20,-36 6,-14 11,-24 14,-30 4,-6 10,-11 17,-15 7,-4 15,-6 23,-6 11,0 17,1 18,1l0 24c-1,0 -3,0 -6,0 -3,0 -5,0 -6,0 -9,0 -16,2 -20,7 -4,4 -10,13 -15,28 -7,18 -14,29 -18,34 -5,5 -11,8 -18,11 14,4 27,17 41,38l44 72 -35 0 -36 -58c-10,-16 -18,-27 -25,-33 -7,-6 -15,-9 -26,-9l0 100 -28 0 0 -214zm257 0l28 0 105 166 0 -166 27 0 0 214 -28 0 -106 -165 0 165 -26 0 0 -214zm179 99c0,-17 5,-31 15,-41 9,-11 22,-16 38,-16 16,0 29,5 38,16 10,11 14,25 14,43 0,18 -5,32 -14,42 -10,11 -23,16 -39,16 -14,0 -26,-4 -36,-14 -11,-10 -16,-25 -16,-46zm26 1c0,13 2,23 7,29 6,7 12,10 20,10 7,0 13,-3 19,-9 5,-7 8,-16 8,-29 0,-14 -3,-24 -9,-30 -5,-6 -12,-9 -18,-9 -8,0 -14,3 -19,9 -6,7 -8,16 -8,29zm-23 75l99 0 0 21 -99 0 0 -21zm309 39l-26 0 0 -168c-7,6 -15,12 -25,18 -11,6 -20,11 -28,14l0 -25c15,-7 28,-16 39,-26 11,-9 18,-19 23,-28l17 0 0 215zm108 -116c-11,-4 -19,-10 -24,-17 -6,-8 -8,-17 -8,-27 0,-16 5,-29 17,-39 11,-11 26,-16 44,-16 19,0 34,5 45,16 12,11 17,24 17,40 0,10 -2,18 -8,26 -5,7 -13,13 -23,17 13,4 23,11 30,20 6,10 10,21 10,35 0,18 -7,33 -20,46 -12,12 -29,18 -50,18 -22,0 -39,-6 -51,-18 -13,-13 -20,-29 -20,-47 0,-14 4,-26 11,-35 7,-10 17,-16 30,-19zm-5 -45c0,10 3,19 9,25 7,6 15,10 26,10 10,0 18,-4 25,-10 6,-6 9,-14 9,-23 0,-10 -3,-18 -10,-25 -6,-6 -14,-10 -24,-10 -11,0 -19,4 -25,10 -7,6 -10,14 -10,23zm-9 99c0,7 2,15 5,22 4,7 9,12 16,16 7,4 15,6 23,6 12,0 23,-4 31,-12 8,-8 12,-19 12,-31 0,-13 -4,-23 -13,-31 -8,-9 -18,-13 -31,-13 -13,0 -23,4 -31,12 -8,9 -12,19 -12,31z"/>
  </g>
 </g>
</svg>
