<?xml version="1.0" encoding="UTF-8"?>
<!DOCTYPE svg PUBLIC "-//W3C//DTD SVG 1.0//EN" "http://www.w3.org/TR/2001/REC-SVG-20010904/DTD/svg10.dtd">
<!-- Creator: CorelDRAW X7 -->
<svg xmlns="http://www.w3.org/2000/svg" xml:space="preserve" width="200mm" height="200mm" version="1.0" style="shape-rendering:geometricPrecision; text-rendering:geometricPrecision; image-rendering:optimizeQuality; fill-rule:evenodd; clip-rule:evenodd"
viewBox="0 0 20000 20000"
 xmlns:xlink="http://www.w3.org/1999/xlink">
 <defs>
  <style type="text/css">
   <![CDATA[
    .str4 {stroke:#4D897C;stroke-width:25}
    .str1 {stroke:#2E99A3;stroke-width:25}
    .str3 {stroke:#4D897C;stroke-width:60;stroke-linecap:round;stroke-linejoin:round}
    .str2 {stroke:#024541;stroke-width:159.99;stroke-linecap:round;stroke-linejoin:round}
    .str0 {stroke:#846573;stroke-width:108.68}
    .fil5 {fill:none;fill-rule:nonzero}
    .fil3 {fill:#F6B096}
    .fil6 {fill:#EBF2D9}
    .fil7 {fill:#CDDBAC}
    .fil9 {fill:#4D897C}
    .fil4 {fill:#2E99A3}
    .fil1 {fill:#A8D4AF}
    .fil2 {fill:#97A59A;fill-rule:nonzero}
    .fil8 {fill:#4D897C;fill-rule:nonzero}
    .fil0 {fill:url(#id0)}
   ]]>
  </style>
  <radialGradient id="id0" gradientUnits="userSpaceOnUse" gradientTransform="matrix(1.41421 -0 -0 1.41421 -4142 -4142)" cx="10000" cy="10000" r="10000" fx="10000" fy="10000">
   <stop offset="0" style="stop-opacity:1; stop-color:#FEFEFE"/>
   <stop offset="0.439216" style="stop-opacity:1; stop-color:#FEFEFE"/>
   <stop offset="1" style="stop-opacity:1; stop-color:#D1E2F2"/>
  </radialGradient>
 </defs>
 <g id="Layer_x0020_1">
  <metadata id="CorelCorpID_0Corel-Layer"/>
  <g id="_428633146416">
   <path class="fil0" d="M0 0l20000 0 0 20000 -20000 0 0 -20000z"/>
   <path class="fil1" d="M503 5283l19092 0 0 -1364 -19092 0 0 1364z"/>
   <g>
    <path class="fil2" d="M2577 4228c-22,5 -43,-10 -47,-33 -4,-24 10,-46 31,-51l16 84zm7431 -1641l-7431 1641 -16 -84 7431 -1641 16 0 0 84zm-16 -84c22,-5 42,10 47,33 4,23 -10,46 -31,51l-16 -84zm7431 1725l-7431 -1641 16 -84 7431 1641 -16 84zm16 -84c21,5 35,27 31,51 -5,23 -25,38 -47,33l16 -84z"/>
   </g>
   <path class="fil3 str0" d="M10011 2560c44,0 81,36 81,81 0,45 -37,81 -81,81 -45,0 -81,-36 -81,-81 0,-45 36,-81 81,-81z"/>
   <path class="fil4 str1" d="M6418 4580c0,7 -3,14 -7,18 -5,4 -10,6 -17,6 -7,0 -12,-2 -17,-6 -5,-4 -7,-10 -7,-18l0 -341 -196 353c-3,5 -7,8 -11,11l-5 3c-2,1 -4,2 -8,2 -4,0 -10,-2 -16,-7 -4,-5 -6,-12 -6,-21l0 -434c0,-7 3,-13 7,-18 5,-4 11,-6 17,-6 6,0 12,2 17,6 5,4 7,10 7,18l0 341 196 -353c2,-4 6,-8 10,-11 5,-4 9,-5 13,-5 6,0 11,2 15,8 5,4 8,11 8,20l0 434zm337 -265l0 -170c0,-6 3,-12 8,-16 4,-5 10,-8 16,-8 6,0 12,2 17,6 5,4 7,11 7,19l0 433c0,7 -2,13 -7,18 -6,5 -11,7 -17,7 -6,0 -12,-2 -17,-6 -4,-4 -7,-10 -7,-18l0 -217 -193 0 0 217c0,7 -2,14 -7,18 -4,4 -10,6 -17,6 -6,0 -12,-2 -17,-6 -5,-4 -7,-10 -7,-18l0 -434c0,-7 2,-13 7,-18 5,-4 11,-6 17,-6 6,0 12,2 17,6 5,4 7,10 7,18l0 169 193 0zm362 -74l0 219 24 0c26,0 49,-9 68,-28 19,-19 28,-42 28,-69l0 -24c0,-26 -9,-49 -28,-68 -18,-20 -41,-30 -68,-30l-24 0zm-48 219l0 -219 -25 0c-26,0 -48,10 -68,29 -19,19 -28,41 -28,69l0 24c0,27 9,49 28,68 19,20 42,29 68,29l25 0zm0 48l-25 0c-40,0 -74,-14 -102,-42 -28,-28 -42,-63 -42,-103l0 -24c0,-40 14,-74 42,-103 28,-28 63,-43 102,-43l25 0 0 -48c0,-6 2,-12 7,-17 5,-5 10,-7 17,-7 6,0 11,2 16,6 5,4 8,10 8,18l0 48 24 0c39,0 74,15 102,43 13,14 23,29 31,46 7,18 11,36 11,57l0 24c0,39 -14,73 -42,102 -28,29 -62,43 -102,43l-24 0 0 72c0,8 -3,14 -7,18 -5,4 -10,6 -17,6 -7,0 -12,-2 -17,-6 -5,-4 -7,-10 -7,-18l0 -72zm603 -1c0,27 -10,50 -29,69 -18,19 -41,28 -68,28l-96 0c-27,0 -49,-9 -68,-28 -19,-19 -29,-42 -29,-69l0 -289c0,-27 10,-50 28,-68 19,-19 42,-29 69,-29l96 0c27,0 50,10 68,29 19,19 29,41 29,68l0 289zm-48 1l0 -290c0,-14 -5,-25 -14,-35 -9,-9 -21,-14 -35,-14l-96 0c-14,0 -25,5 -35,14 -5,5 -8,10 -10,16 -3,6 -4,12 -4,19l0 290c0,13 5,25 14,34 5,4 10,8 16,11 6,2 13,3 19,3l96 0c14,0 25,-4 34,-13 10,-9 15,-21 15,-35zm231 -145l145 0c13,0 24,-5 34,-14 9,-9 14,-20 14,-35l0 -96c0,-14 -5,-25 -14,-35 -9,-9 -20,-14 -34,-14l-145 0 0 194zm0 48l0 169c0,7 -3,14 -7,18 -5,4 -10,6 -17,6 -7,0 -12,-2 -17,-6 -5,-4 -7,-10 -7,-18l0 -434c0,-17 8,-25 24,-25l169 0c26,0 49,10 68,29 19,18 28,41 28,68l0 96c0,27 -9,49 -28,68 -19,19 -42,29 -69,29l-144 0zm675 169c0,7 -2,14 -6,18 -5,4 -10,6 -18,6 -5,0 -10,-2 -16,-6 -5,-4 -8,-10 -8,-18l0 -345 -99 167c-6,11 -13,16 -21,16 -7,0 -14,-5 -21,-16l-101 -167 0 345c0,7 -2,14 -6,18 -5,4 -10,6 -18,6 -6,0 -12,-2 -16,-6 -5,-4 -8,-10 -8,-18l0 -432c0,-9 3,-16 7,-21 5,-5 10,-7 16,-7 4,0 8,1 11,3 4,3 7,7 11,13l125 206 124 -206c5,-11 13,-16 23,-16 5,0 10,2 15,8 4,5 6,12 6,20l0 432zm181 -97l-35 104c-1,6 -4,10 -9,13 -3,2 -7,3 -13,4 -6,0 -12,-2 -17,-7 -5,-4 -7,-10 -7,-16l1 -9 145 -434c5,-14 13,-21 23,-21 10,0 18,7 23,21l144 434 2 9c0,6 -3,11 -8,16 -5,5 -11,7 -17,7 -3,0 -7,-1 -11,-2 -4,-2 -8,-7 -11,-15l-35 -104 -175 0zm159 -49l-71 -212 -71 212 142 0zm432 122l0 -410c0,-7 2,-13 7,-18 5,-4 11,-7 17,-7 6,0 12,2 16,6 5,5 8,11 8,19l0 410 24 0c16,0 25,8 25,24l0 73c0,6 -3,12 -8,17 -5,4 -10,7 -16,7 -6,0 -11,-2 -17,-6 -5,-4 -7,-10 -7,-19l0 -48 -266 0c-16,0 -24,-8 -24,-24l0 -434c0,-7 2,-13 7,-18 5,-4 10,-7 17,-7 6,0 11,2 16,6 5,5 8,11 8,19l0 410 193 0zm482 24c0,7 -2,14 -7,18 -4,4 -10,6 -17,6 -6,0 -12,-2 -17,-6 -5,-4 -7,-10 -7,-18l0 -341 -196 353c-3,5 -6,8 -11,11l-5 3c-1,1 -4,2 -7,2 -5,0 -10,-2 -16,-7 -4,-5 -6,-12 -6,-21l0 -434c0,-7 2,-13 7,-18 5,-4 10,-6 17,-6 6,0 11,2 16,6 5,4 8,10 8,18l0 341 195 -353c3,-4 6,-8 11,-11 4,-4 8,-5 13,-5 5,0 10,2 15,8 4,4 7,11 7,20l0 434zm386 -73c0,27 -10,50 -29,69 -18,19 -41,28 -68,28l-96 0c-26,0 -49,-9 -68,-28 -19,-19 -29,-42 -29,-69l0 -289c0,-27 10,-50 29,-68 18,-19 41,-29 68,-29l96 0c27,0 50,10 69,29 18,19 28,41 28,68l0 289zm-48 1l0 -290c0,-14 -5,-25 -14,-35 -9,-9 -21,-14 -35,-14l-96 0c-14,0 -25,5 -35,14 -4,5 -8,10 -10,16 -2,6 -4,12 -4,19l0 290c0,13 5,25 14,34 5,4 10,8 16,11 7,2 13,3 19,3l96 0c14,0 25,-4 35,-13 9,-9 14,-21 14,-35zm424 -193l0 -170c0,-6 2,-12 7,-16 5,-5 11,-8 17,-8 6,0 12,2 17,6 5,4 7,11 7,19l0 433c0,7 -2,13 -7,18 -6,5 -12,7 -17,7 -6,0 -12,-2 -17,-6 -5,-4 -7,-10 -7,-18l0 -217 -193 0 0 217c0,7 -2,14 -7,18 -4,4 -10,6 -17,6 -7,0 -12,-2 -17,-6 -5,-4 -7,-10 -7,-18l0 -434c0,-7 2,-13 7,-18 5,-4 10,-6 17,-6 6,0 12,2 16,6 5,4 8,10 8,18l0 169 193 0zm386 0l0 -170c0,-6 2,-12 7,-16 5,-5 11,-8 17,-8 6,0 12,2 17,6 4,4 7,11 7,19l0 433c0,7 -3,13 -8,18 -5,5 -11,7 -16,7 -6,0 -12,-2 -17,-6 -5,-4 -7,-10 -7,-18l0 -217 -193 0 0 217c0,7 -3,14 -7,18 -5,4 -10,6 -17,6 -7,0 -12,-2 -17,-6 -5,-4 -7,-10 -7,-18l0 -434c0,-7 2,-13 7,-18 5,-4 10,-6 17,-6 6,0 11,2 16,6 5,4 8,10 8,18l0 169 193 0zm482 265c0,7 -2,14 -6,18 -5,4 -11,6 -18,6 -6,0 -12,-2 -16,-6 -5,-4 -8,-10 -8,-18l0 -434c0,-7 3,-13 8,-18 4,-4 10,-7 16,-7 6,0 12,2 17,6 5,4 7,11 7,19l0 434zm-290 -217l0 193 97 0c14,0 25,-4 35,-13 9,-9 14,-21 14,-35l0 -97c0,-14 -5,-25 -14,-34 -9,-10 -21,-14 -35,-14l-97 0zm0 -48l97 0c26,0 49,9 68,28 19,19 29,41 29,68l0 97c0,26 -10,49 -28,68 -19,19 -42,28 -69,28l-120 0c-17,0 -25,-8 -25,-24l0 -434c0,-7 3,-13 8,-18 4,-4 10,-7 16,-7 7,0 12,2 17,6 5,5 7,11 7,19l0 169zm579 -242l-96 0c-7,0 -13,-2 -18,-6 -4,-5 -6,-11 -6,-18 0,-5 2,-10 6,-16 4,-5 10,-8 18,-8l96 0c7,0 13,3 18,8 4,5 7,10 7,16 0,6 -2,11 -7,17 -4,5 -10,7 -18,7zm97 507c0,7 -2,14 -7,18 -4,4 -10,6 -17,6 -7,0 -12,-2 -17,-6 -5,-4 -7,-10 -7,-18l0 -341 -196 353c-3,5 -6,8 -11,11l-5 3c-2,1 -4,2 -7,2 -5,0 -10,-2 -16,-7 -4,-5 -7,-12 -7,-21l0 -434c0,-7 3,-13 8,-18 4,-4 10,-6 16,-6 7,0 12,2 17,6 5,4 7,10 7,18l0 341 196 -353c3,-3 6,-7 11,-11 4,-3 8,-5 13,-5 5,0 10,3 14,8 5,5 8,11 8,20l0 434zm603 24l-121 0c-26,0 -49,-9 -68,-28 -19,-19 -28,-42 -28,-69l0 -289c0,-27 9,-50 28,-68 19,-19 41,-29 68,-29l121 0c7,0 12,3 17,8 5,5 7,10 7,16 0,6 -2,11 -6,17 -4,5 -10,7 -18,7l-121 0c-14,0 -25,5 -35,14 -4,5 -8,10 -10,16 -2,6 -3,12 -3,19l0 290c0,13 4,25 13,34 5,4 11,8 16,11 7,2 13,3 19,3l121 0c7,0 12,3 17,7 5,5 7,11 7,17 0,6 -2,11 -6,16 -4,5 -10,8 -18,8zm241 -435l-97 0c-7,0 -13,-2 -17,-6 -5,-5 -7,-11 -7,-18 0,-5 2,-10 6,-16 4,-5 10,-8 18,-8l241 0c7,0 13,3 18,8 4,5 7,10 7,16 0,6 -2,11 -6,17 -4,5 -11,7 -19,7l-96 0 0 411c0,7 -2,14 -7,18 -4,4 -10,6 -17,6 -6,0 -12,-2 -17,-6 -5,-4 -7,-10 -7,-18l0 -411zm313 146l121 0c7,0 13,2 18,7 4,5 7,11 7,17 0,6 -2,11 -6,16 -4,5 -11,8 -19,8l-121 0 0 193 170 0c6,0 12,3 17,7 5,5 7,11 7,17 0,6 -2,11 -6,16 -4,5 -10,8 -18,8l-194 0c-16,0 -24,-8 -24,-23l0 -435c0,-17 8,-25 24,-25l194 0c6,0 12,3 17,8 5,5 7,10 7,16 0,6 -2,12 -6,17 -4,5 -10,7 -18,7l-170 0 0 146zm531 0l0 -170c0,-6 2,-12 7,-16 5,-5 11,-8 17,-8 6,0 12,2 17,6 5,4 7,11 7,19l0 433c0,7 -2,13 -7,18 -6,5 -12,7 -17,7 -6,0 -12,-2 -17,-6 -5,-4 -7,-10 -7,-18l0 -217 -193 0 0 217c0,7 -3,14 -7,18 -4,4 -10,6 -17,6 -7,0 -12,-2 -17,-6 -5,-4 -7,-10 -7,-18l0 -434c0,-7 2,-13 7,-18 5,-4 10,-6 17,-6 6,0 12,2 16,6 5,4 8,10 8,18l0 169 193 0zm195 241l46 -413c0,-15 8,-22 24,-22l145 0c16,0 24,8 24,25l0 410 24 0c16,0 25,8 25,24l0 48c0,7 -3,12 -8,17 -5,5 -10,7 -16,7 -6,0 -11,-2 -17,-6 -5,-4 -7,-10 -7,-18l0 -24 -242 0 0 24c0,7 -3,12 -8,17 -5,5 -10,7 -16,7 -6,0 -11,-2 -17,-6 -5,-4 -7,-10 -7,-18l0 -48c0,-16 8,-24 24,-24l26 0zm191 0l0 -387 -99 0 -44 387 143 0z"/>
   <g id="_428638037248">
    <path class="fil4 str1" d="M1533 5118l-78 0c-20,0 -38,-8 -54,-23 -15,-15 -23,-33 -23,-54l0 -174c0,-5 2,-10 6,-15 4,-3 8,-5 13,-5 5,0 10,2 14,5 4,3 6,8 6,15l0 174c0,11 3,20 11,27 3,4 8,6 12,9 6,1 11,2 15,2l78 0 0 -212c0,-5 2,-10 6,-15 3,-3 8,-5 13,-5 5,0 9,2 13,5 4,3 6,8 6,15l0 289c0,21 -7,39 -22,55 -15,15 -33,22 -55,22l-77 0c-5,0 -10,-1 -15,-5 -3,-4 -5,-9 -5,-14 0,-5 2,-9 5,-13 4,-4 8,-6 15,-6l77 0c11,0 20,-4 28,-11 7,-7 11,-16 11,-28l0 -38zm270 -155l0 -96c0,-6 2,-10 6,-15 3,-3 8,-5 13,-5 5,0 9,2 13,5 4,3 6,8 6,15l0 231c0,6 -2,11 -5,15 -4,3 -8,5 -14,5 -5,0 -10,-2 -13,-5 -4,-3 -6,-8 -6,-15l0 -97 -77 0c-21,0 -39,-7 -55,-22 -15,-15 -23,-33 -23,-55l0 -57c0,-6 2,-10 6,-15 4,-3 8,-5 13,-5 5,0 10,2 14,5 4,3 6,8 6,15l0 58c0,10 3,20 11,27 4,3 8,6 12,8 6,2 11,3 15,3l78 0zm270 78l0 -155 -78 0c-10,0 -20,3 -27,11 -4,4 -7,8 -9,12 -1,5 -2,10 -2,16l0 116c0,11 3,20 11,27 4,4 8,6 12,9 6,1 11,2 15,2l39 0c11,0 20,-3 28,-10 7,-8 11,-17 11,-28zm19 51c-6,7 -15,14 -26,18 -10,5 -21,8 -32,8l-38 0c-21,0 -39,-8 -55,-23 -15,-15 -23,-33 -23,-54l0 -116c0,-22 8,-40 23,-55 15,-15 33,-23 55,-23l96 0c13,0 19,7 19,20l0 173c0,8 3,16 8,24 4,7 11,13 19,16 8,4 12,10 12,18 0,6 -2,10 -5,14 -4,4 -8,6 -14,6 -3,0 -6,-1 -8,-2 -13,-5 -23,-13 -31,-24zm232 26l-58 0c-21,0 -39,-8 -55,-23 -15,-15 -23,-33 -23,-54l0 -116c0,-22 8,-40 23,-55 15,-15 33,-23 55,-23l58 0c5,0 10,2 13,6 4,4 6,9 6,14 0,4 -2,8 -5,12 -3,5 -8,7 -14,7l-58 0c-11,0 -21,3 -28,11 -4,4 -7,8 -8,12 -2,5 -3,10 -3,16l0 116c0,11 3,20 11,27 4,4 8,6 12,9 6,1 11,2 16,2l58 0c5,0 9,2 13,6 4,4 6,9 6,14 0,4 -2,8 -5,12 -3,5 -8,7 -14,7zm212 -232l-78 0 0 212c0,6 -1,11 -5,15 -4,3 -8,5 -14,5 -5,0 -9,-2 -13,-5 -4,-3 -6,-8 -6,-15l0 -231c0,-13 6,-20 19,-20l174 0c21,0 39,8 54,23 15,15 23,33 23,55l0 173c0,6 -2,11 -6,15 -3,3 -8,5 -13,5 -6,0 -10,-2 -14,-5 -4,-3 -6,-8 -6,-15l0 -174c0,-10 -3,-20 -11,-27 -7,-7 -16,-11 -27,-11l-39 0 0 212c0,6 -2,11 -5,15 -4,3 -9,5 -14,5 -5,0 -10,-2 -14,-5 -4,-3 -5,-8 -5,-15l0 -212zm309 105l-43 46 0 61c0,6 -2,11 -6,15 -3,3 -8,5 -14,5 -5,0 -9,-2 -13,-5 -4,-3 -6,-8 -6,-15l0 -231c0,-5 2,-10 6,-14 4,-4 8,-5 13,-5 5,0 10,1 14,4 4,4 6,9 6,15l0 114 122 -128c3,-4 8,-6 12,-6 5,0 9,2 14,6 4,3 6,8 6,14 0,5 -2,10 -7,15l-77 81 79 123c3,5 5,10 5,13 0,5 -2,10 -7,14 -3,3 -8,5 -13,5 -5,0 -10,-2 -14,-7l-77 -120zm366 42c0,23 -9,43 -25,60 -16,16 -37,25 -60,25l-23 0c-23,0 -43,-8 -60,-25 -17,-16 -25,-36 -25,-60l0 -101c0,-22 8,-42 24,-59 17,-17 37,-26 61,-26l23 0c23,0 43,9 59,25 17,16 26,37 26,60l0 101zm-39 0l0 -101c0,-12 -4,-23 -13,-33 -9,-9 -20,-13 -33,-13l-24 0c-12,0 -23,4 -32,13 -9,9 -14,20 -14,33l0 101c0,13 5,24 14,33 9,9 20,13 32,13l24 0c12,0 23,-4 32,-13 10,-9 14,-20 14,-33zm270 8l0 -116c0,-11 -3,-20 -11,-28 -7,-7 -16,-11 -27,-11l-39 0c-11,0 -20,4 -28,11 -3,4 -6,8 -8,13 -2,5 -3,10 -3,15l0 116c0,11 4,20 11,27 4,4 8,6 13,9 5,1 10,2 15,2l39 0c10,0 19,-3 27,-10 8,-8 11,-17 11,-28zm-116 -180l16 -10 23 -16c7,-6 13,-11 16,-15 5,-6 7,-12 7,-19 0,-8 -3,-16 -9,-22 -7,-5 -14,-8 -22,-8 -8,0 -16,3 -22,8 -6,5 -9,13 -9,22l0 60zm78 -12c24,0 43,7 57,22 13,14 20,32 20,54l0 116c0,21 -8,39 -23,54 -15,15 -33,23 -54,23l-39 0c-21,0 -39,-8 -54,-23 -16,-14 -23,-33 -23,-54l0 -240c0,-21 7,-38 21,-52 14,-11 30,-17 48,-17 18,0 34,6 48,18 15,12 22,29 22,51 0,13 -2,22 -6,28 -3,7 -9,13 -17,20zm347 184c0,23 -8,43 -25,60 -16,16 -36,25 -60,25l-23 0c-23,0 -43,-8 -60,-25 -17,-16 -25,-36 -25,-60l0 -101c0,-22 8,-42 25,-59 16,-17 36,-26 60,-26l23 0c23,0 43,9 60,25 16,16 25,37 25,60l0 101zm-39 0l0 -101c0,-12 -4,-23 -13,-33 -9,-9 -20,-13 -33,-13l-23 0c-13,0 -24,4 -33,13 -9,9 -14,20 -14,33l0 101c0,13 5,24 14,33 9,9 20,13 33,13l23 0c12,0 23,-4 33,-13 9,-9 13,-20 13,-33zm251 -263l-77 0c-6,0 -11,-2 -15,-5 -3,-4 -5,-9 -5,-14 0,-5 2,-9 5,-13 4,-4 8,-6 15,-6l77 0c5,0 10,2 14,6 3,3 5,8 5,13 0,4 -1,9 -5,13 -3,4 -8,6 -14,6zm58 328c0,13 -6,20 -19,20l-97 0c-21,0 -39,-8 -54,-23 -15,-15 -23,-33 -23,-54l0 -174c0,-5 2,-10 6,-14 3,-4 8,-5 13,-5 5,0 9,1 13,4 4,4 6,9 6,15l0 174c0,11 4,20 11,27 4,4 8,6 13,9 5,1 10,2 15,2l78 0 0 -212c0,-5 1,-10 5,-14 4,-4 9,-5 14,-5 5,0 9,1 13,4 4,4 6,9 6,15l0 231zm502 0c0,13 -7,20 -20,20l-96 0c-21,0 -39,-8 -54,-23 -16,-15 -24,-33 -24,-54l0 -174c0,-5 2,-10 6,-15 4,-3 9,-5 14,-5 5,0 9,2 13,5 4,3 6,8 6,15l0 174c0,11 4,20 11,27 4,4 8,6 12,9 6,1 11,2 16,2l77 0 0 -212c0,-5 2,-10 6,-15 4,-3 8,-5 13,-5 5,0 10,2 14,5 4,3 6,8 6,15l0 231zm178 -97l-24 0c-6,0 -11,-1 -14,-5 -4,-4 -5,-8 -5,-14 0,-4 1,-9 5,-13 3,-4 8,-6 14,-6l19 0c12,0 22,-4 28,-12 8,-7 11,-16 11,-27 0,-10 -3,-19 -9,-26 -3,-4 -8,-7 -13,-9 -5,-2 -10,-3 -17,-3l-19 0c-18,0 -33,5 -46,16 -4,2 -8,3 -12,4 -4,0 -9,-2 -14,-6 -3,-4 -5,-9 -5,-14 0,-6 2,-11 8,-15 19,-16 43,-24 69,-24l19 0c25,0 44,8 58,24 13,15 19,33 19,54 0,6 0,11 -1,16 -1,5 -2,10 -5,15 -3,9 -9,18 -18,27 7,6 14,15 18,26l5 15c1,5 1,11 1,17 0,21 -6,39 -19,53 -14,16 -33,24 -58,24l-19 0c-26,0 -49,-8 -69,-23 -6,-4 -8,-9 -8,-16 0,-4 2,-8 5,-13 4,-5 9,-7 14,-7 3,0 7,2 12,5 13,10 29,15 46,15l19 0c12,0 21,-4 28,-11 7,-8 11,-18 11,-28 0,-10 -3,-18 -8,-25 -6,-7 -14,-11 -26,-14zm304 40l0 -116c0,-11 -4,-21 -11,-28 -7,-7 -16,-11 -28,-11l-39 0c-10,0 -20,3 -27,11 -4,4 -7,8 -9,12 -1,5 -2,10 -2,16l0 116c0,11 3,20 11,27 4,4 8,6 12,9 6,1 11,2 15,2l39 0c11,0 20,-3 28,-10 7,-8 11,-17 11,-28zm-62 -194l-87 -82c-5,-5 -7,-11 -7,-16 0,-4 2,-8 5,-12 3,-3 9,-5 16,-5l154 0c5,0 10,2 14,6 4,3 5,8 5,13 0,4 -1,9 -4,13 -4,4 -9,6 -15,6l-106 0 102 98 5 6c12,15 18,31 18,51l0 116c0,21 -7,39 -22,54 -15,15 -33,23 -55,23l-38 0c-21,0 -39,-8 -55,-23 -15,-15 -23,-33 -23,-54l0 -116c0,-22 8,-40 23,-55 15,-15 33,-23 54,-23l16 0zm370 251c0,13 -6,20 -19,20l-96 0c-21,0 -39,-8 -55,-23 -15,-15 -23,-33 -23,-54l0 -174c0,-5 2,-10 6,-15 4,-3 9,-5 14,-5 5,0 9,2 13,5 4,3 6,8 6,15l0 174c0,11 3,20 11,27 4,4 8,6 12,9 6,1 11,2 16,2l77 0 0 -212c0,-5 2,-10 6,-15 4,-3 8,-5 13,-5 5,0 10,2 14,5 3,3 5,8 5,15l0 231zm116 -19l77 0c11,0 20,-3 28,-10 7,-8 11,-17 11,-28l0 -116c0,-11 -4,-21 -11,-28 -7,-7 -16,-11 -28,-11l-77 0 0 193zm0 39l0 96c0,6 -2,10 -6,14 -4,4 -8,5 -13,5 -5,0 -9,-1 -13,-4 -4,-4 -6,-8 -6,-15l0 -347c0,-13 6,-20 19,-20l96 0c21,0 39,8 55,23 15,15 23,33 23,55l0 116c0,21 -8,39 -23,54 -15,15 -33,23 -55,23l-77 0zm386 -77l0 -155 -77 0c-11,0 -20,3 -28,11 -4,4 -6,8 -8,12 -2,5 -3,10 -3,16l0 116c0,11 4,20 11,27 4,4 8,6 12,9 6,1 11,2 16,2l38 0c11,0 20,-3 28,-10 7,-8 11,-17 11,-28zm19 51c-6,7 -15,14 -25,18 -11,5 -22,8 -33,8l-38 0c-21,0 -39,-8 -54,-23 -16,-15 -23,-33 -23,-54l0 -116c0,-22 7,-40 22,-55 15,-15 33,-23 55,-23l96 0c13,0 20,7 20,20l0 173c0,8 2,16 7,24 4,7 11,13 19,16 8,4 12,10 12,18 0,6 -1,10 -5,14 -3,4 -8,6 -14,6 -3,0 -5,-1 -8,-2 -12,-5 -23,-13 -31,-24zm212 -206l-77 0 0 212c0,6 -2,11 -5,15 -4,3 -8,5 -14,5 -5,0 -10,-2 -14,-5 -3,-3 -5,-8 -5,-15l0 -231c0,-13 6,-20 19,-20l173 0c21,0 39,8 55,23 15,15 22,33 22,55l0 173c0,6 -1,11 -5,15 -3,3 -8,5 -14,5 -5,0 -9,-2 -13,-5 -4,-3 -6,-8 -6,-15l0 -174c0,-10 -4,-20 -11,-27 -7,-7 -16,-11 -28,-11l-38 0 0 212c0,6 -2,11 -6,15 -3,3 -8,5 -13,5 -6,0 -10,-2 -14,-5 -4,-3 -6,-8 -6,-15l0 -212zm270 78l117 0 0 -39c0,-11 -4,-20 -11,-28 -8,-7 -17,-11 -28,-11l-39 0c-11,0 -20,3 -28,11 -3,4 -6,8 -8,13 -2,4 -3,9 -3,15l0 39zm0 38l0 39c0,11 4,20 11,27 4,4 8,6 13,9 5,1 10,2 15,2l97 0c5,0 10,2 13,6 4,4 6,9 6,14 0,4 -2,8 -5,12 -3,5 -8,7 -14,7l-97 0c-21,0 -39,-8 -54,-23 -15,-15 -23,-33 -23,-54l0 -116c0,-21 7,-39 22,-55 15,-15 33,-23 55,-23l39 0c21,0 39,8 54,23 15,15 23,33 23,55l0 58c0,13 -6,19 -19,19l-136 0zm425 96c0,6 -2,11 -5,15 -4,3 -9,5 -14,5 -5,0 -10,-2 -14,-5 -3,-3 -5,-8 -5,-15l0 -212 -45 0 -72 218c-2,5 -4,8 -7,11 -1,0 -5,1 -11,3 -5,0 -9,-2 -13,-6 -4,-3 -7,-7 -7,-13l2 -7 76 -231c3,-9 9,-14 18,-14l78 0c13,0 19,7 19,20l0 231zm115 -97l0 78 78 0c12,0 21,-4 28,-11 7,-8 11,-17 11,-28 0,-10 -3,-20 -10,-27 -3,-3 -7,-6 -12,-8 -5,-2 -11,-4 -17,-4l-78 0zm0 -38l78 0c24,0 43,8 58,24 13,15 19,32 19,53 0,21 -6,39 -19,53 -14,17 -34,25 -58,25l-97 0c-13,0 -19,-7 -19,-20l0 -231c0,-5 2,-10 6,-15 4,-3 8,-5 13,-5 5,0 10,2 14,5 3,3 5,8 5,15l0 96zm387 0l0 -96c0,-6 2,-10 6,-15 3,-3 8,-5 13,-5 5,0 9,2 13,5 4,3 6,8 6,15l0 231c0,6 -2,11 -5,15 -4,3 -8,5 -14,5 -5,0 -10,-2 -13,-5 -4,-3 -6,-8 -6,-15l0 -97 -116 0 0 97c0,6 -2,11 -6,15 -3,3 -8,5 -14,5 -5,0 -9,-2 -13,-5 -4,-3 -6,-8 -6,-15l0 -231c0,-5 2,-10 6,-15 4,-3 8,-5 13,-5 5,0 10,2 14,5 4,3 6,8 6,15l0 96 116 0zm308 70c0,23 -8,43 -24,60 -17,16 -37,25 -61,25l-23 0c-23,0 -43,-8 -60,-25 -16,-16 -25,-36 -25,-60l0 -101c0,-22 8,-42 25,-59 17,-17 37,-26 60,-26l23 0c23,0 43,9 60,25 17,16 25,37 25,60l0 101zm-38 0l0 -101c0,-12 -5,-23 -14,-33 -9,-9 -20,-13 -33,-13l-23 0c-13,0 -24,4 -33,13 -9,9 -13,20 -13,33l0 101c0,13 4,24 13,33 9,9 20,13 33,13l23 0c13,0 24,-4 33,-13 9,-9 14,-20 14,-33zm250 -263l-77 0c-6,0 -10,-2 -14,-5 -3,-4 -5,-9 -5,-14 0,-5 1,-9 5,-13 3,-4 8,-6 14,-6l77 0c6,0 10,2 14,6 4,3 6,8 6,13 0,4 -2,9 -5,13 -3,4 -8,6 -15,6zm58 328c0,13 -6,20 -19,20l-96 0c-21,0 -39,-8 -55,-23 -15,-15 -23,-33 -23,-54l0 -174c0,-5 2,-10 6,-14 4,-4 8,-5 13,-5 5,0 10,1 14,4 4,4 6,9 6,15l0 174c0,11 3,20 11,27 4,4 8,6 12,9 6,1 11,2 15,2l78 0 0 -212c0,-5 2,-10 6,-14 4,-4 8,-5 13,-5 5,0 10,1 13,4 4,4 6,9 6,15l0 231zm387 -107l-44 46 0 61c0,6 -1,11 -5,15 -4,3 -8,5 -14,5 -5,0 -9,-2 -13,-5 -4,-3 -6,-8 -6,-15l0 -231c0,-5 2,-10 6,-14 4,-4 8,-5 13,-5 5,0 10,1 13,4 4,4 6,9 6,15l0 114 123 -128c3,-4 7,-6 12,-6 4,0 9,2 14,6 4,3 6,8 6,14 0,5 -3,10 -7,15l-77 81 79 123c3,5 5,10 5,13 0,5 -3,10 -7,14 -4,3 -8,5 -13,5 -5,0 -10,-2 -14,-7l-77 -120zm365 42c0,23 -8,43 -24,60 -17,16 -37,25 -61,25l-23 0c-23,0 -43,-8 -59,-25 -17,-16 -26,-36 -26,-60l0 -101c0,-22 9,-42 25,-59 17,-17 37,-26 60,-26l23 0c23,0 43,9 60,25 17,16 25,37 25,60l0 101zm-38 0l0 -101c0,-12 -4,-23 -13,-33 -9,-9 -20,-13 -33,-13l-24 0c-12,0 -23,4 -32,13 -10,9 -14,20 -14,33l0 101c0,13 4,24 13,33 9,9 20,13 33,13l24 0c12,0 23,-4 32,-13 9,-9 14,-20 14,-33zm347 65l0 -231c0,-7 -2,-13 -5,-17 -3,-3 -7,-5 -12,-5 -6,0 -12,3 -18,11l-81 113 -81 -113c-5,-8 -11,-11 -17,-11 -5,0 -9,2 -13,6 -3,4 -5,9 -5,16l0 231c0,6 2,11 6,15 3,3 8,5 14,5 4,0 9,-2 13,-5 4,-4 6,-9 6,-15l0 -171 61 86c6,7 11,10 16,10 5,0 10,-3 16,-10l62 -86 0 171c0,6 1,11 5,15 3,3 8,5 14,5 4,0 9,-2 13,-5 4,-4 6,-9 6,-15zm270 0c0,13 -6,20 -19,20l-97 0c-20,0 -39,-8 -54,-23 -15,-15 -23,-33 -23,-54l0 -174c0,-5 2,-10 6,-15 4,-3 8,-5 13,-5 5,0 10,2 14,5 4,3 5,8 5,15l0 174c0,11 4,20 12,27 3,4 8,6 12,9 6,1 11,2 15,2l78 0 0 -212c0,-5 2,-10 6,-15 3,-3 8,-5 13,-5 5,0 9,2 13,5 4,3 6,8 6,15l0 231z"/>
    <path class="fil4 str1" d="M9364 5118l-58 0c-20,0 -38,-8 -54,-23 -15,-15 -23,-33 -23,-54l0 -116c0,-22 8,-40 23,-55 15,-15 33,-23 54,-23l58 0c6,0 10,2 14,6 4,4 6,9 6,14 0,4 -2,8 -5,12 -3,5 -8,7 -15,7l-58 0c-11,0 -20,3 -27,11 -4,4 -7,8 -9,12 -1,5 -2,10 -2,16l0 116c0,11 3,20 11,27 4,4 8,6 12,9 6,1 11,2 15,2l58 0c6,0 10,2 14,6 4,4 6,9 6,14 0,4 -2,8 -5,12 -3,5 -8,7 -15,7zm232 0l-58 0c-21,0 -39,-8 -54,-23 -16,-15 -23,-33 -23,-54l0 -116c0,-22 7,-40 22,-55 15,-15 34,-23 55,-23l58 0c5,0 10,2 14,6 3,4 5,9 5,14 0,4 -1,8 -5,12 -3,5 -8,7 -14,7l-58 0c-11,0 -20,3 -28,11 -4,4 -6,8 -8,12 -2,5 -3,10 -3,16l0 116c0,11 4,20 11,27 4,4 8,6 13,9 5,1 10,2 15,2l58 0c5,0 10,2 14,6 3,4 5,9 5,14 0,4 -1,8 -5,12 -3,5 -8,7 -14,7zm289 -20c0,13 -6,20 -19,20l-97 0c-20,0 -38,-8 -54,-23 -15,-15 -23,-33 -23,-54l0 -174c0,-5 2,-10 6,-15 4,-3 8,-5 13,-5 5,0 10,2 14,5 4,3 6,8 6,15l0 174c0,11 3,20 11,27 4,4 8,6 12,9 6,1 11,2 15,2l78 0 0 -212c0,-5 2,-10 6,-15 3,-3 8,-5 13,-5 5,0 9,2 13,5 4,3 6,8 6,15l0 231zm270 0c0,13 -6,20 -19,20l-96 0c-21,0 -39,-8 -55,-23 -15,-15 -23,-33 -23,-54l0 -174c0,-5 2,-10 6,-15 4,-3 8,-5 13,-5 5,0 10,2 14,5 4,3 6,8 6,15l0 174c0,11 3,20 11,27 4,4 8,6 12,9 6,1 11,2 15,2l78 0 0 -212c0,-5 2,-10 6,-15 4,-3 8,-5 13,-5 5,0 10,2 13,5 4,3 6,8 6,15l0 231zm502 0c0,13 -6,20 -19,20l-97 0c-21,0 -39,-8 -54,-23 -15,-15 -23,-33 -23,-54l0 -174c0,-5 2,-10 6,-15 3,-3 8,-5 13,-5 5,0 9,2 13,5 4,3 6,8 6,15l0 174c0,11 4,20 11,27 4,4 8,6 13,9 5,1 10,2 15,2l78 0 0 -212c0,-5 1,-10 5,-15 4,-3 9,-5 14,-5 5,0 9,2 13,5 4,3 6,8 6,15l0 231zm179 -97l-25 0c-5,0 -10,-1 -14,-5 -3,-4 -5,-8 -5,-14 0,-4 2,-9 5,-13 4,-4 8,-6 14,-6l20 0c12,0 21,-4 28,-12 7,-7 10,-16 10,-27 0,-10 -3,-19 -9,-26 -3,-4 -7,-7 -12,-9 -5,-2 -11,-3 -17,-3l-20 0c-17,0 -33,5 -46,16 -3,2 -7,3 -12,4 -4,0 -8,-2 -13,-6 -4,-4 -6,-9 -6,-14 0,-6 3,-11 8,-15 20,-16 43,-24 69,-24l20 0c24,0 43,8 58,24 12,15 19,33 19,54 0,6 -1,11 -2,16 0,5 -2,10 -4,15 -4,9 -10,18 -18,27 7,6 13,15 18,26l4 15c1,5 2,11 2,17 0,21 -7,39 -19,53 -14,16 -33,24 -58,24l-20 0c-25,0 -49,-8 -69,-23 -5,-4 -8,-9 -8,-16 0,-4 2,-8 6,-13 4,-5 8,-7 13,-7 4,0 8,2 12,5 14,10 29,15 46,15l20 0c11,0 21,-4 28,-11 7,-8 10,-18 10,-28 0,-10 -2,-18 -8,-25 -5,-7 -14,-11 -25,-14zm303 40l0 -116c0,-11 -3,-21 -10,-28 -8,-7 -17,-11 -28,-11l-39 0c-11,0 -20,3 -28,11 -3,4 -6,8 -8,12 -2,5 -3,10 -3,16l0 116c0,11 4,20 11,27 4,4 8,6 13,9 5,1 10,2 15,2l39 0c10,0 20,-3 27,-10 8,-8 11,-17 11,-28zm-62 -194l-86 -82c-5,-5 -7,-11 -7,-16 0,-4 1,-8 5,-12 3,-3 8,-5 15,-5l155 0c5,0 9,2 13,6 4,3 6,8 6,13 0,4 -2,9 -5,13 -3,4 -8,6 -14,6l-107 0 103 98 4 6c13,15 19,31 19,51l0 116c0,21 -8,39 -23,54 -15,15 -33,23 -54,23l-39 0c-21,0 -39,-8 -54,-23 -16,-15 -23,-33 -23,-54l0 -116c0,-22 7,-40 22,-55 15,-15 34,-23 55,-23l15 0zm371 251c0,13 -7,20 -19,20l-97 0c-21,0 -39,-8 -54,-23 -15,-15 -23,-33 -23,-54l0 -174c0,-5 2,-10 6,-15 3,-3 8,-5 13,-5 5,0 9,2 13,5 4,3 6,8 6,15l0 174c0,11 4,20 11,27 4,4 8,6 13,9 5,1 10,2 15,2l78 0 0 -212c0,-5 1,-10 5,-15 4,-3 9,-5 14,-5 5,0 9,2 13,5 4,3 6,8 6,15l0 231zm115 -19l78 0c11,0 20,-3 27,-10 8,-8 12,-17 12,-28l0 -116c0,-11 -4,-21 -11,-28 -8,-7 -17,-11 -28,-11l-78 0 0 193zm0 39l0 96c0,6 -2,10 -6,14 -3,4 -8,5 -13,5 -4,0 -9,-1 -13,-4 -4,-4 -6,-8 -6,-15l0 -347c0,-13 6,-20 19,-20l97 0c21,0 39,8 54,23 15,15 23,33 23,55l0 116c0,21 -8,39 -23,54 -15,15 -33,23 -54,23l-78 0zm387 -77l0 -155 -78 0c-11,0 -20,3 -28,11 -3,4 -6,8 -8,12 -2,5 -3,10 -3,16l0 116c0,11 4,20 11,27 4,4 8,6 13,9 5,1 11,2 15,2l39 0c11,0 20,-3 27,-10 8,-8 12,-17 12,-28zm19 51c-7,7 -15,14 -26,18 -11,5 -21,8 -32,8l-39 0c-21,0 -39,-8 -54,-23 -15,-15 -23,-33 -23,-54l0 -116c0,-22 8,-40 23,-55 15,-15 33,-23 54,-23l97 0c13,0 19,7 19,20l0 173c0,8 2,16 7,24 5,7 11,13 20,16 8,4 12,10 12,18 0,6 -2,10 -6,14 -3,4 -8,6 -13,6 -3,0 -6,-1 -8,-2 -13,-5 -23,-13 -31,-24zm212 -206l-78 0 0 212c0,6 -1,11 -5,15 -3,3 -8,5 -14,5 -5,0 -9,-2 -13,-5 -4,-3 -6,-8 -6,-15l0 -231c0,-13 6,-20 19,-20l174 0c21,0 39,8 54,23 15,15 23,33 23,55l0 173c0,6 -2,11 -6,15 -3,3 -8,5 -13,5 -5,0 -10,-2 -14,-5 -4,-3 -5,-8 -5,-15l0 -174c0,-10 -4,-20 -11,-27 -8,-7 -17,-11 -28,-11l-39 0 0 212c0,6 -2,11 -5,15 -4,3 -8,5 -14,5 -5,0 -10,-2 -13,-5 -4,-3 -6,-8 -6,-15l0 -212zm270 78l116 0 0 -39c0,-11 -4,-20 -11,-28 -7,-7 -17,-11 -28,-11l-39 0c-10,0 -20,3 -27,11 -4,4 -7,8 -9,13 -1,4 -2,9 -2,15l0 39zm0 38l0 39c0,11 3,20 11,27 4,4 8,6 12,9 6,1 11,2 15,2l97 0c5,0 10,2 14,6 3,4 5,9 5,14 0,4 -1,8 -4,12 -4,5 -9,7 -15,7l-96 0c-21,0 -39,-8 -55,-23 -15,-15 -23,-33 -23,-54l0 -116c0,-21 8,-39 23,-55 15,-15 33,-23 55,-23l38 0c21,0 39,8 54,23 16,15 23,33 23,55l0 58c0,13 -6,19 -19,19l-135 0zm424 96c0,6 -1,11 -5,15 -4,3 -8,5 -14,5 -5,0 -9,-2 -13,-5 -4,-3 -6,-8 -6,-15l0 -212 -44 0 -73 218c-1,5 -3,8 -7,11 -1,0 -4,1 -10,3 -5,0 -10,-2 -14,-6 -4,-3 -6,-7 -6,-13l1 -7 77 -231c2,-9 8,-14 18,-14l77 0c13,0 19,7 19,20l0 231zm116 -97l0 78 77 0c12,0 22,-4 29,-11 7,-8 10,-17 10,-28 0,-10 -3,-20 -9,-27 -3,-3 -8,-6 -13,-8 -4,-2 -10,-4 -17,-4l-77 0zm0 -38l77 0c24,0 44,8 58,24 13,15 20,32 20,53 0,21 -7,39 -19,53 -15,17 -34,25 -59,25l-96 0c-13,0 -20,-7 -20,-20l0 -231c0,-5 2,-10 6,-15 4,-3 9,-5 14,-5 5,0 9,2 13,5 4,3 6,8 6,15l0 96zm386 0l0 -96c0,-6 2,-10 6,-15 4,-3 8,-5 13,-5 5,0 10,2 14,5 4,3 6,8 6,15l0 231c0,6 -2,11 -6,15 -3,3 -8,5 -14,5 -5,0 -9,-2 -13,-5 -4,-3 -6,-8 -6,-15l0 -97 -116 0 0 97c0,6 -2,11 -6,15 -3,3 -8,5 -13,5 -5,0 -10,-2 -14,-5 -4,-3 -5,-8 -5,-15l0 -231c0,-5 1,-10 5,-15 4,-3 9,-5 14,-5 5,0 9,2 13,5 4,3 6,8 6,15l0 96 116 0zm309 70c0,23 -9,43 -25,60 -16,16 -37,25 -60,25l-23 0c-23,0 -43,-8 -60,-25 -17,-16 -25,-36 -25,-60l0 -101c0,-22 8,-42 24,-59 17,-17 37,-26 61,-26l23 0c23,0 43,9 59,25 17,16 26,37 26,60l0 101zm-39 0l0 -101c0,-12 -4,-23 -13,-33 -9,-9 -20,-13 -33,-13l-24 0c-12,0 -23,4 -32,13 -9,9 -14,20 -14,33l0 101c0,13 5,24 14,33 9,9 20,13 32,13l24 0c12,0 23,-4 32,-13 10,-9 14,-20 14,-33zm299 67c-10,6 -23,10 -39,14l-21 3 -22 1 -27 -1 -23 -3c-15,-2 -27,-9 -36,-20 -9,-11 -14,-24 -14,-38 0,-8 2,-16 5,-24 4,-8 9,-16 17,-22l123 -85c4,-3 6,-7 6,-12 0,-8 -7,-14 -20,-19 -13,-4 -28,-7 -43,-7 -13,0 -25,1 -34,4 -10,2 -18,5 -25,11 -3,2 -7,3 -11,4 -5,0 -9,-2 -14,-6 -4,-4 -5,-9 -5,-14 0,-6 2,-11 7,-15 8,-6 20,-11 37,-15 7,-2 15,-4 24,-5 8,-1 16,-1 24,-1 6,0 10,0 15,0 5,0 10,0 16,1 6,1 13,2 21,5 14,4 25,11 34,21 9,11 14,23 14,35 0,16 -8,31 -22,44l-124 85c-5,4 -7,9 -7,15 0,4 2,9 5,13 3,4 7,7 13,8l21 2 23 1c14,0 26,-1 35,-3 4,-1 9,-2 14,-4 5,-2 9,-4 14,-7l4 -2c1,0 4,0 6,0 5,0 10,2 14,6 3,4 5,9 5,14 0,6 -3,12 -10,16zm280 -67c0,23 -8,43 -25,60 -16,16 -36,25 -60,25l-23 0c-23,0 -43,-8 -60,-25 -17,-16 -25,-36 -25,-60l0 -101c0,-22 8,-42 25,-59 16,-17 36,-26 60,-26l23 0c23,0 43,9 60,25 16,16 25,37 25,60l0 101zm-39 0l0 -101c0,-12 -4,-23 -13,-33 -9,-9 -20,-13 -33,-13l-23 0c-13,0 -24,4 -33,13 -9,9 -14,20 -14,33l0 101c0,13 5,24 14,33 9,9 20,13 33,13l23 0c12,0 23,-4 33,-13 9,-9 13,-20 13,-33zm502 85l-77 0c-21,0 -39,-8 -55,-23 -15,-15 -23,-33 -23,-54l0 -174c0,-5 2,-10 6,-15 4,-3 8,-5 14,-5 4,0 9,2 13,5 4,3 6,8 6,15l0 174c0,11 3,20 11,27 4,4 8,6 12,9 6,1 11,2 16,2l77 0 0 -212c0,-5 2,-10 6,-15 4,-3 8,-5 13,-5 5,0 10,2 13,5 4,3 6,8 6,15l0 289c0,21 -7,39 -22,55 -15,15 -33,22 -55,22l-77 0c-5,0 -10,-1 -14,-5 -4,-4 -5,-9 -5,-14 0,-5 1,-9 5,-13 3,-4 8,-6 14,-6l77 0c11,0 20,-4 28,-11 7,-7 11,-16 11,-28l0 -38zm270 -155l0 -96c0,-6 2,-10 6,-15 4,-3 8,-5 13,-5 5,0 10,2 14,5 4,3 5,8 5,15l0 231c0,6 -1,11 -5,15 -3,3 -8,5 -14,5 -5,0 -9,-2 -13,-5 -4,-3 -6,-8 -6,-15l0 -97 -77 0c-21,0 -39,-7 -54,-22 -16,-15 -24,-33 -24,-55l0 -57c0,-6 2,-10 6,-15 4,-3 9,-5 14,-5 5,0 9,2 13,5 4,3 6,8 6,15l0 58c0,10 4,20 11,27 4,3 8,6 12,8 6,2 11,3 16,3l77 0zm270 78l0 -155 -77 0c-11,0 -20,3 -28,11 -4,4 -6,8 -8,12 -2,5 -3,10 -3,16l0 116c0,11 4,20 11,27 4,4 8,6 12,9 6,1 11,2 16,2l38 0c11,0 20,-3 28,-10 7,-8 11,-17 11,-28zm19 51c-6,7 -15,14 -25,18 -11,5 -22,8 -33,8l-38 0c-21,0 -39,-8 -54,-23 -16,-15 -23,-33 -23,-54l0 -116c0,-22 7,-40 22,-55 15,-15 33,-23 55,-23l96 0c13,0 20,7 20,20l0 173c0,8 2,16 7,24 4,7 11,13 19,16 8,4 12,10 12,18 0,6 -2,10 -5,14 -4,4 -8,6 -14,6 -3,0 -5,-1 -8,-2 -12,-5 -23,-13 -31,-24zm232 26l-58 0c-21,0 -39,-8 -54,-23 -16,-15 -23,-33 -23,-54l0 -116c0,-22 7,-40 22,-55 15,-15 34,-23 55,-23l58 0c5,0 10,2 14,6 3,4 5,9 5,14 0,4 -1,8 -5,12 -3,5 -8,7 -14,7l-58 0c-11,0 -20,3 -28,11 -4,4 -6,8 -8,12 -2,5 -3,10 -3,16l0 116c0,11 4,20 11,27 4,4 8,6 13,9 5,1 10,2 15,2l58 0c5,0 10,2 14,6 3,4 5,9 5,14 0,4 -1,8 -5,12 -3,5 -8,7 -14,7zm212 -232l-77 0 0 212c0,6 -2,11 -6,15 -3,3 -8,5 -14,5 -5,0 -9,-2 -13,-5 -4,-3 -6,-8 -6,-15l0 -231c0,-13 7,-20 19,-20l174 0c21,0 39,8 54,23 15,15 23,33 23,55l0 173c0,6 -2,11 -6,15 -3,3 -8,5 -13,5 -5,0 -10,-2 -14,-5 -4,-3 -5,-8 -5,-15l0 -174c0,-10 -4,-20 -11,-27 -8,-7 -17,-11 -28,-11l-39 0 0 212c0,6 -2,11 -5,15 -4,3 -8,5 -14,5 -5,0 -10,-2 -13,-5 -4,-3 -6,-8 -6,-15l0 -212zm309 105l-43 46 0 61c0,6 -2,11 -6,15 -3,3 -8,5 -13,5 -5,0 -10,-2 -14,-5 -4,-3 -6,-8 -6,-15l0 -231c0,-5 2,-10 6,-14 4,-4 9,-5 14,-5 4,0 9,1 13,4 4,4 6,9 6,15l0 114 122 -128c4,-4 8,-6 13,-6 4,0 8,2 13,6 4,3 6,8 6,14 0,5 -2,10 -6,15l-78 81 80 123c3,5 4,10 4,13 0,5 -2,10 -6,14 -4,3 -9,5 -14,5 -5,0 -9,-2 -14,-7l-77 -120zm328 50l0 -155 -78 0c-11,0 -20,3 -28,11 -3,4 -6,8 -8,12 -2,5 -3,10 -3,16l0 116c0,11 4,20 11,27 4,4 8,6 13,9 5,1 10,2 15,2l39 0c10,0 20,-3 27,-10 8,-8 12,-17 12,-28zm18 51c-6,7 -14,14 -25,18 -11,5 -22,8 -32,8l-39 0c-21,0 -39,-8 -54,-23 -15,-15 -23,-33 -23,-54l0 -116c0,-22 7,-40 22,-55 16,-15 34,-23 55,-23l97 0c12,0 19,7 19,20l0 173c0,8 2,16 7,24 5,7 11,13 20,16 8,4 12,10 12,18 0,6 -2,10 -6,14 -3,4 -8,6 -14,6 -2,0 -5,-1 -8,-2 -12,-5 -22,-13 -31,-24zm715 -225c0,17 -6,31 -19,43 -11,10 -24,15 -39,15 -16,0 -29,-5 -40,-15 -12,-11 -18,-25 -18,-43l0 -78c0,-17 6,-31 18,-43 11,-10 24,-14 40,-14 15,0 28,4 39,14 13,10 19,25 19,43l0 78zm-155 231c0,5 -2,10 -6,15 -4,3 -8,5 -13,5 -8,0 -14,-4 -18,-10l-156 -282 0 272c0,6 -2,11 -6,15 -3,3 -8,5 -13,5 -5,0 -10,-2 -14,-5 -4,-3 -6,-8 -6,-15l0 -347c0,-5 2,-10 6,-14 4,-4 9,-5 14,-5 7,0 13,3 17,10l156 282 0 -273c0,-5 2,-10 6,-14 4,-4 9,-5 14,-5 5,0 9,1 13,4 4,4 6,9 6,15l0 347zm116 -231l0 -78c0,-5 -2,-10 -6,-15 -4,-2 -8,-4 -13,-4 -5,0 -9,2 -14,5 -4,3 -6,8 -6,14l0 78c0,6 2,11 5,15 4,3 9,4 15,4 4,0 9,-1 13,-5 4,-3 6,-8 6,-14zm540 310l-231 0 0 -38 231 0 0 38zm232 0l-232 0 0 -38 232 0 0 38zm231 0l-231 0 0 -38 231 0 0 38zm232 0l-232 0 0 -38 232 0 0 38zm231 0l-231 0 0 -38 231 0 0 38zm232 0l-232 0 0 -38 232 0 0 38z"/>
   </g>
   <path class="fil5 str2" d="M13571 6772l0 10966c-2738,0 -4573,0 -7311,0l0 -10966 7311 0z"/>
   <path class="fil6" d="M13571 6772l0 10966c-2738,0 -4573,0 -7311,0l0 -10966 7311 0z"/>
   <path class="fil7" d="M6260 6772l7311 0 0 4172 -7311 -3474c13,-359 0,-459 0,-698z"/>
   <g>
    <path class="fil8" d="M7480 7983l-142 0 0 -190 249 0c23,0 43,-13 43,-45 0,-31 -20,-46 -43,-46l-294 0c-33,0 -47,22 -47,47l0 618c0,24 14,46 47,46l187 0c126,0 187,-85 187,-197l0 -46c0,-113 -61,-187 -187,-187zm95 243c0,61 -26,96 -93,96l-144 0 0 -253 142 0c67,0 95,35 95,96l0 61zm616 -534c-131,0 -188,115 -188,226l0 74 -89 0 0 -253c0,-25 -10,-47 -43,-47 -32,0 -44,22 -44,47l0 638c0,24 12,47 44,47 32,0 43,-23 43,-47l0 -294 89 0 0 135c0,112 56,206 180,206l52 0c124,0 186,-92 186,-204l0 -325c0,-112 -62,-203 -186,-203l-44 0zm138 528c0,63 -26,112 -94,112l-47 0c-67,0 -94,-49 -94,-112l0 -294c0,-63 26,-143 97,-143l44 0c67,0 94,50 94,107l0 330zm390 65c7,-58 58,-492 58,-492l171 0 0 584c0,24 13,47 46,47 32,0 45,-23 45,-47l0 -628c0,-25 -13,-47 -45,-47l-255 0c-28,0 -44,19 -46,47 -3,29 -56,473 -61,513 -3,23 -6,39 -12,49 -10,19 -26,24 -54,24 -24,0 -45,15 -45,48 0,34 21,46 45,46 85,0 120,-29 139,-80 7,-19 11,-37 14,-64zm648 0c7,-58 57,-492 57,-492l171 0 0 584c0,24 14,47 47,47 32,0 45,-23 45,-47l0 -628c0,-25 -13,-47 -45,-47l-255 0c-28,0 -44,19 -47,47 -2,29 -55,473 -60,513 -3,23 -6,39 -12,49 -10,19 -26,24 -55,24 -23,0 -44,15 -44,48 0,34 21,46 44,46 85,0 121,-29 140,-80 7,-19 11,-37 14,-64zm871 128c22,0 43,-13 43,-45 0,-31 -21,-46 -43,-46l-268 0 0 -229 221 0c22,0 43,-13 43,-46 0,-30 -21,-45 -43,-45l-221 0 0 -209 268 0c22,0 43,-13 43,-45 0,-31 -21,-46 -43,-46l-315 0c-31,0 -45,22 -45,47l0 618c0,24 14,46 45,46l315 0zm368 11c32,0 46,-23 46,-47l0 -584 143 0c22,0 43,-13 43,-45 0,-31 -21,-46 -43,-46l-377 0c-23,0 -43,15 -43,46 0,32 20,45 43,45l142 0 0 584c0,24 14,47 46,47zm719 -11c23,0 43,-13 43,-45 0,-31 -20,-46 -43,-46l-267 0 0 -229 220 0c23,0 43,-13 43,-46 0,-30 -20,-45 -43,-45l-220 0 0 -209 267 0c23,0 43,-13 43,-45 0,-31 -20,-46 -43,-46l-314 0c-31,0 -45,22 -45,47l0 618c0,24 14,46 45,46l314 0zm636 -674c0,-25 -15,-47 -46,-47 -33,0 -46,22 -46,47l0 253 -257 0 0 -253c0,-25 -13,-47 -46,-47 -31,0 -46,22 -46,47l0 638c0,24 15,47 46,47 32,0 46,-23 46,-47l0 -294 257 0 0 294c0,24 13,47 46,47 31,0 46,-23 46,-47l0 -638zm437 238l-155 0 0 -238c0,-25 -13,-47 -46,-47 -32,0 -46,22 -46,47l0 628c0,24 14,46 47,46l200 0c126,0 187,-85 187,-197l0 -46c0,-113 -58,-193 -187,-193zm95 249c0,61 -26,96 -93,96l-157 0 0 -253 155 0c67,0 95,35 95,96l0 61z"/>
    <path id="1" class="fil8" d="M7338 7968l142 0 0 31 -142 0 -15 -16 15 -15zm0 31l-15 0 0 -16 15 16zm15 -206l0 190 -30 0 0 -190 15 -15 15 15zm-30 0l0 -15 15 0 -15 15zm264 16l-249 0 0 -31 249 0 0 0 0 31zm28 -61l30 0 0 0 0 3 0 4 0 3 -1 4 -1 3 0 3 -1 3 -1 3 -2 3 -1 3 -2 3 -1 2 -2 3 -2 2 -2 2 -2 2 -2 2 -2 2 -3 2 -2 1 -2 2 -3 1 -2 1 -3 1 -3 1 -2 0 -3 1 -2 0 -3 1 -3 0 -2 0 -3 0 0 -31 2 0 1 0 2 -1 1 0 2 0 1 0 1 -1 2 0 1 -1 1 0 1 -1 1 0 1 -1 1 -1 1 0 1 -1 1 -1 1 -1 0 -1 1 -1 1 -1 0 -1 1 -1 1 -1 0 -2 1 -1 0 -2 0 -2 1 -2 0 -2 0 -2 0 -2 0 0zm-28 -30l0 -32 0 0 3 0 3 0 2 1 3 0 3 1 2 0 3 1 2 1 3 1 2 1 3 1 2 2 3 1 2 2 2 2 2 2 2 2 2 2 2 2 2 3 1 2 2 3 1 3 1 3 2 3 1 3 0 3 1 3 1 3 0 4 0 3 0 4 -30 0 0 -2 0 -2 0 -2 -1 -2 0 -2 0 -1 -1 -2 0 -1 -1 -2 -1 -1 0 -1 -1 -1 -1 -1 0 -1 -1 -1 -1 -1 -1 -1 -1 -1 -1 0 -1 -1 -1 -1 -1 0 -2 -1 -1 0 -1 -1 -1 0 -2 -1 -1 0 -1 0 -2 0 -1 0 -2 0 0 0zm-294 -32l294 0 0 32 -294 0 0 0 0 -32zm-32 63l-30 0 0 0 0 -3 0 -3 1 -3 0 -3 0 -3 1 -2 1 -3 1 -3 1 -3 1 -2 1 -3 1 -3 2 -2 1 -3 2 -2 2 -2 2 -3 2 -2 3 -2 2 -2 3 -1 2 -2 3 -1 3 -2 3 -1 3 -1 4 -1 3 -1 3 0 4 0 3 -1 4 0 0 32 -2 0 -3 0 -2 0 -2 0 -2 1 -1 0 -2 1 -2 0 -1 1 -1 1 -2 0 -1 1 -1 1 -1 1 -1 1 -1 1 0 1 -1 1 -1 1 -1 1 0 1 -1 2 0 1 -1 1 0 2 -1 1 0 2 0 1 0 2 -1 1 0 2 0 2 0 0zm-30 618l0 -618 30 0 0 618 0 0 -30 0zm62 31l0 31 0 0 -4 0 -3 0 -4 -1 -3 0 -3 -1 -4 -1 -3 -1 -3 -1 -3 -1 -3 -2 -2 -1 -3 -2 -2 -2 -3 -2 -2 -2 -2 -2 -2 -3 -2 -2 -1 -2 -2 -3 -1 -3 -1 -2 -1 -3 -1 -3 -1 -3 -1 -2 -1 -3 0 -3 0 -3 -1 -3 0 -3 0 -2 30 0 0 1 0 2 1 2 0 1 0 2 0 1 1 2 0 1 1 1 0 2 1 1 0 1 1 1 1 1 1 2 0 1 1 0 1 1 1 1 1 1 1 1 2 1 1 0 1 1 2 0 2 1 1 0 2 1 2 0 2 0 3 1 2 0 0 0zm187 31l-187 0 0 -31 187 0 0 0 0 31zm172 -213l30 0 0 0 0 11 0 11 -1 11 -2 10 -1 10 -3 11 -2 10 -3 9 -3 10 -4 9 -4 9 -5 9 -5 8 -5 8 -6 8 -6 7 -7 7 -7 7 -7 6 -8 6 -8 6 -9 5 -9 5 -9 4 -10 4 -10 3 -11 3 -10 2 -12 2 -11 1 -12 1 -12 0 0 -31 11 -1 10 0 10 -1 10 -2 10 -2 9 -2 8 -3 9 -3 7 -4 8 -4 7 -4 7 -5 6 -4 6 -6 6 -5 6 -6 5 -6 4 -7 5 -6 4 -7 4 -7 3 -8 4 -8 2 -8 3 -8 2 -9 2 -9 1 -9 2 -9 0 -9 1 -10 0 -10 0 0zm30 -46l0 46 -30 0 0 -46 0 0 30 0zm-202 -171l0 -31 0 0 12 0 12 1 11 1 11 1 11 2 10 3 10 3 10 3 10 4 8 4 9 4 8 5 8 6 8 5 7 7 6 6 7 7 6 7 5 8 5 8 5 8 4 9 4 9 3 9 3 9 2 10 3 10 1 10 2 11 1 10 0 11 0 11 -30 0 0 -10 -1 -9 0 -10 -2 -9 -1 -9 -2 -8 -2 -9 -3 -8 -2 -7 -4 -8 -3 -7 -4 -6 -4 -7 -4 -6 -5 -6 -5 -6 -5 -5 -6 -5 -6 -5 -7 -4 -6 -4 -7 -4 -8 -3 -8 -3 -8 -3 -9 -3 -9 -2 -9 -2 -10 -1 -11 -1 -10 -1 -11 0 0 0zm2 339l0 -32 0 0 5 0 6 0 5 -1 5 0 5 -1 4 -1 4 -1 4 -1 4 -2 3 -1 3 -2 3 -2 3 -2 2 -2 3 -2 2 -2 2 -2 2 -3 2 -3 1 -2 2 -3 1 -4 2 -3 1 -4 1 -3 1 -4 1 -5 0 -4 1 -5 0 -4 0 -5 0 -6 30 0 0 6 0 6 0 6 -1 6 -1 6 -1 5 -1 5 -1 6 -2 5 -2 5 -2 5 -2 4 -3 5 -3 4 -3 4 -3 4 -4 4 -4 3 -4 3 -4 3 -5 3 -4 2 -5 2 -5 2 -6 2 -5 2 -6 1 -6 1 -6 1 -6 0 -7 0 -6 1 0 0zm-144 -32l144 0 0 32 -144 0 -15 -16 15 -16zm0 32l-15 0 0 -16 15 16zm15 -269l0 253 -30 0 0 -253 15 -16 15 16zm-30 0l0 -16 15 0 -15 16zm157 16l-142 0 0 -32 142 0 0 0 0 32zm110 80l-30 0 0 0 0 -5 0 -5 0 -5 -1 -4 -1 -5 0 -4 -1 -4 -1 -4 -2 -3 -1 -4 -2 -3 -1 -3 -2 -3 -2 -3 -2 -2 -2 -3 -2 -2 -3 -2 -2 -2 -3 -2 -3 -2 -4 -2 -3 -1 -4 -2 -4 -1 -4 -1 -4 -1 -5 -1 -5 -1 -5 0 -6 0 -5 0 0 -32 6 0 7 1 6 0 6 1 6 1 6 1 6 2 5 1 5 2 5 3 5 2 4 3 5 3 4 3 4 4 4 3 3 4 3 4 3 5 3 4 2 5 3 5 2 5 1 5 2 5 1 5 1 6 1 6 1 5 0 6 0 6 0 6 0 0zm-30 61l0 -61 30 0 0 61 0 0 -30 0zm458 -308l-31 0 0 0 1 -11 0 -11 1 -11 1 -11 2 -10 2 -11 2 -11 3 -11 3 -10 4 -10 4 -10 4 -10 5 -10 5 -9 6 -9 6 -9 6 -9 7 -8 7 -8 8 -7 8 -7 9 -6 9 -6 10 -6 10 -4 10 -5 11 -3 11 -3 12 -3 12 -2 12 -1 13 0 0 32 -11 0 -11 1 -10 1 -10 2 -10 3 -9 3 -8 3 -9 5 -8 4 -7 5 -7 5 -7 6 -7 6 -6 7 -6 6 -5 8 -5 7 -5 8 -5 8 -4 8 -4 9 -3 9 -3 9 -3 9 -2 10 -2 9 -2 10 -2 10 -1 10 -1 10 0 9 0 10 0 0zm-31 74l0 -74 31 0 0 74 -15 15 -16 -15zm31 0l0 15 -15 0 15 -15zm-104 -16l89 0 0 31 -89 0 -15 -15 15 -16zm0 31l-15 0 0 -15 15 15zm15 -268l0 253 -30 0 0 -253 0 0 30 0zm-58 -31l0 -32 0 0 3 0 4 0 3 1 4 0 3 1 3 1 3 1 3 1 3 2 3 1 3 2 2 2 2 2 3 2 2 2 1 2 2 3 2 2 1 3 1 2 2 3 1 2 0 3 1 3 1 3 0 2 1 3 0 3 0 2 1 3 0 3 0 3 -30 0 0 -2 -1 -2 0 -2 0 -2 0 -1 0 -2 -1 -1 0 -2 0 -1 -1 -2 0 -1 -1 -1 0 -1 -1 -1 -1 -1 0 -1 -1 -1 -1 -1 0 -1 -1 0 -1 -1 -1 -1 -1 0 -1 -1 -2 0 -1 -1 -2 0 -2 -1 -2 0 -2 0 -2 0 -2 0 0 0zm-29 31l-30 0 0 0 0 -3 0 -3 0 -3 0 -3 1 -3 0 -2 1 -3 1 -3 1 -2 1 -3 1 -3 1 -2 2 -3 1 -2 2 -3 2 -2 1 -2 3 -3 2 -2 2 -2 3 -1 2 -2 3 -1 3 -2 3 -1 3 -1 3 -1 3 -1 3 0 4 -1 3 0 4 0 0 32 -3 0 -2 0 -2 0 -1 0 -2 1 -2 0 -1 1 -1 0 -2 1 -1 0 -1 1 -1 1 -1 1 -1 0 -1 1 -1 1 0 1 -1 1 -1 1 0 2 -1 1 0 1 -1 1 0 2 -1 1 0 2 0 1 -1 2 0 1 0 2 0 2 0 2 0 0zm-30 638l0 -638 30 0 0 638 0 0 -30 0zm59 31l0 31 0 0 -4 0 -3 0 -4 0 -3 -1 -3 -1 -3 -1 -3 -1 -3 -1 -3 -1 -3 -2 -2 -1 -3 -2 -2 -2 -2 -2 -3 -2 -1 -3 -2 -2 -2 -2 -1 -3 -2 -2 -1 -3 -1 -3 -1 -2 -1 -3 -1 -3 -1 -2 0 -3 -1 -3 0 -3 0 -3 0 -2 0 -3 30 0 0 1 0 2 0 2 0 2 1 1 0 2 0 1 1 2 0 1 1 1 0 2 1 1 0 1 1 1 1 1 0 1 1 1 1 1 1 1 1 0 1 1 1 1 1 1 2 0 1 1 1 0 2 1 2 0 1 0 2 1 2 0 3 0 0 0zm28 -31l30 0 0 0 0 2 0 3 -1 3 0 3 0 2 -1 3 0 3 -1 3 -1 2 -1 3 -1 3 -1 2 -1 3 -2 2 -1 3 -2 2 -2 2 -2 3 -2 2 -2 2 -3 2 -2 1 -3 2 -3 1 -3 1 -3 1 -3 1 -3 1 -4 1 -3 0 -4 0 -3 0 0 -31 2 0 2 0 2 -1 2 0 2 0 1 -1 2 0 1 -1 1 0 1 -1 1 -1 1 0 1 -1 1 -1 1 -1 1 -1 0 -1 1 -1 0 -1 1 -1 1 -1 0 -1 1 -2 0 -1 0 -1 1 -2 0 -2 0 -1 0 -2 0 -2 1 -1 0 -2 0 0zm30 -294l0 294 -30 0 0 -294 15 -16 15 16zm-30 0l0 -16 15 0 -15 16zm104 16l-89 0 0 -32 89 0 15 16 -15 16zm0 -32l15 0 0 16 -15 -16zm-16 151l0 -135 31 0 0 135 0 0 -31 0zm196 190l0 31 0 0 -12 0 -12 -1 -11 -1 -11 -2 -11 -3 -10 -3 -10 -3 -9 -4 -10 -5 -8 -5 -9 -6 -8 -5 -7 -7 -7 -7 -7 -7 -6 -7 -6 -8 -6 -8 -5 -9 -4 -8 -5 -9 -3 -10 -4 -9 -3 -10 -3 -10 -2 -10 -2 -10 -2 -11 -1 -10 -1 -11 0 -11 -1 -11 31 0 0 10 0 10 1 9 1 10 2 9 1 9 2 9 3 9 2 8 3 8 4 8 3 8 4 7 5 7 4 7 5 7 5 6 6 6 6 5 6 6 6 4 7 5 7 4 8 4 8 3 8 3 9 3 9 2 9 2 10 1 11 1 10 0 0 0zm52 31l-52 0 0 -31 52 0 0 0 0 31zm171 -219l30 0 0 0 0 11 -1 11 -1 11 -1 10 -2 11 -2 10 -3 10 -3 10 -3 10 -4 9 -4 9 -4 9 -5 9 -5 8 -6 8 -6 8 -7 8 -7 7 -7 6 -8 6 -8 6 -8 6 -9 4 -10 5 -9 4 -10 3 -11 3 -10 3 -12 2 -11 1 -12 1 -12 0 0 -31 11 0 10 -1 10 -1 10 -2 9 -2 9 -3 8 -3 9 -3 7 -4 8 -4 7 -4 6 -5 7 -5 6 -6 6 -5 5 -7 5 -6 5 -7 4 -7 4 -7 4 -8 4 -7 3 -8 3 -9 2 -8 3 -9 1 -9 2 -9 1 -10 1 -9 0 -10 1 -10 0 0zm30 -325l0 325 -30 0 0 -325 0 0 30 0zm-201 -187l0 -32 0 0 12 0 12 1 11 2 12 2 10 2 11 3 10 3 9 4 10 5 9 5 8 5 8 6 8 6 7 7 7 7 7 7 6 8 6 8 5 8 5 9 4 9 4 9 4 10 3 9 3 10 3 10 2 10 2 11 1 10 1 11 1 11 0 11 -30 0 -1 -10 0 -10 -1 -9 -1 -9 -2 -10 -1 -9 -3 -8 -2 -9 -3 -8 -3 -8 -4 -8 -4 -8 -4 -7 -4 -7 -5 -7 -5 -6 -5 -6 -6 -6 -6 -6 -7 -5 -6 -4 -7 -5 -8 -4 -8 -4 -8 -3 -8 -3 -9 -3 -9 -2 -10 -1 -10 -1 -10 -1 -11 0 0 0zm-44 -32l44 0 0 32 -44 0 0 0 0 -32zm44 672l0 -32 0 0 6 0 5 0 5 -1 5 -1 4 -1 4 -1 4 -1 4 -2 4 -2 3 -2 3 -2 3 -2 3 -3 3 -2 2 -3 2 -3 3 -3 2 -3 2 -4 1 -3 2 -4 2 -4 1 -5 1 -4 1 -4 1 -5 1 -5 1 -5 0 -5 0 -5 1 -5 0 -6 30 0 0 7 0 6 -1 6 0 6 -1 6 -1 6 -1 6 -2 5 -1 6 -2 6 -2 5 -2 5 -3 5 -3 5 -3 5 -3 4 -3 5 -4 4 -4 4 -4 4 -5 3 -5 3 -4 3 -6 3 -5 2 -6 2 -6 2 -6 1 -6 1 -6 1 -7 1 -7 0 0 0zm-47 -32l47 0 0 32 -47 0 0 0 0 -32zm-109 -96l30 0 0 0 1 6 0 5 0 5 1 5 0 5 1 5 1 5 1 4 1 4 2 5 1 4 2 4 2 3 2 4 2 3 2 3 2 3 3 3 2 2 3 3 3 2 3 2 4 2 3 2 4 2 4 1 4 1 5 1 4 1 5 1 6 0 5 0 0 32 -7 0 -6 -1 -7 -1 -6 -1 -6 -1 -6 -2 -6 -2 -5 -2 -5 -3 -5 -3 -5 -3 -4 -3 -5 -4 -4 -4 -3 -4 -4 -5 -3 -4 -3 -5 -3 -5 -2 -5 -3 -5 -2 -5 -1 -6 -2 -6 -1 -5 -2 -6 -1 -6 0 -6 -1 -6 0 -6 -1 -6 0 -7 0 0zm30 -294l0 294 -30 0 0 -294 0 0 30 0zm82 -158l0 31 0 0 -5 0 -6 1 -5 1 -4 1 -5 1 -4 2 -4 2 -4 3 -4 3 -3 2 -3 4 -4 3 -3 4 -3 4 -2 4 -3 5 -2 4 -3 5 -2 5 -2 5 -1 6 -2 5 -1 6 -2 5 -1 6 -1 6 -1 5 0 6 -1 6 0 5 0 6 -1 6 -30 0 0 -7 1 -6 0 -7 1 -6 0 -7 1 -7 1 -6 2 -7 1 -6 2 -7 2 -6 2 -7 2 -6 3 -6 3 -6 3 -6 3 -6 4 -5 4 -6 4 -5 4 -5 5 -4 5 -5 6 -4 5 -3 6 -3 7 -3 6 -2 7 -2 7 -1 8 -1 7 0 0 0zm44 31l-44 0 0 -31 44 0 0 0 0 31zm109 91l-30 0 0 0 0 -5 -1 -5 0 -4 0 -5 -1 -4 -1 -5 -1 -4 -1 -4 -1 -4 -2 -4 -1 -4 -2 -4 -2 -3 -2 -4 -2 -3 -2 -3 -2 -3 -3 -3 -2 -2 -3 -3 -3 -2 -3 -2 -4 -2 -3 -2 -4 -1 -4 -2 -4 -1 -5 -1 -4 -1 -5 -1 -6 0 -5 0 0 -31 7 0 6 0 7 1 6 1 6 1 6 2 6 2 5 3 5 2 5 3 5 3 4 4 4 3 4 4 4 4 4 4 3 5 3 4 3 5 2 5 2 5 3 5 1 5 2 6 1 5 2 6 1 5 1 6 0 6 1 5 0 6 0 6 0 0zm-30 330l0 -330 30 0 0 330 0 0 -30 0zm463 -442l0 31 15 -14 -1 2 0 3 -1 6 -1 8 -1 10 -1 12 -2 13 -2 15 -1 16 -2 18 -3 18 -2 20 -2 20 -3 21 -2 21 -3 22 -2 21 -3 22 -2 22 -3 21 -2 21 -3 20 -2 20 -2 19 -2 18 -2 16 -2 16 -2 13 -1 13 -1 10 -1 9 -1 6 -30 -4 1 -6 1 -9 1 -10 1 -12 2 -14 2 -16 2 -16 2 -18 2 -19 2 -19 3 -21 2 -21 3 -21 2 -22 3 -22 2 -21 3 -22 2 -21 3 -21 2 -20 2 -20 3 -18 2 -18 1 -16 2 -15 2 -13 1 -12 1 -10 1 -8 1 -6 0 -3 1 -1 15 -14zm-15 14l1 -14 14 0 -15 14zm186 17l-171 0 0 -31 171 0 15 15 -15 16zm0 -31l15 0 0 15 -15 -15zm-16 599l0 -584 31 0 0 584 0 0 -31 0zm62 31l0 31 0 0 -3 0 -4 0 -3 0 -4 -1 -3 -1 -3 -1 -4 -1 -3 -1 -2 -1 -3 -2 -3 -1 -3 -2 -2 -2 -2 -2 -3 -2 -2 -2 -2 -2 -1 -3 -2 -2 -1 -3 -2 -3 -1 -2 -1 -3 -1 -3 -1 -2 -1 -3 0 -3 -1 -3 0 -3 0 -3 -1 -2 0 -3 31 0 0 1 0 2 0 2 0 1 0 2 1 1 0 2 0 1 1 2 0 1 1 1 1 1 0 2 1 1 1 1 1 1 1 1 0 1 1 0 2 1 1 1 1 1 1 0 2 1 1 1 2 0 2 1 1 0 3 0 2 1 2 0 2 0 0 0zm30 -31l30 0 0 0 0 3 0 2 0 3 0 3 -1 3 0 3 -1 3 -1 2 -1 3 -1 3 -1 2 -1 3 -2 3 -2 2 -1 2 -2 3 -2 2 -2 2 -2 2 -3 2 -2 2 -3 1 -3 2 -3 1 -2 1 -4 1 -3 1 -3 1 -3 1 -4 0 -3 0 -4 0 0 -31 3 0 2 0 2 -1 2 0 1 0 2 -1 1 0 2 -1 1 0 1 -1 1 -1 2 -1 1 0 1 -1 0 -1 1 -1 1 -1 1 -1 1 -1 0 -1 1 -2 0 -1 1 -1 0 -2 1 -1 0 -2 1 -1 0 -2 0 -1 0 -2 0 -2 0 -1 0 0zm30 -628l0 628 -30 0 0 -628 0 0 30 0zm-60 -31l0 -32 0 0 4 0 3 1 4 0 3 1 3 0 3 1 3 1 3 1 3 2 3 1 3 2 2 2 3 1 2 2 2 3 2 2 2 2 1 2 2 3 2 2 1 3 1 3 1 2 1 3 1 3 1 3 0 2 1 3 0 3 0 3 0 3 0 3 -30 0 0 -2 0 -2 0 -1 0 -2 0 -1 -1 -2 0 -1 -1 -2 0 -1 -1 -2 0 -1 -1 -1 0 -1 -1 -1 -1 -1 -1 -1 -1 -1 0 -1 -1 -1 -1 -1 -2 -1 -1 0 -1 -1 -1 -1 -2 0 -1 -1 -2 0 -1 -1 -2 0 -2 0 -2 0 -3 0 0 0zm-255 -32l255 0 0 32 -255 0 0 0 0 -32zm-31 64l-30 -3 0 0 0 -3 0 -3 1 -3 1 -3 0 -3 1 -3 1 -3 1 -2 1 -3 2 -3 1 -2 2 -3 1 -2 2 -3 2 -2 2 -2 2 -2 2 -2 2 -2 3 -2 2 -1 3 -2 2 -1 3 -1 3 -1 3 -1 3 -1 3 -1 3 0 3 0 3 -1 3 0 0 32 -2 0 -1 0 -2 0 -2 0 -2 1 -1 0 -2 1 -1 0 -1 1 -1 0 -2 1 -1 1 -1 0 -1 1 -1 1 -1 1 -1 1 -1 1 0 1 -1 1 -1 2 -1 1 0 2 -1 1 -1 2 0 1 -1 2 0 2 -1 2 0 1 0 2 0 2 0 0zm-30 -3l0 0 -1 1 1 -1zm-31 517l-30 -4 0 0 1 -5 0 -7 2 -9 1 -11 1 -13 2 -15 2 -16 2 -17 2 -18 3 -20 2 -20 3 -21 2 -22 3 -22 2 -22 3 -22 3 -23 2 -22 3 -22 2 -21 3 -21 2 -20 2 -19 3 -18 1 -17 2 -15 2 -14 1 -12 1 -11 1 -8 1 -6 1 -4 30 3 -1 4 -1 7 -1 8 -1 10 -1 13 -2 14 -2 15 -2 17 -2 18 -2 19 -2 20 -3 21 -2 21 -3 22 -2 22 -3 22 -3 23 -2 22 -3 22 -3 22 -2 21 -2 20 -3 20 -2 18 -2 17 -2 16 -2 15 -1 13 -2 11 -1 9 0 7 -1 5 0 0zm0 0l0 0 0 2 0 -2zm-13 54l-27 -15 0 0 1 -1 0 -1 0 0 1 -1 0 -1 0 -1 1 0 0 -1 0 -1 1 -1 0 -1 0 -2 1 -1 0 -1 0 -1 1 -1 0 -2 0 -1 0 -2 1 -1 0 -2 0 -1 1 -2 0 -2 0 -1 0 -2 1 -2 0 -2 0 -2 0 -2 1 -2 0 -2 30 4 0 2 -1 2 0 2 0 3 0 2 -1 2 0 2 0 2 -1 1 0 2 0 2 -1 2 0 2 0 1 -1 2 0 2 -1 2 0 1 0 2 -1 1 0 2 -1 2 0 1 -1 1 0 2 -1 2 0 1 -1 1 -1 2 0 1 -1 1 -1 2 1 -1zm-27 -15l0 0 0 0 0 0zm-41 48l0 -32 0 0 2 0 2 0 3 0 2 0 2 0 2 0 2 0 2 -1 1 0 2 0 2 0 1 -1 2 0 1 -1 1 0 1 0 1 -1 1 0 1 -1 1 -1 1 0 1 -1 1 0 0 -1 1 -1 1 0 1 -1 0 -1 1 -1 1 -1 0 -1 1 -2 27 15 -2 2 -1 3 -1 2 -2 2 -1 2 -2 2 -2 2 -1 1 -2 2 -2 1 -2 2 -2 1 -2 2 -2 1 -2 1 -3 1 -2 1 -2 0 -2 1 -3 1 -2 0 -2 1 -3 0 -2 1 -3 0 -2 0 -3 0 -3 1 -2 0 -3 0 -3 0 -2 0 0 0zm-30 32l-31 0 0 0 1 -4 0 -3 0 -4 1 -3 0 -4 1 -3 1 -3 1 -3 2 -3 1 -3 2 -3 1 -3 2 -2 2 -2 2 -3 2 -2 2 -2 3 -2 2 -1 2 -2 3 -1 2 -2 3 -1 3 -1 2 -1 3 -1 3 0 2 -1 3 0 3 0 3 -1 3 0 0 32 -2 0 -2 0 -1 0 -2 0 -1 1 -2 0 -1 0 -1 1 -2 0 -1 1 -1 1 -1 0 -1 1 -2 1 -1 1 -1 0 0 1 -1 1 -1 1 -1 1 -1 2 0 1 -1 1 -1 2 0 1 -1 2 0 2 -1 1 0 2 0 2 0 3 0 2 0 0zm30 30l0 31 0 0 -3 0 -3 0 -2 0 -3 0 -3 -1 -2 0 -3 -1 -3 -1 -2 0 -3 -1 -2 -1 -3 -2 -2 -1 -3 -2 -2 -1 -2 -2 -3 -2 -2 -2 -2 -3 -1 -2 -2 -3 -2 -2 -1 -3 -2 -3 -1 -3 -1 -4 -1 -3 0 -3 -1 -4 0 -4 0 -3 -1 -4 31 0 0 2 0 3 0 2 0 2 1 2 0 1 1 2 0 1 1 2 0 1 1 1 1 1 0 1 1 1 1 1 1 1 1 0 1 1 1 1 1 0 1 1 1 0 1 1 2 0 1 1 2 0 1 0 2 0 1 1 2 0 2 0 2 0 0 0zm125 -69l28 11 0 0 -2 5 -2 5 -2 5 -3 5 -2 5 -3 4 -3 5 -3 4 -3 4 -4 4 -3 4 -4 4 -4 3 -4 3 -5 4 -4 3 -5 2 -5 3 -5 2 -6 3 -5 2 -6 2 -6 1 -6 2 -7 1 -6 1 -7 1 -7 1 -8 1 -7 0 -8 0 -8 0 0 -31 7 0 7 0 7 -1 7 0 6 -1 6 -1 6 -1 5 -1 6 -1 4 -2 5 -1 5 -2 4 -2 4 -1 4 -2 3 -3 4 -2 3 -2 3 -3 3 -2 3 -3 2 -3 3 -2 2 -4 3 -3 2 -3 2 -4 2 -3 2 -4 2 -4 2 -4 1 -5 0 1zm28 11l0 0 0 0 0 0zm-15 -72l30 4 0 0 0 3 -1 2 0 3 0 2 -1 2 0 3 0 2 -1 2 0 2 0 3 -1 2 0 2 0 2 -1 2 0 2 -1 2 0 2 -1 2 0 2 -1 2 0 2 -1 2 0 2 -1 2 0 2 -1 2 0 2 -1 2 -1 2 0 2 -1 2 -1 2 -28 -11 1 -2 0 -2 1 -1 0 -2 1 -2 0 -1 1 -2 0 -2 1 -1 0 -2 1 -2 0 -1 1 -2 0 -2 0 -2 1 -1 0 -2 1 -2 0 -2 0 -2 1 -2 0 -2 0 -2 1 -2 0 -2 0 -2 1 -2 0 -2 0 -3 0 -2 1 -2 0 -3 0 0zm0 0l0 0 0 2 0 -2zm720 -505l0 31 15 -14 0 2 0 3 -1 6 -1 8 -1 10 -1 12 -2 13 -2 15 -1 16 -3 18 -2 18 -2 20 -2 20 -3 21 -2 21 -3 22 -2 21 -3 22 -2 22 -3 21 -2 21 -3 20 -2 20 -2 19 -2 18 -2 16 -2 16 -2 13 -1 13 -1 10 -1 9 -1 6 -30 -4 1 -6 1 -9 1 -10 1 -12 2 -14 2 -16 2 -16 2 -18 2 -19 2 -19 3 -21 2 -21 3 -21 2 -22 3 -22 2 -21 3 -22 2 -21 3 -21 2 -20 2 -20 3 -18 2 -18 1 -16 2 -15 2 -13 1 -12 1 -10 1 -8 1 -6 0 -3 1 -1 14 -14zm-14 14l1 -14 13 0 -14 14zm185 17l-171 0 0 -31 171 0 16 15 -16 16zm0 -31l16 0 0 15 -16 -15zm-15 599l0 -584 31 0 0 584 0 0 -31 0zm62 31l0 31 0 0 -3 0 -4 0 -3 0 -4 -1 -3 -1 -3 -1 -4 -1 -3 -1 -2 -1 -3 -2 -3 -1 -3 -2 -2 -2 -2 -2 -3 -2 -2 -2 -2 -2 -1 -3 -2 -2 -2 -3 -1 -3 -1 -2 -1 -3 -1 -3 -1 -2 -1 -3 0 -3 -1 -3 0 -3 0 -3 -1 -2 0 -3 31 0 0 1 0 2 0 2 0 1 0 2 1 1 0 2 0 1 1 2 0 1 1 1 1 1 0 2 1 1 1 1 1 1 0 1 1 1 1 0 2 1 1 1 1 1 1 0 2 1 1 1 2 0 2 1 1 0 2 0 3 1 2 0 2 0 0 0zm30 -31l30 0 0 0 0 3 0 2 0 3 0 3 -1 3 0 3 -1 3 -1 2 -1 3 -1 3 -1 2 -2 3 -1 3 -2 2 -1 2 -2 3 -2 2 -2 2 -3 2 -2 2 -2 2 -3 1 -3 2 -3 1 -3 1 -3 1 -3 1 -3 1 -3 1 -4 0 -3 0 -4 0 0 -31 3 0 2 0 2 -1 1 0 2 0 2 -1 1 0 2 -1 1 0 1 -1 1 -1 2 -1 1 0 0 -1 1 -1 1 -1 1 -1 1 -1 1 -1 0 -1 1 -2 0 -1 1 -1 0 -2 1 -1 0 -2 0 -1 1 -2 0 -1 0 -2 0 -2 0 -1 0 0zm30 -628l0 628 -30 0 0 -628 0 0 30 0zm-60 -31l0 -32 0 0 4 0 3 1 4 0 3 1 3 0 3 1 3 1 3 1 3 2 3 1 3 2 2 2 2 1 3 2 2 3 2 2 2 2 1 2 2 3 1 3 2 2 1 3 1 2 1 3 1 3 1 3 0 2 1 3 0 3 0 3 0 3 0 3 -30 0 0 -2 0 -2 0 -1 0 -2 -1 -1 0 -2 0 -2 -1 -1 0 -1 -1 -2 0 -1 -1 -1 -1 -1 0 -1 -1 -1 -1 -1 -1 -1 -1 -1 0 -1 -1 -1 -2 -1 -1 0 -1 -1 -1 -1 -2 0 -1 -1 -2 0 -2 -1 -1 0 -2 0 -2 0 -3 0 0 0zm-255 -32l255 0 0 32 -255 0 0 0 0 -32zm-32 64l-30 -3 0 0 1 -3 0 -3 1 -3 1 -3 0 -3 1 -3 1 -3 1 -2 1 -3 2 -3 1 -2 2 -3 1 -2 2 -3 2 -2 2 -2 2 -2 2 -2 2 -2 3 -2 2 -1 3 -2 2 -1 3 -1 3 -1 3 -1 3 -1 3 -1 3 0 3 0 3 -1 3 0 0 32 -2 0 -2 0 -1 0 -2 0 -2 1 -1 0 -2 1 -1 0 -1 1 -2 0 -1 1 -1 1 -1 0 -1 1 -1 1 -1 1 -1 1 -1 1 0 1 -1 1 -1 2 -1 1 0 2 -1 1 -1 2 0 1 -1 2 0 2 -1 1 0 2 0 2 -1 2 0 0zm-30 -3l0 0 1 0 -1 0zm-30 517l-30 -4 0 0 1 -5 0 -7 1 -9 2 -11 1 -13 2 -15 2 -16 2 -17 2 -18 3 -20 2 -20 2 -21 3 -22 3 -22 2 -22 3 -22 3 -23 2 -22 3 -22 2 -21 3 -21 2 -20 2 -19 2 -18 2 -17 2 -15 2 -14 1 -12 1 -11 1 -8 1 -6 0 -4 30 3 0 4 -1 7 -1 8 -1 10 -1 13 -2 14 -2 15 -2 17 -2 18 -2 19 -2 20 -3 21 -2 21 -3 22 -2 22 -3 22 -3 23 -2 22 -3 22 -3 22 -2 21 -2 20 -3 20 -2 18 -2 17 -2 16 -2 15 -1 13 -2 11 -1 9 -1 7 0 5 0 0zm0 0l0 0 0 2 0 -2zm-13 54l-27 -15 0 0 1 -1 0 -1 0 0 1 -1 0 -1 0 -1 1 0 0 -1 0 -1 1 -1 0 -1 0 -1 1 -2 0 -1 0 -1 0 -1 1 -2 0 -1 0 -2 1 -1 0 -2 0 -1 1 -2 0 -2 0 -1 0 -2 1 -2 0 -2 0 -2 0 -2 1 -2 0 -2 30 4 0 2 -1 2 0 2 0 3 -1 2 0 2 0 2 0 2 -1 1 0 2 0 2 -1 2 0 2 0 2 -1 1 0 2 -1 2 0 1 0 2 -1 1 0 2 -1 2 0 1 -1 2 0 1 -1 2 0 1 -1 1 -1 2 0 1 -1 1 -1 2 1 -1zm-27 -15l0 0 0 0 0 0zm-42 48l0 -32 0 0 3 0 2 0 3 0 2 0 2 0 2 0 2 0 2 -1 1 0 2 0 2 0 1 -1 2 0 1 -1 1 0 1 0 1 -1 1 0 1 -1 1 -1 1 0 1 -1 1 0 0 -1 1 -1 1 0 0 -1 1 -1 1 -1 1 -1 0 -1 1 -2 27 15 -2 2 -1 3 -1 2 -2 2 -1 2 -2 2 -2 2 -1 1 -2 2 -2 1 -2 2 -2 1 -2 2 -2 1 -2 1 -3 1 -2 1 -2 0 -2 1 -3 1 -2 0 -3 1 -2 0 -2 1 -3 0 -2 0 -3 0 -3 1 -2 0 -3 0 -3 0 -3 0 0 0zm-29 32l-31 0 0 0 1 -4 0 -3 0 -4 1 -3 0 -4 1 -3 1 -3 1 -3 2 -3 1 -3 2 -3 1 -3 2 -2 2 -2 2 -3 2 -2 2 -2 3 -2 2 -1 2 -2 3 -1 2 -2 3 -1 3 -1 2 -1 3 -1 3 0 2 -1 3 0 3 0 3 -1 2 0 0 32 -1 0 -2 0 -1 0 -2 0 -1 1 -2 0 -1 0 -1 1 -2 0 -1 1 -1 1 -1 0 -2 1 -1 1 -1 1 -1 0 -1 1 0 1 -1 1 -1 1 -1 2 -1 1 0 1 -1 2 0 1 -1 2 0 2 -1 1 0 2 0 2 0 3 0 2 0 0zm29 30l0 31 0 0 -2 0 -3 0 -2 0 -3 0 -3 -1 -2 0 -3 -1 -3 -1 -2 0 -3 -1 -2 -1 -3 -2 -2 -1 -3 -2 -2 -1 -2 -2 -3 -2 -2 -2 -2 -3 -2 -2 -1 -3 -2 -2 -1 -3 -2 -3 -1 -3 -1 -4 -1 -3 0 -3 -1 -4 0 -4 0 -3 -1 -4 31 0 0 2 0 3 0 2 0 2 1 2 0 1 1 2 0 1 1 2 0 1 1 1 1 1 0 1 1 1 1 1 1 1 1 0 1 1 1 1 1 0 1 1 1 0 1 1 2 0 1 1 2 0 1 0 2 0 1 1 2 0 2 0 1 0 0 0zm126 -69l28 11 0 0 -2 5 -2 5 -2 5 -3 5 -2 5 -3 4 -3 5 -3 4 -3 4 -4 4 -3 4 -4 4 -4 3 -4 3 -5 4 -4 3 -5 2 -5 3 -5 2 -6 3 -5 2 -6 2 -6 1 -6 2 -7 1 -7 1 -6 1 -8 1 -7 1 -7 0 -8 0 -9 0 0 -31 8 0 7 0 7 -1 7 0 6 -1 6 -1 6 -1 5 -1 5 -1 5 -2 5 -1 5 -2 4 -2 4 -1 4 -2 3 -3 4 -2 3 -2 3 -3 3 -2 3 -3 2 -3 3 -2 2 -4 2 -3 3 -3 2 -4 2 -3 2 -4 2 -4 1 -4 2 -5 0 1zm28 11l0 0 0 0 0 0zm-15 -72l30 4 0 0 0 3 -1 2 0 3 0 2 -1 2 0 3 0 2 -1 2 0 2 0 3 -1 2 0 2 -1 2 0 2 0 2 -1 2 0 2 -1 2 0 2 -1 2 0 2 -1 2 0 2 -1 2 0 2 -1 2 0 2 -1 2 -1 2 0 2 -1 2 -1 2 -28 -11 1 -2 0 -2 1 -1 0 -2 1 -2 0 -1 1 -2 0 -2 1 -1 0 -2 1 -2 0 -1 1 -2 0 -2 0 -2 1 -1 0 -2 1 -2 0 -2 0 -2 1 -2 0 -2 0 -2 1 -2 0 -2 0 -2 0 -2 1 -2 0 -3 0 -2 1 -2 0 -3 0 0zm0 0l0 0 0 1 0 -1zm913 85l31 0 0 0 0 3 -1 4 0 3 -1 4 0 3 -1 3 -1 3 -1 3 -1 3 -2 3 -1 3 -2 2 -2 3 -1 2 -2 2 -2 2 -3 2 -2 2 -2 2 -3 1 -2 1 -2 2 -3 1 -3 1 -2 1 -3 0 -2 1 -3 0 -3 1 -2 0 -3 0 -2 0 0 -31 1 0 2 -1 1 0 2 0 1 0 1 0 2 -1 1 0 1 -1 1 0 2 -1 1 0 1 -1 1 -1 1 0 0 -1 1 -1 1 -1 1 -1 1 -1 0 -1 1 -1 0 -1 1 -1 1 -2 0 -1 0 -2 1 -2 0 -2 0 -2 0 -2 0 -2 0 0zm-27 -30l0 -32 0 0 2 0 3 0 3 1 2 0 3 1 3 0 2 1 3 1 2 1 3 1 2 1 3 2 2 1 2 2 3 2 2 2 2 2 2 2 2 2 1 3 2 2 1 3 2 3 1 3 1 3 1 3 1 3 0 3 1 3 0 4 1 3 0 4 -31 0 0 -2 0 -2 0 -2 0 -2 -1 -2 0 -1 0 -2 -1 -1 -1 -2 0 -1 -1 -1 -1 -1 0 -1 -1 -1 -1 -1 -1 -1 -1 -1 -1 -1 -1 0 -1 -1 -1 -1 -1 0 -1 -1 -1 0 -2 -1 -1 0 -1 -1 -2 0 -1 0 -2 0 -1 0 -1 0 0 0zm-268 -32l268 0 0 32 -268 0 -15 -16 15 -16zm0 32l-15 0 0 -16 15 16zm15 -245l0 229 -30 0 0 -229 15 -15 15 15zm-30 0l0 -15 15 0 -15 15zm236 16l-221 0 0 -31 221 0 0 0 0 31zm28 -62l30 0 0 0 0 4 -1 4 0 3 0 4 -1 3 -1 3 -1 3 -1 3 -1 3 -2 3 -1 3 -2 2 -1 3 -2 2 -2 2 -2 2 -3 2 -2 2 -2 2 -2 1 -3 1 -2 2 -3 1 -2 1 -3 0 -3 1 -2 1 -3 0 -2 1 -3 0 -3 0 -2 0 0 -31 1 -1 2 0 1 0 2 0 1 0 2 -1 1 0 1 0 1 -1 2 0 1 -1 1 0 1 -1 1 -1 1 0 1 -1 0 -1 1 -1 1 -1 1 -1 0 -1 1 -1 1 -1 0 -2 1 -1 0 -2 1 -1 0 -2 0 -2 0 -2 1 -2 0 -3 0 0zm-28 -30l0 -31 0 0 2 0 3 0 3 1 2 0 3 1 3 0 2 1 3 1 3 1 2 1 2 1 3 2 2 1 2 2 3 2 2 2 2 2 2 2 2 2 1 3 2 2 1 3 2 3 1 2 1 3 1 3 1 4 1 3 0 3 0 4 1 3 0 3 -30 0 0 -2 -1 -2 0 -2 0 -1 0 -2 -1 -2 0 -1 -1 -2 0 -1 -1 -1 -1 -1 0 -1 -1 -1 -1 -1 -1 -1 -1 -1 -1 -1 -1 -1 -1 -1 -1 0 -1 -1 -1 -1 -1 0 -1 -1 -2 0 -1 0 -1 -1 -2 0 -1 0 -1 0 -2 0 -1 -1 0 0zm-221 -31l221 0 0 31 -221 0 -15 -15 15 -16zm0 31l-15 0 0 -15 15 15zm15 -224l0 209 -30 0 0 -209 15 -15 15 15zm-30 0l0 -15 15 0 -15 15zm283 16l-268 0 0 -31 268 0 0 0 0 31zm27 -61l31 0 0 0 0 3 -1 4 0 3 -1 4 0 3 -1 3 -1 3 -1 3 -1 3 -2 3 -1 3 -2 2 -2 3 -1 2 -2 2 -2 2 -3 2 -2 2 -2 2 -3 1 -2 2 -2 1 -3 1 -3 1 -2 1 -3 0 -2 1 -3 0 -3 1 -2 0 -3 0 -2 0 0 -31 1 0 2 0 1 -1 2 0 1 0 1 0 2 -1 1 0 1 -1 1 0 2 -1 1 0 1 -1 1 0 1 -1 0 -1 1 -1 1 -1 1 -1 1 -1 0 -1 1 -1 0 -1 1 -1 1 -2 0 -1 0 -2 1 -2 0 -2 0 -2 0 -2 0 -2 0 0zm-27 -30l0 -32 0 0 2 0 3 0 3 1 2 0 3 1 3 0 2 1 3 1 2 1 3 1 2 1 3 2 2 1 2 2 3 2 2 2 2 2 2 2 2 2 1 3 2 2 1 3 2 3 1 3 1 3 1 3 1 3 0 3 1 3 0 4 1 3 0 4 -31 0 0 -2 0 -2 0 -2 0 -2 -1 -2 0 -1 0 -2 -1 -1 -1 -2 0 -1 -1 -1 -1 -1 0 -1 -1 -1 -1 -1 -1 -1 -1 -1 -1 -1 -1 0 -1 -1 -1 -1 -1 0 -1 -1 -1 0 -2 -1 -1 0 -1 -1 -2 0 -1 0 -2 0 -1 0 -1 0 0 0zm-315 -32l315 0 0 32 -315 0 0 0 0 -32zm-30 63l-30 0 0 0 0 -3 0 -3 0 -3 1 -3 0 -3 1 -2 1 -3 0 -3 1 -3 1 -2 2 -3 1 -3 1 -2 2 -3 2 -2 1 -2 2 -2 3 -3 2 -2 2 -1 3 -2 2 -2 3 -1 3 -2 3 -1 3 -1 3 -1 3 0 4 -1 3 0 3 -1 4 0 0 32 -2 0 -2 0 -2 0 -2 0 -2 1 -1 0 -2 1 -1 0 -2 1 -1 1 -1 0 -1 1 -1 1 -1 1 -1 1 -1 1 -1 1 0 1 -1 1 -1 1 0 1 -1 1 -1 2 0 1 0 2 -1 1 0 2 0 1 -1 2 0 1 0 2 0 2 0 0zm-30 618l0 -618 30 0 0 618 0 0 -30 0zm60 31l0 31 0 0 -4 0 -3 0 -3 -1 -4 0 -3 -1 -3 -1 -3 -1 -3 -1 -3 -1 -3 -2 -2 -1 -3 -2 -2 -2 -2 -2 -3 -2 -2 -2 -1 -3 -2 -2 -2 -3 -1 -2 -1 -3 -2 -2 -1 -3 -1 -3 0 -3 -1 -2 -1 -3 0 -3 -1 -3 0 -3 0 -3 0 -2 30 0 0 1 0 2 0 2 1 1 0 2 0 1 1 2 0 1 0 2 1 1 1 1 0 1 1 2 1 1 0 1 1 1 1 1 1 1 1 0 1 1 1 1 1 1 1 0 2 1 1 1 2 0 1 0 2 1 2 0 2 0 2 1 2 0 0 0zm315 31l-315 0 0 -31 315 0 0 0 0 31zm399 -52l30 0 0 0 0 3 0 2 0 3 -1 3 0 3 -1 3 0 3 -1 2 -1 3 -1 3 -2 2 -1 3 -1 3 -2 2 -2 2 -2 3 -2 2 -2 2 -2 2 -3 2 -2 2 -3 1 -3 2 -2 1 -3 1 -3 1 -4 1 -3 1 -3 1 -4 0 -3 0 -4 0 0 -31 2 0 3 0 2 -1 2 0 1 0 2 -1 2 0 1 -1 2 -1 1 0 1 -1 1 -1 1 -1 1 0 1 -1 1 -1 1 -1 1 -1 0 -1 1 -2 1 -1 0 -1 1 -1 0 -2 1 -1 0 -2 0 -1 0 -2 1 -1 0 -2 0 -2 0 -1 0 0zm30 -584l0 584 -30 0 0 -584 15 -15 15 15zm-30 0l0 -15 15 0 -15 15zm158 16l-143 0 0 -31 143 0 0 0 0 31zm28 -61l30 0 0 0 0 3 -1 4 0 3 0 4 -1 3 -1 3 -1 3 -1 3 -1 3 -2 3 -1 3 -2 3 -1 2 -2 2 -2 2 -2 2 -3 2 -2 2 -2 2 -2 1 -3 2 -2 1 -3 1 -2 1 -3 1 -3 0 -2 1 -3 0 -2 1 -3 0 -3 0 -2 0 0 -31 1 0 2 0 1 -1 2 0 1 0 2 0 1 -1 1 0 1 -1 2 0 1 -1 1 0 1 -1 1 -1 1 0 1 -1 0 -1 1 -1 1 -1 1 -1 0 -1 1 -1 1 -1 0 -1 1 -2 0 -1 1 -2 0 -2 0 -2 0 -2 1 -2 0 -2 0 0zm-28 -30l0 -32 0 0 2 0 3 0 3 1 2 0 3 1 3 0 2 1 3 1 3 1 2 1 2 1 3 2 2 1 2 2 3 2 2 2 2 2 2 2 2 2 1 3 2 2 1 3 2 3 1 3 1 3 1 3 1 3 1 3 0 3 0 4 1 3 0 4 -30 0 0 -2 -1 -2 0 -2 0 -2 0 -2 -1 -1 0 -2 -1 -1 0 -2 -1 -1 -1 -1 0 -1 -1 -1 -1 -1 -1 -1 -1 -1 -1 -1 -1 -1 -1 0 -1 -1 -1 -1 -1 0 -1 -1 -1 0 -2 -1 -1 0 -1 -1 -2 0 -1 0 -1 0 -2 0 -1 0 0 0zm-377 -32l377 0 0 32 -377 0 0 0 0 -32zm-28 62l-31 0 0 0 1 -4 0 -3 0 -4 1 -3 0 -3 1 -3 1 -3 1 -3 1 -3 2 -3 1 -3 2 -2 2 -3 1 -2 2 -2 2 -2 3 -2 2 -2 2 -2 2 -1 3 -2 2 -1 3 -1 2 -1 3 -1 2 -1 3 0 3 -1 2 0 3 -1 3 0 3 0 0 32 -2 0 -1 0 -2 0 -1 0 -2 0 -1 1 -1 0 -2 1 -1 0 -1 1 -1 0 -1 1 -1 1 -1 0 -1 1 -1 1 -1 1 -1 1 -1 1 0 1 -1 1 -1 1 0 1 -1 2 0 1 -1 2 0 1 -1 2 0 2 0 2 0 2 0 2 0 0zm28 30l0 31 0 0 -3 0 -3 0 -2 0 -3 -1 -3 0 -2 -1 -3 0 -2 -1 -3 -1 -2 -1 -3 -1 -2 -2 -3 -1 -2 -2 -2 -2 -2 -2 -2 -2 -2 -2 -2 -2 -2 -3 -2 -2 -1 -3 -2 -3 -1 -3 -1 -3 -1 -3 -1 -3 0 -3 -1 -4 0 -3 0 -4 -1 -3 31 0 0 2 0 2 0 2 0 2 1 2 0 2 1 1 0 2 1 1 0 1 1 1 1 1 0 1 1 1 1 1 1 1 1 1 0 0 1 1 2 1 1 0 1 1 1 0 1 1 1 0 2 1 1 0 2 0 1 0 1 1 2 0 2 0 0 0zm142 31l-142 0 0 -31 142 0 15 15 -15 16zm0 -31l15 0 0 15 -15 -15zm-15 599l0 -584 30 0 0 584 0 0 -30 0zm61 31l0 31 0 0 -4 0 -3 0 -3 0 -4 -1 -3 -1 -3 -1 -3 -1 -3 -1 -3 -1 -3 -2 -3 -1 -2 -2 -3 -2 -2 -2 -2 -2 -2 -2 -2 -3 -2 -2 -1 -2 -2 -3 -1 -3 -1 -2 -2 -3 0 -3 -1 -2 -1 -3 -1 -3 0 -3 0 -3 -1 -3 0 -2 0 -3 30 0 0 1 0 2 1 2 0 1 0 2 0 1 1 2 0 1 1 2 0 1 1 1 0 1 1 2 1 1 0 1 1 1 1 1 1 1 1 0 1 1 1 1 1 1 2 0 1 1 2 1 1 0 2 1 2 0 2 0 2 1 2 0 2 0 0 0zm747 -40l30 0 0 0 0 3 0 4 0 3 -1 4 0 3 -1 3 -1 3 -1 3 -1 3 -2 3 -1 3 -2 2 -2 3 -2 2 -2 2 -2 2 -2 2 -2 2 -2 2 -3 1 -2 1 -3 2 -2 1 -3 1 -2 1 -3 0 -2 1 -3 0 -3 1 -2 0 -3 0 -3 0 0 -31 2 0 1 -1 2 0 1 0 2 0 1 0 2 -1 1 0 1 -1 1 0 1 -1 1 0 1 -1 1 -1 1 0 1 -1 1 -1 1 -1 1 -1 0 -1 1 -1 1 -1 0 -1 1 -1 0 -2 1 -1 0 -2 1 -2 0 -2 0 -2 0 -2 0 -2 0 0zm-28 -30l0 -32 0 0 3 0 3 0 2 1 3 0 3 1 3 0 2 1 3 1 2 1 3 1 2 1 3 2 2 1 2 2 2 2 3 2 2 2 2 2 1 2 2 3 2 2 1 3 2 3 1 3 1 3 1 3 1 3 0 3 1 3 0 4 0 3 0 4 -30 0 0 -2 0 -2 0 -2 0 -2 -1 -2 0 -1 -1 -2 0 -1 -1 -2 0 -1 -1 -1 -1 -1 0 -1 -1 -1 -1 -1 -1 -1 -1 -1 -1 -1 -1 0 -1 -1 -1 -1 -1 0 -1 -1 -2 0 -1 -1 -1 0 -1 -1 -2 0 -1 0 -2 0 -1 0 -2 0 0 0zm-267 -32l267 0 0 32 -267 0 -15 -16 15 -16zm0 32l-15 0 0 -16 15 16zm15 -245l0 229 -30 0 0 -229 15 -15 15 15zm-30 0l0 -15 15 0 -15 15zm235 16l-220 0 0 -31 220 0 0 0 0 31zm28 -62l31 0 0 0 -1 4 0 4 0 3 -1 4 0 3 -1 3 -1 3 -1 3 -1 3 -2 3 -1 3 -2 2 -2 3 -1 2 -2 2 -3 2 -2 2 -2 2 -2 2 -3 1 -2 1 -3 2 -2 1 -3 1 -2 0 -3 1 -2 1 -3 0 -3 1 -2 0 -3 0 -3 0 0 -31 2 -1 2 0 1 0 2 0 1 0 1 -1 2 0 1 0 1 -1 1 0 1 -1 2 0 1 -1 1 -1 1 0 0 -1 1 -1 1 -1 1 -1 0 -1 1 -1 1 -1 0 -1 1 -2 0 -1 1 -2 0 -1 1 -2 0 -2 0 -2 0 -2 0 -3 0 0zm-28 -30l0 -31 0 0 3 0 3 0 3 1 2 0 3 1 3 0 2 1 3 1 2 1 3 1 2 1 3 2 2 1 2 2 3 2 2 2 2 2 2 2 1 2 2 3 2 2 1 3 2 3 1 2 1 3 1 3 1 4 0 3 1 3 0 4 0 3 1 3 -31 0 0 -2 0 -2 0 -2 0 -1 -1 -2 0 -2 -1 -1 0 -2 -1 -1 0 -1 -1 -1 -1 -1 0 -1 -1 -1 -1 -1 -1 -1 -1 -1 -1 -1 -1 -1 -1 0 -1 -1 -1 -1 -1 0 -1 -1 -2 0 -1 0 -1 -1 -2 0 -1 0 -2 0 -1 0 -2 -1 0 0zm-220 -31l220 0 0 31 -220 0 -15 -15 15 -16zm0 31l-15 0 0 -15 15 15zm15 -224l0 209 -30 0 0 -209 15 -15 15 15zm-30 0l0 -15 15 0 -15 15zm282 16l-267 0 0 -31 267 0 0 0 0 31zm28 -61l30 0 0 0 0 3 0 4 0 3 -1 4 0 3 -1 3 -1 3 -1 3 -1 3 -2 3 -1 3 -2 2 -2 3 -2 2 -2 2 -2 2 -2 2 -2 2 -2 2 -3 1 -2 2 -3 1 -2 1 -3 1 -2 1 -3 0 -2 1 -3 0 -3 1 -2 0 -3 0 -3 0 0 -31 2 0 1 0 2 -1 1 0 2 0 1 0 2 -1 1 0 1 -1 1 0 1 -1 1 0 1 -1 1 -1 1 0 1 -1 1 -1 1 -1 1 -1 0 -1 1 -1 1 -1 0 -1 1 -1 0 -2 1 -1 0 -2 1 -2 0 -2 0 -2 0 -2 0 -2 0 0zm-28 -30l0 -32 0 0 3 0 3 0 2 1 3 0 3 1 3 0 2 1 3 1 2 1 3 1 2 1 3 2 2 1 2 2 2 2 3 2 2 2 2 2 1 2 2 3 2 2 1 3 2 3 1 3 1 3 1 3 1 3 0 3 1 3 0 4 0 3 0 4 -30 0 0 -2 0 -2 0 -2 0 -2 -1 -2 0 -1 -1 -2 0 -1 -1 -2 0 -1 -1 -1 -1 -1 0 -1 -1 -1 -1 -1 -1 -1 -1 -1 -1 -1 -1 0 -1 -1 -1 -1 -1 0 -1 -1 -2 0 -1 -1 -1 0 -1 -1 -2 0 -1 0 -2 0 -1 0 -2 0 0 0zm-314 -32l314 0 0 32 -314 0 0 0 0 -32zm-30 63l-30 0 0 0 0 -3 0 -3 0 -3 1 -3 0 -3 1 -2 0 -3 1 -3 1 -3 1 -2 1 -3 2 -2 1 -3 2 -3 1 -2 2 -2 2 -2 2 -3 3 -2 2 -1 3 -2 2 -2 3 -1 3 -2 3 -1 3 -1 3 -1 3 0 3 -1 4 0 3 -1 4 0 0 32 -2 0 -2 0 -2 0 -2 0 -2 1 -2 0 -1 1 -2 0 -1 1 -1 1 -1 0 -1 1 -1 1 -1 1 -1 1 -1 1 -1 1 -1 1 0 1 -1 1 -1 1 0 1 -1 2 0 1 -1 2 0 1 0 2 -1 1 0 2 0 1 0 2 0 2 0 0zm-30 618l0 -618 30 0 0 618 0 0 -30 0zm60 31l0 31 0 0 -4 0 -3 0 -4 -1 -3 0 -3 -1 -3 -1 -3 -1 -3 -1 -3 -1 -3 -2 -2 -1 -3 -2 -2 -2 -3 -2 -2 -2 -2 -2 -2 -3 -1 -2 -2 -3 -1 -2 -2 -3 -1 -2 -1 -3 -1 -3 -1 -3 0 -2 -1 -3 0 -3 -1 -3 0 -3 0 -3 0 -2 30 0 0 1 0 2 0 2 0 1 1 2 0 1 0 2 1 1 0 2 1 1 0 1 1 1 1 2 0 1 1 1 1 1 1 1 1 1 1 0 1 1 1 1 1 1 1 0 1 1 2 1 1 0 2 0 2 1 2 0 2 0 2 1 2 0 0 0zm314 31l-314 0 0 -31 314 0 0 0 0 31zm590 -721l0 -32 0 0 3 0 4 0 3 1 3 0 4 1 3 1 3 1 3 1 3 1 2 2 3 2 3 1 2 2 2 2 2 2 3 2 1 3 2 2 2 3 1 2 2 3 1 2 1 3 1 3 1 3 1 2 0 3 1 3 0 3 1 3 0 3 0 3 -30 0 0 -2 -1 -2 0 -1 0 -2 0 -1 -1 -2 0 -1 0 -2 -1 -1 0 -2 -1 -1 -1 -1 0 -1 -1 -1 -1 -1 -1 -1 -1 -1 -1 -1 -1 -1 -1 -1 -1 -1 -1 0 -1 -1 -2 -1 -1 0 -2 -1 -1 0 -2 -1 -2 0 -2 0 -2 0 -2 0 0 0zm-31 31l-30 0 0 0 0 -3 0 -3 0 -3 1 -3 0 -3 1 -3 0 -2 1 -3 1 -3 1 -3 1 -2 2 -3 1 -2 2 -3 2 -2 1 -2 2 -3 3 -2 2 -2 2 -2 3 -1 3 -2 2 -2 3 -1 3 -1 3 -1 4 -1 3 -1 3 0 4 -1 3 0 4 0 0 32 -3 0 -2 0 -2 0 -2 0 -2 1 -1 0 -2 1 -1 0 -2 1 -1 1 -1 0 -1 1 -1 1 -1 1 -1 1 -1 1 -1 1 -1 1 0 1 -1 1 -1 1 0 1 -1 2 0 1 -1 1 0 2 0 1 -1 2 0 2 0 1 0 2 0 2 0 0zm-30 253l0 -253 30 0 0 253 -15 15 -15 -15zm30 0l0 15 -15 0 15 -15zm-272 -16l257 0 0 31 -257 0 -15 -15 15 -16zm0 31l-15 0 0 -15 15 15zm15 -268l0 253 -30 0 0 -253 0 0 30 0zm-61 -31l0 -32 0 0 4 0 3 0 4 1 3 0 3 1 4 1 3 1 3 1 3 1 3 2 2 2 3 1 2 2 3 2 2 2 2 3 2 2 1 2 2 3 1 2 2 3 1 3 1 2 1 3 1 3 0 3 1 2 0 3 1 3 0 3 0 3 0 3 -30 0 0 -2 0 -2 0 -2 -1 -1 0 -2 0 -1 -1 -2 0 -1 0 -2 -1 -1 -1 -1 0 -1 -1 -2 0 -1 -1 -1 -1 -1 -1 0 -1 -1 -1 -1 -1 -1 -1 -1 -1 0 -1 -1 -2 -1 -1 0 -2 -1 -1 0 -2 -1 -2 0 -2 0 -3 0 -2 0 0 0zm-31 31l-30 0 0 0 0 -3 0 -3 0 -3 1 -3 0 -3 1 -3 1 -2 1 -3 1 -3 1 -3 1 -2 1 -3 2 -2 1 -3 2 -2 2 -3 2 -2 2 -2 3 -2 2 -2 3 -1 2 -2 3 -2 3 -1 3 -1 3 -1 3 -1 3 -1 4 0 3 -1 3 0 4 0 0 32 -2 0 -2 0 -2 0 -2 0 -2 1 -2 0 -1 1 -2 0 -1 1 -1 1 -2 0 -1 1 -1 1 -1 1 -1 1 -1 1 0 1 -1 1 -1 1 -1 1 0 1 -1 2 0 1 -1 1 0 2 -1 1 0 2 0 1 -1 2 0 1 0 2 0 2 0 0zm-30 638l0 -638 30 0 0 638 0 0 -30 0zm61 31l0 31 0 0 -4 0 -3 0 -3 0 -4 -1 -3 -1 -3 -1 -3 -1 -3 -1 -3 -1 -3 -2 -2 -1 -3 -2 -2 -2 -3 -2 -2 -2 -2 -2 -2 -2 -2 -3 -1 -2 -2 -3 -1 -2 -1 -3 -1 -3 -1 -2 -1 -3 -1 -3 -1 -3 0 -3 -1 -3 0 -2 0 -3 0 -3 30 0 0 1 0 2 0 2 1 1 0 2 0 1 1 2 0 1 1 2 0 1 1 1 0 1 1 1 1 2 1 1 0 1 1 1 1 1 1 0 1 1 1 1 2 1 1 0 1 1 2 1 1 0 2 1 2 0 2 0 2 1 2 0 2 0 0 0zm31 -31l30 0 0 0 0 3 0 2 0 3 -1 3 0 3 -1 3 -1 3 0 2 -1 3 -1 3 -2 2 -1 3 -2 3 -1 2 -2 2 -2 3 -2 2 -2 2 -2 2 -3 2 -2 2 -3 1 -3 2 -3 1 -3 1 -3 1 -3 1 -3 1 -3 1 -4 0 -3 0 -4 0 0 -31 2 0 2 0 3 -1 1 0 2 0 2 -1 2 0 1 -1 1 -1 2 0 1 -1 1 -1 1 -1 1 0 1 -1 1 -1 1 -1 0 -1 1 -1 1 -2 0 -1 1 -1 0 -1 1 -2 0 -1 1 -2 0 -1 0 -2 1 -1 0 -2 0 -2 0 -1 0 0zm30 -294l0 294 -30 0 0 -294 15 -16 15 16zm-30 0l0 -16 15 0 -15 16zm272 16l-257 0 0 -32 257 0 15 16 -15 16zm0 -32l15 0 0 16 -15 -16zm-15 310l0 -294 30 0 0 294 0 0 -30 0zm61 31l0 31 0 0 -4 0 -4 0 -3 0 -3 -1 -4 -1 -3 -1 -3 -1 -3 -1 -3 -1 -3 -2 -3 -1 -2 -2 -3 -2 -2 -2 -2 -2 -2 -2 -2 -3 -2 -2 -1 -3 -2 -2 -1 -3 -1 -2 -1 -3 -1 -3 -1 -3 -1 -2 0 -3 -1 -3 0 -3 0 -3 0 -2 0 -3 30 0 0 1 0 2 0 2 0 1 1 2 0 2 0 1 1 1 0 2 1 1 0 1 1 2 0 1 1 1 1 1 1 1 0 1 1 1 1 1 1 0 1 1 2 1 1 0 1 1 2 1 1 0 2 1 2 0 2 0 2 1 2 0 3 0 0 0zm31 -31l30 0 0 0 0 3 0 3 -1 2 0 3 -1 3 0 3 -1 3 -1 3 -1 2 -1 3 -1 3 -2 2 -1 3 -2 2 -2 3 -1 2 -3 2 -2 2 -2 2 -2 2 -3 2 -3 1 -2 2 -3 1 -3 1 -3 1 -3 1 -4 1 -3 1 -3 0 -4 0 -3 0 0 -31 2 0 2 0 2 -1 2 0 2 0 1 -1 2 0 1 -1 2 -1 1 0 1 -1 1 -1 1 -1 1 0 1 -1 1 -1 1 -1 1 -1 1 -2 0 -1 1 -1 1 -1 0 -1 1 -2 0 -1 0 -2 1 -1 0 -2 0 -1 0 -2 1 -2 0 -1 0 0zm30 -638l0 638 -30 0 0 -638 0 0 30 0zm267 223l155 0 0 31 -155 0 -15 -16 15 -15zm0 31l-15 0 0 -16 15 16zm15 -254l0 238 -30 0 0 -238 0 0 30 0zm-61 -31l0 -32 0 0 4 0 3 0 4 1 3 0 4 1 3 1 3 1 3 1 3 1 2 2 3 2 3 1 2 2 2 2 3 2 2 3 1 2 2 2 2 3 1 2 2 3 1 2 1 3 1 3 1 3 0 2 1 3 0 3 1 3 0 3 0 3 0 3 -30 0 0 -2 0 -2 0 -1 0 -2 -1 -2 0 -1 0 -2 -1 -1 0 -1 -1 -2 0 -1 -1 -1 -1 -1 0 -1 -1 -1 -1 -1 -1 -1 -1 -1 -1 -1 -1 -1 -1 -1 -1 0 -1 -1 -2 -1 -1 0 -2 -1 -1 0 -2 -1 -2 0 -2 0 -2 0 -3 0 0 0zm-30 31l-31 0 0 0 0 -3 1 -3 0 -3 0 -3 1 -3 0 -3 1 -2 1 -3 1 -3 1 -2 1 -3 1 -3 2 -2 1 -3 2 -2 2 -2 2 -3 2 -2 3 -2 2 -2 2 -1 3 -2 3 -2 3 -1 3 -1 3 -1 3 -1 3 -1 4 0 3 -1 4 0 3 0 0 32 -2 0 -2 0 -2 0 -2 0 -2 1 -2 0 -1 1 -2 0 -1 1 -1 1 -2 0 -1 1 -1 1 -1 1 -1 1 0 1 -1 1 -1 1 -1 1 0 1 -1 1 -1 1 0 2 -1 1 0 1 0 2 -1 1 0 2 0 2 0 1 0 2 0 2 0 0zm-31 628l0 -628 31 0 0 628 0 0 -31 0zm62 31l0 31 0 0 -3 0 -4 0 -3 -1 -4 0 -3 -1 -3 -1 -4 -1 -3 -1 -3 -1 -2 -2 -3 -1 -3 -2 -2 -2 -2 -2 -3 -2 -2 -2 -2 -3 -1 -2 -2 -3 -2 -2 -1 -3 -1 -2 -1 -3 -1 -3 -1 -3 -1 -2 0 -3 -1 -3 0 -3 0 -3 -1 -3 0 -2 31 0 0 1 0 2 0 2 0 1 0 2 1 1 0 2 0 1 1 2 0 1 1 1 1 1 0 1 1 1 1 1 1 2 0 0 1 1 1 1 1 1 2 1 1 1 1 0 2 1 1 0 2 1 1 0 2 1 2 0 3 0 2 1 2 0 0 0zm200 31l-200 0 0 -31 200 0 0 0 0 31zm172 -213l30 0 0 0 0 11 -1 11 0 11 -2 10 -2 10 -2 11 -2 10 -3 9 -3 10 -4 9 -4 9 -5 9 -5 8 -5 8 -6 8 -6 7 -7 7 -7 7 -7 6 -8 6 -8 6 -9 5 -9 5 -9 4 -10 4 -10 3 -11 3 -11 2 -11 2 -11 1 -12 1 -12 0 0 -31 11 -1 10 0 10 -1 10 -2 10 -2 9 -2 8 -3 8 -3 8 -4 8 -4 7 -4 7 -5 6 -4 6 -6 6 -5 6 -6 5 -6 4 -6 5 -7 4 -7 4 -7 3 -8 3 -8 3 -8 3 -8 2 -9 2 -9 1 -9 2 -9 0 -9 1 -10 0 -10 0 0zm30 -46l0 46 -30 0 0 -46 0 0 30 0zm-202 -177l0 -31 0 0 12 0 12 1 12 1 11 1 11 3 11 2 10 3 10 4 9 4 9 4 9 5 8 5 8 6 7 6 7 7 7 6 6 8 6 7 5 8 5 8 4 9 4 9 4 9 3 9 3 10 3 10 2 10 1 10 2 11 1 10 0 11 0 11 -30 0 0 -10 -1 -9 0 -10 -2 -9 -1 -9 -2 -9 -2 -9 -2 -8 -3 -8 -3 -7 -4 -8 -3 -7 -4 -7 -5 -6 -4 -6 -5 -6 -6 -6 -5 -5 -6 -5 -7 -4 -6 -5 -8 -4 -7 -3 -8 -4 -8 -3 -9 -2 -9 -3 -10 -1 -10 -2 -10 -1 -11 -1 -11 0 0 0zm2 345l0 -32 0 0 5 0 6 0 5 -1 5 0 4 -1 5 -1 4 -1 4 -1 3 -2 4 -1 3 -2 3 -2 3 -2 2 -2 3 -2 2 -2 2 -2 2 -3 2 -3 1 -2 2 -3 1 -4 2 -3 1 -4 1 -3 1 -4 0 -5 1 -4 1 -5 0 -4 0 -5 0 -6 30 0 0 6 0 6 0 6 -1 6 -1 6 -1 5 -1 5 -1 6 -2 5 -2 5 -2 4 -2 5 -3 5 -3 4 -3 4 -3 4 -4 4 -4 3 -4 3 -4 3 -5 3 -5 2 -4 2 -6 2 -5 2 -5 2 -6 1 -6 1 -6 1 -6 0 -7 0 -6 1 0 0zm-157 -32l157 0 0 32 -157 0 -15 -16 15 -16zm0 32l-15 0 0 -16 15 16zm15 -269l0 253 -30 0 0 -253 15 -16 15 16zm-30 0l0 -16 15 0 -15 16zm170 16l-155 0 0 -32 155 0 0 0 0 32zm110 80l-30 0 0 0 0 -5 0 -5 0 -5 -1 -4 -1 -5 0 -4 -1 -4 -2 -4 -1 -3 -1 -4 -2 -3 -1 -3 -2 -3 -2 -3 -2 -2 -2 -3 -2 -2 -3 -2 -3 -2 -2 -2 -3 -2 -4 -2 -3 -1 -4 -2 -4 -1 -4 -1 -4 -1 -5 -1 -5 -1 -5 0 -6 0 -5 0 0 -32 6 0 7 1 6 0 6 1 6 1 6 1 5 2 6 1 5 2 5 3 5 2 4 3 5 3 4 3 4 4 4 3 3 4 3 4 3 5 3 4 2 5 3 5 1 5 2 5 2 5 1 5 1 6 1 6 1 5 0 6 0 6 0 6 0 0zm-30 61l0 -61 30 0 0 61 0 0 -30 0z"/>
   </g>
   <g>
    <path class="fil8" d="M7213 8808c-48,0 -88,-41 -88,-93 0,-51 40,-93 88,-93l0 186zm5405 0l-5405 0 0 -186 5405 0 0 186zm0 -186c49,0 88,42 88,93 0,52 -39,93 -88,93l0 -186z"/>
   </g>
   <path class="fil5 str2" d="M13571 6772l0 10966c-2738,0 -4573,0 -7311,0l0 -10966 7311 0z"/>
   <path class="fil5 str3" d="M12096 11395l722 0 0 -692 -722 0 0 692z"/>
   <path class="fil5 str3" d="M12096 15212l722 0 0 -692 -722 0 0 692z"/>
   <path class="fil5 str3" d="M12096 10243l722 0 0 -692 -722 0 0 692z"/>
   <path class="fil5 str3" d="M12098 13868l723 0 0 -692 -723 0 0 692z"/>
   <path class="fil5 str3" d="M12098 12626l723 0 0 -692 -723 0 0 692z"/>
   <path class="fil9 str4" d="M7053 9720c-19,0 -35,-7 -48,-20 -13,-13 -20,-29 -20,-49 0,-18 7,-34 20,-47 13,-14 29,-20 48,-20 18,0 34,6 48,20 13,13 20,29 20,47 0,20 -7,36 -20,49 -14,13 -30,20 -48,20zm0 421c-19,0 -35,-7 -48,-20 -13,-13 -20,-29 -20,-48 0,-19 7,-34 20,-48 13,-13 29,-20 48,-20 18,0 34,7 48,20 13,14 20,29 20,48 0,19 -7,35 -20,48 -14,13 -30,20 -48,20zm504 -421c-18,0 -34,-7 -47,-20 -13,-13 -20,-29 -20,-49 0,-18 7,-34 20,-47 13,-14 29,-20 47,-20 19,0 35,6 48,20 14,13 20,29 20,47 0,20 -6,36 -20,49 -13,13 -29,20 -48,20zm505 0c-19,0 -34,-7 -48,-20 -13,-13 -19,-29 -19,-49 0,-18 6,-34 19,-47 14,-14 29,-20 48,-20 18,0 34,6 48,20 13,13 20,29 20,47 0,20 -7,36 -20,49 -14,13 -30,20 -48,20zm211 1c-19,0 -35,-7 -48,-20 -14,-13 -20,-29 -20,-48 0,-18 6,-35 20,-48 13,-14 29,-20 48,-20 18,0 34,6 47,20 14,13 20,30 20,48 0,19 -6,35 -20,48 -13,13 -29,20 -47,20zm0 210c-19,0 -35,-7 -48,-20 -14,-13 -20,-29 -20,-48 0,-18 6,-34 20,-48 13,-13 29,-20 48,-20 18,0 34,7 47,20 14,14 20,30 20,48 0,19 -6,35 -20,48 -13,13 -29,20 -47,20zm-211 210c-19,0 -34,-7 -48,-20 -13,-13 -19,-29 -19,-48 0,-19 6,-34 19,-48 14,-13 29,-20 48,-20 18,0 34,7 48,20 13,14 20,29 20,48 0,19 -7,35 -20,48 -14,13 -30,20 -48,20zm504 -421c-18,0 -34,-7 -47,-20 -13,-13 -20,-29 -20,-49 0,-18 7,-34 20,-47 13,-14 29,-20 47,-20 19,0 35,6 48,20 14,13 21,29 21,47 0,20 -7,36 -21,49 -13,13 -29,20 -48,20zm211 1c-19,0 -35,-7 -48,-20 -13,-13 -20,-29 -20,-48 0,-18 7,-35 20,-48 13,-14 29,-20 48,-20 19,0 35,6 48,20 13,13 20,30 20,48 0,19 -7,35 -20,48 -13,13 -29,20 -48,20zm0 210c-19,0 -35,-7 -48,-20 -13,-13 -20,-29 -20,-48 0,-18 7,-34 20,-48 13,-13 29,-20 48,-20 19,0 35,7 48,20 13,14 20,30 20,48 0,19 -7,35 -20,48 -13,13 -29,20 -48,20zm505 -210c-19,0 -35,-7 -48,-20 -13,-13 -20,-29 -20,-48 0,-18 7,-35 20,-48 13,-14 29,-20 48,-20 19,0 34,6 48,20 13,13 19,30 19,48 0,19 -6,35 -19,48 -14,13 -29,20 -48,20zm-211 209c-19,0 -34,-6 -48,-19 -13,-13 -19,-30 -19,-49 0,-18 6,-34 19,-48 14,-13 29,-19 48,-19 18,0 34,6 48,19 13,14 20,30 20,48 0,19 -7,36 -20,49 -14,13 -30,19 -48,19zm505 -210c-19,0 -35,-7 -48,-20 -13,-13 -20,-29 -20,-49 0,-18 7,-34 20,-47 13,-14 29,-20 48,-20 18,0 34,6 47,20 14,13 21,29 21,47 0,20 -7,36 -21,49 -13,13 -29,20 -47,20zm211 1c-19,0 -36,-7 -49,-20 -13,-13 -20,-29 -20,-48 0,-18 7,-35 20,-48 13,-14 30,-20 49,-20 18,0 34,6 47,20 13,13 20,30 20,48 0,19 -7,35 -20,48 -13,13 -29,20 -47,20zm0 210c-19,0 -36,-7 -49,-20 -13,-13 -20,-29 -20,-48 0,-18 7,-34 20,-48 13,-13 30,-20 49,-20 18,0 34,7 47,20 13,14 20,30 20,48 0,19 -7,35 -20,48 -13,13 -29,20 -47,20zm293 -211c-18,0 -34,-7 -47,-20 -14,-13 -20,-29 -20,-49 0,-18 6,-34 20,-47 13,-14 29,-20 47,-20 19,0 35,6 48,20 13,13 20,29 20,47 0,20 -7,36 -20,49 -13,13 -29,20 -48,20zm716 1c-19,0 -35,-7 -49,-20 -13,-13 -19,-29 -19,-48 0,-18 6,-35 19,-48 14,-14 30,-20 49,-20 18,0 34,6 47,20 13,13 20,30 20,48 0,19 -7,35 -20,48 -13,13 -29,20 -47,20zm-211 209c-19,0 -35,-6 -48,-19 -13,-13 -20,-30 -20,-49 0,-18 7,-34 20,-48 13,-13 29,-19 48,-19 18,0 34,6 48,19 13,14 20,30 20,48 0,19 -7,36 -20,49 -14,13 -30,19 -48,19zm211 1c-19,0 -35,-7 -49,-20 -13,-13 -19,-29 -19,-48 0,-18 6,-34 19,-48 14,-13 30,-20 49,-20 18,0 34,7 47,20 13,14 20,30 20,48 0,19 -7,35 -20,48 -13,13 -29,20 -47,20zm-211 210c-19,0 -35,-7 -48,-20 -13,-13 -20,-29 -20,-48 0,-19 7,-34 20,-48 13,-13 29,-20 48,-20 18,0 34,7 48,20 13,14 20,29 20,48 0,19 -7,35 -20,48 -14,13 -30,20 -48,20zm740 -421c-19,0 -35,-7 -48,-20 -13,-13 -20,-29 -20,-49 0,-18 7,-34 20,-47 13,-14 29,-20 48,-20 18,0 34,6 48,20 13,13 20,29 20,47 0,20 -7,36 -20,49 -14,13 -30,20 -48,20z"/>
   <path class="fil9 str4" d="M7053 10913c-19,0 -35,-6 -48,-19 -13,-14 -20,-30 -20,-49 0,-19 7,-35 20,-48 13,-13 29,-20 48,-20 18,0 34,7 48,20 13,13 20,29 20,48 0,19 -7,35 -20,49 -14,13 -30,19 -48,19zm0 421c-19,0 -35,-6 -48,-20 -13,-13 -20,-29 -20,-47 0,-19 7,-35 20,-48 13,-14 29,-20 48,-20 18,0 34,6 48,20 13,13 20,29 20,48 0,18 -7,34 -20,47 -14,14 -30,20 -48,20zm504 -421c-18,0 -34,-6 -47,-19 -13,-14 -20,-30 -20,-49 0,-19 7,-35 20,-48 13,-13 29,-20 47,-20 19,0 35,7 48,20 14,13 20,29 20,48 0,19 -6,35 -20,49 -13,13 -29,19 -48,19zm505 0c-19,0 -34,-6 -48,-19 -13,-14 -19,-30 -19,-49 0,-19 6,-35 19,-48 14,-13 29,-20 48,-20 18,0 34,7 48,20 13,13 20,29 20,48 0,19 -7,35 -20,49 -14,13 -30,19 -48,19zm211 1c-19,0 -35,-6 -48,-20 -14,-13 -20,-29 -20,-47 0,-19 6,-35 20,-49 13,-13 29,-20 48,-20 18,0 34,7 47,20 14,14 20,30 20,49 0,18 -6,34 -20,47 -13,14 -29,20 -47,20zm0 210c-19,0 -35,-6 -48,-19 -14,-13 -20,-29 -20,-48 0,-19 6,-35 20,-48 13,-14 29,-20 48,-20 18,0 34,6 47,20 14,13 20,29 20,48 0,19 -6,35 -20,48 -13,13 -29,19 -47,19zm-211 210c-19,0 -34,-6 -48,-20 -13,-13 -19,-29 -19,-47 0,-19 6,-35 19,-48 14,-14 29,-20 48,-20 18,0 34,6 48,20 13,13 20,29 20,48 0,18 -7,34 -20,47 -14,14 -30,20 -48,20zm504 -421c-18,0 -34,-6 -47,-19 -13,-14 -20,-30 -20,-49 0,-19 7,-35 20,-48 13,-13 29,-20 47,-20 19,0 35,7 48,20 14,13 21,29 21,48 0,19 -7,35 -21,49 -13,13 -29,19 -48,19zm211 1c-19,0 -35,-6 -48,-20 -13,-13 -20,-29 -20,-47 0,-19 7,-35 20,-49 13,-13 29,-20 48,-20 19,0 35,7 48,20 13,14 20,30 20,49 0,18 -7,34 -20,47 -13,14 -29,20 -48,20zm0 210c-19,0 -35,-6 -48,-19 -13,-13 -20,-29 -20,-48 0,-19 7,-35 20,-48 13,-14 29,-20 48,-20 19,0 35,6 48,20 13,13 20,29 20,48 0,19 -7,35 -20,48 -13,13 -29,19 -48,19zm505 -210c-19,0 -35,-6 -48,-20 -13,-13 -20,-29 -20,-47 0,-19 7,-35 20,-49 13,-13 29,-20 48,-20 19,0 34,7 48,20 13,14 19,30 19,49 0,18 -6,34 -19,47 -14,14 -29,20 -48,20zm-211 209c-19,0 -34,-6 -48,-19 -13,-13 -19,-29 -19,-48 0,-19 6,-35 19,-48 14,-13 29,-20 48,-20 18,0 34,7 48,20 13,13 20,29 20,48 0,19 -7,35 -20,48 -14,13 -30,19 -48,19zm505 -210c-19,0 -35,-6 -48,-19 -13,-14 -20,-30 -20,-49 0,-19 7,-35 20,-48 13,-13 29,-20 48,-20 18,0 34,7 47,20 14,13 21,29 21,48 0,19 -7,35 -21,49 -13,13 -29,19 -47,19zm211 1c-19,0 -36,-6 -49,-20 -13,-13 -20,-29 -20,-47 0,-19 7,-35 20,-49 13,-13 30,-20 49,-20 18,0 34,7 47,20 13,14 20,30 20,49 0,18 -7,34 -20,47 -13,14 -29,20 -47,20zm0 210c-19,0 -36,-6 -49,-19 -13,-13 -20,-29 -20,-48 0,-19 7,-35 20,-48 13,-14 30,-20 49,-20 18,0 34,6 47,20 13,13 20,29 20,48 0,19 -7,35 -20,48 -13,13 -29,19 -47,19zm293 -211c-18,0 -34,-6 -47,-19 -14,-14 -20,-30 -20,-49 0,-19 6,-35 20,-48 13,-13 29,-20 47,-20 19,0 35,7 48,20 13,13 20,29 20,48 0,19 -7,35 -20,49 -13,13 -29,19 -48,19zm716 1c-19,0 -35,-6 -49,-20 -13,-13 -19,-29 -19,-47 0,-19 6,-35 19,-49 14,-13 30,-20 49,-20 18,0 34,7 47,20 13,14 20,30 20,49 0,18 -7,34 -20,47 -13,14 -29,20 -47,20zm-211 209c-19,0 -35,-6 -48,-19 -13,-13 -20,-29 -20,-48 0,-19 7,-35 20,-48 13,-13 29,-20 48,-20 18,0 34,7 48,20 13,13 20,29 20,48 0,19 -7,35 -20,48 -14,13 -30,19 -48,19zm211 1c-19,0 -35,-6 -49,-19 -13,-13 -19,-29 -19,-48 0,-19 6,-35 19,-48 14,-14 30,-20 49,-20 18,0 34,6 47,20 13,13 20,29 20,48 0,19 -7,35 -20,48 -13,13 -29,19 -47,19zm-211 210c-19,0 -35,-6 -48,-20 -13,-13 -20,-29 -20,-47 0,-19 7,-35 20,-48 13,-14 29,-20 48,-20 18,0 34,6 48,20 13,13 20,29 20,48 0,18 -7,34 -20,47 -14,14 -30,20 -48,20zm740 -421c-19,0 -35,-6 -48,-19 -13,-14 -20,-30 -20,-49 0,-19 7,-35 20,-48 13,-13 29,-20 48,-20 18,0 34,7 48,20 13,13 20,29 20,48 0,19 -7,35 -20,49 -14,13 -30,19 -48,19zm0 210c-19,0 -35,-6 -48,-19 -13,-13 -20,-29 -20,-48 0,-19 7,-35 20,-48 13,-13 29,-20 48,-20 18,0 34,7 48,20 13,13 20,29 20,48 0,19 -7,35 -20,48 -14,13 -30,19 -48,19z"/>
   <path class="fil9 str4" d="M7053 12152c-19,0 -35,-7 -48,-20 -13,-14 -20,-30 -20,-49 0,-19 7,-35 20,-48 13,-13 29,-20 48,-20 18,0 34,7 48,20 13,13 20,29 20,48 0,19 -7,35 -20,49 -14,13 -30,20 -48,20zm0 420c-19,0 -35,-6 -48,-19 -13,-14 -20,-30 -20,-48 0,-19 7,-35 20,-48 13,-13 29,-20 48,-20 18,0 34,7 48,20 13,13 20,29 20,48 0,18 -7,34 -20,48 -14,13 -30,19 -48,19zm504 -420c-18,0 -34,-7 -47,-20 -13,-14 -20,-30 -20,-49 0,-19 7,-35 20,-48 13,-13 29,-20 47,-20 19,0 35,7 48,20 14,13 20,29 20,48 0,19 -6,35 -20,49 -13,13 -29,20 -48,20zm505 0c-19,0 -34,-7 -48,-20 -13,-14 -19,-30 -19,-49 0,-19 6,-35 19,-48 14,-13 29,-20 48,-20 18,0 34,7 48,20 13,13 20,29 20,48 0,19 -7,35 -20,49 -14,13 -30,20 -48,20zm211 0c-19,0 -35,-6 -48,-19 -14,-14 -20,-30 -20,-48 0,-19 6,-35 20,-49 13,-13 29,-20 48,-20 18,0 34,7 47,20 14,14 20,30 20,49 0,18 -6,34 -20,48 -13,13 -29,19 -47,19zm0 210c-19,0 -35,-6 -48,-19 -14,-13 -20,-29 -20,-48 0,-19 6,-35 20,-48 13,-13 29,-20 48,-20 18,0 34,7 47,20 14,13 20,29 20,48 0,19 -6,35 -20,48 -13,13 -29,19 -47,19zm-211 210c-19,0 -34,-6 -48,-19 -13,-14 -19,-30 -19,-48 0,-19 6,-35 19,-48 14,-13 29,-20 48,-20 18,0 34,7 48,20 13,13 20,29 20,48 0,18 -7,34 -20,48 -14,13 -30,19 -48,19zm504 -420c-18,0 -34,-7 -47,-20 -13,-14 -20,-30 -20,-49 0,-19 7,-35 20,-48 13,-13 29,-20 47,-20 19,0 35,7 48,20 14,13 21,29 21,48 0,19 -7,35 -21,49 -13,13 -29,20 -48,20zm211 0c-19,0 -35,-6 -48,-19 -13,-14 -20,-30 -20,-48 0,-19 7,-35 20,-49 13,-13 29,-20 48,-20 19,0 35,7 48,20 13,14 20,30 20,49 0,18 -7,34 -20,48 -13,13 -29,19 -48,19zm0 210c-19,0 -35,-6 -48,-19 -13,-13 -20,-29 -20,-48 0,-19 7,-35 20,-48 13,-13 29,-20 48,-20 19,0 35,7 48,20 13,13 20,29 20,48 0,19 -7,35 -20,48 -13,13 -29,19 -48,19zm505 -210c-19,0 -35,-6 -48,-19 -13,-14 -20,-30 -20,-48 0,-19 7,-35 20,-49 13,-13 29,-20 48,-20 19,0 34,7 48,20 13,14 19,30 19,49 0,18 -6,34 -19,48 -14,13 -29,19 -48,19zm-211 210c-19,0 -34,-7 -48,-20 -13,-13 -19,-29 -19,-48 0,-19 6,-35 19,-48 14,-13 29,-20 48,-20 18,0 34,7 48,20 13,13 20,29 20,48 0,19 -7,35 -20,48 -14,13 -30,20 -48,20zm505 -210c-19,0 -35,-7 -48,-20 -13,-14 -20,-30 -20,-49 0,-19 7,-35 20,-48 13,-13 29,-20 48,-20 18,0 34,7 47,20 14,13 21,29 21,48 0,19 -7,35 -21,49 -13,13 -29,20 -47,20zm211 0c-19,0 -36,-6 -49,-19 -13,-14 -20,-30 -20,-48 0,-19 7,-35 20,-49 13,-13 30,-20 49,-20 18,0 34,7 47,20 13,14 20,30 20,49 0,18 -7,34 -20,48 -13,13 -29,19 -47,19zm0 210c-19,0 -36,-6 -49,-19 -13,-13 -20,-29 -20,-48 0,-19 7,-35 20,-48 13,-13 30,-20 49,-20 18,0 34,7 47,20 13,13 20,29 20,48 0,19 -7,35 -20,48 -13,13 -29,19 -47,19zm293 -210c-18,0 -34,-7 -47,-20 -14,-14 -20,-30 -20,-49 0,-19 6,-35 20,-48 13,-13 29,-20 47,-20 19,0 35,7 48,20 13,13 20,29 20,48 0,19 -7,35 -20,49 -13,13 -29,20 -48,20zm716 0c-19,0 -35,-6 -49,-19 -13,-14 -19,-30 -19,-48 0,-19 6,-35 19,-49 14,-13 30,-20 49,-20 18,0 34,7 47,20 13,14 20,30 20,49 0,18 -7,34 -20,48 -13,13 -29,19 -47,19zm-211 210c-19,0 -35,-7 -48,-20 -13,-13 -20,-29 -20,-48 0,-19 7,-35 20,-48 13,-13 29,-20 48,-20 18,0 34,7 48,20 13,13 20,29 20,48 0,19 -7,35 -20,48 -14,13 -30,20 -48,20zm211 0c-19,0 -35,-6 -49,-19 -13,-13 -19,-29 -19,-48 0,-19 6,-35 19,-48 14,-13 30,-20 49,-20 18,0 34,7 47,20 13,13 20,29 20,48 0,19 -7,35 -20,48 -13,13 -29,19 -47,19zm-211 210c-19,0 -35,-6 -48,-19 -13,-14 -20,-30 -20,-48 0,-19 7,-35 20,-48 13,-13 29,-20 48,-20 18,0 34,7 48,20 13,13 20,29 20,48 0,18 -7,34 -20,48 -14,13 -30,19 -48,19zm740 -420c-19,0 -35,-7 -48,-20 -13,-14 -20,-30 -20,-49 0,-19 7,-35 20,-48 13,-13 29,-20 48,-20 18,0 34,7 48,20 13,13 20,29 20,48 0,19 -7,35 -20,49 -14,13 -30,20 -48,20zm211 0c-19,0 -35,-6 -49,-19 -13,-14 -19,-30 -19,-48 0,-19 6,-35 19,-49 14,-13 30,-20 49,-20 18,0 34,7 47,20 13,14 20,30 20,49 0,18 -7,34 -20,48 -13,13 -29,19 -47,19z"/>
   <path class="fil9 str4" d="M7053 13423c-19,0 -35,-7 -48,-20 -13,-14 -20,-30 -20,-49 0,-19 7,-35 20,-48 13,-13 29,-20 48,-20 18,0 34,7 48,20 13,13 20,29 20,48 0,19 -7,35 -20,49 -14,13 -30,20 -48,20zm0 420c-19,0 -35,-6 -48,-19 -13,-14 -20,-30 -20,-48 0,-19 7,-35 20,-48 13,-13 29,-20 48,-20 18,0 34,7 48,20 13,13 20,29 20,48 0,18 -7,34 -20,48 -14,13 -30,19 -48,19zm504 -420c-18,0 -34,-7 -47,-20 -13,-14 -20,-30 -20,-49 0,-19 7,-35 20,-48 13,-13 29,-20 47,-20 19,0 35,7 48,20 14,13 20,29 20,48 0,19 -6,35 -20,49 -13,13 -29,20 -48,20zm505 0c-19,0 -34,-7 -48,-20 -13,-14 -19,-30 -19,-49 0,-19 6,-35 19,-48 14,-13 29,-20 48,-20 18,0 34,7 48,20 13,13 20,29 20,48 0,19 -7,35 -20,49 -14,13 -30,20 -48,20zm211 0c-19,0 -35,-6 -48,-19 -14,-14 -20,-30 -20,-48 0,-19 6,-35 20,-49 13,-13 29,-20 48,-20 18,0 34,7 47,20 14,14 20,30 20,49 0,18 -6,34 -20,48 -13,13 -29,19 -47,19zm0 210c-19,0 -35,-6 -48,-19 -14,-13 -20,-29 -20,-48 0,-19 6,-35 20,-48 13,-13 29,-20 48,-20 18,0 34,7 47,20 14,13 20,29 20,48 0,19 -6,35 -20,48 -13,13 -29,19 -47,19zm-211 210c-19,0 -34,-6 -48,-19 -13,-14 -19,-30 -19,-48 0,-19 6,-35 19,-48 14,-13 29,-20 48,-20 18,0 34,7 48,20 13,13 20,29 20,48 0,18 -7,34 -20,48 -14,13 -30,19 -48,19zm504 -420c-18,0 -34,-7 -47,-20 -13,-14 -20,-30 -20,-49 0,-19 7,-35 20,-48 13,-13 29,-20 47,-20 19,0 35,7 48,20 14,13 21,29 21,48 0,19 -7,35 -21,49 -13,13 -29,20 -48,20zm211 0c-19,0 -35,-6 -48,-19 -13,-14 -20,-30 -20,-48 0,-19 7,-35 20,-49 13,-13 29,-20 48,-20 19,0 35,7 48,20 13,14 20,30 20,49 0,18 -7,34 -20,48 -13,13 -29,19 -48,19zm0 210c-19,0 -35,-6 -48,-19 -13,-13 -20,-29 -20,-48 0,-19 7,-35 20,-48 13,-13 29,-20 48,-20 19,0 35,7 48,20 13,13 20,29 20,48 0,19 -7,35 -20,48 -13,13 -29,19 -48,19zm505 -210c-19,0 -35,-6 -48,-19 -13,-14 -20,-30 -20,-48 0,-19 7,-35 20,-49 13,-13 29,-20 48,-20 19,0 34,7 48,20 13,14 19,30 19,49 0,18 -6,34 -19,48 -14,13 -29,19 -48,19zm-211 210c-19,0 -34,-7 -48,-20 -13,-13 -19,-29 -19,-48 0,-19 6,-35 19,-48 14,-13 29,-20 48,-20 18,0 34,7 48,20 13,13 20,29 20,48 0,19 -7,35 -20,48 -14,13 -30,20 -48,20zm505 -210c-19,0 -35,-7 -48,-20 -13,-14 -20,-30 -20,-49 0,-19 7,-35 20,-48 13,-13 29,-20 48,-20 18,0 34,7 47,20 14,13 21,29 21,48 0,19 -7,35 -21,49 -13,13 -29,20 -47,20zm211 0c-19,0 -36,-6 -49,-19 -13,-14 -20,-30 -20,-48 0,-19 7,-35 20,-49 13,-13 30,-20 49,-20 18,0 34,7 47,20 13,14 20,30 20,49 0,18 -7,34 -20,48 -13,13 -29,19 -47,19zm0 210c-19,0 -36,-6 -49,-19 -13,-13 -20,-29 -20,-48 0,-19 7,-35 20,-48 13,-13 30,-20 49,-20 18,0 34,7 47,20 13,13 20,29 20,48 0,19 -7,35 -20,48 -13,13 -29,19 -47,19zm293 -210c-18,0 -34,-7 -47,-20 -14,-14 -20,-30 -20,-49 0,-19 6,-35 20,-48 13,-13 29,-20 47,-20 19,0 35,7 48,20 13,13 20,29 20,48 0,19 -7,35 -20,49 -13,13 -29,20 -48,20zm716 0c-19,0 -35,-6 -49,-19 -13,-14 -19,-30 -19,-48 0,-19 6,-35 19,-49 14,-13 30,-20 49,-20 18,0 34,7 47,20 13,14 20,30 20,49 0,18 -7,34 -20,48 -13,13 -29,19 -47,19zm-211 210c-19,0 -35,-7 -48,-20 -13,-13 -20,-29 -20,-48 0,-19 7,-35 20,-48 13,-13 29,-20 48,-20 18,0 34,7 48,20 13,13 20,29 20,48 0,19 -7,35 -20,48 -14,13 -30,20 -48,20zm211 0c-19,0 -35,-6 -49,-19 -13,-13 -19,-29 -19,-48 0,-19 6,-35 19,-48 14,-13 30,-20 49,-20 18,0 34,7 47,20 13,13 20,29 20,48 0,19 -7,35 -20,48 -13,13 -29,19 -47,19zm-211 210c-19,0 -35,-6 -48,-19 -13,-14 -20,-30 -20,-48 0,-19 7,-35 20,-48 13,-13 29,-20 48,-20 18,0 34,7 48,20 13,13 20,29 20,48 0,18 -7,34 -20,48 -14,13 -30,19 -48,19zm740 -420c-19,0 -35,-7 -48,-20 -13,-14 -20,-30 -20,-49 0,-19 7,-35 20,-48 13,-13 29,-20 48,-20 18,0 34,7 48,20 13,13 20,29 20,48 0,19 -7,35 -20,49 -14,13 -30,20 -48,20zm211 0c-19,0 -35,-6 -49,-19 -13,-14 -19,-30 -19,-48 0,-19 6,-35 19,-49 14,-13 30,-20 49,-20 18,0 34,7 47,20 13,14 20,30 20,49 0,18 -7,34 -20,48 -13,13 -29,19 -47,19zm0 210c-19,0 -35,-6 -49,-19 -13,-13 -19,-29 -19,-48 0,-19 6,-35 19,-48 14,-13 30,-20 49,-20 18,0 34,7 47,20 13,13 20,29 20,48 0,19 -7,35 -20,48 -13,13 -29,19 -47,19z"/>
   <path class="fil9 str4" d="M7053 14720c-19,0 -35,-7 -48,-20 -13,-14 -20,-30 -20,-49 0,-19 7,-35 20,-48 13,-13 29,-20 48,-20 18,0 34,7 48,20 13,13 20,29 20,48 0,19 -7,35 -20,49 -14,13 -30,20 -48,20zm0 420c-19,0 -35,-6 -48,-19 -13,-14 -20,-30 -20,-48 0,-19 7,-35 20,-48 13,-13 29,-20 48,-20 18,0 34,7 48,20 13,13 20,29 20,48 0,18 -7,34 -20,48 -14,13 -30,19 -48,19zm504 -420c-18,0 -34,-7 -47,-20 -13,-14 -20,-30 -20,-49 0,-19 7,-35 20,-48 13,-13 29,-20 47,-20 19,0 35,7 48,20 14,13 20,29 20,48 0,19 -6,35 -20,49 -13,13 -29,20 -48,20zm505 0c-19,0 -34,-7 -48,-20 -13,-14 -19,-30 -19,-49 0,-19 6,-35 19,-48 14,-13 29,-20 48,-20 18,0 34,7 48,20 13,13 20,29 20,48 0,19 -7,35 -20,49 -14,13 -30,20 -48,20zm211 0c-19,0 -35,-6 -48,-19 -14,-14 -20,-30 -20,-48 0,-19 6,-35 20,-49 13,-13 29,-20 48,-20 18,0 34,7 47,20 14,14 20,30 20,49 0,18 -6,34 -20,48 -13,13 -29,19 -47,19zm0 210c-19,0 -35,-6 -48,-19 -14,-13 -20,-29 -20,-48 0,-19 6,-35 20,-48 13,-13 29,-20 48,-20 18,0 34,7 47,20 14,13 20,29 20,48 0,19 -6,35 -20,48 -13,13 -29,19 -47,19zm-211 210c-19,0 -34,-6 -48,-19 -13,-14 -19,-30 -19,-48 0,-19 6,-35 19,-48 14,-13 29,-20 48,-20 18,0 34,7 48,20 13,13 20,29 20,48 0,18 -7,34 -20,48 -14,13 -30,19 -48,19zm504 -420c-18,0 -34,-7 -47,-20 -13,-14 -20,-30 -20,-49 0,-19 7,-35 20,-48 13,-13 29,-20 47,-20 19,0 35,7 48,20 14,13 21,29 21,48 0,19 -7,35 -21,49 -13,13 -29,20 -48,20zm211 0c-19,0 -35,-6 -48,-19 -13,-14 -20,-30 -20,-48 0,-19 7,-35 20,-49 13,-13 29,-20 48,-20 19,0 35,7 48,20 13,14 20,30 20,49 0,18 -7,34 -20,48 -13,13 -29,19 -48,19zm0 210c-19,0 -35,-6 -48,-19 -13,-13 -20,-29 -20,-48 0,-19 7,-35 20,-48 13,-13 29,-20 48,-20 19,0 35,7 48,20 13,13 20,29 20,48 0,19 -7,35 -20,48 -13,13 -29,19 -48,19zm505 -210c-19,0 -35,-6 -48,-19 -13,-14 -20,-30 -20,-48 0,-19 7,-35 20,-49 13,-13 29,-20 48,-20 19,0 34,7 48,20 13,14 19,30 19,49 0,18 -6,34 -19,48 -14,13 -29,19 -48,19zm-211 210c-19,0 -34,-7 -48,-20 -13,-13 -19,-29 -19,-48 0,-19 6,-35 19,-48 14,-13 29,-20 48,-20 18,0 34,7 48,20 13,13 20,29 20,48 0,19 -7,35 -20,48 -14,13 -30,20 -48,20zm505 -210c-19,0 -35,-7 -48,-20 -13,-14 -20,-30 -20,-49 0,-19 7,-35 20,-48 13,-13 29,-20 48,-20 18,0 34,7 47,20 14,13 21,29 21,48 0,19 -7,35 -21,49 -13,13 -29,20 -47,20zm211 0c-19,0 -36,-6 -49,-19 -13,-14 -20,-30 -20,-48 0,-19 7,-35 20,-49 13,-13 30,-20 49,-20 18,0 34,7 47,20 13,14 20,30 20,49 0,18 -7,34 -20,48 -13,13 -29,19 -47,19zm0 210c-19,0 -36,-6 -49,-19 -13,-13 -20,-29 -20,-48 0,-19 7,-35 20,-48 13,-13 30,-20 49,-20 18,0 34,7 47,20 13,13 20,29 20,48 0,19 -7,35 -20,48 -13,13 -29,19 -47,19zm293 -210c-18,0 -34,-7 -47,-20 -14,-14 -20,-30 -20,-49 0,-19 6,-35 20,-48 13,-13 29,-20 47,-20 19,0 35,7 48,20 13,13 20,29 20,48 0,19 -7,35 -20,49 -13,13 -29,20 -48,20zm716 0c-19,0 -35,-6 -49,-19 -13,-14 -19,-30 -19,-48 0,-19 6,-35 19,-49 14,-13 30,-20 49,-20 18,0 34,7 47,20 13,14 20,30 20,49 0,18 -7,34 -20,48 -13,13 -29,19 -47,19zm-211 210c-19,0 -35,-7 -48,-20 -13,-13 -20,-29 -20,-48 0,-19 7,-35 20,-48 13,-13 29,-20 48,-20 18,0 34,7 48,20 13,13 20,29 20,48 0,19 -7,35 -20,48 -14,13 -30,20 -48,20zm211 0c-19,0 -35,-6 -49,-19 -13,-13 -19,-29 -19,-48 0,-19 6,-35 19,-48 14,-13 30,-20 49,-20 18,0 34,7 47,20 13,13 20,29 20,48 0,19 -7,35 -20,48 -13,13 -29,19 -47,19zm-211 210c-19,0 -35,-6 -48,-19 -13,-14 -20,-30 -20,-48 0,-19 7,-35 20,-48 13,-13 29,-20 48,-20 18,0 34,7 48,20 13,13 20,29 20,48 0,18 -7,34 -20,48 -14,13 -30,19 -48,19zm740 -420c-19,0 -35,-7 -48,-20 -13,-14 -20,-30 -20,-49 0,-19 7,-35 20,-48 13,-13 29,-20 48,-20 18,0 34,7 48,20 13,13 20,29 20,48 0,19 -7,35 -20,49 -14,13 -30,20 -48,20zm211 210c-19,0 -35,-6 -49,-19 -13,-13 -19,-29 -19,-48 0,-19 6,-35 19,-48 14,-13 30,-20 49,-20 18,0 34,7 47,20 13,13 20,29 20,48 0,19 -7,35 -20,48 -13,13 -29,19 -47,19z"/>
  </g>
 </g>
</svg>
