<?xml version="1.0" encoding="UTF-8"?>
<!DOCTYPE svg PUBLIC "-//W3C//DTD SVG 1.0//EN" "http://www.w3.org/TR/2001/REC-SVG-20010904/DTD/svg10.dtd">
<!-- Creator: CorelDRAW X7 -->
<svg xmlns="http://www.w3.org/2000/svg" xml:space="preserve" width="200mm" height="200mm" version="1.0" style="shape-rendering:geometricPrecision; text-rendering:geometricPrecision; image-rendering:optimizeQuality; fill-rule:evenodd; clip-rule:evenodd"
viewBox="0 0 20000 20000"
 xmlns:xlink="http://www.w3.org/1999/xlink">
 <defs>
  <style type="text/css">
   <![CDATA[
    .str1 {stroke:#3696A0;stroke-width:25}
    .str2 {stroke:white;stroke-width:25}
    .str0 {stroke:#5B5B5B;stroke-width:7.62}
    .fil2 {fill:#0050A0}
    .fil3 {fill:#3497A1}
    .fil9 {fill:#3696A0}
    .fil8 {fill:#3C4F59}
    .fil11 {fill:#5C9EBC}
    .fil7 {fill:#7C8E97}
    .fil10 {fill:#A0E13A}
    .fil6 {fill:#BB8076}
    .fil5 {fill:#D4EFFF}
    .fil4 {fill:#DBBCB6}
    .fil1 {fill:#FEE9D0}
    .fil12 {fill:white}
    .fil0 {fill:url(#id0)}
   ]]>
  </style>
  <radialGradient id="id0" gradientUnits="userSpaceOnUse" gradientTransform="matrix(1.41421 -0 -0 1.41421 -4155 -4129)" cx="10030.6" cy="9969.4" r="10000" fx="10030.6" fy="9969.4">
   <stop offset="0" style="stop-opacity:1; stop-color:#FEFEFE"/>
   <stop offset="0.439216" style="stop-opacity:1; stop-color:#FEFEFE"/>
   <stop offset="1" style="stop-opacity:1; stop-color:#D1E2F2"/>
  </radialGradient>
 </defs>
 <g id="Layer_x0020_1">
  <metadata id="CorelCorpID_0Corel-Layer"/>
  <path class="fil0" d="M31 -31l20000 0 0 20000 -20000 0 0 -20000z"/>
  <g id="_662370149136">
   <g>
    <path class="fil1 str0" d="M7318 7578l-2961 0 0 -1737 2961 0 0 1737z"/>
    <path class="fil2 str0" d="M7533 5860l-3391 0 217 -421 2956 0 218 421z"/>
    <path class="fil1 str0" d="M4982 5876l849 -674 862 674 -1711 0z"/>
    <path class="fil2 str0" d="M4999 5897l832 -661 845 661c12,9 29,7 39,-5 9,-12 7,-29 -5,-38l-862 -674c-10,-7 -24,-7 -34,1l-849 673c-12,10 -14,27 -5,38 10,12 27,14 39,5z"/>
    <path class="fil3 str0" d="M4905 7448l-422 0 0 -857 422 0 0 857z"/>
    <path class="fil4 str0" d="M4905 7448l0 -13 -409 0 0 -832 397 0 0 845 12 0 0 -13 0 13 12 0 0 -869 -446 0 0 881 446 0 0 -12 -12 0z"/>
    <path class="fil5 str0" d="M4694 6591l0 868 0 -868z"/>
    <path class="fil4 str0" d="M4682 6591l0 868 25 0 0 -868 -25 0z"/>
    <path class="fil3 str0" d="M7192 7448l-422 0 0 -857 422 0 0 857z"/>
    <path class="fil4 str0" d="M7192 7448l0 -13 -410 0 0 -832 397 0 0 845 13 0 0 -13 0 13 12 0 0 -869 -447 0 0 881 447 0 0 -12 -12 0z"/>
    <path class="fil5 str0" d="M6981 6591l0 868 0 -868z"/>
    <path class="fil4 str0" d="M6968 6591l0 868 25 0 0 -868 -25 0z"/>
    <path class="fil6 str0" d="M5253 7578l-47 0 0 -1056 47 0 0 1056z"/>
    <path class="fil6 str0" d="M6469 7578l-47 0 0 -1056 47 0 0 1056z"/>
    <path class="fil2 str0" d="M6564 6541l-1453 0 0 -169 1453 0 0 169z"/>
    <path class="fil7 str0" d="M6272 7578l-870 0 0 -972 870 0 0 972z"/>
    <path class="fil8 str0" d="M5843 7578l-12 0 0 -972 12 0 0 972z"/>
    <path class="fil8 str0" d="M5796 7127l-38 0c-8,0 -14,-7 -14,-14 0,-8 6,-14 14,-14l38 0c8,0 14,6 14,14 0,7 -6,14 -14,14z"/>
    <path class="fil8 str0" d="M5923 7127l-38 0c-8,0 -14,-7 -14,-14 0,-8 6,-14 14,-14l38 0c8,0 14,6 14,14 0,7 -6,14 -14,14z"/>
    <path class="fil3 str0" d="M4733 6287l-245 0 0 -307 245 0 0 307z"/>
    <path class="fil4 str0" d="M4733 6287l0 -13 -233 0 0 -282 221 0 0 295 12 0 0 -13 0 13 13 0 0 -320 -271 0 0 332 271 0 0 -12 -13 0z"/>
    <path class="fil3 str0" d="M5086 6287l-246 0 0 -307 246 0 0 307z"/>
    <path class="fil4 str0" d="M5086 6287l0 -13 -233 0 0 -282 220 0 0 295 13 0 0 -13 0 13 12 0 0 -320 -270 0 0 332 270 0 0 -12 -12 0z"/>
    <path class="fil3 str0" d="M5438 6287l-245 0 0 -307 245 0 0 307z"/>
    <path class="fil4 str0" d="M5438 6287l0 -13 -233 0 0 -282 221 0 0 295 12 0 0 -13 0 13 13 0 0 -320 -271 0 0 332 271 0 0 -12 -13 0z"/>
    <path class="fil3 str0" d="M5791 6287l-246 0 0 -307 246 0 0 307z"/>
    <path class="fil4 str0" d="M5791 6287l0 -13 -233 0 0 -282 221 0 0 295 12 0 0 -13 0 13 12 0 0 -320 -270 0 0 332 270 0 0 -12 -12 0z"/>
    <path class="fil3 str0" d="M6144 6287l-246 0 0 -307 246 0 0 307z"/>
    <path class="fil4 str0" d="M6144 6287l0 -13 -234 0 0 -282 221 0 0 295 13 0 0 -13 0 13 12 0 0 -320 -271 0 0 332 271 0 0 -12 -12 0z"/>
    <path class="fil3 str0" d="M6496 6287l-245 0 0 -307 245 0 0 307z"/>
    <path class="fil4 str0" d="M6496 6287l0 -13 -233 0 0 -282 221 0 0 295 12 0 0 -13 0 13 13 0 0 -320 -271 0 0 332 271 0 0 -12 -13 0z"/>
    <path class="fil3 str0" d="M6849 6287l-246 0 0 -307 246 0 0 307z"/>
    <path class="fil4 str0" d="M6849 6287l0 -13 -233 0 0 -282 220 0 0 295 13 0 0 -13 0 13 12 0 0 -320 -270 0 0 332 270 0 0 -12 -12 0z"/>
    <path class="fil3 str0" d="M7201 6287l-245 0 0 -307 245 0 0 307z"/>
    <path class="fil4 str0" d="M7201 6287l0 -13 -233 0 0 -282 221 0 0 295 12 0 0 -13 0 13 13 0 0 -320 -271 0 0 332 271 0 0 -12 -13 0z"/>
    <path class="fil9 str1" d="M5386 7786l-106 0c-8,0 -14,-2 -19,-7 -5,-6 -7,-12 -7,-19 0,-6 2,-12 7,-18 4,-6 11,-9 19,-9l265 0c7,0 13,3 18,9 5,5 8,11 8,18 0,6 -2,12 -7,17 -4,6 -11,9 -19,9l-106 0 0 450c0,8 -3,15 -8,20 -4,4 -11,6 -18,6 -7,0 -14,-2 -19,-6 -5,-5 -8,-11 -8,-20l0 -450zm608 450c0,8 -3,15 -8,20 -4,4 -11,6 -18,6 -7,0 -14,-2 -19,-6 -5,-5 -8,-11 -8,-20l0 -374 -214 387c-3,5 -7,9 -12,13l-6 3c-1,1 -4,1 -8,2 -5,0 -11,-3 -17,-8 -5,-5 -7,-13 -7,-23l0 -476c0,-7 2,-13 8,-19 5,-5 11,-7 18,-7 7,0 13,2 18,6 6,5 8,11 8,20l0 374 215 -386c3,-5 6,-9 11,-13 5,-4 10,-6 15,-6 5,0 11,3 16,9 5,5 8,13 8,22l0 476zm158 -274l223 -221c5,-5 11,-8 18,-8 7,0 13,3 18,9 6,5 9,11 9,19 0,4 -3,10 -8,17l-157 157 162 288 4 14c0,6 -3,12 -9,17 -5,6 -12,8 -19,8 -9,0 -16,-4 -23,-14l-155 -275 -63 62 0 201c0,8 -2,15 -7,20 -5,4 -11,6 -19,6 -7,0 -13,-2 -19,-6 -5,-5 -7,-11 -7,-20l0 -477c0,-7 2,-13 8,-18 5,-5 11,-8 18,-8 7,0 13,3 18,7 6,4 8,11 8,19l0 203z"/>
   </g>
   <g>
    <path class="fil1 str0" d="M13793 7602l-1901 0 0 -1737 1901 0 0 1737z"/>
    <path class="fil2 str0" d="M13922 5884l-2159 0 139 -421 1882 0 138 421z"/>
    <path class="fil1 str0" d="M12011 5900l849 -674 862 674 -1711 0z"/>
    <path class="fil2 str0" d="M12028 5921l832 -661 845 661c12,9 29,7 38,-5 10,-12 8,-29 -4,-38l-862 -674c-10,-7 -24,-7 -34,0l-849 674c-12,10 -14,27 -5,38 10,12 27,14 39,5z"/>
    <path class="fil6 str0" d="M12282 7602l-48 0 0 -1056 48 0 0 1056z"/>
    <path class="fil6 str0" d="M13498 7602l-48 0 0 -1056 48 0 0 1056z"/>
    <path class="fil2 str0" d="M13592 6565l-1452 0 0 -169 1452 0 0 169z"/>
    <path class="fil7 str0" d="M13301 7602l-870 0 0 -972 870 0 0 972z"/>
    <path class="fil8 str0" d="M12872 7602l-12 0 0 -972 12 0 0 972z"/>
    <path class="fil8 str0" d="M12825 7151l-38 0c-8,0 -14,-7 -14,-14 0,-8 6,-14 14,-14l38 0c8,0 14,6 14,14 0,7 -6,14 -14,14z"/>
    <path class="fil8 str0" d="M12952 7151l-38 0c-8,0 -14,-7 -14,-14 0,-8 6,-14 14,-14l38 0c8,0 14,6 14,14 0,7 -6,14 -14,14z"/>
    <path class="fil3 str0" d="M12467 6311l-245 0 0 -307 245 0 0 307z"/>
    <path class="fil4 str0" d="M12467 6311l0 -13 -233 0 0 -282 221 0 0 295 12 0 0 -13 0 13 13 0 0 -320 -271 0 0 332 271 0 0 -12 -13 0z"/>
    <path class="fil3 str0" d="M12820 6311l-246 0 0 -307 246 0 0 307z"/>
    <path class="fil4 str0" d="M12820 6311l0 -13 -233 0 0 -282 220 0 0 295 13 0 0 -13 0 13 12 0 0 -320 -270 0 0 332 270 0 0 -12 -12 0z"/>
    <path class="fil3 str0" d="M13172 6311l-245 0 0 -307 245 0 0 307z"/>
    <path class="fil4 str0" d="M13172 6311l0 -13 -233 0 0 -282 221 0 0 295 12 0 0 -13 0 13 13 0 0 -320 -271 0 0 332 271 0 0 -12 -13 0z"/>
    <path class="fil3 str0" d="M13525 6311l-246 0 0 -307 246 0 0 307z"/>
    <path class="fil4 str0" d="M13525 6311l0 -13 -233 0 0 -282 221 0 0 295 12 0 0 -13 0 13 12 0 0 -320 -270 0 0 332 270 0 0 -12 -12 0z"/>
    <path class="fil9 str1" d="M12515 8026l-158 0c-29,0 -54,-10 -75,-30 -21,-21 -31,-46 -31,-75l0 -185c0,-7 2,-14 8,-20 5,-4 11,-7 18,-7 7,0 13,3 18,7 6,4 8,11 8,20l0 185c0,15 5,27 15,38 6,4 12,8 18,11 7,3 14,4 20,4l159 0 0 -238c0,-7 3,-14 8,-20 5,-4 12,-7 18,-7 7,0 13,3 19,7 5,4 8,11 8,20l0 397c0,29 -11,53 -31,74 -21,21 -46,31 -75,31l-132 0c-8,0 -15,-2 -20,-7 -4,-5 -6,-12 -6,-19 0,-6 2,-12 7,-18 4,-5 11,-8 19,-8l132 0c15,0 27,-5 38,-15 10,-10 15,-23 15,-38l0 -107zm476 186c0,8 -3,15 -8,20 -5,4 -11,6 -19,6 -7,0 -13,-2 -18,-6 -5,-5 -8,-11 -8,-20l0 -374 -215 387c-3,5 -7,9 -11,13l-6 3c-2,1 -4,1 -8,2 -5,0 -11,-3 -18,-8 -4,-5 -6,-13 -6,-23l0 -476c0,-7 2,-13 7,-19 6,-5 12,-7 19,-7 7,0 13,2 18,6 5,5 8,11 8,20l0 374 215 -386c2,-5 6,-9 11,-13 5,-4 10,-6 14,-6 6,0 12,3 17,9 5,5 8,13 8,22l0 476zm158 -274l223 -221c5,-5 11,-8 18,-8 6,0 13,3 18,9 6,5 9,11 9,19 0,4 -3,10 -8,17l-158 157 163 288 3 14c0,6 -2,12 -8,17 -5,6 -12,8 -19,8 -9,0 -16,-4 -23,-14l-155 -275 -63 62 0 201c0,8 -2,15 -8,20 -4,4 -11,6 -18,6 -7,0 -13,-2 -19,-6 -5,-5 -8,-11 -8,-20l0 -477c0,-7 3,-13 8,-18 6,-5 12,-8 19,-8 6,0 13,3 18,7 5,4 8,11 8,19l0 203z"/>
   </g>
   <path class="fil10" d="M2146 14764l6911 0 1955 -1941 -1955 -1940 -6911 0 0 3881z"/>
   <path class="fil10" d="M5957 10576c196,41 344,216 344,424 0,240 -195,435 -435,435 -240,0 -434,-195 -434,-435 0,-208 147,-383 344,-424l0 -871 -383 0 473 -860 473 860 -382 0 0 871z"/>
   <path class="fil11" d="M9057 14764l6911 0 1947 -1949 -1947 -1932 -6911 0 1955 1940 -1955 1941z"/>
   <path class="fil11" d="M12899 10576c196,41 344,216 344,424 0,240 -195,435 -435,435 -240,0 -434,-195 -434,-435 0,-208 147,-383 344,-424l0 -871 -383 0 473 -860 473 860 -382 0 0 871z"/>
   <path class="fil12 str2" d="M11654 12981l-50 0c-12,0 -22,-4 -30,-11 -7,-8 -10,-18 -10,-28 0,-10 3,-19 10,-27 8,-9 17,-13 30,-13l39 0c25,0 44,-8 58,-24 15,-16 22,-34 22,-55 0,-23 -7,-41 -19,-55 -7,-7 -15,-13 -25,-18 -11,-4 -22,-7 -36,-7l-39 0c-37,0 -69,11 -96,33 -6,4 -14,7 -24,9 -8,0 -17,-5 -28,-12 -7,-9 -11,-18 -11,-29 0,-13 5,-23 16,-32 41,-32 88,-48 143,-48l39 0c50,0 90,17 119,50 27,30 40,66 40,109 0,13 -1,24 -3,34 -2,10 -5,21 -10,31 -7,19 -20,37 -37,54 15,14 27,32 37,54l9 32c3,10 4,21 4,34 0,43 -13,80 -40,109 -28,33 -68,49 -119,49l-39 0c-54,0 -101,-16 -143,-48 -11,-7 -16,-18 -16,-31 0,-9 4,-18 11,-28 8,-9 18,-14 28,-14 7,0 15,4 24,10 28,22 60,32 96,32l39 0c24,0 44,-8 58,-24 14,-16 22,-35 22,-56 0,-21 -6,-38 -17,-52 -12,-15 -29,-24 -52,-28zm624 80l0 -318 -160 0c-22,0 -41,8 -57,23 -7,8 -13,16 -17,26 -3,10 -5,20 -5,31l0 238c0,23 7,42 22,57 8,7 17,13 26,18 11,3 22,5 31,5l80 0c22,0 41,-7 56,-22 16,-15 24,-34 24,-58zm38 107c-12,15 -30,27 -52,37 -22,10 -44,15 -66,15l-79 0c-43,0 -80,-15 -112,-46 -31,-31 -47,-68 -47,-113l0 -238c0,-44 15,-81 46,-112 31,-31 69,-47 113,-47l198 0c26,0 39,14 39,40l0 356c0,16 5,32 16,49 9,15 22,26 39,34 17,7 25,19 25,36 0,12 -4,21 -11,29 -7,8 -16,12 -28,12 -6,0 -12,-1 -17,-4 -26,-10 -47,-26 -64,-48zm869 -661l-158 0c-12,0 -22,-4 -30,-11 -7,-8 -10,-18 -10,-29 0,-9 3,-18 10,-26 7,-9 17,-13 30,-13l158 0c62,0 112,20 149,60 33,38 50,84 50,137 0,32 -7,61 -19,88 -13,27 -32,51 -58,73 22,17 40,39 55,67 14,28 22,58 22,89l0 80c0,54 -20,100 -59,139 -39,39 -85,59 -140,59l-158 0c-12,0 -22,-3 -30,-11 -7,-8 -10,-18 -10,-28 0,-10 3,-18 10,-27 7,-9 16,-13 30,-13l159 0c33,0 61,-11 84,-35 23,-23 35,-51 35,-84l0 -80c0,-32 -12,-60 -35,-83 -22,-24 -51,-36 -85,-36l-79 0c-12,0 -22,-3 -30,-10 -6,-9 -10,-19 -10,-29 0,-9 3,-18 10,-27 7,-8 17,-12 30,-12l79 0c36,0 65,-13 87,-39 20,-22 29,-50 29,-83 0,-32 -9,-59 -28,-80 -21,-24 -50,-36 -88,-36zm1154 236l-159 0c-23,0 -42,8 -57,23 -8,8 -14,16 -17,26 -4,10 -6,20 -6,31l0 238c0,23 7,42 23,57 8,7 16,13 25,18 12,3 22,5 32,5l79 0c22,0 41,-7 56,-22 16,-15 24,-34 24,-58l0 -318zm0 -79l0 -79c0,-22 -8,-41 -23,-56 -14,-16 -34,-23 -57,-23l-158 0c-13,0 -23,-4 -30,-11 -7,-9 -10,-18 -10,-29 0,-9 3,-18 10,-26 6,-9 16,-13 29,-13l159 0c44,0 82,15 112,46 31,31 47,69 47,112l0 476c0,44 -16,81 -47,112 -31,31 -68,47 -112,47l-79 0c-43,0 -80,-15 -112,-46 -31,-31 -47,-68 -47,-113l0 -238c0,-44 16,-81 47,-112 31,-31 68,-47 112,-47l159 0zm555 238l0 -198c0,-11 4,-20 12,-29 7,-7 17,-11 27,-11 10,0 20,4 27,10 9,7 13,17 13,30l0 476c0,13 -4,23 -12,30 -7,7 -16,10 -28,10 -10,0 -20,-3 -27,-10 -8,-7 -12,-16 -12,-30l0 -199 -239 0 0 199c0,13 -4,23 -11,30 -8,7 -17,10 -29,10 -10,0 -19,-3 -27,-10 -8,-7 -12,-16 -12,-30l0 -476c0,-10 4,-20 12,-29 8,-7 17,-11 27,-11 10,0 20,4 28,10 8,7 12,17 12,30l0 198 239 0zm555 1l0 -160 -160 0c-22,0 -42,8 -59,24 -13,16 -20,35 -20,56 0,20 7,39 20,55 14,17 34,25 59,25l160 0zm-98 79l-147 220c-3,5 -8,9 -15,14l-18 4c-8,0 -17,-4 -27,-12 -9,-8 -13,-17 -13,-28 0,-7 2,-14 6,-22l119 -178c-39,-6 -69,-24 -92,-55 -22,-31 -33,-65 -33,-102 0,-42 13,-79 40,-109 30,-33 69,-50 119,-50l198 0c26,0 40,14 40,40l0 476c0,13 -4,23 -12,30 -7,7 -16,10 -28,10 -10,0 -20,-3 -28,-10 -7,-6 -11,-16 -11,-30l0 -198 -98 0z"/>
   <path class="fil12 str2" d="M3954 12984l-50 0c-12,0 -22,-3 -29,-11 -7,-8 -11,-17 -11,-28 0,-10 4,-19 11,-27 7,-8 17,-13 29,-13l40 0c24,0 43,-8 58,-24 14,-16 21,-34 21,-55 0,-23 -6,-41 -19,-55 -6,-7 -15,-13 -25,-18 -10,-4 -22,-7 -35,-7l-40 0c-37,0 -68,11 -95,33 -7,5 -15,7 -24,9 -9,0 -18,-4 -28,-12 -8,-9 -11,-18 -11,-29 0,-13 5,-23 15,-32 41,-32 89,-47 143,-47l40 0c50,0 89,16 119,49 26,30 39,66 39,109 0,13 -1,24 -3,34 -2,11 -5,21 -9,31 -8,19 -20,37 -38,54 15,14 28,32 38,54l9 32c2,10 3,21 3,34 0,43 -13,80 -39,109 -29,33 -68,49 -119,49l-40 0c-53,0 -101,-16 -143,-47 -11,-8 -16,-19 -16,-32 0,-9 4,-18 12,-27 8,-10 17,-15 28,-15 7,0 15,4 24,10 28,22 59,32 95,32l40 0c24,0 43,-8 57,-24 15,-16 22,-35 22,-56 0,-21 -5,-38 -17,-52 -11,-14 -29,-24 -52,-28zm624 81l0 -319 -159 0c-23,0 -42,8 -57,23 -8,8 -13,16 -17,26 -4,10 -6,20 -6,31l0 239c0,22 8,41 23,56 8,7 16,13 25,18 12,3 22,5 32,5l79 0c22,0 41,-7 57,-22 15,-15 23,-34 23,-57zm39 106c-13,15 -30,27 -53,37 -22,10 -44,15 -66,15l-79 0c-43,0 -80,-15 -111,-46 -32,-30 -48,-68 -48,-113l0 -238c0,-44 16,-81 47,-112 31,-31 68,-46 112,-46l198 0c27,0 40,13 40,39l0 356c0,16 5,33 15,49 9,15 22,26 40,35 16,7 25,18 25,35 0,12 -4,22 -12,29 -7,8 -16,12 -28,12 -6,0 -11,-1 -16,-4 -26,-10 -48,-26 -64,-48zm912 12c0,13 -4,23 -12,30 -7,7 -16,10 -28,10 -10,0 -20,-3 -27,-10 -8,-6 -12,-16 -12,-30l0 -618 -91 91c-8,8 -17,12 -28,12 -9,0 -18,-4 -27,-12 -8,-8 -13,-18 -13,-28 0,-9 4,-18 12,-27l158 -160c6,-5 11,-9 17,-13 5,-3 12,-4 18,-4 7,0 14,4 23,12 6,8 10,19 10,33l0 714zm555 -134c0,47 -17,88 -51,122 -34,35 -75,52 -124,52l-47 0c-47,0 -88,-17 -123,-50 -34,-34 -52,-75 -52,-124l0 -445c0,-46 17,-87 51,-122 34,-35 76,-52 124,-52l47 0c48,0 89,17 123,50 35,34 52,76 52,124l0 445zm-79 0l0 -445c0,-26 -9,-49 -28,-67 -18,-19 -41,-28 -67,-28l-48 0c-26,0 -49,9 -68,28 -18,18 -28,41 -28,67l0 445c0,26 9,48 28,67 19,19 41,28 68,28l48 0c25,0 48,-9 67,-27 19,-18 28,-41 28,-68zm594 -65l-317 0c-12,0 -22,-3 -29,-11 -7,-8 -10,-17 -10,-28 0,-10 3,-19 10,-27 7,-8 17,-13 29,-13l317 0c11,0 21,4 28,12 8,8 12,18 12,28 0,9 -3,18 -10,26 -7,9 -16,13 -30,13zm555 3l80 0c11,0 20,4 28,12 7,8 11,17 11,27 0,9 -3,18 -10,26 -6,9 -16,13 -29,13l-80 0 0 119c0,12 -3,22 -11,29 -7,7 -16,10 -28,10 -10,0 -20,-3 -28,-10 -8,-6 -11,-16 -11,-29l0 -119 -239 0c-27,0 -41,-10 -41,-32l1 -9 2 -9 159 -556c2,-8 7,-15 14,-22l7 -4c4,-2 9,-3 15,-3 12,0 21,4 29,11 8,7 13,17 13,28l-2 12 -145 506 187 0 0 -120c0,-10 3,-20 11,-29 8,-7 18,-10 28,-10 10,0 19,3 27,9 8,7 12,17 12,30l0 120zm1071 -241l-159 0c-23,0 -42,8 -57,23 -8,8 -14,16 -17,26 -4,10 -6,20 -6,31l0 239c0,22 7,41 23,56 8,7 16,13 25,18 12,3 22,5 32,5l79 0c22,0 41,-7 56,-22 16,-15 24,-34 24,-57l0 -319zm0 -78l0 -80c0,-22 -8,-41 -23,-56 -14,-16 -34,-23 -57,-23l-158 0c-13,0 -23,-4 -30,-11 -7,-9 -10,-18 -10,-29 0,-9 3,-18 10,-26 6,-9 16,-13 29,-13l159 0c44,0 82,15 112,46 31,31 47,69 47,113l0 475c0,44 -16,81 -47,112 -31,31 -68,47 -112,47l-79 0c-43,0 -80,-15 -112,-46 -31,-30 -47,-68 -47,-113l0 -238c0,-44 16,-81 47,-112 31,-31 68,-46 112,-46l159 0zm555 237l0 -198c0,-10 4,-20 12,-29 7,-7 17,-10 27,-10 10,0 20,3 27,9 9,7 13,17 13,30l0 476c0,13 -4,23 -12,30 -7,7 -16,10 -28,10 -10,0 -20,-3 -27,-10 -8,-7 -12,-16 -12,-30l0 -199 -239 0 0 199c0,13 -4,23 -11,30 -8,7 -17,10 -29,10 -10,0 -19,-3 -27,-10 -8,-7 -12,-16 -12,-30l0 -476c0,-10 4,-20 12,-29 8,-7 17,-10 27,-10 10,0 20,3 28,9 8,7 12,17 12,30l0 198 239 0zm555 1l0 -160 -160 0c-22,0 -42,8 -59,24 -13,16 -20,35 -20,56 0,21 7,39 20,56 14,16 34,24 59,24l160 0zm-98 79l-147 220c-3,5 -8,10 -15,14l-18 4c-8,0 -17,-4 -27,-12 -9,-8 -13,-17 -13,-28 0,-7 2,-14 6,-22l119 -178c-39,-6 -69,-24 -92,-55 -22,-31 -33,-65 -33,-102 0,-42 13,-79 40,-109 30,-33 69,-49 119,-49l198 0c26,0 40,13 40,39l0 476c0,13 -4,23 -12,30 -7,7 -16,10 -28,10 -10,0 -20,-3 -28,-10 -7,-6 -11,-16 -11,-30l0 -198 -98 0z"/>
  </g>
 </g>
</svg>
