<?xml version="1.0" encoding="UTF-8"?>
<!DOCTYPE svg PUBLIC "-//W3C//DTD SVG 1.0//EN" "http://www.w3.org/TR/2001/REC-SVG-20010904/DTD/svg10.dtd">
<!-- Creator: CorelDRAW X7 -->
<svg xmlns="http://www.w3.org/2000/svg" xml:space="preserve" width="200mm" height="200mm" version="1.0" style="shape-rendering:geometricPrecision; text-rendering:geometricPrecision; image-rendering:optimizeQuality; fill-rule:evenodd; clip-rule:evenodd"
viewBox="0 0 20000 20000"
 xmlns:xlink="http://www.w3.org/1999/xlink">
 <defs>
  <style type="text/css">
   <![CDATA[
    .str1 {stroke:#DBBC4A;stroke-width:25}
    .str0 {stroke:#024541;stroke-width:159.99;stroke-linecap:round;stroke-linejoin:round}
    .fil2 {fill:#DCBD49}
    .fil1 {fill:#F8FAFC}
    .fil0 {fill:url(#id0)}
   ]]>
  </style>
  <radialGradient id="id0" gradientUnits="userSpaceOnUse" gradientTransform="matrix(1.41421 -0 -0 1.41421 -4140 -4144)" cx="9994.72" cy="10005.3" r="10000" fx="9994.72" fy="10005.3">
   <stop offset="0" style="stop-opacity:1; stop-color:#FEFEFE"/>
   <stop offset="0.431373" style="stop-opacity:1; stop-color:#FEFEFE"/>
   <stop offset="1" style="stop-opacity:1; stop-color:#D1E2F2"/>
  </radialGradient>
 </defs>
 <g id="Layer_x0020_1">
  <metadata id="CorelCorpID_0Corel-Layer"/>
  <g id="_399394910624">
   <path class="fil0" d="M-5 5l20000 0 0 20000 -20000 0 0 -20000z"/>
   <g>
    <path class="fil1 str0" d="M8838 686l0 8832c-2206,0 -3683,0 -5889,0l0 -8832 5889 0z"/>
    <path class="fil2 str1" d="M4700 1842l-133 0c-28,0 -53,-11 -74,-31 -21,-21 -32,-46 -32,-76l0 -318c0,-30 11,-55 31,-75 21,-21 46,-31 75,-31l133 0c8,0 14,3 19,8 5,5 8,11 8,18 0,6 -2,12 -7,18 -4,6 -11,9 -20,9l-133 0c-15,0 -27,5 -38,15 -5,5 -9,11 -11,17 -3,6 -4,13 -4,21l0 319c0,15 5,27 15,38 6,4 11,8 17,11 8,3 15,4 21,4l133 0c8,0 14,3 19,8 5,5 8,12 8,18 0,6 -2,12 -7,18 -4,6 -11,9 -20,9zm451 -27c0,8 -3,15 -8,20 -4,4 -11,7 -19,7 -7,0 -13,-3 -18,-7 -5,-4 -8,-11 -8,-20l0 -451 -213 0 0 451c0,8 -2,15 -7,20 -5,4 -11,7 -19,7 -7,0 -13,-3 -18,-7 -6,-4 -8,-11 -8,-20l0 -478c0,-17 8,-26 26,-26l265 0c18,0 27,9 27,26l0 478zm159 -239l159 0c15,0 27,-5 38,-15 10,-9 15,-22 15,-38l0 -106c0,-15 -5,-28 -15,-38 -9,-10 -22,-15 -38,-15l-159 0 0 212zm0 53l0 186c0,8 -3,15 -8,20 -4,4 -11,7 -19,7 -7,0 -13,-3 -18,-7 -5,-4 -8,-11 -8,-20l0 -478c0,-17 9,-26 27,-26l185 0c30,0 55,10 75,31 21,21 31,46 31,75l0 106c0,29 -10,54 -31,75 -21,21 -46,31 -75,31l-159 0zm412 80l-39 114c-2,6 -5,10 -10,14 -3,2 -8,4 -14,5 -7,0 -13,-3 -19,-8 -5,-5 -8,-11 -8,-18l2 -10 159 -477c6,-15 14,-23 25,-23 12,0 20,8 25,23l159 477 2 10c0,7 -3,13 -9,18 -5,5 -12,8 -18,8 -4,0 -8,-1 -12,-3 -5,-2 -9,-7 -13,-16l-38 -114 -192 0zm174 -54l-78 -234 -78 234 156 0zm477 -116c16,9 28,22 37,38 9,16 14,34 14,52l0 106c0,30 -10,55 -31,75 -21,21 -46,32 -75,32l-186 0c-17,0 -26,-9 -26,-27l0 -478c0,-17 9,-26 26,-26l160 0c29,0 54,10 75,31 20,21 31,46 31,75l0 53c0,12 -2,24 -6,35 -4,12 -10,23 -19,34zm-214 37l0 213 159 0c15,0 27,-5 38,-15 10,-10 15,-23 15,-38l0 -107c0,-15 -5,-27 -15,-37 -10,-11 -22,-16 -38,-16l-159 0zm133 -53c14,0 27,-5 37,-15 11,-9 16,-22 16,-38l0 -53c0,-15 -5,-28 -15,-38 -10,-10 -23,-15 -38,-15l-133 0 0 159 133 0zm291 17l224 -222c5,-5 11,-7 18,-7 7,0 13,3 18,8 6,5 9,12 9,19 0,5 -3,11 -8,18l-158 157 163 289 4 14c0,7 -3,13 -9,18 -5,5 -12,8 -19,8 -9,0 -17,-5 -23,-14l-156 -277 -63 62 0 202c0,8 -2,15 -7,20 -5,4 -12,7 -19,7 -7,0 -14,-3 -19,-7 -5,-4 -8,-11 -8,-20l0 -478c0,-7 3,-13 8,-18 6,-6 12,-8 19,-8 6,0 13,2 18,6 5,4 8,11 8,20l0 203zm465 169l-39 114c-2,6 -5,10 -9,14 -4,2 -9,4 -15,5 -7,0 -13,-3 -18,-8 -6,-5 -9,-11 -9,-18l2 -10 159 -477c6,-15 14,-23 25,-23 12,0 20,8 25,23l159 477 2 10c0,7 -3,13 -9,18 -5,5 -11,8 -18,8 -4,0 -8,-1 -12,-3 -5,-2 -9,-7 -12,-16l-39 -114 -192 0zm175 -54l-79 -234 -78 234 157 0zm-3704 823l-159 0c-29,0 -54,-10 -75,-31 -21,-20 -31,-45 -31,-75l0 -186c0,-7 2,-13 7,-19 6,-5 12,-7 19,-7 7,0 13,2 18,7 6,4 8,11 8,19l0 186c0,15 5,28 16,38 5,5 11,9 17,12 7,2 14,3 21,3l159 0 0 -239c0,-7 3,-13 8,-19 5,-5 11,-7 18,-7 7,0 13,2 19,7 5,4 8,11 8,19l0 399c0,29 -11,54 -31,75 -21,20 -46,31 -75,31l-133 0c-8,0 -14,-3 -20,-8 -4,-5 -6,-11 -6,-19 0,-6 2,-12 7,-17 4,-6 11,-9 19,-9l133 0c15,0 27,-5 37,-15 11,-10 16,-22 16,-38l0 -107zm398 213l-133 0c-29,0 -53,-11 -75,-31 -21,-21 -31,-46 -31,-75l0 -319c0,-29 10,-55 31,-75 20,-21 46,-31 75,-31l133 0c7,0 14,3 19,8 5,5 8,12 8,18 0,6 -3,12 -7,18 -5,6 -11,9 -20,9l-133 0c-15,0 -28,5 -38,15 -5,5 -9,11 -11,17 -3,7 -4,14 -4,21l0 319c0,15 5,27 15,38 5,4 11,8 17,11 8,3 15,4 21,4l133 0c7,0 14,3 19,8 5,6 8,12 8,18 0,7 -3,12 -7,18 -5,6 -11,9 -20,9zm265 -478l-106 0c-8,0 -15,-3 -20,-7 -4,-6 -7,-13 -7,-20 0,-6 3,-12 7,-17 4,-6 11,-9 20,-9l265 0c7,0 14,3 19,8 5,5 8,12 8,18 0,6 -3,12 -7,18 -4,6 -11,9 -20,9l-106 0 0 451c0,9 -3,15 -8,20 -4,5 -11,7 -19,7 -7,0 -13,-2 -18,-7 -5,-4 -8,-11 -8,-20l0 -451zm279 345l-38 115c-3,5 -6,10 -10,13 -4,3 -9,4 -15,5 -7,0 -13,-3 -18,-8 -6,-4 -9,-10 -9,-18l2 -9 159 -478c6,-15 14,-23 25,-23 12,0 20,8 25,23l159 478 2 9c0,7 -3,13 -9,19 -5,4 -11,7 -18,7 -4,0 -8,-1 -12,-3 -5,-2 -9,-7 -12,-15l-39 -115 -192 0zm175 -54l-79 -234 -78 234 157 0zm475 -131l0 -187c0,-7 2,-13 7,-18 6,-5 12,-8 19,-8 7,0 13,2 18,7 6,4 8,11 8,19l0 478c0,7 -2,14 -8,20 -6,4 -12,7 -18,7 -7,0 -13,-2 -19,-7 -5,-4 -7,-10 -7,-19l0 -240 -213 0 0 239c0,9 -3,15 -8,20 -4,5 -11,7 -18,7 -7,0 -14,-2 -19,-7 -5,-4 -8,-11 -8,-20l0 -477c0,-7 3,-14 8,-20 5,-4 12,-7 19,-7 6,0 12,3 18,7 5,4 8,11 8,20l0 186 213 0zm477 212c0,29 -11,54 -31,75 -21,20 -46,31 -75,31l-106 0c-29,0 -54,-11 -75,-31 -21,-21 -31,-46 -31,-75l0 -319c0,-29 10,-55 30,-75 21,-21 46,-31 76,-31l106 0c29,0 54,10 75,31 20,21 31,46 31,75l0 319zm-53 0l0 -319c0,-15 -5,-28 -15,-38 -10,-10 -23,-15 -38,-15l-107 0c-14,0 -27,5 -38,15 -5,5 -8,11 -11,17 -2,7 -4,14 -4,21l0 319c0,15 5,27 15,38 6,4 12,8 18,11 7,3 14,4 20,4l107 0c15,0 27,-5 37,-15 11,-10 16,-22 16,-38zm469 -197c15,9 27,22 37,38 9,17 14,34 14,53l0 106c0,29 -11,54 -31,75 -21,20 -46,31 -76,31l-185 0c-18,0 -27,-9 -27,-27l0 -478c0,-17 9,-26 27,-26l159 0c30,0 55,10 75,31 21,21 31,46 31,75l0 53c0,12 -2,24 -6,36 -3,11 -9,22 -18,33zm-215 37l0 213 160 0c14,0 27,-5 37,-15 11,-10 16,-22 16,-38l0 -106c0,-15 -5,-28 -15,-38 -10,-10 -23,-16 -38,-16l-160 0zm133 -52c15,0 27,-5 38,-15 10,-10 15,-23 15,-39l0 -53c0,-15 -5,-28 -15,-38 -10,-10 -22,-15 -38,-15l-133 0 0 160 133 0zm501 291c0,9 -3,15 -8,20 -4,5 -11,7 -18,7 -7,0 -14,-2 -19,-7 -5,-4 -8,-11 -8,-20l0 -451 -86 0 -128 458c0,5 -3,10 -8,14 -5,4 -11,6 -17,6 -8,0 -14,-2 -19,-7 -5,-4 -8,-10 -8,-19 0,-3 1,-6 1,-8l133 -477c4,-13 12,-20 26,-20l132 0c18,0 27,9 27,26l0 478zm158 -291l134 0c7,0 13,2 18,8 6,5 8,11 8,18 0,6 -2,12 -6,18 -5,6 -12,8 -20,8l-134 0 0 213 187 0c7,0 13,3 19,8 5,6 7,12 7,18 0,7 -2,13 -6,18 -5,6 -11,9 -20,9l-213 0c-18,0 -27,-9 -27,-25l0 -480c0,-17 9,-26 27,-26l213 0c7,0 13,3 19,8 5,5 7,12 7,18 0,7 -2,13 -6,18 -5,6 -11,9 -20,9l-187 0 0 160zm584 0l0 -187c0,-7 3,-13 8,-18 5,-5 12,-8 19,-8 6,0 12,2 18,7 5,4 8,11 8,19l0 478c0,7 -3,14 -8,20 -7,4 -13,7 -19,7 -6,0 -13,-2 -18,-7 -5,-4 -8,-10 -8,-19l0 -240 -212 0 0 239c0,9 -3,15 -8,20 -5,5 -11,7 -19,7 -7,0 -13,-2 -18,-7 -6,-4 -8,-11 -8,-20l0 -477c0,-7 2,-14 8,-20 5,-4 11,-7 18,-7 7,0 13,3 18,7 6,4 9,11 9,20l0 186 212 0zm425 0l0 -187c0,-7 2,-13 7,-18 6,-5 12,-8 19,-8 7,0 13,2 18,7 6,4 8,11 8,19l0 478c0,7 -2,14 -8,20 -6,4 -12,7 -18,7 -7,0 -13,-2 -19,-7 -5,-4 -7,-10 -7,-19l0 -240 -213 0 0 239c0,9 -3,15 -8,20 -4,5 -11,7 -18,7 -7,0 -14,-2 -19,-7 -5,-4 -8,-11 -8,-20l0 -477c0,-7 3,-14 8,-20 5,-4 12,-7 19,-7 6,0 12,3 18,7 5,4 8,11 8,20l0 186 213 0zm477 212c0,29 -11,54 -31,75 -21,20 -46,31 -75,31l-106 0c-29,0 -54,-11 -75,-31 -21,-21 -31,-46 -31,-75l0 -319c0,-29 10,-55 30,-75 21,-21 46,-31 76,-31l106 0c29,0 54,10 75,31 20,21 31,46 31,75l0 319zm-53 0l0 -319c0,-15 -5,-28 -15,-38 -10,-10 -23,-15 -38,-15l-107 0c-14,0 -27,5 -38,15 -5,5 -8,11 -11,17 -2,7 -4,14 -4,21l0 319c0,15 5,27 15,38 6,4 12,8 18,11 7,3 14,4 20,4l107 0c15,0 27,-5 37,-15 11,-10 16,-22 16,-38zm414 -478l-107 0c-8,0 -14,-2 -19,-7 -5,-6 -7,-12 -7,-19 0,-6 2,-12 7,-18 4,-6 11,-9 19,-9l107 0c7,0 13,3 18,9 6,5 8,11 8,18 0,6 -2,12 -7,18 -4,5 -11,8 -19,8zm106 557c0,9 -3,15 -8,20 -5,5 -11,7 -19,7 -7,0 -13,-2 -18,-7 -6,-4 -8,-11 -8,-20l0 -375 -216 388c-3,6 -7,10 -11,13l-6 3c-2,1 -5,2 -8,2 -5,0 -11,-2 -18,-8 -4,-5 -7,-13 -7,-22l0 -478c0,-7 3,-14 8,-20 6,-4 12,-7 19,-7 6,0 13,3 18,7 5,4 8,11 8,20l0 375 216 -388c2,-4 6,-8 11,-13 5,-3 9,-5 14,-5 6,0 12,3 17,9 5,5 8,12 8,22l0 477zm-3537 477l0 241 26 0c29,0 54,-11 75,-32 21,-21 31,-46 31,-75l0 -27c0,-29 -10,-53 -30,-75 -21,-21 -46,-32 -76,-32l-26 0zm-53 241l0 -241 -27 0c-29,0 -53,10 -74,31 -21,21 -32,46 -32,76l0 27c0,29 10,54 31,75 21,21 46,32 75,32l27 0zm0 52l-27 0c-44,0 -81,-15 -112,-46 -31,-31 -47,-69 -47,-113l0 -27c0,-43 16,-81 47,-112 31,-32 68,-48 112,-48l27 0 0 -52c0,-7 2,-14 8,-20 5,-5 11,-7 18,-7 7,0 13,2 18,7 6,4 9,11 9,20l0 52 26 0c44,0 81,16 113,47 14,15 25,32 34,51 8,19 12,40 12,62l0 27c0,43 -15,80 -46,112 -31,32 -69,47 -113,47l-26 0 0 80c0,8 -3,15 -8,20 -5,4 -11,6 -19,6 -7,0 -13,-2 -18,-7 -6,-4 -8,-11 -8,-19l0 -80zm663 0c0,29 -10,54 -31,75 -21,21 -46,31 -75,31l-106 0c-29,0 -54,-10 -75,-31 -21,-20 -31,-46 -31,-75l0 -319c0,-29 10,-54 31,-75 20,-20 45,-31 75,-31l106 0c30,0 55,11 75,31 21,21 31,46 31,75l0 319zm-53 0l0 -319c0,-15 -5,-27 -15,-38 -10,-10 -22,-15 -38,-15l-106 0c-15,0 -28,5 -38,15 -5,5 -9,11 -12,17 -2,7 -3,14 -3,21l0 319c0,15 5,28 15,38 5,5 11,8 17,11 8,3 15,4 21,4l106 0c15,0 27,-5 38,-15 10,-9 15,-22 15,-38zm255 -159l159 0c15,0 27,-5 38,-15 10,-10 15,-23 15,-39l0 -106c0,-15 -5,-27 -15,-38 -10,-10 -23,-15 -38,-15l-159 0 0 213zm0 52l0 186c0,9 -3,16 -8,21 -5,4 -11,6 -19,6 -7,0 -13,-2 -18,-7 -6,-4 -8,-11 -8,-19l0 -478c0,-18 9,-27 26,-27l186 0c29,0 54,11 75,31 21,21 31,46 31,75l0 106c0,29 -10,54 -31,75 -21,21 -46,31 -75,31l-159 0zm743 187c0,8 -2,15 -7,20 -5,4 -12,6 -19,6 -7,0 -12,-2 -18,-7 -6,-4 -9,-11 -9,-19l0 -379 -110 183c-6,11 -14,17 -23,17 -7,0 -15,-6 -23,-17l-110 -183 0 379c0,8 -3,15 -8,20 -4,4 -11,6 -18,6 -7,0 -14,-2 -19,-7 -5,-4 -8,-11 -8,-19l0 -476c0,-10 3,-17 8,-22 4,-6 10,-8 16,-8 5,0 10,1 13,3 4,3 8,7 12,14l137 227 137 -227c6,-12 14,-17 25,-17 6,0 12,2 17,8 5,6 7,13 7,22l0 476zm477 0c0,8 -2,15 -7,20 -5,4 -11,6 -19,6 -7,0 -13,-2 -19,-7 -5,-4 -7,-11 -7,-19l0 -478c0,-7 2,-14 7,-20 6,-5 12,-7 19,-7 7,0 13,2 18,7 6,4 8,11 8,20l0 478zm-319 -239l0 212 107 0c15,0 27,-5 38,-15 10,-9 15,-22 15,-38l0 -106c0,-15 -5,-28 -15,-38 -10,-10 -23,-15 -38,-15l-107 0zm0 -53l107 0c29,0 54,10 74,31 22,20 32,45 32,75l0 106c0,29 -10,54 -31,75 -21,21 -46,31 -75,31l-133 0c-18,0 -26,-9 -26,-26l0 -478c0,-7 2,-14 7,-20 6,-5 12,-7 19,-7 7,0 13,2 18,7 6,4 8,11 8,20l0 186z"/>
   </g>
   <g>
    <path class="fil1 str0" d="M12045 3891l0 8833c-2205,0 -3683,0 -5888,0l0 -8833 5888 0z"/>
    <path class="fil2 str1" d="M6991 4782l-80 0c-8,0 -14,-3 -20,-8 -4,-5 -6,-11 -6,-19 0,-6 2,-12 7,-18 4,-5 11,-8 19,-8l80 0c14,0 27,-5 37,-15 11,-10 16,-23 16,-38l0 -54c0,-15 -5,-27 -15,-38 -10,-10 -23,-15 -38,-15l-53 0c-12,0 -22,3 -31,10 -9,6 -15,15 -19,27 -2,5 -5,9 -9,12 -2,2 -5,4 -7,5l-9 1c-7,0 -14,-2 -20,-7 -5,-5 -8,-11 -8,-19l2 -9c7,-21 19,-39 38,-52 18,-14 39,-21 63,-21l53 0c29,0 54,11 75,31 20,21 31,46 31,76l0 53c0,15 -3,30 -10,44 -6,14 -15,26 -26,35 24,20 36,47 36,80l0 106c0,29 -11,54 -31,75 -21,21 -46,31 -75,31l-53 0c-23,0 -44,-6 -62,-20 -18,-13 -31,-31 -39,-53l-2 -9c0,-7 3,-13 8,-18 6,-6 12,-8 20,-8 11,0 19,5 24,17 3,11 10,20 19,29 11,6 21,9 32,9l53 0c14,0 27,-5 37,-14 11,-10 16,-23 16,-39l0 -106c0,-16 -4,-28 -12,-37 -9,-11 -23,-16 -41,-16zm278 132l-38 115c-3,5 -6,10 -10,14 -4,2 -9,3 -15,4 -7,0 -13,-2 -18,-7 -6,-5 -9,-11 -9,-19l2 -9 159 -478c6,-15 14,-22 25,-22 12,0 20,7 25,22l159 478 2 9c0,7 -3,13 -9,19 -5,5 -11,7 -18,7 -4,0 -8,-1 -12,-3 -5,-1 -9,-6 -12,-15l-39 -115 -192 0zm175 -54l-79 -233 -78 233 157 0zm448 -291l-186 0 0 452c0,8 -3,15 -8,20 -4,4 -11,6 -19,6 -6,0 -13,-2 -18,-6 -5,-5 -8,-12 -8,-20l0 -478c0,-18 9,-27 27,-27l212 0c7,0 14,3 19,8 5,6 8,12 8,19 0,6 -3,12 -7,17 -4,6 -11,9 -20,9zm185 213l160 0c14,0 27,-5 37,-15 11,-10 16,-23 16,-38l0 -107c0,-15 -5,-27 -15,-38 -10,-10 -23,-15 -38,-15l-160 0 0 213zm0 53l0 186c0,8 -2,15 -7,20 -5,4 -11,6 -19,6 -7,0 -13,-2 -19,-6 -5,-5 -8,-12 -8,-20l0 -478c0,-18 9,-27 27,-27l186 0c29,0 54,11 75,31 20,21 31,46 31,75l0 106c0,30 -11,54 -31,75 -21,21 -46,32 -76,32l-159 0zm412 79l-38 115c-2,5 -6,10 -10,14 -4,2 -9,3 -15,4 -7,0 -13,-2 -18,-7 -6,-5 -9,-11 -9,-19l2 -9 160 -478c5,-15 13,-22 25,-22 11,0 19,7 25,22l158 478 2 9c0,7 -3,13 -8,19 -6,5 -12,7 -19,7 -4,0 -7,-1 -12,-3 -4,-1 -9,-6 -12,-15l-39 -115 -192 0zm175 -54l-78 -233 -79 233 157 0zm475 -131l0 -186c0,-7 2,-14 8,-19 5,-5 11,-8 18,-8 7,0 13,3 18,7 6,4 8,11 8,20l0 477c0,8 -2,14 -8,20 -6,5 -12,7 -18,7 -7,0 -13,-2 -19,-6 -5,-5 -7,-11 -7,-20l0 -239 -213 0 0 239c0,8 -2,15 -7,20 -5,4 -12,6 -19,6 -7,0 -14,-2 -19,-6 -5,-5 -8,-12 -8,-20l0 -478c0,-7 3,-14 8,-20 5,-4 12,-6 19,-6 6,0 13,2 18,6 5,5 8,11 8,20l0 186 213 0zm477 292c0,8 -3,15 -8,20 -4,4 -11,6 -19,6 -6,0 -13,-2 -18,-6 -5,-5 -8,-12 -8,-20l0 -375 -215 388c-3,5 -7,9 -12,12l-6 4c-2,0 -4,1 -8,2 -5,0 -11,-3 -17,-8 -5,-6 -7,-13 -7,-23l0 -478c0,-7 2,-14 8,-20 5,-4 11,-6 18,-6 7,0 13,2 18,6 6,5 8,11 8,20l0 375 216 -388c2,-4 6,-8 11,-12 5,-4 10,-6 15,-6 5,0 11,3 16,9 5,5 8,13 8,22l0 478zm372 -239l0 -239c0,-7 2,-14 7,-20 6,-4 12,-7 19,-7 7,0 13,3 18,7 6,4 8,11 8,20l0 478c0,8 -2,15 -7,20 -5,4 -11,6 -19,6 -7,0 -13,-2 -19,-6 -5,-5 -7,-12 -7,-20l0 -186 -160 0c-29,0 -53,-11 -74,-31 -21,-21 -32,-46 -32,-76l0 -185c0,-7 3,-14 8,-20 5,-4 11,-7 18,-7 7,0 13,3 19,7 5,4 8,11 8,20l0 186c0,15 5,27 15,38 5,4 11,8 17,11 8,2 15,4 21,4l160 0zm424 -53l0 -186c0,-7 2,-14 8,-19 5,-5 11,-8 18,-8 7,0 13,3 19,7 5,4 8,11 8,20l0 477c0,8 -3,14 -9,20 -6,5 -12,7 -18,7 -7,0 -13,-2 -19,-6 -5,-5 -7,-11 -7,-20l0 -239 -213 0 0 239c0,8 -2,15 -7,20 -5,4 -11,6 -19,6 -7,0 -13,-2 -19,-6 -5,-5 -8,-12 -8,-20l0 -478c0,-7 3,-14 8,-20 6,-4 12,-6 19,-6 7,0 13,2 18,6 6,5 8,11 8,20l0 186 213 0zm531 292c0,8 -3,15 -8,20 -5,4 -11,6 -19,6 -7,0 -13,-2 -18,-6 -6,-5 -8,-12 -8,-20l0 -478c0,-7 2,-14 8,-20 5,-4 11,-7 18,-7 7,0 13,3 19,7 5,4 8,11 8,20l0 478zm-319 -239l0 212 106 0c15,0 28,-5 38,-14 10,-10 16,-23 16,-39l0 -106c0,-15 -6,-28 -15,-38 -11,-10 -23,-15 -39,-15l-106 0zm0 -53l106 0c29,0 54,10 75,31 21,20 31,46 31,75l0 106c0,29 -10,54 -31,75 -21,21 -46,31 -75,31l-133 0c-17,0 -26,-9 -26,-26l0 -478c0,-7 2,-14 8,-20 5,-4 11,-7 18,-7 7,0 13,3 19,7 5,4 8,11 8,20l0 186zm637 -265l-107 0c-8,0 -14,-3 -19,-8 -5,-5 -7,-12 -7,-19 0,-6 2,-12 7,-18 4,-5 11,-8 19,-8l107 0c7,0 13,2 18,8 6,5 8,11 8,18 0,6 -2,12 -7,18 -4,6 -11,9 -19,9zm106 557c0,8 -3,15 -8,20 -5,4 -11,6 -19,6 -7,0 -13,-2 -18,-6 -6,-5 -8,-12 -8,-20l0 -375 -216 388c-3,5 -7,9 -11,12l-6 4c-2,0 -5,1 -8,2 -5,0 -11,-3 -18,-8 -4,-6 -7,-13 -7,-23l0 -478c0,-7 3,-14 8,-20 6,-4 12,-6 19,-6 6,0 13,2 18,6 5,5 8,11 8,20l0 375 215 -387c3,-5 7,-9 12,-13 5,-4 9,-6 14,-6 6,0 11,3 17,9 5,6 8,13 8,22l0 478zm-3390 849c0,8 -2,15 -8,20 -4,4 -11,6 -18,6 -7,0 -14,-2 -19,-6 -5,-5 -8,-11 -8,-20l0 -452 -212 0 0 452c0,8 -3,15 -8,20 -5,4 -11,6 -19,6 -7,0 -13,-2 -18,-6 -6,-5 -8,-11 -8,-20l0 -478c0,-18 9,-27 26,-27l265 0c18,0 27,9 27,27l0 478zm199 -106l-38 114c-2,6 -5,10 -10,14 -3,2 -8,4 -14,4 -7,0 -13,-2 -19,-7 -6,-5 -8,-11 -8,-18l1 -10 160 -477c5,-16 14,-23 25,-23 11,0 20,7 25,23l159 477 2 10c0,6 -3,13 -9,18 -6,5 -12,7 -19,7 -3,0 -7,-1 -12,-2 -4,-2 -8,-7 -12,-16l-38 -114 -193 0zm175 -55l-78 -233 -78 233 156 0zm449 187l-133 0c-29,0 -54,-10 -75,-31 -21,-20 -31,-45 -31,-75l0 -318c0,-30 10,-55 31,-76 20,-20 45,-31 75,-31l133 0c7,0 13,3 18,9 6,5 8,11 8,18 0,6 -2,12 -6,18 -5,5 -12,8 -20,8l-133 0c-15,0 -28,5 -38,15 -6,6 -9,11 -12,18 -2,6 -4,13 -4,20l0 319c0,15 5,28 16,38 5,5 11,9 17,12 7,2 14,4 21,4l133 0c7,0 13,2 18,8 6,5 8,11 8,18 0,6 -2,12 -6,18 -5,6 -12,8 -20,8zm450 -26c0,8 -2,15 -7,20 -5,4 -11,6 -19,6 -7,0 -13,-2 -19,-6 -5,-5 -8,-11 -8,-20l0 -452 -212 0 0 452c0,8 -3,15 -8,20 -5,4 -11,6 -19,6 -7,0 -13,-2 -18,-6 -5,-5 -8,-11 -8,-20l0 -478c0,-18 9,-27 27,-27l265 0c17,0 26,9 26,27l0 478zm425 -80c0,29 -11,54 -31,75 -21,21 -46,31 -75,31l-107 0c-28,0 -53,-10 -74,-31 -21,-20 -32,-45 -32,-75l0 -318c0,-30 11,-55 31,-76 21,-20 46,-31 75,-31l107 0c29,0 54,11 75,32 20,20 31,45 31,75l0 318zm-53 0l0 -319c0,-15 -5,-27 -15,-37 -10,-11 -23,-16 -38,-16l-107 0c-15,0 -27,5 -38,15 -5,6 -8,11 -11,18 -3,6 -4,13 -4,20l0 319c0,15 5,28 15,38 6,5 11,9 18,12 7,2 14,4 20,4l107 0c14,0 27,-5 37,-15 11,-10 16,-23 16,-39zm254 -159l159 0c15,0 28,-5 38,-15 10,-10 16,-23 16,-38l0 -107c0,-15 -5,-27 -15,-37 -10,-11 -23,-16 -39,-16l-159 0 0 213zm0 53l0 186c0,8 -2,15 -7,20 -5,4 -12,6 -19,6 -7,0 -14,-2 -19,-6 -5,-5 -8,-11 -8,-20l0 -478c0,-18 9,-27 27,-27l185 0c30,0 55,11 76,32 20,20 30,45 30,75l0 106c0,29 -10,54 -31,74 -20,21 -45,32 -75,32l-159 0zm477 -266l-106 0c-8,0 -14,-2 -19,-7 -5,-6 -7,-12 -7,-19 0,-6 2,-12 6,-18 5,-6 11,-9 20,-9l265 0c8,0 14,3 19,9 5,5 8,11 8,18 0,6 -2,12 -7,18 -4,5 -11,8 -20,8l-106 0 0 452c0,8 -2,15 -7,20 -5,4 -11,6 -19,6 -7,0 -13,-2 -19,-6 -5,-5 -8,-11 -8,-20l0 -452z"/>
   </g>
   <g>
    <path class="fil1 str0" d="M14935 6391l0 8833c-2205,0 -3682,0 -5888,0l0 -8833 5888 0z"/>
    <g>
     <path class="fil2 str1" d="M10434 6967c16,9 28,22 37,38 9,16 14,34 14,52l0 106c0,30 -10,55 -31,75 -21,21 -46,32 -75,32l-186 0c-17,0 -26,-9 -26,-27l0 -478c0,-17 9,-26 26,-26l159 0c30,0 55,10 76,31 20,21 31,46 31,75l0 53c0,12 -2,24 -6,35 -4,12 -10,23 -19,34zm-214 37l0 213 159 0c15,0 27,-5 38,-15 10,-10 15,-23 15,-38l0 -107c0,-15 -5,-27 -15,-37 -10,-11 -23,-16 -38,-16l-159 0zm133 -53c14,0 27,-5 37,-15 11,-9 16,-22 16,-38l0 -53c0,-15 -5,-28 -15,-38 -10,-10 -23,-15 -38,-15l-133 0 0 159 133 0zm291 53l159 0c15,0 28,-5 38,-15 10,-9 16,-22 16,-38l0 -106c0,-15 -5,-28 -15,-38 -10,-10 -23,-15 -39,-15l-159 0 0 212zm0 53l0 186c0,8 -3,15 -8,20 -4,4 -11,7 -18,7 -7,0 -14,-3 -19,-7 -5,-4 -8,-11 -8,-20l0 -478c0,-17 9,-26 27,-26l185 0c30,0 55,10 75,31 21,21 31,46 31,75l0 106c0,29 -10,54 -31,75 -21,21 -45,31 -75,31l-159 0zm424 -106l134 0c7,0 13,3 19,9 5,5 7,11 7,18 0,6 -2,12 -6,18 -5,5 -11,8 -20,8l-134 0 0 213 187 0c7,0 13,3 19,8 5,5 7,12 7,18 0,7 -2,13 -6,18 -5,6 -11,9 -20,9l-213 0c-18,0 -26,-9 -26,-25l0 -480c0,-17 8,-26 26,-26l213 0c7,0 14,3 19,8 5,5 7,11 7,18 0,7 -2,12 -6,18 -5,6 -11,9 -20,9l-187 0 0 159zm691 292c0,8 -3,15 -7,20 -5,4 -12,7 -20,7 -6,0 -12,-3 -17,-7 -6,-4 -9,-11 -9,-20l0 -379 -110 184c-6,11 -14,17 -23,17 -8,0 -15,-6 -23,-17l-110 -184 0 379c0,8 -3,15 -8,20 -5,4 -11,7 -19,7 -7,0 -13,-3 -18,-7 -5,-4 -8,-11 -8,-20l0 -475c0,-10 3,-18 8,-23 4,-5 10,-8 16,-8 5,0 9,2 13,4 4,3 8,7 12,13l137 228 136 -228c6,-11 15,-17 26,-17 6,0 12,3 17,9 4,5 7,13 7,22l0 475zm158 -292l134 0c7,0 13,3 18,9 6,5 8,11 8,18 0,6 -2,12 -6,18 -5,5 -12,8 -20,8l-134 0 0 213 187 0c7,0 13,3 19,8 5,5 7,12 7,18 0,7 -2,13 -6,18 -5,6 -11,9 -20,9l-213 0c-18,0 -27,-9 -27,-25l0 -480c0,-17 9,-26 27,-26l213 0c7,0 13,3 19,8 5,5 7,11 7,18 0,7 -2,12 -6,18 -5,6 -11,9 -20,9l-187 0 0 159zm584 0l0 -186c0,-7 3,-13 8,-18 5,-6 12,-8 19,-8 6,0 12,2 18,6 5,5 8,12 8,20l0 477c0,8 -3,15 -8,20 -7,5 -13,8 -19,8 -6,0 -13,-3 -18,-7 -5,-4 -8,-11 -8,-20l0 -239 -212 0 0 239c0,8 -3,15 -8,20 -5,4 -11,7 -19,7 -7,0 -13,-3 -18,-7 -6,-4 -8,-11 -8,-20l0 -477c0,-7 2,-14 8,-20 5,-5 11,-7 18,-7 7,0 13,2 18,7 6,4 9,11 9,20l0 185 212 0zm425 0l0 -186c0,-7 2,-13 7,-18 6,-6 12,-8 19,-8 7,0 13,2 18,6 6,5 8,12 8,20l0 477c0,8 -2,15 -8,20 -6,5 -12,8 -18,8 -7,0 -13,-3 -19,-7 -5,-4 -7,-11 -7,-20l0 -239 -213 0 0 239c0,8 -3,15 -8,20 -4,4 -11,7 -18,7 -7,0 -14,-3 -19,-7 -5,-4 -8,-11 -8,-20l0 -477c0,-7 3,-14 8,-20 5,-5 12,-7 19,-7 6,0 12,2 18,7 5,4 8,11 8,20l0 185 213 0zm477 212c0,30 -11,55 -31,75 -21,21 -46,32 -75,32l-106 0c-29,0 -54,-11 -75,-31 -21,-21 -31,-46 -31,-76l0 -318c0,-30 10,-55 30,-75 21,-21 46,-31 76,-31l106 0c29,0 54,10 75,31 20,21 31,46 31,75l0 318zm-53 1l0 -319c0,-15 -5,-28 -15,-38 -10,-10 -23,-15 -38,-15l-107 0c-14,0 -27,5 -38,15 -5,5 -8,11 -11,17 -2,7 -4,13 -4,21l0 319c0,15 5,27 15,38 6,4 12,8 18,11 7,3 14,4 20,4l107 0c15,0 27,-5 37,-15 11,-10 16,-23 16,-38zm254 -213l134 0c7,0 13,3 18,9 6,5 8,11 8,18 0,6 -2,12 -6,18 -5,5 -12,8 -20,8l-134 0 0 213 187 0c7,0 13,3 19,8 5,5 7,12 7,18 0,7 -2,13 -6,18 -5,6 -11,9 -20,9l-213 0c-18,0 -27,-9 -27,-25l0 -480c0,-17 9,-26 27,-26l213 0c7,0 13,3 19,8 5,5 7,11 7,18 0,7 -2,12 -6,18 -5,6 -11,9 -20,9l-187 0 0 159zm-3978 955l-159 0c-29,0 -54,-10 -75,-31 -21,-20 -31,-45 -31,-75l0 -185c0,-8 2,-14 8,-20 5,-5 11,-7 18,-7 7,0 13,2 18,7 6,4 8,11 8,20l0 185c0,15 5,28 16,38 5,5 11,9 17,12 7,2 14,3 21,3l159 0 0 -238c0,-8 3,-14 8,-20 5,-5 11,-7 18,-7 7,0 13,2 19,7 5,4 8,11 8,20l0 398c0,29 -11,54 -31,75 -21,20 -46,31 -75,31l-133 0c-8,0 -14,-3 -19,-8 -5,-5 -7,-11 -7,-19 0,-6 2,-12 7,-17 4,-6 11,-9 19,-9l133 0c15,0 27,-5 38,-15 10,-10 15,-22 15,-38l0 -107zm191 160l50 -455c0,-15 9,-23 27,-23l159 0c18,0 26,9 26,27l0 451 27 0c18,0 27,9 27,26l0 53c0,7 -3,14 -8,19 -6,5 -12,8 -19,8 -6,0 -11,-3 -17,-7 -6,-4 -9,-11 -9,-20l0 -26 -266 0 0 26c0,7 -3,14 -8,19 -6,5 -12,8 -19,8 -6,0 -11,-3 -17,-7 -6,-4 -9,-11 -9,-20l0 -53c0,-17 9,-26 27,-26l29 0zm210 0l0 -425 -109 0 -48 425 157 0zm506 -53c0,29 -11,54 -31,75 -21,20 -46,31 -75,31l-106 0c-29,0 -54,-10 -75,-31 -21,-21 -31,-46 -31,-75l0 -319c0,-29 10,-55 31,-75 20,-21 45,-31 75,-31l106 0c29,0 54,10 75,31 20,21 31,46 31,75l0 319zm-53 0l0 -319c0,-15 -5,-28 -15,-38 -10,-10 -23,-15 -38,-15l-106 0c-15,0 -28,5 -38,15 -6,5 -9,11 -12,17 -2,7 -4,14 -4,21l0 319c0,15 5,27 16,38 5,4 11,8 17,11 7,3 14,4 21,4l106 0c15,0 27,-5 38,-15 10,-10 15,-22 15,-38zm440 106l-132 0c-29,0 -54,-10 -75,-31 -21,-21 -32,-46 -32,-75l0 -319c0,-29 11,-55 31,-75 21,-21 46,-31 76,-31l132 0c8,0 14,3 19,8 5,5 8,12 8,18 0,6 -2,12 -7,18 -4,6 -11,9 -20,9l-133 0c-14,0 -27,5 -38,15 -5,5 -8,11 -11,17 -2,7 -4,14 -4,21l0 319c0,15 5,27 15,38 6,4 11,8 18,11 7,3 14,4 20,4l133 0c8,0 14,3 19,8 5,6 8,12 8,18 0,7 -2,12 -7,18 -4,6 -11,9 -20,9zm266 -478l-107 0c-8,0 -14,-3 -19,-7 -5,-6 -7,-13 -7,-20 0,-6 2,-12 6,-17 5,-6 12,-9 20,-9l265 0c8,0 14,3 19,8 5,5 8,12 8,18 0,6 -2,12 -7,18 -4,6 -11,9 -20,9l-106 0 0 451c0,9 -2,15 -7,20 -5,5 -11,7 -19,7 -7,0 -13,-2 -19,-7 -5,-4 -7,-11 -7,-20l0 -451zm583 372c0,29 -11,54 -32,75 -20,20 -45,31 -75,31l-106 0c-28,0 -53,-10 -74,-31 -21,-21 -32,-46 -32,-75l0 -319c0,-29 11,-55 31,-75 21,-21 46,-31 75,-31l106 0c30,0 55,10 76,31 20,21 31,46 31,75l0 319zm-53 0l0 -319c0,-15 -5,-28 -15,-38 -10,-10 -23,-15 -38,-15l-107 0c-15,0 -27,5 -38,15 -5,5 -9,11 -11,17 -3,7 -4,14 -4,21l0 319c0,15 5,27 15,38 6,4 11,8 17,11 8,3 15,4 21,4l107 0c14,0 27,-5 37,-15 11,-10 16,-22 16,-38zm469 -197c15,9 27,22 36,38 10,17 14,34 14,53l0 106c0,29 -10,54 -31,75 -20,20 -45,31 -75,31l-185 0c-18,0 -27,-9 -27,-27l0 -477c0,-18 9,-27 27,-27l159 0c29,0 54,10 75,31 21,21 31,46 31,75l0 53c0,12 -2,24 -6,36 -3,11 -10,22 -18,33zm-215 37l0 213 159 0c15,0 28,-5 38,-15 10,-10 16,-22 16,-38l0 -106c0,-15 -5,-28 -15,-38 -10,-10 -23,-16 -39,-16l-159 0zm133 -52c15,0 27,-5 38,-15 10,-10 15,-23 15,-39l0 -53c0,-15 -5,-27 -15,-38 -10,-10 -23,-15 -38,-15l-133 0 0 160 133 0zm291 0l134 0c7,0 13,2 19,8 5,5 7,11 7,18 0,6 -2,12 -6,18 -5,6 -11,8 -20,8l-134 0 0 213 187 0c7,0 13,3 19,8 5,6 7,12 7,18 0,7 -2,13 -6,18 -5,6 -11,9 -20,9l-213 0c-18,0 -26,-9 -26,-25l0 -479c0,-18 8,-27 26,-27l213 0c7,0 14,3 19,8 5,5 7,12 7,18 0,7 -2,13 -6,18 -5,6 -11,9 -20,9l-187 0 0 160zm372 52l159 0c15,0 27,-4 38,-14 10,-10 15,-23 15,-39l0 -106c0,-15 -5,-28 -15,-38 -10,-10 -22,-15 -38,-15l-159 0 0 212zm0 53l0 186c0,9 -3,15 -8,20 -5,5 -11,7 -19,7 -7,0 -13,-2 -18,-7 -6,-4 -8,-11 -8,-20l0 -477c0,-18 9,-27 26,-27l186 0c30,0 55,10 75,31 21,21 31,46 31,75l0 106c0,29 -10,54 -31,75 -21,21 -46,31 -75,31l-159 0zm424 -105l134 0c7,0 13,2 18,8 6,5 8,11 8,18 0,6 -2,12 -7,18 -4,6 -11,8 -19,8l-134 0 0 213 187 0c7,0 13,3 18,8 6,6 8,12 8,18 0,7 -2,13 -6,18 -5,6 -11,9 -20,9l-213 0c-18,0 -27,-9 -27,-25l0 -479c0,-18 9,-27 27,-27l213 0c7,0 13,3 18,8 6,5 8,12 8,18 0,7 -2,13 -6,18 -5,6 -11,9 -20,9l-187 0 0 160zm584 0l0 -187c0,-7 3,-13 8,-18 5,-5 12,-8 18,-8 7,0 13,2 19,7 5,4 8,11 8,20l0 477c0,7 -3,14 -8,20 -7,4 -13,7 -19,7 -6,0 -13,-2 -18,-7 -5,-4 -8,-10 -8,-19l0 -240 -213 0 0 239c0,9 -2,15 -7,20 -5,5 -11,7 -19,7 -7,0 -13,-2 -18,-7 -6,-4 -8,-11 -8,-20l0 -477c0,-7 2,-14 8,-20 5,-4 11,-7 18,-7 7,0 13,3 18,7 6,4 8,11 8,20l0 186 213 0zm477 291c0,9 -2,15 -7,20 -5,5 -11,7 -19,7 -7,0 -13,-2 -19,-7 -5,-4 -7,-11 -7,-20l0 -375 -216 388c-3,6 -7,10 -12,13l-5 3c-2,1 -5,2 -9,2 -5,0 -10,-2 -17,-8 -5,-5 -7,-13 -7,-22l0 -478c0,-7 3,-14 8,-20 5,-4 11,-7 18,-7 7,0 13,3 19,7 5,4 8,11 8,20l0 375 215 -388c3,-4 7,-8 12,-13 4,-3 9,-5 14,-5 6,0 11,3 16,9 6,5 8,12 8,22l0 477zm159 -291l134 0c7,0 13,2 18,8 6,5 8,11 8,18 0,6 -2,12 -6,18 -5,6 -11,8 -20,8l-134 0 0 213 187 0c7,0 13,3 19,8 5,6 7,12 7,18 0,7 -2,13 -6,18 -5,6 -11,9 -20,9l-213 0c-18,0 -27,-9 -27,-25l0 -479c0,-18 9,-27 27,-27l213 0c7,0 13,3 19,8 5,5 7,12 7,18 0,7 -2,13 -6,18 -5,6 -11,9 -20,9l-187 0 0 160zm-3739 1141c0,8 -2,15 -7,20 -5,4 -11,6 -19,6 -7,0 -13,-2 -18,-7 -6,-4 -8,-11 -8,-19l0 -452 -87 0 -127 458c-1,6 -4,10 -9,14 -5,4 -10,6 -16,6 -8,0 -15,-2 -20,-7 -5,-4 -7,-10 -7,-18 0,-4 0,-7 1,-8l133 -478c3,-13 12,-20 25,-20l133 0c18,0 26,9 26,27l0 478zm424 0c0,8 -2,15 -7,20 -5,4 -12,6 -19,6 -7,0 -14,-2 -19,-7 -5,-4 -8,-11 -8,-19l0 -376 -215 388c-3,6 -7,10 -12,13l-6 4c-1,0 -4,1 -8,2 -5,-1 -11,-3 -17,-8 -5,-6 -7,-13 -7,-23l0 -478c0,-7 2,-14 8,-20 5,-4 11,-7 18,-7 7,0 13,3 18,7 6,5 9,11 9,20l0 375 215 -388c3,-4 6,-8 11,-13 5,-3 10,-5 15,-5 6,0 11,3 16,9 5,5 8,13 8,22l0 478zm372 -239l0 -239c0,-7 2,-14 8,-20 5,-4 11,-7 18,-7 7,0 13,2 18,7 6,4 8,11 8,20l0 478c0,8 -2,15 -7,20 -5,4 -11,6 -19,6 -7,0 -13,-2 -18,-7 -6,-4 -8,-11 -8,-20l0 -186 -160 0c-28,0 -53,-10 -74,-31 -21,-20 -32,-45 -32,-75l0 -185c0,-7 3,-14 8,-20 5,-4 12,-7 19,-7 6,0 13,2 18,7 5,4 8,11 8,20l0 186c0,14 5,27 15,37 6,5 11,9 17,12 8,2 15,4 21,4l160 0zm424 -53l0 -186c0,-7 3,-14 8,-19 5,-5 11,-8 18,-8 7,0 13,2 19,7 5,4 8,11 8,20l0 477c0,7 -3,14 -8,20 -7,5 -13,7 -19,7 -6,0 -13,-2 -18,-6 -5,-5 -8,-11 -8,-20l0 -239 -213 0 0 239c0,8 -2,15 -7,20 -5,4 -11,6 -19,6 -7,0 -13,-2 -18,-7 -6,-4 -8,-11 -8,-19l0 -478c0,-7 2,-14 8,-20 5,-4 11,-7 18,-7 7,0 13,3 18,7 6,5 8,11 8,20l0 186 213 0zm477 212c0,29 -10,54 -31,75 -20,21 -46,31 -75,31l-106 0c-29,0 -54,-10 -75,-31 -20,-20 -31,-46 -31,-75l0 -319c0,-29 10,-54 31,-75 21,-20 46,-31 75,-31l106 0c30,0 55,11 75,31 21,21 31,46 31,75l0 319zm-53 0l0 -319c0,-15 -5,-27 -15,-38 -9,-10 -22,-15 -38,-15l-106 0c-15,0 -28,5 -38,15 -5,5 -9,11 -11,17 -3,7 -4,14 -4,21l0 319c0,15 5,28 15,38 5,5 11,8 17,12 8,2 15,3 21,3l106 0c15,0 27,-5 38,-15 10,-9 15,-22 15,-38zm441 106l-133 0c-29,0 -54,-10 -75,-31 -21,-20 -31,-46 -31,-75l0 -319c0,-29 10,-54 31,-75 20,-20 45,-31 75,-31l133 0c7,0 13,3 19,8 5,6 7,12 7,19 0,6 -2,11 -6,17 -5,6 -11,9 -20,9l-133 0c-15,0 -28,5 -38,15 -5,5 -9,11 -12,17 -2,7 -3,14 -3,21l0 319c0,15 5,28 15,38 5,5 11,8 17,12 7,2 14,3 21,3l133 0c7,0 13,3 19,8 5,6 7,12 7,19 0,6 -2,12 -6,17 -5,6 -11,9 -20,9zm265 -478l-106 0c-8,0 -15,-2 -20,-7 -4,-6 -7,-12 -7,-19 0,-7 2,-12 7,-18 4,-6 11,-9 20,-9l265 0c7,0 14,3 19,8 5,6 7,12 7,19 0,6 -2,11 -6,17 -5,6 -11,9 -20,9l-106 0 0 452c0,8 -3,15 -8,20 -5,4 -11,6 -19,6 -7,0 -13,-2 -18,-7 -5,-4 -8,-11 -8,-19l0 -452zm610 452c0,8 -3,15 -8,20 -4,4 -11,6 -19,6 -7,0 -13,-2 -18,-7 -5,-4 -8,-11 -8,-19l0 -376 -215 388c-3,6 -7,10 -12,13l-6 4c-2,0 -4,1 -8,2 -5,-1 -11,-3 -18,-8 -4,-6 -6,-13 -6,-23l0 -478c0,-7 2,-14 8,-20 5,-4 11,-7 18,-7 7,0 13,3 18,7 6,5 8,11 8,20l0 375 216 -388c2,-4 6,-8 11,-13 5,-3 10,-5 15,-5 5,0 11,3 16,9 5,5 8,13 8,22l0 478zm-4212 397l-186 0 0 452c0,8 -3,15 -8,20 -5,4 -11,6 -19,6 -7,0 -13,-2 -18,-6 -5,-5 -8,-11 -8,-20l0 -478c0,-18 9,-27 26,-27l213 0c7,0 14,3 19,9 5,5 7,11 7,18 0,6 -2,12 -6,17 -5,6 -11,9 -20,9zm185 213l160 0c14,0 27,-5 37,-15 11,-10 16,-23 16,-38l0 -107c0,-15 -5,-27 -15,-37 -10,-11 -23,-16 -38,-16l-160 0 0 213zm0 53l0 186c0,8 -2,15 -7,20 -5,4 -12,6 -19,6 -7,0 -14,-2 -19,-6 -5,-5 -8,-11 -8,-20l0 -478c0,-18 9,-27 27,-27l185 0c30,0 55,11 76,31 20,21 30,46 30,75l0 107c0,29 -10,53 -31,74 -20,21 -45,32 -75,32l-159 0z"/>
     <path class="fil2 str1" d="M10016 9685l-38 114c-3,6 -6,10 -10,14 -4,2 -9,3 -15,4 -7,0 -13,-2 -18,-7 -6,-5 -9,-11 -9,-19l2 -9 159 -478c6,-15 14,-22 25,-22 12,0 20,7 25,22l159 478 2 9c0,7 -3,13 -9,19 -5,5 -11,7 -18,7 -4,0 -8,-1 -12,-2 -5,-2 -9,-7 -12,-16l-39 -114 -192 0zm175 -55l-79 -233 -78 233 157 0zm448 -136l138 -196c1,-3 5,-6 9,-8 4,-2 8,-4 12,-4 7,0 13,3 19,8 6,6 8,12 8,19 0,5 -1,11 -5,16l-139 197 141 252c2,5 3,9 3,14 0,6 -2,12 -8,17 -5,6 -12,8 -20,8 -8,0 -15,-4 -22,-13l-136 -244 0 231c0,8 -2,15 -7,20 -5,4 -11,6 -19,6 -7,0 -13,-2 -19,-6 -5,-5 -8,-11 -8,-20l0 -230 -135 243c-3,3 -6,6 -10,9l-7 3 -7 1c-7,0 -13,-2 -19,-7 -5,-5 -8,-11 -8,-19 0,-3 1,-7 3,-13l141 -251 -139 -198c-2,-3 -3,-8 -5,-16 0,-7 3,-13 8,-18 6,-6 12,-9 19,-9 8,0 15,4 22,12l137 196 0 -181c0,-7 3,-14 8,-20 6,-4 12,-7 19,-7 6,0 13,3 18,7 5,4 8,11 8,20l0 181zm347 270l51 -454c0,-16 9,-24 26,-24l159 0c18,0 27,9 27,27l0 451 27 0c18,0 26,9 26,27l0 53c0,7 -2,13 -8,18 -5,5 -11,8 -18,8 -6,0 -12,-2 -18,-7 -5,-4 -8,-11 -8,-19l0 -27 -267 0 0 27c0,7 -2,13 -8,18 -5,5 -11,8 -18,8 -6,0 -12,-2 -18,-7 -5,-4 -8,-11 -8,-19l0 -53c0,-18 8,-27 26,-27l29 0zm210 0l0 -425 -109 0 -48 425 157 0zm305 -79l-38 114c-2,6 -5,10 -10,14 -3,2 -8,3 -14,4 -7,0 -14,-2 -19,-7 -6,-5 -8,-11 -8,-19l1 -9 160 -478c5,-15 14,-22 25,-22 11,0 20,7 25,22l159 478 2 9c0,7 -3,13 -9,19 -6,5 -12,7 -19,7 -3,0 -7,-1 -12,-2 -4,-2 -8,-7 -12,-16l-38 -114 -193 0zm175 -55l-78 -233 -78 233 156 0zm475 -131l0 -186c0,-7 3,-13 8,-19 5,-5 11,-8 18,-8 7,0 13,3 19,7 5,4 8,11 8,20l0 477c0,8 -3,14 -8,20 -7,5 -13,7 -19,7 -6,0 -13,-2 -18,-6 -6,-5 -8,-11 -8,-20l0 -239 -213 0 0 239c0,8 -2,15 -7,20 -5,4 -11,6 -19,6 -7,0 -13,-2 -19,-6 -5,-5 -7,-11 -7,-20l0 -478c0,-7 2,-13 7,-20 6,-4 12,-6 19,-6 7,0 13,2 18,6 6,5 8,11 8,20l0 186 213 0zm477 292c0,8 -2,15 -7,20 -5,4 -11,6 -19,6 -7,0 -13,-2 -19,-6 -5,-5 -8,-11 -8,-20l0 -375 -215 388c-3,5 -7,9 -12,12l-5 4c-2,0 -5,1 -9,2 -5,0 -11,-3 -17,-8 -5,-6 -7,-13 -7,-23l0 -478c0,-7 3,-13 8,-20 5,-4 11,-6 18,-6 7,0 13,2 19,6 5,5 8,11 8,20l0 375 215 -388c3,-4 6,-8 12,-12 4,-4 9,-6 14,-6 6,0 11,3 16,9 5,5 8,13 8,22l0 478zm372 -292l0 -186c0,-7 2,-13 8,-19 5,-5 11,-8 18,-8 7,0 13,3 18,7 6,4 9,11 9,20l0 477c0,8 -3,14 -9,20 -6,5 -12,7 -18,7 -7,0 -13,-2 -19,-6 -5,-5 -7,-11 -7,-20l0 -239 -213 0 0 239c0,8 -2,15 -7,20 -5,4 -11,6 -19,6 -7,0 -13,-2 -19,-6 -5,-5 -8,-11 -8,-20l0 -478c0,-7 3,-13 8,-20 6,-4 12,-6 19,-6 6,0 13,2 18,6 5,5 8,11 8,20l0 186 213 0zm252 186l-38 114c-2,6 -6,10 -10,14 -4,2 -9,3 -15,4 -7,0 -13,-2 -18,-7 -6,-5 -9,-11 -9,-19l2 -9 160 -478c5,-15 13,-22 25,-22 11,0 19,7 25,22l158 478 2 9c0,7 -3,13 -9,19 -5,5 -11,7 -18,7 -4,0 -8,-1 -12,-2 -4,-2 -9,-7 -12,-16l-39 -114 -192 0zm175 -55l-78 -233 -79 233 157 0zm580 -78l160 0c15,0 27,-5 37,-15 11,-10 16,-23 16,-38l0 -107c0,-15 -5,-27 -15,-37 -10,-11 -23,-16 -38,-16l-160 0 0 213zm0 53l0 186c0,8 -2,15 -7,20 -5,4 -11,6 -19,6 -7,0 -13,-2 -19,-6 -5,-5 -7,-11 -7,-20l0 -478c0,-18 8,-27 26,-27l186 0c29,0 54,11 75,31 20,21 31,46 31,75l0 107c0,29 -11,53 -31,74 -21,21 -46,32 -75,32l-160 0zm610 -187l0 241 27 0c29,0 54,-11 75,-31 21,-21 31,-46 31,-76l0 -27c0,-28 -10,-53 -31,-75 -20,-21 -45,-32 -75,-32l-27 0zm-53 241l0 -241 -26 0c-29,0 -54,11 -75,31 -21,21 -31,46 -31,76l0 27c0,29 10,54 31,75 21,21 46,32 75,32l26 0zm0 53l-26 0c-44,0 -82,-16 -113,-47 -31,-31 -46,-68 -46,-113l0 -27c0,-43 15,-81 47,-112 31,-32 68,-47 112,-47l26 0 0 -53c0,-7 3,-14 8,-20 6,-4 12,-7 19,-7 7,0 13,3 18,7 5,4 8,11 8,20l0 53 27 0c44,0 81,15 112,46 14,15 26,33 34,51 9,19 13,40 13,62l0 27c0,43 -16,80 -47,112 -31,32 -68,48 -112,48l-27 0 0 79c0,8 -2,15 -7,20 -5,4 -11,6 -19,6 -7,0 -13,-2 -19,-6 -5,-5 -8,-11 -8,-20l0 -79z"/>
    </g>
   </g>
   <g>
    <path class="fil1 str0" d="M17844 10453l0 8832c-2205,0 -3683,0 -5888,0l0 -8832 5888 0z"/>
    <path class="fil2 str1" d="M13607 11434c16,10 29,24 39,42 11,18 16,37 16,57l0 116c0,32 -12,59 -34,82 -23,22 -50,34 -82,34l-202 0c-20,0 -29,-10 -29,-29l0 -521c0,-20 9,-29 29,-29l173 0c32,0 60,11 82,34 23,22 34,50 34,82l0 57c0,14 -2,27 -6,39 -4,12 -11,24 -20,36zm-235 41l0 232 174 0c16,0 30,-5 41,-16 12,-11 17,-25 17,-42l0 -116c0,-16 -5,-30 -16,-41 -11,-11 -25,-17 -42,-17l-174 0zm145 -57c16,0 30,-6 41,-17 12,-10 17,-24 17,-42l0 -58c0,-16 -5,-30 -16,-41 -11,-11 -25,-17 -42,-17l-145 0 0 175 145 0zm608 231c0,32 -12,59 -34,82 -23,22 -50,34 -82,34l-116 0c-31,0 -58,-11 -81,-34 -23,-22 -34,-50 -34,-82l0 -347c0,-33 11,-60 33,-83 23,-22 50,-33 82,-33l116 0c32,0 60,11 82,34 22,22 34,50 34,82l0 347zm-58 0l0 -348c0,-16 -5,-30 -16,-41 -11,-11 -25,-17 -42,-17l-116 0c-16,0 -30,6 -41,17 -6,5 -10,12 -13,19 -2,7 -4,14 -4,22l0 348c0,16 6,30 17,42 6,5 12,9 18,12 9,3 16,4 23,4l116 0c16,0 30,-5 41,-16 11,-11 17,-25 17,-42zm277 -231l146 0c8,0 15,3 21,9 5,5 8,12 8,19 0,7 -2,14 -7,20 -5,6 -12,9 -22,9l-146 0 0 232 204 0c8,0 15,3 21,9 5,6 8,13 8,20 0,7 -2,13 -7,20 -5,6 -12,9 -22,9l-232 0c-20,0 -29,-9 -29,-28l0 -522c0,-20 9,-29 29,-29l232 0c8,0 15,3 21,9 5,5 8,12 8,19 0,7 -2,14 -7,20 -5,6 -12,9 -22,9l-204 0 0 175zm638 0l0 -204c0,-7 2,-14 8,-20 6,-5 13,-8 20,-8 8,0 14,2 20,7 6,5 9,12 9,22l0 520c0,8 -3,16 -9,22 -7,5 -13,8 -20,8 -7,0 -14,-3 -20,-7 -6,-5 -8,-12 -8,-22l0 -261 -232 0 0 261c0,9 -3,16 -9,22 -5,4 -12,7 -20,7 -8,0 -15,-3 -20,-7 -6,-5 -9,-12 -9,-22l0 -521c0,-8 3,-15 9,-22 5,-4 12,-7 20,-7 7,0 14,3 20,7 6,5 9,12 9,22l0 203 232 0zm463 0l0 -204c0,-7 2,-14 8,-20 6,-5 13,-8 20,-8 8,0 14,2 20,7 6,5 9,12 9,22l0 520c0,8 -3,16 -9,22 -7,5 -13,8 -20,8 -7,0 -14,-3 -20,-7 -6,-5 -8,-12 -8,-22l0 -261 -232 0 0 261c0,9 -3,16 -9,22 -5,4 -12,7 -20,7 -8,0 -15,-3 -20,-7 -6,-5 -9,-12 -9,-22l0 -521c0,-8 3,-15 9,-22 5,-4 12,-7 20,-7 7,0 14,3 20,7 6,5 9,12 9,22l0 203 232 0zm579 318c0,9 -3,16 -9,22 -5,4 -12,7 -20,7 -8,0 -15,-3 -20,-7 -6,-5 -9,-12 -9,-22l0 -521c0,-8 3,-15 9,-22 5,-5 12,-7 20,-7 7,0 14,2 20,7 6,5 9,12 9,22l0 521zm-348 -261l0 232 116 0c16,0 30,-5 41,-16 11,-11 17,-25 17,-42l0 -116c0,-16 -6,-30 -16,-41 -11,-11 -25,-17 -42,-17l-116 0zm0 -57l116 0c31,0 58,11 81,33 23,23 35,50 35,82l0 116c0,32 -12,59 -34,82 -23,22 -50,34 -82,34l-145 0c-19,0 -29,-10 -29,-29l0 -521c0,-8 3,-15 9,-22 5,-5 12,-7 20,-7 7,0 14,2 20,7 6,5 9,12 9,22l0 203zm694 -290l-115 0c-9,0 -16,-2 -22,-8 -5,-6 -7,-13 -7,-21 0,-6 2,-13 7,-19 5,-6 12,-9 22,-9l115 0c8,0 15,3 21,8 5,6 8,13 8,20 0,7 -2,13 -7,20 -5,6 -12,9 -22,9zm116 608c0,9 -3,16 -8,22 -5,4 -12,7 -21,7 -7,0 -14,-3 -20,-7 -6,-5 -9,-12 -9,-22l0 -409 -235 423c-3,6 -7,10 -12,14l-7 4c-2,0 -5,1 -9,2 -5,0 -12,-3 -19,-9 -5,-6 -7,-14 -7,-25l0 -521c0,-8 3,-15 8,-22 6,-4 13,-7 21,-7 7,0 14,3 19,7 6,5 9,12 9,22l0 409 235 -423c3,-4 7,-9 13,-14 5,-4 10,-6 15,-6 7,0 13,4 18,10 6,6 9,14 9,24l0 521zm-2599 666l0 232 174 0c16,0 30,-6 41,-17 12,-10 17,-24 17,-41l0 -116c0,-17 -5,-30 -16,-42 -11,-11 -25,-16 -42,-16l-174 0zm0 -58l174 0c31,0 58,11 81,34 23,22 35,50 35,82l0 116c0,31 -12,58 -34,81 -23,23 -50,34 -82,34l-202 0c-20,0 -29,-9 -29,-29l0 -521c0,-19 9,-29 29,-29l231 0c8,0 15,3 21,9 5,6 8,13 8,20 0,7 -2,13 -7,19 -5,7 -12,10 -22,10l-203 0 0 174zm753 318c0,9 -3,17 -8,22 -6,5 -13,7 -21,7 -8,0 -14,-2 -20,-7 -6,-5 -9,-12 -9,-22l0 -409 -235 423c-3,6 -7,11 -13,14l-6 4c-2,1 -5,1 -9,2 -5,0 -12,-3 -19,-9 -5,-5 -7,-14 -7,-24l0 -522c0,-7 2,-14 8,-21 6,-5 13,-8 20,-8 8,0 15,3 20,8 6,5 9,12 9,21l0 410 235 -424c3,-4 7,-9 13,-13 5,-4 10,-6 15,-6 7,0 13,3 18,9 6,6 9,14 9,24l0 521zm464 0c0,9 -3,17 -9,22 -5,5 -12,7 -20,7 -8,0 -15,-2 -20,-7 -6,-5 -9,-12 -9,-22l0 -492 -94 0 -139 500c-1,6 -4,11 -10,15 -5,4 -11,6 -18,6 -8,0 -15,-2 -21,-7 -5,-5 -8,-12 -8,-20 0,-5 0,-7 1,-9l145 -521c4,-15 13,-22 28,-22l145 0c19,0 29,10 29,29l0 521zm172 -318l146 0c8,0 15,3 20,9 6,6 9,13 9,20 0,7 -3,13 -7,19 -5,7 -13,10 -22,10l-146 0 0 232 204 0c8,0 14,3 20,9 6,5 9,12 9,19 0,7 -3,14 -7,20 -5,6 -13,9 -22,9l-232 0c-20,0 -29,-9 -29,-27l0 -523c0,-19 9,-29 29,-29l232 0c8,0 15,3 20,9 6,6 9,13 9,20 0,7 -3,13 -8,19 -4,7 -12,10 -21,10l-204 0 0 174zm493 -174l-116 0c-9,0 -16,-3 -22,-8 -5,-6 -7,-13 -7,-21 0,-7 2,-13 7,-19 5,-7 12,-10 22,-10l289 0c8,0 15,3 20,9 6,6 9,13 9,20 0,7 -3,13 -7,19 -5,7 -12,10 -22,10l-116 0 0 492c0,9 -3,17 -8,22 -5,5 -12,7 -21,7 -7,0 -14,-2 -20,-7 -6,-5 -8,-12 -8,-22l0 -492z"/>
   </g>
  </g>
 </g>
</svg>
