<?xml version="1.0" encoding="UTF-8"?>
<!DOCTYPE svg PUBLIC "-//W3C//DTD SVG 1.0//EN" "http://www.w3.org/TR/2001/REC-SVG-20010904/DTD/svg10.dtd">
<!-- Creator: CorelDRAW X7 -->
<svg xmlns="http://www.w3.org/2000/svg" xml:space="preserve" width="115mm" height="70.122mm" version="1.0" style="shape-rendering:geometricPrecision; text-rendering:geometricPrecision; image-rendering:optimizeQuality; fill-rule:evenodd; clip-rule:evenodd"
viewBox="0 0 11500 7012"
 xmlns:xlink="http://www.w3.org/1999/xlink">
 <defs>
  <style type="text/css">
   <![CDATA[
    .str0 {stroke:#3497A1;stroke-width:8.76524}
    .fil1 {fill:#D25F60}
    .fil2 {fill:#1494B7}
    .fil3 {fill:#3198A2}
    .fil0 {fill:url(#id0)}
   ]]>
  </style>
  <radialGradient id="id0" gradientUnits="userSpaceOnUse" gradientTransform="matrix(1.17124 -0 -0 1.92083 -985 -3229)" cx="5750" cy="3506.1" r="3506.1" fx="5750" fy="3506.1">
   <stop offset="0" style="stop-opacity:1; stop-color:#FEFEFE"/>
   <stop offset="0.439216" style="stop-opacity:1; stop-color:#FEFEFE"/>
   <stop offset="1" style="stop-opacity:1; stop-color:#D1E2F2"/>
  </radialGradient>
 </defs>
 <g id="Layer_x0020_1">
  <metadata id="CorelCorpID_0Corel-Layer"/>
  <path class="fil0" d="M0 0l11500 0 0 7012 -11500 0 0 -7012z"/>
  <g id="_521713533728">
   <g>
    <path class="fil1" d="M3558 1953l-811 0 0 662 811 0 0 -662zm-95 77l0 508 -621 0 0 -508 621 0z"/>
    <path class="fil2" d="M3145 2595l-338 -337 111 -74 209 209 540 -735 122 60 -644 877z"/>
   </g>
   <g>
    <path class="fil1" d="M3558 2859l-811 0 0 662 811 0 0 -662zm-95 77l0 508 -621 0 0 -508 621 0z"/>
    <path class="fil2" d="M3145 3473l-338 -337 111 -73 209 208 540 -735 122 60 -644 877z"/>
   </g>
   <g>
    <path class="fil1" d="M3558 3743l-811 0 0 663 811 0 0 -663zm-95 78l0 507 -621 0 0 -507 621 0z"/>
    <path class="fil2" d="M3145 4379l-338 -337 111 -73 209 209 540 -736 122 60 -644 877z"/>
   </g>
   <g>
    <path class="fil1" d="M3558 4688l-811 0 0 662 811 0 0 -662zm-95 77l0 507 -621 0 0 -507 621 0z"/>
    <path class="fil2" d="M3145 5264l-338 -337 111 -74 209 209 540 -735 122 60 -644 877z"/>
   </g>
   <g>
    <path class="fil3 str0" d="M3924 2299l-23 24 0 32c0,4 -1,6 -3,8 -2,2 -4,3 -7,3 -3,0 -5,-1 -7,-3 -2,-2 -3,-4 -3,-8l0 -121c0,-3 1,-6 3,-8 2,-2 4,-3 7,-3 2,0 5,1 7,3 2,2 3,4 3,8l0 59 64 -67c2,-2 4,-3 7,-3 2,0 4,1 7,3 2,2 3,5 3,8 0,3 -1,5 -3,7l-41 43 42 65c1,3 2,5 2,7 0,2 -1,5 -3,7 -2,2 -5,3 -7,3 -3,0 -5,-1 -8,-4l-40 -63zm192 22c0,12 -4,22 -13,31 -8,9 -19,14 -32,14l-12 0c-12,0 -22,-5 -31,-13 -9,-9 -13,-20 -13,-32l0 -53c0,-12 4,-22 13,-31 8,-9 19,-14 31,-14l12 0c13,0 23,5 32,13 9,9 13,20 13,32l0 53zm-20 0l0 -53c0,-7 -2,-12 -7,-17 -5,-5 -11,-7 -17,-7l-13 0c-6,0 -12,2 -17,7 -5,4 -7,10 -7,17l0 53c0,7 2,12 7,17 5,5 10,7 17,7l13 0c6,0 12,-2 17,-7 5,-4 7,-10 7,-17zm182 34l0 -121c0,-4 -1,-7 -2,-9 -2,-2 -4,-3 -7,-3 -3,0 -6,2 -9,6l-42 59 -43 -59c-3,-4 -6,-6 -9,-6 -3,0 -5,1 -7,3 -1,2 -2,5 -2,9l0 121c0,4 1,6 3,8 1,2 4,3 7,3 2,0 4,-1 7,-3 2,-2 3,-4 3,-8l0 -90 32 46c3,3 6,5 9,5 2,0 5,-2 8,-5l32 -46 0 90c0,4 1,6 3,8 2,2 4,3 7,3 3,0 5,-1 7,-3 2,-2 3,-4 3,-8zm143 0c0,7 -4,11 -11,11l-50 0c-11,0 -21,-4 -29,-12 -8,-8 -12,-18 -12,-29l0 -92c0,-2 1,-5 3,-7 2,-2 4,-3 7,-3 3,0 5,1 7,3 2,2 3,4 3,7l0 92c0,6 2,11 6,15 2,1 4,3 7,4 2,1 5,1 8,1l40 0 0 -112c0,-2 1,-5 3,-7 2,-2 5,-3 7,-3 3,0 5,1 7,3 2,2 4,4 4,7l0 122zm111 11l-30 0c-11,0 -21,-4 -29,-12 -8,-8 -12,-18 -12,-29l0 -61c0,-11 4,-21 12,-29 8,-8 17,-12 29,-12l30 0c3,0 5,1 7,3 2,2 3,5 3,7 0,3 -1,5 -2,7 -2,2 -4,4 -8,4l-30 0c-6,0 -11,1 -15,5 -2,2 -3,4 -4,7 -1,2 -2,5 -2,8l0 61c0,6 2,11 6,14 2,2 4,4 7,5 3,1 5,1 8,1l30 0c3,0 5,1 7,3 2,2 3,5 3,7 0,3 -1,5 -2,7 -2,2 -4,4 -8,4zm122 0l-31 0c-11,0 -20,-4 -28,-12 -8,-8 -12,-18 -12,-29l0 -61c0,-11 4,-21 12,-29 8,-8 17,-12 28,-12l31 0c3,0 5,1 7,3 2,2 3,5 3,7 0,3 -1,5 -2,7 -2,2 -5,4 -8,4l-31 0c-5,0 -10,1 -14,5 -2,2 -4,4 -5,7 -1,2 -1,5 -1,8l0 61c0,6 2,11 6,14 2,2 4,4 6,5 3,1 6,1 8,1l31 0c3,0 5,1 7,3 2,2 3,5 3,7 0,3 -1,5 -2,7 -2,2 -5,4 -8,4zm152 -11c0,7 -3,11 -10,11l-51 0c-11,0 -20,-4 -28,-12 -8,-8 -12,-18 -12,-29l0 -92c0,-2 1,-5 3,-7 2,-2 4,-3 7,-3 2,0 5,1 7,3 2,2 3,4 3,7l0 92c0,6 2,11 6,15 2,1 4,3 6,4 3,1 6,1 8,1l41 0 0 -112c0,-2 1,-5 3,-7 2,-2 4,-3 7,-3 3,0 5,1 7,3 2,2 3,4 3,7l0 122zm122 -71l0 -40 -41 0c-6,0 -11,2 -15,6 -3,4 -5,8 -5,14 0,5 2,10 5,14 4,4 9,6 15,6l41 0zm-25 21l-38 56c0,1 -2,2 -4,4l-4 1c-2,0 -5,-1 -7,-4 -2,-2 -3,-4 -3,-7 0,-1 0,-3 1,-5l31 -46c-10,-1 -18,-6 -24,-14 -6,-8 -8,-17 -8,-26 0,-11 3,-20 10,-28 7,-8 18,-13 30,-13l51 0c7,0 10,4 10,10l0 122c0,4 -1,6 -3,8 -2,2 -4,3 -7,3 -3,0 -5,-1 -7,-3 -2,-2 -3,-4 -3,-8l0 -50 -25 0zm329 50l0 -121c0,-4 -1,-7 -3,-9 -1,-2 -3,-3 -6,-3 -3,0 -6,2 -9,6l-43 59 -42 -59c-3,-4 -6,-6 -10,-6 -2,0 -4,1 -6,3 -2,2 -3,5 -3,9l0 121c0,4 1,6 3,8 2,2 5,3 8,3 2,0 4,-1 6,-3 3,-2 4,-4 4,-8l0 -90 32 46c3,3 5,5 8,5 3,0 6,-2 9,-5l32 -46 0 90c0,4 1,6 3,8 2,2 4,3 7,3 2,0 5,-1 7,-3 2,-2 3,-4 3,-8zm122 11l-41 0c-11,0 -20,-4 -28,-12 -8,-8 -12,-18 -12,-29l0 -92c0,-2 1,-5 3,-7 2,-2 4,-3 7,-3 2,0 5,1 7,3 2,2 3,4 3,7l0 92c0,6 2,11 6,15 2,1 4,3 6,4 3,1 6,1 8,1l41 0 0 -112c0,-2 1,-5 3,-7 2,-2 4,-3 7,-3 3,0 5,1 7,3 2,2 3,4 3,7l0 153c0,11 -4,20 -12,28 -7,8 -17,12 -28,12l-41 0c-2,0 -5,-1 -7,-3 -2,-2 -3,-4 -3,-7 0,-2 1,-5 2,-7 2,-2 5,-3 8,-3l41 0c5,0 10,-2 14,-6 4,-3 6,-8 6,-14l0 -20zm142 -82l0 -51c0,-2 1,-5 3,-7 2,-2 5,-3 7,-3 3,0 5,1 7,3 2,2 3,4 3,7l0 122c0,4 -1,6 -3,8 -1,2 -4,3 -7,3 -2,0 -5,-1 -7,-3 -2,-2 -3,-4 -3,-8l0 -51 -61 0 0 51c0,4 -1,6 -3,8 -2,2 -4,3 -7,3 -3,0 -5,-1 -7,-3 -2,-2 -3,-4 -3,-8l0 -122c0,-2 1,-5 3,-7 2,-2 4,-3 7,-3 2,0 5,1 7,3 2,2 3,4 3,7l0 51 61 0zm162 71c0,7 -3,11 -10,11l-51 0c-10,0 -20,-4 -28,-12 -8,-8 -12,-18 -12,-29l0 -92c0,-2 1,-5 3,-7 2,-2 4,-3 7,-3 2,0 5,1 7,3 2,2 3,4 3,7l0 92c0,6 2,11 6,15 2,1 4,3 6,4 3,1 6,1 8,1l41 0 0 -112c0,-2 1,-5 3,-7 2,-2 5,-3 7,-3 3,0 5,1 7,3 2,2 3,4 3,7l0 122zm122 -10l0 -112c0,-2 1,-5 3,-7 2,-2 5,-3 7,-3 3,0 5,1 7,3 2,2 3,4 3,7l0 112 10 0c7,0 11,4 11,10l0 19c0,3 -1,5 -4,7 -2,2 -4,3 -7,3 -2,0 -4,-1 -6,-3 -3,-1 -4,-4 -4,-7l0 -8 -61 0c-11,0 -20,-4 -28,-12 -8,-8 -12,-18 -12,-29l0 -92c0,-2 1,-5 3,-7 2,-2 4,-3 7,-3 3,0 5,1 7,3 2,2 3,4 3,7l0 92c0,6 2,11 6,15 2,1 4,3 6,4 3,1 6,1 8,1l41 0zm162 10c0,7 -3,11 -10,11l-50 0c-11,0 -21,-4 -29,-12 -8,-8 -12,-18 -12,-29l0 -92c0,-2 1,-5 3,-7 2,-2 4,-3 7,-3 3,0 5,1 7,3 2,2 3,4 3,7l0 92c0,6 2,11 6,15 2,1 4,3 6,4 3,1 6,1 8,1l41 0 0 -112c0,-2 1,-5 3,-7 2,-2 5,-3 7,-3 3,0 5,1 7,3 2,2 3,4 3,7l0 122zm142 0c0,4 0,6 -2,8 -2,2 -5,3 -8,3 -2,0 -5,-1 -7,-3 -2,-2 -3,-4 -3,-8l0 -91c0,-6 -2,-11 -5,-15 -4,-4 -9,-5 -15,-5l-41 0 0 111c0,4 -1,6 -3,8 -2,2 -4,3 -7,3 -3,0 -5,-1 -7,-3 -2,-2 -3,-4 -3,-8l0 -122c0,-6 3,-10 10,-10l51 0c11,0 20,4 28,12 8,8 12,17 12,29l0 91zm122 -30l0 -81 -40 0c-6,0 -11,1 -15,5 -2,2 -3,4 -4,7 -1,2 -2,5 -2,8l0 61c0,6 2,11 6,14 2,2 4,4 7,5 2,1 5,1 8,1l20 0c6,0 10,-2 14,-5 4,-4 6,-9 6,-15zm10 27c-3,4 -7,7 -13,10 -6,2 -11,4 -17,4l-20 0c-11,0 -21,-4 -29,-12 -8,-8 -12,-18 -12,-29l0 -61c0,-11 4,-21 12,-29 8,-8 17,-12 29,-12l50 0c7,0 11,4 11,10l0 92c0,4 1,8 3,12 3,4 6,7 11,9 4,2 6,5 6,9 0,3 -1,6 -3,7 -2,2 -4,4 -7,4 -2,0 -3,-1 -4,-1 -7,-3 -12,-7 -17,-13zm153 3c0,4 -1,6 -3,8 -2,2 -5,3 -8,3 -2,0 -5,-1 -7,-3 -2,-2 -3,-4 -3,-8l0 -111 -23 0 -38 115c-1,2 -2,4 -4,5 0,0 -2,1 -5,2 -3,0 -5,-1 -7,-3 -3,-2 -4,-4 -4,-7l1 -4 40 -122c2,-4 5,-7 10,-7l40 0c7,0 11,4 11,10l0 122zm60 -51l0 41 41 0c6,0 11,-2 15,-6 4,-4 5,-9 5,-14 0,-6 -1,-11 -5,-14 -1,-2 -3,-4 -6,-5 -3,-1 -6,-2 -9,-2l-41 0zm0 -20l41 0c13,0 23,4 30,13 7,7 11,17 11,28 0,11 -4,20 -10,28 -8,8 -18,13 -31,13l-51 0c-7,0 -10,-4 -10,-11l0 -122c0,-2 1,-5 3,-7 2,-2 5,-3 7,-3 3,0 5,1 7,3 2,2 3,4 3,7l0 51zm203 0l0 -51c0,-2 1,-5 3,-7 3,-2 5,-3 8,-3 2,0 5,1 7,3 2,2 3,4 3,7l0 122c0,4 -1,6 -3,8 -2,2 -4,3 -7,3 -3,0 -5,-1 -8,-3 -2,-2 -3,-4 -3,-8l0 -51 -61 0 0 51c0,4 -1,6 -3,8 -1,2 -4,3 -7,3 -2,0 -5,-1 -7,-3 -2,-2 -3,-4 -3,-8l0 -122c0,-2 1,-5 3,-7 2,-2 5,-3 7,-3 3,0 5,1 7,3 2,2 3,4 3,7l0 51 61 0zm163 37c0,12 -5,22 -13,31 -9,9 -20,14 -32,14l-12 0c-12,0 -23,-5 -32,-13 -8,-9 -13,-20 -13,-32l0 -53c0,-12 5,-22 13,-31 9,-9 19,-14 32,-14l12 0c12,0 23,5 31,13 9,9 14,20 14,32l0 53zm-20 0l0 -53c0,-7 -3,-12 -8,-17 -4,-5 -10,-7 -17,-7l-12 0c-7,0 -13,2 -17,7 -5,4 -8,10 -8,17l0 53c0,7 3,12 7,17 5,5 11,7 18,7l12 0c7,0 12,-2 17,-7 5,-4 8,-10 8,-17zm156 35c-5,3 -12,6 -20,8l-11 1 -12 1 -14 -1 -12 -2c-8,-1 -14,-4 -19,-10 -4,-6 -7,-13 -7,-20 0,-4 1,-9 3,-13 1,-4 4,-8 8,-11l65 -45c2,-1 3,-4 3,-6 0,-4 -3,-8 -10,-10 -7,-2 -15,-4 -23,-4 -7,0 -13,1 -18,2 -5,1 -9,3 -13,6 -1,1 -3,2 -6,2 -2,0 -4,-1 -7,-3 -2,-2 -3,-5 -3,-7 0,-4 2,-6 4,-8 4,-4 11,-6 19,-8 4,-1 9,-2 13,-3 4,0 9,0 13,0 3,0 5,0 8,0 2,0 5,0 8,0 3,1 7,1 11,3 7,2 13,6 18,11 5,6 7,12 7,18 0,9 -4,16 -11,23l-65 45c-3,2 -4,5 -4,8 0,2 1,5 2,7 2,2 4,3 7,4l11 1 12 1c8,0 14,-1 19,-2 2,0 4,-1 7,-2 3,-1 5,-2 8,-4l2 -1c0,0 2,0 3,0 3,0 5,1 7,3 2,2 3,5 3,8 0,3 -2,6 -6,8zm148 -35c0,12 -5,22 -13,31 -9,9 -19,14 -32,14l-12 0c-12,0 -23,-5 -31,-13 -9,-9 -14,-20 -14,-32l0 -53c0,-12 5,-22 13,-31 9,-9 20,-14 32,-14l12 0c12,0 23,5 32,13 8,9 13,20 13,32l0 53zm-20 0l0 -53c0,-7 -3,-12 -7,-17 -5,-5 -11,-7 -18,-7l-12 0c-7,0 -13,2 -17,7 -5,4 -8,10 -8,17l0 53c0,7 3,12 8,17 4,5 10,7 17,7l12 0c7,0 12,-2 17,-7 5,-4 8,-10 8,-17zm284 0c0,12 -5,22 -13,31 -9,9 -20,14 -32,14l-12 0c-12,0 -23,-5 -32,-13 -9,-9 -13,-20 -13,-32l0 -53c0,-12 4,-22 13,-31 9,-9 19,-14 32,-14l12 0c12,0 22,5 31,13 9,9 14,20 14,32l0 53zm-21 0l0 -53c0,-7 -2,-12 -7,-17 -4,-5 -10,-7 -17,-7l-12 0c-7,0 -13,2 -18,7 -4,4 -7,10 -7,17l0 53c0,7 3,12 7,17 5,5 11,7 18,7l12 0c7,0 12,-2 17,-7 5,-4 7,-10 7,-17zm142 4l0 -61c0,-6 -1,-11 -5,-15 -4,-4 -9,-5 -15,-5l-20 0c-6,0 -11,1 -15,5 -2,2 -3,4 -4,7 -1,2 -2,5 -2,8l0 61c0,6 2,11 6,14 2,2 4,4 7,5 3,1 5,1 8,1l20 0c6,0 10,-2 14,-5 4,-4 6,-9 6,-15zm-32 -102l-46 -43c-2,-3 -3,-6 -3,-9 0,-2 0,-4 2,-6 2,-2 5,-3 8,-3l81 0c3,0 6,2 8,4 2,2 3,4 3,7 0,2 -1,4 -3,6 -2,3 -4,4 -8,4l-55 0 53 51 3 3c6,8 10,17 10,27l0 61c0,11 -4,21 -12,29 -8,8 -18,12 -29,12l-20 0c-11,0 -21,-4 -29,-12 -8,-8 -12,-18 -12,-29l0 -61c0,-11 4,-21 12,-29 8,-8 17,-12 29,-12l8 0zm113 122l41 0c6,0 11,-2 14,-5 4,-4 6,-9 6,-15l0 -61c0,-6 -1,-11 -5,-15 -4,-4 -9,-5 -15,-5l-41 0 0 101zm0 21l0 50c0,3 -1,5 -3,7 -2,2 -4,3 -7,3 -2,0 -4,0 -7,-2 -2,-2 -3,-4 -3,-8l0 -183c0,-6 4,-10 10,-10l51 0c11,0 21,4 29,12 8,8 12,18 12,29l0 61c0,11 -4,21 -12,29 -8,8 -18,12 -29,12l-41 0zm204 -41l0 -81 -41 0c-6,0 -11,1 -15,5 -2,2 -3,4 -4,7 -1,2 -2,5 -2,8l0 61c0,6 2,11 6,14 2,2 4,4 7,5 3,1 5,1 8,1l20 0c6,0 11,-2 15,-5 4,-4 6,-9 6,-15zm9 27c-3,4 -7,7 -13,10 -6,2 -11,4 -17,4l-20 0c-11,0 -21,-4 -29,-12 -8,-8 -12,-18 -12,-29l0 -61c0,-11 4,-21 12,-29 8,-8 18,-12 29,-12l51 0c6,0 10,4 10,10l0 92c0,4 1,8 4,12 2,4 5,7 10,9 4,2 6,5 6,9 0,3 -1,6 -3,7 -2,2 -4,4 -7,4 -1,0 -3,-1 -4,-1 -7,-3 -12,-7 -17,-13zm105 -48l-13 0c-3,0 -6,-1 -8,-3 -1,-2 -2,-4 -2,-7 0,-2 1,-4 2,-7 2,-2 5,-3 8,-3l10 0c6,0 11,-2 15,-6 4,-4 5,-9 5,-14 0,-6 -1,-11 -4,-14 -2,-2 -4,-4 -7,-5 -2,-1 -5,-1 -9,-1l-10 0c-9,0 -18,2 -24,8 -2,1 -4,2 -7,2 -2,0 -4,-1 -7,-3 -2,-2 -3,-5 -3,-7 0,-4 2,-6 4,-8 11,-9 23,-13 37,-13l10 0c13,0 23,5 31,13 6,8 10,17 10,28 0,3 -1,6 -1,9 -1,2 -1,5 -3,8 -1,4 -5,9 -9,13 4,4 7,9 9,14l3 8c0,3 1,6 1,9 0,11 -4,20 -10,28 -8,8 -18,13 -31,13l-10 0c-14,0 -26,-5 -37,-13 -2,-2 -4,-4 -4,-8 0,-2 1,-4 3,-7 2,-2 5,-3 7,-3 2,0 4,0 7,2 7,6 15,8 24,8l10 0c6,0 11,-2 15,-6 4,-4 5,-9 5,-14 0,-6 -1,-10 -4,-14 -3,-3 -7,-6 -13,-7zm180 17c0,12 -5,22 -13,31 -9,9 -20,14 -32,14l-12 0c-12,0 -23,-5 -32,-13 -8,-9 -13,-20 -13,-32l0 -53c0,-12 4,-22 13,-31 9,-9 19,-14 32,-14l12 0c12,0 23,5 31,13 9,9 14,20 14,32l0 53zm-21 0l0 -53c0,-7 -2,-12 -7,-17 -4,-5 -10,-7 -17,-7l-12 0c-7,0 -13,2 -17,7 -5,4 -8,10 -8,17l0 53c0,7 3,12 7,17 5,5 11,7 18,7l12 0c7,0 12,-2 17,-7 5,-4 7,-10 7,-17z"/>
    <path class="fil3 str0" d="M8165 2325l0 -61c0,-6 -2,-10 -6,-14 -4,-4 -9,-6 -15,-6l-20 0c-6,0 -11,2 -15,6 -2,1 -3,4 -4,6 -1,3 -2,5 -2,8l0 61c0,6 2,11 6,15 2,1 4,3 7,4 3,1 5,1 8,1l20 0c6,0 11,-2 15,-5 4,-4 6,-9 6,-15zm-62 -94l9 -6 12 -8c4,-3 6,-6 8,-8 3,-3 4,-6 4,-10 0,-4 -2,-8 -5,-12 -3,-2 -7,-4 -11,-4 -5,0 -9,2 -12,4 -3,3 -5,7 -5,12l0 32zm41 -7c13,0 23,4 31,12 6,7 10,16 10,28l0 61c0,11 -4,21 -12,29 -8,8 -18,12 -29,12l-20 0c-11,0 -21,-4 -29,-12 -8,-8 -12,-18 -12,-29l0 -126c0,-11 4,-20 11,-27 8,-6 16,-10 26,-10 9,0 18,4 25,10 7,6 11,15 11,27 0,7 -1,11 -3,15 -1,3 -4,7 -9,10zm163 101l0 -81 -41 0c-6,0 -11,1 -15,5 -2,2 -3,4 -4,7 -1,2 -2,5 -2,8l0 61c0,6 2,11 6,14 2,2 4,4 7,5 3,1 5,1 8,1l20 0c6,0 11,-2 15,-5 4,-4 6,-9 6,-15zm9 27c-3,4 -7,7 -13,10 -6,2 -11,4 -17,4l-20 0c-11,0 -21,-4 -29,-12 -8,-8 -12,-18 -12,-29l0 -61c0,-11 4,-21 12,-29 8,-8 18,-12 29,-12l51 0c6,0 10,4 10,10l0 92c0,4 1,8 4,12 2,4 5,7 10,9 4,2 6,5 6,9 0,3 -1,6 -3,7 -2,2 -4,4 -7,4 -1,0 -3,-1 -4,-1 -7,-3 -12,-7 -17,-13zm133 -68l0 -51c0,-2 1,-5 3,-7 2,-2 4,-3 7,-3 2,0 5,1 7,3 2,2 3,4 3,7l0 122c0,4 -1,6 -3,8 -2,2 -4,3 -7,3 -3,0 -5,-1 -7,-3 -2,-2 -3,-4 -3,-8l0 -51 -62 0 0 51c0,4 -1,6 -2,8 -2,2 -5,3 -8,3 -2,0 -5,-1 -7,-3 -2,-2 -3,-4 -3,-8l0 -122c0,-2 1,-5 3,-7 2,-2 5,-3 7,-3 3,0 5,1 7,3 2,2 3,4 3,7l0 51 62 0zm162 71c0,7 -4,11 -10,11l-51 0c-11,0 -21,-4 -29,-12 -8,-8 -12,-18 -12,-29l0 -92c0,-2 1,-5 3,-7 2,-2 5,-3 7,-3 3,0 5,1 7,3 2,2 3,4 3,7l0 92c0,6 2,11 6,15 2,1 5,3 7,4 3,1 5,1 8,1l41 0 0 -112c0,-2 1,-5 3,-7 2,-2 4,-3 7,-3 2,0 5,1 7,3 2,2 3,4 3,7l0 122zm122 -71l0 -40 -41 0c-6,0 -11,2 -15,6 -4,4 -5,8 -5,14 0,5 1,10 5,14 3,4 8,6 15,6l41 0zm-25 21l-38 56c-1,1 -2,2 -4,4l-4 1c-2,0 -5,-1 -7,-4 -3,-2 -4,-4 -4,-7 0,-1 1,-3 2,-5l30 -46c-10,-1 -17,-6 -23,-14 -6,-8 -9,-17 -9,-26 0,-11 4,-20 10,-28 8,-8 18,-13 31,-13l51 0c6,0 10,4 10,10l0 122c0,4 -1,6 -3,8 -2,2 -4,3 -7,3 -3,0 -5,-1 -7,-3 -2,-2 -3,-4 -3,-8l0 -50 -25 0z"/>
   </g>
   <path class="fil3 str0" d="M3982 3199c0,12 -4,23 -13,31 -8,9 -19,14 -31,14l-13 0c-12,0 -22,-5 -31,-13 -9,-9 -13,-19 -13,-32l0 -53c0,-12 4,-22 13,-31 9,-9 19,-14 31,-14l13 0c12,0 22,5 31,13 9,9 13,20 13,32l0 53zm-20 0l0 -53c0,-7 -2,-12 -7,-17 -5,-5 -10,-7 -17,-7l-13 0c-6,0 -12,2 -17,7 -5,5 -7,10 -7,17l0 53c0,7 2,12 7,17 5,5 11,8 17,8l13 0c6,0 12,-3 17,-7 5,-5 7,-11 7,-18zm102 -22l-23 24 0 33c0,3 -1,5 -3,7 -2,2 -4,3 -7,3 -3,0 -5,-1 -7,-3 -2,-2 -3,-4 -3,-7l0 -122c0,-3 1,-5 3,-8 2,-2 4,-2 7,-2 2,0 5,0 7,2 2,2 3,4 3,8l0 60 64 -68c2,-2 4,-3 7,-3 2,0 4,1 7,3 2,2 3,5 3,8 0,3 -1,5 -3,8l-41 42 42 65c1,3 2,5 2,7 0,3 -1,5 -3,7 -2,2 -5,3 -7,3 -3,0 -5,-1 -8,-4l-40 -63zm121 47l41 0c5,0 10,-2 14,-6 4,-4 6,-9 6,-15l0 -61c0,-6 -2,-11 -6,-14 -3,-4 -8,-6 -14,-6l-41 0 0 102zm0 20l0 50c0,3 -1,6 -3,8 -2,2 -4,3 -7,3 -2,0 -5,-1 -7,-3 -2,-2 -3,-4 -3,-8l0 -182c0,-7 3,-11 10,-11l51 0c11,0 20,4 28,12 8,8 12,18 12,29l0 61c0,11 -4,21 -12,29 -7,8 -17,12 -28,12l-41 0zm203 0l-40 0c-11,0 -21,-4 -29,-12 -8,-8 -12,-18 -12,-29l0 -91c0,-3 1,-6 3,-8 2,-2 4,-3 7,-3 3,0 5,1 7,3 2,2 3,4 3,8l0 91c0,6 2,11 6,15 2,1 4,3 6,4 3,1 6,2 9,2l40 0 0 -112c0,-3 1,-6 3,-8 2,-2 5,-3 7,-3 3,0 5,1 7,3 2,2 3,4 3,8l0 152c0,11 -3,20 -11,29 -8,8 -18,12 -29,12l-41 0c-2,0 -5,-1 -7,-3 -2,-3 -3,-5 -3,-8 0,-2 1,-5 3,-7 1,-2 4,-3 7,-3l41 0c6,0 10,-2 14,-5 4,-4 6,-9 6,-15l0 -20zm145 -82l37 -56c1,-1 3,-3 4,-4l2 -1 3 0c2,0 5,1 7,4 2,2 3,4 3,7 0,1 0,3 -1,5l-37 55 37 56 1 3 0 3c0,2 -1,4 -3,7 -2,2 -4,3 -7,3 -4,0 -6,-2 -9,-5l-37 -56 -5 0 0 50c0,4 -1,6 -3,8 -1,2 -4,3 -7,3 -3,0 -5,-1 -7,-3 -2,-2 -3,-4 -3,-8l0 -50 -5 0 -37 56c-1,1 -2,3 -4,4l-5 1c-2,0 -4,-1 -7,-3 -2,-2 -3,-5 -3,-8 0,-1 0,-3 2,-5l36 -55 -37 -56 -1 -3 0 -2c0,-3 1,-5 3,-7 2,-2 5,-4 8,-4 3,0 6,2 8,5l37 56 5 0 0 -50c0,-3 1,-6 3,-8 2,-2 4,-3 7,-3 3,0 5,1 7,3 2,2 3,4 3,8l0 50 5 0zm180 0l0 -50c0,-3 1,-6 3,-8 2,-2 4,-3 7,-3 3,0 5,1 7,3 2,2 3,4 3,8l0 122c0,3 -1,5 -3,7 -2,2 -4,3 -7,3 -3,0 -5,-1 -7,-3 -2,-2 -3,-4 -3,-8l0 -50 -61 0 0 50c0,4 -1,6 -3,8 -2,2 -4,3 -7,3 -3,0 -5,-1 -7,-3 -2,-2 -3,-4 -3,-7l0 -122c0,-3 1,-6 3,-8 2,-2 4,-3 7,-3 2,0 5,1 7,3 2,2 3,4 3,8l0 50 61 0zm182 72c0,3 -1,5 -3,7 -1,2 -4,3 -7,3 -2,0 -5,-1 -7,-3 -2,-2 -3,-4 -3,-7l0 -122c0,-3 1,-6 3,-8 2,-2 5,-3 7,-3 3,0 5,1 7,3 2,2 3,4 3,8l0 122zm-101 -51l0 41 20 0c6,0 11,-3 15,-7 4,-4 5,-9 5,-14 0,-6 -1,-10 -4,-14 -2,-2 -4,-4 -7,-5 -2,-1 -5,-1 -9,-1l-20 0zm0 -21l20 0c13,0 23,5 31,13 6,8 10,17 10,28 0,11 -4,20 -10,28 -8,8 -18,13 -31,13l-30 0c-7,0 -10,-4 -10,-10l0 -122c0,-3 1,-6 3,-8 2,-2 4,-3 7,-3 2,0 5,1 7,3 2,2 3,4 3,8l0 50zm162 1l61 0 0 -21c0,-6 -2,-10 -5,-14 -4,-4 -9,-6 -15,-6l-20 0c-6,0 -11,2 -15,6 -2,1 -3,4 -4,6 -1,3 -2,5 -2,8l0 21zm0 20l0 20c0,6 2,11 6,15 2,1 4,3 7,4 2,1 5,2 7,2l51 0c3,0 6,1 8,3 1,2 2,4 2,7 0,2 0,4 -2,6 -2,3 -4,4 -8,4l-50 0c-11,0 -21,-4 -29,-12 -8,-8 -12,-18 -12,-29l0 -61c0,-11 4,-20 12,-28 8,-8 17,-13 29,-13l20 0c11,0 20,4 28,12 8,8 12,18 12,29l0 31c0,6 -3,10 -10,10l-71 0zm285 -6l-23 24 0 33c0,3 -1,5 -3,7 -2,2 -4,3 -7,3 -3,0 -5,-1 -7,-3 -2,-2 -3,-4 -3,-7l0 -122c0,-3 1,-5 3,-8 2,-2 4,-2 7,-2 2,0 5,0 7,2 2,2 3,4 3,8l0 60 64 -68c2,-2 4,-3 7,-3 2,0 4,1 7,3 2,2 3,5 3,8 0,3 -1,5 -3,8l-41 42 42 65c1,3 2,5 2,7 0,3 -1,5 -3,7 -2,2 -5,3 -7,3 -3,0 -6,-1 -8,-4l-40 -63zm192 22c0,12 -4,23 -13,31 -9,9 -19,14 -32,14l-12 0c-12,0 -22,-5 -31,-13 -9,-9 -13,-19 -13,-32l0 -53c0,-12 4,-22 13,-31 8,-9 19,-14 31,-14l12 0c12,0 23,5 32,13 9,9 13,20 13,32l0 53zm-20 0l0 -53c0,-7 -3,-12 -7,-17 -5,-5 -11,-7 -18,-7l-12 0c-7,0 -12,2 -17,7 -5,5 -7,10 -7,17l0 53c0,7 2,12 7,17 5,5 10,8 17,8l12 0c7,0 13,-3 18,-7 4,-5 7,-11 7,-18zm182 35l0 -122c0,-4 -1,-7 -2,-9 -2,-2 -4,-3 -7,-3 -3,0 -6,2 -9,6l-43 59 -42 -59c-3,-4 -6,-6 -9,-6 -3,0 -5,1 -7,3 -2,2 -2,5 -2,9l0 122c0,3 0,5 2,7 2,2 5,3 8,3 2,0 4,-1 6,-3 3,-2 4,-4 4,-7l0 -91 32 46c3,3 6,5 8,5 3,0 6,-2 9,-5l32 -46 0 91c0,3 1,5 3,7 2,2 4,3 7,3 3,0 5,-1 7,-3 2,-2 3,-4 3,-7zm142 0c0,6 -3,10 -10,10l-50 0c-11,0 -21,-4 -29,-12 -8,-8 -12,-18 -12,-29l0 -91c0,-3 1,-6 3,-8 2,-2 4,-3 7,-3 3,0 5,1 7,3 2,2 3,4 3,8l0 91c0,6 2,11 6,15 2,1 4,3 6,4 3,1 6,2 8,2l41 0 0 -112c0,-3 1,-6 3,-8 2,-2 5,-3 7,-3 3,0 5,1 7,3 2,2 3,4 3,8l0 122zm112 10l-30 0c-11,0 -21,-4 -29,-12 -8,-8 -12,-18 -12,-29l0 -61c0,-11 4,-21 12,-29 8,-8 17,-12 29,-12l30 0c3,0 5,2 7,4 2,2 3,4 3,7 0,2 -1,4 -2,6 -2,3 -5,4 -8,4l-31 0c-5,0 -10,2 -14,6 -2,1 -3,4 -4,6 -1,3 -2,5 -2,8l0 61c0,6 2,11 6,15 2,1 4,3 6,4 3,1 6,2 8,2l31 0c3,0 5,1 7,3 2,2 3,4 3,7 0,2 -1,4 -2,6 -2,3 -5,4 -8,4zm122 0l-31 0c-11,0 -20,-4 -28,-12 -8,-8 -12,-18 -12,-29l0 -61c0,-11 4,-21 12,-29 8,-8 17,-12 28,-12l31 0c3,0 5,2 7,4 2,2 3,4 3,7 0,2 -1,4 -3,6 -1,3 -4,4 -7,4l-31 0c-5,0 -10,2 -14,6 -2,1 -4,4 -5,6 -1,3 -1,5 -1,8l0 61c0,6 2,11 6,15 2,1 4,3 6,4 3,1 6,2 8,2l31 0c3,0 5,1 7,3 2,2 3,4 3,7 0,2 -1,4 -3,6 -1,3 -4,4 -7,4zm152 -10c0,6 -3,10 -10,10l-51 0c-11,0 -20,-4 -28,-12 -8,-8 -13,-18 -13,-29l0 -91c0,-3 1,-6 3,-8 2,-2 5,-3 8,-3 2,0 4,1 7,3 2,2 3,4 3,8l0 91c0,6 2,11 5,15 2,1 5,3 7,4 3,1 6,2 8,2l41 0 0 -112c0,-3 1,-6 3,-8 2,-2 4,-3 7,-3 2,0 5,1 7,3 2,2 3,4 3,8l0 122zm142 0c0,6 -3,10 -10,10l-51 0c-11,0 -20,-4 -28,-12 -8,-8 -13,-18 -13,-29l0 -91c0,-3 1,-6 4,-8 2,-2 4,-3 7,-3 2,0 5,1 7,3 2,2 3,4 3,8l0 91c0,6 2,11 6,15 2,1 4,3 6,4 3,1 6,2 8,2l41 0 0 -112c0,-3 1,-6 3,-8 2,-2 4,-3 7,-3 2,0 5,1 7,3 2,2 3,4 3,8l0 122z"/>
   <path class="fil3 str0" d="M3942 4000l-41 0 0 112c0,3 -1,5 -3,7 -2,2 -4,3 -7,3 -3,0 -5,-1 -7,-3 -2,-1 -3,-4 -3,-7l0 -122c0,-7 3,-10 10,-10l91 0c11,0 21,4 29,11 8,8 12,18 12,29l0 92c0,3 -1,5 -3,7 -2,2 -4,3 -7,3 -3,0 -5,-1 -7,-3 -2,-1 -3,-4 -3,-7l0 -92c0,-6 -2,-10 -6,-14 -4,-4 -9,-6 -15,-6l-20 0 0 112c0,3 -1,5 -3,7 -2,2 -4,3 -7,3 -3,0 -5,-1 -7,-3 -2,-1 -3,-4 -3,-7l0 -112zm142 41l61 0 0 -21c0,-5 -2,-10 -6,-14 -4,-4 -9,-6 -15,-6l-20 0c-6,0 -11,2 -15,6 -1,2 -3,4 -4,6 -1,3 -1,6 -1,8l0 21zm0 20l0 20c0,6 2,11 5,15 2,2 5,3 7,4 3,1 6,2 8,2l51 0c3,0 5,1 7,3 2,2 3,4 3,7 0,2 -1,4 -3,7 -1,2 -4,3 -7,3l-51 0c-11,0 -20,-4 -29,-12 -8,-8 -12,-17 -12,-29l0 -61c0,-11 4,-20 12,-28 8,-8 18,-12 29,-12l20 0c11,0 21,4 29,11 8,8 12,18 12,29l0 31c0,7 -3,10 -10,10l-71 0zm142 41l40 0c6,0 11,-2 15,-6 4,-4 6,-9 6,-15l0 -61c0,-5 -2,-10 -6,-14 -4,-4 -9,-6 -15,-6l-40 0 0 102zm0 20l0 51c0,2 -1,5 -3,7 -2,2 -5,3 -7,3 -3,0 -5,-1 -7,-3 -2,-1 -4,-4 -4,-7l0 -183c0,-7 4,-10 11,-10l50 0c11,0 21,4 29,11 8,8 12,18 12,29l0 61c0,11 -4,21 -12,29 -8,8 -17,12 -29,12l-40 0zm142 -20l40 0c6,0 11,-2 15,-6 4,-4 6,-9 6,-15l0 -61c0,-5 -2,-10 -6,-14 -4,-4 -9,-6 -15,-6l-40 0 0 102zm0 20l0 51c0,2 -1,5 -3,7 -2,2 -5,3 -7,3 -3,0 -5,-1 -7,-3 -2,-1 -3,-4 -3,-7l0 -183c0,-7 3,-10 10,-10l50 0c11,0 21,4 29,11 8,8 12,18 12,29l0 61c0,11 -4,21 -12,29 -8,8 -17,12 -29,12l-40 0zm223 -10c0,7 -3,10 -10,10l-51 0c-11,0 -20,-4 -28,-12 -8,-8 -12,-17 -12,-29l0 -91c0,-3 1,-5 3,-8 2,-1 4,-2 7,-2 2,0 5,1 7,2 2,2 3,4 3,8l0 91c0,6 2,11 6,15 2,2 4,3 6,4 3,1 6,2 8,2l41 0 0 -112c0,-3 1,-5 3,-8 2,-1 4,-2 7,-2 3,0 5,1 7,2 2,2 3,4 3,8l0 122zm101 -112l-40 0 0 112c0,3 -1,5 -3,7 -2,2 -4,3 -7,3 -3,0 -5,-1 -7,-3 -2,-1 -3,-4 -3,-7l0 -122c0,-7 3,-10 10,-10l91 0c11,0 20,4 28,11 8,8 12,18 12,29l0 92c0,3 0,5 -2,7 -2,2 -5,3 -8,3 -2,0 -5,-1 -7,-3 -2,-1 -3,-4 -3,-7l0 -92c0,-6 -2,-10 -5,-14 -4,-4 -9,-6 -15,-6l-20 0 0 112c0,3 -1,5 -3,7 -2,2 -4,3 -7,3 -3,0 -6,-1 -8,-3 -2,-1 -3,-4 -3,-7l0 -112zm224 77c0,12 -5,23 -13,32 -9,8 -19,13 -32,13l-12 0c-12,0 -23,-4 -32,-13 -8,-9 -13,-19 -13,-32l0 -53c0,-12 5,-22 13,-31 9,-9 20,-13 32,-13l12 0c12,0 23,4 31,13 9,8 14,19 14,31l0 53zm-20 0l0 -53c0,-6 -3,-12 -8,-17 -4,-5 -10,-7 -17,-7l-12 0c-7,0 -13,2 -17,7 -5,5 -8,11 -8,17l0 53c0,7 3,13 8,17 4,5 10,8 17,8l12 0c7,0 12,-3 17,-7 5,-5 8,-11 8,-18zm80 25l41 0c6,0 11,-2 15,-6 4,-4 6,-9 6,-15l0 -61c0,-5 -2,-10 -6,-14 -4,-4 -9,-6 -15,-6l-41 0 0 102zm0 20l0 51c0,2 -1,5 -3,7 -2,2 -4,3 -7,3 -2,0 -4,-1 -6,-3 -3,-1 -4,-4 -4,-7l0 -183c0,-7 4,-10 10,-10l51 0c11,0 21,4 29,11 8,8 12,18 12,29l0 61c0,11 -4,21 -12,29 -8,8 -18,12 -29,12l-41 0zm224 -10c0,7 -4,10 -10,10l-51 0c-11,0 -21,-4 -29,-12 -8,-8 -12,-17 -12,-29l0 -91c0,-3 1,-5 3,-8 2,-1 5,-2 7,-2 3,0 5,1 7,2 2,2 3,4 3,8l0 91c0,6 2,11 6,15 2,2 5,3 7,4 3,1 5,2 8,2l41 0 0 -112c0,-3 1,-5 3,-8 2,-1 4,-2 7,-2 2,0 5,1 7,2 2,2 3,4 3,8l0 122zm122 -31l0 -81 -41 0c-6,0 -11,2 -15,6 -2,2 -3,4 -4,6 -1,3 -1,5 -1,8l0 61c0,6 1,11 5,15 2,2 5,3 7,4 3,1 5,2 8,2l20 0c6,0 11,-2 15,-6 4,-4 6,-9 6,-15zm10 28c-4,3 -8,6 -14,9 -5,3 -11,4 -17,4l-20 0c-11,0 -20,-4 -29,-12 -8,-8 -12,-17 -12,-29l0 -61c0,-11 4,-20 12,-28 8,-8 18,-12 29,-12l51 0c6,0 10,3 10,10l0 91c0,4 1,8 4,12 2,4 5,7 10,9 4,2 6,5 6,9 0,3 -1,6 -3,8 -1,2 -4,3 -7,3 -1,0 -3,0 -4,-1 -7,-3 -12,-7 -16,-12zm152 3c0,3 -1,5 -3,7 -2,2 -4,3 -7,3 -3,0 -5,-1 -7,-3 -2,-1 -3,-4 -3,-7l0 -112 -24 0 -38 115c0,2 -2,4 -3,5 -1,1 -3,1 -6,2 -3,0 -5,-1 -7,-3 -2,-2 -3,-4 -3,-7l0 -3 40 -122c2,-5 5,-7 10,-7l41 0c7,0 10,3 10,10l0 122zm61 -51l0 41 40 0c7,0 12,-2 15,-7 4,-4 6,-8 6,-14 0,-6 -2,-10 -5,-14 -2,-2 -4,-3 -7,-5 -2,-1 -5,-1 -9,-1l-40 0zm0 -20l40 0c13,0 23,4 31,12 7,8 10,17 10,28 0,11 -3,20 -10,28 -8,9 -18,13 -31,13l-50 0c-7,0 -11,-3 -11,-10l0 -122c0,-3 1,-5 3,-8 2,-1 5,-2 8,-2 2,0 4,1 6,2 3,2 4,4 4,8l0 51zm203 0l0 -51c0,-3 1,-5 3,-8 2,-1 4,-2 7,-2 2,0 5,1 7,2 2,2 3,4 3,8l0 122c0,3 -1,5 -3,7 -2,2 -4,3 -7,3 -3,0 -5,-1 -7,-3 -2,-1 -3,-4 -3,-7l0 -51 -61 0 0 51c0,3 -1,5 -3,7 -2,2 -4,3 -7,3 -3,0 -5,-1 -8,-3 -2,-1 -3,-4 -3,-7l0 -122c0,-3 1,-5 3,-8 3,-1 5,-2 8,-2 2,0 4,1 7,2 2,2 3,4 3,8l0 51 61 0zm182 71c0,3 -1,5 -3,7 -1,2 -4,3 -7,3 -3,0 -5,-1 -7,-3 -2,-1 -3,-4 -3,-7l0 -122c0,-3 1,-5 3,-8 2,-1 4,-2 7,-2 3,0 5,1 7,2 2,2 3,4 3,8l0 122zm-101 -51l0 41 20 0c6,0 11,-2 15,-7 4,-4 5,-8 5,-14 0,-6 -1,-10 -5,-14 -1,-2 -3,-3 -6,-5 -3,-1 -6,-1 -9,-1l-20 0zm0 -20l20 0c13,0 23,4 30,12 7,8 11,17 11,28 0,11 -4,20 -10,28 -8,9 -18,13 -31,13l-30 0c-7,0 -11,-3 -11,-10l0 -122c0,-3 1,-5 4,-8 2,-1 4,-2 7,-2 2,0 5,1 7,2 2,2 3,4 3,8l0 51zm162 0l61 0 0 -21c0,-5 -2,-10 -6,-14 -3,-4 -8,-6 -14,-6l-21 0c-5,0 -10,2 -14,6 -2,2 -4,4 -5,6 0,3 -1,6 -1,8l0 21zm0 20l0 20c0,6 2,11 6,15 2,2 4,3 6,4 3,1 6,2 8,2l51 0c3,0 5,1 7,3 2,2 3,4 3,7 0,2 0,4 -2,7 -2,2 -4,3 -8,3l-51 0c-11,0 -20,-4 -28,-12 -8,-8 -12,-17 -12,-29l0 -61c0,-11 4,-20 12,-28 7,-8 17,-12 28,-12l21 0c11,0 20,4 28,11 8,8 12,18 12,29l0 31c0,7 -3,10 -10,10l-71 0zm285 -6l-23 24 0 33c0,3 -1,5 -3,7 -2,2 -4,3 -7,3 -3,0 -5,-1 -7,-3 -2,-1 -3,-4 -3,-7l0 -122c0,-3 1,-5 3,-8 2,-1 4,-2 7,-2 2,0 5,1 7,2 2,2 3,5 3,8l0 60 64 -68c2,-2 4,-3 7,-3 2,0 4,1 7,3 2,2 3,5 3,8 0,3 -1,5 -3,8l-41 43 42 64c1,3 2,5 2,7 0,3 -1,5 -3,7 -3,2 -5,3 -8,3 -2,0 -5,-1 -7,-4l-40 -63zm192 22c0,12 -4,23 -13,32 -9,8 -19,13 -32,13l-12 0c-12,0 -23,-4 -31,-13 -9,-9 -14,-19 -14,-32l0 -53c0,-12 5,-22 13,-31 9,-9 20,-13 32,-13l12 0c12,0 23,4 32,13 9,8 13,19 13,31l0 53zm-20 0l0 -53c0,-6 -3,-12 -7,-17 -5,-5 -11,-7 -18,-7l-12 0c-7,0 -12,2 -17,7 -5,5 -7,11 -7,17l0 53c0,7 2,13 7,17 4,5 10,8 17,8l12 0c7,0 13,-3 17,-7 5,-5 8,-11 8,-18zm182 35l0 -122c0,-4 -1,-7 -2,-9 -2,-2 -4,-3 -7,-3 -3,0 -6,2 -9,6l-43 59 -42 -59c-3,-4 -6,-6 -10,-6 -2,0 -4,1 -6,3 -2,2 -3,5 -3,9l0 122c0,3 1,5 3,7 2,2 5,3 8,3 2,0 4,-1 6,-3 3,-2 4,-4 4,-7l0 -90 32 45c3,4 5,5 8,5 3,0 6,-1 9,-5l32 -45 0 90c0,3 1,5 3,7 2,2 4,3 7,3 2,0 5,-1 7,-3 2,-2 3,-4 3,-7zm142 0c0,7 -3,10 -10,10l-51 0c-11,0 -20,-4 -28,-12 -8,-8 -12,-17 -12,-29l0 -91c0,-3 1,-5 3,-8 2,-1 4,-2 7,-2 2,0 5,1 7,2 2,2 3,4 3,8l0 91c0,6 2,11 6,15 2,2 4,3 6,4 3,1 6,2 8,2l41 0 0 -112c0,-3 1,-5 3,-8 2,-1 5,-2 7,-2 3,0 5,1 7,2 2,2 3,4 3,8l0 122zm112 10l-31 0c-11,0 -20,-4 -28,-12 -8,-8 -12,-17 -12,-29l0 -61c0,-11 4,-20 12,-28 8,-8 17,-12 28,-12l31 0c3,0 5,1 7,3 2,2 3,4 3,7 0,2 -1,4 -2,7 -2,2 -5,3 -8,3l-31 0c-5,0 -10,2 -14,6 -2,2 -4,4 -5,6 -1,3 -1,5 -1,8l0 61c0,6 2,11 6,15 2,2 4,3 6,4 3,1 6,2 8,2l31 0c3,0 5,1 7,3 2,2 3,4 3,7 0,2 -1,4 -2,7 -2,2 -5,3 -8,3zm122 0l-31 0c-11,0 -20,-4 -28,-12 -8,-8 -12,-17 -12,-29l0 -61c0,-11 4,-20 11,-28 8,-8 18,-12 29,-12l31 0c2,0 5,1 7,3 2,2 3,4 3,7 0,2 -1,4 -3,7 -1,2 -4,3 -7,3l-31 0c-6,0 -10,2 -14,6 -2,2 -4,4 -5,6 -1,3 -1,5 -1,8l0 61c0,6 2,11 6,15 2,2 4,3 6,4 3,1 6,2 8,2l31 0c2,0 5,1 7,3 2,2 3,4 3,7 0,2 -1,4 -3,7 -1,2 -4,3 -7,3zm152 -10c0,7 -4,10 -10,10l-51 0c-11,0 -20,-4 -29,-12 -8,-8 -12,-17 -12,-29l0 -91c0,-3 1,-5 3,-8 2,-1 5,-2 7,-2 3,0 5,1 7,2 2,2 4,4 4,8l0 91c0,6 1,11 5,15 2,2 5,3 7,4 3,1 5,2 8,2l41 0 0 -112c0,-3 1,-5 3,-8 2,-1 4,-2 7,-2 2,0 5,1 7,2 2,2 3,4 3,8l0 122zm142 0c0,7 -3,10 -10,10l-51 0c-11,0 -20,-4 -29,-12 -8,-8 -12,-17 -12,-29l0 -91c0,-3 1,-5 3,-8 2,-1 5,-2 7,-2 3,0 5,1 7,2 3,2 4,4 4,8l0 91c0,6 1,11 5,15 2,2 5,3 7,4 3,1 6,2 8,2l41 0 0 -112c0,-3 1,-5 3,-8 2,-1 4,-2 7,-2 2,0 5,1 7,2 2,2 3,4 3,8l0 122z"/>
   <path class="fil3 str0" d="M3962 5000l-41 0c-10,0 -20,-4 -28,-12 -8,-8 -12,-17 -12,-29l0 -91c0,-3 1,-5 3,-8 2,-1 4,-2 7,-2 2,0 5,1 7,2 2,2 3,5 3,8l0 92c0,5 2,10 6,14 2,2 4,3 6,4 3,1 6,2 8,2l41 0 0 -112c0,-3 1,-5 3,-8 2,-1 5,-2 7,-2 3,0 5,1 7,2 2,2 3,5 3,8l0 152c0,11 -4,21 -11,29 -8,8 -18,12 -29,12l-41 0c-2,0 -5,-1 -7,-3 -2,-2 -3,-5 -3,-7 0,-3 1,-5 3,-7 1,-2 4,-3 7,-3l41 0c5,0 10,-2 14,-6 4,-4 6,-9 6,-15l0 -20zm142 -81l0 -51c0,-3 1,-5 3,-8 2,-1 5,-2 7,-2 3,0 5,1 7,2 2,2 3,5 3,8l0 122c0,3 -1,6 -2,8 -2,1 -5,2 -8,2 -2,0 -5,-1 -7,-3 -2,-1 -3,-4 -3,-7l0 -51 -40 0c-11,0 -21,-4 -29,-12 -8,-8 -12,-17 -12,-29l0 -30c0,-3 1,-5 3,-8 2,-1 4,-2 7,-2 3,0 5,1 7,2 2,2 3,5 3,8l0 30c0,6 2,11 6,15 2,2 4,3 6,4 3,1 6,2 8,2l41 0zm142 40l0 -81 -41 0c-5,0 -10,2 -14,6 -2,2 -3,4 -4,6 -1,3 -2,6 -2,8l0 61c0,6 2,11 6,15 2,2 4,3 6,4 3,1 6,2 8,2l21 0c5,0 10,-2 14,-6 4,-4 6,-8 6,-15zm10 28c-3,3 -8,7 -13,9 -6,3 -12,4 -17,4l-20 0c-11,0 -21,-4 -29,-12 -8,-8 -12,-17 -12,-29l0 -61c0,-11 4,-20 12,-28 8,-8 17,-12 29,-12l50 0c7,0 10,3 10,10l0 91c0,4 2,8 4,13 3,3 6,6 10,8 5,2 7,5 7,10 0,3 -1,5 -3,7 -2,2 -4,3 -7,3 -2,0 -3,0 -5,-1 -6,-3 -12,-7 -16,-12zm122 13l-30 0c-11,0 -21,-4 -29,-12 -8,-8 -12,-17 -12,-29l0 -61c0,-11 4,-20 12,-28 8,-8 17,-12 29,-12l30 0c3,0 5,1 7,3 2,2 3,4 3,7 0,2 -1,5 -2,7 -2,2 -5,3 -8,3l-30 0c-6,0 -11,2 -15,6 -2,2 -3,4 -4,6 -1,3 -2,6 -2,8l0 61c0,6 2,11 6,15 2,2 4,3 6,4 3,1 6,2 9,2l30 0c3,0 5,1 7,3 2,2 3,4 3,7 0,2 -1,5 -2,7 -2,2 -5,3 -8,3zm112 -122l-41 0 0 112c0,3 -1,6 -3,8 -2,1 -4,2 -7,2 -3,0 -5,-1 -7,-2 -2,-2 -3,-5 -3,-8l0 -122c0,-7 3,-10 10,-10l91 0c11,0 21,4 29,12 8,8 12,17 12,28l0 92c0,3 -1,6 -3,8 -2,1 -5,2 -8,2 -2,0 -5,-1 -7,-2 -2,-2 -3,-5 -3,-8l0 -92c0,-5 -2,-10 -5,-14 -4,-4 -9,-6 -15,-6l-20 0 0 112c0,3 -1,6 -3,8 -2,1 -4,2 -7,2 -3,0 -5,-1 -7,-2 -2,-2 -3,-5 -3,-8l0 -112zm162 56l-23 23 0 33c0,3 -1,6 -2,8 -2,1 -5,2 -8,2 -2,0 -5,-1 -7,-2 -2,-2 -3,-5 -3,-8l0 -122c0,-3 1,-5 3,-7 2,-2 5,-3 7,-3 3,0 5,1 7,3 2,1 3,4 3,7l0 60 65 -67c2,-2 4,-3 6,-3 2,0 5,1 7,3 3,2 4,4 4,7 0,3 -2,6 -4,8l-40 43 41 64c2,3 3,5 3,7 0,3 -2,5 -4,7 -2,2 -4,3 -7,3 -3,0 -5,-1 -7,-4l-41 -62zm193 21c0,12 -5,23 -13,32 -9,9 -20,13 -32,13l-12 0c-12,0 -23,-4 -32,-13 -9,-8 -13,-19 -13,-32l0 -52c0,-12 4,-23 13,-32 9,-9 19,-13 32,-13l12 0c12,0 22,4 31,13 9,8 14,19 14,32l0 52zm-21 0l0 -53c0,-6 -2,-12 -7,-17 -4,-5 -10,-7 -17,-7l-12 0c-7,0 -13,2 -18,7 -4,5 -7,11 -7,17l0 53c0,7 3,13 7,18 5,4 11,7 18,7l12 0c7,0 12,-2 17,-7 5,-5 7,-11 7,-18zm142 5l0 -61c0,-6 -1,-11 -5,-15 -4,-4 -9,-6 -15,-6l-20 0c-6,0 -11,2 -15,6 -2,2 -3,4 -4,7 -1,2 -2,5 -2,8l0 61c0,5 2,10 6,14 2,2 4,3 7,4 3,1 5,2 8,2l20 0c6,0 10,-2 14,-6 4,-4 6,-8 6,-14zm-61 -95l9 -5 12 -9c4,-3 6,-5 8,-7 3,-3 4,-7 4,-10 0,-5 -2,-9 -5,-12 -3,-3 -7,-4 -11,-4 -5,0 -9,1 -12,4 -3,3 -5,7 -5,12l0 31zm41 -6c13,0 23,3 30,11 7,8 11,17 11,29l0 60c0,12 -4,21 -12,29 -8,8 -18,12 -29,12l-20 0c-11,0 -21,-4 -29,-12 -8,-7 -12,-17 -12,-29l0 -125c0,-12 4,-21 11,-28 7,-6 16,-9 26,-9 9,0 18,3 25,10 7,6 11,15 11,27 0,6 -1,11 -3,14 -1,4 -4,7 -9,11zm203 131c0,3 -1,6 -3,8 -2,1 -4,2 -7,2 -3,0 -5,-1 -7,-2 -2,-2 -3,-5 -3,-8l0 -122c0,-3 1,-5 3,-8 2,-1 4,-2 7,-2 2,0 5,1 7,2 2,2 3,5 3,8l0 122zm-102 -51l0 41 21 0c6,0 11,-2 14,-6 4,-4 6,-9 6,-15 0,-5 -2,-10 -5,-14 -2,-2 -4,-3 -6,-4 -3,-2 -6,-2 -9,-2l-21 0zm0 -20l21 0c12,0 23,4 30,12 7,8 10,17 10,28 0,11 -3,20 -10,28 -7,9 -18,13 -30,13l-31 0c-6,0 -10,-3 -10,-10l0 -122c0,-3 1,-5 3,-8 2,-1 5,-2 7,-2 3,0 5,1 7,2 2,2 3,5 3,8l0 51zm163 0l61 0 0 -20c0,-6 -2,-11 -6,-15 -4,-4 -9,-6 -15,-6l-20 0c-6,0 -11,2 -15,6 -1,2 -3,4 -4,7 -1,2 -1,5 -1,8l0 20zm0 20l0 21c0,5 2,10 5,14 3,2 5,3 7,4 3,1 6,2 8,2l51 0c3,0 5,1 7,3 2,2 3,4 3,7 0,2 -1,5 -3,7 -1,2 -4,3 -7,3l-51 0c-11,0 -20,-4 -29,-12 -8,-8 -12,-17 -12,-29l0 -61c0,-10 4,-20 12,-28 8,-8 18,-12 29,-12l20 0c11,0 21,4 29,12 8,8 12,17 12,29l0 30c0,7 -3,10 -10,10l-71 0zm284 -5l-23 23 0 33c0,3 -1,6 -2,8 -2,1 -5,2 -8,2 -2,0 -5,-1 -7,-2 -2,-2 -3,-5 -3,-8l0 -122c0,-3 1,-5 3,-7 2,-2 5,-3 7,-3 3,0 5,1 7,3 2,1 3,4 3,7l0 60 65 -67c2,-2 4,-3 6,-3 2,0 5,1 7,3 2,2 4,4 4,7 0,3 -2,6 -4,8l-41 43 42 64c2,3 3,5 3,7 0,3 -2,5 -4,7 -2,2 -4,3 -7,3 -3,0 -5,-1 -7,-4l-41 -62zm193 21c0,12 -5,23 -13,32 -9,9 -20,13 -32,13l-12 0c-12,0 -23,-4 -32,-13 -9,-8 -13,-19 -13,-32l0 -52c0,-12 4,-23 13,-32 9,-9 19,-13 32,-13l12 0c12,0 22,4 31,13 9,8 14,19 14,32l0 52zm-21 0l0 -53c0,-6 -2,-12 -7,-17 -4,-5 -10,-7 -17,-7l-12 0c-7,0 -13,2 -18,7 -4,5 -7,11 -7,17l0 53c0,7 3,13 7,18 5,4 11,7 18,7l12 0c7,0 12,-2 17,-7 5,-5 7,-11 7,-18zm183 35l0 -122c0,-4 -1,-7 -3,-9 -2,-2 -4,-3 -6,-3 -3,0 -6,2 -10,6l-42 60 -43 -60c-2,-4 -5,-6 -9,-6 -2,0 -4,1 -6,4 -2,2 -3,5 -3,8l0 122c0,3 1,6 3,8 2,1 4,2 7,2 3,0 5,-1 7,-3 2,-1 3,-4 3,-7l0 -90 33 45c2,4 5,5 8,5 3,0 5,-1 8,-5l33 -45 0 90c0,3 1,6 2,8 2,1 5,2 8,2 2,0 4,-1 7,-3 2,-1 3,-4 3,-7zm142 0c0,7 -3,10 -10,10l-51 0c-11,0 -20,-4 -28,-12 -9,-8 -13,-17 -13,-29l0 -91c0,-3 1,-5 3,-8 2,-1 5,-2 7,-2 3,0 5,1 7,2 3,2 4,5 4,8l0 92c0,5 2,10 5,14 2,2 5,3 7,4 3,1 6,2 8,2l41 0 0 -112c0,-3 1,-5 3,-8 2,-1 4,-2 7,-2 2,0 5,1 7,2 2,2 3,5 3,8l0 122zm112 10l-31 0c-11,0 -20,-4 -28,-12 -9,-8 -13,-17 -13,-29l0 -61c0,-11 4,-20 12,-28 8,-8 18,-12 29,-12l31 0c2,0 5,1 7,3 2,2 3,4 3,7 0,2 -1,5 -3,7 -2,2 -4,3 -7,3l-31 0c-6,0 -11,2 -15,6 -2,2 -3,4 -4,6 -1,3 -1,6 -1,8l0 61c0,6 2,11 5,15 2,2 5,3 7,4 3,1 6,2 8,2l31 0c2,0 5,1 7,3 2,2 3,4 3,7 0,2 -1,5 -3,7 -2,2 -4,3 -7,3zm121 0l-30 0c-11,0 -21,-4 -29,-12 -8,-8 -12,-17 -12,-29l0 -61c0,-11 4,-20 12,-28 8,-8 18,-12 29,-12l30 0c3,0 6,1 8,3 1,2 2,4 2,7 0,2 0,5 -2,7 -2,2 -4,3 -8,3l-30 0c-6,0 -11,2 -15,6 -2,2 -3,4 -4,6 -1,3 -2,6 -2,8l0 61c0,6 2,11 6,15 2,2 4,3 7,4 3,1 5,2 8,2l30 0c3,0 5,1 8,3 1,2 2,4 2,7 0,2 0,5 -2,7 -2,2 -4,3 -8,3zm152 -10c0,7 -3,10 -10,10l-50 0c-11,0 -21,-4 -29,-12 -8,-8 -12,-17 -12,-29l0 -91c0,-3 1,-5 3,-8 2,-1 4,-2 7,-2 3,0 5,1 7,2 2,2 3,5 3,8l0 92c0,5 2,10 6,14 2,2 4,3 7,4 2,1 5,2 8,2l40 0 0 -112c0,-3 1,-5 3,-8 2,-1 5,-2 7,-2 3,0 5,1 7,2 2,2 3,5 3,8l0 122zm143 0c0,7 -4,10 -11,10l-50 0c-11,0 -21,-4 -29,-12 -8,-8 -12,-17 -12,-29l0 -91c0,-3 1,-5 3,-8 2,-1 4,-2 7,-2 3,0 5,1 7,2 2,2 3,5 3,8l0 92c0,5 2,10 6,14 2,2 4,3 7,4 2,1 5,2 8,2l40 0 0 -112c0,-3 1,-5 3,-8 2,-1 5,-2 7,-2 3,0 5,1 7,2 2,2 4,5 4,8l0 122z"/>
  </g>
 </g>
</svg>
