<?xml version="1.0" encoding="UTF-8"?>
<!DOCTYPE svg PUBLIC "-//W3C//DTD SVG 1.0//EN" "http://www.w3.org/TR/2001/REC-SVG-20010904/DTD/svg10.dtd">
<!-- Creator: CorelDRAW X7 -->
<svg xmlns="http://www.w3.org/2000/svg" xml:space="preserve" width="115mm" height="70.122mm" version="1.0" style="shape-rendering:geometricPrecision; text-rendering:geometricPrecision; image-rendering:optimizeQuality; fill-rule:evenodd; clip-rule:evenodd"
viewBox="0 0 11500 7012"
 xmlns:xlink="http://www.w3.org/1999/xlink">
 <defs>
  <style type="text/css">
   <![CDATA[
    .fil1 {fill:#FEE7C7}
    .fil13 {fill:#F9D5BD}
    .fil12 {fill:#F9ECE3}
    .fil2 {fill:#EED8BB}
    .fil4 {fill:#E0CDA5}
    .fil3 {fill:#D2BC8E}
    .fil11 {fill:#B2AFAD}
    .fil5 {fill:#A08C72}
    .fil7 {fill:#A49D95}
    .fil14 {fill:#9F9C9B}
    .fil20 {fill:#797574}
    .fil8 {fill:#706660}
    .fil19 {fill:#4F433D}
    .fil15 {fill:#748094}
    .fil18 {fill:#3A332F}
    .fil9 {fill:#46433D}
    .fil17 {fill:#312D2A}
    .fil6 {fill:#34322E}
    .fil21 {fill:#4F5360}
    .fil16 {fill:#43464D}
    .fil10 {fill:#3497A1}
    .fil0 {fill:url(#id0)}
   ]]>
  </style>
  <radialGradient id="id0" gradientUnits="userSpaceOnUse" gradientTransform="matrix(1.17124 -0 -0 1.92083 -985 -3229)" cx="5750" cy="3506.1" r="3506.1" fx="5750" fy="3506.1">
   <stop offset="0" style="stop-opacity:1; stop-color:#FEFEFE"/>
   <stop offset="0.439216" style="stop-opacity:1; stop-color:#FEFEFE"/>
   <stop offset="1" style="stop-opacity:1; stop-color:#D1E2F2"/>
  </radialGradient>
 </defs>
 <g id="Layer_x0020_1">
  <metadata id="CorelCorpID_0Corel-Layer"/>
  <path class="fil0" d="M0 0l11500 0 0 7012 -11500 0 0 -7012z"/>
  <g id="_521324799152">
   <path class="fil1" d="M6718 2353l49 -28 -931 -492 -66 34 0 0 948 486z"/>
   <path class="fil2" d="M6819 2297l-918 -497 -65 33 931 492 52 -28z"/>
   <path class="fil3" d="M6874 2267l-912 -498 -61 31 918 497 55 -30z"/>
   <path class="fil4" d="M6938 2232l0 -1 -912 -495 -64 33 912 498 64 -35z"/>
   <path class="fil2" d="M6938 2232l56 -31 -911 -494 -57 29 912 495 0 1z"/>
   <path class="fil1" d="M7058 2166l-892 -500 -83 41 911 494 64 -35z"/>
   <path class="fil5" d="M6886 2785c5,0 11,-2 17,-4 57,-21 103,-121 103,-223 0,-53 -13,-97 -33,-123 -6,0 -12,1 -17,4 -57,21 -103,121 -103,222 0,54 12,98 33,124z"/>
   <path class="fil6" d="M6903 2781c-6,2 -12,4 -17,4 18,23 43,33 70,23 57,-22 102,-121 102,-223 0,-92 -36,-154 -85,-150 20,26 33,70 33,123 0,102 -46,202 -103,223z"/>
   <path class="fil7" d="M6956 2439c5,-3 11,-4 17,-4 49,-4 85,58 85,150 0,102 -45,201 -102,223 -27,10 -52,0 -70,-23 -21,-26 -33,-70 -33,-124 0,-101 46,-201 103,-222zm0 421c74,-28 135,-159 135,-293 0,-134 -61,-220 -135,-192 -75,27 -136,159 -136,293 0,134 61,220 136,192z"/>
   <path class="fil8" d="M6911 2309l271 -148 0 -7 -966 -514 -50 26 892 500 -64 35 -56 31 -64 35 -55 30 -52 28 -49 28 -948 -486 0 0 -62 31 998 524 205 -113z"/>
   <path class="fil9" d="M6956 2375c74,-28 135,58 135,192 0,134 -61,265 -135,293 -75,28 -136,-58 -136,-192 0,-134 61,-266 136,-293zm-250 47l0 0 2 803 472 -250 2 -1 0 -65 0 -748 -271 148 -205 113z"/>
   <path class="fil6" d="M5674 2032c83,45 261,150 333,252 133,188 92,356 247,587 124,184 346,304 454,354l-2 -803 0 0 -998 -524 4 68 3 45 -41 21z"/>
   <path class="fil10" d="M5964 2317c133,188 93,357 247,588 167,248 517,381 517,381l555 -317 4 -3c-11,-6 -54,-29 -105,-57l0 65 -2 1 2 1 -474 249c-108,-50 -330,-170 -454,-354 -155,-231 -114,-399 -247,-587 -72,-102 -250,-207 -333,-252l41 -21 -3 -45 -100 46 0 0 -12 6 0 0c-7,5 -13,13 -13,25 0,0 282,140 377,274z"/>
   <path class="fil10" d="M7283 2969l-555 317 -10 933 573 -312 -8 -938z"/>
   <path class="fil10" d="M6211 2905c-154,-231 -114,-400 -247,-588 -95,-134 -377,-274 -377,-274l15 1504 1116 672 10 -933c0,0 -350,-133 -517,-381z"/>
   <path class="fil11" d="M6995 4124l0 13 -12 -6 12 -7z"/>
   <path class="fil11" d="M6994 4446l-17 -11 8 -5 15 -8 2 28 -8 -4z"/>
   <path class="fil12" d="M6995 4137l1 1 -1 1 0 -2z"/>
   <path class="fil13" d="M6993 4160l-185 107 -1 -10 4 -3 173 -99 9 5z"/>
   <path class="fil13" d="M6983 4318l9 5 -185 107 -1 -10 5 -2 172 -100z"/>
   <path class="fil13" d="M6983 4348l9 5 -185 107 -1 -10 5 -2 172 -100z"/>
   <path class="fil13" d="M6983 4381l9 5 -185 107 -1 -10 5 -2 172 -100z"/>
   <path class="fil13" d="M6983 4412l9 5 -186 107 0 -10 4 -2 173 -100z"/>
   <path class="fil13" d="M6985 4430l-8 5 8 -5z"/>
   <path class="fil13" d="M6993 4193l-185 107 -1 -10 5 -3 172 -99 9 5z"/>
   <path class="fil12" d="M6997 4171l-186 107 0 -4 182 -105 4 2z"/>
   <path class="fil12" d="M6996 4242l-186 107 0 -8 179 -103 7 4z"/>
   <path class="fil13" d="M6993 4226l-186 107 -1 -10 5 -2 173 -100 9 5z"/>
   <path class="fil13" d="M6993 4264l-186 107 -1 -10 5 -3 173 -100 9 6z"/>
   <path class="fil13" d="M6993 4293l-186 107 -1 -10 5 -3 173 -99 9 5z"/>
   <path class="fil12" d="M6996 4302l-186 107 0 -1 185 -107 1 1z"/>
   <path class="fil12" d="M6810 4468l182 -105 4 1 -186 107 0 -3z"/>
   <path class="fil12" d="M6810 4438l185 -107 1 0 -186 107 0 0z"/>
   <path class="fil12" d="M6809 4501l185 -106 1 0 -185 107 -1 -1z"/>
   <path class="fil11" d="M6983 4131l12 6 0 2 -184 106 -1 -14 2 -1 171 -99z"/>
   <path class="fil12" d="M6996 4204l-186 107 0 -3 183 -105 3 1z"/>
   <path class="fil14" d="M6977 4435l17 11 -185 107 -7 4 -2 -20 7 -4 1 0 169 -98z"/>
   <path class="fil12" d="M6811 4278l186 -107 8 5 -21 12 -172 99 -5 3 -1086 627 0 -13 1087 -628 3 -2 0 4z"/>
   <path class="fil13" d="M6808 4276l-1087 628 0 -20 1086 -627 1 10 185 -107 8 5 -8 4 -182 105 -3 2z"/>
   <path class="fil13" d="M7001 4198l-8 5 -183 105 -1 1 -1088 628 0 -20 1086 -627 1 10 185 -107 8 5z"/>
   <path class="fil12" d="M5721 4880l1273 -737 1 -4 1 -1 8 5 -20 12 -173 99 -4 3 -1086 627 0 -4z"/>
   <path class="fil13" d="M6807 4333l186 -107 8 5 -12 7 -179 103 -2 1 -1087 628 0 -20 1085 -627 1 10z"/>
   <path class="fil12" d="M6810 4311l186 -107 8 5 -20 12 -173 100 -5 2 -1085 627 0 -13 1088 -628 1 -1 0 3z"/>
   <path class="fil12" d="M6810 4349l186 -107 8 5 -20 11 -173 100 -5 3 -1085 627 0 -18 1087 -628 2 -1 0 8z"/>
   <path class="fil13" d="M6996 4271l-188 109 -1087 628 0 -20 1085 -627 1 10 186 -107 8 4 -5 3z"/>
   <path class="fil12" d="M6808 4380l188 -109 8 5 -20 12 -173 99 -5 3 -1085 627 0 -9 1087 -628z"/>
   <path class="fil13" d="M6995 4301l-185 107 -2 1 -1087 628 0 -20 1085 -627 1 10 186 -107 8 5 -6 3z"/>
   <path class="fil13" d="M6807 4460l185 -107 8 5 -8 5 -182 105 -2 1 -1087 628 0 -20 1085 -627 1 10z"/>
   <path class="fil13" d="M6807 4430l185 -107 8 5 -5 3 -185 107 -2 1 -1087 628 0 -20 1085 -627 1 10z"/>
   <path class="fil12" d="M6810 4409l186 -107 8 4 -21 12 -172 100 -5 2 -1085 627 0 -10 1087 -628 2 -1 0 1z"/>
   <path class="fil12" d="M6810 4438l186 -107 8 5 -21 12 -172 100 -5 2 -1085 627 0 -10 1087 -628 2 -1 0 0z"/>
   <path class="fil12" d="M6810 4471l186 -107 8 5 -21 12 -172 100 -5 2 -1085 627 0 -13 1087 -628 2 -1 0 3z"/>
   <path class="fil13" d="M6807 4493l185 -107 8 5 -6 4 -185 106 -1 1 -1087 628 0 -20 1085 -627 1 10z"/>
   <path class="fil12" d="M6810 4502l185 -107 8 5 -20 12 -173 100 -4 2 -1085 627 0 -11 1087 -628 1 -1 1 1z"/>
   <path class="fil13" d="M6806 4524l186 -107 8 5 -15 8 -8 5 -1256 713 0 -7 1085 -627 0 10z"/>
   <path class="fil15" d="M6796 3998l200 116 -185 107 -7 5 -17 -232 9 4z"/>
   <path class="fil11" d="M5721 4884l0 20 -27 16 0 -20 27 -16z"/>
   <path class="fil11" d="M5693 5157l28 -16 0 7 1256 -713 -169 98 -1 0 -7 4 -1108 640 0 -23 1 3z"/>
   <path class="fil14" d="M5701 4862l0 8 -7 -4 7 -4z"/>
   <path class="fil14" d="M5699 5194l0 8 -7 -4 7 -4z"/>
   <path class="fil11" d="M6802 4557l-1103 637 -7 4 0 -21 1108 -640 2 20z"/>
   <path class="fil11" d="M6811 4221l185 -107 1 9 -2 1 -12 7 -171 99 -2 1 -1116 645 0 -10 7 4 0 -8 1103 -636 7 -5z"/>
   <path class="fil11" d="M5694 4920l27 -16 0 13 -27 16 0 -9 0 -1 0 0 0 0 0 -3z"/>
   <path class="fil11" d="M5721 5110l-28 16 0 -9 1 -1 -1 0 0 -3 28 -16 0 13z"/>
   <path class="fil11" d="M5693 5084l1 -1 -1 0 28 -16 0 10 -28 16 0 -9 0 0z"/>
   <path class="fil11" d="M5721 5017l-27 16 -1 -8 0 -1 28 -16 0 9z"/>
   <path class="fil16" d="M5695 3363l0 0 8 5 1084 626 17 232 -1103 636 -7 4 -193 -112 -25 -14 -1243 -717 -7 -5 -1 0 1 -1 1106 -639 18 0 345 -15z"/>
   <path class="fil11" d="M5721 4988l-27 16 0 -4 0 -6 0 0 0 0 0 -8 27 -16 0 18z"/>
   <path class="fil11" d="M5721 5047l-28 16 0 -5 0 -4 1 -1 -1 0 0 0 28 -16 0 10z"/>
   <path class="fil15" d="M5695 3363l-345 15 -18 0 195 -112 8 5 160 92z"/>
   <path class="fil11" d="M6994 4143l-1273 737 0 4 -27 16 0 -24 1116 -645 1 14 184 -106 -1 4z"/>
   <path class="fil11" d="M5694 4924l0 9 27 -16 0 20 -27 16 0 -29z"/>
   <path class="fil13" d="M5694 4923l0 0 0 0 0 0z"/>
   <path class="fil11" d="M5694 4956l0 -3 27 -16 0 13 -27 16 0 -10z"/>
   <path class="fil11" d="M5694 4966l27 -16 0 20 -27 16 0 -20z"/>
   <path class="fil11" d="M5694 5004l27 -16 0 20 -28 16 1 -24 0 4z"/>
   <path class="fil11" d="M5694 5033l27 -16 0 20 -28 16 0 -28 1 8z"/>
   <path class="fil13" d="M5694 4994l0 0 0 0 0 0z"/>
   <path class="fil13" d="M5694 5083l-1 1 0 -1 1 0z"/>
   <path class="fil11" d="M5693 5063l28 -16 0 20 -28 16 0 -25 0 5z"/>
   <path class="fil11" d="M5693 5093l28 -16 0 20 -28 16 0 -29 0 9z"/>
   <path class="fil13" d="M5694 5053l-1 1 0 -1 1 0z"/>
   <path class="fil13" d="M5693 5147l0 1 0 -1 0 0z"/>
   <path class="fil11" d="M5693 5126l28 -16 0 20 -28 16 0 -30 1 0 -1 1 0 9z"/>
   <path class="fil11" d="M5721 5141l-28 16 -1 -3 1 -6 0 -1 0 0 0 -1 28 -16 0 11z"/>
   <path class="fil11" d="M5699 5202l0 -8 1103 -637 7 -4 185 -107 8 4 -192 112 -1118 645 0 -1 0 1 0 -9 7 4z"/>
   <path class="fil17" d="M5455 4799c55,32 101,110 101,175 0,24 -7,43 -18,55 -16,3 -34,-1 -54,-13 -56,-32 -101,-110 -101,-174 0,-25 7,-44 18,-56 16,-2 34,2 54,13z"/>
   <path class="fil18" d="M5455 5052c57,34 105,14 116,-43 9,-12 14,-30 14,-51 0,-64 -45,-142 -101,-175l17 -29 193 112 0 10 0 24 0 20 0 3 0 0 0 1 0 29 0 3 0 10 0 20 0 8 0 0 0 6 -1 24 0 1 0 28 0 0 0 1 0 4 0 25 0 1 0 0 0 29 0 3 0 30 0 1 0 1 -1 6 0 23 0 21 0 9 0 -1 -244 -143 7 -11z"/>
   <path class="fil19" d="M5437 4770c14,-1 30,4 47,13 56,33 101,111 101,175 0,21 -5,39 -14,51 1,-8 2,-16 2,-25 0,-76 -53,-168 -118,-206 -6,-3 -12,-6 -18,-8z"/>
   <path class="fil14" d="M5556 4974c0,-65 -46,-143 -101,-175 -20,-11 -38,-15 -54,-13 9,-10 22,-16 36,-16 6,2 12,5 18,8 65,38 118,130 118,206 0,9 -1,17 -2,25 -8,11 -20,18 -33,20 11,-12 18,-31 18,-55z"/>
   <path class="fil20" d="M5383 4842c0,64 45,142 101,174 20,12 38,16 54,13 -19,20 -49,23 -83,3 -56,-32 -101,-111 -101,-175 0,-41 19,-67 47,-71 -11,12 -18,31 -18,56z"/>
   <path class="fil14" d="M5455 5032c34,20 64,17 83,-3 13,-2 25,-9 33,-20 -11,57 -59,77 -116,43 -66,-37 -119,-130 -119,-205 0,-69 44,-101 101,-77 -14,0 -27,6 -36,16 -28,4 -47,30 -47,71 0,64 45,143 101,175z"/>
   <path class="fil18" d="M4233 4023l1243 717 25 14 -17 29c-17,-9 -33,-14 -47,-13 -57,-24 -101,8 -101,77 0,75 53,168 119,205l-7 11 -704 -413 -509 -298 -8 -5 -1 -1 0 -22 0 -7 0 -16 0 -3 0 -5 0 -6 0 -18 0 -2 0 -7 0 -6 0 -18 0 -2 0 -4 0 -6 0 -18 0 -2 0 -5 0 -5 0 -18 0 -2 0 -4 0 -5 0 -18 0 -2 0 -12 0 -6 0 -18 0 -2 0 -8 0 -5 0 -19 0 -1 0 -8 0 -5 0 -19 0 -1 0 0 0 -23 7 5z"/>
   <path class="fil21" d="M4235 4352l509 298 -513 -296 -7 -4 -1 -1 1 0 3 -2 8 5z"/>
   <path class="fil13" d="M4226 4317l0 7 -5 -2 -1 -1 1 -1 5 -3z"/>
   <path class="fil12" d="M4226 4298l0 3 -1 -1 -2 -1 2 -1 1 0z"/>
   <path class="fil13" d="M4226 4287l0 6 -4 -2 -1 -1 1 -1 4 -2z"/>
   <path class="fil12" d="M4226 4267l0 2 -1 0 -1 -1 1 -1 1 0z"/>
   <path class="fil13" d="M4226 4254l0 6 -4 -3 -1 0 1 -1 4 -2z"/>
   <path class="fil12" d="M4226 4234l0 2 -1 0 -1 -1 1 -1 1 0z"/>
   <path class="fil13" d="M4226 4224l0 6 -4 -3 -1 0 1 -1 4 -2z"/>
   <path class="fil12" d="M4226 4204l0 2 -1 0 -1 -1 1 -1 1 0z"/>
   <path class="fil13" d="M4226 4194l0 5 -4 -2 -1 -1 1 0 4 -2z"/>
   <path class="fil12" d="M4226 4174l0 2 -1 -1 -1 0 1 -1 1 0z"/>
   <path class="fil13" d="M4226 4165l0 5 -4 -2 -1 -1 1 0 4 -2z"/>
   <path class="fil12" d="M4226 4145l0 2 -1 -1 -1 -1 1 0 1 0z"/>
   <path class="fil13" d="M4226 4127l0 6 -4 -3 -1 0 1 -1 4 -2z"/>
   <path class="fil12" d="M4225 4107l1 0 0 2 -1 0 -1 -1 1 -1z"/>
   <path class="fil13" d="M4226 4094l0 5 -3 -2 -1 -1 1 0 3 -2z"/>
   <path class="fil12" d="M4226 4074l0 1 -1 0 1 -1z"/>
   <path class="fil13" d="M4226 4061l0 5 -3 -2 -2 0 2 -1 3 -2z"/>
   <path class="fil12" d="M4226 4041l0 0 0 1 0 0 -1 0 1 -1z"/>
   <path class="fil11" d="M6595 3690l-1 14 -11 -7 12 -7z"/>
   <path class="fil11" d="M6594 4012l-18 -10 9 -5 15 -9 2 29 -8 -5z"/>
   <path class="fil12" d="M6594 3704l2 1 -2 1 0 -2z"/>
   <path class="fil13" d="M6593 3726l-186 107 0 -10 4 -2 173 -100 9 5z"/>
   <path class="fil13" d="M6583 3884l9 6 -185 107 -1 -11 5 -2 172 -100z"/>
   <path class="fil13" d="M6583 3914l9 6 -185 106 -1 -9 5 -3 172 -100z"/>
   <path class="fil13" d="M6583 3947l9 6 -185 107 -1 -10 5 -3 172 -100z"/>
   <path class="fil13" d="M6582 3978l10 6 -186 107 -1 -10 5 -3 172 -100z"/>
   <path class="fil13" d="M6585 3997l-9 5 9 -5z"/>
   <path class="fil13" d="M6593 3759l-185 107 -1 -10 4 -2 173 -100 9 5z"/>
   <path class="fil12" d="M6596 3737l-185 107 0 -3 182 -105 3 1z"/>
   <path class="fil12" d="M6596 3808l-186 107 0 -8 179 -103 7 4z"/>
   <path class="fil13" d="M6593 3792l-186 108 -1 -10 5 -3 172 -100 10 5z"/>
   <path class="fil13" d="M6593 3830l-186 107 -1 -10 5 -3 172 -99 10 5z"/>
   <path class="fil13" d="M6593 3859l-186 107 -1 -10 5 -3 172 -99 10 5z"/>
   <path class="fil12" d="M6595 3868l-185 107 0 -1 185 -107 0 1z"/>
   <path class="fil12" d="M6410 4034l182 -105 3 2 -185 107 0 -4z"/>
   <path class="fil12" d="M6410 4004l185 -107 0 1 -185 107 0 -1z"/>
   <path class="fil12" d="M6409 4067l185 -106 1 1 -186 107 0 -2z"/>
   <path class="fil11" d="M6583 3697l11 7 0 2 -183 106 -1 -14 1 -1 172 -100z"/>
   <path class="fil12" d="M6596 3771l-186 107 0 -4 183 -105 3 2z"/>
   <path class="fil14" d="M6576 4002l18 10 -185 107 -8 4 -1 -19 7 -4 0 -1 169 -97z"/>
   <path class="fil12" d="M6411 3844l185 -107 8 5 -20 12 -173 100 -4 2 -1086 628 0 -14 1087 -628 3 -1 0 3z"/>
   <path class="fil13" d="M6408 3842l-1087 628 0 -20 1086 -627 0 10 186 -107 8 5 -8 5 -182 105 -3 1z"/>
   <path class="fil13" d="M6601 3764l-8 5 -183 105 -2 1 -1087 628 0 -19 1086 -628 1 10 185 -107 8 5z"/>
   <path class="fil12" d="M5321 4446l1273 -736 0 -4 2 -1 8 4 -20 12 -173 100 -4 2 -1086 627 0 -4z"/>
   <path class="fil13" d="M6407 3900l186 -108 8 5 -12 7 -179 103 -2 2 -1087 627 0 -19 1085 -627 1 10z"/>
   <path class="fil12" d="M6410 3878l186 -107 8 5 -21 11 -172 100 -5 3 -1085 627 0 -14 1087 -628 2 -1 0 4z"/>
   <path class="fil12" d="M6410 3915l186 -107 8 5 -21 12 -172 99 -5 3 -1085 627 0 -18 1087 -627 2 -2 0 8z"/>
   <path class="fil13" d="M6596 3837l-188 109 -1087 628 0 -20 1085 -627 1 10 186 -107 8 5 -5 2z"/>
   <path class="fil12" d="M6408 3946l188 -109 8 5 -21 12 -172 99 -5 3 -1085 627 0 -9 1087 -628z"/>
   <path class="fil13" d="M6595 3867l-185 107 -2 1 -1087 628 0 -20 1085 -627 1 10 186 -107 8 5 -6 3z"/>
   <path class="fil13" d="M6407 4026l185 -106 8 4 -8 5 -182 105 -3 2 -1086 627 0 -19 1085 -627 1 9z"/>
   <path class="fil13" d="M6407 3997l185 -107 8 4 -5 3 -185 107 -3 2 -1086 627 0 -19 1085 -628 1 11z"/>
   <path class="fil12" d="M6410 3975l185 -107 8 5 -20 11 -172 100 -5 2 -1085 628 0 -11 1087 -628 2 -1 0 1z"/>
   <path class="fil12" d="M6410 4005l185 -107 8 5 -20 11 -172 100 -5 3 -1085 627 0 -11 1086 -627 3 -2 0 1z"/>
   <path class="fil12" d="M6410 4038l185 -107 8 4 -20 12 -172 100 -5 3 -1085 626 0 -13 1086 -627 3 -2 0 4z"/>
   <path class="fil13" d="M6407 4060l185 -107 8 4 -6 4 -185 106 -2 2 -1086 627 0 -20 1085 -626 1 10z"/>
   <path class="fil12" d="M6409 4069l186 -107 8 5 -21 11 -172 100 -5 3 -1084 626 0 -11 1086 -627 2 -2 0 2z"/>
   <path class="fil13" d="M6406 4091l186 -107 8 4 -15 9 -9 5 -1255 712 0 -7 1084 -626 1 10z"/>
   <path class="fil15" d="M6395 3565l201 116 -185 107 -8 4 -16 -232 8 5z"/>
   <path class="fil11" d="M5321 4450l0 20 -27 16 0 -20 27 -16z"/>
   <path class="fil11" d="M5292 4723l29 -16 0 7 1255 -712 -169 97 0 1 -7 4 -1108 639 0 -22 0 2z"/>
   <path class="fil14" d="M5301 4429l0 7 -7 -4 7 -3z"/>
   <path class="fil14" d="M5299 4760l0 8 -7 -4 7 -4z"/>
   <path class="fil11" d="M6401 4123l-1102 637 -7 4 0 -21 1108 -639 1 19z"/>
   <path class="fil11" d="M6411 3788l185 -107 1 8 -2 1 -12 7 -172 100 -1 1 -1116 644 0 -10 7 4 0 -7 1102 -637 8 -4z"/>
   <path class="fil11" d="M5294 4486l27 -16 0 14 -27 15 0 -9 0 0 0 -1 0 0 0 -3z"/>
   <path class="fil11" d="M5321 4676l-28 16 0 -9 0 0 0 -1 0 -2 28 -17 0 13z"/>
   <path class="fil11" d="M5293 4650l0 0 0 0 28 -17 0 11 -28 15 0 -9 0 0z"/>
   <path class="fil11" d="M5321 4583l-28 16 0 -8 0 -1 28 -16 0 9z"/>
   <path class="fil21" d="M5295 2929l0 0 8 5 1084 626 16 232 -1102 637 -7 3 -194 -111 -24 -14 -1243 -718 -7 -4 -1 -1 1 0 1106 -639 18 -1 345 -15z"/>
   <path class="fil11" d="M5321 4554l-28 16 0 -4 0 -6 0 0 0 0 0 -8 28 -16 0 18z"/>
   <path class="fil11" d="M5321 4614l-28 16 0 -5 0 -5 0 0 0 0 0 -1 28 -16 0 11z"/>
   <path class="fil15" d="M5295 2929l-345 15 -18 1 195 -113 8 5 160 92z"/>
   <path class="fil11" d="M6594 3710l-1273 736 0 4 -27 16 0 -24 1116 -644 1 14 183 -106 0 4z"/>
   <path class="fil11" d="M5294 4490l0 9 27 -15 0 19 -28 16 1 -29z"/>
   <path class="fil13" d="M5294 4489l0 1 0 -1 0 0z"/>
   <path class="fil11" d="M5293 4523l0 -4 28 -16 0 14 -28 15 0 -9z"/>
   <path class="fil11" d="M5293 4532l28 -15 0 19 -28 16 0 -20z"/>
   <path class="fil11" d="M5293 4570l28 -16 0 20 -28 16 0 -24 0 4z"/>
   <path class="fil11" d="M5293 4599l28 -16 0 20 -28 16 0 -28 0 8z"/>
   <path class="fil13" d="M5293 4560l0 0 0 0 0 0z"/>
   <path class="fil13" d="M5293 4650l0 0 0 0 0 0z"/>
   <path class="fil11" d="M5293 4630l28 -16 0 19 -28 17 0 -25 0 5z"/>
   <path class="fil11" d="M5293 4659l28 -15 0 19 -28 17 0 -30 0 9z"/>
   <path class="fil13" d="M5293 4620l0 0 0 0 0 0z"/>
   <path class="fil13" d="M5293 4714l-1 0 0 0 1 0z"/>
   <path class="fil11" d="M5293 4692l28 -16 0 20 -29 17 1 -31 0 1 0 0 0 9z"/>
   <path class="fil11" d="M5321 4707l-29 16 0 -2 0 -7 1 0 -1 0 0 -1 29 -17 0 11z"/>
   <path class="fil11" d="M5299 4768l0 -8 1102 -637 8 -4 185 -107 8 5 -193 111 -1117 646 0 -1 0 0 0 -9 7 4z"/>
   <path class="fil17" d="M5054 4365c56,32 101,111 101,175 0,24 -6,43 -18,56 -15,2 -34,-2 -53,-13 -56,-33 -101,-111 -101,-175 0,-25 7,-44 18,-56 15,-2 34,2 53,13z"/>
   <path class="fil19" d="M5054 4619c58,33 106,13 117,-44 9,-12 14,-29 14,-51 0,-64 -46,-142 -101,-174l16 -29 194 111 0 10 0 24 0 20 0 3 0 1 0 0 -1 29 0 4 0 9 0 20 0 8 0 0 0 6 0 24 0 1 0 28 0 1 0 0 0 5 0 25 0 0 0 0 0 30 0 2 -1 31 0 1 0 0 0 7 0 22 0 21 0 9 0 0 -244 -143 6 -11z"/>
   <path class="fil19" d="M5037 4336c14,0 30,4 47,14 55,32 101,110 101,174 0,22 -5,39 -14,51 1,-8 2,-16 2,-25 0,-75 -53,-168 -119,-205 -5,-4 -11,-7 -17,-9z"/>
   <path class="fil14" d="M5155 4540c0,-64 -45,-143 -101,-175 -19,-11 -38,-15 -53,-13 9,-10 22,-15 36,-16 6,2 12,5 17,9 66,37 119,130 119,205 0,9 -1,17 -2,25 -8,11 -20,18 -34,21 12,-13 18,-32 18,-56z"/>
   <path class="fil20" d="M4983 4408c0,64 45,142 101,175 19,11 38,15 53,13 -18,19 -48,22 -83,2 -55,-32 -100,-110 -100,-175 0,-41 19,-67 47,-71 -11,12 -18,31 -18,56z"/>
   <path class="fil14" d="M5054 4598c35,20 65,17 83,-2 14,-3 26,-10 34,-21 -11,57 -59,77 -117,44 -65,-38 -118,-130 -118,-206 0,-69 44,-101 101,-77 -14,1 -27,6 -36,16 -28,4 -47,30 -47,71 0,65 45,143 100,175z"/>
   <path class="fil19" d="M3833 3589l1243 718 24 14 -16 29c-17,-10 -33,-14 -47,-14 -57,-24 -101,8 -101,77 0,76 53,168 118,206l-6 11 -704 -413 -509 -299 -8 -5 -1 0 0 -22 0 -7 0 -17 0 -3 0 -5 0 -6 0 -17 0 -3 0 -7 0 -6 0 -18 0 -2 0 -4 0 -6 0 -18 0 -2 0 -4 0 -6 0 -18 0 -2 0 -4 0 -5 0 -18 0 -2 0 -12 0 -6 0 -18 0 -2 0 -8 0 -5 0 -18 0 -2 0 -7 0 -6 0 -18 0 -1 0 -1 0 -22 7 4z"/>
   <path class="fil21" d="M3835 3918l509 299 -513 -297 -7 -4 -1 0 1 -1 3 -2 8 5z"/>
   <path class="fil13" d="M3826 3884l0 7 -5 -3 -1 -1 1 0 5 -3z"/>
   <path class="fil12" d="M3826 3864l0 3 -2 -1 -1 -1 1 0 2 -1z"/>
   <path class="fil13" d="M3826 3853l0 6 -4 -2 -2 -1 2 0 4 -3z"/>
   <path class="fil12" d="M3826 3833l0 3 -1 -1 -1 -1 1 0 1 -1z"/>
   <path class="fil13" d="M3826 3820l0 6 -4 -2 -2 -1 2 0 4 -3z"/>
   <path class="fil12" d="M3826 3800l0 2 -1 0 -1 -1 1 0 1 -1z"/>
   <path class="fil13" d="M3826 3790l0 6 -4 -2 -2 -1 2 -1 4 -2z"/>
   <path class="fil12" d="M3826 3770l0 2 -1 0 -1 -1 1 0 1 -1z"/>
   <path class="fil13" d="M3826 3760l0 6 -4 -3 -1 0 1 -1 4 -2z"/>
   <path class="fil12" d="M3826 3740l0 2 -1 0 -1 -1 1 -1 1 0z"/>
   <path class="fil13" d="M3826 3731l0 5 -4 -2 -1 0 1 -1 4 -2z"/>
   <path class="fil12" d="M3826 3711l0 2 -1 -1 -1 0 1 -1 1 0z"/>
   <path class="fil13" d="M3826 3693l0 6 -4 -2 -1 -1 1 -1 4 -2z"/>
   <path class="fil12" d="M3825 3674l1 -1 0 2 -1 0 -1 -1 1 0z"/>
   <path class="fil13" d="M3826 3660l0 5 -3 -2 -1 0 1 -1 3 -2z"/>
   <path class="fil12" d="M3826 3640l0 2 -1 -1 1 -1z"/>
   <path class="fil13" d="M3826 3627l0 6 -4 -3 -1 0 1 -1 4 -2z"/>
   <path class="fil12" d="M3826 3608l0 0 0 1 0 0 -2 -1 2 0z"/>
  </g>
 </g>
</svg>
