<?xml version="1.0" encoding="UTF-8"?>
<!DOCTYPE svg PUBLIC "-//W3C//DTD SVG 1.0//EN" "http://www.w3.org/TR/2001/REC-SVG-20010904/DTD/svg10.dtd">
<!-- Creator: CorelDRAW X7 -->
<svg xmlns="http://www.w3.org/2000/svg" xml:space="preserve" width="115mm" height="70.122mm" version="1.0" style="shape-rendering:geometricPrecision; text-rendering:geometricPrecision; image-rendering:optimizeQuality; fill-rule:evenodd; clip-rule:evenodd"
viewBox="0 0 11500 7012"
 xmlns:xlink="http://www.w3.org/1999/xlink">
 <defs>
  <style type="text/css">
   <![CDATA[
    .str3 {stroke:#4D897C;stroke-width:16.2648}
    .str4 {stroke:#4D897C;stroke-width:17.5305}
    .str2 {stroke:#004743;stroke-width:8.76524}
    .str1 {stroke:#4E897C;stroke-width:8.76524}
    .str0 {stroke:#034540;stroke-width:43.0724;stroke-linecap:round;stroke-linejoin:round}
    .fil24 {fill:#4D897C}
    .fil7 {fill:#001B37}
    .fil4 {fill:#004641}
    .fil40 {fill:#121112}
    .fil28 {fill:#131414}
    .fil6 {fill:#141414}
    .fil8 {fill:#2955A9}
    .fil29 {fill:#2D2C2B}
    .fil3 {fill:#4D8A7D}
    .fil26 {fill:#542D1E}
    .fil39 {fill:#545251}
    .fil14 {fill:#5A5A5A}
    .fil33 {fill:#684532}
    .fil23 {fill:#72491D}
    .fil27 {fill:#774637}
    .fil18 {fill:#898989}
    .fil34 {fill:#8BA06D}
    .fil11 {fill:#960911}
    .fil17 {fill:#999999}
    .fil15 {fill:#AAAAAA}
    .fil1 {fill:#AFAFC7}
    .fil38 {fill:#B7650B}
    .fil13 {fill:#BDBDBD}
    .fil35 {fill:#D1CFC9}
    .fil12 {fill:#D22819}
    .fil5 {fill:#D9D9D9}
    .fil32 {fill:#DD5285}
    .fil37 {fill:#DD7D14}
    .fil16 {fill:#E9E9E8}
    .fil22 {fill:#EA2C18}
    .fil36 {fill:#ED8F20}
    .fil19 {fill:#EE2918}
    .fil31 {fill:#F289AA}
    .fil30 {fill:#F4BA92}
    .fil21 {fill:#F7523C}
    .fil20 {fill:#F9ECE4}
    .fil9 {fill:#FAE649}
    .fil10 {fill:#FDFDFD}
    .fil25 {fill:#4D897C;fill-rule:nonzero}
    .fil2 {fill:#4D8A7D;fill-rule:nonzero}
    .fil0 {fill:url(#id0)}
   ]]>
  </style>
  <radialGradient id="id0" gradientUnits="userSpaceOnUse" gradientTransform="matrix(1.17124 -0 -0 1.92083 -985 -3229)" cx="5750" cy="3506.1" r="3506.1" fx="5750" fy="3506.1">
   <stop offset="0" style="stop-opacity:1; stop-color:#FEFEFE"/>
   <stop offset="0.439216" style="stop-opacity:1; stop-color:#FEFEFE"/>
   <stop offset="1" style="stop-opacity:1; stop-color:#D1E2F2"/>
  </radialGradient>
 </defs>
 <g id="Layer_x0020_1">
  <metadata id="CorelCorpID_0Corel-Layer"/>
  <path class="fil0" d="M0 0l11500 0 0 7012 -11500 0 0 -7012z"/>
  <g id="_521731521904">
   <path class="fil1 str0" d="M6429 3156l0 2232c-424,0 -1186,0 -1610,0l0 -2232 1610 0z"/>
   <g>
    <path class="fil2" d="M3489 2495c-12,0 -23,-7 -23,-17 0,-9 11,-17 23,-17l0 34zm4265 0l-4265 0 0 -34 4265 0 0 34zm0 -34c13,0 23,8 23,17 0,10 -10,17 -23,17l0 -34z"/>
   </g>
   <g id="_521324795408">
    <path class="fil3 str1" d="M3684 593l0 -92c0,-3 1,-5 3,-7 2,-2 4,-3 7,-3 2,0 5,1 7,3 2,1 3,4 3,7l0 183c0,3 -1,6 -3,8 -2,1 -4,2 -7,2 -3,0 -5,-1 -7,-2 -2,-2 -3,-5 -3,-8l0 -71 -61 0c-11,0 -21,-4 -29,-12 -8,-8 -12,-18 -12,-29l0 -71c0,-3 1,-5 3,-7 2,-2 5,-3 7,-3 3,0 5,1 7,3 2,1 3,4 3,7l0 71c0,6 2,11 6,15 2,2 4,3 7,4 3,1 5,2 8,2l61 0zm183 91c0,3 -1,6 -3,8 -2,1 -5,2 -7,2 -3,0 -6,-1 -8,-2 -2,-2 -3,-5 -3,-8l0 -173 -33 0 -48 176c-1,2 -2,3 -4,5 -2,1 -4,2 -6,2 -3,0 -5,-1 -7,-2 -2,-2 -3,-5 -3,-8 0,-1 0,-2 0,-3l51 -182c1,-5 5,-8 10,-8l50 0c7,0 11,3 11,10l0 183zm60 -112l51 0c3,0 5,1 7,3 2,3 3,5 3,7 0,3 0,5 -2,7 -2,2 -4,4 -8,4l-51 0 0 81 71 0c3,0 6,1 8,3 2,2 3,4 3,7 0,2 -1,5 -3,7 -2,2 -4,3 -7,3l-82 0c-7,0 -10,-3 -10,-10l0 -183c0,-7 3,-10 10,-10l82 0c2,0 5,1 7,3 2,2 3,5 3,7 0,3 -1,5 -3,7 -2,2 -4,3 -8,3l-71 0 0 61zm223 0l0 -71c0,-3 1,-5 4,-7 2,-2 4,-3 7,-3 2,0 5,1 7,3 2,1 3,4 3,7l0 183c0,3 -1,5 -3,7 -3,2 -5,3 -8,3 -2,0 -4,-1 -7,-2 -2,-2 -3,-5 -3,-8l0 -91 -81 0 0 91c0,3 -1,6 -3,8 -2,1 -4,2 -7,2 -3,0 -5,-1 -7,-2 -2,-2 -3,-5 -3,-8l0 -183c0,-2 1,-5 3,-7 2,-2 4,-3 7,-3 3,0 5,1 7,3 2,1 3,4 3,7l0 71 81 0zm203 112c0,3 0,6 -2,8 -2,1 -5,2 -8,2 -2,0 -5,-1 -7,-2 -2,-2 -3,-5 -3,-8l0 -183c0,-3 1,-5 3,-7 2,-2 5,-3 7,-3 3,0 5,1 7,3 3,1 3,4 3,7l0 183zm-122 -91l0 81 41 0c6,0 11,-2 15,-6 4,-4 6,-8 6,-14l0 -41c0,-6 -2,-11 -6,-15 -4,-3 -9,-5 -15,-5l-41 0zm0 -21l41 0c11,0 21,4 29,12 8,8 12,18 12,29l0 41c0,11 -4,20 -12,28 -8,8 -18,12 -29,12l-51 0c-6,0 -10,-3 -10,-10l0 -183c0,-3 1,-5 3,-7 2,-2 5,-3 7,-3 3,0 5,1 7,3 2,1 3,4 3,7l0 71zm406 112c0,3 -1,6 -2,8 -2,1 -5,2 -8,2 -2,0 -5,-1 -7,-2 -2,-2 -3,-5 -3,-8l0 -144 -82 149c-1,2 -3,4 -5,5l-2 1c-1,0 -2,1 -3,1 -2,0 -4,-1 -7,-3 -1,-2 -2,-5 -2,-9l0 -183c0,-2 1,-5 3,-7 2,-2 4,-3 7,-3 2,0 5,1 7,3 2,1 3,4 3,7l0 144 82 -149c1,-1 3,-3 5,-4 1,-2 3,-3 5,-3 2,0 4,2 6,4 2,2 3,5 3,8l0 183zm102 -91l-30 0c-3,0 -6,-1 -8,-3 -2,-2 -3,-5 -3,-8 0,-2 1,-4 3,-6 2,-3 4,-4 8,-4l30 0c6,0 10,-2 14,-5 4,-4 6,-9 6,-15l0 -20c0,-6 -2,-11 -5,-15 -4,-4 -9,-6 -15,-6l-20 0c-5,0 -9,1 -12,4 -3,2 -6,6 -7,10 -1,2 -2,4 -4,5 -1,1 -1,1 -3,2l-3 0c-3,0 -5,-1 -7,-2 -2,-2 -3,-5 -3,-8l0 -3c3,-8 8,-15 15,-20 7,-5 15,-8 24,-8l20 0c11,0 21,4 29,12 8,8 12,17 12,29l0 20c0,6 -2,11 -4,17 -2,5 -6,10 -10,13 9,8 14,18 14,31l0 40c0,12 -4,21 -12,29 -8,8 -18,12 -29,12l-20 0c-9,0 -17,-2 -24,-7 -7,-6 -12,-12 -15,-21l0 -3c0,-3 1,-5 3,-7 2,-2 4,-3 7,-3 4,0 7,2 9,6 2,4 4,8 8,11 4,3 8,4 12,4l20 0c6,0 10,-2 14,-6 4,-4 6,-8 6,-14l0 -41c0,-6 -1,-11 -4,-14 -4,-4 -9,-6 -16,-6zm101 0l0 81 61 0c6,0 11,-2 15,-6 4,-4 6,-8 6,-14l0 -41c0,-6 -2,-11 -6,-15 -4,-3 -9,-5 -15,-5l-61 0zm0 -21l61 0c11,0 21,4 29,12 8,8 12,18 12,29l0 41c0,11 -4,20 -12,28 -8,8 -18,12 -29,12l-71 0c-7,0 -10,-3 -10,-10l0 -183c0,-7 3,-10 10,-10l81 0c3,0 6,1 8,3 2,2 3,5 3,7 0,2 -1,5 -3,7 -2,2 -4,3 -8,3l-71 0 0 61zm264 112c0,3 -1,6 -3,8 -2,1 -4,2 -7,2 -3,0 -5,-1 -7,-2 -2,-2 -3,-5 -3,-8l0 -144 -82 149c-2,2 -3,4 -5,5l-2 1c-1,0 -2,1 -3,1 -2,0 -4,-1 -7,-3 -2,-2 -3,-5 -3,-9l0 -183c0,-2 1,-5 3,-7 2,-2 5,-3 7,-3 3,0 5,1 7,3 3,1 4,4 4,7l0 144 82 -149c1,-1 2,-3 4,-4 2,-2 4,-3 6,-3 2,0 4,2 6,4 2,2 3,5 3,8l0 183zm61 -91l61 0c6,0 10,-2 14,-6 4,-4 6,-9 6,-15l0 -40c0,-6 -2,-11 -6,-15 -3,-4 -8,-6 -14,-6l-61 0 0 82zm0 20l0 71c0,3 -1,6 -3,8 -2,1 -4,2 -7,2 -3,0 -5,-1 -7,-2 -2,-2 -3,-5 -3,-8l0 -183c0,-7 3,-10 10,-10l71 0c11,0 21,4 29,12 7,8 11,17 11,29l0 40c0,11 -4,21 -11,29 -8,8 -18,12 -29,12l-61 0zm157 30l-14 44c-1,2 -2,4 -4,5 -1,1 -3,2 -6,2 -2,0 -5,-1 -7,-3 -2,-2 -3,-4 -3,-7l1 -3 61 -183c2,-6 5,-9 9,-9 5,0 8,3 10,9l61 183 0 3c0,3 -1,5 -3,7 -2,2 -5,3 -7,3 -1,0 -3,0 -5,-1 -1,-1 -3,-3 -4,-6l-15 -44 -74 0zm67 -20l-30 -90 -30 90 60 0zm91 -112l-41 0c-3,0 -6,-1 -8,-2 -1,-3 -2,-5 -2,-8 0,-2 1,-4 2,-7 2,-2 5,-3 8,-3l101 0c3,0 6,1 8,3 2,2 2,5 2,7 0,2 0,5 -2,7 -2,2 -4,3 -8,3l-40 0 0 173c0,3 -1,6 -3,8 -2,1 -4,2 -7,2 -3,0 -5,-1 -7,-2 -2,-2 -3,-5 -3,-8l0 -173zm131 61l51 0c3,0 6,1 8,3 2,3 3,5 3,7 0,3 -1,5 -3,7 -2,2 -4,4 -8,4l-51 0 0 81 72 0c2,0 5,1 7,3 2,2 3,4 3,7 0,2 -1,5 -3,7 -1,2 -4,3 -7,3l-82 0c-7,0 -10,-3 -10,-10l0 -183c0,-7 3,-10 10,-10l82 0c2,0 5,1 7,3 2,2 3,5 3,7 0,3 -1,5 -3,7 -1,2 -4,3 -7,3l-72 0 0 61zm244 112c0,3 -1,6 -3,8 -2,1 -4,2 -7,2 -3,0 -5,-1 -7,-2 -2,-2 -3,-5 -3,-8l0 -173 -33 0 -49 176c0,2 -1,3 -3,5 -2,1 -4,2 -6,2 -3,0 -6,-1 -8,-2 -2,-2 -3,-5 -3,-8 0,-1 0,-2 1,-3l51 -182c1,-5 4,-8 9,-8l51 0c7,0 10,3 10,10l0 183zm61 -91l61 0c5,0 10,2 14,5 4,4 6,9 6,15l0 41c0,5 -2,10 -6,14 -2,2 -4,3 -6,4 -3,1 -6,2 -8,2l-61 0 0 -81zm0 -21l0 -71c0,-2 -1,-5 -3,-7 -2,-2 -5,-3 -7,-3 -3,0 -5,1 -7,3 -2,1 -4,4 -4,7l0 183c0,7 4,10 11,10l71 0c11,0 20,-4 28,-12 8,-8 12,-17 12,-28l0 -41c0,-11 -4,-21 -12,-29 -7,-8 -17,-12 -28,-12l-61 0zm243 0l0 -71c0,-3 1,-5 3,-7 2,-2 5,-3 7,-3 3,0 5,1 7,3 2,1 4,4 4,7l0 183c0,3 -2,5 -4,7 -2,2 -4,3 -7,3 -2,0 -5,-1 -7,-2 -2,-2 -3,-5 -3,-8l0 -91 -81 0 0 91c0,3 -1,6 -3,8 -2,1 -4,2 -7,2 -3,0 -5,-1 -7,-2 -2,-2 -3,-5 -3,-8l0 -183c0,-2 1,-5 3,-7 2,-2 4,-3 7,-3 2,0 5,1 7,3 2,1 3,4 3,7l0 71 81 0zm183 81c0,12 -4,21 -12,29 -8,8 -18,12 -29,12l-40 0c-11,0 -21,-4 -29,-12 -8,-8 -12,-17 -12,-29l0 -121c0,-12 4,-21 12,-29 8,-8 17,-12 29,-12l40 0c12,0 21,4 29,12 8,8 12,17 12,29l0 121zm-20 1l0 -122c0,-6 -2,-11 -6,-15 -4,-4 -9,-6 -15,-6l-40 0c-6,0 -11,2 -15,6 -2,2 -3,4 -4,7 -1,2 -2,5 -2,8l0 122c0,5 2,10 6,14 2,2 4,3 7,4 3,1 5,2 8,2l40 0c6,0 11,-2 15,-6 4,-4 6,-8 6,-14zm158 -183l-41 0c-3,0 -5,-1 -7,-3 -2,-2 -3,-5 -3,-7 0,-3 1,-5 3,-7 1,-2 4,-3 7,-3l41 0c3,0 5,1 7,3 2,2 3,4 3,7 0,2 -1,4 -3,7 -1,2 -4,3 -7,3zm40 213c0,3 -1,6 -2,8 -2,1 -5,2 -8,2 -2,0 -5,-1 -7,-2 -2,-2 -3,-5 -3,-8l0 -144 -82 149c-1,2 -3,4 -5,5l-2 1c-1,0 -2,1 -3,1 -2,0 -4,-1 -7,-3 -1,-2 -2,-5 -2,-9l0 -183c0,-2 1,-5 3,-7 2,-2 4,-3 7,-3 2,0 5,1 7,3 2,1 3,4 3,7l0 144 82 -148c1,-2 3,-4 5,-5 1,-2 3,-2 5,-2 2,0 4,1 6,3 2,2 3,5 3,8l0 183zm183 -105l86 -85c2,-2 4,-3 6,-3 3,0 5,1 8,3 2,2 3,5 3,7 0,2 -1,4 -3,7l-61 61 63 110 1 5c0,3 -1,5 -3,7 -2,2 -5,3 -8,3 -3,0 -6,-2 -8,-5l-60 -106 -24 24 0 77c0,3 -1,6 -3,8 -2,1 -4,2 -7,2 -3,0 -5,-1 -7,-2 -2,-2 -3,-5 -3,-8l0 -183c0,-3 1,-5 3,-7 2,-2 4,-3 7,-3 2,0 5,1 7,2 2,2 3,5 3,8l0 78zm254 74c0,12 -4,21 -12,29 -8,8 -18,12 -29,12l-41 0c-11,0 -20,-4 -28,-12 -8,-8 -12,-17 -12,-29l0 -121c0,-12 4,-21 12,-29 8,-8 17,-12 28,-12l41 0c11,0 21,4 29,12 8,8 12,17 12,29l0 121zm-21 1l0 -122c0,-6 -2,-11 -5,-15 -4,-4 -9,-6 -15,-6l-41 0c-5,0 -10,2 -14,6 -2,2 -4,4 -5,7 0,2 -1,5 -1,8l0 122c0,5 2,10 6,14 2,2 4,3 6,4 3,1 6,2 8,2l41 0c6,0 10,-2 14,-6 4,-4 6,-8 6,-14zm220 30c0,3 -1,6 -3,8 -2,1 -5,2 -8,2 -2,0 -4,-1 -6,-2 -3,-2 -4,-5 -4,-8l0 -145 -42 70c-2,5 -5,7 -8,7 -3,0 -6,-2 -9,-7l-42 -70 0 145c0,3 -1,6 -3,8 -2,1 -5,2 -8,2 -2,0 -5,-1 -7,-2 -2,-2 -3,-5 -3,-8l0 -182c0,-4 1,-7 3,-8 2,-3 4,-4 7,-4 2,0 3,1 5,2 1,1 3,3 4,5l53 87 52 -87c2,-4 5,-7 9,-7 3,0 5,1 7,4 2,2 3,5 3,8l0 182zm162 0c0,3 -1,6 -3,8 -2,1 -4,2 -7,2 -3,0 -5,-1 -7,-2 -2,-2 -3,-5 -3,-8l0 -144 -83 149c-1,2 -3,4 -4,5l-3 1c0,0 -1,1 -3,1 -2,0 -4,-1 -6,-3 -2,-2 -3,-5 -3,-9l0 -183c0,-2 1,-5 3,-7 2,-2 4,-3 7,-3 3,0 5,1 7,3 2,1 3,4 3,7l0 144 83 -149c1,-1 2,-3 4,-4 2,-2 4,-3 5,-3 3,0 5,2 7,4 2,2 3,5 3,8l0 183zm132 10l-51 0c-11,0 -21,-4 -29,-12 -8,-8 -12,-17 -12,-29l0 -121c0,-12 4,-21 12,-29 8,-8 18,-12 29,-12l51 0c3,0 5,1 7,3 2,2 3,5 3,7 0,2 -1,5 -3,7 -1,2 -4,3 -7,3l-51 0c-6,0 -11,2 -15,6 -2,2 -3,4 -4,7 -1,2 -1,5 -1,8l0 122c0,5 1,10 5,14 2,2 5,3 7,4 3,1 5,2 8,2l51 0c3,0 5,1 7,3 2,2 3,4 3,7 0,2 -1,5 -3,7 -1,2 -4,3 -7,3zm133 0l-51 0c-11,0 -21,-4 -29,-12 -8,-8 -12,-17 -12,-29l0 -121c0,-12 4,-21 12,-29 8,-8 17,-12 29,-12l51 0c2,0 5,1 7,3 2,2 3,5 3,7 0,2 -1,5 -3,7 -1,2 -4,3 -7,3l-51 0c-6,0 -11,2 -15,6 -2,2 -3,4 -4,7 -1,2 -2,5 -2,8l0 122c0,5 2,10 6,14 2,2 4,3 7,4 3,1 5,2 8,2l51 0c2,0 5,1 7,3 2,2 3,4 3,7 0,2 -1,5 -3,7 -1,2 -4,3 -7,3zm172 -10c0,3 -1,6 -3,8 -2,1 -4,2 -7,2 -3,0 -5,-1 -7,-2 -2,-2 -3,-5 -3,-8l0 -144 -83 149c-1,2 -2,4 -4,5l-2 1c-1,0 -2,1 -3,1 -2,0 -5,-1 -7,-3 -2,-2 -3,-5 -3,-9l0 -183c0,-2 1,-5 3,-7 2,-2 5,-3 7,-3 3,0 5,1 7,3 2,1 3,4 3,7l0 144 83 -149c1,-1 2,-3 4,-4 2,-2 4,-3 6,-3 2,0 4,2 6,4 2,2 3,5 3,8l0 183zm162 0c0,3 -1,6 -3,8 -1,1 -4,2 -7,2 -2,0 -5,-1 -7,-2 -2,-2 -3,-5 -3,-8l0 -144 -82 149c-1,2 -3,4 -5,5l-2 1c-1,0 -2,1 -3,1 -2,0 -4,-1 -7,-3 -2,-2 -2,-5 -2,-9l0 -183c0,-2 1,-5 3,-7 2,-2 4,-3 7,-3 2,0 5,1 7,3 2,1 3,4 3,7l0 144 82 -149c1,-1 3,-3 4,-4 2,-2 4,-3 6,-3 2,0 4,2 6,4 2,2 3,5 3,8l0 183zm-4137 325c0,3 -1,5 -3,7 -2,2 -4,3 -7,3 -3,0 -5,-1 -7,-3 -2,-1 -3,-4 -3,-7l0 -145 -42 70c-3,4 -6,7 -9,7 -3,0 -6,-3 -9,-7l-42 -70 0 145c0,3 -1,5 -3,7 -2,2 -4,3 -7,3 -3,0 -5,-1 -7,-3 -2,-1 -3,-4 -3,-7l0 -182c0,-4 1,-7 3,-9 1,-2 3,-3 6,-3 2,0 3,1 5,2 1,1 3,2 5,5l52 87 52 -87c2,-5 6,-7 10,-7 2,0 4,1 6,3 2,3 3,6 3,9l0 182zm142 -71l-61 0c-11,0 -21,-4 -29,-12 -8,-8 -12,-18 -12,-29l0 -71c0,-3 1,-5 3,-8 2,-1 5,-2 7,-2 3,0 5,1 7,2 2,2 3,5 3,8l0 71c0,6 2,11 6,15 2,1 4,3 7,4 3,1 5,1 8,1l61 0 0 -91c0,-3 1,-5 3,-8 2,-1 4,-2 7,-2 2,0 5,1 7,2 2,2 3,5 3,8l0 152c0,11 -4,21 -12,29 -8,8 -17,12 -29,12l-50 0c-3,0 -6,-1 -8,-3 -2,-2 -2,-4 -2,-7 0,-3 0,-5 2,-7 2,-2 5,-3 8,-3l51 0c5,0 10,-2 14,-6 4,-4 6,-9 6,-15l0 -40zm162 -41l0 -71c0,-3 1,-5 3,-7 2,-2 5,-3 7,-3 3,0 5,1 7,2 2,2 3,5 3,8l0 182c0,3 -1,6 -3,8 -2,2 -5,3 -7,3 -2,0 -5,-1 -7,-3 -2,-1 -3,-4 -3,-7l0 -92 -81 0 0 92c0,3 -1,5 -3,7 -2,2 -4,3 -7,3 -3,0 -5,-1 -7,-3 -2,-1 -3,-4 -3,-7l0 -183c0,-3 1,-5 3,-7 2,-2 4,-3 7,-3 2,0 5,1 7,3 2,1 3,4 3,7l0 71 81 0z"/>
    <path class="fil3 str1" d="M4267 1009c0,3 -1,5 -3,7 -2,2 -4,3 -7,3 -3,0 -6,-1 -8,-3 -2,-1 -3,-4 -3,-7l0 -144 -82 149c-1,2 -3,3 -4,5l-3 1c0,0 -1,0 -3,1 -2,0 -4,-1 -6,-3 -2,-2 -3,-5 -3,-9l0 -183c0,-3 1,-5 3,-7 2,-2 4,-3 7,-3 3,0 5,1 7,3 2,1 3,4 3,7l0 144 82 -149c1,-1 3,-3 5,-5 2,-1 4,-2 5,-2 3,0 5,1 7,4 2,2 3,4 3,8l0 183zm142 -10l0 -173c0,-3 1,-5 3,-8 2,-1 4,-2 7,-2 2,0 5,1 7,2 2,2 3,5 3,8l0 173 10 0c7,0 10,3 10,10l0 30c0,3 -1,6 -3,8 -2,1 -4,2 -7,2 -2,0 -4,0 -6,-2 -3,-2 -4,-4 -4,-8l0 -20 -112 0c-6,0 -10,-3 -10,-10l0 -183c0,-3 1,-5 3,-8 2,-1 5,-2 7,-2 3,0 5,1 7,2 2,2 3,5 3,8l0 173 82 0zm203 10c0,3 -1,5 -3,7 -2,2 -5,3 -8,3 -2,0 -5,-1 -7,-3 -2,-1 -3,-4 -3,-7l0 -144 -82 149c-1,2 -3,3 -4,5l-3 1c0,0 -1,0 -3,1 -2,0 -4,-1 -7,-3 -1,-2 -2,-5 -2,-9l0 -183c0,-3 1,-5 3,-7 2,-2 4,-3 7,-3 3,0 5,1 7,3 2,1 3,4 3,7l0 144 82 -149c1,-1 3,-3 5,-5 2,-1 3,-2 5,-2 3,0 5,1 7,4 2,2 3,4 3,8l0 183zm162 0c0,3 -1,5 -3,7 -2,2 -4,3 -7,3 -3,0 -5,-1 -7,-3 -2,-1 -3,-4 -3,-7l0 -173 -82 0 0 173c0,3 -1,5 -2,7 -2,2 -5,3 -8,3 -2,0 -5,-1 -7,-3 -2,-1 -3,-4 -3,-7l0 -183c0,-7 4,-10 10,-10l102 0c7,0 10,3 10,10l0 183zm76 -41l-14 44c-1,2 -3,4 -4,5 -2,1 -3,2 -6,2 -2,0 -5,-1 -7,-3 -2,-2 -3,-4 -3,-7l1 -4 61 -182c2,-6 5,-9 9,-9 4,0 8,3 10,9l60 182 1 4c0,3 -1,5 -3,7 -2,2 -5,3 -7,3 -2,0 -3,0 -5,-1 -2,-1 -3,-3 -5,-6l-14 -44 -74 0zm67 -21l-30 -89 -30 89 60 0zm202 62c0,3 -1,5 -3,7 -2,2 -4,3 -7,3 -3,0 -5,-1 -7,-3 -2,-1 -3,-4 -3,-7l0 -173 -33 0 -49 175c0,2 -1,4 -3,6 -2,1 -4,2 -6,2 -3,0 -6,-1 -8,-3 -2,-1 -3,-4 -3,-7 0,-1 0,-2 1,-3l50 -183c2,-5 5,-7 10,-7l51 0c7,0 10,3 10,10l0 183zm61 -92l61 0c5,0 10,2 14,6 4,4 6,9 6,15l0 40c0,6 -2,11 -6,15 -2,2 -4,3 -6,4 -3,1 -6,2 -8,2l-61 0 0 -82zm0 -20l0 -71c0,-3 -1,-5 -3,-7 -2,-2 -5,-3 -7,-3 -3,0 -5,1 -7,2 -2,2 -4,5 -4,8l0 183c0,7 4,10 11,10l71 0c11,0 20,-4 28,-12 8,-8 12,-17 12,-29l0 -40c0,-11 -4,-21 -12,-29 -8,-8 -17,-12 -28,-12l-61 0zm243 0l0 -71c0,-3 1,-5 3,-7 2,-2 5,-3 7,-3 3,0 5,1 7,2 2,2 4,5 4,8l0 182c0,3 -2,6 -4,8 -2,2 -4,3 -7,3 -2,0 -5,-1 -7,-3 -2,-1 -3,-4 -3,-7l0 -92 -81 0 0 92c0,3 -1,5 -3,7 -2,2 -4,3 -7,3 -3,0 -5,-1 -7,-3 -2,-1 -3,-4 -3,-7l0 -183c0,-3 1,-5 3,-7 2,-2 4,-3 7,-3 2,0 5,1 7,3 2,1 3,4 3,7l0 71 81 0zm183 81c0,11 -4,21 -12,29 -8,8 -18,12 -29,12l-40 0c-11,0 -21,-4 -29,-12 -8,-8 -12,-17 -12,-29l0 -122c0,-11 4,-20 12,-28 8,-8 17,-12 29,-12l40 0c12,0 21,4 29,12 8,8 12,17 12,28l0 122zm-20 0l0 -122c0,-5 -2,-10 -6,-14 -4,-4 -9,-6 -15,-6l-40 0c-6,0 -11,2 -15,6 -2,2 -3,4 -4,6 -1,3 -2,6 -2,8l0 122c0,6 2,11 6,15 2,2 4,3 7,4 3,1 5,2 8,2l40 0c6,0 11,-2 15,-6 4,-4 6,-9 6,-15zm168 -142l-71 0 0 173c0,3 -1,5 -3,7 -2,2 -4,3 -7,3 -3,0 -5,-1 -7,-3 -2,-1 -3,-4 -3,-7l0 -183c0,-7 3,-10 10,-10l81 0c3,0 5,1 7,3 2,2 3,4 3,7 0,2 -1,4 -2,7 -2,2 -5,3 -8,3zm162 142c0,11 -4,21 -12,29 -8,8 -17,12 -28,12l-41 0c-11,0 -21,-4 -29,-12 -8,-8 -12,-17 -12,-29l0 -122c0,-11 4,-20 12,-28 8,-8 18,-12 29,-12l41 0c11,0 20,4 28,12 8,8 12,17 12,28l0 122zm-20 0l0 -122c0,-5 -2,-10 -6,-14 -4,-4 -8,-6 -14,-6l-41 0c-6,0 -11,2 -15,6 -2,2 -3,4 -4,6 -1,3 -1,6 -1,8l0 122c0,6 2,11 5,15 2,2 5,3 7,4 3,1 6,2 8,2l41 0c5,0 10,-2 14,-6 4,-4 6,-9 6,-15zm320 0c0,11 -4,21 -11,29 -8,8 -18,12 -29,12l-41 0c-11,0 -20,-4 -28,-12 -8,-8 -12,-17 -12,-29l0 -122c0,-11 4,-20 12,-28 7,-8 17,-12 28,-12l41 0c11,0 21,4 29,12 7,8 11,17 11,28l0 122zm-20 0l0 -122c0,-5 -2,-10 -5,-14 -4,-4 -9,-6 -15,-6l-41 0c-5,0 -10,2 -14,6 -2,2 -4,4 -5,6 -1,3 -1,6 -1,8l0 122c0,6 2,11 6,15 2,2 4,3 6,4 3,1 6,2 8,2l41 0c6,0 10,-2 14,-6 4,-4 6,-9 6,-15zm97 -61l0 82 61 0c6,0 11,-2 15,-6 4,-4 6,-9 6,-15l0 -40c0,-6 -2,-11 -6,-15 -4,-4 -9,-6 -15,-6l-61 0zm0 -20l61 0c11,0 21,4 29,12 8,8 12,17 12,29l0 40c0,11 -4,21 -12,29 -8,8 -17,12 -29,12l-71 0c-6,0 -10,-3 -10,-10l0 -183c0,-7 4,-10 10,-10l82 0c2,0 5,1 7,3 2,2 3,4 3,7 0,2 -1,4 -3,7 -1,2 -4,3 -7,3l-72 0 0 61zm163 20l61 0c5,0 10,-2 14,-5 4,-4 6,-9 6,-15l0 -41c0,-5 -2,-10 -6,-14 -3,-4 -8,-6 -14,-6l-61 0 0 81zm0 21l0 71c0,3 -1,5 -3,7 -2,2 -4,3 -7,3 -3,0 -5,-1 -7,-3 -2,-1 -3,-4 -3,-7l0 -183c0,-7 3,-10 10,-10l71 0c11,0 21,4 29,12 7,8 11,17 11,28l0 41c0,11 -4,21 -12,29 -8,8 -17,12 -28,12l-61 0zm157 30l-14 44c-1,2 -2,4 -4,5 -1,1 -3,2 -6,2 -2,0 -5,-1 -7,-3 -2,-2 -3,-4 -3,-7l1 -4 61 -182c2,-6 5,-9 9,-9 5,0 8,3 10,9l61 182 0 4c0,3 -1,5 -3,7 -2,2 -5,3 -7,3 -2,0 -3,0 -5,-1 -1,-1 -3,-3 -4,-6l-15 -44 -74 0zm67 -21l-30 -89 -30 89 60 0zm141 -30l-30 0c-3,0 -6,-1 -8,-3 -1,-2 -2,-4 -2,-7 0,-2 1,-4 2,-7 2,-2 5,-3 8,-3l30 0c6,0 11,-2 15,-6 4,-3 6,-8 6,-14l0 -21c0,-5 -2,-10 -6,-14 -4,-4 -9,-6 -15,-6l-20 0c-4,0 -8,1 -12,4 -3,2 -6,6 -7,10 -1,2 -2,3 -3,5 -1,1 -2,1 -3,2l-3 0c-3,0 -6,-1 -8,-3 -2,-1 -3,-4 -3,-7l0 -3c3,-9 8,-15 15,-20 7,-6 15,-8 24,-8l20 0c12,0 21,4 29,12 8,8 12,17 12,28l0 21c0,6 -1,11 -4,17 -2,5 -5,10 -10,13 9,8 14,18 14,31l0 40c0,11 -4,21 -12,29 -8,8 -18,12 -29,12l-20 0c-9,0 -17,-3 -24,-8 -7,-5 -12,-12 -15,-20l0 -4c0,-2 1,-5 3,-7 2,-2 4,-3 8,-3 4,0 7,3 9,7 1,4 3,8 7,11 4,2 8,4 12,4l20 0c6,0 11,-2 15,-6 4,-4 6,-9 6,-15l0 -40c0,-6 -2,-11 -5,-15 -3,-4 -9,-6 -16,-6zm203 61c0,11 -4,21 -12,29 -8,8 -17,12 -29,12l-40 0c-11,0 -21,-4 -29,-12 -8,-8 -12,-17 -12,-29l0 -122c0,-11 4,-20 12,-28 8,-8 18,-12 29,-12l40 0c12,0 21,4 29,12 8,8 12,17 12,28l0 122zm-20 0l0 -122c0,-5 -2,-10 -6,-14 -4,-4 -9,-6 -14,-6l-41 0c-6,0 -11,2 -15,6 -2,2 -3,4 -4,6 -1,3 -1,6 -1,8l0 122c0,6 1,11 5,15 2,2 5,3 7,4 3,1 5,2 8,2l41 0c5,0 10,-2 14,-6 4,-4 6,-9 6,-15zm179 -75c6,4 11,8 14,15 4,6 6,13 6,20l0 40c0,11 -4,21 -12,29 -8,8 -18,12 -29,12l-71 0c-7,0 -10,-3 -10,-10l0 -183c0,-7 3,-10 10,-10l61 0c11,0 21,4 29,12 8,8 11,17 11,28l0 21c0,4 0,9 -2,13 -1,5 -3,9 -7,13zm-82 14l0 82 61 0c6,0 10,-2 14,-6 4,-4 6,-9 6,-15l0 -40c0,-6 -2,-11 -5,-15 -4,-4 -9,-6 -15,-6l-61 0zm51 -20c6,0 10,-2 14,-6 4,-3 6,-8 6,-14l0 -21c0,-5 -2,-10 -5,-14 -4,-4 -9,-6 -15,-6l-51 0 0 61 51 0zm117 71l-15 44c-1,2 -2,4 -4,5 -1,1 -3,2 -5,2 -3,0 -5,-1 -7,-3 -3,-2 -4,-4 -4,-7l1 -4 61 -182c2,-6 5,-9 9,-9 5,0 8,3 10,9l61 182 1 4c0,3 -2,5 -4,7 -2,2 -4,3 -7,3 -1,0 -3,0 -4,-1 -2,-1 -4,-3 -5,-6l-15 -44 -73 0zm66 -21l-30 -89 -29 89 59 0zm182 -50l0 -71c0,-3 1,-5 3,-7 2,-2 4,-3 7,-3 3,0 5,1 7,2 2,2 3,5 3,8l0 182c0,3 -1,6 -3,8 -2,2 -5,3 -7,3 -2,0 -5,-1 -7,-3 -2,-1 -3,-4 -3,-7l0 -92 -81 0 0 92c0,3 -1,5 -3,7 -2,2 -4,3 -7,3 -3,0 -5,-1 -7,-3 -2,-1 -3,-4 -3,-7l0 -183c0,-3 1,-5 3,-7 2,-2 4,-3 7,-3 2,0 5,1 7,3 2,1 3,4 3,7l0 71 81 0zm183 112c0,3 -1,5 -3,7 -2,2 -5,3 -8,3 -2,0 -5,-1 -7,-3 -2,-1 -3,-4 -3,-7l0 -144 -82 149c-1,2 -3,3 -4,5l-3 1c0,0 -1,0 -3,1 -2,0 -4,-1 -7,-3 -1,-2 -2,-5 -2,-9l0 -183c0,-3 1,-5 3,-7 2,-2 4,-3 7,-3 3,0 5,1 7,3 2,1 3,4 3,7l0 144 82 -149c1,-1 3,-3 5,-5 2,-1 3,-2 5,-2 2,0 5,1 7,4 2,2 3,4 3,8l0 183zm142 -92l0 -81 -61 0c-6,0 -11,2 -15,6 -2,2 -3,4 -4,6 -1,3 -2,6 -2,8l0 41c0,6 2,11 6,15 2,1 4,3 7,4 3,1 5,1 8,1l61 0zm-35 21l-48 76c-2,3 -5,5 -8,5 -3,0 -5,-1 -7,-3 -3,-2 -4,-5 -4,-7 0,-2 1,-4 2,-6l41 -65 -2 0c-11,0 -21,-4 -29,-12 -8,-8 -12,-18 -12,-29l0 -41c0,-11 4,-20 12,-28 8,-8 17,-12 29,-12l71 0c7,0 10,3 10,10l0 183c0,3 -1,5 -3,7 -2,2 -4,3 -7,3 -3,0 -5,-1 -7,-3 -2,-1 -3,-4 -3,-7l0 -71 -35 0z"/>
   </g>
   <g id="_521324795952">
    <path class="fil4 str2" d="M4917 4137l17 0 0 112 75 -112 19 0 0 141 -17 0 0 -112 -76 112 -18 0 0 -141zm162 95l0 -14c7,0 12,0 15,-1 3,0 5,-2 8,-4 2,-3 3,-6 3,-10 0,-5 -1,-8 -5,-11 -3,-3 -7,-4 -12,-4 -9,0 -16,5 -20,17l-17 -3c5,-19 18,-29 37,-29 11,0 20,3 26,9 6,6 10,13 10,22 0,8 -4,15 -13,20 6,2 9,6 12,10 3,4 4,10 4,15 0,10 -3,17 -10,23 -7,6 -16,8 -28,8 -24,0 -37,-10 -41,-31l16 -3c2,6 5,11 9,15 5,4 10,5 16,5 6,0 11,-1 15,-5 4,-3 6,-7 6,-12 0,-4 -2,-8 -4,-11 -3,-3 -5,-4 -8,-5 -3,-1 -8,-1 -15,-1 -1,0 -2,0 -4,0zm141 -99l15 0c-1,7 -2,12 -5,15 -2,3 -5,4 -9,5 -3,1 -11,1 -21,1 -15,0 -24,2 -30,4 -5,3 -9,8 -11,14 -2,6 -3,14 -4,23 5,-6 10,-11 16,-15 6,-3 12,-4 20,-4 13,0 24,4 33,13 9,10 13,22 13,38 0,12 -2,22 -6,29 -5,8 -10,14 -16,18 -6,4 -15,6 -25,6 -12,0 -22,-2 -29,-8 -6,-5 -11,-13 -15,-21 -4,-9 -6,-24 -6,-46 0,-27 5,-45 14,-54 9,-10 23,-14 42,-14 12,0 19,-1 21,-1 1,0 2,-1 3,-3zm-1 93c0,-10 -3,-19 -8,-26 -5,-7 -12,-10 -21,-10 -10,0 -17,4 -22,11 -5,7 -8,17 -8,29 0,12 3,21 9,27 5,6 13,9 21,9 9,0 16,-3 21,-11 5,-7 8,-17 8,-29zm39 -50l18 0 0 78 48 -78 19 0 0 102 -18 0 0 -78 -48 78 -19 0 0 -102zm111 142l0 -142 16 0 0 13c3,-5 8,-9 12,-12 5,-2 11,-4 17,-4 9,0 17,3 24,7 6,5 11,11 15,19 3,8 5,17 5,27 0,11 -2,20 -6,28 -4,9 -9,15 -16,20 -7,4 -15,6 -23,6 -6,0 -11,-1 -15,-3 -5,-3 -9,-6 -12,-9l0 50 -17 0zm16 -90c0,13 2,22 8,29 5,6 11,9 19,9 8,0 14,-3 20,-10 5,-6 8,-16 8,-30 0,-13 -3,-23 -8,-29 -5,-7 -12,-10 -19,-10 -8,0 -14,3 -20,10 -6,7 -8,17 -8,31zm161 37c-7,6 -13,10 -19,12 -6,2 -12,3 -19,3 -11,0 -20,-2 -26,-8 -6,-5 -9,-12 -9,-21 0,-5 1,-9 3,-14 3,-4 6,-7 9,-10 4,-2 8,-4 13,-5 3,-1 8,-2 15,-3 14,-2 25,-4 31,-6 0,-2 1,-4 1,-4 0,-7 -2,-12 -5,-15 -5,-4 -12,-6 -20,-6 -9,0 -15,1 -18,4 -4,3 -7,8 -9,15l-17 -2c1,-7 4,-13 7,-18 4,-4 9,-8 16,-10 7,-2 14,-4 23,-4 9,0 16,1 22,3 5,3 9,5 12,8 2,3 4,7 5,12 1,3 1,8 1,16l0 23c0,16 0,27 1,31 1,4 2,8 4,12l-18 0c-1,-3 -3,-8 -3,-13zm-1 -38c-7,2 -16,5 -29,6 -7,1 -12,3 -15,4 -3,1 -5,3 -7,5 -2,3 -3,6 -3,9 0,4 2,8 6,11 3,3 8,5 15,5 7,0 13,-2 18,-5 5,-3 9,-6 12,-12 1,-3 2,-9 2,-17l1 -6zm30 -51l84 0 0 14 -33 0 0 88 -18 0 0 -88 -33 0 0 -14zm168 69l18 2c-3,11 -8,19 -16,25 -7,6 -17,8 -29,8 -15,0 -27,-4 -36,-13 -8,-10 -13,-23 -13,-39 0,-17 5,-31 13,-40 9,-10 21,-15 35,-15 14,0 25,5 34,14 8,10 13,23 13,40 0,1 0,2 0,4l-77 0c1,12 4,20 10,26 5,6 12,9 21,9 6,0 12,-1 16,-5 5,-3 8,-9 11,-16zm-57 -28l57 0c-1,-9 -3,-15 -6,-19 -6,-7 -13,-10 -22,-10 -8,0 -15,2 -20,8 -5,5 -8,12 -9,21zm99 -41l81 0 0 102 -18 0 0 -88 -46 0 0 51c0,12 0,20 -1,24 -1,3 -3,7 -6,10 -4,2 -9,4 -15,4 -4,0 -9,0 -14,-1l0 -14 7 0c4,0 7,-1 8,-2 2,0 3,-1 3,-3 1,-2 1,-7 1,-16l0 -67zm107 0l17 0 0 40 22 0c14,0 25,2 33,8 8,6 12,13 12,23 0,9 -3,16 -10,22 -6,6 -17,9 -31,9l-43 0 0 -102zm17 88l18 0c11,0 19,-1 24,-4 5,-3 7,-7 7,-13 0,-4 -2,-8 -5,-12 -4,-3 -11,-5 -23,-5l-21 0 0 34zm86 -88l17 0 0 42 49 0 0 -42 17 0 0 102 -17 0 0 -45 -49 0 0 45 -17 0 0 -102zm207 0l17 0 0 102 -17 0 0 -102zm-97 0l17 0 0 40 22 0c15,0 26,2 33,8 8,6 12,13 12,23 0,9 -3,16 -10,22 -6,6 -16,9 -31,9l-43 0 0 -102zm17 88l19 0c11,0 18,-1 23,-4 5,-3 7,-7 7,-13 0,-4 -2,-8 -5,-12 -4,-3 -11,-5 -23,-5l-21 0 0 34zm125 -88l17 0 0 78 48 -78 19 0 0 102 -17 0 0 -78 -49 78 -18 0 0 -102zm60 -38l12 0c-1,8 -4,14 -9,18 -5,5 -12,7 -20,7 -8,0 -15,-2 -20,-7 -5,-4 -8,-10 -9,-18l12 0c1,4 3,7 6,10 2,2 6,3 10,3 6,0 10,-1 12,-3 3,-2 5,-6 6,-10zm-976 259l18 0 0 44c5,0 9,-1 12,-3 2,-2 5,-9 9,-19 4,-8 7,-13 9,-16 2,-2 4,-4 7,-5 3,-1 7,-1 13,-1l4 0 0 14 -5 0c-5,0 -7,1 -9,2 -1,1 -3,6 -6,13 -3,6 -5,11 -7,14 -2,2 -6,4 -10,7 7,2 15,9 22,21l19 31 -19 0 -19 -31c-4,-7 -7,-11 -10,-13 -3,-2 -6,-3 -10,-3l0 47 -18 0 0 -102zm83 51c0,-19 5,-33 16,-42 9,-8 19,-12 32,-12 14,0 26,5 35,14 9,10 13,22 13,39 0,13 -2,23 -6,31 -4,7 -10,13 -17,17 -8,4 -16,7 -25,7 -14,0 -26,-5 -35,-14 -9,-9 -13,-23 -13,-40zm18 0c0,13 3,23 8,29 6,7 13,10 22,10 9,0 16,-3 22,-10 5,-6 8,-16 8,-30 0,-12 -3,-22 -8,-28 -6,-7 -13,-10 -22,-10 -9,0 -16,3 -22,10 -5,6 -8,16 -8,29zm108 -51l71 0 0 88 12 0 0 43 -15 0 0 -29 -81 0 0 29 -14 0 0 -43 9 0c12,-17 18,-46 18,-88zm14 14c-1,33 -6,58 -15,74l55 0 0 -74 -40 0zm158 55l18 2c-3,11 -8,19 -16,25 -8,6 -17,9 -29,9 -15,0 -27,-5 -36,-14 -9,-10 -13,-22 -13,-39 0,-17 4,-31 13,-40 9,-10 21,-15 35,-15 13,0 25,5 33,14 9,10 13,23 13,40 0,1 0,2 0,4l-76 0c0,12 4,20 9,26 6,6 13,9 22,9 6,0 12,-1 16,-5 5,-3 8,-9 11,-16zm-57 -28l57 0c-1,-8 -3,-15 -7,-19 -5,-7 -12,-10 -21,-10 -8,0 -15,2 -20,8 -6,5 -9,12 -9,21zm97 -41l17 0 0 44c5,0 9,-1 12,-3 2,-2 5,-9 9,-19 4,-8 7,-13 9,-16 2,-2 4,-4 7,-5 3,-1 7,-1 13,-1l4 0 0 14 -5 0c-4,0 -7,1 -9,2 -1,1 -3,6 -6,13 -3,6 -5,11 -7,14 -2,2 -6,4 -10,7 7,2 15,9 22,21l19 31 -19 0 -19 -31c-4,-7 -7,-11 -10,-13 -3,-2 -6,-3 -10,-3l0 47 -17 0 0 -102zm156 65l17 2c-2,12 -7,21 -15,28 -7,6 -17,10 -28,10 -14,0 -25,-5 -34,-14 -8,-9 -13,-23 -13,-40 0,-11 2,-20 6,-29 4,-8 9,-14 17,-18 7,-4 15,-7 24,-7 11,0 20,3 27,9 8,6 12,14 14,24l-17 2c-1,-6 -4,-12 -8,-15 -4,-4 -9,-5 -15,-5 -9,0 -16,3 -22,9 -5,6 -8,16 -8,30 0,14 3,24 8,30 5,6 12,9 21,9 7,0 12,-2 17,-6 4,-4 7,-11 9,-19zm-914 258l54 -73 -48 -68 22 0 26 36c6,8 9,13 11,17 4,-5 7,-10 12,-16l28 -37 21 0 -50 67 53 74 -23 0 -35 -50c-2,-3 -4,-6 -6,-9 -3,5 -6,8 -7,10l-36 49 -22 0zm211 -12c-7,5 -13,9 -19,11 -6,2 -12,4 -19,4 -11,0 -20,-3 -26,-9 -6,-5 -9,-12 -9,-21 0,-5 1,-9 3,-13 3,-5 6,-8 9,-10 4,-3 8,-5 13,-6 3,-1 8,-2 15,-3 14,-1 25,-3 31,-6 0,-2 0,-4 0,-4 0,-7 -1,-12 -5,-15 -4,-4 -11,-6 -19,-6 -9,0 -15,1 -19,4 -3,3 -6,8 -8,16l-17 -3c1,-7 4,-13 7,-17 4,-5 9,-8 16,-11 7,-2 14,-3 23,-3 9,0 16,1 22,3 5,2 9,4 12,7 2,4 4,8 5,12 1,3 1,9 1,16l0 23c0,17 0,27 1,31 1,4 2,8 4,12l-18 0c-2,-3 -3,-8 -3,-12zm-2 -39c-6,3 -15,5 -28,7 -7,1 -12,2 -15,3 -3,1 -6,3 -7,6 -2,2 -3,5 -3,8 0,4 2,8 6,11 3,3 8,5 15,5 7,0 13,-1 18,-4 5,-3 9,-7 12,-12 1,-4 2,-10 2,-18l0 -6zm120 -94l15 1c-1,6 -2,11 -5,14 -2,3 -5,4 -9,5 -3,1 -11,1 -21,1 -15,0 -24,2 -30,5 -5,2 -9,7 -11,13 -2,6 -3,14 -4,23 5,-6 10,-11 16,-14 6,-4 12,-5 20,-5 13,0 24,4 33,14 9,9 13,21 13,37 0,12 -2,22 -6,30 -5,7 -10,13 -16,17 -6,5 -15,7 -25,7 -12,0 -22,-3 -29,-9 -6,-5 -12,-12 -15,-21 -4,-9 -6,-24 -6,-45 0,-28 5,-46 14,-55 9,-10 23,-14 42,-14 12,0 19,0 21,-1 1,0 2,-1 3,-3zm-1 94c0,-11 -3,-20 -8,-27 -5,-6 -12,-10 -21,-10 -10,0 -17,4 -22,11 -5,7 -8,17 -8,29 0,12 3,21 9,27 5,6 13,10 21,10 9,0 16,-4 21,-11 5,-8 8,-17 8,-29zm102 39c-7,5 -13,9 -19,11 -6,2 -12,4 -19,4 -11,0 -20,-3 -26,-9 -6,-5 -9,-12 -9,-21 0,-5 1,-9 3,-13 2,-5 5,-8 9,-10 4,-3 8,-5 13,-6 3,-1 8,-2 15,-3 14,-1 25,-3 31,-6 0,-2 0,-4 0,-4 0,-7 -1,-12 -5,-15 -4,-4 -11,-6 -19,-6 -9,0 -15,1 -19,4 -4,3 -6,8 -8,16l-17 -3c1,-7 4,-13 7,-17 4,-5 9,-8 16,-11 6,-2 14,-3 23,-3 9,0 16,1 22,3 5,2 9,4 12,7 2,4 4,8 5,12 1,3 1,9 1,16l0 23c0,17 0,27 1,31 1,4 2,8 4,12l-18 0c-2,-3 -3,-8 -3,-12zm-2 -39c-6,3 -16,5 -28,7 -7,1 -12,2 -15,3 -3,1 -6,3 -7,6 -2,2 -3,5 -3,8 0,4 2,8 6,11 3,3 8,5 15,5 7,0 13,-1 18,-4 5,-3 9,-7 11,-12 2,-4 3,-10 3,-18l0 -6zm45 91l0 -142 15 0 0 13c4,-5 8,-9 13,-12 5,-2 11,-3 17,-3 9,0 17,2 23,6 7,5 12,11 16,19 3,9 5,18 5,27 0,11 -2,20 -6,29 -4,8 -9,14 -16,19 -8,4 -15,7 -23,7 -6,0 -11,-2 -16,-4 -4,-2 -8,-6 -11,-9l0 50 -17 0zm15 -90c0,13 3,23 8,29 6,6 12,9 20,9 8,0 14,-3 20,-9 5,-7 8,-17 8,-31 0,-13 -3,-23 -8,-29 -6,-7 -12,-10 -19,-10 -8,0 -14,4 -20,11 -6,6 -9,17 -9,30zm88 -1c0,-19 5,-33 16,-42 9,-8 20,-11 32,-11 14,0 26,4 35,13 9,10 13,22 13,39 0,13 -2,23 -6,31 -4,7 -9,13 -17,17 -7,5 -16,7 -25,7 -14,0 -26,-5 -35,-14 -8,-9 -13,-23 -13,-40zm18 0c0,13 3,23 9,30 5,6 13,9 21,9 9,0 16,-3 22,-9 6,-7 9,-17 9,-30 0,-13 -3,-23 -9,-29 -6,-7 -13,-10 -22,-10 -8,0 -16,3 -21,10 -6,6 -9,16 -9,29zm99 -51l40 0c10,0 17,1 22,2 5,2 9,5 12,9 4,5 5,10 5,16 0,5 -1,9 -3,13 -2,4 -5,7 -9,9 5,2 9,5 12,9 3,4 5,10 5,16 -1,9 -4,17 -11,21 -6,5 -15,7 -27,7l-46 0 0 -102zm17 43l19 0c7,0 12,0 15,-1 3,-1 5,-2 7,-5 2,-2 4,-5 4,-8 0,-6 -2,-9 -6,-12 -4,-2 -11,-3 -20,-3l-19 0 0 29zm0 45l23 0c10,0 17,-1 20,-3 4,-3 6,-6 6,-12 0,-3 -1,-6 -3,-9 -2,-3 -5,-5 -8,-6 -4,0 -9,-1 -17,-1l-21 0 0 31zm153 -23l17 2c-2,12 -7,21 -14,28 -8,6 -18,10 -29,10 -14,0 -25,-5 -34,-14 -8,-9 -12,-22 -12,-40 0,-11 1,-20 5,-29 4,-8 9,-14 17,-18 7,-4 15,-6 24,-6 11,0 21,2 28,8 7,6 11,14 13,24l-17 3c-1,-7 -4,-12 -8,-16 -4,-3 -9,-5 -15,-5 -9,0 -16,3 -21,9 -6,7 -9,16 -9,30 0,14 3,24 8,30 6,6 13,9 21,9 7,0 13,-2 17,-6 5,-4 8,-10 9,-19zm31 -65l18 0 0 44c5,0 9,-1 12,-3 2,-2 5,-8 9,-19 4,-8 7,-13 9,-16 2,-2 4,-4 7,-5 3,-1 7,-1 13,-1l4 0 0 14 -5 0c-5,0 -7,1 -9,2 -1,1 -3,6 -6,13 -3,6 -5,11 -7,14 -2,2 -6,5 -10,7 7,2 15,9 22,21l19 31 -19 0 -19 -31c-4,-7 -7,-11 -10,-13 -3,-2 -6,-3 -10,-3l0 47 -18 0 0 -102zm83 51c0,-19 5,-33 16,-42 9,-8 19,-11 32,-11 14,0 26,4 35,13 9,10 13,22 13,39 0,13 -2,23 -6,31 -4,7 -10,13 -17,17 -8,5 -16,7 -25,7 -14,0 -26,-5 -35,-14 -9,-9 -13,-23 -13,-40zm18 0c0,13 3,23 8,30 6,6 13,9 22,9 9,0 16,-3 22,-9 5,-7 8,-17 8,-30 0,-13 -3,-23 -8,-29 -6,-7 -13,-10 -22,-10 -9,0 -16,3 -22,10 -5,6 -8,16 -8,29zm99 -51l59 0 0 14 -42 0 0 88 -17 0 0 -102zm61 51c0,-19 5,-33 16,-42 8,-8 19,-11 32,-11 14,0 26,4 35,13 9,10 13,22 13,39 0,13 -2,23 -6,31 -4,7 -10,13 -17,17 -8,5 -16,7 -25,7 -14,0 -26,-5 -35,-14 -9,-9 -13,-23 -13,-40zm18 0c0,13 2,23 8,30 6,6 13,9 22,9 9,0 16,-3 22,-9 5,-7 8,-17 8,-30 0,-13 -3,-23 -8,-29 -6,-7 -13,-10 -22,-10 -9,0 -16,3 -22,10 -6,6 -8,16 -8,29zm-739 170l18 0 0 44c5,0 9,-1 12,-3 2,-2 5,-8 9,-19 4,-8 7,-13 9,-16 2,-2 4,-4 7,-5 3,-1 7,-1 13,-1l4 0 0 14 -5 0c-5,0 -7,1 -9,2 -1,2 -3,6 -6,13 -3,7 -5,11 -7,14 -2,2 -6,5 -10,7 7,2 14,9 22,21l19 32 -19 0 -19 -32c-4,-7 -7,-11 -10,-13 -3,-2 -6,-3 -10,-3l0 48 -18 0 0 -103zm87 142l0 -142 16 0 0 13c4,-5 8,-9 13,-11 4,-3 10,-4 17,-4 9,0 16,2 23,6 7,5 12,11 15,19 4,9 5,18 5,27 0,11 -2,20 -5,29 -4,8 -10,15 -17,19 -7,4 -15,7 -22,7 -6,0 -11,-2 -16,-4 -5,-2 -8,-5 -11,-9l0 50 -18 0zm16 -90c0,13 3,23 8,29 5,6 12,9 19,9 8,0 15,-3 20,-9 6,-7 8,-17 8,-31 0,-13 -2,-22 -8,-29 -5,-6 -11,-10 -19,-10 -7,0 -14,4 -19,11 -6,7 -9,17 -9,30z"/>
    <path class="fil4 str2" d="M5692 4929c-6,5 -12,9 -18,11 -6,3 -13,4 -20,4 -11,0 -19,-3 -26,-9 -6,-5 -9,-12 -9,-21 0,-5 1,-9 4,-13 2,-4 5,-8 9,-10 4,-3 8,-5 12,-6 4,-1 9,-2 16,-3 14,-1 24,-3 31,-6 0,-2 0,-3 0,-4 0,-7 -2,-12 -5,-15 -4,-4 -11,-6 -20,-6 -8,0 -14,2 -18,4 -4,3 -7,8 -9,16l-17 -3c2,-7 4,-13 8,-17 4,-5 9,-8 15,-11 7,-2 15,-3 24,-3 9,0 16,1 21,3 6,2 10,4 12,8 3,3 5,7 6,11 0,3 1,9 1,16l0 23c0,17 0,27 1,31 0,4 2,9 4,13l-18 0c-2,-4 -3,-8 -4,-13zm-1 -39c-6,3 -16,5 -29,7 -7,1 -12,2 -15,3 -3,1 -5,3 -7,6 -1,2 -2,5 -2,8 0,5 2,8 5,11 4,3 9,5 16,5 6,0 12,-1 18,-4 5,-3 9,-7 11,-12 2,-4 3,-10 3,-18l0 -6zm125 -51l0 103 -17 0 0 -40 -10 0c-6,0 -11,0 -14,2 -3,2 -7,7 -13,15l-15 23 -22 0 19 -28c6,-8 11,-13 17,-14 -10,-2 -17,-5 -22,-11 -5,-6 -7,-13 -7,-20 0,-9 3,-16 9,-22 7,-5 16,-8 28,-8l47 0zm-17 14l-25 0c-10,0 -17,2 -20,5 -3,3 -4,7 -4,11 0,7 2,11 6,14 5,3 12,4 24,4l19 0 0 -34z"/>
   </g>
   <g id="_521324785936">
    <path class="fil5" d="M5681 3905l-4 15c-1,0 -1,0 -1,0l-8 3c0,1 -1,2 -2,2 0,1 -1,2 -1,3l-8 -5 -5 9 -9 -12 -3 9c-4,-4 -6,-6 -12,-10l-36 -1c-9,0 -9,4 -17,7l3 -17c-1,2 -1,2 -5,5 -1,0 -7,3 -9,4l4 -14c1,0 1,0 1,0l-10 4 5 -28c-35,-14 -42,-41 -73,-44 -3,-6 7,1 -9,-10 -9,-7 0,-6 -12,-17l10 0c-15,-15 -3,-4 -10,-25 -4,-11 -8,-23 -9,-37 9,4 16,14 22,21 18,22 58,48 93,36l-31 -4c-13,-2 -14,-1 -25,-8l-72 -68c-14,-19 -18,-13 -21,-22 -2,-7 1,-8 1,-8 0,-1 3,-5 4,-6 -10,1 -6,2 -13,-1 6,-4 8,-5 12,-9l-4 -11c3,-4 6,-6 9,-10 14,-16 -4,-5 11,-17 25,-20 48,-81 132,-118l14 -8c-14,-17 -13,-10 -30,-13 -1,0 -8,-3 -8,-3 -18,-11 -9,-18 -8,-24 -5,5 -6,4 -14,4 -28,1 -30,-6 -26,-25l13 -5 4 13c25,2 44,5 68,8 -8,-29 -42,-8 -57,-14l-3 -17c-3,-10 -5,-10 -8,-19l3 -2c8,-5 96,-13 101,-13 -4,-11 -7,-12 -5,-25 15,-9 24,-11 43,1 -4,9 -5,16 -10,26 23,-1 2,-31 34,-32 18,0 37,19 45,26 0,0 -2,0 -2,1l-19 15c-7,4 -4,1 -10,6 12,24 34,35 39,37 -1,1 -2,1 -3,2 -2,9 -2,-1 -7,7l17 9c-1,4 -1,2 -2,5 -2,3 -1,0 -2,4l19 10c-5,3 -7,2 -8,3 -8,5 -2,-1 -9,7l37 18c0,-1 -1,-2 -2,0 -1,4 -1,-1 -10,5l15 4 -11 8c7,7 9,2 12,11 0,0 0,1 0,1l18 55c9,22 18,70 32,85 -7,5 0,0 -8,2 0,0 -1,0 -2,0 0,0 -1,0 -2,0l6 21 -16 -8 4 14c1,0 0,0 0,0 -2,7 2,-1 -7,2 0,0 -1,1 -2,1l6 12 -11 -5c2,8 0,4 5,12 -11,-3 -8,-7 -21,6l9 -1c-4,25 -18,48 -11,64 0,0 9,-2 -6,8l11 5c-19,10 -8,3 -8,8l-4 9c0,0 0,1 0,1 -25,1 -40,26 -86,41 -14,4 -27,5 -15,21zm-53 76c11,-29 35,-37 75,-37 188,0 182,10 182,-147 0,-146 3,-296 0,-442l-518 2c-1,147 -1,295 -1,443 -1,157 -12,144 185,144 19,0 34,3 48,10 15,9 18,19 29,27z"/>
    <path class="fil6" d="M5589 3806c0,0 -1,-1 -2,-2 0,-1 -1,-1 -1,-2 15,6 30,23 36,34 15,-9 13,-21 30,-33 -43,72 -21,21 -81,73 13,-21 31,-30 51,-38l-33 -32zm-1 -11c6,-10 1,-10 11,-16 11,4 15,2 4,12 -5,5 -7,5 -15,4zm33 -26l14 -5 1 7 4 9c3,10 5,10 9,17 -17,-2 -12,-5 -23,-8 -5,-6 -8,8 -4,-7l-1 -13zm-26 10c3,-16 4,-12 -3,-26 30,11 0,5 20,14l-3 4c-4,8 0,7 -14,8zm50 -26c-2,3 -4,6 -7,8 -13,6 -10,-2 -11,-3l18 -5zm-27 -223c10,-9 -9,8 6,-4 7,2 7,2 12,7l4 -7 18 6c-9,7 11,8 -14,2 5,17 2,5 -2,10 -26,-13 0,9 -30,-7l6 -7zm46 49l31 2 1 121 -2 8 -1 9c19,-34 18,-55 24,-66l8 -8c-2,24 -8,48 -15,67 -7,20 -3,11 -16,17 -10,5 -8,10 -22,5 -14,9 -35,-2 -51,18 -26,-19 -17,-10 -41,-14l-14 -4c-25,16 -62,-79 -48,-103 -1,16 6,72 21,79 7,4 1,6 6,0 -3,-3 -2,5 -3,-8l1 -122 46 -1c-8,-15 -16,-27 -22,-46 14,9 21,17 39,23 26,9 66,-28 142,-30 -25,17 -69,29 -84,53zm20 -65c5,4 3,1 6,5l5 6c-32,10 -13,-9 -13,-9 0,-1 1,-1 2,-2zm26 5c0,-1 -1,1 -1,2 -11,-4 -11,-4 -18,-16l18 4c-4,-2 -2,-1 -5,-10 31,6 16,2 27,-1 5,7 2,2 5,8 -7,5 -6,3 -15,1l4 8 -18 -1c6,2 3,5 3,5zm-156 -41c2,-1 2,-5 15,-3 11,2 8,2 14,6 -13,2 -17,3 -29,-3zm68 -51c-5,8 -5,7 -15,11l-6 -10c6,-3 1,-5 7,4 13,-10 -5,-12 14,-5zm55 -19c1,-16 13,-14 26,-10 -11,17 -17,14 -26,10zm-85 60c-3,11 1,4 -6,9l-39 -4c-1,6 -10,13 8,24 0,0 7,3 8,3 17,3 16,-4 30,13l-14 8c-84,37 -107,98 -132,118 -15,12 3,1 -11,17 -3,4 -6,6 -9,10l4 11c-4,4 -6,5 -12,9 7,3 3,2 13,1 -1,1 -4,5 -4,6 0,0 -3,1 -1,8 3,9 7,3 21,22l72 68c11,7 12,6 25,8l31 4c-35,12 -75,-14 -93,-36 -6,-7 -13,-17 -22,-21 1,14 5,26 9,37 7,21 -5,10 10,25l-10 0c12,11 3,10 12,17 16,11 6,4 9,10 31,3 38,30 73,44 3,3 3,-2 8,11 8,18 -8,-2 3,7l5 2c0,-1 2,1 3,2 -2,3 1,6 -5,7l-3 17c8,-3 8,-7 17,-7l36 1 -1 -8c11,5 25,5 33,2l5 -2c0,-1 1,-2 2,-2l14 -4c-12,-16 1,-17 15,-21 46,-15 61,-40 86,-41 0,0 0,-1 0,-1l4 -9c0,-5 -11,2 8,-8l-11 -5c15,-10 6,-8 6,-8 -7,-16 7,-39 11,-64l-9 1c13,-13 10,-9 21,-6 -5,-8 -3,-4 -5,-12l11 5 -6 -12c1,0 2,-1 2,-1 9,-3 5,5 7,-2 0,0 1,0 0,0l-4 -14 16 8 -6 -21c1,0 2,0 2,0 1,0 2,0 2,0 8,-2 1,3 8,-2 -14,-15 -23,-63 -32,-85l-18 -55c0,0 0,-1 0,-1 -3,-9 -5,-4 -12,-11l11 -8 -15 -4c9,-6 9,-1 10,-5 1,-2 2,-1 2,0l-37 -18c7,-8 1,-2 9,-7 1,-1 3,0 8,-3l-19 -10c1,-4 0,-1 2,-4 1,-3 1,-1 2,-5l-17 -9c5,-8 5,2 7,-7 1,-1 2,-1 3,-2 -5,-2 -27,-13 -39,-37 6,-5 3,-2 10,-6l19 -15c0,-1 2,-1 2,-1 -8,-7 -27,-26 -45,-26 -32,1 -11,31 -34,32 5,-10 6,-17 10,-26 -19,-12 -28,-10 -43,-1 -2,13 1,14 5,25 -5,0 -93,8 -101,13l-3 2c3,9 5,9 8,19l3 17c15,6 49,-15 57,14z"/>
    <path class="fil7" d="M5628 3981c-11,-8 -14,-18 -29,-27 -14,-7 -29,-10 -48,-10 -197,0 -186,13 -185,-144 0,-148 0,-296 1,-443l518 -2c3,146 0,296 0,442 0,157 6,147 -182,147 -40,0 -64,8 -75,37zm-276 -604l0 489c0,124 127,83 212,92 46,5 35,41 60,41 30,0 11,-36 60,-41 86,-9 211,34 211,-95l0 -486c0,-16 -2,-14 -3,-29 -15,-1 -15,-6 -31,-6l-474 0c-25,0 -35,10 -35,35z"/>
    <path class="fil8" d="M5550 3706l-5 4c-5,6 1,4 -6,0 -15,-7 -22,-63 -21,-79 -14,24 23,119 48,103 8,-6 22,-17 28,-24 11,-11 13,-17 27,-24 25,18 44,43 51,48 14,5 12,0 22,-5 13,-6 9,3 16,-17 7,-19 13,-43 15,-67l-8 8c-6,11 -5,32 -24,66l1 -9 -3 -4c-10,-4 -19,-15 -27,-22 -11,-11 -11,-16 -24,-26l0 -76c-13,-4 -28,-4 -42,0l1 76 -49 48z"/>
    <path class="fil9" d="M5550 3706l49 -48 -1 -76 -54 0 0 95c0,35 -1,25 6,29z"/>
    <path class="fil9" d="M5691 3706c6,-8 2,-87 2,-105l0 -18 -53 -1 0 76c13,10 13,15 24,26 8,7 17,18 27,22z"/>
    <path class="fil10" d="M5589 3579l75 0c15,-24 59,-36 84,-53 -76,2 -116,39 -142,30 -18,-6 -25,-14 -39,-23 6,19 14,31 22,46z"/>
    <path class="fil9" d="M5587 3724c12,-7 24,-4 31,-12 12,9 11,9 30,5l1 14c-18,-8 -8,-3 -17,0 -15,5 -38,2 -45,-7zm-21 10l14 4c24,4 15,-5 41,14 16,-20 37,-9 51,-18 -7,-5 -26,-30 -51,-48 -14,7 -16,13 -27,24 -6,7 -20,18 -28,24z"/>
    <path class="fil11" d="M5518 3456c2,7 2,6 5,12l19 -1c-10,4 -24,3 -27,-4 -4,-12 2,-6 3,-7zm29 17l39 4c7,-5 3,2 6,-9 -24,-3 -43,-6 -68,-8l-4 -13 -13 5c-4,19 -2,26 26,25 8,0 9,1 14,-4z"/>
    <path class="fil12" d="M5587 3724c7,9 30,12 45,7 9,-3 -1,-8 17,0l-1 -14c-19,4 -18,4 -30,-5 -7,8 -19,5 -31,12z"/>
    <path class="fil13" d="M5622 3838c-20,8 -38,17 -51,38 60,-52 38,-1 81,-73 -17,12 -15,24 -30,33 -6,-11 -21,-28 -36,-34 0,1 1,1 1,2 1,1 2,2 2,2l33 32z"/>
    <path class="fil14" d="M5628 3919c6,4 8,6 12,10l3 -9 9 12 5 -9 8 5c0,-1 1,-2 1,-3 1,0 2,-1 2,-2l8 -3c0,0 0,0 1,0l4 -15 -14 4c-1,0 -2,1 -2,2l-5 2c-8,3 -22,3 -33,-2l1 8z"/>
    <path class="fil15" d="M5704 3499c3,9 1,8 5,10l-18 -4c7,12 7,12 18,16 0,-1 1,-3 1,-2 0,0 3,-3 -3,-5l18 1 -4 -8c9,2 8,4 15,-1 -3,-6 0,-1 -5,-8 -11,3 4,7 -27,1z"/>
    <path class="fil15" d="M5612 3537c30,16 4,-6 30,7 4,-5 7,7 2,-10 25,6 5,5 14,-2l-18 -6 -4 7c-5,-5 -5,-5 -12,-7 -15,12 4,-5 -6,4l-6 7z"/>
    <path class="fil14" d="M5578 3908c6,-1 3,-4 5,-7 -1,-1 -3,-3 -3,-2l-5 -2c-11,-9 5,11 -3,-7 -5,-13 -5,-8 -8,-11l-5 28 10 -4c0,0 0,0 -1,0l-4 14c2,-1 8,-4 9,-4 4,-3 4,-3 5,-5z"/>
    <path class="fil16" d="M5677 3408c9,4 15,7 26,-10 -13,-4 -25,-6 -26,10z"/>
    <path class="fil13" d="M5595 3779c14,-1 10,0 14,-8l3 -4c-20,-9 10,-3 -20,-14 7,14 6,10 3,26z"/>
    <path class="fil15" d="M5588 3795c8,1 10,1 15,-4 11,-10 7,-8 -4,-12 -10,6 -5,6 -11,16z"/>
    <path class="fil17" d="M5626 3789c11,3 6,6 23,8 -4,-7 -6,-7 -9,-17 -13,-1 6,-5 -7,0 -1,0 -2,0 -2,1 -13,7 0,-4 -5,8z"/>
    <path class="fil14" d="M5626 3789c5,-12 -8,-1 5,-8 0,-1 1,-1 2,-1 13,-5 -6,-1 7,0l-4 -9c-1,9 1,5 -3,9l-6 -7c0,-1 0,-2 0,-2l-6 -2 1 13c-4,15 -1,1 4,7z"/>
    <path class="fil18" d="M5695 3525l-5 -6c-3,-4 -1,-1 -6,-5 -1,1 -2,1 -2,2 0,0 -19,19 13,9z"/>
    <path class="fil16" d="M5554 3478c12,6 16,5 29,3 -6,-4 -3,-4 -14,-6 -13,-2 -13,2 -15,3z"/>
    <path class="fil17" d="M5601 3428l6 10c10,-4 10,-3 15,-11 -19,-7 -1,-5 -14,5 -6,-9 -1,-7 -7,-4z"/>
    <path class="fil13" d="M5621 3769l6 2c0,0 0,1 0,2l6 7c4,-4 2,0 3,-9l-1 -7 -14 5z"/>
    <path class="fil13" d="M5627 3758c1,1 -2,9 11,3 3,-2 5,-5 7,-8l-18 5z"/>
    <path class="fil19" d="M5542 3467l-19 1c-3,-6 -3,-5 -5,-12 -1,1 -7,-5 -3,7 3,7 17,8 27,4z"/>
   </g>
   <g id="_521324783056">
    <path class="fil20 str3" d="M5467 2196c-44,-25 -230,-90 -231,-90 -43,-70 -61,-275 -61,-275l-125 0 -126 0c0,0 -18,205 -61,275 0,0 -186,65 -231,90 -44,24 -74,52 -74,102 0,34 4,77 4,107l976 0c0,-37 3,-73 3,-107 0,-50 -29,-78 -74,-102z"/>
    <path class="fil21 str3" d="M5467 2196c-44,-25 -230,-90 -231,-90 0,0 -29,128 -186,227 -158,-99 -187,-227 -187,-227 0,0 -186,65 -231,90 -44,24 -74,52 -74,102 0,34 4,136 4,167l488 0 488 0c0,-31 3,-133 3,-167 0,-50 -29,-78 -74,-102z"/>
    <path class="fil22 str3" d="M5291 2126c-32,-12 -55,-20 -55,-20 0,0 -29,128 -186,227 -158,-99 -187,-227 -187,-227 0,0 -23,8 -55,20 0,0 50,203 242,279l0 0c0,0 0,0 0,0 0,0 0,0 0,0l0 0c192,-76 241,-279 241,-279z"/>
    <path class="fil20 str3" d="M5319 1614c-11,-23 -26,-5 -32,8 4,-158 -54,-323 -239,-327l0 0c0,0 -1,0 -2,0 -1,0 -2,0 -3,0l0 0c-185,4 -241,169 -237,327 -7,-12 -23,-33 -35,-8 -13,30 26,130 46,109 6,31 14,60 23,85 57,157 177,199 203,203l5 0c27,-4 147,-46 203,-203 9,-25 17,-53 23,-84 21,16 58,-80 45,-110z"/>
    <path class="fil23 str3" d="M4806 1622c0,0 238,-22 387,-130 0,0 50,105 94,130 0,0 13,-25 28,-14 15,10 -1,79 -14,97 -14,17 -19,24 -27,19 0,0 -15,107 -85,195 0,0 5,92 82,133 77,41 188,33 252,-41 0,0 -137,0 -134,-155 3,-109 80,-653 -330,-597l-24 0c-411,-56 -334,488 -331,597 4,145 -134,155 -134,155 65,74 175,82 252,41 77,-41 83,-133 83,-133 -71,-88 -86,-195 -86,-195 0,0 -21,5 -36,-33 -15,-39 -24,-114 23,-69z"/>
    <g>
     <path class="fil24" d="M4931 1666c-9,0 -17,8 -17,17 0,10 8,18 17,18 10,0 18,-8 18,-18 0,-9 -8,-17 -18,-17zm231 0c-10,0 -18,8 -18,17 0,10 8,18 18,18 10,0 17,-8 17,-18 0,-9 -7,-17 -17,-17z"/>
     <path id="1" class="fil25" d="M4931 1683l-35 0 0 0 0 -1 1 -2 0 -1 0 -2 0 -2 1 -1 0 -2 1 -1 1 -1 0 -2 1 -1 1 -2 1 -1 1 -1 1 -1 1 -1 1 -2 1 -1 2 -1 1 -1 2 -1 1 0 2 -1 1 -1 2 -1 1 0 2 -1 2 0 2 0 2 -1 2 0 1 0 0 31 1 0 0 0 0 0 0 0 0 0 0 0 0 0 0 0 0 0 0 0 0 0 0 0 0 0 0 0 0 0 0 0 0 0 0 0 0 0 0 1 0 0 0 0 0 0 0 0 0 0 0 0 0 0 0 1 0 0 0 0 -1 0 0 0 0 0zm0 0c0,9 -7,16 -17,16 -10,0 -18,-7 -18,-16l35 0zm0 2l0 31 0 0 -1 0 -2 0 -2 0 -2 0 -2 -1 -2 0 -1 -1 -2 0 -1 -1 -2 -1 -1 -1 -2 -1 -1 -1 -2 -1 -1 -1 -1 -1 -1 -1 -1 -1 -1 -2 -1 -1 -1 -1 -1 -2 0 -1 -1 -1 -1 -2 0 -1 -1 -2 0 -1 0 -2 0 -1 -1 -2 0 -2 35 0 0 1 1 0 0 0 0 0 0 0 0 0 0 1 0 0 0 0 0 0 0 0 0 0 0 0 0 0 0 0 0 0 0 0 0 0 0 0 0 0 0 0 0 0 0 0 0 0 0 0 0 0 0 0 0 0 0 0 0 0 0 0 -1 0 0 0zm0 0c10,0 18,7 18,16 0,8 -8,15 -18,15l0 -31zm0 -2l36 0 0 0 0 2 -1 2 0 1 0 2 0 1 -1 2 0 1 -1 2 -1 1 0 1 -1 2 -1 1 -1 1 -1 2 -1 1 -1 1 -1 1 -1 1 -2 1 -1 1 -2 1 -1 1 -2 1 -1 1 -2 0 -2 1 -1 0 -2 1 -2 0 -2 0 -2 0 -2 0 0 -31 0 0 0 0 0 0 0 0 0 0 0 0 0 0 0 0 0 0 0 0 0 0 0 0 0 0 0 0 0 0 0 0 0 0 0 0 0 0 0 0 0 0 0 0 0 0 0 0 0 0 0 -1 0 0 0 0 0 0 0 0 0 0 0 -1 0 0zm0 0c0,-8 8,-15 18,-15 10,0 18,7 18,15l-36 0zm0 -2l0 -31 0 0 2 0 2 0 2 1 2 0 2 0 1 1 2 0 2 1 1 1 2 1 1 0 2 1 1 1 2 1 1 1 1 2 1 1 1 1 1 1 1 1 1 2 1 1 0 2 1 1 1 1 0 2 1 1 0 2 0 2 0 1 1 2 0 1 -36 0 0 0 0 0 0 0 0 0 0 -1 0 0 0 0 0 0 0 0 0 0 0 0 0 0 0 -1 0 0 0 0 0 0 0 0 0 0 0 0 0 0 0 0 0 0 0 0 0 0 0 0 0 0 0 0 0 0 0 0 0 0 0 0 0 0 0 0zm0 0c-9,0 -17,-7 -17,-15 0,-9 8,-16 17,-16l0 31zm231 2l-35 0 0 0 0 -1 0 -2 0 -1 0 -2 1 -2 0 -1 1 -2 0 -1 1 -1 1 -2 0 -1 1 -2 1 -1 1 -1 1 -1 1 -1 2 -2 1 -1 1 -1 1 -1 2 -1 1 0 2 -1 2 -1 1 -1 2 0 2 -1 1 0 2 0 2 -1 2 0 2 0 0 31 0 0 0 0 0 0 0 0 0 0 0 0 0 0 1 0 0 0 0 0 0 0 0 0 0 0 0 0 0 0 0 0 -1 0 0 0 0 0 0 1 0 0 0 0 0 0 0 0 0 0 0 0 0 0 0 1 0 0 0 0 0 0 0 0 0 0zm0 0c0,9 -8,16 -18,16 -9,0 -17,-7 -17,-16l35 0zm0 2l0 31 0 0 -2 0 -2 0 -2 0 -2 0 -1 -1 -2 0 -2 -1 -2 0 -1 -1 -2 -1 -1 -1 -2 -1 -1 -1 -1 -1 -1 -1 -2 -1 -1 -1 -1 -1 -1 -2 -1 -1 -1 -1 0 -2 -1 -1 -1 -1 0 -2 -1 -1 0 -2 -1 -1 0 -2 0 -1 0 -2 0 -2 35 0 0 1 0 0 0 0 0 0 0 0 0 0 0 1 0 0 0 0 0 0 0 0 0 0 0 0 0 0 0 0 1 0 0 0 0 0 0 0 0 0 0 0 0 0 0 0 0 0 -1 0 0 0 0 0 0 0 0 0 0 0 0 0 0 0 0 0zm0 0c10,0 17,7 17,16 0,8 -7,15 -17,15l0 -31zm0 -2l35 0 0 0 0 2 0 2 0 1 -1 2 0 1 -1 2 0 1 -1 2 0 1 -1 1 -1 2 -1 1 -1 1 -1 2 -1 1 -1 1 -1 1 -1 1 -1 1 -2 1 -1 1 -2 1 -1 1 -2 1 -1 0 -2 1 -2 0 -2 1 -2 0 -1 0 -2 0 -2 0 0 -31 0 0 0 0 0 0 -1 0 0 0 0 0 0 0 0 0 0 0 0 0 0 0 0 0 0 0 0 0 0 0 0 0 0 0 0 0 0 0 0 0 0 0 0 0 1 0 0 0 0 0 0 -1 0 0 0 0 0 0 0 0 0 0 0 -1 0 0zm0 0c0,-8 8,-15 17,-15 10,0 18,7 18,15l-35 0zm0 -2l0 -31 0 0 2 0 2 0 1 1 2 0 2 0 2 1 2 0 1 1 2 1 1 1 2 0 1 1 2 1 1 1 1 1 1 2 1 1 1 1 1 1 1 1 1 2 1 1 1 2 0 1 1 1 0 2 1 1 0 2 1 2 0 1 0 2 0 1 -35 0 0 0 0 0 0 0 0 0 0 -1 0 0 0 0 0 0 0 0 -1 0 0 0 0 0 0 -1 0 0 0 0 0 0 0 0 0 0 0 0 0 0 0 0 0 0 0 0 0 0 0 0 0 0 0 0 0 0 1 0 0 0 0 0 0 0 0 0zm0 0c-10,0 -18,-7 -18,-15 0,-9 8,-16 18,-16l0 31z"/>
    </g>
   </g>
   <path class="fil20 str4" d="M4383 2280c-145,-21 -238,-131 -238,-131 -45,-61 -37,-271 -37,-271l-146 0 -147 0c0,0 9,210 -37,271 0,0 -93,110 -238,131 0,0 -19,5 26,80 23,38 209,56 396,57 187,-1 372,-19 395,-57 46,-75 26,-80 26,-80z"/>
   <path class="fil26 str4" d="M4440 2453c0,-36 -3,-90 -3,-123 0,-48 -29,-75 -72,-99 -43,-24 -223,-87 -223,-87 0,145 -180,160 -180,160 0,0 -180,-15 -180,-160 0,0 -180,63 -223,87 -43,24 -72,51 -72,99 0,33 -3,94 -3,123l956 0z"/>
   <path class="fil27 str4" d="M3727 2218l0 -1 -8 -12 -11 0 -8 12 -1 1 -69 104 0 44 83 -126 77 126 0 -44 -63 -104z"/>
   <path class="fil27 str4" d="M3487 2341l66 -101 77 126 0 -44 -59 -98c-5,3 -9,5 -12,7 -43,24 -72,51 -72,99 0,3 0,7 0,11z"/>
   <path class="fil27 str4" d="M4206 2218l0 -1 -7 -12 -12 0 -8 12 0 1 -70 104 0 44 83 -126 77 126 0 -44 -63 -104z"/>
   <path class="fil27 str4" d="M3961 2304l-12 18 0 44 45 -68c-19,5 -32,6 -32,6l-1 0zm94 -27l54 89 0 -44 -34 -57c-7,5 -14,8 -20,12z"/>
   <path class="fil27 str4" d="M3834 2255l-44 67 0 44 64 -97c-7,-5 -13,-9 -20,-14zm70 36l45 75 0 -44 -13 -22c-9,-2 -20,-5 -32,-9z"/>
   <path class="fil27 str4" d="M4435 2312l-7 10 0 44 9 -13c0,-8 0,-16 0,-23 0,-7 -1,-13 -2,-18z"/>
   <path class="fil27 str4" d="M4338 2218l-69 104 0 44 83 -126 76 126 0 -44 -50 -83c-4,-3 -8,-6 -13,-8 -6,-4 -16,-8 -27,-13z"/>
   <path class="fil27 str4" d="M3727 2318l0 -1 -8 -13 -11 0 -8 13 -1 0 -69 105 0 31 8 0 75 -113 69 113 8 0 0 -31 -63 -104z"/>
   <path class="fil27 str4" d="M3567 2318l0 -1 -7 -13 -12 0 -8 13 0 0 -55 82c-1,17 -1,34 -1,46l69 -105 70 113 7 0 0 -31 -63 -104z"/>
   <path class="fil27 str4" d="M4206 2318l0 -1 -7 -13 -12 0 -8 13 0 0 -70 105 0 31 8 0 75 -113 69 113 8 0 0 -31 -63 -104z"/>
   <path class="fil27 str4" d="M4047 2318l-1 -1 -7 -13 -12 0 -8 13 0 0 -70 105 0 31 8 0 75 -113 70 113 7 0 0 -31 -62 -104z"/>
   <path class="fil27 str4" d="M3887 2318l-1 -1 -7 -13 -11 0 -8 13 -1 0 -69 105 0 31 8 0 75 -113 69 113 7 0 0 -31 -62 -104z"/>
   <path class="fil27 str4" d="M4439 2406l-11 16 0 31 9 0 3 -4c0,-13 -1,-28 -1,-43z"/>
   <path class="fil27 str4" d="M4366 2318l-1 -1 -7 -13 -11 0 -8 13 -1 0 -69 105 0 31 8 0 75 -113 69 113 7 0 0 -31 -62 -104z"/>
   <path class="fil28 str4" d="M4142 2144c-7,147 -180,160 -180,160 0,0 -173,-13 -180,-160l-49 17c0,0 19,192 229,192 210,0 228,-192 228,-192l-48 -17z"/>
   <path class="fil20 str4" d="M4235 1649c-16,-5 -29,7 -36,13 0,-2 0,-4 1,-6 4,-159 -55,-326 -240,-329l0 0c-1,0 -2,0 -3,0 -1,0 -2,0 -3,0l0 0c-186,3 -242,169 -238,329 0,2 1,4 1,6 -7,-6 -20,-18 -37,-13 -33,10 -20,135 54,155 5,33 11,74 16,87 8,23 84,107 116,122 32,14 91,13 91,13 0,0 60,1 92,-13 32,-15 107,-99 115,-122 5,-13 12,-54 16,-87l1 0c75,-18 84,-146 54,-155z"/>
   <path class="fil29 str4" d="M3718 1658c0,0 -35,-222 16,-238 0,0 -17,-46 9,-83 23,-31 29,-64 29,-64 0,0 2,16 0,35 0,0 31,-42 60,-54 0,0 -19,25 -15,37 0,0 20,-51 83,-62 0,0 -25,21 -23,31 0,0 15,-24 43,-31 0,0 -9,10 -8,14 0,0 20,-12 38,-17 0,0 -13,10 -10,11 2,0 33,-4 37,-17 0,0 2,9 -4,13 0,0 26,-2 33,-11 0,0 -1,8 -9,13 0,0 32,-7 45,-18 0,0 -11,13 -20,18 0,0 42,5 57,-2 0,0 -6,12 -15,13 0,0 12,3 18,-1 0,0 -10,18 -4,20 7,2 11,-6 11,-11 0,0 5,12 12,11 7,-1 -1,-17 -1,-17 0,0 30,8 47,33 17,26 35,81 35,81 0,-1 34,69 35,97 1,28 -17,224 -28,246 0,0 -5,-87 -36,-108 -7,-6 28,-82 6,-117 -32,-49 -73,-40 -135,-19 -84,28 -157,-23 -181,-23 -121,4 -72,144 -84,164 -26,44 -23,74 -38,103l-3 -47z"/>
   <g>
    <path class="fil24" d="M3844 1659c-10,0 -18,8 -18,18 0,9 8,17 18,17 9,0 17,-8 17,-17 0,-10 -8,-18 -17,-18zm230 0c-10,0 -17,8 -17,18 0,9 7,17 17,17 10,0 18,-8 18,-17 0,-10 -8,-18 -18,-18z"/>
    <path id="1" class="fil25" d="M3835 1677l-17 0 0 0 0 -2 0 -1 0 -1 0 -1 0 -2 1 -1 0 -1 0 -1 1 -1 1 -1 0 -1 1 -1 0 -1 1 -1 1 -1 1 -1 1 -1 1 -1 1 -1 1 0 1 -1 1 -1 1 0 1 -1 1 0 2 -1 1 0 1 0 2 -1 1 0 1 0 2 0 0 16 -1 0 0 0 0 0 -1 0 0 0 -1 0 0 0 0 0 -1 1 0 0 0 0 -1 0 0 0 0 1 -1 0 0 0 0 1 -1 0 0 0 0 1 0 0 -1 1 0 0 0 0 0 1 0 0 -1 1 0 0 0 1 0 0 0 1 0 1 0 0zm0 0c0,4 -4,7 -9,7 -5,0 -8,-3 -8,-7l17 0zm9 9l0 16 0 0 -2 0 -1 0 -1 0 -2 -1 -1 0 -1 0 -2 -1 -1 0 -1 -1 -1 0 -1 -1 -1 -1 -1 0 -1 -1 -1 -1 -1 -1 -1 -1 -1 -1 -1 -1 0 -1 -1 -1 0 -1 -1 -1 -1 -1 0 -1 0 -1 -1 -1 0 -2 0 -1 0 -1 0 -1 0 -1 17 0 0 0 0 1 0 0 0 1 0 0 1 1 0 0 0 1 0 0 0 0 1 1 0 0 0 1 0 0 1 0 0 1 0 0 1 0 0 1 0 0 1 0 0 0 0 0 1 1 0 0 0 0 1 0 0 0 1 0 0 0 0 0 1 0 0 0zm0 0c5,0 9,4 9,8 0,4 -4,8 -9,8l0 -16zm9 -9l17 0 0 0 0 1 0 1 0 1 0 1 -1 2 0 1 0 1 -1 1 0 1 -1 1 0 1 -1 1 -1 1 -1 1 0 1 -1 1 -1 1 -1 1 -1 1 -1 0 -1 1 -1 1 -1 0 -2 1 -1 0 -1 1 -1 0 -2 0 -1 1 -1 0 -2 0 -1 0 0 -16 0 0 1 0 0 0 0 0 1 0 0 0 1 0 0 0 0 -1 1 0 0 0 0 0 1 0 0 -1 0 0 1 0 0 -1 0 0 1 0 0 -1 0 0 0 -1 1 0 0 0 0 -1 0 0 0 -1 0 0 0 -1 1 0 0 -1 0 0 0 0zm0 0c0,-5 4,-8 8,-8 5,0 9,3 9,8l-17 0zm-9 -10l0 -16 0 0 1 0 2 0 1 0 1 1 2 0 1 0 1 1 1 0 2 1 1 0 1 1 1 1 1 0 1 1 1 1 1 1 1 1 0 1 1 1 1 1 1 1 0 1 1 1 0 1 1 1 0 1 0 1 1 2 0 1 0 1 0 1 0 2 -17 0 0 -1 0 -1 -1 0 0 -1 0 0 0 -1 0 0 0 -1 0 0 -1 0 0 -1 0 0 0 -1 -1 0 0 0 0 -1 -1 0 0 0 0 -1 -1 0 0 0 0 0 -1 0 0 -1 0 0 -1 0 0 0 -1 0 0 0 0 0 -1 0 0 0 0 0zm0 0c-5,0 -9,-4 -9,-8 0,-4 4,-8 9,-8l0 16zm221 10l-17 0 0 0 0 -2 0 -1 0 -1 0 -1 1 -2 0 -1 0 -1 1 -1 0 -1 1 -1 0 -1 1 -1 1 -1 1 -1 0 -1 1 -1 1 -1 1 -1 1 -1 1 0 1 -1 1 -1 1 0 2 -1 1 0 1 -1 1 0 2 0 1 -1 1 0 2 0 1 0 0 16 0 0 -1 0 0 0 0 0 -1 0 0 0 -1 0 0 0 0 1 -1 0 0 0 0 0 -1 0 0 1 0 0 -1 0 0 1 0 0 -1 0 0 1 0 0 0 1 -1 0 0 0 0 1 0 0 0 1 0 0 0 1 -1 0 0 1 0 1 0 0zm0 0c0,4 -4,7 -8,7 -5,0 -9,-3 -9,-7l17 0zm9 9l0 16 0 0 -1 0 -2 0 -1 0 -1 -1 -2 0 -1 0 -1 -1 -1 0 -2 -1 -1 0 -1 -1 -1 -1 -1 0 -1 -1 -1 -1 -1 -1 -1 -1 0 -1 -1 -1 -1 -1 -1 -1 0 -1 -1 -1 0 -1 -1 -1 0 -1 0 -1 -1 -2 0 -1 0 -1 0 -1 0 -1 17 0 0 0 0 1 1 0 0 1 0 0 0 1 0 0 0 1 0 0 1 0 0 1 0 0 0 1 1 0 0 0 0 1 1 0 0 0 0 1 1 0 0 0 0 0 1 0 0 1 0 0 1 0 0 0 1 0 0 0 0 0 1 0 0 0 0 0zm0 0c5,0 9,4 9,8 0,4 -4,8 -9,8l0 -16zm9 -9l17 0 0 0 0 1 0 1 0 1 0 1 0 2 -1 1 0 1 0 1 -1 1 -1 1 0 1 -1 1 0 1 -1 1 -1 1 -1 1 -1 1 -1 1 -1 1 -1 0 -1 1 -1 1 -1 0 -1 1 -1 0 -2 1 -1 0 -1 0 -2 1 -1 0 -1 0 -2 0 0 -16 1 0 0 0 0 0 1 0 0 0 0 0 1 0 0 0 1 -1 0 0 0 0 1 0 0 0 0 -1 1 0 0 0 0 -1 1 0 0 0 0 -1 0 0 1 -1 0 0 0 0 0 -1 0 0 1 -1 0 0 0 -1 0 0 0 -1 0 0 0 0zm0 0c0,-5 4,-8 9,-8 5,0 8,3 8,8l-17 0zm-9 -10l0 -16 0 0 2 0 1 0 1 0 2 1 1 0 1 0 2 1 1 0 1 1 1 0 1 1 1 1 1 0 1 1 1 1 1 1 1 1 1 1 1 1 0 1 1 1 0 1 1 1 1 1 0 1 0 1 1 1 0 2 0 1 0 1 0 1 0 2 -17 0 0 -1 0 -1 0 0 0 -1 0 0 -1 -1 0 0 0 -1 0 0 0 0 -1 -1 0 0 0 -1 0 0 -1 0 0 -1 0 0 -1 0 0 -1 0 0 -1 0 0 0 0 0 -1 -1 0 0 -1 0 0 0 0 0 -1 0 0 0 0 0 -1 0 0 0zm0 0c-5,0 -9,-4 -9,-8 0,-4 4,-8 9,-8l0 16z"/>
   </g>
   <path class="fil30 str4" d="M7671 2230c-47,-26 -243,-95 -244,-95 -45,-74 -36,-290 -36,-290l-160 0 -160 0c0,0 9,216 -37,290 0,0 -196,69 -243,95 -47,26 -78,55 -78,107 0,37 4,81 4,113l1028 0c0,-39 4,-76 4,-113 0,-52 -31,-81 -78,-107z"/>
   <path class="fil20 str4" d="M7514 1616c-11,-24 -27,-5 -33,9 4,-166 -57,-341 -251,-344l0 -1c-1,0 -2,0 -3,0 -1,0 -2,0 -3,0l0 1c-195,3 -255,177 -250,344 -8,-13 -25,-35 -37,-9 -14,32 27,138 49,115 6,33 14,63 24,90 60,166 186,209 214,214l6 0c27,-5 154,-48 213,-214 10,-26 18,-56 24,-88 22,16 62,-85 47,-117z"/>
   <path class="fil31 str4" d="M7765 2453c0,-40 4,-78 4,-115 0,-54 -32,-84 -80,-110 -48,-27 -249,-97 -249,-97 0,107 -200,118 -200,118 0,0 -212,-11 -212,-112 0,0 -190,64 -238,91 -48,26 -80,56 -80,110 0,37 4,82 4,115l1051 0z"/>
   <path class="fil31 str4" d="M7240 2249c0,0 192,-10 200,-112 0,0 0,0 0,0 0,0 12,-204 -47,-176 0,0 -75,73 -159,73 -84,0 -159,-73 -159,-73 -59,-28 -47,176 -47,176 0,101 212,112 212,112z"/>
   <path class="fil32 str4" d="M7045 2182c-3,-115 3,-158 9,-188 4,-17 15,-26 24,-30 3,2 6,5 10,9 -6,1 -19,6 -23,24 -7,29 -13,74 -8,196 -5,-4 -8,-7 -12,-11z"/>
   <path class="fil32 str4" d="M7101 2219c-4,-118 2,-162 9,-191 3,-14 10,-23 18,-28 3,3 7,5 11,7 -7,2 -15,8 -19,23 -7,29 -12,73 -8,193 -4,-1 -8,-2 -11,-4z"/>
   <path class="fil32 str4" d="M7161 2238c-3,-116 2,-159 9,-188 3,-11 8,-19 14,-24 4,1 9,3 14,4 -6,3 -14,9 -17,22 -7,29 -12,72 -9,188 -3,-1 -7,-2 -11,-2z"/>
   <path class="fil32 str4" d="M7423 2180c3,-113 -2,-156 -9,-186 -4,-17 -15,-26 -24,-30 -2,2 -6,5 -10,9 6,1 19,6 23,24 7,29 13,74 9,195 4,-4 8,-8 11,-12z"/>
   <path class="fil32 str4" d="M7368 2220c3,-119 -3,-163 -9,-192 -4,-14 -11,-23 -19,-28 -3,3 -7,5 -11,7 7,2 15,8 19,23 7,29 12,73 8,194 4,-1 8,-3 12,-4z"/>
   <path class="fil32 str4" d="M7307 2239c4,-116 -2,-160 -9,-189 -3,-11 -8,-19 -14,-24 -4,1 -9,3 -14,4 6,3 14,9 17,22 7,29 13,72 9,189 3,-1 7,-1 11,-2z"/>
   <path class="fil32 str4" d="M7228 2248l0 -214c2,0 4,0 6,0 2,0 4,0 6,0l0 215 0 0c0,0 -5,-1 -12,-1z"/>
   <path class="fil32 str4" d="M7240 2283c-208,0 -253,-102 -262,-129l11 -4c8,24 52,122 251,122 208,0 237,-107 240,-127l11 4c-6,26 -44,134 -251,134z"/>
   <path class="fil32 str4" d="M7241 2328c-235,0 -308,-101 -330,-150 5,-2 9,-3 14,-5 21,45 93,141 316,141 227,0 289,-99 305,-145 5,2 9,3 13,5 -19,50 -86,154 -318,154z"/>
   <path class="fil33 str4" d="M7379 1258c0,83 -68,151 -151,151 -84,0 -151,-68 -151,-151 0,-84 67,-152 151,-152 83,0 151,68 151,152z"/>
   <path class="fil29 str4" d="M7460 1676c-5,17 -21,73 -86,81 -47,6 -79,-14 -101,-64 -21,-46 -10,-67 5,-82 15,-15 46,-25 87,-25 37,0 75,8 82,14 25,18 17,58 13,76zm-275 17c-22,50 -54,70 -101,64 -65,-8 -82,-64 -86,-81 -4,-18 -12,-58 12,-76 8,-6 45,-14 82,-14 42,0 73,10 88,25 15,15 25,36 5,82zm273 -103c-12,-3 -53,-10 -91,-10 -45,0 -74,11 -88,22 -14,11 -14,21 -28,21 -9,0 -16,-1 -20,-1l-4 0c-5,0 -12,1 -20,1 -14,0 -14,-10 -28,-21 -14,-11 -44,-22 -89,-22 -38,0 -78,7 -91,10 -12,3 -25,4 -25,4l0 39 15 2c1,66 28,98 58,115 31,18 86,21 119,-16 32,-38 36,-90 37,-96 2,-4 16,-4 24,-3l4 0c7,-1 22,-1 23,3 2,6 5,58 38,96 33,37 88,34 118,16 31,-17 58,-49 58,-115l16 -2 0 -39c0,0 -13,-1 -26,-4z"/>
   <path class="fil29" d="M7196 1656l4 0c2,-9 3,-16 3,-18 1,-1 3,-2 6,-3l0 -4 -16 0c3,7 4,15 3,25z"/>
   <path class="fil29 str4" d="M7484 1625l0 -31c0,0 -13,-1 -26,-4 -12,-3 -53,-10 -91,-10 -45,0 -74,11 -88,22 -14,11 -14,21 -28,21 -9,0 -16,-1 -20,-1l-4 0c-5,0 -12,1 -20,1 -14,0 -14,-10 -28,-21 -14,-11 -44,-22 -89,-22 -38,0 -78,7 -91,10 -12,3 -25,4 -25,4l0 39 11 1 9 2c1,-13 5,-28 16,-36 8,-6 45,-14 82,-14 42,0 73,10 88,25 6,6 12,14 15,24 1,0 2,0 2,0 2,1 4,1 5,1 4,0 5,0 5,0l0 0c6,-2 14,-2 20,-1l4 0c6,-1 15,-1 20,1l12 0c2,-11 8,-19 15,-25 15,-15 46,-25 87,-25 37,0 75,8 82,14 12,8 16,22 17,35 0,0 4,0 4,0l16 -2 0 -8z"/>
   <path class="fil29" d="M7264 1631l-15 0 0 5c3,0 5,1 5,2 1,2 2,9 3,18l5 0c-1,-10 0,-18 2,-25z"/>
   <path class="fil33 str4" d="M6948 1605c0,0 -36,-337 285,-347 320,-11 271,347 271,347 0,0 -17,4 -21,25l-406 -149 -101 151c0,0 -6,-25 -28,-27z"/>
   <g>
    <path class="fil24" d="M7111 1642c-9,0 -17,8 -17,17 0,10 8,18 17,18 10,0 18,-8 18,-18 0,-9 -8,-17 -18,-17zm231 0c-10,0 -18,8 -18,17 0,10 8,18 18,18 9,0 17,-8 17,-18 0,-9 -8,-17 -17,-17z"/>
    <path id="1" class="fil25" d="M7111 1659l-35 0 0 0 0 -1 0 -2 1 -1 0 -2 0 -1 1 -2 0 -1 1 -2 0 -1 1 -2 1 -1 1 -1 1 -2 1 -1 1 -1 1 -1 1 -1 1 -1 1 -2 2 0 1 -1 2 -1 1 -1 2 -1 2 0 1 -1 2 0 2 -1 2 0 1 0 2 -1 2 0 0 32 0 0 0 0 1 0 0 0 0 0 0 -1 0 0 0 0 0 0 0 0 0 0 0 0 0 0 0 0 0 0 0 0 0 1 0 0 0 0 0 0 0 0 0 0 0 0 -1 0 0 0 0 0 0 1 0 0 0 0 0 0 0 0 0 0 0 0zm0 0c0,9 -8,16 -17,16 -10,0 -18,-7 -18,-16l35 0zm0 2l0 32 0 0 -2 0 -2 -1 -1 0 -2 0 -2 -1 -2 0 -1 -1 -2 0 -2 -1 -1 -1 -2 -1 -1 -1 -2 -1 -1 -1 -1 -1 -1 -1 -1 -1 -1 -1 -1 -1 -1 -2 -1 -1 -1 -1 -1 -2 0 -1 -1 -2 0 -1 -1 -2 0 -1 0 -2 -1 -1 0 -2 0 -2 35 0 0 1 0 0 0 0 0 0 0 0 0 1 0 0 0 0 1 0 0 0 0 0 0 0 0 0 0 0 0 0 0 1 0 0 0 0 0 0 0 0 0 0 0 0 0 0 0 0 0 0 0 0 0 -1 0 0 0 0 -1 0 0 0 0 0 0 0zm0 0c10,0 18,7 18,16 0,9 -8,16 -18,16l0 -32zm0 -2l35 0 0 0 0 2 0 2 0 1 0 2 -1 1 0 2 -1 1 0 2 -1 1 -1 2 0 1 -1 1 -1 2 -1 1 -1 1 -1 1 -1 1 -2 1 -1 1 -1 1 -2 1 -1 1 -2 1 -1 1 -2 0 -2 1 -2 0 -1 1 -2 0 -2 0 -2 1 -2 0 0 -32 0 0 0 0 0 0 0 0 0 0 0 1 0 0 0 0 -1 0 0 0 0 0 0 0 0 0 0 0 1 0 0 0 0 -1 0 0 0 0 0 0 0 0 0 0 0 0 0 0 0 0 0 0 0 -1 0 0 0 0 0 0 0 0 0 -1 0 0zm0 0c0,-8 8,-15 18,-15 9,0 17,7 17,15l-35 0zm0 -1l0 -32 0 0 2 0 2 1 2 0 2 0 1 1 2 0 2 1 2 0 1 1 2 1 1 1 2 1 1 0 1 2 2 1 1 1 1 1 1 1 1 1 1 2 1 1 0 1 1 2 1 1 0 2 1 1 0 2 1 1 0 2 0 1 0 2 0 1 -35 0 0 0 0 0 0 0 0 0 0 0 0 -1 0 0 0 0 0 0 0 0 0 0 0 0 0 0 0 0 0 0 0 -1 0 0 -1 0 0 0 0 0 0 0 0 0 0 0 1 0 0 0 0 0 0 1 0 0 0 0 0 0 0 0 0 0 0 0zm0 0c-9,0 -17,-7 -17,-16 0,-9 8,-16 17,-16l0 32zm231 1l-35 0 0 0 0 -1 0 -2 0 -1 0 -2 1 -1 0 -2 0 -1 1 -2 1 -1 0 -2 1 -1 1 -1 1 -2 1 -1 1 -1 1 -1 1 -1 2 -1 1 -2 1 0 2 -1 1 -1 2 -1 1 -1 2 0 2 -1 1 0 2 -1 2 0 2 0 2 -1 2 0 0 32 0 0 0 0 0 0 0 0 0 0 0 -1 0 0 0 0 0 0 0 0 0 0 0 0 0 0 0 0 0 0 0 0 0 1 0 0 0 0 0 0 0 0 0 0 0 0 0 0 0 0 0 0 0 1 0 0 0 0 0 0 0 0 0 0 0 0zm0 0c0,9 -8,16 -18,16 -10,0 -17,-7 -17,-16l35 0zm0 2l0 32 0 0 -2 0 -2 -1 -2 0 -2 0 -2 -1 -1 0 -2 -1 -2 0 -1 -1 -2 -1 -1 -1 -2 -1 -1 -1 -1 -1 -2 -1 -1 -1 -1 -1 -1 -1 -1 -1 -1 -2 -1 -1 -1 -1 0 -2 -1 -1 -1 -2 0 -1 0 -2 -1 -1 0 -2 0 -1 0 -2 0 -2 35 0 0 1 0 0 0 0 0 0 0 0 0 1 0 0 0 0 0 0 0 0 0 0 0 0 0 0 0 0 0 0 0 1 0 0 0 0 0 0 0 0 0 0 0 0 0 0 0 0 0 0 0 0 0 -1 0 0 0 0 0 0 0 0 0 0 0 0zm0 0c9,0 17,7 17,16 0,9 -8,16 -17,16l0 -32zm0 -2l35 0 0 0 0 2 -1 2 0 1 0 2 0 1 -1 2 0 1 -1 2 0 1 -1 2 -1 1 -1 1 -1 2 -1 1 -1 1 -1 1 -1 1 -1 1 -2 1 -1 1 -1 1 -2 1 -1 1 -2 1 -2 0 -1 1 -2 0 -2 1 -2 0 -2 0 -2 1 -1 0 0 -32 -1 0 0 0 0 0 0 0 0 0 0 1 0 0 0 0 0 0 0 0 0 0 0 0 0 0 0 0 0 0 0 0 0 -1 0 0 0 0 0 0 0 0 0 0 0 0 0 0 0 0 0 0 0 -1 1 0 0 0 0 0 0 0 0 -1 0 0zm0 0c0,-8 7,-15 17,-15 10,0 18,7 18,15l-35 0zm0 -1l0 -32 0 0 1 0 2 1 2 0 2 0 2 1 2 0 1 1 2 0 2 1 1 1 2 1 1 1 1 0 2 2 1 1 1 1 1 1 1 1 1 1 1 2 1 1 1 1 1 2 0 1 1 2 0 1 1 2 0 1 0 2 0 1 1 2 0 1 -35 0 0 0 0 0 0 0 0 0 -1 0 0 -1 0 0 0 0 0 0 0 0 0 0 0 0 0 0 0 0 0 0 0 -1 0 0 0 0 0 0 0 0 0 0 0 0 0 0 0 0 0 0 0 0 0 1 0 0 0 0 0 0 0 0 1 0 0 0zm0 0c-10,0 -18,-7 -18,-16 0,-9 8,-16 18,-16l0 32z"/>
   </g>
   <path class="fil34 str4" d="M5883 1614c3,2 6,4 10,7 0,0 0,1 0,1 -3,-2 -6,-5 -10,-8z"/>
   <path class="fil20 str4" d="M5679 2281c154,-23 253,-139 253,-139 48,-65 39,-288 39,-288l156 0 156 0c0,0 -9,223 39,288 0,0 99,116 253,139 0,0 20,5 -28,85 -24,40 -222,60 -420,60 -199,0 -396,-20 -420,-60 -49,-80 -28,-85 -28,-85z"/>
   <path class="fil35 str4" d="M6118 2347c0,7 5,12 11,12 7,0 12,-5 12,-12 0,-6 -5,-12 -12,-12 -6,0 -11,6 -11,12z"/>
   <path class="fil20 str4" d="M5834 1608c18,-5 32,7 39,14 0,-3 0,-5 0,-7 -5,-170 58,-348 256,-351l0 0c1,0 2,0 3,0 1,0 2,0 3,0l0 0c198,3 259,180 254,351 0,2 0,4 0,7 7,-7 21,-19 38,-14 37,11 22,144 -57,165 -5,35 -12,79 -17,93 -9,25 -89,115 -123,130 -35,16 -98,15 -98,15 0,0 -64,1 -98,-15 -34,-15 -115,-105 -124,-130 -5,-14 -12,-57 -17,-93l0 0c-80,-19 -90,-156 -59,-165z"/>
   <path class="fil36 str4" d="M6613 2455c0,-41 4,-80 4,-118 0,-55 -29,-85 -74,-113 -44,-27 -229,-98 -229,-98 -43,81 -186,80 -186,80 0,0 -142,1 -185,-80 0,0 -186,71 -230,98 -44,28 -74,58 -74,113 0,38 4,84 4,118l970 0z"/>
   <path class="fil37 str4" d="M5920 2135c-5,3 -11,6 -17,6 6,-2 12,-4 17,-6z"/>
   <path class="fil37 str4" d="M5697 2235c-4,16 -17,28 -32,29 9,-11 19,-20 32,-29z"/>
   <path class="fil37 str4" d="M5856 2226c0,21 -16,38 -35,38 -19,0 -34,-17 -34,-38 0,-21 15,-38 34,-38 19,0 35,17 35,38z"/>
   <path class="fil37 str4" d="M6013 2226c0,21 -15,38 -34,38 -19,0 -34,-17 -34,-38 0,-21 15,-38 34,-38 19,0 34,17 34,38z"/>
   <path class="fil37 str4" d="M6171 2226c0,21 -15,38 -34,38 -19,0 -34,-17 -34,-38 0,-8 2,-15 5,-21 13,1 20,1 20,1 0,0 15,0 37,-2 4,6 6,14 6,22z"/>
   <path class="fil37 str4" d="M6329 2226c0,21 -15,38 -34,38 -19,0 -34,-17 -34,-38 0,-21 15,-38 34,-38 19,0 34,17 34,38z"/>
   <path class="fil37 str4" d="M6487 2226c0,21 -15,38 -34,38 -19,0 -34,-17 -34,-38 0,-21 15,-38 34,-38 19,0 34,17 34,38z"/>
   <path class="fil37 str4" d="M5777 2348c0,21 -16,38 -35,38 -18,0 -34,-17 -34,-38 0,-21 16,-38 34,-38 19,0 35,17 35,38z"/>
   <path class="fil37 str4" d="M5935 2348c0,21 -16,38 -35,38 -19,0 -34,-17 -34,-38 0,-21 15,-38 34,-38 19,0 34,17 35,38z"/>
   <path class="fil37 str4" d="M6092 2348c0,21 -15,38 -34,38 -19,0 -34,-17 -34,-38 0,-21 15,-38 34,-38 19,0 34,17 34,38z"/>
   <path class="fil37 str4" d="M6250 2348c0,21 -15,38 -34,38 -19,0 -34,-17 -34,-38 0,-21 15,-38 34,-38 19,0 34,17 34,38z"/>
   <path class="fil37 str4" d="M6408 2348c0,21 -15,38 -34,38 -19,0 -34,-17 -34,-38 0,-21 15,-38 34,-38 19,0 34,17 34,38z"/>
   <path class="fil37 str4" d="M6566 2348c0,21 -15,38 -34,38 -19,0 -35,-17 -35,-38 0,-21 16,-38 35,-38 19,0 34,17 34,38z"/>
   <path class="fil37 str4" d="M5643 2440c6,-5 13,-8 21,-8 13,0 25,10 31,23l-52 0c0,-5 0,-10 0,-15z"/>
   <path class="fil37 str4" d="M5790 2455c6,-13 17,-23 31,-23 14,0 26,10 32,23l-63 0z"/>
   <path class="fil37 str4" d="M5948 2455c5,-13 17,-23 31,-23 14,0 26,10 31,23l-62 0z"/>
   <path class="fil37 str4" d="M6106 2455c5,-13 17,-23 31,-23 14,0 26,10 31,23l-62 0z"/>
   <path class="fil37 str4" d="M6264 2455c5,-13 17,-23 31,-23 14,0 26,10 31,23l-62 0z"/>
   <path class="fil37 str4" d="M6422 2455c5,-13 17,-23 31,-23 14,0 26,10 31,23l-62 0z"/>
   <path class="fil37 str4" d="M6579 2455c6,-13 18,-23 32,-23 1,0 2,1 3,1 0,7 -1,14 -1,22l-34 0z"/>
   <path class="fil38 str4" d="M6314 2125c-58,80 -186,81 -186,81 0,0 -127,-1 -185,-81l-68 27c0,0 47,128 253,128 207,0 253,-128 253,-128l-67 -27z"/>
   <path class="fil39 str4" d="M6332 1864c-12,18 -102,28 -115,37 -13,9 -39,32 -85,33 -46,-1 -72,-24 -85,-33 -14,-9 -103,-19 -115,-37 -12,-18 -38,-91 -38,-91 5,36 12,81 17,96 9,25 90,118 125,134 30,14 83,15 96,15 13,0 66,-1 96,-15 35,-16 116,-109 125,-134 5,-15 12,-60 17,-96 0,0 -26,73 -38,91z"/>
   <path class="fil39 str4" d="M5834 1608c0,0 -14,-254 44,-240 0,0 -4,-56 42,-83 47,-27 76,-65 76,-65 0,0 5,31 -28,52 0,0 40,-19 69,-58 0,0 -7,33 -30,50 1,0 52,-45 118,-56 0,0 -32,8 -53,39 0,0 68,-22 82,-44 0,0 -14,35 -46,43 0,0 65,-25 120,-29 0,0 -37,11 -60,26 0,0 61,-20 82,-27 0,0 100,45 145,153 45,108 32,239 32,239 0,0 -20,5 -36,20 0,0 -22,-46 -23,-64 -1,-26 -20,-100 -36,-125 -17,-25 -54,-64 -92,-55 -38,9 -102,14 -157,6 -56,-7 -107,-1 -120,22 0,0 -43,120 -55,141 -12,21 -18,44 -27,75 0,0 -29,-29 -47,-20z"/>
   <path class="fil40 str4" d="M6341 1691c-8,30 -26,38 -54,42 -27,4 -60,0 -75,-9 -16,-9 -31,-40 -29,-66 1,-27 16,-32 44,-38 28,-6 67,-8 92,-6 25,1 30,10 31,20 1,11 0,27 -9,57zm-282 33c-16,9 -48,13 -76,9 -28,-4 -45,-12 -54,-42 -8,-30 -10,-46 -9,-57 2,-10 7,-19 32,-20 25,-2 64,0 92,6 28,6 43,11 44,38 1,26 -13,57 -29,66zm247 -130c-51,0 -77,7 -100,12 -23,5 -48,14 -69,14 -22,0 -47,-9 -70,-14 -22,-5 -49,-12 -100,-12 -62,0 -93,6 -93,6l4 26c15,4 15,10 19,22 3,11 12,39 16,54 4,12 12,40 68,47 55,7 82,-2 96,-14 17,-14 33,-58 37,-76 4,-17 10,-14 10,-14l12 0 1 0 12 0c0,0 7,-3 11,14 3,18 19,62 36,76 14,12 41,21 96,14 56,-7 65,-35 68,-47 5,-15 13,-43 17,-54 3,-12 3,-18 18,-22l4 -26c0,0 -31,-6 -93,-6z"/>
   <path class="fil39 str4" d="M6274 1849c-37,2 -79,-24 -103,-30 -24,-7 -34,6 -34,6 0,0 -11,-13 -35,-6 -24,6 -66,32 -103,30 0,0 73,38 138,3 65,35 137,-3 137,-3z"/>
   <g>
    <path class="fil24" d="M6018 1659c-9,0 -17,8 -17,18 0,9 8,17 17,17 10,0 18,-8 18,-17 0,-10 -8,-18 -18,-18zm231 0c-10,0 -18,8 -18,18 0,9 8,17 18,17 9,0 17,-8 17,-17 0,-10 -8,-18 -17,-18z"/>
    <path id="1" class="fil25" d="M6018 1677l-35 0 0 0 0 -2 0 -1 0 -2 1 -2 0 -1 1 -2 0 -1 1 -2 0 -1 1 -1 1 -2 1 -1 1 -1 1 -2 1 -1 1 -1 1 -1 1 -1 1 -1 2 -1 1 -1 2 -1 1 -1 2 -1 1 0 2 -1 2 0 2 -1 2 0 1 0 2 0 2 0 0 31 0 0 0 0 0 0 1 0 0 0 0 0 0 0 0 0 0 0 0 0 0 0 0 0 0 0 0 0 0 0 0 0 0 0 0 0 0 0 0 0 0 0 0 0 -1 0 0 0 0 1 0 0 0 0 0 0 0 0 0 0 0 1 0 0 0 0zm0 0c0,8 -8,15 -17,15 -10,0 -18,-7 -18,-15l35 0zm0 2l0 31 0 0 -2 0 -2 0 -1 -1 -2 0 -2 0 -2 -1 -2 0 -1 -1 -2 -1 -1 -1 -2 0 -1 -1 -2 -1 -1 -1 -1 -1 -1 -2 -1 -1 -1 -1 -1 -1 -1 -1 -1 -2 -1 -1 -1 -2 0 -1 -1 -1 0 -2 -1 -1 0 -2 -1 -2 0 -1 0 -2 0 -1 35 0 0 0 0 0 0 0 0 0 0 1 0 0 0 0 0 0 0 0 1 0 0 0 0 0 0 1 0 0 0 0 0 0 0 0 0 0 0 0 0 0 0 0 0 0 0 0 0 0 0 0 0 0 0 0 0 0 -1 0 0 0 0 0 0 0 0 0zm0 0c10,0 18,7 18,15 0,9 -8,16 -18,16l0 -31zm0 -2l35 0 0 0 0 1 0 2 0 1 0 2 -1 2 0 1 -1 2 0 1 -1 1 -1 2 0 1 -1 2 -1 1 -1 1 -1 1 -1 1 -1 2 -2 1 -1 1 -1 1 -2 1 -1 0 -2 1 -1 1 -2 1 -2 0 -2 1 -1 0 -2 0 -2 1 -2 0 -2 0 0 -31 0 0 0 0 0 0 0 0 0 0 0 0 0 0 -1 0 0 0 0 0 0 0 0 0 0 0 0 0 0 0 0 0 1 0 0 0 0 0 0 -1 0 0 0 0 0 0 0 0 0 0 0 0 0 0 0 -1 0 0 0 0 0 0 0 0 0 0zm0 0c0,-9 8,-16 18,-16 9,0 17,7 17,16l-35 0zm0 -2l0 -31 0 0 2 0 2 0 2 0 2 0 1 1 2 0 2 1 2 0 1 1 2 1 1 1 2 1 1 1 1 1 2 1 1 1 1 1 1 1 1 2 1 1 1 1 0 2 1 1 1 1 0 2 1 1 0 2 1 1 0 2 0 2 0 1 0 2 -35 0 0 0 0 -1 0 0 0 0 0 0 0 0 0 0 0 -1 0 0 0 0 0 0 0 0 0 0 0 0 0 0 -1 0 0 0 0 0 0 0 0 0 0 0 0 0 0 0 1 0 0 0 0 0 0 0 0 0 0 0 0 0 0 0 0 0 0 0zm0 0c-9,0 -17,-7 -17,-16 0,-8 8,-15 17,-15l0 31zm231 2l-36 0 0 0 1 -2 0 -1 0 -2 0 -2 0 -1 1 -2 0 -1 1 -2 1 -1 0 -1 1 -2 1 -1 1 -1 1 -2 1 -1 1 -1 1 -1 1 -1 2 -1 1 -1 2 -1 1 -1 2 -1 1 -1 2 0 2 -1 1 0 2 -1 2 0 2 0 2 0 2 0 0 31 0 0 0 0 0 0 0 0 0 0 0 0 0 0 0 0 0 0 0 0 0 0 0 0 0 0 0 0 0 0 0 0 0 0 0 0 0 0 0 0 0 0 0 0 0 0 0 0 0 1 0 0 0 0 0 0 0 0 0 0 0 1 0 0 0 0zm0 0c0,8 -8,15 -18,15 -10,0 -18,-7 -18,-15l36 0zm0 2l0 31 0 0 -2 0 -2 0 -2 -1 -2 0 -2 0 -1 -1 -2 0 -2 -1 -1 -1 -2 -1 -1 0 -2 -1 -1 -1 -2 -1 -1 -1 -1 -2 -1 -1 -1 -1 -1 -1 -1 -1 -1 -2 -1 -1 0 -2 -1 -1 -1 -1 0 -2 -1 -1 0 -2 0 -2 0 -1 0 -2 -1 -1 36 0 0 0 0 0 0 0 0 0 0 1 0 0 0 0 0 0 0 0 0 0 0 0 0 0 0 1 0 0 0 0 0 0 0 0 0 0 0 0 0 0 0 0 0 0 0 0 0 0 0 0 0 0 0 0 0 0 0 0 0 0 0 0 0 0 0 0zm0 0c9,0 17,7 17,15 0,9 -8,16 -17,16l0 -31zm0 -2l35 0 0 0 0 1 -1 2 0 1 0 2 0 2 -1 1 0 2 -1 1 -1 1 0 2 -1 1 -1 2 -1 1 -1 1 -1 1 -1 1 -1 2 -1 1 -2 1 -1 1 -1 1 -2 0 -2 1 -1 1 -2 1 -1 0 -2 1 -2 0 -2 0 -2 1 -2 0 -1 0 0 -31 -1 0 0 0 0 0 0 0 0 0 0 0 0 0 0 0 0 0 0 0 0 0 0 0 0 0 0 0 0 0 0 0 0 0 0 0 0 0 0 -1 0 0 0 0 0 0 0 0 0 0 0 0 0 0 0 -1 0 0 1 0 0 0 0 0 0 0zm0 0c0,-9 7,-16 17,-16 10,0 18,7 18,16l-35 0zm0 -2l0 -31 0 0 1 0 2 0 2 0 2 0 2 1 2 0 1 1 2 0 1 1 2 1 2 1 1 1 1 1 2 1 1 1 1 1 1 1 1 1 1 2 1 1 1 1 1 2 0 1 1 1 1 2 0 1 1 2 0 1 0 2 0 2 1 1 0 2 -35 0 0 0 0 -1 -1 0 0 0 0 0 0 0 0 0 0 -1 0 0 0 0 0 0 0 0 0 0 0 0 0 0 0 0 0 0 0 0 0 0 0 0 0 0 0 0 0 0 0 0 0 0 0 0 0 0 0 0 0 0 0 0 0 0 1 0 0 0zm0 0c-10,0 -18,-7 -18,-16 0,-8 8,-15 18,-15l0 31z"/>
   </g>
  </g>
 </g>
</svg>
