<?xml version="1.0" encoding="UTF-8"?>
<!DOCTYPE svg PUBLIC "-//W3C//DTD SVG 1.0//EN" "http://www.w3.org/TR/2001/REC-SVG-20010904/DTD/svg10.dtd">
<!-- Creator: CorelDRAW X7 -->
<svg xmlns="http://www.w3.org/2000/svg" xml:space="preserve" width="115.711mm" height="70.5555mm" version="1.0" style="shape-rendering:geometricPrecision; text-rendering:geometricPrecision; image-rendering:optimizeQuality; fill-rule:evenodd; clip-rule:evenodd"
viewBox="0 0 11571 7056"
 xmlns:xlink="http://www.w3.org/1999/xlink">
 <defs>
  <style type="text/css">
   <![CDATA[
    .str0 {stroke:#024541;stroke-width:52.9166;stroke-linecap:round;stroke-linejoin:round}
    .str3 {stroke:#024541;stroke-width:39.885;stroke-linecap:round;stroke-linejoin:round}
    .str2 {stroke:#024541;stroke-width:50.3872;stroke-linecap:round;stroke-linejoin:round}
    .str1 {stroke:#024541;stroke-width:50.3872;stroke-linecap:round;stroke-linejoin:round}
    .fil5 {fill:none}
    .fil4 {fill:#FEFEFE}
    .fil2 {fill:#A75F4A}
    .fil7 {fill:#CC6F3C}
    .fil1 {fill:#B7B0A7}
    .fil8 {fill:#024541}
    .fil9 {fill:#00315E}
    .fil23 {fill:#2B5E93}
    .fil11 {fill:#2E99A3}
    .fil18 {fill:#314C6F}
    .fil24 {fill:#383535}
    .fil12 {fill:#4825E4}
    .fil16 {fill:#4C4C4B}
    .fil26 {fill:#4F6E91}
    .fil21 {fill:#5A6470}
    .fil25 {fill:#62615D}
    .fil27 {fill:#675839}
    .fil20 {fill:#6C768A}
    .fil22 {fill:#746B59}
    .fil15 {fill:#8C8B90}
    .fil17 {fill:#A19E99}
    .fil13 {fill:#ABABB4}
    .fil14 {fill:#CDF5FC}
    .fil19 {fill:#ED5A51}
    .fil28 {fill:#F7EFEF}
    .fil6 {fill:#FFCA9C}
    .fil10 {fill:#4D897C;fill-rule:nonzero}
    .fil3 {fill:#024541;fill-rule:nonzero}
    .fil0 {fill:url(#id0)}
   ]]>
  </style>
  <radialGradient id="id0" gradientUnits="userSpaceOnUse" gradientTransform="matrix(1.17124 -0 -0 1.92083 -991 -3248)" cx="5785.55" cy="3527.77" r="3527.77" fx="5785.55" fy="3527.77">
   <stop offset="0" style="stop-opacity:1; stop-color:#FEFEFE"/>
   <stop offset="0.439216" style="stop-opacity:1; stop-color:#FEFEFE"/>
   <stop offset="1" style="stop-opacity:1; stop-color:#D1E2F2"/>
  </radialGradient>
 </defs>
 <g id="Layer_x0020_1">
  <metadata id="CorelCorpID_0Corel-Layer"/>
  <path class="fil0" d="M0 0l11571 0 0 7056 -11571 0 0 -7056z"/>
  <g id="_83256951024">
   <path class="fil1 str0" d="M4524 1387l0 261c0,109 -87,195 -193,195l-399 0 0 451 0 0 -916 0 0 -518c0,-108 87,-197 194,-197l155 0 212 507 212 -507 113 0 102 0c47,0 77,21 101,52 32,40 171,-35 171,26l0 -270 248 0z"/>
   <path class="fil1 str1" d="M3577 2126l-146 -148 0 -100 -120 -89 26 -210 28 0 212 507 212 -507 28 0 25 210 -119 89 0 100 -146 148z"/>
   <path class="fil2 str1" d="M3640 1935l-63 151 -65 -154 31 -207 34 0 34 0 29 210z"/>
   <g>
    <path class="fil2" d="M3643 1634l-133 0 33 91 34 0 34 0 32 -91z"/>
    <path id="1" class="fil3" d="M3510 1609l133 0 0 50 -133 0 -24 -16 24 -34zm0 50c-14,0 -25,-11 -25,-25 0,-14 11,-25 25,-25l0 50zm9 74l-33 -90 48 -17 33 90 -24 33 -24 -16zm48 -17c4,13 -3,27 -16,32 -13,5 -27,-2 -32,-15l48 -17zm10 33l-34 0 0 -49 34 0 0 0 0 49zm0 -49c14,0 25,11 25,25 0,13 -11,24 -25,24l0 -49zm34 49l-34 0 0 -49 34 0 23 33 -23 16zm0 -49c14,0 25,11 25,25 0,13 -11,24 -25,24l0 -49zm56 -57l-33 90 -47 -17 33 -90 23 -17 24 34zm-47 -17c4,-13 19,-20 32,-15 13,4 20,19 15,32l-47 -17z"/>
   </g>
   <path class="fil4 str1" d="M3365 1579l127 157 37 -51 -19 -51 -97 -129 -48 74z"/>
   <path class="fil5 str2" d="M3230 1992l0 302"/>
   <path class="fil5 str1" d="M3577 2086l0 208"/>
   <path class="fil6 str2" d="M3577 1494c73,1 328,-103 328,-274l0 -196c-44,-103 -13,-168 -67,-226 -52,22 -108,20 -167,2 -58,125 -274,70 -356,-2 -53,58 -23,123 -66,226l0 196c0,171 255,275 328,274z"/>
   <path class="fil6 str2" d="M3643 1634l45 -58 0 -112c-46,20 -88,30 -111,30 -23,0 -65,-10 -111,-30l0 112 44 58 133 0z"/>
   <path class="fil4 str1" d="M3789 1579l-128 157 -36 -51 18 -51 98 -129 48 74z"/>
   <path class="fil7 str2" d="M3577 510c-19,-4 -38,-6 -58,-6l0 0c-179,0 -325,146 -325,325l0 218c14,-14 33,-23 55,-23 43,-103 13,-168 66,-226 80,69 298,127 356,2 59,18 115,20 167,-2 54,58 23,123 67,226 22,0 41,9 54,23l0 -218c0,-179 -146,-325 -324,-325l0 0c-20,0 -39,2 -58,6zm-377 632c9,47 29,91 56,129 -5,-16 -7,-33 -7,-51l0 -60c-19,0 -36,-7 -49,-18zm705 18l0 60c0,18 -3,35 -8,51 28,-38 47,-82 56,-129 -12,11 -29,18 -48,18z"/>
   <path class="fil4 str2" d="M3466 1497l0 79 -53 -71 53 -8z"/>
   <path class="fil4 str2" d="M3688 1497l0 79 53 -71 -53 -8z"/>
   <path class="fil4 str2" d="M3648 2079l189 0 0 109 -189 0 0 -109z"/>
   <path class="fil8 str3" d="M3728 1054c-12,0 -23,10 -23,22 0,13 11,23 23,23 13,0 23,-10 23,-23 0,-12 -10,-22 -23,-22zm-303 0c13,0 23,10 23,22 0,13 -10,23 -23,23 -12,0 -23,-10 -23,-23 0,-12 11,-22 23,-22z"/>
   <path class="fil4 str2" d="M3177 1092c0,-38 32,-68 72,-68l0 68 0 68c-40,0 -72,-31 -72,-68zm800 0c0,-38 -32,-68 -72,-68l0 68 0 68c40,0 72,-31 72,-68z"/>
   <path class="fil9 str2" d="M3626 1369c-12,14 -33,23 -56,23 -37,0 -67,-23 -67,-52 0,-10 4,-20 11,-28 27,28 66,49 112,57z"/>
   <path class="fil7 str2" d="M3453 1270c81,-46 161,-40 240,0 0,10 0,21 0,31 0,26 0,4 0,29 -80,0 -160,0 -240,0 0,-36 0,-24 0,-60z"/>
   <g>
    <path class="fil10" d="M2900 2319c-8,0 -15,-11 -15,-24 0,-14 7,-25 15,-25l0 49zm1478 0l-1478 0 0 -49 1478 0 0 49zm0 -49c8,0 14,11 14,25 0,13 -6,24 -14,24l0 -49z"/>
   </g>
   <path class="fil6 str2" d="M2900 2294l328 0c0,-16 0,-37 0,-52 0,-74 -34,-115 -84,-129 -31,-8 -80,-8 -108,9 -21,13 -38,34 -37,50 -34,-41 -100,-3 -100,67 0,10 1,38 1,55z"/>
   <g>
    <path class="fil6" d="M4421 1101l0 -119c90,-29 106,30 106,74l0 267c0,73 16,115 -78,113 -9,0 -44,0 -53,0 -82,0 -147,2 -147,-111 0,-27 0,-144 1,-146 12,-73 80,-78 171,-78z"/>
    <path id="1" class="fil3" d="M4446 982l0 119 -51 0 0 -119 18 -24 33 24zm-51 0c0,-14 12,-25 26,-25 14,0 25,11 25,25l-51 0zm157 74l-50 0 0 0 0 -4 0 -3 -1 -4 0 -4 0 -3 -1 -4 -1 -3 0 -3 -1 -3 -1 -3 -1 -3 -1 -3 -2 -2 -1 -2 -1 -2 -2 -2 -1 -1 -2 -2 -2 -1 -2 -1 -2 -1 -2 -1 -3 -1 -3 0 -4 -1 -4 0 -5 0 -5 0 -5 1 -7 1 -6 2 -8 2 -15 -47 9 -3 9 -2 9 -2 8 -1 9 -1 7 0 8 1 7 1 8 1 6 2 7 2 6 3 6 4 5 3 5 5 5 4 4 5 3 5 3 5 3 5 2 5 3 5 1 5 2 6 1 5 1 5 1 5 0 5 1 5 0 5 0 5 0 5 0 0zm0 0c0,13 -11,24 -25,24 -14,0 -25,-11 -25,-24l50 0zm-50 267l0 -267 50 0 1 267 0 0 -51 0zm51 0c0,13 -12,24 -26,24 -14,0 -25,-11 -25,-24l51 0zm-104 138l1 -50 0 0 7 0 7 0 7 0 5 -1 5 -1 4 0 4 -1 2 -1 2 -1 2 -1 1 -1 1 -1 1 -1 1 -1 0 -1 1 -2 1 -1 0 -3 1 -2 0 -4 1 -3 0 -4 0 -5 0 -4 0 -5 0 -6 0 -6 0 -6 -1 -6 0 -6 0 -7 0 -7 51 0 0 6 0 7 0 6 0 6 0 6 1 6 0 6 0 6 0 5 -1 6 0 6 0 5 -1 6 -1 5 -2 6 -2 6 -2 5 -4 6 -3 5 -5 5 -5 4 -5 4 -6 3 -6 3 -7 3 -6 2 -8 1 -7 1 -8 1 -8 1 -9 0 -9 0 0 0zm0 0c-14,0 -25,-12 -25,-25 0,-14 12,-25 26,-25l-1 50zm-53 0l0 -50 0 0 1 0 1 0 1 0 2 0 1 0 2 0 1 0 2 0 2 0 2 0 1 0 2 0 2 0 2 0 2 0 3 0 2 0 2 0 2 0 2 0 2 0 2 0 1 0 2 0 2 0 2 0 1 0 2 0 1 0 1 0 2 0 1 0 -1 50 -1 0 -1 0 -1 0 -2 0 -1 0 -2 0 -1 0 -2 0 -2 0 -2 0 -1 0 -2 0 -2 0 -2 0 -2 0 -2 0 -3 0 -2 0 -2 0 -2 0 -2 0 -1 0 -2 0 -2 0 -2 0 -1 0 -2 0 -1 0 -2 0 -1 0 -1 0 -1 0 0 0zm0 0c-14,0 -25,-11 -25,-25 0,-13 11,-25 25,-25l0 50zm-172 -136l51 0 0 0 0 9 0 9 1 7 1 8 2 6 1 6 2 5 2 4 2 4 2 4 2 3 3 3 2 2 3 2 3 2 3 2 4 2 3 1 4 1 5 2 5 1 5 1 5 0 6 1 6 0 6 1 7 0 7 0 7 0 7 0 7 0 8 0 0 50 -7 0 -8 0 -8 0 -7 0 -8 0 -7 -1 -7 0 -8 -1 -7 0 -7 -1 -7 -2 -7 -1 -7 -2 -7 -2 -7 -3 -7 -3 -6 -4 -7 -4 -5 -5 -6 -5 -5 -6 -5 -7 -4 -7 -4 -7 -3 -8 -3 -8 -3 -9 -2 -9 -1 -9 -1 -11 -1 -10 0 -11 0 0zm0 0c0,-14 12,-25 26,-25 13,0 25,11 25,25l-51 0zm1 -150l49 8 0 0 1 -3 0 1 0 2 0 2 0 3 0 3 0 4 0 4 0 4 0 5 0 5 0 6 0 5 0 6 0 6 0 6 0 7 0 6 0 6 0 6 0 6 0 6 0 6 0 6 0 5 0 5 0 5 0 5 0 4 0 4 0 3 0 3 -51 0 0 -3 0 -3 0 -4 0 -4 0 -5 0 -5 0 -5 0 -5 0 -6 0 -6 0 -6 0 -6 0 -6 0 -6 0 -6 0 -7 0 -6 0 -6 0 -6 0 -5 0 -6 0 -5 0 -5 0 -4 0 -4 0 -4 0 -4 0 -2 0 -3 0 -2 0 -1 1 -4 0 0zm0 0c2,-14 15,-23 29,-20 14,2 23,15 20,28l-49 -8zm170 -74l51 0 -25 25 -8 0 -9 0 -8 0 -7 0 -8 0 -7 1 -7 0 -7 1 -7 0 -6 1 -6 1 -6 1 -6 1 -5 1 -5 2 -5 1 -4 2 -4 2 -4 1 -3 2 -3 3 -3 2 -3 2 -2 3 -2 2 -2 3 -2 3 -2 4 -2 4 -1 4 -1 5 -2 5 -49 -8 1 -8 2 -8 3 -7 3 -7 3 -7 4 -6 4 -6 5 -6 5 -5 5 -5 6 -4 6 -4 6 -4 6 -3 7 -3 6 -2 7 -3 7 -2 7 -1 7 -2 8 -1 7 -1 8 -1 7 -1 8 0 8 -1 8 0 8 0 8 -1 9 0 8 0 8 0 -25 25zm25 -25c14,0 26,11 26,25 0,13 -11,24 -25,25l-1 -50z"/>
   </g>
  </g>
  <path class="fil11" d="M4847 3352c-26,16 -49,12 -82,17 21,11 14,18 16,54l1 224c1,104 6,202 10,305 7,192 2,405 0,599 -2,197 -3,402 -11,598l-5 528c1,23 0,50 16,64 56,28 1475,122 1686,136l1690 116c29,-3 11,-199 11,-235 0,-84 2,-170 3,-254l-1 -1025c0,-173 8,-356 4,-527l4 -732c-300,-11 -619,40 -921,36 -14,-18 -12,12 -10,-39 1,-36 4,-51 -8,-80 -15,-40 -4,23 -15,-38l-3 -210 -54 2 -1 242 -113 2 -2 -238 -55 0 -2 291 202 -2c4,33 7,53 22,73 -112,0 -195,8 -306,9 -102,1 -203,5 -304,8 -204,7 -1720,87 -1772,76z"/>
  <path class="fil12" d="M5827 789l-149 140c-30,52 -81,104 -118,167 -36,61 -66,117 -93,191 -75,200 -56,281 -66,499 37,52 9,230 232,483l42 39c105,89 82,67 193,131 33,19 76,39 117,36l-24 -126c-6,-20 -2,-13 -12,-27 -42,14 -11,-16 -42,39 -12,20 -4,41 -25,25l11 -47c1,-11 -11,-1 8,-16l40 -22 -3 -35 -35 -17c-128,-58 -240,-202 -295,-350 -191,-513 240,-1097 694,-1122 269,-22 407,48 574,207 15,14 63,81 81,113 301,541 -148,1240 -723,1238 -57,13 -56,40 -102,75 -32,24 -79,51 -90,81l12 6c218,88 611,-46 809,-218 70,-61 131,-127 179,-196 203,-290 267,-688 118,-1016 -20,-44 -54,-90 -65,-127 -49,-66 -86,-108 -140,-155 -31,-27 -50,-45 -85,-68 -25,-17 -69,-37 -89,-55 -175,-44 -264,-110 -522,-62 -87,15 -157,39 -231,73 -118,54 -131,80 -201,116z"/>
  <path class="fil13" d="M6806 3289l10 1115 780 5 -6 -1151 -784 31z"/>
  <path class="fil13" d="M5590 3353c-28,105 -5,878 -1,1044l702 4 -5 -1090c-109,2 -635,8 -696,42z"/>
  <path class="fil14" d="M5855 1971c19,-24 -3,-75 -8,-122l-5 -428 254 -47c-42,-195 -123,-150 53,-358 36,-43 78,-91 116,-127 23,-23 42,-36 66,-56 129,-110 147,60 147,62 -3,17 -57,65 -74,79 15,77 136,245 192,309 -17,37 6,-5 -26,31l-9 10c182,45 160,51 165,234 12,460 58,350 -104,479 -39,32 -78,61 -121,93 -46,34 -204,168 -242,178l-25 27c575,2 1024,-697 723,-1238 -18,-32 -66,-99 -81,-113 -167,-159 -305,-229 -574,-207 -32,21 -131,53 -175,76 -286,149 -468,462 -424,788 22,163 75,231 152,330z"/>
  <path class="fil15" d="M8168 5993c-36,21 -546,-18 -624,-22 -188,-8 -480,-47 -638,-49 -187,-3 -559,-46 -804,-60l-324 -20c-56,-1 -111,-10 -173,-12 47,45 13,23 69,31 59,8 116,14 165,7 5,-1 36,-8 39,-9l0 51c38,1 32,0 61,10 14,39 10,61 10,112l-59 26c23,11 25,37 29,38l54 15 1015 95 1203 109c0,-97 -17,-365 -9,-445 7,-61 25,-80 15,-146l14 -595c8,-205 -9,-392 -4,-589 0,-32 13,-520 3,-548 -13,-40 7,-14 -25,-40 4,171 -4,354 -4,527l1 1025c-1,84 -3,170 -3,254 0,36 18,232 -11,235z"/>
  <path class="fil16" d="M6234 2335l25 -27c18,-71 131,-137 190,-180 62,-46 142,-103 198,-155l-373 208c-99,43 -159,-17 -294,-25l-1 144c-20,-32 -17,-62 -42,-95l1 61 3 35 -40 22c-19,15 -7,5 -8,16l-11 47c21,16 13,-5 25,-25 31,-55 0,-25 42,-39 10,14 6,7 12,27l24 126c-41,3 -84,-17 -117,-36 -111,-64 -88,-42 -193,-131l-42 -39c-223,-253 -195,-431 -232,-483 -24,121 13,260 23,380 6,69 51,148 89,225l36 73c25,30 74,48 117,96l256 170c76,29 53,52 98,112 62,1 68,-29 116,-43 99,-30 142,36 436,-62 52,-17 73,-32 114,-49 154,-64 127,-69 241,-173 21,-18 36,-24 53,-39 37,-35 108,-138 136,-188l109 -226c49,-147 89,-413 80,-606 -15,-111 -26,-204 -68,-295 -29,-63 -97,-191 -142,-221 11,37 45,83 65,127 149,328 85,726 -118,1016 -48,69 -109,135 -179,196 -198,172 -591,306 -809,218l-12 -6c11,-30 58,-57 90,-81 46,-35 45,-62 102,-75z"/>
  <path class="fil17" d="M4814 3389c12,160 -1,341 -5,502 -4,173 17,330 9,509l652 2 -6 -1049 -650 36z"/>
  <path class="fil13" d="M6096 1374c43,1 24,-1 18,23 -9,33 13,6 -34,23 -23,8 -50,3 -60,26 73,0 274,-47 352,-49 82,-1 -34,18 115,18 -10,140 22,8 20,162l-10 203c0,-70 7,-226 -10,-274l-345 51 -1 306c3,62 16,47 21,90l172 1c17,-4 106,-38 143,-21 -32,11 -30,10 -72,10 -4,39 -30,65 -59,92l-54 32c-35,17 2,14 -49,18l0 71c50,4 24,-11 31,25l373 -208c-56,52 -136,109 -198,155 -59,43 -172,109 -190,180 38,-10 196,-144 242,-178 43,-32 82,-61 121,-93 162,-129 116,-19 104,-479 -5,-183 17,-189 -165,-234l9 -10c32,-36 9,6 26,-31 -56,-64 -177,-232 -192,-309 17,-14 71,-62 74,-79 0,-2 -18,-172 -147,-62 -24,20 -43,33 -66,56 -38,36 -80,84 -116,127 -176,208 -95,163 -53,358z"/>
  <path class="fil18" d="M5579 5367c6,49 55,37 136,45l133 8c1,0 21,-1 48,19 -41,4 -38,-4 -58,18 -60,64 -37,-11 -68,55 -7,16 -8,31 -4,43 -9,3 -19,7 -27,10 -3,1 -12,5 -15,6l-60 26c-1,0 -5,1 -7,1l-12 63c-54,13 -70,-1 -102,5l-8 21c40,16 266,30 393,31 90,1 220,32 315,33 -33,-107 13,-81 -17,-205l-49 -1c11,-25 -9,1 19,-13l21 -9c21,-10 20,-35 142,-15 56,10 20,-8 46,25 15,-28 14,-27 6,-61 -106,-11 -227,-24 -325,-14l-165 -25c72,-52 347,47 491,14 4,-40 12,-197 -3,-235 -15,-40 6,2 -15,-21l-29 -32c-2,3 -5,4 -6,10 -1,4 -10,13 -12,15 -19,21 19,-1 -12,10 -1,-7 -4,-26 -11,-42 -83,-2 -143,3 -223,-4 -83,-8 -56,17 -203,-7 -40,65 23,56 -49,64 2,-2 6,-7 7,-5 0,0 21,-7 21,-41 -6,-5 -6,-22 -41,-16 -29,5 -22,22 -25,47 -19,-21 -16,-11 -24,-44 -44,2 -64,-6 -112,-11 7,14 7,31 17,52 17,35 56,77 3,186l-116 -6z"/>
  <path class="fil13" d="M5855 1971c17,32 -4,-7 14,20 31,44 57,187 66,246 -18,16 28,25 -32,12l35 17 -1 -61c25,33 22,63 42,95l1 -144c135,8 195,68 294,25 -7,-36 19,-21 -31,-25l0 -71c51,-4 14,-1 49,-18l54 -32c29,-27 55,-53 59,-92 42,0 40,1 72,-10 -37,-17 -126,17 -143,21l-172 -1c-5,-43 -18,-28 -21,-90l1 -306 345 -51c17,48 10,204 10,274l10 -203c2,-154 -30,-22 -20,-162 -149,0 -33,-19 -115,-18 -78,2 -279,49 -352,49 10,-23 37,-18 60,-26 47,-17 25,10 34,-23 6,-24 25,-22 -18,-23l-254 47 5 428c5,47 27,98 8,122z"/>
  <path class="fil19" d="M5903 2249c60,13 14,4 32,-12 -9,-59 -35,-202 -66,-246 -18,-27 3,12 -14,-20 -77,-99 -130,-167 -152,-330 -44,-326 138,-639 424,-788 44,-23 143,-55 175,-76 -454,25 -885,609 -694,1122 55,148 167,292 295,350z"/>
  <path class="fil20" d="M7725 3984c-3,-1 -7,-5 -8,-3l-33 -18c-29,58 -46,36 -54,40l0 298c17,13 9,12 63,14l472 -5c24,-60 11,-229 15,-307l-90 -6c-1,-96 2,-29 -20,-51l-345 19c0,28 18,-15 0,19z"/>
  <path class="fil20" d="M7578 5174l461 22c35,-15 -2,-6 30,-23 25,-13 21,0 51,-24l6 -294c-8,-3 4,33 -51,-14 -14,-13 -96,-1 -112,4 -2,0 -5,2 -7,2 -43,11 -20,7 -49,-14 -3,46 8,37 -20,49 -26,-12 -12,5 -15,-53l-11 19c-22,32 -2,41 -45,32 -19,-4 -12,-5 -30,-43 -10,18 -9,30 -18,50 -19,-22 -3,-31 -25,-50 -10,-10 -153,-37 -166,37 0,0 -9,273 1,300z"/>
  <path class="fil20" d="M7611 4776l8 -39 32 42 2 -52c68,14 307,77 357,70 67,-10 -2,-20 44,-11 14,3 -3,14 56,16 2,-3 4,-10 4,-9l8 -161c1,-58 0,-127 5,-182 -99,-18 -337,-12 -443,-4 -113,9 -112,-8 -106,248 2,80 14,22 33,82z"/>
  <path class="fil21" d="M7013 4439c-7,46 -3,131 8,163 40,-6 15,1 34,-32 1,-2 4,-12 6,-15 32,22 33,16 19,40 -1,1 -3,3 -4,5l-12 17c-1,2 -12,16 -13,18l-45 37c42,-6 23,-9 42,19 19,-8 17,-20 29,-23l-31 68c-43,38 -40,-27 -25,48 64,19 166,2 221,-8 -15,-33 3,-6 -14,-19l-7 -4c0,0 -2,1 -3,0 22,-13 14,-17 32,-18 49,-3 17,6 25,20 20,35 -33,48 166,49 41,1 67,4 92,-20 -20,-38 5,-4 -47,-31 5,-34 8,-24 18,-48 0,-2 1,-5 2,-7l29 -56c-14,-41 -10,-69 -4,-112 -22,-9 -22,27 -4,-43 7,-27 7,-17 5,-46 -103,-7 -438,-21 -519,-2z"/>
  <path class="fil22" d="M7011 4824c-5,64 -14,47 41,54 -34,18 -53,-15 -32,54l29 -25c2,-1 4,-5 6,-7 2,3 3,4 4,8 1,4 3,6 4,7 18,21 9,14 15,-1 16,-38 -22,-26 42,-31l-14 21c-11,25 -4,38 0,75l-58 35c-11,-34 -15,-26 -30,-56l-6 207c143,16 122,18 130,-25 46,47 41,27 177,38 77,7 141,12 222,12l-3 -119c-74,93 -50,21 -94,50 -2,-34 -2,-15 5,-35l15 -32 -45 -13c-1,0 -3,-2 -3,-2l-6 -30c37,6 29,0 61,12l68 27c-7,-102 -35,-23 -5,-122 11,-35 7,-66 1,-104 -105,5 -455,-25 -524,2z"/>
  <path class="fil20" d="M6482 4879l61 22c-19,36 5,16 -50,30 14,50 -19,129 -9,208l497 29c-16,-19 -6,-15 -33,-29 -3,-1 -11,-4 -13,-4 -51,-9 -11,3 -12,4 1,-1 4,0 14,-5l31 -19c11,-13 36,-103 -29,-179l22 -69c0,2 2,5 3,7 17,-26 13,-20 9,-59 -30,0 -60,-3 -91,-4 -35,-1 -61,-4 -87,13 -2,80 -20,38 48,54 41,9 44,2 47,48 -17,-1 3,-7 -26,3 -3,1 -11,4 -14,5l-13 7c-2,1 -4,3 -6,3 -20,8 -48,7 -75,-3 3,-61 30,-33 32,-133l-103 1c2,71 -4,162 3,229l-33 0c-3,0 -10,2 -12,2 -36,3 -21,-3 -60,-17 18,-8 -2,-7 34,2l-11 -69c25,-8 3,14 27,0 -20,-70 -34,32 -27,-61 18,-14 22,-26 58,-3l14 11c2,2 5,4 8,6 -4,-123 -12,-100 -57,-104 -44,-5 -99,-7 -137,-4l-10 78z"/>
  <path class="fil15" d="M6317 3548l4 327 470 2c-24,-77 0,6 -61,-86l-50 13c28,-51 28,16 28,-53l-61 35c-49,35 6,31 -42,24l17 -116 -95 1 -40 73c-53,-46 -57,-52 -24,-120 57,1 36,6 74,46l98 -1c16,-30 21,-55 63,-61l32 54 75 -4c0,-89 9,-106 -7,-144 -72,-22 -395,8 -481,10z"/>
  <path class="fil15" d="M7630 3511l-8 160 156 2c34,-1 35,13 53,17 44,9 13,-19 60,-6l25 156c20,-19 9,3 15,-31 1,-8 0,-40 0,-51 0,-23 -4,-65 -3,-69 2,16 6,57 9,76 1,11 6,39 7,42 11,30 4,18 24,36 25,-38 -3,-132 -13,-170 47,8 29,7 64,26l15 -47c1,-2 2,-5 4,-8 13,66 36,35 2,91 -1,2 -4,5 -6,8 30,1 36,5 51,-17 1,-3 37,-87 1,-107 -32,-18 -35,2 -42,18l14 -54c22,0 22,4 30,5l17 -1c28,209 24,52 47,212l6 29c1,2 2,6 3,9 10,-15 7,9 14,-37 2,-15 -1,-37 -3,-51 -8,-81 4,-227 -7,-267l-491 16c-20,2 -38,13 -44,13z"/>
  <path class="fil20" d="M6487 4766l42 1c4,-34 2,-63 4,-95 3,-35 7,-53 35,-85 49,5 42,17 35,58 -9,61 -6,57 -29,108 2,1 5,0 6,2 9,35 -6,7 22,8 17,0 40,-19 44,-7l14 8c36,18 41,18 80,14 19,-35 21,-53 11,-95 -20,-78 6,-54 -3,-112l65 53c-23,9 -16,-1 -17,17 -1,39 -1,-8 12,1l2 34 38 -14c-6,-21 8,-3 -19,-19 0,0 -3,0 -4,-1 13,-33 23,-44 32,-71l-11 -13c-1,-2 -8,-9 -10,-12 -68,-66 -81,-27 -92,3l-6 -37 -66 -8c52,6 107,2 160,-1 86,-3 144,10 150,-34 8,-57 -2,-36 -150,-38 -61,0 -123,0 -183,-2 -1,3 -3,4 -3,8l-27 45c-29,-13 -12,-22 -31,-50l-96 1 -5 333z"/>
  <path class="fil15" d="M6339 4003c-14,55 -7,115 -9,172 7,26 18,9 37,37l17 40 10 -57c40,1 113,14 138,7 47,-14 48,-53 87,-81l8 47c0,1 1,4 2,5l27 -57 56 17c11,76 -15,101 8,173l76 5 -6 -255c-191,-1 -123,-6 -140,37 -34,-57 -47,-27 -104,-49 49,8 204,5 244,-11l6 -53c-34,-4 -371,-1 -417,10 -1,0 -38,12 -40,13z"/>
  <path class="fil23" d="M5594 5074c32,-37 -7,-19 44,-95 25,-38 -15,-17 27,-35 20,17 6,5 13,18l68 109 71 8c34,1 67,0 101,-2 6,-82 -13,-169 -12,-234 1,-78 -3,-17 14,-49 -47,-4 -328,6 -338,-10 -5,67 -20,254 12,290z"/>
  <path class="fil24" d="M6226 1608l51 36c-4,5 -7,4 -8,5l-23 5c-25,7 -23,7 -36,22 -72,80 -21,112 -15,123 32,69 -31,26 57,85 39,26 41,60 147,-28 34,-29 14,-12 24,-55 9,-37 19,-39 23,-65 6,-36 -22,-88 -41,-116 -54,-82 -26,-39 -94,-85 -19,47 -3,13 -46,36 -54,28 -4,4 -39,37z"/>
  <path class="fil11" d="M7662 3024c-34,18 -22,20 -44,60 -18,31 -31,38 -39,79 82,-1 70,-1 109,-62 19,-31 42,-80 87,-64 9,94 -17,106 31,113 64,10 42,-23 40,-142 -2,-54 0,-109 -6,-163 -50,4 -181,7 -211,27 -56,37 -44,129 33,152z"/>
  <path class="fil23" d="M6091 4658c27,-14 5,7 25,-43l8 -23c18,-46 0,-44 38,-45 8,46 -7,61 38,90l20 11c2,1 5,2 6,3 76,41 8,38 154,44l2 -216 -114 -30c-138,-14 -120,-17 -133,25 12,-59 4,-30 -24,-41 -16,10 -28,-15 -34,97 0,17 -2,45 -2,61 0,38 -3,40 16,67z"/>
  <path class="fil11" d="M5885 2972c-128,40 -120,335 77,274 134,-41 121,-337 -77,-274z"/>
  <path class="fil11" d="M5624 2978l-90 51c-65,41 -63,150 -19,181l78 36c60,33 19,5 102,-33 88,-40 68,-164 26,-190 -19,-12 -27,-9 -46,-15 -56,-20 -3,1 -51,-30z"/>
  <path class="fil11" d="M6478 3108l-53 -173 -78 4c-3,62 -20,241 8,282l30 -1c21,-43 5,-134 14,-189 13,31 17,56 26,90 8,32 12,69 31,94 97,1 35,-88 97,-186 4,70 -10,150 15,182l30 -1 6 -282 -79 -1 -47 181z"/>
  <path class="fil25" d="M5579 5367l116 6c53,-109 14,-151 -3,-186 -10,-21 -10,-38 -17,-52l-177 -11c-7,42 6,24 -6,65 -1,2 -2,5 -3,7 0,2 -2,5 -2,7l-3 150 95 14z"/>
  <path class="fil26" d="M5557 4670c26,-58 -23,-14 32,-114 11,-20 -6,-4 15,-33 48,35 28,56 56,134 17,44 125,29 168,28l1 -209c-63,-3 -143,-28 -216,-28 -22,38 0,28 -25,38 10,-9 23,19 9,-25 -9,-28 6,-13 -24,-24 -10,12 -6,2 -13,19 -6,13 -4,5 -7,24 -3,18 -2,42 -2,60 1,43 -1,88 6,130z"/>
  <path class="fil11" d="M7355 3055l-5 -175 -47 2 -3 290c125,9 91,-134 173,-179 1,30 2,57 2,86 0,37 -4,60 16,87 55,-6 44,24 40,-127 -2,-56 -1,-112 -5,-168 -113,-11 -91,128 -171,184z"/>
  <path class="fil27" d="M6243 5751l165 8 -3 -226c-26,-33 10,-15 -46,-25 -122,-20 -121,5 -142,15l-21 9c-28,14 -8,-12 -19,13l49 1c30,124 -16,98 17,205z"/>
  <path class="fil11" d="M6101 2953c-13,53 -21,239 0,281 60,0 41,14 49,-42 3,-24 -10,-48 11,-61 29,-19 90,11 123,-51 73,-137 -95,-147 -183,-127z"/>
  <path class="fil11" d="M6675 3204c89,-2 52,-6 89,-69l98 -3c45,64 -7,64 86,62l-105 -284c-80,5 -49,-16 -102,118 -23,58 -50,117 -66,176z"/>
  <path class="fil11" d="M5050 3180c-1,-77 15,-164 -24,-162 -36,2 -22,47 -23,122 0,49 -2,98 0,146 85,-1 39,-2 141,-163l5 119c5,31 -4,21 19,37 43,-14 25,-32 26,-88l0 -179c-58,-5 -57,19 -85,70 -20,36 -34,76 -59,98z"/>
  <path class="fil11" d="M5387 3100l-89 4c-19,-122 28,-80 -29,-102 -38,19 -23,-26 -26,138 0,28 -19,135 26,134 45,-1 17,-49 29,-116l89 -7c8,78 -14,111 24,115 40,-9 28,5 30,-54 2,-87 3,-191 -10,-219 -62,7 -31,39 -44,107z"/>
  <path class="fil26" d="M5957 4940c59,-15 16,-5 55,-42 51,86 29,100 180,87l-9 -141c-70,-6 -147,-28 -225,-29l-1 125z"/>
  <path class="fil28" d="M5889 3029c-91,64 -11,229 76,158 60,-50 24,-229 -76,-158z"/>
 </g>
</svg>
