<?xml version="1.0" encoding="UTF-8"?>
<!DOCTYPE svg PUBLIC "-//W3C//DTD SVG 1.0//EN" "http://www.w3.org/TR/2001/REC-SVG-20010904/DTD/svg10.dtd">
<!-- Creator: CorelDRAW X7 -->
<svg xmlns="http://www.w3.org/2000/svg" xml:space="preserve" width="200mm" height="200mm" version="1.0" style="shape-rendering:geometricPrecision; text-rendering:geometricPrecision; image-rendering:optimizeQuality; fill-rule:evenodd; clip-rule:evenodd"
viewBox="0 0 20000 20000"
 xmlns:xlink="http://www.w3.org/1999/xlink">
 <defs>
  <style type="text/css">
   <![CDATA[
    .str0 {stroke:#2E99A3;stroke-width:25}
    .str1 {stroke:#D0758A;stroke-width:25}
    .fil0 {fill:#FEFEFE}
    .fil3 {fill:#CC7588}
    .fil2 {fill:#2E99A3}
    .fil1 {fill:url(#id0)}
   ]]>
  </style>
  <radialGradient id="id0" gradientUnits="userSpaceOnUse" gradientTransform="matrix(1.41421 -0 -0 1.41421 -4137 -4151)" cx="9986.73" cy="10020.6" r="10000" fx="9986.73" fy="10020.6">
   <stop offset="0" style="stop-opacity:1; stop-color:#FEFEFE"/>
   <stop offset="0.439216" style="stop-opacity:1; stop-color:#FEFEFE"/>
   <stop offset="1" style="stop-opacity:1; stop-color:#D1E2F2"/>
  </radialGradient>
 </defs>
 <g id="Layer_x0020_1">
  <metadata id="CorelCorpID_0Corel-Layer"/>
  <path class="fil0" d="M31761 12139c22,-21 33,-48 33,-81 0,-33 -11,-60 -33,-82 -22,-22 -49,-33 -82,-33 -32,0 -58,11 -80,33 -21,22 -32,49 -32,82 0,33 11,60 32,81 22,21 49,32 80,32 32,0 59,-11 82,-32l0 0z"/>
  <path class="fil1" d="M-13 21l20000 0 0 20000 -20000 0 0 -20000z"/>
  <g id="_508688644656">
   <path class="fil2 str0" d="M5520 3934l0 263 29 0c32,0 59,-12 82,-34 23,-23 34,-51 34,-83l0 -29c0,-31 -11,-58 -34,-82 -22,-23 -49,-35 -82,-35l-29 0zm-57 263l0 -263 -29 0c-32,0 -59,12 -82,34 -23,23 -34,50 -34,83l0 29c0,32 11,59 34,82 22,23 50,35 82,35l29 0zm0 57l-29 0c-48,0 -89,-17 -123,-50 -34,-34 -51,-75 -51,-124l0 -29c0,-47 17,-88 51,-123 34,-34 75,-51 123,-51l29 0 0 -58c0,-7 2,-15 8,-21 6,-5 13,-8 20,-8 8,0 14,3 20,8 6,4 9,12 9,21l0 58 29 0c48,0 89,17 123,51 15,16 28,35 37,56 9,20 14,43 14,67l0 29c0,47 -17,88 -51,122 -34,35 -75,52 -123,52l-29 0 0 87c0,9 -3,16 -8,21 -5,5 -12,7 -21,7 -7,0 -14,-2 -20,-7 -6,-5 -8,-12 -8,-21l0 -87zm723 0c0,31 -11,59 -34,81 -22,23 -50,34 -82,34l-115 0c-32,0 -59,-11 -82,-33 -23,-23 -34,-50 -34,-82l0 -348c0,-32 11,-59 34,-82 22,-22 50,-34 82,-34l115 0c33,0 60,12 82,34 23,23 34,50 34,82l0 348zm-57 0l0 -348c0,-16 -6,-30 -17,-41 -11,-11 -25,-17 -41,-17l-116 0c-17,0 -30,5 -42,16 -5,6 -9,12 -12,19 -3,7 -4,15 -4,23l0 348c0,16 5,30 16,41 6,5 12,9 19,13 8,2 16,4 23,4l116 0c16,0 29,-5 41,-16 11,-11 17,-25 17,-42zm277 -174l174 0c16,0 30,-5 41,-16 11,-11 17,-25 17,-42l0 -116c0,-16 -6,-30 -16,-41 -11,-11 -25,-17 -42,-17l-174 0 0 232zm0 57l0 203c0,10 -3,17 -8,22 -5,5 -12,7 -21,7 -7,0 -14,-2 -20,-7 -6,-5 -9,-12 -9,-21l0 -522c0,-19 10,-29 29,-29l203 0c32,0 59,12 82,34 22,23 33,50 33,82l0 116c0,32 -11,59 -33,81 -23,23 -50,34 -82,34l-174 0zm811 204c0,9 -3,16 -8,21 -5,5 -12,7 -21,7 -7,0 -13,-2 -19,-7 -7,-5 -10,-12 -10,-21l0 -414 -119 200c-8,13 -16,19 -26,19 -8,0 -16,-6 -25,-19l-120 -200 0 414c0,9 -3,16 -8,21 -6,5 -12,7 -21,7 -8,0 -14,-2 -20,-7 -6,-5 -9,-12 -9,-21l0 -519c0,-11 3,-19 9,-25 5,-5 11,-8 18,-8 5,0 10,1 14,4 4,3 8,7 13,14l149 248 149 -248c7,-12 16,-18 28,-18 6,0 13,3 18,9 5,6 8,14 8,24l0 519zm521 0c0,9 -3,16 -8,21 -6,5 -13,7 -21,7 -8,0 -14,-2 -20,-7 -6,-5 -9,-12 -9,-21l0 -522c0,-7 3,-15 9,-21 6,-5 12,-8 20,-8 7,0 14,3 20,7 6,5 9,13 9,22l0 522zm-348 -261l0 232 116 0c16,0 30,-5 41,-16 12,-11 17,-25 17,-42l0 -116c0,-16 -5,-30 -16,-41 -11,-11 -25,-17 -42,-17l-116 0zm0 -58l116 0c31,0 58,12 81,34 23,23 35,50 35,82l0 116c0,32 -12,59 -34,81 -23,23 -50,34 -82,34l-145 0c-19,0 -29,-9 -29,-28l0 -522c0,-7 3,-15 9,-21 6,-5 12,-8 20,-8 7,0 14,3 20,8 6,4 9,12 9,21l0 203zm1157 319c0,9 -2,16 -8,21 -5,5 -12,7 -20,7 -8,0 -15,-2 -21,-7 -5,-5 -8,-12 -8,-21l0 -410 -235 424c-3,5 -8,10 -13,14l-6 3c-2,1 -5,2 -9,2 -6,0 -12,-3 -19,-8 -5,-6 -8,-14 -8,-25l0 -521c0,-8 3,-15 9,-22 6,-5 12,-7 20,-7 7,0 14,2 20,7 6,5 9,12 9,22l0 409 235 -423c3,-5 7,-10 12,-14 5,-4 11,-6 16,-6 6,0 12,3 18,9 5,6 8,14 8,24l0 522zm406 -319l0 -203c0,-7 3,-14 8,-20 6,-6 13,-9 21,-9 7,0 14,3 20,8 5,4 8,12 8,21l0 521c0,8 -3,15 -9,22 -7,5 -13,7 -20,7 -7,0 -14,-2 -20,-7 -5,-4 -8,-11 -8,-21l0 -261 -232 0 0 261c0,9 -3,16 -8,21 -6,5 -12,7 -21,7 -8,0 -14,-2 -20,-7 -6,-5 -9,-12 -9,-21l0 -521c0,-8 3,-15 9,-22 6,-5 12,-7 20,-7 7,0 14,2 20,7 6,5 9,12 9,22l0 202 232 0zm433 -88l0 263 29 0c32,0 59,-12 82,-34 23,-23 34,-51 34,-83l0 -29c0,-31 -11,-58 -33,-82 -23,-23 -50,-35 -83,-35l-29 0zm-57 263l0 -263 -29 0c-32,0 -59,12 -82,34 -23,23 -34,50 -34,83l0 29c0,32 11,59 34,82 22,23 50,35 82,35l29 0zm0 57l-29 0c-48,0 -89,-17 -123,-50 -34,-34 -51,-75 -51,-124l0 -29c0,-47 17,-88 51,-123 34,-34 75,-51 123,-51l29 0 0 -58c0,-7 2,-15 8,-21 6,-5 13,-8 20,-8 8,0 15,3 20,8 6,4 9,12 9,21l0 58 29 0c48,0 89,17 123,51 15,16 28,35 37,56 9,20 14,43 14,67l0 29c0,47 -17,88 -51,122 -34,35 -75,52 -123,52l-29 0 0 87c0,9 -2,16 -8,21 -5,5 -12,7 -21,7 -7,0 -14,-2 -20,-7 -6,-5 -8,-12 -8,-21l0 -87zm723 0c0,31 -11,59 -34,81 -22,23 -50,34 -81,34l-116 0c-32,0 -59,-11 -82,-33 -22,-23 -34,-50 -34,-82l0 -348c0,-32 11,-59 34,-82 22,-22 50,-34 82,-34l116 0c32,0 59,12 82,34 22,23 33,50 33,82l0 348zm-57 0l0 -348c0,-16 -6,-30 -17,-41 -11,-11 -25,-17 -41,-17l-116 0c-17,0 -30,5 -42,16 -5,6 -9,12 -12,19 -3,7 -4,15 -4,23l0 348c0,16 5,30 16,41 6,5 12,9 19,13 8,2 16,4 23,4l116 0c16,0 29,-5 41,-16 11,-11 17,-25 17,-42zm277 -174l174 0c16,0 30,-5 41,-16 11,-11 17,-25 17,-42l0 -116c0,-16 -6,-30 -16,-41 -11,-11 -25,-17 -42,-17l-174 0 0 232zm0 57l0 203c0,10 -3,17 -8,22 -5,5 -12,7 -21,7 -7,0 -14,-2 -20,-7 -6,-5 -9,-12 -9,-21l0 -522c0,-19 10,-29 29,-29l203 0c32,0 59,12 82,34 22,23 34,50 34,82l0 116c0,32 -12,59 -34,81 -23,23 -50,34 -82,34l-174 0zm811 204c0,9 -3,16 -8,21 -5,5 -12,7 -21,7 -6,0 -13,-2 -19,-7 -7,-5 -10,-12 -10,-21l0 -414 -119 200c-8,13 -16,19 -26,19 -8,0 -16,-6 -25,-19l-120 -200 0 414c0,9 -3,16 -8,21 -5,5 -12,7 -21,7 -7,0 -14,-2 -20,-7 -6,-5 -9,-12 -9,-21l0 -519c0,-11 3,-19 9,-25 5,-5 11,-8 18,-8 5,0 10,1 14,4 4,3 8,7 13,14l149 248 149 -248c7,-12 16,-18 28,-18 6,0 13,3 18,9 5,6 8,14 8,24l0 519zm462 0c0,9 -2,16 -8,21 -5,5 -12,7 -20,7 -8,0 -15,-2 -21,-7 -5,-5 -8,-12 -8,-21l0 -410 -235 424c-4,5 -8,10 -13,14l-6 3c-2,1 -5,2 -9,2 -6,0 -12,-3 -19,-8 -5,-6 -8,-14 -8,-25l0 -521c0,-8 3,-15 9,-22 6,-5 12,-7 20,-7 7,0 14,2 20,7 6,5 9,12 9,22l0 409 235 -423c3,-5 7,-10 12,-14 5,-4 11,-6 16,-6 6,0 12,3 18,9 5,6 8,14 8,24l0 522zm174 -261l174 0c16,0 29,-5 41,-16 11,-11 17,-25 17,-42l0 -116c0,-16 -6,-30 -17,-41 -10,-11 -24,-17 -41,-17l-174 0 0 232zm0 57l0 203c0,10 -3,17 -8,22 -6,5 -13,7 -21,7 -8,0 -14,-2 -20,-7 -6,-5 -9,-12 -9,-21l0 -522c0,-19 10,-29 29,-29l203 0c32,0 59,12 82,34 22,23 33,50 33,82l0 116c0,32 -11,59 -34,81 -22,23 -49,34 -82,34l-173 0zm752 117c0,31 -11,59 -34,81 -22,23 -49,34 -81,34l-116 0c-32,0 -59,-11 -82,-33 -22,-23 -34,-50 -34,-82l0 -348c0,-32 11,-59 34,-82 22,-22 50,-34 82,-34l116 0c32,0 59,12 82,34 22,23 33,50 33,82l0 348zm-57 0l0 -348c0,-16 -6,-30 -17,-41 -10,-11 -24,-17 -41,-17l-116 0c-16,0 -30,5 -42,16 -5,6 -9,12 -12,19 -3,7 -4,15 -4,23l0 348c0,16 5,30 16,41 6,5 12,9 19,13 8,2 16,4 23,4l116 0c16,0 29,-5 41,-16 11,-11 17,-25 17,-42zm511 -215c17,10 30,24 40,42 11,18 16,37 16,57l0 116c0,31 -12,59 -34,81 -23,23 -50,34 -82,34l-203 0c-19,0 -29,-9 -29,-28l0 -522c0,-19 10,-29 29,-29l174 0c32,0 60,12 82,34 23,23 34,50 34,82l0 58c0,13 -2,26 -6,39 -4,12 -11,24 -21,36zm-234 41l0 232 174 0c16,0 30,-5 41,-16 11,-11 17,-25 17,-42l0 -116c0,-16 -5,-30 -16,-41 -11,-11 -25,-17 -42,-17l-174 0zm145 -58c16,0 30,-5 41,-16 12,-11 17,-25 17,-42l0 -58c0,-16 -5,-30 -16,-41 -11,-11 -25,-17 -42,-17l-145 0 0 174 145 0zm333 203l-42 125c-2,6 -6,11 -11,15 -4,2 -9,4 -15,4 -8,0 -15,-2 -21,-8 -6,-5 -9,-11 -9,-20l2 -10 174 -521c6,-16 15,-25 27,-25 13,0 22,9 27,25l174 521 2 10c0,8 -3,15 -10,21 -6,5 -13,7 -20,7 -4,0 -8,-1 -13,-2 -5,-2 -9,-8 -14,-17l-41 -125 -210 0zm190 -60l-85 -254 -85 254 170 0zm518 -143l0 -203c0,-7 3,-14 9,-20 6,-6 13,-9 20,-9 8,0 14,3 20,8 6,4 9,12 9,21l0 521c0,8 -3,15 -9,22 -7,5 -14,7 -20,7 -7,0 -14,-2 -20,-7 -6,-4 -9,-11 -9,-21l0 -261 -231 0 0 261c0,9 -3,16 -9,21 -5,5 -12,7 -20,7 -8,0 -15,-2 -20,-7 -6,-5 -9,-12 -9,-21l0 -521c0,-8 3,-15 9,-22 5,-5 12,-7 20,-7 7,0 14,2 20,7 6,5 9,12 9,22l0 202 231 0zm521 319c0,9 -3,16 -8,21 -5,5 -12,7 -21,7 -7,0 -14,-2 -20,-7 -6,-5 -9,-12 -9,-21l0 -410 -234 424c-4,5 -8,10 -13,14l-7 3c-1,1 -4,2 -9,2 -5,0 -11,-3 -19,-8 -5,-6 -7,-14 -7,-25l0 -521c0,-8 3,-15 9,-22 5,-5 12,-7 20,-7 7,0 14,2 20,7 6,5 9,12 9,22l0 409 234 -423c3,-5 7,-10 13,-14 5,-4 10,-6 16,-6 6,0 12,3 17,9 6,6 9,14 9,24l0 522zm405 -261l0 -232 -174 0c-16,0 -30,5 -41,16 -6,6 -10,12 -12,19 -3,7 -5,15 -5,23l0 116c0,16 6,30 17,41 6,5 12,9 19,13 8,3 16,4 22,4l174 0zm-99 57l-137 219c-6,9 -13,13 -23,13 -7,0 -14,-3 -20,-9 -7,-5 -10,-12 -10,-20 0,-6 1,-11 4,-16l117 -187 -5 0c-32,0 -59,-11 -82,-33 -23,-23 -34,-50 -34,-82l0 -116c0,-32 11,-59 34,-82 22,-22 49,-34 82,-34l202 0c19,0 29,10 29,29l0 522c0,9 -3,16 -8,21 -5,5 -12,7 -21,7 -7,0 -14,-2 -20,-7 -6,-5 -9,-12 -9,-22l0 -203 -99 0z"/>
   <path class="fil2 str0" d="M4095 8509c0,7 -2,12 -6,16 -4,4 -9,6 -16,6 -5,0 -10,-2 -15,-6 -4,-4 -6,-9 -6,-16l0 -370 -174 0 0 370c0,7 -2,12 -6,16 -4,4 -9,6 -16,6 -6,0 -11,-2 -15,-6 -4,-3 -6,-9 -6,-16l0 -391c0,-15 7,-22 21,-22l217 0c15,0 22,7 22,22l0 391zm347 0c0,7 -2,12 -6,16 -4,4 -9,6 -15,6 -6,0 -11,-2 -16,-6 -4,-3 -6,-9 -6,-16l0 -307 -176 317c-3,5 -6,8 -10,11l-4 3c-2,0 -4,1 -7,1 -4,0 -9,-2 -15,-6 -3,-5 -5,-11 -5,-19l0 -391c0,-6 2,-11 6,-16 5,-4 10,-6 15,-6 6,0 11,2 15,6 5,4 7,9 7,16l0 307 176 -317c2,-4 5,-7 10,-11 3,-3 7,-4 11,-4 5,0 10,2 14,7 4,4 6,10 6,18l0 391zm283 22l-109 0c-24,0 -44,-9 -61,-26 -17,-17 -26,-37 -26,-61l0 -261c0,-24 9,-45 25,-61 17,-17 38,-26 62,-26l109 0c6,0 11,2 15,7 4,4 6,9 6,15 0,5 -1,10 -5,14 -4,5 -9,7 -16,7l-109 0c-12,0 -23,5 -31,13 -4,4 -8,9 -10,14 -2,5 -3,11 -3,17l0 261c0,12 4,22 13,31 4,4 9,7 14,9 6,2 12,3 17,3l109 0c6,0 11,3 15,7 4,4 6,9 6,15 0,5 -1,10 -5,14 -4,5 -9,8 -16,8zm151 -217l131 0c12,0 22,4 31,12 8,8 12,18 12,31l0 87c0,12 -4,22 -12,31 -5,4 -9,7 -14,9 -6,2 -11,3 -17,3l-131 0 0 -173zm0 -44l0 -152c0,-6 -2,-11 -7,-15 -4,-5 -9,-7 -14,-7 -5,0 -10,2 -15,6 -5,3 -7,9 -7,16l0 391c0,14 7,22 22,22l152 0c23,0 43,-9 60,-26 18,-16 26,-37 26,-61l0 -87c0,-24 -8,-44 -25,-61 -17,-17 -37,-26 -62,-26l-130 0zm608 239c0,7 -2,12 -5,16 -5,4 -10,6 -16,6 -5,0 -10,-2 -15,-6 -5,-4 -7,-9 -7,-16l0 -310 -90 150c-5,9 -11,14 -19,14 -6,0 -12,-5 -18,-14l-91 -150 0 310c0,7 -2,12 -6,16 -4,4 -9,6 -15,6 -6,0 -11,-2 -15,-6 -5,-3 -7,-9 -7,-16l0 -389c0,-8 2,-14 6,-18 4,-5 9,-7 14,-7 4,0 7,1 11,3 3,2 6,6 10,11l111 186 112 -186c5,-9 12,-14 21,-14 5,0 9,2 14,7 3,4 5,11 5,18l0 389zm163 -87l-31 94c-2,4 -5,8 -8,11 -3,2 -7,3 -12,4 -6,0 -11,-3 -15,-7 -5,-3 -7,-8 -7,-14l1 -8 131 -391c4,-12 11,-19 20,-19 9,0 16,7 20,19l130 391 2 8c0,5 -2,10 -7,15 -5,4 -10,6 -15,6 -3,0 -6,-1 -10,-3 -4,-1 -7,-5 -10,-12l-32 -94 -157 0zm143 -44l-64 -192 -64 192 128 0z"/>
   <path class="fil2 str0" d="M3787 9327c0,7 -2,12 -6,17 -4,3 -9,5 -16,5 -5,0 -10,-2 -15,-6 -4,-3 -6,-9 -6,-16l0 -369 -71 0 -104 375c-1,4 -3,8 -7,11 -4,3 -9,5 -14,5 -6,0 -11,-2 -15,-6 -5,-3 -7,-8 -7,-15 0,-3 1,-5 1,-7l109 -390c3,-11 10,-17 21,-17l108 0c15,0 22,8 22,22l0 391zm347 0c0,7 -2,12 -6,17 -4,3 -10,5 -16,5 -6,0 -11,-2 -15,-6 -4,-3 -7,-9 -7,-16l0 -307 -176 318c-2,4 -5,8 -9,10l-5 3c-2,0 -4,1 -7,2 -4,-1 -9,-3 -14,-7 -4,-4 -6,-11 -6,-19l0 -391c0,-5 2,-11 7,-16 4,-3 9,-5 15,-5 5,0 10,2 15,5 4,4 6,9 6,16l0 307 177 -317c2,-3 5,-7 9,-10 4,-3 8,-5 12,-5 5,0 9,3 13,7 4,5 7,11 7,18l0 391zm282 22l-109 0c-23,0 -43,-9 -61,-25 -17,-17 -25,-38 -25,-62l0 -261c0,-24 8,-44 25,-61 17,-17 37,-26 61,-26l109 0c6,0 11,3 15,7 5,4 7,10 7,15 0,5 -2,10 -6,15 -3,4 -9,7 -16,7l-109 0c-12,0 -22,4 -31,12 -4,4 -7,9 -9,14 -2,6 -3,11 -3,17l0 261c0,12 4,23 12,31 5,4 9,7 14,10 6,2 12,3 17,3l109 0c6,0 11,2 15,6 5,5 7,10 7,15 0,5 -2,10 -6,15 -3,4 -9,7 -16,7zm217 -391l-87 0c-6,0 -12,-2 -16,-6 -4,-5 -6,-10 -6,-16 0,-5 2,-10 6,-14 3,-5 9,-8 16,-8l217 0c6,0 11,3 15,7 5,4 7,10 7,15 0,5 -2,10 -6,15 -3,4 -9,7 -16,7l-87 0 0 369c0,7 -2,12 -6,17 -4,3 -9,5 -15,5 -6,0 -11,-2 -16,-6 -4,-3 -6,-9 -6,-16l0 -369zm477 304c0,24 -9,44 -25,61 -17,17 -38,26 -62,26l-87 0c-23,0 -44,-9 -61,-25 -17,-17 -25,-38 -25,-62l0 -261c0,-24 8,-44 25,-61 17,-17 37,-26 61,-26l87 0c24,0 45,9 62,26 16,17 25,37 25,61l0 261zm-43 0l0 -261c0,-12 -4,-22 -12,-31 -9,-8 -19,-12 -32,-12l-87 0c-12,0 -22,4 -31,12 -4,4 -7,9 -9,14 -2,6 -3,11 -3,17l0 261c0,12 4,23 12,31 5,4 9,7 14,10 6,2 12,3 17,3l87 0c12,0 23,-4 31,-13 9,-8 13,-18 13,-31zm384 -161c12,7 22,18 29,31 8,14 12,28 12,43l0 87c0,24 -9,44 -25,61 -17,17 -38,26 -62,26l-152 0c-14,0 -21,-7 -21,-22l0 -391c0,-14 7,-22 21,-22l131 0c24,0 44,9 61,26 17,17 25,37 25,61l0 44c0,10 -1,19 -4,29 -3,9 -8,18 -15,27zm-176 31l0 174 130 0c12,0 22,-4 31,-13 9,-8 13,-18 13,-31l0 -87c0,-12 -4,-22 -13,-31 -8,-8 -18,-12 -31,-12l-130 0zm109 -44c12,0 22,-4 30,-12 9,-8 13,-18 13,-31l0 -44c0,-12 -4,-22 -12,-31 -8,-8 -19,-12 -31,-12l-109 0 0 130 109 0zm238 14l183 -182c4,-4 9,-6 15,-6 5,0 10,3 15,7 5,5 7,10 7,16 0,3 -2,8 -7,14l-129 129 133 236 4 12c0,5 -3,10 -8,14 -4,5 -9,7 -15,7 -7,0 -14,-4 -19,-12l-127 -226 -52 51 0 165c0,7 -2,12 -6,17 -4,3 -9,5 -16,5 -5,0 -10,-2 -15,-6 -4,-3 -6,-9 -6,-16l0 -391c0,-6 2,-11 6,-15 5,-4 10,-7 15,-7 6,0 11,2 16,5 4,4 6,10 6,17l0 166zm564 225c0,7 -2,12 -6,17 -4,3 -9,5 -15,5 -6,0 -11,-2 -15,-6 -5,-3 -7,-9 -7,-16l0 -307 -176 318c-3,4 -6,8 -10,10l-4 3c-2,0 -4,1 -7,2 -4,-1 -9,-3 -14,-7 -4,-4 -6,-11 -6,-19l0 -391c0,-5 2,-11 7,-16 4,-3 9,-5 15,-5 5,0 10,2 15,5 4,4 6,9 6,16l0 307 176 -317c3,-3 6,-7 10,-10 4,-3 8,-5 11,-5 5,0 10,3 14,7 4,5 6,11 6,18l0 391z"/>
   <path class="fil2 str0" d="M3408 10080c0,24 -8,44 -25,61 -17,17 -38,26 -62,26l-87 0c-23,0 -43,-8 -61,-25 -17,-17 -25,-38 -25,-62l0 -260c0,-25 8,-45 25,-62 17,-17 37,-25 61,-25l87 0c24,0 45,8 62,25 17,17 25,38 25,62l0 260zm-43 0l0 -261c0,-12 -4,-22 -12,-31 -9,-8 -19,-12 -32,-12l-87 0c-12,0 -22,4 -31,12 -4,5 -7,9 -9,14 -2,6 -3,11 -3,17l0 261c0,13 4,23 12,31 5,4 9,7 14,10 6,2 12,3 17,3l87 0c12,0 23,-4 31,-12 9,-8 13,-19 13,-32zm208 -130l0 174 130 0c12,0 23,-4 31,-12 9,-8 13,-19 13,-32l0 -87c0,-12 -4,-22 -12,-31 -9,-8 -19,-12 -32,-12l-130 0zm0 -43l130 0c24,0 44,8 61,25 17,17 26,37 26,61l0 87c0,24 -8,44 -25,61 -17,17 -38,26 -62,26l-152 0c-14,0 -21,-7 -21,-22l0 -391c0,-14 7,-21 21,-21l174 0c6,0 11,2 15,6 5,5 7,10 7,15 0,5 -2,10 -6,15 -3,5 -9,7 -16,7l-152 0 0 131zm434 43l0 174 131 0c12,0 22,-4 30,-12 9,-8 13,-19 13,-32l0 -87c0,-12 -4,-22 -12,-31 -8,-8 -19,-12 -31,-12l-131 0zm0 -43l130 0c25,0 45,8 62,25 17,17 25,38 25,61l0 87c0,24 -8,45 -25,62 -17,17 -37,25 -62,25l-151 0c-15,0 -22,-7 -22,-22l0 -369 -65 0c-7,0 -12,-2 -16,-6 -4,-5 -6,-10 -6,-16 0,-5 2,-9 5,-14 4,-5 9,-7 17,-7l86 0c15,0 22,7 22,21l0 153zm521 43l0 -174 -130 0c-12,0 -23,4 -31,12 -5,5 -8,9 -10,14 -2,6 -3,11 -3,17l0 87c0,13 4,23 13,32 4,3 9,6 14,9 6,2 12,3 17,3l130 0zm-75 43l-102 164c-4,7 -10,10 -17,10 -6,0 -11,-2 -16,-7 -5,-4 -7,-9 -7,-15 0,-4 1,-8 3,-12l88 -140 -4 0c-24,0 -44,-8 -61,-25 -17,-17 -26,-38 -26,-62l0 -87c0,-24 8,-44 25,-61 17,-17 38,-25 62,-25l152 0c14,0 21,7 21,21l0 391c0,7 -2,13 -6,17 -4,3 -9,5 -15,5 -6,0 -11,-2 -15,-5 -5,-4 -7,-9 -7,-17l0 -152 -75 0zm424 -74c13,8 23,18 30,32 8,13 12,27 12,42l0 87c0,24 -9,44 -26,61 -17,17 -37,26 -61,26l-152 0c-15,0 -22,-7 -22,-22l0 -391c0,-14 7,-21 22,-21l130 0c24,0 45,8 62,25 17,17 25,38 25,62l0 43c0,10 -2,20 -5,29 -3,9 -8,18 -15,27zm-176 31l0 174 131 0c12,0 22,-4 31,-12 8,-8 12,-19 12,-32l0 -87c0,-12 -4,-22 -12,-31 -8,-8 -18,-12 -31,-12l-131 0zm109 -43c12,0 23,-4 31,-13 9,-8 13,-18 13,-31l0 -44c0,-12 -4,-22 -12,-31 -9,-8 -19,-12 -32,-12l-109 0 0 131 109 0zm410 238c0,7 -2,13 -6,17 -4,3 -9,5 -16,5 -5,0 -10,-2 -15,-5 -4,-4 -6,-9 -6,-17l0 -369 -71 0 -104 375c-1,4 -3,8 -7,11 -4,3 -9,5 -14,5 -6,0 -11,-2 -15,-5 -5,-4 -7,-9 -7,-16 0,-3 1,-5 1,-6l109 -391c3,-11 10,-16 21,-16l108 0c15,0 22,7 22,21l0 391zm129 -238l110 0c6,0 11,2 15,6 4,5 6,10 6,15 0,5 -1,10 -5,15 -4,5 -9,7 -16,7l-110 0 0 174 153 0c6,0 11,2 16,7 4,4 6,9 6,14 0,6 -2,11 -6,15 -3,5 -9,7 -16,7l-174 0c-15,0 -22,-7 -22,-20l0 -393c0,-14 7,-21 22,-21l174 0c6,0 11,2 16,6 4,5 6,10 6,15 0,5 -2,10 -6,15 -3,5 -9,7 -16,7l-153 0 0 131zm478 0l0 -153c0,-5 2,-10 7,-15 4,-4 9,-6 15,-6 5,0 10,2 15,5 4,4 6,9 6,16l0 391c0,6 -2,11 -6,16 -5,4 -10,6 -15,6 -6,0 -11,-2 -16,-5 -4,-4 -6,-9 -6,-16l0 -196 -174 0 0 195c0,7 -2,13 -6,17 -4,3 -9,5 -15,5 -6,0 -11,-2 -15,-5 -5,-4 -7,-9 -7,-17l0 -390c0,-6 2,-11 7,-16 4,-4 9,-6 15,-6 5,0 10,2 15,5 4,4 6,9 6,17l0 152 174 0zm391 238c0,7 -2,13 -6,17 -4,3 -10,5 -16,5 -6,0 -11,-2 -15,-5 -4,-4 -6,-9 -6,-17l0 -307 -177 318c-2,4 -5,8 -9,10l-5 3c-1,1 -4,1 -7,2 -4,0 -9,-2 -14,-7 -4,-4 -6,-10 -6,-18l0 -391c0,-6 2,-11 7,-16 4,-4 9,-6 15,-6 5,0 11,2 15,5 4,4 7,9 7,17l0 307 176 -318c2,-3 5,-7 9,-10 4,-3 8,-5 12,-5 5,0 9,3 13,8 5,4 7,10 7,18l0 390zm304 -195l0 -174 -131 0c-12,0 -22,4 -31,12 -4,5 -7,9 -9,14 -2,6 -3,11 -3,17l0 87c0,13 4,23 12,32 5,3 9,6 14,9 6,2 12,3 17,3l131 0zm-75 43l-102 164c-5,7 -11,10 -18,10 -5,0 -10,-2 -15,-7 -5,-4 -7,-9 -7,-15 0,-4 1,-8 3,-12l88 -140 -5 0c-23,0 -44,-8 -61,-25 -17,-17 -25,-38 -25,-62l0 -87c0,-24 8,-44 25,-61 17,-17 37,-25 61,-25l152 0c15,0 22,7 22,21l0 391c0,7 -2,13 -6,17 -4,3 -9,5 -16,5 -5,0 -10,-2 -15,-5 -4,-4 -6,-9 -6,-17l0 -152 -75 0z"/>
   <path class="fil2 str0" d="M6969 14468l-109 0c-23,0 -44,-8 -61,-25 -17,-17 -26,-38 -26,-62l0 -260c0,-25 9,-45 26,-62 16,-17 37,-25 61,-25l109 0c6,0 11,2 15,6 5,5 7,10 7,15 0,5 -2,10 -6,15 -3,5 -9,7 -16,7l-109 0c-12,0 -22,4 -31,12 -4,5 -7,9 -9,14 -2,6 -3,11 -3,17l0 261c0,13 4,23 12,32 4,3 9,6 14,9 6,2 12,3 17,3l109 0c6,0 11,2 15,7 5,4 7,9 7,15 0,4 -2,9 -6,14 -3,5 -9,7 -16,7zm349 -87c0,24 -8,44 -25,61 -17,18 -38,26 -62,26l-87 0c-23,0 -43,-8 -61,-25 -17,-17 -25,-38 -25,-62l0 -260c0,-25 8,-45 25,-62 17,-17 37,-25 61,-25l87 0c24,0 45,8 62,25 17,17 25,38 25,62l0 260zm-43 0l0 -261c0,-12 -4,-22 -12,-30 -9,-9 -19,-13 -32,-13l-87 0c-12,0 -22,4 -31,12 -4,5 -7,9 -9,14 -2,6 -3,11 -3,17l0 261c0,13 4,23 12,32 5,3 9,6 14,9 6,2 12,3 17,3l87 0c12,0 23,-4 31,-12 9,-8 13,-19 13,-32zm425 0c0,24 -9,44 -25,61 -17,18 -38,26 -62,26l-87 0c-23,0 -44,-8 -61,-25 -17,-17 -25,-38 -25,-62l0 -260c0,-25 8,-45 25,-62 17,-17 37,-25 61,-25l87 0c24,0 45,8 62,25 16,17 25,38 25,62l0 260zm-43 0l0 -261c0,-12 -4,-22 -13,-30 -8,-9 -18,-13 -31,-13l-87 0c-12,0 -22,4 -31,12 -4,5 -7,9 -9,14 -2,6 -3,11 -3,17l0 261c0,13 4,23 12,32 5,3 9,6 14,9 6,2 12,3 17,3l87 0c12,0 22,-4 31,-12 9,-8 13,-19 13,-32zm208 -130l0 174 130 0c12,0 22,-4 31,-12 8,-8 13,-19 13,-32l0 -87c0,-12 -4,-22 -13,-30 -8,-9 -18,-13 -31,-13l-130 0zm0 -43l130 0c24,0 44,8 61,25 17,17 26,37 26,62l0 86c0,24 -9,44 -26,61 -16,18 -37,26 -61,26l-152 0c-14,0 -21,-7 -21,-22l0 -391c0,-14 7,-21 21,-21l174 0c6,0 11,2 15,6 4,5 7,10 7,15 0,5 -2,10 -6,15 -3,5 -9,7 -16,7l-152 0 0 131zm651 260l-22 0 -304 0c-14,0 -21,-7 -21,-22l0 -391c0,-5 2,-11 6,-16 5,-3 10,-5 15,-5 6,0 11,2 15,5 5,4 7,9 7,16l0 370 109 0 0 -370c0,-5 2,-11 6,-16 4,-3 9,-5 15,-5 6,0 11,2 15,5 5,4 7,9 7,16l0 370 109 0 0 -370c0,-5 2,-11 6,-16 5,-3 10,-5 16,-5 5,0 10,2 15,5 4,4 6,9 6,16l0 370 22 0c14,0 21,7 21,22l0 65c0,6 -2,11 -6,15 -5,4 -10,7 -15,7 -5,0 -10,-2 -15,-6 -5,-4 -7,-9 -7,-16l0 -44zm173 -260l110 0c6,0 11,2 15,6 4,5 7,10 7,15 0,6 -2,10 -6,15 -4,5 -9,7 -16,7l-110 0 0 174 153 0c6,0 11,2 16,7 4,4 6,9 6,15 0,5 -2,10 -5,14 -4,5 -10,7 -17,7l-174 0c-14,0 -22,-7 -22,-20l0 -393c0,-14 8,-21 22,-21l174 0c6,0 11,2 16,6 4,5 6,10 6,15 0,6 -2,10 -6,15 -3,5 -9,7 -16,7l-153 0 0 131zm478 0l0 -153c0,-5 2,-10 7,-15 4,-4 9,-6 15,-6 5,0 10,2 15,5 4,4 7,9 7,16l0 391c0,6 -3,12 -7,16 -5,4 -10,6 -15,6 -6,0 -11,-2 -16,-5 -4,-4 -6,-9 -6,-16l0 -196 -174 0 0 195c0,7 -2,13 -6,17 -4,3 -9,5 -15,5 -6,0 -11,-2 -15,-5 -5,-4 -7,-9 -7,-17l0 -390c0,-6 2,-11 7,-16 4,-4 9,-6 15,-6 5,0 10,2 15,5 4,4 6,9 6,17l0 152 174 0zm391 238c0,7 -2,13 -6,17 -4,3 -9,5 -16,5 -6,0 -11,-2 -15,-5 -4,-4 -6,-9 -6,-17l0 -307 -177 318c-2,4 -5,8 -9,10l-5 3c-1,1 -4,1 -7,2 -4,0 -9,-2 -14,-7 -4,-4 -6,-10 -6,-18l0 -391c0,-6 3,-11 7,-16 4,-4 9,-6 15,-6 5,0 11,2 15,5 4,4 7,9 7,17l0 307 176 -318c2,-3 5,-7 9,-10 4,-3 8,-5 12,-5 5,0 9,3 13,8 5,4 7,10 7,18l0 390zm304 -195l0 -174 -131 0c-12,0 -22,4 -31,12 -4,5 -7,9 -9,14 -2,6 -3,11 -3,17l0 87c0,13 4,23 12,32 5,3 9,6 14,9 6,2 12,3 17,3l131 0zm-75 43l-102 164c-5,7 -11,10 -18,10 -5,0 -10,-2 -15,-7 -5,-4 -7,-9 -7,-15 0,-4 1,-8 3,-12l88 -140 -5 0c-23,0 -44,-8 -61,-25 -17,-17 -25,-38 -25,-62l0 -86c0,-25 8,-45 25,-62 17,-17 37,-25 61,-25l152 0c15,0 22,7 22,21l0 391c0,7 -2,13 -6,17 -4,3 -9,5 -16,5 -5,0 -10,-2 -15,-5 -4,-4 -6,-9 -6,-17l0 -152 -75 0zm726 152c0,7 -2,13 -6,17 -4,3 -10,5 -16,5 -6,0 -11,-2 -15,-5 -4,-4 -6,-9 -6,-17l0 -369 -174 0 0 369c0,7 -2,13 -7,17 -4,3 -9,5 -15,5 -6,0 -11,-2 -15,-5 -5,-4 -7,-9 -7,-17l0 -391c0,-14 8,-21 22,-21l217 0c14,0 22,7 22,21l0 391zm347 -65c0,24 -9,44 -25,61 -17,18 -38,26 -62,26l-87 0c-23,0 -44,-8 -61,-25 -17,-17 -25,-38 -25,-62l0 -260c0,-25 8,-45 25,-62 17,-17 37,-25 61,-25l87 0c24,0 45,8 62,25 16,17 25,38 25,62l0 260zm-43 0l0 -261c0,-12 -4,-22 -13,-30 -8,-9 -18,-13 -31,-13l-87 0c-12,0 -22,4 -31,12 -4,5 -7,9 -9,14 -2,6 -3,11 -3,17l0 261c0,13 4,23 12,32 5,3 9,6 14,9 6,2 12,3 17,3l87 0c12,0 22,-4 31,-12 9,-8 13,-19 13,-32zm468 -130l131 0c12,0 22,-4 30,-12 9,-8 13,-19 13,-32l0 -87c0,-12 -4,-22 -12,-30 -8,-9 -19,-13 -31,-13l-131 0 0 174zm0 43l0 152c0,7 -2,13 -6,17 -4,3 -9,5 -15,5 -6,0 -11,-2 -16,-5 -4,-4 -6,-9 -6,-17l0 -391c0,-14 7,-21 22,-21l152 0c24,0 44,8 61,25 17,17 25,38 25,62l0 86c0,24 -8,44 -25,61 -17,18 -38,26 -62,26l-130 0zm337 66l-31 93c-2,5 -5,8 -8,11 -3,2 -7,3 -12,4 -6,0 -11,-2 -15,-6 -5,-4 -7,-9 -7,-15l1 -8 131 -390c4,-13 11,-19 20,-19 9,0 16,6 21,19l129 390 2 8c0,6 -2,11 -7,15 -5,4 -10,6 -15,6 -3,0 -6,-1 -10,-2 -4,-2 -7,-6 -10,-13l-31 -93 -158 0zm143 -45l-64 -191 -64 191 128 0zm217 110l41 -372c0,-13 7,-19 22,-19l130 0c15,0 22,7 22,21l0 370 22 0c14,0 22,7 22,22l0 43c0,6 -3,11 -7,15 -4,4 -9,6 -15,6 -5,0 -10,-2 -14,-5 -5,-4 -8,-9 -8,-16l0 -22 -217 0 0 22c0,6 -3,11 -7,15 -4,4 -9,6 -15,6 -5,0 -10,-2 -14,-5 -5,-4 -8,-9 -8,-16l0 -43c0,-15 8,-22 22,-22l24 0zm172 0l0 -348 -89 0 -40 348 129 0zm433 21c0,7 -2,13 -6,17 -4,3 -9,5 -15,5 -6,0 -11,-2 -15,-5 -5,-4 -7,-9 -7,-17l0 -307 -176 318c-2,4 -6,8 -10,10l-4 3c-2,1 -4,1 -7,2 -4,0 -9,-2 -14,-7 -4,-4 -6,-10 -6,-18l0 -391c0,-6 2,-11 7,-16 4,-4 9,-6 15,-6 5,0 10,2 15,5 4,4 6,9 6,17l0 307 176 -318c3,-3 6,-7 10,-10 4,-3 8,-5 12,-5 4,0 9,3 13,8 4,4 6,10 6,18l0 390zm348 -65c0,24 -9,44 -26,61 -17,18 -37,26 -61,26l-87 0c-23,0 -44,-8 -61,-25 -17,-17 -26,-38 -26,-62l0 -260c0,-25 9,-45 26,-62 16,-17 37,-25 61,-25l87 0c24,0 45,8 61,25 17,17 26,38 26,62l0 260zm-43 0l0 -261c0,-12 -5,-22 -13,-30 -8,-9 -18,-13 -31,-13l-87 0c-12,0 -23,4 -31,12 -4,5 -7,9 -9,14 -2,6 -3,11 -3,17l0 261c0,13 4,23 12,32 4,3 9,6 14,9 6,2 12,3 17,3l87 0c12,0 22,-4 31,-12 8,-8 13,-19 13,-32z"/>
   <path class="fil2 str0" d="M4469 15253c0,23 -9,44 -26,61 -16,17 -37,25 -61,25l-87 0c-23,0 -44,-8 -61,-25 -17,-17 -26,-37 -26,-61l0 -261c0,-24 9,-45 26,-62 17,-16 37,-25 61,-25l87 0c24,0 45,9 62,26 16,17 25,37 25,61l0 261zm-43 0l0 -261c0,-12 -4,-23 -13,-31 -8,-8 -18,-13 -31,-13l-87 0c-12,0 -22,4 -31,13 -4,4 -7,9 -9,14 -2,5 -3,11 -3,17l0 261c0,12 4,22 12,31 5,4 9,7 14,9 6,2 12,3 17,3l87 0c12,0 22,-4 31,-12 8,-8 13,-18 13,-31zm208 -131l0 174 130 0c12,0 22,-4 31,-12 8,-8 13,-18 13,-31l0 -87c0,-12 -5,-23 -13,-31 -8,-8 -18,-13 -31,-13l-130 0zm0 -43l130 0c24,0 44,9 61,25 17,17 26,38 26,62l0 87c0,23 -9,44 -26,61 -17,17 -37,25 -61,25l-152 0c-14,0 -22,-7 -22,-21l0 -391c0,-15 8,-22 22,-22l174 0c6,0 11,2 15,7 4,4 7,9 7,15 0,5 -2,9 -6,14 -4,5 -9,7 -16,7l-152 0 0 131zm434 43l0 174 130 0c12,0 23,-4 31,-12 9,-8 13,-18 13,-31l0 -87c0,-12 -4,-23 -12,-31 -9,-8 -19,-13 -32,-13l-130 0zm0 -43l130 0c24,0 45,9 62,26 17,16 25,37 25,61l0 87c0,24 -8,44 -25,61 -17,17 -38,25 -62,25l-152 0c-14,0 -21,-7 -21,-21l0 -370 -66 0c-6,0 -12,-2 -16,-6 -3,-4 -5,-10 -5,-15 0,-5 1,-10 5,-15 4,-5 9,-7 16,-7l87 0c15,0 22,7 22,22l0 152zm521 43l0 -174 -131 0c-12,0 -22,4 -31,13 -4,4 -7,9 -9,14 -2,5 -3,11 -3,17l0 87c0,12 4,22 12,31 5,4 9,7 14,9 7,2 12,3 17,3l131 0zm-75 43l-102 164c-5,7 -10,10 -18,10 -5,0 -10,-2 -15,-6 -5,-5 -7,-10 -7,-16 0,-4 1,-8 3,-11l88 -141 -4 0c-24,0 -44,-8 -61,-25 -18,-17 -26,-37 -26,-61l0 -87c0,-24 8,-45 25,-62 17,-16 37,-25 62,-25l151 0c15,0 22,7 22,22l0 391c0,7 -2,12 -6,16 -4,4 -9,5 -15,5 -6,0 -11,-1 -16,-5 -4,-4 -6,-9 -6,-16l0 -153 -75 0zm424 -73c12,7 22,17 30,31 8,13 11,28 11,43l0 87c0,23 -8,44 -25,61 -17,17 -37,25 -61,25l-152 0c-15,0 -22,-7 -22,-21l0 -391c0,-15 7,-22 22,-22l130 0c24,0 45,9 62,26 16,17 25,37 25,61l0 43c0,10 -2,20 -5,29 -3,10 -8,19 -15,28zm-176 30l0 174 131 0c12,0 22,-4 31,-12 8,-8 12,-18 12,-31l0 -87c0,-12 -4,-23 -12,-31 -8,-8 -19,-13 -31,-13l-131 0zm109 -43c12,0 22,-4 31,-12 8,-8 13,-19 13,-32l0 -43c0,-12 -4,-23 -13,-31 -8,-8 -18,-13 -31,-13l-109 0 0 131 109 0zm410 239c0,7 -2,12 -6,16 -4,4 -9,5 -16,5 -5,0 -11,-1 -15,-5 -4,-4 -6,-9 -6,-16l0 -370 -71 0 -104 375c-1,5 -3,8 -7,12 -5,3 -9,4 -14,4 -6,0 -12,-1 -16,-5 -4,-4 -6,-9 -6,-15 0,-3 0,-6 1,-7l109 -391c3,-10 10,-16 20,-16l109 0c15,0 22,7 22,22l0 391zm129 -239l109 0c7,0 12,2 16,7 4,4 6,9 6,15 0,5 -2,10 -5,14 -4,5 -9,7 -17,7l-109 0 0 174 153 0c6,0 11,3 15,7 5,4 7,9 7,15 0,5 -2,10 -6,14 -3,5 -9,7 -16,7l-174 0c-15,0 -22,-6 -22,-20l0 -392c0,-15 7,-22 22,-22l174 0c6,0 11,2 15,7 5,4 7,9 7,15 0,5 -2,10 -6,14 -3,5 -9,7 -16,7l-153 0 0 131zm478 0l0 -152c0,-6 2,-11 7,-15 4,-5 9,-7 15,-7 5,0 10,2 15,6 4,3 6,9 6,16l0 390c0,6 -2,12 -6,17 -6,3 -11,5 -16,5 -5,0 -10,-1 -15,-5 -4,-3 -6,-9 -6,-16l0 -196 -174 0 0 196c0,7 -2,12 -6,16 -4,4 -9,5 -15,5 -6,0 -11,-1 -16,-5 -4,-4 -6,-9 -6,-16l0 -391c0,-6 2,-11 6,-16 5,-4 10,-6 16,-6 5,0 10,2 14,6 5,3 7,9 7,16l0 152 174 0zm391 239c0,7 -2,12 -7,16 -4,4 -9,5 -15,5 -6,0 -11,-1 -15,-5 -5,-4 -7,-9 -7,-16l0 -307 -176 317c-2,5 -6,8 -10,11l-4 2c-2,1 -4,2 -7,2 -4,0 -9,-2 -14,-6 -4,-5 -6,-11 -6,-19l0 -391c0,-6 2,-11 7,-16 4,-4 9,-6 15,-6 5,0 10,2 15,6 4,3 6,9 6,16l0 307 177 -317c2,-4 5,-7 9,-11 4,-3 8,-4 12,-4 4,0 9,2 13,7 4,4 7,10 7,18l0 391zm304 -196l0 -174 -131 0c-12,0 -22,4 -31,13 -4,4 -7,9 -9,14 -2,5 -3,11 -3,17l0 87c0,12 4,22 12,31 4,4 9,7 14,9 6,2 12,3 17,3l131 0zm-75 43l-103 164c-4,7 -10,10 -17,10 -6,0 -11,-2 -15,-6 -5,-5 -8,-10 -8,-16 0,-4 2,-8 4,-11l88 -141 -5 0c-23,0 -44,-8 -61,-25 -17,-17 -26,-37 -26,-61l0 -87c0,-24 9,-45 26,-62 17,-16 37,-25 61,-25l152 0c15,0 22,7 22,22l0 391c0,7 -2,12 -6,16 -4,4 -9,5 -16,5 -6,0 -11,-1 -15,-5 -4,-4 -6,-9 -6,-16l0 -153 -75 0zm725 153c0,7 -2,12 -6,16 -4,4 -9,5 -15,5 -6,0 -11,-1 -15,-5 -5,-4 -7,-9 -7,-16l0 -370 -174 0 0 370c0,7 -2,12 -6,16 -4,4 -9,5 -15,5 -6,0 -11,-1 -15,-5 -5,-4 -7,-9 -7,-16l0 -391c0,-15 7,-22 22,-22l217 0c14,0 21,7 21,22l0 391zm348 -65c0,23 -9,44 -26,61 -17,17 -37,25 -61,25l-87 0c-23,0 -44,-8 -61,-25 -17,-17 -26,-37 -26,-61l0 -261c0,-24 9,-45 26,-62 16,-16 37,-25 61,-25l87 0c24,0 45,9 61,26 17,17 26,37 26,61l0 261zm-43 0l0 -261c0,-12 -5,-23 -13,-31 -8,-8 -18,-13 -31,-13l-87 0c-12,0 -23,4 -31,13 -4,4 -7,9 -9,14 -2,5 -3,11 -3,17l0 261c0,12 4,22 12,31 4,4 9,7 14,9 6,2 12,3 17,3l87 0c12,0 22,-4 31,-12 8,-8 13,-18 13,-31zm620 86l-108 0c-24,0 -44,-8 -62,-25 -17,-17 -25,-37 -25,-61l0 -261c0,-24 8,-45 25,-62 17,-16 37,-25 62,-25l108 0c6,0 11,2 16,7 4,4 6,9 6,15 0,5 -2,9 -5,14 -4,5 -9,7 -17,7l-109 0c-12,0 -22,4 -31,13 -4,4 -7,9 -9,14 -2,5 -3,11 -3,17l0 261c0,12 4,22 12,31 5,4 9,7 14,9 7,2 12,3 17,3l109 0c6,0 11,3 16,7 4,4 6,9 6,15 0,5 -2,10 -5,14 -4,5 -9,7 -17,7zm369 -21c0,7 -2,12 -6,16 -4,4 -9,5 -16,5 -5,0 -10,-1 -15,-5 -4,-4 -6,-9 -6,-16l0 -307 -176 317c-3,5 -6,8 -10,11l-5 2c-1,1 -3,2 -6,2 -5,0 -9,-2 -15,-6 -3,-5 -5,-11 -5,-19l0 -391c0,-6 2,-11 6,-16 4,-4 9,-6 15,-6 6,0 11,2 15,6 5,3 7,9 7,16l0 307 176 -317c2,-4 5,-7 9,-11 4,-3 8,-4 12,-4 5,0 9,2 13,7 5,4 7,10 7,18l0 391zm282 21l-108 0c-24,0 -44,-8 -61,-25 -18,-17 -26,-37 -26,-61l0 -261c0,-24 8,-45 25,-62 17,-16 37,-25 62,-25l108 0c6,0 12,2 16,7 4,4 6,9 6,15 0,5 -2,9 -5,14 -4,5 -9,7 -17,7l-108 0c-13,0 -23,4 -32,13 -4,4 -7,9 -9,14 -2,5 -3,11 -3,17l0 261c0,12 4,22 12,31 5,4 10,7 14,9 7,2 12,3 18,3l108 0c6,0 12,3 16,7 4,4 6,9 6,15 0,5 -2,10 -5,14 -4,5 -9,7 -17,7zm217 -391l-87 0c-6,0 -12,-2 -16,-6 -3,-4 -5,-10 -5,-15 0,-5 1,-10 5,-15 4,-5 9,-7 16,-7l217 0c6,0 11,2 16,7 4,4 6,9 6,15 0,5 -2,9 -5,14 -4,5 -9,7 -17,7l-87 0 0 370c0,7 -2,12 -6,16 -4,4 -9,5 -15,5 -6,0 -11,-1 -15,-5 -5,-4 -7,-9 -7,-16l0 -370zm282 131l109 0c6,0 11,2 16,7 4,4 6,9 6,15 0,5 -2,10 -5,14 -4,5 -9,7 -17,7l-109 0 0 174 153 0c6,0 11,3 15,7 4,4 7,9 7,15 0,5 -2,10 -6,14 -4,5 -9,7 -16,7l-174 0c-15,0 -22,-6 -22,-20l0 -392c0,-15 7,-22 22,-22l174 0c6,0 11,2 15,7 4,4 7,9 7,15 0,5 -2,10 -6,14 -4,5 -9,7 -16,7l-153 0 0 131zm565 239c0,7 -2,12 -6,16 -4,4 -9,5 -16,5 -5,0 -9,-1 -14,-5 -5,-4 -7,-9 -7,-16l0 -310 -90 150c-5,9 -12,14 -19,14 -6,0 -12,-5 -19,-14l-90 -150 0 310c0,7 -2,12 -6,16 -4,4 -9,5 -16,5 -5,0 -10,-1 -15,-5 -4,-4 -6,-9 -6,-16l0 -389c0,-8 2,-14 6,-19 4,-4 8,-6 14,-6 4,0 7,1 10,3 3,2 7,6 10,11l112 186 112 -186c5,-9 11,-14 20,-14 5,0 10,2 14,7 4,4 6,11 6,18l0 389zm163 -87l-32 94c-1,4 -4,8 -8,11 -3,2 -7,3 -12,3 -5,0 -10,-2 -15,-6 -5,-3 -7,-8 -7,-15l2 -7 130 -391c5,-12 11,-19 21,-19 9,0 16,7 20,19l130 391 2 7c0,6 -3,11 -8,16 -4,3 -9,5 -15,5 -3,0 -6,0 -10,-2 -3,-1 -7,-5 -10,-12l-31 -94 -157 0zm143 -45l-64 -191 -64 191 128 0zm475 132c0,7 -2,12 -6,16 -4,4 -9,5 -15,5 -5,0 -10,-1 -15,-5 -5,-4 -7,-9 -7,-16l0 -310 -90 150c-5,9 -11,14 -19,14 -6,0 -12,-5 -18,-14l-91 -150 0 310c0,7 -2,12 -6,16 -4,4 -9,5 -15,5 -6,0 -11,-1 -15,-5 -5,-4 -7,-9 -7,-16l0 -389c0,-8 2,-14 6,-19 4,-4 9,-6 14,-6 4,0 7,1 10,3 3,2 7,6 10,11l112 186 112 -186c5,-9 12,-14 21,-14 5,0 9,2 14,7 3,4 5,11 5,18l0 389zm607 -65c0,23 -8,44 -25,61 -17,17 -37,25 -61,25l-87 0c-24,0 -44,-8 -61,-25 -17,-17 -26,-37 -26,-61l0 -261c0,-24 9,-45 25,-62 17,-16 38,-25 62,-25l87 0c24,0 44,9 61,26 17,17 25,37 25,61l0 261zm-43 0l0 -261c0,-12 -4,-23 -12,-31 -8,-8 -19,-13 -31,-13l-87 0c-12,0 -23,4 -31,13 -4,4 -7,9 -10,14 -2,5 -3,11 -3,17l0 261c0,12 4,22 13,31 4,4 9,7 14,9 6,2 12,3 17,3l87 0c12,0 22,-4 31,-12 8,-8 12,-18 12,-31zm425 65c0,7 -2,12 -6,16 -4,4 -9,5 -15,5 -6,0 -11,-1 -15,-5 -5,-4 -7,-9 -7,-16l0 -370 -174 0 0 370c0,7 -2,12 -6,16 -4,4 -9,5 -15,5 -6,0 -11,-1 -15,-5 -5,-4 -7,-9 -7,-16l0 -391c0,-15 7,-22 22,-22l217 0c14,0 21,7 21,22l0 391zm348 -65c0,23 -9,44 -26,61 -17,17 -37,25 -61,25l-87 0c-23,0 -44,-8 -61,-25 -17,-17 -26,-37 -26,-61l0 -261c0,-24 9,-45 26,-62 16,-16 37,-25 61,-25l87 0c24,0 45,9 61,26 17,17 26,37 26,61l0 261zm-44 0l0 -261c0,-12 -4,-23 -12,-31 -8,-8 -18,-13 -31,-13l-87 0c-12,0 -23,4 -31,13 -4,4 -7,9 -9,14 -2,5 -3,11 -3,17l0 261c0,12 4,22 12,31 4,4 9,7 14,9 6,2 12,3 17,3l87 0c12,0 22,-4 31,-12 8,-8 12,-18 12,-31zm384 -161c13,7 23,17 30,31 8,13 12,28 12,43l0 87c0,23 -9,44 -26,61 -17,17 -37,25 -61,25l-152 0c-15,0 -22,-7 -22,-21l0 -391c0,-15 7,-22 22,-22l130 0c24,0 45,9 62,26 17,17 25,37 25,61l0 43c0,10 -2,20 -5,29 -3,10 -8,19 -15,28zm-176 30l0 174 131 0c12,0 22,-4 31,-12 8,-8 12,-18 12,-31l0 -87c0,-12 -4,-23 -12,-31 -8,-8 -18,-13 -31,-13l-131 0zm109 -43c12,0 23,-4 31,-12 9,-8 13,-19 13,-32l0 -43c0,-12 -4,-23 -12,-31 -9,-8 -19,-13 -32,-13l-109 0 0 131 109 0zm239 0l109 0c6,0 11,2 15,7 5,4 7,9 7,15 0,5 -2,10 -6,14 -3,5 -9,7 -16,7l-109 0 0 174 152 0c6,0 11,3 16,7 4,4 6,9 6,15 0,5 -2,10 -5,14 -4,5 -9,7 -17,7l-174 0c-14,0 -21,-6 -21,-20l0 -392c0,-15 7,-22 21,-22l174 0c6,0 12,2 16,7 4,4 6,9 6,15 0,5 -2,10 -5,14 -4,5 -9,7 -17,7l-152 0 0 131zm608 260l-22 0 -304 0c-14,0 -22,-7 -22,-21l0 -391c0,-6 2,-11 7,-16 4,-4 9,-6 15,-6 5,0 11,2 15,6 4,3 7,9 7,16l0 369 108 0 0 -369c0,-6 2,-11 7,-16 4,-4 9,-6 15,-6 5,0 10,2 15,6 4,3 6,9 6,16l0 369 110 0 0 -369c0,-6 2,-11 6,-16 4,-4 9,-6 15,-6 6,0 10,2 15,5 5,4 7,10 7,17l0 369 21 0c15,0 22,7 22,22l0 65c0,6 -2,11 -7,16 -4,4 -9,6 -15,6 -5,0 -9,-2 -14,-6 -5,-3 -7,-9 -7,-16l0 -44zm173 -260l109 0c6,0 11,2 16,7 4,4 6,9 6,15 0,5 -2,10 -5,14 -4,5 -10,7 -17,7l-109 0 0 174 153 0c6,0 11,3 15,7 4,4 6,9 6,15 0,5 -1,10 -5,14 -4,5 -9,7 -16,7l-174 0c-15,0 -22,-6 -22,-20l0 -392c0,-15 7,-22 22,-22l174 0c6,0 11,2 15,7 4,4 6,9 6,15 0,5 -1,10 -5,14 -4,5 -9,7 -16,7l-153 0 0 131zm478 0l0 -152c0,-6 2,-11 6,-15 5,-5 10,-7 15,-7 6,0 11,2 15,6 5,3 7,9 7,16l0 390c0,6 -2,12 -7,17 -5,3 -10,5 -15,5 -5,0 -10,-1 -15,-5 -4,-3 -6,-9 -6,-16l0 -196 -174 0 0 196c0,7 -2,12 -6,16 -4,4 -9,5 -16,5 -5,0 -10,-1 -15,-5 -4,-4 -6,-9 -6,-16l0 -391c0,-6 2,-11 6,-16 5,-4 10,-6 15,-6 6,0 11,2 15,6 5,3 7,9 7,16l0 152 174 0zm390 239c0,7 -2,12 -6,16 -4,4 -9,5 -15,5 -6,0 -11,-1 -15,-5 -5,-4 -7,-9 -7,-16l0 -307 -176 317c-3,5 -6,8 -10,11l-4 2c-2,1 -4,2 -7,2 -4,0 -9,-2 -14,-6 -4,-5 -6,-11 -6,-19l0 -391c0,-6 2,-11 6,-16 5,-4 10,-6 16,-6 5,0 10,2 14,6 5,3 7,9 7,16l0 307 176 -317c2,-4 6,-7 10,-11 4,-3 8,-4 11,-4 5,0 10,2 14,7 4,4 6,10 6,18l0 391zm304 -196l0 -174 -130 0c-12,0 -23,4 -31,13 -4,4 -7,9 -10,14 -2,5 -3,11 -3,17l0 87c0,12 5,22 13,31 4,4 9,7 14,9 6,2 12,3 17,3l130 0zm-74 43l-103 164c-4,7 -10,10 -17,10 -6,0 -11,-2 -15,-6 -5,-5 -8,-10 -8,-16 0,-4 1,-8 4,-11l87 -141 -4 0c-23,0 -44,-8 -61,-25 -17,-17 -26,-37 -26,-61l0 -87c0,-24 9,-45 26,-62 16,-16 37,-25 61,-25l152 0c14,0 22,7 22,22l0 391c0,7 -2,12 -7,16 -3,4 -9,5 -15,5 -6,0 -11,-1 -15,-5 -4,-4 -7,-9 -7,-16l0 -153 -74 0z"/>
   <path class="fil2 str0" d="M13659 8440l131 0c12,0 22,-4 30,-13 9,-8 13,-18 13,-31l0 -87c0,-12 -4,-22 -12,-31 -8,-8 -19,-12 -31,-12l-131 0 0 174zm0 43l0 152c0,7 -2,12 -6,17 -4,3 -9,5 -15,5 -6,0 -11,-2 -16,-6 -4,-3 -6,-9 -6,-16l0 -391c0,-14 7,-22 22,-22l152 0c24,0 44,9 61,26 17,17 25,37 25,61l0 87c0,24 -8,44 -25,61 -17,17 -37,26 -62,26l-130 0zm565 152c0,7 -2,12 -7,17 -3,3 -9,5 -15,5 -6,0 -11,-2 -15,-6 -4,-3 -7,-9 -7,-16l0 -307 -176 318c-2,4 -5,8 -9,10l-5 3c-2,0 -4,1 -7,2 -4,-1 -9,-3 -14,-7 -4,-4 -6,-11 -6,-19l0 -391c0,-5 2,-11 7,-16 4,-3 9,-5 15,-5 5,0 10,2 15,5 4,4 6,9 6,16l0 307 177 -317c2,-3 5,-7 9,-10 4,-3 8,-5 12,-5 4,0 9,3 13,7 4,5 7,11 7,18l0 391zm282 22l-109 0c-23,0 -44,-9 -61,-25 -17,-17 -25,-38 -25,-62l0 -261c0,-24 8,-44 25,-61 17,-17 37,-26 61,-26l109 0c6,0 11,3 15,7 5,4 7,10 7,15 0,5 -2,10 -6,15 -3,4 -9,7 -16,7l-109 0c-12,0 -22,4 -31,12 -4,4 -7,9 -9,14 -2,6 -3,11 -3,17l0 261c0,12 4,23 12,31 5,4 9,7 14,10 6,2 12,3 17,3l109 0c6,0 11,2 15,6 5,5 7,10 7,15 0,5 -2,10 -6,15 -3,4 -9,7 -16,7zm326 -174l-131 0c-23,0 -44,-9 -61,-25 -17,-17 -26,-38 -26,-62l0 -152c0,-6 2,-11 7,-16 4,-4 9,-6 15,-6 5,0 11,2 15,6 4,3 7,9 7,16l0 152c0,12 4,23 12,31 4,4 9,7 14,10 6,2 12,3 17,3l131 0 0 -196c0,-6 2,-11 6,-16 4,-4 9,-6 15,-6 6,0 11,2 15,6 4,3 7,9 7,16l0 326c0,24 -9,44 -26,61 -17,17 -37,26 -61,26l-109 0c-6,0 -12,-2 -16,-6 -3,-5 -5,-10 -5,-16 0,-5 2,-10 5,-14 4,-5 10,-7 16,-7l109 0c12,0 22,-4 31,-13 8,-8 13,-18 13,-31l0 -87zm347 -87l0 -152c0,-6 2,-11 6,-15 5,-4 10,-7 15,-7 6,0 11,2 15,6 5,3 7,9 7,16l0 390c0,7 -2,12 -7,17 -5,4 -10,6 -15,6 -5,0 -10,-2 -15,-5 -4,-4 -6,-9 -6,-17l0 -195 -174 0 0 195c0,7 -2,12 -6,17 -4,3 -9,5 -16,5 -6,0 -11,-2 -15,-6 -4,-3 -6,-9 -6,-16l0 -391c0,-5 2,-11 6,-16 4,-3 9,-5 15,-5 6,0 11,2 15,5 5,4 7,9 7,16l0 152 174 0zm173 14l183 -182c4,-4 9,-6 15,-6 5,0 10,3 15,7 5,5 7,10 7,16 0,4 -2,8 -7,14l-129 129 134 236 3 12c0,5 -3,10 -8,14 -4,5 -9,7 -15,7 -7,0 -14,-4 -19,-12l-127 -226 -52 51 0 165c0,7 -2,12 -6,17 -4,3 -9,5 -16,5 -5,0 -10,-2 -15,-6 -4,-3 -6,-9 -6,-16l0 -391c0,-6 2,-11 7,-15 4,-4 9,-7 14,-7 6,0 11,2 16,5 4,4 6,10 6,17l0 166zm564 225c0,7 -2,12 -6,17 -4,3 -9,5 -15,5 -6,0 -11,-2 -15,-6 -5,-3 -7,-9 -7,-16l0 -307 -176 318c-3,4 -6,8 -10,10l-4 3c-2,0 -4,1 -7,2 -4,-1 -9,-3 -14,-7 -4,-4 -6,-11 -6,-19l0 -391c0,-5 2,-11 7,-16 4,-3 9,-5 15,-5 5,0 10,2 15,5 4,4 6,9 6,16l0 307 176 -317c3,-3 6,-7 10,-10 4,-3 8,-5 12,-5 4,0 9,3 13,7 4,5 6,11 6,18l0 391z"/>
   <path class="fil2 str0" d="M11115 9074l-152 0 0 370c0,7 -2,12 -6,16 -4,4 -9,6 -15,6 -6,0 -11,-2 -16,-6 -4,-3 -6,-9 -6,-16l0 -391c0,-15 7,-22 22,-22l174 0c5,0 11,2 15,7 4,4 6,9 6,15 0,5 -2,10 -5,14 -4,5 -9,7 -17,7zm152 174l130 0c13,0 23,-4 31,-12 9,-8 13,-18 13,-31l0 -87c0,-12 -4,-23 -12,-31 -8,-8 -19,-13 -32,-13l-130 0 0 174zm0 44l0 152c0,7 -2,12 -6,16 -4,4 -9,6 -16,6 -5,0 -10,-2 -15,-6 -4,-3 -6,-9 -6,-16l0 -391c0,-15 7,-22 22,-22l151 0c25,0 45,9 62,26 17,17 25,37 25,61l0 87c0,24 -8,44 -25,61 -17,17 -38,26 -62,26l-130 0zm337 65l-31 94c-2,4 -5,8 -9,11 -2,2 -6,3 -11,4 -6,0 -11,-3 -15,-7 -5,-3 -8,-8 -8,-15l2 -7 130 -391c5,-12 12,-19 21,-19 9,0 16,7 20,19l130 391 2 7c0,6 -3,11 -7,16 -5,4 -10,6 -15,6 -3,0 -7,-1 -10,-3 -4,-1 -7,-5 -10,-12l-32 -94 -157 0zm143 -45l-64 -191 -64 191 128 0zm320 -173l0 197 21 0c25,0 45,-9 62,-26 17,-17 25,-37 25,-62l0 -21c0,-24 -8,-44 -25,-62 -17,-17 -37,-26 -62,-26l-21 0zm-43 197l0 -197 -22 0c-24,0 -44,9 -61,26 -17,17 -26,37 -26,62l0 21c0,24 8,45 25,62 17,17 38,26 62,26l22 0zm0 43l-22 0c-36,0 -67,-13 -92,-38 -25,-25 -38,-56 -38,-93l0 -21c0,-36 13,-66 38,-92 25,-26 56,-39 92,-39l22 0 0 -43c0,-6 2,-11 6,-16 4,-4 9,-6 15,-6 6,0 11,2 15,6 5,3 7,9 7,16l0 43 21 0c36,0 67,13 92,38 12,13 22,27 28,42 7,16 11,32 11,51l0 21c0,36 -13,66 -38,92 -26,26 -56,39 -93,39l-21 0 0 65c0,7 -2,12 -6,16 -4,4 -9,6 -16,6 -6,0 -11,-2 -15,-6 -4,-3 -6,-9 -6,-16l0 -65zm542 65c0,7 -2,12 -6,16 -4,4 -9,6 -15,6 -6,0 -11,-2 -15,-6 -5,-3 -7,-9 -7,-16l0 -307 -176 317c-3,5 -6,8 -10,11l-4 3c-2,0 -4,1 -7,1 -4,0 -9,-2 -14,-6 -4,-5 -6,-11 -6,-19l0 -391c0,-6 2,-11 6,-16 5,-4 10,-6 16,-6 5,0 10,2 14,6 5,3 7,9 7,16l0 307 176 -317c2,-4 6,-7 10,-11 4,-3 8,-4 11,-4 5,0 10,2 14,7 4,4 6,10 6,18l0 391zm304 -196l0 -195c0,-6 2,-11 7,-16 4,-4 9,-6 15,-6 5,0 11,2 15,6 4,3 7,9 7,16l0 391c0,7 -2,12 -7,16 -3,4 -9,6 -15,6 -6,0 -11,-2 -15,-6 -5,-4 -7,-9 -7,-16l0 -152 -130 0c-24,0 -44,-9 -61,-26 -17,-17 -26,-37 -26,-61l0 -152c0,-6 2,-11 7,-16 4,-4 9,-6 15,-6 5,0 10,2 15,6 4,3 6,9 6,16l0 152c0,12 5,22 13,31 4,4 9,7 14,9 6,2 12,3 17,3l130 0zm174 -43l109 0c6,0 11,2 15,7 5,4 7,9 7,15 0,5 -2,10 -6,14 -3,5 -9,7 -16,7l-109 0 0 174 152 0c6,0 11,3 16,7 4,4 6,9 6,15 0,5 -2,10 -5,15 -4,4 -9,7 -17,7l-174 0c-14,0 -22,-7 -22,-21l0 -392c0,-15 8,-22 22,-22l174 0c6,0 11,2 16,7 4,4 6,9 6,15 0,5 -2,10 -5,14 -4,5 -9,7 -17,7l-152 0 0 131zm434 261l-109 0c-23,0 -44,-9 -61,-26 -17,-17 -26,-37 -26,-61l0 -261c0,-24 9,-45 26,-62 16,-16 37,-25 61,-25l109 0c6,0 11,2 15,7 4,4 7,9 7,15 0,5 -2,10 -6,14 -4,5 -9,7 -16,7l-109 0c-12,0 -23,4 -31,13 -4,4 -7,9 -9,14 -2,5 -4,11 -4,17l0 261c0,12 5,22 13,31 4,4 9,7 14,9 6,2 12,3 17,3l109 0c6,0 11,3 15,7 4,4 7,9 7,15 0,5 -2,10 -6,14 -4,5 -9,8 -16,8zm151 -248l183 -181c5,-4 10,-6 15,-6 6,0 11,2 15,7 5,4 7,9 7,16 0,3 -2,8 -6,14l-130 129 134 236 3 11c0,6 -2,11 -7,15 -5,4 -10,7 -16,7 -7,0 -13,-4 -18,-12l-128 -226 -52 51 0 165c0,7 -2,12 -6,16 -4,4 -9,6 -15,6 -6,0 -11,-2 -15,-6 -5,-4 -7,-9 -7,-16l0 -392c0,-5 2,-10 7,-14 4,-5 9,-7 15,-7 5,0 10,2 15,5 4,4 6,9 6,16l0 166zm565 226c0,7 -2,12 -6,16 -4,4 -10,6 -16,6 -6,0 -11,-2 -15,-6 -4,-3 -6,-9 -6,-16l0 -307 -177 317c-2,5 -5,8 -9,11l-5 3c-1,0 -4,1 -7,1 -4,0 -9,-2 -14,-6 -4,-5 -6,-11 -6,-19l0 -391c0,-6 2,-11 7,-16 4,-4 9,-6 15,-6 5,0 11,2 15,6 4,3 7,9 7,16l0 307 176 -317c2,-4 5,-7 9,-11 4,-3 8,-4 12,-4 5,0 9,2 13,7 5,4 7,10 7,18l0 391zm130 -239l109 0c6,0 11,2 15,7 5,4 7,9 7,15 0,5 -2,10 -6,14 -3,5 -9,7 -16,7l-109 0 0 174 152 0c6,0 12,3 16,7 4,4 6,9 6,15 0,5 -2,10 -5,15 -4,4 -9,7 -16,7l-175 0c-14,0 -21,-7 -21,-21l0 -392c0,-15 7,-22 21,-22l175 0c5,0 11,2 15,7 4,4 6,9 6,15 0,5 -2,10 -5,14 -4,5 -9,7 -17,7l-152 0 0 131zm781 239c0,7 -2,12 -6,16 -4,4 -9,6 -15,6 -6,0 -11,-2 -15,-6 -5,-3 -7,-9 -7,-16l0 -307 -176 317c-3,5 -6,8 -10,11l-4 3c-2,0 -4,1 -7,1 -4,0 -9,-2 -14,-6 -4,-5 -6,-11 -6,-19l0 -391c0,-6 2,-11 6,-16 5,-4 10,-6 16,-6 5,0 10,2 14,6 5,3 7,9 7,16l0 307 176 -317c2,-4 6,-7 10,-11 4,-3 7,-4 11,-4 5,0 10,2 14,7 4,4 6,10 6,18l0 391zm218 -196l-65 0c-7,0 -12,-2 -17,-6 -3,-4 -5,-9 -5,-15 0,-5 2,-10 6,-15 4,-5 9,-7 16,-7l65 0c12,0 22,-4 30,-12 9,-8 13,-19 13,-31l0 -44c0,-12 -4,-23 -12,-31 -8,-8 -19,-13 -31,-13l-44 0c-9,0 -18,3 -25,8 -7,5 -12,13 -16,22 -1,4 -3,8 -7,11 -1,1 -3,3 -6,4l-7 1c-6,0 -11,-2 -16,-6 -4,-4 -6,-10 -6,-16l1 -8c5,-17 16,-31 31,-42 15,-11 32,-17 51,-17l44 0c24,0 44,9 61,26 17,17 25,37 25,61l0 43c0,13 -2,25 -7,37 -5,11 -13,21 -22,29 20,16 29,38 29,65l0 87c0,23 -8,44 -25,61 -17,17 -37,26 -61,26l-44 0c-18,0 -35,-6 -50,-17 -15,-10 -26,-25 -32,-43l-1 -8c0,-6 2,-10 6,-15 4,-4 10,-6 16,-6 9,0 15,4 20,14 3,9 8,17 16,24 8,5 17,7 25,7l44 0c12,0 22,-4 30,-12 9,-8 13,-18 13,-31l0 -87c0,-13 -3,-23 -10,-31 -7,-8 -18,-13 -33,-13zm433 131c0,23 -8,44 -25,61 -17,17 -37,26 -61,26l-87 0c-24,0 -44,-9 -61,-26 -17,-17 -26,-37 -26,-61l0 -261c0,-24 8,-45 25,-62 17,-16 38,-25 62,-25l87 0c24,0 44,9 61,26 17,17 25,37 25,61l0 261zm-43 0l0 -261c0,-12 -4,-23 -12,-31 -8,-8 -19,-13 -31,-13l-87 0c-12,0 -23,4 -31,13 -5,4 -8,9 -10,14 -2,5 -3,11 -3,17l0 261c0,12 4,22 13,31 4,4 9,7 14,9 6,2 12,3 17,3l87 0c12,0 22,-4 30,-12 9,-8 13,-18 13,-31zm208 -131l0 174 131 0c12,0 22,-4 30,-12 9,-8 13,-18 13,-31l0 -87c0,-12 -4,-23 -12,-31 -8,-8 -19,-13 -31,-13l-131 0zm0 -43l130 0c24,0 44,9 62,25 17,17 25,38 25,62l0 87c0,24 -8,44 -25,61 -17,17 -38,26 -61,26l-152 0c-15,0 -22,-8 -22,-22l0 -391c0,-15 7,-22 22,-22l173 0c6,0 11,2 16,7 4,4 6,9 6,15 0,5 -2,10 -5,14 -4,5 -9,7 -17,7l-152 0 0 131zm347 43l131 0c12,0 22,-4 31,-12 8,-8 12,-18 12,-31l0 -87c0,-12 -4,-23 -12,-31 -8,-8 -19,-13 -31,-13l-131 0 0 174zm0 44l0 152c0,7 -2,12 -6,16 -4,4 -9,6 -15,6 -6,0 -11,-2 -15,-6 -5,-3 -7,-9 -7,-16l0 -391c0,-15 7,-22 22,-22l152 0c24,0 44,9 61,26 17,17 26,37 26,61l0 87c0,24 -9,44 -26,61 -17,17 -37,26 -61,26l-131 0zm337 65l-31 94c-2,4 -4,8 -8,11 -3,2 -7,3 -12,4 -6,0 -11,-3 -15,-7 -5,-3 -7,-8 -7,-15l1 -7 131 -391c4,-12 11,-19 20,-19 10,0 16,7 21,19l130 391 1 7c0,6 -2,11 -7,16 -4,4 -10,6 -15,6 -3,0 -6,-1 -10,-3 -3,-1 -7,-5 -10,-12l-31 -94 -158 0zm143 -45l-64 -191 -64 191 128 0zm367 -111l113 -160c1,-3 4,-5 7,-7 3,-2 7,-3 10,-3 6,0 11,2 16,7 4,4 7,9 7,15 0,4 -2,9 -5,13l-113 162 115 205c2,4 3,8 3,12 0,5 -3,9 -7,14 -4,4 -10,7 -16,7 -7,0 -13,-4 -19,-12l-111 -199 0 189c0,7 -2,12 -6,16 -4,4 -9,6 -15,6 -6,0 -11,-2 -15,-6 -5,-3 -7,-9 -7,-16l0 -188 -111 198c-2,3 -5,5 -8,8l-5 3 -6 1c-6,0 -11,-2 -16,-7 -4,-4 -6,-9 -6,-15 0,-2 1,-6 2,-11l116 -205 -114 -162c-2,-2 -3,-6 -4,-13 0,-6 2,-11 6,-15 5,-5 10,-7 16,-7 6,0 12,3 17,10l113 160 0 -148c0,-6 2,-11 7,-16 4,-4 9,-6 15,-6 5,0 10,2 15,6 4,3 6,9 6,16l0 148zm282 4l109 0c6,0 11,2 16,7 4,4 6,9 6,15 0,5 -2,10 -5,14 -4,5 -10,7 -17,7l-109 0 0 174 153 0c6,0 11,3 15,7 4,4 6,9 6,15 0,5 -1,10 -5,15 -4,4 -9,7 -16,7l-174 0c-15,0 -22,-7 -22,-21l0 -392c0,-15 7,-22 22,-22l174 0c6,0 11,2 15,7 4,4 6,9 6,15 0,5 -1,10 -5,14 -4,5 -9,7 -16,7l-153 0 0 131zm478 0l0 -152c0,-6 2,-11 6,-15 5,-5 10,-7 15,-7 6,0 11,2 15,6 5,3 7,9 7,16l0 390c0,6 -2,12 -7,17 -5,4 -10,6 -15,6 -5,0 -10,-2 -15,-6 -4,-3 -6,-9 -6,-16l0 -196 -174 0 0 196c0,7 -2,12 -6,16 -4,4 -9,6 -16,6 -5,0 -11,-2 -15,-6 -4,-3 -6,-9 -6,-16l0 -391c0,-6 2,-11 6,-16 4,-4 10,-6 15,-6 6,0 11,2 15,6 5,3 7,9 7,16l0 152 174 0zm390 239c0,7 -2,12 -6,16 -4,4 -9,6 -15,6 -6,0 -11,-2 -15,-6 -5,-3 -7,-9 -7,-16l0 -307 -176 317c-3,5 -6,8 -10,11l-4 3c-2,0 -4,1 -7,1 -4,0 -9,-2 -14,-6 -4,-5 -6,-11 -6,-19l0 -391c0,-6 2,-11 6,-16 5,-4 10,-6 15,-6 6,0 11,2 15,6 5,3 7,9 7,16l0 307 176 -317c2,-4 5,-7 10,-11 4,-3 7,-4 11,-4 5,0 10,2 14,7 4,4 6,10 6,18l0 391zm304 -196l0 -174 -130 0c-12,0 -23,4 -31,13 -4,4 -7,9 -10,14 -2,5 -3,11 -3,17l0 87c0,12 4,22 13,31 4,4 9,7 14,9 6,2 12,3 17,3l130 0zm-74 44l-103 163c-4,7 -10,11 -17,11 -6,0 -11,-3 -15,-7 -5,-5 -8,-10 -8,-15 0,-5 1,-9 4,-12l87 -140 -4 0c-24,0 -44,-9 -61,-26 -17,-17 -26,-37 -26,-61l0 -87c0,-24 9,-45 25,-62 17,-16 38,-25 62,-25l152 0c14,0 21,7 21,22l0 391c0,7 -2,12 -6,16 -4,4 -9,6 -15,6 -6,0 -11,-2 -15,-6 -5,-4 -7,-9 -7,-16l0 -152 -74 0z"/>
   <path class="fil2 str0" d="M13117 10026c12,7 22,18 30,31 7,14 11,28 11,43l0 87c0,24 -8,44 -25,61 -17,17 -38,26 -62,26l-151 0c-15,0 -22,-7 -22,-22l0 -391c0,-14 7,-22 22,-22l130 0c24,0 44,9 61,26 17,17 26,37 26,61l0 44c0,10 -2,19 -5,29 -3,9 -8,18 -15,27zm-176 31l0 174 131 0c12,0 22,-4 30,-13 9,-8 13,-18 13,-31l0 -87c0,-12 -4,-22 -12,-31 -8,-8 -19,-12 -31,-12l-131 0zm109 -44c12,0 22,-4 31,-12 8,-8 12,-18 12,-31l0 -44c0,-12 -4,-22 -12,-31 -8,-8 -18,-12 -31,-12l-109 0 0 130 109 0zm455 239c0,7 -2,12 -6,16 -4,4 -9,6 -15,6 -6,0 -11,-2 -15,-6 -5,-3 -7,-9 -7,-16l0 -307 -176 318c-2,4 -6,8 -10,10l-4 3c-2,0 -4,1 -7,1 -4,0 -9,-2 -14,-6 -4,-4 -6,-11 -6,-19l0 -391c0,-5 2,-11 7,-16 4,-3 9,-5 15,-5 5,0 10,2 15,5 4,4 6,9 6,16l0 307 176 -317c3,-4 6,-7 10,-10 4,-3 8,-5 12,-5 4,0 9,2 13,7 4,5 6,11 6,18l0 391zm133 -21l41 -372c0,-13 7,-20 22,-20l130 0c14,0 22,8 22,22l0 370 22 0c14,0 21,7 21,21l0 43c0,6 -2,11 -6,16 -5,4 -10,6 -15,6 -5,0 -10,-2 -15,-5 -4,-4 -7,-9 -7,-17l0 -21 -217 0 0 21c0,6 -3,11 -7,16 -5,4 -10,6 -15,6 -5,0 -10,-2 -15,-5 -4,-4 -7,-9 -7,-17l0 -43c0,-14 8,-21 22,-21l24 0zm171 0l0 -348 -89 0 -39 348 128 0zm217 -218l109 0c6,0 11,3 16,7 4,4 6,10 6,15 0,5 -2,10 -5,15 -4,4 -9,7 -17,7l-109 0 0 174 153 0c6,0 11,2 15,6 4,5 7,10 7,15 0,5 -2,10 -6,15 -4,4 -9,7 -16,7l-174 0c-15,0 -22,-7 -22,-21l0 -392c0,-14 7,-22 22,-22l174 0c6,0 11,3 15,7 4,4 7,10 7,15 0,5 -2,10 -6,15 -4,4 -9,7 -16,7l-153 0 0 130zm499 174c0,24 -8,44 -25,61 -17,17 -38,26 -62,26l-86 0c-24,0 -44,-9 -61,-26 -18,-16 -26,-37 -26,-61l0 -261c0,-24 8,-44 25,-61 17,-17 37,-26 62,-26l86 0c24,0 45,9 62,26 17,17 25,37 25,61l0 261zm-43 0l0 -261c0,-12 -4,-22 -12,-31 -8,-8 -19,-12 -32,-12l-87 0c-12,0 -22,4 -31,12 -4,4 -7,9 -9,14 -2,5 -3,11 -3,17l0 261c0,12 4,23 12,31 5,4 9,7 14,10 7,2 12,3 17,3l87 0c13,0 23,-4 31,-13 9,-8 13,-18 13,-31zm208 -130l130 0c12,0 23,-4 31,-13 9,-8 13,-18 13,-31l0 -87c0,-12 -4,-22 -12,-31 -9,-8 -19,-12 -32,-12l-130 0 0 174zm0 43l0 152c0,7 -2,12 -6,16 -4,4 -9,6 -16,6 -5,0 -10,-2 -15,-6 -4,-3 -6,-9 -6,-16l0 -391c0,-14 7,-22 21,-22l152 0c24,0 45,9 62,26 17,17 25,37 25,61l0 87c0,24 -8,44 -25,61 -17,17 -38,26 -62,26l-130 0zm564 87c0,24 -8,44 -25,61 -17,17 -38,26 -61,26l-87 0c-24,0 -44,-9 -61,-26 -17,-16 -26,-37 -26,-61l0 -261c0,-24 8,-44 25,-61 17,-17 38,-26 62,-26l87 0c24,0 44,9 61,26 17,17 25,37 25,61l0 261zm-43 0l0 -261c0,-12 -4,-22 -12,-31 -8,-8 -19,-12 -31,-12l-87 0c-13,0 -23,4 -31,12 -5,4 -8,9 -10,14 -2,5 -3,11 -3,17l0 261c0,12 4,23 13,31 4,4 9,7 14,10 6,2 11,3 17,3l87 0c12,0 22,-4 30,-13 9,-8 13,-18 13,-31zm383 65c0,7 -2,12 -7,16 -4,4 -9,6 -15,6 -6,0 -11,-2 -15,-6 -5,-3 -7,-9 -7,-16l0 -369 -70 0 -105 375c0,4 -3,8 -7,11 -4,3 -8,5 -13,5 -7,0 -12,-2 -16,-6 -4,-3 -6,-8 -6,-15 0,-3 0,-5 1,-7l108 -390c3,-11 10,-17 21,-17l109 0c14,0 22,8 22,22l0 391zm346 0c0,7 -2,12 -6,16 -4,4 -9,6 -15,6 -6,0 -11,-2 -16,-6 -4,-3 -6,-9 -6,-16l0 -307 -176 318c-3,4 -6,8 -10,10l-5 3c-1,0 -3,1 -6,1 -4,0 -9,-2 -15,-6 -3,-4 -5,-11 -5,-19l0 -391c0,-5 2,-11 6,-16 5,-3 10,-5 15,-5 6,0 11,2 15,5 5,4 7,9 7,16l0 307 176 -317c2,-4 5,-7 9,-10 4,-3 8,-5 12,-5 5,0 9,2 14,7 4,5 6,11 6,18l0 391zm130 -225l183 -182c5,-4 10,-6 15,-6 6,0 10,3 15,7 5,5 7,10 7,16 0,3 -2,8 -6,14l-130 129 134 236 3 12c0,5 -3,10 -7,14 -5,5 -10,7 -16,7 -7,0 -13,-4 -19,-12l-127 -226 -52 51 0 165c0,7 -2,12 -6,16 -4,4 -9,6 -15,6 -6,0 -11,-2 -16,-6 -4,-3 -6,-9 -6,-16l0 -391c0,-6 2,-11 7,-15 4,-4 9,-7 15,-7 5,0 10,2 15,5 4,4 6,10 6,17l0 166zm565 225c0,7 -2,12 -7,16 -3,4 -9,6 -15,6 -6,0 -11,-2 -15,-6 -4,-3 -7,-9 -7,-16l0 -307 -176 318c-2,4 -5,8 -9,10l-5 3c-2,0 -4,1 -7,1 -4,0 -9,-2 -14,-6 -4,-4 -6,-11 -6,-19l0 -391c0,-5 2,-11 7,-16 4,-3 9,-5 15,-5 5,0 10,2 15,5 4,4 6,9 6,16l0 307 177 -317c2,-4 5,-7 9,-10 4,-3 8,-5 12,-5 4,0 9,2 13,7 4,5 7,11 7,18l0 391z"/>
   <path class="fil2 str0" d="M7077 16066l-144 0c-26,0 -49,-10 -68,-28 -19,-19 -29,-42 -29,-69l0 -168c0,-7 3,-13 7,-18 5,-4 11,-7 17,-7 6,0 12,2 17,6 5,4 7,11 7,19l0 169c0,13 5,25 14,34 5,4 10,8 16,10 6,3 13,4 18,4l145 0 0 -217c0,-7 3,-13 8,-18 4,-4 10,-7 16,-7 7,0 12,2 17,6 5,4 7,11 7,19l0 362c0,26 -9,49 -28,68 -19,19 -41,28 -68,28l-120 0c-8,0 -14,-2 -18,-7 -4,-5 -7,-10 -7,-17 0,-6 3,-11 7,-16 4,-5 10,-8 18,-8l120 0c14,0 25,-4 34,-13 10,-9 14,-21 14,-35l0 -97zm362 193l-120 0c-27,0 -49,-9 -68,-28 -19,-19 -29,-42 -29,-68l0 -290c0,-27 9,-50 28,-68 19,-19 42,-29 69,-29l120 0c7,0 13,3 17,8 5,5 7,10 7,16 0,6 -2,11 -6,17 -4,5 -10,7 -18,7l-121 0c-13,0 -25,5 -34,14 -5,5 -8,10 -11,16 -2,6 -3,12 -3,19l0 290c0,13 5,25 14,34 5,4 10,8 15,11 7,2 14,3 19,3l121 0c7,0 13,3 17,7 5,5 7,11 7,17 0,6 -2,11 -6,16 -4,5 -10,8 -18,8zm241 -435l-96 0c-8,0 -14,-2 -18,-6 -4,-5 -6,-11 -6,-18 0,-5 2,-10 6,-16 4,-5 10,-8 18,-8l241 0c6,0 12,3 17,8 5,5 7,10 7,16 0,6 -2,11 -6,17 -4,5 -10,7 -18,7l-97 0 0 411c0,7 -2,14 -7,18 -4,4 -10,6 -17,6 -6,0 -12,-2 -17,-6 -4,-4 -7,-10 -7,-18l0 -411zm507 146l0 -170c0,-6 2,-12 7,-16 5,-5 10,-8 17,-8 6,0 11,2 16,6 5,4 8,11 8,19l0 433c0,7 -3,13 -8,18 -6,5 -11,7 -17,7 -6,0 -11,-2 -16,-6 -5,-4 -7,-10 -7,-18l0 -217 -194 0 0 217c0,7 -2,14 -6,18 -5,4 -11,6 -18,6 -6,0 -12,-2 -16,-6 -5,-4 -8,-10 -8,-18l0 -434c0,-7 3,-13 8,-18 4,-4 10,-6 16,-6 7,0 12,2 17,6 5,4 7,10 7,18l0 169 194 0zm482 265c0,7 -2,14 -7,18 -4,4 -10,6 -17,6 -6,0 -12,-2 -17,-6 -4,-4 -7,-10 -7,-18l0 -434c0,-7 3,-13 7,-18 5,-4 11,-7 17,-7 6,0 12,2 17,6 5,4 7,11 7,19l0 434zm-290 -217l0 193 97 0c14,0 25,-4 34,-13 10,-9 15,-21 15,-35l0 -97c0,-14 -5,-25 -14,-34 -9,-10 -21,-14 -35,-14l-97 0zm0 -48l97 0c26,0 49,9 68,28 19,19 29,41 29,68l0 97c0,26 -10,49 -29,68 -19,19 -41,28 -68,28l-121 0c-16,0 -24,-8 -24,-24l0 -434c0,-7 3,-13 7,-18 5,-4 11,-7 17,-7 6,0 12,2 17,6 5,5 7,11 7,19l0 169zm434 0l122 0c6,0 12,2 17,7 4,5 7,11 7,17 0,6 -2,11 -6,16 -4,5 -10,8 -18,8l-122 0 0 193 170 0c7,0 12,3 17,7 5,5 7,11 7,17 0,6 -2,11 -6,16 -4,5 -10,8 -18,8l-194 0c-16,0 -24,-8 -24,-23l0 -435c0,-17 8,-25 24,-25l194 0c7,0 12,3 17,8 5,5 7,10 7,16 0,6 -2,12 -6,17 -4,5 -10,7 -18,7l-170 0 0 146zm797 289l-121 0c-26,0 -49,-9 -68,-28 -19,-19 -29,-42 -29,-68l0 -290c0,-27 10,-50 28,-68 19,-19 42,-29 69,-29l121 0c6,0 12,3 17,8 4,5 7,10 7,16 0,6 -2,11 -6,17 -4,5 -10,7 -19,7l-120 0c-14,0 -25,5 -35,14 -5,5 -8,10 -10,16 -3,6 -4,12 -4,19l0 290c0,13 5,25 14,34 5,4 10,8 16,11 6,2 13,3 19,3l120 0c7,0 13,3 18,7 4,5 7,11 7,17 0,6 -2,11 -6,16 -4,5 -10,8 -18,8zm387 -96c0,26 -9,49 -28,68 -19,19 -41,28 -68,28l-96 0c-27,0 -49,-9 -68,-28 -19,-19 -29,-42 -29,-68l0 -290c0,-27 10,-50 28,-68 19,-19 42,-29 69,-29l96 0c27,0 50,10 68,29 19,19 28,41 28,68l0 290zm-48 0l0 -290c0,-14 -4,-25 -13,-35 -9,-9 -21,-14 -35,-14l-97 0c-13,0 -25,5 -34,14 -5,5 -8,10 -10,16 -3,6 -4,12 -4,19l0 290c0,13 5,25 14,34 5,4 10,8 16,11 6,2 13,3 18,3l97 0c14,0 25,-4 34,-13 10,-9 14,-21 14,-35zm473 0c0,26 -10,49 -28,68 -19,19 -42,28 -69,28l-96 0c-26,0 -49,-9 -68,-28 -19,-19 -28,-42 -28,-68l0 -290c0,-27 9,-50 28,-68 18,-19 41,-29 68,-29l96 0c27,0 50,10 69,29 18,19 28,41 28,68l0 290zm-48 0l0 -290c0,-14 -5,-25 -14,-35 -9,-9 -20,-14 -34,-14l-97 0c-14,0 -25,5 -35,14 -4,5 -8,10 -10,16 -2,6 -3,12 -3,19l0 290c0,13 4,25 13,34 5,4 10,8 16,11 7,2 13,3 19,3l97 0c13,0 24,-4 34,-13 9,-9 14,-21 14,-35zm231 -145l0 193 145 0c13,0 25,-4 34,-13 10,-9 14,-21 14,-35l0 -97c0,-14 -4,-25 -13,-34 -9,-10 -21,-14 -35,-14l-145 0zm0 -48l145 0c26,0 48,9 68,28 19,19 28,41 28,68l0 97c0,26 -9,49 -28,68 -19,19 -42,28 -68,28l-169 0c-16,0 -24,-8 -24,-24l0 -434c0,-17 8,-25 24,-25l193 0c7,0 12,3 17,8 5,5 7,10 7,16 0,6 -2,11 -6,17 -4,5 -10,7 -18,7l-169 0 0 146zm724 289l-24 0 -338 0c-16,0 -24,-8 -24,-24l0 -434c0,-7 2,-13 7,-18 5,-4 10,-7 17,-7 6,0 12,2 16,6 5,5 8,11 8,19l0 410 120 0 0 -410c0,-7 3,-13 8,-18 4,-4 10,-7 16,-7 6,0 12,2 17,6 5,5 7,11 7,19l0 410 122 0 0 -410c0,-7 2,-13 7,-18 5,-4 10,-7 17,-7 6,0 11,2 17,6 4,4 7,11 7,19l0 410 24 0c16,0 24,8 24,24l0 73c0,6 -3,12 -8,17 -5,4 -10,7 -16,7 -6,0 -11,-2 -16,-6 -6,-4 -8,-10 -8,-19l0 -48zm192 -289l122 0c6,0 12,2 17,7 5,5 7,11 7,17 0,6 -2,11 -6,16 -4,5 -10,8 -18,8l-122 0 0 193 170 0c7,0 12,3 17,7 5,5 7,11 7,17 0,6 -2,11 -6,16 -4,5 -10,8 -18,8l-194 0c-16,0 -24,-8 -24,-23l0 -435c0,-17 8,-25 24,-25l194 0c7,0 12,3 17,8 5,5 7,10 7,16 0,6 -2,12 -6,17 -4,5 -10,7 -18,7l-170 0 0 146zm531 0l0 -170c0,-6 3,-12 7,-16 5,-5 11,-8 17,-8 6,0 12,2 17,6 5,4 7,11 7,19l0 433c0,7 -2,13 -7,18 -6,5 -12,7 -17,7 -6,0 -12,-2 -17,-6 -5,-4 -7,-10 -7,-18l0 -217 -193 0 0 217c0,7 -2,14 -7,18 -4,4 -10,6 -17,6 -6,0 -12,-2 -17,-6 -5,-4 -7,-10 -7,-18l0 -434c0,-7 2,-13 7,-18 5,-4 11,-6 17,-6 6,0 12,2 17,6 4,4 7,10 7,18l0 169 193 0zm434 265c0,7 -2,14 -7,18 -4,4 -10,6 -17,6 -6,0 -12,-2 -17,-6 -5,-4 -7,-10 -7,-18l0 -341 -196 353c-3,5 -6,8 -10,11l-6 3c-1,1 -4,2 -7,2 -5,0 -10,-2 -16,-7 -4,-5 -6,-12 -6,-21l0 -434c0,-7 2,-13 7,-18 5,-4 10,-6 17,-6 6,0 12,2 16,6 5,4 8,10 8,18l0 341 196 -353c2,-4 5,-8 10,-11 4,-4 9,-5 13,-5 5,0 10,2 15,8 5,4 7,11 7,20l0 434zm338 -217l0 -194 -145 0c-14,0 -25,5 -35,14 -4,5 -8,10 -10,16 -2,6 -3,12 -3,19l0 96c0,14 4,25 13,35 5,4 10,8 16,10 7,3 13,4 19,4l145 0zm-83 48l-114 182c-5,7 -11,11 -19,11 -6,0 -12,-3 -17,-8 -6,-4 -8,-10 -8,-16 0,-5 1,-10 3,-13l98 -156 -5 0c-26,0 -49,-10 -68,-28 -19,-19 -28,-42 -28,-69l0 -96c0,-27 9,-50 28,-68 18,-19 41,-29 68,-29l169 0c16,0 24,8 24,25l0 434c0,7 -2,14 -7,18 -4,4 -10,6 -17,6 -6,0 -12,-2 -17,-6 -5,-4 -7,-10 -7,-18l0 -169 -83 0z"/>
   <path class="fil3 str1" d="M1569 7066l-116 0c-8,0 -15,-2 -21,-8 -5,-6 -7,-13 -7,-21 0,-6 2,-13 7,-19 5,-6 12,-9 21,-9l290 0c8,0 15,3 20,8 6,6 9,13 9,20 0,7 -3,13 -7,20 -5,6 -13,9 -22,9l-116 0 0 493c0,9 -3,16 -8,22 -5,4 -12,7 -21,7 -7,0 -14,-3 -20,-8 -6,-4 -9,-12 -9,-21l0 -493zm376 175l146 0c8,0 15,2 20,8 6,6 9,13 9,20 0,7 -3,14 -8,20 -4,6 -12,9 -21,9l-146 0 0 232 204 0c8,0 14,3 20,9 6,6 9,13 9,20 0,7 -3,13 -8,19 -4,7 -12,10 -21,10l-233 0c-19,0 -28,-10 -28,-28l0 -523c0,-19 9,-28 28,-28l233 0c8,0 15,3 20,8 6,6 9,13 9,20 0,7 -3,14 -8,20 -4,6 -12,9 -21,9l-204 0 0 175zm405 17l244 -242c6,-5 13,-7 20,-7 7,0 14,3 20,8 7,6 10,13 10,21 0,5 -3,12 -9,20l-173 172 178 314 4 16c0,7 -3,13 -9,19 -6,6 -13,9 -21,9 -10,0 -18,-5 -25,-16l-170 -301 -69 67 0 221c0,9 -2,16 -8,22 -5,4 -12,7 -21,7 -7,0 -14,-3 -20,-8 -5,-4 -8,-12 -8,-21l0 -522c0,-8 3,-14 9,-20 5,-6 12,-8 19,-8 8,0 15,2 21,6 5,5 8,12 8,22l0 221zm637 330l-145 0c-31,0 -58,-12 -81,-34 -23,-22 -35,-50 -35,-82l0 -348c0,-32 12,-59 34,-82 22,-22 50,-33 82,-33l145 0c8,0 15,3 21,8 5,6 8,13 8,20 0,7 -2,13 -7,20 -5,6 -12,9 -22,9l-145 0c-16,0 -30,6 -42,17 -5,5 -9,11 -12,19 -3,7 -4,14 -4,22l0 348c0,16 5,30 16,42 6,5 13,9 19,12 8,3 16,4 23,4l145 0c8,0 15,3 21,9 5,6 8,13 8,20 0,7 -2,13 -7,19 -5,7 -12,10 -22,10zm289 -522l-116 0c-8,0 -16,-2 -21,-8 -5,-6 -8,-13 -8,-21 0,-6 3,-13 8,-19 4,-6 12,-9 21,-9l290 0c8,0 14,3 20,8 6,6 9,13 9,20 0,7 -3,13 -8,20 -4,6 -12,9 -21,9l-116 0 0 493c0,9 -3,16 -8,22 -6,4 -13,7 -21,7 -8,0 -14,-3 -20,-8 -6,-4 -9,-12 -9,-21l0 -493zm636 406c0,32 -11,59 -34,82 -22,22 -50,34 -81,34l-116 0c-32,0 -59,-12 -82,-34 -22,-22 -34,-50 -34,-82l0 -348c0,-32 11,-59 34,-82 22,-22 50,-33 82,-33l116 0c32,0 59,11 82,33 22,23 33,50 33,82l0 348zm-57 0l0 -348c0,-16 -6,-30 -17,-41 -11,-11 -25,-17 -41,-17l-116 0c-17,0 -30,6 -42,17 -5,5 -9,11 -12,19 -3,7 -4,14 -4,22l0 348c0,16 5,30 16,42 6,5 12,9 19,12 8,3 16,4 23,4l116 0c16,0 29,-5 41,-16 11,-11 17,-25 17,-42zm511 -215c17,10 30,24 40,42 10,18 16,37 16,57l0 116c0,32 -12,59 -34,82 -23,22 -50,34 -82,34l-203 0c-19,0 -29,-10 -29,-29l0 -522c0,-19 10,-28 29,-28l174 0c32,0 60,11 82,33 22,23 34,50 34,82l0 58c0,14 -2,26 -6,39 -5,12 -11,24 -21,36zm-234 41l0 232 174 0c16,0 30,-5 41,-16 11,-11 17,-25 17,-42l0 -116c0,-16 -6,-30 -16,-41 -11,-11 -25,-17 -42,-17l-174 0zm145 -58c16,0 30,-5 41,-16 11,-11 17,-25 17,-42l0 -58c0,-16 -5,-30 -16,-41 -11,-11 -25,-17 -42,-17l-145 0 0 175 145 -1zm666 319c0,9 -3,16 -8,22 -5,4 -12,7 -21,7 -7,0 -14,-3 -20,-8 -6,-4 -9,-12 -9,-21l0 -522c0,-7 3,-14 9,-21 6,-5 13,-7 20,-7 7,0 14,2 20,7 6,5 9,12 9,21l0 522zm-348 -261l0 232 116 0c16,0 30,-5 41,-16 12,-11 17,-25 17,-42l0 -116c0,-16 -5,-30 -16,-41 -11,-11 -25,-17 -42,-17l-116 0zm0 -57l116 0c31,0 59,11 81,33 23,23 35,50 35,82l0 116c0,32 -11,59 -34,82 -23,22 -50,34 -82,34l-145 0c-19,0 -29,-10 -29,-29l0 -522c0,-7 3,-14 9,-21 6,-5 13,-7 20,-7 7,0 14,2 20,7 6,5 9,12 9,21l0 204zm521 0l145 0c8,0 15,2 21,8 6,6 8,13 8,20 0,7 -2,14 -7,20 -5,6 -12,9 -22,9l-145 0 0 232 203 0c8,0 15,3 21,9 6,6 8,13 8,20 0,7 -2,13 -7,19 -5,7 -12,10 -22,10l-232 0c-19,0 -29,-10 -29,-28l0 -523c0,-19 10,-28 29,-28l232 0c8,0 15,3 21,8 6,6 8,13 8,20 0,7 -2,14 -7,20 -5,6 -12,9 -22,9l-203 0 0 175zm955 -89l0 263 28 0c32,0 60,-11 82,-34 23,-23 34,-50 34,-83l0 -29c0,-31 -11,-58 -33,-82 -23,-23 -50,-35 -83,-35l-28 0zm-58 263l0 -263 -29 0c-31,0 -59,12 -82,34 -22,23 -34,51 -34,83l0 29c0,32 11,60 34,83 23,23 50,34 82,34l29 0zm0 58l-29 0c-48,0 -89,-17 -123,-51 -33,-34 -50,-75 -50,-124l0 -29c0,-47 17,-88 50,-122 34,-35 75,-52 123,-52l29 0 0 -58c0,-7 3,-14 9,-21 5,-5 12,-7 20,-7 7,0 14,2 20,7 6,5 9,12 9,21l0 58 28 0c48,0 89,17 123,51 16,16 28,35 37,56 9,20 14,43 14,67l0 29c0,47 -17,88 -51,123 -33,34 -74,52 -123,52l-28 0 0 86c0,9 -3,16 -9,22 -5,4 -12,7 -20,7 -8,0 -15,-3 -20,-8 -6,-4 -9,-12 -9,-21l0 -86zm724 -1c0,32 -12,59 -34,82 -23,22 -50,34 -82,34l-116 0c-31,0 -58,-12 -81,-34 -23,-22 -35,-50 -35,-82l0 -348c0,-32 12,-59 34,-82 23,-22 50,-33 82,-33l116 0c32,0 59,11 82,33 22,23 34,50 34,82l0 348zm-58 0l0 -348c0,-16 -5,-30 -16,-41 -11,-11 -25,-17 -42,-17l-116 0c-16,0 -30,6 -41,17 -6,5 -10,11 -13,19 -3,7 -4,14 -4,22l0 348c0,16 6,30 17,42 5,5 12,9 18,12 8,3 16,4 23,4l116 0c16,0 30,-5 41,-16 11,-11 17,-25 17,-42zm277 -174l174 0c16,0 30,-5 41,-16 12,-11 17,-25 17,-42l0 -116c0,-16 -5,-30 -16,-41 -11,-11 -25,-17 -42,-17l-174 0 0 232zm0 58l0 203c0,9 -2,16 -8,22 -5,4 -12,7 -20,7 -8,0 -15,-3 -21,-8 -5,-4 -8,-12 -8,-21l0 -522c0,-19 9,-28 29,-28l202 0c32,0 60,11 82,33 23,23 34,50 34,82l0 116c0,32 -11,59 -34,82 -23,22 -50,34 -82,34l-174 0zm811 203c0,9 -2,16 -7,22 -6,4 -13,7 -22,7 -6,0 -13,-3 -19,-8 -6,-4 -9,-12 -9,-21l0 -414 -120 201c-7,12 -16,18 -25,18 -9,0 -17,-6 -25,-18l-121 -201 0 414c0,9 -2,16 -8,22 -5,4 -12,7 -21,7 -7,0 -14,-3 -20,-8 -5,-4 -8,-12 -8,-21l0 -519c0,-11 3,-19 8,-24 5,-6 11,-9 18,-9 5,0 10,1 14,4 4,3 9,8 13,14l150 249 148 -249c7,-12 16,-18 28,-18 7,0 13,3 19,9 5,6 7,14 7,24l0 519zm521 0c0,9 -3,16 -8,22 -5,4 -12,7 -21,7 -7,0 -14,-3 -20,-8 -6,-4 -8,-12 -8,-21l0 -522c0,-7 2,-14 8,-21 6,-5 13,-7 20,-7 8,0 14,2 20,7 6,5 9,12 9,21l0 522zm-348 -261l0 232 116 0c16,0 30,-5 41,-16 12,-11 18,-25 18,-42l0 -116c0,-16 -6,-30 -17,-41 -11,-11 -25,-17 -42,-17l-116 0zm0 -57l116 0c32,0 59,11 82,33 23,23 34,50 34,82l0 116c0,32 -11,59 -34,82 -22,22 -50,34 -82,34l-145 0c-19,0 -28,-10 -28,-29l0 -522c0,-7 2,-14 8,-21 6,-5 13,-7 20,-7 8,0 14,2 20,7 6,5 9,12 9,21l0 204z"/>
   <path class="fil3 str1" d="M11344 7256c16,10 30,24 40,42 10,18 15,37 15,57l0 116c0,32 -11,59 -34,82 -22,22 -50,34 -82,34l-202 0c-19,0 -29,-10 -29,-29l0 -521c0,-20 10,-29 29,-29l174 0c32,0 59,11 82,34 22,22 33,50 33,82l0 57c0,14 -2,27 -6,39 -4,12 -11,25 -20,36zm-234 41l0 232 174 0c16,0 29,-5 41,-16 11,-11 17,-25 17,-42l0 -116c0,-16 -6,-30 -17,-41 -11,-11 -25,-17 -41,-17l-174 0zm145 -57c16,0 29,-6 41,-17 11,-10 17,-24 17,-42l0 -58c0,-16 -6,-30 -17,-41 -11,-11 -24,-17 -41,-17l-145 0 0 175 145 0zm607 318c0,9 -3,16 -8,22 -5,4 -12,7 -21,7 -7,0 -14,-3 -20,-7 -6,-5 -8,-12 -8,-22l0 -409 -235 423c-4,6 -8,11 -13,14l-6 4c-2,0 -5,1 -10,2 -5,0 -11,-3 -19,-9 -5,-6 -7,-14 -7,-25l0 -521c0,-8 3,-15 9,-21 5,-5 12,-8 20,-8 7,0 14,3 20,7 6,5 9,12 9,22l0 409 234 -423c3,-5 7,-9 13,-14 5,-4 10,-6 16,-6 6,0 12,3 17,10 6,6 9,14 9,24l0 521zm290 -261l-87 0c-9,0 -16,-2 -21,-8 -5,-6 -8,-13 -8,-20 0,-7 3,-14 8,-20 5,-6 12,-9 21,-9l87 0c16,0 30,-6 41,-16 11,-11 17,-25 17,-42l0 -59c0,-16 -6,-30 -16,-41 -11,-11 -25,-17 -42,-17l-58 0c-13,0 -24,4 -33,11 -10,7 -17,16 -22,29 -1,6 -4,10 -9,14 -2,2 -5,4 -8,5l-9 2c-8,0 -16,-3 -22,-8 -6,-6 -9,-13 -9,-21l2 -10c7,-23 21,-42 42,-57 20,-15 43,-22 68,-22l58 0c32,0 59,11 82,34 22,22 33,50 33,82l0 57c0,17 -3,33 -10,49 -6,15 -16,28 -29,38 27,22 39,51 39,87l0 116c0,32 -11,59 -33,82 -23,22 -50,34 -82,34l-58 0c-25,0 -47,-7 -67,-22 -20,-14 -34,-33 -43,-58l-2 -10c0,-7 3,-14 9,-20 6,-6 13,-9 22,-9 11,0 20,7 26,20 4,11 10,22 21,31 11,7 23,10 34,10l58 0c16,0 30,-5 41,-16 11,-11 17,-25 17,-42l0 -116c0,-17 -4,-30 -13,-40 -10,-12 -25,-18 -45,-18zm521 58l-174 0c-32,0 -59,-11 -82,-34 -23,-22 -34,-50 -34,-82l0 -202c0,-8 3,-15 9,-22 5,-5 12,-7 20,-7 7,0 14,2 20,7 6,5 9,12 9,22l0 202c0,17 5,31 16,42 6,5 12,9 19,12 8,3 16,4 23,4l174 0 0 -260c0,-8 2,-15 8,-22 6,-5 13,-7 20,-7 8,0 15,2 20,7 6,5 9,12 9,22l0 434c0,32 -11,59 -34,82 -22,22 -49,34 -82,34l-144 0c-9,0 -16,-3 -22,-8 -5,-6 -7,-13 -7,-21 0,-7 2,-13 8,-19 5,-7 12,-10 21,-10l145 0c16,0 29,-5 41,-16 11,-11 17,-25 17,-42l0 -116zm249 87l-42 125c-2,6 -6,11 -11,15 -4,2 -9,4 -16,5 -7,0 -14,-3 -20,-8 -6,-5 -9,-12 -9,-20l2 -10 174 -521c6,-17 15,-25 27,-25 12,0 21,8 27,25l173 521 3 10c0,7 -4,14 -10,20 -6,5 -13,8 -20,8 -4,0 -8,-1 -13,-3 -5,-2 -10,-8 -14,-17l-41 -125 -210 0zm190 -59l-85 -255 -86 255 171 0zm577 175c0,9 -3,16 -8,22 -6,4 -13,7 -21,7 -8,0 -14,-3 -20,-7 -6,-5 -9,-12 -9,-22l0 -493 -94 0 -139 500c-1,6 -4,11 -10,16 -5,4 -11,6 -17,6 -9,0 -16,-3 -22,-7 -5,-5 -8,-12 -8,-21 0,-4 0,-7 1,-9l145 -521c4,-14 14,-21 28,-21l145 0c19,0 29,9 29,29l0 521zm172 -261l174 0c17,0 30,6 42,17 11,11 16,25 16,41l0 116c0,17 -5,30 -16,42 -6,5 -12,9 -19,12 -7,3 -15,4 -23,4l-174 0 0 -232zm0 -57l0 -203c0,-8 -3,-15 -9,-20 -5,-6 -12,-9 -19,-9 -7,0 -13,2 -20,7 -6,5 -9,12 -9,22l0 521c0,19 9,29 29,29l202 0c31,0 58,-11 81,-34 23,-22 35,-49 35,-82l0 -116c0,-31 -11,-58 -34,-81 -22,-23 -50,-34 -82,-34l-174 0zm695 0l0 -203c0,-8 3,-15 9,-21 6,-5 12,-8 20,-8 7,0 14,2 20,7 6,5 9,12 9,22l0 520c0,8 -3,16 -9,22 -7,5 -14,8 -20,8 -7,0 -14,-3 -20,-7 -6,-5 -9,-12 -9,-22l0 -261 -232 0 0 261c0,9 -2,16 -8,22 -5,4 -12,7 -20,7 -8,0 -15,-3 -21,-7 -5,-5 -8,-12 -8,-22l0 -521c0,-8 3,-15 8,-21 6,-5 13,-8 21,-8 7,0 14,3 19,7 6,5 9,12 9,22l0 203 232 0zm579 318c0,9 -2,16 -8,22 -5,4 -12,7 -20,7 -8,0 -15,-3 -21,-7 -5,-5 -8,-12 -8,-22l0 -521c0,-8 3,-15 8,-22 6,-5 13,-7 21,-7 7,0 13,2 20,7 5,5 8,12 8,22l0 521zm-348 -261l0 232 117 0c16,0 29,-5 41,-16 11,-11 17,-25 17,-42l0 -116c0,-16 -6,-30 -17,-41 -11,-11 -24,-17 -41,-17l-117 0zm0 -57l116 0c32,0 59,11 82,33 23,23 34,50 34,82l0 116c0,32 -11,59 -34,82 -22,22 -50,34 -82,34l-144 0c-20,0 -29,-10 -29,-29l0 -521c0,-8 3,-15 8,-22 6,-5 13,-7 21,-7 7,0 14,2 19,7 6,5 9,12 9,22l0 203zm521 0l146 0c8,0 15,3 20,9 6,5 9,12 9,20 0,6 -3,13 -7,19 -5,6 -13,9 -22,9l-146 0 0 232 204 0c8,0 14,3 20,9 6,6 9,13 9,20 0,7 -3,14 -7,20 -5,6 -13,9 -22,9l-232 0c-20,0 -29,-9 -29,-27l0 -523c0,-20 9,-29 29,-29l232 0c8,0 15,3 20,9 6,5 9,12 9,20 0,6 -3,13 -8,19 -4,6 -12,9 -21,9l-204 0 0 175zm955 -88l0 262 29 0c32,0 59,-11 82,-34 22,-23 34,-50 34,-83l0 -29c0,-31 -11,-58 -34,-81 -22,-24 -50,-35 -82,-35l-29 0zm-58 262l0 -262 -29 0c-31,0 -58,11 -81,34 -23,22 -34,50 -34,82l0 29c0,32 11,60 33,83 23,23 50,34 82,34l29 0zm0 58l-29 0c-48,0 -89,-17 -122,-51 -34,-34 -51,-75 -51,-124l0 -29c0,-47 17,-88 51,-122 34,-35 75,-52 122,-52l29 0 0 -57c0,-8 3,-15 9,-22 6,-5 13,-7 20,-7 7,0 14,2 20,7 6,5 9,12 9,22l0 57 29 0c48,0 89,17 122,51 16,17 29,35 38,56 9,21 13,43 13,67l0 29c0,47 -17,88 -50,123 -34,34 -75,52 -123,52l-29 0 0 86c0,9 -3,16 -8,22 -5,4 -12,7 -21,7 -7,0 -14,-3 -20,-7 -6,-5 -9,-12 -9,-22l0 -86zm724 -1c0,32 -11,59 -34,82 -22,22 -50,34 -82,34l-115 0c-32,0 -59,-11 -82,-34 -23,-22 -34,-50 -34,-82l0 -347c0,-33 11,-60 34,-83 22,-22 49,-33 82,-33l115 0c32,0 60,11 82,34 23,22 34,50 34,82l0 347zm-58 0l0 -348c0,-16 -5,-30 -16,-41 -11,-11 -25,-17 -42,-17l-116 0c-16,0 -30,6 -41,17 -6,5 -10,12 -12,19 -3,7 -5,14 -5,22l0 348c0,17 6,30 17,42 6,5 12,9 19,12 8,3 16,4 22,4l116 0c16,0 30,-5 41,-16 12,-11 17,-25 17,-42zm278 -174l174 0c16,0 29,-5 41,-16 11,-11 17,-25 17,-42l0 -116c0,-16 -6,-30 -17,-41 -11,-11 -25,-17 -41,-17l-174 0 0 232zm0 58l0 203c0,9 -3,16 -8,22 -6,4 -13,7 -21,7 -8,0 -14,-3 -20,-7 -6,-5 -9,-12 -9,-22l0 -521c0,-20 10,-29 29,-29l203 0c32,0 59,11 82,34 22,22 33,50 33,81l0 116c0,32 -11,59 -34,82 -22,22 -50,34 -82,34l-173 0zm811 203c0,9 -3,16 -8,22 -6,4 -13,7 -21,7 -7,0 -13,-3 -19,-7 -7,-5 -10,-12 -10,-22l0 -413 -120 200c-7,12 -15,18 -25,18 -8,0 -16,-6 -25,-18l-120 -200 0 413c0,9 -3,16 -9,22 -5,4 -12,7 -20,7 -8,0 -14,-3 -20,-7 -6,-5 -9,-12 -9,-22l0 -518c0,-11 3,-20 8,-25 5,-6 11,-9 19,-9 5,0 10,1 14,4 4,3 8,8 13,15l149 248 149 -248c7,-13 16,-19 28,-19 6,0 12,3 18,9 5,6 8,15 8,25l0 518zm521 0c0,9 -3,16 -9,22 -5,4 -12,7 -20,7 -8,0 -15,-3 -20,-7 -6,-5 -9,-12 -9,-22l0 -521c0,-8 3,-15 9,-22 5,-5 12,-7 20,-7 7,0 14,2 20,7 6,5 9,12 9,22l0 521zm-348 -261l0 232 116 0c16,0 30,-5 41,-16 11,-11 17,-25 17,-42l0 -116c0,-16 -6,-30 -16,-41 -11,-11 -25,-17 -42,-17l-116 0zm0 -57l116 0c31,0 58,11 81,33 23,23 35,50 35,82l0 116c0,32 -12,59 -34,82 -23,22 -50,34 -82,34l-145 0c-19,0 -29,-10 -29,-29l0 -521c0,-8 3,-15 9,-22 5,-5 12,-7 20,-7 7,0 14,2 20,7 6,5 9,12 9,22l0 203z"/>
   <path class="fil3 str1" d="M6665 12989l-42 125c-2,6 -5,11 -10,15 -4,2 -9,4 -16,5 -8,0 -14,-3 -20,-9 -7,-5 -10,-11 -10,-19l2 -11 174 -521c6,-16 15,-24 27,-24 12,0 21,8 27,24l173 521 2 11c0,7 -3,14 -9,20 -6,5 -13,8 -21,8 -4,0 -8,-1 -13,-3 -4,-2 -9,-8 -13,-17l-42 -125 -209 0zm190 -59l-85 -255 -85 255 170 0zm487 -28l-173 0c-31,0 -58,-12 -81,-34 -23,-22 -34,-50 -34,-82l0 -202c0,-8 3,-15 8,-22 6,-5 13,-7 20,-7 8,0 14,2 20,7 6,5 9,12 9,22l0 202c0,17 6,30 17,42 5,5 12,9 18,12 8,3 16,4 23,4l173 0 0 -260c0,-8 3,-15 9,-22 6,-5 12,-7 20,-7 7,0 14,2 20,7 6,5 9,12 9,22l0 434c0,32 -11,59 -34,82 -22,22 -50,34 -82,34l-144 0c-8,0 -16,-3 -21,-8 -5,-6 -8,-13 -8,-21 0,-7 3,-13 8,-20 5,-6 12,-9 21,-9l145 0c16,0 29,-5 41,-16 11,-11 16,-25 16,-42l0 -116zm208 174l55 -496c0,-17 9,-25 28,-25l174 0c19,0 28,9 28,29l0 492 29 0c20,0 30,10 30,29l0 58c0,7 -3,14 -9,20 -6,5 -13,8 -20,8 -7,0 -13,-2 -19,-7 -7,-5 -10,-12 -10,-21l0 -29 -289 0 0 29c0,7 -3,14 -9,20 -6,5 -13,8 -20,8 -7,0 -13,-2 -19,-7 -7,-5 -10,-12 -10,-21l0 -58c0,-19 10,-29 29,-29l32 0zm228 0l0 -464 -119 0 -51 464 170 0zm577 29c0,9 -3,16 -9,22 -5,4 -12,7 -20,7 -8,0 -14,-3 -20,-7 -6,-5 -9,-13 -9,-22l0 -409 -234 423c-3,6 -8,10 -13,14l-6 3c-2,1 -5,2 -9,3 -6,0 -12,-3 -19,-9 -5,-6 -7,-14 -7,-25l0 -521c0,-8 2,-15 8,-22 6,-5 13,-7 20,-7 8,0 14,2 20,7 6,5 9,12 9,22l0 409 234 -423c3,-5 7,-9 13,-14 5,-4 10,-6 15,-6 6,0 12,3 18,10 6,5 9,14 9,24l0 521zm461 -87c0,32 -11,59 -34,82 -22,22 -49,34 -81,34l-116 0c-31,0 -58,-12 -81,-34 -22,-22 -34,-50 -34,-82l0 -348c0,-32 11,-59 34,-82 22,-22 49,-33 81,-33l116 0c32,0 59,11 82,33 22,23 33,50 33,82l0 348zm-57 0l0 -348c0,-16 -6,-30 -17,-41 -10,-11 -24,-17 -41,-17l-116 0c-16,0 -30,6 -41,17 -6,5 -10,12 -12,19 -3,7 -4,14 -4,22l0 348c0,16 5,30 16,42 6,5 12,9 19,12 8,3 15,4 22,4l116 0c16,0 30,-5 41,-16 11,-11 17,-25 17,-42zm479 116l-145 0c-31,0 -58,-12 -81,-34 -23,-22 -34,-50 -34,-82l0 -348c0,-32 11,-59 33,-82 23,-22 50,-33 82,-33l145 0c8,0 15,3 20,9 6,5 9,12 9,19 0,7 -3,13 -8,20 -4,6 -12,9 -21,9l-145 0c-16,0 -30,6 -41,17 -6,5 -10,12 -13,19 -2,7 -4,14 -4,22l0 348c0,16 6,30 17,42 6,5 12,9 18,12 9,3 16,4 23,4l145 0c8,0 15,3 20,9 6,6 9,13 9,20 0,7 -3,13 -8,19 -4,7 -12,10 -21,10zm464 -116c0,32 -11,59 -34,82 -22,22 -50,34 -82,34l-115 0c-31,0 -58,-12 -81,-34 -23,-22 -34,-50 -34,-82l0 -348c0,-32 11,-59 33,-82 23,-22 50,-33 82,-33l115 0c33,0 60,11 82,33 23,23 34,50 34,82l0 348zm-58 0l0 -348c0,-16 -5,-30 -16,-41 -11,-11 -25,-17 -41,-17l-116 0c-16,0 -30,6 -41,17 -6,5 -10,12 -13,19 -2,7 -4,14 -4,22l0 348c0,16 6,30 17,42 5,5 12,9 18,12 8,3 16,4 23,4l116 0c16,0 29,-5 41,-16 11,-11 16,-25 16,-42zm566 0c0,32 -12,59 -34,82 -23,22 -50,34 -82,34l-115 0c-32,0 -59,-12 -81,-34 -23,-22 -35,-50 -35,-82l0 -348c0,-32 12,-59 34,-82 22,-22 50,-33 82,-33l115 0c32,0 60,11 82,33 22,23 34,50 34,82l0 348zm-58 0l0 -348c0,-16 -5,-30 -16,-41 -11,-11 -25,-17 -42,-17l-115 0c-17,0 -30,6 -42,17 -5,5 -9,12 -12,19 -3,7 -4,14 -4,22l0 348c0,16 5,30 16,42 6,5 12,9 19,12 8,3 16,4 23,4l115 0c16,0 30,-5 41,-16 12,-11 17,-25 17,-42zm277 -174l0 232 173 0c16,0 30,-5 41,-16 11,-11 17,-25 17,-42l0 -116c0,-16 -6,-30 -16,-41 -11,-11 -25,-17 -42,-17l-173 0zm0 -57l173 0c31,0 58,11 81,33 23,23 34,50 34,82l0 116c0,32 -11,59 -34,82 -22,22 -49,34 -81,34l-202 0c-19,0 -29,-10 -29,-29l0 -521c0,-20 10,-29 29,-29l231 0c8,0 15,3 20,9 6,5 9,12 9,19 0,7 -3,13 -8,20 -4,6 -12,9 -21,9l-202 0 0 175zm865 347l-28 0 -404 0c-20,0 -29,-10 -29,-29l0 -521c0,-8 3,-15 8,-22 6,-5 13,-7 20,-7 8,0 15,2 20,7 6,5 9,12 9,22l0 492 145 0 0 -492c0,-8 2,-15 8,-22 6,-5 13,-7 20,-7 8,0 14,2 20,7 6,5 9,12 9,22l0 492 145 0 0 -492c0,-8 3,-15 9,-22 5,-5 12,-7 20,-7 7,0 14,2 20,7 6,5 8,12 8,22l0 492 29 0c19,0 29,10 29,29l0 87c0,8 -3,15 -9,20 -6,6 -12,9 -20,9 -6,0 -13,-2 -19,-7 -6,-5 -10,-12 -10,-22l0 -58zm231 -347l145 0c8,0 15,3 21,9 5,5 8,12 8,19 0,7 -2,14 -7,20 -5,6 -12,9 -22,9l-145 0 0 232 203 0c8,0 15,3 20,9 6,6 9,13 9,20 0,7 -3,13 -7,19 -5,7 -12,10 -22,10l-232 0c-19,0 -28,-9 -28,-28l0 -522c0,-20 9,-29 28,-29l232 0c8,0 15,3 20,9 6,5 9,12 9,19 0,7 -3,14 -8,20 -4,6 -11,9 -21,9l-203 0 0 175zm635 0l0 -204c0,-7 3,-14 9,-20 5,-6 12,-8 20,-8 7,0 14,2 20,7 6,5 9,12 9,22l0 520c0,8 -3,16 -9,22 -7,5 -14,8 -21,8 -7,0 -13,-3 -20,-7 -5,-5 -8,-12 -8,-22l0 -261 -231 0 0 261c0,9 -3,16 -8,22 -6,4 -12,7 -21,7 -7,0 -14,-3 -20,-7 -6,-5 -9,-13 -9,-22l0 -521c0,-8 3,-15 9,-22 6,-5 13,-7 20,-7 7,0 14,2 20,7 6,5 9,12 9,22l0 203 231 0zm519 318c0,9 -3,16 -8,22 -5,4 -12,7 -21,7 -7,0 -14,-3 -20,-7 -5,-5 -8,-13 -8,-22l0 -409 -235 423c-3,6 -7,10 -12,14l-7 3c-1,1 -4,2 -9,3 -5,0 -11,-3 -19,-9 -4,-6 -7,-14 -7,-25l0 -521c0,-8 3,-15 9,-22 5,-5 12,-7 20,-7 7,0 14,2 20,7 5,5 8,12 8,22l0 409 235 -423c2,-5 7,-9 12,-14 5,-4 10,-6 16,-6 6,0 12,3 17,10 6,5 9,14 9,24l0 521zm404 -261l0 -232 -173 0c-16,0 -30,6 -42,17 -5,5 -9,12 -12,19 -3,7 -4,14 -4,22l0 116c0,16 6,30 16,42 6,5 13,9 19,12 8,3 16,4 23,4l173 0zm-99 58l-136 218c-6,9 -14,14 -23,14 -8,0 -14,-3 -21,-9 -6,-6 -9,-13 -9,-21 0,-5 1,-11 4,-15l117 -187 -6 0c-31,0 -58,-12 -81,-34 -23,-22 -34,-50 -34,-82l0 -116c0,-32 11,-59 33,-82 23,-22 50,-33 82,-33l202 0c19,0 29,9 29,29l0 521c0,9 -3,16 -8,22 -6,4 -13,7 -21,7 -8,0 -14,-3 -20,-7 -6,-5 -9,-13 -9,-22l0 -203 -99 0z"/>
  </g>
 </g>
</svg>
