<?xml version="1.0" encoding="UTF-8"?>
<!DOCTYPE svg PUBLIC "-//W3C//DTD SVG 1.0//EN" "http://www.w3.org/TR/2001/REC-SVG-20010904/DTD/svg10.dtd">
<!-- Creator: CorelDRAW X7 -->
<svg xmlns="http://www.w3.org/2000/svg" xml:space="preserve" width="200mm" height="200mm" version="1.0" style="shape-rendering:geometricPrecision; text-rendering:geometricPrecision; image-rendering:optimizeQuality; fill-rule:evenodd; clip-rule:evenodd"
viewBox="0 0 20000 20000"
 xmlns:xlink="http://www.w3.org/1999/xlink">
 <defs>
  <style type="text/css">
   <![CDATA[
    .str1 {stroke:#D0758A;stroke-width:25}
    .str0 {stroke:#2E99A3;stroke-width:7.62}
    .fil4 {fill:#FEFEFE}
    .fil1 {fill:#F9F9F9}
    .fil2 {fill:#F1F1F1}
    .fil3 {fill:#E8E8E8}
    .fil13 {fill:#F9C5A1}
    .fil6 {fill:#FAC16A}
    .fil22 {fill:#CC7588}
    .fil11 {fill:#F9D6AA}
    .fil7 {fill:#E12528}
    .fil21 {fill:#EDEBEB}
    .fil12 {fill:#E9B69A}
    .fil15 {fill:#DBE3E3}
    .fil5 {fill:#DAD9DA}
    .fil17 {fill:#BF2C2E}
    .fil10 {fill:#D4E8F8}
    .fil20 {fill:#CCC7C7}
    .fil14 {fill:#71523E}
    .fil8 {fill:#3E6677}
    .fil9 {fill:#3A5E6A}
    .fil19 {fill:#008F9F}
    .fil18 {fill:#149288}
    .fil16 {fill:#00897E}
    .fil0 {fill:url(#id0)}
   ]]>
  </style>
  <radialGradient id="id0" gradientUnits="userSpaceOnUse" gradientTransform="matrix(1.41421 -0 -0 1.41421 -4140 -4142)" cx="9995.05" cy="10000" r="10000" fx="9995.05" fy="10000">
   <stop offset="0" style="stop-opacity:1; stop-color:#FEFEFE"/>
   <stop offset="0.439216" style="stop-opacity:1; stop-color:#FEFEFE"/>
   <stop offset="1" style="stop-opacity:1; stop-color:#D1E2F2"/>
  </radialGradient>
 </defs>
 <g id="Layer_x0020_1">
  <metadata id="CorelCorpID_0Corel-Layer"/>
  <path class="fil0" d="M-5 0l20000 0 0 20000 -20000 0 0 -20000z"/>
  <g id="_357845314720">
   <path class="fil1 str0" d="M18582 13083c-190,113 -367,219 -544,322 -538,313 -1077,624 -1614,939 -62,37 -106,37 -169,-1 -583,-352 -1170,-700 -1755,-1050 -23,-13 -44,-30 -79,-54 672,-387 1332,-768 2011,-1159 0,267 1,520 0,774 0,87 -1,175 -2,262 -1,77 43,131 111,121 44,-6 106,-64 114,-107 20,-98 13,-202 13,-303 1,-283 1,-566 1,-868 644,378 1272,747 1913,1124z"/>
   <path class="fil2 str0" d="M18334 13013c-190,113 -367,218 -544,322 -538,313 -1077,624 -1614,939 -62,36 -106,37 -169,-1 -583,-352 -1170,-700 -1755,-1050 -23,-14 -44,-31 -79,-54 672,-387 1332,-768 2011,-1160 0,268 1,521 0,774 0,88 -1,175 -2,263 -1,77 43,131 111,121 44,-6 106,-64 114,-107 20,-98 13,-202 13,-303 1,-283 1,-566 1,-868 644,378 1272,747 1913,1124z"/>
   <path class="fil3 str0" d="M18330 12831c-190,113 -367,218 -544,322 -538,313 -1077,624 -1614,939 -62,37 -106,37 -169,-1 -583,-352 -1170,-700 -1755,-1050 -23,-13 -44,-30 -79,-54 672,-387 1332,-768 2011,-1159 0,267 0,520 0,774 0,87 -1,175 -2,262 -2,77 43,131 111,121 44,-6 106,-63 114,-107 20,-98 13,-202 13,-303 1,-283 1,-566 1,-868 644,378 1272,747 1913,1124z"/>
   <path class="fil1 str0" d="M18582 12768c-190,113 -367,218 -544,322 -538,313 -1077,624 -1614,939 -62,37 -106,37 -169,-1 -583,-352 -1170,-700 -1755,-1050 -23,-13 -44,-30 -79,-54 672,-387 1332,-768 2011,-1159 0,267 1,520 0,774 0,87 -1,175 -2,262 -1,77 43,131 111,121 44,-6 106,-64 114,-107 20,-98 13,-202 13,-303 1,-283 1,-566 1,-868 644,378 1272,747 1913,1124z"/>
   <path class="fil2 str0" d="M18429 12635c-191,112 -367,218 -545,321 -538,313 -1077,625 -1613,940 -63,36 -106,37 -169,-1 -584,-352 -1170,-700 -1755,-1050 -23,-14 -45,-31 -79,-54 671,-387 1332,-768 2011,-1160 0,267 0,521 0,774 0,88 -1,175 -3,263 -1,76 44,131 112,121 44,-6 105,-64 114,-107 19,-99 12,-202 13,-304 1,-282 0,-565 0,-868 644,379 1272,748 1914,1125z"/>
   <path class="fil3 str0" d="M18425 12453c-191,113 -367,218 -545,322 -538,313 -1077,624 -1613,939 -63,37 -106,37 -169,-1 -584,-352 -1170,-700 -1755,-1050 -24,-14 -45,-30 -79,-54 671,-387 1332,-768 2011,-1159 0,267 0,520 0,773 0,88 -1,176 -3,263 -1,77 43,131 112,121 44,-6 105,-64 114,-107 19,-98 12,-202 13,-303 1,-283 0,-566 0,-868 644,378 1272,747 1914,1124z"/>
   <path class="fil4 str0" d="M18488 12170c-191,112 -367,218 -545,321 -538,313 -1077,624 -1613,939 -63,37 -106,37 -169,-1 -584,-352 -1170,-700 -1755,-1049 -24,-14 -45,-31 -79,-55 671,-387 1332,-768 2011,-1159 0,267 0,520 0,774 0,88 -1,175 -3,262 -1,77 43,131 112,122 44,-6 105,-64 114,-108 19,-98 12,-201 13,-303 1,-283 0,-565 0,-868 644,379 1272,748 1914,1125z"/>
   <path class="fil3 str0" d="M18456 12107c-190,112 -367,218 -544,321 -538,313 -1077,624 -1614,939 -62,37 -106,37 -169,0 -583,-353 -1170,-701 -1755,-1050 -23,-14 -44,-31 -79,-55 672,-387 1332,-768 2011,-1159 0,267 1,520 0,774 0,87 -1,175 -2,262 -1,77 43,132 111,122 44,-7 106,-64 114,-108 20,-98 13,-201 13,-303 1,-282 1,-565 1,-868 644,378 1272,748 1913,1125z"/>
   <path class="fil1 str0" d="M18456 11886c-190,113 -367,218 -544,322 -538,313 -1077,624 -1614,939 -62,36 -106,37 -169,-1 -583,-352 -1170,-700 -1755,-1050 -23,-14 -44,-30 -79,-54 672,-387 1332,-768 2011,-1160 0,268 0,521 0,774 0,88 -1,175 -2,263 -1,77 43,131 111,121 44,-6 106,-64 114,-107 20,-98 13,-202 13,-303 1,-283 1,-566 1,-869 644,379 1272,748 1913,1125z"/>
   <path class="fil2 str0" d="M18208 11816c-190,112 -367,218 -544,321 -538,313 -1077,624 -1614,940 -62,36 -106,37 -169,-1 -583,-353 -1170,-701 -1755,-1050 -23,-14 -44,-31 -79,-55 671,-387 1332,-768 2011,-1159 0,267 0,521 0,774 0,88 -1,175 -2,262 -1,77 43,131 111,122 44,-6 106,-64 114,-108 20,-98 13,-201 13,-303 1,-282 1,-565 1,-868 644,379 1272,748 1913,1125z"/>
   <path class="fil4 str0" d="M18846 12004l-1736 -1020 -2836 1321 1735 1019 2837 -1320z"/>
   <path class="fil5 str0" d="M16409 11715l-268 -158 63 -29 268 158 -63 29z"/>
   <path class="fil5 str0" d="M16295 11768l-268 -158 62 -29 269 158 -63 29z"/>
   <path class="fil5 str0" d="M16181 11821l-269 -157 63 -30 269 158 -63 29z"/>
   <path class="fil5 str0" d="M17645 12441l-1152 -677 62 -29 1153 677 -63 29z"/>
   <path class="fil5 str0" d="M17531 12494l-1153 -677 63 -29 1153 677 -63 29z"/>
   <path class="fil5 str0" d="M17417 12547l-1153 -677 63 -29 1153 677 -63 29z"/>
   <path class="fil5 str0" d="M16026 11893l-268 -157 63 -30 268 158 -63 29z"/>
   <path class="fil5 str0" d="M15912 11946l-269 -157 63 -30 269 158 -63 29z"/>
   <path class="fil5 str0" d="M15798 12000l-269 -158 63 -29 269 157 -63 30z"/>
   <path class="fil5 str0" d="M17262 12619l-1153 -677 63 -29 1153 677 -63 29z"/>
   <path class="fil5 str0" d="M17148 12673l-1153 -678 63 -29 1153 677 -63 30z"/>
   <path class="fil5 str0" d="M17034 12726l-1153 -677 63 -30 1153 677 -63 30z"/>
   <path class="fil5 str0" d="M16328 13053l-676 -397 63 -29 676 397 -63 29z"/>
   <path class="fil5 str0" d="M16214 13106l-676 -396 63 -30 676 397 -63 29z"/>
   <path class="fil5 str0" d="M16099 13159l-675 -396 63 -30 675 397 -63 29z"/>
   <path class="fil5 str0" d="M15985 13212l-675 -396 63 -30 675 397 -63 29z"/>
   <path class="fil5 str0" d="M15501 12568l-675 -397 63 -29 675 396 -63 30z"/>
   <path class="fil5 str0" d="M15387 12621l-675 -397 63 -29 675 396 -63 30z"/>
   <path class="fil5 str0" d="M15273 12674l-675 -397 63 -29 675 397 -63 29z"/>
   <path class="fil5 str0" d="M15159 12727l-675 -397 63 -29 675 397 -63 29z"/>
   <path class="fil5 str0" d="M15901 12309l-269 -157 63 -30 269 158 -63 29z"/>
   <path class="fil5 str0" d="M15571 12396l-205 -120 63 -30 205 121 -63 29z"/>
   <path class="fil6 str0" d="M15513 12150l-153 -89 194 -91 153 90 -194 90z"/>
   <path class="fil7 str0" d="M15246 12275l-152 -90 194 -91 153 90 -195 91z"/>
   <path class="fil5 str0" d="M16592 12716l-133 -79 63 -29 133 78 -63 30z"/>
   <path class="fil5 str0" d="M16398 12882l-206 -121 63 -29 206 121 -63 29z"/>
   <path class="fil8 str0" d="M16339 12636l-153 -90 195 -90 152 89 -194 91z"/>
   <path class="fil9 str0" d="M16072 12760l-152 -90 194 -90 153 90 -195 90z"/>
   <path class="fil5 str0" d="M17547 11709l-63 29 715 420 63 -29 -715 -420z"/>
   <path class="fil5 str0" d="M17433 11762l-63 30 715 419 63 -29 -715 -420z"/>
   <path class="fil5 str0" d="M17319 11816l-63 29 715 420 63 -30 -715 -419z"/>
   <path class="fil5 str0" d="M17205 11868l-63 30 714 420 63 -30 -714 -420z"/>
   <path class="fil4 str0" d="M18062 11827l-9 5c-24,11 -46,16 -67,17 -21,0 -40,-4 -57,-14 -17,-10 -24,-21 -20,-32 4,-11 18,-23 42,-34l85 -40c27,-12 51,-19 73,-21 21,-2 39,2 55,11 6,4 11,8 13,12 3,5 3,9 1,14l13 -6 23 14 -69 33 -26 -15 6 -3c11,-6 18,-12 21,-16 2,-5 0,-9 -6,-13 -8,-4 -16,-6 -26,-6 -9,1 -20,4 -33,10l-102 48c-13,6 -20,11 -23,16 -2,5 1,9 8,14 8,4 16,6 26,5 10,-1 21,-4 33,-9l12 -6 27 16z"/>
   <path class="fil4 str0" d="M18046 11901l161 -120 -10 -7 30 -14 55 33 -30 14 -13 -8 -114 77 160 -50 -13 -7 30 -15 53 31 -30 15 -12 -7 -245 71 -22 -13z"/>
   <path class="fil10 str0" d="M16957 11852l-611 -355 773 -363 610 355 -772 363z"/>
   <path class="fil11 str0" d="M17156 11536c-52,20 -114,50 -148,74 -21,14 -18,65 -52,66 -52,1 -146,-56 -167,-68 -22,-13 -100,-58 -87,-84 8,-15 94,-11 119,-23 33,-16 99,-37 140,-64 25,-17 49,49 67,59 15,9 159,28 128,40z"/>
   <path class="fil11 str0" d="M16995 11409c-11,5 -28,5 -37,0l0 0c-9,-6 -10,-10 33,-30l22 -16c20,-10 9,9 18,15l5 2c9,6 8,6 -3,11l-38 18z"/>
   <path class="fil11 str0" d="M17181 11517c-11,6 -13,14 -4,20l0 0c10,5 18,6 61,-15l33 -9c20,-9 -17,-6 -26,-11l-5 -3c-9,-5 -10,-5 -21,1l-38 17z"/>
   <path class="fil12 str0" d="M17008 11610c34,-24 96,-54 148,-74 31,-12 -113,-31 -128,-40 -18,-11 -42,-76 -67,-59 -17,11 -38,21 -60,31l-86 176c28,12 119,32 141,32 34,-1 31,-52 52,-66z"/>
   <path class="fil11 str0" d="M17162 11343c-45,-2 -93,28 -130,45l-66 31c-19,9 -42,19 -52,30 -18,20 -19,51 -5,70 6,8 21,10 33,16l311 -147c-24,-15 -57,-43 -91,-45z"/>
   <path class="fil13 str0" d="M17232 11505c41,-20 102,-42 98,-68 -2,-16 -54,-36 -75,-48 -1,-1 -2,-2 -3,-2l-311 147c0,0 1,1 2,1 11,7 26,23 41,27 45,0 70,4 118,0 22,-4 45,-18 64,-26l66 -31z"/>
   <path class="fil14 str0" d="M17133 11318c-6,1 -13,2 -19,4 -26,6 -43,17 -55,30 -13,12 -24,25 -43,35 -10,5 -11,11 -11,18 11,-7 20,-12 31,-18 13,-7 28,-12 47,-12 12,0 21,-2 29,-7 4,-3 8,-5 12,-7 19,-11 37,-13 58,-6 15,6 27,13 39,20 27,15 53,32 80,48 2,2 5,3 7,4 10,8 9,16 -4,24 -5,2 -10,5 -16,7 -21,5 -31,13 -34,25 -3,9 -13,16 -27,22 -9,4 -20,8 -30,12 0,0 1,1 1,1 9,-1 18,-2 26,-5 18,-5 35,-11 53,-17 32,-9 62,-20 85,-35 20,-13 38,-36 13,-48 -1,1 -23,-2 -21,-6 8,-9 -3,-20 -13,-29 -17,-16 -45,-28 -68,-42 -58,-37 -131,-20 -140,-18z"/>
   <path class="fil15 str0" d="M16714 11711l98 -29 141 -43c-16,5 55,-31 55,-31 -4,0 -177,-21 -182,-21 1,2 -81,42 -175,88l63 36z"/>
   <path class="fil15 str0" d="M16594 11641l59 35c100,-46 187,-86 190,-85 0,-3 -19,-89 -20,-91 0,0 -78,32 -68,24l-96 69 -65 48z"/>
   <path class="fil4 str0" d="M16952 11676l-54 3 -3 -5 57 2z"/>
   <path class="fil16 str0" d="M16707 11707l248 144c47,-49 82,-71 111,-84 9,-4 -67,-60 -61,-124l9 -38c-5,3 -142,52 -142,52l-165 50z"/>
   <path class="fil17 str0" d="M16842 11588l-110 16 -44 61 115 -21 44 -53 -5 -3z"/>
   <path class="fil4 str0" d="M16827 11498l-127 110 143 -20 -16 -90z"/>
   <path class="fil4 str0" d="M17013 11606l-223 55 54 -72 169 17z"/>
   <path class="fil17 str0" d="M16674 11688l127 -79 -164 57 37 22z"/>
   <path class="fil18 str0" d="M16793 11757l51 -10 -17 -39 109 8 70 -70 7 -41 -307 101 87 51z"/>
   <path class="fil16 str0" d="M16389 11522c55,-33 102,-56 102,-56 -54,12 -101,23 -143,32l41 24z"/>
   <path class="fil16 str0" d="M16601 11645l113 -72c0,0 112,-75 118,-77l-53 3c-181,3 -233,-53 -259,-43 -5,2 -83,20 -168,45l249 144z"/>
   <path class="fil18 str0" d="M16541 11570l-24 26 87 51 228 -151 -92 4 -130 26 3 58 -72 -14z"/>
   <path class="fil3 str0" d="M18204 11634c-191,113 -367,218 -544,322 -538,313 -1077,624 -1614,939 -62,36 -106,37 -169,-1 -583,-352 -1170,-700 -1755,-1050 -23,-14 -44,-31 -79,-54 672,-387 1332,-768 2011,-1160 0,267 0,521 0,774 0,88 -1,175 -2,263 -1,77 43,131 111,121 44,-6 106,-64 114,-107 19,-98 13,-202 13,-303 1,-283 1,-566 1,-869 644,379 1272,748 1913,1125z"/>
   <path class="fil1 str0" d="M18456 11571c-190,112 -367,218 -544,322 -538,313 -1077,624 -1614,939 -62,36 -106,37 -169,-1 -583,-352 -1170,-700 -1755,-1050 -23,-14 -44,-31 -79,-54 672,-387 1332,-768 2011,-1160 0,267 1,521 0,774 0,88 -1,175 -2,263 -1,77 43,131 111,121 44,-6 106,-64 114,-107 20,-98 13,-202 13,-303 1,-283 1,-566 1,-869 644,379 1272,748 1913,1125z"/>
   <path class="fil3 str0" d="M18551 11319c-191,113 -367,218 -545,321 -538,314 -1077,625 -1613,940 -63,36 -106,37 -169,-1 -584,-352 -1170,-700 -1755,-1050 -23,-14 -45,-31 -79,-54 671,-387 1332,-768 2011,-1160 0,267 0,521 0,774 0,88 -1,175 -3,263 -1,77 44,131 112,121 44,-6 105,-64 114,-107 19,-98 13,-202 13,-304 1,-282 0,-565 0,-868 644,379 1272,748 1914,1125z"/>
   <path class="fil1 str0" d="M18551 11098c-191,113 -367,218 -545,322 -538,313 -1077,624 -1613,939 -63,37 -106,37 -169,-1 -584,-352 -1170,-700 -1755,-1050 -24,-13 -45,-30 -79,-54 671,-387 1332,-768 2011,-1159 0,267 0,520 0,774 0,87 -1,175 -3,262 -1,77 44,131 112,121 44,-6 105,-63 114,-107 19,-98 13,-202 13,-303 1,-283 0,-565 0,-868 644,378 1272,747 1914,1124z"/>
   <path class="fil2 str0" d="M18303 11028c-191,113 -367,218 -545,322 -538,313 -1077,624 -1613,939 -63,36 -106,37 -169,-1 -584,-352 -1170,-700 -1755,-1050 -24,-14 -45,-30 -79,-54 671,-387 1332,-768 2011,-1160 0,268 0,521 0,774 0,88 -1,175 -3,263 -1,77 44,131 112,121 44,-6 105,-64 114,-107 19,-98 12,-202 13,-303 1,-283 0,-566 0,-869 644,379 1272,748 1914,1125z"/>
   <path class="fil3 str0" d="M18299 10846c-191,113 -367,218 -545,322 -538,313 -1077,624 -1614,939 -62,37 -105,37 -168,-1 -584,-352 -1170,-700 -1755,-1050 -24,-13 -45,-30 -79,-54 671,-387 1332,-768 2011,-1159 0,267 0,520 0,773 0,88 -1,176 -3,263 -1,77 43,131 112,121 44,-6 105,-64 114,-107 19,-98 12,-202 13,-303 1,-283 0,-566 0,-868 644,378 1272,747 1914,1124z"/>
   <path class="fil1 str0" d="M18551 10783c-191,113 -367,218 -545,322 -538,313 -1077,624 -1613,939 -63,37 -106,37 -169,-1 -584,-352 -1170,-700 -1755,-1050 -23,-13 -45,-30 -79,-54 671,-387 1332,-768 2011,-1159 0,267 0,520 0,774 0,87 -1,175 -3,262 -1,77 44,131 112,121 44,-6 105,-64 114,-107 19,-98 13,-202 13,-303 1,-283 0,-566 0,-868 644,378 1272,747 1914,1124z"/>
   <path class="fil2 str0" d="M18397 10650c-190,112 -367,218 -544,321 -538,314 -1077,625 -1614,940 -62,36 -106,37 -169,-1 -583,-352 -1169,-700 -1755,-1050 -23,-14 -44,-31 -79,-54 672,-387 1332,-768 2011,-1160 0,267 1,521 0,774 0,88 -1,175 -2,263 -1,77 43,131 111,121 44,-6 106,-64 114,-107 20,-98 13,-202 13,-303 1,-283 1,-566 1,-869 644,379 1272,748 1913,1125z"/>
   <path class="fil3 str0" d="M18393 10468c-190,113 -367,218 -544,322 -538,313 -1077,624 -1614,939 -62,37 -106,37 -169,-1 -583,-352 -1170,-700 -1755,-1050 -23,-14 -44,-30 -79,-54 672,-387 1332,-768 2011,-1160 0,268 0,521 0,775 0,87 -1,175 -2,262 -1,77 43,131 111,121 44,-6 106,-64 114,-107 20,-98 13,-202 13,-303 1,-283 1,-566 1,-868 644,378 1272,747 1913,1124z"/>
   <path class="fil4 str0" d="M18456 10185c-190,112 -367,218 -544,321 -538,313 -1077,624 -1614,940 -62,36 -106,37 -169,-1 -583,-353 -1170,-701 -1755,-1050 -23,-14 -44,-31 -79,-55 672,-387 1332,-768 2011,-1159 0,267 1,521 0,774 0,87 -1,175 -2,262 -1,77 43,131 111,122 44,-6 106,-64 114,-108 20,-98 13,-201 13,-303 1,-283 1,-565 1,-868 644,379 1272,748 1913,1125z"/>
   <path class="fil3 str0" d="M18425 10122c-191,112 -367,218 -545,321 -538,313 -1077,624 -1613,940 -63,36 -106,37 -169,-1 -584,-353 -1170,-701 -1755,-1050 -24,-14 -45,-31 -79,-55 671,-387 1332,-768 2011,-1159 0,267 0,521 0,774 0,87 -1,175 -3,262 -1,77 43,131 112,122 44,-6 105,-64 114,-108 19,-98 12,-201 13,-303 1,-283 0,-565 0,-868 644,379 1272,748 1914,1125z"/>
   <path class="fil1 str0" d="M18425 9901c-191,113 -367,218 -545,322 -538,313 -1077,624 -1613,939 -63,36 -106,37 -169,-1 -584,-352 -1170,-700 -1755,-1050 -24,-14 -45,-30 -79,-54 671,-387 1332,-768 2011,-1160 0,268 0,521 0,774 0,88 -1,175 -3,263 -1,77 43,131 112,121 44,-6 105,-64 114,-107 19,-98 12,-202 13,-303 1,-283 0,-566 0,-868 644,378 1272,747 1914,1124z"/>
   <path class="fil2 str0" d="M18177 9831c-191,112 -367,218 -545,321 -538,313 -1077,624 -1614,940 -62,36 -105,37 -168,-1 -584,-353 -1170,-701 -1755,-1050 -24,-14 -45,-31 -79,-55 671,-387 1332,-767 2011,-1159 0,267 0,521 0,774 0,87 -1,175 -3,263 -1,76 43,131 112,121 44,-6 105,-64 114,-108 19,-98 12,-201 13,-303 1,-282 0,-565 0,-868 644,379 1272,748 1914,1125z"/>
   <path class="fil3 str0" d="M18172 9649c-190,113 -366,218 -544,322 -538,313 -1077,624 -1614,939 -62,36 -105,37 -168,-1 -584,-352 -1170,-700 -1755,-1050 -24,-14 -45,-31 -79,-54 671,-387 1332,-768 2011,-1160 0,268 0,521 0,774 0,88 -1,175 -3,263 -1,77 43,131 112,121 43,-6 105,-64 114,-107 19,-98 12,-202 13,-303 1,-283 0,-566 0,-868 644,378 1272,747 1913,1124z"/>
   <path class="fil1 str0" d="M18425 9586c-191,113 -367,218 -545,322 -538,313 -1077,624 -1613,939 -63,36 -106,37 -169,-1 -584,-352 -1170,-700 -1755,-1050 -24,-14 -45,-30 -79,-54 671,-387 1332,-768 2011,-1160 0,268 0,521 0,774 0,88 -1,175 -3,263 -1,77 43,131 112,121 44,-6 105,-64 114,-107 19,-98 12,-202 13,-303 1,-283 0,-566 0,-868 644,378 1272,747 1914,1124z"/>
   <path class="fil2 str0" d="M18271 9453c-190,112 -367,218 -544,321 -538,313 -1077,624 -1614,939 -62,37 -106,38 -169,0 -583,-353 -1170,-701 -1755,-1050 -23,-14 -44,-31 -79,-55 672,-387 1332,-768 2011,-1159 0,267 1,521 0,774 0,87 -1,175 -2,262 -1,77 43,131 111,122 44,-7 106,-64 114,-108 20,-98 13,-201 13,-303 1,-282 1,-565 1,-868 644,379 1272,748 1913,1125z"/>
   <path class="fil3 str0" d="M18267 9208c-191,112 -367,218 -544,321 -538,314 -1077,625 -1614,940 -62,36 -106,37 -169,-1 -583,-352 -1170,-700 -1755,-1050 -23,-14 -44,-31 -79,-54 672,-387 1332,-768 2011,-1160 0,267 0,521 0,774 0,88 -1,175 -2,263 -1,77 43,131 111,121 44,-6 106,-64 114,-107 20,-98 13,-202 13,-303 1,-283 1,-566 1,-869 644,379 1272,748 1913,1125z"/>
   <path class="fil4 str0" d="M18341 9062l-1735 -1020 -2837 1321 1736 1020 2836 -1321z"/>
   <path class="fil5 str0" d="M15905 8773l-269 -158 63 -29 269 158 -63 29z"/>
   <path class="fil5 str0" d="M15790 8826l-268 -157 63 -30 268 158 -63 29z"/>
   <path class="fil5 str0" d="M15676 8880l-268 -158 63 -29 268 157 -63 30z"/>
   <path class="fil5 str0" d="M17140 9499l-1152 -677 63 -29 1152 677 -63 29z"/>
   <path class="fil5 str0" d="M17026 9552l-1152 -677 63 -29 1152 677 -63 29z"/>
   <path class="fil5 str0" d="M16912 9605l-1152 -677 63 -29 1152 677 -63 29z"/>
   <path class="fil5 str0" d="M15521 8952l-268 -158 63 -29 268 157 -63 30z"/>
   <path class="fil5 str0" d="M15407 9005l-268 -158 63 -29 268 157 -63 30z"/>
   <path class="fil5 str0" d="M15293 9058l-268 -158 63 -29 268 158 -63 29z"/>
   <path class="fil5 str0" d="M16757 9678l-1152 -678 63 -29 1152 677 -63 30z"/>
   <path class="fil5 str0" d="M16643 9731l-1152 -677 63 -30 1152 678 -63 29z"/>
   <path class="fil5 str0" d="M16529 9784l-1153 -677 63 -29 1153 677 -63 29z"/>
   <path class="fil5 str0" d="M15823 10111l-675 -396 63 -30 675 397 -63 29z"/>
   <path class="fil5 str0" d="M15709 10164l-675 -396 63 -30 675 397 -63 29z"/>
   <path class="fil5 str0" d="M15595 10218l-676 -397 63 -29 676 396 -63 30z"/>
   <path class="fil5 str0" d="M15481 10271l-676 -397 63 -29 676 397 -63 29z"/>
   <path class="fil5 str0" d="M14997 9626l-676 -397 63 -29 676 397 -63 29z"/>
   <path class="fil5 str0" d="M14883 9679l-676 -397 63 -29 676 397 -63 29z"/>
   <path class="fil5 str0" d="M14769 9732l-676 -397 63 -29 676 397 -63 29z"/>
   <path class="fil5 str0" d="M14654 9785l-675 -396 63 -30 675 397 -63 29z"/>
   <path class="fil5 str0" d="M15396 9367l-268 -157 63 -29 268 157 -63 29z"/>
   <path class="fil5 str0" d="M15067 9455l-206 -121 63 -29 206 120 -63 30z"/>
   <path class="fil6 str0" d="M15008 9209l-153 -90 195 -90 152 89 -194 91z"/>
   <path class="fil7 str0" d="M14742 9333l-153 -90 194 -90 153 89 -194 91z"/>
   <path class="fil5 str0" d="M16088 9774l-134 -79 63 -29 134 79 -63 29z"/>
   <path class="fil5 str0" d="M15893 9940l-205 -121 62 -29 206 121 -63 29z"/>
   <path class="fil8 str0" d="M15834 9694l-152 -89 194 -91 153 90 -195 90z"/>
   <path class="fil9 str0" d="M15568 9818l-153 -89 194 -91 153 90 -194 90z"/>
   <path class="fil5 str0" d="M17043 8767l-63 30 714 419 63 -29 -714 -420z"/>
   <path class="fil5 str0" d="M16929 8821l-63 29 714 420 63 -30 -714 -419z"/>
   <path class="fil5 str0" d="M16814 8874l-63 29 715 420 63 -29 -715 -420z"/>
   <path class="fil5 str0" d="M16700 8927l-63 29 715 420 63 -30 -715 -419z"/>
   <path class="fil10 str0" d="M17760 9091l-535 -314 250 -116 535 314 -250 116z"/>
   <path class="fil4 str0" d="M17558 8886l-10 4c-23,11 -46,16 -67,17 -21,1 -40,-4 -57,-14 -17,-10 -24,-21 -20,-32 4,-11 18,-22 43,-34l85 -39c27,-13 51,-20 72,-22 21,-2 40,2 55,11 7,4 11,8 14,13 2,4 3,9 1,13l12 -5 24 13 -70 33 -26 -15 6 -3c12,-6 18,-11 21,-16 2,-5 0,-9 -6,-13 -7,-4 -16,-6 -26,-5 -9,0 -20,4 -33,9l-102 48c-13,6 -20,11 -22,16 -3,5 0,9 8,14 7,4 16,6 25,5 10,0 21,-4 33,-9l12 -6 28 17z"/>
   <path class="fil4 str0" d="M17541 8959l162 -120 -11 -6 30 -14 55 32 -30 14 -12 -7 -114 77 160 -50 -14 -8 30 -14 53 31 -30 14 -12 -7 -244 71 -23 -13z"/>
   <path class="fil10 str0" d="M16452 8910l-610 -355 772 -362 610 355 -772 362z"/>
   <path class="fil11 str0" d="M16651 8594c-51,20 -114,51 -148,74 -21,14 -18,65 -51,66 -53,2 -146,-56 -168,-68 -21,-13 -100,-58 -87,-83 8,-16 95,-12 119,-24 33,-15 100,-37 141,-64 24,-17 48,49 66,59 15,9 159,28 128,40z"/>
   <path class="fil11 str0" d="M16490 8467c-11,6 -28,6 -37,0l0 0c-9,-5 -9,-9 34,-30l22 -16c19,-9 8,10 17,15l5 3c9,5 8,5 -3,11l-38 17z"/>
   <path class="fil11 str0" d="M16677 8576c-12,5 -13,14 -4,19l0 0c9,5 17,6 60,-14l34 -10c19,-9 -18,-5 -27,-11l-5 -3c-9,-5 -9,-4 -21,1l-37 18z"/>
   <path class="fil12 str0" d="M16503 8668c34,-23 97,-54 148,-74 31,-12 -113,-31 -128,-40 -18,-10 -42,-76 -66,-59 -18,11 -39,22 -61,31l-85 176c28,12 119,33 141,32 33,-1 30,-52 51,-66z"/>
   <path class="fil11 str0" d="M16657 8402c-44,-2 -92,27 -130,45l-66 31c-19,8 -42,18 -52,29 -18,21 -18,51 -4,71 5,8 21,9 32,15l312 -147c-25,-14 -57,-43 -92,-44z"/>
   <path class="fil13 str0" d="M16727 8563c42,-19 102,-42 99,-67 -3,-16 -54,-36 -76,-49 0,0 -2,-1 -3,-2l-311 148c0,0 2,1 2,1 12,7 26,22 41,26 45,0 70,4 118,0 23,-4 46,-17 64,-26l66 -31z"/>
   <path class="fil14 str0" d="M16628 8376c-6,1 -13,2 -19,4 -25,7 -42,18 -55,30 -12,13 -23,25 -43,35 -10,5 -10,11 -11,18 11,-6 21,-12 31,-18 13,-7 28,-12 47,-11 12,0 22,-3 29,-8 4,-2 8,-5 13,-7 18,-11 37,-13 57,-5 15,5 27,12 39,19 28,16 54,32 80,48 3,2 5,3 7,5 11,7 10,16 -4,23 -4,3 -10,5 -15,7 -21,5 -31,14 -35,25 -3,9 -12,16 -26,22 -10,4 -20,8 -31,12 1,1 1,1 1,2 9,-2 18,-3 26,-5 18,-6 36,-12 53,-17 32,-10 62,-21 86,-36 19,-13 37,-35 13,-48 -1,1 -24,-2 -21,-5 7,-9 -4,-21 -13,-29 -17,-17 -45,-29 -68,-43 -59,-37 -132,-20 -141,-18z"/>
   <path class="fil15 str0" d="M16209 8769l98 -29 141 -42c-16,4 56,-31 56,-31 -5,-1 -178,-21 -182,-22 0,2 -81,42 -175,88l62 36z"/>
   <path class="fil15 str0" d="M16089 8699l60 35c99,-46 186,-86 190,-85 -1,-3 -20,-89 -20,-91 0,0 -78,33 -68,25l-96 69 -66 47z"/>
   <path class="fil4 str0" d="M16448 8734l-55 4 -3 -6 58 2z"/>
   <path class="fil16 str0" d="M16203 8766l247 144c48,-50 82,-71 111,-85 10,-4 -66,-60 -60,-124l8 -37c-4,2 -142,52 -142,52l-164 50z"/>
   <path class="fil17 str0" d="M16337 8646l-110 16 -44 61 115 -21 44 -52 -5 -4z"/>
   <path class="fil4 str0" d="M16323 8557l-128 109 143 -19 -15 -90z"/>
   <path class="fil4 str0" d="M16509 8665l-223 54 53 -72 170 18z"/>
   <path class="fil17 str0" d="M16170 8746l127 -79 -165 57 38 22z"/>
   <path class="fil18 str0" d="M16288 8815l52 -9 -17 -39 109 7 69 -70 8 -40 -308 101 87 50z"/>
   <path class="fil16 str0" d="M15884 8580c56,-32 102,-56 102,-56 -53,13 -101,23 -143,32l41 24z"/>
   <path class="fil16 str0" d="M16096 8704l113 -73c0,0 113,-75 119,-77l-54 3c-181,3 -233,-53 -259,-42 -5,2 -82,19 -167,44l248 145z"/>
   <path class="fil18 str0" d="M16036 8629l-24 26 87 50 228 -151 -91 4 -131 26 3 58 -72 -13z"/>
   <path class="fil4 str0" d="M18204 8798c-191,113 -367,219 -544,322 -538,313 -1077,624 -1614,939 -62,37 -106,37 -169,-1 -583,-352 -1170,-700 -1755,-1050 -23,-13 -44,-30 -79,-54 671,-387 1332,-768 2011,-1159 0,267 0,520 0,774 0,87 -1,175 -2,262 -2,77 43,131 111,121 44,-6 106,-63 114,-107 19,-98 13,-202 13,-303 1,-283 1,-566 1,-868 644,378 1272,747 1913,1124z"/>
   <path class="fil3 str0" d="M18299 8641c-191,112 -367,218 -545,321 -538,313 -1077,625 -1614,940 -62,36 -105,37 -168,-1 -584,-352 -1170,-701 -1755,-1050 -24,-14 -45,-31 -79,-55 671,-386 1332,-767 2011,-1159 0,267 0,521 0,774 0,88 -1,175 -3,263 -1,77 43,131 112,121 44,-6 105,-64 114,-107 19,-99 12,-202 13,-304 1,-282 0,-565 0,-868 644,379 1272,748 1914,1125z"/>
   <path class="fil1 str0" d="M18299 8420c-191,113 -367,218 -545,322 -538,313 -1077,624 -1614,939 -62,37 -105,37 -168,-1 -584,-352 -1170,-700 -1755,-1050 -24,-13 -45,-30 -79,-54 671,-387 1332,-768 2011,-1159 0,267 0,520 0,774 0,87 -1,175 -3,262 -1,77 43,131 112,121 43,-6 105,-64 114,-107 19,-98 12,-202 13,-303 1,-283 0,-566 0,-868 644,378 1272,747 1914,1124z"/>
   <path class="fil2 str0" d="M18051 8350c-191,113 -367,218 -545,321 -538,314 -1077,625 -1614,940 -62,36 -105,37 -168,-1 -584,-352 -1170,-700 -1755,-1050 -24,-14 -45,-31 -79,-54 671,-387 1332,-768 2011,-1160 0,267 0,521 0,774 0,88 -1,175 -3,263 -1,77 43,131 112,121 43,-6 105,-64 114,-107 19,-98 12,-202 13,-303 1,-283 0,-566 0,-869 644,379 1272,748 1914,1125z"/>
   <path class="fil3 str0" d="M18046 8168c-190,113 -366,218 -544,322 -538,313 -1077,624 -1614,939 -62,37 -105,37 -168,-1 -584,-352 -1170,-700 -1756,-1050 -23,-13 -44,-30 -78,-54 671,-387 1332,-768 2011,-1159 0,267 0,520 0,774 -1,87 -1,175 -3,262 -1,77 43,131 111,121 44,-6 106,-64 115,-107 19,-98 12,-202 13,-303 1,-283 0,-566 0,-868 644,378 1272,747 1913,1124z"/>
   <path class="fil1 str0" d="M18299 8105c-191,113 -367,218 -545,322 -538,313 -1077,624 -1614,939 -62,36 -105,37 -168,-1 -584,-352 -1170,-700 -1755,-1050 -24,-14 -45,-30 -79,-54 671,-387 1332,-768 2011,-1159 0,267 0,520 0,774 0,87 -1,175 -3,262 -1,77 43,131 112,121 44,-6 105,-64 114,-107 19,-98 12,-202 13,-303 1,-283 0,-566 0,-868 644,378 1272,747 1914,1124z"/>
   <path class="fil2 str0" d="M18145 7972c-190,112 -367,218 -544,321 -538,313 -1077,625 -1614,940 -62,36 -106,37 -169,-1 -583,-352 -1170,-700 -1755,-1050 -23,-14 -44,-31 -79,-55 672,-386 1332,-767 2011,-1159 0,267 0,521 0,774 0,88 -1,175 -2,263 -1,77 43,131 111,121 44,-6 106,-64 114,-107 20,-99 13,-202 13,-304 1,-282 1,-565 1,-868 644,379 1272,748 1913,1125z"/>
   <path class="fil3 str0" d="M18141 7790c-191,113 -367,218 -544,322 -538,313 -1077,624 -1614,939 -62,36 -106,37 -169,-1 -583,-352 -1170,-700 -1755,-1050 -23,-14 -44,-30 -79,-54 671,-387 1332,-768 2011,-1159 0,267 0,520 0,773 0,88 -1,176 -2,263 -2,77 43,131 111,121 44,-6 106,-64 114,-107 19,-98 13,-202 13,-303 1,-283 1,-566 1,-868 643,378 1272,747 1913,1124z"/>
   <path class="fil4 str0" d="M18204 7507c-191,112 -367,218 -545,321 -537,313 -1076,624 -1613,939 -62,37 -106,38 -169,-1 -583,-352 -1170,-700 -1755,-1049 -23,-14 -44,-31 -79,-55 671,-387 1332,-768 2011,-1159 0,267 0,520 0,774 0,87 -1,175 -2,262 -2,77 43,131 111,122 44,-7 106,-64 114,-108 19,-98 13,-201 13,-303 1,-283 1,-565 1,-868 644,378 1272,748 1913,1125z"/>
   <path class="fil3 str0" d="M18172 7443c-190,113 -366,219 -544,322 -538,313 -1077,624 -1614,939 -62,37 -105,37 -168,-1 -584,-352 -1170,-700 -1756,-1049 -23,-14 -44,-31 -78,-55 671,-387 1332,-768 2011,-1159 0,267 0,521 0,774 0,87 -2,175 -3,262 -1,77 43,131 112,122 43,-7 105,-64 114,-108 19,-98 12,-201 13,-303 1,-283 0,-565 0,-868 644,378 1272,748 1913,1124z"/>
   <path class="fil1 str0" d="M18172 7223c-190,113 -366,218 -544,322 -538,313 -1077,624 -1614,939 -62,36 -105,37 -168,-1 -584,-352 -1170,-700 -1756,-1050 -23,-14 -44,-30 -78,-54 671,-387 1332,-768 2011,-1160 0,268 0,521 0,774 -1,88 -2,175 -3,263 -1,77 43,131 111,121 44,-6 106,-64 115,-107 19,-98 12,-202 13,-303 1,-283 0,-566 0,-869 644,379 1272,748 1913,1125z"/>
   <path class="fil2 str0" d="M17924 7153c-190,112 -366,218 -544,321 -538,313 -1077,624 -1614,939 -62,37 -105,38 -168,0 -584,-353 -1170,-701 -1755,-1050 -24,-14 -45,-31 -79,-55 671,-387 1332,-768 2011,-1159 0,267 0,521 0,774 -1,87 -1,175 -3,262 -1,77 43,131 112,122 43,-6 105,-64 114,-108 19,-98 12,-201 13,-303 1,-282 0,-565 0,-868 644,379 1272,748 1913,1125z"/>
   <path class="fil3 str0" d="M17920 6971c-190,112 -366,218 -544,321 -538,313 -1077,625 -1614,940 -62,36 -105,37 -168,-1 -584,-352 -1170,-700 -1756,-1050 -23,-14 -44,-31 -78,-54 671,-387 1332,-768 2011,-1160 0,267 0,521 0,774 -1,88 -2,175 -3,263 -1,77 43,131 111,121 44,-6 106,-64 115,-107 19,-98 12,-202 13,-303 1,-283 0,-566 0,-869 644,379 1272,748 1913,1125z"/>
   <path class="fil1 str0" d="M18172 6908c-190,112 -366,218 -544,321 -538,314 -1077,625 -1614,940 -62,36 -105,37 -168,-1 -584,-352 -1170,-700 -1756,-1050 -23,-14 -44,-31 -78,-54 671,-387 1332,-768 2011,-1160 0,267 0,521 0,774 0,88 -2,175 -3,263 -1,77 43,131 112,121 43,-6 105,-64 114,-107 19,-99 12,-202 13,-303 1,-283 0,-566 0,-869 644,379 1272,748 1913,1125z"/>
   <path class="fil2 str0" d="M18019 6775c-190,112 -367,218 -544,321 -538,313 -1077,624 -1614,939 -62,37 -106,37 -169,-1 -583,-352 -1170,-700 -1755,-1049 -23,-14 -44,-31 -79,-55 671,-387 1332,-768 2011,-1159 0,267 0,520 0,774 0,87 -1,175 -2,262 -2,77 43,131 111,122 44,-7 106,-64 114,-108 20,-98 13,-201 13,-303 1,-283 1,-565 1,-868 644,378 1272,748 1913,1125z"/>
   <path class="fil3 str0" d="M18015 6593c-191,112 -367,218 -545,321 -537,313 -1076,625 -1613,940 -62,36 -106,37 -169,-1 -583,-352 -1170,-700 -1755,-1050 -23,-14 -44,-31 -79,-55 671,-386 1332,-767 2011,-1159 0,267 0,521 0,774 0,88 -1,175 -2,263 -2,77 43,131 111,121 44,-6 105,-64 114,-107 19,-99 13,-202 13,-304 1,-282 1,-565 1,-868 643,379 1272,748 1913,1125z"/>
   <path class="fil4 str0" d="M18349 6176l-1787 -932 -2613 1539 1787 931 2613 -1538z"/>
   <path class="fil5 str0" d="M15957 6039l-276 -144 58 -34 276 144 -58 34z"/>
   <path class="fil5 str0" d="M15852 6101l-276 -144 58 -34 276 144 -58 34z"/>
   <path class="fil5 str0" d="M15747 6163l-276 -144 58 -34 276 144 -58 34z"/>
   <path class="fil5 str0" d="M17230 6703l-1187 -619 58 -34 1187 618 -58 35z"/>
   <path class="fil5 str0" d="M17125 6764l-1187 -618 58 -35 1187 619 -58 34z"/>
   <path class="fil5 str0" d="M17020 6826l-1187 -618 58 -35 1187 619 -58 34z"/>
   <path class="fil5 str0" d="M15604 6247l-276 -144 58 -35 277 145 -59 34z"/>
   <path class="fil5 str0" d="M15499 6309l-276 -144 58 -35 276 145 -58 34z"/>
   <path class="fil5 str0" d="M15394 6371l-276 -145 58 -34 276 144 -58 35z"/>
   <path class="fil5 str0" d="M16877 6910l-1187 -619 58 -34 1187 619 -58 34z"/>
   <path class="fil5 str0" d="M16772 6972l-1187 -619 58 -34 1187 619 -58 34z"/>
   <path class="fil5 str0" d="M16667 7034l-1187 -619 58 -34 1187 619 -58 34z"/>
   <path class="fil5 str0" d="M16017 7416l-696 -363 58 -34 696 362 -58 35z"/>
   <path class="fil5 str0" d="M15912 7478l-696 -363 58 -34 696 362 -58 35z"/>
   <path class="fil5 str0" d="M15807 7539l-696 -362 58 -34 696 362 -58 34z"/>
   <path class="fil5 str0" d="M15701 7601l-695 -362 58 -35 695 363 -58 34z"/>
   <path class="fil5 str0" d="M15166 6972l-696 -363 58 -34 696 363 -58 34z"/>
   <path class="fil5 str0" d="M15061 7034l-696 -363 58 -34 696 363 -58 34z"/>
   <path class="fil5 str0" d="M14955 7096l-695 -363 58 -34 696 363 -59 34z"/>
   <path class="fil5 str0" d="M14850 7158l-695 -363 58 -34 695 362 -58 35z"/>
   <path class="fil5 str0" d="M15526 6681l-276 -144 58 -34 276 144 -58 34z"/>
   <path class="fil5 str0" d="M15216 6792l-212 -110 58 -35 212 111 -58 34z"/>
   <path class="fil5 str0" d="M16239 7052l-138 -71 58 -34 137 71 -57 34z"/>
   <path class="fil5 str0" d="M16067 7236l-212 -111 58 -34 212 111 -58 34z"/>
   <path class="fil5 str0" d="M17060 5959l-58 34 736 384 58 -34 -736 -384z"/>
   <path class="fil5 str0" d="M16955 6021l-58 34 736 384 58 -35 -736 -383z"/>
   <path class="fil5 str0" d="M16850 6083l-58 34 736 383 58 -34 -736 -383z"/>
   <path class="fil5 str0" d="M16745 6145l-58 34 736 383 57 -34 -735 -383z"/>
   <path class="fil5 str0" d="M16241 5548l-58 34 736 384 58 -35 -736 -383z"/>
   <path class="fil5 str0" d="M16136 5610l-58 34 736 383 58 -34 -736 -383z"/>
   <path class="fil5 str0" d="M16031 5672l-58 34 736 383 58 -34 -736 -383z"/>
   <path class="fil5 str0" d="M15926 5733l-58 35 736 383 57 -34 -735 -384z"/>
   <path class="fil19 str0" d="M6988 12205l-3526 -2661 -1794 -1354 -15 -12 1809 0 0 -1795 6815 0 0 11 0 1784 12 0 12 0 12 0 11 0 12 0 12 0 12 0 12 0 12 0 12 0 11 0 12 0 12 0 12 0 12 0 12 0 11 0 12 0 12 0 12 0 12 0 12 0 11 0 12 0 12 0 12 0 12 0 12 0 11 0 12 0 12 0 12 0 12 0 12 0 11 0 12 0 12 0 12 0 12 0 12 0 12 0 11 0 12 0 12 0 12 0 12 0 12 0 11 0 12 0 12 0 12 0 12 0 12 0 11 0 12 0 12 0 12 0 12 0 12 0 11 0 12 0 12 0 12 0 12 0 12 0 11 0 12 0 12 0 12 0 12 0 12 0 11 0 12 0 12 0 12 0 12 0 12 0 11 0 12 0 12 0 12 0 12 0 12 0 12 0 11 0 12 0 12 0 12 0 12 0 12 0 11 0 12 0 12 0 12 0 12 0 12 0 11 0 12 0 12 0 12 0 12 0 12 0 11 0 12 0 12 0 12 0 12 0 12 0 11 0 12 0 12 0 12 0 12 0 12 0 12 0 11 0 12 0 12 0 12 0 12 0 12 0 11 0 12 0 12 0 12 0 12 0 12 0 11 0 12 0 12 0 12 0 12 0 12 0 11 0 12 0 12 0 12 0 12 0 12 0 12 0 11 0 12 0 12 0 12 0 12 0 12 0 11 0 12 0 12 0 12 0 12 0 12 0 11 0 12 0 223 0 -15 12 -2031 1532 -3289 2483z"/>
   <path class="fil20 str0" d="M12323 8180l-2046 1544 -3289 2483 -3526 -2662 -1809 -1365 10670 0z"/>
   <path class="fil4 str0" d="M10277 6384l0 3340 -3289 2483 -3526 -2662 0 -3161 6815 0z"/>
   <path class="fil4 str0" d="M12323 12817l-10670 0 0 251 10670 0 0 -251z"/>
   <path class="fil21 str0" d="M6527 8540l-2605 0 0 -96 2605 0 0 96z"/>
   <path class="fil21 str0" d="M6527 8732l-2605 0 0 -96 2605 0 0 96z"/>
   <path class="fil21 str0" d="M6527 8923l-2605 0 0 -96 2605 0 0 96z"/>
   <path class="fil21 str0" d="M6527 9115l-2605 0 0 -96 2605 0 0 96z"/>
   <path class="fil21 str0" d="M9710 8527l-2604 0 0 -96 2604 0 0 96z"/>
   <path class="fil21 str0" d="M9710 8718l-2604 0 0 -95 2604 0 0 95z"/>
   <path class="fil21 str0" d="M9710 8910l-2604 0 0 -96 2604 0 0 96z"/>
   <path class="fil21 str0" d="M9710 9101l-2604 0 0 -95 2604 0 0 95z"/>
   <path class="fil21 str0" d="M5225 9475l-1303 0 0 -96 1303 0 0 96z"/>
   <path class="fil21 str0" d="M5225 9666l-1303 0 0 -96 1303 0 0 96z"/>
   <path class="fil21 str0" d="M5225 9858l-1303 0 0 -96 1303 0 0 96z"/>
   <path class="fil21 str0" d="M5225 10049l-1303 0 0 -96 1303 0 0 96z"/>
   <path class="fil21 str0" d="M5225 10353l-1303 0 0 -95 1303 0 0 95z"/>
   <path class="fil21 str0" d="M5225 10545l-1303 0 0 -96 1303 0 0 96z"/>
   <path class="fil21 str0" d="M5225 10736l-1303 0 0 -96 1303 0 0 96z"/>
   <path class="fil21 str0" d="M5225 10928l-1303 0 0 -96 1303 0 0 96z"/>
   <path class="fil21 str0" d="M9675 9491l-4009 0 0 -96 4009 0 0 96z"/>
   <path class="fil21 str0" d="M9675 9682l-4009 0 0 -95 4009 0 0 95z"/>
   <path class="fil21 str0" d="M9675 9874l-4009 0 0 -96 4009 0 0 96z"/>
   <path class="fil21 str0" d="M9675 10065l-4009 0 0 -96 4009 0 0 96z"/>
   <path class="fil21 str0" d="M9675 10368l-4009 0 0 -96 4009 0 0 96z"/>
   <path class="fil21 str0" d="M9675 10559l-4009 0 0 -95 4009 0 0 95z"/>
   <path class="fil21 str0" d="M9675 10751l-4009 0 0 -96 4009 0 0 96z"/>
   <path class="fil21 str0" d="M9675 10942l-4009 0 0 -96 4009 0 0 96z"/>
   <path class="fil21 str0" d="M9675 11312l-4009 0 0 -95 4009 0 0 95z"/>
   <path class="fil21 str0" d="M9675 11504l-4009 0 0 -96 4009 0 0 96z"/>
   <path class="fil21 str0" d="M9675 11695l-4009 0 0 -95 4009 0 0 95z"/>
   <path class="fil21 str0" d="M9675 11887l-4009 0 0 -96 4009 0 0 96z"/>
   <path class="fil21 str0" d="M12323 8160l0 5378 -10670 0 0 -5378 5335 4061 5335 -4061z"/>
   <path class="fil22 str1" d="M3959 6775l-130 0c-24,0 -44,-9 -62,-26 -17,-16 -25,-37 -25,-61l0 -152c0,-6 2,-11 6,-16 4,-4 10,-6 15,-6 6,0 11,2 15,6 5,3 7,9 7,16l0 152c0,12 4,23 12,31 5,4 9,7 14,9 6,2 12,3 17,3l131 0 0 -195c0,-6 2,-11 6,-16 5,-4 10,-6 15,-6 6,0 11,2 15,6 5,3 7,9 7,16l0 326c0,24 -8,44 -25,61 -17,17 -38,26 -62,26l-108 0c-7,0 -12,-2 -16,-7 -4,-4 -6,-9 -6,-15 0,-5 2,-10 6,-15 4,-4 9,-7 16,-7l108 0c12,0 23,-4 31,-12 9,-8 13,-18 13,-31l0 -87zm304 87l0 -130c0,-13 -4,-23 -12,-31 -9,-9 -19,-13 -32,-13l-43 0c-13,0 -23,4 -31,13 -5,4 -8,8 -10,14 -2,5 -3,11 -3,17l0 130c0,12 4,23 13,31 4,4 9,7 14,9 6,2 12,3 17,3l43 0c12,0 23,-4 31,-12 9,-8 13,-18 13,-31zm-131 -202l18 -12 26 -18c8,-6 14,-11 17,-16 6,-7 9,-14 9,-21 0,-10 -4,-18 -11,-25 -7,-6 -15,-9 -24,-9 -9,0 -18,3 -25,9 -7,5 -10,14 -10,25l0 67zm87 -14c28,0 50,8 65,25 15,15 22,36 22,61l0 130c0,24 -8,44 -25,61 -17,17 -38,26 -62,26l-43 0c-24,0 -44,-9 -61,-25 -17,-17 -26,-38 -26,-62l0 -269c0,-24 8,-44 24,-59 15,-13 33,-20 54,-20 20,0 38,7 54,21 16,13 24,33 24,57 0,14 -2,25 -6,32 -3,7 -10,15 -20,22zm348 216l0 -174 -87 0c-13,0 -23,4 -32,12 -4,4 -7,9 -9,14 -2,5 -3,11 -3,17l0 131c0,12 4,22 12,31 5,4 9,7 14,9 7,2 12,3 18,3l43 0c12,0 22,-4 31,-12 9,-8 13,-18 13,-31zm21 58c-7,8 -17,15 -29,20 -12,6 -24,9 -36,9l-43 0c-24,0 -44,-9 -61,-26 -18,-16 -26,-37 -26,-61l0 -131c0,-24 8,-44 25,-61 17,-17 38,-26 62,-26l108 0c15,0 22,8 22,22l0 195c0,9 3,18 8,27 5,8 12,14 22,19 9,4 14,10 14,19 0,7 -3,12 -7,16 -3,4 -8,7 -15,7 -3,0 -6,-1 -9,-2 -14,-6 -26,-15 -35,-27zm288 -145l81 -121c1,-3 4,-6 7,-8l5 -2 5 0c6,0 11,3 16,7 5,4 7,10 7,15 0,4 -1,8 -4,12l-79 118 79 118 3 7 1 6c0,5 -2,11 -7,15 -4,4 -10,7 -16,7 -7,0 -13,-4 -17,-10l-81 -121 -10 0 0 109c0,7 -2,12 -6,16 -4,4 -9,6 -15,6 -6,0 -11,-2 -16,-6 -4,-3 -6,-9 -6,-16l0 -109 -10 0 -80 121c-2,2 -5,5 -9,7l-9 3c-5,0 -10,-3 -16,-7 -4,-4 -7,-9 -7,-15 0,-4 1,-8 4,-12l79 -118 -80 -118 -3 -7 0 -6c0,-5 2,-10 7,-15 4,-4 10,-7 16,-7 7,0 13,4 18,10l80 121 10 0 0 -109c0,-6 2,-11 6,-16 5,-4 10,-6 16,-6 5,0 10,2 15,6 4,3 6,9 6,16l0 109 10 0zm363 87l0 -174 -87 0c-12,0 -23,4 -31,12 -4,4 -7,9 -10,14 -2,5 -3,11 -3,17l0 131c0,12 5,22 13,31 4,4 9,7 14,9 6,2 12,3 17,3l44 0c12,0 22,-4 30,-12 9,-8 13,-18 13,-31zm22 58c-7,8 -17,15 -29,20 -12,6 -24,9 -36,9l-44 0c-23,0 -44,-9 -61,-26 -17,-16 -26,-37 -26,-61l0 -131c0,-24 9,-44 26,-61 17,-17 37,-26 61,-26l109 0c14,0 21,8 21,22l0 195c0,9 3,18 9,27 5,8 12,14 21,19 9,4 14,10 14,19 0,7 -2,12 -6,16 -4,4 -9,7 -16,7 -3,0 -6,-1 -9,-2 -14,-6 -25,-15 -34,-27zm151 -145l131 0 0 -44c0,-12 -4,-22 -12,-31 -8,-8 -19,-12 -32,-12l-43 0c-12,0 -23,4 -31,12 -4,4 -8,9 -10,14 -2,6 -3,11 -3,17l0 44zm0 43l0 44c0,12 4,22 13,31 4,4 9,7 14,9 6,2 12,3 17,3l109 0c5,0 11,3 15,7 4,4 6,10 6,15 0,5 -2,10 -5,15 -4,4 -9,7 -16,7l-109 0c-24,0 -44,-9 -61,-26 -17,-16 -26,-37 -26,-61l0 -131c0,-23 8,-43 25,-61 17,-17 38,-26 62,-26l43 0c24,0 44,9 62,26 17,17 25,37 25,61l0 66c0,14 -7,21 -21,21l-153 0zm521 109l0 -261c0,-8 -2,-14 -5,-18 -4,-4 -9,-7 -14,-7 -6,0 -13,4 -20,13l-91 127 -91 -127c-6,-9 -12,-13 -20,-13 -5,0 -9,3 -14,7 -3,5 -5,11 -5,18l0 261c0,7 2,12 6,16 4,4 9,6 16,6 5,0 10,-2 14,-6 5,-4 7,-9 7,-16l0 -193 69 97c6,8 12,12 18,12 6,0 12,-4 18,-12l69 -97 0 193c0,7 2,12 6,16 4,4 9,6 16,6 5,0 10,-2 14,-6 5,-4 7,-9 7,-16zm348 0c0,7 -2,12 -7,16 -4,4 -9,6 -15,6 -6,0 -11,-2 -15,-6 -5,-3 -7,-9 -7,-16l0 -261c0,-6 2,-11 7,-16 4,-4 9,-6 15,-6 5,0 11,2 15,6 4,4 7,9 7,16l0 261zm-218 -109l0 87 44 0c13,0 24,-4 32,-13 7,-9 11,-19 11,-30 0,-13 -3,-23 -10,-31 -4,-4 -8,-7 -14,-9 -5,-3 -12,-4 -19,-4l-44 0zm0 -43l44 0c27,0 49,9 65,27 14,16 22,36 22,60 0,23 -8,42 -22,59 -16,19 -38,28 -65,28l-65 0c-15,0 -22,-8 -22,-22l0 -261c0,-6 2,-11 7,-16 4,-4 9,-6 15,-6 5,0 10,2 15,6 4,3 6,9 6,16l0 109zm456 -218l-86 0c-7,0 -12,-1 -17,-5 -3,-5 -5,-10 -5,-16 0,-5 2,-10 5,-15 4,-4 9,-7 17,-7l86 0c6,0 12,3 16,7 4,4 6,9 6,15 0,5 -2,10 -5,14 -4,5 -9,7 -17,7zm66 370c0,14 -8,22 -22,22l-109 0c-23,0 -43,-9 -61,-25 -17,-17 -26,-38 -26,-62l0 -196c0,-5 3,-11 7,-16 4,-3 9,-5 15,-5 6,0 11,2 15,5 4,4 7,9 7,16l0 196c0,12 4,23 12,31 4,4 9,7 14,9 6,2 12,3 17,3l87 0 0 -239c0,-5 3,-11 7,-16 4,-3 9,-5 15,-5 6,0 11,2 15,5 4,4 7,9 7,16l0 261zm564 0c0,14 -7,22 -22,22l-108 0c-24,0 -44,-9 -61,-26 -18,-16 -26,-37 -26,-61l0 -196c0,-6 2,-11 6,-16 5,-4 10,-6 15,-6 6,0 11,2 15,6 5,4 7,9 7,16l0 196c0,12 4,22 12,31 5,4 9,7 14,9 7,2 12,3 18,3l87 0 0 -239c0,-6 2,-11 6,-16 5,-4 10,-6 15,-6 6,0 11,2 15,6 5,4 7,9 7,16l0 261zm201 -109l-27 0c-7,0 -12,-2 -16,-6 -4,-5 -6,-10 -6,-16 0,-5 2,-10 6,-14 4,-5 9,-7 16,-7l21 0c14,0 24,-5 32,-14 8,-8 12,-18 12,-30 0,-12 -4,-22 -11,-30 -3,-4 -8,-7 -13,-10 -6,-2 -12,-3 -20,-3l-21 0c-20,0 -38,6 -52,17 -4,3 -9,5 -14,5 -4,0 -9,-2 -15,-6 -4,-5 -6,-10 -6,-16 0,-7 3,-13 9,-17 22,-18 48,-27 78,-27l21 0c28,0 49,9 65,27 15,17 22,37 22,60 0,7 0,13 -1,19 -1,6 -3,11 -6,17 -4,10 -11,20 -20,30 8,7 15,17 20,29l5 17c2,6 2,12 2,19 0,24 -7,44 -22,60 -15,18 -37,27 -65,27l-21 0c-29,0 -55,-9 -78,-26 -6,-5 -9,-11 -9,-18 0,-5 2,-10 6,-15 4,-5 10,-7 15,-7 4,0 9,1 14,5 15,12 32,17 52,17l21 0c14,0 24,-4 32,-13 8,-9 12,-19 12,-31 0,-11 -3,-20 -9,-28 -7,-8 -16,-13 -29,-15zm342 44l0 -131c0,-12 -4,-22 -13,-31 -8,-8 -18,-12 -31,-12l-43 0c-13,0 -23,4 -32,12 -4,4 -7,9 -9,14 -2,5 -3,11 -3,17l0 131c0,12 4,22 12,31 5,4 9,7 14,9 7,2 12,3 18,3l43 0c12,0 22,-4 31,-12 8,-8 13,-18 13,-31zm-70 -218l-98 -92c-5,-6 -8,-12 -8,-18 0,-5 2,-9 6,-13 4,-5 10,-7 17,-7l174 0c6,0 11,3 16,7 4,4 6,9 6,15 0,5 -2,10 -5,14 -4,5 -10,7 -17,7l-119 0 115 110 5 8c14,16 21,35 21,56l0 131c0,24 -9,44 -25,61 -18,17 -38,26 -62,26l-43 0c-24,0 -44,-9 -61,-26 -18,-16 -26,-37 -26,-61l0 -131c0,-24 8,-44 25,-61 17,-17 38,-26 62,-26l17 0zm417 283c0,14 -7,22 -22,22l-109 0c-23,0 -43,-9 -60,-26 -18,-16 -26,-37 -26,-61l0 -196c0,-6 2,-11 6,-16 4,-4 9,-6 15,-6 6,0 11,2 15,6 5,4 7,9 7,16l0 196c0,12 4,22 12,31 5,4 9,7 14,9 6,2 12,3 17,3l88 0 0 -239c0,-6 2,-11 6,-16 4,-4 9,-6 15,-6 6,0 11,2 15,6 5,4 7,9 7,16l0 261zm130 -22l87 0c12,0 22,-4 31,-12 8,-8 12,-18 12,-31l0 -131c0,-12 -4,-22 -12,-31 -8,-8 -18,-12 -31,-12l-87 0 0 217zm0 44l0 108c0,6 -3,11 -7,15 -4,5 -9,7 -15,7 -5,0 -10,-2 -14,-6 -5,-3 -8,-9 -8,-16l0 -391c0,-14 8,-22 22,-22l109 0c23,0 44,9 61,26 17,17 26,37 26,61l0 131c0,24 -9,44 -26,61 -17,17 -37,26 -61,26l-87 0zm434 -87l0 -174 -87 0c-12,0 -23,4 -31,12 -4,4 -7,9 -9,14 -2,5 -4,11 -4,17l0 131c0,12 5,22 13,31 4,4 9,7 14,9 6,2 12,3 17,3l44 0c12,0 22,-4 30,-12 9,-8 13,-18 13,-31zm22 58c-7,8 -17,15 -29,20 -12,6 -24,9 -36,9l-44 0c-23,0 -44,-9 -61,-26 -17,-16 -26,-37 -26,-61l0 -131c0,-24 9,-44 26,-61 17,-17 37,-26 61,-26l109 0c14,0 21,8 21,22l0 195c0,9 3,18 9,27 5,8 12,14 21,19 10,4 14,10 14,19 0,7 -2,12 -6,16 -4,4 -9,7 -16,7 -3,0 -6,-1 -9,-2 -14,-6 -25,-15 -34,-27zm238 -232l-87 0 0 239c0,7 -2,12 -6,16 -4,4 -9,6 -15,6 -6,0 -11,-2 -15,-6 -5,-3 -7,-9 -7,-16l0 -261c0,-14 7,-22 22,-22l195 0c23,0 44,9 61,26 17,17 26,37 26,61l0 196c0,7 -2,12 -6,16 -4,4 -10,6 -16,6 -6,0 -11,-2 -15,-6 -4,-3 -7,-9 -7,-16l0 -196c0,-12 -4,-22 -12,-31 -8,-8 -18,-12 -31,-12l-44 0 0 239c0,7 -2,12 -6,16 -4,4 -9,6 -15,6 -6,0 -11,-2 -15,-6 -5,-3 -7,-9 -7,-16l0 -239zm304 87l131 0 0 -44c0,-12 -4,-22 -13,-31 -8,-8 -18,-12 -31,-12l-43 0c-13,0 -23,4 -32,12 -4,4 -7,9 -9,14 -2,6 -3,11 -3,17l0 44zm0 43l0 44c0,12 4,22 12,31 5,4 9,7 14,9 7,2 12,3 17,3l109 0c6,0 11,3 16,7 4,4 6,10 6,15 0,5 -2,10 -5,15 -4,4 -10,7 -17,7l-108 0c-24,0 -44,-9 -62,-26 -17,-16 -25,-37 -25,-61l0 -131c0,-23 8,-43 25,-61 17,-17 37,-26 62,-26l43 0c24,0 44,9 61,26 17,17 26,37 26,61l0 66c0,14 -7,21 -22,21l-152 0zm478 109c0,7 -2,12 -6,16 -4,4 -9,6 -16,6 -6,0 -11,-2 -15,-6 -4,-3 -6,-9 -6,-16l0 -239 -50 0 -82 246c-1,4 -4,8 -8,11 -1,1 -5,2 -12,4 -5,0 -10,-2 -15,-7 -4,-3 -7,-8 -7,-14l2 -8 86 -261c3,-10 10,-15 20,-15l87 0c15,0 22,8 22,22l0 261zm130 -109l0 87 87 0c13,0 24,-4 32,-13 8,-9 11,-19 11,-30 0,-13 -3,-23 -10,-31 -4,-4 -8,-7 -14,-9 -5,-3 -12,-4 -19,-4l-87 0zm0 -43l87 0c27,0 49,9 65,27 14,16 22,36 22,60 0,23 -7,42 -22,59 -16,19 -38,28 -65,28l-109 0c-14,0 -22,-8 -22,-22l0 -261c0,-6 3,-11 7,-16 4,-4 9,-6 15,-6 6,0 11,2 15,6 4,3 7,9 7,16l0 109z"/>
   <path class="fil22 str1" d="M5453 7596c0,7 -2,12 -7,17 -3,3 -9,5 -15,5 -6,0 -11,-2 -15,-6 -4,-3 -7,-9 -7,-16l0 -369 -174 0 0 369c0,7 -2,12 -6,17 -4,3 -9,5 -15,5 -6,0 -11,-2 -15,-6 -5,-3 -7,-9 -7,-16l0 -391c0,-14 7,-22 22,-22l217 0c14,0 22,8 22,22l0 391zm130 -195l130 0c12,0 22,-4 31,-13 8,-8 13,-18 13,-31l0 -87c0,-12 -4,-22 -13,-31 -8,-8 -18,-12 -31,-12l-130 0 0 174zm0 43l0 152c0,7 -2,12 -6,17 -4,3 -10,5 -16,5 -6,0 -11,-2 -15,-6 -4,-3 -7,-9 -7,-16l0 -391c0,-14 8,-22 22,-22l152 0c24,0 45,9 62,26 16,17 25,37 25,61l0 87c0,24 -9,44 -26,61 -17,17 -37,26 -61,26l-130 0zm564 152c0,7 -2,12 -6,17 -4,3 -9,5 -16,5 -5,0 -10,-2 -15,-6 -4,-3 -6,-9 -6,-16l0 -307 -176 318c-3,4 -6,8 -10,10l-5 3c-1,0 -3,1 -6,1 -5,0 -9,-2 -15,-6 -3,-4 -5,-11 -5,-19l0 -391c0,-5 2,-11 6,-16 5,-3 10,-5 15,-5 6,0 11,2 15,5 5,4 7,9 7,16l0 307 176 -317c2,-4 5,-7 9,-10 4,-3 8,-5 12,-5 5,0 9,3 14,7 4,5 6,11 6,18l0 391zm282 -369l-152 0 0 369c0,7 -2,12 -6,17 -4,3 -9,5 -15,5 -6,0 -11,-2 -16,-6 -4,-3 -6,-9 -6,-16l0 -391c0,-14 7,-22 22,-22l174 0c5,0 11,3 15,7 4,4 6,10 6,15 0,5 -2,10 -5,15 -4,4 -9,7 -17,7zm260 369c0,7 -2,12 -6,17 -4,3 -9,5 -16,5 -5,0 -10,-2 -15,-6 -4,-3 -6,-9 -6,-16l0 -369 -71 0 -104 375c-1,4 -3,8 -7,11 -4,3 -9,5 -14,5 -6,0 -11,-2 -15,-6 -5,-3 -7,-8 -7,-15 0,-3 1,-5 1,-7l109 -390c3,-11 10,-17 21,-17l108 0c15,0 22,8 22,22l0 391zm163 -87l-32 94c-2,4 -4,8 -8,11 -3,2 -7,3 -12,4 -5,0 -11,-2 -15,-6 -5,-4 -7,-9 -7,-15l2 -8 130 -391c4,-12 11,-18 21,-18 9,0 16,6 20,18l130 391 2 8c0,5 -3,10 -8,15 -4,4 -9,6 -15,6 -3,0 -6,-1 -10,-2 -3,-2 -7,-6 -10,-13l-31 -94 -157 0zm142 -44l-63 -191 -65 191 128 0zm367 110l108 0 0 -370c0,-6 3,-11 7,-16 4,-4 9,-6 15,-6 5,0 10,2 15,6 5,3 7,9 7,16l0 391c0,15 -8,22 -22,22l-303 0c-15,0 -22,-7 -22,-22l0 -391c0,-6 2,-11 6,-16 5,-4 10,-6 16,-6 5,0 10,2 14,6 5,4 7,9 7,16l0 370 109 0 0 -370c0,-6 2,-11 6,-16 4,-4 10,-6 15,-6 6,0 11,2 15,6 5,4 7,9 7,16l0 370zm315 -66l-31 94c-2,4 -4,8 -8,11 -3,2 -7,3 -12,4 -6,0 -11,-2 -15,-6 -5,-4 -7,-9 -7,-15l1 -8 131 -391c4,-12 11,-18 20,-18 10,0 16,6 21,18l130 391 1 8c0,5 -2,10 -7,15 -4,4 -10,6 -15,6 -3,0 -6,-1 -10,-2 -3,-2 -7,-6 -10,-13l-31 -94 -158 0zm143 -44l-64 -191 -64 191 128 0zm215 -108l109 0c6,0 11,3 15,7 5,4 7,10 7,15 0,5 -2,10 -6,15 -3,4 -9,7 -16,7l-109 0 0 174 152 0c7,0 12,2 16,6 4,5 6,10 6,15 0,5 -2,10 -5,15 -4,4 -9,7 -16,7l-175 0c-14,0 -21,-7 -21,-21l0 -392c0,-14 7,-22 21,-22l175 0c6,0 11,3 15,7 4,4 6,10 6,15 0,5 -2,10 -5,15 -4,4 -9,7 -17,7l-152 0 0 130zm565 239c0,7 -2,12 -6,17 -4,3 -10,5 -16,5 -5,0 -10,-2 -14,-6 -5,-3 -7,-9 -7,-16l0 -310 -90 150c-6,9 -12,14 -19,14 -6,0 -13,-5 -19,-14l-90 -150 0 310c0,7 -2,12 -6,17 -4,3 -10,5 -16,5 -6,0 -11,-2 -15,-6 -4,-3 -6,-9 -6,-16l0 -389c0,-8 2,-14 6,-18 3,-5 8,-7 13,-7 4,0 8,1 11,3 3,2 6,6 10,11l112 186 111 -186c5,-9 12,-14 21,-14 5,0 10,2 14,7 4,5 6,11 6,18l0 389zm-3683 469c12,7 22,18 30,31 8,14 11,28 11,43l0 87c0,24 -8,44 -25,61 -17,17 -38,26 -61,26l-152 0c-15,0 -22,-8 -22,-22l0 -391c0,-15 7,-22 22,-22l130 0c24,0 45,9 61,26 17,17 26,37 26,61l0 44c0,9 -2,19 -5,28 -3,10 -8,19 -15,28zm-176 30l0 174 131 0c12,0 22,-4 30,-12 9,-8 13,-18 13,-31l0 -87c0,-12 -4,-23 -12,-31 -8,-8 -19,-13 -31,-13l-131 0zm109 -43c12,0 22,-4 31,-12 8,-8 13,-19 13,-31l0 -44c0,-12 -5,-23 -13,-31 -8,-8 -18,-13 -31,-13l-109 0 0 131 109 0zm249 152l-31 94c-2,4 -4,8 -8,11 -3,2 -7,3 -12,4 -6,0 -11,-3 -15,-7 -5,-3 -7,-8 -7,-14l1 -8 131 -391c4,-12 11,-19 20,-19 10,0 17,7 21,19l130 391 1 8c0,5 -2,10 -7,15 -4,4 -9,6 -15,6 -3,0 -6,-1 -10,-3 -3,-1 -7,-5 -10,-12l-31 -94 -158 0zm143 -44l-64 -192 -64 192 128 0zm367 153l-108 0c-24,0 -44,-9 -61,-26 -18,-17 -26,-37 -26,-61l0 -261c0,-24 8,-45 25,-61 17,-17 38,-26 62,-26l108 0c6,0 12,2 16,7 4,4 6,9 6,15 0,5 -2,10 -5,14 -4,5 -9,7 -17,7l-108 0c-13,0 -23,5 -32,13 -4,4 -7,9 -9,14 -2,5 -3,11 -3,17l0 261c0,12 4,22 12,31 5,4 10,7 14,9 7,2 12,3 18,3l108 0c6,0 12,3 16,7 4,4 6,10 6,15 0,5 -2,10 -5,15 -4,4 -9,7 -17,7zm586 -261l0 -152c0,-6 2,-11 7,-15 4,-5 9,-7 15,-7 5,0 11,2 15,6 4,3 7,9 7,16l0 390c0,7 -3,12 -7,17 -5,4 -10,6 -15,6 -6,0 -11,-2 -16,-6 -4,-3 -6,-9 -6,-16l0 -196 -174 0 0 196c0,7 -2,12 -6,16 -4,4 -9,6 -15,6 -6,0 -11,-2 -15,-6 -5,-3 -7,-9 -7,-16l0 -391c0,-6 2,-11 7,-16 4,-4 9,-6 15,-6 5,0 10,2 15,6 4,4 6,9 6,16l0 152 174 0zm207 152l-32 94c-1,4 -4,8 -8,11 -3,2 -7,3 -12,4 -5,0 -10,-3 -15,-7 -5,-3 -7,-8 -7,-14l2 -8 130 -391c5,-12 11,-19 21,-19 9,0 16,7 20,19l130 391 2 8c0,5 -3,10 -8,15 -4,4 -9,6 -15,6 -3,0 -6,-1 -10,-3 -3,-1 -7,-5 -10,-12l-31 -94 -157 0zm143 -44l-64 -192 -64 192 128 0zm650 -95c13,7 23,18 30,31 8,14 12,28 12,43l0 87c0,24 -9,44 -26,61 -16,17 -37,26 -61,26l-152 0c-14,0 -22,-8 -22,-22l0 -391c0,-15 8,-22 22,-22l130 0c25,0 45,9 62,26 17,17 25,37 25,61l0 44c0,9 -1,19 -4,28 -3,10 -9,19 -16,28zm-175 30l0 174 130 0c12,0 22,-4 31,-12 8,-8 13,-18 13,-31l0 -87c0,-12 -4,-23 -13,-31 -8,-8 -18,-13 -31,-13l-130 0zm109 -43c12,0 22,-4 30,-12 9,-8 13,-19 13,-31l0 -44c0,-12 -4,-23 -12,-31 -8,-8 -19,-13 -31,-13l-109 0 0 131 109 0zm499 239c0,7 -2,12 -6,16 -4,4 -9,6 -16,6 -5,0 -10,-2 -15,-6 -4,-3 -6,-9 -6,-16l0 -391c0,-6 2,-11 6,-16 5,-4 10,-6 15,-6 6,0 11,2 15,6 5,3 7,9 7,16l0 391zm-261 -196l0 174 87 0c12,0 22,-4 31,-12 8,-8 13,-18 13,-31l0 -87c0,-12 -4,-23 -13,-31 -8,-8 -18,-13 -31,-13l-87 0zm0 -43l87 0c24,0 44,9 61,26 17,16 26,37 26,61l0 87c0,24 -9,44 -25,61 -18,17 -38,26 -62,26l-109 0c-14,0 -21,-8 -21,-22l0 -391c0,-6 2,-11 6,-16 5,-4 10,-6 15,-6 6,0 11,2 15,6 5,3 7,9 7,16l0 152zm391 43l0 174 130 0c12,0 22,-4 31,-12 8,-8 13,-18 13,-31l0 -87c0,-12 -5,-23 -13,-31 -8,-8 -18,-13 -31,-13l-130 0zm0 -43l130 0c23,0 44,9 61,26 17,16 26,37 26,61l0 87c0,24 -9,44 -26,61 -17,17 -37,26 -61,26l-152 0c-14,0 -22,-8 -22,-22l0 -391c0,-15 8,-22 22,-22l174 0c6,0 11,2 15,7 4,4 6,9 6,15 0,5 -1,10 -5,14 -4,5 -9,7 -16,7l-152 0 0 131zm564 174c0,24 -9,44 -25,61 -17,17 -38,26 -62,26l-87 0c-23,0 -44,-9 -61,-26 -17,-17 -25,-37 -25,-61l0 -261c0,-24 8,-45 25,-61 17,-17 37,-26 61,-26l87 0c24,0 45,9 62,26 16,17 25,37 25,61l0 261zm-43 0l0 -261c0,-12 -4,-23 -13,-31 -8,-8 -18,-13 -31,-13l-87 0c-12,0 -22,5 -31,13 -4,4 -7,9 -9,14 -2,5 -3,11 -3,17l0 261c0,12 4,22 12,31 5,4 9,7 14,9 6,2 12,3 17,3l87 0c12,0 23,-4 31,-12 9,-8 13,-18 13,-31zm208 -131l130 0c12,0 22,-4 31,-12 8,-8 13,-18 13,-31l0 -87c0,-12 -4,-23 -13,-31 -8,-8 -18,-13 -31,-13l-130 0 0 174zm0 44l0 152c0,7 -2,12 -6,16 -4,4 -10,6 -16,6 -6,0 -11,-2 -15,-6 -4,-3 -6,-9 -6,-16l0 -391c0,-15 7,-22 21,-22l152 0c24,0 45,9 62,26 16,17 25,37 25,61l0 87c0,24 -9,44 -25,61 -18,17 -38,26 -62,26l-130 0zm608 152c0,7 -2,12 -6,16 -4,4 -9,6 -16,6 -5,0 -10,-2 -15,-6 -4,-3 -6,-9 -6,-16l0 -391c0,-6 2,-11 6,-16 5,-4 10,-6 15,-6 6,0 11,2 16,6 4,3 6,9 6,16l0 391zm-261 -196l0 174 87 0c12,0 23,-4 31,-12 9,-8 13,-18 13,-31l0 -87c0,-12 -4,-23 -12,-31 -9,-8 -19,-13 -32,-13l-87 0zm0 -43l87 0c24,0 44,9 61,26 17,16 26,37 26,61l0 87c0,24 -9,44 -25,61 -17,17 -38,26 -62,26l-109 0c-14,0 -21,-8 -21,-22l0 -391c0,-6 2,-11 6,-16 5,-4 10,-6 15,-6 6,0 11,2 15,6 5,3 7,9 7,16l0 152z"/>
  </g>
 </g>
</svg>
