<?xml version="1.0" encoding="UTF-8"?>
<!DOCTYPE svg PUBLIC "-//W3C//DTD SVG 1.0//EN" "http://www.w3.org/TR/2001/REC-SVG-20010904/DTD/svg10.dtd">
<!-- Creator: CorelDRAW X7 -->
<svg xmlns="http://www.w3.org/2000/svg" xml:space="preserve" width="200mm" height="200mm" version="1.0" style="shape-rendering:geometricPrecision; text-rendering:geometricPrecision; image-rendering:optimizeQuality; fill-rule:evenodd; clip-rule:evenodd"
viewBox="0 0 20000 20000"
 xmlns:xlink="http://www.w3.org/1999/xlink">
 <defs>
  <style type="text/css">
   <![CDATA[
    .str2 {stroke:#2B2A29;stroke-width:50}
    .str0 {stroke:#4D8A7D;stroke-width:25}
    .str1 {stroke:#9B7560;stroke-width:25}
    .fil26 {fill:none;fill-rule:nonzero}
    .fil13 {fill:#5B5B5B}
    .fil10 {fill:#434242}
    .fil21 {fill:#FDEAD2}
    .fil9 {fill:#FCE2D5}
    .fil23 {fill:#FCD5A6}
    .fil11 {fill:#F7CFB5}
    .fil6 {fill:#F7E1C2}
    .fil8 {fill:#F2F2F3}
    .fil16 {fill:#EDC5AB}
    .fil5 {fill:#CA3637}
    .fil7 {fill:#CDB799}
    .fil15 {fill:#CBA88F}
    .fil4 {fill:#6C5C49}
    .fil19 {fill:#758E9C}
    .fil12 {fill:#433F3E}
    .fil3 {fill:#3F3C3A}
    .fil17 {fill:#3F3C3A}
    .fil14 {fill:#2C8187}
    .fil18 {fill:#287579}
    .fil20 {fill:#4D8A7D}
    .fil25 {fill:#9B7560}
    .fil24 {fill:#AB8082;fill-rule:nonzero}
    .fil22 {fill:#024541;fill-rule:nonzero}
    .fil2 {fill:#4D8A7D;fill-rule:nonzero}
    .fil0 {fill:url(#id0)}
    .fil1 {fill:url(#id1)}
   ]]>
  </style>
  <radialGradient id="id0" gradientUnits="userSpaceOnUse" gradientTransform="matrix(1.41421 -0 -0 1.41421 -4142 -4140)" cx="9999.37" cy="9994.13" r="10000" fx="9999.37" fy="9994.13">
   <stop offset="0" style="stop-opacity:1; stop-color:#FEFEFE"/>
   <stop offset="0.439216" style="stop-opacity:1; stop-color:#FEFEFE"/>
   <stop offset="1" style="stop-opacity:1; stop-color:#D1E2F2"/>
  </radialGradient>
  <radialGradient id="id1" gradientUnits="userSpaceOnUse" gradientTransform="matrix(1.41421 -0 -0 1.41421 -3993 -4129)" xlink:href="#id0" cx="9640.15" cy="9969.4" r="10000" fx="9640.15" fy="9969.4">
  </radialGradient>
 </defs>
 <g id="Layer_x0020_1">
  <metadata id="CorelCorpID_0Corel-Layer"/>
  <path class="fil0" d="M-1 -6l20000 0 0 20000 -20000 0 0 -20000z"/>
  <path class="fil1" d="M-360 -31l20000 0 0 20000 -20000 0 0 -20000z"/>
  <g id="_662375245168">
   <g>
    <path class="fil2" d="M3891 6868c-36,0 -65,-22 -65,-49 0,-27 29,-49 65,-49l0 98zm12165 0l-12165 0 0 -98 12165 0 0 98zm0 -98c36,0 65,22 65,49 0,27 -29,49 -65,49l0 -98z"/>
   </g>
   <g id="_662159495696">
    <path class="fil3" d="M7419 4882l0 0c0,0 0,0 0,0l0 0z"/>
    <path class="fil4" d="M8033 4335c30,-101 271,-190 370,170 98,360 49,486 103,613 54,127 -74,1111 -377,1108 -324,-4 -394,-945 -330,-1135 65,-191 8,-756 234,-756z"/>
    <path class="fil4" d="M9099 4335c-30,-101 -271,-190 -370,170 -98,360 -49,486 -103,613 -54,127 74,1111 377,1108 324,-4 394,-945 330,-1135 -65,-191 -8,-756 -234,-756z"/>
    <path class="fil5" d="M8828 5812c-5,8 -495,16 -501,24 -154,220 -487,260 -752,319 -263,59 -273,394 -274,617l2569 0c-1,-223 -6,-557 -274,-617 -269,-60 -622,-113 -768,-343z"/>
    <path class="fil5" d="M8843 5834l0 121 -125 817 -267 0 -125 -808 0 -127 1 -1c6,-8 496,-16 501,-24 5,8 10,15 15,22z"/>
    <path class="fil6" d="M8328 5287l0 422 0 209c129,263 361,270 515,0l0 -209 0 -422c0,-340 -515,-340 -515,0z"/>
    <path class="fil6" d="M9264 4993c-51,-23 -124,33 -162,127 -38,93 -27,187 24,210 51,23 124,-33 162,-127 38,-93 28,-187 -24,-210z"/>
    <path class="fil6" d="M7907 4993c52,-23 124,33 162,127 39,93 28,187 -24,210 -51,23 -124,-33 -162,-127 -38,-93 -27,-187 24,-210z"/>
    <path class="fil7" d="M8583 5780c-93,0 -255,-162 -255,-162l0 -17 515 0 0 15c0,0 -167,164 -260,164z"/>
    <path class="fil6" d="M8586 5723c-160,0 -497,-263 -602,-640 -105,-381 93,-928 602,-928 509,0 707,547 602,928 -105,377 -442,640 -602,640z"/>
    <path class="fil4" d="M9219 4616c-50,-197 -303,-497 -540,-492 -34,-3 -73,-5 -115,-2 -43,-3 -81,-1 -116,2 -237,-5 -489,295 -539,492 -41,159 -59,315 38,478 18,49 38,84 58,98 -22,-125 -26,-215 -19,-283 19,-27 52,-36 111,-11 166,69 217,-9 341,-270 39,-81 68,-175 126,-175 58,0 87,94 125,175 125,261 176,339 342,270 58,-25 92,-16 110,11 8,68 4,158 -18,283 20,-14 40,-49 58,-98 96,-163 78,-319 38,-478z"/>
    <path class="fil8" d="M8453 6772l-217 0 -15 0 -224 -204 228 -152 -279 -131 185 -286 71 -111 124 -56 0 132 125 808 2 0z"/>
    <path class="fil8" d="M8944 6407l227 152 -224 213 -14 0 -217 0 2 0 125 -817 0 -131 151 67 67 114 161 272 -278 130z"/>
   </g>
   <path class="fil9" d="M11347 5541c-599,263 -778,403 -849,465 -109,97 -170,458 -234,764l1353 0 1354 0c-64,-306 -125,-667 -234,-764 -71,-62 -244,-199 -842,-461l-548 -4z"/>
   <path class="fil10" d="M11347 5541c-599,263 -778,403 -849,465 -109,97 -170,458 -234,764l1353 0 1354 0c-64,-306 -125,-667 -234,-764 -71,-62 -244,-199 -842,-461l-548 -4z"/>
   <path class="fil11" d="M11327 5018l0 444 0 220c160,189 421,195 581,0l0 -220 0 -444c0,-358 -581,-358 -581,0z"/>
   <path class="fil11" d="M11012 4601c51,-17 116,42 145,130 29,89 11,174 -40,191 -51,17 -116,-41 -145,-130 -30,-88 -12,-174 40,-191z"/>
   <path class="fil11" d="M12221 4601c-51,-17 -116,42 -146,130 -29,89 -11,174 40,191 51,17 117,-41 146,-130 29,-88 11,-174 -40,-191z"/>
   <path class="fil12" d="M11619 5826c0,0 -406,97 -406,121 0,25 155,823 155,823l550 0 63 -819 -362 -125z"/>
   <path class="fil13" d="M11327 5550l0 132 126 1088 -217 0 -239 -485 228 -152 -278 -130 256 -397 124 -56z"/>
   <path class="fil13" d="M11908 5551l0 131 -127 1088 217 0 238 -485 -228 -152 279 -130 -228 -385 -151 -67z"/>
   <path class="fil14" d="M11493 5961l70 109c36,0 73,0 109,0l70 -109 -123 -135 -126 135z"/>
   <path class="fil14" d="M11563 6070l-100 700 309 0 -100 -700 -109 0z"/>
   <path class="fil12" d="M11327 5462l-25 99 71 515 246 -250 -292 -364z"/>
   <path class="fil15" d="M11624 5543c-2,0 -5,0 -7,0 -142,-6 -290,-182 -290,-182l0 -21 581 0 0 33c0,0 -144,170 -284,170z"/>
   <path class="fil11" d="M11618 3827c-894,0 -551,1225 -493,1319 64,103 349,331 493,331 144,0 428,-228 493,-331 58,-94 401,-1319 -493,-1319z"/>
   <path class="fil12" d="M11908 5462l20 98 -67 521 -242 -255 289 -364z"/>
   <path class="fil16" d="M11619 5826l0 0 -292 -364 0 -8 292 362 289 -362 0 8 -289 364z"/>
   <path class="fil17" d="M11673 6073l0 0 -1 -3 1 3zm-111 0l0 0 1 -3 -1 3z"/>
   <path class="fil18" d="M11673 6073l-111 0 1 -3 109 0 1 3z"/>
   <path class="fil4" d="M12199 4734c-4,16 -9,31 -9,31 0,0 -80,273 -149,358 -132,163 -305,265 -423,265 -116,1 -287,-91 -421,-251 -53,-63 -151,-348 -152,-372 -1,-14 -5,-29 -8,-43 -18,-1 -18,121 -18,121 27,141 46,235 101,312 89,124 340,320 492,320 152,0 403,-196 491,-320 56,-78 72,-182 103,-329 0,0 7,-91 -7,-92z"/>
   <path class="fil4" d="M11892 5100c-21,-44 -187,-103 -217,-114 -30,-11 -52,28 -52,28 0,0 -21,-39 -51,-28 -30,11 -197,70 -217,114 -21,43 -31,73 -31,103 0,30 0,136 0,136 0,0 30,2 47,-11 17,-13 36,-50 36,-95 0,-46 34,-82 74,-91 43,-8 142,-25 142,-52 0,27 107,46 143,52 40,8 74,45 74,91 0,45 19,82 36,95 17,13 47,11 47,11 0,0 0,-106 0,-136 0,-30 -10,-60 -31,-103z"/>
   <path class="fil14" d="M11353 4529c-92,-5 -215,7 -237,14 -29,10 -30,13 -32,37 -2,23 1,43 18,49 23,9 22,40 34,131 12,82 43,147 188,159 8,1 15,1 22,1l0 -23c-66,0 -140,-25 -165,-76 -35,-72 -40,-218 9,-249 21,-13 90,-22 162,-19l1 -24zm277 47c-32,0 -163,-38 -257,-46 -6,0 -13,-1 -20,-1l-1 24c76,4 155,21 182,62 44,66 -35,229 -107,265 -22,11 -51,17 -81,17l0 23c125,0 172,-91 187,-121 30,-57 24,-135 96,-135 71,-1 62,76 88,133 14,31 54,125 185,122l0 -23c-32,0 -63,-5 -85,-17 -70,-36 -139,-198 -91,-265 29,-40 107,-58 183,-62l0 -24c-6,0 -12,1 -17,1 -84,8 -186,45 -262,47zm272 343c5,-1 10,-1 15,-1 146,-13 182,-78 198,-160 18,-91 19,-123 43,-131 17,-6 21,-26 20,-50 0,-24 -1,-26 -29,-36 -23,-8 -147,-19 -240,-13l0 24c73,-4 144,5 164,18 47,31 33,177 -6,249 -27,50 -100,76 -165,77l0 23z"/>
   <path class="fil4" d="M11668 4012c5,-1 10,-3 16,-4 -8,1 -16,3 -23,5 2,0 5,0 7,-1zm-469 -233c316,-272 934,75 1078,273 -58,199 -30,453 -73,735l0 -1c0,3 -1,6 -1,9 -1,2 -6,9 -7,10 -2,3 -13,0 -17,-2 -1,0 -2,-2 -2,-3 -1,-25 0,-75 0,-75 4,-39 -2,-79 4,-117 -29,-178 -6,-185 -106,-363 -8,-15 -61,-76 -69,-82 -166,-59 -224,40 -381,103 -60,23 -151,25 -217,25 -104,0 -204,-111 -206,-134 -125,188 -137,322 -174,483 5,28 10,56 13,85 0,0 2,50 0,75 0,1 -1,3 -2,3 -4,2 -15,5 -17,2 -1,-1 -6,-8 -6,-10 -3,-11 -4,-20 -4,-31 -2,-14 -5,-29 -7,-44 -47,-175 -135,-866 194,-941z"/>
   <path class="fil19" d="M15994 5049l0 0c0,0 0,0 0,0l0 0z"/>
   <g id="_662375245872">
    <path class="fil20 str0" d="M2024 1854l0 -217c0,-6 3,-12 7,-18 5,-4 11,-6 17,-6 6,0 12,2 17,6 5,4 7,10 7,18l0 434c0,8 -2,14 -7,19 -4,3 -10,5 -17,5 -6,0 -12,-2 -17,-6 -4,-4 -7,-10 -7,-18l0 -169 -145 0c-26,0 -48,-9 -67,-28 -20,-19 -29,-41 -29,-68l0 -169c0,-6 2,-12 7,-18 5,-4 11,-6 17,-6 6,0 12,2 17,6 4,4 7,10 7,18l0 169c0,13 4,25 14,34 5,5 10,8 15,11 7,2 13,3 19,3l145 0zm435 217c0,8 -2,14 -7,19 -4,3 -10,5 -17,5 -7,0 -12,-2 -17,-6 -5,-4 -7,-10 -7,-18l0 -410 -79 0 -116 416c0,5 -3,10 -8,13 -4,4 -9,5 -14,5 -8,0 -13,-2 -18,-6 -5,-4 -7,-9 -7,-17 0,-3 0,-5 1,-7l121 -434c3,-12 11,-18 23,-18l121 0c16,0 24,8 24,24l0 434zm144 -265l121 0c7,0 12,3 17,8 5,4 7,10 7,16 0,6 -2,11 -6,16 -4,6 -10,8 -18,8l-121 0 0 194 169 0c7,0 12,2 17,7 5,5 7,10 7,16 0,6 -2,12 -6,17 -4,5 -10,7 -18,7l-193 0c-16,0 -24,-7 -24,-22l0 -436c0,-16 8,-24 24,-24l193 0c7,0 13,2 17,7 5,5 7,11 7,17 0,6 -2,11 -6,16 -4,5 -10,8 -18,8l-169 0 0 145zm530 0l0 -169c0,-6 3,-12 8,-17 4,-5 10,-7 16,-7 7,0 12,2 17,6 5,4 7,10 7,18l0 434c0,7 -2,13 -7,18 -6,4 -11,6 -17,6 -6,0 -11,-2 -17,-5 -4,-4 -7,-10 -7,-18l0 -218 -193 0 0 217c0,8 -2,14 -7,19 -4,3 -10,5 -17,5 -6,0 -12,-2 -17,-6 -4,-4 -7,-10 -7,-18l0 -434c0,-6 3,-12 7,-18 5,-4 11,-6 17,-6 6,0 12,2 17,6 5,4 7,10 7,18l0 169 193 0zm483 265c0,8 -2,14 -7,19 -4,3 -10,5 -17,5 -6,0 -12,-2 -17,-6 -5,-4 -7,-10 -7,-18l0 -434c0,-6 2,-12 7,-18 5,-4 11,-6 17,-6 6,0 12,2 17,6 5,4 7,10 7,18l0 434zm-290 -217l0 194 97 0c13,0 25,-5 34,-14 10,-9 14,-21 14,-35l0 -96c0,-14 -4,-26 -13,-35 -9,-9 -21,-14 -35,-14l-97 0zm0 -48l97 0c26,0 49,10 68,28 19,19 28,42 28,69l0 96c0,27 -9,49 -28,68 -19,19 -42,28 -68,28l-121 0c-16,0 -24,-8 -24,-24l0 -434c0,-6 2,-12 7,-18 5,-4 11,-6 17,-6 6,0 12,2 17,6 5,4 7,10 7,18l0 169zm796 -145l-96 0c-8,0 -14,-2 -18,-7 -4,-5 -7,-11 -7,-17 0,-6 2,-11 6,-16 4,-6 11,-8 19,-8l241 0c6,0 12,2 17,7 4,5 7,11 7,17 0,5 -2,11 -6,16 -4,5 -10,8 -18,8l-97 0 0 410c0,8 -2,14 -7,19 -4,3 -10,5 -17,5 -6,0 -12,-2 -17,-6 -5,-4 -7,-10 -7,-18l0 -410zm313 145l122 0c6,0 12,3 17,8 4,4 7,10 7,16 0,6 -2,11 -6,16 -4,6 -10,8 -18,8l-122 0 0 194 170 0c7,0 12,2 17,7 5,5 7,10 7,16 0,6 -2,12 -6,17 -4,5 -10,7 -18,7l-194 0c-16,0 -24,-7 -24,-22l0 -436c0,-16 8,-24 24,-24l194 0c7,0 12,2 17,7 5,5 7,11 7,17 0,6 -2,11 -6,16 -4,5 -10,8 -18,8l-170 0 0 145zm338 48l145 0c13,0 25,-4 34,-13 9,-9 14,-21 14,-35l0 -97c0,-13 -4,-25 -13,-34 -10,-9 -21,-14 -35,-14l-145 0 0 193zm0 48l0 169c0,8 -2,14 -7,19 -4,3 -10,5 -17,5 -6,0 -12,-2 -17,-6 -5,-4 -7,-10 -7,-18l0 -434c0,-16 8,-24 24,-24l169 0c27,0 49,9 68,28 19,19 28,42 28,68l0 97c0,26 -9,49 -28,68 -19,19 -42,28 -68,28l-145 0zm386 -48l145 0c13,0 24,-4 34,-13 9,-9 14,-21 14,-35l0 -97c0,-13 -5,-25 -14,-34 -9,-9 -20,-14 -34,-14l-145 0 0 193zm0 48l0 169c0,8 -3,14 -7,19 -5,3 -10,5 -17,5 -7,0 -12,-2 -17,-6 -5,-4 -7,-10 -7,-18l0 -434c0,-16 8,-24 24,-24l169 0c26,0 49,9 68,28 19,19 28,42 28,68l0 97c0,26 -9,49 -28,68 -19,19 -42,28 -69,28l-144 0zm627 169c0,8 -2,14 -7,19 -4,3 -10,5 -17,5 -7,0 -12,-2 -17,-6 -5,-4 -7,-10 -7,-18l0 -341 -196 353c-3,5 -6,9 -11,12l-5 3c-1,0 -4,1 -7,2 -5,-1 -10,-3 -16,-8 -4,-5 -6,-11 -6,-20l0 -435c0,-6 2,-12 7,-18 5,-4 10,-6 17,-6 6,0 11,2 16,6 5,4 7,10 7,18l0 341 196 -352c3,-4 6,-8 11,-12 4,-3 8,-5 13,-5 5,0 10,3 15,8 4,5 7,12 7,20l0 434zm217 -410l-97 0c-7,0 -13,-2 -17,-7 -5,-5 -7,-11 -7,-17 0,-6 2,-11 6,-16 4,-6 10,-8 18,-8l242 0c6,0 12,2 17,7 4,5 7,11 7,17 0,5 -2,11 -6,16 -4,5 -10,8 -18,8l-97 0 0 410c0,8 -2,14 -7,19 -4,3 -10,5 -17,5 -6,0 -12,-2 -17,-6 -5,-4 -7,-10 -7,-18l0 -410zm530 338c0,26 -9,49 -28,68 -19,19 -42,28 -68,28l-97 0c-26,0 -49,-9 -68,-28 -19,-18 -28,-41 -28,-68l0 -290c0,-27 9,-49 28,-68 18,-19 41,-28 68,-28l97 0c26,0 49,9 68,28 19,19 28,42 28,68l0 290zm-48 0l0 -290c0,-13 -5,-25 -14,-34 -9,-9 -20,-14 -34,-14l-97 0c-14,0 -25,4 -35,14 -4,4 -8,9 -10,15 -2,6 -3,12 -3,19l0 290c0,14 4,25 13,35 5,4 11,7 16,10 7,2 13,4 19,4l97 0c13,0 24,-5 34,-14 9,-9 14,-21 14,-35zm231 -145l145 0c13,0 25,-4 34,-13 10,-9 14,-21 14,-35l0 -97c0,-13 -4,-25 -13,-34 -9,-9 -21,-14 -35,-14l-145 0 0 193zm0 48l0 169c0,8 -2,14 -7,19 -4,3 -10,5 -17,5 -6,0 -12,-2 -17,-6 -5,-4 -7,-10 -7,-18l0 -434c0,-16 8,-24 24,-24l169 0c27,0 50,9 68,28 19,19 28,42 28,68l0 97c0,26 -9,49 -28,68 -19,19 -41,28 -68,28l-145 0zm627 169c0,8 -2,14 -7,19 -4,3 -10,5 -17,5 -6,0 -12,-2 -17,-6 -4,-4 -7,-10 -7,-18l0 -341 -196 353c-2,5 -6,9 -10,12l-5 3c-2,0 -5,1 -8,2 -5,-1 -10,-3 -16,-8 -4,-5 -6,-11 -6,-20l0 -435c0,-6 2,-12 7,-18 5,-4 11,-6 17,-6 6,0 12,2 16,6 5,4 8,10 8,18l0 341 196 -352c2,-4 5,-8 10,-12 4,-3 9,-5 13,-5 5,0 10,3 15,8 5,5 7,12 7,20l0 434zm181 -96l-34 104c-2,5 -5,9 -9,12 -4,2 -8,4 -13,4 -7,0 -13,-2 -17,-6 -6,-5 -8,-10 -8,-17l1 -9 146 -434c4,-13 12,-20 22,-20 11,0 18,7 23,20l144 434 2 9c0,6 -3,12 -8,17 -5,4 -11,6 -17,6 -3,0 -7,0 -11,-2 -4,-2 -7,-6 -11,-14l-35 -104 -175 0zm159 -50l-71 -212 -71 212 142 0zm481 146c0,8 -2,14 -7,19 -4,3 -10,5 -17,5 -7,0 -12,-2 -17,-6 -5,-4 -7,-10 -7,-18l0 -410 -79 0 -116 416c0,5 -3,10 -8,13 -4,4 -9,5 -14,5 -8,0 -13,-2 -18,-6 -5,-4 -7,-9 -7,-17 0,-3 0,-5 1,-7l121 -434c3,-12 11,-18 23,-18l121 0c16,0 24,8 24,24l0 434zm144 -217l145 0c13,0 25,5 34,14 9,9 14,21 14,35l0 96c0,14 -5,25 -14,35 -5,4 -10,8 -16,10 -6,2 -12,4 -18,4l-145 0 0 -194zm0 -48l0 -169c0,-6 -3,-12 -8,-17 -5,-5 -10,-7 -16,-7 -6,0 -11,2 -17,6 -5,4 -7,10 -7,18l0 434c0,16 8,24 24,24l168 0c26,0 49,-9 68,-27 19,-19 29,-42 29,-69l0 -96c0,-27 -10,-49 -28,-68 -19,-19 -42,-29 -69,-29l-144 0zm579 0l0 -169c0,-6 2,-12 7,-17 5,-5 10,-7 17,-7 6,0 11,2 16,6 5,4 8,10 8,18l0 434c0,7 -3,13 -8,18 -6,4 -11,6 -17,6 -6,0 -11,-2 -16,-5 -5,-4 -7,-10 -7,-18l0 -218 -194 0 0 217c0,8 -2,14 -6,19 -5,3 -11,5 -18,5 -6,0 -12,-2 -16,-6 -5,-4 -8,-10 -8,-18l0 -434c0,-6 3,-12 8,-18 4,-4 10,-6 16,-6 7,0 12,2 17,6 5,4 7,10 7,18l0 169 194 0zm434 193c0,26 -10,49 -29,68 -19,19 -41,28 -68,28l-96 0c-27,0 -49,-9 -68,-28 -19,-18 -29,-41 -29,-68l0 -290c0,-27 10,-49 28,-68 19,-19 42,-28 69,-28l96 0c27,0 50,9 68,28 19,19 29,42 29,68l0 290zm-48 0l0 -290c0,-13 -5,-25 -14,-34 -9,-9 -21,-14 -35,-14l-96 0c-14,0 -26,4 -35,14 -5,4 -8,9 -10,15 -3,6 -4,12 -4,19l0 290c0,14 5,25 14,35 5,4 10,7 16,10 6,2 13,4 19,4l96 0c14,0 25,-5 34,-14 10,-9 15,-21 15,-35zm376 -434l-97 0c-7,0 -13,-2 -18,-7 -4,-5 -6,-11 -6,-17 0,-6 2,-11 6,-16 4,-5 10,-8 18,-8l97 0c6,0 12,2 17,7 4,5 7,11 7,17 0,5 -2,11 -6,16 -4,5 -10,8 -18,8zm96 506c0,8 -2,14 -7,19 -4,3 -10,5 -17,5 -6,0 -12,-2 -17,-6 -5,-4 -7,-10 -7,-18l0 -341 -196 353c-3,5 -6,9 -11,12l-5 3c-1,0 -4,1 -7,2 -5,-1 -10,-3 -16,-8 -4,-5 -6,-11 -6,-20l0 -435c0,-6 2,-12 7,-18 5,-4 10,-6 17,-6 6,0 11,2 16,6 5,4 8,10 8,18l0 341 195 -352c3,-4 6,-8 11,-12 4,-3 8,-5 13,-5 5,0 10,3 15,8 4,5 7,12 7,20l0 434zm675 0c0,8 -2,14 -7,19 -4,3 -10,5 -17,5 -6,0 -12,-2 -17,-6 -5,-4 -7,-10 -7,-18l0 -341 -196 353c-2,5 -6,9 -10,12l-6 3c-1,0 -4,1 -7,2 -5,-1 -10,-3 -16,-8 -4,-5 -6,-11 -6,-20l0 -435c0,-6 2,-12 7,-18 5,-4 10,-6 17,-6 6,0 12,2 16,6 5,4 8,10 8,18l0 341 196 -352c2,-4 5,-8 10,-12 4,-3 9,-5 13,-5 5,0 10,3 15,8 5,5 7,12 7,20l0 434zm242 -217l-73 0c-7,0 -13,-2 -18,-7 -4,-4 -6,-10 -6,-17 0,-6 2,-11 7,-16 4,-5 10,-8 17,-8l73 0c13,0 24,-4 34,-13 9,-9 14,-21 14,-35l0 -49c0,-13 -5,-25 -14,-34 -9,-9 -20,-14 -34,-14l-49 0c-10,0 -19,3 -27,9 -9,5 -14,13 -18,24 -1,5 -4,8 -8,12 -2,1 -4,3 -7,4l-7 1c-7,0 -13,-2 -18,-6 -5,-5 -8,-11 -8,-18l2 -8c6,-19 17,-35 34,-48 17,-12 36,-18 57,-18l49 0c26,0 49,9 68,28 19,19 28,42 28,68l0 49c0,14 -3,27 -9,40 -5,13 -13,23 -24,32 22,18 33,43 33,72l0 97c0,26 -9,49 -28,68 -19,19 -42,28 -68,28l-49 0c-20,0 -39,-6 -56,-18 -16,-12 -28,-28 -35,-48l-2 -8c0,-7 3,-12 8,-17 4,-5 11,-7 18,-7 9,0 16,5 21,16 4,10 9,18 18,26 9,6 19,9 28,9l49 0c13,0 24,-5 34,-14 9,-9 14,-21 14,-35l0 -96c0,-15 -4,-26 -11,-34 -8,-10 -21,-15 -37,-15zm240 0l0 194 145 0c14,0 25,-5 34,-14 10,-9 15,-21 15,-35l0 -96c0,-14 -5,-26 -14,-35 -9,-9 -21,-14 -35,-14l-145 0zm0 -48l145 0c26,0 49,10 68,28 19,19 29,42 29,69l0 96c0,27 -10,49 -29,68 -18,19 -41,28 -68,28l-169 0c-16,0 -24,-8 -24,-24l0 -434c0,-16 8,-24 24,-24l193 0c7,0 13,2 17,7 5,5 7,11 7,17 0,5 -2,11 -6,16 -4,5 -10,8 -18,8l-169 0 0 145zm627 265c0,8 -2,14 -6,19 -5,3 -11,5 -18,5 -6,0 -12,-2 -16,-6 -5,-4 -8,-10 -8,-18l0 -341 -195 353c-3,5 -7,9 -11,12l-5 3c-2,0 -4,1 -8,2 -4,-1 -10,-3 -16,-8 -4,-5 -6,-11 -6,-20l0 -435c0,-6 2,-12 7,-18 5,-4 11,-6 17,-6 6,0 12,2 17,6 5,4 7,10 7,18l0 341 196 -352c2,-4 6,-8 10,-12 5,-3 9,-5 13,-5 6,0 10,3 15,8 5,5 7,12 7,20l0 434zm145 -217l145 0c13,0 25,-4 34,-13 10,-9 14,-21 14,-35l0 -97c0,-13 -4,-25 -13,-34 -9,-9 -21,-14 -35,-14l-145 0 0 193zm0 48l0 169c0,8 -2,14 -7,19 -4,3 -10,5 -17,5 -6,0 -12,-2 -17,-6 -5,-4 -7,-10 -7,-18l0 -434c0,-16 8,-24 24,-24l169 0c27,0 49,9 68,28 19,19 28,42 28,68l0 97c0,26 -9,49 -28,68 -19,19 -42,28 -68,28l-145 0zm374 73l-35 104c-2,5 -4,9 -9,12 -3,2 -7,4 -13,4 -6,0 -12,-2 -17,-6 -5,-5 -7,-10 -7,-17l1 -9 145 -434c5,-13 13,-20 23,-20 10,0 18,7 23,20l144 434 2 9c0,6 -3,12 -8,17 -5,4 -11,6 -17,6 -3,0 -7,0 -11,-2 -4,-2 -8,-6 -11,-14l-35 -104 -175 0zm159 -50l-71 -212 -71 212 142 0zm215 -264l-97 0c-7,0 -13,-2 -18,-7 -4,-5 -6,-11 -6,-17 0,-6 2,-11 6,-16 4,-6 10,-8 18,-8l241 0c7,0 13,2 17,7 5,5 7,11 7,17 0,5 -2,11 -6,16 -4,5 -10,8 -18,8l-96 0 0 410c0,8 -2,14 -7,19 -4,3 -10,5 -17,5 -7,0 -12,-2 -17,-6 -5,-4 -7,-10 -7,-18l0 -410zm313 145l121 0c7,0 13,3 17,8 5,4 8,10 8,16 0,6 -2,11 -7,16 -4,6 -10,8 -18,8l-121 0 0 194 169 0c7,0 13,2 18,7 4,5 7,10 7,16 0,6 -2,12 -6,17 -4,5 -10,7 -18,7l-194 0c-16,0 -24,-7 -24,-22l0 -436c0,-16 8,-24 24,-24l194 0c6,0 12,2 17,7 4,5 7,11 7,17 0,6 -2,11 -6,16 -4,5 -10,8 -19,8l-169 0 0 145zm580 265c0,8 -3,14 -7,19 -5,3 -10,5 -17,5 -7,0 -12,-2 -17,-6 -5,-4 -7,-10 -7,-18l0 -410 -79 0 -116 416c-1,5 -3,10 -8,13 -4,4 -9,5 -15,5 -7,0 -13,-2 -17,-6 -5,-4 -7,-9 -7,-17 0,-3 0,-5 1,-7l121 -434c3,-12 11,-18 23,-18l120 0c17,0 25,8 25,24l0 434zm143 -217l145 0c14,0 25,5 35,14 9,9 14,21 14,35l0 96c0,14 -5,25 -14,35 -5,4 -10,8 -16,10 -6,2 -12,4 -19,4l-145 0 0 -194zm0 -48l0 -169c0,-6 -2,-12 -7,-17 -5,-5 -11,-7 -17,-7 -5,0 -10,2 -16,6 -5,4 -8,10 -8,18l0 434c0,16 8,24 24,24l169 0c26,0 49,-9 68,-27 19,-19 29,-42 29,-69l0 -96c0,-27 -10,-49 -28,-68 -19,-19 -42,-29 -69,-29l-145 0zm579 0l0 -169c0,-6 3,-12 8,-17 4,-5 10,-7 16,-7 7,0 12,2 17,6 5,4 7,10 7,18l0 434c0,7 -2,13 -7,18 -6,4 -11,6 -17,6 -6,0 -11,-2 -17,-5 -4,-4 -7,-10 -7,-18l0 -218 -193 0 0 217c0,8 -2,14 -7,19 -4,3 -10,5 -17,5 -6,0 -12,-2 -17,-6 -4,-4 -7,-10 -7,-18l0 -434c0,-6 3,-12 7,-18 5,-4 11,-6 17,-6 6,0 12,2 17,6 5,4 7,10 7,18l0 169 193 0zm434 193c0,26 -9,49 -28,68 -19,19 -42,28 -68,28l-97 0c-26,0 -48,-9 -67,-28 -19,-18 -29,-41 -29,-68l0 -290c0,-27 9,-49 28,-68 19,-19 42,-28 68,-28l97 0c27,0 49,9 68,28 19,19 28,42 28,68l0 290zm-48 0l0 -290c0,-13 -4,-25 -13,-34 -9,-9 -21,-14 -35,-14l-97 0c-13,0 -25,4 -34,14 -5,4 -8,9 -11,15 -2,6 -3,12 -3,19l0 290c0,14 5,25 14,35 5,4 10,7 15,10 7,2 14,4 19,4l97 0c13,0 25,-5 34,-14 10,-9 14,-21 14,-35z"/>
    <path class="fil20 str0" d="M14799 1565l-96 0c-7,0 -13,-2 -18,-7 -4,-5 -6,-11 -6,-17 0,-6 2,-11 6,-16 4,-5 10,-8 18,-8l96 0c7,0 13,2 17,7 5,5 7,11 7,17 0,5 -2,11 -6,16 -4,5 -10,8 -18,8zm97 506c0,8 -3,14 -7,19 -4,3 -10,5 -17,5 -7,0 -12,-2 -17,-6 -5,-4 -7,-10 -7,-18l0 -341 -196 353c-3,5 -6,9 -11,12l-5 3c-2,0 -4,1 -7,2 -5,-1 -10,-3 -16,-8 -4,-5 -7,-11 -7,-20l0 -435c0,-6 3,-12 8,-18 4,-4 10,-6 16,-6 7,0 12,2 17,6 5,4 7,10 7,18l0 341 196 -352c3,-4 6,-8 11,-12 4,-3 8,-5 13,-5 5,0 10,3 14,8 5,5 8,12 8,20l0 434zm434 -250l203 -202c5,-4 10,-6 17,-6 5,0 11,2 16,7 5,5 8,11 8,18 0,4 -2,9 -7,16l-144 143 148 262 4 13c0,6 -3,12 -8,16 -5,5 -11,7 -18,7 -8,0 -14,-4 -20,-12l-142 -252 -57 57 0 183c0,8 -3,14 -7,19 -5,3 -10,5 -17,5 -7,0 -12,-2 -17,-6 -5,-4 -7,-10 -7,-18l0 -435c0,-6 2,-11 7,-16 5,-5 10,-7 17,-7 6,0 11,2 16,5 5,5 8,11 8,18l0 185zm602 178c0,26 -9,49 -28,68 -19,19 -42,28 -68,28l-97 0c-26,0 -48,-9 -67,-28 -19,-18 -29,-41 -29,-68l0 -290c0,-27 9,-49 28,-68 19,-19 42,-28 68,-28l97 0c27,0 49,9 68,28 19,19 28,42 28,68l0 290zm-48 0l0 -290c0,-13 -4,-25 -13,-34 -9,-9 -21,-14 -35,-14l-97 0c-13,0 -25,4 -34,14 -5,4 -8,9 -11,15 -2,6 -3,12 -3,19l0 290c0,14 5,25 14,35 5,4 10,7 15,10 7,2 14,4 19,4l97 0c13,0 25,-5 34,-14 10,-9 14,-21 14,-35zm521 72c0,8 -2,14 -6,19 -5,3 -11,5 -18,5 -5,0 -10,-2 -16,-6 -5,-4 -8,-10 -8,-18l0 -344 -99 167c-6,10 -13,15 -21,15 -7,0 -14,-5 -21,-15l-101 -167 0 344c0,8 -2,14 -6,19 -5,3 -11,5 -18,5 -6,0 -12,-2 -16,-6 -5,-4 -8,-10 -8,-18l0 -432c0,-9 3,-16 7,-20 4,-5 9,-8 15,-8 5,0 9,2 12,4 4,2 7,6 11,12l125 207 124 -207c5,-10 13,-16 23,-16 5,0 10,3 15,8 4,5 6,12 6,20l0 432zm386 0c0,8 -3,14 -7,19 -4,3 -10,5 -17,5 -7,0 -12,-2 -17,-6 -5,-4 -7,-10 -7,-18l0 -341 -196 353c-3,5 -6,9 -11,12l-5 3c-2,0 -4,1 -7,2 -5,-1 -10,-3 -16,-8 -4,-5 -7,-11 -7,-20l0 -435c0,-6 3,-12 8,-18 4,-4 10,-6 16,-6 7,0 12,2 17,6 5,4 7,10 7,18l0 341 196 -352c3,-4 6,-8 11,-12 4,-3 8,-5 13,-5 5,0 10,3 14,8 5,5 8,12 8,20l0 434zm314 24l-121 0c-26,0 -49,-9 -68,-28 -19,-18 -29,-41 -29,-68l0 -290c0,-27 10,-49 28,-68 19,-19 42,-28 69,-28l121 0c6,0 12,2 17,7 4,5 7,11 7,17 0,5 -2,11 -6,16 -4,5 -10,8 -19,8l-120 0c-14,0 -26,4 -35,14 -5,4 -8,9 -10,15 -3,6 -4,12 -4,19l0 290c0,14 5,25 14,35 5,4 10,7 16,10 6,2 13,4 19,4l120 0c7,0 13,2 18,7 4,5 7,10 7,16 0,6 -2,11 -6,17 -4,5 -10,7 -18,7zm315 0l-120 0c-27,0 -49,-9 -68,-28 -19,-18 -29,-41 -29,-68l0 -290c0,-27 10,-49 28,-68 19,-19 42,-28 69,-28l120 0c7,0 13,2 17,7 5,5 8,11 8,17 0,5 -2,11 -6,16 -5,5 -11,8 -19,8l-121 0c-13,0 -25,4 -34,14 -5,4 -8,9 -11,15 -2,6 -3,12 -3,19l0 290c0,14 5,25 14,35 5,4 10,7 15,10 7,2 14,4 19,4l121 0c7,0 13,2 17,7 5,5 8,10 8,16 0,6 -2,11 -6,17 -5,5 -11,7 -19,7zm410 -24c0,8 -2,14 -7,19 -4,3 -10,5 -17,5 -6,0 -12,-2 -17,-6 -5,-4 -7,-10 -7,-18l0 -341 -196 353c-3,5 -6,9 -10,12l-6 3c-1,0 -4,1 -7,2 -5,-1 -10,-3 -16,-8 -4,-5 -6,-11 -6,-20l0 -435c0,-6 2,-12 7,-18 5,-4 10,-6 17,-6 6,0 11,2 16,6 5,4 8,10 8,18l0 341 195 -352c3,-4 6,-8 11,-12 4,-3 9,-5 13,-5 5,0 10,3 15,8 5,5 7,12 7,20l0 434zm386 0c0,8 -2,14 -7,19 -4,3 -10,5 -17,5 -7,0 -12,-2 -17,-6 -5,-4 -7,-10 -7,-18l0 -341 -196 353c-3,5 -6,9 -11,12l-5 3c-1,0 -4,1 -7,2 -5,-1 -10,-3 -16,-8 -4,-5 -6,-11 -6,-20l0 -435c0,-6 2,-12 7,-18 5,-4 10,-6 17,-6 6,0 11,2 16,6 5,4 8,10 8,18l0 341 195 -352c3,-4 6,-8 11,-12 4,-3 8,-5 13,-5 5,0 10,3 15,8 4,5 7,12 7,20l0 434zm-12730 796l-121 0c-26,0 -49,-9 -68,-28 -19,-18 -29,-41 -29,-68l0 -290c0,-27 10,-49 29,-68 18,-19 41,-28 68,-28l121 0c6,0 12,2 17,7 5,5 7,11 7,17 0,5 -2,11 -6,16 -4,5 -10,8 -18,8l-121 0c-14,0 -25,4 -35,14 -4,4 -8,9 -10,15 -2,6 -4,12 -4,19l0 290c0,14 5,25 14,35 5,4 10,7 16,10 7,2 13,4 19,4l121 0c6,0 12,2 17,7 5,5 7,10 7,16 0,6 -2,11 -6,17 -4,5 -10,7 -18,7zm699 -24c0,8 -2,14 -7,19 -4,3 -10,5 -17,5 -7,0 -12,-2 -17,-6 -5,-4 -7,-10 -7,-18l0 -410 -194 0 0 410c0,8 -2,14 -6,19 -5,3 -10,5 -18,5 -6,0 -12,-2 -16,-6 -5,-4 -8,-10 -8,-18l0 -434c0,-16 8,-24 25,-24l241 0c16,0 24,8 24,24l0 434zm144 -217l145 0c14,0 25,-4 34,-13 10,-9 15,-21 15,-35l0 -97c0,-13 -5,-25 -14,-34 -9,-9 -21,-14 -35,-14l-145 0 0 193zm0 48l0 169c0,8 -2,14 -7,19 -4,3 -10,5 -17,5 -6,0 -12,-2 -17,-6 -4,-4 -7,-10 -7,-18l0 -434c0,-16 8,-24 24,-24l169 0c27,0 50,9 68,28 19,19 29,42 29,68l0 97c0,26 -10,49 -29,68 -19,19 -41,28 -68,28l-145 0zm375 73l-35 104c-2,5 -5,9 -9,12 -3,2 -8,4 -13,4 -7,0 -12,-2 -17,-6 -5,-5 -8,-10 -8,-17l2 -9 145 -434c5,-13 12,-20 22,-20 11,0 18,7 23,20l145 434 1 9c0,6 -2,12 -8,17 -5,4 -10,6 -17,6 -3,0 -6,0 -10,-2 -4,-2 -8,-6 -12,-14l-34 -104 -175 0zm158 -50l-71 -212 -71 212 142 0zm434 -105c14,8 25,20 34,35 8,15 12,31 12,48l0 96c0,26 -9,49 -28,68 -19,19 -42,28 -68,28l-169 0c-16,0 -24,-8 -24,-24l0 -434c0,-16 8,-24 24,-24l145 0c27,0 49,9 68,28 19,19 28,42 28,68l0 49c0,11 -2,21 -5,32 -3,10 -9,20 -17,30zm-195 34l0 194 145 0c13,0 25,-5 34,-14 10,-9 14,-21 14,-35l0 -96c0,-14 -4,-26 -13,-35 -9,-9 -21,-14 -35,-14l-145 0zm121 -48c13,0 25,-4 34,-13 10,-9 14,-21 14,-35l0 -49c0,-13 -4,-25 -13,-34 -9,-9 -21,-14 -35,-14l-121 0 0 145 121 0zm506 193c0,26 -9,49 -28,68 -19,19 -42,28 -68,28l-97 0c-26,0 -49,-9 -68,-28 -19,-18 -28,-41 -28,-68l0 -290c0,-27 9,-49 28,-68 19,-19 41,-28 68,-28l97 0c26,0 49,9 68,28 19,19 28,42 28,68l0 290zm-48 0l0 -290c0,-13 -5,-25 -14,-34 -9,-9 -20,-14 -34,-14l-97 0c-13,0 -25,4 -34,14 -5,4 -8,9 -11,15 -2,6 -3,12 -3,19l0 290c0,14 4,25 14,35 4,4 10,7 15,10 7,2 13,4 19,4l97 0c13,0 24,-5 34,-14 9,-9 14,-21 14,-35zm521 72c0,8 -2,14 -6,19 -5,3 -11,5 -18,5 -5,0 -11,-2 -16,-6 -5,-4 -8,-10 -8,-18l0 -344 -100 167c-6,10 -13,15 -21,15 -7,0 -13,-5 -20,-15l-101 -167 0 344c0,8 -2,14 -7,19 -4,3 -10,5 -17,5 -6,0 -12,-2 -17,-6 -4,-4 -7,-10 -7,-18l0 -432c0,-9 3,-16 7,-20 4,-5 9,-8 15,-8 5,0 9,2 12,4 3,2 7,6 11,12l124 207 124 -207c6,-10 13,-16 23,-16 6,0 11,3 16,8 4,5 6,12 6,20l0 432zm434 -217l145 0c13,0 24,-4 34,-13 9,-9 14,-21 14,-35l0 -97c0,-13 -5,-25 -14,-34 -9,-9 -20,-14 -34,-14l-145 0 0 193zm0 48l0 169c0,8 -3,14 -7,19 -5,3 -10,5 -17,5 -7,0 -12,-2 -17,-6 -5,-4 -7,-10 -7,-18l0 -434c0,-16 8,-24 24,-24l168 0c27,0 50,9 69,28 18,19 28,42 28,68l0 97c0,26 -10,49 -28,68 -19,19 -42,28 -69,28l-144 0zm385 -96l122 0c6,0 12,3 17,8 5,4 7,10 7,16 0,6 -2,11 -6,16 -4,6 -10,8 -18,8l-122 0 0 194 170 0c7,0 12,2 17,7 5,5 7,10 7,16 0,6 -2,12 -6,17 -4,5 -10,7 -18,7l-193 0c-17,0 -25,-7 -25,-22l0 -436c0,-16 8,-24 25,-24l193 0c7,0 12,2 17,7 5,5 7,11 7,17 0,6 -2,11 -6,16 -4,5 -10,8 -18,8l-170 0 0 145zm507 242l120 0 0 -411c0,-6 3,-12 7,-18 5,-4 11,-6 17,-6 6,0 12,2 17,6 5,4 7,10 7,18l0 434c0,16 -8,24 -24,24l-337 0c-16,0 -24,-8 -24,-24l0 -434c0,-6 2,-12 7,-18 5,-4 11,-6 17,-6 6,0 12,2 17,6 5,4 7,10 7,18l0 411 121 0 0 -411c0,-6 2,-12 7,-18 5,-4 10,-6 17,-6 6,0 11,2 16,6 5,4 8,10 8,18l0 411zm350 -73l-35 104c-2,5 -5,9 -9,12 -3,2 -7,4 -13,4 -6,0 -12,-2 -17,-6 -5,-5 -8,-10 -8,-17l2 -9 145 -434c5,-13 13,-20 23,-20 10,0 18,7 23,20l144 434 2 9c0,6 -3,12 -8,17 -5,4 -11,6 -17,6 -3,0 -7,0 -11,-2 -4,-2 -8,-6 -11,-14l-35 -104 -175 0zm159 -50l-71 -212 -71 212 142 0zm480 74l0 -290c0,-13 -4,-25 -13,-34 -9,-9 -21,-14 -35,-14l-48 0c-14,0 -26,4 -35,14 -5,4 -8,9 -11,15 -2,6 -3,12 -3,19l0 290c0,14 5,25 14,35 5,4 10,7 15,10 7,2 14,4 20,4l48 0c13,0 25,-5 34,-14 10,-9 14,-21 14,-35zm-242 -193l49 0 0 -96c0,-27 10,-50 28,-69 19,-19 42,-28 69,-28l48 0c27,0 50,9 68,28 19,19 28,42 28,68l0 290c0,26 -9,49 -28,68 -19,19 -41,28 -68,28l-48 0c-27,0 -49,-9 -68,-28 -19,-18 -29,-41 -29,-68l0 -145 -49 0 0 217c0,8 -2,14 -6,19 -5,3 -11,5 -18,5 -6,0 -12,-2 -16,-6 -5,-4 -8,-10 -8,-18l0 -434c0,-6 3,-12 8,-18 4,-4 10,-6 16,-6 7,0 12,2 17,6 5,4 7,10 7,18l0 169zm772 289l-24 0 -337 0c-17,0 -25,-8 -25,-24l0 -434c0,-6 3,-12 8,-18 4,-4 10,-6 16,-6 7,0 12,2 17,6 5,4 7,10 7,18l0 411 121 0 0 -411c0,-6 2,-12 7,-18 5,-4 11,-6 17,-6 6,0 12,2 17,6 5,4 7,10 7,18l0 411 121 0 0 -411c0,-6 3,-12 8,-18 4,-4 10,-6 16,-6 6,0 12,2 17,6 5,4 7,10 7,18l0 411 24 0c16,0 24,8 24,24l0 72c0,7 -2,12 -7,17 -5,5 -10,7 -17,7 -5,0 -10,-2 -16,-6 -5,-4 -8,-10 -8,-18l0 -49zm193 -289l121 0c7,0 13,3 17,8 5,4 8,10 8,16 0,6 -2,11 -6,16 -4,6 -11,8 -19,8l-121 0 0 194 170 0c6,0 12,2 17,7 4,5 7,10 7,16 0,6 -2,12 -6,17 -4,5 -10,7 -18,7l-194 0c-16,0 -24,-7 -24,-22l0 -436c0,-16 8,-24 24,-24l194 0c6,0 12,2 17,7 4,5 7,11 7,17 0,6 -2,11 -6,16 -4,5 -10,8 -18,8l-170 0 0 145zm507 -145l-169 0 0 410c0,8 -3,14 -7,19 -5,3 -10,5 -17,5 -7,0 -12,-2 -17,-6 -5,-4 -7,-10 -7,-18l0 -434c0,-16 8,-24 24,-24l193 0c7,0 12,2 17,7 5,5 7,11 7,17 0,5 -2,11 -6,16 -4,5 -10,8 -18,8zm385 338c0,26 -9,49 -28,68 -19,19 -42,28 -68,28l-97 0c-26,0 -49,-9 -68,-28 -19,-18 -28,-41 -28,-68l0 -290c0,-27 9,-49 28,-68 19,-19 41,-28 68,-28l97 0c26,0 49,9 68,28 19,19 28,42 28,68l0 290zm-48 0l0 -290c0,-13 -4,-25 -14,-34 -9,-9 -20,-14 -34,-14l-97 0c-13,0 -25,4 -34,14 -5,4 -8,9 -11,15 -2,6 -3,12 -3,19l0 290c0,14 4,25 14,35 4,4 10,7 15,10 7,2 13,4 19,4l97 0c13,0 24,-5 34,-14 9,-9 14,-21 14,-35zm690 -338l-169 0 0 410c0,8 -3,14 -7,19 -5,3 -10,5 -17,5 -7,0 -12,-2 -17,-6 -5,-4 -7,-10 -7,-18l0 -434c0,-16 8,-24 24,-24l193 0c7,0 12,2 17,7 5,5 7,11 7,17 0,5 -2,11 -6,16 -4,5 -10,8 -18,8zm385 338c0,26 -9,49 -28,68 -19,19 -42,28 -68,28l-97 0c-26,0 -49,-9 -68,-28 -19,-18 -28,-41 -28,-68l0 -290c0,-27 9,-49 28,-68 19,-19 41,-28 68,-28l97 0c26,0 49,9 68,28 19,19 28,42 28,68l0 290zm-48 0l0 -290c0,-13 -5,-25 -14,-34 -9,-9 -20,-14 -34,-14l-97 0c-13,0 -25,4 -35,14 -4,4 -7,9 -10,15 -2,6 -3,12 -3,19l0 290c0,14 4,25 13,35 5,4 11,7 16,10 7,2 13,4 19,4l97 0c13,0 24,-5 34,-14 9,-9 14,-21 14,-35zm425 72c0,8 -2,14 -7,19 -4,3 -10,5 -17,5 -6,0 -12,-2 -17,-6 -5,-4 -7,-10 -7,-18l0 -410 -78 0 -116 416c-1,5 -4,10 -8,13 -5,4 -10,5 -15,5 -7,0 -13,-2 -18,-6 -4,-4 -7,-9 -7,-17 0,-3 1,-5 1,-7l121 -434c3,-12 11,-18 23,-18l121 0c16,0 24,8 24,24l0 434zm385 -72c0,26 -9,49 -28,68 -19,19 -42,28 -68,28l-97 0c-26,0 -49,-9 -68,-28 -19,-18 -28,-41 -28,-68l0 -290c0,-27 9,-49 28,-68 19,-19 41,-28 68,-28l97 0c26,0 49,9 68,28 19,19 28,42 28,68l0 290zm-48 0l0 -290c0,-13 -5,-25 -14,-34 -9,-9 -20,-14 -34,-14l-97 0c-13,0 -25,4 -35,14 -4,4 -7,9 -10,15 -2,6 -3,12 -3,19l0 290c0,14 4,25 13,35 5,4 11,7 16,10 7,2 13,4 19,4l97 0c13,0 24,-5 34,-14 9,-9 14,-21 14,-35zm400 96l-120 0c-27,0 -49,-9 -68,-28 -19,-18 -29,-41 -29,-68l0 -290c0,-27 10,-49 28,-68 19,-19 42,-28 69,-28l120 0c7,0 13,2 18,7 4,5 7,11 7,17 0,5 -2,11 -6,16 -5,5 -11,8 -19,8l-121 0c-13,0 -25,4 -34,14 -5,4 -8,9 -10,15 -3,6 -4,12 -4,19l0 290c0,14 5,25 14,35 5,4 10,7 16,10 6,2 13,4 18,4l121 0c7,0 13,2 18,7 4,5 7,10 7,16 0,6 -2,11 -6,17 -5,5 -11,7 -19,7zm205 -120l-34 104c-2,5 -5,9 -9,12 -3,2 -8,4 -13,4 -7,0 -12,-2 -17,-6 -6,-5 -8,-10 -8,-17l1 -9 146 -434c4,-13 12,-20 22,-20 11,0 18,7 23,20l144 434 2 9c0,6 -3,12 -8,17 -5,4 -11,6 -17,6 -3,0 -6,0 -11,-2 -4,-2 -7,-6 -11,-14l-35 -104 -175 0zm159 -50l-71 -212 -71 212 142 0z"/>
   </g>
  </g>
  <g>
   <g>
    <path class="fil21" d="M4231 8340l11536 0 0 8649 0 1166 -11536 0 0 -9815z"/>
    <path id="1" class="fil22" d="M15767 8501l-11536 0 0 -321 11536 0 127 160 -127 161zm0 -321c70,0 127,72 127,160 0,89 -57,161 -127,161l0 -321zm-126 8809l0 -8649 253 0 0 8649 0 0 -253 0zm253 0c0,89 -57,160 -127,160 -70,0 -126,-71 -126,-160l253 0zm-253 1166l0 -1166 253 0 0 1166 -127 160 -126 -160zm253 0c0,88 -57,160 -127,160 -70,0 -126,-72 -126,-160l253 0zm-11663 -160l11536 0 0 320 -11536 0 -126 -160 126 -160zm0 320c-69,0 -126,-72 -126,-160 0,-88 57,-160 126,-160l0 320zm127 -9975l0 9815 -253 0 0 -9815 126 -160 127 160zm-253 0c0,-88 57,-160 126,-160 70,0 127,72 127,160l-253 0z"/>
   </g>
   <path class="fil23" d="M4231 8340l11536 0 0 4344 -11536 -3684c18,-339 0,-434 0,-660z"/>
   <g>
    <path class="fil22" d="M15767 8501l-11536 0 0 -321 11536 0 127 160 -127 161zm0 -321c70,0 127,72 127,160 0,89 -57,161 -127,161l0 -321zm0 10135l0 -320 -126 160 0 -307 0 -306 0 -307 0 -307 0 -307 0 -306 0 -307 0 -307 0 -306 0 -307 0 -307 0 -306 0 -307 0 -307 0 -307 0 -306 0 -307 0 -307 0 -306 0 -307 0 -307 0 -307 0 -306 0 -307 0 -307 0 -306 0 -307 0 -307 0 -306 0 -307 0 -307 0 -307 253 0 0 307 0 307 0 307 0 306 0 307 0 307 0 306 0 307 0 307 0 306 0 307 0 307 0 307 0 306 0 307 0 307 0 306 0 307 0 307 0 307 0 306 0 307 0 307 0 306 0 307 0 307 0 306 0 307 0 307 0 307 0 306 0 307 -127 160zm127 -160c0,88 -57,160 -127,160 -70,0 -126,-72 -126,-160l253 0zm-11663 -160l11536 0 0 320 -11536 0 -126 -160 126 -160zm0 320c-69,0 -126,-72 -126,-160 0,-88 57,-160 126,-160l0 320zm127 -9975l0 9815 -253 0 0 -9815 126 -160 127 160zm-253 0c0,-88 57,-160 126,-160 70,0 127,72 127,160l-253 0z"/>
   </g>
   <g>
    <path class="fil24" d="M6118 11487c-10,0 -19,-23 -19,-51 0,-28 9,-51 19,-51l0 102zm1280 0l-1280 0 0 -102 1280 0 0 102zm0 -102c11,0 19,23 19,51 0,28 -8,51 -19,51l0 -102z"/>
   </g>
   <g>
    <path class="fil24" d="M6138 17352c-51,0 -93,-23 -93,-52 0,-28 42,-51 93,-51l0 103zm6297 0l-6297 0 0 -103 6297 0 0 103zm0 -103c51,0 93,23 93,51 0,29 -42,52 -93,52l0 -103zm-6297 480c-51,0 -93,-23 -93,-51 0,-28 42,-51 93,-51l0 102zm2255 0l-2255 0 0 -102 2255 0 0 0 0 102zm0 -102c51,0 93,23 93,51 0,28 -42,51 -93,51l0 -102zm4042 102l-4042 0 0 -102 4042 0 0 102zm0 -102c51,0 93,23 93,51 0,28 -42,51 -93,51l0 -102z"/>
   </g>
   <g>
    <path class="fil24" d="M6136 17165c-52,0 -93,-23 -93,-51 0,-28 41,-51 93,-51l0 102zm6297 0l-6297 0 0 -102 6297 0 0 102zm0 -102c51,0 93,23 93,51 0,28 -42,51 -93,51l0 -102zm-6297 479c-52,0 -93,-22 -93,-51 0,-28 41,-51 93,-51l0 102zm2254 0l-2254 0 0 -102 2254 0 0 0 0 102zm0 -102c52,0 93,23 93,51 0,29 -41,51 -93,51l0 -102zm4043 102l-4043 0 0 -102 4043 0 0 102zm0 -102c51,0 93,23 93,51 0,29 -42,51 -93,51l0 -102z"/>
   </g>
   <g>
    <path class="fil24" d="M8094 11487c-11,0 -19,-23 -19,-51 0,-28 8,-51 19,-51l0 102zm1280 0l-1280 0 0 -102 1280 0 0 102zm0 -102c10,0 19,23 19,51 0,28 -9,51 -19,51l0 -102z"/>
   </g>
   <g>
    <path class="fil24" d="M10069 11487c-10,0 -18,-23 -18,-51 0,-28 8,-51 18,-51l0 102zm1280 0l-1280 0 0 -102 1280 0 0 102zm0 -102c11,0 19,23 19,51 0,28 -8,51 -19,51l0 -102z"/>
   </g>
   <g>
    <path class="fil24" d="M6118 11759c-10,0 -19,-23 -19,-51 0,-28 9,-51 19,-51l0 102zm1280 0l-1280 0 0 -102 1280 0 0 102zm0 -102c11,0 19,23 19,51 0,28 -8,51 -19,51l0 -102z"/>
   </g>
   <g>
    <path class="fil24" d="M8094 11759c-11,0 -19,-23 -19,-51 0,-28 8,-51 19,-51l0 102zm1280 0l-1280 0 0 -102 1280 0 0 102zm0 -102c10,0 19,23 19,51 0,28 -9,51 -19,51l0 -102z"/>
   </g>
   <g>
    <path class="fil24" d="M10069 11759c-10,0 -18,-23 -18,-51 0,-28 8,-51 18,-51l0 102zm1280 0l-1280 0 0 -102 1280 0 0 102zm0 -102c11,0 19,23 19,51 0,28 -8,51 -19,51l0 -102z"/>
   </g>
   <g>
    <path class="fil24" d="M6118 11999c-10,0 -19,-23 -19,-52 0,-28 9,-51 19,-51l0 103zm1280 0l-1280 0 0 -103 1280 0 0 103zm0 -103c11,0 19,23 19,51 0,29 -8,52 -19,52l0 -103z"/>
   </g>
   <g>
    <path class="fil24" d="M8094 11999c-11,0 -19,-23 -19,-52 0,-28 8,-51 19,-51l0 103zm1280 0l-1280 0 0 -103 1280 0 0 103zm0 -103c10,0 19,23 19,51 0,29 -9,52 -19,52l0 -103z"/>
   </g>
   <g>
    <path class="fil24" d="M10069 11999c-10,0 -18,-23 -18,-52 0,-28 8,-51 18,-51l0 103zm1280 0l-1280 0 0 -103 1280 0 0 103zm0 -103c11,0 19,23 19,51 0,29 -8,52 -19,52l0 -103z"/>
   </g>
   <g>
    <path class="fil24" d="M6118 12271c-10,0 -19,-23 -19,-52 0,-28 9,-51 19,-51l0 103zm1280 0l-1280 0 0 -103 1280 0 0 103zm0 -103c11,0 19,23 19,51 0,29 -8,52 -19,52l0 -103z"/>
   </g>
   <g>
    <path class="fil24" d="M8094 12271c-11,0 -19,-23 -19,-52 0,-28 8,-51 19,-51l0 103zm1280 0l-1280 0 0 -103 1280 0 0 103zm0 -103c10,0 19,23 19,51 0,29 -9,52 -19,52l0 -103z"/>
   </g>
   <g>
    <path class="fil24" d="M10069 12271c-10,0 -18,-23 -18,-52 0,-28 8,-51 18,-51l0 103zm1280 0l-1280 0 0 -103 1280 0 0 103zm0 -103c11,0 19,23 19,51 0,29 -8,52 -19,52l0 -103z"/>
   </g>
   <path class="fil25 str1" d="M6118 9406l-181 0c-39,0 -73,-14 -102,-42 -28,-28 -42,-62 -42,-103l0 -434c0,-40 14,-75 42,-103 28,-28 62,-42 102,-42l181 0c10,0 19,4 26,11 7,7 11,16 11,25 0,8 -3,16 -9,24 -7,8 -16,12 -28,12l-181 0c-20,0 -38,7 -52,21 -7,7 -12,15 -15,23 -4,9 -6,19 -6,29l0 435c0,20 7,37 21,51 8,7 15,12 24,16 10,3 19,5 28,5l181 0c10,0 19,4 26,11 7,7 11,16 11,25 0,8 -3,16 -9,24 -7,8 -16,12 -28,12zm615 -36c0,11 -4,20 -10,27 -7,6 -16,9 -26,9 -10,0 -18,-3 -25,-9 -8,-6 -11,-15 -11,-27l0 -616 -290 0 0 616c0,11 -3,20 -10,27 -7,6 -16,9 -26,9 -10,0 -18,-3 -25,-9 -8,-6 -11,-15 -11,-27l0 -652c0,-24 12,-36 36,-36l362 0c24,0 36,12 36,36l0 652zm579 0c0,11 -4,20 -11,27 -6,6 -15,9 -25,9 -10,0 -18,-3 -26,-9 -7,-6 -10,-15 -10,-27l0 -512 -294 530c-4,7 -10,13 -16,17l-8 4c-2,1 -6,2 -11,3 -7,0 -15,-3 -24,-11 -6,-7 -9,-17 -9,-31l0 -651c0,-10 3,-19 10,-27 8,-6 16,-9 26,-9 9,0 17,3 24,9 8,6 12,15 12,27l0 511 293 -529c4,-5 9,-11 16,-17 6,-5 13,-7 19,-7 8,0 16,4 23,11 7,8 11,18 11,30l0 652zm470 36l-181 0c-39,0 -73,-14 -102,-42 -28,-28 -43,-62 -43,-103l0 -434c0,-40 14,-75 43,-103 28,-28 62,-42 102,-42l181 0c10,0 19,4 26,11 7,7 10,16 10,25 0,8 -3,16 -8,24 -7,8 -16,12 -28,12l-181 0c-20,0 -38,7 -52,21 -7,7 -12,15 -16,23 -3,9 -5,19 -5,29l0 435c0,20 7,37 21,51 7,7 15,12 23,16 11,3 20,5 29,5l181 0c10,0 19,4 26,11 7,7 10,16 10,25 0,8 -3,16 -8,24 -7,8 -16,12 -28,12zm582 -145c0,40 -14,74 -42,102 -28,29 -63,43 -103,43l-144 0c-40,0 -73,-14 -102,-42 -29,-28 -43,-62 -43,-103l0 -434c0,-40 14,-75 42,-103 28,-28 63,-42 103,-42l144 0c41,0 75,14 103,42 28,29 42,63 42,103l0 434zm-72 1l0 -435c0,-21 -7,-38 -20,-52 -14,-14 -31,-21 -52,-21l-145 0c-21,0 -38,7 -52,21 -7,7 -12,15 -16,23 -3,9 -5,19 -5,29l0 435c0,20 7,37 21,51 7,7 15,12 23,16 10,3 20,5 29,5l145 0c20,0 37,-7 51,-20 14,-14 21,-31 21,-52zm347 -268l305 -302c7,-7 15,-10 25,-10 9,0 17,4 25,11 8,8 11,16 11,26 0,7 -3,15 -11,25l-215 215 222 393 5 19c0,9 -4,17 -12,24 -7,7 -16,11 -26,11 -12,0 -22,-6 -30,-19l-213 -377 -86 84 0 276c0,11 -4,20 -11,27 -6,6 -15,9 -25,9 -10,0 -18,-3 -25,-9 -8,-6 -11,-15 -11,-27l0 -653c0,-9 3,-17 11,-24 7,-7 16,-11 25,-11 9,0 17,3 25,8 7,7 11,16 11,27l0 277zm1017 340l68 -620c0,-21 12,-32 36,-32l217 0c24,0 36,12 36,36l0 616 37 0c24,0 37,12 37,36l0 72c0,10 -4,18 -12,25 -7,7 -15,11 -24,11 -9,0 -17,-3 -25,-9 -8,-6 -11,-15 -11,-27l0 -36 -363 0 0 36c0,10 -4,18 -12,25 -7,7 -15,11 -24,11 -9,0 -17,-3 -25,-9 -8,-6 -11,-15 -11,-27l0 -72c0,-24 12,-36 36,-36l40 0zm286 0l0 -580 -149 0 -65 580 214 0zm690 -73c0,40 -14,74 -42,102 -29,29 -63,43 -103,43l-144 0c-40,0 -74,-14 -102,-42 -29,-28 -43,-62 -43,-103l0 -434c0,-40 14,-75 42,-103 28,-28 62,-42 103,-42l144 0c40,0 75,14 103,42 28,29 42,63 42,103l0 434zm-72 1l0 -435c0,-21 -7,-38 -21,-52 -13,-14 -31,-21 -52,-21l-145 0c-20,0 -37,7 -51,21 -7,7 -12,15 -16,23 -3,9 -5,19 -5,29l0 435c0,20 7,37 21,51 7,7 15,12 23,16 10,3 20,5 28,5l145 0c21,0 37,-7 52,-20 14,-14 21,-31 21,-52zm601 144l-182 0c-39,0 -73,-14 -102,-42 -28,-28 -42,-62 -42,-103l0 -434c0,-40 14,-75 42,-103 28,-28 62,-42 102,-42l182 0c9,0 18,4 25,11 7,7 11,16 11,25 0,8 -3,16 -9,24 -6,8 -15,12 -28,12l-181 0c-20,0 -38,7 -52,21 -7,7 -12,15 -15,23 -4,9 -5,19 -5,29l0 435c0,20 6,37 20,51 8,7 15,12 24,16 10,3 19,5 28,5l181 0c10,0 19,4 26,11 7,7 11,16 11,25 0,8 -3,16 -9,24 -6,8 -15,12 -27,12zm252 -362l217 0c21,0 37,-7 52,-20 14,-14 21,-31 21,-52l0 -145c0,-21 -7,-38 -21,-52 -13,-14 -31,-21 -52,-21l-217 0 0 290zm0 72l0 254c0,11 -3,20 -10,27 -7,6 -15,9 -26,9 -10,0 -18,-3 -25,-9 -7,-6 -11,-15 -11,-27l0 -652c0,-24 12,-36 36,-36l253 0c40,0 75,14 103,42 28,29 42,63 42,103l0 144c0,40 -14,74 -42,102 -29,29 -63,43 -103,43l-217 0zm941 145c0,40 -14,74 -43,102 -28,29 -62,43 -102,43l-145 0c-39,0 -73,-14 -101,-42 -29,-28 -43,-62 -43,-103l0 -434c0,-40 14,-75 42,-103 28,-28 62,-42 102,-42l145 0c40,0 74,14 102,42 29,29 43,63 43,103l0 434zm-72 1l0 -435c0,-21 -7,-38 -21,-52 -13,-14 -31,-21 -52,-21l-145 0c-20,0 -37,7 -52,21 -7,7 -12,15 -15,23 -4,9 -5,19 -5,29l0 435c0,20 7,37 20,51 8,7 15,12 24,16 10,3 20,5 28,5l145 0c20,0 37,-7 51,-20 15,-14 22,-31 22,-52zm636 -218l0 -326c0,-9 4,-18 11,-27 7,-6 16,-9 25,-9 9,0 18,3 25,9 8,6 11,15 11,27l0 652c0,11 -3,20 -10,27 -7,6 -15,9 -26,9 -9,0 -18,-3 -25,-9 -7,-6 -11,-15 -11,-27l0 -254 -217 0c-39,0 -73,-14 -102,-42 -28,-28 -43,-62 -43,-103l0 -253c0,-9 4,-18 11,-27 7,-6 16,-9 25,-9 9,0 18,3 25,9 8,6 11,15 11,27l0 254c0,20 7,37 21,51 7,7 15,12 23,16 11,3 20,5 29,5l217 0zm579 -72l0 -254c0,-9 4,-18 11,-25 7,-7 15,-11 25,-11 9,0 18,3 25,9 7,6 11,15 11,27l0 651c0,10 -4,19 -11,27 -9,7 -17,10 -26,10 -8,0 -17,-3 -25,-9 -7,-6 -10,-15 -10,-27l0 -326 -290 0 0 326c0,11 -3,20 -10,27 -7,6 -15,9 -26,9 -10,0 -18,-3 -25,-9 -7,-6 -11,-15 -11,-27l0 -651c0,-10 4,-19 11,-27 7,-6 15,-9 25,-9 9,0 18,3 25,9 7,6 11,15 11,27l0 253 290 0zm651 289c0,40 -14,74 -43,102 -28,29 -62,43 -102,43l-145 0c-39,0 -73,-14 -101,-42 -29,-28 -43,-62 -43,-103l0 -434c0,-40 14,-75 42,-103 28,-28 62,-42 102,-42l145 0c40,0 74,14 103,42 28,29 42,63 42,103l0 434zm-72 1l0 -435c0,-21 -7,-38 -21,-52 -13,-14 -31,-21 -52,-21l-145 0c-20,0 -37,7 -52,21 -7,7 -12,15 -15,23 -4,9 -5,19 -5,29l0 435c0,20 7,37 20,51 8,7 16,12 24,16 10,3 20,5 28,5l145 0c20,0 37,-7 52,-20 14,-14 21,-31 21,-52zm-8010 1266c0,11 -3,20 -10,27 -7,6 -15,9 -26,9 -10,0 -18,-3 -25,-9 -8,-6 -11,-15 -11,-27l0 -616 -290 0 0 616c0,11 -3,20 -10,27 -7,6 -15,9 -26,9 -10,0 -18,-3 -25,-9 -7,-6 -11,-15 -11,-27l0 -652c0,-24 12,-36 36,-36l362 0c24,0 36,12 36,36l0 652zm217 -326l217 0c20,0 37,-7 52,-20 14,-14 21,-31 21,-52l0 -145c0,-21 -7,-38 -21,-52 -13,-14 -31,-21 -52,-21l-217 0 0 290zm0 72l0 254c0,11 -4,20 -11,27 -6,6 -15,9 -25,9 -10,0 -18,-3 -26,-9 -7,-6 -10,-15 -10,-27l0 -652c0,-24 12,-36 36,-36l253 0c40,0 74,14 102,42 29,29 43,63 43,103l0 144c0,40 -14,74 -43,102 -28,29 -62,43 -102,43l-217 0zm940 145c0,40 -14,74 -42,102 -28,29 -62,43 -102,43l-145 0c-39,0 -73,-14 -102,-42 -28,-28 -43,-62 -43,-103l0 -434c0,-40 15,-75 43,-103 28,-28 62,-42 102,-42l145 0c40,0 74,14 102,42 28,29 42,63 42,103l0 434zm-72 1l0 -435c0,-21 -6,-38 -20,-52 -14,-14 -31,-21 -52,-21l-145 0c-20,0 -38,7 -52,21 -7,7 -12,15 -15,23 -4,9 -6,19 -6,29l0 435c0,20 7,37 21,51 7,7 15,12 24,16 10,3 19,5 28,5l145 0c20,0 37,-7 51,-20 14,-14 21,-31 21,-52zm601 -508l-254 0 0 616c0,11 -3,20 -10,27 -7,6 -15,9 -26,9 -10,0 -18,-3 -25,-9 -7,-6 -11,-15 -11,-27l0 -652c0,-24 12,-36 36,-36l290 0c10,0 19,4 26,11 7,7 10,16 10,25 0,8 -3,16 -9,24 -6,8 -15,12 -27,12zm578 507c0,40 -14,74 -43,102 -28,29 -62,43 -102,43l-145 0c-39,0 -73,-14 -101,-42 -29,-28 -43,-62 -43,-103l0 -434c0,-40 14,-75 42,-103 28,-28 62,-42 102,-42l145 0c40,0 74,14 103,42 28,29 42,63 42,103l0 434zm-72 1l0 -435c0,-21 -7,-38 -21,-52 -13,-14 -31,-21 -52,-21l-145 0c-20,0 -37,7 -52,21 -7,7 -12,15 -15,23 -4,9 -5,19 -5,29l0 435c0,20 7,37 20,51 8,7 16,12 24,16 10,3 20,5 28,5l145 0c20,0 37,-7 52,-20 14,-14 21,-31 21,-52zm637 108c0,11 -3,20 -10,27 -7,6 -15,9 -26,9 -10,0 -18,-3 -25,-9 -7,-6 -11,-15 -11,-27l0 -616 -118 0 -174 625c-1,7 -5,14 -12,19 -6,5 -14,8 -22,8 -11,0 -19,-3 -26,-9 -7,-6 -11,-15 -11,-26 0,-5 1,-8 2,-10l181 -652c5,-18 17,-27 35,-27l181 0c24,0 36,12 36,36l0 652zm578 -109c0,40 -14,74 -43,102 -28,29 -62,43 -102,43l-145 0c-39,0 -73,-14 -101,-42 -29,-28 -43,-62 -43,-103l0 -434c0,-40 14,-75 42,-103 28,-28 62,-42 102,-42l145 0c40,0 74,14 103,42 28,29 42,63 42,103l0 434zm-72 1l0 -435c0,-21 -7,-38 -21,-52 -13,-14 -31,-21 -52,-21l-145 0c-20,0 -37,7 -52,21 -7,7 -12,15 -15,23 -4,9 -5,19 -5,29l0 435c0,20 7,37 20,51 8,7 16,12 24,16 10,3 20,5 28,5l145 0c20,0 37,-7 52,-20 14,-14 21,-31 21,-52zm600 144l-181 0c-39,0 -73,-14 -102,-42 -28,-28 -43,-62 -43,-103l0 -434c0,-40 14,-75 43,-103 28,-28 62,-42 102,-42l181 0c10,0 19,4 26,11 7,7 10,16 10,25 0,8 -3,16 -9,24 -6,8 -15,12 -27,12l-181 0c-20,0 -38,7 -52,21 -7,7 -12,15 -16,23 -3,9 -5,19 -5,29l0 435c0,20 7,37 21,51 7,7 15,12 23,16 11,3 20,5 29,5l181 0c10,0 19,4 26,11 7,7 10,16 10,25 0,8 -3,16 -9,24 -6,8 -15,12 -27,12zm582 -145c0,40 -14,74 -42,102 -29,29 -63,43 -103,43l-144 0c-40,0 -73,-14 -102,-42 -29,-28 -43,-62 -43,-103l0 -434c0,-40 14,-75 42,-103 28,-28 63,-42 103,-42l144 0c41,0 75,14 103,42 28,29 42,63 42,103l0 434zm-72 1l0 -435c0,-21 -7,-38 -20,-52 -14,-14 -31,-21 -52,-21l-145 0c-21,0 -38,7 -52,21 -7,7 -12,15 -16,23 -3,9 -5,19 -5,29l0 435c0,20 7,37 21,51 7,7 15,12 23,16 10,3 20,5 29,5l145 0c20,0 37,-7 51,-20 14,-14 21,-31 21,-52zm640 -269c20,12 37,30 50,52 12,23 19,46 19,72l0 144c0,40 -14,74 -43,102 -28,29 -62,43 -102,43l-253 0c-24,0 -36,-12 -36,-36l0 -652c0,-24 12,-36 36,-36l217 0c40,0 74,14 102,42 29,29 43,63 43,103l0 72c0,17 -3,33 -8,48 -5,16 -14,31 -25,46zm-293 51l0 290 217 0c20,0 37,-7 52,-20 14,-14 21,-31 21,-52l0 -145c0,-21 -7,-38 -21,-52 -13,-14 -31,-21 -52,-21l-217 0zm181 -72c20,0 37,-7 52,-20 14,-14 21,-31 21,-53l0 -72c0,-21 -7,-38 -21,-52 -13,-14 -31,-21 -52,-21l-181 0 0 218 181 0zm416 253l-52 156c-3,8 -8,14 -14,19 -5,3 -11,5 -19,6 -10,0 -19,-3 -26,-10 -8,-7 -12,-15 -12,-25l3 -13 217 -651c8,-21 19,-31 35,-31 15,0 26,10 34,31l216 651 3 13c0,9 -4,18 -12,25 -8,7 -16,10 -25,10 -5,0 -11,-1 -17,-4 -6,-2 -11,-9 -17,-21l-52 -156 -262 0zm238 -74l-106 -319 -107 319 213 0zm651 -158c20,12 37,30 50,52 12,23 19,46 19,72l0 144c0,40 -14,74 -43,102 -28,29 -62,43 -102,43l-253 0c-24,0 -36,-12 -36,-36l0 -652c0,-24 12,-36 36,-36l217 0c40,0 75,14 103,42 28,29 42,63 42,103l0 72c0,17 -3,33 -8,48 -5,16 -14,31 -25,46zm-293 51l0 290 217 0c20,0 37,-7 52,-20 14,-14 21,-31 21,-52l0 -145c0,-21 -7,-38 -21,-52 -13,-14 -31,-21 -52,-21l-217 0zm181 -72c20,0 37,-7 52,-20 14,-14 21,-31 21,-53l0 -72c0,-21 -7,-38 -21,-52 -13,-14 -31,-21 -52,-21l-181 0 0 218 181 0zm650 362l181 0 0 -616c0,-9 4,-18 11,-27 7,-6 16,-9 25,-9 9,0 18,3 26,9 7,6 10,15 10,27l0 652c0,24 -12,36 -36,36l-505 0c-24,0 -36,-12 -36,-36l0 -652c0,-9 3,-18 10,-27 8,-6 16,-9 26,-9 9,0 17,3 24,9 8,6 12,15 12,27l0 616 180 0 0 -616c0,-9 4,-18 11,-27 7,-6 16,-9 25,-9 10,0 18,3 25,9 8,6 11,15 11,27l0 616zm833 36c0,11 -3,20 -10,27 -7,6 -15,9 -26,9 -10,0 -18,-3 -25,-9 -7,-6 -11,-15 -11,-27l0 -512 -294 530c-4,7 -9,13 -16,17l-7 4c-3,1 -7,2 -12,3 -7,0 -15,-3 -24,-11 -6,-7 -9,-17 -9,-31l0 -651c0,-10 4,-19 11,-27 7,-6 16,-10 25,-10 9,0 18,4 25,10 7,6 11,15 11,27l0 511 294 -529c3,-5 8,-11 15,-17 7,-5 13,-8 20,-8 8,0 15,5 22,12 7,8 11,18 11,30l0 652zm398 -392l187 -280c3,-5 7,-9 13,-13l7 -3 9 0c9,0 18,4 26,11 8,7 12,16 12,26 0,6 -2,13 -6,20l-204 305 204 305 4 11 2 10c0,9 -4,18 -11,25 -8,7 -17,11 -28,11 -11,0 -21,-5 -28,-17l-187 -279 -186 279c-3,5 -7,9 -14,13l-16 4c-8,0 -16,-4 -25,-11 -8,-7 -12,-16 -12,-26 0,-6 2,-13 6,-20l203 -305 -204 -305 -5 -11 0 -10c0,-9 4,-17 11,-25 7,-7 16,-11 27,-11 11,0 21,6 29,17l186 279z"/>
   <g>
    <path class="fil26 str2" d="M4603 16497l0 -3845 6177 0 2417 0 2148 0 0 3845 -10742 0z"/>
    <g>
     <path class="fil25 str1" d="M7696 13123l0 -108c0,-6 2,-11 6,-16 4,-4 10,-6 15,-6 6,0 11,2 15,6 5,3 7,9 7,16l0 261c0,6 -2,12 -6,16 -4,4 -9,5 -16,5 -5,0 -11,-1 -15,-5 -4,-4 -6,-9 -6,-16l0 -109 -131 0 0 109c0,6 -2,12 -6,16 -4,4 -9,5 -16,5 -5,0 -11,-1 -15,-5 -4,-4 -6,-9 -6,-16l0 -261c0,-6 2,-11 6,-16 4,-4 10,-6 15,-6 6,0 11,2 15,6 5,3 7,9 7,16l0 108 131 0zm347 79c0,26 -10,48 -28,67 -19,19 -41,28 -68,28l-26 0c-26,0 -48,-9 -67,-27 -19,-19 -28,-41 -28,-68l0 -113c0,-26 9,-48 27,-67 19,-19 42,-29 68,-29l26 0c26,0 48,9 67,28 19,18 29,41 29,68l0 113zm-43 0l0 -113c0,-15 -6,-27 -16,-37 -10,-10 -22,-16 -37,-16l-26 0c-14,0 -27,5 -37,16 -10,10 -15,22 -15,37l0 113c0,14 5,26 15,37 10,10 22,15 37,15l26 0c14,0 27,-5 37,-15 10,-10 16,-22 16,-37zm390 74l0 -261c0,-8 -2,-14 -6,-18 -4,-5 -8,-7 -14,-7 -6,0 -13,4 -20,12l-90 128 -91 -128c-6,-8 -13,-12 -20,-12 -5,0 -10,2 -14,7 -4,4 -6,10 -6,18l0 261c0,6 2,12 7,16 3,4 9,5 15,5 5,0 10,-2 15,-5 4,-4 7,-10 7,-16l0 -193 69 97c6,7 12,11 18,11 5,0 11,-4 17,-11l70 -97 0 193c0,6 2,12 6,16 4,4 9,5 15,5 5,0 10,-2 15,-5 4,-4 7,-10 7,-16zm130 -152l131 0 0 -44c0,-12 -5,-22 -13,-31 -8,-8 -18,-13 -31,-13l-44 0c-12,0 -22,4 -31,13 -4,4 -7,9 -9,14 -2,5 -3,11 -3,17l0 44zm0 43l0 44c0,12 4,22 12,31 5,3 9,7 14,9 6,2 12,3 17,3l109 0c6,0 11,2 15,7 5,4 7,9 7,15 0,5 -2,10 -6,14 -3,5 -9,7 -16,7l-108 0c-24,0 -44,-8 -62,-25 -17,-17 -25,-37 -25,-62l0 -130c0,-23 8,-44 25,-61 17,-17 37,-26 62,-26l43 0c23,0 44,9 61,25 17,17 26,38 26,62l0 65c0,15 -7,22 -22,22l-152 0zm304 87l87 0c12,0 22,-4 31,-12 8,-8 12,-19 12,-31l0 -131c0,-12 -4,-23 -12,-31 -8,-8 -18,-13 -31,-13l-87 0 0 218zm0 43l0 109c0,6 -3,11 -7,15 -4,4 -9,7 -15,7 -5,0 -10,-2 -14,-6 -5,-3 -8,-9 -8,-16l0 -391c0,-15 8,-22 22,-22l109 0c23,0 44,9 61,25 17,17 26,38 26,62l0 130c0,24 -9,45 -26,62 -17,17 -37,25 -61,25l-87 0zm738 -21c0,6 -2,12 -6,16 -4,4 -9,5 -16,5 -5,0 -10,-1 -15,-5 -4,-4 -6,-9 -6,-16l0 -196c0,-12 -4,-23 -13,-31 -8,-8 -18,-13 -31,-13l-87 0 0 240c0,6 -2,12 -6,16 -4,4 -9,5 -16,5 -5,0 -10,-1 -15,-5 -4,-4 -6,-9 -6,-16l0 -261c0,-15 7,-22 21,-22l109 0c23,0 44,9 61,25 17,17 26,37 26,62l0 196zm304 -74c0,26 -9,48 -28,67 -18,19 -41,28 -68,28l-26 0c-26,0 -48,-9 -67,-27 -19,-19 -28,-41 -28,-68l0 -113c0,-26 9,-48 28,-67 18,-19 41,-29 67,-29l26 0c26,0 48,9 67,28 19,18 29,41 29,68l0 113zm-43 0l0 -113c0,-15 -5,-27 -16,-37 -10,-10 -22,-16 -37,-16l-26 0c-14,0 -26,5 -37,16 -10,10 -15,22 -15,37l0 113c0,14 5,26 15,37 10,10 23,15 37,15l26 0c14,0 27,-5 37,-15 10,-10 16,-22 16,-37zm607 74c0,6 -2,12 -6,16 -4,4 -9,5 -15,5 -6,0 -11,-1 -16,-5 -4,-4 -6,-9 -6,-16l0 -196c0,-12 -4,-23 -12,-31 -9,-8 -19,-13 -32,-13l-87 0 0 240c0,6 -2,12 -6,16 -4,4 -9,5 -15,5 -6,0 -11,-1 -16,-5 -4,-4 -6,-9 -6,-16l0 -261c0,-15 7,-22 22,-22l108 0c23,0 44,9 61,25 17,17 26,37 26,62l0 196zm304 -74c0,26 -9,48 -28,67 -18,19 -41,28 -68,28l-26 0c-25,0 -48,-9 -67,-27 -19,-19 -28,-41 -28,-68l0 -113c0,-26 9,-48 28,-67 18,-19 41,-29 67,-29l26 0c26,0 49,9 68,28 19,18 28,41 28,68l0 113zm-43 0l0 -113c0,-15 -5,-27 -15,-37 -10,-10 -23,-16 -38,-16l-26 0c-14,0 -26,5 -37,16 -10,10 -15,22 -15,37l0 113c0,14 5,26 15,37 10,10 23,15 37,15l26 0c15,0 27,-5 37,-15 11,-10 16,-22 16,-37zm173 52l87 0c12,0 22,-4 31,-12 8,-8 13,-19 13,-31l0 -131c0,-12 -5,-23 -13,-31 -8,-8 -18,-13 -31,-13l-87 0 0 218zm0 43l0 109c0,6 -2,11 -7,15 -4,4 -9,7 -15,7 -5,0 -10,-2 -14,-6 -5,-3 -7,-9 -7,-16l0 -391c0,-15 7,-22 21,-22l109 0c24,0 44,9 61,25 17,17 26,38 26,62l0 130c0,24 -9,45 -26,62 -17,17 -37,25 -61,25l-87 0zm434 -173l0 -88 -87 0c-12,0 -23,5 -32,13 -8,9 -11,19 -11,31 0,11 3,21 11,30 8,9 18,14 32,14l87 0zm-53 43l-81 121c-1,2 -4,5 -8,7l-10 2c-4,0 -9,-2 -15,-6 -4,-4 -7,-10 -7,-16 0,-3 2,-7 4,-12l65 -97c-21,-3 -38,-13 -50,-30 -12,-17 -19,-36 -19,-56 0,-23 8,-43 22,-60 17,-18 38,-27 65,-27l109 0c14,0 22,7 22,22l0 261c0,6 -2,12 -6,16 -4,4 -10,5 -16,5 -6,0 -11,-1 -15,-5 -4,-4 -7,-9 -7,-16l0 -109 -53 0zm357 -131l-87 0c-12,0 -23,4 -31,13 -4,4 -7,9 -9,14 -2,5 -3,11 -3,17l0 131c0,12 4,22 12,31 4,3 9,7 14,9 6,2 12,3 17,3l44 0c12,0 22,-4 31,-12 8,-8 12,-19 12,-31l0 -175zm0 -43l0 -43c0,-13 -4,-23 -12,-31 -8,-9 -19,-13 -31,-13l-87 0c-7,0 -12,-2 -16,-6 -4,-4 -6,-10 -6,-15 0,-5 2,-10 5,-15 4,-5 10,-7 17,-7l87 0c24,0 44,8 61,25 17,17 26,38 26,62l0 260c0,24 -9,45 -26,62 -17,17 -37,25 -61,25l-44 0c-23,0 -43,-8 -61,-25 -17,-17 -26,-37 -26,-62l0 -130c0,-24 9,-44 26,-61 17,-17 37,-26 61,-26l87 0zm218 162l-49 51 0 70c0,6 -2,12 -6,16 -4,4 -9,5 -16,5 -5,0 -10,-1 -15,-5 -4,-4 -6,-9 -6,-16l0 -261c0,-6 2,-11 6,-16 5,-4 10,-5 15,-5 6,0 11,1 15,5 5,4 7,9 7,16l0 128 138 -144c4,-4 8,-6 14,-6 4,0 9,2 15,6 4,4 6,10 6,16 0,6 -2,12 -7,17l-87 91 90 138c3,6 4,11 4,15 0,6 -2,11 -7,16 -4,4 -9,6 -15,6 -6,0 -11,-3 -15,-8l-87 -135zm390 142l-87 0c-23,0 -44,-8 -61,-25 -17,-17 -26,-37 -26,-62l0 -195c0,-6 2,-11 6,-16 5,-4 10,-6 16,-6 5,0 10,2 15,6 4,3 6,9 6,16l0 196c0,12 4,22 13,31 4,3 9,7 14,9 6,2 12,3 17,3l87 0 0 -239c0,-6 2,-11 6,-16 5,-4 10,-6 16,-6 5,0 10,2 15,6 4,3 6,9 6,16l0 326c0,23 -8,44 -25,61 -17,17 -37,26 -62,26l-87 0c-5,0 -10,-3 -16,-7 -3,-4 -5,-9 -5,-15 0,-6 2,-11 5,-15 4,-5 9,-7 17,-7l87 0c12,0 22,-4 30,-12 9,-8 13,-19 13,-31l0 -44zm176 -22l0 6 -22 87c-3,11 -10,16 -21,16 -7,0 -12,-2 -16,-6 -5,-3 -7,-8 -7,-15l1 -6 21 -85 0 -18c0,-6 3,-11 7,-16 4,-4 9,-6 15,-6 6,0 11,2 15,5 4,4 7,9 7,17l0 21zm-5559 456l0 218c23,0 44,-8 61,-25 17,-17 26,-38 26,-62l0 -44c0,-23 -8,-43 -25,-61 -17,-17 -38,-26 -62,-26zm-43 218l0 -218c-24,0 -44,9 -61,26 -18,16 -26,37 -26,61l0 44c0,24 8,44 25,61 17,17 38,26 62,26zm43 -261c36,0 67,13 92,38 26,25 38,56 38,92l0 44c0,35 -13,65 -38,91 -25,26 -56,39 -92,39l0 109c0,6 -2,11 -7,15 -4,4 -9,6 -15,6 -5,0 -9,-1 -14,-5 -5,-4 -7,-9 -7,-16l0 -109c-36,0 -67,-12 -92,-38 -26,-25 -38,-56 -38,-92l0 -44c0,-35 12,-66 38,-91 25,-26 56,-39 92,-39l0 -65c0,-6 2,-11 6,-16 5,-4 10,-6 15,-6 6,0 11,2 15,5 5,4 7,9 7,17l0 65zm391 217l0 -174 -87 0c-12,0 -23,4 -31,13 -4,4 -7,8 -9,14 -3,5 -4,11 -4,17l0 130c0,13 5,23 13,31 4,4 9,7 14,10 6,2 12,3 17,3l44 0c12,0 22,-4 30,-12 9,-8 13,-19 13,-32zm22 59c-7,8 -17,14 -29,20 -12,5 -24,8 -36,8l-44 0c-23,0 -44,-8 -61,-25 -17,-17 -26,-37 -26,-62l0 -130c0,-24 9,-45 26,-62 17,-17 37,-25 61,-25l109 0c14,0 21,7 21,22l0 195c0,8 3,17 9,26 5,8 12,15 21,19 9,4 14,11 14,20 0,6 -2,11 -6,16 -4,4 -9,6 -16,6 -3,0 -6,-1 -9,-2 -14,-6 -25,-14 -34,-26zm368 6l0 -260c0,-8 -1,-14 -5,-19 -4,-4 -8,-6 -14,-6 -6,0 -13,4 -20,12l-91 128 -91 -128c-5,-8 -12,-12 -20,-12 -5,0 -9,2 -14,7 -3,4 -5,10 -5,18l0 260c0,7 2,13 6,17 4,3 9,5 16,5 5,0 10,-2 14,-6 5,-3 7,-9 7,-16l0 -192 70 97c5,7 11,11 17,11 6,0 12,-4 18,-11l69 -97 0 192c0,7 2,13 6,17 4,3 10,5 16,5 5,0 10,-2 14,-6 5,-3 7,-9 7,-16zm305 0c0,15 -8,22 -22,22l-109 0c-23,0 -43,-8 -61,-25 -17,-17 -26,-37 -26,-62l0 -195c0,-6 2,-11 7,-16 4,-4 9,-6 15,-6 5,0 11,2 15,5 4,4 7,9 7,17l0 195c0,13 4,23 12,32 4,3 9,6 14,9 6,2 12,3 17,3l87 0 0 -239c0,-6 2,-11 7,-16 4,-4 9,-6 15,-6 5,0 11,2 15,5 4,4 7,9 7,17l0 260zm303 0c0,7 -2,13 -6,17 -4,3 -9,5 -15,5 -6,0 -11,-2 -15,-5 -5,-4 -7,-9 -7,-17l0 -239 -50 0 -81 246c-2,5 -4,9 -8,12 -1,0 -5,1 -12,3 -6,0 -11,-2 -15,-6 -5,-4 -7,-9 -7,-15l1 -7 86 -261c3,-10 10,-15 21,-15l87 0c14,0 21,7 21,22l0 260zm304 0c0,15 -7,22 -21,22l-109 0c-23,0 -44,-8 -61,-25 -17,-17 -26,-37 -26,-62l0 -195c0,-6 2,-11 7,-16 4,-4 9,-6 15,-6 5,0 10,2 15,5 4,4 6,9 6,17l0 195c0,13 4,23 13,32 4,3 9,6 14,9 6,2 12,3 17,3l87 0 0 -239c0,-6 2,-11 6,-16 5,-4 10,-6 16,-6 5,0 10,2 15,5 4,4 6,9 6,17l0 260zm261 -151l0 -88 -87 0c-13,0 -23,5 -33,13 -7,9 -11,19 -11,31 0,11 4,21 11,30 8,9 19,14 33,14l87 0zm-54 43l-80 120c-2,3 -5,5 -9,8l-9 2c-5,0 -10,-2 -15,-6 -5,-5 -7,-10 -7,-16 0,-3 1,-7 3,-12l65 -97c-21,-3 -38,-13 -50,-30 -12,-17 -18,-36 -18,-56 0,-23 7,-43 22,-60 16,-18 38,-27 65,-27l108 0c15,0 22,7 22,22l0 260c0,7 -2,13 -6,17 -4,3 -9,5 -16,5 -5,0 -10,-2 -15,-5 -4,-4 -6,-9 -6,-17l0 -108 -54 0zm229 108l0 6 -21 87c-3,11 -10,16 -22,16 -6,0 -11,-2 -15,-6 -5,-3 -7,-8 -7,-15l1 -6 21 -85 0 -18c0,-6 2,-12 7,-17 4,-3 9,-5 15,-5 5,0 10,2 15,5 4,4 6,9 6,17l0 21zm563 0c0,15 -8,22 -22,22l-109 0c-23,0 -43,-8 -61,-25 -17,-17 -26,-37 -26,-62l0 -195c0,-6 3,-11 7,-16 4,-4 9,-6 15,-6 5,0 11,2 15,5 4,4 7,9 7,17l0 195c0,13 4,23 12,32 4,3 9,6 14,9 6,2 12,3 17,3l87 0 0 -239c0,-6 2,-11 7,-16 4,-4 9,-6 15,-6 5,0 11,2 15,5 4,4 7,9 7,17l0 260zm347 0l0 -260c0,-8 -2,-14 -6,-19 -4,-4 -8,-6 -14,-6 -6,0 -13,4 -20,12l-91 128 -90 -128c-6,-8 -13,-12 -21,-12 -4,0 -9,2 -13,7 -4,4 -6,10 -6,18l0 260c0,7 2,13 6,17 4,3 9,5 16,5 5,0 10,-2 14,-6 5,-3 7,-9 7,-16l0 -192 70 97c5,7 11,11 17,11 6,0 12,-4 18,-11l69 -97 0 192c0,7 2,13 7,17 3,3 9,5 15,5 5,0 10,-2 15,-6 4,-3 7,-9 7,-16zm260 -151l0 -88 -87 0c-12,0 -23,5 -32,13 -8,9 -11,19 -11,31 0,11 3,21 11,30 8,9 18,14 32,14l87 0zm-53 43l-81 120c-1,3 -4,5 -8,8l-10 2c-4,0 -9,-2 -15,-6 -4,-5 -7,-10 -7,-16 0,-3 2,-7 4,-12l65 -97c-21,-3 -38,-13 -50,-30 -12,-17 -19,-36 -19,-56 0,-23 8,-43 22,-60 17,-18 38,-27 65,-27l109 0c14,0 22,7 22,22l0 260c0,7 -2,13 -6,17 -4,3 -10,5 -16,5 -6,0 -11,-2 -15,-5 -4,-4 -7,-9 -7,-17l0 -108 -53 0zm229 108l0 6 -22 87c-2,11 -9,16 -21,16 -6,0 -12,-2 -16,-6 -4,-3 -6,-8 -6,-15l0 -6 22 -85 0 -18c0,-6 2,-12 6,-17 5,-3 10,-5 15,-5 6,0 11,2 15,5 5,4 7,9 7,17l0 21zm562 -73c0,25 -9,48 -28,67 -18,19 -41,28 -67,28l-26 0c-26,0 -49,-9 -68,-27 -19,-19 -28,-42 -28,-68l0 -113c0,-26 9,-48 28,-67 19,-19 41,-29 68,-29l26 0c25,0 48,9 67,28 19,18 28,41 28,68l0 113zm-43 0l0 -114c0,-14 -5,-26 -15,-36 -10,-11 -23,-16 -37,-16l-27 0c-14,0 -26,5 -36,15 -11,11 -16,23 -16,37l0 114c0,14 5,26 15,37 11,10 23,15 37,15l27 0c14,0 26,-5 36,-15 11,-10 16,-22 16,-37zm260 -166l-87 0 0 239c0,7 -2,13 -6,17 -4,3 -9,5 -16,5 -5,0 -10,-2 -15,-5 -4,-4 -6,-9 -6,-17l0 -260c0,-15 7,-22 22,-22l195 0c23,0 43,8 61,25 17,17 25,38 25,62l0 195c0,7 -2,13 -6,17 -4,3 -9,5 -15,5 -6,0 -11,-2 -15,-5 -5,-4 -7,-9 -7,-17l0 -195c0,-13 -4,-23 -12,-31 -8,-9 -19,-13 -31,-13l-44 0 0 239c0,7 -2,13 -6,17 -4,3 -9,5 -15,5 -6,0 -11,-2 -16,-5 -4,-4 -6,-9 -6,-17l0 -239zm434 87l0 -108c0,-6 3,-11 7,-16 4,-4 9,-6 15,-6 6,0 11,2 15,5 4,4 7,9 7,17l0 260c0,7 -2,13 -7,17 -3,3 -9,5 -15,5 -6,0 -11,-2 -15,-5 -4,-4 -7,-9 -7,-17l0 -109 -87 0c-23,0 -43,-8 -61,-25 -17,-16 -26,-37 -26,-61l0 -65c0,-6 3,-12 7,-16 4,-4 9,-6 15,-6 6,0 11,2 15,5 4,4 7,9 7,17l0 65c0,12 4,22 12,31 4,3 9,7 14,9 6,2 12,3 17,3l87 0zm173 1l131 0 0 -44c0,-12 -4,-23 -12,-31 -8,-9 -19,-13 -31,-13l-44 0c-12,0 -23,4 -31,13 -4,4 -7,9 -9,14 -2,5 -4,11 -4,17l0 44zm0 43l0 43c0,13 5,23 13,32 4,3 9,6 14,9 6,2 12,3 17,3l109 0c6,0 11,2 15,7 4,4 6,9 6,15 0,5 -1,9 -5,14 -4,5 -9,7 -16,7l-109 0c-23,0 -44,-8 -61,-25 -17,-17 -26,-37 -26,-62l0 -130c0,-24 9,-44 25,-61 17,-17 38,-26 62,-26l44 0c23,0 43,8 61,25 17,17 25,38 25,62l0 65c0,15 -7,22 -21,22l-153 0z"/>
     <path class="fil25 str1" d="M12101 13992l-65 0c-23,0 -44,-8 -61,-25 -17,-17 -26,-37 -26,-62l0 -130c0,-24 9,-45 26,-62 17,-17 37,-25 61,-25l65 0c6,0 11,2 16,7 4,4 6,9 6,15 0,5 -2,9 -5,14 -4,5 -9,7 -17,7l-65 0c-12,0 -23,4 -31,13 -4,4 -7,8 -10,14 -2,5 -3,11 -3,17l0 130c0,13 4,23 13,31 4,4 9,7 14,10 6,2 12,3 17,3l65 0c6,0 11,2 16,7 4,4 6,9 6,15 0,5 -2,9 -5,14 -4,5 -9,7 -17,7zm239 -261l-87 0 0 239c0,7 -2,13 -6,17 -4,3 -9,5 -16,5 -6,0 -11,-2 -15,-5 -4,-4 -6,-9 -6,-17l0 -260c0,-15 7,-22 21,-22l195 0c24,0 44,8 61,25 18,17 26,38 26,62l0 195c0,7 -2,13 -6,17 -4,3 -9,5 -15,5 -6,0 -11,-2 -16,-5 -4,-4 -6,-9 -6,-17l0 -195c0,-13 -4,-23 -12,-31 -8,-9 -19,-13 -32,-13l-43 0 0 239c0,7 -2,13 -6,17 -4,3 -9,5 -16,5 -5,0 -10,-2 -15,-5 -4,-4 -6,-9 -6,-17l0 -239zm434 174l0 -130c0,-12 -4,-22 -12,-31 -8,-8 -19,-12 -31,-12l-44 0c-12,0 -23,4 -31,12 -4,4 -7,9 -10,14 -2,6 -3,11 -3,17l0 130c0,13 5,23 13,32 4,3 9,6 14,9 6,2 12,3 17,3l44 0c12,0 22,-4 30,-12 9,-8 13,-19 13,-32zm-131 -201l18 -12 26 -18c8,-7 14,-12 18,-16 5,-7 8,-14 8,-22 0,-9 -3,-18 -10,-25 -7,-6 -16,-9 -25,-9 -9,0 -17,3 -24,9 -7,6 -11,14 -11,25l0 68zm88 -14c27,0 49,8 65,24 14,16 21,36 21,61l0 130c0,24 -8,45 -25,62 -17,17 -37,25 -61,25l-44 0c-23,0 -44,-8 -61,-25 -17,-17 -26,-37 -26,-62l0 -269c0,-24 8,-43 24,-58 15,-14 34,-20 55,-20 20,0 38,7 54,20 16,14 23,33 23,58 0,14 -2,24 -6,32 -3,7 -10,14 -19,22zm390 207c0,25 -9,48 -27,67 -19,19 -42,28 -68,28l-26 0c-26,0 -49,-9 -68,-27 -18,-19 -28,-42 -28,-68l0 -113c0,-26 9,-48 28,-67 19,-19 41,-29 68,-29l26 0c26,0 48,9 67,28 19,18 28,41 28,68l0 113zm-43 0l0 -114c0,-14 -5,-26 -15,-36 -10,-11 -22,-16 -37,-16l-26 0c-15,0 -27,5 -37,15 -11,11 -16,23 -16,37l0 114c0,14 5,26 16,37 10,10 22,15 37,15l26 0c14,0 26,-5 37,-15 10,-10 15,-22 15,-37zm176 73l0 6 -22 87c-3,11 -10,16 -21,16 -7,0 -12,-2 -16,-6 -5,-3 -7,-8 -7,-15l1 -6 21 -85 0 -18c0,-6 3,-12 7,-17 4,-3 9,-5 15,-5 6,0 11,2 15,5 4,4 7,9 7,17l0 21zm-5189 456l-88 0c-12,0 -22,4 -31,12 -4,5 -7,9 -9,15 -2,5 -3,11 -3,17l0 130c0,12 4,23 12,31 5,4 9,7 14,10 7,2 12,3 17,3l44 0c12,0 22,-4 31,-12 8,-8 13,-19 13,-32l0 -174zm0 -43l0 -44c0,-12 -4,-22 -13,-31 -8,-8 -18,-12 -31,-12l-87 0c-6,0 -12,-2 -16,-6 -4,-5 -6,-10 -6,-16 0,-5 2,-10 6,-14 3,-5 9,-7 16,-7l87 0c24,0 45,8 62,25 16,17 25,37 25,62l0 260c0,24 -9,44 -26,61 -17,17 -37,26 -61,26l-43 0c-24,0 -44,-8 -61,-25 -18,-17 -26,-37 -26,-62l0 -130c0,-24 8,-45 25,-62 17,-17 38,-25 62,-25l87 0zm304 217l0 -174 -88 0c-12,0 -22,4 -31,12 -4,5 -7,9 -9,15 -2,5 -3,11 -3,17l0 130c0,12 4,23 12,31 5,4 9,7 14,10 6,2 12,3 17,3l44 0c12,0 22,-4 31,-12 8,-8 13,-19 13,-32zm21 58c-7,8 -17,15 -29,21 -12,5 -24,8 -36,8l-44 0c-23,0 -43,-8 -61,-25 -17,-17 -25,-37 -25,-62l0 -130c0,-24 8,-45 25,-62 17,-17 37,-25 61,-25l109 0c14,0 22,7 22,21l0 196c0,8 2,17 8,26 5,8 12,15 22,19 9,4 13,10 13,20 0,6 -2,11 -6,15 -4,5 -9,7 -15,7 -3,0 -6,-1 -9,-2 -14,-6 -26,-15 -35,-27zm239 -232l-87 0 0 239c0,7 -2,13 -7,17 -3,3 -9,5 -15,5 -6,0 -11,-2 -15,-5 -5,-4 -7,-10 -7,-17l0 -261c0,-14 8,-21 22,-21l195 0c24,0 44,8 61,25 17,17 26,37 26,62l0 195c0,7 -2,13 -6,17 -4,3 -9,5 -16,5 -5,0 -10,-2 -15,-5 -4,-4 -6,-10 -6,-17l0 -196c0,-12 -4,-22 -13,-30 -8,-9 -18,-13 -31,-13l-43 0 0 239c0,7 -2,13 -6,17 -4,3 -10,5 -16,5 -6,0 -11,-2 -15,-5 -4,-4 -6,-10 -6,-17l0 -239zm434 174l0 -174 -87 0c-12,0 -23,4 -31,12 -4,5 -8,9 -10,15 -2,5 -3,11 -3,17l0 130c0,12 4,23 13,31 4,4 9,7 14,10 6,2 12,3 17,3l43 0c12,0 23,-4 31,-12 9,-8 13,-19 13,-32zm21 58c-7,8 -16,15 -28,21 -13,5 -25,8 -37,8l-43 0c-23,0 -44,-8 -61,-25 -17,-17 -26,-37 -26,-62l0 -130c0,-24 8,-45 25,-62 17,-17 38,-25 62,-25l108 0c15,0 22,7 22,21l0 196c0,8 3,17 9,26 5,8 12,15 21,19 9,4 14,10 14,20 0,6 -2,11 -6,15 -4,5 -9,7 -16,7 -3,0 -6,-1 -9,-2 -14,-6 -26,-15 -35,-27zm412 -14l88 0c12,0 22,-4 30,-12 9,-8 13,-19 13,-32l0 -130c0,-13 -4,-23 -12,-31 -8,-9 -19,-13 -31,-13l-88 0 0 218zm0 43l0 108c0,6 -2,12 -6,16 -5,4 -10,6 -15,6 -5,0 -10,-2 -15,-5 -4,-4 -7,-9 -7,-17l0 -391c0,-14 8,-21 22,-21l109 0c23,0 44,8 61,25 17,17 25,37 25,62l0 130c0,24 -8,44 -25,61 -17,17 -37,26 -62,26l-87 0zm478 -96c0,26 -9,49 -27,68 -19,19 -42,28 -68,28l-26 0c-26,0 -49,-9 -67,-28 -19,-18 -29,-41 -29,-68l0 -113c0,-25 9,-47 28,-67 19,-19 41,-28 68,-28l26 0c26,0 48,9 67,28 19,18 28,41 28,67l0 113zm-43 0l0 -113c0,-14 -5,-26 -15,-37 -10,-10 -22,-15 -37,-15l-26 0c-15,0 -27,5 -37,15 -10,10 -16,23 -16,37l0 113c0,15 5,27 16,37 10,11 22,16 37,16l26 0c14,0 26,-5 37,-15 10,-10 15,-23 15,-38zm310 -78l80 -121c2,-3 4,-5 8,-7l4 -2 6 0c5,0 11,2 15,6 5,5 7,10 7,16 0,3 -1,7 -3,12l-79 118 79 118 2 6 1 6c0,6 -2,11 -6,15 -5,5 -10,7 -17,7 -6,0 -12,-3 -17,-10l-80 -121 -10 0 0 109c0,7 -2,13 -7,17 -3,3 -9,5 -15,5 -6,0 -11,-2 -15,-6 -5,-3 -7,-9 -7,-16l0 -109 -10 0 -80 121c-2,3 -4,5 -8,8l-10 2c-5,0 -10,-2 -15,-7 -5,-4 -7,-9 -7,-15 0,-4 1,-8 3,-12l79 -118 -79 -118 -3 -7 0 -6c0,-5 2,-10 6,-15 5,-4 10,-6 17,-6 6,0 12,3 17,10l80 120 10 0 0 -109c0,-5 2,-11 7,-16 4,-3 9,-5 15,-5 5,0 11,2 15,5 4,4 7,9 7,16l0 109 10 0zm385 -87l-88 0c-12,0 -22,4 -31,12 -4,5 -7,9 -9,15 -2,5 -3,11 -3,17l0 130c0,12 4,23 12,31 5,4 9,7 14,10 7,2 12,3 17,3l44 0c12,0 22,-4 31,-12 8,-8 13,-19 13,-32l0 -174zm0 -43l0 -44c0,-12 -4,-22 -13,-31 -8,-8 -18,-12 -31,-12l-87 0c-7,0 -12,-2 -16,-6 -4,-5 -6,-10 -6,-16 0,-5 2,-10 6,-14 3,-5 9,-7 16,-7l87 0c24,0 45,8 62,25 16,17 25,37 25,62l0 260c0,24 -9,44 -26,61 -17,17 -37,26 -61,26l-43 0c-24,0 -44,-8 -61,-25 -18,-17 -26,-37 -26,-62l0 -130c0,-24 8,-45 25,-62 17,-17 38,-25 62,-25l87 0zm173 131l130 0 0 -44c0,-12 -4,-23 -12,-31 -8,-9 -18,-13 -31,-13l-44 0c-12,0 -22,4 -31,12 -4,5 -7,9 -9,15 -2,5 -3,11 -3,17l0 44zm0 43l0 43c0,12 4,23 12,31 5,4 9,7 14,10 6,2 12,3 17,3l109 0c6,0 11,2 15,6 5,5 7,10 7,15 0,5 -2,10 -6,15 -3,5 -9,7 -16,7l-109 0c-23,0 -44,-9 -61,-25 -17,-17 -26,-38 -26,-62l0 -130c0,-24 9,-44 26,-61 16,-18 37,-26 61,-26l44 0c23,0 44,8 61,25 17,17 26,38 26,62l0 65c0,14 -8,22 -22,22l-152 0zm434 -44l0 -109c0,-5 2,-11 7,-16 4,-3 9,-5 15,-5 5,0 11,2 15,5 4,4 7,9 7,16l0 261c0,7 -2,13 -7,17 -4,3 -9,5 -15,5 -6,0 -11,-2 -15,-6 -5,-3 -7,-9 -7,-16l0 -109 -130 0 0 109c0,7 -2,13 -7,17 -4,3 -9,5 -15,5 -6,0 -11,-2 -15,-5 -5,-4 -7,-10 -7,-17l0 -261c0,-5 2,-11 7,-16 4,-3 9,-5 15,-5 5,0 11,2 15,5 4,4 7,9 7,16l0 109 130 0zm347 152c0,15 -7,22 -21,22l-109 0c-23,0 -44,-8 -61,-25 -17,-17 -26,-37 -26,-62l0 -196c0,-5 2,-11 7,-16 4,-3 9,-5 15,-5 5,0 10,2 15,5 4,4 6,9 6,16l0 196c0,12 5,23 13,31 4,4 9,7 14,10 6,2 12,3 17,3l87 0 0 -240c0,-5 2,-11 7,-16 4,-3 9,-5 15,-5 5,0 10,2 15,5 4,4 6,9 6,16l0 261zm261 -151l0 -88 -87 0c-12,0 -23,4 -33,13 -7,9 -11,19 -11,31 0,11 4,21 12,30 7,9 18,14 32,14l87 0zm-53 43l-81 120c-2,3 -5,5 -8,8l-10 2c-4,0 -9,-2 -15,-7 -5,-4 -7,-9 -7,-15 0,-4 1,-8 3,-12l66 -97c-22,-4 -38,-14 -51,-31 -12,-17 -18,-35 -18,-55 0,-24 7,-44 22,-60 16,-18 38,-27 65,-27l109 0c14,0 21,7 21,21l0 261c0,7 -2,13 -6,17 -4,3 -9,5 -15,5 -6,0 -11,-2 -16,-5 -4,-4 -6,-10 -6,-17l0 -108 -53 0zm229 108l0 5 -22 87c-3,11 -10,17 -21,17 -7,0 -12,-2 -16,-6 -5,-3 -7,-8 -7,-16l1 -5 21 -85 0 -19c0,-5 3,-11 7,-16 4,-4 9,-5 15,-5 6,0 11,1 15,5 4,4 7,9 7,16l0 22zm-5276 630l0 -174 -87 0c-13,0 -23,4 -32,12 -4,4 -7,9 -9,14 -2,6 -3,11 -3,17l0 131c0,12 4,23 12,31 5,4 9,7 14,10 7,2 12,3 18,3l43 0c12,0 22,-4 31,-13 9,-8 13,-18 13,-31zm21 58c-7,8 -17,15 -29,20 -12,6 -24,9 -36,9l-43 0c-24,0 -44,-9 -61,-25 -18,-17 -26,-38 -26,-62l0 -131c0,-24 8,-44 25,-61 17,-17 38,-25 62,-25l108 0c15,0 22,7 22,21l0 195c0,9 3,18 8,27 5,8 12,14 22,19 9,4 14,10 14,19 0,7 -3,12 -7,16 -3,5 -9,7 -15,7 -3,0 -6,-1 -9,-2 -14,-6 -26,-15 -35,-27zm283 -232l-88 0c-12,0 -22,4 -31,12 -4,4 -7,9 -9,14 -2,6 -3,11 -3,17l0 131c0,12 4,23 12,31 5,4 9,7 14,10 6,2 12,3 17,3l44 0c12,0 22,-4 31,-13 8,-8 13,-18 13,-31l0 -174zm0 -43l0 -44c0,-12 -5,-22 -13,-31 -8,-8 -18,-12 -31,-12l-87 0c-7,0 -12,-2 -16,-6 -4,-5 -6,-10 -6,-16 0,-5 2,-10 6,-14 3,-5 9,-8 16,-8l87 0c24,0 45,9 61,26 17,17 26,37 26,61l0 261c0,24 -9,44 -26,61 -17,17 -37,26 -61,26l-44 0c-23,0 -43,-9 -60,-25 -18,-17 -26,-38 -26,-62l0 -131c0,-24 8,-44 25,-61 17,-17 38,-25 62,-25l87 0zm173 261l87 0c12,0 22,-4 31,-13 8,-8 12,-18 12,-31l0 -131c0,-12 -4,-22 -12,-31 -8,-8 -18,-12 -31,-12l-87 0 0 218zm0 43l0 108c0,6 -3,11 -7,16 -4,4 -9,6 -15,6 -5,0 -10,-2 -14,-5 -5,-4 -8,-10 -8,-17l0 -391c0,-14 8,-21 22,-21l109 0c23,0 44,8 61,25 17,17 26,37 26,61l0 131c0,24 -9,44 -26,61 -17,17 -37,26 -61,26l-87 0zm303 -174l131 0 0 -43c0,-13 -4,-23 -12,-32 -8,-8 -19,-12 -31,-12l-44 0c-12,0 -23,4 -31,12 -4,4 -7,9 -9,15 -2,5 -4,11 -4,17l0 43zm0 44l0 43c0,12 5,23 13,31 4,4 9,7 14,10 6,2 12,3 17,3l109 0c6,0 11,2 15,6 4,5 6,10 6,15 0,5 -1,10 -5,15 -4,4 -9,7 -16,7l-109 0c-23,0 -44,-9 -61,-26 -17,-16 -26,-37 -26,-61l0 -131c0,-23 9,-43 25,-60 17,-18 38,-26 62,-26l44 0c23,0 43,8 61,25 17,17 25,37 25,62l0 65c0,14 -7,22 -21,22l-153 0zm413 130l-65 0c-23,0 -44,-9 -61,-25 -17,-17 -26,-38 -26,-62l0 -131c0,-24 9,-44 26,-61 17,-17 37,-25 61,-25l65 0c6,0 11,2 16,6 4,5 6,10 6,15 0,5 -2,10 -5,15 -4,4 -9,7 -17,7l-65 0c-12,0 -23,4 -31,12 -4,4 -7,9 -10,14 -2,6 -3,11 -3,17l0 131c0,12 4,23 13,31 4,4 9,7 14,10 6,2 12,3 17,3l65 0c6,0 11,2 16,6 4,5 6,10 6,15 0,5 -2,10 -5,15 -4,4 -9,7 -17,7zm629 -22l0 -261c0,-8 -1,-14 -5,-18 -4,-4 -8,-7 -14,-7 -6,0 -13,5 -20,13l-91 127 -91 -127c-5,-8 -12,-13 -20,-13 -5,0 -9,3 -14,7 -3,5 -5,11 -5,18l0 261c0,7 2,12 6,16 4,4 9,6 16,6 5,0 10,-2 14,-6 5,-4 7,-9 7,-16l0 -193 70 97c5,8 11,12 17,12 6,0 12,-4 18,-12l69 -97 0 193c0,7 2,12 6,16 4,4 9,6 16,6 5,0 10,-2 14,-6 5,-4 7,-9 7,-16zm130 -152l131 0 0 -43c0,-13 -4,-23 -12,-32 -8,-8 -19,-12 -31,-12l-44 0c-12,0 -23,4 -31,12 -4,4 -7,9 -9,15 -2,5 -4,11 -4,17l0 43zm0 44l0 43c0,12 5,23 13,31 4,4 9,7 14,10 6,2 12,3 17,3l109 0c6,0 11,2 15,6 4,5 6,10 6,15 0,5 -1,10 -5,15 -4,4 -9,7 -16,7l-109 0c-23,0 -44,-9 -61,-26 -17,-16 -26,-37 -26,-61l0 -131c0,-23 9,-43 25,-60 17,-18 38,-26 62,-26l44 0c23,0 44,8 61,25 17,17 25,37 25,62l0 65c0,14 -7,22 -21,22l-153 0zm413 130l-65 0c-23,0 -44,-9 -61,-25 -17,-17 -26,-38 -26,-62l0 -131c0,-24 9,-44 26,-61 17,-17 37,-25 61,-25l65 0c6,0 11,2 16,6 4,5 6,10 6,15 0,5 -2,10 -5,15 -4,4 -9,7 -17,7l-65 0c-12,0 -23,4 -31,12 -4,4 -7,9 -10,14 -2,6 -3,11 -3,17l0 131c0,12 4,23 13,31 4,4 9,7 14,10 6,2 12,3 17,3l65 0c6,0 11,2 16,6 4,5 6,10 6,15 0,5 -2,10 -5,15 -4,4 -9,7 -17,7zm239 -261l-87 0 0 239c0,7 -2,12 -6,16 -4,4 -9,6 -16,6 -6,0 -11,-2 -15,-6 -4,-3 -6,-9 -6,-16l0 -261c0,-14 7,-21 21,-21l195 0c24,0 44,8 61,25 18,17 26,37 26,61l0 196c0,7 -2,12 -6,16 -4,4 -9,6 -15,6 -6,0 -11,-2 -16,-6 -4,-3 -6,-9 -6,-16l0 -196c0,-12 -4,-22 -12,-31 -8,-8 -19,-12 -32,-12l-43 0 0 239c0,7 -2,12 -6,16 -4,4 -9,6 -16,6 -5,0 -10,-2 -15,-6 -4,-3 -6,-9 -6,-16l0 -239z"/>
     <path class="fil25 str1" d="M9779 15295l0 -174 -87 0c-12,0 -23,4 -31,12 -4,4 -7,9 -10,14 -2,6 -3,11 -3,17l0 131c0,12 5,23 13,31 4,4 9,7 14,10 6,2 12,3 17,3l44 0c12,0 22,-4 30,-13 9,-8 13,-18 13,-31zm22 58c-7,8 -17,15 -29,20 -12,6 -24,9 -36,9l-44 0c-23,0 -44,-9 -61,-25 -17,-17 -26,-38 -26,-62l0 -131c0,-24 9,-44 26,-61 17,-17 37,-25 61,-25l109 0c14,0 21,7 21,21l0 195c0,9 3,18 9,27 5,8 12,14 21,19 9,4 14,10 14,19 0,7 -2,12 -6,16 -4,5 -9,7 -16,7 -3,0 -6,-1 -9,-2 -14,-6 -25,-15 -34,-27zm548 -145l80 -121c2,-3 5,-5 8,-8l5 -1 5 0c6,0 11,2 16,6 5,5 7,10 7,15 0,4 -1,8 -4,13l-79 117 79 119 3 6 1 6c0,6 -2,11 -7,15 -4,5 -10,7 -16,7 -7,0 -13,-4 -18,-10l-80 -121 -10 0 0 109c0,7 -2,12 -6,16 -4,4 -9,6 -15,6 -6,0 -11,-2 -16,-6 -4,-3 -6,-9 -6,-16l0 -109 -10 0 -80 121c-2,2 -5,5 -9,8l-10 2c-4,0 -9,-2 -15,-7 -4,-4 -7,-9 -7,-15 0,-4 1,-8 4,-12l79 -118 -80 -118 -3 -7 0 -6c0,-5 2,-10 7,-15 4,-4 10,-6 16,-6 7,0 13,3 18,9l80 121 10 0 0 -109c0,-6 2,-11 6,-16 5,-4 10,-5 16,-5 5,0 10,1 14,5 5,4 7,9 7,16l0 109 10 0zm428 152c0,15 -7,22 -21,22l-109 0c-23,0 -44,-9 -61,-25 -17,-17 -26,-38 -26,-62l0 -196c0,-5 2,-11 7,-16 4,-4 9,-5 15,-5 5,0 10,1 15,5 4,4 6,9 6,16l0 196c0,12 4,23 13,31 4,4 9,7 14,10 6,2 12,3 17,3l87 0 0 -240c0,-5 2,-11 7,-16 4,-4 9,-5 15,-5 5,0 10,1 15,5 4,4 6,9 6,16l0 261zm217 -239l-87 0 0 239c0,7 -2,12 -6,16 -4,4 -9,6 -15,6 -6,0 -11,-2 -16,-6 -4,-3 -6,-9 -6,-16l0 -261c0,-14 7,-21 22,-21l195 0c23,0 44,8 61,25 17,17 26,37 26,61l0 196c0,7 -2,12 -7,16 -3,4 -9,6 -15,6 -6,0 -11,-2 -15,-6 -4,-3 -7,-9 -7,-16l0 -196c0,-12 -4,-22 -12,-31 -8,-8 -19,-12 -31,-12l-44 0 0 239c0,7 -2,12 -6,16 -4,4 -9,6 -15,6 -6,0 -11,-2 -15,-6 -5,-3 -7,-9 -7,-16l0 -239zm304 87l131 0 0 -43c0,-13 -4,-23 -13,-32 -8,-8 -18,-12 -31,-12l-44 0c-12,0 -22,4 -31,12 -4,4 -7,9 -9,15 -2,5 -3,11 -3,17l0 43zm0 44l0 43c0,12 4,23 12,31 5,4 9,7 14,10 6,2 12,3 17,3l109 0c6,0 11,2 15,6 5,5 7,10 7,15 0,5 -2,10 -6,15 -3,4 -9,7 -16,7l-108 0c-24,0 -44,-9 -62,-26 -17,-16 -25,-37 -25,-61l0 -131c0,-23 8,-43 25,-60 17,-18 37,-26 62,-26l43 0c24,0 44,8 61,25 17,17 26,37 26,62l0 65c0,14 -7,22 -22,22l-152 0zm478 108c0,7 -2,12 -6,16 -4,4 -10,6 -16,6 -6,0 -11,-2 -15,-6 -4,-3 -6,-9 -6,-16l0 -239 -50 0 -82 246c-1,5 -4,8 -8,11 -1,1 -5,2 -12,4 -5,0 -10,-2 -15,-6 -5,-4 -7,-9 -7,-15l2 -8 85 -260c4,-10 10,-15 21,-15l87 0c14,0 22,7 22,21l0 261zm130 -109l0 88 87 0c13,0 24,-5 32,-14 7,-9 11,-19 11,-30 0,-13 -3,-23 -10,-31 -4,-4 -8,-7 -14,-9 -6,-3 -12,-4 -19,-4l-87 0zm0 -43l87 0c27,0 49,9 65,27 14,16 22,36 22,60 0,23 -8,43 -22,59 -16,19 -38,28 -65,28l-109 0c-14,0 -22,-7 -22,-22l0 -261c0,-5 2,-11 7,-16 4,-4 9,-5 15,-5 5,0 11,1 15,5 4,4 7,9 7,16l0 109zm412 174l-65 0c-23,0 -44,-9 -61,-25 -17,-17 -26,-38 -26,-62l0 -131c0,-24 9,-44 26,-61 17,-17 37,-25 61,-25l65 0c6,0 12,2 16,6 4,5 6,10 6,15 0,5 -2,10 -5,15 -4,4 -9,7 -17,7l-65 0c-12,0 -23,4 -31,12 -4,4 -7,9 -10,14 -2,6 -3,11 -3,17l0 131c0,12 5,23 13,31 4,4 9,7 14,10 6,2 12,3 17,3l65 0c6,0 11,2 16,6 4,5 6,10 6,15 0,5 -2,10 -5,15 -4,4 -9,7 -17,7zm239 -261l-87 0 0 239c0,7 -2,12 -6,16 -4,4 -9,6 -16,6 -5,0 -11,-2 -15,-6 -4,-3 -6,-9 -6,-16l0 -261c0,-14 7,-21 21,-21l196 0c23,0 43,8 60,25 18,17 26,37 26,61l0 196c0,7 -2,12 -6,16 -4,4 -9,6 -15,6 -6,0 -11,-2 -16,-6 -4,-3 -6,-9 -6,-16l0 -196c0,-12 -4,-22 -12,-31 -8,-8 -19,-12 -31,-12l-44 0 0 239c0,7 -2,12 -6,16 -4,4 -9,6 -16,6 -5,0 -10,-2 -15,-6 -4,-3 -6,-9 -6,-16l0 -239zm434 174l0 -130c0,-12 -4,-23 -12,-31 -8,-8 -19,-13 -31,-13l-44 0c-12,0 -23,4 -31,13 -4,4 -7,9 -9,14 -2,5 -4,11 -4,17l0 130c0,12 5,23 13,31 4,4 9,7 14,10 6,2 12,3 17,3l44 0c12,0 22,-4 30,-12 9,-9 13,-19 13,-32zm-131 -202l18 -11 26 -18c8,-7 14,-12 18,-17 5,-6 8,-14 8,-21 0,-10 -3,-18 -10,-25 -7,-6 -15,-9 -25,-9 -9,0 -17,3 -24,9 -7,5 -11,14 -11,25l0 67zm88 -14c27,0 49,8 65,25 14,16 21,36 21,61l0 130c0,24 -8,44 -25,61 -17,17 -37,26 -61,26l-44 0c-23,0 -44,-9 -61,-25 -17,-17 -26,-38 -26,-62l0 -269c0,-24 8,-44 24,-59 16,-13 34,-20 55,-20 20,0 38,7 54,21 16,13 24,33 24,58 0,14 -2,24 -7,31 -3,7 -10,15 -19,22zm347 216l0 -174 -87 0c-12,0 -23,4 -31,12 -4,4 -7,9 -10,14 -2,6 -3,11 -3,17l0 131c0,12 4,23 13,31 4,4 9,7 14,10 6,2 12,3 17,3l44 0c12,0 22,-4 30,-13 9,-8 13,-18 13,-31zm21 58c-7,8 -16,15 -28,20 -12,6 -24,9 -36,9l-44 0c-23,0 -44,-9 -61,-25 -17,-17 -26,-38 -26,-62l0 -131c0,-24 9,-44 26,-61 17,-17 37,-25 61,-25l109 0c14,0 21,7 21,21l0 195c0,9 3,18 9,27 5,8 12,14 21,19 9,4 14,10 14,19 0,7 -2,12 -6,16 -4,5 -9,7 -16,7 -3,0 -6,-1 -9,-2 -14,-6 -25,-15 -35,-27zm-6467 724l-65 0c-24,0 -44,-9 -61,-26 -17,-16 -26,-37 -26,-61l0 -131c0,-24 8,-44 25,-61 17,-17 38,-26 62,-26l65 0c6,0 11,3 15,7 5,4 7,9 7,15 0,5 -2,10 -6,14 -3,5 -9,8 -16,8l-65 0c-13,0 -23,4 -31,12 -5,4 -8,9 -10,14 -2,5 -3,11 -3,17l0 131c0,12 4,22 13,31 4,4 9,7 14,9 6,2 12,3 17,3l65 0c6,0 11,3 15,7 5,4 7,9 7,15 0,5 -2,10 -6,14 -3,5 -9,8 -16,8zm152 -174l130 0 0 -44c0,-12 -4,-22 -12,-31 -8,-8 -19,-12 -31,-12l-44 0c-12,0 -22,4 -31,12 -4,4 -7,9 -9,14 -2,6 -3,11 -3,17l0 44zm0 43l0 44c0,12 4,22 12,31 4,4 9,7 14,9 6,2 12,3 17,3l109 0c6,0 11,3 15,7 4,4 7,9 7,15 0,5 -2,10 -6,14 -3,5 -9,8 -16,8l-109 0c-23,0 -44,-9 -61,-26 -17,-17 -26,-37 -26,-61l0 -131c0,-23 9,-43 25,-61 17,-17 38,-26 62,-26l44 0c23,0 44,9 61,26 17,17 26,37 26,61l0 66c0,14 -8,21 -22,21l-152 0zm303 87l88 0c12,0 22,-4 30,-12 9,-8 13,-18 13,-31l0 -131c0,-12 -4,-22 -12,-31 -8,-8 -19,-12 -31,-12l-88 0 0 217zm0 44l0 108c0,6 -2,11 -6,15 -5,5 -10,7 -15,7 -5,0 -10,-2 -15,-6 -4,-3 -7,-9 -7,-16l0 -391c0,-14 7,-22 22,-22l109 0c23,0 43,9 61,26 17,17 25,37 25,61l0 131c0,23 -8,44 -25,61 -17,17 -38,26 -62,26l-87 0zm478 -22c0,14 -7,22 -21,22l-109 0c-23,0 -44,-9 -61,-26 -17,-16 -26,-37 -26,-61l0 -196c0,-6 2,-11 7,-16 4,-4 9,-6 15,-6 5,0 10,2 15,6 4,3 6,9 6,16l0 196c0,12 4,22 13,31 4,4 9,7 14,9 6,2 12,3 17,3l87 0 0 -239c0,-6 2,-11 7,-16 4,-4 9,-6 15,-6 5,0 10,2 15,6 4,3 6,9 6,16l0 261zm261 -152l0 -87 -87 0c-13,0 -23,4 -33,13 -7,8 -11,19 -11,30 0,11 4,22 11,31 8,9 19,13 33,13l87 0zm-54 43l-80 121c-2,2 -5,5 -9,7l-9 3c-5,0 -10,-3 -15,-7 -5,-4 -7,-9 -7,-15 0,-4 1,-8 3,-12l65 -98c-21,-3 -38,-13 -50,-30 -12,-17 -18,-36 -18,-56 0,-23 7,-43 22,-59 16,-19 38,-28 65,-28l108 0c15,0 22,8 22,22l0 261c0,7 -2,12 -6,16 -4,4 -9,6 -15,6 -6,0 -11,-2 -16,-6 -4,-3 -6,-9 -6,-16l0 -109 -54 0zm661 109c0,14 -7,22 -21,22l-109 0c-23,0 -44,-9 -61,-26 -17,-16 -26,-37 -26,-61l0 -196c0,-6 2,-11 7,-16 4,-4 9,-6 15,-6 5,0 10,2 15,6 4,3 6,9 6,16l0 196c0,12 5,22 13,31 4,4 9,7 14,9 6,2 12,3 17,3l87 0 0 -239c0,-6 2,-11 7,-16 4,-4 9,-6 15,-6 5,0 10,2 15,6 4,3 6,9 6,16l0 261zm522 -152l0 -109c0,-6 2,-11 6,-16 4,-4 9,-6 15,-6 6,0 11,2 15,6 4,3 7,9 7,16l0 261c0,7 -2,12 -6,16 -4,4 -10,6 -16,6 -6,0 -11,-2 -15,-6 -4,-4 -6,-9 -6,-16l0 -109 -131 0 0 109c0,7 -2,12 -6,16 -4,4 -10,6 -16,6 -6,0 -11,-2 -15,-6 -4,-4 -6,-9 -6,-16l0 -261c0,-6 2,-11 6,-16 4,-4 9,-6 15,-6 6,0 11,2 15,6 5,3 7,9 7,16l0 109 131 0zm347 78c0,26 -10,48 -28,67 -19,19 -41,29 -68,29l-26 0c-26,0 -48,-10 -67,-28 -19,-18 -29,-41 -29,-68l0 -113c0,-25 10,-48 28,-67 19,-19 42,-29 68,-29l26 0c26,0 48,10 67,28 19,19 29,41 29,68l0 113zm-44 0l0 -113c0,-14 -5,-27 -15,-37 -10,-10 -22,-15 -37,-15l-26 0c-14,0 -27,5 -37,15 -10,10 -15,22 -15,37l0 113c0,14 5,27 15,37 10,10 22,15 37,15l26 0c14,0 26,-5 37,-15 10,-9 15,-22 15,-37zm391 74l0 -261c0,-8 -2,-14 -6,-18 -4,-5 -8,-7 -14,-7 -6,0 -13,4 -20,13l-91 127 -90 -127c-6,-9 -13,-13 -20,-13 -5,0 -10,2 -14,7 -4,5 -6,11 -6,18l0 261c0,7 2,12 6,16 4,4 9,6 16,6 5,0 10,-2 14,-6 5,-4 7,-9 7,-16l0 -193 70 97c5,8 11,12 17,12 6,0 12,-4 18,-12l69 -97 0 193c0,7 2,12 7,16 3,4 9,6 15,6 5,0 10,-2 15,-6 4,-4 7,-9 7,-16zm130 -152l130 0 0 -44c0,-12 -4,-22 -12,-31 -8,-8 -18,-12 -31,-12l-44 0c-12,0 -22,4 -31,12 -4,4 -7,9 -9,14 -2,6 -3,11 -3,17l0 44zm0 43l0 44c0,12 4,22 12,31 4,4 9,7 14,9 6,2 12,3 17,3l109 0c6,0 11,3 15,7 5,4 7,9 7,15 0,5 -2,10 -6,14 -3,5 -9,8 -16,8l-109 0c-23,0 -44,-9 -61,-26 -17,-17 -26,-37 -26,-61l0 -131c0,-23 9,-43 26,-61 16,-17 37,-26 61,-26l44 0c23,0 44,9 61,26 17,17 26,37 26,61l0 66c0,14 -8,21 -22,21l-152 0zm304 87l87 0c12,0 22,-4 31,-12 8,-8 12,-18 12,-31l0 -131c0,-12 -4,-22 -12,-31 -8,-8 -19,-12 -31,-12l-87 0 0 217zm0 44l0 108c0,6 -3,11 -7,15 -4,5 -10,7 -15,7 -5,0 -10,-2 -15,-6 -4,-3 -7,-9 -7,-16l0 -391c0,-14 8,-22 22,-22l109 0c23,0 44,9 61,26 17,17 26,37 26,61l0 131c0,23 -9,44 -26,61 -17,17 -37,26 -61,26l-87 0zm738 -22c0,7 -2,12 -6,16 -4,4 -9,6 -16,6 -5,0 -11,-2 -15,-6 -4,-4 -6,-9 -6,-16l0 -196c0,-12 -4,-22 -13,-31 -8,-8 -18,-12 -31,-12l-87 0 0 239c0,7 -2,12 -6,16 -4,4 -9,6 -16,6 -5,0 -11,-2 -15,-6 -4,-4 -6,-9 -6,-16l0 -261c0,-14 7,-22 21,-22l109 0c23,0 43,9 61,25 17,17 26,38 26,62l0 196zm260 -65l0 -174 -87 0c-12,0 -22,4 -31,12 -4,4 -7,9 -9,14 -2,5 -3,11 -3,17l0 131c0,12 4,22 12,31 5,4 9,7 14,9 6,2 12,3 17,3l44 0c12,0 22,-4 31,-12 8,-8 12,-18 12,-31zm22 58c-7,8 -17,15 -29,20 -12,6 -24,9 -36,9l-44 0c-23,0 -43,-9 -61,-26 -17,-16 -26,-37 -26,-61l0 -131c0,-24 9,-44 26,-61 17,-17 37,-26 61,-26l109 0c14,0 22,8 22,22l0 195c0,9 2,18 8,27 5,8 12,14 22,19 9,3 13,10 13,19 0,7 -2,12 -6,16 -4,4 -9,7 -15,7 -3,0 -6,-1 -9,-3 -14,-5 -26,-14 -35,-26zm260 29l-65 0c-23,0 -43,-9 -61,-26 -17,-16 -26,-37 -26,-61l0 -131c0,-24 9,-44 26,-61 17,-17 37,-26 61,-26l65 0c6,0 12,3 16,7 4,4 6,9 6,15 0,5 -2,10 -5,14 -4,5 -9,8 -17,8l-65 0c-12,0 -23,4 -31,12 -4,4 -7,9 -9,14 -2,5 -3,11 -3,17l0 131c0,12 4,22 12,31 4,4 9,7 14,9 6,2 12,3 17,3l65 0c6,0 12,3 16,7 4,4 6,9 6,15 0,5 -2,10 -5,14 -4,5 -9,8 -17,8zm326 -22c0,7 -2,12 -6,16 -4,4 -9,6 -16,6 -5,0 -10,-2 -15,-6 -4,-4 -6,-9 -6,-16l0 -196c0,-12 -4,-22 -12,-31 -9,-8 -19,-12 -32,-12l-87 0 0 239c0,7 -2,12 -6,16 -4,4 -9,6 -16,6 -5,0 -10,-2 -15,-6 -4,-4 -6,-9 -6,-16l0 -261c0,-14 7,-22 22,-22l108 0c23,0 44,9 61,25 17,17 26,38 26,62l0 196zm304 -74c0,26 -9,48 -28,67 -18,19 -41,29 -68,29l-26 0c-26,0 -48,-10 -67,-28 -19,-18 -28,-41 -28,-68l0 -113c0,-25 9,-48 28,-67 18,-19 41,-29 67,-29l26 0c26,0 49,10 67,28 19,19 29,41 29,68l0 113zm-43 0l0 -113c0,-14 -5,-27 -15,-37 -11,-10 -23,-15 -38,-15l-26 0c-14,0 -26,5 -37,15 -10,10 -15,22 -15,37l0 113c0,14 5,27 15,37 10,10 23,15 37,15l26 0c14,0 27,-5 37,-15 10,-9 16,-22 16,-37zm173 52l87 0c12,0 22,-4 31,-12 8,-8 12,-18 12,-31l0 -131c0,-12 -4,-22 -12,-31 -8,-8 -18,-12 -31,-12l-87 0 0 217zm0 44l0 108c0,6 -3,11 -7,15 -4,5 -9,7 -15,7 -5,0 -10,-2 -14,-6 -5,-3 -7,-9 -7,-16l0 -391c0,-14 7,-22 21,-22l109 0c23,0 44,9 61,26 17,17 26,37 26,61l0 131c0,23 -9,44 -26,61 -17,17 -37,26 -61,26l-87 0zm391 -261l-87 0 0 239c0,7 -2,12 -7,16 -4,4 -9,6 -15,6 -6,0 -11,-2 -15,-6 -5,-4 -7,-9 -7,-16l0 -261c0,-14 8,-22 22,-22l195 0c24,0 44,9 61,26 17,17 26,37 26,61l0 196c0,7 -2,12 -6,16 -4,4 -9,6 -16,6 -5,0 -10,-2 -15,-6 -4,-4 -6,-9 -6,-16l0 -196c0,-12 -4,-22 -13,-31 -8,-8 -18,-12 -31,-12l-43 0 0 239c0,7 -2,12 -6,16 -4,4 -10,6 -16,6 -6,0 -11,-2 -15,-6 -4,-4 -6,-9 -6,-16l0 -239z"/>
     <path class="fil25 str1" d="M13165 15990l0 -174 -87 0c-13,0 -23,4 -31,12 -4,4 -8,9 -10,14 -2,5 -3,11 -3,17l0 131c0,12 4,22 13,31 4,4 9,7 14,9 6,2 12,3 17,3l43 0c12,0 23,-4 31,-12 9,-8 13,-18 13,-31zm21 58c-7,8 -16,15 -28,20 -13,6 -25,9 -37,9l-43 0c-24,0 -44,-9 -61,-26 -17,-16 -26,-37 -26,-61l0 -131c0,-24 8,-44 25,-61 17,-17 38,-26 62,-26l108 0c15,0 22,8 22,22l0 195c0,9 3,18 9,27 4,8 12,14 21,19 9,3 14,10 14,19 0,7 -2,12 -6,16 -4,4 -9,7 -16,7 -3,0 -6,-1 -9,-3 -14,-5 -26,-14 -35,-26z"/>
    </g>
   </g>
  </g>
 </g>
</svg>
