<?xml version="1.0" encoding="UTF-8"?>
<!DOCTYPE svg PUBLIC "-//W3C//DTD SVG 1.0//EN" "http://www.w3.org/TR/2001/REC-SVG-20010904/DTD/svg10.dtd">
<!-- Creator: CorelDRAW X7 -->
<svg xmlns="http://www.w3.org/2000/svg" xml:space="preserve" width="200mm" height="200mm" version="1.0" style="shape-rendering:geometricPrecision; text-rendering:geometricPrecision; image-rendering:optimizeQuality; fill-rule:evenodd; clip-rule:evenodd"
viewBox="0 0 20000 20000"
 xmlns:xlink="http://www.w3.org/1999/xlink">
 <defs>
  <style type="text/css">
   <![CDATA[
    .str0 {stroke:#4D8A7D;stroke-width:25}
    .str1 {stroke:#5797B4;stroke-width:75;stroke-linecap:round;stroke-linejoin:round}
    .str2 {stroke:#008DD2;stroke-width:45.33;stroke-linecap:round;stroke-linejoin:round}
    .fil21 {fill:none;fill-rule:nonzero}
    .fil12 {fill:#5B5B5B}
    .fil9 {fill:#434242}
    .fil8 {fill:#FCE2D5}
    .fil10 {fill:#F7CFB5}
    .fil5 {fill:#F7E1C2}
    .fil7 {fill:#F2F2F3}
    .fil15 {fill:#EDC5AB}
    .fil4 {fill:#CA3637}
    .fil6 {fill:#CDB799}
    .fil14 {fill:#CBA88F}
    .fil3 {fill:#6C5C49}
    .fil18 {fill:#758E9C}
    .fil11 {fill:#433F3E}
    .fil2 {fill:#3F3C3A}
    .fil16 {fill:#3F3C3A}
    .fil13 {fill:#2C8187}
    .fil17 {fill:#287579}
    .fil19 {fill:#4D8A7D}
    .fil20 {fill:#024541;fill-rule:nonzero}
    .fil1 {fill:#4D8A7D;fill-rule:nonzero}
    .fil0 {fill:url(#id0)}
   ]]>
  </style>
  <radialGradient id="id0" gradientUnits="userSpaceOnUse" gradientTransform="matrix(1.41421 -0 -0 1.41421 -4131 -4154)" cx="9974.09" cy="10029.4" r="10000" fx="9974.09" fy="10029.4">
   <stop offset="0" style="stop-opacity:1; stop-color:#FEFEFE"/>
   <stop offset="0.439216" style="stop-opacity:1; stop-color:#FEFEFE"/>
   <stop offset="1" style="stop-opacity:1; stop-color:#D1E2F2"/>
  </radialGradient>
 </defs>
 <g id="Layer_x0020_1">
  <metadata id="CorelCorpID_0Corel-Layer"/>
  <path class="fil0" d="M-26 29l20000 0 0 20000 -20000 0 0 -20000z"/>
  <g>
   <path class="fil1" d="M3532 10502c-36,0 -65,-22 -65,-49 0,-27 29,-49 65,-49l0 98zm12165 0l-12165 0 0 -98 12165 0 0 98zm0 -98c36,0 65,22 65,49 0,27 -29,49 -65,49l0 -98z"/>
  </g>
  <g>
   <path class="fil2" d="M7060 8515l0 0c0,0 0,0 0,0l0 0z"/>
   <path class="fil3" d="M7674 7969c30,-102 271,-191 370,169 98,360 48,486 103,614 54,127 -74,1110 -377,1107 -324,-3 -394,-944 -330,-1135 64,-190 8,-756 234,-755z"/>
   <path class="fil3" d="M8740 7969c-31,-102 -272,-191 -370,169 -98,360 -49,486 -103,614 -54,127 74,1110 377,1107 323,-3 394,-944 330,-1135 -65,-190 -9,-756 -234,-755z"/>
   <path class="fil4" d="M8469 9446c-5,8 -496,16 -501,23 -154,220 -487,261 -752,320 -263,59 -274,393 -274,616l2568 0c0,-223 -5,-556 -274,-616 -268,-60 -621,-113 -767,-343z"/>
   <path class="fil4" d="M8484 9468l0 121 -125 816 -268 0 -124 -808 0 -127 1 -1c5,-7 496,-15 501,-23 5,7 10,15 15,22z"/>
   <path class="fil5" d="M7969 8921l0 422 0 208c129,264 360,271 515,0l0 -208 0 -422c0,-341 -515,-341 -515,0z"/>
   <path class="fil5" d="M8905 8626c-51,-23 -124,34 -162,127 -38,93 -28,188 24,211 51,23 124,-34 162,-127 38,-93 27,-188 -24,-211z"/>
   <path class="fil5" d="M7548 8626c51,-23 124,34 162,127 38,93 28,188 -24,211 -51,23 -124,-34 -162,-127 -38,-93 -27,-188 24,-211z"/>
   <path class="fil6" d="M8224 9413c-94,0 -255,-161 -255,-161l0 -18 515 0 0 16c0,0 -167,163 -260,163z"/>
   <path class="fil5" d="M8227 9357c-160,0 -498,-264 -602,-641 -105,-381 93,-927 602,-927 508,0 707,546 601,927 -104,377 -441,641 -601,641z"/>
   <path class="fil3" d="M8860 8250c-50,-198 -303,-498 -540,-492 -34,-4 -73,-5 -115,-3 -43,-2 -82,-1 -116,3 -237,-6 -489,294 -540,492 -40,159 -58,315 39,478 17,49 38,84 57,98 -21,-125 -26,-215 -18,-284 18,-27 52,-35 111,-11 166,69 216,-8 341,-270 38,-80 68,-175 126,-175 57,0 87,95 125,175 125,262 176,339 342,270 58,-24 92,-16 110,11 8,69 4,159 -18,284 19,-14 40,-49 57,-98 97,-163 79,-319 39,-478z"/>
   <path class="fil7" d="M8094 10405l-218 0 -14 0 -224 -204 228 -152 -279 -130 185 -287 71 -111 124 -55 0 131 124 808 3 0z"/>
   <path class="fil7" d="M8584 10040l228 152 -224 213 -15 0 -217 0 3 0 125 -816 0 -131 151 67 67 113 161 272 -279 130z"/>
  </g>
  <path class="fil8" d="M10988 9175c-599,262 -778,402 -849,465 -110,97 -170,457 -235,764l1354 0 1354 0c-64,-307 -125,-667 -234,-764 -71,-63 -244,-199 -843,-462l-547 -3z"/>
  <path class="fil9" d="M10988 9175c-599,262 -778,402 -849,465 -110,97 -170,457 -235,764l1354 0 1354 0c-64,-307 -125,-667 -234,-764 -71,-63 -244,-199 -843,-462l-547 -3z"/>
  <path class="fil10" d="M10968 8652l0 444 0 219c159,189 421,196 581,0l0 -219 0 -444c0,-358 -581,-358 -581,0z"/>
  <path class="fil10" d="M10652 8235c51,-17 117,41 146,130 29,88 11,174 -40,190 -51,17 -116,-41 -146,-129 -29,-89 -11,-174 40,-191z"/>
  <path class="fil10" d="M11862 8235c-52,-17 -117,41 -146,130 -29,88 -11,174 40,190 51,17 116,-41 146,-129 29,-89 11,-174 -40,-191z"/>
  <path class="fil11" d="M11260 9459c0,0 -406,97 -406,122 0,24 155,823 155,823l550 0 63 -820 -362 -125z"/>
  <path class="fil12" d="M10968 9184l0 131 126 1089 -217 0 -239 -485 228 -152 -279 -130 257 -398 124 -55z"/>
  <path class="fil12" d="M11549 9184l0 131 -128 1089 217 0 239 -485 -228 -152 279 -130 -228 -386 -151 -67z"/>
  <path class="fil13" d="M11133 9594l71 109c36,0 72,0 109,0l70 -109 -123 -135 -127 135z"/>
  <path class="fil13" d="M11204 9703l-101 701 310 0 -100 -701 -109 0z"/>
  <path class="fil11" d="M10968 9096l-26 99 71 514 247 -250 -292 -363z"/>
  <path class="fil14" d="M11265 9177c-2,0 -5,0 -7,0 -142,-7 -290,-183 -290,-183l0 -21 581 1 0 32c0,0 -144,171 -284,171z"/>
  <path class="fil10" d="M11259 7461c-894,0 -552,1224 -493,1318 64,104 348,332 493,332 144,0 428,-228 493,-332 58,-94 401,-1318 -493,-1318z"/>
  <path class="fil11" d="M11549 9096l20 97 -67 521 -242 -255 289 -363z"/>
  <path class="fil15" d="M11260 9459l0 0 -292 -363 0 -9 292 362 289 -362 0 9 -289 363z"/>
  <path class="fil16" d="M11313 9707l0 0 0 -4 0 4zm-110 0l0 0 1 -4 -1 4z"/>
  <path class="fil17" d="M11313 9707l-110 0 1 -4 109 0 0 4z"/>
  <path class="fil3" d="M11840 8367c-4,17 -9,32 -9,32 0,0 -80,273 -149,357 -132,164 -306,265 -424,266 -115,0 -286,-92 -420,-252 -54,-63 -151,-348 -153,-371 -1,-15 -4,-29 -7,-44 -18,0 -19,121 -19,121 27,142 46,235 102,313 89,124 339,320 492,320 152,0 402,-196 491,-320 56,-79 72,-183 102,-330 0,0 8,-91 -6,-92z"/>
  <path class="fil3" d="M11533 8733c-21,-43 -188,-102 -217,-113 -31,-11 -52,27 -52,27 0,0 -21,-38 -51,-27 -30,11 -197,70 -217,113 -21,44 -31,74 -31,104 0,29 0,135 0,135 0,0 30,2 47,-11 17,-13 36,-49 36,-95 0,-45 33,-82 74,-90 43,-9 142,-25 142,-52 0,27 106,45 142,52 41,7 75,45 75,90 0,46 19,82 36,95 17,13 46,11 46,11 0,0 0,-106 0,-135 0,-30 -10,-60 -30,-104z"/>
  <path class="fil13" d="M10994 8162c-93,-5 -215,7 -237,15 -29,10 -30,12 -32,36 -2,24 1,44 17,50 23,8 23,40 35,130 11,83 43,148 188,159 7,1 14,1 21,1l1 -23c-67,1 -141,-24 -166,-76 -34,-72 -39,-218 9,-248 21,-13 91,-22 163,-19l1 -25zm277 47c-32,1 -164,-37 -257,-45 -7,-1 -13,-1 -20,-2l-1 25c76,3 155,21 182,61 44,67 -36,229 -107,265 -22,11 -51,17 -81,17l-1 23c126,1 173,-90 188,-120 29,-57 23,-136 95,-136 72,0 63,77 88,134 14,31 55,125 186,121l0 -23c-32,1 -63,-5 -85,-16 -70,-36 -139,-199 -91,-265 29,-41 107,-58 182,-62l1 -25c-6,1 -12,1 -17,2 -84,7 -186,44 -262,46zm272 343c5,0 10,0 15,-1 146,-12 181,-77 198,-160 18,-91 19,-122 42,-130 17,-7 22,-27 21,-50 0,-24 -1,-27 -30,-36 -22,-8 -146,-19 -239,-14l-1 25c74,-4 144,5 165,18 47,30 33,176 -6,248 -28,50 -100,76 -165,77l0 23z"/>
  <path class="fil3" d="M11309 7646c5,-2 10,-3 15,-5 -7,2 -15,4 -23,6 3,-1 5,-1 8,-1zm-469 -234c316,-272 934,75 1078,273 -58,199 -30,453 -73,736l0 -1c0,2 -1,5 -2,8 0,3 -5,9 -6,11 -2,3 -13,0 -17,-2 -1,-1 -2,-2 -2,-4 -2,-25 0,-74 0,-75 3,-39 -2,-78 4,-116 -29,-178 -6,-186 -106,-364 -8,-15 -62,-76 -69,-81 -166,-60 -224,39 -381,102 -61,24 -151,26 -217,26 -104,0 -204,-111 -206,-135 -125,188 -138,322 -174,483 5,28 10,56 13,85 0,1 1,50 0,75 0,2 -1,3 -2,4 -4,2 -15,5 -17,2 -1,-2 -6,-8 -7,-11 -2,-10 -3,-20 -4,-30 -1,-14 -4,-30 -6,-45 -48,-174 -135,-866 194,-941z"/>
  <path class="fil18" d="M15635 8683l0 0c0,0 0,0 0,0l0 0z"/>
  <g>
   <path class="fil19 str0" d="M1665 5488l0 -218c0,-6 2,-12 7,-17 5,-5 11,-7 17,-7 6,0 12,2 17,6 5,4 7,10 7,18l0 435c0,7 -2,14 -7,18 -4,4 -10,6 -17,6 -6,0 -12,-2 -17,-6 -5,-4 -7,-10 -7,-18l0 -169 -145 0c-26,0 -49,-10 -68,-28 -19,-19 -28,-42 -28,-69l0 -169c0,-6 2,-12 7,-17 5,-5 10,-7 17,-7 6,0 11,2 16,6 5,4 8,10 8,18l0 169c0,14 4,26 13,35 5,4 11,7 16,10 7,3 13,4 19,4l145 0zm435 217c0,7 -3,14 -7,18 -5,4 -10,6 -17,6 -7,0 -12,-2 -17,-6 -5,-4 -7,-10 -7,-18l0 -411 -79 0 -116 417c-1,5 -3,9 -8,13 -4,3 -9,5 -15,5 -7,0 -13,-2 -17,-6 -5,-4 -7,-10 -7,-17 0,-4 0,-6 1,-7l121 -435c3,-12 11,-18 23,-18l120 0c17,0 25,8 25,24l0 435zm143 -265l122 0c6,0 12,2 17,7 5,5 7,11 7,17 0,5 -2,11 -6,16 -4,5 -10,8 -18,8l-122 0 0 193 170 0c7,0 12,2 17,7 5,5 7,11 7,17 0,6 -2,11 -6,16 -4,5 -10,8 -18,8l-194 0c-16,0 -24,-8 -24,-23l0 -436c0,-16 8,-24 24,-24l194 0c7,0 12,3 17,8 5,5 7,10 7,16 0,6 -2,12 -6,17 -4,5 -10,7 -18,7l-170 0 0 146zm531 0l0 -170c0,-6 3,-12 7,-16 5,-5 11,-8 17,-8 6,0 12,2 17,6 5,4 7,10 7,18l0 434c0,7 -2,13 -7,18 -6,5 -12,7 -17,7 -6,0 -12,-2 -17,-6 -5,-4 -7,-10 -7,-18l0 -217 -193 0 0 217c0,7 -2,14 -7,18 -4,4 -10,6 -17,6 -6,0 -12,-2 -17,-6 -5,-4 -7,-10 -7,-18l0 -434c0,-7 2,-13 7,-18 5,-4 11,-6 17,-6 6,0 12,2 17,6 4,4 7,10 7,18l0 169 193 0zm483 265c0,7 -2,14 -7,18 -4,4 -10,6 -17,6 -7,0 -12,-2 -17,-6 -5,-4 -7,-10 -7,-18l0 -435c0,-6 2,-12 7,-17 5,-5 10,-7 17,-7 6,0 11,2 17,6 4,4 7,10 7,18l0 435zm-290 -217l0 193 97 0c13,0 24,-4 34,-14 9,-8 14,-20 14,-34l0 -97c0,-14 -4,-25 -14,-34 -9,-10 -20,-14 -34,-14l-97 0zm0 -48l96 0c27,0 49,9 68,28 20,19 29,41 29,68l0 97c0,26 -9,49 -28,68 -19,18 -42,28 -68,28l-121 0c-16,0 -24,-8 -24,-24l0 -435c0,-6 2,-12 7,-17 5,-5 10,-7 17,-7 6,0 12,2 16,6 5,4 8,10 8,18l0 170zm796 -146l-97 0c-7,0 -13,-2 -18,-6 -4,-5 -6,-11 -6,-18 0,-5 2,-10 6,-16 4,-5 10,-8 18,-8l241 0c7,0 13,3 17,8 5,5 8,10 8,16 0,6 -2,11 -6,16 -4,6 -11,8 -19,8l-96 0 0 411c0,7 -2,14 -7,18 -4,4 -10,6 -17,6 -6,0 -12,-2 -17,-6 -5,-4 -7,-10 -7,-18l0 -411zm313 146l121 0c7,0 13,2 17,7 5,5 8,11 8,17 0,5 -2,11 -7,16 -4,5 -10,8 -18,8l-121 0 0 193 170 0c6,0 12,2 17,7 4,5 7,11 7,17 0,6 -2,11 -6,16 -4,5 -10,8 -18,8l-194 0c-16,0 -24,-8 -24,-23l0 -436c0,-16 8,-24 24,-24l194 0c6,0 12,3 17,8 4,5 7,10 7,16 0,6 -2,12 -6,17 -4,5 -10,7 -18,7l-170 0 0 146zm338 48l145 0c13,0 24,-5 34,-14 9,-9 14,-20 14,-35l0 -96c0,-14 -5,-25 -14,-35 -9,-9 -20,-14 -34,-14l-145 0 0 194zm0 48l0 169c0,7 -3,14 -7,18 -5,4 -10,6 -17,6 -7,0 -12,-2 -17,-6 -5,-4 -7,-10 -7,-18l0 -435c0,-16 8,-24 24,-24l169 0c26,0 49,10 68,29 19,18 28,41 28,68l0 96c0,27 -9,49 -28,68 -19,19 -42,29 -69,29l-144 0zm385 -48l145 0c14,0 25,-5 35,-14 9,-9 14,-20 14,-35l0 -96c0,-14 -5,-25 -14,-35 -9,-9 -21,-14 -35,-14l-145 0 0 194zm0 48l0 169c0,7 -2,14 -6,18 -5,4 -10,6 -18,6 -6,0 -12,-2 -16,-6 -5,-4 -8,-10 -8,-18l0 -435c0,-16 8,-24 25,-24l168 0c27,0 50,10 69,29 18,18 28,41 28,68l0 96c0,27 -10,49 -28,68 -19,19 -42,29 -69,29l-145 0zm628 169c0,7 -3,14 -7,18 -5,4 -10,6 -17,6 -7,0 -12,-2 -17,-6 -5,-4 -7,-10 -7,-18l0 -341 -196 353c-3,4 -7,8 -11,11l-5 3c-2,1 -4,2 -8,2 -4,0 -9,-2 -15,-7 -5,-5 -7,-12 -7,-21l0 -434c0,-7 3,-13 7,-18 5,-4 11,-6 17,-6 6,0 12,2 17,6 5,4 7,10 7,18l0 341 196 -353c2,-4 6,-8 10,-11 5,-4 9,-5 13,-5 6,0 11,2 15,8 5,4 8,11 8,20l0 434zm217 -411l-97 0c-7,0 -13,-2 -18,-6 -4,-5 -6,-11 -6,-18 0,-5 2,-10 6,-16 4,-5 10,-8 18,-8l241 0c7,0 13,3 17,8 5,5 7,10 7,16 0,6 -2,11 -6,16 -4,6 -10,8 -18,8l-96 0 0 411c0,7 -2,14 -7,18 -4,4 -10,6 -17,6 -7,0 -12,-2 -17,-6 -5,-4 -7,-10 -7,-18l0 -411zm530 338c0,27 -10,50 -28,69 -19,18 -42,28 -69,28l-96 0c-26,0 -49,-9 -68,-28 -19,-19 -29,-42 -29,-69l0 -289c0,-27 10,-50 29,-69 18,-18 41,-28 68,-28l96 0c27,0 50,10 69,29 18,19 28,41 28,68l0 289zm-48 1l0 -290c0,-14 -5,-25 -14,-35 -9,-9 -21,-14 -35,-14l-96 0c-14,0 -25,5 -35,14 -4,5 -8,10 -10,16 -2,6 -4,12 -4,19l0 290c0,13 5,25 14,34 5,4 10,8 16,11 7,2 13,3 19,3l96 0c14,0 25,-4 35,-14 9,-8 14,-20 14,-34zm231 -145l145 0c13,0 25,-5 34,-14 9,-9 14,-20 14,-35l0 -96c0,-14 -4,-25 -13,-35 -10,-9 -21,-14 -35,-14l-145 0 0 194zm0 48l0 169c0,7 -2,14 -7,18 -4,4 -10,6 -17,6 -6,0 -12,-2 -17,-6 -5,-4 -7,-10 -7,-18l0 -435c0,-16 8,-24 24,-24l169 0c27,0 49,10 68,29 19,18 28,41 28,68l0 96c0,27 -9,49 -28,68 -19,19 -42,29 -68,29l-145 0zm627 169c0,7 -2,14 -7,18 -4,4 -10,6 -17,6 -6,0 -12,-2 -17,-6 -5,-4 -7,-10 -7,-18l0 -341 -196 353c-3,4 -6,8 -11,11l-5 3c-1,1 -4,2 -7,2 -5,0 -10,-2 -16,-7 -4,-5 -6,-12 -6,-21l0 -434c0,-7 2,-13 7,-18 5,-4 10,-6 17,-6 6,0 11,2 16,6 5,4 8,10 8,18l0 341 195 -353c3,-4 6,-8 11,-11 4,-4 9,-5 13,-5 5,0 10,2 15,8 4,4 7,11 7,20l0 434zm181 -97l-35 104c-2,5 -4,10 -9,13 -3,2 -7,3 -13,4 -6,0 -12,-2 -17,-7 -5,-4 -7,-10 -7,-16l1 -9 145 -434c5,-14 13,-21 23,-21 10,0 18,7 23,21l144 434 2 9c0,6 -3,11 -8,16 -5,5 -11,7 -17,7 -3,0 -7,-1 -11,-2 -4,-2 -8,-7 -11,-15l-35 -104 -175 0zm159 -49l-71 -212 -71 212 142 0zm481 146c0,7 -3,14 -7,18 -5,4 -10,6 -17,6 -7,0 -12,-2 -17,-6 -5,-4 -7,-10 -7,-18l0 -411 -79 0 -116 417c-1,5 -3,9 -8,13 -4,3 -9,5 -15,5 -7,0 -13,-2 -17,-6 -5,-4 -7,-10 -7,-17 0,-4 0,-6 1,-7l121 -435c3,-12 11,-18 23,-18l120 0c17,0 25,8 25,24l0 435zm143 -217l145 0c14,0 25,4 35,13 9,9 14,21 14,35l0 97c0,13 -5,25 -14,34 -5,5 -10,8 -16,11 -6,2 -12,3 -19,3l-145 0 0 -193zm0 -48l0 -170c0,-6 -2,-12 -7,-16 -5,-5 -11,-8 -17,-8 -5,0 -10,2 -16,6 -5,4 -8,10 -8,18l0 435c0,16 8,24 24,24l169 0c26,0 49,-9 68,-28 19,-19 29,-41 29,-68l0 -97c0,-26 -10,-49 -28,-68 -19,-19 -42,-28 -69,-28l-145 0zm579 0l0 -170c0,-6 3,-12 8,-16 4,-5 10,-8 16,-8 7,0 12,2 17,6 5,4 7,10 7,18l0 434c0,7 -2,13 -7,18 -6,5 -11,7 -17,7 -6,0 -11,-2 -17,-6 -4,-4 -7,-10 -7,-18l0 -217 -193 0 0 217c0,7 -2,14 -7,18 -4,4 -10,6 -17,6 -6,0 -12,-2 -17,-6 -4,-4 -7,-10 -7,-18l0 -434c0,-7 3,-13 7,-18 5,-4 11,-6 17,-6 6,0 12,2 17,6 5,4 7,10 7,18l0 169 193 0zm434 192c0,27 -9,50 -28,69 -19,18 -42,28 -68,28l-97 0c-26,0 -48,-9 -67,-28 -19,-19 -29,-42 -29,-69l0 -289c0,-27 9,-50 28,-69 19,-18 42,-28 68,-28l97 0c27,0 49,10 68,29 19,19 28,41 28,68l0 289zm-48 1l0 -290c0,-14 -4,-25 -13,-35 -9,-9 -21,-14 -35,-14l-97 0c-13,0 -25,5 -34,14 -5,5 -8,10 -11,16 -2,6 -3,12 -3,19l0 290c0,13 5,25 14,34 5,4 10,8 15,11 7,2 14,3 19,3l97 0c13,0 25,-4 34,-14 10,-8 14,-20 14,-34zm376 -435l-96 0c-7,0 -13,-2 -18,-6 -4,-5 -6,-11 -6,-18 0,-5 2,-10 6,-16 4,-5 10,-8 18,-8l96 0c7,0 13,3 17,8 5,5 7,10 7,16 0,6 -2,11 -6,17 -4,5 -10,7 -18,7zm97 507c0,7 -3,14 -7,18 -4,4 -10,6 -17,6 -7,0 -12,-2 -17,-6 -5,-4 -7,-10 -7,-18l0 -341 -196 353c-3,4 -6,8 -11,11l-5 3c-2,1 -4,2 -7,2 -5,0 -10,-2 -16,-7 -4,-5 -7,-12 -7,-21l0 -434c0,-7 3,-13 8,-18 4,-4 10,-6 16,-6 6,0 12,2 17,6 5,4 7,10 7,18l0 341 196 -353c3,-3 6,-7 11,-11 4,-3 8,-5 13,-5 5,0 10,3 14,8 5,5 8,11 8,20l0 434zm675 0c0,7 -2,14 -7,18 -4,4 -10,6 -17,6 -6,0 -12,-2 -17,-6 -5,-4 -7,-10 -7,-18l0 -341 -196 353c-3,4 -6,8 -11,11l-5 3c-1,1 -4,2 -7,2 -5,0 -10,-2 -16,-7 -4,-5 -6,-12 -6,-21l0 -434c0,-7 2,-13 7,-18 5,-4 10,-6 17,-6 6,0 11,2 16,6 5,4 8,10 8,18l0 341 195 -353c3,-4 6,-8 11,-11 4,-4 8,-5 13,-5 5,0 10,2 15,8 4,4 7,11 7,20l0 434zm242 -217l-73 0c-7,0 -13,-3 -18,-7 -4,-5 -6,-11 -6,-17 0,-6 2,-11 6,-17 5,-5 11,-7 18,-7l73 0c13,0 24,-5 34,-14 9,-9 14,-20 14,-35l0 -48c0,-14 -5,-25 -14,-35 -9,-9 -20,-14 -34,-14l-49 0c-10,0 -20,3 -28,9 -8,6 -14,14 -17,25 -1,4 -4,8 -8,11 -2,2 -4,3 -7,5l-7 1c-7,0 -13,-3 -19,-7 -4,-4 -7,-10 -7,-17l1 -9c7,-19 18,-35 35,-47 17,-13 36,-19 57,-19l48 0c27,0 50,10 69,29 18,19 28,41 28,68l0 48c0,14 -3,28 -9,40 -5,13 -13,24 -24,33 22,18 33,42 33,72l0 96c0,27 -10,50 -28,69 -19,18 -42,28 -69,28l-48 0c-21,0 -39,-6 -56,-18 -16,-12 -28,-28 -36,-48l-1 -9c0,-6 3,-12 7,-17 5,-4 11,-7 19,-7 9,0 16,6 21,17 3,9 9,18 18,25 9,6 19,9 28,9l49 0c13,0 24,-4 34,-14 9,-8 14,-20 14,-34l0 -97c0,-14 -4,-26 -11,-34 -9,-9 -21,-14 -37,-14zm240 0l0 193 145 0c13,0 25,-4 34,-14 10,-8 14,-20 14,-34l0 -97c0,-14 -4,-25 -13,-34 -9,-10 -21,-14 -35,-14l-145 0zm0 -48l145 0c26,0 49,9 68,28 19,19 28,41 28,68l0 97c0,26 -9,49 -28,68 -19,18 -42,28 -68,28l-169 0c-16,0 -24,-8 -24,-24l0 -435c0,-16 8,-24 24,-24l193 0c7,0 12,3 17,8 5,5 7,10 7,16 0,6 -2,11 -6,16 -4,6 -10,8 -18,8l-169 0 0 146zm627 265c0,7 -2,14 -7,18 -4,4 -10,6 -17,6 -6,0 -12,-2 -17,-6 -4,-4 -7,-10 -7,-18l0 -341 -196 353c-2,4 -6,8 -10,11l-6 3c-1,1 -4,2 -7,2 -5,0 -10,-2 -16,-7 -4,-5 -6,-12 -6,-21l0 -434c0,-7 2,-13 7,-18 5,-4 11,-6 17,-6 6,0 12,2 16,6 5,4 8,10 8,18l0 341 196 -353c2,-4 5,-8 10,-11 4,-4 9,-5 13,-5 5,0 10,2 15,8 5,4 7,11 7,20l0 434zm145 -217l145 0c13,0 24,-5 34,-14 9,-9 14,-20 14,-35l0 -96c0,-14 -5,-25 -14,-35 -9,-9 -20,-14 -34,-14l-145 0 0 194zm0 48l0 169c0,7 -3,14 -7,18 -5,4 -10,6 -17,6 -7,0 -12,-2 -17,-6 -5,-4 -7,-10 -7,-18l0 -435c0,-16 8,-24 24,-24l169 0c26,0 49,10 68,29 19,18 28,41 28,68l0 96c0,27 -9,49 -28,68 -19,19 -42,29 -69,29l-144 0zm374 72l-35 104c-2,5 -5,10 -9,13 -3,2 -7,3 -13,4 -6,0 -12,-2 -17,-7 -5,-4 -8,-10 -8,-16l2 -9 145 -434c5,-14 12,-21 23,-21 10,0 18,7 22,21l145 434 2 9c0,6 -3,11 -8,16 -5,5 -11,7 -17,7 -3,0 -7,-1 -11,-2 -4,-2 -8,-7 -11,-15l-35 -104 -175 0zm159 -49l-71 -212 -71 212 142 0zm215 -265l-97 0c-7,0 -13,-2 -18,-6 -4,-5 -6,-11 -6,-18 0,-5 2,-10 6,-16 4,-5 10,-8 18,-8l241 0c7,0 12,3 17,8 5,5 7,10 7,16 0,6 -2,11 -6,16 -4,6 -10,8 -18,8l-96 0 0 411c0,7 -3,14 -7,18 -5,4 -10,6 -17,6 -7,0 -12,-2 -17,-6 -5,-4 -7,-10 -7,-18l0 -411zm313 146l121 0c7,0 12,2 17,7 5,5 7,11 7,17 0,5 -2,11 -6,16 -4,5 -10,8 -18,8l-121 0 0 193 169 0c7,0 13,2 17,7 5,5 7,11 7,17 0,6 -2,11 -6,16 -4,5 -10,8 -18,8l-193 0c-16,0 -24,-8 -24,-23l0 -436c0,-16 8,-24 24,-24l193 0c7,0 13,3 17,8 5,5 7,10 7,16 0,6 -2,12 -6,17 -4,5 -10,7 -18,7l-169 0 0 146zm579 265c0,7 -2,14 -7,18 -4,4 -10,6 -17,6 -6,0 -12,-2 -16,-6 -5,-4 -8,-10 -8,-18l0 -411 -78 0 -116 417c-1,5 -3,9 -8,13 -5,3 -10,5 -15,5 -7,0 -13,-2 -17,-6 -5,-4 -7,-10 -7,-17 0,-4 0,-6 1,-7l120 -435c4,-12 11,-18 23,-18l121 0c16,0 24,8 24,24l0 435zm144 -217l145 0c14,0 25,4 34,13 10,9 14,21 14,35l0 97c0,13 -4,25 -13,34 -5,5 -10,8 -16,11 -6,2 -12,3 -19,3l-145 0 0 -193zm0 -48l0 -170c0,-6 -2,-12 -7,-16 -5,-5 -11,-8 -17,-8 -5,0 -11,2 -16,6 -5,4 -8,10 -8,18l0 435c0,16 8,24 24,24l169 0c26,0 48,-9 68,-28 19,-19 28,-41 28,-68l0 -97c0,-26 -9,-49 -28,-68 -18,-19 -41,-28 -68,-28l-145 0zm579 0l0 -170c0,-6 3,-12 7,-16 5,-5 11,-8 17,-8 6,0 12,2 17,6 5,4 7,10 7,18l0 434c0,7 -2,13 -7,18 -6,5 -12,7 -17,7 -6,0 -12,-2 -17,-6 -4,-4 -7,-10 -7,-18l0 -217 -193 0 0 217c0,7 -2,14 -7,18 -4,4 -10,6 -17,6 -6,0 -12,-2 -17,-6 -5,-4 -7,-10 -7,-18l0 -434c0,-7 2,-13 7,-18 5,-4 11,-6 17,-6 6,0 12,2 17,6 4,4 7,10 7,18l0 169 193 0zm434 192c0,27 -9,50 -28,69 -19,18 -42,28 -68,28l-97 0c-26,0 -49,-9 -68,-28 -19,-19 -28,-42 -28,-69l0 -289c0,-27 9,-50 28,-69 19,-18 41,-28 68,-28l97 0c26,0 49,10 68,29 19,19 28,41 28,68l0 289zm-48 1l0 -290c0,-14 -4,-25 -14,-35 -9,-9 -20,-14 -34,-14l-97 0c-13,0 -25,5 -34,14 -5,5 -8,10 -11,16 -2,6 -3,12 -3,19l0 290c0,13 4,25 14,34 4,4 10,8 15,11 7,2 13,3 19,3l97 0c13,0 24,-4 34,-14 9,-8 14,-20 14,-34z"/>
   <path class="fil19 str0" d="M14440 5198l-96 0c-8,0 -14,-2 -18,-6 -4,-5 -6,-11 -6,-18 0,-5 2,-10 6,-16 4,-5 10,-8 18,-8l96 0c7,0 13,3 17,8 5,5 7,10 7,16 0,6 -2,11 -6,17 -4,5 -10,7 -18,7zm96 507c0,7 -2,14 -6,18 -5,4 -10,6 -18,6 -6,0 -12,-2 -16,-6 -5,-4 -8,-10 -8,-18l0 -341 -195 353c-3,4 -7,8 -11,11l-5 3c-2,1 -4,2 -8,2 -4,0 -10,-2 -16,-7 -4,-5 -6,-12 -6,-21l0 -434c0,-7 3,-13 7,-18 5,-4 11,-6 17,-6 6,0 12,2 17,6 5,4 7,10 7,18l0 341 196 -353c2,-3 6,-7 10,-11 5,-3 9,-5 13,-5 6,0 11,3 15,8 5,5 7,11 7,20l0 434zm434 -250l204 -202c5,-4 10,-7 16,-7 6,0 12,3 17,8 5,5 8,10 8,17 0,4 -3,10 -7,16l-144 144 148 262 3 13c0,6 -2,11 -7,16 -5,5 -11,7 -18,7 -8,0 -15,-4 -20,-13l-142 -251 -58 56 0 184c0,7 -2,14 -6,18 -5,4 -11,6 -18,6 -6,0 -12,-2 -16,-6 -5,-4 -8,-10 -8,-18l0 -435c0,-6 3,-12 8,-17 5,-4 10,-7 16,-7 7,0 12,2 17,6 5,4 7,10 7,18l0 185zm603 177c0,27 -9,50 -28,69 -19,18 -42,28 -68,28l-97 0c-26,0 -49,-9 -68,-28 -19,-19 -28,-42 -28,-69l0 -289c0,-27 9,-50 28,-69 19,-18 41,-28 68,-28l97 0c26,0 49,10 68,29 19,19 28,41 28,68l0 289zm-48 1l0 -290c0,-14 -5,-25 -14,-35 -9,-9 -20,-14 -34,-14l-97 0c-13,0 -25,5 -35,14 -4,5 -7,10 -10,16 -2,6 -3,12 -3,19l0 290c0,13 4,25 13,34 5,4 11,8 16,11 7,2 13,3 19,3l97 0c13,0 24,-4 34,-14 9,-8 14,-20 14,-34zm521 72c0,7 -2,14 -6,18 -5,4 -11,6 -18,6 -5,0 -11,-2 -16,-6 -5,-4 -8,-10 -8,-18l0 -345 -100 167c-6,11 -13,16 -21,16 -7,0 -14,-5 -20,-16l-101 -167 0 345c0,7 -2,14 -7,18 -4,4 -10,6 -17,6 -6,0 -12,-2 -17,-6 -4,-4 -7,-10 -7,-18l0 -432c0,-9 3,-16 7,-21 4,-5 9,-7 15,-7 5,0 8,1 12,3 3,3 7,7 11,12l124 207 124 -207c6,-10 13,-15 23,-15 6,0 11,2 16,7 4,6 6,13 6,21l0 432zm385 0c0,7 -2,14 -6,18 -5,4 -10,6 -18,6 -6,0 -12,-2 -16,-6 -5,-4 -8,-10 -8,-18l0 -341 -195 353c-3,4 -7,8 -11,11l-5 3c-2,1 -4,2 -8,2 -4,0 -10,-2 -16,-7 -4,-5 -6,-12 -6,-21l0 -434c0,-7 3,-13 7,-18 5,-4 11,-6 17,-6 6,0 12,2 17,6 5,4 7,10 7,18l0 341 196 -353c2,-4 6,-8 10,-11 5,-4 9,-5 13,-5 6,0 11,2 15,8 5,4 7,11 7,20l0 434zm314 24l-120 0c-27,0 -49,-9 -68,-28 -19,-19 -29,-42 -29,-69l0 -289c0,-27 9,-50 28,-69 19,-18 42,-28 69,-28l120 0c7,0 13,3 17,8 5,5 7,10 7,16 0,6 -2,11 -6,16 -4,6 -10,8 -18,8l-121 0c-13,0 -25,5 -34,14 -5,5 -8,10 -11,16 -2,6 -3,12 -3,19l0 290c0,13 5,25 14,34 5,4 10,8 15,11 7,2 14,3 19,3l121 0c7,0 13,2 17,7 5,5 7,11 7,17 0,6 -2,11 -6,16 -4,5 -10,8 -18,8zm316 0l-121 0c-26,0 -48,-9 -68,-28 -19,-19 -28,-42 -28,-69l0 -289c0,-27 9,-50 28,-69 19,-18 41,-28 68,-28l121 0c7,0 13,3 17,8 5,5 7,10 7,16 0,6 -2,11 -6,16 -4,6 -10,8 -18,8l-121 0c-13,0 -25,5 -34,14 -5,5 -8,10 -11,16 -2,6 -3,12 -3,19l0 290c0,13 4,25 14,34 5,4 10,8 15,11 7,2 13,3 19,3l121 0c7,0 13,2 17,7 5,5 7,11 7,17 0,6 -2,11 -6,16 -4,5 -10,8 -18,8zm410 -24c0,7 -2,14 -7,18 -4,4 -10,6 -17,6 -7,0 -12,-2 -17,-6 -5,-4 -7,-10 -7,-18l0 -341 -196 353c-3,4 -6,8 -11,11l-5 3c-2,1 -4,2 -7,2 -5,0 -10,-2 -16,-7 -4,-5 -7,-12 -7,-21l0 -434c0,-7 3,-13 8,-18 4,-4 10,-6 16,-6 7,0 12,2 17,6 5,4 7,10 7,18l0 341 196 -353c3,-4 6,-8 11,-11 4,-4 8,-5 13,-5 5,0 10,2 14,8 5,4 8,11 8,20l0 434zm386 0c0,7 -3,14 -7,18 -5,4 -10,6 -17,6 -7,0 -12,-2 -17,-6 -5,-4 -7,-10 -7,-18l0 -341 -196 353c-3,4 -7,8 -11,11l-5 3c-2,1 -4,2 -8,2 -4,0 -9,-2 -15,-7 -5,-5 -7,-12 -7,-21l0 -434c0,-7 3,-13 7,-18 5,-4 11,-6 17,-6 6,0 12,2 17,6 5,4 7,10 7,18l0 341 196 -353c2,-4 6,-8 10,-11 5,-4 9,-5 13,-5 6,0 11,2 15,8 5,4 8,11 8,20l0 434zm-12730 796l-121 0c-26,0 -49,-9 -68,-28 -19,-19 -29,-42 -29,-69l0 -289c0,-27 10,-50 28,-69 19,-18 42,-28 69,-28l121 0c6,0 12,3 17,8 4,5 7,10 7,16 0,6 -2,11 -6,16 -4,6 -10,8 -19,8l-120 0c-14,0 -25,5 -35,14 -5,5 -8,10 -10,16 -3,6 -4,12 -4,19l0 290c0,13 5,25 14,34 5,4 10,8 16,11 6,2 13,3 19,3l120 0c7,0 13,2 18,7 4,5 7,11 7,17 0,6 -2,11 -6,16 -4,5 -10,8 -18,8zm699 -24c0,7 -3,14 -7,18 -5,4 -10,6 -17,6 -7,0 -12,-2 -17,-6 -5,-4 -7,-10 -7,-18l0 -411 -194 0 0 411c0,7 -2,14 -7,18 -4,4 -10,6 -17,6 -6,0 -12,-2 -17,-6 -4,-4 -7,-10 -7,-18l0 -435c0,-16 8,-24 24,-24l241 0c17,0 25,8 25,24l0 435zm144 -217l145 0c13,0 25,-5 34,-14 10,-9 14,-20 14,-35l0 -96c0,-14 -4,-25 -13,-35 -9,-9 -21,-14 -35,-14l-145 0 0 194zm0 48l0 169c0,7 -2,14 -7,18 -4,4 -10,6 -17,6 -6,0 -12,-2 -17,-6 -5,-4 -7,-10 -7,-18l0 -435c0,-16 8,-24 24,-24l169 0c27,0 50,10 68,29 19,18 28,41 28,68l0 96c0,27 -9,49 -28,68 -19,19 -41,29 -68,29l-145 0zm374 72l-34 104c-2,5 -5,10 -9,13 -4,2 -8,3 -13,4 -7,0 -13,-2 -17,-7 -6,-4 -8,-10 -8,-16l1 -9 146 -434c4,-14 12,-21 22,-21 11,0 18,7 23,21l144 434 2 9c0,6 -3,11 -8,16 -5,5 -11,7 -17,7 -3,0 -7,-1 -11,-2 -4,-2 -7,-7 -11,-15l-35 -104 -175 0zm159 -49l-71 -212 -71 212 142 0zm434 -105c14,8 25,19 33,34 9,15 13,31 13,48l0 96c0,27 -9,50 -28,69 -19,18 -42,28 -68,28l-169 0c-16,0 -24,-8 -24,-24l0 -435c0,-16 8,-24 24,-24l145 0c26,0 49,10 68,29 19,19 28,41 28,68l0 48c0,11 -2,22 -5,32 -4,11 -9,21 -17,31zm-195 34l0 193 145 0c13,0 24,-4 34,-14 9,-8 14,-20 14,-34l0 -97c0,-14 -5,-25 -14,-34 -9,-10 -20,-14 -34,-14l-145 0zm121 -48c13,0 24,-5 34,-14 9,-9 14,-21 14,-35l0 -48c0,-14 -5,-25 -14,-35 -9,-9 -20,-14 -34,-14l-121 0 0 146 121 0zm506 192c0,27 -10,50 -28,69 -19,18 -42,28 -69,28l-96 0c-26,0 -49,-9 -68,-28 -19,-19 -28,-42 -28,-69l0 -289c0,-27 9,-50 28,-69 18,-18 41,-28 68,-28l96 0c27,0 50,10 69,29 18,19 28,41 28,68l0 289zm-48 1l0 -290c0,-14 -5,-25 -14,-35 -9,-9 -20,-14 -34,-14l-97 0c-14,0 -25,5 -35,14 -4,5 -8,10 -10,16 -2,6 -3,12 -3,19l0 290c0,13 4,25 13,34 5,4 10,8 16,11 7,2 13,3 19,3l97 0c13,0 24,-4 34,-14 9,-8 14,-20 14,-34zm521 72c0,7 -2,14 -7,18 -4,4 -10,6 -17,6 -6,0 -11,-2 -16,-6 -5,-4 -8,-10 -8,-18l0 -345 -100 167c-6,11 -13,16 -21,16 -7,0 -14,-5 -21,-16l-100 -167 0 345c0,7 -2,14 -7,18 -4,4 -10,6 -17,6 -6,0 -12,-2 -17,-6 -5,-4 -7,-10 -7,-18l0 -432c0,-9 2,-16 7,-21 4,-5 9,-7 15,-7 4,0 8,1 12,3 3,3 7,7 11,12l124 207 124 -207c6,-10 13,-15 23,-15 6,0 11,2 16,7 4,6 6,13 6,21l0 432zm433 -217l145 0c14,0 25,-5 35,-14 9,-9 14,-20 14,-35l0 -96c0,-14 -5,-25 -14,-35 -9,-9 -21,-14 -35,-14l-145 0 0 194zm0 48l0 169c0,7 -2,14 -6,18 -5,4 -11,6 -18,6 -6,0 -12,-2 -16,-6 -5,-4 -8,-10 -8,-18l0 -435c0,-16 8,-24 24,-24l169 0c27,0 50,10 69,29 18,18 28,41 28,68l0 96c0,27 -10,49 -29,68 -18,19 -41,29 -68,29l-145 0zm386 -96l122 0c6,0 12,2 17,7 4,5 7,11 7,17 0,5 -2,11 -6,16 -4,5 -10,8 -18,8l-122 0 0 193 170 0c6,0 12,2 17,7 5,5 7,11 7,17 0,6 -2,11 -6,16 -4,5 -10,8 -18,8l-194 0c-16,0 -24,-8 -24,-23l0 -436c0,-16 8,-24 24,-24l194 0c6,0 12,3 17,8 5,5 7,10 7,16 0,6 -2,12 -6,17 -4,5 -10,7 -18,7l-170 0 0 146zm506 241l121 0 0 -411c0,-6 2,-12 7,-17 5,-5 11,-7 17,-7 6,0 12,2 17,6 5,4 7,10 7,18l0 435c0,16 -8,24 -24,24l-337 0c-16,0 -24,-8 -24,-24l0 -435c0,-6 2,-12 7,-17 5,-5 10,-7 17,-7 6,0 12,2 16,6 5,4 8,10 8,18l0 411 120 0 0 -411c0,-6 3,-12 8,-17 4,-5 10,-7 16,-7 7,0 12,2 17,6 5,4 7,10 7,18l0 411zm351 -73l-35 104c-2,5 -5,10 -9,13 -3,2 -8,3 -13,4 -6,0 -12,-2 -17,-7 -5,-4 -8,-10 -8,-16l2 -9 145 -434c5,-14 12,-21 23,-21 10,0 18,7 22,21l145 434 2 9c0,6 -3,11 -8,16 -5,5 -11,7 -17,7 -4,0 -7,-1 -11,-2 -4,-2 -8,-7 -11,-15l-35 -104 -175 0zm159 -49l-71 -212 -72 212 143 0zm480 74l0 -290c0,-14 -4,-25 -13,-35 -10,-9 -21,-14 -35,-14l-49 0c-13,0 -25,5 -34,14 -5,5 -8,10 -11,16 -2,6 -3,12 -3,19l0 290c0,13 4,25 14,34 5,4 10,8 15,11 7,2 14,3 19,3l49 0c13,0 25,-4 34,-14 10,-8 14,-20 14,-34zm-242 -193l49 0 0 -97c0,-27 9,-50 28,-69 19,-18 42,-28 68,-28l49 0c27,0 49,10 68,29 19,19 28,41 28,68l0 289c0,27 -9,50 -28,69 -19,18 -42,28 -68,28l-49 0c-26,0 -48,-9 -68,-28 -19,-19 -28,-42 -28,-69l0 -144 -49 0 0 217c0,7 -2,14 -7,18 -4,4 -10,6 -17,6 -6,0 -12,-2 -17,-6 -4,-4 -7,-10 -7,-18l0 -435c0,-6 3,-12 7,-17 5,-5 11,-7 17,-7 6,0 12,2 17,6 5,4 7,10 7,18l0 170zm772 289l-24 0 -338 0c-16,0 -24,-8 -24,-24l0 -435c0,-6 3,-12 7,-17 5,-5 11,-7 17,-7 6,0 12,2 17,6 5,4 7,10 7,18l0 411 121 0 0 -411c0,-6 2,-12 7,-17 5,-5 11,-7 17,-7 6,0 12,2 16,6 5,4 8,10 8,18l0 411 121 0 0 -411c0,-6 3,-12 7,-17 5,-5 11,-7 17,-7 6,0 12,2 17,6 5,4 7,10 7,18l0 411 24 0c16,0 24,8 24,24l0 73c0,6 -2,12 -7,17 -5,4 -11,7 -17,7 -5,0 -11,-2 -16,-6 -5,-4 -8,-10 -8,-19l0 -48zm193 -289l121 0c7,0 13,2 17,7 5,5 7,11 7,17 0,5 -2,11 -6,16 -4,5 -10,8 -18,8l-121 0 0 193 169 0c7,0 13,2 18,7 4,5 7,11 7,17 0,6 -2,11 -6,16 -4,5 -10,8 -18,8l-194 0c-16,0 -24,-8 -24,-23l0 -436c0,-16 8,-24 24,-24l194 0c6,0 12,3 17,8 4,5 7,10 7,16 0,6 -2,12 -6,17 -4,5 -10,7 -19,7l-169 0 0 146zm507 -146l-170 0 0 411c0,7 -2,14 -6,18 -5,4 -11,6 -18,6 -6,0 -12,-2 -16,-6 -5,-4 -8,-10 -8,-18l0 -435c0,-16 8,-24 25,-24l193 0c6,0 12,3 17,8 5,5 7,10 7,16 0,6 -2,11 -6,16 -4,6 -10,8 -18,8zm385 338c0,27 -10,50 -28,69 -19,18 -42,28 -69,28l-96 0c-26,0 -49,-9 -68,-28 -19,-19 -28,-42 -28,-69l0 -289c0,-27 9,-50 28,-69 18,-18 41,-28 68,-28l96 0c27,0 50,10 69,29 18,19 28,41 28,68l0 289zm-48 1l0 -290c0,-14 -5,-25 -14,-35 -9,-9 -20,-14 -34,-14l-97 0c-14,0 -25,5 -35,14 -4,5 -8,10 -10,16 -2,6 -3,12 -3,19l0 290c0,13 4,25 13,34 5,4 10,8 16,11 7,2 13,3 19,3l97 0c13,0 24,-4 34,-14 9,-8 14,-20 14,-34zm690 -339l-170 0 0 411c0,7 -2,14 -6,18 -5,4 -11,6 -18,6 -6,0 -12,-2 -16,-6 -5,-4 -8,-10 -8,-18l0 -435c0,-16 8,-24 24,-24l194 0c6,0 12,3 17,8 4,5 7,10 7,16 0,6 -2,11 -6,16 -4,6 -10,8 -18,8zm385 338c0,27 -10,50 -28,69 -19,18 -42,28 -69,28l-96 0c-26,0 -49,-9 -68,-28 -19,-19 -28,-42 -28,-69l0 -289c0,-27 9,-50 28,-69 18,-18 41,-28 68,-28l96 0c27,0 50,10 69,29 18,19 28,41 28,68l0 289zm-48 1l0 -290c0,-14 -5,-25 -14,-35 -9,-9 -20,-14 -34,-14l-97 0c-14,0 -25,5 -35,14 -4,5 -8,10 -10,16 -2,6 -3,12 -3,19l0 290c0,13 4,25 13,34 5,4 10,8 16,11 7,2 13,3 19,3l97 0c13,0 24,-4 34,-14 9,-8 14,-20 14,-34zm425 72c0,7 -3,14 -7,18 -4,4 -10,6 -17,6 -7,0 -12,-2 -17,-6 -5,-4 -7,-10 -7,-18l0 -411 -79 0 -116 417c0,5 -3,9 -8,13 -4,3 -9,5 -14,5 -8,0 -14,-2 -18,-6 -5,-4 -7,-10 -7,-17 0,-4 0,-6 1,-7l121 -435c3,-12 11,-18 23,-18l121 0c16,0 24,8 24,24l0 435zm385 -73c0,27 -10,50 -28,69 -19,18 -42,28 -69,28l-96 0c-26,0 -49,-9 -68,-28 -19,-19 -28,-42 -28,-69l0 -289c0,-27 9,-50 28,-69 18,-18 41,-28 68,-28l96 0c27,0 50,10 69,29 18,19 28,41 28,68l0 289zm-48 1l0 -290c0,-14 -5,-25 -14,-35 -9,-9 -20,-14 -34,-14l-97 0c-14,0 -25,5 -35,14 -4,5 -8,10 -10,16 -2,6 -3,12 -3,19l0 290c0,13 4,25 13,34 5,4 10,8 16,11 7,2 13,3 19,3l97 0c13,0 24,-4 34,-14 9,-8 14,-20 14,-34zm400 96l-121 0c-26,0 -48,-9 -67,-28 -20,-19 -29,-42 -29,-69l0 -289c0,-27 9,-50 28,-69 19,-18 42,-28 68,-28l121 0c7,0 13,3 17,8 5,5 7,10 7,16 0,6 -2,11 -6,16 -4,6 -10,8 -18,8l-121 0c-13,0 -25,5 -34,14 -5,5 -8,10 -11,16 -2,6 -3,12 -3,19l0 290c0,13 4,25 14,34 5,4 10,8 15,11 7,2 13,3 19,3l121 0c7,0 13,2 17,7 5,5 7,11 7,17 0,6 -2,11 -6,16 -4,5 -10,8 -18,8zm205 -121l-35 104c-1,5 -4,10 -9,13 -3,2 -7,3 -13,4 -6,0 -12,-2 -17,-7 -5,-4 -7,-10 -7,-16l1 -9 145 -434c5,-14 13,-21 23,-21 10,0 18,7 23,21l144 434 2 9c0,6 -3,11 -8,16 -5,5 -11,7 -17,7 -3,0 -7,-1 -11,-2 -4,-2 -8,-7 -11,-15l-35 -104 -175 0zm159 -49l-71 -212 -71 212 142 0z"/>
  </g>
  <g>
   <g>
    <path class="fil20" d="M9969 12795l-1581 -3 0 -85 1581 3 0 85 0 0zm0 -85c28,0 50,19 50,42 0,24 -22,43 -50,43l0 -85zm1642 82l-1642 3 0 -85 1642 -3 50 42 -50 43zm0 -85c27,0 50,19 50,42 0,23 -22,43 -50,43l0 -85zm-50 2081l0 -2039 100 0 0 2039 -50 43 -50 -43zm100 0c0,24 -22,43 -50,43 -28,0 -50,-19 -50,-43l100 0zm-3273 -42l3223 0 0 85 -3223 0 -50 -43 50 -42zm0 85c-28,0 -50,-19 -50,-43 0,-23 22,-42 50,-42l0 85zm50 -2082l0 2039 -100 0 0 -2039 50 -42 50 42zm-100 0c0,-23 22,-42 50,-42 27,0 50,19 50,42l-100 0z"/>
   </g>
   <g>
    <path class="fil20" d="M8355 12872c-21,-15 -23,-42 -5,-59 18,-18 49,-20 70,-5l-65 64zm1612 1181l-1612 -1181 65 -64 1612 1180 0 65 -65 0zm65 -65c21,16 23,42 5,60 -18,18 -49,20 -70,5l65 -65zm1612 -1116l-1612 1181 -65 -65 1611 -1180 66 64zm-66 -64c21,-15 53,-13 71,5 18,17 16,44 -5,59l-66 -64zm-3158 2013c-21,15 -53,13 -70,-5 -18,-18 -16,-45 6,-60l64 65zm1362 -974l-1362 974 -64 -65 1362 -974 64 65zm-64 -65c21,-15 53,-13 70,5 18,18 15,45 -6,60l-64 -65zm498 65c-21,-15 -23,-42 -6,-60 18,-18 50,-20 71,-5l-65 65zm1363 974l-1363 -974 65 -65 1362 974 -64 65zm64 -65c21,15 24,42 6,60 -18,18 -49,20 -70,5l64 -65z"/>
   </g>
  </g>
  <path class="fil21 str1" d="M11045 13063c-307,1068 -97,463 -240,367 -143,-95 520,-459 476,-166 -43,292 -519,222 -506,283 13,62 199,104 255,-52 56,-155 -26,122 121,74 147,-48 208,-186 184,-109 -24,78 17,65 95,18 78,-48 167,-98 167,-98"/>
  <path class="fil21 str1" d="M9679 14272c0,90 65,106 145,90 163,-34 205,-453 161,-426 -64,38 -258,68 -261,199 -1,29 4,51 12,67 58,116 310,-39 422,-63 152,-33 29,-229 -137,-131 -37,22 -198,110 -215,147 -64,135 48,136 141,146 81,8 466,-157 458,-141 -1,2 -71,143 -28,114 72,-49 510,-110 289,-151 -62,-11 -300,-43 -357,-30"/>
  <path class="fil21 str2" d="M8862 12978c240,-64 485,77 549,316 64,239 -78,485 -317,549 -239,64 -484,-78 -548,-317 -64,-239 77,-484 316,-548zm-219 434c0,-149 99,-285 249,-325 150,-40 304,28 377,157m45 165c0,149 -99,285 -249,325 -150,40 -304,-28 -377,-157m339 43c-39,10 -5,-37 -52,-25 -22,6 -59,68 -70,60 -12,-8 -46,-34 -41,-46 11,-27 14,-58 43,-74 -20,-14 -81,7 -87,-22 0,-1 -128,-75 -70,-126 11,-9 -13,-45 -4,-72 7,-21 171,-3 165,-26 -3,-10 -21,-36 -59,-40 -7,-1 35,-11 57,-20 4,-2 -11,-16 -8,-18 9,-7 9,-9 21,-12m435 103c0,0 -24,25 -6,30m-743 194c-2,-17 28,-18 0,-38m433 128c39,-10 -14,-34 33,-47 22,-6 85,29 90,17 6,-14 23,-53 12,-61 -22,-17 -40,-43 -73,-42 10,-23 73,-35 64,-63 0,-1 73,-129 -2,-144 -14,-3 -12,-46 -33,-64 -17,-15 -149,83 -155,60 -3,-11 0,-42 31,-65 5,-4 -36,9 -60,12 -5,0 1,-20 -2,-20 -11,-2 -13,-3 -24,0"/>
 </g>
</svg>
