<?xml version="1.0" encoding="UTF-8"?>
<!DOCTYPE svg PUBLIC "-//W3C//DTD SVG 1.0//EN" "http://www.w3.org/TR/2001/REC-SVG-20010904/DTD/svg10.dtd">
<!-- Creator: CorelDRAW X7 -->
<svg xmlns="http://www.w3.org/2000/svg" xml:space="preserve" width="200mm" height="200mm" version="1.0" style="shape-rendering:geometricPrecision; text-rendering:geometricPrecision; image-rendering:optimizeQuality; fill-rule:evenodd; clip-rule:evenodd"
viewBox="0 0 20000 20000"
 xmlns:xlink="http://www.w3.org/1999/xlink">
 <defs>
  <style type="text/css">
   <![CDATA[
    .str6 {stroke:#A37C66;stroke-width:19.08;stroke-linecap:round;stroke-linejoin:round}
    .str7 {stroke:#A37C66;stroke-width:11.6;stroke-linecap:round;stroke-linejoin:round}
    .str4 {stroke:#7688A1;stroke-width:150;stroke-linecap:round;stroke-linejoin:round}
    .str9 {stroke:#493A8B;stroke-width:250;stroke-linecap:round;stroke-linejoin:round}
    .str0 {stroke:#AB8082;stroke-width:161.66;stroke-linecap:round;stroke-linejoin:round}
    .str5 {stroke:#AB8082;stroke-width:142.65;stroke-linecap:round;stroke-linejoin:round}
    .str3 {stroke:#7688A1;stroke-width:142.65;stroke-linecap:round;stroke-linejoin:round}
    .str8 {stroke:#7690C9;stroke-width:71.33;stroke-linecap:round;stroke-linejoin:round}
    .str1 {stroke:#5797B4;stroke-width:71.33;stroke-linecap:round;stroke-linejoin:round}
    .str2 {stroke:#008DD2;stroke-width:71.33;stroke-linecap:round;stroke-linejoin:round}
    .fil4 {fill:none}
    .fil9 {fill:none;fill-rule:nonzero}
    .fil6 {fill:#FEFEFE}
    .fil10 {fill:#EBECEC}
    .fil2 {fill:#FFFBDB}
    .fil3 {fill:#FDEAD2}
    .fil1 {fill:#FCD5A6}
    .fil11 {fill:#7690C9}
    .fil5 {fill:#FCD5A6;fill-rule:nonzero}
    .fil8 {fill:#A37C66;fill-rule:nonzero}
    .fil7 {fill:#493A8B;fill-rule:nonzero}
    .fil0 {fill:url(#id0)}
   ]]>
  </style>
  <radialGradient id="id0" gradientUnits="userSpaceOnUse" gradientTransform="matrix(1.41421 -0 -0 1.41421 -4142 -4142)" cx="10000" cy="10000" r="10000" fx="10000" fy="10000">
   <stop offset="0" style="stop-opacity:1; stop-color:#FEFEFE"/>
   <stop offset="0.439216" style="stop-opacity:1; stop-color:#FEFEFE"/>
   <stop offset="1" style="stop-opacity:1; stop-color:#D1E2F2"/>
  </radialGradient>
 </defs>
 <g id="Layer_x0020_1">
  <metadata id="CorelCorpID_0Corel-Layer"/>
  <g id="_704212298384">
   <path class="fil0" d="M0 0l20000 0 0 20000 -20000 0 0 -20000z"/>
   <path class="fil1" d="M6093 16436l0 -6857 -1711 -5737 0 6857 1711 5737z"/>
   <path class="fil2" d="M16037 9579l-9944 0 -1711 -5737 10286 0 0 1147 342 0 0 1147 342 0 0 1148 342 0 0 1147 343 0 0 1148z"/>
   <path class="fil3" d="M16379 16436l-10286 0c0,-2568 0,-4289 0,-6857l10286 0 0 6857z"/>
   <path class="fil1" d="M6093 9579l10286 0 0 3120 -10286 -2598c17,-268 0,-343 0,-522z"/>
   <path class="fil4 str0" d="M16379 16436l-10286 0c0,-2568 0,-4289 0,-6857l10286 0 0 6857z"/>
   <g>
    <path class="fil5" d="M6531 13789c-20,0 -35,-15 -35,-33 0,-18 15,-33 35,-33l0 66zm9433 0l-9433 0 0 -66 9433 0 0 66zm0 -66c19,0 35,15 35,33 0,18 -16,33 -35,33l0 -66z"/>
   </g>
   <path class="fil6" d="M5968 11039l3101 0 0 3157 -3101 0 0 -3157z"/>
   <path class="fil4 str1" d="M7977 12926c-405,1410 -128,611 -317,485 -188,-125 686,-605 628,-220 -57,386 -685,293 -668,374 18,82 263,137 337,-68 74,-206 -34,160 160,97 194,-63 274,-246 242,-143 -31,103 23,85 126,23 103,-63 220,-129 220,-129"/>
   <path class="fil4 str2" d="M7637 11379c376,-101 763,123 864,499 100,376 -123,762 -499,863 -376,101 -763,-122 -863,-498 -101,-376 122,-763 498,-864zm-345 683c-1,-233 155,-448 391,-511 237,-63 478,44 594,247m70 260c1,234 -155,448 -391,511 -236,64 -478,-44 -594,-247m534 68c-61,16 -8,-59 -82,-39 -35,10 -93,106 -110,94 -18,-13 -72,-53 -64,-73 17,-42 22,-90 67,-116 -32,-22 -127,11 -137,-35 0,-1 -201,-117 -110,-197 17,-16 -20,-72 -6,-113 11,-35 269,-5 259,-41 -5,-17 -33,-57 -93,-64 -10,-1 56,-16 90,-31 7,-3 -16,-26 -13,-29 14,-11 15,-14 34,-18m685 162c0,0 -39,39 -11,46m-1168 305c-4,-26 43,-28 0,-58m681 201c62,-17 -22,-55 52,-75 35,-9 133,46 142,27 9,-21 35,-82 19,-95 -36,-28 -64,-68 -116,-67 16,-35 115,-55 101,-99 0,-1 116,-202 -3,-226 -23,-5 -19,-72 -51,-101 -27,-24 -235,130 -245,94 -5,-17 0,-66 48,-101 9,-7 -56,13 -93,18 -8,1 1,-31 -3,-32 -18,-2 -20,-5 -38,1"/>
   <path class="fil4 str3" d="M6659 13583c0,100 81,182 181,182 100,0 182,-82 182,-182"/>
   <path class="fil4 str3" d="M6659 11535c0,100 81,182 181,182 100,0 182,-82 182,-182"/>
   <path class="fil4 str4" d="M5968 14196l3101 0 0 -3157"/>
   <path class="fil4 str5" d="M6659 15636c0,100 81,181 181,181 100,0 182,-81 182,-181"/>
   <g>
    <path class="fil7" d="M4498 5612c3,66 -47,122 -112,124 -65,3 -119,-49 -121,-115l233 -9zm-309 -346l220 -82 0 0 7 21 7 21 7 21 6 21 6 20 5 20 6 20 4 19 5 19 4 18 4 17 3 18 3 16 3 16 3 16 2 15 2 14 2 13 2 13 2 12 1 11 1 11 1 10 1 9 0 7 1 8 0 6 1 5 0 4 0 4 0 2 0 1 -233 9 0 1 0 -1 0 -2 -1 -3 0 -3 0 -5 0 -5 -1 -7 -1 -7 -1 -8 0 -8 -2 -10 -1 -10 -1 -10 -2 -12 -2 -12 -2 -12 -2 -14 -2 -13 -3 -14 -3 -15 -3 -15 -4 -16 -4 -16 -4 -16 -4 -17 -5 -17 -5 -17 -5 -18 -6 -17 -6 -18 -6 -18 0 0zm0 0c-22,-62 9,-131 70,-153 60,-23 127,9 150,71l-220 82zm-1093 -928l199 -127 18 28 21 27 23 26 26 25 27 24 29 23 31 22 34 23 34 21 37 22 38 21 39 21 40 21 41 22 41 21 42 23 43 23 43 24 43 26 42 26 43 29 42 30 41 32 40 35 39 36 37 40 36 43 34 45 31 49 29 51 26 55 24 59 -220 82 -17 -44 -20 -40 -21 -38 -23 -36 -25 -33 -26 -32 -29 -30 -30 -29 -32 -27 -33 -26 -35 -25 -36 -24 -37 -23 -38 -23 -40 -22 -40 -22 -40 -22 -41 -21 -42 -22 -41 -22 -42 -22 -41 -23 -41 -24 -40 -26 -40 -26 -39 -29 -38 -30 -37 -32 -35 -35 -34 -37 -31 -40 -29 -43zm0 0c-34,-56 -17,-130 37,-165 55,-35 127,-18 162,38l-199 127z"/>
   </g>
   <path class="fil8 str6" d="M11020 12250c-59,0 -82,-41 -82,-93l0 -273c0,-53 23,-94 82,-94l87 0c37,0 56,15 60,50 2,21 12,39 39,39 29,0 41,-18 41,-39 0,-88 -53,-127 -140,-127l-87 0c-108,0 -162,77 -162,171l0 273c0,93 54,170 162,170l87 0c87,0 140,-38 140,-127 0,-20 -12,-39 -41,-39 -27,0 -37,19 -39,39 -4,36 -23,50 -60,50l-87 0zm615 -452l0 490c0,20 11,39 40,39 27,0 40,-19 40,-39l0 -527c0,-21 -13,-39 -40,-39l-287 0c-28,0 -40,18 -40,39l0 527c0,20 12,39 40,39 28,0 40,-19 40,-39l0 -490 207 0zm516 490c0,20 11,39 38,39 29,0 40,-19 40,-39l0 -536c0,-20 -11,-39 -40,-39 -17,0 -28,6 -41,29l-227 406 -1 0c2,-15 3,-36 3,-59l0 -337c0,-20 -11,-39 -38,-39 -29,0 -40,19 -40,39l0 536c0,20 12,39 41,39 16,0 27,-6 40,-29l228 -406 0 0c-1,16 -3,36 -3,59l0 337zm362 -38c-59,0 -82,-41 -82,-93l0 -273c0,-53 23,-94 82,-94l87 0c36,0 56,15 59,50 2,21 12,39 39,39 29,0 41,-18 41,-39 0,-88 -52,-127 -139,-127l-87 0c-109,0 -162,77 -162,171l0 273c0,93 53,170 162,170l87 0c87,0 139,-38 139,-127 0,-20 -12,-39 -41,-39 -27,0 -37,19 -39,39 -3,36 -23,50 -59,50l-87 0zm399 -366c0,-53 23,-94 82,-94l68 0c59,0 82,41 82,94l0 273c0,52 -23,93 -82,93l-68 0c-59,0 -82,-41 -82,-93l0 -273zm312 0c0,-94 -54,-171 -162,-171l-68 0c-109,0 -162,77 -162,171l0 273c0,93 53,170 162,170l68 0c108,0 162,-77 162,-170l0 -273zm501 380l-183 -260 174 -226c15,-20 15,-41 -2,-56 -20,-19 -45,-10 -60,8l-179 243 -51 0 0 -221c0,-20 -12,-39 -39,-39 -29,0 -41,19 -41,39l0 536c0,20 12,39 41,39 27,0 39,-19 39,-39l0 -238 52 0 184 260c11,17 32,27 55,11 24,-17 22,-40 10,-57zm-3659 1122c0,20 11,39 38,39 29,0 40,-19 40,-39l0 -536c0,-21 -12,-39 -41,-39 -16,0 -27,6 -40,29l-227 406 -1 0c1,-16 3,-36 3,-59l0 -337c0,-21 -11,-39 -38,-39 -29,0 -40,18 -40,39l0 536c0,20 12,39 41,39 16,0 27,-6 40,-29l227 -406 1 0c-1,15 -3,36 -3,59l0 337zm457 -418c0,51 -36,99 -94,99l-31 0c-19,0 -37,12 -37,37 0,27 18,38 37,38l64 0c58,0 81,47 81,99l0 19c0,53 -18,88 -82,88l-64 0c-33,0 -65,-15 -68,-50 -2,-21 -12,-40 -40,-40 -29,0 -41,19 -41,40 0,81 61,127 148,127l71 0c103,0 157,-71 157,-165l0 -19c0,-71 -34,-133 -99,-149 58,-25 78,-72 78,-124 0,-94 -46,-157 -159,-157l-38 0c-87,0 -146,43 -146,127 0,20 12,39 41,39 28,0 39,-19 39,-39 2,-34 36,-51 73,-51l31 0c57,0 79,24 79,81zm408 87l-123 0 0 -159 217 0c20,0 38,-11 38,-38 0,-26 -18,-39 -38,-39l-256 0c-29,0 -41,19 -41,39l0 519c0,20 12,39 41,39l162 0c110,0 164,-71 164,-165l0 -39c0,-95 -54,-157 -164,-157zm84 204c0,51 -23,80 -82,80l-125 0 0 -212 123 0c59,0 84,30 84,81l0 51zm490 127c0,20 12,39 39,39 29,0 40,-19 40,-39l0 -536c0,-21 -12,-39 -41,-39 -16,0 -27,6 -40,29l-228 406 -1 0c2,-16 4,-36 4,-59l0 -337c0,-21 -11,-39 -39,-39 -29,0 -40,18 -40,39l0 536c0,20 12,39 41,39 16,0 27,-6 40,-29l228 -406 1 0c-2,15 -4,36 -4,59l0 337zm289 -279l0 -212 133 0c59,0 83,30 83,81l0 43c0,52 -24,88 -83,88l-133 0zm133 77c110,0 163,-71 163,-165l0 -43c0,-95 -53,-157 -163,-157l-174 0c-28,0 -40,19 -40,39l0 528c0,20 12,39 41,39 28,0 40,-19 40,-39l0 -202 133 0zm483 64l48 149c7,21 26,33 49,25 23,-8 32,-28 25,-48l-172 -534c-6,-19 -16,-29 -40,-29l-4 0c-24,0 -35,10 -40,29l-173 534c-7,20 3,40 25,48 23,8 43,-4 49,-25l48 -149 185 0zm-105 -257c5,-19 8,-28 12,-49l1 0c4,21 7,30 13,49l58 186 -142 0 58 -186zm405 434c29,0 41,-19 41,-39l0 -490 124 0c20,0 38,-11 38,-38 0,-26 -18,-39 -38,-39l-329 0c-20,0 -38,13 -38,39 0,27 18,38 38,38l124 0 0 490c0,20 12,39 40,39zm591 -9c20,0 38,-11 38,-38 0,-26 -18,-39 -38,-39l-233 0 0 -191 192 0c20,0 38,-12 38,-39 0,-25 -18,-38 -38,-38l-192 0 0 -175 233 0c20,0 38,-11 38,-38 0,-26 -18,-39 -38,-39l-274 0c-27,0 -39,19 -39,39l0 519c0,20 12,39 39,39l274 0zm261 -107c6,-49 51,-413 51,-413l149 0 0 490c0,20 12,39 41,39 27,0 39,-19 39,-39l0 -528c0,-20 -12,-39 -39,-39l-223 0c-24,0 -38,16 -41,39 -2,25 -48,398 -53,431 -2,20 -5,33 -10,41 -8,16 -23,21 -47,21 -21,0 -40,12 -40,40 0,29 19,38 40,38 74,0 104,-24 121,-67 6,-16 10,-31 12,-53zm724 107c19,0 37,-11 37,-38 0,-26 -18,-39 -37,-39l-234 0 0 -191 193 0c19,0 37,-12 37,-39 0,-25 -18,-38 -37,-38l-193 0 0 -175 234 0c19,0 37,-11 37,-38 0,-26 -18,-39 -37,-39l-275 0c-27,0 -39,19 -39,39l0 519c0,20 12,39 39,39l275 0zm327 -650c78,0 119,-56 119,-115 0,-18 -14,-30 -32,-30 -18,0 -30,12 -32,31 -2,32 -23,55 -55,55 -32,0 -53,-23 -55,-55 -2,-19 -14,-31 -32,-31 -18,0 -31,12 -31,30 0,59 40,115 118,115zm112 620c0,20 11,39 38,39 29,0 40,-19 40,-39l0 -536c0,-21 -12,-39 -41,-39 -16,0 -27,6 -40,29l-227 406 -1 0c1,-16 3,-36 3,-59l0 -337c0,-21 -11,-39 -38,-39 -29,0 -40,18 -40,39l0 536c0,20 12,39 41,39 16,0 27,-6 40,-29l227 -406 1 0c-2,15 -3,36 -3,59l0 337z"/>
   <path class="fil8 str7" d="M7704 9208l-111 -158 106 -138c9,-12 9,-24 -1,-34 -13,-11 -28,-6 -37,5l-108 148 -31 0 0 -134c0,-13 -8,-24 -24,-24 -18,0 -25,11 -25,24l0 325c0,13 7,24 25,24 16,0 24,-11 24,-24l0 -144 31 0 112 158c6,10 19,16 33,6 15,-10 14,-24 6,-34zm295 -311c0,-13 -7,-24 -24,-24 -17,0 -24,11 -24,24l0 129 -137 0 0 -129c0,-13 -6,-24 -24,-24 -17,0 -24,11 -24,24l0 325c0,13 7,24 24,24 17,0 24,-11 24,-24l0 -149 137 0 0 149c0,13 6,24 24,24 17,0 24,-11 24,-24l0 -325zm265 325c0,13 7,24 23,24 18,0 25,-11 25,-24l0 -325c0,-13 -8,-24 -25,-24 -10,0 -17,4 -24,18l-139 246 0 0c1,-9 2,-21 2,-35l0 -205c0,-13 -7,-24 -24,-24 -17,0 -24,11 -24,24l0 325c0,13 7,24 25,24 10,0 16,-4 24,-18l139 -246 0 0c-1,9 -2,22 -2,36l0 204zm153 -344c-19,0 -27,12 -27,24l0 320c0,13 8,24 25,24 17,0 24,-11 24,-24l0 -297 139 0c12,0 23,-7 23,-23 0,-16 -11,-24 -20,-24l-164 0zm343 261l29 91c5,12 17,19 31,15 13,-5 19,-18 15,-30l-105 -324c-4,-12 -10,-18 -24,-18l-3 0c-15,0 -21,6 -24,18l-105 324c-4,12 1,25 15,30 14,4 26,-3 30,-15l29 -91 112 0zm-64 -157c4,-11 5,-17 8,-29l1 0c2,12 4,18 7,29l36 113 -87 0 35 -113zm485 112c0,14 2,28 3,38l0 0 -117 -241c-7,-13 -15,-18 -25,-18 -17,0 -25,11 -25,24l0 325c0,13 7,24 25,24 16,0 23,-11 23,-24l0 -197c0,-14 -2,-28 -3,-37l1 0 117 240c6,13 14,18 24,18 18,0 25,-11 25,-24l0 -325c0,-13 -7,-24 -24,-24 -17,0 -24,11 -24,24l0 197zm131 -112c-15,0 -19,-8 -19,-23l0 -26c0,-14 4,-23 19,-23l8 0c16,0 20,9 20,23l0 26c0,15 -4,23 -20,23l-8 0zm9 35c35,0 52,-24 52,-55l0 -31c0,-32 -17,-55 -52,-55l-9 0c-36,0 -53,23 -53,55l0 31c0,31 17,55 53,55l9 0zm35 61c11,0 19,-5 19,-18 0,-14 -8,-19 -19,-19l-79 0c-11,0 -20,5 -20,19 0,13 9,18 20,18l79 0zm327 -205c-8,0 -14,4 -18,8 -26,28 -54,56 -84,84 -10,9 -13,19 -1,32 12,11 22,7 32,-1 18,-15 38,-35 54,-54l0 252 -65 0c-13,0 -23,7 -23,24 0,16 10,23 23,23l168 0c13,0 23,-7 23,-23 0,-17 -10,-24 -23,-24l-55 0 0 -297c0,-13 -4,-24 -22,-24l-9 0zm409 326c-36,0 -50,-24 -50,-57l0 -165c0,-32 14,-57 50,-57l53 0c22,0 34,9 36,30 1,13 8,24 24,24 18,0 25,-11 25,-24 0,-54 -32,-77 -85,-77l-53 0c-66,0 -98,47 -98,104l0 165c0,57 32,104 98,104l53 0c53,0 85,-23 85,-77 0,-13 -7,-24 -25,-24 -16,0 -23,11 -24,24 -2,22 -14,30 -36,30l-53 0zm374 -274l0 297c0,13 6,24 24,24 17,0 24,-11 24,-24l0 -320c0,-12 -7,-24 -24,-24l-175 0c-16,0 -24,12 -24,24l0 320c0,13 8,24 24,24 18,0 25,-11 25,-24l0 -297 126 0zm313 297c0,13 7,24 24,24 17,0 24,-11 24,-24l0 -325c0,-13 -7,-24 -25,-24 -10,0 -17,4 -24,18l-139 246 0 0c1,-9 2,-21 2,-35l0 -205c0,-13 -7,-24 -23,-24 -18,0 -25,11 -25,24l0 325c0,13 7,24 25,24 10,0 17,-4 24,-18l139 -246 0 0c-1,9 -2,22 -2,36l0 204zm220 -23c-36,0 -50,-24 -50,-57l0 -165c0,-32 14,-57 50,-57l53 0c22,0 34,9 36,30 1,13 7,24 24,24 18,0 25,-11 25,-24 0,-54 -32,-77 -85,-77l-53 0c-66,0 -99,47 -99,104l0 165c0,57 33,104 99,104l53 0c53,0 85,-23 85,-77 0,-13 -7,-24 -25,-24 -17,0 -23,11 -24,24 -2,22 -14,30 -36,30l-53 0zm430 9l-111 -158 105 -138c10,-12 10,-24 -1,-34 -12,-11 -27,-6 -36,5l-109 148 -31 0 0 -134c0,-13 -7,-24 -24,-24 -17,0 -25,11 -25,24l0 325c0,13 8,24 25,24 17,0 24,-11 24,-24l0 -144 32 0 111 158c7,10 20,16 34,6 14,-10 13,-24 6,-34zm220 -69l29 91c4,12 16,19 30,15 13,-5 19,-18 15,-30l-105 -324c-4,-12 -10,-18 -24,-18l-3 0c-14,0 -21,6 -24,18l-105 324c-4,12 2,25 15,30 14,4 26,-3 30,-15l29 -91 113 0zm-65 -157c4,-11 6,-17 8,-29l1 0c2,12 4,18 8,29l35 113 -87 0 35 -113zm511 240c0,13 7,24 23,24 18,0 25,-11 25,-24l0 -325c0,-13 -8,-24 -25,-24 -10,0 -17,4 -25,18l-138 246 -1 0c1,-9 2,-21 2,-35l0 -205c0,-13 -6,-24 -23,-24 -17,0 -24,11 -24,24l0 325c0,13 7,24 25,24 10,0 16,-4 24,-18l138 -246 1 0c-1,9 -2,22 -2,36l0 204zm278 -254c0,31 -22,60 -57,60l-19 0c-12,0 -23,8 -23,23 0,17 11,23 23,23l38 0c36,0 50,29 50,60l0 12c0,32 -11,53 -50,53l-39 0c-20,0 -39,-8 -42,-30 -1,-13 -7,-24 -23,-24 -18,0 -25,11 -25,24 0,49 37,77 89,77l43 0c63,0 96,-43 96,-100l0 -12c0,-43 -20,-80 -60,-90 35,-16 47,-44 47,-76 0,-57 -28,-95 -97,-95l-22 0c-53,0 -89,26 -89,77 0,13 7,24 25,24 16,0 23,-11 24,-24 1,-21 21,-30 44,-30l18 0c35,0 49,14 49,48zm248 54l-75 0 0 -97 132 0c12,0 23,-7 23,-23 0,-16 -11,-24 -23,-24l-156 0c-18,0 -25,12 -25,24l0 315c0,13 7,24 25,24l99 0c67,0 99,-44 99,-101l0 -23c0,-58 -32,-95 -99,-95zm51 124c0,31 -14,48 -50,48l-76 0 0 -129 75 0c36,0 51,18 51,49l0 32zm297 76c0,13 7,24 24,24 17,0 24,-11 24,-24l0 -325c0,-13 -7,-24 -25,-24 -10,0 -16,4 -24,18l-138 246 -1 0c1,-9 2,-21 2,-35l0 -205c0,-13 -7,-24 -23,-24 -18,0 -25,11 -25,24l0 325c0,13 8,24 25,24 10,0 17,-4 25,-18l138 -246 1 0c-1,9 -3,22 -3,36l0 204zm176 -169l0 -129 80 0c36,0 51,18 51,50l0 25c0,32 -15,54 -51,54l-80 0zm80 47c67,0 100,-44 100,-101l0 -25c0,-58 -33,-96 -100,-96l-105 0c-17,0 -24,12 -24,24l0 320c0,13 7,24 24,24 17,0 25,-11 25,-24l0 -122 80 0zm294 39l29 91c4,12 16,19 30,15 14,-5 19,-18 15,-30l-104 -324c-4,-12 -10,-18 -25,-18l-2 0c-15,0 -21,6 -25,18l-104 324c-4,12 1,25 15,30 14,4 26,-3 30,-15l29 -91 112 0zm-64 -157c4,-11 5,-17 8,-29l0 0c3,12 4,18 8,29l35 113 -86 0 35 -113zm247 264c17,0 24,-11 24,-24l0 -297 76 0c12,0 22,-7 22,-23 0,-16 -10,-24 -22,-24l-200 0c-12,0 -23,8 -23,24 0,16 11,23 23,23l75 0 0 297c0,13 8,24 25,24zm359 -5c12,0 23,-7 23,-23 0,-16 -11,-24 -23,-24l-142 0 0 -116 117 0c12,0 23,-7 23,-24 0,-15 -11,-23 -23,-23l-117 0 0 -106 142 0c12,0 23,-7 23,-23 0,-16 -11,-24 -23,-24l-167 0c-17,0 -24,12 -24,24l0 315c0,13 7,24 24,24l167 0zm158 -65c4,-30 31,-251 31,-251l91 0 0 297c0,13 7,24 24,24 17,0 24,-11 24,-24l0 -320c0,-12 -7,-24 -24,-24l-135 0c-15,0 -23,10 -25,24 -1,15 -29,241 -32,262 -1,12 -3,19 -6,25 -5,9 -14,12 -29,12 -12,0 -24,8 -24,24 0,18 12,24 24,24 45,0 64,-15 74,-41 4,-10 6,-19 7,-32zm440 65c12,0 22,-7 22,-23 0,-16 -10,-24 -22,-24l-142 0 0 -116 117 0c12,0 23,-7 23,-24 0,-15 -11,-23 -23,-23l-117 0 0 -106 142 0c12,0 22,-7 22,-23 0,-16 -10,-24 -22,-24l-167 0c-17,0 -24,12 -24,24l0 315c0,13 7,24 24,24l167 0zm199 -395c47,0 72,-34 72,-70 0,-11 -9,-18 -19,-18 -11,0 -19,7 -20,19 -1,19 -14,33 -33,33 -20,0 -32,-14 -34,-33 -1,-12 -8,-19 -19,-19 -11,0 -19,7 -19,18 0,36 25,70 72,70zm68 376c0,13 6,24 23,24 17,0 24,-11 24,-24l0 -325c0,-13 -7,-24 -25,-24 -10,0 -16,4 -24,18l-138 246 -1 0c1,-9 2,-21 2,-35l0 -205c0,-13 -7,-24 -23,-24 -18,0 -24,11 -24,24l0 325c0,13 7,24 24,24 10,0 17,-4 25,-18l138 -246 1 0c-1,9 -2,22 -2,36l0 204z"/>
   <path class="fil8 str7" d="M7362 8060l-111 -158 106 -137c9,-12 9,-25 -1,-34 -13,-12 -28,-6 -37,5l-109 148 -31 0 0 -135c0,-12 -7,-23 -23,-23 -18,0 -25,11 -25,23l0 326c0,12 7,24 25,24 16,0 23,-12 23,-24l0 -145 32 0 111 158c7,11 20,16 34,7 15,-10 14,-24 6,-35zm295 -311c0,-12 -8,-23 -24,-23 -17,0 -25,11 -25,23l0 129 -136 0 0 -129c0,-12 -7,-23 -24,-23 -17,0 -25,11 -25,23l0 326c0,12 8,24 25,24 17,0 24,-12 24,-24l0 -150 136 0 0 150c0,12 7,24 25,24 16,0 24,-12 24,-24l0 -326zm265 326c0,12 7,24 23,24 18,0 25,-12 25,-24l0 -326c0,-12 -8,-23 -25,-23 -10,0 -17,3 -25,17l-138 247 -1 0c1,-9 3,-22 3,-36l0 -205c0,-12 -7,-23 -24,-23 -17,0 -24,11 -24,23l0 326c0,12 7,24 25,24 10,0 16,-4 24,-18l138 -247 1 0c-1,10 -2,22 -2,36l0 205zm153 -344c-19,0 -27,11 -27,24l0 320c0,12 8,24 25,24 17,0 24,-12 24,-24l0 -298 139 0c12,0 23,-6 23,-23 0,-15 -11,-23 -21,-23l-163 0zm343 260l29 91c4,13 16,20 30,15 14,-5 20,-17 15,-29l-104 -325c-4,-11 -10,-17 -25,-17l-2 0c-15,0 -21,6 -25,17l-104 325c-4,12 1,24 15,29 14,5 26,-2 30,-15l29 -91 112 0zm-64 -156c4,-11 5,-17 8,-30l0 0c3,13 4,19 8,30l35 113 -86 0 35 -113zm485 111c0,14 2,29 3,38l0 0 -117 -241c-7,-12 -15,-17 -25,-17 -17,0 -25,11 -25,23l0 326c0,12 7,24 25,24 16,0 23,-12 23,-24l0 -197c0,-14 -2,-29 -3,-38l0 0 117 241c7,13 15,18 25,18 17,0 25,-12 25,-24l0 -326c0,-12 -7,-23 -25,-23 -16,0 -23,11 -23,23l0 197zm131 -111c-15,0 -20,-9 -20,-23l0 -26c0,-15 5,-24 20,-24l8 0c15,0 20,9 20,24l0 26c0,14 -5,23 -20,23l-8 0zm8 35c36,0 53,-24 53,-56l0 -31c0,-31 -17,-55 -53,-55l-8 0c-36,0 -53,24 -53,55l0 31c0,32 17,56 53,56l8 0zm36 61c11,0 19,-5 19,-19 0,-13 -8,-18 -19,-18l-80 0c-11,0 -19,5 -19,18 0,14 8,19 19,19l80 0zm259 75c0,-24 9,-43 26,-50l95 -43c47,-21 57,-57 57,-93l0 -2c0,-59 -33,-92 -101,-92l-31 0c-54,0 -87,22 -87,77 0,14 7,25 25,25 17,0 24,-11 24,-25 0,-21 15,-31 38,-31l31 0c37,0 53,14 53,46l0 2c0,25 -8,40 -29,49l-88 40c-42,17 -61,57 -61,102l0 83 208 0c13,0 23,-7 23,-24 0,-16 -10,-23 -23,-23l-160 0 0 -41zm477 46c-36,0 -50,-25 -50,-57l0 -166c0,-32 14,-57 50,-57l53 0c22,0 34,10 36,31 1,12 7,24 24,24 18,0 25,-12 25,-24 0,-54 -32,-77 -85,-77l-53 0c-66,0 -99,46 -99,103l0 166c0,57 33,104 99,104l53 0c53,0 85,-24 85,-78 0,-12 -7,-23 -25,-23 -17,0 -23,11 -24,23 -2,22 -14,31 -36,31l-53 0zm374 -275l0 298c0,12 6,24 24,24 16,0 24,-12 24,-24l0 -320c0,-13 -8,-24 -24,-24l-175 0c-16,0 -24,11 -24,24l0 320c0,12 8,24 24,24 17,0 25,-12 25,-24l0 -298 126 0zm313 298c0,12 7,24 23,24 18,0 25,-12 25,-24l0 -326c0,-12 -8,-23 -25,-23 -10,0 -17,3 -25,17l-138 247 0 0c1,-9 2,-22 2,-36l0 -205c0,-12 -7,-23 -24,-23 -17,0 -24,11 -24,23l0 326c0,12 7,24 25,24 10,0 16,-4 24,-18l139 -247 0 0c-1,10 -2,22 -2,36l0 205zm220 -23c-36,0 -50,-25 -50,-57l0 -166c0,-32 14,-57 50,-57l53 0c22,0 34,10 36,31 1,12 7,24 24,24 17,0 25,-12 25,-24 0,-54 -33,-77 -85,-77l-53 0c-66,0 -99,46 -99,103l0 166c0,57 33,104 99,104l53 0c52,0 85,-24 85,-78 0,-12 -8,-23 -25,-23 -17,0 -23,11 -24,23 -2,22 -14,31 -36,31l-53 0zm430 8l-112 -158 106 -137c9,-12 9,-25 -1,-34 -12,-12 -27,-6 -36,5l-109 148 -31 0 0 -135c0,-12 -7,-23 -24,-23 -18,0 -25,11 -25,23l0 326c0,12 7,24 25,24 17,0 24,-12 24,-24l0 -145 31 0 112 158c7,11 20,16 34,7 14,-10 13,-24 6,-35zm219 -69l30 91c4,13 16,20 30,15 13,-5 19,-17 15,-29l-105 -325c-4,-11 -10,-17 -24,-17l-3 0c-15,0 -21,6 -24,17l-105 325c-4,12 2,24 15,29 14,5 26,-2 30,-15l29 -91 112 0zm-64 -156c4,-11 5,-17 8,-30l1 0c2,13 4,19 7,30l36 113 -87 0 35 -113zm511 240c0,12 6,24 23,24 18,0 24,-12 24,-24l0 -326c0,-12 -7,-23 -25,-23 -9,0 -16,3 -24,17l-138 247 -1 0c1,-9 2,-22 2,-36l0 -205c0,-12 -6,-23 -23,-23 -18,0 -24,11 -24,23l0 326c0,12 7,24 24,24 10,0 17,-4 25,-18l138 -247 1 0c-1,10 -2,22 -2,36l0 205zm277 -254c0,31 -21,60 -57,60l-18 0c-12,0 -23,8 -23,23 0,16 11,23 23,23l38 0c36,0 50,28 50,60l0 12c0,32 -12,53 -50,53l-39 0c-21,0 -40,-9 -42,-31 -1,-12 -7,-23 -24,-23 -17,0 -24,11 -24,23 0,50 36,78 89,78l43 0c63,0 96,-43 96,-100l0 -12c0,-43 -21,-81 -61,-90 36,-16 48,-44 48,-76 0,-57 -28,-95 -97,-95l-23 0c-52,0 -88,26 -88,77 0,12 7,24 25,24 16,0 23,-12 23,-24 2,-21 22,-31 45,-31l18 0c35,0 48,15 48,49zm249 53l-76 0 0 -97 133 0c11,0 22,-6 22,-23 0,-15 -11,-23 -22,-23l-156 0c-18,0 -25,11 -25,24l0 315c0,12 7,24 25,24l99 0c66,0 99,-44 99,-101l0 -23c0,-58 -33,-96 -99,-96zm50 124c0,31 -14,49 -49,49l-77 0 0 -129 76 0c35,0 50,18 50,49l0 31zm298 77c0,12 7,24 24,24 17,0 24,-12 24,-24l0 -326c0,-12 -7,-23 -25,-23 -10,0 -16,3 -24,17l-139 247 0 0c1,-9 2,-22 2,-36l0 -205c0,-12 -7,-23 -23,-23 -18,0 -25,11 -25,23l0 326c0,12 8,24 25,24 10,0 17,-4 24,-18l139 -247 0 0c-1,10 -2,22 -2,36l0 205zm175 -169l0 -129 81 0c36,0 51,18 51,49l0 26c0,32 -15,54 -51,54l-81 0zm81 47c67,0 100,-44 100,-101l0 -26c0,-58 -33,-95 -100,-95l-105 0c-17,0 -24,11 -24,24l0 320c0,12 7,24 24,24 17,0 24,-12 24,-24l0 -122 81 0zm294 38l29 91c4,13 16,20 30,15 14,-5 19,-17 15,-29l-105 -325c-3,-11 -9,-17 -24,-17l-2 0c-15,0 -21,6 -25,17l-104 325c-5,12 1,24 15,29 14,5 25,-2 30,-15l29 -91 112 0zm-64 -156c3,-11 5,-17 8,-30l0 0c3,13 4,19 8,30l35 113 -86 0 35 -113zm246 264c18,0 25,-12 25,-24l0 -298 75 0c12,0 23,-6 23,-23 0,-15 -11,-23 -23,-23l-200 0c-11,0 -22,8 -22,23 0,17 11,23 22,23l76 0 0 298c0,12 7,24 24,24zm360 -5c11,0 22,-7 22,-24 0,-15 -11,-23 -22,-23l-142 0 0 -117 117 0c12,0 22,-6 22,-23 0,-16 -10,-23 -22,-23l-117 0 0 -107 142 0c11,0 22,-6 22,-23 0,-15 -11,-23 -22,-23l-167 0c-17,0 -24,11 -24,24l0 315c0,12 7,24 24,24l167 0zm158 -66c4,-29 31,-251 31,-251l90 0 0 298c0,12 8,24 25,24 17,0 24,-12 24,-24l0 -320c0,-13 -7,-24 -24,-24l-135 0c-15,0 -23,10 -25,24 -1,15 -29,241 -32,261 -2,12 -3,20 -6,25 -5,10 -14,13 -29,13 -13,0 -24,7 -24,24 0,18 11,23 24,23 45,0 63,-14 74,-40 3,-10 6,-19 7,-33zm439 66c12,0 23,-7 23,-24 0,-15 -11,-23 -23,-23l-141 0 0 -117 117 0c12,0 22,-6 22,-23 0,-16 -10,-23 -22,-23l-117 0 0 -107 141 0c12,0 23,-6 23,-23 0,-15 -11,-23 -23,-23l-166 0c-17,0 -24,11 -24,24l0 315c0,12 7,24 24,24l166 0zm199 -396c48,0 72,-34 72,-69 0,-11 -8,-18 -19,-18 -11,0 -18,7 -19,18 -1,19 -14,33 -34,33 -19,0 -32,-14 -33,-33 -1,-11 -9,-18 -19,-18 -11,0 -20,7 -20,18 0,35 25,69 72,69zm68 377c0,12 7,24 24,24 17,0 24,-12 24,-24l0 -326c0,-12 -7,-23 -25,-23 -10,0 -16,3 -24,17l-139 247 0 0c1,-9 2,-22 2,-36l0 -205c0,-12 -7,-23 -23,-23 -18,0 -25,11 -25,23l0 326c0,12 8,24 25,24 10,0 17,-4 25,-18l138 -247 0 0c-1,10 -2,22 -2,36l0 205z"/>
   <path class="fil8 str7" d="M7020 6913l-111 -158 105 -137c10,-12 10,-25 -1,-35 -12,-11 -27,-5 -36,6l-109 147 -31 0 0 -134c0,-12 -7,-24 -24,-24 -17,0 -25,12 -25,24l0 325c0,13 8,24 25,24 17,0 24,-11 24,-24l0 -144 32 0 111 158c7,10 20,16 34,7 14,-11 13,-25 6,-35zm295 -311c0,-12 -8,-24 -24,-24 -18,0 -25,12 -25,24l0 129 -136 0 0 -129c0,-12 -7,-24 -24,-24 -17,0 -25,12 -25,24l0 325c0,13 8,24 25,24 17,0 24,-11 24,-24l0 -149 136 0 0 149c0,13 7,24 25,24 16,0 24,-11 24,-24l0 -325zm265 325c0,13 6,24 23,24 18,0 24,-11 24,-24l0 -325c0,-12 -7,-24 -25,-24 -9,0 -16,4 -24,18l-138 246 -1 0c1,-9 2,-21 2,-35l0 -205c0,-12 -6,-24 -23,-24 -18,0 -24,12 -24,24l0 325c0,13 7,24 25,24 9,0 16,-3 24,-17l138 -247 1 0c-1,9 -2,22 -2,36l0 204zm153 -344c-19,0 -27,12 -27,24l0 320c0,13 8,24 24,24 18,0 25,-11 25,-24l0 -297 139 0c12,0 22,-7 22,-23 0,-16 -10,-24 -20,-24l-163 0zm343 261l29 91c4,12 16,19 30,15 14,-5 19,-17 15,-30l-105 -324c-3,-12 -9,-18 -24,-18l-2 0c-15,0 -21,6 -25,18l-104 324c-5,13 1,25 15,30 14,4 25,-3 30,-15l29 -91 112 0zm-64 -156c3,-12 5,-18 8,-30l0 0c3,12 4,18 8,30l35 113 -86 0 35 -113zm485 111c0,14 2,28 3,38l-1 0 -117 -241c-6,-13 -14,-18 -24,-18 -18,0 -25,12 -25,24l0 325c0,13 7,24 24,24 17,0 24,-11 24,-24l0 -196c0,-14 -2,-29 -3,-38l0 0 117 241c6,12 15,17 25,17 17,0 24,-11 24,-24l0 -325c0,-12 -6,-24 -24,-24 -16,0 -23,12 -23,24l0 197zm131 -111c-16,0 -20,-9 -20,-24l0 -26c0,-14 4,-23 20,-23l8 0c15,0 19,9 19,23l0 26c0,15 -4,24 -19,24l-8 0zm8 34c36,0 53,-24 53,-55l0 -31c0,-32 -17,-55 -53,-55l-9 0c-35,0 -52,23 -52,55l0 31c0,31 17,55 52,55l9 0zm36 61c11,0 19,-5 19,-18 0,-14 -8,-19 -19,-19l-80 0c-11,0 -19,5 -19,19 0,13 8,18 19,18l80 0zm440 53c0,-43 -17,-76 -56,-88 25,-14 39,-37 39,-70l0 -7c0,-60 -34,-93 -101,-93l-28 0c-53,0 -86,23 -86,78 0,13 6,24 24,24 18,0 24,-11 24,-24 0,-22 15,-31 38,-31l28 0c37,0 52,14 52,46l0 7c0,32 -19,56 -56,56l-30 0c-13,0 -23,6 -23,22 0,17 10,23 23,23l53 0c37,0 51,24 51,57l0 17c0,33 -16,52 -53,52l-55 0c-23,0 -38,-10 -38,-31 0,-14 -7,-25 -24,-25 -18,0 -25,11 -25,25 0,54 34,77 87,77l55 0c68,0 101,-38 101,-98l0 -17zm296 69c-36,0 -50,-25 -50,-57l0 -166c0,-32 14,-57 50,-57l53 0c22,0 34,9 36,30 1,13 7,24 24,24 17,0 25,-11 25,-24 0,-53 -33,-77 -85,-77l-53 0c-66,0 -99,47 -99,104l0 166c0,57 33,103 99,103l53 0c52,0 85,-23 85,-77 0,-12 -8,-24 -25,-24 -17,0 -23,12 -24,24 -2,22 -14,31 -36,31l-53 0zm373 -275l0 297c0,13 7,24 25,24 16,0 24,-11 24,-24l0 -320c0,-12 -8,-24 -24,-24l-175 0c-17,0 -24,12 -24,24l0 320c0,13 7,24 24,24 17,0 24,-11 24,-24l0 -297 126 0zm314 297c0,13 7,24 23,24 18,0 24,-11 24,-24l0 -325c0,-12 -7,-24 -24,-24 -10,0 -17,4 -25,18l-138 246 -1 0c1,-9 2,-21 2,-35l0 -205c0,-12 -6,-24 -23,-24 -17,0 -24,12 -24,24l0 325c0,13 7,24 25,24 10,0 16,-3 24,-17l138 -247 1 0c-1,9 -2,22 -2,36l0 204zm220 -22c-36,0 -50,-25 -50,-57l0 -166c0,-32 14,-57 50,-57l52 0c23,0 35,9 37,30 1,13 7,24 23,24 18,0 25,-11 25,-24 0,-53 -32,-77 -85,-77l-52 0c-66,0 -99,47 -99,104l0 166c0,57 33,103 99,103l52 0c53,0 85,-23 85,-77 0,-12 -7,-24 -25,-24 -16,0 -22,12 -23,24 -2,22 -14,31 -37,31l-52 0zm430 8l-112 -158 106 -137c9,-12 9,-25 -1,-35 -13,-11 -28,-5 -36,6l-109 147 -31 0 0 -134c0,-12 -8,-24 -24,-24 -18,0 -25,12 -25,24l0 325c0,13 7,24 25,24 16,0 24,-11 24,-24l0 -144 31 0 112 158c6,10 19,16 33,7 15,-11 14,-25 7,-35zm219 -69l29 91c4,12 16,19 30,15 14,-5 20,-17 15,-30l-104 -324c-4,-12 -10,-18 -25,-18l-2 0c-15,0 -21,6 -25,18l-104 324c-4,13 1,25 15,30 14,4 26,-3 30,-15l29 -91 112 0zm-64 -156c4,-12 5,-18 8,-30l0 0c3,12 4,18 8,30l35 113 -86 0 35 -113zm510 239c0,13 7,24 24,24 17,0 24,-11 24,-24l0 -325c0,-12 -7,-24 -25,-24 -10,0 -16,4 -24,18l-138 246 -1 0c1,-9 2,-21 2,-35l0 -205c0,-12 -7,-24 -23,-24 -18,0 -25,12 -25,24l0 325c0,13 8,24 25,24 10,0 17,-3 25,-17l138 -247 1 0c-2,9 -3,22 -3,36l0 204zm278 -253c0,31 -22,60 -57,60l-18 0c-12,0 -23,7 -23,22 0,17 11,23 23,23l38 0c36,0 50,29 50,60l0 12c0,32 -12,54 -51,54l-39 0c-20,0 -39,-9 -41,-31 -1,-12 -7,-24 -24,-24 -17,0 -25,12 -25,24 0,49 37,77 90,77l43 0c63,0 95,-43 95,-100l0 -12c0,-43 -20,-80 -60,-90 35,-15 48,-44 48,-75 0,-57 -28,-96 -97,-96l-23 0c-53,0 -88,27 -88,77 0,13 7,24 24,24 17,0 24,-11 24,-24 1,-20 22,-30 44,-30l19 0c35,0 48,14 48,49zm248 53l-75 0 0 -97 132 0c12,0 23,-7 23,-23 0,-16 -11,-24 -23,-24l-156 0c-17,0 -24,12 -24,24l0 315c0,13 7,24 24,24l99 0c67,0 100,-43 100,-100l0 -24c0,-58 -33,-95 -100,-95zm51 124c0,31 -14,48 -50,48l-76 0 0 -129 75 0c36,0 51,19 51,50l0 31zm298 76c0,13 7,24 23,24 18,0 25,-11 25,-24l0 -325c0,-12 -7,-24 -25,-24 -10,0 -17,4 -24,18l-139 246 0 0c1,-9 2,-21 2,-35l0 -205c0,-12 -7,-24 -24,-24 -17,0 -24,12 -24,24l0 325c0,13 7,24 25,24 10,0 17,-3 24,-17l139 -247 0 0c-1,9 -2,22 -2,36l0 204zm175 -168l0 -129 81 0c36,0 51,18 51,49l0 26c0,31 -15,54 -51,54l-81 0zm81 46c67,0 100,-43 100,-100l0 -26c0,-58 -33,-96 -100,-96l-106 0c-16,0 -23,12 -23,24l0 320c0,13 7,24 24,24 17,0 24,-11 24,-24l0 -122 81 0zm294 39l29 91c4,12 16,19 30,15 13,-5 19,-17 15,-30l-105 -324c-3,-12 -10,-18 -24,-18l-3 0c-14,0 -20,6 -24,18l-105 324c-4,13 2,25 15,30 14,4 26,-3 30,-15l29 -91 113 0zm-64 -156c3,-12 5,-18 7,-30l1 0c2,12 4,18 8,30l35 113 -87 0 36 -113zm246 263c17,0 25,-11 25,-24l0 -297 75 0c12,0 23,-7 23,-23 0,-16 -11,-24 -23,-24l-200 0c-12,0 -23,8 -23,24 0,16 11,23 23,23l76 0 0 297c0,13 7,24 24,24zm359 -5c12,0 23,-7 23,-23 0,-16 -11,-24 -23,-24l-142 0 0 -116 117 0c12,0 23,-7 23,-23 0,-16 -11,-24 -23,-24l-117 0 0 -106 142 0c12,0 23,-7 23,-23 0,-16 -11,-24 -23,-24l-167 0c-16,0 -23,12 -23,24l0 315c0,13 7,24 23,24l167 0zm159 -65c4,-30 30,-251 30,-251l91 0 0 297c0,13 7,24 25,24 17,0 24,-11 24,-24l0 -320c0,-12 -7,-24 -24,-24l-135 0c-15,0 -24,10 -25,24 -2,15 -30,242 -32,262 -2,12 -3,20 -6,25 -6,10 -14,12 -29,12 -13,0 -24,8 -24,25 0,17 11,23 24,23 45,0 63,-15 74,-41 3,-9 5,-19 7,-32zm439 65c12,0 23,-7 23,-23 0,-16 -11,-24 -23,-24l-142 0 0 -116 117 0c12,0 23,-7 23,-23 0,-16 -11,-24 -23,-24l-117 0 0 -106 142 0c12,0 23,-7 23,-23 0,-16 -11,-24 -23,-24l-167 0c-16,0 -23,12 -23,24l0 315c0,13 7,24 23,24l167 0zm199 -395c47,0 72,-34 72,-70 0,-11 -8,-18 -19,-18 -11,0 -18,7 -19,19 -2,19 -14,33 -34,33 -19,0 -32,-14 -33,-33 -1,-12 -9,-19 -20,-19 -10,0 -19,7 -19,18 0,36 25,70 72,70zm68 376c0,13 7,24 23,24 18,0 25,-11 25,-24l0 -325c0,-12 -7,-24 -25,-24 -10,0 -17,4 -24,18l-139 246 0 0c1,-9 2,-21 2,-35l0 -205c0,-12 -7,-24 -24,-24 -17,0 -24,12 -24,24l0 325c0,13 7,24 25,24 10,0 17,-3 24,-17l139 -247 0 0c-1,9 -2,22 -2,36l0 204z"/>
   <path class="fil8 str7" d="M6678 5766l-112 -158 106 -138c9,-12 9,-25 -1,-34 -12,-11 -27,-6 -36,5l-109 148 -31 0 0 -134c0,-13 -7,-24 -24,-24 -18,0 -25,11 -25,24l0 325c0,12 7,24 25,24 17,0 24,-12 24,-24l0 -145 32 0 111 159c7,10 20,16 34,6 14,-10 13,-24 6,-34zm295 -311c0,-13 -8,-24 -25,-24 -17,0 -24,11 -24,24l0 129 -136 0 0 -129c0,-13 -7,-24 -25,-24 -16,0 -24,11 -24,24l0 325c0,12 8,24 24,24 17,0 25,-12 25,-24l0 -150 136 0 0 150c0,12 7,24 24,24 17,0 25,-12 25,-24l0 -325zm264 325c0,12 7,24 24,24 17,0 24,-12 24,-24l0 -325c0,-13 -7,-24 -25,-24 -10,0 -16,3 -24,17l-138 247 -1 0c1,-9 2,-22 2,-36l0 -204c0,-13 -7,-24 -23,-24 -18,0 -25,11 -25,24l0 325c0,12 8,24 25,24 10,0 17,-4 25,-18l138 -246 1 0c-2,9 -3,21 -3,35l0 205zm154 -344c-19,0 -27,11 -27,24l0 320c0,12 8,24 24,24 17,0 25,-12 25,-24l0 -297 138 0c12,0 23,-7 23,-24 0,-15 -11,-23 -20,-23l-163 0zm343 261l29 90c4,13 16,20 30,15 13,-4 19,-17 15,-29l-105 -325c-3,-11 -10,-17 -24,-17l-3 0c-14,0 -20,6 -24,17l-105 325c-4,12 2,25 15,29 14,5 26,-2 30,-15l29 -90 113 0zm-64 -157c3,-11 5,-17 7,-29l1 0c2,12 4,18 8,29l35 113 -87 0 36 -113zm485 112c0,14 2,28 3,37l-1 0 -117 -241c-6,-12 -14,-17 -24,-17 -18,0 -25,11 -25,24l0 325c0,12 7,24 24,24 17,0 24,-12 24,-24l0 -197c0,-14 -3,-28 -4,-38l1 0 117 241c6,13 15,18 24,18 18,0 25,-12 25,-24l0 -325c0,-13 -6,-24 -24,-24 -17,0 -23,11 -23,24l0 197zm131 -112c-16,0 -20,-9 -20,-23l0 -26c0,-15 4,-23 20,-23l7 0c16,0 20,8 20,23l0 26c0,14 -4,23 -20,23l-7 0zm8 35c36,0 53,-24 53,-56l0 -31c0,-31 -17,-55 -53,-55l-9 0c-36,0 -53,24 -53,55l0 31c0,32 17,56 53,56l9 0zm36 61c11,0 18,-5 18,-19 0,-13 -7,-18 -18,-18l-80 0c-11,0 -19,5 -19,18 0,14 8,19 19,19l80 0zm362 144c0,13 6,24 24,24 17,0 24,-11 24,-24l0 -84 26 0c13,0 23,-7 23,-24 0,-16 -10,-23 -23,-23l-26 0 0 -101c0,-13 -7,-24 -24,-24 -18,0 -24,11 -24,24l0 101 -113 0c26,-59 48,-132 59,-196 2,-13 1,-26 -15,-30 -16,-5 -27,3 -30,17 -16,83 -40,153 -67,215 -3,7 -3,12 -3,18 0,16 10,23 23,23l146 0 0 84zm374 -23c-36,0 -50,-25 -50,-57l0 -166c0,-32 14,-57 50,-57l52 0c23,0 35,10 37,31 1,12 7,24 23,24 18,0 25,-12 25,-24 0,-54 -32,-77 -85,-77l-52 0c-66,0 -99,46 -99,103l0 166c0,57 33,104 99,104l52 0c53,0 85,-23 85,-77 0,-13 -7,-24 -25,-24 -16,0 -22,11 -23,24 -2,21 -14,30 -37,30l-52 0zm373 -274l0 297c0,12 7,24 24,24 17,0 25,-12 25,-24l0 -320c0,-13 -8,-24 -25,-24l-174 0c-17,0 -24,11 -24,24l0 320c0,12 7,24 24,24 17,0 24,-12 24,-24l0 -297 126 0zm314 297c0,12 6,24 23,24 18,0 24,-12 24,-24l0 -325c0,-13 -7,-24 -25,-24 -9,0 -16,3 -24,17l-138 247 -1 0c1,-9 2,-22 2,-36l0 -204c0,-13 -6,-24 -23,-24 -18,0 -24,11 -24,24l0 325c0,12 7,24 24,24 10,0 17,-4 25,-18l138 -246 1 0c-1,9 -2,21 -2,35l0 205zm219 -23c-35,0 -49,-25 -49,-57l0 -166c0,-32 14,-57 49,-57l53 0c22,0 34,10 36,31 1,12 8,24 24,24 18,0 25,-12 25,-24 0,-54 -32,-77 -85,-77l-53 0c-65,0 -98,46 -98,103l0 166c0,57 33,104 98,104l53 0c53,0 85,-23 85,-77 0,-13 -7,-24 -25,-24 -16,0 -23,11 -24,24 -2,21 -14,30 -36,30l-53 0zm430 9l-111 -158 106 -138c9,-12 9,-25 -1,-34 -13,-11 -28,-6 -37,5l-108 148 -32 0 0 -134c0,-13 -7,-24 -23,-24 -18,0 -25,11 -25,24l0 325c0,12 7,24 25,24 16,0 23,-12 23,-24l0 -145 32 0 111 159c7,10 20,16 34,6 15,-10 14,-24 6,-34zm220 -69l29 90c4,13 16,20 30,15 14,-4 19,-17 15,-29l-104 -325c-4,-11 -10,-17 -25,-17l-2 0c-15,0 -21,6 -25,17l-104 325c-5,12 1,25 15,29 14,5 25,-2 30,-15l29 -90 112 0zm-64 -157c3,-11 5,-17 8,-29l0 0c3,12 4,18 8,29l35 113 -86 0 35 -113zm510 240c0,12 7,24 24,24 17,0 24,-12 24,-24l0 -325c0,-13 -7,-24 -25,-24 -10,0 -17,3 -24,17l-139 247 0 0c1,-9 2,-22 2,-36l0 -204c0,-13 -7,-24 -23,-24 -18,0 -25,11 -25,24l0 325c0,12 7,24 25,24 10,0 17,-4 24,-18l139 -246 0 0c-1,9 -2,21 -2,35l0 205zm278 -254c0,31 -22,60 -57,60l-19 0c-12,0 -22,8 -22,23 0,17 10,23 22,23l39 0c35,0 49,28 49,60l0 12c0,32 -11,53 -50,53l-39 0c-20,0 -39,-9 -41,-30 -1,-13 -7,-24 -24,-24 -18,0 -25,11 -25,24 0,49 37,77 90,77l43 0c62,0 95,-43 95,-100l0 -12c0,-43 -20,-80 -60,-90 35,-16 48,-44 48,-76 0,-57 -28,-95 -97,-95l-23 0c-53,0 -89,26 -89,77 0,12 8,24 25,24 17,0 24,-12 24,-24 1,-21 22,-31 44,-31l19 0c34,0 48,15 48,49zm248 54l-75 0 0 -97 132 0c12,0 23,-7 23,-24 0,-15 -11,-23 -23,-23l-156 0c-17,0 -25,11 -25,24l0 315c0,12 8,24 25,24l99 0c67,0 100,-44 100,-101l0 -23c0,-58 -33,-95 -100,-95zm51 123c0,31 -14,49 -50,49l-76 0 0 -129 75 0c36,0 51,18 51,49l0 31zm298 77c0,12 7,24 23,24 18,0 25,-12 25,-24l0 -325c0,-13 -8,-24 -25,-24 -10,0 -17,3 -25,17l-138 247 -1 0c1,-9 3,-22 3,-36l0 -204c0,-13 -7,-24 -24,-24 -17,0 -24,11 -24,24l0 325c0,12 7,24 25,24 10,0 16,-4 24,-18l138 -246 1 0c-1,9 -2,21 -2,35l0 205zm175 -169l0 -129 81 0c36,0 51,18 51,49l0 26c0,32 -15,54 -51,54l-81 0zm81 47c67,0 99,-44 99,-101l0 -26c0,-58 -32,-95 -99,-95l-106 0c-16,0 -24,11 -24,24l0 320c0,12 8,24 25,24 17,0 24,-12 24,-24l0 -122 81 0zm294 39l29 90c4,13 16,20 30,15 13,-4 19,-17 15,-29l-105 -325c-4,-11 -10,-17 -24,-17l-3 0c-14,0 -21,6 -24,17l-105 325c-4,12 2,25 15,29 14,5 26,-2 30,-15l29 -90 113 0zm-65 -157c4,-11 6,-17 8,-29l1 0c2,12 4,18 7,29l36 113 -87 0 35 -113zm247 264c17,0 24,-12 24,-24l0 -297 76 0c12,0 23,-7 23,-24 0,-15 -11,-23 -23,-23l-200 0c-12,0 -23,8 -23,23 0,17 11,24 23,24l76 0 0 297c0,12 7,24 24,24zm359 -5c12,0 23,-7 23,-24 0,-15 -11,-23 -23,-23l-142 0 0 -117 117 0c12,0 23,-6 23,-23 0,-15 -11,-23 -23,-23l-117 0 0 -106 142 0c12,0 23,-7 23,-24 0,-15 -11,-23 -23,-23l-167 0c-16,0 -24,11 -24,24l0 315c0,12 8,24 24,24l167 0zm159 -66c3,-29 30,-250 30,-250l91 0 0 297c0,12 7,24 25,24 16,0 24,-12 24,-24l0 -320c0,-13 -8,-24 -24,-24l-135 0c-15,0 -24,10 -25,24 -2,15 -30,241 -32,262 -2,11 -4,19 -7,24 -5,10 -14,13 -29,13 -12,0 -24,8 -24,24 0,18 12,23 24,23 45,0 64,-14 74,-40 4,-10 6,-19 8,-33zm439 66c12,0 23,-7 23,-24 0,-15 -11,-23 -23,-23l-142 0 0 -117 117 0c12,0 23,-6 23,-23 0,-15 -11,-23 -23,-23l-117 0 0 -106 142 0c12,0 23,-7 23,-24 0,-15 -11,-23 -23,-23l-167 0c-16,0 -24,11 -24,24l0 315c0,12 8,24 24,24l167 0zm199 -396c47,0 72,-33 72,-69 0,-11 -8,-18 -19,-18 -11,0 -18,7 -19,18 -2,20 -14,34 -34,34 -20,0 -32,-14 -34,-34 -1,-11 -8,-18 -19,-18 -11,0 -19,7 -19,18 0,36 25,69 72,69zm68 377c0,12 7,24 23,24 18,0 25,-12 25,-24l0 -325c0,-13 -8,-24 -25,-24 -10,0 -17,3 -25,17l-138 247 0 0c1,-9 2,-22 2,-36l0 -204c0,-13 -7,-24 -24,-24 -17,0 -24,11 -24,24l0 325c0,12 7,24 25,24 10,0 16,-4 24,-18l138 -246 1 0c-1,9 -2,21 -2,35l0 205z"/>
   <path class="fil9 str0" d="M4382 10699c0,-2568 0,-4289 0,-6857l10286 0"/>
   <path class="fil8 str7" d="M5613 4633c0,12 7,23 23,23 18,0 24,-11 24,-23l0 -326c0,-12 -7,-24 -24,-24 -10,0 -17,4 -25,18l-138 247 -1 0c1,-10 2,-22 2,-36l0 -205c0,-12 -6,-24 -23,-24 -17,0 -24,12 -24,24l0 326c0,12 7,23 25,23 10,0 16,-3 24,-17l138 -247 1 0c-1,10 -2,22 -2,36l0 205zm216 23c17,0 24,-11 24,-23l0 -298 76 0c12,0 23,-6 23,-23 0,-16 -11,-23 -23,-23l-200 0c-12,0 -23,7 -23,23 0,17 11,23 23,23l76 0 0 298c0,12 7,23 24,23zm199 -269c0,-32 14,-57 50,-57l41 0c36,0 50,25 50,57l0 166c0,32 -14,57 -50,57l-41 0c-36,0 -50,-25 -50,-57l0 -166zm190 0c0,-57 -33,-104 -99,-104l-41 0c-66,0 -99,47 -99,104l0 166c0,57 33,103 99,103l41 0c66,0 99,-46 99,-103l0 -166zm100 -98c-19,0 -27,11 -27,23l0 321c0,12 8,23 24,23 18,0 25,-11 25,-23l0 -298 139 0c12,0 22,-6 22,-23 0,-16 -10,-23 -20,-23l-163 0zm273 98c0,-32 14,-57 50,-57l41 0c36,0 50,25 50,57l0 166c0,32 -14,57 -50,57l-41 0c-36,0 -50,-25 -50,-57l0 -166zm190 0c0,-57 -33,-104 -99,-104l-41 0c-66,0 -99,47 -99,104l0 166c0,57 33,103 99,103l41 0c66,0 99,-46 99,-103l0 -166zm122 103l85 0c36,0 50,23 50,55l0 11c0,31 -14,49 -50,49l-85 0 0 -115zm0 -46l0 -109 63 0c35,0 49,13 49,44l0 12c0,31 -14,53 -49,53l-63 0zm183 101c0,-43 -19,-73 -57,-85 23,-14 35,-37 35,-69l0 -12c0,-58 -33,-90 -98,-90l-87 0c-17,0 -25,11 -25,23l0 315c0,13 8,24 25,24l109 0c66,0 98,-37 98,-95l0 -11zm369 88l0 -326c0,-12 -7,-24 -24,-24 -17,0 -24,12 -24,24l0 326c0,12 6,23 24,23 16,0 24,-11 24,-23zm-192 -204l-65 0 0 -122c0,-12 -7,-24 -24,-24 -17,0 -24,12 -24,24l0 320c0,13 7,24 25,24l88 0c66,0 99,-43 99,-100l0 -24c0,-58 -31,-98 -99,-98zm50 127c0,31 -14,49 -49,49l-66 0 0 -129 65 0c35,0 50,18 50,49l0 31zm339 -300c47,0 72,-34 72,-69 0,-11 -8,-19 -19,-19 -11,0 -19,8 -20,19 -1,19 -14,33 -33,33 -20,0 -32,-14 -34,-33 -1,-11 -8,-19 -19,-19 -11,0 -19,8 -19,19 0,35 25,69 72,69zm68 377c0,12 6,23 23,23 18,0 24,-11 24,-23l0 -326c0,-12 -7,-24 -25,-24 -9,0 -16,4 -24,18l-138 247 -1 0c1,-10 2,-22 2,-36l0 -205c0,-12 -6,-24 -23,-24 -18,0 -24,12 -24,24l0 326c0,12 7,23 25,23 9,0 16,-3 24,-17l138 -247 1 0c-1,10 -2,22 -2,36l0 205zm337 -47c4,-30 31,-251 31,-251l91 0 0 298c0,12 7,23 25,23 16,0 23,-11 23,-23l0 -321c0,-12 -7,-23 -23,-23l-136 0c-15,0 -23,9 -24,23 -2,15 -30,242 -33,262 -1,12 -3,20 -6,25 -5,10 -14,12 -29,12 -12,0 -24,8 -24,25 0,17 12,23 24,23 45,0 64,-14 74,-40 4,-10 6,-20 7,-33zm435 47c0,12 7,23 24,23 17,0 24,-11 24,-23l0 -326c0,-12 -7,-24 -25,-24 -10,0 -17,4 -24,18l-139 247 0 0c1,-10 2,-22 2,-36l0 -205c0,-12 -7,-24 -23,-24 -18,0 -25,12 -25,24l0 326c0,12 7,23 25,23 10,0 17,-3 24,-17l139 -247 0 0c-1,10 -2,22 -2,36l0 205zm220 -23c-36,0 -50,-25 -50,-57l0 -166c0,-32 14,-57 50,-57l53 0c22,0 34,9 36,31 1,12 7,23 24,23 18,0 25,-11 25,-23 0,-54 -32,-78 -85,-78l-53 0c-66,0 -99,47 -99,104l0 166c0,57 33,103 99,103l53 0c53,0 85,-23 85,-77 0,-12 -7,-24 -25,-24 -17,0 -23,12 -24,24 -2,22 -14,31 -36,31l-53 0zm289 46c17,0 24,-11 24,-23l0 -298 76 0c11,0 22,-6 22,-23 0,-16 -11,-23 -22,-23l-200 0c-12,0 -23,7 -23,23 0,17 11,23 23,23l75 0 0 298c0,12 7,23 25,23zm400 -46c-36,0 -50,-25 -50,-57l0 -166c0,-32 14,-57 50,-57l53 0c22,0 34,9 36,31 1,12 7,23 24,23 18,0 25,-11 25,-23 0,-54 -32,-78 -85,-78l-53 0c-66,0 -98,47 -98,104l0 166c0,57 32,103 98,103l53 0c53,0 85,-23 85,-77 0,-12 -7,-24 -25,-24 -17,0 -23,12 -24,24 -2,22 -14,31 -36,31l-53 0zm374 -275l0 298c0,12 6,23 24,23 17,0 24,-11 24,-23l0 -321c0,-12 -7,-23 -24,-23l-175 0c-16,0 -24,11 -24,23l0 321c0,12 8,23 24,23 18,0 25,-11 25,-23l0 -298 126 0zm313 298c0,12 7,23 23,23 18,0 25,-11 25,-23l0 -326c0,-12 -7,-24 -25,-24 -10,0 -17,4 -24,18l-139 247 0 0c1,-10 2,-22 2,-36l0 -205c0,-12 -7,-24 -24,-24 -17,0 -24,12 -24,24l0 326c0,12 7,23 25,23 10,0 17,-3 24,-17l139 -247 0 0c-1,10 -2,22 -2,36l0 205zm220 -23c-36,0 -50,-25 -50,-57l0 -166c0,-32 14,-57 50,-57l53 0c22,0 34,9 36,31 1,12 7,23 24,23 17,0 25,-11 25,-23 0,-54 -32,-78 -85,-78l-53 0c-66,0 -99,47 -99,104l0 166c0,57 33,103 99,103l53 0c53,0 85,-23 85,-77 0,-12 -8,-24 -25,-24 -17,0 -23,12 -24,24 -2,22 -14,31 -36,31l-53 0zm430 8l-111 -158 105 -137c10,-12 10,-25 -1,-34 -12,-12 -27,-6 -36,5l-109 147 -31 0 0 -134c0,-12 -7,-24 -24,-24 -17,0 -25,12 -25,24l0 326c0,12 8,23 25,23 17,0 24,-11 24,-23l0 -145 32 0 111 158c7,10 20,16 34,7 14,-10 13,-24 6,-35zm220 -69l29 91c4,12 16,20 30,15 13,-5 19,-17 15,-30l-105 -324c-4,-11 -10,-18 -24,-18l-3 0c-14,0 -21,7 -24,18l-105 324c-4,13 2,25 15,30 14,5 26,-3 30,-15l29 -91 113 0zm-65 -156c4,-12 6,-17 8,-30l1 0c2,13 4,18 7,30l36 113 -87 0 35 -113zm511 240c0,12 7,23 23,23 18,0 24,-11 24,-23l0 -326c0,-12 -7,-24 -24,-24 -10,0 -17,4 -25,18l-138 247 -1 0c1,-10 2,-22 2,-36l0 -205c0,-12 -6,-24 -23,-24 -18,0 -24,12 -24,24l0 326c0,12 7,23 25,23 9,0 16,-3 24,-17l138 -247 1 0c-1,10 -2,22 -2,36l0 205zm278 -254c0,31 -22,60 -57,60l-19 0c-12,0 -23,8 -23,23 0,16 11,22 23,22l38 0c36,0 50,29 50,61l0 11c0,33 -11,54 -50,54l-39 0c-20,0 -40,-9 -42,-31 -1,-12 -7,-24 -23,-24 -18,0 -25,12 -25,24 0,50 36,77 89,77l43 0c63,0 96,-43 96,-100l0 -11c0,-43 -21,-81 -60,-91 35,-15 47,-44 47,-75 0,-57 -28,-96 -97,-96l-22 0c-53,0 -89,27 -89,78 0,12 7,23 25,23 16,0 23,-11 24,-23 1,-21 21,-31 44,-31l18 0c35,0 49,15 49,49zm248 53l-75 0 0 -97 132 0c12,0 23,-6 23,-23 0,-16 -11,-23 -23,-23l-156 0c-18,0 -25,11 -25,23l0 315c0,13 7,24 25,24l99 0c67,0 99,-43 99,-100l0 -24c0,-58 -32,-95 -99,-95zm50 124c0,31 -14,49 -49,49l-76 0 0 -129 75 0c35,0 50,18 50,49l0 31zm298 77c0,12 7,23 24,23 17,0 24,-11 24,-23l0 -326c0,-12 -7,-24 -25,-24 -10,0 -16,4 -24,18l-138 247 -1 0c1,-10 2,-22 2,-36l0 -205c0,-12 -7,-24 -23,-24 -18,0 -25,12 -25,24l0 326c0,12 8,23 25,23 10,0 17,-3 25,-17l138 -247 0 0c-1,10 -2,22 -2,36l0 205zm176 -169l0 -129 80 0c36,0 51,18 51,49l0 26c0,31 -15,54 -51,54l-80 0zm80 46c67,0 100,-43 100,-100l0 -26c0,-58 -33,-95 -100,-95l-105 0c-17,0 -24,11 -24,23l0 321c0,12 7,23 24,23 17,0 25,-11 25,-23l0 -123 80 0zm294 39l29 91c4,12 16,20 30,15 14,-5 19,-17 15,-30l-104 -324c-4,-11 -10,-18 -25,-18l-2 0c-15,0 -21,7 -25,18l-104 324c-4,13 1,25 15,30 14,5 26,-3 30,-15l29 -91 112 0zm-64 -156c4,-12 5,-17 8,-30l0 0c3,13 4,18 8,30l35 113 -86 0 35 -113zm247 263c17,0 24,-11 24,-23l0 -298 76 0c12,0 22,-6 22,-23 0,-16 -10,-23 -22,-23l-200 0c-12,0 -23,7 -23,23 0,17 11,23 23,23l75 0 0 298c0,12 7,23 25,23zm359 -5c12,0 22,-6 22,-23 0,-16 -10,-23 -22,-23l-142 0 0 -117 117 0c12,0 23,-7 23,-23 0,-16 -11,-24 -23,-24l-117 0 0 -106 142 0c12,0 22,-6 22,-23 0,-16 -10,-23 -22,-23l-167 0c-17,0 -24,11 -24,23l0 315c0,13 7,24 24,24l167 0zm158 -65c4,-30 31,-251 31,-251l90 0 0 298c0,12 8,23 25,23 17,0 24,-11 24,-23l0 -321c0,-12 -7,-23 -24,-23l-135 0c-15,0 -23,9 -25,23 -1,15 -29,242 -32,262 -1,12 -3,20 -6,25 -5,10 -14,12 -29,12 -13,0 -24,8 -24,25 0,17 11,23 24,23 45,0 64,-14 74,-40 4,-10 6,-20 7,-33zm440 65c12,0 22,-6 22,-23 0,-16 -10,-23 -22,-23l-142 0 0 -117 117 0c12,0 23,-7 23,-23 0,-16 -11,-24 -23,-24l-117 0 0 -106 142 0c12,0 22,-6 22,-23 0,-16 -10,-23 -22,-23l-167 0c-17,0 -24,11 -24,23l0 315c0,13 7,24 24,24l167 0zm199 -395c47,0 72,-34 72,-69 0,-11 -9,-19 -20,-19 -10,0 -18,8 -19,19 -1,19 -14,33 -33,33 -20,0 -33,-14 -34,-33 -1,-11 -8,-19 -19,-19 -11,0 -19,8 -19,19 0,35 24,69 72,69zm67 377c0,12 7,23 24,23 17,0 24,-11 24,-23l0 -326c0,-12 -7,-24 -25,-24 -10,0 -16,4 -24,18l-138 247 -1 0c1,-10 2,-22 2,-36l0 -205c0,-12 -7,-24 -23,-24 -18,0 -25,12 -25,24l0 326c0,12 8,23 25,23 10,0 17,-3 25,-17l138 -247 1 0c-1,10 -3,22 -3,36l0 205z"/>
   <path class="fil9 str0" d="M4724 11846c0,-2568 0,-4289 0,-6857l10286 0"/>
   <path class="fil9 str0" d="M5066 12994c0,-2568 0,-4289 0,-6858l10286 0"/>
   <path class="fil9 str0" d="M5408 14141c0,-2568 0,-4289 0,-6857l10286 0"/>
   <path class="fil9 str0" d="M5750 15289c0,-2569 0,-4289 0,-6858l10286 0"/>
   <path class="fil10" d="M5968 11039l-1711 -5737 0 3158 1711 5736 0 -3157z"/>
   <g>
    <path class="fil7" d="M4347 5503c61,-20 127,15 146,78 19,63 -15,130 -76,150l-70 -228zm2425 5675l40 235 -294 34 -281 -2 -268 -37 -255 -69 -240 -99 -226 -127 -211 -152 -196 -174 -181 -193 -167 -212 -152 -227 -138 -240 -125 -251 -111 -260 -96 -267 -84 -272 -70 -275 -56 -276 -43 -274 -30 -271 -16 -265 -2 -259 10 -249 25 -238 38 -224 52 -210 67 -193 82 -174 99 -153 116 -130 135 -102 153 -69 70 228 -105 47 -96 73 -88 99 -80 124 -70 148 -59 171 -47 190 -36 208 -22 223 -11 235 3 246 15 254 29 259 41 263 54 265 67 263 80 261 92 255 106 248 118 238 130 226 143 213 155 196 167 179 179 159 190 137 202 113 214 88 226 62 239 33 253 2 266 -31zm0 0c64,-11 124,32 136,97 11,65 -32,127 -96,138l-40 -235z"/>
   </g>
   <g>
    <path class="fil7" d="M6680 15432c-18,-63 17,-130 79,-148 62,-19 127,17 145,81l-224 67zm280 191l-233 22 0 -1 -1 -8 -1 -9 -1 -8 -1 -9 -2 -10 -1 -9 -2 -9 -2 -10 -2 -10 -2 -9 -2 -10 -3 -10 -2 -9 -2 -10 -3 -10 -2 -9 -3 -10 -2 -9 -3 -9 -2 -9 -3 -9 -2 -9 -3 -8 224 -67 3 8 3 9 2 10 3 10 3 10 3 10 2 11 3 10 3 11 3 12 3 11 2 11 3 12 2 12 3 12 2 12 3 12 2 12 2 12 2 13 1 12 2 13 1 12 0 1zm0 0c6,65 -42,123 -106,129 -64,6 -121,-42 -127,-107l233 -22zm-415 177c64,-2 118,50 120,116 2,66 -49,121 -114,123l-6 -239zm-260 203l58 -231 17 4 20 5 20 5 19 3 18 4 18 2 18 2 17 2 16 1 16 0 15 0 8 0 6 239 -13 0 -21 0 -22 -1 -22 -1 -23 -2 -24 -3 -23 -3 -25 -5 -25 -4 -25 -6 -26 -7 -17 -4zm0 0c-62,-16 -100,-81 -84,-145 16,-64 80,-103 142,-86l-58 231zm-323 -428c52,38 64,113 26,166 -37,54 -110,66 -163,27l137 -193zm-330 32l157 -177 4 4 15 14 15 14 15 13 15 13 15 12 14 12 15 12 14 12 14 11 15 11 14 11 8 6 -137 193 -10 -7 -16 -12 -16 -12 -16 -13 -16 -13 -16 -13 -16 -14 -17 -14 -16 -14 -17 -15 -16 -15 -17 -15 -4 -4zm0 0c-48,-45 -51,-120 -8,-169 43,-48 117,-52 165,-8l-157 177zm-153 -519c41,51 35,126 -15,168 -50,42 -123,35 -165,-15l180 -153zm-327 -47l190 -139 21 31 36 49 37 50 39 51 4 5 -180 153 -6 -8 -42 -55 -40 -53 -38 -54 -21 -30zm0 0c-38,-54 -25,-128 27,-167 53,-38 126,-26 163,28l-190 139zm-37 -538c27,59 3,131 -56,159 -58,28 -128,3 -155,-56l211 -103zm-305 -132l220 -81 11 31 14 38 15 39 16 40 18 41 11 24 -211 103 -13 -28 -20 -45 -18 -45 -17 -43 -15 -43 -11 -31zm0 0c-22,-62 10,-130 70,-153 61,-22 128,10 150,72l-220 81zm128 -529c9,66 -35,126 -99,135 -64,10 -123,-36 -132,-101l231 -34zm-266 -204l232 -35 4 27 13 94 12 79 5 39 -231 34 -6 -38 -11 -79 -14 -94 -4 -27zm0 0c-9,-65 35,-126 99,-136 64,-9 123,36 133,101l-232 35zm161 -513c10,65 -34,126 -98,135 -64,10 -123,-35 -133,-100l231 -35zm-266 -203l231 -36 14 96 21 143 -231 35 -21 -142 -14 -96zm0 0c-10,-66 34,-126 98,-136 64,-10 123,35 133,100l-231 36zm160 -514c10,65 -34,126 -98,136 -64,10 -124,-35 -133,-100l231 -36zm-267 -203l231 -36 24 159 12 80 -231 36 -12 -80 -24 -159zm0 0c-10,-65 34,-126 98,-136 64,-10 123,35 133,100l-231 36zm160 -513c9,65 -34,126 -98,136 -64,10 -124,-35 -133,-100l231 -36zm-267 -203l231 -36 3 21 25 167 8 51 -231 36 -8 -51 -25 -167 -3 -21zm0 0c-10,-65 34,-126 98,-136 64,-10 123,35 133,100l-231 36zm159 -514c10,66 -34,127 -98,136 -63,10 -123,-34 -133,-99l231 -37zm-267 -202l231 -36 19 125 17 113 -231 37 -17 -114 -19 -125zm0 0c-9,-65 34,-126 98,-136 64,-10 124,35 133,100l-231 36zm160 -514c9,65 -34,126 -98,136 -64,10 -124,-34 -133,-100l231 -36zm-245 -56l231 -37 1 11 5 30 7 48 1 4 -231 36 -1 -4 -7 -48 -5 -30 -1 -10zm0 0c-10,-66 34,-126 97,-136 64,-10 124,34 134,99l-231 37z"/>
   </g>
   <path class="fil11 str8" d="M6621 18806l-1320 -1797c-78,-123 -327,-587 -486,-659 -179,-81 -328,59 -265,245 55,158 458,480 561,573l1510 1638zm-1522 -1848c-63,86 -548,-350 -404,-471 145,-123 504,418 404,471z"/>
   <path class="fil4 str9" d="M6792 15398c-115,-401 -554,-725 -952,-705 -993,48 -1001,1025 -1001,1025 -2,647 97,1059 -274,1362"/>
   <path class="fil11 str8" d="M4581 16654c55,84 165,192 272,289l58 -60c-110,-88 -229,-224 -242,-319l-88 90z"/>
   <g>
    <path class="fil7" d="M6937 11361c26,60 -2,130 -61,157 -59,26 -128,-2 -154,-63l215 -94zm-308 -128l214 -94 94 222 -215 94 -93 -222zm0 0c-26,-60 1,-130 61,-156 59,-26 128,1 153,62l-214 94zm27 -538c25,61 -2,131 -61,157 -59,26 -128,-2 -154,-62l215 -95zm-309 -127l215 -94 94 221 -215 95 -94 -222zm0 0c-25,-60 2,-131 61,-157 60,-26 129,2 154,63l-215 94zm28 -538c25,61 -2,131 -61,157 -60,26 -129,-2 -154,-62l215 -95zm-309 -127l215 -95 94 222 -215 95 -94 -222zm0 0c-25,-61 2,-131 61,-157 59,-26 128,2 154,62l-215 95zm27 -538c26,60 -1,130 -61,157 -59,26 -128,-2 -153,-63l214 -94zm-308 -127l215 -95 93 222 -214 94 -94 -221zm0 0c-26,-61 2,-131 61,-157 59,-26 128,2 154,62l-215 95zm27 -539c26,61 -2,131 -61,157 -59,26 -128,-2 -154,-62l215 -95zm-308 -127l214 -94 94 221 -215 95 -93 -222zm0 0c-26,-60 1,-131 61,-157 59,-26 128,2 153,63l-214 94zm27 -538c25,61 -2,131 -61,157 -59,26 -128,-2 -154,-62l215 -95zm-309 -127l215 -95 94 222 -215 95 -94 -222zm0 0c-25,-61 2,-131 61,-157 60,-26 129,2 154,62l-215 95zm28 -538c25,60 -2,131 -61,157 -60,26 -129,-2 -154,-63l215 -94zm-309 -127l215 -95 94 222 -215 94 -94 -221zm0 0c-25,-61 2,-131 61,-157 59,-26 128,2 154,62l-215 95zm27 -539c26,61 -1,131 -61,157 -59,26 -128,-2 -153,-62l214 -95zm-308 -127l215 -94 93 221 -214 95 -94 -222zm0 0c-26,-60 2,-131 61,-157 59,-26 128,2 154,63l-215 94zm27 -538c26,61 -2,131 -61,157 -59,26 -128,-2 -154,-62l215 -95zm-308 -127l214 -95 94 222 -215 95 -93 -222zm0 0c-26,-61 1,-131 61,-157 59,-26 128,2 153,62l-214 95z"/>
   </g>
   <g>
    <path class="fil7" d="M4347 7791c61,-20 127,15 146,78 19,63 -15,130 -76,149l-70 -227zm2425 5675l40 235 -294 34 -281 -2 -268 -37 -255 -69 -240 -100 -226 -126 -211 -152 -196 -174 -181 -194 -167 -211 -152 -227 -138 -240 -125 -251 -111 -260 -96 -268 -84 -272 -70 -274 -56 -276 -43 -274 -30 -271 -16 -266 -2 -258 10 -249 25 -238 38 -225 52 -209 67 -193 82 -174 99 -154 116 -129 135 -102 153 -69 70 227 -105 48 -96 73 -88 98 -80 125 -70 148 -59 171 -47 190 -36 208 -22 223 -11 235 3 246 15 253 29 260 41 263 54 264 67 264 80 260 92 256 106 247 118 239 130 226 143 213 155 196 167 179 179 158 190 137 202 114 214 88 226 62 239 33 253 2 266 -31zm0 0c64,-12 124,32 136,97 11,65 -32,126 -96,138l-40 -235z"/>
   </g>
   <g>
    <path class="fil7" d="M6937 13536c26,60 -2,131 -61,157 -59,26 -128,-2 -154,-63l215 -94zm-308 -127l214 -95 94 222 -215 94 -93 -221zm0 0c-26,-61 1,-131 61,-157 59,-26 128,2 153,62l-214 95zm27 -539c25,61 -2,131 -61,157 -59,26 -128,-2 -154,-62l215 -95zm-309 -127l215 -94 94 221 -215 95 -94 -222zm0 0c-25,-60 2,-130 61,-157 60,-26 129,2 154,63l-215 94zm28 -538c25,61 -2,131 -61,157 -60,26 -129,-2 -154,-62l215 -95zm-309 -127l215 -95 94 222 -215 95 -94 -222zm0 0c-25,-61 2,-131 61,-157 59,-26 128,2 154,62l-215 95zm27 -538c26,60 -1,131 -61,157 -59,26 -128,-2 -153,-63l214 -94zm-308 -127l215 -95 93 222 -214 94 -94 -221zm0 0c-26,-61 2,-131 61,-157 59,-26 128,2 154,62l-215 95zm27 -538c26,60 -2,130 -61,156 -59,26 -128,-1 -154,-62l215 -94zm-308 -128l214 -94 94 222 -215 94 -93 -222zm0 0c-26,-60 1,-130 61,-157 59,-26 128,2 153,63l-214 94zm27 -538c25,61 -2,131 -61,157 -59,26 -128,-2 -154,-62l215 -95zm-309 -127l215 -95 94 222 -215 95 -94 -222zm0 0c-25,-61 2,-131 61,-157 60,-26 129,2 154,62l-215 95zm28 -538c25,60 -2,131 -61,157 -60,26 -129,-2 -154,-63l215 -94zm-309 -127l215 -95 94 222 -215 94 -94 -221zm0 0c-25,-61 2,-131 61,-157 59,-26 128,2 154,62l-215 95zm27 -538c26,60 -1,130 -61,156 -59,26 -128,-1 -153,-62l214 -94zm-308 -128l215 -94 93 222 -214 94 -94 -222zm0 0c-26,-60 2,-130 61,-157 59,-26 128,2 154,63l-215 94zm27 -538c26,61 -2,131 -61,157 -59,26 -128,-2 -154,-62l215 -95zm-308 -127l214 -95 94 222 -215 95 -93 -222zm0 0c-26,-61 1,-131 61,-157 59,-26 128,2 153,62l-214 95z"/>
   </g>
  </g>
 </g>
</svg>
