<?xml version="1.0" encoding="UTF-8"?>
<!DOCTYPE svg PUBLIC "-//W3C//DTD SVG 1.0//EN" "http://www.w3.org/TR/2001/REC-SVG-20010904/DTD/svg10.dtd">
<!-- Creator: CorelDRAW X7 -->
<svg xmlns="http://www.w3.org/2000/svg" xml:space="preserve" width="200mm" height="200mm" version="1.0" style="shape-rendering:geometricPrecision; text-rendering:geometricPrecision; image-rendering:optimizeQuality; fill-rule:evenodd; clip-rule:evenodd"
viewBox="0 0 20000 20000"
 xmlns:xlink="http://www.w3.org/1999/xlink">
 <defs>
  <style type="text/css">
   <![CDATA[
    .str2 {stroke:#CC7588;stroke-width:30}
    .str1 {stroke:#024541;stroke-width:15}
    .str3 {stroke:#A37C66;stroke-width:10}
    .str0 {stroke:#024541;stroke-width:190;stroke-linecap:round;stroke-linejoin:round}
    .str4 {stroke:#5797B4;stroke-width:75;stroke-linecap:round;stroke-linejoin:round}
    .str5 {stroke:#008DD2;stroke-width:62.89;stroke-linecap:round;stroke-linejoin:round}
    .fil3 {fill:none}
    .fil10 {fill:none;fill-rule:nonzero}
    .fil1 {fill:#FDEAD2}
    .fil2 {fill:#FCD5A6}
    .fil7 {fill:#024541}
    .fil8 {fill:#FDEAD2;fill-rule:nonzero}
    .fil5 {fill:#FCD5A6;fill-rule:nonzero}
    .fil6 {fill:#CC7588;fill-rule:nonzero}
    .fil9 {fill:#A37C66;fill-rule:nonzero}
    .fil4 {fill:#024541;fill-rule:nonzero}
    .fil0 {fill:url(#id0)}
   ]]>
  </style>
  <radialGradient id="id0" gradientUnits="userSpaceOnUse" gradientTransform="matrix(1.41421 -0 -0 1.41421 -4142 -4142)" cx="10000" cy="10000" r="10000" fx="10000" fy="10000">
   <stop offset="0" style="stop-opacity:1; stop-color:#FEFEFE"/>
   <stop offset="0.439216" style="stop-opacity:1; stop-color:#FEFEFE"/>
   <stop offset="1" style="stop-opacity:1; stop-color:#D1E2F2"/>
  </radialGradient>
 </defs>
 <g id="Layer_x0020_1">
  <metadata id="CorelCorpID_0Corel-Layer"/>
  <g id="_704313556592">
   <path class="fil0" d="M0 0l20000 0 0 20000 -20000 0 0 -20000z"/>
   <path class="fil1" d="M17343 15205l-14706 0c0,-3672 0,-7132 0,-10804l14706 0 0 10804z"/>
   <path class="fil2" d="M2637 4401l14706 0 0 4461 -14706 -3714c25,-384 0,-491 0,-747z"/>
   <path class="fil3 str0" d="M17343 15205l-14706 0c0,-3672 0,-7132 0,-10804l14706 0 0 10804z"/>
   <path class="fil4 str1" d="M3952 11856l81 0c34,0 48,23 48,53l0 11c0,30 -14,46 -48,46l-81 0 0 -110zm0 -43l0 -104 60 0c33,0 47,12 47,41l0 12c0,30 -14,51 -47,51l-60 0zm175 96c0,-41 -18,-70 -55,-81 22,-14 34,-36 34,-66l0 -12c0,-55 -32,-86 -94,-86l-83 0c-17,0 -24,11 -24,23l0 301c0,12 7,23 24,23l104 0c63,0 94,-36 94,-91l0 -11zm352 84l0 -311c0,-12 -6,-23 -22,-23 -16,0 -24,11 -24,23l0 311c0,12 7,23 23,23 16,0 23,-11 23,-23zm-183 -195l-62 0 0 -116c0,-12 -7,-23 -23,-23 -17,0 -23,11 -23,23l0 306c0,12 6,23 23,23l85 0c63,0 95,-42 95,-96l0 -22c0,-56 -30,-95 -95,-95zm48 122c0,30 -13,46 -47,46l-63 0 0 -123 62 0c34,0 48,17 48,47l0 30zm437 46l-9 0 0 -279c0,-12 -7,-23 -23,-23l-120 0c-15,0 -22,11 -24,23l-45 279 -15 0c-16,0 -23,11 -23,23l0 64c0,12 7,23 23,23 17,0 23,-11 23,-23l0 -42 189 0 0 42c0,12 7,23 24,23 16,0 23,-11 23,-23l0 -64c0,-12 -7,-23 -23,-23zm-170 -34l35 -223 79 0 0 257 -121 0c4,-12 6,-22 7,-34zm392 -19l28 87c4,12 15,19 28,14 13,-4 19,-16 15,-28l-100 -310c-4,-11 -10,-17 -24,-17l-2 0c-14,0 -20,6 -23,17l-100 310c-4,12 1,24 14,28 13,5 25,-2 29,-14l27 -87 108 0zm-62 -149c4,-11 5,-17 8,-28l0 0c3,11 4,17 8,28l33 108 -82 0 33 -108zm401 -82c0,-12 -7,-23 -23,-23 -16,0 -23,11 -23,23l0 123 -131 0 0 -123c0,-12 -6,-23 -23,-23 -16,0 -23,11 -23,23l0 311c0,12 7,23 23,23 16,0 23,-11 23,-23l0 -143 131 0 0 143c0,12 6,23 23,23 16,0 23,-11 23,-23l0 -311zm117 76c0,-30 13,-54 48,-54l39 0c34,0 48,24 48,54l0 159c0,31 -14,54 -48,54l-39 0c-35,0 -48,-23 -48,-54l0 -159zm181 0c0,-54 -31,-99 -94,-99l-39 0c-63,0 -94,45 -94,99l0 159c0,54 31,99 94,99l39 0c63,0 94,-45 94,-99l0 -159zm322 43l-72 0 0 -92 126 0c12,0 22,-7 22,-23 0,-14 -10,-22 -22,-22l-149 0c-17,0 -24,11 -24,23l0 301c0,12 7,23 24,23l95 0c64,0 95,-42 95,-96l0 -22c0,-56 -31,-92 -95,-92zm48 119c0,30 -13,46 -47,46l-73 0 0 -123 72 0c34,0 48,17 48,47l0 30zm291 -261c-66,0 -95,56 -95,111l0 35 -46 0 0 -123c0,-12 -4,-23 -21,-23 -16,0 -23,11 -23,23l0 311c0,12 7,23 23,23 16,0 21,-11 21,-23l0 -143 46 0 0 66c0,54 28,100 91,100l26 0c63,0 95,-45 95,-99l0 -159c0,-54 -32,-99 -95,-99l-22 0zm70 258c0,31 -13,54 -48,54l-23 0c-35,0 -48,-23 -48,-54l0 -144c0,-31 13,-69 49,-69l22 0c34,0 48,24 48,52l0 161zm186 32c4,-29 29,-240 29,-240l87 0 0 284c0,12 7,23 24,23 16,0 23,-11 23,-23l0 -306c0,-12 -7,-23 -23,-23l-129 0c-15,0 -23,10 -24,23 -2,14 -28,231 -31,250 -1,12 -3,19 -6,24 -5,9 -13,12 -28,12 -11,0 -22,7 -22,23 0,17 11,22 22,22 44,0 61,-14 71,-38 4,-10 6,-19 7,-31zm307 0c4,-29 30,-240 30,-240l86 0 0 284c0,12 7,23 24,23 16,0 23,-11 23,-23l0 -306c0,-12 -7,-23 -23,-23l-129 0c-15,0 -23,10 -24,23 -2,14 -28,231 -31,250 -1,12 -3,19 -6,24 -5,9 -13,12 -27,12 -12,0 -23,7 -23,23 0,17 11,22 23,22 43,0 61,-14 70,-38 4,-10 6,-19 7,-31zm420 62c12,0 22,-7 22,-22 0,-15 -10,-23 -22,-23l-135 0 0 -111 112 0c11,0 21,-7 21,-22 0,-15 -10,-23 -21,-23l-112 0 0 -101 135 0c12,0 22,-7 22,-23 0,-14 -10,-22 -22,-22l-159 0c-16,0 -23,11 -23,23l0 301c0,12 7,23 23,23l159 0zm163 5c17,0 24,-11 24,-23l0 -284 72 0c11,0 22,-7 22,-23 0,-14 -11,-22 -22,-22l-191 0c-12,0 -22,8 -22,22 0,16 10,23 22,23l72 0 0 284c0,12 7,23 23,23zm344 -5c11,0 21,-7 21,-22 0,-15 -10,-23 -21,-23l-136 0 0 -111 112 0c11,0 22,-7 22,-22 0,-15 -11,-23 -22,-23l-112 0 0 -101 136 0c11,0 21,-7 21,-23 0,-14 -10,-22 -21,-22l-160 0c-16,0 -23,11 -23,23l0 301c0,12 7,23 23,23l160 0zm300 -329c0,-12 -7,-23 -23,-23 -16,0 -23,11 -23,23l0 123 -131 0 0 -123c0,-12 -6,-23 -23,-23 -16,0 -23,11 -23,23l0 311c0,12 7,23 23,23 17,0 23,-11 23,-23l0 -143 131 0 0 143c0,12 6,23 23,23 16,0 23,-11 23,-23l0 -311zm258 329c11,0 22,-7 22,-22 0,-15 -11,-23 -22,-23l-136 0 0 -111 112 0c12,0 22,-7 22,-22 0,-15 -10,-23 -22,-23l-112 0 0 -101 136 0c11,0 22,-7 22,-23 0,-14 -11,-22 -22,-22l-160 0c-15,0 -22,11 -22,23l0 301c0,12 7,23 22,23l160 0zm190 -378c45,0 69,-32 69,-66 0,-11 -8,-18 -18,-18 -11,0 -18,7 -19,18 -1,18 -13,32 -32,32 -19,0 -31,-14 -32,-32 -1,-11 -8,-18 -18,-18 -11,0 -19,7 -19,18 0,34 24,66 69,66zm65 360c0,12 6,23 22,23 17,0 24,-11 24,-23l0 -311c0,-12 -7,-23 -24,-23 -10,0 -16,4 -23,17l-133 236 0 0c1,-9 2,-21 2,-34l0 -196c0,-12 -7,-23 -23,-23 -16,0 -23,11 -23,23l0 311c0,12 7,23 24,23 9,0 16,-4 23,-17l132 -236 1 0c-1,9 -2,21 -2,34l0 196zm300 -137l81 0c35,0 48,23 48,53l0 11c0,30 -13,46 -48,46l-81 0 0 -110zm0 -43l0 -104 60 0c34,0 48,12 48,41l0 12c0,30 -14,51 -48,51l-60 0zm176 96c0,-41 -19,-70 -55,-81 21,-14 33,-36 33,-66l0 -12c0,-55 -31,-86 -94,-86l-83 0c-16,0 -23,11 -23,23l0 301c0,12 7,23 23,23l104 0c63,0 95,-36 95,-91l0 -11zm283 -227c0,-12 -7,-23 -23,-23 -16,0 -23,11 -23,23l0 123 -130 0 0 -123c0,-12 -7,-23 -24,-23 -16,0 -23,11 -23,23l0 311c0,12 7,23 23,23 17,0 24,-11 24,-23l0 -143 130 0 0 143c0,12 6,23 23,23 16,0 23,-11 23,-23l0 -311zm258 329c11,0 22,-7 22,-22 0,-15 -11,-23 -22,-23l-136 0 0 -111 112 0c12,0 22,-7 22,-22 0,-15 -10,-23 -22,-23l-112 0 0 -101 136 0c11,0 22,-7 22,-23 0,-14 -11,-22 -22,-22l-160 0c-15,0 -22,11 -22,23l0 301c0,12 7,23 22,23l160 0z"/>
   <path class="fil4 str1" d="M4072 12346l0 285c0,12 7,22 23,22 16,0 24,-10 24,-22l0 -307c0,-11 -8,-22 -24,-22l-167 0c-15,0 -23,11 -23,22l0 307c0,12 8,22 23,22 17,0 24,-10 24,-22l0 -285 120 0zm164 50c0,-31 13,-55 47,-55l40 0c34,0 47,24 47,55l0 158c0,31 -13,55 -47,55l-40 0c-34,0 -47,-24 -47,-55l0 -158zm181 0c0,-55 -31,-99 -94,-99l-40 0c-63,0 -94,44 -94,99l0 158c0,55 31,99 94,99l40 0c63,0 94,-44 94,-99l0 -158zm205 98c-3,-10 -6,-19 -11,-28l-78 -152c-7,-14 -13,-17 -23,-17 -16,0 -23,11 -23,23l0 311c0,12 7,22 23,22 16,0 23,-10 23,-22l0 -192c0,-13 -1,-25 -2,-34l0 0 71 138c4,7 9,12 20,12 12,0 17,-5 21,-12l71 -138 0 0c-1,9 -2,21 -2,34l0 192c0,12 7,22 23,22 16,0 23,-10 23,-22l0 -311c0,-12 -7,-23 -23,-23 -11,0 -16,3 -23,17l-78 152c-5,9 -9,18 -12,28zm393 154c12,0 22,-6 22,-22 0,-15 -10,-22 -22,-22l-135 0 0 -112 111 0c12,0 22,-6 22,-22 0,-15 -10,-22 -22,-22l-111 0 0 -102 135 0c12,0 22,-6 22,-22 0,-15 -10,-22 -22,-22l-159 0c-16,0 -23,11 -23,22l0 302c0,12 7,22 23,22l159 0zm335 0c9,0 18,0 25,-1l-28 49c-2,4 -3,8 -3,13 0,8 8,23 24,23 8,0 15,-6 20,-13l47 -82c1,-3 2,-7 2,-11 0,-16 -10,-22 -22,-22l-20 0 0 -284c0,-12 -7,-23 -23,-23 -16,0 -23,11 -23,23l0 284 -83 0 0 -284c0,-13 -8,-23 -23,-23 -14,0 -21,11 -21,23l0 284 -83 0 0 -284c0,-12 -7,-23 -24,-23 -16,0 -22,11 -22,23l0 306c0,12 6,22 22,22l235 0zm317 0c12,0 22,-6 22,-22 0,-15 -10,-22 -22,-22l-136 0 0 -112 112 0c12,0 22,-6 22,-22 0,-15 -10,-22 -22,-22l-112 0 0 -102 136 0c12,0 22,-6 22,-22 0,-15 -10,-22 -22,-22l-159 0c-16,0 -23,11 -23,22l0 302c0,12 7,22 23,22l159 0zm301 -328c0,-12 -8,-23 -23,-23 -17,0 -24,11 -24,23l0 123 -130 0 0 -123c0,-12 -6,-23 -23,-23 -16,0 -24,11 -24,23l0 311c0,12 8,22 24,22 16,0 23,-10 23,-22l0 -144 130 0 0 144c0,12 7,22 24,22 15,0 23,-10 23,-22l0 -311zm253 311c0,12 6,22 22,22 17,0 23,-10 23,-22l0 -311c0,-12 -6,-23 -23,-23 -10,0 -16,3 -24,17l-132 235 0 0c1,-9 2,-20 2,-34l0 -195c0,-12 -7,-23 -23,-23 -16,0 -23,11 -23,23l0 311c0,12 7,22 24,22 9,0 16,-3 23,-16l132 -236 1 0c-1,9 -2,21 -2,34l0 196zm104 -224c0,35 21,76 59,92 -3,6 -6,11 -12,25 0,0 -38,87 -43,98 -5,10 -2,23 13,29 16,6 26,-1 30,-12 5,-12 58,-133 58,-133l63 0 0 125c0,12 7,22 23,22 16,0 23,-10 23,-22l0 -307c0,-11 -7,-22 -23,-22l-95 0c-63,0 -96,39 -96,91l0 14zm94 54c-34,0 -48,-24 -48,-54l0 -14c0,-27 14,-47 50,-47l72 0 0 115 -74 0zm555 143l-10 0 0 -280c0,-11 -7,-22 -22,-22l-120 0c-16,0 -23,10 -25,22l-44 280 -15 0c-16,0 -23,11 -23,23l0 64c0,11 7,22 23,22 16,0 23,-11 23,-22l0 -43 189 0 0 43c0,11 7,22 24,22 16,0 23,-11 23,-22l0 -64c0,-12 -7,-23 -23,-23zm-170 -34l35 -224 79 0 0 258 -121 0c3,-13 5,-23 7,-34zm313 16c3,-28 29,-240 29,-240l87 0 0 285c0,12 7,22 24,22 16,0 22,-10 22,-22l0 -307c0,-11 -6,-22 -22,-22l-130 0c-14,0 -22,9 -23,22 -2,15 -29,231 -31,251 -2,11 -3,18 -6,23 -5,10 -13,12 -28,12 -12,0 -23,8 -23,24 0,16 11,22 23,22 43,0 61,-14 71,-39 4,-9 5,-18 7,-31zm221 -179c0,35 21,76 59,92 -3,6 -6,11 -12,25 0,0 -38,87 -43,98 -5,10 -2,23 13,29 16,6 25,-1 30,-12 5,-12 58,-133 58,-133l63 0 0 125c0,12 7,22 23,22 16,0 23,-10 23,-22l0 -307c0,-11 -7,-22 -23,-22l-95 0c-63,0 -96,39 -96,91l0 14zm94 54c-34,0 -48,-24 -48,-54l0 -14c0,-27 14,-47 49,-47l73 0 0 115 -74 0zm354 -159c-18,0 -26,11 -26,22l0 307c0,12 8,22 24,22 16,0 23,-10 23,-22l0 -285 133 0c11,0 22,-6 22,-22 0,-15 -11,-22 -20,-22l-156 0zm261 94c0,-31 14,-55 48,-55l39 0c35,0 48,24 48,55l0 158c0,31 -13,55 -48,55l-39 0c-34,0 -48,-24 -48,-55l0 -158zm182 0c0,-55 -32,-99 -95,-99l-39 0c-63,0 -94,44 -94,99l0 158c0,55 31,99 94,99l39 0c63,0 95,-44 95,-99l0 -158zm139 190c4,-28 29,-240 29,-240l87 0 0 285c0,12 7,22 24,22 16,0 23,-10 23,-22l0 -307c0,-11 -7,-22 -23,-22l-129 0c-15,0 -23,9 -24,22 -2,15 -28,231 -31,251 -1,11 -3,18 -6,23 -5,10 -13,12 -28,12 -11,0 -22,8 -22,24 0,16 11,22 22,22 44,0 61,-14 71,-39 4,-9 6,-18 7,-31zm280 -190c0,-31 13,-55 47,-55l40 0c34,0 47,24 47,55l0 158c0,31 -13,55 -47,55l-40 0c-34,0 -47,-24 -47,-55l0 -158zm181 0c0,-55 -31,-99 -94,-99l-40 0c-63,0 -94,44 -94,99l0 158c0,55 31,99 94,99l40 0c63,0 94,-44 94,-99l0 -158zm159 213c-34,0 -47,-24 -47,-55l0 -158c0,-31 13,-55 47,-55l51 0c21,0 33,9 35,30 1,11 6,22 22,22 17,0 24,-11 24,-22 0,-52 -31,-74 -81,-74l-51 0c-63,0 -94,44 -94,99l0 158c0,55 31,99 94,99l51 0c50,0 81,-22 81,-73 0,-12 -7,-23 -24,-23 -16,0 -21,11 -22,23 -2,20 -14,29 -35,29l-51 0zm232 -213c0,-31 14,-55 48,-55l39 0c35,0 48,24 48,55l0 158c0,31 -13,55 -48,55l-39 0c-34,0 -48,-24 -48,-55l0 -158zm181 0c0,-55 -31,-99 -94,-99l-39 0c-63,0 -94,44 -94,99l0 158c0,55 31,99 94,99l39 0c63,0 94,-44 94,-99l0 -158zm117 98l82 0c34,0 47,22 47,52l0 11c0,30 -13,47 -47,47l-82 0 0 -110zm0 -44l0 -104 60 0c34,0 48,12 48,42l0 12c0,30 -14,50 -48,50l-60 0zm176 96c0,-41 -19,-69 -55,-81 22,-13 33,-35 33,-65l0 -12c0,-56 -31,-86 -94,-86l-82 0c-17,0 -24,11 -24,22l0 302c0,12 7,22 24,22l104 0c63,0 94,-35 94,-91l0 -11zm208 5l28 87c4,11 15,18 29,14 13,-5 18,-16 14,-28l-100 -310c-3,-11 -9,-17 -23,-17l-3 0c-14,0 -20,6 -23,17l-100 310c-4,12 1,23 14,28 14,4 25,-3 29,-14l28 -87 107 0zm-61 -150c3,-11 5,-16 7,-28l1 0c2,12 4,17 7,28l34 108 -83 0 34 -108zm401 -81c0,-12 -8,-23 -24,-23 -16,0 -23,11 -23,23l0 123 -130 0 0 -123c0,-12 -7,-23 -24,-23 -15,0 -23,11 -23,23l0 311c0,12 8,22 23,22 17,0 24,-10 24,-22l0 -144 130 0 0 144c0,12 6,22 23,22 16,0 24,-10 24,-22l0 -311zm253 311c0,12 6,22 22,22 17,0 23,-10 23,-22l0 -311c0,-12 -7,-23 -24,-23 -9,0 -15,3 -23,17l-132 235 -1 0c1,-9 2,-20 2,-34l0 -195c0,-12 -6,-23 -22,-23 -17,0 -23,11 -23,23l0 311c0,12 7,22 24,22 9,0 15,-3 23,-16l132 -236 1 0c-1,9 -2,21 -2,34l0 196zm104 -224c0,35 21,76 59,92 -3,6 -6,11 -12,25 0,0 -38,87 -43,98 -5,10 -2,23 13,29 15,6 25,-1 30,-12 5,-12 58,-133 58,-133l63 0 0 125c0,12 7,22 23,22 16,0 23,-10 23,-22l0 -307c0,-11 -7,-22 -23,-22l-95 0c-63,0 -96,39 -96,91l0 14zm94 54c-34,0 -48,-24 -48,-54l0 -14c0,-27 14,-47 49,-47l73 0 0 115 -74 0z"/>
   <path class="fil4 str1" d="M3952 6791l81 0c34,0 48,22 48,52l0 11c0,30 -14,46 -48,46l-81 0 0 -109zm0 -44l0 -104 60 0c33,0 47,12 47,42l0 11c0,30 -14,51 -47,51l-60 0zm175 96c0,-41 -18,-70 -55,-81 22,-14 34,-35 34,-66l0 -11c0,-56 -32,-87 -94,-87l-83 0c-17,0 -24,11 -24,23l0 301c0,12 7,23 24,23l104 0c63,0 94,-36 94,-91l0 -11zm281 70l-106 -151 101 -131c9,-11 9,-24 -1,-33 -12,-11 -26,-5 -35,5l-104 141 -29 0 0 -128c0,-12 -7,-23 -23,-23 -17,0 -24,11 -24,23l0 311c0,12 7,23 24,23 16,0 23,-11 23,-23l0 -138 30 0 106 151c7,10 19,15 33,7 13,-10 12,-24 5,-34zm128 -30c4,-29 29,-240 29,-240l87 0 0 284c0,12 7,23 24,23 16,0 23,-11 23,-23l0 -306c0,-12 -7,-23 -23,-23l-129 0c-15,0 -23,10 -24,23 -2,14 -28,231 -31,250 -1,12 -3,19 -6,24 -5,9 -13,12 -28,12 -11,0 -22,7 -22,23 0,17 11,22 22,22 44,0 61,-13 71,-38 4,-10 6,-18 7,-31zm422 -290c-67,0 -96,56 -96,111l0 35 -45 0 0 -123c0,-12 -5,-23 -22,-23 -16,0 -22,11 -22,23l0 311c0,12 6,23 22,23 17,0 22,-11 22,-23l0 -143 45 0 0 66c0,54 29,100 92,100l26 0c63,0 94,-45 94,-99l0 -159c0,-54 -31,-99 -94,-99l-22 0zm70 258c0,31 -14,54 -48,54l-24 0c-34,0 -47,-23 -47,-54l0 -144c0,-30 13,-69 49,-69l22 0c34,0 48,24 48,52l0 161zm208 -53l62 0 0 129c0,12 7,23 23,23 16,0 24,-11 24,-23l0 -311c0,-12 -8,-23 -24,-23 -16,0 -23,11 -23,23l0 137c0,0 -50,0 -70,0 -29,0 -44,-19 -44,-42 0,-21 0,-95 0,-95 0,-12 -7,-23 -24,-23 -15,0 -23,11 -23,23l0 90c0,53 24,92 99,92zm366 147c12,0 22,-6 22,-22 0,-15 -10,-23 -22,-23l-136 0 0 -111 112 0c12,0 22,-6 22,-22 0,-15 -10,-23 -22,-23l-112 0 0 -101 136 0c12,0 22,-7 22,-22 0,-15 -10,-23 -22,-23l-159 0c-16,0 -23,11 -23,23l0 301c0,12 7,23 23,23l159 0zm301 -329c0,-12 -8,-23 -23,-23 -17,0 -24,11 -24,23l0 123 -130 0 0 -123c0,-12 -6,-23 -23,-23 -16,0 -24,11 -24,23l0 311c0,12 8,23 24,23 16,0 23,-11 23,-23l0 -143 130 0 0 143c0,12 7,23 24,23 15,0 23,-11 23,-23l0 -311zm117 76c0,-30 13,-54 47,-54l40 0c34,0 48,24 48,54l0 159c0,31 -14,54 -48,54l-40 0c-34,0 -47,-23 -47,-54l0 -159zm181 0c0,-54 -31,-99 -94,-99l-40 0c-63,0 -94,45 -94,99l0 159c0,54 31,99 94,99l40 0c63,0 94,-45 94,-99l0 -159zm250 99l81 0c34,0 48,22 48,52l0 11c0,30 -14,46 -48,46l-81 0 0 -109zm0 -44l0 -104 60 0c33,0 47,12 47,42l0 11c0,30 -14,51 -47,51l-60 0zm175 96c0,-41 -18,-70 -55,-81 22,-14 34,-35 34,-66l0 -11c0,-56 -32,-87 -94,-87l-83 0c-17,0 -24,11 -24,23l0 301c0,12 7,23 24,23l104 0c63,0 94,-36 94,-91l0 -11zm282 62c-34,0 -47,-23 -47,-54l0 -159c0,-30 13,-54 47,-54l51 0c21,0 33,9 35,29 1,12 7,23 22,23 17,0 24,-11 24,-23 0,-51 -31,-74 -81,-74l-51 0c-62,0 -94,45 -94,99l0 159c0,54 32,99 94,99l51 0c50,0 81,-22 81,-74 0,-12 -7,-23 -24,-23 -15,0 -21,11 -22,23 -2,21 -14,29 -35,29l-51 0zm358 -262l0 284c0,12 6,23 23,23 16,0 23,-11 23,-23l0 -306c0,-12 -7,-23 -23,-23l-167 0c-16,0 -23,11 -23,23l0 306c0,12 7,23 23,23 16,0 23,-11 23,-23l0 -284 121 0zm299 284c0,12 7,23 23,23 16,0 23,-11 23,-23l0 -311c0,-12 -7,-23 -24,-23 -9,0 -16,4 -23,17l-133 236 0 0c1,-9 2,-21 2,-34l0 -196c0,-12 -6,-23 -22,-23 -17,0 -24,11 -24,23l0 311c0,12 7,23 24,23 10,0 16,-3 23,-17l133 -236 0 0c-1,9 -2,21 -2,35l0 195zm210 -22c-34,0 -47,-23 -47,-54l0 -159c0,-30 13,-54 47,-54l51 0c21,0 32,9 34,29 1,12 7,23 23,23 17,0 24,-11 24,-23 0,-51 -31,-74 -81,-74l-51 0c-63,0 -94,45 -94,99l0 159c0,54 31,99 94,99l51 0c50,0 81,-22 81,-74 0,-12 -7,-23 -24,-23 -16,0 -22,11 -23,23 -2,21 -13,29 -34,29l-51 0zm232 -213c0,-30 13,-54 48,-54l39 0c34,0 48,24 48,54l0 159c0,31 -14,54 -48,54l-39 0c-35,0 -48,-23 -48,-54l0 -159zm181 0c0,-54 -31,-99 -94,-99l-39 0c-63,0 -94,45 -94,99l0 159c0,54 31,99 94,99l39 0c63,0 94,-45 94,-99l0 -159zm292 221l-107 -151 101 -131c9,-11 9,-24 -1,-33 -12,-11 -26,-5 -34,5l-105 141 -29 0 0 -128c0,-12 -7,-23 -23,-23 -17,0 -24,11 -24,23l0 311c0,12 7,23 24,23 16,0 23,-11 23,-23l0 -138 30 0 106 151c7,10 19,15 33,7 14,-10 13,-24 6,-34zm369 14c0,12 6,23 22,23 17,0 23,-11 23,-23l0 -311c0,-12 -7,-23 -24,-23 -9,0 -15,4 -23,17l-132 236 -1 0c1,-9 2,-21 2,-34l0 -196c0,-12 -6,-23 -22,-23 -17,0 -23,11 -23,23l0 311c0,12 7,23 24,23 9,0 15,-3 23,-17l132 -236 1 0c-1,9 -2,21 -2,35l0 195zm265 -242c0,29 -21,57 -54,57l-18 0c-12,0 -22,7 -22,22 0,16 10,22 22,22l36 0c35,0 48,27 48,57l0 11c0,31 -11,51 -48,51l-37 0c-19,0 -38,-8 -40,-29 -1,-12 -7,-23 -23,-23 -16,0 -23,11 -23,23 0,47 35,74 85,74l41 0c60,0 92,-41 92,-96l0 -11c0,-41 -20,-77 -58,-86 34,-15 46,-42 46,-72 0,-55 -27,-92 -93,-92l-22 0c-50,0 -84,26 -84,74 0,12 7,23 23,23 16,0 23,-11 23,-23 1,-20 21,-29 42,-29l18 0c33,0 46,14 46,47zm237 51l-71 0 0 -93 126 0c11,0 22,-7 22,-22 0,-15 -11,-23 -22,-23l-149 0c-17,0 -24,11 -24,23l0 301c0,12 7,23 24,23l94 0c64,0 96,-42 96,-96l0 -22c0,-56 -32,-91 -96,-91zm49 118c0,30 -13,46 -48,46l-72 0 0 -123 71 0c35,0 49,17 49,47l0 30zm285 73c0,12 6,23 22,23 17,0 23,-11 23,-23l0 -311c0,-12 -7,-23 -23,-23 -10,0 -16,4 -24,17l-132 236 0 0c1,-9 2,-21 2,-34l0 -196c0,-12 -7,-23 -23,-23 -17,0 -23,11 -23,23l0 311c0,12 7,23 24,23 9,0 16,-3 23,-17l132 -236 1 0c-1,9 -2,21 -2,35l0 195zm167 -161l0 -124 77 0c35,0 49,18 49,47l0 25c0,30 -14,52 -49,52l-77 0zm77 44c64,0 96,-41 96,-96l0 -25c0,-55 -32,-91 -96,-91l-101 0c-15,0 -22,11 -22,23l0 306c0,12 7,23 23,23 16,0 23,-11 23,-23l0 -117 77 0zm302 37l28 87c4,12 15,19 29,15 12,-5 18,-17 14,-29l-100 -310c-4,-11 -9,-17 -23,-17l-3 0c-14,0 -20,6 -23,17l-100 310c-4,12 1,24 14,29 14,4 25,-3 29,-15l28 -87 107 0zm-61 -149c3,-11 5,-16 7,-28l1 0c2,12 4,17 7,28l34 108 -83 0 34 -108zm263 252c16,0 23,-11 23,-23l0 -284 72 0c12,0 22,-7 22,-22 0,-15 -10,-23 -22,-23l-191 0c-11,0 -22,8 -22,23 0,15 11,22 22,22l72 0 0 284c0,12 7,23 24,23zm343 -5c11,0 22,-6 22,-22 0,-15 -11,-23 -22,-23l-136 0 0 -111 112 0c12,0 22,-6 22,-22 0,-15 -10,-23 -22,-23l-112 0 0 -101 136 0c11,0 22,-7 22,-22 0,-15 -11,-23 -22,-23l-159 0c-16,0 -23,11 -23,23l0 301c0,12 7,23 23,23l159 0zm147 -62c3,-29 29,-240 29,-240l87 0 0 284c0,12 6,23 23,23 16,0 23,-11 23,-23l0 -306c0,-12 -7,-23 -23,-23l-129 0c-14,0 -22,10 -24,23 -1,14 -28,231 -30,250 -2,12 -3,19 -6,24 -5,9 -14,12 -28,12 -12,0 -23,7 -23,23 0,17 11,22 23,22 43,0 61,-13 71,-38 3,-10 5,-18 7,-31zm420 62c11,0 21,-6 21,-22 0,-15 -10,-23 -21,-23l-136 0 0 -111 112 0c11,0 22,-6 22,-22 0,-15 -11,-23 -22,-23l-112 0 0 -101 136 0c11,0 21,-7 21,-22 0,-15 -10,-23 -21,-23l-160 0c-16,0 -23,11 -23,23l0 301c0,12 7,23 23,23l160 0zm190 -378c45,0 69,-32 69,-66 0,-11 -8,-18 -19,-18 -10,0 -17,7 -18,18 -1,19 -13,32 -32,32 -19,0 -31,-13 -32,-32 -1,-11 -8,-18 -19,-18 -10,0 -18,7 -18,18 0,34 24,66 69,66zm65 360c0,12 6,23 22,23 17,0 23,-11 23,-23l0 -311c0,-12 -7,-23 -23,-23 -10,0 -16,4 -24,17l-132 236 0 0c1,-9 2,-21 2,-34l0 -196c0,-12 -7,-23 -23,-23 -17,0 -23,11 -23,23l0 311c0,12 7,23 24,23 9,0 16,-3 23,-17l132 -236 1 0c-1,9 -2,21 -2,35l0 195z"/>
   <path class="fil4 str1" d="M3952 8054l81 0c34,0 48,22 48,53l0 11c0,29 -14,46 -48,46l-81 0 0 -110zm0 -43l0 -104 60 0c33,0 47,11 47,41l0 12c0,30 -14,51 -47,51l-60 0zm175 96c0,-41 -18,-70 -55,-82 22,-13 34,-35 34,-65l0 -12c0,-55 -32,-86 -94,-86l-83 0c-17,0 -24,11 -24,23l0 301c0,12 7,23 24,23l104 0c63,0 94,-36 94,-91l0 -11zm352 84l0 -311c0,-12 -6,-23 -22,-23 -16,0 -24,11 -24,23l0 311c0,12 7,23 23,23 16,0 23,-11 23,-23zm-183 -195l-62 0 0 -116c0,-12 -7,-23 -23,-23 -17,0 -23,11 -23,23l0 306c0,12 6,23 23,23l85 0c63,0 95,-42 95,-96l0 -23c0,-55 -30,-94 -95,-94zm48 122c0,29 -13,46 -47,46l-63 0 0 -123 62 0c34,0 48,17 48,47l0 30zm437 46l-9 0 0 -279c0,-12 -7,-23 -23,-23l-120 0c-15,0 -22,10 -24,23l-45 279 -15 0c-16,0 -23,11 -23,23l0 64c0,12 7,23 23,23 17,0 23,-11 23,-23l0 -42 189 0 0 42c0,12 7,23 24,23 16,0 23,-11 23,-23l0 -64c0,-12 -7,-23 -23,-23zm-170 -34l35 -223 79 0 0 257 -121 0c4,-12 6,-23 7,-34zm392 -19l28 87c4,12 15,19 28,14 13,-4 19,-16 15,-28l-100 -310c-4,-11 -10,-17 -24,-17l-2 0c-14,0 -20,6 -23,17l-100 310c-4,12 1,24 14,28 13,5 25,-2 29,-14l27 -87 108 0zm-62 -149c4,-11 5,-17 8,-29l0 0c3,12 4,18 8,29l33 107 -82 0 33 -107zm401 -82c0,-12 -7,-23 -23,-23 -16,0 -23,11 -23,23l0 123 -131 0 0 -123c0,-12 -6,-23 -23,-23 -16,0 -23,11 -23,23l0 311c0,12 7,23 23,23 16,0 23,-11 23,-23l0 -143 131 0 0 143c0,12 6,23 23,23 16,0 23,-11 23,-23l0 -311zm117 76c0,-31 13,-54 48,-54l39 0c34,0 48,23 48,54l0 159c0,30 -14,54 -48,54l-39 0c-35,0 -48,-24 -48,-54l0 -159zm181 0c0,-54 -31,-99 -94,-99l-39 0c-63,0 -94,45 -94,99l0 159c0,54 31,99 94,99l39 0c63,0 94,-45 94,-99l0 -159zm322 43l-72 0 0 -92 126 0c12,0 22,-7 22,-23 0,-15 -10,-22 -22,-22l-149 0c-17,0 -24,11 -24,23l0 301c0,12 7,23 24,23l95 0c64,0 95,-42 95,-96l0 -23c0,-55 -31,-91 -95,-91zm48 119c0,29 -13,46 -47,46l-73 0 0 -123 72 0c34,0 48,17 48,47l0 30zm291 -261c-66,0 -95,56 -95,110l0 36 -46 0 0 -123c0,-12 -4,-23 -21,-23 -16,0 -23,11 -23,23l0 311c0,12 7,23 23,23 16,0 21,-11 21,-23l0 -143 46 0 0 66c0,54 28,100 91,100l26 0c63,0 95,-45 95,-99l0 -159c0,-54 -32,-99 -95,-99l-22 0zm70 258c0,30 -13,54 -48,54l-23 0c-35,0 -48,-24 -48,-54l0 -144c0,-31 13,-69 49,-69l22 0c34,0 48,24 48,52l0 161zm186 31c4,-28 29,-239 29,-239l87 0 0 284c0,12 7,23 24,23 16,0 23,-11 23,-23l0 -306c0,-12 -7,-23 -23,-23l-129 0c-15,0 -23,9 -24,23 -2,14 -28,231 -31,250 -1,11 -3,19 -6,24 -5,9 -13,12 -28,12 -11,0 -22,7 -22,23 0,17 11,22 22,22 44,0 61,-14 71,-39 4,-9 6,-18 7,-31zm307 0c4,-28 30,-239 30,-239l86 0 0 284c0,12 7,23 24,23 16,0 23,-11 23,-23l0 -306c0,-12 -7,-23 -23,-23l-129 0c-15,0 -23,9 -24,23 -2,14 -28,231 -31,250 -1,11 -3,19 -6,24 -5,9 -13,12 -27,12 -12,0 -23,7 -23,23 0,17 11,22 23,22 43,0 61,-14 70,-39 4,-9 6,-18 7,-31zm420 63c12,0 22,-7 22,-23 0,-14 -10,-22 -22,-22l-135 0 0 -111 112 0c11,0 21,-7 21,-23 0,-15 -10,-22 -21,-22l-112 0 0 -101 135 0c12,0 22,-7 22,-23 0,-15 -10,-22 -22,-22l-159 0c-16,0 -23,11 -23,23l0 301c0,12 7,23 23,23l159 0zm163 5c17,0 24,-11 24,-23l0 -284 72 0c11,0 22,-7 22,-23 0,-15 -11,-22 -22,-22l-191 0c-12,0 -22,7 -22,22 0,16 10,23 22,23l72 0 0 284c0,12 7,23 23,23zm344 -5c11,0 21,-7 21,-23 0,-14 -10,-22 -21,-22l-136 0 0 -111 112 0c11,0 22,-7 22,-23 0,-15 -11,-22 -22,-22l-112 0 0 -101 136 0c11,0 21,-7 21,-23 0,-15 -10,-22 -21,-22l-160 0c-16,0 -23,11 -23,23l0 301c0,12 7,23 23,23l160 0zm300 -329c0,-12 -7,-23 -23,-23 -16,0 -23,11 -23,23l0 123 -131 0 0 -123c0,-12 -6,-23 -23,-23 -16,0 -23,11 -23,23l0 311c0,12 7,23 23,23 17,0 23,-11 23,-23l0 -143 131 0 0 143c0,12 6,23 23,23 16,0 23,-11 23,-23l0 -311zm258 329c11,0 22,-7 22,-23 0,-14 -11,-22 -22,-22l-136 0 0 -111 112 0c12,0 22,-7 22,-23 0,-15 -10,-22 -22,-22l-112 0 0 -101 136 0c11,0 22,-7 22,-23 0,-15 -11,-22 -22,-22l-160 0c-15,0 -22,11 -22,23l0 301c0,12 7,23 22,23l160 0zm190 -378c45,0 69,-32 69,-67 0,-10 -8,-17 -18,-17 -11,0 -18,7 -19,18 -1,18 -13,32 -32,32 -19,0 -31,-14 -32,-32 -1,-11 -8,-18 -18,-18 -11,0 -19,7 -19,17 0,35 24,67 69,67zm65 360c0,12 6,23 22,23 17,0 24,-11 24,-23l0 -311c0,-12 -7,-23 -24,-23 -10,0 -16,3 -23,17l-133 236 0 0c1,-9 2,-21 2,-35l0 -195c0,-12 -7,-23 -23,-23 -16,0 -23,11 -23,23l0 311c0,12 7,23 24,23 9,0 16,-4 23,-17l132 -236 1 0c-1,9 -2,21 -2,34l0 196zm431 0c0,12 7,23 23,23 17,0 23,-11 23,-23l0 -311c0,-12 -7,-23 -24,-23 -9,0 -16,3 -23,17l-132 236 -1 0c1,-9 2,-21 2,-35l0 -195c0,-12 -6,-23 -22,-23 -17,0 -23,11 -23,23l0 311c0,12 7,23 23,23 10,0 16,-4 24,-17l132 -236 0 0c-1,9 -2,21 -2,34l0 196zm266 -243c0,30 -21,58 -55,58l-17 0c-12,0 -22,7 -22,21 0,16 10,22 22,22l36 0c34,0 48,27 48,58l0 11c0,31 -11,51 -48,51l-37 0c-20,0 -38,-8 -40,-29 -1,-12 -7,-23 -23,-23 -17,0 -24,11 -24,23 0,47 36,74 86,74l41 0c60,0 91,-41 91,-96l0 -11c0,-41 -19,-77 -57,-87 34,-14 45,-42 45,-72 0,-54 -26,-91 -92,-91l-22 0c-50,0 -85,25 -85,74 0,12 7,23 24,23 16,0 22,-11 23,-23 1,-20 21,-29 42,-29l18 0c33,0 46,13 46,46zm237 51l-72 0 0 -92 127 0c11,0 21,-7 21,-23 0,-15 -10,-22 -21,-22l-149 0c-17,0 -24,11 -24,23l0 301c0,12 7,23 24,23l94 0c64,0 95,-42 95,-96l0 -23c0,-55 -31,-91 -95,-91zm49 119c0,29 -14,46 -48,46l-73 0 0 -123 72 0c34,0 49,17 49,47l0 30zm285 73c0,12 6,23 22,23 17,0 23,-11 23,-23l0 -311c0,-12 -7,-23 -24,-23 -9,0 -15,3 -23,17l-132 236 -1 0c1,-9 2,-21 2,-35l0 -195c0,-12 -6,-23 -22,-23 -17,0 -23,11 -23,23l0 311c0,12 7,23 24,23 9,0 15,-4 23,-17l132 -236 1 0c-1,9 -2,21 -2,34l0 196zm167 -162l0 -123 77 0c34,0 49,17 49,47l0 25c0,30 -15,51 -49,51l-77 0zm77 45c64,0 95,-42 95,-96l0 -25c0,-55 -31,-91 -95,-91l-101 0c-16,0 -23,11 -23,23l0 306c0,12 7,23 24,23 16,0 23,-11 23,-23l0 -117 77 0zm302 37l28 87c4,12 15,19 28,14 13,-4 19,-16 15,-28l-100 -310c-4,-11 -10,-17 -24,-17l-2 0c-14,0 -20,6 -23,17l-100 310c-4,12 1,24 14,28 13,5 25,-2 29,-14l27 -87 108 0zm-62 -149c4,-11 5,-17 8,-29l0 0c3,12 4,18 8,29l34 107 -83 0 33 -107zm264 252c16,0 23,-11 23,-23l0 -284 72 0c12,0 22,-7 22,-23 0,-15 -10,-22 -22,-22l-191 0c-11,0 -22,7 -22,22 0,16 11,23 22,23l72 0 0 284c0,12 7,23 24,23zm343 -5c11,0 22,-7 22,-23 0,-14 -11,-22 -22,-22l-136 0 0 -111 112 0c11,0 22,-7 22,-23 0,-15 -11,-22 -22,-22l-112 0 0 -101 136 0c11,0 22,-7 22,-23 0,-15 -11,-22 -22,-22l-160 0c-16,0 -22,11 -22,23l0 301c0,12 6,23 22,23l160 0zm146 -63c4,-28 30,-239 30,-239l86 0 0 284c0,12 7,23 24,23 16,0 23,-11 23,-23l0 -306c0,-12 -7,-23 -23,-23l-129 0c-15,0 -22,9 -24,23 -1,14 -28,231 -31,250 -1,11 -3,19 -6,24 -5,9 -13,12 -27,12 -12,0 -23,7 -23,23 0,17 11,22 23,22 43,0 61,-14 70,-39 4,-9 6,-18 7,-31zm221 -179c0,36 21,76 60,92 -4,6 -7,11 -12,25 0,0 -39,87 -44,98 -4,10 -1,24 14,30 15,6 25,-2 30,-13 5,-12 57,-133 57,-133l63 0 0 125c0,12 7,23 24,23 16,0 23,-11 23,-23l0 -306c0,-12 -7,-23 -23,-23l-96 0c-62,0 -96,40 -96,91l0 14zm94 54c-34,0 -47,-23 -47,-54l0 -14c0,-27 14,-46 49,-46l72 0 0 114 -74 0zm331 33c-3,-9 -7,-19 -12,-28l-77 -152c-7,-14 -13,-17 -23,-17 -16,0 -23,11 -23,23l0 311c0,12 7,23 23,23 16,0 23,-11 23,-23l0 -191c0,-14 -1,-26 -2,-35l0 0 71 139c3,7 8,12 20,12 12,0 17,-5 21,-12l70 -139 1 0c-1,9 -2,21 -2,35l0 191c0,12 6,23 23,23 16,0 23,-11 23,-23l0 -311c0,-12 -7,-23 -23,-23 -11,0 -17,3 -24,17l-77 152c-5,9 -9,19 -12,28z"/>
   <path class="fil4 str1" d="M4132 8802l-10 0 0 -280c0,-12 -7,-23 -23,-23l-119 0c-16,0 -23,11 -25,23l-44 280 -16 0c-16,0 -23,11 -23,22l0 64c0,12 7,23 23,23 17,0 24,-11 24,-23l0 -42 189 0 0 42c0,12 7,23 24,23 15,0 22,-11 22,-23l0 -64c0,-11 -7,-22 -22,-22zm-170 -35l34 -223 80 0 0 258 -121 0c3,-13 5,-23 7,-35zm285 -173c0,-31 13,-55 48,-55l39 0c34,0 48,24 48,55l0 158c0,31 -14,55 -48,55l-39 0c-35,0 -48,-24 -48,-55l0 -158zm181 0c0,-55 -31,-100 -94,-100l-39 0c-63,0 -95,45 -95,100l0 158c0,55 32,99 95,99l39 0c63,0 94,-44 94,-99l0 -158zm160 213c-34,0 -48,-24 -48,-55l0 -158c0,-31 14,-55 48,-55l50 0c22,0 33,9 35,29 1,12 7,23 23,23 17,0 24,-11 24,-23 0,-51 -31,-74 -82,-74l-50 0c-63,0 -94,45 -94,100l0 158c0,55 31,99 94,99l50 0c51,0 82,-22 82,-74 0,-12 -7,-22 -24,-22 -16,0 -22,10 -23,22 -2,21 -13,30 -35,30l-50 0zm237 -140l0 -123 77 0c34,0 48,17 48,47l0 24c0,31 -14,52 -48,52l-77 0zm77 44c64,0 95,-41 95,-96l0 -24c0,-56 -31,-92 -95,-92l-101 0c-16,0 -23,11 -23,23l0 306c0,12 7,23 23,23 17,0 24,-11 24,-23l0 -117 77 0zm195 -117c0,-31 13,-55 48,-55l39 0c34,0 48,24 48,55l0 158c0,31 -14,55 -48,55l-39 0c-35,0 -48,-24 -48,-55l0 -158zm181 0c0,-55 -31,-100 -94,-100l-39 0c-63,0 -95,45 -95,100l0 158c0,55 32,99 95,99l39 0c63,0 94,-44 94,-99l0 -158zm162 106l62 0 0 128c0,12 7,23 23,23 16,0 24,-11 24,-23l0 -311c0,-12 -8,-23 -24,-23 -16,0 -23,11 -23,23l0 137c0,0 -50,0 -70,0 -29,0 -44,-19 -44,-42 0,-21 0,-95 0,-95 0,-12 -7,-23 -24,-23 -15,0 -23,11 -23,23l0 90c0,53 24,93 99,93zm407 -183c0,-12 -7,-23 -23,-23 -16,0 -23,11 -23,23l0 124 -130 0 0 -124c0,-12 -7,-23 -24,-23 -16,0 -23,11 -23,23l0 311c0,12 7,23 23,23 17,0 24,-11 24,-23l0 -143 130 0 0 143c0,12 6,23 23,23 16,0 23,-11 23,-23l0 -311zm117 77c0,-31 14,-55 48,-55l39 0c35,0 48,24 48,55l0 158c0,31 -13,55 -48,55l-39 0c-34,0 -48,-24 -48,-55l0 -158zm182 0c0,-55 -32,-100 -95,-100l-39 0c-63,0 -94,45 -94,100l0 158c0,55 31,99 94,99l39 0c63,0 95,-44 95,-99l0 -158z"/>
   <path class="fil4 str1" d="M3952 9955l81 0c34,0 48,23 48,53l0 11c0,29 -14,46 -48,46l-81 0 0 -110zm0 -43l0 -104 60 0c33,0 47,12 47,41l0 12c0,30 -14,51 -47,51l-60 0zm175 96c0,-41 -18,-70 -55,-81 22,-14 34,-36 34,-66l0 -12c0,-55 -32,-86 -94,-86l-83 0c-17,0 -24,11 -24,23l0 301c0,12 7,23 24,23l104 0c63,0 94,-36 94,-91l0 -11zm352 84l0 -311c0,-12 -6,-23 -22,-23 -16,0 -24,11 -24,23l0 311c0,12 7,23 23,23 16,0 23,-11 23,-23zm-183 -195l-62 0 0 -116c0,-12 -7,-23 -23,-23 -17,0 -23,11 -23,23l0 306c0,12 6,23 23,23l85 0c63,0 95,-42 95,-96l0 -23c0,-55 -30,-94 -95,-94zm48 122c0,29 -13,46 -47,46l-63 0 0 -123 62 0c34,0 48,17 48,47l0 30zm437 46l-9 0 0 -279c0,-12 -7,-23 -23,-23l-120 0c-15,0 -22,10 -24,23l-45 279 -15 0c-16,0 -23,11 -23,23l0 64c0,12 7,23 23,23 17,0 23,-11 23,-23l0 -42 189 0 0 42c0,12 7,23 24,23 16,0 23,-11 23,-23l0 -64c0,-12 -7,-23 -23,-23zm-170 -34l35 -223 79 0 0 257 -121 0c4,-12 6,-23 7,-34zm392 -19l28 87c4,12 15,19 28,14 13,-4 19,-16 15,-28l-100 -310c-4,-11 -10,-17 -24,-17l-2 0c-14,0 -20,6 -23,17l-100 310c-4,12 1,24 14,28 13,5 25,-2 29,-14l27 -87 108 0zm-62 -149c4,-11 5,-17 8,-29l0 0c3,12 4,18 8,29l33 108 -82 0 33 -108zm401 -82c0,-12 -7,-23 -23,-23 -16,0 -23,11 -23,23l0 123 -131 0 0 -123c0,-12 -6,-23 -23,-23 -16,0 -23,11 -23,23l0 311c0,12 7,23 23,23 16,0 23,-11 23,-23l0 -143 131 0 0 143c0,12 6,23 23,23 16,0 23,-11 23,-23l0 -311zm117 76c0,-31 13,-54 48,-54l39 0c34,0 48,23 48,54l0 159c0,30 -14,54 -48,54l-39 0c-35,0 -48,-24 -48,-54l0 -159zm181 0c0,-54 -31,-99 -94,-99l-39 0c-63,0 -94,45 -94,99l0 159c0,54 31,99 94,99l39 0c63,0 94,-45 94,-99l0 -159zm322 43l-72 0 0 -92 126 0c12,0 22,-7 22,-23 0,-15 -10,-22 -22,-22l-149 0c-17,0 -24,11 -24,23l0 301c0,12 7,23 24,23l95 0c64,0 95,-42 95,-96l0 -23c0,-55 -31,-91 -95,-91zm48 119c0,29 -13,46 -47,46l-73 0 0 -123 72 0c34,0 48,17 48,47l0 30zm291 -261c-66,0 -95,56 -95,111l0 35 -46 0 0 -123c0,-12 -4,-23 -21,-23 -16,0 -23,11 -23,23l0 311c0,12 7,23 23,23 16,0 21,-11 21,-23l0 -143 46 0 0 66c0,54 28,100 91,100l26 0c63,0 95,-45 95,-99l0 -159c0,-54 -32,-99 -95,-99l-22 0zm70 258c0,30 -13,54 -48,54l-23 0c-35,0 -48,-24 -48,-54l0 -144c0,-31 13,-69 49,-69l22 0c34,0 48,24 48,52l0 161zm186 31c4,-28 29,-239 29,-239l87 0 0 284c0,12 7,23 24,23 16,0 23,-11 23,-23l0 -306c0,-12 -7,-23 -23,-23l-129 0c-15,0 -23,9 -24,23 -2,14 -28,231 -31,250 -1,11 -3,19 -6,24 -5,9 -13,12 -28,12 -11,0 -22,7 -22,23 0,17 11,22 22,22 44,0 61,-14 71,-38 4,-10 6,-19 7,-32zm307 0c4,-28 30,-239 30,-239l86 0 0 284c0,12 7,23 24,23 16,0 23,-11 23,-23l0 -306c0,-12 -7,-23 -23,-23l-129 0c-15,0 -23,9 -24,23 -2,14 -28,231 -31,250 -1,11 -3,19 -6,24 -5,9 -13,12 -27,12 -12,0 -23,7 -23,23 0,17 11,22 23,22 43,0 61,-14 70,-38 4,-10 6,-19 7,-32zm420 63c12,0 22,-7 22,-22 0,-15 -10,-23 -22,-23l-135 0 0 -111 112 0c11,0 21,-7 21,-23 0,-14 -10,-22 -21,-22l-112 0 0 -101 135 0c12,0 22,-7 22,-23 0,-15 -10,-22 -22,-22l-159 0c-16,0 -23,11 -23,23l0 301c0,12 7,23 23,23l159 0zm163 5c17,0 24,-11 24,-23l0 -284 72 0c11,0 22,-7 22,-23 0,-15 -11,-22 -22,-22l-191 0c-12,0 -22,7 -22,22 0,16 10,23 22,23l72 0 0 284c0,12 7,23 23,23zm344 -5c11,0 21,-7 21,-22 0,-15 -10,-23 -21,-23l-136 0 0 -111 112 0c11,0 22,-7 22,-23 0,-14 -11,-22 -22,-22l-112 0 0 -101 136 0c11,0 21,-7 21,-23 0,-15 -10,-22 -21,-22l-160 0c-16,0 -23,11 -23,23l0 301c0,12 7,23 23,23l160 0zm300 -329c0,-12 -7,-23 -23,-23 -16,0 -23,11 -23,23l0 123 -131 0 0 -123c0,-12 -6,-23 -23,-23 -16,0 -23,11 -23,23l0 311c0,12 7,23 23,23 17,0 23,-11 23,-23l0 -143 131 0 0 143c0,12 6,23 23,23 16,0 23,-11 23,-23l0 -311zm258 329c11,0 22,-7 22,-22 0,-15 -11,-23 -22,-23l-136 0 0 -111 112 0c12,0 22,-7 22,-23 0,-14 -10,-22 -22,-22l-112 0 0 -101 136 0c11,0 22,-7 22,-23 0,-15 -11,-22 -22,-22l-160 0c-15,0 -22,11 -22,23l0 301c0,12 7,23 22,23l160 0zm190 -378c45,0 69,-32 69,-67 0,-10 -8,-17 -18,-17 -11,0 -18,7 -19,18 -1,18 -13,32 -32,32 -19,0 -31,-14 -32,-32 -1,-11 -8,-18 -18,-18 -11,0 -19,7 -19,17 0,35 24,67 69,67zm65 360c0,12 6,23 22,23 17,0 24,-11 24,-23l0 -311c0,-12 -7,-23 -24,-23 -10,0 -16,4 -23,17l-133 236 0 0c1,-9 2,-21 2,-34l0 -196c0,-12 -7,-23 -23,-23 -16,0 -23,11 -23,23l0 311c0,12 7,23 24,23 9,0 16,-4 23,-17l132 -236 1 0c-1,9 -2,21 -2,34l0 196zm300 -137l81 0c35,0 48,23 48,53l0 11c0,29 -13,46 -48,46l-81 0 0 -110zm0 -43l0 -104 60 0c34,0 48,12 48,41l0 12c0,30 -14,51 -48,51l-60 0zm176 96c0,-41 -19,-70 -55,-81 21,-14 33,-36 33,-66l0 -12c0,-55 -31,-86 -94,-86l-83 0c-16,0 -23,11 -23,23l0 301c0,12 7,23 23,23l104 0c63,0 95,-36 95,-91l0 -11zm360 -200l0 284c0,12 6,23 23,23 16,0 23,-11 23,-23l0 -306c0,-12 -7,-23 -23,-23l-167 0c-16,0 -23,11 -23,23l0 306c0,12 7,23 23,23 16,0 23,-11 23,-23l0 -284 121 0zm163 49c0,-31 13,-54 48,-54l39 0c34,0 48,23 48,54l0 159c0,30 -14,54 -48,54l-39 0c-35,0 -48,-24 -48,-54l0 -159zm181 0c0,-54 -31,-99 -94,-99l-39 0c-63,0 -94,45 -94,99l0 159c0,54 31,99 94,99l39 0c63,0 94,-45 94,-99l0 -159zm206 98c-3,-9 -7,-19 -12,-28l-77 -152c-7,-14 -13,-17 -24,-17 -16,0 -22,11 -22,23l0 311c0,12 6,23 22,23 17,0 23,-11 23,-23l0 -191c0,-14 -1,-25 -2,-34l1 0 71 138c3,7 8,12 20,12 12,0 17,-5 20,-12l71 -138 1 0c-1,9 -2,20 -2,34l0 191c0,12 6,23 22,23 17,0 23,-11 23,-23l0 -311c0,-12 -6,-23 -23,-23 -10,0 -16,3 -23,17l-77 152c-5,9 -9,19 -12,28zm393 155c11,0 22,-7 22,-22 0,-15 -11,-23 -22,-23l-136 0 0 -111 112 0c11,0 22,-7 22,-23 0,-14 -11,-22 -22,-22l-112 0 0 -101 136 0c11,0 22,-7 22,-23 0,-15 -11,-22 -22,-22l-160 0c-16,0 -23,11 -23,23l0 301c0,12 7,23 23,23l160 0zm334 0c9,0 19,-1 26,-1l-28 48c-3,4 -4,9 -4,13 0,9 9,23 24,23 9,0 16,-5 20,-13l47 -82c2,-3 3,-7 3,-10 0,-16 -11,-23 -22,-23l-20 0 0 -284c0,-12 -7,-23 -23,-23 -17,0 -24,11 -24,23l0 284 -83 0 0 -284c0,-12 -8,-23 -22,-23 -14,0 -22,12 -22,23l0 284 -82 0 0 -284c0,-12 -7,-23 -24,-23 -16,0 -23,11 -23,23l0 306c0,12 7,23 23,23l234 0zm318 0c11,0 21,-7 21,-22 0,-15 -10,-23 -21,-23l-136 0 0 -111 112 0c11,0 22,-7 22,-23 0,-14 -11,-22 -22,-22l-112 0 0 -101 136 0c11,0 21,-7 21,-23 0,-15 -10,-22 -21,-22l-160 0c-16,0 -23,11 -23,23l0 301c0,12 7,23 23,23l160 0zm300 -329c0,-12 -7,-23 -23,-23 -16,0 -23,11 -23,23l0 123 -131 0 0 -123c0,-12 -6,-23 -23,-23 -16,0 -23,11 -23,23l0 311c0,12 7,23 23,23 17,0 23,-11 23,-23l0 -143 131 0 0 143c0,12 6,23 23,23 16,0 23,-11 23,-23l0 -311zm253 311c0,12 7,23 23,23 17,0 23,-11 23,-23l0 -311c0,-12 -7,-23 -24,-23 -9,0 -16,4 -23,17l-132 236 -1 0c1,-9 2,-21 2,-34l0 -196c0,-12 -6,-23 -22,-23 -17,0 -23,11 -23,23l0 311c0,12 7,23 23,23 10,0 16,-4 24,-17l132 -236 0 0c-1,9 -2,21 -2,34l0 196zm299 0c0,12 7,23 22,23 17,0 24,-11 24,-23l0 -311c0,-12 -7,-23 -24,-23 -10,0 -16,4 -23,17l-133 236 0 0c1,-9 2,-21 2,-34l0 -196c0,-12 -7,-23 -22,-23 -17,0 -24,11 -24,23l0 311c0,12 7,23 24,23 9,0 16,-4 23,-17l133 -236 0 0c-1,9 -2,21 -2,34l0 196z"/>
   <path class="fil4 str1" d="M4132 10703l-10 0 0 -280c0,-12 -7,-22 -23,-22l-119 0c-16,0 -23,10 -25,22l-44 280 -16 0c-16,0 -23,11 -23,23l0 63c0,12 7,23 23,23 17,0 24,-11 24,-23l0 -42 189 0 0 42c0,12 7,23 24,23 15,0 22,-11 22,-23l0 -63c0,-12 -7,-23 -22,-23zm-170 -34l34 -224 80 0 0 258 -121 0c3,-13 5,-23 7,-34zm313 16c3,-28 29,-240 29,-240l87 0 0 284c0,12 7,23 23,23 16,0 23,-11 23,-23l0 -306c0,-12 -7,-22 -23,-22l-129 0c-14,0 -22,9 -24,22 -1,15 -28,231 -30,251 -2,11 -3,18 -6,23 -5,10 -14,12 -28,12 -12,0 -23,8 -23,23 0,17 11,23 23,23 43,0 61,-14 71,-39 3,-9 5,-18 7,-31zm221 -179c0,35 20,76 59,92 -3,6 -6,11 -12,24 0,0 -38,88 -43,99 -5,10 -2,23 13,29 15,6 25,-1 30,-13 5,-11 58,-132 58,-132l63 0 0 124c0,12 6,23 23,23 16,0 23,-11 23,-23l0 -306c0,-12 -7,-22 -23,-22l-95 0c-63,0 -96,39 -96,91l0 14zm94 54c-34,0 -48,-24 -48,-54l0 -14c0,-28 14,-47 49,-47l73 0 0 115 -74 0zm354 -159c-18,0 -26,10 -26,22l0 306c0,12 8,23 23,23 17,0 24,-11 24,-23l0 -284 132 0c12,0 22,-6 22,-22 0,-15 -10,-22 -19,-22l-156 0zm261 94c0,-31 13,-55 48,-55l39 0c34,0 48,24 48,55l0 158c0,31 -14,55 -48,55l-39 0c-35,0 -48,-24 -48,-55l0 -158zm181 0c0,-55 -31,-99 -94,-99l-39 0c-63,0 -95,44 -95,99l0 158c0,55 32,99 95,99l39 0c63,0 94,-44 94,-99l0 -158zm140 190c3,-28 29,-240 29,-240l87 0 0 284c0,12 7,23 24,23 15,0 22,-11 22,-23l0 -306c0,-12 -7,-22 -22,-22l-130 0c-14,0 -22,9 -23,22 -2,15 -29,231 -31,251 -2,11 -3,18 -6,23 -5,10 -13,12 -28,12 -12,0 -23,8 -23,23 0,17 11,23 23,23 43,0 61,-14 71,-39 3,-9 5,-18 7,-31zm279 -190c0,-31 14,-55 48,-55l39 0c35,0 48,24 48,55l0 158c0,31 -13,55 -48,55l-39 0c-34,0 -48,-24 -48,-55l0 -158zm182 0c0,-55 -32,-99 -95,-99l-39 0c-63,0 -94,44 -94,99l0 158c0,55 31,99 94,99l39 0c63,0 95,-44 95,-99l0 -158zm159 213c-34,0 -47,-24 -47,-55l0 -158c0,-31 13,-55 47,-55l51 0c21,0 32,9 34,29 1,12 7,23 23,23 17,0 24,-11 24,-23 0,-51 -31,-73 -81,-73l-51 0c-63,0 -94,44 -94,99l0 158c0,55 31,99 94,99l51 0c50,0 81,-22 81,-74 0,-11 -7,-22 -24,-22 -16,0 -22,11 -23,22 -2,21 -13,30 -34,30l-51 0zm232 -213c0,-31 13,-55 47,-55l40 0c34,0 48,24 48,55l0 158c0,31 -14,55 -48,55l-40 0c-34,0 -47,-24 -47,-55l0 -158zm181 0c0,-55 -31,-99 -94,-99l-40 0c-62,0 -94,44 -94,99l0 158c0,55 32,99 94,99l40 0c63,0 94,-44 94,-99l0 -158zm117 98l81 0c35,0 48,22 48,52l0 11c0,30 -13,47 -48,47l-81 0 0 -110zm0 -44l0 -104 60 0c34,0 48,12 48,42l0 12c0,29 -14,50 -48,50l-60 0zm175 96c0,-41 -18,-70 -55,-81 22,-13 34,-35 34,-65l0 -12c0,-56 -32,-86 -94,-86l-83 0c-17,0 -23,10 -23,22l0 302c0,11 6,22 23,22l104 0c63,0 94,-35 94,-91l0 -11zm209 5l28 86c4,12 15,19 28,15 13,-5 19,-17 15,-28l-100 -311c-4,-10 -10,-16 -24,-16l-2 0c-14,0 -20,6 -23,16l-100 311c-4,11 1,23 14,28 13,4 25,-3 29,-15l28 -86 107 0zm-61 -150c3,-11 5,-16 7,-28l1 0c2,12 3,17 7,28l34 108 -83 0 34 -108zm400 -82c0,-11 -7,-22 -23,-22 -16,0 -23,11 -23,22l0 124 -131 0 0 -124c0,-11 -6,-22 -23,-22 -16,0 -23,11 -23,22l0 311c0,12 7,23 23,23 17,0 23,-11 23,-23l0 -143 131 0 0 143c0,12 6,23 23,23 16,0 23,-11 23,-23l0 -311zm253 311c0,12 7,23 23,23 17,0 23,-11 23,-23l0 -311c0,-11 -7,-22 -24,-22 -9,0 -16,3 -23,16l-132 236 -1 0c1,-9 2,-21 2,-34l0 -196c0,-11 -6,-22 -22,-22 -17,0 -23,11 -23,22l0 311c0,12 7,23 23,23 10,0 16,-3 24,-17l132 -235 0 0c-1,9 -2,20 -2,34l0 195zm104 -223c0,35 21,76 60,92 -4,6 -7,11 -12,24 0,0 -39,88 -44,99 -4,10 -1,23 14,29 15,6 25,-1 30,-13 5,-11 57,-132 57,-132l63 0 0 124c0,12 7,23 24,23 16,0 23,-11 23,-23l0 -306c0,-12 -7,-22 -23,-22l-95 0c-63,0 -97,39 -97,91l0 14zm95 54c-35,0 -48,-24 -48,-54l0 -14c0,-28 14,-47 49,-47l72 0 0 115 -73 0z"/>
   <g>
    <path class="fil5" d="M3663 7234c-27,0 -49,-21 -49,-47 0,-26 22,-48 49,-48l0 95zm13196 0l-13196 0 0 -95 13196 0 0 95zm0 -95c27,0 49,22 49,48 0,26 -22,47 -49,47l0 -95z"/>
   </g>
   <g>
    <path class="fil5" d="M3663 9135c-28,0 -50,-21 -50,-47 0,-26 22,-48 50,-48l0 95zm12886 0l-12886 0 0 -95 12886 0 0 95zm0 -95c28,0 50,22 50,48 0,26 -22,47 -50,47l0 -95z"/>
   </g>
   <g>
    <path class="fil5" d="M3663 11036c-28,0 -50,-21 -50,-47 0,-26 22,-47 50,-47l0 94zm12886 0l-12886 0 0 -94 12886 0 0 94zm0 -94c28,0 50,21 50,47 0,26 -22,47 -50,47l0 -94z"/>
   </g>
   <g>
    <path class="fil5" d="M3663 12937c-28,0 -50,-21 -50,-47 0,-26 22,-47 50,-47l0 94zm12886 0l-12886 0 0 -94 12886 0 0 94zm0 -94c28,0 50,21 50,47 0,26 -22,47 -50,47l0 -94z"/>
   </g>
   <path class="fil6 str2" d="M12863 6355c-133,80 -176,186 -176,317l0 124c0,96 55,157 163,157l49 0c108,0 163,-57 163,-153l0 -42c0,-95 -55,-162 -163,-162l-127 0c11,-69 50,-124 133,-175 18,-11 31,-32 15,-56 -15,-23 -39,-21 -57,-10zm-13 523c-59,0 -84,-30 -84,-82l0 -125 133 0c59,0 84,33 84,87l0 42c0,52 -25,78 -84,78l-49 0zm367 -316c0,-84 31,-135 97,-135l29 0c66,0 96,51 96,135l0 182c0,83 -30,134 -96,134l-29 0c-66,0 -97,-51 -97,-134l0 -182zm301 0c0,-128 -59,-210 -175,-210l-29 0c-115,0 -175,82 -175,210l0 182c0,128 60,209 175,209l29 0c116,0 175,-81 175,-209l0 -182zm159 0c0,-84 31,-135 97,-135l29 0c66,0 96,51 96,135l0 182c0,83 -30,134 -96,134l-29 0c-66,0 -97,-51 -97,-134l0 -182zm300 0c0,-128 -59,-210 -174,-210l-29 0c-116,0 -176,82 -176,210l0 182c0,128 60,209 176,209l29 0c115,0 174,-81 174,-209l0 -182z"/>
   <path class="fil6 str2" d="M13130 8253c-14,0 -23,6 -31,13 -40,45 -86,91 -135,135 -15,14 -21,32 -1,52 19,18 36,11 51,-1 30,-25 61,-57 87,-88l0 407 -104 0c-21,0 -38,11 -38,38 0,26 17,37 38,37l270 0c21,0 38,-11 38,-37 0,-27 -17,-38 -38,-38l-87 0 0 -479c0,-21 -7,-39 -36,-39l-14 0zm319 8c-21,0 -38,11 -38,38l0 225c0,26 17,37 38,37l158 0c59,0 84,30 84,83l0 53c0,52 -25,82 -84,82l-75 0c-37,0 -61,-15 -61,-50 0,-22 -11,-39 -39,-39 -28,0 -39,17 -39,39 0,89 53,126 139,126l75 0c108,0 163,-62 163,-158l0 -53c0,-96 -55,-158 -163,-158l-117 0 0 -149 215 0c21,0 38,-11 38,-38 0,-27 -17,-38 -38,-38l-256 0z"/>
   <path class="fil6 str2" d="M13201 12618c0,21 10,39 38,39 28,0 38,-18 38,-39l0 -136 43 0c21,0 38,-11 38,-37 0,-27 -17,-38 -38,-38l-43 0 0 -162c0,-22 -10,-39 -38,-39 -28,0 -38,17 -38,39l0 162 -182 0c42,-95 77,-213 95,-317 3,-20 1,-41 -25,-48 -25,-7 -44,6 -48,27 -25,134 -65,248 -108,347 -5,12 -5,20 -5,29 0,27 17,37 38,37l235 0 0 136zm283 -353c0,-84 31,-135 97,-135l29 0c66,0 96,51 96,135l0 182c0,84 -30,135 -96,135l-29 0c-66,0 -97,-51 -97,-135l0 -182zm301 0c0,-128 -60,-210 -175,-210l-29 0c-116,0 -176,82 -176,210l0 182c0,128 60,210 176,210l29 0c115,0 175,-82 175,-210l0 -182z"/>
   <path class="fil6 str2" d="M12766 10606c0,-38 14,-68 42,-81l153 -69c76,-34 92,-92 92,-149l0 -3c0,-96 -54,-150 -163,-150l-51 0c-86,0 -139,37 -139,125 0,22 11,40 39,40 29,0 39,-18 39,-40 0,-35 25,-50 61,-50l51 0c60,0 85,23 85,75l0 3c0,39 -13,64 -46,79l-143 63c-67,28 -99,92 -99,165l0 133 336 0c21,0 38,-11 38,-37 0,-27 -17,-38 -38,-38l-257 0 0 -66zm459 0c0,-38 15,-68 42,-81l154 -69c75,-34 92,-92 92,-149l0 -3c0,-96 -54,-150 -163,-150l-51 0c-86,0 -140,37 -140,125 0,22 11,40 40,40 28,0 39,-18 39,-40 0,-35 24,-50 61,-50l51 0c59,0 84,23 84,75l0 3c0,39 -12,64 -46,79l-143 63c-66,28 -98,92 -98,165l0 133 336 0c21,0 37,-11 37,-37 0,-27 -16,-38 -37,-38l-258 0 0 -66zm752 -36c0,-69 -28,-123 -90,-142 39,-22 62,-59 62,-113l0 -11c0,-96 -54,-150 -163,-150l-44 0c-86,0 -140,37 -140,125 0,22 11,40 40,40 28,0 39,-18 39,-40 0,-35 24,-50 61,-50l44 0c59,0 84,23 84,75l0 11c0,52 -30,90 -91,90l-47 0c-21,0 -38,10 -38,37 0,26 17,36 38,36l85 0c59,0 82,39 82,92l0 28c0,52 -25,82 -85,82l-89 0c-37,0 -61,-15 -61,-50 0,-21 -11,-39 -39,-39 -29,0 -39,18 -39,39 0,89 53,126 139,126l89 0c109,0 163,-62 163,-158l0 -28z"/>
   <g>
    <path class="fil4" d="M15199 7791l-528 387 -46 -45 528 -387 46 0 0 45zm-46 -45c15,-11 37,-9 50,3 12,13 11,31 -4,42l-46 -45zm528 432l-528 -387 46 -45 528 387 12 22 -58 23zm46 -45c14,10 16,29 3,41 -12,13 -34,14 -49,4l46 -45zm-58 690l0 -668 70 0 0 668 -35 30 -35 -30zm70 0c0,16 -16,30 -35,30 -19,0 -35,-14 -35,-30l70 0zm-1091 -30l1056 0 0 60 -1056 0 -35 -30 35 -30zm0 60c-19,0 -35,-14 -35,-30 0,-16 16,-30 35,-30l0 60zm35 -698l0 668 -70 0 0 -668 12 -22 58 22zm-70 0c0,-16 16,-30 35,-30 20,0 35,14 35,30l-70 0z"/>
   </g>
   <g>
    <path class="fil4" d="M14625 8207c-14,-10 -16,-29 -3,-41 12,-13 34,-14 49,-4l-46 45zm528 387l-528 -387 46 -45 528 387 0 45 -46 0zm46 -45c15,11 16,29 4,42 -13,12 -35,14 -50,3l46 -45zm528 -342l-528 387 -46 -45 528 -387 46 45zm-46 -45c15,-10 37,-9 49,4 13,12 11,31 -3,41l-46 -45zm-1010 684c-15,10 -37,9 -50,-4 -12,-12 -10,-31 5,-42l45 46zm446 -319l-446 319 -45 -46 446 -319 45 46zm-45 -46c15,-10 37,-9 49,4 13,12 11,31 -4,42l-45 -46zm163 46c-15,-11 -16,-30 -4,-42 12,-13 34,-14 49,-4l-45 46zm446 319l-446 -319 45 -46 446 319 -45 46zm45 -46c15,11 17,30 5,42 -13,13 -35,14 -50,4l45 -46z"/>
   </g>
   <g>
    <path class="fil7" d="M14786 8286l198 -344 588 339 -412 277 -374 -272z"/>
    <path id="1" class="fil4" d="M15016 7955l-198 344 -63 -26 198 -344 51 -12 12 38zm-63 -26c8,-15 29,-21 47,-14 17,7 24,25 16,40l-63 -26zm600 377l-588 -340 39 -49 588 340 2 48 -41 1zm39 -49c16,9 20,27 9,41 -11,14 -32,17 -48,8l39 -49zm-454 277l413 -276 43 47 -412 276 -45 -1 1 -46zm44 47c-16,10 -38,8 -50,-5 -12,-13 -9,-31 6,-42l44 47zm-373 -317l374 271 -46 45 -373 -271 -9 -36 54 -9zm-45 45c-15,-11 -17,-30 -4,-42 12,-13 34,-14 49,-3l-45 45z"/>
   </g>
   <g>
    <path class="fil7" d="M15176 6822c57,-6 181,-149 184,-199 -14,-9 -28,-20 -41,-30 -15,-11 -23,-16 -35,-32 -1,-17 2,-20 6,-32 13,-8 47,-49 58,-66 25,-41 27,-76 39,-85 12,-9 23,-14 30,-31 19,-51 -26,-53 -21,-97 13,-101 13,-178 -50,-247 -46,-51 -108,-77 -170,-77 -62,0 -124,26 -170,77 -63,69 -63,146 -50,247 5,44 -39,46 -20,97 6,17 17,22 30,31 11,9 13,44 39,85 10,17 44,58 57,66 5,12 7,15 6,32 -12,16 -20,21 -35,32 -13,10 -27,21 -41,30 4,50 127,193 184,199z"/>
    <path id="1" class="fil4" d="M15340 6647l41 -48 14 26 -1 8 -2 7 -2 8 -4 8 -3 8 -4 8 -5 8 -5 8 -6 9 -6 8 -6 9 -6 9 -7 8 -7 9 -7 8 -8 9 -8 8 -8 9 -7 8 -8 7 -9 8 -8 7 -8 7 -8 6 -8 7 -9 5 -8 5 -9 5 -8 4 -9 4 -10 3 -11 1 -8 -59 1 0 2 0 3 -2 4 -2 5 -2 6 -4 6 -4 6 -5 7 -5 6 -6 7 -6 7 -6 7 -7 7 -7 7 -8 7 -7 7 -8 7 -8 6 -7 6 -8 6 -8 5 -7 5 -8 5 -7 4 -7 4 -6 3 -6 3 -6 2 -5 1 -4 1 -3 0 -2 15 26zm-15 -26c2,-16 18,-29 37,-28 20,1 34,15 33,32l-70 -4zm-29 -5l46 -45 0 0 2 1 1 1 1 1 1 1 2 1 1 1 1 1 1 1 1 1 2 0 1 1 1 1 1 1 2 1 1 1 1 1 1 1 2 1 1 1 1 0 1 1 1 1 2 1 1 1 1 1 1 0 1 1 1 1 2 1 1 0 1 1 1 1 -41 48 -2 -1 -2 -1 -1 -1 -1 -1 -2 -1 -1 -1 -2 -1 -1 -1 -2 -1 -1 -1 -2 -1 -1 -1 -1 -1 -2 -1 -1 -1 -2 -1 -1 -1 -1 -1 -2 -1 -1 -1 -1 -1 -2 -1 -1 -1 -1 -1 -1 -1 -2 -1 -1 -1 -1 -1 -1 0 -2 -1 -1 -1 -1 -1 0 0zm0 0c-14,-11 -16,-30 -3,-42 13,-13 35,-14 49,-3l-46 45zm-47 -54l70 -3 -6 -14 1 1 1 1 1 1 1 1 1 1 0 1 1 1 1 1 1 1 0 0 1 1 1 1 0 0 1 1 1 0 0 1 1 1 1 0 1 1 0 1 1 0 1 1 1 1 1 1 1 0 1 1 1 1 2 1 1 1 1 1 2 1 1 1 -46 45 -1 -1 -2 -1 -1 -1 -1 -1 -1 -1 -2 -1 -1 -1 -1 -1 -2 -1 -1 -1 -1 -1 -1 -1 -2 -1 -1 -1 -1 -1 -2 -1 -1 -1 -1 -1 -2 -2 -1 -1 -1 -1 -2 -2 -1 -1 -1 -1 -2 -2 -1 -1 -1 -2 -2 -2 -1 -1 -1 -2 -1 -1 -2 -2 -5 -15zm5 15c-10,-14 -5,-33 11,-41 16,-9 38,-5 48,9l-59 32zm16 -73l40 49 14 -16 -1 2 0 1 -1 1 0 1 -1 1 0 1 0 1 -1 1 0 0 0 1 0 1 -1 0 0 0 0 1 0 0 0 0 0 1 0 0 0 0 0 1 0 0 0 0 0 1 0 0 0 1 0 1 0 0 0 1 0 1 0 1 0 1 0 1 -70 3 0 -1 0 -2 0 -2 0 -2 0 -1 0 -2 0 -1 0 -2 0 -2 0 -1 0 -2 0 -1 1 -2 0 -1 0 -2 1 -1 0 -1 0 -2 1 -1 0 -1 1 -1 0 -1 0 -2 1 0 0 -1 0 -1 1 -1 0 -1 1 -1 0 -1 0 -1 1 -1 13 -16zm-13 16c5,-16 25,-25 43,-20 19,5 29,21 24,37l-67 -17zm60 -71l62 27 0 0 -2 3 -1 2 -2 2 -1 2 -2 3 -2 2 -2 3 -2 2 -2 3 -2 2 -2 3 -2 3 -2 3 -2 2 -3 3 -2 3 -2 2 -2 3 -3 3 -2 2 -2 3 -3 2 -2 2 -2 3 -2 2 -3 2 -2 2 -2 2 -3 2 -2 2 -3 2 -3 2 -40 -49 0 0 0 0 0 0 1 -1 1 -1 1 -1 2 -1 1 -2 2 -1 2 -2 2 -2 2 -2 2 -3 1 -2 2 -2 2 -2 2 -3 2 -2 2 -2 2 -3 2 -2 2 -3 2 -2 2 -2 1 -2 2 -2 1 -2 2 -2 1 -2 1 -2 1 -1 1 -1 0 0zm0 0c9,-15 30,-20 47,-13 17,8 24,26 15,40l-62 -27zm47 -94l45 46 0 0 2 -2 1 -1 1 -1 0 0 0 0 0 0 -1 1 0 1 -1 2 0 1 -1 2 -1 2 -1 3 0 2 -1 3 -1 3 -1 3 -1 3 -1 3 -2 3 -1 4 -1 3 -2 4 -1 4 -2 3 -2 4 -2 4 -2 4 -2 5 -2 4 -3 4 -2 4 -62 -27 2 -4 2 -3 1 -3 2 -3 2 -3 1 -4 1 -3 2 -3 1 -3 1 -3 1 -3 2 -3 1 -3 1 -2 1 -3 1 -3 0 -3 1 -2 1 -3 1 -3 1 -2 1 -3 1 -3 1 -2 1 -3 2 -2 1 -3 2 -3 2 -3 3 -3 3 -3 4 -4 0 0zm0 0c14,-10 36,-9 49,4 13,12 11,31 -4,42l-45 -46zm19 -17l67 18 0 0 -1 2 -1 2 -1 2 -1 3 -1 2 -1 2 -2 2 -1 2 -1 2 -2 2 -1 1 -2 2 -1 2 -2 1 -1 2 -2 1 -1 1 -2 1 -1 2 -2 1 -1 1 -2 1 -1 1 -1 1 -1 0 -1 1 -2 1 -1 1 -1 0 -1 1 -1 1 -1 1 -45 -46 1 -1 1 -1 2 -1 1 0 1 -1 1 -1 1 -1 1 0 1 -1 1 -1 1 0 1 -1 0 0 1 -1 0 0 1 0 0 -1 0 0 1 0 0 -1 0 0 1 0 0 0 0 -1 0 0 1 -1 0 0 0 -1 0 0 1 -1 0 -1 0 0 0 0zm0 0c6,-16 26,-25 44,-20 19,5 29,22 23,38l-67 -18zm-21 -91l69 6 0 0 0 3 0 2 0 2 0 1 1 2 0 1 0 1 1 2 0 1 1 1 1 2 1 2 1 2 2 2 1 2 2 3 2 2 2 3 2 4 2 4 1 3 2 5 1 4 1 5 1 5 0 5 0 6 0 5 -1 5 -1 6 -2 6 -2 6 -67 -18 2 -4 0 -3 1 -2 0 -2 0 -2 0 -2 0 -1 0 -1 0 -1 0 -1 -1 -1 0 -1 -1 -1 -1 -2 -1 -1 -1 -2 -1 -2 -2 -3 -2 -2 -1 -3 -2 -3 -2 -3 -2 -4 -2 -4 -2 -4 -1 -5 -1 -4 -1 -5 -1 -6 0 -5 0 -5 1 -6 0 0zm0 0c2,-16 19,-28 38,-26 19,1 33,16 31,32l-69 -6zm-43 -226l55 -36 0 0 6 7 6 7 6 8 5 7 5 8 5 8 4 8 4 7 3 8 4 8 2 8 3 9 2 8 2 8 2 8 1 9 2 8 0 8 1 9 1 9 0 8 0 9 0 9 0 9 -1 8 0 9 -1 10 -1 9 0 9 -1 9 -2 10 -1 9 -69 -6 1 -9 1 -9 1 -9 1 -9 0 -9 1 -8 1 -8 0 -8 0 -8 0 -8 0 -8 0 -7 -1 -7 0 -8 -1 -7 -1 -7 -1 -6 -2 -7 -1 -7 -2 -6 -2 -6 -2 -7 -3 -6 -2 -6 -3 -6 -3 -6 -4 -5 -4 -6 -4 -6 -4 -6 -5 -6 -4 -5 0 0zm0 0c-12,-13 -9,-32 6,-42 15,-10 37,-7 49,6l-55 36zm-143 -66l0 -59 0 0 7 0 7 0 7 1 7 0 7 1 6 1 7 1 7 2 7 1 6 2 7 2 7 2 6 2 7 2 6 3 6 3 7 2 6 4 6 3 6 3 6 4 6 3 6 4 6 4 5 5 6 4 5 5 6 4 5 5 5 5 5 5 5 6 -55 36 -4 -4 -4 -4 -4 -4 -4 -4 -4 -3 -4 -4 -4 -3 -5 -3 -4 -3 -4 -3 -5 -3 -4 -3 -4 -2 -5 -2 -4 -3 -5 -2 -4 -2 -5 -1 -5 -2 -4 -2 -5 -1 -5 -1 -4 -2 -5 -1 -5 -1 -4 0 -5 -1 -5 -1 -5 0 -4 0 -5 -1 -5 0 0 0zm0 0c-19,0 -35,-13 -35,-29 0,-17 16,-30 35,-30l0 59zm-142 66l-56 -36 0 0 5 -6 5 -5 5 -5 5 -5 6 -4 5 -5 6 -4 5 -5 6 -4 6 -4 6 -3 6 -4 6 -3 6 -3 6 -4 7 -2 6 -3 7 -3 6 -2 7 -2 6 -2 7 -2 7 -2 6 -1 7 -2 7 -1 7 -1 7 -1 6 0 7 -1 7 0 7 0 0 59 -5 0 -4 1 -5 0 -5 0 -5 1 -4 1 -5 0 -5 1 -5 1 -4 2 -5 1 -4 1 -5 2 -5 2 -4 1 -5 2 -4 2 -5 3 -4 2 -5 2 -4 3 -4 3 -5 3 -4 3 -4 3 -4 3 -5 4 -4 3 -4 4 -4 4 -3 4 -4 4 0 0zm0 0c-12,13 -34,15 -49,5 -16,-10 -19,-28 -7,-41l56 36zm-43 226l-70 6 0 0 -1 -9 -1 -10 -1 -9 -1 -9 -1 -9 -1 -10 0 -9 -1 -8 0 -9 0 -9 0 -9 1 -8 0 -9 1 -9 1 -8 1 -8 1 -9 2 -8 2 -8 2 -8 3 -9 3 -8 3 -8 3 -8 4 -7 4 -8 5 -8 5 -8 5 -7 6 -8 6 -7 6 -7 56 36 -5 5 -5 6 -4 6 -4 6 -4 6 -3 5 -4 6 -3 6 -2 6 -3 7 -2 6 -2 6 -2 6 -1 7 -2 7 -1 6 -1 7 0 7 -1 8 -1 7 0 7 0 8 0 8 0 8 1 8 0 8 1 8 1 9 0 9 1 9 1 9 2 9 0 0zm0 0c2,16 -12,31 -31,33 -20,1 -37,-10 -39,-27l70 -6zm-22 91l-67 18 0 0 -2 -6 -1 -6 -2 -6 -1 -5 0 -5 0 -6 0 -5 1 -5 1 -5 1 -4 2 -5 2 -4 2 -3 1 -4 2 -3 2 -2 2 -3 1 -2 2 -2 1 -2 1 -2 1 -2 1 -1 0 -1 1 -2 0 -1 1 -1 0 -2 0 -1 0 -2 0 -2 0 -3 70 -6 0 6 0 5 0 5 -1 6 0 5 -2 4 -1 5 -2 4 -2 4 -2 4 -1 3 -2 3 -2 3 -2 2 -1 3 -2 2 -1 2 -1 1 -1 2 0 1 -1 1 0 1 -1 1 0 1 0 1 0 1 0 2 0 2 0 2 1 2 1 3 1 4 0 0zm0 0c6,15 -4,32 -23,37 -18,5 -38,-4 -44,-19l67 -18zm20 17l-46 46 0 0 -1 -1 -1 -1 -1 -1 -1 0 -1 -1 -1 -1 -1 -1 -2 0 -1 -1 -1 -1 -2 -1 -1 -1 -1 -1 -2 -2 -1 -1 -2 -1 -1 -1 -2 -2 -2 -1 -1 -2 -1 -2 -2 -2 -1 -1 -2 -2 -1 -2 -1 -2 -2 -2 -1 -2 -1 -3 -1 -2 -1 -2 -1 -2 67 -18 0 0 1 1 0 1 0 0 0 1 1 0 0 1 0 0 0 0 1 1 0 0 0 0 1 1 0 0 0 0 1 1 0 0 0 0 1 1 1 0 0 1 1 0 1 1 1 1 1 0 1 1 1 1 1 1 1 0 2 1 1 1 2 1 0 0zm0 0c14,11 16,30 3,42 -12,13 -35,14 -49,4l46 -46zm47 94l-62 27 0 0 -3 -4 -2 -4 -3 -4 -2 -5 -2 -4 -2 -4 -2 -4 -1 -3 -2 -4 -1 -4 -2 -3 -1 -4 -1 -3 -1 -3 -1 -3 -1 -3 -1 -3 -1 -3 -1 -2 -1 -3 -1 -2 0 -2 -1 -1 -1 -2 0 -1 -1 -1 0 0 0 0 0 0 1 1 1 1 2 2 46 -46 3 4 4 3 2 3 2 3 2 3 2 3 1 2 1 3 1 2 1 3 1 3 1 2 1 3 1 3 1 2 1 3 1 3 1 3 1 2 1 3 1 3 1 3 1 3 1 3 2 3 1 3 2 4 1 3 2 3 2 3 2 3 2 4 0 0zm0 0c9,14 2,32 -15,40 -17,8 -38,2 -47,-13l62 -27zm60 71l-67 17 14 16 -4 -2 -3 -2 -2 -2 -2 -2 -3 -2 -2 -2 -2 -2 -3 -2 -2 -3 -2 -2 -2 -2 -3 -3 -2 -2 -2 -3 -3 -3 -2 -2 -2 -3 -2 -3 -3 -2 -2 -3 -2 -3 -2 -3 -2 -2 -2 -3 -2 -2 -2 -3 -2 -2 -1 -3 -2 -2 -2 -2 -1 -2 -1 -3 62 -27 0 1 1 1 1 2 2 2 1 2 1 2 2 2 2 2 1 2 2 2 2 3 2 2 2 3 2 2 2 2 2 3 2 2 2 2 2 2 2 3 2 2 1 2 2 2 2 1 1 2 2 1 1 1 1 1 1 1 1 0 0 0 -1 0 14 16zm-14 -16c16,9 20,28 9,41 -11,14 -33,17 -48,8l39 -49zm16 73l-59 -32 -5 14 0 -1 0 -1 0 -1 0 -1 0 -1 0 0 0 -1 0 -1 0 0 0 -1 -1 0 0 0 0 -1 0 0 0 0 0 0 0 -1 0 0 0 0 0 -1 0 0 -1 -1 0 -1 0 0 0 -1 -1 -1 0 -1 0 -1 -1 -1 0 -1 -1 -2 0 -1 67 -17 0 1 0 1 1 1 0 1 1 1 0 1 0 1 1 1 0 1 0 1 1 1 0 1 0 1 1 1 0 2 1 1 0 1 0 2 1 1 0 2 0 1 0 2 0 1 0 2 1 2 0 1 0 2 0 1 0 2 0 2 0 2 -1 1 -5 15zm5 -15c-1,17 -17,29 -36,29 -20,-1 -34,-15 -33,-32l69 3zm-47 54l-46 -45 0 0 1 -1 2 -1 1 -1 1 -1 2 -1 1 -1 1 -1 1 0 1 -1 1 -1 1 -1 1 0 1 -1 1 -1 0 0 1 -1 1 -1 0 0 1 -1 1 0 0 -1 1 -1 1 0 0 -1 1 -1 1 -1 1 -1 0 -1 1 -1 1 -1 1 -1 1 -1 59 32 -1 2 -2 1 -1 2 -1 1 -2 2 -1 2 -1 1 -2 2 -1 1 -1 1 -1 2 -2 1 -1 1 -1 2 -2 1 -1 1 -1 1 -2 1 -1 1 -1 1 -2 1 -1 1 -1 1 -1 1 -2 1 -1 1 -1 1 -1 1 -2 1 -1 1 -2 1 -1 1 0 0zm0 0c-14,11 -36,9 -49,-3 -13,-12 -12,-31 3,-42l46 45zm-29 5l-70 4 14 -26 1 -1 2 -1 1 0 1 -1 1 -1 1 -1 1 0 2 -1 1 -1 1 -1 1 -1 1 -1 2 0 1 -1 1 -1 1 -1 1 -1 2 -1 1 -1 1 -1 1 -1 1 -1 2 0 1 -1 1 -1 2 -1 1 -1 1 -1 1 -1 1 -1 2 -1 1 -1 46 45 -1 1 -1 1 -1 1 -2 0 -1 1 -1 1 -1 1 -2 1 -1 1 -1 1 -1 1 -2 1 -1 1 -1 1 -2 1 -1 1 -2 1 -1 1 -1 1 -2 1 -1 1 -2 1 -1 1 -1 1 -2 1 -1 1 -2 1 -1 1 -2 1 -1 1 -2 1 -1 1 14 -26zm-14 26c-16,10 -38,7 -49,-7 -12,-13 -8,-31 7,-41l42 48zm159 145l8 59 -8 0 -11 -1 -9 -3 -9 -4 -9 -4 -9 -5 -8 -5 -8 -5 -9 -7 -8 -6 -8 -7 -8 -7 -8 -8 -8 -7 -8 -8 -8 -9 -8 -8 -7 -9 -8 -8 -7 -9 -6 -8 -7 -9 -6 -9 -6 -8 -6 -9 -5 -8 -4 -8 -4 -8 -4 -8 -3 -8 -3 -8 -2 -7 -1 -8 70 -4 0 2 1 3 1 4 2 5 3 6 3 6 4 6 4 7 5 7 5 8 5 7 6 8 6 8 7 7 6 8 7 8 7 7 7 8 7 7 7 7 7 6 7 6 7 6 6 5 7 5 6 4 5 4 5 2 4 2 4 2 2 0 0 0 -8 0zm8 0c19,2 33,17 31,33 -2,17 -20,28 -39,26l8 -59z"/>
   </g>
   <g>
    <path class="fil4" d="M14970 6676l-40 -49 53 14 5 10 5 11 5 9 5 9 5 9 5 9 5 8 6 8 5 8 5 7 6 7 6 7 5 6 6 7 6 6 6 6 7 6 6 5 7 6 7 6 7 5 7 5 7 6 8 5 8 5 8 6 9 5 8 6 9 5 9 6 10 5 10 6 -40 49 -10 -6 -10 -6 -9 -5 -10 -6 -9 -6 -9 -6 -9 -6 -9 -6 -8 -5 -9 -7 -8 -6 -8 -6 -8 -6 -8 -7 -7 -7 -8 -7 -7 -7 -7 -7 -7 -8 -7 -7 -7 -8 -6 -9 -7 -8 -6 -9 -6 -9 -6 -9 -6 -10 -5 -10 -6 -10 -6 -11 -5 -11 -5 -12 52 14zm-52 -14c-7,-15 2,-32 20,-38 18,-6 38,2 45,17l-65 21zm-99 30l111 -65 40 49 -111 65 -1 1 -39 -50zm40 49c-16,10 -38,6 -49,-7 -11,-14 -7,-32 9,-42l40 49zm-126 60l-31 -53 0 0 4 -2 4 -2 4 -1 3 -2 4 -2 4 -1 4 -2 4 -2 4 -1 4 -2 3 -2 4 -1 4 -2 4 -2 4 -2 3 -1 4 -2 4 -2 3 -2 4 -1 4 -2 3 -2 4 -2 4 -1 3 -2 4 -2 3 -2 4 -2 3 -1 3 -2 4 -2 3 -2 38 50 -3 2 -4 2 -4 2 -3 2 -4 2 -4 2 -4 2 -4 2 -4 2 -3 2 -4 2 -4 1 -4 2 -4 2 -4 2 -4 2 -4 2 -4 2 -4 1 -4 2 -4 2 -4 2 -4 2 -4 1 -4 2 -4 2 -4 2 -4 1 -4 2 -4 2 -4 1 -4 2 0 0zm0 0c-17,7 -38,1 -47,-14 -8,-14 -1,-32 16,-39l31 53zm-41 20l-61 -29 0 0 1 -3 2 -2 2 -3 2 -2 3 -3 2 -2 2 -2 3 -2 2 -2 3 -2 2 -1 3 -2 3 -1 2 -2 2 -1 3 -1 2 -1 3 -1 2 -1 2 -1 3 -1 2 -1 2 -1 2 0 2 -1 2 -1 2 -1 2 0 2 -1 2 -1 2 -1 2 0 31 53 -3 1 -3 1 -2 1 -3 1 -2 1 -2 1 -3 1 -2 0 -2 1 -1 1 -2 0 -2 1 -1 1 -2 0 -1 1 -1 0 -1 1 -1 0 -1 1 0 0 -1 0 0 1 -1 0 0 0 -1 1 0 0 -1 1 0 0 -1 1 0 0 -1 1 0 1 0 0zm0 0c-10,14 -31,19 -48,11 -17,-8 -23,-26 -13,-40l61 29zm-6 63l-70 0 0 0 0 -2 0 -3 0 -2 0 -3 0 -2 0 -3 -1 -3 0 -2 0 -3 0 -3 0 -3 0 -2 0 -3 1 -3 0 -3 0 -3 0 -3 0 -3 1 -3 0 -3 1 -3 0 -3 1 -3 1 -3 0 -3 1 -3 2 -3 1 -3 1 -4 2 -3 2 -3 2 -3 61 29 -1 1 0 1 -1 1 0 1 -1 1 0 1 -1 2 0 1 -1 2 0 1 0 2 -1 2 0 2 0 2 0 1 0 3 0 2 -1 2 0 2 0 2 0 3 0 2 0 2 0 3 0 2 1 3 0 2 0 3 0 3 0 2 0 3 0 3 0 0zm0 0c0,16 -16,30 -35,30 -20,0 -35,-14 -35,-30l70 0zm-35 31l0 60 -35 -28 0 -2 0 -3 0 -2 0 -2 -1 -2 0 -2 0 -2 0 -2 0 -3 0 -2 0 -2 0 -2 0 -2 0 -2 0 -2 0 -2 0 -2 0 -2 0 -2 0 -2 0 -2 1 -2 0 -2 0 -2 0 -2 0 -2 0 -1 0 -2 0 -2 0 -1 0 -2 0 -1 70 0 0 2 0 1 0 2 0 2 0 1 0 2 0 2 0 2 0 2 0 2 -1 2 0 1 0 2 0 2 0 2 0 2 0 2 0 2 0 2 0 2 0 2 0 2 0 2 0 2 0 2 0 2 0 1 1 2 0 2 0 2 0 2 0 1 -35 -28zm35 28c1,17 -14,31 -33,32 -19,1 -36,-12 -37,-28l70 -4zm490 32l-525 0 0 -60 525 0 0 0 0 60zm0 -60c19,0 35,14 35,30 0,16 -16,30 -35,30l0 -60zm525 60l-525 0 0 -60 525 0 35 32 -35 28zm0 -60c20,0 35,14 35,30 0,16 -15,30 -35,30l0 -60zm-34 -31l70 0 0 0 0 1 0 2 0 1 0 2 0 2 0 1 0 2 0 2 0 2 0 2 0 2 0 2 0 2 0 2 0 2 0 2 0 2 0 2 0 2 0 2 0 2 0 2 0 2 0 3 0 2 0 2 0 2 0 2 0 2 0 2 -1 3 0 2 -70 -4 0 -1 1 -2 0 -2 0 -2 0 -2 0 -1 0 -2 0 -2 0 -2 0 -2 0 -2 0 -2 0 -2 0 -2 0 -2 0 -2 0 -2 0 -2 0 -2 0 -2 0 -1 0 -2 0 -2 0 -2 0 -2 0 -2 0 -2 0 -1 0 -2 0 -2 0 -1 0 -2 0 0zm0 0c0,-17 15,-30 35,-30 19,0 35,13 35,30l-70 0zm-7 -63l62 -29 0 0 2 3 1 3 2 3 1 4 2 3 1 3 1 3 1 3 0 3 1 3 1 3 0 3 1 3 0 3 0 3 0 3 1 3 0 3 0 3 0 3 0 2 0 3 0 3 0 3 0 2 0 3 0 3 0 2 0 3 0 2 0 3 0 2 -70 0 0 -3 0 -3 0 -2 0 -3 0 -3 0 -2 0 -3 0 -2 0 -3 0 -2 0 -2 0 -3 0 -2 0 -2 0 -2 0 -2 -1 -2 0 -3 0 -1 0 -2 0 -2 -1 -2 0 -1 -1 -2 0 -1 0 -2 -1 -1 0 -1 -1 -1 0 -1 -1 -1 -1 -1 0 0zm0 0c-9,-15 -3,-33 14,-41 17,-8 38,-2 48,12l-62 29zm-41 -20l31 -53 0 0 2 0 2 1 2 1 2 1 2 0 2 1 2 1 2 1 2 0 3 1 2 1 2 1 2 1 3 1 2 1 2 1 3 1 2 1 3 2 2 1 3 2 2 1 3 2 3 2 2 2 2 2 3 2 2 3 2 2 2 3 2 2 2 3 -62 29 0 -1 -1 -1 0 0 -1 -1 0 0 -1 -1 0 0 0 -1 -1 0 0 0 -1 -1 0 0 -1 0 -1 -1 -1 0 -1 -1 -1 0 -1 -1 -2 0 -1 -1 -2 -1 -1 0 -2 -1 -2 -1 -2 0 -2 -1 -3 -1 -2 -1 -3 -1 -2 -1 -3 -1 -3 -1 0 0zm0 0c-17,-7 -24,-25 -16,-40 9,-15 30,-21 47,-13l-31 53zm-126 -60l40 -49 -1 0 4 2 3 2 3 2 4 1 3 2 4 2 3 2 4 2 3 1 4 2 3 2 4 2 4 1 3 2 4 2 4 2 4 1 3 2 4 2 4 2 4 1 4 2 4 2 3 1 4 2 4 2 4 1 4 2 4 2 4 1 3 2 4 2 -31 53 -4 -2 -4 -1 -4 -2 -4 -2 -4 -1 -4 -2 -4 -2 -4 -2 -4 -1 -4 -2 -4 -2 -4 -2 -4 -2 -4 -1 -4 -2 -4 -2 -4 -2 -4 -2 -4 -2 -4 -2 -3 -1 -4 -2 -4 -2 -4 -2 -4 -2 -4 -2 -4 -2 -3 -2 -4 -2 -4 -2 -4 -2 -3 -2 -1 -1zm1 1c-16,-9 -21,-28 -10,-41 10,-14 32,-18 48,-9l-38 50zm-72 -115l111 65 -40 49 -111 -65 -13 -35 53 -14zm-40 49c-16,-9 -20,-28 -9,-41 11,-14 33,-17 49,-8l-40 49zm-226 229l40 -49 -40 0 10 -6 10 -5 9 -6 9 -5 9 -6 8 -5 8 -6 8 -5 8 -5 7 -6 8 -5 7 -5 6 -6 7 -6 7 -5 6 -6 6 -6 6 -6 6 -7 6 -6 5 -7 6 -7 5 -7 6 -8 5 -8 5 -8 5 -9 5 -9 5 -9 5 -9 5 -11 5 -10 66 21 -6 12 -5 11 -6 11 -5 10 -6 10 -6 10 -6 9 -6 9 -6 9 -7 8 -6 9 -7 8 -7 7 -7 8 -7 7 -7 7 -7 7 -8 7 -8 7 -8 6 -8 6 -8 6 -8 7 -9 5 -9 6 -9 6 -9 6 -9 6 -10 6 -9 5 -10 6 -10 6 -40 0zm40 0c-16,9 -38,6 -49,-8 -11,-13 -7,-32 9,-41l40 49z"/>
   </g>
   <g>
    <path class="fil4" d="M15529 11964c-12,12 -34,14 -49,4 -15,-10 -17,-29 -5,-42l54 38zm256 -268l-256 268 -54 -38 256 -267 54 37zm-54 -37c12,-13 34,-15 49,-5 15,11 17,29 5,42l-54 -37z"/>
   </g>
   <g>
    <path class="fil4" d="M15020 11548c-20,0 -35,-13 -35,-30 0,-17 15,-30 35,-30l0 60zm328 0l-328 0 0 -60 328 0 0 60zm0 -60c20,0 35,13 35,30 0,17 -15,30 -35,30l0 -60z"/>
   </g>
   <g>
    <path class="fil4" d="M14862 11842c-20,0 -35,-14 -35,-30 0,-17 15,-30 35,-30l0 60zm166 0l-166 0 0 -60 166 0 0 60zm0 -60c20,0 35,13 35,30 0,16 -15,30 -35,30l0 -60z"/>
   </g>
   <g>
    <path class="fil4" d="M14990 11811c0,16 -16,30 -35,30 -20,0 -35,-14 -35,-30l70 0zm0 -262l0 262 -70 0 0 -262 35 -29 35 29zm-70 0c0,-16 15,-29 35,-29 19,0 35,13 35,29l-70 0zm489 30l-454 0 0 -59 454 0 35 29 -35 30zm0 -59c19,0 35,13 35,29 0,17 -16,30 -35,30l0 -59zm-35 291l0 -262 70 0 0 262 -70 0zm70 0c0,16 -16,30 -35,30 -20,0 -35,-14 -35,-30l70 0z"/>
   </g>
   <g>
    <path class="fil4" d="M15326 11842c-20,0 -35,-14 -35,-30 0,-17 15,-30 35,-30l0 60zm166 0l-166 0 0 -60 166 0 0 60zm0 -60c19,0 35,13 35,30 0,16 -16,30 -35,30l0 -60z"/>
   </g>
   <g>
    <path class="fil7" d="M14594 11945l908 0 0 703 -908 0 0 -703z"/>
    <path id="1" class="fil4" d="M15502 11975l-908 0 0 -60 908 0 35 30 -35 30zm0 -60c19,0 35,13 35,30 0,16 -16,30 -35,30l0 -60zm-35 733l0 -703 70 0 0 703 -35 30 -35 -30zm70 0c0,17 -16,30 -35,30 -19,0 -35,-13 -35,-30l70 0zm-943 -29l908 0 0 59 -908 0 -35 -30 35 -29zm0 59c-19,0 -35,-13 -35,-30 0,-16 16,-29 35,-29l0 59zm35 -733l0 703 -70 0 0 -703 35 -30 35 30zm-70 0c0,-17 16,-30 35,-30 19,0 35,13 35,30l-70 0z"/>
   </g>
   <g>
    <path class="fil4" d="M14621 11964c-12,12 -34,14 -49,4 -15,-10 -17,-29 -5,-42l54 38zm256 -268l-256 268 -54 -38 256 -267 27 -11 27 48zm-54 -37c12,-13 34,-15 49,-5 15,11 17,29 5,42l-54 -37zm935 48l-908 0 0 -59 908 0 35 29 -35 30zm0 -59c19,0 35,13 35,29 0,17 -16,30 -35,30l0 -59zm-35 733l0 -704 70 0 0 704 -8 19 -62 -19zm70 0c0,16 -16,30 -35,30 -19,0 -35,-14 -35,-30l70 0zm-318 249l256 -268 54 38 -256 267 -54 -37zm54 37c-12,13 -34,15 -49,5 -15,-11 -17,-30 -5,-42l54 37z"/>
   </g>
   <g>
    <path class="fil5" d="M14278 9088c0,26 -23,47 -50,47 -28,0 -50,-21 -50,-47l100 0zm0 -1447l0 1447 -100 0 0 -1447 100 0zm-100 0c0,-26 22,-47 50,-47 27,0 50,21 50,47l-100 0zm-1595 1447c0,26 -22,47 -50,47 -28,0 -50,-21 -50,-47l100 0zm0 -1447l0 1447 -100 0 0 -1447 100 0zm-100 0c0,-26 22,-47 50,-47 28,0 50,21 50,47l-100 0z"/>
   </g>
   <g>
    <path class="fil5" d="M14278 10989c0,26 -23,47 -50,47 -28,0 -50,-21 -50,-47l100 0zm0 -1447l0 1447 -100 0 0 -1447 100 0zm-100 0c0,-26 22,-47 50,-47 27,0 50,21 50,47l-100 0zm-1595 1447c0,26 -22,47 -50,47 -28,0 -50,-21 -50,-47l100 0zm0 -1447l0 1447 -100 0 0 -1447 100 0zm-100 0c0,-26 22,-47 50,-47 28,0 50,21 50,47l-100 0z"/>
   </g>
   <g>
    <path class="fil5" d="M14278 12890c0,26 -23,47 -50,47 -28,0 -50,-21 -50,-47l100 0zm0 -1447l0 1447 -100 0 0 -1447 100 0zm-100 0c0,-26 22,-47 50,-47 27,0 50,21 50,47l-100 0zm-1595 1447c0,26 -22,47 -50,47 -28,0 -50,-21 -50,-47l100 0zm0 -1447l0 1447 -100 0 0 -1447 100 0zm-100 0c0,-26 22,-47 50,-47 28,0 50,21 50,47l-100 0z"/>
   </g>
   <g>
    <path class="fil8" d="M14278 7187c0,26 -23,47 -50,47 -28,0 -50,-21 -50,-47l100 0zm0 -1247l0 1247 -100 0 0 -1247 100 0zm-100 0c0,-26 22,-47 50,-47 27,0 50,21 50,47l-100 0zm-1595 1247c0,26 -22,47 -50,47 -28,0 -50,-21 -50,-47l100 0zm0 -1247l0 1247 -100 0 0 -1247 100 0zm-100 0c0,-26 22,-47 50,-47 28,0 50,21 50,47l-100 0z"/>
   </g>
   <g>
    <path class="fil8" d="M10816 7234c-34,0 -62,-21 -62,-47 0,-26 28,-48 62,-48l0 95zm5733 0l-5733 0 0 -95 5733 0 0 95zm0 -95c34,0 62,22 62,48 0,26 -28,47 -62,47l0 -95z"/>
   </g>
   <path class="fil8" d="M14794 12127c-21,0 -38,-14 -38,-32 0,-18 17,-32 38,-32l546 0c21,0 38,14 38,32 0,18 -17,32 -38,32l-546 0z"/>
   <path class="fil9 str3" d="M3812 5619c0,18 10,35 34,35 26,0 36,-17 36,-35l0 -474c0,-18 -11,-35 -37,-35 -14,0 -24,6 -35,26l-202 359 0 0c1,-13 3,-31 3,-52l0 -298c0,-18 -10,-35 -34,-35 -26,0 -36,17 -36,35l0 474c0,18 11,35 37,35 14,0 24,-6 35,-26l201 -359 1 0c-1,13 -3,32 -3,52l0 298zm315 35c25,0 35,-17 35,-35l0 -433 111 0c17,0 33,-10 33,-34 0,-23 -16,-34 -33,-34l-292 0c-17,0 -33,11 -33,34 0,24 16,34 33,34l110 0 0 433c0,18 11,35 36,35zm290 -393c0,-46 20,-83 72,-83l60 0c53,0 73,37 73,83l0 242c0,47 -20,83 -73,83l-60 0c-52,0 -72,-36 -72,-83l0 -242zm276 0c0,-83 -48,-151 -144,-151l-60 0c-96,0 -143,68 -143,151l0 242c0,83 47,151 143,151l60 0c96,0 144,-68 144,-151l0 -242zm146 -143c-28,0 -39,17 -39,35l0 466c0,18 11,35 36,35 24,0 35,-17 35,-35l0 -433 202 0c18,0 33,-10 33,-34 0,-23 -15,-34 -29,-34l-238 0zm398 143c0,-46 20,-83 72,-83l61 0c52,0 72,37 72,83l0 242c0,47 -20,83 -72,83l-61 0c-52,0 -72,-36 -72,-83l0 -242zm276 0c0,-83 -47,-151 -143,-151l-61 0c-95,0 -143,68 -143,151l0 242c0,83 48,151 143,151l61 0c96,0 143,-68 143,-151l0 -242zm178 150l124 0c52,0 72,34 72,80l0 16c0,46 -20,71 -72,71l-124 0 0 -167zm0 -67l0 -158 92 0c51,0 72,18 72,63l0 18c0,46 -21,77 -72,77l-92 0zm267 147c0,-63 -28,-107 -83,-124 33,-20 51,-54 51,-100l0 -18c0,-84 -48,-131 -143,-131l-126 0c-26,0 -37,17 -37,35l0 458c0,19 11,35 37,35l158 0c96,0 143,-54 143,-139l0 -16zm537 128l0 -474c0,-18 -10,-35 -35,-35 -24,0 -35,17 -35,35l0 474c0,18 10,35 34,35 25,0 36,-17 36,-35zm-280 -297l-94 0 0 -177c0,-18 -10,-35 -35,-35 -25,0 -36,17 -36,35l0 466c0,19 11,35 37,35l128 0c97,0 145,-63 145,-146l0 -34c0,-85 -45,-144 -145,-144zm74 185c0,46 -20,71 -73,71l-95 0 0 -188 94 0c52,0 74,27 74,72l0 45zm493 -437c68,0 105,-49 105,-101 0,-16 -12,-26 -28,-26 -16,0 -27,10 -28,27 -2,28 -21,48 -49,48 -29,0 -47,-20 -49,-48 -2,-17 -12,-27 -28,-27 -16,0 -28,10 -28,26 0,52 36,101 105,101zm99 549c0,18 9,35 34,35 25,0 35,-17 35,-35l0 -474c0,-18 -11,-35 -36,-35 -15,0 -24,6 -36,26l-201 359 -1 0c2,-13 3,-31 3,-52l0 -298c0,-18 -10,-35 -34,-35 -26,0 -35,17 -35,35l0 474c0,18 10,35 36,35 14,0 24,-6 35,-26l202 -359 1 0c-2,13 -3,32 -3,52l0 298zm492 -68c5,-43 44,-365 44,-365l132 0 0 433c0,18 11,35 36,35 25,0 35,-17 35,-35l0 -466c0,-18 -10,-35 -35,-35l-197 0c-21,0 -34,14 -36,35 -2,22 -43,351 -47,381 -2,17 -4,28 -9,36 -7,14 -20,18 -42,18 -18,0 -35,11 -35,36 0,25 17,33 35,33 66,0 93,-21 108,-58 5,-15 8,-28 11,-48zm633 68c0,18 10,35 34,35 25,0 35,-17 35,-35l0 -474c0,-18 -10,-35 -36,-35 -14,0 -24,6 -36,26l-201 359 -1 0c2,-13 3,-31 3,-52l0 -298c0,-18 -10,-35 -34,-35 -25,0 -35,17 -35,35l0 474c0,18 10,35 36,35 14,0 24,-6 36,-26l201 -359 1 0c-2,13 -3,32 -3,52l0 298zm320 -33c-52,0 -73,-36 -73,-83l0 -242c0,-46 21,-83 73,-83l77 0c32,0 50,14 53,45 1,18 10,35 34,35 26,0 36,-17 36,-35 0,-79 -46,-113 -123,-113l-77 0c-96,0 -144,68 -144,151l0 242c0,83 48,151 144,151l77 0c77,0 123,-34 123,-113 0,-18 -10,-34 -36,-34 -24,0 -33,16 -34,34 -3,32 -21,45 -53,45l-77 0zm420 68c25,0 36,-17 36,-35l0 -433 110 0c17,0 33,-10 33,-34 0,-23 -16,-34 -33,-34l-292 0c-17,0 -33,11 -33,34 0,24 16,34 33,34l111 0 0 433c0,18 10,35 35,35zm583 -68c-52,0 -72,-36 -72,-83l0 -242c0,-46 20,-83 72,-83l77 0c33,0 50,14 53,45 2,18 11,35 35,35 26,0 36,-17 36,-35 0,-79 -47,-113 -124,-113l-77 0c-95,0 -143,68 -143,151l0 242c0,83 48,151 143,151l77 0c77,0 124,-34 124,-113 0,-18 -10,-34 -36,-34 -24,0 -33,16 -35,34 -3,32 -20,45 -53,45l-77 0zm544 -400l0 433c0,18 10,35 36,35 24,0 35,-17 35,-35l0 -466c0,-18 -11,-35 -35,-35l-254 0c-25,0 -36,17 -36,35l0 466c0,18 11,35 36,35 25,0 35,-17 35,-35l0 -433 183 0zm457 433c0,18 10,35 34,35 26,0 35,-17 35,-35l0 -474c0,-18 -10,-35 -36,-35 -14,0 -24,6 -35,26l-202 359 0 0c1,-13 3,-31 3,-52l0 -298c0,-18 -10,-35 -34,-35 -26,0 -36,17 -36,35l0 474c0,18 11,35 36,35 15,0 25,-6 36,-26l201 -359 1 0c-1,13 -3,32 -3,52l0 298zm320 -33c-52,0 -72,-36 -72,-83l0 -242c0,-46 20,-83 72,-83l77 0c32,0 50,14 53,45 1,18 10,35 35,35 25,0 36,-17 36,-35 0,-79 -47,-113 -124,-113l-77 0c-96,0 -143,68 -143,151l0 242c0,83 47,151 143,151l77 0c77,0 124,-34 124,-113 0,-18 -11,-34 -36,-34 -25,0 -34,16 -35,34 -3,32 -21,45 -53,45l-77 0zm626 12l-162 -230 154 -200c14,-18 14,-36 -1,-50 -19,-17 -40,-8 -53,7l-159 216 -45 0 0 -196c0,-18 -11,-35 -35,-35 -25,0 -36,17 -36,35l0 474c0,18 11,35 36,35 24,0 35,-17 35,-35l0 -211 46 0 162 231c10,15 29,23 49,9 21,-15 20,-35 9,-50zm320 -100l43 132c6,18 23,28 43,21 20,-6 28,-24 22,-43l-152 -472c-5,-17 -15,-26 -36,-26l-3 0c-22,0 -31,9 -36,26l-152 472c-6,19 2,37 22,43 20,7 37,-3 43,-21l43 -132 163 0zm-93 -228c5,-17 7,-25 11,-43l1 0c4,18 6,26 11,43l51 164 -126 0 52 -164zm743 349c0,18 10,35 34,35 26,0 36,-17 36,-35l0 -474c0,-18 -11,-35 -37,-35 -14,0 -24,6 -35,26l-202 359 0 0c1,-13 3,-31 3,-52l0 -298c0,-18 -10,-35 -34,-35 -26,0 -36,17 -36,35l0 474c0,18 11,35 36,35 15,0 25,-6 36,-26l201 -359 1 0c-1,13 -3,32 -3,52l0 298zm405 -370c0,46 -32,88 -83,88l-28 0c-17,0 -33,11 -33,33 0,24 16,33 33,33l56 0c52,0 73,42 73,88l0 17c0,47 -17,78 -74,78l-56 0c-30,0 -57,-13 -60,-45 -2,-18 -11,-34 -35,-34 -26,0 -36,16 -36,34 0,72 53,113 130,113l63 0c91,0 139,-63 139,-146l0 -17c0,-63 -30,-117 -88,-132 51,-22 70,-64 70,-110 0,-83 -41,-139 -142,-139l-33 0c-77,0 -129,39 -129,113 0,18 11,35 36,35 25,0 34,-17 35,-35 2,-30 32,-45 64,-45l27 0c51,0 71,21 71,71zm361 78l-109 0 0 -141 192 0c17,0 33,-10 33,-34 0,-23 -16,-34 -33,-34l-227 0c-26,0 -36,17 -36,35l0 458c0,19 10,35 36,35l144 0c97,0 145,-63 145,-146l0 -34c0,-85 -48,-139 -145,-139zm74 180c0,46 -20,71 -72,71l-111 0 0 -188 109 0c52,0 74,27 74,72l0 45zm434 112c0,18 10,35 34,35 26,0 35,-17 35,-35l0 -474c0,-18 -10,-35 -36,-35 -14,0 -24,6 -35,26l-202 359 -1 0c2,-13 3,-31 3,-52l0 -298c0,-18 -9,-35 -34,-35 -25,0 -35,17 -35,35l0 474c0,18 11,35 36,35 15,0 24,-6 36,-26l201 -359 1 0c-2,13 -3,32 -3,52l0 298zm255 -246l0 -188 118 0c52,0 74,26 74,72l0 38c0,46 -22,78 -74,78l-118 0zm118 68c97,0 145,-63 145,-146l0 -38c0,-85 -48,-139 -145,-139l-154 0c-24,0 -35,17 -35,35l0 466c0,18 11,35 36,35 24,0 35,-17 35,-35l0 -178 118 0zm428 57l42 132c6,18 23,28 44,21 19,-6 28,-24 22,-43l-153 -472c-5,-17 -14,-26 -35,-26l-4 0c-21,0 -30,9 -36,26l-152 472c-6,19 2,37 22,43 20,7 38,-3 44,-21l42 -132 164 0zm-94 -228c5,-17 8,-25 11,-43l1 0c4,18 6,26 11,43l52 164 -126 0 51 -164zm359 384c25,0 36,-17 36,-35l0 -433 110 0c17,0 33,-10 33,-34 0,-23 -16,-34 -33,-34l-291 0c-18,0 -34,11 -34,34 0,24 16,34 34,34l110 0 0 433c0,18 10,35 35,35zm523 -8c18,0 33,-10 33,-34 0,-22 -15,-34 -33,-34l-207 0 0 -170 171 0c17,0 33,-9 33,-34 0,-22 -16,-33 -33,-33l-171 0 0 -155 207 0c18,0 33,-10 33,-34 0,-23 -15,-34 -33,-34l-243 0c-24,0 -35,17 -35,35l0 458c0,19 11,35 35,35l243 0zm231 -95c5,-43 45,-365 45,-365l132 0 0 433c0,18 10,35 36,35 24,0 35,-17 35,-35l0 -466c0,-18 -11,-35 -35,-35l-197 0c-22,0 -34,14 -36,35 -3,22 -43,351 -47,381 -2,17 -5,28 -9,36 -8,14 -20,18 -42,18 -18,0 -35,11 -35,36 0,25 17,33 35,33 65,0 92,-21 108,-58 5,-15 8,-28 10,-48zm640 95c17,0 33,-10 33,-34 0,-22 -16,-34 -33,-34l-207 0 0 -170 171 0c17,0 33,-9 33,-34 0,-22 -16,-33 -33,-33l-171 0 0 -155 207 0c17,0 33,-10 33,-34 0,-23 -16,-34 -33,-34l-243 0c-24,0 -35,17 -35,35l0 458c0,19 11,35 35,35l243 0zm290 -576c69,0 105,-49 105,-101 0,-16 -12,-26 -28,-26 -16,0 -27,10 -28,27 -2,28 -20,48 -49,48 -29,0 -47,-20 -49,-48 -2,-17 -12,-27 -28,-27 -16,0 -28,10 -28,26 0,52 36,101 105,101zm99 549c0,18 10,35 34,35 25,0 35,-17 35,-35l0 -474c0,-18 -10,-35 -36,-35 -14,0 -24,6 -36,26l-201 359 -1 0c2,-13 3,-31 3,-52l0 -298c0,-18 -10,-35 -34,-35 -25,0 -35,17 -35,35l0 474c0,18 10,35 36,35 14,0 24,-6 35,-26l202 -359 1 0c-2,13 -3,32 -3,52l0 298z"/>
   <g>
    <path class="fil4" d="M15415 9702c-12,12 -34,14 -49,4 -15,-11 -17,-29 -5,-42l54 38zm399 -417l-399 417 -54 -38 399 -417 54 38zm-54 -38c12,-13 34,-14 49,-4 15,10 18,29 5,42l-54 -38z"/>
   </g>
   <g>
    <path class="fil7" d="M14594 9696l812 0 0 1104 -812 0 0 -1104z"/>
    <path id="1" class="fil4" d="M15406 9751l-812 0 0 -110 812 0 35 55 -35 55zm0 -110c19,0 35,25 35,55 0,31 -16,55 -35,55l0 -110zm-35 1159l0 -1104 70 0 0 1104 -35 55 -35 -55zm70 0c0,30 -16,55 -35,55 -19,0 -35,-25 -35,-55l70 0zm-847 -55l812 0 0 110 -812 0 -35 -55 35 -55zm0 110c-19,0 -35,-25 -35,-55 0,-31 16,-55 35,-55l0 110zm35 -1159l0 1104 -70 0 0 -1104 35 -55 35 55zm-70 0c0,-30 16,-55 35,-55 19,0 35,25 35,55l-70 0z"/>
   </g>
   <g>
    <path class="fil4" d="M14624 9691c-12,13 -34,15 -49,4 -15,-10 -18,-28 -6,-41l55 37zm382 -407l-382 407 -55 -37 382 -407 27 -11 28 48zm-55 -37c12,-12 34,-15 49,-4 15,10 18,29 6,41l-55 -37zm836 49l-809 0 0 -60 809 0 35 30 -35 30zm0 -60c20,0 35,13 35,30 0,16 -15,30 -35,30l0 -60zm-35 1180l0 -1150 70 0 0 1150 -7 18 -63 -18zm70 0c0,16 -15,29 -35,29 -19,0 -35,-13 -35,-29l70 0zm-444 387l382 -406 55 37 -382 407 -55 -38zm55 38c-12,12 -34,15 -49,4 -15,-10 -18,-29 -6,-42l55 38z"/>
   </g>
   <path class="fil7" d="M14981 9495c-21,0 -38,-14 -38,-32 0,-18 17,-32 38,-32l430 0c21,0 38,14 38,32 0,18 -17,32 -38,32l-430 0z"/>
   <g>
    <path class="fil4" d="M15718 9729c0,13 -13,24 -29,24 -16,0 -29,-11 -29,-24l58 0zm0 -99l0 99 -58 0 0 -99 7 -16 51 16zm-58 0c0,-14 13,-25 29,-25 16,0 29,11 29,25l-58 0zm-157 155l164 -171 44 31 -163 171 -51 -16 6 -15zm45 31c-10,10 -28,12 -41,3 -12,-8 -14,-24 -4,-34l45 31zm-51 82l0 -98 57 0 0 98 -57 0zm57 0c0,14 -13,25 -28,25 -16,0 -29,-11 -29,-25l57 0z"/>
   </g>
   <path class="fil4 str1" d="M7466 13460l0 288c0,12 6,23 24,23 16,0 23,-11 23,-23l0 -310c0,-12 -7,-24 -23,-24l-170 0c-16,0 -23,12 -23,24l0 310c0,12 7,23 23,23 17,0 24,-11 24,-23l0 -288 122 0zm171 124l0 -125 78 0c35,0 49,18 49,48l0 25c0,31 -14,52 -49,52l-78 0zm78 45c65,0 96,-42 96,-97l0 -25c0,-56 -31,-93 -96,-93l-102 0c-16,0 -24,12 -24,24l0 310c0,12 8,23 24,23 17,0 24,-11 24,-23l0 -119 78 0zm340 137c12,0 23,-7 23,-23 0,-15 -11,-22 -23,-22l-137 0 0 -113 113 0c12,0 22,-7 22,-23 0,-15 -10,-22 -22,-22l-113 0 0 -103 137 0c12,0 23,-7 23,-23 0,-15 -11,-23 -23,-23l-161 0c-16,0 -23,12 -23,24l0 305c0,12 7,23 23,23l161 0zm316 -45l-10 0 0 -283c0,-12 -7,-24 -23,-24l-121 0c-16,0 -23,11 -25,24l-45 283 -16 0c-16,0 -23,11 -23,23l0 65c0,12 7,23 23,23 17,0 24,-11 24,-23l0 -43 192 0 0 43c0,12 7,23 24,23 16,0 23,-11 23,-23l0 -65c0,-12 -7,-23 -23,-23l0 0zm-172 -35l35 -226 80 0 0 261 -122 0c3,-13 5,-23 7,-35zm337 40c-35,0 -48,-24 -48,-55l0 -161c0,-31 13,-55 48,-55l51 0c22,0 33,9 35,29 1,12 7,23 23,23 17,0 25,-11 25,-23 0,-52 -32,-75 -83,-75l-51 0c-64,0 -95,46 -95,101l0 161c0,55 31,100 95,100l51 0c51,0 83,-23 83,-75 0,-12 -8,-23 -25,-23 -16,0 -22,11 -23,23 -2,21 -13,30 -35,30l-51 0zm378 40c11,0 22,-7 22,-23 0,-15 -11,-22 -22,-22l-138 0 0 -113 113 0c12,0 23,-7 23,-23 0,-15 -11,-22 -23,-22l-113 0 0 -103 138 0c11,0 22,-7 22,-23 0,-15 -11,-23 -22,-23l-162 0c-16,0 -23,12 -23,24l0 305c0,12 7,23 23,23l162 0zm315 -45l-10 0 0 -283c0,-12 -7,-24 -23,-24l-121 0c-16,0 -23,11 -25,24l-45 283 -16 0c-16,0 -23,11 -23,23l0 65c0,12 7,23 23,23 17,0 24,-11 24,-23l0 -43 192 0 0 43c0,12 7,23 24,23 16,0 23,-11 23,-23l0 -65c0,-12 -7,-23 -23,-23l0 0zm-172 -35l35 -226 80 0 0 261 -122 0c3,-13 5,-23 7,-35zm402 -19l28 88c4,12 16,19 29,14 13,-4 19,-16 15,-28l-102 -314c-3,-12 -9,-18 -23,-18l-3 0c-14,0 -20,6 -23,18l-102 314c-4,12 2,24 15,28 13,5 25,-2 29,-14l28 -88 109 0zm-62 -152c3,-11 5,-16 7,-28l1 0c2,12 4,17 7,28l34 110 -84 0 35 -110zm239 256c16,0 23,-11 23,-23l0 -288 73 0c12,0 23,-7 23,-23 0,-15 -11,-23 -23,-23l-193 0c-12,0 -22,8 -22,23 0,16 10,23 22,23l73 0 0 288c0,12 7,23 24,23zm348 -5c11,0 22,-7 22,-23 0,-15 -11,-22 -22,-22l-138 0 0 -113 113 0c12,0 23,-7 23,-23 0,-15 -11,-22 -23,-22l-113 0 0 -103 138 0c11,0 22,-7 22,-23 0,-15 -11,-23 -22,-23l-162 0c-16,0 -23,12 -23,24l0 305c0,12 7,23 23,23l162 0zm153 -63c4,-29 30,-243 30,-243l88 0 0 288c0,12 7,23 24,23 16,0 23,-11 23,-23l0 -310c0,-12 -7,-24 -23,-24l-131 0c-15,0 -23,10 -24,24 -2,14 -29,234 -31,253 -2,12 -3,19 -7,24 -5,10 -13,12 -28,12 -12,0 -23,8 -23,24 0,17 11,22 23,22 44,0 62,-14 72,-39 4,-9 6,-18 7,-31zm368 -152l-80 0 0 -118c0,-13 -7,-24 -23,-24 -17,0 -24,11 -24,24l0 310c0,12 7,23 24,23l103 0c65,0 96,-42 96,-97l0 -23c0,-56 -30,-95 -96,-95zm49 123c0,30 -14,47 -48,47l-81 0 0 -125 80 0c34,0 49,17 49,47l0 31zm438 -264c-16,-4 -25,5 -29,17 0,0 -24,95 -46,173 -3,0 -19,0 -36,0 -18,0 -27,-11 -30,-22 -7,-25 -40,-151 -40,-151 -3,-12 -13,-21 -28,-17 -17,4 -21,17 -18,29 0,0 30,113 39,145 8,34 24,59 84,59 7,0 16,0 16,0l1 0c-8,30 -16,51 -18,56 -6,15 -25,22 -38,22l-19 0c-13,0 -23,8 -23,23 0,16 10,24 23,24l19 0c33,0 63,-11 82,-51 8,-18 9,-22 15,-44 6,-23 63,-234 63,-234 3,-11 -1,-24 -17,-29zm245 338c0,12 6,23 22,23 17,0 24,-11 24,-23l0 -315c0,-13 -7,-24 -24,-24 -10,0 -16,4 -24,18l-134 239 0 0c1,-10 2,-22 2,-35l0 -198c0,-13 -7,-24 -23,-24 -17,0 -23,11 -23,24l0 315c0,12 7,23 24,23 9,0 16,-4 23,-17l134 -239 1 0c-1,9 -2,21 -2,35l0 198zm346 -14l-108 -153 103 -133c9,-12 9,-25 -1,-34 -12,-11 -27,-5 -35,5l-106 144 -30 0 0 -130c0,-13 -7,-24 -23,-24 -17,0 -24,11 -24,24l0 315c0,12 7,23 24,23 16,0 23,-11 23,-23l0 -140 31 0 108 153c6,10 19,15 32,6 14,-10 13,-23 6,-33z"/>
   <path class="fil4 str1" d="M7392 14605c-34,0 -48,-25 -48,-56l0 -160c0,-32 14,-56 48,-56l51 0c22,0 34,9 36,30 1,12 7,23 23,23 17,0 24,-11 24,-23 0,-52 -31,-75 -83,-75l-51 0c-64,0 -95,45 -95,101l0 160c0,56 31,101 95,101l51 0c52,0 83,-23 83,-75 0,-12 -7,-23 -24,-23 -16,0 -22,11 -23,23 -2,21 -14,30 -36,30l-51 0zm378 40c11,0 22,-7 22,-23 0,-15 -11,-23 -22,-23l-138 0 0 -112 114 0c11,0 22,-7 22,-23 0,-15 -11,-23 -22,-23l-114 0 0 -103 138 0c11,0 22,-6 22,-22 0,-15 -11,-23 -22,-23l-162 0c-16,0 -23,11 -23,23l0 306c0,12 7,23 23,23l162 0zm302 -32l-108 -154 102 -133c10,-11 10,-24 -1,-33 -12,-11 -26,-5 -35,5l-105 143 -30 0 0 -130c0,-12 -7,-23 -23,-23 -17,0 -24,11 -24,23l0 316c0,12 7,23 24,23 16,0 23,-11 23,-23l0 -140 30 0 108 153c7,10 19,15 33,6 14,-10 13,-23 6,-33zm106 -150l0 -125 79 0c34,0 49,17 49,48l0 25c0,30 -15,52 -49,52l-79 0zm79 45c65,0 96,-42 96,-97l0 -25c0,-57 -31,-93 -96,-93l-103 0c-16,0 -23,11 -23,23l0 311c0,12 7,23 24,23 16,0 23,-11 23,-23l0 -119 79 0zm340 137c12,0 22,-7 22,-23 0,-15 -10,-23 -22,-23l-137 0 0 -112 113 0c12,0 22,-7 22,-23 0,-15 -10,-23 -22,-23l-113 0 0 -103 137 0c12,0 22,-6 22,-22 0,-15 -10,-23 -22,-23l-161 0c-17,0 -24,11 -24,23l0 306c0,12 7,23 24,23l161 0zm168 5c17,0 24,-11 24,-23l0 -289 73 0c11,0 22,-6 22,-22 0,-15 -11,-23 -22,-23l-194 0c-12,0 -22,8 -22,23 0,16 10,22 22,22l73 0 0 289c0,12 7,23 24,23zm286 -104l28 88c4,12 15,19 29,14 13,-4 18,-16 14,-28l-101 -315c-4,-11 -10,-17 -24,-17l-2 0c-14,0 -20,6 -24,17l-101 315c-4,12 1,24 14,28 14,5 26,-2 30,-14l28 -88 109 0zm-63 -152c4,-11 5,-16 8,-28l0 0c3,12 4,17 8,28l34 110 -84 0 34 -110zm227 69l0 -125 79 0c34,0 49,17 49,48l0 25c0,30 -15,52 -49,52l-79 0zm79 45c64,0 96,-42 96,-97l0 -25c0,-57 -32,-93 -96,-93l-103 0c-16,0 -23,11 -23,23l0 311c0,12 7,23 24,23 16,0 23,-11 23,-23l0 -119 79 0zm282 -79l-80 0 0 -118c0,-12 -7,-23 -23,-23 -17,0 -24,11 -24,23l0 311c0,12 7,23 24,23l103 0c65,0 96,-43 96,-98l0 -22c0,-57 -30,-96 -96,-96zm49 123c0,30 -14,47 -48,47l-81 0 0 -125 80 0c34,0 49,18 49,48l0 30zm438 -263c-16,-4 -25,5 -29,17 0,0 -24,95 -45,173 -4,0 -20,0 -37,0 -18,0 -27,-12 -30,-22 -7,-26 -40,-152 -40,-152 -3,-11 -12,-20 -28,-16 -17,4 -21,17 -18,28 0,0 30,113 39,145 8,35 24,60 84,60 7,0 16,0 16,0l2 0c-9,29 -17,51 -19,55 -6,16 -25,22 -38,22l-19 0c-13,0 -23,9 -23,24 0,16 10,24 23,24l19 0c33,0 64,-11 82,-51 8,-18 9,-23 15,-45 6,-22 63,-233 63,-233 3,-12 -1,-24 -17,-29zm245 338c0,12 6,23 22,23 18,0 24,-11 24,-23l0 -316c0,-12 -7,-23 -24,-23 -10,0 -16,4 -24,17l-134 239 0 0c1,-9 2,-21 2,-34l0 -199c0,-12 -7,-23 -23,-23 -17,0 -23,11 -23,23l0 316c0,12 7,23 24,23 9,0 16,-4 23,-17l134 -239 1 0c-1,9 -2,21 -2,34l0 199zm346 -14l-108 -154 103 -133c9,-11 9,-24 -1,-33 -12,-11 -27,-5 -35,5l-106 143 -30 0 0 -130c0,-12 -7,-23 -23,-23 -17,0 -24,11 -24,23l0 316c0,12 7,23 24,23 16,0 23,-11 23,-23l0 -140 31 0 108 153c6,10 19,15 32,6 14,-10 13,-23 6,-33z"/>
   <path class="fil10 str4" d="M15192 13974c-427,1483 -135,643 -333,511 -199,-133 720,-637 660,-232 -60,406 -721,308 -702,394 18,85 276,144 354,-72 78,-217 -36,168 168,102 204,-67 288,-259 255,-151 -33,108 24,90 132,24 108,-66 231,-135 231,-135"/>
   <path class="fil10 str4" d="M14919 13624c0,125 90,147 201,124 225,-46 284,-628 222,-591 -88,54 -357,94 -361,276 -1,40 5,71 17,94 80,160 429,-55 585,-88 211,-45 40,-317 -190,-182 -51,30 -274,153 -298,204 -89,188 66,189 195,202 113,11 647,-217 635,-195 -1,3 -98,199 -38,158 100,-68 708,-152 401,-209 -87,-16 -416,-60 -496,-41"/>
   <path class="fil10 str5" d="M13317 13459c331,-88 672,108 761,440 89,332 -108,672 -440,761 -331,89 -672,-108 -761,-439 -89,-332 108,-673 440,-762zm-304 603c-1,-206 136,-395 344,-451 209,-56 422,39 524,218m61 229c1,206 -136,395 -344,451 -209,56 -422,-39 -524,-218m471 59c-54,15 -7,-51 -73,-34 -30,9 -81,94 -96,83 -17,-11 -64,-47 -57,-64 15,-37 19,-80 59,-102 -28,-20 -111,9 -121,-31 0,-1 -177,-104 -97,-174 16,-14 -17,-64 -5,-100 10,-30 237,-4 228,-36 -4,-15 -29,-50 -81,-56 -9,-1 48,-15 79,-28 6,-2 -15,-22 -11,-25 12,-9 13,-12 29,-16m604 142c0,1 -34,35 -9,42m-1030 269c-3,-24 38,-25 0,-52m600 177c54,-14 -19,-48 46,-65 31,-9 118,40 125,23 9,-18 32,-73 17,-84 -32,-24 -56,-60 -102,-59 14,-31 101,-48 89,-87 0,-1 102,-178 -3,-199 -20,-5 -17,-64 -45,-90 -24,-21 -207,115 -216,83 -4,-14 0,-58 43,-89 7,-5 -50,12 -83,16 -6,1 2,-27 -2,-28 -16,-2 -18,-4 -34,1"/>
  </g>
 </g>
</svg>
