<?xml version="1.0" encoding="UTF-8"?>
<!DOCTYPE svg PUBLIC "-//W3C//DTD SVG 1.0//EN" "http://www.w3.org/TR/2001/REC-SVG-20010904/DTD/svg10.dtd">
<!-- Creator: CorelDRAW X7 -->
<svg xmlns="http://www.w3.org/2000/svg" xml:space="preserve" width="115.711mm" height="70.5555mm" version="1.0" style="shape-rendering:geometricPrecision; text-rendering:geometricPrecision; image-rendering:optimizeQuality; fill-rule:evenodd; clip-rule:evenodd"
viewBox="0 0 11571 7056"
 xmlns:xlink="http://www.w3.org/1999/xlink">
 <defs>
  <style type="text/css">
   <![CDATA[
    .str0 {stroke:#F20909;stroke-width:17.6389}
    .fil1 {fill:#F20909}
    .fil0 {fill:url(#id0)}
   ]]>
  </style>
  <radialGradient id="id0" gradientUnits="userSpaceOnUse" gradientTransform="matrix(1.17124 -0 -0 1.92083 -989 -3248)" cx="5776.27" cy="3526.7" r="3527.77" fx="5776.27" fy="3526.7">
   <stop offset="0" style="stop-opacity:1; stop-color:#FEFEFE"/>
   <stop offset="0.439216" style="stop-opacity:1; stop-color:#FEFEFE"/>
   <stop offset="1" style="stop-opacity:1; stop-color:#D1E2F2"/>
  </radialGradient>
 </defs>
 <g id="Layer_x0020_1">
  <metadata id="CorelCorpID_0Corel-Layer"/>
  <g id="_421792252672">
   <path class="fil0" d="M-9 -1l11571 0 0 7055 -11571 0 0 -7055z"/>
   <path class="fil1 str0" d="M2096 3634l172 -171c4,-3 9,-5 14,-5 5,0 10,2 15,6 4,4 6,9 6,15 0,3 -2,8 -6,14l-122 121 126 222 3 11c0,5 -2,9 -7,13 -4,4 -9,6 -15,6 -6,0 -12,-3 -17,-10l-120 -213 -49 48 0 155c0,6 -2,12 -6,15 -3,4 -8,5 -14,5 -5,0 -10,-1 -14,-5 -4,-3 -6,-8 -6,-15l0 -368c0,-5 2,-10 6,-14 4,-4 9,-6 14,-6 5,0 10,1 14,5 4,3 6,8 6,15l0 156zm429 232l-82 0c-22,0 -41,-7 -57,-23 -16,-16 -24,-35 -24,-58l0 -184c0,-6 2,-11 6,-15 4,-4 9,-6 14,-6 5,0 10,2 14,5 4,4 6,9 6,16l0 184c0,11 4,21 12,29 4,4 8,7 13,9 6,2 11,3 16,3l82 0 0 -225c0,-6 2,-11 6,-15 4,-4 9,-6 15,-6 5,0 10,2 14,5 4,4 6,9 6,16l0 306c0,22 -8,42 -24,58 -16,16 -35,24 -58,24l-82 0c-5,0 -10,-2 -15,-6 -3,-4 -5,-9 -5,-14 0,-6 2,-11 5,-15 4,-4 9,-6 15,-6l82 0c12,0 22,-4 29,-11 8,-8 12,-18 12,-30l0 -41zm163 -40l82 0c11,0 21,-4 29,-12 8,-7 12,-17 12,-29l0 -123c0,-12 -4,-21 -11,-29 -8,-8 -18,-12 -30,-12l-82 0 0 205zm0 40l0 103c0,5 -2,10 -6,14 -4,4 -9,6 -14,6 -5,0 -9,-2 -14,-5 -4,-4 -7,-9 -7,-15l0 -368c0,-14 7,-21 21,-21l102 0c22,0 41,8 58,24 16,16 24,35 24,58l0 123c0,22 -8,41 -24,57 -16,16 -36,24 -58,24l-82 0zm388 0l-61 0c-22,0 -41,-7 -57,-23 -17,-16 -25,-35 -25,-58l0 -123c0,-23 8,-42 24,-58 16,-16 35,-24 58,-24l61 0c6,0 11,2 15,7 4,4 6,8 6,14 0,4 -2,9 -5,13 -4,5 -9,7 -16,7l-61 0c-12,0 -21,4 -29,12 -4,4 -7,8 -9,13 -2,5 -3,10 -3,16l0 123c0,11 4,21 12,29 4,4 8,7 13,9 6,2 11,3 16,3l61 0c6,0 11,2 15,6 4,4 6,9 6,14 0,5 -2,9 -5,14 -4,4 -9,6 -16,6zm511 -163l0 -102c0,-6 2,-11 6,-15 4,-4 9,-6 14,-6 5,0 10,2 14,5 5,4 7,9 7,16l0 245c0,6 -2,12 -6,15 -4,4 -9,5 -15,5 -5,0 -10,-1 -14,-5 -4,-3 -6,-8 -6,-15l0 -103 -123 0 0 103c0,6 -2,12 -6,15 -4,4 -8,5 -14,5 -6,0 -11,-1 -15,-5 -4,-3 -6,-8 -6,-15l0 -245c0,-6 2,-11 6,-15 4,-4 9,-6 15,-6 5,0 10,2 14,5 4,4 6,9 6,16l0 102 123 0zm286 82l0 -164 -82 0c-12,0 -22,4 -29,12 -4,4 -7,8 -9,13 -2,5 -3,10 -3,16l0 123c0,11 4,21 12,29 4,4 8,7 13,9 6,2 11,3 16,3l41 0c11,0 21,-4 29,-12 8,-7 12,-17 12,-29zm20 55c-7,7 -16,14 -27,19 -12,5 -23,7 -34,7l-41 0c-22,0 -41,-7 -57,-23 -17,-16 -25,-35 -25,-58l0 -123c0,-23 8,-42 24,-58 16,-16 35,-24 58,-24l102 0c14,0 20,7 20,21l0 183c0,8 3,17 8,25 5,8 12,14 21,18 8,4 12,10 12,18 0,7 -2,11 -5,15 -4,4 -9,6 -15,6 -3,0 -6,0 -8,-2 -14,-5 -25,-13 -33,-24zm229 -116l75 111 3 6 0 5c0,6 -2,10 -6,15l-4 2 -4 2 -8 1c-5,0 -11,-3 -16,-9l-65 -96 -64 96c-4,6 -10,9 -17,9 -4,0 -9,-2 -14,-6 -5,-4 -7,-9 -7,-14 0,-4 1,-8 3,-12l75 -111 -75 -111 -3 -6 0 -6c0,-5 2,-10 6,-14 4,-4 9,-6 16,-6 5,0 11,3 16,9l64 98 65 -97c4,-7 10,-10 17,-10 4,0 9,2 15,6 4,5 6,10 6,15 0,4 -1,7 -4,11l-74 112zm363 53c0,24 -9,45 -26,63 -17,18 -39,26 -64,26l-24 0c-25,0 -46,-8 -63,-26 -18,-17 -27,-38 -27,-63l0 -107c0,-24 9,-45 26,-63 18,-18 39,-27 64,-27l24 0c25,0 46,9 63,26 18,18 27,39 27,64l0 107zm-41 0l0 -107c0,-13 -4,-25 -14,-35 -9,-9 -21,-14 -35,-14l-24 0c-14,0 -25,5 -35,14 -10,10 -15,21 -15,35l0 107c0,13 5,25 15,34 9,10 21,15 35,15l24 0c14,0 25,-5 35,-14 10,-10 14,-21 14,-35zm286 -156l-82 0c-11,0 -21,4 -29,12 -4,4 -7,8 -9,13 -2,5 -3,10 -3,16l0 123c0,11 4,21 12,29 4,4 8,7 13,9 6,2 11,3 16,3l41 0c12,0 21,-4 29,-12 8,-7 12,-17 12,-29l0 -164zm0 -41l0 -41c0,-11 -4,-21 -11,-29 -8,-8 -18,-12 -30,-12l-81 0c-7,0 -12,-1 -16,-5 -3,-4 -5,-9 -5,-15 0,-5 2,-9 5,-13 4,-5 9,-7 15,-7l82 0c23,0 42,8 58,24 16,16 24,35 24,58l0 245c0,22 -8,41 -24,57 -16,16 -35,24 -58,24l-41 0c-22,0 -41,-7 -57,-23 -16,-16 -24,-35 -24,-58l0 -123c0,-23 8,-42 24,-58 16,-16 35,-24 57,-24l82 0zm327 266c0,14 -7,20 -21,20l-102 0c-22,0 -41,-7 -57,-23 -16,-16 -24,-35 -24,-58l0 -184c0,-6 1,-11 6,-15 4,-4 8,-6 14,-6 5,0 10,2 14,5 4,4 6,9 6,16l0 184c0,11 4,21 12,29 4,4 8,7 13,9 6,2 11,3 16,3l82 0 0 -225c0,-6 2,-11 6,-15 4,-4 9,-6 14,-6 6,0 10,2 15,5 4,4 6,9 6,16l0 245zm204 -225l-82 0 0 225c0,6 -2,12 -6,15 -3,4 -8,5 -14,5 -6,0 -11,-1 -15,-5 -4,-3 -6,-8 -6,-15l0 -245c0,-14 7,-21 21,-21l183 0c22,0 42,8 58,24 16,16 24,35 24,58l0 184c0,6 -2,12 -6,15 -4,4 -8,5 -14,5 -6,0 -11,-1 -15,-5 -4,-3 -6,-8 -6,-15l0 -184c0,-12 -4,-21 -11,-29 -8,-8 -18,-12 -30,-12l-41 0 0 225c0,6 -1,12 -5,15 -4,4 -9,5 -15,5 -5,0 -10,-1 -14,-5 -4,-3 -6,-8 -6,-15l0 -225zm388 245l-61 0c-22,0 -42,-7 -58,-23 -16,-16 -24,-35 -24,-58l0 -123c0,-23 8,-42 24,-58 16,-16 35,-24 58,-24l61 0c6,0 10,2 14,7 4,4 6,8 6,14 0,4 -1,9 -5,13 -3,5 -8,7 -15,7l-62 0c-11,0 -21,4 -29,12 -4,4 -7,8 -9,13 -2,5 -3,10 -3,16l0 123c0,11 4,21 12,29 4,4 9,7 13,9 6,2 12,3 16,3l62 0c6,0 10,2 14,6 4,4 6,9 6,14 0,5 -1,9 -5,14 -3,4 -8,6 -15,6zm266 -163l0 -82 -83 0c-11,0 -21,4 -30,12 -7,8 -11,18 -11,29 0,11 4,20 11,29 7,8 17,12 30,12l83 0zm-51 41l-76 113c-1,3 -4,5 -7,7l-10 2c-4,0 -8,-2 -14,-6 -4,-4 -6,-9 -6,-14 0,-4 1,-7 3,-11l61 -92c-20,-3 -35,-13 -47,-28 -11,-16 -17,-34 -17,-53 0,-22 7,-41 20,-56 16,-17 36,-26 62,-26l102 0c13,0 20,7 20,21l0 245c0,6 -2,12 -6,15 -3,4 -8,5 -14,5 -6,0 -10,-1 -14,-5 -4,-3 -6,-8 -6,-15l0 -102 -51 0zm581 41l0 -123c0,-11 -3,-21 -11,-29 -8,-8 -18,-12 -30,-12l-41 0c-11,0 -21,4 -29,12 -4,4 -7,8 -9,13 -2,5 -3,11 -3,16l0 123c0,11 4,21 12,29 4,4 9,7 13,9 6,2 11,3 16,3l41 0c12,0 21,-4 29,-12 8,-7 12,-17 12,-29zm-123 -190l17 -11 24 -17c8,-6 14,-11 17,-15 5,-7 8,-13 8,-20 0,-10 -3,-17 -10,-24 -7,-6 -14,-8 -23,-8 -9,0 -17,2 -23,8 -6,5 -10,13 -10,24l0 63zm82 -13c26,0 47,8 62,23 13,15 20,34 20,57l0 123c0,22 -8,41 -24,57 -16,16 -35,24 -58,24l-41 0c-22,0 -41,-7 -57,-23 -16,-16 -24,-35 -24,-58l0 -253c0,-23 7,-41 22,-56 15,-12 32,-18 51,-18 19,0 36,6 51,19 15,13 23,31 23,54 0,14 -2,23 -6,30 -3,7 -10,14 -19,21zm449 244l82 0c12,0 21,-4 29,-12 8,-7 12,-17 12,-29l0 -123c0,-12 -4,-21 -11,-29 -8,-8 -18,-12 -30,-12l-82 0 0 205zm0 40l0 103c0,5 -2,10 -6,14 -4,4 -9,6 -14,6 -5,0 -9,-2 -14,-5 -4,-4 -6,-9 -6,-15l0 -368c0,-14 6,-21 20,-21l102 0c22,0 41,8 58,24 16,16 24,35 24,58l0 123c0,22 -8,41 -24,57 -16,16 -35,24 -58,24l-82 0zm409 -81l0 -164 -82 0c-11,0 -21,4 -29,12 -4,4 -7,8 -9,13 -2,5 -3,10 -3,16l0 123c0,11 4,21 12,29 4,4 8,7 13,9 6,2 11,3 16,3l41 0c11,0 21,-4 29,-12 8,-7 12,-17 12,-29zm20 55c-6,7 -16,14 -27,19 -11,5 -23,7 -34,7l-41 0c-22,0 -41,-7 -57,-23 -16,-16 -25,-35 -25,-58l0 -123c0,-23 8,-42 24,-58 16,-16 36,-24 58,-24l102 0c14,0 21,7 21,21l0 183c0,8 2,17 8,25 4,8 11,14 20,18 8,4 13,10 13,18 0,7 -2,11 -6,15 -4,4 -8,6 -15,6 -3,0 -5,0 -8,-2 -13,-5 -24,-13 -33,-24zm210 -97l-26 0c-6,0 -11,-1 -15,-5 -3,-4 -5,-9 -5,-15 0,-5 2,-9 5,-14 4,-4 9,-6 15,-6l21 0c12,0 22,-4 29,-13 8,-8 12,-17 12,-28 0,-12 -4,-21 -10,-29 -4,-3 -8,-6 -13,-9 -5,-2 -11,-3 -18,-3l-21 0c-19,0 -35,6 -49,17 -3,2 -7,4 -12,4 -5,0 -9,-2 -15,-6 -4,-4 -5,-9 -5,-15 0,-6 2,-12 8,-16 21,-17 45,-25 73,-25l21 0c25,0 46,9 61,26 13,15 20,34 20,56 0,7 0,12 -1,18 -1,5 -3,10 -5,16 -4,9 -10,18 -19,27 7,8 14,17 19,28l4 17c2,5 2,11 2,17 0,22 -7,41 -20,56 -15,17 -35,25 -61,25l-21 0c-27,0 -52,-8 -73,-24 -6,-4 -9,-10 -9,-16 0,-5 2,-10 6,-14 5,-5 9,-8 15,-8 3,0 8,2 12,5 14,11 31,17 49,17l21 0c12,0 22,-4 29,-13 8,-8 12,-18 12,-29 0,-10 -3,-19 -9,-26 -6,-8 -15,-12 -27,-15zm198 83l82 0c12,0 21,-4 29,-12 8,-7 12,-17 12,-29l0 -123c0,-12 -4,-21 -11,-29 -8,-8 -18,-12 -30,-12l-82 0 0 205zm0 40l0 103c0,5 -2,10 -6,14 -4,4 -9,6 -14,6 -5,0 -9,-2 -14,-5 -4,-4 -6,-9 -6,-15l0 -368c0,-14 6,-21 20,-21l102 0c22,0 42,8 58,24 16,16 24,35 24,58l0 123c0,22 -8,41 -24,57 -16,16 -35,24 -58,24l-82 0zm409 -81l0 -164 -82 0c-11,0 -21,4 -29,12 -4,4 -7,8 -9,13 -2,5 -3,10 -3,16l0 123c0,11 4,21 12,29 4,4 8,7 13,9 6,2 11,3 16,3l41 0c12,0 21,-4 29,-12 8,-7 12,-17 12,-29zm20 55c-6,7 -15,14 -27,19 -11,5 -23,7 -34,7l-41 0c-22,0 -41,-7 -57,-23 -16,-16 -24,-35 -24,-58l0 -123c0,-23 7,-42 23,-58 16,-16 36,-24 58,-24l102 0c14,0 21,7 21,21l0 183c0,8 2,17 8,25 4,8 11,14 20,18 9,4 13,10 13,18 0,7 -2,11 -6,15 -4,4 -8,6 -14,6 -3,0 -6,0 -9,-2 -13,-5 -24,-13 -33,-24zm266 -55l0 -123c0,-12 -4,-21 -12,-29 -7,-8 -17,-12 -29,-12l-41 0c-12,0 -21,4 -29,12 -4,4 -7,8 -9,13 -2,5 -3,10 -3,16l0 123c0,11 4,21 12,29 4,4 8,7 13,9 6,2 11,3 16,3l41 0c11,0 21,-4 29,-12 8,-7 12,-17 12,-29zm-66 -205l-92 -87c-4,-5 -7,-11 -7,-17 0,-4 2,-8 5,-12 4,-4 9,-6 17,-6l163 0c6,0 11,2 15,6 4,4 6,9 6,14 0,5 -2,9 -5,14 -4,4 -9,6 -16,6l-112 0 108 104 5 7c13,15 20,33 20,53l0 123c0,22 -8,41 -24,57 -16,16 -35,24 -58,24l-41 0c-22,0 -41,-7 -57,-23 -16,-16 -25,-35 -25,-58l0 -123c0,-23 8,-42 24,-58 16,-16 36,-24 58,-24l16 0zm393 197c0,24 -9,45 -27,63 -17,18 -38,26 -63,26l-25 0c-24,0 -45,-8 -63,-26 -18,-17 -27,-38 -27,-63l0 -107c0,-24 9,-45 26,-63 18,-18 39,-27 64,-27l25 0c24,0 45,9 63,26 18,18 27,39 27,64l0 107zm-41 0l0 -107c0,-13 -5,-25 -14,-35 -10,-9 -21,-14 -35,-14l-25 0c-13,0 -25,5 -35,14 -9,10 -14,21 -14,35l0 107c0,13 5,25 14,34 10,10 21,15 35,15l25 0c13,0 24,-5 34,-14 10,-10 15,-21 15,-35zm245 -156l-82 0 0 225c0,6 -2,12 -6,15 -4,4 -9,5 -15,5 -5,0 -10,-1 -14,-5 -4,-3 -6,-8 -6,-15l0 -245c0,-14 7,-21 20,-21l184 0c22,0 41,8 57,24 17,16 25,35 25,58l0 184c0,6 -2,12 -6,15 -4,4 -9,5 -15,5 -5,0 -10,-1 -14,-5 -4,-3 -6,-8 -6,-15l0 -184c0,-12 -4,-21 -12,-29 -7,-8 -17,-12 -29,-12l-41 0 0 225c0,6 -2,12 -6,15 -3,4 -8,5 -14,5 -6,0 -10,-1 -14,-5 -4,-3 -6,-8 -6,-15l0 -225zm327 112l-46 48 0 65c0,6 -2,12 -6,15 -3,4 -8,5 -14,5 -6,0 -10,-1 -15,-5 -4,-3 -6,-8 -6,-15l0 -245c0,-5 2,-11 6,-15 5,-4 9,-5 15,-5 5,0 10,1 14,5 4,3 6,8 6,15l0 121 130 -136c3,-4 8,-6 13,-6 4,0 9,2 14,6 4,4 6,9 6,15 0,6 -2,11 -7,16l-81 86 84 130c3,5 4,10 4,14 0,5 -2,10 -7,14 -4,4 -8,6 -14,6 -5,0 -10,-3 -14,-8l-82 -126zm226 -30l123 0 0 -41c0,-11 -4,-21 -12,-29 -8,-8 -17,-12 -29,-12l-41 0c-12,0 -22,4 -30,12 -4,4 -7,8 -9,13 -1,5 -2,10 -2,16l0 41zm0 41l0 41c0,11 3,21 11,29 4,4 9,7 13,9 6,2 12,3 16,3l103 0c5,0 10,2 14,6 4,4 6,9 6,14 0,5 -1,9 -5,14 -3,4 -8,6 -15,6l-102 0c-23,0 -42,-8 -58,-23 -16,-16 -24,-35 -24,-58l0 -123c0,-22 8,-41 24,-57 15,-17 35,-25 58,-25l41 0c22,0 41,8 57,24 16,16 24,35 24,58l0 61c0,14 -7,21 -20,21l-143 0z"/>
  </g>
 </g>
</svg>
