<?xml version="1.0" encoding="UTF-8"?>
<!DOCTYPE svg PUBLIC "-//W3C//DTD SVG 1.0//EN" "http://www.w3.org/TR/2001/REC-SVG-20010904/DTD/svg10.dtd">
<!-- Creator: CorelDRAW X7 -->
<svg xmlns="http://www.w3.org/2000/svg" xml:space="preserve" width="115.711mm" height="70.5556mm" version="1.0" style="shape-rendering:geometricPrecision; text-rendering:geometricPrecision; image-rendering:optimizeQuality; fill-rule:evenodd; clip-rule:evenodd"
viewBox="0 0 11571 7056"
 xmlns:xlink="http://www.w3.org/1999/xlink">
 <defs>
  <style type="text/css">
   <![CDATA[
    .str6 {stroke:#A37C66;stroke-width:19.08;stroke-linecap:round;stroke-linejoin:round}
    .str7 {stroke:#A37C66;stroke-width:11.6;stroke-linecap:round;stroke-linejoin:round}
    .str4 {stroke:#7688A1;stroke-width:150;stroke-linecap:round;stroke-linejoin:round}
    .str9 {stroke:#493A8B;stroke-width:250;stroke-linecap:round;stroke-linejoin:round}
    .str5 {stroke:#AB8082;stroke-width:49.06;stroke-linecap:round;stroke-linejoin:round}
    .str3 {stroke:#7688A1;stroke-width:49.06;stroke-linecap:round;stroke-linejoin:round}
    .str8 {stroke:#7690C9;stroke-width:24.53;stroke-linecap:round;stroke-linejoin:round}
    .str1 {stroke:#5797B4;stroke-width:24.53;stroke-linecap:round;stroke-linejoin:round}
    .str2 {stroke:#008DD2;stroke-width:24.53;stroke-linecap:round;stroke-linejoin:round}
    .str0 {stroke:#AB8082;stroke-width:55.6;stroke-linecap:round;stroke-linejoin:round}
    .fil4 {fill:none}
    .fil9 {fill:none;fill-rule:nonzero}
    .fil6 {fill:#FEFEFE}
    .fil10 {fill:#EBECEC}
    .fil2 {fill:#FFFBDB}
    .fil3 {fill:#FDEAD2}
    .fil1 {fill:#FCD5A6}
    .fil11 {fill:#7690C9}
    .fil5 {fill:#FCD5A6;fill-rule:nonzero}
    .fil8 {fill:#A37C66;fill-rule:nonzero}
    .fil7 {fill:#493A8B;fill-rule:nonzero}
    .fil0 {fill:url(#id0)}
   ]]>
  </style>
  <radialGradient id="id0" gradientUnits="userSpaceOnUse" cx="6103.05" cy="3845.28" r="5785.57" fx="6103.05" fy="3845.28">
   <stop offset="0" style="stop-color:#FEFEFE"/>
   <stop offset="0.45098" style="stop-color:#FEFEFE"/>
   <stop offset="1" style="stop-color:#D2E2F2"/>
  </radialGradient>
 </defs>
 <g id="Layer_x0020_1">
  <metadata id="CorelCorpID_0Corel-Layer"/>
  <g id="_581199356464">
   <path class="fil0" d="M0 0l11571 0 0 7056 -11571 0 0 -7056z"/>
   <path class="fil1" d="M4759 5790l0 -2359 -589 -1973 0 2358 589 1974z"/>
   <path class="fil2" d="M8179 3431l-3420 0 -589 -1973 3538 0 0 395 118 0 0 394 117 0 0 395 118 0 0 394 118 0 0 395z"/>
   <path class="fil3" d="M8297 5790l-3538 0c0,-884 0,-1476 0,-2359l3538 0 0 2359z"/>
   <path class="fil1" d="M4759 3431l3538 0 0 1073 -3538 -893c6,-93 0,-118 0,-180z"/>
   <path class="fil4 str0" d="M8297 5790l-3538 0c0,-884 0,-1476 0,-2359l3538 0 0 2359z"/>
   <g>
    <path class="fil5" d="M4909 4879c-6,0 -12,-5 -12,-11 0,-6 6,-11 12,-11l0 22zm3245 0l-3245 0 0 -22 3245 0 0 22zm0 -22c6,0 12,5 12,11 0,6 -6,11 -12,11l0 -22z"/>
   </g>
   <path class="fil6" d="M4716 3933l1066 0 0 1086 -1066 0 0 -1086z"/>
   <path class="fil4 str1" d="M5407 4582c-140,485 -44,210 -109,167 -65,-43 236,-208 216,-75 -20,132 -236,100 -230,128 6,28 91,47 116,-23 26,-71 -12,55 55,33 67,-22 94,-84 83,-49 -10,35 8,29 44,8 35,-22 75,-44 75,-44"/>
   <path class="fil4 str2" d="M5290 4050c129,-34 262,42 297,172 35,129 -42,262 -172,297 -129,34 -262,-42 -297,-172 -34,-129 43,-262 172,-297zm-119 235c0,-80 53,-154 135,-176 81,-21 164,16 204,86m24 89c0,80 -53,154 -134,176 -82,22 -165,-16 -205,-85m184 23c-21,6 -3,-20 -28,-13 -12,3 -32,36 -38,32 -6,-5 -25,-18 -22,-25 6,-15 7,-31 23,-40 -11,-8 -44,4 -47,-12 0,0 -69,-40 -38,-68 6,-5 -7,-25 -2,-39 4,-12 92,-1 89,-14 -2,-6 -11,-20 -32,-22 -3,0 19,-5 31,-10 3,-1 -6,-9 -4,-10 4,-4 5,-5 11,-7m236 56c0,0 -14,14 -4,16m-402 105c-1,-9 15,-10 0,-20m235 69c21,-6 -8,-19 17,-26 12,-3 46,16 49,9 3,-7 12,-28 7,-32 -13,-10 -22,-24 -40,-23 6,-12 39,-19 35,-34 0,-1 39,-70 -1,-78 -8,-2 -7,-25 -18,-35 -9,-8 -81,45 -84,32 -2,-5 0,-22 16,-34 3,-2 -19,4 -32,6 -2,0 1,-11 -1,-11 -6,-1 -7,-2 -13,0"/>
   <path class="fil4 str3" d="M4953 4808c0,35 28,63 63,63 34,0 62,-28 62,-63"/>
   <path class="fil4 str3" d="M4953 4104c0,35 28,62 63,62 34,0 62,-27 62,-62"/>
   <path class="fil4 str4" d="M4716 5019l1066 0 0 -1086"/>
   <path class="fil4 str5" d="M4953 5514c0,35 28,63 63,63 34,0 62,-28 62,-63"/>
   <g>
    <path class="fil7" d="M4210 2067c1,23 -16,42 -38,42 -22,1 -41,-16 -42,-39l80 -3zm-106 -119l75 -29 0 0 3 8 3 7 2 7 2 7 2 7 2 7 2 7 1 7 2 6 1 6 1 6 2 6 1 6 1 6 1 5 0 5 1 5 1 4 0 5 1 4 0 4 1 3 0 4 0 3 1 3 0 2 0 2 0 2 0 1 0 2 0 1 0 0 -80 3 0 0 0 0 0 -1 0 -1 0 -1 0 -2 0 -1 -1 -3 0 -2 0 -3 0 -3 -1 -3 0 -3 -1 -4 0 -4 -1 -4 -1 -4 0 -5 -1 -5 -1 -5 -1 -5 -1 -5 -1 -5 -2 -6 -1 -5 -2 -6 -1 -6 -2 -6 -2 -6 -2 -6 -2 -6 -2 -6 0 0zm0 0c-8,-22 3,-45 24,-53 21,-8 44,3 51,24l-75 29zm-376 -320l68 -43 7 10 7 9 8 9 9 8 9 8 10 9 11 7 11 8 12 7 13 8 13 7 13 7 14 8 14 7 14 7 15 8 14 8 15 8 15 9 15 9 14 10 15 10 14 12 14 11 13 13 13 14 12 14 12 16 11 17 10 18 9 18 7 20 -75 29 -6 -15 -7 -14 -7 -13 -8 -13 -8 -11 -10 -11 -9 -10 -11 -10 -11 -9 -11 -9 -12 -9 -12 -8 -13 -8 -13 -8 -14 -8 -14 -7 -14 -8 -14 -7 -14 -8 -14 -7 -14 -8 -15 -8 -14 -8 -14 -9 -13 -9 -14 -10 -13 -10 -13 -11 -12 -12 -11 -13 -11 -14 -10 -15zm0 0c-12,-19 -6,-44 13,-56 19,-12 44,-6 55,13l-68 43z"/>
   </g>
   <path class="fil8 str6" d="M6454 4350c-21,0 -29,-14 -29,-32l0 -94c0,-18 8,-32 29,-32l29 0c13,0 20,5 21,17 1,7 4,13 13,13 10,0 15,-6 15,-13 0,-31 -19,-44 -49,-44l-29 0c-38,0 -56,27 -56,59l0 94c0,32 18,58 56,58l29 0c30,0 49,-13 49,-43 0,-7 -5,-14 -15,-14 -9,0 -12,7 -13,14 -1,12 -8,17 -21,17l-29 0zm211 -155l0 168c0,7 4,13 14,13 9,0 14,-6 14,-13l0 -181c0,-7 -5,-14 -14,-14l-99 0c-9,0 -14,7 -14,14l0 181c0,7 5,13 14,13 10,0 14,-6 14,-13l0 -168 71 0zm177 168c0,7 4,13 14,13 10,0 13,-6 13,-13l0 -184c0,-7 -4,-14 -14,-14 -5,0 -9,2 -13,10l-79 140 0 0c1,-5 1,-12 1,-20l0 -116c0,-7 -4,-14 -13,-14 -10,0 -14,7 -14,14l0 184c0,7 4,13 14,13 6,0 10,-2 14,-10l78 -139 1 0c-1,5 -2,12 -2,20l0 116zm125 -13c-20,0 -28,-14 -28,-32l0 -94c0,-18 8,-32 28,-32l30 0c12,0 19,5 20,17 1,7 4,13 14,13 10,0 14,-6 14,-13 0,-31 -18,-44 -48,-44l-30 0c-37,0 -56,27 -56,59l0 94c0,32 19,58 56,58l30 0c30,0 48,-13 48,-43 0,-7 -4,-14 -14,-14 -10,0 -13,7 -14,14 -1,12 -8,17 -20,17l-30 0zm137 -126c0,-18 8,-32 28,-32l24 0c20,0 28,14 28,32l0 94c0,18 -8,32 -28,32l-24 0c-20,0 -28,-14 -28,-32l0 -94zm107 0c0,-32 -18,-59 -55,-59l-24 0c-37,0 -55,27 -55,59l0 94c0,32 18,58 55,58l24 0c37,0 55,-26 55,-58l0 -94zm173 131l-63 -90 60 -77c5,-7 5,-15 -1,-20 -7,-6 -15,-3 -20,3l-62 84 -18 0 0 -76c0,-7 -4,-14 -13,-14 -10,0 -14,7 -14,14l0 184c0,7 4,13 14,13 9,0 13,-6 13,-13l0 -82 18 0 63 90c4,5 11,9 19,3 9,-5 8,-13 4,-19zm-1259 385c0,7 4,14 13,14 10,0 14,-7 14,-14l0 -184c0,-7 -4,-13 -14,-13 -5,0 -9,2 -14,10l-78 139 0 0c0,-5 1,-12 1,-20l0 -116c0,-7 -4,-13 -13,-13 -10,0 -14,6 -14,13l0 184c0,7 4,14 14,14 6,0 9,-2 14,-10l78 -140 0 0c0,6 -1,13 -1,21l0 115zm158 -143c0,17 -13,34 -33,34l-10 0c-7,0 -13,4 -13,13 0,9 6,13 13,13l21 0c21,0 29,16 29,34l0 6c0,19 -7,31 -29,31l-22 0c-11,0 -22,-5 -23,-18 -1,-7 -4,-13 -14,-13 -10,0 -14,6 -14,13 0,28 21,44 51,44l24 0c36,0 54,-24 54,-57l0 -6c0,-25 -11,-46 -34,-51 20,-9 27,-25 27,-43 0,-33 -16,-54 -55,-54l-13 0c-30,0 -50,15 -50,43 0,7 4,14 14,14 10,0 13,-7 14,-14 0,-11 12,-17 25,-17l10 0c20,0 28,8 28,28zm140 30l-43 0 0 -55 75 0c7,0 13,-4 13,-13 0,-9 -6,-13 -13,-13l-88 0c-10,0 -14,6 -14,13l0 179c0,7 4,13 14,13l56 0c38,0 56,-25 56,-57l0 -13c0,-33 -18,-54 -56,-54zm29 70c0,18 -8,28 -28,28l-44 0 0 -73 43 0c20,0 29,10 29,27l0 18zm168 43c0,7 4,14 14,14 10,0 13,-7 13,-14l0 -184c0,-7 -4,-13 -14,-13 -5,0 -9,2 -13,10l-79 139 0 0c0,-5 1,-12 1,-20l0 -116c0,-7 -4,-13 -13,-13 -10,0 -14,6 -14,13l0 184c0,7 4,14 14,14 6,0 10,-2 14,-10l78 -140 1 0c-1,6 -2,13 -2,21l0 115zm100 -95l0 -73 45 0c21,0 29,10 29,28l0 14c0,18 -8,31 -29,31l-45 0zm45 26c38,0 57,-24 57,-57l0 -14c0,-33 -19,-54 -57,-54l-60 0c-9,0 -13,6 -13,13l0 181c0,7 4,14 14,14 9,0 14,-7 14,-14l0 -69 45 0zm167 22l16 52c2,7 9,11 17,8 8,-3 11,-10 9,-17l-60 -183c-2,-7 -5,-10 -13,-10l-2 0c-8,0 -12,3 -14,10l-59 183c-2,7 1,14 9,17 7,3 14,-1 17,-8l16 -52 64 0zm-37 -88c2,-7 3,-10 5,-17l0 0c1,7 2,10 4,17l20 64 -49 0 20 -64zm140 149c10,0 14,-7 14,-14l0 -168 42 0c7,0 13,-4 13,-13 0,-9 -6,-13 -13,-13l-113 0c-6,0 -13,4 -13,13 0,9 7,13 13,13l43 0 0 168c0,7 4,14 14,14zm203 -3c7,0 13,-4 13,-13 0,-9 -6,-13 -13,-13l-80 0 0 -66 66 0c7,0 13,-4 13,-14 0,-8 -6,-13 -13,-13l-66 0 0 -60 80 0c7,0 13,-4 13,-13 0,-9 -6,-13 -13,-13l-94 0c-10,0 -14,6 -14,13l0 179c0,7 4,13 14,13l94 0zm90 -37c2,-17 17,-142 17,-142l52 0 0 168c0,7 4,14 14,14 9,0 13,-7 13,-14l0 -181c0,-7 -4,-13 -13,-13l-77 0c-8,0 -13,5 -14,13 -1,9 -17,137 -18,148 -1,7 -2,11 -4,14 -3,6 -8,7 -16,7 -7,0 -14,5 -14,14 0,10 7,13 14,13 25,0 36,-8 42,-22 2,-6 3,-11 4,-19zm249 37c6,0 13,-4 13,-13 0,-9 -7,-13 -13,-13l-81 0 0 -66 67 0c6,0 12,-4 12,-14 0,-8 -6,-13 -12,-13l-67 0 0 -60 81 0c6,0 13,-4 13,-13 0,-9 -7,-13 -13,-13l-95 0c-9,0 -13,6 -13,13l0 179c0,7 4,13 13,13l95 0zm112 -224c27,0 41,-19 41,-39 0,-6 -5,-10 -11,-10 -6,0 -10,4 -11,10 -1,11 -8,19 -19,19 -11,0 -18,-8 -19,-19 0,-6 -5,-10 -11,-10 -6,0 -11,4 -11,10 0,20 15,39 41,39zm39 213c0,7 3,14 13,14 10,0 14,-7 14,-14l0 -184c0,-7 -4,-13 -14,-13 -6,0 -10,2 -14,10l-79 139 0 0c1,-5 1,-12 1,-20l0 -116c0,-7 -3,-13 -13,-13 -10,0 -14,6 -14,13l0 184c0,7 4,14 14,14 6,0 10,-2 14,-10l79 -140 0 0c-1,6 -1,13 -1,21l0 115z"/>
   <path class="fil8 str7" d="M5313 3304l-38 -55 36 -47c3,-4 3,-9 0,-12 -5,-4 -10,-2 -13,2l-37 51 -11 0 0 -46c0,-5 -2,-9 -8,-9 -6,0 -9,4 -9,9l0 112c0,4 3,8 9,8 6,0 8,-4 8,-8l0 -50 11 0 38 54c3,4 7,6 12,2 5,-3 5,-8 2,-11zm101 -107c0,-5 -2,-9 -8,-9 -6,0 -8,4 -8,9l0 44 -47 0 0 -44c0,-5 -2,-9 -9,-9 -5,0 -8,4 -8,9l0 112c0,4 3,8 8,8 6,0 9,-4 9,-8l0 -52 47 0 0 52c0,4 2,8 8,8 6,0 8,-4 8,-8l0 -112zm92 112c0,4 2,8 8,8 6,0 8,-4 8,-8l0 -112c0,-5 -3,-9 -9,-9 -3,0 -5,2 -8,6l-48 85 0 0c1,-3 1,-7 1,-12l0 -70c0,-5 -2,-9 -8,-9 -6,0 -8,4 -8,9l0 112c0,4 2,8 8,8 4,0 6,-2 9,-6l47 -85 0 0c0,3 0,7 0,12l0 71zm52 -119c-6,0 -9,4 -9,8l0 111c0,4 3,8 8,8 6,0 9,-4 9,-8l0 -103 48 0c4,0 7,-2 7,-8 0,-5 -3,-8 -7,-8l-56 0zm118 90l10 31c2,4 6,7 11,5 4,-1 6,-6 5,-10l-36 -112c-1,-3 -4,-6 -9,-6l0 0c-5,0 -8,3 -9,6l-36 112c-1,4 1,9 5,10 5,2 9,-1 11,-5l10 -31 38 0zm-22 -54c1,-4 2,-6 3,-10l0 0c1,4 1,6 3,10l12 39 -30 0 12 -39zm167 38c0,5 1,10 1,13l0 0 -40 -83c-3,-4 -5,-6 -9,-6 -6,0 -8,4 -8,9l0 112c0,4 2,8 8,8 6,0 8,-4 8,-8l0 -68c0,-5 -1,-10 -1,-13l0 0 40 83c3,4 5,6 9,6 6,0 8,-4 8,-8l0 -112c0,-5 -2,-9 -8,-9 -6,0 -8,4 -8,9l0 67zm45 -38c-5,0 -7,-3 -7,-8l0 -9c0,-5 2,-8 7,-8l3 0c5,0 7,3 7,8l0 9c0,5 -2,8 -7,8l-3 0zm3 12c12,0 18,-8 18,-19l0 -11c0,-11 -6,-19 -18,-19l-3 0c-12,0 -18,8 -18,19l0 11c0,11 6,19 18,19l3 0zm12 21c4,0 7,-2 7,-6 0,-5 -3,-7 -7,-7l-27 0c-4,0 -7,2 -7,7 0,4 3,6 7,6l27 0zm113 -71c-3,0 -5,2 -7,3 -8,10 -18,19 -29,29 -3,3 -4,7 0,11 4,4 8,2 11,0 7,-6 13,-12 19,-19l0 87 -23 0c-4,0 -8,2 -8,8 0,6 4,8 8,8l58 0c5,0 8,-2 8,-8 0,-6 -3,-8 -8,-8l-19 0 0 -102c0,-5 -1,-9 -7,-9l-3 0zm140 113c-12,0 -17,-9 -17,-20l0 -57c0,-11 5,-20 17,-20l18 0c8,0 12,4 13,11 0,4 2,8 8,8 6,0 9,-4 9,-8 0,-19 -11,-27 -30,-27l-18 0c-22,0 -34,16 -34,36l0 57c0,20 12,36 34,36l18 0c19,0 30,-8 30,-27 0,-4 -3,-8 -9,-8 -6,0 -8,4 -8,8 -1,8 -5,11 -13,11l-18 0zm129 -95l0 103c0,4 2,8 8,8 6,0 9,-4 9,-8l0 -111c0,-4 -3,-8 -9,-8l-60 0c-6,0 -8,4 -8,8l0 111c0,4 2,8 8,8 6,0 9,-4 9,-8l0 -103 43 0zm108 103c0,4 2,8 8,8 6,0 8,-4 8,-8l0 -112c0,-5 -2,-9 -9,-9 -3,0 -5,2 -8,6l-47 85 -1 0c1,-3 1,-7 1,-12l0 -70c0,-5 -2,-9 -8,-9 -6,0 -8,4 -8,9l0 112c0,4 2,8 8,8 4,0 6,-2 9,-6l47 -85 0 0c0,3 0,7 0,12l0 71zm75 -8c-12,0 -17,-9 -17,-20l0 -57c0,-11 5,-20 17,-20l18 0c8,0 12,4 13,11 0,4 2,8 8,8 6,0 9,-4 9,-8 0,-19 -11,-27 -30,-27l-18 0c-22,0 -34,16 -34,36l0 57c0,20 12,36 34,36l18 0c19,0 30,-8 30,-27 0,-4 -3,-8 -9,-8 -6,0 -8,4 -8,8 -1,8 -5,11 -13,11l-18 0zm148 3l-38 -55 36 -47c3,-4 3,-9 0,-12 -4,-4 -10,-2 -13,2l-37 51 -11 0 0 -46c0,-5 -2,-9 -8,-9 -6,0 -9,4 -9,9l0 112c0,4 3,8 9,8 6,0 8,-4 8,-8l0 -50 11 0 38 54c3,4 7,6 12,2 5,-3 5,-8 2,-11zm76 -24l10 31c1,4 5,7 10,5 5,-1 7,-6 5,-10l-36 -112c-1,-3 -3,-6 -8,-6l-1 0c-5,0 -7,3 -8,6l-36 112c-2,4 0,9 5,10 5,2 9,-1 10,-5l10 -31 39 0zm-22 -54c1,-4 1,-6 2,-10l0 0c1,4 2,6 3,10l12 39 -30 0 13 -39zm175 83c0,4 2,8 8,8 6,0 9,-4 9,-8l0 -112c0,-5 -3,-9 -9,-9 -3,0 -6,2 -8,6l-48 85 0 0c0,-3 1,-7 1,-12l0 -70c0,-5 -3,-9 -8,-9 -7,0 -9,4 -9,9l0 112c0,4 3,8 9,8 3,0 5,-2 8,-6l48 -85 0 0c-1,3 -1,7 -1,12l0 71zm96 -88c0,11 -8,21 -20,21l-6 0c-4,0 -8,3 -8,8 0,5 4,8 8,8l13 0c12,0 17,9 17,20l0 4c0,11 -4,19 -17,19l-14 0c-7,0 -13,-3 -14,-11 0,-4 -2,-8 -8,-8 -6,0 -9,4 -9,8 0,17 13,27 31,27l15 0c21,0 33,-15 33,-35l0 -4c0,-15 -7,-27 -21,-31 12,-5 16,-15 16,-26 0,-19 -9,-33 -33,-33l-8 0c-18,0 -30,9 -30,27 0,4 2,8 8,8 6,0 8,-4 9,-8 0,-7 7,-11 15,-11l6 0c12,0 17,5 17,17zm85 19l-26 0 0 -34 46 0c4,0 7,-2 7,-8 0,-5 -3,-8 -7,-8l-54 0c-6,0 -9,4 -9,8l0 109c0,4 3,8 9,8l34 0c23,0 34,-15 34,-35l0 -8c0,-20 -11,-32 -34,-32zm17 42c0,11 -4,17 -17,17l-26 0 0 -44 26 0c12,0 17,6 17,16l0 11zm103 27c0,4 2,8 8,8 6,0 8,-4 8,-8l0 -112c0,-5 -2,-9 -8,-9 -4,0 -6,2 -9,6l-47 85 0 0c0,-3 0,-7 0,-12l0 -70c0,-5 -2,-9 -8,-9 -6,0 -8,4 -8,9l0 112c0,4 2,8 9,8 3,0 5,-2 8,-6l47 -85 1 0c-1,3 -1,7 -1,12l0 71zm60 -59l0 -44 28 0c12,0 17,6 17,17l0 9c0,11 -5,18 -17,18l-28 0zm28 16c23,0 34,-15 34,-34l0 -9c0,-20 -11,-33 -34,-33l-36 0c-6,0 -9,4 -9,8l0 111c0,4 3,8 9,8 6,0 8,-4 8,-8l0 -43 28 0zm101 14l10 31c1,4 6,7 10,5 5,-1 7,-6 6,-10l-36 -112c-2,-3 -4,-6 -9,-6l-1 0c-5,0 -7,3 -8,6l-36 112c-2,4 0,9 5,10 5,2 9,-1 10,-5l10 -31 39 0zm-22 -54c1,-4 2,-6 3,-10l0 0c1,4 1,6 2,10l13 39 -30 0 12 -39zm85 91c6,0 8,-4 8,-8l0 -103 26 0c4,0 8,-2 8,-8 0,-5 -4,-8 -8,-8l-69 0c-4,0 -7,3 -7,8 0,6 3,8 7,8l26 0 0 103c0,4 3,8 9,8zm123 -2c4,0 8,-2 8,-8 0,-5 -4,-8 -8,-8l-49 0 0 -40 41 0c4,0 8,-3 8,-8 0,-6 -4,-8 -8,-8l-41 0 0 -37 49 0c4,0 8,-2 8,-8 0,-5 -4,-8 -8,-8l-57 0c-6,0 -8,4 -8,8l0 109c0,4 2,8 8,8l57 0zm55 -23c1,-10 10,-86 10,-86l32 0 0 103c0,4 2,8 8,8 6,0 8,-4 8,-8l0 -111c0,-4 -2,-8 -8,-8l-46 0c-6,0 -8,4 -9,8 -1,6 -10,83 -11,90 -1,4 -1,7 -2,9 -2,3 -5,4 -10,4 -4,0 -8,3 -8,9 0,6 4,8 8,8 15,0 22,-5 25,-14 2,-4 2,-7 3,-12zm151 23c4,0 8,-2 8,-8 0,-5 -4,-8 -8,-8l-49 0 0 -40 40 0c4,0 8,-3 8,-8 0,-6 -4,-8 -8,-8l-40 0 0 -37 49 0c4,0 8,-2 8,-8 0,-5 -4,-8 -8,-8l-57 0c-6,0 -9,4 -9,8l0 109c0,4 3,8 9,8l57 0zm68 -136c17,0 25,-12 25,-24 0,-4 -3,-6 -6,-6 -4,0 -7,2 -7,6 -1,7 -5,12 -12,12 -6,0 -11,-5 -11,-12 -1,-4 -3,-6 -7,-6 -4,0 -6,2 -6,6 0,12 8,24 24,24zm24 130c0,4 2,8 8,8 6,0 8,-4 8,-8l0 -112c0,-5 -2,-9 -8,-9 -4,0 -6,2 -9,6l-47 85 -1 0c1,-3 1,-7 1,-12l0 -70c0,-5 -2,-9 -8,-9 -6,0 -8,4 -8,9l0 112c0,4 2,8 8,8 4,0 6,-2 9,-6l47 -85 0 0c0,3 0,7 0,12l0 71z"/>
   <path class="fil8 str7" d="M5195 2909l-38 -54 36 -48c4,-4 4,-8 0,-11 -4,-4 -9,-2 -12,1l-38 51 -11 0 0 -46c0,-4 -2,-8 -8,-8 -6,0 -8,4 -8,8l0 112c0,4 2,8 8,8 6,0 8,-4 8,-8l0 -50 11 0 39 55c2,3 6,5 11,2 5,-4 5,-9 2,-12zm102 -107c0,-4 -3,-8 -9,-8 -5,0 -8,4 -8,8l0 44 -47 0 0 -44c0,-4 -2,-8 -8,-8 -6,0 -9,4 -9,8l0 112c0,4 3,8 9,8 6,0 8,-4 8,-8l0 -52 47 0 0 52c0,4 2,8 8,8 6,0 9,-4 9,-8l0 -112zm91 112c0,4 2,8 8,8 6,0 8,-4 8,-8l0 -112c0,-4 -2,-8 -8,-8 -4,0 -6,1 -9,6l-47 85 0 0c0,-4 0,-8 0,-13l0 -70c0,-4 -2,-8 -8,-8 -6,0 -8,4 -8,8l0 112c0,4 2,8 8,8 4,0 6,-1 9,-6l47 -85 1 0c-1,3 -1,8 -1,12l0 71zm53 -118c-7,0 -10,3 -10,8l0 110c0,4 3,8 9,8 6,0 8,-4 8,-8l0 -102 48 0c4,0 8,-3 8,-8 0,-6 -4,-8 -7,-8l-56 0zm118 89l10 31c1,5 5,7 10,6 5,-2 7,-6 5,-11l-36 -111c-1,-4 -3,-6 -8,-6l-1 0c-5,0 -7,2 -9,6l-36 111c-1,5 1,9 6,11 4,1 9,-1 10,-6l10 -31 39 0zm-23 -54c2,-4 2,-6 3,-10l0 0c1,4 2,6 3,10l12 39 -30 0 12 -39zm167 39c0,4 1,9 1,13l0 0 -40 -83c-2,-4 -5,-6 -8,-6 -7,0 -9,4 -9,8l0 112c0,4 2,8 8,8 6,0 8,-4 8,-8l0 -68c0,-5 0,-10 -1,-13l0 0 41 83c2,4 5,6 8,6 6,0 9,-4 9,-8l0 -112c0,-4 -3,-8 -9,-8 -5,0 -8,4 -8,8l0 68zm45 -39c-5,0 -6,-3 -6,-8l0 -9c0,-5 1,-8 6,-8l3 0c5,0 7,3 7,8l0 9c0,5 -2,8 -7,8l-3 0zm3 12c13,0 18,-8 18,-19l0 -10c0,-11 -5,-19 -18,-19l-3 0c-12,0 -18,8 -18,19l0 10c0,11 6,19 18,19l3 0zm13 21c3,0 6,-1 6,-6 0,-5 -3,-7 -6,-7l-28 0c-4,0 -6,2 -6,7 0,5 2,6 6,6l28 0zm89 26c0,-8 3,-14 9,-17l32 -15c16,-7 20,-20 20,-32l0 0c0,-21 -12,-32 -35,-32l-11 0c-18,0 -29,8 -29,26 0,5 2,9 8,9 6,0 8,-4 8,-9 0,-7 5,-10 13,-10l11 0c13,0 18,5 18,16l0 0c0,9 -2,14 -10,17l-30 14c-14,6 -21,19 -21,35l0 28 72 0c4,0 8,-2 8,-8 0,-5 -4,-8 -8,-8l-55 0 0 -14zm164 16c-13,0 -17,-9 -17,-20l0 -57c0,-11 4,-19 17,-19l18 0c7,0 12,3 12,10 1,5 3,9 8,9 7,0 9,-4 9,-9 0,-18 -11,-26 -29,-26l-18 0c-23,0 -34,16 -34,35l0 57c0,20 11,36 34,36l18 0c18,0 29,-8 29,-26 0,-5 -2,-9 -9,-9 -5,0 -7,4 -8,9 0,7 -5,10 -12,10l-18 0zm128 -94l0 102c0,4 2,8 8,8 6,0 9,-4 9,-8l0 -110c0,-5 -3,-8 -9,-8l-60 0c-5,0 -8,3 -8,8l0 110c0,4 3,8 8,8 6,0 9,-4 9,-8l0 -102 43 0zm108 102c0,4 2,8 8,8 6,0 8,-4 8,-8l0 -112c0,-4 -2,-8 -8,-8 -4,0 -6,1 -9,6l-47 85 0 0c0,-4 0,-8 0,-13l0 -70c0,-4 -2,-8 -8,-8 -6,0 -8,4 -8,8l0 112c0,4 2,8 9,8 3,0 5,-1 8,-6l47 -85 1 0c-1,3 -1,8 -1,12l0 71zm75 -8c-12,0 -17,-9 -17,-20l0 -57c0,-11 5,-19 17,-19l19 0c7,0 11,3 12,10 1,5 3,9 8,9 6,0 9,-4 9,-9 0,-18 -11,-26 -29,-26l-19 0c-22,0 -33,16 -33,35l0 57c0,20 11,36 33,36l19 0c18,0 29,-8 29,-26 0,-5 -3,-9 -9,-9 -5,0 -7,4 -8,9 -1,7 -5,10 -12,10l-19 0zm148 3l-38 -54 36 -48c4,-4 4,-8 0,-11 -4,-4 -9,-2 -12,1l-38 51 -10 0 0 -46c0,-4 -3,-8 -9,-8 -6,0 -8,4 -8,8l0 112c0,4 2,8 8,8 6,0 9,-4 9,-8l0 -50 10 0 39 55c2,3 6,5 11,2 5,-4 5,-9 2,-12zm76 -24l10 31c1,5 5,7 10,6 5,-2 7,-6 5,-11l-36 -111c-1,-4 -3,-6 -8,-6l-1 0c-5,0 -7,2 -8,6l-36 111c-2,5 0,9 5,11 5,1 9,-1 10,-6l10 -31 39 0zm-22 -54c1,-4 2,-6 3,-10l0 0c1,4 1,6 2,10l13 39 -30 0 12 -39zm175 83c0,4 3,8 8,8 7,0 9,-4 9,-8l0 -112c0,-4 -3,-8 -9,-8 -3,0 -5,1 -8,6l-48 85 0 0c0,-4 1,-8 1,-13l0 -70c0,-4 -2,-8 -8,-8 -6,0 -9,4 -9,8l0 112c0,4 3,8 9,8 3,0 6,-1 8,-6l48 -85 0 0c0,3 -1,8 -1,12l0 71zm96 -87c0,10 -8,20 -20,20l-6 0c-4,0 -8,3 -8,8 0,6 4,8 8,8l13 0c12,0 17,10 17,21l0 4c0,11 -4,18 -17,18l-13 0c-7,0 -14,-3 -15,-10 0,-5 -2,-9 -8,-9 -6,0 -8,4 -8,9 0,16 12,26 30,26l15 0c22,0 33,-15 33,-34l0 -4c0,-15 -7,-28 -21,-31 12,-6 17,-16 17,-26 0,-20 -10,-33 -34,-33l-7 0c-19,0 -31,9 -31,26 0,5 3,9 9,9 5,0 8,-4 8,-9 0,-7 7,-10 15,-10l6 0c12,0 17,5 17,17zm85 18l-26 0 0 -33 46 0c4,0 8,-3 8,-8 0,-6 -4,-8 -8,-8l-54 0c-6,0 -8,3 -8,8l0 108c0,4 2,8 8,8l34 0c23,0 35,-15 35,-34l0 -8c0,-20 -12,-33 -35,-33zm18 42c0,11 -5,17 -17,17l-27 0 0 -44 26 0c13,0 18,6 18,17l0 10zm102 27c0,4 3,8 8,8 6,0 9,-4 9,-8l0 -112c0,-4 -3,-8 -9,-8 -3,0 -6,1 -8,6l-48 85 0 0c0,-4 1,-8 1,-13l0 -70c0,-4 -3,-8 -8,-8 -6,0 -9,4 -9,8l0 112c0,4 3,8 9,8 3,0 6,-1 8,-6l48 -85 0 0c0,3 -1,8 -1,12l0 71zm60 -58l0 -45 28 0c13,0 18,7 18,17l0 9c0,11 -5,19 -18,19l-28 0zm28 16c23,0 35,-15 35,-35l0 -9c0,-20 -12,-32 -35,-32l-36 0c-6,0 -8,3 -8,8l0 110c0,4 2,8 8,8 6,0 8,-4 8,-8l0 -42 28 0zm101 13l10 31c2,5 6,7 11,6 4,-2 6,-6 5,-11l-36 -111c-1,-4 -4,-6 -9,-6l0 0c-5,0 -8,2 -9,6l-36 111c-1,5 1,9 5,11 5,1 9,-1 11,-6l10 -31 38 0zm-22 -54c1,-4 2,-6 3,-10l0 0c1,4 2,6 3,10l12 39 -30 0 12 -39zm85 91c6,0 8,-4 8,-8l0 -102 26 0c5,0 8,-3 8,-8 0,-6 -3,-8 -8,-8l-68 0c-4,0 -8,2 -8,8 0,5 4,8 8,8l26 0 0 102c0,4 2,8 8,8zm124 -2c4,0 7,-2 7,-8 0,-5 -3,-8 -7,-8l-49 0 0 -40 40 0c4,0 8,-2 8,-8 0,-5 -4,-8 -8,-8l-40 0 0 -36 49 0c4,0 7,-3 7,-8 0,-6 -3,-8 -7,-8l-58 0c-6,0 -8,3 -8,8l0 108c0,4 2,8 8,8l58 0zm54 -22c1,-10 11,-86 11,-86l31 0 0 102c0,4 2,8 8,8 6,0 9,-4 9,-8l0 -110c0,-5 -3,-8 -9,-8l-46 0c-5,0 -8,3 -9,8 0,5 -10,83 -11,90 0,4 -1,7 -2,8 -2,4 -5,5 -10,5 -4,0 -8,2 -8,8 0,6 4,8 8,8 16,0 22,-5 26,-14 1,-3 2,-7 2,-11zm151 22c4,0 8,-2 8,-8 0,-5 -4,-8 -8,-8l-49 0 0 -40 41 0c4,0 8,-2 8,-8 0,-5 -4,-8 -8,-8l-41 0 0 -36 49 0c4,0 8,-3 8,-8 0,-6 -4,-8 -8,-8l-57 0c-6,0 -8,3 -8,8l0 108c0,4 2,8 8,8l57 0zm69 -136c16,0 24,-11 24,-24 0,-3 -2,-6 -6,-6 -4,0 -6,3 -7,7 0,6 -5,11 -11,11 -7,0 -11,-5 -12,-11 0,-4 -3,-7 -6,-7 -4,0 -7,3 -7,6 0,13 8,24 25,24zm23 130c0,4 2,8 8,8 6,0 8,-4 8,-8l0 -112c0,-4 -2,-8 -8,-8 -4,0 -6,1 -9,6l-47 85 0 0c0,-4 0,-8 0,-13l0 -70c0,-4 -2,-8 -8,-8 -6,0 -8,4 -8,8l0 112c0,4 3,8 9,8 3,0 5,-1 8,-6l48 -85 0 0c-1,3 -1,8 -1,12l0 71z"/>
   <path class="fil8 str7" d="M5078 2514l-39 -54 37 -47c3,-4 3,-9 -1,-12 -4,-4 -9,-2 -12,2l-38 50 -10 0 0 -46c0,-4 -3,-8 -8,-8 -6,0 -9,4 -9,8l0 112c0,5 3,8 9,8 5,0 8,-3 8,-8l0 -49 11 0 38 54c2,3 7,5 12,2 5,-3 4,-8 2,-12zm101 -107c0,-4 -3,-8 -8,-8 -6,0 -9,4 -9,8l0 45 -47 0 0 -45c0,-4 -2,-8 -8,-8 -6,0 -8,4 -8,8l0 112c0,5 2,8 8,8 6,0 8,-3 8,-8l0 -51 47 0 0 51c0,5 3,8 9,8 5,0 8,-3 8,-8l0 -112zm91 112c0,5 2,8 8,8 6,0 9,-3 9,-8l0 -112c0,-4 -3,-8 -9,-8 -3,0 -6,1 -8,6l-48 85 0 0c0,-3 1,-7 1,-12l0 -71c0,-4 -3,-8 -8,-8 -6,0 -9,4 -9,8l0 112c0,5 3,8 9,8 3,0 5,-1 8,-6l48 -84 0 0c0,3 -1,7 -1,12l0 70zm53 -118c-7,0 -9,4 -9,8l0 110c0,5 2,8 8,8 6,0 8,-3 8,-8l0 -102 48 0c4,0 8,-2 8,-8 0,-5 -4,-8 -7,-8l-56 0zm118 90l10 31c1,4 5,7 10,5 5,-2 7,-6 5,-10l-36 -112c-1,-4 -3,-6 -8,-6l-1 0c-5,0 -7,2 -8,6l-36 112c-2,4 0,8 5,10 5,2 9,-1 10,-5l10 -31 39 0zm-22 -54c1,-4 2,-6 2,-10l1 0c1,4 1,6 2,10l12 39 -29 0 12 -39zm167 38c0,5 0,10 1,13l0 0 -41 -83c-2,-4 -5,-6 -8,-6 -6,0 -9,4 -9,8l0 112c0,5 3,8 9,8 5,0 8,-3 8,-8l0 -67c0,-5 -1,-10 -1,-13l0 0 40 82c2,5 5,6 8,6 7,0 9,-3 9,-8l0 -112c0,-4 -2,-8 -8,-8 -6,0 -8,4 -8,8l0 68zm45 -38c-6,0 -7,-3 -7,-8l0 -9c0,-5 1,-8 7,-8l2 0c6,0 7,3 7,8l0 9c0,5 -1,8 -7,8l-2 0zm3 12c12,0 18,-9 18,-19l0 -11c0,-11 -6,-19 -18,-19l-3 0c-13,0 -19,8 -19,19l0 11c0,10 6,19 19,19l3 0zm12 21c4,0 6,-2 6,-7 0,-4 -2,-6 -6,-6l-28 0c-3,0 -6,2 -6,6 0,5 3,7 6,7l28 0zm151 18c0,-15 -6,-26 -19,-30 8,-5 13,-13 13,-25l0 -2c0,-20 -11,-32 -34,-32l-10 0c-18,0 -30,8 -30,27 0,4 3,8 9,8 6,0 8,-4 8,-8 0,-8 5,-11 13,-11l10 0c12,0 18,5 18,16l0 2c0,12 -7,20 -20,20l-10 0c-5,0 -8,2 -8,7 0,6 3,8 8,8l18 0c13,0 18,8 18,20l0 6c0,11 -6,17 -18,17l-19 0c-8,0 -13,-3 -13,-10 0,-5 -3,-9 -9,-9 -6,0 -8,4 -8,9 0,19 11,26 30,26l19 0c23,0 34,-13 34,-33l0 -6zm102 23c-12,0 -17,-8 -17,-19l0 -57c0,-11 5,-20 17,-20l18 0c8,0 12,3 13,11 0,4 2,8 8,8 6,0 8,-4 8,-8 0,-19 -11,-27 -29,-27l-18 0c-23,0 -34,16 -34,36l0 57c0,19 11,35 34,35l18 0c18,0 29,-8 29,-26 0,-4 -2,-8 -8,-8 -6,0 -8,4 -8,8 -1,7 -5,10 -13,10l-18 0zm128 -94l0 102c0,5 3,8 9,8 5,0 8,-3 8,-8l0 -110c0,-4 -3,-8 -8,-8l-60 0c-6,0 -9,4 -9,8l0 110c0,5 3,8 9,8 6,0 8,-3 8,-8l0 -102 43 0zm108 102c0,5 3,8 8,8 6,0 9,-3 9,-8l0 -112c0,-4 -3,-8 -9,-8 -3,0 -6,1 -8,6l-48 85 0 0c0,-3 1,-7 1,-12l0 -71c0,-4 -3,-8 -8,-8 -6,0 -9,4 -9,8l0 112c0,5 3,8 9,8 3,0 6,-1 8,-6l48 -84 0 0c0,3 -1,7 -1,12l0 70zm76 -8c-12,0 -17,-8 -17,-19l0 -57c0,-11 5,-20 17,-20l18 0c8,0 12,3 12,11 1,4 3,8 9,8 6,0 8,-4 8,-8 0,-19 -11,-27 -29,-27l-18 0c-23,0 -34,16 -34,36l0 57c0,19 11,35 34,35l18 0c18,0 29,-8 29,-26 0,-4 -2,-8 -8,-8 -6,0 -8,4 -9,8 0,7 -4,10 -12,10l-18 0zm148 3l-39 -54 37 -47c3,-4 3,-9 -1,-12 -4,-4 -9,-2 -12,2l-37 50 -11 0 0 -46c0,-4 -3,-8 -8,-8 -6,0 -9,4 -9,8l0 112c0,5 3,8 9,8 5,0 8,-3 8,-8l0 -49 11 0 38 54c2,3 7,5 12,2 5,-3 4,-8 2,-12zm75 -23l10 31c2,4 6,7 11,5 4,-2 6,-6 5,-10l-36 -112c-1,-4 -4,-6 -9,-6l0 0c-5,0 -8,2 -9,6l-36 112c-1,4 1,8 5,10 5,2 9,-1 11,-5l10 -31 38 0zm-22 -54c1,-4 2,-6 3,-10l0 0c1,4 1,6 3,10l12 39 -30 0 12 -39zm176 82c0,5 2,8 8,8 6,0 8,-3 8,-8l0 -112c0,-4 -2,-8 -8,-8 -4,0 -6,1 -9,6l-47 85 -1 0c1,-3 1,-7 1,-12l0 -71c0,-4 -2,-8 -8,-8 -6,0 -8,4 -8,8l0 112c0,5 2,8 8,8 4,0 6,-1 9,-6l47 -84 0 0c0,3 0,7 0,12l0 70zm95 -87c0,11 -7,21 -19,21l-7 0c-4,0 -8,2 -8,7 0,6 4,8 8,8l13 0c13,0 18,10 18,21l0 4c0,11 -4,18 -18,18l-13 0c-7,0 -14,-3 -14,-10 -1,-4 -3,-8 -9,-8 -6,0 -8,4 -8,8 0,17 13,26 31,26l14 0c22,0 33,-14 33,-34l0 -4c0,-15 -7,-28 -20,-31 12,-5 16,-15 16,-26 0,-20 -10,-33 -33,-33l-8 0c-18,0 -31,9 -31,27 0,4 3,8 9,8 6,0 8,-4 8,-8 0,-7 8,-11 15,-11l7 0c12,0 16,5 16,17zm86 18l-26 0 0 -33 45 0c4,0 8,-2 8,-8 0,-5 -4,-8 -8,-8l-53 0c-6,0 -9,4 -9,8l0 108c0,5 3,9 9,9l34 0c23,0 34,-15 34,-35l0 -8c0,-20 -11,-33 -34,-33zm17 43c0,11 -5,17 -17,17l-26 0 0 -45 26 0c12,0 17,6 17,17l0 11zm103 26c0,5 2,8 8,8 6,0 8,-3 8,-8l0 -112c0,-4 -3,-8 -9,-8 -3,0 -5,1 -8,6l-48 85 0 0c1,-3 1,-7 1,-12l0 -71c0,-4 -2,-8 -8,-8 -6,0 -8,4 -8,8l0 112c0,5 2,8 8,8 4,0 6,-1 9,-6l47 -84 0 0c0,3 0,7 0,12l0 70zm60 -58l0 -44 28 0c12,0 17,6 17,17l0 9c0,10 -5,18 -17,18l-28 0zm28 16c23,0 34,-15 34,-34l0 -9c0,-20 -11,-33 -34,-33l-37 0c-5,0 -8,4 -8,8l0 110c0,5 3,8 8,8 6,0 9,-3 9,-8l0 -42 28 0zm101 14l10 31c1,4 5,7 10,5 5,-2 7,-6 5,-10l-36 -112c-1,-4 -3,-6 -8,-6l-1 0c-5,0 -7,2 -9,6l-36 112c-1,4 1,8 6,10 4,2 9,-1 10,-5l10 -31 39 0zm-22 -54c1,-4 1,-6 2,-10l0 0c1,4 2,6 3,10l12 39 -30 0 13 -39zm84 90c6,0 9,-3 9,-8l0 -102 26 0c4,0 8,-2 8,-8 0,-5 -4,-8 -8,-8l-69 0c-4,0 -8,3 -8,8 0,6 4,8 8,8l26 0 0 102c0,5 3,8 8,8zm124 -1c4,0 8,-3 8,-8 0,-6 -4,-8 -8,-8l-49 0 0 -40 40 0c4,0 8,-3 8,-9 0,-5 -4,-8 -8,-8l-40 0 0 -36 49 0c4,0 8,-2 8,-8 0,-5 -4,-8 -8,-8l-57 0c-6,0 -9,4 -9,8l0 108c0,5 3,9 9,9l57 0zm54 -23c2,-10 11,-86 11,-86l31 0 0 102c0,5 3,8 9,8 5,0 8,-3 8,-8l0 -110c0,-4 -3,-8 -8,-8l-47 0c-5,0 -8,3 -8,8 -1,5 -11,83 -11,90 -1,4 -2,7 -3,9 -1,3 -4,4 -10,4 -4,0 -8,3 -8,8 0,6 4,8 8,8 16,0 22,-5 26,-14 1,-3 2,-6 2,-11zm152 23c4,0 7,-3 7,-8 0,-6 -3,-8 -7,-8l-49 0 0 -40 40 0c4,0 8,-3 8,-9 0,-5 -4,-8 -8,-8l-40 0 0 -36 49 0c4,0 7,-2 7,-8 0,-5 -3,-8 -7,-8l-58 0c-6,0 -8,4 -8,8l0 108c0,5 2,9 8,9l58 0zm68 -136c16,0 25,-12 25,-24 0,-4 -3,-6 -7,-6 -4,0 -6,2 -6,6 -1,7 -5,11 -12,11 -7,0 -11,-4 -12,-11 0,-4 -2,-6 -6,-6 -4,0 -7,2 -7,6 0,12 9,24 25,24zm23 129c0,5 3,8 8,8 6,0 9,-3 9,-8l0 -112c0,-4 -3,-8 -9,-8 -3,0 -6,1 -8,6l-48 85 0 0c0,-3 1,-7 1,-12l0 -71c0,-4 -3,-8 -8,-8 -6,0 -9,4 -9,8l0 112c0,5 3,8 9,8 3,0 6,-1 8,-6l48 -84 0 0c0,3 -1,7 -1,12l0 70z"/>
   <path class="fil8 str7" d="M4960 2120l-38 -55 36 -47c3,-4 3,-9 0,-12 -5,-4 -10,-2 -13,2l-37 51 -11 0 0 -46c0,-5 -2,-9 -8,-9 -6,0 -9,4 -9,9l0 112c0,4 3,8 9,8 6,0 8,-4 8,-8l0 -50 11 0 38 54c3,4 7,6 12,3 5,-4 4,-9 2,-12zm101 -107c0,-5 -2,-9 -8,-9 -6,0 -8,4 -8,9l0 44 -47 0 0 -44c0,-5 -3,-9 -9,-9 -5,0 -8,4 -8,9l0 112c0,4 3,8 8,8 6,0 9,-4 9,-8l0 -52 47 0 0 52c0,4 2,8 8,8 6,0 8,-4 8,-8l0 -112zm91 112c0,4 3,8 8,8 7,0 9,-4 9,-8l0 -112c0,-5 -3,-9 -9,-9 -3,0 -5,2 -8,7l-48 84 0 0c1,-3 1,-7 1,-12l0 -70c0,-5 -2,-9 -8,-9 -6,0 -9,4 -9,9l0 112c0,4 3,8 9,8 3,0 6,-1 8,-6l48 -85 0 0c0,3 -1,7 -1,12l0 71zm53 -119c-6,0 -9,4 -9,8l0 111c0,4 3,8 8,8 6,0 9,-4 9,-8l0 -103 47 0c5,0 8,-2 8,-8 0,-5 -3,-8 -7,-8l-56 0zm118 90l10 31c2,4 6,7 11,5 4,-1 6,-6 5,-10l-36 -111c-2,-4 -4,-7 -9,-7l-1 0c-5,0 -7,3 -8,7l-36 111c-1,4 1,9 5,10 5,2 9,-1 11,-5l10 -31 38 0zm-22 -54c1,-4 2,-6 3,-10l0 0c1,4 1,6 3,10l12 39 -30 0 12 -39zm167 38c0,5 1,10 1,13l0 0 -40 -82c-3,-5 -5,-7 -9,-7 -6,0 -8,4 -8,9l0 112c0,4 2,8 8,8 6,0 8,-4 8,-8l0 -68c0,-5 -1,-10 -1,-13l0 0 40 83c3,4 5,6 9,6 6,0 8,-4 8,-8l0 -112c0,-5 -2,-9 -8,-9 -6,0 -8,4 -8,9l0 67zm45 -38c-5,0 -7,-3 -7,-8l0 -9c0,-5 2,-8 7,-8l3 0c5,0 6,3 6,8l0 9c0,5 -1,8 -6,8l-3 0zm3 12c12,0 18,-8 18,-19l0 -11c0,-11 -6,-19 -18,-19l-3 0c-12,0 -18,8 -18,19l0 11c0,11 6,19 18,19l3 0zm12 21c4,0 7,-2 7,-6 0,-5 -3,-7 -7,-7l-27 0c-4,0 -7,2 -7,7 0,4 3,6 7,6l27 0zm125 49c0,5 2,9 8,9 6,0 8,-4 8,-9l0 -28 9 0c5,0 8,-3 8,-8 0,-6 -3,-8 -8,-8l-9 0 0 -35c0,-5 -2,-8 -8,-8 -6,0 -8,3 -8,8l0 35 -39 0c9,-21 16,-46 20,-68 1,-4 1,-9 -5,-10 -6,-2 -9,1 -10,6 -6,28 -14,52 -23,73 -1,3 -1,5 -1,7 0,5 3,8 8,8l50 0 0 28zm128 -7c-12,0 -17,-9 -17,-20l0 -57c0,-11 5,-19 17,-19l18 0c8,0 12,3 13,10 0,4 2,8 8,8 6,0 9,-4 9,-8 0,-19 -11,-27 -30,-27l-18 0c-22,0 -34,17 -34,36l0 57c0,20 12,36 34,36l18 0c19,0 30,-8 30,-27 0,-4 -3,-8 -9,-8 -6,0 -8,4 -8,8 -1,8 -5,11 -13,11l-18 0zm129 -95l0 103c0,4 2,8 8,8 6,0 8,-4 8,-8l0 -111c0,-4 -2,-8 -8,-8l-60 0c-6,0 -8,4 -8,8l0 111c0,4 2,8 8,8 6,0 8,-4 8,-8l0 -103 44 0zm108 103c0,4 2,8 8,8 6,0 8,-4 8,-8l0 -112c0,-5 -3,-9 -9,-9 -3,0 -5,2 -8,7l-48 84 0 0c1,-3 1,-7 1,-12l0 -70c0,-5 -2,-9 -8,-9 -6,0 -8,4 -8,9l0 112c0,4 2,8 8,8 3,0 6,-1 8,-6l48 -85 0 0c0,3 0,7 0,12l0 71zm75 -8c-12,0 -17,-9 -17,-20l0 -57c0,-11 5,-19 17,-19l18 0c8,0 12,3 13,10 0,4 2,8 8,8 6,0 9,-4 9,-8 0,-19 -12,-27 -30,-27l-18 0c-23,0 -34,17 -34,36l0 57c0,20 11,36 34,36l18 0c18,0 30,-8 30,-27 0,-4 -3,-8 -9,-8 -6,0 -8,4 -8,8 -1,8 -5,11 -13,11l-18 0zm148 3l-38 -55 36 -47c3,-4 3,-9 0,-12 -5,-4 -10,-2 -13,2l-37 51 -11 0 0 -46c0,-5 -2,-9 -8,-9 -6,0 -9,4 -9,9l0 112c0,4 3,8 9,8 6,0 8,-4 8,-8l0 -50 11 0 38 54c3,4 7,6 12,3 5,-4 5,-9 2,-12zm76 -24l10 31c1,4 5,7 10,5 5,-1 6,-6 5,-10l-36 -111c-1,-4 -3,-7 -8,-7l-1 0c-5,0 -7,3 -9,7l-36 111c-1,4 1,9 6,10 4,2 9,-1 10,-5l10 -31 39 0zm-23 -54c2,-4 2,-6 3,-10l0 0c1,4 2,6 3,10l12 39 -30 0 12 -39zm176 83c0,4 2,8 8,8 6,0 8,-4 8,-8l0 -112c0,-5 -2,-9 -8,-9 -4,0 -6,2 -9,7l-47 84 0 0c0,-3 0,-7 0,-12l0 -70c0,-5 -2,-9 -8,-9 -6,0 -8,4 -8,9l0 112c0,4 3,8 9,8 3,0 5,-1 8,-6l48 -85 0 0c-1,3 -1,7 -1,12l0 71zm96 -88c0,11 -8,21 -20,21l-6 0c-5,0 -8,3 -8,8 0,5 3,8 8,8l13 0c12,0 17,9 17,20l0 4c0,11 -4,19 -17,19l-14 0c-7,0 -13,-3 -14,-11 0,-4 -3,-8 -8,-8 -6,0 -9,4 -9,8 0,17 13,27 31,27l15 0c21,0 33,-15 33,-35l0 -4c0,-14 -7,-27 -21,-31 12,-5 16,-15 16,-26 0,-19 -9,-33 -33,-33l-8 0c-18,0 -30,10 -30,27 0,4 2,8 8,8 6,0 8,-4 8,-8 1,-7 8,-10 16,-10l6 0c12,0 17,5 17,16zm85 19l-26 0 0 -34 46 0c4,0 7,-2 7,-8 0,-5 -3,-8 -7,-8l-54 0c-6,0 -9,4 -9,8l0 109c0,4 3,8 9,8l34 0c23,0 34,-15 34,-35l0 -8c0,-20 -11,-32 -34,-32zm17 42c0,11 -4,17 -17,17l-26 0 0 -44 26 0c12,0 17,6 17,17l0 10zm103 27c0,4 2,8 8,8 6,0 8,-4 8,-8l0 -112c0,-5 -2,-9 -8,-9 -4,0 -6,2 -9,7l-47 84 0 0c0,-3 0,-7 0,-12l0 -70c0,-5 -2,-9 -8,-9 -6,0 -8,4 -8,9l0 112c0,4 2,8 8,8 4,0 6,-1 9,-6l47 -85 1 0c-1,3 -1,7 -1,12l0 71zm60 -59l0 -44 28 0c12,0 17,6 17,17l0 9c0,11 -5,18 -17,18l-28 0zm28 17c23,0 34,-15 34,-35l0 -9c0,-20 -11,-33 -34,-33l-36 0c-6,0 -9,4 -9,8l0 111c0,4 3,8 9,8 6,0 8,-4 8,-8l0 -42 28 0zm101 13l10 31c1,4 5,7 10,5 5,-1 7,-6 5,-10l-36 -111c-1,-4 -3,-7 -8,-7l-1 0c-5,0 -7,3 -8,7l-36 111c-2,4 0,9 5,10 5,2 9,-1 10,-5l10 -31 39 0zm-22 -54c1,-4 2,-6 3,-10l0 0c1,4 1,6 2,10l12 39 -29 0 12 -39zm85 91c6,0 8,-4 8,-8l0 -103 26 0c4,0 8,-2 8,-8 0,-5 -4,-8 -8,-8l-69 0c-4,0 -8,3 -8,8 0,6 4,8 8,8l26 0 0 103c0,4 3,8 9,8zm123 -2c4,0 8,-2 8,-8 0,-5 -4,-8 -8,-8l-49 0 0 -40 41 0c4,0 7,-2 7,-8 0,-5 -3,-8 -7,-8l-41 0 0 -37 49 0c4,0 8,-2 8,-8 0,-5 -4,-8 -8,-8l-57 0c-6,0 -8,4 -8,8l0 109c0,4 2,8 8,8l57 0zm55 -22c1,-11 10,-87 10,-87l31 0 0 103c0,4 3,8 9,8 6,0 8,-4 8,-8l0 -111c0,-4 -2,-8 -8,-8l-47 0c-5,0 -8,4 -8,8 -1,6 -10,84 -11,90 -1,5 -1,7 -2,9 -2,3 -5,4 -10,4 -5,0 -8,3 -8,9 0,6 3,8 8,8 15,0 22,-5 25,-14 1,-4 2,-7 3,-11zm151 22c4,0 8,-2 8,-8 0,-5 -4,-8 -8,-8l-49 0 0 -40 40 0c4,0 8,-2 8,-8 0,-5 -4,-8 -8,-8l-40 0 0 -37 49 0c4,0 8,-2 8,-8 0,-5 -4,-8 -8,-8l-58 0c-5,0 -8,4 -8,8l0 109c0,4 3,8 8,8l58 0zm68 -136c17,0 25,-12 25,-24 0,-4 -3,-6 -7,-6 -3,0 -6,2 -6,6 -1,7 -5,12 -12,12 -6,0 -11,-5 -11,-12 -1,-4 -3,-6 -7,-6 -4,0 -6,2 -6,6 0,12 8,24 24,24zm24 130c0,4 2,8 8,8 6,0 8,-4 8,-8l0 -112c0,-5 -2,-9 -9,-9 -3,0 -5,2 -8,7l-47 84 -1 0c1,-3 1,-7 1,-12l0 -70c0,-5 -2,-9 -8,-9 -6,0 -8,4 -8,9l0 112c0,4 2,8 8,8 4,0 6,-1 9,-6l47 -85 0 0c0,3 0,7 0,12l0 71z"/>
   <path class="fil9 str0" d="M4170 3816c0,-883 0,-1475 0,-2358l3538 0"/>
   <path class="fil8 str7" d="M4594 1730c0,4 2,8 8,8 6,0 8,-4 8,-8l0 -112c0,-4 -2,-8 -8,-8 -4,0 -6,1 -9,6l-47 85 -1 0c1,-3 1,-8 1,-13l0 -70c0,-4 -2,-8 -8,-8 -6,0 -8,4 -8,8l0 112c0,4 2,8 8,8 4,0 6,-1 9,-6l47 -85 0 0c0,3 0,8 0,13l0 70zm74 8c6,0 8,-4 8,-8l0 -102 26 0c4,0 8,-3 8,-8 0,-6 -4,-8 -8,-8l-68 0c-4,0 -8,2 -8,8 0,5 4,8 8,8l26 0 0 102c0,4 2,8 8,8zm68 -93c0,-11 5,-19 18,-19l14 0c12,0 17,8 17,19l0 58c0,11 -5,19 -17,19l-14 0c-13,0 -18,-8 -18,-19l0 -58zm66 0c0,-19 -12,-35 -34,-35l-14 0c-23,0 -34,16 -34,35l0 58c0,19 11,35 34,35l14 0c22,0 34,-16 34,-35l0 -58zm34 -33c-6,0 -9,4 -9,8l0 110c0,4 3,8 8,8 6,0 9,-4 9,-8l0 -102 47 0c5,0 8,-3 8,-8 0,-6 -3,-8 -7,-8l-56 0zm94 33c0,-11 5,-19 17,-19l15 0c12,0 17,8 17,19l0 58c0,11 -5,19 -17,19l-15 0c-12,0 -17,-8 -17,-19l0 -58zm65 0c0,-19 -11,-35 -33,-35l-15 0c-22,0 -34,16 -34,35l0 58c0,19 12,35 34,35l15 0c22,0 33,-16 33,-35l0 -58zm42 36l30 0c12,0 17,8 17,19l0 4c0,10 -5,16 -17,16l-30 0 0 -39zm0 -16l0 -37 22 0c12,0 17,4 17,15l0 4c0,11 -5,18 -17,18l-22 0zm64 35c0,-15 -7,-25 -20,-30 8,-4 12,-12 12,-23l0 -4c0,-20 -12,-31 -34,-31l-30 0c-6,0 -8,4 -8,8l0 108c0,4 2,8 8,8l38 0c22,0 34,-12 34,-32l0 -4zm126 30l0 -112c0,-4 -2,-8 -8,-8 -6,0 -8,4 -8,8l0 112c0,4 2,8 8,8 6,0 8,-4 8,-8zm-66 -70l-22 0 0 -42c0,-4 -2,-8 -8,-8 -6,0 -9,4 -9,8l0 110c0,4 3,8 9,8l30 0c23,0 34,-15 34,-34l0 -8c0,-20 -10,-34 -34,-34zm18 44c0,10 -5,16 -18,16l-22 0 0 -44 22 0c12,0 18,6 18,17l0 11zm116 -104c16,0 25,-11 25,-23 0,-4 -3,-7 -7,-7 -4,0 -6,3 -6,7 -1,6 -5,11 -12,11 -7,0 -11,-5 -12,-11 0,-4 -2,-7 -6,-7 -4,0 -7,3 -7,7 0,12 9,23 25,23zm23 130c0,4 3,8 8,8 6,0 9,-4 9,-8l0 -112c0,-4 -3,-8 -9,-8 -3,0 -6,1 -8,6l-48 85 0 0c0,-3 1,-8 1,-13l0 -70c0,-4 -3,-8 -8,-8 -6,0 -9,4 -9,8l0 112c0,4 3,8 9,8 3,0 6,-1 8,-6l48 -85 0 0c0,3 -1,8 -1,13l0 70zm117 -16c1,-10 10,-86 10,-86l31 0 0 102c0,4 3,8 9,8 5,0 8,-4 8,-8l0 -110c0,-4 -3,-8 -8,-8l-47 0c-5,0 -8,3 -8,8 -1,5 -10,83 -11,90 -1,4 -1,7 -2,8 -2,4 -5,5 -10,5 -5,0 -9,2 -9,8 0,6 4,8 9,8 15,0 21,-5 25,-14 1,-3 2,-6 3,-11zm149 16c0,4 2,8 8,8 6,0 8,-4 8,-8l0 -112c0,-4 -2,-8 -8,-8 -4,0 -6,1 -8,6l-48 85 0 0c0,-3 0,-8 0,-13l0 -70c0,-4 -2,-8 -8,-8 -6,0 -8,4 -8,8l0 112c0,4 3,8 9,8 3,0 5,-1 8,-6l48 -85 0 0c-1,3 -1,8 -1,13l0 70zm76 -8c-13,0 -18,-8 -18,-19l0 -58c0,-11 5,-19 18,-19l18 0c7,0 12,3 12,10 1,5 3,9 8,9 7,0 9,-4 9,-9 0,-18 -11,-26 -29,-26l-18 0c-23,0 -34,16 -34,35l0 58c0,19 11,35 34,35l18 0c18,0 29,-8 29,-26 0,-5 -2,-9 -9,-9 -5,0 -7,4 -8,9 0,7 -5,10 -12,10l-18 0zm99 16c6,0 8,-4 8,-8l0 -102 26 0c4,0 8,-3 8,-8 0,-6 -4,-8 -8,-8l-69 0c-4,0 -7,2 -7,8 0,5 3,8 7,8l26 0 0 102c0,4 3,8 9,8zm138 -16c-13,0 -17,-8 -17,-19l0 -58c0,-11 4,-19 17,-19l18 0c7,0 12,3 12,10 1,5 3,9 8,9 7,0 9,-4 9,-9 0,-18 -11,-26 -29,-26l-18 0c-23,0 -34,16 -34,35l0 58c0,19 11,35 34,35l18 0c18,0 29,-8 29,-26 0,-5 -2,-9 -9,-9 -5,0 -7,4 -8,9 0,7 -5,10 -12,10l-18 0zm128 -94l0 102c0,4 2,8 8,8 6,0 9,-4 9,-8l0 -110c0,-4 -3,-8 -9,-8l-60 0c-5,0 -8,4 -8,8l0 110c0,4 3,8 8,8 6,0 9,-4 9,-8l0 -102 43 0zm108 102c0,4 2,8 8,8 6,0 8,-4 8,-8l0 -112c0,-4 -2,-8 -8,-8 -4,0 -6,1 -9,6l-47 85 0 0c0,-3 0,-8 0,-13l0 -70c0,-4 -2,-8 -8,-8 -6,0 -8,4 -8,8l0 112c0,4 2,8 9,8 3,0 5,-1 8,-6l47 -85 1 0c-1,3 -1,8 -1,13l0 70zm76 -8c-13,0 -18,-8 -18,-19l0 -58c0,-11 5,-19 18,-19l18 0c7,0 11,3 12,10 1,5 3,9 8,9 6,0 9,-4 9,-9 0,-18 -11,-26 -29,-26l-18 0c-23,0 -34,16 -34,35l0 58c0,19 11,35 34,35l18 0c18,0 29,-8 29,-26 0,-5 -3,-9 -9,-9 -5,0 -7,4 -8,9 -1,7 -5,10 -12,10l-18 0zm147 3l-38 -54 36 -48c4,-4 4,-8 0,-11 -4,-4 -9,-2 -12,1l-38 51 -10 0 0 -46c0,-4 -3,-8 -9,-8 -6,0 -8,4 -8,8l0 112c0,4 2,8 8,8 6,0 9,-4 9,-8l0 -50 10 0 39 55c2,3 6,5 11,2 5,-4 5,-8 2,-12zm76 -24l10 31c1,5 6,7 10,6 5,-2 7,-6 5,-11l-36 -111c-1,-4 -3,-6 -8,-6l-1 0c-5,0 -7,2 -8,6l-36 111c-2,5 0,9 5,11 5,1 9,-1 10,-6l10 -31 39 0zm-22 -54c1,-3 2,-5 3,-10l0 0c1,5 1,7 2,10l13 39 -30 0 12 -39zm175 83c0,4 3,8 8,8 7,0 9,-4 9,-8l0 -112c0,-4 -3,-8 -9,-8 -3,0 -5,1 -8,6l-48 85 0 0c0,-3 1,-8 1,-13l0 -70c0,-4 -2,-8 -8,-8 -6,0 -9,4 -9,8l0 112c0,4 3,8 9,8 3,0 6,-1 8,-6l48 -85 0 0c0,3 -1,8 -1,13l0 70zm96 -87c0,10 -8,20 -20,20l-6 0c-4,0 -8,3 -8,8 0,6 4,8 8,8l13 0c12,0 17,10 17,21l0 4c0,11 -4,18 -17,18l-13 0c-7,0 -14,-3 -15,-10 0,-5 -2,-9 -8,-9 -6,0 -8,4 -8,9 0,17 12,26 30,26l15 0c22,0 33,-15 33,-34l0 -4c0,-15 -7,-28 -21,-31 12,-6 17,-15 17,-26 0,-20 -10,-33 -34,-33l-7 0c-19,0 -31,9 -31,26 0,5 3,9 9,9 5,0 8,-4 8,-9 0,-7 7,-10 15,-10l6 0c12,0 17,5 17,17zm85 18l-26 0 0 -33 46 0c4,0 8,-3 8,-8 0,-6 -4,-8 -8,-8l-54 0c-6,0 -8,4 -8,8l0 108c0,4 2,8 8,8l34 0c23,0 35,-15 35,-34l0 -8c0,-20 -12,-33 -35,-33zm18 43c0,10 -5,16 -17,16l-27 0 0 -44 26 0c13,0 18,6 18,17l0 11zm102 26c0,4 3,8 8,8 6,0 9,-4 9,-8l0 -112c0,-4 -3,-8 -9,-8 -3,0 -6,1 -8,6l-48 85 0 0c0,-3 1,-8 1,-13l0 -70c0,-4 -3,-8 -8,-8 -6,0 -9,4 -9,8l0 112c0,4 3,8 9,8 3,0 6,-1 8,-6l48 -85 0 0c0,3 -1,8 -1,13l0 70zm61 -58l0 -45 27 0c13,0 18,7 18,17l0 9c0,11 -5,19 -18,19l-27 0zm27 16c23,0 35,-15 35,-35l0 -9c0,-20 -12,-32 -35,-32l-36 0c-6,0 -8,4 -8,8l0 110c0,4 2,8 8,8 6,0 9,-4 9,-8l0 -42 27 0zm101 13l10 31c2,5 6,7 11,6 4,-2 6,-6 5,-11l-36 -111c-1,-4 -4,-6 -9,-6l0 0c-5,0 -8,2 -9,6l-36 111c-1,5 1,9 5,11 5,1 9,-1 11,-6l10 -31 38 0zm-22 -54c2,-3 2,-5 3,-10l0 0c1,5 2,7 3,10l12 39 -30 0 12 -39zm85 91c6,0 8,-4 8,-8l0 -102 26 0c5,0 8,-3 8,-8 0,-6 -3,-8 -8,-8l-68 0c-4,0 -8,2 -8,8 0,5 4,8 8,8l26 0 0 102c0,4 2,8 8,8zm124 -2c4,0 7,-2 7,-8 0,-5 -3,-8 -7,-8l-49 0 0 -40 40 0c4,0 8,-2 8,-8 0,-5 -4,-8 -8,-8l-40 0 0 -36 49 0c4,0 7,-3 7,-8 0,-6 -3,-8 -7,-8l-58 0c-5,0 -8,4 -8,8l0 108c0,4 3,8 8,8l58 0zm54 -22c1,-10 11,-86 11,-86l31 0 0 102c0,4 2,8 8,8 6,0 9,-4 9,-8l0 -110c0,-4 -3,-8 -9,-8l-46 0c-5,0 -8,3 -9,8 0,5 -10,83 -11,90 0,4 -1,7 -2,8 -2,4 -5,5 -10,5 -4,0 -8,2 -8,8 0,6 4,8 8,8 16,0 22,-5 26,-14 1,-3 2,-6 2,-11zm151 22c4,0 8,-2 8,-8 0,-5 -4,-8 -8,-8l-49 0 0 -40 41 0c4,0 8,-2 8,-8 0,-5 -4,-8 -8,-8l-41 0 0 -36 49 0c4,0 8,-3 8,-8 0,-6 -4,-8 -8,-8l-57 0c-6,0 -8,4 -8,8l0 108c0,4 2,8 8,8l57 0zm69 -136c16,0 24,-11 24,-23 0,-4 -2,-7 -6,-7 -4,0 -6,3 -7,7 0,6 -5,11 -11,11 -7,0 -11,-5 -12,-11 0,-4 -3,-7 -6,-7 -4,0 -7,3 -7,7 0,12 8,23 25,23zm23 130c0,4 2,8 8,8 6,0 8,-4 8,-8l0 -112c0,-4 -2,-8 -8,-8 -4,0 -6,1 -8,6l-48 85 0 0c0,-3 0,-8 0,-13l0 -70c0,-4 -2,-8 -8,-8 -6,0 -8,4 -8,8l0 112c0,4 3,8 9,8 3,0 5,-1 8,-6l48 -85 0 0c-1,3 -1,8 -1,13l0 70z"/>
   <path class="fil9 str0" d="M4288 4211c0,-883 0,-1475 0,-2358l3538 0"/>
   <path class="fil9 str0" d="M4406 4606c0,-884 0,-1475 0,-2359l3537 0"/>
   <path class="fil9 str0" d="M4523 5000c0,-883 0,-1475 0,-2358l3538 0"/>
   <path class="fil9 str0" d="M4641 5395c0,-883 0,-1475 0,-2359l3538 0"/>
   <path class="fil10" d="M4716 3933l-589 -1973 0 1086 589 1973 0 -1086z"/>
   <g>
    <path class="fil7" d="M4158 2029c21,-6 44,6 51,27 6,22 -6,45 -27,52l-24 -79zm834 1952l14 81 -101 12 -97 -1 -92 -13 -87 -24 -83 -34 -78 -43 -72 -52 -68 -60 -62 -67 -57 -73 -53 -78 -47 -82 -43 -87 -38 -89 -34 -92 -28 -93 -24 -95 -20 -95 -14 -94 -11 -93 -5 -92 -1 -88 4 -86 8 -82 13 -77 18 -72 23 -67 28 -60 34 -52 40 -45 47 -35 52 -24 24 79 -36 16 -33 25 -30 34 -27 43 -24 51 -21 58 -16 66 -12 71 -8 77 -4 81 1 84 6 88 9 89 14 90 19 91 23 91 28 90 31 87 37 86 40 82 45 77 49 73 54 68 57 62 61 54 66 47 69 39 74 31 78 21 82 11 87 1 91 -11zm0 0c22,-4 43,11 47,34 4,22 -11,43 -33,47l-14 -81z"/>
   </g>
   <g>
    <path class="fil7" d="M4961 5444c-6,-21 6,-44 27,-51 21,-6 44,6 50,28l-77 23zm96 66l-80 7 0 0 0 -3 -1 -3 0 -3 -1 -3 0 -3 -1 -3 0 -3 -1 -4 -1 -3 0 -3 -1 -3 -1 -4 -1 -3 -1 -4 0 -3 -1 -3 -1 -3 -1 -4 -1 -3 -1 -3 -1 -3 0 -3 -1 -3 77 -23 1 3 1 3 1 4 1 3 1 3 0 4 1 3 1 4 1 4 1 4 1 4 1 4 1 4 1 4 1 4 1 4 0 4 1 4 1 5 0 4 1 4 1 4 0 5 0 0zm0 0c2,22 -14,42 -36,45 -22,2 -42,-15 -44,-38l80 -7zm-143 61c22,-1 41,17 42,40 0,22 -17,41 -40,42l-2 -82zm-89 70l20 -80 6 2 7 1 6 2 7 1 6 1 7 1 6 1 5 0 6 1 5 0 5 0 3 0 2 82 -4 0 -7 0 -8 0 -8 -1 -7 0 -8 -1 -9 -2 -8 -1 -9 -2 -8 -2 -9 -2 -6 -1zm0 0c-22,-6 -35,-28 -29,-50 5,-22 27,-35 49,-30l-20 80zm-111 -148c18,14 22,39 9,58 -13,18 -38,22 -56,9l47 -67zm-114 11l54 -60 2 1 5 5 5 5 5 4 5 4 5 5 5 4 5 4 5 4 5 4 5 4 5 3 3 2 -47 67 -4 -3 -5 -4 -6 -4 -5 -4 -6 -5 -5 -4 -6 -5 -6 -5 -5 -5 -6 -5 -6 -5 -5 -5 -2 -2zm0 0c-16,-15 -17,-41 -2,-58 14,-16 40,-18 56,-2l-54 60zm-52 -178c14,17 12,43 -5,58 -18,14 -43,12 -57,-5l62 -53zm-113 -16l66 -48 7 11 12 17 13 17 13 17 2 2 -62 53 -2 -3 -15 -19 -13 -18 -14 -19 -7 -10zm0 0c-13,-19 -9,-44 10,-58 18,-13 43,-8 56,10l-66 48zm-13 -185c10,20 1,45 -19,55 -20,9 -44,1 -53,-20l72 -35zm-104 -46l75 -27 4 10 5 13 5 14 5 14 7 14 3 8 -72 35 -5 -10 -6 -15 -7 -15 -5 -15 -6 -15 -3 -11zm0 0c-8,-21 3,-44 24,-52 21,-8 44,3 51,25l-75 27zm44 -181c3,22 -13,43 -34,46 -22,3 -43,-12 -46,-35l80 -11zm-92 -71l80 -12 1 9 5 33 4 27 2 14 -80 11 -2 -13 -4 -27 -4 -32 -2 -10zm0 0c-3,-22 12,-43 34,-46 22,-4 43,12 46,34l-80 12zm56 -176c3,22 -12,43 -34,46 -22,4 -43,-12 -46,-34l80 -12zm-92 -70l79 -12 5 33 8 49 -80 12 -7 -49 -5 -33zm0 0c-3,-23 12,-43 34,-47 22,-3 42,12 45,35l-79 12zm55 -177c3,23 -12,44 -34,47 -22,3 -42,-12 -46,-34l80 -13zm-92 -69l80 -13 8 55 4 27 -80 13 -4 -28 -8 -54zm0 0c-3,-23 12,-44 34,-47 22,-4 42,12 46,34l-80 13zm55 -177c3,22 -12,43 -34,47 -22,3 -42,-12 -45,-35l79 -12zm-92 -70l80 -12 1 7 8 57 3 18 -79 12 -3 -17 -9 -58 -1 -7zm0 0c-3,-22 12,-43 34,-47 22,-3 42,12 46,35l-80 12zm55 -176c4,22 -12,43 -33,46 -22,4 -43,-12 -46,-34l79 -12zm-92 -70l80 -13 6 44 6 39 -79 12 -6 -39 -7 -43zm0 0c-3,-23 12,-43 34,-47 22,-3 42,12 46,34l-80 13zm55 -177c4,23 -12,44 -34,47 -21,3 -42,-12 -45,-34l79 -13zm-84 -19l79 -13 1 4 1 10 3 17 0 1 -79 13 -1 -2 -2 -16 -2 -11 0 -3zm0 0c-4,-23 12,-44 33,-47 22,-4 43,12 46,34l-79 13z"/>
   </g>
   <path class="fil11 str8" d="M4940 6605l-453 -618c-27,-43 -113,-202 -168,-227 -61,-28 -113,20 -91,84 19,55 158,165 193,198l519 563zm-523 -636c-22,30 -189,-120 -139,-162 50,-42 173,144 139,162z"/>
   <path class="fil4 str9" d="M4999 5433c-39,-138 -190,-250 -327,-243 -342,17 -345,353 -345,353 0,222 34,364 -94,468"/>
   <path class="fil11 str8" d="M4239 5865c19,29 56,66 93,99l20 -21c-38,-30 -78,-77 -83,-109l-30 31z"/>
   <g>
    <path class="fil7" d="M5049 4044c9,21 0,45 -21,54 -20,9 -44,-1 -53,-21l74 -33zm-106 -44l74 -32 32 76 -74 33 -32 -77zm0 0c-9,-21 1,-45 21,-54 20,-9 44,1 53,22l-74 32zm9 -185c9,21 0,45 -21,54 -20,9 -44,0 -52,-21l73 -33zm-106 -44l74 -32 32 76 -73 33 -33 -77zm0 0c-8,-20 1,-45 21,-53 21,-9 44,0 53,21l-74 32zm10 -185c8,21 -1,45 -21,54 -21,9 -44,0 -53,-21l74 -33zm-106 -43l73 -33 33 76 -74 33 -32 -76zm0 0c-9,-21 0,-45 21,-54 20,-9 44,0 52,21l-73 33zm9 -185c9,20 -1,45 -21,53 -20,9 -44,0 -53,-21l74 -32zm-106 -44l74 -33 32 77 -74 32 -32 -76zm0 0c-9,-21 0,-45 21,-54 20,-9 44,0 53,21l-74 33zm9 -185c9,21 0,45 -21,54 -20,9 -44,-1 -53,-22l74 -32zm-106 -44l74 -33 32 77 -74 32 -32 -76zm0 0c-9,-21 1,-45 21,-54 21,-9 44,1 53,21l-74 33zm10 -185c8,21 -1,45 -21,54 -21,9 -45,-1 -53,-22l74 -32zm-107 -44l74 -32 33 76 -74 32 -33 -76zm0 0c-8,-21 1,-45 21,-54 21,-9 44,1 53,22l-74 32zm10 -185c9,21 -1,45 -21,54 -21,9 -44,-1 -53,-21l74 -33zm-106 -44l74 -32 32 76 -74 33 -32 -77zm0 0c-9,-21 0,-45 21,-54 20,-9 44,1 53,22l-74 32zm9 -185c9,21 -1,45 -21,54 -20,9 -44,0 -53,-21l74 -33zm-106 -44l74 -32 32 76 -74 33 -32 -77zm0 0c-9,-20 1,-45 21,-54 20,-8 44,1 53,22l-74 32zm9 -185c9,21 0,45 -21,54 -20,9 -44,0 -53,-21l74 -33zm-106 -43l74 -33 32 76 -74 33 -32 -76zm0 0c-9,-21 1,-45 21,-54 21,-9 44,0 53,21l-74 33z"/>
   </g>
   <g>
    <path class="fil7" d="M4158 2816c21,-7 44,5 51,27 6,22 -6,45 -27,51l-24 -78zm834 1952l14 81 -101 12 -97 -1 -92 -13 -87 -24 -83 -34 -78 -43 -72 -52 -68 -60 -62 -67 -57 -73 -53 -78 -47 -82 -43 -87 -38 -89 -34 -92 -28 -94 -24 -94 -20 -95 -14 -94 -11 -93 -5 -92 -1 -89 4 -85 8 -82 13 -77 18 -72 23 -67 28 -60 34 -52 40 -45 47 -35 52 -24 24 78 -36 17 -33 25 -30 34 -27 42 -24 52 -21 58 -16 66 -12 71 -8 77 -4 81 1 84 6 87 9 90 14 90 19 91 23 91 28 89 31 88 37 85 40 82 45 78 49 73 54 68 57 61 61 55 66 47 69 39 74 30 78 22 82 11 87 1 91 -11zm0 0c22,-4 43,11 47,33 4,23 -11,44 -33,48l-14 -81z"/>
   </g>
   <g>
    <path class="fil7" d="M5049 4792c9,21 0,45 -21,54 -20,9 -44,-1 -53,-21l74 -33zm-106 -44l74 -32 32 76 -74 33 -32 -77zm0 0c-9,-20 1,-45 21,-54 20,-9 44,1 53,22l-74 32zm9 -185c9,21 0,45 -21,54 -20,9 -44,0 -52,-21l73 -33zm-106 -43l74 -33 32 76 -73 33 -33 -76zm0 0c-8,-21 1,-45 21,-54 21,-9 44,0 53,21l-74 33zm10 -186c8,21 -1,45 -21,54 -21,9 -44,0 -53,-21l74 -33zm-106 -43l73 -33 33 76 -74 33 -32 -76zm0 0c-9,-21 0,-45 21,-54 20,-9 44,0 52,21l-73 33zm9 -185c9,20 -1,45 -21,54 -20,9 -44,-1 -53,-22l74 -32zm-106 -44l74 -33 32 77 -74 32 -32 -76zm0 0c-9,-21 0,-45 21,-54 20,-9 44,1 53,21l-74 33zm9 -185c9,21 0,45 -21,54 -20,9 -44,-1 -53,-22l74 -32zm-106 -44l74 -32 32 76 -74 32 -32 -76zm0 0c-9,-21 1,-45 21,-54 21,-9 44,1 53,22l-74 32zm10 -185c8,21 -1,45 -21,54 -21,9 -45,-1 -53,-22l74 -32zm-107 -44l74 -32 33 76 -74 32 -33 -76zm0 0c-8,-21 1,-45 21,-54 21,-9 44,1 53,22l-74 32zm10 -185c9,21 -1,45 -21,54 -21,9 -44,-1 -53,-21l74 -33zm-106 -44l74 -32 32 76 -74 33 -32 -77zm0 0c-9,-20 0,-45 21,-54 20,-9 44,1 53,22l-74 32zm9 -185c9,21 -1,45 -21,54 -20,9 -44,0 -53,-21l74 -33zm-106 -43l74 -33 32 76 -74 33 -32 -76zm0 0c-9,-21 1,-45 21,-54 20,-9 44,0 53,21l-74 33zm9 -186c9,21 0,45 -21,54 -20,9 -44,0 -53,-21l74 -33zm-106 -43l74 -33 32 76 -74 33 -32 -76zm0 0c-9,-21 1,-45 21,-54 21,-9 44,0 53,21l-74 33z"/>
   </g>
  </g>
 </g>
</svg>
