<?xml version="1.0" encoding="UTF-8"?>
<!DOCTYPE svg PUBLIC "-//W3C//DTD SVG 1.0//EN" "http://www.w3.org/TR/2001/REC-SVG-20010904/DTD/svg10.dtd">
<!-- Creator: CorelDRAW X7 -->
<svg xmlns="http://www.w3.org/2000/svg" xml:space="preserve" width="200mm" height="200mm" version="1.0" style="shape-rendering:geometricPrecision; text-rendering:geometricPrecision; image-rendering:optimizeQuality; fill-rule:evenodd; clip-rule:evenodd"
viewBox="0 0 20000 20000"
 xmlns:xlink="http://www.w3.org/1999/xlink">
 <defs>
  <style type="text/css">
   <![CDATA[
    .str3 {stroke:#034540;stroke-width:25}
    .str1 {stroke:#3696A0;stroke-width:25}
    .str0 {stroke:#5B5B5B;stroke-width:7.62}
    .str2 {stroke:#034540;stroke-width:159.99;stroke-linecap:round;stroke-linejoin:round}
    .fil13 {fill:none;fill-rule:nonzero}
    .fil2 {fill:#0050A0}
    .fil14 {fill:#034540}
    .fil3 {fill:#3497A1}
    .fil9 {fill:#3696A0}
    .fil8 {fill:#3C4F59}
    .fil7 {fill:#7C8E97}
    .fil6 {fill:#BB8076}
    .fil5 {fill:#D4EFFF}
    .fil4 {fill:#DBBCB6}
    .fil1 {fill:#FEE9D0}
    .fil11 {fill:#FFF7B3}
    .fil10 {fill:#FFFADB}
    .fil12 {fill:#4D8A7D;fill-rule:nonzero}
    .fil0 {fill:url(#id0)}
   ]]>
  </style>
  <radialGradient id="id0" gradientUnits="userSpaceOnUse" gradientTransform="matrix(1.41421 -0 -0 1.41421 -4142 -4140)" cx="9999.37" cy="9994.13" r="10000" fx="9999.37" fy="9994.13">
   <stop offset="0" style="stop-opacity:1; stop-color:#FEFEFE"/>
   <stop offset="0.439216" style="stop-opacity:1; stop-color:#FEFEFE"/>
   <stop offset="1" style="stop-opacity:1; stop-color:#D1E2F2"/>
  </radialGradient>
 </defs>
 <g id="Layer_x0020_1">
  <metadata id="CorelCorpID_0Corel-Layer"/>
  <path class="fil0" d="M-1 -6l20000 0 0 20000 -20000 0 0 -20000z"/>
  <g id="_662423044096">
   <path class="fil1 str0" d="M11621 6901l-3243 0 0 -1901 3243 0 0 1901z"/>
   <path class="fil2 str0" d="M11856 5020l-3714 0 239 -461 3237 0 238 461z"/>
   <path class="fil1 str0" d="M9062 5037l930 -737 944 737 -1874 0z"/>
   <path class="fil2 str0" d="M9081 5061l912 -723 925 723c13,10 32,8 42,-5 10,-13 8,-32 -5,-42l-944 -738c-11,-8 -26,-8 -37,0l-930 738c-13,10 -15,29 -5,42 10,13 29,15 42,5z"/>
   <path class="fil3 str0" d="M8978 6759l-462 0 0 -938 462 0 0 938z"/>
   <path class="fil4 str0" d="M8978 6759l0 -14 -448 0 0 -910 435 0 0 924 13 0 0 -14 0 14 14 0 0 -952 -489 0 0 966 489 0 0 -14 -14 0z"/>
   <path class="fil5 str0" d="M8747 5821l0 950 0 -950z"/>
   <path class="fil4 str0" d="M8734 5821l0 950 27 0 0 -950 -27 0z"/>
   <path class="fil3 str0" d="M11482 6759l-462 0 0 -938 462 0 0 938z"/>
   <path class="fil4 str0" d="M11482 6759l0 -14 -448 0 0 -910 435 0 0 924 13 0 0 -14 0 14 14 0 0 -952 -489 0 0 966 489 0 0 -14 -14 0z"/>
   <path class="fil5 str0" d="M11251 5821l0 950 0 -950z"/>
   <path class="fil4 str0" d="M11238 5821l0 950 27 0 0 -950 -27 0z"/>
   <path class="fil6 str0" d="M9360 6901l-53 0 0 -1156 53 0 0 1156z"/>
   <path class="fil6 str0" d="M10691 6901l-52 0 0 -1156 52 0 0 1156z"/>
   <path class="fil2 str0" d="M10795 5766l-1591 0 0 -185 1591 0 0 185z"/>
   <path class="fil7 str0" d="M10476 6901l-953 0 0 -1063 953 0 0 1063z"/>
   <path class="fil8 str0" d="M10006 6901l-13 0 0 -1063 13 0 0 1063z"/>
   <path class="fil8 str0" d="M9954 6407l-42 0c-8,0 -15,-6 -15,-15 0,-8 7,-15 15,-15l42 0c9,0 15,7 15,15 0,9 -6,15 -15,15z"/>
   <path class="fil8 str0" d="M10094 6407l-43 0c-8,0 -15,-6 -15,-15 0,-8 7,-15 15,-15l43 0c8,0 14,7 14,15 0,9 -6,15 -14,15z"/>
   <path class="fil3 str0" d="M8790 5488l-269 0 0 -336 269 0 0 336z"/>
   <path class="fil4 str0" d="M8790 5488l0 -14 -255 0 0 -309 242 0 0 323 13 0 0 -14 0 14 14 0 0 -350 -296 0 0 363 296 0 0 -13 -14 0z"/>
   <path class="fil3 str0" d="M9176 5488l-269 0 0 -336 269 0 0 336z"/>
   <path class="fil4 str0" d="M9176 5488l0 -14 -255 0 0 -309 242 0 0 323 13 0 0 -14 0 14 14 0 0 -350 -296 0 0 363 296 0 0 -13 -14 0z"/>
   <path class="fil3 str0" d="M9562 5488l-269 0 0 -336 269 0 0 336z"/>
   <path class="fil4 str0" d="M9562 5488l0 -14 -255 0 0 -309 242 0 0 323 13 0 0 -14 0 14 14 0 0 -350 -296 0 0 363 296 0 0 -13 -14 0z"/>
   <path class="fil3 str0" d="M9949 5488l-269 0 0 -336 269 0 0 336z"/>
   <path class="fil4 str0" d="M9949 5488l0 -14 -256 0 0 -309 242 0 0 323 14 0 0 -14 0 14 13 0 0 -350 -296 0 0 363 296 0 0 -13 -13 0z"/>
   <path class="fil3 str0" d="M10335 5488l-269 0 0 -336 269 0 0 336z"/>
   <path class="fil4 str0" d="M10335 5488l0 -14 -256 0 0 -309 242 0 0 323 14 0 0 -14 0 14 13 0 0 -350 -296 0 0 363 296 0 0 -13 -13 0z"/>
   <path class="fil3 str0" d="M10721 5488l-269 0 0 -336 269 0 0 336z"/>
   <path class="fil4 str0" d="M10721 5488l0 -14 -256 0 0 -309 242 0 0 323 14 0 0 -14 0 14 13 0 0 -350 -296 0 0 363 296 0 0 -13 -13 0z"/>
   <path class="fil3 str0" d="M11107 5488l-269 0 0 -336 269 0 0 336z"/>
   <path class="fil4 str0" d="M11107 5488l0 -14 -256 0 0 -309 242 0 0 323 14 0 0 -14 0 14 13 0 0 -350 -296 0 0 363 296 0 0 -13 -13 0z"/>
   <path class="fil3 str0" d="M11493 5488l-269 0 0 -336 269 0 0 336z"/>
   <path class="fil4 str0" d="M11493 5488l0 -14 -255 0 0 -309 241 0 0 323 14 0 0 -14 0 14 14 0 0 -350 -297 0 0 363 297 0 0 -13 -14 0z"/>
   <path class="fil9 str1" d="M9505 7130l-116 0c-8,0 -15,-3 -21,-8 -5,-7 -7,-14 -7,-21 0,-7 2,-13 7,-20 5,-6 12,-9 21,-9l290 0c8,0 15,3 20,9 6,6 9,12 9,20 0,6 -3,13 -8,19 -4,6 -12,10 -21,10l-116 0 0 492c0,9 -3,17 -8,22 -6,5 -12,7 -21,7 -8,0 -14,-2 -20,-7 -6,-5 -9,-12 -9,-22l0 -492zm666 492c0,9 -3,17 -9,22 -5,5 -12,7 -20,7 -8,0 -15,-2 -20,-7 -6,-5 -9,-12 -9,-22l0 -409 -235 423c-3,6 -7,11 -13,14l-6 4c-2,1 -5,1 -9,2 -5,0 -12,-3 -19,-9 -5,-6 -7,-14 -7,-25l0 -521c0,-7 2,-15 8,-21 6,-5 13,-8 20,-8 8,0 14,3 20,8 6,4 9,12 9,21l0 410 235 -424c3,-4 7,-9 12,-14 6,-4 11,-6 16,-6 6,0 12,4 18,10 6,6 9,14 9,24l0 521zm173 -300l244 -242c6,-5 13,-8 20,-8 7,0 14,3 20,9 6,6 9,13 9,21 0,5 -2,11 -8,19l-173 172 178 315 4 15c0,7 -3,14 -9,19 -6,6 -13,9 -21,9 -10,0 -18,-5 -25,-15l-170 -302 -69 68 0 220c0,9 -3,17 -8,22 -5,5 -12,7 -21,7 -7,0 -14,-2 -20,-7 -6,-5 -8,-12 -8,-22l0 -522c0,-7 2,-14 8,-20 6,-5 13,-8 20,-8 8,0 14,2 20,7 6,5 9,12 9,21l0 222z"/>
  </g>
  <g id="_662423041376">
   <path class="fil1 str0" d="M11080 15228l-2082 0 0 -1901 2082 0 0 1901z"/>
   <path class="fil2 str0" d="M11222 13347l-2365 0 152 -461 2061 0 152 461z"/>
   <path class="fil1 str0" d="M9128 13364l930 -738 944 738 -1874 0z"/>
   <path class="fil2 str0" d="M9147 13388l912 -724 925 724c13,10 32,8 42,-5 10,-13 8,-32 -5,-42l-944 -738c-11,-8 -26,-8 -37,0l-930 738c-13,10 -15,29 -5,42 10,13 29,15 42,5z"/>
   <path class="fil6 str0" d="M9426 15228l-53 0 0 -1156 53 0 0 1156z"/>
   <path class="fil6 str0" d="M10757 15228l-52 0 0 -1156 52 0 0 1156z"/>
   <path class="fil2 str0" d="M10861 14093l-1591 0 0 -186 1591 0 0 186z"/>
   <path class="fil7 str0" d="M10542 15228l-953 0 0 -1063 953 0 0 1063z"/>
   <path class="fil8 str0" d="M10072 15228l-13 0 0 -1063 13 0 0 1063z"/>
   <path class="fil8 str0" d="M10020 14734l-42 0c-8,0 -15,-7 -15,-15 0,-8 7,-15 15,-15l42 0c9,0 15,7 15,15 0,8 -6,15 -15,15z"/>
   <path class="fil8 str0" d="M10160 14734l-43 0c-8,0 -15,-7 -15,-15 0,-8 7,-15 15,-15l43 0c8,0 14,7 14,15 0,8 -6,15 -14,15z"/>
   <path class="fil3 str0" d="M9628 13815l-269 0 0 -336 269 0 0 336z"/>
   <path class="fil4 str0" d="M9628 13815l0 -14 -255 0 0 -309 242 0 0 323 13 0 0 -14 0 14 14 0 0 -350 -296 0 0 363 296 0 0 -13 -14 0z"/>
   <path class="fil3 str0" d="M10014 13815l-268 0 0 -336 268 0 0 336z"/>
   <path class="fil4 str0" d="M10014 13815l0 -14 -255 0 0 -309 242 0 0 323 13 0 0 -14 0 14 14 0 0 -350 -296 0 0 363 296 0 0 -13 -14 0z"/>
   <path class="fil3 str0" d="M10401 13815l-269 0 0 -336 269 0 0 336z"/>
   <path class="fil4 str0" d="M10401 13815l0 -14 -256 0 0 -309 242 0 0 323 14 0 0 -14 0 14 13 0 0 -350 -296 0 0 363 296 0 0 -13 -13 0z"/>
   <path class="fil3 str0" d="M10787 13815l-269 0 0 -336 269 0 0 336z"/>
   <path class="fil4 str0" d="M10787 13815l0 -14 -256 0 0 -309 242 0 0 323 14 0 0 -14 0 14 13 0 0 -350 -296 0 0 363 296 0 0 -13 -13 0z"/>
   <path class="fil9 str1" d="M9681 15693l-174 0c-31,0 -58,-11 -81,-33 -23,-23 -35,-50 -35,-82l0 -203c0,-8 3,-15 9,-21 6,-5 12,-8 20,-8 7,0 14,3 20,7 6,5 9,13 9,22l0 203c0,16 5,30 16,41 6,5 13,9 19,13 8,2 16,4 23,4l174 0 0 -261c0,-8 3,-15 8,-21 6,-5 13,-8 21,-8 7,0 14,3 20,7 5,5 8,13 8,22l0 435c0,31 -11,59 -33,81 -23,23 -50,34 -82,34l-145 0c-9,0 -16,-2 -21,-8 -5,-6 -8,-12 -8,-20 0,-7 3,-14 8,-20 5,-6 12,-9 21,-9l145 0c16,0 30,-6 41,-16 11,-11 17,-25 17,-42l0 -117zm520 203c0,9 -2,17 -8,22 -5,5 -12,7 -20,7 -8,0 -15,-2 -21,-7 -5,-5 -8,-12 -8,-22l0 -409 -235 424c-3,5 -8,10 -13,14l-6 3c-2,1 -5,2 -9,2 -6,0 -12,-3 -19,-8 -5,-6 -8,-15 -8,-25l0 -521c0,-8 3,-15 9,-22 6,-5 12,-7 20,-7 7,0 14,2 20,7 6,5 9,12 9,22l0 409 235 -423c3,-5 7,-10 12,-14 5,-4 11,-6 16,-6 6,0 12,3 18,9 5,6 8,14 8,24l0 521zm174 -300l244 -242c6,-5 12,-8 20,-8 7,0 14,3 20,9 6,6 9,13 9,21 0,5 -3,11 -9,20l-172 171 178 315 4 15c0,8 -3,14 -10,20 -5,5 -12,8 -21,8 -9,0 -17,-5 -24,-15l-170 -302 -69 68 0 220c0,9 -3,17 -8,22 -6,5 -12,7 -21,7 -8,0 -14,-2 -20,-7 -6,-5 -9,-12 -9,-22l0 -522c0,-7 3,-14 9,-19 6,-6 13,-9 20,-9 7,0 14,3 20,7 6,5 9,12 9,21l0 222z"/>
  </g>
  <g id="_662423034432">
   <path class="fil1 str0" d="M15569 15227l-2082 0 0 -1901 2082 0 0 1901z"/>
   <path class="fil2 str0" d="M15711 13345l-2365 0 152 -460 2061 0 152 460z"/>
   <path class="fil1 str0" d="M13617 13363l930 -738 944 738 -1874 0z"/>
   <path class="fil2 str0" d="M13636 13386l912 -723 925 723c13,11 32,8 42,-5 10,-13 8,-31 -5,-42l-944 -737c-11,-9 -26,-9 -37,0l-930 738c-13,10 -15,29 -5,42 10,12 29,15 42,4z"/>
   <path class="fil6 str0" d="M13915 15227l-53 0 0 -1156 53 0 0 1156z"/>
   <path class="fil6 str0" d="M15246 15227l-52 0 0 -1156 52 0 0 1156z"/>
   <path class="fil2 str0" d="M15350 14091l-1591 0 0 -185 1591 0 0 185z"/>
   <path class="fil7 str0" d="M15031 15227l-953 0 0 -1064 953 0 0 1064z"/>
   <path class="fil8 str0" d="M14561 15227l-13 0 0 -1064 13 0 0 1064z"/>
   <path class="fil8 str0" d="M14509 14733l-42 0c-8,0 -15,-7 -15,-15 0,-8 7,-15 15,-15l42 0c9,0 15,7 15,15 0,8 -6,15 -15,15z"/>
   <path class="fil8 str0" d="M14649 14733l-43 0c-8,0 -15,-7 -15,-15 0,-8 7,-15 15,-15l43 0c8,0 14,7 14,15 0,8 -6,15 -14,15z"/>
   <path class="fil3 str0" d="M14117 13813l-269 0 0 -336 269 0 0 336z"/>
   <path class="fil4 str0" d="M14117 13813l0 -13 -255 0 0 -309 242 0 0 322 13 0 0 -13 0 13 14 0 0 -349 -296 0 0 363 296 0 0 -14 -14 0z"/>
   <path class="fil3 str0" d="M14503 13813l-268 0 0 -336 268 0 0 336z"/>
   <path class="fil4 str0" d="M14503 13813l0 -13 -255 0 0 -309 242 0 0 322 13 0 0 -13 0 13 14 0 0 -349 -296 0 0 363 296 0 0 -14 -14 0z"/>
   <path class="fil3 str0" d="M14890 13813l-269 0 0 -336 269 0 0 336z"/>
   <path class="fil4 str0" d="M14890 13813l0 -13 -256 0 0 -309 242 0 0 322 14 0 0 -13 0 13 13 0 0 -349 -296 0 0 363 296 0 0 -14 -13 0z"/>
   <path class="fil3 str0" d="M15276 13813l-269 0 0 -336 269 0 0 336z"/>
   <path class="fil4 str0" d="M15276 13813l0 -13 -256 0 0 -309 242 0 0 322 14 0 0 -13 0 13 13 0 0 -349 -296 0 0 363 296 0 0 -14 -13 0z"/>
   <path class="fil9 str1" d="M14170 15692l-174 0c-31,0 -58,-11 -81,-34 -23,-22 -35,-49 -35,-82l0 -202c0,-8 3,-15 9,-22 6,-5 12,-7 20,-7 7,0 14,2 20,7 6,5 9,12 9,22l0 203c0,16 5,30 16,41 6,5 13,9 19,12 8,3 16,5 23,5l174 0 0 -261c0,-8 3,-15 8,-22 6,-5 13,-7 21,-7 7,0 14,2 20,7 5,5 8,12 8,22l0 434c0,32 -11,59 -33,82 -23,23 -50,34 -82,34l-145 0c-9,0 -16,-3 -21,-8 -5,-6 -8,-13 -8,-21 0,-7 3,-13 8,-19 5,-6 12,-10 21,-10l145 0c16,0 30,-5 41,-16 11,-10 17,-24 17,-42l0 -116zm520 203c0,9 -2,17 -8,22 -5,5 -12,7 -20,7 -8,0 -15,-2 -21,-7 -5,-5 -8,-12 -8,-22l0 -409 -235 423c-3,6 -8,11 -13,14l-6 4c-2,1 -5,1 -9,2 -6,0 -12,-3 -19,-9 -5,-6 -8,-14 -8,-25l0 -521c0,-7 3,-15 9,-21 6,-5 12,-8 20,-8 7,0 14,3 20,8 6,4 9,12 9,21l0 410 235 -424c3,-4 7,-9 12,-14 5,-4 11,-6 16,-6 6,0 12,4 18,10 5,6 8,14 8,24l0 521zm174 -300l244 -242c6,-5 12,-8 20,-8 7,0 14,3 20,9 6,6 9,13 9,21 0,5 -3,11 -8,19l-173 172 178 315 4 15c0,7 -3,14 -9,19 -6,6 -13,9 -22,9 -9,0 -17,-5 -24,-15l-170 -302 -69 68 0 220c0,9 -3,17 -8,22 -6,5 -12,7 -21,7 -8,0 -14,-2 -20,-7 -6,-5 -9,-12 -9,-22l0 -522c0,-7 3,-14 9,-20 6,-5 13,-8 20,-8 7,0 14,2 20,7 6,5 9,12 9,21l0 222z"/>
  </g>
  <g id="_662423028320">
   <path class="fil1 str0" d="M6591 15284l-2082 0 0 -1901 2082 0 0 1901z"/>
   <path class="fil2 str0" d="M6733 13403l-2365 0 152 -461 2061 0 152 461z"/>
   <path class="fil1 str0" d="M4639 13420l930 -737 944 737 -1874 0z"/>
   <path class="fil2 str0" d="M4658 13444l912 -723 925 723c13,10 32,8 42,-5 10,-13 8,-32 -5,-42l-944 -738c-11,-8 -26,-8 -37,0l-930 738c-13,10 -15,29 -5,42 10,13 29,15 42,5z"/>
   <path class="fil6 str0" d="M4937 15284l-53 0 0 -1156 53 0 0 1156z"/>
   <path class="fil6 str0" d="M6268 15284l-52 0 0 -1156 52 0 0 1156z"/>
   <path class="fil2 str0" d="M6372 14149l-1591 0 0 -186 1591 0 0 186z"/>
   <path class="fil7 str0" d="M6053 15284l-953 0 0 -1063 953 0 0 1063z"/>
   <path class="fil8 str0" d="M5583 15284l-13 0 0 -1063 13 0 0 1063z"/>
   <path class="fil8 str0" d="M5531 14790l-42 0c-8,0 -15,-6 -15,-15 0,-8 7,-15 15,-15l42 0c9,0 15,7 15,15 0,9 -6,15 -15,15z"/>
   <path class="fil8 str0" d="M5671 14790l-43 0c-8,0 -15,-6 -15,-15 0,-8 7,-15 15,-15l43 0c8,0 14,7 14,15 0,9 -6,15 -14,15z"/>
   <path class="fil3 str0" d="M5139 13871l-269 0 0 -336 269 0 0 336z"/>
   <path class="fil4 str0" d="M5139 13871l0 -14 -255 0 0 -309 242 0 0 323 13 0 0 -14 0 14 14 0 0 -350 -296 0 0 363 296 0 0 -13 -14 0z"/>
   <path class="fil3 str0" d="M5525 13871l-269 0 0 -336 269 0 0 336z"/>
   <path class="fil4 str0" d="M5525 13871l0 -14 -255 0 0 -309 242 0 0 323 13 0 0 -14 0 14 14 0 0 -350 -296 0 0 363 296 0 0 -13 -14 0z"/>
   <path class="fil3 str0" d="M5912 13871l-269 0 0 -336 269 0 0 336z"/>
   <path class="fil4 str0" d="M5912 13871l0 -14 -256 0 0 -309 242 0 0 323 14 0 0 -14 0 14 13 0 0 -350 -296 0 0 363 296 0 0 -13 -13 0z"/>
   <path class="fil3 str0" d="M6298 13871l-269 0 0 -336 269 0 0 336z"/>
   <path class="fil4 str0" d="M6298 13871l0 -14 -256 0 0 -309 242 0 0 323 14 0 0 -14 0 14 13 0 0 -350 -296 0 0 363 296 0 0 -13 -13 0z"/>
   <path class="fil9 str1" d="M5192 15749l-174 0c-31,0 -58,-11 -81,-33 -23,-23 -35,-50 -35,-82l0 -203c0,-8 3,-15 9,-21 6,-5 12,-8 20,-8 7,0 14,3 20,8 6,4 9,12 9,21l0 203c0,16 5,30 16,41 6,5 12,9 19,13 8,2 16,4 23,4l174 0 0 -261c0,-8 3,-15 8,-21 6,-5 13,-8 21,-8 7,0 14,3 20,8 5,4 8,12 8,21l0 435c0,31 -11,59 -33,81 -23,23 -50,34 -82,34l-145 0c-9,0 -16,-2 -21,-8 -5,-6 -8,-12 -8,-20 0,-7 3,-14 8,-20 5,-6 12,-9 21,-9l145 0c16,0 30,-5 41,-16 11,-11 17,-25 17,-42l0 -117zm520 204c0,9 -2,16 -8,21 -5,5 -12,7 -20,7 -8,0 -15,-2 -21,-7 -5,-5 -8,-12 -8,-21l0 -410 -235 424c-4,5 -8,10 -13,14l-6 3c-2,1 -5,2 -9,2 -6,0 -12,-3 -19,-8 -5,-6 -8,-14 -8,-25l0 -521c0,-8 3,-15 9,-22 6,-5 12,-7 20,-7 7,0 14,2 20,7 6,5 9,12 9,22l0 409 235 -423c3,-5 7,-10 12,-14 5,-4 11,-6 16,-6 6,0 12,3 18,9 5,6 8,14 8,24l0 522zm174 -301l244 -242c6,-5 12,-8 20,-8 7,0 14,3 20,9 6,6 9,13 9,21 0,5 -3,12 -9,20l-172 171 178 315 4 15c0,8 -3,14 -10,20 -5,5 -12,8 -21,8 -9,0 -17,-5 -24,-15l-170 -302 -69 68 0 221c0,9 -3,16 -8,21 -6,5 -12,7 -21,7 -8,0 -14,-2 -20,-7 -6,-5 -9,-12 -9,-22l0 -521c0,-8 3,-15 9,-20 6,-6 13,-9 20,-9 7,0 14,3 20,7 6,5 9,12 9,21l0 222z"/>
  </g>
  <path class="fil10 str2" d="M18733 4002l0 8332c-2205,0 -3682,0 -5888,0l0 -8332 5888 0z"/>
  <path class="fil11" d="M12845 4002l5889 0 0 3361 -5889 -2798c10,-289 0,-370 0,-563z"/>
  <g>
   <path class="fil12" d="M13463 10687c-36,0 -64,-31 -64,-70 0,-39 28,-70 64,-70l0 140zm2420 0l-2420 0 0 -140 2420 0 0 140zm0 -140c36,0 65,31 65,70 0,39 -29,70 -65,70l0 -140zm-2420 -1066c-36,0 -64,-31 -64,-70 0,-38 28,-70 64,-70l0 140zm3407 0l-3407 0 0 -140 3407 0 0 140zm0 -140c35,0 64,32 64,70 0,39 -29,70 -64,70l0 -140zm-3407 542c-36,0 -64,-31 -64,-70 0,-38 28,-70 64,-70l0 140zm4586 0l-4586 0 0 -140 4586 0 0 140zm0 -140c35,0 64,32 64,70 0,39 -29,70 -64,70l0 -140zm-4586 542c-36,0 -64,-31 -64,-70 0,-39 28,-70 64,-70l0 140zm4586 0l-4586 0 0 -140 4586 0 0 140zm0 -140c35,0 64,31 64,70 0,39 -29,70 -64,70l0 -140z"/>
  </g>
  <path class="fil13 str2" d="M18733 4002l0 8332c-2205,0 -3682,0 -5888,0l0 -8332 5888 0z"/>
  <path class="fil10 str2" d="M7153 4002l0 8332c-2205,0 -3682,0 -5888,0l0 -8332 5888 0z"/>
  <path class="fil11" d="M1265 4002l5889 0 0 3361 -5889 -2798c10,-289 0,-370 0,-563z"/>
  <g>
   <path class="fil12" d="M1883 9757c-36,0 -64,-31 -64,-70 0,-39 28,-70 64,-70l0 140zm2420 0l-2420 0 0 -140 2420 0 0 140zm0 -140c36,0 65,31 65,70 0,39 -29,70 -65,70l0 -140zm-2420 -1066c-36,0 -64,-31 -64,-70 0,-38 28,-70 64,-70l0 140zm3407 0l-3407 0 0 -140 3407 0 0 140zm0 -140c35,0 64,32 64,70 0,39 -29,70 -64,70l0 -140zm-3407 542c-36,0 -64,-31 -64,-70 0,-38 28,-70 64,-70l0 140zm4586 0l-4586 0 0 -140 4586 0 0 140zm0 -140c35,0 64,32 64,70 0,39 -29,70 -64,70l0 -140zm-4586 542c-36,0 -64,-31 -64,-70 0,-39 28,-70 64,-70l0 140zm4586 0l-4586 0 0 -140 4586 0 0 140zm0 -140c35,0 64,31 64,70 0,39 -29,70 -64,70l0 -140z"/>
  </g>
  <path class="fil13 str2" d="M7153 4002l0 8332c-2205,0 -3682,0 -5888,0l0 -8332 5888 0z"/>
  <g>
   <path class="fil14 str3" d="M3768 4726l-31 94c-2,5 -5,8 -8,11 -3,2 -7,3 -12,4 -6,0 -11,-2 -15,-6 -5,-4 -7,-9 -7,-15l1 -8 131 -390c4,-13 11,-19 20,-19 9,0 16,6 21,19l130 390 1 8c0,6 -2,11 -7,15 -5,4 -10,6 -15,6 -3,0 -6,-1 -10,-2 -4,-2 -7,-6 -10,-13l-31 -94 -158 0zm143 -44l-64 -191 -64 191 128 0zm215 -94l183 -181c4,-4 9,-6 15,-6 5,0 10,2 15,6 4,5 7,10 7,16 0,4 -3,9 -7,15l-129 129 133 235 3 12c0,6 -2,10 -7,14 -4,5 -9,7 -16,7 -7,0 -13,-4 -18,-11l-127 -227 -52 51 0 165c0,7 -2,13 -6,17 -4,3 -10,5 -16,5 -6,0 -11,-2 -15,-5 -4,-4 -7,-9 -7,-17l0 -391c0,-6 3,-11 7,-15 4,-4 10,-6 15,-6 6,0 11,1 15,5 5,3 7,9 7,16l0 166zm412 -144l-87 0c-6,0 -12,-2 -16,-6 -3,-5 -5,-10 -5,-16 0,-5 2,-9 5,-14 4,-5 9,-7 16,-7l217 0c6,0 11,2 16,6 4,5 6,10 6,15 0,5 -2,10 -5,15 -4,5 -9,7 -17,7l-87 0 0 369c0,7 -2,13 -6,17 -4,3 -9,5 -15,5 -6,0 -11,-2 -15,-5 -5,-4 -7,-9 -7,-17l0 -369zm-2235 990c0,26 -9,49 -28,67 -18,19 -41,29 -68,29l-26 0c-25,0 -48,-9 -67,-28 -19,-18 -28,-41 -28,-68l0 -113c0,-25 9,-48 28,-67 18,-19 41,-28 67,-28l26 0c26,0 49,9 68,27 19,19 28,42 28,68l0 113zm-43 0l0 -113c0,-14 -5,-26 -15,-37 -10,-10 -23,-15 -38,-15l-26 0c-14,0 -26,5 -37,15 -10,10 -15,23 -15,37l0 113c0,15 5,27 15,37 10,10 23,16 37,16l26 0c15,0 27,-5 37,-15 11,-10 16,-23 16,-38zm607 74c0,7 -2,12 -6,17 -4,3 -9,5 -15,5 -6,0 -11,-2 -15,-6 -5,-3 -7,-9 -7,-16l0 -196c0,-12 -4,-22 -12,-31 -8,-8 -19,-12 -32,-12l-87 0 0 239c0,7 -2,12 -6,17 -4,3 -9,5 -15,5 -6,0 -11,-2 -15,-6 -5,-3 -7,-9 -7,-16l0 -261c0,-14 7,-21 22,-21l108 0c24,0 44,8 61,25 18,16 26,37 26,62l0 195zm130 -152l131 0 0 -43c0,-13 -4,-23 -12,-31 -9,-9 -19,-13 -32,-13l-43 0c-13,0 -23,4 -31,12 -5,5 -8,9 -10,15 -2,5 -3,11 -3,17l0 43zm0 44l0 43c0,12 4,23 12,31 5,4 10,7 15,10 6,2 11,3 17,3l108 0c6,0 12,2 16,6 4,5 6,10 6,15 0,5 -2,10 -5,15 -4,4 -9,7 -17,7l-108 0c-24,0 -44,-9 -61,-25 -18,-17 -26,-38 -26,-62l0 -130c0,-24 8,-44 25,-61 17,-18 37,-26 62,-26l43 0c24,0 44,8 61,25 18,17 26,37 26,62l0 65c0,14 -7,22 -22,22l-152 0zm304 87l87 0c12,0 22,-4 31,-13 9,-8 13,-18 13,-31l0 -131c0,-12 -4,-22 -13,-31 -8,-8 -18,-12 -31,-12l-87 0 0 218zm0 43l0 108c0,6 -2,11 -7,16 -4,4 -9,6 -15,6 -5,0 -9,-2 -14,-5 -5,-4 -7,-9 -7,-17l0 -391c0,-14 7,-21 21,-21l109 0c24,0 44,8 61,25 17,17 26,37 26,62l0 130c0,24 -9,44 -26,61 -16,17 -37,26 -61,26l-87 0zm304 -174l131 0 0 -43c0,-13 -5,-23 -13,-31 -8,-9 -18,-13 -31,-13l-44 0c-12,0 -22,4 -31,12 -4,5 -7,9 -9,15 -2,5 -3,11 -3,17l0 43zm0 44l0 43c0,12 4,23 12,31 5,4 9,7 14,10 6,2 12,3 17,3l109 0c6,0 11,2 15,6 5,5 7,10 7,15 0,5 -2,10 -6,15 -3,4 -9,7 -16,7l-108 0c-24,0 -44,-9 -62,-25 -17,-17 -25,-38 -25,-62l0 -130c0,-24 8,-44 25,-61 17,-18 37,-26 62,-26l43 0c24,0 44,8 61,25 17,17 26,37 26,62l0 65c0,14 -7,22 -22,22l-152 0zm434 -131l-87 0c-12,0 -22,4 -31,12 -4,4 -7,9 -9,14 -2,6 -3,11 -3,17l0 131c0,12 4,23 12,31 4,4 9,7 14,10 6,2 12,3 17,3l44 0c12,0 22,-4 31,-13 8,-8 12,-18 12,-31l0 -174zm0 -43l0 -44c0,-12 -4,-22 -12,-31 -8,-8 -18,-12 -31,-12l-87 0c-7,0 -12,-2 -16,-6 -4,-5 -6,-10 -6,-16 0,-5 2,-10 6,-14 3,-5 9,-8 16,-8l87 0c24,0 45,9 61,26 17,17 26,37 26,61l0 261c0,24 -9,44 -26,61 -17,17 -37,26 -61,26l-44 0c-23,0 -43,-9 -61,-25 -17,-17 -26,-38 -26,-62l0 -130c0,-24 9,-45 26,-62 17,-17 37,-25 61,-25l87 0zm304 217l0 -174 -87 0c-12,0 -23,4 -31,12 -4,4 -7,9 -9,14 -2,6 -3,11 -3,17l0 131c0,12 4,23 12,31 4,4 9,7 14,10 6,2 12,3 17,3l44 0c12,0 22,-4 31,-13 8,-8 12,-18 12,-31zm22 58c-7,8 -17,15 -29,21 -12,5 -24,8 -36,8l-44 0c-23,0 -43,-9 -61,-25 -17,-17 -26,-38 -26,-62l0 -130c0,-24 9,-45 26,-62 17,-17 37,-25 61,-25l109 0c14,0 21,7 21,21l0 195c0,9 3,18 9,27 5,8 12,14 21,19 10,4 14,10 14,19 0,7 -2,12 -6,16 -4,5 -9,7 -15,7 -4,0 -7,-1 -9,-2 -15,-6 -26,-15 -35,-27zm282 -145l0 -109c0,-5 2,-11 7,-16 4,-3 9,-5 15,-5 5,0 10,1 15,5 4,4 6,9 6,16l0 261c0,7 -2,12 -6,17 -4,3 -9,5 -15,5 -6,0 -11,-2 -15,-6 -5,-3 -7,-9 -7,-16l0 -109 -87 0c-23,0 -44,-8 -61,-25 -17,-17 -26,-37 -26,-62l0 -65c0,-5 2,-11 7,-16 4,-3 9,-5 15,-5 5,0 10,1 15,5 4,4 6,9 6,16l0 65c0,13 4,23 13,31 4,4 9,7 14,10 6,2 12,3 17,3l87 0zm173 0l131 0 0 -43c0,-13 -4,-23 -12,-31 -9,-9 -19,-13 -32,-13l-43 0c-12,0 -23,4 -31,12 -4,5 -8,9 -10,15 -2,5 -3,11 -3,17l0 43zm0 44l0 43c0,12 4,23 13,31 4,4 9,7 14,10 6,2 12,3 17,3l108 0c6,0 12,2 16,6 4,5 6,10 6,15 0,5 -2,10 -5,15 -4,4 -9,7 -17,7l-108 0c-24,0 -44,-9 -61,-25 -17,-17 -26,-38 -26,-62l0 -130c0,-24 8,-44 25,-61 17,-18 37,-26 62,-26l43 0c24,0 44,8 61,25 18,17 26,37 26,62l0 65c0,14 -7,22 -22,22l-152 0zm739 -44l-131 0c-23,0 -44,-9 -61,-25 -17,-17 -26,-38 -26,-62l0 -152c0,-6 2,-11 7,-16 4,-4 9,-6 15,-6 5,0 11,2 15,6 4,3 7,9 7,16l0 152c0,12 4,23 12,31 4,4 9,7 14,10 6,2 12,3 17,3l131 0 0 -196c0,-6 2,-11 6,-16 4,-4 9,-6 15,-6 6,0 11,2 15,6 4,3 7,9 7,16l0 326c0,24 -9,44 -26,61 -17,17 -37,26 -61,26l-109 0c-6,0 -12,-2 -16,-6 -3,-5 -5,-10 -5,-16 0,-5 2,-10 5,-14 4,-5 10,-7 16,-7l109 0c12,0 22,-4 31,-13 8,-8 13,-18 13,-31l0 -87zm390 152c0,7 -2,12 -6,17 -4,3 -9,5 -16,5 -5,0 -10,-2 -15,-6 -4,-3 -6,-9 -6,-16l0 -307 -176 318c-3,4 -6,8 -10,10l-5 3c-1,0 -3,1 -7,2 -4,-1 -8,-3 -14,-7 -4,-4 -5,-11 -5,-19l0 -391c0,-5 2,-11 6,-16 4,-3 9,-5 15,-5 6,0 11,2 15,5 5,4 7,9 7,16l0 307 176 -317c2,-3 5,-7 9,-10 4,-3 8,-5 12,-5 5,0 9,3 13,7 5,5 7,11 7,18l0 391zm130 -225l183 -182c4,-4 9,-6 15,-6 5,0 10,3 15,7 5,5 7,10 7,16 0,4 -2,8 -7,14l-129 129 133 236 4 12c0,5 -3,10 -8,14 -4,5 -9,7 -15,7 -7,0 -14,-4 -19,-12l-127 -226 -52 51 0 165c0,7 -2,12 -6,17 -4,3 -9,5 -16,5 -5,0 -10,-2 -15,-6 -4,-3 -6,-9 -6,-16l0 -391c0,-6 2,-11 6,-15 5,-4 10,-7 15,-7 6,0 11,2 16,5 4,4 6,10 6,17l0 166zm-3874 942l-65 0c-23,0 -43,-9 -61,-26 -17,-16 -26,-37 -26,-61l0 -131c0,-24 9,-44 26,-61 17,-17 37,-26 61,-26l65 0c6,0 12,3 16,7 4,4 6,10 6,15 0,5 -2,10 -5,15 -4,4 -9,7 -17,7l-65 0c-12,0 -23,4 -31,12 -4,4 -7,9 -9,14 -2,5 -3,11 -3,17l0 131c0,12 4,22 12,31 4,4 9,7 14,9 6,2 12,3 17,3l65 0c6,0 12,3 16,7 4,4 6,10 6,15 0,5 -2,10 -5,15 -4,4 -9,7 -17,7zm326 -22c0,7 -2,12 -6,16 -4,4 -9,6 -16,6 -5,0 -10,-2 -15,-6 -4,-3 -6,-9 -6,-16l0 -196c0,-12 -4,-22 -13,-31 -8,-8 -18,-12 -31,-12l-87 0 0 239c0,7 -2,12 -6,16 -4,4 -9,6 -16,6 -5,0 -10,-2 -15,-6 -4,-3 -6,-9 -6,-16l0 -261c0,-14 7,-22 21,-22l109 0c23,0 44,9 61,25 17,17 26,38 26,62l0 196zm304 0c0,14 -7,22 -22,22l-108 0c-24,0 -44,-9 -61,-26 -18,-16 -26,-37 -26,-61l0 -196c0,-6 2,-11 6,-16 4,-4 10,-6 15,-6 6,0 11,2 15,6 5,4 7,9 7,16l0 196c0,12 4,22 12,31 5,4 9,7 14,9 7,2 12,3 17,3l88 0 0 -239c0,-6 2,-11 6,-16 4,-4 10,-6 15,-6 6,0 11,2 15,6 5,4 7,9 7,16l0 261zm239 22l-66 0c-23,0 -43,-9 -61,-26 -17,-16 -26,-37 -26,-61l0 -131c0,-24 9,-44 26,-61 17,-17 37,-26 61,-26l66 0c6,0 11,3 15,7 4,4 6,10 6,15 0,5 -1,10 -5,15 -4,4 -9,7 -16,7l-66 0c-12,0 -22,4 -31,12 -4,4 -7,9 -9,14 -2,5 -3,11 -3,17l0 131c0,12 4,22 12,31 4,4 9,7 14,9 6,2 12,3 17,3l66 0c6,0 11,3 15,7 4,4 6,10 6,15 0,5 -1,10 -5,15 -4,4 -9,7 -16,7zm196 -142l-49 51 0 69c0,7 -2,12 -6,16 -4,4 -10,6 -16,6 -6,0 -11,-2 -15,-6 -4,-3 -6,-9 -6,-16l0 -261c0,-5 2,-11 6,-16 4,-3 9,-5 15,-5 6,0 11,2 15,5 4,4 7,9 7,16l0 129 137 -145c4,-4 9,-6 14,-6 5,0 10,2 16,6 4,5 6,10 6,17 0,6 -2,11 -7,16l-87 92 89 138c4,6 5,11 5,15 0,6 -2,11 -7,15 -4,4 -9,6 -15,6 -6,0 -11,-2 -16,-8l-86 -134zm368 55l0 -174 -87 0c-13,0 -23,4 -32,12 -4,4 -7,9 -9,14 -2,5 -3,11 -3,17l0 131c0,12 4,22 12,31 5,4 9,7 14,9 7,2 12,3 18,3l43 0c12,0 23,-4 31,-12 9,-8 13,-18 13,-31zm21 58c-7,8 -17,15 -29,20 -12,6 -24,9 -36,9l-43 0c-24,0 -44,-9 -61,-26 -18,-16 -26,-37 -26,-61l0 -131c0,-24 8,-44 25,-61 17,-17 38,-26 62,-26l108 0c15,0 22,8 22,22l0 195c0,9 3,18 8,27 5,8 12,14 22,19 9,4 14,10 14,19 0,7 -3,12 -7,16 -3,4 -8,7 -15,7 -3,0 -6,-1 -9,-2 -14,-6 -26,-15 -35,-27zm543 -232l-87 0c-12,0 -23,4 -31,12 -4,4 -8,9 -10,14 -2,5 -3,11 -3,17l0 131c0,12 4,22 13,31 4,4 9,7 14,9 6,2 12,3 17,3l43 0c13,0 23,-4 31,-12 9,-8 13,-18 13,-31l0 -174zm0 -44l0 -43c0,-12 -4,-23 -12,-31 -8,-8 -19,-13 -31,-13l-87 0c-7,0 -12,-1 -17,-5 -3,-5 -5,-10 -5,-16 0,-5 2,-10 5,-15 4,-4 9,-7 16,-7l87 0c25,0 45,9 62,26 17,17 25,37 25,61l0 261c0,24 -8,44 -25,61 -17,17 -38,26 -62,26l-43 0c-23,0 -44,-9 -61,-26 -17,-16 -26,-37 -26,-61l0 -131c0,-24 9,-44 26,-61 17,-17 37,-26 61,-26l87 0zm347 209c0,26 -9,48 -28,67 -18,19 -41,29 -67,29l-26 0c-26,0 -49,-10 -68,-28 -19,-18 -28,-41 -28,-68l0 -113c0,-25 9,-48 28,-67 19,-19 41,-29 68,-29l26 0c25,0 48,10 67,28 19,19 28,41 28,68l0 113zm-43 0l0 -113c0,-14 -5,-27 -15,-37 -10,-10 -23,-15 -37,-15l-27 0c-14,0 -26,5 -36,15 -11,10 -16,22 -16,37l0 113c0,14 5,27 15,37 11,10 23,15 37,15l27 0c14,0 26,-5 36,-14 11,-10 16,-23 16,-38zm282 96l-65 0c-24,0 -44,-9 -61,-26 -18,-16 -26,-37 -26,-61l0 -131c0,-24 8,-44 25,-61 17,-17 38,-26 62,-26l65 0c6,0 11,3 15,7 5,4 7,10 7,15 0,5 -2,10 -6,15 -3,4 -9,7 -16,7l-65 0c-13,0 -23,4 -32,12 -4,4 -7,9 -9,14 -2,5 -3,11 -3,17l0 131c0,12 4,22 12,31 5,4 9,7 14,9 7,2 12,3 18,3l65 0c6,0 11,3 15,7 5,4 7,10 7,15 0,5 -2,10 -6,15 -3,4 -9,7 -16,7zm151 -44l88 0c12,0 22,-4 30,-12 9,-8 13,-18 13,-31l0 -131c0,-12 -4,-22 -12,-31 -8,-8 -19,-12 -31,-12l-88 0 0 217zm0 44l0 108c0,6 -2,11 -6,15 -5,5 -10,7 -15,7 -5,0 -10,-2 -15,-6 -4,-3 -7,-9 -7,-16l0 -391c0,-14 7,-22 22,-22l109 0c23,0 43,9 61,26 17,17 25,37 25,61l0 131c0,24 -8,44 -25,61 -17,17 -38,26 -62,26l-87 0zm478 -96c0,26 -9,48 -27,67 -19,19 -42,29 -68,29l-26 0c-26,0 -49,-10 -68,-28 -18,-18 -28,-41 -28,-68l0 -113c0,-25 9,-48 28,-67 19,-19 41,-29 68,-29l26 0c26,0 48,10 67,28 19,19 28,41 28,68l0 113zm-43 0l0 -113c0,-14 -5,-27 -15,-37 -10,-10 -22,-15 -37,-15l-26 0c-15,0 -27,5 -37,15 -11,10 -16,22 -16,37l0 113c0,14 5,27 16,37 10,10 22,15 37,15l26 0c14,0 26,-5 37,-14 10,-10 15,-23 15,-38zm304 -78l0 -109c0,-6 2,-11 6,-16 5,-4 10,-6 16,-6 5,0 10,2 14,6 5,4 7,9 7,16l0 261c0,7 -2,12 -6,16 -4,4 -9,6 -15,6 -6,0 -11,-2 -16,-6 -4,-3 -6,-9 -6,-16l0 -109 -87 0c-23,0 -44,-9 -61,-25 -17,-17 -26,-38 -26,-62l0 -65c0,-6 2,-11 6,-16 5,-4 10,-6 16,-6 5,0 10,2 14,6 5,3 7,9 7,16l0 65c0,12 4,23 13,31 4,4 9,7 14,10 6,2 12,3 17,3l87 0zm304 0l0 -109c0,-6 2,-11 6,-16 5,-4 10,-6 15,-6 6,0 11,2 15,6 5,4 7,9 7,16l0 261c0,7 -2,12 -6,16 -4,4 -9,6 -16,6 -5,0 -10,-2 -15,-6 -4,-3 -6,-9 -6,-16l0 -109 -131 0 0 109c0,7 -2,12 -6,16 -4,4 -9,6 -16,6 -5,0 -10,-2 -15,-6 -4,-3 -6,-9 -6,-16l0 -261c0,-6 2,-11 6,-16 5,-4 10,-6 15,-6 6,0 11,2 15,6 5,3 7,9 7,16l0 109 131 0zm347 78c0,26 -9,48 -28,67 -18,19 -41,29 -68,29l-26 0c-26,0 -48,-10 -67,-28 -19,-18 -28,-41 -28,-68l0 -113c0,-25 9,-48 28,-67 18,-19 41,-29 67,-29l26 0c26,0 49,10 67,28 19,19 29,41 29,68l0 113zm-43 0l0 -113c0,-14 -5,-27 -15,-37 -11,-10 -23,-15 -38,-15l-26 0c-14,0 -26,5 -37,15 -10,10 -15,22 -15,37l0 113c0,14 5,27 15,37 10,10 23,15 37,15l26 0c14,0 27,-5 37,-14 10,-10 16,-23 16,-38z"/>
   <path class="fil14 str3" d="M2151 6898c0,7 -2,12 -6,16 -4,4 -9,5 -16,5 -5,0 -10,-1 -15,-5 -4,-4 -6,-9 -6,-16l0 -196c0,-12 -4,-23 -12,-31 -9,-8 -19,-13 -32,-13l-87 0 0 240c0,7 -2,12 -6,16 -4,4 -9,5 -16,5 -5,0 -10,-1 -15,-5 -4,-4 -6,-9 -6,-16l0 -261c0,-15 7,-22 22,-22l108 0c23,0 44,9 61,25 17,17 26,37 26,62l0 196zm130 -22l87 0c12,0 22,-4 31,-12 8,-8 13,-18 13,-31l0 -131c0,-12 -4,-23 -13,-31 -8,-8 -18,-13 -31,-13l-87 0 0 218zm0 43l0 109c0,6 -2,11 -7,15 -4,4 -9,7 -15,7 -5,0 -9,-2 -14,-6 -5,-3 -7,-9 -7,-16l0 -391c0,-15 7,-22 21,-22l109 0c24,0 44,9 61,26 17,16 26,37 26,61l0 131c0,23 -9,44 -26,61 -17,17 -37,25 -61,25l-87 0zm478 -95c0,26 -9,48 -28,67 -19,19 -41,28 -68,28l-26 0c-26,0 -48,-9 -67,-27 -19,-19 -28,-41 -28,-68l0 -113c0,-26 9,-48 27,-67 19,-19 42,-29 68,-29l26 0c26,0 48,9 67,28 19,19 29,41 29,68l0 113zm-43 0l0 -113c0,-15 -6,-27 -16,-37 -10,-10 -22,-16 -37,-16l-26 0c-14,0 -27,6 -37,16 -10,10 -15,22 -15,37l0 113c0,14 5,27 15,37 10,10 23,15 37,15l26 0c14,0 27,-5 37,-15 10,-10 16,-22 16,-37zm335 76c-11,6 -25,11 -43,15l-24 4 -25 0 -30 0 -26 -4c-17,-2 -30,-10 -40,-22 -11,-13 -16,-27 -16,-43 0,-9 2,-18 6,-27 4,-10 10,-18 18,-25l139 -95c5,-4 7,-8 7,-13 0,-10 -8,-17 -23,-22 -15,-5 -31,-8 -49,-8 -14,0 -27,2 -38,4 -11,2 -20,6 -27,12 -4,3 -8,4 -13,5 -5,0 -10,-2 -15,-6 -5,-5 -7,-10 -7,-16 0,-7 3,-13 9,-17 9,-7 23,-13 41,-17 8,-2 17,-4 27,-5 9,-2 19,-2 28,-2 5,0 11,0 16,0 5,0 11,1 18,1 7,1 15,3 24,6 15,4 28,12 38,24 10,12 15,25 15,39 0,18 -8,35 -25,49l-138 96c-6,5 -8,10 -8,16 0,6 2,11 5,16 4,4 9,7 15,8l23 3 26 1c17,0 30,-1 40,-3 4,-1 9,-3 15,-5 6,-2 11,-5 16,-8l5 -2c1,0 4,-1 7,-1 5,0 10,3 15,7 4,5 6,10 6,16 0,8 -4,14 -12,19zm315 -76c0,26 -9,48 -27,67 -19,19 -41,28 -68,28l-26 0c-26,0 -48,-9 -67,-27 -19,-19 -29,-41 -29,-68l0 -113c0,-26 10,-48 28,-67 19,-19 41,-29 68,-29l26 0c26,0 48,9 67,28 19,19 28,41 28,68l0 113zm-43 0l0 -113c0,-15 -5,-27 -15,-37 -10,-10 -22,-16 -37,-16l-26 0c-15,0 -27,6 -37,16 -10,10 -16,22 -16,37l0 113c0,14 6,27 16,37 10,10 22,15 37,15l26 0c14,0 26,-5 37,-15 10,-10 15,-22 15,-37zm347 74c0,7 -2,12 -6,16 -4,4 -9,5 -15,5 -6,0 -11,-1 -15,-5 -5,-4 -7,-9 -7,-16l0 -240 -50 0 -81 247c-2,4 -4,8 -8,11 -1,1 -5,2 -12,3 -6,0 -11,-2 -15,-6 -5,-4 -7,-8 -7,-14l1 -8 86 -261c3,-10 10,-15 20,-15l88 0c14,0 21,7 21,22l0 261zm304 -74c0,26 -9,48 -28,67 -18,19 -41,28 -67,28l-26 0c-26,0 -49,-9 -68,-27 -19,-19 -28,-41 -28,-68l0 -113c0,-26 9,-48 28,-67 19,-19 41,-29 68,-29l26 0c25,0 48,9 67,28 19,19 28,41 28,68l0 113zm-43 0l0 -113c0,-15 -5,-27 -15,-37 -10,-10 -23,-16 -37,-16l-27 0c-14,0 -26,6 -36,16 -11,10 -16,22 -16,37l0 113c0,14 5,27 15,37 11,10 23,15 37,15l27 0c14,0 26,-5 36,-15 11,-10 16,-22 16,-37zm282 95l-65 0c-24,0 -44,-8 -61,-25 -18,-16 -26,-37 -26,-61l0 -131c0,-24 8,-44 25,-61 17,-17 38,-26 62,-26l65 0c6,0 11,2 15,7 5,4 7,9 7,15 0,5 -2,10 -6,14 -3,5 -9,7 -16,7l-65 0c-13,0 -23,5 -32,13 -4,4 -7,9 -9,14 -2,5 -3,11 -3,17l0 131c0,12 4,22 12,31 5,4 9,7 14,9 7,2 12,3 18,3l65 0c6,0 11,2 15,7 5,4 7,9 7,15 0,5 -2,10 -6,14 -3,5 -9,7 -16,7zm325 -95c0,26 -9,48 -27,67 -19,19 -41,28 -68,28l-26 0c-26,0 -48,-9 -67,-27 -19,-19 -29,-41 -29,-68l0 -113c0,-26 10,-48 28,-67 19,-19 41,-29 68,-29l26 0c26,0 48,9 67,28 19,19 28,41 28,68l0 113zm-43 0l0 -113c0,-15 -5,-27 -15,-37 -10,-10 -22,-16 -37,-16l-26 0c-15,0 -27,6 -37,16 -10,10 -16,22 -16,37l0 113c0,14 6,27 16,37 10,10 22,15 37,15l26 0c14,0 26,-5 37,-15 10,-10 15,-22 15,-37zm304 9l0 -131c0,-12 -4,-22 -12,-30 -8,-9 -19,-13 -32,-13l-43 0c-12,0 -23,4 -31,12 -4,4 -8,9 -10,15 -2,5 -3,10 -3,16l0 131c0,12 4,22 13,31 4,4 9,7 14,9 6,2 12,3 17,3l43 0c13,0 23,-4 31,-12 9,-8 13,-18 13,-31zm-131 -202l18 -12 26 -18c8,-6 14,-12 18,-16 5,-7 8,-14 8,-21 0,-10 -3,-19 -10,-25 -8,-7 -16,-9 -25,-9 -9,0 -18,2 -24,9 -7,5 -11,14 -11,25l0 67zm87 -14c28,0 50,8 66,25 14,15 21,36 21,60l0 131c0,23 -8,44 -25,61 -17,17 -38,25 -62,25l-43 0c-23,0 -44,-8 -61,-25 -17,-16 -26,-37 -26,-61l0 -269c0,-25 8,-44 24,-59 15,-13 33,-20 55,-20 20,0 38,7 53,21 16,13 24,32 24,57 0,14 -2,25 -6,32 -3,7 -10,14 -20,22zm348 216l0 -175 -87 0c-13,0 -23,5 -31,13 -5,4 -8,9 -10,14 -2,5 -3,11 -3,17l0 131c0,12 4,22 13,31 4,4 9,7 14,9 6,2 12,3 17,3l43 0c12,0 23,-4 31,-12 9,-8 13,-18 13,-31zm21 58c-7,8 -16,15 -28,20 -13,6 -25,8 -37,8l-43 0c-24,0 -44,-8 -61,-25 -17,-16 -26,-37 -26,-61l0 -131c0,-24 8,-44 25,-61 17,-17 38,-26 62,-26l108 0c15,0 22,7 22,22l0 195c0,9 3,18 8,27 5,8 13,14 22,19 9,3 14,10 14,19 0,7 -2,12 -7,16 -3,4 -8,6 -15,6 -3,0 -6,0 -9,-2 -14,-5 -26,-14 -35,-26zm283 -58l0 -131c0,-12 -4,-22 -12,-30 -9,-9 -19,-13 -32,-13l-43 0c-13,0 -23,4 -32,12 -4,4 -7,9 -9,15 -2,5 -3,10 -3,16l0 131c0,12 4,22 12,31 5,4 9,7 14,9 7,2 12,3 18,3l43 0c12,0 23,-4 31,-12 9,-8 13,-18 13,-31zm-131 -202l18 -12 26 -18c8,-6 14,-12 17,-16 6,-7 9,-14 9,-21 0,-10 -4,-19 -11,-25 -7,-7 -15,-9 -24,-9 -10,0 -18,2 -25,9 -7,5 -10,14 -10,25l0 67zm87 -14c28,0 50,8 65,25 15,15 22,36 22,60l0 131c0,23 -8,44 -25,61 -17,17 -38,25 -62,25l-43 0c-24,0 -44,-8 -61,-25 -18,-16 -26,-37 -26,-61l0 -269c0,-25 8,-44 24,-59 15,-13 33,-20 54,-20 20,0 38,7 54,21 16,13 24,32 24,57 0,14 -2,25 -6,32 -4,7 -10,14 -20,22zm347 259l87 0 0 -239c0,-6 2,-11 6,-16 5,-4 10,-6 16,-6 5,0 10,2 15,6 4,3 6,9 6,16l0 261c0,14 -7,21 -22,21l-195 0c-23,0 -43,-8 -61,-25 -17,-16 -25,-37 -25,-61l0 -196c0,-6 2,-11 6,-16 4,-4 10,-6 15,-6 6,0 11,2 15,6 5,3 7,9 7,16l0 196c0,12 4,22 12,31 5,4 9,7 14,9 6,2 12,3 17,3l44 0 0 -239c0,-6 2,-11 6,-16 5,-4 10,-6 15,-6 6,0 11,2 15,6 5,3 7,9 7,16l0 239zm434 22c0,14 -7,21 -21,21l-109 0c-23,0 -44,-8 -61,-25 -17,-16 -26,-37 -26,-61l0 -196c0,-6 2,-11 7,-16 4,-4 9,-6 15,-6 5,0 10,2 15,6 4,3 6,9 6,16l0 196c0,12 5,22 13,31 4,4 9,7 14,9 6,2 12,3 17,3l87 0 0 -239c0,-6 2,-11 7,-16 4,-4 9,-6 15,-6 5,0 10,2 15,6 4,3 6,9 6,16l0 261zm222 -130l80 118 3 6 0 6c0,6 -2,11 -7,15l-3 3 -5 2 -8 1c-6,0 -12,-3 -17,-9l-69 -103 -69 103c-4,6 -10,9 -18,9 -4,0 -9,-2 -15,-6 -5,-4 -7,-10 -7,-16 0,-3 1,-7 4,-12l79 -118 -80 -118 -3 -6 0 -6c0,-6 2,-11 7,-15 4,-5 9,-7 16,-7 6,0 12,3 17,10l69 103 69 -103c4,-6 10,-10 18,-10 4,0 9,2 15,7 5,4 7,9 7,15 0,4 -1,8 -4,12l-79 119z"/>
  </g>
  <g>
   <path class="fil14 str3" d="M15404 4764l-28 83c-1,4 -3,7 -7,10 -2,2 -6,3 -10,3 -5,0 -10,-2 -14,-5 -4,-4 -6,-8 -6,-13l1 -7 116 -348c4,-11 10,-16 19,-16 8,0 14,5 18,16l115 348 2 7c0,5 -3,9 -7,13 -4,3 -8,5 -13,5 -3,0 -6,0 -9,-2 -3,-1 -6,-5 -9,-11l-28 -83 -140 0zm127 -40l-56 -170 -57 170 113 0zm191 -83l163 -162c4,-3 8,-5 13,-5 5,0 9,2 13,6 5,4 7,9 7,14 0,3 -2,8 -6,13l-115 115 118 209 3 11c0,5 -2,9 -6,12 -4,4 -9,6 -14,6 -6,0 -12,-3 -16,-10l-114 -201 -46 45 0 147c0,6 -2,11 -5,15 -4,3 -8,4 -14,4 -5,0 -10,-1 -13,-5 -4,-3 -6,-8 -6,-14l0 -348c0,-5 2,-9 6,-13 4,-4 8,-6 13,-6 5,0 9,2 13,5 4,3 6,8 6,14l0 148zm367 -128l-77 0c-6,0 -11,-2 -15,-6 -3,-4 -5,-9 -5,-14 0,-4 2,-8 5,-12 3,-5 8,-7 15,-7l193 0c5,0 9,2 13,6 4,4 6,8 6,13 0,5 -2,9 -5,13 -3,5 -8,7 -14,7l-78 0 0 328c0,6 -1,11 -5,15 -4,3 -8,4 -14,4 -5,0 -9,-1 -13,-5 -4,-3 -6,-8 -6,-14l0 -328zm-2903 880c0,23 -9,43 -25,60 -16,16 -37,25 -60,25l-23 0c-23,0 -43,-8 -60,-25 -17,-16 -25,-36 -25,-60l0 -101c0,-22 8,-42 24,-59 17,-17 37,-26 61,-26l23 0c23,0 43,9 59,25 17,17 26,37 26,60l0 101zm-39 0l0 -101c0,-12 -4,-23 -13,-32 -9,-10 -20,-14 -33,-14l-24 0c-12,0 -23,4 -32,13 -9,9 -14,20 -14,33l0 101c0,13 5,24 14,33 9,9 20,13 32,13l24 0c12,0 23,-4 32,-13 10,-9 14,-20 14,-33zm502 -70l0 -96c0,-5 2,-10 6,-15 3,-3 8,-5 13,-5 5,0 9,2 13,5 4,4 6,8 6,15l0 232c0,6 -2,10 -5,14 -4,3 -8,5 -14,5 -5,0 -10,-2 -13,-5 -4,-3 -6,-8 -6,-15l0 -96 -77 0c-21,0 -39,-8 -55,-23 -15,-15 -23,-33 -23,-54l0 -58c0,-5 2,-10 6,-15 4,-3 8,-5 13,-5 5,0 10,2 14,5 4,3 6,8 6,15l0 58c0,10 3,20 11,27 4,3 8,6 12,8 6,2 11,3 15,3l78 0zm308 136c0,12 -6,19 -19,19l-96 0c-21,0 -39,-8 -55,-23 -15,-14 -23,-33 -23,-54l0 -174c0,-5 2,-10 6,-15 4,-3 8,-5 13,-5 5,0 10,2 14,5 4,4 6,8 6,15l0 174c0,11 3,20 11,27 4,4 8,6 12,9 6,2 11,2 15,2l78 0 0 -212c0,-5 2,-10 6,-15 4,-3 8,-5 13,-5 5,0 10,2 13,5 4,4 6,8 6,15l0 232zm213 19l-58 0c-21,0 -39,-8 -55,-23 -15,-14 -23,-33 -23,-54l0 -116c0,-22 8,-40 23,-55 15,-15 33,-23 55,-23l58 0c5,0 10,2 13,6 4,4 6,9 6,14 0,4 -2,8 -5,13 -3,4 -8,6 -14,6l-58 0c-11,0 -21,4 -28,11 -4,4 -7,8 -9,12 -1,5 -2,10 -2,16l0 116c0,11 3,20 11,27 4,4 8,6 12,9 6,2 11,2 16,2l58 0c5,0 9,2 13,6 4,4 6,9 6,14 0,4 -2,8 -5,13 -3,4 -8,6 -14,6zm289 -19c0,6 -2,10 -6,14 -3,3 -8,5 -13,5 -5,0 -10,-2 -14,-5 -4,-3 -5,-8 -5,-15l0 -212 -45 0 -72 219c-2,4 -4,7 -7,10 -1,0 -5,1 -11,3 -5,0 -9,-2 -13,-6 -4,-3 -7,-7 -7,-13l2 -7 76 -231c3,-9 9,-14 18,-14l78 0c13,0 19,7 19,20l0 232zm115 -135l117 0 0 -39c0,-11 -4,-20 -11,-28 -8,-7 -17,-11 -28,-11l-39 0c-11,0 -20,4 -28,11 -3,4 -6,8 -8,13 -2,4 -3,9 -3,15l0 39zm0 38l0 39c0,11 4,20 11,27 4,4 8,6 13,9 5,2 10,2 15,2l97 0c5,0 10,2 13,6 4,4 6,9 6,14 0,4 -2,8 -5,13 -3,4 -8,6 -14,6l-97 0c-21,0 -39,-8 -54,-23 -15,-15 -23,-33 -23,-54l0 -116c0,-21 7,-39 22,-54 15,-16 33,-24 55,-24l39 0c21,0 39,8 54,23 15,15 23,33 23,55l0 58c0,13 -6,19 -19,19l-136 0zm657 97c0,12 -7,19 -20,19l-96 0c-21,0 -39,-8 -54,-23 -16,-14 -23,-33 -23,-54l0 -174c0,-5 1,-10 5,-15 4,-3 9,-5 14,-5 5,0 9,2 13,5 4,4 6,8 6,15l0 174c0,11 4,20 11,27 4,4 8,6 12,9 6,2 11,2 16,2l77 0 0 -212c0,-5 2,-10 6,-15 4,-3 8,-5 13,-5 5,0 10,2 14,5 4,4 6,8 6,15l0 232zm178 -97l-24 0c-6,0 -11,-2 -14,-6 -4,-4 -5,-8 -5,-14 0,-4 1,-9 5,-13 3,-4 8,-6 14,-6l19 0c12,0 22,-4 29,-12 7,-7 10,-16 10,-26 0,-11 -3,-20 -9,-27 -3,-4 -7,-7 -12,-9 -5,-2 -11,-3 -18,-3l-19 0c-18,0 -33,5 -46,16 -4,2 -7,3 -12,4 -4,0 -9,-2 -14,-6 -3,-4 -5,-9 -5,-14 0,-6 2,-11 8,-15 19,-16 43,-24 69,-24l19 0c25,0 44,8 58,24 13,15 19,33 19,54 0,6 0,11 -1,16 -1,5 -2,10 -5,15 -3,9 -9,18 -18,27 8,6 14,15 18,26l5 15c1,5 1,11 1,17 0,21 -6,39 -19,53 -14,16 -33,24 -58,24l-19 0c-26,0 -49,-8 -69,-23 -6,-4 -8,-9 -8,-16 0,-4 2,-8 5,-13 4,-5 9,-7 14,-7 3,0 7,2 12,5 13,10 29,15 46,15l19 0c12,0 21,-3 28,-11 8,-8 11,-17 11,-28 0,-10 -3,-18 -8,-25 -6,-7 -14,-11 -26,-13zm304 39l0 -116c0,-11 -4,-20 -11,-28 -7,-7 -16,-11 -28,-11l-38 0c-11,0 -21,4 -28,11 -4,4 -7,8 -8,12 -2,5 -3,10 -3,16l0 116c0,11 3,20 11,27 4,4 8,6 12,9 6,2 11,2 16,2l38 0c11,0 20,-3 28,-10 7,-7 11,-17 11,-28zm-62 -194l-87 -82c-4,-5 -7,-10 -7,-16 0,-4 2,-8 5,-12 4,-3 9,-5 16,-5l154 0c5,0 10,2 14,6 4,4 5,8 5,13 0,4 -1,9 -4,13 -4,4 -8,6 -15,6l-106 0 102 98 5 6c12,15 18,32 18,51l0 116c0,21 -7,39 -22,54 -15,15 -33,23 -55,23l-38 0c-21,0 -39,-8 -55,-23 -15,-14 -23,-33 -23,-54l0 -116c0,-22 8,-40 23,-55 15,-15 33,-23 55,-23l15 0zm371 252c0,12 -7,19 -20,19l-96 0c-21,0 -39,-8 -54,-23 -16,-14 -23,-33 -23,-54l0 -174c0,-5 1,-10 5,-15 4,-3 9,-5 14,-5 5,0 9,2 13,5 4,4 6,8 6,15l0 174c0,11 4,20 11,27 4,4 8,6 12,9 6,2 11,2 16,2l77 0 0 -212c0,-5 2,-10 6,-15 4,-3 8,-5 13,-5 5,0 10,2 14,5 4,4 6,8 6,15l0 232zm115 -20l77 0c11,0 20,-3 28,-10 7,-7 11,-17 11,-28l0 -116c0,-11 -3,-20 -11,-28 -7,-7 -16,-11 -28,-11l-77 0 0 193zm0 39l0 96c0,6 -2,10 -6,14 -4,4 -8,6 -13,6 -5,0 -9,-2 -13,-5 -4,-3 -6,-8 -6,-15l0 -347c0,-13 6,-20 19,-20l96 0c21,0 39,8 55,23 15,15 23,33 23,55l0 116c0,21 -8,39 -23,54 -15,15 -33,23 -55,23l-77 0zm386 -77l0 -155 -77 0c-11,0 -20,4 -28,11 -4,4 -6,8 -8,12 -2,5 -3,10 -3,16l0 116c0,11 4,20 11,27 4,4 8,6 13,9 5,2 10,2 15,2l39 0c10,0 19,-3 27,-10 8,-7 11,-17 11,-28zm19 51c-6,8 -15,14 -25,19 -11,4 -22,7 -32,7l-39 0c-21,0 -39,-8 -54,-23 -16,-14 -23,-33 -23,-54l0 -116c0,-22 7,-40 22,-55 15,-15 34,-23 55,-23l96 0c13,0 20,7 20,20l0 173c0,8 2,16 7,24 5,7 11,13 19,17 8,3 12,9 12,17 0,6 -1,10 -5,14 -3,4 -8,6 -14,6 -3,0 -5,-1 -8,-2 -12,-5 -23,-13 -31,-24zm212 -206l-77 0 0 212c0,7 -2,11 -5,15 -4,3 -8,5 -14,5 -5,0 -10,-2 -14,-5 -3,-3 -5,-8 -5,-14l0 -232c0,-13 6,-20 19,-20l174 0c20,0 38,8 54,23 15,15 23,33 23,55l0 174c0,6 -2,10 -6,14 -3,3 -8,5 -14,5 -5,0 -9,-2 -13,-5 -4,-3 -6,-8 -6,-15l0 -173c0,-11 -3,-20 -11,-28 -7,-7 -16,-11 -27,-11l-39 0 0 212c0,7 -2,11 -6,15 -3,3 -8,5 -13,5 -5,0 -10,-2 -14,-5 -4,-3 -6,-8 -6,-15l0 -212zm270 78l117 0 0 -39c0,-11 -4,-20 -11,-28 -8,-7 -17,-11 -28,-11l-39 0c-11,0 -20,4 -28,11 -3,4 -6,8 -8,13 -2,4 -3,9 -3,15l0 39zm0 38l0 39c0,11 4,20 11,27 4,4 8,6 13,9 5,2 10,2 15,2l97 0c5,0 10,2 13,6 4,4 6,9 6,14 0,4 -2,8 -5,13 -3,4 -8,6 -14,6l-97 0c-21,0 -39,-8 -54,-23 -15,-15 -23,-33 -23,-54l0 -116c0,-21 7,-39 22,-54 15,-16 33,-24 55,-24l39 0c21,0 39,8 54,23 15,15 23,33 23,55l0 58c0,13 -6,19 -19,19l-136 0zm425 97c0,6 -2,10 -5,14 -4,3 -8,5 -14,5 -5,0 -10,-2 -14,-5 -3,-3 -5,-8 -5,-15l0 -212 -45 0 -72 219c-1,4 -4,7 -7,10 -1,0 -5,1 -11,3 -5,0 -9,-2 -13,-6 -4,-3 -6,-7 -6,-13l1 -7 76 -231c3,-9 9,-14 18,-14l78 0c13,0 19,7 19,20l0 232zm116 -97l0 77 77 0c12,0 21,-3 28,-11 7,-8 11,-17 11,-27 0,-11 -3,-20 -10,-27 -3,-4 -7,-7 -12,-9 -5,-2 -10,-3 -17,-3l-77 0zm0 -39l77 0c24,0 43,8 58,24 13,15 19,33 19,54 0,20 -6,38 -19,53 -14,16 -34,24 -58,24l-97 0c-12,0 -19,-7 -19,-19l0 -232c0,-5 2,-10 6,-15 4,-3 8,-5 13,-5 5,0 10,2 14,5 4,3 6,8 6,15l0 96zm386 0l0 -96c0,-5 2,-10 6,-15 3,-3 8,-5 13,-5 5,0 9,2 13,5 4,4 6,8 6,15l0 232c0,6 -2,10 -5,14 -4,3 -8,5 -14,5 -5,0 -10,-2 -13,-5 -4,-3 -6,-8 -6,-15l0 -96 -116 0 0 96c0,7 -2,11 -6,15 -3,3 -8,5 -14,5 -5,0 -9,-2 -13,-5 -4,-3 -6,-8 -6,-14l0 -232c0,-5 2,-10 6,-15 4,-3 8,-5 13,-5 5,0 10,2 14,5 4,3 6,8 6,15l0 96 116 0zm347 136c0,6 -2,10 -6,14 -3,3 -8,5 -13,5 -6,0 -10,-2 -14,-5 -4,-3 -6,-8 -6,-14l0 -232c0,-5 2,-10 6,-15 4,-3 8,-5 14,-5 4,0 9,2 13,5 4,4 6,8 6,15l0 232zm-193 -97l0 77 38 0c12,0 22,-3 28,-11 8,-8 11,-17 11,-27 0,-11 -3,-20 -9,-27 -4,-4 -8,-7 -13,-9 -5,-2 -10,-3 -17,-3l-38 0zm0 -39l38 0c25,0 44,8 58,24 13,15 19,33 19,54 0,20 -6,38 -19,53 -14,16 -33,24 -58,24l-57 0c-13,0 -20,-7 -20,-19l0 -232c0,-5 2,-10 6,-15 4,-3 8,-5 13,-5 5,0 10,2 14,5 4,3 6,8 6,15l0 96zm390 20l71 105 3 6 0 5c0,5 -2,9 -6,13l-4 3 -4 2 -7 1c-5,0 -10,-3 -15,-9l-61 -91 -61 91c-4,6 -9,9 -16,9 -4,0 -9,-2 -14,-6 -4,-4 -6,-8 -6,-14 0,-3 1,-7 3,-10l70 -106 -70 -104 -3 -6 0 -5c0,-5 2,-10 6,-14 4,-4 8,-6 14,-6 6,0 11,3 16,9l61 92 61 -92c4,-6 9,-9 16,-9 4,0 8,2 14,6 4,4 6,9 6,14 0,3 -2,7 -4,11l-70 105zm-5203 675l0 -116c0,-11 -4,-20 -11,-27 -7,-8 -16,-12 -28,-12l-39 0c-10,0 -20,4 -27,12 -4,3 -7,7 -9,12 -1,5 -2,10 -2,15l0 116c0,11 3,20 11,28 4,3 8,6 12,8 6,2 11,3 15,3l39 0c11,0 20,-4 28,-11 7,-7 11,-16 11,-28zm-62 -193l-87 -82c-5,-5 -7,-11 -7,-17 0,-3 2,-7 5,-11 4,-4 9,-6 16,-6l154 0c5,0 10,2 14,6 4,4 5,9 5,14 0,4 -1,8 -4,12 -4,5 -8,7 -15,7l-106 0 102 97 5 7c12,14 18,31 18,50l0 116c0,21 -7,40 -22,55 -15,15 -33,22 -55,22l-38 0c-21,0 -39,-7 -55,-22 -15,-15 -23,-33 -23,-55l0 -116c0,-21 8,-39 23,-54 15,-15 33,-23 54,-23l16 0zm370 205l0 -139c0,-8 -2,-14 -8,-19 -5,-6 -11,-9 -19,-9l-23 0c-7,0 -13,3 -19,8 -5,5 -8,12 -8,20l0 139c0,8 3,14 8,19 3,3 6,5 9,6 4,1 7,2 10,2l23 0c8,0 15,-2 20,-8 5,-5 7,-11 7,-19zm-154 -89l39 0 0 -50c0,-18 6,-34 19,-47 13,-13 28,-19 46,-19l23 0c18,0 33,6 46,19 13,13 20,28 20,47l0 139c0,18 -7,33 -19,46 -13,13 -28,19 -47,19l-23 0c-18,0 -33,-6 -46,-19 -13,-12 -19,-28 -19,-46l0 -50 -39 0 0 96c0,6 -2,11 -6,15 -3,3 -8,4 -13,4 -5,0 -10,-1 -14,-4 -4,-4 -6,-8 -6,-15l0 -232c0,-5 2,-10 6,-14 4,-3 9,-5 14,-5 5,0 9,2 13,5 4,3 6,8 6,14l0 97zm425 135c0,6 -2,11 -6,15 -3,3 -8,4 -14,4 -5,0 -9,-1 -13,-4 -4,-4 -6,-8 -6,-15l0 -213 -44 0 -72 219c-2,4 -4,8 -8,10 -1,1 -4,2 -10,3 -5,0 -10,-1 -14,-5 -4,-3 -6,-8 -6,-13l1 -7 77 -232c2,-8 9,-13 18,-13l77 0c13,0 20,6 20,19l0 232zm270 0c0,6 -2,11 -6,15 -3,3 -8,4 -14,4 -5,0 -9,-1 -13,-4 -4,-4 -6,-8 -6,-15l0 -213 -44 0 -72 219c-2,4 -4,8 -8,10 0,1 -4,2 -10,3 -5,0 -10,-1 -14,-5 -4,-3 -6,-8 -6,-13l1 -7 77 -232c2,-8 9,-13 18,-13l77 0c13,0 20,6 20,19l0 232zm115 -135l116 0 0 -39c0,-10 -3,-20 -11,-27 -7,-8 -16,-12 -27,-12l-39 0c-11,0 -20,4 -28,12 -4,3 -6,8 -8,12 -2,5 -3,10 -3,15l0 39zm0 39l0 38c0,11 4,20 11,28 4,3 8,6 13,8 5,2 10,3 15,3l96 0c6,0 10,2 14,6 4,4 6,8 6,13 0,5 -2,9 -5,13 -3,4 -8,6 -15,6l-96 0c-21,0 -39,-7 -54,-22 -16,-15 -23,-33 -23,-55l0 -116c0,-20 7,-39 22,-54 15,-15 33,-23 55,-23l38 0c21,0 40,8 55,23 15,15 23,33 23,54l0 58c0,13 -7,20 -20,20l-135 0zm347 -117l-77 0 0 213c0,6 -2,11 -5,15 -4,3 -8,4 -14,4 -5,0 -10,-1 -14,-4 -3,-4 -5,-8 -5,-15l0 -232c0,-13 6,-19 19,-19l174 0c20,0 38,8 54,23 15,15 23,33 23,54l0 174c0,6 -2,11 -6,15 -3,3 -8,4 -14,4 -5,0 -9,-1 -13,-4 -4,-4 -6,-8 -6,-15l0 -174c0,-11 -3,-20 -11,-27 -7,-8 -16,-12 -27,-12l-39 0 0 213c0,6 -2,11 -6,15 -3,3 -8,4 -13,4 -5,0 -10,-1 -14,-4 -4,-4 -6,-8 -6,-15l0 -213zm270 78l117 0 0 -39c0,-10 -4,-20 -11,-27 -8,-8 -17,-12 -28,-12l-39 0c-11,0 -20,4 -28,12 -3,3 -6,8 -8,12 -2,5 -3,10 -3,15l0 39zm0 39l0 38c0,11 4,20 11,28 4,3 8,6 13,8 5,2 10,3 15,3l97 0c5,0 10,2 13,6 4,4 6,8 6,13 0,5 -2,9 -5,13 -3,4 -8,6 -14,6l-97 0c-21,0 -39,-7 -54,-22 -15,-15 -23,-33 -23,-55l0 -116c0,-20 7,-39 22,-54 15,-15 33,-23 55,-23l39 0c21,0 39,8 54,23 15,15 23,33 23,54l0 58c0,13 -6,20 -19,20l-136 0z"/>
   <path class="fil14 str3" d="M15260 5941l0 -97c0,-5 2,-10 5,-14 4,-3 9,-5 14,-5 5,0 9,2 13,5 4,3 6,8 6,14l0 232c0,6 -2,11 -5,15 -4,3 -8,4 -14,4 -5,0 -10,-1 -14,-4 -3,-4 -5,-8 -5,-15l0 -97 -117 0 0 97c0,6 -1,11 -5,15 -3,3 -8,4 -14,4 -5,0 -9,-1 -13,-4 -4,-4 -6,-8 -6,-15l0 -232c0,-5 2,-10 6,-14 4,-3 8,-5 13,-5 5,0 10,2 14,5 3,3 5,8 5,14l0 97 117 0zm154 0l116 0 0 -39c0,-10 -4,-20 -11,-27 -7,-8 -17,-12 -28,-12l-39 0c-11,0 -20,4 -27,12 -4,3 -7,8 -9,12 -2,5 -2,10 -2,15l0 39zm0 39l0 38c0,11 3,20 11,28 3,3 8,6 12,8 5,2 11,3 15,3l97 0c5,0 10,2 14,6 3,4 5,8 5,13 0,5 -1,9 -5,13 -3,4 -8,6 -14,6l-97 0c-21,0 -39,-7 -54,-22 -15,-15 -23,-33 -23,-55l0 -116c0,-20 8,-39 22,-54 15,-15 34,-23 55,-23l39 0c21,0 39,8 54,23 16,15 23,33 23,54l0 58c0,13 -6,20 -19,20l-135 0zm366 -232l-77 0c-6,0 -11,-2 -14,-5 -4,-5 -5,-9 -5,-14 0,-5 1,-9 5,-13 3,-5 8,-7 14,-7l77 0c6,0 10,2 14,6 4,4 6,9 6,14 0,4 -2,8 -5,12 -3,5 -8,7 -15,7zm58 328c0,13 -6,19 -19,19l-97 0c-20,0 -38,-7 -54,-22 -15,-15 -23,-33 -23,-55l0 -173c0,-6 2,-10 6,-15 4,-3 8,-5 13,-5 5,0 10,2 14,5 4,3 6,8 6,15l0 173c0,11 3,21 11,28 4,3 8,6 12,8 6,2 11,3 15,3l78 0 0 -212c0,-6 2,-10 6,-15 3,-3 8,-5 13,-5 5,0 9,2 13,5 4,3 6,8 6,15l0 231zm118 0l0 5 -19 77c-3,10 -9,15 -19,15 -6,0 -11,-2 -14,-6 -4,-2 -6,-7 -6,-13l0 -5 20 -76 0 -16c0,-5 1,-10 5,-15 4,-3 9,-5 14,-5 5,0 9,2 13,5 4,3 6,8 6,15l0 19zm461 -58l0 -115c0,-11 -3,-20 -11,-28 -7,-7 -16,-11 -28,-11l-38 0c-11,0 -20,4 -28,11 -4,4 -6,8 -8,13 -2,4 -3,9 -3,15l0 115c0,11 4,21 11,28 4,3 8,6 12,8 6,2 11,3 16,3l38 0c11,0 20,-4 28,-11 7,-7 11,-16 11,-28zm-116 -179l16 -10 23 -16c7,-6 12,-11 15,-15 5,-6 8,-12 8,-19 0,-9 -3,-16 -9,-22 -7,-5 -14,-8 -22,-8 -9,0 -16,3 -22,8 -6,5 -9,12 -9,22l0 60zm77 -13c25,0 44,8 58,23 13,13 20,31 20,54l0 115c0,21 -8,40 -23,55 -15,15 -33,22 -55,22l-38 0c-21,0 -39,-7 -54,-22 -16,-15 -23,-33 -23,-55l0 -239c0,-21 7,-39 21,-52 13,-12 30,-18 48,-18 18,0 34,6 48,19 14,12 21,29 21,51 0,12 -1,22 -5,28 -3,6 -9,13 -18,19zm386 250c0,6 -2,11 -5,15 -4,3 -9,4 -14,4 -5,0 -10,-1 -14,-4 -3,-4 -5,-8 -5,-15l0 -232c0,-5 2,-10 5,-14 4,-3 9,-5 14,-5 5,0 9,2 13,5 4,3 6,8 6,14l0 232zm-193 -97l0 78 39 0c11,0 21,-4 28,-12 7,-8 10,-17 10,-27 0,-11 -3,-20 -9,-27 -3,-3 -7,-6 -12,-9 -5,-2 -11,-3 -17,-3l-39 0zm0 -38l39 0c24,0 43,8 57,24 13,14 20,32 20,53 0,21 -7,38 -19,53 -15,16 -34,24 -58,24l-58 0c-13,0 -19,-6 -19,-19l0 -232c0,-5 1,-10 5,-14 4,-3 9,-5 14,-5 5,0 9,2 13,5 4,3 6,8 6,14l0 97zm425 -78l-78 0c-11,0 -20,4 -27,12 -4,3 -7,7 -9,12 -1,5 -2,10 -2,15l0 116c0,11 3,20 11,28 4,3 8,6 12,8 6,2 11,3 15,3l39 0c11,0 20,-4 28,-11 7,-7 11,-16 11,-28l0 -155zm0 -38l0 -39c0,-10 -4,-20 -11,-27 -7,-7 -17,-11 -28,-11l-77 0c-6,0 -11,-2 -14,-5 -4,-5 -5,-9 -5,-14 0,-5 1,-9 4,-13 4,-5 8,-7 15,-7l77 0c22,0 40,8 55,23 15,15 22,33 22,55l0 231c0,21 -7,40 -22,55 -15,15 -34,22 -55,22l-39 0c-20,0 -38,-7 -54,-22 -15,-15 -23,-33 -23,-55l0 -116c0,-21 8,-39 23,-54 15,-15 33,-23 55,-23l77 0zm270 193l0 -155 -78 0c-10,0 -20,4 -27,12 -4,3 -7,7 -9,12 -1,5 -2,10 -2,15l0 116c0,11 3,20 11,28 4,3 8,6 12,8 6,2 11,3 15,3l39 0c11,0 20,-4 28,-11 7,-7 11,-16 11,-28zm19 52c-6,7 -15,13 -26,18 -10,5 -21,7 -32,7l-38 0c-21,0 -39,-7 -55,-22 -15,-15 -23,-33 -23,-55l0 -116c0,-21 8,-39 23,-54 15,-15 33,-23 55,-23l96 0c13,0 19,6 19,19l0 174c0,7 3,15 8,23 4,8 11,13 19,17 8,4 12,9 12,18 0,5 -2,10 -5,14 -4,3 -8,5 -14,5 -3,0 -6,0 -8,-1 -13,-5 -23,-13 -31,-24zm251 -129l0 -97c0,-5 2,-10 6,-14 4,-3 8,-5 13,-5 5,0 10,2 14,5 3,3 5,8 5,14l0 232c0,6 -1,11 -5,15 -3,3 -8,4 -14,4 -5,0 -9,-1 -13,-4 -4,-4 -6,-8 -6,-15l0 -97 -116 0 0 97c0,6 -2,11 -6,15 -3,3 -8,4 -13,4 -5,0 -10,-1 -14,-4 -4,-4 -6,-8 -6,-15l0 -232c0,-5 2,-10 6,-14 4,-3 9,-5 14,-5 4,0 9,2 13,5 4,3 6,8 6,14l0 97 116 0zm270 0l0 -97c0,-5 2,-10 6,-14 4,-3 8,-5 13,-5 5,0 10,2 14,5 4,3 6,8 6,14l0 232c0,6 -2,11 -6,15 -3,3 -8,4 -14,4 -5,0 -9,-1 -13,-4 -4,-4 -6,-8 -6,-15l0 -97 -116 0 0 97c0,6 -2,11 -6,15 -3,3 -8,4 -13,4 -5,0 -10,-1 -14,-4 -4,-4 -6,-8 -6,-15l0 -232c0,-5 2,-10 6,-14 4,-3 9,-5 14,-5 5,0 9,2 13,5 4,3 6,8 6,14l0 97 116 0zm347 135c0,6 -2,11 -5,15 -4,3 -9,4 -14,4 -5,0 -10,-1 -14,-4 -4,-4 -5,-8 -5,-15l0 -232c0,-5 1,-10 5,-14 4,-3 9,-5 14,-5 5,0 9,2 13,5 4,3 6,8 6,14l0 232zm-193 -97l0 78 39 0c11,0 21,-4 28,-12 7,-8 10,-17 10,-27 0,-11 -3,-20 -9,-27 -3,-3 -7,-6 -12,-9 -5,-2 -11,-3 -17,-3l-39 0zm0 -38l39 0c24,0 43,8 57,24 13,14 20,32 20,53 0,21 -7,38 -19,53 -15,16 -34,24 -58,24l-58 0c-13,0 -19,-6 -19,-19l0 -232c0,-5 1,-10 5,-14 4,-3 9,-5 14,-5 5,0 9,2 13,5 4,3 6,8 6,14l0 97zm390 20l71 104 3 6 0 5c0,5 -2,10 -6,14l-3 2 -4 2 -8 1c-5,0 -10,-2 -15,-8l-61 -91 -61 91c-4,6 -9,8 -16,8 -4,0 -8,-2 -13,-5 -5,-4 -7,-9 -7,-14 0,-3 1,-7 4,-11l70 -105 -71 -105 -3 -6 0 -5c0,-5 2,-9 6,-13 4,-4 9,-6 15,-6 5,0 10,3 15,9l61 92 61 -92c4,-6 9,-9 16,-9 4,0 8,2 14,6 4,4 6,8 6,14 0,3 -1,7 -3,10l-71 106zm-3930 733c0,13 -6,19 -19,19l-96 0c-21,0 -39,-7 -55,-22 -15,-15 -23,-33 -23,-55l0 -174c0,-5 2,-10 6,-14 4,-4 8,-5 14,-5 4,0 9,1 13,4 4,4 6,9 6,15l0 174c0,11 3,20 11,28 4,3 8,6 12,8 6,2 11,3 15,3l78 0 0 -213c0,-5 2,-10 6,-14 4,-4 8,-5 13,-5 5,0 10,1 13,4 4,4 6,9 6,15l0 232zm179 -97l-24 0c-6,0 -11,-2 -14,-6 -4,-4 -5,-8 -5,-13 0,-5 1,-9 5,-13 3,-5 8,-7 14,-7l19 0c12,0 21,-4 28,-11 7,-8 11,-17 11,-27 0,-11 -3,-20 -10,-27 -3,-4 -7,-6 -12,-9 -5,-2 -10,-3 -17,-3l-19 0c-18,0 -33,5 -46,16 -4,2 -8,4 -12,4 -4,0 -9,-2 -14,-6 -4,-4 -5,-8 -5,-14 0,-6 2,-11 7,-15 20,-16 43,-23 70,-23l19 0c24,0 44,8 58,24 13,14 19,32 19,53 0,6 0,11 -1,16 -1,5 -3,11 -5,16 -4,9 -10,17 -18,26 7,7 13,15 18,26l5 16c1,5 1,10 1,16 0,21 -6,39 -19,53 -14,16 -33,24 -58,24l-19 0c-26,0 -49,-8 -70,-23 -5,-4 -8,-9 -8,-16 0,-4 2,-8 6,-13 4,-4 9,-7 14,-7 3,0 7,2 12,5 13,10 28,16 46,16l19 0c12,0 21,-4 28,-12 7,-8 11,-17 11,-28 0,-10 -3,-18 -8,-25 -6,-7 -14,-11 -26,-13zm304 39l0 -116c0,-11 -4,-20 -11,-28 -7,-7 -17,-11 -28,-11l-39 0c-11,0 -20,4 -27,11 -4,4 -7,8 -9,13 -1,4 -2,9 -2,15l0 116c0,11 3,20 11,28 4,3 8,6 12,8 6,2 11,3 15,3l39 0c11,0 20,-4 27,-11 8,-7 12,-17 12,-28zm-63 -193l-86 -83c-5,-5 -7,-10 -7,-16 0,-4 2,-8 5,-11 3,-4 9,-6 15,-6l155 0c5,0 10,2 14,6 3,4 5,8 5,13 0,5 -1,9 -5,13 -3,4 -8,6 -14,6l-106 0 102 98 5 6c12,15 18,32 18,51l0 116c0,21 -7,39 -22,54 -15,15 -34,23 -55,23l-39 0c-20,0 -38,-7 -54,-22 -15,-15 -23,-33 -23,-55l0 -116c0,-21 8,-40 23,-55 15,-15 33,-22 54,-22l15 0zm371 251c0,13 -6,19 -19,19l-96 0c-21,0 -39,-7 -55,-22 -15,-15 -23,-33 -23,-55l0 -174c0,-5 2,-10 6,-14 4,-4 8,-5 13,-5 5,0 10,1 14,4 4,4 6,9 6,15l0 174c0,11 3,20 11,28 4,3 8,6 12,8 6,2 11,3 15,3l78 0 0 -213c0,-5 2,-10 6,-14 4,-4 8,-5 13,-5 5,0 10,1 13,4 4,4 6,9 6,15l0 232zm116 -19l77 0c11,0 20,-4 28,-11 7,-7 11,-17 11,-28l0 -116c0,-11 -4,-20 -11,-28 -7,-7 -16,-11 -28,-11l-77 0 0 194zm0 38l0 96c0,6 -2,10 -6,14 -4,4 -9,6 -13,6 -5,0 -9,-2 -13,-5 -5,-3 -7,-8 -7,-15l0 -347c0,-13 7,-19 20,-19l96 0c21,0 39,7 55,22 15,15 22,33 22,55l0 116c0,21 -7,39 -22,54 -15,15 -34,23 -55,23l-77 0zm386 -77l0 -155 -77 0c-11,0 -21,4 -28,11 -4,4 -7,8 -8,13 -2,4 -3,9 -3,15l0 116c0,11 3,20 11,28 4,3 8,6 12,8 6,2 11,3 16,3l38 0c11,0 20,-4 28,-11 7,-7 11,-17 11,-28zm19 52c-6,7 -15,13 -25,18 -11,5 -22,7 -33,7l-38 0c-21,0 -39,-7 -55,-22 -15,-15 -23,-33 -23,-55l0 -116c0,-21 8,-40 23,-55 15,-15 33,-22 55,-22l96 0c13,0 19,6 19,19l0 173c0,8 3,16 8,24 4,7 11,13 19,17 8,3 12,9 12,17 0,6 -2,11 -5,14 -4,4 -8,6 -14,6 -3,0 -5,-1 -8,-2 -13,-5 -23,-13 -31,-23zm212 -207l-77 0 0 213c0,6 -2,11 -6,14 -3,3 -8,5 -13,5 -5,0 -10,-2 -14,-5 -4,-3 -5,-8 -5,-14l0 -232c0,-13 6,-19 19,-19l173 0c21,0 39,7 54,22 16,15 23,33 23,55l0 174c0,6 -1,11 -5,14 -4,3 -8,5 -14,5 -5,0 -9,-2 -13,-5 -4,-3 -6,-8 -6,-14l0 -174c0,-11 -4,-20 -11,-28 -7,-7 -17,-11 -28,-11l-38 0 0 213c0,6 -2,11 -6,14 -3,3 -8,5 -14,5 -5,0 -9,-2 -13,-5 -4,-3 -6,-8 -6,-14l0 -213zm270 78l116 0 0 -39c0,-11 -3,-20 -11,-28 -7,-7 -16,-11 -27,-11l-39 0c-11,0 -20,4 -28,11 -3,4 -6,8 -8,13 -2,5 -3,10 -3,15l0 39zm0 38l0 39c0,11 4,20 11,28 4,3 8,6 13,8 5,2 10,3 15,3l96 0c6,0 10,2 14,6 4,3 6,8 6,13 0,4 -2,9 -5,13 -3,4 -8,6 -15,6l-96 0c-21,0 -39,-7 -54,-22 -16,-15 -23,-34 -23,-55l0 -116c0,-21 7,-39 22,-54 15,-16 33,-23 55,-23l39 0c21,0 39,7 54,22 15,15 23,33 23,55l0 58c0,13 -7,19 -20,19l-135 0zm425 97c0,6 -2,11 -6,14 -3,3 -8,5 -13,5 -5,0 -10,-2 -14,-5 -4,-3 -6,-8 -6,-14l0 -213 -44 0 -72 219c-2,4 -4,7 -7,10 -1,1 -5,2 -11,3 -5,0 -9,-2 -13,-6 -5,-3 -7,-7 -7,-12l2 -7 76 -232c3,-9 9,-13 18,-13l78 0c12,0 19,6 19,19l0 232zm232 -135l0 -78 -78 0c-11,0 -20,4 -29,12 -6,7 -10,16 -10,27 0,10 4,19 10,27 7,8 17,12 29,12l78 0zm-48 38l-72 107c-1,3 -4,5 -7,7l-9 2c-4,0 -8,-2 -13,-6 -4,-4 -6,-8 -6,-13 0,-4 1,-7 3,-11l58 -87c-19,-3 -34,-11 -45,-27 -11,-15 -16,-31 -16,-49 0,-21 6,-38 19,-53 15,-16 34,-24 58,-24l97 0c13,0 19,6 19,19l0 232c0,6 -2,11 -6,14 -3,3 -8,5 -13,5 -5,0 -10,-2 -14,-5 -4,-3 -5,-8 -5,-14l0 -97 -48 0zm394 97l0 -232c0,-7 -1,-12 -5,-16 -3,-4 -7,-6 -12,-6 -5,0 -11,4 -18,11l-80 113 -81 -113c-5,-7 -11,-11 -18,-11 -4,0 -8,2 -12,6 -3,4 -5,9 -5,16l0 232c0,6 2,11 5,14 4,3 9,5 14,5 5,0 9,-2 13,-5 4,-3 6,-8 6,-14l0 -172 62 87c5,6 10,10 16,10 5,0 10,-4 15,-10l62 -87 0 172c0,6 2,11 5,14 4,3 9,5 14,5 5,0 9,-2 13,-5 4,-3 6,-8 6,-14zm118 0l0 4 -19 78c-2,9 -9,14 -19,14 -6,0 -10,-2 -14,-5 -4,-3 -6,-7 -6,-14l1 -5 19 -75 0 -17c0,-5 2,-10 6,-14 3,-3 8,-5 13,-5 5,0 9,2 13,5 4,3 6,8 6,14l0 20zm-3387 617c0,6 -2,11 -6,15 -3,3 -8,5 -13,5 -6,0 -10,-2 -14,-5 -4,-3 -6,-8 -6,-15l0 -174c0,-11 -3,-20 -11,-27 -7,-8 -16,-11 -27,-11l-78 0 0 212c0,6 -2,11 -5,15 -4,3 -9,5 -14,5 -5,0 -10,-2 -14,-5 -3,-3 -5,-8 -5,-15l0 -231c0,-13 6,-20 19,-20l96 0c21,0 39,8 55,22 15,15 23,34 23,56l0 173zm115 -19l78 0c10,0 19,-3 27,-11 8,-7 11,-16 11,-28l0 -116c0,-11 -3,-20 -11,-27 -7,-8 -16,-11 -27,-11l-78 0 0 193zm0 39l0 96c0,5 -2,10 -6,14 -4,3 -8,5 -13,5 -4,0 -9,-1 -13,-4 -4,-4 -6,-9 -6,-15l0 -347c0,-13 6,-20 19,-20l97 0c21,0 39,8 54,23 15,15 23,33 23,55l0 115c0,22 -8,40 -23,55 -15,15 -33,23 -55,23l-77 0zm425 -85c0,23 -8,43 -25,59 -16,17 -36,26 -60,26l-23 0c-23,0 -43,-9 -60,-25 -17,-16 -25,-36 -25,-60l0 -101c0,-22 8,-42 25,-59 16,-17 36,-26 60,-26l23 0c23,0 43,8 60,25 16,16 25,37 25,60l0 101zm-39 0l0 -101c0,-13 -4,-23 -13,-33 -9,-9 -20,-13 -33,-13l-23 0c-13,0 -24,4 -33,13 -9,9 -14,20 -14,33l0 101c0,12 5,23 14,33 9,9 20,13 33,13l23 0c13,0 23,-4 33,-13 9,-9 13,-20 13,-33z"/>
   <path class="fil14 str3" d="M14748 7313c-10,6 -23,10 -39,14l-20 3 -23 1 -27 -1 -23 -3c-15,-2 -26,-9 -36,-20 -9,-11 -13,-24 -13,-38 0,-8 1,-16 5,-24 3,-9 8,-16 16,-22l123 -85c4,-3 6,-7 6,-12 0,-8 -6,-14 -20,-19 -13,-4 -27,-7 -43,-7 -13,0 -24,1 -34,3 -10,3 -18,6 -24,12 -4,2 -8,3 -12,4 -4,0 -9,-2 -14,-6 -3,-4 -5,-9 -5,-14 0,-6 2,-11 8,-15 8,-6 20,-11 36,-15 7,-2 16,-4 24,-5 8,-1 16,-1 25,-1 5,0 10,0 14,0 5,0 10,0 16,1 6,1 13,2 21,5 14,4 26,11 34,21 9,11 14,22 14,35 0,16 -8,31 -22,44l-124 85c-4,4 -7,9 -7,14 0,5 2,10 5,14 3,4 8,6 13,8l21 2 23 1c15,0 26,-1 35,-3 4,-1 9,-2 14,-4 5,-2 10,-4 14,-7l4 -2c2,0 4,-1 6,-1 5,0 10,3 14,7 3,4 5,8 5,14 0,6 -3,12 -10,16zm280 -67c0,23 -8,43 -25,59 -16,17 -36,26 -60,26l-23 0c-23,0 -43,-9 -60,-25 -17,-16 -25,-36 -25,-60l0 -101c0,-22 8,-42 25,-59 16,-17 36,-26 60,-26l23 0c23,0 43,8 60,25 17,16 25,37 25,60l0 101zm-38 0l0 -101c0,-13 -5,-23 -14,-33 -9,-9 -20,-13 -33,-13l-23 0c-13,0 -24,4 -33,13 -9,9 -14,20 -14,33l0 101c0,12 5,23 14,33 9,9 20,13 33,13l23 0c13,0 24,-4 33,-13 9,-9 14,-20 14,-33zm308 65c0,6 -2,11 -5,15 -4,3 -8,5 -14,5 -5,0 -10,-2 -14,-5 -3,-3 -5,-8 -5,-15l0 -212 -45 0 -72 218c-1,5 -4,8 -7,11 -1,0 -5,1 -11,3 -5,0 -9,-2 -13,-6 -4,-3 -6,-8 -6,-13l1 -7 76 -231c3,-9 9,-14 18,-14l78 0c13,0 19,7 19,20l0 231zm270 -65c0,23 -8,43 -24,59 -17,17 -37,26 -61,26l-23 0c-23,0 -43,-9 -60,-25 -16,-16 -25,-36 -25,-60l0 -101c0,-22 8,-42 25,-59 17,-17 37,-26 60,-26l23 0c23,0 43,8 60,25 17,16 25,37 25,60l0 101zm-38 0l0 -101c0,-13 -5,-23 -14,-33 -9,-9 -20,-13 -33,-13l-23 0c-13,0 -24,4 -33,13 -9,9 -13,20 -13,33l0 101c0,12 4,23 13,33 9,9 20,13 33,13l23 0c13,0 24,-4 33,-13 9,-9 14,-20 14,-33zm250 85l-58 0c-20,0 -38,-8 -54,-23 -15,-15 -23,-33 -23,-55l0 -115c0,-22 8,-40 23,-55 15,-15 33,-23 54,-23l58 0c6,0 10,2 14,6 4,4 6,9 6,13 0,5 -2,9 -5,13 -3,5 -8,7 -15,7l-58 0c-11,0 -20,3 -27,11 -4,3 -7,8 -9,12 -1,5 -2,10 -2,15l0 116c0,11 3,21 11,28 4,4 8,6 12,9 6,1 11,2 15,2l58 0c6,0 10,2 14,6 4,4 6,9 6,13 0,5 -2,9 -5,13 -3,5 -8,7 -15,7zm290 -85c0,23 -8,43 -25,59 -16,17 -36,26 -60,26l-23 0c-23,0 -43,-9 -60,-25 -17,-16 -25,-36 -25,-60l0 -101c0,-22 8,-42 25,-59 16,-17 36,-26 60,-26l23 0c23,0 43,8 60,25 16,16 25,37 25,60l0 101zm-39 0l0 -101c0,-13 -4,-23 -13,-33 -9,-9 -20,-13 -33,-13l-23 0c-13,0 -24,4 -33,13 -9,9 -14,20 -14,33l0 101c0,12 5,23 14,33 9,9 20,13 33,13l23 0c12,0 23,-4 33,-13 9,-9 13,-20 13,-33zm270 8l0 -116c0,-11 -3,-20 -10,-28 -8,-7 -17,-11 -28,-11l-39 0c-11,0 -20,4 -28,11 -3,4 -6,8 -8,13 -2,4 -3,9 -3,15l0 116c0,11 4,20 11,27 4,4 8,6 13,9 5,1 10,2 15,2l39 0c10,0 20,-3 27,-10 8,-8 11,-17 11,-28zm-116 -180l16 -10 23 -16c7,-6 13,-11 16,-15 5,-6 7,-12 7,-19 0,-8 -3,-16 -9,-22 -6,-5 -14,-8 -22,-8 -8,0 -16,3 -22,8 -6,5 -9,12 -9,22l0 60zm78 -12c24,0 44,7 58,22 12,14 19,32 19,54l0 115c0,22 -8,40 -23,55 -15,15 -33,23 -54,23l-39 0c-21,0 -39,-8 -54,-23 -15,-15 -23,-33 -23,-55l0 -239c0,-21 7,-39 21,-52 14,-12 30,-17 49,-17 17,0 33,6 47,18 15,12 22,29 22,51 0,12 -2,22 -6,28 -3,7 -9,13 -17,20zm309 191l0 -154 -78 0c-11,0 -20,3 -28,11 -3,3 -6,8 -8,12 -2,5 -3,10 -3,15l0 116c0,11 4,21 11,28 4,4 8,6 13,9 5,1 10,2 15,2l39 0c11,0 20,-3 27,-11 8,-7 12,-16 12,-28zm18 52c-6,7 -14,13 -25,18 -11,5 -22,8 -32,8l-39 0c-21,0 -39,-8 -54,-23 -15,-15 -23,-33 -23,-55l0 -115c0,-22 7,-40 22,-55 16,-15 34,-23 55,-23l97 0c13,0 19,7 19,20l0 173c0,8 2,16 7,24 5,7 11,12 20,16 8,4 12,10 12,18 0,6 -2,10 -6,14 -3,4 -8,6 -14,6 -2,0 -5,-1 -8,-2 -12,-5 -22,-13 -31,-24zm252 -51l0 -116c0,-11 -4,-20 -11,-28 -8,-7 -17,-11 -28,-11l-39 0c-11,0 -20,4 -28,11 -3,4 -6,8 -8,13 -2,4 -3,9 -3,15l0 116c0,11 4,20 11,27 4,4 8,6 13,9 5,1 10,2 15,2l39 0c11,0 20,-3 27,-10 8,-8 12,-17 12,-28zm-117 -180l16 -10 23 -16c8,-6 13,-11 16,-15 5,-6 7,-12 7,-19 0,-8 -3,-16 -9,-22 -6,-5 -14,-8 -22,-8 -8,0 -15,3 -22,8 -6,5 -9,12 -9,22l0 60zm78 -12c24,0 44,7 58,22 13,14 19,32 19,54l0 115c0,22 -8,40 -23,55 -15,15 -33,23 -54,23l-39 0c-21,0 -39,-8 -54,-23 -15,-15 -23,-33 -23,-55l0 -239c0,-21 7,-39 21,-52 14,-12 30,-17 49,-17 17,0 33,6 48,18 14,12 21,29 21,51 0,12 -2,22 -6,28 -3,7 -9,13 -17,20zm308 230l77 0 0 -212c0,-6 2,-10 6,-15 4,-3 9,-5 14,-5 4,0 9,2 13,5 4,3 6,8 6,15l0 231c0,13 -7,20 -19,20l-174 0c-21,0 -39,-8 -54,-23 -15,-15 -23,-33 -23,-55l0 -173c0,-6 2,-10 6,-15 4,-3 8,-5 13,-5 5,0 10,2 14,5 3,3 5,8 5,15l0 174c0,10 4,20 11,27 4,4 9,6 13,9 5,1 10,2 15,2l39 0 0 -212c0,-6 2,-10 5,-15 4,-3 9,-5 14,-5 5,0 9,2 13,5 4,3 6,8 6,15l0 212zm386 19c0,13 -6,20 -19,20l-96 0c-21,0 -39,-8 -55,-23 -15,-15 -23,-33 -23,-55l0 -173c0,-6 2,-10 6,-15 4,-3 8,-5 13,-5 5,0 10,2 14,5 4,3 6,8 6,15l0 174c0,10 3,20 11,27 4,4 8,6 12,9 6,1 11,2 15,2l78 0 0 -212c0,-6 2,-10 6,-15 4,-3 8,-5 13,-5 5,0 10,2 13,5 4,3 6,8 6,15l0 231zm309 0l0 -231c0,-7 -2,-13 -5,-17 -4,-4 -8,-6 -12,-6 -6,0 -12,4 -18,11l-81 114 -81 -114c-5,-7 -11,-11 -18,-11 -4,0 -8,2 -12,6 -3,5 -5,10 -5,17l0 231c0,6 2,11 6,15 3,3 8,5 14,5 4,0 8,-2 13,-5 4,-4 6,-9 6,-15l0 -171 61 86c5,7 11,10 16,10 5,0 10,-3 16,-10l61 -86 0 171c0,6 2,11 6,15 3,3 8,5 14,5 4,0 9,-2 13,-5 4,-4 6,-9 6,-15zm-2894 405l-77 0c-11,0 -20,4 -28,11 -3,4 -6,8 -8,13 -2,5 -3,10 -3,15l0 116c0,11 4,20 11,28 4,3 8,6 13,8 5,2 10,3 15,3l39 0c10,0 20,-4 27,-11 8,-7 11,-16 11,-28l0 -155zm0 -38l0 -39c0,-11 -3,-20 -10,-27 -8,-8 -17,-11 -28,-11l-78 0c-5,0 -10,-2 -14,-6 -3,-4 -5,-9 -5,-14 0,-4 2,-8 5,-13 3,-4 8,-6 14,-6l78 0c21,0 39,8 54,23 15,15 23,33 23,54l0 232c0,21 -8,39 -23,54 -15,16 -33,23 -54,23l-39 0c-21,0 -39,-7 -54,-22 -15,-15 -23,-33 -23,-55l0 -116c0,-21 7,-39 22,-55 16,-15 34,-22 55,-22l77 0zm309 185c0,23 -8,43 -25,60 -16,17 -36,25 -60,25l-23 0c-23,0 -43,-8 -60,-24 -17,-17 -25,-37 -25,-61l0 -100c0,-23 8,-43 25,-60 16,-17 36,-25 60,-25l23 0c23,0 43,8 60,25 17,16 25,36 25,60l0 100zm-38 0l0 -100c0,-13 -5,-24 -14,-33 -9,-9 -20,-14 -33,-14l-23 0c-13,0 -24,5 -33,14 -9,9 -14,20 -14,33l0 100c0,13 5,24 14,33 9,9 20,14 33,14l23 0c13,0 23,-5 33,-13 9,-9 14,-20 14,-34zm250 85l-58 0c-21,0 -39,-7 -54,-22 -15,-15 -23,-33 -23,-55l0 -116c0,-21 7,-39 23,-55 15,-15 33,-22 54,-22l58 0c5,0 10,2 14,6 4,4 6,8 6,13 0,4 -2,9 -5,13 -4,4 -8,6 -15,6l-58 0c-11,0 -20,4 -28,11 -3,4 -6,8 -8,13 -2,5 -3,10 -3,15l0 116c0,11 4,20 11,28 4,3 8,6 13,8 5,2 10,3 15,3l58 0c5,0 10,2 14,6 4,4 6,8 6,13 0,4 -2,9 -5,13 -4,4 -8,6 -15,6zm135 -38l77 0c11,0 20,-4 28,-11 7,-7 11,-16 11,-28l0 -116c0,-11 -4,-20 -11,-28 -7,-7 -16,-11 -28,-11l-77 0 0 194zm0 38l0 97c0,5 -2,10 -6,13 -4,4 -8,6 -13,6 -5,0 -9,-2 -13,-5 -4,-3 -7,-8 -7,-14l0 -348c0,-13 7,-19 20,-19l96 0c21,0 39,7 55,22 15,15 22,34 22,55l0 116c0,21 -7,39 -22,54 -15,16 -33,23 -55,23l-77 0zm425 -85c0,23 -9,43 -25,60 -17,17 -37,25 -60,25l-24 0c-22,0 -42,-8 -59,-24 -17,-17 -25,-37 -25,-61l0 -100c0,-23 8,-43 24,-60 17,-17 37,-25 60,-25l24 0c23,0 43,8 59,25 17,16 26,36 26,60l0 100zm-39 0l0 -100c0,-13 -4,-24 -13,-33 -9,-9 -20,-14 -33,-14l-24 0c-12,0 -23,5 -32,14 -9,9 -14,20 -14,33l0 100c0,13 4,24 13,33 9,9 21,14 33,14l24 0c12,0 23,-5 32,-13 10,-9 14,-20 14,-34zm270 -69l0 -97c0,-5 2,-10 6,-14 4,-3 8,-5 13,-5 5,0 10,1 14,5 4,3 6,8 6,14l0 232c0,6 -2,11 -6,15 -3,3 -8,4 -14,4 -5,0 -9,-1 -13,-5 -4,-3 -6,-8 -6,-14l0 -97 -77 0c-21,0 -39,-7 -54,-22 -16,-15 -23,-33 -23,-55l0 -58c0,-5 1,-10 5,-14 4,-3 9,-5 14,-5 5,0 9,1 13,5 4,3 6,8 6,14l0 58c0,11 4,20 11,28 4,3 8,6 13,8 5,2 10,3 15,3l77 0zm270 0l0 -97c0,-5 2,-10 6,-14 4,-3 8,-5 14,-5 4,0 9,1 13,5 4,3 6,8 6,14l0 232c0,6 -2,11 -6,15 -3,3 -8,4 -13,4 -6,0 -10,-1 -14,-5 -4,-3 -6,-8 -6,-14l0 -97 -116 0 0 97c0,6 -2,11 -5,15 -4,3 -8,4 -14,4 -5,0 -10,-1 -14,-5 -3,-3 -5,-8 -5,-14l0 -232c0,-5 2,-10 5,-14 4,-3 9,-5 14,-5 5,0 9,1 13,5 4,3 6,8 6,14l0 97 116 0zm309 69c0,23 -8,43 -25,60 -16,17 -36,25 -60,25l-23 0c-23,0 -43,-8 -60,-24 -17,-17 -25,-37 -25,-61l0 -100c0,-23 8,-43 25,-60 16,-17 36,-25 60,-25l23 0c23,0 43,8 60,25 16,16 25,36 25,60l0 100zm-39 0l0 -100c0,-13 -4,-24 -13,-33 -9,-9 -20,-14 -33,-14l-23 0c-13,0 -24,5 -33,14 -9,9 -14,20 -14,33l0 100c0,13 5,24 14,33 9,9 20,14 33,14l23 0c12,0 23,-5 33,-13 9,-9 13,-20 13,-34zm-2893 626l0 -116c0,-11 -4,-20 -11,-28 -8,-7 -17,-11 -28,-11l-39 0c-11,0 -20,4 -27,11 -4,4 -7,8 -9,13 -2,5 -3,10 -3,15l0 116c0,11 4,20 12,27 3,4 8,6 12,9 5,1 11,2 15,2l39 0c11,0 20,-3 27,-10 8,-8 12,-17 12,-28zm-117 -180l16 -10 23 -16c8,-6 13,-11 16,-14 5,-6 8,-13 8,-19 0,-9 -4,-17 -10,-23 -6,-5 -13,-8 -22,-8 -8,0 -15,3 -21,8 -7,5 -10,13 -10,23l0 59zm78 -12c24,0 44,7 58,22 13,14 19,32 19,54l0 116c0,21 -7,39 -23,54 -15,15 -33,23 -54,23l-39 0c-21,0 -39,-8 -54,-22 -15,-15 -23,-34 -23,-55l0 -240c0,-21 7,-38 21,-52 14,-11 30,-17 49,-17 18,0 34,6 48,18 14,12 21,29 21,51 0,13 -2,22 -6,28 -3,7 -9,13 -17,20zm579 250c0,6 -2,10 -6,14 -3,3 -8,5 -14,5 -5,0 -9,-2 -13,-5 -4,-3 -6,-8 -6,-15l0 -174c0,-10 -3,-20 -11,-27 -7,-7 -16,-11 -27,-11l-78 0 0 212c0,7 -2,11 -5,15 -4,3 -9,5 -14,5 -5,0 -10,-2 -14,-5 -3,-3 -5,-8 -5,-14l0 -232c0,-13 6,-20 19,-20l96 0c21,0 39,8 55,23 15,14 23,33 23,55l0 174zm270 -66c0,23 -8,43 -25,60 -16,16 -36,25 -60,25l-23 0c-23,0 -43,-8 -60,-25 -17,-16 -25,-36 -25,-60l0 -101c0,-22 8,-42 25,-59 16,-17 36,-26 60,-26l23 0c23,0 43,9 60,25 16,17 25,37 25,60l0 101zm-39 0l0 -101c0,-12 -4,-23 -13,-32 -9,-10 -20,-14 -33,-14l-23 0c-13,0 -24,4 -33,13 -9,9 -14,20 -14,33l0 101c0,13 5,24 14,33 9,9 20,13 33,13l23 0c12,0 23,-4 33,-13 9,-9 13,-20 13,-33zm347 66l0 -232c0,-7 -1,-13 -5,-17 -3,-3 -7,-5 -12,-5 -6,0 -12,3 -18,11l-81 113 -80 -113c-5,-8 -11,-11 -18,-11 -5,0 -9,2 -13,6 -3,4 -4,9 -4,16l0 232c0,6 2,10 5,14 4,3 8,5 14,5 5,0 9,-2 13,-5 4,-4 6,-8 6,-14l0 -172 62 86c5,7 10,11 15,11 5,0 11,-4 16,-11l62 -86 0 172c0,6 2,10 5,14 4,3 8,5 14,5 5,0 9,-2 13,-5 4,-4 6,-8 6,-14zm116 -135l116 0 0 -39c0,-11 -4,-20 -11,-28 -7,-7 -16,-11 -28,-11l-38 0c-11,0 -21,3 -28,11 -4,4 -7,8 -8,13 -2,4 -3,9 -3,15l0 39zm0 38l0 39c0,11 3,20 11,27 4,4 8,6 12,9 6,1 11,2 15,2l97 0c5,0 10,2 14,6 4,4 5,9 5,14 0,4 -1,8 -4,13 -4,4 -8,6 -15,6l-96 0c-21,0 -39,-8 -55,-23 -15,-15 -23,-33 -23,-54l0 -116c0,-21 8,-39 23,-55 15,-15 33,-23 55,-23l38 0c21,0 39,8 55,23 15,15 22,33 22,55l0 58c0,13 -6,19 -19,19l-135 0zm386 77l78 0 0 -212c0,-5 1,-10 5,-15 4,-3 9,-5 14,-5 4,0 9,2 13,5 4,3 6,8 6,15l0 212 19 0c13,0 19,7 19,20l0 38c0,5 -2,10 -6,14 -4,3 -8,5 -13,5 -4,0 -9,-1 -13,-5 -4,-3 -6,-8 -6,-14l0 -19 -31 0 -162 0c-21,0 -39,-8 -55,-23 -15,-15 -22,-33 -22,-54l0 -174c0,-5 1,-10 5,-15 4,-3 9,-5 14,-5 5,0 9,2 13,5 4,4 6,8 6,15l0 174c0,11 4,20 11,27 4,4 8,6 12,9 6,1 11,2 16,2l38 0 0 -212c0,-5 2,-10 6,-15 4,-3 8,-5 13,-5 5,0 10,2 14,5 4,4 6,8 6,15l0 212z"/>
   <path class="fil14 str3" d="M15722 8412l116 0 0 -39c0,-11 -3,-20 -10,-28 -8,-7 -17,-11 -28,-11l-39 0c-11,0 -20,3 -28,11 -3,4 -6,8 -8,13 -2,4 -3,9 -3,15l0 39zm0 38l0 39c0,11 4,20 11,27 4,4 8,6 13,9 5,1 10,2 15,2l97 0c5,0 9,2 13,6 4,4 6,9 6,14 0,4 -2,8 -5,13 -3,4 -8,6 -14,6l-97 0c-21,0 -39,-8 -54,-23 -16,-15 -23,-33 -23,-54l0 -116c0,-21 7,-39 22,-55 15,-15 33,-23 55,-23l39 0c21,0 39,8 54,23 15,15 23,33 23,55l0 58c0,13 -7,19 -19,19l-136 0zm387 -39l0 -96c0,-5 1,-10 5,-15 4,-3 9,-5 14,-5 5,0 9,2 13,5 4,4 6,8 6,15l0 232c0,6 -2,10 -6,14 -3,3 -8,5 -13,5 -5,0 -10,-2 -14,-5 -4,-3 -5,-8 -5,-15l0 -96 -117 0 0 96c0,7 -1,11 -5,15 -4,3 -8,5 -14,5 -5,0 -9,-2 -13,-5 -4,-3 -6,-8 -6,-14l0 -232c0,-5 2,-10 6,-15 4,-3 8,-5 13,-5 5,0 10,2 13,5 4,3 6,8 6,15l0 96 117 0zm308 136c0,12 -6,19 -19,19l-97 0c-21,0 -39,-8 -54,-23 -15,-14 -23,-33 -23,-54l0 -174c0,-5 2,-10 6,-15 4,-3 8,-5 13,-5 5,0 10,2 13,5 4,4 6,8 6,15l0 174c0,11 4,20 11,27 4,4 8,6 13,9 5,1 11,2 15,2l78 0 0 -212c0,-5 2,-10 5,-15 4,-3 9,-5 14,-5 5,0 9,2 13,5 4,4 6,8 6,15l0 232zm270 0c0,12 -6,19 -19,19l-97 0c-20,0 -39,-8 -54,-23 -15,-14 -23,-33 -23,-54l0 -174c0,-5 2,-10 6,-15 4,-3 8,-5 13,-5 5,0 10,2 14,5 3,4 5,8 5,15l0 174c0,11 4,20 12,27 3,4 8,6 12,9 6,1 11,2 15,2l78 0 0 -212c0,-5 2,-10 5,-15 4,-3 9,-5 14,-5 5,0 9,2 13,5 4,4 6,8 6,15l0 232zm405 -329l-77 0c-6,0 -11,-2 -14,-5 -4,-4 -5,-9 -5,-14 0,-4 1,-9 4,-13 4,-4 9,-6 15,-6l193 0c5,0 10,2 13,6 4,4 6,8 6,13 0,4 -2,9 -5,13 -3,4 -8,6 -14,6l-77 0 0 329c0,6 -2,10 -6,14 -3,3 -8,5 -14,5 -5,0 -9,-2 -13,-5 -4,-3 -6,-8 -6,-14l0 -329zm444 329c0,6 -2,10 -6,14 -3,3 -8,5 -13,5 -6,0 -10,-2 -14,-5 -4,-3 -6,-8 -6,-14l0 -273 -156 282c-3,4 -5,7 -9,9l-4 3c-1,0 -3,1 -6,1 -4,0 -8,-2 -13,-6 -3,-4 -5,-9 -5,-16l0 -348c0,-5 2,-10 6,-14 4,-3 8,-5 14,-5 4,0 9,2 13,5 4,3 6,8 6,14l0 273 156 -282c2,-3 5,-6 9,-9 3,-3 7,-4 10,-4 4,0 8,2 12,6 4,4 6,9 6,16l0 348zm115 -201l163 -161c4,-3 8,-5 13,-5 5,0 9,2 14,6 4,4 6,8 6,14 0,3 -2,7 -6,13l-115 114 119 210 2 10c0,5 -2,9 -6,13 -4,4 -8,6 -14,6 -6,0 -12,-4 -16,-10l-114 -202 -46 46 0 147c0,6 -1,10 -5,14 -4,3 -8,5 -14,5 -5,0 -9,-2 -13,-5 -4,-3 -6,-8 -6,-15l0 -347c0,-5 2,-10 6,-14 4,-3 8,-5 13,-5 5,0 10,1 14,4 3,3 5,8 5,14l0 148z"/>
  </g>
 </g>
</svg>
