<?xml version="1.0" encoding="UTF-8"?>
<!DOCTYPE svg PUBLIC "-//W3C//DTD SVG 1.0//EN" "http://www.w3.org/TR/2001/REC-SVG-20010904/DTD/svg10.dtd">
<!-- Creator: CorelDRAW X7 -->
<svg xmlns="http://www.w3.org/2000/svg" xml:space="preserve" width="200mm" height="200mm" version="1.0" style="shape-rendering:geometricPrecision; text-rendering:geometricPrecision; image-rendering:optimizeQuality; fill-rule:evenodd; clip-rule:evenodd"
viewBox="0 0 20000 20000"
 xmlns:xlink="http://www.w3.org/1999/xlink">
 <defs>
  <style type="text/css">
   <![CDATA[
    .str0 {stroke:#3A949E;stroke-width:25}
    .fil3 {fill:#FEFEFE}
    .fil1 {fill:#EBECEC}
    .fil4 {fill:#D6D4D2}
    .fil2 {fill:#BDBBBA}
    .fil6 {fill:#38959F}
    .fil5 {fill:#3A949E}
    .fil0 {fill:url(#id0)}
   ]]>
  </style>
  <radialGradient id="id0" gradientUnits="userSpaceOnUse" gradientTransform="matrix(1.41421 -0 -0 1.41421 -4155 -4129)" cx="10030.6" cy="9969.4" r="10000" fx="10030.6" fy="9969.4">
   <stop offset="0" style="stop-opacity:1; stop-color:#FEFEFE"/>
   <stop offset="0.439216" style="stop-opacity:1; stop-color:#FEFEFE"/>
   <stop offset="1" style="stop-opacity:1; stop-color:#D1E2F2"/>
  </radialGradient>
 </defs>
 <g id="Layer_x0020_1">
  <metadata id="CorelCorpID_0Corel-Layer"/>
  <path class="fil0" d="M31 -31l20000 0 0 20000 -20000 0 0 -20000z"/>
  <g id="_286472375248">
   <path class="fil1" d="M13488 11566c-71,-147 -448,-265 -838,-265l-7288 0c-391,0 -659,122 -579,265l1737 3117c80,144 385,564 775,564l7289 0c389,0 650,-118 579,-265l-1675 -3416z"/>
   <path class="fil2" d="M15292 14538c0,390 -319,709 -708,709l-7289 0c-390,0 -709,-319 -709,-709l0 -9138c0,-389 319,-708 709,-708l7289 0c389,0 708,319 708,708l0 9138z"/>
   <path class="fil3" d="M14901 14538c0,175 -143,318 -317,318l-7289 0c-174,0 -318,-143 -318,-318l0 -9138c0,-174 144,-317 318,-317l7289 0c174,0 317,143 317,317l0 9138z"/>
   <path class="fil4" d="M13013 7639l0 0 1146 0 0 -1147 -1146 0 0 1147zm1208 123l-1270 0c-34,0 -61,-28 -61,-62l0 -1269c0,-33 27,-60 61,-60l1270 0c34,0 62,27 62,60l0 1269c0,34 -28,62 -62,62l0 0z"/>
   <path class="fil1" d="M12797 10852l0 0 1578 0 0 -1578 -1578 0 0 1578zm1663 169l-1748 0c-46,0 -84,-38 -84,-85l0 -1747c0,-46 38,-85 84,-85l1748 0c46,0 85,39 85,85l0 1747c0,47 -39,85 -85,85l0 0z"/>
   <path class="fil5" d="M13474 10553c-27,0 -51,-11 -68,-29l-270 -296c-34,-39 -31,-97 6,-131 39,-34 96,-31 131,6l191 211 467 -663c30,-41 88,-51 130,-21 40,29 51,86 21,128l-533 756c-17,23 -42,37 -71,39 -1,0 -3,0 -4,0l0 0z"/>
   <path class="fil4" d="M7517 6872l4674 0 0 230 -4674 0 0 -230z"/>
   <path class="fil4" d="M13013 13877l0 0 1146 0 0 -1147 -1146 0 0 1147zm1208 123l-1270 0c-34,0 -61,-28 -61,-62l0 -1269c0,-34 27,-62 61,-62l1270 0c34,0 62,28 62,62l0 1269c0,34 -28,62 -62,62l0 0z"/>
   <path class="fil4" d="M7517 13108l4674 0 0 231 -4674 0 0 -231z"/>
   <path class="fil6 str0" d="M7729 9947l-145 0c-31,0 -58,-12 -81,-34 -23,-22 -35,-50 -35,-82l0 -348c0,-32 12,-59 34,-82 23,-22 50,-33 82,-33l145 0c8,0 15,3 21,8 5,6 8,13 8,20 0,7 -2,13 -7,20 -5,6 -12,9 -22,9l-145 0c-16,0 -30,6 -42,17 -5,5 -9,12 -12,19 -3,7 -4,14 -4,22l0 348c0,16 5,30 16,42 6,5 13,9 19,12 8,3 16,4 23,4l145 0c8,0 15,3 21,9 5,6 8,13 8,20 0,7 -2,13 -7,19 -5,7 -12,10 -22,10zm205 -58l55 -496c0,-17 10,-25 29,-25l174 0c19,0 29,9 29,29l0 492 29 0c19,0 29,10 29,29l0 58c0,7 -3,14 -9,20 -6,5 -12,8 -20,8 -6,0 -13,-2 -19,-7 -6,-5 -9,-12 -9,-21l0 -29 -291 0 0 29c0,7 -3,14 -9,20 -6,5 -12,8 -20,8 -6,0 -13,-2 -19,-7 -6,-5 -9,-12 -9,-21l0 -58c0,-19 9,-29 28,-29l32 0zm229 0l0 -464 -119 0 -52 464 171 0zm289 -289l146 0c8,0 14,3 20,8 6,6 9,13 9,20 0,7 -3,14 -8,20 -4,6 -12,9 -21,9l-146 0 0 232 203 0c8,0 15,3 21,9 6,6 8,13 8,20 0,7 -2,13 -7,19 -5,7 -12,10 -21,10l-233 0c-19,0 -29,-9 -29,-28l0 -522c0,-20 10,-29 29,-29l233 0c7,0 14,3 20,8 6,6 8,13 8,20 0,7 -2,14 -7,20 -5,6 -12,9 -22,9l-203 0 0 175zm695 318c0,9 -2,16 -8,22 -5,4 -12,7 -20,7 -8,0 -15,-3 -20,-7 -6,-5 -9,-13 -9,-22l0 -493 -94 0 -139 500c-1,6 -4,11 -10,15 -5,5 -11,7 -18,7 -8,0 -15,-3 -21,-7 -5,-5 -8,-12 -8,-21 0,-4 0,-7 1,-9l145 -521c4,-14 13,-21 28,-21l145 0c19,0 28,9 28,29l0 521zm217 -116l-42 125c-2,6 -5,11 -10,15 -4,2 -10,4 -16,5 -8,0 -15,-3 -20,-9 -7,-5 -10,-11 -10,-19l2 -11 174 -521c6,-16 15,-24 27,-24 13,0 22,8 28,24l173 521 2 11c0,7 -3,14 -9,20 -7,5 -13,8 -21,8 -4,0 -8,-1 -13,-3 -5,-2 -9,-8 -13,-17l-42 -125 -210 0zm191 -59l-86 -255 -85 255 171 0zm460 -433l-116 0c-9,0 -16,-3 -21,-8 -5,-6 -8,-13 -8,-21 0,-6 3,-13 7,-19 5,-6 12,-10 22,-10l116 0c8,0 15,3 20,9 6,6 9,13 9,20 0,7 -3,13 -8,20 -4,6 -12,9 -21,9zm115 608c0,9 -2,16 -8,22 -5,4 -12,7 -20,7 -8,0 -15,-3 -21,-7 -5,-5 -8,-13 -8,-22l0 -409 -235 423c-3,6 -8,10 -13,14l-6 3c-2,1 -5,2 -9,3 -6,0 -12,-3 -19,-9 -5,-6 -8,-14 -8,-25l0 -521c0,-8 3,-15 9,-22 6,-5 12,-7 20,-7 7,0 14,2 20,7 6,5 9,12 9,22l0 409 235 -423c3,-4 7,-9 12,-14 5,-4 11,-6 16,-6 6,0 12,4 18,10 5,6 8,14 8,24l0 521zm724 29l-145 0c-31,0 -58,-12 -81,-34 -23,-22 -34,-50 -34,-82l0 -348c0,-32 11,-59 33,-82 23,-22 50,-33 82,-33l145 0c8,0 15,3 21,8 5,6 8,13 8,20 0,7 -2,13 -7,20 -5,6 -12,9 -22,9l-145 0c-16,0 -30,6 -41,17 -6,5 -10,12 -13,19 -2,7 -4,14 -4,22l0 348c0,16 6,30 17,42 6,5 12,9 18,12 9,3 16,4 23,4l145 0c8,0 15,3 21,9 5,6 8,13 8,20 0,7 -2,13 -7,19 -5,7 -12,10 -22,10zm437 -331c16,10 29,24 40,42 10,18 15,37 15,57l0 116c0,32 -11,59 -34,82 -23,22 -50,34 -82,34l-202 0c-20,0 -29,-10 -29,-29l0 -521c0,-20 9,-29 29,-29l173 0c33,0 60,11 82,33 23,23 34,50 34,82l0 58c0,14 -2,26 -6,39 -4,12 -11,24 -20,36zm-235 41l0 232 174 0c16,0 30,-5 41,-16 12,-11 17,-25 17,-42l0 -116c0,-16 -5,-30 -16,-41 -11,-11 -25,-17 -42,-17l-174 0zm146 -58c15,0 29,-5 41,-16 11,-11 17,-24 17,-42l0 -58c0,-16 -6,-30 -17,-41 -11,-11 -25,-17 -41,-17l-146 0 0 175 146 -1zm607 232c0,32 -11,59 -34,82 -23,22 -50,34 -82,34l-116 0c-31,0 -58,-12 -81,-34 -23,-22 -34,-50 -34,-82l0 -348c0,-32 11,-59 33,-82 23,-22 50,-33 82,-33l116 0c32,0 60,11 82,33 23,23 34,50 34,82l0 348zm-58 0l0 -348c0,-16 -5,-30 -16,-41 -11,-11 -25,-17 -42,-17l-116 0c-16,0 -30,6 -41,17 -6,5 -10,12 -13,19 -2,7 -4,14 -4,22l0 348c0,16 6,30 17,42 6,5 12,9 19,12 8,3 15,4 22,4l116 0c16,0 30,-5 41,-16 12,-11 17,-25 17,-42zm452 -521l-116 0c-9,0 -16,-3 -22,-8 -5,-6 -7,-13 -7,-21 0,-6 2,-13 7,-19 5,-6 12,-10 22,-10l116 0c7,0 14,3 20,9 6,6 8,13 8,20 0,7 -2,13 -7,20 -5,6 -12,9 -21,9zm115 608c0,9 -3,16 -8,22 -5,4 -12,7 -21,7 -7,0 -14,-3 -20,-7 -6,-5 -8,-13 -8,-22l0 -409 -235 423c-4,6 -8,10 -13,14l-6 3c-2,1 -5,2 -9,3 -6,0 -12,-3 -20,-9 -4,-6 -7,-14 -7,-25l0 -521c0,-8 3,-15 9,-22 5,-5 12,-7 20,-7 7,0 14,2 20,7 6,5 9,12 9,22l0 409 235 -423c2,-4 6,-9 12,-14 5,-4 10,-6 16,-6 6,0 12,4 17,10 6,6 9,14 9,24l0 521zm-3284 625c16,10 29,23 40,41 10,18 15,37 15,58l0 115c0,32 -12,59 -34,82 -23,23 -50,34 -82,34l-202 0c-20,0 -29,-9 -29,-29l0 -521c0,-19 9,-29 29,-29l173 0c32,0 60,11 82,34 23,23 34,50 34,82l0 58c0,13 -2,26 -6,38 -4,13 -11,25 -20,37zm-235 41l0 232 174 0c16,0 30,-6 41,-17 12,-10 17,-24 17,-41l0 -116c0,-17 -5,-31 -16,-42 -11,-11 -25,-16 -42,-16l-174 0zm145 -58c16,0 30,-6 41,-16 12,-11 17,-25 17,-42l0 -58c0,-17 -5,-30 -16,-42 -11,-11 -25,-16 -42,-16l-145 0 0 174 145 0zm666 318c0,9 -2,17 -8,22 -5,5 -12,7 -21,7 -7,0 -14,-2 -20,-7 -6,-5 -8,-12 -8,-22l0 -521c0,-8 2,-15 8,-22 6,-4 13,-7 20,-7 8,0 14,2 21,7 5,5 8,12 8,22l0 521zm-348 -260l0 232 116 0c17,0 30,-6 42,-17 11,-10 17,-24 17,-41l0 -116c0,-17 -6,-31 -17,-42 -11,-11 -25,-16 -42,-16l-116 0zm0 -58l116 0c32,0 59,11 82,34 23,22 34,50 34,82l0 115c0,32 -11,59 -34,82 -22,23 -50,34 -82,34l-144 0c-20,0 -29,-9 -29,-29l0 -521c0,-8 2,-15 8,-22 6,-4 13,-7 20,-7 8,0 15,2 20,7 6,5 9,12 9,22l0 203zm521 58l0 232 174 0c16,0 30,-6 41,-17 11,-10 17,-24 17,-41l0 -116c0,-17 -5,-31 -16,-42 -11,-11 -25,-16 -42,-16l-174 0zm0 -58l174 0c31,0 58,11 81,34 23,22 35,50 35,82l0 115c0,32 -12,59 -34,82 -23,23 -50,34 -82,34l-203 0c-19,0 -29,-9 -29,-29l0 -521c0,-19 10,-29 29,-29l232 0c8,0 15,3 20,9 6,6 9,12 9,20 0,6 -3,13 -7,19 -5,6 -12,10 -22,10l-203 0 0 174zm753 231c0,32 -12,59 -34,82 -23,23 -50,34 -82,34l-116 0c-31,0 -58,-11 -81,-34 -23,-22 -35,-49 -35,-82l0 -347c0,-32 12,-60 34,-82 23,-23 50,-34 82,-34l116 0c32,0 59,11 82,34 22,23 34,50 34,82l0 347zm-58 1l0 -348c0,-17 -5,-30 -16,-42 -11,-11 -25,-16 -42,-16l-116 0c-16,0 -30,5 -41,16 -6,6 -10,12 -13,19 -3,7 -4,15 -4,23l0 348c0,16 6,30 17,41 5,5 12,9 18,12 9,3 16,5 23,5l116 0c16,0 30,-6 41,-17 11,-10 17,-24 17,-41zm277 -174l174 0c16,0 30,-6 41,-17 12,-10 17,-24 17,-41l0 -116c0,-17 -5,-30 -16,-42 -11,-11 -25,-16 -42,-16l-174 0 0 232zm0 57l0 203c0,9 -2,17 -8,22 -5,5 -12,7 -20,7 -8,0 -15,-2 -21,-7 -5,-5 -8,-12 -8,-22l0 -521c0,-19 9,-29 29,-29l202 0c32,0 60,11 82,34 23,22 34,50 34,82l0 115c0,32 -11,59 -34,82 -23,23 -50,34 -82,34l-174 0z"/>
  </g>
 </g>
</svg>
