<?xml version="1.0" encoding="UTF-8"?>
<!DOCTYPE svg PUBLIC "-//W3C//DTD SVG 1.0//EN" "http://www.w3.org/TR/2001/REC-SVG-20010904/DTD/svg10.dtd">
<!-- Creator: CorelDRAW X7 -->
<svg xmlns="http://www.w3.org/2000/svg" xml:space="preserve" width="200mm" height="200mm" version="1.0" style="shape-rendering:geometricPrecision; text-rendering:geometricPrecision; image-rendering:optimizeQuality; fill-rule:evenodd; clip-rule:evenodd"
viewBox="0 0 20000 20000"
 xmlns:xlink="http://www.w3.org/1999/xlink">
 <defs>
  <style type="text/css">
   <![CDATA[
    .str0 {stroke:#2E99A3;stroke-width:7.62}
    .str1 {stroke:#024541;stroke-width:150;stroke-linecap:round;stroke-linejoin:round}
    .str4 {stroke:#024541;stroke-width:118.73;stroke-linecap:round;stroke-linejoin:round}
    .str3 {stroke:#024541;stroke-width:150;stroke-linecap:round;stroke-linejoin:round}
    .str2 {stroke:#024541;stroke-width:150;stroke-linecap:round;stroke-linejoin:round}
    .str7 {stroke:#024541;stroke-width:78.6;stroke-linecap:round;stroke-linejoin:round}
    .str6 {stroke:#024541;stroke-width:99.3;stroke-linecap:round;stroke-linejoin:round}
    .str5 {stroke:#024541;stroke-width:99.3;stroke-linecap:round;stroke-linejoin:round}
    .fil16 {fill:none}
    .fil15 {fill:#FEFEFE}
    .fil13 {fill:#A75F4A}
    .fil18 {fill:#CC6F3C}
    .fil12 {fill:#B7B0A7}
    .fil19 {fill:#024541}
    .fil2 {fill:black}
    .fil20 {fill:#00315E}
    .fil24 {fill:#040303}
    .fil5 {fill:#121212}
    .fil25 {fill:#171619}
    .fil6 {fill:#2E99A3}
    .fil27 {fill:#393939}
    .fil23 {fill:#484B54}
    .fil7 {fill:#585858}
    .fil4 {fill:#6A6A6A}
    .fil3 {fill:#838383}
    .fil10 {fill:#9E9E9E}
    .fil26 {fill:#B4C3C3}
    .fil11 {fill:#BBBBBB}
    .fil8 {fill:#D1D1D1}
    .fil9 {fill:#E3E3E3}
    .fil1 {fill:#F4F4F4}
    .fil22 {fill:#FDFDFD}
    .fil17 {fill:#FFCA9C}
    .fil21 {fill:#4D897C;fill-rule:nonzero}
    .fil14 {fill:#024541;fill-rule:nonzero}
    .fil0 {fill:url(#id0)}
   ]]>
  </style>
  <radialGradient id="id0" gradientUnits="userSpaceOnUse" gradientTransform="matrix(1.41421 -0 -0 1.41421 -4142 -4142)" cx="10000" cy="10000" r="10000" fx="10000" fy="10000">
   <stop offset="0" style="stop-opacity:1; stop-color:#FEFEFE"/>
   <stop offset="0.439216" style="stop-opacity:1; stop-color:#FEFEFE"/>
   <stop offset="1" style="stop-opacity:1; stop-color:#D1E2F2"/>
  </radialGradient>
 </defs>
 <g id="Layer_x0020_1">
  <metadata id="CorelCorpID_0Corel-Layer"/>
  <path class="fil0" d="M0 0l20000 0 0 20000 -20000 0 0 -20000z"/>
  <path class="fil1" d="M2490 11676l6774 0 0 -9449 -6774 0 0 9449z"/>
  <path class="fil2" d="M7425 7723l-7 -2 0 1252 1564 0 4 -1483c-15,0 -13,-4 -8,11l2 222 -1555 0z"/>
  <path class="fil3" d="M8273 11110c2,129 48,-2 49,93 -55,-2 -122,15 -123,51l-58 -10c-44,-83 -98,-25 -136,-27 -1,0 -28,-15 -54,-15l-156 22c-1,2 -2,4 -3,6 -1,2 -4,10 -5,12l-132 13c-2,-61 -9,-38 -59,-53 0,-45 9,-58 -42,-58 -53,0 -43,13 -43,58 -43,12 -19,17 -45,10 -14,-4 -51,-6 -82,-6 -171,-1 -68,28 -110,64l1 -60c-56,-3 -134,-24 -187,5 -43,24 -9,2 -34,40l-127 -1c-16,-24 15,-74 -127,-44l9 57c0,1 2,3 2,3 0,1 1,3 1,4 5,14 -12,27 5,13 -40,-33 -1,-57 -68,-77 -42,15 -58,57 -59,93l-3 -31c1,-25 11,-32 11,-62l-228 -3c-2,62 -2,26 10,60 12,31 -16,15 7,36 -6,-20 -12,-40 -21,-59 -21,-43 -16,-33 -72,-34 -12,28 -31,64 -34,93 1,-1 1,-4 1,-3 0,1 0,-4 1,-4l0 -8c3,-27 14,-44 6,-78l-228 -3c0,36 7,40 14,69 4,18 -21,15 2,27l-33 -93 -59 1c-8,25 -23,67 -34,84l7 -27c0,-1 26,-12 -7,-53 -14,-13 -58,-12 -78,-10 -52,3 -47,10 -49,50 -790,-3 -1581,-9 -2371,-1l-70 2 17 64c6,60 4,49 -15,96l2523 -1c9,49 1,15 17,36 96,-4 20,-19 72,-36 28,-9 33,9 44,26 1,1 5,9 7,11 71,-9 34,-12 63,-38 25,1 84,-2 102,1 34,6 23,33 76,37l20 -27c15,-13 -13,-9 39,-10 20,20 6,40 50,35 61,-6 -24,-46 145,-35 61,8 -24,31 76,36 23,-23 7,-15 26,-37 87,8 4,5 63,32 47,21 44,-15 55,-32l77 1c13,21 20,47 67,37 48,-10 12,-20 68,-42 -26,32 -18,53 -8,97 43,24 103,34 158,20 68,-17 79,-40 70,-115 9,57 96,35 178,35 59,0 8,-34 50,-32 24,2 28,62 119,36 36,-11 27,-12 43,-37 13,12 22,25 34,38 69,4 54,-12 84,-38 54,40 -18,33 169,33l221 0c26,-69 32,-7 94,5l168 -5c19,-44 12,-32 127,-32l428 0c2,-29 13,-90 2,-121 -11,-32 2,-18 -32,-33 -11,19 -6,-1 -8,23 -1,7 1,18 2,29 2,23 4,45 1,68 -19,8 -49,9 -77,6l-258 2c-2,-19 -3,-40 -1,-60l19 -59 -222 1c-15,-50 3,-112 -15,-162 -28,-12 -102,-16 -127,1z"/>
  <path class="fil4" d="M7418 7721l7 2 2 -475 41 -37c62,-37 75,20 51,72 -25,52 -4,97 29,125 40,34 25,-8 48,39l26 -29c1,-1 6,-6 8,-8 5,30 2,22 20,41 32,-1 22,6 22,-16 12,34 31,48 30,72 -1,37 -21,33 -4,71 13,31 52,36 81,47 -4,-22 -5,1 0,-25 0,-1 9,-32 12,-42l-43 -8c7,-15 13,-36 16,-52 3,-15 9,-16 -14,-30 1,0 3,0 4,1 0,3 7,-1 7,-1 22,-18 1,31 17,-25 -2,-2 -6,-5 -8,-6l-8 -30c6,-24 9,-24 20,-61 2,-1 5,-3 6,-1 1,3 52,-22 66,-18 1,0 4,1 5,2 1,0 4,1 6,2 2,-14 -1,-19 -1,-20 -2,-11 -6,-10 -6,-10 28,-2 27,2 57,4 7,-27 23,-34 36,-51 37,19 -3,47 33,89l22 37c21,-10 16,-18 16,-18 22,-5 -19,-9 3,4l40 12c1,1 4,2 5,2l60 -20c2,-1 7,-5 8,-6l29 -6c82,-39 51,-33 67,-73 12,-32 12,-12 25,-48 12,-34 21,-41 15,-80 53,4 98,-18 97,27 0,16 12,8 -20,15 1,3 10,28 10,28 2,20 -13,31 -22,46l-5 10c-1,1 -2,4 -3,5 -1,2 -2,4 -2,6 -12,26 -7,39 -9,63l-4 34c17,12 11,14 32,13l46 -5c14,2 17,2 32,6 1,-1 1,-7 2,-5 0,0 -5,-11 19,-18 32,-9 17,8 43,-21 23,29 -4,9 3,49 0,3 1,5 1,8l8 23c101,24 40,-32 69,-89 9,-18 2,-9 15,-18 51,13 43,75 79,84 31,7 7,2 24,-5l19 -10c2,-1 4,-3 7,-4 8,35 11,10 19,17 49,41 -11,28 96,67 3,1 5,2 8,3 4,1 17,7 19,8 -3,-29 -3,-14 15,-25l23 -12c17,39 11,32 5,61 38,10 46,15 78,-7 -5,-15 -7,-11 8,-11l2 -746 -1574 2 4 975z"/>
  <path class="fil2" d="M7572 5798c-27,15 -3,-5 -18,19 -3,6 -1,9 -9,23 -42,0 -97,4 -127,-7l0 509 1566 0 1 -824 -20 2 -14 -23c2,42 -59,92 -99,128 -50,45 -142,204 -149,209l-811 5c-17,-2 -17,-4 -27,-7 -42,-11 -19,-2 -57,6l-65 -78c21,2 24,2 43,1l-174 23c-25,15 -5,12 -22,19 -23,8 -7,23 -18,-5z"/>
  <path class="fil5" d="M8485 10354l-406 1c9,-10 12,-10 21,-21 15,-19 5,-1 15,-24 -25,16 -37,26 -48,49 -49,-4 -193,18 -120,-41 29,-24 6,-7 13,-20 30,-56 72,-43 72,-43 34,-4 9,-20 55,-45l-17 -30c-10,18 -7,23 -15,34 -29,40 -17,8 -20,9 -10,2 5,-6 -10,3 0,0 -12,9 -13,11 -11,9 -13,11 -23,21 -15,16 -30,32 -43,48l-45 55c-38,0 -35,-6 -73,-2 1,-2 2,-5 3,-8l54 -140 -26 -18c-1,-1 -3,-2 -4,-3l-14 -16c-1,2 -8,12 -13,15l-13 5c-1,1 -45,4 -48,4 2,-2 4,-5 6,-6 2,-2 4,-5 6,-7l20 -16c-53,2 -25,1 -52,16 -6,2 7,4 -22,8 -25,4 -7,9 -15,-3 -18,-8 5,4 2,-35 -1,-14 -5,-31 -14,-44 -4,45 11,70 -35,73l-57 -33c2,53 3,48 -17,87 -35,70 -6,45 -41,61 -14,-31 -7,-7 -8,-35l-1 -36c-29,-11 -11,-13 -28,15 -5,9 -15,33 -19,43 -30,78 -18,57 -47,69l-17 -3 -11 -3 1 392 1568 0 0 -391c-46,24 -49,9 -95,5 -35,-4 -185,8 -256,-8 28,7 10,15 22,-26 8,-30 42,-216 31,-259 -13,-49 -6,-35 -17,-16 5,65 -14,120 -29,173 -14,52 -48,95 -61,137l-96 -2z"/>
  <path class="fil6 str0" d="M3914 4394l252 0 55 -240 267 -1 31 118c9,41 17,84 26,123l286 0 -309 -1125 -295 0 -313 1125z"/>
  <path class="fil7" d="M7417 10349l11 3 -1 -977 986 -3c-57,24 -58,-12 -127,65 -26,29 1,16 -37,33 -53,20 -207,-68 -243,84 -20,84 4,273 15,359l40 -25c67,-35 54,18 130,-2 -35,-19 -56,6 -76,-84 -7,-31 -16,-128 -10,-166l-24 -9c6,-22 12,-41 20,-56 -7,51 13,69 71,76 45,-20 -33,25 10,-9 38,-29 114,-18 115,-18 15,23 1,17 20,47 16,25 22,15 24,53 7,-2 23,0 34,-8 2,-33 0,-43 34,-51 -5,52 17,19 -15,89 -17,39 -10,44 51,110 15,16 24,15 47,23 45,13 49,22 83,54 8,7 13,11 19,15l36 29c30,34 24,33 41,65 11,-19 4,-33 17,16 11,43 -23,229 -31,259 -12,41 6,33 -22,26 71,16 221,4 256,8 46,4 49,19 95,-5l2 -992 -1575 2 4 989z"/>
  <path class="fil7" d="M7418 5833c30,11 85,7 127,7 8,-14 6,-17 9,-23 15,-24 -9,-4 18,-19l-5 -51c49,-23 -4,-29 54,-11l-18 29c122,-35 -5,-16 162,-23 30,-2 64,-7 92,-3 52,7 -7,13 93,3 3,-12 4,-20 5,-44 1,-73 -3,-2 -15,-59 17,-11 40,-38 35,-55l-11 -17c36,5 28,14 44,0l27 -38c-24,-19 -5,21 -27,-45l-5 -14c-23,-46 -49,-8 -77,-91l-25 -57c28,-16 36,-9 77,-13 -30,16 -19,18 -21,24 -3,15 24,-3 -13,6l18 40c0,0 -3,1 -4,2l-9 4c2,2 5,1 6,4l41 18c-9,4 -7,7 -19,9 -31,5 -7,-13 -22,3 18,17 11,10 34,20 10,5 15,6 23,11l33 17c-6,-12 -24,-51 -24,-53 0,-1 10,-15 6,-20l-25 -19c-1,-3 -4,-1 -7,-1l26 -40c25,17 -12,15 27,13l19 -83c8,-44 1,-34 20,-46 36,18 12,25 29,62 58,-131 -8,-79 -37,-73 4,-24 7,-35 -3,-57 -39,5 -59,39 -62,35 -2,-2 -6,4 -9,5 5,-52 -12,19 -27,-33 18,-9 -13,-12 38,7 -2,-43 11,-42 20,-80 -17,-11 -11,14 -21,-54 -8,-60 -26,-14 -19,-87 18,31 14,43 15,45 1,-2 2,-4 3,-6l5 -13c3,-22 -9,-43 -5,-97 75,-3 162,7 235,-6 68,5 107,-6 177,0 84,7 513,20 545,0 27,93 5,91 3,172 -3,179 16,247 -6,469l-3 13 20 -2 1 -659 -1568 2 0 972z"/>
  <path class="fil6 str0" d="M5603 4394l719 0 -1 -197 -435 -2 0 -277c70,-4 287,15 329,-8 18,-38 6,-129 4,-179l-334 -5 1 -256 434 -2 1 -195 -717 -4 -1 1125z"/>
  <path class="fil6 str0" d="M4793 3565l237 33c13,-173 192,-181 224,-79 22,68 -7,141 -42,168 -48,36 -128,30 -198,31l0 186c167,-6 296,31 255,221 -14,65 -79,100 -159,80 -70,-17 -77,-74 -91,-155l-248 40c18,151 86,243 197,291 112,48 318,39 425,-5 114,-48 179,-155 179,-312 1,-166 -83,-237 -235,-263 28,-17 98,-20 146,-80 102,-128 101,-354 -116,-442 -204,-82 -560,-7 -574,286z"/>
  <path class="fil8" d="M7425 7723l1555 0 -2 -222c-32,22 -40,17 -78,7 6,-29 12,-22 -5,-61l-23 12c-18,11 -18,-4 -15,25 -2,-1 -15,-7 -19,-8 -3,-1 -5,-2 -8,-3 -107,-39 -47,-26 -96,-67 -8,-7 -11,18 -19,-17 -3,1 -5,3 -7,4l-19 10c-17,7 7,12 -24,5 -36,-9 -28,-71 -79,-84 -13,9 -6,0 -15,18 -29,57 32,113 -69,89l-8 -23c0,-3 -1,-5 -1,-8 -7,-40 20,-20 -3,-49 -26,29 -11,12 -43,21 -24,7 -19,18 -19,18 -1,-2 -1,4 -2,5 -15,-4 -18,-4 -32,-6l-46 5c-21,1 -15,-1 -32,-13l4 -34c2,-24 -3,-37 9,-63 0,-2 1,-4 2,-6 1,-1 2,-4 3,-5l5 -10c9,-15 24,-26 22,-46 0,0 -9,-25 -10,-28 32,-7 20,1 20,-15 1,-45 -44,-23 -97,-27 6,39 -3,46 -15,80 -13,36 -13,16 -25,48 -16,40 15,34 -67,73l-29 6c-1,1 -6,5 -8,6l-60 20c-1,0 -4,-1 -5,-2l-40 -12c-22,-13 19,-9 -3,-4 0,0 5,8 -16,18l-22 -37c-36,-42 4,-70 -33,-89 -13,17 -29,24 -36,51 -30,-2 -29,-6 -57,-4 0,0 4,-1 6,10 0,1 3,6 1,20 -2,-1 -5,-2 -6,-2 -1,-1 -4,-2 -5,-2 -14,-4 -65,21 -66,18 -1,-2 -4,0 -6,1 -11,37 -14,37 -20,61l8 30c2,1 6,4 8,6 -16,56 5,7 -17,25 0,0 -7,4 -7,1 -1,-1 -3,-1 -4,-1 23,14 17,15 14,30 -3,16 -9,37 -16,52l43 8c-3,10 -12,41 -12,42 -5,26 -4,3 0,25 -29,-11 -68,-16 -81,-47 -17,-38 3,-34 4,-71 1,-24 -18,-38 -30,-72 0,22 10,15 -22,16 -18,-19 -15,-11 -20,-41 -2,2 -7,7 -8,8l-26 29c-23,-47 -8,-5 -48,-39 -33,-28 -54,-73 -29,-125 24,-52 11,-109 -51,-72l-41 37 -2 475z"/>
  <path class="fil9" d="M8694 7138c12,47 10,19 17,31l2 -27c0,-1 -2,-3 -2,-4 0,-1 -3,-5 -4,-7 -13,-34 11,4 -22,-65 -14,-30 -6,4 -2,-13l5 -9c-33,1 -50,15 -66,52 -8,-45 -9,0 -8,-16 0,-22 7,21 9,-37 -3,-1 -18,-5 -20,-5 -25,-5 -6,-1 -13,-2 1,-99 14,-63 -18,-84 11,-34 12,1 11,-27 -1,-21 6,-10 -17,-21 -36,-17 -42,10 -45,-40 -2,2 -4,2 -5,6l-20 19c-21,-42 9,-11 -33,-33 7,-17 -4,1 8,-11l11 -10c1,-1 4,-3 6,-5 -53,0 -22,-1 -34,-9 -2,-1 -3,-3 -5,-4l-80 -43c55,0 138,3 181,-14l-1124 -2 1 414c13,-34 31,-41 60,-52l42 -5c21,3 36,-1 47,26 1,2 3,8 4,10l34 71 -23 86c-19,33 10,-6 -9,13l32 32c20,15 -6,14 33,14 -1,1 -24,19 -3,-2 4,-3 -3,-1 10,-7 18,-8 2,-3 17,-5 29,-2 11,3 10,5 8,-53 6,-9 11,-31 1,-2 2,-4 2,-6 1,-3 1,-5 2,-7 5,-40 -14,-33 -22,-69 -16,-76 5,2 9,-52l-1 -47c5,-34 39,-51 71,-50l9 2c25,-5 10,-16 29,-29 66,43 34,36 29,43 15,-29 -2,-9 21,-27l42 25c-1,8 -6,28 -6,36 1,24 14,47 29,65 20,26 12,14 28,15 8,-10 27,-42 25,-59l-2 -80c64,13 36,-15 90,-36 20,-8 52,9 71,18 16,8 29,30 32,44 2,10 15,52 3,81 -12,28 -6,31 -1,62l-82 21c-3,0 -16,0 -18,1 -35,1 -12,-17 -38,11l14 28 118 5c22,-53 -16,-15 36,-40 -10,-28 -4,-40 6,-60l36 -109c0,-1 16,-22 16,-23l5 -34c38,6 38,-8 49,41l36 -17c2,-1 8,-6 9,-6 1,-1 6,-2 10,-1l34 30c20,-39 16,-18 68,-15 -10,24 -9,13 -20,30 -17,27 -27,113 -38,148 -9,25 -23,36 -23,50 4,17 32,13 89,32l-11 -31c19,3 53,18 44,-11l-12 -24c34,1 25,-9 20,-28l6 -48c-35,-21 -18,-11 -18,-36l-7 -74c55,-10 -8,0 38,-26 29,15 30,23 31,55l1 74c24,-23 2,-5 24,-11l19 -8c10,-12 -4,6 4,-23l50 -68c17,-23 -1,-11 23,-17 16,36 15,24 5,57 8,5 3,5 18,9z"/>
  <path class="fil8" d="M7428 10352l17 3c-1,-16 -52,-152 24,-186 -64,-70 59,-71 113,-77l183 -39c83,-7 29,47 119,-2 22,-12 25,-5 42,-17l32 -44c21,-30 35,-59 63,-77 -11,-86 -35,-275 -15,-359 36,-152 190,-64 243,-84 38,-17 11,-4 37,-33 69,-77 70,-41 127,-65l-986 3 1 977z"/>
  <path class="fil6 str0" d="M6360 3480l223 0 1 911 286 4 0 -912 228 -3 0 -211 -737 0 -1 211z"/>
  <path class="fil6 str0" d="M3429 4394l281 0 0 -925 420 0 3 -201 -705 1 1 1125z"/>
  <path class="fil3" d="M8036 5084c-9,38 -22,37 -20,80 -51,-19 -20,-16 -38,-7 15,52 32,-19 27,33 3,-1 7,-7 9,-5 3,4 23,-30 62,-35 10,22 7,33 3,57 29,-6 95,-58 37,73 -17,-37 7,-44 -29,-62 -19,12 -12,2 -20,46l-19 83c-39,2 -2,4 -27,-13l-26 40c3,0 6,-2 7,1l25 19 3 -25c28,44 12,16 46,-8 3,32 10,32 -2,58 1,-1 3,-5 3,-4l11 -20c21,-33 -9,-12 33,-27l7 17c18,60 -10,14 22,62 1,1 3,4 4,6l-14 18c-23,35 -27,51 -5,87l82 -20c1,-1 11,-3 13,-3l25 17 -5 -48c15,6 29,33 49,-1 42,-72 -87,-5 -31,-174 -37,5 -45,15 -73,27l-42 7c-29,-13 2,12 -15,-12 5,-83 1,-11 21,-45 6,-11 10,-102 62,-133 8,-5 29,-8 45,-15 32,-15 3,-21 46,-16 26,4 7,17 51,9 46,-8 -1,-9 44,-17 -8,29 -13,27 2,51 68,3 20,3 34,-36 45,28 7,10 39,49 -37,22 -40,24 -58,69 2,1 6,0 7,3 0,1 47,23 68,17 36,-9 5,-2 20,-12 14,-9 -19,-8 19,-11 40,-3 -20,-7 39,22 1,0 3,1 4,1l5 4c2,-2 4,-8 5,-6l29 -40c42,15 13,7 35,-4 14,-7 6,-2 20,-8 57,-21 3,-5 56,2 36,4 61,17 97,34 2,1 -1,-11 19,0 39,20 -1,7 43,57 28,32 17,17 22,41 1,14 10,59 11,66 4,22 -11,3 10,21 19,16 9,5 11,5l10 2c-9,12 -15,24 -29,34l26 2 14 23 3 -13c22,-222 3,-290 6,-469 2,-81 24,-79 -3,-172 -32,20 -461,7 -545,0 -70,-6 -109,5 -177,0 18,30 1,-3 16,19l25 52 -26 0c10,27 25,44 20,73 -6,28 -27,47 -34,62 -13,27 17,11 -19,42 -46,29 -80,-20 -122,-12 -23,5 -11,31 -61,-9 -7,-5 6,14 -12,-9z"/>
  <path class="fil10" d="M8021 9913c-28,18 -42,47 -63,77l-32 44c-17,12 -20,5 -42,17 -90,49 -36,-5 -119,2l-183 39c-54,6 -177,7 -113,77 -76,34 -25,170 -24,186 29,-12 17,9 47,-69 4,-10 14,-34 19,-43 17,-28 -1,-26 28,-15l1 36c1,28 -6,4 8,35 35,-16 6,9 41,-61 20,-39 19,-34 17,-87l57 33c46,-3 31,-28 35,-73 9,13 13,30 14,44 3,39 -20,27 -2,35 8,12 -10,7 15,3 29,-4 16,-6 22,-8 27,-15 -1,-14 52,-16l-20 16c-2,2 -4,5 -6,7 -2,1 -4,4 -6,6 3,0 47,-3 48,-4l13 -5c5,-3 12,-13 13,-15l14 16c1,1 3,2 4,3l26 18 -54 140c-1,3 -2,6 -3,8 38,-4 35,2 73,2l45 -55c13,-16 28,-32 43,-48 10,-10 12,-12 23,-21 1,-2 13,-11 13,-11 15,-9 0,-1 10,-3 3,-1 -9,31 20,-9 8,-11 5,-16 15,-34l17 30c-46,25 -21,41 -55,45 0,0 -42,-13 -72,43 -7,13 16,-4 -13,20 -73,59 71,37 120,41 11,-23 23,-33 48,-49 -10,23 0,5 -15,24 -9,11 -12,11 -21,21l406 -1c11,-60 21,-78 2,-86 -20,-7 12,-12 -27,14 -3,1 -6,4 -9,5 2,-36 6,-34 8,-59 1,1 1,2 1,3 -1,0 -1,2 -1,2 -24,11 -21,-14 -34,-17l-27 -18c0,-13 -7,-2 2,-12 -10,15 -33,33 -22,52l20 20c-35,-1 -18,0 -26,7 -10,9 -4,0 -3,22 3,82 13,34 -28,51 6,-141 11,-72 25,-152 -55,-15 -29,-33 -60,-73l-13 -49c-7,-32 10,-10 -16,-35 -15,-13 -24,-12 -40,-19 49,-35 -10,-61 51,-76l-12 -12c-19,-21 -1,5 -6,-7l25 2c-18,-5 -14,-9 -24,-15l-36 -28c70,-25 22,-16 38,-10 -3,-1 -13,-9 -17,-17 -25,11 -63,15 -93,7l23 -51c18,-16 40,-19 40,-13l6 9c3,3 4,6 20,15 46,26 22,5 47,42 -26,-27 -10,-18 5,-36l20 -14c35,-24 23,-64 17,-86 -2,-38 -8,-28 -24,-53 -19,-30 -5,-24 -20,-47 -1,0 -77,-11 -115,18 -43,34 35,-11 -10,9 -58,-7 -78,-25 -71,-76 -8,15 -14,34 -20,56l24 9c-6,38 3,135 10,166 20,90 41,65 76,84 -76,20 -63,-33 -130,2l-40 25z"/>
  <path class="fil11" d="M7572 5798c11,28 -5,13 18,5 17,-7 -3,-4 22,-19l174 -23c-19,1 -22,1 -43,-1l65 78c38,-8 15,-17 57,-6 10,3 10,5 27,7l811 -5c7,-5 99,-164 149,-209 40,-36 101,-86 99,-128l-26 -2c-14,7 -46,5 -75,17 -55,22 -89,99 -179,124 -15,-19 -8,-16 -21,-31l23 -9c-34,-6 -15,9 -25,-18 -15,-25 16,-1 -28,-18 -27,42 -77,8 -134,25 -38,11 -18,13 -68,16 -26,2 -58,1 -84,4 -27,3 -47,13 -77,16 -29,2 -54,-3 -85,-1l-127 25c-1,-2 -4,1 -6,1l5 -33c13,-37 8,19 10,-34 1,-8 -9,-68 -9,-72 17,-14 40,-22 59,-25 -12,-46 -15,-1 -30,-63 12,-26 5,-26 2,-58 -34,24 -18,52 -46,8l-3 25c4,5 -6,19 -6,20 0,2 18,41 24,53l-33 -17c-8,-5 -13,-6 -23,-11 -23,-10 -16,-3 -34,-20 15,-16 -9,2 22,-3 12,-2 10,-5 19,-9l-41 -18c-1,-3 -4,-2 -6,-4l9 -4c1,-1 4,-2 4,-2l-18 -40c37,-9 10,9 13,-6 2,-6 -9,-8 21,-24 -41,4 -49,-3 -77,13l25 57c28,83 54,45 77,91l5 14c22,66 3,26 27,45l-27 38c-16,14 -8,5 -44,0l11 17c5,17 -18,44 -35,55 12,57 16,-14 15,59 -1,24 -2,32 -5,44 -100,10 -41,4 -93,-3 -28,-4 -62,1 -92,3 -167,7 -40,-12 -162,23l18 -29c-58,-18 -5,-12 -54,11l5 51z"/>
  <path class="fil11" d="M7517 5162l69 -11 -5 44c-6,-14 -4,-12 -12,-19 -14,-14 -3,-8 -24,-14l-18 25c-11,14 -5,1 -7,18 -1,8 0,22 2,33 59,-10 12,24 48,-9l8 20c4,12 -1,6 9,23l85 -12c-11,28 -36,52 -31,26 9,20 1,-5 40,2 2,0 5,1 7,2 2,0 5,1 7,2l-13 7c-41,12 6,3 -21,5 -7,0 -39,-2 -48,-3 10,33 5,21 19,35l-15 12c-19,11 4,8 -30,13 41,27 22,12 23,57 1,18 6,37 -6,51 -21,-27 -12,-59 -28,-90 -4,65 5,224 -15,286 9,3 20,6 27,15 2,2 3,4 4,6l12 37 48 -2c2,0 2,-6 2,-5 4,12 -7,-25 27,-41l10 24c8,25 -8,5 6,25 63,1 11,-10 43,-45 21,17 4,37 34,53 24,-13 7,3 18,-21 2,-2 2,-19 5,-28 38,-6 16,-4 53,-18l25 59 55 -11c-6,-68 -39,-155 2,-219 25,-38 19,2 3,-23 -28,-45 20,15 -17,-18 -49,23 2,5 -39,37l-6 -187c-40,-14 -10,-2 -38,-6l-44 -13 0 -42c22,33 91,35 98,-18l-6 -130c-20,0 -41,-2 -62,-4l-42 -10c11,-82 6,34 24,-33 -1,-1 -8,-1 -10,-2 -55,-34 -2,14 -18,-17l26 -11c1,0 4,-1 5,-1 0,0 3,1 3,1 2,0 5,4 7,6 24,-38 8,-8 2,-38l-8 -34c-12,-29 -6,-15 -14,-16l43 18c-21,-23 -22,-13 -34,-35 -23,-40 -19,-6 5,-36 -39,13 -16,12 -53,6 -7,34 15,19 -23,36 -52,23 -3,2 -47,-5 -34,-6 -66,3 -83,29 -11,-13 -12,-30 -30,-39l-34 -36c-25,112 -17,184 -23,289z"/>
  <path class="fil4" d="M8074 5419c15,62 18,17 30,63 -19,3 -42,11 -59,25 0,4 10,64 9,72 -2,53 3,-3 -10,34l-5 33c2,0 5,-3 6,-1l127 -25c31,-2 56,3 85,1 30,-3 50,-13 77,-16 26,-3 58,-2 84,-4 50,-3 30,-5 68,-16 57,-17 107,17 134,-25 44,17 13,-7 28,18 -5,-13 -2,-6 -9,-16l-12 -16c48,-12 17,13 56,-21 24,-22 36,-18 52,-35 -23,5 -23,9 -37,30l-30 42c-1,-2 -4,6 -5,9 79,-14 100,-62 102,-130 80,-24 48,-67 23,-74 -53,-15 -11,20 -48,8 -22,-6 -27,-21 -33,-41 16,-12 -12,-4 27,-15 32,-9 103,55 107,78 0,1 -1,9 -1,12 7,-17 6,-65 5,-71 24,16 2,-1 15,19 21,32 -12,-9 9,16 -1,-8 -6,-26 5,-43 7,28 27,62 28,77 -3,-65 -10,-19 10,-40 -5,-24 6,-9 -22,-41 -44,-50 -4,-37 -43,-57 -20,-11 -17,1 -19,0 -36,-17 -61,-30 -97,-34 -53,-7 1,-23 -56,-2 -14,6 -6,1 -20,8 -22,11 7,19 -35,4l-29 40c-1,-2 -3,4 -5,6l-5 -4c-1,0 -3,-1 -4,-1 -59,-29 1,-25 -39,-22 -38,3 -5,2 -19,11 -15,10 16,3 -20,12 -21,6 -68,-16 -68,-17 -1,-3 -5,-2 -7,-3 18,-45 21,-47 58,-69 -32,-39 6,-21 -39,-49 -14,39 34,39 -34,36 -15,-24 -10,-22 -2,-51 -45,8 2,9 -44,17 -44,8 -25,-5 -51,-9 -43,-5 -14,1 -46,16 -16,7 -37,10 -45,15 -52,31 -56,122 -62,133 -20,34 -16,-38 -21,45 17,24 -14,-1 15,12l42 -7c28,-12 36,-22 73,-27 -56,169 73,102 31,174 -20,34 -34,7 -49,1l5 48 -25 -17c-2,0 -12,2 -13,3l-82 20c-22,-36 -18,-52 5,-87l14 -18c-1,-2 -3,-5 -4,-6 -32,-48 -4,-2 -22,-62l-7 -17c-42,15 -12,-6 -33,27l-11 20c0,-1 -2,3 -3,4z"/>
  <path class="fil11" d="M8694 7138c-10,44 22,26 -56,42 15,48 5,21 -29,64l-13 17c-1,2 -9,10 -10,12 73,-20 4,44 76,23l14 21c17,18 -1,5 21,17 1,0 3,-4 4,-3l32 -74c6,-22 21,14 -1,-51l50 2c-29,-35 17,-35 44,-36 -6,-5 -22,-2 7,-27 40,-36 -32,23 16,-10 25,16 -20,-15 11,10l18 13c10,6 9,3 17,7 29,17 15,16 32,31 14,12 30,8 55,1l-10 -434 -422 -3c-43,17 -126,14 -181,14l80 43c2,1 3,3 5,4 12,8 -19,9 34,9 -2,2 -5,4 -6,5l-11 10c-12,12 -1,-6 -8,11 42,22 12,-9 33,33l20 -19c1,-4 3,-4 5,-6 3,50 9,23 45,40 23,11 16,0 17,21 1,28 0,-7 -11,27 32,21 19,-15 18,84 7,1 -12,-3 13,2 2,0 17,4 20,5 -2,58 -9,15 -9,37 -1,16 0,-29 8,16 16,-37 33,-51 66,-52l-5 9c-4,17 -12,-17 2,13 33,69 9,31 22,65 1,2 4,6 4,7 0,1 2,3 2,4l-2 27c-7,-12 -5,16 -17,-31z"/>
  <path class="fil3" d="M8341 9720c6,22 18,62 -17,86l-20 14c-15,18 -31,9 -5,36 -25,-37 -1,-16 -47,-42 -16,-9 -17,-12 -20,-15l-6 -9c0,-6 -22,-3 -40,13l-23 51c30,8 68,4 93,-7 4,8 14,16 17,17 -16,-6 32,-15 -38,10l36 28c10,6 6,10 24,15l-25 -2c5,12 -13,-14 6,7l12 12c-61,15 -2,41 -51,76 16,7 25,6 40,19 26,25 9,3 16,35l13 49c31,40 5,58 60,73 -14,80 -19,11 -25,152 41,-17 31,31 28,-51 -1,-22 -7,-13 3,-22 8,-7 -9,-8 26,-7l-20 -20c-11,-19 12,-37 22,-52 -9,10 -2,-1 -2,12l27 18c13,3 10,28 34,17 0,0 0,-2 1,-2 0,-1 0,-2 -1,-3 -2,25 -6,23 -8,59 3,-1 6,-4 9,-5 39,-26 7,-21 27,-14 19,8 9,26 -2,86l96 2c13,-42 47,-85 61,-137 15,-53 34,-108 29,-173 -17,-32 -11,-31 -41,-65l-36 -29c-6,-4 -11,-8 -19,-15 -34,-32 -38,-41 -83,-54 -23,-8 -32,-7 -47,-23 -61,-66 -68,-71 -51,-110 32,-70 10,-37 15,-89 -34,8 -32,18 -34,51 -11,8 -27,6 -34,8z"/>
  <path class="fil1" d="M4715 2989l325 0 0 -427 -325 -1 0 428z"/>
  <path class="fil1" d="M6010 2990l320 0 1 -225 -320 1 -1 224z"/>
  <path class="fil1" d="M3420 2989l321 0 1 -219 -322 -4 0 223z"/>
  <path class="fil11" d="M8036 5084c18,23 5,4 12,9 50,40 38,14 61,9 42,-8 76,41 122,12 36,-31 6,-15 19,-42 7,-15 28,-34 34,-62 5,-29 -10,-46 -20,-73l26 0 -25 -52c-15,-22 2,11 -16,-19 -73,13 -160,3 -235,6 -4,54 8,75 5,97l-5 13c-1,2 -2,4 -3,6 -1,-2 3,-14 -15,-45 -7,73 11,27 19,87 10,68 4,43 21,54z"/>
  <path class="fil3" d="M3159 11249l17 33c-11,-5 -25,-10 -42,-7 -25,6 -9,2 -24,12l-20 16c-15,15 -19,23 -28,40 -23,44 -21,69 33,77 20,3 41,2 61,-1 44,-7 67,-2 114,-7 -12,-25 -31,-20 -28,-49 6,-43 35,0 61,-76 20,4 31,4 46,16 -22,31 23,-1 -14,6 -16,3 -35,-12 -34,43 5,134 192,104 173,-30 -11,-76 -60,-111 -135,-67 -51,29 21,-3 -87,-1 -63,2 -34,11 -93,-5z"/>
  <path class="fil1" d="M4253 3970l202 -1c1,-40 -38,-176 -51,-226 -8,-29 -47,-220 -51,-228 -4,9 -100,445 -100,455z"/>
  <path class="fil3" d="M2679 11411c62,14 111,-8 163,9 58,20 36,5 83,-5 27,-5 55,1 90,-3 3,-26 5,-41 9,-67 5,-30 12,-51 0,-75l-34 0c-15,19 -5,-1 -11,25 -12,51 22,97 -69,110l27 -99 -40 -19 -9 17c-1,2 -5,9 -7,10l-10 10c0,1 -2,2 -3,2l-5 3c8,-18 10,-15 8,-32 0,-2 -1,-5 -1,-6 -1,-2 -2,-4 -2,-6l-13 -25c-20,12 -27,10 -46,23 2,-2 9,-5 10,-7l9 -13c2,-3 3,-6 5,-9 1,-3 3,-6 5,-10 -85,28 -53,1 -156,14l-3 153z"/>
  <path class="fil2" d="M8648 5578c10,27 -9,12 25,18l-23 9c13,15 6,12 21,31 90,-25 124,-102 179,-124 29,-12 61,-10 75,-17 14,-10 20,-22 29,-34l-10 -2c-2,0 8,11 -11,-5 -21,-18 -6,1 -10,-21 -1,-7 -10,-52 -11,-66 -20,21 -13,-25 -10,40 -1,-15 -21,-49 -28,-77 -11,17 -6,35 -5,43 -21,-25 12,16 -9,-16 -13,-20 9,-3 -15,-19 1,6 2,54 -5,71 0,-3 1,-11 1,-12 -4,-23 -75,-87 -107,-78 -39,11 -11,3 -27,15 6,20 11,35 33,41 37,12 -5,-23 48,-8 25,7 57,50 -23,74 -2,68 -23,116 -102,130 1,-3 4,-11 5,-9l30 -42c14,-21 14,-25 37,-30 -16,17 -28,13 -52,35 -39,34 -8,9 -56,21l12 16c7,10 4,3 9,16z"/>
  <path class="fil9" d="M7112 11346c-1,2 -4,2 -5,6l6 70c-163,50 119,132 135,30 12,-73 -97,-54 -116,-63 -31,-15 -15,3 -27,-35 74,-27 119,18 101,-110l43 0c-62,-34 -230,-6 -152,85l15 17z"/>
  <path class="fil12 str1" d="M7426 7507l0 777c0,323 -259,579 -575,579l-1185 0 0 1344 0 0 -2727 0 0 -1543c0,-323 259,-587 575,-587l462 0 631 1510 631 -1510 337 0 305 0c138,0 227,63 300,155 95,119 508,-104 508,78l0 -803 738 0z"/>
  <path class="fil12 str2" d="M4607 9707l-434 -443 0 -296 -357 -266 77 -624 83 0 631 1509 631 -1509 83 0 77 624 -357 266 0 296 -434 443z"/>
  <path class="fil13 str2" d="M4795 9138l-188 449 -191 -458 90 -618 101 0 101 0 87 627z"/>
  <g>
   <path class="fil13" d="M4805 8242l-396 0 97 269 101 0 101 0 97 -269z"/>
   <path id="1" class="fil14" d="M4409 8167l396 0 0 149 -396 0 -71 -49 71 -100zm0 149c-42,0 -75,-33 -75,-74 0,-41 33,-75 75,-75l0 149zm26 220l-97 -269 142 -50 97 269 -71 99 -71 -49zm142 -50c14,38 -7,81 -46,95 -39,13 -82,-7 -96,-45l142 -50zm30 99l-101 0 0 -149 101 0 0 0 0 149zm0 -149c42,0 75,34 75,75 0,41 -33,74 -75,74l0 -149zm101 149l-101 0 0 -149 101 0 71 100 -71 49zm0 -149c42,0 75,34 75,75 0,41 -33,74 -75,74l0 -149zm168 -169l-97 269 -141 -50 96 -269 71 -50 71 100zm-142 -50c14,-39 57,-59 96,-45 39,14 60,56 46,95l-142 -50z"/>
  </g>
  <path class="fil15 str2" d="M3976 8078l380 468 107 -153 -54 -151 -290 -383 -143 219z"/>
  <path class="fil16 str3" d="M3576 9307l0 900"/>
  <path class="fil16 str2" d="M4607 9587l0 620"/>
  <path class="fil17 str3" d="M4607 7825c217,1 977,-306 977,-816l0 -584c-130,-306 -40,-501 -198,-672 -156,66 -323,60 -499,4 -171,374 -815,211 -1058,-4 -159,171 -69,366 -199,672l0 584c0,510 760,817 977,816z"/>
  <path class="fil17 str3" d="M4805 8242l132 -174 0 -332c-137,58 -261,89 -330,89 -69,0 -193,-31 -330,-89l0 332 132 174 396 0z"/>
  <path class="fil15 str2" d="M5238 8078l-380 468 -107 -153 54 -151 290 -383 143 219z"/>
  <path class="fil18 str3" d="M4607 4894c-56,-10 -113,-16 -172,-16l0 0c-531,0 -966,435 -966,966l0 650c39,-42 97,-69 161,-69 130,-306 40,-501 199,-672 237,206 887,378 1058,4 176,56 343,62 499,-4 158,171 68,366 198,672 64,0 122,27 161,69l0 -650c0,-531 -434,-966 -966,-966l0 0c-58,0 -116,6 -172,16zm-1121 1882c27,142 86,272 167,385 -14,-49 -23,-99 -23,-152l0 -180c-55,0 -106,-20 -144,-53zm2098 53l0 180c0,53 -8,103 -23,152 82,-113 140,-243 167,-385 -38,33 -89,53 -144,53z"/>
  <path class="fil15 str3" d="M4277 7834l0 234 -158 -210 158 -24z"/>
  <path class="fil15 str3" d="M4937 7834l0 234 158 -210 -158 -24z"/>
  <path class="fil15 str3" d="M4818 9566l563 0 0 324 -563 0 0 -324z"/>
  <path class="fil19 str4" d="M5058 6513c-37,0 -68,31 -68,68 0,38 31,68 68,68 38,0 68,-30 68,-68 0,-37 -30,-68 -68,-68zm-902 0c37,0 68,31 68,68 0,38 -31,68 -68,68 -38,0 -68,-30 -68,-68 0,-37 30,-68 68,-68z"/>
  <path class="fil15 str3" d="M3416 6627c0,-111 96,-202 214,-202l0 202 0 202c-118,0 -214,-91 -214,-202zm2382 0c0,-111 -96,-202 -214,-202l0 202 0 202c118,0 214,-91 214,-202z"/>
  <path class="fil20 str3" d="M4754 7453c-36,41 -97,68 -166,68 -111,0 -200,-69 -200,-154 0,-30 11,-59 31,-83 81,83 199,144 335,169z"/>
  <path class="fil18 str3" d="M4239 7156c242,-134 480,-117 715,0 0,32 0,63 0,95 0,76 0,11 0,87 -238,0 -477,0 -715,0 0,-108 0,-74 0,-182z"/>
  <g>
   <path class="fil21" d="M2592 10280c-24,0 -43,-33 -43,-73 0,-39 19,-72 43,-72l0 145zm4399 0l-4399 0 0 -145 4399 0 0 145zm0 -145c24,0 43,33 43,72 0,40 -19,73 -43,73l0 -145z"/>
  </g>
  <path class="fil17 str3" d="M2592 10207l976 0c0,-47 0,-113 0,-157 0,-220 -101,-341 -250,-382 -91,-25 -237,-25 -322,26 -61,37 -111,101 -109,149 -101,-123 -299,-10 -299,200 0,29 4,112 4,164z"/>
  <g>
   <path class="fil17" d="M7119 6654l0 -355c270,-85 317,91 317,221l1 794c0,220 47,343 -233,338 -28,0 -130,0 -158,0 -243,1 -436,4 -436,-332 0,-79 -1,-428 0,-433 38,-216 240,-231 509,-233z"/>
   <path id="1" class="fil14" d="M7195 6299l0 355 -151 0 0 -355 52 -70 99 70zm-151 0c0,-41 34,-74 75,-74 42,0 76,33 76,74l-151 0zm468 220l-151 1 0 0 0 -11 -1 -11 0 -10 -1 -11 -2 -11 -1 -10 -2 -10 -2 -9 -3 -10 -3 -8 -3 -9 -4 -7 -3 -7 -4 -7 -5 -6 -4 -5 -5 -4 -4 -5 -6 -3 -6 -4 -6 -3 -7 -2 -8 -3 -10 -2 -11 -1 -12 0 -14 0 -15 1 -17 3 -18 3 -20 5 -22 6 -46 -140 28 -8 27 -7 26 -5 25 -4 24 -2 24 0 22 1 22 2 22 5 20 5 20 8 18 8 17 10 16 12 15 12 13 13 12 14 10 15 10 15 8 15 7 15 6 16 5 16 5 15 3 16 3 15 3 15 2 16 1 14 1 15 0 14 1 14 0 0zm0 0c0,41 -34,74 -76,74 -41,0 -75,-33 -75,-73l151 -1zm-151 795l0 -794 151 -1 0 795 0 0 -151 0zm151 0c0,41 -33,74 -75,74 -42,0 -75,-33 -76,-74l151 0zm-309 412l3 -148 0 0 23 1 20 -1 19 -1 17 -2 14 -2 12 -3 10 -3 8 -3 7 -3 5 -3 3 -2 3 -3 2 -2 2 -3 2 -4 2 -4 2 -6 2 -6 2 -9 1 -9 1 -11 1 -12 0 -13 1 -14 -1 -15 0 -16 0 -17 -1 -18 -1 -19 0 -19 0 -21 -1 -21 151 0 0 20 1 19 0 18 1 19 0 18 1 18 0 17 0 17 0 17 0 17 -1 17 -2 17 -3 16 -3 17 -5 17 -5 16 -8 17 -9 16 -12 15 -13 15 -14 13 -16 12 -18 10 -18 8 -20 7 -20 6 -21 5 -22 3 -24 3 -24 1 -26 1 -28 0 0 0zm0 0c-41,0 -75,-34 -74,-75 1,-41 35,-73 77,-73l-3 148zm-157 0l0 -148 0 0 3 0 3 0 3 0 4 0 5 0 4 0 5 0 5 0 6 0 5 0 6 0 6 0 6 0 6 0 6 0 6 0 6 0 6 0 6 0 6 0 6 0 6 0 5 0 6 0 5 0 5 0 5 0 4 0 4 0 4 0 4 0 3 0 -3 148 -2 0 -4 0 -3 0 -4 0 -4 0 -5 0 -5 0 -5 0 -5 0 -6 0 -5 0 -6 0 -6 0 -6 0 -6 0 -6 0 -6 0 -6 0 -6 0 -6 0 -6 0 -6 0 -5 0 -6 0 -5 0 -4 0 -5 0 -4 0 -4 0 -4 0 -3 0 -3 0 0 0zm0 0c-41,0 -75,-33 -75,-74 0,-40 33,-74 75,-74l0 148zm-512 -406l151 0 0 0 1 28 1 26 2 23 4 21 4 19 4 18 6 15 5 13 6 12 7 10 6 9 8 9 7 7 8 6 9 6 9 5 11 5 11 5 12 4 13 3 15 4 15 2 16 3 17 1 18 2 19 1 20 1 20 0 21 0 21 0 22 0 23 0 0 148 -22 0 -23 0 -22 0 -23 0 -22 -1 -22 -1 -22 -1 -22 -2 -21 -2 -22 -3 -21 -4 -21 -4 -21 -6 -21 -7 -20 -8 -20 -9 -19 -11 -19 -13 -17 -14 -17 -16 -16 -18 -14 -19 -13 -20 -11 -22 -10 -24 -8 -24 -7 -26 -6 -27 -4 -29 -3 -30 -2 -32 -1 -33 0 0zm0 0c0,-41 34,-74 76,-74 41,0 75,34 75,74l-151 0zm2 -445l148 24 0 0 1 -8 0 2 0 5 0 6 0 8 0 10 0 11 0 13 0 13 0 15 0 15 0 16 0 17 0 17 0 18 0 18 0 19 0 18 0 19 0 18 0 19 0 17 0 18 0 17 0 16 0 15 0 14 0 14 0 12 0 11 0 10 0 8 -151 0 0 -8 0 -10 0 -11 0 -12 0 -13 0 -15 0 -15 0 -16 0 -17 0 -17 0 -18 0 -19 0 -18 0 -18 0 -19 0 -18 0 -19 0 -18 0 -17 0 -17 0 -16 0 -15 0 -15 0 -14 0 -12 0 -11 0 -10 0 -9 0 -7 0 -5 0 -5 2 -11 0 0zm0 0c7,-41 46,-68 87,-61 41,7 68,45 61,85l-148 -24zm508 -221l151 0 -75 74 -25 0 -24 0 -24 1 -23 0 -22 1 -22 1 -21 1 -21 2 -20 2 -19 2 -18 3 -17 3 -17 3 -15 4 -15 4 -14 4 -13 5 -12 5 -11 6 -10 6 -9 6 -9 7 -7 7 -8 7 -6 8 -7 9 -5 10 -6 10 -4 12 -5 13 -4 14 -3 15 -148 -24 4 -24 7 -23 7 -22 9 -21 10 -20 11 -19 13 -18 14 -17 15 -16 16 -14 17 -13 17 -12 19 -10 18 -10 20 -8 20 -8 20 -6 20 -6 21 -5 22 -4 21 -4 23 -3 22 -3 23 -2 23 -2 23 -1 24 -1 24 -1 25 -1 24 -1 25 0 26 0 -75 74zm75 -74c41,0 75,33 76,73 0,41 -34,74 -75,75l-1 -148z"/>
  </g>
  <path class="fil22" d="M8770 18800l10499 0 0 -7383 -10499 0 0 7383z"/>
  <path class="fil23" d="M9519 17530c1,-4 -10,-16 31,-11 31,3 1,0 21,6 51,14 111,8 165,13 121,12 311,-10 412,12l967 33c189,0 359,11 550,0 183,-11 384,-5 568,-4 189,2 378,0 567,0 378,0 757,2 1135,0 377,-2 756,0 1134,0 372,1 767,-15 1135,-1 134,5 32,17 262,20 91,1 180,-8 279,-9 98,-1 340,-15 414,-7l329 -5c42,-11 -4,-16 53,-21 78,-8 205,-1 288,-1 64,-1 439,6 490,-11 2,0 0,-4 27,-7 11,-2 28,-1 40,-1 3,-32 4,-17 11,-49l23 23c2,2 4,5 6,7l10 -1c9,-10 8,-5 15,-25l9 -96c-18,-14 -24,-14 -50,-15 20,-56 -11,-46 43,-67 -49,-10 -23,-20 -23,-139 0,-56 0,-113 0,-169l0 -3674c0,-278 11,-1112 -9,-1328 -593,-12 -1192,-4 -1786,-4 -598,0 -1196,3 -1795,1 -1192,-3 -2390,14 -3581,1l-1338 0c-73,0 -146,1 -220,0 -75,-2 -166,-19 -181,46 -9,39 -9,4613 -2,5145 1,68 21,56 8,110 -9,33 2,14 9,67l-45 17c-5,41 -10,119 29,144z"/>
  <path class="fil24" d="M9625 12020c-113,-1 -81,128 -80,252l4 4964c54,32 112,9 186,8 53,0 261,10 317,-7 38,-13 111,-9 158,-10 30,-1 46,-12 76,-16l1092 -38c103,-2 459,2 547,-10 39,-6 62,-13 104,-13l1398 -18c55,0 142,33 170,-22 14,31 -4,11 20,33l0 -109c23,-3 51,-7 74,-2 46,9 4,-1 26,11 26,15 -8,4 19,11 13,3 19,0 30,4 42,11 33,29 33,91 -14,0 -68,-2 -79,1 -19,5 0,6 3,20 40,-10 75,-10 118,-9l183 -2c49,-5 33,15 78,6l9 -3c1,0 4,-1 4,-1 28,-6 9,10 48,-3l-125 -14c-8,1 -15,9 -36,9 -83,1 15,-19 -63,-3 -50,10 -44,-1 -98,-1l0 -51c-6,70 13,33 -25,51 -39,-18 -25,-39 -25,-93 70,0 61,11 118,3l85 0c33,-2 18,-4 42,5l-24 28c-2,1 -15,-2 -18,-2l42 0c0,18 -14,-34 76,-34 15,33 0,-3 50,0l27 6c2,0 5,1 8,2l12 -22c38,-39 -19,3 13,-12 22,10 20,13 26,37 17,-15 46,-7 68,-3l6 20c1,2 1,4 2,7 4,15 4,21 8,34l1067 1c184,6 367,20 551,17l399 14c18,6 -12,3 32,10 89,13 183,-3 272,1 46,1 12,10 135,15 32,1 35,9 61,15 52,11 250,3 303,2 109,0 239,16 347,17 59,1 128,-3 186,1 56,4 108,17 161,25 13,-16 8,-33 26,-39l18 50c12,-48 17,-59 70,-55 46,3 39,7 43,43 0,2 1,5 1,7 0,1 1,4 1,6 1,1 1,4 2,6l34 -40c80,1 154,3 222,20l31 4c31,2 67,1 98,1l9 -5152c0,-49 1,-35 -21,-78 -298,-16 -901,-1 -1237,-3l-7518 7z"/>
  <path class="fil23" d="M9911 12442c-16,1117 1,2248 -2,3369l2 1051c-1,30 -7,47 8,61 32,38 400,17 476,17 1176,9 2379,1 3556,0l3048 2c337,-1 681,7 1016,-3 37,-72 21,-1 24,-163 10,-447 -8,-932 1,-1388 4,-263 3,-533 -1,-796 -4,-262 11,-535 1,-796 -4,-129 -1,-268 2,-398 2,-131 -5,-265 -3,-398 2,-132 3,-265 0,-398 -4,-226 25,-185 -210,-184 -530,2 -1061,-3 -1592,1 -1057,7 -2118,-14 -3175,-2 -529,7 -1062,-7 -1591,1 -397,6 -799,-4 -1194,0l-297 0c-41,1 -43,3 -69,24z"/>
  <path class="fil25" d="M9519 17530c11,72 159,70 233,74 305,16 617,38 923,48l1226 58 -1 108c-19,10 -10,2 -23,7l-21 7c-1,1 -5,1 -7,3 0,0 -26,6 31,17 5,39 -4,55 19,73l-44 22c-29,14 -24,18 -51,43 -32,31 -2,25 -39,44l-20 9c-1,1 -4,2 -6,3l54 19c24,3 49,1 74,4 35,4 87,8 130,11 870,74 2258,76 3121,48 68,-3 960,-41 1047,-67 38,-12 12,2 34,-19 -102,-41 -35,-31 -97,-42 -54,-9 -81,-30 -110,-34 -36,-6 -179,36 -236,45 -739,121 -1911,118 -2668,90 -147,-6 -818,-54 -987,-109 -2,-1 -5,-2 -6,-3 -1,0 -4,-1 -6,-2 84,6 156,26 237,36 254,31 489,52 745,65 672,35 1440,19 2117,-22 192,-12 636,-62 824,-125 60,-20 40,-27 56,-84 25,8 -3,-6 11,9l18 24c1,-37 7,-31 7,-66 -26,5 -18,6 -21,7 -10,3 -4,5 -17,6 -23,-42 -20,-72 -18,-129 27,-12 243,-18 283,-19 234,-7 1902,-73 2015,-98 46,-10 86,-37 90,-75l-10 1c-2,-2 -4,-5 -6,-7l-23 -23c-7,32 -8,17 -11,49 -12,0 -29,-1 -40,1 -27,3 -25,7 -27,7 -51,17 -426,10 -490,11 -83,0 -210,-7 -288,1 -57,5 -11,10 -53,21l-329 5c-74,-8 -316,6 -414,7 -99,1 -188,10 -279,9 -230,-3 -128,-15 -262,-20 -368,-14 -763,2 -1135,1 -378,0 -757,-2 -1134,0 -378,2 -757,0 -1135,0 -189,0 -378,2 -567,0 -184,-1 -385,-7 -568,4 -191,11 -361,0 -550,0l-967 -33c-101,-22 -291,0 -412,-12 -54,-5 -114,1 -165,-13 -20,-6 10,-3 -21,-6 -41,-5 -30,7 -31,11z"/>
  <path class="fil26" d="M9580 17316c-24,64 92,51 172,51l2040 26c607,0 1214,2 1821,5 903,5 1821,-4 2726,-6l677 -5c66,-1 172,13 224,-9l1055 -13c49,-1 75,2 73,-47l-2181 -24c-736,-2 -1474,-3 -2210,-9 -735,-7 -1476,18 -2210,11 -364,-4 -728,4 -1092,9 -181,2 -361,2 -542,4 -177,2 -380,-5 -553,7z"/>
  <path class="fil27" d="M12741 18209c593,22 1169,32 1761,25l1007 -30c189,-8 588,-35 774,-71 121,-23 175,-34 182,-119 -171,25 -198,44 -396,64 -526,54 -840,65 -1381,70l-1541 -1c-461,-5 -840,-28 -1295,-70 -181,-17 -249,-48 -366,-67 -1,64 28,83 84,98 240,64 939,100 1171,101z"/>
  <g>
   <path class="fil12 str1" d="M15850 14625l0 515c0,213 -171,383 -381,383l-784 0 0 890 0 0 -1806 0 0 -1022c0,-213 172,-388 381,-388l306 0 418 999 418 -999 222 0 203 0c91,0 150,41 198,102 63,79 336,-69 336,52l0 -532 489 0z"/>
   <path class="fil12 str5" d="M13984 16081l-288 -293 0 -195 -236 -177 51 -413 55 0 418 999 418 -999 54 0 51 413 -236 177 0 195 -287 293z"/>
   <path class="fil13 str5" d="M14108 15705l-124 297 -127 -303 60 -409 67 0 67 0 57 415z"/>
   <g>
    <path class="fil13" d="M14115 15112l-262 0 64 178 67 0 67 0 64 -178z"/>
    <path id="1" class="fil14" d="M13853 15062l262 0 0 99 -262 0 -47 -33 47 -66zm0 99c-28,0 -50,-22 -50,-49 0,-27 22,-50 50,-50l0 99zm17 145l-64 -178 93 -33 65 178 -47 66 -47 -33zm94 -33c9,26 -5,54 -30,63 -26,9 -55,-4 -64,-30l94 -33zm20 66l-67 0 0 -99 67 0 0 0 0 99zm0 -99c27,0 49,22 49,50 0,27 -22,49 -49,49l0 -99zm67 99l-67 0 0 -99 67 0 47 66 -47 33zm0 -99c27,0 49,22 49,50 0,27 -22,49 -49,49l0 -99zm111 -112l-64 178 -94 -33 64 -178 47 -33 47 66zm-94 -33c9,-25 38,-39 64,-30 25,9 39,38 30,63l-94 -33z"/>
   </g>
   <path class="fil15 str5" d="M13566 15003l251 310 72 -101 -36 -100 -192 -254 -95 145z"/>
   <path class="fil16 str6" d="M13301 15817l0 596"/>
   <path class="fil16 str5" d="M13984 16002l0 411"/>
   <path class="fil17 str6" d="M13984 14836c143,0 646,-203 646,-540l0 -387c-85,-203 -26,-332 -131,-445 -103,44 -213,40 -330,3 -113,247 -540,140 -700,-3 -106,113 -46,242 -132,445l0 387c0,337 503,540 647,540z"/>
   <path class="fil17 str6" d="M14115 15112l87 -116 0 -219c-91,39 -173,59 -218,59 -46,0 -128,-20 -219,-59l0 219 88 116 262 0z"/>
   <path class="fil15 str5" d="M14402 15003l-252 310 -71 -101 36 -100 192 -254 95 145z"/>
   <path class="fil18 str6" d="M13984 12895c-37,-6 -75,-10 -114,-10l0 0c-352,0 -640,288 -640,640l0 430c26,-28 65,-46 107,-46 86,-203 26,-332 132,-445 156,136 587,250 700,3 117,37 227,41 330,-3 105,113 46,242 131,445 43,0 81,18 107,46l0 -430c0,-352 -287,-640 -639,-640l0 0c-39,0 -77,4 -114,10zm-742 1247c18,93 56,180 110,254 -9,-32 -15,-65 -15,-100l0 -120c-37,0 -70,-13 -95,-34zm1388 34l0 120c0,35 -5,68 -15,100 54,-74 93,-161 111,-254 -25,21 -59,34 -96,34z"/>
   <path class="fil15 str6" d="M13765 14842l0 154 -104 -138 104 -16z"/>
   <path class="fil15 str6" d="M14202 14842l0 154 105 -138 -105 -16z"/>
   <path class="fil15 str6" d="M14123 15988l373 0 0 215 -373 0 0 -215z"/>
   <path class="fil19 str7" d="M14282 13967c-24,0 -45,21 -45,45 0,25 21,45 45,45 25,0 45,-20 45,-45 0,-24 -20,-45 -45,-45zm-597 0c25,0 45,21 45,45 0,25 -20,45 -45,45 -25,0 -45,-20 -45,-45 0,-24 20,-45 45,-45z"/>
   <path class="fil15 str6" d="M13195 14043c0,-74 64,-134 142,-134l0 134 0 133c-78,0 -142,-59 -142,-133zm1577 0c0,-74 -63,-134 -142,-134l0 134 0 133c79,0 142,-59 142,-133z"/>
   <path class="fil20 str6" d="M14081 14589c-24,28 -64,46 -110,46 -73,0 -133,-46 -133,-102 0,-21 8,-40 22,-55 53,55 131,95 221,111z"/>
   <path class="fil18 str6" d="M13740 14393c160,-89 318,-77 474,0 0,21 0,42 0,63 0,50 0,7 0,57 -158,0 -316,0 -474,0 0,-71 0,-49 0,-120z"/>
   <g>
    <path class="fil21" d="M12650 16461c-16,0 -29,-22 -29,-48 0,-26 13,-48 29,-48l0 96zm2912 0l-2912 0 0 -96 2912 0 0 96zm0 -96c16,0 28,22 28,48 0,26 -12,48 -28,48l0 -96z"/>
   </g>
   <path class="fil17 str6" d="M12650 16413l646 0c0,-32 0,-75 0,-104 0,-146 -67,-226 -165,-253 -61,-17 -157,-17 -214,17 -40,25 -73,67 -72,99 -67,-82 -198,-7 -198,132 0,19 3,74 3,109z"/>
   <g>
    <path class="fil17" d="M15647 14060l0 -234c179,-57 210,60 210,146l0 526c0,145 31,226 -154,223 -19,0 -86,0 -105,0 -161,1 -289,3 -289,-219 1,-53 0,-284 1,-287 25,-143 159,-153 337,-155z"/>
    <path id="1" class="fil14" d="M15697 13826l0 234 -100 0 0 -234 35 -47 65 47zm-100 0c0,-27 22,-49 50,-49 27,0 50,22 50,49l-100 0zm310 146l-100 0 0 0 0 -7 -1 -7 0 -8 -1 -7 -1 -6 -1 -7 -1 -7 -1 -6 -2 -6 -2 -6 -2 -6 -3 -5 -2 -4 -3 -5 -2 -3 -3 -4 -3 -3 -4 -3 -3 -2 -4 -2 -4 -2 -5 -2 -5 -2 -7 -1 -7 -1 -8 0 -9 0 -10 1 -11 1 -12 3 -14 3 -14 4 -30 -93 18 -5 18 -5 17 -3 16 -2 16 -2 16 0 15 1 15 1 14 3 13 4 13 5 12 5 12 7 10 8 10 8 9 9 8 9 7 9 6 10 5 10 5 11 4 10 3 10 3 11 3 10 2 10 1 10 2 10 0 10 1 10 0 9 1 10 0 0zm0 0c0,27 -23,48 -50,48 -28,0 -50,-21 -50,-48l100 0zm-100 526l0 -526 100 0 0 526 0 0 -100 0zm100 0c0,27 -22,49 -50,49 -27,0 -50,-22 -50,-49l100 0zm-205 272l2 -97 0 0 15 0 14 -1 12 -1 11 -1 10 -1 8 -2 6 -2 6 -2 4 -2 3 -2 3 -1 2 -2 1 -2 1 -2 2 -2 1 -3 1 -4 2 -4 1 -6 1 -6 0 -7 1 -8 0 -8 0 -10 0 -10 0 -10 0 -12 -1 -11 0 -13 -1 -13 0 -13 0 -14 100 0 0 13 0 12 1 13 0 12 0 12 1 11 0 12 0 11 0 12 -1 11 0 11 -1 11 -2 11 -2 11 -3 11 -4 11 -5 11 -6 11 -8 10 -8 10 -10 8 -11 8 -11 7 -12 5 -13 5 -14 4 -14 3 -14 2 -16 2 -16 1 -17 0 -19 0 0 0zm0 0c-27,0 -49,-22 -49,-49 1,-27 23,-49 51,-48l-2 97zm-103 0l-1 -98 0 0 2 0 2 0 2 0 3 0 3 0 3 0 3 0 4 0 3 0 4 0 4 0 4 0 3 0 4 0 4 0 4 0 5 0 4 0 4 0 4 0 3 0 4 0 4 0 3 0 4 0 3 0 3 0 3 0 3 1 3 0 2 0 2 0 -2 97 -1 0 -2 0 -3 0 -2 0 -3 0 -3 0 -3 0 -4 0 -3 0 -4 0 -4 0 -4 0 -4 0 -4 0 -4 0 -4 0 -4 0 -4 0 -4 0 -3 0 -4 0 -4 0 -4 0 -3 0 -4 0 -3 0 -3 0 -3 0 -2 0 -3 0 -2 0 -1 0 0 0zm0 0c-28,0 -50,-21 -51,-48 0,-27 23,-49 50,-50l1 98zm-339 -268l99 0 0 0 1 18 1 17 1 15 2 15 3 12 3 12 4 10 3 9 4 7 5 7 4 6 5 6 5 4 5 5 6 3 6 4 7 3 7 3 9 3 8 2 10 2 10 2 11 2 11 1 12 1 12 1 13 0 14 0 13 0 15 1 14 -1 15 0 1 98 -16 0 -14 0 -15 0 -15 0 -15 0 -14 -1 -15 -1 -14 -1 -15 -1 -14 -2 -14 -3 -14 -3 -14 -4 -13 -4 -14 -5 -13 -7 -13 -7 -12 -8 -12 -10 -11 -10 -10 -12 -10 -13 -8 -13 -7 -15 -7 -15 -5 -16 -5 -18 -4 -18 -3 -18 -2 -20 -1 -21 0 -22 0 0zm0 0c0,-27 22,-49 50,-49 27,0 49,22 49,49l-99 0zm0 -295l99 16 0 0 0 -6 0 2 0 3 0 4 0 6 0 6 0 7 0 9 0 9 0 9 0 10 0 11 0 11 0 12 0 12 0 12 0 12 0 12 0 12 0 13 0 12 0 11 0 12 0 11 0 11 0 10 0 9 0 9 0 8 0 8 0 6 0 6 -99 0 0 -6 0 -6 0 -8 0 -8 0 -9 0 -9 0 -10 0 -11 0 -11 0 -12 0 -11 -1 -12 0 -13 0 -12 0 -12 0 -12 0 -12 0 -12 0 -12 0 -11 0 -11 0 -10 0 -10 0 -8 0 -9 0 -7 1 -7 0 -5 0 -5 0 -4 0 -3 0 -7 0 0zm0 0c5,-27 31,-45 58,-40 27,4 45,30 41,56l-99 -16zm337 -147l100 0 -50 49 -16 1 -16 0 -16 0 -15 0 -15 1 -15 1 -14 1 -13 1 -13 1 -13 1 -12 2 -11 2 -11 2 -11 3 -9 2 -9 3 -9 4 -8 3 -7 4 -7 4 -6 4 -6 4 -5 5 -5 5 -4 5 -4 6 -4 6 -4 7 -3 8 -3 8 -2 10 -2 10 -99 -16 4 -16 4 -15 5 -15 5 -14 7 -13 8 -13 8 -12 9 -11 10 -10 11 -9 11 -9 12 -8 12 -7 12 -6 13 -6 13 -5 13 -4 14 -4 14 -3 14 -3 14 -2 15 -3 15 -1 15 -2 15 -1 16 -1 16 -1 16 0 16 -1 16 0 17 0 16 0 -49 48zm49 -48c28,-1 51,21 51,48 0,27 -22,49 -50,49l-1 -97z"/>
   </g>
  </g>
  <path class="fil6 str0" d="M7009 4394l253 0 55 -240 267 -1 31 118c8,41 17,84 26,123l285 0 -309 -1125 -295 0 -313 1125z"/>
  <path class="fil1" d="M7357 3950l202 -1c1,-40 -39,-177 -52,-226 -8,-29 -46,-221 -50,-228 -4,9 -100,445 -100,455z"/>
 </g>
</svg>
