<?xml version="1.0" encoding="UTF-8"?>
<!DOCTYPE svg PUBLIC "-//W3C//DTD SVG 1.0//EN" "http://www.w3.org/TR/2001/REC-SVG-20010904/DTD/svg10.dtd">
<!-- Creator: CorelDRAW X7 -->
<svg xmlns="http://www.w3.org/2000/svg" xml:space="preserve" width="200mm" height="200mm" version="1.0" style="shape-rendering:geometricPrecision; text-rendering:geometricPrecision; image-rendering:optimizeQuality; fill-rule:evenodd; clip-rule:evenodd"
viewBox="0 0 20000 20000"
 xmlns:xlink="http://www.w3.org/1999/xlink">
 <defs>
  <style type="text/css">
   <![CDATA[
    .str0 {stroke:#024541;stroke-width:150;stroke-linecap:round;stroke-linejoin:round}
    .str3 {stroke:#024541;stroke-width:113.06;stroke-linecap:round;stroke-linejoin:round}
    .str2 {stroke:#024541;stroke-width:142.83;stroke-linecap:round;stroke-linejoin:round}
    .str1 {stroke:#024541;stroke-width:142.83;stroke-linecap:round;stroke-linejoin:round}
    .fil5 {fill:none}
    .fil4 {fill:#FEFEFE}
    .fil2 {fill:#A75F4A}
    .fil7 {fill:#CC6F3C}
    .fil1 {fill:#B7B0A7}
    .fil8 {fill:#024541}
    .fil9 {fill:#00315E}
    .fil23 {fill:#2B5E93}
    .fil11 {fill:#2E99A3}
    .fil18 {fill:#314C6F}
    .fil24 {fill:#383535}
    .fil12 {fill:#4825E4}
    .fil16 {fill:#4C4C4B}
    .fil26 {fill:#4F6E91}
    .fil21 {fill:#5A6470}
    .fil25 {fill:#62615D}
    .fil27 {fill:#675839}
    .fil20 {fill:#6C768A}
    .fil22 {fill:#746B59}
    .fil15 {fill:#8C8B90}
    .fil17 {fill:#A19E99}
    .fil13 {fill:#ABABB4}
    .fil14 {fill:#CDF5FC}
    .fil19 {fill:#ED5A51}
    .fil28 {fill:#F7EFEF}
    .fil6 {fill:#FFCA9C}
    .fil10 {fill:#4D897C;fill-rule:nonzero}
    .fil3 {fill:#024541;fill-rule:nonzero}
    .fil0 {fill:url(#id0)}
   ]]>
  </style>
  <radialGradient id="id0" gradientUnits="userSpaceOnUse" gradientTransform="matrix(1.41421 -0 -0 1.41421 -4142 -4142)" cx="10000" cy="10000" r="10000" fx="10000" fy="10000">
   <stop offset="0" style="stop-opacity:1; stop-color:#FEFEFE"/>
   <stop offset="0.439216" style="stop-opacity:1; stop-color:#FEFEFE"/>
   <stop offset="1" style="stop-opacity:1; stop-color:#D1E2F2"/>
  </radialGradient>
 </defs>
 <g id="Layer_x0020_1">
  <metadata id="CorelCorpID_0Corel-Layer"/>
  <path class="fil0" d="M0 0l20000 0 0 20000 -20000 0 0 -20000z"/>
  <g id="_83268469456">
   <path class="fil1 str0" d="M6423 3932l0 741c0,307 -246,551 -547,551l-1129 0 0 1280 0 0 -2597 0 0 -1470c0,-307 247,-558 548,-558l440 0 601 1437 601 -1437 320 0 291 0c131,0 216,60 286,147 90,114 483,-99 483,75l0 -766 703 0z"/>
   <path class="fil1 str1" d="M3739 6027l-414 -421 0 -282 -339 -253 73 -595 79 0 601 1438 601 -1438 79 0 73 595 -340 253 0 282 -413 421z"/>
   <path class="fil2 str1" d="M3918 5486l-179 428 -182 -436 86 -590 96 0 96 0 83 598z"/>
   <g>
    <path class="fil2" d="M3928 4632l-378 0 93 256 96 0 96 0 93 -256z"/>
    <path id="1" class="fil3" d="M3550 4562l378 0 0 141 -378 0 -67 -47 67 -94zm0 141c-39,0 -71,-32 -71,-71 0,-39 32,-70 71,-70l0 141zm25 209l-92 -256 135 -47 92 256 -67 94 -68 -47zm135 -47c13,36 -6,77 -43,90 -38,13 -79,-6 -92,-43l135 -47zm29 94l-96 0 0 -141 96 0 0 0 0 141zm0 -141c39,0 71,31 71,70 0,39 -32,71 -71,71l0 -141zm96 141l-96 0 0 -141 96 0 68 94 -68 47zm0 -141c40,0 72,31 72,70 0,39 -32,71 -72,71l0 -141zm160 -162l-92 256 -135 -47 92 -256 68 -47 67 94zm-135 -47c13,-37 54,-56 92,-43 37,13 56,53 43,90l-135 -47z"/>
   </g>
   <path class="fil4 str1" d="M3138 4476l362 446 102 -146 -52 -144 -276 -365 -136 209z"/>
   <path class="fil5 str2" d="M2757 5647l0 857"/>
   <path class="fil5 str1" d="M3739 5914l0 590"/>
   <path class="fil6 str2" d="M3739 4236c206,0 930,-292 930,-778l0 -555c-123,-292 -38,-477 -189,-641 -148,64 -307,58 -474,5 -164,355 -777,200 -1008,-5 -152,164 -66,349 -189,641l0 555c0,486 723,778 930,778z"/>
   <path class="fil6 str2" d="M3928 4632l125 -165 0 -316c-130,55 -248,85 -314,85 -66,0 -184,-30 -314,-85l0 316 125 165 378 0z"/>
   <path class="fil4 str1" d="M4340 4476l-362 446 -102 -146 52 -144 276 -365 136 209z"/>
   <path class="fil7 str2" d="M3739 1444c-53,-9 -108,-14 -164,-14l0 0c-506,0 -920,414 -920,920l0 618c37,-40 92,-65 154,-65 123,-292 37,-477 189,-641 225,196 844,360 1008,5 167,53 326,59 474,-5 151,164 66,349 189,641 61,0 116,25 154,65l0 -618c0,-506 -414,-920 -920,-920l0 0c-56,0 -111,5 -164,14zm-1068 1793c26,135 82,259 160,366 -14,-46 -22,-94 -22,-145l0 -171c-53,0 -101,-19 -138,-50zm1998 50l0 171c0,51 -8,99 -22,145 78,-107 133,-231 159,-366 -36,31 -84,50 -137,50z"/>
   <path class="fil4 str2" d="M3425 4244l0 223 -151 -200 151 -23z"/>
   <path class="fil4 str2" d="M4053 4244l0 223 151 -200 -151 -23z"/>
   <path class="fil4 str2" d="M3940 5893l536 0 0 309 -536 0 0 -309z"/>
   <path class="fil8 str3" d="M4168 2986c-35,0 -64,29 -64,65 0,36 29,65 64,65 36,0 65,-29 65,-65 0,-36 -29,-65 -65,-65zm-859 0c36,0 65,29 65,65 0,36 -29,65 -65,65 -35,0 -64,-29 -64,-65 0,-36 29,-65 64,-65z"/>
   <path class="fil4 str2" d="M2604 3095c0,-106 92,-192 205,-192l0 192 0 192c-113,0 -205,-86 -205,-192zm2269 0c0,-106 -91,-192 -204,-192l0 192 0 192c113,0 204,-86 204,-192z"/>
   <path class="fil9 str2" d="M3879 3881c-35,39 -93,65 -159,65 -105,0 -190,-65 -190,-146 0,-30 11,-57 30,-80 77,80 189,138 319,161z"/>
   <path class="fil7 str2" d="M3388 3599c231,-128 458,-112 681,0 0,30 0,60 0,90 0,72 0,10 0,82 -227,0 -454,0 -681,0 0,-102 0,-70 0,-172z"/>
   <g>
    <path class="fil10" d="M1820 6573c-23,0 -41,-31 -41,-69 0,-38 18,-68 41,-68l0 137zm4189 0l-4189 0 0 -137 4189 0 0 137zm0 -137c22,0 41,30 41,68 0,38 -19,69 -41,69l0 -137z"/>
   </g>
   <path class="fil6 str2" d="M1820 6504l930 0c0,-45 0,-107 0,-150 0,-210 -96,-325 -238,-364 -87,-24 -226,-23 -307,26 -59,35 -106,95 -104,141 -96,-117 -284,-9 -284,190 0,28 3,107 3,157z"/>
   <g>
    <path class="fil6" d="M6131 3120l0 -337c257,-81 302,86 302,209l0 757c1,209 45,326 -221,322 -27,0 -124,0 -151,0 -231,1 -415,4 -415,-316 0,-76 -1,-408 0,-413 36,-206 229,-220 485,-222z"/>
    <path id="1" class="fil3" d="M6203 2783l0 337 -144 0 0 -337 50 -67 94 67zm-144 0c0,-39 32,-71 72,-71 40,0 72,32 72,71l-144 0zm446 209l-144 0 0 0 0 -10 0 -10 -1 -10 -1 -10 -1 -10 -2 -10 -2 -9 -2 -10 -2 -8 -3 -9 -3 -8 -3 -7 -4 -7 -4 -6 -4 -5 -4 -5 -4 -4 -5 -4 -5 -4 -6 -3 -6 -3 -7 -3 -7 -2 -9 -2 -11 -1 -11 0 -13 0 -15 1 -16 2 -17 4 -19 4 -21 6 -44 -133 26 -8 26 -6 25 -5 24 -4 23 -2 22 0 22 1 21 2 20 4 19 6 19 7 18 8 16 10 15 10 14 12 13 13 11 13 10 14 9 14 8 15 6 14 6 15 5 15 4 15 4 15 3 14 2 15 2 14 1 14 1 14 0 14 1 13 0 0zm0 0c0,39 -32,71 -72,71 -40,0 -72,-32 -72,-71l144 0zm-143 757l-1 -757 144 0 0 757 0 0 -143 0zm143 0c0,39 -32,71 -72,71 -39,0 -71,-32 -71,-71l143 0zm-294 392l2 -140 0 0 22 0 20 -1 18 -1 15 -2 14 -2 12 -2 9 -3 8 -3 6 -3 5 -2 3 -3 3 -2 2 -3 2 -2 2 -4 2 -4 2 -5 1 -7 2 -7 1 -9 1 -11 1 -11 0 -12 1 -14 -1 -14 0 -16 0 -16 -1 -17 0 -18 -1 -18 0 -20 0 -20 143 0 0 19 1 18 0 18 1 17 0 17 1 17 0 17 0 16 0 16 -1 16 -1 16 -1 16 -2 16 -4 16 -4 16 -6 16 -7 16 -9 15 -10 15 -13 13 -14 13 -15 11 -17 10 -17 8 -19 7 -19 5 -20 4 -21 4 -23 2 -23 2 -25 0 -26 0 0 0zm0 0c-40,0 -71,-32 -71,-71 1,-39 34,-70 73,-69l-2 140zm-149 0l-1 -140 0 0 3 0 3 0 3 0 4 0 4 0 4 -1 5 0 5 0 5 0 5 0 6 0 5 0 6 0 6 0 6 0 5 0 6 0 6 0 6 0 5 0 6 0 5 1 6 0 5 0 5 0 5 0 4 0 4 0 4 0 4 0 3 0 3 0 -2 140 -3 0 -3 0 -3 0 -4 0 -4 0 -4 0 -5 0 -5 0 -5 0 -5 0 -5 0 -6 0 -5 0 -6 0 -6 0 -6 0 -6 0 -5 0 -6 0 -6 0 -5 0 -6 0 -5 0 -5 0 -5 0 -4 0 -5 0 -4 0 -3 0 -4 0 -3 0 -2 0 0 0zm0 0c-40,0 -72,-31 -72,-70 -1,-39 31,-70 71,-70l1 140zm-488 -386l144 0 0 0 0 26 1 25 3 22 3 20 4 18 4 17 5 14 5 13 6 11 6 10 7 9 6 8 8 6 7 6 9 6 9 5 9 5 11 4 12 4 13 3 13 3 15 3 15 2 16 2 18 1 17 1 19 1 19 0 20 1 21 0 21 0 21 0 1 140 -22 0 -22 0 -21 0 -21 0 -21 0 -21 -1 -21 -1 -21 -2 -21 -2 -20 -3 -20 -4 -20 -4 -20 -5 -20 -7 -19 -8 -19 -9 -18 -10 -18 -12 -17 -14 -16 -15 -15 -17 -13 -18 -12 -19 -11 -21 -9 -23 -8 -23 -7 -25 -6 -25 -4 -28 -3 -28 -1 -30 -1 -32 0 0zm0 0c0,-39 32,-70 72,-70 39,0 72,31 72,70l-144 0zm1 -425l142 24 0 0 1 -8 0 2 0 4 -1 7 0 8 0 9 0 10 0 12 0 13 0 14 0 14 0 16 0 16 0 17 0 17 0 17 0 17 0 18 0 18 0 17 0 17 0 17 0 17 1 16 0 15 0 15 0 14 0 13 0 11 0 11 0 9 0 8 -144 0 0 -8 0 -9 0 -11 0 -11 0 -13 0 -14 0 -14 0 -16 0 -16 0 -16 0 -17 0 -18 0 -17 0 -18 0 -18 0 -17 0 -17 0 -17 0 -17 0 -16 0 -16 0 -14 0 -14 0 -13 0 -12 0 -11 0 -9 0 -8 0 -7 0 -5 0 -4 1 -11 0 -1zm0 1c7,-39 44,-64 83,-58 39,7 65,43 59,81l-142 -23zm484 -211l144 0 -72 71 -23 0 -23 0 -23 1 -22 0 -21 1 -21 1 -20 1 -19 2 -19 2 -18 2 -18 2 -16 3 -16 3 -15 4 -14 4 -13 4 -12 5 -12 4 -10 6 -10 5 -9 6 -8 6 -7 7 -7 7 -6 8 -6 8 -6 9 -5 11 -5 11 -4 12 -3 13 -3 15 -142 -24 5 -22 6 -22 7 -21 8 -20 10 -19 11 -18 12 -17 13 -16 14 -15 15 -14 16 -12 17 -11 18 -10 18 -9 18 -8 19 -8 19 -6 20 -5 20 -5 20 -4 21 -4 21 -3 21 -2 22 -2 22 -2 22 -1 23 -2 23 0 23 -1 24 -1 23 0 25 0 -72 70zm72 -70c39,0 72,31 72,70 0,39 -32,70 -72,71l0 -141z"/>
   </g>
  </g>
  <path class="fil11" d="M7340 9501c-74,46 -139,34 -232,50 58,31 39,49 43,151l5 637c3,293 16,572 27,863 20,546 7,1148 1,1697 -5,559 -9,1140 -31,1697l-14 1497c1,64 0,142 45,179 157,80 4181,348 4779,387l4790 329c84,-9 33,-563 32,-666 -1,-238 5,-481 9,-719l-3 -2905c0,-491 22,-1011 12,-1496l10 -2074c-850,-31 -1754,114 -2611,103 -39,-52 -35,33 -27,-111 3,-104 10,-146 -22,-228 -45,-112 -12,66 -45,-108l-9 -596 -151 6 -5 687 -318 6 -6 -676 -157 1 -4 826 572 -7c11,94 18,150 61,207 -316,-1 -553,23 -867,26 -288,3 -575,14 -863,23 -577,18 -4874,245 -5021,214z"/>
  <path class="fil12" d="M10116 2237l-420 397c-86,147 -231,294 -337,474 -101,171 -184,331 -263,541 -212,565 -158,796 -187,1415 106,146 26,650 659,1367l120 110c296,253 231,192 547,372 94,53 215,112 330,104l-67 -357c-18,-58 -6,-38 -35,-77 -118,38 -32,-47 -120,108 -33,58 -10,117 -70,72l30 -133c3,-30 -31,-2 25,-46l112 -61 -8 -101 -100 -46c-361,-164 -679,-573 -836,-994 -541,-1452 682,-3108 1967,-3180 764,-62 1155,136 1629,588 42,40 177,228 228,320 854,1534 -418,3516 -2048,3508 -163,37 -158,113 -290,213 -91,68 -225,146 -255,229l35 19c617,248 1732,-130 2293,-620 196,-171 370,-358 508,-555 575,-822 756,-1949 333,-2880 -56,-124 -154,-254 -184,-360 -140,-187 -245,-305 -398,-440 -87,-77 -140,-127 -239,-192 -73,-47 -196,-104 -253,-157 -497,-124 -749,-309 -1480,-176 -246,45 -446,113 -655,208 -336,153 -370,228 -571,330z"/>
  <path class="fil13" d="M12893 9323l28 3161 2212 14 -18 -3262 -2222 87z"/>
  <path class="fil13" d="M9446 9505c-81,298 -16,2487 -2,2959l1989 11 -13 -3088c-310,4 -1801,20 -1974,118z"/>
  <path class="fil14" d="M10196 5588c55,-69 -7,-213 -22,-347l-13 -1214 720 -131c-120,-555 -349,-425 148,-1015 104,-124 221,-258 329,-362 65,-63 119,-100 187,-158 366,-310 419,172 418,175 -10,49 -163,186 -209,224 42,219 384,696 544,877 -50,105 17,-14 -76,87l-25 29c518,126 456,145 469,663 33,1304 166,994 -294,1359 -112,89 -221,171 -344,262 -132,97 -578,477 -687,506l-69 75c1630,8 2902,-1974 2048,-3508 -51,-92 -186,-280 -228,-320 -474,-452 -865,-650 -1629,-588 -91,60 -371,151 -494,215 -811,422 -1328,1310 -1203,2235 62,461 213,655 430,936z"/>
  <path class="fil15" d="M16753 16988c-101,60 -1548,-51 -1769,-61 -533,-24 -1360,-133 -1809,-140 -528,-8 -1583,-129 -2279,-169l-916 -59c-160,-3 -317,-28 -492,-32 134,125 36,63 196,86 167,25 329,42 469,20 12,-2 100,-22 109,-23l0 143c108,3 92,-1 172,29 41,110 29,173 29,317l-168 74c67,30 73,104 82,108l153 42 2879 268 3411 311c0,-277 -50,-1036 -26,-1264 18,-172 70,-224 43,-412l39 -1687c21,-582 -26,-1112 -13,-1669 2,-90 38,-1474 10,-1555 -37,-111 20,-37 -70,-113 10,485 -12,1005 -12,1496l3 2905c-4,238 -10,481 -9,719 1,103 52,657 -32,666z"/>
  <path class="fil16" d="M11272 6618l69 -75c53,-202 374,-389 540,-511 175,-129 402,-291 560,-439l-1058 590c-279,121 -449,-49 -833,-72l-2 408c-55,-89 -48,-174 -118,-268l2 171 8 101 -112 61c-56,44 -22,16 -25,46l-30 133c60,45 37,-14 70,-72 88,-155 2,-70 120,-108 29,39 17,19 35,77l67 357c-115,8 -236,-51 -330,-104 -316,-180 -251,-119 -547,-372l-120 -110c-633,-717 -553,-1221 -659,-1367 -68,343 37,735 66,1076 17,195 145,420 251,637l105 209c69,83 209,135 331,272l724 482c217,82 152,146 278,317 177,1 193,-82 331,-124 280,-84 401,104 1233,-175 148,-49 208,-89 324,-137 436,-182 361,-198 685,-490 57,-52 102,-69 148,-112 106,-99 308,-391 387,-533l308 -642c139,-416 253,-1170 228,-1717 -42,-314 -74,-578 -194,-837 -82,-178 -274,-539 -402,-626 30,106 128,236 184,360 423,931 242,2058 -333,2880 -138,197 -312,384 -508,555 -561,490 -1676,868 -2293,620l-35 -19c30,-83 164,-161 255,-229 132,-100 127,-176 290,-213z"/>
  <path class="fil17" d="M7247 9608c34,451 -3,964 -14,1421 -11,491 48,936 23,1445l1850 5 -16 -2974 -1843 103z"/>
  <path class="fil13" d="M10881 3896c121,0 67,-5 49,64 -24,95 39,18 -94,64 -67,23 -143,8 -172,74 208,0 777,-133 998,-137 234,-4 -96,50 325,50 -28,396 63,24 59,459l-30 577c0,-200 21,-643 -29,-777l-978 144 -1 866c9,177 45,133 59,256l488 3c49,-13 301,-107 404,-61 -89,34 -85,29 -202,29 -12,112 -85,186 -170,262l-152 91c-98,47 7,40 -138,50l0 201c141,11 67,-31 86,72l1058 -590c-158,148 -385,310 -560,439 -166,122 -487,309 -540,511 109,-29 555,-409 687,-506 123,-91 232,-173 344,-262 460,-365 327,-55 294,-1359 -13,-518 49,-537 -469,-663l25 -29c93,-101 26,18 76,-87 -160,-181 -502,-658 -544,-877 46,-38 199,-175 209,-224 1,-3 -52,-485 -418,-175 -68,58 -122,95 -187,158 -108,104 -225,238 -329,362 -497,590 -268,460 -148,1015z"/>
  <path class="fil18" d="M9414 15213c19,138 156,104 387,128l377 23c2,0 59,-3 136,53 -117,11 -108,-11 -167,52 -168,181 -103,-33 -190,157 -21,45 -25,86 -11,121 -26,9 -56,19 -79,28 -8,4 -34,14 -43,17l-169 74c-3,0 -13,1 -19,3l-33 178c-155,35 -200,-3 -289,15l-25 58c115,45 755,87 1114,89 256,2 625,91 894,93 -95,-304 35,-230 -48,-582l-140 -2c33,-70 -25,2 53,-37l62 -26c59,-28 57,-99 402,-41 159,27 56,-24 130,71 41,-80 40,-76 17,-174 -301,-31 -644,-69 -921,-39l-467 -71c203,-147 984,134 1392,41 10,-115 33,-561 -9,-668 -44,-113 16,5 -44,-60l-82 -89c-6,8 -14,11 -18,26 -3,14 -27,38 -32,43 -55,61 54,-3 -36,30 -3,-19 -10,-74 -29,-121 -236,-5 -407,9 -632,-11 -237,-21 -158,48 -576,-18 -115,184 65,157 -139,181 5,-6 16,-20 18,-15 1,1 62,-20 61,-115 -16,-15 -18,-64 -117,-47 -80,14 -62,63 -70,133 -54,-58 -46,-31 -69,-123 -123,4 -181,-18 -316,-33 21,41 21,89 48,147 47,102 157,218 9,529l-330 -18z"/>
  <path class="fil13" d="M10196 5588c50,90 -12,-19 42,56 88,123 160,530 186,697 -50,45 80,70 -92,35l100 46 -2 -171c70,94 63,179 118,268l2 -408c384,23 554,193 833,72 -19,-103 55,-61 -86,-72l0 -201c145,-10 40,-3 138,-50l152 -91c85,-76 158,-150 170,-262 117,0 113,5 202,-29 -103,-46 -355,48 -404,61l-488 -3c-14,-123 -50,-79 -59,-256l1 -866 978 -144c50,134 29,577 29,777l30 -577c4,-435 -87,-63 -59,-459 -421,0 -91,-54 -325,-50 -221,4 -790,137 -998,137 29,-66 105,-51 172,-74 133,-46 70,31 94,-64 18,-69 72,-64 -49,-64l-720 131 13 1214c15,134 77,278 22,347z"/>
  <path class="fil19" d="M10332 6376c172,35 42,10 92,-35 -26,-167 -98,-574 -186,-697 -54,-75 8,34 -42,-56 -217,-281 -368,-475 -430,-936 -125,-925 392,-1813 1203,-2235 123,-64 403,-155 494,-215 -1285,72 -2508,1728 -1967,3180 157,421 475,830 836,994z"/>
  <path class="fil20" d="M15497 11295c-8,-4 -18,-16 -22,-10l-93 -51c-84,164 -132,102 -155,112l2 847c48,35 26,33 179,37l1338 -13c68,-170 31,-649 42,-871l-256 -16c-2,-272 6,-81 -57,-146l-978 55c1,79 53,-41 0,56z"/>
  <path class="fil20" d="M15082 14666l1306 62c98,-41 -6,-17 84,-65 71,-37 61,2 146,-67l16 -834c-24,-7 11,92 -143,-41 -41,-35 -272,-1 -320,12 -6,1 -13,5 -19,7 -121,31 -57,20 -138,-39 -9,128 24,102 -57,137 -73,-33 -35,14 -44,-148l-29 52c-62,91 -7,117 -129,91 -54,-12 -34,-15 -86,-121 -28,50 -24,83 -49,140 -53,-63 -9,-86 -71,-142 -30,-27 -435,-104 -470,106 0,1 -25,773 3,850z"/>
  <path class="fil20" d="M15174 13537l23 -108 90 118 8 -149c191,42 869,220 1010,200 190,-28 -4,-56 124,-32 41,8 -8,41 161,47 4,-8 9,-30 11,-26l22 -458c2,-162 0,-358 15,-516 -282,-49 -955,-33 -1256,-9 -322,25 -318,-25 -301,701 6,227 41,62 93,232z"/>
  <path class="fil21" d="M13479 12583c-18,131 -7,372 22,463 114,-18 45,2 97,-91 4,-7 12,-35 17,-43 90,61 93,46 55,112 -3,4 -9,11 -12,15l-35 49c-3,4 -32,46 -36,50l-127 106c118,-16 66,-26 118,53 55,-21 49,-57 84,-65l-89 192c-123,109 -113,-75 -70,137 182,54 469,4 625,-23 -41,-93 9,-16 -38,-54l-21 -10c-1,0 -7,2 -10,0 65,-39 40,-48 91,-51 140,-9 50,17 72,55 58,101 -93,137 470,141 118,1 191,11 263,-58 -57,-108 13,-11 -136,-87 14,-99 24,-68 51,-138 2,-5 5,-13 7,-18l83 -160c-42,-116 -29,-195 -11,-316 -63,-28 -63,75 -12,-123 19,-76 18,-47 14,-131 -292,-18 -1242,-58 -1472,-5z"/>
  <path class="fil22" d="M13473 13676c-15,178 -38,130 116,151 -94,50 -149,-42 -91,153l84 -70c4,-4 11,-13 16,-19 5,7 10,11 12,22 2,9 9,16 12,19 50,60 24,40 41,-2 46,-108 -62,-73 120,-88l-40 59c-30,72 -12,107 -1,212l-164 99c-30,-95 -42,-74 -85,-157l-17 585c406,45 346,51 369,-69 129,131 115,77 501,108 218,18 401,32 631,32l-10 -338c-210,265 -141,62 -267,144 -5,-98 -4,-43 15,-101l43 -89 -127 -36c-2,-2 -9,-7 -10,-8l-16 -83c104,16 82,-1 172,31l194 77c-21,-288 -100,-64 -14,-345 30,-100 18,-188 3,-295 -299,16 -1291,-69 -1487,8z"/>
  <path class="fil20" d="M11974 13829l174 65c-53,101 15,45 -143,85 39,140 -53,366 -26,588l1411 81c-46,-54 -19,-41 -95,-80 -8,-4 -31,-11 -37,-12 -144,-27 -31,7 -34,11 2,-1 11,-1 41,-13l88 -53c30,-39 101,-295 -85,-509l63 -196c2,5 6,14 11,19 46,-73 35,-55 23,-166 -85,0 -169,-8 -256,-12 -100,-4 -174,-12 -249,39 -3,224 -55,106 136,150 119,27 126,7 135,137 -49,-3 9,-19 -74,8 -7,3 -32,13 -40,16l-37 20c-5,2 -12,7 -17,9 -56,22 -135,17 -211,-9 9,-175 85,-93 90,-377l-292 3c4,201 -12,458 9,647l-95 2c-7,0 -27,5 -34,6 -101,6 -58,-11 -170,-50 50,-22 -4,-21 97,7l-30 -195c71,-25 9,39 75,0 -57,-201 -95,90 -75,-173 50,-40 60,-76 162,-11l42 32c6,5 14,13 21,18 -12,-348 -34,-285 -161,-297 -124,-12 -282,-19 -389,-11l-28 221z"/>
  <path class="fil15" d="M11507 10057l11 927 1332 7c-67,-220 -1,15 -172,-245l-142 36c78,-145 79,46 78,-150l-173 101c-138,99 17,87 -119,68l50 -329 -269 2 -116 208c-150,-131 -160,-149 -67,-342 162,4 102,19 211,132l278 -2c46,-87 58,-157 177,-175l92 154 212 -12c0,-252 26,-302 -19,-409 -204,-61 -1122,23 -1364,29z"/>
  <path class="fil15" d="M15229 9954l-22 451 440 5c98,-2 100,38 152,49 125,26 35,-53 170,-16l70 442c57,-53 25,10 42,-87 4,-23 2,-115 1,-144 -1,-66 -11,-184 -10,-197 7,45 18,163 25,215 5,32 17,111 21,120 31,85 10,51 69,100 70,-106 -10,-372 -38,-481 133,23 81,20 182,73l43 -132c2,-5 6,-15 11,-21 37,184 103,97 6,257 -4,6 -12,15 -16,23 84,1 101,14 142,-50 5,-6 106,-247 3,-303 -91,-51 -98,5 -118,53l39 -155c64,-1 63,12 86,16l48 -5c78,592 69,147 133,602l18 81c1,7 4,17 7,25 29,-40 21,28 39,-103 6,-42 -2,-104 -6,-145 -23,-228 9,-644 -22,-758l-1392 46c-56,8 -107,36 -123,39z"/>
  <path class="fil20" d="M11989 13510l117 3c12,-97 6,-180 13,-270 7,-98 18,-151 99,-241 140,16 119,48 101,166 -27,172 -20,159 -83,306 5,2 14,0 16,6 25,98 -18,19 62,20 48,1 113,-53 125,-18l39 22c103,52 116,51 229,39 53,-99 59,-151 29,-269 -55,-221 16,-152 -7,-318l183 151c-66,25 -46,-4 -48,48 -3,111 -2,-23 33,3l6 97 109 -40c-16,-59 22,-9 -53,-52 -2,-1 -8,-3 -12,-5 36,-92 66,-124 89,-201l-29 -36c-4,-5 -23,-27 -29,-33 -192,-188 -229,-78 -262,7l-15 -105 -189 -22c148,15 304,4 454,-2 244,-10 409,28 425,-97 22,-162 -5,-104 -425,-108 -173,-1 -347,0 -518,-5 -5,6 -8,10 -10,20l-77 130c-80,-39 -33,-64 -86,-141l-274 0 -12 945z"/>
  <path class="fil15" d="M11569 11346c-39,158 -21,326 -24,489 19,73 49,24 103,106l49 111 28 -162c112,5 320,42 391,21 132,-39 137,-150 245,-229l25 133c0,2 1,10 4,14l78 -162 158 50c33,215 -41,285 23,489l217 13 -19 -722c-540,-3 -349,-17 -397,106 -96,-163 -133,-78 -294,-139 139,23 577,14 692,-32l16 -151c-96,-9 -1050,-1 -1182,30 -2,0 -109,33 -113,35z"/>
  <path class="fil23" d="M9456 14384c92,-107 -20,-55 125,-272 72,-107 -43,-48 77,-98 57,48 17,15 36,52l194 308 200 23c99,2 190,1 289,-6 15,-231 -38,-479 -36,-662 3,-221 -9,-50 40,-140 -133,-11 -929,16 -959,-29 -14,192 -56,722 34,824z"/>
  <path class="fil24" d="M11247 4558l146 103c-12,14 -20,10 -22,15l-66 12c-71,20 -65,21 -102,62 -205,229 -58,318 -43,349 92,196 -87,75 161,241 111,74 116,170 418,-80 97,-80 39,-33 69,-154 25,-106 51,-111 64,-184 18,-104 -62,-250 -115,-330 -153,-232 -74,-111 -267,-241 -54,134 -10,38 -132,102 -153,80 -10,10 -111,105z"/>
  <path class="fil11" d="M15320 8572c-97,52 -63,58 -126,171 -50,88 -86,108 -111,223 232,-4 200,-2 309,-175 55,-88 121,-228 249,-183 24,267 -49,301 86,322 182,28 119,-65 112,-403 -3,-154 1,-309 -15,-461 -142,10 -512,18 -599,75 -159,104 -125,367 95,431z"/>
  <path class="fil23" d="M10866 13204c75,-41 13,21 69,-121l25 -67c50,-129 -2,-123 107,-127 23,130 -20,172 107,257l57 29c6,3 13,6 19,9 213,116 21,108 436,124l5 -610 -322 -88c-393,-39 -341,-46 -377,74 33,-170 11,-87 -69,-119 -46,29 -81,-41 -96,275 -2,50 -7,128 -6,175 0,107 -10,112 45,189z"/>
  <path class="fil11" d="M10281 8423c-361,115 -338,952 219,779 381,-118 343,-957 -219,-779z"/>
  <path class="fil11" d="M9543 8441l-256 145c-184,117 -179,426 -53,512l222 102c169,94 52,16 288,-91 249,-113 191,-466 73,-541 -53,-34 -76,-23 -130,-42 -160,-55 -8,3 -144,-85z"/>
  <path class="fil11" d="M11962 8811l-151 -492 -220 12c-9,176 -55,684 23,799l86 -2c60,-122 12,-381 38,-536 37,88 50,159 73,254 23,93 36,196 90,268 275,2 99,-251 275,-529 10,200 -29,427 42,516l86 -2 17 -800 -226 -1 -133 513z"/>
  <path class="fil25" d="M9414 15213l330 18c148,-311 38,-427 -9,-529 -27,-58 -27,-106 -48,-147l-502 -31c-20,121 16,69 -18,186 -2,5 -5,13 -7,18 -2,7 -5,14 -7,21l-7 424 268 40z"/>
  <path class="fil26" d="M9352 13237c75,-164 -66,-39 91,-322 31,-57 -16,-12 42,-95 136,100 79,160 160,380 46,124 355,82 477,81l1 -594c-177,-9 -405,-79 -612,-79 -62,109 1,79 -72,109 29,-26 66,53 26,-73 -25,-77 17,-36 -66,-65 -30,33 -17,5 -38,53 -16,37 -11,14 -21,68 -8,49 -5,119 -5,170 2,121 -2,249 17,367z"/>
  <path class="fil11" d="M14449 8660l-14 -497 -133 8 -9 820c354,27 259,-379 489,-506 5,84 7,160 7,243 -1,105 -11,171 46,246 155,-15 124,68 112,-361 -4,-157 -3,-317 -15,-474 -318,-31 -257,362 -483,521z"/>
  <path class="fil27" d="M11297 16302l467 23 -8 -640c-74,-95 29,-44 -130,-71 -345,-58 -343,13 -402,41l-62 26c-78,39 -20,-33 -53,37l140 2c83,352 -47,278 48,582z"/>
  <path class="fil11" d="M10895 8370c-38,152 -60,679 0,796 168,2 116,42 138,-119 9,-67 -28,-136 31,-172 84,-53 256,31 349,-145 208,-389 -268,-416 -518,-360z"/>
  <path class="fil11" d="M12522 9083c252,-5 146,-18 250,-197l280 -8c127,181 -19,181 244,176l-299 -806c-228,14 -137,-44 -289,336 -65,163 -142,331 -186,499z"/>
  <path class="fil11" d="M7915 9014c-2,-218 44,-465 -69,-458 -100,6 -62,132 -64,345 -1,138 -7,276 -1,414 243,-3 111,-6 402,-461l12 336c14,87 -10,59 53,105 122,-40 74,-92 74,-250l1 -506c-163,-16 -161,54 -241,197 -57,102 -95,216 -167,278z"/>
  <path class="fil11" d="M8870 8786l-251 12c-55,-345 77,-225 -83,-287 -109,52 -65,-74 -73,390 -1,79 -54,384 73,380 127,-3 48,-140 81,-330l253 -19c22,222 -39,314 69,327 112,-27 80,13 84,-153 6,-247 9,-543 -27,-621 -178,19 -88,108 -126,301z"/>
  <path class="fil26" d="M10485 14004c168,-43 47,-14 157,-120 144,245 82,283 509,247l-25 -401c-197,-16 -416,-78 -636,-80l-5 354z"/>
  <path class="fil28" d="M10294 8585c-258,182 -32,649 214,449 171,-140 69,-649 -214,-449z"/>
 </g>
</svg>
