<?xml version="1.0" encoding="UTF-8"?>
<!DOCTYPE svg PUBLIC "-//W3C//DTD SVG 1.0//EN" "http://www.w3.org/TR/2001/REC-SVG-20010904/DTD/svg10.dtd">
<!-- Creator: CorelDRAW X7 -->
<svg xmlns="http://www.w3.org/2000/svg" xml:space="preserve" width="200mm" height="200mm" version="1.0" style="shape-rendering:geometricPrecision; text-rendering:geometricPrecision; image-rendering:optimizeQuality; fill-rule:evenodd; clip-rule:evenodd"
viewBox="0 0 20000 20000"
 xmlns:xlink="http://www.w3.org/1999/xlink">
 <defs>
  <style type="text/css">
   <![CDATA[
    .str0 {stroke:#2B2A29;stroke-width:25}
    .fil21 {fill:#2B2A29}
    .fil14 {fill:#054FAE}
    .fil15 {fill:#1863B3}
    .fil8 {fill:#1A2516}
    .fil12 {fill:#283717}
    .fil20 {fill:#2A3235}
    .fil1 {fill:#384727}
    .fil16 {fill:#4A6617}
    .fil10 {fill:#5879A7}
    .fil4 {fill:#597718}
    .fil19 {fill:#628C5B}
    .fil5 {fill:#688727}
    .fil13 {fill:#6889B6}
    .fil11 {fill:#7899C5}
    .fil18 {fill:#799737}
    .fil7 {fill:#9F9EA0}
    .fil17 {fill:#A7B946}
    .fil9 {fill:#C8D9EC}
    .fil6 {fill:#C9C4B9}
    .fil3 {fill:#E3E3E3}
    .fil2 {fill:#F3F3F1}
    .fil0 {fill:url(#id0)}
   ]]>
  </style>
  <radialGradient id="id0" gradientUnits="userSpaceOnUse" gradientTransform="matrix(1.41421 -0 -0 1.41421 -4142 -4142)" cx="10000" cy="10000" r="10000" fx="10000" fy="10000">
   <stop offset="0" style="stop-opacity:1; stop-color:#FEFEFE"/>
   <stop offset="0.439216" style="stop-opacity:1; stop-color:#FEFEFE"/>
   <stop offset="1" style="stop-opacity:1; stop-color:#D1E2F2"/>
  </radialGradient>
 </defs>
 <g id="Layer_x0020_1">
  <metadata id="CorelCorpID_0Corel-Layer"/>
  <path class="fil0" d="M0 0l20000 0 0 20000 -20000 0 0 -20000z"/>
  <g id="_337111816224">
   <path class="fil1" d="M6936 7051l-2 1013 1 294 -7 1249 12 92c139,34 241,6 324,14 93,8 54,6 87,56 -26,15 -32,30 -85,39l-155 -1c-185,3 -121,32 -132,-48l-18 53c104,4 182,-11 287,-4l210 8c0,0 28,-9 80,22 -16,33 30,30 -54,50 -100,24 -28,14 -58,-22 7,17 8,5 -3,36 -1,4 -6,13 -8,16 -1,2 -4,6 -5,8 -2,3 20,-28 -11,15 -53,71 -53,72 -110,84 -39,-49 22,-32 -57,-101 -2,-2 -7,-6 -9,-8 -45,-39 -30,-29 -55,-35 -59,-15 -16,7 -77,-25 2,-3 7,-49 9,3l-9 40c-27,-11 -62,-26 -87,-35 -30,59 53,61 -70,91 -33,-43 -10,-19 -18,-47 -2,-4 -3,-9 -4,-14l-10 -43c-3,4 -8,5 -9,12l-63 62c60,50 -28,-65 22,30 2,3 4,9 6,12l11 28c-80,34 -22,16 -71,17 -26,44 -15,41 -32,88 16,16 6,21 37,17 -50,103 15,7 -42,157 -5,12 -8,23 -10,30l-1 46c-9,31 -25,30 -58,46 58,-7 49,-6 99,5 48,11 93,17 117,21 161,32 93,-42 183,-44 3,35 -6,7 10,49 27,68 2,26 45,70 80,82 72,10 124,79l344 8c14,-74 24,-81 80,-54l12 59c160,2 649,24 796,9 29,-3 80,-9 97,-11l107 -18c4,-1 11,-2 16,-4 1,-5 3,-19 3,-16l21 -76c158,20 -69,82 166,68 76,-23 130,-20 189,-39 66,-21 84,-45 174,-54l-35 -21c-33,-35 -14,16 -6,-18 40,-23 108,-58 165,-77 70,-22 163,-13 240,-12 60,2 25,-2 49,18l29 36c2,3 5,10 8,14 4,-86 2,-80 117,-80 60,0 123,2 183,12l-26 2198c-3,2 -19,10 -24,13 85,11 8,-5 45,25l3 498 231 -1c20,-80 13,-1646 6,-1839 -8,-206 5,-427 -10,-627l36 -30c32,-37 11,32 15,-23 2,-44 -9,12 -31,-55 -18,-57 -1,-155 -5,-223 -5,-79 -3,-127 0,-209 5,-99 -11,-148 -16,-243l474 32c54,16 4,6 31,50 30,50 -32,3 30,35 0,-1 56,-4 24,-73l-28 -24c211,52 43,16 370,1l398 -2c61,-18 423,13 563,2 -16,52 -39,28 -55,82 37,-28 68,-27 109,-26 -4,3 -11,2 -13,10 -15,52 -1,-3 -23,19 -31,32 -7,-7 -31,41 -18,38 -1,32 -34,86 87,9 7,-32 73,-78 27,-19 64,6 42,-131 -1,-1 -3,-5 -2,-7 38,3 71,1 107,4 18,1 31,3 49,6 87,15 38,0 193,-9l4 24c21,73 -31,-42 6,16 0,0 36,45 48,63 -23,77 11,89 -44,70l61 -16c3,-1 8,-5 12,-8 2,4 4,6 6,13l31 42c58,-83 22,-26 106,-64 34,-15 15,-33 76,-15l36 13c-14,47 -22,76 -64,105 33,-20 35,77 35,0 56,18 6,-3 6,-3l9 -94c22,-96 45,-67 75,-139 285,10 213,-32 415,-16l17 38c24,69 27,65 1,92l117 -16c7,82 -20,89 87,142l-49 -74c-41,-51 -13,32 -5,-15 0,0 2,-4 3,-5 0,-1 2,-5 2,-6l-3 -45c0,-2 -1,-7 -1,-8l-2 -25c0,-3 0,-8 0,-10 10,-125 55,-97 77,-99 3,-16 16,-56 19,-61l13 -23c36,-64 5,-77 -35,-122 -4,-5 -10,-11 -14,-16 76,4 87,-25 148,-10l19 7c100,27 61,1 157,-55 38,-22 67,-24 28,-76 -2,-4 -12,-23 -17,-3 -6,18 34,-30 -27,10l-88 57c72,-39 37,-7 58,52 -84,-12 -42,-12 -118,7 2,-100 29,-106 110,-155l45 -26c-14,24 22,-5 -54,17l9 -81c-2,-28 -40,-58 15,-73 52,-14 90,16 140,32 -10,69 21,24 -28,52 -66,38 -31,4 -41,-7l3 50c0,-8 -14,-17 21,-16 3,0 15,3 19,4l106 22c0,27 -21,45 0,70l3 -10c1,0 3,-4 3,-4 0,-1 3,-4 3,-5l8 -10c1,-1 3,-5 4,-6 1,-2 3,-7 4,-9 1,-2 3,-7 4,-10l12 -38c46,-158 43,-94 91,-157 25,-34 21,-77 77,-82 3,3 6,6 6,12 4,38 22,83 -24,92 36,17 21,37 56,45 3,1 13,1 16,2l16 9c105,70 -61,27 34,31 25,-116 59,-132 72,-133 122,-11 56,9 85,29 -27,50 26,19 -52,52 72,20 -7,-4 52,21 31,-82 -21,-36 70,-73l2 85c-47,113 43,-101 -23,37l23 6c62,25 63,5 102,-58 71,19 96,36 121,87l-15 22c-38,35 -49,34 -88,15l-35 73c-56,-22 -9,21 -35,-24 -31,-55 -2,-19 0,-25 -16,51 -22,-25 0,61 -45,30 -67,18 -96,34 15,43 23,42 62,59l34 14c63,-27 -24,24 26,-29l27 -27c5,-6 11,-12 17,-17 0,5 2,7 3,14l32 63c24,-18 40,-32 61,-52 48,-44 69,-90 122,-124 45,-27 31,-6 77,-52 -47,-14 -16,-9 -7,-34 11,-31 9,41 21,-50 9,-70 -68,-76 56,-113 -1,-3 -20,-45 -21,-49 -4,-13 -45,0 48,-86l26 -22c-19,-52 25,-34 -35,-52 87,0 -4,11 35,-34 -61,9 -97,6 -145,17 -44,10 -72,29 -110,38 -89,20 -23,-17 -105,17 -71,29 -51,41 -122,61 -24,-95 32,-156 -122,-159 0,0 -33,2 -40,2 39,-32 33,-13 38,-82 -137,-11 -91,-31 -163,-51l-31 44c46,10 19,-7 68,17l-29 40c-27,52 -14,95 -29,122 -51,-3 -57,-31 -67,-80 -67,46 -18,18 -37,37 -3,4 -7,8 -11,12l-21 20c-49,40 -42,1 -67,48l-31 -29c-93,-103 -44,-133 -34,-178 -93,-33 -67,-4 -82,-71 -78,29 -20,30 -93,38 -2,-2 -3,-9 -3,-7l-6 -20c-6,-17 18,-17 -12,-12l3 88c-7,2 -13,0 -14,5 -13,39 -1,-21 -68,37 47,17 31,-5 30,82 -60,17 -8,13 -69,-17l-49 -34c-70,-93 12,-29 -89,-56 53,17 39,7 51,34l6 39c12,42 54,21 -13,57 -32,17 -28,-6 -67,22 55,-34 44,23 55,39 -58,12 -25,68 -28,149 -59,-27 -44,40 -39,-81 -2,18 16,23 -14,29 -2,1 -8,1 -11,1 -4,0 -12,-3 -15,-3 -4,-1 -12,-4 -18,-7 3,-5 8,-17 10,-14l28 -66 -68 24c3,-140 28,-39 -9,-172 -22,-79 -20,-154 6,-229l7 -1707c-3,-77 -2,-325 -18,-405 -175,4 -384,13 -536,-20 20,-58 29,-12 57,-81 18,-46 8,-91 4,-139 -22,14 -48,26 -71,40 -4,41 -13,40 3,78 19,44 28,22 47,45l-66 -4c21,-140 25,-163 -113,-155l4 156c90,34 83,1 111,54 -28,21 1,7 -42,19 -51,13 -208,-5 -309,5 -237,25 -796,15 -1048,13l-1255 -5c-149,3 -118,-21 -133,-50 37,-66 -18,-1 35,-29 120,-65 -94,36 28,-11 28,-10 12,19 51,-17 27,-26 16,-73 3,-114 -15,-3 -242,-6 -270,-3l12 137c136,17 114,-20 140,37 -22,41 26,27 -73,37l-258 5 -1435 -2c-149,3 -300,-1 -450,-2 -74,-1 -354,22 -378,-52 -3,-7 -9,-6 -13,-10 93,-19 93,-44 68,-159l-92 -4 -12 130c-1,4 -4,17 -4,15 -1,-3 -3,9 -5,14 -63,-35 -22,11 -33,-75 -3,-22 -1,-52 -6,-83 -119,-7 -150,-3 -115,134 74,35 78,-3 108,52 -22,46 -2,28 -58,38 -16,3 -50,0 -67,-2 -135,-15 -225,6 -397,7 -15,167 15,323 -5,497z"/>
   <path class="fil2" d="M7107 9582l6268 -1 -1 -2920 -6262 -5 -5 2926z"/>
   <path class="fil3" d="M6245 11608c-94,13 -148,60 -238,89 -83,28 -150,59 -242,78 -234,99 -469,187 -707,283 -114,46 -245,93 -365,141 -103,41 -252,123 -354,139l0 265c98,-33 229,-94 320,-131 118,-49 212,-88 333,-137 115,-46 592,-256 670,-259 21,-28 1,-10 30,-30l501 -212c54,-22 147,-27 213,-39 -38,93 8,1 -26,46 0,0 -32,32 -34,34 59,-4 54,-4 86,19 -20,45 -66,31 -87,87 67,30 -26,-9 38,2l49 14c-163,34 -193,124 -251,169 -19,15 -48,14 -72,82 64,-13 211,-21 259,-51 63,-38 -2,-26 82,-55 38,-14 90,-23 121,-5 -18,44 -179,157 -221,182 -246,143 -32,49 -229,167 136,143 45,-63 430,-44 4,5 7,7 8,15l39 121c49,-34 -23,-23 88,-33 -3,7 -19,39 -20,43 -20,77 -7,-36 0,37l-12 56c2,-26 -24,18 68,-59 86,-73 -2,-27 172,-144 56,-38 37,-54 118,-19 0,-87 1,-76 62,-104 2,4 4,7 5,14 0,6 4,10 4,13 1,3 3,9 3,13 40,225 -42,101 100,274 -20,67 -3,23 -24,59 -51,86 -216,131 -262,275 177,-3 157,-233 411,-249l-4 139c103,-94 251,-305 385,-327 0,111 -18,168 -18,259l-104 2c17,22 29,-48 0,25 -24,61 -20,-30 -27,52 0,0 8,44 11,62 -40,-3 -76,-13 -86,-10l120 9c30,77 7,15 8,71 32,-4 19,6 67,-47 19,-19 48,-48 60,-63 74,-99 -9,-76 140,-129 156,-55 151,-226 256,-271 2,4 5,7 6,14l-58 261c55,-14 11,-87 131,-214l95 -66c-30,111 -45,92 -87,171l-204 353c-19,28 -5,14 -23,32 -33,34 0,14 -43,28l-338 565 1113 0c80,-182 113,-266 163,-478 24,-101 56,-153 62,-254 8,-131 8,-80 35,-123 29,-44 26,-46 42,-103l-23 -17c13,58 6,82 -28,127 -36,48 -42,84 -63,141l-18 66c-6,47 0,44 -2,63l-22 45c-63,43 -49,105 -146,115 -7,65 -6,39 -14,63 -11,39 -14,61 -55,69l-105 8 0 -105c76,-5 37,2 70,-35l-88 0 16 -99c2,-13 2,-27 2,-40 -109,21 33,58 -139,69 -12,-29 -27,-33 -19,-76 0,-1 19,-79 20,-133 1,-48 15,-145 -27,-176l-62 -15c8,133 27,43 -69,104l128 -292c67,-101 111,-116 157,-249l63 -104c100,-92 105,-2 105,-243 129,-1 10,-12 86,-84 38,-36 35,25 35,-142 55,-32 11,-50 117,-218l206 -338c1,-3 3,-8 5,-11l57 -58c3,-2 20,-6 22,-13 2,-6 8,-4 12,-7l87 -244c-61,0 -59,6 -63,9l-177 337c-3,6 -10,21 -14,26 -69,93 -54,0 -127,115l-75 101c-3,3 -7,6 -9,9l-88 72c-3,3 -9,7 -12,9 -3,3 -11,13 -13,10 -3,-4 -9,7 -15,9 0,-186 84,-117 71,-178l-6 -14c-5,-7 30,-8 -30,-17l-53 24c-38,12 -18,7 -51,11 37,131 -28,92 -92,151l-112 130c-53,70 -74,108 -158,135l-55 18c-137,42 -163,118 -245,141 83,-129 134,-107 199,-206l87 -104c18,-21 28,-33 48,-52l29 -24c2,-1 9,-2 10,-7 1,-6 7,-6 10,-8 0,-64 7,-112 -35,-157 65,-20 44,6 52,-69 -83,16 -82,55 -152,83 -65,25 -107,20 -144,-14 -34,42 -86,64 -122,105 -51,0 -111,-2 -133,10 -93,48 90,34 -93,42 44,82 -16,54 17,139 -52,-3 -47,-8 -62,-3l-29 19c-66,31 -141,1 -187,19 -22,20 -36,26 -70,35 0,155 -48,89 -122,174 -27,-58 17,-46 24,-79 2,-6 8,-4 11,-8 -47,9 -50,14 -104,18 -4,48 -9,43 -18,87 -110,0 -167,17 -279,17 31,-65 32,-19 95,-57 43,-26 0,6 32,-27 4,-4 12,-17 15,-21 55,-64 162,-51 223,-128 30,-38 6,-20 36,-46 -54,-22 -99,-17 -157,-17 36,71 2,38 -28,60l-34 21c-61,35 -165,48 -232,96l-19 15c14,-73 8,-23 0,-105 56,-16 27,-11 67,-32l334 -159c5,-4 14,-15 17,-18l18 -15c2,-2 7,-5 10,-7 2,-2 7,-4 10,-6l183 -92c6,-2 51,-25 58,-29 22,-10 38,-14 63,-26 36,-19 31,-22 53,-34 38,-21 99,-17 162,-17 4,-64 2,-31 14,-61 4,-11 4,-11 11,-22 2,-2 5,-6 7,-8 46,-54 183,-70 247,-101 -3,-5 -4,-13 -6,-17 -1,-4 -3,-11 -6,-15 -2,-4 -5,-10 -7,-13 -45,-67 76,19 -33,-25 -13,24 -25,60 -35,87 -84,0 -177,35 -192,-69l-38 28c0,0 -5,-1 -6,-1 -1,0 -5,-2 -6,-2 -1,0 -5,-2 -5,-3 -27,-8 21,-34 -15,-5 -90,76 -230,135 -343,185l-22 10c-3,2 -7,5 -10,7 -81,55 -129,62 -204,96l-635 270c-79,41 -164,87 -266,94 23,-53 70,-4 13,-59 -59,-56 -49,35 -65,-80 38,0 2,6 7,-42z"/>
   <path class="fil4" d="M13588 9782c-132,3 -19,49 -17,51 38,-15 -1,2 39,-40 73,-78 -17,2 22,-24 4,5 9,7 11,16 0,3 16,25 20,29l18 21c61,56 3,-23 71,45 0,1 21,30 22,32 1,2 3,7 4,10 1,2 2,7 3,9l26 49c3,5 22,28 25,32 -90,-29 -101,4 -206,-12l4 62c0,6 0,13 0,18 0,5 -1,13 0,19 65,-14 60,-10 54,-34l4 56c-29,46 -25,4 -77,83l60 -25c4,-1 9,-2 12,-3l78 -3c-30,69 -33,11 5,66 7,11 12,-8 31,49 -4,1 -11,-1 -12,4l-42 38c-3,4 -5,11 -8,15 -2,4 -4,11 -7,16 -83,-15 -27,1 -53,-18 -140,13 43,143 -143,36l-43 -106c-30,-27 -25,-26 -11,-86 -40,26 -35,22 -64,52l0 -157c-5,-3 -15,-11 -27,-21 -41,-31 -75,-37 -78,-83l12 128 -218 38c-61,-54 41,11 -18,-18 -25,-12 -139,-35 -144,78 -2,51 8,-15 3,35 -5,0 -12,-8 -15,-4 -26,52 43,-3 -27,-6 -24,-1 50,-44 -45,9l-31 29c-1,1 -4,6 -7,7 94,72 46,-16 142,122 -187,-10 -22,-58 -187,-45 -48,5 -102,1 -126,114 50,13 61,-32 122,-34 -33,-15 -11,-65 1,-88l40 42c40,42 86,61 98,124 35,-57 -58,-60 88,-70 63,-4 88,25 123,61 -10,63 8,24 -49,70 4,4 21,22 29,35l-48 -17c-2,-1 -6,-2 -7,-2l-69 11c-63,12 -88,-21 -124,-58 -4,-4 -8,-10 -13,-14l6 -13c1,-2 9,-15 12,-20l-70 41c-18,-42 -8,-23 -35,-42l-21 12c-41,40 -36,-26 -31,67 -6,-4 -13,-19 -16,-14l-28 -23c-30,-23 16,-13 -26,-15 2,4 5,5 6,12l13 26c47,104 -35,144 17,163 29,10 15,2 53,-9 4,-1 9,-3 13,-4l72 -14c-20,37 -55,42 -114,68 -3,1 -8,4 -11,5l-17 11c-100,77 69,4 -26,25 -85,19 52,3 -32,-3l-28 -1c-3,0 -10,-2 -15,-1 9,42 35,51 45,105 -28,78 19,22 71,24 53,3 17,-14 95,43l92 89c3,3 7,8 10,12 75,-64 187,-62 214,-126 34,-77 53,-30 65,-120 78,21 155,61 228,-3l50 -61c50,65 20,9 61,50 61,61 -70,20 172,1 37,-3 98,10 135,39 -99,31 7,-15 -71,5 -25,6 -23,8 -31,13 -2,1 -6,5 -8,6 -1,2 -6,6 -7,7 -17,13 -37,-15 -52,-18l-36 9c-48,9 -60,-18 -134,4 11,68 59,108 116,132 3,1 8,3 11,4 3,1 8,2 11,3l36 9c-40,26 -104,26 -149,43l-32 17c52,24 79,24 118,64l75 -116c22,-50 6,1 21,-60l87 69c0,2 -1,8 -2,10l-86 147 72 70c-24,50 -46,-12 -30,43 4,10 18,17 21,18l34 6c5,0 24,2 30,3l-1 78c-4,37 -26,25 14,70 39,44 78,24 137,-6 -32,-32 -34,-76 -41,-125l17 -16c1,-2 6,-7 8,-8l12 -16c28,-31 53,-14 89,-26 27,-8 44,-29 55,-39 -46,-20 -79,-4 -109,-44l-17 -36c-2,-2 -5,-6 -6,-8 -52,-71 -29,46 -40,-62 -39,-11 -12,20 -2,-11l18 -43c3,-5 7,-13 9,-19 -64,2 -49,-10 -91,14 14,-35 64,-61 91,-87l-49 -72c76,-24 31,-37 64,-85 3,-3 6,-8 8,-11 23,-29 9,-12 30,-30 36,36 14,-4 21,41 10,58 -25,-20 -2,40 11,29 59,59 79,72l-28 59c-3,6 -6,13 -9,18 -2,7 -6,13 -9,20 3,0 65,-2 72,-4 4,-1 9,-3 12,-4 3,-1 7,-4 9,-6l68 -44c68,-27 16,14 65,-29 -7,6 -57,-6 35,70 8,-51 9,-41 -3,-87 31,47 98,90 160,81 -62,23 -49,91 -22,153l-4 9c35,-13 20,7 54,-71 2,-3 12,-33 14,-37 17,-56 20,-82 97,-31 -4,-83 6,-49 11,-90l7 -119c33,-4 1,5 30,10 32,7 95,-3 131,-44 24,-27 12,-6 21,-44l44 -159c38,92 56,-11 44,-42 -3,35 18,65 43,95 41,-55 6,-42 -1,-88 -15,-95 -12,-45 50,-72 -57,-76 46,2 -34,-24 -7,-2 -54,-7 -64,-7 43,-25 25,-49 11,-83l-26 -52c-33,-21 -16,-6 -37,-16 -39,-20 -15,7 -47,-26l44 -37c27,-10 4,-4 46,-11l-18 -30c-44,-76 6,20 -13,-22 -19,-44 -26,5 2,-34 36,-50 33,-29 105,-28 -27,-36 -61,-13 -105,0 6,30 -4,99 70,82 65,-15 0,21 20,-22 1,-3 -3,-21 -3,-27 15,30 -14,64 50,8 0,0 4,-4 3,-6 3,53 -45,60 -92,74l-79 43c-4,3 -10,8 -14,12 143,42 9,-67 150,56l-2 -23c-7,-25 -26,-30 -6,-53l18 -21c16,146 18,45 58,88l19 27c2,2 7,8 9,10 1,3 4,9 8,12 3,-6 7,-20 8,-17l8 -31c1,-9 -9,-41 -12,-51 19,95 -8,52 66,62l50 -84c-32,-25 -74,-24 -117,-34 4,-47 34,-95 -12,-122 15,-47 7,-26 57,-35 -5,-5 -12,-19 -16,-15l-74 -37c22,-23 33,-32 57,-54 29,-28 35,-18 55,-68l-23 -24c-47,-37 -99,-48 -175,-52 -24,43 -53,151 -76,159 -42,15 10,13 -32,-9l-21 -14c50,-14 31,13 35,-44 5,-69 3,-23 -22,-51 68,-41 5,25 40,-45l13 -36c13,73 8,25 64,43 7,-84 4,-85 36,-143 2,-5 9,-17 11,-22 2,-3 5,-8 6,-11l23 -44c30,14 13,17 39,43l36 30c87,59 -34,-53 28,16 -27,78 -49,77 -99,142l168 15c-4,-71 -24,-67 39,-40l-35 140c50,1 90,12 124,44 2,2 5,6 7,8l38 43c1,3 3,8 4,11 1,3 3,9 4,13 2,4 7,24 10,29l-188 -42c-4,0 -11,1 -17,3 7,28 23,32 47,48l59 36c4,3 16,14 19,19 11,-4 -10,115 -32,135 17,25 81,23 31,35 -78,19 -68,-12 -126,39 1,5 6,6 8,11 30,125 -96,-47 16,17 43,25 7,5 42,11 80,12 143,-26 103,-110 -37,-75 -24,38 -13,-20 66,-15 90,-36 159,-45l-31 -53c-2,-3 -3,-8 -4,-11 -21,-55 24,-6 -37,-48 -3,-2 -9,-7 -12,-9 -3,-2 -10,-5 -14,-8 45,-38 73,-99 130,-97 107,3 -35,14 60,18 36,1 13,16 33,-17 32,-52 -33,-60 -72,-79 -35,-17 27,3 -37,-18 0,-35 19,-33 -4,-62 -4,-5 -24,-21 -27,-24l54 -33 -25 -33c-30,-48 -17,-86 -21,-150l127 19c-35,-47 -83,-51 -52,-133l122 -5 0 -83c-65,0 -46,-9 -65,-13l-50 -3c-16,3 -40,14 -55,35 -42,56 -12,24 -4,33 -82,-62 -14,-23 -5,-106l-4 -29c-95,-16 -23,-5 -100,25l-87 41c59,52 90,-1 109,18 -5,-4 51,-45 -17,8l-37 40c-22,27 -20,42 -41,46 14,-8 27,39 16,-42 -8,-63 5,-14 -26,-48l-191 102c-51,-60 57,49 -45,-27 -31,-23 -23,0 -38,-45 79,-56 46,-13 127,-24 -39,-29 -86,-63 -115,-23 -46,46 -32,25 -77,52 -53,34 -74,80 -122,124 -21,20 -37,34 -61,52l-32 -63c-1,-7 -3,-9 -3,-14 -6,5 -12,11 -17,17l-27 27c-50,53 37,2 -26,29l-34 -14c-39,-17 -47,-16 -62,-59 29,-16 51,-4 96,-34 -22,-86 -16,-10 0,-61 -2,6 -31,-30 0,25 26,45 -21,2 35,24l35 -73c39,19 50,20 88,-15l15 -22c-25,-51 -50,-68 -121,-87 -39,63 -40,83 -102,58l-23 -6c66,-138 -24,76 23,-37l-2 -85c-91,37 -39,-9 -70,73 -59,-25 20,-1 -52,-21 78,-33 25,-2 52,-52 -29,-20 37,-40 -85,-29 -13,1 -47,17 -72,133 -95,-4 71,39 -34,-31l-16 -9c-3,-1 -13,-1 -16,-2 -35,-8 -20,-28 -56,-45 46,-9 28,-54 24,-92 0,-6 -3,-9 -6,-12 -56,5 -52,48 -77,82 -48,63 -45,-1 -91,157l-12 38c-1,3 -3,8 -4,10 -1,2 -3,7 -4,9 -1,1 -3,5 -4,6l-8 10c0,1 -3,4 -3,5 0,0 -2,4 -3,4l-3 10c-21,-25 0,-43 0,-70l-106 -22c-4,-1 -16,-4 -19,-4 -35,-1 -21,8 -21,16l-3 -50c10,11 -25,45 41,7 49,-28 18,17 28,-52 -50,-16 -88,-46 -140,-32 -55,15 -17,45 -15,73l-9 81c76,-22 40,7 54,-17l-45 26c-81,49 -108,55 -110,155 76,-19 34,-19 118,-7 -21,-59 14,-91 -58,-52l88 -57c61,-40 21,8 27,-10 5,-20 15,-1 17,3 39,52 10,54 -28,76 -96,56 -57,82 -157,55l-19 -7c-61,-15 -72,14 -148,10 4,5 10,11 14,16 40,45 71,58 35,122l-13 23c-3,5 -16,45 -19,61z"/>
   <path class="fil3" d="M8912 10541l-209 55c98,15 129,-21 214,12 -32,50 -349,205 -408,233 -74,36 -156,64 -231,98 -273,127 -732,-134 -1356,-179l1 29c-61,128 216,140 270,152 878,194 -501,426 -948,667 -5,48 31,42 -7,42 16,115 6,24 65,80 57,55 10,6 -13,59 102,-7 187,-53 266,-94l635 -270c75,-34 123,-41 204,-96 3,-2 7,-5 10,-7l22 -10c113,-50 253,-109 343,-185 36,-29 -12,-3 15,5 0,1 4,3 5,3 1,0 5,2 6,2 1,0 6,1 6,1l38 -28c15,104 108,69 192,69 10,-27 22,-63 35,-87 109,44 -12,-42 33,25 2,3 5,9 7,13 3,4 5,11 6,15 2,4 3,12 6,17 -64,31 -201,47 -247,101 -2,2 -5,6 -7,8 -7,11 -7,11 -11,22 -12,30 -10,-3 -14,61 -63,0 -124,-4 -162,17 -22,12 -17,15 -53,34 -25,12 -41,16 -63,26 -7,4 -52,27 -58,29l-183 92c-3,2 -8,4 -10,6 -3,2 -8,5 -10,7l-18 15c-3,3 -12,14 -17,18l-334 159c-40,21 -11,16 -67,32 8,82 14,32 0,105l19 -15c67,-48 171,-61 232,-96l34 -21c30,-22 64,11 28,-60 58,0 103,-5 157,17 -30,26 -6,8 -36,46 -61,77 -168,64 -223,128 -3,4 -11,17 -15,21 -32,33 11,1 -32,27 -63,38 -64,-8 -95,57 112,0 169,-17 279,-17 9,-44 14,-39 18,-87 54,-4 57,-9 104,-18 -3,4 -9,2 -11,8 -7,33 -51,21 -24,79 74,-85 122,-19 122,-174 34,-9 48,-15 70,-35 46,-18 121,12 187,-19l29 -19c15,-5 10,0 62,3 -33,-85 27,-57 -17,-139 183,-8 0,6 93,-42 22,-12 82,-10 133,-10 36,-41 88,-63 122,-105 37,34 79,39 144,14 70,-28 69,-67 152,-83 -8,75 13,49 -52,69 42,45 35,93 35,157 -3,2 -9,2 -10,8 -1,5 -8,6 -10,7l-29 24c-20,19 -30,31 -48,52l-87 104c-65,99 -116,77 -199,206 82,-23 108,-99 245,-141l55 -18c84,-27 105,-65 158,-135l112 -130c64,-59 129,-20 92,-151 33,-4 13,1 51,-11l53 -24c60,9 25,10 30,17l6 14c13,61 -71,-8 -71,178 6,-2 12,-13 15,-9 2,3 10,-7 13,-10 3,-2 9,-6 12,-9l88 -72c2,-3 6,-6 9,-9l75 -101c73,-115 58,-22 127,-115 4,-5 11,-20 14,-26l177 -337c4,-3 2,-9 63,-9l-87 244c-4,3 -10,1 -12,7 -2,7 -19,11 -22,13l-57 58c-2,3 -4,8 -5,11l-206 338c-106,168 -62,186 -117,218 0,167 3,106 -35,142 -76,72 43,83 -86,84 0,241 -5,151 -105,243l-63 104c-46,133 -90,148 -157,249l-128 292c96,-61 77,29 69,-104l62 15c42,31 28,128 27,176 -1,54 -20,132 -20,133 -8,43 7,47 19,76 172,-11 30,-48 139,-69 0,13 0,27 -2,40l-16 99 88 0c-33,37 6,30 -70,35l0 105 105 -8c41,-8 44,-30 55,-69 8,-24 7,2 14,-63 97,-10 83,-72 146,-115l22 -45c2,-19 -4,-16 2,-63l18 -66c21,-57 27,-93 63,-141 34,-45 41,-69 28,-127l23 17c28,-123 98,-387 148,-493 102,-220 47,-226 99,-340l84 -66 -65 -38c75,-36 113,-242 58,-300 100,-73 32,-24 45,-103 11,-60 30,-26 53,-103 45,-150 -19,-63 88,-142 4,-134 -32,-16 10,-159 26,-88 14,-97 18,-169 4,-75 50,-250 70,-334 -111,-12 -92,7 -108,21l-31 43c-23,22 17,19 -39,17 1,-5 28,21 20,-46 -9,-72 29,-25 -71,-44 196,-15 238,58 247,-136 -77,-1 -170,-10 -240,12 -57,19 -125,54 -165,77 -8,34 -27,-17 6,18l35 21c-90,9 -108,33 -174,54 -59,19 -113,16 -189,39z"/>
   <path class="fil5" d="M11548 9823c7,48 -29,-21 5,27 16,22 15,12 19,13l-79 45c-22,18 51,12 -30,13 -31,7 -53,-39 -90,-32 -56,9 -84,36 -110,89 3,1 10,-3 12,1 18,49 21,-35 74,34l80 85c26,34 23,23 17,71l-35 6c39,-20 -16,-59 -52,-86 -56,41 -93,93 -109,169l-7 103c11,72 6,62 73,87 -22,29 -23,39 -44,68 -3,-1 -7,-8 -8,-6 -13,25 -13,-26 -93,-38 20,37 -23,70 85,51 -14,35 -25,66 -11,98 -25,-20 26,-19 -31,-7 -54,11 -18,5 -44,22 -4,3 -16,14 -20,18l-87 55c49,-89 46,-54 52,-156 -111,-8 -112,-19 -130,-123l46 -34c6,-4 10,-7 15,-11l34 -24c-84,-2 -35,20 -70,-70 -7,1 -17,-3 -22,6 -12,25 -70,15 -92,10 -3,0 -8,-3 -12,-3 -97,-12 -87,20 -77,92 0,-3 -3,-10 -3,-7l-125 22c32,13 49,43 87,2 -67,19 -34,-9 -40,50 -3,29 16,57 23,72 176,-18 1,-52 157,-54 -25,-19 4,-17 -7,2 -42,76 -5,45 -5,45 28,50 22,-42 23,32 1,88 25,-37 -8,23l-38 56c113,8 -9,-2 87,18 -16,48 -14,37 -17,104 143,16 276,138 408,66 35,-20 66,-39 69,-81 5,-91 4,-14 -11,-49 36,39 72,43 -2,124 -56,60 -39,-51 -51,79 79,43 32,34 139,29 18,-70 -6,-39 11,-85 5,-14 37,-63 46,-83 71,-3 -3,-6 70,18 -2,-1 -6,-1 -6,2 0,2 -5,2 -5,2 -27,34 -30,30 -8,80 32,69 55,45 123,69 54,-52 88,-118 165,-153 -3,5 -19,29 -20,33 -1,3 -3,9 -3,12l3 24c24,46 -33,15 28,19 64,4 11,32 51,-27 -37,97 -56,-5 -20,101 -70,-20 -21,-28 -83,-10 4,3 11,0 14,6l78 33 -102 49c48,40 167,83 235,47l-28 73 76 29c4,1 9,4 12,5l212 97c75,34 92,3 230,72 130,65 272,54 381,93 69,24 24,42 191,95l82 28c25,9 -2,1 38,14l116 43c126,60 233,35 344,101 40,24 -10,32 38,38l106 2c2,0 7,1 8,1 36,4 82,-20 125,13l17 22c11,35 7,15 -2,46l91 22c37,21 10,7 33,25 -6,-39 -1,-28 16,-71 3,4 6,7 7,15l12 29c1,4 3,10 4,13l5 20c15,33 -34,-25 16,21 65,60 64,-2 135,48l67 59c31,64 8,31 5,41 28,-52 10,-41 48,-45 66,-7 -46,34 65,10 -12,-46 8,-8 -40,-46 36,-13 20,3 37,-16 1,-2 4,-6 5,-8l22 -42c2,11 7,27 12,38 21,45 23,48 -10,99l222 102c59,34 -33,5 42,6l136 23c-15,-51 13,-57 -9,-128 -19,-63 18,-13 -26,-37 6,-32 21,-25 36,-50 1,-1 3,-7 4,-8 37,-59 -43,10 23,-26 21,-12 7,-4 13,-4 -19,38 -50,34 10,106 -44,21 -58,24 -61,71 -6,104 80,59 133,119 50,55 129,47 183,79 3,1 7,5 11,7l101 15c37,-1 -25,-28 22,7 48,36 103,62 127,-21l8 -128c-31,39 0,-48 -9,33 -7,58 50,33 -25,96l59 62c23,41 42,32 115,42l0 -441c-38,1 5,-22 -49,6 -4,2 -9,6 -13,9l-25 26c56,-14 4,-87 -80,-71l-38 26c-1,1 -3,6 -3,7l-1 20c-13,-27 11,-9 -35,-17 -47,-9 -38,12 -89,-29l-85 -76c0,2 -4,3 -4,5l-22 15c-91,34 45,2 -39,-7 -2,0 -7,-1 -9,-1 -109,1 -94,36 -100,60 23,-21 17,-52 29,-96 -5,2 -30,13 -35,14 -105,29 -75,2 -116,7 -56,7 -60,61 -90,59 -34,-75 -5,-88 5,-159 -78,13 46,7 -107,67 -7,-48 45,-51 -29,-77 104,15 74,21 99,-55 -135,-37 -57,94 -135,-6l94 -22c4,-1 9,-2 13,-3 18,-5 57,-24 91,-34 -112,-59 -12,-48 -149,-10 20,-11 28,-12 45,-23 20,-12 26,-17 37,-27 14,-40 9,-18 -14,-40l-17 11c-71,40 -81,46 -157,9l0 113c1,4 6,20 8,26 -93,51 -67,34 -86,19 -33,-28 -17,-12 -1,-80 -67,38 -53,46 -104,26 169,-46 7,-8 149,-102l75 -54c18,-13 44,-26 33,-64 -21,4 -35,19 -61,41 -7,5 -34,27 -38,29 -3,2 -8,5 -11,7 -3,2 -8,6 -10,7l-47 -13c-74,80 19,2 -40,23 -25,9 -26,19 -95,-9 9,58 9,17 18,34 14,27 47,15 1,35 -37,16 5,22 -49,4 -7,14 -22,25 -5,39l-71 1c-29,7 -25,29 -79,11l-36 -32c-18,-32 -4,2 -14,-44 -11,-48 12,-27 -12,-74l1 126c-102,-17 -122,28 -209,-14 -62,-30 -86,-70 -159,-60 -214,30 -40,-18 -251,-1 -33,3 -41,15 -49,-24 -1,-6 -4,-8 -7,-11l-195 -2c-117,2 -157,7 -185,-44 18,-62 -12,-1 32,-32l39 -21c-65,-60 -79,15 -34,-75 28,-56 168,-39 129,-200 -4,1 -9,4 -11,5l-63 29c42,-89 52,20 41,-120 -42,14 -9,8 -36,28 -2,2 -6,6 -9,8l-41 25c-4,1 -9,2 -12,4 -128,48 -74,94 -170,91l25 136c-65,-79 -251,-44 -359,-88l47 -119c4,-2 9,-3 13,-5 30,-14 46,-18 57,-56 9,-30 2,-16 1,-42l-1 -48c-46,29 -83,19 -134,39 -39,15 -14,20 -50,13l-38 -23c-32,45 3,48 -47,80 -46,31 -52,19 -114,19 -3,-5 -11,-17 -14,-21l-21 -31c-35,-49 -81,-109 -57,-178 13,-39 11,-38 40,-63 -3,-3 -9,-5 -11,-7 -2,-1 -8,-5 -11,-7 -41,-33 -82,-100 4,-117l72 88c28,24 -17,13 41,17l-27 -120c-1,-2 0,-8 0,-10 -1,-8 17,-54 -63,-37l-181 30 -25 -85c39,12 63,11 93,-13 -21,-55 -37,-31 -51,-96l77 1c14,81 -6,101 86,113 50,6 23,2 65,1 3,-4 5,-10 6,-13l11 -26c1,-4 3,-10 4,-14l12 -40 60 32c2,-3 8,4 12,7 -65,-5 -22,-13 -70,35l97 34c2,1 7,3 9,4l24 12c34,21 18,14 30,23 -19,14 -20,19 -35,35 -49,53 65,-68 -26,28l29 66c-40,72 -75,22 -31,102 48,88 -4,37 88,27 -10,-54 -36,-63 -45,-105 5,-1 12,1 15,1l28 1c84,6 -53,22 32,3 95,-21 -74,52 26,-25l17 -11c3,-1 8,-4 11,-5 59,-26 94,-31 114,-68l-72 14c-4,1 -9,3 -13,4 -38,11 -24,19 -53,9 -52,-19 30,-59 -17,-163l-13 -26c-1,-7 -4,-8 -6,-12 42,2 -4,-8 26,15l28 23c3,-5 10,10 16,14 -5,-93 -10,-27 31,-67l21 -12c27,19 17,0 35,42l70 -41c-3,5 -11,18 -12,20l-6 13c5,4 9,10 13,14 36,37 61,70 124,58l69 -11c1,0 5,1 7,2l48 17c-8,-13 -25,-31 -29,-35 57,-46 39,-7 49,-70 -35,-36 -60,-65 -123,-61 -146,10 -53,13 -88,70 -12,-63 -58,-82 -98,-124l-40 -42c-12,23 -34,73 -1,88 -61,2 -72,47 -122,34 24,-113 78,-109 126,-114 165,-13 0,35 187,45 -96,-138 -48,-50 -142,-122 3,-1 6,-6 7,-7l31 -29c95,-53 21,-10 45,-9 70,3 1,58 27,6 3,-4 10,4 15,4 5,-50 -5,16 -3,-35 5,-113 119,-90 144,-78 59,29 -43,-36 18,18l218 -38 -12 -128c3,46 37,52 78,83 12,10 22,18 27,21l0 157c29,-30 24,-26 64,-52 -14,60 -19,59 11,86l43 106c186,107 3,-23 143,-36 26,19 -30,3 53,18 3,-5 5,-12 7,-16 3,-4 5,-11 8,-15l42 -38c1,-5 8,-3 12,-4 -19,-57 -24,-38 -31,-49 -38,-55 -35,3 -5,-66l-78 3c-3,1 -8,2 -12,3l-60 25c52,-79 48,-37 77,-83l-4 -56c6,24 11,20 -54,34 -1,-6 0,-14 0,-19 0,-5 0,-12 0,-18l-4 -62c105,16 116,-17 206,12 -3,-4 -22,-27 -25,-32l-26 -49c-1,-2 -2,-7 -3,-9 -1,-3 -3,-8 -4,-10 -1,-2 -22,-31 -22,-32 -68,-68 -10,11 -71,-45l-18 -21c-4,-4 -20,-26 -20,-29 -2,-9 -7,-11 -11,-16 -39,26 51,-54 -22,24 -40,42 -1,25 -39,40 -2,-2 -115,-48 17,-51 -22,2 -67,-26 -77,99 0,2 0,7 0,10l2 25c0,1 1,6 1,8l3 45c0,1 -2,5 -2,6 -1,1 -3,5 -3,5 -8,47 -36,-36 5,15l49 74c-107,-53 -80,-60 -87,-142l-117 16c26,-27 23,-23 -1,-92l-17 -38c-202,-16 -130,26 -415,16 -30,72 -53,43 -75,139l-9 94c0,0 50,21 -6,3 0,77 -2,-20 -35,0 42,-29 50,-58 64,-105l-36 -13c-61,-18 -42,0 -76,15 -84,38 -48,-19 -106,64l-31 -42c-2,-7 -4,-9 -6,-13 -4,3 -9,7 -12,8l-61 16c55,19 21,7 44,-70 -12,-18 -48,-63 -48,-63 -37,-58 15,57 -6,-16l-4 -24c-155,9 -106,24 -193,9 -18,-3 -31,-5 -49,-6 -36,-3 -69,-1 -107,-4 -1,2 1,6 2,7 22,137 -15,112 -42,131 -66,46 14,87 -73,78 33,-54 16,-48 34,-86 24,-48 0,-9 31,-41 22,-22 8,33 23,-19 2,-8 9,-7 13,-10 -41,-1 -72,-2 -109,26 16,-54 39,-30 55,-82 -140,11 -502,-20 -563,-2z"/>
   <path class="fil6" d="M11276 12578c13,88 -2,27 25,71 35,58 22,12 85,89l67 91c43,58 61,66 68,112l-8 65c0,0 2,-41 59,8 32,29 -16,18 81,81 -1,3 -65,48 20,97 4,2 53,19 69,37l120 167c2,4 4,8 7,12l19 32c2,3 5,7 7,10l34 72c16,43 -35,11 53,47 0,4 -3,10 -4,13l-7 22c0,2 -2,7 -2,9 -1,17 -25,-3 36,31 48,27 7,-6 43,26l1205 0 -86 -84c-83,-58 -127,-131 -209,-209l-250 -238c-52,-58 -6,59 -26,-43 -42,30 5,0 6,-3 28,-73 -24,-67 17,-123 -73,-8 -101,1 -98,-73 81,-8 97,36 147,75l82 42c52,24 74,63 114,92 89,63 -57,-34 23,13l260 126c4,2 17,7 20,8 2,0 7,1 9,1 60,17 -19,-45 25,11 2,3 9,16 11,19l15 26c8,-92 27,-79 -18,-145 -46,-67 -55,-45 -102,-93 -62,-63 14,35 -32,-52 -15,-29 -3,-9 -18,-34l-25 -63c-6,-46 -2,-13 -11,-64l518 239c65,22 8,13 85,31 2,-4 2,-10 2,-12 1,-2 2,-9 2,-11l114 -45c-4,-4 -9,-9 -12,-12l-142 -96c-76,-49 -28,0 -81,-55 -2,-2 -5,-6 -6,-8 -2,-2 -11,-10 -12,-17 -1,-5 -4,-7 -6,-10 14,-3 38,-5 53,-10 41,-14 13,2 41,-22 -81,-3 -50,12 -89,-32 30,-30 40,-28 88,-44l85 -25c-32,-58 -95,-95 -124,-105 -150,0 -253,-35 -366,-35l46 -111 110 -30c94,-2 203,20 293,-14 44,-17 18,9 39,-19l99 89c48,26 43,18 99,62l89 69c176,94 166,82 336,118l61 18c32,4 21,-3 39,-6 34,-5 52,1 115,-1 -15,-51 -51,-79 -104,-107 -19,-9 -48,-21 -71,-35l-51 -36c-64,-42 -213,-70 -246,-153 67,-79 102,17 191,-33 24,37 18,54 53,68 15,-36 19,-36 -17,-75 145,30 438,175 586,242 61,27 144,50 188,88 147,27 369,169 549,215l0 -348 -632 -206c-40,-27 -25,-25 -99,-54 -94,-37 -151,-61 -237,-95 -31,-12 -40,-15 -64,-23 -38,-13 -12,-3 -39,-14 -5,-2 -20,-8 -24,-10 -45,-21 -63,-37 -126,-51 -261,-62 -484,-245 -749,-268l58 39c93,47 134,32 256,106l363 152c123,39 90,80 149,41l-6 46c0,-1 0,3 0,5 -48,24 -108,7 -172,-6 -35,-6 -12,1 -40,-11 -4,-1 -8,-4 -11,-5l-20 -14c-105,-66 -115,-22 -234,-61 -57,-19 -101,-37 -159,-49 4,3 9,7 12,9 3,2 8,6 12,9l156 80c54,36 17,6 47,42l-400 -155c-92,-55 -28,-48 -166,-48l46 42c5,4 20,14 25,16 19,11 -36,18 34,5 82,16 67,16 109,108 17,37 59,91 3,100 -34,37 -15,29 -94,38 -263,30 -271,-32 -280,68 -11,-49 -2,-43 -60,-71 -50,-24 -127,-19 -177,-63 -73,-62 -40,-6 -59,-103l92 24c4,2 8,4 12,5 48,17 2,37 101,10l21 -92c-34,-51 -5,-51 -86,-42 -43,5 -42,58 -54,29 -1,-2 -5,5 -8,6 -41,-28 -22,-2 -16,-58l-157 -11c-54,-20 -152,-15 -157,-103 -20,31 29,41 -73,27 -80,-11 -128,-71 -212,-90l-240 -78c-69,-16 -36,-6 -59,7 21,92 -5,19 49,54l23 12c64,42 73,83 159,87 -25,128 5,29 35,138 40,-4 25,-10 41,-20 130,-81 -53,4 41,-30 97,51 141,24 209,125 -15,42 -28,24 -51,35 14,33 31,36 53,52 -67,-1 -53,-2 -105,-17l72 134c0,2 2,6 3,8 78,104 213,-3 207,228l-67 -30c-46,-15 -82,-12 -118,-38l-158 -103c-3,-3 -7,-6 -10,-8l-235 -147c-54,-31 -94,-56 -161,-57 106,64 -2,3 28,57 61,108 162,40 167,190 -245,0 -244,-42 -299,-119 -27,-36 -83,-57 -117,-92 -57,-59 -86,-52 -144,-98 -15,-11 -30,-33 -34,-36 -37,-30 -23,-20 -86,-21 43,149 103,76 122,217 5,35 8,70 9,106 97,25 63,52 104,108 155,204 168,44 169,197 123,-6 66,-22 110,47l69 85c56,65 1,43 110,134 27,23 16,13 37,39 -29,78 5,23 -70,52 24,46 18,37 19,104l-140 70c2,83 57,87 5,118 -3,2 -8,4 -12,6 -83,25 -47,-3 -70,-11 -115,-35 52,10 -40,-13l-184 -68c-3,-2 -8,-5 -10,-7l-12 -16c-36,-65 13,-2 3,-38 -89,37 34,28 -86,28l-428 -563c-38,-49 -39,-33 -83,-76 -2,-2 -5,-6 -8,-9 -2,-2 -5,-6 -8,-9 -2,-2 -6,-6 -8,-8l-71 -43z"/>
   <path class="fil4" d="M5683 9399l0 77c-35,-20 -25,-46 -55,-65l-50 81c0,-2 -1,7 -2,10l48 44c36,45 25,-38 21,61l48 59c40,64 -21,27 52,74l27 16c-57,9 -63,-2 -107,14 97,62 54,15 145,45 -4,4 -12,2 -14,9 -17,48 -37,-7 -63,49 54,35 128,28 186,38 61,10 118,60 160,79 6,-12 23,-42 23,-43 22,-50 71,-81 71,-136l106 86c-20,23 -48,68 5,64 42,-3 26,-22 68,4 7,59 -26,87 -80,82 -16,-43 -20,32 8,-14 20,-33 17,11 12,-20 -40,-29 16,-9 -28,-4l-53 9c-4,0 -18,-4 -23,-5 -1,0 -6,-11 -48,-13l2 90c26,0 25,-32 105,17l109 87c-15,1 -27,5 -47,9 -46,10 14,19 -59,11l13 81c-1,6 -7,22 -9,27l-13 26c65,48 47,13 57,126 44,-14 -10,2 24,-12 4,-2 8,-7 32,-11 16,93 37,54 1,153 25,20 -4,9 35,23l98 9c2,1 8,1 11,4 1,113 7,10 -63,110l3 158c3,6 73,-17 4,110 -90,-46 -57,-10 -63,-138 -31,-15 0,-1 -32,-8 -23,-6 -8,6 -37,-9 -8,-57 -20,-88 28,-121l96 -51c-49,-74 -58,-31 -151,-49 -75,-15 -64,-49 -164,-16 -4,64 33,38 30,90 -1,24 -67,21 33,75 -24,47 -32,67 -33,130l124 13c-2,89 2,-9 -39,91 45,23 51,26 63,85 1,0 1,-5 1,-4 4,37 -11,-27 30,-14 11,179 -37,205 -196,110l-314 -81c-49,-62 47,11 -17,-14 -98,142 126,18 -14,145 -23,-5 -32,-17 -32,-17 6,-55 60,10 11,-56 -56,-73 -108,-13 -165,25 11,-93 -74,-67 -127,-72 -27,-3 -77,-28 -91,-1 -72,5 -55,9 -122,14 -3,5 -7,20 -8,23l-11 31c-1,3 -2,7 -3,10 -2,3 -6,13 -8,17l-9 37c-2,52 32,-24 4,43 -66,26 6,21 -101,40 -141,25 -4,4 -79,-10 -33,103 26,101 -24,178 -84,128 24,-106 -23,31 10,11 5,26 61,47l69 18c75,17 -29,0 21,5 56,6 -46,29 33,-8 4,-2 16,-10 21,-12 77,-38 186,-62 266,-48l47 4c1,0 5,-1 6,-1l52 -34 46 42c3,3 8,7 12,11 34,-111 47,42 70,-86 16,57 24,37 40,45 -32,81 -30,-11 -52,82 -34,-77 30,-20 -63,-65 2,89 3,117 -74,146 -5,2 -20,8 -25,10l-320 71c5,6 13,4 18,14 4,10 11,11 17,13l310 -41c118,-31 197,-57 288,-119 -11,122 9,11 -53,99 -2,3 -19,30 -25,37 92,-19 159,-50 242,-78 90,-29 144,-76 238,-89 447,-241 1826,-473 948,-667 -54,-12 -331,-24 -270,-152l-1 -29c-4,-46 17,-67 28,-103 -4,-4 -9,-16 -11,-13 -13,26 -18,-23 -18,-24l-17 -40c20,-22 -48,-15 75,-17l291 13c-52,-69 -44,3 -124,-79 -43,-44 -18,-2 -45,-70 -16,-42 -7,-14 -10,-49 -90,2 -22,76 -183,44 -24,-4 -69,-10 -117,-21 -50,-11 -41,-12 -99,-5 33,-16 49,-15 58,-46l1 -46c2,-7 5,-18 10,-30 57,-150 -8,-54 42,-157 -31,4 -21,-1 -37,-17 17,-47 6,-44 32,-88 49,-1 -9,17 71,-17l-11 -28c-2,-3 -4,-9 -6,-12 -50,-95 38,20 -22,-30l63 -62c1,-7 6,-8 9,-12l10 43c1,5 2,10 4,14 8,28 -15,4 18,47 123,-30 40,-32 70,-91 25,9 60,24 87,35l9 -40c-2,-52 -7,-6 -9,-3 61,32 18,10 77,25 25,6 10,-4 55,35 2,2 7,6 9,8 79,69 18,52 57,101 57,-12 57,-13 110,-84 31,-43 9,-12 11,-15 1,-2 4,-6 5,-8 2,-3 7,-12 8,-16 11,-31 10,-19 3,-36 30,36 -42,46 58,22 84,-20 38,-17 54,-50 -52,-31 -80,-22 -80,-22l-210 -8c-105,-7 -183,8 -287,4l18 -53c11,80 -53,51 132,48l155 1c53,-9 59,-24 85,-39 -33,-50 6,-48 -87,-56 -83,-8 -185,20 -324,-14l-12 -92c-58,-29 -112,-21 -186,-66 -73,-44 -10,-24 -103,-36 -171,-21 -54,-36 -311,11 -104,20 -70,91 -160,40 -56,-16 1,4 -32,-36l-90 -86c-59,109 60,68 -59,95 -1,-10 1,-118 4,-142 5,-47 29,-72 6,-124 -2,-1 -7,0 -8,0l-30 1c-3,1 -10,9 -52,10 -15,-19 -56,-127 -139,-29 -72,84 0,81 -40,204l-13 26c-8,-20 -6,-20 -13,-38 -15,-36 -6,-18 -19,-38z"/>
   <path class="fil2" d="M5290 9119l-17 58c20,20 32,-17 28,33 -3,33 -20,11 31,82 25,-42 2,-45 33,-98l60 -82c44,24 5,19 39,31 69,27 68,-45 220,30 -5,45 -8,82 4,121 1,3 4,7 5,9 0,2 3,7 4,9 0,0 18,0 1,54 -31,99 7,-58 -15,33 13,20 4,2 19,38 7,18 5,18 13,38l13 -26c40,-123 -32,-120 40,-204 83,-98 124,10 139,29 42,-1 49,-9 52,-10l30 -1c1,0 6,-1 8,0 23,52 -1,77 -6,124 -3,24 -5,132 -4,142 119,-27 0,14 59,-95l90 86c33,40 -24,20 32,36 90,51 56,-20 160,-40 257,-47 140,-32 311,-11 93,12 30,-8 103,36 74,45 128,37 186,66l7 -1249 -37 -73c-17,48 -33,78 -37,140 -87,6 -67,18 -110,27 -46,10 -51,-5 -110,-10 -60,-116 -76,-86 -70,-137 5,-37 1,-1 46,-39l18 -14c17,-18 4,-5 14,-26 17,-34 -32,18 17,-33l81 -40c62,-15 46,13 95,-22 3,-21 6,-15 1,-32 0,-3 -3,-11 -3,-13 -1,-2 -5,-7 -6,-11l-122 0 -79 -95c-79,-65 -191,-46 -308,-38l-70 135c-48,-34 -21,-13 -52,-66l-47 69c-38,-3 -109,-12 -137,-16 -85,-14 -5,-116 -295,-64 -203,36 3,66 -271,72 -14,1 -38,1 -52,3l-54 19c-4,2 -8,5 -12,7 -176,83 -96,4 -38,292l-106 102c-62,67 -38,7 -86,72 36,87 -8,-8 45,43 21,20 4,-4 25,27 1,0 15,28 18,33 201,0 371,-33 468,55l28 25c52,47 13,-35 42,43 -32,21 -84,20 -120,21 -36,64 30,125 -262,104 -26,44 -26,44 -40,51 -1,0 -5,1 -6,2 -14,8 -44,30 -23,66 65,51 79,-92 87,87 0,0 -101,50 -77,-5z"/>
   <path class="fil6" d="M5662 12076c91,36 250,-57 289,-43l-214 125c-70,42 -149,87 -248,106l116 39c42,13 13,4 58,12l61 14 -126 55c-51,24 -91,42 -144,66l-244 142c16,5 26,5 29,7l19 30c1,3 2,9 4,14 100,-8 104,33 233,-6 92,-27 157,-9 220,-76 14,13 34,32 50,47 -34,30 -79,60 -110,97 -21,25 -35,75 -65,76l-27 -14c-2,-1 -6,-5 -9,-8 -4,51 -1,71 -29,94 -70,55 -61,-58 -75,68 21,15 -8,24 75,24 115,0 50,-13 96,-47 1,-1 30,-21 31,-21 53,-29 116,-31 173,-56 130,-58 16,0 77,-79 165,-12 119,23 237,1 3,-1 7,-3 10,-3l174 14c34,5 72,2 106,1 27,57 -20,-44 7,37l28 47c77,-35 127,-113 204,-122 -35,32 -58,45 -84,102l159 -87c54,25 59,114 96,22 13,85 19,21 4,98 -5,2 -49,7 -88,39 33,15 58,15 88,26l-97 6c-45,12 -10,-4 -38,17 26,1 63,0 88,3l62 13c-64,23 70,-29 -22,1 -50,16 -48,47 -98,81 19,53 -20,38 50,47 -71,21 -31,-4 -76,68 -50,82 -9,43 -98,92 -15,8 -35,83 -62,59 -13,-11 -9,-22 -9,-27 2,114 -1,82 -88,109 72,17 105,95 201,-30l42 -10c2,1 9,5 12,7l50 61c38,-13 24,-13 59,-34 89,-53 138,-125 234,-155 17,61 30,53 -23,69 84,10 11,-11 70,-13 47,-1 -10,-23 32,6 -22,49 -3,29 -58,45 -5,1 -63,3 -73,3l136 27c-19,43 -40,65 -41,117 34,17 59,13 90,25 72,29 41,-23 53,69 10,-11 18,-21 32,-36 48,-55 90,-49 145,-93 -6,-109 -21,136 -32,-58l177 -43c-6,16 -76,9 12,-59l128 -38 52 76c61,-41 90,-111 129,-170 45,-69 -15,-36 54,-47 43,-14 10,6 43,-28 18,-18 4,-4 23,-32l204 -353c42,-79 57,-60 87,-171l-95 66c-120,127 -76,200 -131,214l58 -261c-1,-7 -4,-10 -6,-14 -105,45 -100,216 -256,271 -149,53 -66,30 -140,129 -12,15 -41,44 -60,63 -48,53 -35,43 -67,47 -1,-56 22,6 -8,-71l-120 -9c10,-3 46,7 86,10 -3,-18 -11,-62 -11,-62 7,-82 3,9 27,-52 29,-73 17,-3 0,-25l104 -2c0,-91 18,-148 18,-259 -134,22 -282,233 -385,327l4 -139c-254,16 -234,246 -411,249 46,-144 211,-189 262,-275 21,-36 4,8 24,-59 -142,-173 -60,-49 -100,-274 0,-4 -2,-10 -3,-13 0,-3 -4,-7 -4,-13 -1,-7 -3,-10 -5,-14 -61,28 -62,17 -62,104 -81,-35 -62,-19 -118,19 -174,117 -86,71 -172,144 -92,77 -66,33 -68,59l12 -56c-7,-73 -20,40 0,-37 1,-4 17,-36 20,-43 -111,10 -39,-1 -88,33l-39 -121c-1,-8 -4,-10 -8,-15 -385,-19 -294,187 -430,44 197,-118 -17,-24 229,-167 42,-25 203,-138 221,-182 -31,-18 -83,-9 -121,5 -84,29 -19,17 -82,55 -48,30 -195,38 -259,51 24,-68 53,-67 72,-82 58,-45 88,-135 251,-169l-49 -14c-64,-11 29,28 -38,-2 21,-56 67,-42 87,-87 -32,-23 -27,-23 -86,-19 2,-2 34,-34 34,-34 34,-45 -12,47 26,-46 -66,12 -159,17 -213,39l-501 212c-29,20 -9,2 -30,30z"/>
   <path class="fil7" d="M13253 13670l1465 0c-4,-4 -12,-16 -15,-19 -61,-74 -105,-55 -58,-103 -2,3 -8,1 -10,6 0,1 -41,23 -80,-18 -65,-68 -15,-18 -81,-55 -57,-31 -80,-85 -204,-150 -32,-17 -22,-8 -38,-25l-22 -29c-2,-2 -5,-7 -7,-10l-149 -102c30,-88 15,-39 156,-5l-17 -103c69,14 -21,6 48,21 1,0 30,29 88,-17 -17,-60 -72,-85 -117,-101l-77 -47c-3,-2 -6,-6 -9,-8l-21 -16c-33,-21 12,-4 -47,-20l7 -32c-1,-70 1,-26 -7,-23l227 84c74,15 100,10 141,-12 78,-39 -25,-10 27,-10l424 202 35 -17c94,-12 74,46 87,-53 33,12 11,29 71,20 51,-8 13,6 51,-20 -8,-112 -3,-56 -238,-185 -55,-30 -218,-103 -250,-144 -37,20 -2,22 0,-9l0 -27c43,98 -10,-12 126,51l34 18c4,2 8,4 12,6 5,2 9,4 14,5 36,14 19,7 55,16 6,2 23,6 29,7 5,1 9,2 14,3 6,1 10,2 15,3l149 42c11,-27 1,-42 31,-70 -44,-38 -127,-61 -188,-88 -148,-67 -441,-212 -586,-242 36,39 32,39 17,75 -35,-14 -29,-31 -53,-68 -89,50 -124,-46 -191,33 33,83 182,111 246,153l51 36c23,14 52,26 71,35 53,28 89,56 104,107 -63,2 -81,-4 -115,1 -18,3 -7,10 -39,6l-61 -18c-170,-36 -160,-24 -336,-118l-89 -69c-56,-44 -51,-36 -99,-62l-99 -89c-21,28 5,2 -39,19 -90,34 -199,12 -293,14l-110 30 -46 111c113,0 216,35 366,35 29,10 92,47 124,105l-85 25c-48,16 -58,14 -88,44 39,44 8,29 89,32 -28,24 0,8 -41,22 -15,5 -39,7 -53,10 2,3 5,5 6,10 1,7 10,15 12,17 1,2 4,6 6,8 53,55 5,6 81,55l142 96c3,3 8,8 12,12l-114 45c0,2 -1,9 -2,11 0,2 0,8 -2,12 -77,-18 -20,-9 -85,-31l-518 -239c9,51 5,18 11,64l25 63c15,25 3,5 18,34 46,87 -30,-11 32,52 47,48 56,26 102,93 45,66 26,53 18,145l-15 -26c-2,-3 -9,-16 -11,-19 -44,-56 35,6 -25,-11 -2,0 -7,-1 -9,-1 -3,-1 -16,-6 -20,-8l-260 -126c-80,-47 66,50 -23,-13 -40,-29 -62,-68 -114,-92l-82 -42c-50,-39 -66,-83 -147,-75 -3,74 25,65 98,73 -41,56 11,50 -17,123 -1,3 -48,33 -6,3 20,102 -26,-15 26,43l250 238c82,78 126,151 209,209l86 84z"/>
   <path class="fil8" d="M5075 10274c-75,2 -15,-7 -38,15l-36 54c-4,-70 21,-50 -52,-52l14 59c0,1 0,6 0,8 4,60 -50,-21 7,28l101 -43 -4 136c-8,38 -1,18 -14,39l52 2c2,-18 -18,-77 65,-77l20 14c1,-2 4,6 3,8 14,-59 -7,16 -87,-87 32,-12 45,-10 80,-29 13,-7 49,-39 51,-43 49,-89 -21,29 11,-63 2,-4 17,-29 19,-32 57,-72 -74,46 30,-24 48,-13 68,32 90,37l51 6c3,1 12,9 15,4 3,-5 11,2 16,5 -12,11 -15,21 -51,37 -50,21 -20,9 -56,8l28 45c2,1 10,0 14,-3 14,93 -8,3 -55,70l128 58c-9,10 -20,4 -23,44l3 34c9,47 44,34 7,33 -26,82 46,26 -78,52 -71,16 8,-44 -62,16 -43,37 -23,78 -71,94l39 8c21,11 4,-32 19,19 25,82 -1,28 -23,69 -62,117 15,151 26,165 -64,14 -38,-8 -52,20 3,-6 -62,-45 17,-4 45,22 7,-7 35,36 -31,25 -55,39 -69,77 14,-33 -2,-49 191,-59 -37,69 9,23 -52,73 14,-27 64,-2 91,1 53,5 138,-21 127,72 57,-38 109,-98 165,-25 49,66 -5,1 -11,56 0,0 9,12 32,17 140,-127 -84,-3 14,-145 64,25 -32,-48 17,14l314 81c159,95 207,69 196,-110 -41,-13 -26,51 -30,14 0,-1 0,4 -1,4 -12,-59 -18,-62 -63,-85 41,-100 37,-2 39,-91l-124 -13c1,-63 9,-83 33,-130 -100,-54 -34,-51 -33,-75 3,-52 -34,-26 -30,-90 100,-33 89,1 164,16 93,18 102,-25 151,49l-96 51c-48,33 -36,64 -28,121 29,15 14,3 37,9 32,7 1,-7 32,8 6,128 -27,92 63,138 69,-127 -1,-104 -4,-110l-3 -158c70,-100 64,3 63,-110 -3,-3 -9,-3 -11,-4l-98 -9c-39,-14 -10,-3 -35,-23 36,-99 15,-60 -1,-153 -24,4 -28,9 -32,11 -34,14 20,-2 -24,12 -10,-113 8,-78 -57,-126l13 -26c2,-5 8,-21 9,-27l-13 -81c73,8 13,-1 59,-11 20,-4 32,-8 47,-9l-109 -87c-80,-49 -79,-17 -105,-17l-2 -90c42,2 47,13 48,13 5,1 19,5 23,5l53 -9c44,-5 -12,-25 28,4 5,31 8,-13 -12,20 -28,46 -24,-29 -8,14 54,5 87,-23 80,-82 -42,-26 -26,-7 -68,-4 -53,4 -25,-41 -5,-64l-106 -86c0,55 -49,86 -71,136 0,1 -17,31 -23,43 -42,-19 -99,-69 -160,-79 -58,-10 -132,-3 -186,-38 26,-56 46,-1 63,-49 2,-7 10,-5 14,-9 -91,-30 -48,17 -145,-45 44,-16 50,-5 107,-14l-27 -16c-73,-47 -12,-10 -52,-74l-48 -59 -52 -65c-56,53 -41,-5 -20,121l3 71 -168 -120 47 -21c22,-29 -17,2 4,-52 1,-4 35,-52 -5,-92 -108,41 15,-10 -75,86 -35,38 -24,-2 -66,59 -22,109 16,20 -3,104 -16,74 -30,39 -30,39 4,-3 19,-10 23,-11l46 -10c-1,16 -12,74 -13,79l-95 190c-50,52 -53,20 -99,52 50,-20 72,-6 99,10 -37,21 -79,97 -107,70 -16,95 6,33 -37,104 159,-119 107,-107 165,-87l4 42c-11,46 -46,47 -72,59l-52 31c-2,1 -10,12 -12,8 -2,-4 -9,6 -14,9 50,18 17,88 7,147 -68,-47 -99,-82 -48,-156z"/>
   <path class="fil9" d="M4339 8434l0 332 37 57 88 -31 29 93c5,1 31,0 35,1 81,10 70,23 96,30 95,25 37,-34 122,45 24,21 18,18 49,40 25,18 32,11 46,44 30,70 -16,33 28,62 18,12 12,4 16,0 -24,99 -44,71 -84,157 78,-9 110,-72 210,-4 -47,-168 6,-78 41,-227 10,-41 -14,-22 19,-74 32,43 34,99 38,165 51,28 42,-58 53,66 15,-27 12,-32 32,-64l40 40c24,-84 -14,-27 56,-47 -24,55 77,5 77,5 -8,-179 -22,-36 -87,-87 -21,-36 9,-58 23,-66 1,-1 5,-2 6,-2 14,-7 14,-7 40,-51 292,21 226,-40 262,-104 36,-1 88,0 120,-21 -29,-78 10,4 -42,-43l-28 -25c-97,-88 -267,-55 -468,-55 -3,-5 -17,-33 -18,-33 -21,-31 -4,-7 -25,-27 -53,-51 -9,44 -45,-43 48,-65 24,-5 86,-72l106 -102c-58,-288 -138,-209 38,-292 4,-2 8,-5 12,-7l54 -19c14,-2 38,-2 52,-3 274,-6 68,-36 271,-72 290,-52 210,50 295,64 28,4 99,13 137,16l47 -69c31,53 4,32 52,66l70 -135c117,-8 229,-27 308,38l79 95 122 0c1,4 5,9 6,11 0,2 3,10 3,13 5,17 2,11 -1,32 -49,35 -33,7 -95,22l-81 40c-49,51 0,-1 -17,33 -10,21 3,8 -14,26l-18 14c-45,38 -41,2 -46,39 -6,51 10,21 70,137 59,5 64,20 110,10 43,-9 23,-21 110,-27 4,-62 20,-92 37,-140l37 73 -1 -294c-105,-59 -76,-92 -114,-199 -105,42 -24,31 -74,129 -44,-12 -52,-33 -104,-77 -34,-29 -52,-44 -87,-59 -166,-20 -156,45 -318,0 -182,-50 -253,-34 -276,-40 7,-137 -7,-55 64,-122 -8,-82 -4,-130 -49,-194 -98,-139 -198,24 -300,102 -54,42 -61,23 -60,109 1,185 120,-1 103,209 -50,25 -19,2 -56,46 -145,-45 -186,-8 -355,-35 -3,0 -8,-1 -11,-1 -118,-15 -62,3 -150,-54 -63,-40 -93,-40 -153,9 30,106 12,58 92,88l-5 79c-39,21 -62,20 -124,21l9 65c-155,23 -233,19 -291,89l-16 24c95,111 120,78 118,159 -109,7 -133,-22 -229,-18 -92,5 -110,39 -209,40z"/>
   <path class="fil10" d="M13723 6865c17,45 1,29 39,68 46,0 214,-58 333,-59 85,-1 47,10 103,36 63,5 -7,-31 138,-56 65,-10 109,-27 179,-32 0,180 -165,179 -265,177 -80,107 -152,66 -160,245 94,-10 57,-31 195,-34l187 -40c87,-34 -16,-11 93,-68 4,-2 9,-4 13,-5 3,-2 8,-4 12,-5l21 -13c72,-51 61,-84 144,-10 -26,127 -46,-25 -54,104 -3,55 30,73 37,126 12,89 -44,143 -81,194l-24 37c-105,2 -78,8 -247,94 -16,66 1,52 -34,103 -29,42 -56,39 -75,65 -24,31 -18,63 -30,107 -21,75 -31,42 -43,108 46,-44 47,-84 107,-99 -38,51 -94,103 -87,190 40,-48 -4,-44 115,-157 23,-22 41,-42 80,-62 170,-90 15,-29 183,-101l45 -34c3,-2 6,-6 9,-9 57,-55 55,-37 103,-71 72,-52 -37,-45 101,-50 48,63 4,102 29,158 15,35 10,12 24,46 32,10 -29,35 21,-18l27 -29c-10,101 12,28 33,119l-25 -60c-2,-5 -5,-8 -7,-14 -20,-56 -13,-14 -15,-85 3,-2 8,-11 10,-8 16,36 -13,-41 136,-84 60,-17 87,-30 126,-88 39,-139 -67,-140 44,-291l-90 -41 -102 43c-24,26 28,14 -46,45 -77,31 -116,-40 -164,-67 73,-230 -77,-200 -163,-345 29,-99 131,-188 218,-222 49,-19 -25,-8 67,-21 38,-5 113,-2 155,-2 0,-184 -123,-242 105,-242l1 -122c141,-5 23,-47 417,-54l0 -104 -1089 0 -174 395c-14,41 -31,98 -36,153 -33,2 -151,18 -176,31 -65,33 -1,8 -54,51 -60,49 -12,-12 -102,56 -54,41 -189,51 -307,51z"/>
   <path class="fil1" d="M4339 9890l39 -7 4 80c26,115 59,147 148,154l40 -83c50,-93 -63,40 18,-25 67,-54 -10,13 46,-10 31,-14 -19,-23 123,-21 -2,-6 -14,-45 -13,-49 2,-55 -53,21 41,-45 31,-23 -1,16 35,-28l-124 -60c-113,69 -47,-6 -124,33 49,-69 52,-36 48,-112 10,3 38,16 42,16 34,5 23,-3 44,-15 4,-2 7,-6 12,-8 38,-21 -35,-12 74,-28 -21,38 -8,-2 6,15 59,70 50,48 116,38 -1,0 -3,-1 -3,0l90 -71c-4,55 8,83 -10,139l156 50c34,10 0,-31 32,24l6 26c-53,32 -23,17 -114,5l30 53c40,74 30,-44 8,19 -40,19 -61,37 -66,136l32 158c-51,74 -20,109 48,156 10,-59 43,-129 -7,-147 5,-3 12,-13 14,-9 2,4 10,-7 12,-8l52 -31c26,-12 61,-13 72,-59l-4 -42c-58,-20 -6,-32 -165,87 43,-71 21,-9 37,-104 28,27 70,-49 107,-70 -27,-16 -49,-30 -99,-10 46,-32 49,0 99,-52l95 -190c1,-5 12,-63 13,-79l-46 10c-4,1 -19,8 -23,11 0,0 14,35 30,-39 19,-84 -19,5 3,-104 42,-61 31,-21 66,-59 90,-96 -33,-45 75,-86 40,40 6,88 5,92 -21,54 18,23 -4,52l-47 21 168 120 -3 -71c-21,-126 -36,-68 20,-121l52 65c4,-99 15,-16 -21,-61l-48 -44c1,-3 2,-12 2,-10l50 -81c30,19 20,45 55,65l0 -77c22,-91 -16,66 15,-33 17,-54 -1,-54 -1,-54 -1,-2 -4,-7 -4,-9 -1,-2 -4,-6 -5,-9 -12,-39 -9,-76 -4,-121 -152,-75 -151,-3 -220,-30 -34,-12 5,-7 -39,-31l-60 82c-31,53 -8,56 -33,98 -51,-71 -34,-49 -31,-82 4,-50 -8,-13 -28,-33l17 -58c-70,20 -32,-37 -56,47l-40 -40c-20,32 -17,37 -32,64 -11,-124 -2,-38 -53,-66 -4,-66 -6,-122 -38,-165 -33,52 -9,33 -19,74 -35,149 -88,59 -41,227 -100,-68 -132,-5 -210,4 40,-86 60,-58 84,-157 -4,4 2,12 -16,0 -44,-29 2,8 -28,-62 -14,-33 -21,-26 -46,-44 -31,-22 -25,-19 -49,-40 -85,-79 -27,-20 -122,-45 -26,-7 -15,-20 -96,-30 -4,-1 -30,0 -35,-1l-29 -93 -88 31 -37 -57 0 1124z"/>
   <path class="fil11" d="M13723 6865c-102,8 -64,-3 -88,47l65 -6c4,152 -144,142 -174,267l74 24c128,31 165,5 267,12 17,36 25,84 108,104 102,25 150,-59 206,66l9 18c22,34 -16,1 25,28 63,-27 19,-48 81,-71 71,162 26,146 -30,219 -3,3 -6,7 -8,10 -2,3 -5,7 -8,10 -52,66 -38,83 -146,70 -2,0 -6,-7 -46,-6 -102,4 58,-15 -29,4l-64 24c-190,57 -88,-25 -233,119 -27,26 -7,-19 -29,31 60,100 124,30 265,122 0,87 -3,100 -72,135 -34,17 2,6 -48,21 -103,33 -7,-35 -226,-15 -2,114 17,80 65,159 29,50 44,105 73,154 152,-6 300,-30 479,-6 255,35 611,-74 946,-37 127,14 338,28 476,27l0 -169c-243,-1 -488,-1 -732,0 -251,1 -470,35 -706,36l1 -164c-7,-87 49,-139 87,-190 -60,15 -61,55 -107,99 12,-66 22,-33 43,-108 12,-44 6,-76 30,-107 19,-26 46,-23 75,-65 35,-51 18,-37 34,-103 169,-86 142,-92 247,-94l24 -37c37,-51 93,-105 81,-194 -7,-53 -40,-71 -37,-126 8,-129 28,23 54,-104 -83,-74 -72,-41 -144,10l-21 13c-4,1 -9,3 -12,5 -4,1 -9,3 -13,5 -109,57 -6,34 -93,68l-187 40c-138,3 -101,24 -195,34 8,-179 80,-138 160,-245 100,2 265,3 265,-177 -70,5 -114,22 -179,32 -145,25 -75,61 -138,56 -56,-26 -18,-37 -103,-36 -119,1 -287,59 -333,59 -38,-39 -22,-23 -39,-68z"/>
   <path class="fil12" d="M14375 11605l-65 -44c-31,-3 -11,7 -35,-8 -41,-26 1,-2 -75,1l14 -33c24,-93 31,61 2,-23 -9,-28 -47,3 -34,-63 0,-2 2,-7 3,-10 2,-5 18,-25 22,-28l78 -43 84 84c5,3 23,14 28,17l34 19c18,-155 2,-75 -50,-104l-23 -13c-54,-32 -12,-40 -79,-39 8,-5 119,-50 151,-145 29,-86 19,11 3,-29l4 -9c-27,-62 -40,-130 22,-153 -62,9 -129,-34 -160,-81 12,46 11,36 3,87 -92,-76 -42,-64 -35,-70 -49,43 3,2 -65,29l-68 44c-2,2 -6,5 -9,6 -3,1 -8,3 -12,4 -7,2 -69,4 -72,4 3,-7 7,-13 9,-20 3,-5 6,-12 9,-18l28 -59c-20,-13 -68,-43 -79,-72 -23,-60 12,18 2,-40 -7,-45 15,-5 -21,-41 -21,18 -7,1 -30,30 -2,3 -5,8 -8,11 -33,48 12,61 -64,85l49 72c-27,26 -77,52 -91,87 42,-24 27,-12 91,-14 -2,6 -6,14 -9,19l-18 43c-10,31 -37,0 2,11 11,108 -12,-9 40,62 1,2 4,6 6,8l17 36c30,40 63,24 109,44 -11,10 -28,31 -55,39 -36,12 -61,-5 -89,26l-12 16c-2,1 -7,6 -8,8l-17 16c7,49 9,93 41,125 -59,30 -98,50 -137,6 -40,-45 -18,-33 -14,-70l1 -78c-6,-1 -25,-3 -30,-3l-34 -6c-3,-1 -17,-8 -21,-18 -16,-55 6,7 30,-43l-72 -70 86 -147c1,-2 2,-8 2,-10l-87 -69c-15,61 1,10 -21,60l-75 116c-39,-40 -66,-40 -118,-64l32 -17c45,-17 109,-17 149,-43l-36 -9c-3,-1 -8,-2 -11,-3 -3,-1 -8,-3 -11,-4 -57,-24 -105,-64 -116,-132 74,-22 86,5 134,-4l36 -9c15,3 35,31 52,18 1,-1 6,-5 7,-7 2,-1 6,-5 8,-6 8,-5 6,-7 31,-13 78,-20 -28,26 71,-5 -37,-29 -98,-42 -135,-39 -242,19 -111,60 -172,-1 -41,-41 -11,15 -61,-50l-50 61c-73,64 -150,24 -228,3 -12,90 -31,43 -65,120 -27,64 -139,62 -214,126 -3,-4 -7,-9 -10,-12l-92 -89c-78,-57 -42,-40 -95,-43 -52,-2 -99,54 -71,-24 -92,10 -40,61 -88,-27 -44,-80 -9,-30 31,-102l-29 -66c91,-96 -23,25 26,-28 15,-16 16,-21 35,-35 -12,-9 4,-2 -30,-23l-24 -12c-2,-1 -7,-3 -9,-4l-97 -34c48,-48 5,-40 70,-35 -4,-3 -10,-10 -12,-7l-60 -32 -12 40c-1,4 -3,10 -4,14l-11 26c-1,3 -3,9 -6,13 -42,1 -15,5 -65,-1 -92,-12 -72,-32 -86,-113l-77 -1c14,65 30,41 51,96 -30,24 -54,25 -93,13l25 85 181 -30c80,-17 62,29 63,37 0,2 -1,8 0,10l27 120c-58,-4 -13,7 -41,-17l-72 -88c-86,17 -45,84 -4,117 3,2 9,6 11,7 2,2 8,4 11,7 -29,25 -27,24 -40,63 -24,69 22,129 57,178l21 31c3,4 11,16 14,21 62,0 68,12 114,-19 50,-32 15,-35 47,-80l38 23c36,7 11,2 50,-13 51,-20 88,-10 134,-39l1 48c1,26 8,12 -1,42 -11,38 -27,42 -57,56 -4,2 -9,3 -13,5l-47 119c108,44 294,9 359,88l-25 -136c96,3 42,-43 170,-91 3,-2 8,-3 12,-4l41 -25c3,-2 7,-6 9,-8 27,-20 -6,-14 36,-28 11,140 1,31 -41,120l63 -29c2,-1 7,-4 11,-5 39,161 -101,144 -129,200 -45,90 -31,15 34,75l-39 21c-44,31 -14,-30 -32,32 28,51 68,46 185,44l195 2c3,3 6,5 7,11 8,39 16,27 49,24 211,-17 37,31 251,1 73,-10 97,30 159,60 87,42 107,-3 209,14l-1 -126c24,47 1,26 12,74 10,46 -4,12 14,44l36 32c54,18 50,-4 79,-11l71 -1c-17,-14 -2,-25 5,-39z"/>
   <path class="fil13" d="M12905 6128l-1594 0 -1 108c-94,-2 -140,-18 -213,-20 -97,-3 -95,20 -191,20 -3,-4 -5,-10 -6,-13l-41 -53c-82,-42 -47,60 -148,110 -68,34 -38,4 -89,71l-62 78c-15,32 -10,39 -11,74 -36,4 -100,4 -131,26 151,37 328,26 488,18 143,-8 354,6 505,9 356,8 651,-1 1005,-18l4 -183c3,-3 9,-6 11,-8l22 -14c23,-17 -1,6 27,-22l71 -69c4,-2 7,-6 11,-8 15,-9 3,-7 36,-18l307 -88z"/>
   <path class="fil14" d="M5734 7360c114,-7 -58,17 134,48 177,29 205,241 185,330 -15,68 -4,-39 -12,47 194,6 33,-57 247,-70l13 114c176,8 142,-30 241,20 3,2 9,6 13,9 35,15 53,30 87,59 52,44 60,65 104,77 50,-98 -31,-87 74,-129 38,107 9,140 114,199l2 -1013c-112,20 33,-10 -90,-16 -99,-4 -68,15 -92,27l-96 21c-46,4 -53,11 -107,13 -1,-9 15,-25 0,-51 -80,17 -5,3 -60,31 -66,34 -59,11 -112,47 -27,19 -39,37 -63,59 -3,2 -7,5 -10,8 -2,2 -6,6 -9,8 -37,33 -7,27 -42,34 -65,2 -119,11 -173,-11l-66 -38c-150,-68 -130,38 -153,106 -19,54 -44,23 -116,23l-13 48z"/>
   <path class="fil15" d="M15219 7551c-39,58 -66,71 -126,88 -149,43 -120,120 -136,84 -2,-3 -7,6 -10,8 2,71 -5,29 15,85 2,6 5,9 7,14l25 60c-21,-91 -43,-18 -33,-119l-27 29c-50,53 11,28 -21,18 -14,-34 -9,-11 -24,-46 -25,-56 19,-95 -29,-158 -138,5 -29,-2 -101,50 -48,34 -46,16 -103,71 -3,3 -6,7 -9,9l-45 34c-168,72 -13,11 -183,101 -39,20 -57,40 -80,62 -119,113 -75,109 -115,157l-1 164c236,-1 455,-35 706,-36 244,-1 489,-1 732,0l0 -370c-30,-3 -192,-26 -211,-36 -69,-32 -29,-29 -70,-88 -10,-15 30,-4 -15,-12 -73,-14 -98,-38 -160,-54 21,-97 42,-36 50,-145l-36 30z"/>
   <path class="fil16" d="M14433 11144c16,40 26,-57 -3,29 -32,95 -143,140 -151,145 67,-1 25,7 79,39l23 13c52,29 68,-51 50,104l-34 -19c-5,-3 -23,-14 -28,-17l-84 -84 -78 43c-4,3 -20,23 -22,28 -1,3 -3,8 -3,10 -13,66 25,35 34,63 29,84 22,-70 -2,23l-14 33c76,-3 34,-27 75,-1 24,15 4,5 35,8l65 44c54,18 12,12 49,-4 46,-20 13,-8 -1,-35 -9,-17 -9,24 -18,-34 69,28 70,18 95,9 59,-21 -34,57 40,-23l47 13c2,-1 7,-5 10,-7 3,-2 8,-5 11,-7 4,-2 31,-24 38,-29 26,-22 40,-37 61,-41 11,38 -15,51 -33,64l-75 54c-142,94 20,56 -149,102 51,20 37,12 104,-26 -16,68 -32,52 1,80 19,15 -7,32 86,-19 -2,-6 -7,-22 -8,-26l0 -113c76,37 86,31 157,-9l17 -11c23,22 28,0 14,40 19,-17 19,-19 20,-31l-12 -46c-1,-3 -4,-9 -5,-14l79 -16c5,-1 11,-4 18,-5 -33,51 -50,95 18,136 36,22 18,8 60,21 16,-30 18,25 15,-56 -2,-71 -7,-25 -15,-27 80,-39 -80,72 84,58 50,-4 92,-73 108,-110 -86,-53 -63,32 -124,-20 -68,-59 -14,1 -25,-60 -5,-29 10,-26 -26,-63 -4,1 -10,1 -12,7 0,2 -39,34 -86,41 -14,-49 -3,-52 -17,-106 85,-1 102,30 250,8 31,-4 44,-61 45,1l-2 -120c-43,13 -9,-6 -37,16l-41 53c-2,-99 -1,31 9,-94 4,8 -11,11 19,15 2,0 7,1 8,1 4,0 15,-4 20,-5 62,-12 -5,-23 88,-10 -1,-3 -25,-41 -8,2 1,0 2,4 3,5 0,1 4,6 5,8 55,81 -50,-29 18,21 82,-72 25,8 69,-83l-86 18c-6,-21 19,-8 -16,-43 -51,-52 36,89 -27,-39l-27 -94c-23,-127 65,-43 -9,-173 6,-1 21,2 24,2 55,-13 13,15 35,-18 19,-28 -5,-56 -30,-77 -120,-98 -42,-15 -75,-19 -90,-9 99,-37 -82,-27 30,40 6,26 14,48 1,1 3,5 3,5 27,52 6,-39 15,16 -62,-6 -8,16 -58,-12 -145,-80 92,83 -24,-29 -51,-50 77,42 -34,-12 -40,-20 -9,19 -41,-44 -25,-30 -46,-60 -43,-95 12,31 -6,134 -44,42l-44 159c-9,38 3,17 -21,44 -36,41 -99,51 -131,44 -29,-5 3,-14 -30,-10l-7 119c-5,41 -15,7 -11,90 -77,-51 -80,-25 -97,31 -2,4 -12,34 -14,37 -34,78 -19,58 -54,71z"/>
   <path class="fil17" d="M7270 10576l-291 -13c-123,2 -55,-5 -75,17l17 40c0,1 5,50 18,24 2,-3 7,9 11,13 -11,36 -32,57 -28,103 624,45 1083,306 1356,179 75,-34 157,-62 231,-98 59,-28 376,-183 408,-233 -85,-33 -116,3 -214,-12l209 -55c-235,14 -8,-48 -166,-68l-21 76c0,-3 -2,11 -3,16 -5,2 -12,3 -16,4l-107 18c-17,2 -68,8 -97,11 -147,15 -636,-7 -796,-9l-12 -59c-56,-27 -66,-20 -80,54l-344 -8z"/>
   <path class="fil1" d="M5053 10518c-7,20 -14,44 -21,62 -16,40 -6,30 -31,59l-67 -93c-37,-64 0,-15 -3,-36 -8,-65 23,-4 -17,-50 -4,2 -9,2 -10,8l-80 40c-3,1 -10,2 -15,4l-30 127c57,-21 66,-34 122,-34 -24,50 -97,44 -184,69 6,-35 21,-71 21,-77 4,-69 -41,24 -10,-110l16 -91c-52,-30 -67,-49 -126,-68l50 277 -50 55c107,52 34,33 122,3l52 79c31,-55 40,-36 104,-42 -31,75 11,17 -46,46l-18 3c-3,0 -6,-5 -12,-5l149 7c-24,139 -142,121 -51,210 3,2 9,6 13,9 -142,105 91,-22 -49,21 -46,14 -94,38 -135,31 -91,-17 -36,-59 -112,-20l128 44c3,2 7,5 10,7 46,43 23,48 36,57 5,1 13,-6 15,-2 29,52 -10,1 70,-16 25,-5 48,-2 72,-8 20,37 16,-9 5,40 0,2 -2,7 -2,9l-56 77c41,-5 12,-9 54,-3 70,11 18,3 44,15 0,-4 3,-53 7,-71l92 125c3,4 7,10 8,12 2,3 7,8 8,13l-25 10c-44,15 -26,-23 -54,25 75,14 -62,35 79,10 107,-19 35,-14 101,-40 28,-67 -6,9 -4,-43l9 -37c2,-4 6,-14 8,-17 1,-3 2,-7 3,-10l11 -31c1,-3 5,-18 8,-23 67,-5 50,-9 122,-14 61,-50 15,-4 52,-73 -193,10 -177,26 -191,59 14,-38 38,-52 69,-77 -28,-43 10,-14 -35,-36 -79,-41 -14,-2 -17,4 14,-28 -12,-6 52,-20 -11,-14 -88,-48 -26,-165 22,-41 48,13 23,-69 -15,-51 2,-8 -19,-19l-39 -8c48,-16 28,-57 71,-94 70,-60 -9,0 62,-16 124,-26 52,30 78,-52 37,1 2,14 -7,-33l-3 -34c3,-40 14,-34 23,-44l-128 -58c47,-67 69,23 55,-70 -4,3 -12,4 -14,3l-28 -45c36,1 6,13 56,-8 36,-16 39,-26 51,-37 -5,-3 -13,-10 -16,-5 -3,5 -12,-3 -15,-4l-51 -6c-22,-5 -42,-50 -90,-37 -104,70 27,-48 -30,24 -2,3 -17,28 -19,32 -32,92 38,-26 -11,63 -2,4 -38,36 -51,43 -35,19 -48,17 -80,29 80,103 101,28 87,87 1,-2 -2,-10 -3,-8l-20 -14c-83,0 -63,59 -65,77l-52 -2z"/>
   <path class="fil11" d="M8395 6551l1435 2c18,-44 36,-87 68,-126 2,-3 6,-7 8,-10l31 -40c19,-41 12,-18 12,-73 -65,10 -84,26 -158,29 -57,3 -115,0 -174,2l-35 67c-61,-18 -47,-42 -123,-52 -74,-9 -98,15 -157,15 -83,-1 -53,-26 -151,-12 -58,8 -67,18 -157,15 -2,-210 31,-64 30,-204 -88,-13 -473,2 -540,33 -30,14 4,-1 -33,20 -4,2 -8,4 -11,6 -65,37 -90,58 -133,132l33 57c51,69 27,36 55,139z"/>
   <path class="fil18" d="M7474 9950l36 38c34,39 23,55 135,56 -22,-74 -20,-48 -52,-108 63,17 11,-15 89,184 -47,-1 -48,-10 -103,-44 -6,-3 -11,-8 -17,-11 -56,99 -20,14 -80,63 -69,56 -53,159 30,115 4,-2 15,-12 19,-15l69 -55c3,-2 7,-6 9,-8 23,-19 -35,-19 40,-21 2,28 -2,45 -21,65 -53,57 42,-32 -32,19l-31 26c-3,2 -8,7 -11,12l124 -7c-8,22 -26,45 -20,82l6 20c-1,-2 -11,-77 -78,-52 -2,2 0,5 0,9l10 45c2,29 5,-6 -2,28 -20,94 -1,-49 -11,31l218 -82c20,-69 -9,16 -3,-42l6 -24c2,-3 31,-15 61,-105 -1,0 -112,-40 -50,-120 16,-22 35,-18 53,-60 8,-18 9,-74 11,-97l29 54c1,0 5,3 7,2 5,-7 13,5 25,-50 16,-68 12,-28 -8,-49 64,23 10,56 -4,117 -12,60 -11,52 32,118l35 53c158,-28 34,-43 131,-72l59 5c-3,47 -40,4 -14,116 45,-24 98,-85 112,5 23,-73 43,-76 68,-161 75,12 70,-19 134,19 20,-21 101,-89 118,-134l121 21c-62,-95 -16,-121 -134,-125 -88,-3 -97,22 -115,54l-25 52c-156,-114 -200,-78 -401,-90 -163,-9 -321,-11 -489,1 13,83 21,111 -86,122z"/>
   <path class="fil9" d="M9442 10082l-1 173 578 5 4 -443 -986 0c92,94 174,51 311,186 7,7 35,38 42,44l52 35z"/>
   <path class="fil12" d="M15156 8916c-39,45 52,34 -35,34 60,18 16,0 35,52l-26 22c-93,86 -52,73 -48,86 1,4 20,46 21,49 -124,37 -47,43 -56,113 -12,91 -10,19 -21,50 -9,25 -40,20 7,34 29,-40 76,-6 115,23 -81,11 -48,-32 -127,24 15,45 7,22 38,45 102,76 -6,-33 45,27l191 -102c31,34 18,-15 26,48 11,81 -2,34 -16,42 21,-4 19,-19 41,-46l37 -40c68,-53 12,-12 17,-8 -19,-19 -50,34 -109,-18l87 -41c77,-30 5,-41 100,-25l4 29c-9,83 -77,44 5,106 -8,-9 -38,23 4,-33 15,-21 39,-32 55,-35l50 3c19,4 0,13 65,13l0 -362c-3,-2 -7,-7 -9,-9 -2,-2 -7,-7 -10,-10 -2,-2 -6,-6 -9,-9l-55 -34c-165,-70 -178,-26 -283,-25 -54,0 -91,-9 -139,-3z"/>
   <path class="fil19" d="M13520 8667c-26,75 -28,150 -6,229 37,133 12,32 9,172l68 -24 -28 66c-2,-3 -7,9 -10,14 6,3 14,6 18,7 3,0 11,3 15,3 3,0 9,0 11,-1 30,-6 12,-11 14,-29 -5,121 -20,54 39,81 3,-81 -30,-137 28,-149 -11,-16 0,-73 -55,-39 39,-28 35,-5 67,-22 67,-36 25,-15 13,-57l-6 -39c-12,-27 2,-17 -51,-34 101,27 19,-37 89,56l49 34c61,30 9,34 69,17 1,-87 17,-65 -30,-82 67,-58 55,2 68,-37 1,-5 7,-3 14,-5l-3 -88c30,-5 6,-5 12,12l6 20c0,-2 1,5 3,7 73,-8 15,-9 93,-38 15,67 -11,38 82,71 -10,45 -59,75 34,178l31 29c25,-47 18,-8 67,-48l21 -20c4,-4 8,-8 11,-12 19,-19 -30,9 37,-37 10,49 16,77 67,80 15,-27 2,-70 29,-122l29 -40c-49,-24 -22,-7 -68,-17 -64,17 -67,25 -131,25 -4,-142 1,61 35,-167l-144 -80c-51,-42 -16,-31 -69,-41l-25 -2c-1,1 -6,2 -7,3 -34,14 18,2 -37,28 -90,42 -40,-62 -90,51l-66 -78c-28,67 -34,13 -48,103l-26 85 -16 -66c-7,-24 -5,-19 -22,-46l-19 91c-22,64 -29,65 -95,61 32,-17 20,0 35,-38 14,-37 8,-23 12,-69 -52,22 -45,19 -81,59l3 -81c-50,26 -35,-23 -45,26z"/>
   <path class="fil20" d="M13753 12321c56,-9 14,-63 -3,-100 -42,-92 -27,-92 -109,-108 -90,9 -222,10 -295,-10 -10,90 -19,110 9,198 72,21 142,7 216,2 118,-9 84,13 182,18z"/>
   <path class="fil12" d="M10296 13670l201 0c49,-41 151,-58 69,-148 -3,-4 -24,-24 -28,-27 -22,-16 -11,-51 -75,-8 -20,-63 -37,-102 -56,-145l-95 259c12,5 54,7 103,46l-119 23z"/>
   <path class="fil21 str0" d="M8778 8165c17,10 30,24 40,42 11,18 16,37 16,57l0 116c0,31 -12,59 -34,81 -23,23 -50,35 -82,35l-203 0c-19,0 -29,-10 -29,-29l0 -522c0,-19 10,-29 29,-29l174 0c32,0 60,12 82,34 23,23 34,50 34,82l0 58c0,13 -2,26 -6,39 -4,12 -11,24 -21,36zm-234 41l0 232 174 0c16,0 30,-5 41,-16 11,-11 17,-25 17,-42l0 -116c0,-16 -5,-30 -16,-41 -11,-11 -25,-17 -42,-17l-174 0zm145 -58c16,0 30,-5 41,-16 12,-11 17,-25 17,-42l0 -58c0,-16 -5,-30 -16,-41 -11,-11 -25,-17 -42,-17l-145 0 0 174 145 0zm666 319c0,9 -3,16 -8,21 -5,5 -12,8 -21,8 -7,0 -14,-3 -20,-8 -6,-4 -9,-12 -9,-21l0 -522c0,-7 3,-14 9,-21 6,-5 13,-8 20,-8 7,0 14,3 20,7 6,5 9,13 9,22l0 522zm-348 -261l0 232 116 0c16,0 30,-5 41,-16 12,-11 17,-25 17,-42l0 -116c0,-16 -5,-30 -16,-41 -11,-11 -25,-17 -42,-17l-116 0zm0 -58l116 0c31,0 59,12 82,34 23,23 34,50 34,82l0 116c0,32 -11,59 -34,81 -23,23 -50,35 -82,35l-145 0c-19,0 -29,-10 -29,-29l0 -522c0,-7 3,-14 9,-21 6,-5 13,-8 20,-8 8,0 14,3 20,8 6,5 9,12 9,21l0 203zm521 58l0 232 174 0c16,0 29,-5 41,-16 11,-11 17,-25 17,-42l0 -116c0,-16 -6,-30 -17,-41 -10,-11 -24,-17 -41,-17l-174 0zm0 -58l174 0c31,0 58,12 81,34 23,23 34,50 34,82l0 116c0,32 -11,59 -33,81 -23,23 -50,35 -82,35l-203 0c-19,0 -29,-10 -29,-29l0 -522c0,-19 10,-29 29,-29l232 0c8,0 15,3 20,9 6,6 9,13 9,20 0,7 -3,13 -8,20 -4,6 -12,9 -21,9l-203 0 0 174zm752 232c0,31 -11,59 -33,81 -23,23 -50,35 -82,35l-116 0c-31,0 -59,-12 -81,-34 -23,-23 -35,-50 -35,-82l0 -348c0,-32 12,-59 34,-82 22,-22 50,-34 82,-34l116 0c32,0 59,12 82,34 22,23 33,50 33,82l0 348zm-57 0l0 -348c0,-16 -6,-30 -17,-41 -10,-11 -24,-17 -41,-17l-116 0c-16,0 -30,5 -42,16 -5,6 -9,12 -12,19 -3,7 -4,15 -4,23l0 348c0,16 5,30 16,41 6,5 13,9 19,13 8,3 16,4 23,4l116 0c16,0 29,-5 41,-16 11,-11 17,-25 17,-42zm277 -174l174 0c16,0 30,-5 41,-16 11,-11 17,-25 17,-42l0 -116c0,-16 -5,-30 -16,-41 -11,-11 -25,-17 -42,-17l-174 0 0 232zm0 58l0 202c0,10 -3,17 -8,22 -5,5 -12,8 -21,8 -7,0 -14,-3 -20,-8 -6,-4 -8,-12 -8,-21l0 -522c0,-19 9,-29 28,-29l203 0c32,0 60,12 82,34 22,23 34,50 34,82l0 116c0,32 -12,59 -34,81 -23,23 -50,35 -82,35l-174 0zm811 203c0,9 -3,16 -8,21 -5,5 -12,8 -21,8 -7,0 -14,-3 -20,-8 -6,-4 -8,-12 -8,-21l0 -522c0,-7 2,-14 8,-21 6,-5 13,-8 20,-8 8,0 14,3 20,7 6,5 9,13 9,22l0 522zm-348 -261l0 232 116 0c16,0 30,-5 41,-16 12,-11 18,-25 18,-42l0 -116c0,-16 -6,-30 -17,-41 -11,-11 -25,-17 -42,-17l-116 0zm0 -58l116 0c32,0 59,12 82,34 23,23 34,50 34,82l0 116c0,32 -11,59 -34,81 -22,23 -50,35 -82,35l-145 0c-19,0 -28,-10 -28,-29l0 -522c0,-7 2,-14 8,-21 6,-5 13,-8 20,-8 8,0 14,3 20,8 6,5 9,12 9,21l0 203z"/>
  </g>
 </g>
</svg>
