<?xml version="1.0" encoding="UTF-8"?>
<!DOCTYPE svg PUBLIC "-//W3C//DTD SVG 1.0//EN" "http://www.w3.org/TR/2001/REC-SVG-20010904/DTD/svg10.dtd">
<!-- Creator: CorelDRAW X7 -->
<svg xmlns="http://www.w3.org/2000/svg" xml:space="preserve" width="115mm" height="70.122mm" version="1.0" style="shape-rendering:geometricPrecision; text-rendering:geometricPrecision; image-rendering:optimizeQuality; fill-rule:evenodd; clip-rule:evenodd"
viewBox="0 0 11500 7012"
 xmlns:xlink="http://www.w3.org/1999/xlink">
 <defs>
  <style type="text/css">
   <![CDATA[
    .str3 {stroke:#034540;stroke-width:8.76524}
    .str1 {stroke:#3696A0;stroke-width:8.76524}
    .str0 {stroke:#5B5B5B;stroke-width:2.67165}
    .str2 {stroke:#034540;stroke-width:56.0941;stroke-linecap:round;stroke-linejoin:round}
    .fil13 {fill:none;fill-rule:nonzero}
    .fil2 {fill:#0050A0}
    .fil14 {fill:#034540}
    .fil3 {fill:#3497A1}
    .fil9 {fill:#3696A0}
    .fil8 {fill:#3C4F59}
    .fil7 {fill:#7C8E97}
    .fil6 {fill:#BB8076}
    .fil5 {fill:#D4EFFF}
    .fil4 {fill:#DBBCB6}
    .fil1 {fill:#FEE9D0}
    .fil11 {fill:#FFF7B3}
    .fil10 {fill:#FFFADB}
    .fil12 {fill:#4D8A7D;fill-rule:nonzero}
    .fil0 {fill:url(#id0)}
   ]]>
  </style>
  <radialGradient id="id0" gradientUnits="userSpaceOnUse" gradientTransform="matrix(1.17124 -0 -0 1.92083 -985 -3229)" cx="5750" cy="3506.1" r="3506.1" fx="5750" fy="3506.1">
   <stop offset="0" style="stop-opacity:1; stop-color:#FEFEFE"/>
   <stop offset="0.439216" style="stop-opacity:1; stop-color:#FEFEFE"/>
   <stop offset="1" style="stop-opacity:1; stop-color:#D1E2F2"/>
  </radialGradient>
 </defs>
 <g id="Layer_x0020_1">
  <metadata id="CorelCorpID_0Corel-Layer"/>
  <path class="fil0" d="M0 0l11500 0 0 7012 -11500 0 0 -7012z"/>
  <g id="_662370165712">
   <path class="fil1 str0" d="M6318 2420l-1137 0 0 -667 1137 0 0 667z"/>
   <path class="fil2 str0" d="M6401 1760l-1302 0 83 -162 1135 0 84 162z"/>
   <path class="fil1 str0" d="M5421 1766l326 -259 331 259 -657 0z"/>
   <path class="fil2 str0" d="M5428 1774l319 -253 325 253c4,4 11,3 15,-1 3,-5 2,-12 -2,-15l-331 -259c-4,-3 -9,-3 -13,0l-326 259c-5,4 -6,10 -2,15 4,4 10,5 15,1z"/>
   <path class="fil3 str0" d="M5392 2370l-162 0 0 -329 162 0 0 329z"/>
   <path class="fil4 str0" d="M5392 2370l0 -5 -157 0 0 -319 152 0 0 324 5 0 0 -5 0 5 5 0 0 -334 -172 0 0 339 172 0 0 -5 -5 0z"/>
   <path class="fil5 str0" d="M5311 2041l0 333 0 -333z"/>
   <path class="fil4 str0" d="M5306 2041l0 333 10 0 0 -333 -10 0z"/>
   <path class="fil3 str0" d="M6270 2370l-162 0 0 -329 162 0 0 329z"/>
   <path class="fil4 str0" d="M6270 2370l0 -5 -157 0 0 -319 152 0 0 324 5 0 0 -5 0 5 5 0 0 -334 -172 0 0 339 172 0 0 -5 -5 0z"/>
   <path class="fil5 str0" d="M6189 2041l0 333 0 -333z"/>
   <path class="fil4 str0" d="M6184 2041l0 333 10 0 0 -333 -10 0z"/>
   <path class="fil6 str0" d="M5526 2420l-19 0 0 -406 19 0 0 406z"/>
   <path class="fil6 str0" d="M5992 2420l-18 0 0 -406 18 0 0 406z"/>
   <path class="fil2 str0" d="M6029 2022l-558 0 0 -65 558 0 0 65z"/>
   <path class="fil7 str0" d="M5917 2420l-334 0 0 -373 334 0 0 373z"/>
   <path class="fil8 str0" d="M5752 2420l-5 0 0 -373 5 0 0 373z"/>
   <path class="fil8 str0" d="M5734 2246l-15 0c-3,0 -5,-2 -5,-5 0,-3 2,-5 5,-5l15 0c3,0 5,2 5,5 0,3 -2,5 -5,5z"/>
   <path class="fil8 str0" d="M5783 2246l-15 0c-3,0 -5,-2 -5,-5 0,-3 2,-5 5,-5l15 0c3,0 5,2 5,5 0,3 -2,5 -5,5z"/>
   <path class="fil3 str0" d="M5326 1924l-94 0 0 -118 94 0 0 118z"/>
   <path class="fil4 str0" d="M5326 1924l0 -5 -90 0 0 -108 85 0 0 113 5 0 0 -5 0 5 5 0 0 -123 -104 0 0 128 104 0 0 -5 -5 0z"/>
   <path class="fil3 str0" d="M5461 1924l-94 0 0 -118 94 0 0 118z"/>
   <path class="fil4 str0" d="M5461 1924l0 -5 -89 0 0 -108 84 0 0 113 5 0 0 -5 0 5 5 0 0 -123 -104 0 0 128 104 0 0 -5 -5 0z"/>
   <path class="fil3 str0" d="M5597 1924l-95 0 0 -118 95 0 0 118z"/>
   <path class="fil4 str0" d="M5597 1924l0 -5 -90 0 0 -108 85 0 0 113 5 0 0 -5 0 5 4 0 0 -123 -104 0 0 128 104 0 0 -5 -4 0z"/>
   <path class="fil3 str0" d="M5732 1924l-94 0 0 -118 94 0 0 118z"/>
   <path class="fil4 str0" d="M5732 1924l0 -5 -90 0 0 -108 85 0 0 113 5 0 0 -5 0 5 5 0 0 -123 -104 0 0 128 104 0 0 -5 -5 0z"/>
   <path class="fil3 str0" d="M5867 1924l-94 0 0 -118 94 0 0 118z"/>
   <path class="fil4 str0" d="M5867 1924l0 -5 -89 0 0 -108 85 0 0 113 4 0 0 -5 0 5 5 0 0 -123 -104 0 0 128 104 0 0 -5 -5 0z"/>
   <path class="fil3 str0" d="M6003 1924l-95 0 0 -118 95 0 0 118z"/>
   <path class="fil4 str0" d="M6003 1924l0 -5 -90 0 0 -108 85 0 0 113 5 0 0 -5 0 5 4 0 0 -123 -103 0 0 128 103 0 0 -5 -4 0z"/>
   <path class="fil3 str0" d="M6138 1924l-94 0 0 -118 94 0 0 118z"/>
   <path class="fil4 str0" d="M6138 1924l0 -5 -89 0 0 -108 84 0 0 113 5 0 0 -5 0 5 5 0 0 -123 -104 0 0 128 104 0 0 -5 -5 0z"/>
   <path class="fil3 str0" d="M6273 1924l-94 0 0 -118 94 0 0 118z"/>
   <path class="fil4 str0" d="M6273 1924l0 -5 -89 0 0 -108 85 0 0 113 4 0 0 -5 0 5 5 0 0 -123 -104 0 0 128 104 0 0 -5 -5 0z"/>
   <path class="fil9 str1" d="M5577 2500l-41 0c-3,0 -6,-1 -8,-3 -1,-2 -2,-5 -2,-7 0,-3 1,-5 2,-7 2,-2 5,-4 8,-4l101 0c3,0 6,2 8,4 2,2 3,4 3,7 0,2 -1,4 -3,6 -2,3 -4,4 -8,4l-40 0 0 172c0,4 -1,6 -3,8 -2,2 -4,3 -7,3 -3,0 -5,-1 -7,-3 -2,-2 -3,-4 -3,-8l0 -172zm233 172c0,4 -1,6 -3,8 -2,2 -4,3 -7,3 -3,0 -5,-1 -7,-3 -2,-2 -3,-4 -3,-8l0 -143 -83 148c-1,2 -2,4 -4,5l-2 1c-1,1 -2,1 -4,1 -1,0 -4,-1 -6,-3 -2,-2 -3,-5 -3,-9l0 -182c0,-3 1,-5 3,-8 2,-2 5,-2 7,-2 3,0 5,0 7,2 2,2 3,4 3,8l0 143 83 -148c1,-2 2,-3 4,-5 2,-1 4,-2 6,-2 2,0 4,1 6,3 2,2 3,5 3,9l0 182zm61 -105l85 -85c2,-2 5,-3 7,-3 3,0 5,2 7,4 2,2 4,4 4,7 0,2 -2,4 -4,7l-60 60 62 110 2 6c0,2 -1,5 -4,6 -2,2 -4,4 -7,4 -3,0 -6,-2 -9,-6l-59 -106 -24 24 0 77c0,4 -1,6 -3,8 -2,2 -4,3 -7,3 -3,0 -5,-1 -8,-3 -2,-2 -3,-4 -3,-8l0 -183c0,-2 1,-5 4,-7 2,-2 4,-3 7,-3 2,0 4,1 7,3 2,2 3,4 3,7l0 78z"/>
  </g>
  <g id="_662370152336">
   <path class="fil1 str0" d="M6129 5339l-730 0 0 -666 730 0 0 666z"/>
   <path class="fil2 str0" d="M6178 4680l-829 0 54 -162 722 0 53 162z"/>
   <path class="fil1 str0" d="M5444 4686l326 -259 331 259 -657 0z"/>
   <path class="fil2 str0" d="M5451 4694l320 -254 324 254c5,3 11,3 15,-2 3,-4 2,-11 -2,-15l-331 -258c-4,-3 -9,-3 -13,0l-326 258c-5,4 -5,11 -2,15 4,5 10,5 15,2z"/>
   <path class="fil6 str0" d="M5549 5339l-19 0 0 -405 19 0 0 405z"/>
   <path class="fil6 str0" d="M6015 5339l-18 0 0 -405 18 0 0 405z"/>
   <path class="fil2 str0" d="M6052 4941l-558 0 0 -65 558 0 0 65z"/>
   <path class="fil7 str0" d="M5940 5339l-334 0 0 -373 334 0 0 373z"/>
   <path class="fil8 str0" d="M5775 5339l-4 0 0 -373 4 0 0 373z"/>
   <path class="fil8 str0" d="M5757 5166l-15 0c-3,0 -5,-2 -5,-5 0,-3 2,-6 5,-6l15 0c3,0 5,3 5,6 0,3 -2,5 -5,5z"/>
   <path class="fil8 str0" d="M5806 5166l-15 0c-3,0 -5,-2 -5,-5 0,-3 2,-6 5,-6l15 0c3,0 5,3 5,6 0,3 -2,5 -5,5z"/>
   <path class="fil3 str0" d="M5620 4844l-95 0 0 -118 95 0 0 118z"/>
   <path class="fil4 str0" d="M5620 4844l0 -5 -90 0 0 -109 85 0 0 114 5 0 0 -5 0 5 4 0 0 -123 -103 0 0 127 103 0 0 -4 -4 0z"/>
   <path class="fil3 str0" d="M5755 4844l-94 0 0 -118 94 0 0 118z"/>
   <path class="fil4 str0" d="M5755 4844l0 -5 -89 0 0 -109 84 0 0 114 5 0 0 -5 0 5 5 0 0 -123 -104 0 0 127 104 0 0 -4 -5 0z"/>
   <path class="fil3 str0" d="M5890 4844l-94 0 0 -118 94 0 0 118z"/>
   <path class="fil4 str0" d="M5890 4844l0 -5 -89 0 0 -109 85 0 0 114 4 0 0 -5 0 5 5 0 0 -123 -104 0 0 127 104 0 0 -4 -5 0z"/>
   <path class="fil3 str0" d="M6026 4844l-94 0 0 -118 94 0 0 118z"/>
   <path class="fil4 str0" d="M6026 4844l0 -5 -90 0 0 -109 85 0 0 114 5 0 0 -5 0 5 5 0 0 -123 -104 0 0 127 104 0 0 -4 -5 0z"/>
   <path class="fil9 str1" d="M5638 5502l-61 0c-11,0 -20,-4 -28,-12 -8,-7 -12,-17 -12,-28l0 -71c0,-3 1,-6 3,-8 2,-2 4,-2 7,-2 2,0 5,0 7,2 2,2 3,4 3,8l0 71c0,5 2,10 6,14 2,2 4,3 6,5 3,1 6,1 8,1l61 0 0 -91c0,-3 1,-6 3,-8 2,-2 5,-2 7,-2 3,0 5,0 7,2 2,2 3,4 3,8l0 152c0,11 -4,21 -12,29 -8,8 -17,12 -28,12l-51 0c-3,0 -6,-1 -8,-3 -1,-2 -2,-5 -2,-7 0,-3 1,-5 3,-7 1,-3 4,-4 7,-4l51 0c5,0 10,-1 14,-5 4,-4 6,-9 6,-15l0 -41zm183 71c0,4 -1,6 -3,8 -2,2 -5,3 -7,3 -3,0 -6,-1 -8,-3 -2,-2 -3,-4 -3,-8l0 -143 -82 148c-1,2 -3,4 -4,5l-3 2c0,0 -1,0 -3,0 -2,0 -4,-1 -6,-3 -2,-2 -3,-5 -3,-8l0 -183c0,-3 1,-5 3,-8 2,-1 4,-2 7,-2 3,0 5,1 7,2 2,2 3,4 3,8l0 143 82 -148c1,-2 3,-3 5,-5 2,-1 3,-2 5,-2 3,0 5,1 7,3 2,2 3,5 3,9l0 182zm60 -105l86 -85c2,-2 4,-2 7,-2 2,0 5,1 7,3 2,2 3,4 3,7 0,2 -1,4 -3,7l-60 60 62 110 2 6c0,2 -2,5 -4,7 -2,2 -4,3 -7,3 -3,0 -6,-2 -9,-6l-59 -106 -25 24 0 77c0,4 -1,6 -2,8 -2,2 -5,3 -8,3 -2,0 -5,-1 -7,-3 -2,-2 -3,-4 -3,-8l0 -183c0,-2 1,-5 3,-6 2,-2 5,-3 7,-3 3,0 5,0 7,2 2,2 3,4 3,7l0 78z"/>
  </g>
  <g id="_662370130352">
   <path class="fil1 str0" d="M7702 5339l-729 0 0 -667 729 0 0 667z"/>
   <path class="fil2 str0" d="M7752 4679l-829 0 53 -162 723 0 53 162z"/>
   <path class="fil1 str0" d="M7018 4685l326 -258 331 258 -657 0z"/>
   <path class="fil2 str0" d="M7025 4693l319 -253 325 253c4,4 11,3 15,-1 3,-5 2,-11 -2,-15l-331 -259c-4,-3 -9,-3 -13,0l-326 259c-5,4 -6,10 -2,15 4,4 10,5 15,1z"/>
   <path class="fil6 str0" d="M7123 5339l-19 0 0 -406 19 0 0 406z"/>
   <path class="fil6 str0" d="M7589 5339l-18 0 0 -406 18 0 0 406z"/>
   <path class="fil2 str0" d="M7626 4941l-558 0 0 -65 558 0 0 65z"/>
   <path class="fil7 str0" d="M7514 5339l-334 0 0 -373 334 0 0 373z"/>
   <path class="fil8 str0" d="M7349 5339l-5 0 0 -373 5 0 0 373z"/>
   <path class="fil8 str0" d="M7331 5165l-15 0c-3,0 -5,-2 -5,-5 0,-3 2,-5 5,-5l15 0c3,0 5,2 5,5 0,3 -2,5 -5,5z"/>
   <path class="fil8 str0" d="M7380 5165l-15 0c-3,0 -5,-2 -5,-5 0,-3 2,-5 5,-5l15 0c3,0 5,2 5,5 0,3 -2,5 -5,5z"/>
   <path class="fil3 str0" d="M7194 4843l-95 0 0 -118 95 0 0 118z"/>
   <path class="fil4 str0" d="M7194 4843l0 -5 -90 0 0 -108 85 0 0 113 5 0 0 -5 0 5 4 0 0 -123 -103 0 0 128 103 0 0 -5 -4 0z"/>
   <path class="fil3 str0" d="M7329 4843l-94 0 0 -118 94 0 0 118z"/>
   <path class="fil4 str0" d="M7329 4843l0 -5 -90 0 0 -108 85 0 0 113 5 0 0 -5 0 5 5 0 0 -123 -104 0 0 128 104 0 0 -5 -5 0z"/>
   <path class="fil3 str0" d="M7464 4843l-94 0 0 -118 94 0 0 118z"/>
   <path class="fil4 str0" d="M7464 4843l0 -5 -89 0 0 -108 85 0 0 113 4 0 0 -5 0 5 5 0 0 -123 -104 0 0 128 104 0 0 -5 -5 0z"/>
   <path class="fil3 str0" d="M7600 4843l-95 0 0 -118 95 0 0 118z"/>
   <path class="fil4 str0" d="M7600 4843l0 -5 -90 0 0 -108 85 0 0 113 5 0 0 -5 0 5 4 0 0 -123 -103 0 0 128 103 0 0 -5 -4 0z"/>
   <path class="fil9 str1" d="M7212 5502l-61 0c-11,0 -20,-4 -28,-12 -9,-8 -13,-17 -13,-29l0 -71c0,-2 1,-5 3,-7 3,-2 5,-3 8,-3 2,0 5,1 7,3 2,1 3,4 3,7l0 71c0,6 2,11 5,15 3,2 5,3 7,4 3,1 6,2 8,2l61 0 0 -92c0,-2 1,-5 3,-7 2,-2 4,-3 7,-3 3,0 5,1 7,3 2,1 3,4 3,7l0 153c0,11 -4,20 -12,28 -8,8 -17,12 -28,12l-51 0c-3,0 -6,-1 -8,-3 -1,-2 -2,-4 -2,-7 0,-2 1,-5 2,-7 2,-2 5,-3 8,-3l51 0c5,0 10,-2 14,-6 4,-4 6,-8 6,-14l0 -41zm183 71c0,3 -1,6 -3,8 -2,1 -5,2 -8,2 -2,0 -5,-1 -7,-2 -2,-2 -3,-5 -3,-8l0 -143 -82 148c-1,2 -3,4 -5,5l-2 1c0,0 -1,1 -3,1 -2,0 -4,-1 -7,-3 -1,-2 -2,-5 -2,-9l0 -183c0,-2 1,-5 3,-7 2,-2 4,-3 7,-3 2,0 5,1 7,3 2,1 3,4 3,7l0 144 82 -149c1,-1 3,-3 5,-4 2,-2 3,-2 5,-2 2,0 5,1 6,3 2,2 4,5 4,8l0 183zm60 -105l86 -85c2,-2 4,-3 7,-3 2,0 5,1 7,3 2,2 3,5 3,8 0,1 -1,4 -3,6l-60 61 62 110 1 5c0,3 -1,5 -3,7 -2,2 -4,3 -7,3 -4,0 -6,-2 -9,-5l-59 -106 -25 24 0 77c0,3 -1,6 -3,8 -1,1 -4,2 -7,2 -2,0 -5,-1 -7,-2 -2,-2 -3,-5 -3,-8l0 -183c0,-3 1,-5 3,-7 2,-2 5,-3 7,-3 3,0 5,1 7,2 2,2 3,5 3,8l0 78z"/>
  </g>
  <g id="_662244926256">
   <path class="fil1 str0" d="M4555 5359l-730 0 0 -667 730 0 0 667z"/>
   <path class="fil2 str0" d="M4604 4699l-829 0 54 -161 722 0 53 161z"/>
   <path class="fil1 str0" d="M3870 4705l327 -258 331 258 -658 0z"/>
   <path class="fil2 str0" d="M3877 4713l320 -253 324 254c5,3 11,2 15,-2 3,-5 3,-11 -2,-15l-331 -259c-4,-3 -9,-3 -13,0l-326 259c-5,4 -5,10 -2,15 4,4 10,5 15,1z"/>
   <path class="fil6 str0" d="M3975 5359l-19 0 0 -405 19 0 0 405z"/>
   <path class="fil6 str0" d="M4442 5359l-19 0 0 -405 19 0 0 405z"/>
   <path class="fil2 str0" d="M4478 4961l-558 0 0 -65 558 0 0 65z"/>
   <path class="fil7 str0" d="M4366 5359l-334 0 0 -373 334 0 0 373z"/>
   <path class="fil8 str0" d="M4201 5359l-4 0 0 -373 4 0 0 373z"/>
   <path class="fil8 str0" d="M4183 5186l-15 0c-2,0 -5,-3 -5,-6 0,-2 3,-5 5,-5l15 0c3,0 5,3 5,5 0,3 -2,6 -5,6z"/>
   <path class="fil8 str0" d="M4232 5186l-15 0c-3,0 -5,-3 -5,-6 0,-2 2,-5 5,-5l15 0c3,0 5,3 5,5 0,3 -2,6 -5,6z"/>
   <path class="fil3 str0" d="M4046 4863l-95 0 0 -118 95 0 0 118z"/>
   <path class="fil4 str0" d="M4046 4863l0 -5 -90 0 0 -108 85 0 0 113 5 0 0 -5 0 5 5 0 0 -122 -104 0 0 127 104 0 0 -5 -5 0z"/>
   <path class="fil3 str0" d="M4181 4863l-94 0 0 -118 94 0 0 118z"/>
   <path class="fil4 str0" d="M4181 4863l0 -5 -89 0 0 -108 84 0 0 113 5 0 0 -5 0 5 5 0 0 -122 -104 0 0 127 104 0 0 -5 -5 0z"/>
   <path class="fil3 str0" d="M4317 4863l-95 0 0 -118 95 0 0 118z"/>
   <path class="fil4 str0" d="M4317 4863l0 -5 -90 0 0 -108 85 0 0 113 5 0 0 -5 0 5 4 0 0 -122 -104 0 0 127 104 0 0 -5 -4 0z"/>
   <path class="fil3 str0" d="M4452 4863l-94 0 0 -118 94 0 0 118z"/>
   <path class="fil4 str0" d="M4452 4863l0 -5 -90 0 0 -108 85 0 0 113 5 0 0 -5 0 5 5 0 0 -122 -104 0 0 127 104 0 0 -5 -5 0z"/>
   <path class="fil9 str1" d="M4064 5522l-61 0c-11,0 -20,-4 -28,-12 -8,-8 -12,-17 -12,-29l0 -71c0,-2 1,-5 3,-7 2,-2 4,-3 7,-3 2,0 5,1 7,3 2,1 3,4 3,7l0 71c0,6 2,11 6,15 2,2 4,3 6,4 3,1 6,2 8,2l61 0 0 -92c0,-2 1,-5 3,-7 2,-2 5,-3 7,-3 3,0 5,1 7,3 2,1 3,4 3,7l0 153c0,11 -4,20 -11,28 -8,8 -18,12 -29,12l-51 0c-3,0 -5,-1 -7,-3 -2,-2 -3,-4 -3,-7 0,-2 1,-5 3,-7 1,-2 4,-3 7,-3l51 0c6,0 10,-2 14,-6 4,-3 6,-8 6,-14l0 -41zm183 71c0,3 -1,6 -3,8 -2,1 -4,2 -7,2 -3,0 -5,-1 -7,-2 -2,-2 -3,-5 -3,-8l0 -143 -83 148c-1,2 -3,4 -4,5l-3 1c0,0 -1,1 -3,1 -2,0 -4,-1 -6,-3 -2,-2 -3,-5 -3,-9l0 -183c0,-2 1,-5 3,-7 2,-2 4,-3 7,-3 3,0 5,1 7,3 2,2 3,4 3,7l0 144 83 -148c1,-2 2,-4 4,-5 2,-2 4,-2 5,-2 3,0 5,1 7,3 2,2 3,5 3,8l0 183zm61 -105l85 -85c2,-2 4,-3 7,-3 3,0 5,1 7,3 2,2 3,5 3,8 0,1 -1,4 -3,6l-60 61 62 110 2 5c0,3 -1,5 -4,7 -2,2 -4,3 -7,3 -3,0 -6,-2 -9,-5l-59 -106 -24 24 0 77c0,3 -1,6 -3,8 -2,1 -5,2 -8,2 -2,0 -5,-1 -7,-2 -2,-2 -3,-5 -3,-8l0 -183c0,-3 1,-5 3,-7 2,-2 5,-3 7,-3 3,0 5,1 8,3 2,1 3,4 3,7l0 78z"/>
  </g>
  <path class="fil10 str2" d="M8812 1403l0 2922c-773,0 -1291,0 -2064,0l0 -2922 2064 0z"/>
  <path class="fil11" d="M6748 1403l2064 0 0 1178 -2064 -981c3,-101 0,-129 0,-197z"/>
  <g>
   <path class="fil12" d="M6964 3747c-12,0 -22,-11 -22,-25 0,-13 10,-24 22,-24l0 49zm849 0l-849 0 0 -49 849 0 0 49zm0 -49c12,0 22,11 22,24 0,14 -10,25 -22,25l0 -49zm-849 -374c-12,0 -22,-11 -22,-24 0,-14 10,-25 22,-25l0 49zm1195 0l-1195 0 0 -49 1195 0 0 49zm0 -49c12,0 22,11 22,25 0,13 -10,24 -22,24l0 -49zm-1195 190c-12,0 -22,-11 -22,-24 0,-14 10,-25 22,-25l0 49zm1608 0l-1608 0 0 -49 1608 0 0 49zm0 -49c12,0 23,11 23,25 0,13 -11,24 -23,24l0 -49zm-1608 190c-12,0 -22,-11 -22,-24 0,-14 10,-25 22,-25l0 49zm1608 0l-1608 0 0 -49 1608 0 0 49zm0 -49c12,0 23,11 23,25 0,13 -11,24 -23,24l0 -49z"/>
  </g>
  <path class="fil13 str2" d="M8812 1403l0 2922c-773,0 -1291,0 -2064,0l0 -2922 2064 0z"/>
  <path class="fil10 str2" d="M4752 1403l0 2922c-773,0 -1291,0 -2064,0l0 -2922 2064 0z"/>
  <path class="fil11" d="M2688 1403l2064 0 0 1178 -2064 -981c3,-101 0,-129 0,-197z"/>
  <g>
   <path class="fil12" d="M2904 3421c-12,0 -22,-11 -22,-25 0,-13 10,-24 22,-24l0 49zm849 0l-849 0 0 -49 849 0 0 49zm0 -49c12,0 22,11 22,24 0,14 -10,25 -22,25l0 -49zm-849 -374c-12,0 -22,-11 -22,-24 0,-14 10,-25 22,-25l0 49zm1195 0l-1195 0 0 -49 1195 0 0 49zm0 -49c12,0 22,11 22,25 0,13 -10,24 -22,24l0 -49zm-1195 190c-12,0 -22,-11 -22,-24 0,-14 10,-25 22,-25l0 49zm1608 0l-1608 0 0 -49 1608 0 0 49zm0 -49c12,0 23,11 23,25 0,13 -11,24 -23,24l0 -49zm-1608 190c-12,0 -22,-11 -22,-25 0,-13 10,-24 22,-24l0 49zm1608 0l-1608 0 0 -49 1608 0 0 49zm0 -49c12,0 23,11 23,24 0,14 -11,25 -23,25l0 -49z"/>
  </g>
  <path class="fil13 str2" d="M4752 1403l0 2922c-773,0 -1291,0 -2064,0l0 -2922 2064 0z"/>
  <g>
   <path class="fil14 str3" d="M3565 1657l-11 33c-1,2 -1,3 -3,4 -1,1 -2,1 -4,1 -2,0 -4,-1 -5,-2 -2,-1 -3,-3 -3,-5l1 -3 46 -137c1,-4 3,-6 7,-6 3,0 5,2 7,6l45 137 1 3c0,2 -1,4 -3,5 -1,2 -3,2 -5,2 -1,0 -2,0 -3,-1 -2,0 -3,-2 -4,-4l-11 -33 -55 0zm50 -15l-22 -67 -23 67 45 0zm75 -33l65 -64c1,-1 3,-2 5,-2 2,0 3,1 5,2 2,2 3,4 3,6 0,1 -1,3 -3,5l-45 45 47 83 1 4c0,2 -1,3 -3,5 -1,1 -3,2 -5,2 -3,0 -5,-1 -7,-4l-44 -79 -19 18 0 58c0,2 0,4 -2,5 -1,2 -3,2 -5,2 -2,0 -4,0 -5,-2 -2,-1 -3,-3 -3,-5l0 -138c0,-2 1,-3 3,-5 1,-1 3,-2 5,-2 2,0 4,1 5,2 2,1 2,3 2,5l0 59zm145 -51l-30 0c-3,0 -5,-1 -6,-2 -1,-2 -2,-4 -2,-6 0,-1 1,-3 2,-5 1,-1 3,-2 6,-2l76 0c2,0 4,1 5,2 2,2 2,4 2,5 0,2 0,4 -2,6 -1,1 -3,2 -5,2l-31 0 0 130c0,2 0,4 -2,5 -1,2 -3,2 -5,2 -2,0 -4,0 -6,-2 -1,-1 -2,-3 -2,-5l0 -130zm-784 347c0,9 -3,17 -9,24 -7,7 -15,10 -24,10l-9 0c-9,0 -17,-3 -24,-10 -7,-6 -10,-14 -10,-24l0 -39c0,-9 3,-17 10,-24 7,-6 14,-10 24,-10l9 0c9,0 17,3 23,10 7,6 10,14 10,24l0 39zm-15 0l0 -39c0,-5 -2,-10 -5,-13 -4,-4 -8,-6 -13,-6l-9 0c-5,0 -10,2 -13,6 -4,3 -6,8 -6,13l0 39c0,5 2,10 6,13 3,4 8,6 13,6l9 0c5,0 9,-2 13,-6 3,-3 5,-7 5,-13zm213 26c0,3 -1,5 -2,6 -1,1 -3,2 -5,2 -2,0 -4,-1 -6,-2 -1,-1 -2,-3 -2,-6l0 -68c0,-5 -1,-8 -4,-11 -3,-3 -7,-5 -11,-5l-31 0 0 84c0,3 -1,5 -2,6 -1,1 -3,2 -5,2 -2,0 -4,-1 -6,-2 -1,-1 -2,-3 -2,-6l0 -91c0,-5 3,-8 8,-8l38 0c8,0 15,3 21,9 6,6 9,13 9,22l0 68zm46 -53l46 0 0 -15c0,-5 -2,-8 -5,-11 -3,-3 -6,-5 -11,-5l-15 0c-4,0 -8,2 -11,5 -1,1 -2,3 -3,5 -1,2 -1,4 -1,6l0 15zm0 15l0 15c0,5 1,8 4,11 2,2 3,3 5,4 2,0 4,1 6,1l38 0c2,0 4,0 5,2 2,2 3,3 3,5 0,2 -1,4 -2,5 -1,2 -3,3 -6,3l-38 0c-8,0 -15,-3 -21,-9 -6,-6 -9,-13 -9,-22l0 -45c0,-9 3,-16 8,-22 6,-6 13,-9 22,-9l15 0c9,0 16,3 22,9 6,6 9,13 9,22l0 23c0,5 -3,7 -8,7l-53 0zm106 31l31 0c4,0 8,-2 11,-5 3,-2 4,-6 4,-11l0 -45c0,-5 -1,-8 -4,-11 -3,-3 -7,-5 -11,-5l-31 0 0 77zm0 15l0 38c0,2 -1,4 -2,5 -2,2 -3,2 -5,2 -2,0 -4,0 -5,-1 -2,-2 -3,-4 -3,-6l0 -137c0,-5 3,-8 8,-8l38 0c8,0 15,3 21,9 6,6 9,13 9,22l0 45c0,9 -3,16 -9,22 -6,6 -13,9 -21,9l-31 0zm107 -61l46 0 0 -15c0,-5 -2,-8 -5,-11 -3,-3 -6,-5 -11,-5l-15 0c-4,0 -8,2 -11,5 -1,1 -2,3 -3,5 -1,2 -1,4 -1,6l0 15zm0 15l0 15c0,5 1,8 4,11 2,2 3,3 5,4 2,0 4,1 6,1l38 0c2,0 4,0 6,2 1,2 2,3 2,5 0,2 -1,4 -2,5 -1,2 -3,3 -6,3l-38 0c-8,0 -15,-3 -21,-9 -6,-6 -9,-13 -9,-22l0 -45c0,-9 3,-16 8,-22 6,-6 14,-9 22,-9l15 0c9,0 16,3 22,9 6,6 9,13 9,22l0 23c0,5 -3,7 -8,7l-53 0zm152 -46l-30 0c-5,0 -8,2 -11,5 -2,1 -3,3 -4,5 0,1 -1,3 -1,6l0 45c0,5 2,8 5,11 1,2 3,3 5,4 2,0 4,1 6,1l15 0c4,0 8,-2 11,-5 3,-2 4,-6 4,-11l0 -61zm0 -15l0 -15c0,-4 -1,-8 -4,-11 -3,-3 -7,-4 -11,-4l-31 0c-2,0 -4,-1 -5,-2 -2,-2 -2,-4 -2,-6 0,-2 0,-3 2,-5 1,-2 3,-2 5,-2l31 0c8,0 16,2 21,8 6,6 9,14 9,22l0 91c0,9 -3,16 -9,22 -6,6 -13,9 -21,9l-15 0c-9,0 -16,-3 -22,-9 -6,-6 -9,-13 -9,-22l0 -45c0,-9 3,-16 9,-22 6,-6 13,-9 22,-9l30 0zm107 76l0 -61 -31 0c-4,0 -8,2 -11,5 -1,1 -2,3 -3,5 -1,1 -1,3 -1,6l0 45c0,5 1,8 4,11 2,2 3,3 5,4 2,0 4,1 6,1l15 0c5,0 8,-2 11,-5 3,-2 5,-6 5,-11zm7 21c-2,3 -6,5 -10,7 -4,2 -8,3 -13,3l-15 0c-8,0 -15,-3 -21,-9 -6,-6 -9,-13 -9,-22l0 -45c0,-9 3,-16 9,-22 6,-6 13,-9 21,-9l38 0c5,0 8,3 8,8l0 68c0,3 1,6 3,10 2,2 4,5 7,6 4,1 5,4 5,7 0,2 -1,4 -2,6 -1,1 -3,2 -5,2 -2,0 -3,0 -4,-1 -5,-2 -9,-5 -12,-9zm99 -51l0 -38c0,-2 1,-4 3,-6 1,-1 3,-2 5,-2 2,0 4,1 5,2 2,1 2,3 2,6l0 91c0,3 0,5 -2,6 -1,1 -3,2 -5,2 -2,0 -4,-1 -5,-2 -2,-1 -3,-3 -3,-6l0 -38 -30 0c-8,0 -16,-3 -22,-9 -6,-6 -9,-13 -9,-21l0 -23c0,-2 1,-4 3,-6 1,-1 3,-2 5,-2 2,0 4,1 5,2 2,1 2,3 2,6l0 23c0,4 2,7 5,10 1,2 3,3 5,4 2,0 4,1 6,1l30 0zm61 0l46 0 0 -15c0,-5 -2,-8 -5,-11 -2,-3 -6,-5 -11,-5l-15 0c-4,0 -8,2 -11,5 -1,1 -2,3 -3,5 -1,2 -1,4 -1,6l0 15zm0 15l0 15c0,5 1,8 4,11 2,2 3,3 5,4 2,0 4,1 6,1l38 0c2,0 4,0 6,2 1,2 2,3 2,5 0,2 -1,4 -2,5 -1,2 -3,3 -6,3l-38 0c-8,0 -15,-3 -21,-9 -6,-6 -9,-13 -9,-22l0 -45c0,-9 3,-16 9,-22 5,-6 13,-9 21,-9l15 0c9,0 16,3 22,9 6,6 9,13 9,22l0 23c0,5 -3,7 -8,7l-53 0zm259 -15l-46 0c-8,0 -15,-3 -21,-9 -6,-6 -9,-13 -9,-22l0 -53c0,-2 0,-4 2,-6 1,-1 3,-1 5,-1 2,0 4,0 5,1 2,2 3,4 3,6l0 53c0,5 1,8 4,11 2,2 3,3 5,4 2,0 4,1 6,1l46 0 0 -69c0,-2 1,-4 2,-6 2,-1 3,-1 5,-1 2,0 4,0 6,1 1,2 2,4 2,6l0 114c0,9 -3,16 -9,22 -6,6 -13,9 -22,9l-38 0c-2,0 -4,-1 -5,-2 -1,-2 -2,-4 -2,-6 0,-2 1,-3 2,-5 1,-2 3,-2 5,-2l39 0c4,0 7,-2 10,-5 3,-2 5,-6 5,-11l0 -30zm137 53c0,3 -1,5 -3,6 -1,1 -3,2 -5,2 -2,0 -4,-1 -5,-2 -2,-1 -2,-3 -2,-6l0 -107 -62 111c-1,1 -2,3 -4,4l-1 1c-1,0 -2,0 -3,0 -1,0 -3,-1 -5,-2 -1,-2 -2,-4 -2,-7l0 -137c0,-2 1,-4 3,-5 1,-2 3,-2 5,-2 2,0 4,0 5,2 2,1 3,3 3,5l0 108 61 -111c1,-2 2,-3 4,-4 1,-1 2,-2 4,-2 1,0 3,1 4,3 2,1 3,3 3,6l0 137zm45 -79l64 -63c2,-2 4,-2 6,-2 2,0 3,0 5,2 2,1 2,3 2,5 0,2 0,3 -2,5l-45 46 47 82 1 4c0,2 -1,4 -3,6 -1,1 -3,2 -5,2 -3,0 -5,-2 -7,-4l-45 -80 -18 18 0 58c0,3 0,5 -2,6 -1,1 -3,2 -5,2 -2,0 -4,-1 -6,-2 -1,-1 -2,-3 -2,-6l0 -137c0,-2 1,-4 2,-5 2,-2 4,-2 6,-2 2,0 3,0 5,1 2,2 2,3 2,6l0 58zm-1358 330l-23 0c-8,0 -15,-3 -21,-8 -6,-6 -9,-13 -9,-22l0 -46c0,-8 3,-15 9,-21 6,-6 13,-9 21,-9l23 0c2,0 4,1 6,2 1,2 2,3 2,5 0,2 -1,4 -2,5 -1,2 -3,3 -6,3l-23 0c-4,0 -8,1 -11,4 -1,2 -2,3 -3,5 -1,2 -1,4 -1,6l0 46c0,4 1,8 4,11 2,1 3,2 5,3 2,1 4,1 6,1l23 0c2,0 4,1 6,3 1,1 2,3 2,5 0,2 -1,3 -2,5 -1,2 -3,2 -6,2zm114 -7c0,2 0,4 -2,6 -1,1 -3,1 -5,1 -2,0 -4,0 -6,-1 -1,-2 -2,-4 -2,-6l0 -69c0,-4 -1,-8 -4,-11 -3,-3 -7,-4 -11,-4l-31 0 0 84c0,2 0,4 -2,6 -1,1 -3,1 -5,1 -2,0 -4,0 -6,-1 -1,-2 -2,-4 -2,-6l0 -92c0,-5 3,-7 8,-7l38 0c8,0 15,3 21,9 6,5 9,13 9,21l0 69zm107 0c0,5 -3,7 -8,7l-38 0c-8,0 -15,-3 -21,-8 -6,-6 -9,-13 -9,-22l0 -69c0,-2 0,-4 2,-5 1,-2 3,-2 5,-2 2,0 4,0 5,2 2,1 3,3 3,5l0 69c0,4 1,8 4,11 2,1 3,2 5,3 2,1 4,1 6,1l31 0 0 -84c0,-2 0,-4 2,-5 1,-2 3,-2 5,-2 2,0 4,0 5,2 2,1 3,3 3,5l0 92zm84 7l-23 0c-9,0 -16,-3 -22,-8 -6,-6 -9,-13 -9,-22l0 -46c0,-8 3,-15 9,-21 6,-6 13,-9 22,-9l23 0c2,0 3,1 5,2 1,2 2,3 2,5 0,2 0,4 -2,5 -1,2 -3,3 -5,3l-23 0c-5,0 -8,1 -11,4 -2,2 -3,3 -4,5 0,2 -1,4 -1,6l0 46c0,4 2,8 5,11 1,1 3,2 5,3 2,1 4,1 6,1l23 0c2,0 3,1 5,3 1,1 2,3 2,5 0,2 0,3 -2,5 -1,2 -3,2 -5,2zm68 -49l-17 17 0 25c0,2 -1,4 -2,6 -1,1 -3,1 -5,1 -2,0 -4,0 -6,-1 -1,-2 -2,-4 -2,-6l0 -92c0,-2 1,-3 2,-5 2,-1 4,-2 6,-2 1,0 3,1 5,2 1,1 2,3 2,5l0 45 48 -50c2,-2 3,-2 5,-2 2,0 4,0 6,2 1,1 2,3 2,6 0,2 -1,4 -3,5l-30 32 31 49c1,2 2,4 2,5 0,2 -1,4 -3,5 -1,2 -3,3 -5,3 -2,0 -4,-1 -5,-3l-31 -47zm129 19l0 -61 -30 0c-5,0 -8,1 -11,4 -2,2 -3,3 -3,5 -1,2 -2,4 -2,6l0 46c0,4 2,8 5,11 1,1 3,2 5,3 2,1 4,1 6,1l15 0c4,0 8,-1 11,-4 3,-3 4,-6 4,-11zm8 20c-3,3 -6,6 -10,8 -5,1 -9,2 -13,2l-15 0c-8,0 -16,-3 -22,-8 -6,-6 -9,-13 -9,-22l0 -46c0,-8 3,-15 9,-21 6,-6 13,-9 22,-9l38 0c5,0 7,2 7,7l0 69c0,3 1,6 3,9 2,3 5,5 8,7 3,1 5,3 5,7 0,2 -1,4 -2,5 -2,2 -4,2 -6,2 -1,0 -2,0 -3,0 -5,-2 -9,-5 -12,-10zm190 -81l-30 0c-5,0 -8,1 -11,4 -2,2 -3,3 -4,5 0,2 -1,4 -1,6l0 46c0,4 2,8 5,11 1,1 3,2 5,3 2,1 4,1 6,1l15 0c4,0 8,-1 11,-4 3,-3 4,-6 4,-11l0 -61zm0 -15l0 -15c0,-5 -1,-8 -4,-11 -3,-3 -7,-5 -11,-5l-31 0c-2,0 -4,0 -5,-2 -2,-1 -2,-3 -2,-5 0,-2 0,-4 2,-5 1,-2 3,-3 5,-3l31 0c8,0 16,3 21,9 6,6 9,13 9,22l0 91c0,8 -3,15 -9,21 -6,6 -13,9 -21,9l-15 0c-9,0 -16,-3 -22,-8 -6,-6 -9,-13 -9,-22l0 -46c0,-8 3,-15 9,-21 6,-6 13,-9 22,-9l30 0zm122 73c0,9 -3,17 -10,23 -6,7 -14,10 -24,10l-9 0c-9,0 -17,-3 -23,-9 -7,-7 -10,-15 -10,-24l0 -40c0,-9 3,-16 10,-23 6,-7 14,-10 23,-10l9 0c9,0 17,3 24,9 7,7 10,15 10,24l0 40zm-15 0l0 -40c0,-5 -2,-9 -6,-13 -3,-3 -7,-5 -13,-5l-9 0c-5,0 -9,2 -13,5 -3,4 -5,8 -5,13l0 40c0,5 2,9 5,13 4,3 8,5 13,5l9 0c5,0 10,-1 13,-5 4,-3 6,-8 6,-13zm99 33l-23 0c-8,0 -16,-3 -22,-8 -6,-6 -9,-13 -9,-22l0 -46c0,-8 3,-15 9,-21 6,-6 13,-9 22,-9l23 0c2,0 4,1 5,2 1,2 2,3 2,5 0,2 0,4 -2,5 -1,2 -3,3 -5,3l-23 0c-5,0 -8,1 -11,4 -2,2 -3,3 -4,5 0,2 -1,4 -1,6l0 46c0,4 2,8 5,11 1,1 3,2 5,3 2,1 4,1 6,1l23 0c2,0 3,1 5,3 1,1 2,3 2,5 0,2 0,3 -2,5 -1,2 -3,2 -5,2zm53 -15l30 0c5,0 8,-1 11,-4 3,-3 5,-6 5,-11l0 -46c0,-4 -2,-8 -5,-11 -3,-3 -6,-4 -11,-4l-30 0 0 76zm0 15l0 38c0,3 -1,4 -3,6 -1,1 -3,2 -5,2 -2,0 -3,-1 -5,-2 -2,-1 -2,-3 -2,-6l0 -137c0,-5 2,-7 7,-7l38 0c9,0 16,3 22,9 6,6 9,13 9,21l0 46c0,8 -3,15 -9,21 -6,6 -13,9 -22,9l-30 0zm167 -33c0,9 -3,17 -9,23 -7,7 -15,10 -24,10l-9 0c-9,0 -17,-3 -24,-9 -7,-7 -10,-15 -10,-24l0 -40c0,-9 3,-16 10,-23 6,-7 14,-10 24,-10l9 0c9,0 17,3 23,9 7,7 10,15 10,24l0 40zm-15 0l0 -40c0,-5 -2,-9 -5,-13 -4,-3 -8,-5 -13,-5l-9 0c-5,0 -10,2 -13,5 -4,4 -6,8 -6,13l0 40c0,5 2,9 6,13 3,3 7,5 13,5l9 0c5,0 9,-1 13,-5 3,-3 5,-8 5,-13zm107 -28l0 -38c0,-2 0,-4 2,-5 1,-2 3,-2 5,-2 2,0 4,0 5,2 2,1 3,3 3,5l0 92c0,2 -1,4 -2,6 -2,1 -4,1 -6,1 -2,0 -4,0 -5,-2 -2,-1 -2,-3 -2,-5l0 -38 -31 0c-8,0 -15,-3 -21,-9 -6,-6 -9,-13 -9,-22l0 -23c0,-2 0,-4 2,-5 1,-2 3,-2 5,-2 2,0 4,0 5,2 2,1 3,3 3,5l0 23c0,4 1,8 4,11 2,1 3,2 5,3 2,1 4,1 6,1l31 0zm106 0l0 -38c0,-2 1,-4 2,-5 2,-2 4,-2 6,-2 2,0 3,0 5,2 2,1 2,3 2,5l0 92c0,2 0,4 -2,6 -1,1 -3,1 -5,1 -2,0 -4,0 -6,-2 -1,-1 -2,-3 -2,-5l0 -38 -46 0 0 38c0,2 0,4 -2,6 -1,1 -3,1 -5,1 -2,0 -4,0 -6,-1 -1,-2 -2,-4 -2,-6l0 -92c0,-2 1,-4 2,-5 2,-2 4,-2 6,-2 2,0 3,0 5,2 2,1 2,3 2,5l0 38 46 0zm122 28c0,9 -3,17 -10,23 -6,7 -14,10 -24,10l-9 0c-9,0 -17,-3 -23,-9 -7,-7 -10,-15 -10,-24l0 -40c0,-9 3,-16 10,-23 6,-7 14,-10 23,-10l9 0c9,0 17,3 24,9 7,7 10,15 10,24l0 40zm-15 0l0 -40c0,-5 -2,-9 -6,-13 -3,-3 -7,-5 -13,-5l-9 0c-5,0 -9,2 -13,5 -3,4 -5,8 -5,13l0 40c0,5 2,9 5,13 4,3 8,5 13,5l9 0c5,0 10,-1 13,-5 4,-3 6,-8 6,-13z"/>
   <path class="fil14 str3" d="M2998 2418c0,3 -1,5 -2,6 -1,1 -3,2 -6,2 -2,0 -3,-1 -5,-2 -1,-1 -2,-3 -2,-6l0 -68c0,-5 -2,-8 -4,-11 -3,-3 -7,-4 -11,-4l-31 0 0 83c0,3 -1,5 -2,6 -1,1 -3,2 -6,2 -2,0 -3,-1 -5,-2 -1,-1 -2,-3 -2,-6l0 -91c0,-5 2,-8 8,-8l38 0c8,0 15,3 21,9 6,6 9,13 9,22l0 68zm46 -7l30 0c4,0 8,-2 11,-4 3,-3 4,-7 4,-11l0 -46c0,-5 -1,-8 -4,-11 -3,-3 -6,-4 -11,-4l-30 0 0 76zm0 15l0 38c0,2 -1,4 -3,5 -1,2 -3,3 -5,3 -2,0 -3,-1 -5,-2 -2,-1 -3,-3 -3,-6l0 -137c0,-5 3,-8 8,-8l38 0c8,0 16,3 22,9 6,6 9,13 9,22l0 46c0,8 -3,15 -9,21 -6,6 -13,9 -22,9l-30 0zm167 -33c0,9 -3,16 -10,23 -6,7 -14,10 -23,10l-10 0c-9,0 -16,-3 -23,-10 -7,-6 -10,-14 -10,-23l0 -40c0,-9 3,-17 10,-24 6,-6 14,-10 23,-10l10 0c9,0 17,4 23,10 7,7 10,15 10,24l0 40zm-15 0l0 -40c0,-5 -2,-9 -5,-13 -4,-4 -8,-5 -13,-5l-10 0c-5,0 -9,1 -12,5 -4,3 -6,8 -6,13l0 40c0,5 2,9 5,12 4,4 8,6 13,6l10 0c5,0 9,-2 13,-5 3,-4 5,-8 5,-13zm118 26c-4,2 -9,4 -16,6l-8 1 -9 0 -10 0 -9 -2c-6,0 -11,-3 -14,-7 -4,-5 -6,-10 -6,-15 0,-4 1,-7 2,-10 1,-3 4,-6 7,-9l48 -33c2,-1 3,-3 3,-5 0,-3 -3,-5 -8,-7 -5,-2 -11,-3 -17,-3 -5,0 -10,1 -14,1 -4,1 -7,3 -9,5 -2,1 -3,1 -5,1 -2,0 -3,0 -5,-2 -2,-1 -2,-3 -2,-5 0,-3 1,-5 3,-6 3,-3 7,-5 14,-6 3,-1 6,-2 9,-2 4,-1 7,-1 10,-1 2,0 4,0 6,0 2,0 4,1 6,1 2,0 5,1 8,2 6,1 10,4 14,8 3,4 5,9 5,14 0,6 -3,12 -8,17l-49 34c-2,1 -3,3 -3,5 0,2 1,4 2,6 1,1 3,2 5,3l8 1 9 0c6,0 11,0 14,-1 2,0 4,-1 6,-2 2,0 3,-1 5,-2l2 -1c0,0 1,0 2,0 2,0 4,0 6,2 1,2 2,4 2,6 0,2 -2,4 -4,6zm110 -26c0,9 -3,16 -10,23 -6,7 -14,10 -23,10l-9 0c-9,0 -17,-3 -24,-10 -7,-6 -10,-14 -10,-23l0 -40c0,-9 3,-17 10,-24 6,-6 14,-10 24,-10l9 0c9,0 17,4 23,10 7,7 10,15 10,24l0 40zm-15 0l0 -40c0,-5 -2,-9 -5,-13 -4,-4 -8,-5 -13,-5l-9 0c-5,0 -10,1 -13,5 -4,3 -6,8 -6,13l0 40c0,5 2,9 6,12 3,4 7,6 13,6l9 0c5,0 9,-2 13,-5 3,-4 5,-8 5,-13zm122 25c0,3 -1,5 -2,6 -2,1 -4,2 -6,2 -2,0 -4,-1 -5,-2 -2,-1 -2,-3 -2,-6l0 -83 -18 0 -28 86c-1,1 -2,3 -3,4 -1,0 -2,0 -4,1 -2,0 -4,-1 -6,-2 -1,-1 -2,-3 -2,-5l0 -3 30 -91c2,-4 4,-6 8,-6l30 0c5,0 8,3 8,8l0 91zm106 -25c0,9 -3,16 -9,23 -7,7 -15,10 -24,10l-9 0c-9,0 -17,-3 -24,-10 -7,-6 -10,-14 -10,-23l0 -40c0,-9 3,-17 10,-24 6,-6 14,-10 24,-10l9 0c9,0 17,4 23,10 7,7 10,15 10,24l0 40zm-15 0l0 -40c0,-5 -2,-9 -5,-13 -4,-4 -8,-5 -13,-5l-9 0c-5,0 -10,1 -13,5 -4,3 -6,8 -6,13l0 40c0,5 2,9 6,12 3,4 8,6 13,6l9 0c5,0 9,-2 13,-5 3,-4 5,-8 5,-13zm99 33l-23 0c-8,0 -15,-3 -21,-9 -6,-6 -9,-13 -9,-21l0 -46c0,-9 3,-16 9,-22 6,-6 13,-9 21,-9l23 0c2,0 4,1 5,3 2,1 3,3 3,5 0,2 -1,3 -2,5 -2,2 -3,3 -6,3l-23 0c-4,0 -8,1 -11,4 -1,1 -2,3 -3,5 -1,2 -1,4 -1,6l0 46c0,4 1,8 4,10 2,2 3,3 5,4 2,1 4,1 6,1l23 0c2,0 4,1 5,2 2,2 3,4 3,5 0,2 -1,4 -2,6 -2,1 -3,2 -6,2zm114 -33c0,9 -3,16 -10,23 -6,7 -14,10 -23,10l-10 0c-9,0 -16,-3 -23,-10 -7,-6 -10,-14 -10,-23l0 -40c0,-9 3,-17 10,-24 6,-6 14,-10 23,-10l10 0c9,0 17,4 23,10 7,7 10,15 10,24l0 40zm-15 0l0 -40c0,-5 -2,-9 -5,-13 -4,-4 -8,-5 -13,-5l-10 0c-5,0 -9,1 -12,5 -4,3 -6,8 -6,13l0 40c0,5 2,9 5,12 4,4 8,6 13,6l10 0c5,0 9,-2 13,-5 3,-4 5,-8 5,-13zm107 3l0 -46c0,-4 -2,-8 -5,-11 -3,-3 -6,-4 -11,-4l-15 0c-4,0 -8,1 -11,4 -1,1 -3,3 -3,5 -1,2 -1,4 -1,6l0 46c0,4 1,8 4,11 2,1 3,2 5,3 2,1 4,1 6,1l15 0c4,0 8,-2 11,-4 3,-3 5,-7 5,-11zm-46 -71l6 -4 9 -7c3,-2 5,-4 6,-5 2,-3 3,-5 3,-8 0,-3 -1,-6 -4,-9 -2,-2 -5,-3 -8,-3 -3,0 -6,1 -9,3 -2,2 -3,5 -3,9l0 24zm30 -5c10,0 18,3 23,9 5,5 8,12 8,21l0 46c0,8 -3,15 -9,21 -6,6 -13,9 -22,9l-15 0c-8,0 -15,-3 -21,-9 -6,-6 -9,-13 -9,-21l0 -95c0,-8 2,-15 8,-20 5,-5 12,-7 19,-7 7,0 13,2 19,7 5,5 8,11 8,20 0,5 0,9 -2,11 -1,3 -3,5 -7,8zm122 76l0 -61 -31 0c-4,0 -7,1 -10,4 -2,1 -3,3 -4,5 0,2 -1,4 -1,6l0 46c0,4 2,8 5,10 1,2 3,3 4,4 3,1 5,1 6,1l16 0c4,0 8,-2 11,-4 3,-3 4,-7 4,-11zm8 20c-3,3 -6,5 -11,7 -4,2 -8,3 -12,3l-15 0c-9,0 -16,-3 -22,-9 -6,-6 -9,-13 -9,-21l0 -46c0,-9 3,-16 9,-22 6,-6 13,-9 22,-9l38 0c5,0 7,3 7,8l0 68c0,3 1,7 3,10 2,3 4,5 8,6 3,2 4,4 4,7 0,2 0,4 -2,6 -1,1 -3,2 -5,2 -1,0 -2,0 -3,-1 -5,-2 -9,-5 -12,-9zm99 -20l0 -46c0,-4 -2,-8 -5,-11 -3,-3 -6,-4 -11,-4l-15 0c-4,0 -8,1 -11,4 -1,1 -2,3 -3,5 -1,2 -1,4 -1,6l0 46c0,4 1,8 4,11 2,1 3,2 5,3 2,1 4,1 6,1l15 0c5,0 8,-2 11,-4 3,-3 5,-7 5,-11zm-46 -71l6 -4 9 -7c3,-2 5,-4 6,-5 2,-3 3,-5 3,-8 0,-3 -1,-6 -4,-9 -2,-2 -5,-3 -8,-3 -3,0 -6,1 -9,3 -2,2 -3,5 -3,9l0 24zm30 -5c10,0 18,3 23,9 5,5 8,12 8,21l0 46c0,8 -3,15 -9,21 -6,6 -13,9 -22,9l-15 0c-8,0 -15,-3 -21,-9 -6,-6 -9,-13 -9,-21l0 -95c0,-8 2,-15 8,-20 5,-5 12,-7 19,-7 7,0 13,2 19,7 6,5 8,11 8,20 0,5 0,9 -2,11 -1,3 -3,5 -7,8zm122 91l30 0 0 -84c0,-2 1,-4 3,-6 1,-1 3,-2 5,-2 2,0 4,1 5,2 2,2 3,3 3,6l0 91c0,5 -3,8 -8,8l-69 0c-8,0 -15,-3 -21,-9 -6,-6 -9,-13 -9,-21l0 -69c0,-2 1,-4 2,-6 2,-1 4,-2 6,-2 2,0 3,1 5,2 1,2 2,3 2,6l0 69c0,4 2,8 5,11 1,1 3,2 5,3 2,1 4,1 5,1l16 0 0 -84c0,-2 0,-4 2,-6 2,-1 3,-2 5,-2 2,0 4,1 6,2 1,2 2,3 2,6l0 84zm152 7c0,5 -2,8 -7,8l-38 0c-9,0 -16,-3 -22,-9 -6,-6 -9,-13 -9,-21l0 -69c0,-2 1,-4 2,-6 2,-1 4,-2 6,-2 2,0 3,1 5,2 1,2 2,3 2,6l0 69c0,4 2,8 5,11 1,1 3,2 4,3 3,1 5,1 6,1l31 0 0 -84c0,-2 1,-4 2,-6 2,-1 4,-2 6,-2 2,0 3,1 5,2 1,2 2,3 2,6l0 91zm78 -45l28 41 1 2 0 3c0,1 -1,3 -2,5l-2 1 -1 1 -3 0c-2,0 -4,-1 -6,-3l-24 -36 -24 36c-2,2 -4,3 -7,3 -1,0 -3,-1 -5,-2 -2,-2 -2,-4 -2,-6 0,-1 0,-2 1,-4l28 -41 -28 -42 -1 -2 0 -2c0,-2 0,-4 2,-5 1,-2 3,-3 6,-3 2,0 4,1 6,4l24 36 24 -36c1,-2 3,-4 6,-4 2,0 3,1 6,3 1,1 2,3 2,5 0,1 0,3 -1,4l-28 42z"/>
  </g>
  <g>
   <path class="fil14 str3" d="M7645 1670l-10 29c0,2 -1,3 -2,4 -1,0 -3,1 -4,1 -2,0 -4,-1 -5,-2 -1,-1 -2,-3 -2,-5l0 -2 41 -122c1,-4 4,-5 6,-5 3,0 5,1 7,5l40 122 1 2c0,2 -1,4 -2,5 -2,1 -3,2 -5,2 -1,0 -2,0 -3,-1 -1,0 -2,-1 -3,-4l-10 -29 -49 0zm44 -14l-20 -59 -20 59 40 0zm67 -29l57 -56c2,-2 3,-2 5,-2 2,0 3,0 5,2 1,1 2,3 2,5 0,1 -1,2 -2,4l-41 40 42 74 1 3c0,2 -1,4 -2,5 -2,1 -3,2 -5,2 -2,0 -4,-1 -6,-4l-40 -70 -16 16 0 51c0,2 0,4 -2,5 -1,1 -3,2 -4,2 -2,0 -4,-1 -5,-2 -2,-1 -2,-2 -2,-5l0 -122c0,-1 0,-3 2,-4 1,-2 3,-2 5,-2 1,0 3,0 4,1 2,1 2,3 2,5l0 52zm129 -45l-27 0c-2,0 -4,0 -5,-2 -1,-1 -2,-3 -2,-5 0,-1 1,-3 2,-4 1,-2 3,-2 5,-2l67 0c2,0 4,0 5,2 1,1 2,3 2,4 0,2 0,3 -2,5 -1,1 -2,2 -5,2l-27 0 0 115c0,2 0,4 -2,5 -1,1 -2,2 -4,2 -2,0 -4,-1 -5,-2 -1,-1 -2,-2 -2,-5l0 -115zm-1018 309c0,8 -3,15 -9,21 -5,6 -13,9 -21,9l-8 0c-8,0 -15,-3 -21,-9 -6,-6 -9,-13 -9,-21l0 -35c0,-8 3,-15 9,-21 6,-6 13,-9 21,-9l8 0c8,0 15,3 21,8 6,6 9,13 9,22l0 35zm-14 0l0 -35c0,-5 -1,-9 -4,-12 -3,-3 -7,-5 -12,-5l-8 0c-4,0 -8,2 -11,5 -4,3 -5,7 -5,12l0 35c0,4 1,8 4,11 4,4 7,5 12,5l8 0c5,0 8,-1 12,-5 3,-3 4,-7 4,-11zm176 -25l0 -33c0,-2 1,-4 2,-5 2,-2 3,-2 5,-2 2,0 3,0 5,1 1,2 2,3 2,6l0 81c0,2 -1,4 -2,5 -1,1 -3,2 -5,2 -2,0 -3,-1 -5,-2 -1,-1 -2,-3 -2,-5l0 -34 -27 0c-7,0 -13,-3 -19,-8 -5,-5 -8,-12 -8,-19l0 -20c0,-2 1,-4 2,-5 1,-2 3,-2 5,-2 2,0 3,0 4,1 2,2 3,3 3,6l0 20c0,4 1,7 3,10 2,1 3,2 5,2 2,1 4,1 5,1l27 0zm108 48c0,4 -2,7 -6,7l-34 0c-7,0 -14,-3 -19,-8 -5,-5 -8,-12 -8,-19l0 -61c0,-2 0,-4 2,-5 1,-2 3,-2 5,-2 1,0 3,0 4,1 2,2 2,3 2,6l0 61c0,3 2,7 4,9 1,1 3,2 4,3 2,1 4,1 6,1l27 0 0 -74c0,-2 1,-4 2,-5 1,-2 3,-2 5,-2 1,0 3,0 4,1 2,2 2,3 2,6l0 81zm75 7l-20 0c-8,0 -14,-3 -19,-8 -6,-5 -9,-12 -9,-19l0 -41c0,-8 3,-14 8,-19 6,-6 12,-8 20,-8l20 0c2,0 3,0 5,2 1,1 2,3 2,5 0,1 -1,3 -2,4 -1,2 -3,2 -5,2l-20 0c-4,0 -8,2 -10,4 -1,1 -2,3 -3,5 -1,1 -1,3 -1,5l0 41c0,3 1,7 4,9 1,1 3,2 4,3 2,1 4,1 6,1l20 0c2,0 3,1 5,2 1,2 2,3 2,5 0,1 -1,3 -2,4 -1,2 -3,3 -5,3zm101 -7c0,2 0,4 -2,5 -1,1 -2,2 -4,2 -2,0 -4,-1 -5,-2 -1,-1 -2,-3 -2,-5l0 -75 -16 0 -25 77c-1,1 -1,3 -3,4 0,0 -1,0 -3,1 -2,0 -4,-1 -5,-2 -1,-2 -2,-3 -2,-5l0 -2 27 -82c1,-3 3,-4 6,-4l28 0c4,0 6,2 6,7l0 81zm41 -47l41 0 0 -14c0,-4 -2,-7 -4,-10 -3,-2 -6,-4 -10,-4l-14 0c-3,0 -7,2 -9,4 -2,1 -3,3 -3,5 -1,1 -1,3 -1,5l0 14zm0 13l0 14c0,3 1,7 4,9 1,1 3,2 4,3 2,1 4,1 5,1l34 0c2,0 4,1 5,2 1,2 2,3 2,5 0,1 -1,3 -2,4 -1,2 -2,3 -5,3l-34 0c-7,0 -13,-3 -19,-8 -5,-6 -8,-12 -8,-19l0 -41c0,-7 3,-14 8,-19 5,-5 12,-8 19,-8l14 0c7,0 14,2 19,8 5,5 8,11 8,19l0 20c0,5 -2,7 -7,7l-47 0zm230 34c0,4 -2,7 -7,7l-34 0c-7,0 -13,-3 -19,-8 -5,-5 -8,-12 -8,-19l0 -61c0,-2 1,-4 2,-5 2,-2 3,-2 5,-2 2,0 3,0 5,1 1,2 2,3 2,6l0 61c0,3 1,7 4,9 1,1 2,2 4,3 2,1 4,1 5,1l27 0 0 -74c0,-2 1,-4 2,-5 2,-2 3,-2 5,-2 2,0 3,0 5,1 1,2 2,3 2,6l0 81zm63 -34l-9 0c-2,0 -4,-1 -5,-2 -1,-1 -2,-3 -2,-5 0,-2 1,-3 2,-4 1,-2 3,-3 5,-3l7 0c4,0 7,-1 10,-4 2,-2 3,-6 3,-9 0,-4 -1,-7 -3,-10 -1,-1 -2,-2 -4,-3 -2,0 -4,-1 -6,-1l-7 0c-6,0 -12,2 -16,6 -1,1 -3,1 -4,1 -2,0 -3,0 -5,-2 -1,-1 -2,-3 -2,-5 0,-2 1,-4 3,-5 7,-5 15,-8 24,-8l7 0c8,0 15,3 20,8 5,5 7,12 7,19 0,2 0,4 -1,6 0,1 0,3 -1,5 -2,3 -4,6 -7,9 3,3 5,6 7,9l1 6c1,2 1,3 1,6 0,7 -2,13 -7,18 -5,6 -11,9 -20,9l-7 0c-9,0 -17,-3 -24,-9 -2,-1 -3,-3 -3,-5 0,-1 1,-3 2,-5 1,-1 3,-2 5,-2 1,0 2,1 4,2 5,3 10,5 16,5l7 0c4,0 7,-1 10,-4 2,-3 3,-6 3,-10 0,-3 -1,-6 -2,-8 -2,-3 -5,-4 -9,-5zm106 14l0 -41c0,-4 -1,-7 -4,-10 -2,-2 -6,-4 -10,-4l-13 0c-4,0 -7,2 -10,4 -1,1 -2,3 -3,5 0,1 -1,3 -1,5l0 41c0,3 2,7 4,9 2,1 3,2 5,3 1,1 3,1 5,1l13 0c4,0 7,-1 10,-4 3,-2 4,-5 4,-9zm-22 -68l-30 -29c-2,-2 -3,-4 -3,-6 0,-1 1,-2 2,-4 1,-1 3,-2 6,-2l54 0c2,0 3,1 5,2 1,2 2,3 2,5 0,2 -1,3 -2,4 -1,2 -3,3 -5,3l-38 0 36 34 2 2c4,5 7,11 7,18l0 41c0,7 -3,13 -8,19 -6,5 -12,8 -20,8l-13 0c-7,0 -14,-3 -19,-8 -5,-5 -8,-12 -8,-19l0 -41c0,-8 2,-14 8,-19 5,-6 11,-8 19,-8l5 0zm130 88c0,4 -2,7 -7,7l-33 0c-8,0 -14,-3 -19,-8 -6,-5 -8,-12 -8,-19l0 -61c0,-2 0,-4 2,-5 1,-2 2,-2 4,-2 2,0 4,0 5,1 1,2 2,3 2,6l0 61c0,3 1,7 4,9 1,1 3,2 4,3 2,1 4,1 6,1l27 0 0 -74c0,-2 0,-4 2,-5 1,-2 3,-2 4,-2 2,0 4,0 5,1 2,2 2,3 2,6l0 81zm41 -7l27 0c4,0 7,-1 9,-4 3,-2 4,-5 4,-9l0 -41c0,-4 -1,-7 -3,-10 -3,-2 -6,-4 -10,-4l-27 0 0 68zm0 14l0 33c0,2 -1,4 -2,5 -2,2 -3,2 -5,2 -2,0 -3,0 -5,-2 -1,-1 -2,-2 -2,-5l0 -121c0,-5 2,-7 7,-7l34 0c7,0 14,2 19,8 5,5 8,11 8,19l0 41c0,7 -3,13 -8,19 -5,5 -12,8 -19,8l-27 0zm135 -27l0 -55 -27 0c-4,0 -7,2 -10,4 -1,1 -2,3 -3,5 0,1 -1,3 -1,5l0 41c0,3 2,7 4,9 2,1 3,2 5,3 2,1 3,1 5,1l14 0c3,0 7,-1 9,-4 3,-2 4,-5 4,-9zm7 18c-2,2 -5,4 -9,6 -4,2 -8,3 -11,3l-14 0c-7,0 -14,-3 -19,-8 -5,-5 -8,-12 -8,-19l0 -41c0,-8 3,-14 8,-19 5,-6 12,-8 19,-8l34 0c4,0 7,2 7,7l0 60c0,3 0,6 2,9 2,2 4,4 7,6 3,1 4,3 4,6 0,2 0,3 -2,5 -1,1 -2,2 -5,2 -1,0 -1,-1 -2,-1 -5,-2 -8,-5 -11,-8zm74 -73l-27 0 0 75c0,2 -1,4 -2,5 -1,1 -3,2 -5,2 -1,0 -3,-1 -4,-2 -2,-1 -2,-3 -2,-5l0 -81c0,-5 2,-7 6,-7l61 0c8,0 14,2 19,8 6,5 8,11 8,19l0 61c0,2 0,4 -2,5 -1,1 -3,2 -5,2 -1,0 -3,-1 -4,-2 -2,-1 -2,-3 -2,-5l0 -61c0,-4 -2,-7 -4,-10 -3,-2 -6,-4 -10,-4l-13 0 0 75c0,2 -1,4 -2,5 -1,1 -3,2 -5,2 -2,0 -3,-1 -5,-2 -1,-1 -2,-3 -2,-5l0 -75zm95 28l41 0 0 -14c0,-4 -2,-7 -4,-10 -3,-2 -6,-4 -10,-4l-14 0c-3,0 -7,2 -9,4 -2,1 -3,3 -3,5 -1,1 -1,3 -1,5l0 14zm0 13l0 14c0,3 1,7 4,9 1,1 3,2 4,3 2,1 4,1 5,1l34 0c2,0 4,1 5,2 1,2 2,3 2,5 0,1 -1,3 -2,4 -1,2 -2,3 -5,3l-34 0c-7,0 -13,-3 -19,-8 -5,-6 -8,-12 -8,-19l0 -41c0,-7 3,-14 8,-19 5,-5 12,-8 19,-8l14 0c7,0 14,2 19,8 5,5 8,11 8,19l0 20c0,5 -2,7 -7,7l-47 0zm149 34c0,2 -1,4 -2,5 -1,1 -3,2 -5,2 -2,0 -3,-1 -5,-2 -1,-1 -2,-3 -2,-5l0 -75 -15 0 -26 77c0,1 -1,3 -2,4 0,0 -2,0 -4,1 -2,0 -3,-1 -5,-2 -1,-2 -2,-3 -2,-5l1 -2 26 -82c1,-3 4,-4 7,-4l27 0c4,0 7,2 7,7l0 81zm40 -34l0 27 27 0c5,0 8,-1 10,-4 3,-3 4,-6 4,-10 0,-3 -1,-7 -3,-9 -1,-1 -3,-2 -5,-3 -1,-1 -3,-1 -6,-1l-27 0zm0 -14l27 0c9,0 16,3 21,9 4,5 6,11 6,18 0,8 -2,14 -6,19 -5,6 -12,9 -21,9l-34 0c-4,0 -6,-3 -6,-7l0 -81c0,-2 0,-4 2,-5 1,-2 3,-2 4,-2 2,0 4,0 5,1 2,2 2,3 2,6l0 33zm136 0l0 -33c0,-2 0,-4 2,-5 1,-2 3,-2 4,-2 2,0 4,0 5,1 1,2 2,3 2,6l0 81c0,2 -1,4 -2,5 -1,1 -3,2 -5,2 -1,0 -3,-1 -4,-2 -2,-1 -2,-3 -2,-5l0 -34 -41 0 0 34c0,2 -1,4 -2,5 -1,1 -3,2 -5,2 -2,0 -3,-1 -5,-2 -1,-1 -2,-3 -2,-5l0 -81c0,-2 1,-4 2,-5 2,-2 3,-2 5,-2 2,0 3,0 5,1 1,2 2,3 2,6l0 33 41 0zm121 48c0,2 0,4 -2,5 -1,1 -2,2 -4,2 -2,0 -4,-1 -5,-2 -2,-1 -2,-3 -2,-5l0 -81c0,-2 0,-4 2,-5 1,-2 3,-2 5,-2 1,0 3,0 4,1 2,2 2,3 2,6l0 81zm-67 -34l0 27 13 0c4,0 8,-1 10,-4 2,-3 4,-6 4,-10 0,-3 -1,-7 -4,-9 -1,-1 -2,-2 -4,-3 -2,-1 -4,-1 -6,-1l-13 0zm0 -14l13 0c9,0 15,3 20,9 5,5 7,11 7,18 0,8 -2,14 -7,19 -5,6 -11,9 -20,9l-20 0c-5,0 -7,-3 -7,-7l0 -81c0,-2 1,-4 2,-5 1,-2 3,-2 5,-2 2,0 3,0 5,1 1,2 2,3 2,6l0 33zm136 7l25 37 1 2 0 2c0,2 0,3 -2,5l-1 1 -1 0 -3 1c-2,0 -4,-1 -5,-3l-22 -32 -21 32c-1,2 -3,3 -6,3 -1,0 -3,-1 -4,-2 -2,-2 -3,-3 -3,-5 0,-1 1,-3 1,-4l25 -37 -25 -37 -1 -2 0 -2c0,-1 1,-3 2,-4 2,-2 3,-2 5,-2 2,0 4,1 6,3l21 32 22 -32c1,-2 3,-3 5,-3 2,0 3,0 5,2 2,1 2,3 2,5 0,1 0,2 -1,3l-25 37zm-1824 237l0 -41c0,-3 -1,-7 -4,-9 -2,-3 -5,-4 -9,-4l-14 0c-4,0 -7,1 -10,4 -1,1 -2,2 -3,4 0,2 -1,3 -1,5l0 41c0,4 2,7 4,10 2,1 3,2 5,3 2,0 3,1 5,1l14 0c3,0 7,-2 9,-4 3,-3 4,-6 4,-10zm-22 -68l-30 -29c-2,-1 -2,-3 -2,-5 0,-2 0,-3 1,-4 1,-2 3,-2 6,-2l54 0c2,0 3,0 5,2 1,1 2,3 2,4 0,2 -1,4 -2,5 -1,1 -3,2 -5,2l-37 0 36 34 1 3c5,5 7,11 7,17l0 41c0,7 -3,14 -8,19 -6,5 -12,8 -19,8l-14 0c-7,0 -14,-2 -19,-8 -5,-5 -8,-11 -8,-19l0 -41c0,-7 3,-13 8,-19 5,-5 12,-8 19,-8l5 0zm130 72l0 -49c0,-2 -1,-4 -2,-6 -2,-2 -4,-3 -7,-3l-8 0c-3,0 -5,1 -7,3 -2,1 -3,4 -3,6l0 49c0,3 1,5 3,7 1,1 2,1 3,2 2,0 3,1 4,1l8 0c3,0 5,-1 7,-3 1,-2 2,-4 2,-7zm-54 -31l14 0 0 -18c0,-6 2,-11 6,-16 5,-4 10,-7 17,-7l8 0c6,0 11,3 16,7 5,4 7,10 7,16l0 49c0,7 -2,12 -7,16 -4,5 -10,7 -16,7l-8 0c-6,0 -12,-2 -16,-7 -5,-4 -7,-9 -7,-16l0 -17 -14 0 0 33c0,2 0,4 -2,5 -1,2 -3,2 -5,2 -1,0 -3,0 -4,-2 -2,-1 -2,-2 -2,-5l0 -81c0,-2 0,-3 2,-5 1,-1 3,-2 4,-2 2,0 4,1 5,2 1,1 2,3 2,5l0 34zm149 47c0,2 -1,4 -2,5 -1,2 -3,2 -5,2 -1,0 -3,0 -4,-2 -2,-1 -2,-2 -2,-5l0 -74 -16 0 -25 76c-1,2 -2,3 -3,4 0,0 -1,1 -4,1 -1,0 -3,-1 -4,-2 -2,-1 -2,-2 -2,-4l0 -3 27 -81c1,-3 3,-5 6,-5l27 0c5,0 7,3 7,7l0 81zm95 0c0,2 -1,4 -2,5 -1,2 -3,2 -5,2 -2,0 -3,0 -5,-2 -1,-1 -2,-2 -2,-5l0 -74 -15 0 -26 76c0,2 -1,3 -2,4 0,0 -2,1 -4,1 -2,0 -3,-1 -5,-2 -1,-1 -2,-2 -2,-4l1 -3 26 -81c1,-3 4,-5 7,-5l27 0c5,0 7,3 7,7l0 81zm40 -47l41 0 0 -14c0,-3 -1,-7 -4,-9 -2,-3 -6,-4 -10,-4l-13 0c-4,0 -7,1 -10,4 -1,1 -2,2 -3,4 0,2 -1,4 -1,5l0 14zm0 14l0 13c0,4 1,7 4,10 1,1 3,2 4,3 2,0 4,1 6,1l34 0c2,0 3,0 4,2 2,1 2,3 2,4 0,2 0,3 -1,5 -1,1 -3,2 -5,2l-34 0c-8,0 -14,-3 -19,-8 -6,-5 -8,-11 -8,-19l0 -41c0,-7 2,-13 8,-19 5,-5 11,-8 19,-8l13 0c8,0 14,3 19,8 6,5 8,12 8,19l0 21c0,4 -2,7 -6,7l-48 0zm122 -41l-27 0 0 74c0,2 -1,4 -2,5 -1,2 -3,2 -5,2 -2,0 -3,0 -5,-2 -1,-1 -2,-2 -2,-5l0 -81c0,-4 3,-7 7,-7l61 0c7,0 14,3 19,8 5,5 8,12 8,19l0 61c0,2 -1,4 -2,5 -1,2 -3,2 -5,2 -1,0 -3,0 -4,-2 -2,-1 -2,-2 -2,-5l0 -61c0,-3 -2,-7 -4,-9 -3,-3 -6,-4 -10,-4l-14 0 0 74c0,2 0,4 -1,5 -2,2 -3,2 -5,2 -2,0 -4,0 -5,-2 -1,-1 -2,-2 -2,-5l0 -74zm95 27l40 0 0 -14c0,-3 -1,-7 -3,-9 -3,-3 -6,-4 -10,-4l-14 0c-4,0 -7,1 -9,4 -2,1 -3,2 -3,4 -1,2 -1,4 -1,5l0 14zm0 14l0 13c0,4 1,7 4,10 1,1 2,2 4,3 2,0 4,1 5,1l34 0c2,0 4,0 5,2 1,1 2,3 2,4 0,2 -1,3 -2,5 -1,1 -3,2 -5,2l-34 0c-7,0 -13,-3 -19,-8 -5,-5 -8,-11 -8,-19l0 -41c0,-7 3,-13 8,-19 5,-5 12,-8 19,-8l14 0c7,0 13,3 19,8 5,5 8,12 8,19l0 21c0,4 -2,7 -7,7l-47 0z"/>
   <path class="fil14 str3" d="M7594 2083l0 -34c0,-2 1,-3 2,-5 1,-1 3,-2 5,-2 2,0 3,1 4,2 2,1 3,3 3,5l0 81c0,2 -1,4 -2,5 -2,2 -3,2 -5,2 -2,0 -4,0 -5,-2 -1,-1 -2,-2 -2,-5l0 -34 -41 0 0 34c0,2 0,4 -2,5 -1,2 -2,2 -4,2 -2,0 -4,0 -5,-2 -1,-1 -2,-2 -2,-5l0 -81c0,-2 1,-3 2,-5 1,-1 3,-2 5,-2 1,0 3,1 4,2 2,1 2,3 2,5l0 34 41 0zm54 0l41 0 0 -14c0,-3 -1,-7 -4,-9 -3,-3 -6,-4 -10,-4l-13 0c-4,0 -7,1 -10,4 -1,1 -2,2 -3,4 -1,2 -1,4 -1,5l0 14zm0 14l0 13c0,4 1,7 4,10 1,1 3,2 4,3 2,0 4,1 6,1l33 0c2,0 4,0 5,2 2,1 2,3 2,4 0,2 0,3 -1,5 -2,1 -3,2 -6,2l-33 0c-8,0 -14,-3 -19,-8 -6,-5 -8,-11 -8,-19l0 -41c0,-7 2,-13 7,-19 6,-5 12,-8 20,-8l13 0c8,0 14,3 19,8 6,5 8,12 8,19l0 21c0,4 -2,7 -7,7l-47 0zm129 -82l-27 0c-2,0 -4,0 -5,-2 -2,-1 -2,-3 -2,-5 0,-1 0,-3 1,-4 2,-2 3,-2 6,-2l27 0c1,0 3,0 4,2 2,1 2,3 2,4 0,2 0,4 -1,5 -1,1 -3,2 -5,2zm20 115c0,5 -2,7 -7,7l-34 0c-7,0 -13,-2 -19,-8 -5,-5 -8,-11 -8,-19l0 -61c0,-2 1,-3 2,-5 2,-1 3,-2 5,-2 2,0 3,1 5,2 1,1 2,3 2,5l0 61c0,4 1,7 4,10 1,1 2,2 4,3 2,0 4,1 5,1l27 0 0 -75c0,-2 1,-3 3,-5 1,-1 2,-2 4,-2 2,0 4,1 5,2 1,1 2,3 2,5l0 81zm41 0l0 2 -7 27c0,4 -3,5 -6,5 -2,0 -4,0 -5,-2 -1,-1 -2,-2 -2,-4l0 -2 7 -27 0 -5c0,-2 0,-4 2,-6 1,-1 3,-1 4,-1 2,0 4,0 5,1 2,2 2,3 2,6l0 6zm162 -20l0 -40c0,-4 -1,-8 -4,-10 -2,-3 -6,-4 -10,-4l-13 0c-4,0 -7,1 -10,4 -1,1 -2,3 -3,4 -1,2 -1,4 -1,6l0 40c0,4 1,7 4,10 1,1 3,2 4,3 2,0 4,1 6,1l13 0c4,0 7,-2 10,-4 3,-3 4,-6 4,-10zm-41 -63l6 -3 8 -6c2,-2 4,-4 5,-5 2,-2 3,-4 3,-7 0,-3 -1,-5 -3,-8 -3,-1 -5,-2 -8,-2 -3,0 -6,1 -8,2 -2,2 -3,5 -3,8l0 21zm27 -4c9,0 16,2 21,8 4,4 6,11 6,18l0 41c0,7 -2,14 -8,19 -5,5 -11,8 -19,8l-13 0c-8,0 -14,-2 -19,-8 -6,-5 -8,-11 -8,-19l0 -84c0,-7 2,-13 7,-18 5,-4 11,-6 17,-6 6,0 12,2 17,6 5,4 7,10 7,18 0,4 0,8 -2,10 -1,2 -3,4 -6,7zm136 87c0,2 -1,4 -2,5 -2,2 -3,2 -5,2 -2,0 -4,0 -5,-2 -1,-1 -2,-2 -2,-5l0 -81c0,-2 1,-3 2,-5 1,-1 3,-2 5,-2 2,0 3,1 4,2 2,1 3,3 3,5l0 81zm-68 -34l0 28 13 0c5,0 8,-2 10,-4 3,-3 4,-6 4,-10 0,-4 -1,-7 -3,-9 -1,-2 -3,-3 -5,-3 -1,-1 -3,-2 -6,-2l-13 0zm0 -13l13 0c9,0 16,3 21,8 4,5 6,12 6,19 0,7 -2,13 -6,19 -5,5 -12,8 -21,8l-20 0c-4,0 -7,-2 -7,-7l0 -81c0,-2 1,-3 2,-5 2,-1 3,-2 5,-2 2,0 3,1 5,2 1,1 2,3 2,5l0 34zm149 -27l-27 0c-4,0 -7,1 -10,4 -1,1 -2,2 -3,4 -1,2 -1,3 -1,5l0 41c0,4 1,7 4,10 1,1 3,2 4,3 2,0 4,1 6,1l13 0c4,0 7,-2 10,-4 3,-3 4,-6 4,-10l0 -54zm0 -14l0 -13c0,-4 -1,-7 -4,-10 -3,-2 -6,-4 -10,-4l-27 0c-2,0 -4,0 -5,-2 -1,-1 -2,-3 -2,-5 0,-1 1,-3 2,-4 1,-2 3,-2 5,-2l27 0c8,0 14,2 19,8 6,5 8,11 8,19l0 81c0,7 -2,14 -8,19 -5,5 -11,8 -19,8l-13 0c-8,0 -14,-2 -19,-8 -6,-5 -8,-11 -8,-19l0 -41c0,-7 2,-13 8,-19 5,-5 11,-8 19,-8l27 0zm95 68l0 -54 -28 0c-3,0 -7,1 -9,4 -2,1 -3,2 -3,4 -1,2 -1,3 -1,5l0 41c0,4 1,7 4,10 1,1 2,2 4,3 2,0 4,1 5,1l14 0c4,0 7,-2 10,-4 2,-3 4,-6 4,-10zm6 18c-2,3 -5,5 -9,7 -4,1 -7,2 -11,2l-14 0c-7,0 -13,-2 -19,-8 -5,-5 -8,-11 -8,-19l0 -41c0,-7 3,-13 8,-19 6,-5 12,-8 19,-8l34 0c5,0 7,3 7,7l0 61c0,3 1,5 3,8 1,3 3,5 6,6 3,1 5,3 5,6 0,2 -1,4 -2,5 -2,1 -3,2 -5,2 -1,0 -2,0 -3,-1 -4,-1 -8,-4 -11,-8zm88 -45l0 -34c0,-2 1,-3 2,-5 2,-1 3,-2 5,-2 2,0 3,1 5,2 1,1 2,3 2,5l0 81c0,2 -1,4 -2,5 -1,2 -3,2 -5,2 -2,0 -3,0 -5,-2 -1,-1 -2,-2 -2,-5l0 -34 -41 0 0 34c0,2 0,4 -1,5 -2,2 -3,2 -5,2 -2,0 -4,0 -5,-2 -1,-1 -2,-2 -2,-5l0 -81c0,-2 1,-3 2,-5 1,-1 3,-2 5,-2 1,0 3,1 4,2 2,1 2,3 2,5l0 34 41 0zm95 0l0 -34c0,-2 1,-3 2,-5 1,-1 3,-2 5,-2 1,0 3,1 4,2 2,1 2,3 2,5l0 81c0,2 0,4 -2,5 -1,2 -2,2 -4,2 -2,0 -4,0 -5,-2 -1,-1 -2,-2 -2,-5l0 -34 -41 0 0 34c0,2 0,4 -2,5 -1,2 -3,2 -5,2 -1,0 -3,0 -4,-2 -2,-1 -2,-2 -2,-5l0 -81c0,-2 0,-3 2,-5 1,-1 3,-2 4,-2 2,0 4,1 5,2 1,1 2,3 2,5l0 34 41 0zm122 47c0,2 -1,4 -2,5 -2,2 -3,2 -5,2 -2,0 -4,0 -5,-2 -1,-1 -2,-2 -2,-5l0 -81c0,-2 1,-3 2,-5 1,-1 3,-2 5,-2 2,0 3,1 4,2 2,1 3,3 3,5l0 81zm-68 -34l0 28 13 0c5,0 8,-2 10,-4 3,-3 4,-6 4,-10 0,-4 -1,-7 -3,-9 -1,-2 -3,-3 -5,-3 -1,-1 -3,-2 -6,-2l-13 0zm0 -13l13 0c9,0 16,3 21,8 4,5 6,12 6,19 0,7 -2,13 -6,19 -5,5 -12,8 -21,8l-20 0c-4,0 -7,-2 -7,-7l0 -81c0,-2 1,-3 2,-5 2,-1 3,-2 5,-2 2,0 3,1 5,2 1,1 2,3 2,5l0 34zm137 7l24 37 1 2 0 1c0,2 0,4 -2,5l-1 1 -1 1 -3 0c-2,0 -3,-1 -5,-3l-21 -32 -22 32c-1,2 -3,3 -5,3 -2,0 -3,-1 -5,-2 -2,-1 -2,-3 -2,-5 0,-1 0,-2 1,-3l24 -37 -24 -37 -1 -2 0 -2c0,-2 0,-3 2,-5 1,-1 3,-2 5,-2 2,0 3,1 5,3l22 33 21 -33c1,-2 3,-3 6,-3 1,0 2,1 4,2 2,2 2,3 2,5 0,1 0,3 -1,4l-24 37zm-1378 257c0,4 -2,7 -7,7l-34 0c-7,0 -13,-3 -19,-8 -5,-5 -8,-12 -8,-19l0 -61c0,-2 1,-4 2,-5 2,-2 3,-2 5,-2 2,0 3,0 5,2 1,1 2,2 2,5l0 61c0,3 1,7 3,9 2,1 3,2 5,3 2,1 4,1 5,1l27 0 0 -74c0,-2 1,-4 2,-5 2,-2 3,-2 5,-2 2,0 3,0 5,2 1,1 2,2 2,5l0 81zm63 -34l-9 0c-2,0 -4,-1 -5,-2 -1,-1 -2,-3 -2,-5 0,-1 1,-3 2,-4 1,-2 3,-3 5,-3l7 0c4,0 7,-1 10,-4 2,-2 3,-6 3,-9 0,-4 -1,-7 -3,-10 -1,-1 -2,-2 -4,-3 -2,0 -4,-1 -6,-1l-7 0c-6,0 -12,2 -16,6 -1,1 -3,1 -4,1 -2,0 -3,0 -5,-2 -1,-1 -2,-3 -2,-5 0,-2 1,-4 3,-5 7,-5 15,-8 24,-8l7 0c8,0 15,3 20,8 5,5 7,12 7,19 0,2 0,4 -1,6 0,1 -1,3 -1,5 -2,3 -4,6 -7,9 3,3 5,6 7,9l1 6c1,2 1,4 1,6 0,7 -2,13 -7,18 -5,6 -12,9 -20,9l-7 0c-9,0 -17,-3 -24,-8 -2,-2 -3,-4 -3,-6 0,-1 1,-3 2,-5 1,-1 3,-2 5,-2 1,0 2,1 4,2 4,3 10,5 16,5l7 0c4,0 7,-1 10,-4 2,-3 3,-6 3,-10 0,-3 -1,-6 -3,-8 -2,-3 -4,-4 -8,-5zm106 14l0 -41c0,-4 -1,-7 -4,-10 -2,-2 -6,-4 -10,-4l-13 0c-4,0 -7,2 -10,4 -1,1 -2,3 -3,5 0,1 -1,3 -1,5l0 41c0,3 2,7 4,9 1,1 3,2 4,3 2,1 4,1 6,1l13 0c4,0 7,-1 10,-4 3,-2 4,-5 4,-9zm-22 -68l-30 -29c-2,-2 -3,-4 -3,-6 0,-1 1,-2 2,-4 1,-1 3,-2 6,-2l54 0c2,0 3,1 4,2 2,2 2,3 2,5 0,2 0,3 -1,5 -1,1 -3,2 -5,2l-38 0 36 34 2 2c4,5 6,11 6,18l0 41c0,7 -2,13 -7,19 -6,5 -12,8 -20,8l-13 0c-7,0 -14,-3 -19,-8 -6,-5 -8,-12 -8,-19l0 -41c0,-8 2,-14 8,-19 5,-5 11,-8 19,-8l5 0zm130 88c0,4 -2,7 -7,7l-33 0c-8,0 -14,-3 -19,-8 -6,-5 -9,-12 -9,-19l0 -61c0,-2 1,-4 2,-5 2,-2 3,-2 5,-2 2,0 3,0 5,2 1,1 2,2 2,5l0 61c0,3 1,7 4,9 1,1 3,2 4,3 2,1 4,1 6,1l27 0 0 -74c0,-2 0,-4 2,-5 1,-2 3,-2 4,-2 2,0 4,0 5,2 1,1 2,2 2,5l0 81zm41 -7l27 0c4,0 7,-1 9,-4 3,-2 4,-5 4,-9l0 -41c0,-4 -1,-7 -3,-10 -3,-2 -6,-4 -10,-4l-27 0 0 68zm0 14l0 33c0,2 -1,4 -2,5 -2,2 -3,2 -5,2 -2,0 -3,0 -5,-1 -1,-2 -2,-3 -2,-6l0 -121c0,-5 2,-7 7,-7l34 0c7,0 13,3 19,8 5,5 8,11 8,19l0 41c0,7 -3,13 -8,19 -5,5 -12,8 -19,8l-27 0zm135 -27l0 -55 -27 0c-4,0 -7,2 -10,4 -1,1 -2,3 -3,5 0,1 -1,3 -1,5l0 41c0,3 2,7 4,9 2,1 3,2 5,3 1,1 3,1 5,1l13 0c4,0 7,-1 10,-4 3,-2 4,-5 4,-9zm7 18c-2,2 -5,4 -9,6 -4,2 -8,3 -12,3l-13 0c-7,0 -14,-3 -19,-8 -5,-5 -8,-12 -8,-19l0 -41c0,-8 2,-14 8,-19 5,-5 11,-8 19,-8l34 0c4,0 7,2 7,7l0 60c0,3 0,6 2,9 2,2 4,4 7,6 3,1 4,3 4,6 0,2 -1,3 -2,5 -1,1 -3,2 -5,2 -1,0 -2,-1 -2,-1 -5,-2 -8,-4 -11,-8zm74 -73l-27 0 0 75c0,2 -1,4 -2,5 -1,1 -3,2 -5,2 -2,0 -3,-1 -4,-2 -2,-1 -2,-3 -2,-5l0 -81c0,-5 2,-7 6,-7l61 0c7,0 14,3 19,8 5,5 8,11 8,19l0 61c0,2 0,4 -2,5 -1,1 -3,2 -5,2 -1,0 -3,-1 -4,-2 -2,-1 -2,-3 -2,-5l0 -61c0,-4 -2,-7 -4,-10 -3,-2 -6,-4 -10,-4l-13 0 0 75c0,2 -1,4 -2,5 -2,1 -3,2 -5,2 -2,0 -4,-1 -5,-2 -1,-1 -2,-3 -2,-5l0 -75zm95 28l40 0 0 -14c0,-4 -1,-7 -3,-10 -3,-2 -6,-4 -10,-4l-14 0c-4,0 -7,2 -9,4 -2,2 -3,3 -3,5 -1,1 -1,3 -1,5l0 14zm0 13l0 14c0,3 1,7 4,9 1,1 2,2 4,3 2,1 4,1 5,1l34 0c2,0 4,1 5,2 1,2 2,3 2,5 0,1 -1,3 -2,4 -1,2 -3,3 -5,3l-34 0c-7,0 -13,-3 -19,-8 -5,-5 -8,-12 -8,-19l0 -41c0,-7 3,-14 8,-19 5,-5 12,-8 19,-8l14 0c7,0 14,3 19,8 5,5 8,11 8,19l0 20c0,5 -2,7 -7,7l-47 0zm149 34c0,2 -1,4 -2,5 -1,1 -3,2 -5,2 -2,0 -3,-1 -5,-2 -1,-1 -2,-3 -2,-5l0 -75 -15 0 -26 77c0,1 -1,3 -2,4 -1,0 -2,0 -4,1 -2,0 -3,-1 -5,-2 -1,-1 -2,-3 -2,-5l1 -2 26 -81c1,-4 3,-5 7,-5l27 0c4,0 7,2 7,7l0 81zm81 -47l0 -28 -27 0c-4,0 -7,2 -10,4 -3,3 -4,6 -4,10 0,3 1,7 4,9 2,3 5,5 10,5l27 0zm-17 13l-25 38c0,0 -1,1 -3,2l-3 1c-1,0 -2,-1 -4,-2 -2,-2 -2,-3 -2,-5 0,-1 0,-3 1,-4l20 -30c-7,-1 -12,-4 -16,-10 -3,-5 -5,-11 -5,-17 0,-7 2,-14 6,-19 6,-5 12,-8 21,-8l34 0c4,0 6,2 6,7l0 81c0,2 0,4 -2,5 -1,1 -2,2 -4,2 -2,0 -4,-1 -5,-2 -1,-1 -2,-3 -2,-5l0 -34 -17 0zm138 34l0 -81c0,-3 0,-5 -1,-6 -1,-1 -3,-2 -5,-2 -1,0 -4,1 -6,4l-28 39 -28 -39c-2,-3 -4,-4 -7,-4 -1,0 -3,1 -4,2 -1,1 -2,3 -2,6l0 81c0,2 1,4 2,5 1,1 3,2 5,2 2,0 3,-1 5,-2 1,-1 2,-3 2,-5l0 -60 21 30c2,2 4,4 6,4 2,0 4,-2 5,-4l22 -30 0 60c0,2 1,4 2,5 1,1 3,2 5,2 1,0 3,-1 4,-2 2,-1 2,-3 2,-5zm42 0l0 1 -7 28c-1,3 -3,5 -7,5 -2,0 -3,-1 -5,-2 -1,-1 -2,-3 -2,-5l1 -2 6 -26 0 -6c0,-2 1,-3 2,-5 2,-1 3,-2 5,-2 2,0 3,1 5,2 1,1 2,3 2,5l0 7zm-1188 216c0,3 -1,4 -2,6 -1,1 -3,1 -5,1 -1,0 -3,0 -4,-1 -2,-2 -2,-3 -2,-6l0 -61c0,-3 -2,-7 -4,-9 -3,-3 -6,-4 -10,-4l-27 0 0 74c0,3 -1,4 -2,6 -1,1 -3,1 -5,1 -2,0 -3,0 -5,-1 -1,-2 -2,-3 -2,-6l0 -81c0,-4 3,-7 7,-7l34 0c7,0 14,3 19,8 5,5 8,12 8,19l0 61zm41 -6l27 0c4,0 7,-2 9,-4 3,-3 4,-6 4,-10l0 -41c0,-3 -1,-7 -3,-9 -3,-3 -6,-4 -10,-4l-27 0 0 68zm0 13l0 34c0,2 -1,3 -3,5 -1,1 -2,2 -4,2 -2,0 -3,-1 -5,-2 -1,-1 -2,-3 -2,-5l0 -122c0,-4 2,-7 7,-7l34 0c7,0 13,3 19,8 5,6 8,12 8,19l0 41c0,8 -3,14 -8,19 -5,6 -12,8 -19,8l-27 0zm148 -30c0,8 -2,15 -8,21 -6,6 -13,9 -21,9l-8 0c-8,0 -15,-3 -21,-8 -6,-6 -9,-13 -9,-22l0 -35c0,-8 3,-15 9,-21 5,-6 12,-9 21,-9l8 0c8,0 15,3 21,9 6,6 8,13 8,21l0 35zm-13 0l0 -35c0,-4 -2,-8 -5,-11 -3,-4 -7,-5 -11,-5l-8 0c-5,0 -9,1 -12,5 -3,3 -5,7 -5,11l0 35c0,5 2,9 5,12 3,3 7,5 12,5l8 0c4,0 8,-2 11,-5 3,-3 5,-7 5,-12z"/>
   <path class="fil14 str3" d="M7415 2564c-4,2 -8,4 -14,5l-7 1 -8 0 -10 0 -8 -1c-5,-1 -9,-3 -12,-7 -3,-4 -5,-8 -5,-13 0,-3 1,-6 2,-9 1,-3 3,-5 6,-8l43 -29c1,-1 2,-3 2,-4 0,-3 -2,-6 -7,-7 -5,-2 -10,-3 -15,-3 -5,0 -9,1 -12,2 -4,0 -7,2 -9,3 -1,1 -2,2 -4,2 -1,0 -3,-1 -5,-2 -1,-2 -2,-3 -2,-5 0,-2 1,-4 3,-5 3,-2 7,-4 13,-6 3,0 5,-1 8,-1 3,-1 6,-1 9,-1 2,0 4,0 5,0 2,0 4,0 6,1 2,0 4,1 7,1 5,2 9,4 12,8 3,4 5,8 5,12 0,6 -3,11 -8,15l-43 30c-2,2 -3,3 -3,5 0,2 1,4 2,5 1,1 3,2 5,3l7 1 8 0c5,0 9,0 12,-1 2,0 3,-1 5,-1 2,-1 3,-2 5,-3l1 -1c1,0 2,0 3,0 1,0 3,1 4,2 2,2 2,3 2,5 0,3 -1,4 -3,6zm98 -24c0,8 -3,15 -9,21 -6,6 -13,9 -21,9l-8 0c-8,0 -15,-3 -21,-8 -6,-6 -9,-13 -9,-22l0 -35c0,-8 3,-15 9,-21 6,-6 13,-9 21,-9l8 0c8,0 15,3 21,9 6,6 9,13 9,21l0 35zm-14 0l0 -35c0,-4 -1,-8 -4,-11 -3,-4 -7,-5 -12,-5l-8 0c-5,0 -8,1 -12,5 -3,3 -4,7 -4,11l0 35c0,5 1,9 4,12 4,3 7,5 12,5l8 0c5,0 8,-2 12,-5 3,-3 4,-7 4,-12zm109 23c0,3 -1,4 -2,6 -2,1 -3,1 -5,1 -2,0 -4,0 -5,-1 -1,-2 -2,-3 -2,-6l0 -74 -15 0 -26 77c0,1 -1,2 -2,3 -1,0 -2,1 -4,1 -2,0 -3,0 -5,-2 -1,-1 -2,-2 -2,-4l1 -3 26 -81c1,-3 3,-5 7,-5l27 0c4,0 7,3 7,7l0 81zm94 -23c0,8 -3,15 -8,21 -6,6 -13,9 -22,9l-8 0c-8,0 -15,-3 -21,-8 -5,-6 -8,-13 -8,-22l0 -35c0,-8 2,-15 8,-21 6,-6 13,-9 21,-9l8 0c9,0 16,3 21,9 6,6 9,13 9,21l0 35zm-13 0l0 -35c0,-4 -2,-8 -5,-11 -3,-4 -7,-5 -11,-5l-9 0c-4,0 -8,1 -11,5 -3,3 -5,7 -5,11l0 35c0,5 2,9 5,12 3,3 7,5 11,5l9 0c4,0 8,-2 11,-5 3,-3 5,-7 5,-12zm88 30l-21 0c-7,0 -13,-2 -19,-8 -5,-5 -8,-11 -8,-19l0 -41c0,-7 3,-13 8,-19 5,-5 12,-8 19,-8l21 0c2,0 3,1 4,2 2,2 2,3 2,5 0,2 0,3 -1,5 -1,1 -3,2 -5,2l-21 0c-4,0 -7,1 -9,4 -2,1 -3,2 -3,4 -1,2 -1,4 -1,5l0 41c0,4 1,7 4,10 1,1 2,2 4,3 2,0 4,1 5,1l21 0c2,0 3,0 4,2 2,1 2,3 2,4 0,2 0,3 -1,5 -1,1 -3,2 -5,2zm101 -30c0,8 -3,15 -9,21 -5,6 -12,9 -21,9l-8 0c-8,0 -15,-3 -21,-8 -6,-6 -9,-13 -9,-22l0 -35c0,-8 3,-15 9,-21 6,-6 13,-9 21,-9l8 0c8,0 15,3 21,9 6,6 9,13 9,21l0 35zm-13 0l0 -35c0,-4 -2,-8 -5,-11 -3,-4 -7,-5 -12,-5l-8 0c-4,0 -8,1 -11,5 -3,3 -5,7 -5,11l0 35c0,5 1,9 5,12 3,3 7,5 11,5l8 0c5,0 9,-2 12,-5 3,-3 5,-7 5,-12zm94 3l0 -40c0,-4 -1,-7 -3,-10 -3,-3 -6,-4 -10,-4l-14 0c-4,0 -7,1 -10,4 -1,1 -2,3 -2,4 -1,2 -1,4 -1,6l0 40c0,4 1,7 3,10 2,1 3,2 5,3 2,0 4,1 5,1l14 0c4,0 7,-2 9,-4 3,-3 4,-6 4,-10zm-40 -63l5 -3 8 -6c3,-2 5,-4 6,-5 1,-2 2,-4 2,-7 0,-3 -1,-5 -3,-8 -2,-1 -5,-2 -8,-2 -2,0 -5,1 -7,2 -2,2 -3,5 -3,8l0 21zm27 -4c8,0 15,2 20,8 5,4 7,11 7,19l0 40c0,8 -3,14 -8,19 -5,6 -12,8 -19,8l-14 0c-7,0 -13,-2 -19,-8 -5,-5 -8,-11 -8,-19l0 -84c0,-7 3,-13 8,-18 4,-4 10,-6 17,-6 6,0 11,2 16,6 5,4 8,10 8,18 0,5 -1,8 -2,10 -1,2 -3,5 -6,7zm108 67l0 -54 -27 0c-4,0 -7,1 -10,4 -1,1 -2,2 -3,4 0,2 -1,4 -1,5l0 41c0,4 2,7 4,10 2,1 3,2 5,3 1,0 3,1 5,1l13 0c4,0 7,-2 10,-4 3,-3 4,-6 4,-10zm7 18c-3,3 -6,5 -9,7 -4,1 -8,2 -12,2l-13 0c-7,0 -14,-2 -19,-8 -5,-5 -8,-11 -8,-19l0 -41c0,-7 2,-13 8,-19 5,-5 11,-8 19,-8l34 0c4,0 7,3 7,7l0 61c0,3 0,5 2,8 2,3 4,5 7,6 3,1 4,3 4,6 0,2 -1,4 -2,5 -1,1 -3,2 -5,2 -1,0 -2,0 -2,0 -5,-2 -8,-5 -11,-9zm88 -18l0 -40c0,-4 -2,-7 -4,-10 -3,-3 -6,-4 -10,-4l-13 0c-4,0 -7,1 -10,4 -1,1 -2,3 -3,4 -1,2 -1,4 -1,6l0 40c0,4 1,7 4,10 1,1 3,2 4,3 2,0 4,1 6,1l13 0c4,0 7,-2 10,-4 2,-3 4,-6 4,-10zm-41 -63l6 -3 8 -6c2,-2 4,-4 5,-5 2,-2 3,-4 3,-7 0,-3 -1,-5 -4,-8 -2,-1 -4,-2 -7,-2 -3,0 -6,1 -8,2 -2,2 -3,5 -3,8l0 21zm27 -4c9,0 16,2 20,8 5,4 7,11 7,19l0 40c0,8 -2,14 -8,19 -5,6 -11,8 -19,8l-13 0c-8,0 -14,-2 -19,-8 -6,-5 -8,-11 -8,-19l0 -84c0,-7 2,-13 7,-18 5,-4 10,-6 17,-6 6,0 12,2 17,6 5,4 7,10 7,18 0,5 0,8 -2,10 -1,2 -3,5 -6,7zm108 81l27 0 0 -75c0,-2 1,-3 2,-5 2,-1 3,-2 5,-2 2,0 3,1 5,2 1,1 2,3 2,5l0 81c0,5 -2,7 -7,7l-61 0c-7,0 -13,-2 -19,-8 -5,-5 -8,-11 -8,-19l0 -61c0,-2 1,-3 2,-5 2,-1 3,-2 5,-2 2,0 3,1 5,2 1,1 2,3 2,5l0 61c0,4 1,7 4,10 1,1 2,2 4,3 2,0 4,1 5,1l14 0 0 -75c0,-2 0,-3 2,-5 1,-1 3,-2 5,-2 1,0 3,1 4,2 2,1 2,3 2,5l0 75zm136 6c0,5 -3,7 -7,7l-34 0c-7,0 -14,-2 -19,-8 -5,-5 -8,-11 -8,-19l0 -61c0,-2 1,-3 2,-5 1,-1 3,-2 5,-2 1,0 3,1 4,2 2,1 2,3 2,5l0 61c0,4 2,7 4,10 2,1 3,2 5,3 2,0 3,1 5,1l27 0 0 -75c0,-2 1,-3 2,-5 2,-1 3,-2 5,-2 2,0 3,1 5,2 1,1 2,3 2,5l0 81zm108 0l0 -81c0,-2 -1,-4 -2,-6 -1,-1 -3,-2 -4,-2 -2,0 -4,2 -6,4l-29 40 -28 -40c-2,-2 -4,-4 -6,-4 -2,0 -3,1 -5,3 -1,1 -1,3 -1,5l0 81c0,3 0,4 2,6 1,1 2,1 4,1 2,0 4,0 5,-2 1,-1 2,-2 2,-5l0 -60 22 31c1,2 3,3 5,3 2,0 4,-1 6,-3l21 -31 0 60c0,3 1,4 2,6 1,1 3,1 5,1 2,0 3,0 5,-2 1,-1 2,-2 2,-5zm-1015 142l-27 0c-4,0 -7,2 -10,4 -1,2 -2,3 -2,5 -1,1 -1,3 -1,5l0 41c0,4 1,7 3,9 2,2 3,3 5,3 2,1 4,1 5,1l14 0c4,0 7,-1 9,-4 3,-2 4,-5 4,-9l0 -55zm0 -13l0 -14c0,-3 -1,-7 -3,-9 -3,-3 -6,-4 -10,-4l-27 0c-2,0 -4,-1 -5,-2 -2,-1 -2,-3 -2,-5 0,-1 0,-3 2,-4 1,-2 2,-3 5,-3l27 0c7,0 14,3 19,8 5,6 8,12 8,19l0 82c0,7 -3,13 -8,19 -5,5 -12,8 -19,8l-14 0c-7,0 -13,-3 -19,-8 -5,-5 -8,-12 -8,-19l0 -41c0,-7 3,-14 8,-19 5,-5 12,-8 19,-8l27 0zm108 65c0,8 -2,15 -8,21 -6,6 -13,9 -21,9l-8 0c-8,0 -15,-3 -21,-9 -6,-6 -9,-13 -9,-21l0 -35c0,-8 3,-15 9,-21 5,-6 12,-9 21,-9l8 0c8,0 15,3 21,9 6,5 8,12 8,21l0 35zm-13 0l0 -35c0,-5 -2,-9 -5,-12 -3,-3 -7,-5 -11,-5l-8 0c-5,0 -9,2 -12,5 -3,3 -5,7 -5,12l0 35c0,4 2,8 5,11 3,4 7,5 12,5l8 0c4,0 8,-1 11,-4 3,-3 5,-7 5,-12zm88 30l-20 0c-8,0 -14,-3 -19,-8 -6,-5 -8,-12 -8,-19l0 -41c0,-7 2,-14 7,-19 6,-5 12,-8 20,-8l20 0c2,0 3,1 5,2 1,1 2,3 2,5 0,1 -1,3 -2,4 -1,2 -3,2 -5,2l-20 0c-4,0 -8,2 -10,4 -1,2 -2,3 -3,5 -1,1 -1,3 -1,5l0 41c0,4 1,7 4,9 1,2 3,3 4,3 2,1 4,1 6,1l20 0c2,0 3,1 5,2 1,2 2,3 2,5 0,2 -1,3 -2,5 -1,1 -3,2 -5,2zm47 -14l27 0c4,0 7,-1 10,-4 3,-2 4,-5 4,-9l0 -41c0,-4 -1,-7 -4,-10 -2,-2 -6,-4 -10,-4l-27 0 0 68zm0 14l0 34c0,1 -1,3 -2,4 -1,2 -3,2 -5,2 -1,0 -3,0 -4,-1 -2,-2 -2,-3 -2,-5l0 -122c0,-5 2,-7 6,-7l34 0c8,0 14,3 19,8 6,5 8,11 8,19l0 41c0,7 -2,13 -8,19 -5,5 -11,8 -19,8l-27 0zm149 -30c0,8 -3,15 -9,21 -5,6 -12,9 -21,9l-8 0c-8,0 -15,-3 -21,-9 -6,-6 -9,-13 -9,-21l0 -35c0,-8 3,-15 9,-21 6,-6 13,-9 21,-9l8 0c8,0 15,3 21,9 6,5 9,12 9,21l0 35zm-13 0l0 -35c0,-5 -2,-9 -5,-12 -3,-3 -7,-5 -12,-5l-8 0c-4,0 -8,2 -11,5 -4,3 -5,7 -5,12l0 35c0,4 1,8 5,11 3,4 7,5 11,5l8 0c5,0 9,-1 12,-4 3,-3 5,-7 5,-12zm94 -25l0 -33c0,-2 1,-4 2,-5 2,-1 3,-2 5,-2 2,0 3,0 5,2 1,1 2,2 2,5l0 81c0,2 -1,4 -2,5 -1,1 -3,2 -5,2 -2,0 -3,-1 -5,-2 -1,-1 -2,-3 -2,-5l0 -34 -27 0c-7,0 -13,-3 -19,-8 -5,-5 -8,-11 -8,-19l0 -20c0,-2 1,-4 2,-5 1,-1 3,-2 5,-2 2,0 3,0 4,2 2,1 3,2 3,5l0 20c0,4 1,7 3,10 2,1 3,2 5,3 2,0 3,0 5,0l27 0zm95 0l0 -33c0,-2 1,-4 2,-5 1,-1 3,-2 5,-2 1,0 3,0 4,2 2,1 2,2 2,5l0 81c0,2 0,4 -1,5 -2,1 -3,2 -5,2 -2,0 -4,-1 -5,-2 -1,-1 -2,-3 -2,-5l0 -34 -41 0 0 34c0,2 0,4 -2,5 -1,1 -3,2 -5,2 -1,0 -3,-1 -4,-2 -2,-1 -2,-3 -2,-5l0 -81c0,-2 0,-4 2,-5 1,-1 3,-2 4,-2 2,0 4,0 5,2 2,1 2,2 2,5l0 33 41 0zm108 25c0,8 -3,15 -9,21 -5,6 -12,9 -21,9l-8 0c-8,0 -15,-3 -21,-9 -6,-6 -9,-13 -9,-21l0 -35c0,-8 3,-15 9,-21 6,-6 13,-9 21,-9l8 0c8,0 15,3 21,9 6,5 9,12 9,21l0 35zm-13 0l0 -35c0,-5 -2,-9 -5,-12 -3,-3 -7,-5 -12,-5l-8 0c-4,0 -8,2 -11,5 -3,3 -5,7 -5,12l0 35c0,4 1,8 5,11 3,4 7,5 11,5l8 0c5,0 9,-1 12,-4 3,-3 5,-7 5,-12zm-1015 219l0 -40c0,-4 -1,-7 -4,-10 -2,-3 -6,-4 -9,-4l-14 0c-4,0 -7,1 -10,4 -1,1 -2,3 -3,4 0,2 -1,4 -1,6l0 40c0,4 2,7 4,10 2,1 3,2 5,3 2,0 3,1 5,1l14 0c3,0 6,-1 9,-4 3,-3 4,-6 4,-10zm-41 -63l6 -3 8 -6c3,-2 4,-4 5,-5 2,-2 3,-4 3,-7 0,-3 -1,-5 -3,-7 -2,-2 -5,-3 -8,-3 -3,0 -5,1 -7,3 -3,1 -4,4 -4,7l0 21zm27 -4c9,0 16,3 21,8 4,5 7,11 7,19l0 40c0,8 -3,14 -8,19 -6,6 -12,8 -20,8l-13 0c-7,0 -14,-2 -19,-8 -5,-5 -8,-11 -8,-19l0 -84c0,-7 2,-13 7,-18 5,-4 11,-6 17,-6 7,0 12,2 17,6 5,5 8,11 8,18 0,5 -1,8 -2,10 -1,2 -3,5 -7,7zm203 87c0,3 0,4 -1,6 -2,1 -3,1 -5,1 -2,0 -4,0 -5,-1 -1,-2 -2,-3 -2,-6l0 -61c0,-3 -1,-7 -4,-9 -2,-3 -6,-4 -10,-4l-27 0 0 74c0,3 0,4 -2,6 -1,1 -3,1 -5,1 -1,0 -3,0 -4,-1 -2,-2 -2,-3 -2,-6l0 -81c0,-4 2,-7 7,-7l33 0c8,0 14,3 19,8 6,5 8,12 8,20l0 60zm95 -23c0,9 -3,16 -9,21 -5,6 -12,9 -21,9l-8 0c-8,0 -15,-3 -21,-8 -6,-6 -9,-13 -9,-22l0 -35c0,-8 3,-15 9,-21 6,-6 13,-9 21,-9l8 0c8,0 15,3 21,9 6,6 9,13 9,21l0 35zm-13 1l0 -36c0,-4 -2,-8 -5,-11 -3,-3 -7,-5 -12,-5l-8 0c-4,0 -8,2 -11,5 -3,3 -5,7 -5,11l0 36c0,4 1,8 5,11 3,3 7,5 11,5l8 0c5,0 9,-2 12,-5 3,-3 5,-7 5,-11zm121 22l0 -81c0,-2 0,-4 -1,-5 -2,-2 -3,-3 -5,-3 -2,0 -4,2 -6,4l-28 40 -29 -40c-1,-2 -3,-4 -6,-4 -1,0 -3,1 -4,3 -1,1 -2,3 -2,5l0 81c0,3 1,4 2,6 1,1 3,1 5,1 1,0 3,0 4,-2 2,-1 3,-2 3,-5l0 -60 21 31c2,2 4,3 6,3 1,0 3,-1 5,-3l22 -31 0 60c0,3 0,4 2,6 1,1 3,1 5,1 1,0 3,0 4,-2 2,-1 2,-2 2,-5zm41 -47l41 0 0 -13c0,-4 -2,-7 -4,-10 -3,-3 -6,-4 -10,-4l-14 0c-3,0 -7,1 -9,4 -2,1 -3,3 -3,4 -1,2 -1,4 -1,6l0 13zm0 14l0 13c0,4 1,7 4,10 1,1 2,2 4,3 2,0 4,1 5,1l34 0c2,0 4,0 5,2 1,1 2,3 2,5 0,1 -1,3 -2,4 -1,2 -2,2 -5,2l-34 0c-7,0 -13,-2 -19,-8 -5,-5 -8,-11 -8,-19l0 -40c0,-8 3,-14 8,-19 5,-6 12,-9 19,-9l14 0c7,0 14,3 19,8 5,6 8,12 8,20l0 20c0,4 -2,7 -7,7l-47 0zm135 27l27 0 0 -75c0,-2 1,-3 2,-5 2,-1 3,-2 5,-2 2,0 3,1 5,2 1,1 2,3 2,5l0 75 7 0c4,0 6,2 6,7l0 13c0,2 0,3 -2,5 -1,1 -3,2 -4,2 -2,0 -3,-1 -5,-2 -1,-1 -2,-3 -2,-5l0 -7 -11 0 -57 0c-7,0 -14,-2 -19,-8 -5,-5 -8,-11 -8,-19l0 -61c0,-2 1,-3 2,-5 1,-1 3,-2 5,-2 1,0 3,1 4,2 2,1 2,3 2,5l0 61c0,4 2,7 4,10 2,1 3,2 5,3 2,0 3,1 5,1l14 0 0 -75c0,-2 0,-3 2,-5 1,-1 3,-2 4,-2 2,0 4,1 5,2 1,1 2,3 2,5l0 75z"/>
   <path class="fil14 str3" d="M7756 2949l41 0 0 -13c0,-4 -1,-7 -4,-10 -2,-3 -6,-4 -10,-4l-13 0c-4,0 -7,1 -10,4 -1,1 -2,3 -3,4 0,2 -1,4 -1,6l0 13zm0 14l0 13c0,4 2,7 4,10 2,1 3,2 5,3 1,0 3,1 5,1l34 0c2,0 3,0 5,2 1,1 1,3 1,5 0,1 0,3 -1,4 -1,2 -3,2 -5,2l-34 0c-7,0 -14,-2 -19,-8 -6,-5 -8,-11 -8,-19l0 -40c0,-8 2,-14 8,-19 5,-6 11,-9 19,-9l13 0c8,0 14,3 19,8 6,6 8,12 8,20l0 20c0,4 -2,7 -6,7l-48 0zm136 -14l0 -34c0,-2 0,-3 2,-5 1,-1 3,-2 4,-2 2,0 4,1 5,2 1,1 2,3 2,5l0 81c0,3 0,4 -2,6 -1,1 -3,1 -5,1 -1,0 -3,0 -4,-1 -2,-2 -2,-3 -2,-6l0 -34 -41 0 0 34c0,3 -1,4 -2,6 -1,1 -3,1 -5,1 -2,0 -3,0 -4,-1 -2,-2 -3,-3 -3,-6l0 -81c0,-2 1,-3 3,-5 1,-1 2,-2 4,-2 2,0 4,1 5,2 1,1 2,3 2,5l0 34 41 0zm108 47c0,5 -2,7 -7,7l-34 0c-7,0 -13,-2 -19,-8 -5,-5 -8,-11 -8,-19l0 -61c0,-2 1,-3 2,-5 2,-1 3,-2 5,-2 2,0 3,1 5,2 1,1 2,3 2,5l0 61c0,4 1,7 4,10 1,1 2,2 4,3 2,0 4,1 5,1l27 0 0 -75c0,-2 1,-3 2,-5 2,-1 3,-2 5,-2 2,0 3,1 5,2 1,1 2,3 2,5l0 81zm95 0c0,5 -3,7 -7,7l-34 0c-7,0 -14,-2 -19,-8 -5,-5 -8,-11 -8,-19l0 -61c0,-2 1,-3 2,-5 1,-1 3,-2 5,-2 1,0 3,1 4,2 2,1 2,3 2,5l0 61c0,4 2,7 4,10 2,1 3,2 5,3 2,0 3,1 5,1l27 0 0 -75c0,-2 1,-3 2,-5 1,-1 3,-2 5,-2 2,0 3,1 4,2 2,1 3,3 3,5l0 81zm142 -115l-27 0c-3,0 -4,0 -6,-1 -1,-2 -1,-4 -1,-5 0,-2 0,-3 1,-5 2,-1 3,-2 6,-2l67 0c2,0 4,1 5,2 1,1 2,3 2,5 0,1 -1,3 -2,4 -1,2 -3,2 -5,2l-27 0 0 115c0,3 -1,4 -2,6 -1,1 -3,1 -5,1 -1,0 -3,0 -4,-1 -2,-2 -2,-3 -2,-6l0 -115zm155 115c0,3 -1,4 -2,6 -1,1 -3,1 -5,1 -1,0 -3,0 -4,-1 -2,-2 -2,-3 -2,-6l0 -95 -55 99c-1,1 -2,2 -3,3l-2 1c0,0 -1,0 -2,0 -1,0 -3,0 -4,-2 -1,-1 -2,-3 -2,-5l0 -122c0,-2 1,-4 2,-5 1,-1 3,-2 5,-2 1,0 3,1 4,2 2,1 2,2 2,5l0 95 55 -99c1,-1 2,-2 3,-3 1,-1 3,-1 4,-1 1,0 3,1 4,2 1,1 2,3 2,6l0 121zm41 -70l57 -56c1,-1 3,-2 4,-2 2,0 4,1 5,2 1,1 2,3 2,5 0,1 0,3 -2,4l-40 41 41 73 1 4c0,1 0,3 -2,4 -1,2 -3,2 -5,2 -2,0 -4,-1 -5,-3l-40 -71 -16 16 0 51c0,3 -1,4 -2,6 -1,1 -3,1 -5,1 -2,0 -3,0 -5,-1 -1,-2 -2,-3 -2,-6l0 -122c0,-1 1,-3 2,-4 2,-1 3,-2 5,-2 2,0 3,0 5,1 1,2 2,3 2,5l0 52z"/>
  </g>
 </g>
</svg>
