<?xml version="1.0" encoding="UTF-8"?>
<!DOCTYPE svg PUBLIC "-//W3C//DTD SVG 1.0//EN" "http://www.w3.org/TR/2001/REC-SVG-20010904/DTD/svg10.dtd">
<!-- Creator: CorelDRAW X7 -->
<svg xmlns="http://www.w3.org/2000/svg" xml:space="preserve" width="115mm" height="70.122mm" version="1.0" style="shape-rendering:geometricPrecision; text-rendering:geometricPrecision; image-rendering:optimizeQuality; fill-rule:evenodd; clip-rule:evenodd"
viewBox="0 0 11500 7012"
 xmlns:xlink="http://www.w3.org/1999/xlink">
 <defs>
  <style type="text/css">
   <![CDATA[
    .str1 {stroke:#3696A0;stroke-width:8.76524}
    .str2 {stroke:white;stroke-width:8.76524}
    .str0 {stroke:#5B5B5B;stroke-width:2.67165}
    .fil2 {fill:#0050A0}
    .fil3 {fill:#3497A1}
    .fil9 {fill:#3696A0}
    .fil8 {fill:#3C4F59}
    .fil11 {fill:#5C9EBC}
    .fil7 {fill:#7C8E97}
    .fil10 {fill:#A0E13A}
    .fil6 {fill:#BB8076}
    .fil5 {fill:#D4EFFF}
    .fil4 {fill:#DBBCB6}
    .fil1 {fill:#FEE9D0}
    .fil12 {fill:white}
    .fil0 {fill:url(#id0)}
   ]]>
  </style>
  <radialGradient id="id0" gradientUnits="userSpaceOnUse" gradientTransform="matrix(1.17124 -0 -0 1.92083 -985 -3229)" cx="5750" cy="3506.1" r="3506.1" fx="5750" fy="3506.1">
   <stop offset="0" style="stop-opacity:1; stop-color:#FEFEFE"/>
   <stop offset="0.439216" style="stop-opacity:1; stop-color:#FEFEFE"/>
   <stop offset="1" style="stop-opacity:1; stop-color:#D1E2F2"/>
  </radialGradient>
 </defs>
 <g id="Layer_x0020_1">
  <metadata id="CorelCorpID_0Corel-Layer"/>
  <path class="fil0" d="M0 0l11500 0 0 7012 -11500 0 0 -7012z"/>
  <g id="_662155863904">
   <g>
    <path class="fil1 str0" d="M4810 2657l-1039 0 0 -609 1039 0 0 609z"/>
    <path class="fil2 str0" d="M4885 2054l-1189 0 76 -147 1037 0 76 147z"/>
    <path class="fil1 str0" d="M3991 2060l297 -236 303 236 -600 0z"/>
    <path class="fil2 str0" d="M3996 2068l292 -232 297 232c4,3 10,2 13,-2 3,-4 3,-10 -2,-13l-302 -237c-3,-2 -8,-2 -12,0l-297 237c-5,3 -5,9 -2,13 3,4 9,5 13,2z"/>
    <path class="fil3 str0" d="M3964 2611l-148 0 0 -300 148 0 0 300z"/>
    <path class="fil4 str0" d="M3964 2611l0 -4 -144 0 0 -292 139 0 0 296 5 0 0 -4 0 4 4 0 0 -304 -157 0 0 309 157 0 0 -5 -4 0z"/>
    <path class="fil5 str0" d="M3890 2311l0 304 0 -304z"/>
    <path class="fil4 str0" d="M3885 2311l0 304 9 0 0 -304 -9 0z"/>
    <path class="fil3 str0" d="M4765 2611l-148 0 0 -300 148 0 0 300z"/>
    <path class="fil4 str0" d="M4765 2611l0 -4 -143 0 0 -292 139 0 0 296 4 0 0 -4 0 4 5 0 0 -304 -157 0 0 309 157 0 0 -5 -5 0z"/>
    <path class="fil5 str0" d="M4691 2311l0 304 0 -304z"/>
    <path class="fil4 str0" d="M4687 2311l0 304 9 0 0 -304 -9 0z"/>
    <path class="fil6 str0" d="M4086 2657l-17 0 0 -370 17 0 0 370z"/>
    <path class="fil6 str0" d="M4512 2657l-17 0 0 -370 17 0 0 370z"/>
    <path class="fil2 str0" d="M4545 2293l-509 0 0 -59 509 0 0 59z"/>
    <path class="fil7 str0" d="M4443 2657l-305 0 0 -341 305 0 0 341z"/>
    <path class="fil8 str0" d="M4293 2657l-5 0 0 -341 5 0 0 341z"/>
    <path class="fil8 str0" d="M4276 2499l-13 0c-3,0 -5,-3 -5,-5 0,-3 2,-5 5,-5l13 0c3,0 5,2 5,5 0,2 -2,5 -5,5z"/>
    <path class="fil8 str0" d="M4321 2499l-14 0c-2,0 -5,-3 -5,-5 0,-3 3,-5 5,-5l14 0c2,0 4,2 4,5 0,2 -2,5 -4,5z"/>
    <path class="fil3 str0" d="M3903 2204l-86 0 0 -107 86 0 0 107z"/>
    <path class="fil4 str0" d="M3903 2204l0 -4 -81 0 0 -99 77 0 0 103 4 0 0 -4 0 4 5 0 0 -112 -95 0 0 117 95 0 0 -5 -5 0z"/>
    <path class="fil3 str0" d="M4027 2204l-86 0 0 -107 86 0 0 107z"/>
    <path class="fil4 str0" d="M4027 2204l0 -4 -82 0 0 -99 78 0 0 103 4 0 0 -4 0 4 4 0 0 -112 -94 0 0 117 94 0 0 -5 -4 0z"/>
    <path class="fil3 str0" d="M4151 2204l-86 0 0 -107 86 0 0 107z"/>
    <path class="fil4 str0" d="M4151 2204l0 -4 -82 0 0 -99 77 0 0 103 5 0 0 -4 0 4 4 0 0 -112 -95 0 0 117 95 0 0 -5 -4 0z"/>
    <path class="fil3 str0" d="M4274 2204l-86 0 0 -107 86 0 0 107z"/>
    <path class="fil4 str0" d="M4274 2204l0 -4 -81 0 0 -99 77 0 0 103 4 0 0 -4 0 4 5 0 0 -112 -95 0 0 117 95 0 0 -5 -5 0z"/>
    <path class="fil3 str0" d="M4398 2204l-86 0 0 -107 86 0 0 107z"/>
    <path class="fil4 str0" d="M4398 2204l0 -4 -82 0 0 -99 78 0 0 103 4 0 0 -4 0 4 4 0 0 -112 -95 0 0 117 95 0 0 -5 -4 0z"/>
    <path class="fil3 str0" d="M4522 2204l-87 0 0 -107 87 0 0 107z"/>
    <path class="fil4 str0" d="M4522 2204l0 -4 -82 0 0 -99 77 0 0 103 5 0 0 -4 0 4 4 0 0 -112 -95 0 0 117 95 0 0 -5 -4 0z"/>
    <path class="fil3 str0" d="M4645 2204l-86 0 0 -107 86 0 0 107z"/>
    <path class="fil4 str0" d="M4645 2204l0 -4 -82 0 0 -99 78 0 0 103 4 0 0 -4 0 4 4 0 0 -112 -94 0 0 117 94 0 0 -5 -4 0z"/>
    <path class="fil3 str0" d="M4769 2204l-86 0 0 -107 86 0 0 107z"/>
    <path class="fil4 str0" d="M4769 2204l0 -4 -82 0 0 -99 77 0 0 103 5 0 0 -4 0 4 4 0 0 -112 -95 0 0 117 95 0 0 -5 -4 0z"/>
    <path class="fil9 str1" d="M4132 2730l-37 0c-3,0 -5,-1 -7,-3 -1,-2 -2,-4 -2,-6 0,-2 1,-5 2,-7 2,-2 4,-3 7,-3l93 0c2,0 5,1 6,3 2,2 3,4 3,7 0,2 -1,4 -2,6 -2,2 -4,3 -7,3l-37 0 0 158c0,2 -1,5 -3,7 -1,1 -4,2 -6,2 -3,0 -5,-1 -7,-2 -2,-2 -3,-4 -3,-7l0 -158zm213 158c0,2 0,5 -2,7 -2,1 -4,2 -7,2 -2,0 -4,-1 -6,-2 -2,-2 -3,-4 -3,-7l0 -131 -75 135c-1,2 -3,3 -4,5l-2 1c-1,0 -2,0 -3,0 -2,0 -4,-1 -6,-2 -2,-2 -3,-5 -3,-8l0 -167c0,-3 1,-5 3,-7 2,-2 4,-2 6,-2 3,0 5,0 7,2 2,1 3,4 3,7l0 131 75 -136c1,-1 2,-3 4,-4 2,-1 3,-2 5,-2 2,0 4,1 6,3 1,2 2,4 2,8l0 167zm56 -97l78 -77c2,-2 4,-3 6,-3 3,0 5,1 7,3 2,2 3,4 3,7 0,2 -1,4 -3,6l-55 55 57 101 1 5c0,2 -1,4 -3,6 -2,2 -4,3 -7,3 -3,0 -5,-2 -8,-5l-54 -97 -22 22 0 71c0,2 -1,5 -3,7 -1,1 -4,2 -6,2 -3,0 -5,-1 -7,-2 -2,-2 -3,-4 -3,-7l0 -168c0,-2 1,-4 3,-6 2,-2 4,-3 7,-3 2,0 4,1 6,3 2,1 3,3 3,6l0 71z"/>
   </g>
   <g>
    <path class="fil1 str0" d="M7080 2665l-667 0 0 -609 667 0 0 609z"/>
    <path class="fil2 str0" d="M7125 2063l-757 0 49 -148 660 0 48 148z"/>
    <path class="fil1 str0" d="M6455 2068l298 -236 302 236 -600 0z"/>
    <path class="fil2 str0" d="M6461 2076l292 -232 296 232c4,3 10,2 13,-2 4,-4 3,-10 -1,-13l-302 -236c-4,-3 -9,-3 -12,0l-298 236c-4,3 -5,9 -2,13 4,5 10,5 14,2z"/>
    <path class="fil6 str0" d="M6550 2665l-17 0 0 -370 17 0 0 370z"/>
    <path class="fil6 str0" d="M6976 2665l-16 0 0 -370 16 0 0 370z"/>
    <path class="fil2 str0" d="M7010 2302l-510 0 0 -60 510 0 0 60z"/>
    <path class="fil7 str0" d="M6907 2665l-305 0 0 -340 305 0 0 340z"/>
    <path class="fil8 str0" d="M6757 2665l-4 0 0 -340 4 0 0 340z"/>
    <path class="fil8 str0" d="M6741 2507l-14 0c-3,0 -5,-2 -5,-5 0,-2 2,-5 5,-5l14 0c2,0 4,3 4,5 0,3 -2,5 -4,5z"/>
    <path class="fil8 str0" d="M6785 2507l-13 0c-3,0 -5,-2 -5,-5 0,-2 2,-5 5,-5l13 0c3,0 5,3 5,5 0,3 -2,5 -5,5z"/>
    <path class="fil3 str0" d="M6615 2213l-86 0 0 -108 86 0 0 108z"/>
    <path class="fil4 str0" d="M6615 2213l0 -5 -82 0 0 -99 78 0 0 104 4 0 0 -5 0 5 4 0 0 -112 -94 0 0 116 94 0 0 -4 -4 0z"/>
    <path class="fil3 str0" d="M6739 2213l-86 0 0 -108 86 0 0 108z"/>
    <path class="fil4 str0" d="M6739 2213l0 -5 -82 0 0 -99 77 0 0 104 5 0 0 -5 0 5 4 0 0 -112 -95 0 0 116 95 0 0 -4 -4 0z"/>
    <path class="fil3 str0" d="M6862 2213l-86 0 0 -108 86 0 0 108z"/>
    <path class="fil4 str0" d="M6862 2213l0 -5 -81 0 0 -99 77 0 0 104 4 0 0 -5 0 5 5 0 0 -112 -95 0 0 116 95 0 0 -4 -5 0z"/>
    <path class="fil3 str0" d="M6986 2213l-86 0 0 -108 86 0 0 108z"/>
    <path class="fil4 str0" d="M6986 2213l0 -5 -82 0 0 -99 78 0 0 104 4 0 0 -5 0 5 4 0 0 -112 -95 0 0 116 95 0 0 -4 -4 0z"/>
    <path class="fil9 str1" d="M6632 2814l-56 0c-10,0 -19,-3 -26,-11 -7,-7 -11,-16 -11,-26l0 -65c0,-2 1,-4 3,-7 2,-1 4,-2 6,-2 3,0 5,1 7,2 2,2 3,4 3,7l0 65c0,5 1,10 5,13 2,2 4,3 6,4 2,1 5,2 7,2l56 0 0 -84c0,-2 1,-4 3,-7 1,-1 4,-2 6,-2 2,0 5,1 6,2 2,2 3,4 3,7l0 139c0,11 -3,19 -11,26 -7,8 -16,11 -26,11l-46 0c-3,0 -5,0 -7,-2 -2,-2 -2,-4 -2,-7 0,-2 0,-4 2,-6 2,-2 4,-3 7,-3l46 0c5,0 10,-2 13,-5 4,-4 6,-8 6,-14l0 -37zm167 65c0,3 -1,5 -3,7 -2,2 -4,2 -7,2 -2,0 -4,0 -6,-2 -2,-1 -3,-4 -3,-7l0 -131 -75 136c-1,2 -3,3 -4,4l-2 1c-1,1 -2,1 -3,1 -2,0 -4,-1 -6,-3 -2,-2 -3,-4 -3,-8l0 -167c0,-2 1,-4 3,-7 2,-1 4,-2 7,-2 2,0 4,1 6,2 2,2 3,4 3,7l0 131 75 -135c1,-2 2,-3 4,-5 2,-1 3,-1 5,-1 2,0 4,1 6,3 2,1 3,4 3,7l0 167zm55 -96l78 -77c2,-2 4,-3 7,-3 2,0 4,1 6,3 2,2 3,4 3,7 0,1 -1,3 -3,6l-55 55 57 101 1 4c0,3 -1,5 -3,7 -2,1 -4,2 -7,2 -3,0 -5,-1 -7,-4l-55 -97 -22 22 0 70c0,3 -1,5 -3,7 -1,2 -3,2 -6,2 -3,0 -5,0 -7,-2 -1,-1 -2,-4 -2,-7l0 -167c0,-2 1,-4 2,-6 2,-2 4,-3 7,-3 2,0 4,1 6,2 2,2 3,4 3,7l0 71z"/>
   </g>
   <path class="fil10" d="M2996 5176l2423 0 686 -680 -686 -680 -2423 0 0 1360z"/>
   <path class="fil10" d="M4332 3708c69,14 121,76 121,149 0,84 -68,152 -152,152 -84,0 -153,-68 -153,-152 0,-73 52,-135 121,-149l0 -305 -134 0 166 -302 166 302 -135 0 0 305z"/>
   <path class="fil11" d="M5419 5176l2423 0 683 -683 -683 -677 -2423 0 686 680 -686 680z"/>
   <path class="fil11" d="M6766 3708c69,14 121,76 121,149 0,84 -68,152 -152,152 -84,0 -153,-68 -153,-152 0,-73 52,-135 121,-149l0 -305 -134 0 166 -302 165 302 -134 0 0 305z"/>
   <path class="fil12 str2" d="M6330 4551l-18 0c-4,0 -7,-1 -10,-4 -2,-2 -4,-6 -4,-10 0,-3 2,-6 4,-9 3,-3 6,-4 10,-4l14 0c9,0 15,-3 20,-9 6,-5 8,-12 8,-19 0,-8 -2,-14 -7,-20 -2,-2 -5,-4 -8,-6 -4,-1 -8,-2 -13,-2l-14 0c-13,0 -24,4 -33,11 -2,2 -5,3 -9,3 -3,0 -6,-1 -9,-4 -3,-3 -4,-6 -4,-10 0,-4 1,-8 5,-11 15,-11 31,-17 50,-17l14 0c18,0 32,6 42,18 9,10 14,23 14,38 0,4 -1,8 -1,12 -1,3 -2,7 -4,11 -2,6 -7,13 -13,19 5,5 10,11 13,19l3 11c1,3 2,7 2,12 0,15 -5,28 -14,38 -10,11 -24,17 -42,17l-14 0c-18,0 -35,-5 -50,-17 -4,-2 -6,-6 -6,-11 0,-3 2,-6 5,-9 2,-4 6,-5 9,-5 3,0 6,1 9,3 10,8 21,11 33,11l14 0c9,0 15,-2 20,-8 5,-6 8,-12 8,-20 0,-7 -2,-13 -6,-18 -4,-5 -10,-8 -18,-10zm219 28l0 -111 -56 0c-8,0 -15,3 -20,8 -3,3 -5,6 -6,9 -2,3 -2,7 -2,11l0 83c0,8 2,15 8,20 3,3 6,5 9,6 4,2 7,2 11,2l28 0c7,0 14,-2 19,-7 6,-6 9,-12 9,-21zm13 38c-4,5 -10,9 -18,13 -8,3 -16,5 -23,5l-28 0c-15,0 -28,-5 -39,-16 -11,-11 -17,-24 -17,-40l0 -83c0,-15 6,-29 16,-39 11,-11 24,-17 40,-17l69 0c10,0 14,5 14,14l0 125c0,6 2,11 6,17 3,5 7,9 13,12 6,3 9,7 9,13 0,4 -1,7 -4,10 -2,3 -6,4 -10,4 -2,0 -4,0 -5,-1 -10,-4 -17,-10 -23,-17zm305 -232l-56 0c-4,0 -8,-1 -10,-4 -3,-3 -4,-6 -4,-10 0,-3 1,-6 4,-9 2,-3 6,-5 10,-5l56 0c22,0 39,7 52,22 11,13 17,29 17,47 0,12 -2,22 -6,31 -5,10 -12,18 -21,26 8,6 14,14 20,23 5,10 7,21 7,32l0 28c0,19 -7,35 -20,49 -14,13 -30,20 -49,20l-56 0c-4,0 -8,-1 -10,-4 -3,-3 -4,-6 -4,-10 0,-3 1,-6 4,-9 2,-3 6,-5 10,-5l56 0c11,0 21,-4 29,-12 9,-8 13,-18 13,-29l0 -28c0,-12 -4,-21 -12,-30 -8,-8 -18,-12 -30,-12l-28 0c-4,0 -8,-1 -10,-4 -3,-3 -4,-6 -4,-10 0,-3 1,-6 4,-9 2,-3 5,-5 10,-5l28 0c12,0 22,-4 30,-13 7,-8 10,-18 10,-29 0,-12 -3,-21 -9,-28 -8,-9 -18,-13 -31,-13zm404 83l-56 0c-7,0 -14,3 -20,8 -2,3 -4,6 -6,9 -1,3 -2,7 -2,11l0 83c0,8 3,15 8,20 3,3 6,5 9,6 4,2 8,2 11,2l28 0c8,0 15,-2 20,-7 6,-6 8,-12 8,-21l0 -111zm0 -28l0 -28c0,-7 -2,-14 -8,-19 -5,-6 -12,-8 -20,-8l-55 0c-5,0 -8,-2 -11,-4 -2,-3 -3,-7 -3,-10 0,-3 1,-6 3,-10 3,-3 6,-4 11,-4l55 0c16,0 29,5 40,16 10,11 16,24 16,40l0 166c0,16 -6,29 -16,40 -11,11 -24,16 -40,16l-28 0c-15,0 -28,-5 -39,-16 -11,-11 -16,-24 -16,-40l0 -83c0,-15 5,-29 16,-39 11,-11 24,-17 40,-17l55 0zm195 84l0 -70c0,-4 1,-7 4,-10 3,-2 6,-4 10,-4 3,0 6,1 9,4 3,2 4,6 4,10l0 167c0,4 -1,8 -3,11 -3,2 -6,3 -10,3 -4,0 -7,-1 -10,-3 -3,-3 -4,-6 -4,-11l0 -70 -84 0 0 70c0,4 -1,8 -4,11 -2,2 -6,3 -10,3 -3,0 -7,-1 -9,-3 -3,-3 -5,-6 -5,-11l0 -167c0,-3 2,-7 5,-10 2,-2 6,-4 9,-4 4,0 7,1 10,4 3,2 4,6 4,10l0 70 84 0zm194 0l0 -56 -55 0c-8,0 -15,3 -21,8 -5,6 -7,12 -7,20 0,7 2,14 7,19 5,6 12,9 21,9l55 0zm-34 28l-51 77c-2,1 -3,3 -6,5l-6 1c-3,0 -6,-1 -10,-4 -3,-3 -4,-6 -4,-10 0,-2 1,-5 2,-8l42 -62c-14,-2 -25,-9 -32,-19 -8,-11 -12,-23 -12,-36 0,-15 5,-28 14,-38 10,-12 24,-18 42,-18l69 0c9,0 14,5 14,14l0 167c0,4 -1,8 -4,11 -2,2 -6,3 -10,3 -3,0 -7,-1 -9,-3 -3,-3 -5,-6 -5,-11l0 -69 -34 0z"/>
   <path class="fil12 str2" d="M3630 4552l-17 0c-5,0 -8,-1 -11,-4 -2,-2 -3,-6 -3,-9 0,-4 1,-7 3,-10 3,-3 6,-4 11,-4l14 0c8,0 15,-3 20,-9 5,-5 8,-12 8,-19 0,-8 -3,-14 -7,-19 -3,-3 -5,-5 -9,-7 -4,-1 -8,-2 -12,-2l-14 0c-13,0 -24,4 -34,11 -2,2 -5,3 -8,3 -3,0 -6,-1 -10,-4 -3,-3 -4,-6 -4,-10 0,-4 2,-8 6,-11 14,-11 31,-17 50,-17l14 0c17,0 31,6 41,18 10,10 14,23 14,38 0,4 0,8 -1,12 0,4 -2,7 -3,11 -3,6 -7,13 -13,19 5,5 9,11 13,19l3 11c1,3 1,7 1,12 0,15 -4,28 -14,38 -10,11 -24,17 -41,17l-14 0c-19,0 -36,-5 -50,-17 -4,-2 -6,-6 -6,-11 0,-3 1,-6 4,-9 3,-4 6,-5 10,-5 2,0 5,1 8,3 10,8 21,11 34,11l14 0c8,0 15,-2 20,-8 5,-6 8,-12 8,-20 0,-7 -2,-13 -6,-18 -4,-5 -11,-8 -19,-10zm219 29l0 -112 -56 0c-8,0 -14,3 -20,8 -2,3 -4,6 -6,9 -1,3 -2,7 -2,11l0 84c0,7 3,14 8,19 3,3 6,5 9,7 4,1 8,1 11,1l28 0c8,0 14,-2 20,-7 5,-5 8,-12 8,-20zm14 37c-5,5 -11,9 -19,13 -8,3 -15,5 -23,5l-28 0c-15,0 -28,-5 -39,-16 -11,-11 -16,-24 -16,-39l0 -84c0,-15 5,-28 16,-39 11,-11 24,-17 39,-17l70 0c9,0 14,5 14,14l0 125c0,6 1,11 5,17 3,5 8,9 14,12 6,3 9,7 9,13 0,4 -2,7 -4,10 -3,3 -6,4 -10,4 -2,0 -4,0 -6,-1 -9,-4 -17,-9 -22,-17zm319 4c0,5 -1,8 -4,11 -2,2 -5,3 -10,3 -3,0 -6,-1 -9,-3 -3,-3 -4,-6 -4,-11l0 -217 -32 32c-3,3 -6,5 -10,5 -3,0 -6,-2 -10,-5 -2,-3 -4,-6 -4,-10 0,-3 1,-6 4,-9l56 -56c2,-2 3,-3 5,-4 2,-2 5,-2 7,-2 2,0 5,1 8,4 2,3 3,7 3,12l0 250zm195 -47c0,16 -6,31 -18,43 -12,12 -26,18 -43,18l-17 0c-16,0 -31,-6 -43,-18 -12,-11 -18,-26 -18,-43l0 -156c0,-16 6,-30 18,-43 12,-12 26,-18 43,-18l17 0c16,0 31,6 43,18 12,12 18,26 18,43l0 156zm-28 0l0 -156c0,-9 -3,-17 -9,-24 -7,-6 -15,-9 -24,-9l-17 0c-9,0 -17,3 -24,9 -6,7 -9,15 -9,24l0 156c0,9 3,17 9,24 7,6 15,9 24,9l17 0c9,0 17,-3 23,-9 7,-6 10,-14 10,-24zm209 -23l-111 0c-5,0 -8,-1 -11,-4 -2,-2 -3,-6 -3,-9 0,-4 1,-7 3,-10 3,-3 6,-4 11,-4l111 0c4,0 7,1 10,4 2,3 4,6 4,10 0,3 -2,6 -4,9 -2,3 -6,4 -10,4zm194 1l28 0c4,0 7,2 10,4 3,3 4,6 4,10 0,3 -1,6 -3,9 -3,3 -6,5 -11,5l-28 0 0 41c0,5 -1,8 -4,11 -2,2 -5,3 -10,3 -3,0 -6,-1 -9,-3 -3,-3 -4,-6 -4,-11l0 -41 -84 0c-10,0 -14,-4 -14,-11l0 -4 1 -3 55 -195c1,-3 3,-5 5,-7l3 -2c1,-1 3,-1 5,-1 4,0 8,1 10,4 3,3 5,6 5,10l-1 4 -51 177 66 0 0 -42c0,-3 1,-7 4,-10 3,-2 6,-4 9,-4 4,0 7,2 10,4 3,2 4,6 4,10l0 42zm376 -84l-56 0c-8,0 -15,3 -20,8 -3,3 -5,6 -6,9 -1,3 -2,7 -2,11l0 84c0,7 2,14 8,19 3,3 6,5 9,7 4,1 7,1 11,1l28 0c7,0 14,-2 19,-7 6,-5 9,-12 9,-20l0 -112zm0 -28l0 -27c0,-8 -3,-15 -8,-20 -5,-6 -12,-8 -20,-8l-56 0c-4,0 -8,-2 -10,-4 -3,-3 -4,-6 -4,-10 0,-3 1,-6 4,-9 2,-3 5,-5 10,-5l56 0c15,0 28,5 39,16 11,11 16,24 16,40l0 167c0,15 -5,28 -16,39 -11,11 -24,16 -39,16l-28 0c-15,0 -28,-5 -39,-16 -11,-11 -17,-24 -17,-39l0 -84c0,-15 6,-28 17,-39 10,-11 24,-17 39,-17l56 0zm194 84l0 -70c0,-3 2,-7 4,-10 3,-2 6,-4 10,-4 4,0 7,2 10,4 2,2 4,6 4,10l0 167c0,5 -1,8 -4,11 -3,2 -6,3 -10,3 -4,0 -7,-1 -10,-3 -2,-3 -4,-6 -4,-11l0 -70 -84 0 0 70c0,5 -1,8 -4,11 -2,2 -5,3 -9,3 -4,0 -7,-1 -10,-3 -3,-3 -4,-6 -4,-11l0 -167c0,-3 1,-7 4,-10 3,-2 6,-4 10,-4 3,0 6,2 9,4 3,2 4,6 4,10l0 70 84 0zm195 0l0 -56 -56 0c-8,0 -15,3 -21,8 -5,6 -7,12 -7,20 0,7 2,14 7,19 5,6 12,9 21,9l56 0zm-34 28l-52 77c-1,2 -3,3 -5,5l-7 1c-2,0 -6,-1 -9,-4 -3,-3 -5,-6 -5,-10 0,-2 1,-5 2,-8l42 -62c-13,-2 -24,-8 -32,-19 -8,-11 -12,-23 -12,-36 0,-15 5,-28 14,-38 11,-12 25,-18 42,-18l69 0c10,0 14,5 14,14l0 167c0,5 -1,8 -4,11 -2,2 -5,3 -9,3 -4,0 -7,-1 -10,-3 -3,-3 -4,-6 -4,-11l0 -69 -34 0z"/>
  </g>
 </g>
</svg>
