<?xml version="1.0" encoding="UTF-8"?>
<!DOCTYPE svg PUBLIC "-//W3C//DTD SVG 1.0//EN" "http://www.w3.org/TR/2001/REC-SVG-20010904/DTD/svg10.dtd">
<!-- Creator: CorelDRAW X7 -->
<svg xmlns="http://www.w3.org/2000/svg" xml:space="preserve" width="115mm" height="70.122mm" version="1.0" style="shape-rendering:geometricPrecision; text-rendering:geometricPrecision; image-rendering:optimizeQuality; fill-rule:evenodd; clip-rule:evenodd"
viewBox="0 0 11500 7012"
 xmlns:xlink="http://www.w3.org/1999/xlink">
 <defs>
  <style type="text/css">
   <![CDATA[
    .str0 {stroke:#4D8A7D;stroke-width:8.76524}
    .str1 {stroke:#5797B4;stroke-width:26.2957;stroke-linecap:round;stroke-linejoin:round}
    .str2 {stroke:#008DD2;stroke-width:15.8931;stroke-linecap:round;stroke-linejoin:round}
    .fil21 {fill:none;fill-rule:nonzero}
    .fil12 {fill:#5B5B5B}
    .fil9 {fill:#434242}
    .fil8 {fill:#FCE2D5}
    .fil10 {fill:#F7CFB5}
    .fil5 {fill:#F7E1C2}
    .fil7 {fill:#F2F2F3}
    .fil15 {fill:#EDC5AB}
    .fil4 {fill:#CA3637}
    .fil6 {fill:#CDB799}
    .fil14 {fill:#CBA88F}
    .fil3 {fill:#6C5C49}
    .fil18 {fill:#758E9C}
    .fil11 {fill:#433F3E}
    .fil2 {fill:#3F3C3A}
    .fil16 {fill:#3F3C3A}
    .fil13 {fill:#2C8187}
    .fil17 {fill:#287579}
    .fil19 {fill:#4D8A7D}
    .fil20 {fill:#024541;fill-rule:nonzero}
    .fil1 {fill:#4D8A7D;fill-rule:nonzero}
    .fil0 {fill:url(#id0)}
   ]]>
  </style>
  <radialGradient id="id0" gradientUnits="userSpaceOnUse" gradientTransform="matrix(1.17124 -0 -0 1.92083 -985 -3229)" cx="5750" cy="3506.1" r="3506.1" fx="5750" fy="3506.1">
   <stop offset="0" style="stop-opacity:1; stop-color:#FEFEFE"/>
   <stop offset="0.439216" style="stop-opacity:1; stop-color:#FEFEFE"/>
   <stop offset="1" style="stop-opacity:1; stop-color:#D1E2F2"/>
  </radialGradient>
 </defs>
 <g id="Layer_x0020_1">
  <metadata id="CorelCorpID_0Corel-Layer"/>
  <path class="fil0" d="M0 0l11500 0 0 7012 -11500 0 0 -7012z"/>
  <g>
   <path class="fil1" d="M3482 3682c-12,0 -23,-8 -23,-17 0,-10 11,-17 23,-17l0 34zm4265 0l-4265 0 0 -34 4265 0 0 34zm0 -34c13,0 23,7 23,17 0,9 -10,17 -23,17l0 -34z"/>
  </g>
  <g>
   <path class="fil2" d="M4719 2985l0 0c0,0 0,0 0,0l0 0z"/>
   <path class="fil3" d="M4934 2794c11,-36 96,-67 130,59 35,127 17,171 36,215 19,45 -26,390 -132,389 -113,-1 -138,-331 -116,-398 23,-67 3,-265 82,-265z"/>
   <path class="fil3" d="M5308 2794c-11,-36 -95,-67 -129,59 -35,127 -18,171 -37,215 -19,45 26,390 132,389 114,-1 139,-331 116,-398 -22,-67 -3,-265 -82,-265z"/>
   <path class="fil4" d="M5213 3312c-2,3 -174,5 -175,8 -55,77 -171,91 -264,112 -92,21 -96,138 -96,216l900 0c0,-78 -2,-195 -96,-216 -94,-21 -218,-40 -269,-120z"/>
   <path class="fil4" d="M5218 3319l0 43 -44 286 -93 0 -44 -283 0 -45 1 0c1,-3 173,-5 175,-8 2,2 4,5 5,7z"/>
   <path class="fil5" d="M5038 3128l0 148 0 73c45,92 126,95 180,0l0 -73 0 -148c0,-120 -180,-120 -180,0z"/>
   <path class="fil5" d="M5366 3024c-18,-8 -43,12 -57,45 -13,33 -9,66 9,74 18,8 43,-12 56,-45 14,-32 10,-65 -8,-74z"/>
   <path class="fil5" d="M4890 3024c18,-8 44,12 57,45 14,33 10,66 -8,74 -18,8 -44,-12 -57,-45 -13,-32 -10,-65 8,-74z"/>
   <path class="fil6" d="M5127 3300c-33,0 -89,-56 -89,-56l0 -6 180 0 0 5c0,0 -58,57 -91,57z"/>
   <path class="fil5" d="M5128 3281c-56,0 -174,-93 -211,-225 -37,-134 33,-325 211,-325 179,0 248,191 211,325 -36,132 -155,225 -211,225z"/>
   <path class="fil3" d="M5350 2892c-17,-69 -106,-174 -189,-172 -12,-1 -26,-2 -40,-1 -15,-1 -29,0 -41,1 -83,-2 -172,103 -189,172 -14,56 -21,111 13,168 6,17 14,30 20,34 -7,-43 -9,-75 -6,-99 6,-10 18,-12 39,-4 58,24 76,-3 120,-95 13,-28 23,-61 44,-61 20,0 30,33 44,61 43,92 61,119 119,95 21,-8 33,-6 39,4 3,24 1,56 -6,99 6,-4 14,-17 20,-34 34,-57 27,-112 13,-168z"/>
   <path class="fil7" d="M5082 3648l-77 0 -5 0 -78 -71 80 -54 -98 -45 65 -101 25 -39 43 -19 0 46 44 283 1 0z"/>
   <path class="fil7" d="M5254 3520l80 54 -79 74 -5 0 -76 0 0 0 44 -286 0 -46 54 24 23 39 56 96 -97 45z"/>
  </g>
  <path class="fil8" d="M6096 3217c-210,92 -273,141 -297,163 -39,34 -60,160 -83,268l475 0 475 0c-23,-108 -44,-234 -82,-268 -25,-22 -86,-70 -296,-162l-192 -1z"/>
  <path class="fil9" d="M6096 3217c-210,92 -273,141 -297,163 -39,34 -60,160 -83,268l475 0 475 0c-23,-108 -44,-234 -82,-268 -25,-22 -86,-70 -296,-162l-192 -1z"/>
  <path class="fil10" d="M6089 3033l0 156 0 77c56,66 148,69 204,0l0 -77 0 -156c0,-125 -204,-125 -204,0z"/>
  <path class="fil10" d="M5979 2887c18,-6 40,15 51,46 10,31 4,61 -14,67 -18,5 -41,-15 -51,-46 -11,-31 -4,-61 14,-67z"/>
  <path class="fil10" d="M6403 2887c-18,-6 -41,15 -51,46 -11,31 -4,61 14,67 18,5 40,-15 51,-46 10,-31 4,-61 -14,-67z"/>
  <path class="fil11" d="M6192 3317c0,0 -142,34 -142,42 0,9 54,289 54,289l193 0 22 -288 -127 -43z"/>
  <path class="fil12" d="M6089 3220l0 46 45 382 -77 0 -83 -170 80 -54 -98 -45 90 -140 43 -19z"/>
  <path class="fil12" d="M6293 3220l0 46 -45 382 76 0 84 -170 -80 -54 98 -45 -80 -135 -53 -24z"/>
  <path class="fil13" d="M6147 3364l25 38c13,0 26,0 38,0l25 -38 -43 -47 -45 47z"/>
  <path class="fil13" d="M6172 3402l-35 246 108 0 -35 -246 -38 0z"/>
  <path class="fil11" d="M6089 3189l-9 35 25 180 87 -87 -103 -128z"/>
  <path class="fil14" d="M6194 3217c-1,0 -2,0 -3,0 -50,-2 -102,-64 -102,-64l0 -7 204 0 0 12c0,0 -51,59 -99,59z"/>
  <path class="fil10" d="M6191 2616c-313,0 -193,429 -172,462 22,36 122,116 172,116 51,0 151,-80 173,-116 21,-33 141,-462 -173,-462z"/>
  <path class="fil11" d="M6293 3189l7 34 -23 183 -85 -89 101 -128z"/>
  <path class="fil15" d="M6192 3317l0 0 -103 -128 0 -3 103 127 101 -127 0 3 -101 128z"/>
  <path class="fil16" d="M6210 3403l0 0 0 -1 0 1zm-38 0l0 0 0 -1 0 1z"/>
  <path class="fil17" d="M6210 3403l-38 0 0 -1 38 0 0 1z"/>
  <path class="fil3" d="M6395 2934c-1,5 -3,11 -3,11 0,0 -28,95 -52,125 -47,57 -107,93 -149,93 -40,0 -100,-32 -147,-88 -19,-22 -53,-122 -54,-130 0,-5 -1,-11 -2,-16 -7,0 -7,43 -7,43 10,49 16,82 36,109 31,44 119,113 172,113 54,0 141,-69 173,-113 19,-27 25,-64 35,-115 0,0 3,-32 -2,-32z"/>
  <path class="fil3" d="M6287 3062c-7,-15 -65,-36 -76,-40 -10,-4 -18,10 -18,10 0,0 -7,-14 -18,-10 -10,4 -69,25 -76,40 -7,15 -11,26 -11,36 0,11 0,48 0,48 0,0 11,0 17,-4 6,-5 12,-17 12,-33 0,-16 12,-29 26,-32 15,-3 50,-9 50,-18 0,9 37,16 50,18 14,3 26,16 26,32 0,16 7,28 13,33 6,4 16,4 16,4 0,0 0,-37 0,-48 0,-10 -3,-21 -11,-36z"/>
  <path class="fil13" d="M6098 2862c-32,-2 -75,2 -83,5 -10,3 -10,4 -11,13 -1,8 0,15 6,17 8,3 8,14 12,46 4,29 16,52 66,56 3,0 5,0 8,0l0 -8c-23,0 -49,-9 -58,-27 -12,-25 -14,-76 3,-87 7,-5 32,-8 57,-7l0 -8zm98 16c-12,0 -58,-13 -90,-16 -3,0 -5,0 -8,0l0 8c27,2 54,8 64,22 15,23 -12,80 -38,93 -7,4 -17,6 -28,6l0 8c44,0 60,-32 66,-42 10,-20 8,-48 33,-48 25,0 22,27 31,47 5,11 19,44 65,42l0 -8c-11,1 -22,-1 -30,-5 -24,-13 -49,-70 -32,-93 10,-14 38,-21 64,-22l0 -9c-2,1 -4,1 -6,1 -29,3 -65,15 -91,16zm95 120c2,0 3,0 5,0 51,-4 64,-27 70,-56 6,-32 6,-43 15,-46 6,-2 7,-9 7,-17 0,-9 -1,-9 -11,-13 -7,-3 -51,-7 -84,-5l0 9c26,-1 51,2 58,6 16,11 12,62 -2,87 -10,18 -35,27 -58,27l0 8z"/>
  <path class="fil3" d="M6209 2681c2,-1 4,-1 5,-2 -2,1 -5,1 -8,2 1,0 2,0 3,0zm-164 -82c110,-95 327,26 377,96 -20,69 -10,158 -25,257l0 0c0,1 0,2 -1,3 0,1 -2,3 -2,4 -1,1 -5,0 -6,-1 0,0 -1,-1 -1,-1 0,-9 0,-26 0,-27 2,-13 0,-27 2,-40 -11,-63 -2,-65 -37,-128 -3,-5 -22,-26 -24,-28 -59,-21 -79,14 -134,35 -21,9 -53,9 -76,9 -37,0 -72,-38 -73,-47 -43,66 -48,113 -61,170 2,10 4,19 5,29 0,1 1,18 0,27 0,0 0,1 -1,1 -1,1 -5,2 -5,1 -1,-1 -3,-3 -3,-4 -1,-4 -1,-7 -1,-11 -1,-5 -2,-10 -2,-15 -17,-61 -48,-304 68,-330z"/>
  <path class="fil18" d="M7726 3044l0 0c0,0 0,0 0,0l0 0z"/>
  <g>
   <path class="fil19 str0" d="M2828 1924l0 -76c0,-2 0,-4 2,-6 2,-2 4,-3 6,-3 2,0 4,1 6,3 2,1 2,3 2,6l0 152c0,3 0,5 -2,7 -1,1 -3,2 -6,2 -2,0 -4,-1 -6,-2 -2,-2 -2,-4 -2,-7l0 -59 -51 0c-9,0 -17,-3 -24,-10 -7,-7 -10,-15 -10,-24l0 -59c0,-2 1,-4 3,-6 1,-2 3,-3 5,-3 3,0 5,1 6,3 2,1 3,3 3,6l0 59c0,5 1,9 5,12 1,2 3,3 5,4 3,1 5,1 7,1l51 0zm152 76c0,3 -1,5 -2,7 -2,1 -4,2 -6,2 -3,0 -5,-1 -6,-2 -2,-2 -3,-4 -3,-7l0 -144 -27 0 -41 146c0,2 -1,4 -3,5 -1,1 -3,2 -5,2 -2,0 -5,-1 -6,-2 -2,-2 -3,-4 -3,-6 0,-2 1,-3 1,-3l42 -152c1,-4 4,-7 8,-7l43 0c5,0 8,3 8,9l0 152zm50 -93l43 0c2,0 4,1 6,3 2,1 2,3 2,6 0,2 0,4 -2,5 -1,2 -3,3 -6,3l-43 0 0 68 60 0c2,0 4,1 6,2 2,2 2,4 2,6 0,2 0,4 -2,6 -1,2 -3,3 -6,3l-68 0c-6,0 -8,-3 -8,-8l0 -153c0,-6 2,-9 8,-9l68 0c2,0 4,1 6,3 2,2 2,4 2,6 0,2 0,4 -2,6 -1,1 -3,2 -6,2l-60 0 0 51zm187 0l0 -59c0,-2 0,-4 2,-6 2,-2 4,-3 6,-3 2,0 4,1 6,3 2,1 2,3 2,6l0 152c0,2 0,5 -2,6 -2,2 -4,3 -6,3 -2,0 -4,-1 -6,-2 -2,-2 -2,-4 -2,-7l0 -76 -68 0 0 76c0,3 -1,5 -3,7 -1,1 -3,2 -6,2 -2,0 -4,-1 -6,-2 -1,-2 -2,-4 -2,-7l0 -152c0,-2 1,-4 2,-6 2,-2 4,-2 6,-2 3,0 5,0 6,2 2,1 3,3 3,6l0 59 68 0zm169 93c0,3 -1,5 -3,7 -1,1 -3,2 -6,2 -2,0 -4,-1 -6,-2 -1,-2 -2,-4 -2,-7l0 -152c0,-2 1,-4 2,-6 2,-2 4,-3 6,-3 2,0 4,1 6,2 2,2 3,4 3,7l0 152zm-102 -76l0 68 34 0c5,0 9,-2 12,-5 3,-3 5,-7 5,-12l0 -34c0,-5 -2,-9 -5,-12 -3,-3 -7,-5 -12,-5l-34 0zm0 -17l34 0c9,0 17,4 24,10 7,7 10,15 10,24l0 34c0,9 -3,17 -10,24 -7,6 -15,10 -24,10l-42 0c-6,0 -9,-3 -9,-9l0 -152c0,-2 1,-4 3,-6 1,-2 3,-3 6,-3 2,0 4,1 5,3 2,1 3,3 3,6l0 59zm279 -51l-34 0c-2,0 -4,0 -6,-2 -1,-2 -2,-4 -2,-6 0,-2 1,-4 2,-6 1,-2 4,-3 6,-3l85 0c2,0 4,1 6,3 2,2 2,4 2,6 0,2 0,4 -2,5 -1,2 -3,3 -6,3l-34 0 0 144c0,3 -1,5 -2,7 -2,1 -4,2 -6,2 -3,0 -5,-1 -6,-2 -2,-2 -3,-4 -3,-7l0 -144zm110 51l43 0c2,0 4,1 6,3 1,1 2,3 2,6 0,2 -1,4 -2,5 -2,2 -4,3 -6,3l-43 0 0 68 59 0c3,0 5,1 6,2 2,2 3,4 3,6 0,2 -1,4 -2,6 -2,2 -4,3 -7,3l-67 0c-6,0 -9,-3 -9,-8l0 -153c0,-6 3,-9 9,-9l67 0c3,0 5,1 6,3 2,2 3,4 3,6 0,2 -1,4 -2,6 -2,1 -4,2 -7,2l-59 0 0 51zm118 17l51 0c5,0 9,-2 12,-5 3,-3 5,-7 5,-12l0 -34c0,-5 -1,-9 -5,-12 -3,-3 -7,-5 -12,-5l-51 0 0 68zm0 17l0 59c0,3 0,5 -2,7 -2,1 -4,2 -6,2 -2,0 -4,-1 -6,-2 -2,-2 -2,-4 -2,-7l0 -152c0,-6 2,-9 8,-9l59 0c10,0 18,4 24,10 7,7 10,15 10,24l0 34c0,9 -3,17 -10,24 -7,7 -15,10 -24,10l-51 0zm136 -17l50 0c5,0 9,-2 12,-5 4,-3 5,-7 5,-12l0 -34c0,-5 -1,-9 -4,-12 -4,-3 -8,-5 -13,-5l-50 0 0 68zm0 17l0 59c0,3 -1,5 -3,7 -1,1 -3,2 -6,2 -2,0 -4,-1 -6,-2 -1,-2 -2,-4 -2,-7l0 -152c0,-6 3,-9 8,-9l59 0c10,0 18,4 24,10 7,7 10,15 10,24l0 34c0,9 -3,17 -10,24 -6,7 -14,10 -24,10l-50 0zm220 59c0,3 -1,5 -3,7 -1,1 -3,2 -6,2 -2,0 -4,-1 -6,-2 -1,-2 -2,-4 -2,-7l0 -119 -69 123c-1,2 -2,3 -4,4l-2 1c0,1 -1,1 -2,1 -2,0 -4,-1 -6,-2 -1,-2 -2,-5 -2,-8l0 -152c0,-2 1,-4 3,-6 1,-2 3,-2 5,-2 3,0 5,0 6,2 2,1 3,3 3,6l0 120 69 -124c0,-1 2,-3 3,-4 2,-1 3,-2 5,-2 2,0 3,1 5,3 2,2 3,4 3,7l0 152zm76 -144l-34 0c-3,0 -5,0 -6,-2 -2,-2 -3,-4 -3,-6 0,-2 1,-4 2,-6 2,-2 4,-3 7,-3l84 0c3,0 5,1 6,3 2,2 3,4 3,6 0,2 -1,4 -2,5 -2,2 -4,3 -7,3l-34 0 0 144c0,3 0,5 -2,7 -1,1 -3,2 -6,2 -2,0 -4,-1 -6,-2 -2,-2 -2,-4 -2,-7l0 -144zm185 119c0,9 -3,17 -9,24 -7,6 -15,10 -24,10l-34 0c-9,0 -17,-4 -24,-10 -7,-7 -10,-15 -10,-24l0 -102c0,-9 3,-17 10,-24 6,-6 14,-10 24,-10l34 0c9,0 17,4 24,10 6,7 9,15 9,24l0 102zm-16 0l0 -102c0,-5 -2,-9 -5,-12 -3,-3 -7,-5 -12,-5l-34 0c-5,0 -9,2 -12,5 -2,2 -3,4 -4,6 -1,2 -1,4 -1,6l0 102c0,5 1,9 5,12 1,1 3,3 5,4 3,0 5,1 7,1l34 0c4,0 8,-2 12,-5 3,-3 5,-7 5,-12zm81 -51l51 0c4,0 8,-2 12,-5 3,-3 4,-7 4,-12l0 -34c0,-5 -1,-9 -4,-12 -4,-3 -8,-5 -12,-5l-51 0 0 68zm0 17l0 59c0,3 -1,5 -3,7 -1,1 -3,2 -6,2 -2,0 -4,-1 -6,-2 -1,-2 -2,-4 -2,-7l0 -152c0,-6 3,-9 8,-9l59 0c10,0 18,4 24,10 7,7 10,15 10,24l0 34c0,9 -3,17 -10,24 -6,7 -14,10 -24,10l-50 0zm220 59c0,3 -1,5 -3,7 -1,1 -3,2 -6,2 -2,0 -4,-1 -6,-2 -1,-2 -2,-4 -2,-7l0 -119 -69 123c-1,2 -2,3 -4,4l-1 1c-1,1 -2,1 -3,1 -2,0 -4,-1 -6,-2 -1,-2 -2,-5 -2,-8l0 -152c0,-2 1,-4 3,-6 1,-2 3,-2 6,-2 2,0 4,0 5,2 2,1 3,3 3,6l0 120 69 -124c0,-1 2,-3 3,-4 2,-1 3,-2 5,-2 2,0 3,1 5,3 2,2 3,4 3,7l0 152zm63 -34l-12 37c-1,2 -2,3 -3,4 -1,1 -3,1 -5,2 -2,0 -4,-1 -6,-3 -2,-1 -3,-3 -3,-6l1 -3 51 -152c2,-5 4,-7 8,-7 4,0 6,2 8,7l50 152 1 3c0,3 -1,5 -3,6 -1,2 -3,3 -6,3 -1,0 -2,-1 -3,-1 -2,-1 -3,-2 -4,-5l-13 -37 -61 0zm56 -17l-25 -74 -25 74 50 0zm168 51c0,3 -1,5 -2,7 -2,1 -4,2 -6,2 -2,0 -4,-1 -6,-2 -2,-2 -3,-4 -3,-7l0 -144 -27 0 -41 146c0,2 -1,4 -3,5 -1,1 -3,2 -5,2 -2,0 -4,-1 -6,-2 -2,-2 -2,-4 -2,-6 0,-2 0,-3 0,-3l42 -152c2,-4 4,-7 8,-7l43 0c5,0 8,3 8,9l0 152zm51 -76l51 0c4,0 8,2 12,5 3,3 4,7 4,12l0 34c0,5 -1,9 -4,12 -2,2 -4,3 -6,4 -2,0 -4,1 -6,1l-51 0 0 -68zm0 -17l0 -59c0,-2 -1,-4 -3,-6 -2,-2 -4,-3 -6,-3 -2,0 -4,1 -5,3 -2,1 -3,3 -3,6l0 152c0,6 3,9 8,9l59 0c10,0 17,-4 24,-10 7,-7 10,-15 10,-24l0 -34c0,-9 -3,-17 -10,-24 -6,-6 -14,-10 -24,-10l-50 0zm203 0l0 -59c0,-2 1,-4 2,-6 2,-2 4,-3 6,-3 2,0 4,1 6,3 2,1 3,3 3,6l0 152c0,2 -1,5 -3,6 -2,2 -4,3 -6,3 -2,0 -4,-1 -6,-2 -1,-2 -2,-4 -2,-7l0 -76 -68 0 0 76c0,3 -1,5 -2,7 -2,1 -4,2 -6,2 -3,0 -5,-1 -6,-2 -2,-2 -3,-4 -3,-7l0 -152c0,-2 1,-4 3,-6 1,-2 3,-2 6,-2 2,0 4,0 5,2 2,1 3,3 3,6l0 59 68 0zm152 68c0,9 -3,17 -10,24 -7,6 -15,10 -24,10l-34 0c-9,0 -17,-4 -24,-10 -6,-7 -10,-15 -10,-24l0 -102c0,-9 4,-17 10,-24 7,-6 15,-10 24,-10l34 0c9,0 17,4 24,10 7,7 10,15 10,24l0 102zm-17 0l0 -102c0,-5 -2,-9 -5,-12 -3,-3 -7,-5 -12,-5l-34 0c-5,0 -9,2 -12,5 -2,2 -3,4 -4,6 0,2 -1,4 -1,6l0 102c0,5 2,9 5,12 2,1 4,3 6,4 2,0 4,1 6,1l34 0c5,0 9,-2 12,-5 3,-3 5,-7 5,-12zm132 -152l-34 0c-3,0 -5,-1 -6,-3 -2,-2 -2,-4 -2,-6 0,-2 0,-4 2,-5 1,-2 3,-3 6,-3l34 0c2,0 4,1 6,2 1,2 2,4 2,6 0,2 0,4 -2,6 -1,2 -3,3 -6,3zm34 177c0,3 -1,5 -3,7 -1,1 -3,2 -6,2 -2,0 -4,-1 -6,-2 -1,-2 -2,-4 -2,-7l0 -119 -69 123c-1,2 -2,3 -4,4l-1 1c-1,1 -2,1 -3,1 -2,0 -4,-1 -6,-2 -1,-2 -2,-5 -2,-8l0 -152c0,-2 1,-4 3,-6 1,-2 3,-2 6,-2 2,0 4,0 5,2 2,1 3,3 3,6l0 120 69 -124c0,-1 2,-3 3,-4 2,-1 3,-2 5,-2 2,0 3,1 5,3 2,2 3,4 3,7l0 152zm236 0c0,3 0,5 -2,7 -2,1 -4,2 -6,2 -2,0 -4,-1 -6,-2 -2,-2 -2,-4 -2,-7l0 -119 -69 123c-1,2 -2,3 -4,4l-2 1c0,1 -1,1 -2,1 -2,0 -4,-1 -6,-2 -1,-2 -2,-5 -2,-8l0 -152c0,-2 1,-4 2,-6 2,-2 4,-2 6,-2 2,0 4,0 6,2 2,1 3,3 3,6l0 120 68 -124c1,-1 2,-3 4,-4 2,-1 3,-2 5,-2 1,0 3,1 5,3 1,2 2,4 2,7l0 152zm85 -76l-25 0c-3,0 -5,-1 -7,-2 -1,-2 -2,-4 -2,-6 0,-2 1,-4 2,-6 2,-2 4,-3 7,-3l25 0c5,0 9,-1 12,-5 3,-3 5,-7 5,-12l0 -17c0,-5 -2,-9 -5,-12 -3,-3 -7,-5 -12,-5l-17 0c-4,0 -7,1 -10,3 -2,2 -5,5 -6,9 0,1 -1,3 -3,4 0,1 -1,1 -2,2l-3 0c-2,0 -4,-1 -6,-2 -2,-2 -2,-4 -2,-7l0 -2c2,-7 6,-13 12,-17 6,-4 13,-7 20,-7l17 0c9,0 17,4 24,10 6,7 10,15 10,24l0 17c0,5 -1,10 -3,14 -2,5 -5,9 -9,12 8,6 12,14 12,25l0 34c0,9 -4,17 -10,24 -7,6 -15,10 -24,10l-17 0c-7,0 -14,-2 -20,-7 -5,-4 -10,-10 -12,-17l0 -3c0,-2 0,-4 2,-5 2,-2 4,-3 6,-3 4,0 6,2 8,6 1,3 3,6 6,9 3,2 7,3 10,3l17 0c5,0 9,-2 12,-5 3,-3 5,-7 5,-12l0 -34c0,-5 -1,-9 -4,-12 -3,-3 -7,-5 -13,-5zm84 0l0 68 51 0c5,0 9,-2 12,-5 4,-3 5,-7 5,-12l0 -34c0,-5 -1,-9 -5,-12 -3,-3 -7,-5 -12,-5l-51 0zm0 -17l51 0c9,0 17,4 24,10 7,7 10,15 10,24l0 34c0,9 -3,17 -10,24 -7,6 -14,10 -24,10l-59 0c-6,0 -8,-3 -8,-9l0 -152c0,-6 2,-9 8,-9l68 0c2,0 4,1 6,3 1,2 2,4 2,6 0,2 -1,4 -2,5 -1,2 -4,3 -6,3l-60 0 0 51zm220 93c0,3 -1,5 -2,7 -2,1 -4,2 -6,2 -2,0 -4,-1 -6,-2 -2,-2 -3,-4 -3,-7l0 -119 -68 123c-1,2 -2,3 -4,4l-2 1c0,1 -1,1 -2,1 -2,0 -4,-1 -6,-2 -1,-2 -2,-5 -2,-8l0 -152c0,-2 1,-4 2,-6 2,-2 4,-2 6,-2 2,0 4,0 6,2 2,1 3,3 3,6l0 120 68 -124c1,-1 2,-3 4,-4 1,-1 3,-2 5,-2 1,0 3,1 5,3 1,2 2,4 2,7l0 152zm51 -76l51 0c4,0 8,-2 12,-5 3,-3 5,-7 5,-12l0 -34c0,-5 -2,-9 -5,-12 -3,-3 -7,-5 -12,-5l-51 0 0 68zm0 17l0 59c0,3 -1,5 -2,7 -2,1 -4,2 -6,2 -3,0 -5,-1 -6,-2 -2,-2 -3,-4 -3,-7l0 -152c0,-6 3,-9 9,-9l59 0c9,0 17,4 24,10 6,7 10,15 10,24l0 34c0,9 -4,17 -10,24 -7,7 -15,10 -24,10l-51 0zm131 25l-12 37c-1,2 -2,3 -3,4 -1,1 -3,1 -5,2 -2,0 -4,-1 -6,-3 -2,-1 -2,-3 -2,-6l0 -3 51 -152c2,-5 4,-7 8,-7 4,0 6,2 8,7l51 152 0 3c0,3 -1,5 -3,6 -1,2 -3,3 -6,3 -1,0 -2,-1 -3,-1 -2,-1 -3,-2 -4,-5l-12 -37 -62 0zm56 -17l-25 -74 -25 74 50 0zm75 -93l-34 0c-2,0 -4,0 -6,-2 -1,-2 -2,-4 -2,-6 0,-2 1,-4 2,-6 1,-2 3,-3 6,-3l85 0c2,0 4,1 6,3 1,2 2,4 2,6 0,2 0,4 -2,5 -1,2 -3,3 -6,3l-34 0 0 144c0,3 -1,5 -2,7 -2,1 -4,2 -6,2 -3,0 -5,-1 -6,-2 -2,-2 -3,-4 -3,-7l0 -144zm110 51l42 0c3,0 5,1 6,3 2,1 3,3 3,6 0,2 -1,4 -2,5 -2,2 -4,3 -7,3l-42 0 0 68 59 0c3,0 5,1 6,2 2,2 3,4 3,6 0,2 -1,4 -2,6 -2,2 -4,3 -7,3l-67 0c-6,0 -9,-3 -9,-8l0 -153c0,-6 3,-9 9,-9l67 0c3,0 5,1 6,3 2,2 3,4 3,6 0,2 -1,4 -2,6 -2,1 -4,2 -7,2l-59 0 0 51zm203 93c0,3 -1,5 -2,7 -2,1 -4,2 -6,2 -2,0 -4,-1 -6,-2 -2,-2 -3,-4 -3,-7l0 -144 -27 0 -41 146c0,2 -1,4 -3,5 -1,1 -3,2 -5,2 -2,0 -4,-1 -6,-2 -2,-2 -2,-4 -2,-6 0,-2 0,-3 0,-3l42 -152c1,-4 4,-7 8,-7l43 0c5,0 8,3 8,9l0 152zm51 -76l50 0c5,0 9,2 12,5 4,3 5,7 5,12l0 34c0,5 -1,9 -4,12 -2,2 -4,3 -6,4 -2,0 -4,1 -7,1l-50 0 0 -68zm0 -17l0 -59c0,-2 -1,-4 -3,-6 -2,-2 -4,-3 -6,-3 -2,0 -4,1 -5,3 -2,1 -3,3 -3,6l0 152c0,6 3,9 8,9l59 0c9,0 17,-4 24,-10 7,-7 10,-15 10,-24l0 -34c0,-9 -3,-17 -10,-24 -6,-6 -14,-10 -24,-10l-50 0zm203 0l0 -59c0,-2 0,-4 2,-6 2,-2 4,-3 6,-3 2,0 4,1 6,3 2,1 2,3 2,6l0 152c0,2 0,5 -2,6 -2,2 -4,3 -6,3 -2,0 -4,-1 -6,-2 -2,-2 -2,-4 -2,-7l0 -76 -68 0 0 76c0,3 -1,5 -3,7 -1,1 -3,2 -6,2 -2,0 -4,-1 -5,-2 -2,-2 -3,-4 -3,-7l0 -152c0,-2 1,-4 3,-6 1,-2 3,-2 5,-2 3,0 5,0 6,2 2,1 3,3 3,6l0 59 68 0zm152 68c0,9 -4,17 -10,24 -7,6 -15,10 -24,10l-34 0c-9,0 -17,-4 -24,-10 -6,-7 -10,-15 -10,-24l0 -102c0,-9 4,-17 10,-24 7,-6 15,-10 24,-10l34 0c9,0 17,4 24,10 6,7 10,15 10,24l0 102zm-17 0l0 -102c0,-5 -2,-9 -5,-12 -3,-3 -7,-5 -12,-5l-34 0c-5,0 -9,2 -12,5 -2,2 -3,4 -4,6 0,2 -1,4 -1,6l0 102c0,5 2,9 5,12 2,1 3,3 5,4 3,0 5,1 7,1l34 0c5,0 9,-2 12,-5 3,-3 5,-7 5,-12z"/>
   <path class="fil19 str0" d="M7307 1823l-34 0c-3,0 -5,-1 -6,-3 -2,-2 -3,-4 -3,-6 0,-2 1,-4 3,-5 1,-2 3,-3 6,-3l34 0c2,0 4,1 6,2 1,2 2,4 2,6 0,2 0,4 -2,6 -1,2 -3,3 -6,3zm34 177c0,3 -1,5 -3,7 -1,1 -3,2 -6,2 -2,0 -4,-1 -6,-2 -1,-2 -2,-4 -2,-7l0 -119 -69 123c-1,2 -2,3 -4,4l-2 1c0,1 -1,1 -2,1 -2,0 -4,-1 -6,-2 -1,-2 -2,-5 -2,-8l0 -152c0,-2 1,-4 3,-6 1,-2 3,-2 6,-2 2,0 4,0 5,2 2,1 3,3 3,6l0 120 69 -124c0,-1 2,-3 3,-4 2,-1 3,-2 5,-2 2,0 3,1 5,3 2,2 3,4 3,7l0 152zm152 -88l71 -70c2,-2 4,-3 6,-3 2,0 4,1 6,3 1,2 2,4 2,6 0,2 0,3 -2,6l-51 50 52 92 2 4c0,3 -1,4 -3,6 -2,2 -4,3 -6,3 -3,0 -5,-2 -7,-5l-50 -88 -20 20 0 64c0,3 -1,5 -3,7 -1,1 -3,2 -6,2 -2,0 -4,-1 -6,-2 -1,-2 -2,-4 -2,-7l0 -152c0,-3 1,-4 2,-6 2,-2 4,-3 6,-3 2,0 4,1 6,2 2,2 3,4 3,7l0 64zm211 63c0,9 -3,17 -10,24 -7,6 -15,10 -24,10l-34 0c-9,0 -17,-4 -23,-10 -7,-7 -10,-15 -10,-24l0 -102c0,-9 3,-17 9,-24 7,-6 15,-10 24,-10l34 0c10,0 18,4 24,10 7,7 10,15 10,24l0 102zm-17 0l0 -102c0,-5 -1,-9 -5,-12 -3,-3 -7,-5 -12,-5l-34 0c-4,0 -8,2 -12,5 -1,2 -3,4 -3,6 -1,2 -2,4 -2,6l0 102c0,5 2,9 5,12 2,1 4,3 6,4 2,0 4,1 6,1l34 0c5,0 9,-2 12,-5 3,-3 5,-7 5,-12zm183 25c0,3 -1,5 -2,7 -2,1 -4,2 -7,2 -2,0 -3,-1 -5,-2 -2,-2 -3,-4 -3,-7l0 -121 -35 59c-2,4 -5,5 -7,5 -3,0 -5,-1 -8,-5l-35 -59 0 121c0,3 -1,5 -2,7 -2,1 -4,2 -6,2 -2,0 -4,-1 -6,-2 -2,-2 -3,-4 -3,-7l0 -151c0,-4 1,-6 3,-8 1,-1 3,-2 5,-2 2,0 3,0 4,1 1,1 3,2 4,4l44 73 43 -73c2,-3 5,-5 8,-5 2,0 4,1 6,3 1,1 2,4 2,7l0 151zm135 0c0,3 -1,5 -2,7 -2,1 -4,2 -6,2 -3,0 -5,-1 -6,-2 -2,-2 -3,-4 -3,-7l0 -119 -69 123c-1,2 -2,3 -3,4l-2 1c-1,1 -2,1 -3,1 -1,0 -3,-1 -5,-2 -2,-2 -2,-5 -2,-8l0 -152c0,-2 0,-4 2,-6 2,-2 4,-2 6,-2 2,0 4,0 6,2 1,1 2,3 2,6l0 120 69 -124c1,-1 2,-3 4,-4 1,-1 3,-2 4,-2 2,0 4,1 5,3 2,2 3,4 3,7l0 152zm110 9l-42 0c-10,0 -17,-4 -24,-10 -7,-7 -10,-15 -10,-24l0 -102c0,-9 3,-17 10,-24 6,-6 14,-10 24,-10l42 0c2,0 4,1 6,3 2,2 2,4 2,6 0,2 0,4 -2,5 -1,2 -3,3 -6,3l-42 0c-5,0 -9,2 -13,5 -1,2 -2,4 -3,6 -1,2 -1,4 -1,6l0 102c0,5 1,9 4,12 2,1 4,3 6,4 2,0 5,1 7,1l42 0c2,0 4,1 6,2 2,2 2,4 2,6 0,2 0,4 -2,6 -1,2 -3,3 -6,3zm111 0l-43 0c-9,0 -17,-4 -23,-10 -7,-7 -10,-15 -10,-24l0 -102c0,-9 3,-17 9,-24 7,-6 15,-10 24,-10l43 0c2,0 4,1 6,3 1,2 2,4 2,6 0,2 -1,4 -2,5 -1,2 -3,3 -6,3l-43 0c-4,0 -8,2 -12,5 -1,2 -3,4 -3,6 -1,2 -2,4 -2,6l0 102c0,5 2,9 5,12 2,1 4,3 6,4 2,0 4,1 6,1l43 0c2,0 4,1 6,2 1,2 2,4 2,6 0,2 -1,4 -2,6 -1,2 -3,3 -6,3zm143 -9c0,3 0,5 -2,7 -2,1 -4,2 -6,2 -2,0 -4,-1 -6,-2 -2,-2 -3,-4 -3,-7l0 -119 -68 123c-1,2 -2,3 -4,4l-2 1c0,1 -1,1 -2,1 -2,0 -4,-1 -6,-2 -1,-2 -2,-5 -2,-8l0 -152c0,-2 1,-4 2,-6 2,-2 4,-2 6,-2 2,0 4,0 6,2 2,1 3,3 3,6l0 120 68 -124c1,-1 2,-3 4,-4 2,-1 3,-2 5,-2 1,0 3,1 5,3 1,2 2,4 2,7l0 152zm136 0c0,3 -1,5 -3,7 -1,1 -3,2 -6,2 -2,0 -4,-1 -6,-2 -1,-2 -2,-4 -2,-7l0 -119 -69 123c-1,2 -2,3 -4,4l-1 1c-1,1 -2,1 -3,1 -2,0 -4,-1 -6,-2 -1,-2 -2,-5 -2,-8l0 -152c0,-2 1,-4 3,-6 1,-2 3,-2 6,-2 2,0 4,0 5,2 2,1 3,3 3,6l0 120 69 -124c0,-1 2,-3 3,-4 2,-1 3,-2 5,-2 2,0 3,1 5,3 2,2 3,4 3,7l0 152zm-4464 279l-42 0c-9,0 -17,-3 -24,-10 -7,-6 -10,-14 -10,-24l0 -101c0,-9 3,-17 10,-24 7,-7 15,-10 24,-10l42 0c3,0 5,1 6,3 2,1 3,3 3,6 0,1 -1,3 -2,5 -2,2 -4,3 -7,3l-42 0c-5,0 -9,2 -12,5 -2,1 -3,3 -4,5 -1,2 -1,5 -1,7l0 102c0,4 2,8 5,12 2,1 3,2 5,3 3,1 5,1 7,1l42 0c3,0 5,1 6,3 2,2 3,4 3,6 0,2 -1,4 -2,6 -2,1 -4,2 -7,2zm245 -8c0,2 0,5 -2,6 -2,2 -4,2 -6,2 -2,0 -4,0 -6,-2 -2,-1 -2,-3 -2,-6l0 -144 -68 0 0 144c0,2 -1,5 -3,6 -1,2 -3,2 -6,2 -2,0 -4,0 -6,-2 -1,-1 -2,-3 -2,-6l0 -152c0,-6 3,-9 8,-9l85 0c6,0 8,3 8,9l0 152zm51 -76l51 0c5,0 9,-2 12,-5 3,-3 5,-7 5,-12l0 -34c0,-5 -2,-9 -5,-12 -3,-3 -7,-5 -12,-5l-51 0 0 68zm0 17l0 59c0,2 -1,5 -2,6 -2,2 -4,2 -6,2 -3,0 -5,0 -6,-2 -2,-1 -3,-3 -3,-6l0 -152c0,-6 3,-9 9,-9l59 0c9,0 17,3 24,10 6,7 10,15 10,24l0 34c0,9 -4,17 -10,24 -7,6 -15,10 -24,10l-51 0zm131 25l-12 36c-1,2 -2,4 -3,5 -1,1 -3,1 -5,1 -2,0 -4,-1 -6,-2 -1,-2 -2,-4 -2,-6l0 -3 51 -152c2,-5 4,-7 8,-7 4,0 6,2 8,7l51 152 0 3c0,2 -1,4 -3,6 -1,2 -3,2 -5,2 -2,0 -3,0 -4,-1 -2,0 -3,-2 -4,-5l-12 -36 -62 0zm56 -17l-25 -75 -25 75 50 0zm152 -37c5,3 9,7 12,12 3,5 4,11 4,17l0 33c0,10 -3,18 -10,24 -6,7 -14,10 -24,10l-59 0c-5,0 -8,-2 -8,-8l0 -152c0,-6 3,-9 8,-9l51 0c9,0 17,3 24,10 7,7 10,15 10,24l0 17c0,4 -1,7 -2,11 -1,4 -3,7 -6,11zm-68 12l0 67 50 0c5,0 9,-1 12,-4 4,-3 5,-7 5,-12l0 -34c0,-5 -1,-9 -4,-12 -4,-4 -8,-5 -13,-5l-50 0zm42 -17c5,0 9,-2 12,-5 3,-3 5,-7 5,-12l0 -17c0,-5 -2,-9 -5,-12 -3,-3 -7,-5 -12,-5l-42 0 0 51 42 0zm177 67c0,10 -3,18 -9,24 -7,7 -15,10 -24,10l-34 0c-9,0 -17,-3 -24,-10 -7,-6 -10,-14 -10,-24l0 -101c0,-9 3,-17 10,-24 6,-7 14,-10 24,-10l34 0c9,0 17,3 24,10 6,7 9,15 9,24l0 101zm-16 1l0 -102c0,-5 -2,-9 -5,-12 -3,-3 -7,-5 -12,-5l-34 0c-5,0 -9,2 -12,5 -2,1 -3,3 -4,5 -1,2 -1,5 -1,7l0 102c0,4 1,8 5,12 1,1 3,2 5,3 3,1 5,1 7,1l34 0c4,0 8,-1 12,-4 3,-3 5,-7 5,-12zm182 25c0,2 0,5 -2,6 -2,2 -4,2 -6,2 -2,0 -4,0 -6,-2 -2,-1 -2,-3 -2,-6l0 -121 -35 59c-3,3 -5,5 -8,5 -2,0 -5,-2 -7,-5l-35 -59 0 121c0,2 -1,5 -3,6 -1,2 -3,2 -6,2 -2,0 -4,0 -6,-2 -1,-1 -2,-3 -2,-6l0 -152c0,-3 1,-5 2,-7 2,-2 4,-2 6,-2 1,0 2,0 4,1 1,1 2,2 4,4l43 73 44 -73c2,-4 4,-5 8,-5 2,0 3,0 5,2 2,2 2,4 2,7l0 152zm152 -76l51 0c5,0 9,-2 12,-5 3,-3 5,-7 5,-12l0 -34c0,-5 -2,-9 -5,-12 -3,-3 -7,-5 -12,-5l-51 0 0 68zm0 17l0 59c0,2 0,5 -2,6 -2,2 -4,2 -6,2 -2,0 -4,0 -6,-2 -2,-1 -2,-3 -2,-6l0 -152c0,-6 2,-9 8,-9l59 0c10,0 18,3 24,10 7,7 10,15 10,24l0 34c0,9 -3,17 -10,24 -7,6 -15,10 -24,10l-51 0zm136 -34l42 0c2,0 4,1 6,2 2,2 3,4 3,6 0,2 -1,4 -3,6 -1,2 -3,3 -6,3l-42 0 0 67 59 0c2,0 4,1 6,3 2,2 3,4 3,6 0,2 -1,4 -3,6 -1,1 -3,2 -6,2l-68 0c-5,0 -8,-2 -8,-8l0 -152c0,-6 3,-9 8,-9l68 0c2,0 4,1 6,3 2,1 3,3 3,6 0,2 -1,3 -3,5 -1,2 -3,3 -6,3l-59 0 0 51zm177 84l42 0 0 -143c0,-3 1,-5 3,-7 2,-1 4,-2 6,-2 2,0 4,1 6,2 1,2 2,4 2,7l0 152c0,6 -3,8 -8,8l-118 0c-6,0 -9,-2 -9,-8l0 -152c0,-3 1,-5 3,-7 1,-1 3,-2 6,-2 2,0 4,1 5,2 2,2 3,4 3,7l0 143 42 0 0 -143c0,-3 1,-5 3,-7 1,-1 3,-2 6,-2 2,0 4,1 5,2 2,2 3,4 3,7l0 143zm123 -25l-12 36c-1,2 -2,4 -3,5 -1,1 -3,1 -5,1 -2,0 -4,-1 -6,-2 -2,-2 -3,-4 -3,-6l1 -3 51 -152c1,-5 4,-7 8,-7 3,0 6,2 8,7l50 152 1 3c0,2 -1,4 -3,6 -2,2 -4,2 -6,2 -1,0 -2,0 -4,-1 -1,0 -2,-2 -3,-5l-13 -36 -61 0zm56 -17l-25 -75 -25 75 50 0zm168 26l0 -102c0,-5 -1,-9 -5,-12 -3,-3 -7,-5 -12,-5l-17 0c-5,0 -9,2 -12,5 -2,1 -3,3 -4,5 0,2 -1,5 -1,7l0 102c0,4 2,8 5,12 2,1 4,2 5,3 3,1 5,1 7,1l17 0c5,0 9,-1 12,-4 3,-3 5,-7 5,-12zm-85 -68l17 0 0 -34c0,-9 4,-17 10,-24 7,-7 15,-10 24,-10l17 0c10,0 18,3 24,10 7,7 10,15 10,24l0 101c0,10 -3,18 -10,24 -7,7 -15,10 -24,10l-17 0c-9,0 -17,-3 -24,-10 -6,-6 -10,-14 -10,-24l0 -50 -17 0 0 76c0,2 -1,5 -2,6 -2,2 -4,2 -6,2 -2,0 -4,0 -6,-2 -2,-1 -3,-3 -3,-6l0 -152c0,-3 1,-5 3,-7 2,-1 4,-2 6,-2 2,0 4,1 6,2 1,2 2,4 2,7l0 59zm271 101l-9 0 -118 0c-6,0 -8,-2 -8,-8l0 -152c0,-3 0,-5 2,-7 2,-1 4,-2 6,-2 2,0 4,1 6,2 2,2 2,4 2,7l0 143 43 0 0 -143c0,-3 1,-5 2,-7 2,-1 4,-2 6,-2 2,0 4,1 6,2 2,2 3,4 3,7l0 143 42 0 0 -143c0,-3 1,-5 3,-7 1,-1 3,-2 6,-2 2,0 4,1 5,2 2,2 3,4 3,7l0 143 8 0c6,0 9,3 9,9l0 25c0,3 -1,5 -3,6 -2,2 -4,3 -6,3 -2,0 -3,-1 -5,-2 -2,-2 -3,-4 -3,-7l0 -17zm67 -101l43 0c2,0 4,1 6,2 2,2 3,4 3,6 0,2 -1,4 -3,6 -1,2 -3,3 -6,3l-43 0 0 67 60 0c2,0 4,1 6,3 2,2 2,4 2,6 0,2 0,4 -2,6 -1,1 -3,2 -6,2l-68 0c-6,0 -8,-2 -8,-8l0 -152c0,-6 2,-9 8,-9l68 0c2,0 4,1 6,3 2,1 2,3 2,6 0,2 0,3 -2,5 -1,2 -3,3 -6,3l-60 0 0 51zm178 -51l-59 0 0 144c0,2 -1,5 -3,6 -1,2 -3,2 -6,2 -2,0 -4,0 -5,-2 -2,-1 -3,-3 -3,-6l0 -152c0,-6 3,-9 8,-9l68 0c3,0 5,1 6,3 2,1 3,3 3,6 0,1 -1,3 -2,5 -2,2 -4,3 -7,3zm135 118c0,10 -3,18 -10,24 -6,7 -14,10 -24,10l-33 0c-10,0 -17,-3 -24,-10 -7,-6 -10,-14 -10,-24l0 -101c0,-9 3,-17 10,-24 6,-7 14,-10 24,-10l33 0c10,0 18,3 24,10 7,7 10,15 10,24l0 101zm-17 1l0 -102c0,-5 -1,-9 -4,-12 -4,-3 -8,-5 -13,-5l-33 0c-5,0 -9,2 -13,5 -1,1 -2,3 -3,5 -1,2 -1,5 -1,7l0 102c0,4 1,8 4,12 2,1 4,2 6,3 2,1 5,1 7,1l33 0c5,0 9,-1 12,-4 4,-3 5,-7 5,-12zm242 -119l-59 0 0 144c0,2 -1,5 -2,6 -2,2 -4,2 -7,2 -2,0 -4,0 -5,-2 -2,-1 -3,-3 -3,-6l0 -152c0,-6 3,-9 9,-9l67 0c3,0 5,1 6,3 2,1 3,3 3,6 0,1 -1,3 -2,5 -2,2 -4,3 -7,3zm135 118c0,10 -3,18 -10,24 -6,7 -14,10 -24,10l-33 0c-10,0 -17,-3 -24,-10 -7,-6 -10,-14 -10,-24l0 -101c0,-9 3,-17 10,-24 6,-7 14,-10 24,-10l33 0c10,0 18,3 24,10 7,7 10,15 10,24l0 101zm-17 1l0 -102c0,-5 -1,-9 -4,-12 -3,-3 -8,-5 -12,-5l-34 0c-5,0 -9,2 -12,5 -2,1 -3,3 -4,5 -1,2 -1,5 -1,7l0 102c0,4 1,8 5,12 1,1 3,2 5,3 2,1 5,1 7,1l34 0c4,0 8,-1 12,-4 3,-3 4,-7 4,-12zm149 25c0,2 0,5 -2,6 -1,2 -4,2 -6,2 -2,0 -4,0 -6,-2 -2,-1 -2,-3 -2,-6l0 -144 -28 0 -41 146c0,2 -1,3 -2,4 -2,2 -4,2 -6,2 -2,0 -4,0 -6,-2 -1,-1 -2,-3 -2,-6 0,-1 0,-2 0,-2l43 -153c1,-4 3,-6 8,-6l42 0c6,0 8,3 8,9l0 152zm135 -26c0,10 -3,18 -9,24 -7,7 -15,10 -24,10l-34 0c-9,0 -17,-3 -24,-10 -7,-6 -10,-14 -10,-24l0 -101c0,-9 3,-17 10,-24 6,-7 14,-10 24,-10l34 0c9,0 17,3 24,10 6,7 9,15 9,24l0 101zm-16 1l0 -102c0,-5 -2,-9 -5,-12 -3,-3 -7,-5 -12,-5l-34 0c-5,0 -9,2 -12,5 -2,1 -3,3 -4,5 -1,2 -1,5 -1,7l0 102c0,4 1,8 5,12 1,1 3,2 5,3 3,1 5,1 7,1l34 0c4,0 8,-1 12,-4 3,-3 5,-7 5,-12zm140 33l-42 0c-10,0 -17,-3 -24,-10 -7,-6 -10,-14 -10,-24l0 -101c0,-9 3,-17 10,-24 6,-7 14,-10 24,-10l42 0c2,0 4,1 6,3 2,1 2,3 2,6 0,1 0,3 -2,5 -1,2 -3,3 -6,3l-42 0c-5,0 -9,2 -13,5 -1,1 -2,3 -3,5 -1,2 -1,5 -1,7l0 102c0,4 1,8 4,12 2,1 4,2 6,3 2,1 5,1 7,1l42 0c2,0 4,1 6,3 2,2 2,4 2,6 0,2 0,4 -2,6 -1,1 -3,2 -6,2zm72 -42l-12 36c-1,2 -2,4 -3,5 -2,1 -3,1 -5,1 -2,0 -4,-1 -6,-2 -2,-2 -3,-4 -3,-6l1 -3 51 -152c1,-5 4,-7 8,-7 3,0 6,2 8,7l50 152 1 3c0,2 -1,4 -3,6 -2,2 -4,2 -6,2 -1,0 -2,0 -4,-1 -1,0 -2,-2 -4,-5l-12 -36 -61 0zm56 -17l-25 -75 -25 75 50 0z"/>
  </g>
  <g>
   <g>
    <path class="fil20" d="M5739 4486l-554 -1 0 -30 554 1 0 30 0 0zm0 -30c10,0 18,7 18,15 0,8 -8,15 -18,15l0 -30zm576 29l-576 1 0 -30 576 -1 17 15 -17 15zm0 -30c9,0 17,7 17,15 0,8 -7,15 -17,15l0 -30zm-18 730l0 -715 35 0 0 715 -17 15 -18 -15zm35 0c0,8 -7,15 -17,15 -10,0 -18,-7 -18,-15l35 0zm-1147 -15l1130 0 0 30 -1130 0 -18 -15 18 -15zm0 30c-10,0 -18,-7 -18,-15 0,-8 8,-15 18,-15l0 30zm17 -730l0 715 -35 0 0 -715 18 -15 17 15zm-35 0c0,-8 8,-15 18,-15 9,0 17,7 17,15l-35 0z"/>
   </g>
   <g>
    <path class="fil20" d="M5173 4513c-7,-5 -8,-15 -2,-21 7,-6 18,-7 25,-1l-23 22zm565 414l-565 -414 23 -22 565 413 0 23 -23 0zm23 -23c8,6 8,15 2,21 -6,7 -17,7 -25,2l23 -23zm565 -391l-565 414 -23 -23 565 -413 23 22zm-23 -22c8,-6 19,-5 25,1 6,6 6,16 -2,21l-23 -22zm-1107 705c-7,6 -18,5 -25,-1 -6,-7 -5,-16 2,-21l23 22zm478 -341l-478 341 -23 -22 478 -342 23 23zm-23 -23c8,-5 19,-4 25,2 6,6 5,16 -2,21l-23 -23zm175 23c-8,-5 -8,-15 -2,-21 6,-6 17,-7 24,-2l-22 23zm478 341l-478 -341 22 -23 478 342 -22 22zm22 -22c8,5 8,14 2,21 -6,6 -17,7 -24,1l22 -22z"/>
   </g>
  </g>
  <path class="fil21 str1" d="M6117 4580c-108,375 -35,162 -85,129 -50,-34 182,-161 167,-59 -15,103 -182,78 -177,100 4,21 69,36 89,-18 20,-55 -9,42 43,25 51,-16 72,-65 64,-38 -8,28 6,23 33,6 28,-16 59,-34 59,-34"/>
  <path class="fil21 str1" d="M5638 5004c0,31 22,37 50,31 57,-11 72,-158 57,-149 -23,14 -91,24 -92,70 0,10 2,18 4,23 21,41 109,-13 148,-22 54,-11 11,-80 -48,-46 -12,8 -69,39 -75,52 -22,47 17,48 49,51 29,3 164,-55 161,-49 0,0 -25,50 -10,39 25,-17 179,-38 102,-52 -22,-4 -106,-15 -126,-11"/>
  <path class="fil21 str2" d="M5351 4550c84,-22 170,27 193,111 22,84 -28,170 -111,193 -84,22 -170,-28 -193,-112 -22,-83 27,-169 111,-192zm-77 152c0,-52 35,-100 87,-114 53,-14 107,10 133,56m15 57c1,52 -34,100 -87,114 -52,14 -106,-10 -132,-55m119 15c-14,4 -2,-13 -18,-8 -8,2 -21,23 -25,21 -4,-3 -16,-12 -14,-17 4,-9 5,-20 15,-26 -7,-4 -28,3 -31,-7 0,0 -45,-26 -24,-44 4,-4 -5,-16 -2,-26 3,-7 60,-1 58,-9 -1,-3 -7,-12 -21,-14 -2,0 13,-3 20,-7 2,0 -3,-5 -2,-6 3,-3 3,-3 7,-4m153 36c0,0 -9,9 -3,10m-260 68c-1,-6 10,-6 0,-13m152 45c13,-4 -5,-12 11,-17 8,-2 30,11 32,6 2,-4 8,-18 4,-21 -8,-6 -14,-15 -26,-15 4,-8 26,-12 23,-22 0,0 26,-45 -1,-50 -5,-1 -4,-16 -11,-23 -6,-5 -53,29 -55,21 -1,-4 0,-15 11,-22 2,-2 -13,3 -21,4 -2,0 0,-7 0,-7 -4,-1 -5,-1 -9,0"/>
 </g>
</svg>
