<?xml version="1.0" encoding="UTF-8"?>
<!DOCTYPE svg PUBLIC "-//W3C//DTD SVG 1.0//EN" "http://www.w3.org/TR/2001/REC-SVG-20010904/DTD/svg10.dtd">
<!-- Creator: CorelDRAW X7 -->
<svg xmlns="http://www.w3.org/2000/svg" xml:space="preserve" width="200mm" height="200mm" version="1.0" style="shape-rendering:geometricPrecision; text-rendering:geometricPrecision; image-rendering:optimizeQuality; fill-rule:evenodd; clip-rule:evenodd"
viewBox="0 0 20000 20000"
 xmlns:xlink="http://www.w3.org/1999/xlink">
 <defs>
  <style type="text/css">
   <![CDATA[
    .str3 {stroke:#034540;stroke-width:50}
    .str0 {stroke:#034540;stroke-width:159.99;stroke-linecap:round;stroke-linejoin:round}
    .str1 {stroke:#4D8A7D;stroke-width:120;stroke-linecap:round;stroke-linejoin:round}
    .str2 {stroke:#008DD2;stroke-width:71.33;stroke-linecap:round;stroke-linejoin:round}
    .fil4 {fill:none;fill-rule:nonzero}
    .fil5 {fill:#034540}
    .fil2 {fill:#FFF7B3}
    .fil1 {fill:#FFFADB}
    .fil3 {fill:#4D8A7D;fill-rule:nonzero}
    .fil0 {fill:url(#id0)}
   ]]>
  </style>
  <radialGradient id="id0" gradientUnits="userSpaceOnUse" gradientTransform="matrix(1.41421 -0 -0 1.41421 -4134 -4153)" cx="9979.52" cy="10025.1" r="10000" fx="9979.52" fy="10025.1">
   <stop offset="0" style="stop-opacity:1; stop-color:#FEFEFE"/>
   <stop offset="0.439216" style="stop-opacity:1; stop-color:#FEFEFE"/>
   <stop offset="1" style="stop-opacity:1; stop-color:#D1E2F2"/>
  </radialGradient>
 </defs>
 <g id="Layer_x0020_1">
  <metadata id="CorelCorpID_0Corel-Layer"/>
  <g id="_623527014448">
   <path class="fil0" d="M-20 25l20000 0 0 20000 -20000 0 0 -20000z"/>
   <path class="fil1 str0" d="M12944 4584l0 8332c-2205,0 -3683,0 -5888,0l0 -8332 5888 0z"/>
   <path class="fil2" d="M7056 4584l5888 0 0 3361 -5888 -2798c10,-289 0,-370 0,-563z"/>
   <g>
    <path class="fil3" d="M8176 7584c-37,0 -66,-31 -66,-70 0,-38 29,-69 66,-69l0 139zm4080 0l-4080 0 0 -139 4080 0 0 139zm0 -139c36,0 66,31 66,69 0,39 -30,70 -66,70l0 -139z"/>
   </g>
   <path class="fil4 str0" d="M12944 4584l0 8332c-2205,0 -3683,0 -5888,0l0 -8332 5888 0z"/>
   <path class="fil4 str1" d="M9843 11461c-498,1734 -157,751 -389,597 -232,-155 842,-745 772,-270 -70,474 -842,359 -821,459 21,100 323,169 414,-84 91,-253 -42,197 196,119 239,-77 337,-302 298,-176 -38,127 28,106 155,28 126,-77 270,-157 270,-157"/>
   <path class="fil4 str1" d="M10895 12342c349,0 609,-552 450,-648 -300,-281 -623,659 129,422 374,-118 188,-885 188,15 0,57 768,194 -244,218"/>
   <path class="fil4 str2" d="M8238 11245c376,-101 763,122 864,498 101,377 -123,763 -499,864 -376,101 -762,-123 -863,-499 -101,-376 122,-762 498,-863zm-344 683c-2,-234 154,-448 390,-511 237,-64 479,44 595,247m69 260c1,233 -154,448 -391,511 -236,63 -478,-44 -594,-247m534 67c-61,17 -8,-58 -82,-38 -35,9 -93,106 -110,94 -18,-13 -71,-54 -64,-73 18,-42 22,-90 67,-116 -31,-22 -126,10 -137,-35 0,-1 -201,-117 -110,-197 17,-16 -19,-72 -6,-114 11,-34 269,-4 259,-41 -5,-16 -33,-57 -93,-63 -10,-1 56,-17 90,-31 8,-3 -16,-26 -13,-29 14,-11 15,-14 34,-19m685 162c0,0 -39,40 -10,47m-1169 305c-4,-27 43,-28 0,-59m681 202c62,-17 -22,-55 52,-75 35,-9 134,46 142,27 10,-21 36,-83 19,-95 -36,-28 -64,-68 -116,-68 17,-35 115,-54 101,-98 0,-1 116,-202 -3,-226 -23,-5 -19,-73 -51,-102 -27,-24 -235,131 -245,94 -4,-16 0,-65 48,-101 9,-6 -56,13 -93,18 -8,1 1,-30 -3,-31 -18,-3 -20,-5 -38,0"/>
   <path class="fil5 str3" d="M8694 5294c16,10 29,24 40,42 10,18 15,37 15,57l0 116c0,31 -11,59 -34,81 -23,23 -50,35 -82,35l-202 0c-20,0 -29,-10 -29,-29l0 -522c0,-19 9,-29 29,-29l173 0c33,0 60,12 82,34 23,23 34,50 34,82l0 58c0,13 -2,26 -6,39 -4,12 -11,24 -20,36zm-235 41l0 232 174 0c16,0 30,-5 41,-16 12,-11 17,-25 17,-42l0 -116c0,-16 -5,-30 -16,-41 -11,-11 -25,-17 -42,-17l-174 0zm145 -58c16,0 30,-5 42,-16 11,-11 16,-25 16,-42l0 -58c0,-16 -5,-30 -16,-41 -11,-11 -25,-17 -42,-17l-145 0 0 174 145 0zm666 319c0,9 -2,16 -8,22 -5,4 -12,7 -21,7 -7,0 -14,-3 -20,-8 -5,-4 -8,-12 -8,-21l0 -522c0,-7 3,-14 8,-21 6,-5 13,-8 20,-8 8,0 14,3 21,8 5,4 8,12 8,21l0 522zm-348 -261l0 232 117 0c16,0 29,-5 41,-16 11,-11 17,-25 17,-42l0 -116c0,-16 -6,-30 -17,-41 -11,-11 -25,-17 -41,-17l-117 0zm0 -58l116 0c32,0 59,12 82,34 23,23 34,50 34,82l0 116c0,32 -11,59 -34,81 -22,23 -50,35 -82,35l-144 0c-20,0 -29,-10 -29,-29l0 -522c0,-7 3,-14 8,-21 6,-5 13,-8 20,-8 8,0 15,3 20,8 6,5 9,12 9,21l0 203zm811 319c0,9 -3,16 -9,22 -5,4 -12,7 -20,7 -8,0 -15,-3 -20,-8 -6,-5 -9,-12 -9,-21l0 -493 -232 0 0 493c0,9 -3,16 -8,22 -5,4 -12,7 -21,7 -7,0 -14,-3 -20,-8 -6,-4 -8,-12 -8,-21l0 -522c0,-19 9,-29 28,-29l290 0c19,0 29,10 29,29l0 522zm463 0c0,9 -3,16 -9,22 -5,4 -12,7 -20,7 -8,0 -15,-3 -20,-8 -6,-4 -9,-12 -9,-21l0 -410 -235 424c-3,6 -7,10 -13,14l-6 3c-2,1 -5,2 -9,3 -5,-1 -12,-3 -19,-9 -5,-6 -7,-14 -7,-25l0 -521c0,-8 2,-15 8,-22 6,-5 13,-7 20,-7 8,0 14,2 20,7 6,5 9,12 9,22l0 409 235 -423c3,-5 7,-9 12,-14 6,-4 11,-6 16,-6 6,0 12,3 18,10 6,5 9,13 9,24l0 521zm376 29l-145 0c-31,0 -58,-12 -81,-34 -23,-23 -34,-50 -34,-82l0 -348c0,-32 11,-59 33,-82 23,-22 50,-34 82,-34l145 0c8,0 15,3 21,9 5,6 8,13 8,20 0,7 -2,13 -7,20 -5,6 -12,9 -22,9l-145 0c-16,0 -30,6 -41,17 -6,5 -10,11 -13,18 -2,8 -4,15 -4,23l0 348c0,16 6,30 17,42 6,4 12,9 18,12 9,3 16,4 23,4l145 0c8,0 15,3 21,9 5,6 8,12 8,20 0,6 -2,13 -7,19 -5,6 -12,10 -22,10zm202 -330l244 -242c6,-5 13,-8 20,-8 7,0 14,3 20,9 6,6 10,13 10,21 0,5 -3,12 -9,20l-173 172 178 314 4 16c0,7 -3,13 -9,19 -6,6 -13,9 -21,9 -10,0 -18,-5 -25,-16l-170 -301 -69 67 0 221c0,9 -2,16 -8,22 -5,4 -12,7 -21,7 -7,0 -14,-3 -20,-8 -6,-5 -8,-12 -8,-21l0 -522c0,-8 3,-14 9,-20 5,-6 12,-9 19,-9 8,0 15,3 21,7 5,5 8,12 8,22l0 221zm507 185l-42 125c-2,6 -5,11 -10,15 -4,2 -9,4 -16,5 -8,0 -14,-3 -20,-9 -7,-5 -10,-11 -10,-19l2 -11 174 -521c6,-16 15,-25 28,-25 12,0 21,9 27,25l173 521 2 11c0,7 -3,14 -9,20 -6,5 -13,8 -20,8 -4,0 -9,-1 -14,-3 -4,-2 -9,-8 -13,-17l-42 -125 -210 0zm191 -59l-85 -255 -86 255 171 0zm-3200 1101c0,9 -3,16 -9,22 -5,5 -12,7 -20,7 -8,0 -15,-2 -20,-7 -6,-5 -9,-12 -9,-22l0 -409 -235 423c-3,6 -8,11 -13,14l-6 4c-2,1 -5,1 -9,2 -6,0 -12,-3 -19,-9 -5,-6 -8,-14 -8,-25l0 -521c0,-8 3,-15 9,-21 6,-5 13,-8 20,-8 8,0 14,3 20,7 6,5 9,12 9,22l0 409 235 -423c3,-4 7,-9 12,-14 6,-4 11,-6 16,-6 6,0 12,4 18,10 6,6 9,14 9,24l0 521zm290 -261l-87 0c-9,0 -16,-2 -22,-8 -5,-6 -7,-12 -7,-20 0,-7 2,-14 7,-20 6,-6 13,-9 22,-9l87 0c15,0 29,-6 40,-16 12,-11 17,-25 17,-42l0 -58c0,-17 -5,-30 -16,-42 -11,-11 -25,-17 -41,-17l-58 0c-13,0 -24,4 -34,11 -10,7 -17,17 -21,30 -1,5 -5,9 -10,13 -2,2 -4,4 -7,6l-10 1c-8,0 -15,-3 -21,-8 -6,-6 -9,-13 -9,-21l1 -10c8,-23 22,-42 42,-57 20,-15 43,-22 68,-22l58 0c33,0 60,11 82,34 23,22 34,50 34,82l0 58c0,16 -3,32 -10,48 -7,15 -17,28 -29,38 26,23 39,51 39,87l0 116c0,32 -11,59 -34,82 -22,23 -50,34 -82,34l-58 0c-24,0 -47,-7 -67,-22 -20,-14 -34,-33 -43,-58l-1 -10c0,-7 3,-14 9,-20 5,-6 13,-9 21,-9 12,0 20,7 26,20 4,11 11,22 21,31 12,7 23,10 35,10l58 0c15,0 29,-5 40,-16 12,-11 17,-25 17,-42l0 -116c0,-17 -4,-30 -13,-40 -10,-12 -25,-18 -44,-18zm635 0l174 0c16,0 30,-5 41,-16 12,-11 17,-24 17,-42l0 -116c0,-16 -5,-30 -16,-41 -11,-11 -25,-17 -42,-17l-174 0 0 232zm0 58l0 203c0,9 -2,16 -8,22 -5,5 -12,7 -20,7 -8,0 -15,-2 -21,-7 -5,-5 -8,-12 -8,-22l0 -521c0,-20 9,-29 29,-29l202 0c32,0 60,11 82,34 23,22 34,50 34,82l0 115c0,32 -11,59 -34,82 -23,23 -50,34 -82,34l-174 0zm463 -115l146 0c8,0 15,3 20,9 6,6 9,12 9,20 0,7 -2,13 -7,19 -5,6 -12,9 -22,9l-146 0 0 232 204 0c8,0 15,3 20,9 6,6 9,13 9,20 0,7 -2,14 -7,20 -5,6 -12,9 -22,9l-232 0c-20,0 -29,-9 -29,-27l0 -523c0,-20 9,-29 29,-29l232 0c8,0 15,3 20,9 6,6 9,12 9,20 0,7 -2,13 -7,19 -5,6 -12,9 -22,9l-204 0 0 175zm405 0l146 0c8,0 15,3 21,9 5,6 8,12 8,20 0,7 -2,13 -7,19 -5,6 -12,9 -22,9l-146 0 0 232 204 0c8,0 15,3 21,9 5,6 8,13 8,20 0,7 -2,14 -7,20 -5,6 -12,9 -22,9l-232 0c-19,0 -29,-9 -29,-27l0 -523c0,-20 10,-29 29,-29l232 0c8,0 15,3 21,9 5,6 8,12 8,20 0,7 -2,13 -7,19 -5,6 -12,9 -22,9l-204 0 0 175zm579 347l-144 0c-32,0 -59,-11 -82,-34 -23,-22 -34,-50 -34,-82l0 -347c0,-33 11,-60 33,-82 23,-23 50,-34 83,-34l144 0c8,0 15,3 21,9 6,6 8,12 8,20 0,6 -2,13 -7,19 -5,6 -12,9 -22,9l-145 0c-16,0 -30,6 -41,17 -6,6 -10,12 -13,19 -2,7 -4,14 -4,22l0 348c0,17 6,30 17,42 6,5 12,9 19,12 8,3 15,4 22,4l145 0c8,0 15,3 21,9 6,6 8,13 8,20 0,7 -2,13 -7,20 -5,6 -12,9 -22,9zm290 -522l-116 0c-9,0 -16,-2 -22,-7 -5,-7 -7,-14 -7,-21 0,-7 2,-13 7,-20 5,-6 12,-9 22,-9l289 0c8,0 15,3 20,9 6,6 9,12 9,20 0,6 -2,13 -7,19 -5,6 -12,9 -22,9l-116 0 0 493c0,9 -2,16 -8,22 -5,5 -12,7 -21,7 -7,0 -14,-2 -20,-7 -6,-5 -8,-12 -8,-22l0 -493zm375 232l174 0c16,0 30,-5 41,-16 12,-11 17,-24 17,-42l0 -116c0,-16 -5,-30 -16,-41 -11,-11 -25,-17 -42,-17l-174 0 0 232zm0 58l0 203c0,9 -2,16 -8,22 -5,5 -12,7 -20,7 -8,0 -15,-2 -21,-7 -5,-5 -8,-12 -8,-22l0 -521c0,-20 9,-29 29,-29l202 0c32,0 60,11 82,34 23,22 34,50 34,82l0 115c0,32 -11,59 -34,82 -23,23 -50,34 -82,34l-174 0zm450 87l-42 125c-2,6 -6,11 -11,15 -4,2 -9,4 -16,5 -7,0 -14,-3 -20,-8 -6,-5 -9,-12 -9,-20l2 -10 174 -521c6,-17 15,-25 27,-25 12,0 21,8 27,25l173 521 3 10c0,7 -4,14 -10,20 -6,5 -13,8 -20,8 -4,0 -8,-1 -13,-3 -5,-2 -10,-7 -14,-17l-41 -125 -210 0zm190 -59l-85 -255 -86 255 171 0z"/>
   <path class="fil5 str3" d="M7769 7733c0,8 -2,14 -7,19 -4,4 -10,6 -17,6 -7,0 -12,-2 -17,-6 -5,-4 -7,-11 -7,-19l0 -376 -56 56c-4,4 -10,7 -16,7 -6,0 -12,-3 -17,-7 -5,-5 -8,-11 -8,-18 0,-5 3,-11 8,-16l96 -97c3,-3 6,-6 10,-8 3,-2 7,-3 11,-3 4,0 9,3 14,7 4,5 6,12 6,21l0 434z"/>
   <g>
    <path class="fil3" d="M8176 7584c-37,0 -66,-31 -66,-70 0,-38 29,-69 66,-69l0 139zm4080 0l-4080 0 0 -139 4080 0 0 139zm0 -139c36,0 66,31 66,69 0,39 -30,70 -66,70l0 -139z"/>
   </g>
   <path class="fil5 str3" d="M7769 7733c0,8 -2,14 -7,19 -4,4 -10,6 -17,6 -7,0 -12,-2 -17,-6 -5,-4 -7,-11 -7,-19l0 -376 -56 56c-4,4 -10,7 -16,7 -6,0 -12,-3 -17,-7 -5,-5 -8,-11 -8,-18 0,-5 3,-11 8,-16l96 -97c3,-3 6,-6 10,-8 3,-2 7,-3 11,-3 4,0 9,3 14,7 4,5 6,12 6,21l0 434z"/>
   <g>
    <path class="fil3" d="M8176 8621c-37,0 -66,-31 -66,-70 0,-38 29,-69 66,-69l0 139zm4080 0l-4080 0 0 -139 4080 0 0 139zm0 -139c36,0 66,31 66,69 0,39 -30,70 -66,70l0 -139z"/>
   </g>
   <path class="fil5 str3" d="M7848 8498l-156 248 149 0c7,0 13,3 17,8 5,5 8,10 8,16 0,6 -2,11 -6,17 -5,5 -11,7 -19,7l-193 0c-17,0 -26,-6 -26,-19 0,-5 2,-11 6,-18l178 -284c6,-13 9,-25 9,-36 0,-21 -8,-39 -24,-54 -7,-7 -16,-13 -26,-17 -10,-4 -21,-6 -33,-6 -12,0 -24,3 -35,9 -11,8 -21,17 -28,28 -2,3 -5,6 -9,9l-11 2c-6,0 -12,-2 -17,-7 -5,-4 -8,-10 -8,-16 0,-4 1,-8 4,-14 11,-17 26,-31 45,-42 9,-6 19,-10 28,-13 9,-3 18,-4 28,-4 37,0 69,12 95,37 26,25 39,55 39,89 0,20 -5,40 -15,60z"/>
   <g>
    <path class="fil3" d="M8176 9520c-37,0 -66,-31 -66,-69 0,-39 29,-70 66,-70l0 139zm4080 0l-4080 0 0 -139 4080 0 0 139zm0 -139c36,0 66,31 66,70 0,38 -30,69 -66,69l0 -139z"/>
   </g>
   <path class="fil5 str3" d="M7743 9260l-97 0c-7,0 -13,-2 -18,-7 -4,-5 -6,-10 -6,-17 0,-6 2,-11 6,-16 5,-5 11,-8 18,-8l97 0c37,0 68,12 90,37 20,23 30,51 30,83 0,19 -3,37 -11,54 -8,16 -20,31 -35,44 13,10 24,24 33,41 9,17 13,35 13,54l0 48c0,33 -12,62 -35,85 -24,24 -52,36 -85,36l-97 0c-7,0 -13,-2 -18,-6 -4,-6 -6,-12 -6,-18 0,-5 2,-11 6,-16 4,-5 10,-8 18,-8l97 0c20,0 37,-7 51,-21 14,-14 21,-31 21,-52l0 -48c0,-20 -7,-37 -21,-51 -13,-14 -31,-21 -51,-21l-49 0c-7,0 -13,-2 -18,-7 -4,-5 -6,-11 -6,-17 0,-6 2,-11 6,-16 4,-6 10,-8 18,-8l49 0c21,0 39,-8 53,-23 11,-14 17,-31 17,-51 0,-20 -5,-36 -17,-49 -13,-14 -30,-22 -53,-22z"/>
   <g>
    <path class="fil3" d="M8176 10402c-37,0 -66,-31 -66,-69 0,-39 29,-70 66,-70l0 139zm4080 0l-4080 0 0 -139 4080 0 0 139zm0 -139c36,0 66,31 66,70 0,38 -30,69 -66,69l0 -139z"/>
   </g>
   <path class="fil5 str3" d="M7841 10432l49 0c6,0 12,3 17,7 4,5 7,11 7,17 0,6 -2,11 -6,16 -4,5 -10,8 -18,8l-49 0 0 72c0,8 -2,14 -6,18 -5,4 -10,6 -18,6 -6,0 -12,-2 -16,-6 -5,-4 -8,-10 -8,-18l0 -72 -145 0c-16,0 -25,-6 -25,-20l1 -5 1 -6 97 -338c1,-5 4,-9 8,-13l5 -3c2,-1 5,-2 9,-2 7,0 13,3 17,7 6,5 8,10 8,17l-1 7 -88 308 113 0 0 -73c0,-6 3,-12 8,-17 4,-5 10,-7 16,-7 7,0 12,2 17,6 5,4 7,10 7,18l0 73z"/>
  </g>
 </g>
</svg>
