<?xml version="1.0" encoding="UTF-8"?>
<!DOCTYPE svg PUBLIC "-//W3C//DTD SVG 1.0//EN" "http://www.w3.org/TR/2001/REC-SVG-20010904/DTD/svg10.dtd">
<!-- Creator: CorelDRAW X7 -->
<svg xmlns="http://www.w3.org/2000/svg" xml:space="preserve" width="200mm" height="200mm" version="1.0" style="shape-rendering:geometricPrecision; text-rendering:geometricPrecision; image-rendering:optimizeQuality; fill-rule:evenodd; clip-rule:evenodd"
viewBox="0 0 20000 20000"
 xmlns:xlink="http://www.w3.org/1999/xlink">
 <defs>
  <style type="text/css">
   <![CDATA[
    .str0 {stroke:#024541;stroke-width:159.99;stroke-linecap:round;stroke-linejoin:round}
    .str1 {stroke:#4D8A7D;stroke-width:120;stroke-linecap:round;stroke-linejoin:round}
    .fil3 {fill:none;fill-rule:nonzero}
    .fil1 {fill:#EBF2D9}
    .fil2 {fill:#CDDBAC}
    .fil4 {fill:#4D897C}
    .fil5 {fill:#4D897C;fill-rule:nonzero}
    .fil0 {fill:url(#id0)}
   ]]>
  </style>
  <radialGradient id="id0" gradientUnits="userSpaceOnUse" gradientTransform="matrix(1.41421 -0 -0 1.41421 -4140 -4141)" cx="9993.89" cy="9997.97" r="10000" fx="9993.89" fy="9997.97">
   <stop offset="0" style="stop-opacity:1; stop-color:#FEFEFE"/>
   <stop offset="0.439216" style="stop-opacity:1; stop-color:#FEFEFE"/>
   <stop offset="1" style="stop-opacity:1; stop-color:#D1E2F2"/>
  </radialGradient>
 </defs>
 <g id="Layer_x0020_1">
  <metadata id="CorelCorpID_0Corel-Layer"/>
  <g id="_623450217600">
   <path class="fil0" d="M-6 -2l20000 0 0 20000 -20000 0 0 -20000z"/>
   <g>
    <path class="fil1" d="M13156 5426l0 8990c-2244,0 -3748,0 -5993,0l0 -8990 5993 0z"/>
    <path class="fil2" d="M7297 5386l5854 0 0 3342 -5854 -2782c10,-287 0,-368 0,-560z"/>
    <path class="fil3 str0" d="M13184 5444l0 8990c-2245,0 -3749,0 -5993,0l0 -8990 5993 0z"/>
    <path class="fil4" d="M8378 7861l-81 -19c17,-67 67,-100 148,-100 49,0 85,11 110,32 24,21 37,46 37,75 0,19 -6,37 -17,53 -11,16 -28,30 -51,42 27,9 48,22 62,39 13,18 20,39 20,64 0,36 -13,65 -40,88 -26,22 -66,33 -119,33 -43,0 -77,-7 -101,-21 -25,-15 -44,-42 -57,-81l76 -25c8,25 19,41 32,48 13,8 29,11 48,11 26,0 45,-5 57,-17 12,-11 18,-24 18,-39 0,-17 -6,-30 -20,-41 -14,-10 -34,-15 -61,-15l-19 0 0 -62 9 0c26,0 45,-6 59,-17 13,-12 20,-27 20,-46 0,-15 -6,-28 -17,-38 -11,-10 -26,-15 -46,-15 -35,0 -57,17 -67,51zm692 300l-90 0 -35 -94 -165 0 -34 94 -89 0 160 -412 88 0 165 412zm-152 -163l-57 -153 -56 153 113 0zm462 163l0 -172 -17 0c-26,0 -44,4 -55,12 -11,7 -29,31 -56,70l-59 90 -99 0 50 -81c20,-31 35,-54 47,-66 12,-13 27,-25 44,-35 -38,-6 -66,-19 -83,-40 -17,-21 -25,-45 -25,-74 0,-25 6,-47 19,-67 13,-19 29,-32 50,-39 21,-6 52,-10 93,-10l175 0 0 412 -84 0zm0 -342l-65 0c-32,0 -54,1 -64,2 -11,2 -20,7 -27,15 -8,9 -11,20 -11,34 0,14 3,26 10,34 8,9 17,14 28,16 11,2 34,3 68,3l61 0 0 -104zm187 -70l165 0c33,0 57,2 73,4 16,3 30,9 43,17 12,9 23,20 31,35 9,14 13,30 13,48 0,19 -5,37 -15,53 -11,16 -25,28 -43,36 25,7 45,19 58,37 13,18 20,38 20,62 0,19 -4,37 -13,55 -9,18 -20,32 -36,42 -15,11 -33,17 -55,20 -14,1 -48,2 -100,3l-141 0 0 -412zm84 69l0 95 54 0c32,0 53,-1 60,-2 15,-2 26,-6 34,-15 8,-8 12,-18 12,-32 0,-12 -3,-23 -10,-30 -7,-8 -18,-13 -32,-15 -8,-1 -32,-1 -71,-1l-47 0zm0 163l0 110 77 0c30,0 49,-1 57,-2 12,-3 22,-8 30,-17 8,-9 12,-20 12,-35 0,-12 -3,-23 -9,-31 -6,-9 -15,-15 -26,-19 -12,-4 -36,-6 -74,-6l-67 0zm347 -232l288 0 0 412 -84 0 0 -342 -123 0 0 175c0,51 -2,86 -5,106 -3,20 -12,35 -25,46 -13,11 -33,17 -61,17 -9,0 -27,-1 -53,-3l0 -64 19 0c17,0 29,-2 35,-7 6,-5 9,-16 9,-34l0 -71 0 -235zm393 412l0 -412 305 0 0 70 -221 0 0 91 205 0 0 70 -205 0 0 111 229 0 0 70 -313 0zm404 0l0 -412 83 0 0 162 162 0 0 -162 83 0 0 412 -83 0 0 -180 -162 0 0 180 -83 0zm436 -412l77 0 0 274 167 -274 83 0 0 412 -78 0 0 -270 -166 270 -83 0 0 -412zm432 412l0 -412 304 0 0 70 -221 0 0 91 206 0 0 70 -206 0 0 111 229 0 0 70 -312 0z"/>
    <path class="fil4" d="M9177 5756l129 0c27,0 46,5 60,15 13,10 20,24 20,44 0,12 -4,23 -11,33 -8,9 -17,15 -28,18 16,4 27,11 35,21 7,11 11,22 11,34 0,18 -6,32 -19,43 -13,11 -32,16 -57,16l-140 0 0 -224zm59 94l38 0c18,0 32,-3 40,-7 8,-5 12,-12 12,-22 0,-10 -3,-17 -11,-21 -8,-4 -21,-6 -41,-6l-38 0 0 56zm0 92l47 0c16,0 29,-2 37,-6 7,-4 11,-11 11,-22 0,-11 -4,-18 -13,-22 -9,-5 -26,-7 -52,-7l-30 0 0 57zm296 -186l63 0 54 159 52 -159 61 0 -79 216 -14 39c-5,13 -10,22 -15,29 -4,7 -10,13 -16,17 -6,4 -14,8 -23,10 -8,2 -19,4 -30,4 -11,0 -22,-2 -33,-4l-6 -46c10,2 18,3 26,3 13,0 24,-4 30,-13 7,-8 12,-18 15,-30l-85 -225zm261 0l60 0 0 54c0,12 1,21 3,27 3,6 7,11 14,16 7,4 16,6 27,6 11,0 22,-2 36,-7l0 -96 59 0 0 224 -59 0 0 -89c-24,6 -41,9 -53,9 -18,0 -35,-4 -49,-12 -14,-7 -24,-17 -30,-30 -5,-12 -8,-28 -8,-48l0 -54zm301 69l-53 -9c6,-22 16,-38 31,-49 15,-10 37,-15 66,-15 26,0 46,3 59,9 12,6 22,14 27,24 5,9 8,27 8,53l-1 69c0,19 1,34 3,43 2,9 5,19 10,30l-58 0c-2,-4 -4,-10 -6,-17 -1,-4 -2,-6 -2,-7 -10,10 -21,17 -32,22 -12,5 -24,8 -37,8 -23,0 -41,-7 -54,-19 -14,-12 -20,-28 -20,-47 0,-13 3,-24 9,-34 6,-10 14,-18 25,-23 11,-5 27,-10 47,-14 28,-5 47,-10 58,-14l0 -6c0,-12 -3,-20 -9,-25 -5,-5 -16,-7 -32,-7 -10,0 -18,2 -24,6 -6,4 -11,12 -15,22zm80 48c-8,3 -20,6 -36,9 -17,4 -28,7 -33,11 -7,5 -11,12 -11,20 0,9 3,16 9,22 6,6 14,9 24,9 10,0 21,-4 30,-11 7,-5 12,-11 14,-19 2,-5 3,-15 3,-29l0 -12zm311 -50l-58 10c-2,-11 -7,-20 -14,-26 -7,-6 -16,-9 -27,-9 -15,0 -26,5 -35,16 -9,10 -13,27 -13,51 0,26 4,45 13,56 9,11 21,16 36,16 11,0 20,-3 27,-9 8,-7 13,-18 16,-33l58 10c-6,26 -18,47 -35,60 -17,14 -40,21 -69,21 -32,0 -58,-11 -78,-31 -19,-21 -29,-50 -29,-86 0,-37 10,-66 29,-86 20,-21 46,-31 79,-31 27,0 49,6 65,17 16,12 28,30 35,54zm18 -67l202 0 0 48 -72 0 0 176 -59 0 0 -176 -71 0 0 -48zm235 0l59 0 0 92c10,-1 17,-4 21,-9 4,-5 9,-16 15,-32 7,-22 15,-36 25,-43 9,-6 20,-9 35,-9 4,0 12,1 23,1l1 39c-16,0 -26,2 -30,5 -5,3 -9,12 -15,27 -6,21 -16,33 -29,38 18,5 34,22 47,49 1,1 2,3 2,4l33 62 -63 0 -30 -65c-6,-13 -11,-21 -15,-25 -5,-4 -11,-6 -20,-6l0 96 -59 0 0 -224zm199 110c0,-20 5,-39 14,-58 10,-18 24,-32 41,-42 18,-9 38,-14 60,-14 34,0 61,11 83,33 21,22 32,49 32,83 0,34 -11,62 -32,84 -22,23 -50,34 -83,34 -20,0 -40,-5 -58,-14 -19,-9 -33,-23 -43,-41 -9,-18 -14,-40 -14,-65zm60 3c0,22 6,39 16,51 11,12 24,17 39,17 16,0 28,-5 39,-17 10,-12 15,-29 15,-52 0,-22 -5,-38 -15,-50 -11,-12 -23,-18 -39,-18 -15,0 -28,6 -39,18 -10,12 -16,29 -16,51zm217 -113l130 0c26,0 46,5 59,15 13,10 20,24 20,44 0,12 -3,23 -11,33 -7,9 -16,15 -27,18 15,4 27,11 35,21 7,11 11,22 11,34 0,18 -7,32 -19,43 -13,11 -32,16 -57,16l-141 0 0 -224zm59 94l39 0c18,0 31,-3 40,-7 8,-5 12,-12 12,-22 0,-10 -4,-17 -11,-21 -8,-4 -22,-6 -41,-6l-39 0 0 56zm0 92l47 0c17,0 29,-2 37,-6 8,-4 12,-11 12,-22 0,-11 -5,-18 -14,-22 -8,-5 -26,-7 -51,-7l-31 0 0 57zm166 -186l63 0 54 159 52 -159 61 0 -78 216 -15 39c-5,13 -10,22 -15,29 -4,7 -10,13 -16,17 -6,4 -13,8 -22,10 -9,2 -19,4 -31,4 -11,0 -22,-2 -33,-4l-5 -46c9,2 17,3 25,3 14,0 24,-4 30,-13 7,-8 12,-18 16,-30l-86 -225zm268 0l59 0 0 91 47 0c3,-29 14,-52 33,-69 18,-18 43,-26 74,-26 32,0 57,10 77,30 21,21 31,50 31,88 0,23 -4,43 -12,59 -7,17 -19,31 -34,41 -16,11 -36,16 -61,16 -35,0 -62,-10 -80,-30 -17,-19 -27,-40 -28,-62l-47 0 0 86 -59 0 0 -224zm212 42c-16,0 -28,5 -36,16 -7,10 -11,27 -11,50 0,30 4,50 12,60 8,10 21,16 37,16 15,0 27,-6 34,-18 8,-11 12,-29 12,-52 0,-29 -4,-48 -13,-57 -8,-10 -20,-15 -35,-15zm-2745 440l57 0 0 140 91 -140 58 0 0 223 -57 0 0 -142 -92 142 -57 0 0 -223zm327 132l0 -38c10,0 18,-1 22,-2 5,-2 9,-5 13,-10 5,-5 7,-11 7,-18 0,-7 -3,-13 -8,-19 -5,-6 -13,-9 -23,-9 -8,0 -15,1 -21,5 -6,3 -12,11 -17,23l-50 -10c5,-20 16,-35 33,-44 16,-10 35,-15 56,-15 27,0 48,6 63,19 14,12 22,28 22,46 0,12 -3,22 -10,29 -6,8 -16,15 -30,22 16,4 29,11 37,20 8,9 12,21 12,34 0,18 -8,33 -24,45 -16,13 -40,19 -70,19 -53,0 -86,-21 -98,-62l54 -10c9,21 23,32 43,32 11,0 20,-3 27,-8 6,-6 10,-13 10,-21 0,-9 -4,-15 -11,-20 -7,-5 -16,-8 -27,-8l-10 0zm311 -224l40 0c-1,17 -5,31 -14,40 -8,9 -28,14 -59,14 -4,0 -8,0 -12,-1l-7 0c-19,0 -34,3 -46,7 -12,4 -22,12 -29,24 -8,12 -11,31 -12,58 9,-17 20,-29 34,-37 14,-8 30,-12 49,-12 30,0 55,11 75,34 20,23 31,49 31,79 0,32 -11,59 -33,81 -21,23 -49,34 -84,34 -23,0 -44,-6 -62,-17 -18,-11 -31,-27 -39,-47 -7,-19 -11,-52 -11,-98 0,-54 10,-92 29,-116 20,-23 55,-35 104,-35l30 0c8,0 14,-3 16,-8zm-119 205c0,21 6,37 16,49 10,12 22,18 37,18 16,0 29,-6 39,-19 10,-12 15,-28 15,-47 0,-20 -5,-36 -15,-48 -11,-13 -23,-19 -39,-19 -14,0 -27,6 -37,18 -10,12 -16,28 -16,48zm216 -113l57 0 0 140 91 -140 58 0 0 223 -57 0 0 -142 -92 142 -57 0 0 -223zm265 0l55 0 0 33c7,-12 17,-21 29,-28 12,-6 26,-10 40,-10 26,0 48,10 66,31 19,20 28,48 28,85 0,37 -10,66 -28,87 -18,21 -40,31 -66,31 -12,0 -24,-2 -34,-7 -10,-5 -20,-14 -31,-26l0 112 -59 0 0 -308zm58 108c0,25 5,44 15,56 10,12 22,18 36,18 14,0 25,-5 34,-17 9,-11 14,-29 14,-54 0,-23 -5,-41 -14,-52 -10,-12 -21,-17 -35,-17 -14,0 -26,5 -36,16 -10,12 -14,28 -14,50zm250 -39l-53 -10c6,-22 16,-38 31,-48 15,-11 37,-16 66,-16 26,0 46,3 59,9 13,7 22,15 27,24 5,10 8,27 8,53l-1 69c0,20 1,34 3,43 2,10 5,20 10,30l-58 0c-2,-3 -4,-9 -6,-17 -1,-3 -2,-6 -2,-7 -10,10 -21,18 -32,23 -12,5 -24,7 -37,7 -23,0 -41,-6 -54,-19 -13,-12 -20,-28 -20,-47 0,-13 3,-24 9,-34 6,-10 14,-17 25,-22 11,-6 27,-10 47,-14 28,-5 47,-10 58,-15l0 -6c0,-11 -3,-19 -9,-24 -5,-5 -16,-8 -32,-8 -10,0 -18,2 -24,7 -6,4 -11,11 -15,22zm80 48c-8,2 -20,5 -36,9 -17,3 -27,7 -32,10 -8,5 -12,12 -12,21 0,8 3,15 9,21 6,6 14,9 24,9 10,0 21,-3 30,-10 7,-6 12,-12 14,-20 2,-5 3,-15 3,-29l0 -11zm89 -117l202 0 0 48 -71 0 0 175 -59 0 0 -175 -72 0 0 -48zm367 153l59 10c-7,21 -19,38 -35,49 -17,11 -37,17 -62,17 -39,0 -67,-13 -86,-38 -15,-20 -22,-46 -22,-77 0,-37 10,-66 29,-87 19,-21 44,-32 73,-32 33,0 60,11 79,33 19,22 28,56 27,101l-147 0c0,18 5,31 14,41 9,10 20,15 34,15 9,0 17,-3 23,-8 6,-5 11,-13 14,-24zm4 -60c-1,-17 -5,-30 -13,-39 -9,-9 -19,-14 -31,-14 -13,0 -24,5 -32,14 -8,10 -12,23 -12,39l88 0zm123 -93l197 0 0 223 -59 0 0 -175 -80 0 0 100c0,26 -3,44 -9,54 -6,10 -12,17 -19,20 -7,4 -19,5 -35,5 -9,0 -22,-1 -37,-3l0 -44c1,0 4,0 10,1 6,0 11,0 14,0 8,0 13,-2 15,-8 2,-5 3,-20 3,-44l0 -129zm259 0l59 0 0 93 59 0c23,0 41,2 54,5 12,3 22,11 31,22 8,11 12,24 12,38 0,22 -7,38 -22,49 -15,11 -37,16 -67,16l-126 0 0 -223zm59 186l55 0c17,0 28,-3 33,-9 5,-5 7,-12 7,-20 0,-10 -4,-18 -12,-22 -9,-4 -23,-6 -45,-6l-38 0 0 57zm202 -186l59 0 0 82 85 0 0 -82 59 0 0 223 -59 0 0 -93 -85 0 0 93 -59 0 0 -223zm234 0l63 0 54 158 52 -158 61 0 -79 215 -14 39c-5,13 -10,23 -15,30 -5,6 -10,12 -16,16 -6,5 -14,8 -23,10 -9,3 -19,4 -30,4 -11,0 -23,-1 -34,-4l-5 -46c10,2 18,3 25,3 14,0 24,-4 31,-12 7,-8 12,-19 15,-31l-85 -224zm267 0l59 0 0 90 48 0c3,-28 14,-51 32,-69 19,-17 44,-26 75,-26 31,0 57,10 77,31 20,20 30,49 30,88 0,22 -4,42 -11,59 -8,17 -19,30 -34,41 -16,10 -36,15 -61,15 -36,0 -62,-10 -80,-29 -17,-20 -27,-41 -28,-63l-48 0 0 86 -59 0 0 -223zm213 41c-16,0 -28,5 -36,16 -8,11 -11,27 -11,51 0,29 4,49 12,59 8,11 20,16 37,16 15,0 26,-6 34,-18 8,-11 11,-29 11,-52 0,-28 -4,-47 -12,-57 -8,-10 -20,-15 -35,-15zm-3205 440l59 0 0 91c9,-1 16,-4 20,-9 4,-4 9,-15 15,-32 8,-22 16,-36 25,-42 9,-6 21,-9 35,-9 5,0 13,0 24,1l0 39c-16,0 -26,1 -30,4 -4,3 -9,13 -14,28 -7,20 -17,33 -30,38 19,5 35,21 48,49 0,1 1,3 2,4l33 62 -64 0 -29 -65c-6,-13 -11,-22 -16,-25 -4,-4 -11,-6 -19,-6l0 96 -59 0 0 -224zm198 109c0,-19 5,-38 15,-57 9,-18 23,-32 41,-42 18,-10 37,-15 59,-15 34,0 62,11 83,33 22,22 33,50 33,84 0,34 -11,62 -33,84 -22,22 -49,33 -82,33 -21,0 -40,-4 -59,-14 -18,-9 -33,-22 -42,-40 -10,-18 -15,-40 -15,-66zm61 3c0,23 5,40 16,51 10,12 23,18 39,18 15,0 28,-6 38,-18 11,-11 16,-29 16,-51 0,-22 -5,-39 -16,-51 -10,-11 -23,-17 -38,-17 -16,0 -29,6 -39,17 -11,12 -16,29 -16,51zm212 -112l74 0 55 156 56 -156 73 0 0 224 -50 0 0 -147 -55 147 -50 0 -52 -147 0 147 -51 0 0 -224zm316 0l56 0 0 141 91 -141 58 0 0 224 -56 0 0 -143 -93 143 -56 0 0 -224zm461 66l-58 11c-2,-12 -7,-20 -14,-26 -7,-6 -16,-9 -27,-9 -14,0 -26,5 -35,15 -9,10 -13,27 -13,51 0,27 4,46 13,57 9,11 21,16 36,16 11,0 20,-3 28,-10 7,-6 12,-17 15,-33l58 10c-6,27 -18,47 -35,61 -17,14 -40,20 -69,20 -32,0 -58,-10 -78,-31 -19,-20 -29,-49 -29,-85 0,-37 10,-66 29,-87 20,-20 46,-31 79,-31 28,0 49,6 65,18 16,12 28,30 35,53zm239 0l-58 11c-2,-12 -6,-20 -13,-26 -7,-6 -16,-9 -27,-9 -15,0 -27,5 -35,15 -9,10 -13,27 -13,51 0,27 4,46 13,57 9,11 21,16 36,16 11,0 20,-3 27,-10 7,-6 12,-17 15,-33l58 10c-6,27 -17,47 -34,61 -17,14 -40,20 -69,20 -33,0 -59,-10 -78,-31 -20,-20 -29,-49 -29,-85 0,-37 10,-66 29,-87 19,-20 46,-31 79,-31 27,0 49,6 65,18 16,12 27,30 34,53zm44 -66l56 0 0 141 91 -141 59 0 0 224 -57 0 0 -143 -93 143 -56 0 0 -224zm265 0l59 0 0 91 48 0c3,-29 14,-52 32,-69 19,-18 44,-27 75,-27 31,0 57,11 77,31 20,20 30,50 30,88 0,23 -3,42 -11,59 -7,17 -19,30 -34,41 -16,10 -36,15 -61,15 -36,0 -62,-9 -80,-29 -17,-19 -27,-40 -28,-62l-48 0 0 86 -59 0 0 -224zm213 41c-16,0 -28,6 -36,16 -7,11 -11,28 -11,51 0,29 4,49 12,60 8,10 20,15 37,15 15,0 26,-6 34,-17 8,-12 12,-29 12,-52 0,-29 -5,-48 -13,-58 -8,-10 -20,-15 -35,-15zm279 -126l61 0 121 204 0 -204 60 0 0 309 -64 0 -120 -198 0 198 -58 0 0 -309zm261 142c0,-27 8,-47 24,-63 15,-15 35,-23 59,-23 25,0 45,8 61,25 15,16 23,37 23,62 0,16 -3,30 -9,42 -7,12 -16,23 -27,31 -12,8 -27,12 -46,12 -26,0 -47,-8 -62,-25 -15,-17 -23,-37 -23,-61zm58 5c0,14 2,24 6,30 4,7 11,10 20,10 9,0 15,-4 20,-12 4,-8 7,-21 7,-37 0,-14 -2,-24 -7,-31 -4,-7 -10,-11 -18,-11 -9,0 -17,5 -21,13 -5,9 -7,21 -7,38zm-50 101l150 0 0 47 -150 0 0 -47z"/>
    <path class="fil4" d="M7906 8903l70 0 72 160 62 -160 64 0 -104 235c-11,25 -23,44 -35,58 -11,13 -26,20 -45,20 -19,0 -33,-2 -43,-4l0 -46c9,0 17,1 24,1 14,0 24,-3 31,-8 6,-6 12,-17 18,-35l-114 -221zm280 85l59 0 0 91c10,-1 17,-4 21,-9 4,-4 9,-15 15,-32 8,-22 16,-36 25,-42 9,-6 21,-9 35,-9 5,0 13,0 24,1l0 39c-16,0 -26,1 -30,4 -4,3 -9,13 -14,28 -7,20 -17,33 -30,38 19,5 34,21 47,49 1,1 2,3 3,4l33 62 -64 0 -29 -65c-6,-13 -12,-22 -16,-25 -4,-4 -11,-6 -20,-6l0 96 -59 0 0 -224zm262 69l-53 -9c6,-22 16,-38 31,-49 15,-10 37,-16 66,-16 26,0 46,3 59,10 13,6 22,14 27,24 5,9 8,27 8,52l-1 69c0,20 1,34 3,44 2,9 5,19 10,30l-58 0c-2,-4 -4,-10 -6,-17 -1,-4 -2,-6 -2,-7 -10,10 -21,17 -32,22 -12,5 -24,7 -37,7 -23,0 -41,-6 -54,-18 -13,-13 -20,-29 -20,-48 0,-12 3,-24 9,-33 6,-10 14,-18 25,-23 11,-5 27,-10 47,-14 28,-5 47,-10 58,-14l0 -6c0,-12 -3,-20 -9,-25 -5,-5 -16,-7 -32,-7 -10,0 -18,2 -24,6 -6,4 -11,12 -15,22zm80 48c-8,2 -20,5 -36,9 -17,3 -27,7 -32,10 -8,6 -12,13 -12,21 0,8 3,15 9,22 6,6 14,9 24,9 10,0 21,-4 30,-11 7,-5 12,-12 14,-20 2,-5 3,-14 3,-28l0 -12zm181 15l0 -38c11,0 18,-1 23,-2 4,-1 9,-5 13,-10 4,-5 6,-11 6,-17 0,-7 -3,-14 -8,-20 -5,-6 -12,-9 -23,-9 -7,0 -14,2 -21,5 -6,3 -11,11 -16,24l-50 -11c5,-20 15,-34 32,-44 16,-10 35,-15 56,-15 27,0 48,7 63,19 15,12 22,28 22,47 0,11 -3,21 -9,29 -7,7 -17,14 -31,21 17,5 29,11 37,20 9,10 13,21 13,35 0,17 -8,32 -25,45 -16,12 -39,18 -70,18 -53,0 -86,-20 -97,-62l53 -10c9,22 23,33 43,33 12,0 20,-3 27,-9 7,-6 10,-13 10,-21 0,-8 -3,-15 -10,-20 -7,-5 -16,-8 -28,-8l-10 0zm193 -63l-54 -9c6,-22 17,-38 32,-49 14,-10 36,-16 65,-16 26,0 46,3 59,10 13,6 22,14 27,24 6,9 8,27 8,52l-1 69c0,20 1,34 3,44 2,9 6,19 11,30l-59 0c-1,-4 -3,-10 -6,-17 -1,-4 -1,-6 -2,-7 -10,10 -20,17 -32,22 -11,5 -24,7 -37,7 -23,0 -41,-6 -54,-18 -13,-13 -20,-29 -20,-48 0,-12 3,-24 9,-33 6,-10 15,-18 26,-23 11,-5 26,-10 47,-14 27,-5 46,-10 57,-14l0 -6c0,-12 -3,-20 -8,-25 -6,-5 -17,-7 -32,-7 -11,0 -19,2 -25,6 -6,4 -11,12 -14,22zm79 48c-8,2 -19,5 -36,9 -16,3 -27,7 -32,10 -8,6 -12,13 -12,21 0,8 3,15 10,22 6,6 14,9 23,9 11,0 21,-4 31,-11 7,-5 12,-12 14,-20 1,-5 2,-14 2,-28l0 -12zm90 -117l202 0 0 48 -72 0 0 176 -59 0 0 -176 -71 0 0 -48zm239 0l59 0 0 93 59 0c23,0 41,2 54,5 12,4 22,11 31,22 8,11 12,24 12,39 0,21 -7,38 -22,48 -15,11 -37,17 -67,17l-126 0 0 -224zm59 186l55 0c17,0 28,-3 33,-8 5,-6 7,-13 7,-20 0,-11 -4,-18 -12,-23 -9,-4 -23,-6 -45,-6l-38 0 0 57zm321 -186l199 0 0 224 -59 0 0 -176 -81 0 0 176 -59 0 0 -224zm261 0l56 0 0 33c7,-11 16,-20 29,-27 12,-7 25,-11 40,-11 26,0 48,11 66,31 18,20 27,49 27,85 0,37 -9,67 -27,87 -18,21 -40,31 -66,31 -13,0 -24,-2 -34,-7 -10,-5 -20,-13 -32,-25l0 112 -59 0 0 -309zm59 108c0,26 5,44 15,56 9,12 22,18 36,18 14,0 25,-5 34,-16 9,-11 14,-29 14,-55 0,-23 -5,-41 -14,-52 -10,-11 -21,-17 -35,-17 -15,0 -27,6 -36,17 -10,11 -14,28 -14,49zm205 -108l56 0 0 141 91 -141 59 0 0 224 -57 0 0 -143 -93 143 -56 0 0 -224zm259 0l60 0 0 54c0,12 1,21 3,27 3,6 7,11 14,15 7,5 16,7 27,7 11,0 22,-3 35,-8l0 -95 59 0 0 224 -59 0 0 -90c-23,7 -40,10 -52,10 -18,0 -35,-4 -49,-12 -14,-8 -24,-18 -30,-30 -5,-12 -8,-28 -8,-48l0 -54zm256 0l56 0 0 141 91 -141 58 0 0 224 -56 0 0 -143 -93 143 -56 0 0 -224zm263 0l60 0 0 82 85 0 0 -82 59 0 0 224 -59 0 0 -94 -85 0 0 94 -60 0 0 -224zm235 0l63 0 53 159 53 -159 61 0 -79 215 -14 39c-5,13 -10,23 -15,30 -5,7 -10,12 -16,17 -6,4 -14,7 -23,10 -9,2 -19,3 -30,3 -12,0 -23,-1 -34,-3l-5 -46c9,1 18,2 25,2 14,0 24,-4 31,-12 6,-8 12,-18 15,-31l-85 -224z"/>
    <g>
     <path class="fil5" d="M8456 9822c-36,0 -65,-32 -65,-72 0,-39 29,-71 65,-71l0 143zm4011 0l-4011 0 0 -143 4011 0 0 143zm0 -143c36,0 65,32 65,71 0,40 -29,72 -65,72l0 -143zm-4657 552c-36,0 -66,-32 -66,-72 0,-39 30,-71 66,-71l0 143zm4501 0l-4501 0 0 -143 4501 0 0 143zm0 -143c36,0 65,32 65,71 0,40 -29,72 -65,72l0 -143zm-4512 552c-36,0 -65,-32 -65,-71 0,-40 29,-72 65,-72l0 143zm4668 0l-4668 0 0 -143 4668 0 0 143zm0 -143c36,0 65,32 65,72 0,39 -29,71 -65,71l0 -143z"/>
    </g>
    <g>
     <path class="fil5" d="M8402 11186c-36,0 -65,-32 -65,-71 0,-40 29,-72 65,-72l0 143zm4011 0l-4011 0 0 -143 4011 0 0 143zm0 -143c36,0 65,32 65,72 0,39 -29,71 -65,71l0 -143zm-4657 552c-36,0 -66,-32 -66,-71 0,-40 30,-72 66,-72l0 143zm4501 0l-4501 0 0 -143 4501 0 0 143zm0 -143c36,0 66,32 66,72 0,39 -30,71 -66,71l0 -143zm-4512 552c-36,0 -65,-32 -65,-71 0,-40 29,-72 65,-72l0 143zm4668 0l-4668 0 0 -143 4668 0 0 143zm0 -143c36,0 65,32 65,72 0,39 -29,71 -65,71l0 -143z"/>
    </g>
    <path class="fil4" d="M8119 13533l-68 0 -26 -70 -124 0 -26 70 -66 0 120 -308 66 0 124 308zm-115 -122l-42 -114 -42 114 84 0zm332 122l-169 0 0 59 -48 0 0 -107 24 0c10,-11 18,-29 25,-53 7,-24 11,-65 12,-123l180 0 0 176 24 0 0 107 -48 0 0 -59zm-34 -48l0 -127 -72 0c-2,62 -12,104 -29,127l101 0zm121 -176l55 0 0 33c7,-11 17,-20 29,-27 13,-7 26,-10 41,-10 26,0 48,10 66,30 18,21 27,49 27,85 0,38 -9,67 -27,88 -18,20 -41,31 -67,31 -12,0 -23,-3 -33,-8 -10,-5 -21,-13 -32,-25l0 112 -59 0 0 -309zm58 109c0,25 5,44 15,56 10,12 22,18 37,18 13,0 25,-6 34,-17 9,-11 13,-29 13,-54 0,-24 -4,-41 -14,-53 -9,-11 -21,-17 -34,-17 -15,0 -27,6 -36,17 -10,11 -15,28 -15,50zm336 44l59 10c-7,22 -19,38 -36,50 -16,11 -36,17 -61,17 -39,0 -67,-13 -86,-38 -15,-21 -22,-47 -22,-78 0,-37 10,-66 29,-87 19,-21 44,-31 73,-31 33,0 60,11 79,33 19,22 28,55 27,101l-147 0c0,17 5,31 14,41 9,9 20,14 34,14 9,0 17,-2 23,-7 6,-5 11,-13 14,-25zm4 -59c-1,-18 -5,-31 -13,-40 -9,-9 -19,-13 -31,-13 -13,0 -24,5 -32,14 -8,10 -13,22 -12,39l88 0zm296 -27l-58 10c-2,-11 -7,-20 -14,-26 -7,-6 -16,-9 -27,-9 -15,0 -26,5 -35,16 -9,10 -13,27 -13,51 0,26 4,45 13,56 9,11 21,16 36,16 11,0 20,-3 27,-9 8,-7 13,-18 16,-33l58 10c-6,26 -18,47 -35,60 -17,14 -40,21 -69,21 -32,0 -58,-11 -78,-31 -19,-21 -29,-50 -29,-86 0,-37 10,-66 29,-86 20,-21 46,-31 79,-31 27,0 49,6 65,17 16,12 28,30 35,54zm162 -67l198 0 0 224 -59 0 0 -176 -80 0 0 176 -59 0 0 -224zm261 0l55 0 0 33c7,-11 17,-20 29,-27 12,-7 26,-10 41,-10 26,0 48,10 66,30 18,21 27,49 27,85 0,38 -9,67 -28,88 -18,20 -40,31 -66,31 -12,0 -23,-3 -33,-8 -10,-5 -21,-13 -32,-25l0 112 -59 0 0 -309zm58 109c0,25 5,44 15,56 10,12 22,18 36,18 14,0 25,-6 34,-17 10,-11 14,-29 14,-54 0,-24 -5,-41 -14,-53 -9,-11 -21,-17 -35,-17 -14,0 -26,6 -36,17 -9,11 -14,28 -14,50zm193 1c0,-20 5,-39 14,-58 10,-18 24,-32 42,-42 17,-9 37,-14 59,-14 34,0 61,11 83,33 22,22 32,49 32,83 0,34 -10,62 -32,84 -22,23 -50,34 -83,34 -20,0 -40,-5 -58,-14 -19,-10 -33,-23 -43,-41 -9,-18 -14,-40 -14,-65zm61 3c0,22 5,39 15,51 11,12 24,17 39,17 16,0 29,-5 39,-17 10,-12 16,-29 16,-52 0,-22 -6,-39 -16,-50 -10,-12 -23,-18 -39,-18 -15,0 -28,6 -39,18 -10,11 -15,29 -15,51zm303 111l0 -95c-8,0 -13,2 -16,5 -3,3 -9,11 -16,26l-28 64 -64 0 32 -62c16,-30 32,-48 50,-52 -13,-5 -23,-18 -30,-39 -5,-15 -10,-24 -14,-27 -4,-3 -14,-5 -30,-5l0 -39c12,0 20,-1 24,-1 13,0 24,3 34,9 9,6 18,20 26,43 6,18 11,29 15,34 4,4 9,7 17,7l0 -92 59 0 0 92c7,0 13,-2 17,-7 4,-5 9,-16 15,-34 8,-23 16,-37 26,-43 9,-6 20,-9 34,-9 4,0 12,1 24,1l0 39c-16,0 -26,2 -30,5 -4,3 -9,12 -14,27 -7,21 -17,34 -30,39 17,4 34,22 50,52l32 62 -64 0 -28 -64c-5,-12 -10,-20 -14,-24 -4,-4 -10,-7 -18,-7l0 95 -59 0zm211 -224l57 0 0 141 91 -141 58 0 0 224 -57 0 0 -142 -92 142 -57 0 0 -224zm267 0l129 0c27,0 47,5 60,15 13,10 20,24 20,44 0,12 -4,23 -11,33 -7,9 -16,15 -27,18 15,4 27,11 34,21 8,11 12,22 12,34 0,18 -7,32 -20,43 -12,11 -31,16 -56,16l-141 0 0 -224zm59 94l38 0c19,0 32,-3 40,-7 9,-5 13,-12 13,-22 0,-10 -4,-17 -12,-21 -7,-4 -21,-6 -41,-6l-38 0 0 56zm0 92l47 0c17,0 29,-2 37,-6 8,-4 12,-11 12,-22 0,-11 -5,-18 -14,-22 -9,-5 -26,-7 -52,-7l-30 0 0 57zm244 -117l-54 -9c6,-22 17,-38 31,-49 15,-10 37,-15 66,-15 26,0 46,3 59,9 13,6 22,14 27,24 5,9 8,27 8,53l-1 69c0,19 1,34 3,43 2,9 5,19 11,30l-59 0c-2,-4 -4,-10 -6,-17 -1,-4 -1,-6 -2,-7 -10,10 -21,17 -32,22 -12,5 -24,8 -37,8 -23,0 -41,-7 -54,-19 -13,-12 -20,-28 -20,-47 0,-13 3,-24 9,-34 6,-10 15,-18 26,-23 10,-5 26,-10 47,-14 27,-5 46,-10 57,-14l0 -6c0,-12 -3,-20 -9,-25 -5,-5 -16,-7 -31,-7 -11,0 -19,2 -25,6 -6,4 -11,12 -14,22zm79 48c-8,3 -20,6 -36,9 -16,4 -27,7 -32,11 -8,5 -12,12 -12,20 0,9 3,16 9,22 7,6 14,9 24,9 11,0 21,-4 31,-11 7,-5 11,-11 14,-19 1,-5 2,-15 2,-29l0 -12zm114 -117l59 0 0 82 85 0 0 -82 59 0 0 224 -59 0 0 -94 -85 0 0 94 -59 0 0 -224zm261 0l57 0 0 141 91 -141 58 0 0 224 -57 0 0 -142 -92 142 -57 0 0 -224zm458 0l0 224 -59 0 0 -93 -5 0c-13,0 -23,2 -29,5 -6,4 -12,11 -20,21l-3 5 -39 62 -69 0 42 -65c12,-18 23,-29 33,-32 -16,-1 -30,-7 -40,-18 -10,-12 -16,-27 -16,-45 0,-14 4,-27 11,-37 6,-10 16,-17 27,-21 11,-4 28,-6 50,-6l117 0zm-59 38l-42 0c-16,0 -27,3 -33,7 -7,5 -10,12 -10,22 0,10 4,18 11,22 7,5 19,7 35,7l39 0 0 -58z"/>
    <path class="fil4" d="M7926 12511l212 0 0 256 28 0 0 119 -53 0 0 -67 -193 0 0 67 -52 0 0 -119 26 0c13,-26 21,-57 26,-92 4,-34 6,-78 6,-132l0 -32zm59 52c0,93 -9,161 -26,204l117 0 0 -204 -91 0zm266 102l-53 -10c6,-22 16,-38 31,-48 15,-11 36,-16 65,-16 27,0 46,3 59,9 13,7 22,14 28,24 5,10 8,27 8,53l-1 69c0,20 1,34 2,43 2,10 6,20 11,30l-59 0c-1,-4 -3,-9 -5,-17 -1,-3 -2,-6 -2,-7 -10,10 -21,17 -33,22 -11,5 -23,8 -36,8 -23,0 -41,-6 -55,-19 -13,-12 -19,-28 -19,-47 0,-13 3,-24 9,-34 6,-10 14,-17 25,-23 11,-5 27,-9 47,-13 28,-6 47,-10 57,-15l0 -6c0,-11 -2,-20 -8,-24 -6,-5 -16,-8 -32,-8 -10,0 -19,2 -25,6 -6,5 -10,12 -14,23zm79 47c-7,3 -19,6 -36,9 -16,4 -27,7 -32,11 -7,5 -11,12 -11,21 0,8 3,15 9,21 6,6 14,9 23,9 11,0 21,-3 31,-10 7,-6 12,-12 14,-20 2,-5 2,-15 2,-29l0 -12zm90 -116l202 0 0 48 -71 0 0 175 -59 0 0 -175 -72 0 0 -48zm282 69l-54 -10c6,-22 17,-38 31,-48 15,-11 37,-16 66,-16 26,0 46,3 59,9 13,7 22,14 27,24 5,10 8,27 8,53l-1 69c0,20 1,34 3,43 2,10 5,20 11,30l-59 0c-2,-4 -3,-9 -6,-17 -1,-3 -1,-6 -2,-7 -10,10 -21,17 -32,22 -12,5 -24,8 -37,8 -23,0 -41,-6 -54,-19 -13,-12 -20,-28 -20,-47 0,-13 3,-24 9,-34 6,-10 15,-17 26,-23 10,-5 26,-9 47,-13 27,-6 46,-10 57,-15l0 -6c0,-11 -3,-20 -8,-24 -6,-5 -17,-8 -32,-8 -11,0 -19,2 -25,6 -6,5 -11,12 -14,23zm79 47c-8,3 -20,6 -36,9 -16,4 -27,7 -32,11 -8,5 -12,12 -12,21 0,8 3,15 9,21 7,6 14,9 24,9 11,0 21,-3 31,-10 7,-6 11,-12 14,-20 1,-5 2,-15 2,-29l0 -12zm835 -116l130 0c26,0 46,4 59,14 13,10 20,25 20,44 0,13 -4,23 -11,33 -7,9 -16,15 -27,18 15,4 27,11 34,22 8,10 12,21 12,34 0,17 -7,31 -19,42 -13,11 -32,16 -57,16l-141 0 0 -223zm59 93l38 0c19,0 32,-3 40,-7 9,-5 13,-12 13,-22 0,-10 -4,-16 -12,-20 -7,-4 -21,-6 -41,-6l-38 0 0 55zm0 92l47 0c17,0 29,-2 37,-6 8,-4 12,-11 12,-22 0,-11 -5,-18 -14,-22 -9,-4 -26,-6 -52,-6l-30 0 0 56zm204 -185l55 0 0 32c7,-11 17,-20 29,-27 12,-7 26,-10 40,-10 26,0 48,10 66,31 19,20 28,48 28,85 0,37 -9,66 -28,87 -18,21 -40,31 -66,31 -12,0 -24,-3 -34,-8 -10,-4 -20,-13 -31,-25l0 112 -59 0 0 -308zm58 108c0,25 5,44 15,56 10,12 22,18 36,18 14,0 25,-6 34,-17 9,-11 14,-29 14,-54 0,-24 -5,-41 -14,-52 -10,-12 -21,-18 -35,-18 -14,0 -26,6 -36,17 -9,11 -14,28 -14,50zm336 45l59 10c-8,21 -20,38 -36,49 -16,11 -37,17 -61,17 -39,0 -68,-13 -87,-38 -14,-21 -22,-46 -22,-77 0,-37 10,-67 29,-88 20,-21 44,-31 74,-31 33,0 59,11 78,33 19,22 29,56 28,101l-148 0c0,17 5,31 14,41 9,10 21,15 34,15 9,0 17,-3 23,-8 7,-5 12,-13 15,-24zm3 -60c0,-17 -5,-30 -13,-39 -8,-9 -19,-14 -31,-14 -13,0 -23,5 -32,14 -8,10 -12,23 -12,39l88 0zm103 -93l74 0 55 155 56 -155 73 0 0 223 -51 0 0 -147 -54 147 -50 0 -52 -147 0 147 -51 0 0 -223zm509 0l0 223 -59 0 0 -92 -6 0c-12,0 -22,1 -28,5 -6,3 -12,10 -20,21l-3 4 -39 62 -69 0 42 -64c12,-19 23,-30 33,-32 -17,-1 -30,-8 -40,-19 -11,-12 -16,-27 -16,-45 0,-14 4,-26 10,-37 7,-10 16,-17 28,-21 11,-3 28,-5 50,-5l117 0zm-59 38l-43 0c-15,0 -26,2 -33,6 -6,5 -9,12 -9,22 0,11 4,18 11,23 7,4 19,6 35,6l39 0 0 -57z"/>
    <path class="fil3 str1" d="M11948 12052c-498,1734 -157,751 -389,597 -232,-154 842,-744 772,-270 -70,474 -842,360 -821,459 21,100 323,169 414,-84 91,-252 -42,197 196,120 239,-78 337,-303 298,-176 -38,126 28,105 155,28 126,-78 270,-158 270,-158"/>
   </g>
  </g>
 </g>
</svg>
