<?xml version="1.0" encoding="UTF-8"?>
<!DOCTYPE svg PUBLIC "-//W3C//DTD SVG 1.0//EN" "http://www.w3.org/TR/2001/REC-SVG-20010904/DTD/svg10.dtd">
<!-- Creator: CorelDRAW X7 -->
<svg xmlns="http://www.w3.org/2000/svg" xml:space="preserve" width="200mm" height="200mm" version="1.0" style="shape-rendering:geometricPrecision; text-rendering:geometricPrecision; image-rendering:optimizeQuality; fill-rule:evenodd; clip-rule:evenodd"
viewBox="0 0 20000 20000"
 xmlns:xlink="http://www.w3.org/1999/xlink">
 <defs>
  <style type="text/css">
   <![CDATA[
    .str14 {stroke:#D0758A;stroke-width:50}
    .str13 {stroke:#024541;stroke-width:155.02;stroke-linecap:round;stroke-linejoin:round}
    .str8 {stroke:#CC7588;stroke-width:150;stroke-linecap:round;stroke-linejoin:round}
    .str0 {stroke:#024541;stroke-width:87;stroke-linecap:round;stroke-linejoin:round}
    .str1 {stroke:#024541;stroke-width:115.6;stroke-linecap:round;stroke-linejoin:round}
    .str5 {stroke:#CC7588;stroke-width:136.31;stroke-linecap:round;stroke-linejoin:round}
    .str7 {stroke:#CC7588;stroke-width:118.5;stroke-linecap:round;stroke-linejoin:round}
    .str3 {stroke:#024541;stroke-width:118.5;stroke-linecap:round;stroke-linejoin:round}
    .str12 {stroke:#CC7588;stroke-width:118.5;stroke-linecap:round;stroke-linejoin:round}
    .str6 {stroke:#CC7588;stroke-width:118.5;stroke-linecap:round;stroke-linejoin:round}
    .str2 {stroke:#024541;stroke-width:118.5;stroke-linecap:round;stroke-linejoin:round}
    .str10 {stroke:#CC7588;stroke-width:118.5;stroke-linecap:round;stroke-linejoin:round}
    .str11 {stroke:#B9687A;stroke-width:118.5;stroke-linecap:round;stroke-linejoin:round}
    .str9 {stroke:#B9687A;stroke-width:118.5;stroke-linecap:round;stroke-linejoin:round}
    .str4 {stroke:#024541;stroke-width:93.79;stroke-linecap:round;stroke-linejoin:round}
    .fil5 {fill:none}
    .fil4 {fill:#FEFEFE}
    .fil11 {fill:#F9CCC3}
    .fil58 {fill:#CC7588}
    .fil2 {fill:#A75F4A}
    .fil7 {fill:#CC6F3C}
    .fil33 {fill:#F2F2F1}
    .fil30 {fill:#EBECEC}
    .fil51 {fill:#EBEAEA}
    .fil37 {fill:#E1B691}
    .fil34 {fill:#E5E6E6}
    .fil14 {fill:#E4F2F4}
    .fil55 {fill:#E1EAE9}
    .fil46 {fill:#D5AC89}
    .fil40 {fill:#D5A982}
    .fil42 {fill:#CCA47D}
    .fil12 {fill:#B9687A}
    .fil47 {fill:#D0D9D8}
    .fil15 {fill:#CEE2E3}
    .fil41 {fill:#B9906F}
    .fil54 {fill:#C4CDCD}
    .fil48 {fill:#C4CCCB}
    .fil52 {fill:#C2C9C8}
    .fil1 {fill:#B7B0A7}
    .fil53 {fill:#B8BEBD}
    .fil13 {fill:#B8D0D5}
    .fil36 {fill:#AFB6B5}
    .fil19 {fill:#B2AFAF}
    .fil17 {fill:#AFC3C0}
    .fil31 {fill:#98754B}
    .fil45 {fill:#695345}
    .fil24 {fill:#9DADAB}
    .fil20 {fill:#979594}
    .fil43 {fill:#8DC297}
    .fil28 {fill:#888583}
    .fil23 {fill:#8A9EA1}
    .fil35 {fill:#6F7070}
    .fil26 {fill:#849491}
    .fil44 {fill:#7EB386}
    .fil29 {fill:#757171}
    .fil56 {fill:#709393}
    .fil16 {fill:#6E6C6B}
    .fil38 {fill:#70AE7B}
    .fil32 {fill:#6B823F}
    .fil21 {fill:#60AAA6}
    .fil25 {fill:#5A5654}
    .fil18 {fill:#514D4C}
    .fil27 {fill:#433F3E}
    .fil39 {fill:#4A7153}
    .fil22 {fill:#43827C}
    .fil49 {fill:#159799}
    .fil50 {fill:#148484}
    .fil8 {fill:#024541}
    .fil9 {fill:#00315E}
    .fil6 {fill:#FFCA9C}
    .fil57 {fill:#B8C8BA;fill-rule:nonzero}
    .fil10 {fill:#4D897C;fill-rule:nonzero}
    .fil3 {fill:#024541;fill-rule:nonzero}
    .fil0 {fill:url(#id0)}
   ]]>
  </style>
  <radialGradient id="id0" gradientUnits="userSpaceOnUse" gradientTransform="matrix(1.41421 -0 -0 1.41421 -4145 -4146)" cx="10006" cy="10009.2" r="10000" fx="10006" fy="10009.2">
   <stop offset="0" style="stop-opacity:1; stop-color:#FEFEFE"/>
   <stop offset="0.439216" style="stop-opacity:1; stop-color:#FEFEFE"/>
   <stop offset="1" style="stop-opacity:1; stop-color:#D1E2F2"/>
  </radialGradient>
 </defs>
 <g id="Layer_x0020_1">
  <metadata id="CorelCorpID_0Corel-Layer"/>
  <g id="_623352208272">
   <path class="fil0" d="M6 9l20000 0 0 20000 -20000 0 0 -20000z"/>
   <g>
    <path class="fil1 str0" d="M11544 5138l0 614c0,255 -205,458 -454,458l-937 0 0 1061 0 0 -2154 0 0 -1219c0,-255 204,-463 454,-463l365 0 499 1192 499 -1192 265 0 242 0c108,0 179,49 236,122 76,94 402,-82 402,62l0 -635 583 0z"/>
    <path class="fil1 str1" d="M9317 6876l-343 -350 0 -234 -282 -210 61 -493 65 0 499 1192 499 -1192 65 0 61 493 -282 210 0 234 -343 350z"/>
    <path class="fil2 str2" d="M9465 6427l-148 354 -151 -361 71 -489 80 0 80 0 68 496z"/>
    <g>
     <path class="fil2" d="M9473 5719l-313 0 77 212 80 0 80 0 76 -212z"/>
     <path id="1" class="fil3" d="M9160 5660l313 0 0 117 -313 0 -56 -39 56 -78zm0 117c-32,0 -59,-26 -59,-58 0,-33 27,-59 59,-59l0 117zm21 174l-77 -213 112 -39 77 212 -56 79 -56 -39zm112 -40c11,31 -5,64 -36,75 -31,11 -65,-5 -76,-35l112 -40zm24 79l-80 0 0 -118 80 0 0 0 0 118zm0 -118c33,0 59,27 59,59 0,32 -26,59 -59,59l0 -118zm80 118l-80 0 0 -118 80 0 56 79 -56 39zm0 -118c32,0 59,27 59,59 0,32 -27,59 -59,59l0 -118zm132 -134l-76 213 -112 -40 76 -212 56 -39 56 78zm-112 -39c11,-31 45,-47 76,-36 31,11 47,45 36,75l-112 -39z"/>
    </g>
    <path class="fil4 str2" d="M8818 5589l300 370 85 -121 -43 -119 -229 -303 -113 173z"/>
    <path class="fil5 str1" d="M8502 6560l0 711"/>
    <path class="fil5 str1" d="M9317 6781l0 490"/>
    <path class="fil6 str3" d="M9317 5389c171,1 772,-242 772,-644l0 -461c-103,-243 -32,-396 -157,-532 -123,53 -255,48 -394,4 -135,295 -644,166 -836,-4 -126,136 -55,289 -157,532l0 461c0,402 601,645 772,644z"/>
    <path class="fil6 str3" d="M9473 5719l104 -138 0 -262c-108,46 -206,71 -260,70 -55,1 -153,-24 -261,-70l0 262 104 138 313 0z"/>
    <path class="fil4 str2" d="M9816 5589l-301 370 -85 -121 43 -119 229 -303 114 173z"/>
    <path class="fil7 str3" d="M9317 3074c-44,-8 -90,-13 -136,-13l0 0c-420,0 -763,344 -763,764l0 513c31,-33 76,-54 127,-54 102,-243 31,-396 157,-532 187,163 701,299 836,4 139,44 271,49 394,-4 125,136 54,289 157,532 50,0 96,21 127,54l0 -513c0,-420 -343,-764 -763,-764l0 0c-47,0 -92,5 -136,13zm-886 1487c22,112 68,215 132,304 -11,-39 -18,-79 -18,-120l0 -143c-44,0 -84,-15 -114,-41zm1658 41l0 143c0,41 -7,81 -19,120 65,-89 111,-192 132,-304 -30,26 -70,41 -113,41z"/>
    <path class="fil4 str3" d="M9056 5396l0 185 -125 -165 125 -20z"/>
    <path class="fil4 str3" d="M9577 5396l0 185 125 -165 -125 -20z"/>
    <path class="fil4 str1" d="M9483 6765l445 0 0 255 -445 0 0 -255z"/>
    <path class="fil8 str4" d="M9673 4353c-29,0 -53,24 -53,54 0,29 24,53 53,53 30,0 54,-24 54,-53 0,-30 -24,-54 -54,-54zm-713 0c30,0 54,24 54,54 0,29 -24,53 -54,53 -29,0 -53,-24 -53,-53 0,-30 24,-54 53,-54z"/>
    <path class="fil4 str3" d="M8376 4443c0,-88 76,-159 169,-159l0 159 0 159c-93,0 -169,-71 -169,-159zm1882 0c0,-88 -76,-159 -169,-159l0 159 0 159c93,0 169,-71 169,-159z"/>
    <path class="fil9 str1" d="M9433 5095c-29,33 -77,54 -132,54 -87,0 -158,-54 -158,-121 0,-25 10,-47 26,-66 63,66 156,114 264,133z"/>
    <path class="fil7 str3" d="M9026 4861c191,-106 379,-92 565,0 0,25 0,50 0,75 0,60 0,8 0,68 -188,0 -377,0 -565,0 0,-85 0,-58 0,-143z"/>
    <path class="fil5 str5" d="M7981 7023l-276 -1029"/>
    <g>
     <path class="fil10" d="M6531 7328c-41,0 -75,-25 -75,-57 0,-31 34,-56 75,-56l0 113zm7651 0l-7651 0 0 -113 7651 0 0 113zm0 -113c42,0 75,25 75,56 0,32 -33,57 -75,57l0 -113z"/>
    </g>
    <path class="fil6 str1" d="M7725 7271l771 0c0,-37 0,-89 0,-124 0,-174 -79,-270 -197,-302 -72,-20 -188,-19 -255,21 -48,29 -87,80 -86,118 -80,-98 -236,-8 -236,157 0,23 3,89 3,130z"/>
    <path class="fil11 str6" d="M10920 4393l-84 0c-83,0 -143,-24 -181,-72 -38,-48 -57,-125 -57,-231 0,-77 13,-129 38,-156 25,-28 73,-41 144,-41l90 0c-23,70 -34,133 -34,190 0,107 28,211 84,310zm323 1341c-95,56 -248,94 -369,115 -14,-62 -25,-123 -25,-183 0,-120 14,-320 154,-320 104,0 156,-156 156,-469 0,-322 -52,-484 -157,-484l-84 0c-63,-107 -82,-206 -82,-310 0,-62 11,-129 34,-190 114,19 271,58 373,115 50,132 87,270 111,413 24,143 36,291 36,445 0,159 -12,311 -36,456 -24,144 -61,282 -111,412zm-369 115l-115 0c-64,0 -108,-14 -132,-42 -24,-27 -36,-78 -36,-153 0,-104 19,-182 55,-232 37,-51 93,-76 170,-76l112 0c-53,99 -79,206 -79,320 0,65 8,126 25,183z"/>
    <path class="fil11 str7" d="M11953 6304l286 0 0 -130 211 0 0 179 252 403c36,59 61,107 72,144 12,37 17,86 17,147l0 224 -1391 0 0 -224c0,-95 32,-193 96,-295l245 -399 0 -179 212 0 0 130z"/>
    <path class="fil12" d="M12356 6541l0 82 -119 0 0 -82 119 0zm-401 282l0 82 -120 0 0 -82 120 0zm199 0l0 82 -117 0 0 -82 117 0zm202 0l0 82 -119 0 0 -82 119 0zm-401 -141l0 82 -120 0 0 -82 120 0zm199 0l0 82 -117 0 0 -82 117 0zm202 0l0 82 -119 0 0 -82 119 0zm-401 -141l0 82 -120 0 0 -82 120 0zm199 0l0 82 -117 0 0 -82 117 0z"/>
    <g>
     <path class="fil6" d="M11301 4464l0 -280c214,-67 251,71 251,174l0 628c0,173 37,270 -183,267 -23,0 -104,0 -125,0 -192,1 -345,3 -345,-262 0,-63 -1,-339 0,-343 30,-171 190,-183 402,-184z"/>
     <path id="1" class="fil3" d="M11359 4184l0 280 -115 0 0 -280 40 -54 75 54zm-115 0c0,-31 25,-57 57,-57 32,0 58,26 58,57l-115 0zm366 174l-116 0 0 0 0 -8 0 -9 -1 -8 -1 -9 -1 -8 -1 -8 -2 -8 -1 -8 -2 -7 -3 -7 -2 -7 -3 -6 -3 -6 -3 -5 -4 -5 -3 -4 -4 -3 -4 -4 -4 -3 -5 -3 -5 -2 -6 -2 -7 -2 -7 -2 -9 -1 -10 0 -11 0 -12 1 -13 2 -15 3 -16 4 -17 5 -35 -108 22 -6 21 -6 20 -4 20 -2 19 -2 18 0 18 0 18 2 16 4 16 4 15 6 15 7 13 7 13 9 11 10 11 10 9 11 8 12 7 11 7 12 5 12 5 13 4 12 4 12 3 12 2 13 2 12 1 11 1 12 1 12 0 11 1 11 0 0zm0 0c0,31 -26,57 -58,57 -32,0 -58,-26 -58,-57l116 0zm-116 628l0 -628 116 0 0 628 0 0 -116 0zm116 0c0,31 -26,56 -58,57 -32,0 -57,-26 -58,-57l116 0zm-242 324l2 -114 0 0 18 0 16 0 15 -1 13 -2 12 -1 9 -3 8 -2 7 -2 5 -3 4 -2 3 -2 3 -2 2 -2 1 -3 2 -3 2 -3 1 -5 2 -5 1 -7 1 -7 1 -9 0 -9 1 -11 0 -11 0 -12 0 -13 -1 -13 0 -14 -1 -15 0 -15 0 -16 -1 -17 116 0 0 15 0 15 1 15 0 15 1 14 0 14 0 14 0 13 0 14 0 13 -1 13 -1 13 -2 13 -3 13 -3 13 -5 13 -6 13 -7 13 -9 12 -10 11 -12 11 -12 9 -14 8 -14 6 -15 6 -16 4 -17 4 -17 3 -19 2 -19 1 -21 1 -21 0 0 0zm0 0c-32,-1 -58,-27 -57,-58 0,-31 27,-56 59,-56l-2 114zm-124 -1l-1 -113 0 0 3 0 2 0 3 0 3 0 3 0 4 0 4 0 4 0 4 0 5 0 4 0 5 0 4 0 5 0 5 0 5 0 5 0 4 0 5 0 5 0 5 0 4 0 5 0 4 0 4 0 4 0 4 0 3 0 3 0 3 0 3 0 3 0 -2 114 -2 0 -3 -1 -3 0 -3 0 -3 0 -4 0 -4 0 -4 0 -4 0 -4 0 -5 0 -4 0 -5 0 -5 0 -4 0 -5 0 -5 0 -5 0 -4 0 -5 0 -5 0 -4 0 -5 0 -4 0 -4 0 -4 0 -3 0 -4 0 -3 0 -3 0 -2 0 -2 0 0 0zm0 0c-32,0 -58,-25 -58,-56 0,-31 25,-57 57,-57l1 113zm-403 -318l116 0 0 0 0 22 1 20 2 18 3 17 3 16 4 13 4 12 4 11 5 10 5 8 6 7 5 7 6 5 7 5 7 5 7 5 9 3 9 4 10 3 10 3 12 3 12 2 13 2 13 1 14 1 15 1 16 1 16 0 16 0 17 0 18 0 17 0 1 113 -18 0 -18 0 -18 0 -17 0 -18 0 -17 -1 -18 -1 -17 -1 -17 -2 -17 -2 -16 -3 -17 -4 -16 -4 -17 -6 -15 -6 -16 -8 -15 -8 -15 -10 -14 -11 -13 -13 -12 -14 -11 -14 -10 -17 -9 -17 -8 -18 -6 -19 -6 -21 -4 -21 -4 -23 -2 -23 -1 -25 -1 -26 0 0zm0 0c0,-32 26,-57 58,-57 32,0 58,25 58,57l-116 0zm1 -352l114 19 0 0 1 -7 0 2 0 4 0 5 0 6 0 8 0 9 0 10 -1 10 0 12 0 12 0 13 0 13 0 14 0 14 0 14 1 15 0 14 0 15 0 15 0 14 0 14 0 14 0 13 0 13 0 12 0 11 0 11 0 10 0 8 0 8 0 7 -116 0 0 -7 0 -8 0 -8 0 -10 0 -11 0 -11 0 -12 0 -13 0 -13 0 -14 0 -14 0 -14 0 -15 0 -14 0 -15 0 -15 0 -14 0 -14 0 -14 0 -13 0 -13 0 -12 0 -12 0 -11 0 -9 0 -9 0 -8 0 -7 0 -5 0 -5 0 -3 1 -9 0 0zm0 0c5,-31 35,-52 67,-46 31,5 52,34 47,65l-114 -19zm402 -175l115 0 -57 57 -20 0 -19 0 -19 1 -18 0 -18 1 -17 1 -17 1 -16 1 -15 1 -15 2 -15 2 -14 3 -13 2 -12 3 -12 3 -11 4 -10 4 -10 4 -8 4 -9 5 -7 5 -7 5 -6 6 -6 6 -5 6 -5 7 -5 8 -4 9 -4 9 -3 10 -4 11 -2 13 -114 -19 4 -19 5 -18 6 -17 6 -17 8 -16 9 -15 10 -14 11 -13 12 -12 12 -11 14 -10 13 -10 15 -8 15 -7 15 -7 15 -6 16 -5 16 -4 17 -4 17 -4 17 -3 17 -2 18 -2 18 -2 18 -1 19 -2 18 -1 19 0 20 -1 19 0 20 0 20 -1 -57 57zm57 -57c32,0 58,25 58,57 0,31 -25,57 -57,57l-1 -114z"/>
    </g>
    <path class="fil5 str8" d="M11158 6965c0,-67 54,-121 121,-121 67,0 121,54 121,121"/>
    <path class="fil5 str9" d="M10987 6794c47,-48 124,-48 171,0 47,47 47,124 0,171"/>
    <path class="fil5 str10" d="M10924 6559c64,-17 131,22 148,86 18,65 -21,131 -85,149"/>
    <path class="fil5 str11" d="M10861 6325c65,-17 131,21 149,86 17,65 -22,131 -86,148"/>
    <path class="fil5 str12" d="M10861 6317c65,17 131,-21 149,-86 17,-64 -22,-131 -86,-148"/>
    <path class="fil5 str11" d="M10861 5849c65,-18 131,21 149,85 17,65 -22,131 -86,149"/>
    <path class="fil4" d="M15556 13875l245 -142 -71 -123 -245 142 71 123z"/>
    <path class="fil13" d="M12568 12349l-1402 812 1402 809 1402 -809 -1402 -812z"/>
    <path class="fil14" d="M12570 9575l-1412 818 1412 814 1411 -814 -1411 -818z"/>
    <path class="fil15" d="M12568 13970l-1402 -809 0 -2763 1402 808 0 2764z"/>
    <path class="fil16" d="M11748 11509l-242 -139 0 -476 242 139 0 476z"/>
    <path class="fil16" d="M12227 11770l-241 -140 0 -476 241 140 0 476z"/>
    <path class="fil16" d="M11748 12077l-242 -139 0 -476 242 139 0 476z"/>
    <path class="fil16" d="M12227 12338l-241 -140 0 -475 241 139 0 476z"/>
    <path class="fil16" d="M11748 12645l-242 -139 0 -476 242 139 0 476z"/>
    <path class="fil16" d="M12227 12906l-241 -140 0 -475 241 139 0 476z"/>
    <path class="fil17" d="M12568 13962l1402 -808 0 -2764 -1402 809 0 2763z"/>
    <path class="fil18" d="M13150 12851l-242 139 0 476 242 -139 0 -476z"/>
    <path class="fil18" d="M13629 12591l-241 139 0 476 241 -139 0 -476z"/>
    <path class="fil18" d="M13150 12283l-242 139 0 476 242 -139 0 -476z"/>
    <path class="fil18" d="M13629 12023l-241 139 0 476 241 -140 0 -475z"/>
    <path class="fil18" d="M13150 11715l-242 139 0 476 242 -139 0 -476z"/>
    <path class="fil18" d="M13629 11455l-241 139 0 476 241 -140 0 -475z"/>
    <path class="fil18" d="M13150 11147l-242 139 0 476 242 -139 0 -476z"/>
    <path class="fil18" d="M13629 10886l-241 140 0 475 241 -139 0 -476z"/>
    <path class="fil16" d="M12163 13669l-296 -171 0 -584 296 171 0 584z"/>
    <path class="fil16" d="M11867 13497l-296 -170 0 -584 296 170 0 584z"/>
    <path class="fil19" d="M12267 13107l-104 60 -696 -415 101 -52 699 407z"/>
    <path class="fil20" d="M11467 12752l0 39 696 415 0 -39 -696 -415z"/>
    <path class="fil16" d="M12163 13206l104 -62 0 -37 -104 60 0 39z"/>
    <path class="fil13" d="M10110 13123l-1884 1092 1884 1087 1884 -1087 -1884 -1092z"/>
    <path class="fil14" d="M10081 9668l-1655 959 1655 955 1655 -955 -1655 -959z"/>
    <path class="fil15" d="M10110 15302l-1884 -1087 0 -3714 1884 1086 0 3715z"/>
    <path class="fil21" d="M9008 11994l-324 -187 0 -639 324 187 0 639z"/>
    <path class="fil21" d="M9653 12344l-325 -187 0 -639 325 187 0 639z"/>
    <path class="fil21" d="M9008 12758l-324 -187 0 -640 324 187 0 640z"/>
    <path class="fil21" d="M9653 13108l-325 -187 0 -640 325 187 0 640z"/>
    <path class="fil21" d="M9008 13521l-324 -187 0 -639 324 187 0 639z"/>
    <path class="fil21" d="M9653 13871l-325 -187 0 -639 325 187 0 639z"/>
    <path class="fil17" d="M10110 15291l1884 -1086 0 -3714 -1884 1086 0 3714z"/>
    <path class="fil22" d="M10892 13035l-324 187 0 639 324 -187 0 -639z"/>
    <path class="fil22" d="M11537 12685l-325 187 0 639 325 -187 0 -639z"/>
    <path class="fil22" d="M10892 12271l-324 187 0 640 324 -187 0 -640z"/>
    <path class="fil22" d="M11537 11921l-325 187 0 640 325 -187 0 -640z"/>
    <path class="fil22" d="M10892 11508l-324 187 0 639 324 -187 0 -639z"/>
    <path class="fil22" d="M11537 11158l-325 187 0 639 325 -187 0 -639z"/>
    <path class="fil16" d="M9566 14897l-398 -230 0 -785 398 230 0 785z"/>
    <path class="fil16" d="M9168 14667l-398 -230 0 -785 398 230 0 785z"/>
    <path class="fil19" d="M9705 14142l-140 81 -934 -558 136 -70 938 547z"/>
    <path class="fil20" d="M8631 13665l0 52 934 558 0 -52 -934 -558z"/>
    <path class="fil16" d="M9565 14275l140 -83 0 -50 -140 81 0 52z"/>
    <path class="fil16" d="M10772 14821l398 -229 0 -785 -398 230 0 784z"/>
    <path class="fil16" d="M11170 14591l399 -229 0 -785 -399 229 0 785z"/>
    <path class="fil19" d="M10633 14067l140 81 935 -559 -136 -70 -939 548z"/>
    <path class="fil20" d="M11708 13589l0 52 -935 558 0 -51 935 -559z"/>
    <path class="fil16" d="M10773 14199l-140 -83 0 -49 140 81 0 51z"/>
    <path class="fil23" d="M12568 13962l0 0 0 -1538 0 1538 941 -542 -941 542z"/>
    <path class="fil24" d="M12568 13962l-574 -323 0 -68 169 98 0 -464 104 -61 0 -37 -104 60 104 -60 -273 -159 0 -177 233 135 0 -476 -233 -135 0 -92 233 135 0 -476 -233 -135 0 -92 233 135 0 -246 341 900 0 1538zm-452 -2733l-122 -70 0 -251 122 321z"/>
    <path class="fil25" d="M12227 11770l-233 -135 0 -476 122 70 111 295 0 246z"/>
    <path class="fil25" d="M12227 12338l-233 -135 0 -476 233 135 0 476z"/>
    <path class="fil25" d="M12227 12906l-233 -135 0 -476 233 135 0 476z"/>
    <path class="fil26" d="M12568 13962l0 -1538 0 427 340 206 0 409 242 -139 0 -124 359 217 -941 542z"/>
    <path class="fil27" d="M12908 13466l0 -409 242 146 0 124 -242 139z"/>
    <path class="fil25" d="M12163 13669l-169 -98 0 -466 169 101 0 -39 -169 -100 169 100 0 0 0 0 0 39 0 -1 0 464z"/>
    <path class="fil28" d="M12163 13167l-169 -100 0 -119 273 159 -104 60 0 0z"/>
    <path class="fil29" d="M12163 13206l-169 -101 0 -38 169 100 0 39z"/>
    <path class="fil25" d="M12163 13206l0 -39 0 0 104 -60 0 37 -104 61 0 1z"/>
    <path class="fil26" d="M11994 13639l-8 -5 0 -2748 8 22 0 251 0 476 0 92 0 476 0 92 0 476 0 177 0 119 0 38 0 466 0 68z"/>
    <path class="fil30" d="M11477 16563l363 -211 -135 -71 -376 196 148 86z"/>
    <path class="fil30" d="M12165 16190l362 -210 -135 -72 -375 197 148 85z"/>
    <path class="fil30" d="M12801 15653l363 -210 -136 -72 -375 196 148 86z"/>
    <path class="fil30" d="M13569 15263l363 -210 -135 -72 -376 196 148 86z"/>
    <path class="fil30" d="M14251 14873l363 -210 -135 -72 -376 197 148 85z"/>
    <path class="fil30" d="M14913 14464l363 -210 -135 -72 -376 197 148 85z"/>
    <path class="fil30" d="M15611 14090l363 -210 -135 -72 -376 196 148 86z"/>
    <path class="fil30" d="M8060 15507l403 233 161 -93 -410 -255 -154 115z"/>
    <path class="fil30" d="M7139 14922l404 234 160 -93 -409 -255 -155 114z"/>
    <path class="fil30" d="M6178 14386l404 233 160 -93 -409 -255 -155 115z"/>
    <path class="fil31" d="M15691 14551l-124 0 0 -577 124 0 0 577z"/>
    <path class="fil32" d="M15275 13681c0,-183 149,-332 333,-332 183,0 332,149 332,332 0,184 -149,333 -332,333 -184,0 -333,-149 -333,-333z"/>
    <path class="fil32" d="M15682 14490c-14,-28 -42,-47 -75,-47 -42,0 -76,31 -83,71l-6 -1c-27,0 -49,22 -49,49 0,27 22,50 49,50l3 -1c8,19 25,32 46,32 21,0 39,-13 46,-32 10,-1 19,-3 27,-7 9,5 18,8 29,8 34,0 61,-28 61,-62 0,-30 -21,-54 -48,-60z"/>
    <path class="fil33" d="M4293 16301c-544,0 -985,-84 -985,-189 0,-104 441,-189 985,-189 374,0 700,40 866,100 -75,28 -117,59 -117,92 0,31 40,62 111,89 -169,58 -491,97 -860,97z"/>
    <path class="fil33" d="M6475 16347c-595,0 -1106,-59 -1322,-143 79,-27 124,-58 124,-92 0,-32 -42,-63 -118,-89 220,-83 727,-141 1316,-141 791,0 1433,104 1433,233 0,128 -642,232 -1433,232z"/>
    <path class="fil34" d="M5153 16204c-71,-27 -111,-58 -111,-89 0,-33 42,-64 117,-92 76,26 118,57 118,89 0,34 -45,65 -124,92z"/>
    <path class="fil35" d="M5891 13779c0,16 -12,28 -28,28l-320 0c-15,0 -27,-12 -27,-28 0,-15 12,-28 27,-28l320 0c16,0 28,13 28,28z"/>
    <path class="fil35" d="M5863 14704c-15,0 -27,-13 -27,-28l0 -897c0,-15 12,-28 27,-28 16,0 28,13 28,28l0 897c0,15 -12,28 -28,28z"/>
    <path class="fil36" d="M5744 13924l92 -60 0 774 -92 0 0 -714z"/>
    <path class="fil37" d="M6259 15787c14,67 67,50 135,36 67,-14 110,6 96,-62l-62 -180c-14,-67 -38,-111 -105,-97 -67,14 -111,80 -97,148l33 155z"/>
    <path class="fil38" d="M6396 14749c0,0 -122,159 -9,216 127,64 883,108 992,130 57,11 119,-23 129,-134 11,-112 75,-193 -18,-215 -318,-76 -813,-166 -920,-175 -108,-9 -149,33 -174,178z"/>
    <path class="fil38" d="M7649 15716c39,-8 37,-13 104,-31 4,18 -3,-626 -72,-782 -70,-156 -170,-160 -232,-147 -62,13 -141,75 -109,244 33,176 158,762 154,745 69,-11 117,-21 155,-29z"/>
    <path class="fil38" d="M6210 15835c0,0 293,-127 324,-139 30,-12 208,31 174,212l-500 -53 2 -20z"/>
    <path class="fil39" d="M6712 15869c0,12 -1,25 -4,39l-500 -53 2 -20c0,0 13,-6 32,-15l470 49z"/>
    <path class="fil38" d="M6506 14277c-81,79 -90,261 -133,211 -174,-202 -367,-573 -344,-726 14,-102 48,-118 84,-116 150,9 179,248 313,498l80 133z"/>
    <path class="fil40" d="M6985 14528c20,5 23,-26 27,-45l10 -40c7,-12 -10,-15 -29,-19l-153 -38c-19,-4 -36,-17 -41,3l-17 69c-5,20 4,50 24,55l179 15z"/>
    <path class="fil40" d="M7208 14562c0,0 5,32 22,30 51,-6 20,-96 -8,-118 -20,-16 -81,-46 -192,-46 -44,1 -49,14 -93,41 0,0 -10,8 4,55 9,30 43,31 51,33 26,6 84,-38 105,1 21,39 53,34 57,10 0,0 33,37 54,-6z"/>
    <path class="fil40" d="M7101 14550c0,0 -18,-33 -35,-13 -17,21 -12,35 9,52 21,16 101,81 163,-29 10,-92 -136,-62 -136,-62l-1 52z"/>
    <path class="fil41" d="M7134 14514c0,0 43,31 30,66 -13,34 -56,35 -96,3 0,0 55,34 83,4 27,-30 -17,-73 -17,-73z"/>
    <path class="fil41" d="M7170 14509c0,0 43,50 23,87 -21,36 -73,36 -112,-6 0,0 59,42 95,12 37,-30 -6,-93 -6,-93z"/>
    <path class="fil41" d="M7204 14599c-7,6 -17,11 -26,12 0,4 -25,8 -27,11 22,4 59,-12 69,-30 20,-39 -21,-92 -21,-92 0,0 41,67 5,99z"/>
    <path class="fil38" d="M6366 14401c3,-24 -88,-141 -38,-162 24,-10 109,20 217,49 105,27 253,80 407,112 0,0 -25,123 -18,148 0,0 -314,47 -482,-19 -144,-58 -93,-83 -86,-128z"/>
    <path class="fil42" d="M5956 13728c11,141 59,83 131,106 71,23 160,31 157,-44 -9,-167 70,-220 70,-220 23,-71 -16,-148 -88,-171 -71,-22 -161,-35 -184,37 0,0 -94,185 -86,292z"/>
    <path class="fil43" d="M6228 13719c-69,-91 -237,-127 -327,-8 -225,299 10,1340 10,1340 0,0 241,126 561,52 0,0 132,-889 -244,-1384z"/>
    <path class="fil37" d="M7389 15858c14,68 67,51 135,37 67,-14 110,5 96,-62l-62 -180c-14,-68 -38,-111 -105,-97 -67,14 -111,80 -97,148l33 154z"/>
    <path class="fil43" d="M6256 14821c0,0 -122,159 -9,216 127,64 883,107 992,129 57,12 119,-22 129,-134 11,-111 75,-192 -18,-215 -318,-75 -813,-166 -920,-175 -108,-9 -149,33 -174,179z"/>
    <path class="fil43" d="M7509 15787c39,-8 37,-13 104,-30 4,17 -3,-626 -72,-782 -69,-156 -169,-160 -232,-147 -62,13 -140,75 -109,243 33,177 158,763 154,745 69,-10 117,-21 155,-29z"/>
    <path class="fil43" d="M7341 15906c0,0 292,-127 323,-139 30,-12 208,32 174,213l-500 -53 3 -21z"/>
    <path class="fil38" d="M7842 15941c0,12 -1,25 -4,39l-500 -53 3 -21c0,0 12,-5 31,-14l470 49z"/>
    <path class="fil44" d="M6462 14354c-84,74 -103,256 -143,204 -163,-211 -338,-590 -307,-742 20,-101 54,-116 90,-112 149,16 166,257 287,513l73 137z"/>
    <path class="fil37" d="M7173 14633c0,0 5,32 22,30 51,-6 20,-95 -7,-118 -20,-16 -81,-46 -192,-45 -45,0 -49,13 -94,41 0,0 -10,7 4,54 10,31 43,31 52,33 25,6 84,-38 105,1 21,39 53,35 56,10 0,0 33,37 54,-6z"/>
    <path class="fil37" d="M7066 14621c0,0 -18,-33 -34,-13 -17,21 -12,36 9,52 21,16 100,81 162,-29 11,-92 -135,-62 -135,-62l-2 52z"/>
    <path class="fil41" d="M7100 14585c0,0 43,31 30,66 -13,34 -56,36 -97,3 0,0 56,35 83,4 28,-30 -16,-73 -16,-73z"/>
    <path class="fil41" d="M7136 14580c0,0 43,50 22,87 -21,37 -72,37 -112,-6 0,0 60,42 96,12 36,-30 -6,-93 -6,-93z"/>
    <path class="fil41" d="M7169 14670c-7,7 -17,11 -25,13 -1,3 -25,7 -27,11 21,3 59,-13 68,-31 21,-39 -20,-92 -20,-92 0,0 40,67 4,99z"/>
    <path class="fil37" d="M6949 14627c19,6 3,-23 9,-42l12 -39c5,-19 33,-41 14,-47l-222 -17c-19,-6 -7,-21 -12,-2l-21 69c-6,19 -3,62 16,67l204 11z"/>
    <path class="fil44" d="M6316 14471c5,-24 -80,-146 -30,-164 26,-8 108,26 215,60 103,33 277,70 430,110 0,0 0,152 6,177 0,0 -376,24 -541,-51 -141,-65 -89,-87 -80,-132z"/>
    <path class="fil37" d="M5907 13127c-32,228 76,446 288,497 212,51 415,-93 481,-313 41,-136 70,-459 -277,-542 -328,-79 -469,197 -492,358z"/>
    <path class="fil45" d="M6675 13142c0,0 57,65 124,-18 60,-73 -40,-224 -195,-339 -155,-114 -429,-113 -596,53 -145,144 -145,357 -90,501 0,0 109,54 146,-74 13,-46 12,-91 27,-133 8,-23 16,-8 57,81 133,4 61,-90 89,-151 19,-39 78,-68 103,-72 128,-23 224,13 335,152z"/>
    <path class="fil46" d="M6132 13101c11,2 29,21 24,53 -6,34 -9,99 -33,125 -7,8 -29,14 -40,12 -49,-8 -64,-55 -55,-108 8,-54 55,-90 104,-82z"/>
    <path class="fil35" d="M5744 13862c0,15 -13,28 -28,28l-331 0c-16,0 -28,-13 -28,-28 0,-16 12,-28 28,-28l331 0c15,0 28,12 28,28z"/>
    <path class="fil35" d="M5716 15899c-15,0 -28,-12 -28,-28l0 -2009c0,-16 13,-28 28,-28 15,0 28,12 28,28l0 2009c0,16 -13,28 -28,28z"/>
    <path class="fil35" d="M7256 15576c-16,0 -28,-12 -28,-27l0 -1115c0,-16 12,-28 28,-28 15,0 27,12 27,28l0 1115c0,15 -12,27 -27,27z"/>
    <path class="fil35" d="M5702 15140c0,-16 13,-28 28,-28l1512 0c15,0 28,12 28,28 0,15 -13,27 -28,27l-1512 0c-15,0 -28,-12 -28,-27z"/>
    <path class="fil35" d="M5702 14434c0,-16 13,-28 28,-28l1526 0c15,0 27,12 27,28 0,15 -12,27 -27,27l-1526 0c-15,0 -28,-12 -28,-27z"/>
    <path class="fil35" d="M5688 15871c0,-15 13,-28 28,-28l1166 0c15,0 28,13 28,28 0,16 -13,28 -28,28l-1166 0c-15,0 -28,-12 -28,-28z"/>
    <path class="fil35" d="M6918 15891c-11,-11 -11,-29 0,-39l318 -318c11,-11 28,-11 39,0 11,11 11,28 0,39l-318 318c-11,11 -28,11 -39,0z"/>
    <path class="fil35" d="M6441 15507l-41 0c0,189 -77,360 -200,483 -124,124 -295,201 -484,201 -189,0 -360,-77 -484,-201 -123,-123 -200,-294 -200,-483 0,-189 77,-360 200,-484 124,-124 295,-200 484,-200 189,0 360,76 484,200 123,124 200,295 200,484l41 0 42 0c0,-424 -343,-767 -767,-767 -424,0 -767,343 -767,767 0,423 343,767 767,767 424,0 767,-344 767,-767l-42 0z"/>
    <path class="fil35" d="M6313 15507l-17 0c0,160 -65,305 -170,410 -105,105 -250,170 -410,170 -160,0 -305,-65 -410,-170 -105,-105 -170,-250 -170,-410 0,-160 65,-305 170,-410 105,-105 250,-170 410,-170 160,0 305,65 410,170 105,105 170,250 170,410l17 0 16 0c0,-339 -274,-613 -613,-613 -339,0 -613,274 -613,613 0,339 274,613 613,613 339,0 613,-274 613,-613l-16 0z"/>
    <path class="fil35" d="M5886 15507c0,94 -76,170 -170,170 -94,0 -171,-76 -171,-170 0,-94 77,-171 171,-171 94,0 170,77 170,171z"/>
    <path class="fil35" d="M7212 15886l-42 0c0,72 -29,137 -76,184 -47,47 -112,77 -184,77 -72,0 -137,-30 -184,-77 -48,-47 -77,-112 -77,-184 0,-72 29,-137 77,-184 47,-47 112,-77 184,-77 72,0 137,30 184,77 47,47 76,112 76,184l42 0 41 0c0,-190 -153,-343 -343,-343 -190,0 -344,153 -344,343 0,190 154,343 344,344 190,-1 343,-154 343,-344l-41 0z"/>
    <path class="fil35" d="M7034 15886c0,69 -56,124 -124,124 -69,0 -124,-55 -124,-124 0,-69 55,-124 124,-124 68,0 124,55 124,124z"/>
    <path class="fil47" d="M7228 14568l-1484 0 0 544 1484 0 0 -544z"/>
    <path class="fil48" d="M4814 13594c-71,87 -59,269 -107,225 -196,-181 -431,-526 -426,-681 3,-103 34,-123 70,-125 150,-9 207,225 369,458l94 123z"/>
    <path class="fil40" d="M5320 13788c20,2 19,-29 22,-49l5 -40c5,-13 -12,-14 -32,-16l-156 -20c-20,-2 -38,-12 -40,8l-9 71c-2,20 10,49 30,51l180 -5z"/>
    <path class="fil40" d="M5545 13795c0,0 8,31 25,27 50,-12 9,-97 -21,-116 -22,-14 -86,-36 -196,-23 -44,5 -47,19 -88,52 0,0 -9,8 10,53 13,29 47,26 55,27 26,3 79,-47 105,-11 25,36 56,28 57,3 0,0 37,33 53,-12z"/>
    <path class="fil40" d="M5437 13795c0,0 -22,-30 -36,-8 -14,22 -7,36 16,50 22,14 109,69 157,-48 0,-92 -141,-46 -141,-46l4 52z"/>
    <path class="fil41" d="M5466 13756c0,0 46,26 37,62 -8,36 -51,42 -95,14 0,0 60,28 83,-5 24,-34 -25,-71 -25,-71z"/>
    <path class="fil41" d="M5502 13747c0,0 48,44 32,83 -17,39 -68,45 -112,8 0,0 64,34 96,1 33,-34 -16,-92 -16,-92z"/>
    <path class="fil41" d="M5545 13832c-6,7 -15,13 -24,16 0,3 -23,10 -25,14 22,1 57,-19 64,-39 16,-41 -31,-88 -31,-88 0,0 48,61 16,97z"/>
    <path class="fil48" d="M4690 13733c1,-24 -103,-130 -57,-156 24,-13 111,7 222,23 107,15 260,50 417,64 0,0 -11,125 0,149 0,0 -307,84 -481,37 -150,-40 -103,-71 -101,-117z"/>
    <path class="fil42" d="M4174 13149c0,75 80,61 155,61 75,0 98,-15 98,-90l38 -231c0,-75 -61,-136 -136,-136 -75,0 -155,23 -155,98l0 298z"/>
    <path class="fil37" d="M3595 15837c-40,56 8,84 64,125 55,40 133,27 174,-28l57 -79c40,-56 27,-134 -28,-174 -56,-40 -134,-28 -174,28l-93 128z"/>
    <path class="fil47" d="M4365 14273c0,0 -158,-124 -216,-12 -65,127 -116,882 -139,991 -12,57 21,119 133,131 111,11 191,76 214,-17 79,-316 175,-811 185,-918 10,-107 -32,-149 -177,-175z"/>
    <path class="fil47" d="M3738 15889c32,23 34,18 92,56 -10,14 461,-424 530,-580 69,-157 4,-233 -48,-270 -51,-37 -150,-54 -253,83 -108,143 -457,630 -447,616 54,43 94,71 126,95z"/>
    <path class="fil49" d="M3545 15893c0,0 318,26 350,30 33,4 170,126 54,270l-416 -283 12 -17z"/>
    <path class="fil50" d="M3971 16160c-6,11 -13,22 -22,33l-416 -283 12 -17c0,0 14,1 35,3l391 264z"/>
    <path class="fil51" d="M4365 14273l0 0c-2,-1 -75,-59 -140,-59 65,0 138,58 140,59zm-7 1096c1,-1 1,-3 2,-4 0,-1 0,-1 0,-1 0,0 0,0 0,1 -1,1 -1,3 -2,4zm-133 -1155c0,0 0,0 0,0l0 0c0,0 0,0 0,0l0 0z"/>
    <path class="fil52" d="M4352 15383c0,-1 0,-1 -1,-1 1,-2 2,-3 3,-5 0,2 -1,4 -2,6zm38 -151c-4,-71 -44,-113 -78,-137 -19,-14 -45,-25 -75,-26 -9,-24 -18,-49 -27,-74 -76,-8 -135,-20 -168,-28 27,-264 64,-622 107,-706 0,0 0,0 0,0 18,-35 46,-47 76,-47 0,0 0,0 0,0 0,0 0,0 0,0 65,0 138,58 140,59 0,0 0,0 0,0 7,1 14,2 21,4 -12,2 -24,5 -37,9 -1,0 -1,0 -1,0 0,0 -1,0 -2,1 0,0 0,0 0,0 -1,-1 -33,-11 -69,-11 0,0 0,0 0,0l0 0c0,0 -1,0 -1,0 -45,0 -95,16 -98,86l0 0c0,0 0,1 0,2 0,4 0,9 1,14 0,0 0,0 0,1 0,0 0,0 0,0 0,1 0,2 0,4 0,1 0,1 0,2l0 0c4,32 15,78 30,133 39,141 110,341 170,507 0,0 0,0 0,0 12,35 24,67 35,98 -8,37 -16,73 -24,109z"/>
    <path class="fil52" d="M4351 15382c-10,-12 -17,-26 -21,-42 -9,-36 -47,-142 -93,-271 30,1 56,12 75,26 34,24 74,66 78,137 0,0 0,0 0,0 1,36 -7,79 -30,132 0,0 0,0 0,1 -1,1 -1,3 -2,4 -1,3 -2,5 -4,8 0,0 0,0 0,0 -1,2 -2,3 -3,5z"/>
    <path class="fil47" d="M4346 14287c0,0 -164,-52 -168,75 -4,142 275,846 301,954 14,57 71,98 176,61 42,-15 83,-12 116,-9 49,5 81,10 74,-48 -44,-327 -195,-858 -232,-959 -37,-101 -125,-114 -267,-74z"/>
    <path class="fil33" d="M4612 14360c0,0 0,0 0,0 0,0 0,0 0,0zm0 -2c0,0 0,0 0,0 0,0 0,0 0,0zm-1 0c-24,-65 -71,-92 -139,-92 68,0 115,27 139,92zm-140 -92c0,0 1,0 1,0l0 0c0,0 -1,0 -1,0z"/>
    <path class="fil53" d="M4379 15025c0,0 0,0 0,0 -60,-166 -131,-366 -170,-507 39,141 110,341 170,507zm-200 -640l0 0c0,-1 0,-1 0,-2 0,1 0,2 0,2zm0 -6c0,0 0,0 0,0 0,-1 0,-1 0,-1 0,0 0,1 0,1zm-1 -15c0,-1 0,-2 0,-2 0,0 0,1 0,2zm168 -77c-1,-1 -33,-11 -69,-11 36,0 68,10 69,11zm2 -1c0,0 0,0 1,0 -1,0 -1,0 -1,0zm-72 -10c0,0 1,0 1,0l0 0c0,0 -1,0 -1,0z"/>
    <path class="fil54" d="M4397 15026c-6,0 -12,0 -18,-1 -60,-166 -131,-366 -170,-507 -15,-55 -26,-101 -29,-132l-1 -1c0,0 0,-1 0,-2 0,-2 0,-3 0,-4 0,0 0,-1 0,-1 0,-1 0,-3 0,-4l-1 -4c0,-2 0,-4 0,-6 0,-1 0,-2 0,-2l0 0c3,-70 53,-86 98,-86 0,0 1,0 1,0 0,0 0,0 0,0 36,0 68,10 69,11 0,0 0,0 0,0 1,-1 2,-1 2,-1 0,0 0,0 1,0 47,-13 87,-20 122,-20 0,0 1,0 1,0 0,0 0,0 0,0 68,0 115,27 139,92 1,0 1,0 1,0 0,0 0,0 0,0 0,1 0,1 0,2 0,0 0,0 0,0 0,0 1,1 1,1 1,3 2,5 3,8 28,83 99,348 160,606 -179,41 -302,51 -379,51z"/>
    <path class="fil37" d="M4519 16137c2,69 57,62 126,60 69,-1 123,-59 121,-127l-2 -97c-2,-69 -59,-123 -128,-122 -69,2 -123,59 -121,128l4 158z"/>
    <path class="fil47" d="M4664 16091c39,-1 38,-6 107,-11 1,18 110,-617 69,-783 -40,-165 -138,-187 -201,-185 -64,1 -152,48 -151,219 1,180 19,779 18,761 70,2 118,0 158,-1z"/>
    <path class="fil49" d="M4519 16208c0,0 263,-156 291,-172 28,-17 211,-3 207,181l-497 12 -1 -21z"/>
    <path class="fil50" d="M5014 16178c2,12 3,25 3,39l-497 12 -1 -21c0,0 11,-7 29,-19l466 -11z"/>
    <path class="fil55" d="M4754 14877c-314,97 -712,0 -712,0 0,0 -6,-1386 72,-1680 38,-144 220,-161 331,-137 82,67 168,286 212,326 62,227 60,709 97,1491z"/>
    <path class="fil47" d="M4322 14696c0,26 21,47 47,47l218 0c26,0 47,-21 47,-47l0 -256c0,-26 -21,-47 -47,-47l-218 0c-26,0 -47,21 -47,47l0 256z"/>
    <path class="fil52" d="M4278 14429c0,10 9,19 19,19l361 0c10,0 19,-9 19,-19l0 -69c0,-11 -9,-19 -19,-19l-361 0c-10,0 -19,8 -19,19l0 69z"/>
    <path class="fil52" d="M4445 13060c82,53 126,219 212,326 19,71 30,160 47,299l-172 -213 12 -147 -110 76 11 -341z"/>
    <path class="fil56" d="M4645 13345c6,13 10,31 14,48l-214 -333c69,46 127,129 200,285z"/>
    <path class="fil47" d="M4780 13676c-75,83 -72,265 -118,219 -187,-191 -404,-547 -392,-702 8,-102 40,-121 77,-121 150,-2 195,236 345,476l88 128z"/>
    <path class="fil37" d="M5519 13870c0,0 9,31 25,27 50,-12 9,-97 -21,-116 -21,-14 -86,-37 -196,-23 -44,5 -47,19 -88,51 0,0 -9,9 11,54 12,29 46,26 54,27 26,3 79,-47 105,-11 25,36 56,28 57,3 0,0 37,33 53,-12z"/>
    <path class="fil37" d="M5412 13870c0,0 -22,-31 -37,-8 -14,22 -7,36 16,50 23,14 109,69 158,-48 -1,-92 -142,-46 -142,-46l5 52z"/>
    <path class="fil41" d="M5441 13830c0,0 46,27 37,63 -9,35 -52,42 -96,14 0,0 60,28 83,-6 24,-33 -24,-71 -24,-71z"/>
    <path class="fil41" d="M5476 13822c0,0 48,44 32,83 -16,39 -67,45 -112,8 0,0 64,34 97,0 32,-34 -17,-91 -17,-91z"/>
    <path class="fil41" d="M5520 13907c-7,7 -16,13 -24,16 -1,3 -24,10 -26,13 22,2 57,-19 64,-38 16,-41 -31,-89 -31,-89 0,0 48,62 17,98z"/>
    <path class="fil37" d="M5296 13890c19,3 0,-23 4,-43l7 -40c3,-20 28,-45 8,-48l-222 9c-20,-4 -9,-20 -13,-1l-12 71c-3,20 4,62 24,65l204 -13z"/>
    <path class="fil47" d="M4649 13809c2,-24 -97,-136 -49,-159 24,-12 110,12 220,33 106,21 283,38 440,60 0,0 18,151 27,175 0,0 -371,67 -543,12 -148,-48 -99,-76 -95,-121z"/>
    <path class="fil37" d="M3978 12561c22,228 177,416 396,416 218,0 382,-187 395,-416 9,-142 -39,-464 -395,-464 -338,0 -411,302 -396,464z"/>
    <path class="fil45" d="M4001 12736c0,0 -107,-191 -24,-428 82,-237 272,-313 511,-232 168,57 288,59 323,-22 0,0 29,381 -107,292 -226,-148 -506,-20 -403,174l-30 59c0,0 -43,-160 -120,-79 -18,18 27,114 42,160 -58,74 -139,184 -192,76z"/>
    <path class="fil46" d="M4208 12459c12,-2 35,10 41,42 6,35 24,97 10,129 -4,10 -22,23 -34,25 -48,9 -78,-30 -88,-84 -9,-53 23,-103 71,-112z"/>
    <path class="fil35" d="M5413 13862c0,15 -12,28 -27,28l-43 0c-16,0 -28,-13 -28,-28 0,-16 12,-28 28,-28l43 0c15,0 27,12 27,28z"/>
    <g>
     <g>
      <path class="fil10" d="M14987 8608c-55,0 -100,-40 -100,-89 0,-50 45,-89 100,-89l0 178zm485 0l-485 0 0 -178 485 0 0 178zm0 -178c55,0 100,39 100,89 0,49 -45,89 -100,89l0 -178z"/>
     </g>
     <g>
      <path class="fil10" d="M17118 6797c0,49 -45,89 -100,89 -55,0 -100,-40 -100,-89l200 0zm0 -485l0 485 -200 0 0 -485 200 0zm-200 0c0,-49 45,-89 100,-89 55,0 100,40 100,89l-200 0z"/>
     </g>
     <g>
      <path class="fil10" d="M17470 6797c0,49 -45,89 -100,89 -55,0 -100,-40 -100,-89l200 0zm0 -485l0 485 -200 0 0 -485 200 0zm-200 0c0,-49 45,-89 100,-89 55,0 100,40 100,89l-200 0z"/>
     </g>
     <g>
      <path class="fil10" d="M18916 8608c-55,0 -100,-40 -100,-89 0,-50 45,-89 100,-89l0 178zm485 0l-485 0 0 -178 485 0 0 178zm0 -178c55,0 100,39 100,89 0,49 -45,89 -100,89l0 -178z"/>
     </g>
     <path class="fil4" d="M15884 8909l2620 0 0 1204 -2620 0 0 -1204z"/>
     <g>
      <path class="fil10" d="M17294 10725c0,50 -45,89 -100,89 -55,0 -100,-39 -100,-89l200 0zm0 -485l0 485 -200 0 0 -485 200 0zm-200 0c0,-49 45,-89 100,-89 55,0 100,40 100,89l-200 0z"/>
     </g>
     <path class="fil8" d="M17407 8860l-169 91 -110 60 -1006 -2187 110 -60 1285 2036 -110 60z"/>
     <path class="fil8" d="M16987 8767l-102 -163 -66 -106 1399 -687 67 106 -1232 956 -66 -106z"/>
     <g>
      <path class="fil57" d="M16271 6725c25,44 6,97 -43,120 -50,22 -110,5 -135,-39l178 -81zm-91 -158l91 158 -178 81 -91 -158 178 -81zm-178 81c-26,-44 -6,-97 43,-120 49,-22 109,-5 135,39l-178 81zm2206 -81c26,-44 86,-61 135,-39 49,23 69,76 43,120l-178 -81zm-91 158l91 -158 178 81 -91 158 -178 -81zm178 81c-25,44 -85,61 -135,39 -49,-23 -68,-76 -43,-120l178 81zm756 534c46,-26 108,-15 138,27 30,41 17,96 -29,123l-109 -150zm-158 92l158 -92 109 150 -159 91 -108 -149zm108 149c-46,27 -108,15 -138,-26 -30,-41 -17,-96 30,-123l108 149zm159 1966c46,27 59,82 29,123 -30,42 -92,53 -138,27l109 -150zm-159 -91l159 91 -109 150 -158 -92 108 -149zm-108 149c-47,-26 -60,-82 -30,-123 30,-41 92,-53 138,-26l-108 149zm-507 784c26,44 6,97 -43,120 -49,22 -109,5 -135,-39l178 -81zm-91 -158l91 158 -178 81 -91 -158 178 -81zm-178 81c-25,-43 -6,-97 43,-120 50,-22 110,-5 135,39l-178 81zm-2024 -81c25,-44 85,-61 135,-39 49,23 68,77 43,120l-178 -81zm-91 158l91 -158 178 81 -91 158 -178 -81zm178 81c-26,44 -86,61 -135,39 -49,-23 -69,-76 -43,-120l178 81zm-793 -1014c46,-27 108,-15 138,26 30,41 17,97 -30,123l-108 -149zm-159 91l159 -91 108 149 -158 92 -109 -150zm109 150c-46,26 -108,15 -138,-27 -30,-41 -17,-96 29,-123l109 150zm158 -2265c47,27 60,82 30,123 -30,41 -92,53 -138,26l108 -149zm-158 -92l158 92 -108 149 -159 -91 109 -150zm-109 150c-46,-27 -59,-82 -29,-123 30,-42 92,-53 138,-27l-109 150z"/>
     </g>
     <path class="fil5 str13" d="M17194 6180c1292,0 2339,1047 2339,2338 0,1292 -1047,2339 -2339,2339 -1291,0 -2338,-1047 -2338,-2339 0,-1291 1047,-2338 2338,-2338z"/>
     <path class="fil58 str14" d="M16616 9799c0,9 -3,16 -9,21 -5,5 -12,7 -20,7 -8,0 -15,-2 -20,-7 -6,-5 -9,-12 -9,-21l0 -452 -67 67c-5,5 -12,8 -19,8 -7,0 -14,-3 -21,-8 -6,-6 -9,-13 -9,-21 0,-7 3,-13 9,-20l115 -116c4,-4 8,-7 12,-10 4,-2 9,-3 14,-3 5,0 10,3 16,9 5,6 8,14 8,24l0 522zm258 -492l-116 0c-9,0 -16,-3 -22,-8 -5,-6 -7,-13 -7,-21 0,-7 2,-13 7,-19 6,-7 13,-10 22,-10l116 0c45,0 81,15 108,44 24,28 36,61 36,100 0,23 -4,45 -13,64 -10,20 -24,38 -43,53 16,13 30,29 40,50 11,20 16,42 16,65l0 58c0,39 -14,73 -42,102 -29,28 -63,42 -102,42l-116 0c-9,0 -16,-2 -22,-7 -5,-7 -7,-14 -7,-21 0,-7 2,-13 7,-20 5,-6 12,-9 22,-9l116 0c24,0 44,-9 61,-26 17,-17 26,-37 26,-61l0 -58c0,-24 -9,-44 -25,-61 -17,-17 -38,-26 -62,-26l-58 0c-9,0 -16,-3 -22,-8 -5,-6 -7,-13 -7,-21 0,-7 2,-13 7,-19 5,-7 12,-10 22,-10l58 0c25,0 47,-9 63,-27 14,-17 21,-37 21,-61 0,-24 -7,-43 -20,-59 -15,-17 -37,-26 -64,-26zm262 359c0,-8 3,-15 9,-21 6,-5 12,-8 20,-8 7,0 13,3 19,8 7,6 10,13 10,21 0,7 -3,13 -8,19 -6,6 -13,10 -21,10 -8,0 -15,-3 -21,-9 -5,-6 -8,-13 -8,-20zm0 -236c0,-8 3,-14 9,-20 6,-6 12,-8 20,-8 7,0 13,2 19,8 7,6 10,12 10,20 0,7 -3,14 -8,20 -6,6 -13,9 -21,9 -8,0 -15,-3 -21,-8 -5,-7 -8,-13 -8,-21zm232 -124l0 174 87 0c39,0 73,14 102,43 28,28 43,62 43,102l0 58c0,39 -15,73 -43,102 -28,28 -63,42 -102,42l-116 0c-9,0 -16,-2 -21,-8 -5,-6 -8,-12 -8,-20 0,-7 3,-14 8,-20 5,-6 12,-9 21,-9l116 0c24,0 44,-8 61,-25 17,-17 26,-37 26,-62l0 -58c0,-24 -8,-45 -25,-62 -17,-17 -37,-25 -62,-25l-116 0c-19,0 -29,-10 -29,-29l0 -232c0,-19 10,-29 29,-29l232 0c8,0 15,3 20,9 6,6 9,13 9,20 0,7 -3,13 -8,19 -5,7 -12,10 -21,10l-203 0zm405 0l0 174 87 0c39,0 73,14 102,43 28,28 43,62 43,102l0 58c0,39 -15,73 -43,102 -28,28 -62,42 -102,42l-116 0c-9,0 -16,-2 -21,-8 -5,-6 -8,-12 -8,-20 0,-7 3,-14 8,-20 5,-6 12,-9 21,-9l116 0c24,0 44,-8 61,-25 18,-17 26,-37 26,-62l0 -58c0,-24 -8,-45 -25,-62 -17,-17 -37,-25 -62,-25l-116 0c-19,0 -29,-10 -29,-29l0 -232c0,-19 10,-29 29,-29l232 0c8,0 15,3 20,9 6,6 9,13 9,20 0,7 -3,13 -7,19 -5,7 -13,10 -22,10l-203 0z"/>
    </g>
   </g>
  </g>
 </g>
</svg>
