<?xml version="1.0" encoding="UTF-8"?>
<!DOCTYPE svg PUBLIC "-//W3C//DTD SVG 1.0//EN" "http://www.w3.org/TR/2001/REC-SVG-20010904/DTD/svg10.dtd">
<!-- Creator: CorelDRAW X7 -->
<svg xmlns="http://www.w3.org/2000/svg" xml:space="preserve" width="200mm" height="200mm" version="1.0" style="shape-rendering:geometricPrecision; text-rendering:geometricPrecision; image-rendering:optimizeQuality; fill-rule:evenodd; clip-rule:evenodd"
viewBox="0 0 20000 20000"
 xmlns:xlink="http://www.w3.org/1999/xlink">
 <defs>
  <style type="text/css">
   <![CDATA[
    .str0 {stroke:#3696A0;stroke-width:25}
    .fil1 {fill:#EBECEC}
    .fil5 {fill:#D8D8DA}
    .fil2 {fill:#B83633}
    .fil4 {fill:#C5C3C5}
    .fil3 {fill:#767477}
    .fil6 {fill:#3497A1}
    .fil10 {fill:#85CCCA}
    .fil7 {fill:#979689}
    .fil9 {fill:#EAE8DF}
    .fil8 {fill:#F2F1EB}
    .fil11 {fill:#FD5B44}
    .fil0 {fill:url(#id0)}
   ]]>
  </style>
  <radialGradient id="id0" gradientUnits="userSpaceOnUse" gradientTransform="matrix(1.41421 -0 -0 1.41421 -4142 -4140)" cx="9999.37" cy="9994.13" r="10000" fx="9999.37" fy="9994.13">
   <stop offset="0" style="stop-opacity:1; stop-color:#FEFEFE"/>
   <stop offset="0.439216" style="stop-opacity:1; stop-color:#FEFEFE"/>
   <stop offset="1" style="stop-opacity:1; stop-color:#D1E2F2"/>
  </radialGradient>
 </defs>
 <g id="Layer_x0020_1">
  <metadata id="CorelCorpID_0Corel-Layer"/>
  <path class="fil0" d="M-1 -6l20000 0 0 20000 -20000 0 0 -20000z"/>
  <path class="fil1" d="M35875 19153l0 0 0 -5 0 5zm-172 0l0 0 0 -5 0 5z"/>
  <path class="fil2" d="M35875 19153l-172 0 0 -5 172 0 0 5z"/>
  <g id="_436038189488">
   <path class="fil3" d="M14085 11150c0,0 0,0 0,0z"/>
   <path class="fil4" d="M16667 3944l-13335 0 0 -1564 13335 0 0 1564z"/>
   <path class="fil5" d="M12131 12134l-8799 0 0 -6778 8799 0 0 6778z"/>
   <path class="fil4" d="M9185 13359l-5853 0 0 -991 5853 0 0 991z"/>
   <path class="fil4" d="M12003 5186l-8671 0 0 -117 8671 0 0 117z"/>
   <path class="fil4" d="M16667 4204l-4302 0 0 2152 4302 0 0 -2152z"/>
   <path class="fil5" d="M16588 6356l-4223 0 0 2030 4223 0 0 -2030z"/>
   <path class="fil5" d="M7660 13542l-3794 0 0 312 3794 0 0 -312z"/>
   <path class="fil5" d="M7660 14011l-4328 0 0 313 4328 0 0 -313z"/>
   <path class="fil5" d="M7660 14480l-4328 0 0 313 4328 0 0 -313z"/>
   <path class="fil5" d="M7660 14949l-4328 0 0 313 4328 0 0 -313z"/>
   <path class="fil5" d="M7660 15419l-4328 0 0 312 4328 0 0 -312z"/>
   <path class="fil5" d="M7660 15888l-4328 0 0 313 4328 0 0 -313z"/>
   <path class="fil5" d="M7660 16357l-4328 0 0 313 4328 0 0 -313z"/>
   <path class="fil5" d="M7660 16826l-4328 0 0 313 4328 0 0 -313z"/>
   <path class="fil5" d="M6765 17296l-3433 0 0 312 3433 0 0 -312z"/>
   <path class="fil5" d="M12158 13542l-3794 0 0 312 3794 0 0 -312z"/>
   <path class="fil5" d="M12158 14011l-4328 0 0 313 4328 0 0 -313z"/>
   <path class="fil5" d="M12158 14480l-4328 0 0 313 4328 0 0 -313z"/>
   <path class="fil5" d="M12158 14949l-4328 0 0 313 4328 0 0 -313z"/>
   <path class="fil5" d="M12158 15419l-4328 0 0 312 4328 0 0 -312z"/>
   <path class="fil5" d="M12158 15888l-4328 0 0 313 4328 0 0 -313z"/>
   <path class="fil5" d="M12158 16357l-4328 0 0 313 4328 0 0 -313z"/>
   <path class="fil5" d="M12158 16826l-4328 0 0 313 4328 0 0 -313z"/>
   <path class="fil5" d="M11262 17296l-3432 0 0 312 3432 0 0 -312z"/>
   <path class="fil5" d="M16656 13542l-3794 0 0 312 3794 0 0 -312z"/>
   <path class="fil5" d="M16656 14011l-4328 0 0 313 4328 0 0 -313z"/>
   <path class="fil5" d="M16656 14480l-4328 0 0 313 4328 0 0 -313z"/>
   <path class="fil5" d="M16656 14949l-4328 0 0 313 4328 0 0 -313z"/>
   <path class="fil5" d="M16656 15419l-4328 0 0 312 4328 0 0 -312z"/>
   <path class="fil5" d="M16656 15888l-4328 0 0 313 4328 0 0 -313z"/>
   <path class="fil5" d="M16656 16357l-4328 0 0 313 4328 0 0 -313z"/>
   <path class="fil5" d="M16656 16826l-4328 0 0 313 4328 0 0 -313z"/>
   <path class="fil5" d="M15760 17296l-3432 0 0 312 3432 0 0 -312z"/>
   <path class="fil5" d="M12131 4170l-8799 0 0 704 8799 0 0 -704z"/>
   <path class="fil6 str0" d="M5758 3503c0,9 -3,16 -8,22 -5,4 -12,7 -21,7 -7,0 -14,-3 -20,-8 -6,-4 -9,-12 -9,-21l0 -410 -235 424c-3,6 -7,10 -12,14l-7 3c-2,1 -5,2 -9,3 -5,-1 -11,-3 -19,-9 -5,-6 -7,-14 -7,-25l0 -521c0,-8 3,-15 8,-22 6,-5 13,-7 21,-7 7,0 14,2 20,7 5,5 8,12 8,22l0 409 235 -423c3,-5 7,-9 13,-14 5,-4 10,-6 15,-6 7,0 13,3 18,10 6,5 9,13 9,24l0 521zm290 -261l-87 0c-9,0 -16,-3 -21,-8 -5,-6 -8,-13 -8,-21 0,-7 3,-13 8,-19 5,-6 12,-10 21,-10l87 0c16,0 30,-5 41,-16 11,-10 17,-24 17,-42l0 -58c0,-16 -6,-30 -17,-41 -10,-11 -24,-17 -41,-17l-58 0c-13,0 -24,4 -33,11 -10,6 -17,16 -22,29 -1,5 -4,10 -9,14 -2,2 -5,4 -8,5l-9 1c-8,0 -16,-2 -22,-7 -6,-6 -9,-13 -9,-21l2 -10c7,-23 21,-43 42,-57 20,-15 43,-23 68,-23l58 0c32,0 59,12 82,34 22,23 33,50 33,82l0 58c0,17 -3,33 -10,48 -6,16 -16,29 -29,39 26,22 39,51 39,87l0 116c0,32 -11,59 -33,81 -23,23 -50,35 -82,35l-58 0c-25,0 -47,-8 -67,-22 -20,-14 -34,-34 -43,-58l-2 -10c0,-8 3,-14 9,-20 6,-6 13,-9 22,-9 11,0 20,7 26,20 3,11 10,21 21,31 11,7 22,10 34,10l58 0c16,0 30,-5 41,-16 11,-11 17,-25 17,-42l0 -116c0,-17 -5,-31 -13,-41 -10,-11 -25,-17 -45,-17zm289 0l0 232 174 0c16,0 29,-5 41,-16 11,-11 17,-25 17,-42l0 -116c0,-16 -6,-30 -17,-41 -11,-11 -25,-17 -41,-17l-174 0zm0 -58l173 0c32,0 59,12 82,34 23,23 34,50 34,82l0 116c0,32 -11,59 -34,81 -22,23 -50,35 -82,35l-202 0c-19,0 -29,-10 -29,-29l0 -522c0,-19 10,-29 29,-29l231 0c8,0 15,3 21,9 6,6 8,13 8,20 0,7 -2,13 -7,20 -5,6 -12,9 -22,9l-202 0 0 174zm752 319c0,9 -3,16 -8,22 -5,4 -12,7 -21,7 -7,0 -14,-3 -20,-8 -6,-4 -8,-12 -8,-21l0 -410 -235 424c-4,6 -8,10 -13,14l-6 3c-2,1 -5,2 -10,3 -5,-1 -11,-3 -19,-9 -5,-6 -7,-14 -7,-25l0 -521c0,-8 3,-15 9,-22 5,-5 12,-7 20,-7 7,0 14,2 20,7 6,5 9,12 9,22l0 409 234 -423c3,-5 7,-9 13,-14 5,-4 10,-6 16,-6 6,0 12,3 17,10 6,5 9,13 9,24l0 521zm174 -261l174 0c16,0 29,-5 41,-16 11,-11 16,-25 16,-42l0 -116c0,-16 -5,-30 -16,-41 -11,-11 -25,-17 -41,-17l-174 0 0 232zm0 58l0 203c0,9 -3,16 -9,22 -5,4 -12,7 -20,7 -8,0 -15,-3 -20,-8 -6,-4 -9,-12 -9,-21l0 -522c0,-19 10,-29 29,-29l202 0c33,0 60,12 82,34 23,23 34,50 34,82l0 116c0,32 -11,59 -34,81 -23,23 -50,35 -82,35l-173 0zm449 87l-42 125c-2,6 -6,11 -11,15 -4,2 -9,4 -15,5 -8,0 -15,-3 -21,-9 -6,-5 -9,-11 -9,-19l2 -11 174 -521c6,-16 15,-25 27,-25 12,0 22,9 27,25l174 521 2 11c0,7 -4,14 -10,20 -6,5 -13,8 -20,8 -4,0 -8,-1 -13,-3 -5,-2 -9,-8 -14,-17l-41 -125 -210 0zm190 -59l-85 -255 -85 255 170 0zm258 -318l-116 0c-9,0 -16,-2 -21,-8 -5,-6 -8,-13 -8,-21 0,-6 3,-13 7,-19 5,-6 13,-10 22,-10l289 0c8,0 15,3 21,9 6,6 8,13 8,20 0,7 -2,13 -7,20 -5,6 -12,9 -22,9l-115 0 0 493c0,9 -3,16 -9,22 -5,4 -12,7 -20,7 -8,0 -15,-3 -20,-8 -6,-5 -9,-12 -9,-21l0 -493zm376 174l145 0c8,0 15,3 21,9 6,6 8,13 8,20 0,7 -2,14 -7,20 -5,6 -12,9 -22,9l-145 0 0 232 203 0c8,0 15,3 21,9 5,6 8,12 8,20 0,7 -2,13 -7,19 -5,7 -12,10 -22,10l-232 0c-19,0 -29,-10 -29,-28l0 -523c0,-19 10,-29 29,-29l232 0c8,0 15,3 21,9 5,6 8,13 8,20 0,7 -2,14 -7,20 -5,6 -12,9 -22,9l-203 0 0 174zm695 319c0,9 -2,16 -8,22 -5,4 -12,7 -20,7 -8,0 -15,-3 -21,-8 -5,-5 -8,-12 -8,-21l0 -493 -94 0 -140 500c0,6 -4,11 -9,15 -6,4 -12,7 -18,7 -9,0 -16,-3 -21,-8 -6,-4 -8,-11 -8,-20 0,-4 0,-7 1,-9l145 -521c4,-14 13,-22 27,-22l145 0c20,0 29,10 29,29l0 522zm173 -261l174 0c16,0 30,6 41,17 11,10 17,24 17,41l0 116c0,16 -6,30 -17,42 -5,5 -11,9 -19,12 -7,3 -14,4 -22,4l-174 0 0 -232zm0 -58l0 -203c0,-7 -3,-14 -9,-20 -6,-6 -13,-9 -20,-9 -7,0 -13,3 -19,8 -7,4 -10,12 -10,21l0 522c0,19 10,29 29,29l203 0c31,0 58,-12 81,-34 23,-22 34,-50 34,-82l0 -116c0,-31 -11,-59 -33,-81 -23,-23 -50,-35 -82,-35l-174 0zm695 0l0 -203c0,-7 3,-14 8,-20 6,-6 13,-9 21,-9 7,0 14,3 20,8 5,4 8,12 8,21l0 521c0,8 -3,15 -9,22 -7,5 -13,8 -20,8 -7,0 -14,-3 -20,-7 -5,-5 -8,-12 -8,-22l0 -261 -232 0 0 261c0,9 -3,16 -8,22 -6,4 -12,7 -21,7 -8,0 -14,-3 -20,-8 -6,-4 -9,-12 -9,-21l0 -521c0,-8 3,-15 9,-22 6,-5 12,-7 20,-7 7,0 14,2 20,7 6,5 9,12 9,22l0 202 232 0zm579 319c0,9 -3,16 -8,22 -6,4 -12,7 -21,7 -8,0 -14,-3 -20,-8 -6,-4 -9,-12 -9,-21l0 -522c0,-7 3,-14 9,-21 6,-5 12,-8 20,-8 7,0 14,3 20,8 6,4 9,12 9,21l0 522zm-348 -261l0 232 116 0c16,0 30,-5 41,-16 12,-11 17,-25 17,-42l0 -116c0,-16 -5,-30 -16,-41 -11,-11 -25,-17 -42,-17l-116 0zm0 -58l116 0c31,0 59,12 81,34 23,23 35,50 35,82l0 116c0,32 -11,59 -34,81 -23,23 -50,35 -82,35l-145 0c-19,0 -29,-10 -29,-29l0 -522c0,-7 3,-14 9,-21 6,-5 12,-8 20,-8 7,0 14,3 20,8 6,5 9,12 9,21l0 203zm695 -289l-116 0c-9,0 -16,-3 -22,-8 -5,-6 -7,-13 -7,-21 0,-7 2,-13 7,-19 5,-7 12,-10 22,-10l116 0c8,0 15,3 20,9 6,6 9,13 9,20 0,7 -3,13 -8,19 -5,7 -12,10 -21,10zm115 608c0,9 -2,16 -8,22 -5,4 -12,7 -21,7 -7,0 -14,-3 -20,-8 -5,-4 -8,-12 -8,-21l0 -410 -235 424c-4,6 -8,10 -13,14l-6 3c-2,1 -5,2 -9,3 -6,-1 -12,-3 -19,-9 -5,-6 -8,-14 -8,-25l0 -521c0,-8 3,-15 9,-22 6,-5 12,-7 20,-7 7,0 14,2 20,7 6,5 9,12 9,22l0 409 235 -423c2,-5 7,-9 12,-14 5,-4 11,-6 16,-6 6,0 12,3 18,10 5,6 8,14 8,24l0 521zm755 -302c17,10 30,24 40,42 10,18 16,37 16,57l0 116c0,32 -12,59 -34,81 -23,23 -50,35 -82,35l-203 0c-19,0 -29,-10 -29,-29l0 -522c0,-19 10,-29 29,-29l174 0c32,0 60,12 82,34 22,23 34,50 34,82l0 58c0,13 -2,26 -6,39 -5,12 -11,24 -21,36zm-234 41l0 232 174 0c16,0 30,-5 41,-16 11,-11 17,-25 17,-42l0 -116c0,-16 -6,-30 -16,-41 -11,-11 -25,-17 -42,-17l-174 0zm145 -58c16,0 30,-5 41,-16 12,-11 17,-25 17,-42l0 -58c0,-16 -5,-30 -16,-41 -11,-11 -25,-17 -42,-17l-145 0 0 174 145 0zm318 0l146 0c8,0 14,3 20,9 6,6 9,13 9,20 0,7 -3,14 -8,20 -4,6 -12,9 -21,9l-146 0 0 232 203 0c8,0 15,3 21,9 6,6 9,12 9,20 0,7 -3,13 -8,19 -5,7 -12,10 -21,10l-233 0c-19,0 -29,-10 -29,-28l0 -523c0,-19 10,-29 29,-29l233 0c7,0 14,3 20,9 6,6 9,13 9,20 0,7 -3,14 -8,20 -5,6 -12,9 -22,9l-203 0 0 174zm579 348l-145 0c-31,0 -59,-12 -82,-34 -22,-23 -34,-50 -34,-82l0 -348c0,-32 11,-59 34,-82 22,-22 50,-34 82,-34l145 0c8,0 15,3 20,9 6,6 9,13 9,20 0,7 -3,13 -7,20 -5,6 -12,9 -22,9l-145 0c-16,0 -30,6 -42,17 -5,5 -9,11 -12,18 -3,8 -4,15 -4,23l0 348c0,16 5,30 16,42 6,4 12,9 19,12 8,3 16,4 23,4l145 0c8,0 15,3 20,9 6,6 9,12 9,20 0,6 -3,13 -7,19 -5,7 -12,10 -22,10zm289 -522l-116 0c-9,0 -16,-2 -21,-8 -5,-6 -8,-13 -8,-21 0,-6 3,-13 7,-19 5,-6 13,-10 22,-10l290 0c8,0 14,3 20,9 6,6 8,13 8,20 0,7 -2,13 -7,20 -5,6 -12,9 -21,9l-116 0 0 493c0,9 -3,16 -9,22 -5,4 -12,7 -20,7 -8,0 -15,-3 -20,-8 -6,-5 -9,-12 -9,-21l0 -493zm608 174l0 -203c0,-7 3,-14 8,-20 6,-6 13,-9 21,-9 7,0 14,3 20,8 5,4 8,12 8,21l0 521c0,8 -3,15 -9,22 -7,5 -13,8 -20,8 -7,0 -14,-3 -20,-7 -5,-5 -8,-12 -8,-22l0 -261 -232 0 0 261c0,9 -3,16 -8,22 -6,4 -12,7 -21,7 -8,0 -14,-3 -20,-8 -6,-4 -9,-12 -9,-21l0 -521c0,-8 3,-15 9,-22 6,-5 12,-7 20,-7 7,0 14,2 20,7 6,5 9,12 9,22l0 202 232 0zm520 319c0,9 -2,16 -8,22 -5,4 -12,7 -20,7 -8,0 -15,-3 -21,-8 -5,-4 -8,-12 -8,-21l0 -410 -235 424c-3,6 -8,10 -13,14l-6 3c-2,1 -5,2 -9,3 -6,-1 -12,-3 -19,-9 -5,-6 -8,-14 -8,-25l0 -521c0,-8 3,-15 9,-22 6,-5 12,-7 20,-7 7,0 14,2 20,7 6,5 9,12 9,22l0 409 235 -423c3,-5 7,-9 12,-14 5,-4 11,-6 16,-6 6,0 12,3 18,10 5,5 8,13 8,24l0 521zm174 -301l244 -242c6,-5 12,-8 20,-8 7,0 14,3 20,9 6,6 9,13 9,21 0,5 -3,12 -9,20l-172 172 178 314 4 16c0,7 -3,13 -10,19 -5,6 -12,9 -21,9 -9,0 -17,-5 -24,-16l-170 -301 -69 67 0 221c0,9 -3,16 -8,22 -6,4 -12,7 -21,7 -8,0 -14,-3 -20,-8 -6,-5 -9,-12 -9,-21l0 -522c0,-8 3,-14 9,-20 6,-6 13,-9 20,-9 7,0 14,3 20,7 6,5 9,12 9,22l0 221z"/>
   <path class="fil6 str0" d="M13941 4763l-109 0c-24,0 -44,-8 -61,-25 -17,-17 -26,-37 -26,-62l0 -260c0,-24 9,-45 25,-62 17,-17 38,-25 62,-25l109 0c6,0 11,2 15,7 4,4 6,9 6,15 0,4 -1,9 -5,14 -4,5 -9,7 -16,7l-109 0c-12,0 -23,4 -31,12 -4,5 -7,9 -10,15 -2,5 -3,11 -3,17l0 261c0,12 4,22 13,31 4,3 9,6 14,9 6,2 12,3 17,3l109 0c6,0 11,2 15,7 4,4 6,9 6,15 0,5 -1,9 -5,14 -4,5 -9,7 -16,7zm299 -21c0,6 -2,12 -6,16 -4,3 -9,5 -15,5 -6,0 -11,-2 -16,-5 -4,-4 -6,-9 -6,-17l0 -195c0,-13 -4,-23 -12,-31 -9,-8 -19,-13 -32,-13l-87 0 0 239c0,7 -2,13 -6,17 -4,3 -9,5 -15,5 -6,0 -11,-2 -16,-5 -4,-4 -6,-9 -6,-16l0 -261c0,-15 7,-22 22,-22l108 0c23,0 44,8 61,25 17,17 26,37 26,62l0 196zm278 0c0,14 -7,21 -22,21l-108 0c-24,0 -44,-8 -61,-25 -18,-17 -26,-37 -26,-62l0 -195c0,-6 2,-11 6,-16 5,-4 10,-6 15,-6 6,0 11,2 15,5 5,4 7,10 7,17l0 196c0,12 4,22 12,31 5,3 9,6 14,9 7,2 12,3 18,3l87 0 0 -239c0,-6 2,-11 6,-16 5,-4 10,-6 15,-6 6,0 11,2 15,5 5,4 7,10 7,17l0 261zm213 21l-66 0c-23,0 -43,-8 -61,-25 -17,-17 -25,-37 -25,-62l0 -130c0,-24 8,-44 25,-62 17,-16 38,-25 61,-25l66 0c6,0 11,2 15,7 4,4 6,9 6,15 0,5 -1,9 -5,14 -4,5 -9,7 -16,7l-66 0c-12,0 -22,4 -31,13 -4,4 -7,9 -9,14 -2,5 -3,11 -3,17l0 130c0,13 4,23 12,32 5,3 9,6 14,9 6,2 12,3 17,3l66 0c6,0 11,2 15,7 4,4 6,9 6,15 0,5 -1,9 -5,14 -4,5 -9,7 -16,7zm170 -142l-49 51 0 70c0,6 -2,12 -6,16 -4,3 -10,5 -16,5 -6,0 -11,-2 -15,-5 -4,-4 -6,-9 -6,-16l0 -261c0,-6 2,-11 6,-16 4,-4 9,-6 15,-6 6,0 11,2 15,6 4,3 7,9 7,16l0 128 137 -144c4,-4 9,-7 14,-7 5,0 10,3 16,7 4,4 6,10 6,16 0,6 -2,12 -7,17l-87 91 89 138c4,6 5,11 5,15 0,6 -2,11 -7,15 -4,5 -9,7 -15,7 -6,0 -11,-3 -16,-8l-86 -135zm385 121c0,14 -7,21 -22,21l-108 0c-24,0 -44,-8 -61,-25 -18,-17 -26,-37 -26,-62l0 -195c0,-6 2,-11 6,-16 5,-4 10,-6 15,-6 6,0 11,2 15,5 5,4 7,10 7,17l0 196c0,12 4,22 12,31 5,3 9,6 14,9 7,2 12,3 18,3l87 0 0 -239c0,-6 2,-11 6,-16 5,-4 10,-6 15,-6 6,0 11,2 15,5 5,4 7,10 7,17l0 261zm-2383 555c0,15 -7,22 -22,22l-108 0c-24,0 -44,-8 -61,-25 -17,-17 -26,-37 -26,-62l0 -195c0,-6 2,-11 6,-16 5,-4 10,-6 16,-6 5,0 10,2 14,5 5,4 7,9 7,17l0 195c0,13 4,23 13,32 4,3 9,6 14,9 6,2 12,3 17,3l87 0 0 -239c0,-6 2,-11 6,-16 5,-4 10,-6 15,-6 6,0 11,2 15,5 5,4 7,9 7,17l0 260zm175 -109l-27 0c-7,0 -12,-2 -16,-6 -4,-4 -6,-9 -6,-15 0,-5 2,-10 6,-15 4,-5 9,-7 16,-7l22 0c13,0 23,-4 31,-13 8,-9 12,-19 12,-30 0,-13 -3,-23 -10,-31 -4,-3 -9,-7 -14,-9 -6,-3 -12,-4 -19,-4l-22 0c-20,0 -38,6 -52,18 -4,2 -8,4 -14,5 -4,0 -9,-3 -15,-7 -4,-4 -6,-10 -6,-16 0,-7 3,-12 9,-17 22,-17 48,-26 78,-26l22 0c27,0 49,9 65,27 14,16 21,36 21,60 0,7 0,13 -1,18 -1,6 -3,12 -5,17 -5,11 -11,20 -21,30 8,8 15,17 21,30l4 17c2,6 2,12 2,19 0,23 -7,43 -21,59 -16,18 -38,27 -65,27l-22 0c-29,0 -55,-9 -78,-26 -6,-4 -9,-10 -9,-17 0,-5 2,-10 6,-15 5,-5 10,-8 15,-8 4,0 9,2 14,5 15,12 32,18 52,18l22 0c13,0 23,-5 31,-13 8,-9 12,-20 12,-31 0,-11 -3,-21 -9,-29 -6,-7 -16,-12 -29,-15zm316 44l0 -130c0,-13 -4,-23 -12,-31 -9,-9 -19,-13 -32,-13l-43 0c-13,0 -23,4 -32,13 -4,4 -7,8 -9,14 -2,5 -3,11 -3,17l0 130c0,13 4,23 12,31 5,4 9,7 14,10 7,2 12,3 18,3l43 0c12,0 23,-4 31,-12 9,-8 13,-19 13,-32zm-70 -217l-98 -93c-5,-5 -7,-12 -7,-18 0,-4 1,-9 5,-13 4,-4 10,-6 18,-6l173 0c6,0 11,2 16,6 4,5 6,10 6,15 0,5 -2,10 -5,15 -4,5 -10,7 -17,7l-119 0 115 110 5 7c14,16 21,35 21,57l0 130c0,24 -8,44 -25,61 -17,18 -38,26 -62,26l-43 0c-24,0 -44,-8 -61,-25 -18,-17 -26,-37 -26,-62l0 -130c0,-24 8,-45 25,-62 17,-17 38,-25 62,-25l17 0zm391 282c0,15 -7,22 -22,22l-108 0c-24,0 -44,-8 -61,-25 -18,-17 -26,-37 -26,-62l0 -195c0,-6 2,-11 6,-16 4,-4 9,-6 15,-6 6,0 11,2 15,5 5,4 7,9 7,17l0 195c0,13 4,23 12,32 5,3 9,6 14,9 6,2 12,3 17,3l88 0 0 -239c0,-6 2,-11 6,-16 4,-4 9,-6 15,-6 6,0 11,2 15,5 5,4 7,9 7,17l0 260zm104 -21l87 0c12,0 22,-4 31,-12 8,-8 12,-19 12,-32l0 -130c0,-13 -4,-23 -12,-31 -8,-9 -18,-13 -31,-13l-87 0 0 218zm0 43l0 109c0,6 -3,11 -7,15 -4,4 -9,6 -15,6 -5,0 -10,-2 -14,-5 -5,-4 -8,-9 -8,-16l0 -391c0,-15 8,-22 22,-22l109 0c23,0 44,8 61,25 17,17 26,38 26,62l0 130c0,24 -9,44 -26,61 -17,18 -37,26 -61,26l-87 0zm408 -87l0 -174 -87 0c-12,0 -23,4 -31,13 -4,4 -7,8 -10,14 -2,5 -3,11 -3,17l0 130c0,13 5,23 13,31 4,4 9,7 14,10 6,2 12,3 17,3l44 0c12,0 22,-4 30,-12 9,-8 13,-19 13,-32zm21 59c-7,8 -16,14 -28,20 -12,5 -24,8 -36,8l-44 0c-23,0 -44,-8 -61,-25 -17,-17 -26,-37 -26,-62l0 -130c0,-24 9,-45 26,-62 17,-17 37,-25 61,-25l109 0c14,0 21,7 21,22l0 195c0,8 3,17 9,26 5,8 12,15 21,19 9,4 14,10 14,20 0,6 -2,11 -6,16 -4,4 -9,6 -16,6 -3,0 -6,-1 -9,-2 -14,-6 -25,-14 -35,-26zm213 -233l-87 0 0 239c0,7 -2,13 -6,17 -4,3 -9,5 -15,5 -6,0 -11,-2 -16,-5 -4,-4 -6,-9 -6,-17l0 -260c0,-15 7,-22 22,-22l195 0c23,0 44,8 61,25 17,17 26,38 26,62l0 195c0,7 -2,13 -7,17 -4,3 -9,5 -15,5 -6,0 -11,-2 -15,-5 -5,-4 -7,-9 -7,-17l0 -195c0,-13 -4,-23 -12,-31 -8,-9 -19,-13 -31,-13l-44 0 0 239c0,7 -2,13 -6,17 -4,3 -9,5 -15,5 -6,0 -11,-2 -15,-5 -5,-4 -7,-9 -7,-17l0 -239zm278 88l131 0 0 -44c0,-12 -5,-23 -13,-31 -8,-9 -18,-13 -31,-13l-44 0c-12,0 -22,4 -31,13 -4,4 -7,9 -9,14 -2,5 -3,11 -3,17l0 44zm0 43l0 43c0,13 4,23 12,32 5,3 9,6 14,9 6,2 12,3 17,3l109 0c6,0 11,2 15,7 5,4 7,9 7,15 0,4 -2,9 -6,14 -3,5 -9,7 -16,7l-109 0c-23,0 -43,-8 -61,-25 -17,-17 -25,-38 -25,-62l0 -130c0,-24 8,-44 25,-61 17,-17 37,-26 61,-26l44 0c23,0 44,8 61,25 17,17 26,38 26,62l0 65c0,15 -7,22 -22,22l-152 0zm452 108c0,7 -2,13 -7,17 -3,3 -9,5 -15,5 -6,0 -11,-2 -15,-5 -4,-4 -7,-9 -7,-17l0 -239 -50 0 -81 246c-2,5 -4,9 -8,12 -1,0 -5,1 -12,3 -6,0 -11,-2 -15,-6 -5,-4 -7,-9 -7,-15l2 -7 85 -261c3,-10 10,-15 21,-15l87 0c14,0 22,7 22,22l0 260zm103 -109l0 88 88 0c13,0 24,-5 31,-13 8,-9 12,-19 12,-31 0,-12 -3,-22 -10,-30 -4,-4 -9,-7 -14,-10 -6,-2 -12,-4 -19,-4l-88 0zm0 -43l87 0c28,0 49,9 66,27 14,16 21,36 21,60 0,23 -7,43 -21,60 -16,18 -38,27 -66,27l-108 0c-15,0 -22,-7 -22,-22l0 -260c0,-6 2,-11 7,-16 4,-4 9,-6 15,-6 5,0 10,2 15,5 4,4 6,9 6,17l0 108zm409 0l0 -108c0,-6 2,-11 6,-16 5,-4 10,-6 16,-6 5,0 10,2 14,5 5,4 7,9 7,17l0 260c0,7 -2,13 -6,17 -4,3 -9,5 -15,5 -6,0 -11,-2 -16,-5 -4,-4 -6,-9 -6,-17l0 -109 -131 0 0 109c0,7 -2,13 -6,17 -4,3 -9,5 -15,5 -6,0 -11,-2 -16,-5 -4,-4 -6,-9 -6,-17l0 -260c0,-6 2,-11 6,-16 5,-4 10,-6 16,-6 5,0 10,2 15,5 4,4 6,9 6,17l0 108 131 0zm364 152c0,7 -2,13 -6,17 -4,3 -9,5 -15,5 -6,0 -11,-2 -16,-5 -4,-4 -6,-9 -6,-17l0 -260c0,-6 2,-11 6,-16 5,-4 10,-6 16,-6 5,0 10,2 14,5 5,4 7,9 7,17l0 260zm-217 -109l0 88 43 0c14,0 24,-5 32,-13 8,-9 12,-19 12,-31 0,-12 -4,-22 -11,-30 -3,-4 -8,-7 -13,-10 -6,-2 -12,-4 -20,-4l-43 0zm0 -43l43 0c28,0 49,9 65,27 15,16 22,36 22,60 0,23 -7,43 -21,60 -17,18 -38,27 -66,27l-65 0c-14,0 -21,-7 -21,-22l0 -260c0,-6 2,-11 6,-16 5,-4 10,-6 15,-6 6,0 11,2 15,5 5,4 7,9 7,17l0 108zm413 22l80 118 3 7 0 6c0,5 -2,10 -7,15l-3 3 -5 2 -8 1c-6,0 -12,-3 -18,-10l-68 -102 -69 102c-4,7 -10,10 -18,10 -4,0 -9,-2 -15,-6 -5,-5 -7,-10 -7,-16 0,-4 1,-8 4,-12l79 -118 -80 -118 -3 -7 0 -6c0,-5 2,-10 7,-15 4,-4 9,-6 16,-6 6,0 12,3 17,10l69 103 68 -103c5,-7 11,-10 18,-10 5,0 10,2 16,6 5,5 7,10 7,16 0,4 -1,8 -4,12l-79 118zm-2665 708l-87 0c-23,0 -44,-8 -61,-25 -17,-17 -26,-38 -26,-62l0 -196c0,-5 2,-11 6,-16 5,-3 10,-5 16,-5 5,0 10,2 14,5 5,4 7,9 7,16l0 196c0,12 4,23 13,31 4,4 9,7 14,10 6,2 12,3 17,3l87 0 0 -240c0,-5 2,-11 6,-16 5,-3 10,-5 16,-5 5,0 10,2 14,5 5,4 7,9 7,16l0 326c0,24 -8,44 -25,61 -17,18 -38,26 -62,26l-87 0c-5,0 -10,-2 -16,-6 -3,-5 -5,-10 -5,-15 0,-6 1,-11 5,-16 4,-4 9,-6 16,-6l87 0c13,0 23,-4 31,-12 9,-8 13,-19 13,-32l0 -43zm278 -174l0 -109c0,-5 2,-11 6,-16 5,-3 10,-5 15,-5 6,0 11,2 15,5 5,4 7,9 7,16l0 261c0,7 -2,13 -6,17 -4,3 -9,5 -16,5 -5,0 -10,-2 -15,-6 -4,-3 -6,-9 -6,-16l0 -109 -87 0c-24,0 -44,-8 -61,-25 -18,-17 -26,-37 -26,-62l0 -65c0,-5 2,-11 6,-16 5,-3 10,-5 15,-5 6,0 11,2 15,5 5,4 7,9 7,16l0 66c0,12 4,22 12,31 5,3 9,6 14,9 7,2 12,3 18,3l87 0zm278 87l0 -174 -88 0c-12,0 -22,4 -31,12 -4,5 -7,9 -9,15 -2,5 -3,11 -3,17l0 130c0,12 4,23 12,31 5,4 9,7 14,10 6,2 12,3 17,3l44 0c12,0 22,-4 31,-12 8,-8 13,-19 13,-32zm21 58c-7,8 -17,15 -29,21 -12,5 -24,8 -36,8l-44 0c-23,0 -43,-8 -61,-25 -17,-17 -25,-38 -25,-62l0 -130c0,-24 8,-45 25,-62 17,-17 37,-25 61,-25l109 0c15,0 22,7 22,21l0 196c0,8 2,17 8,26 5,8 12,15 22,19 9,4 13,10 13,20 0,6 -2,11 -6,15 -4,5 -9,7 -15,7 -3,0 -6,-1 -9,-2 -14,-6 -26,-15 -35,-27zm234 29l-65 0c-23,0 -43,-8 -61,-25 -17,-17 -26,-38 -26,-62l0 -130c0,-24 9,-45 26,-62 17,-17 37,-25 61,-25l65 0c6,0 12,2 16,6 4,5 6,10 6,15 0,5 -2,10 -5,15 -4,5 -9,7 -17,7l-65 0c-12,0 -23,4 -31,12 -4,5 -7,9 -9,15 -2,5 -3,11 -3,17l0 130c0,12 4,23 12,31 4,4 9,7 14,10 6,2 12,3 17,3l65 0c6,0 12,2 16,6 4,5 6,10 6,15 0,5 -2,10 -5,15 -4,5 -9,7 -17,7zm213 -261l-87 0 0 239c0,7 -2,13 -6,17 -4,3 -9,5 -16,5 -5,0 -10,-2 -15,-5 -4,-4 -6,-10 -6,-17l0 -261c0,-14 7,-21 21,-21l196 0c23,0 43,8 61,25 17,17 25,37 25,62l0 195c0,7 -2,13 -6,17 -4,3 -9,5 -15,5 -6,0 -11,-2 -15,-5 -5,-4 -7,-10 -7,-17l0 -196c0,-12 -4,-22 -12,-30 -8,-9 -19,-13 -31,-13l-44 0 0 239c0,7 -2,13 -6,17 -4,3 -9,5 -15,5 -6,0 -11,-2 -16,-5 -4,-4 -6,-10 -6,-17l0 -239zm322 119l-49 51 0 69c0,7 -2,13 -6,17 -4,3 -9,5 -16,5 -5,0 -10,-2 -15,-5 -4,-4 -6,-10 -6,-17l0 -260c0,-6 2,-11 6,-16 5,-4 10,-6 15,-6 6,0 11,2 15,5 5,4 7,10 7,17l0 128 138 -144c4,-5 8,-7 14,-7 4,0 9,2 15,7 4,4 7,9 7,16 0,6 -3,12 -8,16l-87 92 90 138c3,6 5,11 5,15 0,6 -3,11 -8,15 -4,4 -9,7 -15,7 -6,0 -11,-3 -15,-9l-87 -134zm385 46c0,26 -9,49 -27,68 -19,19 -42,28 -68,28l-26 0c-26,0 -49,-9 -68,-28 -18,-18 -28,-41 -28,-68l0 -113c0,-25 9,-47 28,-67 19,-19 41,-28 68,-28l26 0c26,0 48,9 67,27 19,19 28,42 28,68l0 113zm-43 0l0 -113c0,-14 -5,-26 -15,-37 -10,-10 -22,-15 -37,-15l-26 0c-15,0 -27,5 -37,15 -10,10 -16,23 -16,37l0 113c0,15 5,27 16,37 10,11 22,16 37,16l26 0c14,0 26,-5 37,-15 10,-10 15,-23 15,-38zm278 9l0 -130c0,-12 -4,-23 -12,-31 -9,-8 -19,-13 -32,-13l-43 0c-13,0 -23,5 -31,13 -5,4 -8,9 -10,14 -2,5 -3,11 -3,17l0 130c0,13 4,23 13,31 4,4 9,7 14,10 6,2 12,3 17,3l43 0c12,0 23,-4 31,-12 9,-8 13,-19 13,-32zm-131 -202l18 -11 26 -18c8,-7 14,-12 17,-16 6,-7 9,-14 9,-22 0,-10 -4,-18 -11,-25 -7,-6 -15,-9 -24,-9 -9,0 -18,3 -25,9 -6,6 -10,14 -10,25l0 67zm87 -14c28,0 50,9 65,25 15,16 22,36 22,61l0 130c0,24 -8,44 -25,61 -17,17 -38,26 -62,26l-43 0c-24,0 -44,-8 -61,-25 -17,-17 -26,-38 -26,-62l0 -269c0,-24 8,-44 24,-59 15,-13 33,-19 54,-19 20,0 38,6 54,20 16,14 24,33 24,58 0,14 -2,24 -6,31 -3,8 -10,15 -20,22z"/>
   <path class="fil6 str0" d="M5184 6023l-109 0c-23,0 -44,-8 -61,-25 -17,-17 -26,-37 -26,-62l0 -260c0,-24 9,-45 26,-62 16,-17 37,-25 61,-25l109 0c6,0 11,2 15,7 4,4 7,9 7,14 0,5 -2,10 -6,15 -4,5 -9,7 -16,7l-109 0c-12,0 -23,4 -31,12 -4,5 -7,9 -9,15 -2,5 -3,10 -3,17l0 261c0,12 4,22 12,31 4,3 9,6 14,9 6,2 12,3 17,3l109 0c6,0 11,2 15,7 4,4 7,9 7,15 0,5 -2,9 -6,14 -4,5 -9,7 -16,7zm217 -152l80 118 3 7 0 6c0,5 -2,11 -7,15l-3 3 -5 2 -8 1c-6,0 -12,-3 -17,-9l-69 -103 -69 102c-4,7 -10,10 -18,10 -4,0 -9,-2 -15,-6 -5,-5 -7,-10 -7,-16 0,-4 1,-8 4,-12l79 -118 -80 -118 -3 -7 0 -6c0,-5 2,-10 7,-15 4,-4 9,-6 16,-6 6,0 12,3 17,10l69 103 69 -103c4,-7 10,-10 18,-10 4,0 9,2 15,7 5,4 7,9 7,15 0,4 -1,8 -4,12l-79 118zm186 -21l131 0 0 -44c0,-12 -4,-23 -12,-31 -9,-9 -19,-13 -32,-13l-43 0c-13,0 -23,4 -31,13 -5,4 -8,9 -10,14 -2,5 -3,11 -3,17l0 44zm0 43l0 44c0,12 4,22 12,31 5,3 10,6 15,9 6,2 11,3 17,3l108 0c6,0 12,2 16,7 4,4 6,9 6,15 0,5 -2,9 -5,14 -4,5 -9,7 -17,7l-108 0c-24,0 -44,-8 -61,-25 -18,-17 -26,-37 -26,-62l0 -130c0,-23 8,-44 25,-61 17,-17 37,-26 62,-26l43 0c24,0 44,8 61,25 18,17 26,38 26,62l0 65c0,15 -7,22 -22,22l-152 0zm495 108l0 -260c0,-8 -2,-14 -6,-19 -3,-4 -8,-6 -13,-6 -7,0 -13,4 -20,12l-91 128 -91 -128c-6,-8 -12,-12 -20,-12 -5,0 -10,2 -14,7 -3,4 -5,10 -5,18l0 260c0,7 2,13 6,17 4,3 9,5 15,5 6,0 10,-2 15,-6 5,-3 7,-9 7,-16l0 -192 69 97c6,7 12,11 18,11 6,0 11,-4 18,-11l69 -97 0 192c0,7 2,13 6,17 4,3 9,5 15,5 6,0 11,-2 15,-6 5,-3 7,-9 7,-16zm321 0c0,7 -2,13 -6,17 -4,3 -9,5 -15,5 -6,0 -11,-2 -15,-5 -5,-4 -7,-9 -7,-17l0 -260c0,-6 2,-11 7,-16 4,-4 9,-6 15,-6 5,0 10,2 15,5 4,4 6,10 6,17l0 260zm-217 -109l0 88 44 0c13,0 23,-4 31,-13 8,-9 12,-19 12,-31 0,-12 -3,-22 -10,-30 -4,-4 -9,-7 -14,-10 -6,-2 -12,-4 -19,-4l-44 0zm0 -43l43 0c28,0 49,9 66,27 14,17 21,37 21,60 0,23 -7,43 -21,60 -16,18 -38,27 -65,27l-65 0c-15,0 -22,-7 -22,-22l0 -260c0,-6 2,-11 6,-16 5,-4 10,-6 16,-6 5,0 10,2 14,5 5,4 7,10 7,17l0 108zm782 152c0,15 -7,22 -22,22l-108 0c-24,0 -44,-8 -61,-25 -18,-17 -26,-37 -26,-62l0 -195c0,-6 2,-11 6,-16 4,-4 9,-6 15,-6 6,0 11,2 15,5 5,4 7,10 7,17l0 196c0,12 4,22 12,31 5,3 9,6 14,9 6,2 12,3 17,3l88 0 0 -239c0,-6 2,-11 6,-16 4,-4 9,-6 15,-6 6,0 11,2 15,5 5,4 7,10 7,17l0 260zm175 -109l-27 0c-7,0 -12,-2 -17,-6 -3,-4 -5,-9 -5,-15 0,-5 2,-10 6,-15 3,-4 9,-7 16,-7l21 0c14,0 24,-4 32,-13 8,-9 12,-19 12,-30 0,-13 -4,-23 -11,-30 -3,-4 -8,-8 -13,-10 -6,-3 -12,-4 -20,-4l-21 0c-20,0 -38,6 -53,18 -3,3 -8,4 -13,5 -4,0 -10,-2 -15,-7 -4,-4 -6,-10 -6,-16 0,-7 3,-12 8,-17 23,-17 49,-26 79,-26l21 0c28,0 49,9 65,27 15,16 22,36 22,60 0,7 -1,13 -2,19 -1,5 -2,11 -5,17 -4,10 -11,20 -20,29 8,8 15,18 20,30l5 17c1,6 2,12 2,19 0,23 -7,43 -22,59 -15,18 -37,27 -65,27l-21 0c-30,0 -56,-8 -79,-26 -6,-4 -9,-10 -9,-17 0,-5 3,-10 7,-15 4,-5 9,-8 15,-8 4,0 8,2 13,5 16,12 33,18 53,18l21 0c13,0 24,-4 32,-13 8,-9 12,-19 12,-31 0,-11 -3,-21 -9,-29 -7,-7 -16,-12 -29,-15zm316 44l0 -130c0,-12 -5,-23 -13,-31 -8,-9 -18,-13 -31,-13l-44 0c-12,0 -22,4 -31,13 -4,4 -7,8 -9,14 -2,5 -3,11 -3,17l0 130c0,13 4,23 12,32 5,3 9,6 14,9 6,2 12,3 17,3l44 0c12,0 22,-4 31,-12 8,-8 13,-19 13,-32zm-71 -217l-97 -93c-5,-5 -8,-12 -8,-18 0,-4 2,-9 6,-13 4,-4 9,-6 17,-6l174 0c6,0 11,2 15,7 5,4 7,9 7,14 0,5 -2,10 -6,15 -3,5 -9,7 -16,7l-120 0 116 110 5 7c14,16 21,35 21,57l0 130c0,24 -9,45 -26,62 -17,17 -37,25 -61,25l-44 0c-23,0 -43,-8 -61,-25 -17,-17 -25,-37 -25,-62l0 -130c0,-24 8,-45 25,-62 17,-17 37,-25 61,-25l17 0zm391 282c0,15 -7,22 -21,22l-109 0c-23,0 -44,-8 -61,-25 -17,-17 -26,-37 -26,-62l0 -195c0,-6 2,-11 7,-16 4,-4 9,-6 15,-6 5,0 10,2 15,5 4,4 6,10 6,17l0 196c0,12 5,22 13,31 4,3 9,6 14,9 6,2 12,3 17,3l87 0 0 -239c0,-6 2,-11 7,-16 4,-4 9,-6 15,-6 5,0 10,2 15,5 4,4 6,10 6,17l0 260zm104 -21l88 0c12,0 22,-4 30,-12 9,-8 13,-19 13,-32l0 -130c0,-12 -4,-23 -12,-31 -8,-9 -19,-13 -31,-13l-88 0 0 218zm0 43l0 109c0,6 -2,11 -6,15 -5,4 -10,6 -15,6 -5,0 -10,-1 -15,-5 -5,-4 -7,-9 -7,-16l0 -391c0,-15 7,-22 22,-22l108 0c24,0 44,8 62,25 17,17 25,38 25,62l0 130c0,24 -8,45 -25,62 -17,17 -38,25 -62,25l-87 0zm409 -87l0 -174 -87 0c-13,0 -23,4 -31,13 -5,4 -8,8 -10,14 -2,5 -3,11 -3,17l0 130c0,13 4,23 13,32 4,3 9,6 14,9 6,2 12,3 17,3l43 0c12,0 23,-4 31,-12 9,-8 13,-19 13,-32zm21 59c-7,8 -16,14 -29,20 -12,5 -24,8 -36,8l-43 0c-24,0 -44,-8 -61,-25 -17,-17 -26,-37 -26,-62l0 -130c0,-24 8,-45 25,-62 17,-17 38,-25 62,-25l108 0c15,0 22,7 22,22l0 195c0,8 3,17 8,26 5,8 13,15 22,19 9,4 14,11 14,20 0,6 -2,12 -7,16 -3,4 -8,6 -15,6 -3,0 -6,-1 -9,-2 -14,-6 -26,-14 -35,-26zm213 -233l-87 0 0 239c0,7 -2,13 -6,17 -4,3 -9,5 -16,5 -5,0 -10,-2 -15,-5 -4,-4 -6,-9 -6,-17l0 -260c0,-15 7,-22 21,-22l196 0c23,0 43,8 61,25 17,17 25,38 25,62l0 195c0,7 -2,13 -6,17 -4,3 -9,5 -15,5 -6,0 -11,-2 -15,-5 -5,-4 -7,-9 -7,-17l0 -195c0,-13 -4,-23 -12,-31 -8,-9 -19,-13 -31,-13l-44 0 0 239c0,7 -2,13 -6,17 -4,3 -9,5 -16,5 -5,0 -10,-2 -15,-5 -4,-4 -6,-9 -6,-17l0 -239zm277 88l131 0 0 -44c0,-12 -4,-23 -12,-31 -8,-9 -19,-13 -31,-13l-44 0c-12,0 -23,4 -31,13 -4,4 -7,9 -9,14 -2,5 -4,11 -4,17l0 44zm0 43l0 44c0,12 5,22 13,31 4,3 9,6 14,9 6,2 12,3 17,3l109 0c6,0 11,2 15,7 4,4 6,9 6,15 0,5 -1,9 -5,14 -4,5 -9,7 -16,7l-109 0c-23,0 -44,-8 -61,-25 -17,-17 -26,-37 -26,-62l0 -130c0,-23 9,-44 25,-61 17,-17 38,-26 62,-26l44 0c23,0 43,8 61,25 17,17 25,38 25,62l0 65c0,15 -7,22 -21,22l-153 0zm452 108c0,7 -2,13 -6,17 -4,3 -9,5 -15,5 -6,0 -11,-2 -15,-5 -5,-4 -7,-9 -7,-17l0 -239 -50 0 -81 246c-2,5 -4,9 -8,12 -1,0 -5,2 -12,3 -6,0 -11,-2 -15,-6 -5,-4 -7,-9 -7,-15l1 -7 86 -261c3,-10 10,-15 20,-15l88 0c14,0 21,7 21,22l0 260zm104 -109l0 88 87 0c14,0 24,-4 32,-13 8,-9 12,-19 12,-31 0,-12 -4,-22 -11,-30 -3,-4 -8,-7 -13,-10 -6,-2 -12,-4 -20,-4l-87 0zm0 -43l87 0c27,0 49,9 65,27 15,17 22,37 22,60 0,23 -7,43 -21,60 -17,18 -39,27 -66,27l-108 0c-15,0 -22,-7 -22,-22l0 -260c0,-6 2,-11 6,-16 5,-4 10,-6 15,-6 6,0 11,2 15,5 5,4 7,10 7,17l0 108zm409 0l0 -108c0,-6 2,-11 6,-16 4,-4 10,-6 15,-6 6,0 11,2 15,5 5,4 7,10 7,17l0 260c0,7 -2,13 -6,17 -4,3 -9,5 -16,5 -5,0 -11,-2 -15,-5 -4,-4 -6,-9 -6,-17l0 -109 -131 0 0 109c0,7 -2,13 -6,17 -4,3 -9,5 -16,5 -5,0 -11,-2 -15,-5 -4,-4 -6,-9 -6,-17l0 -260c0,-6 2,-11 6,-16 4,-4 10,-6 15,-6 6,0 11,2 15,5 5,4 7,10 7,17l0 108 131 0zm364 152c0,7 -2,13 -6,17 -4,3 -9,5 -16,5 -5,0 -11,-2 -15,-5 -4,-4 -6,-9 -6,-17l0 -260c0,-6 2,-11 6,-16 4,-4 10,-6 15,-6 6,0 11,2 15,5 5,4 7,10 7,17l0 260zm-217 -109l0 88 43 0c13,0 24,-4 32,-13 8,-9 12,-19 12,-31 0,-12 -4,-22 -11,-30 -3,-4 -8,-7 -14,-10 -5,-2 -12,-4 -19,-4l-43 0zm0 -43l43 0c27,0 49,9 65,27 15,17 22,37 22,60 0,23 -7,43 -22,60 -16,18 -38,27 -65,27l-65 0c-14,0 -22,-7 -22,-22l0 -260c0,-6 3,-11 7,-16 4,-4 9,-6 15,-6 6,0 11,2 15,5 4,4 7,10 7,17l0 108zm413 22l79 118 3 7 0 6c0,5 -2,11 -6,15l-4 3 -4 2 -8 1c-7,0 -12,-3 -18,-9l-68 -103 -69 102c-4,7 -10,10 -18,10 -5,0 -10,-2 -15,-6 -5,-5 -7,-10 -7,-16 0,-4 1,-8 3,-12l79 -118 -79 -118 -3 -7 0 -6c0,-5 2,-10 6,-15 5,-4 10,-6 17,-6 6,0 11,3 17,10l69 103 68 -103c5,-7 11,-10 18,-10 4,0 10,2 16,7 4,4 6,9 6,15 0,4 -1,8 -3,12l-79 118zm-3354 612c0,26 -9,49 -27,68 -19,19 -42,28 -68,28l-26 0c-26,0 -49,-9 -68,-28 -18,-18 -28,-41 -28,-68l0 -113c0,-25 9,-47 28,-66 19,-20 41,-29 68,-29l26 0c26,0 48,9 67,28 19,18 28,41 28,67l0 113zm-43 1l0 -114c0,-14 -5,-26 -15,-36 -10,-11 -22,-16 -37,-16l-26 0c-15,0 -27,5 -37,15 -11,10 -16,23 -16,37l0 114c0,14 5,26 16,36 10,11 22,16 37,16l26 0c14,0 26,-5 37,-15 10,-10 15,-23 15,-37zm192 -47l-49 51 0 69c0,7 -2,13 -6,17 -4,3 -10,5 -16,5 -6,0 -11,-2 -15,-5 -4,-4 -7,-9 -7,-17l0 -260c0,-6 3,-11 7,-16 4,-4 9,-6 15,-6 6,0 11,2 15,6 4,3 7,9 7,16l0 128 137 -144c4,-5 9,-7 14,-7 5,0 10,2 16,7 4,4 6,10 6,16 0,6 -2,12 -7,16l-87 92 89 138c4,6 5,11 5,15 0,6 -2,11 -7,15 -4,5 -9,7 -15,7 -6,0 -11,-3 -16,-9l-86 -134zm233 99l87 0c12,0 22,-4 31,-12 8,-8 13,-19 13,-32l0 -130c0,-13 -4,-23 -13,-31 -8,-9 -18,-13 -31,-13l-87 0 0 218zm0 43l0 109c0,6 -2,11 -7,15 -4,4 -9,6 -15,6 -5,0 -9,-2 -14,-5 -5,-4 -7,-9 -7,-16l0 -391c0,-15 7,-22 21,-22l109 0c24,0 44,8 61,25 17,17 26,38 26,62l0 130c0,24 -9,44 -26,61 -17,17 -37,26 -61,26l-87 0zm408 0l-86 0c-24,0 -44,-8 -62,-25 -17,-17 -25,-37 -25,-62l0 -195c0,-6 2,-12 6,-17 4,-3 9,-5 15,-5 6,0 11,2 15,5 4,4 7,9 7,17l0 195c0,13 4,23 12,31 5,4 9,7 14,10 6,2 12,3 17,3l87 0 0 -239c0,-6 3,-12 7,-17 4,-3 9,-5 15,-5 6,0 11,2 15,5 4,4 7,9 7,17l0 325c0,24 -9,44 -26,61 -16,18 -37,26 -61,26l-87 0c-5,0 -11,-2 -16,-6 -4,-5 -6,-10 -6,-15 0,-6 2,-11 6,-16 3,-4 9,-6 16,-6l87 0c12,0 23,-4 31,-12 8,-8 12,-19 12,-31l0 -44zm310 -20c-11,6 -25,12 -43,16l-24 3 -25 1 -30 -1 -27 -3c-16,-3 -29,-10 -39,-23 -11,-12 -16,-27 -16,-42 0,-10 2,-19 6,-28 4,-9 10,-17 18,-24l139 -96c5,-3 7,-8 7,-13 0,-9 -8,-16 -23,-21 -15,-6 -31,-8 -49,-8 -14,0 -27,1 -38,3 -11,3 -20,7 -27,13 -4,2 -8,4 -14,5 -4,0 -9,-3 -15,-7 -4,-4 -6,-10 -6,-16 0,-7 3,-12 9,-17 9,-7 22,-12 41,-17 8,-2 17,-4 27,-5 9,-1 18,-2 28,-2 5,0 11,1 16,1 5,0 11,0 18,1 7,1 14,3 24,6 15,4 28,12 38,24 10,12 15,25 15,39 0,18 -8,34 -25,49l-139 95c-5,5 -7,11 -7,17 0,5 2,10 5,15 4,5 9,8 15,9l23 2 26 1c16,0 30,-1 40,-3 4,-1 9,-2 15,-4 6,-2 11,-5 16,-8l4 -2c2,-1 5,-1 8,-1 5,0 10,2 15,7 4,5 6,10 6,16 0,7 -4,13 -12,18zm289 -76c0,26 -9,49 -27,68 -19,19 -42,28 -68,28l-26 0c-26,0 -49,-9 -68,-28 -18,-18 -28,-41 -28,-68l0 -113c0,-25 9,-47 28,-66 19,-20 41,-29 68,-29l26 0c26,0 48,9 67,28 19,18 28,41 28,67l0 113zm-43 1l0 -114c0,-14 -5,-26 -15,-36 -10,-11 -22,-16 -37,-16l-26 0c-15,0 -27,5 -37,15 -11,10 -16,23 -16,37l0 114c0,14 5,26 16,36 10,11 22,16 37,16l26 0c14,0 26,-5 37,-15 10,-10 15,-23 15,-37zm278 8l0 -130c0,-12 -4,-22 -12,-31 -9,-8 -19,-12 -32,-12l-43 0c-13,0 -23,4 -31,12 -5,4 -8,9 -10,14 -2,5 -3,11 -3,17l0 130c0,13 4,23 13,31 4,4 9,7 14,10 6,2 12,3 17,3l43 0c12,0 23,-4 31,-12 9,-8 13,-19 13,-32zm-131 -201l18 -12 26 -18c8,-7 14,-12 17,-16 6,-7 9,-14 9,-22 0,-10 -4,-18 -11,-25 -7,-6 -15,-9 -24,-9 -10,0 -18,3 -25,9 -7,6 -10,14 -10,25l0 68zm87 -15c28,0 50,9 65,25 15,16 22,36 22,61l0 130c0,24 -8,44 -25,61 -17,17 -38,26 -62,26l-43 0c-24,0 -44,-8 -61,-25 -17,-17 -26,-37 -26,-62l0 -269c0,-24 8,-44 24,-59 15,-13 33,-19 54,-19 20,0 38,6 54,20 16,14 24,33 24,58 0,14 -2,24 -6,31 -4,8 -10,15 -20,22z"/>
   <path class="fil6 str0" d="M3827 4490l130 0c12,0 22,-4 31,-12 8,-8 13,-19 13,-32l0 -87c0,-12 -5,-22 -13,-31 -8,-8 -18,-12 -31,-12l-130 0 0 174zm0 43l0 152c0,7 -2,13 -7,17 -3,3 -9,5 -15,5 -6,0 -11,-2 -15,-5 -4,-4 -7,-10 -7,-17l0 -391c0,-14 8,-21 22,-21l152 0c24,0 45,8 62,25 16,17 25,37 25,61l0 87c0,24 -9,44 -26,61 -17,17 -37,26 -61,26l-130 0zm321 1l131 0 0 -44c0,-12 -4,-23 -13,-31 -8,-9 -18,-13 -31,-13l-44 0c-12,0 -22,4 -31,12 -4,5 -7,9 -9,15 -2,5 -3,11 -3,17l0 44zm0 43l0 43c0,12 4,23 12,31 5,4 9,7 14,10 6,2 12,3 17,3l109 0c6,0 11,2 15,6 5,5 7,10 7,15 0,5 -2,10 -6,15 -3,5 -9,7 -16,7l-108 0c-24,0 -44,-9 -62,-25 -17,-17 -25,-38 -25,-62l0 -130c0,-24 8,-44 25,-61 17,-18 37,-26 62,-26l43 0c24,0 44,8 61,25 17,17 26,38 26,62l0 65c0,14 -7,22 -22,22l-152 0zm408 87l87 0 0 -240c0,-5 2,-11 6,-16 5,-3 10,-5 15,-5 6,0 11,2 16,5 4,4 6,9 6,16l0 261c0,15 -7,22 -22,22l-195 0c-23,0 -43,-8 -61,-25 -17,-17 -26,-37 -26,-62l0 -196c0,-5 3,-11 7,-16 4,-3 9,-5 15,-5 6,0 11,2 15,5 4,4 7,9 7,16l0 196c0,12 4,23 12,31 4,4 9,7 14,10 6,2 12,3 17,3l44 0 0 -240c0,-5 2,-11 6,-16 4,-3 9,-5 15,-5 6,0 11,2 15,5 5,4 7,9 7,16l0 240zm234 -130l131 0 0 -44c0,-12 -4,-23 -12,-31 -9,-9 -19,-13 -32,-13l-43 0c-12,0 -23,4 -31,12 -4,5 -8,9 -10,15 -2,5 -3,11 -3,17l0 44zm0 43l0 43c0,12 4,23 13,31 4,4 9,7 14,10 6,2 12,3 17,3l108 0c6,0 12,2 16,6 4,5 6,10 6,15 0,5 -2,10 -5,15 -4,5 -9,7 -17,7l-108 0c-24,0 -44,-9 -61,-25 -17,-17 -26,-38 -26,-62l0 -130c0,-24 8,-44 25,-61 17,-18 37,-26 62,-26l43 0c24,0 44,8 61,25 18,17 26,38 26,62l0 65c0,14 -7,22 -22,22l-152 0zm409 -44l0 -109c0,-5 2,-11 6,-16 5,-3 10,-5 15,-5 6,0 11,2 15,5 5,4 7,9 7,16l0 261c0,7 -2,13 -6,17 -4,3 -9,5 -16,5 -5,0 -10,-2 -15,-6 -4,-3 -6,-9 -6,-16l0 -109 -131 0 0 109c0,7 -2,13 -6,17 -4,3 -9,5 -16,5 -5,0 -10,-2 -15,-5 -4,-4 -6,-10 -6,-17l0 -261c0,-5 2,-11 6,-16 5,-3 10,-5 15,-5 6,0 11,2 15,5 5,4 7,9 7,16l0 109 131 0zm321 152c0,15 -7,22 -22,22l-108 0c-24,0 -44,-8 -61,-25 -18,-17 -26,-37 -26,-62l0 -196c0,-5 2,-11 6,-16 4,-3 10,-5 15,-5 6,0 11,2 15,5 5,4 7,9 7,16l0 196c0,12 4,23 12,31 5,4 9,7 14,10 7,2 12,3 17,3l88 0 0 -240c0,-5 2,-11 6,-16 4,-3 9,-5 15,-5 6,0 11,2 15,5 5,4 7,9 7,16l0 261zm104 -151l130 0 0 -44c0,-12 -4,-23 -12,-31 -8,-9 -18,-13 -31,-13l-44 0c-12,0 -22,4 -31,12 -4,5 -7,9 -9,15 -2,5 -3,11 -3,17l0 44zm0 43l0 43c0,12 4,23 12,31 4,4 9,7 14,10 6,2 12,3 17,3l109 0c6,0 11,2 15,6 4,5 7,10 7,15 0,5 -2,10 -6,15 -3,5 -9,7 -16,7l-109 0c-23,0 -44,-9 -61,-25 -17,-17 -26,-38 -26,-62l0 -130c0,-24 9,-44 26,-61 16,-18 37,-26 61,-26l44 0c23,0 44,8 61,25 17,17 26,38 26,62l0 65c0,14 -8,22 -22,22l-152 0zm738 34c0,26 -9,49 -28,68 -18,19 -41,28 -68,28l-26 0c-26,0 -48,-9 -67,-28 -19,-18 -28,-41 -28,-68l0 -113c0,-25 9,-47 28,-67 18,-19 41,-28 67,-28l26 0c26,0 49,9 68,28 18,18 28,41 28,67l0 113zm-43 0l0 -113c0,-14 -5,-26 -15,-37 -10,-10 -23,-15 -38,-15l-26 0c-14,0 -26,5 -37,15 -10,10 -15,23 -15,37l0 113c0,15 5,27 15,37 10,11 23,16 37,16l26 0c15,0 27,-5 37,-15 11,-10 16,-23 16,-38zm564 -78l0 -109c0,-5 2,-11 6,-16 5,-3 10,-5 16,-5 5,0 10,2 15,5 4,4 6,9 6,16l0 261c0,7 -2,13 -6,17 -4,3 -9,5 -15,5 -6,0 -11,-2 -16,-6 -4,-3 -6,-9 -6,-16l0 -109 -131 0 0 109c0,7 -2,13 -6,17 -4,3 -9,5 -15,5 -6,0 -11,-2 -15,-5 -5,-4 -7,-10 -7,-17l0 -261c0,-5 2,-11 7,-16 4,-3 9,-5 15,-5 5,0 10,2 15,5 4,4 6,9 6,16l0 109 131 0zm278 87l0 -174 -87 0c-13,0 -23,4 -31,12 -5,5 -8,9 -10,15 -2,5 -3,11 -3,17l0 130c0,12 4,23 13,31 4,4 9,7 13,10 7,2 12,3 18,3l43 0c12,0 23,-4 31,-12 9,-8 13,-19 13,-32zm21 58c-7,8 -17,15 -29,21 -12,5 -24,8 -36,8l-43 0c-24,0 -44,-8 -61,-25 -17,-17 -26,-37 -26,-62l0 -130c0,-24 8,-45 25,-62 17,-17 38,-25 62,-25l108 0c15,0 22,7 22,21l0 196c0,8 3,17 8,26 5,8 13,15 22,19 9,4 14,10 14,20 0,6 -2,11 -7,15 -3,5 -8,7 -15,7 -3,0 -6,-1 -9,-2 -14,-6 -26,-15 -35,-27zm197 -102l-27 0c-7,0 -12,-2 -16,-6 -4,-4 -6,-10 -6,-15 0,-6 2,-10 6,-15 4,-5 9,-7 16,-7l22 0c13,0 23,-4 31,-13 8,-9 12,-19 12,-31 0,-12 -3,-22 -11,-30 -3,-4 -8,-7 -13,-9 -6,-3 -12,-4 -19,-4l-22 0c-20,0 -38,6 -52,18 -4,2 -8,4 -14,5 -4,0 -9,-3 -15,-7 -4,-5 -6,-10 -6,-16 0,-7 3,-13 9,-17 22,-18 48,-26 78,-26l21 0c28,0 49,9 66,27 14,16 21,36 21,60 0,7 0,13 -1,18 -1,6 -3,12 -6,17 -4,11 -11,20 -20,30 8,7 15,17 20,29l5 18c2,5 2,12 2,18 0,24 -7,44 -21,60 -16,18 -38,27 -66,27l-21 0c-29,0 -55,-9 -78,-26 -6,-4 -9,-10 -9,-17 0,-5 2,-10 6,-15 5,-6 10,-8 15,-8 4,0 9,2 14,5 15,12 32,18 52,18l22 0c13,0 23,-5 31,-14 8,-8 12,-19 12,-30 0,-12 -3,-21 -9,-29 -7,-8 -16,-13 -29,-15zm316 -43l0 -109c0,-5 2,-11 6,-16 5,-3 10,-5 15,-5 6,0 11,2 15,5 5,4 7,9 7,16l0 261c0,7 -2,13 -6,17 -4,3 -9,5 -16,5 -5,0 -10,-2 -15,-6 -4,-3 -6,-9 -6,-16l0 -109 -131 0 0 109c0,7 -2,13 -6,17 -4,3 -9,5 -16,5 -5,0 -10,-2 -15,-5 -4,-4 -6,-10 -6,-17l0 -261c0,-5 2,-11 6,-16 5,-3 10,-5 15,-5 6,0 11,2 15,5 5,4 7,9 7,16l0 109 131 0zm278 87l0 -174 -88 0c-12,0 -22,4 -31,12 -4,5 -7,9 -9,15 -2,5 -3,11 -3,17l0 130c0,12 4,23 12,31 5,4 9,7 14,10 6,2 12,3 17,3l44 0c12,0 22,-4 31,-12 8,-8 13,-19 13,-32zm21 58c-7,8 -17,15 -29,21 -12,5 -24,8 -36,8l-44 0c-23,0 -43,-8 -61,-25 -17,-17 -25,-37 -25,-62l0 -130c0,-24 8,-45 25,-62 17,-17 37,-25 61,-25l109 0c15,0 22,7 22,21l0 196c0,8 2,17 8,26 5,8 12,15 22,19 9,4 13,10 13,20 0,6 -2,11 -6,15 -4,5 -9,7 -15,7 -3,0 -6,-1 -9,-2 -14,-6 -26,-15 -35,-27zm256 -145l0 -109c0,-5 2,-11 7,-16 4,-3 9,-5 15,-5 5,0 11,2 15,5 4,4 7,9 7,16l0 261c0,7 -2,13 -7,17 -4,3 -9,5 -15,5 -6,0 -11,-2 -15,-6 -5,-3 -7,-9 -7,-16l0 -109 -87 0c-23,0 -43,-8 -61,-25 -17,-17 -26,-37 -26,-62l0 -65c0,-5 2,-11 7,-16 4,-3 9,-5 15,-5 5,0 11,2 15,5 4,4 7,9 7,16l0 66c0,12 4,22 12,31 4,3 9,6 14,9 6,2 12,3 17,3l87 0zm147 1l131 0 0 -44c0,-12 -4,-23 -12,-31 -8,-9 -19,-13 -31,-13l-44 0c-12,0 -23,4 -31,12 -4,5 -7,9 -10,15 -2,5 -3,11 -3,17l0 44zm0 43l0 43c0,12 4,23 13,31 4,4 9,7 14,10 6,2 12,3 17,3l109 0c6,0 11,2 15,6 4,5 6,10 6,15 0,5 -1,10 -5,15 -4,5 -9,7 -16,7l-109 0c-24,0 -44,-9 -61,-25 -17,-17 -26,-38 -26,-62l0 -130c0,-24 9,-44 25,-61 17,-18 38,-26 62,-26l43 0c24,0 44,8 62,25 17,17 25,38 25,62l0 65c0,14 -7,22 -21,22l-153 0zm409 -44l0 -109c0,-5 2,-11 6,-16 5,-3 10,-5 16,-5 5,0 10,2 14,5 5,4 7,9 7,16l0 261c0,7 -2,13 -6,17 -4,3 -9,5 -15,5 -6,0 -11,-2 -16,-6 -4,-3 -6,-9 -6,-16l0 -109 -131 0 0 109c0,7 -2,13 -6,17 -4,3 -9,5 -15,5 -6,0 -11,-2 -16,-5 -4,-4 -6,-10 -6,-17l0 -261c0,-5 2,-11 6,-16 5,-3 10,-5 16,-5 5,0 10,2 14,5 5,4 7,9 7,16l0 109 131 0zm321 152c0,15 -7,22 -22,22l-108 0c-24,0 -44,-8 -61,-25 -18,-17 -26,-37 -26,-62l0 -196c0,-5 2,-11 6,-16 5,-3 10,-5 15,-5 6,0 11,2 15,5 5,4 7,9 7,16l0 196c0,12 4,23 12,31 5,4 9,7 14,10 7,2 12,3 18,3l87 0 0 -240c0,-5 2,-11 6,-16 5,-3 10,-5 15,-5 6,0 11,2 15,5 5,4 7,9 7,16l0 261zm278 0c0,15 -7,22 -22,22l-109 0c-23,0 -43,-8 -61,-25 -17,-17 -25,-37 -25,-62l0 -196c0,-5 2,-11 6,-16 4,-3 9,-5 15,-5 6,0 11,2 15,5 5,4 7,9 7,16l0 196c0,12 4,23 12,31 5,4 9,7 14,10 6,2 12,3 17,3l88 0 0 -240c0,-5 2,-11 6,-16 4,-3 9,-5 15,-5 6,0 11,2 15,5 4,4 7,9 7,16l0 261zm521 -65l0 -130c0,-12 -4,-23 -12,-31 -9,-8 -19,-13 -32,-13l-43 0c-13,0 -23,5 -31,13 -5,4 -8,9 -10,14 -2,5 -3,11 -3,17l0 130c0,13 4,23 13,31 4,4 9,7 13,10 7,2 12,3 18,3l43 0c12,0 23,-4 31,-12 9,-8 13,-19 13,-32zm-131 -202l18 -11 26 -18c8,-7 14,-12 17,-16 6,-7 9,-14 9,-22 0,-10 -4,-18 -11,-25 -7,-6 -15,-9 -24,-9 -10,0 -18,3 -25,9 -7,6 -10,14 -10,25l0 67zm87 -14c28,0 50,9 65,25 15,16 22,36 22,61l0 130c0,24 -8,44 -25,61 -17,17 -38,26 -62,26l-43 0c-24,0 -44,-8 -61,-25 -17,-17 -26,-37 -26,-62l0 -269c0,-24 8,-44 24,-59 15,-13 33,-19 54,-19 20,0 38,6 54,20 16,14 24,33 24,58 0,14 -2,24 -6,31 -4,8 -10,15 -20,22zm408 281c0,7 -2,13 -6,17 -4,3 -9,5 -16,5 -5,0 -10,-2 -15,-5 -4,-4 -6,-10 -6,-17l0 -261c0,-5 2,-11 6,-16 5,-3 10,-5 15,-5 6,0 11,2 15,5 5,4 7,9 7,16l0 261zm-217 -109l0 88 43 0c14,0 24,-5 32,-14 8,-8 12,-19 12,-30 0,-12 -4,-22 -11,-30 -3,-4 -8,-8 -13,-10 -6,-3 -12,-4 -20,-4l-43 0zm0 -43l43 0c28,0 49,9 65,27 15,16 22,36 22,60 0,23 -7,43 -21,60 -17,18 -38,27 -66,27l-65 0c-14,0 -21,-7 -21,-22l0 -261c0,-5 2,-11 6,-16 4,-3 10,-5 15,-5 6,0 11,2 15,5 5,4 7,9 7,16l0 109zm452 87l0 -130c0,-13 -4,-23 -12,-31 -9,-9 -19,-13 -32,-13l-43 0c-13,0 -23,4 -31,12 -5,5 -8,9 -10,15 -2,5 -3,11 -3,17l0 130c0,12 4,23 13,31 4,4 9,7 13,10 7,2 12,3 18,3l43 0c12,0 23,-4 31,-12 9,-8 13,-19 13,-32zm-70 -217l-98 -93c-5,-6 -7,-12 -7,-18 0,-4 1,-9 5,-13 4,-4 10,-6 18,-6l173 0c6,0 11,2 16,6 4,5 6,10 6,15 0,5 -2,10 -5,15 -4,4 -9,7 -17,7l-119 0 115 110 5 7c14,16 21,35 21,57l0 130c0,24 -8,44 -25,61 -17,17 -38,26 -62,26l-43 0c-24,0 -44,-8 -61,-25 -17,-17 -26,-37 -26,-62l0 -130c0,-24 8,-45 25,-62 17,-17 38,-25 62,-25l17 0zm391 208c0,26 -9,49 -28,68 -18,19 -41,28 -68,28l-26 0c-26,0 -48,-9 -67,-28 -19,-18 -28,-41 -28,-68l0 -113c0,-25 9,-47 28,-67 18,-19 41,-28 67,-28l26 0c26,0 49,9 67,28 19,18 29,41 29,67l0 113zm-43 0l0 -113c0,-14 -5,-26 -15,-37 -11,-10 -23,-15 -38,-15l-26 0c-14,0 -26,5 -37,15 -10,10 -15,23 -15,37l0 113c0,15 5,27 15,37 10,11 23,16 37,16l26 0c14,0 27,-5 37,-15 10,-10 16,-23 16,-38zm147 53l87 0c12,0 22,-4 31,-12 8,-8 12,-19 12,-32l0 -130c0,-13 -4,-23 -12,-31 -8,-9 -18,-13 -31,-13l-87 0 0 218zm0 43l0 108c0,6 -3,12 -7,16 -4,4 -9,6 -15,6 -5,0 -10,-2 -14,-5 -5,-4 -8,-9 -8,-17l0 -391c0,-14 8,-21 22,-21l109 0c23,0 44,8 61,25 17,17 26,37 26,62l0 130c0,24 -9,44 -26,61 -17,17 -37,26 -61,26l-87 0zm451 -96c0,26 -9,49 -27,68 -19,19 -41,28 -68,28l-26 0c-26,0 -48,-9 -67,-28 -19,-18 -29,-41 -29,-68l0 -113c0,-25 10,-47 28,-67 19,-19 41,-28 68,-28l26 0c26,0 48,9 67,28 19,18 28,41 28,67l0 113zm-43 0l0 -113c0,-14 -5,-26 -15,-37 -10,-10 -22,-15 -37,-15l-26 0c-15,0 -27,5 -37,15 -10,10 -16,23 -16,37l0 113c0,15 6,27 16,37 10,11 22,16 37,16l26 0c14,0 26,-5 37,-15 10,-10 15,-23 15,-38zm278 9l0 -130c0,-12 -4,-23 -12,-31 -8,-8 -19,-13 -32,-13l-43 0c-12,0 -23,5 -31,13 -4,4 -8,9 -10,14 -2,5 -3,11 -3,17l0 130c0,13 4,23 13,31 4,4 9,7 14,10 6,2 12,3 17,3l43 0c12,0 23,-4 31,-12 9,-8 13,-19 13,-32zm-131 -202l18 -11 26 -18c8,-7 14,-12 18,-16 5,-7 8,-14 8,-22 0,-10 -3,-18 -11,-25 -7,-6 -15,-9 -24,-9 -9,0 -18,3 -25,9 -6,6 -10,14 -10,25l0 67zm87 -14c28,0 50,9 66,25 14,16 21,36 21,61l0 130c0,24 -8,44 -25,61 -17,17 -38,26 -62,26l-43 0c-23,0 -44,-8 -61,-25 -17,-17 -26,-37 -26,-62l0 -269c0,-24 8,-44 24,-59 15,-13 33,-19 54,-19 20,0 38,6 54,20 16,14 24,33 24,58 0,14 -2,24 -6,31 -3,8 -10,15 -20,22z"/>
   <path class="fil6 str0" d="M4122 12842l130 0c12,0 22,-4 31,-12 8,-8 13,-19 13,-31l0 -87c0,-13 -5,-23 -13,-31 -8,-9 -18,-13 -31,-13l-130 0 0 174zm0 43l0 152c0,7 -2,13 -7,17 -4,3 -9,5 -15,5 -6,0 -11,-2 -15,-5 -5,-4 -7,-9 -7,-17l0 -390c0,-15 8,-22 22,-22l152 0c24,0 45,8 61,25 17,17 26,38 26,62l0 86c0,24 -9,45 -26,62 -17,17 -37,25 -61,25l-130 0zm321 1l131 0 0 -44c0,-12 -5,-23 -13,-31 -8,-9 -18,-13 -31,-13l-44 0c-12,0 -22,4 -31,13 -4,4 -7,9 -9,14 -2,5 -3,11 -3,17l0 44zm0 43l0 44c0,12 4,22 12,31 5,3 9,6 14,9 6,2 12,3 17,3l109 0c6,0 11,2 15,7 5,4 7,9 7,15 0,5 -2,9 -6,14 -3,5 -9,7 -16,7l-109 0c-23,0 -43,-8 -61,-25 -17,-17 -25,-37 -25,-62l0 -130c0,-23 8,-44 25,-61 16,-17 37,-26 61,-26l44 0c23,0 44,8 61,25 17,17 26,38 26,62l0 65c0,15 -7,22 -22,22l-152 0zm408 87l87 0 0 -239c0,-6 2,-11 6,-16 4,-4 10,-6 15,-6 6,0 11,2 15,5 5,4 7,10 7,17l0 260c0,15 -7,22 -22,22l-195 0c-23,0 -44,-8 -61,-25 -17,-17 -26,-37 -26,-62l0 -195c0,-6 2,-11 7,-16 4,-4 9,-6 15,-6 5,0 11,2 15,5 4,4 7,10 7,17l0 196c0,12 4,22 12,31 4,3 9,6 14,9 6,2 12,3 17,3l44 0 0 -239c0,-6 2,-11 6,-16 4,-4 9,-6 15,-6 6,0 11,2 15,5 4,4 7,10 7,17l0 239zm234 -130l131 0 0 -44c0,-12 -4,-23 -12,-31 -9,-9 -19,-13 -32,-13l-43 0c-13,0 -23,4 -31,13 -5,4 -8,9 -10,14 -2,5 -3,11 -3,17l0 44zm0 43l0 44c0,12 4,22 12,31 5,3 10,6 15,9 6,2 11,3 17,3l108 0c6,0 12,2 16,7 4,4 6,9 6,15 0,5 -2,9 -5,14 -4,5 -9,7 -17,7l-108 0c-24,0 -44,-8 -61,-25 -18,-17 -26,-37 -26,-62l0 -130c0,-23 8,-44 25,-61 17,-17 37,-26 62,-26l43 0c24,0 44,8 61,25 18,17 26,38 26,62l0 65c0,15 -7,22 -22,22l-152 0zm409 -44l0 -108c0,-6 2,-11 6,-16 5,-4 10,-6 15,-6 6,0 11,2 15,5 5,4 7,10 7,17l0 260c0,7 -2,13 -6,17 -4,3 -9,5 -16,5 -5,0 -10,-2 -15,-5 -4,-4 -6,-9 -6,-17l0 -109 -131 0 0 109c0,7 -2,13 -6,17 -4,3 -9,5 -16,5 -5,0 -10,-2 -15,-5 -4,-4 -6,-9 -6,-17l0 -260c0,-6 2,-11 6,-16 5,-4 10,-6 15,-6 6,0 11,2 15,5 5,4 7,10 7,17l0 108 131 0zm321 152c0,15 -8,22 -22,22l-109 0c-23,0 -43,-8 -61,-25 -17,-17 -25,-37 -25,-62l0 -195c0,-6 2,-11 6,-16 4,-4 9,-6 15,-6 6,0 11,2 15,5 4,4 7,10 7,17l0 196c0,12 4,22 12,31 5,3 9,6 14,9 6,2 12,3 17,3l88 0 0 -239c0,-6 2,-11 6,-16 4,-4 9,-6 15,-6 6,0 11,2 15,5 4,4 7,10 7,17l0 260zm104 -151l130 0 0 -44c0,-12 -4,-23 -12,-31 -8,-9 -19,-13 -31,-13l-44 0c-12,0 -23,4 -31,13 -4,4 -7,9 -9,14 -2,5 -3,11 -3,17l0 44zm0 43l0 44c0,12 4,22 12,31 4,3 9,6 14,9 6,2 12,3 17,3l109 0c6,0 11,2 15,7 4,4 6,9 6,15 0,5 -1,9 -5,14 -4,5 -9,7 -16,7l-109 0c-23,0 -44,-8 -61,-25 -17,-17 -26,-37 -26,-62l0 -130c0,-23 9,-44 25,-61 17,-17 38,-26 62,-26l44 0c23,0 44,8 61,25 17,17 25,38 25,62l0 65c0,15 -7,22 -21,22l-152 0zm608 -12l-49 51 0 69c0,7 -2,13 -6,17 -4,3 -9,5 -15,5 -6,0 -11,-2 -15,-5 -5,-4 -7,-9 -7,-17l0 -260c0,-6 2,-11 7,-16 4,-4 9,-6 15,-6 5,0 10,2 15,6 4,3 6,9 6,16l0 128 138 -144c4,-4 9,-7 14,-7 5,0 10,3 15,7 5,4 7,10 7,16 0,6 -2,12 -7,17l-87 91 89 138c3,6 5,11 5,15 0,6 -2,11 -7,15 -5,5 -10,7 -15,7 -6,0 -11,-3 -16,-9l-87 -134zm386 47c0,25 -10,48 -28,67 -19,19 -41,28 -68,28l-26 0c-26,0 -48,-9 -67,-27 -19,-19 -29,-42 -29,-68l0 -113c0,-26 10,-48 28,-67 19,-19 42,-29 68,-29l26 0c26,0 48,9 67,28 19,18 29,41 29,68l0 113zm-44 0l0 -114c0,-14 -5,-26 -15,-36 -10,-11 -22,-16 -37,-16l-26 0c-14,0 -27,5 -37,15 -10,11 -15,23 -15,37l0 114c0,14 5,26 15,37 10,10 22,15 37,15l26 0c14,0 26,-5 37,-15 10,-10 15,-22 15,-37zm365 73l0 -260c0,-8 -2,-14 -6,-19 -4,-4 -8,-6 -14,-6 -6,0 -13,4 -20,12l-91 128 -90 -128c-6,-8 -13,-12 -21,-12 -4,0 -9,2 -13,7 -4,4 -6,10 -6,18l0 260c0,7 2,13 6,17 4,3 9,5 16,5 5,0 10,-2 14,-6 5,-3 7,-9 7,-16l0 -192 70 97c5,7 11,11 17,11 6,0 12,-4 18,-11l69 -97 0 192c0,7 2,13 7,17 3,3 9,5 15,5 5,0 10,-2 15,-6 4,-3 7,-9 7,-16zm278 0c0,15 -8,22 -22,22l-109 0c-23,0 -43,-8 -61,-25 -17,-17 -26,-37 -26,-62l0 -195c0,-6 3,-11 7,-16 4,-4 9,-6 15,-6 6,0 11,2 15,5 4,4 7,10 7,17l0 196c0,12 4,22 12,31 4,3 9,6 14,9 6,2 12,3 17,3l87 0 0 -239c0,-6 3,-11 7,-16 4,-4 9,-6 15,-6 5,0 11,2 15,5 4,4 7,10 7,17l0 260zm212 22l-65 0c-23,0 -44,-8 -61,-25 -17,-17 -26,-37 -26,-62l0 -130c0,-24 9,-45 26,-62 17,-17 37,-25 61,-25l65 0c6,0 12,2 16,7 4,4 6,9 6,15 0,5 -2,9 -5,14 -4,5 -9,7 -17,7l-65 0c-12,0 -23,4 -31,13 -4,4 -7,8 -10,14 -2,5 -3,11 -3,17l0 130c0,13 5,23 13,32 4,3 9,6 14,9 6,2 12,3 17,3l65 0c6,0 11,2 16,7 4,4 6,9 6,15 0,5 -2,9 -5,14 -4,5 -9,7 -17,7zm235 0l-65 0c-24,0 -44,-8 -61,-25 -18,-17 -26,-37 -26,-62l0 -130c0,-24 8,-45 25,-62 17,-17 38,-25 62,-25l65 0c6,0 11,2 15,7 4,4 7,9 7,15 0,5 -2,9 -6,14 -4,5 -9,7 -16,7l-66 0c-12,0 -22,4 -31,13 -4,4 -7,8 -9,14 -2,5 -3,11 -3,17l0 130c0,13 4,23 12,32 5,3 9,6 14,9 7,2 12,3 17,3l66 0c6,0 11,2 15,7 4,4 7,9 7,15 0,5 -2,9 -6,14 -4,5 -9,7 -16,7zm299 -22c0,15 -7,22 -21,22l-109 0c-23,0 -44,-8 -61,-25 -17,-17 -26,-37 -26,-62l0 -195c0,-6 2,-11 6,-16 5,-4 10,-6 16,-6 5,0 10,2 15,5 4,4 6,10 6,17l0 196c0,12 4,22 13,31 4,3 9,6 14,9 6,2 12,3 17,3l87 0 0 -239c0,-6 2,-11 6,-16 5,-4 10,-6 16,-6 5,0 10,2 15,5 4,4 6,10 6,17l0 260zm213 -369l-87 0c-7,0 -12,-2 -16,-6 -4,-5 -6,-10 -6,-16 0,-5 2,-9 6,-14 3,-5 9,-7 16,-7l87 0c6,0 11,2 15,7 4,4 7,9 7,14 0,5 -2,10 -6,15 -4,5 -9,7 -16,7zm65 369c0,15 -7,22 -22,22l-108 0c-24,0 -44,-8 -61,-25 -17,-17 -26,-37 -26,-62l0 -195c0,-6 2,-11 6,-16 5,-4 10,-6 15,-6 6,0 11,2 15,6 5,3 7,9 7,16l0 196c0,12 4,22 13,31 4,3 8,6 13,9 7,2 12,3 18,3l87 0 0 -239c0,-6 2,-11 6,-16 5,-4 10,-6 15,-6 6,0 11,2 15,6 5,3 7,9 7,16l0 260z"/>
   <path class="fil6 str0" d="M13149 6968l-65 0c-24,0 -44,-9 -61,-26 -18,-16 -26,-37 -26,-61l0 -131c0,-24 8,-44 25,-61 17,-17 38,-26 62,-26l65 0c6,0 11,3 15,7 5,4 7,10 7,15 0,5 -2,10 -6,15 -3,4 -9,7 -16,7l-65 0c-13,0 -23,4 -32,12 -4,4 -7,9 -9,14 -2,6 -3,11 -3,17l0 131c0,12 4,22 12,31 5,4 9,7 14,9 7,2 12,3 18,3l65 0c6,0 11,3 15,7 5,4 7,10 7,15 0,5 -2,10 -6,15 -3,4 -9,7 -16,7zm543 0l-87 0c-24,0 -44,-9 -61,-26 -18,-16 -26,-37 -26,-61l0 -196c0,-6 2,-11 6,-16 4,-4 10,-6 15,-6 6,0 11,2 15,6 5,4 7,9 7,16l0 196c0,12 4,22 12,31 5,4 9,7 14,9 7,2 12,3 17,3l88 0 0 -239c0,-6 2,-11 6,-16 4,-4 10,-6 15,-6 6,0 11,2 15,6 5,3 7,9 7,16l0 326c0,24 -9,44 -25,61 -17,17 -38,26 -62,26l-87 0c-5,0 -11,-2 -16,-7 -4,-4 -6,-9 -6,-15 0,-5 2,-11 6,-15 3,-4 9,-6 16,-6l87 0c12,0 23,-4 31,-13 8,-8 13,-18 13,-31l0 -43zm191 -142l-49 51 0 69c0,7 -2,12 -6,16 -4,4 -9,6 -15,6 -6,0 -11,-2 -15,-6 -5,-3 -7,-9 -7,-16l0 -261c0,-5 2,-11 7,-16 4,-3 9,-5 15,-5 5,0 10,2 15,5 4,4 6,9 6,16l0 129 138 -145c4,-4 8,-6 14,-6 5,0 10,2 15,6 5,5 7,10 7,17 0,6 -3,11 -7,16l-87 92 89 138c3,6 5,11 5,15 0,6 -3,11 -7,15 -5,4 -10,6 -16,6 -5,0 -10,-2 -15,-8l-87 -134zm342 55l0 -174 -87 0c-12,0 -23,4 -31,12 -4,4 -7,9 -9,14 -2,6 -4,11 -4,17l0 131c0,12 5,22 13,31 4,4 9,7 14,9 6,2 12,3 17,3l44 0c12,0 22,-4 30,-12 9,-8 13,-18 13,-31zm22 58c-7,8 -17,15 -29,20 -12,6 -24,9 -36,9l-44 0c-23,0 -44,-9 -61,-26 -17,-16 -26,-37 -26,-61l0 -131c0,-24 9,-44 26,-61 17,-17 37,-26 61,-26l109 0c14,0 21,8 21,22l0 195c0,9 3,18 9,27 5,8 12,14 21,19 10,4 14,10 14,19 0,7 -2,12 -6,16 -4,4 -9,7 -16,7 -3,0 -6,-1 -9,-2 -14,-6 -25,-15 -34,-27zm197 -102l-28 0c-6,0 -12,-2 -16,-6 -4,-5 -6,-10 -6,-16 0,-5 2,-10 6,-14 4,-5 9,-7 16,-7l22 0c13,0 24,-5 32,-14 8,-8 11,-18 11,-30 0,-12 -3,-22 -10,-30 -4,-4 -8,-7 -14,-10 -5,-2 -12,-3 -19,-3l-22 0c-20,0 -37,6 -52,17 -4,3 -8,5 -13,5 -5,0 -10,-2 -15,-6 -5,-5 -7,-10 -7,-16 0,-7 3,-13 9,-17 22,-18 48,-27 78,-27l22 0c27,0 49,9 65,27 14,17 22,37 22,60 0,7 -1,13 -2,19 -1,6 -3,11 -5,17 -4,10 -11,20 -21,30 9,7 15,17 21,29l5 17c1,6 2,12 2,19 0,24 -8,44 -22,60 -15,18 -37,27 -65,27l-22 0c-29,0 -55,-9 -78,-26 -6,-5 -9,-11 -9,-18 0,-5 2,-9 7,-15 4,-5 9,-7 15,-7 4,0 8,1 13,5 15,12 33,17 52,17l22 0c13,0 24,-4 32,-13 7,-9 11,-19 11,-31 0,-11 -3,-20 -9,-28 -6,-8 -16,-13 -28,-15zm315 44l0 -174 -87 0c-12,0 -23,4 -31,12 -4,4 -7,9 -10,14 -2,6 -3,11 -3,17l0 131c0,12 4,22 13,31 4,4 9,7 14,9 6,2 12,3 17,3l44 0c12,0 22,-4 30,-12 9,-8 13,-18 13,-31zm21 58c-7,8 -16,15 -28,20 -12,6 -24,9 -36,9l-44 0c-23,0 -44,-9 -61,-26 -17,-16 -26,-37 -26,-61l0 -131c0,-24 9,-44 26,-61 17,-17 37,-26 61,-26l109 0c14,0 21,8 21,22l0 195c0,9 3,18 9,27 5,8 12,14 21,19 9,4 14,10 14,19 0,7 -2,12 -6,16 -4,4 -9,7 -16,7 -3,0 -6,-1 -9,-2 -14,-6 -25,-15 -35,-27zm257 -145l0 -109c0,-6 2,-11 6,-16 5,-4 10,-6 16,-6 5,0 10,2 14,6 5,4 7,9 7,16l0 261c0,7 -2,12 -6,16 -4,4 -9,6 -15,6 -6,0 -11,-2 -16,-6 -4,-3 -6,-9 -6,-16l0 -109 -131 0 0 109c0,7 -2,12 -6,16 -4,4 -9,6 -15,6 -6,0 -11,-2 -16,-6 -4,-3 -6,-9 -6,-16l0 -261c0,-6 2,-11 6,-16 5,-4 10,-6 16,-6 5,0 10,2 14,6 5,3 7,9 7,16l0 109 131 0zm321 152c0,14 -7,22 -22,22l-108 0c-24,0 -44,-9 -61,-26 -18,-16 -26,-37 -26,-61l0 -196c0,-6 2,-11 6,-16 5,-4 10,-6 15,-6 6,0 11,2 15,6 5,4 7,9 7,16l0 196c0,12 4,22 12,31 5,4 9,7 14,9 7,2 12,3 18,3l87 0 0 -239c0,-6 2,-11 6,-16 5,-4 10,-6 15,-6 6,0 11,2 15,6 5,4 7,9 7,16l0 261zm104 -152l131 0 0 -44c0,-12 -5,-22 -13,-31 -8,-8 -18,-12 -31,-12l-44 0c-12,0 -22,4 -31,12 -4,4 -7,9 -9,14 -2,6 -3,11 -3,17l0 44zm0 43l0 44c0,12 4,22 12,31 5,4 9,7 14,9 6,2 12,3 17,3l109 0c6,0 11,3 15,7 5,4 7,10 7,15 0,5 -2,10 -6,15 -3,4 -9,7 -16,7l-109 0c-23,0 -43,-9 -61,-26 -17,-16 -25,-37 -25,-61l0 -131c0,-23 8,-43 25,-61 16,-17 37,-26 61,-26l44 0c23,0 44,9 61,26 17,17 26,37 26,61l0 66c0,14 -7,21 -22,21l-152 0zm495 109l0 -261c0,-8 -2,-14 -6,-18 -4,-4 -8,-7 -14,-7 -6,0 -13,4 -20,13l-90 127 -91 -127c-6,-9 -13,-13 -20,-13 -5,0 -10,3 -14,7 -4,5 -6,11 -6,18l0 261c0,7 2,12 7,16 3,4 9,6 15,6 5,0 10,-2 15,-6 4,-4 7,-9 7,-16l0 -193 69 97c6,8 12,12 18,12 5,0 11,-4 17,-12l70 -97 0 193c0,7 2,12 6,16 4,4 9,6 15,6 5,0 10,-2 15,-6 4,-4 7,-9 7,-16zm-2509 556c0,14 -7,21 -22,21l-108 0c-23,0 -44,-8 -61,-25 -17,-16 -26,-37 -26,-61l0 -196c0,-6 2,-11 6,-16 5,-4 10,-6 16,-6 5,0 10,2 15,6 4,3 6,9 6,16l0 196c0,12 4,22 13,31 4,4 9,7 14,9 6,2 12,3 17,3l87 0 0 -239c0,-6 2,-11 6,-16 5,-4 10,-6 16,-6 5,0 10,2 15,6 4,3 6,9 6,16l0 261zm196 -130l79 118 4 6 0 6c0,6 -3,11 -7,15l-4 3 -4 2 -8 1c-6,0 -12,-3 -18,-9l-68 -103 -69 103c-4,6 -10,9 -18,9 -4,0 -9,-2 -15,-6 -5,-4 -7,-10 -7,-16 0,-3 1,-7 4,-12l78 -118 -79 -118 -3 -6 0 -6c0,-6 2,-11 6,-15 5,-5 10,-7 17,-7 6,0 12,3 17,10l69 103 68 -103c5,-6 11,-10 18,-10 5,0 10,3 16,7 4,4 7,10 7,15 0,4 -2,8 -4,12l-79 119zm635 132c-11,6 -26,11 -43,15l-24 4 -25 0 -31 0 -26 -4c-16,-2 -29,-10 -39,-22 -11,-13 -16,-27 -16,-43 0,-9 2,-18 6,-27 3,-9 9,-18 18,-25l139 -95c4,-4 7,-8 7,-13 0,-9 -8,-17 -23,-22 -15,-5 -31,-8 -49,-8 -14,0 -27,2 -38,4 -11,2 -20,6 -27,12 -4,3 -9,4 -14,5 -4,0 -9,-2 -15,-6 -4,-5 -6,-10 -6,-16 0,-7 3,-13 9,-17 9,-7 22,-13 40,-17 9,-2 18,-4 28,-5 9,-2 18,-2 27,-2 6,0 12,0 17,0 5,0 11,1 18,2 6,0 14,2 23,5 16,4 29,12 39,24 10,12 15,25 15,39 0,18 -8,35 -25,49l-139 96c-5,5 -7,10 -7,17 0,5 1,10 5,15 3,4 8,7 15,8l23 3 26 1c16,0 29,-1 39,-3 5,-1 10,-3 16,-5 5,-2 11,-4 16,-8l4 -2c2,0 4,0 7,0 6,0 11,2 16,6 4,5 6,10 6,16 0,8 -4,14 -12,19zm115 -24l87 0c12,0 23,-4 31,-12 9,-8 13,-18 13,-31l0 -131c0,-12 -4,-23 -12,-31 -9,-8 -19,-13 -32,-13l-87 0 0 218zm0 43l0 109c0,6 -2,11 -7,15 -4,5 -9,7 -14,7 -5,0 -10,-2 -15,-6 -5,-3 -7,-9 -7,-16l0 -391c0,-14 7,-22 22,-22l108 0c24,0 44,9 61,26 18,16 26,37 26,61l0 131c0,23 -8,44 -25,61 -17,17 -38,25 -62,25l-87 0zm409 -86l0 -175 -87 0c-13,0 -23,5 -32,13 -4,4 -7,9 -9,14 -2,5 -3,11 -3,17l0 131c0,12 4,22 12,31 5,4 9,7 14,9 7,2 12,3 18,3l43 0c12,0 22,-4 31,-12 8,-8 13,-18 13,-31zm21 58c-7,8 -17,15 -29,20 -12,6 -24,8 -36,8l-43 0c-24,0 -44,-8 -61,-25 -18,-16 -26,-37 -26,-61l0 -131c0,-24 8,-44 25,-61 17,-17 38,-26 62,-26l108 0c15,0 22,8 22,22l0 195c0,9 3,18 8,27 5,8 12,14 22,19 9,3 14,10 14,19 0,7 -3,12 -7,16 -3,4 -9,6 -15,6 -3,0 -6,0 -9,-2 -14,-5 -26,-14 -35,-26zm257 -146l0 -108c0,-6 2,-11 6,-16 4,-4 9,-6 15,-6 6,0 11,2 15,6 4,3 7,9 7,16l0 261c0,7 -2,12 -6,16 -4,4 -10,5 -16,5 -6,0 -11,-1 -15,-5 -4,-4 -6,-9 -6,-16l0 -109 -131 0 0 109c0,7 -2,12 -6,16 -4,4 -10,5 -16,5 -6,0 -11,-1 -15,-5 -4,-4 -6,-9 -6,-16l0 -261c0,-6 2,-11 6,-16 4,-4 9,-6 15,-6 6,0 11,2 15,6 4,3 7,9 7,16l0 108 131 0zm321 153c0,14 -8,21 -22,21l-109 0c-23,0 -43,-8 -61,-25 -17,-16 -26,-37 -26,-61l0 -196c0,-6 2,-11 7,-16 4,-4 9,-6 15,-6 5,0 11,2 15,6 4,3 7,9 7,16l0 196c0,12 4,22 12,31 4,4 9,7 14,9 6,2 12,3 17,3l87 0 0 -239c0,-6 2,-11 7,-16 4,-4 9,-6 15,-6 5,0 10,2 15,6 4,3 7,9 7,16l0 261zm234 -22l0 -239c0,-6 2,-11 7,-16 4,-4 9,-6 15,-6 5,0 10,2 15,6 4,3 6,9 6,16l0 239 22 0c14,0 21,7 21,22l0 39c0,6 -2,11 -6,15 -5,5 -10,7 -15,7 -5,0 -10,-2 -15,-6 -4,-3 -7,-9 -7,-16l0 -18 -130 0c-24,0 -44,-8 -61,-25 -17,-17 -26,-37 -26,-61l0 -196c0,-6 2,-11 7,-16 4,-4 9,-6 15,-6 5,0 10,2 15,6 4,3 6,9 6,16l0 196c0,12 4,22 13,31 4,4 9,7 14,9 6,2 12,3 17,3l87 0zm-2240 578c0,14 -7,21 -22,21l-108 0c-24,0 -44,-8 -61,-25 -17,-17 -26,-37 -26,-62l0 -195c0,-6 2,-11 6,-16 5,-4 10,-6 16,-6 5,0 10,2 14,6 5,3 7,9 7,16l0 196c0,12 4,22 13,31 4,3 9,7 14,9 6,2 12,3 17,3l87 0 0 -239c0,-6 2,-11 6,-16 5,-4 10,-6 16,-6 5,0 10,2 14,6 5,3 7,9 7,16l0 261zm521 -153l0 -108c0,-6 2,-11 7,-16 4,-4 9,-6 15,-6 5,0 10,2 15,6 4,3 6,9 6,16l0 261c0,6 -2,12 -6,16 -4,4 -9,5 -15,5 -6,0 -11,-1 -15,-5 -5,-4 -7,-9 -7,-16l0 -109 -131 0 0 109c0,6 -2,12 -6,16 -4,4 -9,5 -15,5 -6,0 -11,-1 -15,-5 -5,-4 -7,-9 -7,-16l0 -261c0,-6 2,-11 7,-16 4,-4 9,-6 15,-6 5,0 10,2 15,6 4,3 6,9 6,16l0 108 131 0zm321 79c0,26 -9,48 -27,67 -19,19 -42,28 -68,28l-26 0c-26,0 -49,-9 -68,-27 -19,-19 -28,-41 -28,-68l0 -113c0,-26 9,-48 28,-67 19,-19 41,-29 68,-29l26 0c26,0 48,9 67,28 19,18 28,41 28,68l0 113zm-43 0l0 -113c0,-15 -5,-27 -15,-37 -10,-10 -23,-16 -37,-16l-26 0c-15,0 -27,5 -37,16 -11,10 -16,22 -16,37l0 113c0,14 5,26 15,37 11,10 23,15 38,15l26 0c14,0 26,-5 37,-15 10,-10 15,-22 15,-37zm364 74l0 -261c0,-8 -2,-14 -5,-18 -4,-5 -9,-7 -14,-7 -6,0 -13,4 -20,12l-91 128 -91 -128c-6,-8 -12,-12 -20,-12 -5,0 -9,2 -14,7 -3,4 -5,10 -5,18l0 261c0,6 2,12 6,16 4,4 9,5 15,5 6,0 11,-2 15,-5 5,-4 7,-10 7,-16l0 -193 69 97c6,7 12,11 18,11 6,0 12,-4 18,-11l69 -97 0 193c0,6 2,12 6,16 4,4 9,5 16,5 5,0 10,-2 14,-5 5,-4 7,-10 7,-16zm104 -152l131 0 0 -44c0,-12 -4,-23 -12,-31 -8,-8 -19,-13 -32,-13l-43 0c-12,0 -23,4 -31,13 -4,4 -8,9 -10,14 -2,5 -3,11 -3,17l0 44zm0 43l0 44c0,12 4,22 13,31 4,3 9,7 14,9 6,2 12,3 17,3l109 0c5,0 11,2 15,7 4,4 6,9 6,15 0,5 -2,9 -5,14 -4,5 -9,7 -16,7l-109 0c-24,0 -44,-8 -61,-25 -17,-17 -26,-37 -26,-62l0 -130c0,-23 8,-44 25,-61 17,-17 38,-26 62,-26l43 0c24,0 44,9 62,25 17,17 25,38 25,62l0 65c0,15 -7,22 -21,22l-153 0zm278 87l87 0c12,0 23,-4 31,-12 9,-8 13,-19 13,-31l0 -131c0,-12 -4,-23 -12,-31 -9,-8 -19,-13 -32,-13l-87 0 0 218zm0 43l0 109c0,6 -2,11 -7,15 -4,4 -9,6 -15,6 -5,0 -9,-1 -14,-5 -5,-4 -7,-9 -7,-16l0 -391c0,-15 7,-22 22,-22l108 0c24,0 44,9 61,25 17,17 26,38 26,62l0 130c0,24 -8,45 -25,62 -17,17 -38,25 -62,25l-87 0zm452 -95c0,26 -9,48 -28,67 -18,19 -41,28 -68,28l-26 0c-26,0 -48,-9 -67,-27 -19,-19 -28,-41 -28,-68l0 -113c0,-26 9,-48 28,-67 18,-19 41,-29 67,-29l26 0c26,0 49,9 67,28 19,18 29,41 29,68l0 113zm-43 0l0 -113c0,-15 -5,-27 -15,-37 -11,-10 -23,-16 -38,-16l-26 0c-14,0 -26,5 -37,16 -10,10 -15,22 -15,37l0 113c0,14 5,26 15,37 10,10 23,15 37,15l26 0c14,0 27,-5 37,-15 10,-10 16,-22 16,-37zm277 9l0 -131c0,-12 -4,-22 -12,-31 -8,-8 -18,-12 -31,-12l-44 0c-12,0 -22,4 -31,12 -4,4 -7,9 -9,14 -2,6 -3,11 -3,17l0 131c0,12 4,22 12,31 4,3 9,7 14,9 6,2 12,3 17,3l44 0c12,0 22,-4 31,-12 8,-8 12,-18 12,-31zm-130 -202l17 -12 26 -18c9,-6 15,-12 18,-16 6,-7 8,-14 8,-21 0,-10 -3,-19 -10,-26 -7,-6 -15,-9 -24,-9 -10,0 -18,3 -25,9 -7,6 -10,14 -10,26l0 67zm87 -14c27,0 49,8 65,25 14,15 22,35 22,60l0 131c0,23 -9,44 -26,61 -17,17 -37,25 -61,25l-44 0c-23,0 -43,-8 -61,-25 -17,-16 -26,-37 -26,-61l0 -270c0,-24 9,-43 25,-58 15,-13 33,-20 54,-20 20,0 38,7 54,20 16,14 24,33 24,58 0,14 -2,25 -6,32 -4,7 -11,14 -20,22zm193 280l0 6 -22 87c-2,11 -9,16 -21,16 -6,0 -12,-2 -16,-6 -4,-3 -6,-8 -6,-15l0 -6 22 -85 0 -18c0,-6 2,-12 6,-16 5,-4 10,-6 15,-6 6,0 11,2 15,5 5,4 7,9 7,17l0 21z"/>
   <path class="fil5" d="M16588 8496l-4223 0 0 3620 4223 0 0 -3620z"/>
   <g>
    <path class="fil6 str0" d="M14168 9086l0 -261c0,-8 -2,-14 -6,-18 -3,-4 -8,-7 -13,-7 -7,0 -13,4 -20,13l-91 127 -91 -127c-6,-9 -12,-13 -20,-13 -5,0 -10,3 -14,7 -3,5 -5,11 -5,18l0 261c0,7 2,12 6,16 4,4 9,6 15,6 6,0 10,-2 15,-6 5,-4 7,-9 7,-16l0 -193 69 97c6,8 12,12 18,12 6,0 11,-4 18,-12l69 -97 0 193c0,7 2,12 6,16 4,4 9,6 16,6 5,0 10,-2 14,-6 5,-4 7,-9 7,-16zm104 -152l131 0 0 -44c0,-12 -4,-22 -12,-31 -9,-8 -19,-12 -32,-12l-43 0c-13,0 -23,4 -31,12 -5,4 -8,9 -10,14 -2,6 -3,11 -3,17l0 44zm0 43l0 44c0,12 4,22 13,31 4,4 9,7 14,9 6,2 11,3 17,3l108 0c6,0 12,3 16,7 4,4 6,10 6,15 0,5 -2,10 -5,15 -4,4 -9,7 -17,7l-108 0c-24,0 -44,-9 -61,-26 -17,-16 -26,-37 -26,-61l0 -131c0,-23 8,-43 25,-61 17,-17 37,-26 62,-26l43 0c24,0 44,9 61,26 18,17 26,37 26,61l0 66c0,14 -7,21 -22,21l-152 0zm387 131l-65 0c-24,0 -44,-9 -61,-26 -18,-16 -26,-37 -26,-61l0 -131c0,-24 8,-44 25,-61 17,-17 38,-26 62,-26l65 0c6,0 11,3 15,7 5,4 7,10 7,15 0,5 -2,10 -6,15 -3,4 -9,7 -16,7l-65 0c-13,0 -23,4 -32,12 -4,4 -7,9 -9,14 -2,6 -3,11 -3,17l0 131c0,12 4,22 12,31 5,4 9,7 14,9 7,2 12,3 18,3l65 0c6,0 11,3 15,7 5,4 7,10 7,15 0,5 -2,10 -6,15 -3,4 -9,7 -16,7zm212 -261l-87 0 0 239c0,7 -2,12 -6,16 -4,4 -9,6 -15,6 -6,0 -11,-2 -15,-6 -5,-3 -7,-9 -7,-16l0 -261c0,-14 7,-22 22,-22l195 0c24,0 44,9 61,26 17,17 26,37 26,61l0 196c0,7 -2,12 -6,16 -4,4 -10,6 -16,6 -6,0 -11,-2 -15,-6 -4,-3 -6,-9 -6,-16l0 -196c0,-12 -5,-22 -13,-31 -8,-8 -18,-12 -31,-12l-43 0 0 239c0,7 -3,12 -7,16 -4,4 -9,6 -15,6 -6,0 -11,-2 -15,-6 -5,-3 -7,-9 -7,-16l0 -239zm-1623 642l0 -108c0,-6 2,-11 7,-16 4,-4 9,-6 15,-6 5,0 11,2 15,6 4,3 7,9 7,16l0 261c0,7 -2,12 -7,16 -4,4 -9,5 -15,5 -6,0 -11,-1 -15,-5 -5,-4 -7,-9 -7,-16l0 -109 -130 0 0 109c0,7 -2,12 -7,16 -4,4 -9,5 -15,5 -6,0 -11,-1 -15,-5 -5,-4 -7,-9 -7,-16l0 -261c0,-6 2,-11 7,-16 4,-4 9,-6 15,-6 5,0 11,2 15,6 4,3 7,9 7,16l0 108 130 0zm278 88l0 -175 -87 0c-12,0 -23,5 -31,13 -4,4 -7,9 -10,14 -2,5 -3,11 -3,17l0 131c0,12 4,22 13,31 4,4 9,7 14,9 6,2 12,3 17,3l44 0c12,0 22,-4 30,-12 9,-8 13,-18 13,-31zm21 58c-7,8 -16,15 -28,20 -12,6 -24,8 -36,8l-44 0c-23,0 -44,-8 -61,-25 -17,-16 -26,-37 -26,-61l0 -131c0,-24 9,-44 26,-61 17,-17 37,-26 61,-26l109 0c14,0 21,8 21,22l0 195c0,9 3,18 9,27 5,8 12,14 21,19 9,3 14,10 14,19 0,7 -2,12 -6,16 -4,4 -9,6 -16,6 -3,0 -6,0 -9,-2 -14,-5 -25,-14 -35,-26zm218 -123l80 118 3 6 0 6c0,6 -2,11 -7,15l-4 3 -4 2 -8 1c-6,0 -12,-3 -18,-9l-68 -103 -69 103c-4,6 -10,9 -18,9 -4,0 -9,-2 -15,-6 -5,-4 -7,-10 -7,-16 0,-3 1,-7 4,-12l79 -118 -80 -118 -3 -6 0 -6c0,-6 2,-11 7,-15 4,-5 9,-7 16,-7 6,0 12,3 17,10l69 103 68 -103c5,-6 11,-10 18,-10 5,0 10,3 16,7 5,4 7,10 7,15 0,4 -2,8 -4,12l-79 119zm360 56c0,26 -9,48 -28,67 -18,19 -41,28 -68,28l-26 0c-26,0 -48,-9 -67,-27 -19,-19 -28,-41 -28,-68l0 -113c0,-26 9,-48 28,-67 18,-19 41,-29 67,-29l26 0c26,0 49,10 68,28 19,19 28,41 28,68l0 113zm-43 0l0 -113c0,-15 -5,-27 -15,-37 -10,-10 -23,-16 -38,-16l-26 0c-14,0 -26,6 -37,16 -10,10 -15,22 -15,37l0 113c0,14 5,27 15,37 10,10 23,15 37,15l26 0c15,0 27,-5 37,-15 11,-10 16,-22 16,-37zm283 -79l80 -120c2,-3 5,-6 8,-8l5 -2 5 0c6,0 11,2 16,7 5,4 7,10 7,15 0,4 -1,8 -4,12l-79 118 79 118 3 7 1 6c0,5 -2,10 -7,15 -4,4 -10,6 -16,6 -7,0 -13,-3 -18,-9l-80 -121 -10 0 0 109c0,7 -2,12 -6,16 -4,4 -9,5 -15,5 -6,0 -11,-1 -16,-5 -4,-4 -6,-9 -6,-16l0 -109 -10 0 -80 121c-2,2 -5,5 -9,7l-10 2c-4,0 -9,-2 -15,-6 -4,-4 -7,-10 -7,-16 0,-3 1,-7 4,-12l79 -118 -80 -118 -3 -6 0 -6c0,-6 2,-11 7,-15 4,-4 10,-7 16,-7 7,0 13,4 18,10l80 120 10 0 0 -108c0,-6 2,-11 6,-16 5,-4 10,-6 16,-6 5,0 10,2 14,6 5,3 7,9 7,16l0 108 10 0zm359 -87l-87 0c-12,0 -23,5 -31,13 -4,4 -7,9 -10,14 -2,5 -3,11 -3,17l0 131c0,12 4,22 13,31 4,4 9,7 14,9 6,2 12,3 17,3l44 0c12,0 22,-4 30,-12 9,-8 13,-18 13,-31l0 -175zm0 -43l0 -43c0,-12 -4,-23 -12,-31 -8,-8 -19,-13 -31,-13l-87 0c-7,0 -12,-2 -17,-6 -3,-4 -5,-10 -5,-15 0,-5 2,-10 5,-15 4,-5 9,-7 17,-7l86 0c25,0 45,9 62,26 17,17 25,37 25,61l0 261c0,23 -8,44 -25,61 -17,17 -38,25 -62,25l-43 0c-23,0 -44,-8 -61,-25 -17,-16 -26,-37 -26,-61l0 -131c0,-24 9,-44 26,-61 17,-17 37,-26 61,-26l87 0zm147 131l131 0 0 -44c0,-12 -4,-22 -12,-31 -9,-8 -19,-13 -32,-13l-43 0c-13,0 -23,5 -31,13 -5,4 -8,9 -10,14 -2,6 -3,11 -3,17l0 44zm0 43l0 44c0,12 4,22 12,31 5,4 10,7 15,9 6,2 11,3 17,3l108 0c6,0 12,3 16,7 4,4 6,9 6,15 0,5 -2,10 -5,14 -4,5 -9,7 -17,7l-108 0c-24,0 -44,-8 -61,-25 -17,-17 -26,-37 -26,-61l0 -131c0,-23 8,-44 25,-61 17,-17 37,-26 62,-26l43 0c24,0 44,9 61,26 18,17 26,37 26,61l0 65c0,15 -7,22 -22,22l-152 0zm409 -44l0 -108c0,-6 2,-11 6,-16 5,-4 10,-6 15,-6 6,0 11,2 15,6 5,3 7,9 7,16l0 261c0,7 -2,12 -6,16 -4,4 -9,5 -16,5 -5,0 -10,-1 -15,-5 -4,-4 -6,-9 -6,-16l0 -109 -131 0 0 109c0,7 -2,12 -6,16 -4,4 -9,5 -16,5 -5,0 -10,-1 -15,-5 -4,-4 -6,-9 -6,-16l0 -261c0,-6 2,-11 6,-16 5,-4 10,-6 15,-6 6,0 11,2 15,6 5,3 7,9 7,16l0 108 131 0zm321 153c0,14 -7,21 -22,21l-109 0c-23,0 -43,-8 -61,-25 -17,-16 -25,-37 -25,-61l0 -196c0,-6 2,-11 6,-16 4,-4 9,-6 15,-6 6,0 11,2 15,6 4,3 7,9 7,16l0 196c0,12 4,22 12,31 5,4 9,7 14,9 6,2 12,3 17,3l88 0 0 -239c0,-6 2,-11 6,-16 4,-4 9,-6 15,-6 6,0 11,2 15,6 4,3 7,9 7,16l0 261zm234 -152l0 -88 -87 0c-12,0 -23,5 -32,14 -8,8 -11,18 -11,30 0,11 3,21 11,30 7,10 18,14 32,14l87 0zm-53 43l-81 121c-1,2 -4,5 -8,7l-10 2c-4,0 -9,-2 -15,-6 -4,-4 -7,-10 -7,-15 0,-4 1,-8 4,-12l65 -98c-21,-3 -38,-13 -50,-30 -13,-17 -19,-36 -19,-56 0,-23 8,-43 22,-59 16,-19 38,-28 65,-28l109 0c14,0 22,8 22,22l0 261c0,7 -3,12 -7,16 -4,4 -9,5 -15,5 -6,0 -11,-1 -15,-5 -5,-4 -7,-9 -7,-16l0 -109 -53 0zm-1822 512l-130 0c-24,0 -44,-8 -61,-25 -18,-17 -26,-37 -26,-61l0 -152c0,-6 2,-11 6,-16 5,-4 10,-6 15,-6 6,0 11,2 15,5 5,4 7,9 7,17l0 152c0,12 4,22 12,31 5,3 9,7 14,9 7,2 12,3 17,3l131 0 0 -195c0,-6 2,-11 6,-16 5,-4 10,-6 16,-6 5,0 10,2 14,5 5,4 7,9 7,17l0 325c0,24 -8,45 -25,62 -17,17 -38,25 -62,25l-108 0c-7,0 -12,-2 -16,-6 -4,-4 -6,-9 -6,-15 0,-5 2,-10 6,-15 4,-5 9,-7 16,-7l109 0c12,0 22,-4 30,-12 9,-8 13,-19 13,-31l0 -88zm364 153c0,6 -2,12 -6,16 -4,4 -9,5 -15,5 -6,0 -11,-1 -15,-5 -5,-4 -7,-9 -7,-16l0 -307 -176 317c-3,5 -6,8 -10,11l-4 2c-2,1 -4,1 -7,2 -4,0 -9,-2 -14,-7 -4,-4 -6,-10 -6,-18l0 -391c0,-6 2,-11 6,-16 5,-4 10,-6 16,-6 5,0 10,2 15,6 4,3 6,9 6,16l0 307 176 -317c3,-4 6,-7 10,-11 4,-3 8,-4 11,-4 5,0 10,2 14,7 4,4 6,10 6,18l0 391zm104 -226l183 -181c5,-4 10,-6 15,-6 6,0 11,2 15,7 5,4 7,9 7,15 0,4 -2,9 -6,15l-129 129 133 236 3 11c0,6 -2,11 -7,15 -5,4 -10,6 -16,6 -7,0 -13,-3 -18,-11l-128 -226 -52 50 0 166c0,6 -2,12 -6,16 -4,4 -9,5 -15,5 -6,0 -11,-1 -15,-5 -5,-4 -7,-9 -7,-16l0 -392c0,-5 2,-10 7,-15 4,-4 9,-6 15,-6 5,0 10,2 15,5 4,4 6,9 6,16l0 166zm782 226c0,14 -7,21 -22,21l-108 0c-24,0 -44,-8 -61,-25 -17,-17 -26,-37 -26,-62l0 -195c0,-6 2,-11 6,-16 5,-4 10,-6 15,-6 6,0 11,2 15,6 5,3 7,9 7,16l0 196c0,12 4,22 13,31 4,3 9,7 14,9 6,2 11,3 17,3l87 0 0 -239c0,-6 2,-11 6,-16 5,-4 10,-6 15,-6 6,0 11,2 15,6 5,3 7,9 7,16l0 261zm-1801 555c0,7 -2,13 -6,17 -4,3 -10,5 -16,5 -6,0 -11,-2 -15,-5 -4,-4 -7,-9 -7,-17l0 -195c0,-13 -4,-23 -12,-31 -8,-9 -18,-13 -31,-13l-87 0 0 239c0,7 -2,13 -6,17 -4,3 -10,5 -16,5 -6,0 -11,-2 -15,-5 -4,-4 -6,-9 -6,-17l0 -260c0,-15 7,-22 21,-22l109 0c23,0 43,8 61,25 17,17 26,37 26,62l0 195zm277 -73c0,25 -9,48 -27,67 -19,19 -41,28 -68,28l-26 0c-26,0 -48,-9 -67,-27 -19,-19 -29,-42 -29,-68l0 -113c0,-26 10,-48 28,-67 19,-19 41,-29 68,-29l26 0c26,0 48,9 67,28 19,18 28,41 28,68l0 113zm-43 0l0 -114c0,-14 -5,-26 -15,-36 -10,-11 -22,-16 -37,-16l-26 0c-15,0 -27,5 -37,15 -10,11 -16,23 -16,37l0 114c0,14 6,26 16,37 10,10 22,15 37,15l26 0c14,0 26,-5 37,-15 10,-10 15,-22 15,-37zm364 73l0 -260c0,-8 -1,-14 -5,-19 -4,-4 -8,-6 -14,-6 -6,0 -13,4 -20,12l-91 128 -91 -128c-5,-8 -12,-12 -20,-12 -5,0 -9,2 -14,7 -3,4 -5,10 -5,18l0 260c0,7 2,13 6,17 4,3 9,5 16,5 5,0 10,-2 14,-6 5,-3 7,-9 7,-16l0 -192 70 97c5,7 11,11 17,11 6,0 12,-4 18,-11l69 -97 0 192c0,7 2,13 6,17 4,3 10,5 16,5 5,0 10,-2 14,-6 5,-3 7,-9 7,-16zm104 -151l131 0 0 -44c0,-12 -4,-23 -12,-31 -8,-9 -19,-13 -31,-13l-44 0c-12,0 -23,4 -31,13 -4,4 -7,9 -9,14 -2,5 -4,11 -4,17l0 44zm0 43l0 43c0,13 5,23 13,32 4,3 9,6 14,9 6,2 12,3 17,3l109 0c6,0 11,2 15,7 4,4 6,9 6,15 0,5 -1,9 -5,14 -4,5 -9,7 -16,7l-109 0c-23,0 -44,-8 -61,-25 -17,-17 -26,-37 -26,-62l0 -130c0,-24 9,-44 25,-61 17,-17 38,-26 62,-26l44 0c23,0 43,8 61,25 17,17 25,38 25,62l0 65c0,15 -7,22 -21,22l-153 0zm408 87l88 0 0 -239c0,-6 2,-11 7,-16 4,-4 9,-6 15,-6 5,0 10,2 15,5 4,4 6,9 6,17l0 239 22 0c14,0 21,7 21,22l0 43c0,6 -2,11 -6,15 -5,4 -10,6 -15,6 -5,0 -10,-1 -15,-5 -4,-4 -7,-9 -7,-16l0 -22 -34 0 -183 0c-24,0 -44,-8 -61,-25 -17,-17 -26,-37 -26,-62l0 -195c0,-6 2,-11 7,-16 4,-4 9,-6 15,-6 5,0 10,2 15,5 4,4 6,9 6,17l0 195c0,13 4,23 13,32 4,3 9,6 14,9 6,2 12,3 17,3l43 0 0 -239c0,-6 2,-11 7,-16 4,-4 9,-6 15,-6 5,0 10,2 15,5 4,4 6,9 6,17l0 239zm235 -130l131 0 0 -44c0,-12 -4,-23 -13,-31 -8,-9 -18,-13 -31,-13l-43 0c-13,0 -23,4 -32,13 -4,4 -7,9 -9,14 -2,5 -3,11 -3,17l0 44zm0 43l0 43c0,13 4,23 12,32 5,3 9,6 14,9 7,2 12,3 17,3l109 0c6,0 11,2 16,7 4,4 6,9 6,15 0,5 -2,9 -5,14 -4,5 -10,7 -17,7l-108 0c-24,0 -44,-8 -61,-25 -18,-17 -26,-37 -26,-62l0 -130c0,-24 8,-44 25,-61 17,-17 37,-26 62,-26l43 0c24,0 44,8 61,25 17,17 26,38 26,62l0 65c0,15 -7,22 -22,22l-152 0zm409 -44l0 -108c0,-6 2,-11 6,-16 4,-4 9,-6 15,-6 6,0 11,2 15,5 5,4 7,9 7,17l0 260c0,7 -2,13 -6,17 -4,3 -9,5 -16,5 -6,0 -11,-2 -15,-5 -4,-4 -6,-9 -6,-17l0 -109 -131 0 0 109c0,7 -2,13 -6,17 -4,3 -9,5 -16,5 -6,0 -11,-2 -15,-5 -4,-4 -6,-9 -6,-17l0 -260c0,-6 2,-11 6,-16 4,-4 9,-6 15,-6 6,0 11,2 15,5 5,4 7,9 7,17l0 108 131 0zm321 152c0,15 -8,22 -22,22l-109 0c-23,0 -43,-8 -61,-25 -17,-17 -26,-37 -26,-62l0 -195c0,-6 3,-11 7,-16 4,-4 9,-6 15,-6 5,0 11,2 15,5 4,4 7,9 7,17l0 195c0,13 4,23 12,32 4,3 9,6 14,9 6,2 12,3 17,3l87 0 0 -239c0,-6 2,-11 7,-16 4,-4 9,-6 15,-6 5,0 11,2 15,5 4,4 7,9 7,17l0 260zm212 -369l-87 0c-6,0 -12,-2 -16,-6 -4,-5 -5,-10 -5,-16 0,-5 1,-9 5,-14 4,-5 9,-7 16,-7l87 0c6,0 11,2 16,6 4,5 6,10 6,15 0,5 -2,10 -6,15 -3,5 -9,7 -16,7zm65 369c0,15 -7,22 -21,22l-109 0c-23,0 -44,-8 -61,-25 -17,-17 -26,-37 -26,-62l0 -195c0,-6 2,-11 7,-16 4,-4 9,-6 15,-6 5,0 10,2 15,6 4,3 6,9 6,16l0 195c0,13 4,23 13,32 4,3 9,6 14,9 6,2 12,3 17,3l87 0 0 -239c0,-6 2,-11 7,-16 4,-4 9,-6 15,-6 5,0 10,2 15,6 4,3 6,9 6,16l0 260z"/>
    <path class="fil6 str0" d="M14264 11070l-87 0c-12,0 -23,4 -31,12 -4,5 -8,9 -10,15 -2,5 -3,11 -3,17l0 130c0,12 4,23 13,31 4,4 9,7 14,10 6,2 12,3 17,3l43 0c12,0 23,-4 31,-12 9,-8 13,-19 13,-32l0 -174zm0 -43l0 -44c0,-12 -4,-22 -12,-31 -8,-8 -19,-12 -31,-12l-87 0c-7,0 -13,-2 -17,-6 -3,-5 -5,-10 -5,-16 0,-5 2,-9 5,-14 4,-5 9,-7 16,-7l87 0c25,0 45,8 62,25 17,17 25,38 25,62l0 260c0,24 -8,44 -25,61 -17,17 -38,26 -62,26l-43 0c-23,0 -44,-8 -61,-25 -17,-17 -26,-37 -26,-62l0 -130c0,-24 9,-45 26,-62 16,-17 37,-25 61,-25l87 0zm321 282c0,7 -2,13 -6,17 -4,3 -9,5 -16,5 -5,0 -10,-2 -15,-5 -4,-4 -6,-10 -6,-17l0 -239 -50 0 -81 246c-2,5 -5,9 -8,12 -1,0 -5,1 -12,3 -6,0 -11,-2 -16,-6 -4,-4 -7,-9 -7,-15l2 -8 86 -260c3,-10 10,-15 20,-15l87 0c15,0 22,7 22,22l0 260zm235 -151l0 -88 -88 0c-12,0 -23,4 -32,13 -7,9 -11,19 -11,31 0,11 4,21 11,30 8,9 19,14 32,14l88 0zm-54 43l-80 120c-2,3 -5,5 -9,8l-9 2c-5,0 -10,-2 -15,-6 -5,-5 -7,-10 -7,-16 0,-4 1,-8 3,-12l65 -97c-21,-4 -38,-14 -50,-31 -12,-17 -18,-35 -18,-55 0,-24 7,-43 21,-60 17,-18 38,-27 66,-27l108 0c15,0 22,7 22,22l0 260c0,7 -2,13 -6,17 -4,3 -9,5 -16,5 -5,0 -11,-2 -15,-5 -4,-4 -6,-10 -6,-17l0 -108 -54 0zm-1560 666c-11,6 -25,11 -43,16l-23 3 -26 1 -30 -1 -26 -4c-16,-2 -30,-9 -40,-22 -10,-13 -16,-27 -16,-43 0,-9 2,-18 6,-27 4,-9 10,-17 18,-24l139 -96c5,-4 7,-8 7,-13 0,-9 -8,-16 -22,-22 -15,-5 -32,-7 -50,-7 -14,0 -27,1 -38,3 -11,3 -20,7 -27,13 -4,2 -8,4 -13,4 -5,0 -10,-2 -15,-6 -4,-5 -6,-10 -6,-16 0,-7 2,-12 8,-17 9,-7 23,-12 41,-17 9,-2 18,-4 27,-5 9,-1 19,-2 28,-2 6,0 11,0 16,1 6,0 12,0 18,1 7,1 15,2 24,5 15,5 28,13 38,25 10,11 15,24 15,39 0,18 -8,34 -24,48l-139 96c-5,5 -8,11 -8,17 0,5 2,10 5,15 4,4 9,7 15,9l23 2 27 1c16,0 29,-1 39,-3 4,-1 10,-2 15,-4 6,-2 11,-5 16,-8l5 -2c1,-1 4,-1 7,-1 5,0 10,2 15,7 4,4 6,10 6,16 0,7 -4,13 -12,18zm290 -76c0,26 -10,49 -28,67 -19,19 -41,29 -68,29l-26 0c-26,0 -48,-9 -67,-28 -19,-18 -29,-41 -29,-68l0 -113c0,-25 10,-47 28,-67 19,-19 41,-28 68,-28l26 0c26,0 48,9 67,27 19,19 29,42 29,68l0 113zm-44 0l0 -113c0,-14 -5,-26 -15,-37 -10,-10 -22,-15 -37,-15l-26 0c-14,0 -27,5 -37,15 -10,10 -15,23 -15,37l0 113c0,15 5,27 15,37 10,10 22,16 37,16l26 0c14,0 26,-5 37,-15 10,-10 15,-23 15,-38zm321 74c0,7 -2,12 -6,17 -4,3 -9,5 -15,5 -6,0 -11,-2 -15,-6 -5,-3 -7,-9 -7,-16l0 -239 -50 0 -81 246c-2,5 -4,8 -8,11 -1,1 -5,2 -12,4 -6,0 -11,-2 -15,-6 -5,-4 -7,-9 -7,-15l1 -8 86 -260c3,-10 10,-15 21,-15l87 0c14,0 21,7 21,21l0 261zm278 -74c0,26 -9,49 -28,67 -18,19 -41,29 -67,29l-26 0c-26,0 -49,-9 -68,-28 -19,-18 -28,-41 -28,-68l0 -113c0,-25 9,-47 28,-67 19,-19 41,-28 68,-28l26 0c25,0 48,9 67,27 19,19 28,42 28,68l0 113zm-43 0l0 -113c0,-14 -5,-26 -15,-37 -10,-10 -23,-15 -37,-15l-27 0c-14,0 -26,5 -36,15 -11,10 -16,23 -16,37l0 113c0,15 5,27 15,37 11,10 23,16 37,16l27 0c14,0 26,-5 36,-15 11,-10 16,-23 16,-38zm256 96l-65 0c-24,0 -44,-9 -61,-25 -18,-17 -26,-38 -26,-62l0 -130c0,-24 8,-45 25,-62 17,-17 38,-25 62,-25l65 0c6,0 11,2 15,6 5,5 7,10 7,15 0,5 -2,10 -6,15 -3,5 -9,7 -16,7l-65 0c-13,0 -23,4 -32,12 -4,4 -7,9 -9,14 -2,6 -3,11 -3,17l0 131c0,12 4,23 12,31 5,4 9,7 14,10 7,2 12,3 18,3l65 0c6,0 11,2 15,6 5,5 7,10 7,15 0,5 -2,10 -6,15 -3,5 -9,7 -16,7zm299 -96c0,26 -9,49 -27,67 -19,19 -42,29 -68,29l-26 0c-26,0 -49,-9 -67,-28 -19,-18 -29,-41 -29,-68l0 -113c0,-25 9,-47 28,-67 19,-19 41,-28 68,-28l26 0c26,0 48,9 67,27 19,19 28,42 28,68l0 113zm-43 0l0 -113c0,-14 -5,-26 -15,-37 -10,-10 -22,-15 -37,-15l-26 0c-15,0 -27,5 -37,15 -10,10 -16,23 -16,37l0 113c0,15 5,27 16,37 10,10 22,16 37,16l26 0c14,0 26,-5 37,-15 10,-10 15,-23 15,-38zm278 9l0 -130c0,-12 -4,-23 -12,-31 -9,-8 -19,-13 -32,-13l-43 0c-13,0 -23,5 -31,13 -5,4 -8,9 -10,14 -2,5 -3,11 -3,17l0 130c0,12 4,23 13,31 4,4 9,7 14,10 6,2 12,3 17,3l43 0c12,0 23,-4 31,-12 9,-9 13,-19 13,-32zm-131 -202l18 -11 26 -18c8,-7 14,-12 18,-17 5,-6 8,-13 8,-21 0,-10 -4,-18 -11,-25 -7,-6 -15,-9 -24,-9 -9,0 -18,3 -25,9 -6,6 -10,14 -10,25l0 67zm87 -14c28,0 50,9 65,25 15,16 22,36 22,61l0 130c0,24 -8,44 -25,61 -17,17 -38,26 -62,26l-43 0c-24,0 -44,-9 -61,-25 -17,-17 -26,-38 -26,-62l0 -269c0,-24 8,-44 24,-59 15,-13 33,-20 54,-20 20,0 38,7 54,21 16,14 24,33 24,58 0,14 -2,24 -6,31 -3,7 -10,15 -20,22zm322 216l0 -174 -87 0c-13,0 -23,4 -32,12 -4,4 -7,9 -9,14 -2,6 -3,11 -3,17l0 131c0,12 4,23 12,31 5,4 9,7 14,10 7,2 12,3 18,3l43 0c12,0 22,-4 31,-13 9,-8 13,-18 13,-31zm21 58c-7,8 -17,15 -29,21 -12,5 -24,8 -36,8l-43 0c-24,0 -44,-9 -61,-25 -18,-17 -26,-38 -26,-62l0 -130c0,-24 8,-45 25,-62 17,-17 38,-25 62,-25l108 0c15,0 22,7 22,21l0 195c0,9 3,18 8,27 5,8 12,14 22,19 9,4 14,10 14,20 0,6 -3,11 -7,15 -3,5 -8,7 -15,7 -3,0 -6,-1 -9,-2 -14,-6 -26,-15 -35,-27zm257 -145l0 -109c0,-5 2,-11 6,-16 4,-3 9,-5 15,-5 6,0 11,1 15,5 5,4 7,9 7,16l0 261c0,7 -2,12 -6,17 -4,3 -10,5 -16,5 -6,0 -11,-2 -15,-6 -4,-3 -6,-9 -6,-16l0 -109 -131 0 0 109c0,7 -2,12 -6,17 -4,3 -10,5 -16,5 -6,0 -11,-2 -15,-6 -4,-3 -6,-9 -6,-16l0 -261c0,-5 2,-11 6,-16 4,-3 9,-5 15,-5 6,0 11,1 15,5 5,4 7,9 7,16l0 109 131 0zm321 152c0,15 -8,22 -22,22l-109 0c-23,0 -43,-9 -61,-25 -17,-17 -26,-38 -26,-62l0 -196c0,-5 2,-11 7,-16 4,-3 9,-5 15,-5 5,0 11,1 15,5 4,4 7,9 7,16l0 196c0,12 4,23 12,31 4,4 9,7 14,10 6,2 12,3 17,3l87 0 0 -240c0,-5 2,-11 7,-16 4,-3 9,-5 15,-5 5,0 11,1 15,5 4,4 7,9 7,16l0 261zm234 -152l0 -87 -87 0c-12,0 -23,4 -32,13 -8,9 -12,19 -12,31 0,11 4,21 12,30 7,9 18,13 32,13l87 0zm-53 44l-81 120c-2,3 -4,5 -8,8l-10 2c-4,0 -9,-2 -15,-7 -5,-4 -7,-9 -7,-15 0,-4 1,-8 4,-12l65 -98c-22,-3 -38,-13 -51,-30 -12,-17 -18,-35 -18,-55 0,-24 7,-44 22,-60 16,-18 38,-27 65,-27l109 0c14,0 21,7 21,21l0 261c0,7 -2,12 -6,17 -4,3 -9,5 -15,5 -6,0 -11,-2 -15,-6 -5,-3 -7,-9 -7,-16l0 -108 -53 0z"/>
   </g>
   <g>
    <path class="fil7" d="M8834 7724l0 0 0 0 0 0z"/>
    <path class="fil8" d="M5963 8982l1002 -319 957 319 1002 -319 1003 319 729 2369 -1345 -250 -1412 250 -1344 -228 -1299 228 707 -2369z"/>
    <path class="fil9" d="M6965 8663l-410 2460 1344 228 23 -2369 -957 -319z"/>
    <path class="fil9" d="M8924 8663l387 2438 1345 250 -729 -2369 -1003 -319z"/>
    <path class="fil10" d="M8478 9959l-50 -308 -33 5 619 -210 43 272 -579 241zm-536 506l2 -243 0 0 0 -413 418 -142 81 498 -501 300zm-1243 -1l56 -336 0 0 15 -82 1106 166 -3 278 -1174 -26zm-68 -1l-446 0 45 -249 451 -53 -50 302zm138 -784l-76 412 -451 53 62 -342 465 -123zm1118 -339l-10 404 -1035 -139 54 -415 991 150zm-1050 334l1039 138 0 4 0 0 0 327 -1094 -164 55 -305zm1524 -263l0 185 -415 140 4 -184 411 -141zm68 -352l501 -143 73 462 -574 195 0 -210 0 -47 0 -257zm1131 156l59 507 -546 -342 -44 -276 531 111zm-95 796l-338 -289 -40 -252 352 220 26 321zm81 159l878 430 -29 -96 -857 -435 -27 -333 802 503 -31 -102 -590 -369 -41 -359 444 119 -25 -81 -428 -111 -18 -153 -34 -308 -67 -22 29 291 -535 -111 -32 -203 -556 158 0 -167 -68 21 0 497 -409 141 5 -199 -1 0 0 -310 -34 11 -34 -11 0 300 -983 -148 60 -460 -67 21 -125 923 -460 122 115 -895 -72 23 -23 175 -411 85 -22 75 424 -88 -30 231 -463 90 -23 76 477 -95 -44 342 -550 145 -23 77 576 -152 -127 645 -1 0 0 0 0 2 -623 93 -20 68 665 -95 521 0 1282 29 576 -360 -28 -172 600 -249 457 391z"/>
    <path class="fil11" d="M8322 7730c122,0 222,100 222,222 0,123 -100,222 -222,222 -123,0 -222,-99 -222,-222 0,-122 99,-222 222,-222zm560 222c0,-309 -251,-560 -560,-560 -310,0 -561,251 -561,560 0,53 8,103 21,151l0 0c0,0 51,338 537,869 449,-459 542,-867 542,-867l0 1c13,-49 21,-100 21,-154z"/>
   </g>
  </g>
 </g>
</svg>
