<?xml version="1.0" encoding="UTF-8"?>
<!DOCTYPE svg PUBLIC "-//W3C//DTD SVG 1.0//EN" "http://www.w3.org/TR/2001/REC-SVG-20010904/DTD/svg10.dtd">
<!-- Creator: CorelDRAW X7 -->
<svg xmlns="http://www.w3.org/2000/svg" xml:space="preserve" width="115mm" height="70.122mm" version="1.0" style="shape-rendering:geometricPrecision; text-rendering:geometricPrecision; image-rendering:optimizeQuality; fill-rule:evenodd; clip-rule:evenodd"
viewBox="0 0 11500 7012"
 xmlns:xlink="http://www.w3.org/1999/xlink">
 <defs>
  <style type="text/css">
   <![CDATA[
    .str0 {stroke:#3696A0;stroke-width:8.76524}
    .fil14 {fill:#FEFEFE}
    .fil106 {fill:#F8B469}
    .fil93 {fill:#F3922E}
    .fil55 {fill:#FCFBFB}
    .fil15 {fill:#FAFBFB}
    .fil56 {fill:#F6F8F9}
    .fil16 {fill:#F6F5F6}
    .fil57 {fill:#F3F3F3}
    .fil89 {fill:#EFF1F3}
    .fil17 {fill:#EFEFF0}
    .fil58 {fill:#EDEDEF}
    .fil99 {fill:#E27C7F}
    .fil18 {fill:#EBEAEC}
    .fil59 {fill:#E9E9EC}
    .fil19 {fill:#E7E5E7}
    .fil94 {fill:#D44646}
    .fil87 {fill:#E4E4E8}
    .fil20 {fill:#E0E0E3}
    .fil60 {fill:#DFDEDF}
    .fil21 {fill:#DCDBDE}
    .fil61 {fill:#DAD9DB}
    .fil13 {fill:#D8D8DA}
    .fil22 {fill:#D8D6D9}
    .fil23 {fill:#D4D3D4}
    .fil62 {fill:#D4D1D3}
    .fil85 {fill:#D0D2D5}
    .fil97 {fill:#D0D0D3}
    .fil24 {fill:#CDCED0}
    .fil25 {fill:#C9C9CB}
    .fil63 {fill:#C8C6C8}
    .fil12 {fill:#C5C3C5}
    .fil103 {fill:#C5DDA6}
    .fil64 {fill:#C1C1C4}
    .fil26 {fill:#C1BFC1}
    .fil65 {fill:#BEBCBF}
    .fil86 {fill:#BDBDC1}
    .fil27 {fill:#BDBCBD}
    .fil28 {fill:#B6B6BA}
    .fil101 {fill:#B4B6BA}
    .fil66 {fill:#B4B4B7}
    .fil104 {fill:#B383B9}
    .fil29 {fill:#B2B0B4}
    .fil67 {fill:#ADACB1}
    .fil30 {fill:#ADACB0}
    .fil100 {fill:#ADCF7F}
    .fil68 {fill:#A9A9AD}
    .fil31 {fill:#A7A5A9}
    .fil69 {fill:#A7A5A8}
    .fil32 {fill:#A5A3A7}
    .fil70 {fill:#A2A1A4}
    .fil33 {fill:#A19EA2}
    .fil71 {fill:#9B9A9D}
    .fil34 {fill:#99989C}
    .fil72 {fill:#99989A}
    .fil35 {fill:#979598}
    .fil90 {fill:#94979C}
    .fil73 {fill:#949396}
    .fil36 {fill:#929093}
    .fil74 {fill:#918F92}
    .fil37 {fill:#8F8B8F}
    .fil75 {fill:#8F8B8D}
    .fil91 {fill:#955298}
    .fil95 {fill:#8DC04E}
    .fil38 {fill:#89878B}
    .fil76 {fill:#898789}
    .fil39 {fill:#858386}
    .fil77 {fill:#827E81}
    .fil40 {fill:#807D80}
    .fil105 {fill:#7F7B7F}
    .fil78 {fill:#7F7B7E}
    .fil41 {fill:#7D787B}
    .fil98 {fill:#69C3EF}
    .fil79 {fill:#79777A}
    .fil11 {fill:#767477}
    .fil42 {fill:#777477}
    .fil43 {fill:#716F72}
    .fil80 {fill:#706D70}
    .fil44 {fill:#6D6B6F}
    .fil81 {fill:#6C686B}
    .fil96 {fill:#6A676A}
    .fil45 {fill:#6A666A}
    .fil107 {fill:#696567}
    .fil108 {fill:#686467}
    .fil82 {fill:#686466}
    .fil46 {fill:#676365}
    .fil109 {fill:#656265}
    .fil110 {fill:#646264}
    .fil83 {fill:#625F62}
    .fil47 {fill:#625E60}
    .fil84 {fill:#615E5F}
    .fil48 {fill:#5C595B}
    .fil49 {fill:#5A5556}
    .fil112 {fill:#444342}
    .fil50 {fill:#545052}
    .fil51 {fill:#504C4E}
    .fil52 {fill:#4B484A}
    .fil53 {fill:#484444}
    .fil102 {fill:#4A484B}
    .fil54 {fill:#444141}
    .fil92 {fill:#34AAE1}
    .fil88 {fill:#312C2C}
    .fil10 {fill:#3497A1}
    .fil111 {fill:#3696A0}
    .fil2 {fill:#462713}
    .fil9 {fill:#603B1A}
    .fil7 {fill:#6BE9F9}
    .fil3 {fill:#8B613C}
    .fil6 {fill:#8BF0FB}
    .fil8 {fill:#DDDBD9}
    .fil5 {fill:#ECC78D}
    .fil1 {fill:#F0D5A7}
    .fil4 {fill:white}
    .fil0 {fill:url(#id0)}
   ]]>
  </style>
  <radialGradient id="id0" gradientUnits="userSpaceOnUse" gradientTransform="matrix(1.17124 -0 -0 1.92083 -985 -3229)" cx="5750" cy="3506.1" r="3506.1" fx="5750" fy="3506.1">
   <stop offset="0" style="stop-opacity:1; stop-color:#FEFEFE"/>
   <stop offset="0.439216" style="stop-opacity:1; stop-color:#FEFEFE"/>
   <stop offset="1" style="stop-opacity:1; stop-color:#D1E2F2"/>
  </radialGradient>
 </defs>
 <g id="Layer_x0020_1">
  <metadata id="CorelCorpID_0Corel-Layer"/>
  <path class="fil0" d="M0 0l11500 0 0 7012 -11500 0 0 -7012z"/>
  <g id="_286430051760">
   <g>
    <path class="fil1" d="M5169 5241l6 0 0 -203 46 0 0 -150 170 0c7,0 20,0 26,0 20,0 7,0 20,6l0 144 59 0c6,-177 -33,-170 104,-170 98,0 105,-13 105,39l0 131 52 0 7 78 222 0 7 -78 45 0 0 -150 216 6 0 209 0 13 7 0 0 -78 46 0 0 -935 -1138 0 0 1138z"/>
    <path class="fil2" d="M5123 4064l0 13 46 0 0 26 1138 0 0 -26 45 -7c0,-26 -72,-183 -85,-229l-1059 0 -85 223z"/>
    <path class="fil3" d="M5496 5038l0 203 -321 0 -6 0 0 0c59,13 255,6 333,6 -6,66 -19,0 -19,59l235 7c0,-66 -20,0 -13,-72l0 -203 0 -131c0,-52 -7,-39 -105,-39 -137,0 -98,-7 -104,170z"/>
    <path class="fil4" d="M6307 4103l0 935c0,52 -7,163 6,203l39 0 0 65 -634 7 -235 -7 -190 7 -92 0 -78 0 1236 0 0 -1472 -92 0c13,46 85,203 85,229l-45 7 0 26zm-1184 1210l0 -7 0 7z"/>
    <path class="fil5" d="M5705 5241l608 0c-13,-40 -6,-151 -6,-203l-46 0 0 78c6,27 6,33 -26,33 -33,0 -183,0 -203,-6 0,-33 -7,-14 13,-27l-7 -78 -45 0 -7 78c7,33 7,33 -33,33l-157 0c-39,0 -39,0 -32,-33l-7 -78 -52 0 0 203z"/>
    <path class="fil4" d="M5123 5241l46 0 0 0 0 -1138 0 -26 -46 0 0 1164z"/>
    <path class="fil2" d="M5718 5313l634 -7 0 -65 -39 0 -608 0c-7,72 13,6 13,72z"/>
    <path class="fil5" d="M5175 5241l321 0 0 -203 -59 0 0 65 0 13c13,13 6,7 13,27 -26,13 -216,6 -235,0 0,-33 -7,-14 6,-27l0 -78 -46 0 0 203z"/>
    <path class="fil6" d="M5221 5038l0 78 216 0 0 -13 -209 0c13,-13 26,-32 52,-45 20,-20 33,-40 46,-59 32,-33 65,-79 111,-105 -13,-6 0,-6 -20,-6 -6,0 -19,0 -26,0l-170 0 0 150z"/>
    <path class="fil6" d="M5705 4534l0 216 -203 0c20,-33 66,-72 98,-104l98 -112 -202 0 0 223 215 0c0,-26 7,-203 -6,-223z"/>
    <path class="fil6" d="M6038 5038l7 78 209 0 0 -13 -202 0c26,-39 58,-65 91,-104 26,-26 79,-92 111,-105l-216 -6 0 150z"/>
    <path class="fil6" d="M5496 4391c19,-7 39,-33 52,-53l157 -157 0 216c20,-39 6,-170 6,-222l-215 0 0 216z"/>
    <path class="fil7" d="M5770 4391c0,0 0,0 0,0 7,6 7,6 7,6 33,7 176,0 209,0l0 -216c-39,13 -85,79 -111,105l-79 78c-13,13 -13,20 -26,27z"/>
    <path class="fil6" d="M5986 4750l-209 0c6,-19 0,-6 19,-26l177 -190 -209 0 0 223c32,0 196,6 222,-7z"/>
    <path class="fil6" d="M5437 4750l-209 0c26,-33 65,-78 104,-104 13,-20 85,-92 98,-112l-209 0 0 223c26,0 196,6 216,-7z"/>
    <path class="fil6" d="M6254 4750l-202 0c6,-19 78,-91 91,-111 39,-26 85,-72 105,-105l-210 0 0 223 164 0c6,0 20,0 26,0l26 -7z"/>
    <path class="fil6" d="M5228 4397c13,-26 19,-20 45,-52 40,-46 144,-144 157,-170l-209 0c0,52 -13,183 7,222z"/>
    <path class="fil7" d="M5228 4397l209 0c0,-52 13,-183 -7,-222 -13,26 -117,124 -157,170 -26,32 -32,26 -45,52z"/>
    <path class="fil7" d="M5986 4750l0 -163c0,-7 0,-26 0,-26l-13 -27 -177 190c-19,20 -13,7 -19,26l209 0z"/>
    <path class="fil7" d="M6045 4397l209 0 0 -170c0,-20 7,-39 -6,-52 -7,19 -72,78 -105,111 -33,39 -91,91 -98,111z"/>
    <path class="fil6" d="M6045 4397c7,-20 65,-72 98,-111 33,-33 98,-92 105,-111l-210 0 0 209c7,13 7,7 7,13z"/>
    <path class="fil7" d="M5770 5103l7 7c0,0 6,0 6,0l197 0 0 -216c-33,13 -177,190 -210,209z"/>
    <path class="fil6" d="M5770 4391c13,-7 13,-14 26,-27l79 -78c26,-26 72,-92 111,-105l-13 -6c0,0 -6,0 -6,0 0,0 -7,0 -7,0l-196 0 6 216z"/>
    <path class="fil7" d="M6254 4750c0,-26 13,-196 -6,-216 -20,33 -66,79 -105,105 -13,20 -85,92 -91,111l202 0z"/>
    <path class="fil7" d="M5496 4391c32,19 157,6 209,6l0 -216 -157 157c-13,20 -33,46 -52,53z"/>
    <path class="fil2" d="M5123 5306l0 7 78 0 92 0 190 -7c0,-59 13,7 19,-59 -78,0 -274,7 -333,-6l-46 0 0 65z"/>
    <path class="fil7" d="M6254 5103l0 -209c-32,13 -85,79 -111,105 -33,39 -65,65 -91,104l202 0z"/>
    <path class="fil6" d="M5770 5103c33,-19 177,-196 210,-209 -13,-6 13,0 -20,-6l-78 0c-40,0 -79,0 -112,0l0 215z"/>
    <path class="fil7" d="M5437 5103l0 -65 0 -144c-46,26 -79,72 -111,105 -13,19 -26,39 -46,59 -26,13 -39,32 -52,45l209 0z"/>
    <path class="fil7" d="M5705 4534l-7 0 -98 112c-32,32 -78,71 -98,104l203 0 0 -216z"/>
    <path class="fil7" d="M5437 4750l-7 -216c-13,20 -85,92 -98,112 -39,26 -78,71 -104,104l209 0z"/>
    <path class="fil8" d="M5522 5273c0,-91 -13,-346 6,-372 33,-7 92,-7 125,-7 32,0 32,0 32,33l0 346 13 0 0 -392c-45,0 -157,-7 -196,7 -6,52 0,137 0,196 0,32 0,72 0,104 0,79 -6,79 20,85z"/>
    <path class="fil4" d="M5123 4064l85 -223 -85 0 0 223z"/>
    <path class="fil9" d="M5215 4417c0,13 -7,19 45,19l131 0c0,0 33,0 33,0 19,-6 13,0 19,-19 -13,-26 -85,-13 -111,-13l-98 0c-39,6 -6,0 -19,13z"/>
    <path class="fil9" d="M5986 5116l-222 0c-7,33 -7,33 32,33l157 0c40,0 40,0 33,-33z"/>
    <path class="fil9" d="M5437 5116l-216 0c-13,13 -6,-6 -6,27 19,6 209,13 235,0 -7,-20 0,-14 -13,-27z"/>
    <path class="fil9" d="M6261 5116l-7 0 -209 0c-20,13 -13,-6 -13,27 20,6 170,6 203,6 32,0 32,-6 26,-33z"/>
    <path class="fil9" d="M5757 4430c33,6 151,6 196,6 33,0 40,0 33,-26 0,0 0,-6 0,0 -6,0 -6,-6 -6,-6l-223 0 0 26z"/>
    <path class="fil9" d="M5489 4423c13,20 124,7 177,13 59,0 45,-6 52,-19 -7,-20 0,-13 -33,-13l-170 0c-26,0 -26,-7 -26,19z"/>
    <path class="fil9" d="M5757 4770c7,33 26,19 118,19 85,0 111,14 118,-19 -20,-13 -216,-13 -236,0z"/>
    <path class="fil9" d="M6032 4417c6,19 -7,6 13,13 0,0 203,13 216,-7 0,-26 0,-19 -39,-19l-164 0c-46,6 -20,6 -26,13z"/>
    <path class="fil9" d="M5489 4776c7,20 0,13 52,13l131 0c39,0 39,7 46,-19l-7 -7c-26,-6 -137,0 -170,0 -58,0 -45,0 -52,13z"/>
    <path class="fil9" d="M5215 4776c6,13 0,13 45,13 20,0 46,0 66,0l98 0c19,0 13,7 19,-13 0,-13 7,-13 -45,-13l-164 0c-33,7 -6,-6 -19,13z"/>
    <path class="fil9" d="M6032 4776c6,13 0,13 46,13 19,0 45,0 65,0 20,0 46,0 65,0 7,0 33,0 33,0 20,0 13,7 20,-13 0,-13 6,-13 -46,-13l-163 0c-33,7 -7,0 -20,13z"/>
   </g>
   <path class="fil10 str0" d="M3411 5586c0,11 -4,21 -12,29 -8,8 -17,12 -29,12l-40 0c-11,0 -21,-4 -29,-12 -8,-8 -12,-17 -12,-29l0 -121c0,-12 4,-21 12,-29 8,-8 18,-12 29,-12l40 0c12,0 21,4 29,12 8,8 12,17 12,29l0 121zm-20 0l0 -122c0,-5 -2,-10 -6,-14 -4,-4 -9,-6 -14,-6l-41 0c-6,0 -11,2 -15,6 -2,2 -3,4 -4,7 -1,2 -1,5 -1,7l0 122c0,6 1,11 5,15 2,2 5,3 7,4 3,1 5,2 8,2l41 0c5,0 10,-2 14,-6 4,-4 6,-9 6,-15zm97 -75l86 -84c2,-2 4,-3 7,-3 2,0 4,1 7,3 2,2 3,5 3,7 0,2 -1,4 -3,7l-61 60 63 111 1 5c0,3 -1,5 -3,7 -2,2 -5,3 -8,3 -3,0 -6,-2 -8,-5l-60 -106 -24 24 0 77c0,3 -1,6 -3,7 -2,2 -4,3 -7,3 -3,0 -5,-1 -7,-3 -2,-1 -3,-4 -3,-7l0 -183c0,-3 1,-5 3,-7 2,-2 4,-3 7,-3 3,0 5,1 7,2 2,2 3,4 3,8l0 77zm162 14l61 0c6,0 11,-1 15,-5 4,-4 6,-9 6,-15l0 -41c0,-5 -2,-10 -6,-14 -4,-4 -9,-6 -15,-6l-61 0 0 81zm0 21l0 71c0,3 -1,6 -2,7 -2,2 -5,3 -8,3 -2,0 -5,-1 -7,-3 -2,-1 -3,-4 -3,-7l0 -183c0,-7 4,-10 10,-10l71 0c12,0 21,4 29,12 8,8 12,17 12,28l0 41c0,11 -4,21 -12,29 -8,8 -17,12 -29,12l-61 0zm244 0l-61 0c-11,0 -20,-4 -28,-12 -8,-8 -12,-18 -12,-29l0 -71c0,-3 1,-5 3,-7 2,-2 4,-3 7,-3 2,0 5,1 7,2 2,2 3,5 3,8l0 71c0,6 2,11 6,15 2,1 4,3 6,4 3,1 6,1 8,1l61 0 0 -91c0,-3 1,-5 3,-7 2,-2 4,-3 7,-3 3,0 5,1 7,2 2,2 3,5 3,8l0 152c0,11 -4,21 -12,29 -8,8 -17,12 -28,12l-51 0c-3,0 -6,-1 -8,-3 -1,-2 -2,-4 -2,-7 0,-3 1,-5 2,-7 2,-2 5,-3 8,-3l51 0c5,0 10,-2 14,-6 4,-4 6,-9 6,-15l0 -40zm152 -43l53 -75c1,-1 2,-2 3,-3 2,-1 3,-1 5,-1 3,0 5,1 7,3 2,2 4,4 4,7 0,2 -1,4 -2,6l-54 76 54 96c1,2 2,4 2,5 0,3 -2,5 -4,7 -2,2 -4,3 -7,3 -3,0 -6,-2 -9,-5l-52 -93 0 88c0,3 -1,6 -3,7 -1,2 -4,3 -7,3 -2,0 -5,-1 -7,-3 -2,-1 -3,-4 -3,-7l0 -88 -52 93c-1,1 -2,2 -4,4l-2 1 -3 0c-3,0 -5,-1 -7,-3 -2,-2 -3,-4 -3,-7 0,-1 0,-3 1,-5l54 -96 -53 -76c-1,-1 -2,-3 -2,-6 0,-3 1,-5 3,-7 2,-2 4,-3 7,-3 3,0 6,1 8,4l53 75 0 -69c0,-3 1,-5 3,-7 2,-2 5,-3 7,-3 3,0 5,1 7,2 2,2 3,5 3,8l0 69zm213 2l0 -71c0,-3 1,-5 3,-7 2,-2 5,-3 7,-3 3,0 5,1 7,2 2,2 4,5 4,8l0 183c0,2 -2,5 -4,7 -2,2 -4,3 -7,3 -2,0 -5,-1 -7,-3 -2,-1 -3,-4 -3,-7l0 -92 -81 0 0 92c0,3 -1,6 -3,7 -2,2 -4,3 -7,3 -3,0 -5,-1 -7,-3 -2,-1 -3,-4 -3,-7l0 -183c0,-3 1,-5 3,-7 2,-2 4,-3 7,-3 2,0 5,1 7,3 2,1 3,4 3,7l0 71 81 0zm97 71l-15 44c-1,2 -2,4 -4,5 -1,1 -3,2 -5,2 -3,0 -5,-1 -7,-3 -2,-2 -4,-4 -4,-7l1 -4 61 -182c2,-6 5,-9 10,-9 4,0 7,3 9,9l61 182 1 4c0,3 -1,5 -4,7 -2,2 -4,3 -7,3 -1,0 -3,0 -4,-1 -2,-1 -4,-3 -5,-6l-15 -44 -73 0zm67 -21l-30 -89 -30 89 60 0zm181 -30l0 -81 -61 0c-5,0 -10,2 -14,6 -2,2 -4,4 -5,7 -1,2 -1,5 -1,7l0 41c0,6 2,11 6,15 2,1 4,3 6,4 3,1 6,1 8,1l61 0zm-35 21l-48 76c-2,3 -4,5 -8,5 -2,0 -5,-1 -7,-3 -2,-2 -3,-5 -3,-7 0,-2 0,-4 1,-6l41 -65 -2 0c-11,0 -20,-4 -28,-12 -8,-8 -12,-18 -12,-29l0 -41c0,-11 4,-20 12,-28 7,-8 17,-12 28,-12l71 0c7,0 10,3 10,10l0 183c0,3 0,6 -2,7 -2,2 -5,3 -8,3 -2,0 -5,-1 -7,-3 -2,-1 -3,-4 -3,-7l0 -71 -35 0zm340 71c0,3 -1,6 -3,7 -2,2 -5,3 -8,3 -2,0 -5,-1 -7,-3 -2,-1 -3,-4 -3,-7l0 -144 -82 149c-1,2 -3,3 -5,5l-2 1c0,0 -1,0 -3,1 -2,0 -4,-1 -7,-3 -1,-2 -2,-5 -2,-9l0 -183c0,-3 1,-5 3,-7 2,-2 4,-3 7,-3 3,0 5,1 7,3 2,1 3,4 3,7l0 144 82 -149c1,-1 3,-3 5,-5 2,-1 3,-2 5,-2 2,0 5,1 6,4 3,2 4,5 4,8l0 183zm101 -92l-30 0c-3,0 -6,-1 -8,-2 -2,-2 -2,-5 -2,-8 0,-2 1,-4 2,-6 2,-3 5,-4 8,-4l30 0c6,0 11,-2 15,-5 4,-4 6,-9 6,-15l0 -21c0,-5 -2,-10 -6,-14 -4,-4 -9,-6 -15,-6l-20 0c-5,0 -8,1 -12,4 -3,2 -6,6 -7,10 -1,2 -2,4 -4,5 0,1 -1,1 -2,2l-4 0c-2,0 -5,-1 -7,-3 -2,-1 -3,-4 -3,-7l0 -3c3,-8 8,-15 15,-20 7,-6 15,-8 24,-8l20 0c11,0 21,4 29,12 8,8 12,17 12,29l0 20c0,6 -1,11 -4,17 -2,5 -6,10 -10,13 9,8 14,18 14,31l0 40c0,11 -4,21 -12,29 -8,8 -18,12 -29,12l-20 0c-9,0 -17,-3 -24,-8 -7,-5 -12,-11 -15,-20l0 -4c0,-2 1,-5 3,-7 2,-2 4,-3 7,-3 4,0 7,3 9,7 2,4 4,8 8,11 4,3 8,4 12,4l20 0c6,0 11,-2 15,-6 4,-4 6,-9 6,-15l0 -40c0,-6 -2,-11 -5,-14 -4,-5 -9,-7 -16,-7zm101 0l0 82 61 0c6,0 11,-2 15,-6 4,-4 6,-9 6,-15l0 -40c0,-6 -2,-11 -6,-15 -4,-4 -9,-6 -15,-6l-61 0zm0 -20l61 0c11,0 21,4 29,12 8,8 12,18 12,29l0 40c0,12 -4,21 -12,29 -8,8 -17,12 -29,12l-71 0c-6,0 -10,-3 -10,-10l0 -183c0,-7 4,-10 10,-10l82 0c2,0 5,1 7,3 2,2 3,4 3,7 0,2 -1,5 -3,7 -2,2 -4,3 -8,3l-71 0 0 61zm264 112c0,3 -1,6 -3,7 -1,2 -4,3 -7,3 -3,0 -5,-1 -7,-3 -2,-1 -3,-4 -3,-7l0 -144 -82 149c-2,2 -3,3 -5,5l-2 1c-1,0 -2,0 -3,1 -2,0 -4,-1 -7,-3 -2,-2 -2,-5 -2,-9l0 -183c0,-3 1,-5 3,-7 2,-2 4,-3 7,-3 2,0 5,1 7,3 2,1 3,4 3,7l0 144 82 -149c1,-1 3,-3 4,-5 2,-1 4,-2 6,-2 2,0 4,1 6,4 2,2 3,5 3,8l0 183zm61 -92l61 0c6,0 10,-1 14,-5 4,-4 6,-9 6,-15l0 -41c0,-5 -2,-10 -5,-14 -4,-4 -9,-6 -15,-6l-61 0 0 81zm0 21l0 71c0,3 -1,6 -3,7 -2,2 -4,3 -7,3 -3,0 -5,-1 -7,-3 -2,-1 -3,-4 -3,-7l0 -183c0,-7 3,-10 10,-10l71 0c11,0 21,4 29,12 8,8 12,17 12,28l0 41c0,11 -4,21 -12,29 -8,8 -18,12 -29,12l-61 0zm158 30l-15 44c-1,2 -2,4 -4,5 -1,1 -3,2 -5,2 -3,0 -5,-1 -7,-3 -3,-2 -4,-4 -4,-7l1 -4 61 -182c2,-6 5,-9 9,-9 5,0 8,3 10,9l61 182 1 4c0,3 -2,5 -4,7 -2,2 -4,3 -7,3 -1,0 -3,0 -5,-1 -1,-1 -3,-3 -4,-6l-15 -44 -73 0zm66 -21l-30 -89 -29 89 59 0zm91 -111l-41 0c-3,0 -5,-1 -7,-3 -2,-2 -3,-4 -3,-7 0,-2 1,-5 2,-7 2,-2 5,-3 8,-3l102 0c2,0 5,1 7,3 2,2 3,4 3,7 0,2 -1,5 -3,7 -2,2 -4,3 -7,3l-41 0 0 173c0,3 -1,6 -3,7 -2,2 -4,3 -7,3 -3,0 -5,-1 -7,-3 -2,-1 -3,-4 -3,-7l0 -173zm131 61l52 0c2,0 5,1 7,3 2,2 3,5 3,7 0,3 -1,5 -3,7 -2,2 -4,3 -7,3l-52 0 0 82 72 0c3,0 5,1 7,3 2,2 3,4 3,7 0,2 -1,5 -3,7 -1,2 -4,3 -7,3l-82 0c-6,0 -10,-3 -10,-10l0 -183c0,-7 4,-10 10,-10l82 0c3,0 5,1 7,3 2,2 3,4 3,7 0,2 -1,5 -3,7 -1,2 -4,3 -7,3l-72 0 0 61zm244 112c0,3 -1,6 -3,7 -1,2 -4,3 -7,3 -2,0 -5,-1 -7,-3 -2,-1 -3,-4 -3,-7l0 -173 -33 0 -49 175c0,2 -1,4 -3,6 -2,1 -4,2 -6,2 -3,0 -6,-1 -8,-3 -2,-1 -3,-4 -3,-7 0,-1 1,-2 1,-3l51 -183c1,-5 4,-7 9,-7l51 0c7,0 10,3 10,10l0 183zm61 -92l61 0c6,0 10,2 14,6 4,4 6,9 6,15l0 40c0,6 -2,11 -6,15 -2,2 -4,3 -6,4 -3,1 -5,2 -8,2l-61 0 0 -82zm0 -20l0 -71c0,-3 -1,-5 -3,-7 -2,-2 -5,-3 -7,-3 -3,0 -5,1 -7,2 -2,2 -3,5 -3,8l0 183c0,7 3,10 10,10l71 0c11,0 20,-4 28,-12 8,-8 12,-17 12,-29l0 -40c0,-11 -4,-21 -11,-29 -8,-8 -18,-12 -29,-12l-61 0zm244 0l0 -71c0,-3 0,-5 3,-7 2,-2 4,-3 7,-3 2,0 5,1 7,2 2,2 3,5 3,8l0 183c0,2 -1,5 -3,7 -3,2 -5,3 -8,3 -2,0 -4,-1 -7,-3 -2,-1 -2,-4 -2,-7l0 -92 -82 0 0 92c0,3 -1,6 -3,7 -2,2 -4,3 -7,3 -3,0 -5,-1 -7,-3 -2,-1 -3,-4 -3,-7l0 -183c0,-3 1,-5 3,-7 2,-2 4,-3 7,-3 3,0 5,1 7,3 2,1 3,4 3,7l0 71 82 0zm96 71l-15 44c-1,2 -2,4 -3,5 -2,1 -4,2 -6,2 -3,0 -5,-1 -7,-3 -2,-2 -3,-4 -3,-7l0 -4 61 -182c2,-6 6,-9 10,-9 4,0 7,3 9,9l61 182 1 4c0,3 -1,5 -3,7 -3,2 -5,3 -8,3 -1,0 -2,0 -4,-1 -2,-1 -3,-3 -5,-6l-14 -44 -74 0zm67 -21l-30 -89 -30 89 60 0zm181 -30l0 -81 -61 0c-5,0 -10,2 -14,6 -2,2 -3,4 -4,7 -1,2 -2,5 -2,7l0 41c0,6 2,11 6,15 2,1 4,3 6,4 3,1 6,1 8,1l61 0zm-34 21l-48 76c-2,3 -5,5 -8,5 -3,0 -5,-1 -8,-3 -2,-2 -3,-5 -3,-7 0,-2 0,-4 2,-6l41 -65 -3 0c-10,0 -20,-4 -28,-12 -8,-8 -12,-18 -12,-29l0 -41c0,-11 4,-20 12,-28 8,-8 17,-12 28,-12l71 0c7,0 11,3 11,10l0 183c0,3 -1,6 -3,7 -2,2 -4,3 -7,3 -3,0 -6,-1 -8,-3 -2,-1 -3,-4 -3,-7l0 -71 -34 0zm237 -35l86 -84c2,-2 4,-3 7,-3 2,0 5,1 7,3 2,2 3,5 3,7 0,2 -1,4 -3,7l-60 60 62 111 1 5c0,3 -1,5 -3,7 -2,2 -5,3 -7,3 -4,0 -7,-2 -9,-5l-60 -106 -24 24 0 77c0,3 -1,6 -3,7 -2,2 -4,3 -7,3 -3,0 -5,-1 -7,-3 -2,-1 -3,-4 -3,-7l0 -183c0,-3 1,-5 3,-7 2,-2 5,-3 7,-3 3,0 5,1 7,2 2,2 3,4 3,8l0 77zm254 75c0,11 -4,21 -12,29 -8,8 -18,12 -29,12l-40 0c-11,0 -21,-4 -29,-12 -8,-8 -12,-17 -12,-29l0 -121c0,-12 4,-21 12,-29 8,-8 17,-12 29,-12l40 0c11,0 21,4 29,12 8,8 12,17 12,29l0 121zm-20 0l0 -122c0,-5 -2,-10 -6,-14 -4,-4 -9,-6 -15,-6l-40 0c-6,0 -11,2 -15,6 -2,2 -3,4 -4,7 -1,2 -2,5 -2,7l0 122c0,6 2,11 6,15 2,2 4,3 7,4 2,1 5,2 8,2l40 0c6,0 11,-2 15,-6 4,-4 6,-9 6,-15zm219 31c0,3 -1,6 -3,7 -2,2 -4,3 -7,3 -3,0 -5,-1 -7,-3 -2,-1 -3,-4 -3,-7l0 -145 -42 70c-3,4 -6,7 -9,7 -3,0 -6,-3 -9,-7l-42 -70 0 145c0,3 -1,6 -3,7 -2,2 -4,3 -7,3 -3,0 -5,-1 -7,-3 -2,-1 -3,-4 -3,-7l0 -182c0,-4 1,-7 3,-9 1,-2 3,-3 6,-3 2,0 3,1 5,2 1,1 3,2 4,5l53 87 52 -87c2,-5 5,-7 10,-7 2,0 4,1 6,3 2,3 3,6 3,9l0 182zm162 0c0,3 -1,6 -3,7 -2,2 -4,3 -7,3 -3,0 -5,-1 -7,-3 -2,-1 -3,-4 -3,-7l0 -144 -83 149c-1,2 -2,3 -4,5l-2 1c-1,0 -2,0 -3,1 -2,0 -5,-1 -7,-3 -2,-2 -3,-5 -3,-9l0 -183c0,-3 1,-5 3,-7 2,-2 5,-3 7,-3 3,0 5,1 7,3 2,1 3,4 3,7l0 144 83 -149c1,-1 2,-3 4,-5 2,-1 4,-2 6,-2 2,0 4,1 6,4 2,2 3,5 3,8l0 183zm132 10l-51 0c-11,0 -20,-4 -28,-12 -8,-8 -12,-17 -12,-29l0 -121c0,-12 4,-21 11,-29 8,-8 18,-12 29,-12l51 0c3,0 5,1 7,3 2,2 3,4 3,7 0,2 -1,5 -2,7 -2,2 -5,3 -8,3l-51 0c-6,0 -10,2 -14,6 -2,2 -4,4 -5,7 -1,2 -1,5 -1,7l0 122c0,6 2,11 6,15 2,2 4,3 6,4 3,1 6,2 8,2l51 0c3,0 5,1 7,3 2,2 3,4 3,7 0,2 -1,4 -2,7 -2,2 -5,3 -8,3zm133 0l-51 0c-11,0 -20,-4 -29,-12 -8,-8 -12,-17 -12,-29l0 -121c0,-12 4,-21 12,-29 8,-8 18,-12 29,-12l51 0c3,0 5,1 7,3 2,2 3,4 3,7 0,2 -1,5 -3,7 -1,2 -4,3 -7,3l-51 0c-6,0 -11,2 -15,6 -2,2 -3,4 -4,7 -1,2 -1,5 -1,7l0 122c0,6 2,11 5,15 2,2 5,3 7,4 3,1 6,2 8,2l51 0c3,0 5,1 7,3 2,2 3,4 3,7 0,2 -1,4 -3,7 -1,2 -4,3 -7,3zm172 -10c0,3 -1,6 -3,7 -2,2 -4,3 -7,3 -3,0 -5,-1 -7,-3 -2,-1 -3,-4 -3,-7l0 -144 -82 149c-2,2 -3,3 -5,5l-2 1c-1,0 -2,0 -3,1 -2,0 -4,-1 -7,-3 -2,-2 -3,-5 -3,-9l0 -183c0,-3 1,-5 3,-7 3,-2 5,-3 8,-3 2,0 5,1 7,3 2,1 3,4 3,7l0 144 82 -149c1,-1 2,-3 4,-5 2,-1 4,-2 6,-2 2,0 4,1 6,4 2,2 3,5 3,8l0 183zm142 -92l0 -81 -61 0c-5,0 -10,2 -14,6 -2,2 -4,4 -5,7 -1,2 -1,5 -1,7l0 41c0,6 2,11 6,15 2,1 4,3 6,4 3,1 6,1 8,1l61 0zm-35 21l-47 76c-3,3 -5,5 -9,5 -2,0 -5,-1 -7,-3 -2,-2 -3,-5 -3,-7 0,-2 0,-4 1,-6l41 -65 -2 0c-11,0 -20,-4 -28,-12 -8,-8 -12,-18 -12,-29l0 -41c0,-11 4,-20 12,-28 7,-8 17,-12 28,-12l71 0c7,0 11,3 11,10l0 183c0,3 -1,6 -3,7 -2,2 -5,3 -8,3 -2,0 -5,-1 -7,-3 -2,-1 -3,-4 -3,-7l0 -71 -35 0z"/>
   <g>
    <path class="fil11" d="M4546 1864c0,0 0,0 0,0z"/>
    <path class="fil12" d="M4830 1073l-1464 0 0 -172 1464 0 0 172z"/>
    <path class="fil13" d="M4332 1972l-966 0 0 -744 966 0 0 744z"/>
    <path class="fil12" d="M4008 2107l-642 0 0 -109 642 0 0 109z"/>
    <path class="fil12" d="M4318 1209l-952 0 0 -13 952 0 0 13z"/>
    <path class="fil13" d="M4821 1338l-463 0 0 223 463 0 0 -223z"/>
    <path class="fil13" d="M3841 2127l-417 0 0 34 417 0 0 -34z"/>
    <path class="fil13" d="M3841 2178l-475 0 0 35 475 0 0 -35z"/>
    <path class="fil13" d="M3841 2230l-475 0 0 34 475 0 0 -34z"/>
    <path class="fil13" d="M3841 2281l-475 0 0 35 475 0 0 -35z"/>
    <path class="fil13" d="M3841 2333l-475 0 0 34 475 0 0 -34z"/>
    <path class="fil13" d="M3841 2384l-475 0 0 35 475 0 0 -35z"/>
    <path class="fil13" d="M3841 2436l-475 0 0 34 475 0 0 -34z"/>
    <path class="fil13" d="M3841 2487l-475 0 0 35 475 0 0 -35z"/>
    <path class="fil13" d="M3743 2539l-377 0 0 34 377 0 0 -34z"/>
    <path class="fil13" d="M4335 2127l-417 0 0 34 417 0 0 -34z"/>
    <path class="fil13" d="M4335 2178l-475 0 0 35 475 0 0 -35z"/>
    <path class="fil13" d="M4335 2230l-475 0 0 34 475 0 0 -34z"/>
    <path class="fil13" d="M4335 2281l-475 0 0 35 475 0 0 -35z"/>
    <path class="fil13" d="M4335 2333l-475 0 0 34 475 0 0 -34z"/>
    <path class="fil13" d="M4335 2384l-475 0 0 35 475 0 0 -35z"/>
    <path class="fil13" d="M4335 2436l-475 0 0 34 475 0 0 -34z"/>
    <path class="fil13" d="M4335 2487l-475 0 0 35 475 0 0 -35z"/>
    <path class="fil13" d="M4237 2539l-377 0 0 34 377 0 0 -34z"/>
    <path class="fil13" d="M4829 2127l-417 0 0 34 417 0 0 -34z"/>
    <path class="fil13" d="M4829 2178l-475 0 0 35 475 0 0 -35z"/>
    <path class="fil13" d="M4829 2230l-475 0 0 34 475 0 0 -34z"/>
    <path class="fil13" d="M4829 2281l-475 0 0 35 475 0 0 -35z"/>
    <path class="fil13" d="M4829 2333l-475 0 0 34 475 0 0 -34z"/>
    <path class="fil13" d="M4829 2384l-475 0 0 35 475 0 0 -35z"/>
    <path class="fil13" d="M4829 2436l-475 0 0 34 475 0 0 -34z"/>
    <path class="fil13" d="M4829 2487l-475 0 0 35 475 0 0 -35z"/>
    <path class="fil13" d="M4730 2539l-376 0 0 34 376 0 0 -34z"/>
    <path class="fil13" d="M4332 1098l-966 0 0 77 966 0 0 -77z"/>
    <path class="fil10 str0" d="M3632 1024c0,1 0,2 -1,3 0,0 -1,1 -2,1 -1,0 -2,-1 -2,-1 -1,-1 -1,-1 -1,-3l0 -44 -26 46c0,1 -1,1 -1,2l-1 0c0,0 -1,0 -1,0 -1,0 -1,0 -2,-1 -1,0 -1,-1 -1,-2l0 -58c0,-1 0,-1 1,-2 1,-1 1,-1 2,-1 1,0 2,0 2,1 1,0 1,1 1,2l0 45 26 -46c0,-1 1,-1 1,-2 1,0 2,0 2,0 1,0 2,0 2,1 1,0 1,1 1,2l0 57zm32 -28l-10 0c-1,0 -1,0 -2,-1 0,-1 -1,-1 -1,-2 0,-1 1,-2 1,-2 1,-1 1,-1 2,-1l10 0c2,0 3,-1 4,-2 2,-1 2,-3 2,-5l0 -6c0,-2 0,-4 -1,-5 -2,-1 -3,-2 -5,-2l-6 0c-2,0 -3,1 -4,2 -1,0 -2,1 -2,3 -1,0 -1,1 -1,1 -1,1 -1,1 -1,1l-1 0c-1,0 -2,0 -3,-1 0,0 -1,-1 -1,-2l1 -1c0,-3 2,-5 4,-7 2,-1 5,-2 8,-2l6 0c3,0 6,1 9,4 2,2 4,5 4,9l0 6c0,2 -1,4 -1,5 -1,2 -2,4 -4,5 3,2 5,5 5,9l0 13c0,3 -2,6 -4,9 -3,2 -6,4 -9,4l-6 0c-3,0 -6,-1 -8,-3 -2,-1 -4,-3 -4,-6l-1 -1c0,-1 1,-2 1,-2 1,-1 2,-1 3,-1 1,0 2,0 3,2 0,1 1,2 2,3 1,1 2,1 4,1l6 0c2,0 3,0 4,-1 2,-2 2,-3 2,-5l0 -13c0,-2 0,-3 -1,-4 -1,-2 -3,-2 -5,-2zm32 0l0 25 19 0c2,0 3,0 4,-1 2,-2 2,-3 2,-5l0 -13c0,-2 0,-3 -2,-4 -1,-2 -2,-2 -4,-2l-19 0zm0 -6l19 0c3,0 6,1 9,3 2,3 3,6 3,9l0 13c0,3 -1,6 -3,9 -3,2 -6,4 -9,4l-22 0c-3,0 -4,-1 -4,-4l0 -57c0,-2 1,-3 4,-3l25 0c1,0 2,0 2,1 1,1 1,1 1,2 0,1 0,2 -1,2 0,1 -1,1 -2,1l-22 0 0 20zm82 34c0,1 0,2 -1,3 0,0 -1,1 -2,1 -1,0 -1,-1 -2,-1 -1,-1 -1,-1 -1,-3l0 -44 -26 46c0,1 -1,1 -1,2l-1 0c0,0 0,0 -1,0 -1,0 -1,0 -2,-1 -1,0 -1,-1 -1,-2l0 -58c0,-1 0,-1 1,-2 1,-1 1,-1 2,-1 1,0 2,0 3,1 0,0 0,1 0,2l0 45 26 -46c1,-1 1,-1 2,-2 0,0 1,0 1,0 1,0 2,0 2,1 1,0 1,1 1,2l0 57zm19 -28l19 0c2,0 4,-1 5,-2 1,-1 2,-3 2,-5l0 -12c0,-2 -1,-4 -2,-5 -1,-1 -3,-2 -5,-2l-19 0 0 26zm0 6l0 22c0,1 0,2 -1,3 0,0 -1,1 -2,1 -1,0 -1,-1 -2,-1 -1,-1 -1,-1 -1,-3l0 -57c0,-2 1,-3 3,-3l22 0c4,0 7,1 9,4 3,2 4,5 4,9l0 12c0,4 -1,7 -4,9 -2,3 -5,4 -9,4l-19 0zm50 10l-5 13c0,1 -1,2 -1,2 -1,0 -1,1 -2,1 -1,0 -1,-1 -2,-1 -1,-1 -1,-2 -1,-2l0 -2 19 -57c1,-2 2,-2 3,-2 2,0 3,0 3,2l19 57 0 2c0,0 0,1 -1,2 0,0 -1,1 -2,1 0,0 -1,0 -1,-1 -1,0 -1,0 -2,-2l-4 -13 -23 0zm21 -7l-10 -28 -9 28 19 0zm28 -35l-13 0c-1,0 -2,0 -2,0 -1,-1 -1,-2 -1,-3 0,-1 0,-1 1,-2 0,-1 1,-1 2,-1l32 0c1,0 2,0 2,1 1,1 1,1 1,2 0,1 0,2 -1,2 0,1 -1,1 -2,1l-13 0 0 54c0,1 0,2 -1,3 0,0 -1,1 -2,1 -1,0 -2,-1 -2,-1 -1,-1 -1,-1 -1,-3l0 -54zm41 20l16 0c1,0 2,0 2,1 1,0 1,1 1,2 0,0 0,1 0,2 -1,1 -2,1 -3,1l-16 0 0 25 22 0c1,0 2,1 3,1 0,1 1,2 1,2 0,1 -1,2 -1,3 -1,0 -1,1 -3,1l-25 0c-2,0 -3,-1 -3,-3l0 -58c0,-2 1,-3 3,-3l25 0c1,0 2,0 3,1 0,1 1,1 1,2 0,1 -1,2 -1,2 -1,1 -1,1 -3,1l-22 0 0 20zm76 34c0,1 0,2 0,3 -1,0 -2,1 -3,1 -1,0 -1,-1 -2,-1 -1,-1 -1,-1 -1,-3l0 -54 -10 0 -15 55c-1,1 -1,1 -1,2 -1,0 -2,1 -2,1 -1,0 -2,-1 -3,-1 0,-1 -1,-1 -1,-2 0,-1 0,-1 0,-1l16 -58c1,-1 2,-2 3,-2l16 0c2,0 3,1 3,3l0 57zm19 -28l20 0c1,0 3,0 4,2 1,1 2,2 2,4l0 13c0,2 -1,3 -2,5 -1,0 -1,1 -2,1 -1,0 -2,0 -2,0l-20 0 0 -25zm0 -6l0 -23c0,-1 0,-1 -1,-2 0,-1 -1,-1 -2,-1 0,0 -1,0 -2,1 -1,0 -1,1 -1,2l0 57c0,3 1,4 3,4l23 0c3,0 6,-2 8,-4 3,-2 4,-5 4,-9l0 -13c0,-3 -1,-6 -3,-9 -3,-2 -6,-3 -9,-3l-20 0zm77 0l0 -23c0,-1 0,-1 1,-2 0,-1 1,-1 2,-1 1,0 1,0 2,1 1,0 1,1 1,2l0 57c0,1 0,2 -1,3 -1,0 -1,1 -2,1 -1,0 -2,-1 -2,-1 -1,-1 -1,-1 -1,-2l0 -29 -26 0 0 28c0,1 0,2 -1,3 0,0 -1,1 -2,1 -1,0 -1,-1 -2,-1 -1,-1 -1,-1 -1,-3l0 -57c0,-1 0,-1 1,-2 1,-1 1,-1 2,-1 1,0 2,0 2,1 1,0 1,1 1,2l0 23 26 0zm63 34c0,1 0,2 -1,3 0,0 -1,1 -2,1 -1,0 -1,-1 -2,-1 -1,-1 -1,-1 -1,-3l0 -57c0,-1 0,-1 1,-2 1,-1 1,-1 2,-1 1,0 2,0 2,1 1,0 1,1 1,2l0 57zm-38 -28l0 25 13 0c2,0 3,0 4,-1 2,-2 2,-3 2,-5l0 -13c0,-2 0,-3 -2,-4 -1,-2 -2,-2 -4,-2l-13 0zm0 -6l13 0c3,0 6,1 9,3 2,3 4,6 4,9l0 13c0,3 -2,6 -4,9 -3,2 -6,4 -9,4l-16 0c-2,0 -3,-1 -3,-4l0 -57c0,-1 0,-1 1,-2 0,-1 1,-1 2,-1 1,0 2,0 2,1 1,0 1,1 1,2l0 23zm76 -32l-12 0c-1,0 -2,-1 -3,-1 0,-1 0,-2 0,-2 0,-1 0,-2 0,-3 1,0 2,-1 3,-1l12 0c1,0 2,1 3,1 0,1 1,2 1,3 0,0 -1,1 -1,2 -1,0 -2,1 -3,1zm13 66c0,1 0,2 -1,3 0,0 -1,1 -2,1 -1,0 -2,-1 -2,-1 -1,-1 -1,-1 -1,-3l0 -44 -26 46c0,1 -1,1 -1,2l-1 0c0,0 -1,0 -1,0 -1,0 -1,0 -2,-1 -1,0 -1,-1 -1,-2l0 -58c0,-1 0,-1 1,-2 1,-1 1,-1 2,-1 1,0 2,0 2,1 1,0 1,1 1,2l0 45 26 -46c0,-1 1,-1 1,-2 1,0 2,0 2,0 1,0 2,0 2,1 1,0 1,1 1,2l0 57zm83 -33c2,1 3,3 4,5 2,2 2,4 2,6l0 13c0,3 -1,6 -4,9 -2,2 -5,4 -9,4l-22 0c-2,0 -3,-1 -3,-4l0 -57c0,-2 1,-3 3,-3l19 0c4,0 7,1 9,4 3,2 4,5 4,9l0 6c0,2 0,3 -1,4 0,2 -1,3 -2,4zm-26 5l0 25 19 0c2,0 4,0 5,-1 1,-2 2,-3 2,-5l0 -13c0,-2 -1,-3 -2,-4 -1,-2 -3,-2 -5,-2l-19 0zm16 -6c2,0 3,-1 5,-2 1,-1 2,-3 2,-5l0 -6c0,-2 -1,-4 -2,-5 -1,-1 -3,-2 -5,-2l-16 0 0 20 16 0zm35 0l16 0c1,0 2,0 2,1 1,0 1,1 1,2 0,0 0,1 -1,2 0,1 -1,1 -2,1l-16 0 0 25 22 0c1,0 2,1 3,1 0,1 1,2 1,2 0,1 -1,2 -1,3 -1,0 -1,1 -3,1l-25 0c-2,0 -3,-1 -3,-3l0 -58c0,-2 1,-3 3,-3l25 0c1,0 2,0 3,1 0,1 1,1 1,2 0,1 -1,2 -1,2 -1,1 -1,1 -3,1l-22 0 0 20zm64 38l-16 0c-4,0 -7,-2 -9,-4 -3,-3 -4,-6 -4,-9l0 -38c0,-4 1,-7 4,-9 2,-3 5,-4 9,-4l16 0c1,0 1,0 2,1 1,1 1,1 1,2 0,1 0,2 -1,2 0,1 -1,1 -2,1l-16 0c-2,0 -4,1 -5,2 0,1 -1,1 -1,2 0,1 -1,2 -1,3l0 38c0,2 1,3 2,5 1,0 2,1 2,1 1,0 2,0 3,0l16 0c1,0 1,1 2,1 1,1 1,2 1,2 0,1 0,2 -1,3 0,0 -1,1 -2,1zm31 -58l-12 0c-1,0 -2,0 -3,0 0,-1 0,-2 0,-3 0,-1 0,-1 0,-2 1,-1 2,-1 3,-1l31 0c1,0 2,0 3,1 0,1 1,1 1,2 0,1 -1,2 -1,2 -1,1 -1,1 -3,1l-12 0 0 54c0,1 -1,2 -1,3 -1,0 -1,1 -2,1 -1,0 -2,-1 -3,-1 0,-1 -1,-1 -1,-3l0 -54zm67 20l0 -23c0,-1 0,-1 1,-2 1,-1 1,-1 2,-1 1,0 2,0 3,1 0,0 0,1 0,2l0 57c0,1 0,2 -1,3 0,0 -1,1 -2,1 0,0 -1,-1 -2,-1 -1,-1 -1,-1 -1,-2l0 -29 -25 0 0 28c0,1 -1,2 -1,3 -1,0 -2,1 -2,1 -1,0 -2,-1 -3,-1 0,-1 -1,-1 -1,-3l0 -57c0,-1 1,-1 1,-2 1,-1 2,-1 3,-1 0,0 1,0 2,1 0,0 1,1 1,2l0 23 25 0zm57 34c0,1 0,2 -1,3 0,0 -1,1 -2,1 -1,0 -1,-1 -2,-1 -1,-1 -1,-1 -1,-3l0 -44 -26 46c0,1 -1,1 -1,2l-1 0c0,0 0,0 -1,0 0,0 -1,0 -2,-1 -1,0 -1,-1 -1,-2l0 -58c0,-1 1,-1 1,-2 1,-1 2,-1 2,-1 1,0 2,0 3,1 0,0 1,1 1,2l0 45 25 -46c1,-1 1,-1 2,-2 0,0 1,0 1,0 1,0 2,0 2,1 1,0 1,1 1,2l0 57zm19 -33l27 -26c1,-1 2,-1 2,-1 1,0 2,0 3,1 0,1 1,1 1,2 0,1 -1,2 -1,2l-19 19 19 35 1 2c0,0 -1,1 -1,2 -1,0 -2,1 -3,1 -1,0 -2,-1 -2,-2l-19 -33 -8 7 0 24c0,1 0,2 -1,3 0,0 -1,1 -2,1 -1,0 -1,-1 -2,-1 -1,-1 -1,-1 -1,-3l0 -57c0,-1 0,-1 1,-2 1,-1 1,-1 2,-1 1,0 2,0 2,1 1,0 1,1 1,2l0 24z"/>
    <path class="fil13" d="M4821 1573l-463 0 0 397 463 0 0 -397z"/>
   </g>
   <g>
    <path class="fil14" d="M7763 2403c-51,0 -99,-1 -143,-3l0 -1c44,2 92,3 143,3 209,0 378,-17 378,-38 0,-10 -36,-18 -95,-25 0,-1 0,-1 0,-1 64,7 103,16 103,26 0,22 -173,39 -386,39z"/>
    <path class="fil15" d="M7763 2402c-51,0 -99,-1 -143,-3l0 0c44,1 92,2 143,2 204,0 370,-16 370,-37 0,-9 -33,-17 -88,-24 0,0 1,-1 1,-1 59,7 95,15 95,25 0,21 -169,38 -378,38z"/>
    <path class="fil16" d="M7763 2401c-51,0 -99,-1 -143,-2l0 -1c44,2 92,3 143,3 200,0 362,-17 362,-37 0,-9 -30,-16 -80,-23 0,0 0,-1 0,-1 55,7 88,15 88,24 0,21 -166,37 -370,37z"/>
    <path class="fil17" d="M7763 2401c-51,0 -99,-1 -143,-3l0 -1c43,2 92,3 143,3 196,0 354,-16 354,-36 0,-8 -27,-16 -72,-22 0,0 0,0 0,-1 50,7 80,14 80,23 0,20 -162,37 -362,37z"/>
    <path class="fil18" d="M7763 2400c-51,0 -100,-1 -143,-3l0 -1c43,2 92,3 143,3 191,0 346,-16 346,-35 0,-7 -24,-15 -65,-20 0,-1 0,-1 1,-2 45,6 72,14 72,22 0,20 -158,36 -354,36z"/>
    <path class="fil19" d="M7763 2399c-51,0 -100,-1 -143,-3l0 -1c43,2 92,3 143,3 187,0 339,-15 339,-34 0,-7 -22,-14 -59,-19 1,0 1,-1 1,-1 41,5 65,13 65,20 0,19 -155,35 -346,35z"/>
    <path class="fil20" d="M7763 2398c-51,0 -100,-1 -143,-3l0 -1c43,2 92,3 143,3 182,0 331,-15 331,-33 0,-6 -19,-12 -51,-18 0,0 0,-1 0,-1 37,5 59,12 59,19 0,19 -152,34 -339,34z"/>
    <path class="fil21" d="M7763 2397c-51,0 -100,-1 -143,-3l0 -1c43,2 91,4 143,4 178,0 323,-15 323,-33 0,-6 -16,-11 -44,-16 0,-1 1,-1 1,-2 32,6 51,12 51,18 0,18 -149,33 -331,33z"/>
    <path class="fil22" d="M7763 2397c-52,0 -100,-2 -143,-4l0 -1c43,3 91,4 143,4 174,0 315,-14 315,-32 0,-5 -14,-10 -37,-15 0,0 1,-1 1,-1 28,5 44,10 44,16 0,18 -145,33 -323,33z"/>
    <path class="fil23" d="M7763 2396c-52,0 -100,-1 -143,-4l0 -1c42,3 91,4 143,4 169,0 307,-14 307,-31 0,-5 -11,-9 -30,-13 0,-1 1,-1 1,-2 23,5 37,10 37,15 0,18 -141,32 -315,32z"/>
    <path class="fil24" d="M7763 2395c-52,0 -101,-1 -143,-4l0 0c42,2 91,3 143,3 165,0 299,-13 299,-30 0,-4 -8,-8 -23,-11 0,-1 1,-2 1,-2 19,4 30,8 30,13 0,17 -138,31 -307,31z"/>
    <path class="fil25" d="M7763 2394c-52,0 -101,-1 -143,-3l0 -1c42,2 91,3 143,3 161,0 291,-13 291,-29 0,-3 -6,-7 -17,-10 1,0 1,-1 2,-1 15,3 23,7 23,11 0,17 -134,30 -299,30z"/>
    <path class="fil12" d="M7763 2393c-52,0 -101,-1 -143,-3l0 -1c42,2 91,4 143,4 156,0 283,-13 283,-29 0,-3 -4,-5 -11,-8 1,0 2,-1 2,-2 11,3 17,7 17,10 0,16 -130,29 -291,29z"/>
    <path class="fil26" d="M7763 2393c-52,0 -101,-2 -143,-4l0 -1c41,2 90,4 143,4 152,0 275,-13 275,-28 0,-2 -2,-4 -5,-5 1,-1 1,-2 2,-3 7,3 11,5 11,8 0,16 -127,29 -283,29z"/>
    <path class="fil27" d="M7763 2392c-53,0 -102,-2 -143,-4l0 -1c41,2 90,4 143,4 147,0 267,-12 267,-27 0,-1 0,-2 -1,-2 1,-1 2,-2 4,-3 3,1 5,3 5,5 0,15 -123,28 -275,28z"/>
    <path class="fil28" d="M7763 2391c-53,0 -102,-2 -143,-4l0 -1c41,3 90,4 143,4 141,0 256,-11 259,-25 2,-1 5,-2 7,-3 1,0 1,1 1,2 0,15 -120,27 -267,27z"/>
    <path class="fil29" d="M7763 2390c-53,0 -102,-1 -143,-4l0 -1c40,3 90,4 143,4 130,0 237,-10 250,-22 3,-1 6,-1 9,-2 -3,14 -118,25 -259,25z"/>
    <path class="fil30" d="M7763 2389c-53,0 -103,-1 -143,-4l0 -1c40,3 89,5 143,5 125,0 229,-10 242,-22l4 0c2,0 3,0 4,0 -13,12 -120,22 -250,22z"/>
    <path class="fil31" d="M7763 2389c-54,0 -103,-2 -143,-5l0 -1c39,3 89,5 143,5 121,0 221,-9 234,-21l8 0c-13,12 -117,22 -242,22z"/>
    <path class="fil32" d="M7763 2388c-54,0 -104,-2 -143,-5l0 -1c39,3 89,5 143,5 116,0 213,-9 226,-20l2 0 6 0c-13,12 -113,21 -234,21z"/>
    <path class="fil33" d="M7763 2387c-54,0 -104,-2 -143,-5l0 -1c38,3 88,5 143,5 112,0 205,-8 218,-19l8 0c-13,11 -110,20 -226,20z"/>
    <path class="fil34" d="M7763 2386c-55,0 -105,-2 -143,-5l0 -1c37,3 88,5 143,5 108,0 197,-8 210,-18l8 0c-13,11 -106,19 -218,19z"/>
    <path class="fil35" d="M7763 2385c-55,0 -106,-2 -143,-5l0 -1c36,3 87,6 143,6 103,0 189,-8 202,-18l8 0c-13,10 -102,18 -210,18z"/>
    <path class="fil36" d="M7763 2385c-56,0 -107,-3 -143,-6l0 -1c35,3 86,6 143,6 99,0 181,-8 194,-17l8 0c-13,10 -99,18 -202,18z"/>
    <path class="fil37" d="M7763 2384c-57,0 -108,-3 -143,-6l0 -2c34,5 85,7 143,7 95,0 173,-7 186,-16l8 0c-13,9 -95,17 -194,17z"/>
    <path class="fil38" d="M7763 2383c-58,0 -109,-2 -143,-7l0 -1c33,5 84,7 143,7 90,0 165,-6 178,-15l8 0c-13,9 -91,16 -186,16z"/>
    <path class="fil39" d="M7763 2382c-59,0 -110,-2 -143,-7l0 -1c30,4 83,7 143,7 86,0 157,-6 170,-14l8 0c-13,9 -88,15 -178,15z"/>
    <path class="fil40" d="M7763 2381c-60,0 -113,-3 -143,-7l0 -2c28,5 81,9 143,9 81,0 149,-6 162,-14l8 0c-13,8 -84,14 -170,14z"/>
    <path class="fil41" d="M7763 2381c-62,0 -115,-4 -143,-9l0 -2c24,6 79,10 143,10 77,0 141,-6 154,-13l8 0c-13,8 -81,14 -162,14z"/>
    <path class="fil42" d="M7763 2380c-64,0 -119,-4 -143,-10l0 -2c17,6 74,11 143,11 73,0 133,-5 146,-12l8 0c-13,7 -77,13 -154,13z"/>
    <path class="fil43" d="M7763 2379c-69,0 -126,-5 -143,-11l0 -1 5 0c13,6 69,11 138,11 68,0 125,-5 137,-11l9 0c-13,7 -73,12 -146,12z"/>
    <path class="fil44" d="M7763 2378c-69,0 -125,-5 -138,-11l8 0c12,6 66,10 130,10 64,0 117,-4 129,-10l8 0c-12,6 -69,11 -137,11z"/>
    <path class="fil45" d="M7763 2377c-64,0 -118,-4 -130,-10l8 0c13,5 62,10 122,10 59,0 109,-5 121,-10l8 0c-12,6 -65,10 -129,10z"/>
    <path class="fil46" d="M7763 2377c-60,0 -109,-5 -122,-10l8 0c12,5 59,9 114,9 55,0 101,-4 113,-9l8 0c-12,5 -62,10 -121,10z"/>
    <path class="fil47" d="M7763 2376c-55,0 -102,-4 -114,-9l9 0c11,5 54,8 105,8 51,0 93,-3 105,-8l8 0c-12,5 -58,9 -113,9z"/>
    <path class="fil48" d="M7763 2375c-51,0 -94,-3 -105,-8l8 0c12,4 51,7 97,7 46,0 85,-3 97,-7l8 0c-12,5 -54,8 -105,8z"/>
    <path class="fil49" d="M7763 2374c-46,0 -85,-3 -97,-7l8 0c12,4 47,6 89,6 42,0 77,-2 88,-6l9 0c-12,4 -51,7 -97,7z"/>
    <path class="fil50" d="M7763 2373c-42,0 -77,-2 -89,-6l8 0c12,3 43,6 81,6 37,0 69,-3 80,-6l8 0c-11,4 -46,6 -88,6z"/>
    <path class="fil51" d="M7763 2373c-38,0 -69,-3 -81,-6l9 0c10,3 39,5 72,5 33,0 61,-2 72,-5l8 0c-11,3 -43,6 -80,6z"/>
    <path class="fil52" d="M7763 2372c-33,0 -62,-2 -72,-5l8 0c11,2 35,4 64,4 28,0 53,-2 63,-4l9 0c-11,3 -39,5 -72,5z"/>
    <path class="fil53" d="M7763 2371c-29,0 -53,-2 -64,-4l9 0c10,2 31,3 55,3 24,0 45,-1 54,-3l9 0c-10,2 -35,4 -63,4z"/>
    <path class="fil54" d="M7763 2370c-24,0 -45,-1 -55,-3l109 0c-9,2 -30,3 -54,3z"/>
    <path class="fil14" d="M6965 2371c-360,0 -652,-12 -652,-27 0,-14 292,-26 652,-26 116,0 224,1 319,3l0 1c-94,-2 -203,-3 -319,-3 -353,0 -638,11 -638,25 0,15 285,26 638,26 116,0 225,-1 319,-3l0 0c-95,3 -203,4 -319,4z"/>
    <path class="fil55" d="M6965 2370c-353,0 -638,-11 -638,-26 0,-14 285,-25 638,-25 116,0 225,1 319,3l0 1c-94,-3 -203,-4 -319,-4 -345,0 -625,11 -625,25 0,14 280,26 625,26 116,0 225,-2 319,-4l0 1c-94,2 -203,3 -319,3z"/>
    <path class="fil56" d="M6965 2370c-345,0 -625,-12 -625,-26 0,-14 280,-25 625,-25 116,0 225,1 319,4l0 0c-93,-2 -202,-3 -319,-3 -338,0 -611,11 -611,24 0,14 273,25 611,25 117,0 226,-1 319,-3l0 0c-94,2 -203,4 -319,4z"/>
    <path class="fil57" d="M6965 2369c-338,0 -611,-11 -611,-25 0,-13 273,-24 611,-24 117,0 226,1 319,3l0 1c-93,-2 -202,-4 -319,-4 -330,0 -598,11 -598,24 0,14 268,25 598,25 117,0 226,-2 319,-4l0 1c-93,2 -202,3 -319,3z"/>
    <path class="fil58" d="M6965 2369c-330,0 -598,-11 -598,-25 0,-13 268,-24 598,-24 117,0 226,2 319,4l0 1c-92,-3 -202,-4 -319,-4 -323,0 -585,10 -585,23 0,13 262,24 585,24 117,0 227,-1 319,-4l0 1c-93,2 -202,4 -319,4z"/>
    <path class="fil59" d="M6965 2368c-323,0 -585,-11 -585,-24 0,-13 262,-23 585,-23 117,0 227,1 319,4l0 0c-91,-2 -201,-4 -319,-4 -316,0 -571,11 -571,23 0,13 255,24 571,24 118,0 228,-2 319,-4l0 0c-92,3 -202,4 -319,4z"/>
    <path class="fil19" d="M6965 2368c-316,0 -571,-11 -571,-24 0,-12 255,-23 571,-23 118,0 228,2 319,4l0 1c-91,-3 -201,-4 -319,-4 -308,0 -558,10 -558,22 0,13 250,23 558,23 118,0 228,-1 319,-4l0 1c-91,2 -201,4 -319,4z"/>
    <path class="fil20" d="M6965 2367c-308,0 -558,-10 -558,-23 0,-12 250,-22 558,-22 118,0 228,1 319,4l0 1c-90,-3 -200,-5 -319,-5 -301,0 -545,10 -545,22 0,13 244,23 545,23 119,0 229,-2 319,-5l0 1c-91,3 -201,4 -319,4z"/>
    <path class="fil60" d="M6965 2367c-301,0 -545,-10 -545,-23 0,-12 244,-22 545,-22 119,0 229,2 319,5l0 0c-89,-2 -200,-4 -319,-4 -293,0 -531,10 -531,21 0,12 238,22 531,22 119,0 230,-2 319,-4l0 0c-90,3 -200,5 -319,5z"/>
    <path class="fil61" d="M6965 2366c-293,0 -531,-10 -531,-22 0,-11 238,-21 531,-21 119,0 230,2 319,4l0 1c-88,-3 -199,-5 -319,-5 -286,0 -518,10 -518,21 0,12 232,21 518,21 120,0 231,-1 319,-4l0 1c-89,2 -200,4 -319,4z"/>
    <path class="fil22" d="M6965 2365c-286,0 -518,-9 -518,-21 0,-11 232,-21 518,-21 120,0 231,2 319,5l0 1c-87,-3 -198,-5 -319,-5 -279,0 -504,9 -504,20 0,12 225,21 504,21 121,0 232,-2 319,-5l0 1c-88,3 -199,4 -319,4z"/>
    <path class="fil62" d="M6965 2365c-279,0 -504,-9 -504,-21 0,-11 225,-20 504,-20 121,0 232,2 319,5l0 0c-86,-3 -198,-4 -319,-4 -271,0 -491,8 -491,19 0,11 220,20 491,20 121,0 233,-1 319,-4l0 0c-87,3 -198,5 -319,5z"/>
    <path class="fil24" d="M6965 2364c-271,0 -491,-9 -491,-20 0,-11 220,-19 491,-19 121,0 233,1 319,4l0 1c-85,-3 -197,-5 -319,-5 -264,0 -478,9 -478,19 0,11 214,20 478,20 122,0 234,-2 319,-5l0 1c-86,3 -198,4 -319,4z"/>
    <path class="fil25" d="M6965 2364c-264,0 -478,-9 -478,-20 0,-10 214,-19 478,-19 122,0 234,2 319,5l0 1c-84,-3 -196,-5 -319,-5 -257,0 -464,8 -464,18 0,11 207,19 464,19 123,0 235,-2 319,-5l0 1c-85,3 -197,5 -319,5z"/>
    <path class="fil63" d="M6965 2363c-257,0 -464,-8 -464,-19 0,-10 207,-18 464,-18 123,0 235,2 319,5l0 1c-82,-4 -195,-6 -319,-6 -249,0 -451,8 -451,18 0,11 202,19 451,19 124,0 237,-2 319,-6l0 1c-84,3 -196,5 -319,5z"/>
    <path class="fil64" d="M6965 2363c-249,0 -451,-8 -451,-19 0,-10 202,-18 451,-18 124,0 237,2 319,6l0 0c-80,-3 -194,-5 -319,-5 -242,0 -438,8 -438,17 0,10 196,18 438,18 125,0 239,-2 319,-5l0 0c-82,4 -195,6 -319,6z"/>
    <path class="fil65" d="M6965 2362c-242,0 -438,-8 -438,-18 0,-9 196,-17 438,-17 125,0 239,2 319,5l0 1c-78,-3 -192,-6 -319,-6 -234,0 -424,8 -424,17 0,10 190,18 424,18 127,0 241,-3 319,-6l0 1c-80,3 -194,5 -319,5z"/>
    <path class="fil27" d="M6965 2362c-234,0 -424,-8 -424,-18 0,-9 190,-17 424,-17 127,0 241,3 319,6l0 1c-76,-4 -191,-6 -319,-6 -227,0 -411,7 -411,16 0,10 184,17 411,17 128,0 243,-2 319,-6l0 1c-78,3 -192,6 -319,6z"/>
    <path class="fil28" d="M6965 2361c-227,0 -411,-7 -411,-17 0,-9 184,-16 411,-16 128,0 243,2 319,6l0 1c-73,-4 -189,-7 -319,-7 -220,0 -397,8 -397,16 0,9 177,17 397,17 130,0 246,-3 319,-7l0 1c-76,4 -191,6 -319,6z"/>
    <path class="fil66" d="M6965 2361c-220,0 -397,-8 -397,-17 0,-8 177,-16 397,-16 130,0 246,3 319,7l0 1c-69,-4 -186,-7 -319,-7 -212,0 -384,7 -384,15 0,9 172,16 384,16 133,0 250,-3 319,-7l0 1c-73,4 -189,7 -319,7z"/>
    <path class="fil67" d="M6965 2360c-212,0 -384,-7 -384,-16 0,-8 172,-15 384,-15 133,0 250,3 319,7l0 1c-65,-5 -184,-8 -319,-8 -205,0 -371,7 -371,15 0,9 166,15 371,15 135,0 254,-3 319,-7l0 1c-69,4 -186,7 -319,7z"/>
    <path class="fil68" d="M6965 2359c-205,0 -371,-6 -371,-15 0,-8 166,-15 371,-15 135,0 254,3 319,8l0 1c-59,-5 -180,-8 -319,-8 -197,0 -357,6 -357,14 0,8 160,15 357,15 139,0 260,-3 319,-8l0 1c-65,4 -184,7 -319,7z"/>
    <path class="fil69" d="M6965 2359c-197,0 -357,-7 -357,-15 0,-8 160,-14 357,-14 139,0 260,3 319,8l0 1c-51,-5 -175,-8 -319,-8 -190,0 -344,6 -344,13 0,8 154,14 344,14 144,0 268,-3 319,-8l0 1c-59,5 -180,8 -319,8z"/>
    <path class="fil70" d="M6965 2358c-190,0 -344,-6 -344,-14 0,-7 154,-13 344,-13 144,0 268,3 319,8l0 2c-38,-6 -167,-10 -319,-10 -183,0 -330,6 -330,13 0,8 147,14 330,14 152,0 281,-4 319,-10l0 2c-51,5 -175,8 -319,8z"/>
    <path class="fil33" d="M6965 2358c-183,0 -330,-6 -330,-14 0,-7 147,-13 330,-13 152,0 281,4 319,10l0 7c-38,6 -167,10 -319,10zm0 -26c-175,0 -317,5 -317,12 0,8 142,13 317,13 175,0 316,-5 316,-13 0,-7 -141,-12 -316,-12z"/>
    <path class="fil71" d="M6965 2357c-175,0 -317,-5 -317,-13 0,-7 142,-12 317,-12 175,0 316,5 316,12 0,8 -141,13 -316,13zm0 -25c-168,0 -304,6 -304,12 0,7 136,13 304,13 167,0 303,-6 303,-13 0,-6 -136,-12 -303,-12z"/>
    <path class="fil72" d="M6965 2357c-168,0 -304,-6 -304,-13 0,-6 136,-12 304,-12 167,0 303,6 303,12 0,7 -136,13 -303,13zm0 -24c-160,0 -290,5 -290,11 0,7 130,12 290,12 160,0 290,-5 290,-12 0,-6 -130,-11 -290,-11z"/>
    <path class="fil73" d="M6965 2356c-160,0 -290,-5 -290,-12 0,-6 130,-11 290,-11 160,0 290,5 290,11 0,7 -130,12 -290,12zm0 -23c-153,0 -277,5 -277,11 0,7 124,12 277,12 152,0 276,-5 276,-12 0,-6 -124,-11 -276,-11z"/>
    <path class="fil74" d="M6965 2356c-153,0 -277,-5 -277,-12 0,-6 124,-11 277,-11 152,0 276,5 276,11 0,7 -124,12 -276,12zm0 -22c-146,0 -263,5 -263,10 0,6 117,11 263,11 145,0 263,-5 263,-11 0,-5 -118,-10 -263,-10z"/>
    <path class="fil75" d="M6965 2355c-146,0 -263,-5 -263,-11 0,-5 117,-10 263,-10 145,0 263,5 263,10 0,6 -118,11 -263,11zm0 -21c-138,0 -250,5 -250,10 0,6 112,11 250,11 138,0 249,-5 249,-11 0,-5 -111,-10 -249,-10z"/>
    <path class="fil76" d="M6965 2355c-138,0 -250,-5 -250,-11 0,-5 112,-10 250,-10 138,0 249,5 249,10 0,6 -111,11 -249,11zm0 -20c-131,0 -237,4 -237,9 0,6 106,10 237,10 130,0 236,-4 236,-10 0,-5 -106,-9 -236,-9z"/>
    <path class="fil39" d="M6965 2354c-131,0 -237,-4 -237,-10 0,-5 106,-9 237,-9 130,0 236,4 236,9 0,6 -106,10 -236,10zm0 -19c-123,0 -223,4 -223,9 0,5 100,9 223,9 123,0 223,-4 223,-9 0,-5 -100,-9 -223,-9z"/>
    <path class="fil77" d="M6965 2353c-123,0 -223,-4 -223,-9 0,-5 100,-9 223,-9 123,0 223,4 223,9 0,5 -100,9 -223,9zm0 -17c-116,0 -210,4 -210,8 0,5 94,9 210,9 115,0 209,-4 209,-9 0,-4 -94,-8 -209,-8z"/>
    <path class="fil78" d="M6965 2353c-116,0 -210,-4 -210,-9 0,-4 94,-8 210,-8 115,0 209,4 209,8 0,5 -94,9 -209,9zm0 -17c-109,0 -196,4 -196,8 0,5 87,8 196,8 108,0 196,-3 196,-8 0,-4 -88,-8 -196,-8z"/>
    <path class="fil79" d="M6965 2352c-109,0 -196,-3 -196,-8 0,-4 87,-8 196,-8 108,0 196,4 196,8 0,5 -88,8 -196,8zm0 -15c-101,0 -183,3 -183,7 0,5 82,8 183,8 101,0 182,-3 182,-8 0,-4 -81,-7 -182,-7z"/>
    <path class="fil42" d="M6965 2352c-101,0 -183,-3 -183,-8 0,-4 82,-7 183,-7 101,0 182,3 182,7 0,5 -81,8 -182,8zm0 -14c-94,0 -170,3 -170,6 0,4 76,7 170,7 93,0 169,-3 169,-7 0,-3 -76,-6 -169,-6z"/>
    <path class="fil43" d="M6965 2351c-94,0 -170,-3 -170,-7 0,-3 76,-6 170,-6 93,0 169,3 169,6 0,4 -76,7 -169,7zm0 -13c-86,0 -156,3 -156,6 0,4 70,7 156,7 86,0 156,-3 156,-7 0,-3 -70,-6 -156,-6z"/>
    <path class="fil80" d="M6965 2351c-86,0 -156,-3 -156,-7 0,-3 70,-6 156,-6 86,0 156,3 156,6 0,4 -70,7 -156,7zm0 -12c-79,0 -143,2 -143,5 0,4 64,6 143,6 78,0 142,-2 142,-6 0,-3 -64,-5 -142,-5z"/>
    <path class="fil81" d="M6965 2350c-79,0 -143,-2 -143,-6 0,-3 64,-5 143,-5 78,0 142,2 142,5 0,4 -64,6 -142,6zm0 -11c-72,0 -130,2 -130,5 0,3 58,6 130,6 71,0 129,-3 129,-6 0,-3 -58,-5 -129,-5z"/>
    <path class="fil82" d="M6965 2350c-72,0 -130,-3 -130,-6 0,-3 58,-5 130,-5 71,0 129,2 129,5 0,3 -58,6 -129,6zm0 -10c-64,0 -116,2 -116,4 0,3 52,5 116,5 64,0 115,-2 115,-5 0,-2 -51,-4 -115,-4z"/>
    <path class="fil83" d="M6965 2349c-64,0 -116,-2 -116,-5 0,-2 52,-4 116,-4 64,0 115,2 115,4 0,3 -51,5 -115,5zm0 -9c-57,0 -103,2 -103,4 0,3 46,5 103,5 56,0 102,-2 102,-5 0,-2 -46,-4 -102,-4z"/>
    <path class="fil84" d="M6965 2349c-57,0 -103,-2 -103,-5 0,-2 46,-4 103,-4 56,0 102,2 102,4 0,3 -46,5 -102,5z"/>
    <path class="fil85" d="M7178 2306l-453 0 66 -306 322 0 65 306z"/>
    <path class="fil86" d="M7150 2173l-37 -173 -322 0 -37 173 396 0z"/>
    <path class="fil87" d="M7273 2341l-643 0c-34,0 -39,-45 -39,-45l722 0c0,0 -5,45 -40,45z"/>
    <path class="fil88" d="M7803 1939c0,42 -34,75 -75,75l-1552 0c-41,0 -75,-33 -75,-75l0 -901c0,-42 34,-75 75,-75l1552 0c41,0 75,33 75,75l0 901z"/>
    <path class="fil87" d="M6101 1919l0 148c0,41 34,75 75,75l1552 0c41,0 75,-34 75,-75l0 -148 -1702 0z"/>
    <path class="fil89" d="M7748 1851l-1592 0 0 -817 1592 0 0 817z"/>
    <path class="fil90" d="M7006 2026c0,30 -24,55 -54,55 -30,0 -55,-25 -55,-55 0,-30 25,-54 55,-54 30,0 54,24 54,54z"/>
    <path class="fil91" d="M6714 1149l-346 0 0 -77 346 0 0 77z"/>
    <path class="fil86" d="M7536 1149l-758 0 0 -77 758 0 0 77z"/>
    <path class="fil92" d="M7536 1393l-1168 0 0 -210 1168 0 0 210z"/>
    <path class="fil93" d="M6714 1648l-346 0 0 -212 346 0 0 212z"/>
    <path class="fil94" d="M7125 1648l-347 0 0 -212 347 0 0 212z"/>
    <path class="fil95" d="M7536 1648l-347 0 0 -212 347 0 0 212z"/>
    <path class="fil90" d="M6714 1711l-346 0 0 -31 346 0 0 31z"/>
    <path class="fil86" d="M6714 1764l-346 0 0 -30 346 0 0 30z"/>
    <path class="fil86" d="M6714 1817l-346 0 0 -30 346 0 0 30z"/>
    <path class="fil90" d="M7125 1711l-347 0 0 -31 347 0 0 31z"/>
    <path class="fil86" d="M7125 1764l-347 0 0 -30 347 0 0 30z"/>
    <path class="fil86" d="M7125 1817l-347 0 0 -30 347 0 0 30z"/>
    <path class="fil90" d="M7536 1711l-347 0 0 -31 347 0 0 31z"/>
    <path class="fil86" d="M7536 1764l-347 0 0 -30 347 0 0 30z"/>
    <path class="fil86" d="M7536 1817l-347 0 0 -30 347 0 0 30z"/>
    <path class="fil96" d="M7468 1919l-241 0 -41 -68 282 0 0 68zm335 -381l-55 0 0 -504 -1055 0 -42 -70 1077 0c41,0 75,33 75,75l0 499z"/>
    <path class="fil58" d="M7284 2012l-57 -93 241 0 0 46 -151 0 -1 0c-14,0 -25,8 -30,19l0 1c-1,4 -2,8 -2,13l0 14z"/>
    <path class="fil16" d="M7468 1851l-282 0 -61 -101 0 -16 -10 0 -14 -23 24 0 0 -31 -42 0 -19 -32 61 0 0 -212 -190 0 -25 -43 626 0 0 -210 -753 0 -90 -149 1055 0 0 504 -212 0 0 -102 -347 0 0 212 279 0 0 32 -279 0 0 31 279 0 0 23 -279 0 0 30 279 0 0 23 -279 0 0 30 279 0 0 34zm-690 -779l0 77 758 0 0 -77 -758 0z"/>
    <path class="fil97" d="M7536 1149l-758 0 0 -77 758 0 0 77z"/>
    <path class="fil98" d="M7536 1393l-626 0 -127 -210 753 0 0 210z"/>
    <path class="fil99" d="M7125 1648l-61 0 -129 -212 190 0 0 212z"/>
    <path class="fil100" d="M7468 1648l-279 0 0 -212 347 0 0 102 -31 0c0,0 -1,0 -1,0 -20,1 -36,18 -36,38l0 72z"/>
    <path class="fil101" d="M7125 1711l-24 0 -18 -31 42 0 0 31z"/>
    <path class="fil97" d="M7125 1750l-10 -16 10 0 0 16z"/>
    <path class="fil101" d="M7468 1711l-279 0 0 -31 279 0 0 31z"/>
    <path class="fil97" d="M7468 1764l-279 0 0 -30 279 0 0 30z"/>
    <path class="fil97" d="M7468 1817l-279 0 0 -30 279 0 0 30z"/>
    <path class="fil88" d="M7505 2367c-20,0 -37,-17 -37,-38l0 -753c0,-21 17,-38 37,-38l504 0c21,0 38,17 38,38l0 753c0,21 -17,38 -38,38l-504 0z"/>
    <path class="fil89" d="M7507 2286l0 -667 500 0 0 667 -500 0z"/>
    <path class="fil102" d="M7796 2329c0,7 -6,13 -13,13l-43 0c-8,0 -14,-6 -14,-13 0,-8 6,-14 14,-14l43 0c7,0 13,6 13,14z"/>
    <path class="fil91" d="M7689 1722l-155 0 0 -66 155 0 0 66z"/>
    <path class="fil86" d="M7981 1722l-265 0 0 -66 265 0 0 66z"/>
    <path class="fil92" d="M7981 1942l-447 0 0 -185 447 0 0 185z"/>
    <path class="fil93" d="M7737 2102l-203 0 0 -125 203 0 0 125z"/>
    <path class="fil94" d="M7978 2102l-203 0 0 -125 203 0 0 125z"/>
    <path class="fil90" d="M7737 2150l-203 0 0 -18 203 0 0 18z"/>
    <path class="fil86" d="M7737 2186l-203 0 0 -17 203 0 0 17z"/>
    <path class="fil86" d="M7737 2222l-203 0 0 -17 203 0 0 17z"/>
    <path class="fil86" d="M7737 2258l-203 0 0 -17 203 0 0 17z"/>
    <path class="fil90" d="M7978 2150l-203 0 0 -18 203 0 0 18z"/>
    <path class="fil86" d="M7978 2186l-203 0 0 -17 203 0 0 17z"/>
    <path class="fil86" d="M7978 2222l-203 0 0 -17 203 0 0 17z"/>
    <path class="fil86" d="M7978 2258l-203 0 0 -17 203 0 0 17z"/>
    <path class="fil103" d="M7504 1538c0,0 1,0 1,0 0,0 -1,0 -1,0z"/>
    <path class="fil96" d="M8009 2367l-12 0 -6 0 -49 -81 65 0 0 -667 -468 0 -47 -78c4,-2 8,-2 12,-3 0,0 1,0 1,0l0 0 504 0c21,0 38,17 38,38l0 753c0,21 -17,38 -38,38z"/>
    <path class="fil16" d="M8007 2286l-65 0 -16 -28 52 0 0 -17 -63 0 -11 -19 74 0 0 -17 -85 0 -11 -19 96 0 0 -17 -107 0 -11 -19 118 0 0 -18 -128 0 -19 -30 147 0 0 -125 -203 0 0 32 -40 -67 246 0 0 -185 -358 0 -21 -35 87 0 0 -66 -127 0 -23 -37 468 0 0 667zm-291 -630l0 66 265 0 0 -66 -265 0z"/>
    <path class="fil104" d="M7689 1722l-87 0 -40 -66 127 0 0 66z"/>
    <path class="fil97" d="M7981 1722l-265 0 0 -66 265 0 0 66z"/>
    <path class="fil98" d="M7981 1942l-246 0 -112 -185 358 0 0 185z"/>
    <path class="fil99" d="M7978 2102l-147 0 -56 -93 0 -32 203 0 0 125z"/>
    <path class="fil101" d="M7978 2150l-118 0 -10 -18 128 0 0 18z"/>
    <path class="fil97" d="M7978 2186l-96 0 -11 -17 107 0 0 17z"/>
    <path class="fil97" d="M7978 2222l-74 0 -11 -17 85 0 0 17z"/>
    <path class="fil97" d="M7978 2258l-52 0 -11 -17 63 0 0 17z"/>
    <path class="fil88" d="M7620 2514c0,18 -15,33 -34,33l-269 0c-19,0 -33,-15 -33,-33l0 -516c0,-18 14,-33 33,-33l269 0c19,0 34,15 34,33l0 516z"/>
    <path class="fil89" d="M7599 2465l-295 0 0 -427 295 0 0 427z"/>
    <path class="fil102" d="M7464 2005c0,7 -6,13 -12,13 -7,0 -13,-6 -13,-13 0,-7 6,-12 13,-12 6,0 12,5 12,12z"/>
    <path class="fil102" d="M7487 2506c0,8 -6,14 -14,14l-43 0c-7,0 -13,-6 -13,-14 0,-7 6,-13 13,-13l43 0c8,0 14,6 14,13z"/>
    <path class="fil91" d="M7585 2094l-266 0 0 -42 266 0 0 42z"/>
    <path class="fil86" d="M7585 2156l-266 0 0 -47 266 0 0 47z"/>
    <path class="fil92" d="M7585 2281l-266 0 0 -107 266 0 0 107z"/>
    <path class="fil93" d="M7585 2446l-266 0 0 -148 266 0 0 148z"/>
    <path class="fil57" d="M7286 1985l0 -1c5,-11 16,-19 30,-19l1 0c-14,0 -26,8 -31,20z"/>
    <path class="fil96" d="M7616 2525c-1,0 -2,0 -4,0l-36 -60 23 0 0 -427 -281 0 -32 -53c5,-12 17,-20 31,-20l268 0c19,0 33,15 33,33l0 516c0,4 0,8 -2,11zm-164 -532c-7,0 -13,5 -13,12 0,7 6,13 13,13 6,0 12,-6 12,-13 0,-7 -6,-12 -12,-12z"/>
    <path class="fil16" d="M7599 2465l-23 0 -11 -19 20 0 0 -148 -110 0 -10 -17 120 0 0 -107 -185 0 -10 -18 195 0 0 -47 -224 0 -9 -15 233 0 0 -42 -258 0 -9 -14 281 0 0 427z"/>
    <path class="fil105" d="M7452 2018c-7,0 -13,-6 -13,-13 0,-7 6,-12 13,-12 6,0 12,5 12,12 0,7 -6,13 -12,13z"/>
    <path class="fil104" d="M7585 2094l-233 0 -25 -42 258 0 0 42z"/>
    <path class="fil97" d="M7585 2156l-195 0 -29 -47 224 0 0 47z"/>
    <path class="fil98" d="M7585 2281l-120 0 -65 -107 185 0 0 107z"/>
    <path class="fil106" d="M7585 2446l-20 0 -90 -148 110 0 0 148z"/>
    <path class="fil14" d="M7450 2573c-154,0 -279,-12 -279,-27 0,-8 45,-16 114,-21 1,0 1,0 1,0 -67,5 -110,13 -110,21 0,15 123,27 274,27 151,0 273,-12 273,-27 0,-8 -41,-15 -106,-20 1,0 1,-1 1,-1 67,5 111,13 111,21 0,15 -125,27 -279,27z"/>
    <path class="fil88" d="M7617 2526c0,0 0,0 -1,0 0,-1 0,-1 0,-1 1,0 1,0 2,0 0,0 0,1 -1,1zm-331 -1c0,0 0,0 -1,0 41,-3 89,-5 142,-5 1,0 2,0 3,0l43 0c1,0 2,0 3,0 50,0 97,2 136,5l1 0c-46,-3 -102,-5 -163,-5 -62,0 -119,2 -164,5z"/>
    <path class="fil102" d="M7473 2520l-43 0c-1,0 -2,0 -3,0 8,0 15,0 23,0 9,0 17,0 26,0 -1,0 -2,0 -3,0z"/>
    <path class="fil96" d="M7616 2526c-1,0 -2,-1 -3,-1l-1 0c2,0 3,0 4,0 0,0 0,0 0,1z"/>
    <path class="fil15" d="M7450 2573c-151,0 -274,-12 -274,-27 0,-8 43,-16 110,-21 0,1 0,1 0,1 -63,5 -104,12 -104,20 0,15 120,26 268,26 147,0 267,-11 267,-26 0,-8 -39,-15 -100,-20 0,0 0,0 0,0 65,5 106,12 106,20 0,15 -122,27 -273,27z"/>
    <path class="fil88" d="M7617 2526c0,0 -1,0 -1,0 0,0 0,0 0,0 1,0 1,0 1,0 0,0 0,0 0,0zm-331 0c0,0 0,0 0,-1 45,-3 102,-5 164,-5 61,0 117,2 163,5l0 1c-45,-3 -102,-5 -163,-5 -62,0 -119,2 -164,5z"/>
    <path class="fil107" d="M7616 2526c-1,0 -2,0 -3,0l0 -1c1,0 2,1 3,1 0,0 0,0 0,0z"/>
    <path class="fil16" d="M7450 2572c-148,0 -268,-11 -268,-26 0,-8 41,-15 104,-20 0,0 0,1 0,1 -60,4 -98,12 -98,19 0,14 117,26 262,26 144,0 262,-12 262,-26 0,-7 -37,-14 -95,-19 0,0 0,0 0,-1 61,5 100,12 100,20 0,15 -120,26 -267,26z"/>
    <path class="fil88" d="M7617 2527c-1,0 -1,0 -1,0 0,0 0,0 0,-1 0,0 1,0 1,0 0,1 0,1 0,1zm-4 0c-44,-4 -101,-6 -163,-6 -62,0 -119,2 -164,6 0,0 0,-1 0,-1 45,-3 102,-5 164,-5 61,0 118,2 163,5l0 1z"/>
    <path class="fil108" d="M7616 2527c-1,0 -2,0 -3,0l0 -1c1,0 2,0 3,0 0,1 0,1 0,1z"/>
    <path class="fil17" d="M7450 2572c-145,0 -262,-12 -262,-26 0,-7 38,-15 98,-19 0,0 0,0 1,1 -57,4 -93,11 -93,18 0,14 114,25 256,25 141,0 256,-11 256,-25 0,-7 -35,-14 -89,-18 0,0 0,-1 0,-1 58,5 95,12 95,19 0,14 -118,26 -262,26z"/>
    <path class="fil88" d="M7617 2528c-1,0 -1,0 -2,0 0,-1 1,-1 1,-1 0,0 0,0 1,0 0,0 0,1 0,1zm-3 0c-45,-4 -102,-6 -164,-6 -62,0 -119,2 -163,6 -1,-1 -1,-1 -1,-1 45,-4 102,-6 164,-6 62,0 119,2 163,6l1 1z"/>
    <path class="fil109" d="M7615 2528c0,0 -1,0 -1,0l-1 -1c1,0 2,0 3,0 0,0 -1,0 -1,1z"/>
    <path class="fil18" d="M7450 2571c-142,0 -256,-11 -256,-25 0,-7 36,-14 93,-18 0,0 0,0 0,0 -54,5 -88,11 -88,18 0,14 112,25 251,25 138,0 250,-11 250,-25 0,-7 -32,-13 -84,-17 0,-1 0,-1 1,-1 54,4 89,11 89,18 0,14 -115,25 -256,25z"/>
    <path class="fil88" d="M7616 2529c0,-1 -1,-1 -1,-1 0,0 0,0 0,0 1,0 1,0 2,0 -1,0 -1,0 -1,1zm-2 -1c-44,-3 -101,-6 -164,-6 -62,0 -119,3 -163,6 0,0 0,0 0,0 44,-4 101,-6 163,-6 62,0 119,2 164,6l0 0z"/>
    <path class="fil109" d="M7615 2528c0,0 0,0 -1,0l0 0c0,0 1,0 1,0 0,0 0,0 0,0z"/>
    <path class="fil19" d="M7450 2571c-139,0 -251,-11 -251,-25 0,-7 34,-13 88,-18 0,0 0,1 0,1 -50,4 -82,10 -82,17 0,13 110,24 245,24 135,0 244,-11 244,-24 0,-6 -30,-12 -78,-17 0,0 0,0 0,0 52,4 84,10 84,17 0,14 -112,25 -250,25z"/>
    <path class="fil88" d="M7616 2529c-44,-4 -102,-6 -166,-6 -63,0 -120,2 -163,6 0,0 0,-1 0,-1 44,-3 101,-6 163,-6 63,0 120,3 164,6l1 1c0,0 0,0 0,-1 0,0 1,0 1,1 0,0 0,0 0,0z"/>
    <path class="fil110" d="M7615 2529l-1 -1c1,0 1,0 1,0 0,1 0,1 0,1z"/>
    <path class="fil20" d="M7450 2570c-135,0 -245,-11 -245,-24 0,-7 32,-13 82,-17 0,0 0,0 1,1 -48,4 -77,10 -77,16 0,13 107,23 239,23 132,0 239,-10 239,-23 0,-6 -28,-12 -74,-16 1,0 1,-1 1,-1 48,5 78,11 78,17 0,13 -109,24 -244,24z"/>
    <path class="fil88" d="M7615 2530c-43,-4 -101,-6 -165,-6 -63,0 -120,2 -162,6 -1,-1 -1,-1 -1,-1 43,-4 100,-6 163,-6 64,0 122,2 166,6 0,0 0,1 -1,1z"/>
    <path class="fil21" d="M7450 2569c-132,0 -239,-10 -239,-23 0,-6 29,-12 77,-16 0,0 0,0 0,0 -44,4 -71,10 -71,16 0,13 104,23 233,23 128,0 233,-10 233,-23 0,-6 -26,-11 -68,-15 0,-1 0,-1 0,-1 46,4 74,10 74,16 0,13 -107,23 -239,23z"/>
    <path class="fil88" d="M7615 2531c-42,-4 -101,-7 -165,-7 -63,0 -120,2 -162,6 0,0 0,0 0,0 42,-4 99,-6 162,-6 64,0 122,2 165,6 0,0 0,0 0,1z"/>
    <path class="fil22" d="M7450 2569c-129,0 -233,-10 -233,-23 0,-6 27,-12 71,-16 0,1 0,1 0,1 -40,4 -66,9 -66,15 0,13 102,22 228,22 125,0 227,-9 227,-22 0,-5 -24,-11 -62,-15 0,0 0,0 0,0 42,4 68,9 68,15 0,13 -105,23 -233,23z"/>
    <path class="fil88" d="M7615 2531c-42,-4 -100,-6 -165,-6 -63,0 -120,2 -162,6 0,0 0,0 0,-1 42,-4 99,-6 162,-6 64,0 123,3 165,7 0,0 0,0 0,0z"/>
    <path class="fil23" d="M7450 2568c-126,0 -228,-9 -228,-22 0,-6 26,-11 66,-15 1,0 1,1 1,1 -38,4 -61,9 -61,14 0,12 99,22 222,22 122,0 221,-10 221,-22 0,-5 -21,-10 -57,-14 0,0 0,0 1,-1 38,4 62,10 62,15 0,13 -102,22 -227,22z"/>
    <path class="fil88" d="M7614 2532c-41,-4 -99,-7 -164,-7 -64,0 -121,3 -161,7 0,0 0,-1 -1,-1 42,-4 99,-6 162,-6 65,0 123,2 165,6 -1,1 -1,1 -1,1z"/>
    <path class="fil24" d="M7450 2568c-123,0 -222,-10 -222,-22 0,-5 23,-10 61,-14 0,0 0,0 0,1 -34,3 -55,8 -55,13 0,12 96,21 216,21 119,0 216,-9 216,-21 0,-5 -20,-9 -52,-13 0,0 0,-1 0,-1 36,4 57,9 57,14 0,12 -99,22 -221,22z"/>
    <path class="fil88" d="M7614 2533c-40,-4 -99,-7 -164,-7 -64,0 -121,2 -161,7 0,-1 0,-1 0,-1 40,-4 97,-7 161,-7 65,0 123,3 164,7 0,0 0,1 0,1z"/>
    <path class="fil25" d="M7450 2567c-120,0 -216,-9 -216,-21 0,-5 21,-10 55,-13 1,0 1,0 1,0 -31,4 -50,8 -50,13 0,12 94,21 210,21 116,0 210,-9 210,-21 0,-4 -18,-9 -47,-12 0,0 0,-1 1,-1 32,4 52,8 52,13 0,12 -97,21 -216,21z"/>
    <path class="fil88" d="M7613 2534c-39,-5 -97,-8 -163,-8 -64,0 -121,3 -160,7 0,0 0,0 -1,0 40,-5 97,-7 161,-7 65,0 124,3 164,7 -1,0 -1,1 -1,1z"/>
    <path class="fil12" d="M7450 2567c-116,0 -210,-9 -210,-21 0,-5 19,-9 50,-13 0,1 0,1 1,1 -29,4 -46,8 -46,12 0,11 92,20 205,20 113,0 204,-9 204,-20 0,-4 -15,-8 -42,-11 0,-1 1,-1 1,-1 29,3 47,8 47,12 0,12 -94,21 -210,21z"/>
    <path class="fil88" d="M7612 2535c-37,-5 -96,-8 -162,-8 -65,0 -122,3 -159,7 -1,0 -1,0 -1,-1 39,-4 96,-7 160,-7 66,0 124,3 163,8 0,0 -1,0 -1,1z"/>
    <path class="fil26" d="M7450 2566c-113,0 -205,-9 -205,-20 0,-4 17,-8 46,-12 0,0 0,1 0,1 -25,3 -40,7 -40,11 0,11 89,19 199,19 109,0 198,-8 198,-19 0,-4 -13,-7 -36,-11 0,0 0,0 0,0 27,3 42,7 42,11 0,11 -91,20 -204,20z"/>
    <path class="fil88" d="M7612 2535c-36,-4 -96,-8 -162,-8 -65,0 -122,3 -159,8 0,0 0,-1 0,-1 37,-4 94,-7 159,-7 66,0 125,3 162,8 0,0 0,0 0,0z"/>
    <path class="fil27" d="M7450 2565c-110,0 -199,-8 -199,-19 0,-4 15,-8 40,-11 0,0 1,1 1,1 -22,3 -35,6 -35,10 0,11 86,19 193,19 106,0 193,-8 193,-19 0,-3 -12,-7 -32,-10 0,0 0,0 1,-1 23,4 36,7 36,11 0,11 -89,19 -198,19z"/>
    <path class="fil88" d="M7611 2536c-35,-5 -94,-8 -161,-8 -65,0 -123,3 -158,8 0,0 -1,-1 -1,-1 37,-5 94,-8 159,-8 66,0 126,4 162,8 -1,1 -1,1 -1,1z"/>
    <path class="fil28" d="M7450 2565c-107,0 -193,-8 -193,-19 0,-4 13,-7 35,-10 0,0 1,0 1,1 -19,2 -31,6 -31,9 0,10 84,18 188,18 103,0 187,-8 187,-18 0,-3 -10,-6 -27,-9 0,0 0,0 1,-1 20,3 32,7 32,10 0,11 -87,19 -193,19z"/>
    <path class="fil88" d="M7610 2537c-33,-5 -92,-9 -160,-9 -66,0 -124,4 -157,9 0,-1 -1,-1 -1,-1 35,-5 93,-8 158,-8 67,0 126,3 161,8 0,1 -1,1 -1,1z"/>
    <path class="fil29" d="M7450 2564c-104,0 -188,-8 -188,-18 0,-3 12,-7 31,-9 0,0 0,0 1,1 -17,2 -26,5 -26,8 0,10 81,18 182,18 100,0 181,-8 181,-18 0,-3 -8,-5 -22,-8 0,0 1,-1 1,-1 17,3 27,6 27,9 0,10 -84,18 -187,18z"/>
    <path class="fil88" d="M7609 2538c-31,-5 -91,-9 -159,-9 -67,0 -125,3 -156,9 -1,-1 -1,-1 -1,-1 33,-5 91,-9 157,-9 68,0 127,4 160,9 0,0 -1,1 -1,1z"/>
    <path class="fil30" d="M7450 2564c-101,0 -182,-8 -182,-18 0,-3 9,-6 26,-8 0,0 0,0 1,1 -14,2 -21,5 -21,7 0,10 79,17 176,17 97,0 175,-7 175,-17 0,-2 -6,-5 -17,-7 0,0 1,-1 1,-1 14,3 22,5 22,8 0,10 -81,18 -181,18z"/>
    <path class="fil88" d="M7608 2539c-29,-5 -89,-9 -158,-9 -67,0 -126,3 -155,9 -1,-1 -1,-1 -1,-1 31,-6 89,-9 156,-9 68,0 128,4 159,9 0,0 -1,1 -1,1z"/>
    <path class="fil31" d="M7450 2563c-97,0 -176,-7 -176,-17 0,-2 7,-5 21,-7 0,0 0,0 1,0 -11,3 -16,5 -16,7 0,9 76,17 170,17 94,0 170,-8 170,-17 0,-2 -5,-4 -13,-6 0,0 0,-1 1,-1 11,2 17,5 17,7 0,10 -78,17 -175,17z"/>
    <path class="fil88" d="M7607 2540c-26,-6 -87,-10 -157,-10 -68,0 -127,4 -154,9 -1,0 -1,0 -1,0 29,-6 88,-9 155,-9 69,0 129,4 158,9 -1,0 -1,1 -1,1z"/>
    <path class="fil32" d="M7450 2563c-94,0 -170,-8 -170,-17 0,-2 5,-4 16,-7 0,1 1,1 1,2 -7,1 -12,3 -12,5 0,9 74,16 165,16 90,0 164,-7 164,-16 0,-1 -3,-3 -9,-5 0,0 1,0 2,-1 8,2 13,4 13,6 0,9 -76,17 -170,17z"/>
    <path class="fil88" d="M7605 2541c-22,-6 -83,-10 -155,-10 -69,0 -128,4 -153,10 0,-1 -1,-1 -1,-2 27,-5 86,-9 154,-9 70,0 131,4 157,10 -1,1 -2,1 -2,1z"/>
    <path class="fil33" d="M7450 2562c-91,0 -165,-7 -165,-16 0,-2 5,-4 12,-5 1,0 1,0 2,1 -5,1 -8,3 -8,4 0,9 71,16 159,16 87,0 158,-7 158,-16 0,-1 -2,-2 -5,-4 1,0 1,0 2,-1 6,2 9,4 9,5 0,9 -74,16 -164,16z"/>
    <path class="fil88" d="M7603 2542c-18,-6 -80,-11 -153,-11 -71,0 -130,5 -151,11 -1,-1 -1,-1 -2,-1 25,-6 84,-10 153,-10 72,0 133,4 155,10 -1,1 -1,1 -2,1z"/>
    <path class="fil34" d="M7450 2562c-88,0 -159,-7 -159,-16 0,-1 3,-3 8,-4 1,0 1,1 2,1 -3,1 -4,2 -4,3 0,9 68,15 153,15 84,0 153,-6 153,-15 0,0 -1,-1 -3,-2 1,-1 2,-1 3,-2 3,2 5,3 5,4 0,9 -71,16 -158,16z"/>
    <path class="fil88" d="M7600 2544c-12,-7 -75,-12 -150,-12 -72,0 -133,5 -149,11 -1,0 -1,-1 -2,-1 21,-6 80,-11 151,-11 73,0 135,5 153,11 -1,1 -2,1 -3,2z"/>
    <path class="fil35" d="M7450 2561c-85,0 -153,-6 -153,-15 0,-1 1,-2 4,-3 1,0 2,1 3,1 -1,1 -1,2 -1,2 0,8 65,15 147,15 81,0 147,-7 147,-15 0,0 0,0 -1,-1 2,0 3,-1 4,-1 2,1 3,2 3,2 0,9 -69,15 -153,15z"/>
    <path class="fil88" d="M7596 2545c-5,-7 -69,-13 -146,-13 -74,0 -135,6 -146,12 -1,0 -2,-1 -3,-1 16,-6 77,-11 149,-11 75,0 138,5 150,12 -1,0 -2,1 -4,1z"/>
    <path class="fil36" d="M7450 2561c-82,0 -147,-7 -147,-15 0,0 0,-1 1,-2 2,1 3,1 4,2 0,0 0,0 0,0 0,8 64,14 142,14 77,0 141,-6 141,-13 2,-1 4,-1 5,-2 1,1 1,1 1,1 0,8 -66,15 -147,15z"/>
    <path class="fil88" d="M7591 2547c0,-1 0,-1 0,-1 0,-7 -63,-13 -141,-13 -76,0 -138,6 -142,13 -1,-1 -2,-1 -4,-2 11,-6 72,-12 146,-12 77,0 141,6 146,13 -1,1 -3,1 -5,2z"/>
    <path class="fil37" d="M7450 2560c-78,0 -142,-6 -142,-14 0,0 0,0 0,0 2,0 4,1 6,1 2,7 62,12 136,12 73,0 133,-5 135,-12l1 0c2,0 4,0 5,0 0,7 -64,13 -141,13z"/>
    <path class="fil88" d="M7586 2547l-1 0c0,0 0,0 0,-1 0,-7 -60,-13 -135,-13 -75,0 -136,6 -136,13 0,1 0,1 0,1 -2,0 -4,-1 -6,-1 4,-7 66,-13 142,-13 78,0 141,6 141,13 0,0 0,0 0,1 -1,0 -3,0 -5,0z"/>
    <path class="fil38" d="M7450 2559c-74,0 -134,-5 -136,-12 1,0 2,0 3,0l3 0c2,7 59,12 130,12 70,0 127,-5 129,-12l6 0c-2,7 -62,12 -135,12z"/>
    <path class="fil88" d="M7585 2547l-6 0c1,0 1,0 1,-1 0,-6 -59,-12 -130,-12 -72,0 -130,6 -130,12 0,1 0,1 0,1l-3 0c-1,0 -2,0 -3,0 0,0 0,0 0,-1 0,-7 61,-13 136,-13 75,0 135,6 135,13 0,1 0,1 0,1z"/>
    <path class="fil39" d="M7450 2559c-71,0 -128,-5 -130,-12l6 0c2,6 56,11 124,11 67,0 122,-5 124,-11l5 0c-2,7 -59,12 -129,12z"/>
    <path class="fil88" d="M7579 2547l-5 0c0,0 0,0 0,-1 0,-6 -56,-11 -124,-11 -69,0 -124,5 -124,11 0,1 0,1 0,1l-6 0c0,0 0,0 0,-1 0,-6 58,-12 130,-12 71,0 130,6 130,12 0,1 0,1 -1,1z"/>
    <path class="fil40" d="M7450 2558c-68,0 -122,-5 -124,-11l5 0c3,6 55,11 119,11 64,0 116,-5 118,-11l6 0c-2,6 -57,11 -124,11z"/>
    <path class="fil88" d="M7574 2547l-6 0c0,0 0,0 0,-1 0,-6 -53,-11 -118,-11 -66,0 -119,5 -119,11 0,1 0,1 0,1l-5 0c0,0 0,0 0,-1 0,-6 55,-11 124,-11 68,0 124,5 124,11 0,1 0,1 0,1z"/>
    <path class="fil41" d="M7450 2558c-64,0 -116,-5 -119,-11l6 0c2,6 52,10 113,10 60,0 110,-4 112,-10l6 0c-2,6 -54,11 -118,11z"/>
    <path class="fil88" d="M7568 2547l-6 0c0,0 0,0 0,-1 0,-6 -50,-10 -112,-10 -63,0 -113,4 -113,10 0,1 0,1 0,1l-6 0c0,0 0,0 0,-1 0,-6 53,-11 119,-11 65,0 118,5 118,11 0,1 0,1 0,1z"/>
    <path class="fil42" d="M7450 2557c-61,0 -111,-4 -113,-10l6 0c2,5 49,10 107,10 57,0 104,-5 107,-10l5 0c-2,6 -52,10 -112,10z"/>
    <path class="fil88" d="M7562 2547l-5 0c0,0 0,0 0,-1 0,-5 -48,-10 -107,-10 -59,0 -107,5 -107,10 0,1 0,1 0,1l-6 0c0,0 0,0 0,-1 0,-6 50,-10 113,-10 62,0 112,4 112,10 0,1 0,1 0,1z"/>
    <path class="fil43" d="M7450 2557c-58,0 -105,-5 -107,-10l6 0c2,5 46,9 101,9 54,0 99,-4 101,-9l6 0c-3,5 -50,10 -107,10z"/>
    <path class="fil88" d="M7557 2547l-6 0c0,0 0,0 0,-1 0,-5 -45,-9 -101,-9 -56,0 -102,4 -102,9 0,1 1,1 1,1l-6 0c0,0 0,0 0,-1 0,-5 48,-10 107,-10 59,0 107,5 107,10 0,1 0,1 0,1z"/>
    <path class="fil44" d="M7450 2556c-55,0 -99,-4 -101,-9l5 0c3,5 44,9 96,9 51,0 93,-4 95,-9l6 0c-2,5 -47,9 -101,9z"/>
    <path class="fil88" d="M7551 2547l-6 0c0,0 0,0 0,-1 0,-5 -43,-9 -95,-9 -53,0 -96,4 -96,9 0,1 0,1 0,1l-5 0c0,0 -1,0 -1,-1 0,-5 46,-9 102,-9 56,0 101,4 101,9 0,1 0,1 0,1z"/>
    <path class="fil45" d="M7450 2556c-52,0 -93,-4 -96,-9l6 0c2,4 41,8 90,8 48,0 87,-4 89,-8l6 0c-2,5 -44,9 -95,9z"/>
    <path class="fil88" d="M7545 2547l-6 0c0,0 0,0 0,-1 0,-4 -40,-8 -89,-8 -50,0 -90,4 -90,8 0,1 0,1 0,1l-6 0c0,0 0,0 0,-1 0,-5 43,-9 96,-9 52,0 95,4 95,9 0,1 0,1 0,1z"/>
    <path class="fil46" d="M7450 2555c-49,0 -88,-4 -90,-8l6 0c2,4 39,8 84,8 45,0 81,-4 84,-8l5 0c-2,4 -41,8 -89,8z"/>
    <path class="fil88" d="M7539 2547l-5 0c0,0 0,0 0,-1 0,-4 -38,-8 -84,-8 -47,0 -84,4 -84,8 0,1 0,1 0,1l-6 0c0,0 0,0 0,-1 0,-4 40,-8 90,-8 49,0 89,4 89,8 0,1 0,1 0,1z"/>
    <path class="fil47" d="M7450 2555c-45,0 -82,-4 -84,-8l5 0c3,4 37,7 79,7 42,0 76,-3 78,-7l6 0c-3,4 -39,8 -84,8z"/>
    <path class="fil88" d="M7534 2547l-6 0c0,0 0,0 0,-1 0,-4 -35,-7 -78,-7 -44,0 -79,3 -79,7 0,1 0,1 0,1l-5 0c0,0 0,0 0,-1 0,-4 37,-8 84,-8 46,0 84,4 84,8 0,1 0,1 0,1z"/>
    <path class="fil48" d="M7450 2554c-42,0 -76,-3 -79,-7l6 0c2,4 34,6 73,6 38,0 70,-2 72,-6l6 0c-2,4 -36,7 -78,7z"/>
    <path class="fil88" d="M7528 2547l-6 0c0,0 0,0 0,-1 0,-3 -32,-6 -72,-6 -40,0 -73,3 -73,6 0,1 0,1 0,1l-6 0c0,0 0,0 0,-1 0,-4 35,-7 79,-7 43,0 78,3 78,7 0,1 0,1 0,1z"/>
    <path class="fil49" d="M7450 2553c-39,0 -71,-2 -73,-6l6 0c2,3 31,6 67,6 35,0 64,-3 66,-6l6 0c-2,4 -34,6 -72,6z"/>
    <path class="fil88" d="M7522 2547l-6 0c0,0 0,0 0,-1 0,-3 -29,-6 -66,-6 -37,0 -67,3 -67,6 0,1 0,1 0,1l-6 0c0,0 0,0 0,-1 0,-3 33,-6 73,-6 40,0 72,3 72,6 0,1 0,1 0,1z"/>
    <path class="fil50" d="M7450 2553c-36,0 -65,-3 -67,-6l6 0c2,3 28,5 61,5 32,0 58,-2 61,-5l5 0c-2,3 -31,6 -66,6z"/>
    <path class="fil88" d="M7516 2547l-5 0c0,0 0,0 0,-1 0,-3 -28,-5 -61,-5 -34,0 -61,2 -61,5 0,1 0,1 0,1l-6 0c0,0 0,0 0,-1 0,-3 30,-6 67,-6 37,0 66,3 66,6 0,1 0,1 0,1z"/>
    <path class="fil51" d="M7450 2552c-33,0 -59,-2 -61,-5l5 0c3,3 27,5 56,5 29,0 53,-2 55,-5l6 0c-3,3 -29,5 -61,5z"/>
    <path class="fil88" d="M7511 2547l-6 0c0,0 0,0 0,-1 0,-2 -25,-5 -55,-5 -31,0 -56,3 -56,5 0,1 0,1 0,1l-5 0c0,0 0,0 0,-1 0,-3 27,-5 61,-5 33,0 61,2 61,5 0,1 0,1 0,1z"/>
    <path class="fil52" d="M7450 2552c-29,0 -53,-2 -56,-5l6 0c2,2 24,4 50,4 26,0 47,-2 49,-4l6 0c-2,3 -26,5 -55,5z"/>
    <path class="fil88" d="M7505 2547l-6 0c0,0 0,0 0,-1 0,-2 -22,-4 -49,-4 -28,0 -50,2 -50,4 0,1 0,1 0,1l-6 0c0,0 0,0 0,-1 0,-2 25,-5 56,-5 30,0 55,3 55,5 0,1 0,1 0,1z"/>
    <path class="fil53" d="M7450 2551c-26,0 -48,-2 -50,-4l6 0c2,2 21,4 44,4 22,0 41,-2 43,-4l6 0c-2,2 -23,4 -49,4z"/>
    <path class="fil88" d="M7499 2547l-6 0c0,0 1,0 1,-1 0,-2 -20,-4 -44,-4 -25,0 -44,2 -44,4 0,1 0,1 0,1l-6 0c0,0 0,0 0,-1 0,-2 22,-4 50,-4 27,0 49,2 49,4 0,1 0,1 0,1z"/>
    <path class="fil54" d="M7450 2551c-23,0 -42,-2 -44,-4l87 0c-2,2 -21,4 -43,4z"/>
    <path class="fil88" d="M7493 2547l-87 0c0,0 0,0 0,-1 0,-2 19,-4 44,-4 24,0 44,2 44,4 0,1 -1,1 -1,1z"/>
   </g>
   <path class="fil111 str0" d="M3966 2963l-51 0c-11,0 -20,-4 -28,-12 -8,-8 -12,-17 -12,-28l0 -122c0,-12 4,-21 11,-29 8,-8 18,-12 29,-12l51 0c3,0 5,1 7,3 2,2 3,5 3,7 0,2 -1,5 -2,7 -2,2 -5,3 -8,3l-51 0c-6,0 -10,2 -14,6 -2,2 -4,4 -5,7 -1,2 -1,5 -1,8l0 122c0,5 2,10 6,14 2,2 4,3 6,5 3,0 6,1 8,1l51 0c3,0 5,1 7,3 2,2 3,4 3,7 0,2 -1,5 -2,7 -2,2 -5,3 -8,3zm193 -10c0,3 -1,6 -3,8 -2,1 -4,2 -7,2 -3,0 -5,-1 -7,-2 -2,-2 -3,-5 -3,-8l0 -145 -42 70c-3,5 -6,7 -9,7 -3,0 -6,-2 -9,-7l-42 -70 0 145c0,3 -1,6 -3,8 -2,1 -4,2 -7,2 -3,0 -5,-1 -7,-2 -2,-2 -3,-5 -3,-8l0 -182c0,-4 1,-7 3,-8 1,-2 3,-4 6,-4 2,0 3,1 5,2 1,1 3,3 5,5l52 87 52 -87c2,-4 6,-7 10,-7 2,0 4,2 6,4 2,2 3,5 3,8l0 182zm162 0c0,3 -1,6 -3,8 -2,1 -4,2 -7,2 -3,0 -5,-1 -7,-2 -2,-2 -3,-5 -3,-8l0 -143 -83 148c-1,2 -2,4 -4,5l-2 1c-1,0 -2,1 -3,1 -2,0 -5,-1 -7,-3 -2,-2 -3,-5 -3,-9l0 -183c0,-2 1,-5 3,-7 2,-2 5,-3 7,-3 3,0 5,1 7,3 2,1 3,4 3,7l0 144 83 -149c1,-1 2,-3 4,-4 2,-2 4,-3 6,-3 2,0 4,2 6,4 2,2 3,5 3,8l0 183z"/>
   <path class="fil111 str0" d="M6065 2945l-51 0c-11,0 -20,-4 -28,-12 -8,-8 -12,-18 -12,-29l0 -122c0,-11 4,-21 11,-29 8,-7 18,-11 29,-11l51 0c3,0 5,1 7,3 2,2 3,4 3,7 0,2 -1,4 -2,6 -2,3 -5,4 -8,4l-51 0c-6,0 -10,2 -14,6 -2,2 -4,4 -5,6 -1,3 -1,5 -1,8l0 122c0,6 2,11 6,15 2,1 4,3 6,4 3,1 6,1 8,1l51 0c3,0 5,2 7,4 2,2 3,4 3,7 0,2 -1,4 -2,6 -2,3 -5,4 -8,4zm71 -122l51 0c3,0 5,1 7,3 2,2 3,4 3,7 0,2 -1,5 -3,7 -1,2 -4,3 -7,3l-51 0 0 81 71 0c3,0 5,2 7,4 2,2 3,4 3,7 0,2 -1,4 -2,6 -2,3 -4,4 -8,4l-81 0c-7,0 -10,-4 -10,-10l0 -183c0,-7 3,-10 10,-10l81 0c3,0 5,1 7,3 2,2 3,4 3,7 0,2 -1,4 -2,7 -2,2 -4,3 -8,3l-71 0 0 61zm172 -61l-40 0c-3,0 -6,-1 -8,-3 -1,-2 -2,-5 -2,-7 0,-3 0,-5 2,-7 2,-2 4,-3 8,-3l101 0c3,0 5,1 7,3 2,2 3,4 3,7 0,2 0,4 -2,6 -2,3 -4,4 -8,4l-40 0 0 173c0,3 -1,5 -3,7 -2,2 -5,3 -8,3 -2,0 -5,-1 -7,-3 -2,-2 -3,-4 -3,-7l0 -173zm132 61l51 0c3,0 5,1 7,3 2,2 3,4 3,7 0,2 0,5 -2,7 -2,2 -4,3 -8,3l-51 0 0 81 71 0c3,0 6,2 8,4 2,2 3,4 3,7 0,2 -1,4 -3,6 -2,3 -4,4 -7,4l-82 0c-7,0 -10,-4 -10,-10l0 -183c0,-7 3,-10 10,-10l82 0c2,0 5,1 7,3 2,2 3,4 3,7 0,2 -1,4 -3,7 -2,2 -4,3 -8,3l-71 0 0 61zm224 6c6,3 11,8 14,14 4,7 6,13 6,20l0 41c0,11 -4,21 -12,29 -8,8 -18,12 -29,12l-71 0c-7,0 -10,-4 -10,-10l0 -183c0,-7 3,-10 10,-10l61 0c11,0 21,4 29,11 8,8 12,18 12,29l0 21c0,4 -1,9 -3,13 -1,4 -3,9 -7,13zm-82 14l0 81 61 0c6,0 11,-1 15,-5 4,-4 6,-9 6,-15l0 -41c0,-5 -2,-10 -6,-14 -4,-4 -9,-6 -15,-6l-61 0zm51 -20c6,0 10,-2 15,-6 3,-4 5,-8 5,-14l0 -21c0,-6 -1,-10 -5,-14 -4,-4 -9,-6 -15,-6l-51 0 0 61 51 0zm234 112c0,3 -1,5 -3,7 -2,2 -5,3 -8,3 -2,0 -5,-1 -7,-3 -2,-2 -3,-4 -3,-7l0 -183c0,-3 1,-5 3,-8 2,-1 5,-2 7,-2 3,0 5,0 8,2 2,2 3,4 3,8l0 183zm-122 -92l0 81 40 0c6,0 11,-1 15,-5 4,-4 6,-9 6,-15l0 -41c0,-5 -2,-10 -6,-14 -4,-4 -9,-6 -15,-6l-40 0zm0 -20l40 0c11,0 21,4 29,12 8,8 12,17 12,29l0 40c0,11 -4,21 -12,29 -8,8 -18,12 -29,12l-51 0c-6,0 -10,-4 -10,-10l0 -183c0,-3 1,-5 3,-8 2,-1 5,-2 7,-2 3,0 5,0 7,2 2,2 4,4 4,8l0 71zm182 0l51 0c3,0 5,1 7,3 2,2 3,4 3,7 0,2 0,5 -2,7 -2,2 -4,3 -8,3l-51 0 0 81 71 0c3,0 6,2 8,4 2,2 3,4 3,7 0,2 -1,4 -3,6 -2,3 -4,4 -7,4l-82 0c-7,0 -10,-4 -10,-10l0 -183c0,-7 3,-10 10,-10l82 0c2,0 5,1 7,3 2,2 3,4 3,7 0,2 -1,4 -3,7 -2,2 -4,3 -8,3l-71 0 0 61zm365 112c0,3 0,5 -2,7 -2,2 -5,3 -8,3 -2,0 -5,-1 -7,-3 -2,-2 -3,-4 -3,-7l0 -144 -82 148c-1,3 -3,4 -5,5l-2 2c0,0 -2,0 -3,0 -2,0 -4,-1 -7,-3 -1,-2 -2,-5 -2,-8l0 -183c0,-3 1,-5 3,-8 2,-1 4,-2 7,-2 2,0 5,1 7,2 2,2 3,5 3,8l0 143 82 -148c1,-2 3,-3 5,-5 2,-1 3,-2 5,-2 2,0 4,1 6,3 2,2 3,5 3,9l0 183zm102 -92l-30 0c-3,0 -6,-1 -8,-3 -2,-2 -2,-4 -2,-7 0,-2 0,-5 2,-7 2,-2 4,-3 8,-3l30 0c6,0 11,-2 14,-6 4,-3 6,-8 6,-14l0 -21c0,-6 -2,-10 -5,-14 -4,-4 -9,-6 -15,-6l-20 0c-5,0 -9,1 -12,4 -3,2 -6,5 -7,10 -1,2 -2,3 -4,5 0,0 -1,1 -2,2l-4 0c-3,0 -5,-1 -7,-3 -2,-2 -3,-4 -3,-7l0 -4c3,-8 8,-14 15,-20 7,-5 15,-7 24,-7l20 0c11,0 21,4 29,11 8,8 12,18 12,29l0 21c0,5 -2,11 -4,16 -2,6 -6,10 -10,14 9,8 14,18 14,30l0 41c0,11 -4,21 -12,29 -8,8 -18,12 -29,12l-20 0c-9,0 -17,-3 -24,-8 -7,-5 -12,-12 -15,-20l0 -4c0,-2 1,-5 3,-7 2,-2 4,-3 7,-3 4,0 7,2 9,7 2,4 4,8 8,11 4,2 8,3 12,3l20 0c6,0 11,-1 14,-5 4,-4 6,-9 6,-15l0 -41c0,-6 -1,-10 -4,-14 -4,-4 -9,-6 -16,-6zm92 81l19 -173c0,-6 4,-9 11,-9l60 0c7,0 11,3 11,10l0 172 10 0c7,0 10,4 10,11l0 20c0,3 -1,5 -3,7 -2,2 -4,3 -7,3 -2,0 -5,-1 -7,-3 -2,-1 -3,-4 -3,-7l0 -10 -102 0 0 10c0,3 -1,5 -3,7 -2,2 -5,3 -7,3 -2,0 -5,-1 -7,-3 -2,-1 -3,-4 -3,-7l0 -20c0,-7 3,-11 10,-11l11 0zm80 0l0 -162 -41 0 -19 162 60 0zm117 -30l-15 44c0,2 -2,4 -3,5 -2,1 -4,1 -6,2 -3,0 -5,-1 -7,-3 -2,-2 -3,-4 -3,-7l0 -4 61 -182c3,-6 6,-9 10,-9 4,0 8,3 10,9l60 182 1 4c0,2 -1,5 -3,7 -2,2 -5,3 -7,3 -2,0 -3,-1 -5,-1 -2,-1 -3,-3 -5,-6l-14 -44 -74 0zm67 -21l-30 -89 -30 89 60 0zm182 -50l0 -71c0,-3 1,-5 3,-7 2,-2 4,-3 7,-3 2,0 5,0 7,2 2,2 3,4 3,8l0 182c0,3 -1,6 -3,8 -3,2 -5,3 -7,3 -3,0 -5,-1 -8,-3 -1,-1 -2,-4 -2,-7l0 -92 -82 0 0 92c0,3 -1,5 -3,7 -1,2 -4,3 -7,3 -3,0 -5,-1 -7,-3 -2,-2 -3,-4 -3,-7l0 -183c0,-3 1,-5 3,-8 2,-1 4,-2 7,-2 3,0 5,1 7,2 2,2 3,5 3,8l0 71 82 0zm182 112c0,3 -1,5 -3,7 -2,2 -4,3 -7,3 -3,0 -5,-1 -7,-3 -2,-2 -3,-4 -3,-7l0 -144 -82 148c-2,3 -3,4 -5,5l-2 2c-1,0 -2,0 -3,0 -2,0 -4,-1 -7,-3 -2,-2 -3,-5 -3,-8l0 -183c0,-3 1,-5 3,-8 2,-1 5,-2 7,-2 3,0 5,1 7,2 3,2 4,5 4,8l0 143 82 -148c1,-2 2,-3 4,-5 2,-1 4,-2 6,-2 2,0 4,1 6,3 2,2 3,5 3,9l0 183zm142 -92l0 -81 -61 0c-5,0 -10,2 -14,6 -2,2 -4,4 -5,6 -1,3 -1,5 -1,8l0 41c0,6 2,10 6,14 2,2 4,4 6,5 3,1 6,1 8,1l61 0zm-35 20l-48 77c-2,3 -4,5 -8,5 -2,0 -5,-1 -7,-4 -2,-2 -3,-4 -3,-7 0,-2 0,-3 1,-5l41 -66 -2 0c-11,0 -20,-4 -28,-11 -8,-8 -12,-18 -12,-29l0 -41c0,-11 4,-21 12,-29 7,-7 17,-11 28,-11l71 0c7,0 10,3 10,10l0 183c0,3 -1,5 -2,7 -2,2 -5,3 -8,3 -2,0 -5,-1 -7,-3 -2,-2 -3,-4 -3,-8l0 -71 -35 0z"/>
   <path class="fil112" d="M6366 3446c16,-25 33,-50 49,-75 2,-4 5,-7 7,-11 -19,28 -37,57 -56,86zm-67 108c0,1 -1,2 -1,3 0,1 -1,1 -1,2 2,0 4,-1 6,-1 2,-1 4,-6 6,-8 0,-1 1,-2 2,-3 -2,3 -5,6 -7,9 -2,2 -5,0 -5,-2zm64 -87c7,-11 13,-22 20,-33 7,-12 15,-24 22,-36 -22,34 -43,67 -65,101 8,-10 15,-21 23,-32zm-19 41c-8,12 -16,23 -24,35 0,0 0,1 -1,1 9,-12 17,-24 25,-36zm57 -190c15,-12 31,-23 46,-33 12,-10 23,-20 35,-30 3,-3 8,1 5,5 -1,1 -2,2 -3,2 0,1 0,1 0,1 0,0 0,1 0,1 0,1 0,2 0,2 0,0 0,1 1,1 0,-1 0,-1 0,-1 0,0 0,0 0,0 1,-4 7,-4 7,0 0,0 0,0 0,0 0,1 0,3 0,4 -1,5 -1,11 -1,17 0,10 0,21 -1,31 -1,20 -2,39 -6,59 0,3 -6,3 -6,-1 0,-2 0,-3 0,-5 0,0 0,0 0,0 0,1 0,2 -1,3 -1,3 -6,3 -6,-1 0,-3 1,-6 1,-9 -1,-1 -1,-1 -1,-2 1,-3 1,-6 1,-8 0,0 -1,0 -1,0 -1,1 -2,0 -2,0 -1,0 -1,-1 -1,-1 -2,-2 1,-5 3,-3 -3,-2 2,-17 2,-21 0,-4 1,-7 1,-11 1,-9 1,-18 2,-27 -3,6 -7,13 -10,19 -45,92 -99,179 -159,261 -2,3 -6,0 -5,-3 3,-3 5,-6 7,-9 -6,8 -14,13 -19,4 -1,0 -1,-2 0,-2 54,-92 111,-181 172,-269 -19,13 -38,27 -57,40 -2,2 -5,-1 -5,-4 -1,-1 -1,-3 0,-5 1,0 1,0 1,0 -1,-2 -2,-4 0,-5z"/>
   <path class="fil112" d="M5177 3446c-16,-25 -32,-50 -48,-75 -2,-4 -5,-7 -7,-11 19,28 37,57 55,86zm67 108c1,1 1,2 2,3 0,1 0,1 1,2 -2,0 -4,-1 -6,-1 -3,-1 -5,-6 -6,-8 -1,-1 -2,-2 -2,-3 2,3 4,6 7,9 1,2 5,0 4,-2zm-63 -87c-7,-11 -14,-22 -20,-33 -8,-12 -15,-24 -22,-36 22,34 43,67 64,101 -7,-10 -15,-21 -22,-32zm19 41c8,12 16,23 24,35 0,0 0,1 0,1 -8,-12 -16,-24 -24,-36zm-57 -190c-15,-12 -31,-23 -47,-33 -11,-10 -23,-20 -34,-30 -4,-3 -8,1 -5,5 1,1 2,2 2,2 0,1 1,1 1,1 0,0 0,1 0,1 0,1 0,2 0,2 0,0 -1,1 -1,1 0,-1 0,-1 -1,-1 0,0 0,0 0,0 0,-4 -6,-4 -6,0 0,0 0,0 0,0 0,1 0,3 0,4 0,5 1,11 1,17 0,10 0,21 1,31 0,20 2,39 5,59 1,3 7,3 7,-1 0,-2 -1,-3 -1,-5 0,0 0,0 0,0 1,1 1,2 1,3 1,3 7,3 7,-1 -1,-3 -1,-6 -1,-9 0,-1 0,-1 0,-2 0,-3 0,-6 0,-8 0,0 0,0 0,0 1,1 2,0 3,0 0,0 1,-1 1,-1 2,-2 -1,-5 -3,-3 2,-2 -2,-17 -2,-21 -1,-4 -1,-7 -1,-11 -1,-9 -2,-18 -2,-27 3,6 7,13 10,19 45,92 98,179 159,261 2,3 6,0 4,-3 -2,-3 -4,-6 -6,-9 6,8 13,13 19,4 1,0 0,-2 0,-2 -54,-92 -112,-181 -172,-269 19,13 37,27 56,40 3,2 6,-1 5,-4 2,-1 2,-3 0,-5 0,0 0,0 0,0 1,-2 2,-4 0,-5z"/>
  </g>
 </g>
</svg>
