<?xml version="1.0" encoding="UTF-8"?>
<!DOCTYPE svg PUBLIC "-//W3C//DTD SVG 1.0//EN" "http://www.w3.org/TR/2001/REC-SVG-20010904/DTD/svg10.dtd">
<!-- Creator: CorelDRAW X7 -->
<svg xmlns="http://www.w3.org/2000/svg" xml:space="preserve" width="115mm" height="70.122mm" version="1.0" style="shape-rendering:geometricPrecision; text-rendering:geometricPrecision; image-rendering:optimizeQuality; fill-rule:evenodd; clip-rule:evenodd"
viewBox="0 0 11500 7012"
 xmlns:xlink="http://www.w3.org/1999/xlink">
 <defs>
  <style type="text/css">
   <![CDATA[
    .str0 {stroke:#00CD99;stroke-width:8.76524}
    .str2 {stroke:#14A0C1;stroke-width:8.76524}
    .str1 {stroke:#4F7CAA;stroke-width:8.76524}
    .str3 {stroke:#5059AC;stroke-width:8.76524}
    .str4 {stroke:#FF004D;stroke-width:8.76524}
    .fil5 {fill:#00CD99}
    .fil4 {fill:#14A0C1}
    .fil3 {fill:#4F7CAA}
    .fil2 {fill:#5059AC}
    .fil6 {fill:gray}
    .fil1 {fill:#FF004D}
    .fil0 {fill:url(#id0)}
   ]]>
  </style>
  <radialGradient id="id0" gradientUnits="userSpaceOnUse" gradientTransform="matrix(1.17124 -0 -0 1.92083 -985 -3229)" cx="5750" cy="3506.1" r="3506.1" fx="5750" fy="3506.1">
   <stop offset="0" style="stop-opacity:1; stop-color:#FEFEFE"/>
   <stop offset="0.439216" style="stop-opacity:1; stop-color:#FEFEFE"/>
   <stop offset="1" style="stop-opacity:1; stop-color:#D1E2F2"/>
  </radialGradient>
 </defs>
 <g id="Layer_x0020_1">
  <metadata id="CorelCorpID_0Corel-Layer"/>
  <path class="fil0" d="M0 0l11500 0 0 7012 -11500 0 0 -7012z"/>
  <g id="_273174930192">
   <path class="fil1" d="M7718 4235c-120,-3 -240,-51 -331,-143 -188,-190 -187,-498 3,-686 1,0 1,-1 2,-1l-109 -110c0,1 -1,1 -1,2 -251,248 -253,652 -5,903 122,123 281,186 441,189l0 -154z"/>
   <path class="fil2" d="M3765 2459c121,3 240,50 332,143 188,190 186,497 -4,685 0,1 -1,1 -1,2l108 109c1,0 1,-1 2,-1 250,-248 252,-653 4,-904 -122,-123 -281,-185 -441,-189l0 155z"/>
   <path class="fil1" d="M8997 4389l-1283 0 0 -154 1283 0 0 154z"/>
   <path class="fil2" d="M3768 2458l-1284 0 0 -154 1284 0 0 154z"/>
   <path class="fil2" d="M4522 4464c-93,0 -168,-76 -168,-169 0,-93 75,-168 168,-168 93,0 169,75 169,168 0,93 -76,169 -169,169zm0 -375c-114,0 -206,92 -206,206 0,114 92,207 206,207 114,0 207,-93 207,-207 0,-114 -93,-206 -207,-206z"/>
   <path class="fil3" d="M5338 2572c-93,0 -169,-76 -169,-169 0,-93 76,-168 169,-168 93,0 168,75 168,168 0,93 -75,169 -168,169zm0 -375c-114,0 -207,92 -207,206 0,114 93,207 207,207 114,0 206,-93 206,-207 0,-114 -92,-206 -206,-206z"/>
   <path class="fil3" d="M5160 2508c-18,-30 -29,-66 -29,-105 0,-17 3,-35 7,-51 -89,30 -173,80 -244,151 -250,248 -253,651 -6,902l110 -108c-187,-190 -185,-497 5,-684 46,-47 100,-81 157,-105z"/>
   <path class="fil4" d="M5798 2507c-76,-76 -166,-129 -262,-159 5,17 8,36 8,55 0,37 -10,72 -26,102 62,23 120,60 170,111 188,190 187,497 -3,686 0,0 -1,1 -1,1l108 109c0,0 1,0 1,-1 251,-248 253,-653 5,-904z"/>
   <path class="fil2" d="M4316 4295c0,-39 11,-76 30,-107 -54,-24 -105,-58 -150,-103 -188,-190 -186,-498 4,-686 0,0 1,-1 1,-1l-108 -110c-1,1 -1,1 -2,2 -250,248 -252,652 -4,903 69,69 149,120 235,151 -4,-16 -6,-32 -6,-49z"/>
   <path class="fil3" d="M4996 3295l-109 109c187,190 185,496 -5,684 -52,51 -112,89 -177,112 15,28 24,61 24,95 0,22 -4,43 -10,62 99,-28 193,-82 272,-159 250,-248 252,-652 5,-903z"/>
   <path class="fil3" d="M4728 3177c-12,-40 12,-64 52,-54l47 12c40,10 106,27 146,37l47 12c40,10 49,43 20,72l-33 35c-29,30 -77,78 -106,108l-33 34c-29,30 -62,22 -73,-18l-13 -46c-11,-40 -30,-106 -41,-146l-13 -46z"/>
   <path class="fil4" d="M6168 4459c-93,0 -169,-76 -169,-169 0,-93 76,-168 169,-168 93,0 169,75 169,168 0,93 -76,169 -169,169zm0 -375c-114,0 -206,92 -206,206 0,114 92,206 206,206 114,0 206,-92 206,-206 0,-114 -92,-206 -206,-206z"/>
   <path class="fil5" d="M6596 3303l-110 108c187,190 185,497 -5,684 -40,40 -85,71 -133,94 17,30 26,64 26,101 0,20 -3,40 -8,59 81,-31 158,-79 224,-144 250,-248 252,-652 6,-902z"/>
   <path class="fil4" d="M5962 4290c0,-29 6,-57 17,-82 -67,-24 -130,-62 -183,-116 -189,-190 -187,-498 3,-686 0,0 1,-1 1,-1l-108 -110c-1,1 -1,1 -2,2 -250,248 -252,653 -4,903 83,85 184,141 291,169 -10,-25 -15,-51 -15,-79z"/>
   <path class="fil5" d="M7132 2417c0,93 -75,169 -168,169 -93,0 -169,-76 -169,-169 0,-93 76,-168 169,-168 93,0 168,75 168,168zm38 0c0,-114 -92,-206 -206,-206 -114,0 -207,92 -207,206 0,114 93,207 207,207 114,0 206,-93 206,-207z"/>
   <path class="fil1" d="M7391 3405l-109 -108c186,-190 184,-497 -5,-685 -40,-39 -85,-70 -134,-93 17,-30 27,-65 27,-102 0,-20 -3,-39 -8,-58 81,31 158,79 223,144 251,248 253,651 6,902z"/>
   <path class="fil5" d="M6757 2417c0,30 6,57 17,83 -67,23 -130,62 -183,116 -188,190 -186,497 3,685 1,1 2,1 2,2l-108 109c-1,0 -1,-1 -2,-1 -251,-248 -253,-653 -4,-904 83,-84 184,-140 291,-168 -10,24 -16,51 -16,78z"/>
   <path class="fil6" d="M4439 3777c-3,0 -5,-2 -5,-5 0,-3 2,-5 5,-5 2,0 4,2 4,5 0,3 -2,5 -4,5zm-11 -5c0,6 5,10 11,10 5,0 10,-4 10,-10 0,-6 -5,-10 -10,-10 -6,0 -11,4 -11,10z"/>
   <path class="fil6" d="M4586 3520l0 -30 34 30 -34 0zm-144 222l0 -78c5,-12 3,-21 2,-29 -1,-3 -1,-6 0,-8 3,-7 4,-20 4,-24 2,-1 6,-4 8,-9 6,-11 8,-20 4,-26 -2,-6 -7,-8 -10,-9 -2,-1 -3,-1 -4,-1 0,0 0,0 0,0 -2,0 -3,0 -3,2 0,0 -1,1 -1,2 0,0 0,0 0,0l0 0 0 -4 0 -71 139 0 0 35c0,2 1,3 2,3l42 0 0 217 -183 0zm-6 -172l0 1c-4,6 -10,15 -15,20 -7,9 -20,37 -21,38 -1,1 0,3 1,4 1,0 2,0 3,0 0,-1 1,-1 1,-2 0,0 13,-28 20,-36 3,-3 7,-9 11,-15 1,-1 2,-2 3,-4 1,-1 2,-2 3,-4 2,-3 4,-6 5,-8 2,0 6,2 8,6 3,5 2,13 -3,22 -3,5 -8,7 -8,7 -1,0 -1,1 -1,2 0,0 0,6 -1,12 -1,4 -2,8 -3,11 0,0 0,0 0,0 -2,4 -1,8 0,12 0,1 0,2 0,3 1,5 2,10 0,16 0,2 -1,5 -3,8 -2,4 -5,8 -10,13 0,1 0,1 0,1 -1,1 -1,3 0,4 0,0 1,1 2,1 0,0 1,-1 2,-1 2,-3 5,-6 6,-8l0 54 -70 0 3 -33c0,-1 5,-64 50,-108 7,-6 12,-12 17,-16zm16 214l-97 0 0 -52 81 0 0 12 0 0c0,1 1,2 2,3 0,0 1,0 1,0l13 0 0 37zm178 -262c0,0 0,0 0,0 0,0 0,-1 0,-1 0,0 0,0 0,0 -1,0 -1,0 -1,0l-44 -39c0,0 0,0 -1,0 0,-1 0,-1 0,-1 0,0 0,0 0,0 0,0 -1,0 -1,0l-144 0c-1,0 -3,2 -3,3l0 79c-6,5 -13,12 -21,19 -46,45 -51,111 -51,111l-3 34 -9 0c-1,0 -2,1 -2,3l0 57c0,1 1,3 2,3l103 0c1,0 3,-2 3,-3l0 -40 169 0c2,0 3,-1 3,-3l0 -221c0,-1 0,-1 0,-1z"/>
   <path class="fil6" d="M4475 3546l96 0c2,0 3,-2 3,-3 0,-2 -1,-3 -3,-3l-95 0 -1 0c-1,0 -2,1 -2,2 0,1 0,1 0,1 0,1 1,3 2,3z"/>
   <path class="fil6" d="M4475 3591l125 0c2,0 3,-1 3,-3 0,-1 -1,-3 -3,-3l-125 0c-1,0 -2,2 -2,3 0,2 1,3 2,3z"/>
   <path class="fil6" d="M4475 3610c17,0 124,0 125,0 3,0 4,-5 1,-6 -2,0 -121,0 -124,0 -1,0 -2,0 -3,1 -2,1 -1,5 1,5z"/>
   <path class="fil6" d="M4475 3628c17,0 124,0 125,0 3,0 4,-5 1,-5 -2,-1 -123,0 -125,0 -1,0 -1,0 -2,0 -2,2 -1,5 1,5z"/>
   <path class="fil6" d="M4475 3659c17,0 124,0 125,0 4,0 4,-6 0,-6 -2,0 -121,0 -124,0 0,0 -1,0 -2,1 -2,1 -1,5 1,5z"/>
   <path class="fil6" d="M4475 3677l125 0c4,0 4,-5 0,-5l-125 0c-3,0 -3,5 0,5z"/>
   <path class="fil6" d="M4475 3696l125 0c4,0 4,-5 0,-5l-125 0c-3,0 -3,5 0,5z"/>
   <g>
    <path class="fil6" d="M6349 3724c3,0 5,4 6,6 2,6 3,11 3,17 0,6 0,12 -2,17 -1,3 -3,7 -7,8l0 -48zm-119 72l-73 -16c-11,-9 -20,-21 -20,-35 0,-10 3,-20 11,-27 8,-7 19,-11 30,-14 13,-3 27,-6 40,-7 19,-3 38,-5 57,-10 17,-4 34,-9 47,-20l1 143c0,5 7,5 7,0l-2 -161 14 0 1 198 -13 0 0 -10c0,-2 -3,-4 -4,-5 -1,-2 -3,-3 -4,-5 -3,-3 -6,-5 -10,-7 -7,-5 -14,-9 -22,-12 -19,-7 -40,-9 -60,-12zm-47 40c-2,-18 -8,-34 -18,-46l55 12c-7,7 -11,19 -13,32 -6,0 -15,1 -24,2zm-87 39l8 70 -37 5 -7 -71 36 -4zm121 -30c2,2 2,6 2,9 -1,2 -1,3 1,5 3,3 6,7 6,12 0,3 -1,6 -2,9 -1,2 -1,3 -1,5 1,4 2,8 1,12 0,2 -1,4 -3,5 -2,2 -5,3 -3,6 3,5 5,11 2,16 -3,4 -8,6 -13,8 -6,3 -12,5 -19,6 -13,4 -27,6 -41,5 -12,-1 -24,-5 -37,-4l-6 -61c10,-3 18,-11 23,-20 3,-5 5,-11 7,-16 1,-3 2,-5 3,-8 1,-2 2,-4 3,-6 6,-3 11,-5 17,-7 4,-1 8,-2 11,-1 5,1 6,8 4,12 -1,5 -6,7 -10,8 -3,1 -7,2 -6,6 1,2 3,2 5,2 6,-1 12,-3 17,-4 7,-1 15,-2 22,-3 5,0 14,-1 17,4 3,3 -1,-2 0,0zm148 -97c0,-18 -7,-31 -16,-32l0 -71c0,-2 -2,-3 -4,-3l-20 0c-2,0 -4,1 -4,3l0 12c-8,10 -20,15 -32,19 -15,5 -30,8 -46,10 -26,4 -54,6 -80,16 -14,5 -28,15 -32,30 -5,21 6,41 22,54 9,8 14,18 18,28 -7,-2 -15,0 -22,3 -4,1 -9,3 -13,5 -2,2 -3,5 -4,7 -7,16 -11,35 -29,42l0 -1c-1,-2 -2,-3 -4,-3l-44 5c-2,0 -3,2 -3,4l9 78c0,2 2,3 4,3l43 -5c2,0 4,-2 3,-4l0 -2c12,-1 24,3 36,4 14,1 28,-1 41,-4 10,-3 19,-6 28,-10 5,-3 9,-5 11,-10 2,-6 1,-12 -1,-18 7,-6 6,-17 4,-25 7,-12 1,-23 -4,-28 1,-9 -3,-18 -12,-20 3,-14 7,-27 16,-31 51,5 75,14 93,34l0 12c0,2 1,4 3,4l20 0c2,0 4,-2 4,-4l-1 -71c10,0 16,-14 16,-31 0,-18 0,17 0,0z"/>
    <path class="fil6" d="M6368 3736c1,2 3,2 5,1l76 -51c4,-2 0,-8 -4,-6l-76 51c-2,1 -2,3 -1,5 0,1 -1,-2 0,0z"/>
    <path class="fil6" d="M6364 3716c1,0 2,0 3,-1l61 -78c3,-3 -2,-8 -5,-4l-62 78c-1,2 0,6 3,5z"/>
    <path class="fil6" d="M6367 3788c-3,-3 -8,1 -5,5l63 77c2,3 8,-1 5,-5l-63 -77z"/>
    <path class="fil6" d="M6451 3752c0,0 0,0 0,0l-78 0c-5,0 -5,7 0,7l78 0c4,0 4,-7 0,-7z"/>
    <path class="fil6" d="M6446 3816l-73 -42c-4,-2 -8,4 -4,6l73 42c4,2 8,-4 4,-6z"/>
    <path class="fil6" d="M6076 3936c0,0 1,-1 1,-1 3,0 3,4 1,5l-1 0c-1,0 -2,-2 -1,-4 0,0 -1,1 0,0zm1 11c12,0 13,-18 1,-19 -5,0 -10,4 -10,9 0,5 4,10 9,10z"/>
   </g>
   <path class="fil4" d="M5591 3282c10,-40 43,-49 72,-19l34 33c30,30 78,78 107,107l34 34c29,30 20,63 -20,73l-46 13c-40,10 -106,28 -146,38l-46 13c-40,11 -64,-14 -54,-54l13 -46c11,-40 28,-106 39,-146l13 -46z"/>
   <path class="fil5" d="M6613 3198c40,11 49,43 20,73l-34 34c-30,29 -78,77 -107,107l-34 34c-29,29 -62,20 -73,-20l-12 -46c-11,-40 -29,-106 -39,-146l-13 -46c-11,-40 13,-65 54,-54l46 13c40,10 106,28 146,39l46 12z"/>
   <g>
    <path class="fil6" d="M5339 2805c23,0 81,0 87,0 1,0 2,0 3,0 3,0 5,-4 3,-5 -2,-2 -6,-1 -8,-1 -10,0 -84,0 -85,0 -4,0 -5,6 0,6z"/>
    <path class="fil6" d="M5339 2821c25,0 89,0 90,0 3,0 5,-3 3,-5 -2,-1 -7,0 -10,0 -9,0 -76,0 -81,0 -1,0 -1,0 -2,0 -4,0 -5,5 0,5z"/>
    <path class="fil6" d="M5339 2838c26,0 86,0 90,0 3,0 5,-4 2,-5 -1,-1 -3,-1 -4,-1 -13,0 -83,0 -86,0 -1,0 -2,0 -2,0 -4,0 -4,6 0,6z"/>
    <path class="fil6" d="M5297 2877c23,0 131,0 132,0 4,0 5,-6 0,-6 -24,0 -131,0 -132,0 -4,0 -5,6 0,6z"/>
    <path class="fil6" d="M5297 2894c23,0 131,0 132,0 4,0 5,-6 0,-6 -24,0 -131,0 -132,0 -4,0 -5,6 0,6z"/>
    <path class="fil6" d="M5475 3016c-18,-11 -89,-56 -106,-67 17,-11 88,-55 106,-66 0,20 0,132 0,133zm-205 -140l-15 0 15 -16 0 16zm186 0l0 -16 15 16 -15 0zm-205 140c0,-21 0,-132 0,-133 20,13 91,57 106,66 -19,12 -89,56 -106,67zm205 -134l9 0 -9 6 0 -6zm-186 6l-9 -6 9 0 0 6zm132 34c-25,0 -77,0 -78,0 -1,0 -13,-8 -17,-11l112 0 -17 11zm-51 16l-18 -11 60 0c-4,2 -17,11 -18,11 -8,0 -16,0 -24,0zm9 6l6 0 -3 2 -3 -2zm-148 -238c13,-2 27,-3 41,-5 7,0 12,0 19,1 20,3 41,8 61,13 6,1 11,2 17,4 8,2 16,4 23,7 5,3 10,8 16,12 7,5 16,10 24,16 -13,0 -25,0 -38,0 -1,0 -1,-1 -2,-2 -3,-2 -6,-4 -9,-6 -3,-3 -6,-5 -9,-7 -7,-5 -13,-11 -19,-17 -1,0 -1,-1 -2,-1 -2,-2 -5,-1 -5,2 0,2 3,4 5,6 6,6 13,12 21,18 4,3 9,6 14,10 5,4 11,9 15,14 2,2 4,4 6,6 1,2 1,3 -1,4 -4,2 -10,2 -14,1 -7,-1 -12,-4 -17,-8 -3,-2 -5,-4 -8,-6 -2,-3 -6,-3 -9,-4 -16,-5 -31,-10 -45,-17 -5,-2 -11,-5 -15,-8 -1,-1 -2,-2 -3,-3 -1,-2 -1,-4 -4,-3 -6,1 1,8 3,10 5,4 12,8 18,10 1,1 1,1 1,1 -2,0 -3,0 -5,0 -1,0 -2,0 -3,0 -1,0 -3,-2 -4,-2 -4,-2 -8,-5 -10,-8 -2,-1 -4,-1 -6,0 -15,2 -30,5 -45,9l-11 -47zm8 64c-14,2 -29,5 -43,7 -5,-22 -16,-70 -17,-72l43 -8c5,20 16,68 17,73zm57 -10c5,0 32,-1 34,0 8,3 15,5 23,8 3,1 6,2 10,3 3,1 5,4 7,6 10,8 24,14 37,11 7,-2 11,-7 8,-13 -4,-5 -9,-11 -15,-15 23,0 46,0 68,0 0,23 0,129 0,132 0,1 -4,3 -5,3 -3,2 -15,10 -15,10 -8,0 -126,0 -130,0 -3,0 -22,-12 -22,-13 0,-5 0,-132 0,-132zm-18 258c18,-11 88,-55 104,-65 19,12 89,56 104,65l-208 0zm220 -143c-1,0 -1,0 -1,-1 -1,-1 -18,-19 -22,-23 0,0 0,-70 0,-94 0,-3 -3,-3 -5,-3 -4,0 -27,0 -29,-1 -7,-5 -15,-10 -23,-16 -4,-2 -8,-5 -12,-8 -3,-2 -6,-4 -9,-6 -8,-5 -18,-7 -28,-10 -7,-2 -15,-4 -23,-6 -20,-4 -39,-9 -59,-11 -7,-1 -12,-1 -18,0 -13,1 -27,3 -40,4 0,-2 -1,-5 -1,-7 -1,-3 -4,-3 -6,-2 -7,1 -35,6 -42,8 -4,0 -9,0 -8,5 6,24 12,48 17,72 1,2 1,9 5,8 5,-1 44,-8 47,-9 2,0 5,-1 5,-3 0,-2 -3,-11 -3,-13 10,-3 21,-5 31,-7 4,-1 7,-1 11,-2 1,0 2,0 4,-1 0,0 1,2 2,2 1,1 2,2 4,3 -3,0 -6,0 -6,3 0,1 0,2 0,3 0,5 0,80 0,90 0,1 0,1 0,2 -2,2 -21,22 -22,23 0,0 0,0 -1,0 -1,0 -2,1 -2,3 0,0 0,138 0,141 0,2 0,5 3,5 5,0 228,0 230,0 3,0 3,-3 3,-5 0,-24 0,-117 0,-140 0,-2 0,-3 -2,-4 0,0 1,1 0,0z"/>
    <path class="fil6" d="M5183 2766c-1,-4 6,-5 7,-1 0,3 -6,5 -7,1 0,-1 0,1 0,0zm12 -4c-2,-4 -8,-7 -12,-5 -5,2 -8,8 -5,12 2,4 8,6 13,4 4,-2 6,-7 4,-11 -1,-3 1,0 0,0z"/>
   </g>
   <g>
    <path class="fil6" d="M6981 2717c1,0 3,0 4,0 20,2 36,18 38,37 0,2 0,3 0,5 0,2 2,4 4,4 3,0 4,-2 4,-4 0,-28 -22,-51 -50,-51 -2,0 -4,2 -4,4 0,3 2,5 4,5z"/>
    <path class="fil6" d="M6982 2701c31,0 55,25 55,55 0,29 -23,53 -52,55 6,-32 9,-48 8,-51 0,-7 -6,-13 -14,-13 -6,0 -12,3 -15,9 -1,2 -5,16 -12,46 -15,-10 -24,-27 -24,-46 0,-30 24,-55 54,-55zm-90 347c8,-15 14,-26 14,-28 1,-2 0,-5 -2,-17 -5,-19 -11,-51 -8,-66 4,-26 -4,-66 -4,-67 -1,-3 -10,-17 -16,-27 2,-1 5,-2 9,-2 8,0 16,6 22,17 11,21 11,40 12,47 0,2 0,2 0,3 0,2 2,4 4,4 3,0 4,-2 12,-20 2,-5 4,-9 5,-11 1,-2 4,-13 13,-51 1,-5 17,-68 18,-70 2,-3 5,-4 8,-4 2,0 6,1 6,4 0,4 -18,111 -18,115 0,1 0,2 1,2 0,1 3,5 7,5 1,0 2,0 3,-1 2,0 3,-2 6,-5 3,-4 11,-13 14,-13 4,-1 11,1 14,5 1,2 2,4 1,7l-7 13c-1,1 -1,2 -1,2 -1,3 0,5 2,6 2,1 4,0 5,-2l2 -3c4,-8 10,-14 13,-13 4,1 7,3 8,6 2,3 2,6 1,10 -3,6 -5,11 -6,15 -2,2 -2,4 -2,4 -1,2 0,4 2,5 2,1 4,0 5,-2l2 -4c1,-1 2,-3 4,-3 8,0 9,1 10,6 0,7 -15,84 -28,102 -7,10 -15,20 -22,30 -7,7 -12,14 -15,19l-94 -18zm-48 78l15 -76 141 27 -14 75 -142 -26zm186 -104c14,-19 30,-99 29,-108 -1,-12 -11,-13 -17,-13 0,-2 1,-3 2,-4 2,-6 1,-12 -1,-17 -3,-5 -8,-9 -14,-10 -3,-1 -5,0 -8,1 0,-4 -1,-6 -2,-8 -5,-7 -16,-9 -21,-8 -6,0 -13,7 -20,15 -1,1 -2,2 -3,3 1,-7 5,-32 9,-54 34,-1 61,-29 61,-63 0,-35 -28,-63 -63,-63 -34,0 -63,28 -63,63 0,23 12,43 31,54 -2,6 -3,12 -5,18 -5,22 -11,47 -13,49 0,2 -2,6 -4,12 -1,1 -1,2 -2,3 -1,-10 -4,-23 -12,-38 -9,-17 -21,-21 -29,-21 -10,0 -17,5 -17,5 -2,1 -2,4 -1,6 8,12 16,26 17,28 2,8 7,43 3,63 -3,17 4,50 8,70 2,6 3,12 3,14 -1,3 -7,13 -15,28l-27 -6c-2,0 -4,1 -5,4l-15 83c-1,1 0,2 0,3 1,1 2,2 3,2l149 28c1,0 1,0 1,0 2,0 4,-1 4,-3l16 -84c0,-1 0,-2 -1,-3 0,-1 -1,-1 -3,-2l-10 -2c3,-4 7,-9 12,-15 7,-10 16,-20 23,-30z"/>
    <path class="fil6" d="M7038 2939c1,1 2,1 3,1 1,0 2,0 3,-1 1,-1 1,-4 0,-5 -32,-37 -71,-51 -92,-46 -2,0 -3,2 -3,5 1,2 3,3 5,2 2,0 3,0 5,0 16,-1 44,8 72,36 2,3 5,5 7,8z"/>
    <path class="fil6" d="M6968 3136c-4,-1 -6,-4 -5,-8 0,-3 3,-6 6,-6 1,0 1,0 2,0 2,1 3,2 4,3 1,2 2,4 1,6 0,3 -4,6 -8,5zm4 -22c0,0 0,0 0,0 -1,0 -2,0 -3,0 0,0 -1,0 -2,0 -2,1 -4,1 -6,2 -1,1 -3,3 -4,4 -1,2 -2,4 -3,6 -1,9 4,17 13,18 1,0 1,0 2,0 8,0 14,-5 15,-12 1,-4 0,-8 -2,-11 -2,-4 -6,-6 -10,-7z"/>
   </g>
   <path class="fil5 str0" d="M6788 1958l12 -112c0,-4 2,-6 7,-6l39 0c4,0 7,2 7,7l0 111 6 0c5,0 7,3 7,7l0 13c0,2 -1,3 -2,4 -2,2 -3,2 -5,2 -1,0 -3,0 -4,-1 -2,-1 -2,-3 -2,-5l0 -7 -66 0 0 7c0,2 -1,3 -2,4 -1,2 -3,2 -4,2 -2,0 -3,0 -5,-1 -1,-1 -2,-3 -2,-5l0 -13c0,-4 2,-7 7,-7l7 0zm52 0l0 -105 -27 0 -12 105 39 0zm65 -65l33 0c2,0 3,0 5,2 1,1 1,3 1,4 0,2 0,3 -1,5 -1,1 -3,2 -5,2l-33 0 0 52 46 0c2,0 3,1 5,2 1,2 2,3 2,5 0,1 -1,3 -2,4 -1,2 -3,2 -5,2l-53 0c-4,0 -6,-2 -6,-6l0 -118c0,-5 2,-7 6,-7l53 0c2,0 3,1 5,2 1,2 2,3 2,5 0,1 -1,3 -2,4 -1,2 -3,2 -5,2l-46 0 0 40zm144 0l0 -46c0,-2 1,-3 2,-5 1,-1 3,-2 5,-2 1,0 3,1 4,2 2,1 2,3 2,5l0 118c0,2 0,3 -2,5 -1,1 -3,1 -4,1 -2,0 -4,0 -5,-1 -1,-1 -2,-3 -2,-5l0 -59 -52 0 0 59c0,2 -1,4 -2,5 -1,1 -3,1 -5,1 -2,0 -3,0 -4,-1 -2,-1 -2,-3 -2,-5l0 -118c0,-2 0,-3 2,-5 1,-1 2,-2 4,-2 2,0 3,1 5,2 1,1 2,3 2,5l0 46 52 0zm52 13l40 0c4,0 7,1 9,4 3,2 4,5 4,9l0 26c0,4 -1,7 -4,10 -1,1 -2,2 -4,2 -2,1 -3,1 -5,1l-40 0 0 -52zm0 -13l0 -46c0,-2 0,-3 -2,-5 -1,-1 -2,-2 -4,-2 -2,0 -3,1 -4,2 -2,1 -3,3 -3,5l0 118c0,4 3,6 7,6l46 0c7,0 13,-2 18,-7 5,-5 8,-11 8,-19l0 -26c0,-7 -2,-13 -8,-18 -5,-6 -11,-8 -18,-8l-40 0zm-419 170l-26 0c-2,0 -4,-1 -5,-2 -1,-1 -2,-3 -2,-4 0,-2 1,-3 2,-5 1,-1 3,-2 5,-2l66 0c1,0 3,1 4,2 1,1 2,3 2,5 0,1 0,2 -2,4 -1,1 -2,2 -4,2l-27 0 0 112c0,2 0,3 -2,5 -1,1 -2,1 -4,1 -2,0 -3,0 -5,-2 -1,-1 -2,-2 -2,-4l0 -112zm151 112c0,2 -1,3 -2,5 -1,1 -3,1 -5,1 -1,0 -3,0 -4,-2 -1,-1 -2,-2 -2,-4l0 -93 -53 96c-1,1 -2,2 -3,3l-2 1c0,0 -1,0 -2,0 -1,0 -2,0 -4,-2 -1,-1 -2,-3 -2,-5l0 -118c0,-2 1,-4 2,-5 2,-1 3,-2 5,-2 2,0 3,1 4,2 2,1 2,2 2,5l0 92 54 -96c0,-1 1,-2 2,-3 2,-1 3,-1 4,-1 1,0 3,1 4,2 1,1 2,3 2,6l0 118zm85 -7l33 0 0 -111c0,-2 0,-4 2,-5 1,-1 3,-2 4,-2 2,0 3,1 5,2 1,1 2,2 2,5l0 118c0,4 -2,6 -7,6l-91 0c-5,0 -7,-2 -7,-6l0 -118c0,-2 1,-4 2,-5 1,-1 3,-2 5,-2 1,0 3,1 4,2 2,1 2,2 2,5l0 111 33 0 0 -111c0,-2 1,-4 2,-5 1,-1 3,-2 4,-2 2,0 4,1 5,2 1,1 2,2 2,5l0 111zm151 7c0,2 -1,3 -2,5 -1,1 -3,1 -5,1 -1,0 -3,0 -4,-2 -2,-1 -2,-2 -2,-4l0 -93 -53 96c-1,1 -2,2 -3,3l-2 1c0,0 -1,0 -2,0 -1,0 -2,0 -4,-2 -1,-1 -2,-3 -2,-5l0 -118c0,-2 1,-4 2,-5 1,-1 3,-2 5,-2 1,0 3,1 4,2 2,1 2,2 2,5l0 92 53 -96c1,-1 2,-2 3,-3 1,-1 3,-1 4,-1 1,0 3,1 4,2 1,1 2,3 2,6l0 118zm92 -72l0 -46c0,-2 0,-4 2,-5 1,-1 2,-2 4,-2 2,0 3,1 5,2 1,1 2,2 2,5l0 117c0,2 -1,4 -2,5 -2,2 -3,2 -5,2 -2,0 -3,0 -5,-1 -1,-2 -1,-3 -1,-5l0 -59 -53 0 0 59c0,2 -1,3 -2,5 -1,1 -3,1 -4,1 -2,0 -4,0 -5,-2 -1,-1 -2,-2 -2,-4l0 -118c0,-2 1,-4 2,-5 1,-1 3,-2 5,-2 1,0 3,1 4,2 1,1 2,2 2,5l0 46 53 0zm131 72c0,2 -1,3 -2,5 -1,1 -3,1 -5,1 -2,0 -3,0 -4,-2 -2,-1 -2,-2 -2,-4l0 -118c0,-2 0,-4 2,-5 1,-1 2,-2 4,-2 2,0 3,1 5,2 1,1 2,2 2,5l0 118zm-79 -59l0 52 26 0c4,0 7,-1 10,-4 2,-2 3,-5 3,-9l0 -26c0,-4 -1,-7 -3,-10 -3,-2 -6,-3 -10,-3l-26 0zm0 -13l26 0c7,0 13,2 19,7 5,5 7,11 7,19l0 26c0,7 -2,13 -7,18 -5,6 -12,8 -19,8l-33 0c-4,0 -6,-2 -6,-6l0 -118c0,-2 0,-4 2,-5 1,-1 3,-2 4,-2 2,0 4,1 5,2 1,1 2,2 2,5l0 46z"/>
   <path class="fil3 str1" d="M4908 1985l34 -49c1,0 1,-1 2,-2 1,0 2,-1 3,-1 2,0 4,1 5,2 1,2 2,3 2,5 0,1 0,3 -1,4l-35 49 35 62c1,1 1,2 1,3 0,2 -1,3 -2,4 -1,2 -3,2 -5,2 -2,0 -4,-1 -5,-3l-34 -60 0 57c0,2 -1,4 -2,5 -1,1 -3,1 -4,1 -2,0 -4,0 -5,-1 -1,-1 -2,-3 -2,-5l0 -57 -33 60c-1,1 -2,2 -3,3l-2 0 -1 0c-2,0 -4,0 -5,-1 -1,-2 -2,-3 -2,-5 0,-1 0,-2 1,-3l35 -62 -35 -49c0,-1 -1,-2 -1,-4 0,-2 1,-3 2,-5 1,-1 3,-2 5,-2 2,0 3,1 5,3l34 49 0 -45c0,-2 1,-3 2,-5 1,-1 3,-2 5,-2 1,0 3,1 4,2 1,1 2,3 2,5l0 45zm85 1l33 0c2,0 3,1 5,2 1,1 2,3 2,4 0,2 -1,3 -2,5 -1,1 -3,2 -5,2l-33 0 0 52 46 0c2,0 4,1 5,2 1,2 2,3 2,5 0,2 -1,3 -2,4 -1,2 -3,2 -5,2l-52 0c-5,0 -7,-2 -7,-6l0 -118c0,-4 2,-7 7,-7l52 0c2,0 4,1 5,2 1,2 2,3 2,5 0,1 -1,3 -2,4 -1,2 -3,2 -5,2l-46 0 0 40zm92 13l39 0c4,0 7,-1 10,-4 2,-2 3,-5 3,-9l0 -26c0,-4 -1,-7 -3,-10 -3,-2 -6,-4 -10,-4l-39 0 0 53zm0 13l0 46c0,2 -1,4 -2,5 -1,1 -3,1 -5,1 -1,0 -3,0 -4,-1 -2,-1 -2,-3 -2,-5l0 -118c0,-4 2,-7 6,-7l46 0c8,0 14,3 19,8 5,5 7,11 7,19l0 26c0,7 -2,13 -7,18 -5,5 -12,8 -19,8l-39 0zm105 -26l33 0c1,0 3,1 4,2 2,1 2,3 2,4 0,2 0,3 -1,5 -2,1 -3,2 -5,2l-33 0 0 52 46 0c2,0 3,1 4,2 2,2 2,3 2,5 0,2 0,3 -1,4 -1,2 -3,2 -5,2l-53 0c-4,0 -6,-2 -6,-6l0 -118c0,-4 2,-7 6,-7l53 0c2,0 3,1 4,2 2,2 2,3 2,5 0,1 0,3 -1,4 -1,2 -3,2 -5,2l-46 0 0 40zm91 13l0 52 40 0c3,0 7,-1 9,-3 3,-3 4,-6 4,-10l0 -26c0,-4 -1,-7 -4,-9 -2,-3 -5,-4 -9,-4l-40 0zm0 -13l40 0c7,0 13,2 18,8 5,5 8,11 8,18l0 26c0,7 -3,14 -8,19 -5,5 -11,7 -18,7l-46 0c-4,0 -7,-2 -7,-6l0 -118c0,-4 3,-7 7,-7l52 0c2,0 4,1 5,2 1,2 2,3 2,5 0,1 -1,3 -2,4 -1,2 -2,2 -5,2l-46 0 0 40zm105 13l40 0c3,0 6,1 9,4 2,2 4,5 4,9l0 26c0,4 -1,7 -4,10 -1,1 -3,2 -4,3 -2,0 -4,0 -5,0l-40 0 0 -52zm0 -13l0 -46c0,-2 0,-3 -2,-5 -1,-1 -3,-2 -4,-2 -2,0 -3,1 -5,2 -1,1 -2,3 -2,5l0 118c0,4 2,6 7,6l46 0c7,0 13,-2 18,-7 5,-5 8,-11 8,-19l0 -26c0,-7 -3,-13 -8,-18 -5,-6 -11,-8 -18,-8l-40 0zm105 0l33 0c2,0 3,1 5,2 1,1 2,3 2,4 0,2 -1,3 -2,5 -1,1 -3,2 -5,2l-33 0 0 52 46 0c2,0 3,1 5,2 1,2 2,3 2,5 0,2 -1,3 -2,4 -1,2 -3,2 -5,2l-52 0c-5,0 -7,-2 -7,-6l0 -118c0,-4 2,-7 7,-7l52 0c2,0 4,1 5,2 1,2 2,3 2,5 0,1 -1,3 -2,4 -1,2 -3,2 -5,2l-46 0 0 40zm145 4c4,2 7,5 9,9 2,4 3,8 3,13l0 26c0,7 -2,14 -7,19 -5,5 -12,7 -19,7l-46 0c-4,0 -6,-2 -6,-6l0 -118c0,-4 2,-7 6,-7l40 0c7,0 13,3 18,8 5,5 8,11 8,19l0 13c0,3 -1,6 -2,8 0,3 -2,6 -4,9zm-53 9l0 52 39 0c4,0 7,-1 9,-3 3,-3 4,-6 4,-10l0 -26c0,-4 -1,-7 -3,-9 -3,-3 -6,-4 -10,-4l-39 0zm33 -13c3,0 6,-1 9,-4 3,-2 4,-5 4,-9l0 -13c0,-4 -1,-7 -4,-10 -2,-2 -6,-4 -9,-4l-33 0 0 40 33 0zm72 4l55 -55c1,-1 3,-2 4,-2 2,0 3,1 5,2 1,2 2,3 2,5 0,1 -1,3 -2,5l-39 38 40 72 1 3c0,2 -1,3 -2,5 -1,1 -3,1 -5,1 -2,0 -4,-1 -5,-3l-39 -68 -15 15 0 50c0,2 -1,4 -2,5 -1,1 -3,1 -5,1 -2,0 -3,0 -4,-1 -2,-1 -2,-3 -2,-5l0 -118c0,-2 0,-3 2,-5 1,-1 2,-2 4,-2 2,0 3,1 5,2 1,1 2,3 2,5l0 50zm114 42l-9 28c-1,1 -1,2 -2,3 -1,1 -3,1 -4,1 -2,0 -3,0 -5,-1 -1,-2 -2,-3 -2,-5l1 -2 39 -118c1,-4 3,-6 6,-6 3,0 5,2 6,6l40 118 0 2c0,2 -1,3 -2,5 -1,1 -3,1 -5,1 0,0 -1,0 -3,0 -1,-1 -2,-2 -3,-4l-9 -28 -48 0zm44 -14l-20 -57 -19 57 39 0z"/>
   <path class="fil5 str2" d="M5785 4706l-10 28c0,1 -1,2 -2,3 -1,1 -2,1 -4,1 -2,0 -3,0 -4,-2 -2,-1 -3,-2 -3,-4l1 -2 39 -118c2,-4 4,-6 6,-6 3,0 5,2 7,6l39 118 0 2c0,2 0,3 -2,5 -1,1 -3,1 -4,1 -1,0 -2,0 -3,0 -1,-1 -3,-2 -3,-4l-10 -28 -47 0zm43 -14l-20 -58 -19 58 39 0zm111 -72l-46 0 0 112c0,2 -1,4 -2,5 -2,1 -3,1 -5,1 -2,0 -3,0 -5,-1 -1,-1 -2,-3 -2,-5l0 -118c0,-5 3,-7 7,-7l53 0c1,0 3,1 4,2 1,2 2,3 2,5 0,1 0,3 -2,4 -1,2 -2,2 -4,2zm111 112c0,2 -1,4 -2,5 -1,1 -3,1 -5,1 -1,0 -3,0 -4,-1 -2,-1 -2,-3 -2,-5l0 -93 -53 96c-1,1 -2,2 -3,3l-2 1c0,0 -1,0 -2,0 -1,0 -2,0 -4,-1 -1,-2 -2,-4 -2,-6l0 -118c0,-2 1,-3 2,-5 1,-1 3,-2 5,-2 1,0 3,1 4,2 2,1 2,3 2,5l0 93 53 -96c1,-1 2,-2 3,-3 1,-1 3,-2 4,-2 1,0 3,1 4,2 1,2 2,4 2,6l0 118zm59 -112l-26 0c-2,0 -4,0 -5,-1 -1,-2 -2,-4 -2,-5 0,-2 1,-3 2,-5 1,-1 2,-2 5,-2l65 0c2,0 3,1 5,2 1,2 2,3 2,5 0,1 -1,3 -2,4 -1,2 -3,2 -5,2l-26 0 0 112c0,2 -1,4 -2,5 -1,1 -3,1 -5,1 -1,0 -3,0 -4,-1 -2,-1 -2,-3 -2,-5l0 -112zm69 86l-10 28c0,1 -1,2 -2,3 -1,1 -2,1 -4,1 -2,0 -3,0 -4,-2 -2,-1 -2,-2 -2,-4l0 -2 39 -118c2,-4 4,-6 7,-6 2,0 4,2 6,6l39 118 0 2c0,2 0,3 -2,5 -1,1 -3,1 -4,1 -1,0 -2,0 -3,0 -1,-1 -2,-2 -3,-4l-10 -28 -47 0zm43 -14l-19 -58 -20 58 39 0zm117 33l0 -111c0,-2 1,-4 2,-5 1,-1 3,-2 5,-2 1,0 3,1 4,2 2,1 2,3 2,5l0 111 7 0c4,0 6,3 6,7l0 20c0,1 0,3 -2,4 -1,1 -2,2 -4,2 -2,0 -3,0 -4,-2 -2,-1 -3,-2 -3,-4l0 -14 -72 0c-4,0 -6,-2 -6,-6l0 -118c0,-2 0,-4 2,-5 1,-1 2,-2 4,-2 2,0 3,1 5,2 1,1 2,3 2,5l0 111 52 0zm131 7c0,2 0,4 -2,5 -1,1 -2,1 -4,1 -2,0 -4,0 -5,-1 -1,-1 -2,-3 -2,-5l0 -93 -53 96c-1,1 -2,2 -3,3l-1 1c-1,0 -2,0 -2,0 -2,0 -3,0 -5,-1 -1,-2 -1,-4 -1,-6l0 -118c0,-2 0,-3 1,-5 2,-1 3,-2 5,-2 2,0 3,1 5,2 1,1 2,3 2,5l0 93 53 -96c0,-1 1,-2 3,-3 1,-1 2,-2 3,-2 2,0 3,1 4,2 1,2 2,4 2,6l0 118zm92 -59l0 -53 -39 0c-4,0 -7,2 -10,4 -1,1 -2,3 -3,4 0,2 -1,4 -1,5l0 27c0,3 2,6 4,9 1,1 3,2 4,3 2,0 4,1 6,1l39 0zm-23 13l-31 49c-1,2 -3,3 -5,3 -2,0 -3,0 -4,-2 -2,-1 -3,-3 -3,-4 0,-2 1,-3 1,-4l27 -42 -1 0c-8,0 -14,-3 -19,-8 -5,-5 -8,-11 -8,-18l0 -27c0,-7 3,-13 8,-18 5,-5 11,-8 19,-8l45 0c5,0 7,2 7,7l0 118c0,2 -1,4 -2,5 -1,1 -3,1 -5,1 -1,0 -3,0 -4,-1 -1,-1 -2,-3 -2,-5l0 -46 -23 0zm-803 184l0 -46c0,-2 1,-4 2,-5 1,-1 3,-2 5,-2 1,0 3,1 4,2 1,1 2,2 2,5l0 117c0,2 -1,4 -2,5 -1,2 -3,2 -4,2 -2,0 -4,0 -5,-1 -1,-2 -2,-3 -2,-5l0 -59 -52 0 0 59c0,2 -1,3 -2,5 -1,1 -3,1 -5,1 -2,0 -3,0 -4,-2 -2,-1 -2,-2 -2,-4l0 -118c0,-2 0,-4 2,-5 1,-1 2,-2 4,-2 2,0 3,1 5,2 1,1 2,2 2,5l0 46 52 0zm62 45l-9 29c-1,1 -1,2 -2,3 -1,1 -3,1 -4,1 -2,0 -3,-1 -5,-2 -1,-1 -2,-2 -2,-4l1 -3 39 -118c1,-3 3,-5 6,-5 3,0 5,2 6,5l40 118 0 3c0,1 -1,3 -2,4 -1,2 -3,2 -5,2 0,0 -1,0 -3,-1 -1,0 -2,-1 -3,-3l-9 -29 -48 0zm44 -13l-20 -58 -19 58 39 0zm97 -19l0 -59c0,-2 1,-4 2,-5 1,-1 3,-2 5,-2 1,0 3,1 4,2 1,1 2,2 2,5l0 118c0,2 0,3 -2,5 -1,1 -2,1 -4,1 -2,0 -4,0 -5,-2 -1,-1 -2,-2 -2,-4l0 -46 -39 0c-7,0 -13,-3 -19,-8 -5,-5 -7,-11 -7,-19l0 -45c0,-2 0,-4 2,-5 1,-1 2,-2 4,-2 2,0 3,1 5,2 1,1 2,2 2,5l0 45c0,4 1,7 3,10 2,1 3,2 5,3 1,0 3,1 5,1l39 0zm118 59c0,2 -1,3 -2,5 -1,1 -3,1 -5,1 -1,0 -3,0 -4,-2 -1,-1 -2,-2 -2,-4l0 -93 -53 96c-1,1 -2,2 -3,3l-2 1c0,0 -1,0 -2,0 -1,0 -2,0 -4,-2 -1,-1 -2,-3 -2,-5l0 -118c0,-2 1,-4 2,-5 2,-1 3,-2 5,-2 2,0 3,1 4,2 2,1 2,2 2,5l0 92 54 -96c0,-1 1,-2 2,-3 2,-1 3,-1 4,-1 1,0 3,1 4,2 1,1 2,3 2,6l0 118zm92 -72l0 -46c0,-2 0,-4 2,-5 1,-1 3,-2 4,-2 2,0 3,1 5,2 1,1 2,2 2,5l0 117c0,2 -1,4 -2,5 -2,2 -3,2 -5,2 -1,0 -3,0 -4,-1 -2,-2 -2,-3 -2,-5l0 -59 -53 0 0 59c0,2 0,3 -2,5 -1,1 -2,1 -4,1 -2,0 -4,0 -5,-2 -1,-1 -2,-2 -2,-4l0 -118c0,-2 1,-4 2,-5 1,-1 3,-2 5,-2 1,0 3,1 4,2 2,1 2,2 2,5l0 46 53 0zm62 45l-9 29c-1,1 -2,2 -3,3 -1,1 -2,1 -3,1 -2,0 -4,-1 -5,-2 -1,-1 -2,-2 -2,-4l0 -3 40 -118c1,-3 3,-5 6,-5 3,0 5,2 6,5l39 118 1 3c0,1 -1,3 -2,4 -2,2 -3,2 -5,2 -1,0 -2,0 -3,-1 -1,0 -2,-1 -3,-3l-9 -29 -48 0zm43 -13l-19 -58 -19 58 38 0zm65 -32l33 0c2,0 3,0 5,2 1,1 2,2 2,4 0,2 -1,3 -2,4 -1,2 -3,3 -5,3l-33 0 0 52 46 0c2,0 3,1 5,2 1,1 2,3 2,5 0,1 -1,3 -2,4 -1,1 -3,2 -5,2l-52 0c-5,0 -7,-2 -7,-6l0 -118c0,-5 2,-7 7,-7l52 0c2,0 3,1 5,2 1,1 2,3 2,5 0,1 -1,3 -2,4 -1,1 -3,2 -5,2l-46 0 0 40zm111 -40l-26 0c-2,0 -3,-1 -5,-2 -1,-1 -1,-3 -1,-4 0,-2 0,-3 1,-5 1,-1 3,-2 5,-2l66 0c2,0 3,1 4,2 2,1 2,3 2,5 0,1 0,2 -1,4 -1,1 -3,2 -5,2l-26 0 0 112c0,2 -1,3 -2,5 -2,1 -3,1 -5,1 -2,0 -3,0 -5,-2 -1,-1 -2,-2 -2,-4l0 -112zm126 118l-33 0c-7,0 -13,-2 -19,-8 -5,-5 -7,-11 -7,-18l0 -79c0,-7 2,-13 7,-18 5,-5 12,-8 19,-8l33 0c1,0 3,1 4,2 2,1 2,3 2,5 0,1 0,2 -1,4 -2,1 -3,2 -5,2l-33 0c-4,0 -7,1 -10,4 -1,1 -2,2 -2,4 -1,2 -1,3 -1,5l0 79c0,4 1,7 3,9 2,1 3,2 5,3 1,1 3,1 5,1l33 0c1,0 3,1 4,2 2,1 2,3 2,5 0,1 0,3 -1,4 -2,1 -3,2 -5,2zm98 -65l0 -53 -39 0c-4,0 -7,1 -10,4 -1,1 -2,2 -3,4 0,2 -1,3 -1,5l0 26c0,4 2,7 4,10 1,1 3,2 4,3 2,0 4,1 6,1l39 0zm-23 13l-31 49c-1,2 -3,3 -5,3 -2,0 -3,-1 -4,-2 -2,-1 -3,-3 -3,-5 0,-1 1,-2 1,-3l27 -42 -1 0c-8,0 -14,-3 -19,-8 -5,-5 -8,-11 -8,-19l0 -26c0,-7 3,-13 8,-18 5,-5 11,-8 19,-8l45 0c5,0 7,2 7,7l0 118c0,2 -1,3 -2,5 -1,1 -3,1 -5,1 -1,0 -3,0 -4,-2 -1,-1 -2,-2 -2,-4l0 -46 -23 0zm-898 196l-19 0c-2,0 -4,0 -5,-2 -1,-1 -2,-2 -2,-4 0,-2 1,-3 2,-5 1,-1 3,-2 5,-2l19 0c4,0 7,-1 9,-3 3,-3 4,-6 4,-10l0 -13c0,-4 -1,-7 -3,-9 -3,-3 -6,-4 -10,-4l-13 0c-3,0 -5,1 -7,2 -3,2 -4,4 -5,7 -1,1 -1,2 -2,3 -1,0 -2,1 -2,1l-2 0c-2,0 -4,0 -5,-1 -2,-2 -2,-3 -2,-5l0 -2c2,-6 5,-10 10,-13 4,-4 9,-5 15,-5l13 0c7,0 14,2 19,7 5,6 7,12 7,19l0 13c0,4 0,8 -2,11 -1,3 -4,6 -6,9 5,5 8,11 8,19l0 27c0,7 -2,13 -7,18 -5,5 -12,8 -19,8l-13 0c-6,0 -11,-2 -15,-5 -5,-3 -8,-8 -10,-13l0 -2c0,-2 0,-4 2,-5 1,-1 3,-2 5,-2 2,0 4,1 6,4 0,3 2,5 4,7 3,2 5,3 8,3l13 0c4,0 7,-1 9,-4 3,-2 4,-5 4,-9l0 -27c0,-3 -1,-7 -3,-9 -2,-2 -5,-4 -10,-4zm69 33l-10 28c0,2 -1,3 -2,4 -1,0 -2,1 -4,1 -1,0 -3,-1 -4,-2 -2,-1 -2,-3 -2,-4l0 -3 40 -118c1,-4 3,-5 6,-5 3,0 5,1 6,5l39 118 1 3c0,1 -1,3 -3,4 -1,1 -2,2 -4,2 -1,0 -2,0 -3,-1 -1,0 -2,-2 -3,-4l-10 -28 -47 0zm43 -13l-19 -58 -20 58 39 0zm191 -35l-42 68 40 0c2,0 4,0 5,2 1,1 2,3 2,4 0,2 -1,3 -2,5 -1,1 -2,2 -5,2l-52 0c-5,0 -7,-2 -7,-5 0,-2 0,-3 2,-5l48 -77c2,-4 2,-7 2,-10 0,-6 -2,-11 -6,-15 -2,-2 -5,-3 -7,-5 -3,-1 -6,-1 -9,-1 -4,0 -7,1 -10,2 -3,2 -5,5 -7,8 -1,1 -2,1 -3,2l-3 1c-2,0 -3,-1 -4,-2 -2,-1 -3,-3 -3,-4 0,-1 1,-3 2,-4 3,-5 7,-9 12,-12 2,-1 5,-2 7,-3 3,-1 5,-1 8,-1 10,0 19,3 26,10 7,7 10,15 10,24 0,6 -1,11 -4,16zm71 2c6,0 10,-2 14,-6 4,-4 5,-8 5,-13 0,-6 -1,-10 -5,-14 -3,-4 -8,-6 -14,-6 -6,0 -11,2 -15,6 -3,4 -5,8 -5,14 0,5 2,9 5,13 3,4 8,6 15,6zm0 13c-9,0 -15,3 -20,8 -5,5 -7,11 -7,19 0,7 2,13 7,18 5,5 11,8 20,8 8,0 14,-3 19,-8 5,-5 7,-11 7,-18 0,-7 -2,-13 -7,-18 -5,-6 -11,-9 -19,-9zm21 -7c6,3 10,8 13,14 3,6 5,13 5,20 0,10 -3,19 -10,26 -7,9 -17,13 -29,13 -13,0 -23,-4 -30,-12 -7,-8 -10,-17 -10,-27 0,-7 2,-14 5,-20 2,-6 7,-11 13,-14 -4,-3 -6,-7 -8,-11 -2,-5 -3,-10 -3,-14 0,-9 3,-17 8,-23 6,-7 14,-10 25,-10 10,0 18,3 24,10 5,6 8,14 8,23 0,4 -1,9 -3,14 -1,4 -4,8 -8,11zm136 60l13 -112c0,-4 2,-6 6,-6l40 0c4,0 6,2 6,6l0 112 7 0c4,0 6,2 6,6l0 13c0,2 0,4 -2,5 -1,1 -2,2 -4,2 -2,0 -3,-1 -4,-2 -2,-1 -3,-2 -3,-5l0 -6 -65 0 0 6c0,2 -1,4 -2,5 -2,1 -3,2 -5,2 -1,0 -3,-1 -4,-2 -2,-1 -2,-2 -2,-5l0 -13c0,-4 2,-6 6,-6l7 0zm52 0l0 -105 -27 0 -12 105 39 0zm118 -66l0 -46c0,-1 1,-3 2,-4 1,-2 3,-2 5,-2 1,0 3,0 4,1 1,1 2,3 2,5l0 118c0,2 -1,4 -2,5 -1,1 -3,2 -4,2 -2,0 -4,-1 -5,-2 -1,-1 -2,-2 -2,-5l0 -59 -52 0 0 59c0,2 -1,4 -2,5 -1,1 -3,2 -5,2 -2,0 -3,-1 -5,-2 -1,-1 -1,-3 -1,-5l0 -118c0,-1 0,-3 1,-5 2,-1 3,-1 5,-1 2,0 3,0 5,1 1,2 2,3 2,5l0 46 52 0zm52 0l33 0c2,0 4,1 5,2 1,2 2,3 2,5 0,1 -1,3 -2,4 -1,2 -2,2 -5,2l-33 0 0 53 46 0c2,0 4,0 5,2 1,1 2,3 2,4 0,2 0,3 -2,5 -1,1 -2,2 -4,2l-53 0c-4,0 -7,-2 -7,-6l0 -119c0,-4 3,-6 7,-6l53 0c1,0 3,0 4,2 1,1 2,3 2,4 0,2 0,3 -2,5 -1,1 -2,2 -5,2l-46 0 0 39zm132 -65l-27 0c-2,0 -3,-1 -5,-2 -1,-1 -1,-3 -1,-5 0,-1 0,-3 1,-4 1,-2 3,-2 5,-2l27 0c1,0 3,0 4,2 1,1 2,3 2,4 0,2 0,3 -2,5 -1,1 -2,2 -4,2zm26 137c0,2 -1,4 -2,5 -1,1 -3,2 -5,2 -2,0 -3,-1 -4,-2 -2,-1 -2,-3 -2,-5l0 -92 -54 96c0,1 -1,2 -2,3l-2 0c0,1 -1,1 -2,1 -1,0 -3,-1 -4,-2 -1,-1 -2,-3 -2,-6l0 -118c0,-1 1,-3 2,-5 1,-1 3,-1 5,-1 1,0 3,0 4,1 1,2 2,3 2,5l0 93 53 -96c1,-1 2,-2 3,-3 1,-1 3,-1 4,-1 1,0 2,1 4,2 1,1 2,3 2,5l0 118z"/>
   <path class="fil2 str3" d="M2759 2720l0 -54c0,-2 1,-3 3,-5 1,-1 3,-2 5,-2 2,0 4,1 5,2 2,1 2,3 2,6l0 136c0,3 0,4 -2,6 -2,2 -3,2 -5,2 -2,0 -4,0 -5,-2 -2,-1 -3,-3 -3,-5l0 -69 -61 0 0 69c0,2 0,4 -2,5 -1,2 -3,2 -5,2 -2,0 -4,0 -6,-2 -1,-1 -2,-3 -2,-5l0 -137c0,-2 1,-4 2,-6 2,-1 4,-2 6,-2 2,0 3,1 5,2 2,1 2,3 2,6l0 53 61 0zm73 53l-11 33c-1,2 -2,3 -3,4 -1,1 -3,1 -4,1 -2,0 -4,-1 -6,-2 -1,-1 -2,-3 -2,-5l0 -3 46 -137c2,-4 4,-6 7,-6 4,0 6,2 8,6l45 137 1 3c0,2 -1,4 -3,5 -1,2 -3,2 -5,2 -1,0 -2,0 -4,-1 -1,0 -2,-2 -3,-4l-11 -33 -55 0zm50 -15l-23 -67 -22 67 45 0zm113 -23l0 -68c0,-3 1,-4 2,-6 2,-1 4,-2 6,-2 2,0 3,1 5,2 1,1 2,3 2,6l0 137c0,2 0,4 -2,5 -1,2 -3,2 -5,2 -2,0 -4,0 -6,-2 -1,-1 -2,-3 -2,-5l0 -54 -46 0c-8,0 -15,-3 -21,-9 -6,-6 -9,-13 -9,-21l0 -53c0,-3 1,-4 2,-6 2,-1 4,-2 6,-2 1,0 3,1 5,2 1,1 2,3 2,6l0 53c0,4 2,8 4,11 2,1 4,2 5,3 3,1 5,1 6,1l46 0zm72 38l-11 33c0,2 -1,3 -2,4 -1,1 -3,1 -4,1 -3,0 -4,-1 -6,-2 -1,-1 -2,-3 -2,-5l0 -3 46 -137c2,-4 4,-6 7,-6 3,0 6,2 7,6l46 137 0 3c0,2 0,4 -2,5 -2,2 -3,2 -5,2 -1,0 -3,0 -4,-1 -1,0 -2,-2 -3,-4l-11 -33 -56 0zm51 -15l-23 -67 -22 67 45 0zm151 46c0,2 -1,4 -2,5 -1,2 -3,2 -5,2 -2,0 -4,0 -6,-2 -1,-1 -2,-3 -2,-5l0 -130 -25 0 -36 132c-1,1 -1,2 -3,4 -1,1 -3,1 -4,1 -3,0 -5,0 -6,-2 -1,-1 -2,-3 -2,-5 0,-1 0,-2 0,-2l38 -137c1,-4 4,-6 7,-6l39 0c5,0 7,2 7,8l0 137zm122 -23c0,8 -3,15 -9,21 -6,6 -13,9 -22,9l-30 0c-8,0 -16,-3 -22,-9 -6,-6 -9,-13 -9,-21l0 -92c0,-8 3,-15 9,-21 6,-6 13,-9 22,-9l30 0c9,0 16,3 22,9 6,6 9,13 9,21l0 92zm-15 0l0 -92c0,-4 -2,-8 -5,-11 -3,-2 -6,-4 -11,-4l-30 0c-4,0 -8,2 -11,4 -2,2 -3,4 -3,5 -1,2 -1,4 -1,6l0 92c0,4 1,8 4,11 1,1 3,2 5,3 2,1 4,1 6,1l30 0c5,0 8,-1 11,-4 3,-3 5,-7 5,-11zm-812 187l64 -63c1,-2 3,-2 5,-2 2,0 4,0 5,2 2,1 3,3 3,5 0,2 -1,3 -3,5l-45 46 47 82 1 4c0,2 -1,4 -3,6 -1,1 -3,2 -5,2 -3,0 -5,-2 -7,-4l-44 -80 -18 18 0 58c0,3 -1,5 -3,6 -1,1 -3,2 -5,2 -2,0 -4,-1 -5,-2 -2,-1 -3,-3 -3,-6l0 -137c0,-2 1,-4 3,-5 1,-2 3,-2 5,-2 2,0 4,0 5,1 2,2 3,3 3,6l0 58zm133 49l-11 33c-1,1 -2,2 -3,4 -1,0 -2,1 -4,1 -2,0 -4,-1 -5,-2 -2,-2 -3,-3 -3,-6l1 -2 45 -137c2,-5 4,-7 8,-7 3,0 5,2 7,7l45 137 1 2c0,2 -1,4 -3,6 -1,1 -3,2 -5,2 -1,0 -2,0 -3,-1 -2,0 -3,-2 -4,-4l-11 -33 -55 0zm50 -16l-22 -67 -23 67 45 0zm167 46c0,3 -1,5 -2,6 -2,1 -4,2 -6,2 -1,0 -3,-1 -5,-2 -1,-1 -2,-3 -2,-6l0 -108 -32 52c-2,3 -4,5 -6,5 -3,0 -5,-2 -7,-5l-32 -52 0 108c0,3 0,5 -2,6 -1,1 -3,2 -5,2 -2,0 -4,-1 -6,-2 -1,-1 -2,-3 -2,-6l0 -136c0,-3 1,-5 2,-7 2,-1 3,-2 5,-2 2,0 3,0 4,1 1,1 2,2 3,4l40 65 39 -65c1,-3 4,-5 7,-5 2,0 3,1 5,2 1,2 2,4 2,7l0 136zm121 0c0,3 0,5 -2,6 -1,1 -3,2 -5,2 -2,0 -4,-1 -5,-2 -2,-1 -3,-3 -3,-6l0 -129 -61 0 0 129c0,3 0,5 -2,6 -1,1 -3,2 -5,2 -2,0 -4,-1 -6,-2 -1,-1 -2,-3 -2,-6l0 -137c0,-5 3,-7 8,-7l76 0c5,0 7,2 7,7l0 137zm58 -30l-11 33c-1,1 -2,2 -3,4 -1,0 -3,1 -4,1 -2,0 -4,-1 -6,-2 -1,-2 -2,-3 -2,-6l0 -2 46 -137c2,-5 4,-7 7,-7 4,0 6,2 7,7l46 137 1 2c0,2 -1,4 -3,6 -2,1 -3,2 -5,2 -1,0 -2,0 -4,-1 -1,0 -2,-2 -3,-4l-11 -33 -55 0zm50 -16l-23 -67 -22 67 45 0zm136 -37l0 -54c0,-2 1,-4 2,-5 2,-2 4,-2 6,-2 1,0 3,0 5,1 1,2 2,4 2,6l0 137c0,2 -1,4 -2,6 -2,1 -4,2 -6,2 -1,0 -3,-1 -5,-2 -1,-1 -2,-3 -2,-6l0 -68 -61 0 0 68c0,3 -1,5 -2,6 -2,1 -3,2 -6,2 -2,0 -3,-1 -5,-2 -1,-1 -2,-3 -2,-6l0 -137c0,-2 1,-4 2,-5 2,-2 3,-2 5,-2 2,0 4,0 6,2 1,1 2,3 2,5l0 54 61 0zm137 83c0,3 -1,5 -2,6 -2,1 -3,2 -6,2 -2,0 -3,-1 -5,-2 -2,-1 -2,-3 -2,-6l0 -107 -62 111c-1,1 -2,3 -3,4l-2 1c-1,0 -1,0 -2,0 -2,0 -4,-1 -5,-2 -2,-2 -2,-4 -2,-7l0 -137c0,-2 0,-4 2,-5 1,-2 3,-2 5,-2 2,0 4,0 5,2 2,1 3,3 3,5l0 108 62 -111c0,-2 1,-3 3,-4 1,-1 3,-2 4,-2 2,0 3,1 5,3 1,1 2,3 2,6l0 137zm122 0c0,3 -1,5 -3,6 -1,1 -3,2 -5,2 -2,0 -4,-1 -5,-2 -2,-1 -3,-3 -3,-6l0 -107 -61 111c-1,1 -2,3 -4,4l-1 1c-1,0 -2,0 -3,0 -1,0 -3,-1 -5,-2 -1,-2 -2,-4 -2,-7l0 -137c0,-2 1,-4 3,-5 1,-2 3,-2 5,-2 2,0 4,0 5,2 2,1 2,3 2,5l0 108 62 -111c1,-2 2,-3 4,-4 1,-1 2,-2 4,-2 1,0 3,1 4,3 2,1 3,3 3,6l0 137z"/>
   <path class="fil1 str4" d="M8096 3818l14 -130c0,-5 3,-7 8,-7l46 0c5,0 7,3 7,8l0 129 8 0c5,0 8,3 8,8l0 15c0,2 -1,4 -3,5 -1,2 -3,3 -5,3 -2,0 -3,-1 -5,-2 -2,-1 -2,-3 -2,-6l0 -7 -77 0 0 7c0,2 -1,4 -2,5 -2,2 -3,3 -5,3 -2,0 -4,-1 -5,-2 -2,-1 -3,-3 -3,-6l0 -15c0,-5 3,-8 8,-8l8 0zm60 0l0 -122 -31 0 -14 122 45 0zm76 -76l38 0c3,0 4,1 6,3 1,1 2,3 2,5 0,2 -1,3 -2,5 -1,2 -3,2 -6,2l-38 0 0 61 54 0c2,0 4,1 5,3 2,1 2,3 2,5 0,2 0,3 -2,5 -1,2 -3,3 -5,3l-61 0c-5,0 -8,-3 -8,-8l0 -137c0,-5 3,-8 8,-8l61 0c2,0 4,1 5,3 2,1 2,3 2,5 0,2 0,3 -2,5 -1,2 -3,2 -5,2l-54 0 0 46zm168 0l0 -53c0,-2 0,-4 2,-5 1,-2 3,-3 5,-3 2,0 4,1 5,2 2,1 3,3 3,6l0 137c0,2 -1,4 -3,5 -1,2 -3,3 -5,3 -2,0 -4,-1 -5,-2 -2,-2 -2,-3 -2,-6l0 -69 -61 0 0 69c0,2 -1,4 -2,6 -2,1 -4,2 -6,2 -2,0 -4,-1 -5,-2 -2,-2 -2,-4 -2,-6l0 -137c0,-2 0,-4 2,-6 1,-1 3,-2 5,-2 2,0 4,1 5,2 2,2 3,3 3,6l0 53 61 0zm60 15l46 0c4,0 8,2 11,5 3,3 4,6 4,11l0 30c0,4 -1,8 -4,11 -1,2 -3,3 -5,3 -2,1 -4,1 -6,1l-46 0 0 -61zm0 -15l0 -53c0,-2 0,-4 -2,-5 -1,-2 -3,-3 -5,-3 -2,0 -4,1 -5,2 -2,1 -3,3 -3,6l0 137c0,5 3,8 8,8l53 0c8,0 15,-3 21,-9 7,-6 10,-13 10,-22l0 -30c0,-9 -3,-16 -9,-22 -6,-6 -13,-9 -22,-9l-46 0zm-729 198l-54 0 0 130c0,2 -1,4 -2,5 -1,2 -3,2 -5,2 -2,0 -4,0 -6,-2 -1,-1 -2,-3 -2,-5l0 -138c0,-5 3,-7 8,-7l61 0c2,0 3,1 5,2 1,2 2,4 2,5 0,2 0,4 -2,6 -1,1 -3,2 -5,2zm121 107c0,8 -3,15 -9,21 -6,6 -13,9 -21,9l-31 0c-8,0 -15,-3 -21,-9 -6,-6 -9,-13 -9,-21l0 -92c0,-8 3,-15 9,-21 6,-6 13,-9 21,-9l31 0c8,0 15,3 21,9 6,6 9,13 9,21l0 92zm-15 0l0 -92c0,-4 -1,-8 -4,-11 -3,-3 -7,-4 -11,-4l-31 0c-4,0 -8,1 -11,4 -1,2 -2,3 -3,5 -1,2 -1,4 -1,6l0 92c0,4 1,8 4,11 2,1 4,2 5,3 2,1 4,1 6,1l31 0c4,0 8,-1 11,-4 3,-3 4,-7 4,-11zm134 23c0,2 -1,4 -2,5 -1,2 -3,2 -6,2 -2,0 -3,0 -5,-2 -1,-1 -2,-3 -2,-5l0 -130 -25 0 -36 131c-1,2 -2,3 -3,4 -1,2 -3,2 -5,2 -2,0 -4,0 -5,-2 -2,-1 -2,-3 -2,-5 0,-1 0,-2 0,-2l38 -137c1,-4 4,-6 7,-6l38 0c6,0 8,2 8,7l0 138zm122 -23c0,8 -3,15 -9,21 -6,6 -13,9 -22,9l-30 0c-9,0 -16,-3 -22,-9 -6,-6 -9,-13 -9,-21l0 -92c0,-8 3,-15 9,-21 6,-6 13,-9 22,-9l30 0c9,0 16,3 22,9 6,6 9,13 9,21l0 92zm-16 0l0 -92c0,-4 -1,-8 -4,-11 -3,-3 -6,-4 -11,-4l-30 0c-5,0 -8,1 -11,4 -2,2 -3,3 -3,5 -1,2 -2,4 -2,6l0 92c0,4 2,8 5,11 1,1 3,2 5,3 2,1 4,1 6,1l30 0c4,0 8,-1 11,-4 3,-3 4,-7 4,-11zm127 30l-38 0c-9,0 -16,-3 -22,-9 -6,-6 -9,-13 -9,-21l0 -92c0,-8 3,-15 9,-21 6,-6 13,-9 22,-9l38 0c2,0 4,1 5,2 2,2 2,4 2,5 0,2 0,4 -2,6 -1,1 -3,2 -5,2l-38 0c-5,0 -8,1 -11,4 -2,2 -3,3 -4,5 0,2 -1,4 -1,6l0 92c0,4 2,8 5,11 1,1 3,2 5,3 2,1 4,1 6,1l38 0c2,0 4,1 5,2 2,2 2,4 2,6 0,1 0,3 -2,5 -1,1 -3,2 -5,2zm122 -30c0,8 -3,15 -9,21 -6,6 -13,9 -21,9l-31 0c-8,0 -15,-3 -21,-9 -6,-6 -9,-13 -9,-21l0 -92c0,-8 3,-15 9,-21 6,-6 13,-9 21,-9l31 0c8,0 15,3 21,9 6,6 9,13 9,21l0 92zm-15 0l0 -92c0,-4 -1,-8 -4,-11 -3,-3 -7,-4 -11,-4l-31 0c-4,0 -8,1 -11,4 -1,2 -2,3 -3,5 -1,2 -1,4 -1,6l0 92c0,4 1,8 4,11 2,1 4,2 5,3 2,1 4,1 6,1l31 0c4,0 8,-1 11,-4 3,-3 4,-7 4,-11zm135 -57c4,3 7,7 10,11 3,5 4,10 4,15l0 31c0,8 -3,15 -9,21 -6,6 -13,9 -21,9l-54 0c-5,0 -7,-2 -7,-7l0 -138c0,-5 2,-7 7,-7l46 0c9,0 16,3 22,9 6,6 9,13 9,21l0 16c0,3 -1,6 -2,10 -1,3 -3,6 -5,9zm-62 11l0 61 46 0c4,0 7,-1 10,-4 3,-3 5,-7 5,-11l0 -31c0,-4 -2,-8 -4,-11 -3,-3 -7,-4 -11,-4l-46 0zm38 -15c4,0 8,-2 11,-4 3,-3 4,-7 4,-11l0 -16c0,-4 -1,-8 -4,-11 -3,-3 -6,-4 -11,-4l-38 0 0 46 38 0zm88 53l-11 33c-1,2 -2,3 -3,4 -1,0 -3,1 -4,1 -2,0 -4,-1 -6,-2 -1,-1 -2,-3 -2,-5l0 -3 46 -137c2,-4 4,-6 7,-6 4,0 6,2 7,6l46 137 1 3c0,2 -1,3 -3,5 -2,1 -3,2 -5,2 -1,0 -2,0 -4,-1 -1,0 -2,-2 -3,-4l-11 -33 -55 0zm50 -16l-23 -67 -22 67 45 0zm136 -37l0 -54c0,-2 1,-3 2,-5 2,-1 3,-2 5,-2 2,0 4,0 6,2 1,1 2,3 2,5l0 137c0,3 -1,4 -2,6 -2,1 -4,2 -6,2 -1,0 -3,0 -5,-2 -1,-1 -2,-3 -2,-5l0 -69 -61 0 0 69c0,2 -1,4 -2,5 -2,2 -3,2 -6,2 -2,0 -3,0 -5,-2 -1,-1 -2,-3 -2,-5l0 -137c0,-2 1,-4 2,-6 2,-1 3,-2 5,-2 2,0 4,1 6,2 1,1 2,3 2,6l0 53 61 0zm137 84c0,2 -1,4 -2,5 -2,2 -4,2 -6,2 -2,0 -4,0 -5,-2 -2,-1 -2,-3 -2,-5l0 -108 -62 111c-1,2 -2,3 -3,4l-2 1c-1,0 -1,0 -2,0 -2,0 -4,0 -6,-2 -1,-1 -1,-4 -1,-6l0 -137c0,-2 0,-4 2,-6 1,-1 3,-2 5,-2 2,0 4,1 5,2 2,1 3,3 3,6l0 107 61 -111c1,-1 2,-3 4,-4 1,-1 2,-1 4,-1 2,0 3,1 5,2 1,2 2,4 2,7l0 137zm106 -69l0 -61 -45 0c-5,0 -8,1 -11,4 -2,2 -3,3 -4,5 0,2 -1,4 -1,6l0 31c0,4 2,8 5,11 1,1 3,2 5,3 2,1 4,1 6,1l45 0zm-26 15l-36 58c-1,2 -3,3 -6,3 -2,0 -4,-1 -5,-2 -2,-2 -3,-4 -3,-6 0,-1 1,-2 1,-4l31 -49 -1 0c-9,0 -16,-3 -22,-9 -6,-6 -9,-13 -9,-21l0 -31c0,-8 3,-15 9,-21 6,-6 13,-9 22,-9l53 0c5,0 8,2 8,7l0 138c0,2 -1,4 -3,5 -1,2 -3,2 -5,2 -2,0 -4,0 -5,-2 -2,-1 -3,-3 -3,-5l0 -54 -26 0z"/>
   <g>
    <path class="fil2 str3" d="M3844 4670c0,8 -3,15 -9,21 -6,6 -13,9 -22,9l-30 0c-9,0 -16,-3 -22,-8 -6,-6 -9,-14 -9,-22l0 -91c0,-9 3,-16 9,-22 6,-6 13,-9 22,-9l30 0c9,0 16,3 22,9 6,6 9,13 9,22l0 91zm-16 0l0 -91c0,-5 -1,-8 -4,-11 -3,-3 -6,-5 -11,-5l-30 0c-5,0 -8,2 -11,5 -2,1 -3,3 -3,5 -1,1 -2,3 -2,6l0 91c0,4 2,8 5,11 1,1 3,2 5,3 2,1 4,1 6,1l30 0c4,0 8,-1 11,-4 3,-3 4,-6 4,-11zm149 23c0,2 0,4 -2,6 -1,1 -3,1 -5,1 -2,0 -4,0 -5,-1 -2,-2 -3,-4 -3,-6l0 -130 -61 0 0 130c0,2 0,4 -2,6 -1,1 -3,1 -5,1 -2,0 -4,0 -6,-1 -1,-2 -2,-4 -2,-6l0 -137c0,-5 3,-8 8,-8l76 0c5,0 7,3 7,8l0 137zm107 -54l-46 0c-8,0 -15,-3 -21,-8 -6,-6 -9,-14 -9,-22l0 -53c0,-2 1,-4 2,-6 2,-1 4,-2 6,-2 1,0 3,1 5,2 1,1 2,3 2,6l0 53c0,4 2,8 4,11 2,1 4,2 5,3 3,1 5,1 6,1l46 0 0 -68c0,-2 1,-4 2,-6 2,-1 4,-2 6,-2 2,0 3,1 5,2 1,1 2,3 2,6l0 114c0,8 -3,15 -9,21 -6,6 -13,9 -21,9l-38 0c-3,0 -4,0 -6,-2 -1,-1 -2,-3 -2,-5 0,-2 1,-4 2,-5 2,-2 3,-3 6,-3l38 0c4,0 8,-1 11,-4 3,-3 4,-6 4,-11l0 -31zm61 -15l0 61 46 0c4,0 7,-1 10,-4 3,-3 5,-6 5,-11l0 -30c0,-5 -2,-8 -4,-11 -3,-3 -7,-5 -11,-5l-46 0zm0 -15l46 0c8,0 15,3 21,9 6,6 9,13 9,22l0 30c0,8 -3,15 -9,21 -6,6 -13,9 -21,9l-54 0c-5,0 -7,-2 -7,-7l0 -137c0,-5 2,-8 7,-8l61 0c2,0 4,1 6,2 1,2 2,4 2,6 0,1 -1,3 -2,5 -1,1 -3,2 -6,2l-53 0 0 46zm191 84c0,2 -1,4 -2,6 -1,1 -3,1 -5,1 -2,0 -4,0 -6,-1 -1,-2 -2,-4 -2,-6l0 -130 -25 0 -36 132c-1,1 -1,3 -3,4 -1,1 -3,1 -5,1 -2,0 -4,0 -5,-1 -2,-2 -2,-4 -2,-6 0,-1 0,-2 0,-2l38 -137c1,-4 4,-6 7,-6l38 0c6,0 8,3 8,8l0 137zm122 0c0,2 -1,4 -3,6 -1,1 -3,1 -5,1 -2,0 -4,0 -5,-1 -2,-2 -3,-4 -3,-6l0 -108 -61 112c-1,1 -2,2 -4,3l-1 1c-1,0 -2,1 -3,1 -1,0 -3,-1 -5,-3 -1,-1 -2,-3 -2,-6l0 -137c0,-2 1,-4 3,-6 1,-1 3,-2 5,-2 2,0 4,1 5,2 2,1 2,3 2,6l0 107 62 -111c1,-1 2,-2 4,-3 1,-2 2,-2 4,-2 1,0 3,1 4,2 2,2 3,4 3,7l0 137zm45 -79l64 -64c2,-1 4,-2 6,-2 2,0 3,1 5,2 2,2 2,4 2,6 0,1 0,3 -2,5l-45 45 46 83 2 4c0,2 -1,4 -3,5 -1,2 -3,2 -6,2 -2,0 -4,-1 -6,-4l-45 -79 -18 18 0 58c0,2 0,4 -2,6 -1,1 -3,1 -5,1 -2,0 -4,0 -6,-1 -1,-2 -2,-4 -2,-6l0 -137c0,-2 1,-4 2,-6 2,-1 4,-2 6,-2 2,0 3,1 5,2 1,1 2,3 2,6l0 58zm190 56c0,8 -3,15 -9,21 -5,6 -13,9 -21,9l-30 0c-9,0 -16,-3 -22,-8 -6,-6 -9,-14 -9,-22l0 -91c0,-9 3,-16 9,-22 6,-6 13,-9 22,-9l30 0c8,0 16,3 22,9 5,6 8,13 8,22l0 91zm-15 0l0 -91c0,-5 -1,-8 -4,-11 -3,-3 -7,-5 -11,-5l-31 0c-4,0 -7,2 -10,5 -2,1 -3,3 -4,5 0,1 -1,3 -1,6l0 91c0,4 2,8 5,11 1,1 3,2 5,3 2,1 4,1 5,1l31 0c4,0 8,-1 11,-4 3,-3 4,-6 4,-11zm135 -56c4,2 8,6 10,11 3,4 4,9 4,15l0 30c0,8 -3,15 -9,21 -6,6 -13,9 -21,9l-53 0c-5,0 -8,-2 -8,-7l0 -137c0,-5 3,-8 8,-8l45 0c9,0 16,3 22,9 6,6 9,13 9,22l0 15c0,3 -1,7 -2,10 -1,3 -3,6 -5,10zm-62 10l0 61 46 0c4,0 8,-1 11,-4 3,-3 4,-6 4,-11l0 -30c0,-5 -1,-8 -4,-11 -3,-3 -7,-5 -11,-5l-46 0zm38 -15c5,0 8,-1 11,-4 3,-3 5,-7 5,-11l0 -15c0,-5 -2,-8 -5,-11 -3,-3 -6,-5 -11,-5l-38 0 0 46 38 0zm88 53l-11 33c-1,2 -2,3 -3,4 -1,1 -2,1 -4,1 -2,0 -4,0 -5,-2 -2,-1 -3,-3 -3,-5l1 -3 45 -137c2,-4 4,-6 7,-6 4,0 6,2 8,6l45 137 1 3c0,2 -1,4 -3,5 -1,2 -3,2 -5,2 -1,0 -2,0 -4,0 -1,-1 -2,-2 -3,-5l-11 -33 -55 0zm50 -15l-23 -67 -22 67 45 0zm136 -38l0 -53c0,-2 1,-4 2,-6 2,-1 4,-2 6,-2 2,0 3,1 5,2 2,1 2,3 2,6l0 137c0,2 0,4 -2,5 -2,2 -4,2 -5,2 -2,0 -4,0 -6,-1 -1,-2 -2,-4 -2,-6l0 -69 -61 0 0 69c0,2 -1,4 -2,6 -1,1 -3,1 -5,1 -2,0 -4,0 -6,-1 -1,-2 -2,-4 -2,-6l0 -137c0,-2 1,-4 2,-6 2,-1 4,-2 6,-2 2,0 3,1 5,2 1,1 2,3 2,6l0 53 61 0zm137 84c0,2 -1,4 -2,6 -1,1 -3,1 -6,1 -2,0 -3,0 -5,-1 -1,-2 -2,-4 -2,-6l0 -108 -62 112c-1,1 -2,2 -3,3l-2 1c0,0 -1,1 -2,1 -2,0 -3,-1 -5,-3 -2,-1 -2,-3 -2,-6l0 -137c0,-2 0,-4 2,-6 2,-1 3,-2 5,-2 2,0 4,1 6,2 1,1 2,3 2,6l0 107 62 -111c0,-1 1,-2 3,-3 1,-2 3,-2 4,-2 2,0 3,1 5,2 1,2 2,4 2,7l0 137zm46 -84l38 0c2,0 4,1 5,2 2,2 3,4 3,6 0,2 -1,3 -2,5 -2,1 -4,2 -6,2l-38 0 0 61 53 0c2,0 4,1 6,3 1,1 2,3 2,5 0,2 -1,3 -2,5 -1,2 -3,2 -6,2l-61 0c-5,0 -7,-2 -7,-7l0 -137c0,-5 2,-8 7,-8l61 0c2,0 4,1 6,2 1,2 2,4 2,6 0,2 -1,3 -2,5 -1,1 -3,2 -6,2l-53 0 0 46zm-1263 327c0,3 -1,5 -2,6 -1,1 -3,2 -5,2 -2,0 -4,-1 -6,-2 -1,-1 -2,-3 -2,-6l0 -107 -62 111c-1,2 -2,3 -3,4l-2 1c0,0 -1,0 -2,0 -2,0 -3,0 -5,-2 -2,-1 -2,-4 -2,-6l0 -138c0,-2 1,-3 2,-5 2,-2 3,-2 5,-2 2,0 4,0 6,2 1,1 2,3 2,5l0 108 62 -111c0,-1 2,-3 3,-4 1,-1 3,-1 4,-1 2,0 3,0 5,2 1,2 2,4 2,6l0 137zm107 -83l0 -54c0,-2 0,-3 2,-5 1,-2 3,-2 5,-2 2,0 4,0 5,2 2,1 3,3 3,5l0 137c0,2 -1,4 -3,6 -1,1 -3,2 -5,2 -2,0 -3,-1 -5,-2 -2,-1 -2,-3 -2,-5l0 -69 -61 0 0 68c0,3 -1,5 -2,6 -2,1 -4,2 -6,2 -2,0 -4,-1 -5,-2 -2,-1 -2,-3 -2,-6l0 -137c0,-2 0,-3 2,-5 1,-2 3,-2 5,-2 2,0 4,0 5,2 2,1 3,3 3,5l0 54 61 0zm114 -23l0 69 7 0c9,0 16,-3 22,-9 6,-6 9,-14 9,-22l0 -8c0,-8 -3,-15 -9,-21 -6,-6 -13,-9 -22,-9l-7 0zm-15 69l0 -69 -8 0c-8,0 -16,3 -22,9 -6,5 -9,13 -9,21l0 8c0,8 3,16 9,22 6,6 13,9 22,9l8 0zm0 15l-8 0c-13,0 -24,-5 -32,-14 -9,-8 -14,-19 -14,-32l0 -8c0,-12 5,-23 14,-32 9,-9 19,-14 32,-14l8 0 0 -15c0,-2 0,-4 2,-5 1,-2 3,-2 5,-2 2,0 4,0 5,2 2,1 3,3 3,5l0 15 7 0c13,0 24,5 32,14 5,4 8,9 10,15 3,5 4,11 4,17l0 8c0,12 -5,23 -13,32 -9,9 -20,14 -33,14l-7 0 0 22c0,3 -1,5 -3,6 -1,1 -3,2 -5,2 -2,0 -4,-1 -5,-2 -2,-1 -2,-3 -2,-6l0 -22zm190 0c0,8 -3,15 -9,21 -6,6 -13,9 -22,9l-30 0c-8,0 -15,-3 -21,-9 -6,-6 -9,-13 -9,-21l0 -92c0,-8 2,-15 8,-21 6,-6 13,-9 22,-9l30 0c9,0 16,3 22,9 6,6 9,13 9,21l0 92zm-15 0l0 -92c0,-4 -2,-8 -5,-11 -3,-3 -6,-4 -11,-4l-30 0c-4,0 -8,1 -11,4 -1,2 -3,3 -3,5 -1,2 -1,4 -1,6l0 92c0,4 1,8 4,11 2,1 3,2 5,3 2,1 4,1 6,1l30 0c5,0 8,-2 11,-4 3,-3 5,-7 5,-11zm73 -46l45 0c5,0 8,-2 11,-4 3,-3 5,-7 5,-11l0 -31c0,-4 -2,-8 -5,-11 -3,-3 -6,-4 -11,-4l-45 0 0 61zm0 15l0 53c0,3 -1,5 -3,6 -1,1 -3,2 -5,2 -2,0 -4,-1 -5,-2 -2,-1 -3,-3 -3,-6l0 -137c0,-5 3,-7 8,-7l53 0c9,0 16,3 22,9 6,6 9,13 9,21l0 31c0,8 -3,15 -9,21 -6,6 -13,9 -22,9l-45 0zm213 53c0,3 -1,5 -2,6 -2,1 -4,2 -6,2 -2,0 -3,-1 -5,-2 -2,-1 -2,-3 -2,-6l0 -108 -32 52c-2,4 -4,5 -6,5 -3,0 -5,-1 -7,-5l-32 -52 0 108c0,3 0,5 -2,6 -1,1 -3,2 -5,2 -2,0 -4,-1 -6,-2 -1,-1 -2,-3 -2,-6l0 -136c0,-3 1,-5 2,-6 2,-2 3,-3 5,-3 2,0 3,1 4,1 1,1 2,2 3,4l40 65 39 -65c1,-3 4,-5 7,-5 2,0 3,1 5,3 1,1 2,4 2,6l0 136zm57 -30l-11 33c-1,1 -2,3 -3,4 -1,0 -2,1 -4,1 -2,0 -4,-1 -5,-2 -2,-1 -3,-3 -3,-5l1 -3 45 -137c2,-4 4,-7 8,-7 3,0 5,3 7,7l45 137 1 3c0,2 -1,3 -3,5 -1,1 -3,2 -5,2 -1,0 -2,0 -3,-1 -2,0 -3,-2 -4,-4l-11 -33 -55 0zm50 -16l-22 -67 -23 67 45 0zm136 39l0 -130c0,-2 1,-4 2,-5 2,-2 4,-2 6,-2 2,0 4,0 5,2 2,1 2,3 2,5l0 130 8 0c5,0 8,2 8,8l0 22c0,2 -1,4 -3,6 -1,1 -3,2 -5,2 -2,0 -3,-1 -5,-2 -2,-1 -2,-3 -2,-6l0 -15 -84 0c-5,0 -8,-2 -8,-8l0 -137c0,-2 1,-4 2,-5 2,-2 4,-2 6,-2 2,0 3,0 5,2 1,1 2,3 2,5l0 130 61 0zm152 7c0,3 0,5 -2,6 -1,1 -3,2 -5,2 -2,0 -4,-1 -6,-2 -1,-1 -2,-3 -2,-6l0 -107 -62 111c0,2 -2,3 -3,4l-2 1c0,0 -1,0 -2,0 -1,0 -3,0 -5,-2 -1,-1 -2,-4 -2,-6l0 -138c0,-2 1,-3 2,-5 2,-2 4,-2 6,-2 2,0 3,0 5,2 1,1 2,3 2,5l0 108 62 -111c1,-1 2,-3 3,-4 2,-1 3,-1 4,-1 2,0 4,0 5,2 2,2 2,4 2,6l0 137zm122 0c0,3 -1,5 -2,6 -1,1 -3,2 -6,2 -2,0 -3,-1 -5,-2 -1,-1 -2,-3 -2,-6l0 -107 -62 111c-1,2 -2,3 -3,4l-2 1c0,0 -1,0 -2,0 -2,0 -3,0 -5,-2 -2,-1 -2,-4 -2,-6l0 -138c0,-2 1,-3 2,-5 2,-2 3,-2 5,-2 2,0 4,0 6,2 1,1 2,3 2,5l0 108 62 -111c0,-1 2,-3 3,-4 1,-1 3,-1 4,-1 2,0 3,0 5,2 1,2 2,4 2,6l0 137zm-1373 252l-38 0c-8,0 -15,-3 -21,-9 -6,-6 -9,-13 -9,-22l0 -91c0,-9 3,-16 9,-22 6,-6 13,-9 21,-9l38 0c3,0 4,1 6,3 1,1 2,3 2,5 0,2 -1,3 -2,5 -1,2 -3,2 -6,2l-38 0c-4,0 -8,2 -11,5 -1,1 -2,3 -3,5 -1,2 -1,4 -1,6l0 91c0,5 2,8 4,11 2,1 4,3 5,3 2,1 4,2 6,2l38 0c3,0 4,0 6,2 1,1 2,3 2,5 0,2 -1,3 -2,5 -1,2 -3,3 -6,3zm145 -8c0,2 -1,4 -2,6 -1,1 -3,2 -5,2 -2,0 -4,-1 -6,-2 -1,-2 -2,-3 -2,-6l0 -109 -32 53c-1,3 -4,5 -6,5 -2,0 -5,-2 -7,-5l-31 -53 0 109c0,2 -1,4 -3,6 -1,1 -3,2 -5,2 -2,0 -4,-1 -5,-2 -2,-2 -3,-3 -3,-6l0 -136c0,-3 1,-5 3,-7 1,-1 3,-2 4,-2 2,0 3,0 4,1 1,1 2,2 4,4l39 65 39 -65c2,-3 4,-5 7,-5 2,0 4,1 5,2 1,2 2,4 2,7l0 136zm122 0c0,2 -1,4 -2,6 -2,1 -4,2 -6,2 -2,0 -4,-1 -5,-2 -2,-2 -2,-3 -2,-6l0 -108 -62 112c-1,1 -2,2 -4,3l-1 1c-1,1 -2,1 -3,1 -1,0 -3,-1 -5,-2 -1,-2 -2,-4 -2,-7l0 -137c0,-2 1,-4 3,-6 1,-1 3,-2 5,-2 2,0 4,1 5,2 2,2 3,4 3,6l0 108 61 -112c1,-1 2,-2 4,-3 1,-1 2,-2 4,-2 1,0 3,1 4,3 2,1 3,3 3,6l0 137zm213 -23c0,9 -3,16 -9,22 -6,6 -13,9 -22,9l-30 0c-8,0 -15,-3 -22,-9 -6,-6 -9,-13 -9,-22l0 -91c0,-9 3,-16 9,-22 6,-6 13,-9 22,-9l30 0c9,0 16,3 22,9 6,6 9,13 9,22l0 91zm-15 0l0 -91c0,-5 -2,-8 -5,-11 -3,-3 -6,-5 -11,-5l-30 0c-4,0 -8,2 -11,5 -1,1 -3,3 -3,5 -1,2 -1,4 -1,6l0 91c0,5 1,8 4,11 2,1 3,3 5,3 2,1 4,2 6,2l30 0c5,0 8,-2 11,-5 3,-3 5,-6 5,-11zm240 23c0,2 -1,4 -2,6 -2,1 -3,2 -6,2 -2,0 -3,-1 -5,-2 -1,-2 -2,-3 -2,-6l0 -130 -61 0 0 130c0,2 -1,4 -2,6 -2,1 -3,2 -6,2 -2,0 -4,-1 -5,-2 -2,-2 -2,-3 -2,-6l0 -137c0,-5 2,-8 7,-8l76 0c5,0 8,3 8,8l0 137zm46 -84l38 0c2,0 4,1 5,3 2,1 3,3 3,5 0,2 -1,3 -2,5 -2,2 -4,3 -6,3l-38 0 0 61 53 0c2,0 4,0 6,2 1,1 2,3 2,5 0,2 -1,4 -2,5 -1,2 -3,3 -6,3l-61 0c-5,0 -8,-3 -8,-8l0 -137c0,-5 3,-8 8,-8l61 0c2,0 4,1 6,3 1,1 2,3 2,5 0,2 -1,3 -2,5 -1,2 -3,2 -6,2l-53 0 0 46zm167 16l0 -69c0,-2 1,-4 2,-6 2,-1 4,-2 6,-2 2,0 3,1 5,2 1,2 2,3 2,6l0 137c0,2 0,4 -2,6 -1,1 -3,2 -5,2 -2,0 -4,-1 -6,-2 -1,-2 -2,-3 -2,-6l0 -53 -46 0c-8,0 -15,-3 -21,-9 -6,-6 -9,-13 -9,-22l0 -53c0,-2 1,-4 2,-6 2,-1 4,-2 6,-2 1,0 3,1 5,2 1,2 2,3 2,6l0 53c0,5 2,8 4,11 2,1 4,3 5,3 3,1 5,2 6,2l46 0zm72 38l-11 32c0,2 -1,3 -2,4 -1,1 -3,1 -4,2 -3,0 -4,-1 -6,-3 -1,-1 -2,-3 -2,-5l0 -2 46 -137c2,-5 4,-7 7,-7 3,0 6,2 7,7l46 137 0 2c0,2 0,4 -2,6 -2,1 -3,2 -5,2 -1,0 -3,-1 -4,-1 -1,-1 -2,-2 -3,-5l-11 -32 -56 0zm51 -16l-23 -67 -22 67 45 0zm67 -84l-30 0c-2,0 -4,0 -6,-2 -1,-1 -2,-3 -2,-5 0,-2 1,-3 2,-5 1,-2 3,-3 6,-3l76 0c2,0 4,1 5,3 2,1 3,3 3,5 0,2 -1,3 -2,5 -2,2 -4,2 -6,2l-31 0 0 130c0,2 0,4 -2,6 -1,1 -3,2 -5,2 -2,0 -4,-1 -5,-2 -2,-2 -3,-3 -3,-6l0 -130z"/>
    <path class="fil2 str3" d="M5062 5096l0 -53c0,-2 1,-4 2,-5 2,-2 4,-3 6,-3 2,0 3,1 5,2 2,2 2,3 2,6l0 137c0,2 0,4 -2,6 -2,1 -4,2 -5,2 -2,0 -4,-1 -6,-2 -1,-1 -2,-3 -2,-6l0 -68 -61 0 0 68c0,2 -1,4 -2,6 -1,1 -3,2 -5,2 -2,0 -4,-1 -6,-2 -1,-2 -2,-3 -2,-6l0 -137c0,-2 1,-4 2,-6 2,-1 4,-2 6,-2 2,0 3,1 5,2 1,2 2,4 2,6l0 53 61 0zm137 61c0,9 -3,16 -9,22 -6,6 -13,9 -21,9l-31 0c-8,0 -15,-3 -21,-9 -6,-6 -9,-13 -9,-22l0 -91c0,-9 3,-16 9,-22 6,-6 13,-9 21,-9l31 0c8,0 15,3 21,9 6,6 9,13 9,22l0 91zm-15 0l0 -91c0,-5 -2,-8 -4,-11 -3,-3 -7,-5 -11,-5l-31 0c-4,0 -8,2 -11,5 -1,1 -2,3 -3,5 -1,2 -1,4 -1,6l0 91c0,5 1,8 4,11 2,1 3,3 5,3 2,1 4,2 6,2l31 0c4,0 7,-2 10,-5 3,-3 5,-6 5,-11zm119 -137l-31 0c-2,0 -4,0 -6,-2 -1,-1 -2,-3 -2,-5 0,-2 1,-4 2,-5 2,-2 4,-3 6,-3l31 0c2,0 3,1 5,2 1,2 2,4 2,6 0,1 0,3 -2,5 -1,1 -3,2 -5,2zm30 160c0,2 -1,4 -2,6 -2,1 -3,2 -6,2 -2,0 -3,-1 -5,-2 -1,-2 -2,-3 -2,-6l0 -108 -62 112c-1,1 -2,2 -3,3l-2 1c0,1 -1,1 -2,1 -2,0 -3,-1 -5,-2 -2,-2 -2,-4 -2,-7l0 -137c0,-2 0,-4 2,-6 1,-1 3,-2 5,-2 2,0 4,1 5,2 2,2 3,4 3,6l0 108 62 -112c0,-1 1,-2 3,-3 1,-1 3,-2 4,-2 2,0 3,1 5,3 1,1 2,3 2,6l0 137zm-1167 244c0,2 -1,4 -2,5 -2,2 -4,2 -6,2 -2,0 -4,0 -5,-2 -2,-1 -2,-3 -2,-5l0 -130 -61 0 0 130c0,2 -1,4 -3,5 -1,2 -3,2 -5,2 -2,0 -4,0 -5,-2 -2,-1 -3,-3 -3,-5l0 -137c0,-6 3,-8 8,-8l76 0c5,0 8,2 8,8l0 137zm122 0c0,2 -1,4 -2,5 -2,2 -4,2 -6,2 -2,0 -4,0 -5,-2 -2,-1 -2,-3 -2,-5l0 -130 -25 0 -37 132c0,1 -1,2 -2,4 -2,1 -3,1 -5,1 -2,0 -4,0 -6,-2 -1,-1 -2,-3 -2,-5 0,-1 0,-2 1,-2l38 -137c1,-4 3,-6 7,-6l38 0c5,0 8,2 8,8l0 137zm121 -23c0,8 -3,15 -9,21 -6,6 -13,9 -21,9l-31 0c-8,0 -15,-3 -21,-9 -6,-6 -9,-13 -9,-21l0 -92c0,-8 3,-15 9,-21 6,-6 13,-9 21,-9l31 0c8,0 15,3 21,9 6,6 9,13 9,21l0 92zm-15 0l0 -92c0,-4 -1,-8 -4,-10 -3,-3 -7,-5 -11,-5l-31 0c-4,0 -8,2 -11,4 -1,2 -2,4 -3,5 -1,2 -1,4 -1,6l0 92c0,4 1,8 4,11 2,1 4,2 5,3 2,1 4,1 6,1l31 0c4,0 8,-1 11,-4 3,-3 4,-7 4,-11zm180 30l-8 0 -107 0c-5,0 -7,-2 -7,-7l0 -137c0,-2 1,-4 2,-6 2,-1 3,-2 5,-2 2,0 4,1 6,2 1,1 2,3 2,6l0 129 38 0 0 -129c0,-2 1,-4 2,-6 2,-1 4,-2 6,-2 2,0 3,1 5,2 1,1 2,3 2,6l0 129 38 0 0 -129c0,-2 1,-4 3,-6 1,-1 3,-2 5,-2 2,0 4,1 5,2 2,1 3,3 3,6l0 129 7 0c5,0 8,3 8,8l0 23c0,2 -1,3 -3,5 -1,1 -3,2 -5,2 -2,0 -3,0 -5,-2 -2,-1 -2,-3 -2,-5l0 -16zm72 -38l-11 33c-1,2 -2,3 -3,4 -1,1 -2,1 -4,1 -2,0 -4,0 -5,-2 -2,-1 -3,-3 -3,-5l1 -3 46 -137c1,-4 3,-6 7,-6 3,0 5,2 7,6l45 137 1 3c0,2 -1,4 -3,5 -1,2 -3,2 -5,2 -1,0 -2,0 -3,-1 -2,0 -3,-1 -4,-4l-11 -33 -55 0zm50 -15l-22 -67 -23 67 45 0zm76 38l15 -130c0,-5 2,-7 7,-7l46 0c5,0 7,2 7,8l0 129 8 0c5,0 8,3 8,8l0 15c0,2 -1,4 -2,5 -2,2 -4,2 -6,2 -1,0 -3,0 -5,-2 -1,-1 -2,-3 -2,-5l0 -8 -77 0 0 8c0,2 0,4 -2,5 -2,2 -3,2 -5,2 -2,0 -4,0 -5,-2 -2,-1 -3,-3 -3,-5l0 -15c0,-5 3,-8 8,-8l8 0zm60 0l0 -122 -31 0 -14 122 45 0zm152 8c0,2 0,4 -2,5 -1,2 -3,2 -5,2 -2,0 -4,0 -5,-2 -2,-1 -3,-3 -3,-5l0 -108 -61 111c-1,2 -2,3 -4,4l-1 1c-1,0 -2,0 -3,1 -1,0 -3,-1 -5,-3 -1,-1 -2,-3 -2,-6l0 -137c0,-2 1,-4 2,-6 2,-1 4,-2 6,-2 2,0 3,1 5,2 2,1 2,3 2,6l0 107 62 -111c1,-1 2,-2 3,-4 2,-1 3,-1 4,-1 2,0 4,1 5,2 2,2 2,4 2,7l0 137zm-936 160l0 -54c0,-2 1,-4 2,-5 2,-2 3,-2 5,-2 2,0 4,0 6,1 1,2 2,4 2,6l0 137c0,2 -1,4 -2,6 -2,1 -4,2 -6,2 -2,0 -3,-1 -5,-2 -1,-1 -2,-3 -2,-6l0 -68 -61 0 0 68c0,3 -1,5 -2,6 -2,1 -3,2 -6,2 -2,0 -3,-1 -5,-2 -2,-1 -2,-3 -2,-6l0 -137c0,-2 0,-4 2,-5 2,-2 3,-2 5,-2 2,0 4,0 6,2 1,1 2,3 2,5l0 54 61 0zm61 0l38 0c2,0 4,0 5,2 2,1 3,3 3,5 0,2 -1,4 -2,5 -2,2 -4,3 -6,3l-38 0 0 61 53 0c2,0 4,0 6,2 1,2 2,3 2,5 0,2 -1,4 -2,5 -1,2 -3,3 -6,3l-61 0c-5,0 -8,-3 -8,-7l0 -138c0,-5 3,-7 8,-7l61 0c2,0 4,0 6,2 1,1 2,3 2,5 0,2 -1,4 -2,5 -1,2 -3,3 -6,3l-53 0 0 46zm274 83c0,3 -1,5 -3,6 -1,1 -3,2 -5,2 -2,0 -4,-1 -5,-2 -2,-1 -3,-3 -3,-6l0 -129 -61 0 0 129c0,3 0,5 -2,6 -1,1 -3,2 -5,2 -2,0 -4,-1 -5,-2 -2,-1 -3,-3 -3,-6l0 -137c0,-5 3,-7 8,-7l76 0c5,0 8,2 8,7l0 137zm121 -23c0,9 -3,16 -9,22 -5,6 -13,9 -21,9l-30 0c-9,0 -16,-3 -22,-9 -6,-6 -9,-13 -9,-22l0 -91c0,-8 3,-16 9,-22 6,-5 13,-8 22,-8l30 0c8,0 16,3 22,8 5,6 8,14 8,22l0 91zm-15 0l0 -91c0,-4 -1,-8 -4,-11 -3,-3 -7,-4 -11,-4l-31 0c-4,0 -7,1 -10,4 -2,2 -3,3 -4,5 0,2 -1,4 -1,6l0 91c0,5 2,8 5,11 1,2 3,3 5,4 2,0 4,1 5,1l31 0c4,0 8,-2 11,-5 3,-2 4,-6 4,-11zm104 -45l-23 0c-2,0 -4,-1 -6,-2 -1,-2 -2,-4 -2,-6 0,-2 1,-3 2,-5 2,-2 4,-2 6,-2l23 0c4,0 8,-2 11,-5 3,-3 4,-6 4,-11l0 -15c0,-4 -1,-8 -4,-11 -3,-3 -7,-4 -11,-4l-15 0c-4,0 -7,1 -9,3 -3,1 -5,4 -6,7 0,2 -1,3 -2,4 -1,0 -2,1 -2,1l-3 1c-2,0 -4,-1 -6,-2 -1,-2 -2,-4 -2,-6l1 -3c2,-6 5,-11 11,-15 5,-4 11,-5 18,-5l15 0c8,0 15,3 21,8 6,6 9,14 9,22l0 15c0,5 -1,9 -3,13 -1,4 -4,7 -7,10 7,6 10,13 10,23l0 30c0,9 -3,16 -9,22 -6,6 -13,9 -21,9l-15 0c-7,0 -13,-2 -18,-6 -5,-4 -9,-9 -11,-15l-1 -3c0,-2 1,-3 2,-5 2,-2 4,-2 6,-2 3,0 5,1 7,5 1,3 3,6 6,8 2,2 5,3 9,3l15 0c4,0 8,-2 11,-5 3,-2 4,-6 4,-11l0 -30c0,-5 -1,-8 -3,-11 -3,-3 -7,-4 -12,-4zm69 61l14 -131c0,-4 3,-6 8,-6l45 0c6,0 8,2 8,7l0 130 8 0c5,0 7,2 7,7l0 15c0,2 0,4 -2,6 -1,1 -3,2 -5,2 -2,0 -4,-1 -5,-2 -2,-1 -3,-3 -3,-6l0 -7 -76 0 0 7c0,2 -1,4 -2,6 -2,1 -4,2 -6,2 -1,0 -3,-1 -5,-2 -1,-1 -2,-3 -2,-6l0 -15c0,-5 2,-7 7,-7l9 0zm60 0l0 -122 -31 0 -14 122 45 0zm137 -76l0 -54c0,-2 1,-4 2,-5 2,-2 3,-2 5,-2 2,0 4,0 6,1 1,2 2,4 2,6l0 137c0,2 -1,4 -2,6 -2,1 -4,2 -6,2 -1,0 -3,-1 -5,-2 -1,-1 -2,-3 -2,-6l0 -68 -61 0 0 68c0,3 -1,5 -2,6 -2,1 -3,2 -6,2 -2,0 -3,-1 -5,-2 -1,-1 -2,-3 -2,-6l0 -137c0,-2 1,-4 2,-5 2,-2 3,-2 5,-2 2,0 4,0 6,2 1,1 2,3 2,5l0 54 61 0zm61 0l38 0c2,0 4,0 5,2 2,1 3,3 3,5 0,2 -1,4 -2,5 -2,2 -4,3 -6,3l-38 0 0 61 53 0c2,0 4,0 6,2 1,2 2,3 2,5 0,2 -1,4 -2,5 -1,2 -3,3 -6,3l-61 0c-5,0 -7,-3 -7,-7l0 -138c0,-5 2,-7 7,-7l61 0c2,0 4,0 6,2 1,1 2,3 2,5 0,2 -1,4 -2,5 -1,2 -3,3 -6,3l-53 0 0 46zm106 0l38 0c3,0 4,0 6,2 1,1 2,3 2,5 0,2 0,4 -2,5 -1,2 -3,3 -6,3l-38 0 0 61 54 0c2,0 4,0 5,2 2,2 2,3 2,5 0,2 0,4 -2,5 -1,2 -3,3 -5,3l-61 0c-5,0 -8,-3 -8,-7l0 -138c0,-5 3,-7 8,-7l61 0c2,0 4,0 5,2 2,1 2,3 2,5 0,2 0,4 -2,5 -1,2 -3,3 -5,3l-54 0 0 46zm-840 198l-30 0c-2,0 -4,-1 -6,-3 -1,-1 -2,-3 -2,-5 0,-2 1,-4 2,-5 2,-2 4,-3 6,-3l30 0c12,0 22,4 29,12 6,7 9,16 9,26 0,6 -1,12 -3,17 -3,5 -6,10 -11,14 4,3 7,8 10,13 3,5 4,11 4,17l0 15c0,11 -3,20 -11,27 -7,8 -16,11 -27,11l-30 0c-2,0 -4,0 -6,-2 -1,-1 -2,-3 -2,-5 0,-2 1,-4 2,-5 2,-2 3,-3 6,-3l30 0c7,0 12,-2 17,-6 4,-5 6,-10 6,-17l0 -15c0,-6 -2,-11 -6,-16 -5,-4 -10,-7 -17,-7l-15 0c-2,0 -4,0 -6,-2 -1,-1 -1,-3 -1,-5 0,-2 0,-4 1,-5 2,-2 4,-3 6,-3l15 0c7,0 13,-2 17,-7 4,-4 6,-10 6,-16 0,-6 -2,-11 -6,-15 -4,-5 -9,-7 -17,-7zm146 103c0,9 -4,17 -10,24 -7,6 -14,9 -24,9l-9 0c-9,0 -17,-3 -24,-9 -6,-7 -9,-15 -9,-24l0 -85c0,-9 3,-17 9,-24 7,-6 15,-10 24,-10l9 0c9,0 17,3 24,10 6,6 10,14 10,24l0 85zm-15 0l0 -85c0,-5 -2,-10 -6,-13 -3,-4 -8,-6 -13,-6l-9 0c-5,0 -9,2 -13,6 -4,3 -5,8 -5,13l0 85c0,5 1,9 5,13 4,4 8,5 13,5l9 0c5,0 9,-1 13,-5 4,-3 6,-8 6,-13zm152 18l15 -130c0,-5 2,-7 7,-7l46 0c5,0 8,3 8,8l0 129 7 0c5,0 8,3 8,8l0 15c0,2 -1,4 -2,5 -2,2 -4,3 -6,3 -1,0 -3,-1 -5,-2 -1,-2 -2,-3 -2,-6l0 -8 -76 0 0 8c0,2 -1,4 -3,5 -1,2 -3,3 -5,3 -2,0 -3,-1 -5,-2 -2,-2 -3,-3 -3,-6l0 -15c0,-5 3,-8 8,-8l8 0zm61 0l0 -122 -32 0 -13 122 45 0zm136 -76l0 -53c0,-2 1,-4 3,-6 1,-1 3,-2 5,-2 2,0 4,1 5,2 2,1 3,3 3,6l0 137c0,2 -1,4 -3,5 -2,2 -3,2 -5,2 -2,0 -4,0 -5,-1 -2,-2 -3,-4 -3,-6l0 -69 -61 0 0 69c0,2 0,4 -2,6 -1,1 -3,1 -5,1 -2,0 -4,0 -5,-1 -2,-2 -3,-4 -3,-6l0 -137c0,-2 1,-4 3,-6 1,-1 3,-2 5,-2 2,0 4,1 5,2 2,1 2,3 2,6l0 53 61 0zm61 0l39 0c2,0 3,1 5,3 1,1 2,3 2,5 0,2 0,3 -2,5 -1,1 -3,2 -5,2l-39 0 0 61 54 0c2,0 4,1 5,3 2,1 2,3 2,5 0,2 0,3 -2,5 -1,2 -3,2 -5,2l-61 0c-5,0 -8,-2 -8,-7l0 -137c0,-5 3,-8 8,-8l61 0c2,0 4,1 5,3 2,1 2,3 2,5 0,2 0,3 -2,5 -1,1 -3,2 -5,2l-54 0 0 46zm152 -76l-30 0c-2,0 -4,-1 -6,-2 -1,-2 -2,-4 -2,-6 0,-1 1,-3 2,-5 2,-1 4,-2 6,-2l30 0c3,0 4,1 6,2 1,2 2,4 2,5 0,2 -1,4 -2,6 -1,1 -3,2 -6,2zm31 160c0,2 -1,4 -2,6 -2,1 -3,1 -6,1 -2,0 -3,0 -5,-1 -2,-2 -2,-4 -2,-6l0 -108 -62 112c-1,1 -2,2 -3,3l-2 1c-1,0 -1,1 -2,1 -2,0 -4,-1 -5,-3 -2,-1 -2,-3 -2,-6l0 -137c0,-2 0,-4 2,-6 1,-1 3,-2 5,-2 2,0 4,1 5,2 2,1 3,3 3,6l0 107 62 -111c0,-1 1,-2 3,-3 1,-1 3,-2 4,-2 2,0 3,1 5,3 1,1 2,3 2,6l0 137z"/>
   </g>
  </g>
 </g>
</svg>
