<?xml version="1.0" encoding="UTF-8"?>
<!DOCTYPE svg PUBLIC "-//W3C//DTD SVG 1.0//EN" "http://www.w3.org/TR/2001/REC-SVG-20010904/DTD/svg10.dtd">
<!-- Creator: CorelDRAW X7 -->
<svg xmlns="http://www.w3.org/2000/svg" xml:space="preserve" width="115mm" height="70.122mm" version="1.0" style="shape-rendering:geometricPrecision; text-rendering:geometricPrecision; image-rendering:optimizeQuality; fill-rule:evenodd; clip-rule:evenodd"
viewBox="0 0 11500 7012"
 xmlns:xlink="http://www.w3.org/1999/xlink">
 <defs>
  <style type="text/css">
   <![CDATA[
    .str1 {stroke:#4D897C;stroke-width:35.061}
    .str2 {stroke:#F9ECE4;stroke-width:52.5915}
    .str4 {stroke:#004641;stroke-width:8.76524}
    .str0 {stroke:#4E897C;stroke-width:8.76524}
    .str3 {stroke:#034540;stroke-width:43.0724;stroke-linecap:round;stroke-linejoin:round}
    .fil20 {fill:none}
    .fil23 {fill:#FEFEFE}
    .fil5 {fill:#FCDFCA}
    .fil15 {fill:#F9D5BB}
    .fil8 {fill:#F9EFE8}
    .fil10 {fill:#F7D0B4}
    .fil24 {fill:#F7E9E2}
    .fil18 {fill:#F4CBAF}
    .fil21 {fill:#F4B704}
    .fil16 {fill:#F0AFA8}
    .fil25 {fill:#F3C9AC}
    .fil19 {fill:#F2C5A5}
    .fil29 {fill:#F3BC64}
    .fil26 {fill:#F0C09E}
    .fil22 {fill:#E6A016}
    .fil13 {fill:#C68667}
    .fil14 {fill:#B87055}
    .fil28 {fill:#AF642C}
    .fil17 {fill:#B06549}
    .fil27 {fill:#975729}
    .fil30 {fill:#7D4525}
    .fil31 {fill:#764024}
    .fil33 {fill:#6F3F26}
    .fil32 {fill:#673A25}
    .fil9 {fill:#58423E}
    .fil6 {fill:#7AB4CD}
    .fil3 {fill:#5C4745}
    .fil11 {fill:#4D897C}
    .fil7 {fill:#5FA5BC}
    .fil35 {fill:#034540}
    .fil2 {fill:#4D8A7D}
    .fil34 {fill:#AFAFC7}
    .fil36 {fill:#D8C650}
    .fil4 {fill:#F9ECE4}
    .fil12 {fill:#4D897C;fill-rule:nonzero}
    .fil1 {fill:#4D8A7D;fill-rule:nonzero}
    .fil0 {fill:url(#id0)}
   ]]>
  </style>
  <radialGradient id="id0" gradientUnits="userSpaceOnUse" gradientTransform="matrix(1.17124 -0 -0 1.92083 -985 -3229)" cx="5750" cy="3506.1" r="3506.1" fx="5750" fy="3506.1">
   <stop offset="0" style="stop-opacity:1; stop-color:#FEFEFE"/>
   <stop offset="0.439216" style="stop-opacity:1; stop-color:#FEFEFE"/>
   <stop offset="1" style="stop-opacity:1; stop-color:#D1E2F2"/>
  </radialGradient>
 </defs>
 <g id="Layer_x0020_1">
  <metadata id="CorelCorpID_0Corel-Layer"/>
  <path class="fil0" d="M0 0l11500 0 0 7012 -11500 0 0 -7012z"/>
  <g id="_286472004192">
   <g>
    <path class="fil1" d="M3526 2894c-12,0 -23,-7 -23,-17 0,-9 11,-17 23,-17l0 34zm4265 0l-4265 0 0 -34 4265 0 0 34zm0 -34c13,0 23,8 23,17 0,10 -10,17 -23,17l0 -34z"/>
   </g>
   <g id="_286471966432">
    <path class="fil2 str0" d="M2928 1402l0 -91c0,-3 1,-6 3,-8 2,-2 5,-3 7,-3 3,0 5,1 7,3 2,2 3,4 3,8l0 182c0,4 -1,6 -2,8 -2,2 -5,3 -8,3 -2,0 -5,-1 -7,-3 -2,-2 -3,-4 -3,-8l0 -71 -61 0c-11,0 -20,-4 -28,-12 -8,-8 -12,-17 -12,-28l0 -71c0,-3 1,-6 3,-8 2,-2 4,-3 7,-3 2,0 5,1 7,3 2,2 3,4 3,8l0 71c0,5 2,10 6,14 2,2 4,3 6,5 3,0 6,1 8,1l61 0zm183 91c0,4 -1,6 -3,8 -2,2 -4,3 -7,3 -3,0 -5,-1 -7,-3 -2,-2 -3,-4 -3,-8l0 -172 -33 0 -49 175c0,2 -1,4 -3,5 -2,2 -4,3 -7,3 -3,0 -5,-1 -7,-3 -2,-2 -3,-4 -3,-7 0,-2 0,-3 1,-3l50 -183c2,-5 5,-8 10,-8l51 0c7,0 10,4 10,11l0 182zm61 -111l51 0c2,0 5,1 7,3 2,2 3,4 3,7 0,2 -1,5 -3,7 -1,2 -4,3 -7,3l-51 0 0 81 71 0c3,0 5,1 7,3 2,2 3,5 3,7 0,3 -1,5 -2,7 -2,2 -5,4 -8,4l-82 0c-6,0 -10,-4 -10,-10l0 -183c0,-7 4,-11 10,-11l82 0c3,0 5,1 7,4 2,2 3,4 3,7 0,2 -1,4 -3,6 -1,3 -4,4 -7,4l-71 0 0 61zm223 0l0 -71c0,-3 1,-5 3,-8 2,-2 4,-3 7,-3 3,0 5,1 7,3 2,2 3,4 3,8l0 182c0,3 -1,6 -3,8 -3,2 -5,3 -7,3 -3,0 -5,-1 -7,-3 -2,-2 -3,-4 -3,-8l0 -91 -81 0 0 91c0,4 -1,6 -3,8 -2,2 -5,3 -8,3 -2,0 -5,-1 -7,-3 -2,-2 -3,-4 -3,-8l0 -182c0,-3 1,-5 3,-8 2,-2 5,-2 7,-2 3,0 5,0 7,2 3,2 4,4 4,8l0 71 81 0zm203 111c0,4 -1,6 -3,8 -2,2 -4,3 -7,3 -3,0 -5,-1 -7,-3 -2,-2 -3,-4 -3,-8l0 -182c0,-3 1,-6 3,-8 2,-2 4,-3 7,-3 2,0 5,1 7,3 2,2 3,4 3,8l0 182zm-122 -91l0 81 41 0c5,0 10,-2 14,-5 4,-4 6,-9 6,-15l0 -41c0,-5 -2,-10 -6,-14 -4,-4 -8,-6 -14,-6l-41 0zm0 -20l41 0c11,0 20,4 28,12 8,7 12,17 12,28l0 41c0,11 -4,21 -12,29 -8,7 -17,12 -28,12l-51 0c-7,0 -10,-4 -10,-11l0 -182c0,-3 1,-6 3,-8 2,-2 4,-3 7,-3 2,0 5,1 7,3 2,2 3,4 3,8l0 71zm406 81c0,11 -4,21 -12,29 -8,7 -18,12 -29,12l-40 0c-11,0 -21,-4 -29,-12 -8,-8 -12,-18 -12,-29l0 -122c0,-11 4,-21 12,-29 8,-8 17,-12 29,-12l40 0c11,0 21,4 29,12 8,8 12,18 12,29l0 122zm-20 0l0 -122c0,-6 -2,-11 -6,-14 -4,-4 -9,-6 -15,-6l-40 0c-6,0 -11,2 -15,5 -2,2 -3,5 -4,7 -1,3 -2,5 -2,8l0 122c0,6 2,11 6,15 2,1 4,3 7,4 3,1 5,1 8,1l40 0c6,0 11,-2 15,-5 4,-4 6,-9 6,-15zm97 -75l85 -85c2,-2 5,-3 7,-3 3,0 5,1 7,4 3,2 4,4 4,7 0,2 -1,4 -3,7l-61 60 62 110 2 6c0,2 -1,5 -3,6 -2,2 -5,4 -8,4 -3,0 -6,-2 -8,-6l-60 -106 -24 24 0 77c0,4 -1,6 -3,8 -2,2 -4,3 -7,3 -3,0 -5,-1 -7,-3 -2,-2 -3,-4 -3,-8l0 -183c0,-2 1,-5 3,-7 2,-2 4,-3 7,-3 2,0 5,1 7,3 2,2 3,4 3,7l0 78zm162 14l61 0c6,0 11,-2 15,-6 4,-3 5,-8 5,-14l0 -41c0,-6 -1,-11 -5,-14 -4,-4 -9,-6 -15,-6l-61 0 0 81zm0 20l0 71c0,4 -1,6 -3,8 -2,2 -4,3 -7,3 -3,0 -5,-1 -7,-3 -2,-2 -3,-4 -3,-8l0 -182c0,-7 3,-11 10,-11l71 0c11,0 21,4 29,12 8,8 12,18 12,29l0 41c0,11 -4,20 -12,28 -8,8 -18,12 -29,12l-61 0zm244 0l-61 0c-11,0 -21,-4 -29,-12 -8,-8 -12,-17 -12,-28l0 -71c0,-3 1,-6 3,-8 2,-2 5,-3 7,-3 3,0 5,1 7,3 2,2 3,4 3,8l0 71c0,5 2,10 6,14 2,2 5,3 7,5 3,0 5,1 8,1l61 0 0 -91c0,-3 1,-6 3,-8 2,-2 4,-3 7,-3 2,0 5,1 7,3 2,2 3,4 3,8l0 152c0,11 -4,21 -12,29 -8,7 -17,12 -29,12l-50 0c-3,0 -6,-1 -8,-3 -2,-2 -2,-5 -2,-8 0,-2 0,-4 2,-6 2,-3 5,-4 8,-4l51 0c5,0 10,-2 14,-5 4,-4 6,-9 6,-15l0 -41zm152 -42l53 -75c0,-1 2,-2 3,-3 2,-1 3,-2 5,-2 2,0 5,1 7,3 2,3 3,5 3,8 0,2 0,4 -2,6l-53 75 54 96c1,2 1,4 1,6 0,2 -1,4 -3,6 -2,2 -4,4 -7,4 -4,0 -6,-2 -9,-6l-52 -93 0 88c0,4 -1,6 -3,8 -2,2 -4,3 -7,3 -3,0 -5,-1 -7,-3 -2,-2 -3,-4 -3,-8l0 -87 -52 92c-1,1 -2,3 -4,4l-2 1 -3 1c-3,0 -5,-1 -7,-3 -2,-2 -3,-5 -3,-7 0,-2 0,-3 1,-6l54 -96 -53 -75c-1,-1 -2,-3 -2,-6 0,-3 1,-5 3,-7 2,-3 4,-4 7,-4 3,0 6,2 8,5l53 75 0 -69c0,-3 1,-6 3,-8 2,-2 4,-3 7,-3 3,0 5,1 7,3 2,2 3,4 3,8l0 69zm213 2l0 -71c0,-3 1,-5 3,-8 2,-2 5,-3 7,-3 3,0 5,1 7,3 2,2 3,4 3,8l0 182c0,3 -1,6 -3,8 -2,2 -5,3 -7,3 -2,0 -5,-1 -7,-3 -2,-2 -3,-4 -3,-8l0 -91 -81 0 0 91c0,4 -1,6 -3,8 -2,2 -4,3 -7,3 -3,0 -5,-1 -7,-3 -2,-2 -3,-4 -3,-8l0 -182c0,-3 1,-5 3,-8 2,-2 4,-2 7,-2 2,0 5,0 7,2 2,2 3,4 3,8l0 71 81 0zm183 81c0,11 -4,21 -12,29 -8,7 -18,12 -29,12l-41 0c-11,0 -20,-4 -28,-12 -8,-8 -12,-18 -12,-29l0 -122c0,-11 4,-21 12,-29 8,-8 17,-12 28,-12l41 0c11,0 21,4 29,12 8,8 12,18 12,29l0 122zm-21 0l0 -122c0,-6 -2,-11 -5,-14 -4,-4 -9,-6 -15,-6l-41 0c-5,0 -10,2 -14,5 -2,2 -3,5 -4,7 -1,3 -2,5 -2,8l0 122c0,6 2,11 6,15 2,1 4,3 6,4 3,1 6,1 8,1l41 0c6,0 10,-2 14,-5 4,-4 6,-9 6,-15zm159 -183l-41 0c-3,0 -6,-1 -7,-2 -2,-3 -3,-5 -3,-8 0,-2 1,-4 2,-7 2,-2 5,-3 8,-3l41 0c2,0 5,1 7,3 2,2 3,5 3,7 0,3 -1,5 -3,7 -1,2 -4,3 -7,3zm40 213c0,4 -1,6 -3,8 -2,2 -4,3 -7,3 -3,0 -5,-1 -7,-3 -2,-2 -3,-4 -3,-8l0 -143 -82 148c-2,2 -3,4 -5,5l-2 1c-1,1 -2,1 -3,1 -2,0 -4,-1 -7,-3 -2,-2 -3,-5 -3,-9l0 -182c0,-3 1,-5 3,-8 2,-2 5,-2 8,-2 2,0 4,0 7,2 2,2 3,4 3,8l0 143 82 -148c1,-2 2,-3 4,-5 2,-1 4,-2 6,-2 2,0 4,1 6,3 2,2 3,5 3,9l0 182zm284 0c0,4 -1,6 -3,8 -1,2 -4,3 -7,3 -3,0 -5,-1 -7,-3 -2,-2 -3,-4 -3,-8l0 -143 -82 148c-2,2 -3,4 -5,5l-2 1c-1,1 -2,1 -3,1 -2,0 -4,-1 -7,-3 -2,-2 -2,-5 -2,-9l0 -182c0,-3 1,-5 3,-8 2,-2 4,-2 7,-2 2,0 5,0 7,2 2,2 3,4 3,8l0 143 82 -148c1,-2 3,-3 4,-5 2,-1 4,-2 6,-2 2,0 4,1 6,3 2,2 3,5 3,9l0 182zm102 -91l-31 0c-3,0 -5,-1 -7,-3 -2,-2 -3,-4 -3,-7 0,-3 1,-5 3,-7 2,-2 4,-3 7,-3l31 0c6,0 10,-2 14,-6 4,-4 6,-9 6,-15l0 -20c0,-6 -2,-11 -6,-14 -3,-4 -8,-6 -14,-6l-20 0c-5,0 -9,1 -12,3 -4,3 -6,6 -8,11 0,2 -1,3 -3,4 -1,1 -2,2 -3,2l-3 1c-3,0 -5,-1 -8,-3 -2,-2 -3,-4 -3,-7l1 -4c3,-8 7,-15 15,-20 7,-5 15,-8 24,-8l20 0c11,0 21,4 29,12 7,8 11,18 11,29l0 20c0,6 -1,12 -3,17 -2,6 -6,10 -10,14 9,8 13,18 13,30l0 41c0,11 -4,21 -11,29 -8,7 -18,12 -29,12l-20 0c-9,0 -17,-3 -24,-8 -7,-5 -12,-12 -15,-20l-1 -4c0,-3 1,-5 3,-7 2,-2 5,-3 8,-3 4,0 7,2 9,7 2,4 4,7 8,11 4,2 8,3 12,3l20 0c6,0 10,-2 14,-5 4,-4 6,-9 6,-15l0 -41c0,-6 -1,-10 -4,-14 -4,-4 -9,-6 -16,-6zm101 0l0 81 61 0c6,0 10,-2 14,-5 4,-4 6,-9 6,-15l0 -41c0,-5 -1,-10 -5,-14 -4,-4 -9,-6 -15,-6l-61 0zm0 -20l61 0c11,0 21,4 29,12 8,7 12,17 12,28l0 41c0,11 -4,21 -12,29 -8,7 -18,12 -29,12l-71 0c-7,0 -10,-4 -10,-11l0 -182c0,-7 3,-11 10,-11l81 0c3,0 5,1 7,4 2,2 3,4 3,7 0,2 0,4 -2,6 -2,3 -4,4 -8,4l-71 0 0 61zm264 111c0,4 -1,6 -3,8 -2,2 -4,3 -7,3 -3,0 -5,-1 -7,-3 -2,-2 -3,-4 -3,-8l0 -143 -83 148c-1,2 -2,4 -4,5l-2 1c-1,1 -2,1 -3,1 -2,0 -5,-1 -7,-3 -2,-2 -3,-5 -3,-9l0 -182c0,-3 1,-5 3,-8 2,-2 5,-2 7,-2 3,0 5,0 7,2 2,2 3,4 3,8l0 143 83 -148c1,-2 2,-3 4,-5 2,-1 4,-2 6,-2 2,0 4,1 6,3 2,2 3,5 3,9l0 182zm61 -91l61 0c5,0 10,-2 14,-6 4,-3 6,-8 6,-14l0 -41c0,-6 -2,-11 -6,-14 -3,-4 -8,-6 -14,-6l-61 0 0 81zm0 20l0 71c0,4 -1,6 -3,8 -2,2 -4,3 -7,3 -3,0 -5,-1 -7,-3 -2,-2 -3,-4 -3,-8l0 -182c0,-7 3,-11 10,-11l71 0c11,0 21,4 28,12 8,8 12,18 12,29l0 41c0,11 -4,20 -12,28 -8,8 -17,12 -28,12l-61 0zm157 31l-14 44c-1,2 -2,3 -4,5 -2,1 -3,1 -6,2 -2,0 -5,-1 -7,-3 -2,-2 -3,-4 -3,-7l1 -4 61 -183c2,-5 5,-8 9,-8 5,0 8,3 10,8l60 183 1 4c0,2 -1,5 -3,7 -2,2 -5,3 -7,3 -2,0 -3,-1 -5,-2 -1,0 -3,-2 -5,-5l-14 -44 -74 0zm67 -21l-30 -89 -30 89 60 0zm90 -111l-40 0c-3,0 -6,-1 -8,-3 -1,-2 -2,-5 -2,-7 0,-3 0,-5 2,-7 2,-2 4,-4 8,-4l101 0c3,0 5,1 7,4 2,2 3,4 3,7 0,2 0,4 -2,6 -2,3 -4,4 -8,4l-40 0 0 172c0,4 -1,6 -3,8 -2,2 -5,3 -7,3 -3,0 -6,-1 -8,-3 -2,-2 -3,-4 -3,-8l0 -172zm132 61l51 0c3,0 5,1 7,3 2,2 3,4 3,7 0,2 0,5 -2,7 -2,2 -4,3 -8,3l-51 0 0 81 72 0c2,0 5,1 7,3 2,2 3,5 3,7 0,3 -1,5 -3,7 -2,2 -4,4 -7,4l-82 0c-7,0 -10,-4 -10,-10l0 -183c0,-7 3,-11 10,-11l82 0c2,0 5,1 7,4 2,2 3,4 3,7 0,2 -1,4 -3,6 -2,3 -4,4 -7,4l-72 0 0 61zm244 111c0,4 -1,6 -3,8 -2,2 -4,3 -7,3 -3,0 -5,-1 -7,-3 -2,-2 -3,-4 -3,-8l0 -172 -33 0 -49 175c0,2 -1,4 -3,5 -2,2 -4,3 -7,3 -3,0 -5,-1 -7,-3 -2,-2 -3,-4 -3,-7 0,-2 0,-3 1,-3l50 -183c2,-5 5,-8 10,-8l51 0c7,0 10,4 10,11l0 182zm61 -91l61 0c5,0 10,2 14,6 4,4 6,8 6,14l0 41c0,6 -2,11 -6,15 -2,1 -4,3 -7,4 -2,1 -5,1 -7,1l-61 0 0 -81zm0 -20l0 -71c0,-3 -2,-5 -4,-7 -2,-3 -4,-4 -7,-4 -2,0 -4,1 -6,3 -3,2 -4,4 -4,8l0 182c0,7 4,11 10,11l71 0c11,0 21,-4 29,-12 8,-8 12,-18 12,-29l0 -41c0,-11 -4,-20 -12,-28 -8,-8 -17,-12 -29,-12l-60 0zm243 0l0 -71c0,-3 1,-5 3,-8 2,-2 5,-3 7,-3 3,0 5,1 7,3 2,2 3,4 3,8l0 182c0,3 -1,6 -3,8 -2,2 -5,3 -7,3 -2,0 -5,-1 -7,-3 -2,-2 -3,-4 -3,-8l0 -91 -81 0 0 91c0,4 -1,6 -3,8 -2,2 -4,3 -7,3 -3,0 -5,-1 -7,-3 -2,-2 -3,-4 -3,-8l0 -182c0,-3 1,-5 3,-8 2,-2 4,-2 7,-2 2,0 5,0 7,2 2,2 3,4 3,8l0 71 81 0zm183 81c0,11 -4,21 -12,29 -8,7 -18,12 -29,12l-40 0c-11,0 -21,-4 -29,-12 -8,-8 -12,-18 -12,-29l0 -122c0,-11 4,-21 12,-29 8,-8 17,-12 29,-12l40 0c11,0 21,4 29,12 8,8 12,18 12,29l0 122zm-20 0l0 -122c0,-6 -2,-11 -6,-14 -4,-4 -9,-6 -15,-6l-40 0c-6,0 -11,2 -15,5 -2,2 -3,5 -4,7 -1,3 -2,5 -2,8l0 122c0,6 2,11 6,15 2,1 4,3 7,4 2,1 5,1 8,1l40 0c6,0 11,-2 15,-5 4,-4 6,-9 6,-15zm158 -183l-41 0c-3,0 -5,-1 -7,-2 -2,-3 -3,-5 -3,-8 0,-2 1,-4 3,-7 1,-2 4,-3 7,-3l41 0c3,0 5,1 7,3 2,2 3,5 3,7 0,3 -1,5 -3,7 -1,2 -4,3 -7,3zm40 213c0,4 -1,6 -3,8 -1,2 -4,3 -7,3 -2,0 -5,-1 -7,-3 -2,-2 -3,-4 -3,-8l0 -143 -82 148c-1,2 -3,4 -5,5l-2 1c-1,1 -2,1 -3,1 -2,0 -4,-1 -7,-3 -2,-2 -2,-5 -2,-9l0 -182c0,-3 1,-5 3,-8 2,-2 4,-2 7,-2 2,0 5,0 7,2 2,2 3,4 3,8l0 143 82 -148c1,-2 3,-3 4,-5 2,-1 4,-2 6,-2 2,0 4,1 6,3 2,2 3,5 3,9l0 182zm183 -105l85 -85c2,-2 5,-3 7,-3 3,0 5,1 7,4 3,2 4,4 4,7 0,2 -1,4 -3,7l-61 60 63 110 1 6c0,2 -1,5 -3,6 -2,2 -5,4 -8,4 -3,0 -6,-2 -8,-6l-60 -106 -24 24 0 77c0,4 -1,6 -3,8 -2,2 -4,3 -7,3 -3,0 -5,-1 -7,-3 -2,-2 -3,-4 -3,-8l0 -183c0,-2 1,-5 3,-7 2,-2 4,-3 7,-3 2,0 5,1 7,3 2,2 3,4 3,7l0 78zm253 75c0,11 -4,21 -11,29 -8,7 -18,12 -29,12l-41 0c-11,0 -20,-4 -28,-12 -8,-8 -12,-18 -12,-29l0 -122c0,-11 4,-21 12,-29 7,-8 17,-12 28,-12l41 0c11,0 21,4 29,12 7,8 11,18 11,29l0 122zm-20 0l0 -122c0,-6 -2,-11 -6,-14 -3,-4 -8,-6 -14,-6l-41 0c-5,0 -10,2 -14,5 -2,2 -4,5 -5,7 -1,3 -1,5 -1,8l0 122c0,6 2,11 6,15 2,1 4,3 6,4 3,1 6,1 8,1l41 0c6,0 10,-2 14,-5 4,-4 6,-9 6,-15zm219 30c0,4 0,6 -2,8 -2,2 -5,3 -8,3 -2,0 -4,-1 -6,-3 -3,-2 -4,-4 -4,-8l0 -145 -42 71c-2,4 -5,6 -9,6 -2,0 -5,-2 -8,-6l-43 -71 0 145c0,4 -1,6 -2,8 -2,2 -5,3 -8,3 -2,0 -5,-1 -7,-3 -2,-2 -3,-4 -3,-8l0 -181c0,-4 1,-7 3,-9 2,-2 4,-3 7,-3 1,0 3,0 4,1 2,1 3,3 5,5l52 87 53 -87c2,-4 5,-6 9,-6 3,0 5,1 7,3 2,2 2,5 2,9l0 181z"/>
    <path class="fil2 str0" d="M8056 1493c0,4 -1,6 -3,8 -2,2 -5,3 -8,3 -2,0 -5,-1 -7,-3 -2,-2 -3,-4 -3,-8l0 -143 -82 148c-1,2 -3,4 -4,5l-3 1c0,1 -1,1 -3,1 -2,0 -4,-1 -7,-3 -1,-2 -2,-5 -2,-9l0 -182c0,-3 1,-5 3,-8 2,-2 4,-2 7,-2 3,0 5,0 7,2 2,2 3,4 3,8l0 143 82 -148c1,-2 3,-3 5,-5 2,-1 3,-2 5,-2 2,0 5,1 6,3 3,2 4,5 4,9l0 182zm132 11l-51 0c-11,0 -21,-4 -29,-12 -8,-8 -12,-18 -12,-29l0 -122c0,-11 4,-21 12,-29 8,-8 17,-12 29,-12l51 0c2,0 5,1 7,4 2,2 3,4 3,7 0,2 -1,4 -3,6 -1,3 -4,4 -7,4l-51 0c-6,0 -11,2 -15,5 -2,2 -3,5 -4,7 -1,3 -2,5 -2,8l0 122c0,6 2,11 6,15 2,1 4,3 7,4 3,1 5,1 8,1l51 0c2,0 5,1 7,3 2,2 3,5 3,7 0,3 -1,5 -3,7 -1,2 -4,4 -7,4zm133 0l-51 0c-11,0 -21,-4 -29,-12 -8,-8 -12,-18 -12,-29l0 -122c0,-11 4,-21 12,-29 8,-8 17,-12 29,-12l51 0c2,0 5,1 7,4 2,2 3,4 3,7 0,2 -1,4 -3,6 -2,3 -4,4 -8,4l-50 0c-6,0 -11,2 -15,5 -2,2 -3,5 -4,7 -1,3 -2,5 -2,8l0 122c0,6 2,11 6,15 2,1 4,3 7,4 2,1 5,1 8,1l50 0c3,0 6,1 8,3 2,2 3,5 3,7 0,3 -1,5 -3,7 -2,2 -4,4 -7,4zm172 -11c0,4 -1,6 -3,8 -2,2 -4,3 -7,3 -3,0 -5,-1 -7,-3 -2,-2 -3,-4 -3,-8l0 -143 -83 148c-1,2 -2,4 -4,5l-2 1c-1,1 -2,1 -4,1 -2,0 -4,-1 -6,-3 -2,-2 -3,-5 -3,-9l0 -182c0,-3 1,-5 3,-8 2,-2 5,-2 7,-2 3,0 5,0 7,2 2,2 3,4 3,8l0 143 83 -148c1,-2 2,-3 4,-5 2,-1 4,-2 6,-2 2,0 4,1 6,3 2,2 3,5 3,9l0 182zm162 0c0,4 -1,6 -3,8 -2,2 -4,3 -7,3 -3,0 -5,-1 -7,-3 -2,-2 -3,-4 -3,-8l0 -143 -82 148c-2,2 -3,4 -5,5l-2 1c-1,1 -2,1 -3,1 -2,0 -4,-1 -7,-3 -2,-2 -3,-5 -3,-9l0 -182c0,-3 1,-5 3,-8 2,-2 5,-2 8,-2 2,0 4,0 7,2 2,2 3,4 3,8l0 143 82 -148c1,-2 2,-3 4,-5 2,-1 4,-2 6,-2 2,0 4,1 6,3 2,2 3,5 3,9l0 182z"/>
   </g>
   <g id="_286471940352">
    <g>
     <path class="fil3 str1" d="M4384 2366c-55,-31 -132,-50 -217,-50 -87,0 -165,20 -220,52 -10,-41 -22,-82 -34,-122 -25,-87 -53,-172 -44,-264 5,-51 20,-119 55,-158 20,-22 51,-36 82,-41l0 0c2,-5 4,-9 7,-14 73,-123 267,-93 357,-8 56,52 87,128 95,204 9,92 -19,177 -45,264 -13,45 -26,91 -36,137z"/>
     <path class="fil4" d="M4616 2650c-19,-57 -42,-79 -101,-92l-170 -44c-31,-6 -54,-33 -56,-65l-25 -220 -103 0 -103 0 -25 220c-2,32 -25,59 -56,65l-170 44c-59,13 -82,35 -101,92l-18 215 473 0 473 0 -18 -215z"/>
     <path class="fil4 str1" d="M4141 1799c-48,5 -116,28 -145,73 -31,45 -46,115 -38,170l46 194c0,2 1,5 1,7l0 1c4,23 18,43 36,56l77 55c13,11 20,17 36,17l6 0 1 0 0 -574c-7,0 -13,0 -20,1z"/>
     <path class="fil4 str1" d="M4181 1799c48,5 115,28 145,73 31,45 46,115 38,170l-46 197 -1 1c-3,24 -17,46 -36,60l-77 55c-13,11 -20,17 -36,17l-6 0 -1 0 0 -574c7,0 13,0 20,1z"/>
     <path class="fil5" d="M4380 2042c3,0 7,1 9,3 2,2 2,4 3,6 4,11 6,24 3,36 -11,17 -25,34 -33,54 -3,5 -7,16 -15,17 -7,1 -10,-9 -10,-15 -3,-29 1,-59 6,-88 0,-2 0,-4 2,-6 1,-2 3,-3 6,-3 9,-3 19,-5 29,-4z"/>
     <path class="fil4" d="M4346 2158c-4,0 -6,-3 -8,-7 -1,-2 -1,-5 -1,-8 -1,-6 -1,-11 -1,-17 0,-24 3,-47 7,-71 0,-2 0,-4 2,-6 1,-2 3,-3 6,-3 7,-3 15,-4 23,-4 2,0 4,0 6,0 3,0 7,1 9,3 2,2 2,4 3,6 3,7 4,16 4,24 0,4 0,8 -1,12 -11,17 -25,34 -33,54 -3,5 -7,16 -15,17 0,0 0,0 -1,0z"/>
     <path class="fil4" d="M3941 2042c-3,0 -7,1 -9,3 -2,2 -2,4 -3,6 -4,11 -6,24 -3,36 11,17 25,34 33,54 3,5 7,16 15,17 7,1 10,-9 10,-15 3,-29 -1,-59 -6,-88 0,-2 0,-4 -2,-6 -1,-2 -3,-3 -6,-3 -9,-3 -19,-5 -29,-4z"/>
     <path class="fil6 str1" d="M4616 2650c-19,-57 -42,-79 -101,-92l-170 -44c-31,-6 -54,-33 -56,-65l-10 -74c-28,17 -70,27 -118,27 -48,0 -90,-10 -118,-27l-10 74c-2,32 -25,59 -56,65l-170 44c-59,13 -82,35 -101,92l-18 215 473 0 473 0 -18 -215z"/>
     <path class="fil7 str1" d="M4260 2519c-10,7 -20,13 -31,18 -20,10 -42,13 -63,13 -14,0 -28,-1 -40,-7 -10,-4 -18,-10 -28,-14 -19,-10 -41,-13 -62,-17 -11,-2 -23,-6 -28,-17 -6,-13 3,-28 7,-42 7,-23 1,-32 3,-56 1,-7 3,-14 3,-21 1,-4 3,-9 7,-10 7,-1 20,8 26,11 11,5 22,11 34,13 15,4 31,2 47,4 8,0 16,2 24,3 38,4 76,-8 110,-27 6,-3 10,-9 17,-9 3,-1 6,-1 8,1 9,5 7,29 7,38 1,30 0,44 11,72 3,6 6,14 2,20 -1,3 -4,5 -6,6 -11,8 -26,9 -38,16 -3,1 -7,3 -10,5z"/>
     <path class="fil8" d="M4345 2514c0,0 0,0 0,0 0,0 0,0 0,0z"/>
     <path class="fil8" d="M4345 2514c0,0 0,0 0,0 0,0 0,0 0,0z"/>
     <path class="fil8" d="M4345 2514c0,0 0,0 0,0 0,0 0,0 0,0z"/>
     <path class="fil8" d="M4345 2514c-13,-3 -25,-9 -34,-18 0,0 0,0 0,0 9,9 21,15 34,18z"/>
     <path class="fil8" d="M4316 2486c0,-5 -2,-10 -4,-14 -11,-28 -10,-42 -11,-72 0,-1 0,-1 0,-2 0,1 0,1 0,2 1,30 0,44 11,72 2,4 4,9 4,14zm-37 -123l-4 -36 4 36z"/>
     <path class="fil9" d="M4275 2327l0 0 -2 -21 2 21zm-226 -17l0 0 0 -4 0 4z"/>
     <path class="fil4 str1" d="M4174 2398c-5,0 -10,0 -15,-1 -8,-1 -16,-3 -24,-3 -10,-1 -83,-23 -93,-24l7 -60 0 -4 69 49c13,11 20,17 36,17 0,0 0,0 0,0l6 0 1 0 1 0 6 0c16,0 23,-6 36,-17l69 -49 2 21 4 36c-3,2 -6,5 -10,7 -30,16 -62,28 -95,28z"/>
     <path class="fil10" d="M4154 2372c-16,0 -23,-6 -36,-17 13,11 20,17 36,17z"/>
     <path class="fil8" d="M4301 2390c0,-9 0,-20 -4,-26 4,6 4,17 4,26zm-7 -28c0,0 0,0 0,0 0,0 0,0 0,0zm0 0c0,0 0,0 0,0 0,0 0,0 0,0zm-8 -1c0,0 0,0 0,0 0,0 0,0 0,0zm0 0c0,0 0,0 0,0 0,0 0,0 0,0zm0 0c1,0 1,0 2,0 -1,0 -1,0 -2,0zm2 0c0,0 0,0 0,0l0 0c0,0 0,0 0,0z"/>
     <path class="fil3" d="M3942 1862c8,-11 15,-23 26,-31 11,-8 24,-13 37,-11 7,2 13,5 19,9 7,5 14,12 18,20 16,28 10,63 -4,92 -13,29 -34,53 -49,82 -27,49 -34,109 -20,163 -20,-8 -35,-24 -47,-42 -27,-42 -40,-93 -35,-142 5,-51 28,-98 55,-140z"/>
     <path class="fil3" d="M4194 1758c-55,-6 -112,13 -155,49 -5,4 -9,8 -13,14 -7,11 -7,26 -4,39 12,54 62,92 113,113 51,22 106,32 155,58 1,-16 -3,-33 -11,-46 24,24 39,58 41,92 8,-19 10,-33 11,-47 30,54 35,122 30,183 31,-26 53,-61 66,-99 14,-38 19,-78 21,-119 0,-10 1,-20 -2,-30 -1,-9 -5,-16 -8,-24 -20,-45 -41,-91 -80,-121 -23,-17 -51,-28 -79,-38 -28,-10 -56,-20 -85,-24z"/>
     <path class="fil4" d="M4148 2358c-1,0 -19,-88 -20,-89 -2,-3 0,-43 -3,-45 -2,-2 0,-47 -2,-49l1 -148 5 -44c24,-16 55,15 60,19l-2 66 1 88c-1,5 -2,13 -3,18 24,67 15,219 -37,184z"/>
     <g>
      <path class="fil11" d="M4080 2103c-6,0 -12,5 -12,11 0,7 6,12 12,12 7,0 12,-5 12,-12 0,-6 -5,-11 -12,-11zm154 0c-6,0 -11,5 -11,11 0,7 5,12 11,12 7,0 12,-5 12,-12 0,-6 -5,-11 -12,-11z"/>
      <path id="1" class="fil12" d="M4080 2114l-23 0 0 0 0 -1 0 -1 0 -1 0 -1 0 -1 1 -1 0 -1 0 -1 1 -1 0 -1 1 -1 0 -1 1 -1 1 0 0 -1 1 -1 1 -1 1 0 1 -1 1 -1 1 0 1 -1 1 0 1 -1 1 0 1 -1 1 0 1 0 1 -1 2 0 1 0 1 0 0 21 0 0 0 0 0 0 0 0 1 0 0 0 0 0 0 0 0 0 0 0 0 0 0 0 0 0 0 0 0 0 0 0 0 0 0 0 0 0 0 0 0 0 -1 0 0 0 0 0 0 0 0 1 0 0 0 0 0 0 0 0 0 0 0 0 0 0zm0 0c0,6 -5,11 -12,11 -6,0 -11,-5 -11,-11l23 0zm0 2l0 20 0 0 -1 0 -1 0 -2 0 -1 0 -1 0 -1 -1 -1 0 -1 0 -1 -1 -1 0 -1 -1 -1 -1 -1 0 -1 -1 -1 -1 -1 0 -1 -1 0 -1 -1 -1 -1 -1 0 -1 -1 -1 0 -1 -1 0 0 -1 0 -1 -1 -1 0 -2 0 -1 0 -1 0 -1 0 -1 23 0 0 0 0 1 0 0 0 0 0 0 0 0 0 0 0 0 0 0 0 0 1 0 0 0 0 1 0 0 0 0 0 0 0 0 0 0 0 0 0 0 0 0 0 0 0 0 0 0 0 0 0 0 0 0 -1 0 0 0 0 0 0 0 0 0 0 0zm0 0c7,0 12,4 12,10 0,6 -5,10 -12,10l0 -20zm0 -2l24 0 0 0 0 1 0 1 -1 1 0 1 0 2 0 1 -1 1 0 1 0 0 -1 1 0 1 -1 1 -1 1 0 1 -1 1 -1 1 0 0 -1 1 -1 1 -1 0 -1 1 -1 1 -1 0 -1 1 -1 0 -1 0 -2 1 -1 0 -1 0 -1 0 -2 0 -1 0 0 -20 0 0 0 0 0 0 0 0 0 0 0 0 0 0 0 0 0 0 0 0 0 0 0 0 0 0 0 0 0 0 0 0 0 0 0 0 0 0 0 -1 0 0 0 0 0 0 0 0 0 0 0 0 0 0 0 0 0 0 0 0 0 -1 0 0 0 0zm0 0c0,-5 5,-10 12,-10 6,0 12,5 12,10l-24 0zm0 -1l0 -21 0 0 1 0 2 0 1 0 1 1 1 0 2 0 1 1 1 0 1 1 1 0 1 1 1 0 1 1 1 1 1 0 0 1 1 1 1 1 0 0 1 1 1 1 0 1 1 1 0 1 0 1 1 1 0 1 0 1 0 1 1 1 0 1 0 1 -24 0 0 0 0 0 0 0 0 0 0 0 0 0 0 -1 0 0 0 0 0 0 0 0 0 0 0 0 0 0 0 0 0 0 0 0 0 0 0 0 0 0 0 0 0 0 0 0 0 0 0 0 0 0 0 0 0 0 0 0 0 0 0 0 0 0 0 0zm0 0c-6,0 -11,-5 -11,-10 0,-6 5,-11 11,-11l0 21zm154 1l-23 0 0 0 0 -1 0 -1 0 -1 0 -1 1 -1 0 -1 0 -1 1 -1 0 -1 1 -1 0 -1 1 -1 0 -1 1 0 1 -1 0 -1 1 -1 1 0 1 -1 1 -1 1 0 1 -1 1 0 1 -1 1 0 1 -1 1 0 1 0 2 -1 1 0 1 0 1 0 0 21 0 0 1 0 0 0 0 0 0 0 0 0 0 0 0 0 0 0 0 0 0 0 0 0 0 0 0 0 0 0 0 0 0 0 0 0 0 0 0 0 0 0 0 0 0 0 0 0 0 0 0 1 0 0 -1 0 0 0 0 0 0 0 0 0 0 0zm0 0c0,6 -5,11 -11,11 -7,0 -12,-5 -12,-11l23 0zm0 2l0 20 0 0 -1 0 -1 0 -1 0 -2 0 -1 0 -1 -1 -1 0 -1 0 -1 -1 -1 0 -1 -1 -1 -1 -1 0 -1 -1 -1 -1 -1 0 0 -1 -1 -1 -1 -1 0 -1 -1 -1 0 -1 -1 -1 0 0 -1 -1 0 -1 0 -1 -1 -2 0 -1 0 -1 0 -1 0 -1 23 0 0 0 0 1 0 0 1 0 0 0 0 0 0 0 0 0 0 0 0 0 0 0 0 0 0 1 0 0 0 0 0 0 0 0 0 0 0 0 0 0 0 0 0 0 0 0 0 0 0 0 0 0 0 0 0 0 0 0 0 0 -1 0 0 0 0 0zm0 0c7,0 12,4 12,10 0,6 -5,10 -12,10l0 -20zm0 -2l24 0 0 0 0 1 0 1 0 1 -1 1 0 2 0 1 0 1 -1 1 0 0 -1 1 0 1 -1 1 0 1 -1 1 -1 1 0 1 -1 0 -1 1 -1 1 -1 0 -1 1 -1 1 -1 0 -1 1 -1 0 -1 0 -1 1 -2 0 -1 0 -1 0 -1 0 -2 0 0 -20 0 0 0 0 0 0 0 0 0 0 0 0 0 0 0 0 0 0 0 0 0 0 0 0 0 0 0 0 0 0 0 0 0 0 0 0 0 0 0 -1 0 0 0 0 0 0 0 0 0 0 0 0 0 0 0 0 0 0 0 0 0 -1 0 0 0 0zm0 0c0,-5 6,-10 12,-10 7,0 12,5 12,10l-24 0zm0 -1l0 -21 0 0 2 0 1 0 1 0 1 1 2 0 1 0 1 1 1 0 1 1 1 0 1 1 1 0 1 1 1 1 1 0 1 1 0 1 1 1 1 0 0 1 1 1 0 1 1 1 0 1 1 1 0 1 0 1 0 1 1 1 0 1 0 1 0 1 -24 0 0 0 0 0 0 0 0 0 0 0 0 0 0 -1 0 0 0 0 0 0 0 0 0 0 0 0 0 0 0 0 0 0 0 0 0 0 0 0 0 0 0 0 0 0 0 0 0 0 0 0 0 0 0 0 0 0 0 0 0 0 0 0 0 0 0 0zm0 0c-6,0 -11,-5 -11,-10 0,-6 5,-11 11,-11l0 21z"/>
     </g>
    </g>
    <g id="_286471953728">
     <path class="fil13 str1" d="M6126 2710c-19,23 -15,58 -3,86 11,28 42,45 46,75 -19,-24 -56,-34 -84,-45 -17,-7 -35,-11 -51,-20 -31,-17 -51,-59 -34,-91 5,-11 14,-20 18,-31 24,-61 -74,-88 -107,-116 -59,-48 -69,-145 -29,-211 21,-33 52,-60 69,-96 29,-61 6,-113 -9,-172 -20,-77 -10,-160 22,-231 25,-57 80,-117 147,-103 5,1 10,2 15,4 19,8 34,25 42,45 16,39 5,95 -16,131 -18,32 -54,51 -71,85 -22,45 -3,92 24,128 27,34 52,79 36,119 -15,35 -56,49 -82,76 -43,44 -41,125 4,166 33,30 85,40 108,79 17,30 11,73 -14,96 -10,9 -23,16 -31,26z"/>
     <path class="fil14" d="M6293 2252l179 0 0 282 -179 0 0 -282z"/>
     <path class="fil4 str1" d="M6691 2657c-19,-57 -42,-80 -101,-92l-170 -44c-31,-7 -54,-34 -56,-66l-24 -220 -104 0 -103 0 -24 220c-2,32 -25,59 -57,66l-170 44c-59,12 -82,35 -100,92l-19 214 473 0 474 0 -19 -214z"/>
     <path class="fil4" d="M6256 1805c49,5 116,28 146,73 30,45 45,115 38,170l-47 198 0 0c-4,24 -17,46 -37,60l-77 56c-12,10 -20,16 -36,16l-6 0 -1 0 0 -574c7,0 14,1 20,1z"/>
     <path class="fil5" d="M6455 2048c3,0 7,1 9,3 2,2 3,4 3,6 5,11 6,24 4,36 -12,18 -26,35 -34,54 -2,6 -7,17 -14,17 -8,1 -11,-9 -11,-15 -3,-29 2,-58 6,-88 0,-2 1,-4 2,-6 1,-2 4,-3 6,-3 9,-3 19,-5 29,-4z"/>
     <path class="fil15" d="M6422 2164c-4,0 -7,-3 -8,-6l26 -109c3,-1 6,-1 10,-1 1,0 3,0 5,0 3,0 7,1 9,3 2,2 3,4 3,6 3,7 5,16 5,24 0,4 -1,8 -1,12 -12,18 -26,35 -34,54 -2,6 -7,17 -14,17 -1,0 -1,0 -1,0z"/>
     <path class="fil16 str1" d="M6565 2794c0,-90 32,-169 67,-216 -11,-6 -25,-10 -42,-13l-26 -10c-73,69 -193,114 -328,114 -135,0 -254,-45 -327,-114l-27 10c-17,3 -30,7 -42,13 36,47 67,126 67,216 0,27 -2,53 -5,77l334 0 335 0c-4,-24 -6,-50 -6,-77z"/>
     <path class="fil8" d="M6691 2657c0,0 0,-1 0,-1 0,0 0,1 0,1zm0 -1c0,0 0,0 0,0 0,0 0,0 0,0zm0 0c0,0 0,0 0,0 0,0 0,0 0,0z"/>
     <path class="fil8" d="M6562 2557l-1 0c1,-1 2,-2 3,-2 0,0 0,0 0,0 -1,1 -2,1 -2,2z"/>
     <path class="fil17" d="M6420 2521c0,0 0,0 0,0 0,0 0,0 0,0zm0 -1c0,0 0,0 0,0 0,0 0,0 0,0zm0 0c0,0 0,0 0,0 0,0 0,0 0,0zm0 0c0,0 0,0 0,0 0,0 0,0 0,0zm0 0c0,0 0,0 0,0 0,0 0,0 0,0zm-1 0c0,0 0,0 0,0 0,0 0,0 0,0zm0 0c0,0 0,0 0,0 0,0 0,0 0,0zm0 0c0,0 0,0 0,0 0,0 0,0 0,0zm0 0c0,0 0,0 0,0 0,0 0,0 0,0zm0 0c0,0 0,0 0,0 0,0 0,0 0,0zm0 0c-1,0 -1,0 -1,0 0,0 0,0 1,0zm-1 0c0,0 0,0 0,0 0,0 0,0 0,0zm0 0c0,0 0,0 0,0 0,0 0,0 0,0zm0 0c0,0 0,0 0,0 0,0 0,0 0,0zm0 0c0,0 0,0 0,0 0,0 0,0 0,0zm0 0c-25,-6 -44,-25 -51,-48l0 0c7,23 26,42 51,48z"/>
     <path class="fil8" d="M6591 2565c0,0 0,0 0,0 0,0 0,0 0,0 0,0 0,0 0,0z"/>
     <path class="fil10" d="M6591 2565c0,0 0,0 0,0 0,0 0,0 0,0 0,0 0,0 0,0z"/>
     <path class="fil8" d="M6591 2565c0,0 0,0 0,0l0 0c0,0 0,0 0,0zm0 0c0,0 0,0 -1,0 1,0 1,0 1,0z"/>
     <path class="fil10" d="M6591 2565c0,0 0,0 -1,0l0 0c1,0 1,0 1,0 0,0 0,0 0,0l0 0z"/>
     <path class="fil17" d="M6371 2472l0 0c0,0 0,0 0,0zm-12 -60l0 -1c2,0 3,0 3,0 0,0 0,0 0,0l-3 1z"/>
     <path class="fil4" d="M6216 1805c-48,5 -115,28 -145,73 -31,45 -45,115 -38,170l46 194c0,2 1,5 1,7l0 1c5,23 18,43 37,56l76 56c13,10 21,16 37,16l5 0 1 0 0 -574c-6,0 -13,1 -20,1z"/>
     <path class="fil18" d="M6414 2158l0 0c-1,-3 -2,-6 -2,-9 -1,-5 -1,-11 -1,-17 0,-24 4,-47 7,-71 0,-2 1,-4 2,-6 1,-2 4,-3 6,-3 4,-2 9,-3 14,-3l-26 109z"/>
     <path class="fil19" d="M6243 2378l-6 0 -1 0 1 0 6 0c16,0 24,-6 36,-16l0 0 69 -50 -69 50c-12,10 -20,16 -36,16z"/>
     <path class="fil13 str1" d="M6346 2710c19,23 14,58 3,86 -12,28 -42,45 -46,75 18,-24 56,-34 84,-45 17,-7 35,-11 51,-20 31,-17 50,-59 34,-91 -6,-11 -14,-20 -19,-31 -24,-61 75,-88 108,-116 58,-48 69,-145 29,-211 -21,-33 -52,-60 -69,-96 -29,-61 -7,-113 9,-172 23,-91 5,-190 -42,-269 -22,-38 -52,-72 -88,-95 -82,-51 -231,-45 -266,65 -14,43 1,94 35,122 38,30 89,31 136,39 48,8 100,33 109,82 8,42 -22,81 -48,115 -26,34 -51,79 -35,119 15,35 55,49 82,76 43,44 41,125 -4,166 -34,30 -85,40 -108,79 -18,30 -11,73 14,96 10,9 22,16 31,26z"/>
     <path class="fil13 str1" d="M6117 2306c-19,-13 -32,-33 -37,-56l0 -1c0,-2 -1,-5 -1,-7 -3,-10 -5,-20 -7,-30 -7,-13 -13,-26 -17,-41 -21,-82 -11,-179 50,-242 13,-13 27,-24 37,-38 15,-21 23,-132 -16,-132 -18,0 -19,-14 -35,-6 -36,-7 -118,55 -127,105 -46,16 -38,289 0,331 -1,15 -13,65 -13,72 0,32 -83,93 -83,125 -74,256 75,124 158,141l26 -6c32,-7 55,-34 57,-66l15 -143 -7 -6z"/>
     <g>
      <path class="fil11" d="M6141 2050c-7,0 -12,5 -12,12 0,6 5,12 12,12 6,0 11,-6 11,-12 0,-7 -5,-12 -11,-12zm154 0c-7,0 -12,5 -12,12 0,6 5,12 12,12 6,0 12,-6 12,-12 0,-7 -6,-12 -12,-12z"/>
      <path id="1" class="fil12" d="M6141 2062l-24 0 0 0 0 -1 0 -1 0 -1 1 -1 0 -1 0 -1 0 -1 1 -1 0 -1 1 -1 0 -1 1 -1 0 -1 1 -1 1 -1 1 0 0 -1 1 -1 1 -1 1 0 1 -1 1 0 1 -1 1 0 1 -1 1 0 1 -1 2 0 1 0 1 0 1 0 2 0 0 21 0 0 0 0 0 0 0 0 0 0 0 -1 0 0 0 0 0 0 0 0 0 0 0 0 0 0 0 0 0 0 0 0 0 1 0 0 0 0 0 0 0 0 0 0 0 0 0 0 0 0 0 0 0 0 0 0 0 0 0 1 0 0 0 0 0 0zm0 0c0,6 -6,10 -12,10 -7,0 -12,-4 -12,-10l24 0zm0 1l0 21 0 0 -2 0 -1 0 -1 0 -1 0 -2 -1 -1 0 -1 0 -1 -1 -1 0 -1 -1 -1 0 -1 -1 -1 -1 -1 0 -1 -1 0 -1 -1 -1 -1 0 -1 -1 0 -1 -1 -1 0 -1 -1 -1 0 -1 -1 -1 0 -1 0 -1 0 -1 -1 -1 0 -1 0 -1 0 -1 24 0 0 0 0 0 0 0 0 0 0 0 0 1 0 0 0 0 0 0 0 0 0 0 0 0 0 0 0 0 0 0 0 0 0 0 0 0 0 0 0 0 0 0 0 0 0 0 0 0 0 0 0 0 0 0 0 0 0 0 0 0 0 0 0 0 0 0zm0 0c6,0 11,5 11,11 0,5 -5,10 -11,10l0 -21zm0 -1l23 0 0 0 0 1 0 1 0 1 0 1 -1 1 0 1 0 1 -1 1 0 1 -1 1 0 1 -1 1 0 1 -1 1 -1 0 0 1 -1 1 -1 1 -1 0 -1 1 -1 1 -1 0 -1 1 -1 0 -1 1 -1 0 -1 0 -1 1 -2 0 -1 0 -1 0 -1 0 0 -21 0 0 -1 0 0 0 0 0 0 0 0 0 0 0 0 0 0 0 0 0 0 0 0 0 0 0 0 0 0 0 0 0 0 0 0 0 0 0 0 0 0 0 0 0 0 0 0 0 0 0 0 0 1 -1 0 0 0 0 0 0 0 0 0 0 0 0zm0 0c0,-6 5,-11 11,-11 7,0 12,5 12,11l-23 0zm0 -1l0 -21 0 0 1 0 1 0 1 0 2 0 1 0 1 1 1 0 1 1 1 0 1 1 1 0 1 1 1 0 1 1 1 1 1 1 0 0 1 1 1 1 0 1 1 1 0 1 1 1 0 1 1 1 0 1 0 1 1 1 0 1 0 1 0 1 0 1 -23 0 0 0 0 0 0 -1 0 0 0 0 -1 0 0 0 0 0 0 0 0 0 0 0 0 0 0 0 0 0 0 0 0 -1 0 0 0 0 0 0 0 0 0 0 0 0 0 0 0 0 0 0 0 1 0 0 0 0 0 0 0 0 1 0 0 0 0 0zm0 0c-7,0 -12,-5 -12,-11 0,-6 5,-10 12,-10l0 21zm154 1l-24 0 0 0 0 -1 0 -1 1 -1 0 -1 0 -1 0 -1 1 -1 0 -1 0 -1 1 -1 0 -1 1 -1 1 -1 0 -1 1 -1 1 0 0 -1 1 -1 1 -1 1 0 1 -1 1 0 1 -1 1 0 1 -1 1 0 2 -1 1 0 1 0 1 0 2 0 1 0 0 21 0 0 0 0 0 0 0 0 0 0 0 -1 0 0 0 0 0 0 0 0 0 0 0 0 0 0 0 0 0 0 0 0 0 1 0 0 0 0 0 0 0 0 0 0 0 0 0 0 0 0 0 0 0 0 0 0 0 0 0 1 0 0 0 0 0 0zm0 0c0,6 -5,10 -12,10 -6,0 -12,-4 -12,-10l24 0zm0 1l0 21 0 0 -1 0 -2 0 -1 0 -1 0 -1 -1 -2 0 -1 0 -1 -1 -1 0 -1 -1 -1 0 -1 -1 -1 -1 -1 0 -1 -1 0 -1 -1 -1 -1 0 0 -1 -1 -1 -1 -1 0 -1 -1 -1 0 -1 0 -1 -1 -1 0 -1 0 -1 0 -1 -1 -1 0 -1 0 -1 24 0 0 0 0 0 0 0 0 0 0 0 0 1 0 0 0 0 0 0 0 0 0 0 0 0 0 0 0 0 0 0 0 0 0 0 0 0 0 0 0 0 0 0 0 0 0 0 0 0 0 0 0 0 0 0 0 0 0 0 0 0 0 0 0 0 0 0zm0 0c6,0 12,5 12,11 0,5 -6,10 -12,10l0 -21zm0 -1l23 0 0 0 0 1 0 1 0 1 0 1 0 1 -1 1 0 1 0 1 -1 1 0 1 -1 1 0 1 -1 1 -1 1 0 0 -1 1 -1 1 -1 1 -1 0 -1 1 -1 1 0 0 -2 1 -1 0 -1 1 -1 0 -1 0 -1 1 -1 0 -2 0 -1 0 -1 0 0 -21 0 0 0 0 0 0 0 0 -1 0 0 0 0 0 0 0 0 0 0 0 0 0 0 0 0 0 0 0 0 0 0 0 0 0 0 0 0 0 0 0 0 0 1 0 0 0 0 0 0 0 0 0 0 -1 0 0 0 0 0 0 0 0 0 0 0 0zm0 0c0,-6 5,-11 12,-11 6,0 11,5 11,11l-23 0zm0 -1l0 -21 0 0 1 0 1 0 2 0 1 0 1 0 1 1 1 0 1 1 1 0 2 1 0 0 1 1 1 0 1 1 1 1 1 1 1 0 0 1 1 1 1 1 0 1 1 1 0 1 1 1 0 1 0 1 1 1 0 1 0 1 0 1 0 1 0 1 -23 0 0 0 0 0 0 -1 0 0 0 0 0 0 0 0 0 0 0 0 0 0 -1 0 0 0 0 0 0 0 0 0 0 -1 0 0 0 0 0 0 0 0 0 0 0 0 0 0 0 0 0 0 0 1 0 0 1 0 0 0 0 0 0 0 0 0 0 0zm0 0c-7,0 -12,-5 -12,-11 0,-6 5,-10 12,-10l0 21z"/>
     </g>
     <path class="fil20 str1" d="M6107 2302l1 -4 69 50c12,10 20,16 36,16 0,0 0,0 0,0l6 0 1 0 1 0 5 0c17,0 24,-6 37,-16l69 -50"/>
    </g>
    <g>
     <path class="fil4 str1" d="M5682 2603c-28,-101 -163,-102 -240,-121 -10,-2 -19,-5 -28,-8 -9,-2 -18,-5 -26,-10 -32,-22 -33,-78 -37,-112 -5,-36 -8,-72 -8,-108 0,-13 0,-26 1,-39 -33,13 -53,38 -88,39 -3,0 -18,0 -32,0 -13,0 -25,0 -25,0 0,0 -13,0 -26,0 -14,0 -29,0 -31,0 -36,-1 -56,-26 -88,-39 0,13 1,26 0,39 0,36 -2,72 -7,108 -5,34 -6,90 -38,112 -8,5 -17,8 -26,10 -9,3 -18,6 -27,8 -77,19 -212,20 -241,121l-42 265 526 0 526 0 -43 -265z"/>
     <path class="fil5" d="M5435 1997c3,0 7,1 9,3 2,2 3,4 3,6 5,11 6,24 4,36 -12,18 -26,35 -34,54 -2,6 -7,17 -14,17 -8,1 -11,-9 -11,-14 -2,-30 2,-59 6,-89 0,-2 1,-4 2,-6 2,-2 4,-3 6,-3 9,-3 19,-4 29,-4z"/>
     <path class="fil4 str1" d="M5402 2113c-7,0 -10,-9 -10,-14 -1,-6 -1,-12 -1,-18 0,-24 4,-47 7,-71 0,-2 1,-4 2,-6 2,-2 4,-3 6,-3 8,-3 16,-4 24,-4 2,0 3,0 5,0 3,0 7,1 9,3 2,2 3,4 3,6 3,7 5,16 5,24 0,4 -1,8 -1,12 -12,18 -26,35 -34,54 -2,6 -7,17 -14,17 -1,0 -1,0 -1,0z"/>
     <path class="fil4 str1" d="M5419 1951l-22 207c-2,17 -9,32 -19,46l-99 98c-1,2 -3,4 -5,5 -13,16 -32,25 -53,25l-22 0 0 -604c122,0 239,89 220,223z"/>
     <path class="fil4 str1" d="M4963 1997c-3,0 -7,1 -9,3 -2,2 -3,4 -3,6 -5,11 -6,24 -3,36 11,18 25,35 33,54 3,6 7,17 14,17 8,1 11,-9 11,-14 3,-30 -2,-59 -6,-89 0,-2 -1,-4 -2,-6 -1,-2 -4,-3 -6,-3 -9,-3 -19,-4 -29,-4z"/>
     <path class="fil4 str1" d="M4979 1951l21 207c3,17 9,32 20,46l98 98c2,2 3,4 5,5 13,16 33,25 53,25l23 0 0 -604c-122,0 -240,89 -220,223z"/>
     <path class="fil21" d="M5682 2603c-28,-101 -163,-102 -240,-121 -10,-2 -19,-5 -28,-8 -9,-2 -18,-5 -26,-10 -32,-22 -33,-78 -37,-112 -1,-4 -1,-7 -2,-10 -41,17 -94,26 -150,26 -57,0 -109,-9 -151,-26 0,3 -1,6 -1,10 -5,34 -6,90 -38,112 -8,5 -17,8 -26,10 -9,3 -18,6 -27,8 -77,19 -212,20 -241,121l-42 265 526 0 526 0 -43 -265z"/>
     <path class="fil22 str1" d="M5361 2341c8,5 4,19 4,26 1,13 2,26 5,39 0,3 1,7 2,10 6,13 17,29 12,44 -2,3 -4,6 -7,8 -17,13 -34,26 -54,33 -11,5 -24,8 -36,10 -34,7 -69,13 -104,10 -20,-2 -40,-8 -60,-13 -11,-3 -22,-6 -33,-10 -21,-6 -43,-13 -60,-28 -14,-14 -8,-31 -5,-49 1,-8 2,-17 3,-26 3,-18 4,-69 32,-66 6,1 12,3 18,6 46,21 98,32 150,29 21,-1 43,-5 64,-8 9,-2 18,-4 28,-6 9,-2 31,-13 41,-9z"/>
     <path class="fil23" d="M4757 2787l28 0 -14 25 -14 -25z"/>
     <path class="fil23" d="M4892 2787l28 0 -14 25 -14 -25z"/>
     <path class="fil3 str1" d="M4957 1771c11,-23 27,-45 49,-59 -11,-12 -25,-22 -40,-29 62,-18 129,-37 190,-15 -12,-13 -24,-25 -36,-37 41,0 82,-1 122,7 43,8 84,25 117,54 16,15 21,26 23,47 38,0 66,57 73,88 6,26 6,53 4,80 -3,-8 -5,-16 -8,-25 -3,50 -20,99 -50,140 5,-31 10,-61 15,-92 -3,5 -9,8 -14,10 3,-27 -3,-55 -18,-79 -13,-21 -72,-12 -102,-12 36,-65 -112,6 -127,18 1,-9 1,-19 2,-29 -50,18 -95,52 -126,95 -3,-7 -4,-15 -4,-23 -19,30 -30,65 -33,101 -13,-17 -26,-35 -35,-54 -9,-20 -13,-42 -7,-63 -7,0 -14,0 -21,0 3,-34 7,-68 17,-101 3,-7 6,-14 9,-22z"/>
     <path class="fil23" d="M5028 2787l28 0 -14 25 -14 -25z"/>
     <path class="fil23" d="M5164 2787l28 0 -14 25 -14 -25z"/>
     <path class="fil23" d="M5299 2787l28 0 -14 25 -14 -25z"/>
     <path class="fil23" d="M5435 2787l28 0 -14 25 -14 -25z"/>
     <path class="fil23" d="M5570 2787l28 0 -14 25 -14 -25z"/>
     <path class="fil23" d="M4720 2732l40 -49c5,-6 16,-6 21,0l40 49c4,5 10,8 17,8 7,0 13,-3 17,-8l40 -49c2,-3 6,-5 10,-5 5,0 8,2 11,5l40 49c4,5 10,8 17,8 6,0 13,-3 17,-8l39 -49c6,-6 17,-6 22,0l39 49c4,5 11,8 17,8 7,0 13,-3 18,-8l39 -49c3,-3 7,-5 11,-5l0 0c4,0 8,2 11,5l39 49c4,5 11,8 17,8l0 0c7,0 13,-3 17,-8l40 -49c5,-6 16,-6 21,0l40 49c4,5 10,8 17,8l0 0c7,0 13,-3 17,-8l40 -49c5,-6 16,-6 21,0l39 49c5,5 11,8 18,8 6,0 13,-3 17,-8l39 -49c6,-6 17,-6 22,0l39 49c5,5 11,8 17,8l0 0c7,0 13,-3 18,-8l32 -40c0,-4 -1,-8 -1,-11l-38 46c-2,3 -6,5 -11,5l0 0c-4,0 -8,-2 -10,-5l-40 -49c-4,-5 -10,-8 -17,-8 -7,0 -13,3 -17,8l-40 49c-5,6 -16,6 -21,0l-39 -49c-5,-5 -11,-8 -18,-8l0 0c-6,0 -13,3 -17,8l-39 49c-3,3 -7,5 -11,5l0 0c-4,0 -8,-2 -11,-5l-39 -49c-4,-5 -11,-8 -17,-8 -7,0 -13,3 -18,8l-39 49c-5,6 -16,6 -22,0l-39 -49c-4,-5 -10,-8 -17,-8l0 0c-7,0 -13,3 -17,8l-40 49c-5,6 -16,6 -21,0l-40 -49c-4,-5 -10,-8 -17,-8 -7,0 -13,3 -17,8l-40 49c-5,6 -16,6 -21,0l-39 -49c-5,-5 -11,-8 -18,-8l0 0c-6,0 -13,3 -17,8l-39 49c-6,6 -17,6 -22,0l-39 -49c-4,-5 -11,-8 -17,-8 -7,0 -13,3 -18,8l-39 49c-5,5 -13,6 -19,2 0,3 -1,6 -1,9 3,1 6,2 9,2 7,0 13,-3 17,-8z"/>
     <path class="fil23" d="M4720 2762l40 -48c5,-7 16,-7 21,0l40 48c4,5 10,8 17,8l0 0c7,0 13,-3 17,-8l40 -48c5,-7 16,-7 21,0l40 48c4,5 10,8 17,8 6,0 13,-3 17,-8l39 -48c3,-4 7,-5 11,-5l0 0c4,0 8,1 11,5l39 48c4,5 11,8 17,8 7,0 13,-3 18,-8l39 -48c5,-7 16,-7 22,0l39 48c4,5 11,8 17,8 7,0 13,-3 17,-8l40 -48c5,-7 16,-7 21,0l40 48c4,5 10,8 17,8l0 0c7,0 13,-3 17,-8l40 -48c2,-4 6,-5 10,-5l0 0c5,0 8,1 11,5l39 48c5,5 11,8 18,8l0 0c6,0 13,-3 17,-8l39 -48c3,-4 7,-5 11,-5 4,0 8,1 11,5l39 48c5,5 11,8 17,8l0 0c7,0 13,-3 18,-8l36 -45c0,-4 -1,-7 -1,-11 -1,1 -2,2 -2,3l-40 48c-5,6 -16,6 -21,0l-40 -48c-4,-6 -10,-9 -17,-9l0 0c-7,0 -13,3 -17,9l-40 48c-2,3 -6,5 -10,5l0 0c-5,0 -8,-2 -11,-5l-39 -48c-5,-6 -11,-9 -18,-9l0 0c-6,0 -13,3 -17,9l-39 48c-3,3 -7,5 -11,5l0 0c-4,0 -8,-2 -11,-5l-39 -48c-4,-6 -11,-9 -17,-9 -7,0 -13,3 -18,9l-39 48c-5,6 -16,6 -22,0l-39 -48c-4,-6 -10,-9 -17,-9 -7,0 -13,3 -17,9l-40 48c-5,6 -16,6 -21,0l-40 -48c-4,-6 -10,-9 -17,-9l0 0c-7,0 -13,3 -17,9l-40 48c-5,6 -16,6 -21,0l-39 -48c-5,-6 -11,-9 -18,-9 -6,0 -13,3 -17,9l-39 48c-3,3 -7,5 -11,5l0 0c-4,0 -8,-2 -11,-5l-39 -48c-4,-6 -11,-9 -17,-9 -7,0 -13,3 -18,9l-39 48c-5,6 -16,6 -22,0l-1 -2c-1,3 -1,7 -2,10 4,4 9,5 14,5 7,0 13,-3 17,-8z"/>
     <path class="fil24" d="M5449 2812l-14 -25 28 0 -14 25z"/>
     <path class="fil24" d="M5584 2812l-14 -25 28 0 -14 25z"/>
     <path class="fil24" d="M5388 2464c-1,-1 -3,-3 -4,-4 0,0 0,0 0,0 0,0 0,0 0,0 1,1 3,3 4,4zm-16 -48c0,0 0,0 0,0 0,0 0,0 0,0zm0 -1c-1,-3 -2,-6 -2,-9 -3,-13 -4,-26 -5,-39 0,0 0,-1 0,-1 0,0 0,1 0,1 1,13 2,26 5,39 0,3 1,6 2,9zm-6 -61c0,-3 -1,-6 -2,-9 1,3 2,6 2,9zm-17 -13c-4,-32 -6,-64 -6,-96 0,32 2,64 6,96 0,0 0,0 0,0zm-6 -96c0,0 0,0 0,0 0,0 0,0 0,0zm0 -1c0,-2 0,-4 0,-6l0 0c0,2 0,4 0,6z"/>
     <path class="fil25" d="M5199 2332l-23 0c-20,0 -39,-9 -52,-24 13,15 32,24 52,24l23 0zm-81 -30l-59 -59 59 59z"/>
     <path class="fil24" d="M5646 2740l0 0c-6,0 -12,-3 -17,-8l-39 -49c-3,-3 -7,-5 -11,-5 -4,0 -8,2 -11,5l-39 49c-4,5 -11,8 -17,8 -7,0 -13,-3 -18,-8l-39 -49c-3,-3 -7,-5 -11,-5 -4,0 -8,2 -10,5l-40 49c-4,5 -10,8 -17,8l0 0c-7,0 -13,-3 -17,-8l-40 -49c-2,-3 -6,-5 -10,-5 -4,0 -9,2 -11,5l-5 7 -5 -8 3 -4c5,-5 11,-8 18,-8 6,0 13,3 17,8l39 49c3,3 7,5 11,5l0 0c4,0 8,-2 11,-5l39 -49c4,-5 11,-8 17,-8l0 0c7,0 13,3 18,8l39 49c3,3 7,4 11,4 4,0 8,-1 10,-4l40 -49c4,-5 10,-8 17,-8 7,0 13,3 17,8l40 49c2,3 6,5 10,5l0 0c5,0 9,-2 11,-5l38 -46 1 11 -32 40c-5,5 -11,8 -18,8z"/>
     <path class="fil24" d="M5646 2770l0 0c-6,0 -12,-3 -17,-8l-39 -48c-3,-4 -7,-5 -11,-5 -4,0 -8,1 -11,5l-39 48c-4,5 -11,8 -17,8l0 0c-7,0 -13,-3 -18,-8l-39 -48c-3,-4 -6,-5 -11,-5l0 0c-4,0 -8,1 -10,5l-40 48c-4,5 -10,8 -17,8l0 0c-7,0 -13,-3 -17,-8l-40 -48c-2,-4 -6,-5 -10,-5 -2,0 -4,0 -6,1l-4 -8c3,-1 6,-2 10,-2 6,0 13,3 17,9l39 48c3,3 7,5 11,5l0 0c4,0 8,-2 11,-5l39 -48c4,-6 11,-9 17,-9l0 0c7,0 13,3 18,9l39 48c3,3 6,5 11,5l0 0c4,0 8,-2 10,-5l40 -48c4,-6 10,-9 17,-9l0 0c7,0 13,3 17,9l40 48c2,3 6,5 10,5 5,0 9,-2 11,-5l40 -48c0,-1 1,-2 2,-3l1 11 -36 45c-5,5 -11,8 -18,8z"/>
     <path class="fil20 str2" d="M5198 2320l0 -464"/>
     <path class="fil26" d="M5221 2332l-22 0 22 0c14,0 27,-4 38,-11 -11,7 -24,11 -38,11zm58 -30l64 -64c0,0 0,0 0,0l-64 64z"/>
     <g>
      <path class="fil11" d="M5120 1990c-7,0 -12,5 -12,12 0,6 5,11 12,11 6,0 11,-5 11,-11 0,-7 -5,-12 -11,-12zm154 0c-7,0 -12,5 -12,12 0,6 5,11 12,11 6,0 12,-5 12,-11 0,-7 -6,-12 -12,-12z"/>
      <path id="1" class="fil12" d="M5120 2002l-24 0 0 0 0 -2 0 -1 0 -1 1 -1 0 -1 0 -1 0 -1 1 -1 0 -1 1 -1 0 -1 1 0 0 -1 1 -1 1 -1 0 -1 1 0 1 -1 1 -1 1 -1 1 0 1 -1 1 0 1 -1 1 0 1 -1 1 0 2 0 1 0 1 0 1 -1 2 0 0 21 0 0 0 0 0 0 0 0 0 0 0 0 0 0 0 0 0 0 0 0 0 0 0 0 0 0 0 0 0 0 0 0 0 0 0 0 0 0 0 0 0 0 0 1 0 0 0 0 0 0 0 0 0 0 0 0 0 0 0 0 0 0 0 1 0 0zm0 0c0,5 -6,10 -12,10 -7,0 -12,-5 -12,-10l24 0zm0 1l0 21 0 0 -2 0 -1 0 -1 -1 -1 0 -2 0 -1 0 -1 -1 -1 0 -1 -1 -1 0 -1 -1 -1 0 -1 -1 -1 -1 -1 0 -1 -1 0 -1 -1 -1 -1 -1 0 -1 -1 0 0 -1 -1 -1 0 -1 -1 -1 0 -1 0 -1 0 -1 -1 -1 0 -1 0 -1 0 -1 24 0 0 0 0 0 0 0 0 0 0 0 0 0 0 0 0 0 0 1 0 0 0 0 0 0 0 0 0 0 0 0 0 0 0 0 0 0 0 0 0 0 0 0 0 0 0 0 0 0 0 0 0 0 0 0 0 0 0 0 0 0 0 0 0 0 0 0zm0 0c6,0 11,5 11,10 0,6 -5,11 -11,11l0 -21zm0 -1l23 0 0 0 0 1 0 1 0 1 0 1 -1 1 0 1 0 1 -1 1 0 1 -1 1 0 1 -1 0 0 1 -1 1 -1 1 0 1 -1 1 -1 0 -1 1 -1 1 -1 0 -1 1 -1 0 -1 1 -1 0 -1 1 -1 0 -1 0 -2 0 -1 1 -1 0 -1 0 0 -21 0 0 -1 0 0 0 0 0 0 0 0 0 0 0 0 0 0 0 0 0 0 0 0 0 0 0 0 0 0 0 0 0 0 0 0 0 0 0 0 0 0 0 0 0 0 0 0 -1 0 0 0 0 0 0 1 0 0 0 0 0 0 0 0 0 0 0zm0 0c0,-6 5,-11 11,-11 7,0 12,5 12,11l-23 0zm0 -2l0 -21 0 0 1 0 1 1 1 0 2 0 1 0 1 0 1 1 1 0 1 1 1 0 1 1 1 0 1 1 1 1 1 1 1 0 0 1 1 1 1 1 0 1 1 0 0 1 1 1 0 1 1 1 0 1 0 1 1 1 0 1 0 1 0 1 0 2 -23 0 0 -1 0 0 0 0 0 0 -1 0 0 0 0 0 0 0 0 0 0 0 0 -1 0 0 0 0 0 0 0 0 0 0 0 0 0 0 0 0 0 0 0 0 0 0 0 0 0 0 0 0 0 0 0 0 0 0 0 0 0 0 1 0 0 0 0 0zm0 0c-7,0 -12,-4 -12,-10 0,-6 5,-11 12,-11l0 21zm154 2l-24 0 0 0 0 -2 0 -1 1 -1 0 -1 0 -1 0 -1 1 -1 0 -1 0 -1 1 -1 0 -1 1 0 1 -1 0 -1 1 -1 1 -1 0 0 1 -1 1 -1 1 -1 1 0 1 -1 1 0 1 -1 1 0 1 -1 2 0 1 0 1 0 1 0 2 -1 1 0 0 21 0 0 0 0 0 0 0 0 0 0 0 0 0 0 0 0 0 0 0 0 0 0 0 0 0 0 0 0 0 0 0 0 0 0 0 0 0 0 0 0 0 0 0 1 0 0 0 0 0 0 0 0 0 0 0 0 0 0 0 0 0 0 0 1 0 0zm0 0c0,5 -5,10 -12,10 -6,0 -12,-5 -12,-10l24 0zm0 1l0 21 0 0 -1 0 -2 0 -1 -1 -1 0 -1 0 -2 0 -1 -1 -1 0 -1 -1 -1 0 -1 -1 -1 0 -1 -1 -1 -1 -1 0 0 -1 -1 -1 -1 -1 0 -1 -1 -1 -1 0 0 -1 -1 -1 0 -1 0 -1 -1 -1 0 -1 0 -1 0 -1 -1 -1 0 -1 0 -1 24 0 0 0 0 0 0 0 0 0 0 0 0 0 0 0 0 0 0 1 0 0 0 0 0 0 0 0 0 0 0 0 0 0 0 0 0 0 0 0 0 0 0 0 0 0 0 0 0 0 0 0 0 0 0 0 0 0 0 0 0 0 0 0 0 0 0 0zm0 0c6,0 12,5 12,10 0,6 -6,11 -12,11l0 -21zm0 -1l23 0 0 0 0 1 0 1 0 1 0 1 0 1 -1 1 0 1 0 1 -1 1 0 1 -1 1 0 0 -1 1 -1 1 0 1 -1 1 -1 1 -1 0 -1 1 -1 1 -1 0 -1 1 -1 0 -1 1 -1 0 -1 1 -1 0 -1 0 -1 0 -2 1 -1 0 -1 0 0 -21 0 0 0 0 0 0 0 0 -1 0 0 0 0 0 0 0 0 0 0 0 0 0 0 0 0 0 0 0 0 0 0 0 0 0 0 0 0 0 0 0 0 0 1 0 0 0 0 -1 0 0 0 0 0 0 0 0 0 0 0 0 0 0 0 0 0 0zm0 0c0,-6 5,-11 12,-11 6,0 11,5 11,11l-23 0zm0 -2l0 -21 0 0 1 0 1 1 2 0 1 0 1 0 1 0 1 1 1 0 1 1 1 0 1 1 1 0 1 1 1 1 1 1 1 0 1 1 0 1 1 1 1 1 0 0 1 1 0 1 1 1 0 1 0 1 1 1 0 1 0 1 0 1 0 1 0 2 -23 0 0 -1 0 0 0 0 0 0 0 0 0 0 0 0 0 0 0 0 0 0 -1 -1 0 0 0 0 0 0 0 0 0 0 0 0 0 0 0 0 0 0 0 0 0 0 0 0 0 0 0 0 0 0 0 0 1 0 0 0 0 0 0 0 0 0 0 0zm0 0c-7,0 -12,-4 -12,-10 0,-6 5,-11 12,-11l0 21z"/>
     </g>
    </g>
    <g>
     <path class="fil4 str1" d="M7752 2604c-29,-101 -164,-101 -241,-121 -9,-2 -18,-5 -27,-7 -9,-3 -19,-6 -26,-11 -32,-22 -33,-78 -38,-112 -5,-36 -7,-72 -8,-108 0,-13 1,-26 1,-38 -32,12 -52,37 -88,38 -2,0 -17,0 -31,0 -14,0 -26,0 -26,0 0,0 -12,0 -25,0 -14,0 -29,0 -32,0 -35,-1 -55,-26 -88,-38 1,12 1,25 1,38 0,36 -3,72 -8,108 -4,34 -5,90 -37,112 -8,5 -17,8 -26,11 -9,2 -19,5 -28,7 -77,20 -212,20 -240,121l-43 265 526 0 526 0 -42 -265z"/>
     <path class="fil23" d="M7752 2604c-29,-101 -164,-101 -241,-121 -9,-2 -18,-5 -27,-7 -4,-2 -8,-3 -12,-4 -51,44 -123,72 -204,72 -80,0 -152,-28 -204,-72 -3,1 -7,2 -11,4 -9,2 -19,5 -28,7 -77,20 -212,20 -240,121l-43 265 526 0 526 0 -42 -265z"/>
     <path class="fil23 str1" d="M7429 2394l88 108 -165 152 -60 -152 137 -108z"/>
     <path class="fil23 str1" d="M7108 2394l-88 108 164 152 60 -152 -136 -108z"/>
     <path class="fil27 str1" d="M7529 2472l128 43c0,0 95,18 103,139l34 215 -277 0 12 -397z"/>
     <path class="fil28 str1" d="M7441 2410l9 -7 79 60 0 406 -159 0 71 -459z"/>
     <path class="fil27 str1" d="M7008 2472l-128 43c0,0 -96,18 -103,139l-35 215 278 0 -12 -397z"/>
     <path class="fil28 str1" d="M7095 2410l-9 -7 -78 60 0 406 158 0 -71 -459z"/>
     <path class="fil5" d="M7505 1998c3,1 6,1 9,3 1,2 2,4 3,6 4,11 5,24 3,36 -11,18 -25,35 -33,54 -3,6 -8,17 -15,18 -8,0 -10,-10 -11,-15 -2,-30 2,-59 7,-88 0,-3 0,-5 2,-7 1,-1 3,-2 5,-3 10,-3 20,-4 30,-4z"/>
     <path class="fil4 str1" d="M7471 2115c-7,0 -9,-10 -10,-15 0,-6 0,-12 0,-18 0,-23 3,-47 7,-70 0,-3 0,-5 2,-7 1,-1 3,-2 5,-3 8,-3 16,-4 24,-4 2,0 4,0 6,0 3,1 6,1 9,3 1,2 2,4 3,6 3,8 4,16 4,24 0,4 0,8 -1,12 -11,18 -25,35 -33,54 -3,6 -8,17 -15,18 0,0 0,0 -1,0z"/>
     <path class="fil4 str1" d="M7488 1952l-21 207c-3,17 -9,33 -20,46l-98 98c-2,2 -3,4 -5,6 -13,15 -33,24 -53,24l-23 0 0 -604c122,1 239,90 220,223z"/>
     <path class="fil4 str1" d="M7033 1998c-4,1 -7,1 -10,3 -1,2 -2,4 -3,6 -4,11 -5,24 -3,36 12,18 26,35 34,54 2,6 7,17 14,18 8,0 10,-10 11,-15 2,-30 -2,-59 -6,-88 -1,-3 -1,-5 -2,-7 -2,-1 -4,-2 -6,-3 -10,-3 -20,-4 -29,-4z"/>
     <path class="fil4 str1" d="M7048 1952l22 207c2,17 9,33 19,46l99 98c1,2 3,4 4,6 14,15 33,24 54,24l22 0 0 -604c-122,1 -239,90 -220,223z"/>
     <path class="fil29 str1" d="M7486 1786c-12,-28 -30,-53 -52,-74 -68,-64 -175,-76 -261,-49 -20,6 -40,16 -55,30 -17,15 -22,26 -23,47 -32,1 -49,34 -58,59 -28,79 9,199 9,199l28 14c-6,-3 3,-56 3,-62 6,-36 16,-83 43,-110 27,24 63,31 97,37 39,6 79,7 118,2 -15,-8 -27,-20 -36,-34 34,19 71,36 109,32 -4,-6 -9,-12 -14,-18 8,10 29,12 39,18 16,10 26,31 31,49 4,15 6,30 6,45 0,5 5,38 2,41l23 -14c20,-68 20,-147 -9,-212z"/>
     <path class="fil30" d="M7394 2629c0,8 -2,17 -7,23 -7,6 -16,8 -25,7 -24,-1 -46,-14 -67,-27 -24,-14 -48,-30 -65,-53 38,-29 81,-52 126,-68 12,-4 27,-7 36,2 6,6 7,16 7,25 0,30 -2,61 -5,91z"/>
     <path class="fil30 str1" d="M7142 2629c1,8 2,17 8,23 6,6 16,8 25,7 24,-1 46,-14 66,-27 24,-14 48,-30 66,-53 -38,-29 -81,-52 -127,-68 -12,-4 -27,-7 -36,2 -6,6 -7,16 -7,25 0,30 2,61 5,91z"/>
     <path class="fil24" d="M7794 2869l0 0c0,0 0,0 0,0zm0 0l0 0c0,0 0,0 0,0zm0 0l-34 -215c0,-2 0,-4 -1,-5 1,1 1,3 1,5l2 16c12,75 30,189 32,199zm-41 -255c0,0 0,0 0,0l-1 -10c0,2 1,5 1,10zm-312 -204l0 0 9 -7 -9 7zm-5 -7l-7 -9 7 9zm-11 -6c-2,-14 -3,-28 -4,-40 1,12 2,26 4,40l0 0zm-4 -40c0,0 0,0 0,0 0,0 0,0 0,0zm-9 -112c0,-2 0,-4 0,-5l1 0c0,1 -1,3 -1,5z"/>
     <path class="fil25" d="M7268 2333l-22 0c-21,0 -40,-9 -54,-24 -1,-2 -3,-4 -4,-6 1,2 3,4 4,6 14,15 33,24 54,24l22 0zm-80 -30l-60 -59 0 0 60 59z"/>
     <path class="fil26" d="M7291 2333l-23 0 23 0c18,0 36,-8 49,-20 -13,12 -31,20 -49,20zm54 -26c1,-1 2,-2 4,-4 -2,2 -3,3 -4,4z"/>
     <path class="fil31 str1" d="M7365 2659c-1,0 -2,0 -3,0 -6,0 -12,-1 -17,-3l-51 -35c1,0 12,-41 13,-42 -2,-1 -3,-2 -4,-3l0 -15c0,-10 -8,-18 -18,-18l-1 0c7,-3 13,-7 20,-10l0 0c17,-9 34,-16 52,-22 6,-2 13,-4 20,-4 6,0 12,2 16,6 6,6 7,16 7,25 0,25 -1,50 -3,75 -1,6 -1,11 -2,16 0,8 -2,17 -7,23 -6,5 -14,7 -22,7z"/>
     <path class="fil31" d="M7305 2582l-2 -4 0 -2c1,1 2,2 4,3 -1,1 -2,2 -2,3z"/>
     <path class="fil32" d="M7303 2578l-19 -35 0 0 1 0c10,0 18,8 18,18l0 15 0 2z"/>
     <path class="fil33 str1" d="M7285 2623l-33 0c-10,0 -18,-8 -18,-18l0 -44c0,-10 8,-18 18,-18l33 0c10,0 18,8 18,18l0 44c0,10 -8,18 -18,18z"/>
     <path class="fil20 str2" d="M7268 2323l0 -426"/>
     <g>
      <path class="fil11" d="M7187 1991c-7,0 -12,5 -12,12 0,6 5,12 12,12 6,0 11,-6 11,-12 0,-7 -5,-12 -11,-12zm154 0c-7,0 -12,5 -12,12 0,6 5,12 12,12 6,0 11,-6 11,-12 0,-7 -5,-12 -11,-12z"/>
      <path id="1" class="fil12" d="M7187 2003l-24 0 0 0 0 -1 0 -1 0 -1 0 -1 1 -1 0 -1 0 -1 1 -1 0 -1 1 -1 0 -1 1 -1 0 -1 1 -1 1 -1 0 0 1 -1 1 -1 1 -1 1 0 1 -1 1 0 1 -1 1 0 1 -1 1 0 1 -1 2 0 1 0 1 0 1 0 2 0 0 21 0 0 0 0 0 0 0 0 0 -1 0 0 0 0 0 0 0 0 0 0 0 0 0 0 0 0 0 0 0 0 0 0 0 1 0 0 0 0 0 0 0 0 0 0 0 0 0 0 0 0 0 0 0 0 0 0 0 0 0 1 0 0 0 0 0 0zm0 0c0,6 -6,10 -12,10 -7,0 -12,-4 -12,-10l24 0zm0 1l0 21 0 0 -2 0 -1 0 -1 0 -1 0 -2 -1 -1 0 -1 0 -1 -1 -1 0 -1 -1 -1 -1 -1 0 -1 -1 -1 0 -1 -1 -1 -1 0 -1 -1 -1 -1 0 0 -1 -1 -1 0 -1 -1 -1 0 -1 -1 -1 0 -1 0 -1 -1 -1 0 -1 0 -1 0 -1 0 -1 24 0 0 0 0 0 0 0 0 0 0 0 0 1 0 0 0 0 0 0 0 0 0 0 0 0 0 0 0 0 0 0 0 0 0 0 0 0 0 0 0 0 0 0 0 0 0 0 0 0 0 0 0 0 0 0 0 0 0 0 0 0 0 0 0 0 0 0zm0 0c6,0 11,5 11,11 0,5 -5,10 -11,10l0 -21zm0 -1l23 0 0 0 0 1 0 1 0 1 0 1 -1 1 0 1 0 1 -1 1 0 1 -1 1 0 1 -1 1 0 1 -1 0 -1 1 0 1 -1 1 -1 1 -1 0 -1 1 -1 0 -1 1 -1 1 -1 0 -1 1 -1 0 -1 0 -2 1 -1 0 -1 0 -1 0 -1 0 0 -21 -1 0 0 0 0 0 0 0 0 0 0 0 0 0 0 0 0 0 0 0 0 0 0 0 0 0 0 0 0 0 0 0 0 0 0 0 0 0 0 0 0 0 0 0 0 0 0 0 0 0 0 0 0 -1 0 0 0 0 1 0 0 0 0 0 0 0zm0 0c0,-6 5,-11 11,-11 7,0 12,5 12,11l-23 0zm0 -1l0 -21 0 0 1 0 1 0 1 0 1 0 2 0 1 1 1 0 1 1 1 0 1 1 1 0 1 1 1 0 1 1 1 1 1 1 0 0 1 1 1 1 0 1 1 1 0 1 1 1 0 1 1 1 0 1 0 1 1 1 0 1 0 1 0 1 0 1 -23 0 0 0 0 0 -1 -1 0 0 0 0 0 0 0 0 0 0 0 0 0 0 0 0 0 0 0 0 0 0 0 0 0 -1 0 0 0 0 0 0 0 0 0 0 0 0 0 0 0 0 0 0 0 0 0 0 0 1 0 0 0 0 0 0 1 0 0 0zm0 0c-7,0 -12,-5 -12,-11 0,-6 5,-10 12,-10l0 21zm154 1l-24 0 0 0 0 -1 0 -1 0 -1 1 -1 0 -1 0 -1 1 -1 0 -1 0 -1 1 -1 0 -1 1 -1 1 -1 0 -1 1 -1 1 0 0 -1 1 -1 1 -1 1 0 1 -1 1 0 1 -1 1 0 1 -1 1 0 2 -1 1 0 1 0 1 0 1 0 2 0 0 21 0 0 0 0 0 0 0 0 0 -1 0 0 0 0 0 0 0 0 0 0 0 0 0 0 0 0 0 0 0 0 0 0 0 1 0 0 0 0 0 0 0 0 0 0 0 0 0 0 0 0 0 0 0 0 0 0 0 0 0 1 0 0 0 0 0 0zm0 0c0,6 -6,10 -12,10 -6,0 -12,-4 -12,-10l24 0zm0 1l0 21 0 0 -2 0 -1 0 -1 0 -1 0 -1 -1 -2 0 -1 0 -1 -1 -1 0 -1 -1 -1 -1 -1 0 -1 -1 -1 0 -1 -1 0 -1 -1 -1 -1 -1 0 0 -1 -1 -1 -1 0 -1 -1 -1 0 -1 0 -1 -1 -1 0 -1 0 -1 -1 -1 0 -1 0 -1 0 -1 24 0 0 0 0 0 0 0 0 0 0 0 0 1 0 0 0 0 0 0 0 0 0 0 0 0 0 0 0 0 0 0 0 0 0 0 0 0 0 0 0 0 0 0 0 0 0 0 0 0 0 0 0 0 0 0 0 0 0 0 0 0 0 0 0 0 0 0zm0 0c6,0 11,5 11,11 0,5 -5,10 -11,10l0 -21zm0 -1l23 0 0 0 0 1 0 1 0 1 0 1 0 1 -1 1 0 1 0 1 -1 1 0 1 -1 1 0 1 -1 1 -1 0 0 1 -1 1 -1 1 -1 1 -1 0 -1 1 -1 0 -1 1 -1 1 -1 0 -1 1 -1 0 -1 0 -1 1 -1 0 -2 0 -1 0 -1 0 0 -21 0 0 0 0 0 0 -1 0 0 0 0 0 0 0 0 0 0 0 0 0 0 0 0 0 0 0 0 0 0 0 0 0 0 0 0 0 0 0 0 0 0 0 0 0 1 0 0 0 0 0 0 0 0 -1 0 0 0 0 0 0 0 0 0 0 0 0zm0 0c0,-6 5,-11 11,-11 7,0 12,5 12,11l-23 0zm0 -1l0 -21 0 0 1 0 1 0 2 0 1 0 1 0 1 1 1 0 1 1 1 0 1 1 1 0 1 1 1 0 1 1 1 1 1 1 1 0 0 1 1 1 1 1 0 1 1 1 0 1 1 1 0 1 0 1 1 1 0 1 0 1 0 1 0 1 0 1 -23 0 0 0 0 0 0 -1 0 0 0 0 0 0 0 0 0 0 0 0 -1 0 0 0 0 0 0 0 0 0 0 0 0 -1 0 0 0 0 0 0 0 0 0 0 0 0 0 0 0 0 0 0 0 0 0 0 0 1 1 0 0 0 0 0 0 0 0 0zm0 0c-7,0 -12,-5 -12,-11 0,-6 5,-10 12,-10l0 21z"/>
     </g>
    </g>
   </g>
   <g>
    <path class="fil34 str3" d="M6546 3533l0 2231c-424,0 -1186,0 -1610,0l0 -2231 1610 0z"/>
    <path class="fil35 str4" d="M5108 3666l0 46 5 0c6,0 10,-2 14,-6 4,-4 6,-9 6,-14l0 -6c0,-5 -2,-10 -6,-14 -4,-4 -8,-6 -14,-6l-5 0zm-10 46l0 -46 -5 0c-6,0 -11,2 -15,6 -4,4 -6,9 -6,14l0 6c0,5 2,10 6,14 4,4 9,6 15,6l5 0zm0 10l-5 0c-9,0 -16,-3 -22,-9 -6,-6 -9,-13 -9,-21l0 -6c0,-8 3,-15 9,-21 6,-6 13,-9 22,-9l5 0 0 -10c0,-2 0,-3 1,-4 1,-1 2,-1 4,-1 1,0 2,0 3,1 1,1 2,2 2,4l0 10 5 0c8,0 15,3 21,9 3,3 5,6 7,10 2,3 2,7 2,11l0 6c0,8 -3,15 -9,21 -5,6 -13,9 -21,9l-5 0 0 15c0,2 -1,3 -2,4 -1,1 -2,1 -3,1 -2,0 -3,0 -4,-1 -1,-1 -1,-2 -1,-4l0 -15zm76 -41l25 0c2,0 3,1 4,2 1,1 1,2 1,3 0,2 0,3 -1,4 -1,1 -2,2 -4,2l-25 0 0 40 36 0c1,0 2,1 3,2 1,1 2,2 2,3 0,1 -1,3 -2,4 -1,1 -2,1 -3,1l-41 0c-4,0 -5,-1 -5,-5l0 -91c0,-4 1,-5 5,-5l41 0c1,0 2,0 3,1 1,1 2,3 2,4 0,1 -1,2 -2,3 -1,1 -2,2 -3,2l-36 0 0 30zm71 51l10 -87c0,-3 2,-4 5,-4l31 0c3,0 5,1 5,5l0 86 5 0c3,0 5,2 5,5l0 10c0,2 -1,3 -2,4 -1,1 -2,1 -3,1 -1,0 -2,0 -4,-1 -1,-1 -1,-2 -1,-4l0 -5 -51 0 0 5c0,2 -1,3 -2,4 -1,1 -2,1 -3,1 -1,0 -2,0 -4,-1 -1,-1 -1,-2 -1,-4l0 -10c0,-3 1,-5 5,-5l5 0zm41 0l0 -81 -21 0 -9 81 30 0zm50 -51l26 0c1,0 2,1 3,2 1,1 2,2 2,3 0,2 -1,3 -2,4 0,1 -2,2 -3,2l-26 0 0 40 36 0c1,0 2,1 3,2 1,1 2,2 2,3 0,1 0,3 -1,4 -1,1 -2,1 -4,1l-41 0c-3,0 -5,-1 -5,-5l0 -91c0,-4 2,-5 5,-5l41 0c1,0 2,0 3,1 1,1 2,3 2,4 0,1 0,2 -1,3 -1,1 -2,2 -4,2l-36 0 0 30zm71 11l31 0c2,0 5,-1 7,-3 2,-2 3,-5 3,-8l0 -20c0,-3 -1,-5 -3,-7 -2,-2 -4,-3 -7,-3l-31 0 0 41zm0 10l0 35c0,2 0,3 -1,4 -1,1 -2,1 -4,1 -1,0 -2,0 -3,-1 -1,-1 -2,-2 -2,-4l0 -91c0,-4 2,-5 5,-5l36 0c5,0 10,2 14,6 4,4 6,8 6,14l0 20c0,6 -2,11 -6,15 -4,4 -9,6 -14,6l-31 0zm79 15l-7 22c-1,1 -1,2 -2,2 -1,1 -2,1 -3,1 -1,0 -3,0 -4,-1 -1,-1 -1,-2 -1,-4l0 -1 31 -92c1,-3 2,-4 4,-4 3,0 4,1 5,4l31 92 0 1c0,2 -1,3 -2,4 -1,1 -2,1 -3,1 -1,0 -2,0 -3,0 0,-1 -1,-2 -2,-3l-7 -22 -37 0zm33 -10l-15 -45 -15 45 30 0zm101 30c0,2 0,3 -1,4 -1,1 -2,1 -4,1 -1,0 -2,0 -3,-1 -1,-1 -2,-2 -2,-4l0 -86 -16 0 -25 88c0,1 0,1 -1,2 -1,1 -2,1 -3,1 -2,0 -3,0 -4,-1 -1,-1 -2,-2 -2,-4 0,0 1,-1 1,-1l25 -91c1,-3 2,-4 5,-4l25 0c4,0 5,1 5,5l0 91zm31 -45l30 0c3,0 5,1 7,2 2,2 3,5 3,8l0 20c0,3 -1,5 -3,7 -1,1 -2,2 -3,2 -1,1 -2,1 -4,1l-30 0 0 -40zm0 -11l0 -35c0,-1 -1,-3 -2,-4 -1,-1 -2,-1 -3,-1 -2,0 -3,0 -4,1 -1,1 -1,2 -1,4l0 91c0,4 1,5 5,5l35 0c6,0 10,-2 14,-6 4,-4 6,-8 6,-14l0 -20c0,-6 -2,-11 -5,-15 -4,-4 -9,-6 -15,-6l-30 0zm121 0l0 -35c0,-2 1,-3 2,-4 1,-1 2,-1 4,-1 1,0 2,0 3,1 1,1 2,2 2,4l0 91c0,2 -1,3 -2,4 -1,1 -2,1 -4,1 -1,0 -2,0 -3,-1 -1,-1 -2,-2 -2,-4l0 -45 -40 0 0 45c0,2 -1,3 -2,4 -1,1 -2,1 -3,1 -2,0 -3,0 -4,-1 -1,-1 -1,-2 -1,-4l0 -91c0,-1 0,-3 1,-4 1,-1 2,-1 4,-1 1,0 2,0 3,1 1,1 2,2 2,4l0 35 40 0zm102 56c0,2 0,3 -1,4 -1,1 -3,1 -4,1 -1,0 -3,0 -4,-1 -1,-1 -1,-2 -1,-4l0 -91c0,-2 0,-3 1,-4 1,-1 3,-1 4,-1 1,0 2,0 3,1 1,1 2,2 2,4l0 91zm-61 -45l0 40 20 0c3,0 6,-1 8,-3 2,-2 3,-4 3,-7l0 -20c0,-3 -1,-6 -3,-8 -2,-1 -5,-2 -8,-2l-20 0zm0 -11l20 0c6,0 11,2 15,6 4,4 6,9 6,15l0 20c0,6 -2,10 -6,14 -4,4 -9,6 -15,6l-25 0c-3,0 -5,-1 -5,-5l0 -91c0,-2 0,-3 1,-4 1,-1 3,-1 4,-1 1,0 2,0 3,1 1,1 2,2 2,4l0 35zm122 -50l-21 0c-1,0 -2,-1 -3,-2 -1,-1 -2,-2 -2,-3 0,-2 1,-3 2,-4 1,-1 2,-1 3,-1l21 0c1,0 2,0 3,1 1,1 2,2 2,4 0,1 -1,2 -1,3 -1,1 -3,2 -4,2zm20 106c0,2 0,3 -1,4 -1,1 -3,1 -4,1 -1,0 -3,0 -4,-1 -1,-1 -1,-2 -1,-4l0 -72 -41 75c-1,1 -2,2 -2,2l-2 1c0,0 0,0 -1,0 -1,0 -2,0 -3,-1 -1,-1 -2,-3 -2,-5l0 -91c0,-1 1,-3 2,-4 1,-1 2,-1 3,-1 2,0 3,0 4,1 1,1 1,2 1,4l0 72 41 -74c1,-1 2,-2 3,-3 1,-1 1,-1 2,-1 2,0 3,1 4,2 1,1 1,2 1,4l0 91zm112 -45l-15 0c-2,0 -3,-1 -4,-2 -1,-1 -2,-2 -2,-4 0,-1 1,-2 2,-3 1,-1 2,-2 4,-2l15 0c3,0 5,-1 7,-2 2,-2 3,-5 3,-8l0 -10c0,-3 -1,-5 -3,-7 -2,-2 -4,-3 -7,-3l-10 0c-3,0 -5,0 -6,2 -2,1 -3,3 -4,5 0,1 -1,2 -2,2 0,1 0,1 -1,1l-2 0c-1,0 -2,0 -3,-1 -1,-1 -2,-2 -2,-4l0 -1c2,-4 4,-8 8,-10 3,-3 7,-4 12,-4l10 0c5,0 10,2 14,6 4,4 6,8 6,14l0 10c0,3 -1,6 -2,9 -1,2 -3,5 -5,6 5,4 7,9 7,16l0 20c0,6 -2,10 -6,14 -4,4 -9,6 -14,6l-10 0c-5,0 -9,-1 -12,-3 -4,-3 -6,-6 -8,-11l0 -1c0,-2 1,-3 2,-4 1,-1 2,-1 3,-1 2,0 4,1 5,3 1,2 2,4 4,5 2,2 4,2 6,2l10 0c3,0 5,-1 7,-3 2,-2 3,-4 3,-7l0 -20c0,-3 -1,-6 -2,-7 -2,-2 -5,-3 -8,-3zm53 25l-7 22c-1,1 -1,2 -2,2 -1,1 -2,1 -3,1 -1,0 -3,0 -4,-1 -1,-1 -1,-2 -1,-4l0 -1 31 -92c1,-3 2,-4 4,-4 3,0 4,1 5,4l31 92 0 1c0,2 -1,3 -2,4 -1,1 -2,1 -3,1 -1,0 -2,0 -3,0 0,-1 -1,-2 -2,-3l-7 -22 -37 0zm33 -10l-15 -45 -15 45 30 0zm51 -22l42 -43c1,-1 2,-1 4,-1 1,0 2,0 3,1 1,1 2,3 2,4 0,1 -1,2 -2,3l-30 31 31 55 1 2c0,2 0,3 -2,4 -1,1 -2,1 -3,1 -2,0 -3,-1 -5,-2l-29 -53 -12 12 0 38c0,2 -1,3 -2,4 -1,1 -2,1 -4,1 -1,0 -2,0 -3,-1 -1,-1 -2,-2 -2,-4l0 -91c0,-2 1,-3 2,-4 1,-1 2,-1 3,-1 2,0 3,0 4,1 1,1 2,2 2,4l0 39zm126 37c0,6 -2,10 -6,14 -4,4 -8,6 -14,6l-20 0c-6,0 -11,-2 -15,-6 -4,-4 -6,-8 -6,-14l0 -61c0,-6 2,-10 6,-14 4,-4 9,-6 15,-6l20 0c6,0 10,2 14,6 4,4 6,8 6,14l0 61zm-10 0l0 -61c0,-3 -1,-5 -3,-7 -2,-2 -4,-3 -7,-3l-20 0c-3,0 -6,1 -8,3 -1,1 -1,2 -2,3 0,1 0,3 0,4l0 61c0,3 0,5 2,7 1,1 3,2 4,2 1,1 2,1 4,1l20 0c3,0 5,-1 7,-3 2,-2 3,-4 3,-7zm89 -41l0 -35c0,-2 1,-3 2,-4 1,-1 2,-1 4,-1 1,0 2,0 3,1 1,1 2,2 2,4l0 91c0,2 -1,3 -2,4 -1,1 -2,1 -4,1 -1,0 -2,0 -3,-1 -1,-1 -2,-2 -2,-4l0 -45 -40 0 0 45c0,2 -1,3 -2,4 -1,1 -2,1 -3,1 -2,0 -3,0 -4,-1 -1,-1 -1,-2 -1,-4l0 -91c0,-1 0,-3 1,-4 1,-1 2,-1 4,-1 1,0 2,0 3,1 1,1 2,2 2,4l0 35 40 0z"/>
    <g>
     <path class="fil36" d="M5831 3935c25,22 6,33 -13,33 2,-15 5,-3 6,-20 -4,0 -7,0 -10,-1l-7 -1c-6,0 -12,2 -16,4 5,21 10,0 10,20 -7,-1 -2,-1 -5,-2 0,0 -1,-1 -1,-1l-13 -6c-5,-2 -9,-5 -15,-6 -8,-6 -3,-6 -11,-6 -17,-2 -6,0 -4,6 4,7 16,9 24,13 -2,7 -3,7 -8,12 1,16 1,-2 6,12 -10,8 -15,21 -25,30 -16,6 -13,-14 -32,-27 2,-11 -7,-2 8,-10 -27,-2 -14,-16 -8,-20l8 -5c-4,-8 6,-6 -8,-5 -16,21 -19,1 -22,-7 -17,-1 -14,3 -14,3l-1 -8c-9,3 -1,3 -14,5l-4 5c4,9 1,1 4,6 3,4 2,1 4,6 -14,9 3,3 -17,8 -13,3 0,-3 -4,1 -3,6 2,5 -3,5 9,1 11,4 18,9 8,6 8,6 12,15 -11,-4 -19,0 -30,3 11,-1 11,-3 25,-2l-4 3c-7,6 -5,2 -6,6 12,0 7,-7 28,-5 10,1 18,4 19,17 1,11 -2,10 -4,16 -4,10 1,-5 1,8 1,11 -10,14 -20,11 3,8 4,5 4,14 -11,5 -14,6 -26,0 -1,0 -10,-5 -10,-5 -19,-16 9,-13 7,-27l-39 -32c-19,-10 -10,-13 -23,-25l-22 -23c-8,-12 -6,-4 -10,-14l-2 4 1 22 -14 -1c2,23 -3,4 -7,18 -2,9 3,9 6,15 -3,2 -7,4 -11,6 4,11 6,11 14,18 0,0 -1,1 -1,1 -1,0 -1,1 -2,1 -6,7 -2,-5 -5,9 13,15 15,8 14,17l-13 1 -4 5c7,3 12,6 13,15 -7,5 -12,5 -16,11 -2,2 -8,16 -9,20 43,12 7,4 51,6 -1,10 -3,9 -6,18 13,-3 13,-8 29,-8l-2 13c0,0 0,1 0,2 0,0 1,1 1,2 18,-7 2,-8 17,-12 11,7 6,7 6,7l2 4c5,-3 4,-3 7,-5 5,-4 0,-2 8,-6 9,4 4,5 11,7 9,-11 -1,-25 35,-17l-1 25c-44,4 -31,22 -31,30l-4 2c1,13 7,2 16,13 -11,8 -39,26 -50,14l-11 0c-1,0 -1,-2 -2,-2l-18 -20c0,0 -1,-1 -2,-1 0,-1 -1,-1 -1,-2 2,8 4,11 2,19l12 8c0,1 -18,15 6,25 12,5 5,-4 13,6 5,7 1,10 5,16l10 -1c-4,-13 -7,-4 -12,-20 4,-9 -1,-1 6,-8 3,-3 5,-4 9,-6 21,-11 25,-10 42,-14 16,-4 10,-6 13,-18l13 0c-7,-5 -15,-4 -9,-17 4,-8 14,-7 25,-7 4,7 9,11 5,22 -2,9 -6,12 -13,16l6 5c0,0 1,1 1,1 1,1 1,1 2,2 -21,3 -29,13 -42,24 -22,18 -12,-10 -21,-2 -8,7 1,17 2,20l-7 3 -4 6c-3,5 -2,4 -3,11 10,5 5,7 14,8 27,3 1,-1 17,7 6,3 8,1 14,0 23,-2 7,4 24,7 7,1 11,0 17,0 8,1 3,3 12,5 20,-15 14,1 33,-8l4 -3c3,-3 0,-1 3,-4 4,4 18,6 26,3 4,-2 7,-5 10,-7 16,-5 3,2 15,1 3,-6 5,-8 5,-17l-12 -9 5 -19c-4,-3 -3,5 -4,-7 0,1 -1,1 -1,2l-3 5c0,1 -2,5 -3,6 -15,-2 -19,-15 -52,-30 -1,-1 -2,-1 -2,-1 -1,-1 -2,-1 -2,-1 0,-1 0,-3 1,-2 0,0 0,-2 0,-2 1,-4 1,-3 2,-7 -4,-1 -9,-4 -12,-7 -2,-27 14,-34 32,-22l-2 13 -4 5c14,3 8,2 14,16l12 2c16,8 34,12 51,20 12,5 9,11 23,10 9,0 20,-6 28,-9 9,-20 10,-21 7,-31 -3,-8 -3,-10 -9,-14 -6,-4 -11,-2 -13,-7 -35,0 -36,26 -40,34 -10,-1 -27,-6 -33,-10 2,-9 1,-6 5,-11 5,-7 -1,-2 6,-6 -9,-8 -3,-10 -4,-19 -2,-12 -9,-7 -19,-15l-14 -1c3,6 1,10 16,10 -9,-3 -6,3 -18,-5 -1,0 -2,-1 -3,-1l-10 9c-2,-7 -2,-15 -18,-11 -9,2 -13,8 -18,9 -7,1 -13,-12 -20,5 -3,-16 -2,-10 1,-15 -28,2 -20,-2 -33,1 4,-15 3,-12 2,-24 0,-16 4,-6 0,-13l-6 -10 -18 0 6 -6c10,-12 -7,12 2,-3l8 0c0,-1 1,-1 1,-2 2,-5 -1,6 2,-6 0,1 0,6 0,6 3,8 -3,0 4,7l2 -27c27,0 83,-4 98,0 2,-1 4,-1 6,-3 6,-6 4,1 5,-9 -11,1 -14,2 -21,-3 4,-12 2,-5 11,-13l-16 -10c-1,-37 30,-25 31,-25l4 -11c5,-8 6,-3 17,-10 11,-5 4,0 9,-6 2,-13 1,-2 -5,-13 7,-3 14,-5 21,-8 -2,-16 -20,-23 -2,-35 11,-3 2,1 6,-4 -16,-6 -26,-4 -30,15z"/>
     <path class="fil36" d="M5811 4147l-15 -2 0 -25c14,-2 14,1 28,2 0,8 -2,8 2,14l-2 -9c12,4 8,4 9,0 -7,-2 -2,-1 -6,-3 -13,-9 -13,-1 -13,-22 6,3 7,-4 10,12 2,-4 1,-4 0,-11 6,1 6,5 4,-3 -1,-7 0,-9 -4,-14l-6 15c-5,-9 8,6 -5,-1 -9,-5 -3,-9 -6,-17 -1,1 -2,1 -2,2 -5,5 -4,2 -5,10l-1 5c-8,-4 -8,-2 -8,-13 0,-11 1,-12 4,-15l0 -2c-15,-4 -71,0 -98,0l-2 27c-7,-7 -1,1 -4,-7 0,0 0,-5 0,-6 -3,12 0,1 -2,6 0,1 -1,1 -1,2l-8 0c-9,15 8,-9 -2,3l-6 6 18 0 6 10c4,7 0,-3 0,13 1,12 2,9 -2,24 13,-3 5,1 33,-1 -3,5 -4,-1 -1,15 7,-17 13,-4 20,-5 5,-1 9,-7 18,-9 16,-4 16,4 18,11l10 -9c1,0 2,1 3,1 12,8 9,2 18,5 -15,0 -13,-4 -16,-10l14 1z"/>
     <path class="fil36" d="M5804 4075c-4,2 -1,-7 -4,2l-1 5c29,8 39,3 52,-15 -8,-4 3,3 -3,-4l-5 -5c-5,-3 -3,3 -9,-8 25,-1 26,-5 31,-18 16,0 7,3 17,-3l16 -9c-1,9 -4,4 -2,9l17 1 -2 6c-6,7 -2,1 -3,1l11 3c-2,4 -6,2 -13,13 6,4 10,-3 17,2l-15 12c-2,1 -5,2 -7,3 1,0 4,4 4,6 0,0 7,-2 -5,12 8,-1 8,0 17,0l-3 9c0,2 -5,3 -7,15 -16,-1 -12,-11 -21,-3 -10,8 -3,9 -19,12 -9,3 3,-11 -5,2 -3,3 -2,6 2,18 10,1 -2,2 10,-7l24 10c1,0 1,-2 1,-1l5 -11 23 6c-6,-29 -7,-13 15,-21 -7,-9 -8,-2 -11,-13 9,-11 11,-4 18,-12 -7,-7 -6,-4 -16,-8 2,-6 -4,-2 18,-12 -6,-7 -4,-4 -15,-7 1,-7 1,-8 12,-18 -8,-3 -3,0 -8,-1 0,0 -1,-1 -1,-1 -1,0 -2,0 -2,-1l-4 -2c2,-4 17,-24 18,-25l-15 -5c2,-6 0,-1 5,-5 4,-3 1,4 6,-6 1,-2 3,-17 3,-21l-7 1 -2 -12c-7,3 -4,5 -13,4 -1,-9 2,-15 -2,-22 -4,2 -19,24 -22,28 -8,12 -34,27 -40,33 -3,4 -6,11 -10,15 -10,11 -18,13 -27,23 6,12 9,8 14,17 -9,10 -19,16 -37,8z"/>
     <path class="fil36" d="M5804 4075l-9 -3c-3,3 -4,4 -4,15 0,11 0,9 8,13l1 -5c1,-8 0,-5 5,-10 0,-1 1,-1 2,-2 3,8 -3,12 6,17 13,7 0,-8 5,1l6 -15c4,5 3,7 4,14 2,8 2,4 -4,3 1,7 2,7 0,11 -3,-16 -4,-9 -10,-12 0,21 0,13 13,22 4,2 -1,1 6,3 -1,4 3,4 -9,0l2 9 7 7c9,-6 4,-8 13,-15 9,4 7,8 18,13 -4,-12 -5,-15 -2,-18 8,-13 -4,1 5,-2 16,-3 9,-4 19,-12 9,-8 5,2 21,3 2,-12 7,-13 7,-15l3 -9c-9,0 -9,-1 -17,0 12,-14 5,-12 5,-12 0,-2 -3,-6 -4,-6 2,-1 5,-2 7,-3l15 -12c-7,-5 -11,2 -17,-2 7,-11 11,-9 13,-13l-11 -3c1,0 -3,6 3,-1l2 -6 -17 -1c-2,-5 1,0 2,-9l-16 9c-10,6 -1,3 -17,3 -5,13 -6,17 -31,18 6,11 4,5 9,8l5 5c6,7 -5,0 3,4 -13,18 -23,23 -52,15l1 -5c3,-9 0,0 4,-2z"/>
     <path class="fil36" d="M5717 3955c14,-1 4,-3 8,5l-8 5c7,-1 9,-1 15,-5l8 -7c1,0 1,-1 2,-2 8,3 3,0 10,4 -2,-6 -13,-8 4,-6 8,0 3,0 11,6 -3,-28 7,-15 7,-42l-11 -6c-6,-2 -9,-3 -17,-3 -1,-12 6,-12 -1,-18 -10,-9 -5,7 -5,9 -1,10 -3,10 -12,14 -34,14 -13,20 -11,46z"/>
     <path class="fil36" d="M5769 4198c5,-4 1,2 3,-5 0,0 2,-6 2,-7 4,-7 2,-4 13,-4l2 -13c-18,-12 -34,-5 -32,22 3,3 8,6 12,7z"/>
     <path class="fil36" d="M5870 3925l7 2c-5,23 -6,20 7,34 3,-1 3,-2 5,-3 13,-6 8,-2 17,-5l-13 -5c-4,-20 6,-19 -5,-27l-18 4z"/>
     <path class="fil36" d="M5797 4253c7,-15 -15,-25 -25,-35 -8,-10 -3,-8 -17,-9 5,13 8,9 20,27 6,9 5,25 22,17z"/>
     <path class="fil36" d="M5690 4254c15,0 13,-9 29,-31 5,-6 6,-4 9,-12 -14,0 -16,7 -27,16 -8,8 -16,16 -11,27z"/>
    </g>
    <g>
     <path class="fil35 str4" d="M5417 4526c0,5 -2,10 -6,14 -4,4 -8,6 -14,6l-20 0c-6,0 -11,-2 -15,-6 -4,-4 -6,-8 -6,-14l0 -61c0,-6 2,-10 6,-14 4,-4 9,-6 15,-6l20 0c6,0 10,2 14,6 4,4 6,8 6,14l0 61zm-10 0l0 -61c0,-3 -1,-5 -3,-7 -2,-2 -4,-3 -7,-3l-20 0c-3,0 -6,1 -8,3 -1,1 -1,2 -2,3 0,1 -1,3 -1,4l0 61c0,3 1,5 3,7 1,1 2,2 4,2 1,1 2,1 4,1l20 0c3,0 5,-1 7,-3 2,-2 3,-4 3,-7zm79 0l0 -31c0,-2 -1,-5 -3,-7 -1,-2 -4,-3 -7,-3l-10 0c-3,0 -5,1 -7,3 -1,1 -2,2 -3,3 0,2 0,3 0,4l0 31c0,3 1,5 3,7 1,1 2,2 3,2 1,1 3,1 4,1l10 0c3,0 5,-1 7,-3 2,-2 3,-4 3,-7zm-16 -51l-23 -22c-1,-1 -2,-2 -2,-4 0,-1 1,-2 2,-3 1,-1 2,-1 4,-1l40 0c2,0 3,0 4,1 1,1 1,2 1,4 0,1 0,2 -1,3 -1,1 -2,2 -4,2l-28 0 27 25 2 2c3,4 4,8 4,13l0 31c0,5 -2,10 -6,14 -4,4 -8,6 -14,6l-10 0c-6,0 -10,-2 -14,-6 -4,-4 -6,-8 -6,-14l0 -31c0,-5 2,-10 6,-14 4,-4 8,-6 14,-6l4 0zm158 49c0,6 -2,11 -6,16 -4,4 -10,6 -16,6l-6 0c-6,0 -11,-2 -16,-6 -4,-5 -6,-10 -6,-16l0 -27c0,-5 2,-11 6,-15 4,-5 10,-7 16,-7l6 0c6,0 11,2 16,7 4,4 6,9 6,15l0 27zm-10 0l0 -27c0,-3 -1,-6 -3,-8 -3,-3 -6,-4 -9,-4l-6 0c-3,0 -6,1 -9,4 -2,2 -3,5 -3,8l0 27c0,3 1,6 3,9 3,2 5,3 9,3l6 0c3,0 6,-1 9,-3 2,-3 3,-6 3,-9zm66 22l-15 0c-6,0 -10,-2 -14,-6 -4,-4 -6,-8 -6,-14l0 -31c0,-5 2,-10 6,-14 3,-4 8,-6 14,-6l15 0c2,0 3,1 4,2 1,1 1,2 1,3 0,1 0,2 -1,4 -1,1 -2,1 -4,1l-15 0c-3,0 -5,1 -7,3 -1,1 -2,2 -3,3 0,2 0,3 0,4l0 31c0,3 1,5 3,7 1,1 2,2 3,2 1,1 3,1 4,1l15 0c2,0 3,1 4,2 1,1 1,2 1,3 0,1 0,2 -1,4 -1,1 -2,1 -4,1zm66 -40l0 -26c0,-1 1,-2 2,-4 1,0 2,-1 3,-1 1,0 3,1 4,1 1,1 1,3 1,4l0 61c0,2 0,3 -1,4 -1,1 -2,1 -4,1 -1,0 -2,0 -3,-1 -1,-1 -2,-2 -2,-4l0 -25 -30 0 0 25c0,2 -1,3 -2,4 -1,1 -2,1 -4,1 -1,0 -2,0 -3,-1 -1,-1 -2,-2 -2,-4l0 -61c0,-1 1,-2 2,-4 1,0 2,-1 3,-1 2,0 3,1 4,1 1,1 2,3 2,4l0 26 30 0zm81 18c0,6 -2,11 -6,16 -5,4 -10,6 -16,6l-6 0c-6,0 -11,-2 -16,-6 -4,-5 -7,-10 -7,-16l0 -27c0,-5 3,-11 7,-15 4,-5 10,-7 16,-7l6 0c6,0 11,2 16,7 4,4 6,9 6,15l0 27zm-10 0l0 -27c0,-3 -1,-6 -3,-8 -3,-3 -6,-4 -9,-4l-6 0c-4,0 -6,1 -9,4 -2,2 -3,5 -3,8l0 27c0,3 1,6 3,9 3,2 5,3 9,3l6 0c3,0 6,-1 9,-3 2,-3 3,-6 3,-9zm71 2l0 -30c0,-3 -1,-6 -3,-8 -2,-2 -4,-3 -7,-3l-10 0c-3,0 -6,1 -7,3 -1,1 -2,2 -3,4 0,1 0,2 0,4l0 30c0,3 1,5 3,7 1,1 2,2 3,2 1,1 3,1 4,1l10 0c3,0 5,-1 7,-3 2,-2 3,-4 3,-7zm-30 -47l4 -3 6 -4c2,-2 3,-3 4,-4 1,-2 2,-3 2,-5 0,-2 -1,-4 -3,-6 -1,-1 -3,-2 -5,-2 -2,0 -4,1 -6,2 -2,2 -2,3 -2,6l0 16zm20 -3c6,0 11,1 15,5 4,4 5,9 5,15l0 30c0,5 -2,10 -6,14 -4,4 -8,6 -14,6l-10 0c-6,0 -10,-2 -14,-6 -4,-4 -7,-8 -7,-14l0 -63c0,-6 2,-10 6,-14 4,-3 8,-4 13,-4 4,0 9,1 12,4 4,4 6,8 6,14 0,3 0,6 -1,7 -1,2 -3,4 -5,6zm81 30l0 -26c0,-1 1,-2 2,-4 1,0 2,-1 3,-1 2,0 3,1 4,1 1,1 1,3 1,4l0 61c0,2 0,3 -1,4 -1,1 -2,1 -4,1 -1,0 -2,0 -3,-1 -1,-1 -2,-2 -2,-4l0 -25 -30 0 0 25c0,2 -1,3 -2,4 -1,1 -2,1 -3,1 -2,0 -3,0 -4,-1 -1,-1 -1,-2 -1,-4l0 -61c0,-1 0,-2 1,-4 1,0 2,-1 4,-1 1,0 2,1 3,1 1,1 2,3 2,4l0 26 30 0zm91 35c0,2 0,3 -1,4 -1,1 -2,1 -4,1 -1,0 -2,0 -3,-1 -1,-1 -2,-2 -2,-4l0 -61c0,-1 1,-2 2,-4 1,0 2,-1 3,-1 2,0 3,1 4,1 1,1 1,3 1,4l0 61zm-50 -25l0 20 10 0c3,0 5,-1 7,-3 2,-2 3,-4 3,-7 0,-3 -1,-5 -3,-7 0,-1 -1,-2 -3,-2 -1,-1 -3,-1 -4,-1l-10 0zm0 -10l10 0c6,0 11,2 15,6 3,4 5,8 5,14 0,5 -2,10 -5,14 -4,4 -9,6 -15,6l-15 0c-4,0 -5,-1 -5,-5l0 -61c0,-1 0,-2 1,-4 1,0 2,-1 4,-1 1,0 2,1 3,1 1,1 2,3 2,4l0 26zm102 5l19 27 1 2 0 1c0,2 -1,3 -2,4l-1 0 -1 1 -2 0c-1,0 -3,-1 -4,-2l-16 -24 -16 24c-1,1 -2,2 -4,2 -1,0 -2,0 -4,-1 -1,-1 -1,-2 -1,-4 0,-1 0,-2 1,-3l18 -27 -19 -28 0 -1 0 -2c0,-1 0,-2 1,-3 1,-1 3,-2 4,-2 1,0 3,1 4,2l16 25 16 -25c1,-1 3,-2 4,-2 1,0 3,1 4,2 1,1 2,2 2,3 0,1 -1,2 -1,3l-19 28zm-637 193c-2,1 -6,3 -10,4l-5 0 -6 1 -7 -1 -6 0c-4,-1 -7,-3 -10,-6 -2,-3 -3,-6 -3,-10 0,-2 0,-4 1,-6 1,-2 2,-4 4,-6l33 -22c1,-1 1,-2 1,-3 0,-2 -1,-4 -5,-5 -3,-1 -7,-2 -11,-2 -4,0 -7,0 -9,1 -3,0 -5,1 -7,3 0,0 -2,1 -3,1 -1,0 -2,-1 -3,-2 -1,-1 -2,-2 -2,-3 0,-2 1,-3 2,-4 2,-2 6,-3 10,-4 2,-1 4,-1 6,-1 2,-1 5,-1 7,-1 1,0 2,0 4,0 1,0 2,0 4,1 1,0 3,0 5,1 4,1 7,3 9,5 3,3 4,6 4,10 0,4 -2,8 -6,11l-32 22c-2,1 -2,3 -2,4 0,2 0,3 1,4 1,1 2,2 3,2l6 0 6 1c4,0 7,-1 9,-1 1,0 2,-1 4,-1 1,-1 2,-1 4,-2l1 0c0,-1 1,-1 1,-1 1,0 3,1 4,2 1,1 1,2 1,4 0,1 -1,3 -3,4zm64 -16l0 -40 -20 0c-3,0 -6,1 -8,3 -1,1 -1,2 -2,3 0,1 -1,2 -1,4l0 30c0,3 1,6 3,8 1,1 2,1 4,2 1,0 2,1 4,1l10 0c3,0 5,-1 7,-3 2,-2 3,-5 3,-8zm5 14c-2,2 -4,3 -7,5 -3,1 -5,2 -8,2l-10 0c-6,0 -11,-2 -15,-6 -4,-4 -6,-9 -6,-15l0 -30c0,-6 2,-11 6,-15 4,-3 9,-5 15,-5l25 0c3,0 5,1 5,5l0 45c0,2 1,4 2,6 1,2 3,4 5,5 2,1 3,2 3,4 0,2 0,3 -1,4 -1,1 -2,2 -4,2 -1,0 -1,-1 -2,-1 -3,-1 -6,-3 -8,-6zm35 -3l21 0c3,0 5,-1 7,-3 2,-2 3,-5 3,-8l0 -30c0,-3 -1,-5 -3,-7 -2,-2 -4,-3 -7,-3l-21 0 0 51zm0 10l0 25c0,1 0,3 -1,4 -1,1 -2,1 -4,1 -1,0 -2,0 -3,-1 -1,-1 -2,-2 -2,-4l0 -91c0,-4 2,-5 5,-5l26 0c5,0 10,2 14,5 4,4 6,9 6,15l0 30c0,6 -2,11 -6,15 -4,4 -9,6 -14,6l-21 0zm102 -21l0 -40 -20 0c-3,0 -6,1 -8,3 -1,1 -1,2 -2,3 0,1 -1,2 -1,4l0 30c0,3 1,6 3,8 1,1 2,1 4,2 1,0 2,1 4,1l10 0c3,0 5,-1 7,-3 2,-2 3,-5 3,-8zm5 14c-2,2 -4,3 -7,5 -3,1 -5,2 -8,2l-10 0c-6,0 -11,-2 -15,-6 -4,-4 -6,-9 -6,-15l0 -30c0,-6 2,-11 6,-15 4,-3 9,-5 15,-5l25 0c3,0 5,1 5,5l0 45c0,2 1,4 2,6 1,2 3,4 5,5 2,1 3,2 3,4 0,2 0,3 -1,4 -1,1 -2,2 -4,2 0,0 -1,-1 -2,-1 -3,-1 -6,-3 -8,-6zm66 -34l0 -25c0,-2 1,-3 2,-4 1,-1 2,-1 3,-1 1,0 3,0 4,1 1,1 1,2 1,4l0 61c0,1 0,2 -1,3 -1,1 -2,2 -4,2 -1,0 -2,-1 -3,-2 -1,0 -2,-2 -2,-3l0 -26 -31 0 0 26c0,1 0,2 -1,3 -1,1 -2,2 -4,2 -1,0 -2,-1 -3,-2 -1,0 -2,-2 -2,-3l0 -61c0,-2 1,-3 2,-4 1,-1 2,-1 3,-1 2,0 3,0 4,1 1,1 1,2 1,4l0 25 31 0zm61 -20l-20 0 0 56c0,1 -1,2 -2,3 -1,1 -2,2 -4,2 -1,0 -2,-1 -3,-2 -1,0 -2,-2 -2,-3l0 -61c0,-4 2,-5 5,-5l46 0c6,0 10,2 14,5 4,4 6,9 6,15l0 46c0,1 0,2 -1,3 -1,1 -2,2 -4,2 -1,0 -2,-1 -3,-2 -1,0 -2,-2 -2,-3l0 -46c0,-3 -1,-5 -3,-7 -2,-2 -4,-3 -7,-3l-10 0 0 56c0,1 -1,2 -2,3 0,1 -2,2 -3,2 -1,0 -3,-1 -4,-2 -1,0 -1,-2 -1,-3l0 -56zm111 56c0,3 -1,5 -5,5l-25 0c-5,0 -10,-2 -14,-6 -4,-4 -6,-9 -6,-15l0 -45c0,-2 0,-3 1,-4 1,-1 2,-1 4,-1 1,0 2,0 3,1 1,1 2,2 2,4l0 45c0,3 1,6 3,8 1,1 2,1 3,2 1,0 3,1 4,1l20 0 0 -56c0,-2 1,-3 2,-4 1,-1 2,-1 3,-1 2,0 3,0 4,1 1,1 1,2 1,4l0 61zm61 -36l0 -20 -20 0c-3,0 -5,1 -8,3 -1,2 -2,4 -2,7 0,2 1,5 2,7 2,2 5,3 8,3l20 0zm-12 10l-19 28c0,1 -1,2 -2,2l-2 1c-1,0 -2,-1 -4,-2 -1,-1 -1,-2 -1,-3 0,-1 0,-2 1,-3l15 -23c-5,-1 -9,-3 -12,-7 -3,-4 -4,-8 -4,-13 0,-6 1,-10 5,-14 4,-4 9,-6 15,-6l25 0c4,0 5,1 5,5l0 61c0,1 0,2 -1,3 -1,1 -2,2 -4,2 -1,0 -2,-1 -3,-2 -1,0 -2,-2 -2,-3l0 -26 -12 0zm74 -5l19 28 1 1 0 2c0,1 -1,2 -2,3l-1 1 -1 0 -2 1c-1,0 -2,-1 -4,-3l-16 -24 -16 24c-1,2 -2,3 -4,3 -1,0 -2,-1 -4,-2 -1,-1 -1,-2 -1,-4 0,0 0,-1 1,-2l18 -28 -19 -28 0 -1 0 -1c0,-2 0,-3 1,-4 1,-1 3,-1 4,-1 2,0 3,0 4,2l16 24 16 -24c1,-2 3,-2 4,-2 1,0 3,0 4,1 1,1 2,2 2,4 0,1 -1,2 -1,3l-19 27zm-886 193c0,3 -2,5 -5,5l-25 0c-6,0 -11,-2 -15,-6 -4,-4 -6,-9 -6,-14l0 -46c0,-1 1,-3 2,-4 1,-1 2,-1 3,-1 2,0 3,0 4,1 1,1 1,2 1,4l0 46c0,3 1,5 3,7 1,1 2,2 4,2 1,1 2,1 4,1l20 0 0 -56c0,-1 0,-3 1,-4 1,-1 3,-1 4,-1 1,0 2,0 3,1 1,1 2,2 2,4l0 61zm47 -26l-6 0c-2,0 -3,0 -4,-1 -1,-1 -1,-2 -1,-4 0,-1 0,-2 1,-3 1,-1 2,-2 4,-2l5 0c3,0 5,-1 7,-3 2,-2 3,-4 3,-7 0,-3 -1,-5 -3,-7 0,-1 -1,-2 -3,-2 -1,-1 -3,-1 -4,-1l-5 0c-5,0 -9,1 -13,4 0,1 -1,1 -3,1 -1,0 -2,0 -3,-1 -1,-1 -2,-3 -2,-4 0,-2 1,-3 2,-4 6,-4 12,-6 19,-6l5 0c6,0 11,2 15,6 3,4 5,9 5,14 0,2 0,3 0,5 -1,1 -1,2 -2,4 -1,2 -2,4 -4,6 2,2 3,5 4,7l2 4c0,2 0,3 0,5 0,5 -2,10 -5,14 -4,4 -9,6 -15,6l-5 0c-7,0 -13,-2 -19,-6 -1,-1 -2,-2 -2,-4 0,-1 1,-2 2,-4 1,-1 2,-1 3,-1 1,0 2,0 3,1 4,3 8,4 13,4l5 0c3,0 5,-1 7,-3 2,-2 3,-5 3,-7 0,-3 -1,-5 -2,-7 -2,-2 -4,-3 -7,-4zm80 11l0 -31c0,-3 -1,-5 -3,-7 -2,-2 -4,-3 -7,-3l-10 0c-3,0 -6,1 -8,3 -1,1 -1,2 -2,3 0,1 -1,3 -1,4l0 31c0,3 1,5 3,7 1,1 2,2 4,2 1,1 2,1 4,1l10 0c3,0 5,-1 7,-3 2,-2 3,-4 3,-7zm-17 -51l-22 -22c-1,-1 -2,-2 -2,-4 0,-1 0,-2 1,-3 1,-1 2,-1 4,-1l41 0c1,0 3,0 4,1 0,1 1,2 1,4 0,1 0,2 -1,3 -1,1 -2,2 -4,2l-28 0 27 25 1 2c3,4 5,8 5,13l0 31c0,5 -2,10 -6,14 -4,4 -9,6 -14,6l-10 0c-6,0 -11,-2 -15,-6 -4,-4 -6,-9 -6,-14l0 -31c0,-5 2,-10 6,-14 4,-4 9,-6 15,-6l3 0zm98 66c0,3 -2,5 -5,5l-25 0c-6,0 -11,-2 -15,-6 -4,-4 -6,-9 -6,-14l0 -46c0,-1 1,-3 2,-4 1,-1 2,-1 3,-1 2,0 3,0 4,1 1,1 1,2 1,4l0 46c0,3 1,5 3,7 1,1 2,2 4,2 1,1 2,1 4,1l20 0 0 -56c0,-1 0,-3 1,-4 1,-1 3,-1 4,-1 1,0 2,0 3,1 1,1 2,2 2,4l0 61zm30 -5l21 0c3,0 5,-1 7,-3 2,-2 3,-4 3,-7l0 -31c0,-3 -1,-5 -3,-7 -2,-2 -4,-3 -7,-3l-21 0 0 51zm0 10l0 25c0,2 0,3 -1,4 -1,1 -2,1 -4,1 -1,0 -2,0 -3,-1 -1,-1 -2,-2 -2,-4l0 -91c0,-3 2,-5 5,-5l26 0c5,0 10,2 14,6 4,4 6,9 6,14l0 31c0,5 -2,10 -6,14 -4,4 -9,6 -14,6l-21 0zm102 -20l0 -41 -20 0c-3,0 -6,1 -8,3 -1,1 -1,2 -2,3 0,1 -1,3 -1,4l0 31c0,3 1,5 3,7 1,1 2,2 4,2 1,1 2,1 4,1l10 0c3,0 5,-1 7,-3 2,-2 3,-4 3,-7zm5 13c-2,2 -4,4 -7,5 -3,1 -5,2 -8,2l-10 0c-6,0 -11,-2 -15,-6 -4,-4 -6,-9 -6,-14l0 -31c0,-5 2,-10 6,-14 4,-4 9,-6 15,-6l25 0c3,0 5,2 5,5l0 46c0,2 1,4 2,6 1,2 3,3 5,4 2,1 3,3 3,5 0,1 0,3 -1,4 -1,1 -2,1 -4,1 -1,0 -1,0 -2,0 -3,-2 -6,-4 -8,-7zm56 -54l-21 0 0 56c0,2 0,3 -1,4 -1,1 -2,1 -4,1 -1,0 -2,0 -3,-1 -1,-1 -2,-2 -2,-4l0 -61c0,-3 2,-5 5,-5l46 0c5,0 10,2 14,6 4,4 6,9 6,14l0 46c0,2 0,3 -1,4 -1,1 -2,1 -4,1 -1,0 -2,0 -3,-1 -1,-1 -2,-2 -2,-4l0 -46c0,-3 -1,-5 -3,-7 -2,-2 -4,-3 -7,-3l-10 0 0 56c0,2 -1,3 -2,4 -1,1 -2,1 -3,1 -2,0 -3,0 -4,-1 -1,-1 -1,-2 -1,-4l0 -56z"/>
     <path class="fil35 str4" d="M5627 4831l30 0 0 -11c0,-3 -1,-5 -3,-7 -2,-2 -4,-3 -7,-3l-10 0c-3,0 -5,1 -7,3 -1,1 -2,2 -3,3 0,2 0,3 0,4l0 11zm0 10l0 10c0,3 1,5 3,7 1,1 2,2 3,2 1,1 3,1 4,1l25 0c2,0 3,0 4,2 1,1 1,2 1,3 0,1 0,2 -1,3 -1,1 -2,2 -4,2l-25 0c-6,0 -10,-2 -14,-6 -4,-4 -6,-9 -6,-14l0 -31c0,-5 2,-10 5,-14 4,-4 9,-6 15,-6l10 0c6,0 10,2 14,6 4,4 6,9 6,14l0 16c0,3 -1,5 -5,5l-35 0zm111 25c0,2 0,3 -1,4 -1,1 -2,1 -4,1 -1,0 -2,0 -3,-1 -1,-1 -2,-2 -2,-4l0 -56 -11 0 -19 58c-1,1 -1,2 -2,2 -1,0 -1,1 -3,1 -1,0 -3,0 -4,-1 -1,-1 -1,-2 -1,-4l0 -2 20 -61c1,-2 3,-3 5,-3l20 0c4,0 5,2 5,5l0 61zm31 -26l0 21 20 0c3,0 6,-1 8,-3 1,-2 2,-5 2,-7 0,-3 -1,-6 -2,-7 -1,-1 -2,-2 -3,-3 -2,0 -3,-1 -5,-1l-20 0zm0 -10l20 0c6,0 12,2 15,7 4,4 5,8 5,14 0,5 -1,10 -5,14 -3,4 -9,6 -15,6l-25 0c-4,0 -5,-2 -5,-5l0 -61c0,-1 0,-3 1,-4 1,-1 2,-1 4,-1 1,0 2,0 3,1 1,1 2,2 2,4l0 25zm101 0l0 -25c0,-1 1,-3 2,-4 1,-1 2,-1 3,-1 2,0 3,0 4,1 1,1 1,2 1,4l0 61c0,2 0,3 -1,4 -1,1 -2,1 -4,1 -1,0 -2,0 -3,-1 -1,-1 -2,-2 -2,-4l0 -26 -30 0 0 26c0,2 -1,3 -2,4 -1,1 -2,1 -3,1 -2,0 -3,0 -4,-1 -1,-1 -1,-2 -1,-4l0 -61c0,-1 0,-3 1,-4 1,-1 2,-1 4,-1 1,0 2,0 3,1 1,1 2,2 2,4l0 25 30 0zm92 36c0,2 -1,3 -2,4 -1,1 -2,1 -4,1 -1,0 -2,0 -3,-1 -1,-1 -2,-2 -2,-4l0 -61c0,-1 1,-3 2,-4 1,-1 2,-1 3,-1 2,0 3,0 4,1 1,1 2,2 2,4l0 61zm-51 -26l0 21 10 0c3,0 6,-1 7,-3 2,-2 3,-5 3,-7 0,-3 -1,-6 -2,-7 -1,-1 -2,-2 -4,-3 -1,0 -2,-1 -4,-1l-10 0zm0 -10l10 0c6,0 11,2 15,7 4,4 5,8 5,14 0,5 -1,10 -5,14 -4,4 -9,6 -15,6l-15 0c-4,0 -5,-2 -5,-5l0 -61c0,-1 0,-3 1,-4 1,-1 2,-1 4,-1 1,0 2,0 3,1 1,1 2,2 2,4l0 25zm102 6l19 27 1 2 0 1c0,1 -1,3 -2,4l-1 0 -1 1 -2 0c-1,0 -2,-1 -4,-2l-16 -24 -16 24c-1,1 -2,2 -4,2 -1,0 -2,0 -3,-1 -2,-2 -2,-3 -2,-4 0,-1 0,-2 1,-3l18 -28 -18 -27 -1 -2 0 -1c0,-1 0,-3 1,-4 1,-1 3,-1 4,-1 2,0 3,1 4,2l16 24 16 -24c1,-1 3,-2 5,-2 1,0 2,0 3,1 1,2 2,3 2,4 0,1 -1,2 -1,3l-19 28zm152 30c0,2 -1,3 -2,4 -1,1 -2,1 -4,1 -1,0 -2,0 -3,-1 -1,-1 -2,-2 -2,-4l0 -46c0,-3 -1,-5 -2,-7 -2,-2 -5,-3 -8,-3l-20 0 0 56c0,2 -1,3 -2,4 -1,1 -2,1 -3,1 -2,0 -3,0 -4,-1 -1,-1 -1,-2 -1,-4l0 -61c0,-3 1,-5 5,-5l25 0c6,0 10,2 14,6 4,4 7,8 7,14l0 46zm30 -5l20 0c3,0 5,-1 7,-3 2,-2 3,-4 3,-7l0 -31c0,-3 -1,-5 -2,-7 -2,-2 -5,-3 -8,-3l-20 0 0 51zm0 10l0 25c0,2 -1,3 -2,4 -1,1 -2,1 -3,1 -1,0 -2,0 -4,-1 -1,-1 -1,-2 -1,-4l0 -91c0,-3 1,-5 5,-5l25 0c6,0 10,2 15,6 4,4 6,9 6,14l0 31c0,5 -2,10 -6,14 -4,4 -9,6 -15,6l-20 0zm101 -20l0 -41 -20 0c-3,0 -5,1 -7,3 -1,1 -2,2 -2,3 -1,1 -1,3 -1,4l0 31c0,3 1,5 3,7 1,1 2,2 3,2 2,1 3,1 4,1l10 0c3,0 5,-1 7,-3 2,-2 3,-4 3,-7zm5 13c-1,2 -3,4 -6,5 -3,1 -6,2 -9,2l-10 0c-5,0 -10,-2 -14,-6 -4,-4 -6,-9 -6,-14l0 -31c0,-5 2,-10 6,-14 4,-4 8,-6 14,-6l25 0c4,0 6,2 6,5l0 46c0,2 0,4 2,6 1,2 2,3 5,4 2,1 3,3 3,5 0,1 -1,3 -2,4 -1,1 -2,1 -3,1 -1,0 -2,0 -2,0 -4,-2 -6,-4 -9,-7zm66 -13l0 -31c0,-3 0,-5 -2,-7 -2,-2 -5,-3 -8,-3l-10 0c-3,0 -5,1 -7,3 -1,1 -2,2 -2,3 -1,2 -1,3 -1,4l0 31c0,3 1,5 3,7 1,1 2,2 3,2 2,1 3,1 4,1l10 0c3,0 6,-1 7,-3 2,-2 3,-4 3,-7zm-30 -47l4 -3 6 -4c2,-2 3,-3 4,-4 2,-2 2,-3 2,-5 0,-2 -1,-4 -2,-6 -2,-1 -4,-2 -6,-2 -2,0 -4,1 -6,2 -1,1 -2,3 -2,6l0 16zm20 -4c7,0 12,2 15,6 4,4 6,9 6,14l0 31c0,5 -2,10 -6,14 -4,4 -9,6 -15,6l-10 0c-5,0 -10,-2 -14,-6 -4,-4 -6,-9 -6,-14l0 -63c0,-6 2,-10 5,-14 4,-3 8,-4 13,-4 5,0 9,1 13,4 3,3 5,8 5,14 0,3 0,6 -1,7 -1,2 -2,4 -5,5zm-1184 228c0,4 -2,5 -5,5l-26 0c-5,0 -10,-2 -14,-5 -4,-4 -6,-9 -6,-15l0 -46c0,-1 0,-2 2,-3 1,-1 2,-2 3,-2 1,0 3,1 4,2 1,0 1,2 1,3l0 46c0,3 1,5 3,7 1,1 2,2 3,3 2,0 3,0 4,0l21 0 0 -56c0,-1 0,-2 1,-3 1,-1 2,-2 4,-2 1,0 2,1 3,2 1,0 2,2 2,3l0 61zm132 0c0,2 -1,3 -2,4 -1,1 -2,1 -3,1 -2,0 -3,0 -4,-1 -1,-1 -1,-2 -1,-4l0 -45c0,-3 -1,-6 -3,-8 -2,-2 -5,-3 -8,-3l-20 0 0 56c0,2 0,3 -1,4 -1,1 -3,1 -4,1 -1,0 -3,0 -4,-1 -1,-1 -1,-2 -1,-4l0 -61c0,-3 2,-5 5,-5l25 0c6,0 11,2 15,6 4,4 6,9 6,15l0 45zm30 -5l20 0c3,0 6,-1 8,-2 2,-2 3,-5 3,-8l0 -30c0,-3 -1,-6 -3,-8 -2,-2 -5,-3 -8,-3l-20 0 0 51zm0 10l0 26c0,1 -1,2 -2,3 -1,1 -2,2 -3,2 -1,0 -2,-1 -3,-1 -2,-1 -2,-3 -2,-4l0 -92c0,-3 2,-5 5,-5l25 0c6,0 11,2 15,6 4,4 6,9 6,15l0 30c0,6 -2,10 -6,14 -4,4 -9,6 -15,6l-20 0zm102 -20l0 -41 -21 0c-3,0 -5,1 -7,3 -1,1 -2,2 -2,4 -1,1 -1,2 -1,4l0 30c0,3 1,5 3,7 1,1 2,2 3,3 2,0 3,0 4,0l10 0c3,0 6,-1 8,-2 2,-2 3,-5 3,-8zm5 14c-2,2 -4,3 -7,5 -3,1 -6,1 -9,1l-10 0c-5,0 -10,-2 -14,-5 -4,-4 -6,-9 -6,-15l0 -30c0,-6 2,-11 6,-15 4,-4 9,-6 14,-6l26 0c3,0 5,2 5,5l0 46c0,2 0,4 2,6 1,2 3,4 5,5 2,1 3,2 3,4 0,2 -1,3 -2,4 0,1 -2,1 -3,1 -1,0 -2,0 -2,0 -4,-1 -6,-3 -8,-6zm66 -14l0 -30c0,-3 -1,-6 -3,-7 -2,-2 -5,-3 -8,-3l-10 0c-3,0 -5,1 -7,2 -1,1 -2,3 -2,4 -1,1 -1,2 -1,4l0 30c0,3 1,5 3,7 1,1 2,2 3,3 2,0 3,0 4,0l10 0c3,0 6,-1 8,-2 2,-2 3,-5 3,-8zm-31 -47l4 -3 6 -4c2,-1 4,-3 4,-4 2,-1 2,-3 2,-5 0,-2 0,-4 -2,-6 -2,-1 -4,-2 -6,-2 -2,0 -4,1 -6,2 -1,2 -2,4 -2,6l0 16zm20 -3c7,0 12,2 16,6 3,3 5,8 5,14l0 30c0,6 -2,10 -6,14 -4,4 -9,6 -15,6l-10 0c-5,0 -10,-2 -14,-5 -4,-4 -6,-9 -6,-15l0 -63c0,-5 2,-10 6,-13 3,-4 7,-5 12,-5 5,0 9,2 13,5 4,3 5,7 5,13 0,3 0,6 -1,8 -1,1 -2,3 -5,5zm82 50l0 -41 -21 0c-3,0 -5,1 -7,3 -1,1 -2,2 -2,4 -1,1 -1,2 -1,4l0 30c0,3 1,5 3,7 1,1 2,2 3,3 2,0 3,0 4,0l10 0c3,0 6,-1 8,-2 2,-2 3,-5 3,-8zm5 14c-2,2 -4,3 -7,5 -3,1 -6,1 -9,1l-10 0c-5,0 -10,-2 -14,-5 -4,-4 -6,-9 -6,-15l0 -30c0,-6 2,-11 6,-15 4,-4 9,-6 14,-6l26 0c3,0 5,2 5,5l0 46c0,2 0,4 2,6 1,2 3,4 5,5 2,1 3,2 3,4 0,2 -1,3 -2,4 0,1 -2,1 -3,1 -1,0 -2,0 -2,0 -4,-1 -6,-3 -8,-6zm127 -34l0 -26c0,-1 0,-2 1,-3 1,-1 2,-2 4,-2 1,0 2,1 3,2 1,0 2,2 2,3l0 61c0,2 -1,3 -2,4 -1,1 -2,1 -3,1 -2,0 -3,0 -4,-1 -1,-1 -1,-2 -1,-4l0 -25 -31 0 0 25c0,2 0,3 -1,4 -1,1 -3,1 -4,1 -1,0 -3,0 -4,-1 -1,-1 -1,-2 -1,-4l0 -61c0,-1 0,-2 1,-3 1,-1 3,-2 4,-2 1,0 2,1 3,2 1,0 2,2 2,3l0 26 31 0zm71 20l0 -41 -21 0c-3,0 -5,1 -7,3 -1,1 -2,2 -2,4 -1,1 -1,2 -1,4l0 30c0,3 1,5 3,7 1,1 2,2 3,3 2,0 3,0 4,0l10 0c3,0 6,-1 8,-2 2,-2 3,-5 3,-8zm5 14c-2,2 -4,3 -7,5 -3,1 -6,1 -9,1l-10 0c-5,0 -10,-2 -14,-5 -4,-4 -6,-9 -6,-15l0 -30c0,-6 2,-11 6,-15 4,-4 9,-6 14,-6l26 0c3,0 5,2 5,5l0 46c0,2 0,4 2,6 1,2 2,4 5,5 2,1 3,2 3,4 0,2 -1,3 -2,4 0,1 -2,1 -3,1 -1,0 -2,0 -2,0 -4,-1 -6,-3 -8,-6zm126 6l-20 0c-5,0 -10,-2 -14,-5 -4,-4 -6,-9 -6,-15l0 -46c0,-1 0,-2 1,-3 1,-1 3,-2 4,-2 1,0 2,1 3,2 1,0 2,2 2,3l0 46c0,3 1,5 3,7 1,1 2,2 3,3 2,0 3,0 4,0l20 0 0 -56c0,-1 1,-2 2,-3 1,-1 2,-2 4,-2 1,0 2,1 3,2 1,0 2,2 2,3l0 77c0,5 -2,10 -6,14 -4,4 -9,6 -15,6l-20 0c-1,0 -3,-1 -4,-2 -1,-1 -1,-2 -1,-3 0,-2 0,-3 1,-4 1,-1 2,-1 4,-1l20 0c3,0 6,-1 8,-3 1,-2 2,-4 2,-7l0 -11zm71 -40l0 -26c0,-1 1,-2 2,-3 1,-1 2,-2 4,-2 1,0 2,1 3,2 1,0 2,2 2,3l0 61c0,2 -1,3 -2,4 -1,1 -2,1 -3,1 -2,0 -3,0 -4,-1 -1,-1 -2,-2 -2,-4l0 -25 -20 0c-5,0 -10,-2 -14,-6 -4,-4 -6,-9 -6,-14l0 -16c0,-1 0,-2 1,-3 1,-1 3,-2 4,-2 1,0 2,1 3,2 1,0 2,2 2,3l0 16c0,2 1,5 3,7 1,1 2,1 3,2 2,1 3,1 4,1l20 0zm72 20l0 -41 -21 0c-3,0 -5,1 -7,3 -1,1 -2,2 -2,4 -1,1 -1,2 -1,4l0 30c0,3 1,5 3,7 1,1 2,2 3,3 2,0 3,0 4,0l10 0c3,0 6,-1 8,-2 2,-2 3,-5 3,-8zm4 14c-1,2 -3,3 -6,5 -3,1 -6,1 -9,1l-10 0c-5,0 -10,-2 -14,-5 -4,-4 -6,-9 -6,-15l0 -30c0,-6 2,-11 6,-15 4,-4 9,-6 14,-6l26 0c3,0 5,2 5,5l0 46c0,2 0,4 2,6 1,2 2,4 5,5 2,1 3,2 3,4 0,2 -1,3 -2,4 -1,1 -2,1 -3,1 -1,0 -2,0 -2,0 -4,-1 -6,-3 -9,-6zm61 6l-15 0c-5,0 -10,-2 -14,-5 -4,-4 -6,-9 -6,-15l0 -30c0,-6 2,-11 6,-15 4,-4 9,-6 14,-6l15 0c2,0 3,1 4,2 1,1 2,2 2,3 0,2 -1,3 -2,4 -1,1 -2,1 -4,1l-15 0c-3,0 -5,1 -7,3 -1,1 -2,2 -2,4 -1,1 -1,2 -1,4l0 30c0,3 1,5 3,7 1,1 2,2 3,3 2,0 3,0 4,0l15 0c2,0 3,1 4,2 1,1 2,2 2,3 0,2 -1,3 -2,4 -1,1 -2,1 -4,1zm56 -61l-20 0 0 56c0,2 -1,3 -2,4 -1,1 -2,1 -3,1 -2,0 -3,0 -4,-1 -1,-1 -1,-2 -1,-4l0 -61c0,-3 1,-5 5,-5l45 0c6,0 11,2 15,6 4,4 6,9 6,15l0 45c0,2 -1,3 -2,4 -1,1 -2,1 -3,1 -2,0 -3,0 -4,-1 -1,-1 -1,-2 -1,-4l0 -45c0,-3 -1,-6 -3,-8 -2,-2 -5,-3 -8,-3l-10 0 0 56c0,2 0,3 -1,4 -1,1 -2,1 -4,1 -1,0 -2,0 -3,-1 -1,-1 -2,-2 -2,-4l0 -56zm112 56c0,4 -2,5 -5,5l-26 0c-5,0 -10,-2 -14,-5 -4,-4 -6,-9 -6,-15l0 -46c0,-1 1,-2 2,-3 1,-1 2,-2 3,-2 1,0 3,1 4,2 1,0 1,2 1,3l0 46c0,3 1,5 3,7 1,1 2,2 3,3 2,0 3,0 4,0l21 0 0 -56c0,-1 0,-2 1,-3 1,-1 2,-2 4,-2 1,0 2,1 3,2 1,0 2,2 2,3l0 61zm30 -35l31 0 0 -10c0,-3 -1,-6 -3,-8 -2,-2 -4,-3 -7,-3l-11 0c-3,0 -5,1 -7,3 -1,1 -2,2 -2,4 -1,1 -1,2 -1,4l0 10zm0 10l0 10c0,3 1,5 3,7 1,1 2,2 3,3 2,0 3,0 4,0l26 0c1,0 2,1 3,2 1,1 2,2 2,3 0,2 -1,3 -1,4 -1,1 -3,1 -4,1l-26 0c-5,0 -10,-2 -14,-5 -4,-4 -6,-9 -6,-15l0 -30c0,-6 2,-11 6,-15 4,-4 9,-6 14,-6l11 0c5,0 10,2 14,6 4,4 6,9 6,15l0 15c0,3 -2,5 -5,5l-36 0zm-999 173l0 -31c0,-3 -1,-5 -3,-7 -2,-2 -4,-3 -7,-3l-10 0c-3,0 -6,1 -8,3 -1,1 -1,2 -2,3 0,1 -1,3 -1,4l0 31c0,2 1,5 3,7 1,1 2,1 4,2 1,0 2,1 4,1l10 0c3,0 5,-1 7,-3 2,-2 3,-4 3,-7zm-31 -48l5 -2 6 -5c2,-1 3,-2 4,-3 1,-2 2,-4 2,-5 0,-3 -1,-5 -3,-6 -1,-2 -3,-2 -5,-2 -3,0 -5,0 -6,2 -2,1 -3,3 -3,6l0 15zm21 -3c6,0 11,2 15,6 3,4 5,8 5,14l0 31c0,5 -2,10 -6,14 -4,4 -9,6 -14,6l-10 0c-6,0 -11,-2 -15,-6 -4,-4 -6,-9 -6,-14l0 -63c0,-6 2,-11 6,-14 3,-3 8,-5 13,-5 4,0 8,2 12,5 4,3 6,8 6,14 0,3 -1,5 -2,7 0,2 -2,3 -4,5zm111 61l21 0c2,0 5,-1 7,-3 2,-2 3,-4 3,-7l0 -31c0,-3 -1,-5 -3,-7 -2,-2 -4,-3 -7,-3l-21 0 0 51zm0 10l0 25c0,2 0,3 -1,4 -1,1 -2,1 -4,1 -1,0 -2,0 -3,-1 -1,-1 -2,-2 -2,-4l0 -91c0,-4 2,-5 5,-5l26 0c5,0 10,2 14,6 4,4 6,8 6,14l0 31c0,5 -2,10 -6,14 -4,4 -9,6 -14,6l-21 0z"/>
     <path class="fil35 str4" d="M5492 5155l31 0 0 -10c0,-3 -1,-5 -3,-7 -2,-2 -4,-3 -7,-3l-11 0c-2,0 -5,1 -7,3 -1,1 -2,2 -2,3 0,1 -1,3 -1,4l0 10zm0 10l0 11c0,2 1,5 3,7 1,1 2,1 3,2 2,0 3,1 4,1l26 0c1,0 2,0 3,1 1,1 2,3 2,4 0,1 0,2 -1,3 -1,1 -2,2 -4,2l-26 0c-5,0 -10,-2 -14,-6 -4,-4 -6,-9 -6,-14l0 -31c0,-5 2,-10 6,-14 4,-4 9,-6 14,-6l11 0c5,0 10,2 14,6 4,4 6,8 6,14l0 15c0,4 -2,5 -5,5l-36 0zm102 -30l0 51c5,0 10,-2 14,-6 4,-4 6,-9 6,-15l0 -10c0,-5 -2,-10 -6,-14 -4,-4 -9,-6 -14,-6zm-10 51l0 -51c-6,0 -11,2 -15,6 -4,4 -6,9 -6,14l0 10c0,6 2,11 6,15 4,4 9,6 15,6zm10 -61c8,0 15,3 21,9 6,5 9,13 9,21l0 10c0,9 -3,16 -9,22 -6,6 -13,9 -21,9l0 25c0,2 -1,3 -2,4 -1,1 -2,1 -3,1 -1,0 -3,0 -4,-1 -1,-1 -1,-2 -1,-4l0 -25c-9,0 -16,-3 -22,-9 -6,-6 -9,-13 -9,-22l0 -10c0,-8 3,-15 9,-21 6,-6 13,-9 22,-9l0 -16c0,-1 0,-2 1,-3 1,-1 2,-2 4,-2 1,0 2,1 3,2 1,1 2,2 2,3l0 16zm61 30l30 0 0 -10c0,-3 -1,-5 -3,-7 -2,-2 -4,-3 -7,-3l-10 0c-3,0 -5,1 -7,3 -1,1 -2,2 -3,3 0,1 0,3 0,4l0 10zm0 10l0 11c0,2 1,5 3,7 1,1 2,1 3,2 1,0 3,1 4,1l25 0c2,0 3,0 4,1 1,1 1,3 1,4 0,1 0,2 -1,3 -1,1 -2,2 -4,2l-25 0c-6,0 -10,-2 -14,-6 -4,-4 -6,-9 -6,-14l0 -31c0,-5 1,-10 5,-14 4,-4 9,-6 15,-6l10 0c5,0 10,2 14,6 4,4 6,8 6,14l0 15c0,4 -1,5 -5,5l-35 0zm71 21l20 0c3,0 5,-1 7,-3 2,-2 3,-4 3,-7l0 -31c0,-3 -1,-5 -3,-7 -2,-2 -4,-3 -7,-3l-20 0 0 51zm0 10l0 25c0,2 -1,3 -2,4 -1,1 -2,1 -3,1 -2,0 -3,0 -4,-1 -1,-1 -1,-2 -1,-4l0 -91c0,-4 1,-5 5,-5l25 0c6,0 10,2 14,6 4,4 6,8 6,14l0 31c0,5 -2,10 -6,14 -4,4 -8,6 -14,6l-20 0zm71 -41l30 0 0 -10c0,-3 -1,-5 -3,-7 -2,-2 -4,-3 -7,-3l-10 0c-3,0 -5,1 -7,3 -1,1 -2,2 -3,3 0,1 0,3 0,4l0 10zm0 10l0 11c0,2 1,5 3,7 1,1 2,1 3,2 1,0 3,1 4,1l25 0c2,0 3,0 4,1 1,1 1,3 1,4 0,1 0,2 -1,3 -1,1 -2,2 -4,2l-25 0c-6,0 -10,-2 -14,-6 -4,-4 -6,-9 -6,-14l0 -31c0,-5 2,-10 5,-14 4,-4 9,-6 15,-6l10 0c6,0 10,2 14,6 4,4 6,8 6,14l0 15c0,4 -1,5 -5,5l-35 0zm101 -10l0 -25c0,-2 1,-3 2,-4 1,-1 2,-1 3,-1 2,0 3,0 4,1 1,1 1,2 1,4l0 61c0,1 0,3 -1,4 -1,0 -2,1 -4,1 -1,0 -2,-1 -3,-1 -1,-1 -2,-3 -2,-4l0 -26 -30 0 0 26c0,1 -1,3 -2,4 -1,0 -2,1 -3,1 -2,0 -3,-1 -4,-1 -1,-1 -1,-3 -1,-4l0 -61c0,-2 0,-3 1,-4 1,-1 2,-1 4,-1 1,0 2,0 3,1 1,1 2,2 2,4l0 25 30 0zm71 -20l-20 0c-3,0 -5,1 -7,3 -1,1 -2,2 -3,3 0,1 0,3 0,4l0 31c0,2 1,5 3,7 1,1 2,1 3,2 1,0 3,1 4,1l10 0c3,0 5,-1 7,-3 2,-2 3,-4 3,-7l0 -41zm0 -10l0 -10c0,-3 -1,-6 -3,-8 -2,-2 -4,-3 -7,-3l-20 0c-2,0 -3,0 -4,-1 -1,-1 -1,-2 -1,-4 0,-1 0,-2 1,-3 1,-1 2,-2 4,-2l20 0c6,0 11,2 14,6 4,4 6,9 6,15l0 61c0,5 -2,10 -6,14 -4,4 -8,6 -14,6l-10 0c-6,0 -10,-2 -14,-6 -4,-4 -6,-9 -6,-14l0 -31c0,-6 2,-10 6,-14 4,-4 8,-6 14,-6l20 0zm71 71l-20 0c-6,0 -10,-2 -14,-6 -4,-4 -6,-9 -6,-14l0 -46c0,-2 0,-3 1,-4 1,-1 2,-1 4,-1 1,0 2,0 3,1 1,1 2,2 2,4l0 46c0,2 1,5 3,7 1,1 2,1 3,2 1,0 3,1 4,1l20 0 0 -56c0,-2 1,-3 2,-4 1,-1 2,-1 3,-1 2,0 3,0 4,1 1,1 1,2 1,4l0 76c0,5 -2,10 -6,14 -3,4 -8,6 -14,6l-20 0c-1,0 -3,0 -4,-1 -1,-1 -1,-2 -1,-4 0,-1 0,-2 1,-3 1,-1 2,-2 4,-2l20 0c3,0 5,-1 7,-3 2,-2 3,-4 3,-7l0 -10zm91 -5l0 -61c0,-2 0,-3 -1,-4 -1,-1 -2,-2 -3,-2 -2,0 -3,1 -5,3l-21 30 -21 -30c-2,-2 -3,-3 -5,-3 -1,0 -2,1 -3,2 -1,1 -1,2 -1,4l0 61c0,1 0,3 1,4 1,0 2,1 4,1 1,0 2,-1 3,-1 1,-1 2,-3 2,-4l0 -45 16 22c1,2 3,3 4,3 1,0 3,-1 4,-3l16 -22 0 45c0,1 1,3 2,4 1,0 2,1 3,1 2,0 3,-1 4,-1 1,-1 1,-3 1,-4zm31 -36l30 0 0 -10c0,-3 -1,-5 -2,-7 -2,-2 -5,-3 -8,-3l-10 0c-3,0 -5,1 -7,3 -1,1 -2,2 -2,3 -1,1 -1,3 -1,4l0 10zm0 10l0 11c0,2 1,5 3,7 1,1 2,1 3,2 2,0 3,1 4,1l25 0c2,0 3,0 4,1 1,1 2,3 2,4 0,1 -1,2 -2,3 -1,1 -2,2 -4,2l-25 0c-5,0 -10,-2 -14,-6 -4,-4 -6,-9 -6,-14l0 -31c0,-5 2,-10 6,-14 4,-4 8,-6 14,-6l10 0c6,0 11,2 15,6 4,4 6,8 6,14l0 15c0,4 -2,5 -6,5l-35 0zm-622 189c-2,1 -6,2 -10,3l-5 1 -6 0 -7 0 -6 -1c-4,0 -7,-2 -10,-5 -2,-3 -3,-6 -3,-10 0,-2 0,-4 1,-6 1,-3 2,-4 4,-6l33 -22c1,-1 1,-2 1,-3 0,-3 -1,-4 -5,-6 -3,-1 -7,-1 -11,-1 -4,0 -7,0 -9,0 -3,1 -5,2 -7,3 0,1 -2,1 -3,2 -1,0 -2,-1 -3,-2 -1,-1 -2,-2 -2,-4 0,-1 1,-3 2,-4 2,-1 6,-3 10,-4 2,0 4,-1 6,-1 2,0 5,0 7,0 1,0 2,0 4,0 1,0 2,0 4,0 1,0 3,1 5,1 4,1 7,3 9,6 3,3 4,6 4,9 0,4 -2,8 -6,12l-32 22c-2,1 -2,2 -2,4 0,1 0,2 1,3 1,1 2,2 3,2l6 1 6 0c4,0 7,0 9,0 1,-1 2,-1 4,-1 1,-1 2,-2 4,-2l1 -1c0,0 1,0 1,0 2,0 3,1 4,2 1,1 1,2 1,3 0,2 -1,3 -3,5zm33 -6l21 0c3,0 5,-1 7,-3 2,-2 3,-4 3,-7l0 -31c0,-2 -1,-5 -3,-7 -2,-2 -4,-3 -7,-3l-21 0 0 51zm0 10l0 26c0,1 0,2 -1,3 -1,1 -2,2 -4,2 -1,0 -2,-1 -3,-2 -1,0 -2,-2 -2,-3l0 -92c0,-3 2,-5 5,-5l26 0c5,0 10,2 14,6 4,4 6,9 6,14l0 31c0,5 -2,10 -6,14 -4,4 -9,6 -14,6l-21 0zm102 -20l0 -41 -20 0c-3,0 -6,1 -8,3 -1,1 -1,2 -2,3 0,2 -1,3 -1,4l0 31c0,3 1,5 3,7 1,1 2,2 4,2 1,1 2,1 4,1l10 0c3,0 5,-1 7,-3 2,-2 3,-4 3,-7zm5 14c-2,1 -4,3 -7,4 -3,2 -5,2 -8,2l-10 0c-6,0 -11,-2 -15,-6 -4,-4 -6,-8 -6,-14l0 -31c0,-5 2,-10 6,-14 4,-4 9,-6 15,-6l25 0c3,0 5,2 5,5l0 46c0,2 1,4 2,6 1,2 3,3 5,4 2,1 3,3 3,5 0,2 0,3 -1,4 -1,1 -2,1 -4,1 0,0 -1,0 -2,0 -3,-2 -6,-4 -8,-6zm67 -34l19 -29c1,0 1,-1 2,-1l1 -1 1 0c2,0 3,1 4,2 1,1 2,2 2,3 0,1 -1,2 -1,3l-19 28 19 27 0 2 1 1c0,1 -1,3 -2,4 -1,1 -2,1 -4,1 -1,0 -3,-1 -4,-2l-19 -28 -2 0 0 25c0,2 0,3 -1,4 -1,1 -3,1 -4,1 -1,0 -3,0 -4,-1 -1,-1 -1,-2 -1,-4l0 -25 -2 0 -19 28c-1,1 -1,1 -2,2l-2 0c-1,0 -3,0 -4,-1 -1,-1 -2,-2 -2,-4 0,-1 1,-2 1,-3l19 -27 -19 -28 -1 -1 0 -2c0,-1 1,-2 2,-3 1,-1 2,-2 4,-2 1,0 3,1 4,2l19 29 2 0 0 -26c0,-1 0,-2 1,-4 1,0 3,-1 4,-1 1,0 2,1 3,1 1,1 2,3 2,4l0 26 2 0zm90 -21l-20 0c-3,0 -5,1 -7,3 -1,1 -2,2 -2,3 -1,2 -1,3 -1,4l0 31c0,3 1,5 3,7 1,1 2,2 3,2 1,1 3,1 4,1l10 0c3,0 5,-1 7,-3 2,-2 3,-4 3,-7l0 -41zm0 -10l0 -10c0,-3 -1,-5 -3,-7 -1,-2 -4,-3 -7,-3l-20 0c-2,0 -3,-1 -4,-2 -1,-1 -1,-2 -1,-3 0,-1 0,-3 1,-4 1,-1 2,-1 4,-1l20 0c6,0 11,2 15,6 3,4 5,8 5,14l0 61c0,5 -2,10 -5,14 -4,4 -9,6 -15,6l-10 0c-5,0 -10,-2 -14,-6 -4,-4 -6,-8 -6,-14l0 -31c0,-5 2,-10 6,-14 4,-4 8,-6 14,-6l20 0zm71 51l0 -41 -20 0c-3,0 -5,1 -7,3 -1,1 -2,2 -2,3 -1,2 -1,3 -1,4l0 31c0,3 1,5 3,7 1,1 2,2 3,2 1,1 3,1 4,1l10 0c3,0 5,-1 7,-3 2,-2 3,-4 3,-7zm5 14c-1,1 -4,3 -6,4 -3,2 -6,2 -9,2l-10 0c-5,0 -10,-2 -14,-6 -4,-4 -6,-8 -6,-14l0 -31c0,-5 2,-10 6,-14 4,-4 8,-6 14,-6l25 0c4,0 5,2 5,5l0 46c0,2 1,4 2,6 2,2 3,3 5,4 3,1 4,3 4,5 0,2 -1,3 -2,4 -1,1 -2,1 -3,1 -1,0 -2,0 -2,0 -4,-2 -7,-4 -9,-6zm66 -34l0 -26c0,-1 1,-2 2,-4 1,0 2,-1 3,-1 2,0 3,1 4,1 1,1 1,3 1,4l0 61c0,2 0,3 -1,4 -1,1 -2,1 -4,1 -1,0 -2,0 -3,-1 -1,-1 -2,-2 -2,-4l0 -25 -30 0 0 25c0,2 -1,3 -2,4 -1,1 -2,1 -3,1 -2,0 -3,0 -4,-1 -1,-1 -1,-2 -1,-4l0 -61c0,-1 0,-2 1,-4 1,0 2,-1 4,-1 1,0 2,1 3,1 1,1 2,3 2,4l0 26 30 0zm-926 152l31 0c3,0 5,-1 7,-3 2,-2 3,-4 3,-7l0 -21c0,-2 -1,-5 -3,-7 -2,-2 -4,-3 -7,-3l-31 0 0 41zm0 10l0 36c0,1 0,2 -1,3 -1,1 -2,2 -4,2 -1,0 -2,-1 -3,-2 -1,0 -2,-2 -2,-3l0 -92c0,-3 2,-5 5,-5l36 0c6,0 10,2 14,6 4,4 6,9 6,14l0 21c0,5 -2,10 -6,14 -4,4 -8,6 -14,6l-31 0zm122 18c0,6 -2,12 -6,16 -4,4 -10,7 -16,7l-6 0c-6,0 -11,-3 -16,-7 -4,-4 -6,-9 -6,-16l0 -26c0,-6 2,-11 6,-16 4,-4 10,-6 16,-6l6 0c6,0 11,2 16,6 4,4 6,10 6,16l0 26zm-10 0l0 -26c0,-3 -1,-6 -3,-9 -3,-2 -6,-3 -9,-3l-6 0c-3,0 -6,1 -9,3 -2,3 -3,5 -3,9l0 26c0,4 1,7 3,9 3,2 5,4 9,4l6 0c3,0 6,-2 9,-4 2,-2 3,-5 3,-9zm66 23l-15 0c-6,0 -10,-2 -14,-6 -4,-4 -6,-9 -6,-15l0 -30c0,-6 2,-11 6,-15 4,-3 8,-5 14,-5l15 0c2,0 3,0 4,1 1,1 1,2 1,4 0,1 0,2 -1,3 -1,1 -2,2 -4,2l-15 0c-3,0 -5,1 -7,3 -1,1 -2,2 -3,3 0,1 0,2 0,4l0 30c0,3 1,6 3,8 1,1 2,1 3,2 1,0 3,1 4,1l15 0c2,0 3,0 4,1 1,1 1,2 1,4 0,1 0,2 -1,3 -1,1 -2,2 -4,2zm61 0l-15 0c-6,0 -10,-2 -14,-6 -5,-4 -7,-9 -7,-15l0 -30c0,-6 2,-11 6,-15 4,-3 9,-5 15,-5l15 0c1,0 3,0 4,1 1,1 1,2 1,4 0,1 0,2 -1,3 -1,1 -2,2 -4,2l-15 0c-3,0 -6,1 -8,3 -1,1 -1,2 -2,3 0,1 0,2 0,4l0 30c0,3 1,6 2,8 1,1 3,1 4,2 1,0 3,1 4,1l15 0c1,0 3,0 4,1 1,1 1,2 1,4 0,1 0,2 -1,3 -1,1 -2,2 -4,2zm76 -5c0,3 -2,5 -5,5l-25 0c-6,0 -11,-2 -15,-6 -4,-4 -6,-9 -6,-15l0 -45c0,-2 1,-3 2,-4 1,-1 2,-1 3,-1 2,0 3,0 4,1 1,1 1,2 1,4l0 45c0,3 1,6 3,8 1,1 2,1 4,2 1,0 2,1 4,1l20 0 0 -56c0,-2 1,-3 2,-4 1,-1 2,-1 3,-1 1,0 3,0 4,1 1,1 1,2 1,4l0 61zm56 -87l-20 0c-2,0 -3,0 -4,-1 -1,-1 -1,-3 -1,-4 0,-1 0,-2 1,-3 1,-1 2,-2 4,-2l20 0c1,0 2,1 3,2 1,1 2,2 2,3 0,1 0,2 -1,4 -1,1 -2,1 -4,1zm15 87c0,3 -2,5 -5,5l-25 0c-6,0 -11,-2 -15,-6 -4,-4 -6,-9 -6,-15l0 -45c0,-2 1,-3 2,-4 1,-1 2,-1 3,-1 2,0 3,0 4,1 1,1 1,2 1,4l0 45c0,3 1,6 3,8 1,1 2,1 4,2 1,0 2,1 4,1l20 0 0 -56c0,-2 1,-3 2,-4 1,-1 2,-1 3,-1 1,0 3,0 4,1 1,1 1,2 1,4l0 61zm56 5l-15 0c-6,0 -11,-2 -15,-6 -4,-4 -6,-9 -6,-15l0 -30c0,-6 2,-11 6,-15 4,-3 9,-5 15,-5l15 0c1,0 3,0 4,1 1,1 1,2 1,4 0,1 0,2 -1,3 -1,1 -2,2 -4,2l-15 0c-3,0 -6,1 -8,3 -1,1 -1,2 -2,3 0,1 -1,2 -1,4l0 30c0,3 1,6 3,8 1,1 2,1 4,2 1,0 2,1 4,1l15 0c1,0 3,0 4,1 1,1 1,2 1,4 0,1 0,2 -1,3 -1,1 -2,2 -4,2zm46 -34l-12 12 0 17c0,1 0,2 -1,3 -1,1 -2,2 -4,2 -1,0 -2,-1 -3,-2 -1,0 -2,-2 -2,-3l0 -61c0,-2 1,-3 2,-4 1,-1 2,-1 3,-1 2,0 3,0 4,1 1,1 1,2 1,4l0 30 33 -34c0,-1 2,-2 3,-2 1,0 2,1 3,2 1,1 2,2 2,4 0,1 -1,2 -2,4l-20 21 21 32c0,2 1,3 1,4 0,1 -1,2 -2,3 -1,1 -2,2 -3,2 -2,0 -3,-1 -4,-2l-20 -32zm96 11c0,6 -2,12 -7,16 -4,4 -9,7 -15,7l-7 0c-6,0 -11,-3 -15,-7 -5,-4 -7,-9 -7,-16l0 -26c0,-6 2,-11 7,-16 4,-4 9,-6 15,-6l7 0c6,0 11,2 15,6 5,4 7,10 7,16l0 26zm-10 0l0 -26c0,-3 -1,-6 -4,-9 -2,-2 -5,-3 -8,-3l-7 0c-3,0 -6,1 -8,3 -3,3 -4,5 -4,9l0 26c0,4 1,7 4,9 2,2 5,4 8,4l7 0c3,0 6,-2 8,-4 3,-2 4,-5 4,-9z"/>
     <path class="fil35 str4" d="M5693 5429l-21 0c-1,0 -2,0 -3,-1 -1,-1 -2,-3 -2,-4 0,-1 1,-2 2,-3 0,-1 2,-2 3,-2l21 0c1,0 2,1 3,2 1,1 2,2 2,3 0,1 -1,2 -2,4 0,1 -2,1 -3,1zm15 87c0,3 -2,5 -5,5l-26 0c-5,0 -10,-2 -14,-6 -4,-4 -6,-9 -6,-15l0 -45c0,-2 1,-3 2,-4 1,-1 2,-1 3,-1 1,0 3,0 4,1 1,1 1,2 1,4l0 45c0,3 1,6 3,8 1,1 2,1 3,2 2,0 3,1 4,1l21 0 0 -56c0,-2 0,-3 1,-4 1,-1 3,-1 4,-1 1,0 2,0 3,1 1,1 2,2 2,4l0 61zm127 -72l0 46 5 0c5,0 10,-2 14,-6 4,-4 6,-8 6,-14l0 -5c0,-6 -2,-10 -6,-15 -4,-4 -9,-6 -14,-6l-5 0zm-10 46l0 -46 -6 0c-5,0 -10,2 -14,6 -4,4 -6,9 -6,15l0 5c0,6 2,10 6,14 4,4 9,6 14,6l6 0zm0 10l-6 0c-8,0 -15,-3 -21,-8 -6,-6 -9,-14 -9,-22l0 -5c0,-8 3,-16 9,-22 6,-6 13,-9 21,-9l6 0 0 -10c0,-1 0,-2 1,-4 1,0 2,-1 4,-1 1,0 2,1 3,1 1,1 2,2 2,4l0 10 5 0c8,0 15,3 21,9 3,3 5,6 7,10 1,4 2,8 2,12l0 5c0,8 -3,15 -9,21 -6,6 -13,9 -21,9l-5 0 0 16c0,1 -1,2 -2,3 -1,1 -2,2 -3,2 -2,0 -3,-1 -4,-2 -1,0 -1,-2 -1,-3l0 -16zm76 -20l30 0 0 -10c0,-3 -1,-5 -3,-7 -2,-2 -4,-3 -7,-3l-10 0c-3,0 -5,1 -7,3 -1,1 -2,2 -3,3 0,1 0,2 0,4l0 10zm0 10l0 10c0,3 1,6 3,8 1,1 2,1 3,2 1,0 3,1 4,1l25 0c2,0 3,0 4,1 1,1 1,2 1,4 0,1 0,2 -1,3 -1,1 -2,2 -4,2l-25 0c-6,0 -10,-2 -14,-6 -4,-4 -6,-9 -6,-15l0 -30c0,-6 1,-10 5,-14 4,-4 9,-6 15,-6l10 0c5,0 10,2 14,5 4,4 6,9 6,15l0 15c0,4 -1,5 -5,5l-35 0zm101 -30l-20 0c-3,0 -5,1 -7,3 -1,1 -2,2 -3,3 0,1 0,2 0,4l0 30c0,3 1,6 3,8 1,1 2,1 3,2 1,0 3,1 4,1l10 0c3,0 5,-1 7,-3 2,-2 3,-5 3,-8l0 -40zm0 -10l0 -11c0,-2 -1,-5 -3,-7 -2,-2 -4,-3 -7,-3l-20 0c-2,0 -3,0 -4,-1 -1,-1 -1,-3 -1,-4 0,-1 0,-2 1,-3 1,-1 2,-2 4,-2l20 0c6,0 10,2 14,6 4,4 6,9 6,14l0 61c0,6 -2,11 -6,15 -4,4 -8,6 -14,6l-10 0c-6,0 -10,-2 -14,-6 -4,-4 -6,-9 -6,-15l0 -30c0,-6 2,-11 6,-15 3,-3 8,-5 14,-5l20 0zm41 30l30 0 0 -10c0,-3 -1,-5 -3,-7 -2,-2 -4,-3 -7,-3l-10 0c-3,0 -5,1 -7,3 -1,1 -2,2 -3,3 0,1 0,2 0,4l0 10zm0 10l0 10c0,3 1,6 3,8 1,1 2,1 3,2 1,0 3,1 4,1l25 0c2,0 3,0 4,1 1,1 1,2 1,4 0,1 0,2 -1,3 -1,1 -2,2 -4,2l-25 0c-6,0 -10,-2 -14,-6 -4,-4 -6,-9 -6,-15l0 -30c0,-6 2,-10 5,-14 4,-4 9,-6 15,-6l10 0c6,0 10,2 14,5 4,4 6,9 6,15l0 15c0,4 -1,5 -5,5l-35 0zm71 21l20 0c3,0 5,-1 7,-3 2,-2 3,-5 3,-8l0 -30c0,-3 -1,-5 -3,-7 -2,-2 -4,-3 -7,-3l-20 0 0 51zm0 10l0 25c0,1 -1,3 -2,4 -1,1 -2,1 -3,1 -2,0 -3,0 -4,-1 -1,-1 -1,-2 -1,-4l0 -91c0,-4 1,-5 5,-5l25 0c6,0 10,2 14,5 4,4 6,9 6,15l0 30c0,6 -2,11 -6,15 -4,4 -8,6 -14,6l-20 0zm101 -21l0 -40 -20 0c-3,0 -5,1 -7,3 -1,1 -2,2 -3,3 0,1 0,2 0,4l0 30c0,3 1,6 3,8 1,1 2,1 3,2 1,0 3,1 4,1l10 0c3,0 5,-1 7,-3 2,-2 3,-5 3,-8zm5 14c-1,2 -4,3 -6,5 -3,1 -6,2 -9,2l-10 0c-6,0 -10,-2 -14,-6 -4,-4 -6,-9 -6,-15l0 -30c0,-6 2,-11 6,-15 4,-3 8,-5 14,-5l25 0c4,0 5,1 5,5l0 45c0,2 1,4 2,6 1,2 3,4 5,5 2,1 4,2 4,4 0,2 -1,3 -2,4 -1,1 -2,2 -3,2 -1,0 -2,-1 -3,-1 -3,-1 -6,-3 -8,-6zm66 -3l0 -56c0,-2 1,-3 2,-4 1,-1 2,-1 3,-1 2,0 3,0 4,1 1,1 1,2 1,4l0 56 5 0c4,0 5,1 5,5l0 9c0,1 0,2 -1,3 -1,1 -2,2 -4,2 -1,0 -2,-1 -3,-1 -1,-1 -2,-3 -2,-4l0 -4 -30 0c-6,0 -10,-2 -14,-6 -4,-4 -6,-9 -6,-15l0 -45c0,-2 0,-3 1,-4 1,-1 2,-1 4,-1 1,0 2,0 3,1 1,1 2,2 2,4l0 45c0,3 1,6 3,8 1,1 2,1 3,2 1,0 3,1 4,1l20 0zm81 5c0,3 -1,5 -5,5l-25 0c-6,0 -10,-2 -14,-6 -4,-4 -6,-9 -6,-15l0 -45c0,-2 0,-3 1,-4 1,-1 2,-1 4,-1 1,0 2,0 3,1 1,1 2,2 2,4l0 45c0,3 1,6 3,8 1,1 2,1 3,2 1,0 3,1 4,1l20 0 0 -56c0,-2 1,-3 2,-4 1,-1 2,-1 3,-1 2,0 3,0 4,1 1,1 1,2 1,4l0 61zm71 0c0,3 -1,5 -5,5l-25 0c-5,0 -10,-2 -14,-6 -4,-4 -6,-9 -6,-15l0 -45c0,-2 0,-3 1,-4 1,-1 2,-1 4,-1 1,0 2,0 3,1 1,1 2,2 2,4l0 45c0,3 1,6 3,8 1,1 2,1 3,2 1,0 3,1 4,1l20 0 0 -56c0,-2 1,-3 2,-4 1,-1 2,-1 3,-1 2,0 3,0 4,1 1,1 1,2 1,4l0 61z"/>
    </g>
   </g>
  </g>
 </g>
</svg>
