<?xml version="1.0" encoding="UTF-8"?>
<!DOCTYPE svg PUBLIC "-//W3C//DTD SVG 1.0//EN" "http://www.w3.org/TR/2001/REC-SVG-20010904/DTD/svg10.dtd">
<!-- Creator: CorelDRAW X7 -->
<svg xmlns="http://www.w3.org/2000/svg" xml:space="preserve" width="115mm" height="70.122mm" version="1.0" style="shape-rendering:geometricPrecision; text-rendering:geometricPrecision; image-rendering:optimizeQuality; fill-rule:evenodd; clip-rule:evenodd"
viewBox="0 0 11500 7012"
 xmlns:xlink="http://www.w3.org/1999/xlink">
 <defs>
  <style type="text/css">
   <![CDATA[
    .str0 {stroke:#38959F;stroke-width:8.76524}
    .fil7 {fill:#FEFEFE}
    .fil50 {fill:#FCFBFB}
    .fil4 {fill:#F19321}
    .fil9 {fill:#FAFBFB}
    .fil51 {fill:#F6F8F9}
    .fil10 {fill:#F6F5F6}
    .fil52 {fill:#F3F3F3}
    .fil84 {fill:#EFF1F3}
    .fil11 {fill:#EFEFF0}
    .fil53 {fill:#EDEDEF}
    .fil12 {fill:#EBEAEC}
    .fil54 {fill:#E9E9EC}
    .fil13 {fill:#E7E5E7}
    .fil82 {fill:#E4E4E8}
    .fil5 {fill:#E3E1E0}
    .fil14 {fill:#E0E0E3}
    .fil55 {fill:#DFDEDF}
    .fil15 {fill:#DCDBDE}
    .fil56 {fill:#DAD9DB}
    .fil16 {fill:#D8D6D9}
    .fil17 {fill:#D4D3D4}
    .fil57 {fill:#D4D1D3}
    .fil80 {fill:#D0D2D5}
    .fil87 {fill:#D0D0D3}
    .fil18 {fill:#CDCED0}
    .fil19 {fill:#C9C9CB}
    .fil58 {fill:#C8C6C8}
    .fil20 {fill:#C5C3C5}
    .fil89 {fill:#C5DDA6}
    .fil59 {fill:#C1C1C4}
    .fil21 {fill:#C1BFC1}
    .fil60 {fill:#BEBCBF}
    .fil81 {fill:#BDBDC1}
    .fil22 {fill:#BDBCBD}
    .fil23 {fill:#B6B6BA}
    .fil61 {fill:#B4B4B7}
    .fil24 {fill:#B2B0B4}
    .fil62 {fill:#ADACB1}
    .fil25 {fill:#ADACB0}
    .fil63 {fill:#A9A9AD}
    .fil26 {fill:#A7A5A9}
    .fil64 {fill:#A7A5A8}
    .fil27 {fill:#A5A3A7}
    .fil65 {fill:#A2A1A4}
    .fil28 {fill:#A19EA2}
    .fil66 {fill:#9B9A9D}
    .fil29 {fill:#99989C}
    .fil67 {fill:#99989A}
    .fil30 {fill:#979598}
    .fil85 {fill:#94979C}
    .fil68 {fill:#949396}
    .fil2 {fill:#89CCC6}
    .fil31 {fill:#929093}
    .fil69 {fill:#918F92}
    .fil32 {fill:#8F8B8F}
    .fil70 {fill:#8F8B8D}
    .fil33 {fill:#89878B}
    .fil71 {fill:#898789}
    .fil34 {fill:#858386}
    .fil72 {fill:#827E81}
    .fil35 {fill:#807D80}
    .fil90 {fill:#7F7B7F}
    .fil73 {fill:#7F7B7E}
    .fil36 {fill:#7D787B}
    .fil6 {fill:#252626}
    .fil74 {fill:#79777A}
    .fil37 {fill:#777477}
    .fil38 {fill:#716F72}
    .fil75 {fill:#706D70}
    .fil39 {fill:#6D6B6F}
    .fil76 {fill:#6C686B}
    .fil86 {fill:#6A676A}
    .fil40 {fill:#6A666A}
    .fil91 {fill:#696567}
    .fil92 {fill:#686467}
    .fil77 {fill:#686466}
    .fil41 {fill:#676365}
    .fil93 {fill:#656265}
    .fil94 {fill:#646264}
    .fil78 {fill:#625F62}
    .fil42 {fill:#625E60}
    .fil79 {fill:#615E5F}
    .fil43 {fill:#5C595B}
    .fil44 {fill:#5A5556}
    .fil45 {fill:#545052}
    .fil46 {fill:#504C4E}
    .fil47 {fill:#4B484A}
    .fil48 {fill:#484444}
    .fil88 {fill:#4A484B}
    .fil49 {fill:#444141}
    .fil83 {fill:#312C2C}
    .fil1 {fill:#23364B}
    .fil8 {fill:#3696A0}
    .fil3 {fill:#FEFEFE}
    .fil0 {fill:url(#id0)}
   ]]>
  </style>
  <radialGradient id="id0" gradientUnits="userSpaceOnUse" gradientTransform="matrix(1.17124 -0 -0 1.92083 -985 -3229)" cx="5750" cy="3506.1" r="3506.1" fx="5750" fy="3506.1">
   <stop offset="0" style="stop-opacity:1; stop-color:#FEFEFE"/>
   <stop offset="0.439216" style="stop-opacity:1; stop-color:#FEFEFE"/>
   <stop offset="1" style="stop-opacity:1; stop-color:#D1E2F2"/>
  </radialGradient>
 </defs>
 <g id="Layer_x0020_1">
  <metadata id="CorelCorpID_0Corel-Layer"/>
  <path class="fil0" d="M0 0l11500 0 0 7012 -11500 0 0 -7012z"/>
  <path class="fil1" d="M4346 5830c-12,66 -74,111 -140,100l0 0c-66,-11 -110,-74 -99,-140l28 -218c11,-66 73,-56 139,-45l0 0c66,11 157,38 146,104l-74 199z"/>
  <path class="fil1" d="M6902 5830c11,66 74,111 140,100l0 0c66,-11 110,-74 99,-140l-28 -218c-11,-66 -73,-56 -139,-45l0 0c-66,11 -157,38 -146,104l74 199z"/>
  <path class="fil1" d="M5477 3680c0,182 -147,330 -329,330 -182,0 -330,-148 -330,-330 0,-182 148,-330 330,-330 182,0 329,148 329,330z"/>
  <path class="fil1" d="M7486 5282c0,236 -191,428 -428,428l-2869 0c-236,0 -427,-192 -427,-428l0 -1369c0,-237 191,-428 427,-428l2869 0c237,0 428,191 428,428l0 1369z"/>
  <path class="fil2" d="M6249 3748l-1817 0c-236,0 -428,191 -428,428l0 954c0,133 61,252 156,330l2393 -1585c-77,-79 -185,-127 -304,-127z"/>
  <path class="fil3" d="M4160 5460c74,61 169,98 272,98l1817 0c237,0 428,-192 428,-428l0 -955c0,-117 -47,-223 -124,-300l-2393 1585z"/>
  <path class="fil4" d="M6911 4150c0,36 -29,64 -65,64 -35,0 -64,-28 -64,-64 0,-36 29,-65 64,-65 36,0 65,29 65,65z"/>
  <path class="fil4" d="M7134 4150c0,36 -29,64 -65,64 -35,0 -64,-28 -64,-64 0,-36 29,-65 64,-65 36,0 65,29 65,65z"/>
  <path class="fil4" d="M7357 4150c0,36 -29,64 -65,64 -35,0 -64,-28 -64,-64 0,-36 29,-65 64,-65 36,0 65,29 65,65z"/>
  <path class="fil5" d="M7369 4406l-587 0 0 -94 587 0 0 94z"/>
  <path class="fil5" d="M7369 4618l-587 0 0 -93 587 0 0 93z"/>
  <path class="fil5" d="M7369 4831l-587 0 0 -94 587 0 0 94z"/>
  <path class="fil5" d="M7369 5043l-587 0 0 -93 587 0 0 93z"/>
  <g id="_286334766464">
   <path class="fil6" d="M5201 4515c0,-1 0,-1 1,-2 0,2 1,4 1,4 0,0 -1,-1 -2,-2zm774 636c-10,-51 -402,-263 -402,-270 0,-7 -21,-14 -24,-23 -24,-85 19,-204 19,-204 0,0 -1,1 11,0 11,-2 39,-112 38,-134 -1,-19 -18,-21 -23,-21 2,-19 10,-112 10,-123 0,-13 0,-25 0,-25 0,0 -7,-17 -7,-25 -1,-8 -3,-65 -11,-84 -8,-20 -48,-35 -48,-35l0 0c-11,-12 -24,-23 -40,-31 0,0 0,0 0,0 -17,-17 -47,-17 -58,-21 -11,-5 -4,-13 -4,-13 0,0 -7,2 -15,3 -9,2 -9,-10 -9,-10 -39,7 -72,16 -95,25 0,0 0,0 0,0 -6,2 -48,15 -48,15 0,0 -13,0 -19,0 -6,1 -21,11 -27,26 -6,15 -24,14 -35,31 -6,10 -1,25 5,37 -1,18 4,44 -3,51 -9,9 -18,19 -18,19l1 13c0,0 -4,15 0,18 4,4 6,13 1,36 -4,19 12,80 20,106 -5,-1 -10,-1 -19,2 -23,7 22,88 29,139 5,38 33,17 33,17 0,0 34,143 -8,195 -2,1 -9,0 -9,0 0,0 -324,206 -404,254 -80,49 -67,249 -67,249l1238 0c0,0 -2,-167 -12,-217z"/>
   <path class="fil7" d="M5327 5372l-94 -503 1 -12 172 95 147 -89 22 13 -84 492 -164 4z"/>
   <path class="fil6" d="M5406 4952l-56 92 26 29 -29 295 133 0 -42 -295 24 -27 -56 -94z"/>
   <path class="fil8 str0" d="M4889 3961l65 -64c2,-2 4,-2 6,-2 2,0 3,0 5,2 2,2 3,3 3,6 0,1 -1,3 -3,5l-46 46 48 83 1 4c0,2 -1,4 -3,6 -1,1 -3,2 -5,2 -3,0 -5,-1 -7,-4l-45 -81 -19 19 0 58c0,3 0,5 -2,6 -1,1 -3,2 -5,2 -2,0 -4,-1 -6,-2 -1,-1 -2,-3 -2,-6l0 -139c0,-2 1,-4 2,-5 2,-2 4,-2 6,-2 2,0 4,0 5,1 2,2 2,4 2,6l0 59zm136 49l-12 34c0,1 -1,3 -2,4 -1,0 -3,1 -5,1 -2,0 -3,-1 -5,-2 -2,-2 -3,-3 -3,-6l1 -2 46 -139c2,-5 4,-7 8,-7 3,0 5,2 7,7l46 139 1 2c0,2 -1,4 -3,6 -2,1 -3,2 -5,2 -1,0 -2,0 -4,-1 -1,0 -2,-2 -3,-4l-11 -34 -56 0zm50 -15l-22 -68 -23 68 45 0zm138 -39l0 -54c0,-2 1,-4 3,-5 1,-2 3,-2 5,-2 2,0 4,0 5,2 2,1 3,3 3,5l0 139c0,2 -1,4 -3,6 -1,1 -3,2 -5,2 -2,0 -4,-1 -5,-2 -2,-1 -3,-3 -3,-6l0 -69 -61 0 0 69c0,3 -1,5 -3,6 -1,1 -3,2 -5,2 -2,0 -4,-1 -5,-2 -2,-1 -3,-3 -3,-6l0 -139c0,-2 1,-4 3,-5 1,-2 3,-2 5,-2 2,0 4,0 5,2 2,1 3,3 3,5l0 54 61 0zm63 78l15 -133c0,-4 2,-6 7,-6l46 0c6,0 8,2 8,7l0 132 8 0c5,0 8,2 8,7l0 16c0,2 -1,4 -3,5 -1,2 -3,2 -5,2 -2,0 -3,0 -5,-2 -2,-1 -3,-3 -3,-5l0 -8 -77 0 0 8c0,2 -1,4 -2,5 -2,2 -4,2 -6,2 -1,0 -3,0 -5,-2 -2,-1 -2,-3 -2,-5l0 -16c0,-5 2,-7 7,-7l9 0zm61 0l0 -124 -32 0 -14 124 46 0zm154 7c0,3 -1,5 -2,6 -2,1 -3,2 -6,2 -2,0 -4,-1 -5,-2 -2,-1 -2,-3 -2,-6l0 -109 -63 113c-1,2 -2,3 -3,4l-2 1c-1,0 -1,0 -2,0 -2,0 -4,-1 -6,-2 -1,-2 -2,-4 -2,-7l0 -139c0,-2 1,-4 3,-5 1,-2 3,-2 5,-2 2,0 4,0 5,2 2,1 3,3 3,5l0 110 62 -113c1,-2 2,-3 4,-4 1,-1 3,-2 4,-2 2,0 3,1 5,3 1,2 2,4 2,6l0 139zm47 -7l15 -133c0,-4 2,-6 7,-6l47 0c5,0 7,2 7,7l0 132 8 0c5,0 8,2 8,7l0 16c0,2 -1,4 -2,5 -2,2 -4,2 -6,2 -2,0 -3,0 -5,-2 -2,-1 -2,-3 -2,-5l0 -8 -78 0 0 8c0,2 -1,4 -2,5 -2,2 -4,2 -5,2 -2,0 -4,0 -6,-2 -1,-1 -2,-3 -2,-5l0 -16c0,-5 2,-7 8,-7l8 0zm61 0l0 -124 -32 0 -14 124 46 0zm89 -24l-11 34c-1,1 -2,3 -3,4 -1,0 -3,1 -4,1 -3,0 -4,-1 -6,-2 -2,-2 -2,-3 -2,-6l0 -2 47 -139c1,-5 3,-7 7,-7 3,0 6,2 7,7l46 139 1 2c0,2 -1,4 -3,6 -1,1 -3,2 -5,2 -1,0 -2,0 -4,-1 -1,0 -2,-2 -3,-4l-11 -34 -56 0zm51 -15l-23 -68 -23 68 46 0zm68 -85l-31 0c-2,0 -4,-1 -5,-2 -2,-2 -2,-4 -2,-6 0,-1 0,-3 2,-5 1,-2 3,-2 5,-2l77 0c3,0 4,0 6,2 1,2 2,3 2,5 0,2 -1,4 -2,5 -1,2 -3,3 -6,3l-30 0 0 131c0,3 -1,5 -3,6 -1,1 -3,2 -5,2 -2,0 -4,-1 -6,-2 -1,-1 -2,-3 -2,-6l0 -131z"/>
  </g>
  <g id="_286424154096">
   <path class="fil7" d="M6539 2911c-63,0 -123,-1 -177,-3l0 -1c54,2 114,3 177,3 258,0 468,-21 468,-47 0,-12 -45,-23 -118,-31 0,-1 0,-1 0,-2 79,9 127,20 127,33 0,26 -213,48 -477,48z"/>
   <path class="fil9" d="M6539 2910c-63,0 -123,-1 -177,-3l0 -2c54,3 114,4 177,4 253,0 458,-21 458,-46 0,-12 -41,-22 -109,-30 0,0 0,-1 1,-1 73,8 118,19 118,31 0,26 -210,47 -468,47z"/>
   <path class="fil10" d="M6539 2909c-63,0 -123,-1 -177,-4l0 -1c54,3 114,4 177,4 247,0 448,-20 448,-45 0,-11 -37,-21 -99,-28 0,-1 0,-1 0,-2 68,8 109,18 109,30 0,25 -205,46 -458,46z"/>
   <path class="fil11" d="M6539 2908c-63,0 -123,-1 -177,-4l0 -1c54,3 114,4 177,4 242,0 438,-20 438,-44 0,-10 -33,-20 -90,-27 0,0 0,-1 1,-1 62,7 99,17 99,28 0,25 -201,45 -448,45z"/>
   <path class="fil12" d="M6539 2907c-63,0 -123,-1 -177,-4l0 -1c54,3 113,4 177,4 236,0 428,-19 428,-43 0,-10 -30,-18 -81,-25 1,-1 1,-1 1,-2 57,7 90,17 90,27 0,24 -196,44 -438,44z"/>
   <path class="fil13" d="M6539 2906c-64,0 -123,-1 -177,-4l0 -1c53,3 113,4 177,4 231,0 419,-19 419,-42 0,-9 -27,-17 -72,-24 0,0 0,-1 0,-1 51,7 81,15 81,25 0,24 -192,43 -428,43z"/>
   <path class="fil14" d="M6539 2905c-64,0 -124,-1 -177,-4l0 -1c53,3 113,4 177,4 226,0 409,-18 409,-41 0,-8 -23,-16 -63,-22 0,-1 1,-1 1,-2 45,7 72,15 72,24 0,23 -188,42 -419,42z"/>
   <path class="fil15" d="M6539 2904c-64,0 -124,-1 -177,-4l0 -1c53,3 113,4 177,4 220,0 399,-18 399,-40 0,-8 -20,-14 -54,-20 0,-1 1,-1 1,-2 40,6 63,14 63,22 0,23 -183,41 -409,41z"/>
   <path class="fil16" d="M6539 2903c-64,0 -124,-1 -177,-4l0 -1c53,2 113,4 177,4 215,0 389,-17 389,-39 0,-7 -16,-13 -45,-19 0,0 1,-1 1,-1 34,6 54,12 54,20 0,22 -179,40 -399,40z"/>
   <path class="fil17" d="M6539 2902c-64,0 -124,-2 -177,-4l0 -1c52,2 113,4 177,4 209,0 379,-17 379,-38 0,-6 -13,-12 -36,-17 0,0 0,-1 1,-2 29,6 45,12 45,19 0,22 -174,39 -389,39z"/>
   <path class="fil18" d="M6539 2901c-64,0 -125,-2 -177,-4l0 -1c52,2 113,4 177,4 204,0 369,-17 369,-37 0,-5 -10,-10 -28,-14 1,-1 1,-2 2,-3 23,5 36,11 36,17 0,21 -170,38 -379,38z"/>
   <path class="fil19" d="M6539 2900c-64,0 -125,-2 -177,-4l0 -2c52,3 112,5 177,5 198,0 360,-16 360,-36 0,-4 -8,-8 -21,-12 1,-1 1,-2 2,-2 18,4 28,9 28,14 0,20 -165,37 -369,37z"/>
   <path class="fil20" d="M6539 2899c-65,0 -125,-2 -177,-5l0 -1c52,3 112,5 177,5 193,0 350,-16 350,-35 0,-3 -5,-7 -13,-10 1,-1 1,-1 2,-2 13,4 21,8 21,12 0,20 -162,36 -360,36z"/>
   <path class="fil21" d="M6539 2898c-65,0 -125,-2 -177,-5l0 -1c51,3 112,5 177,5 188,0 340,-15 340,-34 0,-2 -2,-5 -7,-7 2,-1 3,-2 4,-3 8,3 13,7 13,10 0,19 -157,35 -350,35z"/>
   <path class="fil22" d="M6539 2897c-65,0 -126,-2 -177,-5l0 -1c51,3 112,5 177,5 182,0 330,-15 330,-33 0,-1 0,-2 -1,-3 1,-1 3,-3 4,-4 5,2 7,5 7,7 0,19 -152,34 -340,34z"/>
   <path class="fil23" d="M6539 2896c-65,0 -126,-2 -177,-5l0 -1c50,3 111,5 177,5 175,0 317,-14 320,-32 3,-1 6,-2 9,-3 1,1 1,2 1,3 0,18 -148,33 -330,33z"/>
   <path class="fil24" d="M6539 2895c-66,0 -127,-2 -177,-5l0 -1c50,3 111,5 177,5 161,0 294,-12 309,-28 4,0 8,-1 11,-3 -3,18 -145,32 -320,32z"/>
   <path class="fil25" d="M6539 2894c-66,0 -127,-2 -177,-5l0 -2c49,4 110,6 177,6 155,0 283,-12 299,-27l6 0c1,0 3,0 4,0 -15,16 -148,28 -309,28z"/>
   <path class="fil26" d="M6539 2893c-67,0 -128,-2 -177,-6l0 -1c49,4 110,6 177,6 149,0 273,-11 289,-26l10 0c-16,15 -144,27 -299,27z"/>
   <path class="fil27" d="M6539 2892c-67,0 -128,-2 -177,-6l0 -1c48,4 110,6 177,6 144,0 263,-11 279,-25l3 0 7 0c-16,15 -140,26 -289,26z"/>
   <path class="fil28" d="M6539 2891c-67,0 -129,-2 -177,-6l0 -1c47,4 109,6 177,6 139,0 253,-10 269,-24l10 0c-16,14 -135,25 -279,25z"/>
   <path class="fil29" d="M6539 2890c-68,0 -130,-2 -177,-6l0 -2c46,5 108,7 177,7 133,0 243,-10 259,-23l10 0c-16,14 -130,24 -269,24z"/>
   <path class="fil30" d="M6539 2889c-69,0 -131,-2 -177,-7l0 -1c45,4 108,7 177,7 128,0 233,-9 249,-22l10 0c-16,13 -126,23 -259,23z"/>
   <path class="fil31" d="M6539 2888c-69,0 -132,-3 -177,-7l0 -2c44,5 107,8 177,8 122,0 223,-9 239,-21l10 0c-16,13 -121,22 -249,22z"/>
   <path class="fil32" d="M6539 2887c-70,0 -133,-3 -177,-8l0 -1c42,5 106,8 177,8 117,0 214,-8 230,-20l9 0c-16,12 -117,21 -239,21z"/>
   <path class="fil33" d="M6539 2886c-71,0 -135,-3 -177,-8l0 -2c40,6 104,9 177,9 111,0 204,-8 220,-19l10 0c-16,12 -113,20 -230,20z"/>
   <path class="fil34" d="M6539 2885c-73,0 -137,-3 -177,-9l0 -1c38,5 103,9 177,9 106,0 194,-8 210,-18l10 0c-16,11 -109,19 -220,19z"/>
   <path class="fil35" d="M6539 2884c-74,0 -139,-4 -177,-9l0 -2c34,6 101,10 177,10 100,0 184,-7 200,-17l10 0c-16,10 -104,18 -210,18z"/>
   <path class="fil36" d="M6539 2883c-76,0 -143,-4 -177,-10l0 -2c29,6 97,11 177,11 95,0 174,-7 190,-16l10 0c-16,10 -100,17 -200,17z"/>
   <path class="fil37" d="M6539 2882c-80,0 -148,-5 -177,-11l0 -3c21,7 92,13 177,13 90,0 164,-6 180,-15l10 0c-16,9 -95,16 -190,16z"/>
   <path class="fil38" d="M6539 2881c-85,0 -156,-6 -177,-13l0 -2 6 0c16,8 86,14 171,14 84,0 155,-6 170,-14l10 0c-16,9 -90,15 -180,15z"/>
   <path class="fil39" d="M6539 2880c-85,0 -155,-6 -171,-14l10 0c15,8 82,13 161,13 79,0 145,-5 160,-13l10 0c-15,8 -86,14 -170,14z"/>
   <path class="fil40" d="M6539 2879c-79,0 -146,-5 -161,-13l10 0c16,7 77,12 151,12 73,0 135,-5 150,-12l10 0c-15,8 -81,13 -160,13z"/>
   <path class="fil41" d="M6539 2878c-74,0 -135,-5 -151,-12l10 0c15,7 72,11 141,11 68,0 125,-4 140,-11l10 0c-15,7 -77,12 -150,12z"/>
   <path class="fil42" d="M6539 2877c-69,0 -126,-4 -141,-11l11 0c14,6 67,10 130,10 62,0 115,-4 130,-10l10 0c-15,7 -72,11 -140,11z"/>
   <path class="fil43" d="M6539 2876c-63,0 -116,-4 -130,-10l10 0c14,5 62,9 120,9 57,0 105,-4 119,-9l11 0c-15,6 -68,10 -130,10z"/>
   <path class="fil44" d="M6539 2875c-58,0 -106,-4 -120,-9l10 0c14,5 58,8 110,8 51,0 95,-3 109,-8l10 0c-14,5 -62,9 -119,9z"/>
   <path class="fil45" d="M6539 2874c-52,0 -96,-3 -110,-8l10 0c14,4 53,7 100,7 46,0 85,-3 99,-7l10 0c-14,5 -58,8 -109,8z"/>
   <path class="fil46" d="M6539 2873c-47,0 -86,-3 -100,-7l11 0c13,4 48,6 89,6 41,0 75,-2 89,-6l10 0c-14,4 -53,7 -99,7z"/>
   <path class="fil47" d="M6539 2872c-41,0 -76,-2 -89,-6l10 0c13,3 43,5 79,5 35,0 65,-2 78,-5l11 0c-14,4 -48,6 -89,6z"/>
   <path class="fil48" d="M6539 2871c-36,0 -66,-2 -79,-5l11 0c12,3 38,4 68,4 29,0 55,-1 67,-4l11 0c-13,3 -43,5 -78,5z"/>
   <path class="fil49" d="M6539 2870c-30,0 -56,-1 -68,-4l135 0c-12,3 -38,4 -67,4z"/>
   <path class="fil7" d="M5551 2871c-444,0 -805,-15 -805,-33 0,-18 361,-32 805,-32 144,0 278,1 395,4l0 1c-116,-3 -251,-4 -395,-4 -435,0 -789,14 -789,31 0,18 354,32 789,32 144,0 279,-1 395,-4l0 1c-117,3 -251,4 -395,4z"/>
   <path class="fil50" d="M5551 2870c-435,0 -789,-14 -789,-32 0,-17 354,-31 789,-31 144,0 279,1 395,4l0 1c-116,-3 -250,-5 -395,-5 -426,0 -772,14 -772,31 0,18 346,32 772,32 145,0 279,-2 395,-5l0 1c-116,3 -251,4 -395,4z"/>
   <path class="fil51" d="M5551 2870c-426,0 -772,-14 -772,-32 0,-17 346,-31 772,-31 145,0 279,2 395,5l0 0c-115,-3 -250,-4 -395,-4 -417,0 -755,14 -755,30 0,17 338,31 755,31 145,0 280,-2 395,-4l0 0c-116,3 -250,5 -395,5z"/>
   <path class="fil52" d="M5551 2869c-417,0 -755,-14 -755,-31 0,-16 338,-30 755,-30 145,0 280,1 395,4l0 1c-114,-3 -250,-5 -395,-5 -408,0 -739,14 -739,30 0,17 331,30 739,30 145,0 281,-1 395,-4l0 1c-115,2 -250,4 -395,4z"/>
   <path class="fil53" d="M5551 2868c-408,0 -739,-13 -739,-30 0,-16 331,-30 739,-30 145,0 281,2 395,5l0 1c-113,-3 -249,-5 -395,-5 -399,0 -722,13 -722,29 0,17 323,30 722,30 146,0 282,-2 395,-5l0 1c-114,3 -250,4 -395,4z"/>
   <path class="fil54" d="M5551 2868c-399,0 -722,-13 -722,-30 0,-16 323,-29 722,-29 146,0 282,2 395,5l0 1c-113,-3 -248,-5 -395,-5 -390,0 -706,13 -706,28 0,16 316,29 706,29 147,0 282,-2 395,-5l0 1c-113,3 -249,5 -395,5z"/>
   <path class="fil13" d="M5551 2867c-390,0 -706,-13 -706,-29 0,-15 316,-28 706,-28 147,0 282,2 395,5l0 0c-112,-3 -248,-5 -395,-5 -380,0 -689,13 -689,28 0,16 309,28 689,28 147,0 283,-1 395,-5l0 1c-113,3 -248,5 -395,5z"/>
   <path class="fil14" d="M5551 2866c-380,0 -689,-12 -689,-28 0,-15 309,-28 689,-28 147,0 283,2 395,5l0 1c-111,-3 -247,-5 -395,-5 -371,0 -673,12 -673,27 0,15 302,28 673,28 148,0 284,-2 395,-5l0 0c-112,4 -248,5 -395,5z"/>
   <path class="fil55" d="M5551 2866c-371,0 -673,-13 -673,-28 0,-15 302,-27 673,-27 148,0 284,2 395,5l0 1c-110,-3 -246,-5 -395,-5 -362,0 -656,12 -656,26 0,15 294,27 656,27 149,0 285,-2 395,-5l0 1c-111,3 -247,5 -395,5z"/>
   <path class="fil56" d="M5551 2865c-362,0 -656,-12 -656,-27 0,-14 294,-26 656,-26 149,0 285,2 395,5l0 1c-109,-3 -246,-6 -395,-6 -353,0 -640,12 -640,26 0,15 287,26 640,26 149,0 286,-2 395,-5l0 1c-110,3 -246,5 -395,5z"/>
   <path class="fil16" d="M5551 2864c-353,0 -640,-11 -640,-26 0,-14 287,-26 640,-26 149,0 286,3 395,6l0 1c-108,-4 -245,-6 -395,-6 -344,0 -623,12 -623,25 0,14 279,26 623,26 150,0 287,-2 395,-6l0 1c-109,3 -246,5 -395,5z"/>
   <path class="fil57" d="M5551 2864c-344,0 -623,-12 -623,-26 0,-13 279,-25 623,-25 150,0 287,2 395,6l0 1c-106,-4 -244,-6 -395,-6 -335,0 -606,11 -606,24 0,14 271,25 606,25 151,0 289,-2 395,-6l0 1c-108,4 -245,6 -395,6z"/>
   <path class="fil18" d="M5551 2863c-335,0 -606,-11 -606,-25 0,-13 271,-24 606,-24 151,0 289,2 395,6l0 1c-105,-4 -243,-6 -395,-6 -326,0 -590,10 -590,23 0,14 264,24 590,24 152,0 290,-2 395,-6l0 1c-106,4 -244,6 -395,6z"/>
   <path class="fil19" d="M5551 2862c-326,0 -590,-10 -590,-24 0,-13 264,-23 590,-23 152,0 290,2 395,6l0 1c-103,-4 -242,-7 -395,-7 -316,0 -573,11 -573,23 0,13 257,24 573,24 153,0 292,-3 395,-7l0 1c-105,4 -243,6 -395,6z"/>
   <path class="fil58" d="M5551 2862c-316,0 -573,-11 -573,-24 0,-12 257,-23 573,-23 153,0 292,3 395,7l0 1c-101,-5 -240,-7 -395,-7 -307,0 -557,10 -557,22 0,13 250,23 557,23 155,0 294,-2 395,-7l0 1c-103,4 -242,7 -395,7z"/>
   <path class="fil59" d="M5551 2861c-307,0 -557,-10 -557,-23 0,-12 250,-22 557,-22 155,0 294,2 395,7l0 0c-99,-4 -239,-6 -395,-6 -298,0 -540,9 -540,21 0,13 242,22 540,22 156,0 296,-2 395,-7l0 1c-101,5 -240,7 -395,7z"/>
   <path class="fil60" d="M5551 2860c-298,0 -540,-9 -540,-22 0,-12 242,-21 540,-21 156,0 296,2 395,6l0 1c-96,-4 -237,-7 -395,-7 -289,0 -524,10 -524,21 0,12 235,22 524,22 158,0 299,-3 395,-8l0 1c-99,5 -239,7 -395,7z"/>
   <path class="fil22" d="M5551 2860c-289,0 -524,-10 -524,-22 0,-11 235,-21 524,-21 158,0 299,3 395,7l0 2c-93,-5 -235,-8 -395,-8 -280,0 -507,9 -507,20 0,12 227,21 507,21 160,0 302,-3 395,-8l0 1c-96,5 -237,8 -395,8z"/>
   <path class="fil23" d="M5551 2859c-280,0 -507,-9 -507,-21 0,-11 227,-20 507,-20 160,0 302,3 395,8l0 1c-90,-5 -233,-8 -395,-8 -271,0 -491,8 -491,19 0,11 220,20 491,20 162,0 305,-3 395,-8l0 1c-93,5 -235,8 -395,8z"/>
   <path class="fil61" d="M5551 2858c-271,0 -491,-9 -491,-20 0,-11 220,-19 491,-19 162,0 305,3 395,8l0 1c-85,-5 -230,-9 -395,-9 -262,0 -474,9 -474,19 0,11 212,20 474,20 165,0 310,-4 395,-9l0 1c-90,5 -233,8 -395,8z"/>
   <path class="fil62" d="M5551 2858c-262,0 -474,-9 -474,-20 0,-10 212,-19 474,-19 165,0 310,4 395,9l0 1c-80,-5 -227,-9 -395,-9 -252,0 -457,8 -457,18 0,11 205,19 457,19 168,0 315,-4 395,-9l0 1c-85,5 -230,9 -395,9z"/>
   <path class="fil63" d="M5551 2857c-252,0 -457,-8 -457,-19 0,-10 205,-18 457,-18 168,0 315,4 395,9l0 1c-73,-5 -222,-9 -395,-9 -243,0 -441,8 -441,17 0,10 198,18 441,18 173,0 322,-4 395,-9l0 1c-80,5 -227,9 -395,9z"/>
   <path class="fil64" d="M5551 2856c-243,0 -441,-8 -441,-18 0,-9 198,-17 441,-17 173,0 322,4 395,9l0 2c-63,-6 -216,-11 -395,-11 -234,0 -424,8 -424,17 0,10 190,18 424,18 179,0 332,-5 395,-11l0 2c-73,5 -222,9 -395,9z"/>
   <path class="fil65" d="M5551 2856c-234,0 -424,-8 -424,-18 0,-9 190,-17 424,-17 179,0 332,5 395,11l0 2c-47,-7 -206,-12 -395,-12 -225,0 -408,7 -408,16 0,10 183,17 408,17 189,0 348,-5 395,-12l0 2c-63,6 -216,11 -395,11z"/>
   <path class="fil28" d="M5551 2855c-225,0 -408,-7 -408,-17 0,-9 183,-16 408,-16 189,0 348,5 395,12l0 9c-47,7 -206,12 -395,12zm0 -32c-216,0 -391,7 -391,15 0,9 175,16 391,16 217,0 392,-7 392,-16 0,-8 -175,-15 -392,-15z"/>
   <path class="fil66" d="M5551 2854c-216,0 -391,-7 -391,-16 0,-8 175,-15 391,-15 217,0 392,7 392,15 0,9 -175,16 -392,16zm0 -31c-207,0 -375,7 -375,15 0,9 168,16 375,16 208,0 376,-7 376,-16 0,-8 -168,-15 -376,-15z"/>
   <path class="fil67" d="M5551 2854c-207,0 -375,-7 -375,-16 0,-8 168,-15 375,-15 208,0 376,7 376,15 0,9 -168,16 -376,16zm0 -30c-197,0 -358,6 -358,14 0,8 161,15 358,15 199,0 359,-7 359,-15 0,-8 -160,-14 -359,-14z"/>
   <path class="fil68" d="M5551 2853c-197,0 -358,-7 -358,-15 0,-8 161,-14 358,-14 199,0 359,6 359,14 0,8 -160,15 -359,15zm0 -28c-188,0 -341,6 -341,13 0,8 153,14 341,14 189,0 342,-6 342,-14 0,-7 -153,-13 -342,-13z"/>
   <path class="fil69" d="M5551 2852c-188,0 -341,-6 -341,-14 0,-7 153,-13 341,-13 189,0 342,6 342,13 0,8 -153,14 -342,14zm0 -27c-179,0 -325,6 -325,13 0,8 146,14 325,14 180,0 326,-6 326,-14 0,-7 -146,-13 -326,-13z"/>
   <path class="fil70" d="M5551 2852c-179,0 -325,-6 -325,-14 0,-7 146,-13 325,-13 180,0 326,6 326,13 0,8 -146,14 -326,14zm0 -26c-170,0 -308,6 -308,12 0,7 138,13 308,13 171,0 309,-6 309,-13 0,-6 -138,-12 -309,-12z"/>
   <path class="fil71" d="M5551 2851c-170,0 -308,-6 -308,-13 0,-6 138,-12 308,-12 171,0 309,6 309,12 0,7 -138,13 -309,13zm0 -24c-161,0 -292,5 -292,11 0,7 131,12 292,12 162,0 293,-5 293,-12 0,-6 -131,-11 -293,-11z"/>
   <path class="fil34" d="M5551 2850c-161,0 -292,-5 -292,-12 0,-6 131,-11 292,-11 162,0 293,5 293,11 0,7 -131,12 -293,12zm0 -23c-152,0 -275,5 -275,11 0,7 123,12 275,12 153,0 276,-5 276,-12 0,-6 -123,-11 -276,-11z"/>
   <path class="fil72" d="M5551 2850c-152,0 -275,-5 -275,-12 0,-6 123,-11 275,-11 153,0 276,5 276,11 0,7 -123,12 -276,12zm0 -22c-143,0 -259,5 -259,10 0,6 116,11 259,11 144,0 260,-5 260,-11 0,-5 -116,-10 -260,-10z"/>
   <path class="fil73" d="M5551 2849c-143,0 -259,-5 -259,-11 0,-5 116,-10 259,-10 144,0 260,5 260,10 0,6 -116,11 -260,11zm0 -20c-133,0 -242,4 -242,9 0,6 109,10 242,10 134,0 243,-4 243,-10 0,-5 -109,-9 -243,-9z"/>
   <path class="fil74" d="M5551 2848c-133,0 -242,-4 -242,-10 0,-5 109,-9 242,-9 134,0 243,4 243,9 0,6 -109,10 -243,10zm0 -19c-124,0 -226,4 -226,9 0,6 102,10 226,10 125,0 227,-4 227,-10 0,-5 -102,-9 -227,-9z"/>
   <path class="fil37" d="M5551 2848c-124,0 -226,-4 -226,-10 0,-5 102,-9 226,-9 125,0 227,4 227,9 0,6 -102,10 -227,10zm0 -18c-115,0 -209,4 -209,8 0,5 94,9 209,9 116,0 210,-4 210,-9 0,-4 -94,-8 -210,-8z"/>
   <path class="fil38" d="M5551 2847c-115,0 -209,-4 -209,-9 0,-4 94,-8 209,-8 116,0 210,4 210,8 0,5 -94,9 -210,9zm0 -16c-106,0 -192,3 -192,7 0,5 86,8 192,8 107,0 193,-3 193,-8 0,-4 -86,-7 -193,-7z"/>
   <path class="fil75" d="M5551 2846c-106,0 -192,-3 -192,-8 0,-4 86,-7 192,-7 107,0 193,3 193,7 0,5 -86,8 -193,8zm0 -15c-97,0 -176,3 -176,7 0,4 79,8 176,8 98,0 177,-4 177,-8 0,-4 -79,-7 -177,-7z"/>
   <path class="fil76" d="M5551 2846c-97,0 -176,-4 -176,-8 0,-4 79,-7 176,-7 98,0 177,3 177,7 0,4 -79,8 -177,8zm0 -14c-88,0 -159,3 -159,6 0,4 71,7 159,7 89,0 160,-3 160,-7 0,-3 -71,-6 -160,-6z"/>
   <path class="fil77" d="M5551 2845c-88,0 -159,-3 -159,-7 0,-3 71,-6 159,-6 89,0 160,3 160,6 0,4 -71,7 -160,7zm0 -12c-79,0 -143,2 -143,5 0,4 64,6 143,6 80,0 144,-2 144,-6 0,-3 -64,-5 -144,-5z"/>
   <path class="fil78" d="M5551 2844c-79,0 -143,-2 -143,-6 0,-3 64,-5 143,-5 80,0 144,2 144,5 0,4 -64,6 -144,6zm0 -11c-69,0 -126,3 -126,5 0,3 57,6 126,6 70,0 127,-3 127,-6 0,-2 -57,-5 -127,-5z"/>
   <path class="fil79" d="M5551 2844c-69,0 -126,-3 -126,-6 0,-2 57,-5 126,-5 70,0 127,3 127,5 0,3 -57,6 -127,6z"/>
   <path class="fil80" d="M5816 2791l-561 0 81 -378 399 0 81 378z"/>
   <path class="fil81" d="M5781 2627l-46 -214 -399 0 -46 214 491 0z"/>
   <path class="fil82" d="M5933 2835l-795 0c-43,0 -49,-56 -49,-56l893 0c0,0 -6,56 -49,56z"/>
   <path class="fil83" d="M6588 2337c0,52 -42,93 -93,93l-1919 0c-51,0 -93,-41 -93,-93l0 -1115c0,-51 42,-93 93,-93l1919 0c51,0 93,42 93,93l0 1115z"/>
   <path class="fil82" d="M4483 2312l0 183c0,51 42,93 93,93l1919 0c51,0 93,-42 93,-93l0 -183 -2105 0z"/>
   <path class="fil84" d="M6520 2229l-1969 0 0 -1012 1969 0 0 1012z"/>
   <path class="fil85" d="M5603 2445c0,37 -30,67 -67,67 -38,0 -68,-30 -68,-67 0,-37 30,-67 68,-67 37,0 67,30 67,67z"/>
   <path class="fil86" d="M6174 2312l-298 0 -50 -83 348 0 0 83zm414 -471l-68 0 0 -624 -1305 0 -52 -86 1332 0c51,0 93,41 93,93l0 617z"/>
   <path class="fil53" d="M5946 2428l-70 -116 298 0 0 57 -187 0 -1 0c-17,0 -31,9 -38,23l1 2c-2,5 -3,10 -3,16l0 18z"/>
   <path class="fil87" d="M5750 2103l-12 -20 12 0 0 20z"/>
   <path class="fil83" d="M6220 2866c-25,0 -46,-21 -46,-46l0 -932c0,-26 21,-47 46,-47l624 0c25,0 46,21 46,47l0 932c0,25 -21,46 -46,46l-624 0z"/>
   <path class="fil84" d="M6223 2766l0 -825 618 0 0 825 -618 0z"/>
   <path class="fil88" d="M6580 2819c0,9 -7,17 -17,17l-53 0c-9,0 -17,-8 -17,-17 0,-9 8,-17 17,-17l53 0c10,0 17,8 17,17z"/>
   <path class="fil89" d="M6218 1841c1,0 2,0 2,0 0,0 -1,0 -2,0z"/>
   <path class="fil86" d="M6844 2866l-16 0 -7 0 -60 -100 80 0 0 -825 -579 0 -58 -97c5,-1 9,-2 14,-3 1,0 2,0 2,0l0 0 624 0c25,0 46,21 46,47l0 932c0,25 -21,46 -46,46z"/>
   <path class="fil83" d="M6362 3048c0,23 -19,41 -41,41l-334 0c-23,0 -41,-18 -41,-41l0 -638c0,-23 18,-41 41,-41l334 0c22,0 41,18 41,41l0 638z"/>
   <path class="fil84" d="M6336 2988l-364 0 0 -529 364 0 0 529z"/>
   <path class="fil88" d="M6169 2419c0,8 -7,15 -15,15 -9,0 -16,-7 -16,-15 0,-8 7,-15 16,-15 8,0 15,7 15,15z"/>
   <path class="fil88" d="M6197 3039c0,9 -7,17 -17,17l-53 0c-9,0 -17,-8 -17,-17 0,-9 8,-17 17,-17l53 0c10,0 17,8 17,17z"/>
   <path class="fil52" d="M5949 2394l-1 -2c7,-14 21,-23 38,-23l1 0c-17,0 -31,10 -38,25z"/>
   <path class="fil86" d="M6358 3062c-2,0 -4,0 -6,-1l-44 -73 28 0 0 -529 -347 0 -40 -65c7,-15 21,-25 38,-25l332 0c23,0 41,18 41,41l0 638c0,5 -1,9 -2,14zm-204 -658c-9,0 -16,7 -16,15 0,8 7,15 16,15 8,0 15,-7 15,-15 0,-8 -7,-15 -15,-15z"/>
   <path class="fil10" d="M6336 2988l-28 0 -14 -23 25 0 0 -184 -136 0 -12 -21 148 0 0 -132 -229 0 -13 -22 242 0 0 -59 -277 0 -11 -18 288 0 0 -53 -320 0 -10 -17 347 0 0 529z"/>
   <path class="fil90" d="M6154 2434c-9,0 -16,-7 -16,-15 0,-8 7,-15 16,-15 8,0 15,7 15,15 0,8 -7,15 -15,15z"/>
   <path class="fil7" d="M6151 3122c-190,0 -345,-15 -345,-34 0,-11 56,-20 142,-26 0,0 0,0 1,0 -83,6 -136,16 -136,26 0,18 152,33 338,33 187,0 338,-15 338,-33 0,-10 -51,-19 -130,-25 0,-1 0,-1 0,-1 84,6 137,16 137,26 0,19 -154,34 -345,34z"/>
   <path class="fil83" d="M6359 3063c-1,0 -1,0 -2,0 0,-1 1,-1 1,-1 0,0 1,0 1,0 0,0 0,0 0,1zm-410 -1c-1,0 -1,0 -1,0 50,-4 110,-6 176,-7 1,1 2,1 3,1l53 0c1,0 3,0 4,-1 62,1 120,3 168,6l1 1c-56,-4 -126,-6 -202,-6 -76,0 -146,2 -202,6z"/>
   <path class="fil88" d="M6180 3056l-53 0c-1,0 -2,0 -3,-1 9,0 18,0 27,0 11,0 22,0 33,0 -1,1 -3,1 -4,1z"/>
   <path class="fil86" d="M6357 3063c-1,-1 -3,-1 -4,-1l-1 -1c2,1 4,1 6,1 0,0 -1,0 -1,1z"/>
   <path class="fil9" d="M6151 3121c-186,0 -338,-15 -338,-33 0,-10 53,-20 136,-26 0,1 0,1 0,1 -78,6 -129,15 -129,25 0,18 149,32 331,32 183,0 331,-14 331,-32 0,-10 -48,-19 -124,-24 1,-1 1,-1 1,-1 79,6 130,15 130,25 0,18 -151,33 -338,33z"/>
   <path class="fil83" d="M6358 3064c0,0 -1,-1 -1,-1 0,0 0,0 0,0 1,0 1,0 2,0 0,0 0,0 -1,1zm-409 -1c0,0 0,0 0,-1 56,-4 126,-6 202,-6 76,0 146,2 202,6l0 1c-55,-4 -126,-6 -202,-6 -76,0 -146,2 -202,6z"/>
   <path class="fil91" d="M6357 3063c-1,0 -2,0 -4,0l0 -1c1,0 3,0 4,1 0,0 0,0 0,0z"/>
   <path class="fil10" d="M6151 3120c-182,0 -331,-14 -331,-32 0,-10 51,-19 129,-25 0,0 0,1 0,1 -74,6 -121,14 -121,24 0,18 144,31 323,31 179,0 324,-13 324,-31 0,-9 -45,-18 -117,-24 0,0 0,0 0,0 76,5 124,14 124,24 0,18 -148,32 -331,32z"/>
   <path class="fil83" d="M6358 3064c0,0 -1,0 -1,0 0,0 0,0 0,-1 0,0 1,1 1,1 0,0 0,0 0,0zm-4 0c-56,-4 -126,-7 -203,-7 -76,0 -146,3 -202,7 0,0 0,-1 0,-1 56,-4 126,-6 202,-6 76,0 147,2 202,6l1 1z"/>
   <path class="fil92" d="M6357 3064c-1,0 -2,0 -3,0l-1 -1c2,0 3,0 4,0 0,1 0,1 0,1z"/>
   <path class="fil11" d="M6151 3119c-179,0 -323,-13 -323,-31 0,-10 47,-18 121,-24 0,0 1,1 1,1 -71,5 -115,14 -115,23 0,17 141,31 316,31 175,0 317,-14 317,-31 0,-9 -43,-17 -110,-23 0,0 0,0 0,-1 72,6 117,15 117,24 0,18 -145,31 -324,31z"/>
   <path class="fil83" d="M6358 3065c-1,0 -1,0 -2,0 0,0 1,0 1,-1 0,0 1,0 1,0 0,1 0,1 0,1zm-3 0c-55,-4 -126,-7 -204,-7 -76,0 -147,3 -201,7 0,0 -1,-1 -1,-1 56,-4 126,-7 202,-7 77,0 147,3 203,7l1 1z"/>
   <path class="fil93" d="M6356 3065c0,0 -1,0 -1,0l-1 -1c1,0 2,0 3,0 0,1 -1,1 -1,1z"/>
   <path class="fil12" d="M6151 3119c-175,0 -316,-14 -316,-31 0,-9 44,-18 115,-23 0,0 0,0 0,1 -66,5 -108,13 -108,22 0,17 138,30 309,30 171,0 310,-13 310,-30 0,-8 -40,-16 -104,-22 0,0 1,0 1,-1 67,6 110,14 110,23 0,17 -142,31 -317,31z"/>
   <path class="fil83" d="M6357 3066c0,0 -1,0 -1,0 0,0 0,-1 0,-1 1,0 1,0 2,0 0,1 -1,1 -1,1zm-2 0c-54,-5 -126,-7 -204,-7 -77,0 -147,2 -201,7 0,-1 0,-1 0,-1 54,-4 125,-7 201,-7 78,0 149,3 204,7l0 1z"/>
   <path class="fil93" d="M6356 3066c0,0 -1,0 -1,0l0 -1c0,0 1,0 1,0 0,0 0,1 0,1z"/>
   <path class="fil13" d="M6151 3118c-171,0 -309,-13 -309,-30 0,-9 42,-17 108,-22 0,0 0,0 0,1 -62,5 -101,13 -101,21 0,16 135,29 302,29 167,0 303,-13 303,-29 0,-8 -37,-16 -97,-21 0,0 0,-1 0,-1 64,6 104,14 104,22 0,17 -139,30 -310,30z"/>
   <path class="fil83" d="M6357 3067c-54,-5 -126,-8 -206,-8 -77,0 -147,3 -201,8 0,-1 0,-1 0,-1 54,-5 124,-7 201,-7 78,0 150,2 204,7l1 1c0,-1 0,-1 0,-1 0,0 1,0 1,0 0,0 0,1 0,1z"/>
   <path class="fil94" d="M6356 3067l-1 -1c0,0 1,0 1,0 0,0 0,0 0,1z"/>
   <path class="fil14" d="M6151 3117c-167,0 -302,-13 -302,-29 0,-8 39,-16 101,-21 1,0 1,0 1,1 -58,5 -95,12 -95,20 0,16 132,29 295,29 164,0 296,-13 296,-29 0,-8 -35,-15 -91,-20 1,0 1,-1 1,-1 60,5 97,13 97,21 0,16 -136,29 -303,29z"/>
   <path class="fil83" d="M6356 3068c-53,-5 -125,-8 -205,-8 -77,0 -147,3 -200,8 0,-1 0,-1 -1,-1 54,-5 124,-8 201,-8 80,0 152,3 206,8 0,0 0,1 -1,1z"/>
   <path class="fil15" d="M6151 3117c-163,0 -295,-13 -295,-29 0,-8 36,-15 95,-20 0,0 0,0 0,0 -54,5 -88,12 -88,20 0,16 129,28 288,28 160,0 289,-12 289,-28 0,-7 -32,-14 -84,-19 0,0 0,-1 0,-1 56,5 91,12 91,20 0,16 -132,29 -296,29z"/>
   <path class="fil83" d="M6356 3069c-52,-5 -125,-8 -205,-8 -77,0 -148,3 -200,7 0,0 0,0 0,0 53,-5 123,-8 200,-8 80,0 152,3 205,8 0,0 0,1 0,1z"/>
   <path class="fil16" d="M6151 3116c-159,0 -288,-12 -288,-28 0,-8 34,-15 88,-20 1,1 1,1 1,1 -51,5 -82,12 -82,19 0,15 126,27 281,27 156,0 282,-12 282,-27 0,-7 -30,-13 -78,-18 0,-1 1,-1 1,-1 52,5 84,12 84,19 0,16 -129,28 -289,28z"/>
   <path class="fil83" d="M6355 3070c-51,-5 -123,-9 -204,-9 -78,0 -148,3 -199,8 0,0 0,0 -1,-1 52,-4 123,-7 200,-7 80,0 153,3 205,8 0,0 -1,0 -1,1z"/>
   <path class="fil17" d="M6151 3115c-155,0 -281,-12 -281,-27 0,-7 31,-14 82,-19 0,1 0,1 1,1 -47,5 -76,11 -76,18 0,15 123,27 274,27 152,0 275,-12 275,-27 0,-6 -27,-13 -71,-17 0,-1 0,-1 0,-1 48,5 78,11 78,18 0,15 -126,27 -282,27z"/>
   <path class="fil83" d="M6355 3071c-51,-6 -123,-9 -204,-9 -78,0 -148,3 -198,8 -1,0 -1,0 -1,-1 51,-5 121,-8 199,-8 81,0 153,4 204,9 0,0 0,0 0,1z"/>
   <path class="fil18" d="M6151 3115c-151,0 -274,-12 -274,-27 0,-7 29,-13 76,-18 0,1 0,1 0,1 -43,5 -69,11 -69,17 0,14 120,26 267,26 148,0 267,-12 267,-26 0,-6 -24,-12 -64,-16 0,-1 0,-1 1,-1 44,4 71,11 71,17 0,15 -123,27 -275,27z"/>
   <path class="fil83" d="M6354 3072c-49,-6 -122,-9 -203,-9 -78,0 -149,3 -198,8 0,0 0,0 0,-1 50,-5 120,-8 198,-8 81,0 153,3 204,9 -1,0 -1,0 -1,1z"/>
   <path class="fil19" d="M6151 3114c-147,0 -267,-12 -267,-26 0,-6 26,-12 69,-17 0,0 1,1 1,1 -39,4 -63,10 -63,16 0,14 117,25 260,25 144,0 260,-11 260,-25 0,-6 -21,-11 -58,-15 1,-1 1,-1 1,-1 40,4 64,10 64,16 0,14 -119,26 -267,26z"/>
   <path class="fil83" d="M6353 3073c-47,-6 -120,-10 -202,-10 -79,0 -149,4 -197,9 0,0 -1,-1 -1,-1 49,-5 120,-8 198,-8 81,0 154,3 203,9 0,0 0,0 -1,1z"/>
   <path class="fil20" d="M6151 3113c-143,0 -260,-11 -260,-25 0,-6 24,-12 63,-16 0,0 0,1 1,1 -35,4 -56,10 -56,15 0,14 113,25 252,25 140,0 253,-11 253,-25 0,-5 -19,-10 -52,-14 1,-1 1,-1 1,-1 37,4 58,9 58,15 0,14 -116,25 -260,25z"/>
   <path class="fil83" d="M6352 3074c-46,-6 -119,-10 -201,-10 -79,0 -150,4 -196,9 -1,0 -1,-1 -1,-1 48,-5 118,-9 197,-9 82,0 155,4 202,10 0,0 0,0 -1,1z"/>
   <path class="fil21" d="M6151 3113c-139,0 -252,-11 -252,-25 0,-5 21,-11 56,-15 0,0 0,1 0,1 -31,4 -50,9 -50,14 0,13 111,24 246,24 136,0 246,-11 246,-24 0,-5 -17,-9 -45,-13 0,-1 0,-1 0,-1 33,4 52,9 52,14 0,14 -113,25 -253,25z"/>
   <path class="fil83" d="M6352 3075c-45,-6 -118,-10 -201,-10 -80,0 -151,3 -196,9 0,0 0,-1 0,-1 46,-5 117,-9 196,-9 82,0 155,4 201,10 0,0 0,0 0,1z"/>
   <path class="fil22" d="M6151 3112c-135,0 -246,-11 -246,-24 0,-5 19,-10 50,-14 1,0 1,1 1,1 -27,4 -43,8 -43,13 0,13 106,23 238,23 132,0 239,-10 239,-23 0,-4 -14,-9 -39,-12 0,-1 0,-1 1,-1 28,4 45,8 45,13 0,13 -110,24 -246,24z"/>
   <path class="fil83" d="M6351 3076c-43,-6 -116,-11 -200,-11 -80,0 -151,4 -195,10 0,0 0,-1 -1,-1 45,-6 116,-9 196,-9 83,0 156,4 201,10 -1,0 -1,0 -1,1z"/>
   <path class="fil23" d="M6151 3111c-132,0 -238,-10 -238,-23 0,-5 16,-9 43,-13 1,0 1,1 1,1 -23,4 -37,8 -37,12 0,13 103,23 231,23 128,0 232,-10 232,-23 0,-4 -12,-8 -33,-11 0,-1 0,-1 1,-1 25,3 39,8 39,12 0,13 -107,23 -239,23z"/>
   <path class="fil83" d="M6350 3077c-41,-7 -115,-11 -199,-11 -81,0 -152,4 -194,10 0,0 0,-1 -1,-1 44,-6 115,-10 195,-10 84,0 157,5 200,11 -1,0 -1,0 -1,1z"/>
   <path class="fil24" d="M6151 3111c-128,0 -231,-10 -231,-23 0,-4 14,-8 37,-12 1,1 1,1 1,1 -20,3 -31,7 -31,11 0,12 100,22 224,22 124,0 225,-10 225,-22 0,-3 -10,-7 -28,-10 1,0 1,-1 2,-1 21,3 33,7 33,11 0,13 -104,23 -232,23z"/>
   <path class="fil83" d="M6348 3078c-38,-7 -112,-11 -197,-11 -82,0 -153,4 -193,10 0,0 0,0 -1,-1 42,-6 113,-10 194,-10 84,0 158,4 199,11 -1,0 -1,1 -2,1z"/>
   <path class="fil25" d="M6151 3110c-124,0 -224,-10 -224,-22 0,-4 11,-8 31,-11 1,1 1,1 2,1 -17,3 -26,7 -26,10 0,12 97,21 217,21 120,0 218,-9 218,-21 0,-3 -8,-6 -22,-9 0,0 1,-1 1,-1 18,3 28,7 28,10 0,12 -101,22 -225,22z"/>
   <path class="fil83" d="M6347 3079c-35,-7 -110,-12 -196,-12 -83,0 -155,5 -191,11 -1,0 -1,0 -2,-1 40,-6 111,-10 193,-10 85,0 159,4 197,11 0,0 -1,1 -1,1z"/>
   <path class="fil26" d="M6151 3109c-120,0 -217,-9 -217,-21 0,-3 9,-7 26,-10 0,1 1,1 1,2 -13,2 -20,5 -20,8 0,11 94,21 210,21 117,0 211,-10 211,-21 0,-2 -6,-5 -17,-7 1,-1 1,-1 2,-2 14,3 22,6 22,9 0,12 -98,21 -218,21z"/>
   <path class="fil83" d="M6345 3081c-31,-8 -106,-13 -194,-13 -84,0 -156,5 -190,12 0,-1 -1,-1 -1,-2 36,-6 108,-11 191,-11 86,0 161,5 196,12 -1,1 -1,1 -2,2z"/>
   <path class="fil27" d="M6151 3109c-116,0 -210,-10 -210,-21 0,-3 7,-6 20,-8 1,0 1,1 2,1 -10,2 -15,5 -15,7 0,11 91,20 203,20 113,0 204,-9 204,-20 0,-2 -4,-4 -12,-6 1,-1 2,-1 2,-1 11,2 17,5 17,7 0,11 -94,21 -211,21z"/>
   <path class="fil83" d="M6343 3082c-27,-8 -103,-13 -192,-13 -85,0 -158,5 -188,12 -1,0 -1,-1 -2,-1 34,-7 106,-12 190,-12 88,0 163,5 194,13 0,0 -1,0 -2,1z"/>
   <path class="fil28" d="M6151 3108c-112,0 -203,-9 -203,-20 0,-2 5,-5 15,-7 1,1 1,1 2,1 -6,2 -10,4 -10,6 0,11 88,19 196,19 109,0 197,-8 197,-19 0,-1 -3,-3 -7,-5 1,0 2,-1 2,-1 8,2 12,4 12,6 0,11 -91,20 -204,20z"/>
   <path class="fil83" d="M6341 3083c-22,-8 -99,-13 -190,-13 -87,0 -160,5 -186,12 -1,0 -1,0 -2,-1 30,-7 103,-12 188,-12 89,0 165,5 192,13 0,0 -1,1 -2,1z"/>
   <path class="fil29" d="M6151 3107c-108,0 -196,-8 -196,-19 0,-2 4,-4 10,-6 1,1 2,2 3,2 -4,1 -6,3 -6,4 0,10 85,18 189,18 105,0 189,-8 189,-18 0,-1 -1,-2 -2,-3 1,0 2,-1 3,-2 4,2 7,4 7,5 0,11 -88,19 -197,19z"/>
   <path class="fil83" d="M6338 3085c-16,-8 -94,-15 -187,-15 -89,0 -163,6 -183,14 -1,0 -2,-1 -3,-2 26,-7 99,-12 186,-12 91,0 168,5 190,13 -1,1 -2,2 -3,2z"/>
   <path class="fil30" d="M6151 3106c-104,0 -189,-8 -189,-18 0,-1 2,-3 6,-4 1,1 2,1 3,2 -1,1 -2,1 -2,2 0,10 82,18 182,18 101,0 182,-8 182,-18 0,0 0,-1 0,-1 1,-1 3,-1 5,-2 1,1 2,2 2,3 0,10 -84,18 -189,18z"/>
   <path class="fil83" d="M6333 3087c-7,-9 -86,-16 -182,-16 -91,0 -167,6 -180,15 -1,-1 -2,-1 -3,-2 20,-8 94,-14 183,-14 93,0 171,7 187,15 -2,1 -4,1 -5,2z"/>
   <path class="fil31" d="M6151 3106c-100,0 -182,-8 -182,-18 0,-1 1,-1 2,-2 2,0 4,1 6,2 0,0 0,0 0,0 0,10 78,17 174,17 96,0 175,-7 175,-17 2,0 5,0 7,-1 0,0 0,1 0,1 0,10 -81,18 -182,18z"/>
   <path class="fil83" d="M6326 3088c0,0 0,0 0,0 0,-9 -78,-16 -175,-16 -94,0 -170,7 -174,16 -2,-1 -4,-2 -6,-2 13,-9 89,-15 180,-15 96,0 175,7 182,16 -2,1 -5,1 -7,1z"/>
   <path class="fil32" d="M6151 3105c-96,0 -174,-7 -174,-17 0,0 0,0 0,0 2,0 4,0 7,1 2,8 76,15 167,15 91,0 165,-7 168,-15l2 0c1,0 3,0 5,-1 0,10 -79,17 -175,17z"/>
   <path class="fil83" d="M6321 3089l-2 0c0,0 0,-1 0,-1 0,-9 -75,-16 -168,-16 -92,0 -167,7 -167,16 0,0 0,1 0,1 -3,-1 -5,-1 -7,-1 4,-9 80,-16 174,-16 97,0 175,7 175,16 0,0 0,0 0,0 -2,1 -4,1 -5,1z"/>
   <path class="fil33" d="M6151 3104c-91,0 -165,-7 -167,-15 1,0 2,0 3,0l4 0c3,8 73,15 160,15 87,0 158,-7 161,-15l7 0c-3,8 -77,15 -168,15z"/>
   <path class="fil83" d="M6319 3089l-7 0c0,0 0,-1 0,-1 0,-8 -72,-15 -161,-15 -88,0 -160,7 -160,15 0,0 0,1 0,1l-4 0c-1,0 -2,0 -3,0 0,0 0,-1 0,-1 0,-9 75,-16 167,-16 93,0 168,7 168,16 0,0 0,1 0,1z"/>
   <path class="fil34" d="M6151 3104c-87,0 -157,-7 -160,-15l7 0c3,8 70,14 153,14 83,0 151,-6 154,-14l7 0c-3,8 -74,15 -161,15z"/>
   <path class="fil83" d="M6312 3089l-7 0c0,0 0,-1 0,-1 0,-8 -69,-14 -154,-14 -84,0 -153,6 -153,14 0,0 0,1 0,1l-7 0c0,0 0,-1 0,-1 0,-8 72,-15 160,-15 89,0 161,7 161,15 0,0 0,1 0,1z"/>
   <path class="fil35" d="M6151 3103c-83,0 -150,-6 -153,-14l7 0c3,7 67,13 146,13 80,0 144,-6 147,-13l7 0c-3,8 -71,14 -154,14z"/>
   <path class="fil83" d="M6305 3089l-7 0c0,0 0,-1 0,-1 0,-7 -66,-14 -147,-14 -81,0 -146,7 -146,14 0,0 0,1 0,1l-7 0c0,0 0,-1 0,-1 0,-8 69,-14 153,-14 85,0 154,6 154,14 0,0 0,1 0,1z"/>
   <path class="fil36" d="M6151 3102c-79,0 -143,-6 -146,-13l7 0c3,7 64,13 139,13 76,0 137,-6 140,-13l7 0c-3,7 -67,13 -147,13z"/>
   <path class="fil83" d="M6298 3089l-7 0c0,0 0,-1 0,-1 0,-7 -63,-13 -140,-13 -77,0 -139,6 -139,13 0,0 0,1 0,1l-7 0c0,0 0,-1 0,-1 0,-7 65,-14 146,-14 81,0 147,7 147,14 0,0 0,1 0,1z"/>
   <path class="fil37" d="M6151 3102c-75,0 -136,-6 -139,-13l7 0c3,7 61,12 132,12 72,0 130,-5 133,-12l7 0c-3,7 -64,13 -140,13z"/>
   <path class="fil83" d="M6291 3089l-7 0c0,0 0,-1 0,-1 0,-7 -60,-12 -133,-12 -73,0 -132,5 -132,12 0,0 0,1 0,1l-7 0c0,0 0,-1 0,-1 0,-7 62,-13 139,-13 77,0 140,6 140,13 0,0 0,1 0,1z"/>
   <path class="fil38" d="M6151 3101c-71,0 -129,-5 -132,-12l7 0c3,6 58,11 125,11 68,0 123,-5 125,-11l8 0c-3,7 -61,12 -133,12z"/>
   <path class="fil39" d="M6151 3100c-67,0 -122,-5 -125,-11l7 0c3,6 55,11 118,11 64,0 116,-5 118,-11l7 0c-2,6 -57,11 -125,11z"/>
   <path class="fil83" d="M6276 3089l-7 0c0,0 0,-1 0,-1 0,-6 -52,-11 -118,-11 -65,0 -118,5 -118,11 0,0 0,1 0,1l-7 0c0,0 0,-1 0,-1 0,-6 56,-12 125,-12 69,0 126,6 126,12 0,0 -1,1 -1,1z"/>
   <path class="fil40" d="M6151 3100c-63,0 -115,-5 -118,-11l7 0c3,6 52,10 111,10 60,0 108,-4 111,-10l7 0c-2,6 -54,11 -118,11z"/>
   <path class="fil83" d="M6269 3089l-7 0c0,0 0,-1 0,-1 0,-6 -49,-10 -111,-10 -61,0 -111,4 -111,10 0,0 0,1 0,1l-7 0c0,0 0,-1 0,-1 0,-6 53,-11 118,-11 66,0 118,5 118,11 0,0 0,1 0,1z"/>
   <g>
    <path class="fil6" d="M6115 2696c0,0 0,0 0,-1 0,1 0,1 0,1 0,0 0,0 0,0zm182 150c-3,-12 -95,-62 -95,-64 0,-2 -5,-3 -5,-5 -6,-20 4,-48 4,-48 0,0 0,0 2,0 3,-1 10,-27 9,-32 0,-4 -4,-5 -5,-5 1,-4 3,-26 3,-29 0,-3 0,-6 0,-6 0,0 -2,-4 -2,-6 0,-1 -1,-15 -3,-19 -2,-5 -11,-9 -11,-9l0 0c-3,-2 -6,-5 -9,-7 0,0 0,0 0,0 -5,-4 -12,-4 -14,-5 -3,-1 -1,-3 -1,-3 0,0 -2,1 -4,1 -2,0 -2,-3 -2,-3 -9,2 -17,4 -22,6 0,0 0,0 0,0 -1,1 -11,4 -11,4 0,0 -4,0 -5,0 -1,0 -5,2 -6,6 -2,4 -6,3 -9,7 -1,3 0,6 2,9 -1,4 1,10 -1,12 -2,2 -4,5 -4,5l0 2c0,0 -1,4 0,5 1,1 1,3 0,8 -1,5 3,19 5,25 -1,0 -3,0 -4,1 -6,1 5,20 6,32 1,9 8,4 8,4 0,0 8,34 -2,46 0,1 -2,0 -2,0 0,0 -76,49 -95,60 -19,11 -16,59 -16,59l292 0c0,0 -1,-40 -3,-51z"/>
    <path class="fil7" d="M6144 2898l-22 -119 0 -3 41 23 34 -21 6 3 -20 116 -39 1z"/>
    <path class="fil6" d="M6163 2799l-13 21 6 7 -7 70 31 0 -10 -70 6 -6 -13 -22z"/>
    <path class="fil8 str0" d="M6041 2566l16 -16c0,0 0,0 1,0 0,0 1,0 1,0 0,1 1,1 1,2 0,0 -1,0 -1,1l-11 11 11 19 1 1c0,1 -1,1 -1,2 0,0 -1,0 -1,0 -1,0 -1,0 -2,-1l-10 -19 -5 5 0 13c0,1 0,1 0,2 -1,0 -1,0 -2,0 0,0 0,0 -1,0 0,-1 0,-1 0,-2l0 -32c0,-1 0,-1 0,-2 1,0 1,0 1,0 1,0 1,0 2,0 0,1 0,1 0,2l0 14zm32 11l-3 8c0,0 0,1 0,1 -1,0 -1,0 -1,0 -1,0 -1,0 -2,0 0,-1 0,-1 0,-2l0 0 11 -33c0,-1 1,-1 2,-1 0,0 1,0 1,1l11 33 0 0c0,1 0,1 0,2 -1,0 -1,0 -2,0 0,0 0,0 0,0 -1,0 -1,0 -1,-1l-3 -8 -13 0zm12 -4l-5 -16 -6 16 11 0zm32 -9l0 -12c0,-1 1,-1 1,-2 0,0 1,0 1,0 1,0 1,0 2,0 0,1 0,1 0,2l0 32c0,1 0,1 0,2 -1,0 -1,0 -2,0 0,0 -1,0 -1,0 0,-1 -1,-1 -1,-2l0 -16 -14 0 0 16c0,1 0,1 -1,2 0,0 0,0 -1,0 0,0 -1,0 -1,0 -1,-1 -1,-1 -1,-2l0 -32c0,-1 0,-1 1,-2 0,0 1,0 1,0 1,0 1,0 1,0 1,1 1,1 1,2l0 12 14 0zm15 19l4 -32c0,-1 0,-1 1,-1l11 0c2,0 2,0 2,2l0 31 2 0c1,0 2,0 2,1l0 4c0,0 0,1 -1,1 0,1 -1,1 -1,1 0,0 -1,0 -1,-1 -1,0 -1,0 -1,-1l0 -2 -18 0 0 2c0,0 0,1 -1,1 0,1 0,1 -1,1 0,0 -1,0 -1,-1 0,0 -1,0 -1,-1l0 -4c0,-1 1,-1 2,-1l2 0zm15 0l0 -30 -8 0 -3 30 11 0zm36 1c0,1 0,1 -1,2 0,0 0,0 -1,0 0,0 -1,0 -1,0 -1,-1 -1,-1 -1,-2l0 -25 -15 26c0,1 0,1 0,1l-1 0c0,0 0,0 0,0 -1,0 -1,0 -2,0 0,0 0,-1 0,-2l0 -32c0,-1 0,-1 1,-2 0,0 0,0 1,0 0,0 1,0 1,0 0,1 1,1 1,2l0 25 14 -26c1,0 1,-1 1,-1 0,0 1,0 1,0 1,0 1,0 1,0 1,1 1,1 1,2l0 32zm11 -1l3 -32c0,-1 1,-1 2,-1l11 0c1,0 2,0 2,2l0 31 2 0c1,0 1,0 1,1l0 4c0,0 0,1 0,1 0,1 -1,1 -1,1 -1,0 -1,0 -2,-1 0,0 0,0 0,-1l0 -2 -18 0 0 2c0,0 -1,1 -1,1 0,1 -1,1 -1,1 -1,0 -1,0 -1,-1 -1,0 -1,0 -1,-1l0 -4c0,-1 1,-1 2,-1l2 0zm14 0l0 -30 -7 0 -3 30 10 0zm21 -6l-3 8c0,0 0,1 0,1 0,0 -1,0 -1,0 -1,0 -1,0 -1,0 -1,-1 -1,-1 -1,-2l0 0 11 -33c0,-1 1,-1 2,-1 0,0 1,0 1,1l11 33 0 0c0,1 0,1 0,2 -1,0 -1,0 -1,0 -1,0 -1,0 -1,0 -1,0 -1,0 -1,-1l-3 -8 -13 0zm12 -4l-5 -16 -6 16 11 0zm16 -20l-7 0c-1,0 -1,0 -1,0 -1,0 -1,-1 -1,-1 0,-1 0,-1 1,-2 0,0 0,0 1,0l18 0c1,0 1,0 1,0 1,1 1,1 1,2 0,0 0,0 -1,1 0,0 0,0 -1,0l-7 0 0 31c0,1 0,1 -1,2 0,0 0,0 -1,0 0,0 -1,0 -1,0 -1,-1 -1,-1 -1,-2l0 -31z"/>
   </g>
   <g>
    <path class="fil6" d="M5479 1654c0,0 0,0 0,0 1,1 1,1 1,1 0,0 0,0 -1,-1zm369 304c-4,-24 -191,-125 -191,-129 0,-3 -10,-6 -12,-11 -11,-40 9,-97 9,-97 0,0 0,0 5,0 6,-1 19,-53 18,-64 0,-9 -8,-10 -10,-10 1,-9 5,-54 5,-59 0,-6 0,-12 0,-12 0,0 -4,-8 -4,-12 0,-3 -1,-31 -5,-40 -4,-9 -23,-16 -23,-16l0 0c-6,-6 -12,-11 -19,-15 0,0 0,0 0,0 -8,-8 -23,-8 -28,-10 -5,-2 -2,-7 -2,-7 0,0 -3,1 -7,2 -4,1 -4,-5 -4,-5 -19,3 -34,8 -46,12 0,0 0,0 0,0 -2,1 -22,8 -22,8 0,0 -7,-1 -10,0 -2,0 -10,4 -12,12 -3,7 -12,6 -17,15 -3,4 0,12 2,17 0,9 2,21 -1,24 -4,5 -9,10 -9,10l1 6c0,0 -2,7 0,9 2,1 3,5 0,17 -2,8 6,38 10,50 -2,0 -5,0 -9,1 -11,4 10,42 13,66 3,18 16,9 16,9 0,0 17,68 -4,92 0,1 -4,0 -4,0 0,0 -154,99 -192,122 -39,23 -33,118 -33,118l591 0c0,0 -1,-79 -6,-103z"/>
    <path class="fil7" d="M5539 2063l-44 -240 0 -5 82 45 70 -42 10 6 -40 234 -78 2z"/>
    <path class="fil6" d="M5577 1863l-27 44 13 14 -14 140 63 0 -20 -140 12 -13 -27 -45z"/>
    <path class="fil8 str0" d="M5331 1390l31 -30c0,-1 1,-1 2,-1 1,0 2,0 3,1 0,0 1,1 1,2 0,1 -1,2 -1,3l-22 22 22 40 1 2c0,1 0,1 -1,2 -1,1 -2,1 -3,1 -1,0 -2,0 -3,-2l-22 -38 -8 8 0 29c0,1 -1,2 -2,2 0,1 -1,1 -2,1 -1,0 -2,0 -3,-1 0,0 -1,-1 -1,-3l0 -66c0,-1 1,-2 1,-2 1,-1 2,-1 3,-1 1,0 2,0 2,0 1,1 2,2 2,3l0 28zm64 24l-5 16c-1,0 -1,1 -2,2 0,0 -1,0 -2,0 -1,0 -2,0 -2,-1 -1,-1 -1,-1 -1,-2l0 -2 22 -66c1,-2 2,-3 3,-3 2,0 3,1 4,3l22 66 0 2c0,1 0,1 -1,2 -1,1 -2,1 -3,1 0,0 -1,0 -1,0 -1,0 -2,-1 -2,-2l-5 -16 -27 0zm24 -8l-11 -32 -11 32 22 0zm66 -18l0 -26c0,-1 0,-2 1,-2 1,-1 2,-1 3,-1 1,0 1,0 2,0 1,1 1,2 1,3l0 66c0,1 0,2 -1,3 -1,1 -2,1 -2,1 -1,0 -2,0 -3,-1 -1,0 -1,-1 -1,-2l0 -34 -29 0 0 34c0,1 -1,2 -1,2 -1,1 -2,1 -3,1 -1,0 -2,0 -3,-1 0,0 -1,-1 -1,-2l0 -67c0,-1 1,-2 1,-2 1,-1 2,-1 3,-1 1,0 2,0 2,1 1,0 2,1 2,2l0 26 29 0zm30 37l7 -63c0,-2 1,-3 3,-3l23 0c2,0 3,1 3,3l0 63 4 0c2,0 4,1 4,4l0 7c0,1 -1,2 -1,2 -1,1 -2,2 -3,2 -1,0 -2,-1 -2,-1 -1,-1 -2,-2 -2,-3l0 -4 -37 0 0 4c0,1 0,2 -1,2 0,1 -1,2 -2,2 -1,0 -2,-1 -3,-1 -1,-1 -1,-2 -1,-3l0 -7c0,-3 1,-4 4,-4l4 0zm29 0l0 -59 -15 0 -7 59 22 0zm73 4c0,1 0,2 -1,2 0,1 -1,1 -2,1 -1,0 -2,0 -3,-1 -1,0 -1,-1 -1,-2l0 -53 -30 54c0,1 -1,2 -1,2l-1 1c0,0 -1,0 -1,0 -1,0 -2,-1 -3,-1 0,-1 -1,-2 -1,-3l0 -67c0,-1 1,-2 1,-2 1,-1 2,-1 3,-1 1,0 2,0 2,1 1,0 2,1 2,2l0 52 29 -53c1,-1 1,-2 2,-2 1,-1 1,-1 2,-1 1,0 2,0 2,1 1,1 1,2 1,3l0 67zm23 -4l7 -63c0,-2 1,-3 4,-3l22 0c2,0 3,1 3,3l0 63 4 0c2,0 4,1 4,4l0 7c0,1 -1,2 -1,2 -1,1 -2,2 -3,2 -1,0 -2,-1 -2,-1 -1,-1 -2,-2 -2,-3l0 -4 -37 0 0 4c0,1 0,2 -1,2 0,1 -1,2 -2,2 -1,0 -2,-1 -3,-1 0,-1 -1,-2 -1,-3l0 -7c0,-3 1,-4 4,-4l4 0zm29 0l0 -59 -15 0 -7 59 22 0zm42 -11l-5 16c0,0 -1,1 -1,2 -1,0 -2,0 -2,0 -1,0 -2,0 -3,-1 -1,-1 -1,-1 -1,-2l0 -2 22 -66c1,-2 2,-3 4,-3 1,0 2,1 3,3l22 66 0 2c0,1 0,1 -1,2 -1,1 -1,1 -2,1 -1,0 -1,0 -2,0 -1,0 -1,-1 -2,-2l-5 -16 -27 0zm24 -8l-10 -32 -11 32 21 0zm33 -40l-15 0c-1,0 -2,0 -2,-1 -1,-1 -1,-2 -1,-3 0,-1 0,-1 1,-2 0,-1 1,-1 2,-1l37 0c1,0 2,0 3,1 1,0 1,1 1,2 0,1 0,2 -1,3 -1,1 -2,1 -3,1l-14 0 0 63c0,1 -1,2 -2,2 0,1 -1,1 -2,1 -1,0 -2,0 -3,-1 0,0 -1,-1 -1,-2l0 -63z"/>
   </g>
   <g>
    <path class="fil6" d="M6496 2317c0,0 0,0 0,0 0,1 0,1 0,1 0,0 0,0 0,-1zm238 196c-3,-15 -124,-81 -124,-83 0,-2 -6,-4 -7,-7 -8,-26 6,-63 6,-63 0,0 -1,1 3,0 3,0 12,-34 12,-41 -1,-6 -6,-6 -7,-6 0,-6 3,-35 3,-38 0,-4 0,-8 0,-8 0,0 -2,-5 -3,-7 0,-3 0,-20 -3,-26 -2,-6 -15,-11 -15,-11l0 0c-3,-4 -7,-7 -12,-10 0,0 0,0 0,0 -5,-5 -14,-5 -18,-6 -3,-2 -1,-4 -1,-4 0,0 -2,0 -5,1 -2,0 -2,-3 -2,-3 -12,2 -22,5 -30,7 0,0 0,0 0,0 -1,1 -14,5 -14,5 0,0 -4,0 -6,0 -2,0 -7,3 -8,8 -2,5 -8,4 -11,10 -2,3 0,7 1,11 0,6 2,13 0,16 -3,2 -6,6 -6,6l0 3c0,0 -1,5 0,6 2,1 2,4 1,11 -2,6 3,25 6,33 -2,-1 -3,-1 -6,0 -7,3 7,27 9,43 1,12 10,5 10,5 0,0 10,44 -3,60 0,1 -2,0 -2,0 0,0 -100,63 -124,78 -25,15 -21,77 -21,77l381 0c0,0 -1,-51 -4,-67z"/>
    <path class="fil7" d="M6534 2581l-28 -154 0 -4 53 29 45 -27 7 4 -26 151 -51 1z"/>
    <path class="fil6" d="M6559 2452l-17 28 8 9 -9 91 41 0 -13 -91 7 -8 -17 -29z"/>
    <path class="fil8 str0" d="M6400 2147l20 -19c1,-1 1,-1 2,-1 0,0 1,0 1,1 1,0 1,1 1,1 0,1 0,1 -1,2l-14 14 15 26 0 1c0,1 0,1 -1,2 0,0 -1,0 -1,0 -1,0 -2,0 -2,-1l-14 -25 -6 6 0 18c0,1 0,1 -1,2 0,0 -1,0 -1,0 -1,0 -1,0 -2,0 0,-1 -1,-1 -1,-2l0 -43c0,0 1,-1 1,-1 1,-1 1,-1 2,-1 0,0 1,0 1,0 1,1 1,1 1,2l0 18zm42 15l-4 11c0,0 0,1 -1,1 0,0 0,0 -1,0 -1,0 -1,0 -2,0 0,-1 0,-1 0,-2l0 -1 14 -43c0,-1 1,-2 2,-2 1,0 2,1 2,2l15 43 0 1c0,1 0,1 -1,2 0,0 -1,0 -2,0 0,0 0,0 -1,0 0,0 0,-1 -1,-1l-3 -11 -17 0zm15 -4l-7 -21 -7 21 14 0zm43 -12l0 -17c0,0 0,-1 0,-1 1,-1 1,-1 2,-1 1,0 1,0 2,0 0,1 0,1 0,2l0 43c0,1 0,1 0,2 -1,0 -1,0 -2,0 -1,0 -1,0 -2,0 0,-1 0,-1 0,-2l0 -21 -19 0 0 21c0,1 -1,1 -1,2 0,0 -1,0 -2,0 0,0 -1,0 -1,0 -1,-1 -1,-1 -1,-2l0 -43c0,0 0,-1 1,-2 0,0 1,0 1,0 1,0 1,0 2,0 0,1 1,1 1,2l0 17 19 0zm19 24l4 -41c0,-1 1,-2 3,-2l14 0c2,0 2,1 2,2l0 41 3 0c1,0 2,0 2,2l0 5c0,0 0,1 -1,1 0,1 -1,1 -1,1 -1,0 -1,0 -2,-1 0,0 -1,-1 -1,-1l0 -3 -23 0 0 3c0,0 -1,1 -1,1 -1,1 -1,1 -2,1 0,0 -1,0 -1,-1 -1,0 -1,-1 -1,-1l0 -5c0,-2 1,-2 2,-2l3 0zm19 0l0 -38 -10 0 -4 38 14 0zm47 2c0,1 0,1 -1,2 0,0 -1,0 -1,0 -1,0 -2,0 -2,0 -1,-1 -1,-1 -1,-2l0 -34 -19 35c0,1 -1,1 -1,1l-1 1c0,0 0,0 0,0 -1,0 -1,-1 -2,-1 0,0 0,-1 0,-2l0 -43c0,0 0,-1 0,-2 1,0 1,0 2,0 0,0 1,0 2,0 0,1 0,1 0,2l0 34 19 -35c1,0 1,-1 1,-1 1,0 1,-1 2,-1 0,0 1,1 1,1 1,1 1,1 1,2l0 43zm14 -2l5 -41c0,-1 1,-2 2,-2l15 0c1,0 2,1 2,2l0 41 2 0c2,0 3,0 3,2l0 5c0,0 -1,1 -1,1 -1,1 -1,1 -2,1 0,0 -1,0 -1,-1 -1,0 -1,-1 -1,-1l0 -3 -24 0 0 3c0,0 0,1 -1,1 0,1 -1,1 -1,1 -1,0 -1,0 -2,-1 0,0 -1,-1 -1,-1l0 -5c0,-2 1,-2 3,-2l2 0zm19 0l0 -38 -10 0 -4 38 14 0zm27 -8l-3 11c0,0 0,1 -1,1 0,0 -1,0 -1,0 -1,0 -1,0 -2,0 0,-1 -1,-1 -1,-2l1 -1 14 -43c0,-1 1,-2 2,-2 1,0 2,1 2,2l14 43 1 1c0,1 -1,1 -1,2 -1,0 -1,0 -2,0 0,0 0,0 -1,0 0,0 -1,-1 -1,-1l-3 -11 -18 0zm16 -4l-7 -21 -7 21 14 0zm21 -26l-9 0c-1,0 -2,-1 -2,-1 0,-1 -1,-1 -1,-2 0,0 0,-1 1,-1 0,-1 1,-1 2,-1l23 0c1,0 2,0 2,1 1,0 1,1 1,1 0,1 0,1 -1,2 0,0 -1,1 -2,1l-9 0 0 40c0,1 0,1 -1,2 0,0 -1,0 -1,0 -1,0 -2,0 -2,0 -1,-1 -1,-1 -1,-2l0 -40z"/>
   </g>
  </g>
 </g>
</svg>
