<?xml version="1.0" encoding="UTF-8"?>
<!DOCTYPE svg PUBLIC "-//W3C//DTD SVG 1.1//EN" "http://www.w3.org/Graphics/SVG/1.1/DTD/svg11.dtd">
<!-- Creator: CorelDRAW X6 -->
<svg xmlns="http://www.w3.org/2000/svg" xml:space="preserve" width="200mm" height="200mm" version="1.1" style="shape-rendering:geometricPrecision; text-rendering:geometricPrecision; image-rendering:optimizeQuality; fill-rule:evenodd; clip-rule:evenodd"
viewBox="0 0 20000 20000"
 xmlns:xlink="http://www.w3.org/1999/xlink">
 <defs>
  <style type="text/css">
   <![CDATA[
    .str2 {stroke:#A37D66;stroke-width:10}
    .str4 {stroke:#CC7587;stroke-width:10}
    .str1 {stroke:#CC7587;stroke-width:32.31}
    .str6 {stroke:#4780BF;stroke-width:75;stroke-linecap:round;stroke-linejoin:round}
    .str3 {stroke:#4780BF;stroke-width:100;stroke-linecap:round;stroke-linejoin:round}
    .str5 {stroke:#008CD1;stroke-width:129.51;stroke-linecap:round;stroke-linejoin:round}
    .str0 {stroke:#AB8082;stroke-width:249.99;stroke-linecap:round;stroke-linejoin:round}
    .fil3 {fill:none}
    .fil8 {fill:none;fill-rule:nonzero}
    .fil4 {fill:#CC7587}
    .fil2 {fill:#FFF7B3}
    .fil1 {fill:#FFFADB}
    .fil6 {fill:white}
    .fil5 {fill:#A37D66;fill-rule:nonzero}
    .fil7 {fill:#CC7587;fill-rule:nonzero}
    .fil0 {fill:url(#id0)}
   ]]>
  </style>
  <radialGradient id="id0" gradientUnits="userSpaceOnUse" cx="10000" cy="10000" r="10000" fx="10000" fy="10000">
   <stop offset="0" style="stop-color:#FEFEFE"/>
   <stop offset="0.45098" style="stop-color:#FEFEFE"/>
   <stop offset="1" style="stop-color:#D1E2F2"/>
  </radialGradient>
 </defs>
 <g id="Layer_x0020_1">
  <metadata id="CorelCorpID_0Corel-Layer"/>
  <polygon class="fil0" points="0,0 20000,0 20000,20000 0,20000 "/>
  <polygon class="fil1" points="15308,2384 15308,17616 6287,17616 5071,17616 5071,2384 "/>
  <path class="fil2" d="M5071 2384l10236 0 0 5735 -10236 -4864c16,-447 0,-573 0,-871z"/>
  <path class="fil3 str0" d="M15308 2384l0 15233c-3412,0 -6824,0 -10236,0l0 -15233 10236 0z"/>
  <path class="fil4 str1" d="M4608 1167c164,0 312,68 417,177l220 -221 -197 760 -559 0 220 -222 0 0c-105,-106 -251,-172 -413,-172 -321,0 -582,260 -582,582 0,315 251,572 564,581l322 -322c-318,-4 -574,-263 -574,-582 0,-321 260,-582 582,-582z"/>
  <g>
   <path class="fil5" d="M13616 6254l0 -212 6 0 6 0 6 1 6 1 6 1 6 1 6 2 6 2 6 2 5 2 5 3 5 3 5 3 5 3 5 3 4 4 4 4 4 4 4 4 3 4 3 4 3 4 3 5 3 5 2 5 2 5 2 5 1 5 1 5 1 5 0 5 0 5 0 5 0 5 -1 5 -1 5 -1 5 -2 5 -2 5 -2 5 -3 5 -3 5 -3 4 -3 4 -3 4 -4 4 -4 4 -4 4 -4 4 -5 3 -5 3 -5 3 -5 3 -5 3 -5 2 -6 2 -6 2 -6 2 -6 1 -6 1 -6 1 -6 1 -6 0 -6 0zm-6853 -212l6853 0 0 212 -6853 0 0 -212zm0 0l0 212 -6 0 -6 0 -6 -1 -6 -1 -6 -1 -6 -1 -6 -2 -6 -2 -6 -2 -5 -2 -5 -3 -5 -3 -5 -3 -5 -3 -5 -3 -4 -4 -4 -4 -4 -4 -4 -4 -3 -4 -3 -4 -3 -4 -3 -5 -3 -5 -2 -5 -2 -5 -2 -5 -1 -5 -1 -5 -1 -5 0 -5 0 -5 0 -5 0 -5 1 -5 1 -5 1 -5 2 -5 2 -5 2 -5 3 -5 3 -5 3 -4 3 -4 3 -4 4 -4 4 -4 4 -4 4 -4 5 -3 5 -3 5 -3 5 -3 5 -3 5 -2 6 -2 6 -2 6 -2 6 -1 6 -1 6 -1 6 -1 6 0 6 0zm4702 980l0 -212 6 0 6 0 6 1 6 1 6 1 6 1 6 2 6 2 6 2 5 2 5 3 5 3 5 3 5 3 5 3 4 4 4 4 4 4 4 4 3 4 3 4 3 4 3 5 3 5 2 5 2 5 2 5 1 5 1 5 1 5 0 5 0 5 0 5 0 5 -1 5 -1 5 -1 5 -2 5 -2 5 -2 5 -3 5 -3 5 -3 4 -3 4 -3 4 -4 4 -4 4 -4 4 -4 4 -5 3 -5 3 -5 3 -5 3 -5 3 -5 2 -6 2 -6 2 -6 2 -6 1 -6 1 -6 1 -6 1 -6 0 -6 0zm-4702 0l0 -212 147 0 147 0 147 0 147 0 147 0 147 0 147 0 147 0 147 0 147 0 147 0 147 0 147 0 147 0 147 0 147 0 147 0 147 0 147 0 147 0 147 0 147 0 147 0 147 0 147 0 147 0 147 0 147 0 147 0 147 0 147 0 147 0 0 212 -147 0 -147 0 -147 0 -147 0 -147 0 -147 0 -147 0 -147 0 -147 0 -147 0 -147 0 -147 0 -147 0 -147 0 -147 0 -147 0 -147 0 -147 0 -147 0 -147 0 -147 0 -147 0 -147 0 -147 0 -147 0 -147 0 -147 0 -147 0 -147 0 -147 0 -147 0 -147 0zm0 -212l0 212 -6 0 -6 0 -6 -1 -6 -1 -6 -1 -6 -1 -6 -2 -6 -2 -6 -2 -5 -2 -5 -3 -5 -3 -5 -3 -5 -3 -5 -3 -4 -4 -4 -4 -4 -4 -4 -4 -3 -4 -3 -4 -3 -4 -3 -5 -3 -5 -2 -5 -2 -5 -2 -5 -1 -5 -1 -5 -1 -5 0 -5 0 -5 0 -5 0 -5 1 -5 1 -5 1 -5 2 -5 2 -5 2 -5 3 -5 3 -5 3 -4 3 -4 3 -4 4 -4 4 -4 4 -4 4 -4 5 -3 5 -3 5 -3 5 -3 5 -3 5 -2 6 -2 6 -2 6 -2 6 -1 6 -1 6 -1 6 -1 6 0 6 0z"/>
  </g>
  <g>
   <path class="fil5" d="M13616 5486l0 -212 6 0 6 0 6 1 6 1 6 1 6 1 6 2 6 2 6 2 5 2 5 3 5 3 5 3 5 3 5 3 4 4 4 4 4 4 4 4 3 4 3 4 3 4 3 5 3 5 2 5 2 5 2 5 1 5 1 5 1 5 0 5 0 5 0 5 0 5 -1 5 -1 5 -1 5 -2 5 -2 5 -2 5 -3 5 -3 5 -3 4 -3 4 -3 4 -4 4 -4 4 -4 4 -4 4 -5 3 -5 3 -5 3 -5 3 -5 3 -5 2 -6 2 -6 2 -6 2 -6 1 -6 1 -6 1 -6 1 -6 0 -6 0zm-6853 -212l6853 0 0 212 -6853 0 0 -212zm0 0l0 212 -6 0 -6 0 -6 -1 -6 -1 -6 -1 -6 -1 -6 -2 -6 -2 -6 -2 -5 -2 -5 -3 -5 -3 -5 -3 -5 -3 -5 -3 -4 -4 -4 -4 -4 -4 -4 -4 -3 -4 -3 -4 -3 -4 -3 -5 -3 -5 -2 -5 -2 -5 -2 -5 -1 -5 -1 -5 -1 -5 0 -5 0 -5 0 -5 0 -5 1 -5 1 -5 1 -5 2 -5 2 -5 2 -5 3 -5 3 -5 3 -4 3 -4 3 -4 4 -4 4 -4 4 -4 4 -4 5 -3 5 -3 5 -3 5 -3 5 -3 5 -2 6 -2 6 -2 6 -2 6 -1 6 -1 6 -1 6 -1 6 0 6 0z"/>
  </g>
  <g>
   <path class="fil5" d="M13616 4717l0 -212 6 0 6 0 6 1 6 1 6 1 6 1 6 2 6 2 6 2 5 2 5 3 5 3 5 3 5 3 5 3 4 4 4 4 4 4 4 4 3 4 3 4 3 4 3 5 3 5 2 5 2 5 2 5 1 5 1 5 1 5 0 5 0 5 0 5 0 5 -1 5 -1 5 -1 5 -2 5 -2 5 -2 5 -3 5 -3 5 -3 4 -3 4 -3 4 -4 4 -4 4 -4 4 -4 4 -5 3 -5 3 -5 3 -5 3 -5 3 -5 2 -6 2 -6 2 -6 2 -6 1 -6 1 -6 1 -6 1 -6 0 -6 0zm-6853 -212l6853 0 0 212 -6853 0 0 -212zm0 0l0 212 -6 0 -6 0 -6 -1 -6 -1 -6 -1 -6 -1 -6 -2 -6 -2 -6 -2 -5 -2 -5 -3 -5 -3 -5 -3 -5 -3 -5 -3 -4 -4 -4 -4 -4 -4 -4 -4 -3 -4 -3 -4 -3 -4 -3 -5 -3 -5 -2 -5 -2 -5 -2 -5 -1 -5 -1 -5 -1 -5 0 -5 0 -5 0 -5 0 -5 1 -5 1 -5 1 -5 2 -5 2 -5 2 -5 3 -5 3 -5 3 -4 3 -4 3 -4 4 -4 4 -4 4 -4 4 -4 5 -3 5 -3 5 -3 5 -3 5 -3 5 -2 6 -2 6 -2 6 -2 6 -1 6 -1 6 -1 6 -1 6 0 6 0z"/>
  </g>
  <path class="fil5 str2" d="M7592 12862l0 342c0,14 8,27 28,27 19,0 28,-13 28,-27l0 -369c0,-14 -9,-27 -28,-27l-201 0c-19,0 -28,13 -28,27l0 369c0,14 9,27 28,27 20,0 28,-13 28,-27l0 -342 145 0zm203 148l0 -148 93 0c41,0 58,21 58,57l0 30c0,36 -17,62 -58,62l-93 0zm93 54c77,0 114,-50 114,-116l0 -30c0,-67 -38,-110 -114,-110l-122 0c-19,0 -27,13 -27,27l0 369c0,14 8,27 28,27 20,0 28,-13 28,-27l0 -141 93 0zm235 -142c0,-37 16,-66 57,-66l48 0c41,0 57,29 57,66l0 191c0,37 -16,66 -57,66l-48 0c-41,0 -57,-29 -57,-66l0 -191zm218 0c0,-66 -38,-119 -113,-119l-48 0c-76,0 -113,54 -113,119l0 191c0,66 38,119 113,119l48 0c76,0 113,-54 113,-119l0 -191zm188 310c20,0 28,-13 28,-27l0 -342 87 0c14,0 26,-8 26,-27 0,-18 -13,-27 -26,-27l-230 0c-14,0 -26,9 -26,27 0,19 13,27 26,27l87 0 0 342c0,14 8,27 28,27zm244 -310c0,-37 16,-66 57,-66l48 0c41,0 57,29 57,66l0 191c0,37 -16,66 -57,66l-48 0c-41,0 -57,-29 -57,-66l0 -191zm218 0c0,-66 -38,-119 -113,-119l-48 0c-76,0 -113,54 -113,119l0 191c0,66 38,119 113,119l48 0c76,0 113,-54 113,-119l0 -191zm351 266l-128 -182 122 -158c11,-14 11,-29 -1,-39 -14,-13 -32,-7 -42,6l-125 170 -36 0 0 -154c0,-14 -8,-27 -27,-27 -20,0 -29,13 -29,27l0 374c0,14 8,27 29,27 19,0 27,-13 27,-27l0 -166 36 0 128 182c8,12 23,18 39,8 17,-12 16,-28 7,-40zm120 -266c0,-37 16,-66 57,-66l48 0c41,0 57,29 57,66l0 191c0,37 -16,66 -57,66l-48 0c-41,0 -57,-29 -57,-66l0 -191zm218 0c0,-66 -38,-119 -113,-119l-48 0c-76,0 -113,54 -113,119l0 191c0,66 38,119 113,119l48 0c76,0 113,-54 113,-119l0 -191zm168 229c4,-34 35,-289 35,-289l104 0 0 342c0,14 8,27 29,27 19,0 27,-13 27,-27l0 -369c0,-14 -8,-27 -27,-27l-156 0c-17,0 -27,11 -29,27 -2,17 -34,278 -37,301 -2,14 -4,23 -7,29 -6,11 -16,14 -33,14 -14,0 -27,9 -27,28 0,20 13,27 27,27 52,0 73,-17 85,-47 4,-11 7,-22 8,-38zm647 -289l0 342c0,14 8,27 28,27 19,0 28,-13 28,-27l0 -369c0,-14 -9,-27 -28,-27l-201 0c-19,0 -28,13 -28,27l0 369c0,14 9,27 28,27 20,0 28,-13 28,-27l0 -342 145 0zm197 60c0,-37 16,-66 57,-66l48 0c41,0 57,29 57,66l0 191c0,37 -16,66 -57,66l-48 0c-41,0 -57,-29 -57,-66l0 -191zm218 0c0,-66 -38,-119 -113,-119l-48 0c-76,0 -113,54 -113,119l0 191c0,66 38,119 113,119l48 0c76,0 113,-54 113,-119l0 -191zm357 250l-11 0 0 -336c0,-14 -8,-27 -27,-27l-144 0c-19,0 -27,13 -30,27l-54 336 -18 0c-19,0 -27,13 -27,27l0 77c0,14 8,27 27,27 20,0 29,-13 29,-27l0 -51 227 0 0 51c0,14 8,27 29,27 19,0 27,-13 27,-27l0 -77c0,-14 -8,-27 -27,-27zm-205 -41l42 -269 95 0 0 310 -146 0c4,-15 7,-27 8,-41zm494 -269l0 342c0,14 8,27 28,27 19,0 28,-13 28,-27l0 -369c0,-14 -9,-27 -28,-27l-201 0c-19,0 -28,13 -28,27l0 369c0,14 9,27 28,27 20,0 28,-13 28,-27l0 -342 145 0zm361 342c0,14 8,27 27,27 20,0 28,-13 28,-27l0 -374c0,-14 -8,-27 -29,-27 -11,0 -19,4 -28,20l-159 284 -1 0c1,-11 2,-25 2,-41l0 -236c0,-14 -8,-27 -27,-27 -20,0 -28,13 -28,27l0 374c0,14 8,27 29,27 11,0 19,-4 28,-20l159 -284 1 0c-1,11 -2,25 -2,41l0 236zm253 -26c-41,0 -57,-29 -57,-66l0 -191c0,-37 16,-66 57,-66l61 0c26,0 39,11 42,35 1,14 8,27 27,27 20,0 29,-13 29,-27 0,-62 -37,-89 -98,-89l-61 0c-76,0 -113,54 -113,119l0 191c0,66 38,119 113,119l61 0c61,0 98,-27 98,-89 0,-14 -8,-27 -29,-27 -19,0 -26,13 -27,27 -2,25 -16,35 -42,35l-61 0zm407 -70l33 104c5,14 18,23 35,17 16,-5 22,-20 17,-34l-120 -373c-4,-13 -11,-20 -28,-20l-3 0c-17,0 -24,7 -28,20l-120 373c-5,14 2,29 17,34 16,5 30,-3 35,-17l33 -104 129 0zm-74 -180c4,-13 6,-20 9,-34l1 0c3,14 5,21 9,34l41 130 -100 0 41 -130zm482 -98c0,-14 -9,-27 -28,-27 -20,0 -28,13 -28,27l0 148 -157 0 0 -148c0,-14 -8,-27 -28,-27 -19,0 -28,13 -28,27l0 374c0,14 9,27 28,27 20,0 28,-13 28,-27l0 -172 157 0 0 172c0,14 8,27 28,27 19,0 28,-13 28,-27l0 -374z"/>
  <polygon class="fil6" points="11664,13715 10854,13715 10854,14353 11664,14353 "/>
  <g>
   <path class="fil7" d="M10854 14316l0 75 -2 0 -2 0 -2 0 -2 0 -2 0 -2 -1 -2 -1 -2 -1 -2 -1 -2 -1 -2 -1 -2 -1 -2 -1 -2 -1 -2 -1 -1 -1 -1 -1 -1 -1 -1 -1 -1 -1 -1 -2 -1 -2 -1 -2 -1 -2 -1 -2 -1 -2 -1 -2 0 -2 0 -2 0 -2 0 -2 0 -2 0 -2 0 -2 0 -2 0 -2 0 -2 1 -2 1 -2 1 -2 1 -2 1 -2 1 -2 1 -2 1 -1 1 -1 1 -1 1 -1 1 -1 2 -1 2 -1 2 -1 2 -1 2 -1 2 -1 2 -1 2 -1 2 -1 2 -1 2 0 2 0 2 0 2 0 2 0zm810 75l-810 0 0 -75 810 0 0 75zm0 0l0 -75 2 0 2 0 2 0 2 0 2 0 2 1 2 1 2 1 2 1 2 1 2 1 2 1 2 1 2 1 2 1 1 1 1 1 1 1 1 1 1 1 1 2 1 2 1 2 1 2 1 2 1 2 1 2 0 2 0 2 0 2 0 2 0 2 0 2 0 2 0 2 0 2 0 2 -1 2 -1 2 -1 2 -1 2 -1 2 -1 2 -1 2 -1 1 -1 1 -1 1 -1 1 -1 1 -2 1 -2 1 -2 1 -2 1 -2 1 -2 1 -2 1 -2 1 -2 1 -2 1 -2 0 -2 0 -2 0 -2 0 -2 0z"/>
  </g>
  <polygon class="fil6" points="13587,13715 12777,13715 12777,14353 13587,14353 "/>
  <g>
   <path class="fil7" d="M12777 14316l0 75 -2 0 -2 0 -2 0 -2 0 -2 0 -2 -1 -2 -1 -2 -1 -2 -1 -2 -1 -2 -1 -2 -1 -2 -1 -2 -1 -2 -1 -1 -1 -1 -1 -1 -1 -1 -1 -1 -1 -1 -2 -1 -2 -1 -2 -1 -2 -1 -2 -1 -2 -1 -2 0 -2 0 -2 0 -2 0 -2 0 -2 0 -2 0 -2 0 -2 0 -2 0 -2 1 -2 1 -2 1 -2 1 -2 1 -2 1 -2 1 -2 1 -1 1 -1 1 -1 1 -1 1 -1 2 -1 2 -1 2 -1 2 -1 2 -1 2 -1 2 -1 2 -1 2 -1 2 -1 2 0 2 0 2 0 2 0 2 0zm810 75l-810 0 0 -75 810 0 0 75zm0 0l0 -75 2 0 2 0 2 0 2 0 2 0 2 1 2 1 2 1 2 1 2 1 2 1 2 1 2 1 2 1 2 1 1 1 1 1 1 1 1 1 1 1 1 2 1 2 1 2 1 2 1 2 1 2 1 2 0 2 0 2 0 2 0 2 0 2 0 2 0 2 0 2 0 2 0 2 -1 2 -1 2 -1 2 -1 2 -1 2 -1 2 -1 2 -1 1 -1 1 -1 1 -1 1 -1 1 -2 1 -2 1 -2 1 -2 1 -2 1 -2 1 -2 1 -2 1 -2 1 -2 1 -2 0 -2 0 -2 0 -2 0 -2 0z"/>
  </g>
  <polygon class="fil6" points="9785,13715 8644,13715 8644,14353 9785,14353 "/>
  <g>
   <path class="fil7" d="M9288 14315l0 77 -2 0 -2 0 -2 0 -2 0 -2 0 -2 -1 -2 -1 -2 -1 -2 -1 -2 -1 -2 -1 -2 -1 -2 -1 -2 -1 -2 -1 -1 -1 -1 -1 -1 -1 -1 -1 -1 -2 -1 -2 -1 -2 -1 -2 -1 -2 -1 -2 -1 -2 -1 -2 0 -2 0 -2 0 -2 0 -2 0 -2 0 -2 0 -2 0 -2 0 -2 0 -2 1 -2 1 -2 1 -2 1 -2 1 -2 1 -2 1 -2 1 -2 1 -1 1 -1 1 -1 1 -1 2 -1 2 -1 2 -1 2 -1 2 -1 2 -1 2 -1 2 -1 2 -1 2 -1 2 0 2 0 2 0 2 0 2 0zm476 77l-476 0 0 -77 476 0 0 77zm0 0l0 -77 2 0 2 0 2 0 2 0 2 0 2 1 2 1 2 1 2 1 2 1 2 1 2 1 2 1 2 1 2 1 1 1 1 1 1 1 1 1 1 2 1 2 1 2 1 2 1 2 1 2 1 2 1 2 0 2 0 2 0 2 0 2 0 2 0 2 0 2 0 2 0 2 0 2 -1 2 -1 2 -1 2 -1 2 -1 2 -1 2 -1 2 -1 2 -1 1 -1 1 -1 1 -1 1 -2 1 -2 1 -2 1 -2 1 -2 1 -2 1 -2 1 -2 1 -2 1 -2 1 -2 0 -2 0 -2 0 -2 0 -2 0z"/>
  </g>
  <polygon class="fil6" points="8398,13715 7102,13715 7102,14353 8398,14353 "/>
  <g>
   <path class="fil7" d="M7102 14315l0 76 -2 0 -2 0 -2 0 -2 0 -2 0 -2 -1 -2 -1 -2 -1 -2 -1 -2 -1 -2 -1 -2 -1 -2 -1 -2 -1 -2 -1 -1 -1 -1 -1 -1 -1 -1 -1 -1 -2 -1 -2 -1 -2 -1 -2 -1 -2 -1 -2 -1 -2 -1 -2 0 -2 0 -2 0 -2 0 -2 0 -2 0 -2 0 -2 0 -2 0 -2 0 -2 1 -2 1 -2 1 -2 1 -2 1 -2 1 -2 1 -2 1 -2 1 -1 1 -1 1 -1 1 -1 2 -1 2 -1 2 -1 2 -1 2 -1 2 -1 2 -1 2 -1 2 -1 2 -1 2 0 2 0 2 0 2 0 2 0zm1296 76l-1296 0 0 -76 1296 0 0 76zm0 0l0 -76 2 0 2 0 2 0 2 0 2 0 2 1 2 1 2 1 2 1 2 1 2 1 2 1 2 1 2 1 2 1 1 1 1 1 1 1 1 1 1 2 1 2 1 2 1 2 1 2 1 2 1 2 1 2 0 2 0 2 0 2 0 2 0 2 0 2 0 2 0 2 0 2 0 2 -1 2 -1 2 -1 2 -1 2 -1 2 -1 2 -1 2 -1 2 -1 1 -1 1 -1 1 -1 1 -2 1 -2 1 -2 1 -2 1 -2 1 -2 1 -2 1 -2 1 -2 1 -2 1 -2 0 -2 0 -2 0 -2 0 -2 0z"/>
  </g>
  <polygon class="fil6" points="6825,13715 6024,13715 6024,14353 6825,14353 "/>
  <g>
   <path class="fil7" d="M6024 14315l0 76 -2 0 -2 0 -2 0 -2 0 -2 0 -2 -1 -2 -1 -2 -1 -2 -1 -2 -1 -2 -1 -2 -1 -2 -1 -2 -1 -2 -1 -1 -1 -1 -1 -1 -1 -1 -1 -1 -2 -1 -2 -1 -2 -1 -2 -1 -2 -1 -2 -1 -2 -1 -2 0 -2 0 -2 0 -2 0 -2 0 -2 0 -2 0 -2 0 -2 0 -2 0 -2 1 -2 1 -2 1 -2 1 -2 1 -2 1 -2 1 -2 1 -2 1 -1 1 -1 1 -1 1 -1 2 -1 2 -1 2 -1 2 -1 2 -1 2 -1 2 -1 2 -1 2 -1 2 -1 2 0 2 0 2 0 2 0 2 0zm801 76l-801 0 0 -76 801 0 0 76zm0 0l0 -76 2 0 2 0 2 0 2 0 2 0 2 1 2 1 2 1 2 1 2 1 2 1 2 1 2 1 2 1 2 1 1 1 1 1 1 1 1 1 1 2 1 2 1 2 1 2 1 2 1 2 1 2 1 2 0 2 0 2 0 2 0 2 0 2 0 2 0 2 0 2 0 2 0 2 -1 2 -1 2 -1 2 -1 2 -1 2 -1 2 -1 2 -1 2 -1 1 -1 1 -1 1 -1 1 -2 1 -2 1 -2 1 -2 1 -2 1 -2 1 -2 1 -2 1 -2 1 -2 1 -2 0 -2 0 -2 0 -2 0 -2 0z"/>
  </g>
  <path class="fil5 str2" d="M5852 14025l80 -79c9,-9 12,-20 1,-32 -11,-11 -23,-8 -32,1l-95 94c-5,5 -8,11 -8,17 0,6 3,12 8,17l95 94c9,8 20,12 32,1 11,-11 8,-23 -1,-32l-80 -79zm129 0l80 -79c9,-9 12,-20 1,-32 -11,-11 -23,-8 -32,1l-95 94c-5,5 -8,11 -8,17 0,6 3,12 8,17l95 94c9,8 20,12 32,1 11,-11 8,-23 -1,-32l-80 -79zm913 79c-9,9 -12,20 -1,32 11,11 23,8 32,-1l95 -94c5,-5 8,-11 8,-17 0,-6 -3,-12 -8,-17l-95 -94c-9,-8 -20,-12 -32,-1 -11,11 -8,23 1,32l80 79 -80 79zm-129 0c-9,9 -12,20 -1,32 11,11 23,8 32,-1l95 -94c5,-5 8,-11 8,-17 0,-6 -3,-12 -8,-17l-95 -94c-9,-8 -20,-12 -32,-1 -11,11 -8,23 1,32l80 79 -80 79zm1977 -26c0,-27 10,-49 30,-58l110 -49c54,-24 66,-66 66,-106l0 -2c0,-69 -39,-107 -116,-107l-36 0c-61,0 -100,26 -100,89 0,16 8,28 28,28 20,0 28,-13 28,-28 0,-25 17,-36 44,-36l36 0c42,0 60,16 60,53l0 2c0,28 -9,45 -33,56l-102 45c-48,20 -70,66 -70,117l0 95 240 0c15,0 27,-8 27,-27 0,-19 -12,-27 -27,-27l-184 0 0 -47zm321 -173c0,-60 22,-96 69,-96l21 0c47,0 69,36 69,96l0 130c0,60 -21,96 -69,96l-21 0c-47,0 -69,-36 -69,-96l0 -130zm215 0c0,-91 -42,-150 -125,-150l-21 0c-82,0 -125,58 -125,150l0 130c0,91 43,150 125,150l21 0c82,0 125,-58 125,-150l0 -130zm714 -36l-134 0c-20,0 -27,13 -27,27l0 261c0,14 7,27 26,27 20,0 27,-13 27,-27l0 -237 108 0c14,0 26,-8 26,-26 0,-19 -13,-25 -26,-25zm121 278c0,-17 -8,-32 -32,-32 -24,0 -32,15 -32,32l0 6c0,17 8,32 32,32 24,0 32,-15 32,-32l0 -6zm564 -132c23,-13 38,-32 38,-65l0 -7c0,-53 -35,-74 -95,-74l-94 0c-19,0 -27,12 -27,26l0 258c0,14 8,26 27,26l109 0c55,0 92,-23 92,-81l0 -17c0,-36 -18,-57 -51,-67zm-125 -95l58 0c38,0 52,13 52,34l0 5c0,21 -17,35 -41,35l-69 0 0 -74zm122 171c0,27 -16,39 -41,39l-81 0 0 -88 72 0c30,0 50,15 50,42l0 7zm1275 -227c-20,0 -27,13 -27,27l0 128 -74 0c-27,0 -44,-14 -44,-35l0 -97c0,-14 -7,-27 -26,-27 -20,0 -27,13 -27,27l0 97c0,55 37,85 98,85l74 0 0 89c0,14 7,27 26,27 20,0 27,-13 27,-27l0 -267c0,-14 -7,-27 -26,-27zm159 6c-15,0 -27,7 -27,25 0,18 12,25 27,25l77 0c24,0 42,13 42,42l0 11 -83 0c-55,0 -90,25 -90,80l0 46c0,55 35,81 90,81l110 0c19,0 27,-13 27,-27l0 -191c0,-54 -36,-92 -95,-92l-77 0zm35 260c-24,0 -36,-13 -36,-30l0 -45c0,-19 12,-31 36,-31l83 0 0 106 -83 0zm327 5c-40,0 -58,-27 -58,-66l0 -96c0,-35 17,-57 57,-57l29 0c24,0 41,11 41,29 0,16 8,27 27,27 19,0 27,-12 27,-27 0,-55 -36,-81 -95,-81l-29 0c-75,0 -110,43 -110,109l0 96c0,67 38,117 112,117l27 0c58,0 95,-26 95,-81 0,-16 -8,-27 -27,-27 -19,0 -27,12 -27,27 0,18 -17,29 -41,29l-27 0zm233 13c0,-17 -8,-32 -32,-32 -24,0 -32,15 -32,32l0 6c0,17 8,32 32,32 24,0 32,-15 32,-32l0 -6zm1278 -284c-11,0 -21,5 -27,17 -17,31 -43,78 -72,130 -4,7 -10,21 -14,36 -4,-15 -11,-29 -14,-36 -29,-52 -56,-99 -73,-130 -6,-11 -16,-17 -27,-17 -20,0 -27,13 -27,27l0 267c0,14 5,27 24,27 20,0 26,-13 26,-27 0,0 0,-123 0,-145 0,-16 -2,-33 -4,-51 0,0 23,43 74,134 5,10 9,15 21,15 13,0 16,-5 21,-15 51,-91 73,-134 73,-134 -2,18 -4,35 -4,51 0,22 0,145 0,145 0,14 5,27 26,27 19,0 24,-13 24,-27l0 -267c0,-14 -7,-27 -27,-27zm336 0c-9,0 -17,5 -24,17l-150 206c2,-14 3,-24 3,-39 0,-21 0,-157 0,-157 0,-14 -7,-27 -25,-27 -18,0 -26,13 -26,27l0 267c0,14 7,27 24,27 12,0 19,-8 25,-16l150 -207c-2,15 -2,24 -2,38 0,21 0,158 0,158 0,14 7,27 24,27 19,0 26,-13 26,-27l0 -267c0,-14 -7,-27 -24,-27zm333 0c-20,0 -27,13 -27,27l0 100 -140 0 0 -100c0,-14 -7,-27 -26,-27 -20,0 -27,13 -27,27l0 267c0,14 7,27 26,27 20,0 27,-13 27,-27l0 -117 140 0 0 117c0,14 7,27 26,27 20,0 27,-13 27,-27l0 -267c0,-14 -7,-27 -26,-27zm156 284c0,-17 -8,-32 -32,-32 -24,0 -32,15 -32,32l0 6c0,17 8,32 32,32 24,0 32,-15 32,-32l0 -6z"/>
  <path class="fil5 str2" d="M10567 12167c0,-37 16,-66 57,-66l48 0c41,0 57,29 57,66l0 191c0,37 -16,66 -57,66l-48 0c-41,0 -57,-29 -57,-66l0 -191zm218 0c0,-66 -38,-119 -113,-119l-48 0c-76,0 -113,54 -113,119l0 191c0,66 38,119 113,119l48 0c76,0 113,-54 113,-119l0 -191zm192 256c-41,0 -57,-29 -57,-66l0 -191c0,-37 16,-66 57,-66l61 0c26,0 39,11 42,35 1,14 8,27 27,27 20,0 29,-13 29,-27 0,-62 -37,-89 -98,-89l-61 0c-76,0 -113,54 -113,119l0 191c0,66 38,119 113,119l61 0c61,0 98,-27 98,-89 0,-14 -8,-27 -29,-27 -19,0 -26,13 -27,27 -2,25 -16,35 -42,35l-61 0zm279 -256c0,-37 16,-66 57,-66l48 0c41,0 57,29 57,66l0 191c0,37 -16,66 -57,66l-48 0c-41,0 -57,-29 -57,-66l0 -191zm218 0c0,-66 -38,-119 -113,-119l-48 0c-76,0 -113,54 -113,119l0 191c0,66 38,119 113,119l48 0c76,0 113,-54 113,-119l0 -191zm227 52l-86 0 0 -112 152 0c14,0 26,-8 26,-27 0,-18 -13,-27 -26,-27l-179 0c-20,0 -29,13 -29,27l0 363c0,14 8,27 29,27l114 0c77,0 114,-50 114,-116l0 -27c0,-67 -38,-110 -114,-110zm58 143c0,36 -16,56 -57,56l-88 0 0 -148 86 0c41,0 58,21 58,57l0 36zm179 -194c0,-37 16,-66 57,-66l48 0c41,0 57,29 57,66l0 191c0,37 -16,66 -57,66l-48 0c-41,0 -57,-29 -57,-66l0 -191zm218 0c0,-66 -38,-119 -113,-119l-48 0c-76,0 -113,54 -113,119l0 191c0,66 38,119 113,119l48 0c76,0 113,-54 113,-119l0 -191zm304 304c14,0 26,-8 26,-27 0,-18 -13,-27 -26,-27l-163 0 0 -134 135 0c14,0 26,-8 26,-27 0,-18 -13,-27 -26,-27l-135 0 0 -122 163 0c14,0 26,-8 26,-27 0,-18 -13,-27 -26,-27l-192 0c-19,0 -27,13 -27,27l0 363c0,14 8,27 27,27l192 0zm416 -186c-4,-11 -8,-23 -14,-34l-93 -183c-8,-17 -16,-20 -28,-20 -20,0 -27,13 -27,27l0 374c0,14 8,27 27,27 20,0 27,-13 27,-27l0 -230c0,-16 -1,-30 -2,-41l1 0 85 166c4,8 10,14 24,14 14,0 20,-6 24,-14l85 -166 1 0c-1,11 -2,25 -2,41l0 230c0,14 8,27 27,27 20,0 27,-13 27,-27l0 -374c0,-14 -8,-27 -27,-27 -13,0 -20,4 -28,20l-93 183c-6,11 -11,23 -14,34zm522 -210c0,-14 -9,-27 -28,-27 -20,0 -28,13 -28,27l0 148 -157 0 0 -148c0,-14 -8,-27 -28,-27 -19,0 -28,13 -28,27l0 374c0,14 9,27 28,27 20,0 28,-13 28,-27l0 -172 157 0 0 172c0,14 8,27 28,27 19,0 28,-13 28,-27l0 -374zm310 396c14,0 26,-8 26,-27 0,-18 -13,-27 -26,-27l-163 0 0 -134 135 0c14,0 26,-8 26,-27 0,-18 -13,-27 -26,-27l-135 0 0 -122 163 0c14,0 26,-8 26,-27 0,-18 -13,-27 -26,-27l-192 0c-19,0 -27,13 -27,27l0 363c0,14 8,27 27,27l192 0zm362 -396c0,-14 -9,-27 -28,-27 -20,0 -28,13 -28,27l0 148 -157 0 0 -148c0,-14 -8,-27 -28,-27 -19,0 -28,13 -28,27l0 374c0,14 9,27 28,27 20,0 28,-13 28,-27l0 -172 157 0 0 172c0,14 8,27 28,27 19,0 28,-13 28,-27l0 -374zm305 374c0,14 8,27 27,27 20,0 28,-13 28,-27l0 -374c0,-14 -8,-27 -29,-27 -11,0 -19,4 -28,20l-159 284 -1 0c1,-11 2,-25 2,-41l0 -236c0,-14 -8,-27 -27,-27 -20,0 -28,13 -28,27l0 374c0,14 8,27 29,27 11,0 19,-4 28,-20l159 -284 1 0c-1,11 -2,25 -2,41l0 236zm365 21c14,0 26,-8 26,-27 0,-18 -13,-27 -26,-27l-163 0 0 -134 135 0c14,0 26,-8 26,-27 0,-18 -13,-27 -26,-27l-135 0 0 -122 163 0c14,0 26,-8 26,-27 0,-18 -13,-27 -26,-27l-192 0c-19,0 -27,13 -27,27l0 363c0,14 8,27 27,27l192 0z"/>
  <path class="fil5 str2" d="M10659 10218l-86 0 0 -112 152 0c14,0 26,-8 26,-27 0,-18 -13,-27 -26,-27l-179 0c-20,0 -29,13 -29,27l0 363c0,14 8,27 29,27l114 0c77,0 114,-50 114,-116l0 -27c0,-67 -38,-110 -114,-110zm58 143c0,36 -16,56 -57,56l-88 0 0 -148 86 0c41,0 58,21 58,57l0 36zm179 -194c0,-37 16,-66 57,-66l48 0c41,0 57,29 57,66l0 191c0,37 -16,66 -57,66l-48 0c-41,0 -57,-29 -57,-66l0 -191zm218 0c0,-66 -38,-119 -113,-119l-48 0c-76,0 -113,54 -113,119l0 191c0,66 38,119 113,119l48 0c76,0 113,-54 113,-119l0 -191zm168 229c4,-34 35,-289 35,-289l104 0 0 342c0,14 8,27 29,27 19,0 27,-13 27,-27l0 -369c0,-14 -8,-27 -27,-27l-156 0c-17,0 -27,11 -29,27 -2,17 -34,278 -37,301 -2,14 -4,23 -7,29 -6,11 -16,14 -33,14 -14,0 -27,9 -27,28 0,20 13,27 27,27 52,0 73,-17 85,-47 4,-11 7,-22 8,-38zm506 75c14,0 26,-8 26,-27 0,-18 -13,-27 -26,-27l-163 0 0 -134 135 0c14,0 26,-8 26,-27 0,-18 -13,-27 -26,-27l-135 0 0 -122 163 0c14,0 26,-8 26,-27 0,-18 -13,-27 -26,-27l-192 0c-19,0 -27,13 -27,27l0 363c0,14 8,27 27,27l192 0zm362 -396c0,-14 -9,-27 -28,-27 -20,0 -28,13 -28,27l0 148 -157 0 0 -148c0,-14 -8,-27 -28,-27 -19,0 -28,13 -28,27l0 374c0,14 9,27 28,27 20,0 28,-13 28,-27l0 -172 157 0 0 172c0,14 8,27 28,27 19,0 28,-13 28,-27l0 -374z"/>
  <path class="fil5 str2" d="M10382 10283c16,0 31,-8 31,-27 0,-18 -15,-27 -31,-27 -72,0 -52,0 -124,0 -16,0 -31,9 -31,27 0,19 15,27 31,27 72,0 52,0 124,0z"/>
  <path class="fil8 str3" d="M8958 9546c342,0 596,-540 440,-634 -293,-274 -609,644 126,413 366,-115 184,-865 184,14 0,56 750,190 -239,213"/>
  <g>
   <path class="fil5" d="M13616 3949l0 -212 6 0 6 0 6 1 6 1 6 1 6 1 6 2 6 2 6 2 5 2 5 3 5 3 5 3 5 3 5 3 4 4 4 4 4 4 4 4 3 4 3 4 3 4 3 5 3 5 2 5 2 5 2 5 1 5 1 5 1 5 0 5 0 5 0 5 0 5 -1 5 -1 5 -1 5 -2 5 -2 5 -2 5 -3 5 -3 5 -3 4 -3 4 -3 4 -4 4 -4 4 -4 4 -4 4 -5 3 -5 3 -5 3 -5 3 -5 3 -5 2 -6 2 -6 2 -6 2 -6 1 -6 1 -6 1 -6 1 -6 0 -6 0zm-6853 -212l6853 0 0 212 -6853 0 0 -212zm0 0l0 212 -6 0 -6 0 -6 -1 -6 -1 -6 -1 -6 -1 -6 -2 -6 -2 -6 -2 -5 -2 -5 -3 -5 -3 -5 -3 -5 -3 -5 -3 -4 -4 -4 -4 -4 -4 -4 -4 -3 -4 -3 -4 -3 -4 -3 -5 -3 -5 -2 -5 -2 -5 -2 -5 -1 -5 -1 -5 -1 -5 0 -5 0 -5 0 -5 0 -5 1 -5 1 -5 1 -5 2 -5 2 -5 2 -5 3 -5 3 -5 3 -4 3 -4 3 -4 4 -4 4 -4 4 -4 4 -4 5 -3 5 -3 5 -3 5 -3 5 -3 5 -2 6 -2 6 -2 6 -2 6 -1 6 -1 6 -1 6 -1 6 0 6 0z"/>
  </g>
  <polygon class="fil6" points="14232,7581 5575,7581 5575,8652 14232,8652 "/>
  <path class="fil7 str4" d="M8904 8028c0,-79 27,-127 86,-127l26 0c58,0 85,48 85,127l0 172c0,79 -27,127 -85,127l-26 0c-58,0 -86,-48 -86,-127l0 -172zm266 0c0,-121 -53,-198 -155,-198l-26 0c-102,0 -155,77 -155,198l0 172c0,121 53,198 155,198l26 0c102,0 155,-77 155,-198l0 -172zm537 0c0,-79 27,-127 86,-127l26 0c58,0 85,48 85,127l0 172c0,79 -27,127 -85,127l-26 0c-58,0 -86,-48 -86,-127l0 -172zm266 0c0,-121 -52,-198 -155,-198l-26 0c-102,0 -155,77 -155,198l0 172c0,121 53,198 155,198l26 0c102,0 155,-77 155,-198l0 -172zm537 0c0,-79 27,-127 86,-127l26 0c58,0 85,48 85,127l0 172c0,79 -27,127 -85,127l-26 0c-58,0 -86,-48 -86,-127l0 -172zm266 0c0,-121 -52,-198 -155,-198l-26 0c-102,0 -155,77 -155,198l0 172c0,121 53,198 155,198l26 0c102,0 155,-77 155,-198l0 -172zm537 0c0,-79 27,-127 86,-127l26 0c58,0 85,48 85,127l0 172c0,79 -27,127 -85,127l-26 0c-58,0 -86,-48 -86,-127l0 -172zm266 0c0,-121 -52,-198 -155,-198l-26 0c-102,0 -155,77 -155,198l0 172c0,121 53,198 155,198l26 0c102,0 155,-77 155,-198l0 -172zm821 -162c0,-19 -11,-36 -35,-36 -24,0 -35,17 -35,36l0 196 -194 0 0 -196c0,-19 -10,-36 -35,-36 -24,0 -35,17 -35,36l0 495c0,19 11,36 35,36 24,0 35,-17 35,-36l0 -228 194 0 0 228c0,19 10,36 35,36 24,0 35,-17 35,-36l0 -495zm238 464c-50,0 -69,-35 -69,-84l0 -123c0,-49 20,-84 69,-84l31 0c50,0 70,35 70,84l0 123c0,49 -20,84 -70,84l-31 0zm31 68c92,0 136,-65 136,-151l0 -123c0,-87 -44,-151 -136,-151l-31 0c-92,0 -136,65 -136,151l0 123c0,87 44,151 136,151l31 0zm498 -418l-163 0c-21,0 -34,15 -37,36l-35 269c-3,25 -21,47 -44,47 -16,0 -30,13 -30,34 0,22 14,34 33,34 54,0 92,-27 102,-100l32 -252 109 0 0 313c0,20 10,36 33,36 24,0 33,-17 33,-36l0 -345c0,-19 -10,-36 -34,-36zm214 134l0 -106c0,-19 -9,-36 -33,-36 -25,0 -34,17 -34,36l0 347c0,19 10,35 34,35l138 0c68,0 112,-50 112,-121l0 -25c0,-80 -53,-130 -129,-130l-89 0zm151 157c0,28 -18,53 -53,53l-98 0 0 -142 89 0c46,0 62,32 62,66l0 23z"/>
  <g>
   <path class="fil5" d="M8643 7662l-85 0 0 -2 0 -2 0 -2 0 -2 0 -2 1 -2 1 -2 1 -2 1 -2 1 -2 1 -2 1 -1 1 -1 1 -1 1 -1 1 -1 1 -1 2 -1 2 -1 2 -1 2 -1 2 -1 2 -1 2 -1 2 -1 2 -1 2 0 2 0 2 0 2 0 2 0 2 0 2 0 2 0 2 0 2 0 2 0 2 0 2 1 2 1 2 1 2 1 2 1 2 1 2 1 2 1 2 1 1 1 1 1 1 1 1 1 1 1 1 1 1 2 1 2 1 2 1 2 1 2 1 2 0 2 0 2 0 2 0 2 0 2zm-85 910l0 -910 85 0 0 910 -85 0zm0 0l85 0 0 2 0 2 0 2 0 2 0 2 -1 2 -1 2 -1 2 -1 2 -1 2 -1 2 -1 1 -1 1 -1 1 -1 1 -1 1 -1 1 -2 1 -2 1 -2 1 -2 1 -2 1 -2 1 -2 1 -2 1 -2 1 -2 0 -2 0 -2 0 -2 0 -2 0 -2 0 -2 0 -2 0 -2 0 -2 0 -2 0 -2 0 -2 -1 -2 -1 -2 -1 -2 -1 -2 -1 -2 -1 -2 -1 -2 -1 -2 -1 -1 -1 -1 -1 -1 -1 -1 -1 -1 -1 -1 -1 -1 -2 -1 -2 -1 -2 -1 -2 -1 -2 -1 -2 0 -2 0 -2 0 -2 0 -2 0 -2zm42 45l0 73 -2 0 -2 0 -2 0 -2 0 -2 0 -2 0 -2 -1 -2 -1 -2 -1 -2 -1 -2 -1 -2 -1 -2 -1 -2 -1 -2 -1 -1 -1 -1 -1 -1 -1 -1 -1 -1 -1 -1 -1 -1 -2 -1 -2 -1 -2 -1 -2 -1 -2 -1 -2 0 -2 0 -2 0 -2 0 -2 0 -2 0 -2 0 -2 0 -2 0 -2 0 -2 1 -2 1 -2 1 -2 1 -2 1 -2 1 -2 1 -1 1 -1 1 -1 1 -1 1 -1 1 -1 2 -1 2 -1 2 -1 2 -1 2 -1 2 -1 2 -1 2 -1 2 -1 2 0 2 0 2 0 2 0 2 0 2 0zm5631 73l-5631 0 0 -73 5631 0 0 73zm0 0l0 -73 2 0 2 0 2 0 2 0 2 0 2 0 2 1 2 1 2 1 2 1 2 1 2 1 2 1 2 1 2 1 1 1 1 1 1 1 1 1 1 1 1 1 1 2 1 2 1 2 1 2 1 2 1 2 0 2 0 2 0 2 0 2 0 2 0 2 0 2 0 2 0 2 0 2 -1 2 -1 2 -1 2 -1 2 -1 2 -1 2 -1 1 -1 1 -1 1 -1 1 -1 1 -1 1 -2 1 -2 1 -2 1 -2 1 -2 1 -2 1 -2 1 -2 1 -2 1 -2 0 -2 0 -2 0 -2 0 -2 0 -2 0zm-5631 -1144l0 73 -2 0 -2 0 -2 0 -2 0 -2 0 -2 0 -2 -1 -2 -1 -2 -1 -2 -1 -2 -1 -2 -1 -2 -1 -2 -1 -2 -1 -1 -1 -1 -1 -1 -1 -1 -1 -1 -1 -1 -1 -1 -2 -1 -2 -1 -2 -1 -2 -1 -2 -1 -2 0 -2 0 -2 0 -2 0 -2 0 -2 0 -2 0 -2 0 -2 0 -2 0 -2 1 -2 1 -2 1 -2 1 -2 1 -2 1 -2 1 -1 1 -1 1 -1 1 -1 1 -1 1 -1 2 -1 2 -1 2 -1 2 -1 2 -1 2 -1 2 -1 2 -1 2 -1 2 0 2 0 2 0 2 0 2 0 2 0zm5631 73l-5631 0 0 -73 5631 0 0 73zm0 0l0 -73 2 0 2 0 2 0 2 0 2 0 2 0 2 1 2 1 2 1 2 1 2 1 2 1 2 1 2 1 2 1 1 1 1 1 1 1 1 1 1 1 1 1 1 2 1 2 1 2 1 2 1 2 1 2 0 2 0 2 0 2 0 2 0 2 0 2 0 2 0 2 0 2 0 2 -1 2 -1 2 -1 2 -1 2 -1 2 -1 2 -1 1 -1 1 -1 1 -1 1 -1 1 -1 1 -2 1 -2 1 -2 1 -2 1 -2 1 -2 1 -2 1 -2 1 -2 1 -2 0 -2 0 -2 0 -2 0 -2 0 -2 0zm48 45l-85 0 0 -2 0 -2 0 -2 0 -2 0 -2 1 -2 1 -2 1 -2 1 -2 1 -2 1 -2 1 -1 1 -1 1 -1 1 -1 1 -1 1 -1 2 -1 2 -1 2 -1 2 -1 2 -1 2 -1 2 -1 2 -1 2 -1 2 0 2 0 2 0 2 0 2 0 2 0 2 0 2 0 2 0 2 0 2 0 2 0 2 1 2 1 2 1 2 1 2 1 2 1 2 1 2 1 2 1 1 1 1 1 1 1 1 1 1 1 1 1 1 2 1 2 1 2 1 2 1 2 1 2 0 2 0 2 0 2 0 2 0 2zm-85 910l0 -910 85 0 0 910 -85 0zm0 0l85 0 0 2 0 2 0 2 0 2 0 2 -1 2 -1 2 -1 2 -1 2 -1 2 -1 2 -1 1 -1 1 -1 1 -1 1 -1 1 -1 1 -2 1 -2 1 -2 1 -2 1 -2 1 -2 1 -2 1 -2 1 -2 1 -2 0 -2 0 -2 0 -2 0 -2 0 -2 0 -2 0 -2 0 -2 0 -2 0 -2 0 -2 0 -2 -1 -2 -1 -2 -1 -2 -1 -2 -1 -2 -1 -2 -1 -2 -1 -2 -1 -1 -1 -1 -1 -1 -1 -1 -1 -1 -1 -1 -1 -1 -2 -1 -2 -1 -2 -1 -2 -1 -2 -1 -2 0 -2 0 -2 0 -2 0 -2 0 -2zm-2347 -910l-85 0 0 -2 0 -2 0 -2 0 -2 0 -2 1 -2 1 -2 1 -2 1 -2 1 -2 1 -2 1 -1 1 -1 1 -1 1 -1 1 -1 1 -1 2 -1 2 -1 2 -1 2 -1 2 -1 2 -1 2 -1 2 -1 2 -1 2 0 2 0 2 0 2 0 2 0 2 0 2 0 2 0 2 0 2 0 2 0 2 0 2 1 2 1 2 1 2 1 2 1 2 1 2 1 2 1 2 1 1 1 1 1 1 1 1 1 1 1 1 1 1 2 1 2 1 2 1 2 1 2 1 2 0 2 0 2 0 2 0 2 0 2zm-85 910l0 -910 85 0 0 910 -85 0zm0 0l85 0 0 2 0 2 0 2 0 2 0 2 -1 2 -1 2 -1 2 -1 2 -1 2 -1 2 -1 1 -1 1 -1 1 -1 1 -1 1 -1 1 -2 1 -2 1 -2 1 -2 1 -2 1 -2 1 -2 1 -2 1 -2 1 -2 0 -2 0 -2 0 -2 0 -2 0 -2 0 -2 0 -2 0 -2 0 -2 0 -2 0 -2 0 -2 -1 -2 -1 -2 -1 -2 -1 -2 -1 -2 -1 -2 -1 -2 -1 -2 -1 -1 -1 -1 -1 -1 -1 -1 -1 -1 -1 -1 -1 -1 -2 -1 -2 -1 -2 -1 -2 -1 -2 -1 -2 0 -2 0 -2 0 -2 0 -2 0 -2zm-717 -910l-85 0 0 -2 0 -2 0 -2 0 -2 0 -2 1 -2 1 -2 1 -2 1 -2 1 -2 1 -2 1 -1 1 -1 1 -1 1 -1 1 -1 1 -1 2 -1 2 -1 2 -1 2 -1 2 -1 2 -1 2 -1 2 -1 2 -1 2 0 2 0 2 0 2 0 2 0 2 0 2 0 2 0 2 0 2 0 2 0 2 0 2 1 2 1 2 1 2 1 2 1 2 1 2 1 2 1 2 1 1 1 1 1 1 1 1 1 1 1 1 1 1 2 1 2 1 2 1 2 1 2 1 2 0 2 0 2 0 2 0 2 0 2zm-85 910l0 -910 85 0 0 910 -85 0zm0 0l85 0 0 2 0 2 0 2 0 2 0 2 -1 2 -1 2 -1 2 -1 2 -1 2 -1 2 -1 1 -1 1 -1 1 -1 1 -1 1 -1 1 -2 1 -2 1 -2 1 -2 1 -2 1 -2 1 -2 1 -2 1 -2 1 -2 0 -2 0 -2 0 -2 0 -2 0 -2 0 -2 0 -2 0 -2 0 -2 0 -2 0 -2 0 -2 -1 -2 -1 -2 -1 -2 -1 -2 -1 -2 -1 -2 -1 -2 -1 -2 -1 -1 -1 -1 -1 -1 -1 -1 -1 -1 -1 -1 -1 -1 -2 -1 -2 -1 -2 -1 -2 -1 -2 -1 -2 0 -2 0 -2 0 -2 0 -2 0 -2zm-717 -910l-85 0 0 -2 0 -2 0 -2 0 -2 0 -2 1 -2 1 -2 1 -2 1 -2 1 -2 1 -2 1 -1 1 -1 1 -1 1 -1 1 -1 1 -1 2 -1 2 -1 2 -1 2 -1 2 -1 2 -1 2 -1 2 -1 2 -1 2 0 2 0 2 0 2 0 2 0 2 0 2 0 2 0 2 0 2 0 2 0 2 0 2 1 2 1 2 1 2 1 2 1 2 1 2 1 2 1 2 1 1 1 1 1 1 1 1 1 1 1 1 1 1 2 1 2 1 2 1 2 1 2 1 2 0 2 0 2 0 2 0 2 0 2zm-85 910l0 -910 85 0 0 910 -85 0zm0 0l85 0 0 2 0 2 0 2 0 2 0 2 -1 2 -1 2 -1 2 -1 2 -1 2 -1 2 -1 1 -1 1 -1 1 -1 1 -1 1 -1 1 -2 1 -2 1 -2 1 -2 1 -2 1 -2 1 -2 1 -2 1 -2 1 -2 0 -2 0 -2 0 -2 0 -2 0 -2 0 -2 0 -2 0 -2 0 -2 0 -2 0 -2 0 -2 -1 -2 -1 -2 -1 -2 -1 -2 -1 -2 -1 -2 -1 -2 -1 -2 -1 -1 -1 -1 -1 -1 -1 -1 -1 -1 -1 -1 -1 -1 -2 -1 -2 -1 -2 -1 -2 -1 -2 -1 -2 0 -2 0 -2 0 -2 0 -2 0 -2zm-717 -910l-85 0 0 -2 0 -2 0 -2 0 -2 0 -2 1 -2 1 -2 1 -2 1 -2 1 -2 1 -2 1 -1 1 -1 1 -1 1 -1 1 -1 1 -1 2 -1 2 -1 2 -1 2 -1 2 -1 2 -1 2 -1 2 -1 2 -1 2 0 2 0 2 0 2 0 2 0 2 0 2 0 2 0 2 0 2 0 2 0 2 0 2 1 2 1 2 1 2 1 2 1 2 1 2 1 2 1 2 1 1 1 1 1 1 1 1 1 1 1 1 1 1 2 1 2 1 2 1 2 1 2 1 2 0 2 0 2 0 2 0 2 0 2zm-85 910l0 -910 85 0 0 910 -85 0zm0 0l85 0 0 2 0 2 0 2 0 2 0 2 -1 2 -1 2 -1 2 -1 2 -1 2 -1 2 -1 1 -1 1 -1 1 -1 1 -1 1 -1 1 -2 1 -2 1 -2 1 -2 1 -2 1 -2 1 -2 1 -2 1 -2 1 -2 0 -2 0 -2 0 -2 0 -2 0 -2 0 -2 0 -2 0 -2 0 -2 0 -2 0 -2 0 -2 -1 -2 -1 -2 -1 -2 -1 -2 -1 -2 -1 -2 -1 -2 -1 -2 -1 -1 -1 -1 -1 -1 -1 -1 -1 -1 -1 -1 -1 -1 -2 -1 -2 -1 -2 -1 -2 -1 -2 -1 -2 0 -2 0 -2 0 -2 0 -2 0 -2z"/>
  </g>
  <path class="fil8 str5" d="M7209 14619c683,-183 1385,222 1568,905 183,683 -222,1385 -905,1568 -683,183 -1385,-222 -1568,-905 -183,-683 222,-1385 905,-1568zm-626 1241c-2,-424 280,-814 710,-929 429,-115 868,81 1079,449m126 471c2,424 -280,814 -710,929 -429,115 -868,-81 -1079,-449m970 123c-112,30 -14,-106 -149,-70 -64,17 -168,193 -199,170 -33,-24 -130,-97 -116,-132 31,-76 39,-164 121,-211 -58,-40 -230,19 -249,-63 0,-2 -365,-213 -201,-359 32,-28 -35,-131 -11,-206 20,-62 488,-8 470,-74 -8,-30 -60,-103 -168,-115 -19,-2 100,-30 164,-57 13,-5 -30,-47 -24,-52 26,-20 27,-26 61,-34m1244 294c0,0 -71,72 -19,85m-2122 554c-6,-48 79,-51 1,-107m1236 365c112,-30 -40,-99 95,-135 64,-17 242,83 258,48 17,-38 64,-149 34,-173 -65,-50 -116,-123 -211,-122 30,-64 209,-99 184,-179 -1,-2 209,-367 -6,-411 -42,-8 -35,-131 -94,-184 -48,-44 -427,237 -445,171 -8,-30 0,-119 88,-184 15,-11 -102,24 -170,33 -14,2 3,-56 -5,-57 -32,-4 -37,-9 -69,1"/>
  <path class="fil8 str3" d="M9207 9884c-431,1294 -137,561 -337,445 -200,-115 729,-556 668,-202 -61,354 -729,269 -711,343 18,75 279,126 358,-63 79,-189 -36,147 170,89 206,-58 291,-226 258,-131 -33,94 24,79 134,21 109,-58 234,-118 234,-118"/>
  <path class="fil5" d="M6517 8296l-119 -192 105 -145c5,-8 8,-15 8,-22 0,-8 -4,-17 -11,-23 -7,-5 -14,-8 -20,-8 -11,0 -21,6 -28,15l-108 154 -12 0 0 -134c0,-17 -9,-32 -31,-32 -23,0 -32,15 -32,32l0 134 -13 0 -108 -154c-7,-9 -17,-15 -28,-15 -6,0 -13,2 -20,8 -7,6 -12,15 -12,23 0,7 4,15 9,22l105 145 -119 192c-8,15 -8,33 12,46 19,11 36,2 44,-12 38,-63 77,-128 115,-192l15 0 0 175c0,17 9,32 32,32 22,0 31,-15 31,-32l0 -175 14 0 116 192c8,14 25,23 44,12 20,-12 20,-31 12,-46zm238 -73l32 101c5,17 22,27 41,20 18,-6 25,-23 20,-40l-119 -370c-5,-15 -14,-24 -33,-24l-3 0c-19,0 -28,9 -33,24l-119 370c-5,17 1,33 20,40 19,7 36,-4 41,-20 10,-33 22,-67 32,-101l121 0zm-18 -59l-86 0 34 -108c4,-13 6,-20 9,-34l1 0c3,14 5,21 9,34l34 108zm247 97l35 -282 94 0 0 335c0,17 9,32 33,32 22,0 32,-15 32,-32l0 -365c0,-17 -9,-32 -32,-32l-154 0c-20,0 -31,13 -33,31l-37 299c-2,12 -3,21 -7,27 -5,9 -14,12 -29,12 -17,0 -32,11 -32,33 0,24 15,31 32,31 54,0 76,-18 89,-49 5,-12 7,-24 9,-38zm333 -228c0,-34 15,-60 52,-60l47 0c37,0 52,27 52,60l0 189c0,34 -15,60 -52,60l-47 0c-37,0 -52,-27 -52,-60l0 -189zm216 0c0,-67 -39,-123 -117,-123l-47 0c-78,0 -117,56 -117,123l0 189c0,67 39,123 117,123l47 0c78,0 117,-56 117,-123l0 -189zm221 47l-81 0 0 -101 146 0c16,0 31,-9 31,-31 0,-21 -15,-31 -31,-31l-178 0c-24,0 -33,15 -33,32l0 359c0,17 9,32 33,32l113 0c79,0 118,-51 118,-119l0 -27c0,-69 -39,-114 -118,-114zm53 146c0,33 -15,51 -52,51l-82 0 0 -138 81 0c37,0 53,19 53,51l0 35zm261 -150l-69 0 0 -134c0,-17 -9,-32 -33,-32 -23,0 -33,15 -33,32l0 365c0,17 9,32 33,32l101 0c79,0 118,-51 118,-119l0 -27c0,-69 -37,-117 -118,-117zm53 150c0,33 -15,51 -52,51l-70 0 0 -138 69 0c37,0 53,19 53,51l0 35zm171 -284c0,-17 -11,-32 -33,-32 -24,0 -32,15 -32,32l0 371c0,17 8,32 32,32 22,0 33,-15 33,-32l0 -371z"/>
  <path class="fil8 str3" d="M8976 11157c-66,-225 816,-294 617,258 -62,170 -481,411 -445,39 -142,-134 -345,-198 -345,126 0,175 182,-191 401,-271 232,-85 72,-44 72,270 0,-14 200,-192 200,-269 0,358 20,-137 64,60 64,290 124,11 390,21 105,4 14,21 20,21"/>
  <path class="fil8 str3" d="M8933 12334c-8,276 565,-43 493,-443 -103,0 -294,1091 201,361 237,-350 -1534,-14 -351,-14 234,0 498,19 705,19"/>
  <path class="fil8 str6" d="M6274 13945c-241,-75 -65,594 93,235 120,-272 -146,-359 -130,-217 2,17 298,76 298,-117 -21,0 88,640 -61,341 -17,-35 173,33 169,-16m6297 -346c-23,-39 113,-25 183,-25m139 -85c0,-82 40,231 -39,299 -2,2 276,29 177,-135 -2,-3 -11,227 -11,300m-437 -416c-62,242 106,35 164,256 42,157 -277,155 -269,43 26,0 96,29 99,45m-1787 -187c176,-12 191,-101 259,-256 28,-64 -91,141 -61,497m-343 -208c-218,7 180,-399 145,-33 -10,109 -333,199 -172,256 75,27 177,-127 280,11m-1707 -343c-181,-133 272,-4 224,-143 -136,-47 -104,847 -198,409 70,62 -124,-85 -88,-85 64,0 230,-9 285,8m-413 -72c129,-173 36,-430 36,178 0,4 -5,122 18,57m-2086 -154c11,-35 309,-424 90,-424 -196,0 226,875 -63,693 -112,-71 -36,-385 205,-193 101,80 147,-236 119,-12 -17,138 122,-159 50,87 118,-169 261,112 249,-205 -2,-45 356,131 -53,272 -4,12 -2,12 -2,26"/>
  <path class="fil5 str2" d="M10382 12283c16,0 31,-8 31,-27 0,-18 -15,-27 -31,-27 -72,0 -52,0 -124,0 -16,0 -31,9 -31,27 0,19 15,27 31,27 72,0 52,0 124,0z"/>
 </g>
</svg>
