<?xml version="1.0" encoding="UTF-8"?>
<!DOCTYPE svg PUBLIC "-//W3C//DTD SVG 1.1//EN" "http://www.w3.org/Graphics/SVG/1.1/DTD/svg11.dtd">
<!-- Creator: CorelDRAW X6 -->
<svg xmlns="http://www.w3.org/2000/svg" xml:space="preserve" width="200mm" height="200mm" version="1.1" style="shape-rendering:geometricPrecision; text-rendering:geometricPrecision; image-rendering:optimizeQuality; fill-rule:evenodd; clip-rule:evenodd"
viewBox="0 0 20000 20000"
 xmlns:xlink="http://www.w3.org/1999/xlink">
 <defs>
  <style type="text/css">
   <![CDATA[
    .str1 {stroke:#806350;stroke-width:10}
    .str5 {stroke:#B9687A;stroke-width:12.73}
    .str4 {stroke:#CC7587;stroke-width:32.31}
    .str2 {stroke:#4780BF;stroke-width:100;stroke-linecap:round;stroke-linejoin:round}
    .str3 {stroke:#008CD1;stroke-width:129.51;stroke-linecap:round;stroke-linejoin:round}
    .str6 {stroke:#806350;stroke-width:33.31}
    .str0 {stroke:#AB8082;stroke-width:182.9;stroke-linecap:round;stroke-linejoin:round}
    .fil3 {fill:none}
    .fil6 {fill:none;fill-rule:nonzero}
    .fil8 {fill:#CC7587}
    .fil2 {fill:#FFF7B3}
    .fil1 {fill:#FFFADB}
    .fil9 {fill:#B9687A;fill-rule:nonzero}
    .fil10 {fill:#4780BF;fill-rule:nonzero}
    .fil5 {fill:#806350;fill-rule:nonzero}
    .fil4 {fill:#A37D66;fill-rule:nonzero}
    .fil7 {fill:#CC7587;fill-rule:nonzero}
    .fil0 {fill:url(#id0)}
   ]]>
  </style>
  <radialGradient id="id0" gradientUnits="objectBoundingBox" cx="50%" cy="50%" r="50%" fx="50%" fy="50%">
   <stop offset="0" style="stop-color:#FEFEFE"/>
   <stop offset="0.458824" style="stop-color:#FEFEFE"/>
   <stop offset="1" style="stop-color:#D1E2F2"/>
  </radialGradient>
 </defs>
 <g id="Layer_x0020_1">
  <metadata id="CorelCorpID_0Corel-Layer"/>
  <g id="_729710480">
   <polygon class="fil0" points="0,0 20000,0 20000,20000 0,20000 "/>
   <path class="fil1" d="M17034 5633l0 10097c-2521,0 -4210,0 -6732,0l0 -10097 6732 0z"/>
   <path class="fil2" d="M10302 5633l6732 0 0 5586 -6732 -3199c11,-331 0,-2166 0,-2387z"/>
   <path class="fil3 str0" d="M17034 5633l0 10097c-2521,0 -4210,0 -6732,0l0 -10097 6732 0z"/>
   <g>
    <path class="fil4" d="M15912 8199l0 -140 4 0 4 0 4 0 4 1 4 1 4 1 4 1 4 1 4 1 4 2 3 2 3 2 3 2 3 2 3 2 3 2 3 2 3 3 2 3 2 3 2 3 2 3 2 3 2 3 1 3 1 3 1 3 1 3 1 3 1 4 0 4 0 4 0 4 0 4 -1 4 -1 3 -1 3 -1 3 -1 3 -1 3 -2 3 -2 3 -2 3 -2 3 -2 3 -2 3 -3 3 -3 2 -3 2 -3 2 -3 2 -3 2 -3 2 -3 2 -4 2 -4 1 -4 1 -4 1 -4 1 -4 1 -4 1 -4 0 -4 0 -4 0zm-4543 -140l4543 0 0 140 -4543 0 0 -140zm0 0l0 140 -4 0 -4 0 -4 0 -4 -1 -4 -1 -4 -1 -4 -1 -4 -1 -4 -1 -4 -2 -3 -2 -3 -2 -3 -2 -3 -2 -3 -2 -3 -2 -3 -2 -3 -3 -2 -3 -2 -3 -2 -3 -2 -3 -2 -3 -2 -3 -1 -3 -1 -3 -1 -3 -1 -3 -1 -3 -1 -4 0 -4 0 -4 0 -4 0 -4 1 -4 1 -3 1 -3 1 -3 1 -3 1 -3 2 -3 2 -3 2 -3 2 -3 2 -3 2 -3 3 -3 3 -2 3 -2 3 -2 3 -2 3 -2 3 -2 3 -2 4 -2 4 -1 4 -1 4 -1 4 -1 4 -1 4 -1 4 0 4 0 4 0zm3117 650l0 -140 4 0 4 0 4 0 4 1 4 1 4 1 4 1 4 1 4 1 4 2 3 2 3 2 3 2 3 2 3 2 3 2 3 2 3 3 2 3 2 3 2 3 2 3 2 3 2 3 1 3 1 3 1 3 1 3 1 3 1 4 0 4 0 4 0 4 0 4 -1 4 -1 3 -1 3 -1 3 -1 3 -1 3 -2 3 -2 3 -2 3 -2 3 -2 3 -2 3 -3 3 -3 2 -3 2 -3 2 -3 2 -3 2 -3 2 -3 2 -4 2 -4 1 -4 1 -4 1 -4 1 -4 1 -4 1 -4 0 -4 0 -4 0zm-3117 0l0 -140 97 0 97 0 97 0 97 0 97 0 97 0 97 0 97 0 97 0 97 0 97 0 97 0 97 0 97 0 97 0 97 0 97 0 97 0 97 0 97 0 97 0 97 0 97 0 97 0 97 0 97 0 97 0 97 0 97 0 97 0 97 0 97 0 0 140 -97 0 -97 0 -97 0 -97 0 -97 0 -97 0 -97 0 -97 0 -97 0 -97 0 -97 0 -97 0 -97 0 -97 0 -97 0 -97 0 -97 0 -97 0 -97 0 -97 0 -97 0 -97 0 -97 0 -97 0 -97 0 -97 0 -97 0 -97 0 -97 0 -97 0 -97 0 -97 0zm0 -140l0 140 -4 0 -4 0 -4 0 -4 -1 -4 -1 -4 -1 -4 -1 -4 -1 -4 -1 -4 -2 -3 -2 -3 -2 -3 -2 -3 -2 -3 -2 -3 -2 -3 -2 -3 -3 -2 -3 -2 -3 -2 -3 -2 -3 -2 -3 -2 -3 -1 -3 -1 -3 -1 -3 -1 -3 -1 -3 -1 -4 0 -4 0 -4 0 -4 0 -4 1 -4 1 -3 1 -3 1 -3 1 -3 1 -3 2 -3 2 -3 2 -3 2 -3 2 -3 2 -3 3 -3 3 -2 3 -2 3 -2 3 -2 3 -2 3 -2 3 -2 4 -2 4 -1 4 -1 4 -1 4 -1 4 -1 4 -1 4 0 4 0 4 0z"/>
   </g>
   <g>
    <path class="fil4" d="M15912 7689l0 -140 3 0 3 0 3 0 3 1 3 1 3 1 3 1 3 1 3 1 3 2 3 2 3 2 3 2 2 2 2 2 2 2 2 2 2 3 2 3 2 3 2 3 2 3 1 3 1 3 1 3 1 3 1 3 1 3 1 3 0 4 0 4 0 4 0 4 0 4 0 4 -1 3 -1 3 -1 3 -1 3 -1 3 -1 3 -1 3 -2 3 -2 3 -2 3 -2 3 -2 3 -2 2 -2 2 -2 2 -2 2 -3 2 -3 2 -3 2 -3 2 -3 1 -3 1 -3 1 -3 1 -3 1 -3 1 -3 0 -3 0 -3 0zm-4542 -140l4542 0 0 140 -4542 0 0 -140zm0 0l0 140 -3 0 -3 0 -3 0 -3 -1 -3 -1 -3 -1 -3 -1 -3 -1 -3 -1 -3 -2 -3 -2 -3 -2 -3 -2 -2 -2 -2 -2 -2 -2 -2 -2 -2 -3 -2 -3 -2 -3 -2 -3 -2 -3 -1 -3 -1 -3 -1 -3 -1 -3 -1 -3 -1 -3 -1 -3 0 -4 0 -4 0 -4 0 -4 0 -4 0 -4 1 -3 1 -3 1 -3 1 -3 1 -3 1 -3 1 -3 2 -3 2 -3 2 -3 2 -3 2 -3 2 -2 2 -2 2 -2 2 -2 3 -2 3 -2 3 -2 3 -2 3 -1 3 -1 3 -1 3 -1 3 -1 3 -1 3 0 3 0 3 0z"/>
   </g>
   <g>
    <path class="fil4" d="M15912 7180l0 -140 4 0 4 0 4 0 4 1 4 1 4 1 4 1 4 1 4 1 4 2 3 2 3 2 3 2 3 2 3 2 3 2 3 2 3 3 2 3 2 3 2 3 2 3 2 3 2 3 1 3 1 3 1 3 1 3 1 3 1 4 0 4 0 4 0 4 0 4 -1 4 -1 3 -1 3 -1 3 -1 3 -1 3 -2 3 -2 3 -2 3 -2 3 -2 3 -2 3 -3 3 -3 2 -3 2 -3 2 -3 2 -3 2 -3 2 -3 2 -4 2 -4 1 -4 1 -4 1 -4 1 -4 1 -4 1 -4 0 -4 0 -4 0zm-4543 -140l4543 0 0 140 -4543 0 0 -140zm0 0l0 140 -4 0 -4 0 -4 0 -4 -1 -4 -1 -4 -1 -4 -1 -4 -1 -4 -1 -4 -2 -3 -2 -3 -2 -3 -2 -3 -2 -3 -2 -3 -2 -3 -2 -3 -3 -2 -3 -2 -3 -2 -3 -2 -3 -2 -3 -2 -3 -1 -3 -1 -3 -1 -3 -1 -3 -1 -3 -1 -4 0 -4 0 -4 0 -4 0 -4 1 -4 1 -3 1 -3 1 -3 1 -3 1 -3 2 -3 2 -3 2 -3 2 -3 2 -3 2 -3 3 -3 3 -2 3 -2 3 -2 3 -2 3 -2 3 -2 3 -2 4 -2 4 -1 4 -1 4 -1 4 -1 4 -1 4 -1 4 0 4 0 4 0z"/>
   </g>
   <path class="fil5 str1" d="M13769 10869c11,0 20,-5 20,-18 0,-12 -10,-18 -20,-18 -48,0 -34,0 -82,0 -11,0 -20,6 -20,18 0,13 10,18 20,18 48,0 34,0 82,0z"/>
   <path class="fil6 str2" d="M12825 10348c227,0 395,-332 292,-389 -194,-169 -403,396 84,254 242,-71 122,-532 122,9 0,34 497,117 -159,131"/>
   <g>
    <path class="fil4" d="M15912 6671l0 -140 4 0 4 0 4 0 4 1 4 1 4 1 4 1 4 1 4 1 4 2 3 2 3 2 3 2 3 2 3 2 3 2 3 2 3 3 2 3 2 3 2 3 2 3 2 3 2 3 1 3 1 3 1 3 1 3 1 3 1 4 0 4 0 4 0 4 0 4 -1 4 -1 3 -1 3 -1 3 -1 3 -1 3 -2 3 -2 3 -2 3 -2 3 -2 3 -2 3 -3 3 -3 2 -3 2 -3 2 -3 2 -3 2 -3 2 -3 2 -4 2 -4 1 -4 1 -4 1 -4 1 -4 1 -4 1 -4 0 -4 0 -4 0zm-4543 -140l4543 0 0 140 -4543 0 0 -140zm0 0l0 140 -4 0 -4 0 -4 0 -4 -1 -4 -1 -4 -1 -4 -1 -4 -1 -4 -1 -4 -2 -3 -2 -3 -2 -3 -2 -3 -2 -3 -2 -3 -2 -3 -2 -3 -3 -2 -3 -2 -3 -2 -3 -2 -3 -2 -3 -2 -3 -1 -3 -1 -3 -1 -3 -1 -3 -1 -3 -1 -4 0 -4 0 -4 0 -4 0 -4 1 -4 1 -3 1 -3 1 -3 1 -3 1 -3 2 -3 2 -3 2 -3 2 -3 2 -3 2 -3 3 -3 3 -2 3 -2 3 -2 3 -2 3 -2 3 -2 3 -2 4 -2 4 -1 4 -1 4 -1 4 -1 4 -1 4 -1 4 0 4 0 4 0z"/>
   </g>
   <g>
    <path class="fil4" d="M12616 9132l-56 0 0 -1 0 -1 0 -1 0 -1 0 -1 0 -1 0 -1 1 -1 1 -1 1 -1 1 -1 1 -1 1 -1 1 -1 1 -1 1 -1 1 -1 1 -1 1 -1 1 -1 1 -1 1 -1 1 -1 1 0 1 0 1 0 1 0 1 0 1 0 1 0 1 0 1 0 1 0 1 0 1 0 1 0 1 0 1 0 1 0 1 0 1 0 1 1 1 1 1 1 1 1 1 1 1 1 1 1 1 1 1 1 1 1 1 1 1 1 1 1 1 1 1 1 1 1 0 1 0 1 0 1 0 1 0 1 0 1 0 1zm-56 603l0 -603 56 0 0 603 -56 0zm0 0l56 0 0 1 0 1 0 1 0 1 0 1 0 1 0 1 -1 1 -1 1 -1 1 -1 1 -1 1 -1 1 -1 1 -1 1 -1 1 -1 1 -1 1 -1 1 -1 1 -1 1 -1 1 -1 1 -1 0 -1 0 -1 0 -1 0 -1 0 -1 0 -1 0 -1 0 -1 0 -1 0 -1 0 -1 0 -1 0 -1 0 -1 0 -1 0 -1 0 -1 0 -1 -1 -1 -1 -1 -1 -1 -1 -1 -1 -1 -1 -1 -1 -1 -1 -1 -1 -1 -1 -1 -1 -1 -1 -1 -1 -1 -1 -1 -1 -1 -1 0 -1 0 -1 0 -1 0 -1 0 -1 0 -1 0 -1zm28 30l0 48 -1 0 -1 0 -1 0 -1 0 -1 0 -1 0 -1 0 -1 0 -1 0 -1 -1 -1 -1 -1 -1 -1 -1 -1 -1 -1 -1 -1 -1 -1 -1 -1 -1 -1 -1 -1 -1 -1 -1 -1 -1 -1 -1 -1 -1 -1 -1 0 -1 0 -1 0 -1 0 -1 0 -1 0 -1 0 -1 0 -1 0 -1 0 -1 0 -1 0 -1 0 -1 0 -1 1 -1 1 -1 1 -1 1 -1 1 -1 1 -1 1 -1 1 -1 1 -1 1 -1 1 -1 1 -1 1 -1 1 -1 1 -1 1 -1 1 0 1 0 1 0 1 0 1 0 1 0 1 0 1 0 1 0zm3733 48l-3733 0 0 -48 3733 0 0 48zm0 0l0 -48 1 0 1 0 1 0 1 0 1 0 1 0 1 0 1 0 1 0 1 1 1 1 1 1 1 1 1 1 1 1 1 1 1 1 1 1 1 1 1 1 1 1 1 1 1 1 1 1 1 1 0 1 0 1 0 1 0 1 0 1 0 1 0 1 0 1 0 1 0 1 0 1 0 1 0 1 0 1 -1 1 -1 1 -1 1 -1 1 -1 1 -1 1 -1 1 -1 1 -1 1 -1 1 -1 1 -1 1 -1 1 -1 1 -1 1 -1 1 -1 0 -1 0 -1 0 -1 0 -1 0 -1 0 -1 0 -1 0 -1 0zm-3733 -759l0 48 -1 0 -1 0 -1 0 -1 0 -1 0 -1 0 -1 0 -1 0 -1 0 -1 -1 -1 -1 -1 -1 -1 -1 -1 -1 -1 -1 -1 -1 -1 -1 -1 -1 -1 -1 -1 -1 -1 -1 -1 -1 -1 -1 -1 -1 -1 -1 0 -1 0 -1 0 -1 0 -1 0 -1 0 -1 0 -1 0 -1 0 -1 0 -1 0 -1 0 -1 0 -1 0 -1 1 -1 1 -1 1 -1 1 -1 1 -1 1 -1 1 -1 1 -1 1 -1 1 -1 1 -1 1 -1 1 -1 1 -1 1 -1 1 -1 1 0 1 0 1 0 1 0 1 0 1 0 1 0 1 0 1 0zm3733 48l-3733 0 0 -48 3733 0 0 48zm0 0l0 -48 1 0 1 0 1 0 1 0 1 0 1 0 1 0 1 0 1 0 1 1 1 1 1 1 1 1 1 1 1 1 1 1 1 1 1 1 1 1 1 1 1 1 1 1 1 1 1 1 1 1 0 1 0 1 0 1 0 1 0 1 0 1 0 1 0 1 0 1 0 1 0 1 0 1 0 1 0 1 -1 1 -1 1 -1 1 -1 1 -1 1 -1 1 -1 1 -1 1 -1 1 -1 1 -1 1 -1 1 -1 1 -1 1 -1 1 -1 1 -1 0 -1 0 -1 0 -1 0 -1 0 -1 0 -1 0 -1 0 -1 0zm32 30l-56 0 0 -1 0 -1 0 -1 0 -1 0 -1 0 -1 0 -1 1 -1 1 -1 1 -1 1 -1 1 -1 1 -1 1 -1 1 -1 1 -1 1 -1 1 -1 1 -1 1 -1 1 -1 1 -1 1 -1 1 0 1 0 1 0 1 0 1 0 1 0 1 0 1 0 1 0 1 0 1 0 1 0 1 0 1 0 1 0 1 0 1 0 1 0 1 1 1 1 1 1 1 1 1 1 1 1 1 1 1 1 1 1 1 1 1 1 1 1 1 1 1 1 1 1 1 1 0 1 0 1 0 1 0 1 0 1 0 1 0 1zm-56 603l0 -603 56 0 0 603 -56 0zm0 0l56 0 0 1 0 1 0 1 0 1 0 1 0 1 0 1 -1 1 -1 1 -1 1 -1 1 -1 1 -1 1 -1 1 -1 1 -1 1 -1 1 -1 1 -1 1 -1 1 -1 1 -1 1 -1 1 -1 0 -1 0 -1 0 -1 0 -1 0 -1 0 -1 0 -1 0 -1 0 -1 0 -1 0 -1 0 -1 0 -1 0 -1 0 -1 0 -1 0 -1 0 -1 -1 -1 -1 -1 -1 -1 -1 -1 -1 -1 -1 -1 -1 -1 -1 -1 -1 -1 -1 -1 -1 -1 -1 -1 -1 -1 -1 -1 -1 -1 -1 0 -1 0 -1 0 -1 0 -1 0 -1 0 -1 0 -1zm-1556 -603l-56 0 0 -1 0 -1 0 -1 0 -1 0 -1 0 -1 0 -1 1 -1 1 -1 1 -1 1 -1 1 -1 1 -1 1 -1 1 -1 1 -1 1 -1 1 -1 1 -1 1 -1 1 -1 1 -1 1 -1 1 0 1 0 1 0 1 0 1 0 1 0 1 0 1 0 1 0 1 0 1 0 1 0 1 0 1 0 1 0 1 0 1 0 1 0 1 1 1 1 1 1 1 1 1 1 1 1 1 1 1 1 1 1 1 1 1 1 1 1 1 1 1 1 1 1 1 1 0 1 0 1 0 1 0 1 0 1 0 1 0 1zm-56 603l0 -603 56 0 0 603 -56 0zm0 0l56 0 0 1 0 1 0 1 0 1 0 1 0 1 0 1 -1 1 -1 1 -1 1 -1 1 -1 1 -1 1 -1 1 -1 1 -1 1 -1 1 -1 1 -1 1 -1 1 -1 1 -1 1 -1 1 -1 0 -1 0 -1 0 -1 0 -1 0 -1 0 -1 0 -1 0 -1 0 -1 0 -1 0 -1 0 -1 0 -1 0 -1 0 -1 0 -1 0 -1 0 -1 -1 -1 -1 -1 -1 -1 -1 -1 -1 -1 -1 -1 -1 -1 -1 -1 -1 -1 -1 -1 -1 -1 -1 -1 -1 -1 -1 -1 -1 -1 -1 0 -1 0 -1 0 -1 0 -1 0 -1 0 -1 0 -1zm-475 -603l-56 0 0 -1 0 -1 0 -1 0 -1 0 -1 0 -1 0 -1 1 -1 1 -1 1 -1 1 -1 1 -1 1 -1 1 -1 1 -1 1 -1 1 -1 1 -1 1 -1 1 -1 1 -1 1 -1 1 -1 1 0 1 0 1 0 1 0 1 0 1 0 1 0 1 0 1 0 1 0 1 0 1 0 1 0 1 0 1 0 1 0 1 0 1 0 1 1 1 1 1 1 1 1 1 1 1 1 1 1 1 1 1 1 1 1 1 1 1 1 1 1 1 1 1 1 1 1 0 1 0 1 0 1 0 1 0 1 0 1 0 1zm-56 603l0 -603 56 0 0 603 -56 0zm0 0l56 0 0 1 0 1 0 1 0 1 0 1 0 1 0 1 -1 1 -1 1 -1 1 -1 1 -1 1 -1 1 -1 1 -1 1 -1 1 -1 1 -1 1 -1 1 -1 1 -1 1 -1 1 -1 1 -1 0 -1 0 -1 0 -1 0 -1 0 -1 0 -1 0 -1 0 -1 0 -1 0 -1 0 -1 0 -1 0 -1 0 -1 0 -1 0 -1 0 -1 0 -1 -1 -1 -1 -1 -1 -1 -1 -1 -1 -1 -1 -1 -1 -1 -1 -1 -1 -1 -1 -1 -1 -1 -1 -1 -1 -1 -1 -1 -1 -1 -1 0 -1 0 -1 0 -1 0 -1 0 -1 0 -1 0 -1zm-475 -603l-56 0 0 -1 0 -1 0 -1 0 -1 0 -1 0 -1 0 -1 1 -1 1 -1 1 -1 1 -1 1 -1 1 -1 1 -1 1 -1 1 -1 1 -1 1 -1 1 -1 1 -1 1 -1 1 -1 1 -1 1 0 1 0 1 0 1 0 1 0 1 0 1 0 1 0 1 0 1 0 1 0 1 0 1 0 1 0 1 0 1 0 1 0 1 0 1 1 1 1 1 1 1 1 1 1 1 1 1 1 1 1 1 1 1 1 1 1 1 1 1 1 1 1 1 1 1 1 0 1 0 1 0 1 0 1 0 1 0 1 0 1zm-56 603l0 -603 56 0 0 603 -56 0zm0 0l56 0 0 1 0 1 0 1 0 1 0 1 0 1 0 1 -1 1 -1 1 -1 1 -1 1 -1 1 -1 1 -1 1 -1 1 -1 1 -1 1 -1 1 -1 1 -1 1 -1 1 -1 1 -1 1 -1 0 -1 0 -1 0 -1 0 -1 0 -1 0 -1 0 -1 0 -1 0 -1 0 -1 0 -1 0 -1 0 -1 0 -1 0 -1 0 -1 0 -1 0 -1 -1 -1 -1 -1 -1 -1 -1 -1 -1 -1 -1 -1 -1 -1 -1 -1 -1 -1 -1 -1 -1 -1 -1 -1 -1 -1 -1 -1 -1 -1 -1 0 -1 0 -1 0 -1 0 -1 0 -1 0 -1 0 -1zm-475 -603l-56 0 0 -1 0 -1 0 -1 0 -1 0 -1 0 -1 0 -1 1 -1 1 -1 1 -1 1 -1 1 -1 1 -1 1 -1 1 -1 1 -1 1 -1 1 -1 1 -1 1 -1 1 -1 1 -1 1 -1 1 0 1 0 1 0 1 0 1 0 1 0 1 0 1 0 1 0 1 0 1 0 1 0 1 0 1 0 1 0 1 0 1 0 1 0 1 1 1 1 1 1 1 1 1 1 1 1 1 1 1 1 1 1 1 1 1 1 1 1 1 1 1 1 1 1 1 1 0 1 0 1 0 1 0 1 0 1 0 1 0 1zm-56 603l0 -603 56 0 0 603 -56 0zm0 0l56 0 0 1 0 1 0 1 0 1 0 1 0 1 0 1 -1 1 -1 1 -1 1 -1 1 -1 1 -1 1 -1 1 -1 1 -1 1 -1 1 -1 1 -1 1 -1 1 -1 1 -1 1 -1 1 -1 0 -1 0 -1 0 -1 0 -1 0 -1 0 -1 0 -1 0 -1 0 -1 0 -1 0 -1 0 -1 0 -1 0 -1 0 -1 0 -1 0 -1 0 -1 -1 -1 -1 -1 -1 -1 -1 -1 -1 -1 -1 -1 -1 -1 -1 -1 -1 -1 -1 -1 -1 -1 -1 -1 -1 -1 -1 -1 -1 -1 -1 0 -1 0 -1 0 -1 0 -1 0 -1 0 -1 0 -1z"/>
   </g>
   <path class="fil6 str2" d="M12990 10556c-286,795 -91,345 -223,274 -133,-71 483,-342 443,-124 -40,218 -483,165 -471,211 12,46 185,77 238,-39 52,-116 -24,90 113,55 137,-36 193,-139 171,-81 -22,58 16,48 89,13 72,-35 155,-72 155,-72"/>
   <path class="fil6 str2" d="M12837 11338c-44,-139 541,-181 409,159 -41,105 -319,252 -295,24 -94,-83 -229,-122 -229,77 0,107 120,-118 266,-167 154,-52 48,-27 48,166 0,-9 133,-118 133,-165 0,220 13,-84 42,37 42,178 82,7 258,13 69,2 9,13 13,13"/>
   <path class="fil6 str2" d="M12808 12061c-5,170 374,-26 327,-272 -68,0 -195,671 133,222 157,-215 -1017,-9 -233,-9 155,0 330,12 467,12"/>
   <path class="fil6 str3" d="M11644 13579c463,-46 875,291 922,754 46,463 -291,875 -754,922 -463,46 -875,-291 -922,-754 -46,-463 291,-875 754,-922zm-538 739c44,-276 268,-498 559,-528 291,-29 555,144 653,406m32 319c-44,276 -268,498 -559,528 -291,29 -555,-144 -653,-406m617 183c-76,8 2,-70 -90,-61 -43,4 -130,107 -147,90 -19,-19 -74,-77 -61,-98 28,-46 43,-102 101,-124 -33,-32 -151,-12 -155,-67 0,-1 -214,-177 -92,-254 24,-15 -9,-89 15,-135 20,-38 318,46 313,2 -2,-20 -28,-73 -97,-93 -12,-3 68,-9 112,-19 9,-2 -15,-34 -10,-36 19,-10 20,-14 43,-16m776 323c0,0 -54,39 -21,53m-1436 135c1,-32 56,-25 12,-69m763 368c76,-8 -16,-68 76,-78 43,-4 148,79 162,58 15,-23 58,-90 41,-108 -37,-40 -62,-92 -124,-101 26,-38 146,-42 138,-97 0,-1 175,-216 40,-267 -26,-10 -9,-89 -41,-129 -27,-33 -302,109 -307,64 -2,-20 13,-77 77,-110 11,-6 -69,5 -114,3 -9,0 8,-36 2,-38 -20,-6 -23,-10 -45,-7"/>
   <g>
    <path class="fil4" d="M11233 9401l0 172 -5 0 -5 0 -5 -1 -5 -1 -5 -1 -5 -1 -5 -1 -5 -2 -4 -2 -4 -2 -4 -2 -4 -2 -4 -2 -4 -3 -4 -3 -3 -3 -3 -3 -3 -3 -3 -3 -3 -3 -3 -3 -2 -4 -2 -4 -2 -4 -2 -4 -2 -4 -1 -4 -1 -4 -1 -4 -1 -4 0 -4 0 -4 0 -4 0 -4 1 -4 1 -4 1 -4 1 -4 2 -4 2 -4 2 -4 2 -4 2 -4 3 -3 3 -3 3 -3 3 -3 3 -3 3 -3 4 -3 4 -3 4 -2 4 -2 4 -2 4 -2 4 -2 5 -2 5 -1 5 -1 5 -1 5 -1 5 -1 5 0 5 0zm1192 172l-1192 0 0 -172 1192 0 0 172zm0 0l0 -172 5 0 5 0 5 1 5 1 5 1 5 1 5 1 5 2 4 2 4 2 4 2 4 2 4 2 4 3 4 3 3 3 3 3 3 3 3 3 3 3 3 3 2 4 2 4 2 4 2 4 2 4 1 4 1 4 1 4 1 4 0 4 0 4 0 4 0 4 -1 4 -1 4 -1 4 -1 4 -2 4 -2 4 -2 4 -2 4 -2 4 -3 3 -3 3 -3 3 -3 3 -3 3 -3 3 -4 3 -4 3 -4 2 -4 2 -4 2 -4 2 -4 2 -5 2 -5 1 -5 1 -5 1 -5 1 -5 1 -5 0 -5 0z"/>
   </g>
   <g>
    <path class="fil7" d="M13019 9371l-204 0 0 -4 0 -4 1 -4 1 -4 1 -4 1 -4 2 -4 2 -4 2 -4 2 -4 2 -4 3 -3 3 -3 3 -3 3 -3 3 -3 4 -3 4 -3 4 -3 4 -2 4 -2 4 -2 4 -2 5 -2 5 -2 5 -1 5 -1 5 -1 5 -1 5 -1 5 0 5 0 5 0 5 0 5 1 5 1 5 1 5 1 5 1 5 2 5 2 4 2 4 2 4 2 4 2 4 3 4 3 4 3 3 3 3 3 3 3 3 3 3 3 2 4 2 4 2 4 2 4 2 4 1 4 1 4 1 4 1 4 0 4 0 4zm-204 231l0 -231 204 0 0 231 -204 0zm0 0l204 0 0 4 0 4 -1 4 -1 4 -1 4 -1 4 -2 4 -2 4 -2 4 -2 4 -2 4 -3 3 -3 3 -3 3 -3 3 -3 3 -4 3 -4 3 -4 3 -4 2 -4 2 -4 2 -4 2 -5 2 -5 2 -5 1 -5 1 -5 1 -5 1 -5 1 -5 0 -5 0 -5 0 -5 0 -5 -1 -5 -1 -5 -1 -5 -1 -5 -1 -5 -2 -5 -2 -4 -2 -4 -2 -4 -2 -4 -2 -4 -3 -4 -3 -4 -3 -3 -3 -3 -3 -3 -3 -3 -3 -3 -3 -2 -4 -2 -4 -2 -4 -2 -4 -2 -4 -1 -4 -1 -4 -1 -4 -1 -4 0 -4 0 -4z"/>
   </g>
   <g>
    <path class="fil7" d="M13475 9300l-204 0 0 -4 0 -4 1 -4 1 -4 1 -4 1 -4 2 -4 2 -4 2 -4 2 -4 2 -4 3 -3 3 -3 3 -3 3 -3 3 -3 4 -3 4 -3 4 -3 4 -2 4 -2 4 -2 4 -2 5 -2 5 -2 5 -1 5 -1 5 -1 5 -1 5 -1 5 0 5 0 5 0 5 0 5 1 5 1 5 1 5 1 5 1 5 2 5 2 4 2 4 2 4 2 4 2 4 3 4 3 4 3 3 3 3 3 3 3 3 3 3 3 2 4 2 4 2 4 2 4 2 4 1 4 1 4 1 4 1 4 0 4 0 4zm-204 231l0 -231 204 0 0 231 -204 0zm0 0l204 0 0 4 0 4 -1 4 -1 4 -1 4 -1 4 -2 4 -2 4 -2 4 -2 4 -2 4 -3 3 -3 3 -3 3 -3 3 -3 3 -4 3 -4 3 -4 3 -4 2 -4 2 -4 2 -4 2 -5 2 -5 2 -5 1 -5 1 -5 1 -5 1 -5 1 -5 0 -5 0 -5 0 -5 0 -5 -1 -5 -1 -5 -1 -5 -1 -5 -1 -5 -2 -5 -2 -4 -2 -4 -2 -4 -2 -4 -2 -4 -3 -4 -3 -4 -3 -3 -3 -3 -3 -3 -3 -3 -3 -3 -3 -2 -4 -2 -4 -2 -4 -2 -4 -2 -4 -1 -4 -1 -4 -1 -4 -1 -4 0 -4 0 -4z"/>
   </g>
   <g>
    <path class="fil7" d="M13971 9358l-204 0 0 -4 0 -4 1 -4 1 -4 1 -4 1 -4 2 -4 2 -4 2 -4 2 -4 2 -4 3 -3 3 -3 3 -3 3 -3 3 -3 4 -3 4 -3 4 -3 4 -2 4 -2 4 -2 4 -2 5 -2 5 -2 5 -1 5 -1 5 -1 5 -1 5 -1 5 0 5 0 5 0 5 0 5 1 5 1 5 1 5 1 5 1 5 2 5 2 4 2 4 2 4 2 4 2 4 3 4 3 4 3 3 3 3 3 3 3 3 3 3 3 2 4 2 4 2 4 2 4 2 4 1 4 1 4 1 4 1 4 0 4 0 4zm-204 231l0 -231 204 0 0 231 -204 0zm0 0l204 0 0 4 0 4 -1 4 -1 4 -1 4 -1 4 -2 4 -2 4 -2 4 -2 4 -2 4 -3 3 -3 3 -3 3 -3 3 -3 3 -4 3 -4 3 -4 3 -4 2 -4 2 -4 2 -4 2 -5 2 -5 2 -5 1 -5 1 -5 1 -5 1 -5 1 -5 0 -5 0 -5 0 -5 0 -5 -1 -5 -1 -5 -1 -5 -1 -5 -1 -5 -2 -5 -2 -4 -2 -4 -2 -4 -2 -4 -2 -4 -3 -4 -3 -4 -3 -3 -3 -3 -3 -3 -3 -3 -3 -3 -3 -2 -4 -2 -4 -2 -4 -2 -4 -2 -4 -1 -4 -1 -4 -1 -4 -1 -4 0 -4 0 -4z"/>
   </g>
   <g>
    <path class="fil7" d="M14532 9337l-204 0 0 -4 0 -4 1 -4 1 -4 1 -4 1 -4 2 -4 2 -4 2 -4 2 -4 2 -4 3 -3 3 -3 3 -3 3 -3 3 -3 4 -3 4 -3 4 -3 4 -2 4 -2 4 -2 4 -2 5 -2 5 -2 5 -1 5 -1 5 -1 5 -1 5 -1 5 0 5 0 5 0 5 0 5 1 5 1 5 1 5 1 5 1 5 2 5 2 4 2 4 2 4 2 4 2 4 3 4 3 4 3 3 3 3 3 3 3 3 3 3 3 2 4 2 4 2 4 2 4 2 4 1 4 1 4 1 4 1 4 0 4 0 4zm-204 231l0 -231 204 0 0 231 -204 0zm0 0l204 0 0 4 0 4 -1 4 -1 4 -1 4 -1 4 -2 4 -2 4 -2 4 -2 4 -2 4 -3 3 -3 3 -3 3 -3 3 -3 3 -4 3 -4 3 -4 3 -4 2 -4 2 -4 2 -4 2 -5 2 -5 2 -5 1 -5 1 -5 1 -5 1 -5 1 -5 0 -5 0 -5 0 -5 0 -5 -1 -5 -1 -5 -1 -5 -1 -5 -1 -5 -2 -5 -2 -4 -2 -4 -2 -4 -2 -4 -2 -4 -3 -4 -3 -4 -3 -3 -3 -3 -3 -3 -3 -3 -3 -3 -3 -2 -4 -2 -4 -2 -4 -2 -4 -2 -4 -1 -4 -1 -4 -1 -4 -1 -4 0 -4 0 -4z"/>
   </g>
   <g>
    <path class="fil7" d="M15538 9501l0 -172 5 0 5 0 5 1 5 1 5 1 5 1 5 1 5 2 4 2 4 2 4 2 4 2 4 2 4 3 4 3 3 3 3 3 3 3 3 3 3 3 3 3 2 4 2 4 2 4 2 4 2 4 1 4 1 4 1 4 1 4 0 4 0 4 0 4 0 4 -1 4 -1 4 -1 4 -1 4 -2 4 -2 4 -2 4 -2 4 -2 4 -3 3 -3 3 -3 3 -3 3 -3 3 -3 3 -4 3 -4 3 -4 2 -4 2 -4 2 -4 2 -4 2 -5 2 -5 1 -5 1 -5 1 -5 1 -5 1 -5 0 -5 0zm-594 -172l594 0 0 172 -594 0 0 -172zm0 0l0 172 -5 0 -5 0 -5 -1 -5 -1 -5 -1 -5 -1 -5 -1 -5 -2 -4 -2 -4 -2 -4 -2 -4 -2 -4 -2 -4 -3 -4 -3 -3 -3 -3 -3 -3 -3 -3 -3 -3 -3 -3 -3 -2 -4 -2 -4 -2 -4 -2 -4 -2 -4 -1 -4 -1 -4 -1 -4 -1 -4 0 -4 0 -4 0 -4 0 -4 1 -4 1 -4 1 -4 1 -4 2 -4 2 -4 2 -4 2 -4 2 -4 3 -3 3 -3 3 -3 3 -3 3 -3 3 -3 4 -3 4 -3 4 -2 4 -2 4 -2 4 -2 4 -2 5 -2 5 -1 5 -1 5 -1 5 -1 5 -1 5 0 5 0z"/>
   </g>
   <g>
    <path class="fil4" d="M13766 10758l0 172 -5 0 -5 0 -5 -1 -5 -1 -5 -1 -5 -1 -5 -1 -5 -2 -4 -2 -4 -2 -4 -2 -4 -2 -4 -2 -4 -3 -4 -3 -3 -3 -3 -3 -3 -3 -3 -3 -3 -3 -3 -3 -2 -4 -2 -4 -2 -4 -2 -4 -2 -4 -1 -4 -1 -4 -1 -4 -1 -4 0 -4 0 -4 0 -4 0 -4 1 -4 1 -4 1 -4 1 -4 2 -4 2 -4 2 -4 2 -4 2 -4 3 -3 3 -3 3 -3 3 -3 3 -3 3 -3 4 -3 4 -3 4 -2 4 -2 4 -2 4 -2 4 -2 5 -2 5 -1 5 -1 5 -1 5 -1 5 -1 5 0 5 0zm1192 172l-1192 0 0 -172 1192 0 0 172zm0 0l0 -172 5 0 5 0 5 1 5 1 5 1 5 1 5 1 5 2 4 2 4 2 4 2 4 2 4 2 4 3 4 3 3 3 3 3 3 3 3 3 3 3 3 3 2 4 2 4 2 4 2 4 2 4 1 4 1 4 1 4 1 4 0 4 0 4 0 4 0 4 -1 4 -1 4 -1 4 -1 4 -2 4 -2 4 -2 4 -2 4 -2 4 -3 3 -3 3 -3 3 -3 3 -3 3 -3 3 -4 3 -4 3 -4 2 -4 2 -4 2 -4 2 -4 2 -5 2 -5 1 -5 1 -5 1 -5 1 -5 1 -5 0 -5 0z"/>
   </g>
   <g>
    <path class="fil4" d="M13766 11938l0 172 -5 0 -5 0 -5 -1 -5 -1 -5 -1 -5 -1 -5 -1 -5 -2 -4 -2 -4 -2 -4 -2 -4 -2 -4 -2 -4 -3 -4 -3 -3 -3 -3 -3 -3 -3 -3 -3 -3 -3 -3 -3 -2 -4 -2 -4 -2 -4 -2 -4 -2 -4 -1 -4 -1 -4 -1 -4 -1 -4 0 -4 0 -4 0 -4 0 -4 1 -4 1 -4 1 -4 1 -4 2 -4 2 -4 2 -4 2 -4 2 -4 3 -3 3 -3 3 -3 3 -3 3 -3 3 -3 4 -3 4 -3 4 -2 4 -2 4 -2 4 -2 4 -2 5 -2 5 -1 5 -1 5 -1 5 -1 5 -1 5 0 5 0zm2145 172l-2145 0 0 -172 2145 0 0 172zm0 0l0 -172 5 0 5 0 5 1 5 1 5 1 5 1 5 1 5 2 4 2 4 2 4 2 4 2 4 2 4 3 4 3 3 3 3 3 3 3 3 3 3 3 3 3 2 4 2 4 2 4 2 4 2 4 1 4 1 4 1 4 1 4 0 4 0 4 0 4 0 4 -1 4 -1 4 -1 4 -1 4 -2 4 -2 4 -2 4 -2 4 -2 4 -3 3 -3 3 -3 3 -3 3 -3 3 -3 3 -4 3 -4 3 -4 2 -4 2 -4 2 -4 2 -4 2 -5 2 -5 1 -5 1 -5 1 -5 1 -5 1 -5 0 -5 0z"/>
   </g>
   <g>
    <path class="fil4" d="M12056 12419l0 172 -5 0 -5 0 -5 -1 -5 -1 -5 -1 -5 -1 -5 -1 -5 -2 -4 -2 -4 -2 -4 -2 -4 -2 -4 -2 -4 -3 -4 -3 -3 -3 -3 -3 -3 -3 -3 -3 -3 -3 -3 -3 -2 -4 -2 -4 -2 -4 -2 -4 -2 -4 -1 -4 -1 -4 -1 -4 -1 -4 0 -4 0 -4 0 -4 0 -4 1 -4 1 -4 1 -4 1 -4 2 -4 2 -4 2 -4 2 -4 2 -4 3 -3 3 -3 3 -3 3 -3 3 -3 3 -3 4 -3 4 -3 4 -2 4 -2 4 -2 4 -2 4 -2 5 -2 5 -1 5 -1 5 -1 5 -1 5 -1 5 0 5 0zm3224 172l-3224 0 0 -172 3224 0 0 172zm0 0l0 -172 5 0 5 0 5 1 5 1 5 1 5 1 5 1 5 2 4 2 4 2 4 2 4 2 4 2 4 3 4 3 3 3 3 3 3 3 3 3 3 3 3 3 2 4 2 4 2 4 2 4 2 4 1 4 1 4 1 4 1 4 0 4 0 4 0 4 0 4 -1 4 -1 4 -1 4 -1 4 -2 4 -2 4 -2 4 -2 4 -2 4 -3 3 -3 3 -3 3 -3 3 -3 3 -3 3 -4 3 -4 3 -4 2 -4 2 -4 2 -4 2 -4 2 -5 2 -5 1 -5 1 -5 1 -5 1 -5 1 -5 0 -5 0z"/>
   </g>
   <path class="fil8 str4" d="M9658 16237c-164,0 -312,-68 -417,-177l-220 221 197 -760 559 0 -220 222 0 0c105,106 251,172 413,172 82,0 159,-17 230,-47 0,0 0,0 0,0l0 1c-85,216 -295,368 -541,368z"/>
   <path class="fil1" d="M10708 4004l0 10097c-2521,0 -4210,0 -6732,0l0 -10097 6732 0z"/>
   <path class="fil2" d="M3977 4003l6732 0 0 5586 -6732 -3199c11,-331 0,-2166 0,-2387z"/>
   <path class="fil3 str0" d="M10708 4004l0 10097c-2521,0 -4210,0 -6732,0l0 -10097 6732 0z"/>
   <path class="fil9 str5" d="M8991 5331l-113 -160 107 -139c9,-12 9,-25 -1,-35 -13,-12 -28,-6 -37,5l-110 150 -32 0 0 -136c0,-13 -7,-24 -24,-24 -18,0 -25,12 -25,24l0 330c0,13 7,24 25,24 17,0 24,-12 24,-24l0 -147 32 0 113 160c7,11 20,16 34,7 15,-11 14,-25 6,-35zm106 -235c0,-33 14,-58 50,-58l42 0c36,0 50,25 50,58l0 168c0,33 -14,58 -50,58l-42 0c-36,0 -50,-25 -50,-58l0 -168zm192 0c0,-58 -33,-105 -100,-105l-42 0c-67,0 -100,47 -100,105l0 168c0,58 33,105 100,105l42 0c67,0 100,-47 100,-105l0 -168zm252 -53l0 302c0,13 7,24 25,24 17,0 25,-12 25,-24l0 -325c0,-13 -8,-24 -25,-24l-177 0c-17,0 -25,12 -25,24l0 325c0,13 8,24 25,24 17,0 25,-12 25,-24l0 -302 128 0zm318 302c0,13 7,24 24,24 18,0 25,-12 25,-24l0 -330c0,-13 -7,-24 -25,-24 -10,0 -17,4 -25,18l-140 250 -1 0c1,-9 2,-22 2,-36l0 -208c0,-13 -7,-24 -24,-24 -18,0 -25,12 -25,24l0 330c0,13 7,24 25,24 10,0 17,-4 25,-18l140 -250 1 0c-1,9 -2,22 -2,36l0 208zm110 -238c0,38 22,81 63,98 -4,6 -7,12 -13,26 0,0 -41,93 -46,104 -5,11 -2,25 14,32 16,6 27,-2 32,-14 5,-13 61,-141 61,-141l67 0 0 133c0,13 7,24 25,24 17,0 25,-12 25,-24l0 -325c0,-13 -7,-24 -25,-24l-101 0c-67,0 -102,42 -102,97l0 15zm100 58c-36,0 -50,-25 -50,-58l0 -15c0,-29 15,-49 52,-49l77 0 0 122 -78 0z"/>
   <path class="fil9 str5" d="M12361 13201l-113 -160 107 -139c9,-12 9,-25 -1,-35 -13,-12 -28,-6 -37,5l-110 150 -32 0 0 -136c0,-13 -7,-24 -24,-24 -18,0 -25,12 -25,24l0 330c0,13 7,24 25,24 17,0 24,-12 24,-24l0 -147 32 0 113 160c7,11 20,16 34,7 15,-11 14,-25 6,-35zm106 -235c0,-33 14,-58 50,-58l42 0c36,0 50,25 50,58l0 168c0,33 -14,58 -50,58l-42 0c-36,0 -50,-25 -50,-58l0 -168zm192 0c0,-58 -33,-105 -100,-105l-42 0c-67,0 -100,47 -100,105l0 168c0,58 33,105 100,105l42 0c67,0 100,-47 100,-105l0 -168zm252 -53l0 302c0,13 7,24 25,24 17,0 25,-12 25,-24l0 -325c0,-13 -8,-24 -25,-24l-177 0c-17,0 -25,12 -25,24l0 325c0,13 8,24 25,24 17,0 25,-12 25,-24l0 -302 128 0zm318 302c0,13 7,24 24,24 18,0 25,-12 25,-24l0 -330c0,-13 -7,-24 -25,-24 -10,0 -17,4 -25,18l-140 250 -1 0c1,-9 2,-22 2,-36l0 -208c0,-13 -7,-24 -24,-24 -18,0 -25,12 -25,24l0 330c0,13 7,24 25,24 10,0 17,-4 25,-18l140 -250 1 0c-1,9 -2,22 -2,36l0 208zm110 -238c0,38 22,81 63,98 -4,6 -7,12 -13,26 0,0 -41,93 -46,104 -5,11 -2,25 14,32 16,6 27,-2 32,-14 5,-13 61,-141 61,-141l67 0 0 133c0,13 7,24 25,24 17,0 25,-12 25,-24l0 -325c0,-13 -7,-24 -25,-24l-101 0c-67,0 -102,42 -102,97l0 15zm100 58c-36,0 -50,-25 -50,-58l0 -15c0,-29 15,-49 52,-49l77 0 0 122 -78 0zm398 35l86 0c36,0 50,24 50,56l0 12c0,32 -14,49 -50,49l-86 0 0 -117zm0 -46l0 -110 64 0c36,0 50,13 50,44l0 13c0,32 -15,54 -50,54l-64 0zm186 102c0,-44 -19,-74 -58,-86 23,-14 36,-37 36,-69l0 -13c0,-59 -34,-92 -100,-92l-88 0c-18,0 -25,12 -25,24l0 320c0,13 7,24 25,24l110 0c67,0 100,-38 100,-97l0 -12zm258 108c12,0 23,-7 23,-24 0,-16 -11,-24 -23,-24l-144 0 0 -118 119 0c12,0 23,-7 23,-24 0,-16 -11,-24 -23,-24l-119 0 0 -108 144 0c12,0 23,-7 23,-24 0,-16 -11,-24 -23,-24l-169 0c-17,0 -24,12 -24,24l0 320c0,13 7,24 24,24l169 0zm131 -190l0 -131 82 0c36,0 52,18 52,50l0 26c0,32 -15,55 -52,55l-82 0zm82 47c68,0 101,-44 101,-102l0 -26c0,-59 -33,-97 -101,-97l-107 0c-17,0 -24,12 -24,24l0 325c0,13 7,24 25,24 17,0 25,-12 25,-24l0 -124 82 0zm400 -206c0,-13 -8,-24 -25,-24 -17,0 -25,12 -25,24l0 131 -138 0 0 -131c0,-13 -7,-24 -25,-24 -17,0 -25,12 -25,24l0 330c0,13 8,24 25,24 17,0 25,-12 25,-24l0 -152 138 0 0 152c0,13 7,24 25,24 17,0 25,-12 25,-24l0 -330zm237 246l29 92c4,13 16,20 31,15 14,-5 19,-17 15,-30l-106 -329c-4,-12 -10,-18 -25,-18l-3 0c-15,0 -21,6 -25,18l-106 329c-4,13 2,25 15,30 14,5 26,-3 31,-15l29 -92 114 0zm-65 -159c4,-12 5,-17 8,-30l1 0c3,13 4,18 8,30l36 115 -88 0 36 -115z"/>
   <path class="fil5 str6" d="M5403 6857l0 619c0,26 14,50 51,50 35,0 51,-24 51,-50l0 -666c0,-26 -16,-50 -51,-50l-363 0c-34,0 -51,24 -51,50l0 666c0,26 16,50 51,50 36,0 51,-24 51,-50l0 -619 262 0zm367 267l0 -269 168 0c74,0 106,38 106,102l0 54c0,66 -31,112 -106,112l-168 0zm168 97c139,0 207,-91 207,-209l0 -54c0,-121 -68,-198 -207,-198l-220 0c-35,0 -50,24 -50,50l0 666c0,26 15,50 51,50 36,0 51,-24 51,-50l0 -255 168 0zm425 -257c0,-67 29,-119 104,-119l86 0c74,0 104,52 104,119l0 345c0,67 -29,119 -104,119l-86 0c-74,0 -104,-52 -104,-119l0 -345zm395 0c0,-119 -68,-216 -205,-216l-86 0c-137,0 -205,97 -205,216l0 345c0,119 68,216 205,216l86 0c137,0 205,-97 205,-216l0 -345zm340 561c36,0 51,-24 51,-50l0 -619 157 0c25,0 47,-14 47,-49 0,-32 -23,-49 -47,-49l-416 0c-25,0 -47,16 -47,49 0,35 23,49 47,49l157 0 0 619c0,26 15,50 51,50zm441 -561c0,-67 29,-119 104,-119l86 0c74,0 104,52 104,119l0 345c0,67 -29,119 -104,119l-86 0c-74,0 -104,-52 -104,-119l0 -345zm395 0c0,-119 -68,-216 -205,-216l-86 0c-137,0 -205,97 -205,216l0 345c0,119 68,216 205,216l86 0c137,0 205,-97 205,-216l0 -345zm634 481l-232 -329 220 -286c19,-25 19,-52 -2,-71 -26,-24 -57,-12 -75,11l-226 307 -65 0 0 -279c0,-26 -15,-50 -50,-50 -37,0 -52,24 -52,50l0 677c0,26 15,50 52,50 35,0 50,-24 50,-50l0 -301 66 0 232 329c14,22 41,33 70,14 30,-22 28,-51 13,-72zm218 -481c0,-67 29,-119 104,-119l86 0c74,0 104,52 104,119l0 345c0,67 -29,119 -104,119l-86 0c-74,0 -104,-52 -104,-119l0 -345zm395 0c0,-119 -68,-216 -205,-216l-86 0c-137,0 -205,97 -205,216l0 345c0,119 68,216 205,216l86 0c137,0 205,-97 205,-216l0 -345zm304 414c8,-61 64,-522 64,-522l189 0 0 619c0,26 15,50 52,50 35,0 50,-24 50,-50l0 -666c0,-26 -15,-50 -50,-50l-281 0c-31,0 -49,20 -52,50 -3,31 -61,503 -67,545 -3,25 -6,41 -13,52 -11,20 -29,26 -60,26 -26,0 -50,16 -50,51 0,37 24,49 50,49 94,0 133,-30 154,-84 8,-21 12,-40 15,-68z"/>
   <g>
    <path class="fil4" d="M5035 5278l0 140 -3 0 -3 0 -3 0 -3 -1 -3 -1 -3 -1 -3 -1 -3 -1 -3 -1 -3 -2 -3 -2 -3 -2 -3 -2 -2 -2 -2 -2 -2 -2 -2 -2 -2 -3 -2 -3 -2 -3 -2 -3 -2 -3 -1 -3 -1 -3 -1 -3 -1 -3 -1 -3 -1 -3 -1 -3 0 -4 0 -4 0 -4 0 -4 0 -4 0 -4 1 -3 1 -3 1 -3 1 -3 1 -3 1 -3 1 -3 2 -3 2 -3 2 -3 2 -3 2 -3 2 -2 2 -2 2 -2 2 -2 3 -2 3 -2 3 -2 3 -2 3 -1 3 -1 3 -1 3 -1 3 -1 3 -1 3 0 3 0 3 0zm860 140l-860 0 0 -140 860 0 0 140zm0 0l0 -140 3 0 3 0 3 0 3 1 3 1 3 1 3 1 3 1 3 1 3 2 3 2 3 2 3 2 2 2 2 2 2 2 2 2 2 3 2 3 2 3 2 3 2 3 1 3 1 3 1 3 1 3 1 3 1 3 1 3 0 4 0 4 0 4 0 4 0 4 0 4 -1 3 -1 3 -1 3 -1 3 -1 3 -1 3 -1 3 -2 3 -2 3 -2 3 -2 3 -2 3 -2 2 -2 2 -2 2 -2 2 -3 2 -3 2 -3 2 -3 2 -3 1 -3 1 -3 1 -3 1 -3 1 -3 1 -3 0 -3 0 -3 0zm-860 690l0 140 -3 0 -3 0 -3 0 -3 -1 -3 -1 -3 -1 -3 -1 -3 -1 -3 -1 -3 -2 -3 -2 -3 -2 -3 -2 -2 -2 -2 -2 -2 -2 -2 -2 -2 -3 -2 -3 -2 -3 -2 -3 -2 -3 -1 -3 -1 -3 -1 -3 -1 -3 -1 -3 -1 -3 -1 -3 0 -4 0 -4 0 -4 0 -4 0 -4 0 -4 1 -3 1 -3 1 -3 1 -3 1 -3 1 -3 1 -3 2 -3 2 -3 2 -3 2 -3 2 -3 2 -2 2 -2 2 -2 2 -2 3 -2 3 -2 3 -2 3 -2 3 -1 3 -1 3 -1 3 -1 3 -1 3 -1 3 0 3 0 3 0zm2923 140l-2923 0 0 -140 2923 0 0 140zm0 0l0 -140 3 0 3 0 3 0 3 1 3 1 3 1 3 1 3 1 3 1 3 2 3 2 3 2 3 2 2 2 2 2 2 2 2 2 2 3 2 3 2 3 2 3 2 3 1 3 1 3 1 3 1 3 1 3 1 3 1 3 0 4 0 4 0 4 0 4 0 4 0 4 -1 3 -1 3 -1 3 -1 3 -1 3 -1 3 -1 3 -2 3 -2 3 -2 3 -2 3 -2 3 -2 2 -2 2 -2 2 -2 2 -3 2 -3 2 -3 2 -3 2 -3 1 -3 1 -3 1 -3 1 -3 1 -3 1 -3 0 -3 0 -3 0zm-2923 -555l0 140 -3 0 -3 0 -3 0 -3 -1 -3 -1 -3 -1 -3 -1 -3 -1 -3 -1 -3 -2 -3 -2 -3 -2 -3 -2 -2 -2 -2 -2 -2 -2 -2 -2 -2 -3 -2 -3 -2 -3 -2 -3 -2 -3 -1 -3 -1 -3 -1 -3 -1 -3 -1 -3 -1 -3 -1 -3 0 -4 0 -4 0 -4 0 -4 0 -4 0 -4 1 -3 1 -3 1 -3 1 -3 1 -3 1 -3 1 -3 2 -3 2 -3 2 -3 2 -3 2 -3 2 -2 2 -2 2 -2 2 -2 3 -2 3 -2 3 -2 3 -2 3 -1 3 -1 3 -1 3 -1 3 -1 3 -1 3 0 3 0 3 0zm2913 140l-2913 0 0 -140 2913 0 0 140zm0 0l0 -140 3 0 3 0 3 0 3 1 3 1 3 1 3 1 3 1 3 1 3 2 3 2 3 2 3 2 2 2 2 2 2 2 2 2 2 3 2 3 2 3 2 3 2 3 1 3 1 3 1 3 1 3 1 3 1 3 1 3 0 4 0 4 0 4 0 4 0 4 0 4 -1 3 -1 3 -1 3 -1 3 -1 3 -1 3 -1 3 -2 3 -2 3 -2 3 -2 3 -2 3 -2 2 -2 2 -2 2 -2 2 -3 2 -3 2 -3 2 -3 2 -3 1 -3 1 -3 1 -3 1 -3 1 -3 1 -3 0 -3 0 -3 0z"/>
   </g>
   <g>
    <path class="fil4" d="M4934 9074l0 140 -3 0 -3 0 -3 0 -3 -1 -3 -1 -3 -1 -3 -1 -3 -1 -3 -1 -3 -2 -3 -2 -3 -2 -3 -2 -2 -2 -2 -2 -2 -2 -2 -2 -2 -3 -2 -3 -2 -3 -2 -3 -2 -3 -1 -3 -1 -3 -1 -3 -1 -3 -1 -3 -1 -3 -1 -3 0 -4 0 -4 0 -4 0 -4 0 -4 0 -4 1 -3 1 -3 1 -3 1 -3 1 -3 1 -3 1 -3 2 -3 2 -3 2 -3 2 -3 2 -3 2 -2 2 -2 2 -2 2 -2 3 -2 3 -2 3 -2 3 -2 3 -1 3 -1 3 -1 3 -1 3 -1 3 -1 3 0 3 0 3 0zm1733 140l-1733 0 0 -140 1733 0 0 140zm0 0l0 -140 3 0 3 0 3 0 3 1 3 1 3 1 3 1 3 1 3 1 3 2 3 2 3 2 3 2 2 2 2 2 2 2 2 2 2 3 2 3 2 3 2 3 2 3 1 3 1 3 1 3 1 3 1 3 1 3 1 3 0 4 0 4 0 4 0 4 0 4 0 4 -1 3 -1 3 -1 3 -1 3 -1 3 -1 3 -1 3 -2 3 -2 3 -2 3 -2 3 -2 3 -2 2 -2 2 -2 2 -2 2 -3 2 -3 2 -3 2 -3 2 -3 1 -3 1 -3 1 -3 1 -3 1 -3 1 -3 0 -3 0 -3 0zm-1733 2795l0 140 -3 0 -3 0 -3 0 -3 -1 -3 -1 -3 -1 -3 -1 -3 -1 -3 -1 -3 -2 -3 -2 -3 -2 -3 -2 -2 -2 -2 -2 -2 -2 -2 -2 -2 -3 -2 -3 -2 -3 -2 -3 -2 -3 -1 -3 -1 -3 -1 -3 -1 -3 -1 -3 -1 -3 -1 -3 0 -4 0 -4 0 -4 0 -4 0 -4 0 -4 1 -3 1 -3 1 -3 1 -3 1 -3 1 -3 1 -3 2 -3 2 -3 2 -3 2 -3 2 -3 2 -2 2 -2 2 -2 2 -2 3 -2 3 -2 3 -2 3 -2 3 -1 3 -1 3 -1 3 -1 3 -1 3 -1 3 0 3 0 3 0zm1572 140l-1572 0 0 -140 1572 0 0 140zm0 0l0 -140 3 0 3 0 3 0 3 1 3 1 3 1 3 1 3 1 3 1 3 2 3 2 3 2 3 2 2 2 2 2 2 2 2 2 2 3 2 3 2 3 2 3 2 3 1 3 1 3 1 3 1 3 1 3 1 3 1 3 0 4 0 4 0 4 0 4 0 4 0 4 -1 3 -1 3 -1 3 -1 3 -1 3 -1 3 -1 3 -2 3 -2 3 -2 3 -2 3 -2 3 -2 2 -2 2 -2 2 -2 2 -3 2 -3 2 -3 2 -3 2 -3 1 -3 1 -3 1 -3 1 -3 1 -3 1 -3 0 -3 0 -3 0zm-1572 228l0 140 -3 0 -3 0 -3 0 -3 -1 -3 -1 -3 -1 -3 -1 -3 -1 -3 -1 -3 -2 -3 -2 -3 -2 -3 -2 -2 -2 -2 -2 -2 -2 -2 -2 -2 -3 -2 -3 -2 -3 -2 -3 -2 -3 -1 -3 -1 -3 -1 -3 -1 -3 -1 -3 -1 -3 -1 -3 0 -4 0 -4 0 -4 0 -4 0 -4 0 -4 1 -3 1 -3 1 -3 1 -3 1 -3 1 -3 1 -3 2 -3 2 -3 2 -3 2 -3 2 -3 2 -2 2 -2 2 -2 2 -2 3 -2 3 -2 3 -2 3 -2 3 -1 3 -1 3 -1 3 -1 3 -1 3 -1 3 0 3 0 3 0zm2135 140l-2135 0 0 -140 2135 0 0 140zm0 0l0 -140 3 0 3 0 3 0 3 1 3 1 3 1 3 1 3 1 3 1 3 2 3 2 3 2 3 2 2 2 2 2 2 2 2 2 2 3 2 3 2 3 2 3 2 3 1 3 1 3 1 3 1 3 1 3 1 3 1 3 0 4 0 4 0 4 0 4 0 4 0 4 -1 3 -1 3 -1 3 -1 3 -1 3 -1 3 -1 3 -2 3 -2 3 -2 3 -2 3 -2 3 -2 2 -2 2 -2 2 -2 2 -3 2 -3 2 -3 2 -3 2 -3 1 -3 1 -3 1 -3 1 -3 1 -3 1 -3 0 -3 0 -3 0zm-2135 -1487l0 140 -3 0 -3 0 -3 0 -3 -1 -3 -1 -3 -1 -3 -1 -3 -1 -3 -1 -3 -2 -3 -2 -3 -2 -3 -2 -2 -2 -2 -2 -2 -2 -2 -2 -2 -3 -2 -3 -2 -3 -2 -3 -2 -3 -1 -3 -1 -3 -1 -3 -1 -3 -1 -3 -1 -3 -1 -3 0 -4 0 -4 0 -4 0 -4 0 -4 0 -4 1 -3 1 -3 1 -3 1 -3 1 -3 1 -3 1 -3 2 -3 2 -3 2 -3 2 -3 2 -3 2 -2 2 -2 2 -2 2 -2 3 -2 3 -2 3 -2 3 -2 3 -1 3 -1 3 -1 3 -1 3 -1 3 -1 3 0 3 0 3 0zm3710 140l-3710 0 0 -140 3710 0 0 140zm0 0l0 -140 3 0 3 0 3 0 3 1 3 1 3 1 3 1 3 1 3 1 3 2 3 2 3 2 3 2 2 2 2 2 2 2 2 2 2 3 2 3 2 3 2 3 2 3 1 3 1 3 1 3 1 3 1 3 1 3 1 3 0 4 0 4 0 4 0 4 0 4 0 4 -1 3 -1 3 -1 3 -1 3 -1 3 -1 3 -1 3 -2 3 -2 3 -2 3 -2 3 -2 3 -2 2 -2 2 -2 2 -2 2 -3 2 -3 2 -3 2 -3 2 -3 1 -3 1 -3 1 -3 1 -3 1 -3 1 -3 0 -3 0 -3 0zm-3710 228l0 140 -3 0 -3 0 -3 0 -3 -1 -3 -1 -3 -1 -3 -1 -3 -1 -3 -1 -3 -2 -3 -2 -3 -2 -3 -2 -2 -2 -2 -2 -2 -2 -2 -2 -2 -3 -2 -3 -2 -3 -2 -3 -2 -3 -1 -3 -1 -3 -1 -3 -1 -3 -1 -3 -1 -3 -1 -3 0 -4 0 -4 0 -4 0 -4 0 -4 0 -4 1 -3 1 -3 1 -3 1 -3 1 -3 1 -3 1 -3 2 -3 2 -3 2 -3 2 -3 2 -3 2 -2 2 -2 2 -2 2 -2 3 -2 3 -2 3 -2 3 -2 3 -1 3 -1 3 -1 3 -1 3 -1 3 -1 3 0 3 0 3 0zm2501 140l-2501 0 0 -140 2501 0 0 140zm0 0l0 -140 3 0 3 0 3 0 3 1 3 1 3 1 3 1 3 1 3 1 3 2 3 2 3 2 3 2 2 2 2 2 2 2 2 2 2 3 2 3 2 3 2 3 2 3 1 3 1 3 1 3 1 3 1 3 1 3 1 3 0 4 0 4 0 4 0 4 0 4 0 4 -1 3 -1 3 -1 3 -1 3 -1 3 -1 3 -1 3 -2 3 -2 3 -2 3 -2 3 -2 3 -2 2 -2 2 -2 2 -2 2 -3 2 -3 2 -3 2 -3 2 -3 1 -3 1 -3 1 -3 1 -3 1 -3 1 -3 0 -3 0 -3 0zm-2501 -1487l0 140 -3 0 -3 0 -3 0 -3 -1 -3 -1 -3 -1 -3 -1 -3 -1 -3 -1 -3 -2 -3 -2 -3 -2 -3 -2 -2 -2 -2 -2 -2 -2 -2 -2 -2 -3 -2 -3 -2 -3 -2 -3 -2 -3 -1 -3 -1 -3 -1 -3 -1 -3 -1 -3 -1 -3 -1 -3 0 -4 0 -4 0 -4 0 -4 0 -4 0 -4 1 -3 1 -3 1 -3 1 -3 1 -3 1 -3 1 -3 2 -3 2 -3 2 -3 2 -3 2 -3 2 -2 2 -2 2 -2 2 -2 3 -2 3 -2 3 -2 3 -2 3 -1 3 -1 3 -1 3 -1 3 -1 3 -1 3 0 3 0 3 0zm3710 140l-3710 0 0 -140 3710 0 0 140zm0 0l0 -140 3 0 3 0 3 0 3 1 3 1 3 1 3 1 3 1 3 1 3 2 3 2 3 2 3 2 2 2 2 2 2 2 2 2 2 3 2 3 2 3 2 3 2 3 1 3 1 3 1 3 1 3 1 3 1 3 1 3 0 4 0 4 0 4 0 4 0 4 0 4 -1 3 -1 3 -1 3 -1 3 -1 3 -1 3 -1 3 -2 3 -2 3 -2 3 -2 3 -2 3 -2 2 -2 2 -2 2 -2 2 -3 2 -3 2 -3 2 -3 2 -3 1 -3 1 -3 1 -3 1 -3 1 -3 1 -3 0 -3 0 -3 0zm-3710 228l0 140 -3 0 -3 0 -3 0 -3 -1 -3 -1 -3 -1 -3 -1 -3 -1 -3 -1 -3 -2 -3 -2 -3 -2 -3 -2 -2 -2 -2 -2 -2 -2 -2 -2 -2 -3 -2 -3 -2 -3 -2 -3 -2 -3 -1 -3 -1 -3 -1 -3 -1 -3 -1 -3 -1 -3 -1 -3 0 -4 0 -4 0 -4 0 -4 0 -4 0 -4 1 -3 1 -3 1 -3 1 -3 1 -3 1 -3 1 -3 2 -3 2 -3 2 -3 2 -3 2 -3 2 -2 2 -2 2 -2 2 -2 3 -2 3 -2 3 -2 3 -2 3 -1 3 -1 3 -1 3 -1 3 -1 3 -1 3 0 3 0 3 0zm2703 140l-2703 0 0 -140 2703 0 0 140zm0 0l0 -140 3 0 3 0 3 0 3 1 3 1 3 1 3 1 3 1 3 1 3 2 3 2 3 2 3 2 2 2 2 2 2 2 2 2 2 3 2 3 2 3 2 3 2 3 1 3 1 3 1 3 1 3 1 3 1 3 1 3 0 4 0 4 0 4 0 4 0 4 0 4 -1 3 -1 3 -1 3 -1 3 -1 3 -1 3 -1 3 -2 3 -2 3 -2 3 -2 3 -2 3 -2 2 -2 2 -2 2 -2 2 -3 2 -3 2 -3 2 -3 2 -3 1 -3 1 -3 1 -3 1 -3 1 -3 1 -3 0 -3 0 -3 0zm-2703 -1118l0 140 -3 0 -3 0 -3 0 -3 -1 -3 -1 -3 -1 -3 -1 -3 -1 -3 -1 -3 -2 -3 -2 -3 -2 -3 -2 -2 -2 -2 -2 -2 -2 -2 -2 -2 -3 -2 -3 -2 -3 -2 -3 -2 -3 -1 -3 -1 -3 -1 -3 -1 -3 -1 -3 -1 -3 -1 -3 0 -4 0 -4 0 -4 0 -4 0 -4 0 -4 1 -3 1 -3 1 -3 1 -3 1 -3 1 -3 1 -3 2 -3 2 -3 2 -3 2 -3 2 -3 2 -2 2 -2 2 -2 2 -2 3 -2 3 -2 3 -2 3 -2 3 -1 3 -1 3 -1 3 -1 3 -1 3 -1 3 0 3 0 3 0zm3723 140l-3723 0 0 -140 3723 0 0 140zm0 0l0 -140 3 0 3 0 3 0 3 1 3 1 3 1 3 1 3 1 3 1 3 2 3 2 3 2 3 2 2 2 2 2 2 2 2 2 2 3 2 3 2 3 2 3 2 3 1 3 1 3 1 3 1 3 1 3 1 3 1 3 0 4 0 4 0 4 0 4 0 4 0 4 -1 3 -1 3 -1 3 -1 3 -1 3 -1 3 -1 3 -2 3 -2 3 -2 3 -2 3 -2 3 -2 2 -2 2 -2 2 -2 2 -3 2 -3 2 -3 2 -3 2 -3 1 -3 1 -3 1 -3 1 -3 1 -3 1 -3 0 -3 0 -3 0z"/>
   </g>
   <g>
    <path class="fil5" d="M4951 8015l0 146 -4 0 -4 0 -4 0 -4 -1 -4 -1 -4 -1 -4 -1 -4 -1 -4 -1 -4 -2 -4 -2 -3 -2 -3 -2 -3 -2 -3 -2 -3 -2 -3 -3 -3 -3 -3 -3 -2 -3 -2 -3 -2 -3 -2 -3 -2 -3 -2 -3 -1 -3 -1 -3 -1 -4 -1 -4 -1 -4 0 -4 0 -4 0 -4 0 -4 1 -4 1 -4 1 -4 1 -3 1 -3 2 -3 2 -3 2 -3 2 -3 2 -3 2 -3 3 -3 3 -3 3 -3 3 -2 3 -2 3 -2 3 -2 3 -2 4 -2 4 -2 4 -1 4 -1 4 -1 4 -1 4 -1 4 -1 4 0 4 0 4 0zm4950 146l-4950 0 0 -146 4950 0 0 146zm0 0l0 -146 4 0 4 0 4 0 4 1 4 1 4 1 4 1 4 1 4 1 4 2 4 2 3 2 3 2 3 2 3 2 3 2 3 3 3 3 3 3 2 3 2 3 2 3 2 3 2 3 2 3 1 3 1 3 1 4 1 4 1 4 0 4 0 4 0 4 0 4 -1 4 -1 4 -1 4 -1 3 -1 3 -2 3 -2 3 -2 3 -2 3 -2 3 -2 3 -3 3 -3 3 -3 3 -3 2 -3 2 -3 2 -3 2 -3 2 -4 2 -4 2 -4 1 -4 1 -4 1 -4 1 -4 1 -4 1 -4 0 -4 0 -4 0zm-3821 -448l0 146 -4 0 -4 0 -4 0 -4 -1 -4 -1 -4 -1 -4 -1 -4 -1 -4 -1 -4 -2 -4 -2 -3 -2 -3 -2 -3 -2 -3 -2 -3 -2 -3 -3 -3 -3 -3 -3 -2 -3 -2 -3 -2 -3 -2 -3 -2 -3 -2 -3 -1 -3 -1 -3 -1 -4 -1 -4 -1 -4 0 -4 0 -4 0 -4 0 -4 1 -4 1 -4 1 -4 1 -3 1 -3 2 -3 2 -3 2 -3 2 -3 2 -3 2 -3 3 -3 3 -3 3 -3 3 -2 3 -2 3 -2 3 -2 3 -2 4 -2 4 -2 4 -1 4 -1 4 -1 4 -1 4 -1 4 -1 4 0 4 0 4 0zm2632 146l-2632 0 0 -146 2632 0 0 146zm0 0l0 -146 4 0 4 0 4 0 4 1 4 1 4 1 4 1 4 1 4 1 4 2 4 2 3 2 3 2 3 2 3 2 3 2 3 3 3 3 3 3 2 3 2 3 2 3 2 3 2 3 2 3 1 3 1 3 1 4 1 4 1 4 0 4 0 4 0 4 0 4 -1 4 -1 4 -1 4 -1 3 -1 3 -2 3 -2 3 -2 3 -2 3 -2 3 -2 3 -3 3 -3 3 -3 3 -3 2 -3 2 -3 2 -3 2 -3 2 -4 2 -4 2 -4 1 -4 1 -4 1 -4 1 -4 1 -4 1 -4 0 -4 0 -4 0z"/>
   </g>
   <path class="fil8 str4" d="M11361 3550c164,0 312,68 417,177l220 -221 -197 760 -559 0 220 -222 0 0c-105,-106 -251,-172 -413,-172 -82,0 -159,17 -230,47 0,0 0,0 0,0l0 -1c85,-216 295,-368 541,-368z"/>
   <g>
    <g>
     <path class="fil10" d="M14123 14793l-204 0 0 -4 0 -4 1 -4 1 -4 1 -4 1 -4 2 -4 2 -4 2 -4 2 -4 2 -4 3 -3 3 -3 3 -3 3 -3 3 -3 4 -3 4 -3 4 -3 4 -2 4 -2 4 -2 4 -2 5 -2 5 -2 5 -1 5 -1 5 -1 5 -1 5 -1 5 0 5 0 5 0 5 0 5 1 5 1 5 1 5 1 5 1 5 2 5 2 4 2 4 2 4 2 4 2 4 3 4 3 4 3 3 3 3 3 3 3 3 3 3 3 2 4 2 4 2 4 2 4 2 4 1 4 1 4 1 4 1 4 0 4 0 4zm-204 231l0 -231 204 0 0 231 -204 0zm0 0l204 0 0 4 0 4 -1 4 -1 4 -1 4 -1 4 -2 4 -2 4 -2 4 -2 4 -2 4 -3 3 -3 3 -3 3 -3 3 -3 3 -4 3 -4 3 -4 3 -4 2 -4 2 -4 2 -4 2 -5 2 -5 2 -5 1 -5 1 -5 1 -5 1 -5 1 -5 0 -5 0 -5 0 -5 0 -5 -1 -5 -1 -5 -1 -5 -1 -5 -1 -5 -2 -5 -2 -4 -2 -4 -2 -4 -2 -4 -2 -4 -3 -4 -3 -4 -3 -3 -3 -3 -3 -3 -3 -3 -3 -3 -3 -2 -4 -2 -4 -2 -4 -2 -4 -2 -4 -1 -4 -1 -4 -1 -4 -1 -4 0 -4 0 -4z"/>
    </g>
    <g>
     <path class="fil10" d="M13963 14793l-204 0 0 -4 0 -4 1 -4 1 -4 1 -4 1 -4 2 -4 2 -4 2 -4 2 -4 2 -4 3 -3 3 -3 3 -3 3 -3 3 -3 4 -3 4 -3 4 -3 4 -2 4 -2 4 -2 4 -2 5 -2 5 -2 5 -1 5 -1 5 -1 5 -1 5 -1 5 0 5 0 5 0 5 0 5 1 5 1 5 1 5 1 5 1 5 2 5 2 4 2 4 2 4 2 4 2 4 3 4 3 4 3 3 3 3 3 3 3 3 3 3 3 2 4 2 4 2 4 2 4 2 4 1 4 1 4 1 4 1 4 0 4 0 4zm-204 231l0 -231 204 0 0 231 -204 0zm0 0l204 0 0 4 0 4 -1 4 -1 4 -1 4 -1 4 -2 4 -2 4 -2 4 -2 4 -2 4 -3 3 -3 3 -3 3 -3 3 -3 3 -4 3 -4 3 -4 3 -4 2 -4 2 -4 2 -4 2 -5 2 -5 2 -5 1 -5 1 -5 1 -5 1 -5 1 -5 0 -5 0 -5 0 -5 0 -5 -1 -5 -1 -5 -1 -5 -1 -5 -1 -5 -2 -5 -2 -4 -2 -4 -2 -4 -2 -4 -2 -4 -3 -4 -3 -4 -3 -3 -3 -3 -3 -3 -3 -3 -3 -3 -3 -2 -4 -2 -4 -2 -4 -2 -4 -2 -4 -1 -4 -1 -4 -1 -4 -1 -4 0 -4 0 -4z"/>
    </g>
    <g>
     <path class="fil10" d="M16271 14793l-204 0 0 -4 0 -4 1 -4 1 -4 1 -4 1 -4 2 -4 2 -4 2 -4 2 -4 2 -4 3 -3 3 -3 3 -3 3 -3 3 -3 4 -3 4 -3 4 -3 4 -2 4 -2 4 -2 4 -2 5 -2 5 -2 5 -1 5 -1 5 -1 5 -1 5 -1 5 0 5 0 5 0 5 0 5 1 5 1 5 1 5 1 5 1 5 2 5 2 4 2 4 2 4 2 4 2 4 3 4 3 4 3 3 3 3 3 3 3 3 3 3 3 2 4 2 4 2 4 2 4 2 4 1 4 1 4 1 4 1 4 0 4 0 4zm-204 231l0 -231 204 0 0 231 -204 0zm0 0l204 0 0 4 0 4 -1 4 -1 4 -1 4 -1 4 -2 4 -2 4 -2 4 -2 4 -2 4 -3 3 -3 3 -3 3 -3 3 -3 3 -4 3 -4 3 -4 3 -4 2 -4 2 -4 2 -4 2 -5 2 -5 2 -5 1 -5 1 -5 1 -5 1 -5 1 -5 0 -5 0 -5 0 -5 0 -5 -1 -5 -1 -5 -1 -5 -1 -5 -1 -5 -2 -5 -2 -4 -2 -4 -2 -4 -2 -4 -2 -4 -3 -4 -3 -4 -3 -3 -3 -3 -3 -3 -3 -3 -3 -3 -3 -2 -4 -2 -4 -2 -4 -2 -4 -2 -4 -1 -4 -1 -4 -1 -4 -1 -4 0 -4 0 -4z"/>
    </g>
    <g>
     <path class="fil10" d="M16494 14793l-204 0 0 -4 0 -4 1 -4 1 -4 1 -4 1 -4 2 -4 2 -4 2 -4 2 -4 2 -4 3 -3 3 -3 3 -3 3 -3 3 -3 4 -3 4 -3 4 -3 4 -2 4 -2 4 -2 4 -2 5 -2 5 -2 5 -1 5 -1 5 -1 5 -1 5 -1 5 0 5 0 5 0 5 0 5 1 5 1 5 1 5 1 5 1 5 2 5 2 4 2 4 2 4 2 4 2 4 3 4 3 4 3 3 3 3 3 3 3 3 3 3 3 2 4 2 4 2 4 2 4 2 4 1 4 1 4 1 4 1 4 0 4 0 4zm-204 231l0 -231 204 0 0 231 -204 0zm0 0l204 0 0 4 0 4 -1 4 -1 4 -1 4 -1 4 -2 4 -2 4 -2 4 -2 4 -2 4 -3 3 -3 3 -3 3 -3 3 -3 3 -4 3 -4 3 -4 3 -4 2 -4 2 -4 2 -4 2 -5 2 -5 2 -5 1 -5 1 -5 1 -5 1 -5 1 -5 0 -5 0 -5 0 -5 0 -5 -1 -5 -1 -5 -1 -5 -1 -5 -1 -5 -2 -5 -2 -4 -2 -4 -2 -4 -2 -4 -2 -4 -3 -4 -3 -4 -3 -3 -3 -3 -3 -3 -3 -3 -3 -3 -3 -2 -4 -2 -4 -2 -4 -2 -4 -2 -4 -1 -4 -1 -4 -1 -4 -1 -4 0 -4 0 -4z"/>
    </g>
    <path class="fil9 str5" d="M12848 15028l-10 0 0 -297c0,-13 -7,-24 -24,-24l-127 0c-17,0 -24,11 -26,24l-47 297 -16 0c-17,0 -24,12 -24,24l0 68c0,13 7,24 24,24 18,0 25,-12 25,-24l0 -45 200 0 0 45c0,13 7,24 25,24 17,0 24,-12 24,-24l0 -68c0,-13 -7,-24 -24,-24l0 0zm-180 -36l37 -237 84 0 0 273 -128 0c4,-13 6,-24 7,-36l0 0zm416 -20l29 92c4,13 16,20 31,15 14,-5 19,-17 15,-30l-106 -329c-4,-12 -10,-18 -25,-18l-3 0c-15,0 -21,6 -25,18l-106 329c-4,13 2,25 15,30 14,5 26,-3 31,-15l29 -92 114 0zm-65 -159c4,-12 5,-17 8,-30l1 0c3,13 4,18 8,30l36 115 -88 0 36 -115zm279 268c17,0 25,-12 25,-24l0 -302 77 0c12,0 23,-7 23,-24 0,-16 -11,-24 -23,-24l-203 0c-12,0 -23,8 -23,24 0,17 11,24 23,24l77 0 0 302c0,13 7,24 25,24zm328 -109l29 92c4,13 16,20 31,15 14,-5 19,-17 15,-30l-106 -329c-4,-12 -10,-18 -25,-18l-3 0c-15,0 -21,6 -25,18l-106 329c-4,13 2,25 15,30 14,5 26,-3 31,-15l29 -92 114 0zm-65 -159c4,-12 5,-17 8,-30l1 0c3,13 4,18 8,30l36 115 -88 0 36 -115z"/>
    <path class="fil9 str5" d="M14564 14917l86 0c36,0 50,24 50,56l0 12c0,32 -14,49 -50,49l-86 0 0 -117zm0 -46l0 -110 64 0c36,0 50,13 50,44l0 13c0,32 -15,54 -50,54l-64 0zm186 102c0,-44 -19,-74 -58,-86 23,-14 36,-37 36,-69l0 -13c0,-59 -34,-92 -100,-92l-88 0c-18,0 -25,12 -25,24l0 320c0,13 7,24 25,24l110 0c67,0 100,-38 100,-97l0 -12zm114 -82l0 -131 82 0c36,0 52,18 52,50l0 26c0,32 -15,55 -52,55l-82 0zm82 47c68,0 101,-44 101,-102l0 -26c0,-59 -33,-97 -101,-97l-107 0c-17,0 -24,12 -24,24l0 325c0,13 7,24 25,24 17,0 25,-12 25,-24l0 -124 82 0zm357 143c12,0 23,-7 23,-24 0,-16 -11,-24 -23,-24l-144 0 0 -118 119 0c12,0 23,-7 23,-24 0,-16 -11,-24 -23,-24l-119 0 0 -108 144 0c12,0 23,-7 23,-24 0,-16 -11,-24 -23,-24l-169 0c-17,0 -24,12 -24,24l0 320c0,13 7,24 24,24l169 0zm226 -164c-3,-10 -7,-20 -13,-30l-82 -161c-7,-15 -14,-18 -25,-18 -17,0 -24,12 -24,24l0 330c0,13 7,24 24,24 17,0 24,-12 24,-24l0 -203c0,-14 -1,-27 -2,-36l1 0 75 147c4,7 9,13 22,13 13,0 18,-5 22,-13l75 -147 1 0c-1,9 -2,22 -2,36l0 203c0,13 7,24 24,24 17,0 24,-12 24,-24l0 -330c0,-13 -7,-24 -24,-24 -11,0 -17,3 -25,18l-82 161c-5,10 -9,20 -13,30zm206 -93c0,38 22,81 63,98 -4,6 -7,12 -13,26 0,0 -41,93 -46,104 -5,11 -2,25 14,32 16,6 27,-2 32,-14 5,-13 61,-141 61,-141l67 0 0 133c0,13 7,24 25,24 17,0 25,-12 25,-24l0 -325c0,-13 -7,-24 -25,-24l-101 0c-67,0 -102,42 -102,97l0 15zm100 58c-36,0 -50,-25 -50,-58l0 -15c0,-29 15,-49 52,-49l77 0 0 122 -78 0z"/>
   </g>
  </g>
 </g>
</svg>
