<?xml version="1.0" encoding="UTF-8"?>
<!DOCTYPE svg PUBLIC "-//W3C//DTD SVG 1.1//EN" "http://www.w3.org/Graphics/SVG/1.1/DTD/svg11.dtd">
<!-- Creator: CorelDRAW X6 -->
<svg xmlns="http://www.w3.org/2000/svg" xml:space="preserve" width="200mm" height="200mm" version="1.1" style="shape-rendering:geometricPrecision; text-rendering:geometricPrecision; image-rendering:optimizeQuality; fill-rule:evenodd; clip-rule:evenodd"
viewBox="0 0 20000 20000"
 xmlns:xlink="http://www.w3.org/1999/xlink">
 <defs>
  <style type="text/css">
   <![CDATA[
    .str2 {stroke:#034540;stroke-width:15.18}
    .str1 {stroke:#4D8A7D;stroke-width:15.18}
    .str5 {stroke:#CC7587;stroke-width:20.86}
    .str7 {stroke:#CC7587;stroke-width:21.34}
    .str4 {stroke:#CC7587;stroke-width:28.37}
    .str3 {stroke:#034540;stroke-width:29.14}
    .str6 {stroke:#4D8A7D;stroke-width:140;stroke-linecap:round;stroke-linejoin:round}
    .str0 {stroke:#034540;stroke-width:159.99;stroke-linecap:round;stroke-linejoin:round}
    .fil6 {fill:none;fill-rule:nonzero}
    .fil2 {fill:#FFF7B3}
    .fil1 {fill:#FFFADB}
    .fil4 {fill:#034540;fill-rule:nonzero}
    .fil3 {fill:#4D8A7D;fill-rule:nonzero}
    .fil5 {fill:#CC7587;fill-rule:nonzero}
    .fil7 {fill:#E83B40;fill-rule:nonzero}
    .fil0 {fill:url(#id0)}
   ]]>
  </style>
  <radialGradient id="id0" gradientUnits="userSpaceOnUse" cx="10000" cy="10000" r="10000" fx="10000" fy="10000">
   <stop offset="0" style="stop-color:#FEFEFE"/>
   <stop offset="0.439216" style="stop-color:#FEFEFE"/>
   <stop offset="1" style="stop-color:#D1E2F2"/>
  </radialGradient>
 </defs>
 <g id="Layer_x0020_1">
  <metadata id="CorelCorpID_0Corel-Layer"/>
  <g id="_839963568">
   <polygon class="fil0" points="0,0 20000,0 20000,20000 0,20000 "/>
   <path class="fil1 str0" d="M12944 4584l0 8332c-2205,0 -3683,0 -5888,0l0 -8332 5888 0z"/>
   <path class="fil2" d="M7056 4584l5888 0 0 3361 -5888 -2798c10,-289 0,-370 0,-563z"/>
   <path class="fil3 str1" d="M10565 7695c0,13 2,27 3,36l0 0 -111 -228c-6,-12 -14,-17 -23,-17 -17,0 -24,11 -24,23l0 308c0,12 6,23 23,23 16,0 22,-11 22,-23l0 -187c0,-13 -2,-27 -3,-36l0 0 111 228c6,12 14,17 23,17 17,0 24,-11 24,-23l0 -308c0,-12 -6,-23 -23,-23 -16,0 -22,11 -22,23l0 187zm124 -106c-15,0 -19,-8 -19,-22l0 -25c0,-14 4,-22 19,-22l7 0c15,0 19,8 19,22l0 25c0,14 -4,22 -19,22l-7 0zm8 33c34,0 50,-23 50,-53l0 -29c0,-30 -16,-52 -50,-52l-8 0c-34,0 -50,22 -50,52l0 29c0,30 16,53 50,53l8 0zm34 58c10,0 18,-5 18,-18 0,-13 -7,-18 -18,-18l-76 0c-10,0 -18,5 -18,18 0,13 8,18 18,18l76 0zm114 71c0,-23 8,-40 25,-48l90 -41c44,-20 54,-54 54,-87l0 -2c0,-56 -32,-88 -96,-88l-30 0c-51,0 -82,22 -82,74 0,13 6,23 23,23 17,0 23,-10 23,-23 0,-21 14,-29 36,-29l30 0c35,0 50,13 50,44l0 2c0,23 -7,37 -27,46l-84 37c-39,17 -58,54 -58,97l0 79 197 0c12,0 22,-6 22,-22 0,-16 -10,-22 -22,-22l-151 0 0 -39z"/>
   <path class="fil4 str2" d="M7892 8701l-71 0 0 -92 125 0c11,0 22,-6 22,-22 0,-15 -10,-22 -22,-22l-148 0c-17,0 -24,11 -24,23l0 298c0,12 7,23 24,23l94 0c63,0 94,-41 94,-95l0 -22c0,-55 -31,-90 -94,-90zm48 117c0,29 -13,46 -47,46l-72 0 0 -122 71 0c34,0 48,17 48,47l0 29zm288 -258c-66,0 -95,55 -95,109l0 35 -45 0 0 -122c0,-12 -5,-23 -22,-23 -16,0 -22,11 -22,23l0 308c0,12 6,23 22,23 16,0 22,-11 22,-23l0 -142 45 0 0 65c0,54 28,99 91,99l26 0c62,0 93,-44 93,-98l0 -157c0,-54 -31,-98 -93,-98l-22 0zm69 255c0,30 -13,54 -47,54l-24 0c-34,0 -47,-24 -47,-54l0 -142c0,-30 13,-69 49,-69l22 0c33,0 47,24 47,52l0 160zm175 31c3,-28 29,-238 29,-238l86 0 0 282c0,12 7,23 24,23 16,0 23,-11 23,-23l0 -303c0,-12 -7,-23 -23,-23l-128 0c-14,0 -22,9 -24,23 -1,14 -28,229 -30,248 -1,11 -3,19 -6,24 -5,9 -13,12 -28,12 -12,0 -23,7 -23,23 0,17 11,22 23,22 43,0 60,-14 70,-38 3,-9 5,-18 7,-31zm304 0c3,-28 29,-238 29,-238l86 0 0 282c0,12 7,23 24,23 16,0 23,-11 23,-23l0 -303c0,-12 -7,-23 -23,-23l-128 0c-14,0 -22,9 -24,23 -1,14 -28,229 -30,248 -1,11 -3,19 -6,24 -5,9 -13,12 -28,12 -12,0 -23,7 -23,23 0,17 11,22 23,22 43,0 60,-14 70,-38 3,-9 5,-18 7,-31zm416 62c11,0 22,-6 22,-22 0,-15 -10,-22 -22,-22l-135 0 0 -110 111 0c11,0 22,-6 22,-22 0,-15 -10,-22 -22,-22l-111 0 0 -101 135 0c11,0 22,-6 22,-22 0,-15 -10,-22 -22,-22l-158 0c-16,0 -23,11 -23,23l0 298c0,12 7,23 23,23l158 0zm164 5c16,0 23,-11 23,-23l0 -282 72 0c11,0 22,-6 22,-22 0,-15 -10,-22 -22,-22l-190 0c-11,0 -22,7 -22,22 0,16 10,22 22,22l72 0 0 282c0,12 7,23 23,23zm340 -5c11,0 22,-6 22,-22 0,-15 -10,-22 -22,-22l-135 0 0 -110 111 0c11,0 22,-6 22,-22 0,-15 -10,-22 -22,-22l-111 0 0 -101 135 0c11,0 22,-6 22,-22 0,-15 -10,-22 -22,-22l-158 0c-16,0 -23,11 -23,23l0 298c0,12 7,23 23,23l158 0zm298 -326c0,-12 -7,-23 -23,-23 -16,0 -23,11 -23,23l0 122 -129 0 0 -122c0,-12 -6,-23 -23,-23 -16,0 -23,11 -23,23l0 308c0,12 7,23 23,23 16,0 23,-11 23,-23l0 -142 129 0 0 142c0,12 6,23 23,23 16,0 23,-11 23,-23l0 -308zm255 326c11,0 22,-6 22,-22 0,-15 -10,-22 -22,-22l-135 0 0 -110 111 0c11,0 22,-6 22,-22 0,-15 -10,-22 -22,-22l-111 0 0 -101 135 0c11,0 22,-6 22,-22 0,-15 -10,-22 -22,-22l-158 0c-16,0 -23,11 -23,23l0 298c0,12 7,23 23,23l158 0zm189 -375c45,0 68,-32 68,-66 0,-10 -8,-17 -18,-17 -10,0 -17,7 -18,18 -1,18 -13,31 -32,31 -19,0 -30,-13 -32,-31 -1,-11 -8,-18 -18,-18 -10,0 -18,7 -18,17 0,34 24,66 68,66zm64 357c0,12 6,23 22,23 17,0 23,-11 23,-23l0 -308c0,-12 -7,-23 -24,-23 -9,0 -16,3 -23,17l-131 234 0 0c1,-9 2,-21 2,-34l0 -194c0,-12 -6,-23 -22,-23 -17,0 -23,11 -23,23l0 308c0,12 7,23 24,23 9,0 16,-3 23,-17l131 -234 0 0c-1,9 -2,21 -2,34l0 194z"/>
   <path class="fil4 str3" d="M9422 6218l51 165c7,23 28,36 52,27 24,-8 33,-31 26,-54l-183 -589c-6,-21 -17,-32 -43,-32l-5 0c-25,0 -36,11 -43,32l-183 589c-7,23 3,45 26,54 24,8 45,-5 52,-27l51 -165 196 0zm-112 -284c6,-21 9,-31 14,-54l1 0c5,23 7,33 14,54l62 205 -151 0 62 -205zm727 409l-194 -287 185 -249c16,-22 16,-45 -2,-62 -22,-21 -48,-10 -63,9l-190 268 -54 0 0 -244c0,-23 -13,-43 -42,-43 -31,0 -43,21 -43,43l0 591c0,23 13,43 43,43 29,0 42,-21 42,-43l0 -263 55 0 194 287c12,19 34,29 59,12 25,-19 24,-44 11,-63zm263 70c30,0 43,-21 43,-43l0 -540 132 0c21,0 40,-12 40,-42 0,-28 -19,-42 -40,-42l-349 0c-21,0 -40,14 -40,42 0,30 19,42 40,42l132 0 0 540c0,23 13,43 43,43z"/>
   <g>
    <path class="fil3" d="M7691 7043l0 139 -4 0 -4 0 -4 0 -4 -1 -4 -1 -4 -1 -3 -1 -3 -1 -3 -1 -3 -2 -3 -2 -3 -2 -3 -2 -3 -2 -3 -2 -3 -2 -2 -2 -2 -3 -2 -3 -2 -3 -2 -3 -2 -3 -2 -3 -2 -3 -1 -3 -1 -3 -1 -3 -1 -3 -1 -3 0 -3 0 -4 0 -4 0 -4 0 -4 0 -3 1 -3 1 -3 1 -3 1 -3 1 -3 2 -3 2 -3 2 -3 2 -3 2 -3 2 -3 2 -3 2 -2 3 -2 3 -2 3 -2 3 -2 3 -2 3 -2 3 -2 3 -1 3 -1 3 -1 4 -1 4 -1 4 -1 4 0 4 0 4 0zm4618 139l-4618 0 0 -139 4618 0 0 139zm0 0l0 -139 4 0 4 0 4 0 4 1 4 1 4 1 3 1 3 1 3 1 3 2 3 2 3 2 3 2 3 2 3 2 3 2 2 2 2 3 2 3 2 3 2 3 2 3 2 3 2 3 1 3 1 3 1 3 1 3 1 3 0 3 0 4 0 4 0 4 0 4 0 3 -1 3 -1 3 -1 3 -1 3 -1 3 -2 3 -2 3 -2 3 -2 3 -2 3 -2 3 -2 3 -2 2 -3 2 -3 2 -3 2 -3 2 -3 2 -3 2 -3 2 -3 1 -3 1 -3 1 -4 1 -4 1 -4 1 -4 0 -4 0 -4 0z"/>
   </g>
   <g>
    <path class="fil3" d="M7744 10976l0 140 -3 0 -3 0 -3 0 -3 -1 -3 -1 -3 -1 -3 -1 -3 -1 -3 -1 -3 -2 -3 -2 -3 -2 -3 -2 -2 -2 -2 -2 -2 -2 -2 -2 -2 -3 -2 -3 -2 -3 -2 -3 -2 -3 -1 -3 -1 -3 -1 -3 -1 -3 -1 -3 -1 -3 -1 -3 0 -4 0 -4 0 -4 0 -4 0 -4 0 -4 1 -3 1 -3 1 -3 1 -3 1 -3 1 -3 1 -3 2 -3 2 -3 2 -3 2 -3 2 -3 2 -2 2 -2 2 -2 2 -2 3 -2 3 -2 3 -2 3 -2 3 -1 3 -1 3 -1 3 -1 3 -1 3 -1 3 0 3 0 3 0zm2420 140l-2420 0 0 -140 2420 0 0 140zm0 0l0 -140 3 0 3 0 3 0 3 1 3 1 3 1 3 1 3 1 3 1 3 2 3 2 3 2 3 2 2 2 2 2 2 2 2 2 2 3 2 3 2 3 2 3 2 3 1 3 1 3 1 3 1 3 1 3 1 3 1 3 0 4 0 4 0 4 0 4 0 4 0 4 -1 3 -1 3 -1 3 -1 3 -1 3 -1 3 -1 3 -2 3 -2 3 -2 3 -2 3 -2 3 -2 2 -2 2 -2 2 -2 2 -3 2 -3 2 -3 2 -3 2 -3 1 -3 1 -3 1 -3 1 -3 1 -3 1 -3 0 -3 0 -3 0zm-2420 -1346l0 140 -3 0 -3 0 -3 0 -3 -1 -3 -1 -3 -1 -3 -1 -3 -1 -3 -1 -3 -2 -3 -2 -3 -2 -3 -2 -2 -2 -2 -2 -2 -2 -2 -2 -2 -3 -2 -3 -2 -3 -2 -3 -2 -3 -1 -3 -1 -3 -1 -3 -1 -3 -1 -3 -1 -3 -1 -3 0 -4 0 -4 0 -4 0 -4 0 -4 0 -4 1 -3 1 -3 1 -3 1 -3 1 -3 1 -3 1 -3 2 -3 2 -3 2 -3 2 -3 2 -3 2 -2 2 -2 2 -2 2 -2 3 -2 3 -2 3 -2 3 -2 3 -1 3 -1 3 -1 3 -1 3 -1 3 -1 3 0 3 0 3 0zm3407 140l-3407 0 0 -140 3407 0 0 140zm0 0l0 -140 3 0 3 0 3 0 3 1 3 1 3 1 3 1 3 1 3 1 3 2 3 2 3 2 3 2 2 2 2 2 2 2 2 2 2 3 2 3 2 3 2 3 2 3 1 3 1 3 1 3 1 3 1 3 1 3 1 3 0 4 0 4 0 4 0 4 0 4 0 4 -1 3 -1 3 -1 3 -1 3 -1 3 -1 3 -1 3 -2 3 -2 3 -2 3 -2 3 -2 3 -2 2 -2 2 -2 2 -2 2 -3 2 -3 2 -3 2 -3 2 -3 1 -3 1 -3 1 -3 1 -3 1 -3 1 -3 0 -3 0 -3 0zm-3407 262l0 140 -3 0 -3 0 -3 0 -3 -1 -3 -1 -3 -1 -3 -1 -3 -1 -3 -1 -3 -2 -3 -2 -3 -2 -3 -2 -2 -2 -2 -2 -2 -2 -2 -2 -2 -3 -2 -3 -2 -3 -2 -3 -2 -3 -1 -3 -1 -3 -1 -3 -1 -3 -1 -3 -1 -3 -1 -3 0 -4 0 -4 0 -4 0 -4 0 -4 0 -4 1 -3 1 -3 1 -3 1 -3 1 -3 1 -3 1 -3 2 -3 2 -3 2 -3 2 -3 2 -3 2 -2 2 -2 2 -2 2 -2 3 -2 3 -2 3 -2 3 -2 3 -1 3 -1 3 -1 3 -1 3 -1 3 -1 3 0 3 0 3 0zm4586 140l-4586 0 0 -140 4586 0 0 140zm0 0l0 -140 3 0 3 0 3 0 3 1 3 1 3 1 3 1 3 1 3 1 3 2 3 2 3 2 3 2 2 2 2 2 2 2 2 2 2 3 2 3 2 3 2 3 2 3 1 3 1 3 1 3 1 3 1 3 1 3 1 3 0 4 0 4 0 4 0 4 0 4 0 4 -1 3 -1 3 -1 3 -1 3 -1 3 -1 3 -1 3 -2 3 -2 3 -2 3 -2 3 -2 3 -2 2 -2 2 -2 2 -2 2 -3 2 -3 2 -3 2 -3 2 -3 1 -3 1 -3 1 -3 1 -3 1 -3 1 -3 0 -3 0 -3 0zm-4586 262l0 140 -3 0 -3 0 -3 0 -3 -1 -3 -1 -3 -1 -3 -1 -3 -1 -3 -1 -3 -2 -3 -2 -3 -2 -3 -2 -2 -2 -2 -2 -2 -2 -2 -2 -2 -3 -2 -3 -2 -3 -2 -3 -2 -3 -1 -3 -1 -3 -1 -3 -1 -3 -1 -3 -1 -3 -1 -3 0 -4 0 -4 0 -4 0 -4 0 -4 0 -4 1 -3 1 -3 1 -3 1 -3 1 -3 1 -3 1 -3 2 -3 2 -3 2 -3 2 -3 2 -3 2 -2 2 -2 2 -2 2 -2 3 -2 3 -2 3 -2 3 -2 3 -1 3 -1 3 -1 3 -1 3 -1 3 -1 3 0 3 0 3 0zm4586 140l-4586 0 0 -140 4586 0 0 140zm0 0l0 -140 3 0 3 0 3 0 3 1 3 1 3 1 3 1 3 1 3 1 3 2 3 2 3 2 3 2 2 2 2 2 2 2 2 2 2 3 2 3 2 3 2 3 2 3 1 3 1 3 1 3 1 3 1 3 1 3 1 3 0 4 0 4 0 4 0 4 0 4 0 4 -1 3 -1 3 -1 3 -1 3 -1 3 -1 3 -1 3 -2 3 -2 3 -2 3 -2 3 -2 3 -2 2 -2 2 -2 2 -2 2 -3 2 -3 2 -3 2 -3 2 -3 1 -3 1 -3 1 -3 1 -3 1 -3 1 -3 0 -3 0 -3 0z"/>
   </g>
   <path class="fil5 str4" d="M11231 8939c-62,0 -88,-33 -88,-91l0 -39c0,-59 26,-101 88,-101l70 0c62,0 88,42 88,101l0 39c0,58 -26,91 -88,91l-70 0zm24 -312c-62,0 -82,-32 -82,-90l0 -18c0,-57 20,-75 82,-75l21 0c62,0 82,18 82,75l0 18c0,58 -20,90 -82,90l-21 0zm215 182c0,-76 -32,-129 -88,-150 43,-25 57,-61 57,-121l0 -18c0,-106 -50,-158 -164,-158l-21 0c-114,0 -163,52 -163,158l0 18c0,60 15,96 57,121 -56,21 -88,74 -88,150l0 39c0,106 57,173 170,173l70 0c113,0 170,-68 170,-173l0 -39z"/>
   <path class="fil5 str5" d="M12026 8650c-21,0 -29,15 -29,31l0 268 -97 0 0 -268c0,-16 -8,-31 -29,-31 -21,0 -29,15 -29,31l0 268 -97 0 0 -268c0,-16 -8,-31 -29,-31 -21,0 -29,15 -29,31l0 295c0,17 8,31 29,31l307 0c20,0 29,-14 29,-31l0 -295c0,-16 -8,-31 -29,-31zm356 7l-210 0c-15,0 -28,7 -28,28 0,21 13,30 28,30l77 0 0 268c0,16 8,31 29,31 20,0 29,-15 29,-31l0 -268 76 0c15,0 28,-9 28,-30 0,-22 -13,-28 -28,-28z"/>
   <path class="fil6 str0" d="M12944 4584l0 8332c-2205,0 -3683,0 -5888,0l0 -8332 5888 0z"/>
   <path class="fil6 str6" d="M11168 11051c-498,1734 -158,751 -390,597 -232,-154 842,-744 772,-270 -70,474 -842,360 -821,460 21,100 323,168 414,-84 91,-253 -42,197 197,119 238,-78 337,-302 298,-176 -39,126 28,105 154,28 126,-77 270,-158 270,-158"/>
   <g>
    <path class="fil3" d="M7691 7677l0 139 -4 0 -4 0 -4 0 -4 -1 -4 -1 -4 -1 -3 -1 -3 -1 -3 -1 -3 -2 -3 -2 -3 -2 -3 -2 -3 -2 -3 -2 -3 -2 -2 -2 -2 -3 -2 -3 -2 -3 -2 -3 -2 -3 -2 -3 -2 -3 -1 -3 -1 -3 -1 -3 -1 -3 -1 -3 0 -3 0 -4 0 -4 0 -4 0 -4 0 -3 1 -3 1 -3 1 -3 1 -3 1 -3 2 -3 2 -3 2 -3 2 -3 2 -3 2 -3 2 -3 2 -2 3 -2 3 -2 3 -2 3 -2 3 -2 3 -2 3 -2 3 -1 3 -1 3 -1 4 -1 4 -1 4 -1 4 0 4 0 4 0zm630 139l-630 0 0 -139 630 0 0 139zm0 0l0 -139 4 0 4 0 4 0 4 1 4 1 4 1 3 1 3 1 3 1 3 2 3 2 3 2 3 2 3 2 3 2 3 2 2 2 2 3 2 3 2 3 2 3 2 3 2 3 2 3 1 3 1 3 1 3 1 3 1 3 0 3 0 4 0 4 0 4 0 4 0 3 -1 3 -1 3 -1 3 -1 3 -1 3 -2 3 -2 3 -2 3 -2 3 -2 3 -2 3 -2 3 -2 2 -3 2 -3 2 -3 2 -3 2 -3 2 -3 2 -3 2 -3 1 -3 1 -3 1 -4 1 -4 1 -4 1 -4 0 -4 0 -4 0zm232 -139l0 139 -4 0 -4 0 -4 0 -4 -1 -4 -1 -4 -1 -3 -1 -3 -1 -3 -1 -3 -2 -3 -2 -3 -2 -3 -2 -3 -2 -3 -2 -3 -2 -2 -2 -2 -3 -2 -3 -2 -3 -2 -3 -2 -3 -2 -3 -2 -3 -1 -3 -1 -3 -1 -3 -1 -3 -1 -3 0 -3 0 -4 0 -4 0 -4 0 -4 0 -3 1 -3 1 -3 1 -3 1 -3 1 -3 2 -3 2 -3 2 -3 2 -3 2 -3 2 -3 2 -3 2 -2 3 -2 3 -2 3 -2 3 -2 3 -2 3 -2 3 -2 3 -1 3 -1 3 -1 4 -1 4 -1 4 -1 4 0 4 0 4 0zm245 139l-245 0 0 -139 245 0 0 139zm0 0l0 -139 4 0 4 0 4 0 4 1 4 1 4 1 3 1 3 1 3 1 3 2 3 2 3 2 3 2 3 2 3 2 3 2 2 2 2 3 2 3 2 3 2 3 2 3 2 3 2 3 1 3 1 3 1 3 1 3 1 3 0 3 0 4 0 4 0 4 0 4 0 3 -1 3 -1 3 -1 3 -1 3 -1 3 -2 3 -2 3 -2 3 -2 3 -2 3 -2 3 -2 3 -2 2 -3 2 -3 2 -3 2 -3 2 -3 2 -3 2 -3 2 -3 1 -3 1 -3 1 -4 1 -4 1 -4 1 -4 0 -4 0 -4 0zm258 -139l0 139 -4 0 -4 0 -4 0 -4 -1 -4 -1 -4 -1 -3 -1 -3 -1 -3 -1 -3 -2 -3 -2 -3 -2 -3 -2 -3 -2 -3 -2 -3 -2 -2 -2 -2 -3 -2 -3 -2 -3 -2 -3 -2 -3 -2 -3 -2 -3 -1 -3 -1 -3 -1 -3 -1 -3 -1 -3 0 -3 0 -4 0 -4 0 -4 0 -4 0 -3 1 -3 1 -3 1 -3 1 -3 1 -3 2 -3 2 -3 2 -3 2 -3 2 -3 2 -3 2 -3 2 -2 3 -2 3 -2 3 -2 3 -2 3 -2 3 -2 3 -2 3 -1 3 -1 3 -1 4 -1 4 -1 4 -1 4 0 4 0 4 0zm1138 139l-1138 0 0 -139 1138 0 0 139zm0 0l0 -139 4 0 4 0 4 0 4 1 4 1 4 1 3 1 3 1 3 1 3 2 3 2 3 2 3 2 3 2 3 2 3 2 2 2 2 3 2 3 2 3 2 3 2 3 2 3 2 3 1 3 1 3 1 3 1 3 1 3 0 3 0 4 0 4 0 4 0 4 0 3 -1 3 -1 3 -1 3 -1 3 -1 3 -2 3 -2 3 -2 3 -2 3 -2 3 -2 3 -2 3 -2 2 -3 2 -3 2 -3 2 -3 2 -3 2 -3 2 -3 2 -3 1 -3 1 -3 1 -4 1 -4 1 -4 1 -4 0 -4 0 -4 0z"/>
   </g>
   <g>
    <path class="fil7" d="M12172 8243l-103 -20 0 0 -16 -25 -16 -20 -16 -16 -17 -14 -18 -13 -21 -12 -24 -11 -27 -10 -29 -9 -31 -7 -33 -6 -34 -4 -35 -2 -36 0 -36 2 -36 3 -36 5 -36 7 -36 8 -35 9 -34 11 -33 12 -32 13 -31 14 -29 15 -28 16 -26 16 -24 17 -22 17 -19 18 -17 18 -14 18 -115 -91 16 -20 18 -20 21 -19 23 -19 25 -18 27 -17 29 -16 31 -16 32 -15 34 -14 35 -12 36 -11 37 -10 38 -9 38 -7 39 -5 39 -4 40 -2 40 0 40 2 40 4 40 7 40 9 40 12 41 16 41 20 42 24 41 29 39 33 36 37 32 39 27 41 0 0zm-122 779l-114 -92 0 0 16 -21 15 -22 15 -22 14 -22 14 -23 13 -23 12 -23 12 -23 11 -23 10 -23 9 -24 9 -24 8 -24 7 -24 6 -24 5 -24 4 -24 4 -23 3 -23 2 -23 1 -23 0 -23 -1 -22 -2 -22 -3 -22 -4 -21 -5 -21 -6 -20 -7 -19 -8 -19 -9 -18 -10 -17 103 20 14 25 12 25 11 25 9 25 8 25 6 25 5 25 4 25 3 25 1 25 0 25 -1 25 -2 25 -3 25 -4 25 -5 25 -6 25 -7 25 -7 25 -8 25 -9 25 -10 24 -11 24 -11 24 -12 24 -13 24 -13 23 -14 23 -15 23 -15 23 -16 22 -16 22 0 0zm-1245 71l74 -19 0 0 18 19 19 18 21 17 22 16 24 15 25 15 27 14 29 13 31 12 32 10 33 9 34 7 35 6 36 4 37 2 38 0 38 -2 39 -4 39 -6 39 -9 39 -11 39 -13 39 -16 38 -18 38 -21 38 -23 37 -26 36 -29 36 -31 35 -34 34 -37 33 -40 114 92 -34 41 -35 38 -36 35 -37 33 -38 30 -38 27 -39 24 -40 22 -40 19 -41 16 -41 14 -41 11 -42 9 -42 7 -42 4 -42 2 -42 0 -42 -2 -41 -4 -41 -7 -41 -9 -41 -11 -40 -13 -40 -15 -40 -17 -39 -20 -39 -22 -38 -24 -37 -27 -35 -29 -33 -30 -31 -32 0 0zm92 -934l108 97 0 0 -24 19 -23 20 -22 21 -21 22 -20 22 -19 23 -18 24 -17 25 -15 25 -14 26 -13 27 -12 27 -10 27 -9 28 -7 28 -6 28 -4 29 -3 29 -1 29 0 29 2 29 4 28 5 28 7 28 9 27 10 27 12 26 13 25 15 24 16 24 18 23 19 22 -74 19 -29 -34 -26 -34 -23 -34 -21 -34 -18 -34 -15 -33 -13 -33 -10 -33 -8 -33 -6 -33 -4 -32 -2 -32 0 -32 1 -31 3 -31 5 -31 6 -30 8 -30 9 -29 11 -29 12 -28 14 -28 15 -27 16 -27 17 -26 19 -25 20 -24 21 -23 22 -22 23 -21 24 -20 25 -19 0 0zm1003 115l-90 -1 -15 -19 -15 -17 -15 -15 -16 -14 -17 -13 -18 -12 -19 -11 -21 -11 -22 -10 -24 -9 -25 -8 -26 -7 -27 -6 -28 -5 -28 -3 -29 -2 -29 -1 -30 1 -30 2 -30 3 -30 5 -30 6 -30 7 -30 8 -29 10 -29 11 -29 12 -28 13 -28 15 -27 16 -26 17 -25 18 -108 -97 26 -19 27 -18 28 -17 29 -15 30 -14 30 -13 31 -12 31 -10 32 -9 32 -8 32 -6 32 -5 33 -4 33 -2 33 -1 33 1 33 2 33 4 33 5 33 7 33 9 33 11 33 13 34 15 34 17 33 20 33 22 32 24 31 27 29 28 27 30 25 31z"/>
   </g>
   <path class="fil5 str7" d="M5446 14425l-111 0 0 -143 195 0c18,0 34,-10 34,-34 0,-23 -16,-34 -34,-34l-230 0c-26,0 -37,17 -37,35l0 465c0,18 11,35 37,35l146 0c99,0 147,-64 147,-148l0 -34c0,-86 -48,-141 -147,-141zm75 183c0,46 -21,72 -73,72l-112 0 0 -190 111 0c53,0 75,27 75,73l0 46zm485 -402c-102,0 -148,86 -148,170l0 55 -70 0 0 -190c0,-18 -8,-35 -34,-35 -24,0 -34,17 -34,35l0 480c0,18 10,35 34,35 25,0 34,-17 34,-35l0 -221 70 0 0 102c0,84 44,154 141,154l41 0c97,0 145,-69 145,-153l0 -245c0,-84 -48,-153 -145,-153l-34 0zm108 397c0,47 -21,84 -73,84l-37 0c-53,0 -73,-37 -73,-84l0 -222c0,-47 20,-107 76,-107l34 0c52,0 73,37 73,80l0 248zm309 49c5,-44 45,-370 45,-370l134 0 0 439c0,18 11,35 37,35 24,0 35,-17 35,-35l0 -472c0,-18 -11,-35 -35,-35l-199 0c-22,0 -34,15 -37,35 -2,22 -44,356 -47,386 -2,18 -5,29 -9,37 -8,15 -21,18 -43,18 -18,0 -35,11 -35,36 0,26 17,34 35,34 66,0 94,-21 109,-60 5,-15 8,-28 11,-48zm511 0c5,-44 45,-370 45,-370l134 0 0 439c0,18 11,35 37,35 24,0 35,-17 35,-35l0 -472c0,-18 -11,-35 -35,-35l-199 0c-22,0 -34,15 -37,35 -2,22 -44,356 -47,386 -2,18 -5,29 -9,37 -8,15 -21,18 -43,18 -18,0 -35,11 -35,36 0,26 17,34 35,34 66,0 94,-21 109,-60 5,-15 8,-28 11,-48zm685 96c18,0 34,-10 34,-34 0,-23 -16,-34 -34,-34l-209 0 0 -172 173 0c18,0 34,-10 34,-34 0,-23 -16,-34 -34,-34l-173 0 0 -157 209 0c18,0 34,-10 34,-34 0,-23 -16,-34 -34,-34l-246 0c-24,0 -35,17 -35,35l0 465c0,18 11,35 35,35l246 0zm292 8c25,0 36,-17 36,-35l0 -439 112 0c18,0 34,-10 34,-34 0,-23 -16,-34 -34,-34l-295 0c-18,0 -34,11 -34,34 0,24 16,34 34,34l112 0 0 439c0,18 11,35 36,35zm566 -8c18,0 34,-10 34,-34 0,-23 -16,-34 -34,-34l-209 0 0 -172 173 0c18,0 34,-10 34,-34 0,-23 -16,-34 -34,-34l-173 0 0 -157 209 0c18,0 34,-10 34,-34 0,-23 -16,-34 -34,-34l-246 0c-24,0 -35,17 -35,35l0 465c0,18 11,35 35,35l246 0zm501 -507c0,-18 -11,-35 -36,-35 -25,0 -36,17 -36,35l0 190 -201 0 0 -190c0,-18 -10,-35 -36,-35 -24,0 -36,17 -36,35l0 480c0,18 11,35 36,35 25,0 36,-17 36,-35l0 -221 201 0 0 221c0,18 10,35 36,35 24,0 36,-17 36,-35l0 -480zm427 480c0,18 10,35 34,35 26,0 36,-17 36,-35l0 -480c0,-18 -11,-35 -37,-35 -15,0 -24,5 -36,26l-204 364 -1 0c2,-14 3,-32 3,-53l0 -302c0,-18 -10,-35 -34,-35 -26,0 -36,17 -36,35l0 480c0,18 11,35 37,35 15,0 24,-5 36,-26l204 -364 1 0c-2,14 -3,32 -3,53l0 302zm702 0c0,18 10,35 34,35 26,0 36,-17 36,-35l0 -480c0,-18 -11,-35 -37,-35 -15,0 -24,5 -36,26l-204 364 -1 0c2,-14 3,-32 3,-53l0 -302c0,-18 -10,-35 -34,-35 -26,0 -36,17 -36,35l0 480c0,18 11,35 37,35 15,0 24,-5 36,-26l204 -364 1 0c-2,14 -3,32 -3,53l0 302zm446 -374c0,46 -32,89 -84,89l-28 0c-18,0 -34,11 -34,34 0,24 16,34 34,34l57 0c53,0 73,42 73,89l0 18c0,47 -17,79 -74,79l-57 0c-30,0 -58,-13 -61,-45 -2,-18 -11,-35 -35,-35 -26,0 -37,17 -37,35 0,73 54,114 132,114l63 0c92,0 141,-63 141,-148l0 -18c0,-63 -30,-118 -89,-133 52,-23 70,-65 70,-112 0,-84 -41,-141 -143,-141l-34 0c-78,0 -131,39 -131,114 0,18 11,35 37,35 24,0 34,-17 35,-35 2,-31 32,-45 65,-45l28 0c51,0 71,21 71,72zm399 29c0,55 32,118 92,142 -5,9 -10,18 -18,38 0,0 -60,135 -67,151 -7,16 -2,37 21,46 24,9 39,-2 47,-20 8,-18 89,-205 89,-205l97 0 0 193c0,18 11,35 36,35 25,0 36,-17 36,-35l0 -472c0,-18 -11,-35 -36,-35l-147 0c-97,0 -148,61 -148,141l0 21zm145 84c-53,0 -73,-37 -73,-84l0 -21c0,-42 21,-72 76,-72l112 0 0 177 -114 0zm735 289c14,0 29,-1 40,-2l-44 75c-4,6 -5,13 -5,20 0,13 13,35 37,35 13,0 24,-8 31,-20l73 -126c2,-5 4,-11 4,-17 0,-24 -16,-34 -34,-34l-31 0 0 -439c0,-18 -11,-35 -35,-35 -26,0 -37,17 -37,35l0 439 -128 0 0 -439c0,-19 -12,-35 -35,-35 -21,0 -33,18 -33,35l0 439 -128 0 0 -439c0,-18 -11,-35 -37,-35 -24,0 -35,17 -35,35l0 472c0,18 11,35 35,35l361 0zm520 -28c0,18 10,35 34,35 26,0 36,-17 36,-35l0 -480c0,-18 -11,-35 -37,-35 -15,0 -24,5 -36,26l-204 364 -1 0c2,-14 3,-32 3,-53l0 -302c0,-18 -10,-35 -34,-35 -26,0 -36,17 -36,35l0 480c0,18 11,35 37,35 15,0 24,-5 36,-26l204 -364 1 0c-2,14 -3,32 -3,53l0 302zm564 -21l-164 -233 156 -203c14,-18 14,-37 -2,-50 -18,-17 -41,-8 -54,8l-160 218 -46 0 0 -198c0,-18 -11,-35 -35,-35 -26,0 -37,17 -37,35l0 480c0,18 11,35 37,35 24,0 35,-17 35,-35l0 -213 47 0 164 233c10,15 29,24 50,10 21,-15 20,-36 9,-51zm361 -102l43 134c6,18 24,29 44,22 20,-7 28,-25 22,-44l-154 -478c-5,-17 -15,-26 -36,-26l-4 0c-21,0 -31,9 -36,26l-154 478c-6,18 2,37 22,44 21,7 38,-4 44,-22l43 -134 166 0zm-95 -231c5,-17 8,-25 11,-44l1 0c4,18 6,27 11,44l52 167 -128 0 52 -167zm752 164c0,21 3,42 5,56l-1 0 -173 -355c-9,-18 -21,-26 -36,-26 -26,0 -37,17 -37,35l0 480c0,18 10,35 36,35 24,0 34,-17 34,-35l0 -290c0,-21 -3,-42 -5,-56l1 0 173 355c9,18 21,26 36,26 26,0 37,-17 37,-35l0 -480c0,-18 -10,-35 -36,-35 -24,0 -34,17 -34,35l0 290zm193 -164c-23,0 -29,-13 -29,-34l0 -38c0,-21 6,-34 29,-34l11 0c23,0 29,13 29,34l0 38c0,21 -6,34 -29,34l-11 0zm12 51c53,0 78,-35 78,-82l0 -46c0,-47 -25,-81 -78,-81l-13 0c-53,0 -78,34 -78,81l0 46c0,47 25,82 78,82l13 0zm53 90c16,0 28,-8 28,-28 0,-20 -11,-28 -28,-28l-118 0c-16,0 -28,8 -28,28 0,20 12,28 28,28l118 0zm214 111c0,-35 13,-63 38,-74l141 -63c69,-31 84,-84 84,-136l0 -3c0,-88 -50,-137 -149,-137l-47 0c-79,0 -128,34 -128,115 0,20 10,36 36,36 26,0 36,-16 36,-36 0,-32 22,-46 56,-46l47 0c54,0 77,21 77,68l0 3c0,36 -11,58 -42,72l-131 58c-61,26 -90,84 -90,151l0 122 307 0c19,0 34,-10 34,-34 0,-24 -15,-34 -34,-34l-235 0 0 -60zm-10407 729l0 439c0,18 10,35 36,35 24,0 36,-17 36,-35l0 -472c0,-18 -11,-35 -36,-35l-258 0c-24,0 -36,17 -36,35l0 472c0,18 11,35 36,35 25,0 36,-17 36,-35l0 -439 186 0zm297 190l0 -190 119 0c53,0 75,27 75,73l0 38c0,47 -22,79 -75,79l-119 0zm119 69c99,0 147,-64 147,-148l0 -38c0,-86 -48,-141 -147,-141l-156 0c-24,0 -35,17 -35,35l0 472c0,18 11,35 36,35 25,0 36,-17 36,-35l0 -180 119 0zm548 180c0,18 10,35 34,35 26,0 36,-17 36,-35l0 -480c0,-18 -11,-35 -37,-35 -15,0 -24,5 -36,26l-204 364 -1 0c2,-14 3,-32 3,-53l0 -302c0,-18 -10,-35 -34,-35 -26,0 -36,17 -36,35l0 480c0,18 11,35 37,35 15,0 24,-5 36,-26l204 -364 1 0c-2,14 -3,32 -3,53l0 302zm446 -374c0,46 -32,89 -84,89l-28 0c-18,0 -34,11 -34,34 0,24 16,34 34,34l57 0c53,0 73,42 73,89l0 18c0,47 -17,79 -74,79l-57 0c-30,0 -58,-13 -61,-45 -2,-18 -11,-35 -35,-35 -26,0 -37,17 -37,35 0,73 54,114 132,114l63 0c92,0 141,-63 141,-148l0 -18c0,-63 -30,-118 -89,-133 52,-23 70,-65 70,-112 0,-84 -41,-141 -143,-141l-34 0c-78,0 -131,39 -131,114 0,18 11,35 37,35 24,0 34,-17 35,-35 2,-31 32,-45 65,-45l28 0c51,0 71,21 71,72zm565 -105c0,-18 -11,-35 -36,-35 -25,0 -36,17 -36,35l0 190 -201 0 0 -190c0,-18 -10,-35 -36,-35 -24,0 -36,17 -36,35l0 480c0,18 11,35 36,35 25,0 36,-17 36,-35l0 -221 201 0 0 221c0,18 10,35 36,35 24,0 36,-17 36,-35l0 -480zm381 357l43 134c6,18 24,29 44,22 20,-7 28,-25 22,-44l-154 -478c-5,-17 -15,-26 -36,-26l-4 0c-21,0 -31,9 -36,26l-154 478c-6,18 2,37 22,44 21,7 38,-4 44,-22l43 -134 166 0zm-95 -231c5,-17 8,-25 11,-44l1 0c4,18 6,27 11,44l52 167 -128 0 52 -167zm655 -126c0,-18 -11,-35 -36,-35 -25,0 -36,17 -36,35l0 190 -201 0 0 -190c0,-18 -10,-35 -36,-35 -24,0 -36,17 -36,35l0 480c0,18 11,35 36,35 25,0 36,-17 36,-35l0 -221 201 0 0 221c0,18 10,35 36,35 24,0 36,-17 36,-35l0 -480zm603 480l0 -480c0,-18 -10,-35 -35,-35 -24,0 -36,17 -36,35l0 480c0,18 10,35 35,35 24,0 36,-17 36,-35zm-284 -300l-95 0 0 -180c0,-18 -11,-35 -36,-35 -25,0 -36,17 -36,35l0 472c0,18 11,35 37,35l130 0c99,0 147,-64 147,-148l0 -34c0,-86 -46,-145 -147,-145zm75 187c0,46 -21,72 -73,72l-96 0 0 -190 95 0c53,0 75,27 75,73l0 46zm1116 -367c0,-18 -11,-35 -36,-35 -25,0 -36,17 -36,35l0 190 -201 0 0 -190c0,-18 -10,-35 -36,-35 -24,0 -36,17 -36,35l0 480c0,18 11,35 36,35 25,0 36,-17 36,-35l0 -221 201 0 0 221c0,18 10,35 36,35 24,0 36,-17 36,-35l0 -480zm434 507c18,0 34,-10 34,-34 0,-23 -16,-34 -34,-34l-209 0 0 -172 173 0c18,0 34,-10 34,-34 0,-23 -16,-34 -34,-34l-173 0 0 -157 209 0c18,0 34,-10 34,-34 0,-23 -16,-34 -34,-34l-246 0c-24,0 -35,17 -35,35l0 465c0,18 11,35 35,35l246 0zm517 -69l-15 0 0 -431c0,-18 -11,-35 -35,-35l-184 0c-24,0 -35,16 -38,35l-69 431 -24 0c-24,0 -35,17 -35,35l0 99c0,18 11,35 35,35 26,0 37,-17 37,-35l0 -65 291 0 0 65c0,18 11,35 37,35 24,0 35,-17 35,-35l0 -99c0,-18 -11,-35 -35,-35zm-262 -53l53 -345 122 0 0 397 -186 0c5,-19 8,-35 11,-53zm694 122c18,0 34,-10 34,-34 0,-23 -16,-34 -34,-34l-209 0 0 -172 173 0c18,0 34,-10 34,-34 0,-23 -16,-34 -34,-34l-173 0 0 -157 209 0c18,0 34,-10 34,-34 0,-23 -16,-34 -34,-34l-246 0c-24,0 -35,17 -35,35l0 465c0,18 11,35 35,35l246 0zm330 -583c70,0 106,-50 106,-102 0,-16 -12,-27 -28,-27 -16,0 -27,11 -28,28 -2,28 -21,49 -50,49 -29,0 -47,-21 -50,-49 -2,-17 -12,-28 -28,-28 -16,0 -28,11 -28,27 0,53 37,102 106,102zm100 556c0,18 10,35 34,35 26,0 36,-17 36,-35l0 -480c0,-18 -11,-35 -37,-35 -15,0 -24,5 -36,26l-204 364 -1 0c2,-14 3,-32 3,-53l0 -302c0,-18 -10,-35 -34,-35 -26,0 -36,17 -36,35l0 480c0,18 11,35 37,35 15,0 24,-5 36,-26l204 -364 1 0c-2,14 -3,32 -3,53l0 302zm361 -34c-53,0 -73,-37 -73,-84l0 -245c0,-47 21,-84 73,-84l78 0c33,0 50,14 53,45 2,18 11,35 35,35 26,0 37,-17 37,-35 0,-79 -47,-114 -125,-114l-78 0c-97,0 -145,69 -145,153l0 245c0,84 48,153 145,153l78 0c78,0 125,-34 125,-114 0,-18 -11,-35 -37,-35 -24,0 -34,17 -35,35 -3,32 -21,45 -53,45l-78 0zm462 69c25,0 36,-17 36,-35l0 -439 112 0c18,0 34,-10 34,-34 0,-23 -16,-34 -34,-34l-295 0c-18,0 -34,11 -34,34 0,24 16,34 34,34l112 0 0 439c0,18 11,35 36,35zm357 -246l125 0c53,0 73,34 73,81l0 17c0,46 -21,72 -73,72l-125 0 0 -170zm0 -67l0 -160 92 0c52,0 73,18 73,64l0 18c0,46 -21,78 -73,78l-92 0zm271 148c0,-63 -28,-108 -85,-125 34,-21 52,-54 52,-101l0 -18c0,-86 -49,-133 -145,-133l-128 0c-26,0 -37,17 -37,35l0 465c0,18 11,35 37,35l160 0c97,0 145,-55 145,-141l0 -17zm404 130c0,18 10,35 34,35 26,0 36,-17 36,-35l0 -480c0,-18 -11,-35 -37,-35 -15,0 -24,5 -36,26l-204 364 -1 0c2,-14 3,-32 3,-53l0 -302c0,-18 -10,-35 -34,-35 -26,0 -36,17 -36,35l0 480c0,18 11,35 37,35 15,0 24,-5 36,-26l204 -364 1 0c-2,14 -3,32 -3,53l0 302zm355 35c25,0 36,-17 36,-35l0 -439 112 0c18,0 34,-10 34,-34 0,-23 -16,-34 -34,-34l-295 0c-18,0 -34,11 -34,34 0,24 16,34 34,34l112 0 0 439c0,18 11,35 36,35zm566 -8c18,0 34,-10 34,-34 0,-23 -16,-34 -34,-34l-209 0 0 -172 173 0c18,0 34,-10 34,-34 0,-23 -16,-34 -34,-34l-173 0 0 -157 209 0c18,0 34,-10 34,-34 0,-23 -16,-34 -34,-34l-246 0c-24,0 -35,17 -35,35l0 465c0,18 11,35 35,35l246 0zm271 -96c5,-44 45,-370 45,-370l134 0 0 439c0,18 11,35 37,35 24,0 35,-17 35,-35l0 -472c0,-18 -11,-35 -35,-35l-199 0c-22,0 -34,15 -37,35 -2,22 -44,356 -47,386 -2,18 -5,29 -9,37 -8,15 -21,18 -43,18 -18,0 -35,11 -35,36 0,26 17,34 35,34 66,0 94,-21 109,-60 5,-15 8,-28 11,-48zm596 -232l-121 0 0 -180c0,-18 -11,-35 -36,-35 -25,0 -36,17 -36,35l0 472c0,18 11,35 37,35l156 0c99,0 147,-64 147,-148l0 -34c0,-86 -46,-145 -147,-145zm75 187c0,46 -21,72 -73,72l-122 0 0 -190 121 0c53,0 75,27 75,73l0 46zm542 -367c0,-18 -11,-35 -36,-35 -25,0 -36,17 -36,35l0 190 -201 0 0 -190c0,-18 -10,-35 -36,-35 -24,0 -36,17 -36,35l0 480c0,18 11,35 36,35 25,0 36,-17 36,-35l0 -221 201 0 0 221c0,18 10,35 36,35 24,0 36,-17 36,-35l0 -480zm603 480l0 -480c0,-18 -10,-35 -35,-35 -24,0 -36,17 -36,35l0 480c0,18 10,35 35,35 24,0 36,-17 36,-35zm-284 -300l-95 0 0 -180c0,-18 -11,-35 -36,-35 -25,0 -36,17 -36,35l0 472c0,18 11,35 37,35l130 0c99,0 147,-64 147,-148l0 -34c0,-86 -46,-145 -147,-145zm75 187c0,46 -21,72 -73,72l-96 0 0 -190 95 0c53,0 75,27 75,73l0 46zm570 -98c-5,-15 -11,-29 -18,-44l-119 -235c-11,-21 -20,-26 -36,-26 -25,0 -35,17 -35,35l0 480c0,18 10,35 35,35 25,0 35,-17 35,-35l0 -295c0,-21 -2,-39 -3,-53l1 0 109 213c5,11 13,18 31,18 18,0 26,-8 31,-18l109 -213 1 0c-2,14 -3,32 -3,53l0 295c0,18 10,35 35,35 25,0 35,-17 35,-35l0 -480c0,-18 -10,-35 -35,-35 -16,0 -25,5 -36,26l-119 235c-8,15 -14,29 -18,44zm636 211c0,18 10,35 34,35 26,0 36,-17 36,-35l0 -480c0,-18 -11,-35 -37,-35 -15,0 -24,5 -36,26l-204 364 -1 0c2,-14 3,-32 3,-53l0 -302c0,-18 -10,-35 -34,-35 -26,0 -36,17 -36,35l0 480c0,18 11,35 37,35 15,0 24,-5 36,-26l204 -364 1 0c-2,14 -3,32 -3,53l0 302z"/>
  </g>
 </g>
</svg>
