<?xml version="1.0" encoding="UTF-8"?>
<!DOCTYPE svg PUBLIC "-//W3C//DTD SVG 1.1//EN" "http://www.w3.org/Graphics/SVG/1.1/DTD/svg11.dtd">
<!-- Creator: CorelDRAW X6 -->
<svg xmlns="http://www.w3.org/2000/svg" xml:space="preserve" width="200mm" height="200mm" version="1.1" style="shape-rendering:geometricPrecision; text-rendering:geometricPrecision; image-rendering:optimizeQuality; fill-rule:evenodd; clip-rule:evenodd"
viewBox="0 0 20000 20000"
 xmlns:xlink="http://www.w3.org/1999/xlink">
 <defs>
  <style type="text/css">
   <![CDATA[
    .str4 {stroke:#2E99A3;stroke-width:16.61;stroke-linecap:round;stroke-linejoin:round}
    .str3 {stroke:#737370;stroke-width:73.41;stroke-linecap:round;stroke-linejoin:round}
    .str1 {stroke:#B54F66;stroke-width:73.41;stroke-linecap:round;stroke-linejoin:round}
    .str0 {stroke:#759996;stroke-width:100;stroke-linecap:round;stroke-linejoin:round;stroke-opacity:0.501961}
    .str2 {stroke:#CC5770;stroke-width:116.77;stroke-linecap:round;stroke-linejoin:round;stroke-dasharray:84.660000 253.980000}
    .fil13 {fill:none}
    .fil15 {fill:none;fill-rule:nonzero}
    .fil7 {fill:#ABC9BF}
    .fil3 {fill:#B3B3B3}
    .fil1 {fill:#BDD6D1}
    .fil2 {fill:#C4C7C7}
    .fil6 {fill:#C9E6E8}
    .fil12 {fill:#CC5770}
    .fil4 {fill:#D9D9D9}
    .fil5 {fill:#034540;fill-rule:nonzero}
    .fil10 {fill:#2E99A3;fill-rule:nonzero}
    .fil8 {fill:#5C5C5C;fill-rule:nonzero}
    .fil14 {fill:#B54F66;fill-rule:nonzero}
    .fil9 {fill:#BDD6D1;fill-rule:nonzero}
    .fil11 {fill:white;fill-opacity:0.501961}
    .fil0 {fill:url(#id0)}
   ]]>
  </style>
  <radialGradient id="id0" gradientUnits="userSpaceOnUse" cx="10000" cy="10000" r="10000" fx="10000" fy="10000">
   <stop offset="0" style="stop-color:#FEFEFE"/>
   <stop offset="0.439216" style="stop-color:#FEFEFE"/>
   <stop offset="1" style="stop-color:#D1E2F2"/>
  </radialGradient>
 </defs>
 <g id="Layer_x0020_1">
  <metadata id="CorelCorpID_0Corel-Layer"/>
  <g id="_898049200">
   <polygon class="fil0" points="0,0 20000,0 20000,20000 0,20000 "/>
   <polygon class="fil1" points="16980,13684 16980,6570 15737,7797 15737,14911 "/>
   <polygon class="fil2" points="11403,7797 11403,7186 15737,7186 15737,7797 "/>
   <polygon class="fil3" points="17035,6575 17035,5906 15737,7186 15737,7856 "/>
   <g>
    <polygon class="fil4" points="12732,5959 16980,5959 15737,7186 11489,7186 "/>
    <path id="1" class="fil5" d="M16980 6032l-4248 0 0 -146 4248 0 51 125 -51 21zm0 0l0 -146 4 0 4 0 4 0 4 1 4 1 3 1 3 1 3 1 3 1 3 2 3 2 3 2 3 2 3 2 3 2 3 2 2 3 2 3 2 3 2 3 2 3 2 3 2 3 1 3 1 3 1 3 1 3 1 4 1 4 0 4 0 4 0 4 0 4 0 4 0 4 -1 4 -1 4 -1 3 -1 3 -1 3 -1 3 -2 3 -2 3 -2 3 -2 3 -2 3 -2 3 -2 3 -3 2 -3 2 -3 2 -3 2 -3 2 -3 2 -3 2 -3 1 -3 1 -3 1 -3 1 -4 1 -4 1 -4 0 -4 0 -4 0zm-1293 1102l1243 -1227 101 104 -1243 1227 -51 21 -51 -125zm0 0l101 104 -3 3 -3 2 -3 2 -3 2 -3 2 -3 2 -3 2 -3 1 -3 1 -3 1 -3 1 -3 1 -3 1 -3 0 -3 0 -3 0 -3 0 -3 0 -3 0 -3 -1 -3 -1 -3 -1 -3 -1 -3 -1 -3 -1 -3 -2 -3 -2 -3 -2 -3 -2 -3 -2 -3 -2 -3 -3 -3 -3 -2 -3 -2 -3 -2 -3 -2 -3 -2 -3 -2 -3 -1 -3 -1 -3 -1 -3 -1 -3 -1 -3 -1 -3 0 -3 0 -4 0 -4 0 -4 0 -3 0 -3 1 -3 1 -3 1 -3 1 -3 1 -3 1 -3 2 -3 2 -3 2 -3 2 -3 2 -3 2 -3 3 -3zm-4197 -21l4248 0 0 146 -4248 0 -51 -125 51 -21zm0 0l0 146 -4 0 -4 0 -4 0 -4 -1 -4 -1 -3 -1 -3 -1 -3 -1 -3 -1 -3 -2 -3 -2 -3 -2 -3 -2 -3 -2 -3 -2 -3 -2 -2 -3 -2 -3 -2 -3 -2 -3 -2 -3 -2 -3 -2 -3 -1 -3 -1 -3 -1 -3 -1 -3 -1 -4 -1 -4 0 -4 0 -4 0 -4 0 -4 0 -4 0 -4 1 -4 1 -4 1 -3 1 -3 1 -3 1 -3 2 -3 2 -3 2 -3 2 -3 2 -3 2 -3 2 -3 3 -2 3 -2 3 -2 3 -2 3 -2 3 -2 3 -2 3 -1 3 -1 3 -1 3 -1 4 -1 4 -1 4 0 4 0 4 0zm1293 -1102l-1243 1227 -101 -104 1243 -1227 51 -21 51 125zm0 0l-101 -104 3 -3 3 -2 3 -2 3 -2 3 -2 3 -2 3 -2 3 -1 3 -1 3 -1 3 -1 3 -1 3 -1 3 0 3 0 3 0 3 0 3 0 3 0 3 1 3 1 3 1 3 1 3 1 3 1 3 2 3 2 3 2 3 2 3 2 3 2 3 3 3 3 2 3 2 3 2 3 2 3 2 3 2 3 1 3 1 3 1 3 1 3 1 3 1 3 0 3 0 4 0 4 0 4 0 3 0 3 -1 3 -1 3 -1 3 -1 3 -1 3 -1 3 -2 3 -2 3 -2 3 -2 3 -2 3 -2 3 -3 3z"/>
   </g>
   <polygon class="fil6" points="11489,14911 11489,7797 15737,7797 15737,14911 "/>
   <polygon class="fil1" points="12732,13684 16980,13684 15737,14911 11489,14911 "/>
   <polygon class="fil7" points="15737,13684 15737,14911 16980,13684 "/>
   <g>
    <path class="fil8" d="M12871 6437l0 254 -6 0 -6 0 -6 -1 -6 -1 -6 -1 -6 -2 -6 -2 -5 -2 -5 -3 -5 -3 -5 -3 -5 -3 -5 -4 -5 -4 -4 -4 -4 -4 -4 -4 -4 -5 -4 -5 -3 -5 -3 -5 -3 -5 -3 -5 -2 -6 -2 -6 -2 -6 -2 -6 -1 -6 -1 -6 -1 -6 0 -6 0 -7 0 -7 0 -6 1 -6 1 -6 1 -6 2 -6 2 -6 2 -6 2 -6 3 -5 3 -5 3 -5 3 -5 4 -5 4 -5 4 -4 4 -4 4 -4 5 -4 5 -4 5 -3 5 -3 5 -3 5 -3 5 -2 6 -2 6 -2 6 -1 6 -1 6 -1 6 0 6 0zm2579 254l-2579 0 0 -254 2579 0 0 254zm0 0l0 -254 6 0 6 0 6 1 6 1 6 1 6 2 6 2 5 2 5 3 5 3 5 3 5 3 5 4 5 4 4 4 4 4 4 4 4 5 4 5 3 5 3 5 3 5 3 5 2 6 2 6 2 6 2 6 1 6 1 6 1 6 0 6 0 7 0 7 0 6 -1 6 -1 6 -1 6 -2 6 -2 6 -2 6 -2 6 -3 5 -3 5 -3 5 -3 5 -4 5 -4 5 -4 4 -4 4 -4 4 -5 4 -5 4 -5 3 -5 3 -5 3 -5 3 -5 2 -6 2 -6 2 -6 1 -6 1 -6 1 -6 0 -6 0z"/>
   </g>
   <g>
    <path class="fil9" d="M12659 13684l146 0 0 4 0 4 0 4 -1 4 -1 3 -1 3 -1 3 -1 3 -1 3 -2 3 -2 3 -2 3 -2 3 -2 3 -2 3 -2 2 -3 2 -3 2 -3 2 -3 2 -3 2 -3 2 -3 2 -3 1 -3 1 -3 1 -3 1 -4 1 -4 1 -4 0 -4 0 -4 0 -4 0 -4 0 -4 0 -4 -1 -4 -1 -3 -1 -3 -1 -3 -1 -3 -1 -3 -2 -3 -2 -3 -2 -3 -2 -3 -2 -3 -2 -3 -2 -2 -2 -2 -3 -2 -3 -2 -3 -2 -3 -2 -3 -2 -3 -1 -3 -1 -3 -1 -3 -1 -3 -1 -3 -1 -4 0 -4 0 -4 0 -4zm146 -5705l0 5705 -146 0 0 -5705 146 0zm0 0l-146 0 0 -4 0 -4 0 -4 1 -4 1 -3 1 -3 1 -3 1 -3 1 -3 2 -3 2 -3 2 -3 2 -3 2 -3 2 -3 2 -2 3 -2 3 -2 3 -2 3 -2 3 -2 3 -2 3 -2 3 -1 3 -1 3 -1 3 -1 4 -1 4 -1 4 0 4 0 4 0 4 0 4 0 4 0 4 1 4 1 3 1 3 1 3 1 3 1 3 2 3 2 3 2 3 2 3 2 3 2 3 2 2 2 2 3 2 3 2 3 2 3 2 3 2 3 1 3 1 3 1 3 1 3 1 3 1 4 0 4 0 4 0 4z"/>
   </g>
   <g>
    <path class="fil10" d="M17053 6634l0 7050 -146 0 0 -7050 21 -51 125 51zm0 0l-146 0 0 -4 0 -4 0 -4 1 -4 1 -4 1 -3 1 -3 1 -3 1 -3 2 -3 2 -3 2 -3 2 -3 2 -3 2 -3 2 -3 3 -2 3 -2 3 -2 3 -2 3 -2 3 -2 3 -2 3 -1 3 -1 3 -1 3 -1 4 -1 4 -1 4 0 4 0 4 0 4 0 4 0 4 0 4 1 4 1 3 1 3 1 3 1 3 1 3 2 3 2 3 2 3 2 3 2 3 2 3 2 2 3 2 3 2 3 2 3 2 3 2 3 2 3 1 3 1 3 1 3 1 3 1 4 1 4 0 4 0 4 0 4zm-1367 1176l1243 -1227 103 102 -1243 1227 -125 -51 21 -51zm0 0l103 102 -3 3 -3 2 -3 2 -3 2 -3 2 -3 2 -3 2 -3 1 -3 1 -3 1 -3 1 -3 1 -3 1 -3 0 -3 0 -4 0 -4 0 -3 0 -3 0 -3 -1 -3 -1 -3 -1 -3 -1 -3 -1 -3 -1 -3 -2 -3 -2 -3 -2 -3 -2 -3 -2 -3 -2 -3 -3 -3 -3 -2 -3 -2 -3 -2 -3 -2 -3 -2 -3 -2 -3 -1 -3 -1 -3 -1 -3 -1 -3 -1 -3 -1 -3 0 -3 0 -3 0 -3 0 -3 0 -3 0 -3 1 -3 1 -3 1 -3 1 -3 1 -3 1 -3 2 -3 2 -3 2 -3 2 -3 2 -3 2 -3 3 -3zm-21 7101l0 -7050 146 0 0 7050 -21 51 -125 -51zm0 0l146 0 0 4 0 4 0 4 -1 4 -1 4 -1 3 -1 3 -1 3 -1 3 -2 3 -2 3 -2 3 -2 3 -2 3 -2 3 -2 3 -3 2 -3 2 -3 2 -3 2 -3 2 -3 2 -3 2 -3 1 -3 1 -3 1 -3 1 -4 1 -4 1 -4 0 -4 0 -4 0 -4 0 -4 0 -4 0 -4 -1 -4 -1 -3 -1 -3 -1 -3 -1 -3 -1 -3 -2 -3 -2 -3 -2 -3 -2 -3 -2 -3 -2 -3 -2 -2 -3 -2 -3 -2 -3 -2 -3 -2 -3 -2 -3 -2 -3 -1 -3 -1 -3 -1 -3 -1 -3 -1 -4 -1 -4 0 -4 0 -4 0 -4zm1367 -1176l-1243 1227 -103 -102 1243 -1227 125 51 -21 51zm0 0l-103 -102 3 -3 3 -2 3 -2 3 -2 3 -2 3 -2 3 -2 3 -1 3 -1 3 -1 3 -1 3 -1 3 -1 3 0 3 0 4 0 4 0 3 0 3 0 3 1 3 1 3 1 3 1 3 1 3 1 3 2 3 2 3 2 3 2 3 2 3 2 3 3 3 3 2 3 2 3 2 3 2 3 2 3 2 3 1 3 1 3 1 3 1 3 1 3 1 3 0 3 0 3 0 3 0 3 0 3 0 3 -1 3 -1 3 -1 3 -1 3 -1 3 -1 3 -2 3 -2 3 -2 3 -2 3 -2 3 -2 3 -3 3z"/>
   </g>
   <polygon class="fil1" points="9068,13684 9068,6570 7826,7797 7826,14911 "/>
   <polygon class="fil2" points="3492,7797 3492,7186 7826,7186 7826,7797 "/>
   <polygon class="fil3" points="9123,6575 9123,5906 7826,7186 7826,7856 "/>
   <g>
    <polygon class="fil4" points="4820,5959 9068,5959 7825,7186 3578,7186 "/>
    <path id="1" class="fil5" d="M9068 6032l-4248 0 0 -146 4248 0 51 125 -51 21zm0 0l0 -146 4 0 4 0 4 0 4 1 4 1 3 1 3 1 3 1 3 1 3 2 3 2 3 2 3 2 3 2 3 2 3 2 2 3 2 3 2 3 2 3 2 3 2 3 2 3 1 3 1 3 1 3 1 3 1 4 1 4 0 4 0 4 0 4 0 4 0 4 0 4 -1 4 -1 4 -1 3 -1 3 -1 3 -1 3 -2 3 -2 3 -2 3 -2 3 -2 3 -2 3 -2 3 -3 2 -3 2 -3 2 -3 2 -3 2 -3 2 -3 2 -3 1 -3 1 -3 1 -3 1 -4 1 -4 1 -4 0 -4 0 -4 0zm-1293 1102l1243 -1227 101 104 -1243 1227 -51 21 -51 -125zm0 0l101 104 -3 3 -3 2 -3 2 -3 2 -3 2 -3 2 -3 2 -3 1 -3 1 -3 1 -3 1 -3 1 -3 1 -3 0 -3 0 -3 0 -3 0 -3 0 -3 0 -3 -1 -3 -1 -3 -1 -3 -1 -3 -1 -3 -1 -3 -2 -3 -2 -3 -2 -3 -2 -3 -2 -3 -2 -3 -3 -3 -3 -2 -3 -2 -3 -2 -3 -2 -3 -2 -3 -2 -3 -1 -3 -1 -3 -1 -3 -1 -3 -1 -3 -1 -3 0 -3 0 -4 0 -4 0 -4 0 -3 0 -3 1 -3 1 -3 1 -3 1 -3 1 -3 1 -3 2 -3 2 -3 2 -3 2 -3 2 -3 2 -3 3 -3zm-4197 -21l4248 0 0 146 -4248 0 -51 -125 51 -21zm0 0l0 146 -4 0 -4 0 -4 0 -4 -1 -4 -1 -3 -1 -3 -1 -3 -1 -3 -1 -3 -2 -3 -2 -3 -2 -3 -2 -3 -2 -3 -2 -3 -2 -2 -3 -2 -3 -2 -3 -2 -3 -2 -3 -2 -3 -2 -3 -1 -3 -1 -3 -1 -3 -1 -3 -1 -4 -1 -4 0 -4 0 -4 0 -4 0 -4 0 -4 0 -4 1 -4 1 -4 1 -3 1 -3 1 -3 1 -3 2 -3 2 -3 2 -3 2 -3 2 -3 2 -3 2 -3 3 -2 3 -2 3 -2 3 -2 3 -2 3 -2 3 -2 3 -1 3 -1 3 -1 3 -1 4 -1 4 -1 4 0 4 0 4 0zm1293 -1102l-1243 1227 -101 -104 1243 -1227 51 -21 51 125zm0 0l-101 -104 3 -3 3 -2 3 -2 3 -2 3 -2 3 -2 3 -2 3 -1 3 -1 3 -1 3 -1 3 -1 3 -1 3 0 3 0 3 0 3 0 3 0 3 0 3 1 3 1 3 1 3 1 3 1 3 1 3 2 3 2 3 2 3 2 3 2 3 2 3 3 3 3 2 3 2 3 2 3 2 3 2 3 2 3 1 3 1 3 1 3 1 3 1 3 1 3 0 3 0 4 0 4 0 4 0 3 0 3 -1 3 -1 3 -1 3 -1 3 -1 3 -1 3 -2 3 -2 3 -2 3 -2 3 -2 3 -2 3 -3 3z"/>
   </g>
   <polygon class="fil6" points="3578,14911 3578,7797 7826,7797 7826,14911 "/>
   <polygon class="fil1" points="4820,13684 9068,13684 7826,14911 3578,14911 "/>
   <polygon class="fil7" points="7826,13684 7826,14911 9068,13684 "/>
   <g>
    <path class="fil8" d="M4959 6437l0 254 -6 0 -6 0 -6 -1 -6 -1 -6 -1 -6 -2 -6 -2 -5 -2 -5 -3 -5 -3 -5 -3 -5 -3 -5 -4 -5 -4 -4 -4 -4 -4 -4 -4 -4 -5 -4 -5 -3 -5 -3 -5 -3 -5 -3 -5 -2 -6 -2 -6 -2 -6 -2 -6 -1 -6 -1 -6 -1 -6 0 -6 0 -7 0 -7 0 -6 1 -6 1 -6 1 -6 2 -6 2 -6 2 -6 2 -6 3 -5 3 -5 3 -5 3 -5 4 -5 4 -5 4 -4 4 -4 4 -4 5 -4 5 -4 5 -3 5 -3 5 -3 5 -3 5 -2 6 -2 6 -2 6 -1 6 -1 6 -1 6 0 6 0zm2579 254l-2579 0 0 -254 2579 0 0 254zm0 0l0 -254 6 0 6 0 6 1 6 1 6 1 6 2 6 2 5 2 5 3 5 3 5 3 5 3 5 4 5 4 4 4 4 4 4 4 4 5 4 5 3 5 3 5 3 5 3 5 2 6 2 6 2 6 2 6 1 6 1 6 1 6 0 6 0 7 0 7 0 6 -1 6 -1 6 -1 6 -2 6 -2 6 -2 6 -2 6 -3 5 -3 5 -3 5 -3 5 -4 5 -4 5 -4 4 -4 4 -4 4 -5 4 -5 4 -5 3 -5 3 -5 3 -5 3 -5 2 -6 2 -6 2 -6 1 -6 1 -6 1 -6 0 -6 0z"/>
   </g>
   <g>
    <path class="fil9" d="M4747 13684l146 0 0 4 0 4 0 4 -1 4 -1 3 -1 3 -1 3 -1 3 -1 3 -2 3 -2 3 -2 3 -2 3 -2 3 -2 3 -2 2 -3 2 -3 2 -3 2 -3 2 -3 2 -3 2 -3 2 -3 1 -3 1 -3 1 -3 1 -4 1 -4 1 -4 0 -4 0 -4 0 -4 0 -4 0 -4 0 -4 -1 -4 -1 -3 -1 -3 -1 -3 -1 -3 -1 -3 -2 -3 -2 -3 -2 -3 -2 -3 -2 -3 -2 -3 -2 -2 -2 -2 -3 -2 -3 -2 -3 -2 -3 -2 -3 -2 -3 -1 -3 -1 -3 -1 -3 -1 -3 -1 -3 -1 -4 0 -4 0 -4 0 -4zm146 -5705l0 5705 -146 0 0 -5705 146 0zm0 0l-146 0 0 -4 0 -4 0 -4 1 -4 1 -3 1 -3 1 -3 1 -3 1 -3 2 -3 2 -3 2 -3 2 -3 2 -3 2 -3 2 -2 3 -2 3 -2 3 -2 3 -2 3 -2 3 -2 3 -2 3 -1 3 -1 3 -1 3 -1 4 -1 4 -1 4 0 4 0 4 0 4 0 4 0 4 0 4 1 4 1 3 1 3 1 3 1 3 1 3 2 3 2 3 2 3 2 3 2 3 2 3 2 2 2 2 3 2 3 2 3 2 3 2 3 2 3 1 3 1 3 1 3 1 3 1 3 1 4 0 4 0 4 0 4z"/>
   </g>
   <g>
    <path class="fil10" d="M9141 6634l0 7050 -146 0 0 -7050 21 -51 125 51zm0 0l-146 0 0 -4 0 -4 0 -4 1 -4 1 -4 1 -3 1 -3 1 -3 1 -3 2 -3 2 -3 2 -3 2 -3 2 -3 2 -3 2 -3 3 -2 3 -2 3 -2 3 -2 3 -2 3 -2 3 -2 3 -1 3 -1 3 -1 3 -1 4 -1 4 -1 4 0 4 0 4 0 4 0 4 0 4 0 4 1 4 1 3 1 3 1 3 1 3 1 3 2 3 2 3 2 3 2 3 2 3 2 3 2 2 3 2 3 2 3 2 3 2 3 2 3 2 3 1 3 1 3 1 3 1 3 1 4 1 4 0 4 0 4 0 4zm-1367 1176l1243 -1227 103 102 -1243 1227 -125 -51 21 -51zm0 0l103 102 -3 3 -3 2 -3 2 -3 2 -3 2 -3 2 -3 2 -3 1 -3 1 -3 1 -3 1 -3 1 -3 1 -3 0 -3 0 -4 0 -4 0 -3 0 -3 0 -3 -1 -3 -1 -3 -1 -3 -1 -3 -1 -3 -1 -3 -2 -3 -2 -3 -2 -3 -2 -3 -2 -3 -2 -3 -3 -3 -3 -2 -3 -2 -3 -2 -3 -2 -3 -2 -3 -2 -3 -1 -3 -1 -3 -1 -3 -1 -3 -1 -3 -1 -3 0 -3 0 -3 0 -3 0 -3 0 -3 0 -3 1 -3 1 -3 1 -3 1 -3 1 -3 1 -3 2 -3 2 -3 2 -3 2 -3 2 -3 2 -3 3 -3zm-21 7101l0 -7050 146 0 0 7050 -21 51 -125 -51zm0 0l146 0 0 4 0 4 0 4 -1 4 -1 4 -1 3 -1 3 -1 3 -1 3 -2 3 -2 3 -2 3 -2 3 -2 3 -2 3 -2 3 -3 2 -3 2 -3 2 -3 2 -3 2 -3 2 -3 2 -3 1 -3 1 -3 1 -3 1 -4 1 -4 1 -4 0 -4 0 -4 0 -4 0 -4 0 -4 0 -4 -1 -4 -1 -3 -1 -3 -1 -3 -1 -3 -1 -3 -2 -3 -2 -3 -2 -3 -2 -3 -2 -3 -2 -3 -2 -2 -3 -2 -3 -2 -3 -2 -3 -2 -3 -2 -3 -2 -3 -1 -3 -1 -3 -1 -3 -1 -3 -1 -4 -1 -4 0 -4 0 -4 0 -4zm1367 -1176l-1243 1227 -103 -102 1243 -1227 125 51 -21 51zm0 0l-103 -102 3 -3 3 -2 3 -2 3 -2 3 -2 3 -2 3 -2 3 -1 3 -1 3 -1 3 -1 3 -1 3 -1 3 0 3 0 4 0 4 0 3 0 3 0 3 1 3 1 3 1 3 1 3 1 3 1 3 2 3 2 3 2 3 2 3 2 3 2 3 3 3 3 2 3 2 3 2 3 2 3 2 3 2 3 1 3 1 3 1 3 1 3 1 3 1 3 0 3 0 3 0 3 0 3 0 3 0 3 -1 3 -1 3 -1 3 -1 3 -1 3 -1 3 -2 3 -2 3 -2 3 -2 3 -2 3 -2 3 -3 3z"/>
   </g>
   <polygon class="fil11 str0" points="6178,10108 8402,10108 8402,13012 6178,13012 "/>
   <polygon class="fil11 str0" points="4271,11617 4271,8558 5154,9453 5154,12512 "/>
   <polygon class="fil11 str0" points="5878,10296 8041,12459 6783,12451 4620,10288 "/>
   <polygon class="fil11 str0" points="6836,11860 6836,14084 3932,14084 3932,11860 "/>
   <polygon class="fil11 str0" points="5444,12942 7607,10778 6349,10786 4186,12950 "/>
   <polygon class="fil11 str0" points="5196,13642 8255,13642 7360,14526 4301,14526 "/>
   <polygon class="fil11 str0" points="16781,10408 14557,10408 14557,13312 16781,13312 "/>
   <polygon class="fil11 str0" points="16179,11617 16179,8558 15296,9453 15296,12512 "/>
   <polygon class="fil11 str0" points="14573,10296 12409,12459 13667,12451 15830,10288 "/>
   <polygon class="fil11 str0" points="11902,10855 11902,13079 14805,13079 14805,10855 "/>
   <polygon class="fil11 str0" points="14270,14360 12107,12197 13365,12205 15528,14368 "/>
   <polygon class="fil11 str0" points="12894,13035 15953,13035 15058,13919 11999,13919 "/>
   <g>
    <path class="fil10" d="M11562 7797l0 7113 -146 0 0 -7113 73 -71 73 71zm0 0l-146 0 0 -4 0 -4 0 -4 1 -3 1 -3 1 -3 1 -3 1 -3 1 -3 2 -3 2 -3 2 -3 2 -3 2 -3 2 -3 2 -2 3 -2 3 -2 3 -2 3 -2 3 -2 3 -2 3 -2 3 -1 3 -1 3 -1 3 -1 4 -1 4 -1 4 0 4 0 4 0 4 0 4 0 4 0 4 1 4 1 3 1 3 1 3 1 3 1 3 2 3 2 3 2 3 2 3 2 3 2 3 2 2 2 2 3 2 3 2 3 2 3 2 3 2 3 1 3 1 3 1 3 1 3 1 3 1 3 0 4 0 4 0 4zm4175 71l-4248 0 0 -142 4248 0 73 71 -73 71zm0 0l0 -142 4 0 4 0 4 0 4 1 4 1 3 1 3 1 3 1 3 1 3 2 3 2 3 2 3 2 3 2 3 2 3 2 2 2 2 3 2 3 2 3 2 3 2 3 2 3 1 3 1 3 1 3 1 3 1 3 1 3 0 4 0 4 0 4 0 4 0 4 0 4 -1 3 -1 3 -1 3 -1 3 -1 3 -1 3 -2 3 -2 3 -2 3 -2 3 -2 3 -2 3 -2 2 -3 2 -3 2 -3 2 -3 2 -3 2 -3 2 -3 2 -3 1 -3 1 -3 1 -3 1 -4 1 -4 1 -4 0 -4 0 -4 0zm-73 7043l0 -7113 146 0 0 7113 -73 71 -73 -71zm0 0l146 0 0 4 0 4 0 4 -1 3 -1 3 -1 3 -1 3 -1 3 -1 3 -2 3 -2 3 -2 3 -2 3 -2 3 -2 3 -2 2 -3 2 -3 2 -3 2 -3 2 -3 2 -3 2 -3 2 -3 1 -3 1 -3 1 -3 1 -4 1 -4 1 -4 0 -4 0 -4 0 -4 0 -4 0 -4 0 -4 -1 -4 -1 -3 -1 -3 -1 -3 -1 -3 -1 -3 -2 -3 -2 -3 -2 -3 -2 -3 -2 -3 -2 -3 -2 -2 -2 -2 -3 -2 -3 -2 -3 -2 -3 -2 -3 -2 -3 -1 -3 -1 -3 -1 -3 -1 -3 -1 -3 -1 -3 0 -4 0 -4 0 -4zm-4175 -71l4248 0 0 142 -4248 0 -73 -71 73 -71zm0 0l0 142 -4 0 -4 0 -4 0 -4 -1 -4 -1 -3 -1 -3 -1 -3 -1 -3 -1 -3 -2 -3 -2 -3 -2 -3 -2 -3 -2 -3 -2 -3 -2 -2 -2 -2 -3 -2 -3 -2 -3 -2 -3 -2 -3 -2 -3 -1 -3 -1 -3 -1 -3 -1 -3 -1 -3 -1 -3 0 -4 0 -4 0 -4 0 -4 0 -4 0 -4 1 -3 1 -3 1 -3 1 -3 1 -3 1 -3 2 -3 2 -3 2 -3 2 -3 2 -3 2 -3 2 -2 3 -2 3 -2 3 -2 3 -2 3 -2 3 -2 3 -2 3 -1 3 -1 3 -1 3 -1 4 -1 4 -1 4 0 4 0 4 0z"/>
   </g>
   <g>
    <path class="fil10" d="M3651 7797l0 7113 -146 0 0 -7113 73 -71 73 71zm0 0l-146 0 0 -4 0 -4 0 -4 1 -3 1 -3 1 -3 1 -3 1 -3 1 -3 2 -3 2 -3 2 -3 2 -3 2 -3 2 -3 2 -2 3 -2 3 -2 3 -2 3 -2 3 -2 3 -2 3 -2 3 -1 3 -1 3 -1 3 -1 4 -1 4 -1 4 0 4 0 4 0 4 0 4 0 4 0 4 1 4 1 3 1 3 1 3 1 3 1 3 2 3 2 3 2 3 2 3 2 3 2 3 2 2 2 2 3 2 3 2 3 2 3 2 3 2 3 1 3 1 3 1 3 1 3 1 3 1 3 0 4 0 4 0 4zm4175 71l-4248 0 0 -142 4248 0 73 71 -73 71zm0 0l0 -142 4 0 4 0 4 0 4 1 4 1 3 1 3 1 3 1 3 1 3 2 3 2 3 2 3 2 3 2 3 2 3 2 2 2 2 3 2 3 2 3 2 3 2 3 2 3 1 3 1 3 1 3 1 3 1 3 1 3 0 4 0 4 0 4 0 4 0 4 0 4 -1 3 -1 3 -1 3 -1 3 -1 3 -1 3 -2 3 -2 3 -2 3 -2 3 -2 3 -2 3 -2 2 -3 2 -3 2 -3 2 -3 2 -3 2 -3 2 -3 2 -3 1 -3 1 -3 1 -3 1 -4 1 -4 1 -4 0 -4 0 -4 0zm-73 7043l0 -7113 146 0 0 7113 -73 71 -73 -71zm0 0l146 0 0 4 0 4 0 4 -1 3 -1 3 -1 3 -1 3 -1 3 -1 3 -2 3 -2 3 -2 3 -2 3 -2 3 -2 3 -2 2 -3 2 -3 2 -3 2 -3 2 -3 2 -3 2 -3 2 -3 1 -3 1 -3 1 -3 1 -4 1 -4 1 -4 0 -4 0 -4 0 -4 0 -4 0 -4 0 -4 -1 -4 -1 -3 -1 -3 -1 -3 -1 -3 -1 -3 -2 -3 -2 -3 -2 -3 -2 -3 -2 -3 -2 -3 -2 -2 -2 -2 -3 -2 -3 -2 -3 -2 -3 -2 -3 -2 -3 -1 -3 -1 -3 -1 -3 -1 -3 -1 -3 -1 -3 0 -4 0 -4 0 -4zm-4175 -71l4248 0 0 142 -4248 0 -73 -71 73 -71zm0 0l0 142 -4 0 -4 0 -4 0 -4 -1 -4 -1 -3 -1 -3 -1 -3 -1 -3 -1 -3 -2 -3 -2 -3 -2 -3 -2 -3 -2 -3 -2 -3 -2 -2 -2 -2 -3 -2 -3 -2 -3 -2 -3 -2 -3 -2 -3 -1 -3 -1 -3 -1 -3 -1 -3 -1 -3 -1 -3 0 -4 0 -4 0 -4 0 -4 0 -4 0 -4 1 -3 1 -3 1 -3 1 -3 1 -3 1 -3 2 -3 2 -3 2 -3 2 -3 2 -3 2 -3 2 -2 3 -2 3 -2 3 -2 3 -2 3 -2 3 -2 3 -2 3 -1 3 -1 3 -1 3 -1 4 -1 4 -1 4 0 4 0 4 0z"/>
   </g>
   <g>
    <path class="fil5" d="M9118 6679l-101 -105 3 -3 3 -2 3 -2 3 -2 3 -2 3 -2 3 -2 3 -1 3 -1 3 -1 3 -1 3 -1 3 -1 3 0 3 0 3 0 3 0 3 0 3 0 3 1 3 1 3 1 3 1 3 1 3 1 3 2 3 2 3 2 3 2 3 2 3 2 3 3 3 3 2 3 2 3 2 3 2 3 2 3 2 3 1 3 1 3 1 3 1 3 1 3 1 3 0 3 0 3 0 4 0 4 0 3 0 3 -1 3 -1 3 -1 3 -1 3 -1 3 -1 3 -2 3 -2 3 -2 3 -2 3 -2 3 -2 3 -3 3zm-1289 1066l1188 -1171 101 105 -1188 1171 -50 21 -50 -125zm0 0l101 105 -3 3 -3 2 -3 2 -3 2 -3 2 -3 2 -3 2 -3 1 -3 1 -3 1 -3 1 -3 1 -3 1 -3 0 -3 0 -3 0 -3 0 -3 0 -3 0 -3 -1 -3 -1 -3 -1 -3 -1 -3 -1 -3 -1 -3 -2 -3 -2 -3 -2 -3 -2 -3 -2 -3 -2 -3 -3 -3 -3 -2 -3 -2 -3 -2 -3 -2 -3 -2 -3 -2 -3 -1 -3 -1 -3 -1 -3 -1 -3 -1 -3 -1 -3 0 -3 0 -3 0 -4 0 -4 0 -3 0 -3 1 -3 1 -3 1 -3 1 -3 1 -3 1 -3 2 -3 2 -3 2 -3 2 -3 2 -3 2 -3 3 -3zm-4252 -21l4302 0 0 146 -4302 0 0 -146zm0 0l0 146 -4 0 -4 0 -4 0 -4 -1 -4 -1 -3 -1 -3 -1 -3 -1 -3 -1 -3 -2 -3 -2 -3 -2 -3 -2 -3 -2 -3 -2 -3 -2 -2 -3 -2 -3 -2 -3 -2 -3 -2 -3 -2 -3 -2 -3 -1 -3 -1 -3 -1 -3 -1 -3 -1 -4 -1 -4 0 -4 0 -4 0 -4 0 -4 0 -4 0 -4 1 -4 1 -4 1 -3 1 -3 1 -3 1 -3 2 -3 2 -3 2 -3 2 -3 2 -3 2 -3 2 -3 3 -2 3 -2 3 -2 3 -2 3 -2 3 -2 3 -2 3 -1 3 -1 3 -1 3 -1 4 -1 4 -1 4 0 4 0 4 0z"/>
   </g>
   <g>
    <path class="fil5" d="M17030 6679l-101 -105 3 -3 3 -2 3 -2 3 -2 3 -2 3 -2 3 -2 3 -1 3 -1 3 -1 3 -1 3 -1 3 -1 3 0 3 0 3 0 3 0 3 0 3 0 3 1 3 1 3 1 3 1 3 1 3 1 3 2 3 2 3 2 3 2 3 2 3 2 3 3 3 3 2 3 2 3 2 3 2 3 2 3 2 3 1 3 1 3 1 3 1 3 1 3 1 3 0 3 0 3 0 4 0 4 0 3 0 3 -1 3 -1 3 -1 3 -1 3 -1 3 -1 3 -2 3 -2 3 -2 3 -2 3 -2 3 -2 3 -3 3zm-1289 1066l1188 -1171 101 105 -1188 1171 -50 21 -50 -125zm0 0l101 105 -3 3 -3 2 -3 2 -3 2 -3 2 -3 2 -3 2 -3 1 -3 1 -3 1 -3 1 -3 1 -3 1 -3 0 -3 0 -3 0 -3 0 -3 0 -3 0 -3 -1 -3 -1 -3 -1 -3 -1 -3 -1 -3 -1 -3 -2 -3 -2 -3 -2 -3 -2 -3 -2 -3 -2 -3 -3 -3 -3 -2 -3 -2 -3 -2 -3 -2 -3 -2 -3 -2 -3 -1 -3 -1 -3 -1 -3 -1 -3 -1 -3 -1 -3 0 -3 0 -3 0 -4 0 -4 0 -3 0 -3 1 -3 1 -3 1 -3 1 -3 1 -3 1 -3 2 -3 2 -3 2 -3 2 -3 2 -3 2 -3 3 -3zm-4252 -21l4302 0 0 146 -4302 0 0 -146zm0 0l0 146 -4 0 -4 0 -4 0 -4 -1 -4 -1 -3 -1 -3 -1 -3 -1 -3 -1 -3 -2 -3 -2 -3 -2 -3 -2 -3 -2 -3 -2 -3 -2 -2 -3 -2 -3 -2 -3 -2 -3 -2 -3 -2 -3 -2 -3 -1 -3 -1 -3 -1 -3 -1 -3 -1 -4 -1 -4 0 -4 0 -4 0 -4 0 -4 0 -4 0 -4 1 -4 1 -4 1 -3 1 -3 1 -3 1 -3 2 -3 2 -3 2 -3 2 -3 2 -3 2 -3 2 -3 3 -2 3 -2 3 -2 3 -2 3 -2 3 -2 3 -2 3 -1 3 -1 3 -1 3 -1 4 -1 4 -1 4 0 4 0 4 0z"/>
   </g>
   <path class="fil12" d="M16879 5566l-8 57c24,5 48,12 72,20 31,10 48,43 38,73 -10,31 -44,49 -74,40 -17,-6 -34,-12 -51,-16l-4 31 -269 138 -902 -119 22 -170 27 -204 22 -170 902 119 224 203z"/>
   <path class="fil13 str1" d="M16477 5674c30,-42 20,-100 -23,-130 -42,-30 -100,-20 -130,23"/>
   <path class="fil13 str2" d="M16560 7142c-396,-65 -672,-433 -619,-834"/>
   <path class="fil14" d="M16960 5651c156,57 287,161 380,292 112,159 167,359 139,568l0 0c-26,197 -121,367 -257,491 -139,126 -320,203 -515,209 -32,1 -59,-24 -60,-57 -1,-32 24,-59 57,-60 167,-5 322,-71 440,-178 117,-106 198,-252 220,-420l0 0 0 0c23,-178 -24,-349 -119,-485 -81,-115 -196,-205 -333,-253l-3 -1c31,10 64,-9 74,-40 8,-25 -2,-51 -22,-66zm-992 397c55,-89 146,-191 301,-366 31,-35 65,-73 92,-104 21,-24 58,-27 82,-5 24,21 27,58 5,82 -39,44 -66,75 -92,104 -158,178 -245,276 -294,361 -28,47 -71,52 -97,34 -23,-16 -34,-47 3,-106zm555 -702c75,-133 143,-289 199,-460 59,-176 106,-368 141,-566 6,-32 36,-53 68,-47 32,6 53,36 47,68 -36,202 -85,399 -146,582 -54,161 -116,309 -186,439l-124 -16z"/>
   <path class="fil15 str3" d="M15922 6058c-22,47 -2,102 45,124 47,22 102,2 124,-45"/>
   <path class="fil15 str3" d="M16754 7054c-51,10 -84,59 -74,109 10,51 59,84 109,74"/>
   <path class="fil12" d="M11274 6621l35 46c21,-13 43,-26 65,-37 29,-15 64,-3 78,26 15,29 4,66 -25,80 -16,8 -33,15 -48,24l19 25 -95 287 -726 549 -104 -137 -124 -164 -104 -137 726 -549 302 -13z"/>
   <path class="fil13 str1" d="M11063 6980c-8,-51 -57,-85 -108,-77 -51,8 -85,57 -77,107"/>
   <path class="fil13 str2" d="M12448 7137c122,382 -81,795 -462,930"/>
   <path class="fil14" d="M11391 6624c151,-69 318,-87 475,-58 192,35 371,139 498,307l0 0c15,20 29,41 42,62 23,38 1,72 -43,72l-64 0c-13,-22 -12,-43 -28,-63l0 0 0 0c-108,-143 -262,-232 -426,-262 -138,-25 -283,-8 -415,54l-3 1c29,-15 40,-52 25,-80 -12,-23 -37,-35 -62,-31zm-170 1349c146,117 332,183 526,177 32,-1 58,-28 57,-60 -1,-32 -28,-58 -60,-57 -167,5 -326,-51 -450,-151 -268,-215 -239,-439 -256,-757 -2,-39 -4,-81 -7,-139 -2,-32 -29,-57 -62,-55 -32,2 -57,29 -55,62 2,41 5,92 7,139 19,361 -3,598 300,841zm-355 -1259c-40,-148 -102,-306 -181,-467 -82,-166 -182,-336 -297,-502 -18,-27 -12,-63 15,-81 27,-18 63,-12 81,15 116,169 220,344 305,517 75,152 135,302 176,443l-100 75z"/>
   <path class="fil15 str3" d="M12249 6963c9,51 58,85 108,76 51,-9 85,-58 76,-108"/>
   <path class="fil15 str3" d="M11736 8185c51,4 96,-35 100,-87 4,-51 -35,-96 -87,-100"/>
   <path class="fil12" d="M8968 5566l-8 57c24,5 48,12 72,20 31,10 48,43 38,73 -10,31 -44,49 -74,40 -17,-6 -34,-12 -51,-16l-4 31 -269 138 -902 -119 22 -170 27 -204 22 -170 902 119 224 203z"/>
   <path class="fil13 str1" d="M8565 5674c30,-42 20,-100 -23,-130 -42,-30 -100,-20 -130,23"/>
   <path class="fil13 str2" d="M8648 7142c-396,-65 -672,-433 -619,-834"/>
   <path class="fil14" d="M9048 5651c156,57 287,161 380,292 112,159 167,359 139,568l0 0c-26,197 -121,367 -257,491 -139,126 -320,203 -515,209 -32,1 -59,-24 -60,-57 -1,-32 24,-59 57,-60 167,-5 322,-71 440,-178 117,-106 198,-252 220,-420l0 0 0 0c23,-178 -24,-349 -119,-485 -81,-115 -196,-205 -333,-253l-3 -1c31,10 64,-9 74,-40 8,-25 -2,-51 -22,-66zm-992 397c55,-89 146,-191 301,-366 31,-35 65,-73 92,-104 21,-24 58,-27 82,-5 24,21 27,58 5,82 -39,44 -66,75 -92,104 -158,178 -245,276 -294,361 -28,47 -71,52 -97,34 -23,-16 -34,-47 3,-106zm555 -702c75,-133 143,-289 199,-460 59,-176 106,-368 141,-566 6,-32 36,-53 68,-47 32,6 53,36 47,68 -36,202 -85,399 -146,582 -54,161 -116,309 -186,439l-124 -16z"/>
   <path class="fil15 str3" d="M8010 6058c-22,47 -2,102 45,124 47,22 102,2 124,-45"/>
   <path class="fil15 str3" d="M8842 7055c-51,10 -84,59 -74,109 10,51 59,84 109,74"/>
   <path class="fil12" d="M3362 6621l35 46c21,-13 43,-26 65,-37 29,-15 64,-3 78,26 15,29 4,66 -25,80 -16,8 -33,15 -48,24l19 25 -95 287 -726 549 -104 -137 -124 -164 -104 -137 726 -549 302 -13z"/>
   <path class="fil13 str1" d="M3152 6980c-8,-51 -57,-85 -108,-77 -51,8 -85,57 -77,108"/>
   <path class="fil13 str2" d="M4536 7137c122,382 -81,795 -462,930"/>
   <path class="fil14" d="M3479 6624c151,-69 318,-87 475,-58 192,35 371,139 498,307l0 0c15,20 29,41 42,62 23,38 1,72 -43,72l-64 0c-13,-22 -12,-43 -28,-63l0 0 0 0c-108,-143 -262,-232 -426,-262 -138,-25 -283,-8 -415,54l-3 1c29,-15 40,-52 25,-80 -12,-23 -37,-35 -62,-31zm-170 1349c146,117 332,183 526,177 32,-1 58,-28 57,-60 -1,-32 -28,-58 -60,-57 -167,5 -326,-51 -450,-151 -268,-215 -239,-439 -256,-757 -2,-39 -4,-81 -7,-139 -2,-32 -29,-57 -62,-55 -32,2 -57,29 -55,62 2,41 5,92 7,139 19,361 -3,598 300,841zm-355 -1259c-40,-148 -102,-306 -181,-467 -82,-166 -182,-336 -297,-502 -18,-27 -12,-63 15,-81 27,-18 63,-12 81,15 116,169 220,344 305,517 75,152 135,302 176,443l-100 75z"/>
   <path class="fil15 str3" d="M4337 6963c9,51 58,85 108,76 51,-9 85,-58 76,-108"/>
   <path class="fil15 str3" d="M3824 8185c51,4 96,-35 100,-87 4,-51 -35,-96 -87,-100"/>
   <path class="fil10 str4" d="M12630 9848c0,-67 -29,-109 -87,-129 40,-24 60,-56 60,-106l0 -28c0,-92 -53,-139 -156,-139l-96 0c-28,0 -39,18 -39,38l0 500c0,20 12,38 39,38l123 0c104,0 156,-55 156,-147l0 -26zm-242 -83l85 0c57,0 79,33 79,83l0 26c0,49 -22,73 -79,73l-85 0 0 -182zm0 -72l0 -173 58 0c56,0 79,16 79,65l0 28c0,49 -23,80 -79,80l-58 0zm468 -24l-57 0 0 -193c0,-20 -12,-38 -39,-38 -27,0 -39,18 -39,38l0 507c0,20 12,38 38,38l96 0c104,0 152,-55 152,-147l0 -49c0,-90 -48,-155 -152,-155zm-57 74l57 0c57,0 76,31 76,81l0 49c0,49 -20,74 -76,74l-57 0 0 -205zm344 249l0 -516c0,-20 -11,-38 -38,-38 -26,0 -39,18 -39,38l0 516c0,20 11,38 38,38 26,0 39,-18 39,-38zm270 -318l-74 0 0 -154 166 0c19,0 36,-11 36,-37 0,-25 -17,-37 -36,-37l-205 0c-26,0 -38,16 -38,36l0 501c0,20 12,38 39,38l113 0c104,0 152,-55 152,-147l0 -48c0,-90 -48,-153 -152,-153zm76 201c0,49 -20,74 -76,74l-74 0 0 -205 74 0c57,0 76,31 76,81l0 50zm237 -276c0,-51 18,-86 75,-86l25 0c57,0 75,35 75,86l0 271c0,51 -18,86 -75,86l-25 0c-57,0 -75,-35 -75,-86l0 -271zm251 0c0,-90 -48,-160 -152,-160l-25 0c-104,0 -152,70 -152,160l0 271c0,90 48,160 152,160l25 0c104,0 152,-70 152,-160l0 -271zm187 126l0 -205 83 0c57,0 76,25 76,74l0 49c0,50 -20,81 -76,81l-83 0zm83 74c104,0 152,-65 152,-155l0 -49c0,-92 -48,-147 -152,-147l-122 0c-26,0 -38,18 -38,38l0 508c0,20 12,38 39,38 27,0 39,-18 39,-38l0 -194 83 0zm380 -129l-57 0 0 -193c0,-20 -12,-38 -39,-38 -27,0 -39,18 -39,38l0 507c0,20 12,38 38,38l96 0c104,0 152,-55 152,-147l0 -49c0,-90 -48,-155 -152,-155zm-57 74l57 0c57,0 76,31 76,81l0 49c0,49 -20,74 -76,74l-57 0 0 -205zm344 249l0 -516c0,-20 -11,-38 -38,-38 -26,0 -39,18 -39,38l0 516c0,20 11,38 38,38 26,0 39,-18 39,-38z"/>
   <path class="fil10 str4" d="M4718 9848c0,-67 -29,-109 -87,-129 40,-24 60,-56 60,-106l0 -28c0,-92 -53,-139 -156,-139l-96 0c-28,0 -39,18 -39,38l0 500c0,20 12,38 39,38l123 0c104,0 156,-55 156,-147l0 -26zm-242 -83l85 0c57,0 79,33 79,83l0 26c0,49 -22,73 -79,73l-85 0 0 -182zm0 -72l0 -173 58 0c56,0 79,16 79,65l0 28c0,49 -23,80 -79,80l-58 0zm468 -24l-57 0 0 -193c0,-20 -12,-38 -39,-38 -27,0 -39,18 -39,38l0 507c0,20 12,38 38,38l96 0c104,0 152,-55 152,-147l0 -49c0,-90 -48,-155 -152,-155zm-57 74l57 0c57,0 76,31 76,81l0 49c0,49 -20,74 -76,74l-57 0 0 -205zm344 249l0 -516c0,-20 -11,-38 -38,-38 -26,0 -39,18 -39,38l0 516c0,20 11,38 38,38 26,0 39,-18 39,-38zm270 -318l-74 0 0 -154 166 0c19,0 36,-11 36,-37 0,-25 -17,-37 -36,-37l-205 0c-26,0 -38,16 -38,36l0 501c0,20 12,38 39,38l113 0c104,0 152,-55 152,-147l0 -48c0,-90 -48,-153 -152,-153zm76 201c0,49 -20,74 -76,74l-74 0 0 -205 74 0c57,0 76,31 76,81l0 50zm237 -276c0,-51 18,-86 75,-86l25 0c57,0 75,35 75,86l0 271c0,51 -18,86 -75,86l-25 0c-57,0 -75,-35 -75,-86l0 -271zm251 0c0,-90 -48,-160 -152,-160l-25 0c-104,0 -152,70 -152,160l0 271c0,90 48,160 152,160l25 0c104,0 152,-70 152,-160l0 -271zm187 126l0 -205 83 0c57,0 76,25 76,74l0 49c0,50 -20,81 -76,81l-83 0zm83 74c104,0 152,-65 152,-155l0 -49c0,-92 -48,-147 -152,-147l-122 0c-26,0 -38,18 -38,38l0 508c0,20 12,38 39,38 27,0 39,-18 39,-38l0 -194 83 0zm380 -129l-57 0 0 -193c0,-20 -12,-38 -39,-38 -27,0 -39,18 -39,38l0 507c0,20 12,38 38,38l96 0c104,0 152,-55 152,-147l0 -49c0,-90 -48,-155 -152,-155zm-57 74l57 0c57,0 76,31 76,81l0 49c0,49 -20,74 -76,74l-57 0 0 -205zm344 249l0 -516c0,-20 -11,-38 -38,-38 -26,0 -39,18 -39,38l0 516c0,20 11,38 38,38 26,0 39,-18 39,-38z"/>
  </g>
 </g>
</svg>
