<?xml version="1.0" encoding="UTF-8"?>
<!DOCTYPE svg PUBLIC "-//W3C//DTD SVG 1.1//EN" "http://www.w3.org/Graphics/SVG/1.1/DTD/svg11.dtd">
<!-- Creator: CorelDRAW X6 -->
<svg xmlns="http://www.w3.org/2000/svg" xml:space="preserve" width="200mm" height="200mm" version="1.1" style="shape-rendering:geometricPrecision; text-rendering:geometricPrecision; image-rendering:optimizeQuality; fill-rule:evenodd; clip-rule:evenodd"
viewBox="0 0 20000 20000"
 xmlns:xlink="http://www.w3.org/1999/xlink">
 <defs>
  <style type="text/css">
   <![CDATA[
    .str0 {stroke:#4D8A7D;stroke-width:12.73}
    .str2 {stroke:#4D8A7D;stroke-width:60;stroke-linecap:round;stroke-linejoin:round}
    .str1 {stroke:#034540;stroke-width:159.99;stroke-linecap:round;stroke-linejoin:round}
    .fil4 {fill:none;fill-rule:nonzero}
    .fil2 {fill:#CCDBAB}
    .fil1 {fill:#EBF2D9}
    .fil5 {fill:#4780BF;fill-rule:nonzero}
    .fil3 {fill:#4D8A7D;fill-rule:nonzero}
    .fil0 {fill:url(#id0)}
   ]]>
  </style>
  <radialGradient id="id0" gradientUnits="userSpaceOnUse" cx="10000" cy="10000" r="10000" fx="10000" fy="10000">
   <stop offset="0" style="stop-color:#FEFEFE"/>
   <stop offset="0.439216" style="stop-color:#FEFEFE"/>
   <stop offset="1" style="stop-color:#D1E2F2"/>
  </radialGradient>
 </defs>
 <g id="Layer_x0020_1">
  <metadata id="CorelCorpID_0Corel-Layer"/>
  <g id="_898076560">
   <polygon class="fil0" points="0,0 20000,0 20000,20000 0,20000 "/>
   <path class="fil1" d="M12902 4863l0 8832c-2205,0 -3683,0 -5888,0l0 -8832 5888 0z"/>
   <path class="fil2" d="M7014 4863l5888 0 0 3361 -5888 -2798c10,-289 0,-370 0,-563z"/>
   <path class="fil3 str0" d="M8006 7767c0,10 5,19 19,19 14,0 19,-9 19,-19l0 -258c0,-10 -6,-19 -20,-19 -8,0 -13,3 -19,14l-110 196 0 0c1,-7 2,-17 2,-28l0 -163c0,-10 -5,-19 -19,-19 -14,0 -19,9 -19,19l0 258c0,10 6,19 20,19 8,0 13,-3 19,-14l110 -196 0 0c-1,7 -2,17 -2,28l0 163zm139 -114l67 0c28,0 40,19 40,44l0 9c0,25 -11,39 -40,39l-67 0 0 -91zm0 -36l0 -86 50 0c28,0 40,10 40,35l0 10c0,25 -12,42 -40,42l-50 0zm146 80c0,-34 -15,-58 -46,-67 18,-11 28,-29 28,-54l0 -10c0,-46 -26,-72 -78,-72l-69 0c-14,0 -20,9 -20,19l0 250c0,10 6,19 20,19l86 0c52,0 78,-30 78,-76l0 -9zm173 4l23 72c3,10 13,16 24,12 11,-4 15,-14 12,-23l-83 -258c-3,-9 -8,-14 -19,-14l-2 0c-12,0 -16,5 -19,14l-83 258c-3,10 1,20 12,23 11,4 21,-2 24,-12l23 -72 89 0zm-51 -124c3,-9 4,-14 6,-23l0 0c2,10 3,14 6,23l28 90 -69 0 28 -90zm333 -68c0,-10 -6,-19 -19,-19 -14,0 -19,9 -19,19l0 102 -108 0 0 -102c0,-10 -5,-19 -19,-19 -13,0 -19,9 -19,19l0 258c0,10 6,19 19,19 14,0 19,-9 19,-19l0 -119 108 0 0 119c0,10 5,19 19,19 13,0 19,-9 19,-19l0 -258zm97 63c0,-26 11,-45 40,-45l33 0c28,0 40,20 40,45l0 132c0,26 -11,45 -40,45l-33 0c-28,0 -40,-20 -40,-45l0 -132zm151 0c0,-45 -26,-82 -78,-82l-33 0c-52,0 -78,37 -78,82l0 132c0,45 26,82 78,82l33 0c52,0 78,-37 78,-82l0 -132zm97 81l67 0c28,0 40,19 40,44l0 9c0,25 -11,39 -40,39l-67 0 0 -91zm0 -36l0 -86 50 0c28,0 40,10 40,35l0 10c0,25 -12,42 -40,42l-50 0zm146 80c0,-34 -15,-58 -46,-67 18,-11 28,-29 28,-54l0 -10c0,-46 -26,-72 -78,-72l-69 0c-14,0 -20,9 -20,19l0 250c0,10 6,19 20,19l86 0c52,0 78,-30 78,-76l0 -9z"/>
   <path class="fil3 str0" d="M8006 8297c0,10 5,19 19,19 14,0 19,-9 19,-19l0 -258c0,-10 -6,-19 -20,-19 -8,0 -13,3 -19,14l-110 196 0 0c1,-7 2,-17 2,-28l0 -163c0,-10 -5,-19 -19,-19 -14,0 -19,9 -19,19l0 258c0,10 6,19 20,19 8,0 13,-3 19,-14l110 -196 0 0c-1,7 -2,17 -2,28l0 163zm139 -114l67 0c28,0 40,19 40,44l0 9c0,25 -11,39 -40,39l-67 0 0 -91zm0 -36l0 -86 50 0c28,0 40,10 40,35l0 10c0,25 -12,42 -40,42l-50 0zm146 80c0,-34 -15,-58 -46,-67 18,-11 28,-29 28,-54l0 -10c0,-46 -26,-72 -78,-72l-69 0c-14,0 -20,9 -20,19l0 250c0,10 6,19 20,19l86 0c52,0 78,-30 78,-76l0 -9zm173 4l23 72c3,10 13,16 24,12 11,-4 15,-14 12,-23l-83 -258c-3,-9 -8,-14 -19,-14l-2 0c-12,0 -16,5 -19,14l-83 258c-3,10 1,20 12,23 11,4 21,-2 24,-12l23 -72 89 0zm-51 -124c3,-9 4,-14 6,-23l0 0c2,10 3,14 6,23l28 90 -69 0 28 -90zm333 -68c0,-10 -6,-19 -19,-19 -14,0 -19,9 -19,19l0 102 -108 0 0 -102c0,-10 -5,-19 -19,-19 -13,0 -19,9 -19,19l0 258c0,10 6,19 19,19 14,0 19,-9 19,-19l0 -119 108 0 0 119c0,10 5,19 19,19 13,0 19,-9 19,-19l0 -258zm321 258c0,10 5,19 19,19 14,0 19,-9 19,-19l0 -258c0,-10 -6,-19 -20,-19 -8,0 -13,3 -19,14l-110 196 0 0c1,-7 2,-17 2,-28l0 -163c0,-10 -5,-19 -19,-19 -14,0 -19,9 -19,19l0 258c0,10 6,19 20,19 8,0 13,-3 19,-14l110 -196 0 0c-1,7 -2,17 -2,28l0 163zm139 -114l67 0c28,0 40,19 40,44l0 9c0,25 -11,39 -40,39l-67 0 0 -91zm0 -36l0 -86 50 0c28,0 40,10 40,35l0 10c0,25 -12,42 -40,42l-50 0zm146 80c0,-34 -15,-58 -46,-67 18,-11 28,-29 28,-54l0 -10c0,-46 -26,-72 -78,-72l-69 0c-14,0 -20,9 -20,19l0 250c0,10 6,19 20,19l86 0c52,0 78,-30 78,-76l0 -9zm173 4l23 72c3,10 13,16 24,12 11,-4 15,-14 12,-23l-83 -258c-3,-9 -8,-14 -19,-14l-2 0c-12,0 -16,5 -19,14l-83 258c-3,10 1,20 12,23 11,4 21,-2 24,-12l23 -72 89 0zm-51 -124c3,-9 4,-14 6,-23l0 0c2,10 3,14 6,23l28 90 -69 0 28 -90zm333 -68c0,-10 -6,-19 -19,-19 -14,0 -19,9 -19,19l0 102 -108 0 0 -102c0,-10 -5,-19 -19,-19 -13,0 -19,9 -19,19l0 258c0,10 6,19 19,19 14,0 19,-9 19,-19l0 -119 108 0 0 119c0,10 5,19 19,19 13,0 19,-9 19,-19l0 -258zm97 63c0,-26 11,-45 40,-45l33 0c28,0 40,20 40,45l0 132c0,26 -11,45 -40,45l-33 0c-28,0 -40,-20 -40,-45l0 -132zm151 0c0,-45 -26,-82 -78,-82l-33 0c-52,0 -78,37 -78,82l0 132c0,45 26,82 78,82l33 0c52,0 78,-37 78,-82l0 -132zm97 81l67 0c28,0 40,19 40,44l0 9c0,25 -11,39 -40,39l-67 0 0 -91zm0 -36l0 -86 50 0c28,0 40,10 40,35l0 10c0,25 -12,42 -40,42l-50 0zm146 80c0,-34 -15,-58 -46,-67 18,-11 28,-29 28,-54l0 -10c0,-46 -26,-72 -78,-72l-69 0c-14,0 -20,9 -20,19l0 250c0,10 6,19 20,19l86 0c52,0 78,-30 78,-76l0 -9zm198 70c0,10 5,19 19,19 14,0 19,-9 19,-19l0 -258c0,-10 -6,-19 -20,-19 -8,0 -13,3 -19,14l-110 196 0 0c1,-7 2,-17 2,-28l0 -163c0,-10 -5,-19 -19,-19 -14,0 -19,9 -19,19l0 258c0,10 6,19 20,19 8,0 13,-3 19,-14l110 -196 0 0c-1,7 -2,17 -2,28l0 163zm176 -107l52 0 0 107c0,10 5,19 19,19 13,0 19,-9 19,-19l0 -258c0,-10 -6,-19 -19,-19 -14,0 -19,9 -19,19l0 114c0,0 -42,0 -58,0 -24,0 -37,-16 -37,-35 0,-17 0,-79 0,-79 0,-10 -5,-19 -19,-19 -13,0 -19,9 -19,19l0 74c0,44 20,77 82,77z"/>
   <g>
    <path class="fil3" d="M7996 5839l-114 0 0 -153 201 0c18,0 35,-11 35,-37 0,-25 -17,-37 -35,-37l-237 0c-27,0 -38,18 -38,38l0 498c0,20 11,38 38,38l150 0c102,0 151,-69 151,-159l0 -37c0,-92 -50,-151 -151,-151zm77 196c0,49 -21,77 -76,77l-116 0 0 -204 114 0c54,0 77,29 77,78l0 49zm496 -431c-105,0 -152,92 -152,183l0 59 -72 0 0 -204c0,-20 -8,-38 -35,-38 -25,0 -35,18 -35,38l0 514c0,20 10,38 35,38 26,0 35,-18 35,-38l0 -237 72 0 0 109c0,90 46,165 146,165l42 0c100,0 150,-74 150,-164l0 -262c0,-90 -50,-164 -150,-164l-35 0zm111 426c0,51 -21,90 -76,90l-38 0c-54,0 -76,-39 -76,-90l0 -237c0,-51 20,-115 78,-115l35 0c54,0 76,40 76,86l0 266zm314 52c6,-47 46,-396 46,-396l138 0 0 470c0,20 11,38 38,38 25,0 36,-18 36,-38l0 -506c0,-20 -11,-38 -36,-38l-205 0c-23,0 -35,16 -38,38 -2,24 -45,381 -49,413 -2,19 -5,31 -9,39 -8,16 -21,20 -44,20 -19,0 -36,12 -36,38 0,28 17,37 36,37 68,0 97,-23 113,-64 6,-16 9,-30 11,-52zm522 0c6,-47 46,-396 46,-396l138 0 0 470c0,20 11,38 38,38 25,0 36,-18 36,-38l0 -506c0,-20 -11,-38 -36,-38l-205 0c-23,0 -35,16 -38,38 -2,24 -45,381 -49,413 -2,19 -5,31 -9,39 -8,16 -21,20 -44,20 -19,0 -36,12 -36,38 0,28 17,37 36,37 68,0 97,-23 113,-64 6,-16 9,-30 11,-52zm701 103c18,0 35,-11 35,-37 0,-25 -17,-37 -35,-37l-216 0 0 -184 178 0c18,0 35,-11 35,-37 0,-25 -17,-37 -35,-37l-178 0 0 -168 216 0c18,0 35,-11 35,-37 0,-25 -17,-37 -35,-37l-253 0c-25,0 -36,18 -36,38l0 498c0,20 11,38 36,38l253 0zm297 8c26,0 37,-18 37,-38l0 -470 115 0c18,0 35,-11 35,-37 0,-25 -17,-37 -35,-37l-304 0c-18,0 -35,12 -35,37 0,26 17,37 35,37l115 0 0 470c0,20 11,38 37,38zm579 -8c18,0 35,-11 35,-37 0,-25 -17,-37 -35,-37l-216 0 0 -184 178 0c18,0 35,-11 35,-37 0,-25 -17,-37 -35,-37l-178 0 0 -168 216 0c18,0 35,-11 35,-37 0,-25 -17,-37 -35,-37l-253 0c-25,0 -36,18 -36,38l0 498c0,20 11,38 36,38l253 0zm512 -543c0,-20 -12,-38 -37,-38 -26,0 -37,18 -37,38l0 204 -207 0 0 -204c0,-20 -10,-38 -37,-38 -25,0 -37,18 -37,38l0 514c0,20 12,38 37,38 26,0 37,-18 37,-38l0 -237 207 0 0 237c0,20 10,38 37,38 25,0 37,-18 37,-38l0 -514zm352 192l-124 0 0 -192c0,-20 -11,-38 -37,-38 -26,0 -37,18 -37,38l0 506c0,20 11,38 38,38l160 0c102,0 151,-69 151,-159l0 -37c0,-92 -47,-156 -151,-156zm77 201c0,49 -21,77 -76,77l-126 0 0 -204 124 0c54,0 77,29 77,78l0 49z"/>
    <path id="1" class="fil3" d="M7882 5826l114 0 0 25 -114 0 -12 -13 12 -13zm0 25l-12 0 0 -13 12 13zm12 -166l0 153 -24 0 0 -153 12 -13 12 13zm-24 0l0 -13 12 0 -12 13zm213 13l-201 0 0 -25 201 0 0 0 0 25zm22 -50l24 0 0 0 0 3 0 3 0 3 0 3 -1 3 -1 3 -1 3 -1 2 -1 2 -1 2 -1 2 -1 2 -1 2 -2 2 -2 2 -2 2 -2 2 -2 1 -2 1 -2 1 -2 1 -2 1 -2 1 -2 1 -2 1 -2 1 -2 0 -2 0 -2 0 -2 0 -2 0 -2 0 0 -25 1 0 1 0 1 0 1 0 1 0 1 0 1 0 1 0 1 0 1 0 1 0 1 0 1 -1 1 -1 1 -1 1 -1 1 -1 1 -1 1 -1 1 -1 1 -1 1 -1 0 -1 0 -1 0 -1 0 -1 0 -1 0 -1 0 -2 0 -2 0 -2 0 -2 0 0zm-22 -24l0 -25 0 0 2 0 2 0 2 0 2 0 2 0 2 1 2 1 2 1 2 1 2 1 2 1 2 1 2 1 2 1 2 1 2 2 2 2 2 2 1 2 1 2 1 2 1 2 1 2 1 2 1 2 1 2 1 3 1 3 0 3 0 3 0 3 0 3 -24 0 0 -2 0 -2 0 -2 0 -1 0 -1 0 -1 0 -1 0 -1 0 -1 -1 -1 -1 -1 -1 -1 -1 -1 -1 -1 -1 -1 -1 -1 -1 -1 -1 -1 -1 -1 -1 -1 -1 -1 -1 0 -1 0 -1 0 -1 0 -1 0 -1 0 -1 0 -1 0 -1 0 -1 0 -1 0 0 0zm-237 -25l237 0 0 25 -237 0 0 0 0 -25zm-26 50l-24 0 0 0 0 -2 0 -2 0 -2 0 -2 0 -2 0 -2 1 -2 1 -2 1 -2 1 -2 1 -2 1 -2 1 -2 1 -2 1 -2 2 -2 2 -2 2 -2 2 -2 2 -2 2 -1 2 -1 2 -1 2 -1 2 -1 3 -1 3 -1 3 -1 3 0 3 0 3 0 3 0 0 25 -2 0 -2 0 -2 0 -2 0 -2 0 -1 0 -1 0 -1 0 -1 1 -1 1 -1 1 -1 1 -1 1 -1 1 -1 1 -1 1 -1 1 -1 1 -1 1 -1 1 -1 1 0 1 0 1 0 1 0 1 0 1 0 1 0 1 0 1 0 1 0 1 0 1 0 0zm-24 498l0 -498 24 0 0 498 0 0 -24 0zm50 25l0 25 0 0 -3 0 -3 0 -3 0 -3 0 -3 -1 -3 -1 -3 -1 -2 -1 -2 -1 -2 -1 -2 -1 -2 -1 -2 -2 -2 -2 -2 -2 -2 -2 -2 -2 -1 -2 -1 -2 -1 -2 -1 -2 -1 -2 -1 -2 -1 -2 -1 -2 -1 -2 0 -2 0 -2 0 -2 0 -2 0 -2 0 -2 24 0 0 1 0 1 0 1 0 1 0 1 0 1 0 1 0 1 0 1 0 1 0 1 1 1 1 1 1 1 1 1 1 1 1 1 1 1 1 1 1 1 1 1 1 1 1 1 1 1 1 0 1 0 1 0 2 0 2 0 2 0 2 0 2 0 0 0zm150 25l-150 0 0 -25 150 0 0 0 0 25zm139 -171l24 0 0 0 0 9 0 9 -1 9 -1 8 -1 8 -2 8 -2 8 -2 8 -3 8 -3 7 -3 7 -4 7 -4 7 -4 7 -5 6 -5 6 -5 6 -6 5 -6 5 -6 5 -7 4 -7 4 -7 4 -8 3 -8 3 -8 3 -8 2 -9 2 -9 1 -9 1 -10 1 -10 0 0 -25 9 0 9 -1 8 -1 8 -1 8 -2 7 -2 7 -2 7 -3 6 -3 6 -3 6 -3 5 -4 5 -4 5 -4 5 -4 4 -5 4 -5 4 -5 4 -5 3 -6 3 -6 3 -6 3 -6 2 -7 2 -7 2 -7 1 -7 1 -7 1 -7 1 -8 0 -8 0 -8 0 0zm24 -37l0 37 -24 0 0 -37 0 0 24 0zm-163 -138l0 -25 0 0 10 0 10 1 9 1 9 1 9 2 8 2 8 2 8 3 8 3 7 3 7 4 7 4 6 4 6 5 6 5 5 5 5 6 5 6 4 6 4 6 4 7 3 7 3 7 3 7 2 8 2 8 2 8 1 8 1 8 1 9 0 9 0 9 -24 0 0 -8 0 -8 -1 -8 -1 -7 -1 -7 -1 -7 -2 -7 -2 -6 -2 -6 -3 -6 -3 -6 -3 -5 -3 -5 -4 -5 -4 -5 -4 -5 -4 -4 -5 -4 -5 -4 -5 -4 -5 -3 -6 -3 -6 -3 -6 -3 -7 -2 -7 -2 -7 -2 -8 -1 -8 -1 -8 -1 -9 0 -9 0 0 0zm2 273l0 -25 0 0 5 0 4 0 4 0 4 -1 4 -1 4 -1 3 -1 3 -1 3 -1 3 -1 3 -1 2 -1 2 -2 2 -2 2 -2 2 -2 2 -2 2 -2 1 -2 1 -2 1 -2 1 -3 1 -3 1 -3 1 -3 1 -3 1 -3 1 -4 0 -4 0 -4 0 -4 0 -4 24 0 0 5 0 5 0 5 0 5 -1 5 -1 4 -1 4 -1 4 -1 4 -2 4 -2 4 -2 4 -2 4 -2 3 -3 3 -3 3 -3 3 -3 3 -3 3 -3 2 -4 2 -4 2 -4 2 -4 2 -4 1 -4 1 -5 1 -5 1 -5 1 -5 0 -5 0 -5 0 0 0zm-116 -25l116 0 0 25 -116 0 -12 -13 12 -13zm0 25l-12 0 0 -13 12 13zm12 -216l0 204 -24 0 0 -204 12 -13 12 13zm-24 0l0 -13 12 0 -12 13zm126 13l-114 0 0 -25 114 0 0 0 0 25zm89 65l-24 0 0 0 0 -4 0 -4 0 -4 0 -4 -1 -4 -1 -3 -1 -3 -1 -3 -1 -3 -1 -3 -1 -3 -1 -2 -1 -2 -2 -2 -2 -2 -2 -2 -2 -2 -2 -2 -2 -2 -2 -2 -2 -1 -3 -1 -3 -1 -3 -1 -3 -1 -3 -1 -4 -1 -4 -1 -4 -1 -4 0 -4 0 -5 0 0 -25 5 0 5 0 5 0 5 1 5 1 5 1 4 1 4 1 4 2 4 2 4 2 4 2 4 2 3 3 3 3 3 3 3 3 3 3 2 3 2 4 2 4 2 4 2 4 1 4 1 4 1 4 1 4 1 5 1 5 0 5 0 5 0 5 0 0zm-24 49l0 -49 24 0 0 49 0 0 -24 0zm368 -248l-24 0 0 0 0 -9 0 -9 1 -9 1 -9 1 -9 2 -9 2 -9 2 -9 3 -8 3 -8 3 -8 4 -8 4 -8 4 -8 5 -7 5 -7 5 -7 6 -7 6 -6 6 -6 7 -6 7 -5 7 -5 8 -4 8 -4 8 -3 9 -3 9 -2 9 -2 10 -1 10 -1 10 0 0 25 -9 0 -9 1 -8 1 -8 2 -8 2 -7 2 -7 3 -7 3 -6 4 -6 4 -6 4 -6 5 -5 5 -5 5 -5 6 -4 6 -4 6 -4 6 -4 7 -3 7 -3 7 -3 7 -3 7 -2 7 -2 8 -2 8 -1 8 -1 8 -1 8 -1 8 0 8 0 8 0 0zm-24 59l0 -59 24 0 0 59 -12 13 -12 -13zm24 0l0 13 -12 0 12 -13zm-84 -13l72 0 0 25 -72 0 -12 -13 12 -13zm0 25l-12 0 0 -13 12 13zm12 -216l0 204 -24 0 0 -204 0 0 24 0zm-47 -25l0 -25 0 0 3 0 3 0 3 0 3 0 3 1 3 1 3 1 2 1 2 1 2 1 2 1 2 1 2 2 2 2 2 2 2 2 1 2 1 2 1 2 1 2 1 2 1 2 1 2 1 2 1 2 0 2 0 2 0 2 0 2 0 2 0 2 0 2 -24 0 0 -2 0 -1 0 -1 0 -1 0 -1 0 -1 0 -1 0 -1 0 -1 0 -1 0 -1 0 -1 0 -1 0 -1 -1 -1 -1 -1 -1 -1 -1 -1 -1 -1 -1 -1 -1 -1 -1 -1 -1 -1 -1 0 -1 0 -1 0 -1 0 -1 0 -2 0 -2 0 -2 0 -2 0 0 0zm-23 25l-24 0 0 0 0 -2 0 -2 0 -2 0 -2 0 -2 0 -2 1 -2 1 -2 1 -2 1 -2 1 -2 1 -2 1 -2 1 -2 1 -2 1 -2 2 -2 2 -2 2 -2 2 -2 2 -1 2 -1 2 -1 2 -1 2 -1 2 -1 2 -1 3 -1 3 0 3 0 3 0 3 0 0 25 -2 0 -2 0 -2 0 -1 0 -1 0 -1 0 -1 0 -1 0 -1 0 -1 1 -1 1 -1 1 -1 1 -1 1 -1 1 -1 1 -1 1 -1 1 -1 1 -1 1 0 1 0 1 0 1 0 1 0 1 0 1 0 1 0 1 0 1 0 1 0 1 0 1 0 0zm-24 514l0 -514 24 0 0 514 0 0 -24 0zm48 25l0 25 0 0 -3 0 -3 0 -3 0 -3 0 -3 -1 -2 -1 -2 -1 -2 -1 -2 -1 -2 -1 -2 -1 -2 -1 -2 -2 -2 -2 -2 -2 -2 -2 -1 -2 -1 -2 -1 -2 -1 -2 -1 -2 -1 -2 -1 -2 -1 -2 -1 -2 -1 -2 0 -2 0 -2 0 -2 0 -2 0 -2 0 -2 24 0 0 1 0 1 0 1 0 1 0 1 0 1 0 1 0 1 0 1 0 1 0 1 0 1 1 1 1 1 1 1 1 1 1 1 1 1 1 1 1 1 1 1 1 1 1 1 1 0 1 0 1 0 1 0 1 0 1 0 2 0 2 0 2 0 0 0zm22 -25l24 0 0 0 0 2 0 2 0 2 0 2 0 2 0 2 0 2 -1 2 -1 2 -1 2 -1 2 -1 2 -1 2 -1 2 -1 2 -1 2 -2 2 -2 2 -2 2 -2 2 -2 1 -2 1 -2 1 -2 1 -2 1 -2 1 -3 1 -3 1 -3 0 -3 0 -3 0 -3 0 0 -25 2 0 2 0 2 0 1 0 1 0 1 0 1 0 1 0 1 0 1 -1 1 -1 1 -1 1 -1 1 -1 1 -1 1 -1 1 -1 1 -1 0 -1 0 -1 0 -1 0 -1 0 -1 0 -1 0 -1 0 -1 0 -1 0 -1 0 -1 0 -1 0 -1 0 -1 0 0zm24 -237l0 237 -24 0 0 -237 12 -13 12 13zm-24 0l0 -13 12 0 -12 13zm84 13l-72 0 0 -25 72 0 12 13 -12 13zm0 -25l12 0 0 13 -12 -13zm-12 122l0 -109 24 0 0 109 0 0 -24 0zm158 153l0 25 0 0 -10 0 -9 -1 -9 -1 -9 -2 -9 -2 -8 -2 -8 -3 -8 -3 -7 -4 -7 -4 -7 -4 -6 -5 -6 -5 -6 -5 -5 -6 -5 -6 -5 -6 -4 -7 -4 -7 -4 -7 -3 -7 -3 -7 -3 -8 -3 -8 -2 -8 -2 -8 -2 -8 -1 -8 -1 -9 -1 -9 0 -9 0 -9 24 0 0 8 0 8 1 8 1 8 1 7 1 7 2 7 2 7 2 7 2 7 3 6 3 6 3 6 3 6 4 5 4 5 4 5 4 5 5 4 5 4 5 4 6 4 6 3 6 3 6 3 7 2 7 2 7 2 8 1 8 1 8 1 9 0 0 0zm42 25l-42 0 0 -25 42 0 0 0 0 25zm137 -176l24 0 0 0 0 9 0 9 -1 9 -1 9 -1 8 -2 8 -2 8 -2 8 -3 8 -3 8 -3 7 -4 7 -4 7 -4 7 -5 7 -5 6 -5 6 -6 6 -6 5 -6 5 -7 5 -7 4 -7 4 -7 4 -8 3 -8 3 -8 2 -9 2 -9 2 -9 1 -10 1 -10 0 0 -25 9 0 8 -1 8 -1 8 -1 7 -2 7 -2 7 -2 7 -3 6 -3 6 -3 6 -4 5 -4 5 -4 5 -4 5 -5 4 -5 4 -5 4 -5 4 -6 3 -6 3 -6 3 -6 3 -7 2 -7 2 -7 2 -7 1 -7 1 -7 1 -8 1 -8 0 -8 0 -8 0 0zm24 -262l0 262 -24 0 0 -262 0 0 24 0zm-162 -151l0 -25 0 0 10 0 10 1 9 1 9 2 9 2 8 2 8 3 8 3 7 4 7 4 7 4 7 5 6 5 6 5 6 6 5 6 5 6 5 7 4 7 4 7 4 7 3 7 3 8 3 8 2 8 2 8 2 8 1 8 1 9 1 9 0 9 0 9 -24 0 0 -8 0 -8 -1 -8 -1 -8 -1 -7 -1 -7 -2 -7 -2 -7 -2 -7 -3 -7 -3 -6 -3 -6 -3 -6 -4 -6 -4 -5 -4 -5 -4 -5 -5 -5 -5 -4 -5 -4 -5 -4 -6 -4 -6 -3 -6 -3 -7 -3 -7 -2 -7 -2 -7 -2 -8 -1 -8 -1 -8 -1 -9 0 0 0zm-35 -25l35 0 0 25 -35 0 0 0 0 -25zm35 541l0 -25 0 0 4 0 4 0 4 0 4 -1 4 -1 3 -1 3 -1 3 -1 3 -1 3 -2 3 -2 2 -2 2 -2 2 -2 2 -2 2 -2 2 -3 2 -3 2 -3 1 -3 1 -3 1 -3 1 -3 1 -4 1 -4 1 -4 1 -4 1 -4 0 -4 0 -4 0 -4 0 -4 24 0 0 5 0 5 0 5 0 5 -1 5 -1 5 -1 5 -1 5 -1 5 -1 4 -2 4 -2 4 -2 4 -2 4 -2 4 -3 4 -3 4 -3 3 -3 3 -3 3 -4 3 -4 3 -4 2 -4 2 -4 2 -5 2 -5 1 -5 1 -5 1 -5 1 -5 0 -6 0 0 0zm-38 -25l38 0 0 25 -38 0 0 0 0 -25zm-88 -77l24 0 0 0 0 4 0 4 0 4 0 4 1 4 1 4 1 4 1 4 1 4 1 3 1 3 1 3 1 3 2 3 2 3 2 3 2 2 2 2 2 2 2 2 2 2 3 2 3 2 3 1 3 1 3 1 3 1 4 1 4 1 4 0 4 0 4 0 0 25 -6 0 -5 0 -5 -1 -5 -1 -5 -1 -5 -1 -5 -2 -4 -2 -4 -2 -4 -2 -4 -3 -4 -3 -3 -3 -3 -3 -3 -3 -3 -4 -3 -4 -2 -4 -2 -4 -2 -4 -2 -4 -2 -4 -1 -4 -1 -4 -1 -5 -1 -5 -1 -5 -1 -5 0 -5 0 -5 0 -5 0 -5 0 0zm24 -237l0 237 -24 0 0 -237 0 0 24 0zm66 -127l0 25 0 0 -4 0 -4 0 -4 1 -4 1 -4 1 -3 1 -3 2 -3 2 -3 2 -3 2 -3 3 -3 3 -2 3 -2 3 -2 3 -2 4 -2 4 -2 4 -2 4 -2 4 -1 4 -1 4 -1 4 -1 5 -1 5 -1 5 -1 5 -1 5 0 5 0 5 0 5 0 4 -24 0 0 -5 0 -5 0 -5 0 -5 1 -5 1 -5 1 -5 1 -5 1 -5 1 -5 2 -5 2 -5 2 -5 2 -5 2 -5 2 -5 3 -5 3 -4 3 -4 3 -4 4 -4 4 -4 4 -3 4 -3 5 -3 5 -3 5 -2 5 -2 6 -1 6 -1 6 -1 6 0 0 0zm35 25l-35 0 0 -25 35 0 0 0 0 25zm88 73l-24 0 0 0 0 -4 0 -4 0 -4 0 -4 -1 -4 -1 -4 -1 -3 -1 -3 -1 -3 -1 -3 -1 -3 -1 -3 -1 -3 -2 -3 -2 -3 -2 -2 -2 -2 -2 -2 -2 -2 -2 -2 -2 -2 -3 -2 -3 -2 -3 -1 -3 -1 -3 -1 -3 -1 -4 -1 -4 -1 -4 0 -4 0 -4 0 0 -25 5 0 5 0 5 1 5 1 5 1 5 1 5 2 4 2 4 2 4 2 4 3 4 3 3 3 3 3 3 3 3 3 3 4 2 4 2 4 2 4 2 4 2 4 1 4 1 4 1 4 1 4 1 4 1 5 1 5 0 5 0 5 0 5 0 0zm-24 266l0 -266 24 0 0 266 0 0 -24 0zm373 -356l0 25 12 -11 0 1 0 3 -1 5 -1 6 -1 8 -1 9 -1 11 -1 12 -2 13 -2 14 -2 15 -2 16 -2 16 -2 17 -2 17 -2 17 -2 18 -2 18 -2 17 -2 17 -2 17 -2 16 -2 16 -2 15 -2 14 -2 13 -1 12 -1 11 -1 10 -1 8 -1 7 -1 5 -24 -3 1 -5 1 -7 1 -8 1 -10 1 -11 1 -12 2 -13 2 -14 2 -15 2 -16 2 -16 2 -17 2 -17 2 -17 2 -18 2 -18 2 -17 2 -17 2 -17 2 -16 2 -16 2 -15 2 -14 2 -13 1 -12 1 -11 1 -9 1 -8 1 -6 1 -5 0 -3 0 -1 12 -11zm-12 11l1 -11 11 0 -12 11zm150 14l-138 0 0 -25 138 0 12 13 -12 13zm0 -25l12 0 0 13 -12 -13zm-12 483l0 -470 24 0 0 470 0 0 -24 0zm50 25l0 25 0 0 -3 0 -3 0 -3 0 -3 0 -3 -1 -3 -1 -3 -1 -2 -1 -2 -1 -2 -1 -2 -1 -2 -1 -2 -2 -2 -2 -2 -2 -2 -2 -2 -2 -1 -2 -1 -2 -1 -2 -1 -2 -1 -2 -1 -2 -1 -2 -1 -2 -1 -2 0 -2 0 -2 0 -2 0 -2 0 -2 0 -2 24 0 0 1 0 1 0 1 0 1 0 1 0 1 0 1 0 1 0 1 0 1 0 1 1 1 1 1 1 1 1 1 1 1 1 1 1 1 1 1 1 1 1 1 1 1 1 1 1 1 1 0 1 0 1 0 2 0 2 0 2 0 2 0 2 0 0 0zm24 -25l24 0 0 0 0 2 0 2 0 2 0 2 0 2 0 2 -1 2 -1 2 -1 2 -1 2 -1 2 -1 2 -1 2 -1 2 -1 2 -2 2 -2 2 -2 2 -2 2 -2 2 -2 1 -2 1 -2 1 -2 1 -2 1 -2 1 -3 1 -3 1 -3 0 -3 0 -3 0 -3 0 0 -25 2 0 2 0 2 0 1 0 1 0 1 0 1 0 1 0 1 -1 1 -1 1 -1 1 -1 1 -1 1 -1 1 -1 1 -1 1 -1 1 -1 1 -1 1 -1 1 -1 0 -1 0 -1 0 -1 0 -1 0 -1 0 -1 0 -1 0 -1 0 -1 0 -1 0 -1 0 0zm24 -506l0 506 -24 0 0 -506 0 0 24 0zm-48 -25l0 -25 0 0 3 0 3 0 3 0 3 0 3 1 3 1 2 1 2 1 2 1 2 1 2 1 2 1 2 2 2 2 2 2 2 2 2 2 1 2 1 2 1 2 1 2 1 2 1 2 1 2 1 2 1 2 0 2 0 2 0 2 0 2 0 2 0 2 -24 0 0 -1 0 -1 0 -1 0 -1 0 -1 0 -1 0 -1 0 -1 0 -1 0 -1 0 -1 -1 -1 -1 -1 -1 -1 -1 -1 -1 -1 -1 -1 -1 -1 -1 -1 -1 -1 -1 -1 -1 -1 -1 -1 -1 -1 -1 0 -1 0 -1 0 -1 0 -1 0 -2 0 -2 0 -2 0 0 0zm-205 -25l205 0 0 25 -205 0 0 0 0 -25zm-26 52l-24 -3 0 0 0 -2 0 -2 0 -2 1 -2 1 -2 1 -2 1 -2 1 -2 1 -2 1 -2 1 -2 1 -2 1 -2 1 -2 1 -2 2 -2 2 -2 2 -2 2 -1 2 -1 2 -1 2 -1 2 -1 2 -1 2 -1 2 -1 2 -1 2 -1 2 0 3 0 3 0 3 0 0 25 -2 0 -2 0 -1 0 -1 0 -1 0 -1 0 -1 0 -1 0 -1 0 -1 1 -1 1 -1 1 -1 1 -1 1 -1 1 -1 1 -1 1 -1 1 -1 1 -1 1 -1 1 -1 1 -1 1 -1 1 0 1 0 1 0 1 0 1 0 2 0 2 0 2 0 2 0 0zm-24 -3l0 0 0 0 0 0zm-25 416l-24 -3 0 0 0 -4 1 -6 1 -7 1 -9 1 -10 1 -12 2 -13 2 -14 2 -15 2 -16 2 -16 2 -17 2 -17 2 -18 2 -18 2 -18 2 -18 2 -18 2 -18 2 -17 2 -17 2 -16 2 -15 2 -14 2 -14 1 -12 1 -11 1 -10 1 -8 1 -7 1 -5 0 -3 24 3 0 3 -1 5 -1 7 -1 8 -1 10 -1 11 -1 12 -2 14 -2 15 -2 15 -2 16 -2 17 -2 17 -2 18 -2 18 -2 18 -2 18 -2 18 -2 18 -2 17 -2 17 -2 16 -2 16 -2 15 -2 14 -2 13 -1 12 -1 10 -1 9 -1 7 -1 6 0 4 0 0zm0 0l0 0 0 2 0 -2zm-11 44l-22 -12 0 -1 0 -1 0 0 0 -1 0 -1 0 -1 0 -1 0 -1 0 -1 0 -1 0 -1 0 -1 0 -1 0 -1 0 -1 0 -1 0 -1 0 -1 0 -1 0 -1 0 -1 0 -1 0 -1 0 -1 0 -1 0 -1 0 -1 0 -2 0 -2 0 -2 0 -2 0 -2 0 -2 24 3 0 2 0 2 0 2 0 2 0 2 0 2 0 2 0 2 0 2 0 2 0 1 0 1 0 1 0 1 0 1 0 1 0 1 0 1 0 1 0 1 0 1 0 1 0 1 0 1 0 1 0 1 -1 1 0 1 -1 1 -1 1 -1 1 -1 1 0 -1zm-22 -12l0 0 0 0 0 1zm-33 38l0 -25 0 0 2 0 2 0 2 0 2 0 2 0 2 0 2 0 1 0 1 0 1 0 1 0 1 0 1 0 1 0 1 0 1 0 1 0 1 0 1 0 1 0 1 0 1 0 1 -1 1 -1 1 -1 1 -1 1 -1 1 -1 1 -1 1 -1 1 -1 1 -1 22 12 -1 2 -1 2 -1 2 -1 2 -1 2 -1 2 -1 1 -1 1 -1 1 -2 1 -2 1 -2 1 -2 1 -2 1 -2 1 -2 1 -2 1 -2 1 -2 1 -2 1 -2 0 -2 0 -2 0 -2 0 -2 0 -2 0 -2 0 -2 0 -2 0 -2 0 -2 0 -2 0 0 0zm-24 26l-24 0 0 0 0 -3 0 -3 0 -3 0 -3 1 -3 1 -3 1 -3 1 -2 1 -2 1 -2 1 -2 1 -2 1 -2 2 -2 2 -2 2 -2 2 -2 2 -1 2 -1 2 -1 2 -1 2 -1 2 -1 2 -1 2 -1 2 -1 2 -1 2 0 2 0 2 0 2 0 2 0 0 25 -1 0 -1 0 -1 0 -1 0 -1 0 -1 0 -1 0 -1 0 -1 0 -1 0 -1 1 -1 1 -1 1 -1 1 -1 1 -1 1 -1 1 -1 1 -1 1 -1 1 -1 1 -1 1 -1 1 -1 1 0 1 0 1 0 1 0 1 0 2 0 2 0 2 0 2 0 0zm24 24l0 25 0 0 -2 0 -2 0 -2 0 -2 0 -2 0 -2 0 -2 -1 -2 -1 -2 -1 -2 -1 -2 -1 -2 -1 -2 -1 -2 -1 -2 -1 -2 -2 -2 -2 -2 -2 -2 -2 -2 -2 -1 -2 -1 -2 -1 -2 -1 -2 -1 -3 -1 -3 -1 -3 -1 -3 0 -3 0 -3 0 -3 0 -3 24 0 0 2 0 2 0 2 0 2 0 2 0 1 0 1 0 1 0 1 0 1 1 1 1 1 1 1 1 1 1 1 1 1 1 1 1 1 1 1 1 0 1 0 1 0 1 0 1 0 1 0 1 0 1 0 1 0 1 0 1 0 1 0 1 0 0 0zm101 -56l23 9 0 0 -2 4 -2 4 -2 4 -2 4 -2 4 -2 4 -2 4 -2 3 -3 3 -3 3 -3 3 -3 3 -3 3 -3 3 -4 3 -4 2 -4 2 -4 2 -4 2 -4 2 -5 2 -5 2 -5 1 -5 1 -5 1 -5 1 -6 1 -6 1 -6 0 -6 0 -6 0 -7 0 0 -25 6 0 6 0 6 0 5 0 5 -1 5 -1 5 -1 4 -1 4 -1 4 -1 4 -1 4 -1 3 -1 3 -2 3 -2 3 -2 3 -2 3 -2 2 -2 2 -2 2 -2 2 -2 2 -2 2 -2 2 -3 2 -3 2 -3 2 -3 2 -3 2 -3 1 -3 1 -3 0 0zm23 9l0 0 0 0 0 0zm-12 -58l24 3 0 0 0 2 0 2 0 2 0 2 0 2 0 2 0 2 0 2 0 2 0 2 0 2 0 2 0 2 0 2 0 2 0 2 0 2 0 2 0 2 0 2 0 2 0 2 0 2 0 2 0 2 0 2 0 2 -1 2 0 2 -1 2 -1 2 -1 2 -23 -9 0 -1 0 -1 0 -1 0 -1 0 -1 0 -1 0 -1 0 -1 0 -1 0 -1 0 -1 0 -1 0 -1 0 -1 0 -1 0 -1 0 -1 0 -2 0 -1 0 -2 0 -2 0 -2 0 -2 0 -2 0 -2 0 -2 0 -2 0 -2 0 -2 0 -2 0 -2 0 -2 0 0zm0 0l0 0 0 0 0 0zm580 -407l0 25 12 -11 0 1 0 3 -1 5 -1 6 -1 8 -1 9 -1 11 -1 12 -2 13 -2 14 -2 15 -2 16 -2 16 -2 17 -2 17 -2 17 -2 18 -2 18 -2 17 -2 17 -2 17 -2 16 -2 16 -2 15 -2 14 -2 13 -1 12 -1 11 -1 10 -1 8 -1 7 -1 5 -24 -3 1 -5 1 -7 1 -8 1 -10 1 -11 1 -12 2 -13 2 -14 2 -15 2 -16 2 -16 2 -17 2 -17 2 -17 2 -18 2 -18 2 -17 2 -17 2 -17 2 -16 2 -16 2 -15 2 -14 2 -13 1 -12 1 -11 1 -9 1 -8 1 -6 1 -5 0 -3 0 -1 12 -11zm-12 11l1 -11 11 0 -12 11zm150 14l-138 0 0 -25 138 0 12 13 -12 13zm0 -25l12 0 0 13 -12 -13zm-12 483l0 -470 24 0 0 470 0 0 -24 0zm50 25l0 25 0 0 -3 0 -3 0 -3 0 -3 0 -3 -1 -3 -1 -3 -1 -2 -1 -2 -1 -2 -1 -2 -1 -2 -1 -2 -2 -2 -2 -2 -2 -2 -2 -2 -2 -1 -2 -1 -2 -1 -2 -1 -2 -1 -2 -1 -2 -1 -2 -1 -2 -1 -2 0 -2 0 -2 0 -2 0 -2 0 -2 0 -2 24 0 0 1 0 1 0 1 0 1 0 1 0 1 0 1 0 1 0 1 0 1 0 1 1 1 1 1 1 1 1 1 1 1 1 1 1 1 1 1 1 1 1 1 1 1 1 1 1 1 1 0 1 0 1 0 2 0 2 0 2 0 2 0 2 0 0 0zm24 -25l24 0 0 0 0 2 0 2 0 2 0 2 0 2 0 2 -1 2 -1 2 -1 2 -1 2 -1 2 -1 2 -1 2 -1 2 -1 2 -2 2 -2 2 -2 2 -2 2 -2 2 -2 1 -2 1 -2 1 -2 1 -2 1 -2 1 -3 1 -3 1 -3 0 -3 0 -3 0 -3 0 0 -25 2 0 2 0 2 0 1 0 1 0 1 0 1 0 1 0 1 0 1 -1 1 -1 1 -1 1 -1 1 -1 1 -1 1 -1 1 -1 1 -1 1 -1 1 -1 1 -1 0 -1 0 -1 0 -1 0 -1 0 -1 0 -1 0 -1 0 -1 0 -1 0 -1 0 -1 0 0zm24 -506l0 506 -24 0 0 -506 0 0 24 0zm-48 -25l0 -25 0 0 3 0 3 0 3 0 3 0 3 1 3 1 2 1 2 1 2 1 2 1 2 1 2 1 2 2 2 2 2 2 2 2 2 2 1 2 1 2 1 2 1 2 1 2 1 2 1 2 1 2 1 2 0 2 0 2 0 2 0 2 0 2 0 2 -24 0 0 -1 0 -1 0 -1 0 -1 0 -1 0 -1 0 -1 0 -1 0 -1 0 -1 0 -1 -1 -1 -1 -1 -1 -1 -1 -1 -1 -1 -1 -1 -1 -1 -1 -1 -1 -1 -1 -1 -1 -1 -1 -1 -1 -1 -1 0 -1 0 -1 0 -1 0 -1 0 -2 0 -2 0 -2 0 0 0zm-205 -25l205 0 0 25 -205 0 0 0 0 -25zm-26 52l-24 -3 0 0 0 -2 0 -2 0 -2 1 -2 1 -2 1 -2 1 -2 1 -2 1 -2 1 -2 1 -2 1 -2 1 -2 1 -2 1 -2 2 -2 2 -2 2 -2 2 -1 2 -1 2 -1 2 -1 2 -1 2 -1 2 -1 2 -1 2 -1 2 -1 2 0 3 0 3 0 3 0 0 25 -2 0 -2 0 -1 0 -1 0 -1 0 -1 0 -1 0 -1 0 -1 0 -1 1 -1 1 -1 1 -1 1 -1 1 -1 1 -1 1 -1 1 -1 1 -1 1 -1 1 -1 1 -1 1 -1 1 -1 1 0 1 0 1 0 1 0 1 0 1 0 2 0 2 0 2 0 0zm-24 -3l0 0 0 0 0 0zm-25 416l-24 -3 0 0 0 -4 1 -6 1 -7 1 -9 1 -10 1 -12 2 -13 2 -14 2 -15 2 -16 2 -16 2 -17 2 -17 2 -18 2 -18 2 -18 2 -18 2 -18 2 -18 2 -17 2 -17 2 -16 2 -15 2 -14 2 -14 1 -12 1 -11 1 -10 1 -8 1 -7 1 -5 0 -3 24 3 0 3 -1 5 -1 7 -1 8 -1 10 -1 11 -1 12 -2 14 -2 15 -2 15 -2 16 -2 17 -2 17 -2 18 -2 18 -2 18 -2 18 -2 18 -2 18 -2 17 -2 17 -2 16 -2 16 -2 15 -2 14 -2 13 -1 12 -1 10 -1 9 -1 7 -1 6 0 4 0 0zm0 0l0 0 0 1 0 -1zm-11 44l-22 -12 0 -1 0 -1 0 0 0 -1 0 -1 0 -1 0 -1 0 -1 0 -1 0 -1 0 -1 0 -1 0 -1 0 -1 0 -1 0 -1 0 -1 0 -1 0 -1 0 -1 0 -1 0 -1 0 -1 0 -1 0 -1 0 -1 0 -1 0 -1 0 -2 0 -2 0 -2 0 -2 0 -2 24 3 0 2 0 2 0 2 0 2 0 2 0 2 0 2 0 2 0 2 0 2 0 1 0 1 0 1 0 1 0 1 0 1 0 1 0 1 0 1 0 1 0 1 0 1 0 1 0 1 0 1 0 1 -1 1 0 1 -1 1 -1 1 -1 1 -1 1 0 -1zm-22 -12l0 0 0 0 0 1zm-33 38l0 -25 0 0 2 0 2 0 2 0 2 0 2 0 2 0 2 0 1 0 1 0 1 0 1 0 1 0 1 0 1 0 1 0 1 0 1 0 1 0 1 0 1 0 1 0 1 0 1 0 1 -1 1 -1 1 -1 1 -1 1 -1 1 -1 1 -1 1 -1 1 -1 22 12 -1 2 -1 2 -1 2 -1 2 -1 2 -1 2 -1 2 -1 1 -1 1 -2 1 -2 1 -2 1 -2 1 -2 1 -2 1 -2 1 -2 1 -2 1 -2 1 -2 1 -2 0 -2 0 -2 0 -2 0 -2 0 -2 0 -2 0 -2 0 -2 0 -2 0 -2 0 -2 0 0 0zm-24 26l-24 0 0 0 0 -3 0 -3 0 -3 0 -3 1 -3 1 -3 1 -3 1 -2 1 -2 1 -2 1 -2 1 -2 1 -2 2 -2 2 -2 2 -2 2 -2 2 -1 2 -1 2 -1 2 -1 2 -1 2 -1 2 -1 2 -1 2 -1 2 -1 2 0 2 0 2 0 2 0 2 0 0 25 -1 0 -1 0 -1 0 -1 0 -1 0 -1 0 -1 0 -1 0 -1 0 -1 0 -1 1 -1 1 -1 1 -1 1 -1 1 -1 1 -1 1 -1 1 -1 1 -1 1 -1 1 -1 1 -1 1 -1 1 0 1 0 1 0 1 0 1 0 2 0 2 0 2 0 2 0 0zm24 24l0 25 0 0 -2 0 -2 0 -2 0 -2 0 -2 0 -2 0 -2 -1 -2 -1 -2 -1 -2 -1 -2 -1 -2 -1 -2 -1 -2 -1 -2 -1 -2 -2 -2 -2 -2 -2 -2 -2 -2 -2 -1 -2 -1 -2 -1 -2 -1 -2 -1 -3 -1 -3 -1 -3 -1 -3 0 -3 0 -3 0 -3 0 -3 24 0 0 2 0 2 0 2 0 2 0 2 0 1 0 1 0 1 0 1 0 1 1 1 1 1 1 1 1 1 1 1 1 1 1 1 1 1 1 1 1 0 1 0 1 0 1 0 1 0 1 0 1 0 1 0 1 0 1 0 1 0 1 0 1 0 0 0zm101 -56l23 9 0 0 -2 4 -2 4 -2 4 -2 4 -2 4 -2 4 -2 4 -2 3 -3 3 -3 3 -3 3 -3 3 -3 3 -3 3 -4 3 -4 2 -4 2 -4 2 -4 2 -4 2 -4 2 -5 2 -5 1 -5 1 -5 1 -5 1 -6 1 -6 1 -6 0 -6 0 -6 0 -7 0 0 -25 6 0 6 0 6 0 5 0 5 -1 5 -1 5 -1 4 -1 4 -1 4 -1 4 -1 4 -1 3 -1 3 -2 3 -2 3 -2 3 -2 3 -2 2 -2 2 -2 2 -2 2 -2 2 -2 2 -3 2 -3 2 -3 2 -3 2 -3 2 -3 2 -3 1 -3 1 -3 0 0zm23 9l0 0 0 0 0 0zm-12 -58l24 3 0 0 0 2 0 2 0 2 0 2 0 2 0 2 0 2 0 2 0 2 0 2 0 2 0 2 0 2 0 2 0 2 0 2 0 2 0 2 0 2 0 2 0 2 0 2 0 2 0 2 0 2 0 2 0 2 -1 2 0 2 -1 2 -1 2 -1 2 -23 -9 0 -1 0 -1 0 -1 0 -1 0 -1 0 -1 0 -1 0 -1 0 -1 0 -1 0 -1 0 -1 0 -1 0 -1 0 -1 0 -1 0 -1 0 -1 0 -2 0 -2 0 -2 0 -2 0 -2 0 -2 0 -2 0 -2 0 -2 0 -2 0 -2 0 -2 0 -2 0 -2 0 0zm0 0l0 0 0 0 0 0zm736 68l24 0 0 0 0 3 0 3 0 3 0 3 -1 3 -1 3 -1 3 -1 2 -1 2 -1 2 -1 2 -1 2 -1 2 -2 2 -2 2 -2 2 -2 2 -2 1 -2 1 -2 1 -2 1 -2 1 -2 1 -2 1 -2 1 -2 1 -2 0 -2 0 -2 0 -2 0 -2 0 -2 0 0 -25 1 0 1 0 1 0 1 0 1 0 1 0 1 0 1 0 1 0 1 0 1 0 1 0 1 -1 1 -1 1 -1 1 -1 1 -1 1 -1 1 -1 1 -1 1 -1 1 -1 0 -1 0 -1 0 -1 0 -1 0 -1 0 -1 0 -2 0 -2 0 -2 0 -2 0 0zm-22 -24l0 -25 0 0 2 0 2 0 2 0 2 0 2 0 2 1 2 1 2 1 2 1 2 1 2 1 2 1 2 1 2 1 2 1 2 2 2 2 2 2 1 2 1 2 1 2 1 2 1 2 1 2 1 2 1 2 1 3 1 3 0 3 0 3 0 3 0 3 -24 0 0 -2 0 -2 0 -2 0 -1 0 -1 0 -1 0 -1 0 -1 0 -1 0 -1 -1 -1 -1 -1 -1 -1 -1 -1 -1 -1 -1 -1 -1 -1 -1 -1 -1 -1 -1 -1 -1 -1 -1 0 -1 0 -1 0 -1 0 -1 0 -1 0 -1 0 -1 0 -1 0 -1 0 -1 0 0 0zm-216 -25l216 0 0 25 -216 0 -12 -13 12 -13zm0 25l-12 0 0 -13 12 13zm12 -197l0 184 -24 0 0 -184 12 -13 12 13zm-24 0l0 -13 12 0 -12 13zm190 13l-178 0 0 -25 178 0 0 0 0 25zm22 -50l24 0 0 0 0 3 0 3 0 3 0 3 -1 3 -1 3 -1 2 -1 2 -1 2 -1 2 -1 2 -1 2 -1 2 -1 2 -2 2 -2 2 -2 2 -2 1 -2 1 -2 1 -2 1 -2 1 -2 1 -2 1 -2 1 -2 1 -2 0 -2 0 -2 0 -2 0 -2 0 -2 0 0 -25 1 0 1 0 1 0 1 0 1 0 1 0 1 0 1 0 1 0 1 0 1 0 1 0 1 -1 1 -1 1 -1 1 -1 1 -1 1 -1 1 -1 1 -1 1 -1 1 -1 0 -1 0 -1 0 -1 0 -1 0 -1 0 -1 0 -2 0 -2 0 -2 0 -2 0 0zm-22 -24l0 -25 0 0 2 0 2 0 2 0 2 0 2 0 2 1 2 1 2 1 2 1 2 1 2 1 2 1 2 1 2 1 2 1 2 2 2 2 2 2 1 2 1 2 1 2 1 2 1 2 1 2 1 2 1 2 1 3 1 3 0 3 0 3 0 3 0 3 -24 0 0 -2 0 -2 0 -2 0 -1 0 -1 0 -1 0 -1 0 -1 0 -1 0 -1 -1 -1 -1 -1 -1 -1 -1 -1 -1 -1 -1 -1 -1 -1 -1 -1 -1 -1 -1 -1 -1 -1 -1 0 -1 0 -1 0 -1 0 -1 0 -1 0 -1 0 -1 0 -1 0 -1 0 -1 0 0 0zm-178 -25l178 0 0 25 -178 0 -12 -13 12 -13zm0 25l-12 0 0 -13 12 13zm12 -180l0 168 -24 0 0 -168 12 -13 12 13zm-24 0l0 -13 12 0 -12 13zm228 13l-216 0 0 -25 216 0 0 0 0 25zm22 -50l24 0 0 0 0 3 0 3 0 3 0 3 -1 3 -1 3 -1 3 -1 2 -1 2 -1 2 -1 2 -1 2 -1 2 -2 2 -2 2 -2 2 -2 2 -2 1 -2 1 -2 1 -2 1 -2 1 -2 1 -2 1 -2 1 -2 1 -2 0 -2 0 -2 0 -2 0 -2 0 -2 0 0 -25 1 0 1 0 1 0 1 0 1 0 1 0 1 0 1 0 1 0 1 0 1 0 1 0 1 -1 1 -1 1 -1 1 -1 1 -1 1 -1 1 -1 1 -1 1 -1 1 -1 0 -1 0 -1 0 -1 0 -1 0 -1 0 -1 0 -2 0 -2 0 -2 0 -2 0 0zm-22 -24l0 -25 0 0 2 0 2 0 2 0 2 0 2 0 2 1 2 1 2 1 2 1 2 1 2 1 2 1 2 1 2 1 2 1 2 2 2 2 2 2 1 2 1 2 1 2 1 2 1 2 1 2 1 2 1 2 1 3 1 3 0 3 0 3 0 3 0 3 -24 0 0 -2 0 -2 0 -2 0 -1 0 -1 0 -1 0 -1 0 -1 0 -1 0 -1 -1 -1 -1 -1 -1 -1 -1 -1 -1 -1 -1 -1 -1 -1 -1 -1 -1 -1 -1 -1 -1 -1 -1 0 -1 0 -1 0 -1 0 -1 0 -1 0 -1 0 -1 0 -1 0 -1 0 -1 0 0 0zm-253 -25l253 0 0 25 -253 0 0 0 0 -25zm-24 50l-24 0 0 0 0 -2 0 -2 0 -2 0 -2 0 -2 0 -2 1 -2 1 -2 1 -2 1 -2 1 -2 1 -2 1 -2 1 -2 1 -2 1 -2 2 -2 2 -2 2 -2 2 -2 2 -1 2 -1 2 -1 2 -1 2 -1 2 -1 3 -1 3 -1 3 0 3 0 3 0 3 0 0 25 -2 0 -2 0 -2 0 -1 0 -1 0 -1 0 -1 0 -1 0 -1 1 -1 1 -1 1 -1 1 -1 1 -1 1 -1 1 -1 1 -1 1 -1 1 -1 1 -1 1 0 1 0 1 0 1 0 1 0 1 0 1 0 1 0 1 0 1 0 1 0 1 0 1 0 0zm-24 498l0 -498 24 0 0 498 0 0 -24 0zm48 25l0 25 0 0 -3 0 -3 0 -3 0 -3 0 -3 -1 -3 -1 -2 -1 -2 -1 -2 -1 -2 -1 -2 -1 -2 -1 -2 -2 -2 -2 -2 -2 -2 -2 -1 -2 -1 -2 -1 -2 -1 -2 -1 -2 -1 -2 -1 -2 -1 -2 -1 -2 -1 -2 0 -2 0 -2 0 -2 0 -2 0 -2 0 -2 24 0 0 1 0 1 0 1 0 1 0 1 0 1 0 1 0 1 0 1 0 1 0 1 0 1 1 1 1 1 1 1 1 1 1 1 1 1 1 1 1 1 1 1 1 1 1 1 1 0 1 0 1 0 1 0 1 0 1 0 2 0 2 0 2 0 0 0zm253 25l-253 0 0 -25 253 0 0 0 0 25zm322 -42l24 0 0 0 0 2 0 2 0 2 0 2 0 2 0 2 -1 2 -1 2 -1 2 -1 2 -1 2 -1 2 -1 2 -1 2 -1 2 -2 2 -2 2 -2 2 -2 2 -2 2 -2 1 -2 1 -2 1 -2 1 -2 1 -3 1 -3 1 -3 1 -3 0 -3 0 -3 0 -3 0 0 -25 2 0 2 0 2 0 2 0 1 0 1 0 1 0 1 0 1 -1 1 -1 1 -1 1 -1 1 -1 1 -1 1 -1 1 -1 1 -1 1 -1 1 -1 1 -1 0 -1 0 -1 0 -1 0 -1 0 -1 0 -1 0 -1 0 -1 0 -1 0 -1 0 -1 0 -1 0 0zm24 -470l0 470 -24 0 0 -470 12 -13 12 13zm-24 0l0 -13 12 0 -12 13zm127 13l-115 0 0 -25 115 0 0 0 0 25zm22 -50l24 0 0 0 0 3 0 3 0 3 0 3 -1 3 -1 3 -1 3 -1 2 -1 2 -1 2 -1 2 -1 2 -1 2 -2 2 -2 2 -2 2 -2 2 -2 1 -2 1 -2 1 -2 1 -2 1 -2 1 -2 1 -2 1 -2 1 -2 0 -2 0 -2 0 -2 0 -2 0 -2 0 0 -25 1 0 1 0 1 0 1 0 1 0 1 0 1 0 1 0 1 0 1 0 1 0 1 0 1 -1 1 -1 1 -1 1 -1 1 -1 1 -1 1 -1 1 -1 1 -1 1 -1 0 -1 0 -1 0 -1 0 -1 0 -1 0 -1 0 -2 0 -2 0 -2 0 -2 0 0zm-22 -24l0 -25 0 0 2 0 2 0 2 0 2 0 2 0 2 1 2 1 2 1 2 1 2 1 2 1 2 1 2 1 2 1 2 1 2 2 2 2 2 2 1 2 1 2 1 2 1 2 1 2 1 2 1 2 1 2 1 3 1 3 0 3 0 3 0 3 0 3 -24 0 0 -2 0 -2 0 -2 0 -1 0 -1 0 -1 0 -1 0 -1 0 -1 -1 -1 -1 -1 -1 -1 -1 -1 -1 -1 -1 -1 -1 -1 -1 -1 -1 -1 -1 -1 -1 -1 -1 -1 -1 0 -1 0 -1 0 -1 0 -1 0 -1 0 -1 0 -1 0 -1 0 -1 0 -1 0 0 0zm-304 -25l304 0 0 25 -304 0 0 0 0 -25zm-22 50l-24 0 0 0 0 -3 0 -3 0 -3 0 -3 1 -3 1 -3 1 -2 1 -2 1 -2 1 -2 1 -2 1 -2 1 -2 1 -2 2 -2 2 -2 2 -2 2 -1 2 -1 2 -1 2 -1 2 -1 2 -1 2 -1 2 -1 2 -1 2 -1 2 0 2 0 2 0 2 0 2 0 0 25 -1 0 -1 0 -1 0 -1 0 -1 0 -1 0 -1 0 -1 0 -1 0 -1 0 -1 0 -1 1 -1 1 -1 1 -1 1 -1 1 -1 1 -1 1 -1 1 -1 1 -1 1 -1 1 -1 1 0 1 0 1 0 1 0 1 0 1 0 1 0 2 0 2 0 2 0 0zm22 24l0 25 0 0 -2 0 -2 0 -2 0 -2 0 -2 0 -2 0 -2 -1 -2 -1 -2 -1 -2 -1 -2 -1 -2 -1 -2 -1 -2 -1 -2 -1 -2 -2 -2 -2 -2 -2 -2 -2 -1 -2 -1 -2 -1 -2 -1 -2 -1 -2 -1 -2 -1 -3 -1 -3 -1 -3 0 -3 0 -3 0 -3 0 -3 24 0 0 2 0 2 0 2 0 2 0 1 0 1 0 1 0 1 0 1 0 1 1 1 1 1 1 1 1 1 1 1 1 1 1 1 1 1 1 1 1 1 1 0 1 0 1 0 1 0 1 0 1 0 1 0 1 0 1 0 1 0 1 0 1 0 0 0zm115 25l-115 0 0 -25 115 0 12 13 -12 13zm0 -25l12 0 0 13 -12 -13zm-12 483l0 -470 24 0 0 470 0 0 -24 0zm49 25l0 25 0 0 -3 0 -3 0 -3 0 -3 0 -3 -1 -3 -1 -3 -1 -2 -1 -2 -1 -2 -1 -2 -1 -2 -1 -2 -2 -2 -2 -2 -2 -2 -2 -2 -2 -1 -2 -1 -2 -1 -2 -1 -2 -1 -2 -1 -2 -1 -2 -1 -2 -1 -2 0 -2 0 -2 0 -2 0 -2 0 -2 0 -2 24 0 0 1 0 1 0 1 0 1 0 1 0 1 0 1 0 1 0 1 0 1 0 1 1 1 1 1 1 1 1 1 1 1 1 1 1 1 1 1 1 1 1 1 1 1 1 1 1 1 1 0 1 0 1 0 1 0 2 0 2 0 2 0 2 0 0 0zm602 -32l24 0 0 0 0 3 0 3 0 3 0 3 -1 3 -1 3 -1 3 -1 2 -1 2 -1 2 -1 2 -1 2 -1 2 -2 2 -2 2 -2 2 -2 2 -2 1 -2 1 -2 1 -2 1 -2 1 -2 1 -2 1 -2 1 -2 1 -2 0 -2 0 -2 0 -2 0 -2 0 -2 0 0 -25 1 0 1 0 1 0 1 0 1 0 1 0 1 0 1 0 1 0 1 0 1 0 1 0 1 -1 1 -1 1 -1 1 -1 1 -1 1 -1 1 -1 1 -1 1 -1 1 -1 0 -1 0 -1 0 -1 0 -1 0 -1 0 -1 0 -2 0 -2 0 -2 0 -2 0 0zm-22 -24l0 -25 0 0 2 0 2 0 2 0 2 0 2 0 2 1 2 1 2 1 2 1 2 1 2 1 2 1 2 1 2 1 2 1 2 2 2 2 2 2 2 2 1 2 1 2 1 2 1 2 1 2 1 2 1 2 1 3 1 3 0 3 0 3 0 3 0 3 -24 0 0 -2 0 -2 0 -2 0 -1 0 -1 0 -1 0 -1 0 -1 0 -1 0 -1 -1 -1 -1 -1 -1 -1 -1 -1 -1 -1 -1 -1 -1 -1 -1 -1 -1 -1 -1 -1 -1 -1 -1 0 -1 0 -1 0 -1 0 -1 0 -1 0 -1 0 -1 0 -1 0 -1 0 -1 0 0 0zm-216 -25l216 0 0 25 -216 0 -12 -13 12 -13zm0 25l-12 0 0 -13 12 13zm12 -197l0 184 -24 0 0 -184 12 -13 12 13zm-24 0l0 -13 12 0 -12 13zm190 13l-178 0 0 -25 178 0 0 0 0 25zm22 -50l24 0 0 0 0 3 0 3 0 3 0 3 -1 3 -1 3 -1 2 -1 2 -1 2 -1 2 -1 2 -1 2 -1 2 -1 2 -2 2 -2 2 -2 2 -2 1 -2 1 -2 1 -2 1 -2 1 -2 1 -2 1 -2 1 -2 1 -2 0 -2 0 -2 0 -2 0 -2 0 -2 0 0 -25 1 0 1 0 1 0 1 0 1 0 1 0 1 0 1 0 1 0 1 0 1 0 1 0 1 -1 1 -1 1 -1 1 -1 1 -1 1 -1 1 -1 1 -1 1 -1 1 -1 0 -1 0 -1 0 -1 0 -1 0 -1 0 -1 0 -2 0 -2 0 -2 0 -2 0 0zm-22 -24l0 -25 0 0 2 0 2 0 2 0 2 0 2 0 2 1 2 1 2 1 2 1 2 1 2 1 2 1 2 1 2 1 2 1 2 2 2 2 2 2 1 2 1 2 1 2 1 2 1 2 1 2 1 2 1 2 1 3 1 3 0 3 0 3 0 3 0 3 -24 0 0 -2 0 -2 0 -2 0 -1 0 -1 0 -1 0 -1 0 -1 0 -1 0 -1 -1 -1 -1 -1 -1 -1 -1 -1 -1 -1 -1 -1 -1 -1 -1 -1 -1 -1 -1 -1 -1 -1 -1 0 -1 0 -1 0 -1 0 -1 0 -1 0 -1 0 -1 0 -1 0 -1 0 -1 0 0 0zm-178 -25l178 0 0 25 -178 0 -12 -13 12 -13zm0 25l-12 0 0 -13 12 13zm12 -180l0 168 -24 0 0 -168 12 -13 12 13zm-24 0l0 -13 12 0 -12 13zm228 13l-216 0 0 -25 216 0 0 0 0 25zm22 -50l24 0 0 0 0 3 0 3 0 3 0 3 -1 3 -1 3 -1 3 -1 2 -1 2 -1 2 -1 2 -1 2 -1 2 -2 2 -2 2 -2 2 -2 2 -2 1 -2 1 -2 1 -2 1 -2 1 -2 1 -2 1 -2 1 -2 1 -2 0 -2 0 -2 0 -2 0 -2 0 -2 0 0 -25 1 0 1 0 1 0 1 0 1 0 1 0 1 0 1 0 1 0 1 0 1 0 1 0 1 -1 1 -1 1 -1 1 -1 1 -1 1 -1 1 -1 1 -1 1 -1 1 -1 0 -1 0 -1 0 -1 0 -1 0 -1 0 -1 0 -2 0 -2 0 -2 0 -2 0 0zm-22 -24l0 -25 0 0 2 0 2 0 2 0 2 0 2 0 2 1 2 1 2 1 2 1 2 1 2 1 2 1 2 1 2 1 2 1 2 2 2 2 2 2 2 2 1 2 1 2 1 2 1 2 1 2 1 2 1 2 1 3 1 3 0 3 0 3 0 3 0 3 -24 0 0 -2 0 -2 0 -2 0 -1 0 -1 0 -1 0 -1 0 -1 0 -1 0 -1 -1 -1 -1 -1 -1 -1 -1 -1 -1 -1 -1 -1 -1 -1 -1 -1 -1 -1 -1 -1 -1 -1 -1 0 -1 0 -1 0 -1 0 -1 0 -1 0 -1 0 -1 0 -1 0 -1 0 -1 0 0 0zm-253 -25l253 0 0 25 -253 0 0 0 0 -25zm-24 50l-24 0 0 0 0 -2 0 -2 0 -2 0 -2 0 -2 0 -2 1 -2 1 -2 1 -2 1 -2 1 -2 1 -2 1 -2 1 -2 1 -2 1 -2 2 -2 2 -2 2 -2 2 -2 2 -1 2 -1 2 -1 2 -1 2 -1 2 -1 3 -1 3 -1 3 0 3 0 3 0 3 0 0 25 -2 0 -2 0 -2 0 -1 0 -1 0 -1 0 -1 0 -1 0 -1 1 -1 1 -1 1 -1 1 -1 1 -1 1 -1 1 -1 1 -1 1 -1 1 -1 1 -1 1 0 1 0 1 0 1 0 1 0 1 0 1 0 1 0 1 0 1 0 1 0 1 0 1 0 0zm-24 498l0 -498 24 0 0 498 0 0 -24 0zm48 25l0 25 0 0 -3 0 -3 0 -3 0 -3 0 -3 -1 -3 -1 -2 -1 -2 -1 -2 -1 -2 -1 -2 -1 -2 -1 -2 -2 -2 -2 -2 -2 -2 -2 -1 -2 -1 -2 -1 -2 -1 -2 -1 -2 -1 -2 -1 -2 -1 -2 -1 -2 -1 -2 0 -2 0 -2 0 -2 0 -2 0 -2 0 -2 24 0 0 1 0 1 0 1 0 1 0 1 0 1 0 1 0 1 0 1 0 1 0 1 0 1 1 1 1 1 1 1 1 1 1 1 1 1 1 1 1 1 1 1 1 1 1 1 1 1 1 0 1 0 1 0 1 0 1 0 2 0 2 0 2 0 0 0zm253 25l-253 0 0 -25 253 0 0 0 0 25zm475 -581l0 -25 0 0 3 0 3 0 3 0 3 0 3 1 3 1 2 1 2 1 2 1 2 1 2 1 2 1 2 2 2 2 2 2 2 2 2 2 1 2 1 2 1 2 1 2 1 2 1 2 1 2 1 2 1 2 1 2 0 2 0 2 0 2 0 2 0 2 -24 0 0 -1 0 -1 0 -1 0 -1 0 -1 0 -1 0 -1 0 -1 0 -1 0 -1 0 -1 -1 -1 -1 -1 -1 -1 -1 -1 -1 -1 -1 -1 -1 -1 -1 -1 -1 -1 -1 -1 -1 -1 -1 -1 -1 -1 -1 0 -1 0 -1 0 -1 0 -1 0 -2 0 -2 0 -2 0 0 0zm-25 25l-24 0 0 0 0 -2 0 -2 0 -2 0 -2 0 -2 0 -2 1 -2 1 -2 1 -2 1 -2 1 -2 1 -2 1 -2 1 -2 1 -2 2 -2 2 -2 2 -2 2 -2 2 -2 2 -1 2 -1 2 -1 2 -1 2 -1 3 -1 3 -1 3 -1 3 0 3 0 3 0 3 0 0 25 -2 0 -2 0 -2 0 -2 0 -1 0 -1 0 -1 0 -1 0 -1 1 -1 1 -1 1 -1 1 -1 1 -1 1 -1 1 -1 1 -1 1 -1 1 -1 1 -1 1 -1 1 0 1 0 1 0 1 0 1 0 1 0 1 0 1 0 1 0 1 0 1 0 1 0 0zm-24 204l0 -204 24 0 0 204 -12 13 -12 -13zm24 0l0 13 -12 0 12 -13zm-219 -13l207 0 0 25 -207 0 -12 -13 12 -13zm0 25l-12 0 0 -13 12 13zm12 -216l0 204 -24 0 0 -204 0 0 24 0zm-49 -25l0 -25 0 0 3 0 3 0 3 0 3 0 3 1 3 1 3 1 2 1 2 1 2 1 2 1 2 1 2 2 2 2 2 2 2 2 2 2 1 2 1 2 1 2 1 2 1 2 1 2 1 2 1 2 1 2 0 2 0 2 0 2 0 2 0 2 0 2 -24 0 0 -1 0 -1 0 -1 0 -1 0 -1 0 -1 0 -1 0 -1 0 -1 0 -1 0 -1 0 -1 -1 -1 -1 -1 -1 -1 -1 -1 -1 -1 -1 -1 -1 -1 -1 -1 -1 -1 -1 -1 -1 -1 -1 -1 -1 0 -1 0 -1 0 -2 0 -2 0 -2 0 -2 0 -2 0 0 0zm-25 25l-24 0 0 0 0 -2 0 -2 0 -2 0 -2 0 -2 1 -2 1 -2 1 -2 1 -2 1 -2 1 -2 1 -2 1 -2 1 -2 1 -2 2 -2 2 -2 2 -2 2 -2 2 -2 2 -1 2 -1 2 -1 2 -1 2 -1 2 -1 3 -1 3 -1 3 0 3 0 3 0 3 0 0 25 -2 0 -2 0 -2 0 -1 0 -1 0 -1 0 -1 0 -1 0 -1 1 -1 1 -1 1 -1 1 -1 1 -1 1 -1 1 -1 1 -1 1 -1 1 -1 1 -1 1 -1 1 0 1 0 1 0 1 0 1 0 1 0 1 0 1 0 1 0 1 0 1 0 1 0 0zm-24 514l0 -514 24 0 0 514 0 0 -24 0zm49 25l0 25 0 0 -3 0 -3 0 -3 0 -3 0 -3 -1 -3 -1 -2 -1 -2 -1 -2 -1 -2 -1 -2 -1 -2 -1 -2 -2 -2 -2 -2 -2 -2 -2 -2 -2 -1 -2 -1 -2 -1 -2 -1 -2 -1 -2 -1 -2 -1 -2 -1 -2 -1 -2 -1 -2 0 -2 0 -2 0 -2 0 -2 0 -2 24 0 0 1 0 1 0 1 0 1 0 1 0 1 0 1 0 1 0 1 0 1 0 1 1 1 1 1 1 1 1 1 1 1 1 1 1 1 1 1 1 1 1 1 1 1 1 1 1 1 1 0 1 0 1 0 1 0 1 0 2 0 2 0 2 0 0 0zm25 -25l24 0 0 0 0 2 0 2 0 2 0 2 0 2 0 2 -1 2 -1 2 -1 2 -1 2 -1 2 -1 2 -1 2 -1 2 -1 2 -2 2 -2 2 -2 2 -2 2 -2 2 -2 1 -2 1 -2 1 -2 1 -2 1 -3 1 -3 1 -3 1 -3 0 -3 0 -3 0 -3 0 0 -25 2 0 2 0 2 0 2 0 1 0 1 0 1 0 1 0 1 -1 1 -1 1 -1 1 -1 1 -1 1 -1 1 -1 1 -1 1 -1 1 -1 1 -1 1 -1 0 -1 0 -1 0 -1 0 -1 0 -1 0 -1 0 -1 0 -1 0 -1 0 -1 0 -1 0 -1 0 0zm24 -237l0 237 -24 0 0 -237 12 -13 12 13zm-24 0l0 -13 12 0 -12 13zm219 13l-207 0 0 -25 207 0 12 13 -12 13zm0 -25l12 0 0 13 -12 -13zm-12 249l0 -237 24 0 0 237 0 0 -24 0zm49 25l0 25 0 0 -3 0 -3 0 -3 0 -3 0 -3 -1 -3 -1 -3 -1 -2 -1 -2 -1 -2 -1 -2 -1 -2 -1 -2 -2 -2 -2 -2 -2 -2 -2 -2 -2 -1 -2 -1 -2 -1 -2 -1 -2 -1 -2 -1 -2 -1 -2 -1 -2 -1 -2 0 -2 0 -2 0 -2 0 -2 0 -2 0 -2 24 0 0 1 0 1 0 1 0 1 0 1 0 1 0 1 0 1 0 1 0 1 0 1 0 1 1 1 1 1 1 1 1 1 1 1 1 1 1 1 1 1 1 1 1 1 1 1 1 1 1 0 1 0 1 0 2 0 2 0 2 0 2 0 2 0 0 0zm25 -25l24 0 0 0 0 2 0 2 0 2 0 2 0 2 -1 2 -1 2 -1 2 -1 2 -1 2 -1 2 -1 2 -1 2 -1 2 -1 2 -2 2 -2 2 -2 2 -2 2 -2 2 -2 1 -2 1 -2 1 -2 1 -2 1 -2 1 -3 1 -3 1 -3 0 -3 0 -3 0 -3 0 0 -25 2 0 2 0 2 0 1 0 1 0 1 0 1 0 1 0 1 -1 1 -1 1 -1 1 -1 1 -1 1 -1 1 -1 1 -1 1 -1 1 -1 1 -1 1 -1 1 -1 0 -1 0 -1 0 -1 0 -1 0 -1 0 -1 0 -1 0 -1 0 -1 0 -1 0 -1 0 0zm24 -514l0 514 -24 0 0 -514 0 0 24 0zm215 180l124 0 0 25 -124 0 -12 -13 12 -13zm0 25l-12 0 0 -13 12 13zm12 -205l0 192 -24 0 0 -192 0 0 24 0zm-49 -25l0 -25 0 0 3 0 3 0 3 0 3 0 3 1 3 1 3 1 2 1 2 1 2 1 2 1 2 1 2 2 2 2 2 2 2 2 2 2 1 2 1 2 1 2 1 2 1 2 1 2 1 2 1 2 1 2 0 2 0 2 0 2 0 2 0 2 0 2 -24 0 0 -1 0 -1 0 -1 0 -1 0 -1 0 -1 0 -1 0 -1 0 -1 0 -1 0 -1 -1 -1 -1 -1 -1 -1 -1 -1 -1 -1 -1 -1 -1 -1 -1 -1 -1 -1 -1 -1 -1 -1 -1 -1 -1 -1 -1 0 -1 0 -1 0 -1 0 -2 0 -2 0 -2 0 -2 0 0 0zm-25 25l-24 0 0 0 0 -2 0 -2 0 -2 0 -2 0 -2 0 -2 1 -2 1 -2 1 -2 1 -2 1 -2 1 -2 1 -2 1 -2 1 -2 2 -2 2 -2 2 -2 2 -2 2 -2 2 -1 2 -1 2 -1 2 -1 2 -1 3 -1 3 -1 3 -1 3 0 3 0 3 0 3 0 0 25 -2 0 -2 0 -2 0 -2 0 -1 0 -1 0 -1 0 -1 0 -1 1 -1 1 -1 1 -1 1 -1 1 -1 1 -1 1 -1 1 -1 1 -1 1 -1 1 -1 1 0 1 0 1 0 1 0 1 0 1 0 1 0 1 0 1 0 1 0 1 0 1 0 1 0 0zm-24 506l0 -506 24 0 0 506 0 0 -24 0zm50 25l0 25 0 0 -3 0 -3 0 -3 0 -3 0 -3 -1 -3 -1 -3 -1 -2 -1 -2 -1 -2 -1 -2 -1 -2 -1 -2 -2 -2 -2 -2 -2 -2 -2 -2 -2 -1 -2 -1 -2 -1 -2 -1 -2 -1 -2 -1 -2 -1 -2 -1 -2 -1 -2 0 -2 0 -2 0 -2 0 -2 0 -2 0 -2 24 0 0 1 0 1 0 1 0 1 0 1 0 1 0 1 0 1 0 1 0 1 0 1 1 1 1 1 1 1 1 1 1 1 1 1 1 1 1 1 1 1 1 1 1 1 1 1 1 1 1 0 1 0 1 0 2 0 2 0 2 0 2 0 2 0 0 0zm160 25l-160 0 0 -25 160 0 0 0 0 25zm139 -171l24 0 0 0 0 9 0 9 -1 9 -1 8 -1 8 -2 8 -2 8 -2 8 -3 8 -3 7 -3 7 -4 7 -4 7 -4 7 -5 6 -5 6 -5 6 -6 5 -6 5 -6 5 -7 4 -7 4 -7 4 -8 3 -8 3 -8 3 -8 2 -9 2 -9 1 -9 1 -10 1 -10 0 0 -25 9 0 9 -1 8 -1 8 -1 8 -2 7 -2 7 -2 7 -3 6 -3 6 -3 6 -3 5 -4 5 -4 5 -4 5 -4 4 -5 4 -5 4 -5 4 -5 3 -6 3 -6 3 -6 3 -6 2 -7 2 -7 2 -7 1 -7 1 -7 1 -7 1 -8 0 -8 0 -8 0 0zm24 -37l0 37 -24 0 0 -37 0 0 24 0zm-163 -143l0 -25 0 0 10 0 10 1 9 1 9 1 9 2 9 2 8 2 8 3 8 3 7 4 7 4 7 4 6 5 6 5 6 5 5 6 5 6 5 6 4 6 4 7 4 7 3 7 3 7 3 8 2 8 2 8 2 8 1 8 1 8 1 9 0 9 0 9 -24 0 0 -8 0 -8 -1 -8 -1 -7 -1 -7 -1 -7 -2 -7 -2 -7 -2 -6 -2 -6 -3 -6 -3 -6 -3 -5 -4 -5 -4 -5 -4 -5 -4 -4 -5 -4 -5 -4 -5 -4 -5 -3 -6 -3 -6 -3 -6 -3 -7 -2 -7 -2 -7 -2 -8 -2 -8 -1 -8 -1 -9 -1 -9 0 0 0zm2 277l0 -25 0 0 5 0 4 0 4 0 4 -1 4 -1 4 -1 3 -1 3 -1 3 -1 3 -1 3 -1 2 -1 2 -2 2 -2 2 -2 2 -2 2 -2 2 -2 1 -2 1 -2 1 -2 1 -3 1 -3 1 -3 1 -3 1 -3 1 -3 1 -4 0 -4 0 -4 0 -4 0 -4 24 0 0 5 0 5 0 5 0 5 -1 5 -1 4 -1 4 -1 4 -1 4 -2 4 -2 4 -2 4 -2 4 -2 3 -3 3 -3 3 -3 3 -3 3 -3 3 -3 2 -4 2 -4 2 -4 2 -4 2 -4 1 -4 1 -5 1 -5 1 -5 1 -5 0 -5 0 -5 0 0 0zm-126 -25l126 0 0 25 -126 0 -12 -13 12 -13zm0 25l-12 0 0 -13 12 13zm12 -216l0 204 -24 0 0 -204 12 -13 12 13zm-24 0l0 -13 12 0 -12 13zm136 13l-124 0 0 -25 124 0 0 0 0 25zm89 65l-24 0 0 0 0 -4 0 -4 0 -4 0 -4 -1 -4 -1 -3 -1 -3 -1 -3 -1 -3 -1 -3 -1 -3 -1 -3 -1 -2 -2 -2 -2 -2 -2 -2 -2 -2 -2 -2 -2 -2 -2 -2 -2 -1 -3 -1 -3 -1 -3 -1 -3 -1 -3 -1 -4 -1 -4 -1 -4 -1 -4 0 -4 0 -5 0 0 -25 5 0 5 0 5 0 5 1 5 1 5 1 4 1 4 1 4 2 4 2 4 2 4 2 4 2 3 3 3 3 3 3 3 3 3 3 2 3 2 4 2 4 2 4 2 4 1 4 1 4 1 4 1 4 1 5 1 5 0 5 0 5 0 5 0 0zm-24 49l0 -49 24 0 0 49 0 0 -24 0z"/>
   </g>
   <g>
    <path class="fil3" d="M7781 6353l0 150 -4 0 -4 0 -4 0 -3 -1 -3 -1 -3 -1 -3 -1 -3 -1 -3 -2 -3 -2 -3 -2 -3 -2 -3 -2 -3 -2 -3 -2 -2 -2 -2 -3 -2 -3 -2 -3 -2 -3 -2 -3 -2 -3 -2 -3 -1 -3 -1 -3 -1 -3 -1 -4 -1 -4 -1 -4 0 -4 0 -4 0 -4 0 -4 0 -4 0 -4 1 -4 1 -4 1 -4 1 -3 1 -3 1 -3 2 -3 2 -3 2 -3 2 -3 2 -3 2 -3 2 -3 2 -2 3 -2 3 -2 3 -2 3 -2 3 -2 3 -2 3 -2 3 -1 3 -1 3 -1 3 -1 3 -1 4 0 4 0 4 0zm4354 150l-4354 0 0 -150 4354 0 0 150zm0 0l0 -150 4 0 4 0 4 0 3 1 3 1 3 1 3 1 3 1 3 2 3 2 3 2 3 2 3 2 3 2 3 2 2 2 2 3 2 3 2 3 2 3 2 3 2 3 2 3 1 3 1 3 1 3 1 4 1 4 1 4 0 4 0 4 0 4 0 4 0 4 0 4 -1 4 -1 4 -1 4 -1 3 -1 3 -1 3 -2 3 -2 3 -2 3 -2 3 -2 3 -2 3 -2 3 -2 2 -3 2 -3 2 -3 2 -3 2 -3 2 -3 2 -3 2 -3 1 -3 1 -3 1 -3 1 -3 1 -4 0 -4 0 -4 0z"/>
   </g>
   <path class="fil4 str1" d="M12902 4863l0 8832c-2205,0 -3683,0 -5888,0l0 -8832 5888 0z"/>
   <path class="fil3 str0" d="M7997 9206l0 236c0,10 5,19 19,19 13,0 19,-9 19,-19l0 -254c0,-10 -6,-19 -19,-19l-139 0c-13,0 -19,9 -19,19l0 254c0,10 6,19 19,19 14,0 19,-9 19,-19l0 -236 100 0zm253 251c9,0 18,-5 18,-19 0,-12 -9,-19 -18,-19l-113 0 0 -93 93 0c9,0 18,-5 18,-19 0,-12 -9,-19 -18,-19l-93 0 0 -84 113 0c9,0 18,-5 18,-19 0,-12 -9,-19 -18,-19l-133 0c-13,0 -19,9 -19,19l0 250c0,10 6,19 19,19l133 0zm137 4c14,0 19,-9 19,-19l0 -236 60 0c9,0 18,-5 18,-19 0,-12 -9,-19 -18,-19l-159 0c-9,0 -18,6 -18,19 0,13 9,19 18,19l60 0 0 236c0,10 6,19 19,19zm172 -153l0 -102 64 0c28,0 40,14 40,39l0 21c0,25 -12,43 -40,43l-64 0zm64 37c53,0 79,-35 79,-80l0 -21c0,-46 -26,-76 -79,-76l-84 0c-13,0 -19,9 -19,19l0 254c0,10 6,19 19,19 14,0 19,-9 19,-19l0 -97 64 0zm164 -98c0,-26 11,-45 40,-45l33 0c28,0 40,20 40,45l0 132c0,26 -11,45 -40,45l-33 0c-28,0 -40,-20 -40,-45l0 -132zm151 0c0,-45 -26,-82 -78,-82l-33 0c-52,0 -78,37 -78,82l0 132c0,45 26,82 78,82l33 0c52,0 78,-37 78,-82l0 -132zm97 81l67 0c28,0 40,19 40,44l0 9c0,25 -11,39 -40,39l-67 0 0 -91zm0 -36l0 -86 50 0c28,0 40,10 40,35l0 10c0,25 -12,42 -40,42l-50 0zm146 80c0,-34 -15,-58 -46,-67 18,-11 28,-29 28,-54l0 -10c0,-46 -26,-72 -78,-72l-69 0c-14,0 -20,9 -20,19l0 250c0,10 6,19 20,19l86 0c52,0 78,-30 78,-76l0 -9zm-1184 363l0 236c0,10 5,19 19,19 13,0 19,-9 19,-19l0 -254c0,-10 -6,-19 -19,-19l-139 0c-13,0 -19,9 -19,19l0 254c0,10 6,19 19,19 14,0 19,-9 19,-19l0 -236 100 0zm253 251c9,0 18,-5 18,-19 0,-12 -9,-19 -18,-19l-113 0 0 -93 93 0c9,0 18,-5 18,-19 0,-12 -9,-19 -18,-19l-93 0 0 -84 113 0c9,0 18,-5 18,-19 0,-12 -9,-19 -18,-19l-133 0c-13,0 -19,9 -19,19l0 250c0,10 6,19 19,19l133 0zm-134 -344c0,14 6,24 24,24 18,0 24,-10 24,-24l0 -5c0,-13 -7,-24 -24,-24 -18,0 -24,11 -24,24l0 5zm79 0c0,14 6,24 24,24 18,0 24,-10 24,-24l0 -5c0,-13 -7,-24 -24,-24 -18,0 -24,11 -24,24l0 5zm193 349c14,0 19,-9 19,-19l0 -236 60 0c9,0 18,-5 18,-19 0,-12 -9,-19 -18,-19l-159 0c-9,0 -18,6 -18,19 0,13 9,19 18,19l60 0 0 236c0,10 6,19 19,19zm172 -153l0 -102 64 0c28,0 40,14 40,39l0 21c0,25 -12,43 -40,43l-64 0zm64 37c53,0 79,-35 79,-80l0 -21c0,-46 -26,-76 -79,-76l-84 0c-13,0 -19,9 -19,19l0 254c0,10 6,19 19,19 14,0 19,-9 19,-19l0 -97 64 0zm377 -139l0 236c0,10 5,19 19,19 13,0 19,-9 19,-19l0 -254c0,-10 -6,-19 -19,-19l-139 0c-13,0 -19,9 -19,19l0 254c0,10 6,19 19,19 14,0 19,-9 19,-19l0 -236 100 0zm253 251c9,0 18,-5 18,-19 0,-12 -9,-19 -18,-19l-113 0 0 -93 93 0c9,0 18,-5 18,-19 0,-12 -9,-19 -18,-19l-93 0 0 -84 113 0c9,0 18,-5 18,-19 0,-12 -9,-19 -18,-19l-133 0c-13,0 -19,9 -19,19l0 250c0,10 6,19 19,19l133 0zm137 4c14,0 19,-9 19,-19l0 -236 60 0c9,0 18,-5 18,-19 0,-12 -9,-19 -18,-19l-159 0c-9,0 -18,6 -18,19 0,13 9,19 18,19l60 0 0 236c0,10 6,19 19,19zm172 -153l0 -102 64 0c28,0 40,14 40,39l0 21c0,25 -12,43 -40,43l-64 0zm64 37c53,0 79,-35 79,-80l0 -21c0,-46 -26,-76 -79,-76l-84 0c-13,0 -19,9 -19,19l0 254c0,10 6,19 19,19 14,0 19,-9 19,-19l0 -97 64 0zm164 -98c0,-26 11,-45 40,-45l33 0c28,0 40,20 40,45l0 132c0,26 -11,45 -40,45l-33 0c-28,0 -40,-20 -40,-45l0 -132zm151 0c0,-45 -26,-82 -78,-82l-33 0c-52,0 -78,37 -78,82l0 132c0,45 26,82 78,82l33 0c52,0 78,-37 78,-82l0 -132zm97 81l67 0c28,0 40,19 40,44l0 9c0,25 -11,39 -40,39l-67 0 0 -91zm0 -36l0 -86 50 0c28,0 40,10 40,35l0 10c0,25 -12,42 -40,42l-50 0zm146 80c0,-34 -15,-58 -46,-67 18,-11 28,-29 28,-54l0 -10c0,-46 -26,-72 -78,-72l-69 0c-14,0 -20,9 -20,19l0 250c0,10 6,19 20,19l86 0c52,0 78,-30 78,-76l0 -9zm198 70c0,10 5,19 19,19 14,0 19,-9 19,-19l0 -258c0,-10 -6,-19 -20,-19 -8,0 -13,3 -19,14l-110 196 0 0c1,-7 2,-17 2,-28l0 -163c0,-10 -5,-19 -19,-19 -14,0 -19,9 -19,19l0 258c0,10 6,19 20,19 8,0 13,-3 19,-14l110 -196 0 0c-1,7 -2,17 -2,28l0 163zm176 -107l52 0 0 107c0,10 5,19 19,19 13,0 19,-9 19,-19l0 -258c0,-10 -6,-19 -19,-19 -14,0 -19,9 -19,19l0 114c0,0 -42,0 -58,0 -24,0 -37,-16 -37,-35 0,-17 0,-79 0,-79 0,-10 -5,-19 -19,-19 -13,0 -19,9 -19,19l0 74c0,44 20,77 82,77z"/>
   <path class="fil3 str0" d="M7932 11099c-28,0 -40,-20 -40,-45l0 -132c0,-26 11,-45 40,-45l42 0c18,0 27,7 29,24 1,10 6,19 19,19 14,0 20,-9 20,-19 0,-43 -26,-61 -67,-61l-42 0c-52,0 -78,37 -78,82l0 132c0,45 26,82 78,82l42 0c42,0 67,-19 67,-61 0,-10 -6,-19 -20,-19 -13,0 -18,9 -19,19 -2,17 -11,24 -29,24l-42 0zm306 18c0,10 5,19 19,19 14,0 19,-9 19,-19l0 -258c0,-10 -6,-19 -20,-19 -8,0 -13,3 -19,14l-110 196 0 0c1,-7 2,-17 2,-28l0 -163c0,-10 -5,-19 -19,-19 -14,0 -19,9 -19,19l0 258c0,10 6,19 20,19 8,0 13,-3 19,-14l110 -196 0 0c-1,7 -2,17 -2,28l0 163zm288 -22l-8 0 0 -232c0,-10 -6,-19 -19,-19l-99 0c-13,0 -19,9 -21,19l-37 232 -13 0c-13,0 -19,9 -19,19l0 53c0,10 6,19 19,19 14,0 20,-9 20,-19l0 -35 157 0 0 35c0,10 6,19 20,19 13,0 19,-9 19,-19l0 -53c0,-10 -6,-19 -19,-19zm-141 -28l29 -186 66 0 0 214 -100 0c3,-10 5,-19 6,-28zm237 -144c0,-26 11,-45 40,-45l33 0c28,0 40,20 40,45l0 132c0,26 -11,45 -40,45l-33 0c-28,0 -40,-20 -40,-45l0 -132zm151 0c0,-45 -26,-82 -78,-82l-33 0c-52,0 -78,37 -78,82l0 132c0,45 26,82 78,82l33 0c52,0 78,-37 78,-82l0 -132zm97 61l0 -102 64 0c28,0 40,14 40,39l0 21c0,25 -12,43 -40,43l-64 0zm64 37c53,0 79,-35 79,-80l0 -21c0,-46 -26,-76 -79,-76l-84 0c-13,0 -19,9 -19,19l0 254c0,10 6,19 19,19 14,0 19,-9 19,-19l0 -97 64 0zm164 -98c0,-26 11,-45 40,-45l33 0c28,0 40,20 40,45l0 132c0,26 -11,45 -40,45l-33 0c-28,0 -40,-20 -40,-45l0 -132zm151 0c0,-45 -26,-82 -78,-82l-33 0c-52,0 -78,37 -78,82l0 132c0,45 26,82 78,82l33 0c52,0 78,-37 78,-82l0 -132zm97 81l67 0c28,0 40,19 40,44l0 9c0,25 -11,39 -40,39l-67 0 0 -91zm0 -36l0 -86 50 0c28,0 40,10 40,35l0 10c0,25 -12,42 -40,42l-50 0zm146 80c0,-34 -15,-58 -46,-67 18,-11 28,-29 28,-54l0 -10c0,-46 -26,-72 -78,-72l-69 0c-14,0 -20,9 -20,19l0 250c0,10 6,19 20,19l86 0c52,0 78,-30 78,-76l0 -9zm-1560 581c-28,0 -40,-20 -40,-45l0 -132c0,-26 11,-45 40,-45l42 0c18,0 27,7 29,24 1,10 6,19 19,19 14,0 20,-9 20,-19 0,-43 -26,-61 -67,-61l-42 0c-52,0 -78,37 -78,82l0 132c0,45 26,82 78,82l42 0c42,0 67,-19 67,-61 0,-10 -6,-19 -20,-19 -13,0 -18,9 -19,19 -2,17 -11,24 -29,24l-42 0zm309 33c9,0 18,-5 18,-19 0,-12 -9,-19 -18,-19l-113 0 0 -93 93 0c9,0 18,-5 18,-19 0,-12 -9,-19 -18,-19l-93 0 0 -84 113 0c9,0 18,-5 18,-19 0,-12 -9,-19 -18,-19l-132 0c-13,0 -19,9 -19,19l0 250c0,10 6,19 19,19l132 0zm177 -128c-2,-8 -6,-16 -10,-23l-64 -126c-6,-12 -11,-14 -19,-14 -14,0 -19,9 -19,19l0 258c0,10 5,19 19,19 14,0 19,-9 19,-19l0 -159c0,-11 -1,-21 -2,-28l0 0 59 115c3,6 7,10 17,10 10,0 14,-4 17,-10l59 -115 0 0c-1,7 -2,17 -2,28l0 159c0,10 5,19 19,19 14,0 19,-9 19,-19l0 -258c0,-10 -5,-19 -19,-19 -9,0 -14,2 -19,14l-64 126c-4,8 -7,16 -10,23zm326 128c9,0 18,-5 18,-19 0,-12 -9,-19 -18,-19l-113 0 0 -93 93 0c9,0 18,-5 18,-19 0,-12 -9,-19 -18,-19l-93 0 0 -84 113 0c9,0 18,-5 18,-19 0,-12 -9,-19 -18,-19l-133 0c-13,0 -19,9 -19,19l0 250c0,10 6,19 19,19l133 0zm-134 -344c0,14 6,24 24,24 18,0 24,-10 24,-24l0 -5c0,-13 -7,-24 -24,-24 -18,0 -24,11 -24,24l0 5zm79 0c0,14 6,24 24,24 18,0 24,-10 24,-24l0 -5c0,-13 -7,-24 -24,-24 -18,0 -24,11 -24,24l0 5zm305 71c0,-10 -6,-19 -19,-19 -14,0 -19,9 -19,19l0 102 -108 0 0 -102c0,-10 -5,-19 -19,-19 -13,0 -19,9 -19,19l0 258c0,10 6,19 19,19 14,0 19,-9 19,-19l0 -119 108 0 0 119c0,10 5,19 19,19 13,0 19,-9 19,-19l0 -258zm247 240c-28,0 -40,-20 -40,-45l0 -132c0,-26 11,-45 40,-45l42 0c18,0 27,7 29,24 1,10 6,19 19,19 14,0 20,-9 20,-19 0,-43 -26,-61 -67,-61l-42 0c-52,0 -78,37 -78,82l0 132c0,45 26,82 78,82l42 0c42,0 67,-19 67,-61 0,-10 -6,-19 -20,-19 -13,0 -18,9 -19,19 -2,17 -11,24 -29,24l-42 0zm309 33c9,0 18,-5 18,-19 0,-12 -9,-19 -18,-19l-113 0 0 -93 93 0c9,0 18,-5 18,-19 0,-12 -9,-19 -18,-19l-93 0 0 -84 113 0c9,0 18,-5 18,-19 0,-12 -9,-19 -18,-19l-133 0c-13,0 -19,9 -19,19l0 250c0,10 6,19 19,19l133 0zm177 -128c-2,-8 -6,-16 -10,-23l-64 -126c-6,-12 -11,-14 -19,-14 -14,0 -19,9 -19,19l0 258c0,10 5,19 19,19 14,0 19,-9 19,-19l0 -159c0,-11 -1,-21 -2,-28l0 0 59 115c3,6 7,10 17,10 10,0 14,-4 17,-10l59 -115 0 0c-1,7 -2,17 -2,28l0 159c0,10 5,19 19,19 14,0 19,-9 19,-19l0 -258c0,-10 -5,-19 -19,-19 -9,0 -14,2 -19,14l-64 126c-4,8 -7,16 -10,23zm326 128c9,0 18,-5 18,-19 0,-12 -9,-19 -18,-19l-113 0 0 -93 93 0c9,0 18,-5 18,-19 0,-12 -9,-19 -18,-19l-93 0 0 -84 113 0c9,0 18,-5 18,-19 0,-12 -9,-19 -18,-19l-133 0c-13,0 -19,9 -19,19l0 250c0,10 6,19 19,19l133 0zm-134 -344c0,14 6,24 24,24 18,0 24,-10 24,-24l0 -5c0,-13 -7,-24 -24,-24 -18,0 -24,11 -24,24l0 5zm79 0c0,14 6,24 24,24 18,0 24,-10 24,-24l0 -5c0,-13 -7,-24 -24,-24 -18,0 -24,11 -24,24l0 5zm305 71c0,-10 -6,-19 -19,-19 -14,0 -19,9 -19,19l0 102 -108 0 0 -102c0,-10 -5,-19 -19,-19 -13,0 -19,9 -19,19l0 258c0,10 6,19 19,19 14,0 19,-9 19,-19l0 -119 108 0 0 119c0,10 5,19 19,19 13,0 19,-9 19,-19l0 -258zm97 63c0,-26 11,-45 40,-45l33 0c28,0 40,20 40,45l0 132c0,26 -11,45 -40,45l-33 0c-28,0 -40,-20 -40,-45l0 -132zm151 0c0,-45 -26,-82 -78,-82l-33 0c-52,0 -78,37 -78,82l0 132c0,45 26,82 78,82l33 0c52,0 78,-37 78,-82l0 -132zm97 81l67 0c28,0 40,19 40,44l0 9c0,25 -11,39 -40,39l-67 0 0 -91zm0 -36l0 -86 50 0c28,0 40,10 40,35l0 10c0,25 -12,42 -40,42l-50 0zm146 80c0,-34 -15,-58 -46,-67 18,-11 28,-29 28,-54l0 -10c0,-46 -26,-72 -78,-72l-69 0c-14,0 -20,9 -20,19l0 250c0,10 6,19 20,19l86 0c52,0 78,-30 78,-76l0 -9zm198 70c0,10 5,19 19,19 14,0 19,-9 19,-19l0 -258c0,-10 -6,-19 -20,-19 -8,0 -13,3 -19,14l-110 196 0 0c1,-7 2,-17 2,-28l0 -163c0,-10 -5,-19 -19,-19 -14,0 -19,9 -19,19l0 258c0,10 6,19 20,19 8,0 13,-3 19,-14l110 -196 0 0c-1,7 -2,17 -2,28l0 163zm176 -107l52 0 0 107c0,10 5,19 19,19 13,0 19,-9 19,-19l0 -258c0,-10 -6,-19 -19,-19 -14,0 -19,9 -19,19l0 114c0,0 -42,0 -58,0 -24,0 -37,-16 -37,-35 0,-17 0,-79 0,-79 0,-10 -5,-19 -19,-19 -13,0 -19,9 -19,19l0 74c0,44 20,77 82,77z"/>
   <polygon class="fil4 str2" points="12198,11104 11616,11104 11616,11661 12198,11661 "/>
   <polygon class="fil4 str2" points="12198,9429 11616,9429 11616,9986 12198,9986 "/>
   <polygon class="fil4 str2" points="12198,7754 11616,7754 11616,8311 12198,8311 "/>
   <g>
    <path class="fil5" d="M11404 9526l7 79 -3 1 -3 1 -3 1 -3 1 -3 1 -3 1 -2 1 -2 0 -2 0 -2 0 -2 0 -2 0 -2 0 -2 0 -2 0 -2 0 -2 -1 -2 -1 -2 -1 -2 -1 -2 -1 -1 -1 -1 -1 -1 -1 -1 -1 -1 -1 -1 -2 -1 -2 -1 -2 -1 -2 0 -2 0 -2 0 -2 0 -2 0 -2 0 -2 0 -2 1 -2 1 -2 1 -2 1 -2 1 -2 1 -2 1 -2 1 -2 1 -2 2 -2 2 -2 2 -2 2 -2 2 -2 2 -2 2 -2 2 -2 2 -2 2 -2 2 -2 2 -2 2 -2 2 -2 3 -2 3 -1 3 -1 3 -1zm492 202l-97 71 0 0 -11 -17 -11 -16 -10 -16 -10 -16 -10 -15 -10 -15 -10 -14 -10 -14 -10 -13 -10 -12 -10 -12 -10 -11 -10 -10 -10 -9 -10 -8 -10 -8 -10 -7 -11 -6 -11 -5 -11 -4 -12 -3 -12 -2 -12 -1 -13 0 -14 1 -14 2 -15 3 -16 4 -17 5 -19 6 -20 8 -21 9 -7 -79 27 -12 26 -10 25 -9 24 -7 23 -6 22 -4 22 -3 21 -1 20 0 19 2 18 3 17 4 16 5 15 7 14 8 13 8 13 9 12 10 12 11 11 11 11 12 11 13 10 13 10 14 10 14 10 15 10 15 10 15 10 16 10 16 10 16 11 16 0 0zm-97 71l97 -71 1 2 1 2 1 2 1 2 0 2 0 2 0 2 0 2 0 2 0 2 0 2 0 2 -1 2 -1 2 -1 2 -1 2 -1 2 -1 2 -1 2 -1 2 -1 2 -2 2 -2 2 -2 2 -2 2 -2 2 -2 2 -2 2 -2 2 -2 2 -2 2 -2 2 -3 2 -3 2 -3 2 -3 1 -3 1 -3 1 -3 1 -3 1 -3 1 -3 1 -3 1 -2 1 -2 1 -2 0 -2 0 -2 0 -2 0 -2 0 -2 0 -2 0 -2 0 -2 0 -2 -1 -2 -1 -2 -1 -2 -1 -2 -1 -2 -1 -1 -1 -1 -1 -1 -1 -1 -2zm77 -18l-102 61 0 0 -1 -5 -1 -5 -1 -5 0 -5 0 -6 1 -6 2 -6 2 -6 3 -6 3 -6 3 -5 3 -5 4 -5 3 -4 3 -4 3 -3 3 -3 2 -2 2 -2 2 -2 1 -1 0 0 0 0 -1 1 -2 2 -3 3 -3 5 -4 7 -3 8 -1 9 1 7 2 5 97 -71 3 7 1 9 -1 10 -4 10 -5 8 -5 7 -4 5 -4 4 -3 3 -2 2 -2 2 -1 1 -1 1 -1 1 0 0 0 0 0 0 1 -1 1 -1 1 -1 1 -2 1 -2 1 -2 1 -2 1 -2 1 -2 0 -1 0 -1 0 -1 0 0 0 0 0 0 0 0zm-102 61l102 -61 1 2 0 2 0 2 0 2 0 2 0 2 0 2 0 2 0 2 -1 2 -1 2 -1 2 -1 2 -1 2 -1 2 -1 2 -1 2 -1 2 -2 2 -2 2 -2 2 -2 2 -2 2 -2 2 -2 2 -2 2 -2 2 -2 2 -2 2 -2 2 -3 2 -3 2 -3 2 -3 1 -3 1 -3 1 -3 1 -3 1 -3 1 -3 1 -3 1 -2 1 -2 0 -2 0 -2 0 -2 0 -2 0 -2 0 -2 0 -2 0 -2 0 -2 -1 -2 -1 -2 -1 -2 -1 -2 -1 -1 -1 -1 -1 -1 -1 -1 -1 -1 -1 -1 -2 -1 -2 -1 -2zm108 -59l-14 87 0 0 -5 1 -4 1 -4 1 -4 1 -4 0 -4 0 -4 0 -3 0 -3 0 -3 0 -3 0 -3 0 -3 -1 -3 -1 -3 -1 -3 -1 -3 -1 -3 -1 -3 -1 -3 -1 -3 -1 -3 -1 -2 -2 -2 -2 -2 -2 -2 -2 -2 -2 -2 -2 -2 -3 -2 -3 -1 -3 -1 -3 102 -61 0 -1 0 0 0 0 0 0 0 0 0 0 0 0 0 0 0 0 0 0 0 0 0 0 1 0 0 0 1 0 1 0 1 0 1 0 1 0 1 0 0 0 1 0 0 0 0 0 0 0 0 0 0 0 0 0 0 0 -1 0 -1 0 -1 0 0 0zm-14 87l14 -87 3 -1 3 -1 3 0 2 0 2 0 2 0 2 0 2 0 2 0 2 0 2 0 2 1 2 1 2 1 2 1 2 1 1 1 1 1 1 1 1 1 1 1 1 1 1 2 1 2 1 2 0 2 0 2 0 2 0 2 0 2 0 2 0 2 0 2 -1 2 -1 2 -1 2 -1 2 -1 2 -1 2 -1 2 -1 2 -1 2 -2 2 -2 2 -2 2 -2 2 -2 2 -2 2 -2 2 -2 2 -2 2 -2 2 -2 2 -2 2 -2 2 -2 2 -2 1 -3 1 -3 1 -3 1 -3 1 -3 1 -3 1 -3 1zm-17 -53l105 -47 0 0 0 3 0 3 0 3 -1 3 -1 3 -1 3 -1 4 -1 4 -1 3 -2 4 -2 4 -2 4 -2 4 -2 4 -3 3 -3 4 -3 4 -3 3 -3 3 -4 4 -4 3 -4 3 -4 3 -4 3 -4 3 -4 3 -4 2 -5 2 -5 2 -5 2 -4 2 -4 1 14 -87 -1 0 -1 0 -2 1 -2 1 -2 1 -2 1 -2 1 -2 1 -1 1 -2 1 -2 1 -2 1 -2 1 -1 1 -1 1 -1 2 -1 1 -1 1 -1 1 -1 1 -1 1 -1 1 -1 1 0 1 0 1 0 1 0 1 0 1 0 1 0 1 0 1 0 1 0 0zm105 -47l-105 47 0 -2 0 -2 0 -2 0 -2 0 -2 1 -2 1 -2 1 -2 1 -2 1 -2 1 -2 1 -2 1 -2 1 -2 2 -2 2 -2 2 -2 2 -2 2 -2 2 -2 2 -2 2 -2 2 -2 2 -2 2 -2 2 -2 2 -2 3 -2 3 -2 3 -1 3 -1 3 -1 3 -1 3 -1 3 -1 3 -1 3 -1 3 -1 2 0 2 0 2 0 2 0 2 0 2 0 2 0 2 0 2 0 2 1 2 1 2 1 2 1 2 1 1 1 1 1 1 1 1 1 1 1 1 2 1 2 1 2 1 2 0 2 0 2 0 2zm-135 1l103 -25 0 0 -4 -24 -3 -3 -1 -1 0 0 0 0 1 0 1 1 1 1 1 1 1 1 1 1 2 1 2 1 2 1 2 1 2 1 2 1 2 2 2 2 2 2 2 2 2 2 2 2 2 2 2 2 2 3 2 3 1 3 1 3 1 4 1 4 1 4 -105 47 0 1 0 1 0 0 0 0 0 0 0 0 0 -1 -1 -1 -1 -1 -1 -1 -1 -1 -1 -1 -1 -1 -1 -1 -1 -1 -1 -1 -1 -1 -1 -1 -1 -1 -1 -1 -1 -1 -1 -1 -1 -1 -1 -1 -1 -1 -1 -1 -1 -1 -1 -1 -1 -1 -1 -1 -3 -3 -4 -24 0 0zm103 -25l-103 25 1 -2 1 -2 1 -2 1 -2 1 -2 1 -2 1 -2 1 -2 1 -2 2 -2 2 -2 2 -2 2 -2 2 -2 2 -2 2 -2 2 -2 2 -2 2 -2 2 -2 2 -2 2 -2 2 -2 2 -1 3 -1 3 -1 3 -1 3 -1 3 -1 3 -1 3 -1 3 -1 3 -1 3 0 3 0 2 0 2 0 2 0 2 0 2 0 2 0 2 0 2 1 2 1 2 1 2 1 2 1 1 1 1 1 1 1 1 1 1 1 1 1 1 2 1 2 1 2 0 2 0 2 0 2 0 2 0 2 0 2 0 2 0 2zm305 -1797l34 64 -28 21 -26 25 -25 29 -24 34 -22 38 -21 42 -19 45 -17 49 -15 52 -13 54 -12 56 -10 58 -9 60 -8 62 -6 63 -5 64 -5 65 -4 65 -3 66 -3 66 -3 66 -3 65 -3 65 -3 64 -3 63 -4 62 -5 60 -6 59 -7 57 -8 55 -9 53 -11 51 -103 25 10 -47 9 -50 8 -53 6 -55 5 -57 5 -59 4 -61 3 -62 3 -64 3 -65 3 -65 3 -66 3 -66 3 -66 4 -66 5 -66 6 -65 7 -64 8 -63 9 -62 11 -61 12 -59 14 -58 16 -56 19 -54 22 -52 25 -50 28 -48 32 -45 36 -42 41 -39 46 -35zm34 64l-34 -64 3 -2 3 -2 3 -1 3 -1 3 -1 3 -1 3 -1 3 -1 3 -1 3 -1 2 -1 2 -1 2 0 2 0 2 0 2 0 2 0 2 0 2 0 2 0 2 0 2 1 2 1 2 1 2 1 2 1 1 1 1 1 1 1 1 1 1 1 1 2 1 2 1 2 1 2 0 2 0 2 0 2 0 2 0 2 0 2 0 2 0 2 -1 2 -1 2 -1 2 -1 2 -1 2 -1 2 -1 2 -1 2 -1 2 -2 2 -2 2 -2 2 -2 2 -2 2 -2 2 -2 2 -2 2 -2 2 -2 2 -2 2 -3 2z"/>
   </g>
  </g>
 </g>
</svg>
