<?xml version="1.0" encoding="UTF-8"?>
<!DOCTYPE svg PUBLIC "-//W3C//DTD SVG 1.1//EN" "http://www.w3.org/Graphics/SVG/1.1/DTD/svg11.dtd">
<!-- Creator: CorelDRAW X6 -->
<svg xmlns="http://www.w3.org/2000/svg" xml:space="preserve" width="200mm" height="200mm" version="1.1" style="shape-rendering:geometricPrecision; text-rendering:geometricPrecision; image-rendering:optimizeQuality; fill-rule:evenodd; clip-rule:evenodd"
viewBox="0 0 20000 20000"
 xmlns:xlink="http://www.w3.org/1999/xlink">
 <defs>
  <style type="text/css">
   <![CDATA[
    .str0 {stroke:#4D897C;stroke-width:12.73}
    .str4 {stroke:#CC7588;stroke-width:14.52}
    .str3 {stroke:#4D897C;stroke-width:60;stroke-linecap:round;stroke-linejoin:round}
    .str2 {stroke:#477FC0;stroke-width:120;stroke-linecap:round;stroke-linejoin:round}
    .str1 {stroke:#024541;stroke-width:159.99;stroke-linecap:round;stroke-linejoin:round}
    .str5 {stroke:#008DD2;stroke-width:71.33;stroke-linecap:round;stroke-linejoin:round}
    .fil4 {fill:none;fill-rule:nonzero}
    .fil2 {fill:#CDDBAC}
    .fil1 {fill:#EBF2D9}
    .fil3 {fill:#4D897C;fill-rule:nonzero}
    .fil6 {fill:#CC7588;fill-rule:nonzero}
    .fil5 {fill:#E51A4B;fill-rule:nonzero}
    .fil0 {fill:url(#id0)}
   ]]>
  </style>
  <radialGradient id="id0" gradientUnits="userSpaceOnUse" cx="10000" cy="10000" r="10000" fx="10000" fy="10000">
   <stop offset="0" style="stop-color:#FEFEFE"/>
   <stop offset="0.439216" style="stop-color:#FEFEFE"/>
   <stop offset="1" style="stop-color:#D1E2F2"/>
  </radialGradient>
 </defs>
 <g id="Layer_x0020_1">
  <metadata id="CorelCorpID_0Corel-Layer"/>
  <g id="_836752720">
   <polygon class="fil0" points="0,0 20000,0 20000,20000 0,20000 "/>
   <path class="fil1" d="M12902 4026l0 8832c-2205,0 -3683,0 -5888,0l0 -8832 5888 0z"/>
   <path class="fil2" d="M7014 4026l5888 0 0 3361 -5888 -2798c10,-289 0,-370 0,-563z"/>
   <path class="fil3 str0" d="M8006 6930c0,10 5,19 19,19 14,0 19,-9 19,-19l0 -258c0,-10 -6,-19 -20,-19 -8,0 -13,3 -19,14l-110 196 0 0c1,-7 2,-17 2,-28l0 -163c0,-10 -5,-19 -19,-19 -14,0 -19,9 -19,19l0 258c0,10 6,19 20,19 8,0 13,-3 19,-14l110 -196 0 0c-1,7 -2,17 -2,28l0 163zm139 -114l67 0c28,0 40,19 40,44l0 9c0,25 -11,39 -40,39l-67 0 0 -91zm0 -36l0 -86 50 0c28,0 40,10 40,35l0 10c0,25 -12,42 -40,42l-50 0zm146 80c0,-34 -15,-58 -46,-67 18,-11 28,-29 28,-54l0 -10c0,-46 -26,-72 -78,-72l-69 0c-14,0 -20,9 -20,19l0 250c0,10 6,19 20,19l86 0c52,0 78,-30 78,-76l0 -9zm173 4l23 72c3,10 13,16 24,12 11,-4 15,-14 12,-23l-83 -258c-3,-9 -8,-14 -19,-14l-2 0c-12,0 -16,5 -19,14l-83 258c-3,10 1,20 12,23 11,4 21,-2 24,-12l23 -72 89 0zm-51 -124c3,-9 4,-14 6,-23l0 0c2,10 3,14 6,23l28 90 -69 0 28 -90zm333 -68c0,-10 -6,-19 -19,-19 -14,0 -19,9 -19,19l0 102 -108 0 0 -102c0,-10 -5,-19 -19,-19 -13,0 -19,9 -19,19l0 258c0,10 6,19 19,19 14,0 19,-9 19,-19l0 -119 108 0 0 119c0,10 5,19 19,19 13,0 19,-9 19,-19l0 -258zm97 63c0,-26 11,-45 40,-45l33 0c28,0 40,20 40,45l0 132c0,26 -11,45 -40,45l-33 0c-28,0 -40,-20 -40,-45l0 -132zm151 0c0,-45 -26,-82 -78,-82l-33 0c-52,0 -78,37 -78,82l0 132c0,45 26,82 78,82l33 0c52,0 78,-37 78,-82l0 -132zm97 81l67 0c28,0 40,19 40,44l0 9c0,25 -11,39 -40,39l-67 0 0 -91zm0 -36l0 -86 50 0c28,0 40,10 40,35l0 10c0,25 -12,42 -40,42l-50 0zm146 80c0,-34 -15,-58 -46,-67 18,-11 28,-29 28,-54l0 -10c0,-46 -26,-72 -78,-72l-69 0c-14,0 -20,9 -20,19l0 250c0,10 6,19 20,19l86 0c52,0 78,-30 78,-76l0 -9z"/>
   <path class="fil3 str0" d="M8006 7460c0,10 5,19 19,19 14,0 19,-9 19,-19l0 -258c0,-10 -6,-19 -20,-19 -8,0 -13,3 -19,14l-110 196 0 0c1,-7 2,-17 2,-28l0 -163c0,-10 -5,-19 -19,-19 -14,0 -19,9 -19,19l0 258c0,10 6,19 20,19 8,0 13,-3 19,-14l110 -196 0 0c-1,7 -2,17 -2,28l0 163zm139 -114l67 0c28,0 40,19 40,44l0 9c0,25 -11,39 -40,39l-67 0 0 -91zm0 -36l0 -86 50 0c28,0 40,10 40,35l0 10c0,25 -12,42 -40,42l-50 0zm146 80c0,-34 -15,-58 -46,-67 18,-11 28,-29 28,-54l0 -10c0,-46 -26,-72 -78,-72l-69 0c-14,0 -20,9 -20,19l0 250c0,10 6,19 20,19l86 0c52,0 78,-30 78,-76l0 -9zm173 4l23 72c3,10 13,16 24,12 11,-4 15,-14 12,-23l-83 -258c-3,-9 -8,-14 -19,-14l-2 0c-12,0 -16,5 -19,14l-83 258c-3,10 1,20 12,23 11,4 21,-2 24,-12l23 -72 89 0zm-51 -124c3,-9 4,-14 6,-23l0 0c2,10 3,14 6,23l28 90 -69 0 28 -90zm333 -68c0,-10 -6,-19 -19,-19 -14,0 -19,9 -19,19l0 102 -108 0 0 -102c0,-10 -5,-19 -19,-19 -13,0 -19,9 -19,19l0 258c0,10 6,19 19,19 14,0 19,-9 19,-19l0 -119 108 0 0 119c0,10 5,19 19,19 13,0 19,-9 19,-19l0 -258zm321 258c0,10 5,19 19,19 14,0 19,-9 19,-19l0 -258c0,-10 -6,-19 -20,-19 -8,0 -13,3 -19,14l-110 196 0 0c1,-7 2,-17 2,-28l0 -163c0,-10 -5,-19 -19,-19 -14,0 -19,9 -19,19l0 258c0,10 6,19 20,19 8,0 13,-3 19,-14l110 -196 0 0c-1,7 -2,17 -2,28l0 163zm139 -114l67 0c28,0 40,19 40,44l0 9c0,25 -11,39 -40,39l-67 0 0 -91zm0 -36l0 -86 50 0c28,0 40,10 40,35l0 10c0,25 -12,42 -40,42l-50 0zm146 80c0,-34 -15,-58 -46,-67 18,-11 28,-29 28,-54l0 -10c0,-46 -26,-72 -78,-72l-69 0c-14,0 -20,9 -20,19l0 250c0,10 6,19 20,19l86 0c52,0 78,-30 78,-76l0 -9zm173 4l23 72c3,10 13,16 24,12 11,-4 15,-14 12,-23l-83 -258c-3,-9 -8,-14 -19,-14l-2 0c-12,0 -16,5 -19,14l-83 258c-3,10 1,20 12,23 11,4 21,-2 24,-12l23 -72 89 0zm-51 -124c3,-9 4,-14 6,-23l0 0c2,10 3,14 6,23l28 90 -69 0 28 -90zm333 -68c0,-10 -6,-19 -19,-19 -14,0 -19,9 -19,19l0 102 -108 0 0 -102c0,-10 -5,-19 -19,-19 -13,0 -19,9 -19,19l0 258c0,10 6,19 19,19 14,0 19,-9 19,-19l0 -119 108 0 0 119c0,10 5,19 19,19 13,0 19,-9 19,-19l0 -258zm97 63c0,-26 11,-45 40,-45l33 0c28,0 40,20 40,45l0 132c0,26 -11,45 -40,45l-33 0c-28,0 -40,-20 -40,-45l0 -132zm151 0c0,-45 -26,-82 -78,-82l-33 0c-52,0 -78,37 -78,82l0 132c0,45 26,82 78,82l33 0c52,0 78,-37 78,-82l0 -132zm97 81l67 0c28,0 40,19 40,44l0 9c0,25 -11,39 -40,39l-67 0 0 -91zm0 -36l0 -86 50 0c28,0 40,10 40,35l0 10c0,25 -12,42 -40,42l-50 0zm146 80c0,-34 -15,-58 -46,-67 18,-11 28,-29 28,-54l0 -10c0,-46 -26,-72 -78,-72l-69 0c-14,0 -20,9 -20,19l0 250c0,10 6,19 20,19l86 0c52,0 78,-30 78,-76l0 -9zm198 70c0,10 5,19 19,19 14,0 19,-9 19,-19l0 -258c0,-10 -6,-19 -20,-19 -8,0 -13,3 -19,14l-110 196 0 0c1,-7 2,-17 2,-28l0 -163c0,-10 -5,-19 -19,-19 -14,0 -19,9 -19,19l0 258c0,10 6,19 20,19 8,0 13,-3 19,-14l110 -196 0 0c-1,7 -2,17 -2,28l0 163zm176 -107l52 0 0 107c0,10 5,19 19,19 13,0 19,-9 19,-19l0 -258c0,-10 -6,-19 -19,-19 -14,0 -19,9 -19,19l0 114c0,0 -42,0 -58,0 -24,0 -37,-16 -37,-35 0,-17 0,-79 0,-79 0,-10 -5,-19 -19,-19 -13,0 -19,9 -19,19l0 74c0,44 20,77 82,77z"/>
   <g>
    <path class="fil3" d="M7996 5002l-114 0 0 -153 201 0c18,0 35,-11 35,-37 0,-25 -17,-37 -35,-37l-237 0c-27,0 -38,18 -38,38l0 498c0,20 11,38 38,38l150 0c102,0 151,-69 151,-159l0 -37c0,-92 -50,-151 -151,-151zm77 196c0,49 -21,77 -76,77l-116 0 0 -204 114 0c54,0 77,29 77,78l0 49zm496 -431c-105,0 -152,92 -152,183l0 59 -72 0 0 -204c0,-20 -8,-38 -35,-38 -25,0 -35,18 -35,38l0 514c0,20 10,38 35,38 26,0 35,-18 35,-38l0 -237 72 0 0 109c0,90 46,165 146,165l42 0c100,0 150,-74 150,-164l0 -262c0,-90 -50,-164 -150,-164l-35 0zm111 426c0,51 -21,90 -76,90l-38 0c-54,0 -76,-39 -76,-90l0 -237c0,-51 20,-115 78,-115l35 0c54,0 76,40 76,86l0 266zm314 52c6,-47 46,-396 46,-396l138 0 0 470c0,20 11,38 38,38 25,0 36,-18 36,-38l0 -506c0,-20 -11,-38 -36,-38l-205 0c-23,0 -35,16 -38,38 -2,24 -45,381 -49,413 -2,19 -5,31 -9,39 -8,16 -21,20 -44,20 -19,0 -36,12 -36,38 0,28 17,37 36,37 68,0 97,-23 113,-64 6,-16 9,-30 11,-52zm522 0c6,-47 46,-396 46,-396l138 0 0 470c0,20 11,38 38,38 25,0 36,-18 36,-38l0 -506c0,-20 -11,-38 -36,-38l-205 0c-23,0 -35,16 -38,38 -2,24 -45,381 -49,413 -2,19 -5,31 -9,39 -8,16 -21,20 -44,20 -19,0 -36,12 -36,38 0,28 17,37 36,37 68,0 97,-23 113,-64 6,-16 9,-30 11,-52zm701 103c18,0 35,-11 35,-37 0,-25 -17,-37 -35,-37l-216 0 0 -184 178 0c18,0 35,-11 35,-37 0,-25 -17,-37 -35,-37l-178 0 0 -168 216 0c18,0 35,-11 35,-37 0,-25 -17,-37 -35,-37l-253 0c-25,0 -36,18 -36,38l0 498c0,20 11,38 36,38l253 0zm297 8c26,0 37,-18 37,-38l0 -470 115 0c18,0 35,-11 35,-37 0,-25 -17,-37 -35,-37l-304 0c-18,0 -35,12 -35,37 0,26 17,37 35,37l115 0 0 470c0,20 11,38 37,38zm579 -8c18,0 35,-11 35,-37 0,-25 -17,-37 -35,-37l-216 0 0 -184 178 0c18,0 35,-11 35,-37 0,-25 -17,-37 -35,-37l-178 0 0 -168 216 0c18,0 35,-11 35,-37 0,-25 -17,-37 -35,-37l-253 0c-25,0 -36,18 -36,38l0 498c0,20 11,38 36,38l253 0zm512 -544c0,-20 -12,-38 -37,-38 -26,0 -37,18 -37,38l0 204 -207 0 0 -204c0,-20 -10,-38 -37,-38 -25,0 -37,18 -37,38l0 514c0,20 12,38 37,38 26,0 37,-18 37,-38l0 -237 207 0 0 237c0,20 10,38 37,38 25,0 37,-18 37,-38l0 -514zm352 192l-124 0 0 -192c0,-20 -11,-38 -37,-38 -26,0 -37,18 -37,38l0 506c0,20 11,38 38,38l160 0c102,0 151,-69 151,-159l0 -37c0,-92 -47,-156 -151,-156zm77 201c0,49 -21,77 -76,77l-126 0 0 -204 124 0c54,0 77,29 77,78l0 49z"/>
    <path id="1" class="fil3" d="M7882 4989l114 0 0 25 -114 0 -12 -13 12 -13zm0 25l-12 0 0 -13 12 13zm12 -166l0 153 -24 0 0 -153 12 -13 12 13zm-24 0l0 -13 12 0 -12 13zm213 13l-201 0 0 -25 201 0 0 0 0 25zm22 -50l24 0 0 0 0 3 0 3 0 3 0 3 -1 3 -1 3 -1 3 -1 2 -1 2 -1 2 -1 2 -1 2 -1 2 -2 2 -2 2 -2 2 -2 2 -2 1 -2 1 -2 1 -2 1 -2 1 -2 1 -2 1 -2 1 -2 1 -2 0 -2 0 -2 0 -2 0 -2 0 -2 0 0 -25 1 0 1 0 1 0 1 0 1 0 1 0 1 0 1 0 1 0 1 0 1 0 1 0 1 -1 1 -1 1 -1 1 -1 1 -1 1 -1 1 -1 1 -1 1 -1 1 -1 0 -1 0 -1 0 -1 0 -1 0 -1 0 -1 0 -2 0 -2 0 -2 0 -2 0 0zm-22 -24l0 -25 0 0 2 0 2 0 2 0 2 0 2 0 2 1 2 1 2 1 2 1 2 1 2 1 2 1 2 1 2 1 2 1 2 2 2 2 2 2 1 2 1 2 1 2 1 2 1 2 1 2 1 2 1 2 1 3 1 3 0 3 0 3 0 3 0 3 -24 0 0 -2 0 -2 0 -2 0 -1 0 -1 0 -1 0 -1 0 -1 0 -1 -1 -1 -1 -1 -1 -1 -1 -1 -1 -1 -1 -1 -1 -1 -1 -1 -1 -1 -1 -1 -1 -1 -1 -1 -1 0 -1 0 -1 0 -1 0 -1 0 -1 0 -1 0 -1 0 -1 0 -1 0 -1 0 0 0zm-237 -25l237 0 0 25 -237 0 0 0 0 -25zm-26 50l-24 0 0 0 0 -2 0 -2 0 -2 0 -2 0 -2 0 -2 1 -2 1 -2 1 -2 1 -2 1 -2 1 -2 1 -2 1 -2 1 -2 2 -2 2 -2 2 -2 2 -2 2 -2 2 -1 2 -1 2 -1 2 -1 2 -1 3 -1 3 -1 3 -1 3 0 3 0 3 0 3 0 0 25 -2 0 -2 0 -2 0 -2 0 -2 0 -1 0 -1 0 -1 0 -1 1 -1 1 -1 1 -1 1 -1 1 -1 1 -1 1 -1 1 -1 1 -1 1 -1 1 -1 1 -1 1 0 1 0 1 0 1 0 1 0 1 0 1 0 1 0 1 0 1 0 1 0 1 0 0zm-24 498l0 -498 24 0 0 498 0 0 -24 0zm50 25l0 25 0 0 -3 0 -3 0 -3 0 -3 0 -3 -1 -3 -1 -3 -1 -2 -1 -2 -1 -2 -1 -2 -1 -2 -1 -2 -2 -2 -2 -2 -2 -2 -2 -2 -2 -1 -2 -1 -2 -1 -2 -1 -2 -1 -2 -1 -2 -1 -2 -1 -2 -1 -2 0 -2 0 -2 0 -2 0 -2 0 -2 0 -2 24 0 0 1 0 1 0 1 0 1 0 1 0 1 0 1 0 1 0 1 0 1 0 1 1 1 1 1 1 1 1 1 1 1 1 1 1 1 1 1 1 1 1 1 1 1 1 1 1 1 1 0 1 0 1 0 2 0 2 0 2 0 2 0 2 0 0 0zm150 25l-150 0 0 -25 150 0 0 0 0 25zm139 -171l24 0 0 0 0 9 0 9 -1 9 -1 8 -1 8 -2 8 -2 8 -2 8 -3 8 -3 7 -3 7 -4 7 -4 7 -4 7 -5 6 -5 6 -5 6 -6 5 -6 5 -6 5 -7 4 -7 4 -7 4 -8 3 -8 3 -8 3 -8 2 -9 2 -9 1 -9 1 -10 1 -10 0 0 -25 9 0 9 -1 8 -1 8 -1 8 -2 7 -2 7 -2 7 -3 6 -3 6 -3 6 -3 5 -4 5 -4 5 -4 5 -4 4 -5 4 -5 4 -5 4 -5 3 -6 3 -6 3 -6 3 -6 2 -7 2 -7 2 -7 1 -7 1 -7 1 -7 1 -8 0 -8 0 -8 0 0zm24 -37l0 37 -24 0 0 -37 0 0 24 0zm-163 -138l0 -25 0 0 10 0 10 1 9 1 9 1 9 2 8 2 8 2 8 3 8 3 7 3 7 4 7 4 6 4 6 5 6 5 5 5 5 6 5 6 4 6 4 6 4 7 3 7 3 7 3 7 2 8 2 8 2 8 1 8 1 8 1 9 0 9 0 9 -24 0 0 -8 0 -8 -1 -8 -1 -7 -1 -7 -1 -7 -2 -7 -2 -6 -2 -6 -3 -6 -3 -6 -3 -5 -3 -5 -4 -5 -4 -5 -4 -5 -4 -4 -5 -4 -5 -4 -5 -4 -5 -3 -6 -3 -6 -3 -6 -3 -7 -2 -7 -2 -7 -2 -8 -1 -8 -1 -8 -1 -9 0 -9 0 0 0zm2 273l0 -25 0 0 5 0 4 0 4 0 4 -1 4 -1 4 -1 3 -1 3 -1 3 -1 3 -1 3 -1 2 -1 2 -2 2 -2 2 -2 2 -2 2 -2 2 -2 1 -2 1 -2 1 -2 1 -3 1 -3 1 -3 1 -3 1 -3 1 -3 1 -4 0 -4 0 -4 0 -4 0 -4 24 0 0 5 0 5 0 5 0 5 -1 5 -1 4 -1 4 -1 4 -1 4 -2 4 -2 4 -2 4 -2 4 -2 3 -3 3 -3 3 -3 3 -3 3 -3 3 -3 2 -4 2 -4 2 -4 2 -4 2 -4 1 -4 1 -5 1 -5 1 -5 1 -5 0 -5 0 -5 0 0 0zm-116 -25l116 0 0 25 -116 0 -12 -13 12 -13zm0 25l-12 0 0 -13 12 13zm12 -216l0 204 -24 0 0 -204 12 -13 12 13zm-24 0l0 -13 12 0 -12 13zm126 13l-114 0 0 -25 114 0 0 0 0 25zm89 65l-24 0 0 0 0 -4 0 -4 0 -4 0 -4 -1 -4 -1 -3 -1 -3 -1 -3 -1 -3 -1 -3 -1 -3 -1 -2 -1 -2 -2 -2 -2 -2 -2 -2 -2 -2 -2 -2 -2 -2 -2 -2 -2 -1 -3 -1 -3 -1 -3 -1 -3 -1 -3 -1 -4 -1 -4 -1 -4 -1 -4 0 -4 0 -5 0 0 -25 5 0 5 0 5 0 5 1 5 1 5 1 4 1 4 1 4 2 4 2 4 2 4 2 4 2 3 3 3 3 3 3 3 3 3 3 2 3 2 4 2 4 2 4 2 4 1 4 1 4 1 4 1 4 1 5 1 5 0 5 0 5 0 5 0 0zm-24 49l0 -49 24 0 0 49 0 0 -24 0zm368 -248l-24 0 0 0 0 -9 0 -9 1 -9 1 -9 1 -9 2 -9 2 -9 2 -9 3 -8 3 -8 3 -8 4 -8 4 -8 4 -8 5 -7 5 -7 5 -7 6 -7 6 -6 6 -6 7 -6 7 -5 7 -5 8 -4 8 -4 8 -3 9 -3 9 -2 9 -2 10 -1 10 -1 10 0 0 25 -9 0 -9 1 -8 1 -8 2 -8 2 -7 2 -7 3 -7 3 -6 4 -6 4 -6 4 -6 5 -5 5 -5 5 -5 6 -4 6 -4 6 -4 6 -4 7 -3 7 -3 7 -3 7 -3 7 -2 7 -2 8 -2 8 -1 8 -1 8 -1 8 -1 8 0 8 0 8 0 0zm-24 59l0 -59 24 0 0 59 -12 13 -12 -13zm24 0l0 13 -12 0 12 -13zm-84 -13l72 0 0 25 -72 0 -12 -13 12 -13zm0 25l-12 0 0 -13 12 13zm12 -216l0 204 -24 0 0 -204 0 0 24 0zm-47 -25l0 -25 0 0 3 0 3 0 3 0 3 0 3 1 3 1 3 1 2 1 2 1 2 1 2 1 2 1 2 2 2 2 2 2 2 2 1 2 1 2 1 2 1 2 1 2 1 2 1 2 1 2 1 2 0 2 0 2 0 2 0 2 0 2 0 2 0 2 -24 0 0 -2 0 -1 0 -1 0 -1 0 -1 0 -1 0 -1 0 -1 0 -1 0 -1 0 -1 0 -1 0 -1 0 -1 -1 -1 -1 -1 -1 -1 -1 -1 -1 -1 -1 -1 -1 -1 -1 -1 -1 -1 -1 0 -1 0 -1 0 -1 0 -1 0 -2 0 -2 0 -2 0 -2 0 0 0zm-23 25l-24 0 0 0 0 -2 0 -2 0 -2 0 -2 0 -2 0 -2 1 -2 1 -2 1 -2 1 -2 1 -2 1 -2 1 -2 1 -2 1 -2 1 -2 2 -2 2 -2 2 -2 2 -2 2 -1 2 -1 2 -1 2 -1 2 -1 2 -1 2 -1 3 -1 3 0 3 0 3 0 3 0 0 25 -2 0 -2 0 -2 0 -1 0 -1 0 -1 0 -1 0 -1 0 -1 0 -1 1 -1 1 -1 1 -1 1 -1 1 -1 1 -1 1 -1 1 -1 1 -1 1 -1 1 0 1 0 1 0 1 0 1 0 1 0 1 0 1 0 1 0 1 0 1 0 1 0 1 0 0zm-24 514l0 -514 24 0 0 514 0 0 -24 0zm48 25l0 25 0 0 -3 0 -3 0 -3 0 -3 0 -3 -1 -2 -1 -2 -1 -2 -1 -2 -1 -2 -1 -2 -1 -2 -1 -2 -2 -2 -2 -2 -2 -2 -2 -1 -2 -1 -2 -1 -2 -1 -2 -1 -2 -1 -2 -1 -2 -1 -2 -1 -2 -1 -2 0 -2 0 -2 0 -2 0 -2 0 -2 0 -2 24 0 0 1 0 1 0 1 0 1 0 1 0 1 0 1 0 1 0 1 0 1 0 1 0 1 1 1 1 1 1 1 1 1 1 1 1 1 1 1 1 1 1 1 1 1 1 1 1 0 1 0 1 0 1 0 1 0 1 0 2 0 2 0 2 0 0 0zm22 -25l24 0 0 0 0 2 0 2 0 2 0 2 0 2 0 2 0 2 -1 2 -1 2 -1 2 -1 2 -1 2 -1 2 -1 2 -1 2 -1 2 -2 2 -2 2 -2 2 -2 2 -2 1 -2 1 -2 1 -2 1 -2 1 -2 1 -3 1 -3 1 -3 0 -3 0 -3 0 -3 0 0 -25 2 0 2 0 2 0 1 0 1 0 1 0 1 0 1 0 1 0 1 -1 1 -1 1 -1 1 -1 1 -1 1 -1 1 -1 1 -1 1 -1 0 -1 0 -1 0 -1 0 -1 0 -1 0 -1 0 -1 0 -1 0 -1 0 -1 0 -1 0 -1 0 -1 0 -1 0 0zm24 -237l0 237 -24 0 0 -237 12 -13 12 13zm-24 0l0 -13 12 0 -12 13zm84 13l-72 0 0 -25 72 0 12 13 -12 13zm0 -25l12 0 0 13 -12 -13zm-12 122l0 -109 24 0 0 109 0 0 -24 0zm158 153l0 25 0 0 -10 0 -9 -1 -9 -1 -9 -2 -9 -2 -8 -2 -8 -3 -8 -3 -7 -4 -7 -4 -7 -4 -6 -5 -6 -5 -6 -5 -5 -6 -5 -6 -5 -6 -4 -7 -4 -7 -4 -7 -3 -7 -3 -7 -3 -8 -3 -8 -2 -8 -2 -8 -2 -8 -1 -8 -1 -9 -1 -9 0 -9 0 -9 24 0 0 8 0 8 1 8 1 8 1 7 1 7 2 7 2 7 2 7 2 7 3 6 3 6 3 6 3 6 4 5 4 5 4 5 4 5 5 4 5 4 5 4 6 4 6 3 6 3 6 3 7 2 7 2 7 2 8 1 8 1 8 1 9 0 0 0zm42 25l-42 0 0 -25 42 0 0 0 0 25zm137 -176l24 0 0 0 0 9 0 9 -1 9 -1 9 -1 8 -2 8 -2 8 -2 8 -3 8 -3 8 -3 7 -4 7 -4 7 -4 7 -5 7 -5 6 -5 6 -6 6 -6 5 -6 5 -7 5 -7 4 -7 4 -7 4 -8 3 -8 3 -8 2 -9 2 -9 2 -9 1 -10 1 -10 0 0 -25 9 0 8 -1 8 -1 8 -1 7 -2 7 -2 7 -2 7 -3 6 -3 6 -3 6 -4 5 -4 5 -4 5 -4 5 -5 4 -5 4 -5 4 -5 4 -6 3 -6 3 -6 3 -6 3 -7 2 -7 2 -7 2 -7 1 -7 1 -7 1 -8 1 -8 0 -8 0 -8 0 0zm24 -262l0 262 -24 0 0 -262 0 0 24 0zm-162 -151l0 -25 0 0 10 0 10 1 9 1 9 2 9 2 8 2 8 3 8 3 7 4 7 4 7 4 7 5 6 5 6 5 6 6 5 6 5 6 5 7 4 7 4 7 4 7 3 7 3 8 3 8 2 8 2 8 2 8 1 8 1 9 1 9 0 9 0 9 -24 0 0 -8 0 -8 -1 -8 -1 -8 -1 -7 -1 -7 -2 -7 -2 -7 -2 -7 -3 -7 -3 -6 -3 -6 -3 -6 -4 -6 -4 -5 -4 -5 -4 -5 -5 -5 -5 -4 -5 -4 -5 -4 -6 -4 -6 -3 -6 -3 -7 -3 -7 -2 -7 -2 -7 -2 -8 -1 -8 -1 -8 -1 -9 0 0 0zm-35 -25l35 0 0 25 -35 0 0 0 0 -25zm35 541l0 -25 0 0 4 0 4 0 4 0 4 -1 4 -1 3 -1 3 -1 3 -1 3 -1 3 -2 3 -2 2 -2 2 -2 2 -2 2 -2 2 -2 2 -3 2 -3 2 -3 1 -3 1 -3 1 -3 1 -3 1 -4 1 -4 1 -4 1 -4 1 -4 0 -4 0 -4 0 -4 0 -4 24 0 0 5 0 5 0 5 0 5 -1 5 -1 5 -1 5 -1 5 -1 5 -1 4 -2 4 -2 4 -2 4 -2 4 -2 4 -3 4 -3 4 -3 3 -3 3 -3 3 -4 3 -4 3 -4 2 -4 2 -4 2 -5 2 -5 1 -5 1 -5 1 -5 1 -5 0 -6 0 0 0zm-38 -25l38 0 0 25 -38 0 0 0 0 -25zm-88 -77l24 0 0 0 0 4 0 4 0 4 0 4 1 4 1 4 1 4 1 4 1 4 1 3 1 3 1 3 1 3 2 3 2 3 2 3 2 2 2 2 2 2 2 2 2 2 3 2 3 2 3 1 3 1 3 1 3 1 4 1 4 1 4 0 4 0 4 0 0 25 -6 0 -5 0 -5 -1 -5 -1 -5 -1 -5 -1 -5 -2 -4 -2 -4 -2 -4 -2 -4 -3 -4 -3 -3 -3 -3 -3 -3 -3 -3 -4 -3 -4 -2 -4 -2 -4 -2 -4 -2 -4 -2 -4 -1 -4 -1 -4 -1 -5 -1 -5 -1 -5 -1 -5 0 -5 0 -5 0 -5 0 -5 0 0zm24 -237l0 237 -24 0 0 -237 0 0 24 0zm66 -127l0 25 0 0 -4 0 -4 0 -4 1 -4 1 -4 1 -3 1 -3 2 -3 2 -3 2 -3 2 -3 3 -3 3 -2 3 -2 3 -2 3 -2 4 -2 4 -2 4 -2 4 -2 4 -1 4 -1 4 -1 4 -1 5 -1 5 -1 5 -1 5 -1 5 0 5 0 5 0 5 0 4 -24 0 0 -5 0 -5 0 -5 0 -5 1 -5 1 -5 1 -5 1 -5 1 -5 1 -5 2 -5 2 -5 2 -5 2 -5 2 -5 2 -5 3 -5 3 -4 3 -4 3 -4 4 -4 4 -4 4 -3 4 -3 5 -3 5 -3 5 -2 5 -2 6 -1 6 -1 6 -1 6 0 0 0zm35 25l-35 0 0 -25 35 0 0 0 0 25zm88 73l-24 0 0 0 0 -4 0 -4 0 -4 0 -4 -1 -4 -1 -4 -1 -3 -1 -3 -1 -3 -1 -3 -1 -3 -1 -3 -1 -3 -2 -3 -2 -3 -2 -2 -2 -2 -2 -2 -2 -2 -2 -2 -2 -2 -3 -2 -3 -2 -3 -1 -3 -1 -3 -1 -3 -1 -4 -1 -4 -1 -4 0 -4 0 -4 0 0 -25 5 0 5 0 5 1 5 1 5 1 5 1 5 2 4 2 4 2 4 2 4 3 4 3 3 3 3 3 3 3 3 3 3 4 2 4 2 4 2 4 2 4 2 4 1 4 1 4 1 4 1 4 1 4 1 5 1 5 0 5 0 5 0 5 0 0zm-24 266l0 -266 24 0 0 266 0 0 -24 0zm373 -356l0 25 12 -11 0 1 0 3 -1 5 -1 6 -1 8 -1 9 -1 11 -1 12 -2 13 -2 14 -2 15 -2 16 -2 16 -2 17 -2 17 -2 17 -2 18 -2 18 -2 17 -2 17 -2 17 -2 16 -2 16 -2 15 -2 14 -2 13 -1 12 -1 11 -1 10 -1 8 -1 7 -1 5 -24 -3 1 -5 1 -7 1 -8 1 -10 1 -11 1 -12 2 -13 2 -14 2 -15 2 -16 2 -16 2 -17 2 -17 2 -17 2 -18 2 -18 2 -17 2 -17 2 -17 2 -16 2 -16 2 -15 2 -14 2 -13 1 -12 1 -11 1 -9 1 -8 1 -6 1 -5 0 -3 0 -1 12 -11zm-12 11l1 -11 11 0 -12 11zm150 14l-138 0 0 -25 138 0 12 13 -12 13zm0 -25l12 0 0 13 -12 -13zm-12 483l0 -470 24 0 0 470 0 0 -24 0zm50 25l0 25 0 0 -3 0 -3 0 -3 0 -3 0 -3 -1 -3 -1 -3 -1 -2 -1 -2 -1 -2 -1 -2 -1 -2 -1 -2 -2 -2 -2 -2 -2 -2 -2 -2 -2 -1 -2 -1 -2 -1 -2 -1 -2 -1 -2 -1 -2 -1 -2 -1 -2 -1 -2 0 -2 0 -2 0 -2 0 -2 0 -2 0 -2 24 0 0 1 0 1 0 1 0 1 0 1 0 1 0 1 0 1 0 1 0 1 0 1 1 1 1 1 1 1 1 1 1 1 1 1 1 1 1 1 1 1 1 1 1 1 1 1 1 1 1 0 1 0 1 0 2 0 2 0 2 0 2 0 2 0 0 0zm24 -25l24 0 0 0 0 2 0 2 0 2 0 2 0 2 0 2 -1 2 -1 2 -1 2 -1 2 -1 2 -1 2 -1 2 -1 2 -1 2 -2 2 -2 2 -2 2 -2 2 -2 2 -2 1 -2 1 -2 1 -2 1 -2 1 -2 1 -3 1 -3 1 -3 0 -3 0 -3 0 -3 0 0 -25 2 0 2 0 2 0 1 0 1 0 1 0 1 0 1 0 1 -1 1 -1 1 -1 1 -1 1 -1 1 -1 1 -1 1 -1 1 -1 1 -1 1 -1 1 -1 1 -1 0 -1 0 -1 0 -1 0 -1 0 -1 0 -1 0 -1 0 -1 0 -1 0 -1 0 -1 0 0zm24 -506l0 506 -24 0 0 -506 0 0 24 0zm-48 -25l0 -25 0 0 3 0 3 0 3 0 3 0 3 1 3 1 2 1 2 1 2 1 2 1 2 1 2 1 2 2 2 2 2 2 2 2 2 2 1 2 1 2 1 2 1 2 1 2 1 2 1 2 1 2 1 2 0 2 0 2 0 2 0 2 0 2 0 2 -24 0 0 -1 0 -1 0 -1 0 -1 0 -1 0 -1 0 -1 0 -1 0 -1 0 -1 0 -1 -1 -1 -1 -1 -1 -1 -1 -1 -1 -1 -1 -1 -1 -1 -1 -1 -1 -1 -1 -1 -1 -1 -1 -1 -1 -1 -1 0 -1 0 -1 0 -1 0 -1 0 -2 0 -2 0 -2 0 0 0zm-205 -25l205 0 0 25 -205 0 0 0 0 -25zm-26 52l-24 -3 0 0 0 -2 0 -2 0 -2 1 -2 1 -2 1 -2 1 -2 1 -2 1 -2 1 -2 1 -2 1 -2 1 -2 1 -2 1 -2 2 -2 2 -2 2 -2 2 -1 2 -1 2 -1 2 -1 2 -1 2 -1 2 -1 2 -1 2 -1 2 -1 2 0 3 0 3 0 3 0 0 25 -2 0 -2 0 -1 0 -1 0 -1 0 -1 0 -1 0 -1 0 -1 0 -1 1 -1 1 -1 1 -1 1 -1 1 -1 1 -1 1 -1 1 -1 1 -1 1 -1 1 -1 1 -1 1 -1 1 -1 1 0 1 0 1 0 1 0 1 0 2 0 2 0 2 0 2 0 0zm-24 -3l0 0 0 0 0 0zm-25 416l-24 -3 0 0 0 -4 1 -6 1 -7 1 -9 1 -10 1 -12 2 -13 2 -14 2 -15 2 -16 2 -16 2 -17 2 -17 2 -18 2 -18 2 -18 2 -18 2 -18 2 -18 2 -17 2 -17 2 -16 2 -15 2 -14 2 -14 1 -12 1 -11 1 -10 1 -8 1 -7 1 -5 0 -3 24 3 0 3 -1 5 -1 7 -1 8 -1 10 -1 11 -1 12 -2 14 -2 15 -2 15 -2 16 -2 17 -2 17 -2 18 -2 18 -2 18 -2 18 -2 18 -2 18 -2 17 -2 17 -2 16 -2 16 -2 15 -2 14 -2 13 -1 12 -1 10 -1 9 -1 7 -1 6 0 4 0 0zm0 0l0 0 0 2 0 -2zm-11 44l-22 -12 0 -1 0 -1 0 0 0 -1 0 -1 0 -1 0 -1 0 -1 0 -1 0 -1 0 -1 0 -1 0 -1 0 -1 0 -1 0 -1 0 -1 0 -1 0 -1 0 -1 0 -1 0 -1 0 -1 0 -1 0 -1 0 -1 0 -1 0 -2 0 -2 0 -2 0 -2 0 -2 0 -2 24 3 0 2 0 2 0 2 0 2 0 2 0 2 0 2 0 2 0 2 0 2 0 1 0 1 0 1 0 1 0 1 0 1 0 1 0 1 0 1 0 1 0 1 0 1 0 1 0 1 0 1 0 1 -1 1 0 1 -1 1 -1 1 -1 1 -1 1 0 -1zm-22 -12l0 0 0 0 0 1zm-33 38l0 -25 0 0 2 0 2 0 2 0 2 0 2 0 2 0 2 0 1 0 1 0 1 0 1 0 1 0 1 0 1 0 1 0 1 0 1 0 1 0 1 0 1 0 1 0 1 0 1 -1 1 -1 1 -1 1 -1 1 -1 1 -1 1 -1 1 -1 1 -1 1 -1 22 12 -1 2 -1 2 -1 2 -1 2 -1 2 -1 2 -1 1 -1 1 -1 1 -2 1 -2 1 -2 1 -2 1 -2 1 -2 1 -2 1 -2 1 -2 1 -2 1 -2 1 -2 0 -2 0 -2 0 -2 0 -2 0 -2 0 -2 0 -2 0 -2 0 -2 0 -2 0 -2 0 0 0zm-24 26l-24 0 0 0 0 -3 0 -3 0 -3 0 -3 1 -3 1 -3 1 -3 1 -2 1 -2 1 -2 1 -2 1 -2 1 -2 2 -2 2 -2 2 -2 2 -2 2 -1 2 -1 2 -1 2 -1 2 -1 2 -1 2 -1 2 -1 2 -1 2 -1 2 0 2 0 2 0 2 0 2 0 0 25 -1 0 -1 0 -1 0 -1 0 -1 0 -1 0 -1 0 -1 0 -1 0 -1 0 -1 1 -1 1 -1 1 -1 1 -1 1 -1 1 -1 1 -1 1 -1 1 -1 1 -1 1 -1 1 -1 1 -1 1 0 1 0 1 0 1 0 1 0 2 0 2 0 2 0 2 0 0zm24 24l0 25 0 0 -2 0 -2 0 -2 0 -2 0 -2 0 -2 0 -2 -1 -2 -1 -2 -1 -2 -1 -2 -1 -2 -1 -2 -1 -2 -1 -2 -1 -2 -2 -2 -2 -2 -2 -2 -2 -2 -2 -1 -2 -1 -2 -1 -2 -1 -2 -1 -3 -1 -3 -1 -3 -1 -3 0 -3 0 -3 0 -3 0 -3 24 0 0 2 0 2 0 2 0 2 0 2 0 1 0 1 0 1 0 1 0 1 1 1 1 1 1 1 1 1 1 1 1 1 1 1 1 1 1 1 1 0 1 0 1 0 1 0 1 0 1 0 1 0 1 0 1 0 1 0 1 0 1 0 1 0 0 0zm101 -56l23 9 0 0 -2 4 -2 4 -2 4 -2 4 -2 4 -2 4 -2 4 -2 3 -3 3 -3 3 -3 3 -3 3 -3 3 -3 3 -4 3 -4 2 -4 2 -4 2 -4 2 -4 2 -5 2 -5 2 -5 1 -5 1 -5 1 -5 1 -6 1 -6 1 -6 0 -6 0 -6 0 -7 0 0 -25 6 0 6 0 6 0 5 0 5 -1 5 -1 5 -1 4 -1 4 -1 4 -1 4 -1 4 -1 3 -1 3 -2 3 -2 3 -2 3 -2 3 -2 2 -2 2 -2 2 -2 2 -2 2 -2 2 -2 2 -3 2 -3 2 -3 2 -3 2 -3 2 -3 1 -3 1 -3 0 0zm23 9l0 0 0 0 0 0zm-12 -58l24 3 0 0 0 2 0 2 0 2 0 2 0 2 0 2 0 2 0 2 0 2 0 2 0 2 0 2 0 2 0 2 0 2 0 2 0 2 0 2 0 2 0 2 0 2 0 2 0 2 0 2 0 2 0 2 0 2 -1 2 0 2 -1 2 -1 2 -1 2 -23 -9 0 -1 0 -1 0 -1 0 -1 0 -1 0 -1 0 -1 0 -1 0 -1 0 -1 0 -1 0 -1 0 -1 0 -1 0 -1 0 -1 0 -1 0 -2 0 -1 0 -2 0 -2 0 -2 0 -2 0 -2 0 -2 0 -2 0 -2 0 -2 0 -2 0 -2 0 -2 0 -2 0 0zm0 0l0 0 0 0 0 0zm580 -407l0 25 12 -11 0 1 0 3 -1 5 -1 6 -1 8 -1 9 -1 11 -1 12 -2 13 -2 14 -2 15 -2 16 -2 16 -2 17 -2 17 -2 17 -2 18 -2 18 -2 17 -2 17 -2 17 -2 16 -2 16 -2 15 -2 14 -2 13 -1 12 -1 11 -1 10 -1 8 -1 7 -1 5 -24 -3 1 -5 1 -7 1 -8 1 -10 1 -11 1 -12 2 -13 2 -14 2 -15 2 -16 2 -16 2 -17 2 -17 2 -17 2 -18 2 -18 2 -17 2 -17 2 -17 2 -16 2 -16 2 -15 2 -14 2 -13 1 -12 1 -11 1 -9 1 -8 1 -6 1 -5 0 -3 0 -1 12 -11zm-12 11l1 -11 11 0 -12 11zm150 14l-138 0 0 -25 138 0 12 13 -12 13zm0 -25l12 0 0 13 -12 -13zm-12 483l0 -470 24 0 0 470 0 0 -24 0zm50 25l0 25 0 0 -3 0 -3 0 -3 0 -3 0 -3 -1 -3 -1 -3 -1 -2 -1 -2 -1 -2 -1 -2 -1 -2 -1 -2 -2 -2 -2 -2 -2 -2 -2 -2 -2 -1 -2 -1 -2 -1 -2 -1 -2 -1 -2 -1 -2 -1 -2 -1 -2 -1 -2 0 -2 0 -2 0 -2 0 -2 0 -2 0 -2 24 0 0 1 0 1 0 1 0 1 0 1 0 1 0 1 0 1 0 1 0 1 0 1 1 1 1 1 1 1 1 1 1 1 1 1 1 1 1 1 1 1 1 1 1 1 1 1 1 1 1 0 1 0 1 0 2 0 2 0 2 0 2 0 2 0 0 0zm24 -25l24 0 0 0 0 2 0 2 0 2 0 2 0 2 0 2 -1 2 -1 2 -1 2 -1 2 -1 2 -1 2 -1 2 -1 2 -1 2 -2 2 -2 2 -2 2 -2 2 -2 2 -2 1 -2 1 -2 1 -2 1 -2 1 -2 1 -3 1 -3 1 -3 0 -3 0 -3 0 -3 0 0 -25 2 0 2 0 2 0 1 0 1 0 1 0 1 0 1 0 1 0 1 -1 1 -1 1 -1 1 -1 1 -1 1 -1 1 -1 1 -1 1 -1 1 -1 1 -1 1 -1 0 -1 0 -1 0 -1 0 -1 0 -1 0 -1 0 -1 0 -1 0 -1 0 -1 0 -1 0 0zm24 -506l0 506 -24 0 0 -506 0 0 24 0zm-48 -25l0 -25 0 0 3 0 3 0 3 0 3 0 3 1 3 1 2 1 2 1 2 1 2 1 2 1 2 1 2 2 2 2 2 2 2 2 2 2 1 2 1 2 1 2 1 2 1 2 1 2 1 2 1 2 1 2 0 2 0 2 0 2 0 2 0 2 0 2 -24 0 0 -1 0 -1 0 -1 0 -1 0 -1 0 -1 0 -1 0 -1 0 -1 0 -1 0 -1 -1 -1 -1 -1 -1 -1 -1 -1 -1 -1 -1 -1 -1 -1 -1 -1 -1 -1 -1 -1 -1 -1 -1 -1 -1 -1 -1 0 -1 0 -1 0 -1 0 -1 0 -2 0 -2 0 -2 0 0 0zm-205 -25l205 0 0 25 -205 0 0 0 0 -25zm-26 52l-24 -3 0 0 0 -2 0 -2 0 -2 1 -2 1 -2 1 -2 1 -2 1 -2 1 -2 1 -2 1 -2 1 -2 1 -2 1 -2 1 -2 2 -2 2 -2 2 -2 2 -1 2 -1 2 -1 2 -1 2 -1 2 -1 2 -1 2 -1 2 -1 2 -1 2 0 3 0 3 0 3 0 0 25 -2 0 -2 0 -1 0 -1 0 -1 0 -1 0 -1 0 -1 0 -1 0 -1 1 -1 1 -1 1 -1 1 -1 1 -1 1 -1 1 -1 1 -1 1 -1 1 -1 1 -1 1 -1 1 -1 1 -1 1 0 1 0 1 0 1 0 1 0 1 0 2 0 2 0 2 0 0zm-24 -3l0 0 0 0 0 0zm-25 416l-24 -3 0 0 0 -4 1 -6 1 -7 1 -9 1 -10 1 -12 2 -13 2 -14 2 -15 2 -16 2 -16 2 -17 2 -17 2 -18 2 -18 2 -18 2 -18 2 -18 2 -18 2 -17 2 -17 2 -16 2 -15 2 -14 2 -14 1 -12 1 -11 1 -10 1 -8 1 -7 1 -5 0 -3 24 3 0 3 -1 5 -1 7 -1 8 -1 10 -1 11 -1 12 -2 14 -2 15 -2 15 -2 16 -2 17 -2 17 -2 18 -2 18 -2 18 -2 18 -2 18 -2 18 -2 17 -2 17 -2 16 -2 16 -2 15 -2 14 -2 13 -1 12 -1 10 -1 9 -1 7 -1 6 0 4 0 0zm0 0l0 0 0 1 0 -1zm-11 44l-22 -12 0 -1 0 -1 0 0 0 -1 0 -1 0 -1 0 -1 0 -1 0 -1 0 -1 0 -1 0 -1 0 -1 0 -1 0 -1 0 -1 0 -1 0 -1 0 -1 0 -1 0 -1 0 -1 0 -1 0 -1 0 -1 0 -1 0 -1 0 -1 0 -2 0 -2 0 -2 0 -2 0 -2 24 3 0 2 0 2 0 2 0 2 0 2 0 2 0 2 0 2 0 2 0 2 0 1 0 1 0 1 0 1 0 1 0 1 0 1 0 1 0 1 0 1 0 1 0 1 0 1 0 1 0 1 0 1 -1 1 0 1 -1 1 -1 1 -1 1 -1 1 0 -1zm-22 -12l0 0 0 0 0 1zm-33 38l0 -25 0 0 2 0 2 0 2 0 2 0 2 0 2 0 2 0 1 0 1 0 1 0 1 0 1 0 1 0 1 0 1 0 1 0 1 0 1 0 1 0 1 0 1 0 1 0 1 0 1 -1 1 -1 1 -1 1 -1 1 -1 1 -1 1 -1 1 -1 1 -1 22 12 -1 2 -1 2 -1 2 -1 2 -1 2 -1 2 -1 2 -1 1 -1 1 -2 1 -2 1 -2 1 -2 1 -2 1 -2 1 -2 1 -2 1 -2 1 -2 1 -2 1 -2 0 -2 0 -2 0 -2 0 -2 0 -2 0 -2 0 -2 0 -2 0 -2 0 -2 0 -2 0 0 0zm-24 26l-24 0 0 0 0 -3 0 -3 0 -3 0 -3 1 -3 1 -3 1 -3 1 -2 1 -2 1 -2 1 -2 1 -2 1 -2 2 -2 2 -2 2 -2 2 -2 2 -1 2 -1 2 -1 2 -1 2 -1 2 -1 2 -1 2 -1 2 -1 2 -1 2 0 2 0 2 0 2 0 2 0 0 25 -1 0 -1 0 -1 0 -1 0 -1 0 -1 0 -1 0 -1 0 -1 0 -1 0 -1 1 -1 1 -1 1 -1 1 -1 1 -1 1 -1 1 -1 1 -1 1 -1 1 -1 1 -1 1 -1 1 -1 1 0 1 0 1 0 1 0 1 0 2 0 2 0 2 0 2 0 0zm24 24l0 25 0 0 -2 0 -2 0 -2 0 -2 0 -2 0 -2 0 -2 -1 -2 -1 -2 -1 -2 -1 -2 -1 -2 -1 -2 -1 -2 -1 -2 -1 -2 -2 -2 -2 -2 -2 -2 -2 -2 -2 -1 -2 -1 -2 -1 -2 -1 -2 -1 -3 -1 -3 -1 -3 -1 -3 0 -3 0 -3 0 -3 0 -3 24 0 0 2 0 2 0 2 0 2 0 2 0 1 0 1 0 1 0 1 0 1 1 1 1 1 1 1 1 1 1 1 1 1 1 1 1 1 1 1 1 0 1 0 1 0 1 0 1 0 1 0 1 0 1 0 1 0 1 0 1 0 1 0 1 0 0 0zm101 -56l23 9 0 0 -2 4 -2 4 -2 4 -2 4 -2 4 -2 4 -2 4 -2 3 -3 3 -3 3 -3 3 -3 3 -3 3 -3 3 -4 3 -4 2 -4 2 -4 2 -4 2 -4 2 -4 2 -5 2 -5 1 -5 1 -5 1 -5 1 -6 1 -6 1 -6 0 -6 0 -6 0 -7 0 0 -25 6 0 6 0 6 0 5 0 5 -1 5 -1 5 -1 4 -1 4 -1 4 -1 4 -1 4 -1 3 -1 3 -2 3 -2 3 -2 3 -2 3 -2 2 -2 2 -2 2 -2 2 -2 2 -2 2 -3 2 -3 2 -3 2 -3 2 -3 2 -3 2 -3 1 -3 1 -3 0 0zm23 9l0 0 0 0 0 0zm-12 -58l24 3 0 0 0 2 0 2 0 2 0 2 0 2 0 2 0 2 0 2 0 2 0 2 0 2 0 2 0 2 0 2 0 2 0 2 0 2 0 2 0 2 0 2 0 2 0 2 0 2 0 2 0 2 0 2 0 2 -1 2 0 2 -1 2 -1 2 -1 2 -23 -9 0 -1 0 -1 0 -1 0 -1 0 -1 0 -1 0 -1 0 -1 0 -1 0 -1 0 -1 0 -1 0 -1 0 -1 0 -1 0 -1 0 -1 0 -1 0 -2 0 -2 0 -2 0 -2 0 -2 0 -2 0 -2 0 -2 0 -2 0 -2 0 -2 0 -2 0 -2 0 -2 0 0zm0 0l0 0 0 0 0 0zm736 68l24 0 0 0 0 3 0 3 0 3 0 3 -1 3 -1 3 -1 3 -1 2 -1 2 -1 2 -1 2 -1 2 -1 2 -2 2 -2 2 -2 2 -2 2 -2 1 -2 1 -2 1 -2 1 -2 1 -2 1 -2 1 -2 1 -2 1 -2 0 -2 0 -2 0 -2 0 -2 0 -2 0 0 -25 1 0 1 0 1 0 1 0 1 0 1 0 1 0 1 0 1 0 1 0 1 0 1 0 1 -1 1 -1 1 -1 1 -1 1 -1 1 -1 1 -1 1 -1 1 -1 1 -1 0 -1 0 -1 0 -1 0 -1 0 -1 0 -1 0 -2 0 -2 0 -2 0 -2 0 0zm-22 -24l0 -25 0 0 2 0 2 0 2 0 2 0 2 0 2 1 2 1 2 1 2 1 2 1 2 1 2 1 2 1 2 1 2 1 2 2 2 2 2 2 1 2 1 2 1 2 1 2 1 2 1 2 1 2 1 2 1 3 1 3 0 3 0 3 0 3 0 3 -24 0 0 -2 0 -2 0 -2 0 -1 0 -1 0 -1 0 -1 0 -1 0 -1 0 -1 -1 -1 -1 -1 -1 -1 -1 -1 -1 -1 -1 -1 -1 -1 -1 -1 -1 -1 -1 -1 -1 -1 -1 0 -1 0 -1 0 -1 0 -1 0 -1 0 -1 0 -1 0 -1 0 -1 0 -1 0 0 0zm-216 -25l216 0 0 25 -216 0 -12 -13 12 -13zm0 25l-12 0 0 -13 12 13zm12 -197l0 184 -24 0 0 -184 12 -13 12 13zm-24 0l0 -13 12 0 -12 13zm190 13l-178 0 0 -25 178 0 0 0 0 25zm22 -50l24 0 0 0 0 3 0 3 0 3 0 3 -1 3 -1 3 -1 2 -1 2 -1 2 -1 2 -1 2 -1 2 -1 2 -1 2 -2 2 -2 2 -2 2 -2 1 -2 1 -2 1 -2 1 -2 1 -2 1 -2 1 -2 1 -2 1 -2 0 -2 0 -2 0 -2 0 -2 0 -2 0 0 -25 1 0 1 0 1 0 1 0 1 0 1 0 1 0 1 0 1 0 1 0 1 0 1 0 1 -1 1 -1 1 -1 1 -1 1 -1 1 -1 1 -1 1 -1 1 -1 1 -1 0 -1 0 -1 0 -1 0 -1 0 -1 0 -1 0 -2 0 -2 0 -2 0 -2 0 0zm-22 -24l0 -25 0 0 2 0 2 0 2 0 2 0 2 0 2 1 2 1 2 1 2 1 2 1 2 1 2 1 2 1 2 1 2 1 2 2 2 2 2 2 1 2 1 2 1 2 1 2 1 2 1 2 1 2 1 2 1 3 1 3 0 3 0 3 0 3 0 3 -24 0 0 -2 0 -2 0 -2 0 -1 0 -1 0 -1 0 -1 0 -1 0 -1 0 -1 -1 -1 -1 -1 -1 -1 -1 -1 -1 -1 -1 -1 -1 -1 -1 -1 -1 -1 -1 -1 -1 -1 -1 0 -1 0 -1 0 -1 0 -1 0 -1 0 -1 0 -1 0 -1 0 -1 0 -1 0 0 0zm-178 -25l178 0 0 25 -178 0 -12 -13 12 -13zm0 25l-12 0 0 -13 12 13zm12 -180l0 168 -24 0 0 -168 12 -13 12 13zm-24 0l0 -13 12 0 -12 13zm228 13l-216 0 0 -25 216 0 0 0 0 25zm22 -50l24 0 0 0 0 3 0 3 0 3 0 3 -1 3 -1 3 -1 3 -1 2 -1 2 -1 2 -1 2 -1 2 -1 2 -2 2 -2 2 -2 2 -2 2 -2 1 -2 1 -2 1 -2 1 -2 1 -2 1 -2 1 -2 1 -2 1 -2 0 -2 0 -2 0 -2 0 -2 0 -2 0 0 -25 1 0 1 0 1 0 1 0 1 0 1 0 1 0 1 0 1 0 1 0 1 0 1 0 1 -1 1 -1 1 -1 1 -1 1 -1 1 -1 1 -1 1 -1 1 -1 1 -1 0 -1 0 -1 0 -1 0 -1 0 -1 0 -1 0 -2 0 -2 0 -2 0 -2 0 0zm-22 -24l0 -25 0 0 2 0 2 0 2 0 2 0 2 0 2 1 2 1 2 1 2 1 2 1 2 1 2 1 2 1 2 1 2 1 2 2 2 2 2 2 1 2 1 2 1 2 1 2 1 2 1 2 1 2 1 2 1 3 1 3 0 3 0 3 0 3 0 3 -24 0 0 -2 0 -2 0 -2 0 -1 0 -1 0 -1 0 -1 0 -1 0 -1 0 -1 -1 -1 -1 -1 -1 -1 -1 -1 -1 -1 -1 -1 -1 -1 -1 -1 -1 -1 -1 -1 -1 -1 -1 0 -1 0 -1 0 -1 0 -1 0 -1 0 -1 0 -1 0 -1 0 -1 0 -1 0 0 0zm-253 -25l253 0 0 25 -253 0 0 0 0 -25zm-24 50l-24 0 0 0 0 -2 0 -2 0 -2 0 -2 0 -2 0 -2 1 -2 1 -2 1 -2 1 -2 1 -2 1 -2 1 -2 1 -2 1 -2 1 -2 2 -2 2 -2 2 -2 2 -2 2 -1 2 -1 2 -1 2 -1 2 -1 2 -1 3 -1 3 -1 3 0 3 0 3 0 3 0 0 25 -2 0 -2 0 -2 0 -1 0 -1 0 -1 0 -1 0 -1 0 -1 1 -1 1 -1 1 -1 1 -1 1 -1 1 -1 1 -1 1 -1 1 -1 1 -1 1 -1 1 0 1 0 1 0 1 0 1 0 1 0 1 0 1 0 1 0 1 0 1 0 1 0 1 0 0zm-24 498l0 -498 24 0 0 498 0 0 -24 0zm48 25l0 25 0 0 -3 0 -3 0 -3 0 -3 0 -3 -1 -3 -1 -2 -1 -2 -1 -2 -1 -2 -1 -2 -1 -2 -1 -2 -2 -2 -2 -2 -2 -2 -2 -1 -2 -1 -2 -1 -2 -1 -2 -1 -2 -1 -2 -1 -2 -1 -2 -1 -2 -1 -2 0 -2 0 -2 0 -2 0 -2 0 -2 0 -2 24 0 0 1 0 1 0 1 0 1 0 1 0 1 0 1 0 1 0 1 0 1 0 1 0 1 1 1 1 1 1 1 1 1 1 1 1 1 1 1 1 1 1 1 1 1 1 1 1 0 1 0 1 0 1 0 1 0 1 0 2 0 2 0 2 0 0 0zm253 25l-253 0 0 -25 253 0 0 0 0 25zm322 -42l24 0 0 0 0 2 0 2 0 2 0 2 0 2 0 2 -1 2 -1 2 -1 2 -1 2 -1 2 -1 2 -1 2 -1 2 -1 2 -2 2 -2 2 -2 2 -2 2 -2 2 -2 1 -2 1 -2 1 -2 1 -2 1 -3 1 -3 1 -3 1 -3 0 -3 0 -3 0 -3 0 0 -25 2 0 2 0 2 0 2 0 1 0 1 0 1 0 1 0 1 -1 1 -1 1 -1 1 -1 1 -1 1 -1 1 -1 1 -1 1 -1 1 -1 1 -1 1 -1 0 -1 0 -1 0 -1 0 -1 0 -1 0 -1 0 -1 0 -1 0 -1 0 -1 0 -1 0 -1 0 0zm24 -470l0 470 -24 0 0 -470 12 -13 12 13zm-24 0l0 -13 12 0 -12 13zm127 13l-115 0 0 -25 115 0 0 0 0 25zm22 -50l24 0 0 0 0 3 0 3 0 3 0 3 -1 3 -1 3 -1 3 -1 2 -1 2 -1 2 -1 2 -1 2 -1 2 -2 2 -2 2 -2 2 -2 2 -2 1 -2 1 -2 1 -2 1 -2 1 -2 1 -2 1 -2 1 -2 1 -2 0 -2 0 -2 0 -2 0 -2 0 -2 0 0 -25 1 0 1 0 1 0 1 0 1 0 1 0 1 0 1 0 1 0 1 0 1 0 1 0 1 -1 1 -1 1 -1 1 -1 1 -1 1 -1 1 -1 1 -1 1 -1 1 -1 0 -1 0 -1 0 -1 0 -1 0 -1 0 -1 0 -2 0 -2 0 -2 0 -2 0 0zm-22 -24l0 -25 0 0 2 0 2 0 2 0 2 0 2 0 2 1 2 1 2 1 2 1 2 1 2 1 2 1 2 1 2 1 2 1 2 2 2 2 2 2 1 2 1 2 1 2 1 2 1 2 1 2 1 2 1 2 1 3 1 3 0 3 0 3 0 3 0 3 -24 0 0 -2 0 -2 0 -2 0 -1 0 -1 0 -1 0 -1 0 -1 0 -1 -1 -1 -1 -1 -1 -1 -1 -1 -1 -1 -1 -1 -1 -1 -1 -1 -1 -1 -1 -1 -1 -1 -1 -1 -1 0 -1 0 -1 0 -1 0 -1 0 -1 0 -1 0 -1 0 -1 0 -1 0 -1 0 0 0zm-304 -25l304 0 0 25 -304 0 0 0 0 -25zm-22 50l-24 0 0 0 0 -3 0 -3 0 -3 0 -3 1 -3 1 -3 1 -2 1 -2 1 -2 1 -2 1 -2 1 -2 1 -2 1 -2 2 -2 2 -2 2 -2 2 -1 2 -1 2 -1 2 -1 2 -1 2 -1 2 -1 2 -1 2 -1 2 -1 2 0 2 0 2 0 2 0 2 0 0 25 -1 0 -1 0 -1 0 -1 0 -1 0 -1 0 -1 0 -1 0 -1 0 -1 0 -1 0 -1 1 -1 1 -1 1 -1 1 -1 1 -1 1 -1 1 -1 1 -1 1 -1 1 -1 1 -1 1 0 1 0 1 0 1 0 1 0 1 0 1 0 2 0 2 0 2 0 0zm22 24l0 25 0 0 -2 0 -2 0 -2 0 -2 0 -2 0 -2 0 -2 -1 -2 -1 -2 -1 -2 -1 -2 -1 -2 -1 -2 -1 -2 -1 -2 -1 -2 -2 -2 -2 -2 -2 -2 -2 -1 -2 -1 -2 -1 -2 -1 -2 -1 -2 -1 -2 -1 -3 -1 -3 -1 -3 0 -3 0 -3 0 -3 0 -3 24 0 0 2 0 2 0 2 0 2 0 1 0 1 0 1 0 1 0 1 0 1 1 1 1 1 1 1 1 1 1 1 1 1 1 1 1 1 1 1 1 1 1 0 1 0 1 0 1 0 1 0 1 0 1 0 1 0 1 0 1 0 1 0 1 0 0 0zm115 25l-115 0 0 -25 115 0 12 13 -12 13zm0 -25l12 0 0 13 -12 -13zm-12 483l0 -470 24 0 0 470 0 0 -24 0zm49 25l0 25 0 0 -3 0 -3 0 -3 0 -3 0 -3 -1 -3 -1 -3 -1 -2 -1 -2 -1 -2 -1 -2 -1 -2 -1 -2 -2 -2 -2 -2 -2 -2 -2 -2 -2 -1 -2 -1 -2 -1 -2 -1 -2 -1 -2 -1 -2 -1 -2 -1 -2 -1 -2 0 -2 0 -2 0 -2 0 -2 0 -2 0 -2 24 0 0 1 0 1 0 1 0 1 0 1 0 1 0 1 0 1 0 1 0 1 0 1 1 1 1 1 1 1 1 1 1 1 1 1 1 1 1 1 1 1 1 1 1 1 1 1 1 1 1 0 1 0 1 0 1 0 2 0 2 0 2 0 2 0 0 0zm602 -32l24 0 0 0 0 3 0 3 0 3 0 3 -1 3 -1 3 -1 3 -1 2 -1 2 -1 2 -1 2 -1 2 -1 2 -2 2 -2 2 -2 2 -2 2 -2 1 -2 1 -2 1 -2 1 -2 1 -2 1 -2 1 -2 1 -2 1 -2 0 -2 0 -2 0 -2 0 -2 0 -2 0 0 -25 1 0 1 0 1 0 1 0 1 0 1 0 1 0 1 0 1 0 1 0 1 0 1 0 1 -1 1 -1 1 -1 1 -1 1 -1 1 -1 1 -1 1 -1 1 -1 1 -1 0 -1 0 -1 0 -1 0 -1 0 -1 0 -1 0 -2 0 -2 0 -2 0 -2 0 0zm-22 -24l0 -25 0 0 2 0 2 0 2 0 2 0 2 0 2 1 2 1 2 1 2 1 2 1 2 1 2 1 2 1 2 1 2 1 2 2 2 2 2 2 2 2 1 2 1 2 1 2 1 2 1 2 1 2 1 2 1 3 1 3 0 3 0 3 0 3 0 3 -24 0 0 -2 0 -2 0 -2 0 -1 0 -1 0 -1 0 -1 0 -1 0 -1 0 -1 -1 -1 -1 -1 -1 -1 -1 -1 -1 -1 -1 -1 -1 -1 -1 -1 -1 -1 -1 -1 -1 -1 -1 0 -1 0 -1 0 -1 0 -1 0 -1 0 -1 0 -1 0 -1 0 -1 0 -1 0 0 0zm-216 -25l216 0 0 25 -216 0 -12 -13 12 -13zm0 25l-12 0 0 -13 12 13zm12 -197l0 184 -24 0 0 -184 12 -13 12 13zm-24 0l0 -13 12 0 -12 13zm190 13l-178 0 0 -25 178 0 0 0 0 25zm22 -50l24 0 0 0 0 3 0 3 0 3 0 3 -1 3 -1 3 -1 2 -1 2 -1 2 -1 2 -1 2 -1 2 -1 2 -1 2 -2 2 -2 2 -2 2 -2 1 -2 1 -2 1 -2 1 -2 1 -2 1 -2 1 -2 1 -2 1 -2 0 -2 0 -2 0 -2 0 -2 0 -2 0 0 -25 1 0 1 0 1 0 1 0 1 0 1 0 1 0 1 0 1 0 1 0 1 0 1 0 1 -1 1 -1 1 -1 1 -1 1 -1 1 -1 1 -1 1 -1 1 -1 1 -1 0 -1 0 -1 0 -1 0 -1 0 -1 0 -1 0 -2 0 -2 0 -2 0 -2 0 0zm-22 -24l0 -25 0 0 2 0 2 0 2 0 2 0 2 0 2 1 2 1 2 1 2 1 2 1 2 1 2 1 2 1 2 1 2 1 2 2 2 2 2 2 1 2 1 2 1 2 1 2 1 2 1 2 1 2 1 2 1 3 1 3 0 3 0 3 0 3 0 3 -24 0 0 -2 0 -2 0 -2 0 -1 0 -1 0 -1 0 -1 0 -1 0 -1 0 -1 -1 -1 -1 -1 -1 -1 -1 -1 -1 -1 -1 -1 -1 -1 -1 -1 -1 -1 -1 -1 -1 -1 -1 0 -1 0 -1 0 -1 0 -1 0 -1 0 -1 0 -1 0 -1 0 -1 0 -1 0 0 0zm-178 -25l178 0 0 25 -178 0 -12 -13 12 -13zm0 25l-12 0 0 -13 12 13zm12 -180l0 168 -24 0 0 -168 12 -13 12 13zm-24 0l0 -13 12 0 -12 13zm228 13l-216 0 0 -25 216 0 0 0 0 25zm22 -50l24 0 0 0 0 3 0 3 0 3 0 3 -1 3 -1 3 -1 3 -1 2 -1 2 -1 2 -1 2 -1 2 -1 2 -2 2 -2 2 -2 2 -2 2 -2 1 -2 1 -2 1 -2 1 -2 1 -2 1 -2 1 -2 1 -2 1 -2 0 -2 0 -2 0 -2 0 -2 0 -2 0 0 -25 1 0 1 0 1 0 1 0 1 0 1 0 1 0 1 0 1 0 1 0 1 0 1 0 1 -1 1 -1 1 -1 1 -1 1 -1 1 -1 1 -1 1 -1 1 -1 1 -1 0 -1 0 -1 0 -1 0 -1 0 -1 0 -1 0 -2 0 -2 0 -2 0 -2 0 0zm-22 -24l0 -25 0 0 2 0 2 0 2 0 2 0 2 0 2 1 2 1 2 1 2 1 2 1 2 1 2 1 2 1 2 1 2 1 2 2 2 2 2 2 2 2 1 2 1 2 1 2 1 2 1 2 1 2 1 2 1 3 1 3 0 3 0 3 0 3 0 3 -24 0 0 -2 0 -2 0 -2 0 -1 0 -1 0 -1 0 -1 0 -1 0 -1 0 -1 -1 -1 -1 -1 -1 -1 -1 -1 -1 -1 -1 -1 -1 -1 -1 -1 -1 -1 -1 -1 -1 -1 -1 0 -1 0 -1 0 -1 0 -1 0 -1 0 -1 0 -1 0 -1 0 -1 0 -1 0 0 0zm-253 -25l253 0 0 25 -253 0 0 0 0 -25zm-24 50l-24 0 0 0 0 -2 0 -2 0 -2 0 -2 0 -2 0 -2 1 -2 1 -2 1 -2 1 -2 1 -2 1 -2 1 -2 1 -2 1 -2 1 -2 2 -2 2 -2 2 -2 2 -2 2 -1 2 -1 2 -1 2 -1 2 -1 2 -1 3 -1 3 -1 3 0 3 0 3 0 3 0 0 25 -2 0 -2 0 -2 0 -1 0 -1 0 -1 0 -1 0 -1 0 -1 1 -1 1 -1 1 -1 1 -1 1 -1 1 -1 1 -1 1 -1 1 -1 1 -1 1 -1 1 0 1 0 1 0 1 0 1 0 1 0 1 0 1 0 1 0 1 0 1 0 1 0 1 0 0zm-24 498l0 -498 24 0 0 498 0 0 -24 0zm48 25l0 25 0 0 -3 0 -3 0 -3 0 -3 0 -3 -1 -3 -1 -2 -1 -2 -1 -2 -1 -2 -1 -2 -1 -2 -1 -2 -2 -2 -2 -2 -2 -2 -2 -1 -2 -1 -2 -1 -2 -1 -2 -1 -2 -1 -2 -1 -2 -1 -2 -1 -2 -1 -2 0 -2 0 -2 0 -2 0 -2 0 -2 0 -2 24 0 0 1 0 1 0 1 0 1 0 1 0 1 0 1 0 1 0 1 0 1 0 1 0 1 1 1 1 1 1 1 1 1 1 1 1 1 1 1 1 1 1 1 1 1 1 1 1 1 1 0 1 0 1 0 1 0 1 0 2 0 2 0 2 0 0 0zm253 25l-253 0 0 -25 253 0 0 0 0 25zm475 -581l0 -25 0 0 3 0 3 0 3 0 3 0 3 1 3 1 2 1 2 1 2 1 2 1 2 1 2 1 2 2 2 2 2 2 2 2 2 2 1 2 1 2 1 2 1 2 1 2 1 2 1 2 1 2 1 2 1 2 0 2 0 2 0 2 0 2 0 2 -24 0 0 -1 0 -1 0 -1 0 -1 0 -1 0 -1 0 -1 0 -1 0 -1 0 -1 0 -1 -1 -1 -1 -1 -1 -1 -1 -1 -1 -1 -1 -1 -1 -1 -1 -1 -1 -1 -1 -1 -1 -1 -1 -1 -1 -1 -1 0 -1 0 -1 0 -1 0 -1 0 -2 0 -2 0 -2 0 0 0zm-25 25l-24 0 0 0 0 -2 0 -2 0 -2 0 -2 0 -2 0 -2 1 -2 1 -2 1 -2 1 -2 1 -2 1 -2 1 -2 1 -2 1 -2 2 -2 2 -2 2 -2 2 -2 2 -2 2 -1 2 -1 2 -1 2 -1 2 -1 3 -1 3 -1 3 -1 3 0 3 0 3 0 3 0 0 25 -2 0 -2 0 -2 0 -2 0 -1 0 -1 0 -1 0 -1 0 -1 1 -1 1 -1 1 -1 1 -1 1 -1 1 -1 1 -1 1 -1 1 -1 1 -1 1 -1 1 -1 1 0 1 0 1 0 1 0 1 0 1 0 1 0 1 0 1 0 1 0 1 0 1 0 0zm-24 204l0 -204 24 0 0 204 -12 13 -12 -13zm24 0l0 13 -12 0 12 -13zm-219 -13l207 0 0 25 -207 0 -12 -13 12 -13zm0 25l-12 0 0 -13 12 13zm12 -216l0 204 -24 0 0 -204 0 0 24 0zm-49 -25l0 -25 0 0 3 0 3 0 3 0 3 0 3 1 3 1 3 1 2 1 2 1 2 1 2 1 2 1 2 2 2 2 2 2 2 2 2 2 1 2 1 2 1 2 1 2 1 2 1 2 1 2 1 2 1 2 0 2 0 2 0 2 0 2 0 2 0 2 -24 0 0 -1 0 -1 0 -1 0 -1 0 -1 0 -1 0 -1 0 -1 0 -1 0 -1 0 -1 0 -1 -1 -1 -1 -1 -1 -1 -1 -1 -1 -1 -1 -1 -1 -1 -1 -1 -1 -1 -1 -1 -1 -1 -1 -1 -1 0 -1 0 -1 0 -2 0 -2 0 -2 0 -2 0 -2 0 0 0zm-25 25l-24 0 0 0 0 -2 0 -2 0 -2 0 -2 0 -2 1 -2 1 -2 1 -2 1 -2 1 -2 1 -2 1 -2 1 -2 1 -2 1 -2 2 -2 2 -2 2 -2 2 -2 2 -2 2 -1 2 -1 2 -1 2 -1 2 -1 2 -1 3 -1 3 -1 3 0 3 0 3 0 3 0 0 25 -2 0 -2 0 -2 0 -1 0 -1 0 -1 0 -1 0 -1 0 -1 1 -1 1 -1 1 -1 1 -1 1 -1 1 -1 1 -1 1 -1 1 -1 1 -1 1 -1 1 -1 1 0 1 0 1 0 1 0 1 0 1 0 1 0 1 0 1 0 1 0 1 0 1 0 0zm-24 514l0 -514 24 0 0 514 0 0 -24 0zm49 25l0 25 0 0 -3 0 -3 0 -3 0 -3 0 -3 -1 -3 -1 -2 -1 -2 -1 -2 -1 -2 -1 -2 -1 -2 -1 -2 -2 -2 -2 -2 -2 -2 -2 -2 -2 -1 -2 -1 -2 -1 -2 -1 -2 -1 -2 -1 -2 -1 -2 -1 -2 -1 -2 -1 -2 0 -2 0 -2 0 -2 0 -2 0 -2 24 0 0 1 0 1 0 1 0 1 0 1 0 1 0 1 0 1 0 1 0 1 0 1 1 1 1 1 1 1 1 1 1 1 1 1 1 1 1 1 1 1 1 1 1 1 1 1 1 1 1 0 1 0 1 0 1 0 1 0 2 0 2 0 2 0 0 0zm25 -25l24 0 0 0 0 2 0 2 0 2 0 2 0 2 0 2 -1 2 -1 2 -1 2 -1 2 -1 2 -1 2 -1 2 -1 2 -1 2 -2 2 -2 2 -2 2 -2 2 -2 2 -2 1 -2 1 -2 1 -2 1 -2 1 -3 1 -3 1 -3 1 -3 0 -3 0 -3 0 -3 0 0 -25 2 0 2 0 2 0 2 0 1 0 1 0 1 0 1 0 1 -1 1 -1 1 -1 1 -1 1 -1 1 -1 1 -1 1 -1 1 -1 1 -1 1 -1 1 -1 0 -1 0 -1 0 -1 0 -1 0 -1 0 -1 0 -1 0 -1 0 -1 0 -1 0 -1 0 -1 0 0zm24 -237l0 237 -24 0 0 -237 12 -13 12 13zm-24 0l0 -13 12 0 -12 13zm219 13l-207 0 0 -25 207 0 12 13 -12 13zm0 -25l12 0 0 13 -12 -13zm-12 249l0 -237 24 0 0 237 0 0 -24 0zm49 25l0 25 0 0 -3 0 -3 0 -3 0 -3 0 -3 -1 -3 -1 -3 -1 -2 -1 -2 -1 -2 -1 -2 -1 -2 -1 -2 -2 -2 -2 -2 -2 -2 -2 -2 -2 -1 -2 -1 -2 -1 -2 -1 -2 -1 -2 -1 -2 -1 -2 -1 -2 -1 -2 0 -2 0 -2 0 -2 0 -2 0 -2 0 -2 24 0 0 1 0 1 0 1 0 1 0 1 0 1 0 1 0 1 0 1 0 1 0 1 0 1 1 1 1 1 1 1 1 1 1 1 1 1 1 1 1 1 1 1 1 1 1 1 1 1 1 0 1 0 1 0 2 0 2 0 2 0 2 0 2 0 0 0zm25 -25l24 0 0 0 0 2 0 2 0 2 0 2 0 2 -1 2 -1 2 -1 2 -1 2 -1 2 -1 2 -1 2 -1 2 -1 2 -1 2 -2 2 -2 2 -2 2 -2 2 -2 2 -2 1 -2 1 -2 1 -2 1 -2 1 -2 1 -3 1 -3 1 -3 0 -3 0 -3 0 -3 0 0 -25 2 0 2 0 2 0 1 0 1 0 1 0 1 0 1 0 1 -1 1 -1 1 -1 1 -1 1 -1 1 -1 1 -1 1 -1 1 -1 1 -1 1 -1 1 -1 1 -1 0 -1 0 -1 0 -1 0 -1 0 -1 0 -1 0 -1 0 -1 0 -1 0 -1 0 -1 0 0zm24 -514l0 514 -24 0 0 -514 0 0 24 0zm215 180l124 0 0 25 -124 0 -12 -13 12 -13zm0 25l-12 0 0 -13 12 13zm12 -205l0 192 -24 0 0 -192 0 0 24 0zm-49 -25l0 -25 0 0 3 0 3 0 3 0 3 0 3 1 3 1 3 1 2 1 2 1 2 1 2 1 2 1 2 2 2 2 2 2 2 2 2 2 1 2 1 2 1 2 1 2 1 2 1 2 1 2 1 2 1 2 0 2 0 2 0 2 0 2 0 2 0 2 -24 0 0 -1 0 -1 0 -1 0 -1 0 -1 0 -1 0 -1 0 -1 0 -1 0 -1 0 -1 -1 -1 -1 -1 -1 -1 -1 -1 -1 -1 -1 -1 -1 -1 -1 -1 -1 -1 -1 -1 -1 -1 -1 -1 -1 -1 -1 0 -1 0 -1 0 -1 0 -2 0 -2 0 -2 0 -2 0 0 0zm-25 25l-24 0 0 0 0 -2 0 -2 0 -2 0 -2 0 -2 0 -2 1 -2 1 -2 1 -2 1 -2 1 -2 1 -2 1 -2 1 -2 1 -2 2 -2 2 -2 2 -2 2 -2 2 -2 2 -1 2 -1 2 -1 2 -1 2 -1 3 -1 3 -1 3 -1 3 0 3 0 3 0 3 0 0 25 -2 0 -2 0 -2 0 -2 0 -1 0 -1 0 -1 0 -1 0 -1 1 -1 1 -1 1 -1 1 -1 1 -1 1 -1 1 -1 1 -1 1 -1 1 -1 1 -1 1 0 1 0 1 0 1 0 1 0 1 0 1 0 1 0 1 0 1 0 1 0 1 0 1 0 0zm-24 506l0 -506 24 0 0 506 0 0 -24 0zm50 25l0 25 0 0 -3 0 -3 0 -3 0 -3 0 -3 -1 -3 -1 -3 -1 -2 -1 -2 -1 -2 -1 -2 -1 -2 -1 -2 -2 -2 -2 -2 -2 -2 -2 -2 -2 -1 -2 -1 -2 -1 -2 -1 -2 -1 -2 -1 -2 -1 -2 -1 -2 -1 -2 0 -2 0 -2 0 -2 0 -2 0 -2 0 -2 24 0 0 1 0 1 0 1 0 1 0 1 0 1 0 1 0 1 0 1 0 1 0 1 1 1 1 1 1 1 1 1 1 1 1 1 1 1 1 1 1 1 1 1 1 1 1 1 1 1 1 0 1 0 1 0 2 0 2 0 2 0 2 0 2 0 0 0zm160 25l-160 0 0 -25 160 0 0 0 0 25zm139 -171l24 0 0 0 0 9 0 9 -1 9 -1 8 -1 8 -2 8 -2 8 -2 8 -3 8 -3 7 -3 7 -4 7 -4 7 -4 7 -5 6 -5 6 -5 6 -6 5 -6 5 -6 5 -7 4 -7 4 -7 4 -8 3 -8 3 -8 3 -8 2 -9 2 -9 1 -9 1 -10 1 -10 0 0 -25 9 0 9 -1 8 -1 8 -1 8 -2 7 -2 7 -2 7 -3 6 -3 6 -3 6 -3 5 -4 5 -4 5 -4 5 -4 4 -5 4 -5 4 -5 4 -5 3 -6 3 -6 3 -6 3 -6 2 -7 2 -7 2 -7 1 -7 1 -7 1 -7 1 -8 0 -8 0 -8 0 0zm24 -37l0 37 -24 0 0 -37 0 0 24 0zm-163 -143l0 -25 0 0 10 0 10 1 9 1 9 1 9 2 9 2 8 2 8 3 8 3 7 4 7 4 7 4 6 5 6 5 6 5 5 6 5 6 5 6 4 6 4 7 4 7 3 7 3 7 3 8 2 8 2 8 2 8 1 8 1 8 1 9 0 9 0 9 -24 0 0 -8 0 -8 -1 -8 -1 -7 -1 -7 -1 -7 -2 -7 -2 -7 -2 -6 -2 -6 -3 -6 -3 -6 -3 -5 -4 -5 -4 -5 -4 -5 -4 -4 -5 -4 -5 -4 -5 -4 -5 -3 -6 -3 -6 -3 -6 -3 -7 -2 -7 -2 -7 -2 -8 -2 -8 -1 -8 -1 -9 -1 -9 0 0 0zm2 277l0 -25 0 0 5 0 4 0 4 0 4 -1 4 -1 4 -1 3 -1 3 -1 3 -1 3 -1 3 -1 2 -1 2 -2 2 -2 2 -2 2 -2 2 -2 2 -2 1 -2 1 -2 1 -2 1 -3 1 -3 1 -3 1 -3 1 -3 1 -3 1 -4 0 -4 0 -4 0 -4 0 -4 24 0 0 5 0 5 0 5 0 5 -1 5 -1 4 -1 4 -1 4 -1 4 -2 4 -2 4 -2 4 -2 4 -2 3 -3 3 -3 3 -3 3 -3 3 -3 3 -3 2 -4 2 -4 2 -4 2 -4 2 -4 1 -4 1 -5 1 -5 1 -5 1 -5 0 -5 0 -5 0 0 0zm-126 -25l126 0 0 25 -126 0 -12 -13 12 -13zm0 25l-12 0 0 -13 12 13zm12 -216l0 204 -24 0 0 -204 12 -13 12 13zm-24 0l0 -13 12 0 -12 13zm136 13l-124 0 0 -25 124 0 0 0 0 25zm89 65l-24 0 0 0 0 -4 0 -4 0 -4 0 -4 -1 -4 -1 -3 -1 -3 -1 -3 -1 -3 -1 -3 -1 -3 -1 -3 -1 -2 -2 -2 -2 -2 -2 -2 -2 -2 -2 -2 -2 -2 -2 -2 -2 -1 -3 -1 -3 -1 -3 -1 -3 -1 -3 -1 -4 -1 -4 -1 -4 -1 -4 0 -4 0 -5 0 0 -25 5 0 5 0 5 0 5 1 5 1 5 1 4 1 4 1 4 2 4 2 4 2 4 2 4 2 3 3 3 3 3 3 3 3 3 3 2 3 2 4 2 4 2 4 2 4 1 4 1 4 1 4 1 4 1 5 1 5 0 5 0 5 0 5 0 0zm-24 49l0 -49 24 0 0 49 0 0 -24 0z"/>
   </g>
   <g>
    <path class="fil3" d="M7781 5516l0 150 -4 0 -4 0 -4 0 -3 -1 -3 -1 -3 -1 -3 -1 -3 -1 -3 -2 -3 -2 -3 -2 -3 -2 -3 -2 -3 -2 -3 -2 -2 -2 -2 -3 -2 -3 -2 -3 -2 -3 -2 -3 -2 -3 -2 -3 -1 -3 -1 -3 -1 -3 -1 -4 -1 -4 -1 -4 0 -4 0 -4 0 -4 0 -4 0 -4 0 -4 1 -4 1 -4 1 -4 1 -3 1 -3 1 -3 2 -3 2 -3 2 -3 2 -3 2 -3 2 -3 2 -3 2 -2 3 -2 3 -2 3 -2 3 -2 3 -2 3 -2 3 -2 3 -1 3 -1 3 -1 3 -1 3 -1 4 0 4 0 4 0zm4354 150l-4354 0 0 -150 4354 0 0 150zm0 0l0 -150 4 0 4 0 4 0 3 1 3 1 3 1 3 1 3 1 3 2 3 2 3 2 3 2 3 2 3 2 3 2 2 2 2 3 2 3 2 3 2 3 2 3 2 3 2 3 1 3 1 3 1 3 1 4 1 4 1 4 0 4 0 4 0 4 0 4 0 4 0 4 -1 4 -1 4 -1 4 -1 3 -1 3 -1 3 -2 3 -2 3 -2 3 -2 3 -2 3 -2 3 -2 3 -2 2 -3 2 -3 2 -3 2 -3 2 -3 2 -3 2 -3 2 -3 1 -3 1 -3 1 -3 1 -3 1 -4 0 -4 0 -4 0z"/>
   </g>
   <path class="fil4 str1" d="M12902 4026l0 8832c-2205,0 -3683,0 -5888,0l0 -8832 5888 0z"/>
   <path class="fil4 str2" d="M9634 11378c-498,1734 -158,751 -390,597 -232,-154 842,-744 772,-270 -70,474 -842,360 -821,460 21,100 323,168 414,-84 91,-253 -42,197 197,119 238,-78 337,-302 298,-176 -39,126 28,105 154,28 126,-77 270,-158 270,-158"/>
   <path class="fil3 str0" d="M7997 8369l0 236c0,10 5,19 19,19 13,0 19,-9 19,-19l0 -254c0,-10 -6,-19 -19,-19l-139 0c-13,0 -19,9 -19,19l0 254c0,10 6,19 19,19 14,0 19,-9 19,-19l0 -236 100 0zm253 251c9,0 18,-5 18,-19 0,-12 -9,-19 -18,-19l-113 0 0 -93 93 0c9,0 18,-5 18,-19 0,-12 -9,-19 -18,-19l-93 0 0 -84 113 0c9,0 18,-5 18,-19 0,-12 -9,-19 -18,-19l-133 0c-13,0 -19,9 -19,19l0 250c0,10 6,19 19,19l133 0zm137 4c14,0 19,-9 19,-19l0 -236 60 0c9,0 18,-5 18,-19 0,-12 -9,-19 -18,-19l-159 0c-9,0 -18,6 -18,19 0,13 9,19 18,19l60 0 0 236c0,10 6,19 19,19zm172 -153l0 -102 64 0c28,0 40,14 40,39l0 21c0,25 -12,43 -40,43l-64 0zm64 37c53,0 79,-35 79,-80l0 -21c0,-46 -26,-76 -79,-76l-84 0c-13,0 -19,9 -19,19l0 254c0,10 6,19 19,19 14,0 19,-9 19,-19l0 -97 64 0zm164 -98c0,-26 11,-45 40,-45l33 0c28,0 40,20 40,45l0 132c0,26 -11,45 -40,45l-33 0c-28,0 -40,-20 -40,-45l0 -132zm151 0c0,-45 -26,-82 -78,-82l-33 0c-52,0 -78,37 -78,82l0 132c0,45 26,82 78,82l33 0c52,0 78,-37 78,-82l0 -132zm97 81l67 0c28,0 40,19 40,44l0 9c0,25 -11,39 -40,39l-67 0 0 -91zm0 -36l0 -86 50 0c28,0 40,10 40,35l0 10c0,25 -12,42 -40,42l-50 0zm146 80c0,-34 -15,-58 -46,-67 18,-11 28,-29 28,-54l0 -10c0,-46 -26,-72 -78,-72l-69 0c-14,0 -20,9 -20,19l0 250c0,10 6,19 20,19l86 0c52,0 78,-30 78,-76l0 -9zm-1184 363l0 236c0,10 5,19 19,19 13,0 19,-9 19,-19l0 -254c0,-10 -6,-19 -19,-19l-139 0c-13,0 -19,9 -19,19l0 254c0,10 6,19 19,19 14,0 19,-9 19,-19l0 -236 100 0zm253 251c9,0 18,-5 18,-19 0,-12 -9,-19 -18,-19l-113 0 0 -93 93 0c9,0 18,-5 18,-19 0,-12 -9,-19 -18,-19l-93 0 0 -84 113 0c9,0 18,-5 18,-19 0,-12 -9,-19 -18,-19l-133 0c-13,0 -19,9 -19,19l0 250c0,10 6,19 19,19l133 0zm-134 -344c0,14 6,24 24,24 18,0 24,-10 24,-24l0 -5c0,-13 -7,-24 -24,-24 -18,0 -24,11 -24,24l0 5zm79 0c0,14 6,24 24,24 18,0 24,-10 24,-24l0 -5c0,-13 -7,-24 -24,-24 -18,0 -24,11 -24,24l0 5zm193 349c14,0 19,-9 19,-19l0 -236 60 0c9,0 18,-5 18,-19 0,-12 -9,-19 -18,-19l-159 0c-9,0 -18,6 -18,19 0,13 9,19 18,19l60 0 0 236c0,10 6,19 19,19zm172 -153l0 -102 64 0c28,0 40,14 40,39l0 21c0,25 -12,43 -40,43l-64 0zm64 37c53,0 79,-35 79,-80l0 -21c0,-46 -26,-76 -79,-76l-84 0c-13,0 -19,9 -19,19l0 254c0,10 6,19 19,19 14,0 19,-9 19,-19l0 -97 64 0zm377 -139l0 236c0,10 5,19 19,19 13,0 19,-9 19,-19l0 -254c0,-10 -6,-19 -19,-19l-139 0c-13,0 -19,9 -19,19l0 254c0,10 6,19 19,19 14,0 19,-9 19,-19l0 -236 100 0zm253 251c9,0 18,-5 18,-19 0,-12 -9,-19 -18,-19l-113 0 0 -93 93 0c9,0 18,-5 18,-19 0,-12 -9,-19 -18,-19l-93 0 0 -84 113 0c9,0 18,-5 18,-19 0,-12 -9,-19 -18,-19l-133 0c-13,0 -19,9 -19,19l0 250c0,10 6,19 19,19l133 0zm137 4c14,0 19,-9 19,-19l0 -236 60 0c9,0 18,-5 18,-19 0,-12 -9,-19 -18,-19l-159 0c-9,0 -18,6 -18,19 0,13 9,19 18,19l60 0 0 236c0,10 6,19 19,19zm172 -153l0 -102 64 0c28,0 40,14 40,39l0 21c0,25 -12,43 -40,43l-64 0zm64 37c53,0 79,-35 79,-80l0 -21c0,-46 -26,-76 -79,-76l-84 0c-13,0 -19,9 -19,19l0 254c0,10 6,19 19,19 14,0 19,-9 19,-19l0 -97 64 0zm164 -98c0,-26 11,-45 40,-45l33 0c28,0 40,20 40,45l0 132c0,26 -11,45 -40,45l-33 0c-28,0 -40,-20 -40,-45l0 -132zm151 0c0,-45 -26,-82 -78,-82l-33 0c-52,0 -78,37 -78,82l0 132c0,45 26,82 78,82l33 0c52,0 78,-37 78,-82l0 -132zm97 81l67 0c28,0 40,19 40,44l0 9c0,25 -11,39 -40,39l-67 0 0 -91zm0 -36l0 -86 50 0c28,0 40,10 40,35l0 10c0,25 -12,42 -40,42l-50 0zm146 80c0,-34 -15,-58 -46,-67 18,-11 28,-29 28,-54l0 -10c0,-46 -26,-72 -78,-72l-69 0c-14,0 -20,9 -20,19l0 250c0,10 6,19 20,19l86 0c52,0 78,-30 78,-76l0 -9zm198 70c0,10 5,19 19,19 14,0 19,-9 19,-19l0 -258c0,-10 -6,-19 -20,-19 -8,0 -13,3 -19,14l-110 196 0 0c1,-7 2,-17 2,-28l0 -163c0,-10 -5,-19 -19,-19 -14,0 -19,9 -19,19l0 258c0,10 6,19 20,19 8,0 13,-3 19,-14l110 -196 0 0c-1,7 -2,17 -2,28l0 163zm176 -107l52 0 0 107c0,10 5,19 19,19 13,0 19,-9 19,-19l0 -258c0,-10 -6,-19 -19,-19 -14,0 -19,9 -19,19l0 114c0,0 -42,0 -58,0 -24,0 -37,-16 -37,-35 0,-17 0,-79 0,-79 0,-10 -5,-19 -19,-19 -13,0 -19,9 -19,19l0 74c0,44 20,77 82,77z"/>
   <path class="fil3 str0" d="M7932 10262c-28,0 -40,-20 -40,-45l0 -132c0,-26 11,-45 40,-45l42 0c18,0 27,7 29,24 1,10 6,19 19,19 14,0 20,-9 20,-19 0,-43 -26,-61 -67,-61l-42 0c-52,0 -78,37 -78,82l0 132c0,45 26,82 78,82l42 0c42,0 67,-19 67,-61 0,-10 -6,-19 -20,-19 -13,0 -18,9 -19,19 -2,17 -11,24 -29,24l-42 0zm306 18c0,10 5,19 19,19 14,0 19,-9 19,-19l0 -258c0,-10 -6,-19 -20,-19 -8,0 -13,3 -19,14l-110 196 0 0c1,-7 2,-17 2,-28l0 -163c0,-10 -5,-19 -19,-19 -14,0 -19,9 -19,19l0 258c0,10 6,19 20,19 8,0 13,-3 19,-14l110 -196 0 0c-1,7 -2,17 -2,28l0 163zm288 -22l-8 0 0 -232c0,-10 -6,-19 -19,-19l-99 0c-13,0 -19,9 -21,19l-37 232 -13 0c-13,0 -19,9 -19,19l0 53c0,10 6,19 19,19 14,0 20,-9 20,-19l0 -35 157 0 0 35c0,10 6,19 20,19 13,0 19,-9 19,-19l0 -53c0,-10 -6,-19 -19,-19zm-141 -28l29 -186 66 0 0 214 -100 0c3,-10 5,-19 6,-28zm237 -144c0,-26 11,-45 40,-45l33 0c28,0 40,20 40,45l0 132c0,26 -11,45 -40,45l-33 0c-28,0 -40,-20 -40,-45l0 -132zm151 0c0,-45 -26,-82 -78,-82l-33 0c-52,0 -78,37 -78,82l0 132c0,45 26,82 78,82l33 0c52,0 78,-37 78,-82l0 -132zm97 61l0 -102 64 0c28,0 40,14 40,39l0 21c0,25 -12,43 -40,43l-64 0zm64 37c53,0 79,-35 79,-80l0 -21c0,-46 -26,-76 -79,-76l-84 0c-13,0 -19,9 -19,19l0 254c0,10 6,19 19,19 14,0 19,-9 19,-19l0 -97 64 0zm164 -98c0,-26 11,-45 40,-45l33 0c28,0 40,20 40,45l0 132c0,26 -11,45 -40,45l-33 0c-28,0 -40,-20 -40,-45l0 -132zm151 0c0,-45 -26,-82 -78,-82l-33 0c-52,0 -78,37 -78,82l0 132c0,45 26,82 78,82l33 0c52,0 78,-37 78,-82l0 -132zm97 81l67 0c28,0 40,19 40,44l0 9c0,25 -11,39 -40,39l-67 0 0 -91zm0 -36l0 -86 50 0c28,0 40,10 40,35l0 10c0,25 -12,42 -40,42l-50 0zm146 80c0,-34 -15,-58 -46,-67 18,-11 28,-29 28,-54l0 -10c0,-46 -26,-72 -78,-72l-69 0c-14,0 -20,9 -20,19l0 250c0,10 6,19 20,19l86 0c52,0 78,-30 78,-76l0 -9zm-1560 581c-28,0 -40,-20 -40,-45l0 -132c0,-26 11,-45 40,-45l42 0c18,0 27,7 29,24 1,10 6,19 19,19 14,0 20,-9 20,-19 0,-43 -26,-61 -67,-61l-42 0c-52,0 -78,37 -78,82l0 132c0,45 26,82 78,82l42 0c42,0 67,-19 67,-61 0,-10 -6,-19 -20,-19 -13,0 -18,9 -19,19 -2,17 -11,24 -29,24l-42 0zm309 33c9,0 18,-5 18,-19 0,-12 -9,-19 -18,-19l-113 0 0 -93 93 0c9,0 18,-5 18,-19 0,-12 -9,-19 -18,-19l-93 0 0 -84 113 0c9,0 18,-5 18,-19 0,-12 -9,-19 -18,-19l-132 0c-13,0 -19,9 -19,19l0 250c0,10 6,19 19,19l132 0zm177 -128c-2,-8 -6,-16 -10,-23l-64 -126c-6,-12 -11,-14 -19,-14 -14,0 -19,9 -19,19l0 258c0,10 5,19 19,19 14,0 19,-9 19,-19l0 -159c0,-11 -1,-21 -2,-28l0 0 59 115c3,6 7,10 17,10 10,0 14,-4 17,-10l59 -115 0 0c-1,7 -2,17 -2,28l0 159c0,10 5,19 19,19 14,0 19,-9 19,-19l0 -258c0,-10 -5,-19 -19,-19 -9,0 -14,2 -19,14l-64 126c-4,8 -7,16 -10,23zm326 128c9,0 18,-5 18,-19 0,-12 -9,-19 -18,-19l-113 0 0 -93 93 0c9,0 18,-5 18,-19 0,-12 -9,-19 -18,-19l-93 0 0 -84 113 0c9,0 18,-5 18,-19 0,-12 -9,-19 -18,-19l-133 0c-13,0 -19,9 -19,19l0 250c0,10 6,19 19,19l133 0zm-134 -344c0,14 6,24 24,24 18,0 24,-10 24,-24l0 -5c0,-13 -7,-24 -24,-24 -18,0 -24,11 -24,24l0 5zm79 0c0,14 6,24 24,24 18,0 24,-10 24,-24l0 -5c0,-13 -7,-24 -24,-24 -18,0 -24,11 -24,24l0 5zm305 71c0,-10 -6,-19 -19,-19 -14,0 -19,9 -19,19l0 102 -108 0 0 -102c0,-10 -5,-19 -19,-19 -13,0 -19,9 -19,19l0 258c0,10 6,19 19,19 14,0 19,-9 19,-19l0 -119 108 0 0 119c0,10 5,19 19,19 13,0 19,-9 19,-19l0 -258zm247 240c-28,0 -40,-20 -40,-45l0 -132c0,-26 11,-45 40,-45l42 0c18,0 27,7 29,24 1,10 6,19 19,19 14,0 20,-9 20,-19 0,-43 -26,-61 -67,-61l-42 0c-52,0 -78,37 -78,82l0 132c0,45 26,82 78,82l42 0c42,0 67,-19 67,-61 0,-10 -6,-19 -20,-19 -13,0 -18,9 -19,19 -2,17 -11,24 -29,24l-42 0zm309 33c9,0 18,-5 18,-19 0,-12 -9,-19 -18,-19l-113 0 0 -93 93 0c9,0 18,-5 18,-19 0,-12 -9,-19 -18,-19l-93 0 0 -84 113 0c9,0 18,-5 18,-19 0,-12 -9,-19 -18,-19l-133 0c-13,0 -19,9 -19,19l0 250c0,10 6,19 19,19l133 0zm177 -128c-2,-8 -6,-16 -10,-23l-64 -126c-6,-12 -11,-14 -19,-14 -14,0 -19,9 -19,19l0 258c0,10 5,19 19,19 14,0 19,-9 19,-19l0 -159c0,-11 -1,-21 -2,-28l0 0 59 115c3,6 7,10 17,10 10,0 14,-4 17,-10l59 -115 0 0c-1,7 -2,17 -2,28l0 159c0,10 5,19 19,19 14,0 19,-9 19,-19l0 -258c0,-10 -5,-19 -19,-19 -9,0 -14,2 -19,14l-64 126c-4,8 -7,16 -10,23zm326 128c9,0 18,-5 18,-19 0,-12 -9,-19 -18,-19l-113 0 0 -93 93 0c9,0 18,-5 18,-19 0,-12 -9,-19 -18,-19l-93 0 0 -84 113 0c9,0 18,-5 18,-19 0,-12 -9,-19 -18,-19l-133 0c-13,0 -19,9 -19,19l0 250c0,10 6,19 19,19l133 0zm-134 -344c0,14 6,24 24,24 18,0 24,-10 24,-24l0 -5c0,-13 -7,-24 -24,-24 -18,0 -24,11 -24,24l0 5zm79 0c0,14 6,24 24,24 18,0 24,-10 24,-24l0 -5c0,-13 -7,-24 -24,-24 -18,0 -24,11 -24,24l0 5zm305 71c0,-10 -6,-19 -19,-19 -14,0 -19,9 -19,19l0 102 -108 0 0 -102c0,-10 -5,-19 -19,-19 -13,0 -19,9 -19,19l0 258c0,10 6,19 19,19 14,0 19,-9 19,-19l0 -119 108 0 0 119c0,10 5,19 19,19 13,0 19,-9 19,-19l0 -258zm97 63c0,-26 11,-45 40,-45l33 0c28,0 40,20 40,45l0 132c0,26 -11,45 -40,45l-33 0c-28,0 -40,-20 -40,-45l0 -132zm151 0c0,-45 -26,-82 -78,-82l-33 0c-52,0 -78,37 -78,82l0 132c0,45 26,82 78,82l33 0c52,0 78,-37 78,-82l0 -132zm97 81l67 0c28,0 40,19 40,44l0 9c0,25 -11,39 -40,39l-67 0 0 -91zm0 -36l0 -86 50 0c28,0 40,10 40,35l0 10c0,25 -12,42 -40,42l-50 0zm146 80c0,-34 -15,-58 -46,-67 18,-11 28,-29 28,-54l0 -10c0,-46 -26,-72 -78,-72l-69 0c-14,0 -20,9 -20,19l0 250c0,10 6,19 20,19l86 0c52,0 78,-30 78,-76l0 -9zm198 70c0,10 5,19 19,19 14,0 19,-9 19,-19l0 -258c0,-10 -6,-19 -20,-19 -8,0 -13,3 -19,14l-110 196 0 0c1,-7 2,-17 2,-28l0 -163c0,-10 -5,-19 -19,-19 -14,0 -19,9 -19,19l0 258c0,10 6,19 20,19 8,0 13,-3 19,-14l110 -196 0 0c-1,7 -2,17 -2,28l0 163zm176 -107l52 0 0 107c0,10 5,19 19,19 13,0 19,-9 19,-19l0 -258c0,-10 -6,-19 -19,-19 -14,0 -19,9 -19,19l0 114c0,0 -42,0 -58,0 -24,0 -37,-16 -37,-35 0,-17 0,-79 0,-79 0,-10 -5,-19 -19,-19 -13,0 -19,9 -19,19l0 74c0,44 20,77 82,77z"/>
   <polygon class="fil4 str3" points="12298,10267 11716,10267 11716,10824 12298,10824 "/>
   <polygon class="fil4 str3" points="12298,8592 11716,8592 11716,9149 12298,9149 "/>
   <polygon class="fil4 str3" points="12298,6917 11716,6917 11716,7475 12298,7475 "/>
   <path class="fil4 str2" d="M10685 12260c349,0 609,-552 450,-648 -300,-281 -622,659 129,422 374,-118 189,-885 189,14 0,57 767,194 -245,218"/>
   <path class="fil5" d="M11991 11418l0 60 -77 0 0 -105c0,-9 -5,-18 -19,-18 -12,0 -19,9 -19,18l0 124c0,14 9,20 19,20l250 0c10,0 19,-6 19,-20l0 -79c0,-53 -35,-79 -80,-79l-19 0c-46,0 -76,26 -76,79zm98 -40c25,0 39,11 39,40l0 60 -102 0 0 -60c0,-28 14,-40 39,-40l25 0zm-216 -242c0,55 47,79 92,79l30 0 0 37 -102 0c-10,0 -19,4 -19,18 0,13 9,19 19,19l258 0c10,0 19,-5 19,-19 0,-14 -9,-18 -19,-18l-119 0 0 -37 55 0c45,0 83,-24 83,-76l0 -22c0,-52 -37,-78 -82,-78l-132 0c-45,0 -82,26 -82,78l0 19zm214 -58c26,0 45,11 45,40l0 20c0,28 -20,40 -45,40l-119 0c-26,0 -58,-11 -58,-41l0 -19c0,-28 20,-40 43,-40l134 0zm26 -147c-23,-3 -199,-24 -199,-24l0 -72 236 0c10,0 19,-6 19,-20 0,-13 -9,-19 -19,-19l-254 0c-10,0 -19,6 -19,19l0 107c0,12 8,19 19,20 12,1 192,23 208,26 9,1 16,2 20,5 8,4 10,11 10,23 0,10 6,19 19,19 14,0 19,-9 19,-19 0,-36 -12,-51 -32,-59 -8,-3 -15,-5 -26,-6zm0 -255c-23,-3 -199,-24 -199,-24l0 -72 236 0c10,0 19,-6 19,-20 0,-13 -9,-19 -19,-19l-254 0c-10,0 -19,6 -19,19l0 107c0,12 8,19 19,20 12,1 192,23 208,26 9,1 16,2 20,5 8,4 10,11 10,23 0,10 6,19 19,19 14,0 19,-9 19,-19 0,-36 -12,-51 -32,-59 -8,-3 -15,-5 -26,-6zm52 -349c0,-9 -5,-18 -19,-18 -12,0 -19,9 -19,18l0 113 -93 0 0 -93c0,-9 -5,-18 -19,-18 -12,0 -19,9 -19,18l0 93 -84 0 0 -113c0,-9 -5,-18 -19,-18 -12,0 -19,9 -19,18l0 133c0,13 9,19 19,19l250 0c10,0 19,-6 19,-19l0 -133zm4 -137c0,-14 -9,-19 -19,-19l-236 0 0 -60c0,-9 -5,-18 -19,-18 -12,0 -19,9 -19,18l0 159c0,9 6,18 19,18 13,0 19,-9 19,-18l0 -60 236 0c10,0 19,-6 19,-19zm-4 -285c0,-9 -5,-18 -19,-18 -12,0 -19,9 -19,18l0 113 -93 0 0 -93c0,-9 -5,-18 -19,-18 -12,0 -19,9 -19,18l0 93 -84 0 0 -113c0,-9 -5,-18 -19,-18 -12,0 -19,9 -19,18l0 133c0,13 9,19 19,19l250 0c10,0 19,-6 19,-19l0 -133zm-273 -250c-10,0 -19,6 -19,19 0,14 9,19 19,19l102 0 0 108 -102 0c-10,0 -19,5 -19,19 0,13 9,19 19,19l258 0c10,0 19,-6 19,-19 0,-14 -9,-19 -19,-19l-119 0 0 -108 119 0c10,0 19,-5 19,-19 0,-13 -9,-19 -19,-19l-258 0zm97 -166l0 65 -97 0c-10,0 -19,6 -19,19 0,14 9,19 19,19l254 0c10,0 19,-6 19,-20l0 -84c0,-53 -35,-79 -80,-79l-19 0c-46,0 -78,25 -78,79zm101 -40c25,0 39,11 39,40l0 66 -102 0 0 -65c0,-28 14,-40 39,-40l25 0zm-198 -382c-10,0 -19,6 -19,19 0,14 9,19 19,19l102 0 0 108 -102 0c-10,0 -19,5 -19,19 0,13 9,19 19,19l258 0c10,0 19,-6 19,-19 0,-14 -9,-19 -19,-19l-119 0 0 -108 119 0c10,0 19,-5 19,-19 0,-13 -9,-19 -19,-19l-258 0zm273 -214c0,-9 -5,-18 -19,-18 -12,0 -19,9 -19,18l0 113 -93 0 0 -93c0,-9 -5,-18 -19,-18 -12,0 -19,9 -19,18l0 93 -84 0 0 -113c0,-9 -5,-18 -19,-18 -12,0 -19,9 -19,18l0 133c0,13 9,19 19,19l250 0c10,0 19,-6 19,-19l0 -133zm-37 -258l0 8 -232 0c-10,0 -19,6 -19,19l0 99c0,13 9,19 19,21l232 37 0 13c0,13 9,19 19,19l53 0c10,0 19,-6 19,-19 0,-14 -9,-20 -19,-20l-35 0 0 -157 35 0c10,0 19,-6 19,-20 0,-13 -9,-19 -19,-19l-53 0c-10,0 -19,6 -19,19zm-28 141l-186 -29 0 -66 214 0 0 100c-10,-3 -19,-5 -28,-6zm65 -354c0,-9 -5,-18 -19,-18 -12,0 -19,9 -19,18l0 113 -93 0 0 -93c0,-9 -5,-18 -19,-18 -12,0 -19,9 -19,18l0 93 -84 0 0 -113c0,-9 -5,-18 -19,-18 -12,0 -19,9 -19,18l0 133c0,13 9,19 19,19l250 0c10,0 19,-6 19,-19l0 -133zm-314 -158c0,-37 -27,-57 -55,-57 -9,0 -14,7 -14,15 0,9 6,14 15,15 15,1 26,11 26,27 0,16 -11,26 -26,27 -9,1 -15,7 -15,15 0,9 6,15 14,15 28,0 55,-20 55,-57zm299 -54c10,0 19,-5 19,-19 0,-14 -9,-19 -19,-19l-258 0c-10,0 -19,6 -19,20 0,8 3,13 14,19l196 110 0 0c-7,-1 -17,-2 -28,-2l-163 0c-10,0 -19,5 -19,19 0,14 9,19 19,19l258 0c10,0 19,-6 19,-20 0,-8 -3,-13 -14,-19l-196 -110 0 0c7,1 17,2 28,2l163 0zm-18 -174c0,28 -20,40 -45,40l-132 0c-26,0 -45,-11 -45,-40l0 -42c0,-18 7,-27 24,-29 10,-1 19,-6 19,-19 0,-14 -9,-20 -19,-20 -43,0 -61,26 -61,67l0 42c0,52 37,78 82,78l132 0c45,0 82,-26 82,-78l0 -42c0,-42 -19,-67 -61,-67 -10,0 -19,6 -19,20 0,13 9,18 19,19 17,2 24,11 24,29l0 42zm37 -229c0,-14 -9,-19 -19,-19l-236 0 0 -60c0,-9 -5,-18 -19,-18 -12,0 -19,9 -19,18l0 159c0,9 6,18 19,18 13,0 19,-9 19,-18l0 -60 236 0c10,0 19,-6 19,-19zm-133 -172l0 -67c0,-28 19,-40 44,-40l9 0c25,0 39,11 39,40l0 67 -91 0zm-36 0l-86 0 0 -50c0,-28 10,-40 35,-40l10 0c25,0 42,12 42,40l0 50zm80 -146c-34,0 -58,15 -67,46 -11,-18 -29,-28 -54,-28l-10 0c-46,0 -72,26 -72,78l0 69c0,14 9,20 19,20l250 0c10,0 19,-6 19,-20l0 -86c0,-52 -30,-78 -76,-78l-9 0zm70 -198c10,0 19,-5 19,-19 0,-14 -9,-19 -19,-19l-258 0c-10,0 -19,6 -19,20 0,8 3,13 14,19l196 110 0 0c-7,-1 -17,-2 -28,-2l-163 0c-10,0 -19,5 -19,19 0,14 9,19 19,19l258 0c10,0 19,-6 19,-20 0,-8 -3,-13 -14,-19l-196 -110 0 0c7,1 17,2 28,2l163 0zm19 -172c0,-14 -9,-19 -19,-19l-236 0 0 -60c0,-9 -5,-18 -19,-18 -12,0 -19,9 -19,18l0 159c0,9 6,18 19,18 13,0 19,-9 19,-18l0 -60 236 0c10,0 19,-6 19,-19zm-4 -285c0,-9 -5,-18 -19,-18 -12,0 -19,9 -19,18l0 113 -93 0 0 -93c0,-9 -5,-18 -19,-18 -12,0 -19,9 -19,18l0 93 -84 0 0 -113c0,-9 -5,-18 -19,-18 -12,0 -19,9 -19,18l0 133c0,13 9,19 19,19l250 0c10,0 19,-6 19,-19l0 -133zm-52 -126c-23,-3 -199,-24 -199,-24l0 -72 236 0c10,0 19,-6 19,-20 0,-13 -9,-19 -19,-19l-254 0c-10,0 -19,6 -19,19l0 107c0,12 8,19 19,20 12,1 192,23 208,26 9,1 16,2 20,5 8,4 10,11 10,23 0,10 6,19 19,19 14,0 19,-9 19,-19 0,-36 -12,-51 -32,-59 -8,-3 -15,-5 -26,-6zm52 -349c0,-9 -5,-18 -19,-18 -12,0 -19,9 -19,18l0 113 -93 0 0 -93c0,-9 -5,-18 -19,-18 -12,0 -19,9 -19,18l0 93 -84 0 0 -113c0,-9 -5,-18 -19,-18 -12,0 -19,9 -19,18l0 133c0,13 9,19 19,19l250 0c10,0 19,-6 19,-19l0 -133zm-273 -250c-10,0 -19,6 -19,19 0,14 9,19 19,19l102 0 0 108 -102 0c-10,0 -19,5 -19,19 0,13 9,19 19,19l258 0c10,0 19,-6 19,-19 0,-14 -9,-19 -19,-19l-119 0 0 -108 119 0c10,0 19,-5 19,-19 0,-13 -9,-19 -19,-19l-258 0zm674 6185l0 -67c0,-28 19,-40 44,-40l9 0c25,0 39,11 39,40l0 67 -91 0zm-36 0l-86 0 0 -50c0,-28 10,-40 35,-40l10 0c25,0 42,12 42,40l0 50zm80 -146c-34,0 -58,15 -67,46 -11,-18 -29,-28 -54,-28l-10 0c-46,0 -72,26 -72,78l0 69c0,14 9,20 19,20l250 0c10,0 19,-6 19,-20l0 -86c0,-52 -30,-78 -76,-78l-9 0zm52 -235c0,28 -20,40 -45,40l-132 0c-26,0 -45,-11 -45,-40l0 -42c0,-18 7,-27 24,-29 10,-1 19,-6 19,-19 0,-14 -9,-20 -19,-20 -43,0 -61,26 -61,67l0 42c0,52 37,78 82,78l132 0c45,0 82,-26 82,-78l0 -42c0,-42 -19,-67 -61,-67 -10,0 -19,6 -19,20 0,13 9,18 19,19 17,2 24,11 24,29l0 42zm-177 -193c-26,0 -45,-11 -45,-40l0 -33c0,-28 20,-40 45,-40l132 0c26,0 45,11 45,40l0 33c0,28 -20,40 -45,40l-132 0zm0 -151c-45,0 -82,26 -82,78l0 33c0,52 37,78 82,78l132 0c45,0 82,-26 82,-78l0 -33c0,-52 -37,-78 -82,-78l-132 0zm0 -93c-26,0 -45,-11 -45,-40l0 -33c0,-28 20,-40 45,-40l132 0c26,0 45,11 45,40l0 33c0,28 -20,40 -45,40l-132 0zm0 -151c-45,0 -82,26 -82,78l0 33c0,52 37,78 82,78l132 0c45,0 82,-26 82,-78l0 -33c0,-52 -37,-78 -82,-78l-132 0zm214 -119c0,-14 -9,-19 -19,-19l-236 0 0 -60c0,-9 -5,-18 -19,-18 -12,0 -19,9 -19,18l0 159c0,9 6,18 19,18 13,0 19,-9 19,-18l0 -60 236 0c10,0 19,-6 19,-19zm-133 -172l0 -67c0,-28 19,-40 44,-40l9 0c25,0 39,11 39,40l0 67 -91 0zm-36 0l-86 0 0 -50c0,-28 10,-40 35,-40l10 0c25,0 42,12 42,40l0 50zm80 -146c-34,0 -58,15 -67,46 -11,-18 -29,-28 -54,-28l-10 0c-46,0 -72,26 -72,78l0 69c0,14 9,20 19,20l250 0c10,0 19,-6 19,-20l0 -86c0,-52 -30,-78 -76,-78l-9 0zm85 -202c0,-9 -5,-18 -19,-18 -12,0 -19,9 -19,18l0 113 -93 0 0 -93c0,-9 -5,-18 -19,-18 -12,0 -19,9 -19,18l0 93 -84 0 0 -113c0,-9 -5,-18 -19,-18 -12,0 -19,9 -19,18l0 133c0,13 9,19 19,19l250 0c10,0 19,-6 19,-19l0 -133zm4 -137c0,-14 -9,-19 -19,-19l-236 0 0 -60c0,-9 -5,-18 -19,-18 -12,0 -19,9 -19,18l0 159c0,9 6,18 19,18 13,0 19,-9 19,-18l0 -60 236 0c10,0 19,-6 19,-19zm-37 -198c0,28 -20,40 -45,40l-132 0c-26,0 -45,-11 -45,-40l0 -42c0,-18 7,-27 24,-29 10,-1 19,-6 19,-19 0,-14 -9,-20 -19,-20 -43,0 -61,26 -61,67l0 42c0,52 37,78 82,78l132 0c45,0 82,-26 82,-78l0 -42c0,-42 -19,-67 -61,-67 -10,0 -19,6 -19,20 0,13 9,18 19,19 17,2 24,11 24,29l0 42zm37 -229c0,-14 -9,-19 -19,-19l-236 0 0 -60c0,-9 -5,-18 -19,-18 -12,0 -19,9 -19,18l0 159c0,9 6,18 19,18 13,0 19,-9 19,-18l0 -60 236 0c10,0 19,-6 19,-19zm-133 -172l0 -67c0,-28 19,-40 44,-40l9 0c25,0 39,11 39,40l0 67 -91 0zm-36 0l-86 0 0 -50c0,-28 10,-40 35,-40l10 0c25,0 42,12 42,40l0 50zm80 -146c-34,0 -58,15 -67,46 -11,-18 -29,-28 -54,-28l-10 0c-46,0 -72,26 -72,78l0 69c0,14 9,20 19,20l250 0c10,0 19,-6 19,-20l0 -86c0,-52 -30,-78 -76,-78l-9 0zm70 -198c10,0 19,-5 19,-19 0,-14 -9,-19 -19,-19l-258 0c-10,0 -19,6 -19,20 0,8 3,13 14,19l196 110 0 0c-7,-1 -17,-2 -28,-2l-163 0c-10,0 -19,5 -19,19 0,14 9,19 19,19l258 0c10,0 19,-6 19,-20 0,-8 -3,-13 -14,-19l-196 -110 0 0c7,1 17,2 28,2l163 0zm0 -248c10,0 19,-5 19,-19 0,-14 -9,-19 -19,-19l-258 0c-10,0 -19,6 -19,20 0,8 3,13 14,19l196 110 0 0c-7,-1 -17,-2 -28,-2l-163 0c-10,0 -19,5 -19,19 0,14 9,19 19,19l258 0c10,0 19,-6 19,-20 0,-8 -3,-13 -14,-19l-196 -110 0 0c7,1 17,2 28,2l163 0zm-18 -285c0,28 -20,40 -45,40l-132 0c-26,0 -45,-11 -45,-40l0 -42c0,-18 7,-27 24,-29 10,-1 19,-6 19,-19 0,-14 -9,-20 -19,-20 -43,0 -61,26 -61,67l0 42c0,52 37,78 82,78l132 0c45,0 82,-26 82,-78l0 -42c0,-42 -19,-67 -61,-67 -10,0 -19,6 -19,20 0,13 9,18 19,19 17,2 24,11 24,29l0 42zm-89 -344l0 -52 107 0c10,0 19,-5 19,-19 0,-13 -9,-19 -19,-19l-258 0c-10,0 -19,6 -19,19 0,14 9,19 19,19l114 0c0,0 0,42 0,58 0,24 -16,37 -35,37 -17,0 -79,0 -79,0 -10,0 -19,5 -19,19 0,13 9,19 19,19l74 0c44,0 77,-20 77,-82zm100 -181c-12,0 -22,6 -22,22 0,16 10,22 22,22l4 0c12,0 22,-6 22,-22 0,-16 -10,-22 -22,-22l-4 0zm-270 -132c0,7 3,11 7,15 22,20 44,43 66,67 7,7 16,10 26,0 9,-9 6,-18 0,-25 -12,-15 -28,-30 -43,-43l200 0 0 51c0,10 5,19 19,19 13,0 19,-8 19,-19l0 -133c0,-10 -5,-19 -19,-19 -13,0 -19,8 -19,19l0 43 -236 0c-11,0 -19,3 -19,18l0 7zm205 -316c-34,0 -61,14 -70,44 -11,-19 -29,-30 -56,-30l-5 0c-47,0 -74,27 -74,80l0 22c0,42 18,69 62,69 11,0 19,-5 19,-19 0,-14 -9,-19 -19,-19 -17,0 -25,-12 -25,-30l0 -22c0,-29 11,-42 37,-42l5 0c26,0 44,15 44,45l0 23c0,10 5,19 18,19 13,0 18,-8 18,-19l0 -42c0,-29 19,-40 45,-40l14 0c26,0 41,12 41,42l0 44c0,18 -7,30 -25,30 -11,0 -19,5 -19,19 0,14 9,19 19,19 44,0 62,-26 62,-69l0 -44c0,-54 -30,-80 -78,-80l-14 0zm54 -235c0,28 -20,40 -45,40l-132 0c-26,0 -45,-11 -45,-40l0 -42c0,-18 7,-27 24,-29 10,-1 19,-6 19,-19 0,-14 -9,-20 -19,-20 -43,0 -61,26 -61,67l0 42c0,52 37,78 82,78l132 0c45,0 82,-26 82,-78l0 -42c0,-42 -19,-67 -61,-67 -10,0 -19,6 -19,20 0,13 9,18 19,19 17,2 24,11 24,29l0 42zm37 -229c0,-14 -9,-19 -19,-19l-236 0 0 -60c0,-9 -5,-18 -19,-18 -12,0 -19,9 -19,18l0 159c0,9 6,18 19,18 13,0 19,-9 19,-18l0 -60 236 0c10,0 19,-6 19,-19zm-26 -141c-12,0 -22,6 -22,22 0,16 10,22 22,22l4 0c12,0 22,-6 22,-22 0,-16 -10,-22 -22,-22l-4 0zm-11 -112c0,29 -15,42 -41,42l-18 0c-26,0 -45,-12 -45,-42l0 -33c0,-29 19,-42 45,-42l18 0c26,0 41,12 41,42l0 33zm-140 -12c0,29 -14,39 -40,39l-8 0c-26,0 -34,-9 -34,-39l0 -10c0,-29 8,-39 34,-39l8 0c26,0 40,9 40,39l0 10zm81 -102c-34,0 -58,15 -67,42 -11,-20 -28,-27 -54,-27l-8 0c-47,0 -71,23 -71,77l0 10c0,54 23,77 71,77l8 0c27,0 43,-7 54,-27 9,26 33,42 67,42l18 0c47,0 78,-27 78,-80l0 -33c0,-54 -30,-80 -78,-80l-18 0zm76 -162c11,0 19,-5 19,-19 0,-14 -9,-19 -19,-19l-67 0 0 -21c0,-10 -5,-19 -19,-19 -13,0 -19,8 -19,19l0 21 -80 0c-11,0 -19,5 -19,19 0,14 9,19 19,19l80 0 0 89c-47,-21 -105,-38 -156,-47 -10,-2 -21,-1 -24,12 -3,12 3,21 14,23 66,12 122,32 171,53 6,2 10,2 14,2 13,0 18,-8 18,-19l0 -116 67 0zm-11 -406l-126 88 -109 -84c-9,-7 -20,-7 -27,1 -9,10 -5,22 4,29l117 86 0 25 -107 0c-10,0 -19,6 -19,19 0,14 9,20 19,20l258 0c10,0 19,-6 19,-20 0,-13 -9,-19 -19,-19l-115 0 0 -25 126 -88c8,-5 13,-16 5,-27 -8,-12 -19,-11 -28,-5zm-184 -77c-26,0 -45,-11 -45,-40l0 -33c0,-28 20,-40 45,-40l132 0c26,0 45,11 45,40l0 33c0,28 -20,40 -45,40l-132 0zm0 -151c-45,0 -82,26 -82,78l0 33c0,52 37,78 82,78l132 0c45,0 82,-26 82,-78l0 -33c0,-52 -37,-78 -82,-78l-132 0zm173 -247l0 8 -232 0c-10,0 -19,6 -19,19l0 99c0,13 9,19 19,21l232 37 0 13c0,13 9,19 19,19l53 0c10,0 19,-6 19,-19 0,-14 -9,-20 -19,-20l-35 0 0 -157 35 0c10,0 19,-6 19,-20 0,-13 -9,-19 -19,-19l-53 0c-10,0 -19,6 -19,19zm-28 141l-186 -29 0 -66 214 0 0 100c-10,-3 -19,-5 -28,-6zm65 -354c0,-9 -5,-18 -19,-18 -12,0 -19,9 -19,18l0 113 -93 0 0 -93c0,-9 -5,-18 -19,-18 -12,0 -19,9 -19,18l0 93 -84 0 0 -113c0,-9 -5,-18 -19,-18 -12,0 -19,9 -19,18l0 133c0,13 9,19 19,19l250 0c10,0 19,-6 19,-19l0 -133zm-26 -248l-126 88 -109 -84c-9,-7 -20,-7 -27,1 -9,10 -5,22 4,29l117 86 0 25 -107 0c-10,0 -19,6 -19,19 0,14 9,20 19,20l258 0c10,0 19,-6 19,-20 0,-13 -9,-19 -19,-19l-115 0 0 -25 126 -88c8,-5 13,-16 5,-27 -8,-12 -19,-11 -28,-5zm-7 -116c0,28 -20,40 -45,40l-132 0c-26,0 -45,-11 -45,-40l0 -42c0,-18 7,-27 24,-29 10,-1 19,-6 19,-19 0,-14 -9,-20 -19,-20 -43,0 -61,26 -61,67l0 42c0,52 37,78 82,78l132 0c45,0 82,-26 82,-78l0 -42c0,-42 -19,-67 -61,-67 -10,0 -19,6 -19,20 0,13 9,18 19,19 17,2 24,11 24,29l0 42z"/>
   <path class="fil5" d="M12614 5326l72 -23c10,-3 16,-13 12,-24 -4,-11 -14,-15 -23,-12l-258 83c-9,3 -14,8 -14,19l0 2c0,12 5,16 14,19l258 83c10,3 20,-1 23,-12 4,-11 -2,-21 -12,-24l-72 -23 0 -89zm-124 51c-9,-3 -14,-4 -23,-6l0 0c10,-2 14,-3 23,-6l90 -28 0 69 -90 -28z"/>
   <path class="fil6 str4" d="M9027 13627c0,-12 -8,-24 -24,-24 -17,0 -24,11 -24,24l0 129 -137 0 0 -129c0,-12 -7,-24 -24,-24 -17,0 -24,11 -24,24l0 326c0,12 8,24 24,24 17,0 24,-11 24,-24l0 -150 137 0 0 150c0,12 7,24 24,24 17,0 24,-11 24,-24l0 -326zm259 243l29 91c4,12 16,20 30,15 14,-5 19,-17 15,-30l-105 -325c-4,-11 -10,-18 -24,-18l-3 0c-15,0 -21,6 -24,18l-105 325c-4,12 2,25 15,30 14,5 26,-3 30,-15l29 -91 113 0zm-64 -157c4,-11 5,-17 8,-30l1 0c3,12 4,18 8,30l35 113 -87 0 35 -113zm464 213l-10 0 0 -293c0,-12 -7,-24 -24,-24l-125 0c-17,0 -24,11 -26,24l-47 293 -16 0c-17,0 -24,11 -24,24l0 67c0,12 7,24 24,24 18,0 25,-11 25,-24l0 -44 198 0 0 44c0,12 7,24 25,24 17,0 24,-11 24,-24l0 -67c0,-12 -7,-24 -24,-24zm-178 -36l36 -234 83 0 0 270 -127 0c4,-13 6,-24 7,-36zm456 -234l0 298c0,12 7,24 24,24 17,0 24,-11 24,-24l0 -321c0,-12 -8,-24 -24,-24l-175 0c-17,0 -24,11 -24,24l0 321c0,12 8,24 24,24 17,0 24,-11 24,-24l0 -298 126 0zm339 298c0,12 7,24 23,24 18,0 24,-11 24,-24l0 -326c0,-12 -7,-24 -25,-24 -10,0 -17,4 -24,18l-139 247 -1 0c1,-9 2,-22 2,-36l0 -205c0,-12 -7,-24 -23,-24 -18,0 -24,11 -24,24l0 326c0,12 7,24 25,24 10,0 17,-4 24,-18l139 -247 1 0c-1,9 -2,22 -2,36l0 205zm245 -23c-36,0 -50,-25 -50,-57l0 -166c0,-32 14,-57 50,-57l53 0c22,0 34,9 36,31 1,12 7,24 24,24 18,0 25,-11 25,-24 0,-54 -32,-77 -85,-77l-53 0c-66,0 -99,47 -99,104l0 166c0,57 33,104 99,104l53 0c53,0 85,-23 85,-77 0,-12 -7,-24 -25,-24 -17,0 -23,11 -24,24 -2,22 -14,31 -36,31l-53 0zm356 -181l-82 0 0 -122c0,-12 -7,-24 -24,-24 -17,0 -24,11 -24,24l0 321c0,12 7,24 25,24l106 0c67,0 100,-44 100,-101l0 -23c0,-58 -31,-99 -100,-99zm51 127c0,31 -14,49 -50,49l-83 0 0 -129 82 0c36,0 51,18 51,49l0 31zm179 -125c0,-15 -7,-28 -28,-28 -21,0 -28,13 -28,28l0 5c0,15 7,28 28,28 21,0 28,-13 28,-28l0 -5zm0 192c0,-15 -7,-28 -28,-28 -21,0 -28,13 -28,28l0 5c0,15 7,28 28,28 21,0 28,-13 28,-28l0 -5zm-10072 619l70 -69c8,-8 10,-18 1,-28 -10,-10 -20,-7 -28,1l-83 82c-4,4 -7,9 -7,15 0,5 3,10 7,15l83 82c8,7 18,10 28,1 10,-10 7,-20 -1,-28l-70 -69zm113 0l70 -69c8,-8 10,-18 1,-28 -10,-10 -20,-7 -28,1l-83 82c-4,4 -7,9 -7,15 0,5 3,10 7,15l83 82c8,7 18,10 28,1 10,-10 7,-20 -1,-28l-70 -69zm286 -85l-75 0 0 -97 133 0c12,0 23,-7 23,-23 0,-16 -11,-23 -23,-23l-156 0c-18,0 -25,11 -25,24l0 316c0,12 7,24 25,24l99 0c67,0 100,-44 100,-101l0 -23c0,-58 -33,-96 -100,-96zm51 124c0,31 -14,49 -50,49l-76 0 0 -129 75 0c36,0 51,18 51,49l0 31zm330 -273c-70,0 -100,59 -100,116l0 37 -47 0 0 -129c0,-12 -5,-24 -23,-24 -17,0 -23,11 -23,24l0 326c0,12 7,24 23,24 17,0 23,-11 23,-24l0 -150 47 0 0 69c0,57 30,105 96,105l28 0c66,0 99,-47 99,-104l0 -166c0,-57 -33,-104 -99,-104l-23 0zm73 270c0,32 -14,57 -50,57l-25 0c-36,0 -50,-25 -50,-57l0 -151c0,-32 14,-73 51,-73l23 0c35,0 50,25 50,55l0 169zm210 33c4,-30 31,-252 31,-252l91 0 0 298c0,12 7,24 25,24 17,0 24,-11 24,-24l0 -321c0,-12 -7,-24 -24,-24l-136 0c-15,0 -23,10 -25,24 -2,15 -30,242 -32,263 -2,12 -3,20 -6,25 -5,10 -14,12 -29,12 -12,0 -24,8 -24,24 0,18 11,23 24,23 45,0 64,-15 74,-41 4,-10 6,-19 7,-33zm347 0c4,-30 31,-252 31,-252l91 0 0 298c0,12 7,24 25,24 17,0 24,-11 24,-24l0 -321c0,-12 -7,-24 -24,-24l-136 0c-15,0 -23,10 -25,24 -2,15 -30,242 -32,263 -2,12 -3,20 -6,25 -5,10 -14,12 -29,12 -12,0 -24,8 -24,24 0,18 11,23 24,23 45,0 64,-15 74,-41 4,-10 6,-19 7,-33zm466 66c12,0 23,-7 23,-23 0,-16 -11,-23 -23,-23l-142 0 0 -117 117 0c12,0 23,-7 23,-23 0,-16 -11,-23 -23,-23l-117 0 0 -107 142 0c12,0 23,-7 23,-23 0,-16 -11,-23 -23,-23l-167 0c-17,0 -24,11 -24,24l0 316c0,12 7,24 24,24l167 0zm199 5c17,0 24,-11 24,-24l0 -298 76 0c12,0 23,-7 23,-23 0,-16 -11,-23 -23,-23l-201 0c-12,0 -23,8 -23,23 0,17 11,23 23,23l76 0 0 298c0,12 7,24 24,24zm385 -5c12,0 23,-7 23,-23 0,-16 -11,-23 -23,-23l-142 0 0 -117 117 0c12,0 23,-7 23,-23 0,-16 -11,-23 -23,-23l-117 0 0 -107 142 0c12,0 23,-7 23,-23 0,-16 -11,-23 -23,-23l-167 0c-17,0 -24,11 -24,24l0 316c0,12 7,24 24,24l167 0zm341 -345c0,-12 -8,-24 -24,-24 -17,0 -24,11 -24,24l0 129 -137 0 0 -129c0,-12 -7,-24 -24,-24 -17,0 -24,11 -24,24l0 326c0,12 8,24 24,24 17,0 24,-11 24,-24l0 -150 137 0 0 150c0,12 7,24 24,24 17,0 24,-11 24,-24l0 -326zm235 122l-82 0 0 -122c0,-12 -7,-24 -24,-24 -17,0 -24,11 -24,24l0 321c0,12 7,24 25,24l106 0c67,0 100,-44 100,-101l0 -23c0,-58 -31,-99 -100,-99zm51 127c0,31 -14,49 -50,49l-83 0 0 -129 82 0c36,0 51,18 51,49l0 31zm508 -250c0,-12 -8,-24 -24,-24 -17,0 -24,11 -24,24l0 129 -137 0 0 -129c0,-12 -7,-24 -24,-24 -17,0 -24,11 -24,24l0 326c0,12 8,24 24,24 17,0 24,-11 24,-24l0 -150 137 0 0 150c0,12 7,24 24,24 17,0 24,-11 24,-24l0 -326zm295 345c12,0 23,-7 23,-23 0,-16 -11,-23 -23,-23l-142 0 0 -117 117 0c12,0 23,-7 23,-23 0,-16 -11,-23 -23,-23l-117 0 0 -107 142 0c12,0 23,-7 23,-23 0,-16 -11,-23 -23,-23l-167 0c-17,0 -24,11 -24,24l0 316c0,12 7,24 24,24l167 0zm351 -47l-10 0 0 -293c0,-12 -7,-24 -24,-24l-125 0c-17,0 -24,11 -26,24l-47 293 -16 0c-17,0 -24,11 -24,24l0 67c0,12 7,24 24,24 18,0 25,-11 25,-24l0 -44 198 0 0 44c0,12 7,24 25,24 17,0 24,-11 24,-24l0 -67c0,-12 -7,-24 -24,-24zm-178 -36l36 -234 83 0 0 270 -127 0c4,-13 6,-24 7,-36zm472 83c12,0 23,-7 23,-23 0,-16 -11,-23 -23,-23l-142 0 0 -117 117 0c12,0 23,-7 23,-23 0,-16 -11,-23 -23,-23l-117 0 0 -107 142 0c12,0 23,-7 23,-23 0,-16 -11,-23 -23,-23l-167 0c-17,0 -24,11 -24,24l0 316c0,12 7,24 24,24l167 0zm225 -397c47,0 72,-34 72,-70 0,-11 -8,-18 -19,-18 -11,0 -18,7 -19,19 -2,19 -14,33 -34,33 -20,0 -32,-14 -34,-33 -1,-11 -8,-19 -19,-19 -11,0 -19,7 -19,18 0,36 25,70 72,70zm68 378c0,12 7,24 23,24 18,0 24,-11 24,-24l0 -326c0,-12 -7,-24 -25,-24 -10,0 -17,4 -24,18l-139 247 -1 0c1,-9 2,-22 2,-36l0 -205c0,-12 -7,-24 -23,-24 -18,0 -24,11 -24,24l0 326c0,12 7,24 25,24 10,0 17,-4 24,-18l139 -247 1 0c-1,9 -2,22 -2,36l0 205zm245 -23c-36,0 -50,-25 -50,-57l0 -166c0,-32 14,-57 50,-57l53 0c22,0 34,9 36,31 1,12 7,24 24,24 18,0 25,-11 25,-24 0,-54 -32,-77 -85,-77l-53 0c-66,0 -99,47 -99,104l0 166c0,57 33,104 99,104l53 0c53,0 85,-23 85,-77 0,-12 -7,-24 -25,-24 -17,0 -23,11 -24,24 -2,22 -14,31 -36,31l-53 0zm315 47c17,0 24,-11 24,-24l0 -298 76 0c12,0 23,-7 23,-23 0,-16 -11,-23 -23,-23l-201 0c-12,0 -23,8 -23,23 0,17 11,23 23,23l76 0 0 298c0,12 7,24 24,24zm243 -167l85 0c36,0 50,23 50,55l0 11c0,31 -14,49 -50,49l-85 0 0 -115zm0 -46l0 -109 63 0c35,0 50,12 50,44l0 12c0,31 -15,53 -50,53l-63 0zm184 101c0,-43 -19,-73 -58,-85 23,-14 35,-37 35,-69l0 -12c0,-58 -33,-90 -99,-90l-87 0c-18,0 -25,11 -25,24l0 316c0,12 7,24 25,24l109 0c66,0 99,-37 99,-96l0 -11zm275 88c0,12 7,24 23,24 18,0 24,-11 24,-24l0 -326c0,-12 -7,-24 -25,-24 -10,0 -17,4 -24,18l-139 247 -1 0c1,-9 2,-22 2,-36l0 -205c0,-12 -7,-24 -23,-24 -18,0 -24,11 -24,24l0 326c0,12 7,24 25,24 10,0 17,-4 24,-18l139 -247 1 0c-1,9 -2,22 -2,36l0 205zm242 24c17,0 24,-11 24,-24l0 -298 76 0c12,0 23,-7 23,-23 0,-16 -11,-23 -23,-23l-201 0c-12,0 -23,8 -23,23 0,17 11,23 23,23l76 0 0 298c0,12 7,24 24,24zm385 -5c12,0 23,-7 23,-23 0,-16 -11,-23 -23,-23l-142 0 0 -117 117 0c12,0 23,-7 23,-23 0,-16 -11,-23 -23,-23l-117 0 0 -107 142 0c12,0 23,-7 23,-23 0,-16 -11,-23 -23,-23l-167 0c-17,0 -24,11 -24,24l0 316c0,12 7,24 24,24l167 0zm184 -66c4,-30 31,-252 31,-252l91 0 0 298c0,12 7,24 25,24 17,0 24,-11 24,-24l0 -321c0,-12 -7,-24 -24,-24l-136 0c-15,0 -23,10 -25,24 -2,15 -30,242 -32,263 -2,12 -3,20 -6,25 -5,10 -14,12 -29,12 -12,0 -24,8 -24,24 0,18 11,23 24,23 45,0 64,-15 74,-41 4,-10 6,-19 7,-33zm466 66c12,0 23,-7 23,-23 0,-16 -11,-23 -23,-23l-142 0 0 -117 117 0c12,0 23,-7 23,-23 0,-16 -11,-23 -23,-23l-117 0 0 -107 142 0c12,0 23,-7 23,-23 0,-16 -11,-23 -23,-23l-167 0c-17,0 -24,11 -24,24l0 316c0,12 7,24 24,24l167 0zm341 -345c0,-12 -8,-24 -24,-24 -17,0 -24,11 -24,24l0 129 -137 0 0 -129c0,-12 -7,-24 -24,-24 -17,0 -24,11 -24,24l0 326c0,12 8,24 24,24 17,0 24,-11 24,-24l0 -150 137 0 0 150c0,12 7,24 24,24 17,0 24,-11 24,-24l0 -326zm292 183l85 0c36,0 50,23 50,55l0 11c0,31 -14,49 -50,49l-85 0 0 -115zm0 -46l0 -109 63 0c35,0 50,12 50,44l0 12c0,31 -15,53 -50,53l-63 0zm184 101c0,-43 -19,-73 -58,-85 23,-14 35,-37 35,-69l0 -12c0,-58 -33,-90 -99,-90l-87 0c-18,0 -25,11 -25,24l0 316c0,12 7,24 25,24l109 0c66,0 99,-37 99,-96l0 -11zm321 65c-36,0 -50,-25 -50,-57l0 -166c0,-32 14,-57 50,-57l53 0c22,0 34,9 36,31 1,12 7,24 24,24 18,0 25,-11 25,-24 0,-54 -32,-77 -85,-77l-53 0c-66,0 -99,47 -99,104l0 166c0,57 33,104 99,104l53 0c53,0 85,-23 85,-77 0,-12 -7,-24 -25,-24 -17,0 -23,11 -24,24 -2,22 -14,31 -36,31l-53 0zm268 -224c0,-32 14,-57 50,-57l42 0c36,0 50,25 50,57l0 166c0,32 -14,57 -50,57l-42 0c-36,0 -50,-25 -50,-57l0 -166zm190 0c0,-57 -33,-104 -99,-104l-42 0c-66,0 -99,47 -99,104l0 166c0,57 33,104 99,104l42 0c66,0 99,-47 99,-104l0 -166zm142 0c0,-32 14,-57 50,-57l42 0c36,0 50,25 50,57l0 166c0,32 -14,57 -50,57l-42 0c-36,0 -50,-25 -50,-57l0 -166zm190 0c0,-57 -33,-104 -99,-104l-42 0c-66,0 -99,47 -99,104l0 166c0,57 33,104 99,104l42 0c66,0 99,-47 99,-104l0 -166zm176 270c17,0 24,-11 24,-24l0 -298 76 0c12,0 23,-7 23,-23 0,-16 -11,-23 -23,-23l-201 0c-12,0 -23,8 -23,23 0,17 11,23 23,23l76 0 0 298c0,12 7,24 24,24zm243 -167l85 0c36,0 50,23 50,55l0 11c0,31 -14,49 -50,49l-85 0 0 -115zm0 -46l0 -109 63 0c35,0 50,12 50,44l0 12c0,31 -15,53 -50,53l-63 0zm184 101c0,-43 -19,-73 -58,-85 23,-14 35,-37 35,-69l0 -12c0,-58 -33,-90 -99,-90l-87 0c-18,0 -25,11 -25,24l0 316c0,12 7,24 25,24l109 0c66,0 99,-37 99,-96l0 -11zm280 107c12,0 23,-7 23,-23 0,-16 -11,-23 -23,-23l-142 0 0 -117 117 0c12,0 23,-7 23,-23 0,-16 -11,-23 -23,-23l-117 0 0 -107 142 0c12,0 23,-7 23,-23 0,-16 -11,-23 -23,-23l-167 0c-17,0 -24,11 -24,24l0 316c0,12 7,24 24,24l167 0zm199 5c17,0 24,-11 24,-24l0 -298 76 0c12,0 23,-7 23,-23 0,-16 -11,-23 -23,-23l-201 0c-12,0 -23,8 -23,23 0,17 11,23 23,23l76 0 0 298c0,12 7,24 24,24zm275 -47c-36,0 -50,-25 -50,-57l0 -166c0,-32 14,-57 50,-57l53 0c22,0 34,9 36,31 1,12 7,24 24,24 18,0 25,-11 25,-24 0,-54 -32,-77 -85,-77l-53 0c-66,0 -99,47 -99,104l0 166c0,57 33,104 99,104l53 0c53,0 85,-23 85,-77 0,-12 -7,-24 -25,-24 -17,0 -23,11 -24,24 -2,22 -14,31 -36,31l-53 0zm315 47c17,0 24,-11 24,-24l0 -298 76 0c12,0 23,-7 23,-23 0,-16 -11,-23 -23,-23l-201 0c-12,0 -23,8 -23,23 0,17 11,23 23,23l76 0 0 298c0,12 7,24 24,24zm243 -167l85 0c36,0 50,23 50,55l0 11c0,31 -14,49 -50,49l-85 0 0 -115zm0 -46l0 -109 63 0c35,0 50,12 50,44l0 12c0,31 -15,53 -50,53l-63 0zm184 101c0,-43 -19,-73 -58,-85 23,-14 35,-37 35,-69l0 -12c0,-58 -33,-90 -99,-90l-87 0c-18,0 -25,11 -25,24l0 316c0,12 7,24 25,24l109 0c66,0 99,-37 99,-96l0 -11zm275 88c0,12 7,24 23,24 18,0 24,-11 24,-24l0 -326c0,-12 -7,-24 -25,-24 -10,0 -17,4 -24,18l-139 247 -1 0c1,-9 2,-22 2,-36l0 -205c0,-12 -7,-24 -23,-24 -18,0 -24,11 -24,24l0 326c0,12 7,24 25,24 10,0 17,-4 24,-18l139 -247 1 0c-1,9 -2,22 -2,36l0 205zm338 0c0,12 7,24 23,24 18,0 24,-11 24,-24l0 -326c0,-12 -7,-24 -25,-24 -10,0 -17,4 -24,18l-139 247 -1 0c1,-9 2,-22 2,-36l0 -205c0,-12 -7,-24 -23,-24 -18,0 -24,11 -24,24l0 326c0,12 7,24 25,24 10,0 17,-4 24,-18l139 -247 1 0c-1,9 -2,22 -2,36l0 205zm385 -23c-36,0 -50,-25 -50,-57l0 -166c0,-32 14,-57 50,-57l53 0c22,0 34,9 36,31 1,12 7,24 24,24 18,0 25,-11 25,-24 0,-54 -32,-77 -85,-77l-53 0c-66,0 -99,47 -99,104l0 166c0,57 33,104 99,104l53 0c53,0 85,-23 85,-77 0,-12 -7,-24 -25,-24 -17,0 -23,11 -24,24 -2,22 -14,31 -36,31l-53 0zm460 -112l66 0 0 135c0,12 7,24 24,24 17,0 24,-11 24,-24l0 -326c0,-12 -8,-24 -24,-24 -17,0 -24,11 -24,24l0 144c0,0 -53,0 -74,0 -31,0 -46,-20 -46,-45 0,-22 0,-99 0,-99 0,-12 -7,-24 -24,-24 -17,0 -24,11 -24,24l0 94c0,56 25,97 103,97zm254 126c0,-15 -7,-28 -28,-28 -21,0 -28,13 -28,28l0 5c0,15 7,28 28,28 21,0 28,-13 28,-28l0 -5zm192 -341c-8,0 -14,4 -19,8 -25,28 -54,56 -84,84 -9,9 -13,20 -1,32 11,11 22,7 32,-1 19,-16 38,-35 54,-55l0 253 -65 0c-13,0 -23,7 -23,23 0,17 10,23 23,23l168 0c13,0 23,-7 23,-23 0,-17 -10,-23 -23,-23l-55 0 0 -298c0,-14 -4,-24 -22,-24l-9 0zm425 259c0,-43 -18,-76 -56,-88 24,-14 38,-37 38,-71l0 -7c0,-60 -34,-93 -101,-93l-28 0c-54,0 -87,23 -87,78 0,14 7,24 24,24 18,0 24,-11 24,-24 0,-22 15,-31 38,-31l28 0c37,0 53,14 53,46l0 7c0,33 -19,56 -57,56l-30 0c-13,0 -23,6 -23,23 0,17 10,23 23,23l53 0c37,0 51,24 51,57l0 17c0,33 -16,51 -53,51l-56 0c-23,0 -38,-9 -38,-31 0,-14 -7,-24 -24,-24 -18,0 -24,11 -24,24 0,55 33,78 87,78l56 0c68,0 101,-38 101,-98l0 -17zm321 69c-36,0 -50,-25 -50,-57l0 -166c0,-32 14,-57 50,-57l53 0c22,0 34,9 36,31 1,12 7,24 24,24 18,0 25,-11 25,-24 0,-54 -32,-77 -85,-77l-53 0c-66,0 -99,47 -99,104l0 166c0,57 33,104 99,104l53 0c53,0 85,-23 85,-77 0,-12 -7,-24 -25,-24 -17,0 -23,11 -24,24 -2,22 -14,31 -36,31l-53 0zm315 47c17,0 24,-11 24,-24l0 -298 76 0c12,0 23,-7 23,-23 0,-16 -11,-23 -23,-23l-201 0c-12,0 -23,8 -23,23 0,17 11,23 23,23l76 0 0 298c0,12 7,24 24,24zm203 -33c0,-15 -7,-28 -28,-28 -21,0 -28,13 -28,28l0 5c0,15 7,28 28,28 21,0 28,-13 28,-28l0 -5z"/>
   <path class="fil6 str4" d="M15788 14655c-37,0 -53,-19 -53,-51l0 -22c0,-33 16,-57 53,-57l42 0c37,0 53,24 53,57l0 22c0,33 -16,51 -53,51l-42 0zm15 -177c-37,0 -49,-18 -49,-51l0 -10c0,-32 12,-43 49,-43l12 0c37,0 49,10 49,43l0 10c0,33 -12,51 -49,51l-12 0zm128 103c0,-43 -19,-73 -53,-85 25,-14 34,-35 34,-69l0 -10c0,-60 -30,-89 -98,-89l-12 0c-68,0 -98,30 -98,89l0 10c0,34 9,55 34,69 -33,12 -53,42 -53,85l0 22c0,60 34,98 101,98l42 0c68,0 101,-38 101,-98l0 -22zm229 96c0,14 6,24 24,24 18,0 24,-11 24,-24l0 -84 27 0c13,0 23,-7 23,-23 0,-17 -10,-23 -23,-23l-27 0 0 -101c0,-14 -6,-24 -24,-24 -18,0 -24,11 -24,24l0 101 -113 0c26,-59 48,-133 59,-197 2,-12 1,-26 -16,-30 -16,-4 -27,4 -30,17 -16,83 -41,154 -67,216 -3,7 -3,12 -3,18 0,17 10,23 23,23l146 0 0 84zm538 -14l-112 -159 106 -138c9,-12 9,-25 -1,-34 -12,-11 -28,-6 -36,5l-109 148 -31 0 0 -135c0,-12 -7,-24 -24,-24 -18,0 -25,11 -25,24l0 326c0,12 7,24 25,24 17,0 24,-11 24,-24l0 -145 32 0 112 159c7,10 20,16 34,7 15,-10 14,-24 6,-35zm122 -232c0,-32 14,-57 50,-57l42 0c36,0 50,25 50,57l0 166c0,32 -14,57 -50,57l-42 0c-36,0 -50,-25 -50,-57l0 -166zm190 0c0,-57 -33,-104 -99,-104l-42 0c-66,0 -99,47 -99,104l0 166c0,57 33,104 99,104l42 0c66,0 99,-47 99,-104l0 -166zm336 218l-10 0 0 -293c0,-12 -7,-24 -24,-24l-125 0c-17,0 -24,11 -26,24l-47 293 -16 0c-17,0 -24,11 -24,24l0 67c0,12 7,24 24,24 18,0 25,-11 25,-24l0 -44 198 0 0 44c0,12 7,24 25,24 17,0 24,-11 24,-24l0 -67c0,-12 -7,-24 -24,-24zm-178 -36l36 -234 83 0 0 270 -127 0c4,-13 6,-24 7,-36zm472 83c12,0 23,-7 23,-23 0,-16 -11,-23 -23,-23l-142 0 0 -117 117 0c12,0 23,-7 23,-23 0,-16 -11,-23 -23,-23l-117 0 0 -107 142 0c12,0 23,-7 23,-23 0,-16 -11,-23 -23,-23l-167 0c-17,0 -24,11 -24,24l0 316c0,12 7,24 24,24l167 0zm338 -33l-112 -159 106 -138c9,-12 9,-25 -1,-34 -12,-11 -28,-6 -36,5l-109 148 -31 0 0 -135c0,-12 -7,-24 -24,-24 -18,0 -25,11 -25,24l0 326c0,12 7,24 25,24 17,0 24,-11 24,-24l0 -145 32 0 112 159c7,10 20,16 34,7 15,-10 14,-24 6,-35zm172 -8c-36,0 -50,-25 -50,-57l0 -166c0,-32 14,-57 50,-57l53 0c22,0 34,9 36,31 1,12 7,24 24,24 18,0 25,-11 25,-24 0,-54 -32,-77 -85,-77l-53 0c-66,0 -99,47 -99,104l0 166c0,57 33,104 99,104l53 0c53,0 85,-23 85,-77 0,-12 -7,-24 -25,-24 -17,0 -23,11 -24,24 -2,22 -14,31 -36,31l-53 0zm385 -61l29 91c4,12 16,20 30,15 14,-5 19,-17 15,-30l-105 -325c-4,-11 -10,-18 -24,-18l-3 0c-15,0 -21,6 -24,18l-105 325c-4,12 2,25 15,30 14,5 26,-3 30,-15l29 -91 113 0zm-64 -157c4,-11 5,-17 8,-30l1 0c3,12 4,18 8,30l35 113 -87 0 35 -113zm312 194c-8,8 -10,18 -1,28 10,10 20,7 28,-1l83 -82c4,-4 7,-9 7,-15 0,-5 -3,-10 -7,-15l-83 -82c-8,-7 -18,-10 -28,-1 -10,10 -7,20 1,28l70 69 -70 69zm-113 0c-8,8 -10,18 -1,28 10,10 20,7 28,-1l83 -82c4,-4 7,-9 7,-15 0,-5 -3,-10 -7,-15l-83 -82c-8,-7 -18,-10 -28,-1 -10,10 -7,20 1,28l70 69 -70 69z"/>
   <path class="fil4 str5" d="M8029 11162c376,-101 763,122 863,499 101,376 -122,763 -499,863 -376,101 -763,-122 -863,-499 -101,-376 122,-763 499,-863zm-345 683c-1,-234 154,-448 391,-511 236,-63 478,44 594,247m70 259c1,234 -154,448 -391,511 -236,63 -478,-45 -594,-247m534 68c-62,17 -8,-58 -82,-38 -35,9 -93,106 -110,94 -18,-13 -72,-54 -64,-73 17,-42 21,-90 67,-116 -32,-22 -127,11 -137,-35 0,-1 -201,-117 -110,-197 18,-15 -19,-72 -6,-113 11,-34 269,-5 259,-41 -4,-17 -33,-57 -93,-63 -10,-1 55,-17 90,-31 7,-3 -17,-26 -13,-29 14,-11 15,-14 33,-19m685 162c0,0 -39,40 -10,47m-1169 305c-3,-27 43,-28 1,-59m681 201c62,-17 -22,-54 52,-74 35,-9 133,46 142,26 9,-21 35,-82 19,-95 -36,-28 -64,-68 -116,-67 16,-35 115,-54 101,-99 0,-1 115,-202 -3,-226 -23,-5 -19,-72 -52,-101 -27,-24 -235,131 -245,94 -4,-17 0,-66 48,-101 8,-6 -56,13 -94,18 -8,1 1,-31 -3,-31 -18,-2 -20,-5 -38,1"/>
  </g>
 </g>
</svg>
