<?xml version="1.0" encoding="UTF-8"?>
<!DOCTYPE svg PUBLIC "-//W3C//DTD SVG 1.1//EN" "http://www.w3.org/Graphics/SVG/1.1/DTD/svg11.dtd">
<!-- Creator: CorelDRAW X6 -->
<svg xmlns="http://www.w3.org/2000/svg" xml:space="preserve" width="200mm" height="200mm" version="1.1" style="shape-rendering:geometricPrecision; text-rendering:geometricPrecision; image-rendering:optimizeQuality; fill-rule:evenodd; clip-rule:evenodd"
viewBox="0 0 20000 20000"
 xmlns:xlink="http://www.w3.org/1999/xlink">
 <defs>
  <style type="text/css">
   <![CDATA[
    .str2 {stroke:#CC7588;stroke-width:14.52}
    .str1 {stroke:#CC7588;stroke-width:32.31}
    .str3 {stroke:#477FC0;stroke-width:120;stroke-linecap:round;stroke-linejoin:round}
    .str0 {stroke:#024541;stroke-width:159.99;stroke-linecap:round;stroke-linejoin:round}
    .str4 {stroke:#008DD2;stroke-width:71.33;stroke-linecap:round;stroke-linejoin:round}
    .fil3 {fill:none}
    .fil7 {fill:none;fill-rule:nonzero}
    .fil4 {fill:#CC7588}
    .fil2 {fill:#CDDBAC}
    .fil1 {fill:#EBF2D9}
    .fil6 {fill:#4D897C;fill-rule:nonzero}
    .fil5 {fill:#CC7588;fill-rule:nonzero}
    .fil0 {fill:url(#id0)}
   ]]>
  </style>
  <radialGradient id="id0" gradientUnits="userSpaceOnUse" cx="10000" cy="10000" r="10000" fx="10000" fy="10000">
   <stop offset="0" style="stop-color:#FEFEFE"/>
   <stop offset="0.439216" style="stop-color:#FEFEFE"/>
   <stop offset="1" style="stop-color:#D1E2F2"/>
  </radialGradient>
 </defs>
 <g id="Layer_x0020_1">
  <metadata id="CorelCorpID_0Corel-Layer"/>
  <g id="_839431136">
   <polygon class="fil0" points="0,0 20000,0 20000,20000 0,20000 "/>
   <path class="fil1" d="M7014 4863l0 8832c2205,0 3683,0 5888,0l0 -8832 -5888 0z"/>
   <path class="fil2" d="M7014 4863l5888 0 0 3361 -5888 -2798c10,-289 0,-370 0,-563z"/>
   <path class="fil3 str0" d="M7014 4863l0 8832c2205,0 3683,0 5888,0l0 -8832 -5888 0z"/>
   <path class="fil4 str1" d="M6612 3641c164,0 312,68 417,177l220 -221 -197 760 -559 0 220 -222 0 0c-105,-106 -251,-172 -413,-172 -321,0 -582,260 -582,582 0,315 251,572 564,581l322 -322c-318,-4 -574,-263 -574,-582 0,-321 260,-582 582,-582z"/>
   <path class="fil5 str2" d="M4746 14427c0,-12 -8,-24 -24,-24 -17,0 -24,11 -24,24l0 129 -137 0 0 -129c0,-12 -7,-24 -24,-24 -17,0 -24,11 -24,24l0 326c0,12 8,24 24,24 17,0 24,-11 24,-24l0 -150 137 0 0 150c0,12 7,24 24,24 17,0 24,-11 24,-24l0 -326zm259 243l29 91c4,12 16,20 30,15 14,-5 19,-17 15,-30l-105 -325c-4,-11 -10,-18 -24,-18l-3 0c-15,0 -21,6 -24,18l-105 325c-4,12 2,25 15,30 14,5 26,-3 30,-15l29 -91 113 0zm-64 -157c4,-11 5,-17 8,-30l1 0c3,12 4,18 8,30l35 113 -87 0 35 -113zm464 213l-10 0 0 -293c0,-12 -7,-24 -24,-24l-125 0c-17,0 -24,11 -26,24l-47 293 -16 0c-17,0 -24,11 -24,24l0 67c0,12 7,24 24,24 18,0 25,-11 25,-24l0 -44 198 0 0 44c0,12 7,24 25,24 17,0 24,-11 24,-24l0 -67c0,-12 -7,-24 -24,-24zm-178 -36l36 -234 83 0 0 270 -127 0c4,-13 6,-24 7,-36zm456 -234l0 298c0,12 7,24 24,24 17,0 24,-11 24,-24l0 -321c0,-12 -8,-24 -24,-24l-175 0c-17,0 -24,11 -24,24l0 321c0,12 8,24 24,24 17,0 24,-11 24,-24l0 -298 126 0zm339 298c0,12 7,24 23,24 18,0 24,-11 24,-24l0 -326c0,-12 -7,-24 -25,-24 -10,0 -17,4 -24,18l-139 247 -1 0c1,-9 2,-22 2,-36l0 -205c0,-12 -7,-24 -23,-24 -18,0 -24,11 -24,24l0 326c0,12 7,24 25,24 10,0 17,-4 24,-18l139 -247 1 0c-1,9 -2,22 -2,36l0 205zm245 -23c-36,0 -50,-25 -50,-57l0 -166c0,-32 14,-57 50,-57l53 0c22,0 34,9 36,31 1,12 7,24 24,24 18,0 25,-11 25,-24 0,-54 -32,-77 -85,-77l-53 0c-66,0 -99,47 -99,104l0 166c0,57 33,104 99,104l53 0c53,0 85,-23 85,-77 0,-12 -7,-24 -25,-24 -17,0 -23,11 -24,24 -2,22 -14,31 -36,31l-53 0zm356 -181l-82 0 0 -122c0,-12 -7,-24 -24,-24 -17,0 -24,11 -24,24l0 321c0,12 7,24 25,24l106 0c67,0 100,-44 100,-101l0 -23c0,-58 -31,-99 -100,-99zm51 127c0,31 -14,49 -50,49l-83 0 0 -129 82 0c36,0 51,18 51,49l0 31zm367 54c-36,0 -50,-25 -50,-57l0 -166c0,-32 14,-57 50,-57l53 0c22,0 34,9 36,31 1,12 7,24 24,24 18,0 25,-11 25,-24 0,-54 -32,-77 -85,-77l-53 0c-66,0 -99,47 -99,104l0 166c0,57 33,104 99,104l53 0c53,0 85,-23 85,-77 0,-12 -7,-24 -25,-24 -17,0 -23,11 -24,24 -2,22 -14,31 -36,31l-53 0zm408 -224c0,-32 14,-57 50,-57l42 0c36,0 50,25 50,57l0 166c0,32 -14,57 -50,57l-42 0c-36,0 -50,-25 -50,-57l0 -166zm190 0c0,-57 -33,-104 -99,-104l-42 0c-66,0 -99,47 -99,104l0 166c0,57 33,104 99,104l42 0c66,0 99,-47 99,-104l0 -166zm223 45l-75 0 0 -97 133 0c12,0 23,-7 23,-23 0,-16 -11,-23 -23,-23l-156 0c-18,0 -25,11 -25,24l0 316c0,12 7,24 25,24l99 0c67,0 100,-44 100,-101l0 -23c0,-58 -33,-96 -100,-96zm51 124c0,31 -14,49 -50,49l-76 0 0 -129 75 0c36,0 51,18 51,49l0 31zm186 -93l0 -129 81 0c36,0 51,18 51,49l0 26c0,32 -15,54 -51,54l-81 0zm81 47c67,0 100,-44 100,-101l0 -26c0,-58 -33,-96 -100,-96l-106 0c-17,0 -24,11 -24,24l0 321c0,12 7,24 24,24 17,0 24,-11 24,-24l0 -123 81 0zm320 39l29 91c4,12 16,20 30,15 14,-5 19,-17 15,-30l-105 -325c-4,-11 -10,-18 -24,-18l-3 0c-15,0 -21,6 -24,18l-105 325c-4,12 2,25 15,30 14,5 26,-3 30,-15l29 -91 113 0zm-64 -157c4,-11 5,-17 8,-30l1 0c3,12 4,18 8,30l35 113 -87 0 35 -113zm272 265c17,0 24,-11 24,-24l0 -298 76 0c12,0 23,-7 23,-23 0,-16 -11,-23 -23,-23l-201 0c-12,0 -23,8 -23,23 0,17 11,23 23,23l76 0 0 298c0,12 7,24 24,24zm428 -350c0,-12 -8,-24 -24,-24 -17,0 -24,11 -24,24l0 129 -137 0 0 -129c0,-12 -7,-24 -24,-24 -17,0 -24,11 -24,24l0 326c0,12 8,24 24,24 17,0 24,-11 24,-24l0 -150 137 0 0 150c0,12 7,24 24,24 17,0 24,-11 24,-24l0 -326zm148 80c0,-32 14,-57 50,-57l42 0c36,0 50,25 50,57l0 166c0,32 -14,57 -50,57l-42 0c-36,0 -50,-25 -50,-57l0 -166zm190 0c0,-57 -33,-104 -99,-104l-42 0c-66,0 -99,47 -99,104l0 166c0,57 33,104 99,104l42 0c66,0 99,-47 99,-104l0 -166zm217 -132c47,0 72,-34 72,-70 0,-11 -8,-18 -19,-18 -11,0 -18,7 -19,19 -2,19 -14,33 -34,33 -20,0 -32,-14 -34,-33 -1,-11 -8,-19 -19,-19 -11,0 -19,7 -19,18 0,36 25,70 72,70zm68 378c0,12 7,24 23,24 18,0 24,-11 24,-24l0 -326c0,-12 -7,-24 -25,-24 -10,0 -17,4 -24,18l-139 247 -1 0c1,-9 2,-22 2,-36l0 -205c0,-12 -7,-24 -23,-24 -18,0 -24,11 -24,24l0 326c0,12 7,24 25,24 10,0 17,-4 24,-18l139 -247 1 0c-1,9 -2,22 -2,36l0 205zm385 -23c-36,0 -50,-25 -50,-57l0 -166c0,-32 14,-57 50,-57l53 0c22,0 34,9 36,31 1,12 7,24 24,24 18,0 25,-11 25,-24 0,-54 -32,-77 -85,-77l-53 0c-66,0 -99,47 -99,104l0 166c0,57 33,104 99,104l53 0c53,0 85,-23 85,-77 0,-12 -7,-24 -25,-24 -17,0 -23,11 -24,24 -2,22 -14,31 -36,31l-53 0zm315 47c17,0 24,-11 24,-24l0 -298 76 0c12,0 23,-7 23,-23 0,-16 -11,-23 -23,-23l-201 0c-12,0 -23,8 -23,23 0,17 11,23 23,23l76 0 0 298c0,12 7,24 24,24zm225 -270c0,-32 14,-57 50,-57l42 0c36,0 50,25 50,57l0 166c0,32 -14,57 -50,57l-42 0c-36,0 -50,-25 -50,-57l0 -166zm190 0c0,-57 -33,-104 -99,-104l-42 0c-66,0 -99,47 -99,104l0 166c0,57 33,104 99,104l42 0c66,0 99,-47 99,-104l0 -166zm148 77l0 -129 81 0c36,0 51,18 51,49l0 26c0,32 -15,54 -51,54l-81 0zm81 47c67,0 100,-44 100,-101l0 -26c0,-58 -33,-96 -100,-96l-106 0c-17,0 -24,11 -24,24l0 321c0,12 7,24 24,24 17,0 24,-11 24,-24l0 -123 81 0zm232 -124c0,-32 14,-57 50,-57l42 0c36,0 50,25 50,57l0 166c0,32 -14,57 -50,57l-42 0c-36,0 -50,-25 -50,-57l0 -166zm190 0c0,-57 -33,-104 -99,-104l-42 0c-66,0 -99,47 -99,104l0 166c0,57 33,104 99,104l42 0c66,0 99,-47 99,-104l0 -166zm333 -80c0,-12 -8,-24 -24,-24 -17,0 -24,11 -24,24l0 129 -137 0 0 -129c0,-12 -7,-24 -24,-24 -17,0 -24,11 -24,24l0 326c0,12 8,24 24,24 17,0 24,-11 24,-24l0 -150 137 0 0 150c0,12 7,24 24,24 17,0 24,-11 24,-24l0 -326zm410 326l0 -326c0,-12 -7,-24 -24,-24 -17,0 -24,11 -24,24l0 326c0,12 7,24 24,24 17,0 24,-11 24,-24zm-193 -204l-64 0 0 -122c0,-12 -7,-24 -24,-24 -17,0 -24,11 -24,24l0 321c0,12 7,24 25,24l88 0c67,0 100,-44 100,-101l0 -23c0,-58 -31,-99 -100,-99zm51 127c0,31 -14,49 -50,49l-66 0 0 -129 64 0c36,0 51,18 51,49l0 31zm509 -124l-75 0 0 -97 133 0c12,0 23,-7 23,-23 0,-16 -11,-23 -23,-23l-156 0c-18,0 -25,11 -25,24l0 316c0,12 7,24 25,24l99 0c67,0 100,-44 100,-101l0 -23c0,-58 -33,-96 -100,-96zm51 124c0,31 -14,49 -50,49l-76 0 0 -129 75 0c36,0 51,18 51,49l0 31zm330 -273c-70,0 -100,59 -100,116l0 37 -47 0 0 -129c0,-12 -5,-24 -23,-24 -17,0 -23,11 -23,24l0 326c0,12 7,24 23,24 17,0 23,-11 23,-24l0 -150 47 0 0 69c0,57 30,105 96,105l28 0c66,0 99,-47 99,-104l0 -166c0,-57 -33,-104 -99,-104l-23 0zm73 270c0,32 -14,57 -50,57l-25 0c-36,0 -50,-25 -50,-57l0 -151c0,-32 14,-73 51,-73l23 0c35,0 50,25 50,55l0 169zm210 33c4,-30 31,-252 31,-252l91 0 0 298c0,12 7,24 25,24 17,0 24,-11 24,-24l0 -321c0,-12 -7,-24 -24,-24l-136 0c-15,0 -23,10 -25,24 -2,15 -30,242 -32,263 -2,12 -3,20 -6,25 -5,10 -14,12 -29,12 -12,0 -24,8 -24,24 0,18 11,23 24,23 45,0 64,-15 74,-41 4,-10 6,-19 7,-33zm347 0c4,-30 31,-252 31,-252l91 0 0 298c0,12 7,24 25,24 17,0 24,-11 24,-24l0 -321c0,-12 -7,-24 -24,-24l-136 0c-15,0 -23,10 -25,24 -2,15 -30,242 -32,263 -2,12 -3,20 -6,25 -5,10 -14,12 -29,12 -12,0 -24,8 -24,24 0,18 11,23 24,23 45,0 64,-15 74,-41 4,-10 6,-19 7,-33zm466 66c12,0 23,-7 23,-23 0,-16 -11,-23 -23,-23l-142 0 0 -117 117 0c12,0 23,-7 23,-23 0,-16 -11,-23 -23,-23l-117 0 0 -107 142 0c12,0 23,-7 23,-23 0,-16 -11,-23 -23,-23l-167 0c-17,0 -24,11 -24,24l0 316c0,12 7,24 24,24l167 0zm199 5c17,0 24,-11 24,-24l0 -298 76 0c12,0 23,-7 23,-23 0,-16 -11,-23 -23,-23l-201 0c-12,0 -23,8 -23,23 0,17 11,23 23,23l76 0 0 298c0,12 7,24 24,24zm385 -5c12,0 23,-7 23,-23 0,-16 -11,-23 -23,-23l-142 0 0 -117 117 0c12,0 23,-7 23,-23 0,-16 -11,-23 -23,-23l-117 0 0 -107 142 0c12,0 23,-7 23,-23 0,-16 -11,-23 -23,-23l-167 0c-17,0 -24,11 -24,24l0 316c0,12 7,24 24,24l167 0zm341 -345c0,-12 -8,-24 -24,-24 -17,0 -24,11 -24,24l0 129 -137 0 0 -129c0,-12 -7,-24 -24,-24 -17,0 -24,11 -24,24l0 326c0,12 8,24 24,24 17,0 24,-11 24,-24l0 -150 137 0 0 150c0,12 7,24 24,24 17,0 24,-11 24,-24l0 -326zm86 91c0,37 22,80 62,97 -4,6 -7,12 -12,26 0,0 -41,91 -46,103 -5,11 -2,25 14,31 16,6 27,-2 32,-14 5,-12 60,-139 60,-139l66 0 0 131c0,12 7,24 24,24 17,0 24,-11 24,-24l0 -321c0,-12 -7,-24 -24,-24l-100 0c-66,0 -101,42 -101,96l0 15zm99 57c-36,0 -50,-25 -50,-57l0 -15c0,-29 15,-49 51,-49l76 0 0 121 -77 0zm276 -24c0,-15 -7,-28 -28,-28 -21,0 -28,13 -28,28l0 5c0,15 7,28 28,28 21,0 28,-13 28,-28l0 -5zm0 192c0,-15 -7,-28 -28,-28 -21,0 -28,13 -28,28l0 5c0,15 7,28 28,28 21,0 28,-13 28,-28l0 -5zm-10304 619l70 -69c8,-8 10,-18 1,-28 -10,-10 -20,-7 -28,1l-83 82c-4,4 -7,9 -7,15 0,5 3,10 7,15l83 82c8,7 18,10 28,1 10,-10 7,-20 -1,-28l-70 -69zm113 0l70 -69c8,-8 10,-18 1,-28 -10,-10 -20,-7 -28,1l-83 82c-4,4 -7,9 -7,15 0,5 3,10 7,15l83 82c8,7 18,10 28,1 10,-10 7,-20 -1,-28l-70 -69zm286 -85l-75 0 0 -97 133 0c12,0 23,-7 23,-23 0,-16 -11,-23 -23,-23l-156 0c-18,0 -25,11 -25,24l0 316c0,12 7,24 25,24l99 0c67,0 100,-44 100,-101l0 -23c0,-58 -33,-96 -100,-96zm51 124c0,31 -14,49 -50,49l-76 0 0 -129 75 0c36,0 51,18 51,49l0 31zm335 -180l-12 0c-63,0 -95,47 -95,104l0 7 -45 0 0 -87c0,-12 -6,-24 -23,-24 -18,0 -24,11 -24,24l0 233c0,12 6,24 23,24 18,0 24,-11 24,-24l0 -102 45 0 0 22c0,54 30,104 91,104l16 0c65,0 96,-43 96,-100l0 -81c0,-57 -31,-100 -96,-100zm49 181c0,32 -14,55 -49,55l-12 0c-33,0 -49,-29 -49,-61l0 -68c0,-32 18,-62 49,-62l12 0c35,0 49,23 49,55l0 81zm326 -176l-115 0c-15,0 -24,10 -26,24l-24 177c-2,17 -15,31 -31,31 -11,0 -21,8 -21,22 0,15 10,22 23,22 38,0 65,-18 72,-66l22 -166 77 0 0 206c0,13 7,24 23,24 17,0 23,-11 23,-24l0 -227c0,-12 -7,-24 -24,-24zm312 0l-115 0c-15,0 -24,10 -26,24l-24 177c-2,17 -15,31 -31,31 -11,0 -21,8 -21,22 0,15 10,22 23,22 38,0 65,-18 72,-66l22 -166 77 0 0 206c0,13 7,24 23,24 17,0 23,-11 23,-24l0 -227c0,-12 -7,-24 -24,-24zm330 89c0,-57 -31,-95 -96,-95l-16 0c-65,0 -96,37 -96,95l0 79c0,58 32,102 97,102l68 0c13,0 23,-6 23,-22 0,-16 -10,-22 -23,-22l-68 0c-35,0 -50,-25 -50,-58l0 -13 138 0c13,0 23,-7 23,-23l0 -43zm-161 22l0 -22c0,-31 14,-51 49,-51l16 0c35,0 49,20 49,51l0 22 -114 0zm421 -112l-172 0c-12,0 -23,5 -23,22 0,16 11,23 23,23l63 0 0 207c0,12 6,24 23,24 17,0 23,-11 23,-24l0 -207 62 0c12,0 23,-7 23,-23 0,-17 -11,-22 -23,-22zm295 89c0,-57 -31,-95 -96,-95l-16 0c-65,0 -96,37 -96,95l0 79c0,58 32,102 97,102l68 0c13,0 23,-6 23,-22 0,-16 -10,-22 -23,-22l-68 0c-35,0 -50,-25 -50,-58l0 -13 138 0c13,0 23,-7 23,-23l0 -43zm-161 22l0 -22c0,-31 14,-51 49,-51l16 0c35,0 49,20 49,51l0 22 -114 0zm443 -117c-18,0 -24,11 -24,24l0 87 -122 0 0 -87c0,-12 -6,-24 -23,-24 -18,0 -24,11 -24,24l0 233c0,12 6,24 23,24 18,0 24,-11 24,-24l0 -102 122 0 0 102c0,12 6,24 23,24 18,0 24,-11 24,-24l0 -233c0,-12 -6,-24 -23,-24zm172 94l0 -70c0,-12 -6,-24 -23,-24 -18,0 -24,11 -24,24l0 229c0,12 7,23 24,23l97 0c48,0 79,-33 79,-80l0 -17c0,-53 -37,-86 -90,-86l-62 0zm106 103c0,19 -13,35 -37,35l-69 0 0 -94 62 0c32,0 44,21 44,44l0 15zm433 -147l0 207c0,12 6,24 23,24 17,0 23,-11 23,-24l0 -228c0,-13 -7,-24 -23,-24l-158 0c-17,0 -23,11 -23,24l0 228c0,12 7,24 23,24 18,0 23,-11 23,-24l0 -207 111 0zm173 -45c-17,0 -24,11 -24,24l0 352c0,13 7,24 23,24 17,0 23,-11 23,-24l0 -106 61 0c65,0 98,-44 98,-102l0 -74c0,-58 -31,-95 -96,-95l-85 0zm23 226l0 -181 62 0c35,0 49,19 49,50l0 74c0,33 -16,57 -51,57l-61 0zm448 -231c-8,0 -15,5 -21,15l-131 180c2,-12 3,-21 3,-34 0,-19 0,-137 0,-137 0,-12 -6,-24 -22,-24 -16,0 -22,11 -22,24l0 233c0,12 6,24 21,24 10,0 17,-7 22,-14l130 -180c-2,13 -2,21 -2,33 0,19 0,138 0,138 0,12 6,24 21,24 17,0 23,-11 23,-24l0 -233c0,-12 -6,-24 -21,-24zm189 237c-19,0 -37,-7 -37,-19 0,-14 -6,-24 -22,-24 -17,0 -23,10 -23,24 0,48 32,62 83,62l32 0c66,0 87,-40 87,-82 0,-45 -19,-62 -47,-69 20,-7 35,-22 35,-59 0,-36 -16,-71 -81,-71l-21 0c-46,0 -80,15 -80,62 0,14 7,24 23,24 17,0 23,-10 23,-21 0,-12 12,-21 33,-21l21 0c27,0 35,11 35,34 0,22 -14,35 -48,35 -10,0 -18,9 -18,21 0,12 6,20 19,20 37,0 57,10 57,42 0,19 -9,41 -44,41l-28 0zm402 -237c-18,0 -24,11 -24,24l0 87 -122 0 0 -87c0,-12 -6,-24 -23,-24 -18,0 -24,11 -24,24l0 233c0,12 6,24 23,24 18,0 24,-11 24,-24l0 -102 122 0 0 102c0,12 6,24 23,24 18,0 24,-11 24,-24l0 -233c0,-12 -6,-24 -23,-24zm163 5c-13,0 -23,6 -23,22 0,16 10,22 23,22l67 0c21,0 36,11 36,37l0 10 -73 0c-48,0 -78,22 -78,70l0 40c0,48 31,70 78,70l96 0c17,0 24,-11 24,-24l0 -166c0,-47 -32,-80 -83,-80l-67 0zm31 227c-21,0 -32,-11 -32,-27l0 -39c0,-17 10,-27 32,-27l73 0 0 93 -73 0zm411 -232c-18,0 -24,11 -24,24l0 87 -122 0 0 -87c0,-12 -6,-24 -23,-24 -18,0 -24,11 -24,24l0 233c0,12 6,24 23,24 18,0 24,-11 24,-24l0 -102 122 0 0 102c0,12 6,24 23,24 18,0 24,-11 24,-24l0 -233c0,-12 -6,-24 -23,-24zm471 -15c0,-47 -30,-85 -81,-85l-70 0c-13,0 -23,7 -23,22 0,16 10,22 23,22l68 0c20,0 37,11 36,37l0 28 -64 0c-68,0 -102,48 -102,104l0 66c0,58 32,100 96,100l22 0c61,0 96,-38 96,-100l0 -195zm-47 195c0,32 -14,55 -49,55l-22 0c-30,1 -49,-18 -49,-55l0 -63c0,-35 18,-62 56,-62l64 0c0,0 0,113 0,125zm344 -86c0,-57 -31,-95 -96,-95l-16 0c-65,0 -96,37 -96,95l0 79c0,58 32,102 97,102l68 0c13,0 23,-6 23,-22 0,-16 -10,-22 -23,-22l-68 0c-35,0 -50,-25 -50,-58l0 -13 138 0c13,0 23,-7 23,-23l0 -43zm-161 22l0 -22c0,-31 14,-51 49,-51l16 0c35,0 49,20 49,51l0 22 -114 0z"/>
   <path class="fil5 str2" d="M11355 15202c47,0 72,-34 72,-70 0,-11 -8,-18 -19,-18 -11,0 -18,7 -19,19 -2,19 -14,33 -34,33 -20,0 -32,-14 -34,-33 -1,-11 -8,-19 -19,-19 -11,0 -19,7 -19,18 0,36 25,70 72,70zm85 20c-8,0 -15,5 -21,15l-131 180c2,-12 3,-21 3,-34 0,-19 0,-137 0,-137 0,-12 -6,-24 -22,-24 -16,0 -22,11 -22,24l0 233c0,12 6,24 21,24 10,0 17,-7 22,-14l130 -180c-2,13 -2,21 -2,33 0,19 0,138 0,138 0,12 6,24 21,24 17,0 23,-11 23,-24l0 -233c0,-12 -6,-24 -21,-24zm215 236c-35,0 -51,-24 -51,-58l0 -84c0,-31 15,-50 49,-50l25 0c21,0 36,10 36,25 0,14 7,24 23,24 17,0 23,-10 23,-24 0,-48 -32,-70 -83,-70l-25 0c-65,0 -96,37 -96,95l0 84c0,59 33,102 98,102l23 0c51,0 83,-22 83,-70 0,-14 -7,-24 -23,-24 -17,0 -23,10 -23,24 0,16 -15,25 -36,25l-23 0zm361 -231l-172 0c-12,0 -23,5 -23,22 0,16 11,23 23,23l63 0 0 207c0,12 6,24 23,24 17,0 23,-11 23,-24l0 -207 62 0c12,0 23,-7 23,-23 0,-17 -11,-22 -23,-22zm255 127c20,-11 33,-28 33,-57l0 -6c0,-46 -30,-64 -83,-64l-82 0c-17,0 -24,10 -24,23l0 225c0,12 7,23 24,23l95 0c48,0 81,-20 81,-70l0 -15c0,-32 -16,-50 -44,-59zm-109 -83l50 0c33,0 45,11 45,30l0 5c0,19 -15,30 -36,30l-60 0 0 -64zm106 149c0,24 -14,34 -35,34l-71 0 0 -77 62 0c27,0 44,13 44,36l0 6zm332 -198c-8,0 -15,5 -21,15l-131 180c2,-12 3,-21 3,-34 0,-19 0,-137 0,-137 0,-12 -6,-24 -22,-24 -16,0 -22,11 -22,24l0 233c0,12 6,24 21,24 10,0 17,-7 22,-14l130 -180c-2,13 -2,21 -2,33 0,19 0,138 0,138 0,12 6,24 21,24 17,0 23,-11 23,-24l0 -233c0,-12 -6,-24 -21,-24zm293 5l-172 0c-12,0 -23,5 -23,22 0,16 11,23 23,23l63 0 0 207c0,12 6,24 23,24 17,0 23,-11 23,-24l0 -207 62 0c12,0 23,-7 23,-23 0,-17 -11,-22 -23,-22zm295 89c0,-57 -31,-95 -96,-95l-16 0c-65,0 -96,37 -96,95l0 79c0,58 32,102 97,102l68 0c13,0 23,-6 23,-22 0,-16 -10,-22 -23,-22l-68 0c-35,0 -50,-25 -50,-58l0 -13 138 0c13,0 23,-7 23,-23l0 -43zm-161 22l0 -22c0,-31 14,-51 49,-51l16 0c35,0 49,20 49,51l0 22 -114 0zm435 -112l-115 0c-15,0 -24,10 -26,24l-24 177c-2,17 -15,31 -31,31 -11,0 -21,8 -21,22 0,15 10,22 23,22 38,0 65,-18 72,-66l22 -166 77 0 0 206c0,13 7,24 23,24 17,0 23,-11 23,-24l0 -227c0,-12 -7,-24 -24,-24zm176 88l0 -70c0,-12 -6,-24 -23,-24 -18,0 -24,11 -24,24l0 229c0,12 7,23 24,23l97 0c48,0 79,-33 79,-80l0 -17c0,-53 -37,-86 -90,-86l-62 0zm106 103c0,19 -13,35 -37,35l-69 0 0 -94 62 0c32,0 44,21 44,44l0 15zm328 -197c-18,0 -24,11 -24,24l0 87 -122 0 0 -87c0,-12 -6,-24 -23,-24 -18,0 -24,11 -24,24l0 233c0,12 6,24 23,24 18,0 24,-11 24,-24l0 -102 122 0 0 102c0,12 6,24 23,24 18,0 24,-11 24,-24l0 -233c0,-12 -6,-24 -23,-24zm172 94l0 -70c0,-12 -6,-24 -23,-24 -18,0 -24,11 -24,24l0 229c0,12 7,23 24,23l97 0c48,0 79,-33 79,-80l0 -17c0,-53 -37,-86 -90,-86l-62 0zm106 103c0,19 -13,35 -37,35l-69 0 0 -94 62 0c32,0 44,21 44,44l0 15zm138 -173c0,-12 -6,-24 -23,-24 -18,0 -24,11 -24,24l0 233c0,12 6,24 23,24 18,0 24,-11 24,-24l0 -233zm323 -24c-10,0 -18,5 -24,15 -15,27 -37,68 -63,113 -4,6 -9,18 -12,31 -4,-13 -9,-25 -12,-31 -25,-45 -49,-86 -63,-113 -5,-10 -14,-15 -24,-15 -18,0 -23,11 -23,24l0 233c0,12 5,24 21,24 18,0 22,-11 22,-24 0,0 0,-108 0,-127 0,-14 -2,-29 -4,-44 0,0 20,37 64,117 5,9 8,13 19,13 11,0 14,-4 19,-13 44,-80 64,-117 64,-117 -2,16 -4,30 -4,44 0,19 0,127 0,127 0,12 5,24 22,24 17,0 21,-11 21,-24l0 -233c0,-12 -6,-24 -23,-24zm-9299 961c-35,0 -51,-24 -51,-58l0 -84c0,-31 15,-50 49,-50l25 0c21,0 36,10 36,25 0,14 7,24 23,24 17,0 23,-10 23,-24 0,-48 -32,-70 -83,-70l-25 0c-65,0 -96,37 -96,95l0 84c0,59 33,102 98,102l23 0c51,0 83,-22 83,-70 0,-14 -7,-24 -23,-24 -17,0 -23,10 -23,24 0,16 -15,25 -36,25l-23 0zm420 0c-35,0 -49,-23 -49,-55l0 -81c0,-32 14,-55 49,-55l22 0c35,0 49,23 49,55l0 81c0,32 -14,55 -49,55l-22 0zm22 45c65,0 96,-43 96,-100l0 -81c0,-57 -31,-100 -96,-100l-22 0c-65,0 -96,43 -96,100l0 81c0,57 31,100 96,100l22 0zm356 -276l-172 0c-12,0 -23,5 -23,22 0,16 11,23 23,23l63 0 0 207c0,12 6,24 23,24 17,0 23,-11 23,-24l0 -207 62 0c12,0 23,-7 23,-23 0,-17 -11,-22 -23,-22zm321 -5c-10,0 -18,5 -24,15 -15,27 -37,68 -63,113 -4,6 -9,18 -12,31 -4,-13 -9,-25 -12,-31 -25,-45 -49,-86 -63,-113 -5,-10 -14,-15 -24,-15 -18,0 -23,11 -23,24l0 233c0,12 5,24 21,24 18,0 22,-11 22,-24 0,0 0,-108 0,-127 0,-14 -2,-29 -4,-44 0,0 20,37 64,117 5,9 8,13 19,13 11,0 14,-4 19,-13 44,-80 64,-117 64,-117 -2,16 -4,30 -4,44 0,19 0,127 0,127 0,12 5,24 22,24 17,0 21,-11 21,-24l0 -233c0,-12 -6,-24 -23,-24zm325 95c0,-57 -31,-95 -96,-95l-16 0c-65,0 -96,37 -96,95l0 79c0,58 32,102 97,102l68 0c13,0 23,-6 23,-22 0,-16 -10,-22 -23,-22l-68 0c-35,0 -50,-25 -50,-58l0 -13 138 0c13,0 23,-7 23,-23l0 -43zm-161 22l0 -22c0,-31 14,-51 49,-51l16 0c35,0 49,20 49,51l0 22 -114 0zm421 -112l-172 0c-12,0 -23,5 -23,22 0,16 11,23 23,23l63 0 0 207c0,12 6,24 23,24 17,0 23,-11 23,-24l0 -207 62 0c12,0 23,-7 23,-23 0,-17 -11,-22 -23,-22zm298 237l-85 -113 80 -92c10,-11 11,-24 0,-34 -10,-8 -27,-6 -35,6l-83 102 -28 0 0 -87c0,-12 -6,-24 -23,-24 -18,0 -24,11 -24,24l0 233c0,12 6,24 23,24 18,0 24,-11 24,-24l0 -102 29 0 84 115c8,11 21,17 35,6 14,-10 13,-22 4,-33zm170 -6c-35,0 -49,-23 -49,-55l0 -81c0,-32 14,-55 49,-55l22 0c35,0 49,23 49,55l0 81c0,32 -14,55 -49,55l-22 0zm22 45c65,0 96,-43 96,-100l0 -81c0,-57 -31,-100 -96,-100l-22 0c-65,0 -96,43 -96,100l0 81c0,57 31,100 96,100l22 0zm301 -301c47,0 72,-34 72,-70 0,-11 -8,-18 -19,-18 -11,0 -18,7 -19,19 -2,19 -14,33 -34,33 -20,0 -32,-14 -34,-33 -1,-11 -8,-19 -19,-19 -11,0 -19,7 -19,18 0,36 25,70 72,70zm85 20c-8,0 -15,5 -21,15l-131 180c2,-12 3,-21 3,-34 0,-19 0,-137 0,-137 0,-12 -6,-24 -22,-24 -16,0 -22,11 -22,24l0 233c0,12 6,24 21,24 10,0 17,-7 22,-14l130 -180c-2,13 -2,21 -2,33 0,19 0,138 0,138 0,12 6,24 21,24 17,0 23,-11 23,-24l0 -233c0,-12 -6,-24 -21,-24zm292 141l70 -69c8,-8 10,-18 1,-28 -10,-10 -20,-7 -28,1l-83 82c-4,4 -7,9 -7,15 0,5 3,10 7,15l83 82c8,7 18,10 28,1 10,-10 7,-20 -1,-28l-70 -69zm113 0l70 -69c8,-8 10,-18 1,-28 -10,-10 -20,-7 -28,1l-83 82c-4,4 -7,9 -7,15 0,5 3,10 7,15l83 82c8,7 18,10 28,1 10,-10 7,-20 -1,-28l-70 -69zm227 96c-19,0 -37,-7 -37,-19 0,-14 -6,-24 -22,-24 -17,0 -23,10 -23,24 0,48 32,62 83,62l32 0c66,0 87,-40 87,-82 0,-45 -19,-62 -47,-69 20,-7 35,-22 35,-59 0,-36 -16,-71 -81,-71l-21 0c-46,0 -80,15 -80,62 0,14 7,24 23,24 17,0 23,-10 23,-21 0,-12 12,-21 33,-21l21 0c27,0 35,11 35,34 0,22 -14,35 -48,35 -10,0 -18,9 -18,21 0,12 6,20 19,20 37,0 57,10 57,42 0,19 -9,41 -44,41l-28 0zm248 -232c-13,0 -23,6 -23,22 0,16 10,22 23,22l67 0c21,0 36,11 36,37l0 10 -73 0c-48,0 -78,22 -78,70l0 40c0,48 31,70 78,70l96 0c17,0 24,-11 24,-24l0 -166c0,-47 -32,-80 -83,-80l-67 0zm31 227c-21,0 -32,-11 -32,-27l0 -39c0,-17 10,-27 32,-27l73 0 0 93 -73 0zm321 -22c-8,8 -10,18 -1,28 10,10 20,7 28,-1l83 -82c4,-4 7,-9 7,-15 0,-5 -3,-10 -7,-15l-83 -82c-8,-7 -18,-10 -28,-1 -10,10 -7,20 1,28l70 69 -70 69zm-113 0c-8,8 -10,18 -1,28 10,10 20,7 28,-1l83 -82c4,-4 7,-9 7,-15 0,-5 -3,-10 -7,-15l-83 -82c-8,-7 -18,-10 -28,-1 -10,10 -7,20 1,28l70 69 -70 69zm686 32l-112 -159 106 -138c9,-12 9,-25 -1,-34 -12,-11 -28,-6 -36,5l-109 148 -31 0 0 -135c0,-12 -7,-24 -24,-24 -18,0 -25,11 -25,24l0 326c0,12 7,24 25,24 17,0 24,-11 24,-24l0 -145 32 0 112 159c7,10 20,16 34,7 15,-10 14,-24 6,-35zm124 -237c-13,0 -23,6 -23,22 0,16 10,22 23,22l67 0c21,0 36,11 36,37l0 10 -73 0c-48,0 -78,22 -78,70l0 40c0,48 31,70 78,70l96 0c17,0 24,-11 24,-24l0 -166c0,-47 -32,-80 -83,-80l-67 0zm31 227c-21,0 -32,-11 -32,-27l0 -39c0,-17 10,-27 32,-27l73 0 0 93 -73 0zm411 -232c-18,0 -24,11 -24,24l0 87 -122 0 0 -87c0,-12 -6,-24 -23,-24 -18,0 -24,11 -24,24l0 233c0,12 6,24 23,24 18,0 24,-11 24,-24l0 -102 122 0 0 102c0,12 6,24 23,24 18,0 24,-11 24,-24l0 -233c0,-12 -6,-24 -23,-24zm332 -15c0,-47 -30,-85 -81,-85l-70 0c-13,0 -23,7 -23,22 0,16 10,22 23,22l68 0c20,0 37,11 36,37l0 28 -64 0c-68,0 -102,48 -102,104l0 66c0,58 32,100 96,100l22 0c61,0 96,-38 96,-100l0 -195zm-47 195c0,32 -14,55 -49,55l-22 0c-30,1 -49,-18 -49,-55l0 -63c0,-35 18,-62 56,-62l64 0c0,0 0,113 0,125zm336 -181c-8,0 -15,5 -21,15l-131 180c2,-12 3,-21 3,-34 0,-19 0,-137 0,-137 0,-12 -6,-24 -22,-24 -16,0 -22,11 -22,24l0 233c0,12 6,24 21,24 10,0 17,-7 22,-14l130 -180c-2,13 -2,21 -2,33 0,19 0,138 0,138 0,12 6,24 21,24 17,0 23,-11 23,-24l0 -233c0,-12 -6,-24 -21,-24zm330 -15c0,-47 -30,-85 -81,-85l-70 0c-13,0 -23,7 -23,22 0,16 10,22 23,22l68 0c20,0 37,11 36,37l0 28 -64 0c-68,0 -102,48 -102,104l0 66c0,58 32,100 96,100l22 0c61,0 96,-38 96,-100l0 -195zm-47 195c0,32 -14,55 -49,55l-22 0c-30,1 -49,-18 -49,-55l0 -63c0,-35 18,-62 56,-62l64 0c0,0 0,113 0,125zm181 -176c-13,0 -23,6 -23,22 0,16 10,22 23,22l67 0c21,0 36,11 36,37l0 10 -73 0c-48,0 -78,22 -78,70l0 40c0,48 31,70 78,70l96 0c17,0 24,-11 24,-24l0 -166c0,-47 -32,-80 -83,-80l-67 0zm31 227c-21,0 -32,-11 -32,-27l0 -39c0,-17 10,-27 32,-27l73 0 0 93 -73 0zm388 -227l-172 0c-12,0 -23,5 -23,22 0,16 11,23 23,23l63 0 0 207c0,12 6,24 23,24 17,0 23,-11 23,-24l0 -207 62 0c12,0 23,-7 23,-23 0,-17 -11,-22 -23,-22zm125 0c-13,0 -23,6 -23,22 0,16 10,22 23,22l67 0c21,0 36,11 36,37l0 10 -73 0c-48,0 -78,22 -78,70l0 40c0,48 31,70 78,70l96 0c17,0 24,-11 24,-24l0 -166c0,-47 -32,-80 -83,-80l-67 0zm31 227c-21,0 -32,-11 -32,-27l0 -39c0,-17 10,-27 32,-27l73 0 0 93 -73 0zm399 -44c0,-24 9,-43 26,-50l96 -43c47,-21 57,-57 57,-93l0 -2c0,-60 -34,-93 -101,-93l-32 0c-54,0 -87,23 -87,78 0,14 7,24 24,24 18,0 24,-11 24,-24 0,-22 15,-31 38,-31l32 0c37,0 53,14 53,46l0 2c0,24 -8,40 -29,49l-89 40c-42,18 -61,57 -61,102l0 83 209 0c13,0 23,-7 23,-23 0,-17 -10,-23 -23,-23l-160 0 0 -41zm453 -116c0,-76 22,-149 69,-178 10,-6 18,-18 9,-31 -8,-12 -21,-10 -32,-4 -72,42 -93,128 -93,214l0 61c0,85 21,172 93,214 11,6 24,8 32,-4 9,-14 1,-25 -9,-31 -47,-30 -69,-102 -69,-178l0 -61zm345 -117l-29 0 0 -32c0,-12 -7,-24 -24,-24 -17,0 -24,11 -24,24l0 32 -29 0c-66,0 -99,37 -99,96l0 66c0,57 33,101 99,101l29 0 0 46c0,12 7,24 24,24 17,0 24,-11 24,-24l0 -46 29 0c66,0 99,-44 99,-101l0 -66c0,-58 -33,-96 -99,-96zm-77 219l-29 0c-36,0 -50,-25 -50,-57l0 -67c0,-31 15,-52 50,-52l29 0 0 176zm128 -57c0,32 -15,57 -51,57l-29 0 0 -176 29 0c36,0 51,21 51,52l0 67zm149 132c0,-15 -7,-28 -28,-28 -21,0 -28,13 -28,28l0 5c0,15 7,28 28,28 21,0 28,-13 28,-28l0 -5zm270 9c0,12 7,24 23,24 18,0 24,-11 24,-24l0 -326c0,-12 -7,-24 -25,-24 -10,0 -17,4 -24,18l-139 247 -1 0c1,-9 2,-22 2,-36l0 -205c0,-12 -7,-24 -23,-24 -18,0 -24,11 -24,24l0 326c0,12 7,24 25,24 10,0 17,-4 24,-18l139 -247 1 0c-1,9 -2,22 -2,36l0 205zm187 -9c0,-15 -7,-28 -28,-28 -21,0 -28,13 -28,28l0 5c0,15 7,28 28,28 21,0 28,-13 28,-28l0 -5zm116 -237c0,-32 14,-57 50,-57l42 0c36,0 50,25 50,57l0 166c0,32 -14,57 -50,57l-42 0c-36,0 -50,-25 -50,-57l0 -166zm190 0c0,-57 -33,-104 -99,-104l-42 0c-66,0 -99,47 -99,104l0 166c0,57 33,104 99,104l42 0c66,0 99,-47 99,-104l0 -166zm124 237c0,-15 -7,-28 -28,-28 -21,0 -28,13 -28,28l0 5c0,15 7,28 28,28 21,0 28,-13 28,-28l0 -5zm129 -115c0,76 -22,149 -69,178 -10,6 -18,18 -9,31 8,12 21,10 32,4 72,-42 93,-128 93,-214l0 -61c0,-85 -21,-172 -93,-214 -11,-6 -24,-8 -32,4 -9,14 -1,25 9,31 47,30 69,102 69,178l0 61z"/>
   <path class="fil6" d="M8249 8274l-60 0 0 -77 105 0c9,0 18,-5 18,-19 0,-12 -9,-19 -18,-19l-124 0c-14,0 -20,9 -20,19l0 250c0,10 6,19 20,19l79 0c53,0 79,-35 79,-80l0 -19c0,-46 -26,-76 -79,-76zm40 98c0,25 -11,39 -40,39l-60 0 0 -102 60 0c28,0 40,14 40,39l0 25zm246 -142l-10 0c-50,0 -75,37 -75,82l0 5 -36 0 0 -69c0,-10 -5,-19 -18,-19 -14,0 -19,9 -19,19l0 184c0,10 5,19 18,19 14,0 19,-9 19,-19l0 -81 36 0 0 18c0,42 23,82 72,82l13 0c51,0 76,-34 76,-79l0 -64c0,-45 -24,-79 -76,-79zm39 143c0,26 -11,44 -39,44l-10 0c-26,0 -39,-23 -39,-49l0 -54c0,-26 14,-49 39,-49l10 0c28,0 39,18 39,44l0 64zm238 -139l-91 0c-12,0 -19,8 -21,19l-19 140c-2,13 -12,24 -24,24 -9,0 -16,7 -16,18 0,12 8,18 18,18 30,0 51,-14 57,-52l18 -131 61 0 0 163c0,10 5,19 19,19 13,0 19,-9 19,-19l0 -180c0,-10 -6,-19 -19,-19zm228 0l-91 0c-12,0 -19,8 -21,19l-19 140c-2,13 -12,24 -24,24 -9,0 -16,7 -16,18 0,12 8,18 18,18 30,0 51,-14 57,-52l18 -131 61 0 0 163c0,10 5,19 19,19 13,0 19,-9 19,-19l0 -180c0,-10 -6,-19 -19,-19zm242 71c0,-45 -24,-75 -76,-75l-13 0c-51,0 -76,30 -76,75l0 63c0,46 26,81 77,81l54 0c10,0 18,-5 18,-17 0,-12 -8,-17 -18,-17l-54 0c-28,0 -40,-20 -40,-46l0 -10 109 0c10,0 18,-6 18,-18l0 -34zm-127 18l0 -18c0,-24 11,-40 39,-40l13 0c28,0 39,16 39,40l0 18 -90 0zm314 -88l-136 0c-9,0 -18,4 -18,17 0,13 9,18 18,18l50 0 0 164c0,10 5,19 19,19 13,0 19,-9 19,-19l0 -164 49 0c9,0 18,-5 18,-18 0,-13 -9,-17 -18,-17zm214 71c0,-45 -24,-75 -76,-75l-13 0c-51,0 -76,30 -76,75l0 63c0,46 26,81 77,81l54 0c10,0 18,-5 18,-17 0,-12 -8,-17 -18,-17l-54 0c-28,0 -40,-20 -40,-46l0 -10 109 0c10,0 18,-6 18,-18l0 -34zm-127 18l0 -18c0,-24 11,-40 39,-40l13 0c28,0 39,16 39,40l0 18 -90 0zm331 -93c-14,0 -19,9 -19,19l0 69 -96 0 0 -69c0,-10 -5,-19 -18,-19 -14,0 -19,9 -19,19l0 184c0,10 5,19 18,19 14,0 19,-9 19,-19l0 -81 96 0 0 81c0,10 5,19 18,19 14,0 19,-9 19,-19l0 -184c0,-10 -5,-19 -18,-19zm116 74l0 -55c0,-10 -5,-19 -18,-19 -14,0 -19,9 -19,19l0 181c0,10 6,18 19,18l77 0c38,0 62,-26 62,-63l0 -13c0,-42 -30,-68 -72,-68l-49 0zm84 82c0,15 -10,28 -29,28l-55 0 0 -74 49 0c26,0 35,17 35,35l0 12zm323 -116l0 164c0,10 5,19 19,19 13,0 19,-9 19,-19l0 -180c0,-10 -5,-19 -19,-19l-125 0c-13,0 -19,9 -19,19l0 180c0,10 5,19 19,19 14,0 19,-9 19,-19l0 -164 88 0zm117 -35c-13,0 -19,9 -19,19l0 279c0,10 5,19 19,19 13,0 19,-9 19,-19l0 -84 48 0c51,0 77,-35 77,-81l0 -58c0,-46 -25,-75 -76,-75l-67 0zm18 179l0 -143 49 0c28,0 39,15 39,40l0 58c0,26 -13,45 -40,45l-48 0zm335 -183c-6,0 -12,4 -17,12l-104 142c2,-10 2,-17 2,-27 0,-15 0,-108 0,-108 0,-10 -5,-19 -17,-19 -13,0 -18,9 -18,19l0 184c0,10 5,19 16,19 8,0 13,-6 17,-11l103 -143c-2,10 -2,16 -2,26 0,15 0,109 0,109 0,10 5,19 17,19 13,0 18,-9 18,-19l0 -184c0,-10 -5,-19 -17,-19zm130 188c-15,0 -29,-6 -29,-15 0,-11 -5,-19 -18,-19 -13,0 -19,8 -19,19 0,38 25,49 65,49l25 0c52,0 69,-31 69,-65 0,-36 -15,-49 -37,-55 16,-5 28,-18 28,-47 0,-29 -13,-56 -64,-56l-17 0c-36,0 -63,12 -63,49 0,11 5,19 19,19 13,0 19,-8 19,-17 0,-9 10,-16 26,-16l17 0c21,0 28,9 28,27 0,18 -11,28 -38,28 -8,0 -14,7 -14,16 0,9 5,16 15,16 30,0 45,8 45,33 0,15 -7,33 -35,33l-22 0zm298 -188c-14,0 -19,9 -19,19l0 69 -96 0 0 -69c0,-10 -5,-19 -18,-19 -14,0 -19,9 -19,19l0 184c0,10 5,19 18,19 14,0 19,-9 19,-19l0 -81 96 0 0 81c0,10 5,19 18,19 14,0 19,-9 19,-19l0 -184c0,-10 -5,-19 -18,-19zm109 4c-10,0 -19,5 -19,17 0,12 8,17 19,17l53 0c17,0 29,9 29,29l0 8 -58 0c-38,0 -62,17 -62,55l0 32c0,38 24,56 62,56l76 0c13,0 19,-9 19,-19l0 -132c0,-37 -25,-63 -66,-63l-53 0zm24 179c-17,0 -25,-9 -25,-21l0 -31c0,-13 8,-21 25,-21l58 0 0 73 -58 0zm305 -184c-14,0 -19,9 -19,19l0 69 -96 0 0 -69c0,-10 -5,-19 -18,-19 -14,0 -19,9 -19,19l0 184c0,10 5,19 18,19 14,0 19,-9 19,-19l0 -81 96 0 0 81c0,10 5,19 18,19 14,0 19,-9 19,-19l0 -184c0,-10 -5,-19 -18,-19zm-3152 518c0,-37 -24,-67 -64,-67l-56 0c-10,0 -19,5 -19,18 0,12 8,18 19,18l54 0c16,0 29,9 29,30l0 22 -51 0c-53,0 -81,38 -81,82l0 52c0,46 25,79 76,79l17 0c48,0 76,-30 76,-79l0 -155zm-37 155c0,25 -11,44 -39,44l-17 0c-24,0 -39,-14 -39,-44l0 -50c0,-28 14,-49 44,-49l51 0c0,0 0,89 0,99zm252 -68c0,-45 -24,-75 -76,-75l-13 0c-51,0 -76,30 -76,75l0 63c0,46 26,81 77,81l54 0c10,0 18,-5 18,-17 0,-12 -8,-17 -18,-17l-54 0c-28,0 -40,-20 -40,-46l0 -10 109 0c10,0 18,-6 18,-18l0 -34zm-127 18l0 -18c0,-24 11,-40 39,-40l13 0c28,0 39,16 39,40l0 18 -90 0zm265 -109c37,0 57,-27 57,-55 0,-9 -7,-14 -15,-14 -9,0 -14,6 -15,15 -1,15 -11,26 -27,26 -16,0 -26,-11 -27,-26 -1,-9 -7,-15 -15,-15 -9,0 -15,6 -15,14 0,28 20,55 57,55zm67 16c-6,0 -12,4 -17,12l-104 142c2,-10 2,-17 2,-27 0,-15 0,-108 0,-108 0,-10 -5,-19 -17,-19 -13,0 -18,9 -18,19l0 184c0,10 5,19 16,19 8,0 13,-6 17,-11l103 -143c-2,10 -2,16 -2,26 0,15 0,109 0,109 0,10 5,19 17,19 13,0 18,-9 18,-19l0 -184c0,-10 -5,-19 -17,-19zm150 187c-28,0 -40,-19 -40,-46l0 -66c0,-24 12,-40 39,-40l20 0c17,0 28,8 28,20 0,11 5,19 19,19 13,0 19,-8 19,-19 0,-38 -25,-56 -65,-56l-20 0c-51,0 -76,30 -76,75l0 66c0,47 26,81 77,81l19 0c40,0 65,-18 65,-56 0,-11 -5,-19 -19,-19 -13,0 -19,8 -19,19 0,12 -12,20 -28,20l-19 0zm266 -183l-136 0c-9,0 -18,4 -18,17 0,13 9,18 18,18l50 0 0 164c0,10 5,19 19,19 13,0 19,-9 19,-19l0 -164 49 0c9,0 18,-5 18,-18 0,-13 -9,-17 -18,-17zm182 100c16,-9 26,-22 26,-45l0 -5c0,-37 -24,-51 -65,-51l-65 0c-13,0 -19,8 -19,18l0 178c0,10 6,18 19,18l75 0c38,0 64,-16 64,-56l0 -12c0,-25 -12,-40 -35,-47zm-86 -66l40 0c26,0 36,9 36,23l0 4c0,15 -12,24 -28,24l-47 0 0 -51zm84 118c0,19 -11,27 -28,27l-56 0 0 -61 49 0c21,0 35,10 35,29l0 5zm243 -156c-6,0 -12,4 -17,12l-104 142c2,-10 2,-17 2,-27 0,-15 0,-108 0,-108 0,-10 -5,-19 -17,-19 -13,0 -18,9 -18,19l0 184c0,10 5,19 16,19 8,0 13,-6 17,-11l103 -143c-2,10 -2,16 -2,26 0,15 0,109 0,109 0,10 5,19 17,19 13,0 18,-9 18,-19l0 -184c0,-10 -5,-19 -17,-19zm212 4l-136 0c-9,0 -18,4 -18,17 0,13 9,18 18,18l50 0 0 164c0,10 5,19 19,19 13,0 19,-9 19,-19l0 -164 49 0c9,0 18,-5 18,-18 0,-13 -9,-17 -18,-17zm214 71c0,-45 -24,-75 -76,-75l-13 0c-51,0 -76,30 -76,75l0 63c0,46 26,81 77,81l54 0c10,0 18,-5 18,-17 0,-12 -8,-17 -18,-17l-54 0c-28,0 -40,-20 -40,-46l0 -10 109 0c10,0 18,-6 18,-18l0 -34zm-127 18l0 -18c0,-24 11,-40 39,-40l13 0c28,0 39,16 39,40l0 18 -90 0zm324 -88l-91 0c-12,0 -19,8 -21,19l-19 140c-2,13 -12,24 -24,24 -9,0 -16,7 -16,18 0,12 8,18 18,18 30,0 51,-14 57,-52l18 -131 61 0 0 163c0,10 5,19 19,19 13,0 19,-9 19,-19l0 -180c0,-10 -6,-19 -19,-19zm119 70l0 -55c0,-10 -5,-19 -18,-19 -14,0 -19,9 -19,19l0 181c0,10 6,18 19,18l77 0c38,0 62,-26 62,-63l0 -13c0,-42 -30,-68 -72,-68l-49 0zm84 82c0,15 -10,28 -29,28l-55 0 0 -74 49 0c26,0 35,17 35,35l0 12zm240 -156c-14,0 -19,9 -19,19l0 69 -96 0 0 -69c0,-10 -5,-19 -18,-19 -14,0 -19,9 -19,19l0 184c0,10 5,19 18,19 14,0 19,-9 19,-19l0 -81 96 0 0 81c0,10 5,19 18,19 14,0 19,-9 19,-19l0 -184c0,-10 -5,-19 -18,-19zm116 74l0 -55c0,-10 -5,-19 -18,-19 -14,0 -19,9 -19,19l0 181c0,10 6,18 19,18l77 0c38,0 62,-26 62,-63l0 -13c0,-42 -30,-68 -72,-68l-49 0zm84 82c0,15 -10,28 -29,28l-55 0 0 -74 49 0c26,0 35,17 35,35l0 12zm109 -137c0,-10 -5,-19 -18,-19 -14,0 -19,9 -19,19l0 184c0,10 5,19 18,19 14,0 19,-9 19,-19l0 -184zm236 -19c-8,0 -14,4 -19,12 -12,21 -30,54 -50,90 -3,5 -7,14 -10,25 -3,-10 -7,-20 -10,-25 -20,-36 -39,-68 -50,-90 -4,-8 -11,-12 -19,-12 -14,0 -19,9 -19,19l0 184c0,10 4,19 17,19 14,0 18,-9 18,-19 0,0 0,-85 0,-100 0,-11 -1,-23 -3,-35 0,0 16,30 51,93 4,7 6,10 15,10 9,0 11,-3 15,-10 35,-63 51,-93 51,-93 -2,12 -3,24 -3,35 0,15 0,100 0,100 0,10 4,19 18,19 13,0 17,-9 17,-19l0 -184c0,-10 -5,-19 -19,-19zm-2902 716c-28,0 -40,-19 -40,-46l0 -66c0,-24 12,-40 39,-40l20 0c17,0 28,8 28,20 0,11 5,19 19,19 13,0 19,-8 19,-19 0,-38 -25,-56 -65,-56l-20 0c-51,0 -76,30 -76,75l0 66c0,47 26,81 77,81l19 0c40,0 65,-18 65,-56 0,-11 -5,-19 -19,-19 -13,0 -19,8 -19,19 0,12 -12,20 -28,20l-19 0zm313 0c-28,0 -39,-18 -39,-44l0 -64c0,-26 11,-44 39,-44l17 0c28,0 39,18 39,44l0 64c0,26 -11,44 -39,44l-17 0zm17 35c51,0 76,-34 76,-79l0 -64c0,-45 -24,-79 -76,-79l-17 0c-51,0 -76,34 -76,79l0 64c0,45 24,79 76,79l17 0zm262 -218l-136 0c-9,0 -18,4 -18,17 0,13 9,18 18,18l50 0 0 164c0,10 5,19 19,19 13,0 19,-9 19,-19l0 -164 49 0c9,0 18,-5 18,-18 0,-13 -9,-17 -18,-17zm234 -4c-8,0 -14,4 -19,12 -12,21 -30,54 -50,90 -3,5 -7,14 -10,25 -3,-10 -7,-20 -10,-25 -20,-36 -39,-68 -50,-90 -4,-8 -11,-12 -19,-12 -14,0 -19,9 -19,19l0 184c0,10 4,19 17,19 14,0 18,-9 18,-19 0,0 0,-85 0,-100 0,-11 -1,-23 -3,-35 0,0 16,30 51,93 4,7 6,10 15,10 9,0 11,-3 15,-10 35,-63 51,-93 51,-93 -2,12 -3,24 -3,35 0,15 0,100 0,100 0,10 4,19 18,19 13,0 17,-9 17,-19l0 -184c0,-10 -5,-19 -19,-19zm238 75c0,-45 -24,-75 -76,-75l-13 0c-51,0 -76,30 -76,75l0 63c0,46 26,81 77,81l54 0c10,0 18,-5 18,-17 0,-12 -8,-17 -18,-17l-54 0c-28,0 -40,-20 -40,-46l0 -10 109 0c10,0 18,-6 18,-18l0 -34zm-127 18l0 -18c0,-24 11,-40 39,-40l13 0c28,0 39,16 39,40l0 18 -90 0zm314 -88l-136 0c-9,0 -18,4 -18,17 0,13 9,18 18,18l50 0 0 164c0,10 5,19 19,19 13,0 19,-9 19,-19l0 -164 49 0c9,0 18,-5 18,-18 0,-13 -9,-17 -18,-17zm216 188l-67 -89 63 -73c8,-9 9,-19 0,-27 -8,-7 -21,-5 -28,5l-66 81 -22 0 0 -69c0,-10 -5,-19 -18,-19 -14,0 -19,9 -19,19l0 184c0,10 5,19 18,19 14,0 19,-9 19,-19l0 -81 23 0 66 91c6,9 17,13 28,5 11,-8 10,-17 3,-26zm115 -5c-28,0 -39,-18 -39,-44l0 -64c0,-26 11,-44 39,-44l17 0c28,0 39,18 39,44l0 64c0,26 -11,44 -39,44l-17 0zm17 35c51,0 76,-34 76,-79l0 -64c0,-45 -24,-79 -76,-79l-17 0c-51,0 -76,34 -76,79l0 64c0,45 24,79 76,79l17 0zm218 -238c37,0 57,-27 57,-55 0,-9 -7,-14 -15,-14 -9,0 -14,6 -15,15 -1,15 -11,26 -27,26 -16,0 -26,-11 -27,-26 -1,-9 -7,-15 -15,-15 -9,0 -15,6 -15,14 0,28 20,55 57,55zm67 16c-6,0 -12,4 -17,12l-104 142c2,-10 2,-17 2,-27 0,-15 0,-108 0,-108 0,-10 -5,-19 -17,-19 -13,0 -18,9 -18,19l0 184c0,10 5,19 16,19 8,0 13,-6 17,-11l103 -143c-2,10 -2,16 -2,26 0,15 0,109 0,109 0,10 5,19 17,19 13,0 18,-9 18,-19l0 -184c0,-10 -5,-19 -17,-19zm211 112l55 -55c6,-6 8,-14 0,-22 -8,-8 -16,-5 -22,0l-65 65c-3,3 -5,7 -5,12 0,4 2,8 5,12l65 65c6,6 14,8 22,0 8,-8 6,-16 0,-22l-55 -55zm89 0l55 -55c6,-6 8,-14 0,-22 -8,-8 -16,-5 -22,0l-65 65c-3,3 -5,7 -5,12 0,4 2,8 5,12l65 65c6,6 14,8 22,0 8,-8 6,-16 0,-22l-55 -55zm160 76c-15,0 -29,-6 -29,-15 0,-11 -5,-19 -18,-19 -13,0 -19,8 -19,19 0,38 25,49 65,49l25 0c52,0 69,-31 69,-65 0,-36 -15,-49 -37,-55 16,-5 28,-18 28,-47 0,-29 -13,-56 -64,-56l-17 0c-36,0 -63,12 -63,49 0,11 5,19 19,19 13,0 19,-8 19,-17 0,-9 10,-16 26,-16l17 0c21,0 28,9 28,27 0,18 -11,28 -38,28 -8,0 -14,7 -14,16 0,9 5,16 15,16 30,0 45,8 45,33 0,15 -7,33 -35,33l-22 0zm177 -184c-10,0 -19,5 -19,17 0,12 8,17 19,17l53 0c17,0 29,9 29,29l0 8 -58 0c-38,0 -62,17 -62,55l0 32c0,38 24,56 62,56l76 0c13,0 19,-9 19,-19l0 -132c0,-37 -25,-63 -66,-63l-53 0zm24 179c-17,0 -25,-9 -25,-21l0 -31c0,-13 8,-21 25,-21l58 0 0 73 -58 0zm234 -17c-6,6 -8,14 0,22 8,8 16,5 22,0l65 -65c3,-3 5,-7 5,-12 0,-4 -2,-8 -5,-12l-65 -65c-6,-6 -14,-8 -22,0 -8,8 -6,16 0,22l55 55 -55 55zm-89 0c-6,6 -8,14 0,22 8,8 16,5 22,0l65 -65c3,-3 5,-7 5,-12 0,-4 -2,-8 -5,-12l-65 -65c-6,-6 -14,-8 -22,0 -8,8 -6,16 0,22l55 55 -55 55zm-2891 555l-88 -126 84 -109c7,-9 7,-20 -1,-27 -10,-9 -22,-5 -29,4l-86 117 -25 0 0 -107c0,-10 -6,-19 -19,-19 -14,0 -20,9 -20,19l0 258c0,10 6,19 20,19 13,0 19,-9 19,-19l0 -115 25 0 88 126c5,8 16,13 27,5 12,-8 11,-19 5,-28zm78 -188c-10,0 -19,5 -19,17 0,12 8,17 19,17l53 0c17,0 29,9 29,29l0 8 -58 0c-38,0 -62,17 -62,55l0 32c0,38 24,56 62,56l76 0c13,0 19,-9 19,-19l0 -132c0,-37 -25,-63 -66,-63l-53 0zm24 179c-17,0 -25,-9 -25,-21l0 -31c0,-13 8,-21 25,-21l58 0 0 73 -58 0zm305 -184c-14,0 -19,9 -19,19l0 69 -96 0 0 -69c0,-10 -5,-19 -18,-19 -14,0 -19,9 -19,19l0 184c0,10 5,19 18,19 14,0 19,-9 19,-19l0 -81 96 0 0 81c0,10 5,19 18,19 14,0 19,-9 19,-19l0 -184c0,-10 -5,-19 -18,-19zm243 -12c0,-37 -24,-67 -64,-67l-56 0c-10,0 -19,5 -19,18 0,12 8,18 19,18l54 0c16,0 29,9 29,30l0 22 -51 0c-53,0 -81,38 -81,82l0 52c0,46 25,79 76,79l17 0c48,0 76,-30 76,-79l0 -155zm-37 155c0,25 -11,44 -39,44l-17 0c-24,0 -39,-14 -39,-44l0 -50c0,-28 14,-49 44,-49l51 0c0,0 0,89 0,99zm247 -143c-6,0 -12,4 -17,12l-104 142c2,-10 2,-17 2,-27 0,-15 0,-108 0,-108 0,-10 -5,-19 -17,-19 -13,0 -18,9 -18,19l0 184c0,10 5,19 16,19 8,0 13,-6 17,-11l103 -143c-2,10 -2,16 -2,26 0,15 0,109 0,109 0,10 5,19 17,19 13,0 18,-9 18,-19l0 -184c0,-10 -5,-19 -17,-19z"/>
   <path class="fil6" d="M9465 9807c0,-37 -24,-67 -64,-67l-56 0c-10,0 -19,5 -19,18 0,12 8,18 19,18l54 0c16,0 29,9 29,30l0 22 -51 0c-53,0 -81,38 -81,82l0 52c0,46 25,79 76,79l17 0c48,0 76,-30 76,-79l0 -155zm-37 155c0,25 -11,44 -39,44l-17 0c-24,0 -39,-14 -39,-44l0 -50c0,-28 14,-49 44,-49l51 0c0,0 0,89 0,99zm123 -139c-10,0 -19,5 -19,17 0,12 8,17 19,17l53 0c17,0 29,9 29,29l0 8 -58 0c-38,0 -62,17 -62,55l0 32c0,38 24,56 62,56l76 0c13,0 19,-9 19,-19l0 -132c0,-37 -25,-63 -66,-63l-53 0zm24 179c-17,0 -25,-9 -25,-21l0 -31c0,-13 8,-21 25,-21l58 0 0 73 -58 0zm288 -179l-136 0c-9,0 -18,4 -18,17 0,13 9,18 18,18l50 0 0 164c0,10 5,19 19,19 13,0 19,-9 19,-19l0 -164 49 0c9,0 18,-5 18,-18 0,-13 -9,-17 -18,-17zm79 0c-10,0 -19,5 -19,17 0,12 8,17 19,17l53 0c17,0 29,9 29,29l0 8 -58 0c-38,0 -62,17 -62,55l0 32c0,38 24,56 62,56l76 0c13,0 19,-9 19,-19l0 -132c0,-37 -25,-63 -66,-63l-53 0zm24 179c-17,0 -25,-9 -25,-21l0 -31c0,-13 8,-21 25,-21l58 0 0 73 -58 0zm296 -35c0,-19 7,-34 21,-40l76 -34c37,-16 45,-45 45,-73l0 -2c0,-47 -27,-74 -80,-74l-25 0c-42,0 -69,18 -69,62 0,11 5,19 19,19 14,0 19,-9 19,-19 0,-17 12,-25 30,-25l25 0c29,0 42,11 42,37l0 2c0,19 -6,31 -23,39l-70 31c-33,14 -49,45 -49,81l0 66 165 0c10,0 19,-5 19,-19 0,-13 -8,-19 -19,-19l-127 0 0 -33zm339 -92c0,-60 17,-118 55,-141 8,-5 14,-14 7,-25 -7,-10 -17,-8 -26,-3 -57,33 -74,102 -74,169l0 48c0,67 17,136 74,169 9,5 19,7 26,-3 7,-11 0,-20 -7,-25 -37,-23 -55,-81 -55,-141l0 -48zm254 -93l-23 0 0 -25c0,-10 -5,-19 -19,-19 -13,0 -19,9 -19,19l0 25 -23 0c-52,0 -78,30 -78,76l0 52c0,45 26,80 78,80l23 0 0 37c0,10 5,19 19,19 13,0 19,-9 19,-19l0 -37 23 0c52,0 78,-35 78,-80l0 -52c0,-46 -26,-76 -78,-76zm-61 174l-23 0c-28,0 -40,-20 -40,-45l0 -53c0,-25 12,-41 40,-41l23 0 0 140zm101 -45c0,25 -12,45 -40,45l-23 0 0 -140 23 0c28,0 40,16 40,41l0 53zm98 104c0,-12 -6,-22 -22,-22 -16,0 -22,10 -22,22l0 4c0,12 6,22 22,22 16,0 22,-10 22,-22l0 -4zm194 7c0,10 5,19 19,19 14,0 19,-9 19,-19l0 -258c0,-10 -6,-19 -20,-19 -8,0 -13,3 -19,14l-110 196 0 0c1,-7 2,-17 2,-28l0 -163c0,-10 -5,-19 -19,-19 -14,0 -19,9 -19,19l0 258c0,10 6,19 20,19 8,0 13,-3 19,-14l110 -196 0 0c-1,7 -2,17 -2,28l0 163zm128 -7c0,-12 -6,-22 -22,-22 -16,0 -22,10 -22,22l0 4c0,12 6,22 22,22 16,0 22,-10 22,-22l0 -4zm72 -188c0,-26 11,-45 40,-45l33 0c28,0 40,20 40,45l0 132c0,26 -11,45 -40,45l-33 0c-28,0 -40,-20 -40,-45l0 -132zm151 0c0,-45 -26,-82 -78,-82l-33 0c-52,0 -78,37 -78,82l0 132c0,45 26,82 78,82l33 0c52,0 78,-37 78,-82l0 -132zm78 188c0,-12 -6,-22 -22,-22 -16,0 -22,10 -22,22l0 4c0,12 6,22 22,22 16,0 22,-10 22,-22l0 -4zm82 -91c0,60 -17,118 -55,141 -8,5 -14,14 -7,25 7,10 17,8 26,3 57,-33 74,-102 74,-169l0 -48c0,-67 -17,-136 -74,-169 -9,-5 -19,-7 -26,3 -7,11 0,20 7,25 37,23 55,81 55,141l0 48z"/>
   <path class="fil7 str3" d="M9013 11606c-498,1734 -158,751 -390,597 -232,-154 842,-744 772,-270 -70,474 -842,360 -821,460 21,100 323,168 414,-84 91,-253 -42,197 197,119 238,-78 337,-302 298,-176 -39,126 28,105 154,28 126,-77 270,-158 270,-158"/>
   <path class="fil7 str3" d="M10455 12384c349,0 609,-552 450,-648 -300,-281 -622,659 129,422 374,-118 189,-885 189,14 0,57 767,194 -245,218"/>
   <path class="fil7 str4" d="M9592 10189c376,-101 763,122 863,499 101,376 -122,763 -499,863 -376,101 -763,-122 -863,-499 -101,-376 122,-763 499,-863zm-345 683c-1,-234 154,-448 391,-511 236,-63 478,45 594,247m70 259c1,234 -154,448 -391,511 -236,63 -478,-45 -594,-247m534 68c-62,17 -8,-58 -82,-38 -35,9 -93,106 -110,94 -18,-13 -72,-54 -64,-73 17,-42 21,-90 67,-116 -32,-22 -127,11 -137,-35 0,-1 -201,-117 -110,-197 18,-15 -19,-72 -6,-113 11,-34 269,-5 259,-41 -4,-17 -33,-57 -93,-63 -10,-1 55,-17 90,-31 7,-3 -17,-26 -13,-29 14,-11 15,-14 33,-19m685 162c0,0 -39,40 -10,47m-1169 305c-3,-27 43,-28 1,-59m681 201c62,-17 -22,-54 52,-74 35,-9 133,46 142,26 9,-21 35,-82 19,-95 -36,-28 -64,-68 -116,-67 16,-35 115,-54 101,-99 0,-1 115,-202 -3,-226 -23,-5 -19,-72 -52,-101 -27,-24 -235,131 -245,94 -4,-17 0,-66 48,-101 8,-6 -56,13 -94,18 -8,1 1,-31 -3,-31 -18,-2 -20,-5 -38,1"/>
  </g>
 </g>
</svg>
