<?xml version="1.0" encoding="UTF-8"?>
<!DOCTYPE svg PUBLIC "-//W3C//DTD SVG 1.1//EN" "http://www.w3.org/Graphics/SVG/1.1/DTD/svg11.dtd">
<!-- Creator: CorelDRAW X6 -->
<svg xmlns="http://www.w3.org/2000/svg" xml:space="preserve" width="200mm" height="200mm" version="1.1" style="shape-rendering:geometricPrecision; text-rendering:geometricPrecision; image-rendering:optimizeQuality; fill-rule:evenodd; clip-rule:evenodd"
viewBox="0 0 20000 20000"
 xmlns:xlink="http://www.w3.org/1999/xlink">
 <defs>
  <style type="text/css">
   <![CDATA[
    .str2 {stroke:#57A6B3;stroke-width:10.17;stroke-linecap:round;stroke-linejoin:round}
    .str6 {stroke:#57A6B3;stroke-width:10.19;stroke-linecap:round;stroke-linejoin:round}
    .str9 {stroke:#4D8A7D;stroke-width:11.85}
    .str12 {stroke:#CC7587;stroke-width:14.69}
    .str11 {stroke:#CC7587;stroke-width:19.99}
    .str10 {stroke:#034540;stroke-width:20.54}
    .str5 {stroke:#737370;stroke-width:67.92;stroke-linecap:round;stroke-linejoin:round}
    .str3 {stroke:#B54F66;stroke-width:67.92;stroke-linecap:round;stroke-linejoin:round}
    .str1 {stroke:#AB8082;stroke-width:81.77}
    .str7 {stroke:#AB8082;stroke-width:81.78}
    .str14 {stroke:#4D8A7D;stroke-width:98.73;stroke-linecap:round;stroke-linejoin:round}
    .str8 {stroke:#034540;stroke-width:112.83;stroke-linecap:round;stroke-linejoin:round}
    .str13 {stroke:#034540;stroke-width:132;stroke-linecap:round;stroke-linejoin:round}
    .str0 {stroke:#2E99A3;stroke-width:132.61;stroke-linecap:round;stroke-linejoin:round}
    .str4 {stroke:#CC5770;stroke-width:108.03;stroke-linecap:round;stroke-linejoin:round;stroke-dasharray:84.660000 253.980000}
    .fil8 {fill:none}
    .fil14 {fill:none;fill-rule:nonzero}
    .fil16 {fill:#738287}
    .fil7 {fill:#ABC9BF}
    .fil3 {fill:#B3B3B3}
    .fil2 {fill:#BDD6D1}
    .fil6 {fill:#C4C7C7}
    .fil1 {fill:#C9E6E8}
    .fil12 {fill:#CC5770}
    .fil4 {fill:#D9D9D9}
    .fil18 {fill:#FFF7B3}
    .fil17 {fill:#FFFADB}
    .fil20 {fill:#034540;fill-rule:nonzero}
    .fil5 {fill:#2E99A3;fill-rule:nonzero}
    .fil19 {fill:#4D8A7D;fill-rule:nonzero}
    .fil10 {fill:#57A6B3;fill-rule:nonzero}
    .fil11 {fill:#5C5C5C;fill-rule:nonzero}
    .fil15 {fill:#738287;fill-rule:nonzero}
    .fil9 {fill:#AB8082;fill-rule:nonzero}
    .fil13 {fill:#B54F66;fill-rule:nonzero}
    .fil21 {fill:#CC7587;fill-rule:nonzero}
    .fil0 {fill:url(#id0)}
   ]]>
  </style>
  <radialGradient id="id0" gradientUnits="userSpaceOnUse" cx="10000" cy="10000" r="10000" fx="10000" fy="10000">
   <stop offset="0" style="stop-color:#FEFEFE"/>
   <stop offset="0.439216" style="stop-color:#FEFEFE"/>
   <stop offset="1" style="stop-color:#D1E2F2"/>
  </radialGradient>
 </defs>
 <g id="Layer_x0020_1">
  <metadata id="CorelCorpID_0Corel-Layer"/>
  <g id="_898421328">
   <polygon class="fil0" points="0,0 20000,0 20000,20000 0,20000 "/>
   <polygon class="fil1" points="2876,7615 2876,4122 6216,4122 6216,7615 "/>
   <polygon class="fil2" points="7093,6551 7093,3157 6216,4122 6216,7615 "/>
   <polygon class="fil3" points="7037,3561 7037,3235 6216,4122 6216,4448 "/>
   <g>
    <polygon class="fil4" points="3853,3157 7093,3157 6216,4122 2876,4122 "/>
    <path id="1" class="fil5" d="M7093 3224l-3240 0 0 -133 3240 0 48 111 -48 21zm0 0l0 -133 3 0 3 0 3 0 3 1 3 1 3 1 3 1 3 1 3 1 3 1 3 2 3 2 3 2 2 2 2 2 2 2 2 2 2 2 2 3 2 3 2 3 2 3 1 3 1 3 1 3 1 3 1 3 1 3 1 3 0 3 0 3 0 3 0 3 0 3 0 3 -1 3 -1 3 -1 3 -1 3 -1 3 -1 3 -1 3 -2 3 -2 3 -2 3 -2 3 -2 2 -2 2 -2 2 -2 2 -2 2 -3 2 -3 2 -3 2 -3 1 -3 1 -3 1 -3 1 -3 1 -3 1 -3 1 -3 0 -3 0 -3 0zm-926 854l877 -965 97 90 -877 965 -48 21 -48 -111zm0 0l97 90 -2 2 -2 2 -3 2 -3 2 -3 2 -3 2 -3 2 -3 1 -3 1 -3 1 -3 1 -3 1 -3 1 -3 1 -3 0 -3 0 -3 0 -3 0 -3 0 -3 0 -3 -1 -3 -1 -3 -1 -3 -1 -3 -1 -3 -1 -3 -1 -3 -2 -3 -2 -3 -2 -3 -2 -3 -2 -2 -2 -2 -2 -2 -3 -2 -3 -2 -3 -2 -3 -2 -3 -1 -3 -1 -3 -1 -3 -1 -3 -1 -3 -1 -3 -1 -3 0 -3 0 -3 0 -3 0 -3 0 -3 0 -3 1 -3 1 -3 1 -3 1 -3 1 -3 1 -3 1 -3 2 -3 2 -3 2 -3 2 -3 2 -3zm-3292 -21l3340 0 0 133 -3340 0 -46 -114 46 -19zm0 0l0 133 -3 0 -3 0 -3 0 -3 -1 -3 -1 -3 -1 -3 -1 -3 -1 -3 -1 -3 -1 -3 -2 -3 -2 -3 -2 -2 -2 -2 -2 -2 -2 -2 -2 -2 -2 -2 -3 -2 -3 -2 -3 -2 -3 -1 -3 -1 -3 -1 -3 -1 -3 -1 -3 -1 -3 -1 -3 0 -3 0 -3 0 -3 0 -3 0 -3 0 -3 1 -3 1 -3 1 -3 1 -3 1 -3 1 -3 1 -3 2 -3 2 -3 2 -3 2 -3 2 -2 2 -2 2 -2 2 -2 2 -2 3 -2 3 -2 3 -2 3 -1 3 -1 3 -1 3 -1 3 -1 3 -1 3 -1 3 0 3 0 3 0zm1023 -851l-977 965 -92 -95 977 -965 46 -19 46 114zm0 0l-92 -95 2 -2 3 -2 3 -2 3 -2 3 -2 3 -2 3 -1 3 -1 3 -1 3 -1 3 -1 3 -1 3 -1 3 0 3 0 3 0 3 0 3 0 3 0 3 1 3 1 3 1 3 1 3 1 3 1 3 1 3 2 3 2 3 2 3 2 3 2 2 2 2 3 2 3 2 3 2 3 2 3 2 3 1 3 1 3 1 3 1 3 1 3 1 3 0 3 0 3 0 3 0 3 0 3 0 3 0 3 -1 3 -1 3 -1 3 -1 3 -1 3 -1 3 -1 3 -2 3 -2 3 -2 3 -2 3 -2 3 -2 2z"/>
   </g>
   <polygon class="fil6" points="2876,4448 2876,4122 6216,4122 6216,4448 "/>
   <polygon class="fil2" points="3780,6651 7020,6651 6216,7615 2876,7615 "/>
   <polygon class="fil7" points="6216,6651 6216,7615 7011,6651 "/>
   <g>
    <path class="fil5" d="M7160 3157l0 3393 -133 0 0 -3393 17 -44 116 44zm0 0l-133 0 0 -3 0 -3 0 -3 1 -3 1 -3 1 -3 1 -3 1 -3 1 -3 1 -3 2 -3 2 -3 2 -3 2 -2 2 -2 2 -2 2 -2 2 -2 3 -2 3 -2 3 -2 3 -2 3 -1 3 -1 3 -1 3 -1 3 -1 3 -1 3 -1 3 0 3 0 3 0 3 0 3 0 3 0 3 1 3 1 3 1 3 1 3 1 3 1 3 1 3 2 3 2 3 2 3 2 2 2 2 2 2 2 2 2 2 2 2 3 2 3 2 3 1 3 1 3 1 3 1 3 1 3 1 3 1 3 0 3 0 3 0 3zm-993 921l877 -965 99 88 -877 965 -116 -44 17 -44zm0 0l99 88 -2 2 -2 2 -3 2 -3 2 -3 2 -3 2 -3 2 -3 1 -3 1 -3 1 -3 1 -3 1 -3 1 -3 1 -3 0 -3 0 -3 0 -3 0 -3 0 -3 0 -3 -1 -3 -1 -3 -1 -3 -1 -3 -1 -3 -1 -3 -1 -3 -2 -3 -2 -3 -2 -3 -2 -3 -2 -2 -2 -2 -2 -2 -3 -2 -3 -2 -3 -2 -3 -2 -3 -1 -3 -1 -3 -1 -3 -1 -3 -1 -3 -1 -3 -1 -3 0 -3 0 -3 0 -3 0 -3 0 -3 0 -3 1 -3 1 -3 1 -3 1 -3 1 -3 1 -3 1 -3 2 -3 2 -3 2 -3 2 -3 2 -3zm-17 3537l0 -3493 133 0 0 3493 -15 41 -118 -41zm0 0l133 0 0 3 0 3 0 3 -1 3 -1 3 -1 3 -1 3 -1 3 -1 3 -1 3 -2 3 -2 3 -2 3 -2 2 -2 2 -2 2 -2 2 -2 2 -3 2 -3 2 -3 2 -3 2 -3 1 -3 1 -3 1 -3 1 -3 1 -3 1 -3 1 -3 0 -3 0 -3 0 -3 0 -3 0 -3 0 -3 -1 -3 -1 -3 -1 -3 -1 -3 -1 -3 -1 -3 -1 -3 -2 -3 -2 -3 -2 -3 -2 -2 -2 -2 -2 -2 -2 -2 -2 -2 -2 -2 -3 -2 -3 -2 -3 -1 -3 -1 -3 -1 -3 -1 -3 -1 -3 -1 -3 -1 -3 0 -3 0 -3 0 -3zm995 -1023l-877 1065 -103 -83 877 -1065 118 41 -15 41zm0 0l-103 -83 2 -3 2 -2 2 -2 3 -2 3 -2 3 -2 3 -2 3 -2 3 -1 3 -1 3 -1 3 -1 3 -1 3 -1 3 -1 3 0 3 0 3 0 3 0 3 0 3 0 3 1 3 1 3 1 3 1 3 1 3 1 3 1 3 2 3 2 3 2 3 2 3 2 2 2 2 2 2 2 2 3 2 3 2 3 2 3 1 3 1 3 1 3 1 3 1 3 1 3 1 3 0 3 0 3 0 3 0 3 0 3 0 3 -1 3 -1 3 -1 3 -1 3 -1 3 -1 3 -1 3 -2 3 -2 3 -2 3 -2 3z"/>
   </g>
   <polyline class="fil8 str0" points="7093,3556 6282,4448 2889,4448 "/>
   <polygon class="fil8 str0" points="2876,7616 2876,4122 6216,4122 6216,7616 "/>
   <path class="fil9 str1" d="M4883 5224c-21,0 -35,9 -47,21 -64,70 -135,141 -211,210 -23,22 -33,49 -1,81 29,29 56,18 79,-1 47,-39 95,-89 135,-137l0 634 -163 0c-33,0 -59,17 -59,59 0,42 26,59 59,59l422 0c33,0 59,-17 59,-59 0,-42 -26,-59 -59,-59l-137 0 0 -746c0,-34 -10,-61 -56,-61l-22 0z"/>
   <path class="fil9" d="M4121 5911c0,23 3,46 5,61l-1 0 -190 -390c-10,-20 -23,-29 -39,-29 -29,0 -40,18 -40,39l0 527c0,20 11,39 39,39 27,0 38,-18 38,-39l0 -319c0,-23 -3,-46 -5,-61l1 0 190 390c10,20 23,29 39,29 29,0 40,-18 40,-39l0 -527c0,-20 -11,-39 -39,-39 -27,0 -38,18 -38,39l0 319zm212 -180c-25,0 -32,-14 -32,-38l0 -42c0,-23 7,-38 32,-38l13 0c25,0 32,14 32,38l0 42c0,23 -7,38 -32,38l-13 0zm13 56c58,0 86,-39 86,-90l0 -50c0,-51 -28,-89 -86,-89l-14 0c-58,0 -86,38 -86,89l0 50c0,51 28,90 86,90l14 0zm58 99c18,0 30,-8 30,-30 0,-22 -13,-30 -30,-30l-129 0c-18,0 -31,8 -31,30 0,22 13,30 31,30l129 0z"/>
   <path class="fil10 str2" d="M3944 6742c0,-41 -18,-67 -53,-79 25,-15 37,-34 37,-65l0 -17c0,-56 -32,-85 -96,-85l-59 0c-17,0 -24,11 -24,23l0 306c0,12 7,23 24,23l76 0c64,0 96,-34 96,-90l0 -16zm-148 -51l52 0c35,0 48,20 48,51l0 16c0,30 -14,45 -48,45l-52 0 0 -112zm0 -44l0 -106 36 0c34,0 48,10 48,40l0 17c0,30 -14,49 -48,49l-36 0zm286 -15l-35 0 0 -118c0,-12 -7,-23 -24,-23 -17,0 -24,11 -24,23l0 311c0,12 7,23 23,23l59 0c64,0 93,-34 93,-90l0 -30c0,-55 -29,-95 -93,-95zm-35 45l35 0c35,0 47,19 47,50l0 30c0,30 -12,45 -47,45l-35 0 0 -125zm211 153l0 -316c0,-12 -7,-23 -23,-23 -16,0 -24,11 -24,23l0 316c0,12 7,23 23,23 16,0 24,-11 24,-23zm165 -195l-45 0 0 -94 102 0c12,0 22,-7 22,-23 0,-15 -11,-23 -22,-23l-126 0c-16,0 -23,10 -23,22l0 307c0,12 8,23 24,23l69 0c64,0 93,-34 93,-90l0 -29c0,-55 -29,-94 -93,-94zm47 123c0,30 -12,45 -47,45l-45 0 0 -126 45 0c35,0 47,19 47,50l0 31zm145 -169c0,-31 11,-53 46,-53l15 0c35,0 46,22 46,53l0 166c0,31 -11,53 -46,53l-15 0c-35,0 -46,-22 -46,-53l0 -166zm154 0c0,-55 -29,-98 -93,-98l-15 0c-64,0 -93,43 -93,98l0 166c0,55 29,98 93,98l15 0c64,0 93,-43 93,-98l0 -166zm115 77l0 -125 51 0c35,0 47,15 47,45l0 30c0,31 -12,50 -47,50l-51 0zm51 45c64,0 93,-40 93,-95l0 -30c0,-56 -29,-90 -93,-90l-75 0c-16,0 -23,11 -23,23l0 311c0,12 7,23 24,23 17,0 24,-11 24,-23l0 -119 51 0zm233 -79l-35 0 0 -118c0,-12 -7,-23 -24,-23 -17,0 -24,11 -24,23l0 311c0,12 7,23 23,23l59 0c64,0 93,-34 93,-90l0 -30c0,-55 -29,-95 -93,-95zm-35 45l35 0c35,0 47,19 47,50l0 30c0,30 -12,45 -47,45l-35 0 0 -125zm211 153l0 -316c0,-12 -7,-23 -23,-23 -16,0 -24,11 -24,23l0 316c0,12 7,23 23,23 16,0 24,-11 24,-23z"/>
   <g>
    <path class="fil11" d="M3926 3540l0 200 -5 0 -5 0 -5 -1 -5 -1 -5 -1 -5 -1 -4 -2 -4 -2 -4 -2 -4 -2 -4 -2 -4 -3 -4 -3 -4 -3 -3 -3 -3 -3 -3 -3 -3 -4 -3 -4 -3 -4 -2 -4 -2 -4 -2 -4 -2 -4 -2 -5 -2 -5 -1 -5 -1 -5 -1 -5 -1 -5 0 -5 0 -5 0 -5 0 -5 1 -5 1 -5 1 -5 1 -5 2 -5 2 -5 2 -4 2 -4 2 -4 2 -4 3 -4 3 -4 3 -4 3 -3 3 -3 3 -3 4 -3 4 -3 4 -3 4 -2 4 -2 4 -2 4 -2 4 -2 5 -1 5 -1 5 -1 5 -1 5 0 5 0zm2028 200l-2028 0 0 -200 2028 0 0 200zm0 0l0 -200 5 0 5 0 5 1 5 1 5 1 5 1 4 2 4 2 4 2 4 2 4 2 4 3 4 3 4 3 3 3 3 3 3 3 3 4 3 4 3 4 2 4 2 4 2 4 2 4 2 5 2 5 1 5 1 5 1 5 1 5 0 5 0 5 0 5 0 5 -1 5 -1 5 -1 5 -1 5 -2 5 -2 5 -2 4 -2 4 -2 4 -2 4 -3 4 -3 4 -3 4 -3 3 -3 3 -3 3 -4 3 -4 3 -4 3 -4 2 -4 2 -4 2 -4 2 -4 2 -5 1 -5 1 -5 1 -5 1 -5 0 -5 0z"/>
   </g>
   <path class="fil12" d="M2800 3539l32 42c19,-12 40,-24 60,-34 27,-13 59,-3 72,24 13,27 3,61 -23,74 -15,8 -30,14 -44,23l18 23 -88 266 -671 508 -96 -127 -115 -152 -96 -127 671 -508 279 -12z"/>
   <path class="fil8 str3" d="M2605 3872c-8,-47 -52,-79 -99,-71 -47,8 -79,52 -71,99"/>
   <path class="fil8 str4" d="M3886 4017c113,354 -75,736 -427,861"/>
   <path class="fil13" d="M2908 3543c140,-64 294,-81 440,-54 177,32 343,128 461,284l0 0c14,19 27,38 39,57 22,35 1,67 -40,67l-59 0c-12,-20 -11,-40 -26,-59l0 0 0 0c-100,-132 -242,-215 -394,-242 -128,-23 -262,-8 -384,50l-3 1c27,-13 37,-48 23,-74 -11,-22 -35,-33 -57,-29zm-157 1248c135,108 307,169 487,164 30,-1 53,-26 52,-56 -1,-30 -26,-53 -56,-52 -154,5 -301,-47 -416,-139 -248,-199 -222,-406 -237,-700 -2,-36 -4,-75 -7,-129 -2,-30 -27,-52 -57,-51 -30,2 -52,27 -51,57 2,38 5,86 7,128 18,334 -3,554 277,778zm-328 -1164c-37,-137 -94,-283 -167,-432 -76,-154 -169,-311 -274,-465 -17,-25 -11,-58 14,-75 25,-17 58,-11 75,14 108,156 203,318 282,479 69,141 125,279 163,410l-92 70z"/>
   <path class="fil14 str5" d="M3702 3856c8,47 53,78 100,70 47,-8 78,-53 70,-100"/>
   <path class="fil14 str5" d="M3227 4986c48,3 89,-32 92,-80 3,-48 -32,-89 -80,-92"/>
   <polygon class="fil1" points="13292,7615 13292,4122 16632,4122 16632,7615 "/>
   <polygon class="fil2" points="17509,6551 17509,3157 16632,4122 16632,7615 "/>
   <polygon class="fil3" points="17452,3561 17452,3235 16632,4122 16632,4448 "/>
   <g>
    <polygon class="fil4" points="14269,3157 17509,3157 16632,4122 13292,4122 "/>
    <path id="1" class="fil5" d="M17509 3224l-3240 0 0 -133 3240 0 48 111 -48 21zm0 0l0 -133 3 0 3 0 3 0 3 1 3 1 3 1 3 1 3 1 3 1 3 1 3 2 3 2 3 2 2 2 2 2 2 2 2 2 2 2 2 3 2 3 2 3 2 3 1 3 1 3 1 3 1 3 1 3 1 3 1 3 0 3 0 3 0 3 0 3 0 3 0 3 -1 3 -1 3 -1 3 -1 3 -1 3 -1 3 -1 3 -2 3 -2 3 -2 3 -2 3 -2 2 -2 2 -2 2 -2 2 -2 2 -3 2 -3 2 -3 2 -3 1 -3 1 -3 1 -3 1 -3 1 -3 1 -3 1 -3 0 -3 0 -3 0zm-926 854l877 -965 97 90 -877 965 -48 21 -48 -111zm0 0l97 90 -2 2 -2 2 -3 2 -3 2 -3 2 -3 2 -3 2 -3 1 -3 1 -3 1 -3 1 -3 1 -3 1 -3 1 -3 0 -3 0 -3 0 -3 0 -3 0 -3 0 -3 -1 -3 -1 -3 -1 -3 -1 -3 -1 -3 -1 -3 -1 -3 -2 -3 -2 -3 -2 -3 -2 -3 -2 -2 -2 -2 -2 -2 -3 -2 -3 -2 -3 -2 -3 -2 -3 -1 -3 -1 -3 -1 -3 -1 -3 -1 -3 -1 -3 -1 -3 0 -3 0 -3 0 -3 0 -3 0 -3 0 -3 1 -3 1 -3 1 -3 1 -3 1 -3 1 -3 1 -3 2 -3 2 -3 2 -3 2 -3 2 -3zm-3292 -21l3340 0 0 133 -3340 0 -46 -114 46 -19zm0 0l0 133 -3 0 -3 0 -3 0 -3 -1 -3 -1 -3 -1 -3 -1 -3 -1 -3 -1 -3 -1 -3 -2 -3 -2 -3 -2 -2 -2 -2 -2 -2 -2 -2 -2 -2 -2 -2 -3 -2 -3 -2 -3 -2 -3 -1 -3 -1 -3 -1 -3 -1 -3 -1 -3 -1 -3 -1 -3 0 -3 0 -3 0 -3 0 -3 0 -3 0 -3 1 -3 1 -3 1 -3 1 -3 1 -3 1 -3 1 -3 2 -3 2 -3 2 -3 2 -3 2 -2 2 -2 2 -2 2 -2 2 -2 3 -2 3 -2 3 -2 3 -1 3 -1 3 -1 3 -1 3 -1 3 -1 3 -1 3 0 3 0 3 0zm1023 -851l-977 965 -92 -95 977 -965 46 -19 46 114zm0 0l-92 -95 2 -2 3 -2 3 -2 3 -2 3 -2 3 -2 3 -1 3 -1 3 -1 3 -1 3 -1 3 -1 3 -1 3 0 3 0 3 0 3 0 3 0 3 0 3 1 3 1 3 1 3 1 3 1 3 1 3 1 3 2 3 2 3 2 3 2 3 2 2 2 2 3 2 3 2 3 2 3 2 3 2 3 1 3 1 3 1 3 1 3 1 3 1 3 0 3 0 3 0 3 0 3 0 3 0 3 0 3 -1 3 -1 3 -1 3 -1 3 -1 3 -1 3 -1 3 -2 3 -2 3 -2 3 -2 3 -2 3 -2 2z"/>
   </g>
   <polygon class="fil6" points="13292,4448 13292,4122 16632,4122 16632,4448 "/>
   <polygon class="fil2" points="14196,6651 17436,6651 16632,7615 13292,7615 "/>
   <polygon class="fil7" points="16632,6651 16632,7615 17427,6651 "/>
   <g>
    <path class="fil5" d="M17575 3157l0 3393 -133 0 0 -3393 17 -44 116 44zm0 0l-133 0 0 -3 0 -3 0 -3 1 -3 1 -3 1 -3 1 -3 1 -3 1 -3 1 -3 2 -3 2 -3 2 -3 2 -2 2 -2 2 -2 2 -2 2 -2 3 -2 3 -2 3 -2 3 -2 3 -1 3 -1 3 -1 3 -1 3 -1 3 -1 3 -1 3 0 3 0 3 0 3 0 3 0 3 0 3 1 3 1 3 1 3 1 3 1 3 1 3 1 3 2 3 2 3 2 3 2 2 2 2 2 2 2 2 2 2 2 2 3 2 3 2 3 1 3 1 3 1 3 1 3 1 3 1 3 1 3 0 3 0 3 0 3zm-993 921l877 -965 99 88 -877 965 -116 -44 17 -44zm0 0l99 88 -2 2 -2 2 -3 2 -3 2 -3 2 -3 2 -3 2 -3 1 -3 1 -3 1 -3 1 -3 1 -3 1 -3 1 -3 0 -3 0 -3 0 -3 0 -3 0 -3 0 -3 -1 -3 -1 -3 -1 -3 -1 -3 -1 -3 -1 -3 -1 -3 -2 -3 -2 -3 -2 -3 -2 -3 -2 -2 -2 -2 -2 -2 -3 -2 -3 -2 -3 -2 -3 -2 -3 -1 -3 -1 -3 -1 -3 -1 -3 -1 -3 -1 -3 -1 -3 0 -3 0 -3 0 -3 0 -3 0 -3 0 -3 1 -3 1 -3 1 -3 1 -3 1 -3 1 -3 1 -3 2 -3 2 -3 2 -3 2 -3 2 -3zm-17 3537l0 -3493 133 0 0 3493 -15 41 -118 -41zm0 0l133 0 0 3 0 3 0 3 -1 3 -1 3 -1 3 -1 3 -1 3 -1 3 -1 3 -2 3 -2 3 -2 3 -2 2 -2 2 -2 2 -2 2 -2 2 -3 2 -3 2 -3 2 -3 2 -3 1 -3 1 -3 1 -3 1 -3 1 -3 1 -3 1 -3 0 -3 0 -3 0 -3 0 -3 0 -3 0 -3 -1 -3 -1 -3 -1 -3 -1 -3 -1 -3 -1 -3 -1 -3 -2 -3 -2 -3 -2 -3 -2 -2 -2 -2 -2 -2 -2 -2 -2 -2 -2 -2 -3 -2 -3 -2 -3 -1 -3 -1 -3 -1 -3 -1 -3 -1 -3 -1 -3 -1 -3 0 -3 0 -3 0 -3zm995 -1023l-877 1065 -103 -83 877 -1065 118 41 -15 41zm0 0l-103 -83 2 -3 2 -2 2 -2 3 -2 3 -2 3 -2 3 -2 3 -2 3 -1 3 -1 3 -1 3 -1 3 -1 3 -1 3 -1 3 0 3 0 3 0 3 0 3 0 3 0 3 1 3 1 3 1 3 1 3 1 3 1 3 1 3 2 3 2 3 2 3 2 3 2 2 2 2 2 2 2 2 3 2 3 2 3 2 3 1 3 1 3 1 3 1 3 1 3 1 3 1 3 0 3 0 3 0 3 0 3 0 3 0 3 -1 3 -1 3 -1 3 -1 3 -1 3 -1 3 -1 3 -2 3 -2 3 -2 3 -2 3z"/>
   </g>
   <polyline class="fil8 str0" points="17509,3556 16698,4448 13305,4448 "/>
   <polygon class="fil8 str0" points="13292,7616 13292,4122 16632,4122 16632,7616 "/>
   <path class="fil10 str6" d="M14359 6742c0,-41 -18,-67 -53,-79 25,-15 37,-34 37,-65l0 -17c0,-56 -32,-85 -96,-85l-59 0c-17,0 -24,11 -24,23l0 306c0,12 7,23 24,23l76 0c64,0 96,-34 96,-90l0 -16zm-148 -51l52 0c35,0 48,20 48,51l0 16c0,30 -14,45 -48,45l-52 0 0 -112zm0 -44l0 -106 36 0c34,0 48,10 48,40l0 17c0,30 -14,49 -48,49l-36 0zm286 -15l-35 0 0 -118c0,-12 -7,-23 -24,-23 -17,0 -24,11 -24,23l0 311c0,12 7,23 23,23l59 0c64,0 93,-34 93,-90l0 -30c0,-55 -29,-95 -93,-95zm-35 45l35 0c35,0 47,19 47,50l0 30c0,30 -12,45 -47,45l-35 0 0 -125zm211 153l0 -316c0,-12 -7,-23 -23,-23 -16,0 -24,11 -24,23l0 316c0,12 7,23 23,23 16,0 24,-11 24,-23zm165 -195l-45 0 0 -94 102 0c12,0 22,-7 22,-23 0,-15 -11,-23 -22,-23l-126 0c-16,0 -23,10 -23,22l0 307c0,12 8,23 24,23l69 0c64,0 93,-34 93,-90l0 -29c0,-55 -29,-94 -93,-94zm47 123c0,30 -12,45 -47,45l-45 0 0 -126 45 0c35,0 47,19 47,50l0 31zm145 -169c0,-31 11,-53 46,-53l15 0c35,0 46,22 46,53l0 166c0,31 -11,53 -46,53l-15 0c-35,0 -46,-22 -46,-53l0 -166zm154 0c0,-55 -29,-98 -93,-98l-15 0c-64,0 -93,43 -93,98l0 166c0,55 29,98 93,98l15 0c64,0 93,-43 93,-98l0 -166zm115 77l0 -125 51 0c35,0 47,15 47,45l0 30c0,31 -12,50 -47,50l-51 0zm51 45c64,0 93,-40 93,-95l0 -30c0,-56 -29,-90 -93,-90l-75 0c-16,0 -23,11 -23,23l0 311c0,12 7,23 24,23 17,0 24,-11 24,-23l0 -119 51 0zm233 -79l-35 0 0 -118c0,-12 -7,-23 -24,-23 -17,0 -24,11 -24,23l0 311c0,12 7,23 23,23l59 0c64,0 93,-34 93,-90l0 -30c0,-55 -29,-95 -93,-95zm-35 45l35 0c35,0 47,19 47,50l0 30c0,30 -12,45 -47,45l-35 0 0 -125zm211 153l0 -316c0,-12 -7,-23 -23,-23 -16,0 -24,11 -24,23l0 316c0,12 7,23 23,23 16,0 24,-11 24,-23z"/>
   <g>
    <path class="fil11" d="M14342 3540l0 200 -5 0 -5 0 -5 -1 -5 -1 -5 -1 -5 -1 -4 -2 -4 -2 -4 -2 -4 -2 -4 -2 -4 -3 -4 -3 -4 -3 -3 -3 -3 -3 -3 -3 -3 -4 -3 -4 -3 -4 -2 -4 -2 -4 -2 -4 -2 -4 -2 -5 -2 -5 -1 -5 -1 -5 -1 -5 -1 -5 0 -5 0 -5 0 -5 0 -5 1 -5 1 -5 1 -5 1 -5 2 -5 2 -5 2 -4 2 -4 2 -4 2 -4 3 -4 3 -4 3 -4 3 -3 3 -3 3 -3 4 -3 4 -3 4 -3 4 -2 4 -2 4 -2 4 -2 4 -2 5 -1 5 -1 5 -1 5 -1 5 0 5 0zm2028 200l-2028 0 0 -200 2028 0 0 200zm0 0l0 -200 5 0 5 0 5 1 5 1 5 1 5 1 4 2 4 2 4 2 4 2 4 2 4 3 4 3 4 3 3 3 3 3 3 3 3 4 3 4 3 4 2 4 2 4 2 4 2 4 2 5 2 5 1 5 1 5 1 5 1 5 0 5 0 5 0 5 0 5 -1 5 -1 5 -1 5 -1 5 -2 5 -2 5 -2 4 -2 4 -2 4 -2 4 -3 4 -3 4 -3 4 -3 3 -3 3 -3 3 -4 3 -4 3 -4 3 -4 2 -4 2 -4 2 -4 2 -4 2 -5 1 -5 1 -5 1 -5 1 -5 0 -5 0z"/>
   </g>
   <polygon class="fil1" points="8084,7615 8084,4122 11424,4122 11424,7615 "/>
   <polygon class="fil2" points="12301,6551 12301,3157 11424,4122 11424,7615 "/>
   <polygon class="fil3" points="12244,3561 12244,3235 11424,4122 11424,4448 "/>
   <g>
    <polygon class="fil4" points="9061,3157 12301,3157 11424,4122 8084,4122 "/>
    <path id="1" class="fil5" d="M12301 3224l-3240 0 0 -133 3240 0 48 111 -48 21zm0 0l0 -133 3 0 3 0 3 0 3 1 3 1 3 1 3 1 3 1 3 1 3 1 3 2 3 2 3 2 2 2 2 2 2 2 2 2 2 2 2 3 2 3 2 3 2 3 1 3 1 3 1 3 1 3 1 3 1 3 1 3 0 3 0 3 0 3 0 3 0 3 0 3 -1 3 -1 3 -1 3 -1 3 -1 3 -1 3 -1 3 -2 3 -2 3 -2 3 -2 3 -2 2 -2 2 -2 2 -2 2 -2 2 -3 2 -3 2 -3 2 -3 1 -3 1 -3 1 -3 1 -3 1 -3 1 -3 1 -3 0 -3 0 -3 0zm-926 854l877 -965 97 90 -877 965 -48 21 -48 -111zm0 0l97 90 -2 2 -2 2 -3 2 -3 2 -3 2 -3 2 -3 2 -3 1 -3 1 -3 1 -3 1 -3 1 -3 1 -3 1 -3 0 -3 0 -3 0 -3 0 -3 0 -3 0 -3 -1 -3 -1 -3 -1 -3 -1 -3 -1 -3 -1 -3 -1 -3 -2 -3 -2 -3 -2 -3 -2 -3 -2 -2 -2 -2 -2 -2 -3 -2 -3 -2 -3 -2 -3 -2 -3 -1 -3 -1 -3 -1 -3 -1 -3 -1 -3 -1 -3 -1 -3 0 -3 0 -3 0 -3 0 -3 0 -3 0 -3 1 -3 1 -3 1 -3 1 -3 1 -3 1 -3 1 -3 2 -3 2 -3 2 -3 2 -3 2 -3zm-3292 -21l3340 0 0 133 -3340 0 -46 -114 46 -19zm0 0l0 133 -3 0 -3 0 -3 0 -3 -1 -3 -1 -3 -1 -3 -1 -3 -1 -3 -1 -3 -1 -3 -2 -3 -2 -3 -2 -2 -2 -2 -2 -2 -2 -2 -2 -2 -2 -2 -3 -2 -3 -2 -3 -2 -3 -1 -3 -1 -3 -1 -3 -1 -3 -1 -3 -1 -3 -1 -3 0 -3 0 -3 0 -3 0 -3 0 -3 0 -3 1 -3 1 -3 1 -3 1 -3 1 -3 1 -3 1 -3 2 -3 2 -3 2 -3 2 -3 2 -2 2 -2 2 -2 2 -2 2 -2 3 -2 3 -2 3 -2 3 -1 3 -1 3 -1 3 -1 3 -1 3 -1 3 -1 3 0 3 0 3 0zm1023 -851l-977 965 -92 -95 977 -965 46 -19 46 114zm0 0l-92 -95 2 -2 3 -2 3 -2 3 -2 3 -2 3 -2 3 -1 3 -1 3 -1 3 -1 3 -1 3 -1 3 -1 3 0 3 0 3 0 3 0 3 0 3 0 3 1 3 1 3 1 3 1 3 1 3 1 3 1 3 2 3 2 3 2 3 2 3 2 2 2 2 3 2 3 2 3 2 3 2 3 2 3 1 3 1 3 1 3 1 3 1 3 1 3 0 3 0 3 0 3 0 3 0 3 0 3 0 3 -1 3 -1 3 -1 3 -1 3 -1 3 -1 3 -1 3 -2 3 -2 3 -2 3 -2 3 -2 3 -2 2z"/>
   </g>
   <polygon class="fil6" points="8084,4448 8084,4122 11424,4122 11424,4448 "/>
   <polygon class="fil2" points="8988,6651 12228,6651 11424,7615 8084,7615 "/>
   <polygon class="fil7" points="11424,6651 11424,7615 12219,6651 "/>
   <g>
    <path class="fil5" d="M12368 3157l0 3393 -133 0 0 -3393 17 -44 116 44zm0 0l-133 0 0 -3 0 -3 0 -3 1 -3 1 -3 1 -3 1 -3 1 -3 1 -3 1 -3 2 -3 2 -3 2 -3 2 -2 2 -2 2 -2 2 -2 2 -2 3 -2 3 -2 3 -2 3 -2 3 -1 3 -1 3 -1 3 -1 3 -1 3 -1 3 -1 3 0 3 0 3 0 3 0 3 0 3 0 3 1 3 1 3 1 3 1 3 1 3 1 3 1 3 2 3 2 3 2 3 2 2 2 2 2 2 2 2 2 2 2 2 3 2 3 2 3 1 3 1 3 1 3 1 3 1 3 1 3 1 3 0 3 0 3 0 3zm-993 921l877 -965 99 88 -877 965 -116 -44 17 -44zm0 0l99 88 -2 2 -2 2 -3 2 -3 2 -3 2 -3 2 -3 2 -3 1 -3 1 -3 1 -3 1 -3 1 -3 1 -3 1 -3 0 -3 0 -3 0 -3 0 -3 0 -3 0 -3 -1 -3 -1 -3 -1 -3 -1 -3 -1 -3 -1 -3 -1 -3 -2 -3 -2 -3 -2 -3 -2 -3 -2 -2 -2 -2 -2 -2 -3 -2 -3 -2 -3 -2 -3 -2 -3 -1 -3 -1 -3 -1 -3 -1 -3 -1 -3 -1 -3 -1 -3 0 -3 0 -3 0 -3 0 -3 0 -3 0 -3 1 -3 1 -3 1 -3 1 -3 1 -3 1 -3 1 -3 2 -3 2 -3 2 -3 2 -3 2 -3zm-17 3537l0 -3493 133 0 0 3493 -15 41 -118 -41zm0 0l133 0 0 3 0 3 0 3 -1 3 -1 3 -1 3 -1 3 -1 3 -1 3 -1 3 -2 3 -2 3 -2 3 -2 2 -2 2 -2 2 -2 2 -2 2 -3 2 -3 2 -3 2 -3 2 -3 1 -3 1 -3 1 -3 1 -3 1 -3 1 -3 1 -3 0 -3 0 -3 0 -3 0 -3 0 -3 0 -3 -1 -3 -1 -3 -1 -3 -1 -3 -1 -3 -1 -3 -1 -3 -2 -3 -2 -3 -2 -3 -2 -2 -2 -2 -2 -2 -2 -2 -2 -2 -2 -2 -3 -2 -3 -2 -3 -1 -3 -1 -3 -1 -3 -1 -3 -1 -3 -1 -3 -1 -3 0 -3 0 -3 0 -3zm995 -1023l-877 1065 -103 -83 877 -1065 118 41 -15 41zm0 0l-103 -83 2 -3 2 -2 2 -2 3 -2 3 -2 3 -2 3 -2 3 -2 3 -1 3 -1 3 -1 3 -1 3 -1 3 -1 3 -1 3 0 3 0 3 0 3 0 3 0 3 0 3 1 3 1 3 1 3 1 3 1 3 1 3 1 3 2 3 2 3 2 3 2 3 2 2 2 2 2 2 2 2 3 2 3 2 3 2 3 1 3 1 3 1 3 1 3 1 3 1 3 1 3 0 3 0 3 0 3 0 3 0 3 0 3 -1 3 -1 3 -1 3 -1 3 -1 3 -1 3 -1 3 -2 3 -2 3 -2 3 -2 3z"/>
   </g>
   <polyline class="fil8 str0" points="12301,3556 11490,4448 8097,4448 "/>
   <polygon class="fil8 str0" points="8084,7616 8084,4122 11424,4122 11424,7616 "/>
   <path class="fil10 str6" d="M9152 6742c0,-41 -18,-67 -53,-79 25,-15 37,-34 37,-65l0 -17c0,-56 -32,-85 -96,-85l-59 0c-17,0 -24,11 -24,23l0 306c0,12 7,23 24,23l76 0c64,0 96,-34 96,-90l0 -16zm-148 -51l52 0c35,0 48,20 48,51l0 16c0,30 -14,45 -48,45l-52 0 0 -112zm0 -44l0 -106 36 0c34,0 48,10 48,40l0 17c0,30 -14,49 -48,49l-36 0zm286 -15l-35 0 0 -118c0,-12 -7,-23 -24,-23 -17,0 -24,11 -24,23l0 311c0,12 7,23 23,23l59 0c64,0 93,-34 93,-90l0 -30c0,-55 -29,-95 -93,-95zm-35 45l35 0c35,0 47,19 47,50l0 30c0,30 -12,45 -47,45l-35 0 0 -125zm211 153l0 -316c0,-12 -7,-23 -23,-23 -16,0 -24,11 -24,23l0 316c0,12 7,23 23,23 16,0 24,-11 24,-23zm165 -195l-45 0 0 -94 102 0c12,0 22,-7 22,-23 0,-15 -11,-23 -22,-23l-126 0c-16,0 -23,10 -23,22l0 307c0,12 8,23 24,23l69 0c64,0 93,-34 93,-90l0 -29c0,-55 -29,-94 -93,-94zm47 123c0,30 -12,45 -47,45l-45 0 0 -126 45 0c35,0 47,19 47,50l0 31zm145 -169c0,-31 11,-53 46,-53l15 0c35,0 46,22 46,53l0 166c0,31 -11,53 -46,53l-15 0c-35,0 -46,-22 -46,-53l0 -166zm154 0c0,-55 -29,-98 -93,-98l-15 0c-64,0 -93,43 -93,98l0 166c0,55 29,98 93,98l15 0c64,0 93,-43 93,-98l0 -166zm115 77l0 -125 51 0c35,0 47,15 47,45l0 30c0,31 -12,50 -47,50l-51 0zm51 45c64,0 93,-40 93,-95l0 -30c0,-56 -29,-90 -93,-90l-75 0c-16,0 -23,11 -23,23l0 311c0,12 7,23 24,23 17,0 24,-11 24,-23l0 -119 51 0zm233 -79l-35 0 0 -118c0,-12 -7,-23 -24,-23 -17,0 -24,11 -24,23l0 311c0,12 7,23 23,23l59 0c64,0 93,-34 93,-90l0 -30c0,-55 -29,-95 -93,-95zm-35 45l35 0c35,0 47,19 47,50l0 30c0,30 -12,45 -47,45l-35 0 0 -125zm211 153l0 -316c0,-12 -7,-23 -23,-23 -16,0 -24,11 -24,23l0 316c0,12 7,23 23,23 16,0 24,-11 24,-23z"/>
   <g>
    <path class="fil11" d="M9134 3540l0 200 -5 0 -5 0 -5 -1 -5 -1 -5 -1 -5 -1 -4 -2 -4 -2 -4 -2 -4 -2 -4 -2 -4 -3 -4 -3 -4 -3 -3 -3 -3 -3 -3 -3 -3 -4 -3 -4 -3 -4 -2 -4 -2 -4 -2 -4 -2 -4 -2 -5 -2 -5 -1 -5 -1 -5 -1 -5 -1 -5 0 -5 0 -5 0 -5 0 -5 1 -5 1 -5 1 -5 1 -5 2 -5 2 -5 2 -4 2 -4 2 -4 2 -4 3 -4 3 -4 3 -4 3 -3 3 -3 3 -3 4 -3 4 -3 4 -3 4 -2 4 -2 4 -2 4 -2 4 -2 5 -1 5 -1 5 -1 5 -1 5 0 5 0zm2028 200l-2028 0 0 -200 2028 0 0 200zm0 0l0 -200 5 0 5 0 5 1 5 1 5 1 5 1 4 2 4 2 4 2 4 2 4 2 4 3 4 3 4 3 3 3 3 3 3 3 3 4 3 4 3 4 2 4 2 4 2 4 2 4 2 5 2 5 1 5 1 5 1 5 1 5 0 5 0 5 0 5 0 5 -1 5 -1 5 -1 5 -1 5 -2 5 -2 5 -2 4 -2 4 -2 4 -2 4 -3 4 -3 4 -3 4 -3 3 -3 3 -3 3 -4 3 -4 3 -4 3 -4 2 -4 2 -4 2 -4 2 -4 2 -5 1 -5 1 -5 1 -5 1 -5 0 -5 0z"/>
   </g>
   <path class="fil12" d="M8659 3496l-21 49c20,11 40,23 60,36 25,17 31,50 15,75 -17,25 -51,33 -76,16 -14,-9 -27,-19 -41,-28l-12 27 -274 54 -772 -335 63 -146 76 -175 63 -146 772 335 148 237z"/>
   <path class="fil8 str3" d="M8273 3489c37,-30 43,-84 13,-122 -30,-37 -84,-43 -122,-13"/>
   <path class="fil13" d="M8709 3591c104,76 184,175 236,288l-121 0c-45,-80 -108,-151 -185,-206l-2 -2c25,17 60,8 76,-16 13,-20 12,-46 -3,-64zm-339 1339c-92,13 -188,8 -282,-15l-2 0 -2 0c-173,-50 -318,-160 -414,-304 -94,-142 -141,-316 -119,-499l0 0c25,-213 140,-407 319,-527 58,-39 128,-84 216,-140 36,-23 76,-48 108,-69 25,-16 58,-9 75,16 16,25 9,58 -16,75 -46,29 -78,50 -109,69 -95,61 -168,107 -226,147 -15,11 -29,22 -43,34 -117,101 -198,243 -217,408l0 0 0 0c-18,156 21,305 102,427 82,123 206,217 354,260 85,21 172,25 255,11l0 109zm28 -1721c101,-99 200,-221 294,-358 97,-141 188,-300 270,-468 13,-27 45,-38 72,-25 27,13 38,45 25,72 -83,171 -177,334 -278,481 -88,129 -182,246 -277,343l-106 -46z"/>
   <path class="fil14 str4" d="M8951 4000c113,354 -75,736 -427,861"/>
   <path class="fil14 str5" d="M8767 3839c8,47 53,78 100,70 47,-8 78,-53 70,-100"/>
   <path class="fil14 str5" d="M8293 4969c48,3 89,-32 92,-80 3,-48 -32,-89 -80,-92"/>
   <path class="fil12" d="M13665 3442l-8 53c22,5 45,12 67,19 28,10 43,40 34,68 -10,28 -41,45 -69,35 -16,-5 -31,-12 -47,-16l-4 29 -251 123 -833 -124 23 -157 28 -188 23 -157 833 124 204 191z"/>
   <path class="fil8 str3" d="M13290 3536c28,-39 20,-93 -19,-121 -39,-28 -93,-20 -121,19"/>
   <path class="fil13" d="M13738 3521c120,46 223,122 302,217l-117 31c-64,-66 -143,-118 -232,-151l-3 -1c28,10 60,-7 69,-35 8,-23 -1,-48 -20,-61zm19 1381c-86,36 -179,57 -276,58l-2 0 -2 0c-180,-3 -349,-72 -479,-187 -128,-113 -218,-269 -244,-451l0 0c-31,-213 30,-429 171,-592 46,-52 102,-114 173,-191 29,-32 61,-66 87,-95 20,-22 54,-24 76,-4 22,20 24,54 4,76 -36,40 -62,68 -87,95 -76,83 -135,147 -180,200 -12,14 -23,29 -33,44 -87,127 -128,286 -104,451l0 0 0 0c23,155 100,289 209,386 111,98 255,156 409,159 88,-1 173,-21 250,-55l28 105zm-418 -1669c72,-122 136,-265 191,-422 57,-162 104,-338 139,-521 6,-29 34,-48 63,-43 29,6 48,34 43,63 -36,186 -85,368 -144,537 -52,148 -112,284 -178,403l-114 -17z"/>
   <path class="fil14 str4" d="M14078 3854c201,312 118,730 -190,942"/>
   <path class="fil14 str5" d="M13859 3746c20,43 72,62 115,42 43,-20 62,-72 42,-115"/>
   <path class="fil14 str5" d="M13693 4961c47,-9 78,-54 68,-101 -9,-47 -54,-78 -101,-68"/>
   <path class="fil15" d="M11788 3951c-2,-76 41,-140 96,-143 55,-3 101,57 103,133 16,645 291,1034 583,1446l0 0 0 0c2,3 4,6 6,9 152,217 244,423 227,594 -20,191 -150,311 -438,318l0 -276c165,-3 236,-33 241,-81 8,-74 -61,-205 -172,-362 -1,-2 -3,-4 -4,-6l0 0 0 0 -1 -1 0 0c-319,-452 -621,-878 -640,-1630z"/>
   <path class="fil16" d="M11994 3807c59,0 106,92 106,206 0,114 -48,206 -106,206 -59,0 -106,-92 -106,-206 0,-114 48,-206 106,-206z"/>
   <path class="fil15" d="M6582 3951c-2,-76 41,-140 96,-143 55,-3 101,57 103,133 16,645 291,1034 583,1446l0 0 0 0c2,3 4,6 6,9 152,217 244,423 227,594 -20,191 -150,311 -438,318l0 -276c165,-3 236,-33 241,-81 8,-74 -61,-205 -172,-362 -1,-2 -3,-4 -4,-6l0 0 0 0 -1 -1 0 0c-319,-452 -621,-878 -640,-1630z"/>
   <path class="fil16" d="M6788 3807c59,0 106,92 106,206 0,114 -48,206 -106,206 -59,0 -106,-92 -106,-206 0,-114 48,-206 106,-206z"/>
   <path class="fil9 str7" d="M9969 5929c0,-60 22,-107 65,-126l240 -108c117,-52 143,-143 143,-232l0 -5c0,-150 -85,-233 -254,-233l-79 0c-134,0 -218,57 -218,195 0,34 17,61 61,61 44,0 61,-27 61,-61 0,-55 38,-78 95,-78l79 0c92,0 132,35 132,116l0 5c0,61 -20,99 -72,122l-223 99c-104,44 -154,143 -154,257l0 208 524 0c33,0 59,-17 59,-59 0,-42 -26,-59 -59,-59l-401 0 0 -103z"/>
   <path class="fil9" d="M9378 5911c0,23 3,46 5,61l-1 0 -190 -390c-10,-20 -23,-29 -39,-29 -29,0 -40,18 -40,39l0 527c0,20 11,39 39,39 27,0 38,-18 38,-39l0 -319c0,-23 -3,-46 -5,-61l1 0 190 390c10,20 23,29 39,29 29,0 40,-18 40,-39l0 -527c0,-20 -11,-39 -39,-39 -27,0 -38,18 -38,39l0 319zm212 -180c-25,0 -32,-14 -32,-38l0 -42c0,-23 7,-38 32,-38l13 0c25,0 32,14 32,38l0 42c0,23 -7,38 -32,38l-13 0zm13 56c58,0 86,-39 86,-90l0 -50c0,-51 -28,-89 -86,-89l-14 0c-58,0 -86,38 -86,89l0 50c0,51 28,90 86,90l14 0zm58 99c18,0 30,-8 30,-30 0,-22 -13,-30 -30,-30l-129 0c-18,0 -31,8 -31,30 0,22 13,30 31,30l129 0z"/>
   <path class="fil9 str7" d="M15682 5873c0,-108 -44,-191 -141,-221 61,-35 96,-92 96,-177l0 -17c0,-150 -85,-233 -254,-233l-69 0c-134,0 -218,57 -218,195 0,34 17,61 61,61 44,0 61,-27 61,-61 0,-55 38,-78 95,-78l69 0c92,0 132,35 132,116l0 17c0,82 -48,141 -142,141l-74 0c-33,0 -59,16 -59,57 0,42 26,57 59,57l133 0c92,0 128,60 128,143l0 43c0,82 -39,129 -132,129l-139 0c-57,0 -95,-23 -95,-78 0,-34 -17,-61 -61,-61 -44,0 -61,27 -61,61 0,138 83,195 218,195l139 0c169,0 254,-96 254,-246l0 -43z"/>
   <path class="fil9" d="M14635 5911c0,23 3,46 5,61l-1 0 -190 -390c-10,-20 -23,-29 -39,-29 -29,0 -40,18 -40,39l0 527c0,20 11,39 39,39 27,0 38,-18 38,-39l0 -319c0,-23 -3,-46 -5,-61l1 0 190 390c10,20 23,29 39,29 29,0 40,-18 40,-39l0 -527c0,-20 -11,-39 -39,-39 -27,0 -38,18 -38,39l0 319zm212 -180c-25,0 -32,-14 -32,-38l0 -42c0,-23 7,-38 32,-38l13 0c25,0 32,14 32,38l0 42c0,23 -7,38 -32,38l-13 0zm13 56c58,0 86,-39 86,-90l0 -50c0,-51 -28,-89 -86,-89l-14 0c-58,0 -86,38 -86,89l0 50c0,51 28,90 86,90l14 0zm58 99c18,0 30,-8 30,-30 0,-22 -13,-30 -30,-30l-129 0c-18,0 -31,8 -31,30 0,22 13,30 31,30l129 0z"/>
   <path class="fil15" d="M16996 3951c-2,-76 41,-140 96,-143 55,-3 101,57 103,133 16,645 291,1034 583,1446l0 0 0 0c2,3 4,6 6,9 152,217 244,423 227,594 -20,191 -150,311 -438,318l0 -276c165,-3 236,-33 241,-81 8,-74 -61,-205 -172,-362 -1,-2 -3,-4 -4,-6l0 0 0 0 -1 -1 0 0c-319,-452 -621,-878 -640,-1630z"/>
   <path class="fil16" d="M17202 3807c59,0 106,92 106,206 0,114 -48,206 -106,206 -59,0 -106,-92 -106,-206 0,-114 48,-206 106,-206z"/>
   <path class="fil17 str8" d="M7064 10077l0 5729c-1555,0 -2597,0 -4152,0l0 -5729 4152 0z"/>
   <path class="fil18" d="M2911 10077l4152 0 0 2370 -4152 -1973c7,-204 0,-261 0,-397z"/>
   <path class="fil19 str9" d="M4050 12323c0,28 16,59 46,71 -3,5 -5,9 -9,19 0,0 -30,68 -34,76 -3,8 -1,18 10,23 12,5 20,-1 23,-10 4,-9 45,-103 45,-103l49 0 0 97c0,9 5,18 18,18 13,0 18,-8 18,-18l0 -237c0,-9 -5,-18 -18,-18l-74 0c-49,0 -74,31 -74,71l0 11zm73 42c-26,0 -37,-18 -37,-42l0 -11c0,-21 11,-36 38,-36l56 0 0 89 -57 0zm351 145c7,0 15,0 20,-1l-22 38c-2,3 -3,7 -3,10 0,7 7,18 19,18 7,0 12,-4 15,-10l36 -63c1,-2 2,-5 2,-8 0,-12 -8,-17 -17,-17l-16 0 0 -220c0,-9 -5,-18 -18,-18 -13,0 -18,8 -18,18l0 220 -64 0 0 -220c0,-10 -6,-18 -18,-18 -11,0 -17,9 -17,18l0 220 -64 0 0 -220c0,-9 -5,-18 -18,-18 -12,0 -18,8 -18,18l0 237c0,9 5,18 18,18l182 0zm243 -14c0,9 5,18 17,18 13,0 18,-8 18,-18l0 -241c0,-9 -5,-18 -18,-18 -7,0 -12,3 -18,13l-103 183 0 0c1,-7 2,-16 2,-26l0 -152c0,-9 -5,-18 -17,-18 -13,0 -18,8 -18,18l0 241c0,9 5,18 18,18 7,0 12,-3 18,-13l102 -183 0 0c-1,7 -2,16 -2,26l0 152zm265 -11l-83 -117 78 -102c7,-9 7,-18 -1,-25 -9,-8 -20,-4 -27,4l-81 109 -23 0 0 -99c0,-9 -5,-18 -18,-18 -13,0 -18,8 -18,18l0 241c0,9 5,18 18,18 12,0 18,-8 18,-18l0 -107 23 0 83 117c5,8 15,12 25,5 11,-8 10,-18 5,-26zm370 -84c0,10 2,21 2,28l0 0 -87 -179c-5,-9 -11,-13 -18,-13 -13,0 -18,8 -18,18l0 241c0,9 5,18 18,18 12,0 17,-8 17,-18l0 -146c0,-10 -2,-21 -2,-28l0 0 87 179c5,9 11,13 18,13 13,0 18,-8 18,-18l0 -241c0,-9 -5,-18 -18,-18 -12,0 -17,8 -17,18l0 146zm97 -83c-12,0 -15,-7 -15,-17l0 -19c0,-11 3,-17 15,-17l6 0c12,0 15,7 15,17l0 19c0,11 -3,17 -15,17l-6 0zm6 26c26,0 39,-18 39,-41l0 -23c0,-23 -13,-41 -39,-41l-7 0c-26,0 -39,17 -39,41l0 23c0,23 13,41 39,41l7 0zm26 45c8,0 14,-4 14,-14 0,-10 -6,-14 -14,-14l-59 0c-8,0 -14,4 -14,14 0,10 6,14 14,14l59 0zm139 -152l-139 152"/>
   <path class="fil20 str10" d="M4580 11376l36 116c5,16 20,25 37,19 17,-6 24,-22 18,-38l-129 -415c-4,-15 -12,-23 -30,-23l-3 0c-18,0 -26,8 -30,23l-129 415c-5,16 2,32 19,38 17,6 32,-3 37,-19l36 -116 138 0zm-79 -200c4,-15 6,-22 10,-38l1 0c3,16 5,23 10,38l43 145 -107 0 43 -145zm513 289l-137 -202 130 -176c11,-15 11,-32 -1,-44 -15,-15 -34,-7 -45,7l-134 189 -38 0 0 -172c0,-16 -9,-31 -29,-31 -22,0 -31,15 -31,31l0 417c0,16 9,31 31,31 20,0 29,-15 29,-31l0 -185 39 0 137 202c8,13 24,21 41,9 18,-13 17,-31 8,-44zm186 49c21,0 30,-15 30,-31l0 -381 93 0c15,0 28,-9 28,-30 0,-20 -13,-30 -28,-30l-246 0c-15,0 -28,10 -28,30 0,21 13,30 28,30l93 0 0 381c0,16 9,31 30,31z"/>
   <g>
    <path class="fil19" d="M3359 11958l0 98 -3 0 -3 0 -3 0 -3 0 -3 -1 -3 -1 -2 -1 -2 -1 -2 -1 -2 -1 -2 -1 -2 -1 -2 -1 -2 -1 -2 -2 -2 -2 -2 -2 -2 -2 -2 -2 -1 -2 -1 -2 -1 -2 -1 -2 -1 -2 -1 -2 -1 -2 -1 -2 -1 -2 0 -2 0 -2 0 -2 0 -3 0 -3 0 -2 0 -2 0 -2 1 -2 1 -2 1 -2 1 -2 1 -2 1 -2 1 -2 1 -2 1 -2 2 -2 2 -2 2 -2 2 -2 2 -2 2 -1 2 -1 2 -1 2 -1 2 -1 2 -1 2 -1 2 -1 3 -1 3 -1 3 0 3 0 3 0 3 0zm3256 98l-3256 0 0 -98 3256 0 0 98zm0 0l0 -98 3 0 3 0 3 0 3 0 3 1 3 1 2 1 2 1 2 1 2 1 2 1 2 1 2 1 2 1 2 2 2 2 2 2 2 2 2 2 1 2 1 2 1 2 1 2 1 2 1 2 1 2 1 2 1 2 0 2 0 2 0 2 0 3 0 3 0 2 0 2 0 2 -1 2 -1 2 -1 2 -1 2 -1 2 -1 2 -1 2 -1 2 -1 2 -2 2 -2 2 -2 2 -2 2 -2 2 -2 1 -2 1 -2 1 -2 1 -2 1 -2 1 -2 1 -2 1 -3 1 -3 1 -3 0 -3 0 -3 0 -3 0z"/>
   </g>
   <g>
    <path class="fil19" d="M3397 14732l0 99 -2 0 -2 0 -2 0 -2 0 -2 -1 -2 -1 -2 -1 -2 -1 -2 -1 -2 -1 -2 -1 -2 -1 -2 -1 -2 -1 -2 -2 -2 -2 -2 -2 -1 -2 -1 -2 -1 -2 -1 -2 -1 -2 -1 -2 -1 -2 -1 -2 -1 -2 -1 -2 -1 -2 0 -2 0 -2 0 -3 0 -3 0 -3 0 -3 0 -2 0 -2 1 -2 1 -2 1 -2 1 -2 1 -2 1 -2 1 -2 1 -2 1 -2 1 -2 1 -2 2 -2 2 -2 2 -2 2 -1 2 -1 2 -1 2 -1 2 -1 2 -1 2 -1 2 -1 2 -1 2 -1 2 0 2 0 2 0 2 0zm1707 99l-1707 0 0 -99 1707 0 0 99zm0 0l0 -99 2 0 2 0 2 0 2 0 2 1 2 1 2 1 2 1 2 1 2 1 2 1 2 1 2 1 2 1 2 2 2 2 2 2 1 2 1 2 1 2 1 2 1 2 1 2 1 2 1 2 1 2 1 2 1 2 0 2 0 2 0 3 0 3 0 3 0 3 0 2 0 2 -1 2 -1 2 -1 2 -1 2 -1 2 -1 2 -1 2 -1 2 -1 2 -1 2 -1 2 -2 2 -2 2 -2 2 -2 1 -2 1 -2 1 -2 1 -2 1 -2 1 -2 1 -2 1 -2 1 -2 1 -2 0 -2 0 -2 0 -2 0zm-1707 -949l0 99 -2 0 -2 0 -2 0 -2 0 -2 -1 -2 -1 -2 -1 -2 -1 -2 -1 -2 -1 -2 -1 -2 -1 -2 -1 -2 -1 -2 -2 -2 -2 -2 -2 -1 -2 -1 -2 -1 -2 -1 -2 -1 -2 -1 -2 -1 -2 -1 -2 -1 -2 -1 -2 -1 -2 0 -2 0 -2 0 -3 0 -3 0 -3 0 -3 0 -2 0 -2 1 -2 1 -2 1 -2 1 -2 1 -2 1 -2 1 -2 1 -2 1 -2 1 -2 1 -2 2 -2 2 -2 2 -2 2 -1 2 -1 2 -1 2 -1 2 -1 2 -1 2 -1 2 -1 2 -1 2 -1 2 0 2 0 2 0 2 0zm2402 99l-2402 0 0 -99 2402 0 0 99zm0 0l0 -99 2 0 2 0 2 0 2 0 2 1 2 1 2 1 2 1 2 1 2 1 2 1 2 1 2 1 2 1 2 2 2 2 2 2 1 2 1 2 1 2 1 2 1 2 1 2 1 2 1 2 1 2 1 2 1 2 0 2 0 2 0 3 0 3 0 3 0 3 0 2 0 2 -1 2 -1 2 -1 2 -1 2 -1 2 -1 2 -1 2 -1 2 -1 2 -1 2 -1 2 -2 2 -2 2 -2 2 -2 1 -2 1 -2 1 -2 1 -2 1 -2 1 -2 1 -2 1 -2 1 -2 1 -2 0 -2 0 -2 0 -2 0zm-2402 185l0 99 -2 0 -2 0 -2 0 -2 0 -2 -1 -2 -1 -2 -1 -2 -1 -2 -1 -2 -1 -2 -1 -2 -1 -2 -1 -2 -1 -2 -2 -2 -2 -2 -2 -1 -2 -1 -2 -1 -2 -1 -2 -1 -2 -1 -2 -1 -2 -1 -2 -1 -2 -1 -2 -1 -2 0 -2 0 -2 0 -3 0 -3 0 -3 0 -3 0 -2 0 -2 1 -2 1 -2 1 -2 1 -2 1 -2 1 -2 1 -2 1 -2 1 -2 1 -2 1 -2 2 -2 2 -2 2 -2 2 -1 2 -1 2 -1 2 -1 2 -1 2 -1 2 -1 2 -1 2 -1 2 -1 2 0 2 0 2 0 2 0zm3234 99l-3234 0 0 -99 3234 0 0 99zm0 0l0 -99 2 0 2 0 2 0 2 0 2 1 2 1 2 1 2 1 2 1 2 1 2 1 2 1 2 1 2 1 2 2 2 2 2 2 1 2 1 2 1 2 1 2 1 2 1 2 1 2 1 2 1 2 1 2 1 2 0 2 0 2 0 3 0 3 0 3 0 3 0 2 0 2 -1 2 -1 2 -1 2 -1 2 -1 2 -1 2 -1 2 -1 2 -1 2 -1 2 -1 2 -2 2 -2 2 -2 2 -2 1 -2 1 -2 1 -2 1 -2 1 -2 1 -2 1 -2 1 -2 1 -2 1 -2 0 -2 0 -2 0 -2 0zm-3234 185l0 99 -2 0 -2 0 -2 0 -2 0 -2 -1 -2 -1 -2 -1 -2 -1 -2 -1 -2 -1 -2 -1 -2 -1 -2 -1 -2 -1 -2 -2 -2 -2 -2 -2 -1 -2 -1 -2 -1 -2 -1 -2 -1 -2 -1 -2 -1 -2 -1 -2 -1 -2 -1 -2 -1 -2 0 -2 0 -2 0 -3 0 -3 0 -3 0 -3 0 -2 0 -2 1 -2 1 -2 1 -2 1 -2 1 -2 1 -2 1 -2 1 -2 1 -2 1 -2 1 -2 2 -2 2 -2 2 -2 2 -1 2 -1 2 -1 2 -1 2 -1 2 -1 2 -1 2 -1 2 -1 2 -1 2 0 2 0 2 0 2 0zm3234 99l-3234 0 0 -99 3234 0 0 99zm0 0l0 -99 2 0 2 0 2 0 2 0 2 1 2 1 2 1 2 1 2 1 2 1 2 1 2 1 2 1 2 1 2 2 2 2 2 2 1 2 1 2 1 2 1 2 1 2 1 2 1 2 1 2 1 2 1 2 1 2 0 2 0 2 0 3 0 3 0 3 0 3 0 2 0 2 -1 2 -1 2 -1 2 -1 2 -1 2 -1 2 -1 2 -1 2 -1 2 -1 2 -1 2 -2 2 -2 2 -2 2 -2 1 -2 1 -2 1 -2 1 -2 1 -2 1 -2 1 -2 1 -2 1 -2 1 -2 0 -2 0 -2 0 -2 0z"/>
   </g>
   <path class="fil21 str11" d="M3380 12888c-10,0 -17,5 -22,10 -30,35 -64,70 -99,104 -11,11 -15,25 -1,40 13,14 26,9 37,-1 22,-19 45,-44 64,-68l0 315 -77 0c-15,0 -28,8 -28,29 0,21 12,29 28,29l199 0c15,0 28,-8 28,-29 0,-21 -12,-29 -28,-29l-64 0 0 -371c0,-17 -5,-30 -26,-30l-10 0zm250 162c0,-65 23,-104 71,-104l21 0c48,0 71,39 71,104l0 141c0,65 -22,104 -71,104l-21 0c-48,0 -71,-39 -71,-104l0 -141zm221 0c0,-99 -44,-162 -128,-162l-21 0c-85,0 -129,63 -129,162l0 141c0,99 44,162 129,162l21 0c85,0 128,-63 128,-162l0 -141z"/>
   <path class="fil21 str12" d="M4228 13326c0,11 6,22 20,22 15,0 21,-10 21,-22l0 -299c0,-11 -6,-22 -21,-22 -9,0 -14,3 -21,16l-120 226 0 0c1,-9 2,-20 2,-33l0 -188c0,-11 -6,-22 -20,-22 -15,0 -21,10 -21,22l0 299c0,11 6,22 21,22 9,0 14,-3 21,-16l120 -226 0 0c-1,9 -2,20 -2,33l0 188zm760 0c0,11 6,22 20,22 15,0 21,-10 21,-22l0 -299c0,-11 -6,-22 -21,-22 -9,0 -14,3 -21,16l-120 226 0 0c1,-9 2,-20 2,-33l0 -188c0,-11 -6,-22 -20,-22 -15,0 -21,10 -21,22l0 299c0,11 6,22 21,22 9,0 14,-3 21,-16l120 -226 0 0c-1,9 -2,20 -2,33l0 188zm-520 -233c0,29 -19,55 -49,55l-16 0c-10,0 -20,7 -20,21 0,15 9,21 20,21l33 0c31,0 43,26 43,55l0 11c0,29 -10,49 -43,49l-34 0c-17,0 -34,-8 -36,-28 -1,-11 -6,-22 -21,-22 -15,0 -22,10 -22,22 0,45 32,71 77,71l37 0c54,0 82,-39 82,-92l0 -11c0,-39 -17,-74 -52,-83 30,-14 41,-40 41,-69 0,-52 -24,-87 -84,-87l-20 0c-46,0 -77,24 -77,71 0,11 6,22 22,22 14,0 20,-10 21,-22 1,-19 19,-28 38,-28l16 0c30,0 42,13 42,45zm215 49l-65 0 0 -89 114 0c10,0 20,-6 20,-21 0,-14 -9,-21 -20,-21l-135 0c-15,0 -21,10 -21,22l0 289c0,11 6,22 21,22l86 0c58,0 86,-40 86,-92l0 -21c0,-53 -28,-87 -86,-87zm44 114c0,29 -12,45 -43,45l-66 0 0 -118 65 0c31,0 44,17 44,45l0 29zm413 -85l0 -118 70 0c31,0 44,17 44,45l0 24c0,29 -13,49 -44,49l-70 0zm70 43c58,0 86,-40 86,-92l0 -24c0,-53 -28,-88 -86,-88l-91 0c-14,0 -21,10 -21,22l0 294c0,11 6,22 21,22 15,0 21,-10 21,-22l0 -112 70 0zm263 36l25 83c3,11 14,18 26,14 12,-4 16,-16 13,-27l-90 -298c-3,-10 -9,-16 -21,-16l-2 0c-13,0 -18,6 -21,16l-90 298c-3,11 1,23 13,27 12,4 23,-2 26,-14l25 -83 97 0zm-56 -144c3,-10 4,-16 7,-27l0 0c2,11 4,17 7,27l30 104 -75 0 30 -104zm218 242c15,0 21,-10 21,-22l0 -273 65 0c10,0 20,-6 20,-21 0,-14 -9,-21 -20,-21l-173 0c-10,0 -20,7 -20,21 0,15 9,21 20,21l65 0 0 273c0,11 6,22 21,22zm320 -5c10,0 20,-6 20,-21 0,-14 -9,-21 -20,-21l-123 0 0 -107 101 0c10,0 20,-6 20,-21 0,-14 -9,-21 -20,-21l-101 0 0 -97 123 0c10,0 20,-6 20,-21 0,-14 -9,-21 -20,-21l-144 0c-14,0 -21,10 -21,22l0 289c0,11 6,22 21,22l144 0zm133 -60c3,-27 26,-230 26,-230l78 0 0 273c0,11 6,22 21,22 14,0 21,-10 21,-22l0 -294c0,-11 -6,-22 -21,-22l-117 0c-13,0 -20,9 -22,22 -1,14 -26,222 -28,240 -1,11 -3,18 -5,23 -4,9 -12,11 -25,11 -11,0 -21,7 -21,22 0,16 10,21 21,21 39,0 55,-13 64,-37 3,-9 5,-18 6,-30zm380 60c10,0 20,-6 20,-21 0,-14 -9,-21 -20,-21l-123 0 0 -107 101 0c10,0 20,-6 20,-21 0,-14 -9,-21 -20,-21l-101 0 0 -97 123 0c10,0 20,-6 20,-21 0,-14 -9,-21 -20,-21l-144 0c-14,0 -21,10 -21,22l0 289c0,11 6,22 21,22l144 0zm172 -363c41,0 62,-31 62,-64 0,-10 -7,-17 -17,-17 -9,0 -16,7 -17,17 -1,18 -12,30 -29,30 -17,0 -28,-13 -29,-30 -1,-10 -7,-17 -17,-17 -9,0 -17,7 -17,17 0,33 21,64 62,64zm59 346c0,11 6,22 20,22 15,0 21,-10 21,-22l0 -299c0,-11 -6,-22 -21,-22 -9,0 -14,3 -21,16l-120 226 0 0c1,-9 2,-20 2,-33l0 -188c0,-11 -6,-22 -20,-22 -15,0 -21,10 -21,22l0 299c0,11 6,22 21,22 9,0 14,-3 21,-16l120 -226 0 0c-1,9 -2,20 -2,33l0 188z"/>
   <path class="fil14 str13" d="M7064 10077l0 5729c-1555,0 -2597,0 -4152,0l0 -5729 4152 0z"/>
   <path class="fil14 str14" d="M5812 14785c-351,1223 -111,530 -275,421 -163,-109 594,-525 544,-191 -50,334 -594,254 -579,324 15,70 228,119 292,-59 64,-178 -29,139 139,84 168,-55 237,-213 210,-124 -27,89 20,74 109,20 89,-54 191,-111 191,-111"/>
   <g>
    <path class="fil19" d="M3359 12405l0 98 -3 0 -3 0 -3 0 -3 0 -3 -1 -3 -1 -2 -1 -2 -1 -2 -1 -2 -1 -2 -1 -2 -1 -2 -1 -2 -1 -2 -2 -2 -2 -2 -2 -2 -2 -2 -2 -1 -2 -1 -2 -1 -2 -1 -2 -1 -2 -1 -2 -1 -2 -1 -2 -1 -2 0 -2 0 -2 0 -2 0 -3 0 -3 0 -2 0 -2 0 -2 1 -2 1 -2 1 -2 1 -2 1 -2 1 -2 1 -2 1 -2 1 -2 2 -2 2 -2 2 -2 2 -2 2 -2 2 -1 2 -1 2 -1 2 -1 2 -1 2 -1 2 -1 2 -1 3 -1 3 -1 3 0 3 0 3 0 3 0zm445 98l-445 0 0 -98 445 0 0 98zm0 0l0 -98 3 0 3 0 3 0 3 0 3 1 3 1 2 1 2 1 2 1 2 1 2 1 2 1 2 1 2 1 2 2 2 2 2 2 2 2 2 2 1 2 1 2 1 2 1 2 1 2 1 2 1 2 1 2 1 2 0 2 0 2 0 2 0 3 0 3 0 2 0 2 0 2 -1 2 -1 2 -1 2 -1 2 -1 2 -1 2 -1 2 -1 2 -1 2 -2 2 -2 2 -2 2 -2 2 -2 2 -2 1 -2 1 -2 1 -2 1 -2 1 -2 1 -2 1 -2 1 -3 1 -3 1 -3 0 -3 0 -3 0 -3 0z"/>
   </g>
   <path class="fil17 str8" d="M12286 10077l0 5729c-1555,0 -2597,0 -4152,0l0 -5729 4152 0z"/>
   <path class="fil18" d="M8134 10077l4152 0 0 2370 -4152 -1973c7,-204 0,-261 0,-397z"/>
   <path class="fil19 str9" d="M9273 12323c0,28 16,59 46,71 -3,5 -5,9 -9,19 0,0 -30,68 -34,76 -3,8 -1,18 10,23 12,5 20,-1 23,-10 4,-9 45,-103 45,-103l49 0 0 97c0,9 5,18 18,18 13,0 18,-8 18,-18l0 -237c0,-9 -5,-18 -18,-18l-74 0c-49,0 -74,31 -74,71l0 11zm73 42c-26,0 -37,-18 -37,-42l0 -11c0,-21 11,-36 38,-36l56 0 0 89 -57 0zm351 145c7,0 15,0 20,-1l-22 38c-2,3 -3,7 -3,10 0,7 7,18 19,18 7,0 12,-4 15,-10l36 -63c1,-2 2,-5 2,-8 0,-12 -8,-17 -17,-17l-16 0 0 -220c0,-9 -5,-18 -18,-18 -13,0 -18,8 -18,18l0 220 -64 0 0 -220c0,-10 -6,-18 -18,-18 -11,0 -17,9 -17,18l0 220 -64 0 0 -220c0,-9 -5,-18 -18,-18 -12,0 -18,8 -18,18l0 237c0,9 5,18 18,18l182 0zm243 -14c0,9 5,18 17,18 13,0 18,-8 18,-18l0 -241c0,-9 -5,-18 -18,-18 -7,0 -12,3 -18,13l-103 183 0 0c1,-7 2,-16 2,-26l0 -152c0,-9 -5,-18 -17,-18 -13,0 -18,8 -18,18l0 241c0,9 5,18 18,18 7,0 12,-3 18,-13l102 -183 0 0c-1,7 -2,16 -2,26l0 152zm265 -11l-83 -117 78 -102c7,-9 7,-18 -1,-25 -9,-8 -20,-4 -27,4l-81 109 -23 0 0 -99c0,-9 -5,-18 -18,-18 -13,0 -18,8 -18,18l0 241c0,9 5,18 18,18 12,0 18,-8 18,-18l0 -107 23 0 83 117c5,8 15,12 25,5 11,-8 10,-18 5,-26zm370 -84c0,10 2,21 2,28l0 0 -87 -179c-5,-9 -11,-13 -18,-13 -13,0 -18,8 -18,18l0 241c0,9 5,18 18,18 12,0 17,-8 17,-18l0 -146c0,-10 -2,-21 -2,-28l0 0 87 179c5,9 11,13 18,13 13,0 18,-8 18,-18l0 -241c0,-9 -5,-18 -18,-18 -12,0 -17,8 -17,18l0 146zm97 -83c-12,0 -15,-7 -15,-17l0 -19c0,-11 3,-17 15,-17l6 0c12,0 15,7 15,17l0 19c0,11 -3,17 -15,17l-6 0zm6 26c26,0 39,-18 39,-41l0 -23c0,-23 -13,-41 -39,-41l-7 0c-26,0 -39,17 -39,41l0 23c0,23 13,41 39,41l7 0zm26 45c8,0 14,-4 14,-14 0,-10 -6,-14 -14,-14l-59 0c-8,0 -14,4 -14,14 0,10 6,14 14,14l59 0zm139 -152l-139 152"/>
   <path class="fil20 str10" d="M9802 11376l36 116c5,16 20,25 37,19 17,-6 24,-22 19,-38l-129 -415c-4,-15 -12,-23 -30,-23l-3 0c-18,0 -26,8 -30,23l-129 415c-5,16 2,32 19,38 17,6 32,-3 37,-19l36 -116 138 0zm-79 -200c4,-15 6,-22 10,-38l1 0c3,16 5,23 10,38l43 145 -107 0 43 -145zm513 289l-137 -202 130 -176c11,-15 11,-32 -1,-44 -15,-15 -34,-7 -45,7l-134 189 -38 0 0 -172c0,-16 -9,-31 -29,-31 -22,0 -31,15 -31,31l0 417c0,16 9,31 31,31 20,0 29,-15 29,-31l0 -185 39 0 137 202c8,13 24,21 41,9 18,-13 17,-31 8,-44zm186 49c21,0 30,-15 30,-31l0 -381 93 0c15,0 28,-9 28,-30 0,-20 -13,-30 -28,-30l-246 0c-15,0 -28,10 -28,30 0,21 13,30 28,30l93 0 0 381c0,16 9,31 30,31z"/>
   <g>
    <path class="fil19" d="M8582 11958l0 98 -3 0 -3 0 -3 0 -3 0 -3 -1 -3 -1 -2 -1 -2 -1 -2 -1 -2 -1 -2 -1 -2 -1 -2 -1 -2 -1 -2 -2 -2 -2 -2 -2 -2 -2 -2 -2 -1 -2 -1 -2 -1 -2 -1 -2 -1 -2 -1 -2 -1 -2 -1 -2 -1 -2 0 -2 0 -2 0 -2 0 -3 0 -3 0 -2 0 -2 0 -2 1 -2 1 -2 1 -2 1 -2 1 -2 1 -2 1 -2 1 -2 1 -2 2 -2 2 -2 2 -2 2 -2 2 -2 2 -1 2 -1 2 -1 2 -1 2 -1 2 -1 2 -1 2 -1 3 -1 3 -1 3 0 3 0 3 0 3 0zm3256 98l-3256 0 0 -98 3256 0 0 98zm0 0l0 -98 3 0 3 0 3 0 3 0 3 1 3 1 2 1 2 1 2 1 2 1 2 1 2 1 2 1 2 1 2 2 2 2 2 2 2 2 2 2 1 2 1 2 1 2 1 2 1 2 1 2 1 2 1 2 1 2 0 2 0 2 0 2 0 3 0 3 0 2 0 2 0 2 -1 2 -1 2 -1 2 -1 2 -1 2 -1 2 -1 2 -1 2 -1 2 -2 2 -2 2 -2 2 -2 2 -2 2 -2 1 -2 1 -2 1 -2 1 -2 1 -2 1 -2 1 -2 1 -3 1 -3 1 -3 0 -3 0 -3 0 -3 0z"/>
   </g>
   <g>
    <path class="fil19" d="M8619 14732l0 99 -2 0 -2 0 -2 0 -2 0 -2 -1 -2 -1 -2 -1 -2 -1 -2 -1 -2 -1 -2 -1 -2 -1 -2 -1 -2 -1 -2 -2 -2 -2 -2 -2 -1 -2 -1 -2 -1 -2 -1 -2 -1 -2 -1 -2 -1 -2 -1 -2 -1 -2 -1 -2 -1 -2 0 -2 0 -2 0 -3 0 -3 0 -3 0 -3 0 -2 0 -2 1 -2 1 -2 1 -2 1 -2 1 -2 1 -2 1 -2 1 -2 1 -2 1 -2 1 -2 2 -2 2 -2 2 -2 2 -1 2 -1 2 -1 2 -1 2 -1 2 -1 2 -1 2 -1 2 -1 2 -1 2 0 2 0 2 0 2 0zm1707 99l-1707 0 0 -99 1707 0 0 99zm0 0l0 -99 2 0 2 0 2 0 2 0 2 1 2 1 2 1 2 1 2 1 2 1 2 1 2 1 2 1 2 1 2 2 2 2 2 2 1 2 1 2 1 2 1 2 1 2 1 2 1 2 1 2 1 2 1 2 1 2 0 2 0 2 0 3 0 3 0 3 0 3 0 2 0 2 -1 2 -1 2 -1 2 -1 2 -1 2 -1 2 -1 2 -1 2 -1 2 -1 2 -1 2 -2 2 -2 2 -2 2 -2 1 -2 1 -2 1 -2 1 -2 1 -2 1 -2 1 -2 1 -2 1 -2 1 -2 0 -2 0 -2 0 -2 0zm-1707 -949l0 99 -2 0 -2 0 -2 0 -2 0 -2 -1 -2 -1 -2 -1 -2 -1 -2 -1 -2 -1 -2 -1 -2 -1 -2 -1 -2 -1 -2 -2 -2 -2 -2 -2 -1 -2 -1 -2 -1 -2 -1 -2 -1 -2 -1 -2 -1 -2 -1 -2 -1 -2 -1 -2 -1 -2 0 -2 0 -2 0 -3 0 -3 0 -3 0 -3 0 -2 0 -2 1 -2 1 -2 1 -2 1 -2 1 -2 1 -2 1 -2 1 -2 1 -2 1 -2 1 -2 2 -2 2 -2 2 -2 2 -1 2 -1 2 -1 2 -1 2 -1 2 -1 2 -1 2 -1 2 -1 2 -1 2 0 2 0 2 0 2 0zm2402 99l-2402 0 0 -99 2402 0 0 99zm0 0l0 -99 2 0 2 0 2 0 2 0 2 1 2 1 2 1 2 1 2 1 2 1 2 1 2 1 2 1 2 1 2 2 2 2 2 2 1 2 1 2 1 2 1 2 1 2 1 2 1 2 1 2 1 2 1 2 1 2 0 2 0 2 0 3 0 3 0 3 0 3 0 2 0 2 -1 2 -1 2 -1 2 -1 2 -1 2 -1 2 -1 2 -1 2 -1 2 -1 2 -1 2 -2 2 -2 2 -2 2 -2 1 -2 1 -2 1 -2 1 -2 1 -2 1 -2 1 -2 1 -2 1 -2 1 -2 0 -2 0 -2 0 -2 0zm-2402 185l0 99 -2 0 -2 0 -2 0 -2 0 -2 -1 -2 -1 -2 -1 -2 -1 -2 -1 -2 -1 -2 -1 -2 -1 -2 -1 -2 -1 -2 -2 -2 -2 -2 -2 -1 -2 -1 -2 -1 -2 -1 -2 -1 -2 -1 -2 -1 -2 -1 -2 -1 -2 -1 -2 -1 -2 0 -2 0 -2 0 -3 0 -3 0 -3 0 -3 0 -2 0 -2 1 -2 1 -2 1 -2 1 -2 1 -2 1 -2 1 -2 1 -2 1 -2 1 -2 1 -2 2 -2 2 -2 2 -2 2 -1 2 -1 2 -1 2 -1 2 -1 2 -1 2 -1 2 -1 2 -1 2 -1 2 0 2 0 2 0 2 0zm3234 99l-3234 0 0 -99 3234 0 0 99zm0 0l0 -99 2 0 2 0 2 0 2 0 2 1 2 1 2 1 2 1 2 1 2 1 2 1 2 1 2 1 2 1 2 2 2 2 2 2 1 2 1 2 1 2 1 2 1 2 1 2 1 2 1 2 1 2 1 2 1 2 0 2 0 2 0 3 0 3 0 3 0 3 0 2 0 2 -1 2 -1 2 -1 2 -1 2 -1 2 -1 2 -1 2 -1 2 -1 2 -1 2 -1 2 -2 2 -2 2 -2 2 -2 1 -2 1 -2 1 -2 1 -2 1 -2 1 -2 1 -2 1 -2 1 -2 1 -2 0 -2 0 -2 0 -2 0zm-3234 185l0 99 -2 0 -2 0 -2 0 -2 0 -2 -1 -2 -1 -2 -1 -2 -1 -2 -1 -2 -1 -2 -1 -2 -1 -2 -1 -2 -1 -2 -2 -2 -2 -2 -2 -1 -2 -1 -2 -1 -2 -1 -2 -1 -2 -1 -2 -1 -2 -1 -2 -1 -2 -1 -2 -1 -2 0 -2 0 -2 0 -3 0 -3 0 -3 0 -3 0 -2 0 -2 1 -2 1 -2 1 -2 1 -2 1 -2 1 -2 1 -2 1 -2 1 -2 1 -2 1 -2 2 -2 2 -2 2 -2 2 -1 2 -1 2 -1 2 -1 2 -1 2 -1 2 -1 2 -1 2 -1 2 -1 2 0 2 0 2 0 2 0zm3234 99l-3234 0 0 -99 3234 0 0 99zm0 0l0 -99 2 0 2 0 2 0 2 0 2 1 2 1 2 1 2 1 2 1 2 1 2 1 2 1 2 1 2 1 2 2 2 2 2 2 1 2 1 2 1 2 1 2 1 2 1 2 1 2 1 2 1 2 1 2 1 2 0 2 0 2 0 3 0 3 0 3 0 3 0 2 0 2 -1 2 -1 2 -1 2 -1 2 -1 2 -1 2 -1 2 -1 2 -1 2 -1 2 -1 2 -2 2 -2 2 -2 2 -2 1 -2 1 -2 1 -2 1 -2 1 -2 1 -2 1 -2 1 -2 1 -2 1 -2 0 -2 0 -2 0 -2 0z"/>
   </g>
   <path class="fil21 str11" d="M8831 13323c0,17 8,30 29,30 21,0 29,-14 29,-30l0 -55c0,-91 17,-148 60,-221l64 -108c15,-26 5,-45 -23,-45l-229 0c-15,0 -28,8 -28,29 0,21 12,29 28,29l180 0 -39 63c-55,89 -71,148 -71,252l0 55z"/>
   <path class="fil14 str13" d="M12286 10077l0 5729c-1555,0 -2597,0 -4152,0l0 -5729 4152 0z"/>
   <path class="fil14 str14" d="M11034 14785c-351,1223 -111,530 -275,421 -163,-109 594,-525 544,-191 -50,334 -594,254 -579,324 15,70 228,119 292,-59 64,-178 -29,139 139,84 168,-55 237,-213 210,-124 -27,89 20,74 109,20 89,-54 191,-111 191,-111"/>
   <g>
    <path class="fil19" d="M8582 12405l0 98 -3 0 -3 0 -3 0 -3 0 -3 -1 -3 -1 -2 -1 -2 -1 -2 -1 -2 -1 -2 -1 -2 -1 -2 -1 -2 -1 -2 -2 -2 -2 -2 -2 -2 -2 -2 -2 -1 -2 -1 -2 -1 -2 -1 -2 -1 -2 -1 -2 -1 -2 -1 -2 -1 -2 0 -2 0 -2 0 -2 0 -3 0 -3 0 -2 0 -2 0 -2 1 -2 1 -2 1 -2 1 -2 1 -2 1 -2 1 -2 1 -2 1 -2 2 -2 2 -2 2 -2 2 -2 2 -2 2 -1 2 -1 2 -1 2 -1 2 -1 2 -1 2 -1 2 -1 3 -1 3 -1 3 0 3 0 3 0 3 0zm445 98l-445 0 0 -98 445 0 0 98zm0 0l0 -98 3 0 3 0 3 0 3 0 3 1 3 1 2 1 2 1 2 1 2 1 2 1 2 1 2 1 2 1 2 2 2 2 2 2 2 2 2 2 1 2 1 2 1 2 1 2 1 2 1 2 1 2 1 2 1 2 0 2 0 2 0 2 0 3 0 3 0 2 0 2 0 2 -1 2 -1 2 -1 2 -1 2 -1 2 -1 2 -1 2 -1 2 -1 2 -2 2 -2 2 -2 2 -2 2 -2 2 -2 1 -2 1 -2 1 -2 1 -2 1 -2 1 -2 1 -2 1 -3 1 -3 1 -3 0 -3 0 -3 0 -3 0z"/>
   </g>
   <path class="fil17 str8" d="M17509 10077l0 5729c-1555,0 -2597,0 -4152,0l0 -5729 4152 0z"/>
   <path class="fil18" d="M13357 10077l4152 0 0 2370 -4152 -1973c7,-204 0,-261 0,-397z"/>
   <path class="fil19 str9" d="M14496 12323c0,28 16,59 46,71 -3,5 -5,9 -9,19 0,0 -30,68 -34,76 -3,8 -1,18 10,23 12,5 20,-1 23,-10 4,-9 45,-103 45,-103l49 0 0 97c0,9 5,18 18,18 13,0 18,-8 18,-18l0 -237c0,-9 -5,-18 -18,-18l-74 0c-49,0 -74,31 -74,71l0 11zm73 42c-26,0 -37,-18 -37,-42l0 -11c0,-21 11,-36 38,-36l56 0 0 89 -57 0zm351 145c7,0 15,0 20,-1l-22 38c-2,3 -3,7 -3,10 0,7 7,18 19,18 7,0 12,-4 15,-10l36 -63c1,-2 2,-5 2,-8 0,-12 -8,-17 -17,-17l-16 0 0 -220c0,-9 -5,-18 -18,-18 -13,0 -18,8 -18,18l0 220 -64 0 0 -220c0,-10 -6,-18 -18,-18 -11,0 -17,9 -17,18l0 220 -64 0 0 -220c0,-9 -5,-18 -18,-18 -12,0 -18,8 -18,18l0 237c0,9 5,18 18,18l182 0zm243 -14c0,9 5,18 17,18 13,0 18,-8 18,-18l0 -241c0,-9 -5,-18 -18,-18 -7,0 -12,3 -18,13l-103 183 0 0c1,-7 2,-16 2,-26l0 -152c0,-9 -5,-18 -17,-18 -13,0 -18,8 -18,18l0 241c0,9 5,18 18,18 7,0 12,-3 18,-13l102 -183 0 0c-1,7 -2,16 -2,26l0 152zm265 -11l-83 -117 78 -102c7,-9 7,-18 -1,-25 -9,-8 -20,-4 -27,4l-81 109 -23 0 0 -99c0,-9 -5,-18 -18,-18 -13,0 -18,8 -18,18l0 241c0,9 5,18 18,18 12,0 18,-8 18,-18l0 -107 23 0 83 117c5,8 15,12 25,5 11,-8 10,-18 5,-26zm370 -84c0,10 2,21 2,28l0 0 -87 -179c-5,-9 -11,-13 -18,-13 -13,0 -18,8 -18,18l0 241c0,9 5,18 18,18 12,0 17,-8 17,-18l0 -146c0,-10 -2,-21 -2,-28l0 0 87 179c5,9 11,13 18,13 13,0 18,-8 18,-18l0 -241c0,-9 -5,-18 -18,-18 -12,0 -17,8 -17,18l0 146zm97 -83c-12,0 -15,-7 -15,-17l0 -19c0,-11 3,-17 15,-17l6 0c12,0 15,7 15,17l0 19c0,11 -3,17 -15,17l-6 0zm6 26c26,0 39,-18 39,-41l0 -23c0,-23 -13,-41 -39,-41l-7 0c-26,0 -39,17 -39,41l0 23c0,23 13,41 39,41l7 0zm26 45c8,0 14,-4 14,-14 0,-10 -6,-14 -14,-14l-59 0c-8,0 -14,4 -14,14 0,10 6,14 14,14l59 0zm139 -152l-139 152"/>
   <path class="fil20 str10" d="M15025 11376l36 116c5,16 20,25 37,19 17,-6 24,-22 19,-38l-129 -415c-4,-15 -12,-23 -30,-23l-3 0c-18,0 -26,8 -30,23l-129 415c-5,16 2,32 19,38 17,6 32,-3 37,-19l36 -116 138 0zm-79 -200c4,-15 6,-22 10,-38l1 0c3,16 5,23 10,38l43 145 -107 0 43 -145zm513 289l-137 -202 130 -176c11,-15 11,-32 -1,-44 -15,-15 -34,-7 -45,7l-134 189 -38 0 0 -172c0,-16 -9,-31 -29,-31 -22,0 -31,15 -31,31l0 417c0,16 9,31 31,31 20,0 29,-15 29,-31l0 -185 39 0 137 202c8,13 24,21 41,9 18,-13 17,-31 8,-44zm186 49c21,0 30,-15 30,-31l0 -381 93 0c15,0 28,-9 28,-30 0,-20 -13,-30 -28,-30l-246 0c-15,0 -28,10 -28,30 0,21 13,30 28,30l93 0 0 381c0,16 9,31 30,31z"/>
   <g>
    <path class="fil19" d="M13805 11958l0 98 -3 0 -3 0 -3 0 -3 0 -3 -1 -3 -1 -2 -1 -2 -1 -2 -1 -2 -1 -2 -1 -2 -1 -2 -1 -2 -1 -2 -2 -2 -2 -2 -2 -2 -2 -2 -2 -1 -2 -1 -2 -1 -2 -1 -2 -1 -2 -1 -2 -1 -2 -1 -2 -1 -2 0 -2 0 -2 0 -2 0 -3 0 -3 0 -2 0 -2 0 -2 1 -2 1 -2 1 -2 1 -2 1 -2 1 -2 1 -2 1 -2 1 -2 2 -2 2 -2 2 -2 2 -2 2 -2 2 -1 2 -1 2 -1 2 -1 2 -1 2 -1 2 -1 2 -1 3 -1 3 -1 3 0 3 0 3 0 3 0zm3256 98l-3256 0 0 -98 3256 0 0 98zm0 0l0 -98 3 0 3 0 3 0 3 0 3 1 3 1 2 1 2 1 2 1 2 1 2 1 2 1 2 1 2 1 2 2 2 2 2 2 2 2 2 2 1 2 1 2 1 2 1 2 1 2 1 2 1 2 1 2 1 2 0 2 0 2 0 2 0 3 0 3 0 2 0 2 0 2 -1 2 -1 2 -1 2 -1 2 -1 2 -1 2 -1 2 -1 2 -1 2 -2 2 -2 2 -2 2 -2 2 -2 2 -2 1 -2 1 -2 1 -2 1 -2 1 -2 1 -2 1 -2 1 -3 1 -3 1 -3 0 -3 0 -3 0 -3 0z"/>
   </g>
   <g>
    <path class="fil19" d="M13842 14732l0 99 -2 0 -2 0 -2 0 -2 0 -2 -1 -2 -1 -2 -1 -2 -1 -2 -1 -2 -1 -2 -1 -2 -1 -2 -1 -2 -1 -2 -2 -2 -2 -2 -2 -1 -2 -1 -2 -1 -2 -1 -2 -1 -2 -1 -2 -1 -2 -1 -2 -1 -2 -1 -2 -1 -2 0 -2 0 -2 0 -3 0 -3 0 -3 0 -3 0 -2 0 -2 1 -2 1 -2 1 -2 1 -2 1 -2 1 -2 1 -2 1 -2 1 -2 1 -2 1 -2 2 -2 2 -2 2 -2 2 -1 2 -1 2 -1 2 -1 2 -1 2 -1 2 -1 2 -1 2 -1 2 -1 2 0 2 0 2 0 2 0zm1707 99l-1707 0 0 -99 1707 0 0 99zm0 0l0 -99 2 0 2 0 2 0 2 0 2 1 2 1 2 1 2 1 2 1 2 1 2 1 2 1 2 1 2 1 2 2 2 2 2 2 1 2 1 2 1 2 1 2 1 2 1 2 1 2 1 2 1 2 1 2 1 2 0 2 0 2 0 3 0 3 0 3 0 3 0 2 0 2 -1 2 -1 2 -1 2 -1 2 -1 2 -1 2 -1 2 -1 2 -1 2 -1 2 -1 2 -2 2 -2 2 -2 2 -2 1 -2 1 -2 1 -2 1 -2 1 -2 1 -2 1 -2 1 -2 1 -2 1 -2 0 -2 0 -2 0 -2 0zm-1707 -949l0 99 -2 0 -2 0 -2 0 -2 0 -2 -1 -2 -1 -2 -1 -2 -1 -2 -1 -2 -1 -2 -1 -2 -1 -2 -1 -2 -1 -2 -2 -2 -2 -2 -2 -1 -2 -1 -2 -1 -2 -1 -2 -1 -2 -1 -2 -1 -2 -1 -2 -1 -2 -1 -2 -1 -2 0 -2 0 -2 0 -3 0 -3 0 -3 0 -3 0 -2 0 -2 1 -2 1 -2 1 -2 1 -2 1 -2 1 -2 1 -2 1 -2 1 -2 1 -2 1 -2 2 -2 2 -2 2 -2 2 -1 2 -1 2 -1 2 -1 2 -1 2 -1 2 -1 2 -1 2 -1 2 -1 2 0 2 0 2 0 2 0zm2402 99l-2402 0 0 -99 2402 0 0 99zm0 0l0 -99 2 0 2 0 2 0 2 0 2 1 2 1 2 1 2 1 2 1 2 1 2 1 2 1 2 1 2 1 2 2 2 2 2 2 1 2 1 2 1 2 1 2 1 2 1 2 1 2 1 2 1 2 1 2 1 2 0 2 0 2 0 3 0 3 0 3 0 3 0 2 0 2 -1 2 -1 2 -1 2 -1 2 -1 2 -1 2 -1 2 -1 2 -1 2 -1 2 -1 2 -2 2 -2 2 -2 2 -2 1 -2 1 -2 1 -2 1 -2 1 -2 1 -2 1 -2 1 -2 1 -2 1 -2 0 -2 0 -2 0 -2 0zm-2402 185l0 99 -2 0 -2 0 -2 0 -2 0 -2 -1 -2 -1 -2 -1 -2 -1 -2 -1 -2 -1 -2 -1 -2 -1 -2 -1 -2 -1 -2 -2 -2 -2 -2 -2 -1 -2 -1 -2 -1 -2 -1 -2 -1 -2 -1 -2 -1 -2 -1 -2 -1 -2 -1 -2 -1 -2 0 -2 0 -2 0 -3 0 -3 0 -3 0 -3 0 -2 0 -2 1 -2 1 -2 1 -2 1 -2 1 -2 1 -2 1 -2 1 -2 1 -2 1 -2 1 -2 2 -2 2 -2 2 -2 2 -1 2 -1 2 -1 2 -1 2 -1 2 -1 2 -1 2 -1 2 -1 2 -1 2 0 2 0 2 0 2 0zm3234 99l-3234 0 0 -99 3234 0 0 99zm0 0l0 -99 2 0 2 0 2 0 2 0 2 1 2 1 2 1 2 1 2 1 2 1 2 1 2 1 2 1 2 1 2 2 2 2 2 2 1 2 1 2 1 2 1 2 1 2 1 2 1 2 1 2 1 2 1 2 1 2 0 2 0 2 0 3 0 3 0 3 0 3 0 2 0 2 -1 2 -1 2 -1 2 -1 2 -1 2 -1 2 -1 2 -1 2 -1 2 -1 2 -1 2 -2 2 -2 2 -2 2 -2 1 -2 1 -2 1 -2 1 -2 1 -2 1 -2 1 -2 1 -2 1 -2 1 -2 0 -2 0 -2 0 -2 0zm-3234 185l0 99 -2 0 -2 0 -2 0 -2 0 -2 -1 -2 -1 -2 -1 -2 -1 -2 -1 -2 -1 -2 -1 -2 -1 -2 -1 -2 -1 -2 -2 -2 -2 -2 -2 -1 -2 -1 -2 -1 -2 -1 -2 -1 -2 -1 -2 -1 -2 -1 -2 -1 -2 -1 -2 -1 -2 0 -2 0 -2 0 -3 0 -3 0 -3 0 -3 0 -2 0 -2 1 -2 1 -2 1 -2 1 -2 1 -2 1 -2 1 -2 1 -2 1 -2 1 -2 1 -2 2 -2 2 -2 2 -2 2 -1 2 -1 2 -1 2 -1 2 -1 2 -1 2 -1 2 -1 2 -1 2 -1 2 0 2 0 2 0 2 0zm3234 99l-3234 0 0 -99 3234 0 0 99zm0 0l0 -99 2 0 2 0 2 0 2 0 2 1 2 1 2 1 2 1 2 1 2 1 2 1 2 1 2 1 2 1 2 2 2 2 2 2 1 2 1 2 1 2 1 2 1 2 1 2 1 2 1 2 1 2 1 2 1 2 0 2 0 2 0 3 0 3 0 3 0 3 0 2 0 2 -1 2 -1 2 -1 2 -1 2 -1 2 -1 2 -1 2 -1 2 -1 2 -1 2 -1 2 -2 2 -2 2 -2 2 -2 1 -2 1 -2 1 -2 1 -2 1 -2 1 -2 1 -2 1 -2 1 -2 1 -2 0 -2 0 -2 0 -2 0z"/>
   </g>
   <path class="fil21 str11" d="M14108 13351c98,-61 129,-144 129,-245l0 -96c0,-74 -40,-122 -120,-122l-36 0c-80,0 -120,45 -120,119l0 32c0,74 40,126 120,126l93 0c-9,53 -37,96 -98,135 -13,8 -23,25 -11,43 11,18 29,17 42,8zm9 -405c44,0 62,23 62,64l0 96 -98 0c-44,0 -62,-26 -62,-67l0 -32c0,-41 18,-61 62,-61l36 0z"/>
   <path class="fil14 str13" d="M17509 10077l0 5729c-1555,0 -2597,0 -4152,0l0 -5729 4152 0z"/>
   <path class="fil14 str14" d="M16257 14785c-351,1223 -111,530 -275,421 -163,-109 594,-525 544,-191 -50,334 -594,254 -579,324 15,70 228,119 292,-59 64,-178 -29,139 139,84 168,-55 237,-213 210,-124 -27,89 20,74 109,20 89,-54 191,-111 191,-111"/>
   <g>
    <path class="fil19" d="M13805 12405l0 98 -3 0 -3 0 -3 0 -3 0 -3 -1 -3 -1 -2 -1 -2 -1 -2 -1 -2 -1 -2 -1 -2 -1 -2 -1 -2 -1 -2 -2 -2 -2 -2 -2 -2 -2 -2 -2 -1 -2 -1 -2 -1 -2 -1 -2 -1 -2 -1 -2 -1 -2 -1 -2 -1 -2 0 -2 0 -2 0 -2 0 -3 0 -3 0 -2 0 -2 0 -2 1 -2 1 -2 1 -2 1 -2 1 -2 1 -2 1 -2 1 -2 1 -2 2 -2 2 -2 2 -2 2 -2 2 -2 2 -1 2 -1 2 -1 2 -1 2 -1 2 -1 2 -1 2 -1 3 -1 3 -1 3 0 3 0 3 0 3 0zm445 98l-445 0 0 -98 445 0 0 98zm0 0l0 -98 3 0 3 0 3 0 3 0 3 1 3 1 2 1 2 1 2 1 2 1 2 1 2 1 2 1 2 1 2 2 2 2 2 2 2 2 2 2 1 2 1 2 1 2 1 2 1 2 1 2 1 2 1 2 1 2 0 2 0 2 0 2 0 3 0 3 0 2 0 2 0 2 -1 2 -1 2 -1 2 -1 2 -1 2 -1 2 -1 2 -1 2 -1 2 -2 2 -2 2 -2 2 -2 2 -2 2 -2 1 -2 1 -2 1 -2 1 -2 1 -2 1 -2 1 -2 1 -3 1 -3 1 -3 0 -3 0 -3 0 -3 0z"/>
   </g>
   <path class="fil19 str9" d="M5666 12226c-6,0 -11,3 -15,6 -20,22 -42,44 -66,65 -7,7 -10,15 0,25 9,9 17,6 25,0 15,-12 30,-28 42,-43l0 197 -51 0c-10,0 -18,5 -18,18 0,13 8,18 18,18l131 0c10,0 18,-5 18,-18 0,-13 -8,-18 -18,-18l-43 0 0 -232c0,-11 -3,-19 -17,-19l-7 0z"/>
   <path class="fil19 str9" d="M10834 12445c0,-19 7,-33 20,-39l74 -34c36,-16 45,-45 45,-72l0 -2c0,-47 -26,-72 -79,-72l-25 0c-42,0 -68,18 -68,61 0,11 5,19 19,19 14,0 19,-9 19,-19 0,-17 12,-24 30,-24l25 0c29,0 41,11 41,36l0 2c0,19 -6,31 -22,38l-69 31c-32,14 -48,45 -48,80l0 65 163 0c10,0 18,-5 18,-18 0,-13 -8,-18 -18,-18l-125 0 0 -32z"/>
   <path class="fil19 str9" d="M16212 12428c0,-34 -14,-60 -44,-69 19,-11 30,-29 30,-55l0 -5c0,-47 -26,-72 -79,-72l-21 0c-42,0 -68,18 -68,61 0,11 5,19 19,19 14,0 19,-9 19,-19 0,-17 12,-24 30,-24l21 0c29,0 41,11 41,36l0 5c0,26 -15,44 -44,44l-23 0c-10,0 -18,5 -18,18 0,13 8,18 18,18l41 0c29,0 40,19 40,45l0 13c0,26 -12,40 -41,40l-43 0c-18,0 -30,-7 -30,-24 0,-11 -5,-19 -19,-19 -14,0 -19,9 -19,19 0,43 26,61 68,61l43 0c53,0 79,-30 79,-77l0 -13z"/>
   <path class="fil21 str12" d="M9370 13326c0,11 6,22 20,22 15,0 21,-10 21,-22l0 -299c0,-11 -6,-22 -21,-22 -9,0 -14,3 -21,16l-120 226 0 0c1,-9 2,-20 2,-33l0 -188c0,-11 -6,-22 -20,-22 -15,0 -21,10 -21,22l0 299c0,11 6,22 21,22 9,0 14,-3 21,-16l120 -226 0 0c-1,9 -2,20 -2,33l0 188zm760 0c0,11 6,22 20,22 15,0 21,-10 21,-22l0 -299c0,-11 -6,-22 -21,-22 -9,0 -14,3 -21,16l-120 226 0 0c1,-9 2,-20 2,-33l0 -188c0,-11 -6,-22 -20,-22 -15,0 -21,10 -21,22l0 299c0,11 6,22 21,22 9,0 14,-3 21,-16l120 -226 0 0c-1,9 -2,20 -2,33l0 188zm-520 -233c0,29 -19,55 -49,55l-16 0c-10,0 -20,7 -20,21 0,15 9,21 20,21l33 0c31,0 43,26 43,55l0 11c0,29 -10,49 -43,49l-34 0c-17,0 -34,-8 -36,-28 -1,-11 -6,-22 -21,-22 -15,0 -22,10 -22,22 0,45 32,71 77,71l37 0c54,0 82,-39 82,-92l0 -11c0,-39 -17,-74 -52,-83 30,-14 41,-40 41,-69 0,-52 -24,-87 -84,-87l-20 0c-46,0 -77,24 -77,71 0,11 6,22 22,22 14,0 20,-10 21,-22 1,-19 19,-28 38,-28l16 0c30,0 42,13 42,45zm215 49l-65 0 0 -89 114 0c10,0 20,-6 20,-21 0,-14 -9,-21 -20,-21l-135 0c-15,0 -21,10 -21,22l0 289c0,11 6,22 21,22l86 0c58,0 86,-40 86,-92l0 -21c0,-53 -28,-87 -86,-87zm44 114c0,29 -12,45 -43,45l-66 0 0 -118 65 0c31,0 44,17 44,45l0 29zm413 -85l0 -118 70 0c31,0 44,17 44,45l0 24c0,29 -13,49 -44,49l-70 0zm70 43c58,0 86,-40 86,-92l0 -24c0,-53 -28,-88 -86,-88l-91 0c-14,0 -21,10 -21,22l0 294c0,11 6,22 21,22 15,0 21,-10 21,-22l0 -112 70 0zm263 36l25 83c3,11 14,18 26,14 12,-4 16,-16 13,-27l-90 -298c-3,-10 -9,-16 -21,-16l-2 0c-13,0 -18,6 -21,16l-90 298c-3,11 1,23 13,27 12,4 23,-2 26,-14l25 -83 97 0zm-56 -144c3,-10 4,-16 7,-27l0 0c2,11 4,17 7,27l30 104 -75 0 30 -104zm218 242c15,0 21,-10 21,-22l0 -273 65 0c10,0 20,-6 20,-21 0,-14 -9,-21 -20,-21l-173 0c-10,0 -20,7 -20,21 0,15 9,21 20,21l65 0 0 273c0,11 6,22 21,22zm320 -5c10,0 20,-6 20,-21 0,-14 -9,-21 -20,-21l-123 0 0 -107 101 0c10,0 20,-6 20,-21 0,-14 -9,-21 -20,-21l-101 0 0 -97 123 0c10,0 20,-6 20,-21 0,-14 -9,-21 -20,-21l-144 0c-14,0 -21,10 -21,22l0 289c0,11 6,22 21,22l144 0zm133 -60c3,-27 26,-230 26,-230l78 0 0 273c0,11 6,22 21,22 14,0 21,-10 21,-22l0 -294c0,-11 -6,-22 -21,-22l-117 0c-13,0 -20,9 -22,22 -1,14 -26,222 -28,240 -1,11 -3,18 -5,23 -4,9 -12,11 -25,11 -11,0 -21,7 -21,22 0,16 10,21 21,21 39,0 55,-13 64,-37 3,-9 5,-18 6,-30zm380 60c10,0 20,-6 20,-21 0,-14 -9,-21 -20,-21l-123 0 0 -107 101 0c10,0 20,-6 20,-21 0,-14 -9,-21 -20,-21l-101 0 0 -97 123 0c10,0 20,-6 20,-21 0,-14 -9,-21 -20,-21l-144 0c-14,0 -21,10 -21,22l0 289c0,11 6,22 21,22l144 0zm172 -363c41,0 62,-31 62,-64 0,-10 -7,-17 -17,-17 -9,0 -16,7 -17,17 -1,18 -12,30 -29,30 -17,0 -28,-13 -29,-30 -1,-10 -7,-17 -17,-17 -9,0 -17,7 -17,17 0,33 21,64 62,64zm59 346c0,11 6,22 20,22 15,0 21,-10 21,-22l0 -299c0,-11 -6,-22 -21,-22 -9,0 -14,3 -21,16l-120 226 0 0c1,-9 2,-20 2,-33l0 -188c0,-11 -6,-22 -20,-22 -15,0 -21,10 -21,22l0 299c0,11 6,22 21,22 9,0 14,-3 21,-16l120 -226 0 0c-1,9 -2,20 -2,33l0 188z"/>
   <path class="fil21 str12" d="M14618 13326c0,11 6,22 20,22 15,0 21,-10 21,-22l0 -299c0,-11 -6,-22 -21,-22 -9,0 -14,3 -21,16l-120 226 0 0c1,-9 2,-20 2,-33l0 -188c0,-11 -6,-22 -20,-22 -15,0 -21,10 -21,22l0 299c0,11 6,22 21,22 9,0 14,-3 21,-16l120 -226 0 0c-1,9 -2,20 -2,33l0 188zm760 0c0,11 6,22 20,22 15,0 21,-10 21,-22l0 -299c0,-11 -6,-22 -21,-22 -9,0 -14,3 -21,16l-120 226 0 0c1,-9 2,-20 2,-33l0 -188c0,-11 -6,-22 -20,-22 -15,0 -21,10 -21,22l0 299c0,11 6,22 21,22 9,0 14,-3 21,-16l120 -226 0 0c-1,9 -2,20 -2,33l0 188zm-520 -233c0,29 -19,55 -49,55l-16 0c-10,0 -20,7 -20,21 0,15 9,21 20,21l33 0c31,0 43,26 43,55l0 11c0,29 -10,49 -43,49l-34 0c-17,0 -34,-8 -36,-28 -1,-11 -6,-22 -21,-22 -15,0 -22,10 -22,22 0,45 32,71 77,71l37 0c54,0 82,-39 82,-92l0 -11c0,-39 -17,-74 -52,-83 30,-14 41,-40 41,-69 0,-52 -24,-87 -84,-87l-20 0c-46,0 -77,24 -77,71 0,11 6,22 22,22 14,0 20,-10 21,-22 1,-19 19,-28 38,-28l16 0c30,0 42,13 42,45zm215 49l-65 0 0 -89 114 0c10,0 20,-6 20,-21 0,-14 -9,-21 -20,-21l-135 0c-15,0 -21,10 -21,22l0 289c0,11 6,22 21,22l86 0c58,0 86,-40 86,-92l0 -21c0,-53 -28,-87 -86,-87zm44 114c0,29 -12,45 -43,45l-66 0 0 -118 65 0c31,0 44,17 44,45l0 29zm413 -85l0 -118 70 0c31,0 44,17 44,45l0 24c0,29 -13,49 -44,49l-70 0zm70 43c58,0 86,-40 86,-92l0 -24c0,-53 -28,-88 -86,-88l-91 0c-14,0 -21,10 -21,22l0 294c0,11 6,22 21,22 15,0 21,-10 21,-22l0 -112 70 0zm263 36l25 83c3,11 14,18 26,14 12,-4 16,-16 13,-27l-90 -298c-3,-10 -9,-16 -21,-16l-2 0c-13,0 -18,6 -21,16l-90 298c-3,11 1,23 13,27 12,4 23,-2 26,-14l25 -83 97 0zm-56 -144c3,-10 4,-16 7,-27l0 0c2,11 4,17 7,27l30 104 -75 0 30 -104zm218 242c15,0 21,-10 21,-22l0 -273 65 0c10,0 20,-6 20,-21 0,-14 -9,-21 -20,-21l-173 0c-10,0 -20,7 -20,21 0,15 9,21 20,21l65 0 0 273c0,11 6,22 21,22zm320 -5c10,0 20,-6 20,-21 0,-14 -9,-21 -20,-21l-123 0 0 -107 101 0c10,0 20,-6 20,-21 0,-14 -9,-21 -20,-21l-101 0 0 -97 123 0c10,0 20,-6 20,-21 0,-14 -9,-21 -20,-21l-144 0c-14,0 -21,10 -21,22l0 289c0,11 6,22 21,22l144 0zm133 -60c3,-27 26,-230 26,-230l78 0 0 273c0,11 6,22 21,22 14,0 21,-10 21,-22l0 -294c0,-11 -6,-22 -21,-22l-117 0c-13,0 -20,9 -22,22 -1,14 -26,222 -28,240 -1,11 -3,18 -5,23 -4,9 -12,11 -25,11 -11,0 -21,7 -21,22 0,16 10,21 21,21 39,0 55,-13 64,-37 3,-9 5,-18 6,-30zm380 60c10,0 20,-6 20,-21 0,-14 -9,-21 -20,-21l-123 0 0 -107 101 0c10,0 20,-6 20,-21 0,-14 -9,-21 -20,-21l-101 0 0 -97 123 0c10,0 20,-6 20,-21 0,-14 -9,-21 -20,-21l-144 0c-14,0 -21,10 -21,22l0 289c0,11 6,22 21,22l144 0zm172 -363c41,0 62,-31 62,-64 0,-10 -7,-17 -17,-17 -9,0 -16,7 -17,17 -1,18 -12,30 -29,30 -17,0 -28,-13 -29,-30 -1,-10 -7,-17 -17,-17 -9,0 -17,7 -17,17 0,33 21,64 62,64zm59 346c0,11 6,22 20,22 15,0 21,-10 21,-22l0 -299c0,-11 -6,-22 -21,-22 -9,0 -14,3 -21,16l-120 226 0 0c1,-9 2,-20 2,-33l0 -188c0,-11 -6,-22 -20,-22 -15,0 -21,10 -21,22l0 299c0,11 6,22 21,22 9,0 14,-3 21,-16l120 -226 0 0c-1,9 -2,20 -2,33l0 188z"/>
  </g>
 </g>
</svg>
