<?xml version="1.0" encoding="UTF-8"?>
<!DOCTYPE svg PUBLIC "-//W3C//DTD SVG 1.1//EN" "http://www.w3.org/Graphics/SVG/1.1/DTD/svg11.dtd">
<!-- Creator: CorelDRAW X6 -->
<svg xmlns="http://www.w3.org/2000/svg" xml:space="preserve" width="200mm" height="200mm" version="1.1" style="shape-rendering:geometricPrecision; text-rendering:geometricPrecision; image-rendering:optimizeQuality; fill-rule:evenodd; clip-rule:evenodd"
viewBox="0 0 20000 20000"
 xmlns:xlink="http://www.w3.org/1999/xlink">
 <defs>
  <style type="text/css">
   <![CDATA[
    .str5 {stroke:#57A6B3;stroke-width:8.22;stroke-linecap:round;stroke-linejoin:round}
    .str6 {stroke:#CC7587;stroke-width:14.52}
    .str11 {stroke:#CC7587;stroke-width:38.49}
    .str10 {stroke:#AB8082;stroke-width:43.86}
    .str4 {stroke:#AB8082;stroke-width:66.14}
    .str9 {stroke:#CC7587;stroke-width:88.51;stroke-linecap:round;stroke-linejoin:round}
    .str7 {stroke:#759996;stroke-width:100;stroke-linecap:round;stroke-linejoin:round;stroke-opacity:0.501961}
    .str8 {stroke:#759996;stroke-width:100;stroke-linecap:round;stroke-linejoin:round}
    .str3 {stroke:#2E99A3;stroke-width:107.29;stroke-linecap:round;stroke-linejoin:round}
    .str1 {stroke:#034540;stroke-width:124.03;stroke-linecap:round;stroke-linejoin:round}
    .str0 {stroke:#4D8A7D;stroke-width:124.03;stroke-linecap:round;stroke-linejoin:round}
    .str12 {stroke:#CC7587;stroke-width:110.9;stroke-linecap:round;stroke-linejoin:round;stroke-dasharray:253.980000 253.980000}
    .str2 {stroke:#CC7587;stroke-width:114.06;stroke-linecap:round;stroke-linejoin:round;stroke-dasharray:253.980000 253.980000}
    .fil2 {fill:none}
    .fil4 {fill:none;fill-rule:nonzero}
    .fil12 {fill:#738287}
    .fil8 {fill:#ABC9BF}
    .fil7 {fill:#BDD6D1}
    .fil6 {fill:#C9E6E8}
    .fil1 {fill:#EBF2D9}
    .fil17 {fill:white}
    .fil10 {fill:#0066A3;fill-rule:nonzero}
    .fil9 {fill:#2E99A3;fill-rule:nonzero}
    .fil3 {fill:#4D8A7D;fill-rule:nonzero}
    .fil14 {fill:#57A6B3;fill-rule:nonzero}
    .fil11 {fill:#738287;fill-rule:nonzero}
    .fil13 {fill:#AB8082;fill-rule:nonzero}
    .fil15 {fill:#BDD6D1;fill-rule:nonzero}
    .fil5 {fill:#CC7587;fill-rule:nonzero}
    .fil16 {fill:white;fill-opacity:0.501961}
    .fil0 {fill:url(#id0)}
   ]]>
  </style>
  <radialGradient id="id0" gradientUnits="userSpaceOnUse" cx="10000" cy="10000" r="10000" fx="10000" fy="10000">
   <stop offset="0" style="stop-color:#FEFEFE"/>
   <stop offset="0.439216" style="stop-color:#FEFEFE"/>
   <stop offset="1" style="stop-color:#D1E2F2"/>
  </radialGradient>
 </defs>
 <g id="Layer_x0020_1">
  <metadata id="CorelCorpID_0Corel-Layer"/>
  <g id="_839953296">
   <polygon class="fil0" points="0,0 20000,0 20000,20000 0,20000 "/>
   <polygon class="fil1" points="5142,14507 6062,14507 7942,14507 7942,11577 7942,10728 5142,10728 "/>
   <polyline class="fil2 str0" points="8394,11543 8394,10317 5594,10317 "/>
   <path class="fil2 str0" d="M8168 11577c0,-979 0,-75 0,-1054 -653,0 -2147,0 -2800,0"/>
   <path class="fil3" d="M5510 12119l-46 0 0 -96 103 0c12,0 22,-7 22,-23 0,-15 -11,-23 -22,-23l-128 0c-16,0 -24,10 -24,22l0 312c0,12 8,24 24,24l70 0c65,0 95,-34 95,-91l0 -30c0,-56 -30,-95 -95,-95zm48 125c0,31 -12,46 -48,46l-46 0 0 -128 46 0c35,0 48,19 48,51l0 31zm291 -271l-5 0c-68,0 -95,58 -95,114l0 37 -41 0 0 -127c0,-12 -5,-24 -22,-24 -16,0 -23,11 -23,24l0 321c0,12 7,24 23,24 17,0 22,-11 22,-24l0 -148 41 0 0 77c0,56 30,94 95,94l5 0c65,0 95,-43 95,-100l0 -169c0,-56 -30,-100 -95,-100zm47 268c0,32 -11,54 -47,54l-5 0c-35,0 -47,-16 -47,-48l0 -160c0,-32 9,-68 47,-68l5 0c35,0 47,22 47,54l0 169zm179 30c1,-11 17,-247 17,-247l72 0 0 293c0,12 7,24 25,24 16,0 24,-11 24,-24l0 -316c0,-12 -7,-24 -24,-24l-117 0c-16,0 -24,12 -25,24 0,0 -16,252 -17,258 -1,6 -1,16 -4,22 -5,9 -12,15 -25,15 -12,0 -24,8 -24,24 0,17 11,23 24,23 36,0 58,-15 68,-40 4,-9 6,-21 7,-32zm273 0c1,-11 17,-247 17,-247l72 0 0 293c0,12 7,24 25,24 16,0 24,-11 24,-24l0 -316c0,-12 -7,-24 -24,-24l-117 0c-16,0 -24,12 -25,24 0,0 -16,252 -17,258 -1,6 -1,16 -4,22 -5,9 -12,15 -25,15 -12,0 -24,8 -24,24 0,17 11,23 24,23 36,0 58,-15 68,-40 4,-9 6,-21 7,-32zm368 64c12,0 22,-7 22,-23 0,-15 -11,-23 -22,-23l-109 0 0 -115 87 0c12,0 22,-7 22,-23 0,-15 -11,-23 -22,-23l-87 0 0 -105 109 0c12,0 22,-7 22,-23 0,-15 -11,-23 -22,-23l-134 0c-16,0 -24,11 -24,24l0 311c0,12 7,24 24,24l134 0zm130 -18c0,12 7,24 24,24 16,0 24,-11 24,-24l0 -293 59 0c12,0 22,-7 22,-23 0,-15 -11,-23 -22,-23l-166 0c-12,0 -22,8 -22,23 0,16 11,23 22,23l59 0 0 293zm331 18c12,0 22,-7 22,-23 0,-15 -11,-23 -22,-23l-109 0 0 -115 87 0c12,0 22,-7 22,-23 0,-15 -11,-23 -22,-23l-87 0 0 -105 109 0c12,0 22,-7 22,-23 0,-15 -11,-23 -22,-23l-134 0c-16,0 -24,11 -24,24l0 311c0,12 7,24 24,24l134 0zm275 -339c0,-12 -8,-24 -24,-24 -17,0 -24,11 -24,24l0 127 -104 0 0 -127c0,-12 -7,-24 -24,-24 -16,0 -24,11 -24,24l0 321c0,12 8,24 24,24 17,0 24,-11 24,-24l0 -148 104 0 0 148c0,12 7,24 24,24 16,0 24,-11 24,-24l0 -321zm173 120l-52 0 0 -120c0,-12 -7,-24 -24,-24 -17,0 -24,11 -24,24l0 315c0,12 7,24 24,24l76 0c65,0 95,-34 95,-91l0 -31c0,-56 -30,-97 -95,-97zm-52 46l52 0c35,0 48,19 48,51l0 31c0,31 -12,46 -48,46l-52 0 0 -127z"/>
   <polyline class="fil4 str0" points="8845,11577 8845,9907 6045,9907 "/>
   <path class="fil4 str0" d="M8619 11577c0,-979 0,-485 0,-1464 -653,0 -2147,0 -2800,0"/>
   <polyline class="fil4 str1" points="7942,11577 7942,10728 5142,10728 5142,14507 6062,14507 "/>
   <polygon class="fil1" points="9771,14507 10690,14507 12571,14507 12571,11577 12571,10728 9771,10728 "/>
   <polyline class="fil2 str0" points="13022,11543 13022,10317 10222,10317 "/>
   <path class="fil2 str0" d="M12796 11577c0,-979 0,-75 0,-1054 -653,0 -2147,0 -2800,0"/>
   <path class="fil3" d="M10139 12119l-46 0 0 -96 103 0c12,0 22,-7 22,-23 0,-15 -11,-23 -22,-23l-128 0c-16,0 -24,10 -24,22l0 312c0,12 8,24 24,24l70 0c65,0 95,-34 95,-91l0 -30c0,-56 -30,-95 -95,-95zm48 125c0,31 -12,46 -48,46l-46 0 0 -128 46 0c35,0 48,19 48,51l0 31zm291 -271l-5 0c-68,0 -95,58 -95,114l0 37 -41 0 0 -127c0,-12 -5,-24 -22,-24 -16,0 -23,11 -23,24l0 321c0,12 7,24 23,24 17,0 22,-11 22,-24l0 -148 41 0 0 77c0,56 30,94 95,94l5 0c65,0 95,-43 95,-100l0 -169c0,-56 -30,-100 -95,-100zm47 268c0,32 -11,54 -47,54l-5 0c-35,0 -47,-16 -47,-48l0 -160c0,-32 9,-68 47,-68l5 0c35,0 47,22 47,54l0 169zm179 30c1,-11 17,-247 17,-247l72 0 0 293c0,12 7,24 25,24 16,0 24,-11 24,-24l0 -316c0,-12 -7,-24 -24,-24l-117 0c-16,0 -24,12 -25,24 0,0 -16,252 -17,258 -1,6 -1,16 -4,22 -5,9 -12,15 -25,15 -12,0 -24,8 -24,24 0,17 11,23 24,23 36,0 58,-15 68,-40 4,-9 6,-21 7,-32zm273 0c1,-11 17,-247 17,-247l72 0 0 293c0,12 7,24 25,24 16,0 24,-11 24,-24l0 -316c0,-12 -7,-24 -24,-24l-117 0c-16,0 -24,12 -25,24 0,0 -16,252 -17,258 -1,6 -1,16 -4,22 -5,9 -12,15 -25,15 -12,0 -24,8 -24,24 0,17 11,23 24,23 36,0 58,-15 68,-40 4,-9 6,-21 7,-32zm368 64c12,0 22,-7 22,-23 0,-15 -11,-23 -22,-23l-109 0 0 -115 87 0c12,0 22,-7 22,-23 0,-15 -11,-23 -22,-23l-87 0 0 -105 109 0c12,0 22,-7 22,-23 0,-15 -11,-23 -22,-23l-134 0c-16,0 -24,11 -24,24l0 311c0,12 7,24 24,24l134 0zm130 -18c0,12 7,24 24,24 16,0 24,-11 24,-24l0 -293 59 0c12,0 22,-7 22,-23 0,-15 -11,-23 -22,-23l-166 0c-12,0 -22,8 -22,23 0,16 11,23 22,23l59 0 0 293zm331 18c12,0 22,-7 22,-23 0,-15 -11,-23 -22,-23l-109 0 0 -115 87 0c12,0 22,-7 22,-23 0,-15 -11,-23 -22,-23l-87 0 0 -105 109 0c12,0 22,-7 22,-23 0,-15 -11,-23 -22,-23l-134 0c-16,0 -24,11 -24,24l0 311c0,12 7,24 24,24l134 0zm275 -339c0,-12 -8,-24 -24,-24 -17,0 -24,11 -24,24l0 127 -104 0 0 -127c0,-12 -7,-24 -24,-24 -16,0 -24,11 -24,24l0 321c0,12 8,24 24,24 17,0 24,-11 24,-24l0 -148 104 0 0 148c0,12 7,24 24,24 16,0 24,-11 24,-24l0 -321zm173 120l-52 0 0 -120c0,-12 -7,-24 -24,-24 -17,0 -24,11 -24,24l0 315c0,12 7,24 24,24l76 0c65,0 95,-34 95,-91l0 -31c0,-56 -30,-97 -95,-97zm-52 46l52 0c35,0 48,19 48,51l0 31c0,31 -12,46 -48,46l-52 0 0 -127z"/>
   <polyline class="fil4 str0" points="13473,11577 13473,9907 10673,9907 "/>
   <path class="fil4 str0" d="M13248 11577c0,-979 0,-485 0,-1464 -653,0 -2147,0 -2800,0"/>
   <polyline class="fil4 str1" points="12571,11577 12571,10728 9771,10728 9771,14507 10690,14507 "/>
   <path class="fil5" d="M9541 10110l-96 0 -292 -450 96 -62 292 450 -96 0 96 62zm0 0l-48 74 -48 -74 96 0zm244 -481l48 31 -292 450 -96 -62 292 -450 48 31zm-235 362l0 3 0 3 0 3 -1 3 -1 3 -1 3 -1 3 -1 3 -1 3 -1 2 -1 2 -1 2 -2 2 -2 2 -2 2 -2 2 -2 2 -2 2 -2 2 -2 2 -2 1 -2 1 -2 1 -3 1 -3 1 -3 1 -3 1 -3 1 -3 1 -3 0 -3 0 -3 0 -3 0 -3 0 -3 0 -3 -1 -3 -1 -3 -1 -3 -1 -3 -1 -3 -1 -2 -1 -2 -1 -2 -1 -2 -2 -2 -2 -2 -2 -2 -2 -2 -2 -2 -2 -2 -2 -2 -2 -1 -2 -1 -2 -1 -2 -1 -3 -1 -3 -1 -3 -1 -3 -1 -3 -1 -3 0 -3 0 -3 0 -3 114 0zm-114 -729l114 0 0 729 -114 0 0 -729zm0 0l0 -3 0 -3 0 -3 1 -3 1 -3 1 -3 1 -3 1 -3 1 -3 1 -2 1 -2 1 -2 2 -2 2 -2 2 -2 2 -2 2 -2 2 -2 2 -2 2 -2 2 -1 2 -1 2 -1 3 -1 3 -1 3 -1 3 -1 3 -1 3 -1 3 0 3 0 3 0 3 0 3 0 3 0 3 1 3 1 3 1 3 1 3 1 3 1 2 1 2 1 2 1 2 2 2 2 2 2 2 2 2 2 2 2 2 2 2 2 1 2 1 2 1 2 1 3 1 3 1 3 1 3 1 3 1 3 0 3 0 3 0 3 -114 0z"/>
   <line class="fil4 str2" x1="9493" y1="8759" x2="9493" y2= "9263" />
   <polygon class="fil6" points="1350,7981 1350,5155 2140,4374 2139,5155 4052,5155 4052,7981 "/>
   <polygon class="fil7" points="4843,7120 4843,4374 4052,5155 4052,7981 "/>
   <polygon class="fil7" points="2140,7201 4762,7201 4052,7981 1350,7981 "/>
   <polygon class="fil8" points="4052,7201 4052,7981 4762,7201 "/>
   <g>
    <path class="fil9" d="M4896 4375l0 2745 -107 0 0 -2745 16 -38 92 38zm0 0l-107 0 0 -3 0 -3 0 -3 0 -3 1 -3 1 -3 1 -2 1 -2 1 -2 1 -2 1 -2 1 -2 2 -2 2 -2 2 -2 2 -2 2 -2 2 -2 2 -2 2 -1 2 -1 2 -1 2 -1 2 -1 2 -1 3 -1 3 -1 3 -1 3 0 3 0 3 0 3 0 3 0 3 0 3 0 3 0 3 1 3 1 3 1 2 1 2 1 2 1 2 1 2 1 2 1 2 2 2 2 2 2 2 2 2 2 2 2 2 2 1 2 1 2 1 2 1 2 1 2 1 2 1 3 1 3 0 3 0 3 0 3 0 3zm-882 743l791 -781 76 75 -791 781 -92 -38 16 -38zm0 0l76 75 -2 2 -2 2 -2 2 -2 2 -2 1 -2 1 -2 1 -2 1 -2 1 -2 1 -3 1 -3 1 -3 0 -3 0 -3 0 -3 0 -3 0 -3 0 -3 0 -3 0 -3 -1 -3 -1 -2 -1 -2 -1 -2 -1 -2 -1 -2 -1 -2 -1 -2 -2 -2 -2 -2 -2 -2 -2 -2 -2 -2 -2 -2 -2 -2 -2 -1 -2 -1 -2 -1 -2 -1 -2 -1 -2 -1 -2 -1 -2 -1 -3 0 -3 0 -3 0 -3 0 -3 0 -3 0 -3 0 -3 0 -3 1 -3 1 -2 1 -2 1 -2 1 -2 1 -2 1 -2 1 -2 2 -2 2 -2 2 -2 2 -2zm-16 2864l0 -2826 107 0 0 2826 -14 36 -93 -36zm0 0l107 0 0 3 0 3 0 3 0 3 -1 3 -1 3 -1 2 -1 2 -1 2 -1 2 -1 2 -1 2 -2 2 -2 2 -2 2 -2 2 -2 2 -2 2 -2 2 -2 1 -2 1 -2 1 -2 1 -2 1 -2 1 -3 1 -3 1 -3 1 -3 0 -3 0 -3 0 -3 0 -3 0 -3 0 -3 0 -3 0 -3 -1 -3 -1 -3 -1 -2 -1 -2 -1 -2 -1 -2 -1 -2 -1 -2 -1 -2 -2 -2 -2 -2 -2 -2 -2 -2 -2 -2 -2 -2 -2 -1 -2 -1 -2 -1 -2 -1 -2 -1 -2 -1 -2 -1 -3 -1 -3 0 -3 0 -3 0 -3 0 -3zm884 -826l-791 861 -79 -71 791 -861 93 36 -14 36zm0 0l-79 -71 2 -2 2 -2 2 -2 2 -2 2 -2 2 -1 2 -1 2 -1 2 -1 2 -1 2 -1 3 -1 3 -1 3 0 3 0 3 0 3 0 3 0 3 0 3 0 3 0 3 1 3 1 2 1 2 1 2 1 2 1 2 1 2 1 2 2 2 2 2 2 2 2 2 2 2 2 2 2 2 2 1 2 1 2 1 2 1 2 1 2 1 2 1 2 1 2 0 3 0 3 0 3 0 3 0 3 0 3 0 3 0 3 -1 3 -1 2 -1 2 -1 2 -1 2 -1 2 -1 2 -1 2 -2 2 -2 2 -2 2z"/>
   </g>
   <polygon class="fil2 str3" points="1350,7981 1350,5155 4052,5155 4052,7981 "/>
   <g>
    <path class="fil10" d="M4843 4428l-2702 0 0 -107 2702 0 37 92 -37 15zm0 0l0 -107 3 0 3 0 3 0 3 0 3 1 3 1 2 1 2 1 2 1 2 1 2 1 2 1 2 2 2 2 2 2 2 2 2 2 2 2 2 2 1 2 1 2 1 2 1 2 1 2 1 2 1 3 1 3 1 3 0 3 0 3 0 3 0 3 0 3 0 3 0 3 0 3 -1 3 -1 3 -1 3 -1 2 -1 2 -1 2 -1 2 -1 2 -1 2 -2 2 -2 2 -2 2 -2 2 -2 2 -2 2 -2 2 -2 1 -2 1 -2 1 -2 1 -2 1 -2 1 -3 1 -3 1 -3 0 -3 0 -3 0 -3 0zm-828 689l791 -781 74 77 -791 781 -37 15 -37 -92zm0 0l74 77 -2 2 -2 2 -2 2 -2 2 -2 1 -2 1 -2 1 -2 1 -2 1 -2 1 -2 1 -3 1 -3 0 -3 0 -3 0 -3 0 -3 0 -3 0 -3 0 -3 0 -2 -1 -2 -1 -2 -1 -2 -1 -2 -1 -2 -1 -2 -1 -2 -1 -2 -2 -2 -2 -2 -2 -2 -2 -2 -2 -2 -2 -2 -2 -1 -2 -1 -2 -1 -2 -1 -2 -1 -2 -1 -2 -1 -2 -1 -3 -1 -3 0 -3 0 -3 0 -3 0 -3 0 -3 0 -3 0 -3 0 -3 1 -3 1 -2 1 -2 1 -2 1 -2 1 -2 1 -2 1 -2 2 -2 2 -2 2 -2 2 -2zm-2665 -15l2702 0 0 107 -2702 0 -37 -92 37 -15zm0 0l0 107 -3 0 -3 0 -3 0 -3 0 -3 -1 -3 -1 -2 -1 -2 -1 -2 -1 -2 -1 -2 -1 -2 -1 -2 -2 -2 -2 -2 -2 -2 -2 -2 -2 -2 -2 -2 -2 -1 -2 -1 -2 -1 -2 -1 -2 -1 -2 -1 -2 -1 -3 -1 -3 -1 -3 0 -3 0 -3 0 -3 0 -3 0 -3 0 -3 0 -3 0 -3 1 -3 1 -3 1 -3 1 -2 1 -2 1 -2 1 -2 1 -2 1 -2 2 -2 2 -2 2 -2 2 -2 2 -2 2 -2 2 -2 2 -1 2 -1 2 -1 2 -1 2 -1 2 -1 3 -1 3 -1 3 0 3 0 3 0 3 0zm828 -689l-791 781 -74 -77 791 -781 37 -15 37 92zm0 0l-74 -77 2 -2 2 -2 2 -2 2 -2 2 -1 2 -1 2 -1 2 -1 2 -1 2 -1 2 -1 3 -1 3 0 3 0 3 0 3 0 3 0 3 0 3 0 3 0 2 1 2 1 2 1 2 1 2 1 2 1 2 1 2 1 2 2 2 2 2 2 2 2 2 2 2 2 2 2 1 2 1 2 1 2 1 2 1 2 1 2 1 2 1 3 1 3 0 3 0 3 0 3 0 3 0 3 0 3 0 3 0 3 -1 3 -1 2 -1 2 -1 2 -1 2 -1 2 -1 2 -1 2 -2 2 -2 2 -2 2 -2 2z"/>
   </g>
   <path class="fil11" d="M4427 5006c-2,-62 33,-113 78,-115 45,-2 82,46 83,108 13,522 236,837 472,1170l0 0 0 0c2,2 3,5 5,7 123,176 198,343 183,480 -16,155 -121,252 -355,258l0 -224c134,-2 191,-27 195,-65 6,-60 -49,-166 -139,-293 -1,-1 -2,-3 -4,-5l0 0 0 0 -1 -1 0 0c-258,-365 -502,-710 -518,-1319z"/>
   <path class="fil12" d="M4594 4890c48,0 86,75 86,167 0,92 -39,167 -86,167 -48,0 -86,-75 -86,-167 0,-92 39,-167 86,-167z"/>
   <path class="fil13 str4" d="M2973 6046c-17,0 -28,7 -38,17 -52,57 -110,114 -171,170 -19,18 -26,40 -1,65 23,23 45,15 64,-1 38,-32 77,-72 110,-111l0 513 -132 0c-26,0 -47,14 -47,47 0,34 21,47 47,47l341 0c26,0 47,-14 47,-47 0,-34 -21,-47 -47,-47l-111 0 0 -604c0,-27 -8,-50 -45,-50l-18 0z"/>
   <path class="fil13" d="M2357 6602c0,18 3,37 4,50l-1 0 -153 -316c-8,-16 -19,-23 -32,-23 -23,0 -33,15 -33,31l0 426c0,16 9,31 32,31 22,0 31,-15 31,-31l0 -258c0,-18 -3,-37 -4,-50l1 0 153 316c8,16 19,23 32,23 23,0 33,-15 33,-31l0 -426c0,-16 -9,-31 -32,-31 -22,0 -31,15 -31,31l0 258zm172 -146c-20,0 -26,-12 -26,-31l0 -34c0,-19 5,-31 26,-31l10 0c20,0 26,12 26,31l0 34c0,19 -5,31 -26,31l-10 0zm11 45c47,0 69,-31 69,-73l0 -41c0,-41 -22,-72 -69,-72l-12 0c-47,0 -69,31 -69,72l0 41c0,41 22,73 69,73l12 0zm47 80c14,0 24,-7 24,-24 0,-18 -10,-24 -24,-24l-105 0c-14,0 -25,7 -25,24 0,18 11,24 25,24l105 0z"/>
   <path class="fil14 str5" d="M2214 7275c0,-33 -14,-54 -43,-64 20,-12 30,-28 30,-53l0 -14c0,-46 -26,-69 -77,-69l-48 0c-14,0 -20,9 -20,19l0 248c0,10 6,19 20,19l61 0c52,0 77,-27 77,-73l0 -13zm-120 -41l42 0c28,0 39,16 39,41l0 13c0,24 -11,36 -39,36l-42 0 0 -90zm0 -36l0 -86 29 0c28,0 39,8 39,32l0 14c0,24 -11,40 -39,40l-29 0zm232 -12l-28 0 0 -96c0,-10 -6,-19 -19,-19 -13,0 -19,9 -19,19l0 251c0,10 6,19 19,19l48 0c52,0 75,-27 75,-73l0 -24c0,-45 -24,-77 -75,-77zm-28 37l28 0c28,0 38,15 38,40l0 24c0,24 -10,37 -38,37l-28 0 0 -101zm171 123l0 -256c0,-10 -5,-19 -19,-19 -13,0 -19,9 -19,19l0 256c0,10 5,19 19,19 13,0 19,-9 19,-19zm134 -158l-37 0 0 -76 82 0c9,0 18,-5 18,-18 0,-12 -9,-18 -18,-18l-102 0c-13,0 -19,8 -19,18l0 248c0,10 6,19 19,19l56 0c52,0 75,-27 75,-73l0 -24c0,-45 -24,-76 -75,-76zm38 99c0,24 -10,37 -38,37l-37 0 0 -102 37 0c28,0 38,15 38,40l0 25zm117 -137c0,-25 9,-43 37,-43l12 0c28,0 37,18 37,43l0 134c0,25 -9,43 -37,43l-12 0c-28,0 -37,-18 -37,-43l0 -134zm125 0c0,-45 -24,-79 -75,-79l-12 0c-52,0 -75,35 -75,79l0 134c0,45 24,79 75,79l12 0c52,0 75,-35 75,-79l0 -134zm93 62l0 -101 41 0c28,0 38,12 38,37l0 24c0,25 -10,40 -38,40l-41 0zm41 37c52,0 75,-32 75,-77l0 -24c0,-46 -24,-73 -75,-73l-61 0c-13,0 -19,9 -19,19l0 252c0,10 6,19 19,19 13,0 19,-9 19,-19l0 -96 41 0zm188 -64l-28 0 0 -96c0,-10 -6,-19 -19,-19 -13,0 -19,9 -19,19l0 251c0,10 6,19 19,19l48 0c52,0 75,-27 75,-73l0 -24c0,-45 -24,-77 -75,-77zm-28 37l28 0c28,0 38,15 38,40l0 24c0,24 -10,37 -38,37l-28 0 0 -101zm171 123l0 -256c0,-10 -5,-19 -19,-19 -13,0 -19,9 -19,19l0 256c0,10 5,19 19,19 13,0 19,-9 19,-19z"/>
   <polygon class="fil7" points="14480,6143 14480,3101 12618,4939 12618,7981 "/>
   <polygon class="fil6" points="11298,3101 9436,4939 12618,4939 14480,3101 "/>
   <polygon class="fil7" points="11298,6143 14480,6143 12618,7981 9436,7981 "/>
   <polygon class="fil8" points="12618,6143 12618,7981 14480,6143 "/>
   <g>
    <path class="fil15" d="M11239 6143l118 0 0 3 0 3 0 3 -1 3 -1 3 -1 3 -1 3 -1 3 -1 3 -1 2 -1 2 -2 2 -2 2 -2 2 -2 2 -2 2 -2 2 -2 2 -2 2 -2 2 -2 2 -2 1 -3 1 -3 1 -3 1 -3 1 -3 1 -3 1 -3 1 -3 0 -3 0 -3 0 -3 0 -3 0 -3 0 -3 -1 -3 -1 -3 -1 -3 -1 -3 -1 -3 -1 -3 -1 -2 -1 -2 -2 -2 -2 -2 -2 -2 -2 -2 -2 -2 -2 -2 -2 -2 -2 -2 -2 -2 -2 -1 -2 -1 -2 -1 -3 -1 -3 -1 -3 -1 -3 -1 -3 -1 -3 0 -3 0 -3 0 -3zm118 -2950l0 2950 -118 0 0 -2950 118 0zm0 0l-118 0 0 -3 0 -3 0 -3 1 -3 1 -3 1 -3 1 -3 1 -3 1 -3 1 -2 1 -2 2 -2 2 -2 2 -2 2 -2 2 -2 2 -2 2 -2 2 -2 2 -2 2 -2 2 -1 3 -1 3 -1 3 -1 3 -1 3 -1 3 -1 3 -1 3 0 3 0 3 0 3 0 3 0 3 0 3 1 3 1 3 1 3 1 3 1 3 1 3 1 2 1 2 2 2 2 2 2 2 2 2 2 2 2 2 2 2 2 2 2 2 2 1 2 1 2 1 3 1 3 1 3 1 3 1 3 1 3 0 3 0 3 0 3z"/>
   </g>
   <polygon class="fil6" points="5242,7981 5242,5155 6033,4374 6031,5155 7944,5155 7944,7981 "/>
   <polygon class="fil7" points="8735,7120 8735,4374 7944,5155 7944,7981 "/>
   <polygon class="fil7" points="6033,7201 8654,7201 7944,7981 5242,7981 "/>
   <polygon class="fil8" points="7944,7201 7944,7981 8654,7201 "/>
   <g>
    <path class="fil9" d="M8789 4375l0 2745 -107 0 0 -2745 16 -38 92 38zm0 0l-107 0 0 -3 0 -3 0 -3 0 -3 1 -3 1 -3 1 -2 1 -2 1 -2 1 -2 1 -2 1 -2 2 -2 2 -2 2 -2 2 -2 2 -2 2 -2 2 -2 2 -1 2 -1 2 -1 2 -1 2 -1 2 -1 3 -1 3 -1 3 -1 3 0 3 0 3 0 3 0 3 0 3 0 3 0 3 0 3 1 3 1 3 1 2 1 2 1 2 1 2 1 2 1 2 1 2 2 2 2 2 2 2 2 2 2 2 2 2 2 1 2 1 2 1 2 1 2 1 2 1 2 1 3 1 3 0 3 0 3 0 3 0 3zm-882 743l791 -781 76 75 -791 781 -92 -38 16 -38zm0 0l76 75 -2 2 -2 2 -2 2 -2 2 -2 1 -2 1 -2 1 -2 1 -2 1 -2 1 -3 1 -3 1 -3 0 -3 0 -3 0 -3 0 -3 0 -3 0 -3 0 -3 0 -3 -1 -3 -1 -2 -1 -2 -1 -2 -1 -2 -1 -2 -1 -2 -1 -2 -2 -2 -2 -2 -2 -2 -2 -2 -2 -2 -2 -2 -2 -2 -2 -1 -2 -1 -2 -1 -2 -1 -2 -1 -2 -1 -2 -1 -2 -1 -3 0 -3 0 -3 0 -3 0 -3 0 -3 0 -3 0 -3 0 -3 1 -3 1 -2 1 -2 1 -2 1 -2 1 -2 1 -2 1 -2 2 -2 2 -2 2 -2 2 -2zm-16 2864l0 -2826 107 0 0 2826 -14 36 -93 -36zm0 0l107 0 0 3 0 3 0 3 0 3 -1 3 -1 3 -1 2 -1 2 -1 2 -1 2 -1 2 -1 2 -2 2 -2 2 -2 2 -2 2 -2 2 -2 2 -2 2 -2 1 -2 1 -2 1 -2 1 -2 1 -2 1 -3 1 -3 1 -3 1 -3 0 -3 0 -3 0 -3 0 -3 0 -3 0 -3 0 -3 0 -3 -1 -3 -1 -3 -1 -2 -1 -2 -1 -2 -1 -2 -1 -2 -1 -2 -1 -2 -2 -2 -2 -2 -2 -2 -2 -2 -2 -2 -2 -2 -2 -1 -2 -1 -2 -1 -2 -1 -2 -1 -2 -1 -2 -1 -3 -1 -3 0 -3 0 -3 0 -3 0 -3zm884 -826l-791 861 -79 -71 791 -861 93 36 -14 36zm0 0l-79 -71 2 -2 2 -2 2 -2 2 -2 2 -2 2 -1 2 -1 2 -1 2 -1 2 -1 2 -1 3 -1 3 -1 3 0 3 0 3 0 3 0 3 0 3 0 3 0 3 0 3 1 3 1 2 1 2 1 2 1 2 1 2 1 2 1 2 2 2 2 2 2 2 2 2 2 2 2 2 2 2 2 1 2 1 2 1 2 1 2 1 2 1 2 1 2 1 2 0 3 0 3 0 3 0 3 0 3 0 3 0 3 0 3 -1 3 -1 2 -1 2 -1 2 -1 2 -1 2 -1 2 -1 2 -2 2 -2 2 -2 2z"/>
   </g>
   <polygon class="fil2 str3" points="5242,7981 5242,5155 7945,5155 7945,7981 "/>
   <g>
    <path class="fil10" d="M8735 4428l-2702 0 0 -107 2702 0 37 92 -37 15zm0 0l0 -107 3 0 3 0 3 0 3 0 3 1 3 1 2 1 2 1 2 1 2 1 2 1 2 1 2 2 2 2 2 2 2 2 2 2 2 2 2 2 1 2 1 2 1 2 1 2 1 2 1 2 1 3 1 3 1 3 0 3 0 3 0 3 0 3 0 3 0 3 0 3 0 3 -1 3 -1 3 -1 3 -1 2 -1 2 -1 2 -1 2 -1 2 -1 2 -2 2 -2 2 -2 2 -2 2 -2 2 -2 2 -2 2 -2 1 -2 1 -2 1 -2 1 -2 1 -2 1 -3 1 -3 1 -3 0 -3 0 -3 0 -3 0zm-828 689l791 -781 74 77 -791 781 -37 15 -37 -92zm0 0l74 77 -2 2 -2 2 -2 2 -2 2 -2 1 -2 1 -2 1 -2 1 -2 1 -2 1 -2 1 -3 1 -3 0 -3 0 -3 0 -3 0 -3 0 -3 0 -3 0 -3 0 -2 -1 -2 -1 -2 -1 -2 -1 -2 -1 -2 -1 -2 -1 -2 -1 -2 -2 -2 -2 -2 -2 -2 -2 -2 -2 -2 -2 -2 -2 -1 -2 -1 -2 -1 -2 -1 -2 -1 -2 -1 -2 -1 -2 -1 -3 -1 -3 0 -3 0 -3 0 -3 0 -3 0 -3 0 -3 0 -3 0 -3 1 -3 1 -2 1 -2 1 -2 1 -2 1 -2 1 -2 1 -2 2 -2 2 -2 2 -2 2 -2zm-2665 -15l2702 0 0 107 -2702 0 -37 -92 37 -15zm0 0l0 107 -3 0 -3 0 -3 0 -3 0 -3 -1 -3 -1 -2 -1 -2 -1 -2 -1 -2 -1 -2 -1 -2 -1 -2 -2 -2 -2 -2 -2 -2 -2 -2 -2 -2 -2 -2 -2 -1 -2 -1 -2 -1 -2 -1 -2 -1 -2 -1 -2 -1 -3 -1 -3 -1 -3 0 -3 0 -3 0 -3 0 -3 0 -3 0 -3 0 -3 0 -3 1 -3 1 -3 1 -3 1 -2 1 -2 1 -2 1 -2 1 -2 1 -2 2 -2 2 -2 2 -2 2 -2 2 -2 2 -2 2 -2 2 -1 2 -1 2 -1 2 -1 2 -1 2 -1 3 -1 3 -1 3 0 3 0 3 0 3 0zm828 -689l-791 781 -74 -77 791 -781 37 -15 37 92zm0 0l-74 -77 2 -2 2 -2 2 -2 2 -2 2 -1 2 -1 2 -1 2 -1 2 -1 2 -1 2 -1 3 -1 3 0 3 0 3 0 3 0 3 0 3 0 3 0 3 0 2 1 2 1 2 1 2 1 2 1 2 1 2 1 2 1 2 2 2 2 2 2 2 2 2 2 2 2 2 2 1 2 1 2 1 2 1 2 1 2 1 2 1 2 1 3 1 3 0 3 0 3 0 3 0 3 0 3 0 3 0 3 0 3 -1 3 -1 2 -1 2 -1 2 -1 2 -1 2 -1 2 -1 2 -2 2 -2 2 -2 2 -2 2z"/>
   </g>
   <path class="fil11" d="M8320 5006c-2,-62 33,-113 78,-115 45,-2 82,46 83,108 13,522 236,837 472,1170l0 0 0 0c2,2 3,5 5,7 123,176 198,343 183,480 -16,155 -121,252 -355,258l0 -224c134,-2 191,-27 195,-65 6,-60 -49,-166 -139,-293 -1,-1 -2,-3 -4,-5l0 0 0 0 -1 -1 0 0c-258,-365 -502,-710 -518,-1319z"/>
   <path class="fil12" d="M8487 4890c48,0 86,75 86,167 0,92 -39,167 -86,167 -48,0 -86,-75 -86,-167 0,-92 39,-167 86,-167z"/>
   <path class="fil5 str6" d="M5026 16851l-75 0 0 -97 133 0c12,0 23,-7 23,-23 0,-16 -11,-23 -23,-23l-156 0c-18,0 -25,11 -25,24l0 316c0,12 7,24 25,24l99 0c67,0 100,-44 100,-101l0 -23c0,-58 -33,-96 -100,-96zm51 124c0,31 -14,49 -50,49l-76 0 0 -129 75 0c36,0 51,18 51,49l0 31zm305 -273c-70,0 -100,59 -100,116l0 37 -47 0 0 -129c0,-12 -5,-24 -23,-24 -17,0 -23,11 -23,24l0 326c0,12 7,24 23,24 17,0 23,-11 23,-24l0 -150 47 0 0 69c0,57 30,105 96,105l28 0c66,0 99,-47 99,-104l0 -166c0,-57 -33,-104 -99,-104l-23 0zm73 270c0,32 -14,57 -50,57l-25 0c-36,0 -50,-25 -50,-57l0 -151c0,-32 14,-73 51,-73l23 0c35,0 50,25 50,55l0 169zm185 33c4,-30 31,-252 31,-252l91 0 0 298c0,12 7,24 25,24 17,0 24,-11 24,-24l0 -321c0,-12 -7,-24 -24,-24l-136 0c-15,0 -23,10 -25,24 -2,15 -30,242 -32,263 -2,12 -3,20 -6,25 -5,10 -14,12 -29,12 -12,0 -24,8 -24,24 0,18 11,23 24,23 45,0 64,-15 74,-41 4,-10 6,-19 7,-33zm322 0c4,-30 31,-252 31,-252l91 0 0 298c0,12 7,24 25,24 17,0 24,-11 24,-24l0 -321c0,-12 -7,-24 -24,-24l-136 0c-15,0 -23,10 -25,24 -2,15 -30,242 -32,263 -2,12 -3,20 -6,25 -5,10 -14,12 -29,12 -12,0 -24,8 -24,24 0,18 11,23 24,23 45,0 64,-15 74,-41 4,-10 6,-19 7,-33zm441 66c12,0 23,-7 23,-23 0,-16 -11,-23 -23,-23l-142 0 0 -117 117 0c12,0 23,-7 23,-23 0,-16 -11,-23 -23,-23l-117 0 0 -107 142 0c12,0 23,-7 23,-23 0,-16 -11,-23 -23,-23l-167 0c-17,0 -24,11 -24,24l0 316c0,12 7,24 24,24l167 0zm174 5c17,0 24,-11 24,-24l0 -298 76 0c12,0 23,-7 23,-23 0,-16 -11,-23 -23,-23l-201 0c-12,0 -23,8 -23,23 0,17 11,23 23,23l76 0 0 298c0,12 7,24 24,24zm360 -5c12,0 23,-7 23,-23 0,-16 -11,-23 -23,-23l-142 0 0 -117 117 0c12,0 23,-7 23,-23 0,-16 -11,-23 -23,-23l-117 0 0 -107 142 0c12,0 23,-7 23,-23 0,-16 -11,-23 -23,-23l-167 0c-17,0 -24,11 -24,24l0 316c0,12 7,24 24,24l167 0zm316 -345c0,-12 -8,-24 -24,-24 -17,0 -24,11 -24,24l0 129 -137 0 0 -129c0,-12 -7,-24 -24,-24 -17,0 -24,11 -24,24l0 326c0,12 8,24 24,24 17,0 24,-11 24,-24l0 -150 137 0 0 150c0,12 7,24 24,24 17,0 24,-11 24,-24l0 -326zm266 326c0,12 7,24 23,24 18,0 24,-11 24,-24l0 -326c0,-12 -7,-24 -25,-24 -10,0 -17,4 -24,18l-139 247 -1 0c1,-9 2,-22 2,-36l0 -205c0,-12 -7,-24 -23,-24 -18,0 -24,11 -24,24l0 326c0,12 7,24 25,24 10,0 17,-4 24,-18l139 -247 1 0c-1,9 -2,22 -2,36l0 205zm109 80c0,16 9,21 18,21 12,0 17,-8 19,-18l16 -81c5,-26 -3,-40 -25,-40 -22,0 -27,15 -27,30l0 88zm437 -80c0,12 7,24 23,24 18,0 24,-11 24,-24l0 -326c0,-12 -7,-24 -25,-24 -10,0 -17,4 -24,18l-139 247 -1 0c1,-9 2,-22 2,-36l0 -205c0,-12 -7,-24 -23,-24 -18,0 -24,11 -24,24l0 326c0,12 7,24 25,24 10,0 17,-4 24,-18l139 -247 1 0c-1,9 -2,22 -2,36l0 205zm279 -255c0,31 -22,60 -57,60l-19 0c-12,0 -23,8 -23,23 0,17 11,23 23,23l38 0c36,0 50,29 50,60l0 12c0,32 -11,54 -50,54l-39 0c-20,0 -40,-9 -42,-31 -1,-12 -7,-24 -24,-24 -18,0 -25,11 -25,24 0,49 37,77 90,77l43 0c63,0 96,-43 96,-100l0 -12c0,-43 -20,-81 -60,-90 35,-16 48,-44 48,-76 0,-57 -28,-96 -97,-96l-23 0c-53,0 -89,27 -89,77 0,12 7,24 25,24 17,0 23,-11 24,-24 1,-21 22,-31 44,-31l19 0c35,0 48,15 48,49zm174 111l85 0c36,0 50,23 50,55l0 11c0,31 -14,49 -50,49l-85 0 0 -115zm0 -46l0 -109 63 0c35,0 50,12 50,44l0 12c0,31 -15,53 -50,53l-63 0zm184 101c0,-43 -19,-73 -58,-85 23,-14 35,-37 35,-69l0 -12c0,-58 -33,-90 -99,-90l-87 0c-18,0 -25,11 -25,24l0 316c0,12 7,24 25,24l109 0c66,0 99,-37 99,-96l0 -11zm128 42c4,-30 31,-252 31,-252l91 0 0 298c0,12 7,24 25,24 17,0 24,-11 24,-24l0 -321c0,-12 -7,-24 -24,-24l-136 0c-15,0 -23,10 -25,24 -2,15 -30,242 -32,263 -2,12 -3,20 -6,25 -5,10 -14,12 -29,12 -12,0 -24,8 -24,24 0,18 11,23 24,23 45,0 64,-15 74,-41 4,-10 6,-19 7,-33zm441 66c12,0 23,-7 23,-23 0,-16 -11,-23 -23,-23l-142 0 0 -117 117 0c12,0 23,-7 23,-23 0,-16 -11,-23 -23,-23l-117 0 0 -107 142 0c12,0 23,-7 23,-23 0,-16 -11,-23 -23,-23l-167 0c-17,0 -24,11 -24,24l0 316c0,12 7,24 24,24l167 0zm177 -154l66 0 0 135c0,12 7,24 24,24 17,0 24,-11 24,-24l0 -326c0,-12 -8,-24 -24,-24 -17,0 -24,11 -24,24l0 144c0,0 -53,0 -74,0 -31,0 -46,-20 -46,-45 0,-22 0,-99 0,-99 0,-12 -7,-24 -24,-24 -17,0 -24,11 -24,24l0 94c0,56 25,97 103,97zm385 154c12,0 23,-7 23,-23 0,-16 -11,-23 -23,-23l-142 0 0 -117 117 0c12,0 23,-7 23,-23 0,-16 -11,-23 -23,-23l-117 0 0 -107 142 0c12,0 23,-7 23,-23 0,-16 -11,-23 -23,-23l-167 0c-17,0 -24,11 -24,24l0 316c0,12 7,24 24,24l167 0zm316 -345c0,-12 -8,-24 -24,-24 -17,0 -24,11 -24,24l0 129 -137 0 0 -129c0,-12 -7,-24 -24,-24 -17,0 -24,11 -24,24l0 326c0,12 8,24 24,24 17,0 24,-11 24,-24l0 -150 137 0 0 150c0,12 7,24 24,24 17,0 24,-11 24,-24l0 -326zm313 0c0,-12 -8,-24 -24,-24 -17,0 -24,11 -24,24l0 129 -137 0 0 -129c0,-12 -7,-24 -24,-24 -17,0 -24,11 -24,24l0 326c0,12 8,24 24,24 17,0 24,-11 24,-24l0 -150 137 0 0 150c0,12 7,24 24,24 17,0 24,-11 24,-24l0 -326zm385 326l0 -326c0,-12 -7,-24 -24,-24 -17,0 -24,11 -24,24l0 326c0,12 7,24 24,24 17,0 24,-11 24,-24zm-193 -204l-64 0 0 -122c0,-12 -7,-24 -24,-24 -17,0 -24,11 -24,24l0 321c0,12 7,24 25,24l88 0c67,0 100,-44 100,-101l0 -23c0,-58 -31,-99 -100,-99zm51 127c0,31 -14,49 -50,49l-66 0 0 -129 64 0c36,0 51,18 51,49l0 31zm412 96c12,0 23,-7 23,-23 0,-16 -11,-23 -23,-23l-142 0 0 -117 117 0c12,0 23,-7 23,-23 0,-16 -11,-23 -23,-23l-117 0 0 -107 142 0c12,0 23,-7 23,-23 0,-16 -11,-23 -23,-23l-167 0c-17,0 -24,11 -24,24l0 316c0,12 7,24 24,24l167 0zm407 -19c0,12 7,24 23,24 18,0 24,-11 24,-24l0 -326c0,-12 -7,-24 -25,-24 -10,0 -17,4 -24,18l-139 247 -1 0c1,-9 2,-22 2,-36l0 -205c0,-12 -7,-24 -23,-24 -18,0 -24,11 -24,24l0 326c0,12 7,24 25,24 10,0 17,-4 24,-18l139 -247 1 0c-1,9 -2,22 -2,36l0 205zm279 -255c0,31 -22,60 -57,60l-19 0c-12,0 -23,8 -23,23 0,17 11,23 23,23l38 0c36,0 50,29 50,60l0 12c0,32 -11,54 -50,54l-39 0c-20,0 -40,-9 -42,-31 -1,-12 -7,-24 -24,-24 -18,0 -25,11 -25,24 0,49 37,77 90,77l43 0c63,0 96,-43 96,-100l0 -12c0,-43 -20,-81 -60,-90 35,-16 48,-44 48,-76 0,-57 -28,-96 -97,-96l-23 0c-53,0 -89,27 -89,77 0,12 7,24 25,24 17,0 23,-11 24,-24 1,-21 22,-31 44,-31l19 0c35,0 48,15 48,49zm439 -44l0 298c0,12 7,24 24,24 17,0 24,-11 24,-24l0 -321c0,-12 -8,-24 -24,-24l-175 0c-17,0 -24,11 -24,24l0 321c0,12 8,24 24,24 17,0 24,-11 24,-24l0 -298 126 0zm319 317c12,0 23,-7 23,-23 0,-16 -11,-23 -23,-23l-142 0 0 -117 117 0c12,0 23,-7 23,-23 0,-16 -11,-23 -23,-23l-117 0 0 -107 142 0c12,0 23,-7 23,-23 0,-16 -11,-23 -23,-23l-167 0c-17,0 -24,11 -24,24l0 316c0,12 7,24 24,24l167 0zm130 -188l0 -129 81 0c36,0 51,18 51,49l0 26c0,32 -15,54 -51,54l-81 0zm81 47c67,0 100,-44 100,-101l0 -26c0,-58 -33,-96 -100,-96l-106 0c-17,0 -24,11 -24,24l0 321c0,12 7,24 24,24 17,0 24,-11 24,-24l0 -123 81 0zm352 141c12,0 23,-7 23,-23 0,-16 -11,-23 -23,-23l-142 0 0 -117 117 0c12,0 23,-7 23,-23 0,-16 -11,-23 -23,-23l-117 0 0 -107 142 0c12,0 23,-7 23,-23 0,-16 -11,-23 -23,-23l-167 0c-17,0 -24,11 -24,24l0 316c0,12 7,24 24,24l167 0zm316 -345c0,-12 -8,-24 -24,-24 -17,0 -24,11 -24,24l0 129 -137 0 0 -129c0,-12 -7,-24 -24,-24 -17,0 -24,11 -24,24l0 326c0,12 8,24 24,24 17,0 24,-11 24,-24l0 -150 137 0 0 150c0,12 7,24 24,24 17,0 24,-11 24,-24l0 -326zm123 80c0,-32 14,-57 50,-57l42 0c36,0 50,25 50,57l0 166c0,32 -14,57 -50,57l-42 0c-36,0 -50,-25 -50,-57l0 -166zm190 0c0,-57 -33,-104 -99,-104l-42 0c-66,0 -99,47 -99,104l0 166c0,57 33,104 99,104l42 0c66,0 99,-47 99,-104l0 -166zm167 224c-36,0 -50,-25 -50,-57l0 -166c0,-32 14,-57 50,-57l53 0c22,0 34,9 36,31 1,12 7,24 24,24 18,0 25,-11 25,-24 0,-54 -32,-77 -85,-77l-53 0c-66,0 -99,47 -99,104l0 166c0,57 33,104 99,104l53 0c53,0 85,-23 85,-77 0,-12 -7,-24 -25,-24 -17,0 -23,11 -24,24 -2,22 -14,31 -36,31l-53 0zm434 -304c0,-12 -8,-24 -24,-24 -17,0 -24,11 -24,24l0 129 -137 0 0 -129c0,-12 -7,-24 -24,-24 -17,0 -24,11 -24,24l0 326c0,12 8,24 24,24 17,0 24,-11 24,-24l0 -150 137 0 0 150c0,12 7,24 24,24 17,0 24,-11 24,-24l0 -326zm385 326l0 -326c0,-12 -7,-24 -24,-24 -17,0 -24,11 -24,24l0 326c0,12 7,24 24,24 17,0 24,-11 24,-24zm-193 -204l-64 0 0 -122c0,-12 -7,-24 -24,-24 -17,0 -24,11 -24,24l0 321c0,12 7,24 25,24l88 0c67,0 100,-44 100,-101l0 -23c0,-58 -31,-99 -100,-99zm51 127c0,31 -14,49 -50,49l-66 0 0 -129 64 0c36,0 51,18 51,49l0 31zm319 -139l-66 -120c-7,-12 -18,-18 -33,-10 -15,8 -15,22 -10,31l81 143 -90 161c-5,9 -5,23 10,31 15,8 26,2 33,-10l75 -137 75 137c7,12 18,18 33,10 15,-8 15,-22 10,-31l-90 -161 81 -143c5,-9 5,-23 -10,-31 -15,-8 -26,-2 -33,10l-66 120zm-11794 885c0,12 7,24 23,24 18,0 24,-11 24,-24l0 -326c0,-12 -7,-24 -25,-24 -10,0 -17,4 -24,18l-139 247 -1 0c1,-9 2,-22 2,-36l0 -205c0,-12 -7,-24 -23,-24 -18,0 -24,11 -24,24l0 326c0,12 7,24 25,24 10,0 17,-4 24,-18l139 -247 1 0c-1,9 -2,22 -2,36l0 205zm360 -23c-36,0 -50,-25 -50,-57l0 -166c0,-32 14,-57 50,-57l53 0c22,0 34,9 36,31 1,12 7,24 24,24 18,0 25,-11 25,-24 0,-54 -32,-77 -85,-77l-53 0c-66,0 -99,47 -99,104l0 166c0,57 33,104 99,104l53 0c53,0 85,-23 85,-77 0,-12 -7,-24 -25,-24 -17,0 -23,11 -24,24 -2,22 -14,31 -36,31l-53 0zm290 47c17,0 24,-11 24,-24l0 -298 76 0c12,0 23,-7 23,-23 0,-16 -11,-23 -23,-23l-201 0c-12,0 -23,8 -23,23 0,17 11,23 23,23l76 0 0 298c0,12 7,24 24,24zm296 -108l29 91c4,12 16,20 30,15 14,-5 19,-17 15,-30l-105 -325c-4,-11 -10,-18 -24,-18l-3 0c-15,0 -21,6 -24,18l-105 325c-4,12 2,25 15,30 14,5 26,-3 30,-15l29 -91 113 0zm-64 -157c4,-11 5,-17 8,-30l1 0c3,12 4,18 8,30l35 113 -87 0 35 -113zm362 259c9,0 20,-1 27,-1l-30 51c-3,4 -4,9 -4,14 0,9 9,24 25,24 9,0 16,-6 21,-14l49 -86c2,-3 3,-7 3,-11 0,-17 -11,-23 -23,-23l-21 0 0 -298c0,-12 -8,-24 -24,-24 -18,0 -24,11 -24,24l0 298 -126 0 0 -298c0,-12 -7,-24 -24,-24 -17,0 -24,11 -24,24l0 321c0,12 8,24 24,24l152 0zm329 -19c0,12 7,24 23,24 18,0 24,-11 24,-24l0 -326c0,-12 -7,-24 -25,-24 -10,0 -17,4 -24,18l-139 247 -1 0c1,-9 2,-22 2,-36l0 -205c0,-12 -7,-24 -23,-24 -18,0 -24,11 -24,24l0 326c0,12 7,24 25,24 10,0 17,-4 24,-18l139 -247 1 0c-1,9 -2,22 -2,36l0 205zm171 -246c0,-32 14,-57 50,-57l42 0c36,0 50,25 50,57l0 166c0,32 -14,57 -50,57l-42 0c-36,0 -50,-25 -50,-57l0 -166zm190 0c0,-57 -33,-104 -99,-104l-42 0c-66,0 -99,47 -99,104l0 166c0,57 33,104 99,104l42 0c66,0 99,-47 99,-104l0 -166zm308 -80c0,-12 -8,-24 -24,-24 -17,0 -24,11 -24,24l0 129 -137 0 0 -129c0,-12 -7,-24 -24,-24 -17,0 -24,11 -24,24l0 326c0,12 8,24 24,24 17,0 24,-11 24,-24l0 -150 137 0 0 150c0,12 7,24 24,24 17,0 24,-11 24,-24l0 -326zm234 243l29 91c4,12 16,20 30,15 14,-5 19,-17 15,-30l-105 -325c-4,-11 -10,-18 -24,-18l-3 0c-15,0 -21,6 -24,18l-105 325c-4,12 2,25 15,30 14,5 26,-3 30,-15l29 -91 113 0zm-64 -157c4,-11 5,-17 8,-30l1 0c3,12 4,18 8,30l35 113 -87 0 35 -113zm235 71l0 -129 81 0c36,0 51,18 51,49l0 26c0,32 -15,54 -51,54l-81 0zm81 47c67,0 100,-44 100,-101l0 -26c0,-58 -33,-96 -100,-96l-106 0c-17,0 -24,11 -24,24l0 321c0,12 7,24 24,24 17,0 24,-11 24,-24l0 -123 81 0zm396 -204c0,-12 -8,-24 -24,-24 -17,0 -24,11 -24,24l0 129 -137 0 0 -129c0,-12 -7,-24 -24,-24 -17,0 -24,11 -24,24l0 326c0,12 8,24 24,24 17,0 24,-11 24,-24l0 -150 137 0 0 150c0,12 7,24 24,24 17,0 24,-11 24,-24l0 -326zm385 326l0 -326c0,-12 -7,-24 -24,-24 -17,0 -24,11 -24,24l0 326c0,12 7,24 24,24 17,0 24,-11 24,-24zm-193 -204l-64 0 0 -122c0,-12 -7,-24 -24,-24 -17,0 -24,11 -24,24l0 321c0,12 7,24 25,24l88 0c67,0 100,-44 100,-101l0 -23c0,-58 -31,-99 -100,-99zm51 127c0,31 -14,49 -50,49l-66 0 0 -129 64 0c36,0 51,18 51,49l0 31zm319 -139l-66 -120c-7,-12 -18,-18 -33,-10 -15,8 -15,22 -10,31l81 143 -90 161c-5,9 -5,23 10,31 15,8 26,2 33,-10l75 -137 75 137c7,12 18,18 33,10 15,-8 15,-22 10,-31l-90 -161 81 -143c5,-9 5,-23 -10,-31 -15,-8 -26,-2 -33,10l-66 120zm299 -19c0,37 22,80 62,97 -4,6 -7,12 -12,26 0,0 -41,91 -46,103 -5,11 -2,25 14,31 16,6 27,-2 32,-14 5,-12 60,-139 60,-139l66 0 0 131c0,12 7,24 24,24 17,0 24,-11 24,-24l0 -321c0,-12 -7,-24 -24,-24l-100 0c-66,0 -101,42 -101,96l0 15zm99 57c-36,0 -50,-25 -50,-57l0 -15c0,-29 15,-49 51,-49l76 0 0 121 -77 0zm475 196c9,0 20,-1 27,-1l-30 51c-3,4 -4,9 -4,14 0,9 9,24 25,24 9,0 16,-6 21,-14l49 -86c2,-3 3,-7 3,-11 0,-17 -11,-23 -23,-23l-21 0 0 -298c0,-12 -7,-24 -24,-24 -18,0 -25,11 -25,24l0 298 -87 0 0 -298c0,-13 -8,-24 -24,-24 -15,0 -22,12 -22,24l0 298 -87 0 0 -298c0,-12 -7,-24 -25,-24 -17,0 -24,11 -24,24l0 321c0,12 7,24 24,24l246 0zm329 -19c0,12 7,24 23,24 18,0 24,-11 24,-24l0 -326c0,-12 -7,-24 -25,-24 -10,0 -17,4 -24,18l-139 247 -1 0c1,-9 2,-22 2,-36l0 -205c0,-12 -7,-24 -23,-24 -18,0 -24,11 -24,24l0 326c0,12 7,24 25,24 10,0 17,-4 24,-18l139 -247 1 0c-1,9 -2,22 -2,36l0 205zm359 -15l-112 -159 106 -138c9,-12 9,-25 -1,-34 -12,-11 -28,-6 -36,5l-109 148 -31 0 0 -135c0,-12 -7,-24 -24,-24 -18,0 -25,11 -25,24l0 326c0,12 7,24 25,24 17,0 24,-11 24,-24l0 -145 32 0 112 159c7,10 20,16 34,7 15,-10 14,-24 6,-35zm97 -232c0,-32 14,-57 50,-57l42 0c36,0 50,25 50,57l0 166c0,32 -14,57 -50,57l-42 0c-36,0 -50,-25 -50,-57l0 -166zm190 0c0,-57 -33,-104 -99,-104l-42 0c-66,0 -99,47 -99,104l0 166c0,57 33,104 99,104l42 0c66,0 99,-47 99,-104l0 -166z"/>
   <path class="fil5 str6" d="M8776 17578l85 0c36,0 50,23 50,55l0 11c0,31 -14,49 -50,49l-85 0 0 -115zm0 -46l0 -109 63 0c35,0 50,12 50,44l0 12c0,31 -15,53 -50,53l-63 0zm184 101c0,-43 -19,-73 -58,-85 23,-14 35,-37 35,-69l0 -12c0,-58 -33,-90 -99,-90l-87 0c-18,0 -25,11 -25,24l0 316c0,12 7,24 25,24l109 0c66,0 99,-37 99,-96l0 -11zm440 60l-10 0 0 -293c0,-12 -7,-24 -24,-24l-125 0c-17,0 -24,11 -26,24l-47 293 -16 0c-17,0 -24,11 -24,24l0 67c0,12 7,24 24,24 18,0 25,-11 25,-24l0 -44 198 0 0 44c0,12 7,24 25,24 17,0 24,-11 24,-24l0 -67c0,-12 -7,-24 -24,-24zm-178 -36l36 -234 83 0 0 270 -127 0c4,-13 6,-24 7,-36zm336 17c4,-30 31,-252 31,-252l91 0 0 298c0,12 7,24 25,24 17,0 24,-11 24,-24l0 -321c0,-12 -7,-24 -24,-24l-136 0c-15,0 -23,10 -25,24 -2,15 -30,242 -32,263 -2,12 -3,20 -6,25 -5,10 -14,12 -29,12 -12,0 -24,8 -24,24 0,18 11,23 24,23 45,0 64,-15 74,-41 4,-10 6,-19 7,-33zm232 -188c0,37 22,80 62,97 -4,6 -7,12 -12,26 0,0 -41,91 -46,103 -5,11 -2,25 14,31 16,6 27,-2 32,-14 5,-12 60,-139 60,-139l66 0 0 131c0,12 7,24 24,24 17,0 24,-11 24,-24l0 -321c0,-12 -7,-24 -24,-24l-100 0c-66,0 -101,42 -101,96l0 15zm99 57c-36,0 -50,-25 -50,-57l0 -15c0,-29 15,-49 51,-49l76 0 0 121 -77 0zm372 -167c-19,0 -27,11 -27,24l0 321c0,12 8,24 24,24 17,0 24,-11 24,-24l0 -298 139 0c12,0 23,-7 23,-23 0,-16 -11,-23 -20,-23l-164 0zm274 99c0,-32 14,-57 50,-57l42 0c36,0 50,25 50,57l0 166c0,32 -14,57 -50,57l-42 0c-36,0 -50,-25 -50,-57l0 -166zm190 0c0,-57 -33,-104 -99,-104l-42 0c-66,0 -99,47 -99,104l0 166c0,57 33,104 99,104l42 0c66,0 99,-47 99,-104l0 -166zm136 200c4,-30 31,-252 31,-252l91 0 0 298c0,12 7,24 25,24 17,0 24,-11 24,-24l0 -321c0,-12 -7,-24 -24,-24l-136 0c-15,0 -23,10 -25,24 -2,15 -30,242 -32,263 -2,12 -3,20 -6,25 -5,10 -14,12 -29,12 -12,0 -24,8 -24,24 0,18 11,23 24,23 45,0 64,-15 74,-41 4,-10 6,-19 7,-33zm293 -200c0,-32 14,-57 50,-57l42 0c36,0 50,25 50,57l0 166c0,32 -14,57 -50,57l-42 0c-36,0 -50,-25 -50,-57l0 -166zm190 0c0,-57 -33,-104 -99,-104l-42 0c-66,0 -99,47 -99,104l0 166c0,57 33,104 99,104l42 0c66,0 99,-47 99,-104l0 -166zm167 224c-36,0 -50,-25 -50,-57l0 -166c0,-32 14,-57 50,-57l53 0c22,0 34,9 36,31 1,12 7,24 24,24 18,0 25,-11 25,-24 0,-54 -32,-77 -85,-77l-53 0c-66,0 -99,47 -99,104l0 166c0,57 33,104 99,104l53 0c53,0 85,-23 85,-77 0,-12 -7,-24 -25,-24 -17,0 -23,11 -24,24 -2,22 -14,31 -36,31l-53 0zm243 -224c0,-32 14,-57 50,-57l42 0c36,0 50,25 50,57l0 166c0,32 -14,57 -50,57l-42 0c-36,0 -50,-25 -50,-57l0 -166zm190 0c0,-57 -33,-104 -99,-104l-42 0c-66,0 -99,47 -99,104l0 166c0,57 33,104 99,104l42 0c66,0 99,-47 99,-104l0 -166zm123 103l85 0c36,0 50,23 50,55l0 11c0,31 -14,49 -50,49l-85 0 0 -115zm0 -46l0 -109 63 0c35,0 50,12 50,44l0 12c0,31 -15,53 -50,53l-63 0zm184 101c0,-43 -19,-73 -58,-85 23,-14 35,-37 35,-69l0 -12c0,-58 -33,-90 -99,-90l-87 0c-18,0 -25,11 -25,24l0 316c0,12 7,24 25,24l109 0c66,0 99,-37 99,-96l0 -11zm219 5l29 91c4,12 16,20 30,15 14,-5 19,-17 15,-30l-105 -325c-4,-11 -10,-18 -24,-18l-3 0c-15,0 -21,6 -24,18l-105 325c-4,12 2,25 15,30 14,5 26,-3 30,-15l29 -91 113 0zm-64 -157c4,-11 5,-17 8,-30l1 0c3,12 4,18 8,30l35 113 -87 0 35 -113zm421 -86c0,-12 -8,-24 -24,-24 -17,0 -24,11 -24,24l0 129 -137 0 0 -129c0,-12 -7,-24 -24,-24 -17,0 -24,11 -24,24l0 326c0,12 8,24 24,24 17,0 24,-11 24,-24l0 -150 137 0 0 150c0,12 7,24 24,24 17,0 24,-11 24,-24l0 -326zm266 326c0,12 7,24 23,24 18,0 24,-11 24,-24l0 -326c0,-12 -7,-24 -25,-24 -10,0 -17,4 -24,18l-139 247 -1 0c1,-9 2,-22 2,-36l0 -205c0,-12 -7,-24 -23,-24 -18,0 -24,11 -24,24l0 326c0,12 7,24 25,24 10,0 17,-4 24,-18l139 -247 1 0c-1,9 -2,22 -2,36l0 205zm109 -235c0,37 22,80 62,97 -4,6 -7,12 -12,26 0,0 -41,91 -46,103 -5,11 -2,25 14,31 16,6 27,-2 32,-14 5,-12 60,-139 60,-139l66 0 0 131c0,12 7,24 24,24 17,0 24,-11 24,-24l0 -321c0,-12 -7,-24 -24,-24l-100 0c-66,0 -101,42 -101,96l0 15zm99 57c-36,0 -50,-25 -50,-57l0 -15c0,-29 15,-49 51,-49l76 0 0 121 -77 0zm438 155c-36,0 -50,-25 -50,-57l0 -166c0,-32 14,-57 50,-57l53 0c22,0 34,9 36,31 1,12 7,24 24,24 18,0 25,-11 25,-24 0,-54 -32,-77 -85,-77l-53 0c-66,0 -99,47 -99,104l0 166c0,57 33,104 99,104l53 0c53,0 85,-23 85,-77 0,-12 -7,-24 -25,-24 -17,0 -23,11 -24,24 -2,22 -14,31 -36,31l-53 0zm342 -121c-3,-10 -7,-20 -12,-30l-81 -160c-7,-15 -14,-18 -24,-18 -17,0 -24,11 -24,24l0 326c0,12 7,24 24,24 17,0 24,-11 24,-24l0 -201c0,-14 -1,-27 -2,-36l1 0 74 145c4,7 9,12 21,12 12,0 18,-5 21,-12l74 -145 1 0c-1,9 -2,22 -2,36l0 201c0,12 7,24 24,24 17,0 24,-11 24,-24l0 -326c0,-12 -7,-24 -24,-24 -11,0 -17,3 -24,18l-81 160c-5,10 -9,20 -12,30zm412 162c12,0 23,-7 23,-23 0,-16 -11,-23 -23,-23l-142 0 0 -117 117 0c12,0 23,-7 23,-23 0,-16 -11,-23 -23,-23l-117 0 0 -107 142 0c12,0 23,-7 23,-23 0,-16 -11,-23 -23,-23l-167 0c-17,0 -24,11 -24,24l0 316c0,12 7,24 24,24l167 0zm375 -369c-18,0 -25,11 -25,24l0 298 -87 0 0 -298c0,-13 -8,-24 -24,-24 -15,0 -22,12 -22,24l0 298 -87 0 0 -298c0,-12 -7,-24 -25,-24 -17,0 -24,11 -24,24l0 321c0,12 7,24 24,24l270 0c17,0 24,-11 24,-24l0 -321c0,-12 -7,-24 -24,-24zm290 350c0,12 7,24 23,24 18,0 24,-11 24,-24l0 -326c0,-12 -7,-24 -25,-24 -10,0 -17,4 -24,18l-139 247 -1 0c1,-9 2,-22 2,-36l0 -205c0,-12 -7,-24 -23,-24 -18,0 -24,11 -24,24l0 326c0,12 7,24 25,24 10,0 17,-4 24,-18l139 -247 1 0c-1,9 -2,22 -2,36l0 205zm176 -143l85 0c36,0 50,23 50,55l0 11c0,31 -14,49 -50,49l-85 0 0 -115zm0 -46l0 -109 63 0c35,0 50,12 50,44l0 12c0,31 -15,53 -50,53l-63 0zm184 101c0,-43 -19,-73 -58,-85 23,-14 35,-37 35,-69l0 -12c0,-58 -33,-90 -99,-90l-87 0c-18,0 -25,11 -25,24l0 316c0,12 7,24 25,24l109 0c66,0 99,-37 99,-96l0 -11zm219 5l29 91c4,12 16,20 30,15 14,-5 19,-17 15,-30l-105 -325c-4,-11 -10,-18 -24,-18l-3 0c-15,0 -21,6 -24,18l-105 325c-4,12 2,25 15,30 14,5 26,-3 30,-15l29 -91 113 0zm-64 -157c4,-11 5,-17 8,-30l1 0c3,12 4,18 8,30l35 113 -87 0 35 -113zm379 -110c-70,0 -100,59 -100,116l0 37 -47 0 0 -129c0,-12 -5,-24 -23,-24 -17,0 -23,11 -23,24l0 326c0,12 7,24 23,24 17,0 23,-11 23,-24l0 -150 47 0 0 69c0,57 30,105 96,105l28 0c66,0 99,-47 99,-104l0 -166c0,-57 -33,-104 -99,-104l-23 0zm73 270c0,32 -14,57 -50,57l-25 0c-36,0 -50,-25 -50,-57l0 -151c0,-32 14,-73 51,-73l23 0c35,0 50,25 50,55l0 169zm200 104c17,0 24,-11 24,-24l0 -298 76 0c12,0 23,-7 23,-23 0,-16 -11,-23 -23,-23l-201 0c-12,0 -23,8 -23,23 0,17 11,23 23,23l76 0 0 298c0,12 7,24 24,24zm250 -47c-36,0 -50,-25 -50,-57l0 -166c0,-32 14,-57 50,-57l53 0c22,0 34,9 36,31 1,12 7,24 24,24 18,0 25,-11 25,-24 0,-54 -32,-77 -85,-77l-53 0c-66,0 -99,47 -99,104l0 166c0,57 33,104 99,104l53 0c53,0 85,-23 85,-77 0,-12 -7,-24 -25,-24 -17,0 -23,11 -24,24 -2,22 -14,31 -36,31l-53 0zm182 -212c0,37 22,80 62,97 -4,6 -7,12 -12,26 0,0 -41,91 -46,103 -5,11 -2,25 14,31 16,6 27,-2 32,-14 5,-12 60,-139 60,-139l66 0 0 131c0,12 7,24 24,24 17,0 24,-11 24,-24l0 -321c0,-12 -7,-24 -24,-24l-100 0c-66,0 -101,42 -101,96l0 15zm99 57c-36,0 -50,-25 -50,-57l0 -15c0,-29 15,-49 51,-49l76 0 0 121 -77 0z"/>
   <polygon class="fil16 str7" points="13749,4653 12328,4653 12328,6509 13749,6509 "/>
   <polygon class="fil16 str7" points="13365,5426 13365,3471 12800,4043 12800,5998 "/>
   <polygon class="fil16 str7" points="12338,4582 10955,5964 11759,5959 13142,4577 "/>
   <polygon class="fil16 str7" points="10631,4939 10631,6360 12487,6360 12487,4939 "/>
   <polygon class="fil16 str7" points="12145,7179 10762,5797 11566,5802 12948,7184 "/>
   <polygon class="fil16 str7" points="11265,6784 13220,6784 12648,7349 10693,7349 "/>
   <polygon class="fil17 str8" points="12328,4939 12328,6509 12618,6509 12618,4939 "/>
   <polygon class="fil17 str8" points="11981,4939 10955,5964 11759,5959 12618,5100 12618,4939 "/>
   <polygon class="fil17 str8" points="10179,5391 10179,6812 12035,6812 12035,5391 "/>
   <polygon class="fil17 str8" points="11265,6784 12618,6784 12618,7349 10693,7349 "/>
   <polygon class="fil17 str8" points="12145,7179 10762,5797 11566,5802 12618,6854 12618,7182 "/>
   <path class="fil14" d="M12832 3889c-27,26 -23,43 11,50 -38,9 -65,22 -85,41l-11 11c-37,36 -18,54 57,54l69 0c20,0 36,-7 43,-15l200 -195c8,-8 7,-15 -13,-15l-89 0c-75,0 -134,22 -171,57l-11 10zm140 32l-61 0c-41,0 -44,-13 -23,-32l11 -10c20,-19 45,-29 86,-29l61 0 -73 71zm-29 28l-69 67 -42 0c-40,0 -50,-6 -31,-25l11 -11c20,-19 48,-31 89,-31l42 0zm-345 9l41 0 -77 75c-8,8 -7,15 13,15 19,0 35,-7 43,-15l203 -198c8,-8 7,-15 -12,-15l-69 0c-75,0 -131,22 -168,57l-20 19c-36,35 -28,61 47,61zm70 -29l-41 0c-41,0 -42,-12 -22,-32l20 -19c20,-19 44,-29 84,-29l41 0 -82 80zm-148 -97l-206 202c-8,8 -7,15 12,15 19,0 35,-7 43,-15l206 -202c8,-8 7,-15 -12,-15 -19,0 -35,7 -43,15zm-321 124l53 0 -61 60 -119 0c-14,0 -30,4 -41,14 -10,10 -2,14 11,14l148 0c19,0 33,-6 42,-14l200 -196c8,-8 6,-15 -13,-15l-81 0c-75,0 -131,22 -168,57l-19 19c-36,35 -27,60 48,60zm25 -78c20,-19 44,-29 84,-29l53 0 -82 80 -53 0c-41,0 -42,-12 -22,-32l20 -20zm-280 108c-20,20 -47,34 -88,34l-18 0c-41,0 -40,-14 -19,-34l108 -106c20,-20 47,-34 88,-34l18 0c41,0 40,14 19,34l-108 106zm-181 0c-36,35 -30,63 45,63l18 0c75,0 137,-27 173,-63l108 -106c36,-35 30,-63 -45,-63l-18 0c-75,0 -137,27 -173,63l-108 106zm-84 -49l-82 80 -60 0c-41,0 -45,-10 -25,-29l20 -19c20,-20 47,-32 87,-32l60 0zm-30 -29c-75,0 -135,25 -171,61l-20 19c-37,36 -25,57 50,57l88 0c19,0 34,-7 42,-15l203 -198c8,-8 7,-15 -13,-15 -19,0 -35,7 -43,15l-78 76 -60 0zm-324 50l41 0 -77 75c-8,8 -7,15 13,15 19,0 35,-7 43,-15l203 -198c8,-8 7,-15 -12,-15l-69 0c-75,0 -131,22 -168,57l-20 19c-36,35 -28,61 47,61zm70 -29l-41 0c-41,0 -42,-12 -22,-32l20 -19c20,-19 44,-29 84,-29l41 0 -82 80zm-148 -97l-206 202c-8,8 -7,15 12,15 19,0 35,-7 43,-15l206 -202c8,-8 7,-15 -12,-15 -19,0 -35,7 -43,15z"/>
   <g>
    <path class="fil9" d="M9394 4899l1862 -1838 84 80 -1862 1838 -42 17 -42 -97zm0 0l84 80 -2 2 -2 2 -2 2 -2 2 -2 2 -3 1 -3 1 -3 1 -3 1 -3 1 -3 1 -3 1 -3 0 -3 0 -3 0 -3 0 -3 0 -3 0 -3 0 -3 0 -3 -1 -3 -1 -3 -1 -3 -1 -3 -1 -3 -1 -3 -1 -2 -1 -2 -2 -2 -2 -2 -2 -2 -2 -2 -2 -2 -2 -2 -2 -2 -2 -2 -2 -1 -2 -1 -2 -1 -3 -1 -3 -1 -3 -1 -3 -1 -3 0 -3 0 -3 0 -3 0 -3 0 -3 0 -3 0 -3 0 -3 1 -3 1 -3 1 -3 1 -3 1 -3 1 -3 1 -2 2 -2 2 -2 2 -2 2 -2 2 -2zm3224 97l-3182 0 0 -114 3182 0 42 97 -42 17zm0 0l0 -114 3 0 3 0 3 0 3 1 3 1 3 1 3 1 3 1 3 1 3 1 2 1 2 1 2 2 2 2 2 2 2 2 2 2 2 2 2 2 2 2 2 2 1 2 1 2 1 3 1 3 1 3 1 3 1 3 1 3 0 3 0 3 0 3 0 3 0 3 0 3 -1 3 -1 3 -1 3 -1 3 -1 3 -1 3 -1 2 -1 2 -2 2 -2 2 -2 2 -2 2 -2 2 -2 2 -2 2 -2 2 -2 2 -2 1 -2 1 -3 1 -3 1 -3 1 -3 1 -3 1 -3 1 -3 1 -3 0 -3 0 -3 0zm1904 -1855l-1862 1838 -84 -80 1862 -1838 42 -17 42 97zm0 0l-84 -80 2 -2 2 -2 2 -2 2 -2 2 -2 3 -1 3 -1 3 -1 3 -1 3 -1 3 -1 3 -1 3 0 3 0 3 0 3 0 3 0 3 0 3 0 3 0 3 1 3 1 3 1 3 1 3 1 3 1 3 1 2 1 2 2 2 2 2 2 2 2 2 2 2 2 2 2 2 2 2 2 1 2 1 2 1 3 1 3 1 3 1 3 1 3 0 3 0 3 0 3 0 3 0 3 0 3 0 3 0 3 -1 3 -1 3 -1 3 -1 3 -1 3 -1 3 -1 2 -2 2 -2 2 -2 2 -2 2 -2 2zm-3224 -97l3182 0 0 114 -3182 0 -42 -97 42 -17zm0 0l0 114 -3 0 -3 0 -3 0 -3 -1 -3 -1 -3 -1 -3 -1 -3 -1 -3 -1 -3 -1 -2 -1 -2 -1 -2 -2 -2 -2 -2 -2 -2 -2 -2 -2 -2 -2 -2 -2 -2 -2 -2 -2 -1 -2 -1 -2 -1 -3 -1 -3 -1 -3 -1 -3 -1 -3 -1 -3 0 -3 0 -3 0 -3 0 -3 0 -3 0 -3 1 -3 1 -3 1 -3 1 -3 1 -3 1 -3 1 -2 1 -2 2 -2 2 -2 2 -2 2 -2 2 -2 2 -2 2 -2 2 -2 2 -2 2 -1 2 -1 3 -1 3 -1 3 -1 3 -1 3 -1 3 -1 3 -1 3 0 3 0 3 0z"/>
   </g>
   <g>
    <path class="fil9" d="M14539 3101l0 3042 -117 0 0 -3042 17 -41 100 41zm0 0l-117 0 0 -3 0 -3 0 -3 1 -3 1 -3 1 -3 1 -3 1 -3 1 -3 1 -3 1 -2 2 -2 2 -2 2 -2 2 -2 2 -2 2 -2 2 -2 2 -2 2 -2 2 -2 2 -1 3 -1 3 -1 3 -1 3 -1 3 -1 3 -1 3 -1 3 0 3 0 3 0 3 0 3 0 3 0 3 1 3 1 3 1 3 1 3 1 3 1 3 1 2 1 2 2 2 2 2 2 2 2 2 2 2 2 2 2 2 2 2 2 2 2 1 2 1 3 1 3 1 3 1 3 1 3 1 3 1 3 0 3 0 3 0 3zm-1962 1797l1862 -1838 83 82 -1862 1838 -100 -41 17 -41zm0 0l83 82 -2 2 -2 2 -2 2 -2 2 -2 2 -3 1 -3 1 -3 1 -3 1 -3 1 -3 1 -3 1 -3 0 -3 0 -3 0 -3 0 -3 0 -3 0 -3 0 -3 0 -3 -1 -3 -1 -3 -1 -3 -1 -3 -1 -3 -1 -3 -1 -2 -2 -2 -2 -2 -2 -2 -2 -2 -2 -2 -2 -2 -2 -2 -2 -2 -2 -2 -2 -1 -3 -1 -3 -1 -3 -1 -3 -1 -3 -1 -3 -1 -3 0 -3 0 -3 0 -3 0 -3 0 -3 0 -3 0 -3 0 -3 1 -3 1 -3 1 -3 1 -3 1 -3 1 -3 1 -3 2 -2 2 -2 2 -2 2 -2 2 -2zm-17 3083l0 -3042 117 0 0 3042 -17 41 -100 -41zm0 0l117 0 0 3 0 3 0 3 -1 3 -1 3 -1 3 -1 3 -1 3 -1 3 -1 3 -1 2 -2 2 -2 2 -2 2 -2 2 -2 2 -2 2 -2 2 -2 2 -2 2 -2 2 -2 1 -3 1 -3 1 -3 1 -3 1 -3 1 -3 1 -3 1 -3 0 -3 0 -3 0 -3 0 -3 0 -3 0 -3 -1 -3 -1 -3 -1 -3 -1 -3 -1 -3 -1 -3 -1 -2 -1 -2 -2 -2 -2 -2 -2 -2 -2 -2 -2 -2 -2 -2 -2 -2 -2 -2 -2 -2 -2 -1 -2 -1 -3 -1 -3 -1 -3 -1 -3 -1 -3 -1 -3 -1 -3 0 -3 0 -3 0 -3zm1962 -1797l-1862 1838 -83 -82 1862 -1838 100 41 -17 41zm0 0l-83 -82 2 -2 2 -2 2 -2 2 -2 2 -2 3 -1 3 -1 3 -1 3 -1 3 -1 3 -1 3 -1 3 0 3 0 3 0 3 0 3 0 3 0 3 0 3 0 3 1 3 1 3 1 3 1 3 1 3 1 3 1 2 2 2 2 2 2 2 2 2 2 2 2 2 2 2 2 2 2 2 2 1 3 1 3 1 3 1 3 1 3 1 3 1 3 0 3 0 3 0 3 0 3 0 3 0 3 0 3 0 3 -1 3 -1 3 -1 3 -1 3 -1 3 -1 3 -1 3 -2 2 -2 2 -2 2 -2 2 -2 2z"/>
   </g>
   <g>
    <path class="fil10" d="M12618 8040l-3182 0 0 -117 3182 0 58 59 -58 59zm0 0l0 -117 3 0 3 0 3 0 3 1 3 1 3 1 3 1 3 1 3 1 3 1 2 1 2 2 2 2 2 2 2 2 2 2 2 2 2 2 2 2 2 2 2 2 1 2 1 3 1 3 1 3 1 3 1 3 1 3 1 3 0 3 0 3 0 3 0 3 0 3 0 3 -1 3 -1 3 -1 3 -1 3 -1 3 -1 3 -1 3 -1 2 -2 2 -2 2 -2 2 -2 2 -2 2 -2 2 -2 2 -2 2 -2 2 -2 2 -2 1 -3 1 -3 1 -3 1 -3 1 -3 1 -3 1 -3 1 -3 0 -3 0 -3 0zm58 -3101l0 3042 -116 0 0 -3042 58 -59 58 59zm0 0l-116 0 0 -3 0 -3 0 -3 1 -3 1 -3 1 -3 1 -3 1 -3 1 -3 1 -3 1 -2 2 -2 2 -2 2 -2 2 -2 2 -2 2 -2 2 -2 2 -2 2 -2 2 -2 2 -1 3 -1 3 -1 3 -1 3 -1 3 -1 3 -1 3 -1 3 0 3 0 3 0 3 0 3 0 3 0 3 1 3 1 3 1 3 1 3 1 3 1 3 1 2 1 2 2 2 2 2 2 2 2 2 2 2 2 2 2 2 2 2 2 2 2 1 2 1 3 1 3 1 3 1 3 1 3 1 3 1 3 0 3 0 3 0 3zm-3240 -59l3182 0 0 117 -3182 0 -58 -59 58 -59zm0 0l0 117 -3 0 -3 0 -3 0 -3 -1 -3 -1 -3 -1 -3 -1 -3 -1 -3 -1 -3 -1 -2 -1 -2 -2 -2 -2 -2 -2 -2 -2 -2 -2 -2 -2 -2 -2 -2 -2 -2 -2 -2 -2 -1 -2 -1 -3 -1 -3 -1 -3 -1 -3 -1 -3 -1 -3 -1 -3 0 -3 0 -3 0 -3 0 -3 0 -3 0 -3 1 -3 1 -3 1 -3 1 -3 1 -3 1 -3 1 -3 1 -2 2 -2 2 -2 2 -2 2 -2 2 -2 2 -2 2 -2 2 -2 2 -2 2 -2 2 -1 3 -1 3 -1 3 -1 3 -1 3 -1 3 -1 3 -1 3 0 3 0 3 0zm-58 3101l0 -3042 116 0 0 3042 -58 59 -58 -59zm0 0l116 0 0 3 0 3 0 3 -1 3 -1 3 -1 3 -1 3 -1 3 -1 3 -1 3 -1 2 -2 2 -2 2 -2 2 -2 2 -2 2 -2 2 -2 2 -2 2 -2 2 -2 2 -2 1 -3 1 -3 1 -3 1 -3 1 -3 1 -3 1 -3 1 -3 0 -3 0 -3 0 -3 0 -3 0 -3 0 -3 -1 -3 -1 -3 -1 -3 -1 -3 -1 -3 -1 -3 -1 -2 -1 -2 -2 -2 -2 -2 -2 -2 -2 -2 -2 -2 -2 -2 -2 -2 -2 -2 -2 -2 -2 -1 -2 -1 -3 -1 -3 -1 -3 -1 -3 -1 -3 -1 -3 -1 -3 0 -3 0 -3 0 -3z"/>
   </g>
   <polygon class="fil1 str1" points="6307,15766 9107,15766 9107,11987 6307,11987 "/>
   <polyline class="fil2 str0" points="9558,15356 9558,11577 6758,11577 "/>
   <path class="fil2 str0" d="M9333 15561c0,-979 0,-2800 0,-3779 -653,0 -2147,0 -2800,0"/>
   <path class="fil3" d="M6675 13378l-46 0 0 -96 103 0c12,0 22,-7 22,-23 0,-15 -11,-23 -22,-23l-128 0c-16,0 -24,10 -24,22l0 312c0,12 8,24 24,24l70 0c65,0 95,-34 95,-91l0 -30c0,-56 -30,-95 -95,-95zm48 125c0,31 -12,46 -48,46l-46 0 0 -128 46 0c35,0 48,19 48,51l0 31zm291 -271l-5 0c-68,0 -95,58 -95,114l0 37 -41 0 0 -127c0,-12 -5,-24 -22,-24 -16,0 -23,11 -23,24l0 321c0,12 7,24 23,24 17,0 22,-11 22,-24l0 -148 41 0 0 77c0,56 30,94 95,94l5 0c65,0 95,-43 95,-100l0 -169c0,-56 -30,-100 -95,-100zm47 268c0,32 -11,54 -47,54l-5 0c-35,0 -47,-16 -47,-48l0 -160c0,-32 9,-68 47,-68l5 0c35,0 47,22 47,54l0 169zm179 30c1,-11 17,-247 17,-247l72 0 0 293c0,12 7,24 25,24 16,0 24,-11 24,-24l0 -316c0,-12 -7,-24 -24,-24l-117 0c-16,0 -24,12 -25,24 0,0 -16,252 -17,258 -1,6 -1,16 -4,22 -5,9 -12,15 -25,15 -12,0 -24,8 -24,24 0,17 11,23 24,23 36,0 58,-15 68,-40 4,-9 6,-21 7,-32zm273 0c1,-11 17,-247 17,-247l72 0 0 293c0,12 7,24 25,24 16,0 24,-11 24,-24l0 -316c0,-12 -7,-24 -24,-24l-117 0c-16,0 -24,12 -25,24 0,0 -16,252 -17,258 -1,6 -1,16 -4,22 -5,9 -12,15 -25,15 -12,0 -24,8 -24,24 0,17 11,23 24,23 36,0 58,-15 68,-40 4,-9 6,-21 7,-32zm368 64c12,0 22,-7 22,-23 0,-15 -11,-23 -22,-23l-109 0 0 -115 87 0c12,0 22,-7 22,-23 0,-15 -11,-23 -22,-23l-87 0 0 -105 109 0c12,0 22,-7 22,-23 0,-15 -11,-23 -22,-23l-134 0c-16,0 -24,11 -24,24l0 311c0,12 7,24 24,24l134 0zm130 -18c0,12 7,24 24,24 16,0 24,-11 24,-24l0 -293 59 0c12,0 22,-7 22,-23 0,-15 -11,-23 -22,-23l-166 0c-12,0 -22,8 -22,23 0,16 11,23 22,23l59 0 0 293zm331 18c12,0 22,-7 22,-23 0,-15 -11,-23 -22,-23l-109 0 0 -115 87 0c12,0 22,-7 22,-23 0,-15 -11,-23 -22,-23l-87 0 0 -105 109 0c12,0 22,-7 22,-23 0,-15 -11,-23 -22,-23l-134 0c-16,0 -24,11 -24,24l0 311c0,12 7,24 24,24l134 0zm275 -339c0,-12 -8,-24 -24,-24 -17,0 -24,11 -24,24l0 127 -104 0 0 -127c0,-12 -7,-24 -24,-24 -16,0 -24,11 -24,24l0 321c0,12 8,24 24,24 17,0 24,-11 24,-24l0 -148 104 0 0 148c0,12 7,24 24,24 16,0 24,-11 24,-24l0 -321zm173 120l-52 0 0 -120c0,-12 -7,-24 -24,-24 -17,0 -24,11 -24,24l0 315c0,12 7,24 24,24l76 0c65,0 95,-34 95,-91l0 -31c0,-56 -30,-97 -95,-97zm-52 46l52 0c35,0 48,19 48,51l0 31c0,31 -12,46 -48,46l-52 0 0 -127z"/>
   <path class="fil4 str9" d="M7113 15334c-211,-172 -345,-434 -345,-728 0,-293 134,-555 345,-728m1189 0c211,172 345,434 345,728 0,293 -134,555 -345,728"/>
   <path class="fil13 str10" d="M7498 14073c-11,0 -19,5 -25,11 -34,38 -73,75 -113,113 -13,12 -17,27 -1,43 15,15 30,10 43,-1 25,-21 51,-48 73,-73l0 340 -87 0c-17,0 -31,9 -31,31 0,22 14,31 31,31l226 0c17,0 31,-9 31,-31 0,-22 -14,-31 -31,-31l-73 0 0 -400c0,-18 -6,-33 -30,-33l-12 0zm284 175c0,-70 26,-113 81,-113l24 0c55,0 80,43 80,113l0 152c0,70 -25,113 -80,113l-24 0c-55,0 -81,-43 -81,-113l0 -152zm252 0c0,-107 -50,-175 -146,-175l-24 0c-96,0 -147,68 -147,175l0 152c0,107 50,175 147,175l24 0c96,0 146,-68 146,-175l0 -152z"/>
   <path class="fil5 str11" d="M7696 14884c-21,0 -28,14 -28,29l0 250 -95 0 0 -250c0,-15 -8,-29 -28,-29 -21,0 -28,14 -28,29l0 250 -95 0 0 -250c0,-15 -8,-29 -28,-29 -21,0 -28,14 -28,29l0 275c0,16 8,29 28,29l304 0c20,0 28,-13 28,-29l0 -275c0,-15 -8,-29 -28,-29zm327 6l-208 0c-14,0 -28,6 -28,26 0,19 13,28 28,28l76 0 0 250c0,15 8,29 28,29 20,0 28,-14 28,-29l0 -250 75 0c14,0 28,-8 28,-28 0,-20 -13,-26 -28,-26z"/>
   <polygon class="fil1 str1" points="10696,15766 13496,15766 13496,11987 10696,11987 "/>
   <polyline class="fil2 str0" points="13947,15356 13947,11577 11148,11577 "/>
   <path class="fil2 str0" d="M13722 15561c0,-979 0,-2800 0,-3779 -653,0 -2147,0 -2800,0"/>
   <path class="fil3" d="M11064 13378l-46 0 0 -96 103 0c12,0 22,-7 22,-23 0,-15 -11,-23 -22,-23l-128 0c-16,0 -24,10 -24,22l0 312c0,12 8,24 24,24l70 0c65,0 95,-34 95,-91l0 -30c0,-56 -30,-95 -95,-95zm48 125c0,31 -12,46 -48,46l-46 0 0 -128 46 0c35,0 48,19 48,51l0 31zm291 -271l-5 0c-68,0 -95,58 -95,114l0 37 -41 0 0 -127c0,-12 -5,-24 -22,-24 -16,0 -23,11 -23,24l0 321c0,12 7,24 23,24 17,0 22,-11 22,-24l0 -148 41 0 0 77c0,56 30,94 95,94l5 0c65,0 95,-43 95,-100l0 -169c0,-56 -30,-100 -95,-100zm47 268c0,32 -11,54 -47,54l-5 0c-35,0 -47,-16 -47,-48l0 -160c0,-32 9,-68 47,-68l5 0c35,0 47,22 47,54l0 169zm179 30c1,-11 17,-247 17,-247l72 0 0 293c0,12 7,24 25,24 16,0 24,-11 24,-24l0 -316c0,-12 -7,-24 -24,-24l-117 0c-16,0 -24,12 -25,24 0,0 -16,252 -17,258 -1,6 -1,16 -4,22 -5,9 -12,15 -25,15 -12,0 -24,8 -24,24 0,17 11,23 24,23 36,0 58,-15 68,-40 4,-9 6,-21 7,-32zm273 0c1,-11 17,-247 17,-247l72 0 0 293c0,12 7,24 25,24 16,0 24,-11 24,-24l0 -316c0,-12 -7,-24 -24,-24l-117 0c-16,0 -24,12 -25,24 0,0 -16,252 -17,258 -1,6 -1,16 -4,22 -5,9 -12,15 -25,15 -12,0 -24,8 -24,24 0,17 11,23 24,23 36,0 58,-15 68,-40 4,-9 6,-21 7,-32zm368 64c12,0 22,-7 22,-23 0,-15 -11,-23 -22,-23l-109 0 0 -115 87 0c12,0 22,-7 22,-23 0,-15 -11,-23 -22,-23l-87 0 0 -105 109 0c12,0 22,-7 22,-23 0,-15 -11,-23 -22,-23l-134 0c-16,0 -24,11 -24,24l0 311c0,12 7,24 24,24l134 0zm130 -18c0,12 7,24 24,24 16,0 24,-11 24,-24l0 -293 59 0c12,0 22,-7 22,-23 0,-15 -11,-23 -22,-23l-166 0c-12,0 -22,8 -22,23 0,16 11,23 22,23l59 0 0 293zm331 18c12,0 22,-7 22,-23 0,-15 -11,-23 -22,-23l-109 0 0 -115 87 0c12,0 22,-7 22,-23 0,-15 -11,-23 -22,-23l-87 0 0 -105 109 0c12,0 22,-7 22,-23 0,-15 -11,-23 -22,-23l-134 0c-16,0 -24,11 -24,24l0 311c0,12 7,24 24,24l134 0zm275 -339c0,-12 -8,-24 -24,-24 -17,0 -24,11 -24,24l0 127 -104 0 0 -127c0,-12 -7,-24 -24,-24 -16,0 -24,11 -24,24l0 321c0,12 8,24 24,24 17,0 24,-11 24,-24l0 -148 104 0 0 148c0,12 7,24 24,24 16,0 24,-11 24,-24l0 -321zm173 120l-52 0 0 -120c0,-12 -7,-24 -24,-24 -17,0 -24,11 -24,24l0 315c0,12 7,24 24,24l76 0c65,0 95,-34 95,-91l0 -31c0,-56 -30,-97 -95,-97zm-52 46l52 0c35,0 48,19 48,51l0 31c0,31 -12,46 -48,46l-52 0 0 -127z"/>
   <path class="fil4 str9" d="M11502 15334c-211,-172 -345,-434 -345,-728 0,-293 134,-555 345,-728m1189 0c211,172 345,434 345,728 0,293 -134,555 -345,728"/>
   <path class="fil13 str10" d="M12101 14573c111,-66 147,-155 147,-265l0 -103c0,-80 -45,-132 -136,-132l-41 0c-91,0 -136,48 -136,129l0 35c0,80 45,136 136,136l106 0c-10,57 -42,103 -112,146 -15,9 -26,27 -13,47 13,20 33,18 48,8zm10 -437c50,0 71,25 71,69l0 104 -111 0c-50,0 -71,-28 -71,-73l0 -35c0,-44 21,-66 71,-66l41 0z"/>
   <path class="fil5 str11" d="M12085 14884c-21,0 -28,14 -28,29l0 250 -95 0 0 -250c0,-15 -8,-29 -28,-29 -21,0 -28,14 -28,29l0 250 -95 0 0 -250c0,-15 -8,-29 -28,-29 -21,0 -28,14 -28,29l0 275c0,16 8,29 28,29l304 0c20,0 28,-13 28,-29l0 -275c0,-15 -8,-29 -28,-29zm327 6l-208 0c-14,0 -28,6 -28,26 0,19 13,28 28,28l76 0 0 250c0,15 8,29 28,29 20,0 28,-14 28,-29l0 -250 75 0c14,0 28,-8 28,-28 0,-20 -13,-26 -28,-26z"/>
   <path class="fil13 str4" d="M7097 6571c0,-87 -36,-155 -114,-179 50,-28 78,-75 78,-143l0 -14c0,-121 -68,-189 -205,-189l-56 0c-109,0 -176,46 -176,158 0,27 14,50 50,50 36,0 50,-22 50,-50 0,-44 31,-63 77,-63l56 0c75,0 106,28 106,94l0 14c0,66 -39,114 -115,114l-60 0c-26,0 -47,13 -47,46 0,34 21,46 47,46l107 0c75,0 103,48 103,116l0 35c0,66 -32,104 -106,104l-113 0c-46,0 -77,-19 -77,-63 0,-27 -14,-50 -50,-50 -36,0 -50,22 -50,50 0,112 67,158 176,158l113 0c137,0 205,-78 205,-199l0 -35z"/>
   <path class="fil13" d="M6250 6602c0,18 3,37 4,50l-1 0 -153 -316c-8,-16 -19,-23 -32,-23 -23,0 -33,15 -33,31l0 426c0,16 9,31 32,31 22,0 31,-15 31,-31l0 -258c0,-18 -3,-37 -4,-50l1 0 153 316c8,16 19,23 32,23 23,0 33,-15 33,-31l0 -426c0,-16 -9,-31 -32,-31 -22,0 -31,15 -31,31l0 258zm172 -146c-20,0 -26,-12 -26,-31l0 -34c0,-19 5,-31 26,-31l10 0c20,0 26,12 26,31l0 34c0,19 -5,31 -26,31l-10 0zm11 45c47,0 69,-31 69,-73l0 -41c0,-41 -22,-72 -69,-72l-12 0c-47,0 -69,31 -69,72l0 41c0,41 22,73 69,73l12 0zm47 80c14,0 24,-7 24,-24 0,-18 -10,-24 -24,-24l-105 0c-14,0 -25,7 -25,24 0,18 11,24 25,24l105 0z"/>
   <path class="fil14 str5" d="M6106 7275c0,-33 -14,-54 -43,-64 20,-12 30,-28 30,-53l0 -14c0,-46 -26,-69 -77,-69l-48 0c-14,0 -20,9 -20,19l0 248c0,10 6,19 20,19l61 0c52,0 77,-27 77,-73l0 -13zm-120 -41l42 0c28,0 39,16 39,41l0 13c0,24 -11,36 -39,36l-42 0 0 -90zm0 -36l0 -86 29 0c28,0 39,8 39,32l0 14c0,24 -11,40 -39,40l-29 0zm232 -12l-28 0 0 -96c0,-10 -6,-19 -19,-19 -13,0 -19,9 -19,19l0 251c0,10 6,19 19,19l48 0c52,0 75,-27 75,-73l0 -24c0,-45 -24,-77 -75,-77zm-28 37l28 0c28,0 38,15 38,40l0 24c0,24 -10,37 -38,37l-28 0 0 -101zm171 123l0 -256c0,-10 -5,-19 -19,-19 -13,0 -19,9 -19,19l0 256c0,10 5,19 19,19 13,0 19,-9 19,-19zm134 -158l-37 0 0 -76 82 0c9,0 18,-5 18,-18 0,-12 -9,-18 -18,-18l-102 0c-13,0 -19,8 -19,18l0 248c0,10 6,19 19,19l56 0c52,0 75,-27 75,-73l0 -24c0,-45 -24,-76 -75,-76zm38 99c0,24 -10,37 -38,37l-37 0 0 -102 37 0c28,0 38,15 38,40l0 25zm117 -137c0,-25 9,-43 37,-43l12 0c28,0 37,18 37,43l0 134c0,25 -9,43 -37,43l-12 0c-28,0 -37,-18 -37,-43l0 -134zm125 0c0,-45 -24,-79 -75,-79l-12 0c-52,0 -75,35 -75,79l0 134c0,45 24,79 75,79l12 0c52,0 75,-35 75,-79l0 -134zm93 62l0 -101 41 0c28,0 38,12 38,37l0 24c0,25 -10,40 -38,40l-41 0zm41 37c52,0 75,-32 75,-77l0 -24c0,-46 -24,-73 -75,-73l-61 0c-13,0 -19,9 -19,19l0 252c0,10 6,19 19,19 13,0 19,-9 19,-19l0 -96 41 0zm188 -64l-28 0 0 -96c0,-10 -6,-19 -19,-19 -13,0 -19,9 -19,19l0 251c0,10 6,19 19,19l48 0c52,0 75,-27 75,-73l0 -24c0,-45 -24,-77 -75,-77zm-28 37l28 0c28,0 38,15 38,40l0 24c0,24 -10,37 -38,37l-28 0 0 -101zm171 123l0 -256c0,-10 -5,-19 -19,-19 -13,0 -19,9 -19,19l0 256c0,10 5,19 19,19 13,0 19,-9 19,-19z"/>
   <polygon class="fil17" points="13889,7981 17071,7981 17071,4939 13889,4939 "/>
   <polygon class="fil7" points="18933,6143 18933,3101 17071,4939 17071,7981 "/>
   <polygon class="fil6" points="15751,3101 13889,4939 17071,4939 18933,3101 "/>
   <polygon class="fil7" points="15751,6143 18933,6143 17071,7981 13889,7981 "/>
   <polygon class="fil8" points="17071,6143 17071,7981 18933,6143 "/>
   <g>
    <path class="fil15" d="M15692 6143l118 0 0 3 0 3 0 3 -1 3 -1 3 -1 3 -1 3 -1 3 -1 3 -1 2 -1 2 -2 2 -2 2 -2 2 -2 2 -2 2 -2 2 -2 2 -2 2 -2 2 -2 2 -2 1 -3 1 -3 1 -3 1 -3 1 -3 1 -3 1 -3 1 -3 0 -3 0 -3 0 -3 0 -3 0 -3 0 -3 -1 -3 -1 -3 -1 -3 -1 -3 -1 -3 -1 -3 -1 -2 -1 -2 -2 -2 -2 -2 -2 -2 -2 -2 -2 -2 -2 -2 -2 -2 -2 -2 -2 -2 -2 -1 -2 -1 -2 -1 -3 -1 -3 -1 -3 -1 -3 -1 -3 -1 -3 0 -3 0 -3 0 -3zm118 -2950l0 2950 -118 0 0 -2950 118 0zm0 0l-118 0 0 -3 0 -3 0 -3 1 -3 1 -3 1 -3 1 -3 1 -3 1 -3 1 -2 1 -2 2 -2 2 -2 2 -2 2 -2 2 -2 2 -2 2 -2 2 -2 2 -2 2 -2 2 -1 3 -1 3 -1 3 -1 3 -1 3 -1 3 -1 3 -1 3 0 3 0 3 0 3 0 3 0 3 0 3 1 3 1 3 1 3 1 3 1 3 1 3 1 2 1 2 2 2 2 2 2 2 2 2 2 2 2 2 2 2 2 2 2 2 2 1 2 1 2 1 3 1 3 1 3 1 3 1 3 1 3 0 3 0 3 0 3z"/>
   </g>
   <polygon class="fil16 str7" points="18202,4653 16781,4653 16781,6509 18202,6509 "/>
   <polygon class="fil16 str7" points="17818,5426 17818,3471 17253,4043 17253,5998 "/>
   <polygon class="fil16 str7" points="16791,4582 15409,5964 16212,5959 17595,4577 "/>
   <polygon class="fil16 str7" points="15084,4939 15084,6360 16940,6360 16940,4939 "/>
   <polygon class="fil16 str7" points="16598,7179 15215,5797 16019,5802 17402,7184 "/>
   <polygon class="fil16 str7" points="15718,6784 17673,6784 17101,7349 15146,7349 "/>
   <polygon class="fil17 str8" points="16781,4939 16781,6509 17071,6509 17071,4939 "/>
   <polygon class="fil17 str8" points="16434,4939 15409,5964 16212,5959 17071,5100 17071,4939 "/>
   <polygon class="fil17 str8" points="14632,5391 14632,6812 16488,6812 16488,5391 "/>
   <polygon class="fil17 str8" points="15718,6784 17071,6784 17071,7349 15146,7349 "/>
   <polygon class="fil17 str8" points="16598,7179 15215,5797 16019,5802 17071,6854 17071,7182 "/>
   <path class="fil14" d="M17285 3889c-27,26 -23,43 11,50 -38,9 -65,22 -85,41l-11 11c-37,36 -18,54 57,54l69 0c20,0 36,-7 43,-15l200 -195c8,-8 7,-15 -13,-15l-89 0c-75,0 -134,22 -171,57l-11 10zm140 32l-61 0c-41,0 -44,-13 -23,-32l11 -10c20,-19 45,-29 86,-29l61 0 -73 71zm-29 28l-69 67 -42 0c-40,0 -50,-6 -31,-25l11 -11c20,-19 48,-31 89,-31l42 0zm-345 9l41 0 -77 75c-8,8 -7,15 13,15 19,0 35,-7 43,-15l203 -198c8,-8 7,-15 -12,-15l-69 0c-75,0 -131,22 -168,57l-20 19c-36,35 -28,61 47,61zm70 -29l-41 0c-41,0 -42,-12 -22,-32l20 -19c20,-19 44,-29 84,-29l41 0 -82 80zm-148 -97l-206 202c-8,8 -7,15 12,15 19,0 35,-7 43,-15l206 -202c8,-8 7,-15 -12,-15 -19,0 -35,7 -43,15zm-321 124l53 0 -61 60 -119 0c-14,0 -30,4 -41,14 -10,10 -2,14 11,14l148 0c19,0 33,-6 42,-14l200 -196c8,-8 6,-15 -13,-15l-81 0c-75,0 -131,22 -168,57l-19 19c-36,35 -27,60 48,60zm25 -78c20,-19 44,-29 84,-29l53 0 -82 80 -53 0c-41,0 -42,-12 -22,-32l20 -20zm-280 108c-20,20 -47,34 -88,34l-18 0c-41,0 -40,-14 -19,-34l108 -106c20,-20 47,-34 88,-34l18 0c41,0 40,14 19,34l-108 106zm-181 0c-36,35 -30,63 45,63l18 0c75,0 137,-27 173,-63l108 -106c36,-35 30,-63 -45,-63l-18 0c-75,0 -137,27 -173,63l-108 106zm-84 -49l-82 80 -60 0c-41,0 -45,-10 -25,-29l20 -19c20,-20 47,-32 87,-32l60 0zm-30 -29c-75,0 -135,25 -171,61l-20 19c-37,36 -25,57 50,57l88 0c19,0 34,-7 42,-15l203 -198c8,-8 7,-15 -13,-15 -19,0 -35,7 -43,15l-78 76 -60 0zm-324 50l41 0 -77 75c-8,8 -7,15 13,15 19,0 35,-7 43,-15l203 -198c8,-8 7,-15 -12,-15l-69 0c-75,0 -131,22 -168,57l-20 19c-36,35 -28,61 47,61zm70 -29l-41 0c-41,0 -42,-12 -22,-32l20 -19c20,-19 44,-29 84,-29l41 0 -82 80zm-148 -97l-206 202c-8,8 -7,15 12,15 19,0 35,-7 43,-15l206 -202c8,-8 7,-15 -12,-15 -19,0 -35,7 -43,15z"/>
   <g>
    <path class="fil9" d="M13847 4899l1862 -1838 84 80 -1862 1838 -42 17 -42 -97zm0 0l84 80 -2 2 -2 2 -2 2 -2 2 -2 2 -3 1 -3 1 -3 1 -3 1 -3 1 -3 1 -3 1 -3 0 -3 0 -3 0 -3 0 -3 0 -3 0 -3 0 -3 0 -3 -1 -3 -1 -3 -1 -3 -1 -3 -1 -3 -1 -3 -1 -2 -1 -2 -2 -2 -2 -2 -2 -2 -2 -2 -2 -2 -2 -2 -2 -2 -2 -2 -2 -1 -2 -1 -2 -1 -3 -1 -3 -1 -3 -1 -3 -1 -3 0 -3 0 -3 0 -3 0 -3 0 -3 0 -3 0 -3 0 -3 1 -3 1 -3 1 -3 1 -3 1 -3 1 -3 1 -2 2 -2 2 -2 2 -2 2 -2 2 -2zm3224 97l-3182 0 0 -114 3182 0 42 97 -42 17zm0 0l0 -114 3 0 3 0 3 0 3 1 3 1 3 1 3 1 3 1 3 1 3 1 2 1 2 1 2 2 2 2 2 2 2 2 2 2 2 2 2 2 2 2 2 2 1 2 1 2 1 3 1 3 1 3 1 3 1 3 1 3 0 3 0 3 0 3 0 3 0 3 0 3 -1 3 -1 3 -1 3 -1 3 -1 3 -1 3 -1 2 -1 2 -2 2 -2 2 -2 2 -2 2 -2 2 -2 2 -2 2 -2 2 -2 2 -2 1 -2 1 -3 1 -3 1 -3 1 -3 1 -3 1 -3 1 -3 1 -3 0 -3 0 -3 0zm1904 -1855l-1862 1838 -84 -80 1862 -1838 42 -17 42 97zm0 0l-84 -80 2 -2 2 -2 2 -2 2 -2 2 -2 3 -1 3 -1 3 -1 3 -1 3 -1 3 -1 3 -1 3 0 3 0 3 0 3 0 3 0 3 0 3 0 3 0 3 1 3 1 3 1 3 1 3 1 3 1 3 1 2 1 2 2 2 2 2 2 2 2 2 2 2 2 2 2 2 2 2 2 1 2 1 2 1 3 1 3 1 3 1 3 1 3 0 3 0 3 0 3 0 3 0 3 0 3 0 3 0 3 -1 3 -1 3 -1 3 -1 3 -1 3 -1 3 -1 2 -2 2 -2 2 -2 2 -2 2 -2 2zm-3224 -97l3182 0 0 114 -3182 0 -42 -97 42 -17zm0 0l0 114 -3 0 -3 0 -3 0 -3 -1 -3 -1 -3 -1 -3 -1 -3 -1 -3 -1 -3 -1 -2 -1 -2 -1 -2 -2 -2 -2 -2 -2 -2 -2 -2 -2 -2 -2 -2 -2 -2 -2 -2 -2 -1 -2 -1 -2 -1 -3 -1 -3 -1 -3 -1 -3 -1 -3 -1 -3 0 -3 0 -3 0 -3 0 -3 0 -3 0 -3 1 -3 1 -3 1 -3 1 -3 1 -3 1 -3 1 -2 1 -2 2 -2 2 -2 2 -2 2 -2 2 -2 2 -2 2 -2 2 -2 2 -2 2 -1 2 -1 3 -1 3 -1 3 -1 3 -1 3 -1 3 -1 3 -1 3 0 3 0 3 0z"/>
   </g>
   <g>
    <path class="fil9" d="M18992 3101l0 3042 -117 0 0 -3042 17 -41 100 41zm0 0l-117 0 0 -3 0 -3 0 -3 1 -3 1 -3 1 -3 1 -3 1 -3 1 -3 1 -3 1 -2 2 -2 2 -2 2 -2 2 -2 2 -2 2 -2 2 -2 2 -2 2 -2 2 -2 2 -1 3 -1 3 -1 3 -1 3 -1 3 -1 3 -1 3 -1 3 0 3 0 3 0 3 0 3 0 3 0 3 1 3 1 3 1 3 1 3 1 3 1 3 1 2 1 2 2 2 2 2 2 2 2 2 2 2 2 2 2 2 2 2 2 2 2 1 2 1 3 1 3 1 3 1 3 1 3 1 3 1 3 0 3 0 3 0 3zm-1962 1797l1862 -1838 83 82 -1862 1838 -100 -41 17 -41zm0 0l83 82 -2 2 -2 2 -2 2 -2 2 -2 2 -3 1 -3 1 -3 1 -3 1 -3 1 -3 1 -3 1 -3 0 -3 0 -3 0 -3 0 -3 0 -3 0 -3 0 -3 0 -3 -1 -3 -1 -3 -1 -3 -1 -3 -1 -3 -1 -3 -1 -2 -2 -2 -2 -2 -2 -2 -2 -2 -2 -2 -2 -2 -2 -2 -2 -2 -2 -2 -2 -1 -3 -1 -3 -1 -3 -1 -3 -1 -3 -1 -3 -1 -3 0 -3 0 -3 0 -3 0 -3 0 -3 0 -3 0 -3 0 -3 1 -3 1 -3 1 -3 1 -3 1 -3 1 -3 1 -3 2 -2 2 -2 2 -2 2 -2 2 -2zm-17 3083l0 -3042 117 0 0 3042 -17 41 -100 -41zm0 0l117 0 0 3 0 3 0 3 -1 3 -1 3 -1 3 -1 3 -1 3 -1 3 -1 3 -1 2 -2 2 -2 2 -2 2 -2 2 -2 2 -2 2 -2 2 -2 2 -2 2 -2 2 -2 1 -3 1 -3 1 -3 1 -3 1 -3 1 -3 1 -3 1 -3 0 -3 0 -3 0 -3 0 -3 0 -3 0 -3 -1 -3 -1 -3 -1 -3 -1 -3 -1 -3 -1 -3 -1 -2 -1 -2 -2 -2 -2 -2 -2 -2 -2 -2 -2 -2 -2 -2 -2 -2 -2 -2 -2 -2 -2 -1 -2 -1 -3 -1 -3 -1 -3 -1 -3 -1 -3 -1 -3 -1 -3 0 -3 0 -3 0 -3zm1962 -1797l-1862 1838 -83 -82 1862 -1838 100 41 -17 41zm0 0l-83 -82 2 -2 2 -2 2 -2 2 -2 2 -2 3 -1 3 -1 3 -1 3 -1 3 -1 3 -1 3 -1 3 0 3 0 3 0 3 0 3 0 3 0 3 0 3 0 3 1 3 1 3 1 3 1 3 1 3 1 3 1 2 2 2 2 2 2 2 2 2 2 2 2 2 2 2 2 2 2 2 2 1 3 1 3 1 3 1 3 1 3 1 3 1 3 0 3 0 3 0 3 0 3 0 3 0 3 0 3 0 3 -1 3 -1 3 -1 3 -1 3 -1 3 -1 3 -1 3 -2 2 -2 2 -2 2 -2 2 -2 2z"/>
   </g>
   <g>
    <path class="fil10" d="M17072 8040l-3182 0 0 -117 3182 0 58 59 -58 59zm0 0l0 -117 3 0 3 0 3 0 3 1 3 1 3 1 3 1 3 1 3 1 3 1 2 1 2 2 2 2 2 2 2 2 2 2 2 2 2 2 2 2 2 2 2 2 1 2 1 3 1 3 1 3 1 3 1 3 1 3 1 3 0 3 0 3 0 3 0 3 0 3 0 3 -1 3 -1 3 -1 3 -1 3 -1 3 -1 3 -1 3 -1 2 -2 2 -2 2 -2 2 -2 2 -2 2 -2 2 -2 2 -2 2 -2 2 -2 2 -2 1 -3 1 -3 1 -3 1 -3 1 -3 1 -3 1 -3 1 -3 0 -3 0 -3 0zm58 -3101l0 3042 -116 0 0 -3042 58 -59 58 59zm0 0l-116 0 0 -3 0 -3 0 -3 1 -3 1 -3 1 -3 1 -3 1 -3 1 -3 1 -3 1 -2 2 -2 2 -2 2 -2 2 -2 2 -2 2 -2 2 -2 2 -2 2 -2 2 -2 2 -1 3 -1 3 -1 3 -1 3 -1 3 -1 3 -1 3 -1 3 0 3 0 3 0 3 0 3 0 3 0 3 1 3 1 3 1 3 1 3 1 3 1 3 1 2 1 2 2 2 2 2 2 2 2 2 2 2 2 2 2 2 2 2 2 2 2 1 2 1 3 1 3 1 3 1 3 1 3 1 3 1 3 0 3 0 3 0 3zm-3240 -59l3182 0 0 117 -3182 0 -58 -59 58 -59zm0 0l0 117 -3 0 -3 0 -3 0 -3 -1 -3 -1 -3 -1 -3 -1 -3 -1 -3 -1 -3 -1 -2 -1 -2 -2 -2 -2 -2 -2 -2 -2 -2 -2 -2 -2 -2 -2 -2 -2 -2 -2 -2 -2 -1 -2 -1 -3 -1 -3 -1 -3 -1 -3 -1 -3 -1 -3 -1 -3 0 -3 0 -3 0 -3 0 -3 0 -3 0 -3 1 -3 1 -3 1 -3 1 -3 1 -3 1 -3 1 -3 1 -2 2 -2 2 -2 2 -2 2 -2 2 -2 2 -2 2 -2 2 -2 2 -2 2 -2 2 -1 3 -1 3 -1 3 -1 3 -1 3 -1 3 -1 3 -1 3 0 3 0 3 0zm-58 3101l0 -3042 116 0 0 3042 -58 59 -58 -59zm0 0l116 0 0 3 0 3 0 3 -1 3 -1 3 -1 3 -1 3 -1 3 -1 3 -1 3 -1 2 -2 2 -2 2 -2 2 -2 2 -2 2 -2 2 -2 2 -2 2 -2 2 -2 2 -2 1 -3 1 -3 1 -3 1 -3 1 -3 1 -3 1 -3 1 -3 0 -3 0 -3 0 -3 0 -3 0 -3 0 -3 -1 -3 -1 -3 -1 -3 -1 -3 -1 -3 -1 -3 -1 -2 -1 -2 -2 -2 -2 -2 -2 -2 -2 -2 -2 -2 -2 -2 -2 -2 -2 -2 -2 -2 -2 -1 -2 -1 -3 -1 -3 -1 -3 -1 -3 -1 -3 -1 -3 -1 -3 0 -3 0 -3 0 -3z"/>
   </g>
   <path class="fil4 str12" d="M2848 8347c0,204 167,370 370,370l3736 0"/>
   <path class="fil4 str12" d="M6785 8347c0,204 167,370 370,370l2351 0"/>
   <path class="fil4 str12" d="M15694 8347c0,204 -167,370 -370,370l-3736 0"/>
   <path class="fil4 str12" d="M11751 8347c0,204 -167,370 -370,370l-1874 0"/>
  </g>
 </g>
</svg>
