<?xml version="1.0" encoding="UTF-8"?>
<!DOCTYPE svg PUBLIC "-//W3C//DTD SVG 1.1//EN" "http://www.w3.org/Graphics/SVG/1.1/DTD/svg11.dtd">
<!-- Creator: CorelDRAW X6 -->
<svg xmlns="http://www.w3.org/2000/svg" xml:space="preserve" width="200mm" height="200mm" version="1.1" style="shape-rendering:geometricPrecision; text-rendering:geometricPrecision; image-rendering:optimizeQuality; fill-rule:evenodd; clip-rule:evenodd"
viewBox="0 0 20000 20000"
 xmlns:xlink="http://www.w3.org/1999/xlink">
 <defs>
  <style type="text/css">
   <![CDATA[
    .str3 {stroke:#57A6B3;stroke-width:10.19;stroke-linecap:round;stroke-linejoin:round}
    .str11 {stroke:#4D8A7D;stroke-width:12.11}
    .str16 {stroke:#CC7587;stroke-width:14.69}
    .str13 {stroke:#CC7587;stroke-width:20.44}
    .str12 {stroke:#034540;stroke-width:21}
    .str8 {stroke:#CC7587;stroke-width:30}
    .str7 {stroke:#AB8082;stroke-width:34.18}
    .str2 {stroke:#B54F66;stroke-width:67.92;stroke-linecap:round;stroke-linejoin:round}
    .str9 {stroke:#CC7587;stroke-width:68.92;stroke-linecap:round;stroke-linejoin:round}
    .str4 {stroke:#AB8082;stroke-width:81.78}
    .str15 {stroke:#4D8A7D;stroke-width:100.98;stroke-linecap:round;stroke-linejoin:round}
    .str1 {stroke:#B54F66;stroke-width:108.03;stroke-linecap:round;stroke-linejoin:round}
    .str10 {stroke:#034540;stroke-width:115.4;stroke-linecap:round;stroke-linejoin:round}
    .str14 {stroke:#034540;stroke-width:132;stroke-linecap:round;stroke-linejoin:round}
    .str5 {stroke:#034540;stroke-width:132.61;stroke-linecap:round;stroke-linejoin:round}
    .str0 {stroke:#2E99A3;stroke-width:132.61;stroke-linecap:round;stroke-linejoin:round}
    .str6 {stroke:#4D8A7D;stroke-width:132.61;stroke-linecap:round;stroke-linejoin:round}
    .fil5 {fill:none}
    .fil20 {fill:none;fill-rule:nonzero}
    .fil14 {fill:#738287}
    .fil3 {fill:#ABC9BF}
    .fil10 {fill:#B3B3B3}
    .fil2 {fill:#BDD6D1}
    .fil9 {fill:#C4C7C7}
    .fil1 {fill:#C9E6E8}
    .fil7 {fill:#CC5770}
    .fil11 {fill:#D9D9D9}
    .fil17 {fill:#EBF2D9}
    .fil22 {fill:#FFF7B3}
    .fil21 {fill:#FFFADB}
    .fil6 {fill:#0066A3;fill-rule:nonzero}
    .fil23 {fill:#034540;fill-rule:nonzero}
    .fil4 {fill:#2E99A3;fill-rule:nonzero}
    .fil18 {fill:#4D8A7D;fill-rule:nonzero}
    .fil15 {fill:#57A6B3;fill-rule:nonzero}
    .fil12 {fill:#5C5C5C;fill-rule:nonzero}
    .fil13 {fill:#738287;fill-rule:nonzero}
    .fil16 {fill:#AB8082;fill-rule:nonzero}
    .fil8 {fill:#B54F66;fill-rule:nonzero}
    .fil19 {fill:#CC7587;fill-rule:nonzero}
    .fil0 {fill:url(#id0)}
   ]]>
  </style>
  <radialGradient id="id0" gradientUnits="userSpaceOnUse" cx="10000" cy="10000" r="10000" fx="10000" fy="10000">
   <stop offset="0" style="stop-color:#FEFEFE"/>
   <stop offset="0.439216" style="stop-color:#FEFEFE"/>
   <stop offset="1" style="stop-color:#D1E2F2"/>
  </radialGradient>
 </defs>
 <g id="Layer_x0020_1">
  <metadata id="CorelCorpID_0Corel-Layer"/>
  <g id="_898080144">
   <polygon class="fil0" points="0,0 20000,0 20000,20000 0,20000 "/>
   <polygon class="fil1" points="7160,8733 7160,5240 8138,4275 8136,5240 10501,5240 10501,8733 "/>
   <polygon class="fil2" points="11478,7669 11478,4275 10501,5240 10501,8733 "/>
   <polygon class="fil2" points="8138,7769 11378,7769 10501,8733 7160,8733 "/>
   <polygon class="fil3" points="10501,7769 10501,8733 11378,7769 "/>
   <g>
    <path class="fil4" d="M11544 4275l0 3393 -133 0 0 -3393 19 -46 113 46zm0 0l-133 0 0 -3 0 -3 0 -3 1 -3 1 -3 1 -3 1 -3 1 -3 1 -3 1 -3 2 -3 2 -3 2 -3 2 -2 2 -2 2 -2 2 -2 2 -2 3 -2 3 -2 3 -2 3 -2 3 -1 3 -1 3 -1 3 -1 3 -1 3 -1 3 -1 3 0 3 0 3 0 3 0 3 0 3 0 3 1 3 1 3 1 3 1 3 1 3 1 3 1 3 2 3 2 3 2 3 2 2 2 2 2 2 2 2 2 2 2 2 3 2 3 2 3 1 3 1 3 1 3 1 3 1 3 1 3 1 3 0 3 0 3 0 3zm-1090 918l977 -965 94 93 -977 965 -113 -46 19 -46zm0 0l94 93 -2 2 -3 2 -3 2 -3 2 -3 2 -3 2 -3 1 -3 1 -3 1 -3 1 -3 1 -3 1 -3 1 -3 0 -3 0 -3 0 -3 0 -3 0 -3 0 -3 -1 -3 -1 -3 -1 -3 -1 -3 -1 -3 -1 -3 -1 -3 -2 -3 -2 -3 -2 -3 -2 -3 -2 -2 -2 -2 -2 -2 -3 -2 -3 -2 -3 -2 -3 -2 -3 -1 -3 -1 -3 -1 -3 -1 -3 -1 -3 -1 -3 -1 -3 0 -3 0 -3 0 -3 0 -3 0 -3 0 -3 1 -3 1 -3 1 -3 1 -3 1 -3 1 -3 1 -3 2 -3 2 -3 2 -3 2 -3 2 -3 2 -2zm-19 3540l0 -3493 133 0 0 3493 -17 44 -115 -44zm0 0l133 0 0 3 0 3 0 3 -1 3 -1 3 -1 3 -1 3 -1 3 -1 3 -1 3 -2 3 -2 3 -2 3 -2 2 -2 2 -2 2 -2 2 -2 2 -3 2 -3 2 -3 2 -3 2 -3 1 -3 1 -3 1 -3 1 -3 1 -3 1 -3 1 -3 0 -3 0 -3 0 -3 0 -3 0 -3 0 -3 -1 -3 -1 -3 -1 -3 -1 -3 -1 -3 -1 -3 -1 -3 -2 -3 -2 -3 -2 -3 -2 -2 -2 -2 -2 -2 -2 -2 -2 -2 -2 -2 -3 -2 -3 -2 -3 -1 -3 -1 -3 -1 -3 -1 -3 -1 -3 -1 -3 -1 -3 0 -3 0 -3 0 -3zm1093 -1021l-977 1065 -98 -88 977 -1065 115 44 -17 44zm0 0l-98 -88 2 -2 2 -2 3 -2 3 -2 3 -2 3 -2 3 -2 3 -1 3 -1 3 -1 3 -1 3 -1 3 -1 3 -1 3 0 3 0 3 0 3 0 3 0 3 0 3 1 3 1 3 1 3 1 3 1 3 1 3 1 3 2 3 2 3 2 3 2 3 2 2 2 2 2 2 3 2 3 2 3 2 3 2 3 1 3 1 3 1 3 1 3 1 3 1 3 1 3 0 3 0 3 0 3 0 3 0 3 0 3 -1 3 -1 3 -1 3 -1 3 -1 3 -1 3 -1 3 -2 3 -2 3 -2 3 -2 3 -2 3z"/>
   </g>
   <polygon class="fil5 str0" points="7160,8733 7160,5240 10501,5240 10501,8733 "/>
   <g>
    <path class="fil6" d="M11478 4341l-3340 0 0 -133 3340 0 46 114 -46 19zm0 0l0 -133 3 0 3 0 3 0 3 1 3 1 3 1 3 1 3 1 3 1 3 1 3 2 3 2 3 2 2 2 2 2 2 2 2 2 2 2 2 3 2 3 2 3 2 3 1 3 1 3 1 3 1 3 1 3 1 3 1 3 0 3 0 3 0 3 0 3 0 3 0 3 -1 3 -1 3 -1 3 -1 3 -1 3 -1 3 -1 3 -2 3 -2 3 -2 3 -2 3 -2 2 -2 2 -2 2 -2 2 -2 2 -3 2 -3 2 -3 2 -3 1 -3 1 -3 1 -3 1 -3 1 -3 1 -3 1 -3 0 -3 0 -3 0zm-1023 851l977 -965 92 95 -977 965 -46 19 -46 -114zm0 0l92 95 -2 2 -3 2 -3 2 -3 2 -3 2 -3 2 -3 1 -3 1 -3 1 -3 1 -3 1 -3 1 -3 1 -3 0 -3 0 -3 0 -3 0 -3 0 -3 0 -3 -1 -3 -1 -3 -1 -3 -1 -3 -1 -3 -1 -3 -1 -3 -2 -3 -2 -3 -2 -3 -2 -3 -2 -2 -2 -2 -3 -2 -3 -2 -3 -2 -3 -2 -3 -2 -3 -1 -3 -1 -3 -1 -3 -1 -3 -1 -3 -1 -3 0 -3 0 -3 0 -3 0 -3 0 -3 0 -3 0 -3 1 -3 1 -3 1 -3 1 -3 1 -3 1 -3 1 -3 2 -3 2 -3 2 -3 2 -3 2 -3 2 -2zm-3294 -19l3340 0 0 133 -3340 0 -46 -114 46 -19zm0 0l0 133 -3 0 -3 0 -3 0 -3 -1 -3 -1 -3 -1 -3 -1 -3 -1 -3 -1 -3 -1 -3 -2 -3 -2 -3 -2 -2 -2 -2 -2 -2 -2 -2 -2 -2 -2 -2 -3 -2 -3 -2 -3 -2 -3 -1 -3 -1 -3 -1 -3 -1 -3 -1 -3 -1 -3 -1 -3 0 -3 0 -3 0 -3 0 -3 0 -3 0 -3 1 -3 1 -3 1 -3 1 -3 1 -3 1 -3 1 -3 2 -3 2 -3 2 -3 2 -3 2 -2 2 -2 2 -2 2 -2 2 -2 3 -2 3 -2 3 -2 3 -1 3 -1 3 -1 3 -1 3 -1 3 -1 3 -1 3 0 3 0 3 0zm1023 -851l-977 965 -92 -95 977 -965 46 -19 46 114zm0 0l-92 -95 2 -2 3 -2 3 -2 3 -2 3 -2 3 -2 3 -1 3 -1 3 -1 3 -1 3 -1 3 -1 3 -1 3 0 3 0 3 0 3 0 3 0 3 0 3 1 3 1 3 1 3 1 3 1 3 1 3 1 3 2 3 2 3 2 3 2 3 2 2 2 2 3 2 3 2 3 2 3 2 3 2 3 1 3 1 3 1 3 1 3 1 3 1 3 0 3 0 3 0 3 0 3 0 3 0 3 0 3 -1 3 -1 3 -1 3 -1 3 -1 3 -1 3 -1 3 -2 3 -2 3 -2 3 -2 3 -2 3 -2 2z"/>
   </g>
   <path class="fil5 str1" d="M6640 7268c-117,-117 -276,-183 -442,-183 -346,0 -626,280 -626,626 0,346 280,626 626,626 110,0 218,-29 313,-84"/>
   <path class="fil7" d="M5473 7628l53 -1c1,-23 4,-46 8,-69 5,-29 32,-49 62,-45 29,5 51,33 47,62 -3,17 -6,33 -8,49l29 -1 164 227 19 841 -159 4 -191 4 -159 4 -19 -841 154 -234z"/>
   <path class="fil5 str2" d="M5628 7981c-43,-21 -95,-4 -116,39 -21,43 -4,95 39,116"/>
   <path class="fil8" d="M5844 8159c-38,-25 -78,-52 -121,-80 -31,-20 -63,-40 -108,-70 -25,-16 -58,-9 -74,16 -16,25 -9,58 16,74 32,21 72,46 108,69 65,42 123,81 179,117l0 -128zm-522 -174c-132,-50 -285,-89 -448,-117 -169,-29 -351,-45 -537,-49 -30,-1 -53,-25 -53,-55 1,-30 25,-53 55,-53 190,4 377,21 553,51 155,26 299,62 428,108l3 116z"/>
   <polygon class="fil9" points="11540,8733 11540,8407 14947,8407 14947,8733 "/>
   <polygon class="fil10" points="15768,7827 15768,7501 14947,8407 14947,8733 "/>
   <g>
    <path class="fil4" d="M15846 7908l-97 -90 2 -2 2 -2 3 -2 3 -2 3 -2 3 -2 3 -2 3 -1 3 -1 3 -1 3 -1 3 -1 3 -1 3 -1 3 0 3 0 3 0 3 0 3 0 3 0 3 1 3 1 3 1 3 1 3 1 3 1 3 1 3 2 3 2 3 2 3 2 3 2 2 2 2 2 2 3 2 3 2 3 2 3 2 3 1 3 1 3 1 3 1 3 1 3 1 3 1 3 0 3 0 3 0 3 0 3 0 3 0 3 -1 3 -1 3 -1 3 -1 3 -1 3 -1 3 -1 3 -2 3 -2 3 -2 3 -2 3 -2 3zm-888 781l791 -871 97 90 -791 871 -48 21 -48 -111zm0 0l97 90 -2 2 -2 2 -3 2 -3 2 -3 2 -3 2 -3 2 -3 1 -3 1 -3 1 -3 1 -3 1 -3 1 -3 1 -3 0 -3 0 -3 0 -3 0 -3 0 -3 0 -3 -1 -3 -1 -3 -1 -3 -1 -3 -1 -3 -1 -3 -1 -3 -2 -3 -2 -3 -2 -3 -2 -3 -2 -2 -2 -2 -2 -2 -3 -2 -3 -2 -3 -2 -3 -2 -3 -1 -3 -1 -3 -1 -3 -1 -3 -1 -3 -1 -3 -1 -3 0 -3 0 -3 0 -3 0 -3 0 -3 0 -3 1 -3 1 -3 1 -3 1 -3 1 -3 1 -3 1 -3 2 -3 2 -3 2 -3 2 -3 2 -3zm-3399 -21l3447 0 0 133 -3447 0 0 -133zm0 0l0 133 -3 0 -3 0 -3 0 -3 -1 -3 -1 -3 -1 -3 -1 -3 -1 -3 -1 -3 -1 -3 -2 -3 -2 -3 -2 -2 -2 -2 -2 -2 -2 -2 -2 -2 -2 -2 -3 -2 -3 -2 -3 -2 -3 -1 -3 -1 -3 -1 -3 -1 -3 -1 -3 -1 -3 -1 -3 0 -3 0 -3 0 -3 0 -3 0 -3 0 -3 1 -3 1 -3 1 -3 1 -3 1 -3 1 -3 1 -3 2 -3 2 -3 2 -3 2 -3 2 -2 2 -2 2 -2 2 -2 2 -2 3 -2 3 -2 3 -2 3 -1 3 -1 3 -1 3 -1 3 -1 3 -1 3 -1 3 0 3 0 3 0z"/>
   </g>
   <g>
    <polygon class="fil11" points="12521,7425 15761,7425 14884,8389 11544,8389 "/>
    <path id="1" class="fil4" d="M15761 7491l-3240 0 0 -133 3240 0 48 111 -48 21zm0 0l0 -133 3 0 3 0 3 0 3 1 3 1 3 1 3 1 3 1 3 1 3 1 3 2 3 2 3 2 2 2 2 2 2 2 2 2 2 2 2 3 2 3 2 3 2 3 1 3 1 3 1 3 1 3 1 3 1 3 1 3 0 3 0 3 0 3 0 3 0 3 0 3 -1 3 -1 3 -1 3 -1 3 -1 3 -1 3 -1 3 -2 3 -2 3 -2 3 -2 3 -2 2 -2 2 -2 2 -2 2 -2 2 -3 2 -3 2 -3 2 -3 1 -3 1 -3 1 -3 1 -3 1 -3 1 -3 1 -3 0 -3 0 -3 0zm-926 854l877 -965 97 90 -877 965 -48 21 -48 -111zm0 0l97 90 -2 2 -2 2 -3 2 -3 2 -3 2 -3 2 -3 2 -3 1 -3 1 -3 1 -3 1 -3 1 -3 1 -3 1 -3 0 -3 0 -3 0 -3 0 -3 0 -3 0 -3 -1 -3 -1 -3 -1 -3 -1 -3 -1 -3 -1 -3 -1 -3 -2 -3 -2 -3 -2 -3 -2 -3 -2 -2 -2 -2 -2 -2 -3 -2 -3 -2 -3 -2 -3 -2 -3 -1 -3 -1 -3 -1 -3 -1 -3 -1 -3 -1 -3 -1 -3 0 -3 0 -3 0 -3 0 -3 0 -3 0 -3 1 -3 1 -3 1 -3 1 -3 1 -3 1 -3 1 -3 2 -3 2 -3 2 -3 2 -3 2 -3zm-3292 -21l3340 0 0 133 -3340 0 -46 -114 46 -19zm0 0l0 133 -3 0 -3 0 -3 0 -3 -1 -3 -1 -3 -1 -3 -1 -3 -1 -3 -1 -3 -1 -3 -2 -3 -2 -3 -2 -2 -2 -2 -2 -2 -2 -2 -2 -2 -2 -2 -3 -2 -3 -2 -3 -2 -3 -1 -3 -1 -3 -1 -3 -1 -3 -1 -3 -1 -3 -1 -3 0 -3 0 -3 0 -3 0 -3 0 -3 0 -3 1 -3 1 -3 1 -3 1 -3 1 -3 1 -3 1 -3 2 -3 2 -3 2 -3 2 -3 2 -2 2 -2 2 -2 2 -2 2 -2 3 -2 3 -2 3 -2 3 -1 3 -1 3 -1 3 -1 3 -1 3 -1 3 -1 3 0 3 0 3 0zm1023 -851l-977 965 -92 -95 977 -965 46 -19 46 114zm0 0l-92 -95 2 -2 3 -2 3 -2 3 -2 3 -2 3 -2 3 -1 3 -1 3 -1 3 -1 3 -1 3 -1 3 -1 3 0 3 0 3 0 3 0 3 0 3 0 3 1 3 1 3 1 3 1 3 1 3 1 3 1 3 2 3 2 3 2 3 2 3 2 2 2 2 3 2 3 2 3 2 3 2 3 2 3 1 3 1 3 1 3 1 3 1 3 1 3 0 3 0 3 0 3 0 3 0 3 0 3 0 3 -1 3 -1 3 -1 3 -1 3 -1 3 -1 3 -1 3 -2 3 -2 3 -2 3 -2 3 -2 3 -2 2z"/>
   </g>
   <g>
    <path class="fil12" d="M12639 7807l0 200 -5 0 -5 0 -5 -1 -5 -1 -5 -1 -5 -1 -4 -2 -4 -2 -4 -2 -4 -2 -4 -2 -4 -3 -4 -3 -4 -3 -3 -3 -3 -3 -3 -3 -3 -4 -3 -4 -3 -4 -2 -4 -2 -4 -2 -4 -2 -4 -2 -5 -2 -5 -1 -5 -1 -5 -1 -5 -1 -5 0 -5 0 -5 0 -5 0 -5 1 -5 1 -5 1 -5 1 -5 2 -5 2 -5 2 -4 2 -4 2 -4 2 -4 3 -4 3 -4 3 -4 3 -3 3 -3 3 -3 4 -3 4 -3 4 -3 4 -2 4 -2 4 -2 4 -2 4 -2 5 -1 5 -1 5 -1 5 -1 5 0 5 0zm2028 200l-2028 0 0 -200 2028 0 0 200zm0 0l0 -200 5 0 5 0 5 1 5 1 5 1 5 1 4 2 4 2 4 2 4 2 4 2 4 3 4 3 4 3 3 3 3 3 3 3 3 4 3 4 3 4 2 4 2 4 2 4 2 4 2 5 2 5 1 5 1 5 1 5 1 5 0 5 0 5 0 5 0 5 -1 5 -1 5 -1 5 -1 5 -2 5 -2 5 -2 4 -2 4 -2 4 -2 4 -3 4 -3 4 -3 4 -3 3 -3 3 -3 3 -4 3 -4 3 -4 3 -4 2 -4 2 -4 2 -4 2 -4 2 -5 1 -5 1 -5 1 -5 1 -5 0 -5 0z"/>
   </g>
   <path class="fil13" d="M10965 5056c-2,-76 41,-140 96,-143 55,-3 101,57 103,133 16,645 291,1034 583,1446l0 0 0 0c2,3 4,6 6,9 152,217 244,423 227,594 -20,191 -150,311 -438,318l0 -276c165,-3 236,-33 241,-81 8,-74 -61,-205 -172,-362 -1,-2 -3,-4 -4,-6l0 0 0 0 -1 -1 0 0c-319,-452 -621,-878 -640,-1630z"/>
   <path class="fil14" d="M11171 4912c59,0 106,92 106,206 0,114 -48,206 -106,206 -59,0 -106,-92 -106,-206 0,-114 48,-206 106,-206z"/>
   <path class="fil15 str3" d="M8228 7860c0,-41 -18,-67 -53,-79 25,-15 37,-34 37,-65l0 -17c0,-56 -32,-85 -96,-85l-59 0c-17,0 -24,11 -24,23l0 306c0,12 7,23 24,23l76 0c64,0 96,-34 96,-90l0 -16zm-148 -51l52 0c35,0 48,20 48,51l0 16c0,30 -14,45 -48,45l-52 0 0 -112zm0 -44l0 -106 36 0c34,0 48,10 48,40l0 17c0,30 -14,49 -48,49l-36 0zm286 -15l-35 0 0 -118c0,-12 -7,-23 -24,-23 -17,0 -24,11 -24,23l0 311c0,12 7,23 23,23l59 0c64,0 93,-34 93,-90l0 -30c0,-55 -29,-95 -93,-95zm-35 45l35 0c35,0 47,19 47,50l0 30c0,30 -12,45 -47,45l-35 0 0 -125zm211 153l0 -316c0,-12 -7,-23 -23,-23 -16,0 -24,11 -24,23l0 316c0,12 7,23 23,23 16,0 24,-11 24,-23zm165 -195l-45 0 0 -94 102 0c12,0 22,-7 22,-23 0,-15 -11,-23 -22,-23l-126 0c-16,0 -23,10 -23,22l0 307c0,12 8,23 24,23l69 0c64,0 93,-34 93,-90l0 -29c0,-55 -29,-94 -93,-94zm47 123c0,30 -12,45 -47,45l-45 0 0 -126 45 0c35,0 47,19 47,50l0 31zm145 -169c0,-31 11,-53 46,-53l15 0c35,0 46,22 46,53l0 166c0,31 -11,53 -46,53l-15 0c-35,0 -46,-22 -46,-53l0 -166zm154 0c0,-55 -29,-98 -93,-98l-15 0c-64,0 -93,43 -93,98l0 166c0,55 29,98 93,98l15 0c64,0 93,-43 93,-98l0 -166zm115 77l0 -125 51 0c35,0 47,15 47,45l0 30c0,31 -12,50 -47,50l-51 0zm51 45c64,0 93,-40 93,-95l0 -30c0,-56 -29,-90 -93,-90l-75 0c-16,0 -23,11 -23,23l0 311c0,12 7,23 24,23 17,0 24,-11 24,-23l0 -119 51 0zm233 -79l-35 0 0 -118c0,-12 -7,-23 -24,-23 -17,0 -24,11 -24,23l0 311c0,12 7,23 23,23l59 0c64,0 93,-34 93,-90l0 -30c0,-55 -29,-95 -93,-95zm-35 45l35 0c35,0 47,19 47,50l0 30c0,30 -12,45 -47,45l-35 0 0 -125zm211 153l0 -316c0,-12 -7,-23 -23,-23 -16,0 -24,11 -24,23l0 316c0,12 7,23 23,23 16,0 24,-11 24,-23z"/>
   <path class="fil16 str4" d="M9046 7047c0,-60 22,-107 65,-126l240 -108c117,-52 143,-143 143,-232l0 -5c0,-150 -85,-233 -254,-233l-79 0c-134,0 -218,57 -218,195 0,34 17,61 61,61 44,0 61,-27 61,-61 0,-55 38,-78 95,-78l79 0c92,0 132,35 132,116l0 5c0,61 -20,99 -72,122l-223 99c-104,44 -154,143 -154,257l0 208 524 0c33,0 59,-17 59,-59 0,-42 -26,-59 -59,-59l-401 0 0 -103z"/>
   <path class="fil16" d="M8455 7028c0,23 3,46 5,61l-1 0 -190 -390c-10,-20 -23,-29 -39,-29 -29,0 -40,18 -40,39l0 527c0,20 11,39 39,39 27,0 38,-18 38,-39l0 -319c0,-23 -3,-46 -5,-61l1 0 190 390c10,20 23,29 39,29 29,0 40,-18 40,-39l0 -527c0,-20 -11,-39 -39,-39 -27,0 -38,18 -38,39l0 319zm212 -180c-25,0 -32,-14 -32,-38l0 -42c0,-23 7,-38 32,-38l13 0c25,0 32,14 32,38l0 42c0,23 -7,38 -32,38l-13 0zm13 56c58,0 86,-39 86,-90l0 -50c0,-51 -28,-89 -86,-89l-14 0c-58,0 -86,38 -86,89l0 50c0,51 28,90 86,90l14 0zm58 99c18,0 30,-8 30,-30 0,-22 -13,-30 -30,-30l-129 0c-18,0 -31,8 -31,30 0,22 13,30 31,30l129 0z"/>
   <polygon class="fil17 str5" points="11421,15422 14415,15422 14415,11382 11421,11382 "/>
   <polyline class="fil5 str6" points="14897,14984 14897,10944 11904,10944 "/>
   <path class="fil5 str6" d="M14656 15203c0,-1047 0,-2993 0,-4040 -698,0 -2296,0 -2993,0"/>
   <path class="fil18" d="M11814 12869l-49 0 0 -102 110 0c13,0 24,-7 24,-25 0,-16 -11,-25 -24,-25l-137 0c-17,0 -25,10 -25,24l0 333c0,13 8,25 26,25l75 0c69,0 101,-37 101,-98l0 -32c0,-60 -32,-102 -101,-102zm51 133c0,33 -13,49 -51,49l-49 0 0 -137 49 0c38,0 51,21 51,54l0 33zm311 -290l-5 0c-73,0 -101,62 -101,122l0 39 -44 0 0 -136c0,-13 -5,-25 -24,-25 -17,0 -25,12 -25,25l0 343c0,13 7,25 25,25 18,0 24,-12 24,-25l0 -158 44 0 0 83c0,60 32,101 101,101l5 0c69,0 101,-46 101,-107l0 -180c0,-60 -32,-107 -101,-107zm50 287c0,34 -12,57 -50,57l-5 0c-38,0 -50,-17 -50,-51l0 -171c0,-34 10,-73 50,-73l5 0c38,0 50,24 50,57l0 180zm192 32c1,-12 18,-265 18,-265l77 0 0 314c0,13 8,25 26,25 17,0 25,-12 25,-25l0 -338c0,-13 -8,-25 -25,-25l-125 0c-17,0 -26,13 -26,25 0,0 -17,269 -18,276 -1,7 -1,17 -4,24 -5,9 -13,16 -27,16 -13,0 -25,8 -25,26 0,19 12,25 25,25 39,0 62,-16 73,-43 4,-10 7,-22 7,-34zm292 0c1,-12 18,-265 18,-265l77 0 0 314c0,13 8,25 26,25 17,0 25,-12 25,-25l0 -338c0,-13 -8,-25 -25,-25l-125 0c-17,0 -26,13 -26,25 0,0 -17,269 -18,276 -1,7 -1,17 -4,24 -5,9 -13,16 -27,16 -13,0 -25,8 -25,26 0,19 12,25 25,25 39,0 62,-16 73,-43 4,-10 7,-22 7,-34zm393 69c13,0 24,-7 24,-25 0,-16 -11,-25 -24,-25l-117 0 0 -123 93 0c13,0 24,-7 24,-25 0,-16 -11,-25 -24,-25l-93 0 0 -112 117 0c13,0 24,-7 24,-25 0,-16 -11,-25 -24,-25l-143 0c-17,0 -25,12 -25,25l0 332c0,13 8,25 25,25l143 0zm139 -20c0,13 7,25 25,25 17,0 26,-12 26,-25l0 -314 63 0c13,0 24,-7 24,-25 0,-16 -11,-25 -24,-25l-178 0c-13,0 -24,8 -24,25 0,17 11,25 24,25l63 0 0 314zm354 20c13,0 24,-7 24,-25 0,-16 -11,-25 -24,-25l-117 0 0 -123 93 0c13,0 24,-7 24,-25 0,-16 -11,-25 -24,-25l-93 0 0 -112 117 0c13,0 24,-7 24,-25 0,-16 -11,-25 -24,-25l-143 0c-17,0 -25,12 -25,25l0 332c0,13 8,25 25,25l143 0zm295 -363c0,-13 -8,-25 -26,-25 -18,0 -26,12 -26,25l0 136 -111 0 0 -136c0,-13 -7,-25 -26,-25 -17,0 -26,12 -26,25l0 343c0,13 8,25 26,25 18,0 26,-12 26,-25l0 -158 111 0 0 158c0,13 7,25 26,25 17,0 26,-12 26,-25l0 -343zm185 128l-55 0 0 -128c0,-13 -8,-25 -26,-25 -18,0 -26,12 -26,25l0 337c0,13 8,25 25,25l81 0c69,0 101,-37 101,-98l0 -33c0,-60 -32,-103 -101,-103zm-55 49l55 0c38,0 51,21 51,54l0 33c0,33 -13,49 -51,49l-55 0 0 -136z"/>
   <path class="fil16 str7" d="M12902 14075c-39,0 -55,-20 -55,-54l0 -23c0,-35 16,-60 55,-60l44 0c39,0 55,25 55,60l0 23c0,34 -16,54 -55,54l-44 0zm15 -185c-39,0 -51,-19 -51,-53l0 -11c0,-34 13,-45 51,-45l13 0c39,0 51,11 51,45l0 11c0,34 -13,53 -51,53l-13 0zm134 108c0,-45 -20,-77 -55,-89 27,-15 36,-36 36,-72l0 -11c0,-63 -31,-94 -102,-94l-13 0c-71,0 -102,31 -102,94l0 11c0,35 9,57 36,72 -35,13 -55,44 -55,89l0 23c0,63 35,103 106,103l44 0c71,0 106,-40 106,-103l0 -23z"/>
   <path class="fil19 str8" d="M12916 14366c-16,0 -22,11 -22,23l0 195 -74 0 0 -195c0,-12 -6,-23 -22,-23 -16,0 -22,11 -22,23l0 195 -74 0 0 -195c0,-12 -6,-23 -22,-23 -16,0 -22,11 -22,23l0 214c0,12 6,23 22,23l237 0c16,0 22,-10 22,-23l0 -214c0,-12 -6,-23 -22,-23zm254 5l-162 0c-11,0 -22,5 -22,21 0,15 10,22 22,22l59 0 0 195c0,12 6,23 22,23 16,0 22,-11 22,-23l0 -195 59 0c11,0 22,-6 22,-22 0,-16 -10,-21 -22,-21z"/>
   <path class="fil20 str9" d="M12461 14717c-164,-134 -269,-338 -269,-567 0,-228 105,-432 269,-567m926 0c164,134 269,338 269,567 0,228 -105,432 -269,567"/>
   <path class="fil21 str10" d="M10125 9552l0 5870c-1591,0 -2656,0 -4247,0l0 -5870 4247 0z"/>
   <path class="fil22" d="M5878 9552l4247 0 0 2424 -4247 -2018c7,-209 0,-267 0,-406z"/>
   <path class="fil18 str11" d="M7043 11849c0,28 16,60 47,73 -3,5 -5,9 -9,20 0,0 -31,69 -35,78 -4,8 -1,19 11,24 12,5 20,-1 24,-10 4,-9 46,-105 46,-105l50 0 0 99c0,9 6,18 18,18 13,0 18,-9 18,-18l0 -243c0,-9 -6,-18 -18,-18l-75 0c-50,0 -76,31 -76,72l0 11zm75 43c-27,0 -38,-19 -38,-43l0 -11c0,-22 11,-37 39,-37l57 0 0 91 -58 0zm359 148c7,0 15,0 20,-1l-22 38c-2,3 -3,7 -3,10 0,7 7,18 19,18 7,0 12,-4 16,-10l37 -65c1,-2 2,-6 2,-9 0,-13 -8,-18 -17,-18l-16 0 0 -225c0,-9 -5,-18 -18,-18 -13,0 -19,9 -19,18l0 225 -66 0 0 -225c0,-10 -6,-18 -18,-18 -11,0 -17,9 -17,18l0 225 -66 0 0 -225c0,-9 -5,-18 -19,-18 -13,0 -18,9 -18,18l0 243c0,9 5,18 18,18l186 0zm248 -14c0,9 5,18 18,18 13,0 18,-9 18,-18l0 -247c0,-9 -6,-18 -19,-18 -7,0 -13,3 -18,13l-105 187 0 0c1,-7 2,-16 2,-27l0 -155c0,-9 -5,-18 -18,-18 -13,0 -18,9 -18,18l0 247c0,9 5,18 19,18 7,0 13,-3 18,-13l105 -187 0 0c-1,7 -2,16 -2,27l0 155zm271 -11l-84 -120 80 -104c7,-9 7,-19 -1,-26 -9,-9 -21,-4 -27,4l-82 112 -24 0 0 -102c0,-9 -6,-18 -18,-18 -13,0 -19,9 -19,18l0 247c0,9 5,18 19,18 13,0 18,-9 18,-18l0 -110 24 0 84 120c5,8 15,12 26,5 11,-8 10,-18 5,-26zm378 -86c0,11 2,22 2,29l0 0 -89 -183c-5,-9 -11,-13 -18,-13 -13,0 -19,9 -19,18l0 247c0,9 5,18 18,18 13,0 18,-9 18,-18l0 -149c0,-11 -2,-22 -2,-29l0 0 89 183c5,9 11,13 18,13 13,0 19,-9 19,-18l0 -247c0,-9 -5,-18 -18,-18 -13,0 -18,9 -18,18l0 149zm99 -84c-12,0 -15,-7 -15,-18l0 -20c0,-11 3,-18 15,-18l6 0c12,0 15,7 15,18l0 20c0,11 -3,18 -15,18l-6 0zm6 26c27,0 40,-18 40,-42l0 -24c0,-24 -13,-42 -40,-42l-7 0c-27,0 -40,18 -40,42l0 24c0,24 13,42 40,42l7 0zm27 46c8,0 14,-4 14,-14 0,-10 -6,-14 -14,-14l-60 0c-8,0 -15,4 -15,14 0,10 6,14 15,14l60 0zm91 57c0,-18 7,-32 20,-38l72 -33c35,-16 43,-43 43,-70l0 -2c0,-45 -26,-70 -77,-70l-24 0c-40,0 -66,17 -66,59 0,10 5,18 18,18 13,0 18,-8 18,-18 0,-16 11,-24 29,-24l24 0c28,0 40,11 40,35l0 2c0,18 -6,30 -22,37l-67 30c-31,13 -46,43 -46,77l0 63 158 0c10,0 18,-5 18,-18 0,-13 -8,-18 -18,-18l-121 0 0 -31z"/>
   <path class="fil23 str12" d="M7584 10881l37 119c5,16 20,26 38,20 17,-6 24,-22 19,-39l-132 -425c-5,-15 -12,-23 -31,-23l-3 0c-18,0 -26,8 -31,23l-132 425c-5,16 2,33 19,39 18,6 33,-3 38,-20l37 -119 142 0zm-81 -205c5,-15 7,-22 10,-39l1 0c3,16 5,24 10,39l44 148 -109 0 44 -148zm525 295l-140 -207 133 -180c12,-16 12,-33 -1,-45 -16,-15 -35,-7 -46,7l-137 193 -39 0 0 -176c0,-16 -9,-31 -30,-31 -22,0 -31,15 -31,31l0 426c0,16 9,31 31,31 21,0 30,-15 30,-31l0 -189 40 0 140 207c8,14 25,21 42,9 18,-14 17,-32 8,-45zm190 50c22,0 31,-15 31,-31l0 -390 95 0c15,0 29,-9 29,-31 0,-20 -14,-31 -29,-31l-252 0c-15,0 -29,10 -29,31 0,22 14,31 29,31l95 0 0 390c0,16 9,31 31,31z"/>
   <g>
    <path class="fil18" d="M6336 11476l0 100 -3 0 -3 0 -3 0 -3 0 -3 -1 -3 -1 -3 -1 -2 -1 -2 -1 -2 -1 -2 -1 -2 -1 -2 -1 -2 -1 -2 -2 -2 -2 -2 -2 -2 -2 -2 -2 -2 -2 -1 -2 -1 -2 -1 -2 -1 -2 -1 -2 -1 -2 -1 -2 -1 -2 0 -2 0 -3 0 -3 0 -3 0 -3 0 -3 0 -3 0 -2 1 -2 1 -2 1 -2 1 -2 1 -2 1 -2 1 -2 1 -2 2 -2 2 -2 2 -2 2 -2 2 -2 2 -2 2 -1 2 -1 2 -1 2 -1 2 -1 2 -1 2 -1 3 -1 3 -1 3 -1 3 0 3 0 3 0 3 0zm3330 100l-3330 0 0 -100 3330 0 0 100zm0 0l0 -100 3 0 3 0 3 0 3 0 3 1 3 1 3 1 2 1 2 1 2 1 2 1 2 1 2 1 2 1 2 2 2 2 2 2 2 2 2 2 2 2 1 2 1 2 1 2 1 2 1 2 1 2 1 2 1 2 0 2 0 3 0 3 0 3 0 3 0 3 0 3 0 2 -1 2 -1 2 -1 2 -1 2 -1 2 -1 2 -1 2 -1 2 -2 2 -2 2 -2 2 -2 2 -2 2 -2 2 -2 1 -2 1 -2 1 -2 1 -2 1 -2 1 -2 1 -3 1 -3 1 -3 1 -3 0 -3 0 -3 0 -3 0z"/>
   </g>
   <g>
    <path class="fil18" d="M6374 14313l0 101 -2 0 -2 0 -2 0 -2 0 -2 -1 -2 -1 -2 -1 -2 -1 -2 -1 -2 -1 -2 -1 -2 -1 -2 -1 -2 -2 -2 -2 -2 -2 -2 -2 -1 -2 -1 -2 -1 -2 -1 -2 -1 -2 -1 -2 -1 -2 -1 -2 -1 -2 -1 -2 -1 -2 0 -2 0 -3 0 -3 0 -3 0 -3 0 -3 0 -3 0 -2 1 -2 1 -2 1 -2 1 -2 1 -2 1 -2 1 -2 1 -2 1 -2 1 -2 1 -2 2 -2 2 -2 2 -2 2 -2 2 -1 2 -1 2 -1 2 -1 2 -1 2 -1 2 -1 2 -1 2 -1 2 0 2 0 2 0 2 0zm1746 101l-1746 0 0 -101 1746 0 0 101zm0 0l0 -101 2 0 2 0 2 0 2 0 2 1 2 1 2 1 2 1 2 1 2 1 2 1 2 1 2 1 2 2 2 2 2 2 2 2 1 2 1 2 1 2 1 2 1 2 1 2 1 2 1 2 1 2 1 2 1 2 0 2 0 3 0 3 0 3 0 3 0 3 0 3 0 2 -1 2 -1 2 -1 2 -1 2 -1 2 -1 2 -1 2 -1 2 -1 2 -1 2 -1 2 -2 2 -2 2 -2 2 -2 2 -2 1 -2 1 -2 1 -2 1 -2 1 -2 1 -2 1 -2 1 -2 1 -2 0 -2 0 -2 0 -2 0zm-1746 -971l0 101 -2 0 -2 0 -2 0 -2 0 -2 -1 -2 -1 -2 -1 -2 -1 -2 -1 -2 -1 -2 -1 -2 -1 -2 -1 -2 -2 -2 -2 -2 -2 -2 -2 -1 -2 -1 -2 -1 -2 -1 -2 -1 -2 -1 -2 -1 -2 -1 -2 -1 -2 -1 -2 -1 -2 0 -2 0 -3 0 -3 0 -3 0 -3 0 -3 0 -3 0 -2 1 -2 1 -2 1 -2 1 -2 1 -2 1 -2 1 -2 1 -2 1 -2 1 -2 1 -2 2 -2 2 -2 2 -2 2 -2 2 -1 2 -1 2 -1 2 -1 2 -1 2 -1 2 -1 2 -1 2 -1 2 0 2 0 2 0 2 0zm2457 101l-2457 0 0 -101 2457 0 0 101zm0 0l0 -101 2 0 2 0 2 0 2 0 2 1 2 1 2 1 2 1 2 1 2 1 2 1 2 1 2 1 2 2 2 2 2 2 2 2 1 2 1 2 1 2 1 2 1 2 1 2 1 2 1 2 1 2 1 2 1 2 0 2 0 3 0 3 0 3 0 3 0 3 0 3 0 2 -1 2 -1 2 -1 2 -1 2 -1 2 -1 2 -1 2 -1 2 -1 2 -1 2 -1 2 -2 2 -2 2 -2 2 -2 2 -2 1 -2 1 -2 1 -2 1 -2 1 -2 1 -2 1 -2 1 -2 1 -2 0 -2 0 -2 0 -2 0zm-2457 189l0 101 -2 0 -2 0 -2 0 -2 0 -2 -1 -2 -1 -2 -1 -2 -1 -2 -1 -2 -1 -2 -1 -2 -1 -2 -1 -2 -2 -2 -2 -2 -2 -2 -2 -1 -2 -1 -2 -1 -2 -1 -2 -1 -2 -1 -2 -1 -2 -1 -2 -1 -2 -1 -2 -1 -2 0 -2 0 -3 0 -3 0 -3 0 -3 0 -3 0 -3 0 -2 1 -2 1 -2 1 -2 1 -2 1 -2 1 -2 1 -2 1 -2 1 -2 1 -2 1 -2 2 -2 2 -2 2 -2 2 -2 2 -1 2 -1 2 -1 2 -1 2 -1 2 -1 2 -1 2 -1 2 -1 2 0 2 0 2 0 2 0zm3308 101l-3308 0 0 -101 3308 0 0 101zm0 0l0 -101 2 0 2 0 2 0 2 0 2 1 2 1 2 1 2 1 2 1 2 1 2 1 2 1 2 1 2 2 2 2 2 2 2 2 1 2 1 2 1 2 1 2 1 2 1 2 1 2 1 2 1 2 1 2 1 2 0 2 0 3 0 3 0 3 0 3 0 3 0 3 0 2 -1 2 -1 2 -1 2 -1 2 -1 2 -1 2 -1 2 -1 2 -1 2 -1 2 -1 2 -2 2 -2 2 -2 2 -2 2 -2 1 -2 1 -2 1 -2 1 -2 1 -2 1 -2 1 -2 1 -2 1 -2 0 -2 0 -2 0 -2 0zm-3308 189l0 101 -2 0 -2 0 -2 0 -2 0 -2 -1 -2 -1 -2 -1 -2 -1 -2 -1 -2 -1 -2 -1 -2 -1 -2 -1 -2 -2 -2 -2 -2 -2 -2 -2 -1 -2 -1 -2 -1 -2 -1 -2 -1 -2 -1 -2 -1 -2 -1 -2 -1 -2 -1 -2 -1 -2 0 -2 0 -3 0 -3 0 -3 0 -3 0 -3 0 -3 0 -2 1 -2 1 -2 1 -2 1 -2 1 -2 1 -2 1 -2 1 -2 1 -2 1 -2 1 -2 2 -2 2 -2 2 -2 2 -2 2 -1 2 -1 2 -1 2 -1 2 -1 2 -1 2 -1 2 -1 2 -1 2 0 2 0 2 0 2 0zm3308 101l-3308 0 0 -101 3308 0 0 101zm0 0l0 -101 2 0 2 0 2 0 2 0 2 1 2 1 2 1 2 1 2 1 2 1 2 1 2 1 2 1 2 2 2 2 2 2 2 2 1 2 1 2 1 2 1 2 1 2 1 2 1 2 1 2 1 2 1 2 1 2 0 2 0 3 0 3 0 3 0 3 0 3 0 3 0 2 -1 2 -1 2 -1 2 -1 2 -1 2 -1 2 -1 2 -1 2 -1 2 -1 2 -1 2 -2 2 -2 2 -2 2 -2 2 -2 1 -2 1 -2 1 -2 1 -2 1 -2 1 -2 1 -2 1 -2 1 -2 0 -2 0 -2 0 -2 0z"/>
   </g>
   <path class="fil19 str13" d="M6586 12872c0,17 8,31 29,31 21,0 29,-14 29,-31l0 -56c0,-93 18,-151 61,-226l65 -111c16,-26 5,-46 -24,-46l-234 0c-16,0 -28,9 -28,30 0,21 13,30 28,30l184 0 -40 65c-56,91 -72,152 -72,258l0 56z"/>
   <path class="fil20 str14" d="M10125 9552l0 5870c-1591,0 -2656,0 -4247,0l0 -5870 4247 0z"/>
   <path class="fil20 str15" d="M8844 14367c-359,1250 -114,542 -281,430 -167,-111 608,-537 557,-195 -51,342 -608,260 -592,332 15,72 233,122 299,-61 66,-182 -30,142 142,86 172,-56 243,-218 215,-127 -28,91 20,76 111,20 91,-56 195,-114 195,-114"/>
   <g>
    <path class="fil18" d="M6336 11933l0 100 -3 0 -3 0 -3 0 -3 0 -3 -1 -3 -1 -3 -1 -2 -1 -2 -1 -2 -1 -2 -1 -2 -1 -2 -1 -2 -1 -2 -2 -2 -2 -2 -2 -2 -2 -2 -2 -2 -2 -1 -2 -1 -2 -1 -2 -1 -2 -1 -2 -1 -2 -1 -2 -1 -2 0 -2 0 -3 0 -3 0 -3 0 -3 0 -3 0 -3 0 -2 1 -2 1 -2 1 -2 1 -2 1 -2 1 -2 1 -2 1 -2 2 -2 2 -2 2 -2 2 -2 2 -2 2 -2 2 -1 2 -1 2 -1 2 -1 2 -1 2 -1 2 -1 3 -1 3 -1 3 -1 3 0 3 0 3 0 3 0zm455 100l-455 0 0 -100 455 0 0 100zm0 0l0 -100 3 0 3 0 3 0 3 0 3 1 3 1 3 1 2 1 2 1 2 1 2 1 2 1 2 1 2 1 2 2 2 2 2 2 2 2 2 2 2 2 1 2 1 2 1 2 1 2 1 2 1 2 1 2 1 2 0 2 0 3 0 3 0 3 0 3 0 3 0 3 0 2 -1 2 -1 2 -1 2 -1 2 -1 2 -1 2 -1 2 -1 2 -2 2 -2 2 -2 2 -2 2 -2 2 -2 2 -2 1 -2 1 -2 1 -2 1 -2 1 -2 1 -2 1 -3 1 -3 1 -3 1 -3 0 -3 0 -3 0 -3 0z"/>
   </g>
   <path class="fil19 str16" d="M7191 12878c0,11 6,22 20,22 15,0 21,-10 21,-22l0 -299c0,-11 -6,-22 -21,-22 -9,0 -14,3 -21,16l-120 226 0 0c1,-9 2,-20 2,-33l0 -188c0,-11 -6,-22 -20,-22 -15,0 -21,10 -21,22l0 299c0,11 6,22 21,22 9,0 14,-3 21,-16l120 -226 0 0c-1,9 -2,20 -2,33l0 188zm760 0c0,11 6,22 20,22 15,0 21,-10 21,-22l0 -299c0,-11 -6,-22 -21,-22 -9,0 -14,3 -21,16l-120 226 0 0c1,-9 2,-20 2,-33l0 -188c0,-11 -6,-22 -20,-22 -15,0 -21,10 -21,22l0 299c0,11 6,22 21,22 9,0 14,-3 21,-16l120 -226 0 0c-1,9 -2,20 -2,33l0 188zm-520 -233c0,29 -19,55 -49,55l-16 0c-10,0 -20,7 -20,21 0,15 9,21 20,21l33 0c31,0 43,26 43,55l0 11c0,29 -10,49 -43,49l-34 0c-17,0 -34,-8 -36,-28 -1,-11 -6,-22 -21,-22 -15,0 -22,10 -22,22 0,45 32,71 77,71l37 0c54,0 82,-39 82,-92l0 -11c0,-39 -17,-74 -52,-83 30,-14 41,-40 41,-69 0,-52 -24,-87 -84,-87l-20 0c-46,0 -77,24 -77,71 0,11 6,22 22,22 14,0 20,-10 21,-22 1,-19 19,-28 38,-28l16 0c30,0 42,13 42,45zm215 49l-65 0 0 -89 114 0c10,0 20,-6 20,-21 0,-14 -9,-21 -20,-21l-135 0c-15,0 -21,10 -21,22l0 289c0,11 6,22 21,22l86 0c58,0 86,-40 86,-92l0 -21c0,-53 -28,-87 -86,-87zm44 114c0,29 -12,45 -43,45l-66 0 0 -118 65 0c31,0 44,17 44,45l0 29zm413 -85l0 -118 70 0c31,0 44,17 44,45l0 24c0,29 -13,49 -44,49l-70 0zm70 43c58,0 86,-40 86,-92l0 -24c0,-53 -28,-88 -86,-88l-91 0c-14,0 -21,10 -21,22l0 294c0,11 6,22 21,22 15,0 21,-10 21,-22l0 -112 70 0zm263 36l25 83c3,11 14,18 26,14 12,-4 16,-16 13,-27l-90 -298c-3,-10 -9,-16 -21,-16l-2 0c-13,0 -18,6 -21,16l-90 298c-3,11 1,23 13,27 12,4 23,-2 26,-14l25 -83 97 0zm-56 -144c3,-10 4,-16 7,-27l0 0c2,11 4,17 7,27l30 104 -75 0 30 -104zm218 242c15,0 21,-10 21,-22l0 -273 65 0c10,0 20,-6 20,-21 0,-14 -9,-21 -20,-21l-173 0c-10,0 -20,7 -20,21 0,15 9,21 20,21l65 0 0 273c0,11 6,22 21,22zm320 -5c10,0 20,-6 20,-21 0,-14 -9,-21 -20,-21l-123 0 0 -107 101 0c10,0 20,-6 20,-21 0,-14 -9,-21 -20,-21l-101 0 0 -97 123 0c10,0 20,-6 20,-21 0,-14 -9,-21 -20,-21l-144 0c-14,0 -21,10 -21,22l0 289c0,11 6,22 21,22l144 0zm133 -60c3,-27 26,-230 26,-230l78 0 0 273c0,11 6,22 21,22 14,0 21,-10 21,-22l0 -294c0,-11 -6,-22 -21,-22l-117 0c-13,0 -20,9 -22,22 -1,14 -26,222 -28,240 -1,11 -3,18 -5,23 -4,9 -12,11 -25,11 -11,0 -21,7 -21,22 0,16 10,21 21,21 39,0 55,-13 64,-37 3,-9 5,-18 6,-30zm380 60c10,0 20,-6 20,-21 0,-14 -9,-21 -20,-21l-123 0 0 -107 101 0c10,0 20,-6 20,-21 0,-14 -9,-21 -20,-21l-101 0 0 -97 123 0c10,0 20,-6 20,-21 0,-14 -9,-21 -20,-21l-144 0c-14,0 -21,10 -21,22l0 289c0,11 6,22 21,22l144 0zm172 -363c41,0 62,-31 62,-64 0,-10 -7,-17 -17,-17 -9,0 -16,7 -17,17 -1,18 -12,30 -29,30 -17,0 -28,-13 -29,-30 -1,-10 -7,-17 -17,-17 -9,0 -17,7 -17,17 0,33 21,64 62,64zm59 346c0,11 6,22 20,22 15,0 21,-10 21,-22l0 -299c0,-11 -6,-22 -21,-22 -9,0 -14,3 -21,16l-120 226 0 0c1,-9 2,-20 2,-33l0 -188c0,-11 -6,-22 -20,-22 -15,0 -21,10 -21,22l0 299c0,11 6,22 21,22 9,0 14,-3 21,-16l120 -226 0 0c-1,9 -2,20 -2,33l0 188z"/>
  </g>
 </g>
</svg>
