<?xml version="1.0" encoding="UTF-8"?>
<!DOCTYPE svg PUBLIC "-//W3C//DTD SVG 1.0//EN" "http://www.w3.org/TR/2001/REC-SVG-20010904/DTD/svg10.dtd">
<!-- Creator: CorelDRAW X7 -->
<svg xmlns="http://www.w3.org/2000/svg" xml:space="preserve" width="200mm" height="200mm" version="1.0" style="shape-rendering:geometricPrecision; text-rendering:geometricPrecision; image-rendering:optimizeQuality; fill-rule:evenodd; clip-rule:evenodd"
viewBox="0 0 20000 20000"
 xmlns:xlink="http://www.w3.org/1999/xlink">
 <defs>
  <style type="text/css">
   <![CDATA[
    .str1 {stroke:#AB8082;stroke-width:81.77}
    .str5 {stroke:#737370;stroke-width:67.92;stroke-linecap:round;stroke-linejoin:round}
    .str3 {stroke:#B54F66;stroke-width:67.92;stroke-linecap:round;stroke-linejoin:round}
    .str0 {stroke:#2E99A3;stroke-width:132.61;stroke-linecap:round;stroke-linejoin:round}
    .str2 {stroke:#57A6B3;stroke-width:10.17;stroke-linecap:round;stroke-linejoin:round}
    .str4 {stroke:#CC5770;stroke-width:108.03;stroke-linecap:round;stroke-linejoin:round;stroke-dasharray:84.660000 253.980000}
    .fil9 {fill:none}
    .fil15 {fill:none;fill-rule:nonzero}
    .fil18 {fill:#FEFEFE}
    .fil29 {fill:#E98923}
    .fil58 {fill:#F2F2F1}
    .fil37 {fill:#EBECEC}
    .fil76 {fill:#EBEAEA}
    .fil62 {fill:#E1B691}
    .fil59 {fill:#E5E6E6}
    .fil20 {fill:#E4F2F4}
    .fil80 {fill:#E1EAE9}
    .fil71 {fill:#D5AC89}
    .fil65 {fill:#D5A982}
    .fil67 {fill:#CCA47D}
    .fil72 {fill:#D0D9D8}
    .fil21 {fill:#CEE2E3}
    .fil66 {fill:#B9906F}
    .fil79 {fill:#C4CDCD}
    .fil73 {fill:#C4CCCB}
    .fil77 {fill:#C2C9C8}
    .fil78 {fill:#B8BEBD}
    .fil19 {fill:#B8D0D5}
    .fil61 {fill:#AFB6B5}
    .fil25 {fill:#B2AFAF}
    .fil23 {fill:#AFC3C0}
    .fil38 {fill:#98754B}
    .fil70 {fill:#695345}
    .fil31 {fill:#9DADAB}
    .fil26 {fill:#979594}
    .fil68 {fill:#8DC297}
    .fil35 {fill:#888583}
    .fil30 {fill:#8A9EA1}
    .fil60 {fill:#6F7070}
    .fil33 {fill:#849491}
    .fil69 {fill:#7EB386}
    .fil36 {fill:#757171}
    .fil81 {fill:#709393}
    .fil22 {fill:#6E6C6B}
    .fil63 {fill:#70AE7B}
    .fil39 {fill:#6B823F}
    .fil27 {fill:#60AAA6}
    .fil32 {fill:#5A5654}
    .fil24 {fill:#514D4C}
    .fil34 {fill:#433F3E}
    .fil64 {fill:#4A7153}
    .fil28 {fill:#43827C}
    .fil74 {fill:#159799}
    .fil75 {fill:#148484}
    .fil50 {fill:#080808}
    .fil57 {fill:#423E2F}
    .fil56 {fill:#665A37}
    .fil49 {fill:#6E716D}
    .fil53 {fill:#718A92}
    .fil52 {fill:#726C57}
    .fil17 {fill:#738287}
    .fil54 {fill:#92A4A9}
    .fil45 {fill:#977837}
    .fil46 {fill:#A9A798}
    .fil8 {fill:#ABC9BF}
    .fil4 {fill:#B3B3B3}
    .fil40 {fill:#B8481D}
    .fil43 {fill:#BBA44C}
    .fil3 {fill:#BDD6D1}
    .fil7 {fill:#C4C7C7}
    .fil51 {fill:#C9B767}
    .fil2 {fill:#C9E6E8}
    .fil13 {fill:#CC5770}
    .fil44 {fill:#CCBB4B}
    .fil55 {fill:#D1C892}
    .fil41 {fill:#D8D7D4}
    .fil42 {fill:#D9C866}
    .fil5 {fill:#D9D9D9}
    .fil47 {fill:#E3CC4C}
    .fil48 {fill:#EAE369}
    .fil6 {fill:#2E99A3;fill-rule:nonzero}
    .fil1 {fill:#4D8A7D;fill-rule:nonzero}
    .fil11 {fill:#57A6B3;fill-rule:nonzero}
    .fil12 {fill:#5C5C5C;fill-rule:nonzero}
    .fil16 {fill:#738287;fill-rule:nonzero}
    .fil10 {fill:#AB8082;fill-rule:nonzero}
    .fil14 {fill:#B54F66;fill-rule:nonzero}
    .fil0 {fill:url(#id0)}
   ]]>
  </style>
  <radialGradient id="id0" gradientUnits="userSpaceOnUse" gradientTransform="matrix(1.41421 -0 -0 1.41421 -4145 -4154)" cx="10006.5" cy="10029.4" r="10000" fx="10006.5" fy="10029.4">
   <stop offset="0" style="stop-opacity:1; stop-color:#FEFEFE"/>
   <stop offset="0.431373" style="stop-opacity:1; stop-color:#FEFEFE"/>
   <stop offset="1" style="stop-opacity:1; stop-color:#D1E2F2"/>
  </radialGradient>
 </defs>
 <g id="Слой_x0020_1">
  <metadata id="CorelCorpID_0Corel-Layer"/>
  <g id="_623355069888">
   <path class="fil0" d="M6 29l20000 0 0 20000 -20000 0 0 -20000z"/>
   <g>
    <path class="fil1" d="M2716 7112c-43,0 -78,-29 -78,-65 0,-36 35,-65 78,-65l0 130zm14567 0l-14567 0 0 -130 14567 0 0 130zm0 -130c44,0 79,29 79,65 0,36 -35,65 -79,65l0 -130z"/>
   </g>
   <path class="fil2" d="M8339 6458l0 -3493 3340 0 0 3493 -3340 0z"/>
   <path class="fil3" d="M12557 5393l0 -3393 -878 965 0 3493 878 -1065z"/>
   <path class="fil4" d="M12500 2403l0 -326 -821 888 0 326 821 -888z"/>
   <g>
    <path class="fil5" d="M9316 2000l3241 0 -878 965 -3340 0 977 -965z"/>
    <path id="1" class="fil6" d="M12557 2066l-3241 0 0 -132 3241 0 48 111 -48 21zm0 -132c36,0 65,29 65,66 0,36 -29,66 -65,66l0 -132zm-926 986l877 -965 97 90 -877 965 -49 21 -48 -111zm97 90c-25,27 -66,28 -93,4 -27,-25 -28,-67 -4,-94l97 90zm-3389 -112l3340 0 0 133 -3340 0 -46 -114 46 -19zm0 133c-36,0 -65,-30 -65,-66 0,-37 29,-67 65,-67l0 133zm1023 -984l-977 965 -92 -95 977 -965 46 -18 46 113zm-92 -95c26,-25 68,-25 93,2 26,26 25,68 -1,93l-92 -95z"/>
   </g>
   <path class="fil7" d="M8339 3291l0 -326 3340 0 0 326 -3340 0z"/>
   <path class="fil3" d="M9243 5493l3240 0 -804 965 -3340 0 904 -965z"/>
   <path class="fil8" d="M11679 5493l0 965 795 -965 -795 0z"/>
   <g>
    <path class="fil6" d="M12623 2000l0 3393 -133 0 0 -3393 17 -44 116 44zm-133 0c0,-36 30,-66 67,-66 36,0 66,30 66,66l-133 0zm-860 921l877 -965 99 88 -877 965 -116 -44 17 -44zm99 88c-25,27 -67,29 -94,5 -27,-25 -29,-66 -5,-93l99 88zm-116 3449l0 -3493 133 0 0 3493 -15 42 -118 -42zm133 0c0,36 -30,66 -67,66 -36,0 -66,-30 -66,-66l133 0zm862 -1023l-877 1065 -103 -83 877 -1065 118 41 -15 42zm-103 -83c23,-28 65,-32 93,-9 29,22 33,64 10,92l-103 -83z"/>
   </g>
   <path class="fil9 str0" d="M12557 2399l-811 892 -3394 0"/>
   <path class="fil9 str0" d="M8339 6458l0 -3493 3340 0 0 3493 -3340 0z"/>
   <path class="fil10 str1" d="M10346 4067c-21,0 -35,9 -47,21 -63,70 -135,140 -211,209 -23,22 -32,50 -1,81 29,29 56,18 79,-1 47,-39 96,-89 136,-137l0 634 -163 0c-32,0 -58,17 -58,59 0,42 26,58 58,58l422 0c33,0 59,-16 59,-58 0,-42 -26,-59 -59,-59l-137 0 0 -746c0,-34 -10,-61 -56,-61l-22 0z"/>
   <path class="fil10" d="M9585 4753c0,23 3,46 5,61l-1 0 -190 -390c-10,-20 -23,-28 -39,-28 -29,0 -41,18 -41,38l0 527c0,20 11,39 40,39 27,0 38,-19 38,-39l0 -319c0,-22 -4,-46 -5,-61l0 0 190 390c10,20 24,29 39,29 29,0 41,-19 41,-39l0 -527c0,-20 -11,-38 -40,-38 -27,0 -37,18 -37,38l0 319zm212 -180c-25,0 -32,-14 -32,-38l0 -42c0,-23 7,-38 32,-38l12 0c26,0 32,15 32,38l0 42c0,24 -6,38 -32,38l-12 0zm13 56c58,0 86,-39 86,-90l0 -50c0,-51 -28,-89 -86,-89l-14 0c-58,0 -86,38 -86,89l0 50c0,51 28,90 86,90l14 0zm58 99c18,0 30,-8 30,-30 0,-22 -12,-30 -30,-30l-129 0c-18,0 -31,8 -31,30 0,22 13,30 31,30l129 0z"/>
   <path class="fil11 str2" d="M9407 5585c0,-41 -18,-67 -53,-79 24,-15 36,-34 36,-65l0 -17c0,-57 -32,-85 -95,-85l-59 0c-17,0 -24,11 -24,23l0 306c0,12 7,23 24,23l75 0c64,0 96,-34 96,-90l0 -16zm-148 -51l52 0c35,0 49,20 49,51l0 16c0,30 -14,45 -49,45l-52 0 0 -112zm0 -44l0 -106 36 0c34,0 48,10 48,40l0 17c0,30 -14,49 -48,49l-36 0zm286 -15l-34 0 0 -118c0,-12 -7,-23 -24,-23 -17,0 -24,11 -24,23l0 310c0,13 7,24 23,24l59 0c64,0 94,-34 94,-91l0 -30c0,-55 -30,-95 -94,-95zm-34 45l34 0c35,0 47,20 47,50l0 30c0,31 -12,46 -47,46l-34 0 0 -126zm211 153l0 -316c0,-12 -7,-23 -24,-23 -16,0 -23,11 -23,23l0 316c0,12 6,23 23,23 16,0 24,-11 24,-23zm165 -195l-46 0 0 -94 102 0c12,0 22,-7 22,-23 0,-15 -10,-22 -22,-22l-126 0c-16,0 -23,9 -23,22l0 307c0,12 8,23 24,23l69 0c64,0 93,-34 93,-90l0 -29c0,-56 -29,-94 -93,-94zm47 123c0,30 -13,45 -47,45l-46 0 0 -126 46 0c34,0 47,20 47,50l0 31zm144 -169c0,-31 12,-53 46,-53l15 0c35,0 46,22 46,53l0 166c0,31 -11,53 -46,53l-15 0c-34,0 -46,-22 -46,-53l0 -166zm155 0c0,-56 -30,-98 -94,-98l-15 0c-64,0 -93,42 -93,98l0 166c0,55 29,98 93,98l15 0c64,0 94,-43 94,-98l0 -166zm114 77l0 -125 51 0c35,0 47,15 47,45l0 30c0,31 -12,50 -47,50l-51 0zm51 45c64,0 93,-40 93,-95l0 -30c0,-57 -29,-90 -93,-90l-75 0c-16,0 -23,11 -23,23l0 311c0,12 7,23 24,23 16,0 23,-11 23,-23l0 -119 51 0zm233 -79l-35 0 0 -118c0,-12 -7,-23 -24,-23 -16,0 -23,11 -23,23l0 310c0,13 7,24 23,24l59 0c64,0 93,-34 93,-91l0 -30c0,-55 -29,-95 -93,-95zm-35 45l35 0c34,0 47,20 47,50l0 30c0,31 -13,46 -47,46l-35 0 0 -126zm211 153l0 -316c0,-12 -7,-23 -23,-23 -16,0 -24,11 -24,23l0 316c0,12 7,23 23,23 16,0 24,-11 24,-23z"/>
   <g>
    <path class="fil12" d="M9390 2582c-53,0 -95,-44 -95,-100 0,-55 42,-100 95,-100l0 200zm2027 0l-2027 0 0 -200 2027 0 0 200zm0 -200c53,0 95,45 95,100 0,56 -42,100 -95,100l0 -200z"/>
   </g>
   <path class="fil13" d="M8263 2382l32 42c20,-12 40,-23 61,-34 26,-13 59,-3 72,24 14,27 4,61 -23,74 -15,8 -30,14 -44,23l17 23 -88 265 -671 508 -96 -127 -115 -152 -96 -126 672 -508 279 -12z"/>
   <path class="fil9 str3" d="M8068 2714c-8,-47 -52,-79 -100,-71 -47,8 -78,53 -71,100"/>
   <path class="fil9 str4" d="M9349 2860c113,354 -75,736 -427,861"/>
   <path class="fil14" d="M8371 2385c140,-63 294,-80 440,-54 177,32 343,129 461,284l0 0c14,18 27,37 39,57 22,35 1,67 -40,67l-60 0c-12,-21 -11,-40 -25,-59l0 0 0 0c-100,-133 -243,-215 -394,-243 -128,-23 -263,-7 -384,50l-3 1c27,-13 37,-47 23,-74 -11,-22 -34,-33 -57,-29zm-157 1248c135,108 306,169 487,163 30,0 53,-25 52,-55 -1,-30 -26,-53 -56,-52 -154,4 -301,-48 -416,-140 -248,-198 -221,-406 -237,-700 -2,-36 -4,-75 -7,-129 -2,-29 -27,-52 -57,-50 -30,1 -52,27 -51,57 3,38 5,85 7,128 18,334 -3,553 278,778zm-329 -1164c-36,-137 -94,-284 -167,-433 -75,-153 -169,-311 -274,-464 -17,-25 -11,-59 13,-76 25,-16 59,-10 76,14 107,157 203,319 282,479 69,141 124,279 163,410l-93 70z"/>
   <path class="fil15 str5" d="M9165 2699c8,47 53,78 100,70 47,-9 78,-54 70,-101"/>
   <path class="fil15 str5" d="M8690 3829c48,3 89,-33 93,-80 3,-48 -33,-89 -80,-93"/>
   <path class="fil16" d="M12045 2794c-2,-76 41,-140 96,-143 55,-2 101,57 103,133 16,645 291,1034 583,1446l0 0 0 0c2,3 4,6 6,9 152,217 244,424 227,594 -20,191 -150,311 -439,318l0 -276c166,-3 236,-33 241,-81 8,-74 -61,-205 -172,-362 -1,-2 -3,-4 -4,-6l0 0 0 0 -1 -2 0 0c-320,-451 -621,-878 -640,-1630z"/>
   <path class="fil17" d="M12251 2650c59,0 106,92 106,206 0,114 -47,206 -106,206 -59,0 -107,-92 -107,-206 0,-114 48,-206 107,-206z"/>
   <path class="fil18" d="M16826 13875l245 -142 -71 -123 -245 142 71 123z"/>
   <path class="fil19" d="M13838 12349l-1402 812 1402 809 1402 -809 -1402 -812z"/>
   <path class="fil20" d="M13840 9575l-1412 818 1412 814 1411 -814 -1411 -818z"/>
   <path class="fil21" d="M13838 13970l-1402 -809 0 -2763 1402 808 0 2764z"/>
   <path class="fil22" d="M13018 11509l-242 -139 0 -476 242 139 0 476z"/>
   <path class="fil22" d="M13497 11770l-241 -140 0 -476 241 140 0 476z"/>
   <path class="fil22" d="M13018 12077l-242 -139 0 -476 242 139 0 476z"/>
   <path class="fil22" d="M13497 12338l-241 -140 0 -475 241 139 0 476z"/>
   <path class="fil22" d="M13018 12645l-242 -139 0 -476 242 139 0 476z"/>
   <path class="fil22" d="M13497 12906l-241 -140 0 -475 241 139 0 476z"/>
   <path class="fil23" d="M13838 13962l1402 -808 0 -2764 -1402 809 0 2763z"/>
   <path class="fil24" d="M14420 12851l-242 139 0 476 242 -139 0 -476z"/>
   <path class="fil24" d="M14899 12591l-241 139 0 476 241 -139 0 -476z"/>
   <path class="fil24" d="M14420 12283l-242 139 0 476 242 -139 0 -476z"/>
   <path class="fil24" d="M14899 12023l-241 139 0 476 241 -140 0 -475z"/>
   <path class="fil24" d="M14420 11715l-242 139 0 476 242 -139 0 -476z"/>
   <path class="fil24" d="M14899 11455l-241 139 0 476 241 -140 0 -475z"/>
   <path class="fil24" d="M14420 11147l-242 139 0 476 242 -139 0 -476z"/>
   <path class="fil24" d="M14899 10886l-241 140 0 475 241 -139 0 -476z"/>
   <path class="fil22" d="M13433 13669l-296 -171 0 -584 296 171 0 584z"/>
   <path class="fil22" d="M13137 13497l-296 -170 0 -584 296 170 0 584z"/>
   <path class="fil25" d="M13537 13107l-104 60 -696 -415 101 -52 699 407z"/>
   <path class="fil26" d="M12737 12752l0 39 696 415 0 -39 -696 -415z"/>
   <path class="fil22" d="M13433 13206l104 -62 0 -37 -104 60 0 39z"/>
   <path class="fil19" d="M11380 13123l-1884 1092 1884 1087 1884 -1087 -1884 -1092z"/>
   <path class="fil20" d="M11351 9668l-1655 959 1655 955 1655 -955 -1655 -959z"/>
   <path class="fil21" d="M11380 15302l-1884 -1087 0 -3714 1884 1086 0 3715z"/>
   <path class="fil27" d="M10278 11994l-324 -187 0 -639 324 187 0 639z"/>
   <path class="fil27" d="M10923 12344l-325 -187 0 -639 325 187 0 639z"/>
   <path class="fil27" d="M10278 12758l-324 -187 0 -640 324 187 0 640z"/>
   <path class="fil27" d="M10923 13108l-325 -187 0 -640 325 187 0 640z"/>
   <path class="fil27" d="M10278 13521l-324 -187 0 -639 324 187 0 639z"/>
   <path class="fil27" d="M10923 13871l-325 -187 0 -639 325 187 0 639z"/>
   <path class="fil23" d="M11380 15291l1884 -1086 0 -3714 -1884 1086 0 3714z"/>
   <path class="fil28" d="M12162 13035l-324 187 0 639 324 -187 0 -639z"/>
   <path class="fil28" d="M12807 12685l-325 187 0 639 325 -187 0 -639z"/>
   <path class="fil28" d="M12162 12271l-324 187 0 640 324 -187 0 -640z"/>
   <path class="fil28" d="M12807 11921l-325 187 0 640 325 -187 0 -640z"/>
   <path class="fil28" d="M12162 11508l-324 187 0 639 324 -187 0 -639z"/>
   <path class="fil28" d="M12807 11158l-325 187 0 639 325 -187 0 -639z"/>
   <path class="fil22" d="M10836 14897l-398 -230 0 -785 398 230 0 785z"/>
   <path class="fil22" d="M10438 14667l-398 -230 0 -785 398 230 0 785z"/>
   <path class="fil25" d="M10975 14142l-140 81 -934 -558 136 -70 938 547z"/>
   <path class="fil26" d="M9901 13665l0 52 934 558 0 -52 -934 -558z"/>
   <path class="fil22" d="M10835 14275l140 -83 0 -50 -140 81 0 52z"/>
   <path class="fil22" d="M12042 14821l398 -229 0 -785 -398 230 0 784z"/>
   <path class="fil22" d="M12440 14591l399 -229 0 -785 -399 229 0 785z"/>
   <path class="fil25" d="M11903 14067l140 81 935 -559 -136 -70 -939 548z"/>
   <path class="fil26" d="M12978 13589l0 52 -935 558 0 -51 935 -559z"/>
   <path class="fil22" d="M12043 14199l-140 -83 0 -49 140 81 0 51z"/>
   <path class="fil29" d="M11974 10442l-274 -173 -448 260 -365 -212 -291 170 364 210 -436 253 274 170 448 -258 365 210 291 -167 -365 -211 437 -252z"/>
   <path class="fil30" d="M13838 13962l0 0 0 -1538 0 1538 941 -542 -941 542z"/>
   <path class="fil31" d="M13838 13962l-574 -323 0 -68 169 98 0 -464 104 -61 0 -37 -104 60 104 -60 -273 -159 0 -177 233 135 0 -476 -233 -135 0 -92 233 135 0 -476 -233 -135 0 -92 233 135 0 -246 341 900 0 1538zm-452 -2733l-122 -70 0 -251 122 321z"/>
   <path class="fil32" d="M13497 11770l-233 -135 0 -476 122 70 111 295 0 246z"/>
   <path class="fil32" d="M13497 12338l-233 -135 0 -476 233 135 0 476z"/>
   <path class="fil32" d="M13497 12906l-233 -135 0 -476 233 135 0 476z"/>
   <path class="fil33" d="M13838 13962l0 -1538 0 427 340 206 0 409 242 -139 0 -124 359 217 -941 542z"/>
   <path class="fil34" d="M14178 13466l0 -409 242 146 0 124 -242 139z"/>
   <path class="fil32" d="M13433 13669l-169 -98 0 -466 169 101 0 -39 -169 -100 169 100 0 0 0 0 0 39 0 -1 0 464z"/>
   <path class="fil35" d="M13433 13167l-169 -100 0 -119 273 159 -104 60 0 0z"/>
   <path class="fil36" d="M13433 13206l-169 -101 0 -38 169 100 0 39z"/>
   <path class="fil32" d="M13433 13206l0 -39 0 0 104 -60 0 37 -104 61 0 1z"/>
   <path class="fil33" d="M13264 13639l-8 -5 0 -2748 8 22 0 251 0 476 0 92 0 476 0 92 0 476 0 177 0 119 0 38 0 466 0 68z"/>
   <path class="fil37" d="M12747 16563l363 -211 -135 -71 -376 196 148 86z"/>
   <path class="fil37" d="M13435 16190l362 -210 -135 -72 -375 197 148 85z"/>
   <path class="fil37" d="M14071 15653l363 -210 -136 -72 -375 196 148 86z"/>
   <path class="fil37" d="M14839 15263l363 -210 -135 -72 -376 196 148 86z"/>
   <path class="fil37" d="M15521 14873l363 -210 -135 -72 -376 197 148 85z"/>
   <path class="fil37" d="M16183 14464l363 -210 -135 -72 -376 197 148 85z"/>
   <path class="fil37" d="M16881 14090l363 -210 -135 -72 -376 196 148 86z"/>
   <path class="fil37" d="M10268 16061l404 233 160 -92 -409 -255 -155 114z"/>
   <path class="fil37" d="M9330 15507l403 233 161 -93 -410 -255 -154 115z"/>
   <path class="fil37" d="M8409 14922l404 234 160 -93 -409 -255 -155 114z"/>
   <path class="fil37" d="M7448 14386l404 233 160 -93 -409 -255 -155 115z"/>
   <path class="fil38" d="M16961 14551l-124 0 0 -577 124 0 0 577z"/>
   <path class="fil39" d="M16545 13681c0,-183 149,-332 333,-332 183,0 332,149 332,332 0,184 -149,333 -332,333 -184,0 -333,-149 -333,-333z"/>
   <path class="fil39" d="M16952 14490c-14,-28 -42,-47 -75,-47 -42,0 -76,31 -83,71l-6 -1c-27,0 -49,22 -49,49 0,27 22,50 49,50l3 -1c8,19 25,32 46,32 21,0 39,-13 46,-32 10,-1 19,-3 27,-7 9,5 18,8 29,8 34,0 61,-28 61,-62 0,-30 -21,-54 -48,-60z"/>
   <g>
    <path class="fil40" d="M14262 10324c-26,15 -38,31 -59,51 -69,70 4,26 -45,69 -28,24 -85,78 -97,124 -14,83 -39,136 42,243 34,44 25,16 72,83 56,80 189,121 276,57 72,-54 61,-67 72,-84 7,-10 32,-29 40,-37 32,-32 47,-81 61,-97 -2,-26 10,-50 6,-89 -1,-21 -9,-59 -17,-81 -12,-33 -54,-93 -74,-108 -22,-19 -17,-5 -26,-31 -9,-27 4,-12 -18,-35 -24,-25 -30,-35 -54,-52 -69,-50 -132,-21 -179,-13z"/>
    <path class="fil41" d="M13667 10822l-27 7c11,41 47,16 76,12l-6 68c32,-3 17,-5 44,-11 -2,62 41,39 75,59 13,-30 -8,-11 18,-24l4 11c0,1 3,7 4,9 3,2 -11,8 15,8 23,1 11,-6 30,-19l12 32c4,0 21,-2 24,-1 14,2 10,3 16,7 8,5 -8,9 43,12 -6,14 -7,5 -6,19 87,43 56,21 94,38 19,8 10,4 20,10 32,3 67,7 70,38 -16,7 -23,5 -38,9 -33,8 -4,6 -36,12 -14,9 -72,31 -91,35 -61,41 -51,-10 -71,39 29,42 52,-18 89,6 -60,41 -53,7 -66,36 7,6 5,9 34,0l113 -39c30,-9 42,-13 76,-18 41,-6 29,-3 56,-16 17,-8 -4,-8 25,-8l13 0c46,-36 45,-5 95,1 36,4 11,-3 32,11l59 23c17,5 17,3 33,10 20,7 18,8 41,13l58 23c6,0 63,11 75,14 58,16 -21,28 70,4 22,36 21,20 41,28 2,1 3,2 5,2 23,12 0,7 26,18 33,-14 -1,-10 39,-12 1,0 3,0 4,0l-18 -24c9,-20 0,-8 11,-17 11,-28 9,-11 5,-39 -21,-10 -50,-14 -70,-26 -23,-4 -18,-5 -34,-11 -13,-3 -24,-5 -38,-10 -18,-6 -53,-21 -73,-23l-153 -59c9,-11 34,-21 50,-25 12,-3 21,-4 33,-7 17,-5 15,-6 34,-11 42,-11 153,-68 182,-74 30,0 187,-55 221,-87l42 -38c12,-13 7,11 7,-20 -25,-9 -116,-8 -138,4 -31,15 -79,30 -114,42 -23,17 -72,33 -101,42 -4,1 -14,5 -14,5 -43,14 -78,27 -123,42 -33,10 -77,27 -116,43 -14,6 -18,5 -33,10 -115,37 -43,41 -131,8l-96 -36c-25,-11 -223,-70 -228,-85 -1,-2 -3,-1 -4,-3 -57,-25 -75,-21 -150,-54 -21,-9 -60,-17 -79,-25 -14,-6 -18,-19 -36,-6 -23,15 13,16 -24,18z"/>
    <path class="fil42" d="M13522 10242c-17,4 -5,-7 -6,10 -1,23 46,44 57,82l-42 -8c-3,41 26,66 59,86 18,12 17,6 24,23l-39 13c19,58 134,86 153,101 -16,19 0,2 -22,14 -25,13 -12,-1 -22,22 9,9 18,19 34,12 54,11 104,-6 161,-10l-33 -15c-79,-20 7,-7 -70,-29l-114 -54c-6,-3 -5,0 -17,-6 26,-17 27,4 85,20 10,3 13,2 25,6 17,5 49,20 73,4 -42,-11 -27,-8 -61,-26 -1,-1 -3,-2 -4,-3 -40,-20 -24,3 -32,-28 31,-8 54,17 81,32 35,19 71,17 94,30 -20,4 -44,6 -59,19 12,22 -8,15 48,10 18,-1 46,0 65,-1 53,-4 68,-38 85,-15 -13,6 -53,26 -62,26 -19,2 -23,-5 -41,-6 -44,-4 -31,-1 -40,20 12,1 33,1 46,3 20,3 6,-1 16,6l20 16c53,-7 -2,-5 42,-20 21,-8 -8,4 18,-1l17 -7c12,-46 69,-100 97,-124 49,-43 -24,1 45,-69 21,-20 33,-36 59,-51 9,-8 -6,1 16,-13 4,-2 13,-5 17,-6 21,-4 58,1 77,0 39,-2 23,2 31,-19 -29,0 -60,-4 -86,-3 -50,1 -19,17 -76,12l-1 24c-28,-8 -13,-15 -42,2 -12,8 -17,17 -35,25 -47,28 -36,63 -77,108 -56,61 -92,34 -118,17 2,-53 43,-65 69,-95 1,-43 -12,-23 -15,-71l-51 -53c-33,-29 -67,-43 -102,-65 -2,-1 -6,-3 -8,-4l-62 -39c-8,-5 -10,-8 -18,-12 -15,-9 -5,-5 -24,-12l0 17c-1,0 -3,-1 -4,-2 -25,-11 2,-2 -37,9 -13,-31 -2,-13 -23,-18l-31 -12c10,30 32,46 33,45 0,-1 2,2 3,3 -6,3 -22,10 -33,7 -16,-4 -39,-31 -51,-43 -21,-19 -4,-14 -39,-16 4,44 -2,11 16,34 7,8 10,12 16,19l21 20c5,5 12,13 19,18 19,15 23,16 42,34l41 36c-16,14 -3,-9 -8,10 29,1 38,12 53,41 -31,-1 -14,5 -47,-18l-53 -38c-1,0 -3,-1 -4,-2l-31 -20c-1,-1 -2,-2 -3,-3l-11 -12c-33,-33 -21,-27 -53,-32 5,35 15,42 59,78l61 48c21,13 51,15 71,26l-36 16c-41,-35 -23,-40 -53,-42 -35,-1 -9,-2 -19,5 -15,-4 6,3 -14,-10 -69,-48 -107,-45 -120,-76z"/>
    <path class="fil43" d="M13718 10597c11,12 4,6 19,16l37 13c-1,16 1,11 -9,22l28 -1c0,0 17,-10 -12,-33 34,-2 65,-6 98,5 2,0 4,1 5,1 -9,44 -33,-2 -50,37 25,8 99,0 115,-25 -1,-1 -4,-3 -4,-1l-15 -4c-8,-1 -18,-1 -29,-3 0,-1 -2,-21 42,-27 29,-4 26,7 55,16 -13,30 -24,-1 -26,37 14,-4 29,-13 38,-27 13,-20 1,2 2,-16 0,-13 -4,-2 2,-12 19,9 20,8 20,29 2,84 -2,35 -43,76l-13 16c4,-10 8,2 -5,-8 -11,-8 -1,5 -17,-10 3,-39 13,7 16,-43 -18,2 -29,4 -44,10 -37,15 -46,7 -80,28 -15,9 -17,15 -37,19 9,-26 11,-11 12,-38l-85 -6c11,13 7,11 32,17 19,4 12,-1 29,7 -7,33 -34,9 -31,64l82 -8c-5,22 -24,20 -24,65 30,0 30,-1 54,-11 19,-9 25,-15 38,-18 5,10 2,29 12,41 20,-10 40,-31 54,-37 7,16 0,12 12,29 27,-5 12,-9 45,-16 -2,44 -5,17 -41,45 -20,15 -27,21 -33,44l-11 -1c1,2 3,1 4,3 5,15 203,74 228,85l96 36c88,33 16,29 131,-8 15,-5 19,-4 33,-10 39,-16 83,-33 116,-43 45,-15 80,-28 123,-42 0,0 10,-4 14,-5 29,-9 78,-25 101,-42 -42,6 -35,16 -73,21 -74,-66 -27,-25 -78,-54 -14,-8 -6,5 -14,-13 30,-25 34,5 60,-7 19,-8 -12,-2 21,-12 12,21 21,26 50,28l-10 -44c25,3 39,25 93,26 -1,-45 -15,-31 -21,-62 34,-1 64,14 90,-1 -1,-24 0,-15 -16,-32 2,41 4,12 -9,26 -46,-10 5,-1 -58,-41l-120 -42c12,50 14,4 17,51 -61,6 -17,-5 -45,-10 -23,-5 -22,-14 -24,18 -1,34 26,22 37,54 -48,15 -47,-27 -63,-38 -10,17 -1,23 -17,26 -6,-16 -8,7 2,-24 -14,16 -29,65 -61,97 -8,8 -33,27 -40,37 -11,17 0,30 -72,84 -87,64 -220,23 -276,-57 -47,-67 -38,-39 -72,-83 -81,-107 -56,-160 -42,-243l-17 7c-26,5 3,-7 -18,1 -44,15 11,13 -42,20l-20 -16c-10,-7 4,-3 -16,-6 -13,-2 -34,-2 -46,-3 9,-21 -4,-24 40,-20 18,1 22,8 41,6 9,0 49,-20 62,-26 -17,-23 -32,11 -85,15 -19,1 -47,0 -65,1 -56,5 -36,12 -48,-10 15,-13 39,-15 59,-19 -23,-13 -59,-11 -94,-30 -27,-15 -50,-40 -81,-32 8,31 -8,8 32,28 1,1 3,2 4,3 34,18 19,15 61,26 -24,16 -56,1 -73,-4 -12,-4 -15,-3 -25,-6 -58,-16 -59,-37 -85,-20 12,6 11,3 17,6l114 54c77,22 -9,9 70,29l33 15c-57,4 -107,21 -161,10z"/>
    <path class="fil44" d="M14806 10248c-31,5 -49,27 -74,55 -39,43 -46,44 -43,74 37,-13 111,-85 139,-99 47,-24 15,-19 50,-26 -6,26 -37,36 -61,57l-97 91c37,5 11,-1 27,-8 50,-20 17,-5 28,2 -28,21 -30,9 -51,42l16 41 -52 29c-1,0 -2,0 -4,1 -22,5 -40,4 -56,-7l-13 -11c-17,7 -11,-8 -18,12l-39 -44c0,-2 -2,-2 -2,-3 -11,-3 15,-14 -17,1 20,15 62,75 74,108 8,22 16,60 17,81 4,39 -8,63 -6,89 -10,31 -8,8 -2,24 16,-3 7,-9 17,-26 16,11 15,53 63,38 -11,-32 -38,-20 -37,-54 2,-32 1,-23 24,-18 28,5 -16,16 45,10 -3,-47 -5,-1 -17,-51l120 42c63,40 12,31 58,41 13,-14 11,15 9,-26l-15 -13c-34,-18 -34,-50 -41,-40 0,0 -92,-11 -103,-29l44 -8c-38,-42 -53,-11 -65,-44 27,-14 28,-9 58,-8 -1,-3 -12,-14 -6,-28 40,-4 30,21 63,-6 -16,-15 -17,-12 -45,-12 26,-44 -20,1 13,-18l-35 -3c21,-14 28,-9 40,-15 18,-11 2,8 17,-17 -50,-8 -32,-5 -82,2 9,-13 103,-63 126,-77 1,-1 3,-2 4,-3l34 -19c4,-2 -3,-22 27,1l-13 5c-18,9 -35,23 -41,43 15,-1 10,0 23,-2l66 -31c42,-20 92,-68 125,-74 -10,32 -4,9 -16,32l35 -6c25,-8 18,-13 35,-15 -7,-14 10,-12 -12,-12 3,-10 8,-21 15,-32 14,-24 12,-5 14,-35 -71,17 -59,41 -113,59 -32,11 -16,-26 -30,17 -9,-6 -12,-8 -23,-14 15,-5 36,-27 51,-39 53,-45 36,-25 44,-57 -37,6 -62,36 -93,54 -53,32 -59,50 -98,53 13,-31 -7,-7 26,-29 12,-7 13,-9 28,-14l-19 -18c32,-5 57,-24 77,-46 37,-38 77,-52 85,-101 -33,3 -28,3 -75,50l-5 5c-10,6 1,4 -14,3 -1,0 -17,-4 -19,-4 0,24 -4,29 -23,43 0,1 -2,2 -3,3l-6 5c-30,20 20,-1 -19,8 -1,0 -4,2 -4,0 -1,-1 -3,0 -5,0l27 -18c-11,-25 5,-2 -8,-13 -13,-12 -4,-1 -7,1 29,-9 25,-14 30,-47l-38 9 -72 61c-1,1 -5,4 -7,5l-50 23z"/>
    <path class="fil43" d="M14059 10009c-26,27 -50,-7 -73,33 1,2 3,3 4,4l8 6c23,19 13,10 17,40 22,0 29,1 42,8 16,8 14,6 22,26 34,26 54,10 80,39 24,29 -5,20 21,23 20,6 13,39 14,57 1,40 12,23 10,60 -14,19 -26,19 -41,41 18,-8 23,-17 35,-25 29,-17 14,-10 42,-2l1 -24c57,5 26,-11 76,-12 26,-1 57,3 86,3 -8,21 8,17 -31,19 -19,1 -56,-4 -77,0 -4,1 -13,4 -17,6 -22,14 -7,5 -16,13 47,-8 110,-37 179,13 24,17 30,27 54,52 22,23 9,8 18,35 9,26 4,12 26,31 32,-15 6,-4 17,-1 0,1 2,1 2,3l39 44c7,-20 1,-5 18,-12l13 11c16,11 34,12 56,7 2,-1 3,-1 4,-1l52 -29 -16 -41c21,-33 23,-21 51,-42 -11,-7 22,-22 -28,-2 -16,7 10,13 -27,8l97 -91c24,-21 55,-31 61,-57 -35,7 -3,2 -50,26 -28,14 -102,86 -139,99 -3,-30 4,-31 43,-74 25,-28 43,-50 74,-55l-4 -13 -79 59c-62,54 -25,20 -60,71 -6,-32 -8,-18 6,-44 -28,7 -16,46 -15,77 7,4 4,1 12,4l40 28c-1,74 -27,72 -86,37 -15,-8 -31,-30 -41,-48 -33,-62 -15,-56 -86,-96 -20,-13 -18,-17 -18,-43 0,-27 -2,-31 -3,-53 32,-4 24,-2 24,-42 -29,9 -5,-1 -30,11l-44 33 -4 -20c66,-18 7,-35 67,-40 -1,-24 -5,-26 5,-43 19,15 10,10 12,40 15,-17 2,-11 26,-27 63,-43 72,-12 99,-51 -34,-1 -14,3 -29,-10 7,-41 14,-13 19,-42 -30,-1 -27,-4 -37,20l-18 -27c-36,14 -40,45 -78,13 14,-29 24,-3 41,-34 -66,31 -46,33 -88,64 -11,1 -2,-3 -14,5 -21,15 -36,35 -49,57 -1,1 -2,3 -3,4l-10 19c-1,1 -1,3 -2,4 -6,15 2,4 -12,24 18,19 39,50 30,78 -17,7 -34,4 -54,6l-11 -11c-56,-52 -18,-1 -45,-53 0,-1 -1,-3 -2,-4l-5 -6c-6,-6 -22,-10 -31,-16 11,-28 19,4 14,-38 -17,6 -4,7 -29,17l1 -72c1,-14 -2,-20 10,-28 26,-19 9,-5 15,-4 -21,-12 -143,-100 -181,-45z"/>
    <path class="fil42" d="M14703 10263c-12,11 -10,10 -21,26 -8,12 -3,0 -9,14 -5,10 -4,8 -4,18 -14,26 -12,12 -6,44 35,-51 -2,-17 60,-71l79 -59 4 13 50 -23c2,-1 6,-4 7,-5l72 -61 38 -9c-5,33 -1,38 -30,47 3,-2 -6,-13 7,-1 13,11 -3,-12 8,13l-27 18c2,0 4,-1 5,0 0,2 3,0 4,0 39,-9 -11,12 19,-8l6 -5c1,-1 3,-2 3,-3 19,-14 23,-19 23,-43 2,0 18,4 19,4 15,1 4,3 14,-3l5 -5c47,-47 42,-47 75,-50 -8,49 -48,63 -85,101 -20,22 -45,41 -77,46l19 18c-15,5 -16,7 -28,14 -33,22 -13,-2 -26,29 39,-3 45,-21 98,-53 31,-18 56,-48 93,-54 -8,32 9,12 -44,57 -15,12 -36,34 -51,39 11,6 14,8 23,14 14,-43 -2,-6 30,-17 54,-18 42,-42 113,-59 8,-7 6,17 6,-16 -13,-3 -13,-5 -29,-6l59 -78c5,-12 3,-7 8,-16l21 -56c8,-43 -3,-44 -17,-64l15 -27c6,-19 3,-105 3,-128l-24 0 -30 53c-3,5 -8,13 -11,19l-34 55c-7,13 -5,-4 -8,22 -30,-8 -5,-12 -48,-12 -5,13 -1,4 -10,14 -3,3 -8,8 -12,11l-73 76c-14,-9 -16,-19 -36,-7l-31 29c-13,10 -23,17 -34,26l-181 119z"/>
    <path class="fil44" d="M14277 11153c4,43 2,7 8,28 8,29 -5,30 -6,42 -5,51 -4,13 9,29 27,-12 22,-22 35,-45 5,57 29,88 -6,100 -27,-33 6,13 -4,-37 0,-2 -1,-4 -2,-6l-15 2c-1,2 -4,12 -5,16 -1,3 4,19 -13,19l-13 -10c-1,-1 -2,-3 -3,-4l-22 -17 -32 42c-1,-1 -3,3 -4,5l25 -8c-5,52 -29,30 -19,128 24,-4 38,-21 59,-49 28,-36 23,-55 43,-63 3,8 -25,209 41,186 27,-10 29,-91 29,-116 0,-25 -3,-34 7,-50 4,4 56,81 76,87 26,8 4,4 14,-1 22,-24 -13,-108 -14,-116 45,8 23,26 68,26 8,-57 -16,-40 -28,-86l45 5c-3,-42 -15,-9 -13,-49 -23,-5 -21,-6 -41,-13 -16,-7 -16,-5 -33,-10l-59 -23c-21,-14 4,-7 -32,-11 -50,-6 -49,-37 -95,-1z"/>
    <path class="fil45" d="M14406 10629c-41,-2 -11,-1 -42,-11 0,42 4,15 31,32l-8 69c-1,-8 -3,-19 -4,-24 -10,-45 4,-23 -18,-25l-8 83c-14,-10 -3,6 -15,-15 -10,-18 -8,-45 -19,-69l-13 39c-24,-22 -22,-46 -13,-76 -20,-28 -23,-1 -19,-33 31,1 -8,4 28,14l11 -20c23,14 2,9 24,20l16 -22c41,13 59,-8 58,39 28,-3 20,-13 19,-39 -40,-35 -37,4 -26,-93 2,-21 -3,-15 -6,-43 18,-9 35,-22 29,-48 -8,-34 -40,-22 -68,-17 -9,-28 5,-28 -22,-38 -15,8 -11,9 -17,42 -25,-8 -27,-15 -63,-8 -19,62 11,44 19,76 2,7 -1,86 0,105 -25,27 -24,-1 -26,58 43,14 29,15 29,150 0,30 5,62 -8,83 -20,30 -35,25 -41,54 25,15 192,14 216,0 -10,-53 -51,-8 -51,-119 0,-39 -6,-132 7,-164z"/>
    <path class="fil46" d="M13608 10951c-21,-5 -6,-4 -11,3l11 18c76,72 152,104 256,108 -2,35 -28,20 -3,56 5,8 19,-6 10,68 -24,2 -25,0 -40,-9 13,29 36,24 41,63 -12,11 -6,-2 -30,21 -27,25 28,-14 -11,11l-44 -29c-31,23 -10,15 -12,39 -49,22 0,-10 -61,-12 0,-21 7,-28 7,-53l42 6 -3 -31c-1,1 -3,1 -4,3 0,2 -3,2 -4,3 -19,10 -12,5 -40,8l-5 47c-26,3 -36,-4 -54,11l46 2 -6 47 -54 -1 3 -37c-13,9 -4,-1 -12,10 -30,37 25,70 62,50 12,-6 18,-21 53,-29 41,-10 27,-3 54,-27 14,13 16,38 66,32 7,-18 1,-24 10,-42l37 -6c4,8 17,33 20,41 9,23 1,29 10,49 24,5 20,6 40,-1 23,-51 -20,-34 -22,-106 19,-8 181,-69 203,-71 4,7 6,0 -2,7 23,-7 28,-21 67,-28l30 -1 6 -18c-29,0 -8,0 -25,8 -27,13 -15,10 -56,16 -34,5 -46,9 -76,18l-113 39c-29,9 -27,6 -34,0 13,-29 6,5 66,-36 -37,-24 -60,36 -89,-6 20,-49 10,2 71,-39 -28,6 -40,13 -68,18 11,-24 8,-3 14,-30 -19,12 -14,15 -44,12l-9 -66c56,-18 12,-30 -19,-46 -2,-1 -4,-2 -6,-3 -1,0 -3,-2 -5,-3l12 25c-44,-2 -32,-9 -70,-16 -55,-10 -35,11 -71,-15 -62,-45 -67,-29 -113,-50l111 -25c31,3 13,-5 23,20 28,1 42,3 57,11 24,13 8,4 27,24 11,11 -8,-2 12,11l-6 -36c61,1 85,26 137,36l-1 -9c-1,-14 0,-5 6,-19 -51,-3 -35,-7 -43,-12 -6,-4 -2,-5 -16,-7 -3,-1 -20,1 -24,1l-12 -32c-19,13 -7,20 -30,19 -26,0 -12,-6 -15,-8 -1,-2 -4,-8 -4,-9l-4 -11c-26,13 -5,-6 -18,24 -34,-20 -77,3 -75,-59 -27,6 -12,8 -44,11l6 -68c-29,4 -65,29 -76,-12l27 -7c-20,-13 -20,-8 -29,-7 -27,41 9,48 9,49 26,20 5,-4 4,36 27,12 62,16 78,43 -39,11 -78,6 -121,8z"/>
    <path class="fil47" d="M14807 10507c20,-5 32,-7 49,-16l37 -22c1,0 2,-1 3,-2l41 -21c23,-9 34,-18 57,2 -10,15 -2,4 -29,17 -16,7 -67,30 -74,46 43,-3 71,-20 78,-22 17,-3 25,1 33,6 -7,12 -13,13 -31,24 -1,1 -2,2 -4,2 -1,1 -2,2 -3,3l-15 5c-41,12 -25,15 -46,19 -7,1 -18,1 -25,1 -5,6 -15,34 -76,33 34,12 85,2 100,20 -29,26 -64,-4 -95,18 7,28 -9,12 21,22 18,6 10,-4 33,8 29,15 16,17 64,18 14,-14 5,3 8,-23l-26 -5c7,-23 -9,-4 17,-21 17,-11 37,-12 55,-21 28,-16 17,5 18,-25 -21,-27 -27,-3 -52,-24 6,-4 142,-42 164,-101l-22 -10c-1,0 -12,-1 -16,-2 5,-21 4,-7 37,-38 17,-16 26,-27 44,-40 10,-8 11,0 11,-18 -1,-29 -3,-11 -11,-12 -17,2 -10,7 -35,15l-35 6c12,-23 6,0 16,-32 -33,6 -83,54 -125,74l-66 31c-13,2 -8,1 -23,2 6,-20 23,-34 41,-43l13 -5c-30,-23 -23,-3 -27,-1l-34 19c-1,1 -3,2 -4,3 -23,14 -117,64 -126,77 50,-7 32,-10 82,-2 -15,25 1,6 -17,17 -12,6 -19,1 -40,15l35 3z"/>
    <path class="fil43" d="M14186 9810c2,1 4,0 5,3 3,7 52,16 60,21 -3,29 -10,9 -10,41 27,6 13,3 19,10 2,0 4,-4 5,-3 3,5 18,-26 45,-18 28,9 0,20 37,32 29,-16 4,-4 14,-17 14,-20 -6,-9 17,-17 29,-12 17,11 58,14 -4,-19 -11,-23 -22,-36 -14,-1 -28,1 -37,0 -31,-3 -11,-4 -27,-8 -21,-5 -28,7 -55,6 -4,-10 -13,-81 -13,-88 53,10 36,42 34,55 26,-13 23,-11 49,-10 3,-25 10,-45 42,-46 6,19 4,14 -4,31 2,1 4,0 5,2 1,2 3,2 4,3l37 25c11,-34 27,-21 57,-42l7 -47c-8,-15 -34,-35 -59,-36 -37,-2 -40,22 -71,30 0,-52 -4,-23 -13,-51 -5,-13 1,-19 -11,-45 -13,0 -30,-6 -41,19 -10,21 8,11 -5,36 -8,18 -2,-7 -7,17 -1,8 0,16 0,24l-41 -20c-20,-11 -28,-15 -50,-6 -10,3 -9,4 -12,6 -1,0 -20,3 -34,32 -13,27 -18,23 -5,57l10 20c9,11 1,7 12,6z"/>
    <path class="fil48" d="M13522 10242c13,31 51,28 120,76 20,13 -1,6 14,10 10,-7 -16,-6 19,-5 30,2 12,7 53,42l36 -16c-20,-11 -50,-13 -71,-26l-61 -48c-44,-36 -54,-43 -59,-78 32,5 20,-1 53,32l11 12c1,1 2,2 3,3l31 20c1,1 3,2 4,2l53 38c33,23 16,17 47,18 -15,-29 -24,-40 -53,-41 5,-19 -8,4 8,-10l-41 -36c-19,-18 -23,-19 -42,-34 -7,-5 -14,-13 -19,-18l-21 -20c-6,-7 -9,-11 -16,-19 -18,-23 -12,10 -16,-34 35,2 18,-3 39,16 12,12 35,39 51,43 11,3 27,-4 33,-7 -1,-1 -3,-4 -3,-3 -1,1 -23,-15 -33,-45l31 12c21,5 10,-13 23,18 39,-11 12,-20 37,-9 1,1 3,2 4,2l0 -17c0,-23 -9,-12 -29,-42 -18,12 -8,12 -30,18l-71 -72c-21,-19 -26,-27 -48,-29 -7,19 13,8 -18,12l-74 -123c-11,-19 6,-7 -16,-21 -31,-19 -17,0 -17,1 -3,36 -7,25 -1,70 40,2 46,38 46,39 4,8 0,1 4,8 23,38 21,34 34,20 0,0 -17,9 6,34l36 24c17,9 29,10 36,46 -52,-4 -11,-20 -64,-25l6 11c18,28 11,12 10,28 -3,28 4,5 17,47 -44,-14 0,-18 -51,-19 0,23 11,37 23,56 15,23 23,25 29,53l-63 -14z"/>
    <path class="fil49" d="M14240 9969c-21,-4 -11,-1 -24,-12 -8,15 -4,20 -23,21 -36,3 1,3 -32,-12l-28 -9c-27,1 -14,19 -41,2 -25,-16 -20,5 -28,-18 -4,-10 -2,-15 -2,-24 -20,29 -1,43 3,51 7,17 5,11 3,18 -7,36 -8,-19 -9,23 38,-55 160,33 181,45l12 18c0,-63 45,-33 66,-119 7,-28 0,-29 29,-36 25,18 23,89 96,137 -4,4 -5,15 -6,18 42,-31 22,-33 88,-64 18,-8 11,-1 14,-14 7,-33 -4,-21 -7,-26 -22,10 -8,-7 -18,23 -48,-9 -36,-11 -60,-20l0 -24c-22,18 2,-6 -10,13 0,1 -3,7 -4,8 -1,2 -1,4 -2,5 0,1 -1,3 -1,4 -4,-15 -7,-20 -12,-34 -16,-5 0,-1 -10,-37 0,-1 -1,-3 -1,-5 -1,-1 -1,-3 -2,-4 -6,-18 -10,-32 -34,-35 -23,8 -3,-3 -17,17 -10,13 15,1 -14,17 -37,-12 -9,-23 -37,-32 -27,-8 -42,23 -45,18 -1,-1 -3,3 -5,3 -6,-7 8,-4 -19,-10 0,-32 7,-12 10,-41 -8,-5 -57,-14 -60,-21 -1,-3 -3,-2 -5,-3 0,35 -4,3 9,21l27 33c11,23 11,38 48,41 0,31 0,19 -8,40 -10,25 4,21 -22,24z"/>
    <path class="fil50" d="M13647 11284l6 -2c18,-15 28,-8 54,-11l5 -47c28,-3 21,2 40,-8 1,-1 4,-1 4,-3 1,-2 3,-2 4,-3l15 -16 17 23c2,-2 3,-6 4,-5 7,18 -4,-21 21,-23 27,-1 9,1 14,6 15,9 16,11 40,9 9,-74 -5,-60 -10,-68 -25,-36 1,-21 3,-56 -104,-4 -180,-36 -256,-108 6,53 27,-30 6,48 24,16 23,26 41,42 20,18 28,15 25,58 -5,61 2,50 -1,114 -2,24 -7,10 7,30l-42 0 3 20z"/>
    <path class="fil46" d="M14848 11247c-11,9 -2,-3 -11,17l18 24c-1,0 -3,0 -4,0 -40,2 -6,-2 -39,12 -26,-11 -3,-6 -26,-18 -2,0 -3,-1 -5,-2 -20,-8 -19,8 -41,-28 -91,24 -12,12 -70,-4 -12,-3 -69,-14 -75,-14 0,0 -2,5 26,16 10,5 22,6 33,9 18,6 44,16 67,24 134,45 89,21 109,70 50,2 28,-8 60,-11 27,-2 33,12 54,22 51,25 44,1 77,-6 7,-2 27,-2 37,-3 5,-34 0,-40 -29,-47 3,-51 -1,-19 -16,-56 -12,-33 -2,-29 -46,-28l-8 -20 -2 24c0,6 3,18 4,29 -10,3 -23,10 -25,10 -26,-1 9,-6 -33,-15 0,30 7,37 -2,54 -25,-14 -15,-36 -12,-60l-41 1z"/>
    <path class="fil44" d="M13489 10154c1,1 3,1 3,3l58 70c-2,1 -4,0 -5,2 -4,10 0,0 -9,4l-14 9 63 14c-6,-28 -14,-30 -29,-53 -12,-19 -23,-33 -23,-56 51,1 7,5 51,19 -13,-42 -20,-19 -17,-47 1,-16 8,0 -10,-28l-6 -11c53,5 12,21 64,25 -7,-36 -19,-37 -36,-46l-36 -24c-23,-25 -6,-34 -6,-34 -13,14 -11,18 -34,-20 -4,-7 0,0 -4,-8 0,-1 -6,-37 -46,-39 -6,-45 -2,-34 1,-70 -32,25 -13,94 0,124 7,16 13,20 17,37 -18,5 -26,14 -17,71 3,18 6,17 14,34 10,23 -7,21 21,24z"/>
    <path class="fil51" d="M14454 9947l0 24c24,9 12,11 60,20 10,-30 -4,-13 18,-23 3,5 14,-7 7,26 -3,13 4,6 -14,14 -17,31 -27,5 -41,34 38,32 42,1 78,-13l18 27c10,-24 7,-21 37,-20 -5,29 -12,1 -19,42 15,13 -5,9 29,10 24,-4 18,-8 32,-20 31,-28 24,1 28,-43 -19,-4 -23,-6 -48,-6l-4 -12c-17,-18 2,-10 -26,-12 6,-20 19,-28 18,-54 0,-32 -17,-30 -30,-48 -14,8 -24,14 -41,18 -23,-15 -13,-20 -36,-35 -24,50 11,35 -20,46 -14,5 -38,1 -46,25z"/>
    <path class="fil43" d="M14807 10507c-33,19 13,-26 -13,18 28,0 29,-3 45,12 -33,27 -23,2 -63,6 -6,14 5,25 6,28 -30,-1 -31,-6 -58,8 12,33 27,2 65,44l-44 8c11,18 103,29 103,29 7,-10 7,22 41,40l-10 -17c25,-2 57,0 75,-9 -2,-11 0,-8 -7,-16 -11,-14 -3,-5 -14,-13 -3,26 6,9 -8,23 -48,-1 -35,-3 -64,-18 -23,-12 -15,-2 -33,-8 -30,-10 -14,6 -21,-22 31,-22 66,8 95,-18 -15,-18 -66,-8 -100,-20 61,1 71,-27 76,-33 7,0 18,0 25,-1 21,-4 5,-7 46,-19l15 -5c1,-1 2,-2 3,-3 2,0 3,-1 4,-2 18,-11 24,-12 31,-24 -8,-5 -16,-9 -33,-6 -7,2 -35,19 -78,22 7,-16 58,-39 74,-46 27,-13 19,-2 29,-17 -23,-20 -34,-11 -57,-2l-41 21c-1,1 -2,2 -3,2l-37 22c-17,9 -29,11 -49,16z"/>
    <path class="fil52" d="M14635 10007l4 12c25,0 29,2 48,6 -4,44 3,15 -28,43 -14,12 -8,16 -32,20 -27,39 -36,8 -99,51 -24,16 -11,10 -26,27 -2,-30 7,-25 -12,-40 -10,17 -6,19 -5,43 -60,5 -1,22 -67,40l4 20 44 -33c25,-12 1,-2 30,-11 0,40 8,38 -24,42 1,22 3,26 3,53 0,26 -2,30 18,43 -24,-44 -2,-43 9,-113l6 -22c7,-7 6,-6 12,-14 1,-1 6,-9 8,-10 15,-16 133,-56 159,-62 12,-26 -1,-13 26,-46 1,-1 1,-2 2,-3 19,-22 22,-17 61,-17 103,2 57,-8 102,-16 41,-8 25,3 35,-13 -11,-8 -32,-9 -48,-5 -17,4 -39,27 -82,18 -23,-5 -17,-1 -18,-26 -32,16 -28,-4 -29,-5 4,-33 0,-6 10,-29 19,-43 -1,-40 -41,-37l0 -24 -14 41c0,7 11,44 14,49 -26,13 -38,26 -70,18z"/>
    <path class="fil51" d="M14347 10185l-10 14c-2,-42 2,-22 -18,-56 -1,-2 -2,-3 -2,-4 -4,-7 -7,-13 -11,-19 -14,-23 -17,-22 -40,-39 -7,-5 -8,-6 -14,-9l-12 -18c-6,-1 11,-15 -15,4 -12,8 -9,14 -10,28l-1 72c25,-10 12,-11 29,-17 5,42 -3,10 -14,38 9,6 25,10 31,16l5 6c1,1 2,3 2,4 27,52 -11,1 45,53l11 11c20,-2 37,1 54,-6 9,-28 -12,-59 -30,-78z"/>
    <path class="fil45" d="M14378 9862c24,3 28,17 34,35 1,1 1,3 2,4 0,2 1,4 1,5 10,36 -6,32 10,37 -10,-12 -6,-16 -6,-38 42,-9 24,0 39,-32 18,-37 50,-42 65,-90 3,-11 4,-18 3,-32 -3,-24 -10,-27 -13,-30l-7 47c-30,21 -46,8 -57,42l-37 -25c-1,-1 -3,-1 -4,-3 -1,-2 -3,-1 -5,-2 8,-17 10,-12 4,-31 -32,1 -39,21 -42,46 -26,-1 -23,-3 -49,10 2,-13 19,-45 -34,-55 0,7 9,78 13,88 27,1 34,-11 55,-6 16,4 -4,5 27,8 9,1 23,-1 37,0 11,13 18,17 22,36 -41,-3 -29,-26 -58,-14z"/>
    <path class="fil48" d="M13765 10648c-14,3 -17,4 -27,20l85 6c-1,27 -3,12 -12,38 20,-4 22,-10 37,-19 34,-21 43,-13 80,-28 15,-6 26,-8 44,-10 -3,50 -13,4 -16,43 16,15 6,2 17,10 13,10 9,-2 5,8l13 -16c41,-41 45,8 43,-76 0,-21 -1,-20 -20,-29 -6,10 -2,-1 -2,12 -1,18 11,-4 -2,16 -9,14 -24,23 -38,27 2,-38 13,-7 26,-37 -29,-9 -26,-20 -55,-16 -44,6 -42,26 -42,27 11,2 21,2 29,3l15 4c0,-2 3,0 4,1 -16,25 -90,33 -115,25 17,-39 41,7 50,-37 -1,0 -3,-1 -5,-1 -33,-11 -64,-7 -98,-5 29,23 12,33 12,33l-28 1z"/>
    <path class="fil49" d="M13771 9965c-7,10 -15,36 -2,48 9,10 12,5 30,6l30 6c16,8 -17,13 59,12 24,-1 48,-1 72,-1 1,2 7,17 7,17 10,17 3,5 15,15 1,1 5,4 7,5l5 7c20,33 -18,13 31,29 1,0 3,0 4,1 28,10 17,16 50,16 -8,-20 -6,-18 -22,-26 -13,-7 -20,-8 -42,-8 -4,-30 6,-21 -17,-40l-8 -6c-1,-1 -3,-2 -4,-4 23,-40 47,-6 73,-33 -47,-6 -32,3 -81,-20 4,-7 41,-49 7,-78 -17,22 8,2 -14,8 -21,5 -7,-3 -31,-2 -17,50 20,31 4,60l-20 17c-10,11 -3,9 -12,23 -71,7 -69,-38 -143,-28l2 -24z"/>
    <path class="fil50" d="M13859 11020c11,3 11,3 12,15 2,1 4,3 5,3 2,1 4,2 6,3 31,16 75,28 19,46l9 66c30,3 25,0 44,-12 6,-14 21,-27 30,-44l29 -54c-11,-7 -20,-6 -23,-23 -52,-10 -76,-35 -137,-36l6 36z"/>
    <path class="fil44" d="M14602 11036l15 47c0,1 1,2 2,3l5 8c9,14 18,22 14,44 20,2 55,17 73,23 14,5 25,7 38,10 16,6 11,7 34,11l-15 -12c-36,-25 -70,-68 -83,-109 12,-17 9,-7 20,-29 43,-83 56,-25 79,-70 -29,6 -140,63 -182,74z"/>
    <path class="fil53" d="M14705 9899l0 24c40,-3 60,-6 41,37 -10,23 -6,-4 -10,29 1,1 -3,21 29,5 1,25 -5,21 18,26 43,9 65,-14 82,-18 16,-4 37,-3 48,5 2,-1 15,4 10,-21 -2,-12 -10,-19 -16,-27 -78,0 -56,23 -98,21 -41,-2 10,-57 -34,-86 -24,-15 -48,-6 -70,5z"/>
    <path class="fil41" d="M13871 11035c-1,-12 -1,-12 -12,-15 -20,-13 -1,0 -12,-11 -19,-20 -3,-11 -27,-24 -15,-8 -29,-10 -57,-11 -10,-25 8,-17 -23,-20l-111 25c46,21 51,5 113,50 36,26 16,5 71,15 38,7 26,14 70,16l-12 -25z"/>
    <path class="fil47" d="M14228 11172l-16 47c48,2 10,-8 57,-20 -10,67 -8,38 -47,77 0,0 -13,0 -16,-15 0,-2 -1,-3 -2,-4l-14 7c-26,24 -30,35 -31,75 19,-3 35,-7 45,-22 1,-2 3,-6 4,-5l32 -42 22 17c1,1 2,3 3,4l13 10c17,0 12,-16 13,-19 1,-4 4,-14 5,-16l15 -2c1,2 2,4 2,6 10,50 -23,4 4,37 35,-12 11,-43 6,-100 -13,23 -8,33 -35,45 -13,-16 -14,22 -9,-29 1,-12 14,-13 6,-42 -6,-21 -4,15 -8,-28l-13 0 -6 18 -30 1z"/>
    <path class="fil42" d="M13954 11141c-6,27 -3,6 -14,30 28,-5 40,-12 68,-18 19,-4 77,-26 91,-35 -34,9 -19,14 -52,16l16 -30c0,-1 1,-2 2,-3 16,-23 14,-4 13,-41l25 -1c-10,-6 -1,-2 -20,-10 -38,-17 -7,5 -94,-38l1 9c3,17 12,16 23,23l-29 54c-9,17 -24,30 -30,44z"/>
    <path class="fil54" d="M13771 9965l-2 24c74,-10 72,35 143,28 9,-14 2,-12 12,-23l20 -17c16,-29 -21,-10 -4,-60 24,-1 10,7 31,2 22,-6 -3,14 14,-8 -11,-16 -7,-20 -32,-24 -21,-3 -38,2 -47,12 -1,0 -21,37 -21,39 -8,35 6,7 9,45 -19,-10 -7,-3 -30,-6 -8,-1 -6,1 -15,-2 -16,-5 -30,-31 -78,-10z"/>
    <path class="fil43" d="M14406 10629l9 1c1,-47 -17,-26 -58,-39l-16 22c-22,-11 -1,-6 -24,-20l-11 20c-36,-10 3,-13 -28,-14 -4,32 -1,5 19,33 -9,30 -11,54 13,76l13 -39c11,24 9,51 19,69 12,21 1,5 15,15l8 -83c22,2 8,-20 18,25 1,5 3,16 4,24l8 -69c-27,-17 -31,10 -31,-32 31,10 1,9 42,11z"/>
    <path class="fil44" d="M14287 10483c5,78 -20,98 59,92l49 -8c19,-111 -30,-98 -108,-84z"/>
    <path class="fil55" d="M13760 11210l3 31 -42 -6c0,25 -7,32 -7,53 61,2 12,34 61,12 2,-24 -19,-16 12,-39l44 29c39,-25 -16,14 11,-11 24,-23 18,-10 30,-21 -5,-39 -28,-34 -41,-63 -5,-5 13,-7 -14,-6 -25,2 -14,41 -21,23 -1,-1 -2,3 -4,5l-17 -23 -15 16z"/>
    <path class="fil55" d="M14062 9917c0,9 -2,14 2,24 8,23 3,2 28,18 27,17 14,-1 41,-2l28 9c33,15 -4,15 32,12 19,-1 15,-6 23,-21 13,11 3,8 24,12 -1,-38 -21,-46 -60,-46 0,-25 3,-24 -6,-41 -28,2 -35,4 -35,35 -29,-7 -51,-38 -77,0z"/>
    <path class="fil47" d="M14247 10912l190 1c-8,-16 -11,-14 -25,-29 -8,-8 -2,-3 -9,-10 -25,-20 -101,-22 -123,-4l-33 42z"/>
    <path class="fil56" d="M14638 11138c4,-22 -5,-30 -14,-44l-5 -8c-1,-1 -2,-2 -2,-3l-15 -47c-19,5 -17,6 -34,11 -12,3 -21,4 -33,7 -16,4 -41,14 -50,25l153 59z"/>
    <path class="fil43" d="M14161 11200c-13,32 -15,16 -16,58 24,-3 22,-2 41,-10l4 16 14 -7c1,1 2,2 2,4 3,15 16,15 16,15 39,-39 37,-10 47,-77 -47,12 -9,22 -57,20l16 -47c-39,7 -44,21 -67,28z"/>
    <path class="fil55" d="M14853 11208c4,28 6,11 -5,39l41 -1c-3,24 -13,46 12,60 9,-17 2,-24 2,-54 42,9 7,14 33,15 2,0 15,-7 25,-10 -1,-11 -4,-23 -4,-29l2 -24c-31,7 -39,-1 -55,-5 -43,-10 -7,10 -51,9z"/>
    <path class="fil57" d="M14099 11118c32,-6 3,-4 36,-12 15,-4 22,-2 38,-9 -3,-31 -38,-35 -70,-38l-25 1c1,37 3,18 -13,41 -1,1 -2,2 -2,3l-16 30c33,-2 18,-7 52,-16z"/>
    <path class="fil41" d="M13642 11293l-3 37 54 1 6 -47 -46 -2 -6 2 -5 9z"/>
   </g>
   <path class="fil58" d="M4293 16301c-544,0 -985,-84 -985,-189 0,-104 441,-189 985,-189 374,0 700,40 866,100 -75,28 -117,59 -117,92 0,31 40,62 111,89 -169,58 -491,97 -860,97z"/>
   <path class="fil58" d="M6475 16347c-595,0 -1106,-59 -1322,-143 79,-27 124,-58 124,-92 0,-32 -42,-63 -118,-89 220,-83 727,-141 1316,-141 791,0 1433,104 1433,233 0,128 -642,232 -1433,232z"/>
   <path class="fil59" d="M5153 16204c-71,-27 -111,-58 -111,-89 0,-33 42,-64 117,-92 76,26 118,57 118,89 0,34 -45,65 -124,92z"/>
   <path class="fil60" d="M5891 13779c0,16 -12,28 -28,28l-320 0c-15,0 -27,-12 -27,-28 0,-15 12,-28 27,-28l320 0c16,0 28,13 28,28z"/>
   <path class="fil60" d="M5863 14704c-15,0 -27,-13 -27,-28l0 -897c0,-15 12,-28 27,-28 16,0 28,13 28,28l0 897c0,15 -12,28 -28,28z"/>
   <path class="fil61" d="M5744 13924l92 -60 0 774 -92 0 0 -714z"/>
   <path class="fil62" d="M7529 15787c14,67 67,50 135,36 67,-14 110,6 96,-62l-62 -180c-14,-67 -38,-111 -105,-97 -67,14 -111,80 -97,148l33 155z"/>
   <path class="fil63" d="M6396 14749c0,0 -122,159 -9,216 127,64 883,108 992,130 57,11 119,-23 129,-134 11,-112 75,-193 -18,-215 -318,-76 -813,-166 -920,-175 -108,-9 -149,33 -174,178z"/>
   <path class="fil63" d="M7649 15716c39,-8 37,-13 104,-31 4,18 -3,-626 -72,-782 -70,-156 -170,-160 -232,-147 -62,13 -141,75 -109,244 33,176 158,762 154,745 69,-11 117,-21 155,-29z"/>
   <path class="fil63" d="M7480 15835c0,0 293,-127 324,-139 30,-12 208,31 174,212l-500 -53 2 -20z"/>
   <path class="fil64" d="M7982 15869c0,12 -1,25 -4,39l-500 -53 2 -20c0,0 13,-6 32,-15l470 49z"/>
   <path class="fil63" d="M6506 14277c-81,79 -90,261 -133,211 -174,-202 -367,-573 -344,-726 14,-102 48,-118 84,-116 150,9 179,248 313,498l80 133z"/>
   <path class="fil65" d="M6985 14528c20,5 23,-26 27,-45l10 -40c7,-12 -10,-15 -29,-19l-153 -38c-19,-4 -36,-17 -41,3l-17 69c-5,20 4,50 24,55l179 15z"/>
   <path class="fil65" d="M7208 14562c0,0 5,32 22,30 51,-6 20,-96 -8,-118 -20,-16 -81,-46 -192,-46 -44,1 -49,14 -93,41 0,0 -10,8 4,55 9,30 43,31 51,33 26,6 84,-38 105,1 21,39 53,34 57,10 0,0 33,37 54,-6z"/>
   <path class="fil65" d="M7101 14550c0,0 -18,-33 -35,-13 -17,21 -12,35 9,52 21,16 101,81 163,-29 10,-92 -136,-62 -136,-62l-1 52z"/>
   <path class="fil66" d="M7134 14514c0,0 43,31 30,66 -13,34 -56,35 -96,3 0,0 55,34 83,4 27,-30 -17,-73 -17,-73z"/>
   <path class="fil66" d="M7170 14509c0,0 43,50 23,87 -21,36 -73,36 -112,-6 0,0 59,42 95,12 37,-30 -6,-93 -6,-93z"/>
   <path class="fil66" d="M7204 14599c-7,6 -17,11 -26,12 0,4 -25,8 -27,11 22,4 59,-12 69,-30 20,-39 -21,-92 -21,-92 0,0 41,67 5,99z"/>
   <path class="fil63" d="M6366 14401c3,-24 -88,-141 -38,-162 24,-10 109,20 217,49 105,27 253,80 407,112 0,0 -25,123 -18,148 0,0 -314,47 -482,-19 -144,-58 -93,-83 -86,-128z"/>
   <path class="fil67" d="M5956 13728c11,141 59,83 131,106 71,23 160,31 157,-44 -9,-167 70,-220 70,-220 23,-71 -16,-148 -88,-171 -71,-22 -161,-35 -184,37 0,0 -94,185 -86,292z"/>
   <path class="fil68" d="M6228 13719c-69,-91 -237,-127 -327,-8 -225,299 10,1340 10,1340 0,0 241,126 561,52 0,0 132,-889 -244,-1384z"/>
   <path class="fil62" d="M7389 15858c14,68 67,51 135,37 67,-14 110,5 96,-62l-62 -180c-14,-68 -38,-111 -105,-97 -67,14 -111,80 -97,148l33 154z"/>
   <path class="fil68" d="M6256 14821c0,0 -122,159 -9,216 127,64 883,107 992,129 57,12 119,-22 129,-134 11,-111 75,-192 -18,-215 -318,-75 -813,-166 -920,-175 -108,-9 -149,33 -174,179z"/>
   <path class="fil68" d="M7509 15787c39,-8 37,-13 104,-30 4,17 -3,-626 -72,-782 -69,-156 -169,-160 -232,-147 -62,13 -140,75 -109,243 33,177 158,763 154,745 69,-10 117,-21 155,-29z"/>
   <path class="fil68" d="M7341 15906c0,0 292,-127 323,-139 30,-12 208,32 174,213l-500 -53 3 -21z"/>
   <path class="fil63" d="M7842 15941c0,12 -1,25 -4,39l-500 -53 3 -21c0,0 12,-5 31,-14l470 49z"/>
   <path class="fil69" d="M6462 14354c-84,74 -103,256 -143,204 -163,-211 -338,-590 -307,-742 20,-101 54,-116 90,-112 149,16 166,257 287,513l73 137z"/>
   <path class="fil62" d="M7173 14633c0,0 5,32 22,30 51,-6 20,-95 -7,-118 -20,-16 -81,-46 -192,-45 -45,0 -49,13 -94,41 0,0 -10,7 4,54 10,31 43,31 52,33 25,6 84,-38 105,1 21,39 53,35 56,10 0,0 33,37 54,-6z"/>
   <path class="fil62" d="M7066 14621c0,0 -18,-33 -34,-13 -17,21 -12,36 9,52 21,16 100,81 162,-29 11,-92 -135,-62 -135,-62l-2 52z"/>
   <path class="fil66" d="M7100 14585c0,0 43,31 30,66 -13,34 -56,36 -97,3 0,0 56,35 83,4 28,-30 -16,-73 -16,-73z"/>
   <path class="fil66" d="M7136 14580c0,0 43,50 22,87 -21,37 -72,37 -112,-6 0,0 60,42 96,12 36,-30 -6,-93 -6,-93z"/>
   <path class="fil66" d="M7169 14670c-7,7 -17,11 -25,13 -1,3 -25,7 -27,11 21,3 59,-13 68,-31 21,-39 -20,-92 -20,-92 0,0 40,67 4,99z"/>
   <path class="fil62" d="M6949 14627c19,6 3,-23 9,-42l12 -39c5,-19 33,-41 14,-47l-222 -17c-19,-6 -7,-21 -12,-2l-21 69c-6,19 -3,62 16,67l204 11z"/>
   <path class="fil69" d="M6316 14471c5,-24 -80,-146 -30,-164 26,-8 108,26 215,60 103,33 277,70 430,110 0,0 0,152 6,177 0,0 -376,24 -541,-51 -141,-65 -89,-87 -80,-132z"/>
   <path class="fil62" d="M5907 13127c-32,228 76,446 288,497 212,51 415,-93 481,-313 41,-136 70,-459 -277,-542 -328,-79 -469,197 -492,358z"/>
   <path class="fil70" d="M6675 13142c0,0 57,65 124,-18 60,-73 -40,-224 -195,-339 -155,-114 -429,-113 -596,53 -145,144 -145,357 -90,501 0,0 109,54 146,-74 13,-46 12,-91 27,-133 8,-23 16,-8 57,81 133,4 61,-90 89,-151 19,-39 78,-68 103,-72 128,-23 224,13 335,152z"/>
   <path class="fil71" d="M6132 13101c11,2 29,21 24,53 -6,34 -9,99 -33,125 -7,8 -29,14 -40,12 -49,-8 -64,-55 -55,-108 8,-54 55,-90 104,-82z"/>
   <path class="fil60" d="M5744 13862c0,15 -13,28 -28,28l-331 0c-16,0 -28,-13 -28,-28 0,-16 12,-28 28,-28l331 0c15,0 28,12 28,28z"/>
   <path class="fil60" d="M5716 15899c-15,0 -28,-12 -28,-28l0 -2009c0,-16 13,-28 28,-28 15,0 28,12 28,28l0 2009c0,16 -13,28 -28,28z"/>
   <path class="fil60" d="M7256 15576c-16,0 -28,-12 -28,-27l0 -1115c0,-16 12,-28 28,-28 15,0 27,12 27,28l0 1115c0,15 -12,27 -27,27z"/>
   <path class="fil60" d="M5702 15140c0,-16 13,-28 28,-28l1512 0c15,0 28,12 28,28 0,15 -13,27 -28,27l-1512 0c-15,0 -28,-12 -28,-27z"/>
   <path class="fil60" d="M5702 14434c0,-16 13,-28 28,-28l1526 0c15,0 27,12 27,28 0,15 -12,27 -27,27l-1526 0c-15,0 -28,-12 -28,-27z"/>
   <path class="fil60" d="M5688 15871c0,-15 13,-28 28,-28l1166 0c15,0 28,13 28,28 0,16 -13,28 -28,28l-1166 0c-15,0 -28,-12 -28,-28z"/>
   <path class="fil60" d="M6918 15891c-11,-11 -11,-29 0,-39l318 -318c11,-11 28,-11 39,0 11,11 11,28 0,39l-318 318c-11,11 -28,11 -39,0z"/>
   <path class="fil60" d="M6441 15507l-41 0c0,189 -77,360 -200,483 -124,124 -295,201 -484,201 -189,0 -360,-77 -484,-201 -123,-123 -200,-294 -200,-483 0,-189 77,-360 200,-484 124,-124 295,-200 484,-200 189,0 360,76 484,200 123,124 200,295 200,484l41 0 42 0c0,-424 -343,-767 -767,-767 -424,0 -767,343 -767,767 0,423 343,767 767,767 424,0 767,-344 767,-767l-42 0z"/>
   <path class="fil60" d="M6313 15507l-17 0c0,160 -65,305 -170,410 -105,105 -250,170 -410,170 -160,0 -305,-65 -410,-170 -105,-105 -170,-250 -170,-410 0,-160 65,-305 170,-410 105,-105 250,-170 410,-170 160,0 305,65 410,170 105,105 170,250 170,410l17 0 16 0c0,-339 -274,-613 -613,-613 -339,0 -613,274 -613,613 0,339 274,613 613,613 339,0 613,-274 613,-613l-16 0z"/>
   <path class="fil60" d="M5886 15507c0,94 -76,170 -170,170 -94,0 -171,-76 -171,-170 0,-94 77,-171 171,-171 94,0 170,77 170,171z"/>
   <path class="fil60" d="M7212 15886l-42 0c0,72 -29,137 -76,184 -47,47 -112,77 -184,77 -72,0 -137,-30 -184,-77 -48,-47 -77,-112 -77,-184 0,-72 29,-137 77,-184 47,-47 112,-77 184,-77 72,0 137,30 184,77 47,47 76,112 76,184l42 0 41 0c0,-190 -153,-343 -343,-343 -190,0 -344,153 -344,343 0,190 154,343 344,344 190,-1 343,-154 343,-344l-41 0z"/>
   <path class="fil60" d="M7034 15886c0,69 -56,124 -124,124 -69,0 -124,-55 -124,-124 0,-69 55,-124 124,-124 68,0 124,55 124,124z"/>
   <path class="fil72" d="M7228 14568l-1484 0 0 544 1484 0 0 -544z"/>
   <path class="fil73" d="M4814 13594c-71,87 -59,269 -107,225 -196,-181 -431,-526 -426,-681 3,-103 34,-123 70,-125 150,-9 207,225 369,458l94 123z"/>
   <path class="fil65" d="M5320 13788c20,2 19,-29 22,-49l5 -40c5,-13 -12,-14 -32,-16l-156 -20c-20,-2 -38,-12 -40,8l-9 71c-2,20 10,49 30,51l180 -5z"/>
   <path class="fil65" d="M5545 13795c0,0 8,31 25,27 50,-12 9,-97 -21,-116 -22,-14 -86,-36 -196,-23 -44,5 -47,19 -88,52 0,0 -9,8 10,53 13,29 47,26 55,27 26,3 79,-47 105,-11 25,36 56,28 57,3 0,0 37,33 53,-12z"/>
   <path class="fil65" d="M5437 13795c0,0 -22,-30 -36,-8 -14,22 -7,36 16,50 22,14 109,69 157,-48 0,-92 -141,-46 -141,-46l4 52z"/>
   <path class="fil66" d="M5466 13756c0,0 46,26 37,62 -8,36 -51,42 -95,14 0,0 60,28 83,-5 24,-34 -25,-71 -25,-71z"/>
   <path class="fil66" d="M5502 13747c0,0 48,44 32,83 -17,39 -68,45 -112,8 0,0 64,34 96,1 33,-34 -16,-92 -16,-92z"/>
   <path class="fil66" d="M5545 13832c-6,7 -15,13 -24,16 0,3 -23,10 -25,14 22,1 57,-19 64,-39 16,-41 -31,-88 -31,-88 0,0 48,61 16,97z"/>
   <path class="fil73" d="M4690 13733c1,-24 -103,-130 -57,-156 24,-13 111,7 222,23 107,15 260,50 417,64 0,0 -11,125 0,149 0,0 -307,84 -481,37 -150,-40 -103,-71 -101,-117z"/>
   <path class="fil67" d="M4174 13149c0,75 80,61 155,61 75,0 98,-15 98,-90l38 -231c0,-75 -61,-136 -136,-136 -75,0 -155,23 -155,98l0 298z"/>
   <path class="fil62" d="M3595 15837c-40,56 8,84 64,125 55,40 133,27 174,-28l57 -79c40,-56 27,-134 -28,-174 -56,-40 -134,-28 -174,28l-93 128z"/>
   <path class="fil72" d="M4365 14273c0,0 -158,-124 -216,-12 -65,127 -116,882 -139,991 -12,57 21,119 133,131 111,11 191,76 214,-17 79,-316 175,-811 185,-918 10,-107 -32,-149 -177,-175z"/>
   <path class="fil72" d="M3738 15889c32,23 34,18 92,56 -10,14 461,-424 530,-580 69,-157 4,-233 -48,-270 -51,-37 -150,-54 -253,83 -108,143 -457,630 -447,616 54,43 94,71 126,95z"/>
   <path class="fil74" d="M3545 15893c0,0 318,26 350,30 33,4 170,126 54,270l-416 -283 12 -17z"/>
   <path class="fil75" d="M3971 16160c-6,11 -13,22 -22,33l-416 -283 12 -17c0,0 14,1 35,3l391 264z"/>
   <path class="fil76" d="M4365 14273l0 0c-2,-1 -75,-59 -140,-59 65,0 138,58 140,59zm-7 1096c1,-1 1,-3 2,-4 0,-1 0,-1 0,-1 0,0 0,0 0,1 -1,1 -1,3 -2,4zm-133 -1155c0,0 0,0 0,0l0 0c0,0 0,0 0,0l0 0z"/>
   <path class="fil77" d="M4352 15383c0,-1 0,-1 -1,-1 1,-2 2,-3 3,-5 0,2 -1,4 -2,6zm38 -151c-4,-71 -44,-113 -78,-137 -19,-14 -45,-25 -75,-26 -9,-24 -18,-49 -27,-74 -76,-8 -135,-20 -168,-28 27,-264 64,-622 107,-706 0,0 0,0 0,0 18,-35 46,-47 76,-47 0,0 0,0 0,0 0,0 0,0 0,0 65,0 138,58 140,59 0,0 0,0 0,0 7,1 14,2 21,4 -12,2 -24,5 -37,9 -1,0 -1,0 -1,0 0,0 -1,0 -2,1 0,0 0,0 0,0 -1,-1 -33,-11 -69,-11 0,0 0,0 0,0l0 0c0,0 -1,0 -1,0 -45,0 -95,16 -98,86l0 0c0,0 0,1 0,2 0,4 0,9 1,14 0,0 0,0 0,1 0,0 0,0 0,0 0,1 0,2 0,4 0,1 0,1 0,2l0 0c4,32 15,78 30,133 39,141 110,341 170,507 0,0 0,0 0,0 12,35 24,67 35,98 -8,37 -16,73 -24,109z"/>
   <path class="fil77" d="M4351 15382c-10,-12 -17,-26 -21,-42 -9,-36 -47,-142 -93,-271 30,1 56,12 75,26 34,24 74,66 78,137 0,0 0,0 0,0 1,36 -7,79 -30,132 0,0 0,0 0,1 -1,1 -1,3 -2,4 -1,3 -2,5 -4,8 0,0 0,0 0,0 -1,2 -2,3 -3,5z"/>
   <path class="fil72" d="M4346 14287c0,0 -164,-52 -168,75 -4,142 275,846 301,954 14,57 71,98 176,61 42,-15 83,-12 116,-9 49,5 81,10 74,-48 -44,-327 -195,-858 -232,-959 -37,-101 -125,-114 -267,-74z"/>
   <path class="fil58" d="M4612 14360c0,0 0,0 0,0 0,0 0,0 0,0zm0 -2c0,0 0,0 0,0 0,0 0,0 0,0zm-1 0c-24,-65 -71,-92 -139,-92 68,0 115,27 139,92zm-140 -92c0,0 1,0 1,0l0 0c0,0 -1,0 -1,0z"/>
   <path class="fil78" d="M4379 15025c0,0 0,0 0,0 -60,-166 -131,-366 -170,-507 39,141 110,341 170,507zm-200 -640l0 0c0,-1 0,-1 0,-2 0,1 0,2 0,2zm0 -6c0,0 0,0 0,0 0,-1 0,-1 0,-1 0,0 0,1 0,1zm-1 -15c0,-1 0,-2 0,-2 0,0 0,1 0,2zm168 -77c-1,-1 -33,-11 -69,-11 36,0 68,10 69,11zm2 -1c0,0 0,0 1,0 -1,0 -1,0 -1,0zm-72 -10c0,0 1,0 1,0l0 0c0,0 -1,0 -1,0z"/>
   <path class="fil79" d="M4397 15026c-6,0 -12,0 -18,-1 -60,-166 -131,-366 -170,-507 -15,-55 -26,-101 -29,-132l-1 -1c0,0 0,-1 0,-2 0,-2 0,-3 0,-4 0,0 0,-1 0,-1 0,-1 0,-3 0,-4l-1 -4c0,-2 0,-4 0,-6 0,-1 0,-2 0,-2l0 0c3,-70 53,-86 98,-86 0,0 1,0 1,0 0,0 0,0 0,0 36,0 68,10 69,11 0,0 0,0 0,0 1,-1 2,-1 2,-1 0,0 0,0 1,0 47,-13 87,-20 122,-20 0,0 1,0 1,0 0,0 0,0 0,0 68,0 115,27 139,92 1,0 1,0 1,0 0,0 0,0 0,0 0,1 0,1 0,2 0,0 0,0 0,0 0,0 1,1 1,1 1,3 2,5 3,8 28,83 99,348 160,606 -179,41 -302,51 -379,51z"/>
   <path class="fil62" d="M4519 16137c2,69 57,62 126,60 69,-1 123,-59 121,-127l-2 -97c-2,-69 -59,-123 -128,-122 -69,2 -123,59 -121,128l4 158z"/>
   <path class="fil72" d="M4664 16091c39,-1 38,-6 107,-11 1,18 110,-617 69,-783 -40,-165 -138,-187 -201,-185 -64,1 -152,48 -151,219 1,180 19,779 18,761 70,2 118,0 158,-1z"/>
   <path class="fil74" d="M4519 16208c0,0 263,-156 291,-172 28,-17 211,-3 207,181l-497 12 -1 -21z"/>
   <path class="fil75" d="M5014 16178c2,12 3,25 3,39l-497 12 -1 -21c0,0 11,-7 29,-19l466 -11z"/>
   <path class="fil80" d="M4754 14877c-314,97 -712,0 -712,0 0,0 -6,-1386 72,-1680 38,-144 220,-161 331,-137 82,67 168,286 212,326 62,227 60,709 97,1491z"/>
   <path class="fil72" d="M4322 14696c0,26 21,47 47,47l218 0c26,0 47,-21 47,-47l0 -256c0,-26 -21,-47 -47,-47l-218 0c-26,0 -47,21 -47,47l0 256z"/>
   <path class="fil77" d="M4278 14429c0,10 9,19 19,19l361 0c10,0 19,-9 19,-19l0 -69c0,-11 -9,-19 -19,-19l-361 0c-10,0 -19,8 -19,19l0 69z"/>
   <path class="fil77" d="M4445 13060c82,53 126,219 212,326 19,71 30,160 47,299l-172 -213 12 -147 -110 76 11 -341z"/>
   <path class="fil81" d="M4645 13345c6,13 10,31 14,48l-214 -333c69,46 127,129 200,285z"/>
   <path class="fil72" d="M4780 13676c-75,83 -72,265 -118,219 -187,-191 -404,-547 -392,-702 8,-102 40,-121 77,-121 150,-2 195,236 345,476l88 128z"/>
   <path class="fil62" d="M5519 13870c0,0 9,31 25,27 50,-12 9,-97 -21,-116 -21,-14 -86,-37 -196,-23 -44,5 -47,19 -88,51 0,0 -9,9 11,54 12,29 46,26 54,27 26,3 79,-47 105,-11 25,36 56,28 57,3 0,0 37,33 53,-12z"/>
   <path class="fil62" d="M5412 13870c0,0 -22,-31 -37,-8 -14,22 -7,36 16,50 23,14 109,69 158,-48 -1,-92 -142,-46 -142,-46l5 52z"/>
   <path class="fil66" d="M5441 13830c0,0 46,27 37,63 -9,35 -52,42 -96,14 0,0 60,28 83,-6 24,-33 -24,-71 -24,-71z"/>
   <path class="fil66" d="M5476 13822c0,0 48,44 32,83 -16,39 -67,45 -112,8 0,0 64,34 97,0 32,-34 -17,-91 -17,-91z"/>
   <path class="fil66" d="M5520 13907c-7,7 -16,13 -24,16 -1,3 -24,10 -26,13 22,2 57,-19 64,-38 16,-41 -31,-89 -31,-89 0,0 48,62 17,98z"/>
   <path class="fil62" d="M5296 13890c19,3 0,-23 4,-43l7 -40c3,-20 28,-45 8,-48l-222 9c-20,-4 -9,-20 -13,-1l-12 71c-3,20 4,62 24,65l204 -13z"/>
   <path class="fil72" d="M4649 13809c2,-24 -97,-136 -49,-159 24,-12 110,12 220,33 106,21 283,38 440,60 0,0 18,151 27,175 0,0 -371,67 -543,12 -148,-48 -99,-76 -95,-121z"/>
   <path class="fil62" d="M3978 12561c22,228 177,416 396,416 218,0 382,-187 395,-416 9,-142 -39,-464 -395,-464 -338,0 -411,302 -396,464z"/>
   <path class="fil70" d="M4001 12736c0,0 -107,-191 -24,-428 82,-237 272,-313 511,-232 168,57 288,59 323,-22 0,0 29,381 -107,292 -226,-148 -506,-20 -403,174l-30 59c0,0 -43,-160 -120,-79 -18,18 27,114 42,160 -58,74 -139,184 -192,76z"/>
   <path class="fil71" d="M4208 12459c12,-2 35,10 41,42 6,35 24,97 10,129 -4,10 -22,23 -34,25 -48,9 -78,-30 -88,-84 -9,-53 23,-103 71,-112z"/>
   <path class="fil60" d="M5413 13862c0,15 -12,28 -27,28l-43 0c-16,0 -28,-13 -28,-28 0,-16 12,-28 28,-28l43 0c15,0 27,12 27,28z"/>
  </g>
 </g>
</svg>
