<?xml version="1.0" encoding="UTF-8"?>
<!DOCTYPE svg PUBLIC "-//W3C//DTD SVG 1.0//EN" "http://www.w3.org/TR/2001/REC-SVG-20010904/DTD/svg10.dtd">
<!-- Creator: CorelDRAW X7 -->
<svg xmlns="http://www.w3.org/2000/svg" xml:space="preserve" width="200mm" height="200mm" version="1.0" style="shape-rendering:geometricPrecision; text-rendering:geometricPrecision; image-rendering:optimizeQuality; fill-rule:evenodd; clip-rule:evenodd"
viewBox="0 0 20000 20000"
 xmlns:xlink="http://www.w3.org/1999/xlink">
 <defs>
  <style type="text/css">
   <![CDATA[
    .str1 {stroke:#3696A0;stroke-width:25}
    .str7 {stroke:#843BB6;stroke-width:25}
    .str6 {stroke:#CA3A56;stroke-width:25}
    .str0 {stroke:#5B5B5B;stroke-width:7.62}
    .str5 {stroke:#2E99A3;stroke-width:16.61;stroke-linecap:round;stroke-linejoin:round}
    .str4 {stroke:#737370;stroke-width:73.41;stroke-linecap:round;stroke-linejoin:round}
    .str2 {stroke:#B54F66;stroke-width:73.41;stroke-linecap:round;stroke-linejoin:round}
    .str3 {stroke:#CC5770;stroke-width:116.77;stroke-linecap:round;stroke-linejoin:round;stroke-dasharray:84.660000 253.980000}
    .fil22 {fill:none}
    .fil24 {fill:none;fill-rule:nonzero}
    .fil27 {fill:#FEFEFE}
    .fil26 {fill:#E95533}
    .fil25 {fill:#CB3C58}
    .fil1 {fill:#794A96}
    .fil28 {fill:#585356}
    .fil3 {fill:#0050A0}
    .fil4 {fill:#3497A1}
    .fil10 {fill:#3696A0}
    .fil9 {fill:#3C4F59}
    .fil8 {fill:#7C8E97}
    .fil17 {fill:#ABC9BF}
    .fil13 {fill:#B3B3B3}
    .fil7 {fill:#BB8076}
    .fil11 {fill:#BDD6D1}
    .fil12 {fill:#C4C7C7}
    .fil16 {fill:#C9E6E8}
    .fil21 {fill:#CC5770}
    .fil6 {fill:#D4EFFF}
    .fil14 {fill:#D9D9D9}
    .fil5 {fill:#DBBCB6}
    .fil2 {fill:#FEE9D0}
    .fil15 {fill:#034540;fill-rule:nonzero}
    .fil20 {fill:#2E99A3;fill-rule:nonzero}
    .fil18 {fill:#5C5C5C;fill-rule:nonzero}
    .fil23 {fill:#B54F66;fill-rule:nonzero}
    .fil19 {fill:#BDD6D1;fill-rule:nonzero}
    .fil0 {fill:url(#id0)}
   ]]>
  </style>
  <radialGradient id="id0" gradientUnits="userSpaceOnUse" gradientTransform="matrix(1.41421 -0 -0 1.41421 -4155 -4129)" cx="10030.6" cy="9969.4" r="10000" fx="10030.6" fy="9969.4">
   <stop offset="0" style="stop-opacity:1; stop-color:#FEFEFE"/>
   <stop offset="0.439216" style="stop-opacity:1; stop-color:#FEFEFE"/>
   <stop offset="1" style="stop-opacity:1; stop-color:#D1E2F2"/>
  </radialGradient>
 </defs>
 <g id="Layer_x0020_1">
  <metadata id="CorelCorpID_0Corel-Layer"/>
  <path class="fil0" d="M31 -31l20000 0 0 20000 -20000 0 0 -20000z"/>
  <path class="fil1" d="M16589 16508l3291 0 -5976 -2895 -2145 0 451 2031 5121 4204 -742 -3340z"/>
  <g id="_1005933038032">
   <path class="fil2 str0" d="M16454 8669l-3242 0 0 -1901 3242 0 0 1901z"/>
   <path class="fil3 str0" d="M16690 6788l-3714 0 238 -461 3237 0 239 461z"/>
   <path class="fil2 str0" d="M13896 6805l930 -738 944 738 -1874 0z"/>
   <path class="fil3 str0" d="M13914 6829l912 -724 925 724c13,10 32,8 42,-5 10,-13 8,-32 -5,-42l-944 -738c-11,-9 -26,-8 -37,0l-930 738c-13,10 -15,29 -5,42 11,13 29,15 42,5z"/>
   <path class="fil4 str0" d="M13812 8527l-462 0 0 -938 462 0 0 938z"/>
   <path class="fil5 str0" d="M13812 8527l0 -14 -449 0 0 -911 435 0 0 925 14 0 0 -14 0 14 13 0 0 -952 -489 0 0 965 489 0 0 -13 -13 0z"/>
   <path class="fil6 str0" d="M13581 7589l0 950 0 -950z"/>
   <path class="fil5 str0" d="M13567 7589l0 950 27 0 0 -950 -27 0z"/>
   <path class="fil4 str0" d="M16316 8527l-462 0 0 -938 462 0 0 938z"/>
   <path class="fil5 str0" d="M16316 8527l0 -14 -449 0 0 -911 435 0 0 925 14 0 0 -14 0 14 13 0 0 -952 -489 0 0 965 489 0 0 -13 -13 0z"/>
   <path class="fil6 str0" d="M16085 7589l0 950 0 -950z"/>
   <path class="fil5 str0" d="M16071 7589l0 950 27 0 0 -950 -27 0z"/>
   <path class="fil7 str0" d="M14193 8669l-52 0 0 -1156 52 0 0 1156z"/>
   <path class="fil7 str0" d="M15525 8669l-53 0 0 -1156 53 0 0 1156z"/>
   <path class="fil3 str0" d="M15628 7534l-1590 0 0 -186 1590 0 0 186z"/>
   <path class="fil8 str0" d="M15309 8669l-953 0 0 -1063 953 0 0 1063z"/>
   <path class="fil9 str0" d="M14839 8669l-13 0 0 -1063 13 0 0 1063z"/>
   <path class="fil9 str0" d="M14788 8175l-42 0c-9,0 -15,-7 -15,-15 0,-8 6,-15 15,-15l42 0c8,0 15,7 15,15 0,8 -7,15 -15,15z"/>
   <path class="fil9 str0" d="M14927 8175l-42 0c-8,0 -15,-7 -15,-15 0,-8 7,-15 15,-15l42 0c8,0 15,7 15,15 0,8 -7,15 -15,15z"/>
   <path class="fil4 str0" d="M13624 7256l-269 0 0 -337 269 0 0 337z"/>
   <path class="fil5 str0" d="M13624 7256l0 -14 -256 0 0 -309 242 0 0 323 14 0 0 -14 0 14 13 0 0 -350 -296 0 0 363 296 0 0 -13 -13 0z"/>
   <path class="fil4 str0" d="M14010 7256l-269 0 0 -337 269 0 0 337z"/>
   <path class="fil5 str0" d="M14010 7256l0 -14 -256 0 0 -309 242 0 0 323 14 0 0 -14 0 14 13 0 0 -350 -296 0 0 363 296 0 0 -13 -13 0z"/>
   <path class="fil4 str0" d="M14396 7256l-269 0 0 -337 269 0 0 337z"/>
   <path class="fil5 str0" d="M14396 7256l0 -14 -256 0 0 -309 242 0 0 323 14 0 0 -14 0 14 13 0 0 -350 -296 0 0 363 296 0 0 -13 -13 0z"/>
   <path class="fil4 str0" d="M14782 7256l-269 0 0 -337 269 0 0 337z"/>
   <path class="fil5 str0" d="M14782 7256l0 -14 -255 0 0 -309 241 0 0 323 14 0 0 -14 0 14 14 0 0 -350 -297 0 0 363 297 0 0 -13 -14 0z"/>
   <path class="fil4 str0" d="M15168 7256l-269 0 0 -337 269 0 0 337z"/>
   <path class="fil5 str0" d="M15168 7256l0 -14 -255 0 0 -309 241 0 0 323 14 0 0 -14 0 14 14 0 0 -350 -297 0 0 363 297 0 0 -13 -14 0z"/>
   <path class="fil4 str0" d="M15554 7256l-269 0 0 -337 269 0 0 337z"/>
   <path class="fil5 str0" d="M15554 7256l0 -14 -255 0 0 -309 242 0 0 323 13 0 0 -14 0 14 14 0 0 -350 -296 0 0 363 296 0 0 -13 -14 0z"/>
   <path class="fil4 str0" d="M15940 7256l-269 0 0 -337 269 0 0 337z"/>
   <path class="fil5 str0" d="M15940 7256l0 -14 -255 0 0 -309 242 0 0 323 13 0 0 -14 0 14 14 0 0 -350 -296 0 0 363 296 0 0 -13 -14 0z"/>
   <path class="fil4 str0" d="M16326 7256l-269 0 0 -337 269 0 0 337z"/>
   <path class="fil5 str0" d="M16326 7256l0 -14 -255 0 0 -309 242 0 0 323 13 0 0 -14 0 14 14 0 0 -350 -296 0 0 363 296 0 0 -13 -14 0z"/>
   <path class="fil10 str1" d="M14339 8897l-116 0c-9,0 -16,-2 -22,-7 -5,-7 -7,-14 -7,-21 0,-7 2,-13 7,-20 5,-6 12,-9 22,-9l289 0c8,0 15,3 21,9 5,5 8,12 8,20 0,6 -2,13 -7,19 -5,6 -12,9 -22,9l-116 0 0 493c0,9 -2,16 -8,22 -5,4 -12,7 -20,7 -8,0 -15,-3 -21,-7 -5,-5 -8,-12 -8,-22l0 -493zm665 493c0,9 -3,16 -8,22 -5,4 -12,7 -21,7 -7,0 -14,-3 -20,-7 -6,-5 -9,-12 -9,-22l0 -409 -234 423c-4,6 -8,10 -13,14l-7 4c-1,0 -4,1 -9,2 -5,0 -11,-3 -19,-9 -5,-6 -7,-14 -7,-25l0 -521c0,-8 3,-15 9,-21 5,-5 12,-8 20,-8 7,0 14,3 20,7 6,5 9,12 9,22l0 409 234 -423c3,-5 7,-9 13,-14 5,-4 10,-6 16,-6 6,0 12,3 17,10 6,6 9,14 9,24l0 521zm173 -300l244 -242c6,-6 13,-8 20,-8 8,0 14,3 20,9 7,6 10,12 10,21 0,4 -3,11 -9,19l-172 172 177 314 5 16c0,7 -4,14 -10,19 -6,6 -13,9 -21,9 -9,0 -18,-5 -24,-15l-170 -302 -70 68 0 220c0,9 -2,16 -8,22 -5,4 -12,7 -20,7 -8,0 -15,-3 -20,-7 -6,-5 -9,-12 -9,-22l0 -522c0,-8 3,-14 9,-20 6,-5 12,-8 20,-8 7,0 14,2 20,6 6,5 8,13 8,22l0 222z"/>
  </g>
  <g id="_1005933031760">
   <path class="fil2 str0" d="M11228 5991l-2082 0 0 -1901 2082 0 0 1901z"/>
   <path class="fil3 str0" d="M11370 4109l-2365 0 152 -460 2061 0 152 460z"/>
   <path class="fil2 str0" d="M9277 4127l930 -738 944 738 -1874 0z"/>
   <path class="fil3 str0" d="M9295 4150l912 -723 925 724c13,10 32,7 42,-6 10,-13 8,-31 -5,-41l-944 -738c-11,-9 -26,-9 -37,0l-930 738c-13,10 -15,29 -5,42 10,12 29,15 42,4z"/>
   <path class="fil7 str0" d="M9574 5991l-52 0 0 -1156 52 0 0 1156z"/>
   <path class="fil7 str0" d="M10905 5991l-52 0 0 -1156 52 0 0 1156z"/>
   <path class="fil3 str0" d="M11009 4855l-1591 0 0 -185 1591 0 0 185z"/>
   <path class="fil8 str0" d="M10690 5991l-953 0 0 -1064 953 0 0 1064z"/>
   <path class="fil9 str0" d="M10220 5991l-13 0 0 -1064 13 0 0 1064z"/>
   <path class="fil9 str0" d="M10169 5497l-43 0c-8,0 -14,-7 -14,-15 0,-8 6,-15 14,-15l43 0c8,0 15,7 15,15 0,8 -7,15 -15,15z"/>
   <path class="fil9 str0" d="M10308 5497l-42 0c-9,0 -15,-7 -15,-15 0,-8 6,-15 15,-15l42 0c8,0 15,7 15,15 0,8 -7,15 -15,15z"/>
   <path class="fil4 str0" d="M9777 4577l-269 0 0 -336 269 0 0 336z"/>
   <path class="fil5 str0" d="M9777 4577l0 -13 -256 0 0 -309 242 0 0 322 14 0 0 -13 0 13 13 0 0 -349 -296 0 0 363 296 0 0 -14 -13 0z"/>
   <path class="fil4 str0" d="M10163 4577l-269 0 0 -336 269 0 0 336z"/>
   <path class="fil5 str0" d="M10163 4577l0 -13 -256 0 0 -309 242 0 0 322 14 0 0 -13 0 13 13 0 0 -349 -296 0 0 363 296 0 0 -14 -13 0z"/>
   <path class="fil4 str0" d="M10549 4577l-269 0 0 -336 269 0 0 336z"/>
   <path class="fil5 str0" d="M10549 4577l0 -13 -255 0 0 -309 241 0 0 322 14 0 0 -13 0 13 13 0 0 -349 -296 0 0 363 296 0 0 -14 -13 0z"/>
   <path class="fil4 str0" d="M10935 4577l-269 0 0 -336 269 0 0 336z"/>
   <path class="fil5 str0" d="M10935 4577l0 -13 -255 0 0 -309 241 0 0 322 14 0 0 -13 0 13 14 0 0 -349 -297 0 0 363 297 0 0 -14 -14 0z"/>
   <path class="fil10 str1" d="M9829 6456l-174 0c-31,0 -58,-11 -81,-34 -23,-22 -34,-49 -34,-82l0 -202c0,-8 2,-15 8,-22 6,-4 13,-7 20,-7 8,0 14,2 20,7 6,5 9,12 9,22l0 203c0,16 6,30 17,41 6,5 12,9 18,12 9,3 16,5 23,5l174 0 0 -261c0,-8 3,-15 9,-22 6,-4 12,-7 20,-7 7,0 14,2 20,7 6,5 9,12 9,22l0 434c0,32 -12,59 -34,82 -23,23 -50,34 -82,34l-145 0c-8,0 -16,-3 -21,-8 -5,-6 -8,-13 -8,-21 0,-7 3,-13 8,-19 5,-6 12,-9 21,-9l145 0c16,0 30,-6 41,-17 11,-10 17,-24 17,-42l0 -116zm521 203c0,9 -3,17 -8,22 -6,5 -13,7 -21,7 -8,0 -14,-2 -20,-7 -6,-5 -9,-12 -9,-22l0 -409 -235 423c-3,6 -7,11 -13,14l-6 4c-2,1 -5,1 -9,2 -5,0 -12,-3 -19,-9 -5,-5 -7,-14 -7,-25l0 -521c0,-7 2,-15 8,-21 6,-5 13,-8 20,-8 8,0 14,3 20,8 6,4 9,12 9,21l0 410 235 -424c3,-4 7,-9 13,-14 5,-4 10,-6 15,-6 7,0 12,4 18,10 6,6 9,14 9,24l0 521zm173 -300l244 -242c6,-5 13,-8 20,-8 7,0 14,3 20,9 6,6 10,13 10,21 0,5 -3,11 -9,19l-173 172 178 315 4 15c0,8 -3,14 -9,19 -6,6 -13,9 -21,9 -10,0 -18,-5 -25,-15l-170 -302 -69 68 0 220c0,9 -3,17 -8,22 -5,5 -12,7 -21,7 -7,0 -14,-2 -20,-7 -6,-5 -8,-12 -8,-22l0 -522c0,-7 3,-14 8,-20 6,-5 13,-8 20,-8 8,0 14,2 21,7 5,5 8,12 8,21l0 222z"/>
  </g>
  <g id="_1005933026000">
   <path class="fil11" d="M7018 4394l0 -2942 -514 507 0 2943 514 -508z"/>
   <path class="fil12" d="M4682 1974l0 -253 1792 0 0 253 -1792 0z"/>
   <path class="fil13" d="M7011 1468l0 -277 -537 530 0 277 537 -530z"/>
   <g>
    <path class="fil14" d="M5231 1214l1757 0 -514 507 -1757 0 514 -507z"/>
    <path id="1" class="fil15" d="M6988 1244l-1757 0 0 -61 1757 0 21 52 -21 9zm0 -61c17,0 30,14 30,31 0,16 -13,30 -30,30l0 -61zm-535 517l514 -508 42 43 -514 508 -21 8 -21 -51zm42 43c-12,11 -31,11 -42,-1 -12,-12 -11,-31 0,-42l42 43zm-1778 -52l1757 0 0 60 -1757 0 -21 -51 21 -9zm0 60c-16,0 -30,-13 -30,-30 0,-17 14,-30 30,-30l0 60zm535 -516l-514 508 -42 -43 514 -508 21 -9 21 52zm-42 -43c12,-12 31,-11 42,0 12,12 12,31 0,43l-42 -43z"/>
   </g>
   <path class="fil16" d="M4717 4917l0 -2943 1757 0 0 2943 -1757 0z"/>
   <path class="fil11" d="M5231 4409l1757 0 -514 508 -1757 0 514 -508z"/>
   <path class="fil17" d="M6474 4409l0 508 514 -508 -514 0z"/>
   <g>
    <path class="fil18" d="M5289 1516c-28,0 -50,-23 -50,-52 0,-29 22,-53 50,-53l0 105zm1067 0l-1067 0 0 -105 1067 0 0 105zm0 -105c27,0 50,24 50,53 0,29 -23,52 -50,52l0 -105z"/>
   </g>
   <g>
    <path class="fil19" d="M5261 4409c0,16 -13,30 -30,30 -17,0 -30,-14 -30,-30l60 0zm0 -2360l0 2360 -60 0 0 -2360 60 0zm-60 0c0,-16 13,-30 30,-30 17,0 30,14 30,30l-60 0z"/>
   </g>
   <g>
    <path class="fil20" d="M7019 1478l0 2916 -61 0 0 -2916 9 -21 52 21zm-61 0c0,-17 14,-30 30,-30 17,0 31,13 31,30l-61 0zm-505 486l514 -507 43 42 -514 508 -52 -22 9 -21zm43 43c-12,11 -31,11 -43,0 -12,-12 -12,-31 0,-43l43 43zm-52 2895l0 -2917 60 0 0 2917 -8 21 -52 -21zm60 0c0,17 -13,30 -30,30 -16,0 -30,-13 -30,-30l60 0zm506 -486l-514 507 -43 -42 514 -508 52 21 -9 22zm-43 -43c12,-11 31,-11 43,0 11,12 11,31 0,43l-43 -43z"/>
   </g>
   <g>
    <path class="fil20" d="M4745 1974l0 2943 -60 0 0 -2943 30 -29 30 29zm-60 0c0,-16 13,-29 30,-29 17,0 30,13 30,29l-60 0zm1787 29l-1757 0 0 -58 1757 0 30 29 -30 29zm0 -58c17,0 30,13 30,29 0,16 -13,29 -30,29l0 -58zm-30 2972l0 -2943 60 0 0 2943 -30 29 -30 -29zm60 0c0,16 -13,29 -30,29 -16,0 -30,-13 -30,-29l60 0zm-1787 -30l1757 0 0 59 -1757 0 -30 -29 30 -30zm0 59c-17,0 -30,-13 -30,-29 0,-17 13,-30 30,-30l0 59z"/>
   </g>
   <g>
    <path class="fil15" d="M6967 1468c12,-12 31,-12 43,0 11,12 11,31 -1,43l-42 -43zm-491 484l491 -484 42 43 -491 485 -21 8 -21 -52zm42 44c-12,11 -31,11 -43,-1 -11,-12 -11,-31 1,-43l42 44zm-1801 -52l1780 0 0 60 -1780 0 0 -60zm0 60c-16,0 -30,-13 -30,-30 0,-17 14,-30 30,-30l0 60z"/>
   </g>
   <path class="fil21" d="M6947 1051l-3 24c10,2 20,4 30,8 12,4 19,17 15,30 -4,13 -18,20 -30,16 -8,-2 -14,-5 -22,-6l-1 12 -112 57 -373 -49 10 -70 11 -85 9 -70 373 49 93 84z"/>
   <path class="fil22 str2" d="M6780 1095c13,-17 8,-41 -9,-54 -18,-12 -42,-8 -54,10"/>
   <path class="fil22 str3" d="M6815 1703c-164,-27 -278,-179 -256,-345"/>
   <path class="fil23" d="M6980 1086c65,24 119,66 157,121 46,66 69,148 58,235l0 0c-11,81 -50,152 -107,203 -57,52 -132,84 -212,86 -14,0 -25,-10 -25,-23 -1,-14 10,-25 23,-25 69,-2 133,-30 182,-74 48,-44 82,-104 91,-174l0 0 0 0c10,-73 -10,-144 -49,-201 -34,-47 -81,-84 -138,-104l-1 -1c12,4 26,-3 30,-16 4,-10 0,-21 -9,-27zm-410 164c23,-37 60,-79 124,-151 13,-14 27,-30 38,-43 9,-10 24,-11 34,-2 10,8 11,24 3,34 -16,18 -28,31 -39,43 -65,73 -101,114 -121,149 -12,19 -30,21 -40,14 -10,-6 -15,-19 1,-44zm229 -290c32,-55 59,-120 83,-190 24,-73 44,-152 58,-234 3,-14 15,-22 28,-20 13,2 22,15 20,28 -15,84 -35,165 -61,241 -22,66 -48,128 -76,182l-52 -7z"/>
   <path class="fil24 str4" d="M6551 1254c-9,20 -1,43 18,52 20,9 43,0 52,-19"/>
   <path class="fil24 str4" d="M6895 1667c-21,4 -35,24 -31,45 4,21 24,34 45,30"/>
   <path class="fil21" d="M4628 1487l14 19c9,-5 18,-10 27,-15 12,-6 27,-1 33,10 6,12 1,28 -11,34 -6,3 -13,6 -19,10l7 10 -39 119 -300 227 -43 -57 -51 -68 -43 -56 300 -227 125 -6z"/>
   <path class="fil22 str2" d="M4541 1636c-4,-21 -24,-36 -45,-32 -21,3 -35,23 -31,44"/>
   <path class="fil22 str3" d="M5114 1701c50,158 -34,329 -192,385"/>
   <path class="fil23" d="M4676 1489c63,-29 132,-36 197,-25 79,15 153,58 206,127l0 0c6,9 12,17 18,26 9,15 0,30 -18,30l-27 0c-5,-9 -5,-18 -11,-27l0 0 0 0c-45,-59 -109,-96 -177,-108 -57,-10 -117,-3 -171,22l-2 1c12,-6 17,-22 11,-34 -5,-9 -16,-14 -26,-12zm-70 557c60,49 137,76 218,74 13,-1 24,-12 23,-25 0,-14 -11,-24 -25,-24 -69,2 -134,-21 -186,-62 -111,-89 -99,-182 -106,-313 -1,-16 -2,-33 -3,-58 -1,-13 -12,-23 -25,-22 -14,1 -24,12 -23,25 1,17 2,38 3,58 8,149 -1,247 124,347zm-147 -520c-16,-61 -42,-127 -75,-193 -33,-69 -75,-140 -122,-208 -8,-11 -5,-26 6,-34 11,-7 26,-5 33,6 49,70 91,143 127,214 30,63 55,125 72,184l-41 31z"/>
   <path class="fil24 str4" d="M5031 1629c4,21 24,35 45,31 21,-4 35,-24 31,-45"/>
   <path class="fil24 str4" d="M4819 2134c21,2 40,-14 41,-36 2,-21 -14,-39 -35,-41"/>
   <path class="fil20 str5" d="M5189 2822c0,-27 -12,-45 -36,-53 17,-10 25,-23 25,-44l0 -12c0,-38 -22,-57 -65,-57l-40 0c-11,0 -16,7 -16,16l0 206c0,8 5,16 16,16l51 0c44,0 65,-23 65,-61l0 -11zm-100 -34l35 0c24,0 33,13 33,34l0 11c0,20 -9,30 -33,30l-35 0 0 -75zm0 -30l0 -71 24 0c23,0 33,6 33,26l0 12c0,20 -10,33 -33,33l-24 0zm193 -10l-23 0 0 -80c0,-8 -5,-15 -16,-15 -11,0 -16,7 -16,15l0 210c0,8 5,16 16,16l39 0c44,0 63,-23 63,-61l0 -21c0,-37 -19,-64 -63,-64zm-23 31l23 0c24,0 32,13 32,33l0 21c0,20 -8,30 -32,30l-23 0 0 -84zm142 103l0 -214c0,-8 -4,-15 -15,-15 -11,0 -16,7 -16,15l0 214c0,8 4,15 15,15 11,0 16,-7 16,-15zm112 -132l-31 0 0 -63 69 0c8,0 15,-5 15,-16 0,-10 -7,-15 -15,-15l-85 0c-11,0 -16,6 -16,15l0 207c0,8 6,16 16,16l47 0c43,0 63,-23 63,-61l0 -20c0,-37 -20,-63 -63,-63zm32 83c0,20 -9,31 -32,31l-31 0 0 -85 31 0c23,0 32,13 32,33l0 21zm97 -114c0,-21 8,-36 31,-36l11 0c23,0 31,15 31,36l0 112c0,21 -8,36 -31,36l-11 0c-23,0 -31,-15 -31,-36l0 -112zm105 0c0,-38 -20,-66 -63,-66l-11 0c-43,0 -62,28 -62,66l0 112c0,37 19,66 62,66l11 0c43,0 63,-29 63,-66l0 -112zm77 52l0 -85 34 0c24,0 32,10 32,31l0 20c0,21 -8,34 -32,34l-34 0zm34 30c44,0 63,-26 63,-64l0 -20c0,-38 -19,-61 -63,-61l-50 0c-11,0 -16,7 -16,16l0 210c0,8 5,15 16,15 11,0 16,-7 16,-15l0 -81 34 0zm157 -53l-23 0 0 -80c0,-8 -5,-15 -16,-15 -11,0 -16,7 -16,15l0 210c0,8 5,16 16,16l39 0c44,0 63,-23 63,-61l0 -21c0,-37 -19,-64 -63,-64zm-23 31l23 0c24,0 32,13 32,33l0 21c0,20 -8,30 -32,30l-23 0 0 -84zm142 103l0 -214c0,-8 -4,-15 -15,-15 -11,0 -16,7 -16,15l0 214c0,8 4,15 15,15 11,0 16,-7 16,-15z"/>
  </g>
  <path class="fil25" d="M11223 13184l1794 0 -4505 -2182 -1156 -52 448 1076 3868 3176 -449 -2018z"/>
  <path class="fil26" d="M6699 10491l835 37 -3791 -1836 3354 2753 -398 -954z"/>
  <path class="fil27" d="M16203 15497c0,252 -617,457 -1378,457 -761,0 -1378,-205 -1378,-457 0,-253 617,-457 1378,-457 761,0 1378,204 1378,457z"/>
  <path class="fil1" d="M15809 15497c0,153 -441,278 -984,278 -544,0 -984,-125 -984,-278 0,-154 440,-279 984,-279 543,0 984,125 984,279z"/>
  <path class="fil28" d="M14727 11094l196 0 0 4304c0,54 -44,99 -98,99l0 0c-54,0 -98,-45 -98,-99l0 -4304z"/>
  <path class="fil1" d="M16655 11291l-3660 0c-55,0 -99,-44 -99,-98l0 0c0,-55 44,-99 99,-99l3660 0c54,0 99,44 99,99l0 0c0,54 -45,98 -99,98z"/>
  <path class="fil27" d="M11002 12503c0,175 -428,317 -957,317 -528,0 -957,-142 -957,-317 0,-175 429,-317 957,-317 529,0 957,142 957,317z"/>
  <path class="fil25" d="M10729 12503c0,107 -306,193 -684,193 -377,0 -683,-86 -683,-193 0,-107 306,-194 683,-194 378,0 684,87 684,194z"/>
  <path class="fil28" d="M9947 8100l197 0 0 4305c0,54 -45,98 -99,98l0 0c-54,0 -98,-44 -98,-98l0 -4305z"/>
  <path class="fil25" d="M11875 8297l-3660 0c-54,0 -98,-44 -98,-98l0 0c0,-55 44,-99 98,-99l3660 0c55,0 99,44 99,99l0 0c0,54 -44,98 -99,98z"/>
  <path class="fil27" d="M6000 9855c0,70 -171,127 -382,127 -210,0 -381,-57 -381,-127 0,-70 171,-126 381,-126 211,0 382,56 382,126z"/>
  <path class="fil26" d="M5891 9855c0,43 -122,78 -273,78 -150,0 -272,-35 -272,-78 0,-42 122,-77 272,-77 151,0 273,35 273,77z"/>
  <path class="fil28" d="M5520 5453l197 0 0 4304c0,54 -44,98 -99,98l0 0c-54,0 -98,-44 -98,-98l0 -4304z"/>
  <path class="fil26" d="M7449 5650l-3661 0c-54,0 -98,-44 -98,-99l0 0c0,-54 44,-98 98,-98l3661 0c54,0 98,44 98,98l0 0c0,55 -44,99 -98,99z"/>
  <path class="fil25 str6" d="M8009 7618l-55 0c-13,0 -24,-4 -32,-13 -8,-8 -12,-19 -12,-31 0,-10 4,-20 12,-29 8,-9 18,-14 32,-14l43 0c27,0 48,-9 64,-26 16,-18 23,-38 23,-61 0,-24 -7,-44 -21,-60 -7,-8 -16,-14 -27,-19 -11,-5 -24,-8 -39,-8l-43 0c-40,0 -75,12 -104,36 -8,5 -17,8 -27,9 -9,0 -19,-4 -30,-13 -9,-9 -13,-19 -13,-31 0,-14 6,-26 18,-35 44,-35 96,-52 156,-52l43 0c55,0 98,18 130,54 29,33 44,73 44,120 0,13 -1,26 -3,37 -2,11 -6,23 -11,34 -8,20 -22,40 -41,59 17,15 30,35 41,59l10 35c3,11 4,23 4,37 0,48 -15,87 -44,119 -30,36 -74,54 -130,54l-43 0c-58,0 -110,-17 -156,-52 -12,-8 -18,-20 -18,-35 0,-9 4,-19 13,-29 8,-11 19,-16 30,-16 8,0 17,4 27,11 30,23 65,35 104,35l43 0c27,0 48,-9 64,-27 15,-17 23,-38 23,-61 0,-23 -6,-42 -18,-57 -13,-16 -32,-26 -57,-30zm683 88l0 -349 -174 0c-25,0 -46,9 -63,25 -8,9 -14,18 -19,28 -4,11 -6,22 -6,35l0 261c0,24 9,45 25,62 9,8 18,14 28,19 13,4 24,6 35,6l87 0c24,0 44,-8 61,-24 17,-17 26,-37 26,-63zm43 116c-14,16 -34,30 -58,41 -24,11 -48,16 -72,16l-87 0c-47,0 -88,-16 -122,-50 -35,-34 -52,-75 -52,-124l0 -260c0,-48 17,-89 51,-123 34,-34 75,-51 123,-51l217 0c29,0 43,14 43,43l0 390c0,18 6,36 17,54 10,16 24,29 43,37 18,8 28,21 28,40 0,13 -5,23 -13,31 -7,9 -18,13 -31,13 -6,0 -12,-1 -18,-4 -28,-11 -51,-29 -69,-53zm951 -724l-174 0c-13,0 -24,-4 -32,-12 -7,-9 -11,-19 -11,-31 0,-10 4,-20 11,-29 8,-9 19,-14 32,-14l174 0c68,0 122,22 163,66 36,42 54,91 54,150 0,35 -7,67 -21,96 -13,30 -35,56 -63,80 24,19 44,43 60,74 16,30 24,63 24,97l0 87c0,59 -21,110 -64,153 -42,43 -94,64 -153,64l-174 0c-13,0 -24,-4 -32,-11 -7,-10 -11,-20 -11,-32 0,-10 3,-19 11,-29 7,-9 18,-14 32,-14l174 0c36,0 67,-13 92,-38 26,-26 39,-56 39,-93l0 -87c0,-35 -13,-66 -38,-92 -25,-25 -56,-38 -93,-38l-87 0c-13,0 -24,-4 -32,-12 -8,-9 -11,-20 -11,-31 0,-10 3,-20 11,-29 7,-10 18,-14 32,-14l87 0c39,0 70,-14 95,-42 21,-25 32,-55 32,-91 0,-36 -10,-65 -31,-88 -23,-26 -55,-40 -96,-40zm1263 259l-174 0c-25,0 -46,9 -62,25 -9,9 -15,18 -19,28 -4,11 -6,22 -6,35l0 261c0,24 8,45 25,62 8,8 18,14 27,19 13,4 24,6 35,6l87 0c24,0 45,-8 62,-24 17,-17 25,-37 25,-63l0 -349zm0 -86l0 -87c0,-25 -8,-45 -24,-62 -17,-17 -38,-25 -63,-25l-174 0c-13,0 -24,-4 -32,-12 -8,-9 -11,-20 -11,-31 0,-10 3,-20 10,-29 8,-10 19,-14 33,-14l174 0c48,0 89,17 123,50 34,34 51,75 51,123l0 521c0,48 -17,89 -51,123 -34,34 -75,51 -123,51l-87 0c-47,0 -87,-16 -122,-50 -34,-34 -52,-75 -52,-124l0 -260c0,-48 17,-89 51,-123 34,-34 75,-51 123,-51l174 0zm608 260l0 -217c0,-11 4,-22 13,-32 8,-7 19,-11 30,-11 11,0 21,4 30,11 9,7 13,18 13,32l0 522c0,13 -4,24 -12,33 -8,7 -18,10 -31,10 -11,0 -22,-3 -30,-11 -9,-7 -13,-18 -13,-32l0 -218 -262 0 0 218c0,13 -4,24 -12,33 -8,7 -18,10 -31,10 -11,0 -22,-3 -30,-11 -9,-7 -13,-18 -13,-32l0 -522c0,-11 4,-22 13,-32 8,-7 19,-11 30,-11 11,0 21,4 30,11 9,7 13,18 13,32l0 217 262 0zm608 2l0 -176 -175 0c-24,0 -46,9 -65,27 -15,17 -22,37 -22,61 0,22 8,42 23,60 15,18 36,28 64,28l175 0zm-107 86l-162 241c-3,5 -8,10 -16,15l-20 4c-8,0 -18,-4 -29,-13 -10,-8 -14,-19 -14,-31 0,-7 2,-15 6,-24l131 -195c-43,-6 -76,-26 -101,-60 -24,-34 -36,-71 -36,-111 0,-47 14,-87 43,-119 33,-37 76,-55 130,-55l218 0c29,0 43,14 43,43l0 522c0,13 -4,24 -12,33 -8,7 -19,10 -31,10 -12,0 -22,-3 -31,-11 -8,-7 -12,-18 -12,-32l0 -217 -107 0z"/>
  <path class="fil1 str7" d="M12293 10586l-55 0c-13,0 -24,-4 -32,-12 -8,-9 -12,-20 -12,-31 0,-11 4,-20 12,-30 8,-9 18,-14 32,-14l43 0c27,0 48,-8 64,-26 16,-18 23,-38 23,-61 0,-24 -7,-44 -21,-60 -7,-8 -16,-14 -27,-19 -11,-5 -24,-8 -39,-8l-43 0c-40,0 -75,12 -104,36 -8,5 -17,8 -27,10 -9,0 -19,-5 -30,-14 -9,-9 -13,-19 -13,-31 0,-14 6,-26 18,-35 44,-35 96,-52 156,-52l43 0c55,0 98,18 130,54 29,33 44,73 44,120 0,14 -1,26 -3,37 -2,11 -6,23 -11,34 -8,21 -22,40 -41,59 17,16 30,35 41,59l10 35c3,11 4,24 4,37 0,48 -15,87 -44,119 -30,36 -74,54 -130,54l-43 0c-58,0 -110,-17 -156,-52 -12,-8 -18,-20 -18,-34 0,-10 4,-20 13,-30 8,-11 19,-16 30,-16 8,0 17,4 27,11 30,23 65,35 104,35l43 0c27,0 48,-9 64,-27 15,-17 23,-38 23,-61 0,-23 -6,-42 -18,-57 -13,-16 -32,-26 -57,-30zm683 88l0 -349 -174 0c-25,0 -46,9 -63,25 -8,9 -14,18 -19,29 -4,10 -6,22 -6,34l0 261c0,24 9,45 25,62 9,8 18,14 28,19 13,4 24,6 35,6l87 0c24,0 44,-8 61,-24 17,-16 26,-37 26,-63zm42 116c-13,16 -33,30 -57,41 -24,11 -48,16 -72,16l-87 0c-47,0 -88,-16 -122,-50 -35,-33 -52,-74 -52,-123l0 -261c0,-48 17,-89 51,-123 34,-34 75,-51 123,-51l217 0c29,0 43,14 43,43l0 391c0,17 6,35 17,53 10,16 24,29 43,38 18,7 27,20 27,39 0,13 -4,23 -12,31 -7,9 -18,13 -31,13 -6,0 -12,-1 -18,-4 -28,-11 -51,-29 -70,-53zm999 14c0,14 -4,25 -12,33 -8,7 -19,10 -31,10 -12,0 -22,-3 -31,-10 -8,-8 -12,-19 -12,-33l0 -677 -100 100c-9,8 -19,13 -30,13 -10,0 -21,-5 -30,-13 -9,-9 -14,-20 -14,-31 0,-10 4,-20 13,-30l173 -175c6,-5 12,-10 18,-14 6,-3 13,-5 21,-5 7,0 15,4 24,13 7,9 11,21 11,37l0 782zm608 -148c0,52 -18,97 -55,135 -37,38 -83,56 -136,56l-52 0c-52,0 -97,-18 -135,-55 -37,-37 -56,-82 -56,-136l0 -486c0,-51 18,-96 56,-134 37,-38 82,-57 135,-57l52 0c52,0 96,18 134,55 38,37 57,83 57,136l0 486zm-86 1l0 -488c0,-28 -10,-53 -31,-73 -20,-21 -44,-31 -74,-31l-52 0c-29,0 -54,10 -74,31 -21,20 -31,44 -31,73l0 488c0,28 10,53 31,73 20,21 45,31 74,31l52 0c28,0 53,-10 74,-30 20,-20 31,-44 31,-74zm651 -71l-348 0c-13,0 -24,-4 -32,-12 -7,-9 -11,-20 -11,-31 0,-11 4,-20 11,-30 8,-9 19,-14 32,-14l348 0c12,0 22,5 30,14 9,8 13,19 13,30 0,10 -4,19 -11,29 -7,9 -18,14 -32,14zm607 2l87 0c12,0 22,5 31,14 8,8 12,19 12,30 0,9 -3,19 -10,29 -8,9 -19,14 -33,14l-87 0 0 129c0,14 -4,25 -12,33 -8,7 -18,10 -31,10 -11,0 -22,-3 -30,-10 -9,-8 -13,-18 -13,-33l0 -129 -261 0c-30,0 -45,-12 -45,-35l1 -11 2 -10 174 -608c3,-9 7,-17 15,-24l8 -4c5,-3 10,-4 17,-4 12,0 23,4 31,12 9,8 14,18 14,31l-2 13 -158 553 204 0 0 -130c0,-12 4,-22 13,-32 8,-8 19,-12 30,-12 11,0 21,4 30,11 9,8 13,18 13,33l0 130zm1172 -263l-174 0c-25,0 -45,9 -62,25 -8,9 -15,18 -19,29 -4,10 -6,22 -6,34l0 261c0,24 8,45 25,62 8,8 18,14 28,19 12,4 24,6 34,6l87 0c24,0 45,-8 62,-24 17,-16 25,-37 25,-63l0 -349zm0 -86l0 -87c0,-24 -8,-45 -24,-62 -16,-16 -37,-25 -63,-25l-174 0c-13,0 -24,-4 -32,-12 -7,-9 -11,-20 -11,-31 0,-10 3,-20 11,-29 7,-10 18,-14 32,-14l174 0c49,0 90,17 123,51 34,34 51,74 51,123l0 521c0,47 -17,88 -51,122 -34,34 -75,51 -123,51l-87 0c-47,0 -87,-16 -122,-50 -34,-33 -52,-74 -52,-123l0 -261c0,-48 17,-89 51,-123 34,-34 75,-51 123,-51l174 0zm608 260l0 -217c0,-11 4,-22 13,-32 9,-7 19,-11 30,-11 11,0 22,4 30,11 9,7 14,18 14,32l0 522c0,14 -5,25 -13,33 -8,7 -18,10 -31,10 -11,0 -21,-3 -30,-11 -9,-7 -13,-18 -13,-32l0 -218 -261 0 0 218c0,14 -4,25 -13,33 -8,7 -18,10 -31,10 -11,0 -21,-3 -30,-10 -9,-8 -13,-19 -13,-33l0 -522c0,-11 4,-22 13,-32 9,-7 19,-11 30,-11 11,0 22,4 30,11 9,7 14,18 14,32l0 217 261 0zm608 2l0 -176 -175 0c-24,0 -46,9 -64,27 -15,17 -23,37 -23,61 0,22 8,42 23,60 15,19 37,28 64,28l175 0zm-107 86l-161 241c-4,5 -9,10 -17,15l-19 4c-9,0 -19,-4 -30,-12 -9,-9 -14,-20 -14,-31 0,-8 2,-16 7,-25l130 -194c-43,-7 -76,-27 -101,-61 -24,-34 -36,-71 -36,-111 0,-47 14,-86 43,-119 33,-37 76,-55 131,-55l217 0c29,0 43,14 43,43l0 522c0,14 -4,25 -12,33 -8,7 -18,10 -31,10 -11,0 -22,-3 -30,-10 -9,-8 -13,-19 -13,-33l0 -217 -107 0z"/>
 </g>
</svg>
