<?xml version="1.0" encoding="UTF-8"?>
<!DOCTYPE svg PUBLIC "-//W3C//DTD SVG 1.0//EN" "http://www.w3.org/TR/2001/REC-SVG-20010904/DTD/svg10.dtd">
<!-- Creator: CorelDRAW X7 -->
<svg xmlns="http://www.w3.org/2000/svg" xml:space="preserve" width="200mm" height="200mm" version="1.0" style="shape-rendering:geometricPrecision; text-rendering:geometricPrecision; image-rendering:optimizeQuality; fill-rule:evenodd; clip-rule:evenodd"
viewBox="0 0 20000 20000"
 xmlns:xlink="http://www.w3.org/1999/xlink">
 <defs>
  <style type="text/css">
   <![CDATA[
    .str2 {stroke:#4D897C;stroke-width:20}
    .str1 {stroke:#4D897C;stroke-width:60;stroke-linecap:round;stroke-linejoin:round}
    .str0 {stroke:#024541;stroke-width:159.99;stroke-linecap:round;stroke-linejoin:round}
    .str3 {stroke:#008DD2;stroke-width:62.89;stroke-linecap:round;stroke-linejoin:round}
    .fil4 {fill:none;fill-rule:nonzero}
    .fil1 {fill:#EBF2D9}
    .fil2 {fill:#CDDBAC}
    .fil5 {fill:#4D897C}
    .fil3 {fill:#4D897C;fill-rule:nonzero}
    .fil0 {fill:url(#id0)}
   ]]>
  </style>
  <radialGradient id="id0" gradientUnits="userSpaceOnUse" gradientTransform="matrix(1.41421 -0 -0 1.41421 -4142 -4140)" cx="9999.37" cy="9994.13" r="10000" fx="9999.37" fy="9994.13">
   <stop offset="0" style="stop-opacity:1; stop-color:#FEFEFE"/>
   <stop offset="0.439216" style="stop-opacity:1; stop-color:#FEFEFE"/>
   <stop offset="1" style="stop-opacity:1; stop-color:#D1E2F2"/>
  </radialGradient>
 </defs>
 <g id="Layer_x0020_1">
  <metadata id="CorelCorpID_0Corel-Layer"/>
  <path class="fil0" d="M-1 -6l20000 0 0 20000 -20000 0 0 -20000z"/>
  <path class="fil1" d="M9761 5829l0 8833c-2205,0 -3683,0 -5888,0l0 -8833 5888 0z"/>
  <path class="fil2" d="M3873 5829l5888 0 0 3361 -5888 -2798c10,-289 0,-370 0,-563z"/>
  <g>
   <path class="fil3" d="M4855 6805l-114 0 0 -153 201 0c18,0 34,-10 34,-36 0,-25 -16,-37 -34,-37l-237 0c-27,0 -38,18 -38,37l0 498c0,20 11,38 38,38l150 0c102,0 151,-69 151,-159l0 -37c0,-92 -49,-151 -151,-151zm77 196c0,49 -21,77 -75,77l-116 0 0 -204 114 0c54,0 77,29 77,78l0 49zm496 -430c-105,0 -152,92 -152,182l0 59 -71 0 0 -204c0,-19 -8,-37 -35,-37 -25,0 -35,18 -35,37l0 514c0,20 10,38 35,38 26,0 35,-18 35,-38l0 -236 71 0 0 109c0,90 46,165 146,165l41 0c100,0 150,-74 150,-164l0 -262c0,-90 -50,-163 -150,-163l-35 0zm111 425c0,51 -21,90 -76,90l-37 0c-55,0 -76,-39 -76,-90l0 -237c0,-51 21,-115 78,-115l35 0c54,0 76,40 76,86l0 266zm314 53c6,-47 47,-397 47,-397l137 0 0 470c0,20 11,38 38,38 25,0 36,-18 36,-38l0 -506c0,-19 -11,-37 -36,-37l-205 0c-23,0 -36,15 -38,37 -2,24 -45,382 -49,414 -2,19 -5,31 -9,39 -8,16 -22,20 -44,20 -19,0 -37,12 -37,38 0,28 18,37 37,37 68,0 96,-23 112,-64 6,-15 9,-30 11,-51zm522 0c6,-47 46,-397 46,-397l138 0 0 470c0,20 11,38 38,38 25,0 36,-18 36,-38l0 -506c0,-19 -11,-37 -36,-37l-205 0c-23,0 -36,15 -38,37 -3,24 -45,382 -49,414 -2,19 -5,31 -9,39 -8,16 -22,20 -45,20 -18,0 -36,12 -36,38 0,28 18,37 36,37 69,0 97,-23 113,-64 6,-15 9,-30 11,-51zm701 103c18,0 35,-11 35,-37 0,-25 -17,-37 -35,-37l-215 0 0 -184 178 0c18,0 34,-11 34,-37 0,-25 -16,-37 -34,-37l-178 0 0 -168 215 0c18,0 35,-10 35,-36 0,-25 -17,-37 -35,-37l-253 0c-25,0 -36,18 -36,37l0 498c0,20 11,38 36,38l253 0zm297 8c26,0 37,-18 37,-38l0 -470 115 0c18,0 35,-10 35,-36 0,-25 -17,-37 -35,-37l-304 0c-18,0 -34,12 -34,37 0,26 16,36 34,36l115 0 0 470c0,20 11,38 37,38zm579 -8c19,0 35,-11 35,-37 0,-25 -16,-37 -35,-37l-215 0 0 -184 178 0c18,0 34,-11 34,-37 0,-25 -16,-37 -34,-37l-178 0 0 -168 215 0c19,0 35,-10 35,-36 0,-25 -16,-37 -35,-37l-253 0c-25,0 -36,18 -36,37l0 498c0,20 11,38 36,38l253 0zm512 -544c0,-19 -12,-37 -37,-37 -26,0 -37,18 -37,37l0 204 -207 0 0 -204c0,-19 -10,-37 -37,-37 -25,0 -37,18 -37,37l0 514c0,20 12,38 37,38 26,0 37,-18 37,-38l0 -236 207 0 0 236c0,20 10,38 37,38 25,0 37,-18 37,-38l0 -514zm352 193l-124 0 0 -193c0,-19 -11,-37 -37,-37 -26,0 -37,18 -37,37l0 506c0,20 11,38 38,38l160 0c102,0 151,-69 151,-159l0 -37c0,-92 -47,-155 -151,-155zm77 200c0,49 -21,77 -75,77l-126 0 0 -204 124 0c54,0 77,29 77,78l0 49z"/>
   <path id="1" class="fil3" d="M4741 6793l114 0 0 25 -114 0 -12 -13 12 -12zm0 25l-12 0 0 -13 12 13zm12 -166l0 153 -24 0 0 -153 12 -12 12 12zm-24 0l0 -12 12 0 -12 12zm213 13l-201 0 0 -25 201 0 0 0 0 25zm22 -49l24 0 0 0 0 2 0 3 0 3 -1 3 0 3 -1 2 -1 3 0 2 -1 2 -1 3 -2 2 -1 2 -1 2 -2 2 -2 2 -1 1 -2 2 -2 1 -2 1 -2 2 -2 1 -1 1 -2 1 -3 0 -2 1 -2 1 -2 0 -2 0 -2 1 -2 0 -2 0 -2 0 0 -25 1 0 1 0 1 0 1 -1 2 0 1 0 1 0 1 -1 1 0 1 0 1 -1 1 0 0 -1 1 0 1 -1 1 -1 0 0 1 -1 1 -1 0 -1 1 0 0 -1 1 -1 0 -1 1 -2 0 -1 0 -1 1 -2 0 -1 0 -2 0 -2 0 -1 0 0zm-22 -25l0 -25 0 0 2 0 2 0 2 0 2 1 2 0 3 1 2 0 2 1 2 1 2 1 2 1 2 1 2 1 1 2 2 1 2 2 2 1 1 2 2 2 1 2 1 2 1 2 2 2 1 3 0 2 1 2 1 3 0 3 1 2 0 3 0 3 0 3 -24 0 0 -2 0 -2 0 -1 0 -2 -1 -1 0 -1 0 -2 -1 -1 0 -1 -1 -1 0 -1 -1 -1 -1 0 0 -1 -1 -1 -1 -1 0 0 -1 -1 -1 -1 -1 0 -1 -1 -1 0 -1 -1 0 0 -2 0 -1 -1 -1 0 -1 0 -1 0 -1 -1 -1 0 -1 0 0 0zm-237 -25l237 0 0 25 -237 0 0 0 0 -25zm-26 50l-24 0 0 0 0 -2 0 -2 0 -3 1 -2 0 -2 0 -2 1 -3 1 -2 0 -2 1 -2 1 -2 1 -3 2 -2 1 -2 1 -2 2 -1 2 -2 1 -2 2 -1 2 -2 2 -1 2 -2 3 -1 2 -1 3 -1 2 -1 3 0 2 -1 3 0 3 -1 3 0 3 0 0 25 -2 0 -2 1 -2 0 -1 0 -2 0 -1 1 -2 0 -1 1 -1 0 -1 1 -1 0 -1 1 -1 1 -1 0 0 1 -1 1 -1 1 0 0 -1 1 -1 1 0 1 -1 1 0 1 0 1 -1 1 0 2 0 1 0 1 -1 1 0 2 0 1 0 1 0 0zm-24 498l0 -498 24 0 0 498 0 0 -24 0zm50 25l0 25 0 0 -3 0 -3 0 -3 0 -3 -1 -2 0 -3 -1 -2 -1 -3 -1 -2 -1 -3 -1 -2 -1 -2 -2 -2 -1 -2 -2 -1 -1 -2 -2 -2 -2 -1 -2 -1 -2 -2 -2 -1 -2 -1 -2 -1 -3 0 -2 -1 -2 -1 -2 0 -3 0 -2 -1 -2 0 -2 0 -3 0 -2 24 0 0 1 0 2 0 1 1 1 0 2 0 1 0 1 1 1 0 1 0 1 1 1 0 1 1 1 1 1 0 1 1 1 1 0 0 1 1 1 1 1 1 0 1 1 1 0 1 1 1 0 2 1 1 0 2 0 1 1 2 0 2 0 2 0 0 0zm150 25l-150 0 0 -25 150 0 0 0 0 25zm139 -171l24 0 0 0 0 9 0 8 -1 9 -1 8 -2 9 -1 8 -2 8 -3 8 -2 7 -3 8 -4 7 -3 7 -4 7 -5 6 -4 7 -5 6 -6 5 -5 6 -6 5 -7 5 -6 4 -7 4 -7 4 -8 3 -8 3 -8 3 -8 2 -9 2 -9 1 -10 2 -9 0 -10 0 0 -25 9 0 8 -1 9 -1 8 -1 7 -2 7 -1 7 -3 7 -2 6 -3 6 -3 6 -4 6 -3 5 -4 5 -4 4 -5 5 -5 4 -4 4 -6 3 -5 4 -6 3 -6 2 -6 3 -6 2 -6 2 -7 2 -7 2 -7 1 -7 1 -8 0 -7 1 -8 0 -8 0 0zm24 -37l0 37 -24 0 0 -37 0 0 24 0zm-163 -138l0 -25 0 0 10 0 9 0 10 1 9 2 8 1 9 2 8 2 8 3 7 3 7 3 7 4 7 4 6 4 6 5 6 5 5 5 5 6 5 6 4 6 4 6 4 7 4 7 3 7 2 8 3 7 2 8 1 8 2 8 1 9 1 8 0 9 0 9 -24 0 0 -8 -1 -8 0 -7 -1 -8 -1 -7 -2 -7 -2 -7 -2 -6 -2 -6 -2 -6 -3 -6 -3 -5 -4 -5 -3 -5 -4 -5 -4 -5 -4 -4 -5 -4 -5 -4 -5 -3 -5 -4 -6 -3 -6 -2 -7 -3 -6 -2 -7 -2 -8 -2 -7 -1 -8 -1 -8 -1 -9 -1 -9 0 0 0zm2 273l0 -26 0 0 4 0 5 0 4 0 4 -1 3 0 4 -1 3 -1 3 -1 3 -1 3 -1 3 -2 2 -1 2 -2 2 -1 2 -2 2 -2 2 -2 1 -2 2 -2 1 -2 1 -3 1 -2 1 -3 1 -3 1 -3 1 -3 1 -4 0 -3 0 -4 1 -4 0 -4 0 -4 24 0 0 5 0 5 0 5 -1 4 0 5 -1 4 -1 4 -1 5 -2 4 -1 4 -2 4 -2 3 -2 4 -2 3 -3 4 -2 3 -3 3 -4 2 -3 3 -3 2 -4 3 -4 2 -4 1 -4 2 -4 1 -5 1 -4 1 -5 1 -5 1 -5 0 -5 1 -5 0 0 0zm-116 -26l116 0 0 26 -116 0 -12 -13 12 -13zm0 26l-12 0 0 -13 12 13zm12 -217l0 204 -24 0 0 -204 12 -12 12 12zm-24 0l0 -12 12 0 -12 12zm126 13l-114 0 0 -25 114 0 0 0 0 25zm89 65l-24 0 0 0 0 -4 0 -4 -1 -4 0 -4 -1 -3 0 -4 -1 -3 -1 -3 -1 -3 -1 -3 -1 -2 -1 -3 -2 -2 -1 -2 -2 -3 -2 -1 -2 -2 -2 -2 -2 -2 -2 -1 -3 -2 -2 -1 -3 -1 -3 -2 -3 -1 -3 -1 -4 0 -4 -1 -4 0 -4 -1 -4 0 -5 0 0 -25 5 0 6 0 5 0 5 1 4 1 5 1 5 1 4 1 4 2 4 2 4 2 4 2 3 2 3 3 4 3 3 3 2 3 3 3 2 4 3 3 2 4 1 4 2 4 1 4 2 4 1 5 0 4 1 5 1 4 0 5 0 5 0 5 0 0zm-24 49l0 -49 24 0 0 49 0 0 -24 0zm368 -248l-24 0 0 0 0 -9 1 -9 0 -9 1 -8 2 -9 1 -9 2 -8 2 -9 3 -8 3 -9 3 -8 4 -8 3 -8 5 -7 4 -7 5 -8 5 -6 6 -7 6 -6 6 -6 6 -6 7 -5 8 -5 7 -4 8 -4 9 -3 8 -3 10 -3 9 -2 10 -1 10 -1 10 0 0 25 -9 0 -9 1 -8 1 -8 2 -8 2 -7 3 -7 2 -7 4 -6 3 -6 4 -6 5 -5 4 -6 5 -5 5 -4 6 -5 6 -4 6 -4 6 -3 7 -4 6 -3 7 -2 7 -3 8 -2 7 -2 8 -2 7 -1 8 -2 8 0 8 -1 8 -1 8 0 8 0 0zm-24 59l0 -59 24 0 0 59 -12 13 -12 -13zm24 0l0 13 -12 0 12 -13zm-83 -13l71 0 0 26 -71 0 -13 -13 13 -13zm0 26l-13 0 0 -13 13 13zm12 -217l0 204 -25 0 0 -204 0 0 25 0zm-47 -25l0 -25 0 0 3 0 3 0 3 0 2 1 3 0 3 1 2 1 2 1 3 1 2 1 2 2 2 1 2 2 2 1 1 2 2 2 1 2 1 2 2 2 1 2 1 2 0 2 1 3 1 2 0 2 1 2 0 2 0 2 0 3 1 2 0 2 0 2 -25 0 0 -1 0 -2 0 -1 0 -2 0 -1 0 -1 -1 -1 0 -2 0 -1 0 -1 -1 -1 0 -1 -1 -1 0 -1 -1 0 0 -1 -1 -1 0 0 -1 -1 -1 -1 0 0 -1 -1 -1 0 -1 -1 -1 0 -1 -1 -2 0 -1 0 -2 0 -1 -1 -2 0 -2 0 0 0zm-23 25l-25 0 0 0 0 -2 1 -2 0 -3 0 -2 0 -2 1 -2 0 -3 1 -2 1 -2 0 -2 1 -2 1 -2 2 -2 1 -2 1 -2 2 -2 1 -2 2 -2 2 -1 2 -2 2 -1 2 -2 2 -1 2 -1 2 -1 3 -1 2 -1 3 0 3 -1 2 0 3 0 3 0 0 25 -2 0 -1 0 -2 1 -1 0 -2 0 -1 0 -1 1 -1 0 -1 1 -1 0 -1 1 -1 0 -1 1 -1 1 0 0 -1 1 -1 1 0 1 -1 1 0 1 -1 1 0 1 0 1 -1 1 0 1 0 1 -1 1 0 2 0 1 0 1 0 2 0 1 0 0zm-25 514l0 -514 25 0 0 514 0 0 -25 0zm48 25l0 26 0 0 -3 -1 -3 0 -2 0 -3 -1 -3 0 -2 -1 -3 -1 -2 -1 -2 -1 -2 -1 -2 -1 -2 -2 -2 -1 -2 -2 -2 -2 -1 -1 -2 -2 -1 -2 -1 -2 -2 -2 -1 -2 -1 -2 0 -3 -1 -2 -1 -2 0 -2 -1 -2 0 -3 0 -2 0 -2 -1 -3 0 -2 25 0 0 2 0 1 0 1 0 2 0 1 1 1 0 1 0 2 1 1 0 1 0 1 1 1 0 1 1 1 0 0 1 1 1 1 0 1 1 0 1 1 1 1 1 0 1 1 1 0 1 1 1 0 1 0 2 1 1 0 2 0 1 0 2 0 0 0zm22 -25l25 0 0 0 0 2 0 3 -1 2 0 2 0 2 0 2 -1 3 0 2 -1 2 -1 2 -1 2 -1 2 -1 2 -1 2 -1 2 -2 2 -1 2 -2 2 -1 2 -2 1 -2 2 -2 1 -3 1 -2 1 -2 1 -3 1 -2 1 -3 1 -3 0 -2 0 -3 0 -3 1 0 -26 2 0 2 0 1 0 2 0 1 -1 1 0 1 0 2 -1 1 0 0 -1 1 0 1 -1 1 -1 0 0 1 -1 1 -1 0 0 1 -1 0 -1 1 -1 0 -1 0 -1 1 -1 0 -1 0 -1 1 -1 0 -2 0 -1 0 -1 0 -2 0 -1 0 -2 0 0zm25 -236l0 236 -25 0 0 -236 13 -13 12 13zm-25 0l0 -13 13 0 -13 13zm84 12l-71 0 0 -25 71 0 12 13 -12 12zm0 -25l12 0 0 13 -12 -13zm-12 122l0 -109 24 0 0 109 0 0 -24 0zm158 152l0 26 0 0 -10 -1 -9 0 -10 -2 -9 -1 -8 -2 -8 -3 -8 -2 -8 -4 -7 -3 -7 -4 -7 -5 -7 -5 -6 -5 -5 -5 -6 -6 -5 -6 -5 -6 -4 -7 -4 -7 -4 -7 -3 -7 -3 -7 -3 -8 -3 -8 -2 -8 -2 -8 -1 -8 -2 -9 -1 -8 0 -9 -1 -9 0 -8 24 0 0 7 1 8 0 8 1 8 2 7 1 7 2 8 2 7 2 6 2 7 3 6 3 7 3 5 3 6 4 6 4 5 4 5 4 5 5 4 5 4 5 4 6 4 6 3 6 3 6 3 7 2 7 2 7 2 8 1 8 1 8 1 9 0 0 0zm41 26l-41 0 0 -26 41 0 0 0 0 26zm138 -177l24 0 0 0 0 9 0 9 -1 8 -1 9 -2 8 -1 9 -2 8 -3 8 -2 7 -3 8 -4 7 -3 8 -4 7 -5 6 -4 7 -5 6 -5 6 -6 6 -6 5 -6 5 -7 5 -7 4 -7 4 -7 4 -8 3 -8 3 -8 2 -9 2 -9 2 -9 1 -10 0 -10 1 0 -26 9 0 8 -1 9 -1 7 -1 8 -2 7 -2 7 -2 6 -3 6 -3 6 -3 6 -4 6 -3 5 -5 5 -4 4 -5 5 -5 4 -5 3 -5 4 -6 3 -6 3 -6 3 -6 3 -7 2 -6 2 -7 2 -7 1 -7 2 -8 1 -7 0 -8 1 -8 0 -8 0 0zm24 -262l0 262 -24 0 0 -262 0 0 24 0zm-162 -151l0 -25 0 0 10 0 10 1 9 1 9 1 9 2 8 3 8 3 8 3 7 3 7 4 7 5 7 4 6 5 6 6 6 5 5 6 5 6 4 7 5 7 4 7 3 7 4 7 3 8 2 8 3 8 2 8 1 8 2 8 1 9 1 9 0 8 0 9 -24 0 0 -8 -1 -8 0 -7 -1 -8 -2 -7 -1 -7 -2 -7 -2 -7 -2 -7 -3 -7 -3 -6 -3 -6 -3 -6 -4 -5 -3 -6 -4 -5 -5 -5 -4 -5 -5 -4 -5 -4 -6 -4 -6 -4 -6 -3 -6 -3 -6 -3 -7 -2 -7 -2 -8 -2 -7 -1 -9 -1 -8 -1 -9 0 0 0zm-35 -25l35 0 0 25 -35 0 0 0 0 -25zm35 541l0 -25 0 0 5 -1 4 0 4 0 4 -1 4 -1 3 -1 3 -1 3 -1 3 -2 3 -1 2 -2 3 -2 2 -2 2 -2 2 -2 2 -3 2 -2 1 -3 2 -3 1 -3 2 -3 1 -3 1 -3 1 -4 1 -3 1 -4 0 -4 1 -4 0 -4 1 -4 0 -4 0 -5 24 0 0 5 0 5 0 5 -1 5 -1 5 0 5 -1 4 -1 5 -2 4 -1 5 -2 4 -2 4 -2 5 -2 3 -2 4 -3 4 -3 4 -3 3 -3 3 -3 3 -4 3 -4 2 -4 3 -4 2 -4 2 -5 1 -4 2 -5 1 -5 1 -6 0 -5 1 -6 0 0 0zm-37 -25l37 0 0 25 -37 0 0 0 0 -25zm-88 -78l24 0 0 0 0 5 1 4 0 4 0 4 1 4 0 4 1 4 1 3 1 4 1 3 1 3 2 3 1 3 2 3 1 3 2 2 2 3 2 2 2 2 2 2 3 2 2 2 3 1 3 2 3 1 3 1 4 1 3 1 4 1 4 0 4 0 5 1 0 25 -6 0 -5 -1 -5 0 -5 -1 -5 -1 -5 -2 -5 -1 -4 -2 -4 -2 -4 -3 -4 -2 -4 -3 -3 -3 -3 -3 -3 -3 -3 -4 -3 -4 -2 -4 -2 -3 -2 -5 -2 -4 -2 -4 -1 -5 -1 -4 -2 -5 0 -4 -1 -5 -1 -5 0 -5 -1 -5 0 -5 0 -5 0 0zm24 -237l0 237 -24 0 0 -237 0 0 24 0zm66 -127l0 25 0 0 -4 0 -5 0 -4 1 -3 1 -4 1 -3 2 -4 2 -3 2 -3 2 -3 2 -2 3 -3 3 -2 3 -3 3 -2 3 -2 4 -2 4 -2 3 -1 4 -2 5 -1 4 -2 4 -1 5 -1 4 -1 5 -1 4 0 5 -1 5 0 4 0 5 -1 4 0 5 -24 0 0 -5 0 -6 1 -5 0 -5 1 -5 0 -6 1 -5 1 -5 2 -6 1 -5 2 -5 1 -5 2 -5 2 -5 3 -5 2 -5 3 -4 3 -5 3 -4 3 -4 4 -4 4 -4 4 -3 4 -4 5 -3 4 -2 6 -2 5 -2 5 -2 6 -1 6 0 6 0 0 0zm35 25l-35 0 0 -25 35 0 0 0 0 25zm88 73l-24 0 0 0 0 -4 0 -4 -1 -3 0 -4 -1 -4 0 -3 -1 -4 -1 -3 -1 -3 -1 -3 -1 -4 -2 -2 -1 -3 -2 -3 -1 -3 -2 -2 -2 -2 -2 -3 -2 -2 -3 -2 -2 -2 -3 -1 -2 -2 -3 -1 -3 -2 -3 -1 -4 -1 -3 -1 -4 0 -4 -1 -4 0 -5 0 0 -25 6 0 5 0 5 1 5 1 5 1 5 1 4 2 5 2 4 2 4 2 4 3 3 2 4 3 3 3 3 4 3 3 2 4 3 3 2 4 2 4 2 4 2 4 1 4 1 5 2 4 1 5 0 4 1 5 1 4 0 5 0 4 0 5 0 0zm-24 266l0 -266 24 0 0 266 0 0 -24 0zm373 -356l0 25 12 -11 0 1 -1 3 0 5 -1 6 -1 8 -1 9 -1 11 -2 12 -1 13 -2 14 -2 15 -2 16 -2 16 -1 17 -2 17 -3 17 -2 18 -2 18 -2 17 -2 17 -2 17 -2 17 -1 15 -2 15 -2 15 -1 13 -2 13 -1 11 -1 10 -1 8 -1 7 -1 5 -24 -3 1 -5 1 -7 1 -9 1 -9 1 -12 1 -12 2 -13 2 -15 1 -15 2 -16 2 -16 2 -17 2 -17 2 -17 2 -18 2 -18 2 -17 2 -17 2 -17 2 -16 2 -16 2 -15 1 -14 2 -13 1 -12 2 -11 1 -9 1 -8 0 -6 1 -5 0 -3 0 -1 13 -11zm-13 11l2 -11 11 0 -13 11zm150 14l-137 0 0 -25 137 0 12 12 -12 13zm0 -25l12 0 0 12 -12 -12zm-12 482l0 -470 24 0 0 470 0 0 -24 0zm50 25l0 26 0 0 -3 -1 -3 0 -3 0 -2 0 -3 -1 -3 -1 -2 -1 -3 -1 -2 -1 -2 -1 -2 -1 -3 -1 -2 -2 -1 -2 -2 -1 -2 -2 -1 -2 -2 -2 -1 -2 -1 -2 -1 -2 -1 -2 -1 -2 -1 -3 -1 -2 0 -2 -1 -2 0 -3 -1 -2 0 -2 0 -2 0 -3 24 0 0 2 1 1 0 1 0 1 0 2 0 1 1 1 0 1 0 1 1 1 0 1 1 1 0 1 1 1 0 1 1 1 1 1 1 0 0 1 1 1 1 0 1 1 1 0 1 1 2 0 1 1 1 0 2 1 1 0 2 0 2 0 2 0 0 0zm24 -25l24 0 0 0 0 3 0 2 0 2 0 2 -1 3 0 2 -1 2 0 2 -1 3 -1 2 -1 2 -1 2 -1 2 -1 2 -2 2 -1 2 -2 2 -2 1 -1 2 -2 1 -2 2 -2 1 -3 1 -2 1 -2 1 -3 1 -2 1 -3 0 -3 1 -2 0 -3 0 -3 1 0 -26 2 0 1 0 2 0 2 0 1 -1 1 0 1 0 2 -1 1 0 1 -1 1 -1 0 0 1 -1 1 0 1 -1 0 -1 1 -1 1 -1 0 -1 1 0 0 -1 1 -1 0 -2 1 -1 0 -1 0 -1 0 -1 1 -1 0 -2 0 -1 0 -1 0 -2 0 0zm24 -506l0 506 -24 0 0 -506 0 0 24 0zm-48 -25l0 -25 0 0 3 0 3 0 2 1 3 0 3 1 2 0 3 1 2 1 2 1 3 1 2 2 2 1 2 2 1 1 2 2 2 2 1 2 2 2 1 2 1 2 1 2 1 2 1 2 1 2 0 2 1 3 0 2 1 2 0 2 0 3 0 2 0 2 -24 0 0 -1 0 -1 0 -2 0 -1 -1 -1 0 -1 0 -2 0 -1 -1 -1 0 -1 -1 -1 0 -1 -1 -1 0 -1 -1 -1 -1 0 0 -1 -1 -1 -1 -1 -1 0 0 -1 -1 0 -1 -1 -1 0 -2 -1 -1 0 -1 -1 -1 0 -2 0 -2 0 -1 -1 -2 0 0 0zm-205 -25l205 0 0 25 -205 0 0 0 0 -25zm-26 52l-24 -3 0 0 0 -2 0 -3 1 -2 0 -3 1 -2 1 -2 1 -3 0 -2 1 -2 1 -2 2 -2 1 -2 1 -2 1 -2 2 -2 1 -2 2 -1 2 -2 2 -1 2 -2 2 -1 2 -1 2 -1 2 -1 2 -1 3 -1 2 -1 2 0 3 0 3 -1 2 0 3 0 0 25 -2 0 -1 1 -2 0 -1 0 -2 0 -1 0 -1 1 -1 0 -1 1 -1 0 -1 1 -1 0 -1 1 -1 1 0 0 -1 1 -1 1 -1 1 0 1 -1 1 -1 1 0 1 -1 1 0 1 -1 1 0 2 -1 1 0 1 0 2 -1 2 0 1 0 2 0 0zm-24 -3l0 0 0 0 0 0zm-25 416l-24 -3 0 0 1 -4 0 -6 1 -7 1 -9 1 -10 2 -12 1 -13 2 -14 2 -14 2 -16 2 -16 2 -17 2 -18 2 -18 2 -18 2 -18 2 -18 2 -18 2 -17 2 -17 2 -17 2 -16 2 -16 2 -14 1 -14 2 -12 1 -11 1 -10 1 -8 1 -7 0 -5 1 -3 24 3 0 3 -1 5 -1 7 -1 8 -1 10 -1 11 -2 13 -1 13 -2 15 -2 15 -1 16 -2 17 -2 17 -3 18 -2 17 -2 19 -2 18 -2 18 -2 17 -2 18 -2 17 -2 16 -2 16 -2 15 -2 13 -1 13 -1 12 -2 10 -1 9 -1 8 0 5 -1 4 0 0zm0 0l0 0 0 2 0 -2zm-11 44l-21 -12 0 -1 1 0 0 -1 0 0 0 -1 1 0 0 -1 0 -1 0 0 1 -1 0 -1 0 -1 0 -1 1 -1 0 -1 0 0 0 -2 1 -1 0 -1 0 -1 0 -1 1 -1 0 -2 0 -1 0 -1 1 -2 0 -1 0 -2 0 -1 0 -2 1 -2 0 -1 0 -2 24 3 0 2 0 2 -1 2 0 1 0 2 0 2 0 1 -1 2 0 1 0 2 0 1 -1 2 0 1 0 2 -1 1 0 1 0 2 -1 1 0 1 0 1 -1 2 0 1 0 1 -1 1 0 2 -1 1 0 1 -1 1 0 1 -1 1 0 1 -1 2 0 -1zm-21 -12l0 0 0 -1 0 1zm-33 38l0 -25 0 0 2 0 1 0 2 0 2 0 2 0 1 0 2 -1 1 0 2 0 1 0 1 0 2 -1 1 0 1 0 1 -1 1 0 1 -1 0 0 1 0 1 -1 1 0 0 -1 1 0 1 -1 0 0 1 -1 0 -1 1 0 0 -1 1 -1 0 -1 1 -1 21 12 -1 2 -1 2 -1 1 -1 2 -1 2 -1 1 -2 2 -1 1 -2 1 -1 2 -2 1 -1 1 -2 1 -2 1 -1 1 -2 0 -2 1 -2 1 -2 0 -2 1 -2 0 -1 1 -2 0 -2 0 -2 1 -2 0 -3 0 -2 0 -2 0 -2 0 -2 0 -2 0 0 0zm-24 26l-25 0 0 0 0 -3 1 -3 0 -3 0 -2 1 -3 0 -3 1 -2 1 -3 1 -2 1 -2 2 -3 1 -2 1 -2 2 -2 2 -2 1 -1 2 -2 2 -1 2 -2 2 -1 2 -1 2 -1 2 -1 2 -1 2 -1 2 0 2 -1 3 0 2 -1 2 0 2 0 3 0 0 25 -2 0 -1 0 -1 1 -1 0 -2 0 -1 0 -1 1 -1 0 -1 0 -1 1 -1 0 -1 1 -1 0 -1 1 -1 1 0 0 -1 1 -1 1 -1 1 0 1 -1 1 0 1 -1 1 0 1 -1 1 0 1 -1 2 0 1 0 2 0 1 0 2 0 2 0 0zm24 24l0 26 0 0 -3 0 -2 -1 -2 0 -2 0 -2 0 -2 -1 -2 0 -2 -1 -2 0 -3 -1 -2 -1 -2 -1 -2 -1 -2 -1 -1 -2 -2 -1 -2 -2 -2 -2 -1 -1 -2 -2 -1 -3 -2 -2 -1 -2 -1 -2 -1 -3 -1 -3 0 -2 -1 -3 0 -3 0 -3 -1 -3 0 -3 25 0 0 2 0 2 0 2 0 1 0 2 1 1 0 2 1 1 0 1 1 1 0 1 1 0 0 1 1 1 1 1 0 0 1 1 1 0 0 1 1 0 1 1 1 0 1 1 1 0 1 0 2 1 1 0 1 0 1 0 2 0 1 0 2 0 0 0zm101 -55l23 8 -1 1 -1 4 -2 4 -2 4 -2 4 -2 3 -2 4 -2 4 -3 3 -2 3 -3 4 -3 3 -3 3 -4 3 -3 2 -3 3 -4 2 -4 3 -4 2 -4 2 -5 1 -4 2 -5 2 -5 1 -5 1 -5 1 -5 1 -6 1 -5 1 -6 0 -6 0 -7 1 -6 0 0 -26 6 0 5 0 6 0 5 -1 5 0 5 -1 5 -1 4 -1 5 -1 4 -1 3 -1 4 -1 3 -2 4 -1 3 -2 2 -2 3 -1 3 -2 2 -2 3 -2 2 -2 2 -3 2 -2 2 -2 2 -3 2 -3 1 -3 2 -3 2 -3 1 -3 1 -3 2 -4 0 1zm23 8l-1 1 1 0 0 -1zm-13 -57l24 3 0 0 0 2 0 2 0 2 -1 2 0 2 0 2 -1 2 0 1 0 2 0 2 -1 2 0 1 0 2 -1 2 0 2 0 1 -1 2 0 1 0 2 -1 2 0 1 -1 2 0 2 0 1 -1 2 0 1 -1 2 0 1 -1 2 0 1 -1 2 0 1 -23 -8 0 -2 1 -1 0 -1 1 -2 0 -1 0 -1 1 -2 0 -1 1 -1 0 -2 0 -1 1 -2 0 -1 0 -1 1 -2 0 -1 0 -2 1 -1 0 -2 0 -1 0 -2 1 -1 0 -2 0 -2 0 -1 1 -2 0 -2 0 -1 0 -2 1 -2 0 -2 0 -2 0 0zm0 0l0 0 0 0 0 0zm580 -407l0 25 13 -11 -1 1 0 3 -1 5 0 6 -1 8 -1 9 -2 11 -1 12 -1 13 -2 14 -2 15 -2 16 -2 16 -2 17 -2 17 -2 17 -2 18 -2 18 -2 17 -2 17 -2 17 -2 17 -2 15 -1 15 -2 15 -2 13 -1 13 -1 11 -1 10 -1 8 -1 7 -1 5 -24 -3 1 -5 0 -7 1 -9 2 -9 1 -12 1 -12 2 -13 2 -15 1 -15 2 -16 2 -16 2 -17 2 -17 2 -17 2 -18 2 -18 2 -17 2 -17 2 -17 2 -16 2 -16 2 -15 1 -14 2 -13 1 -12 2 -11 1 -9 1 -8 0 -6 1 -5 0 -3 0 -1 12 -11zm-12 11l2 -11 10 0 -12 11zm150 14l-138 0 0 -25 138 0 12 12 -12 13zm0 -25l12 0 0 12 -12 -12zm-12 482l0 -470 24 0 0 470 0 0 -24 0zm50 25l0 26 0 0 -3 -1 -3 0 -3 0 -3 0 -2 -1 -3 -1 -2 -1 -3 0 -2 -2 -2 -1 -3 -1 -2 -1 -2 -2 -2 -2 -1 -1 -2 -2 -2 -2 -1 -2 -1 -2 -1 -2 -2 -2 -1 -2 0 -2 -1 -3 -1 -2 0 -2 -1 -2 0 -3 -1 -2 0 -2 0 -2 0 -3 24 0 0 2 0 1 1 1 0 1 0 2 0 1 0 1 1 1 0 1 1 1 0 1 1 1 0 1 1 1 0 1 1 1 1 1 0 0 1 1 1 1 1 0 1 1 1 0 1 1 1 0 2 1 1 0 2 1 1 0 2 0 2 0 2 0 0 0zm24 -25l24 0 0 0 0 3 0 2 0 2 0 2 -1 3 0 2 -1 2 0 2 -1 3 -1 2 -1 2 -1 2 -1 2 -2 2 -1 2 -1 2 -2 2 -2 1 -2 2 -1 1 -3 2 -2 1 -2 1 -2 1 -2 1 -3 1 -2 1 -3 1 -3 0 -2 0 -3 0 -3 1 0 -26 2 0 1 0 2 0 1 0 2 -1 1 0 1 0 1 -1 2 0 1 -1 1 -1 0 0 1 -1 1 0 1 -1 0 -1 1 -1 1 -1 0 -1 1 0 0 -1 1 -1 0 -2 0 -1 1 -1 0 -1 0 -1 1 -1 0 -2 0 -1 0 -1 0 -2 0 0zm24 -506l0 506 -24 0 0 -506 0 0 24 0zm-48 -25l0 -25 0 0 3 0 3 0 2 1 3 0 3 1 2 0 3 1 2 1 2 1 2 1 2 2 3 1 1 2 2 1 2 2 2 2 1 2 1 2 2 2 1 2 1 2 1 2 1 2 1 2 0 2 1 3 0 2 1 2 0 2 0 3 0 2 0 2 -24 0 0 -1 0 -1 0 -2 0 -1 -1 -1 0 -1 0 -2 -1 -1 0 -1 0 -1 -1 -1 0 -1 -1 -1 0 -1 -1 -1 -1 0 0 -1 -1 -1 -1 -1 -1 0 -1 -1 0 0 -1 -1 -2 0 -1 -1 -1 0 -1 -1 -2 0 -1 0 -2 0 -1 -1 -2 0 0 0zm-205 -25l205 0 0 25 -205 0 0 0 0 -25zm-26 52l-24 -3 0 0 0 -2 0 -3 1 -2 0 -3 1 -2 1 -2 0 -3 1 -2 1 -2 1 -2 1 -2 2 -2 1 -2 1 -2 2 -2 1 -2 2 -1 2 -2 2 -1 2 -2 1 -1 3 -1 2 -1 2 -1 2 -1 3 -1 2 -1 2 0 3 0 2 -1 3 0 3 0 0 25 -2 0 -2 1 -1 0 -1 0 -2 0 -1 0 -1 1 -1 0 -1 1 -1 0 -1 1 -1 0 -1 1 -1 1 -1 0 0 1 -1 1 -1 1 0 1 -1 1 -1 1 0 1 -1 1 0 1 -1 1 0 2 -1 1 0 2 0 1 -1 2 0 1 0 2 0 0zm-24 -3l0 0 0 0 0 0zm-25 416l-24 -3 0 0 0 -4 1 -6 1 -7 1 -9 1 -10 2 -12 1 -13 2 -14 2 -14 2 -16 1 -16 2 -17 3 -18 2 -18 2 -18 2 -18 2 -18 2 -18 2 -17 2 -17 2 -17 2 -16 2 -16 2 -14 1 -14 2 -12 1 -11 1 -10 1 -8 1 -7 0 -5 1 -3 24 3 0 3 -1 5 -1 7 -1 8 -1 10 -1 11 -2 13 -1 13 -2 15 -2 15 -2 16 -2 17 -2 17 -2 18 -2 17 -2 19 -2 18 -2 18 -2 17 -2 18 -2 17 -2 16 -2 16 -2 15 -2 13 -1 13 -2 12 -1 10 -1 9 -1 8 0 5 -1 4 0 0zm0 0l0 0 0 1 0 -1zm-11 44l-21 -12 0 -1 0 0 1 -1 0 0 0 -1 0 0 1 -1 0 -1 0 0 1 -1 0 -1 0 -1 0 -1 1 -1 0 -1 0 -1 0 -1 1 -1 0 -1 0 -1 0 -1 1 -1 0 -2 0 -1 0 -1 0 -2 1 -1 0 -2 0 -1 0 -2 1 -2 0 -1 0 -2 24 3 0 2 0 2 -1 2 0 1 0 2 0 2 -1 1 0 2 0 1 0 2 -1 1 0 2 0 1 0 2 -1 1 0 1 0 2 -1 1 0 1 0 2 -1 1 0 1 0 1 -1 2 0 1 -1 1 0 1 -1 1 0 1 -1 1 0 1 -1 2 0 -1zm-21 -12l0 0 0 -1 0 1zm-34 38l0 -25 0 0 2 0 2 0 2 0 2 0 2 0 1 0 2 -1 1 0 2 0 1 0 1 0 2 -1 1 0 1 0 1 -1 1 0 1 -1 0 0 1 0 1 -1 1 0 0 -1 1 0 0 -1 1 0 1 -1 0 -1 1 0 0 -1 1 -1 0 -1 1 -1 21 12 -1 2 -1 2 -1 1 -1 2 -1 2 -1 1 -2 2 -1 1 -2 1 -1 2 -2 1 -1 1 -2 1 -2 1 -2 1 -1 0 -2 1 -2 1 -2 0 -2 1 -2 0 -2 1 -2 0 -2 0 -2 1 -2 0 -2 0 -2 0 -2 0 -2 0 -2 0 -3 0 0 0zm-24 26l-24 0 0 0 0 -3 0 -3 1 -3 0 -2 1 -3 0 -3 1 -2 1 -3 1 -2 1 -2 1 -3 2 -2 1 -2 2 -2 1 -2 2 -1 2 -2 2 -1 2 -2 2 -1 2 -1 2 -1 2 -1 2 -1 2 -1 2 0 2 -1 3 0 2 -1 2 0 2 0 2 0 0 25 -1 0 -1 0 -1 1 -2 0 -1 0 -1 0 -1 1 -1 0 -1 0 -1 1 -1 0 -1 1 -1 0 -1 1 -1 1 -1 0 0 1 -1 1 -1 1 0 1 -1 1 0 1 -1 1 0 1 -1 1 0 1 -1 2 0 1 0 2 0 1 0 2 -1 2 0 0zm24 24l0 26 0 0 -2 0 -2 -1 -2 0 -2 0 -2 0 -2 -1 -2 0 -2 -1 -3 0 -2 -1 -2 -1 -2 -1 -2 -1 -2 -1 -2 -2 -1 -1 -2 -2 -2 -2 -1 -1 -2 -2 -1 -3 -2 -2 -1 -2 -1 -2 -1 -3 -1 -3 0 -2 -1 -3 0 -3 -1 -3 0 -3 0 -3 24 0 1 2 0 2 0 2 0 1 0 2 1 1 0 2 1 1 0 1 0 1 1 1 1 0 0 1 1 1 0 1 1 0 1 1 1 0 0 1 1 0 1 1 1 0 1 1 1 0 1 0 2 1 1 0 1 0 1 0 2 0 1 0 1 0 0 0zm102 -55l22 8 0 1 -1 4 -2 4 -2 4 -2 4 -2 3 -2 4 -3 4 -2 3 -3 3 -2 4 -3 3 -3 3 -4 3 -3 2 -4 3 -3 2 -4 3 -4 2 -4 2 -5 1 -4 2 -5 2 -5 1 -5 1 -5 1 -5 1 -6 1 -6 1 -5 0 -7 0 -6 1 -7 0 0 -26 7 0 5 0 6 0 5 -1 5 0 5 -1 5 -1 4 -1 4 -1 4 -1 4 -1 4 -1 3 -2 3 -1 3 -2 3 -2 3 -1 3 -2 2 -2 3 -2 2 -2 2 -3 2 -2 2 -2 2 -3 1 -3 2 -3 2 -3 1 -3 2 -3 1 -3 2 -4 0 1zm22 8l0 1 0 0 0 -1zm-12 -57l24 3 0 0 0 2 0 2 -1 2 0 2 0 2 0 2 -1 2 0 1 0 2 0 2 -1 2 0 1 0 2 -1 2 0 2 0 1 -1 2 0 1 -1 2 0 2 0 1 -1 2 0 1 -1 2 0 2 -1 1 0 2 0 1 -1 2 -1 1 0 2 -1 1 -22 -8 0 -2 1 -1 0 -1 0 -2 1 -1 0 -1 1 -2 0 -1 0 -1 1 -2 0 -1 1 -2 0 -1 0 -1 1 -2 0 -1 0 -2 0 -1 1 -2 0 -1 0 -2 1 -1 0 -2 0 -2 0 -1 1 -2 0 -2 0 -1 0 -2 1 -2 0 -2 0 -2 0 0zm0 0l0 0 0 0 0 0zm736 68l24 0 0 0 0 3 0 3 0 2 -1 3 0 3 -1 2 -1 3 -1 2 -1 3 -1 2 -1 2 -1 2 -2 2 -1 2 -2 2 -2 2 -1 1 -2 1 -2 2 -2 1 -2 1 -2 1 -2 1 -2 1 -2 0 -2 1 -2 0 -2 1 -2 0 -2 0 -3 0 -2 0 0 -25 2 0 1 0 1 0 1 0 1 -1 1 0 1 0 2 0 1 -1 0 0 1 -1 1 0 1 -1 1 0 1 -1 0 0 1 -1 1 -1 0 0 1 -1 0 -1 1 -1 0 -1 1 -1 0 -1 1 -2 0 -1 0 -1 0 -2 1 -1 0 -2 0 -2 0 0zm-23 -24l0 -26 0 0 2 0 3 1 2 0 2 0 2 1 2 0 2 1 2 0 3 1 2 1 2 1 1 1 2 2 2 1 2 1 2 2 1 2 2 1 1 2 2 2 1 2 1 2 1 3 1 2 1 2 1 3 1 2 0 3 1 3 0 2 0 3 0 3 -24 0 0 -2 0 -1 -1 -2 0 -1 0 -2 0 -1 -1 -1 0 -1 -1 -1 0 -2 -1 0 0 -1 -1 -1 0 -1 -1 -1 -1 0 -1 -1 0 -1 -1 0 -1 -1 -1 0 -1 -1 -1 0 -1 -1 -1 0 -1 0 -1 -1 -1 0 -1 0 -1 0 -1 0 -2 0 0 0zm-215 -26l215 0 0 26 -215 0 -12 -13 12 -13zm0 26l-12 0 0 -13 12 13zm12 -197l0 184 -24 0 0 -184 12 -13 12 13zm-24 0l0 -13 12 0 -12 13zm190 13l-178 0 0 -26 178 0 0 0 0 26zm22 -50l24 0 0 0 0 3 0 3 0 3 -1 2 0 3 -1 3 -1 2 0 3 -1 2 -2 2 -1 2 -1 2 -2 2 -1 2 -2 2 -1 2 -2 1 -2 2 -2 1 -2 1 -2 1 -2 1 -2 1 -2 1 -2 0 -2 1 -2 0 -2 1 -2 0 -2 0 -2 0 -2 1 0 -26 1 0 1 0 1 0 1 0 2 0 1 -1 1 0 1 0 1 -1 1 0 1 0 0 -1 1 0 1 -1 1 -1 1 0 0 -1 1 -1 0 0 1 -1 1 -1 0 -1 1 -1 0 -1 0 -1 1 -1 0 -2 0 -1 1 -2 0 -1 0 -2 0 -2 0 0zm-22 -24l0 -25 0 0 2 0 2 0 2 0 2 0 2 1 3 0 2 1 2 1 2 0 2 1 2 1 2 1 2 2 1 1 2 2 2 1 2 2 1 1 2 2 1 2 1 2 1 3 2 2 1 2 0 2 1 3 1 2 0 3 1 3 0 2 0 3 0 3 -24 0 0 -2 0 -1 0 -2 -1 -1 0 -2 0 -1 -1 -1 0 -1 0 -1 -1 -1 0 -1 -1 -1 -1 -1 0 -1 -1 -1 -1 0 0 -1 -1 -1 -1 0 -1 -1 -1 0 -1 -1 -1 0 -1 -1 -1 0 -1 0 -1 -1 -1 0 -1 0 -1 0 -1 0 -1 0 0 0zm-178 -25l178 0 0 25 -178 0 -12 -13 12 -12zm0 25l-12 0 0 -13 12 13zm12 -181l0 168 -24 0 0 -168 12 -12 12 12zm-24 0l0 -12 12 0 -12 12zm227 13l-215 0 0 -25 215 0 0 0 0 25zm23 -49l24 0 0 0 0 2 0 3 0 3 -1 3 0 3 -1 2 -1 3 -1 2 -1 2 -1 3 -1 2 -1 2 -2 2 -1 2 -2 2 -2 1 -1 2 -2 1 -2 1 -2 2 -2 1 -2 1 -2 1 -2 0 -2 1 -2 1 -2 0 -2 0 -2 1 -2 0 -3 0 -2 0 0 -25 2 0 1 0 1 0 1 -1 1 0 1 0 1 0 2 -1 1 0 0 0 1 -1 1 0 1 -1 1 0 1 -1 0 -1 1 0 1 -1 0 -1 1 -1 0 0 1 -1 0 -1 1 -1 0 -2 1 -1 0 -1 0 -2 0 -1 1 -2 0 -2 0 -1 0 0zm-23 -25l0 -25 0 0 2 0 3 0 2 0 2 1 2 0 2 1 2 0 2 1 3 1 2 1 2 1 1 1 2 1 2 2 2 1 2 2 1 1 2 2 1 2 2 2 1 2 1 2 1 2 1 3 1 2 1 2 1 3 0 3 1 2 0 3 0 3 0 3 -24 0 0 -2 0 -2 -1 -1 0 -2 0 -1 0 -1 -1 -2 0 -1 -1 -1 0 -1 -1 -1 0 -1 -1 0 0 -1 -1 -1 -1 -1 -1 0 0 -1 -1 -1 -1 0 -1 -1 -1 0 -1 -1 -1 0 -1 0 -1 -1 -1 0 -1 0 -1 0 -1 -1 -1 0 -2 0 0 0zm-253 -25l253 0 0 25 -253 0 0 0 0 -25zm-24 50l-24 0 0 0 0 -2 0 -2 0 -3 0 -2 1 -2 0 -2 1 -3 0 -2 1 -2 1 -2 1 -2 1 -2 1 -2 1 -2 2 -2 1 -2 2 -2 2 -2 1 -1 2 -2 2 -1 2 -2 3 -1 2 -1 2 -1 3 -1 2 0 3 -1 3 0 2 -1 3 0 3 0 0 25 -2 0 -2 1 -1 0 -2 0 -1 0 -1 1 -2 0 -1 1 -1 0 -1 1 -1 0 -1 1 0 0 -1 1 -1 1 0 1 -1 0 -1 1 0 1 -1 1 0 1 -1 1 0 1 -1 1 0 1 0 2 -1 1 0 1 0 1 0 2 0 1 0 1 0 0zm-24 498l0 -498 24 0 0 498 0 0 -24 0zm48 25l0 25 0 0 -3 0 -3 0 -2 0 -3 -1 -3 0 -2 -1 -3 -1 -2 -1 -2 -1 -3 -1 -2 -1 -2 -2 -2 -1 -1 -2 -2 -2 -2 -1 -1 -2 -2 -2 -1 -2 -1 -2 -1 -2 -1 -2 -1 -3 -1 -2 0 -2 -1 -2 0 -3 -1 -2 0 -2 0 -2 0 -3 0 -2 24 0 0 1 0 2 0 1 0 1 0 2 1 1 0 1 0 1 1 1 0 1 1 1 0 1 1 1 0 1 1 1 1 1 0 1 1 0 1 1 0 1 1 0 1 1 1 0 1 1 1 0 2 1 1 0 1 0 2 1 1 0 2 0 2 0 0 0zm253 25l-253 0 0 -25 253 0 0 0 0 25zm322 -42l24 0 0 0 0 3 0 2 0 2 0 2 -1 3 0 2 -1 2 0 2 -1 3 -1 2 -1 2 -1 2 -1 2 -2 2 -1 2 -2 2 -1 2 -2 1 -2 2 -2 1 -2 2 -2 1 -2 1 -3 1 -2 1 -2 1 -3 1 -3 1 -2 0 -3 0 -3 0 -3 1 0 -26 2 0 2 0 1 0 2 0 1 -1 2 0 1 -1 1 0 1 0 1 -1 1 -1 1 0 1 -1 1 -1 1 0 0 -1 1 -1 1 -1 0 -1 1 -1 0 0 1 -1 0 -2 0 -1 1 -1 0 -1 0 -1 1 -1 0 -2 0 -1 0 -1 0 -2 0 0zm24 -470l0 470 -24 0 0 -470 12 -12 12 12zm-24 0l0 -12 12 0 -12 12zm127 13l-115 0 0 -25 115 0 0 0 0 25zm22 -49l25 0 0 0 0 2 0 3 -1 3 0 3 -1 3 0 2 -1 3 -1 2 -1 2 -1 3 -1 2 -2 2 -1 2 -2 2 -1 2 -2 1 -2 2 -1 1 -2 1 -2 2 -2 1 -2 1 -2 1 -2 0 -2 1 -2 1 -2 0 -2 0 -3 1 -2 0 -2 0 -2 0 0 -25 1 0 2 0 1 0 1 -1 1 0 1 0 1 0 1 -1 1 0 1 0 1 -1 1 0 1 -1 1 0 0 -1 1 -1 1 0 0 -1 1 -1 1 -1 0 0 1 -1 0 -1 0 -1 1 -2 0 -1 1 -1 0 -2 0 -1 0 -2 0 -2 0 -1 0 0zm-22 -25l0 -25 0 0 2 0 2 0 3 0 2 1 2 0 2 1 2 0 2 1 2 1 2 1 2 1 2 1 2 1 2 2 2 1 1 2 2 1 2 2 1 2 1 2 2 2 1 2 1 2 1 3 1 2 1 2 0 3 1 3 0 2 1 3 0 3 0 3 -25 0 0 -2 0 -2 0 -1 0 -2 0 -1 -1 -1 0 -2 0 -1 -1 -1 0 -1 -1 -1 -1 -1 0 0 -1 -1 0 -1 -1 -1 -1 0 -1 -1 0 -1 -1 0 -1 -1 -1 0 -1 -1 -1 0 -1 0 -1 -1 -1 0 -1 0 -1 0 -2 -1 -1 0 -1 0 0 0zm-304 -25l304 0 0 25 -304 0 0 0 0 -25zm-22 50l-24 0 0 0 0 -3 0 -3 0 -3 0 -2 1 -3 1 -3 0 -2 1 -2 1 -3 1 -2 2 -2 1 -2 1 -2 2 -2 1 -2 2 -1 2 -2 1 -1 2 -2 2 -1 2 -1 2 -1 2 -1 2 -1 2 -1 2 0 2 -1 3 0 2 -1 2 0 2 0 2 0 0 25 -1 0 -1 0 -1 1 -1 0 -2 0 -1 0 -1 1 -1 0 -1 0 -1 1 -1 0 0 1 -1 0 -1 1 -1 1 -1 0 0 1 -1 1 -1 1 0 0 -1 1 0 1 -1 1 0 1 -1 1 0 2 0 1 -1 1 0 2 0 1 0 2 0 2 0 0zm22 24l0 25 0 0 -2 0 -2 0 -2 0 -2 -1 -2 0 -2 0 -3 -1 -2 -1 -2 0 -2 -1 -2 -1 -2 -1 -1 -2 -2 -1 -2 -1 -2 -2 -2 -1 -1 -2 -2 -2 -1 -2 -1 -2 -2 -2 -1 -3 -1 -2 -1 -2 0 -3 -1 -2 -1 -3 0 -3 0 -3 0 -3 0 -2 24 0 0 1 0 2 0 2 0 1 1 2 0 1 0 1 1 2 0 1 1 1 0 1 1 0 0 1 1 1 1 1 0 0 1 1 1 1 1 0 0 1 1 0 1 1 1 0 1 0 1 1 1 0 1 0 1 0 2 1 1 0 1 0 1 0 0 0zm115 25l-115 0 0 -25 115 0 12 12 -12 13zm0 -25l12 0 0 12 -12 -12zm-12 482l0 -470 24 0 0 470 0 0 -24 0zm49 25l0 26 0 0 -3 -1 -3 0 -2 0 -3 0 -3 -1 -2 -1 -3 -1 -2 -1 -3 -1 -2 -1 -2 -1 -2 -2 -2 -1 -2 -2 -1 -1 -2 -2 -2 -2 -1 -2 -1 -2 -2 -2 -1 -2 -1 -2 0 -2 -1 -3 -1 -2 0 -2 -1 -2 0 -3 -1 -2 0 -2 0 -2 0 -3 24 0 0 2 0 1 1 1 0 2 0 1 0 1 0 1 1 1 0 1 1 1 0 2 1 0 0 1 1 1 0 1 1 1 1 1 0 0 1 1 1 1 1 0 1 1 1 1 1 0 1 0 1 1 2 0 1 1 2 0 2 0 1 0 2 0 0 0zm602 -32l24 0 0 0 0 3 0 3 0 2 -1 3 0 3 -1 2 -1 3 -1 2 -1 3 -1 2 -1 2 -1 2 -2 2 -1 2 -2 2 -1 2 -2 1 -2 1 -2 2 -2 1 -2 1 -2 1 -2 1 -2 1 -2 0 -2 1 -2 0 -2 1 -2 0 -2 0 -2 0 -3 0 0 -25 2 0 1 0 1 0 1 0 2 -1 1 0 1 0 1 0 1 -1 1 0 1 -1 0 0 1 -1 1 0 1 -1 0 0 1 -1 1 -1 0 0 1 -1 1 -1 0 -1 1 -1 0 -1 0 -1 1 -2 0 -1 0 -1 1 -2 0 -1 0 -2 0 -2 0 0zm-23 -24l0 -26 0 0 3 0 2 1 2 0 2 0 2 1 2 0 3 1 2 0 2 1 2 1 2 1 2 1 1 2 2 1 2 1 2 2 1 2 2 1 1 2 2 2 1 2 1 2 1 3 1 2 1 2 1 3 1 2 0 3 1 3 0 2 0 3 0 3 -24 0 0 -2 0 -1 0 -2 -1 -1 0 -2 0 -1 -1 -1 0 -1 0 -1 -1 -2 0 0 -1 -1 -1 -1 0 -1 -1 -1 -1 -1 0 0 -1 -1 -1 0 -1 -1 -1 0 -1 -1 -1 0 -1 -1 -1 0 -1 0 -1 -1 -1 0 -1 0 -1 0 -1 0 -2 0 0 0zm-215 -26l215 0 0 26 -215 0 -12 -13 12 -13zm0 26l-12 0 0 -13 12 13zm12 -197l0 184 -24 0 0 -184 12 -13 12 13zm-24 0l0 -13 12 0 -12 13zm190 13l-178 0 0 -26 178 0 0 0 0 26zm22 -50l24 0 0 0 0 3 0 3 0 3 0 2 -1 3 -1 3 0 2 -1 3 -1 2 -1 2 -2 2 -1 2 -1 2 -2 2 -1 2 -2 2 -2 1 -2 2 -2 1 -1 1 -2 1 -2 1 -2 1 -2 1 -3 0 -2 1 -2 0 -2 1 -2 0 -2 0 -2 0 -2 1 0 -26 1 0 1 0 1 0 2 0 1 0 1 -1 1 0 1 0 1 -1 1 0 1 0 1 -1 0 0 1 -1 1 -1 1 0 0 -1 1 -1 1 0 0 -1 1 -1 0 -1 1 -1 0 -1 1 -1 0 -1 0 -2 1 -1 0 -2 0 -1 0 -2 0 -2 0 0zm-22 -24l0 -25 0 0 2 0 2 0 2 0 2 0 3 1 2 0 2 1 2 1 2 0 2 1 2 1 2 1 2 2 2 1 1 2 2 1 2 2 1 1 2 2 1 2 1 2 2 3 1 2 1 2 1 2 0 3 1 2 1 3 0 3 0 2 0 3 0 3 -24 0 0 -2 0 -1 0 -2 0 -1 -1 -2 0 -1 0 -1 -1 -1 0 -1 -1 -1 0 -1 -1 -1 0 -1 -1 -1 -1 -1 0 0 -1 -1 -1 -1 -1 0 -1 -1 -1 0 0 -1 -1 0 -1 -1 -1 0 -1 0 -2 -1 -1 0 -1 0 -1 0 -1 0 -1 0 0 0zm-178 -25l178 0 0 25 -178 0 -12 -13 12 -12zm0 25l-12 0 0 -13 12 13zm12 -181l0 168 -24 0 0 -168 12 -12 12 12zm-24 0l0 -12 12 0 -12 12zm227 13l-215 0 0 -25 215 0 0 0 0 25zm23 -49l24 0 0 0 0 2 0 3 0 3 -1 3 0 3 -1 2 -1 3 -1 2 -1 2 -1 3 -1 2 -1 2 -2 2 -1 2 -2 2 -1 1 -2 2 -2 1 -2 1 -2 2 -2 1 -2 1 -2 1 -2 0 -2 1 -2 1 -2 0 -2 0 -2 1 -2 0 -2 0 -3 0 0 -25 2 0 1 0 1 0 1 -1 2 0 1 0 1 0 1 -1 1 0 1 0 1 -1 0 0 1 -1 1 0 1 -1 0 -1 1 0 1 -1 0 -1 1 -1 1 0 0 -1 1 -1 0 -1 0 -2 1 -1 0 -1 0 -2 1 -1 0 -2 0 -2 0 -1 0 0zm-23 -25l0 -25 0 0 3 0 2 0 2 0 2 1 2 0 2 1 3 0 2 1 2 1 2 1 2 1 2 1 1 1 2 2 2 1 2 2 1 1 2 2 1 2 2 2 1 2 1 2 1 2 1 3 1 2 1 2 1 3 0 3 1 2 0 3 0 3 0 3 -24 0 0 -2 0 -2 0 -1 -1 -2 0 -1 0 -1 -1 -2 0 -1 0 -1 -1 -1 0 -1 -1 -1 -1 -1 0 0 -1 -1 -1 -1 0 0 -1 -1 -1 -1 -1 0 -1 -1 -1 0 -1 -1 -1 0 -1 0 -1 -1 -1 0 -1 0 -1 0 -1 -1 -1 0 -2 0 0 0zm-253 -25l253 0 0 25 -253 0 0 0 0 -25zm-24 50l-24 0 0 0 0 -2 0 -2 0 -3 0 -2 1 -2 0 -2 1 -3 0 -2 1 -2 1 -2 1 -2 1 -2 1 -2 2 -2 1 -2 1 -2 2 -2 2 -2 2 -1 1 -2 3 -1 2 -2 2 -1 2 -1 2 -1 3 -1 2 0 3 -1 3 0 2 -1 3 0 3 0 0 25 -2 0 -1 1 -2 0 -1 0 -2 0 -1 1 -1 0 -1 1 -2 0 -1 1 0 0 -1 1 -1 0 -1 1 -1 1 0 1 -1 0 -1 1 0 1 -1 1 0 1 -1 1 0 1 0 1 -1 1 0 2 0 1 -1 1 0 1 0 2 0 1 0 1 0 0zm-24 498l0 -498 24 0 0 498 0 0 -24 0zm48 25l0 25 0 0 -3 0 -3 0 -2 0 -3 -1 -3 0 -2 -1 -3 -1 -2 -1 -2 -1 -2 -1 -2 -1 -3 -2 -1 -1 -2 -2 -2 -2 -2 -1 -1 -2 -1 -2 -2 -2 -1 -2 -1 -2 -1 -2 -1 -3 -1 -2 0 -2 -1 -2 0 -3 -1 -2 0 -2 0 -2 0 -3 0 -2 24 0 0 1 0 2 0 1 0 1 1 2 0 1 0 1 1 1 0 1 0 1 1 1 0 1 1 1 0 1 1 1 1 1 0 1 1 0 1 1 1 1 1 0 0 1 1 0 2 1 1 0 1 1 1 0 2 0 1 1 2 0 1 0 2 0 0 0zm253 25l-253 0 0 -25 253 0 0 0 0 25zm475 -581l0 -25 0 0 3 0 3 0 2 0 3 1 3 0 2 1 3 1 2 1 2 1 3 1 2 1 2 2 2 1 2 2 1 2 2 1 2 2 1 2 1 2 2 2 1 2 1 2 1 3 0 2 1 2 1 2 0 3 1 2 0 2 0 3 0 2 0 2 -24 0 0 -1 0 -1 0 -2 0 -1 -1 -1 0 -1 0 -2 -1 -1 0 -1 0 -1 -1 -1 0 -1 -1 -1 -1 -1 0 -1 -1 0 -1 -1 0 -1 -1 -1 -1 0 -1 -1 -1 -1 -1 0 -1 -1 -1 0 -2 -1 -1 0 -1 0 -2 0 -1 -1 -2 0 -2 0 0 0zm-25 25l-24 0 0 0 0 -2 0 -2 0 -3 1 -2 0 -2 1 -3 0 -2 1 -2 1 -2 0 -2 1 -3 1 -2 2 -2 1 -2 1 -2 2 -1 2 -2 1 -2 2 -2 2 -1 2 -2 2 -1 2 -1 3 -1 2 -1 3 -1 2 -1 3 0 3 -1 2 0 3 0 3 0 0 25 -2 0 -2 0 -1 1 -2 0 -1 0 -2 0 -1 1 -1 0 -1 1 -1 0 -1 1 -1 1 -1 0 -1 1 0 1 -1 0 -1 1 0 1 -1 1 0 1 -1 1 0 1 -1 1 0 1 -1 1 0 1 0 2 0 1 0 1 -1 1 0 2 0 1 0 0zm-24 204l0 -204 24 0 0 204 -12 13 -12 -13zm24 0l0 13 -12 0 12 -13zm-219 -13l207 0 0 26 -207 0 -12 -13 12 -13zm0 26l-12 0 0 -13 12 13zm12 -217l0 204 -24 0 0 -204 0 0 24 0zm-49 -25l0 -25 0 0 3 0 3 0 3 0 3 1 2 0 3 1 2 1 3 1 2 1 2 1 3 1 2 2 2 1 1 2 2 2 2 2 1 1 2 2 1 2 1 3 1 2 1 2 1 2 1 2 0 2 1 3 0 2 1 2 0 2 0 3 0 2 0 2 -24 0 0 -1 0 -2 0 -1 0 -1 -1 -2 0 -1 0 -1 0 -1 -1 -1 0 -1 -1 -1 0 -1 -1 -1 0 -1 -1 -1 0 -1 -1 0 -1 -1 -1 -1 0 0 -1 -1 -1 -1 -1 0 -1 -1 -1 0 -2 -1 -1 0 -2 0 -1 0 -2 -1 -2 0 -2 0 0 0zm-25 25l-24 0 0 0 0 -2 0 -2 0 -3 1 -2 0 -2 1 -3 0 -2 1 -2 1 -2 1 -3 1 -2 1 -2 1 -2 1 -2 2 -2 1 -2 2 -1 2 -2 2 -2 2 -1 2 -2 2 -1 2 -1 2 -1 3 -1 2 -1 3 -1 2 0 3 -1 3 0 2 0 3 0 0 25 -2 0 -1 0 -2 1 -1 0 -2 0 -1 0 -1 1 -2 0 -1 1 -1 0 -1 1 -1 1 0 0 -1 1 -1 1 -1 1 0 0 -1 1 -1 1 0 1 -1 1 0 1 -1 1 0 1 0 1 -1 2 0 1 0 1 0 1 0 2 -1 1 0 1 0 0zm-24 514l0 -514 24 0 0 514 0 0 -24 0zm49 25l0 26 0 0 -3 -1 -2 0 -3 0 -3 0 -2 -1 -3 -1 -2 -1 -3 -1 -2 -1 -2 -1 -2 -1 -2 -1 -2 -2 -2 -2 -2 -1 -2 -2 -1 -2 -2 -2 -1 -2 -1 -2 -1 -2 -1 -2 -1 -2 -1 -2 -1 -3 0 -2 -1 -2 0 -2 -1 -3 0 -2 0 -2 0 -3 24 0 0 2 1 1 0 1 0 1 0 2 0 1 1 1 0 1 0 1 1 1 0 1 1 1 0 1 1 1 1 1 0 1 1 1 1 0 1 1 0 1 1 0 1 1 1 1 1 0 2 1 1 0 1 0 2 1 1 0 2 0 1 0 2 0 0 0zm25 -25l24 0 0 0 0 3 0 2 0 2 0 2 -1 3 0 2 -1 2 0 2 -1 3 -1 2 -1 2 -1 2 -1 2 -2 2 -1 2 -2 2 -1 2 -2 1 -2 2 -2 1 -2 2 -2 1 -2 1 -2 1 -3 1 -2 1 -3 1 -3 1 -2 0 -3 0 -3 0 -3 1 0 -26 2 0 2 0 2 0 1 0 2 -1 1 0 1 -1 1 0 1 0 1 -1 1 -1 1 0 1 -1 1 -1 1 0 0 -1 1 -1 1 -1 0 -1 1 -1 0 0 1 -1 0 -2 1 -1 0 -1 0 -1 0 -1 1 -1 0 -2 0 -1 0 -1 0 -2 0 0zm24 -236l0 236 -24 0 0 -236 12 -13 12 13zm-24 0l0 -13 12 0 -12 13zm219 12l-207 0 0 -25 207 0 12 13 -12 12zm0 -25l12 0 0 13 -12 -13zm-12 249l0 -236 24 0 0 236 0 0 -24 0zm49 25l0 26 0 0 -3 -1 -3 0 -3 0 -2 0 -3 -1 -3 -1 -2 -1 -3 -1 -2 -1 -2 -1 -2 -1 -2 -2 -2 -1 -2 -2 -2 -1 -1 -2 -2 -2 -1 -2 -2 -2 -1 -2 -1 -2 -1 -2 -1 -3 0 -2 -1 -2 -1 -2 0 -2 0 -3 -1 -2 0 -2 0 -3 0 -2 24 0 0 2 0 1 1 1 0 2 0 1 0 1 0 1 1 1 0 2 1 1 0 1 0 1 1 1 1 0 0 1 1 1 0 1 1 0 1 1 1 1 1 0 0 1 2 1 1 0 1 0 1 1 2 0 1 1 2 0 1 0 2 0 2 0 0 0zm25 -25l24 0 0 0 0 3 0 2 0 2 0 3 -1 2 0 2 -1 2 -1 3 0 2 -1 2 -1 2 -1 2 -2 2 -1 2 -1 2 -2 2 -2 2 -1 1 -2 2 -2 2 -2 1 -2 1 -3 1 -2 1 -2 1 -3 1 -2 1 -3 1 -3 0 -2 0 -3 0 -3 1 0 -26 2 0 2 0 1 0 2 0 1 -1 1 0 2 0 1 -1 1 0 1 -1 1 -1 1 0 1 -1 1 -1 0 0 1 -1 1 -1 0 -1 1 -1 1 -1 0 -1 1 -1 0 -1 0 -1 1 -1 0 -1 0 -1 1 -2 0 -1 0 -1 0 -1 0 -2 0 0zm24 -514l0 514 -24 0 0 -514 0 0 24 0zm216 180l124 0 0 25 -124 0 -12 -12 12 -13zm0 25l-12 0 0 -12 12 12zm12 -205l0 193 -24 0 0 -193 0 0 24 0zm-49 -25l0 -25 0 0 3 0 2 0 3 0 3 1 3 0 2 1 3 1 2 1 2 1 3 1 2 1 2 2 2 1 2 2 1 2 2 2 2 1 1 2 1 2 1 2 1 2 1 3 1 2 1 2 1 2 0 2 1 3 0 2 1 2 0 3 0 2 0 2 -24 0 0 -1 -1 -2 0 -1 0 -1 0 -1 0 -2 -1 -1 0 -1 0 -1 -1 -1 0 -1 -1 -1 0 -1 -1 -1 0 -1 -1 -1 -1 0 -1 -1 0 -1 -1 0 -1 -1 -1 -1 -1 0 -1 -1 -1 0 -2 -1 -1 0 -1 0 -2 0 -2 -1 -1 0 -2 0 0 0zm-25 25l-24 0 0 0 0 -2 0 -2 0 -3 0 -2 1 -2 0 -3 1 -2 0 -2 1 -2 1 -2 1 -3 1 -2 1 -2 2 -2 1 -2 1 -1 2 -2 2 -2 2 -2 2 -1 2 -2 2 -1 2 -1 2 -1 3 -1 2 -1 3 -1 2 0 3 -1 3 0 3 0 3 0 0 25 -2 0 -2 0 -2 1 -1 0 -2 0 -1 0 -1 1 -1 0 -1 1 -2 0 -1 1 0 1 -1 0 -1 1 -1 1 0 0 -1 1 -1 1 0 1 -1 1 0 1 -1 1 0 1 -1 1 0 1 0 1 -1 2 0 1 0 1 0 1 0 2 0 1 0 0zm-24 506l0 -506 24 0 0 506 0 0 -24 0zm50 25l0 25 0 0 -3 0 -3 0 -3 0 -3 -1 -3 0 -2 -1 -3 -1 -2 -1 -3 -1 -2 -1 -2 -1 -2 -2 -2 -1 -2 -2 -2 -1 -1 -2 -2 -2 -1 -2 -2 -2 -1 -2 -1 -2 -1 -2 -1 -3 -1 -2 0 -2 -1 -2 0 -3 -1 -2 0 -2 0 -2 0 -3 0 -2 24 0 0 1 0 2 0 1 0 1 1 2 0 1 0 1 0 1 1 1 0 1 1 1 0 1 1 1 0 1 1 1 1 1 0 0 1 1 1 1 1 1 1 0 1 1 1 0 1 1 1 0 1 1 2 0 1 0 2 1 2 0 2 0 2 0 0 0zm160 25l-160 0 0 -25 160 0 0 0 0 25zm139 -171l24 0 0 0 0 9 0 8 -1 9 -1 8 -2 9 -1 8 -2 8 -3 8 -2 7 -3 8 -4 7 -3 7 -4 7 -5 6 -4 7 -5 6 -6 5 -5 6 -6 5 -7 5 -6 4 -7 4 -7 4 -8 3 -8 3 -8 3 -8 2 -9 2 -9 1 -10 2 -9 0 -10 0 0 -25 9 0 8 -1 9 -1 8 -1 7 -2 7 -1 7 -3 7 -2 6 -3 6 -3 6 -4 6 -3 5 -4 5 -4 4 -5 5 -5 4 -4 4 -6 3 -5 4 -6 3 -6 2 -6 3 -6 2 -6 2 -7 2 -7 2 -7 1 -7 1 -8 0 -7 1 -8 0 -8 0 0zm24 -37l0 37 -24 0 0 -37 0 0 24 0zm-163 -143l0 -25 0 0 10 0 10 1 9 1 9 1 9 2 9 2 8 2 8 3 7 3 8 4 7 4 6 4 6 5 6 4 6 6 5 5 5 6 5 6 4 7 4 6 4 7 3 7 3 8 3 7 2 8 2 8 2 8 1 8 1 9 1 8 0 9 0 9 -24 0 0 -8 -1 -8 0 -8 -1 -7 -1 -7 -2 -7 -1 -7 -2 -7 -3 -6 -2 -6 -3 -6 -3 -6 -3 -6 -4 -5 -3 -5 -4 -4 -5 -5 -4 -4 -5 -4 -5 -4 -6 -3 -5 -4 -6 -3 -7 -2 -7 -3 -7 -2 -7 -2 -8 -1 -8 -1 -8 -1 -9 -1 -9 0 0 0zm2 278l0 -26 0 0 4 0 5 0 4 0 4 -1 3 0 4 -1 3 -1 3 -1 3 -1 3 -1 3 -2 2 -1 2 -2 2 -1 2 -2 2 -2 2 -2 1 -2 2 -2 1 -2 1 -3 1 -2 1 -3 1 -3 1 -3 1 -3 1 -4 0 -3 0 -4 1 -4 0 -4 0 -4 24 0 0 5 0 5 0 5 -1 4 0 5 -1 4 -1 4 -1 5 -2 4 -1 4 -2 4 -2 3 -2 4 -2 3 -3 4 -3 3 -2 3 -4 2 -3 3 -3 2 -4 3 -4 2 -4 1 -4 2 -4 1 -5 1 -4 1 -5 1 -5 1 -5 0 -5 1 -5 0 0 0zm-126 -26l126 0 0 26 -126 0 -12 -13 12 -13zm0 26l-12 0 0 -13 12 13zm12 -217l0 204 -24 0 0 -204 12 -12 12 12zm-24 0l0 -12 12 0 -12 12zm136 13l-124 0 0 -25 124 0 0 0 0 25zm89 65l-24 0 0 0 0 -4 0 -4 -1 -4 0 -4 -1 -3 0 -4 -1 -3 -1 -3 -1 -3 -1 -3 -1 -2 -1 -3 -2 -2 -1 -2 -2 -3 -2 -1 -2 -2 -2 -2 -2 -2 -2 -1 -3 -2 -2 -1 -3 -1 -3 -2 -3 -1 -3 -1 -4 0 -4 -1 -4 0 -4 -1 -4 0 -5 0 0 -25 5 0 6 0 5 0 5 1 4 1 5 1 5 1 4 1 4 2 4 2 4 2 4 2 3 2 4 3 3 3 3 3 2 3 3 3 2 4 3 3 2 4 1 4 2 4 1 4 2 4 1 5 0 4 1 5 1 4 0 5 0 5 0 5 0 0zm-24 49l0 -49 24 0 0 49 0 0 -24 0z"/>
  </g>
  <g>
   <path class="fil3" d="M4640 7470c-39,0 -70,-34 -70,-75 0,-42 31,-75 70,-75l0 150zm4354 0l-4354 0 0 -150 4354 0 0 150zm0 -150c39,0 70,33 70,75 0,41 -31,75 -70,75l0 -150z"/>
  </g>
  <path class="fil4 str0" d="M9761 5829l0 8833c-2205,0 -3683,0 -5888,0l0 -8833 5888 0z"/>
  <path class="fil4 str1" d="M8573 9553l582 0 0 -557 -582 0 0 557z"/>
  <path class="fil4 str1" d="M8573 12628l582 0 0 -558 -582 0 0 558z"/>
  <path class="fil4 str1" d="M8573 8625l582 0 0 -557 -582 0 0 557z"/>
  <path class="fil5 str2" d="M4745 8314l122 -121c3,-3 6,-4 10,-4 3,0 7,1 10,4 3,3 4,7 4,11 0,2 -1,5 -4,9l-86 86 89 158 2 7c0,4 -2,7 -5,10 -3,3 -6,4 -11,4 -4,0 -8,-2 -12,-7l-85 -151 -34 34 0 110c0,4 -2,8 -4,11 -3,2 -6,3 -11,3 -3,0 -7,-1 -10,-3 -3,-3 -4,-6 -4,-11l0 -261c0,-4 1,-7 4,-10 3,-3 7,-4 10,-4 4,0 7,1 10,3 3,3 5,6 5,11l0 111zm253 92l-21 62c-1,3 -3,6 -5,8 -2,1 -5,2 -8,2 -4,0 -7,-1 -10,-4 -3,-2 -5,-6 -5,-10l1 -5 87 -260c3,-9 8,-13 14,-13 6,0 11,4 14,13l86 260 1 5c0,4 -1,7 -5,10 -3,3 -6,4 -10,4 -2,0 -4,0 -6,-1 -3,-1 -5,-4 -7,-9l-21 -62 -105 0zm96 -30l-43 -127 -43 127 86 0zm259 -71l0 -102c0,-4 1,-7 4,-10 3,-3 6,-4 10,-4 4,0 7,1 10,3 3,3 4,6 4,11l0 260c0,5 -1,8 -4,11 -4,3 -7,4 -10,4 -4,0 -7,-1 -10,-3 -3,-3 -4,-6 -4,-11l0 -130 -116 0 0 130c0,4 -2,8 -4,11 -3,2 -6,3 -11,3 -4,0 -7,-1 -10,-3 -3,-3 -4,-6 -4,-11l0 -261c0,-3 1,-7 4,-10 3,-3 6,-4 10,-4 4,0 7,1 10,4 3,2 5,6 5,10l0 102 116 0zm117 145l27 -248c0,-9 5,-13 15,-13l86 0c10,0 15,5 15,14l0 247 15 0c9,0 14,4 14,14l0 29c0,4 -1,7 -4,10 -3,3 -7,4 -10,4 -4,0 -7,-1 -10,-4 -3,-2 -5,-6 -5,-10l0 -15 -145 0 0 15c0,4 -1,7 -4,10 -3,3 -7,4 -10,4 -4,0 -7,-1 -10,-4 -3,-2 -5,-6 -5,-10l0 -29c0,-10 5,-14 15,-14l16 0zm114 0l0 -232 -59 0 -26 232 85 0zm289 14c0,4 -1,8 -4,11 -2,2 -6,3 -10,3 -4,0 -7,-1 -10,-3 -3,-3 -4,-6 -4,-11l0 -205 -118 212c-2,3 -4,5 -6,7l-3 2c-1,0 -3,0 -5,1 -3,0 -6,-2 -9,-5 -3,-2 -4,-7 -4,-12l0 -261c0,-3 1,-7 4,-10 3,-3 6,-4 10,-4 4,0 7,1 10,4 3,2 5,6 5,10l0 205 117 -212c1,-2 4,-4 6,-7 3,-2 5,-3 8,-3 3,0 6,2 9,5 3,3 4,7 4,12l0 261zm89 -14l27 -248c0,-9 5,-13 15,-13l86 0c10,0 15,5 15,14l0 247 14 0c10,0 15,4 15,14l0 29c0,4 -1,7 -4,10 -3,3 -7,4 -10,4 -4,0 -7,-1 -10,-4 -3,-2 -5,-6 -5,-10l0 -15 -145 0 0 15c0,4 -1,7 -4,10 -3,3 -7,4 -10,4 -4,0 -7,-1 -10,-4 -3,-2 -5,-6 -5,-10l0 -29c0,-10 5,-14 15,-14l16 0zm114 0l0 -232 -59 0 -26 232 85 0zm167 -44l-21 62c-2,3 -3,6 -6,8 -2,1 -4,2 -8,2 -3,0 -7,-1 -10,-4 -3,-2 -4,-6 -4,-10l1 -5 87 -260c2,-9 7,-13 13,-13 6,0 11,4 14,13l86 260 2 5c0,4 -2,7 -5,10 -3,3 -7,4 -10,4 -2,0 -4,0 -7,-1 -2,-1 -5,-4 -7,-9l-21 -62 -104 0zm95 -30l-43 -127 -43 127 86 0zm129 -158l-58 0c-5,0 -8,-2 -11,-4 -2,-4 -4,-7 -4,-11 0,-3 1,-6 4,-10 2,-3 6,-4 11,-4l144 0c4,0 8,1 11,4 2,3 4,6 4,10 0,3 -1,7 -4,10 -2,3 -6,5 -11,5l-58 0 0 246c0,4 -1,8 -4,11 -2,2 -6,3 -10,3 -4,0 -7,-1 -10,-3 -3,-3 -4,-6 -4,-11l0 -246zm360 246c0,4 -1,8 -4,11 -3,2 -6,3 -10,3 -4,0 -7,-1 -10,-3 -3,-3 -5,-6 -5,-11l0 -226 -33 33c-3,3 -6,5 -10,5 -3,0 -7,-2 -10,-5 -3,-3 -5,-6 -5,-10 0,-3 2,-7 5,-10l58 -58c1,-2 4,-4 6,-5 2,-1 4,-2 6,-2 3,0 6,2 9,5 2,3 3,7 3,12l0 261z"/>
  <path class="fil4 str1" d="M8575 11545l582 0 0 -558 -582 0 0 558z"/>
  <path class="fil4 str1" d="M8575 10545l582 0 0 -558 -582 0 0 558z"/>
  <path class="fil5 str2" d="M4745 9241l122 -121c3,-2 6,-4 10,-4 3,0 7,2 10,5 3,3 4,6 4,10 0,3 -1,6 -4,10l-86 86 89 157 2 8c0,4 -2,7 -5,9 -3,3 -6,5 -11,5 -4,0 -8,-3 -12,-8l-85 -151 -34 34 0 110c0,5 -2,9 -4,11 -3,3 -6,4 -11,4 -3,0 -7,-1 -10,-4 -3,-2 -4,-6 -4,-11l0 -261c0,-3 1,-7 4,-9 3,-3 7,-5 10,-5 4,0 7,1 10,4 3,2 5,6 5,10l0 111zm253 92l-21 63c-1,3 -3,5 -5,7 -2,2 -5,2 -8,3 -4,0 -7,-2 -10,-4 -3,-3 -5,-6 -5,-10l1 -5 87 -261c3,-8 8,-12 14,-12 6,0 11,4 14,12l86 261 1 5c0,4 -1,7 -5,10 -3,3 -6,4 -10,4 -2,0 -4,-1 -6,-2 -3,-1 -5,-3 -7,-8l-21 -63 -105 0zm96 -29l-43 -128 -43 128 86 0zm259 -72l0 -101c0,-4 1,-8 4,-10 3,-3 6,-5 10,-5 4,0 7,1 10,4 3,2 4,6 4,11l0 260c0,4 -1,8 -4,11 -4,3 -7,4 -10,4 -4,0 -7,-1 -10,-4 -3,-2 -4,-6 -4,-10l0 -131 -116 0 0 130c0,5 -2,9 -4,11 -3,3 -6,4 -11,4 -4,0 -7,-1 -10,-4 -3,-2 -4,-6 -4,-11l0 -260c0,-4 1,-8 4,-11 3,-2 6,-4 10,-4 4,0 7,2 10,4 3,2 5,6 5,11l0 101 116 0zm117 145l27 -248c0,-8 5,-13 15,-13l86 0c10,0 15,5 15,15l0 246 15 0c9,0 14,5 14,14l0 29c0,4 -1,8 -4,10 -3,3 -7,5 -10,5 -4,0 -7,-2 -10,-4 -3,-2 -5,-6 -5,-11l0 -14 -145 0 0 14c0,4 -1,8 -4,10 -3,3 -7,5 -10,5 -4,0 -7,-2 -10,-4 -3,-2 -5,-6 -5,-11l0 -29c0,-9 5,-14 15,-14l16 0zm114 0l0 -232 -59 0 -26 232 85 0zm289 14c0,5 -1,9 -4,11 -2,3 -6,4 -10,4 -4,0 -7,-1 -10,-4 -3,-2 -4,-6 -4,-11l0 -204 -118 211c-2,3 -4,6 -6,7l-3 2c-1,1 -3,1 -5,1 -3,0 -6,-1 -9,-4 -3,-3 -4,-7 -4,-12l0 -261c0,-4 1,-8 4,-11 3,-2 6,-4 10,-4 4,0 7,2 10,4 3,2 5,6 5,11l0 205 117 -212c1,-2 4,-5 6,-7 3,-2 5,-3 8,-3 3,0 6,2 9,5 3,3 4,7 4,12l0 260zm89 -14l27 -248c0,-8 5,-13 15,-13l86 0c10,0 15,5 15,15l0 246 14 0c10,0 15,5 15,14l0 29c0,4 -1,8 -4,10 -3,3 -7,5 -10,5 -4,0 -7,-2 -10,-4 -3,-2 -5,-6 -5,-11l0 -14 -145 0 0 14c0,4 -1,8 -4,10 -3,3 -7,5 -10,5 -4,0 -7,-2 -10,-4 -3,-2 -5,-6 -5,-11l0 -29c0,-9 5,-14 15,-14l16 0zm114 0l0 -232 -59 0 -26 232 85 0zm167 -44l-21 63c-2,3 -3,5 -6,7 -2,2 -4,2 -8,3 -3,0 -7,-2 -10,-4 -3,-3 -4,-6 -4,-10l1 -5 87 -261c2,-8 7,-12 13,-12 6,0 11,4 14,12l86 261 2 5c0,4 -2,7 -5,10 -3,3 -7,4 -10,4 -2,0 -4,-1 -7,-2 -2,-1 -5,-3 -7,-8l-21 -63 -104 0zm95 -29l-43 -128 -43 128 86 0zm129 -159l-58 0c-5,0 -8,-1 -11,-4 -2,-3 -4,-7 -4,-10 0,-4 1,-7 4,-10 2,-3 6,-5 11,-5l144 0c4,0 8,2 11,5 2,3 4,6 4,10 0,3 -1,6 -4,9 -2,4 -6,5 -11,5l-58 0 0 246c0,5 -1,9 -4,11 -2,3 -6,4 -10,4 -4,0 -7,-1 -10,-4 -3,-2 -4,-6 -4,-11l0 -246zm408 83l-94 149 90 0c4,0 7,2 10,5 3,2 4,6 4,9 0,4 -1,7 -3,10 -3,3 -6,5 -11,5l-116 0c-10,0 -16,-4 -16,-12 0,-3 1,-6 4,-11l107 -170c3,-8 5,-15 5,-22 0,-12 -5,-23 -14,-32 -5,-4 -10,-8 -16,-10 -6,-3 -13,-4 -20,-4 -7,0 -14,2 -21,6 -7,4 -12,10 -17,16 -1,2 -3,4 -5,6l-7 1c-4,0 -7,-1 -10,-4 -3,-3 -5,-6 -5,-10 0,-2 1,-5 3,-8 6,-11 15,-19 27,-26 5,-3 11,-5 16,-7 6,-2 12,-3 17,-3 23,0 42,8 57,23 16,15 24,33 24,53 0,12 -3,24 -9,36z"/>
  <path class="fil5 str2" d="M4745 10233l122 -121c3,-3 6,-4 10,-4 3,0 7,2 10,5 3,3 4,6 4,10 0,3 -1,6 -4,10l-86 86 89 157 2 8c0,3 -2,7 -5,9 -3,3 -6,5 -11,5 -4,0 -8,-3 -12,-8l-85 -151 -34 34 0 110c0,5 -2,8 -4,11 -3,3 -6,4 -11,4 -3,0 -7,-1 -10,-4 -3,-2 -4,-6 -4,-11l0 -261c0,-3 1,-7 4,-10 3,-2 7,-4 10,-4 4,0 7,1 10,3 3,3 5,7 5,11l0 111zm253 92l-21 63c-1,3 -3,5 -5,7 -2,1 -5,2 -8,3 -4,0 -7,-2 -10,-4 -3,-3 -5,-6 -5,-10l1 -5 87 -261c3,-8 8,-12 14,-12 6,0 11,4 14,12l86 261 1 5c0,3 -1,7 -5,10 -3,2 -6,4 -10,4 -2,0 -4,-1 -6,-2 -3,-1 -5,-4 -7,-8l-21 -63 -105 0zm96 -29l-43 -128 -43 128 86 0zm259 -72l0 -101c0,-4 1,-8 4,-11 3,-2 6,-4 10,-4 4,0 7,1 10,4 3,2 4,6 4,11l0 260c0,4 -1,8 -4,11 -4,2 -7,4 -10,4 -4,0 -7,-1 -10,-4 -3,-2 -4,-6 -4,-11l0 -130 -116 0 0 130c0,5 -2,8 -4,11 -3,3 -6,4 -11,4 -4,0 -7,-1 -10,-4 -3,-2 -4,-6 -4,-11l0 -260c0,-4 1,-8 4,-11 3,-2 6,-4 10,-4 4,0 7,2 10,4 3,2 5,6 5,11l0 101 116 0zm117 145l27 -248c0,-9 5,-13 15,-13l86 0c10,0 15,5 15,15l0 246 15 0c9,0 14,5 14,14l0 29c0,4 -1,7 -4,10 -3,3 -7,5 -10,5 -4,0 -7,-2 -10,-4 -3,-2 -5,-6 -5,-11l0 -14 -145 0 0 14c0,4 -1,7 -4,10 -3,3 -7,5 -10,5 -4,0 -7,-2 -10,-4 -3,-2 -5,-6 -5,-11l0 -29c0,-9 5,-14 15,-14l16 0zm114 0l0 -232 -59 0 -26 232 85 0zm289 14c0,5 -1,8 -4,11 -2,3 -6,4 -10,4 -4,0 -7,-1 -10,-4 -3,-2 -4,-6 -4,-11l0 -204 -118 211c-2,3 -4,6 -6,7l-3 2c-1,0 -3,1 -5,1 -3,0 -6,-1 -9,-4 -3,-3 -4,-7 -4,-13l0 -260c0,-4 1,-8 4,-11 3,-2 6,-4 10,-4 4,0 7,2 10,4 3,2 5,6 5,11l0 204 117 -211c1,-2 4,-5 6,-7 3,-2 5,-3 8,-3 3,0 6,2 9,5 3,3 4,7 4,12l0 260zm89 -14l27 -248c0,-9 5,-13 15,-13l86 0c10,0 15,5 15,15l0 246 14 0c10,0 15,5 15,14l0 29c0,4 -1,7 -4,10 -3,3 -7,5 -10,5 -4,0 -7,-2 -10,-4 -3,-2 -5,-6 -5,-11l0 -14 -145 0 0 14c0,4 -1,7 -4,10 -3,3 -7,5 -10,5 -4,0 -7,-2 -10,-4 -3,-2 -5,-6 -5,-11l0 -29c0,-9 5,-14 15,-14l16 0zm114 0l0 -232 -59 0 -26 232 85 0zm167 -44l-21 63c-2,3 -3,5 -6,7 -2,1 -4,2 -8,3 -3,0 -7,-2 -10,-4 -3,-3 -4,-6 -4,-10l1 -5 87 -261c2,-8 7,-12 13,-12 6,0 11,4 14,12l86 261 2 5c0,3 -2,7 -5,10 -3,2 -7,4 -10,4 -2,0 -4,-1 -7,-2 -2,-1 -5,-4 -7,-8l-21 -63 -104 0zm95 -29l-43 -128 -43 128 86 0zm129 -159l-58 0c-5,0 -8,-1 -11,-4 -2,-3 -4,-7 -4,-10 0,-4 1,-7 4,-10 2,-3 6,-5 11,-5l144 0c4,0 8,2 11,5 2,2 4,6 4,10 0,3 -1,6 -4,9 -2,3 -6,5 -11,5l-58 0 0 246c0,5 -1,8 -4,11 -2,3 -6,4 -10,4 -4,0 -7,-1 -10,-4 -3,-2 -4,-6 -4,-11l0 -246zm345 0l-58 0c-5,0 -8,-1 -11,-4 -3,-3 -4,-6 -4,-10 0,-3 1,-7 4,-10 2,-3 6,-4 11,-4l57 0c23,0 41,7 55,22 12,13 18,30 18,49 0,12 -2,23 -7,33 -5,10 -12,18 -21,26 8,7 14,15 20,25 5,10 8,21 8,32l0 29c0,20 -7,37 -21,51 -15,15 -32,22 -52,22l-57 0c-5,0 -8,-2 -11,-4 -3,-3 -4,-7 -4,-11 0,-3 1,-6 4,-9 2,-4 6,-5 11,-5l58 0c12,0 22,-4 30,-13 9,-8 13,-19 13,-31l0 -29c0,-11 -4,-22 -12,-30 -9,-9 -19,-13 -31,-13l-29 0c-5,0 -8,-1 -11,-4 -3,-3 -4,-7 -4,-10 0,-4 1,-7 4,-10 2,-3 6,-5 11,-5l29 0c12,0 23,-5 31,-14 7,-8 11,-18 11,-30 0,-12 -4,-22 -10,-29 -8,-9 -19,-14 -32,-14z"/>
  <path class="fil5 str2" d="M4745 11233l122 -121c3,-3 6,-4 10,-4 3,0 7,2 10,5 3,3 4,6 4,10 0,3 -1,6 -4,10l-86 86 89 157 2 8c0,3 -2,7 -5,9 -3,3 -6,5 -11,5 -4,0 -8,-3 -12,-8l-85 -151 -34 34 0 110c0,5 -2,8 -4,11 -3,3 -6,4 -11,4 -3,0 -7,-1 -10,-4 -3,-2 -4,-6 -4,-11l0 -261c0,-3 1,-7 4,-10 3,-2 7,-4 10,-4 4,0 7,1 10,3 3,3 5,7 5,11l0 111zm253 92l-21 63c-1,3 -3,5 -5,7 -2,1 -5,2 -8,3 -4,0 -7,-2 -10,-4 -3,-3 -5,-6 -5,-10l1 -5 87 -261c3,-8 8,-12 14,-12 6,0 11,4 14,12l86 261 1 5c0,3 -1,7 -5,10 -3,2 -6,4 -10,4 -2,0 -4,-1 -6,-2 -3,-1 -5,-4 -7,-8l-21 -63 -105 0zm96 -29l-43 -128 -43 128 86 0zm259 -72l0 -101c0,-4 1,-8 4,-11 3,-2 6,-4 10,-4 4,0 7,1 10,4 3,2 4,6 4,11l0 260c0,4 -1,8 -4,11 -4,2 -7,4 -10,4 -4,0 -7,-1 -10,-4 -3,-2 -4,-6 -4,-11l0 -130 -116 0 0 130c0,5 -2,8 -4,11 -3,3 -6,4 -11,4 -4,0 -7,-1 -10,-4 -3,-2 -4,-6 -4,-11l0 -260c0,-4 1,-8 4,-11 3,-2 6,-4 10,-4 4,0 7,2 10,4 3,2 5,6 5,11l0 101 116 0zm117 145l27 -248c0,-9 5,-13 15,-13l86 0c10,0 15,5 15,15l0 246 15 0c9,0 14,5 14,14l0 29c0,4 -1,7 -4,10 -3,3 -7,5 -10,5 -4,0 -7,-2 -10,-4 -3,-2 -5,-6 -5,-11l0 -14 -145 0 0 14c0,4 -1,7 -4,10 -3,3 -7,5 -10,5 -4,0 -7,-2 -10,-4 -3,-2 -5,-6 -5,-11l0 -29c0,-9 5,-14 15,-14l16 0zm114 0l0 -232 -59 0 -26 232 85 0zm289 14c0,5 -1,8 -4,11 -2,3 -6,4 -10,4 -4,0 -7,-1 -10,-4 -3,-2 -4,-6 -4,-11l0 -204 -118 211c-2,3 -4,6 -6,7l-3 2c-1,0 -3,1 -5,1 -3,0 -6,-1 -9,-4 -3,-3 -4,-7 -4,-13l0 -260c0,-4 1,-8 4,-11 3,-2 6,-4 10,-4 4,0 7,2 10,4 3,2 5,6 5,11l0 204 117 -211c1,-2 4,-5 6,-7 3,-2 5,-3 8,-3 3,0 6,2 9,5 3,3 4,7 4,12l0 260zm89 -14l27 -248c0,-9 5,-13 15,-13l86 0c10,0 15,5 15,15l0 246 14 0c10,0 15,5 15,14l0 29c0,4 -1,7 -4,10 -3,3 -7,5 -10,5 -4,0 -7,-2 -10,-4 -3,-2 -5,-6 -5,-11l0 -14 -145 0 0 14c0,4 -1,7 -4,10 -3,3 -7,5 -10,5 -4,0 -7,-2 -10,-4 -3,-2 -5,-6 -5,-11l0 -29c0,-9 5,-14 15,-14l16 0zm114 0l0 -232 -59 0 -26 232 85 0zm167 -44l-21 63c-2,3 -3,5 -6,7 -2,1 -4,2 -8,3 -3,0 -7,-2 -10,-4 -3,-3 -4,-6 -4,-10l1 -5 87 -261c2,-8 7,-12 13,-12 6,0 11,4 14,12l86 261 2 5c0,3 -2,7 -5,10 -3,2 -7,4 -10,4 -2,0 -4,-1 -7,-2 -2,-1 -5,-4 -7,-8l-21 -63 -104 0zm95 -29l-43 -128 -43 128 86 0zm129 -159l-58 0c-5,0 -8,-1 -11,-4 -2,-3 -4,-7 -4,-10 0,-4 1,-7 4,-10 2,-3 6,-5 11,-5l144 0c4,0 8,2 11,5 2,2 4,6 4,10 0,3 -1,6 -4,9 -2,3 -6,5 -11,5l-58 0 0 246c0,5 -1,8 -4,11 -2,3 -6,4 -10,4 -4,0 -7,-1 -10,-4 -3,-2 -4,-6 -4,-11l0 -246zm404 174l29 0c4,0 7,2 10,5 3,3 4,6 4,10 0,3 -1,6 -3,9 -3,4 -7,5 -11,5l-29 0 0 43c0,5 -2,9 -4,11 -3,3 -6,4 -11,4 -3,0 -7,-1 -10,-4 -3,-2 -4,-6 -4,-11l0 -43 -87 0c-10,0 -15,-4 -15,-12l0 -3 1 -3 58 -203c1,-3 2,-6 5,-8l3 -2c1,0 3,-1 5,-1 4,0 8,2 11,4 3,3 4,6 4,10l0 5 -53 184 68 0 0 -43c0,-4 1,-8 4,-11 3,-2 7,-4 10,-4 4,0 7,2 10,4 3,2 5,6 5,11l0 43z"/>
  <path class="fil5 str2" d="M4745 12316l122 -121c3,-2 6,-4 10,-4 3,0 7,2 10,5 3,3 4,6 4,10 0,3 -1,6 -4,10l-86 86 89 157 2 8c0,3 -2,7 -5,9 -3,3 -6,5 -11,5 -4,0 -8,-3 -12,-8l-85 -151 -34 34 0 110c0,5 -2,8 -4,11 -3,3 -6,4 -11,4 -3,0 -7,-1 -10,-4 -3,-2 -4,-6 -4,-11l0 -261c0,-3 1,-7 4,-10 3,-2 7,-4 10,-4 4,0 7,1 10,4 3,2 5,6 5,10l0 111zm253 92l-21 63c-1,3 -3,5 -5,7 -2,1 -5,2 -8,3 -4,0 -7,-2 -10,-4 -3,-3 -5,-6 -5,-10l1 -5 87 -261c3,-8 8,-12 14,-12 6,0 11,4 14,12l86 261 1 5c0,3 -1,7 -5,10 -3,2 -6,4 -10,4 -2,0 -4,-1 -6,-2 -3,-1 -5,-3 -7,-8l-21 -63 -105 0zm96 -29l-43 -128 -43 128 86 0zm259 -72l0 -101c0,-4 1,-8 4,-11 3,-2 6,-4 10,-4 4,0 7,1 10,4 3,2 4,6 4,11l0 260c0,4 -1,8 -4,11 -4,2 -7,4 -10,4 -4,0 -7,-1 -10,-4 -3,-2 -4,-6 -4,-11l0 -130 -116 0 0 130c0,5 -2,8 -4,11 -3,3 -6,4 -11,4 -4,0 -7,-1 -10,-4 -3,-2 -4,-6 -4,-11l0 -260c0,-4 1,-8 4,-11 3,-2 6,-4 10,-4 4,0 7,2 10,4 3,2 5,6 5,11l0 101 116 0zm117 145l27 -248c0,-9 5,-13 15,-13l86 0c10,0 15,5 15,15l0 246 15 0c9,0 14,5 14,14l0 29c0,4 -1,7 -4,10 -3,3 -7,5 -10,5 -4,0 -7,-2 -10,-4 -3,-2 -5,-6 -5,-11l0 -14 -145 0 0 14c0,4 -1,7 -4,10 -3,3 -7,5 -10,5 -4,0 -7,-2 -10,-4 -3,-2 -5,-6 -5,-11l0 -29c0,-9 5,-14 15,-14l16 0zm114 0l0 -232 -59 0 -26 232 85 0zm289 14c0,5 -1,8 -4,11 -2,3 -6,4 -10,4 -4,0 -7,-1 -10,-4 -3,-2 -4,-6 -4,-11l0 -204 -118 211c-2,3 -4,6 -6,7l-3 2c-1,1 -3,1 -5,1 -3,0 -6,-1 -9,-4 -3,-3 -4,-7 -4,-13l0 -260c0,-4 1,-8 4,-11 3,-2 6,-4 10,-4 4,0 7,2 10,4 3,2 5,6 5,11l0 204 117 -211c1,-2 4,-5 6,-7 3,-2 5,-3 8,-3 3,0 6,2 9,5 3,3 4,7 4,12l0 260zm89 -14l27 -248c0,-9 5,-13 15,-13l86 0c10,0 15,5 15,15l0 246 14 0c10,0 15,5 15,14l0 29c0,4 -1,7 -4,10 -3,3 -7,5 -10,5 -4,0 -7,-2 -10,-4 -3,-2 -5,-6 -5,-11l0 -14 -145 0 0 14c0,4 -1,7 -4,10 -3,3 -7,5 -10,5 -4,0 -7,-2 -10,-4 -3,-2 -5,-6 -5,-11l0 -29c0,-9 5,-14 15,-14l16 0zm114 0l0 -232 -59 0 -26 232 85 0zm167 -44l-21 63c-2,3 -3,5 -6,7 -2,1 -4,2 -8,3 -3,0 -7,-2 -10,-4 -3,-3 -4,-6 -4,-10l1 -5 87 -261c2,-8 7,-12 13,-12 6,0 11,4 14,12l86 261 2 5c0,3 -2,7 -5,10 -3,2 -7,4 -10,4 -2,0 -4,-1 -7,-2 -2,-1 -5,-3 -7,-8l-21 -63 -104 0zm95 -29l-43 -128 -43 128 86 0zm129 -159l-58 0c-5,0 -8,-1 -11,-4 -2,-3 -4,-7 -4,-10 0,-4 1,-7 4,-10 2,-3 6,-5 11,-5l144 0c4,0 8,2 11,5 2,3 4,6 4,10 0,3 -1,6 -4,9 -2,3 -6,5 -11,5l-58 0 0 246c0,5 -1,8 -4,11 -2,3 -6,4 -10,4 -4,0 -7,-1 -10,-4 -3,-2 -4,-6 -4,-11l0 -246zm302 0l0 87 44 0c19,0 36,7 51,21 14,14 21,32 21,51l0 29c0,20 -7,37 -21,51 -14,15 -31,22 -51,22l-58 0c-5,0 -8,-2 -11,-4 -2,-3 -4,-7 -4,-11 0,-3 2,-6 4,-9 3,-3 6,-5 11,-5l58 0c12,0 22,-4 31,-12 8,-9 12,-19 12,-32l0 -29c0,-12 -4,-22 -12,-30 -9,-9 -19,-13 -31,-13l-58 0c-10,0 -15,-5 -15,-14l0 -116c0,-10 5,-15 15,-15l116 0c4,0 7,2 10,5 3,3 4,6 4,10 0,3 -1,6 -3,9 -3,3 -7,5 -11,5l-102 0z"/>
  <path class="fil1" d="M16521 5829l0 8833c-2205,0 -3683,0 -5888,0l0 -8833 5888 0z"/>
  <path class="fil2" d="M10633 5829l5888 0 0 3361 -5888 -2798c10,-289 0,-370 0,-563z"/>
  <path class="fil4 str0" d="M16521 5829l0 8833c-2205,0 -3683,0 -5888,0l0 -8833 5888 0z"/>
  <path class="fil4 str3" d="M13247 9360c332,-89 673,108 762,439 88,332 -108,673 -440,762 -332,88 -672,-108 -761,-440 -89,-332 108,-672 439,-761zm-304 602c-1,-206 136,-395 345,-451 208,-56 422,39 524,218m61 229c1,206 -136,395 -345,451 -208,56 -421,-39 -523,-218m471 60c-55,14 -7,-52 -73,-34 -31,8 -82,93 -97,83 -16,-12 -63,-48 -56,-65 15,-37 19,-80 59,-102 -28,-20 -112,9 -121,-31 0,-1 -177,-103 -97,-174 15,-13 -17,-63 -6,-100 10,-30 238,-4 229,-36 -4,-15 -29,-50 -82,-56 -9,-1 49,-15 80,-27 6,-3 -15,-23 -12,-26 13,-9 13,-12 30,-16m604 143c0,0 -35,35 -9,41m-1031 269c-3,-24 38,-25 1,-52m600 177c54,-14 -20,-48 46,-65 31,-8 117,40 125,23 8,-18 31,-72 17,-84 -32,-24 -57,-59 -103,-59 15,-31 102,-48 90,-87 -1,-1 101,-178 -3,-199 -20,-4 -17,-64 -45,-89 -24,-22 -208,115 -216,82 -4,-14 0,-57 42,-89 8,-5 -49,12 -82,16 -7,1 1,-27 -3,-27 -15,-3 -18,-5 -33,0"/>
 </g>
</svg>
