<?xml version="1.0" encoding="UTF-8"?>
<!DOCTYPE svg PUBLIC "-//W3C//DTD SVG 1.1//EN" "http://www.w3.org/Graphics/SVG/1.1/DTD/svg11.dtd">
<!-- Creator: CorelDRAW X6 -->
<svg xmlns="http://www.w3.org/2000/svg" xml:space="preserve" width="115.711mm" height="70.5556mm" version="1.1" style="shape-rendering:geometricPrecision; text-rendering:geometricPrecision; image-rendering:optimizeQuality; fill-rule:evenodd; clip-rule:evenodd"
viewBox="0 0 11571 7056"
 xmlns:xlink="http://www.w3.org/1999/xlink">
 <defs>
  <style type="text/css">
   <![CDATA[
    .str2 {stroke:#A37D66;stroke-width:10}
    .str3 {stroke:#CC7587;stroke-width:10}
    .str1 {stroke:#AB8082;stroke-width:25}
    .str0 {stroke:#AB8082;stroke-width:80.59;stroke-linecap:round;stroke-linejoin:round}
    .fil3 {fill:none}
    .fil2 {fill:#FFF7B3}
    .fil1 {fill:#FFFADB}
    .fil4 {fill:white}
    .fil6 {fill:#A37D66;fill-rule:nonzero}
    .fil5 {fill:#AB8082;fill-rule:nonzero}
    .fil7 {fill:#CC7587;fill-rule:nonzero}
    .fil0 {fill:url(#id0)}
   ]]>
  </style>
  <radialGradient id="id0" gradientUnits="objectBoundingBox" cx="50%" cy="50%" r="50%" fx="50%" fy="50%">
   <stop offset="0" style="stop-color:#FEFEFE"/>
   <stop offset="0.439216" style="stop-color:#FEFEFE"/>
   <stop offset="1" style="stop-color:#D1E2F2"/>
  </radialGradient>
 </defs>
 <g id="Layer_x0020_1">
  <metadata id="CorelCorpID_0Corel-Layer"/>
  <polygon class="fil0" points="0,0 11571,0 11571,7056 0,7056 "/>
  <g id="_724200672">
   <polygon class="fil1" points="7464,1073 7464,5983 4557,5983 4165,5983 4165,1073 "/>
   <path class="fil2" d="M4165 1073l3300 0 0 1849 -3300 -1568c5,-144 0,-185 0,-281z"/>
   <path class="fil3 str0" d="M7464 1073l0 4911c-1100,0 -2200,0 -3300,0l0 -4911 3300 0z"/>
   <polygon class="fil4" points="8913,4355 6904,4355 6904,4700 8913,4700 "/>
   <path class="fil5 str1" d="M4970 2491l0 262c0,11 6,21 21,21 15,0 21,-10 21,-21l0 -282c0,-11 -7,-21 -21,-21l-154 0c-15,0 -21,10 -21,21l0 282c0,11 7,21 21,21 15,0 21,-10 21,-21l0 -262 111 0zm155 113l0 -114 71 0c32,0 45,16 45,43l0 23c0,28 -13,48 -45,48l-71 0zm71 41c59,0 88,-38 88,-89l0 -23c0,-51 -29,-84 -88,-84l-93 0c-15,0 -21,10 -21,21l0 282c0,11 6,21 21,21 15,0 21,-10 21,-21l0 -108 71 0zm180 -109c0,-28 12,-50 44,-50l37 0c32,0 44,22 44,50l0 146c0,28 -12,50 -44,50l-37 0c-32,0 -44,-22 -44,-50l0 -146zm167 0c0,-50 -29,-91 -87,-91l-37 0c-58,0 -87,41 -87,91l0 146c0,50 29,91 87,91l37 0c58,0 87,-41 87,-91l0 -146zm144 238c15,0 21,-10 21,-21l0 -262 67 0c11,0 20,-6 20,-21 0,-14 -10,-21 -20,-21l-176 0c-11,0 -20,7 -20,21 0,15 10,21 20,21l67 0 0 262c0,11 6,21 21,21zm187 -238c0,-28 12,-50 44,-50l37 0c32,0 44,22 44,50l0 146c0,28 -12,50 -44,50l-37 0c-32,0 -44,-22 -44,-50l0 -146zm167 0c0,-50 -29,-91 -87,-91l-37 0c-58,0 -87,41 -87,91l0 146c0,50 29,91 87,91l37 0c58,0 87,-41 87,-91l0 -146zm269 204l-98 -139 93 -121c8,-11 8,-22 -1,-30 -11,-10 -24,-5 -32,5l-96 130 -27 0 0 -118c0,-11 -6,-21 -21,-21 -16,0 -22,10 -22,21l0 287c0,11 6,21 22,21 15,0 21,-10 21,-21l0 -127 28 0 98 139c6,9 17,14 30,6 13,-9 12,-21 5,-31zm92 -204c0,-28 12,-50 44,-50l37 0c32,0 44,22 44,50l0 146c0,28 -12,50 -44,50l-37 0c-32,0 -44,-22 -44,-50l0 -146zm167 0c0,-50 -29,-91 -87,-91l-37 0c-58,0 -87,41 -87,91l0 146c0,50 29,91 87,91l37 0c58,0 87,-41 87,-91l0 -146zm129 175c3,-26 27,-221 27,-221l80 0 0 262c0,11 6,21 22,21 15,0 21,-10 21,-21l0 -282c0,-11 -6,-21 -21,-21l-119 0c-13,0 -21,9 -22,21 -1,13 -26,213 -28,231 -1,11 -3,17 -5,22 -5,9 -12,11 -26,11 -11,0 -21,7 -21,21 0,16 10,21 21,21 40,0 56,-13 65,-36 3,-9 5,-17 6,-29z"/>
   <g>
    <path class="fil6" d="M6244 4969l0 -65 2 0 2 0 2 0 2 0 2 0 2 0 2 1 2 1 2 1 2 1 2 1 2 1 2 1 2 1 1 1 1 1 1 1 1 1 1 1 1 1 1 1 1 1 1 1 1 1 1 1 1 2 1 2 0 2 0 2 0 2 0 2 0 2 0 2 0 2 0 2 0 2 0 2 -1 2 -1 2 -1 1 -1 1 -1 1 -1 1 -1 1 -1 1 -1 1 -1 1 -1 1 -1 1 -1 1 -2 1 -2 1 -2 1 -2 1 -2 1 -2 1 -2 1 -2 1 -2 0 -2 0 -2 0 -2 0 -2 0 -2 0zm-1374 -65l1374 0 0 65 -1374 0 0 -65zm0 0l0 65 -2 0 -2 0 -2 0 -2 0 -2 0 -2 0 -2 -1 -2 -1 -2 -1 -2 -1 -2 -1 -2 -1 -2 -1 -2 -1 -1 -1 -1 -1 -1 -1 -1 -1 -1 -1 -1 -1 -1 -1 -1 -1 -1 -1 -1 -1 -1 -1 -1 -2 -1 -2 0 -2 0 -2 0 -2 0 -2 0 -2 0 -2 0 -2 0 -2 0 -2 0 -2 1 -2 1 -2 1 -1 1 -1 1 -1 1 -1 1 -1 1 -1 1 -1 1 -1 1 -1 1 -1 1 -1 2 -1 2 -1 2 -1 2 -1 2 -1 2 -1 2 -1 2 -1 2 0 2 0 2 0 2 0 2 0 2 0zm943 -118l0 -65 2 0 2 0 2 0 2 0 2 0 2 0 2 1 2 1 2 1 2 1 2 1 2 1 2 1 2 1 1 1 1 1 1 1 1 1 1 1 1 1 1 1 1 1 1 1 1 1 1 1 1 2 1 2 0 2 0 2 0 2 0 2 0 2 0 2 0 2 0 2 0 2 0 2 -1 2 -1 2 -1 1 -1 1 -1 1 -1 1 -1 1 -1 1 -1 1 -1 1 -1 1 -1 1 -1 1 -2 1 -2 1 -2 1 -2 1 -2 1 -2 1 -2 1 -2 1 -2 0 -2 0 -2 0 -2 0 -2 0 -2 0zm-943 0l0 -65 29 0 29 0 29 0 29 0 29 0 29 0 29 0 29 0 29 0 29 0 29 0 29 0 29 0 29 0 29 0 29 0 29 0 29 0 29 0 29 0 29 0 29 0 29 0 29 0 29 0 29 0 29 0 29 0 29 0 29 0 29 0 29 0 0 65 -29 0 -29 0 -29 0 -29 0 -29 0 -29 0 -29 0 -29 0 -29 0 -29 0 -29 0 -29 0 -29 0 -29 0 -29 0 -29 0 -29 0 -29 0 -29 0 -29 0 -29 0 -29 0 -29 0 -29 0 -29 0 -29 0 -29 0 -29 0 -29 0 -29 0 -29 0 -29 0zm0 -65l0 65 -2 0 -2 0 -2 0 -2 0 -2 0 -2 0 -2 -1 -2 -1 -2 -1 -2 -1 -2 -1 -2 -1 -2 -1 -2 -1 -1 -1 -1 -1 -1 -1 -1 -1 -1 -1 -1 -1 -1 -1 -1 -1 -1 -1 -1 -1 -1 -1 -1 -2 -1 -2 0 -2 0 -2 0 -2 0 -2 0 -2 0 -2 0 -2 0 -2 0 -2 0 -2 1 -2 1 -2 1 -1 1 -1 1 -1 1 -1 1 -1 1 -1 1 -1 1 -1 1 -1 1 -1 1 -1 2 -1 2 -1 2 -1 2 -1 2 -1 2 -1 2 -1 2 -1 2 0 2 0 2 0 2 0 2 0 2 0z"/>
   </g>
   <g>
    <path class="fil6" d="M6244 4380l0 -65 2 0 2 0 2 0 2 0 2 0 2 0 2 1 2 1 2 1 2 1 2 1 2 1 2 1 2 1 1 1 1 1 1 1 1 1 1 1 1 1 1 1 1 1 1 1 1 1 1 1 1 2 1 2 0 2 0 2 0 2 0 2 0 2 0 2 0 2 0 2 0 2 0 2 -1 2 -1 2 -1 1 -1 1 -1 1 -1 1 -1 1 -1 1 -1 1 -1 1 -1 1 -1 1 -1 1 -2 1 -2 1 -2 1 -2 1 -2 1 -2 1 -2 1 -2 1 -2 0 -2 0 -2 0 -2 0 -2 0 -2 0zm-1374 -65l1374 0 0 65 -1374 0 0 -65zm0 0l0 65 -2 0 -2 0 -2 0 -2 0 -2 0 -2 0 -2 -1 -2 -1 -2 -1 -2 -1 -2 -1 -2 -1 -2 -1 -2 -1 -1 -1 -1 -1 -1 -1 -1 -1 -1 -1 -1 -1 -1 -1 -1 -1 -1 -1 -1 -1 -1 -1 -1 -2 -1 -2 0 -2 0 -2 0 -2 0 -2 0 -2 0 -2 0 -2 0 -2 0 -2 0 -2 1 -2 1 -2 1 -1 1 -1 1 -1 1 -1 1 -1 1 -1 1 -1 1 -1 1 -1 1 -1 1 -1 2 -1 2 -1 2 -1 2 -1 2 -1 2 -1 2 -1 2 -1 2 0 2 0 2 0 2 0 2 0 2 0zm943 -118l0 -65 2 0 2 0 2 0 2 0 2 0 2 0 2 1 2 1 2 1 2 1 2 1 2 1 2 1 2 1 1 1 1 1 1 1 1 1 1 1 1 1 1 1 1 1 1 1 1 1 1 1 1 2 1 2 0 2 0 2 0 2 0 2 0 2 0 2 0 2 0 2 0 2 0 2 -1 2 -1 2 -1 1 -1 1 -1 1 -1 1 -1 1 -1 1 -1 1 -1 1 -1 1 -1 1 -1 1 -2 1 -2 1 -2 1 -2 1 -2 1 -2 1 -2 1 -2 1 -2 0 -2 0 -2 0 -2 0 -2 0 -2 0zm-943 0l0 -65 29 0 29 0 29 0 29 0 29 0 29 0 29 0 29 0 29 0 29 0 29 0 29 0 29 0 29 0 29 0 29 0 29 0 29 0 29 0 29 0 29 0 29 0 29 0 29 0 29 0 29 0 29 0 29 0 29 0 29 0 29 0 29 0 0 65 -29 0 -29 0 -29 0 -29 0 -29 0 -29 0 -29 0 -29 0 -29 0 -29 0 -29 0 -29 0 -29 0 -29 0 -29 0 -29 0 -29 0 -29 0 -29 0 -29 0 -29 0 -29 0 -29 0 -29 0 -29 0 -29 0 -29 0 -29 0 -29 0 -29 0 -29 0 -29 0zm0 -65l0 65 -2 0 -2 0 -2 0 -2 0 -2 0 -2 0 -2 -1 -2 -1 -2 -1 -2 -1 -2 -1 -2 -1 -2 -1 -2 -1 -1 -1 -1 -1 -1 -1 -1 -1 -1 -1 -1 -1 -1 -1 -1 -1 -1 -1 -1 -1 -1 -1 -1 -2 -1 -2 0 -2 0 -2 0 -2 0 -2 0 -2 0 -2 0 -2 0 -2 0 -2 0 -2 1 -2 1 -2 1 -1 1 -1 1 -1 1 -1 1 -1 1 -1 1 -1 1 -1 1 -1 1 -1 1 -1 2 -1 2 -1 2 -1 2 -1 2 -1 2 -1 2 -1 2 -1 2 0 2 0 2 0 2 0 2 0 2 0z"/>
   </g>
   <g>
    <path class="fil6" d="M6244 3792l0 -65 2 0 2 0 2 0 2 0 2 0 2 0 2 1 2 1 2 1 2 1 2 1 2 1 2 1 2 1 1 1 1 1 1 1 1 1 1 1 1 1 1 1 1 1 1 1 1 1 1 1 1 2 1 2 0 2 0 2 0 2 0 2 0 2 0 2 0 2 0 2 0 2 0 2 -1 2 -1 2 -1 1 -1 1 -1 1 -1 1 -1 1 -1 1 -1 1 -1 1 -1 1 -1 1 -1 1 -2 1 -2 1 -2 1 -2 1 -2 1 -2 1 -2 1 -2 1 -2 0 -2 0 -2 0 -2 0 -2 0 -2 0zm-1374 -65l1374 0 0 65 -1374 0 0 -65zm0 0l0 65 -2 0 -2 0 -2 0 -2 0 -2 0 -2 0 -2 -1 -2 -1 -2 -1 -2 -1 -2 -1 -2 -1 -2 -1 -2 -1 -1 -1 -1 -1 -1 -1 -1 -1 -1 -1 -1 -1 -1 -1 -1 -1 -1 -1 -1 -1 -1 -1 -1 -2 -1 -2 0 -2 0 -2 0 -2 0 -2 0 -2 0 -2 0 -2 0 -2 0 -2 0 -2 1 -2 1 -2 1 -1 1 -1 1 -1 1 -1 1 -1 1 -1 1 -1 1 -1 1 -1 1 -1 1 -1 2 -1 2 -1 2 -1 2 -1 2 -1 2 -1 2 -1 2 -1 2 0 2 0 2 0 2 0 2 0 2 0zm943 -118l0 -65 2 0 2 0 2 0 2 0 2 0 2 0 2 1 2 1 2 1 2 1 2 1 2 1 2 1 2 1 1 1 1 1 1 1 1 1 1 1 1 1 1 1 1 1 1 1 1 1 1 1 1 2 1 2 0 2 0 2 0 2 0 2 0 2 0 2 0 2 0 2 0 2 0 2 -1 2 -1 2 -1 1 -1 1 -1 1 -1 1 -1 1 -1 1 -1 1 -1 1 -1 1 -1 1 -1 1 -2 1 -2 1 -2 1 -2 1 -2 1 -2 1 -2 1 -2 1 -2 0 -2 0 -2 0 -2 0 -2 0 -2 0zm-943 0l0 -65 29 0 29 0 29 0 29 0 29 0 29 0 29 0 29 0 29 0 29 0 29 0 29 0 29 0 29 0 29 0 29 0 29 0 29 0 29 0 29 0 29 0 29 0 29 0 29 0 29 0 29 0 29 0 29 0 29 0 29 0 29 0 29 0 0 65 -29 0 -29 0 -29 0 -29 0 -29 0 -29 0 -29 0 -29 0 -29 0 -29 0 -29 0 -29 0 -29 0 -29 0 -29 0 -29 0 -29 0 -29 0 -29 0 -29 0 -29 0 -29 0 -29 0 -29 0 -29 0 -29 0 -29 0 -29 0 -29 0 -29 0 -29 0 -29 0zm0 -65l0 65 -2 0 -2 0 -2 0 -2 0 -2 0 -2 0 -2 -1 -2 -1 -2 -1 -2 -1 -2 -1 -2 -1 -2 -1 -2 -1 -1 -1 -1 -1 -1 -1 -1 -1 -1 -1 -1 -1 -1 -1 -1 -1 -1 -1 -1 -1 -1 -1 -1 -2 -1 -2 0 -2 0 -2 0 -2 0 -2 0 -2 0 -2 0 -2 0 -2 0 -2 0 -2 1 -2 1 -2 1 -1 1 -1 1 -1 1 -1 1 -1 1 -1 1 -1 1 -1 1 -1 1 -1 1 -1 2 -1 2 -1 2 -1 2 -1 2 -1 2 -1 2 -1 2 -1 2 0 2 0 2 0 2 0 2 0 2 0z"/>
   </g>
   <path class="fil6 str2" d="M5156 1318l-19 0c-20,0 -33,10 -33,29 0,5 3,9 9,9 6,0 8,-4 9,-9 1,-8 8,-11 16,-11l18 0c14,0 17,8 17,21l0 20 -32 0c-4,0 -8,3 -8,9 0,6 4,9 8,9l32 0 0 25c0,12 -3,20 -18,20l-18 0c-8,0 -15,-3 -15,-11 0,-5 -3,-9 -9,-9 -7,0 -9,4 -9,9 0,18 14,29 33,29l19 0c24,0 35,-16 35,-37l0 -63c0,-21 -10,-38 -35,-38zm148 124l-41 -59 39 -51c3,-4 3,-9 0,-13 -5,-4 -10,-2 -13,2l-40 55 -12 0 0 -50c0,-5 -3,-9 -9,-9 -7,0 -9,4 -9,9l0 121c0,5 3,9 9,9 6,0 9,-4 9,-9l0 -54 12 0 41 59c3,4 7,6 12,2 5,-4 5,-9 2,-13zm79 -89c0,12 -8,22 -21,22l-7 0c-4,0 -8,3 -8,8 0,6 4,8 8,8l14 0c13,0 18,11 18,22l0 4c0,12 -4,20 -19,20l-14 0c-8,0 -15,-3 -15,-11 0,-5 -3,-9 -9,-9 -7,0 -9,4 -9,9 0,18 14,29 33,29l16 0c23,0 35,-16 35,-37l0 -4c0,-16 -7,-30 -22,-33 13,-6 18,-16 18,-28 0,-21 -10,-35 -36,-35l-8 0c-20,0 -33,10 -33,29 0,5 3,9 9,9 6,0 9,-4 9,-9 0,-8 8,-11 16,-11l7 0c13,0 18,5 18,18zm117 101c4,0 8,-3 8,-9 0,-6 -4,-9 -8,-9l-53 0 0 -43 43 0c4,0 8,-3 8,-9 0,-6 -4,-9 -8,-9l-43 0 0 -39 53 0c4,0 8,-3 8,-9 0,-6 -4,-9 -8,-9l-62 0c-6,0 -9,4 -9,9l0 117c0,5 3,9 9,9l62 0zm82 -60c-1,-4 -3,-7 -5,-11l-30 -59c-3,-5 -5,-7 -9,-7 -6,0 -9,4 -9,9l0 121c0,5 3,9 9,9 6,0 9,-4 9,-9l0 -74c0,-5 0,-10 -1,-13l0 0 27 54c1,3 3,5 8,5 5,0 7,-2 8,-5l27 -54 0 0c0,3 -1,8 -1,13l0 74c0,5 3,9 9,9 6,0 9,-4 9,-9l0 -121c0,-5 -3,-9 -9,-9 -4,0 -6,1 -9,7l-30 59c-2,4 -3,7 -5,11zm146 -57l0 110c0,5 2,9 9,9 6,0 9,-4 9,-9l0 -119c0,-5 -3,-9 -9,-9l-65 0c-6,0 -9,4 -9,9l0 119c0,5 3,9 9,9 6,0 9,-4 9,-9l0 -110 47 0zm74 93c1,-11 11,-93 11,-93l34 0 0 110c0,5 3,9 9,9 6,0 9,-4 9,-9l0 -119c0,-5 -3,-9 -9,-9l-50 0c-6,0 -9,4 -9,9 -1,6 -11,90 -12,97 -1,4 -1,7 -2,9 -2,4 -5,5 -11,5 -5,0 -9,3 -9,9 0,7 4,9 9,9 17,0 24,-5 27,-15 1,-4 2,-7 3,-12zm86 -70c0,14 8,30 23,36 -1,2 -3,4 -5,10 0,0 -15,34 -17,38 -2,4 -1,9 5,12 6,2 10,-1 12,-5 2,-5 22,-52 22,-52l24 0 0 48c0,5 3,9 9,9 6,0 9,-4 9,-9l0 -119c0,-5 -3,-9 -9,-9l-37 0c-24,0 -37,15 -37,35l0 5zm37 21c-13,0 -18,-9 -18,-21l0 -5c0,-11 5,-18 19,-18l28 0 0 45 -29 0zm94 3l0 -48 30 0c13,0 19,7 19,18l0 10c0,12 -6,20 -19,20l-30 0zm30 17c25,0 37,-16 37,-37l0 -10c0,-22 -12,-35 -37,-35l-39 0c-6,0 -9,4 -9,9l0 119c0,5 3,9 9,9 6,0 9,-4 9,-9l0 -45 30 0zm171 -2c0,5 1,11 1,14l0 0 -43 -89c-2,-5 -5,-7 -9,-7 -7,0 -9,4 -9,9l0 121c0,5 3,9 9,9 6,0 9,-4 9,-9l0 -73c0,-5 -1,-11 -1,-14l0 0 43 89c2,5 5,7 9,7 7,0 9,-4 9,-9l0 -121c0,-5 -3,-9 -9,-9 -6,0 -9,4 -9,9l0 73zm49 -41c-6,0 -7,-3 -7,-9l0 -10c0,-5 2,-9 7,-9l3 0c6,0 7,3 7,9l0 10c0,5 -2,9 -7,9l-3 0zm3 13c13,0 20,-9 20,-21l0 -12c0,-12 -6,-20 -20,-20l-3 0c-13,0 -20,9 -20,20l0 12c0,12 6,21 20,21l3 0zm13 23c4,0 7,-2 7,-7 0,-5 -3,-7 -7,-7l-30 0c-4,0 -7,2 -7,7 0,5 3,7 7,7l30 0z"/>
   <path class="fil6 str2" d="M4629 1560c0,-5 -3,-9 -9,-9 -6,0 -9,4 -9,9l0 48 -51 0 0 -48c0,-5 -3,-9 -9,-9 -6,0 -9,4 -9,9l0 121c0,5 3,9 9,9 6,0 9,-4 9,-9l0 -56 51 0 0 56c0,5 2,9 9,9 6,0 9,-4 9,-9l0 -121zm87 90l11 34c2,5 6,7 11,6 5,-2 7,-6 6,-11l-39 -120c-1,-4 -4,-7 -9,-7l-1 0c-5,0 -8,2 -9,7l-39 120c-2,5 1,9 6,11 5,2 10,-1 11,-6l11 -34 42 0zm-24 -58c1,-4 2,-6 3,-11l0 0c1,5 2,7 3,11l13 42 -32 0 13 -42zm125 -5c0,12 -8,22 -21,22l-7 0c-4,0 -8,3 -8,8 0,6 4,8 8,8l14 0c13,0 18,11 18,22l0 4c0,12 -4,20 -19,20l-14 0c-8,0 -15,-3 -15,-11 0,-5 -3,-9 -9,-9 -7,0 -9,4 -9,9 0,18 14,29 33,29l16 0c23,0 35,-16 35,-37l0 -4c0,-16 -7,-30 -22,-33 13,-6 18,-16 18,-28 0,-21 -10,-35 -36,-35l-8 0c-20,0 -33,10 -33,29 0,5 3,9 9,9 6,0 9,-4 9,-9 0,-8 8,-11 16,-11l7 0c13,0 18,5 18,18zm64 41l32 0c13,0 18,9 18,20l0 4c0,12 -5,18 -18,18l-32 0 0 -43zm0 -17l0 -40 23 0c13,0 18,5 18,16l0 5c0,12 -5,20 -18,20l-23 0zm68 37c0,-16 -7,-27 -21,-32 8,-5 13,-14 13,-25l0 -5c0,-22 -12,-33 -37,-33l-32 0c-7,0 -9,4 -9,9l0 117c0,5 3,9 9,9l40 0c24,0 37,-14 37,-35l0 -4zm81 2l11 34c2,5 6,7 11,6 5,-2 7,-6 6,-11l-39 -120c-1,-4 -4,-7 -9,-7l-1 0c-5,0 -8,2 -9,7l-39 120c-2,5 1,9 6,11 5,2 10,-1 11,-6l11 -34 42 0zm-24 -58c1,-4 2,-6 3,-11l0 0c1,5 2,7 3,11l13 42 -32 0 13 -42zm156 -32c0,-5 -3,-9 -9,-9 -6,0 -9,4 -9,9l0 48 -51 0 0 -48c0,-5 -3,-9 -9,-9 -6,0 -9,4 -9,9l0 121c0,5 3,9 9,9 6,0 9,-4 9,-9l0 -56 51 0 0 56c0,5 3,9 9,9 6,0 9,-4 9,-9l0 -121zm98 121c0,5 3,9 9,9 7,0 9,-4 9,-9l0 -121c0,-5 -3,-9 -9,-9 -4,0 -6,1 -9,7l-51 92 0 0c0,-3 1,-8 1,-13l0 -76c0,-5 -3,-9 -9,-9 -7,0 -9,4 -9,9l0 121c0,5 3,9 9,9 4,0 6,-1 9,-7l51 -92 0 0c0,3 -1,8 -1,13l0 76zm118 7c4,0 8,-2 8,-9 0,-6 -4,-9 -8,-9l-53 0 0 -43 43 0c4,0 8,-3 8,-9 0,-6 -4,-9 -8,-9l-43 0 0 -39 53 0c4,0 8,-3 8,-9 0,-6 -4,-9 -8,-9l-62 0c-6,0 -9,4 -9,9l0 117c0,5 3,9 9,9l62 0zm100 -60l32 0c13,0 18,9 18,20l0 4c0,12 -5,18 -18,18l-32 0 0 -43zm0 -17l0 -40 23 0c13,0 18,5 18,16l0 5c0,12 -5,20 -18,20l-23 0zm68 37c0,-16 -7,-27 -21,-32 8,-5 13,-14 13,-25l0 -5c0,-22 -12,-33 -37,-33l-32 0c-7,0 -9,4 -9,9l0 117c0,5 3,9 9,9l40 0c24,0 37,-14 37,-35l0 -4zm137 33l0 -121c0,-5 -3,-9 -9,-9 -6,0 -9,4 -9,9l0 121c0,5 3,9 9,9 6,0 9,-4 9,-9zm-71 -76l-24 0 0 -45c0,-5 -3,-9 -9,-9 -6,0 -9,4 -9,9l0 119c0,5 3,9 9,9l33 0c25,0 37,-16 37,-37l0 -9c0,-22 -12,-37 -37,-37zm19 47c0,12 -5,18 -18,18l-24 0 0 -48 24 0c13,0 19,7 19,18l0 12zm128 -46l-28 0 0 -36 49 0c4,0 8,-3 8,-9 0,-6 -4,-9 -8,-9l-58 0c-7,0 -9,4 -9,9l0 117c0,5 3,9 9,9l37 0c25,0 37,-16 37,-37l0 -9c0,-22 -12,-35 -37,-35zm19 46c0,12 -5,18 -18,18l-28 0 0 -48 28 0c13,0 19,7 19,18l0 12zm58 -63c0,-12 5,-21 18,-21l15 0c13,0 18,9 18,21l0 62c0,12 -5,21 -18,21l-15 0c-13,0 -18,-9 -18,-21l0 -62zm70 0c0,-21 -12,-38 -37,-38l-15 0c-24,0 -37,17 -37,38l0 62c0,21 12,38 37,38l15 0c24,0 37,-17 37,-38l0 -62zm45 28l0 -48 30 0c13,0 19,7 19,18l0 10c0,12 -6,20 -19,20l-30 0zm30 17c25,0 37,-16 37,-37l0 -10c0,-22 -12,-35 -37,-35l-39 0c-6,0 -9,4 -9,9l0 119c0,5 3,9 9,9 6,0 9,-4 9,-9l0 -45 30 0zm76 -46c0,-12 5,-21 18,-21l15 0c13,0 18,9 18,21l0 62c0,12 -5,21 -18,21l-15 0c-13,0 -18,-9 -18,-21l0 -62zm70 0c0,-21 -12,-38 -37,-38l-15 0c-24,0 -37,17 -37,38l0 62c0,21 12,38 37,38l15 0c24,0 37,-17 37,-38l0 -62zm45 38l32 0c13,0 18,9 18,20l0 4c0,12 -5,18 -18,18l-32 0 0 -43zm0 -17l0 -40 23 0c13,0 18,5 18,16l0 5c0,12 -5,20 -18,20l-23 0zm68 37c0,-16 -7,-27 -21,-32 8,-5 13,-14 13,-25l0 -5c0,-22 -12,-33 -37,-33l-32 0c-7,0 -9,4 -9,9l0 117c0,5 3,9 9,9l40 0c24,0 37,-14 37,-35l0 -4z"/>
   <path class="fil6 str2" d="M4630 2137l-4 0 0 -108c0,-5 -3,-9 -9,-9l-46 0c-6,0 -9,4 -10,9l-17 108 -6 0c-6,0 -9,4 -9,9l0 25c0,5 3,9 9,9 7,0 9,-4 9,-9l0 -16 73 0 0 16c0,5 3,9 9,9 6,0 9,-4 9,-9l0 -25c0,-5 -3,-9 -9,-9zm-66 -13l13 -87 31 0 0 100 -47 0c1,-5 2,-9 3,-13zm152 -7l11 34c2,5 6,7 11,6 5,-2 7,-6 6,-11l-39 -120c-1,-4 -4,-7 -9,-7l-1 0c-5,0 -8,2 -9,7l-39 120c-2,5 1,9 6,11 5,2 10,-1 11,-6l11 -34 42 0zm-24 -58c1,-4 2,-6 3,-11l0 0c1,5 2,7 3,11l13 42 -32 0 13 -42zm102 98c6,0 9,-4 9,-9l0 -110 28 0c4,0 8,-3 8,-9 0,-6 -4,-9 -8,-9l-74 0c-4,0 -8,3 -8,9 0,6 4,9 8,9l28 0 0 110c0,5 3,9 9,9zm120 -40l11 34c2,5 6,7 11,6 5,-2 7,-6 6,-11l-39 -120c-1,-4 -4,-7 -9,-7l-1 0c-5,0 -8,2 -9,7l-39 120c-2,5 1,9 6,11 5,2 10,-1 11,-6l11 -34 42 0zm-24 -58c1,-4 2,-6 3,-11l0 0c1,5 2,7 3,11l13 42 -32 0 13 -42zm182 -39c-7,0 -10,4 -10,9l0 119c0,5 3,9 9,9 6,0 9,-4 9,-9l0 -110 52 0c4,0 8,-3 8,-9 0,-6 -4,-9 -7,-9l-61 0zm101 37c0,-12 5,-21 18,-21l15 0c13,0 18,9 18,21l0 62c0,12 -5,21 -18,21l-15 0c-13,0 -18,-9 -18,-21l0 -62zm70 0c0,-21 -12,-38 -37,-38l-15 0c-24,0 -37,17 -37,38l0 62c0,21 12,38 37,38l15 0c24,0 37,-17 37,-38l0 -62zm54 74c1,-11 11,-93 11,-93l34 0 0 110c0,5 3,9 9,9 6,0 9,-4 9,-9l0 -119c0,-5 -3,-9 -9,-9l-50 0c-6,0 -9,4 -9,9 -1,6 -11,90 -12,97 -1,4 -1,7 -2,9 -2,4 -5,5 -11,5 -5,0 -9,3 -9,9 0,7 4,9 9,9 17,0 24,-5 27,-15 1,-4 2,-7 3,-12zm108 -74c0,-12 5,-21 18,-21l15 0c13,0 18,9 18,21l0 62c0,12 -5,21 -18,21l-15 0c-13,0 -18,-9 -18,-21l0 -62zm70 0c0,-21 -12,-38 -37,-38l-15 0c-24,0 -37,17 -37,38l0 62c0,21 12,38 37,38l15 0c24,0 37,-17 37,-38l0 -62zm62 83c-13,0 -18,-9 -18,-21l0 -62c0,-12 5,-21 18,-21l20 0c8,0 13,3 13,11 0,5 3,9 9,9 7,0 9,-4 9,-9 0,-20 -12,-29 -32,-29l-20 0c-24,0 -37,17 -37,38l0 62c0,21 12,38 37,38l20 0c20,0 32,-9 32,-29 0,-5 -3,-9 -9,-9 -6,0 -8,4 -9,9 -1,8 -5,11 -13,11l-20 0zm90 -83c0,-12 5,-21 18,-21l15 0c13,0 18,9 18,21l0 62c0,12 -5,21 -18,21l-15 0c-13,0 -18,-9 -18,-21l0 -62zm70 0c0,-21 -12,-38 -37,-38l-15 0c-24,0 -37,17 -37,38l0 62c0,21 12,38 37,38l15 0c24,0 37,-17 37,-38l0 -62zm45 38l32 0c13,0 18,9 18,20l0 4c0,12 -5,18 -18,18l-32 0 0 -43zm0 -17l0 -40 23 0c13,0 18,5 18,16l0 5c0,12 -5,20 -18,20l-23 0zm68 37c0,-16 -7,-27 -21,-32 8,-5 13,-14 13,-25l0 -5c0,-22 -12,-33 -37,-33l-32 0c-7,0 -9,4 -9,9l0 117c0,5 3,9 9,9l40 0c24,0 37,-14 37,-35l0 -4zm81 2l11 34c2,5 6,7 11,6 5,-2 7,-6 6,-11l-39 -120c-1,-4 -4,-7 -9,-7l-1 0c-5,0 -8,2 -9,7l-39 120c-2,5 1,9 6,11 5,2 10,-1 11,-6l11 -34 42 0zm-24 -58c1,-4 2,-6 3,-11l0 0c1,5 2,7 3,11l13 42 -32 0 13 -42zm156 -32c0,-5 -3,-9 -9,-9 -6,0 -9,4 -9,9l0 48 -51 0 0 -48c0,-5 -3,-9 -9,-9 -6,0 -9,4 -9,9l0 121c0,5 3,9 9,9 6,0 9,-4 9,-9l0 -56 51 0 0 56c0,5 3,9 9,9 6,0 9,-4 9,-9l0 -121zm98 121c0,5 3,9 9,9 7,0 9,-4 9,-9l0 -121c0,-5 -3,-9 -9,-9 -4,0 -6,1 -9,7l-51 92 0 0c0,-3 1,-8 1,-13l0 -76c0,-5 -3,-9 -9,-9 -7,0 -9,4 -9,9l0 121c0,5 3,9 9,9 4,0 6,-1 9,-7l51 -92 0 0c0,3 -1,8 -1,13l0 76zm40 -87c0,14 8,30 23,36 -1,2 -3,4 -5,10 0,0 -15,34 -17,38 -2,4 -1,9 5,12 6,2 10,-1 12,-5 2,-5 22,-52 22,-52l24 0 0 48c0,5 3,9 9,9 6,0 9,-4 9,-9l0 -119c0,-5 -3,-9 -9,-9l-37 0c-24,0 -37,15 -37,35l0 5zm37 21c-13,0 -18,-9 -18,-21l0 -5c0,-11 5,-18 19,-18l28 0 0 45 -29 0z"/>
   <path class="fil6 str2" d="M5420 2914c-6,-2 -10,2 -11,6 0,0 -9,37 -17,66 -1,0 -8,0 -14,0 -7,0 -10,-4 -12,-8 -3,-10 -15,-58 -15,-58 -1,-4 -5,-8 -11,-6 -6,2 -8,7 -7,11 0,0 11,43 15,56 3,13 9,23 32,23 3,0 6,0 6,0l1 0c-3,11 -6,20 -7,21 -3,6 -10,8 -15,8l-7 0c-5,0 -9,3 -9,9 0,6 4,9 9,9l7 0c13,0 24,-4 31,-19 3,-7 4,-9 6,-17 2,-8 24,-89 24,-89 1,-4 0,-9 -7,-11zm60 79l24 0 0 50c0,5 3,9 9,9 6,0 9,-4 9,-9l0 -121c0,-5 -3,-9 -9,-9 -6,0 -9,4 -9,9l0 53c0,0 -19,0 -27,0 -11,0 -17,-7 -17,-17 0,-8 0,-37 0,-37 0,-5 -3,-9 -9,-9 -6,0 -9,4 -9,9l0 35c0,21 9,36 38,36zm129 19l11 34c2,5 6,7 11,6 5,-2 7,-6 6,-11l-39 -120c-1,-4 -4,-7 -9,-7l-1 0c-5,0 -8,2 -9,7l-39 120c-2,5 1,9 6,11 5,2 10,-1 11,-6l11 -34 42 0zm-24 -58c1,-4 2,-6 3,-11l0 0c1,5 2,7 3,11l13 42 -32 0 13 -42zm103 81c-13,0 -18,-9 -18,-21l0 -62c0,-12 5,-21 18,-21l20 0c8,0 13,3 13,11 0,5 3,9 9,9 7,0 9,-4 9,-9 0,-20 -12,-29 -32,-29l-20 0c-24,0 -37,17 -37,38l0 62c0,21 12,38 37,38l20 0c20,0 32,-9 32,-29 0,-5 -3,-9 -9,-9 -6,0 -8,4 -9,9 -1,8 -5,11 -13,11l-20 0zm107 17c6,0 9,-4 9,-9l0 -110 28 0c4,0 8,-3 8,-9 0,-6 -4,-9 -8,-9l-74 0c-4,0 -8,3 -8,9 0,6 4,9 8,9l28 0 0 110c0,5 3,9 9,9zm79 -100c0,-12 5,-21 18,-21l15 0c13,0 18,9 18,21l0 62c0,12 -5,21 -18,21l-15 0c-13,0 -18,-9 -18,-21l0 -62zm70 0c0,-21 -12,-38 -37,-38l-15 0c-24,0 -37,17 -37,38l0 62c0,21 12,38 37,38l15 0c24,0 37,-17 37,-38l0 -62zm113 86l-41 -59 39 -51c3,-4 3,-9 0,-13 -5,-4 -10,-2 -13,2l-40 55 -12 0 0 -50c0,-5 -3,-9 -9,-9 -7,0 -9,4 -9,9l0 121c0,5 3,9 9,9 6,0 9,-4 9,-9l0 -54 12 0 41 59c3,4 7,6 13,3 5,-4 5,-9 2,-13zm134 -42c0,5 1,11 1,14l0 0 -43 -89c-2,-5 -5,-7 -9,-7 -7,0 -9,4 -9,9l0 121c0,5 3,9 9,9 6,0 9,-4 9,-9l0 -73c0,-5 -1,-11 -1,-14l0 0 43 89c2,5 5,7 9,7 7,0 9,-4 9,-9l0 -121c0,-5 -3,-9 -9,-9 -6,0 -9,4 -9,9l0 73zm49 -41c-6,0 -7,-3 -7,-9l0 -10c0,-5 2,-9 7,-9l3 0c6,0 7,3 7,9l0 10c0,5 -2,9 -7,9l-3 0zm3 13c13,0 20,-9 20,-21l0 -12c0,-12 -6,-20 -20,-20l-3 0c-13,0 -20,9 -20,20l0 12c0,12 6,21 20,21l3 0zm13 23c4,0 7,-2 7,-7 0,-5 -3,-7 -7,-7l-30 0c-4,0 -7,2 -7,7 0,5 3,7 7,7l30 0z"/>
   <path class="fil6 str2" d="M4600 3259l11 34c2,5 6,7 11,6 5,-2 7,-6 6,-11l-39 -120c-1,-4 -4,-7 -9,-7l-1 0c-5,0 -8,2 -9,7l-39 120c-2,5 1,9 6,11 5,2 10,-1 11,-6l11 -34 42 0zm-24 -58c1,-4 2,-6 3,-11l0 0c1,5 2,7 3,11l13 42 -32 0 13 -42zm157 79l-4 0 0 -108c0,-5 -3,-9 -9,-9l-46 0c-6,0 -9,4 -10,9l-17 108 -6 0c-6,0 -9,4 -9,9l0 25c0,5 3,9 9,9 7,0 9,-4 9,-9l0 -16 73 0 0 16c0,5 3,9 9,9 6,0 9,-4 9,-9l0 -25c0,-5 -3,-9 -9,-9zm-66 -13l13 -87 31 0 0 100 -47 0c1,-5 2,-9 3,-13zm113 -39l0 -48 30 0c13,0 19,7 19,18l0 10c0,12 -6,20 -19,20l-30 0zm30 17c25,0 37,-16 37,-37l0 -10c0,-22 -12,-35 -37,-35l-39 0c-6,0 -9,4 -9,9l0 119c0,5 3,9 9,9 6,0 9,-4 9,-9l0 -45 30 0zm130 52c4,0 8,-3 8,-9 0,-6 -4,-9 -8,-9l-53 0 0 -43 43 0c4,0 8,-3 8,-9 0,-6 -4,-9 -8,-9l-43 0 0 -39 53 0c4,0 8,-3 8,-9 0,-6 -4,-9 -8,-9l-62 0c-6,0 -9,4 -9,9l0 117c0,5 3,9 9,9l62 0zm65 -15c-13,0 -18,-9 -18,-21l0 -62c0,-12 5,-21 18,-21l20 0c8,0 13,3 13,11 0,5 3,9 9,9 7,0 9,-4 9,-9 0,-20 -12,-29 -32,-29l-20 0c-24,0 -37,17 -37,38l0 62c0,21 12,38 37,38l20 0c20,0 32,-9 32,-29 0,-5 -3,-9 -9,-9 -6,0 -8,4 -9,9 -1,8 -5,11 -13,11l-20 0zm201 -121c-6,-2 -10,2 -11,6 0,0 -9,37 -17,66 -1,0 -8,0 -14,0 -7,0 -10,-4 -12,-8 -3,-10 -15,-58 -15,-58 -1,-4 -5,-8 -11,-6 -6,2 -8,7 -7,11 0,0 11,43 15,56 3,13 9,23 32,23 3,0 6,0 6,0l1 0c-3,11 -6,20 -7,21 -3,6 -10,8 -15,8l-7 0c-5,0 -9,3 -9,9 0,6 4,9 9,9l7 0c13,0 24,-4 31,-19 3,-7 4,-9 6,-17 2,-8 24,-89 24,-89 1,-4 0,-9 -7,-11zm94 129c0,5 2,9 9,9 7,0 9,-4 9,-9l0 -121c0,-5 -3,-9 -9,-9 -4,0 -6,1 -9,7l-51 92 0 0c0,-3 1,-8 1,-13l0 -76c0,-5 -3,-9 -9,-9 -7,0 -9,4 -9,9l0 121c0,5 3,9 9,9 4,0 6,-1 9,-7l51 -92 0 0c0,3 -1,8 -1,13l0 76zm133 -5l-41 -59 39 -51c3,-4 3,-9 0,-13 -5,-4 -10,-2 -13,2l-40 55 -12 0 0 -50c0,-5 -3,-9 -9,-9 -7,0 -9,4 -9,9l0 121c0,5 3,9 9,9 6,0 9,-4 9,-9l0 -54 12 0 41 59c3,4 7,6 13,3 5,-4 5,-9 2,-13z"/>
   <g>
    <path class="fil6" d="M6244 5558l0 -65 2 0 2 0 2 0 2 0 2 0 2 0 2 1 2 1 2 1 2 1 2 1 2 1 2 1 2 1 1 1 1 1 1 1 1 1 1 1 1 1 1 1 1 1 1 1 1 1 1 1 1 2 1 2 0 2 0 2 0 2 0 2 0 2 0 2 0 2 0 2 0 2 0 2 -1 2 -1 2 -1 1 -1 1 -1 1 -1 1 -1 1 -1 1 -1 1 -1 1 -1 1 -1 1 -1 1 -2 1 -2 1 -2 1 -2 1 -2 1 -2 1 -2 1 -2 1 -2 0 -2 0 -2 0 -2 0 -2 0 -2 0zm-1374 -65l1374 0 0 65 -1374 0 0 -65zm0 0l0 65 -2 0 -2 0 -2 0 -2 0 -2 0 -2 0 -2 -1 -2 -1 -2 -1 -2 -1 -2 -1 -2 -1 -2 -1 -2 -1 -1 -1 -1 -1 -1 -1 -1 -1 -1 -1 -1 -1 -1 -1 -1 -1 -1 -1 -1 -1 -1 -1 -1 -2 -1 -2 0 -2 0 -2 0 -2 0 -2 0 -2 0 -2 0 -2 0 -2 0 -2 0 -2 1 -2 1 -2 1 -1 1 -1 1 -1 1 -1 1 -1 1 -1 1 -1 1 -1 1 -1 1 -1 1 -1 2 -1 2 -1 2 -1 2 -1 2 -1 2 -1 2 -1 2 -1 2 0 2 0 2 0 2 0 2 0 2 0zm943 -118l0 -65 2 0 2 0 2 0 2 0 2 0 2 0 2 1 2 1 2 1 2 1 2 1 2 1 2 1 2 1 1 1 1 1 1 1 1 1 1 1 1 1 1 1 1 1 1 1 1 1 1 1 1 2 1 2 0 2 0 2 0 2 0 2 0 2 0 2 0 2 0 2 0 2 0 2 -1 2 -1 2 -1 1 -1 1 -1 1 -1 1 -1 1 -1 1 -1 1 -1 1 -1 1 -1 1 -1 1 -2 1 -2 1 -2 1 -2 1 -2 1 -2 1 -2 1 -2 1 -2 0 -2 0 -2 0 -2 0 -2 0 -2 0zm-943 0l0 -65 29 0 29 0 29 0 29 0 29 0 29 0 29 0 29 0 29 0 29 0 29 0 29 0 29 0 29 0 29 0 29 0 29 0 29 0 29 0 29 0 29 0 29 0 29 0 29 0 29 0 29 0 29 0 29 0 29 0 29 0 29 0 29 0 0 65 -29 0 -29 0 -29 0 -29 0 -29 0 -29 0 -29 0 -29 0 -29 0 -29 0 -29 0 -29 0 -29 0 -29 0 -29 0 -29 0 -29 0 -29 0 -29 0 -29 0 -29 0 -29 0 -29 0 -29 0 -29 0 -29 0 -29 0 -29 0 -29 0 -29 0 -29 0 -29 0zm0 -65l0 65 -2 0 -2 0 -2 0 -2 0 -2 0 -2 0 -2 -1 -2 -1 -2 -1 -2 -1 -2 -1 -2 -1 -2 -1 -2 -1 -1 -1 -1 -1 -1 -1 -1 -1 -1 -1 -1 -1 -1 -1 -1 -1 -1 -1 -1 -1 -1 -1 -1 -2 -1 -2 0 -2 0 -2 0 -2 0 -2 0 -2 0 -2 0 -2 0 -2 0 -2 0 -2 1 -2 1 -2 1 -1 1 -1 1 -1 1 -1 1 -1 1 -1 1 -1 1 -1 1 -1 1 -1 1 -1 2 -1 2 -1 2 -1 2 -1 2 -1 2 -1 2 -1 2 -1 2 0 2 0 2 0 2 0 2 0 2 0z"/>
   </g>
   <path class="fil7 str3" d="M6991 4499c0,-25 9,-41 29,-41l9 0c20,0 29,16 29,41l0 55c0,25 -9,41 -29,41l-9 0c-20,0 -29,-16 -29,-41l0 -55zm91 0c0,-39 -18,-64 -53,-64l-9 0c-35,0 -53,25 -53,64l0 55c0,39 18,64 53,64l9 0c35,0 53,-25 53,-64l0 -55zm185 0c0,-25 9,-41 29,-41l9 0c20,0 29,16 29,41l0 55c0,25 -9,41 -29,41l-9 0c-20,0 -29,-16 -29,-41l0 -55zm91 0c0,-39 -18,-64 -53,-64l-9 0c-35,0 -53,25 -53,64l0 55c0,39 18,64 53,64l9 0c35,0 53,-25 53,-64l0 -55zm221 -64c-4,0 -7,2 -9,4 -12,14 -26,27 -41,41 -5,4 -6,10 0,16 6,6 11,4 16,0 9,-8 19,-17 26,-27l0 124 -32 0c-6,0 -11,3 -11,11 0,8 5,11 11,11l82 0c6,0 11,-3 11,-11 0,-8 -5,-11 -11,-11l-27 0 0 -146c0,-7 -2,-12 -11,-12l-4 0zm240 64c0,-25 9,-41 29,-41l9 0c20,0 29,16 29,41l0 55c0,25 -9,41 -29,41l-9 0c-20,0 -29,-16 -29,-41l0 -55zm92 0c0,-39 -18,-64 -53,-64l-9 0c-35,0 -53,25 -53,64l0 55c0,39 18,64 53,64l9 0c35,0 53,-25 53,-64l0 -55zm284 94l-5 0 0 -143c0,-6 -4,-12 -12,-12l-61 0c-8,0 -12,5 -13,12l-23 143 -8 0c-8,0 -12,6 -12,12l0 33c0,6 4,12 12,12 9,0 12,-6 12,-12l0 -22 97 0 0 22c0,6 4,12 12,12 8,0 12,-6 12,-12l0 -33c0,-6 -4,-12 -12,-12zm-87 -18l18 -115 41 0 0 132 -62 0c2,-6 3,-12 4,-18zm223 -48c0,-28 -15,-46 -47,-46l-8 0c-32,0 -47,18 -47,46l0 39c0,28 16,50 48,50l33 0c6,0 11,-3 11,-11 0,-8 -5,-11 -11,-11l-33 0c-17,0 -25,-12 -25,-28l0 -6 67 0c6,0 11,-4 11,-11l0 -21zm-79 11l0 -11c0,-15 7,-25 24,-25l8 0c17,0 24,10 24,25l0 11 -56 0zm155 58c-17,0 -25,-12 -25,-28l0 -41c0,-15 7,-24 24,-24l12 0c10,0 18,5 18,12 0,7 3,12 11,12 8,0 11,-5 11,-12 0,-23 -16,-34 -40,-34l-12 0c-32,0 -47,18 -47,46l0 41c0,29 16,50 48,50l11 0c25,0 40,-11 40,-34 0,-7 -3,-12 -11,-12 -8,0 -11,5 -11,12 0,8 -7,12 -18,12l-11 0zm163 -113l-48 0c-23,0 -38,16 -38,39l0 4c0,19 10,31 25,37l-25 39c-3,5 -2,10 5,14 7,4 12,1 16,-4l27 -46 28 0 0 40c0,6 3,12 11,12 9,0 12,-6 12,-12l0 -112c0,-6 -4,-11 -12,-11zm-11 62l-31 0c-16,0 -21,-9 -21,-20l0 -3c0,-9 6,-17 18,-17l34 0 0 42 0 -1zm144 -62l-84 0c-6,0 -11,3 -11,11 0,8 5,11 11,11l31 0 0 101c0,6 3,12 11,12 8,0 11,-6 11,-12l0 -101 31 0c6,0 11,-3 11,-11 0,-8 -5,-11 -11,-11zm59 43l0 -34c0,-6 -3,-12 -11,-12 -9,0 -12,6 -12,12l0 112c0,6 4,11 12,11l48 0c23,0 38,-16 38,-39l0 -8c0,-26 -18,-42 -44,-42l-31 0zm52 51c0,9 -6,17 -18,17l-34 0 0 -46 31 0c16,0 21,10 21,21l0 7z"/>
   <g>
    <path class="fil6" d="M6918 4381l-27 0 0 -1 0 -1 0 -1 0 -1 0 -1 0 -1 0 -1 0 -1 0 -1 0 -1 0 0 0 0 0 0 0 0 0 0 0 0 0 0 1 0 1 0 1 0 1 0 1 0 1 0 1 0 1 0 1 0 1 0 1 0 1 0 1 0 1 0 1 0 1 0 1 0 1 0 1 0 1 0 1 0 1 0 1 0 1 0 1 0 1 0 1 0 1 0 1 0 1 0 0 0 0 0 0 0 0 0 0 0 0 0 0 0 0 1 0 1 0 1 0 1 0 1 0 1 0 1 0 1 0 1 0 1zm-27 293l0 -293 27 0 0 293 -27 0zm0 0l27 0 0 1 0 1 0 1 0 1 0 1 0 1 0 1 0 1 0 1 0 1 0 0 0 0 0 0 0 0 0 0 0 0 0 0 -1 0 -1 0 -1 0 -1 0 -1 0 -1 0 -1 0 -1 0 -1 0 -1 0 -1 0 -1 0 -1 0 -1 0 -1 0 -1 0 -1 0 -1 0 -1 0 -1 0 -1 0 -1 0 -1 0 -1 0 -1 0 -1 0 -1 0 -1 0 -1 0 -1 0 0 0 0 0 0 0 0 0 0 0 0 0 0 0 0 -1 0 -1 0 -1 0 -1 0 -1 0 -1 0 -1 0 -1 0 -1 0 -1zm14 14l0 23 -1 0 -1 0 -1 0 -1 0 -1 0 -1 0 -1 0 -1 0 -1 0 -1 0 -1 0 -1 0 -1 0 -1 0 -1 0 0 0 0 0 0 0 0 0 0 0 0 0 0 0 0 -1 0 -1 0 -1 0 -1 0 -1 0 -1 0 -1 0 -1 0 -1 0 -1 0 -1 0 -1 0 -1 0 -1 0 -1 0 -1 0 -1 0 -1 0 -1 0 -1 0 0 0 0 0 0 0 0 0 0 0 0 0 0 1 0 1 0 1 0 1 0 1 0 1 0 1 0 1 0 1 0 1 0 1 0 1 0 1 0 1 0 1 0zm2009 23l-2009 0 0 -23 2009 0 0 23zm0 0l0 -23 1 0 1 0 1 0 1 0 1 0 1 0 1 0 1 0 1 0 1 0 1 0 1 0 1 0 1 0 1 0 0 0 0 0 0 0 0 0 0 0 0 0 0 0 0 1 0 1 0 1 0 1 0 1 0 1 0 1 0 1 0 1 0 1 0 1 0 1 0 1 0 1 0 1 0 1 0 1 0 1 0 1 0 1 0 0 0 0 0 0 0 0 0 0 0 0 0 0 -1 0 -1 0 -1 0 -1 0 -1 0 -1 0 -1 0 -1 0 -1 0 -1 0 -1 0 -1 0 -1 0 -1 0 -1 0zm-2009 -369l0 23 -1 0 -1 0 -1 0 -1 0 -1 0 -1 0 -1 0 -1 0 -1 0 -1 0 -1 0 -1 0 -1 0 -1 0 -1 0 0 0 0 0 0 0 0 0 0 0 0 0 0 0 0 -1 0 -1 0 -1 0 -1 0 -1 0 -1 0 -1 0 -1 0 -1 0 -1 0 -1 0 -1 0 -1 0 -1 0 -1 0 -1 0 -1 0 -1 0 -1 0 -1 0 0 0 0 0 0 0 0 0 0 0 0 0 0 1 0 1 0 1 0 1 0 1 0 1 0 1 0 1 0 1 0 1 0 1 0 1 0 1 0 1 0 1 0zm2009 23l-2009 0 0 -23 2009 0 0 23zm0 0l0 -23 1 0 1 0 1 0 1 0 1 0 1 0 1 0 1 0 1 0 1 0 1 0 1 0 1 0 1 0 1 0 0 0 0 0 0 0 0 0 0 0 0 0 0 0 0 1 0 1 0 1 0 1 0 1 0 1 0 1 0 1 0 1 0 1 0 1 0 1 0 1 0 1 0 1 0 1 0 1 0 1 0 1 0 1 0 0 0 0 0 0 0 0 0 0 0 0 0 0 -1 0 -1 0 -1 0 -1 0 -1 0 -1 0 -1 0 -1 0 -1 0 -1 0 -1 0 -1 0 -1 0 -1 0 -1 0zm15 14l-27 0 0 -1 0 -1 0 -1 0 -1 0 -1 0 -1 0 -1 0 -1 0 -1 0 -1 0 0 0 0 0 0 0 0 0 0 0 0 0 0 1 0 1 0 1 0 1 0 1 0 1 0 1 0 1 0 1 0 1 0 1 0 1 0 1 0 1 0 1 0 1 0 1 0 1 0 1 0 1 0 1 0 1 0 1 0 1 0 1 0 1 0 1 0 1 0 1 0 1 0 0 0 0 0 0 0 0 0 0 0 0 0 0 0 0 1 0 1 0 1 0 1 0 1 0 1 0 1 0 1 0 1 0 1zm-27 293l0 -293 27 0 0 293 -27 0zm0 0l27 0 0 1 0 1 0 1 0 1 0 1 0 1 0 1 0 1 0 1 0 1 0 0 0 0 0 0 0 0 0 0 0 0 0 0 -1 0 -1 0 -1 0 -1 0 -1 0 -1 0 -1 0 -1 0 -1 0 -1 0 -1 0 -1 0 -1 0 -1 0 -1 0 -1 0 -1 0 -1 0 -1 0 -1 0 -1 0 -1 0 -1 0 -1 0 -1 0 -1 0 -1 0 -1 0 -1 0 -1 0 0 0 0 0 0 0 0 0 0 0 0 0 0 0 0 -1 0 -1 0 -1 0 -1 0 -1 0 -1 0 -1 0 -1 0 -1 0 -1zm-950 -293l-27 0 0 -1 0 -1 0 -1 0 -1 0 -1 0 -1 0 -1 0 -1 0 -1 0 -1 0 0 0 0 0 0 0 0 0 0 0 0 0 0 1 0 1 0 1 0 1 0 1 0 1 0 1 0 1 0 1 0 1 0 1 0 1 0 1 0 1 0 1 0 1 0 1 0 1 0 1 0 1 0 1 0 1 0 1 0 1 0 1 0 1 0 1 0 1 0 1 0 1 0 0 0 0 0 0 0 0 0 0 0 0 0 0 0 0 1 0 1 0 1 0 1 0 1 0 1 0 1 0 1 0 1 0 1zm-27 293l0 -293 27 0 0 293 -27 0zm0 0l27 0 0 1 0 1 0 1 0 1 0 1 0 1 0 1 0 1 0 1 0 1 0 0 0 0 0 0 0 0 0 0 0 0 0 0 -1 0 -1 0 -1 0 -1 0 -1 0 -1 0 -1 0 -1 0 -1 0 -1 0 -1 0 -1 0 -1 0 -1 0 -1 0 -1 0 -1 0 -1 0 -1 0 -1 0 -1 0 -1 0 -1 0 -1 0 -1 0 -1 0 -1 0 -1 0 -1 0 -1 0 0 0 0 0 0 0 0 0 0 0 0 0 0 0 0 -1 0 -1 0 -1 0 -1 0 -1 0 -1 0 -1 0 -1 0 -1 0 -1zm-231 -293l-27 0 0 -1 0 -1 0 -1 0 -1 0 -1 0 -1 0 -1 0 -1 0 -1 0 -1 0 0 0 0 0 0 0 0 0 0 0 0 0 0 1 0 1 0 1 0 1 0 1 0 1 0 1 0 1 0 1 0 1 0 1 0 1 0 1 0 1 0 1 0 1 0 1 0 1 0 1 0 1 0 1 0 1 0 1 0 1 0 1 0 1 0 1 0 1 0 1 0 1 0 0 0 0 0 0 0 0 0 0 0 0 0 0 0 0 1 0 1 0 1 0 1 0 1 0 1 0 1 0 1 0 1 0 1zm-27 293l0 -293 27 0 0 293 -27 0zm0 0l27 0 0 1 0 1 0 1 0 1 0 1 0 1 0 1 0 1 0 1 0 1 0 0 0 0 0 0 0 0 0 0 0 0 0 0 -1 0 -1 0 -1 0 -1 0 -1 0 -1 0 -1 0 -1 0 -1 0 -1 0 -1 0 -1 0 -1 0 -1 0 -1 0 -1 0 -1 0 -1 0 -1 0 -1 0 -1 0 -1 0 -1 0 -1 0 -1 0 -1 0 -1 0 -1 0 -1 0 -1 0 0 0 0 0 0 0 0 0 0 0 0 0 0 0 0 -1 0 -1 0 -1 0 -1 0 -1 0 -1 0 -1 0 -1 0 -1 0 -1zm-231 -293l-27 0 0 -1 0 -1 0 -1 0 -1 0 -1 0 -1 0 -1 0 -1 0 -1 0 -1 0 0 0 0 0 0 0 0 0 0 0 0 0 0 1 0 1 0 1 0 1 0 1 0 1 0 1 0 1 0 1 0 1 0 1 0 1 0 1 0 1 0 1 0 1 0 1 0 1 0 1 0 1 0 1 0 1 0 1 0 1 0 1 0 1 0 1 0 1 0 1 0 1 0 0 0 0 0 0 0 0 0 0 0 0 0 0 0 0 1 0 1 0 1 0 1 0 1 0 1 0 1 0 1 0 1 0 1zm-27 293l0 -293 27 0 0 293 -27 0zm0 0l27 0 0 1 0 1 0 1 0 1 0 1 0 1 0 1 0 1 0 1 0 1 0 0 0 0 0 0 0 0 0 0 0 0 0 0 -1 0 -1 0 -1 0 -1 0 -1 0 -1 0 -1 0 -1 0 -1 0 -1 0 -1 0 -1 0 -1 0 -1 0 -1 0 -1 0 -1 0 -1 0 -1 0 -1 0 -1 0 -1 0 -1 0 -1 0 -1 0 -1 0 -1 0 -1 0 -1 0 -1 0 0 0 0 0 0 0 0 0 0 0 0 0 0 0 0 -1 0 -1 0 -1 0 -1 0 -1 0 -1 0 -1 0 -1 0 -1 0 -1zm-231 -293l-27 0 0 -1 0 -1 0 -1 0 -1 0 -1 0 -1 0 -1 0 -1 0 -1 0 -1 0 0 0 0 0 0 0 0 0 0 0 0 0 0 1 0 1 0 1 0 1 0 1 0 1 0 1 0 1 0 1 0 1 0 1 0 1 0 1 0 1 0 1 0 1 0 1 0 1 0 1 0 1 0 1 0 1 0 1 0 1 0 1 0 1 0 1 0 1 0 1 0 1 0 0 0 0 0 0 0 0 0 0 0 0 0 0 0 0 1 0 1 0 1 0 1 0 1 0 1 0 1 0 1 0 1 0 1zm-27 293l0 -293 27 0 0 293 -27 0zm0 0l27 0 0 1 0 1 0 1 0 1 0 1 0 1 0 1 0 1 0 1 0 1 0 0 0 0 0 0 0 0 0 0 0 0 0 0 -1 0 -1 0 -1 0 -1 0 -1 0 -1 0 -1 0 -1 0 -1 0 -1 0 -1 0 -1 0 -1 0 -1 0 -1 0 -1 0 -1 0 -1 0 -1 0 -1 0 -1 0 -1 0 -1 0 -1 0 -1 0 -1 0 -1 0 -1 0 -1 0 -1 0 0 0 0 0 0 0 0 0 0 0 0 0 0 0 0 -1 0 -1 0 -1 0 -1 0 -1 0 -1 0 -1 0 -1 0 -1 0 -1z"/>
   </g>
   <g>
    <path class="fil7" d="M6810 4548l0 -24 1 0 1 0 1 0 1 0 1 0 1 0 1 0 1 0 1 0 1 0 1 0 1 0 1 0 1 0 0 0 0 0 0 0 0 0 0 0 0 0 0 0 0 1 0 1 0 1 0 1 0 1 0 1 0 1 0 1 0 1 0 1 0 1 0 1 0 1 0 1 0 1 0 1 0 1 0 1 0 1 0 1 0 1 0 1 0 0 0 0 0 0 0 0 0 0 0 0 0 0 -1 0 -1 0 -1 0 -1 0 -1 0 -1 0 -1 0 -1 0 -1 0 -1 0 -1 0 -1 0 -1 0 -1 0zm-90 -89l27 0 0 0 0 3 0 3 0 3 1 3 1 3 1 3 1 3 1 3 1 3 1 3 2 3 2 3 2 3 2 2 2 2 2 2 2 2 2 2 2 2 2 2 3 2 3 2 3 1 3 1 3 1 3 1 3 1 3 1 3 1 3 0 3 0 3 0 0 24 -5 0 -5 0 -5 -1 -5 -1 -4 -1 -4 -1 -4 -1 -4 -2 -4 -2 -4 -2 -4 -2 -4 -2 -4 -3 -3 -3 -3 -3 -3 -3 -3 -3 -3 -3 -3 -3 -2 -3 -2 -4 -2 -4 -2 -4 -2 -4 -2 -4 -1 -4 -1 -4 -1 -4 -1 -4 -1 -4 0 -4 0 -5 0 0zm27 0l-27 0 0 -1 0 -1 0 -1 0 -1 0 -1 0 -1 0 -1 0 -1 0 -1 0 -1 0 -1 0 0 0 0 0 0 0 0 0 0 0 0 0 0 1 0 1 0 1 0 1 0 1 0 1 0 1 0 1 0 1 0 1 0 1 0 1 0 1 0 1 0 1 0 1 0 1 0 1 0 1 0 1 0 1 0 1 0 1 0 1 0 1 0 1 0 1 0 1 0 0 0 0 0 0 0 0 0 0 0 0 0 0 0 0 1 0 1 0 1 0 1 0 1 0 1 0 1 0 1 0 1 0 1 0 1zm0 -825l0 825 -27 0 0 -825 0 0 27 0zm0 0l-27 0 0 -1 0 -1 0 -1 0 -1 0 -1 0 -1 0 -1 0 -1 0 -1 0 -1 0 -1 0 0 0 0 0 0 0 0 0 0 0 0 0 0 1 0 1 0 1 0 1 0 1 0 1 0 1 0 1 0 1 0 1 0 1 0 1 0 1 0 1 0 1 0 1 0 1 0 1 0 1 0 1 0 1 0 1 0 1 0 1 0 1 0 1 0 1 0 1 0 0 0 0 0 0 0 0 0 0 0 0 0 0 0 0 1 0 1 0 1 0 1 0 1 0 1 0 1 0 1 0 1 0 1 0 1zm-90 -65l0 -24 5 0 5 0 5 1 5 1 4 1 4 1 4 1 4 2 4 2 4 2 4 2 4 2 4 3 3 3 3 3 3 3 3 3 3 3 3 3 2 3 2 4 2 4 2 4 2 4 2 4 1 4 1 4 1 4 1 4 1 4 0 4 0 5 -27 0 0 -3 0 -3 0 -3 -1 -3 -1 -3 -1 -3 -1 -3 -1 -3 -1 -3 -1 -3 -2 -3 -2 -3 -2 -3 -2 -2 -2 -2 -2 -2 -2 -2 -2 -2 -2 -2 -2 -2 -3 -2 -3 -2 -3 -1 -3 -1 -3 -1 -3 -1 -3 -1 -3 -1 -3 -1 -3 0 -3 0 -3 0zm0 -24l0 24 -1 0 -1 0 -1 0 -1 0 -1 0 -1 0 -1 0 -1 0 -1 0 -1 0 -1 0 -1 0 -1 0 -1 0 0 0 0 0 0 0 0 0 0 0 0 0 0 0 0 -1 0 -1 0 -1 0 -1 0 -1 0 -1 0 -1 0 -1 0 -1 0 -1 0 -1 0 -1 0 -1 0 -1 0 -1 0 -1 0 -1 0 -1 0 -1 0 -1 0 -1 0 -1 0 0 0 0 0 0 0 0 0 0 0 0 0 0 1 0 1 0 1 0 1 0 1 0 1 0 1 0 1 0 1 0 1 0 1 0 1 0 1 0 1 0zm154 1003l0 -24 1 0 1 0 1 0 1 0 1 0 1 0 1 0 1 0 1 0 1 0 1 0 1 0 1 0 1 0 0 0 0 0 0 0 0 0 0 0 0 0 0 0 0 1 0 1 0 1 0 1 0 1 0 1 0 1 0 1 0 1 0 1 0 1 0 1 0 1 0 1 0 1 0 1 0 1 0 1 0 1 0 1 0 1 0 1 0 0 0 0 0 0 0 0 0 0 0 0 0 0 -1 0 -1 0 -1 0 -1 0 -1 0 -1 0 -1 0 -1 0 -1 0 -1 0 -1 0 -1 0 -1 0 -1 0zm-63 65l-27 0 0 0 0 -5 0 -4 1 -4 1 -4 1 -4 1 -4 1 -4 2 -4 2 -4 2 -4 2 -4 2 -4 2 -3 3 -3 3 -3 3 -3 3 -3 3 -3 3 -3 4 -3 4 -2 4 -2 4 -2 4 -2 4 -2 4 -1 4 -1 4 -1 5 -1 5 -1 5 0 5 0 0 24 -3 0 -3 0 -3 0 -3 1 -3 1 -3 1 -3 1 -3 1 -3 1 -3 1 -3 2 -3 2 -2 2 -2 2 -2 2 -2 2 -2 2 -2 2 -2 2 -2 3 -2 3 -2 3 -1 3 -1 3 -1 3 -1 3 -1 3 -1 3 -1 3 0 3 0 3 0 3 0 0zm-27 0l27 0 0 1 0 1 0 1 0 1 0 1 0 1 0 1 0 1 0 1 0 1 0 1 0 0 0 0 0 0 0 0 0 0 0 0 0 0 -1 0 -1 0 -1 0 -1 0 -1 0 -1 0 -1 0 -1 0 -1 0 -1 0 -1 0 -1 0 -1 0 -1 0 -1 0 -1 0 -1 0 -1 0 -1 0 -1 0 -1 0 -1 0 -1 0 -1 0 -1 0 -1 0 -1 0 -1 0 0 0 0 0 0 0 0 0 0 0 0 0 0 0 0 -1 0 -1 0 -1 0 -1 0 -1 0 -1 0 -1 0 -1 0 -1 0 -1 0 -1zm0 825l0 -825 27 0 0 825 0 0 -27 0zm0 0l27 0 0 1 0 1 0 1 0 1 0 1 0 1 0 1 0 1 0 1 0 1 0 1 0 0 0 0 0 0 0 0 0 0 0 0 0 0 -1 0 -1 0 -1 0 -1 0 -1 0 -1 0 -1 0 -1 0 -1 0 -1 0 -1 0 -1 0 -1 0 -1 0 -1 0 -1 0 -1 0 -1 0 -1 0 -1 0 -1 0 -1 0 -1 0 -1 0 -1 0 -1 0 -1 0 -1 0 0 0 0 0 0 0 0 0 0 0 0 0 0 0 0 -1 0 -1 0 -1 0 -1 0 -1 0 -1 0 -1 0 -1 0 -1 0 -1 0 -1zm-63 89l0 -24 3 0 3 0 3 0 3 -1 3 -1 3 -1 3 -1 3 -1 3 -1 3 -1 3 -2 3 -2 2 -2 2 -2 2 -2 2 -2 2 -2 2 -2 2 -2 2 -3 2 -3 2 -3 1 -3 1 -3 1 -3 1 -3 1 -3 1 -3 1 -3 0 -3 0 -3 0 -3 27 0 0 5 0 4 -1 4 -1 4 -1 4 -1 4 -1 4 -2 4 -2 4 -2 4 -2 4 -2 4 -2 3 -3 3 -3 3 -3 3 -3 3 -3 3 -3 3 -4 3 -4 2 -4 2 -4 2 -4 2 -4 2 -4 1 -4 1 -4 1 -5 1 -5 1 -5 0 -5 0zm0 -24l0 24 -1 0 -1 0 -1 0 -1 0 -1 0 -1 0 -1 0 -1 0 -1 0 -1 0 -1 0 -1 0 -1 0 -1 0 0 0 0 0 0 0 0 0 0 0 0 0 0 0 0 -1 0 -1 0 -1 0 -1 0 -1 0 -1 0 -1 0 -1 0 -1 0 -1 0 -1 0 -1 0 -1 0 -1 0 -1 0 -1 0 -1 0 -1 0 -1 0 -1 0 -1 0 -1 0 0 0 0 0 0 0 0 0 0 0 0 0 0 1 0 1 0 1 0 1 0 1 0 1 0 1 0 1 0 1 0 1 0 1 0 1 0 1 0 1 0z"/>
   </g>
   <polygon class="fil4" points="7196,1278 6314,1278 6314,1451 7196,1451 "/>
   <g>
    <path class="fil7" d="M6314 1442l0 24 -1 0 -1 0 -1 0 -1 0 -1 0 -1 0 -1 0 -1 0 -1 0 -1 0 -1 0 -1 0 -1 0 -1 0 0 0 0 0 0 0 0 0 0 0 0 0 0 0 0 -1 0 -1 0 -1 0 -1 0 -1 0 -1 0 -1 0 -1 0 -1 0 -1 0 -1 0 -1 0 -1 0 -1 0 -1 0 -1 0 -1 0 -1 0 -1 0 -1 0 -1 0 -1 0 0 0 0 0 0 0 0 0 0 0 0 0 0 1 0 1 0 1 0 1 0 1 0 1 0 1 0 1 0 1 0 1 0 1 0 1 0 1 0 1 0zm879 24l-879 0 0 -24 879 0 0 24zm0 0l0 -24 1 0 1 0 1 0 1 0 1 0 1 0 1 0 1 0 1 0 1 0 1 0 1 0 1 0 1 0 0 0 0 0 0 0 0 0 0 0 0 0 0 0 0 1 0 1 0 1 0 1 0 1 0 1 0 1 0 1 0 1 0 1 0 1 0 1 0 1 0 1 0 1 0 1 0 1 0 1 0 1 0 1 0 1 0 1 0 0 0 0 0 0 0 0 0 0 0 0 0 0 -1 0 -1 0 -1 0 -1 0 -1 0 -1 0 -1 0 -1 0 -1 0 -1 0 -1 0 -1 0 -1 0 -1 0z"/>
   </g>
   <polygon class="fil4" points="7196,1515 6314,1515 6314,1687 7196,1687 "/>
   <polygon class="fil4" points="7196,1729 4528,1729 4528,1892 7196,1892 "/>
   <polygon class="fil4" points="7196,1981 6314,1981 6314,2154 7196,2154 "/>
   <g>
    <path class="fil7" d="M4540 1880l0 24 -1 0 -1 0 -1 0 -1 0 -1 0 -1 0 -1 0 -1 0 -1 0 -1 0 -1 0 -1 0 -1 0 -1 0 -1 0 0 0 0 0 0 0 0 0 0 0 0 0 0 -1 0 -1 0 -1 0 -1 0 -1 0 -1 0 -1 0 -1 0 -1 0 -1 0 -1 0 -1 0 -1 0 -1 0 -1 0 -1 0 -1 0 -1 0 -1 0 -1 0 -1 0 -1 0 0 0 0 0 0 0 0 0 0 0 0 1 0 1 0 1 0 1 0 1 0 1 0 1 0 1 0 1 0 1 0 1 0 1 0 1 0 1 0 1 0zm2653 24l-2653 0 0 -24 2653 0 0 24zm0 0l0 -24 1 0 1 0 1 0 1 0 1 0 1 0 1 0 1 0 1 0 1 0 1 0 1 0 1 0 1 0 1 0 0 0 0 0 0 0 0 0 0 0 0 0 0 1 0 1 0 1 0 1 0 1 0 1 0 1 0 1 0 1 0 1 0 1 0 1 0 1 0 1 0 1 0 1 0 1 0 1 0 1 0 1 0 1 0 1 0 0 0 0 0 0 0 0 0 0 0 0 -1 0 -1 0 -1 0 -1 0 -1 0 -1 0 -1 0 -1 0 -1 0 -1 0 -1 0 -1 0 -1 0 -1 0 -1 0z"/>
   </g>
   <g>
    <path class="fil7" d="M6314 1675l0 24 -1 0 -1 0 -1 0 -1 0 -1 0 -1 0 -1 0 -1 0 -1 0 -1 0 -1 0 -1 0 -1 0 -1 0 0 0 0 0 0 0 0 0 0 0 0 0 0 0 0 -1 0 -1 0 -1 0 -1 0 -1 0 -1 0 -1 0 -1 0 -1 0 -1 0 -1 0 -1 0 -1 0 -1 0 -1 0 -1 0 -1 0 -1 0 -1 0 -1 0 -1 0 -1 0 0 0 0 0 0 0 0 0 0 0 0 0 0 1 0 1 0 1 0 1 0 1 0 1 0 1 0 1 0 1 0 1 0 1 0 1 0 1 0 1 0zm879 24l-879 0 0 -24 879 0 0 24zm0 0l0 -24 1 0 1 0 1 0 1 0 1 0 1 0 1 0 1 0 1 0 1 0 1 0 1 0 1 0 1 0 0 0 0 0 0 0 0 0 0 0 0 0 0 0 0 1 0 1 0 1 0 1 0 1 0 1 0 1 0 1 0 1 0 1 0 1 0 1 0 1 0 1 0 1 0 1 0 1 0 1 0 1 0 1 0 1 0 1 0 0 0 0 0 0 0 0 0 0 0 0 0 0 -1 0 -1 0 -1 0 -1 0 -1 0 -1 0 -1 0 -1 0 -1 0 -1 0 -1 0 -1 0 -1 0 -1 0z"/>
   </g>
   <g>
    <path class="fil7" d="M6314 2141l0 24 -1 0 -1 0 -1 0 -1 0 -1 0 -1 0 -1 0 -1 0 -1 0 -1 0 -1 0 -1 0 -1 0 -1 0 0 0 0 0 0 0 0 0 0 0 0 0 0 0 0 -1 0 -1 0 -1 0 -1 0 -1 0 -1 0 -1 0 -1 0 -1 0 -1 0 -1 0 -1 0 -1 0 -1 0 -1 0 -1 0 -1 0 -1 0 -1 0 -1 0 -1 0 -1 0 0 0 0 0 0 0 0 0 0 0 0 0 0 1 0 1 0 1 0 1 0 1 0 1 0 1 0 1 0 1 0 1 0 1 0 1 0 1 0 1 0zm879 24l-879 0 0 -24 879 0 0 24zm0 0l0 -24 1 0 1 0 1 0 1 0 1 0 1 0 1 0 1 0 1 0 1 0 1 0 1 0 1 0 1 0 0 0 0 0 0 0 0 0 0 0 0 0 0 0 0 1 0 1 0 1 0 1 0 1 0 1 0 1 0 1 0 1 0 1 0 1 0 1 0 1 0 1 0 1 0 1 0 1 0 1 0 1 0 1 0 1 0 1 0 0 0 0 0 0 0 0 0 0 0 0 0 0 -1 0 -1 0 -1 0 -1 0 -1 0 -1 0 -1 0 -1 0 -1 0 -1 0 -1 0 -1 0 -1 0 -1 0z"/>
   </g>
   <polygon class="fil4" points="7196,2876 6314,2876 6314,3049 7196,3049 "/>
   <polygon class="fil4" points="7196,3124 5493,3124 5493,3297 7196,3297 "/>
   <g>
    <path class="fil7" d="M5493 3285l0 24 -1 0 -1 0 -1 0 -1 0 -1 0 -1 0 -1 0 -1 0 -1 0 -1 0 -1 0 -1 0 -1 0 -1 0 0 0 0 0 0 0 0 0 0 0 0 0 0 0 0 -1 0 -1 0 -1 0 -1 0 -1 0 -1 0 -1 0 -1 0 -1 0 -1 0 -1 0 -1 0 -1 0 -1 0 -1 0 -1 0 -1 0 -1 0 -1 0 -1 0 -1 0 -1 0 0 0 0 0 0 0 0 0 0 0 0 0 0 1 0 1 0 1 0 1 0 1 0 1 0 1 0 1 0 1 0 1 0 1 0 1 0 1 0 1 0zm1700 24l-1700 0 0 -24 1700 0 0 24zm0 0l0 -24 1 0 1 0 1 0 1 0 1 0 1 0 1 0 1 0 1 0 1 0 1 0 1 0 1 0 1 0 0 0 0 0 0 0 0 0 0 0 0 0 0 0 0 1 0 1 0 1 0 1 0 1 0 1 0 1 0 1 0 1 0 1 0 1 0 1 0 1 0 1 0 1 0 1 0 1 0 1 0 1 0 1 0 1 0 1 0 0 0 0 0 0 0 0 0 0 0 0 0 0 -1 0 -1 0 -1 0 -1 0 -1 0 -1 0 -1 0 -1 0 -1 0 -1 0 -1 0 -1 0 -1 0 -1 0z"/>
   </g>
   <g>
    <path class="fil7" d="M6314 3038l0 24 -1 0 -1 0 -1 0 -1 0 -1 0 -1 0 -1 0 -1 0 -1 0 -1 0 -1 0 -1 0 -1 0 -1 0 0 0 0 0 0 0 0 0 0 0 0 0 0 0 0 -1 0 -1 0 -1 0 -1 0 -1 0 -1 0 -1 0 -1 0 -1 0 -1 0 -1 0 -1 0 -1 0 -1 0 -1 0 -1 0 -1 0 -1 0 -1 0 -1 0 -1 0 -1 0 0 0 0 0 0 0 0 0 0 0 0 0 0 1 0 1 0 1 0 1 0 1 0 1 0 1 0 1 0 1 0 1 0 1 0 1 0 1 0 1 0zm879 24l-879 0 0 -24 879 0 0 24zm0 0l0 -24 1 0 1 0 1 0 1 0 1 0 1 0 1 0 1 0 1 0 1 0 1 0 1 0 1 0 1 0 0 0 0 0 0 0 0 0 0 0 0 0 0 0 0 1 0 1 0 1 0 1 0 1 0 1 0 1 0 1 0 1 0 1 0 1 0 1 0 1 0 1 0 1 0 1 0 1 0 1 0 1 0 1 0 1 0 1 0 0 0 0 0 0 0 0 0 0 0 0 0 0 -1 0 -1 0 -1 0 -1 0 -1 0 -1 0 -1 0 -1 0 -1 0 -1 0 -1 0 -1 0 -1 0 -1 0z"/>
   </g>
  </g>
 </g>
</svg>
