<?xml version="1.0" encoding="UTF-8"?>
<!DOCTYPE svg PUBLIC "-//W3C//DTD SVG 1.1//EN" "http://www.w3.org/Graphics/SVG/1.1/DTD/svg11.dtd">
<!-- Creator: CorelDRAW X6 -->
<svg xmlns="http://www.w3.org/2000/svg" xml:space="preserve" width="115.711mm" height="70.5556mm" version="1.1" style="shape-rendering:geometricPrecision; text-rendering:geometricPrecision; image-rendering:optimizeQuality; fill-rule:evenodd; clip-rule:evenodd"
viewBox="0 0 11571 7056"
 xmlns:xlink="http://www.w3.org/1999/xlink">
 <defs>
  <style type="text/css">
   <![CDATA[
    .str0 {stroke:#A37D66;stroke-width:10}
    .str3 {stroke:#CC7587;stroke-width:10}
    .str1 {stroke:#CC7587;stroke-width:32.31}
    .str5 {stroke:#4780BF;stroke-width:24.13;stroke-linecap:round;stroke-linejoin:round}
    .str2 {stroke:#4780BF;stroke-width:32.17;stroke-linecap:round;stroke-linejoin:round}
    .str4 {stroke:#008CD1;stroke-width:41.66;stroke-linecap:round;stroke-linejoin:round}
    .str6 {stroke:#AB8082;stroke-width:80.42;stroke-linecap:round;stroke-linejoin:round}
    .fil8 {fill:none}
    .fil7 {fill:none;fill-rule:nonzero}
    .fil4 {fill:#CC7587}
    .fil3 {fill:#FFF7B3}
    .fil1 {fill:#FFFADB}
    .fil5 {fill:white}
    .fil2 {fill:#A37D66;fill-rule:nonzero}
    .fil6 {fill:#CC7587;fill-rule:nonzero}
    .fil0 {fill:url(#id0)}
   ]]>
  </style>
  <radialGradient id="id0" gradientUnits="objectBoundingBox" cx="50%" cy="50%" r="50%" fx="50%" fy="50%">
   <stop offset="0" style="stop-color:#FEFEFE"/>
   <stop offset="0.439216" style="stop-color:#FEFEFE"/>
   <stop offset="1" style="stop-color:#D1E2F2"/>
  </radialGradient>
 </defs>
 <g id="Layer_x0020_1">
  <metadata id="CorelCorpID_0Corel-Layer"/>
  <polygon class="fil0" points="0,0 11571,0 11571,7056 0,7056 "/>
  <polygon class="fil1" points="7661,1082 7661,5983 4759,5983 4368,5983 4368,1082 "/>
  <path class="fil2 str0" d="M4619 4828l26 -26c3,-3 4,-7 0,-10 -4,-4 -7,-3 -10,0l-31 30c-2,2 -3,3 -3,5 0,2 1,4 3,5l31 30c3,3 7,4 10,0 4,-4 3,-7 0,-10l-26 -26zm42 0l26 -26c3,-3 4,-7 0,-10 -4,-4 -7,-3 -10,0l-31 30c-2,2 -3,3 -3,5 0,2 1,4 3,5l31 30c3,3 7,4 10,0 4,-4 3,-7 0,-10l-26 -26zm294 26c-3,3 -4,7 0,10 4,4 7,2 10,0l31 -30c2,-2 2,-3 2,-5 0,-2 -1,-4 -2,-5l-31 -30c-3,-3 -7,-4 -10,0 -4,4 -3,7 0,10l26 26 -26 26zm-42 0c-3,3 -4,7 0,10 4,4 7,2 10,0l31 -30c2,-2 2,-3 2,-5 0,-2 -1,-4 -2,-5l-31 -30c-3,-3 -7,-4 -10,0 -4,4 -3,7 0,10l26 26 -26 26zm636 -8c0,-9 3,-16 10,-19l35 -16c17,-8 21,-21 21,-34l0 -1c0,-22 -12,-34 -37,-34l-12 0c-20,0 -32,8 -32,29 0,5 3,9 9,9 7,0 9,-4 9,-9 0,-8 6,-12 14,-12l12 0c14,0 19,5 19,17l0 1c0,9 -3,15 -11,18l-33 15c-15,7 -23,21 -23,38l0 31 77 0c5,0 9,-2 9,-9 0,-6 -4,-9 -9,-9l-59 0 0 -15zm103 -56c0,-19 7,-31 22,-31l7 0c15,0 22,12 22,31l0 42c0,19 -7,31 -22,31l-7 0c-15,0 -22,-12 -22,-31l0 -42zm69 0c0,-29 -14,-48 -40,-48l-7 0c-26,0 -40,19 -40,48l0 42c0,29 14,48 40,48l7 0c26,0 40,-19 40,-48l0 -42zm230 -12l-43 0c-7,0 -9,4 -9,9l0 84c0,5 2,9 8,9 7,0 9,-4 9,-9l0 -76 35 0c4,0 8,-3 8,-8 0,-6 -4,-8 -8,-8zm39 89c0,-6 -3,-10 -10,-10 -8,0 -10,5 -10,10l0 2c0,6 3,10 10,10 8,0 10,-5 10,-10l0 -2zm181 -43c7,-4 12,-10 12,-21l0 -2c0,-17 -11,-24 -31,-24l-30 0c-6,0 -9,4 -9,8l0 83c0,5 3,8 9,8l35 0c18,0 30,-7 30,-26l0 -5c0,-12 -6,-18 -16,-22zm-40 -31l19 0c12,0 17,4 17,11l0 2c0,7 -5,11 -13,11l-22 0 0 -24zm39 55c0,9 -5,13 -13,13l-26 0 0 -28 23 0c10,0 16,5 16,13l0 2zm410 -73c-7,0 -9,4 -9,9l0 41 -24 0c-9,0 -14,-4 -14,-11l0 -31c0,-5 -2,-9 -8,-9 -7,0 -9,4 -9,9l0 31c0,18 12,27 31,27l24 0 0 29c0,5 2,9 8,9 7,0 9,-4 9,-9l0 -86c0,-5 -2,-9 -8,-9zm51 2c-5,0 -9,2 -9,8 0,6 4,8 9,8l25 0c8,0 13,4 13,14l0 4 -27 0c-18,0 -29,8 -29,26l0 15c0,18 11,26 29,26l35 0c6,0 9,-4 9,-9l0 -61c0,-17 -12,-30 -31,-30l-25 0zm11 84c-8,0 -12,-4 -12,-10l0 -14c0,-6 4,-10 12,-10l27 0 0 34 -27 0zm105 2c-13,0 -19,-9 -19,-21l0 -31c0,-11 5,-18 18,-18l9 0c8,0 13,4 13,9 0,5 3,9 9,9 6,0 9,-4 9,-9 0,-18 -12,-26 -31,-26l-9 0c-24,0 -36,14 -36,35l0 31c0,22 12,38 36,38l9 0c19,0 31,-8 31,-26 0,-5 -3,-9 -9,-9 -6,0 -9,4 -9,9 0,6 -5,9 -13,9l-9 0zm75 4c0,-6 -3,-10 -10,-10 -8,0 -10,5 -10,10l0 2c0,6 3,10 10,10 8,0 10,-5 10,-10l0 -2zm411 -91c-4,0 -7,2 -9,5 -5,10 -14,25 -23,42 -1,2 -3,7 -5,12 -1,-5 -3,-9 -5,-12 -9,-17 -18,-32 -23,-42 -2,-4 -5,-5 -9,-5 -7,0 -9,4 -9,9l0 86c0,5 2,9 8,9 7,0 8,-4 8,-9 0,0 0,-40 0,-47 0,-5 -1,-11 -1,-16 0,0 7,14 24,43 2,3 3,5 7,5 4,0 5,-2 7,-5 16,-29 24,-43 24,-43 -1,6 -1,11 -1,16 0,7 0,47 0,47 0,5 2,9 8,9 6,0 8,-4 8,-9l0 -86c0,-5 -2,-9 -9,-9zm108 0c-3,0 -5,2 -8,5l-48 66c1,-5 1,-8 1,-12 0,-7 0,-50 0,-50 0,-5 -2,-9 -8,-9 -6,0 -8,4 -8,9l0 86c0,5 2,9 8,9 4,0 6,-3 8,-5l48 -67c-1,5 -1,8 -1,12 0,7 0,51 0,51 0,5 2,9 8,9 6,0 8,-4 8,-9l0 -86c0,-5 -2,-9 -8,-9zm107 0c-7,0 -9,4 -9,9l0 32 -45 0 0 -32c0,-5 -2,-9 -8,-9 -7,0 -9,4 -9,9l0 86c0,5 2,9 8,9 7,0 9,-4 9,-9l0 -38 45 0 0 38c0,5 2,9 8,9 7,0 9,-4 9,-9l0 -86c0,-5 -2,-9 -8,-9zm50 91c0,-6 -3,-10 -10,-10 -8,0 -10,5 -10,10l0 2c0,6 3,10 10,10 8,0 10,-5 10,-10l0 -2z"/>
  <path class="fil2 str0" d="M6136 4230c0,-12 5,-21 18,-21l15 0c13,0 18,9 18,21l0 61c0,12 -5,21 -18,21l-15 0c-13,0 -18,-9 -18,-21l0 -61zm70 0c0,-21 -12,-38 -36,-38l-15 0c-24,0 -36,17 -36,38l0 61c0,21 12,38 36,38l15 0c24,0 36,-17 36,-38l0 -61zm62 82c-13,0 -18,-9 -18,-21l0 -61c0,-12 5,-21 18,-21l20 0c8,0 13,3 13,11 0,5 3,9 9,9 7,0 9,-4 9,-9 0,-20 -12,-29 -31,-29l-20 0c-24,0 -36,17 -36,38l0 61c0,21 12,38 36,38l20 0c20,0 31,-9 31,-29 0,-5 -3,-9 -9,-9 -6,0 -8,4 -9,9 -1,8 -5,11 -13,11l-20 0zm90 -82c0,-12 5,-21 18,-21l15 0c13,0 18,9 18,21l0 61c0,12 -5,21 -18,21l-15 0c-13,0 -18,-9 -18,-21l0 -61zm70 0c0,-21 -12,-38 -36,-38l-15 0c-24,0 -36,17 -36,38l0 61c0,21 12,38 36,38l15 0c24,0 36,-17 36,-38l0 -61zm73 17l-28 0 0 -36 49 0c4,0 8,-2 8,-9 0,-6 -4,-9 -8,-9l-58 0c-7,0 -9,4 -9,9l0 117c0,5 3,9 9,9l37 0c25,0 37,-16 37,-37l0 -9c0,-21 -12,-35 -37,-35zm19 46c0,12 -5,18 -18,18l-28 0 0 -48 28 0c13,0 19,7 19,18l0 12zm58 -63c0,-12 5,-21 18,-21l15 0c13,0 18,9 18,21l0 61c0,12 -5,21 -18,21l-15 0c-13,0 -18,-9 -18,-21l0 -61zm70 0c0,-21 -12,-38 -36,-38l-15 0c-24,0 -36,17 -36,38l0 61c0,21 12,38 36,38l15 0c24,0 36,-17 36,-38l0 -61zm98 98c4,0 8,-2 8,-9 0,-6 -4,-9 -8,-9l-53 0 0 -43 43 0c4,0 8,-2 8,-9 0,-6 -4,-9 -8,-9l-43 0 0 -39 53 0c4,0 8,-2 8,-9 0,-6 -4,-9 -8,-9l-62 0c-6,0 -9,4 -9,9l0 117c0,5 3,9 9,9l62 0zm134 -60c-1,-4 -3,-7 -5,-11l-30 -59c-3,-5 -5,-7 -9,-7 -6,0 -9,4 -9,9l0 120c0,5 3,9 9,9 6,0 9,-4 9,-9l0 -74c0,-5 0,-10 -1,-13l0 0 27 54c1,3 3,5 8,5 5,0 7,-2 8,-5l27 -54 0 0c0,3 -1,8 -1,13l0 74c0,5 2,9 9,9 6,0 9,-4 9,-9l0 -120c0,-5 -3,-9 -9,-9 -4,0 -6,1 -9,7l-30 59c-2,4 -3,7 -5,11zm168 -68c0,-5 -3,-9 -9,-9 -6,0 -9,4 -9,9l0 48 -50 0 0 -48c0,-5 -3,-9 -9,-9 -6,0 -9,4 -9,9l0 120c0,5 3,9 9,9 6,0 9,-4 9,-9l0 -55 50 0 0 55c0,5 3,9 9,9 6,0 9,-4 9,-9l0 -120zm100 127c4,0 8,-2 8,-9 0,-6 -4,-9 -8,-9l-53 0 0 -43 43 0c4,0 8,-2 8,-9 0,-6 -4,-9 -8,-9l-43 0 0 -39 53 0c4,0 8,-2 8,-9 0,-6 -4,-9 -8,-9l-62 0c-6,0 -9,4 -9,9l0 117c0,5 3,9 9,9l62 0zm116 -127c0,-5 -3,-9 -9,-9 -6,0 -9,4 -9,9l0 48 -50 0 0 -48c0,-5 -2,-9 -9,-9 -6,0 -9,4 -9,9l0 120c0,5 3,9 9,9 6,0 9,-4 9,-9l0 -55 50 0 0 55c0,5 3,9 9,9 6,0 9,-4 9,-9l0 -120zm98 120c0,5 3,9 9,9 7,0 9,-4 9,-9l0 -120c0,-5 -3,-9 -9,-9 -4,0 -6,1 -9,7l-51 91 0 0c0,-3 1,-8 1,-13l0 -76c0,-5 -2,-9 -9,-9 -7,0 -9,4 -9,9l0 120c0,5 3,9 9,9 4,0 6,-1 9,-7l51 -91 0 0c0,3 -1,8 -1,13l0 76zm117 7c4,0 8,-2 8,-9 0,-6 -4,-9 -8,-9l-53 0 0 -43 43 0c4,0 8,-2 8,-9 0,-6 -4,-9 -8,-9l-43 0 0 -39 53 0c4,0 8,-2 8,-9 0,-6 -4,-9 -8,-9l-62 0c-6,0 -9,4 -9,9l0 117c0,5 3,9 9,9l62 0z"/>
  <path class="fil3" d="M4368 1082l3293 0 0 1845 -3293 -1565c5,-144 0,-184 0,-280z"/>
  <path class="fil4 str1" d="M4219 691c53,0 100,22 134,57l71 -71 -63 245 -180 0 71 -71 0 0c-34,-34 -81,-55 -133,-55 -103,0 -187,84 -187,187 0,101 81,184 181,187l104 -104c-102,-1 -185,-85 -185,-187 0,-103 84,-187 187,-187z"/>
  <g>
   <path class="fil2" d="M7117 2328l0 -68 2 0 2 0 2 0 2 0 2 0 2 0 2 1 2 1 2 1 2 1 2 1 2 1 2 1 2 1 1 1 1 1 1 1 1 1 1 1 1 1 1 1 1 1 1 1 1 2 1 2 1 2 1 2 0 2 0 2 0 2 0 2 0 2 0 2 0 2 0 2 0 2 0 2 -1 2 -1 2 -1 2 -1 2 -1 1 -1 1 -1 1 -1 1 -1 1 -1 1 -1 1 -1 1 -1 1 -2 1 -2 1 -2 1 -2 1 -2 1 -2 1 -2 1 -2 1 -2 0 -2 0 -2 0 -2 0 -2 0 -2 0zm-2205 -68l2205 0 0 68 -2205 0 0 -68zm0 0l0 68 -2 0 -2 0 -2 0 -2 0 -2 0 -2 0 -2 -1 -2 -1 -2 -1 -2 -1 -2 -1 -2 -1 -2 -1 -2 -1 -1 -1 -1 -1 -1 -1 -1 -1 -1 -1 -1 -1 -1 -1 -1 -1 -1 -1 -1 -2 -1 -2 -1 -2 -1 -2 0 -2 0 -2 0 -2 0 -2 0 -2 0 -2 0 -2 0 -2 0 -2 0 -2 1 -2 1 -2 1 -2 1 -2 1 -1 1 -1 1 -1 1 -1 1 -1 1 -1 1 -1 1 -1 1 -1 2 -1 2 -1 2 -1 2 -1 2 -1 2 -1 2 -1 2 -1 2 0 2 0 2 0 2 0 2 0 2 0zm1513 315l0 -68 2 0 2 0 2 0 2 0 2 0 2 0 2 1 2 1 2 1 2 1 2 1 2 1 2 1 2 1 1 1 1 1 1 1 1 1 1 1 1 1 1 1 1 1 1 1 1 2 1 2 1 2 1 2 0 2 0 2 0 2 0 2 0 2 0 2 0 2 0 2 0 2 0 2 -1 2 -1 2 -1 2 -1 2 -1 1 -1 1 -1 1 -1 1 -1 1 -1 1 -1 1 -1 1 -1 1 -2 1 -2 1 -2 1 -2 1 -2 1 -2 1 -2 1 -2 1 -2 0 -2 0 -2 0 -2 0 -2 0 -2 0zm-1513 0l0 -68 47 0 47 0 47 0 47 0 47 0 47 0 47 0 47 0 47 0 47 0 47 0 47 0 47 0 47 0 47 0 47 0 47 0 47 0 47 0 47 0 47 0 47 0 47 0 47 0 47 0 47 0 47 0 47 0 47 0 47 0 47 0 47 0 0 68 -47 0 -47 0 -47 0 -47 0 -47 0 -47 0 -47 0 -47 0 -47 0 -47 0 -47 0 -47 0 -47 0 -47 0 -47 0 -47 0 -47 0 -47 0 -47 0 -47 0 -47 0 -47 0 -47 0 -47 0 -47 0 -47 0 -47 0 -47 0 -47 0 -47 0 -47 0 -47 0zm0 -68l0 68 -2 0 -2 0 -2 0 -2 0 -2 0 -2 0 -2 -1 -2 -1 -2 -1 -2 -1 -2 -1 -2 -1 -2 -1 -2 -1 -1 -1 -1 -1 -1 -1 -1 -1 -1 -1 -1 -1 -1 -1 -1 -1 -1 -1 -1 -2 -1 -2 -1 -2 -1 -2 0 -2 0 -2 0 -2 0 -2 0 -2 0 -2 0 -2 0 -2 0 -2 0 -2 1 -2 1 -2 1 -2 1 -2 1 -1 1 -1 1 -1 1 -1 1 -1 1 -1 1 -1 1 -1 1 -1 2 -1 2 -1 2 -1 2 -1 2 -1 2 -1 2 -1 2 -1 2 0 2 0 2 0 2 0 2 0 2 0z"/>
  </g>
  <g>
   <path class="fil2" d="M7117 2080l0 -68 2 0 2 0 2 0 2 0 2 0 2 0 2 1 2 1 2 1 2 1 2 1 2 1 2 1 2 1 1 1 1 1 1 1 1 1 1 1 1 1 1 1 1 1 1 1 1 2 1 2 1 2 1 2 0 2 0 2 0 2 0 2 0 2 0 2 0 2 0 2 0 2 0 2 -1 2 -1 2 -1 2 -1 2 -1 1 -1 1 -1 1 -1 1 -1 1 -1 1 -1 1 -1 1 -1 1 -2 1 -2 1 -2 1 -2 1 -2 1 -2 1 -2 1 -2 1 -2 0 -2 0 -2 0 -2 0 -2 0 -2 0zm-2205 -68l2205 0 0 68 -2205 0 0 -68zm0 0l0 68 -2 0 -2 0 -2 0 -2 0 -2 0 -2 0 -2 -1 -2 -1 -2 -1 -2 -1 -2 -1 -2 -1 -2 -1 -2 -1 -1 -1 -1 -1 -1 -1 -1 -1 -1 -1 -1 -1 -1 -1 -1 -1 -1 -1 -1 -2 -1 -2 -1 -2 -1 -2 0 -2 0 -2 0 -2 0 -2 0 -2 0 -2 0 -2 0 -2 0 -2 0 -2 1 -2 1 -2 1 -2 1 -2 1 -1 1 -1 1 -1 1 -1 1 -1 1 -1 1 -1 1 -1 1 -1 2 -1 2 -1 2 -1 2 -1 2 -1 2 -1 2 -1 2 -1 2 0 2 0 2 0 2 0 2 0 2 0z"/>
  </g>
  <g>
   <path class="fil2" d="M7117 1833l0 -68 2 0 2 0 2 0 2 0 2 0 2 0 2 1 2 1 2 1 2 1 2 1 2 1 2 1 2 1 1 1 1 1 1 1 1 1 1 1 1 1 1 1 1 1 1 1 1 2 1 2 1 2 1 2 0 2 0 2 0 2 0 2 0 2 0 2 0 2 0 2 0 2 0 2 -1 2 -1 2 -1 2 -1 2 -1 1 -1 1 -1 1 -1 1 -1 1 -1 1 -1 1 -1 1 -1 1 -2 1 -2 1 -2 1 -2 1 -2 1 -2 1 -2 1 -2 1 -2 0 -2 0 -2 0 -2 0 -2 0 -2 0zm-2205 -68l2205 0 0 68 -2205 0 0 -68zm0 0l0 68 -2 0 -2 0 -2 0 -2 0 -2 0 -2 0 -2 -1 -2 -1 -2 -1 -2 -1 -2 -1 -2 -1 -2 -1 -2 -1 -1 -1 -1 -1 -1 -1 -1 -1 -1 -1 -1 -1 -1 -1 -1 -1 -1 -1 -1 -2 -1 -2 -1 -2 -1 -2 0 -2 0 -2 0 -2 0 -2 0 -2 0 -2 0 -2 0 -2 0 -2 0 -2 1 -2 1 -2 1 -2 1 -2 1 -1 1 -1 1 -1 1 -1 1 -1 1 -1 1 -1 1 -1 1 -1 2 -1 2 -1 2 -1 2 -1 2 -1 2 -1 2 -1 2 -1 2 0 2 0 2 0 2 0 2 0 2 0z"/>
  </g>
  <path class="fil2 str0" d="M5179 4453l0 110c0,5 3,9 9,9 6,0 9,-4 9,-9l0 -119c0,-5 -3,-9 -9,-9l-65 0c-6,0 -9,4 -9,9l0 119c0,5 3,9 9,9 6,0 9,-4 9,-9l0 -110 47 0zm65 48l0 -48 30 0c13,0 19,7 19,18l0 10c0,12 -6,20 -19,20l-30 0zm30 17c25,0 37,-16 37,-37l0 -10c0,-21 -12,-35 -37,-35l-39 0c-6,0 -9,4 -9,9l0 119c0,5 3,9 9,9 6,0 9,-4 9,-9l0 -45 30 0zm76 -46c0,-12 5,-21 18,-21l15 0c13,0 18,9 18,21l0 61c0,12 -5,21 -18,21l-15 0c-13,0 -18,-9 -18,-21l0 -61zm70 0c0,-21 -12,-38 -36,-38l-15 0c-24,0 -36,17 -36,38l0 61c0,21 12,38 36,38l15 0c24,0 36,-17 36,-38l0 -61zm60 100c6,0 9,-4 9,-9l0 -110 28 0c4,0 8,-2 8,-9 0,-6 -4,-9 -8,-9l-74 0c-4,0 -8,3 -8,9 0,6 4,9 8,9l28 0 0 110c0,5 3,9 9,9zm78 -100c0,-12 5,-21 18,-21l15 0c13,0 18,9 18,21l0 61c0,12 -5,21 -18,21l-15 0c-13,0 -18,-9 -18,-21l0 -61zm70 0c0,-21 -12,-38 -36,-38l-15 0c-24,0 -36,17 -36,38l0 61c0,21 12,38 36,38l15 0c24,0 36,-17 36,-38l0 -61zm113 86l-41 -59 39 -51c3,-4 3,-9 0,-13 -5,-4 -10,-2 -13,2l-40 55 -12 0 0 -50c0,-5 -3,-9 -9,-9 -7,0 -9,4 -9,9l0 120c0,5 3,9 9,9 6,0 9,-4 9,-9l0 -54 12 0 41 59c3,4 7,6 12,2 5,-4 5,-9 2,-13zm39 -86c0,-12 5,-21 18,-21l15 0c13,0 18,9 18,21l0 61c0,12 -5,21 -18,21l-15 0c-13,0 -18,-9 -18,-21l0 -61zm70 0c0,-21 -12,-38 -36,-38l-15 0c-24,0 -36,17 -36,38l0 61c0,21 12,38 36,38l15 0c24,0 36,-17 36,-38l0 -61zm54 74c1,-11 11,-93 11,-93l34 0 0 110c0,5 3,9 9,9 6,0 9,-4 9,-9l0 -119c0,-5 -3,-9 -9,-9l-50 0c-6,0 -9,4 -9,9 -1,6 -11,89 -12,97 -1,4 -1,7 -2,9 -2,4 -5,5 -11,5 -5,0 -9,3 -9,9 0,7 4,9 9,9 17,0 24,-5 27,-15 1,-4 2,-7 3,-12zm208 -93l0 110c0,5 2,9 9,9 6,0 9,-4 9,-9l0 -119c0,-5 -3,-9 -9,-9l-65 0c-6,0 -9,4 -9,9l0 119c0,5 3,9 9,9 6,0 9,-4 9,-9l0 -110 47 0zm63 19c0,-12 5,-21 18,-21l15 0c13,0 18,9 18,21l0 61c0,12 -5,21 -18,21l-15 0c-13,0 -18,-9 -18,-21l0 -61zm70 0c0,-21 -12,-38 -36,-38l-15 0c-24,0 -36,17 -36,38l0 61c0,21 12,38 36,38l15 0c24,0 36,-17 36,-38l0 -61zm115 81l-4 0 0 -108c0,-5 -3,-9 -9,-9l-46 0c-6,0 -9,4 -10,9l-17 108 -6 0c-6,0 -9,4 -9,9l0 25c0,5 3,9 9,9 7,0 9,-4 9,-9l0 -16 73 0 0 16c0,5 3,9 9,9 6,0 9,-4 9,-9l0 -25c0,-5 -3,-9 -9,-9zm-66 -13l13 -87 31 0 0 100 -47 0c1,-5 2,-9 3,-13zm159 -87l0 110c0,5 3,9 9,9 6,0 9,-4 9,-9l0 -119c0,-5 -3,-9 -9,-9l-65 0c-6,0 -9,4 -9,9l0 119c0,5 3,9 9,9 6,0 9,-4 9,-9l0 -110 47 0zm116 110c0,5 3,9 9,9 7,0 9,-4 9,-9l0 -120c0,-5 -3,-9 -9,-9 -4,0 -6,1 -9,7l-51 91 0 0c0,-3 1,-8 1,-13l0 -76c0,-5 -2,-9 -9,-9 -7,0 -9,4 -9,9l0 120c0,5 3,9 9,9 4,0 6,-1 9,-7l51 -91 0 0c0,3 -1,8 -1,13l0 76zm81 -8c-13,0 -18,-9 -18,-21l0 -61c0,-12 5,-21 18,-21l20 0c8,0 13,3 13,11 0,5 3,9 9,9 7,0 9,-4 9,-9 0,-20 -12,-29 -31,-29l-20 0c-24,0 -36,17 -36,38l0 61c0,21 12,38 36,38l20 0c20,0 31,-9 31,-29 0,-5 -3,-9 -9,-9 -6,0 -8,4 -9,9 -1,8 -5,11 -13,11l-20 0zm131 -22l11 34c2,5 6,7 11,6 5,-2 7,-6 6,-11l-39 -120c-1,-4 -4,-7 -9,-7l-1 0c-5,0 -8,2 -9,7l-39 120c-2,5 1,9 6,11 5,2 10,-1 11,-6l11 -34 42 0zm-24 -58c1,-4 2,-6 3,-11l0 0c1,5 2,7 3,11l13 42 -32 0 13 -42zm155 -32c0,-5 -3,-9 -9,-9 -6,0 -9,4 -9,9l0 48 -50 0 0 -48c0,-5 -2,-9 -9,-9 -6,0 -9,4 -9,9l0 120c0,5 3,9 9,9 6,0 9,-4 9,-9l0 -55 50 0 0 55c0,5 3,9 9,9 6,0 9,-4 9,-9l0 -120z"/>
  <polygon class="fil5" points="6489,4728 6228,4728 6228,4933 6489,4933 "/>
  <g>
   <path class="fil6" d="M6228 4921l0 24 -1 0 -1 0 -1 0 -1 0 -1 0 -1 0 -1 0 -1 0 -1 0 -1 0 -1 0 -1 0 -1 0 -1 0 -1 0 0 0 0 0 0 0 0 0 0 0 0 0 0 -1 0 -1 0 -1 0 -1 0 -1 0 -1 0 -1 0 -1 0 -1 0 -1 0 -1 0 -1 0 -1 0 -1 0 -1 0 -1 0 -1 0 -1 0 -1 0 -1 0 -1 0 -1 0 0 0 0 0 0 0 0 0 0 0 0 1 0 1 0 1 0 1 0 1 0 1 0 1 0 1 0 1 0 1 0 1 0 1 0 1 0 1 0 1 0zm261 24l-261 0 0 -24 261 0 0 24zm0 0l0 -24 1 0 1 0 1 0 1 0 1 0 1 0 1 0 1 0 1 0 1 0 1 0 1 0 1 0 1 0 1 0 0 0 0 0 0 0 0 0 0 0 0 0 0 1 0 1 0 1 0 1 0 1 0 1 0 1 0 1 0 1 0 1 0 1 0 1 0 1 0 1 0 1 0 1 0 1 0 1 0 1 0 1 0 1 0 1 0 0 0 0 0 0 0 0 0 0 0 0 -1 0 -1 0 -1 0 -1 0 -1 0 -1 0 -1 0 -1 0 -1 0 -1 0 -1 0 -1 0 -1 0 -1 0 -1 0z"/>
  </g>
  <polygon class="fil5" points="7108,4728 6847,4728 6847,4933 7108,4933 "/>
  <g>
   <path class="fil6" d="M6847 4921l0 24 -1 0 -1 0 -1 0 -1 0 -1 0 -1 0 -1 0 -1 0 -1 0 -1 0 -1 0 -1 0 -1 0 -1 0 -1 0 0 0 0 0 0 0 0 0 0 0 0 0 0 -1 0 -1 0 -1 0 -1 0 -1 0 -1 0 -1 0 -1 0 -1 0 -1 0 -1 0 -1 0 -1 0 -1 0 -1 0 -1 0 -1 0 -1 0 -1 0 -1 0 -1 0 -1 0 0 0 0 0 0 0 0 0 0 0 0 1 0 1 0 1 0 1 0 1 0 1 0 1 0 1 0 1 0 1 0 1 0 1 0 1 0 1 0 1 0zm261 24l-261 0 0 -24 261 0 0 24zm0 0l0 -24 1 0 1 0 1 0 1 0 1 0 1 0 1 0 1 0 1 0 1 0 1 0 1 0 1 0 1 0 1 0 0 0 0 0 0 0 0 0 0 0 0 0 0 1 0 1 0 1 0 1 0 1 0 1 0 1 0 1 0 1 0 1 0 1 0 1 0 1 0 1 0 1 0 1 0 1 0 1 0 1 0 1 0 1 0 1 0 0 0 0 0 0 0 0 0 0 0 0 -1 0 -1 0 -1 0 -1 0 -1 0 -1 0 -1 0 -1 0 -1 0 -1 0 -1 0 -1 0 -1 0 -1 0 -1 0z"/>
  </g>
  <polygon class="fil5" points="5885,4728 5518,4728 5518,4933 5885,4933 "/>
  <g>
   <path class="fil6" d="M5725 4921l0 25 -1 0 -1 0 -1 0 -1 0 -1 0 -1 0 -1 0 -1 0 -1 0 -1 0 -1 0 -1 0 -1 0 -1 0 -1 0 0 0 0 0 0 0 0 0 0 0 0 -1 0 -1 0 -1 0 -1 0 -1 0 -1 0 -1 0 -1 0 -1 0 -1 0 -1 0 -1 0 -1 0 -1 0 -1 0 -1 0 -1 0 -1 0 -1 0 -1 0 -1 0 -1 0 -1 0 -1 0 0 0 0 0 0 0 0 0 0 1 0 1 0 1 0 1 0 1 0 1 0 1 0 1 0 1 0 1 0 1 0 1 0 1 0 1 0 1 0zm153 25l-153 0 0 -25 153 0 0 25zm0 0l0 -25 1 0 1 0 1 0 1 0 1 0 1 0 1 0 1 0 1 0 1 0 1 0 1 0 1 0 1 0 1 0 0 0 0 0 0 0 0 0 0 0 0 1 0 1 0 1 0 1 0 1 0 1 0 1 0 1 0 1 0 1 0 1 0 1 0 1 0 1 0 1 0 1 0 1 0 1 0 1 0 1 0 1 0 1 0 1 0 1 0 0 0 0 0 0 0 0 0 0 -1 0 -1 0 -1 0 -1 0 -1 0 -1 0 -1 0 -1 0 -1 0 -1 0 -1 0 -1 0 -1 0 -1 0 -1 0z"/>
  </g>
  <polygon class="fil5" points="5438,4728 5021,4728 5021,4933 5438,4933 "/>
  <g>
   <path class="fil6" d="M5021 4921l0 25 -1 0 -1 0 -1 0 -1 0 -1 0 -1 0 -1 0 -1 0 -1 0 -1 0 -1 0 -1 0 -1 0 -1 0 -1 0 0 0 0 0 0 0 0 0 0 0 0 0 0 -1 0 -1 0 -1 0 -1 0 -1 0 -1 0 -1 0 -1 0 -1 0 -1 0 -1 0 -1 0 -1 0 -1 0 -1 0 -1 0 -1 0 -1 0 -1 0 -1 0 -1 0 -1 0 0 0 0 0 0 0 0 0 0 0 0 1 0 1 0 1 0 1 0 1 0 1 0 1 0 1 0 1 0 1 0 1 0 1 0 1 0 1 0 1 0zm417 25l-417 0 0 -25 417 0 0 25zm0 0l0 -25 1 0 1 0 1 0 1 0 1 0 1 0 1 0 1 0 1 0 1 0 1 0 1 0 1 0 1 0 1 0 0 0 0 0 0 0 0 0 0 0 0 0 0 1 0 1 0 1 0 1 0 1 0 1 0 1 0 1 0 1 0 1 0 1 0 1 0 1 0 1 0 1 0 1 0 1 0 1 0 1 0 1 0 1 0 1 0 0 0 0 0 0 0 0 0 0 0 0 -1 0 -1 0 -1 0 -1 0 -1 0 -1 0 -1 0 -1 0 -1 0 -1 0 -1 0 -1 0 -1 0 -1 0 -1 0z"/>
  </g>
  <polygon class="fil5" points="4932,4728 4675,4728 4675,4933 4932,4933 "/>
  <g>
   <path class="fil6" d="M4675 4921l0 25 -1 0 -1 0 -1 0 -1 0 -1 0 -1 0 -1 0 -1 0 -1 0 -1 0 -1 0 -1 0 -1 0 -1 0 -1 0 0 0 0 0 0 0 0 0 0 0 0 0 0 -1 0 -1 0 -1 0 -1 0 -1 0 -1 0 -1 0 -1 0 -1 0 -1 0 -1 0 -1 0 -1 0 -1 0 -1 0 -1 0 -1 0 -1 0 -1 0 -1 0 -1 0 -1 0 0 0 0 0 0 0 0 0 0 0 0 1 0 1 0 1 0 1 0 1 0 1 0 1 0 1 0 1 0 1 0 1 0 1 0 1 0 1 0 1 0zm258 25l-258 0 0 -25 258 0 0 25zm0 0l0 -25 1 0 1 0 1 0 1 0 1 0 1 0 1 0 1 0 1 0 1 0 1 0 1 0 1 0 1 0 1 0 0 0 0 0 0 0 0 0 0 0 0 0 0 1 0 1 0 1 0 1 0 1 0 1 0 1 0 1 0 1 0 1 0 1 0 1 0 1 0 1 0 1 0 1 0 1 0 1 0 1 0 1 0 1 0 1 0 0 0 0 0 0 0 0 0 0 0 0 -1 0 -1 0 -1 0 -1 0 -1 0 -1 0 -1 0 -1 0 -1 0 -1 0 -1 0 -1 0 -1 0 -1 0 -1 0z"/>
  </g>
  <path class="fil2 str0" d="M6166 3603l-28 0 0 -36 49 0c4,0 8,-3 8,-9 0,-6 -4,-9 -8,-9l-58 0c-7,0 -9,4 -9,9l0 117c0,5 3,9 9,9l37 0c25,0 37,-16 37,-37l0 -9c0,-21 -12,-35 -37,-35zm19 46c0,12 -5,18 -18,18l-28 0 0 -48 28 0c13,0 19,7 19,18l0 12zm58 -63c0,-12 5,-21 18,-21l15 0c13,0 18,9 18,21l0 61c0,12 -5,21 -18,21l-15 0c-13,0 -18,-9 -18,-21l0 -61zm70 0c0,-21 -12,-38 -36,-38l-15 0c-24,0 -36,17 -36,38l0 61c0,21 12,38 36,38l15 0c24,0 36,-17 36,-38l0 -61zm54 74c1,-11 11,-93 11,-93l34 0 0 110c0,5 3,9 9,9 6,0 9,-4 9,-9l0 -119c0,-5 -3,-9 -9,-9l-50 0c-6,0 -9,4 -9,9 -1,6 -11,89 -12,97 -1,4 -1,7 -2,9 -2,4 -5,5 -11,5 -5,0 -9,3 -9,9 0,7 4,9 9,9 17,0 24,-5 27,-15 1,-4 2,-7 3,-12zm163 24c4,0 8,-3 8,-9 0,-6 -4,-9 -8,-9l-53 0 0 -43 43 0c4,0 8,-3 8,-9 0,-6 -4,-9 -8,-9l-43 0 0 -39 53 0c4,0 8,-3 8,-9 0,-6 -4,-9 -8,-9l-62 0c-6,0 -9,4 -9,9l0 117c0,5 3,9 9,9l62 0zm116 -127c0,-5 -3,-9 -9,-9 -6,0 -9,4 -9,9l0 48 -50 0 0 -48c0,-5 -2,-9 -9,-9 -6,0 -9,4 -9,9l0 120c0,5 3,9 9,9 6,0 9,-4 9,-9l0 -55 50 0 0 55c0,5 2,9 9,9 6,0 9,-4 9,-9l0 -120z"/>
  <path class="fil2 str0" d="M6077 3624c5,0 10,-3 10,-9 0,-6 -5,-9 -10,-9 -23,0 -17,0 -40,0 -5,0 -10,3 -10,9 0,6 5,9 10,9 23,0 17,0 40,0z"/>
  <path class="fil7 str2" d="M5619 3387c110,0 192,-174 141,-204 -94,-88 -196,207 41,133 118,-37 59,-278 59,5 0,18 241,61 -77,69"/>
  <g>
   <path class="fil2" d="M7117 1586l0 -68 2 0 2 0 2 0 2 0 2 0 2 0 2 1 2 1 2 1 2 1 2 1 2 1 2 1 2 1 1 1 1 1 1 1 1 1 1 1 1 1 1 1 1 1 1 1 1 2 1 2 1 2 1 2 0 2 0 2 0 2 0 2 0 2 0 2 0 2 0 2 0 2 0 2 -1 2 -1 2 -1 2 -1 2 -1 1 -1 1 -1 1 -1 1 -1 1 -1 1 -1 1 -1 1 -1 1 -2 1 -2 1 -2 1 -2 1 -2 1 -2 1 -2 1 -2 1 -2 0 -2 0 -2 0 -2 0 -2 0 -2 0zm-2205 -68l2205 0 0 68 -2205 0 0 -68zm0 0l0 68 -2 0 -2 0 -2 0 -2 0 -2 0 -2 0 -2 -1 -2 -1 -2 -1 -2 -1 -2 -1 -2 -1 -2 -1 -2 -1 -1 -1 -1 -1 -1 -1 -1 -1 -1 -1 -1 -1 -1 -1 -1 -1 -1 -1 -1 -2 -1 -2 -1 -2 -1 -2 0 -2 0 -2 0 -2 0 -2 0 -2 0 -2 0 -2 0 -2 0 -2 0 -2 1 -2 1 -2 1 -2 1 -2 1 -1 1 -1 1 -1 1 -1 1 -1 1 -1 1 -1 1 -1 1 -1 2 -1 2 -1 2 -1 2 -1 2 -1 2 -1 2 -1 2 -1 2 0 2 0 2 0 2 0 2 0 2 0z"/>
  </g>
  <polygon class="fil5" points="7315,2755 4530,2755 4530,3099 7315,3099 "/>
  <path class="fil6 str3" d="M5601 2898c0,-25 9,-41 28,-41l8 0c19,0 27,15 27,41l0 55c0,25 -9,41 -27,41l-8 0c-19,0 -28,-15 -28,-41l0 -55zm86 0c0,-39 -17,-64 -50,-64l-8 0c-33,0 -50,25 -50,64l0 55c0,39 17,64 50,64l8 0c33,0 50,-25 50,-64l0 -55zm173 0c0,-25 9,-41 28,-41l8 0c19,0 27,15 27,41l0 55c0,25 -9,41 -27,41l-8 0c-19,0 -28,-15 -28,-41l0 -55zm86 0c0,-39 -17,-64 -50,-64l-8 0c-33,0 -50,25 -50,64l0 55c0,39 17,64 50,64l8 0c33,0 50,-25 50,-64l0 -55zm173 0c0,-25 9,-41 28,-41l8 0c19,0 27,15 27,41l0 55c0,25 -9,41 -27,41l-8 0c-19,0 -28,-15 -28,-41l0 -55zm86 0c0,-39 -17,-64 -50,-64l-8 0c-33,0 -50,25 -50,64l0 55c0,39 17,64 50,64l8 0c33,0 50,-25 50,-64l0 -55zm173 0c0,-25 9,-41 28,-41l8 0c19,0 27,15 27,41l0 55c0,25 -9,41 -27,41l-8 0c-19,0 -28,-15 -28,-41l0 -55zm86 0c0,-39 -17,-64 -50,-64l-8 0c-33,0 -50,25 -50,64l0 55c0,39 17,64 50,64l8 0c33,0 50,-25 50,-64l0 -55zm264 -52c0,-6 -4,-12 -11,-12 -8,0 -11,6 -11,12l0 63 -63 0 0 -63c0,-6 -3,-12 -11,-12 -8,0 -11,6 -11,12l0 159c0,6 4,12 11,12 8,0 11,-6 11,-12l0 -73 63 0 0 73c0,6 3,12 11,12 8,0 11,-6 11,-12l0 -159zm77 149c-16,0 -22,-11 -22,-27l0 -40c0,-16 6,-27 22,-27l10 0c16,0 22,11 22,27l0 40c0,16 -6,27 -22,27l-10 0zm10 22c30,0 44,-21 44,-49l0 -40c0,-28 -14,-49 -44,-49l-10 0c-30,0 -44,21 -44,49l0 40c0,28 14,49 44,49l10 0zm160 -134l-53 0c-7,0 -11,5 -12,12l-11 87c-1,8 -7,15 -14,15 -5,0 -10,4 -10,11 0,7 5,11 10,11 17,0 30,-9 33,-32l10 -81 35 0 0 101c0,6 3,12 11,12 8,0 11,-5 11,-12l0 -111c0,-6 -3,-12 -11,-12zm69 43l0 -34c0,-6 -3,-12 -10,-12 -8,0 -11,6 -11,12l0 112c0,6 3,11 11,11l44 0c22,0 36,-16 36,-39l0 -8c0,-26 -17,-42 -41,-42l-29 0zm49 50c0,9 -6,17 -17,17l-32 0 0 -46 29 0c15,0 20,10 20,21l0 7z"/>
  <g>
   <path class="fil2" d="M5517 2781l-27 0 0 -1 0 -1 0 -1 0 -1 0 -1 0 -1 0 -1 0 -1 0 -1 0 -1 0 0 0 0 0 0 0 0 0 0 0 0 0 0 1 0 1 0 1 0 1 0 1 0 1 0 1 0 1 0 1 0 1 0 1 0 1 0 1 0 1 0 1 0 1 0 1 0 1 0 1 0 1 0 1 0 1 0 1 0 1 0 1 0 1 0 1 0 1 0 1 0 1 0 0 0 0 0 0 0 0 0 0 0 0 0 0 0 0 1 0 1 0 1 0 1 0 1 0 1 0 1 0 1 0 1 0 1zm-27 293l0 -293 27 0 0 293 -27 0zm0 0l27 0 0 1 0 1 0 1 0 1 0 1 0 1 0 1 0 1 0 1 0 1 0 0 0 0 0 0 0 0 0 0 0 0 0 0 -1 0 -1 0 -1 0 -1 0 -1 0 -1 0 -1 0 -1 0 -1 0 -1 0 -1 0 -1 0 -1 0 -1 0 -1 0 -1 0 -1 0 -1 0 -1 0 -1 0 -1 0 -1 0 -1 0 -1 0 -1 0 -1 0 -1 0 -1 0 -1 0 -1 0 0 0 0 0 0 0 0 0 0 0 0 0 0 0 0 -1 0 -1 0 -1 0 -1 0 -1 0 -1 0 -1 0 -1 0 -1 0 -1zm14 14l0 23 -1 0 -1 0 -1 0 -1 0 -1 0 -1 0 -1 0 -1 0 -1 0 -1 0 -1 0 -1 0 -1 0 -1 0 -1 0 0 0 0 0 0 0 0 0 0 0 0 0 0 0 0 -1 0 -1 0 -1 0 -1 0 -1 0 -1 0 -1 0 -1 0 -1 0 -1 0 -1 0 -1 0 -1 0 -1 0 -1 0 -1 0 -1 0 -1 0 -1 0 -1 0 0 0 0 0 0 0 0 0 0 0 0 0 0 1 0 1 0 1 0 1 0 1 0 1 0 1 0 1 0 1 0 1 0 1 0 1 0 1 0 1 0 1 0zm1812 23l-1812 0 0 -23 1812 0 0 23zm0 0l0 -23 1 0 1 0 1 0 1 0 1 0 1 0 1 0 1 0 1 0 1 0 1 0 1 0 1 0 1 0 1 0 0 0 0 0 0 0 0 0 0 0 0 0 0 0 0 1 0 1 0 1 0 1 0 1 0 1 0 1 0 1 0 1 0 1 0 1 0 1 0 1 0 1 0 1 0 1 0 1 0 1 0 1 0 1 0 0 0 0 0 0 0 0 0 0 0 0 0 0 -1 0 -1 0 -1 0 -1 0 -1 0 -1 0 -1 0 -1 0 -1 0 -1 0 -1 0 -1 0 -1 0 -1 0 -1 0zm-1812 -368l0 23 -1 0 -1 0 -1 0 -1 0 -1 0 -1 0 -1 0 -1 0 -1 0 -1 0 -1 0 -1 0 -1 0 -1 0 -1 0 0 0 0 0 0 0 0 0 0 0 0 0 0 0 0 -1 0 -1 0 -1 0 -1 0 -1 0 -1 0 -1 0 -1 0 -1 0 -1 0 -1 0 -1 0 -1 0 -1 0 -1 0 -1 0 -1 0 -1 0 -1 0 -1 0 0 0 0 0 0 0 0 0 0 0 0 0 0 1 0 1 0 1 0 1 0 1 0 1 0 1 0 1 0 1 0 1 0 1 0 1 0 1 0 1 0 1 0zm1812 23l-1812 0 0 -23 1812 0 0 23zm0 0l0 -23 1 0 1 0 1 0 1 0 1 0 1 0 1 0 1 0 1 0 1 0 1 0 1 0 1 0 1 0 1 0 0 0 0 0 0 0 0 0 0 0 0 0 0 0 0 1 0 1 0 1 0 1 0 1 0 1 0 1 0 1 0 1 0 1 0 1 0 1 0 1 0 1 0 1 0 1 0 1 0 1 0 1 0 1 0 0 0 0 0 0 0 0 0 0 0 0 0 0 -1 0 -1 0 -1 0 -1 0 -1 0 -1 0 -1 0 -1 0 -1 0 -1 0 -1 0 -1 0 -1 0 -1 0 -1 0zm15 14l-27 0 0 -1 0 -1 0 -1 0 -1 0 -1 0 -1 0 -1 0 -1 0 -1 0 -1 0 0 0 0 0 0 0 0 0 0 0 0 0 0 1 0 1 0 1 0 1 0 1 0 1 0 1 0 1 0 1 0 1 0 1 0 1 0 1 0 1 0 1 0 1 0 1 0 1 0 1 0 1 0 1 0 1 0 1 0 1 0 1 0 1 0 1 0 1 0 1 0 1 0 0 0 0 0 0 0 0 0 0 0 0 0 0 0 0 1 0 1 0 1 0 1 0 1 0 1 0 1 0 1 0 1 0 1zm-27 293l0 -293 27 0 0 293 -27 0zm0 0l27 0 0 1 0 1 0 1 0 1 0 1 0 1 0 1 0 1 0 1 0 1 0 0 0 0 0 0 0 0 0 0 0 0 0 0 -1 0 -1 0 -1 0 -1 0 -1 0 -1 0 -1 0 -1 0 -1 0 -1 0 -1 0 -1 0 -1 0 -1 0 -1 0 -1 0 -1 0 -1 0 -1 0 -1 0 -1 0 -1 0 -1 0 -1 0 -1 0 -1 0 -1 0 -1 0 -1 0 -1 0 0 0 0 0 0 0 0 0 0 0 0 0 0 0 0 -1 0 -1 0 -1 0 -1 0 -1 0 -1 0 -1 0 -1 0 -1 0 -1zm-755 -293l-27 0 0 -1 0 -1 0 -1 0 -1 0 -1 0 -1 0 -1 0 -1 0 -1 0 -1 0 0 0 0 0 0 0 0 0 0 0 0 0 0 1 0 1 0 1 0 1 0 1 0 1 0 1 0 1 0 1 0 1 0 1 0 1 0 1 0 1 0 1 0 1 0 1 0 1 0 1 0 1 0 1 0 1 0 1 0 1 0 1 0 1 0 1 0 1 0 1 0 1 0 0 0 0 0 0 0 0 0 0 0 0 0 0 0 0 1 0 1 0 1 0 1 0 1 0 1 0 1 0 1 0 1 0 1zm-27 293l0 -293 27 0 0 293 -27 0zm0 0l27 0 0 1 0 1 0 1 0 1 0 1 0 1 0 1 0 1 0 1 0 1 0 0 0 0 0 0 0 0 0 0 0 0 0 0 -1 0 -1 0 -1 0 -1 0 -1 0 -1 0 -1 0 -1 0 -1 0 -1 0 -1 0 -1 0 -1 0 -1 0 -1 0 -1 0 -1 0 -1 0 -1 0 -1 0 -1 0 -1 0 -1 0 -1 0 -1 0 -1 0 -1 0 -1 0 -1 0 -1 0 0 0 0 0 0 0 0 0 0 0 0 0 0 0 0 -1 0 -1 0 -1 0 -1 0 -1 0 -1 0 -1 0 -1 0 -1 0 -1zm-231 -293l-27 0 0 -1 0 -1 0 -1 0 -1 0 -1 0 -1 0 -1 0 -1 0 -1 0 -1 0 0 0 0 0 0 0 0 0 0 0 0 0 0 1 0 1 0 1 0 1 0 1 0 1 0 1 0 1 0 1 0 1 0 1 0 1 0 1 0 1 0 1 0 1 0 1 0 1 0 1 0 1 0 1 0 1 0 1 0 1 0 1 0 1 0 1 0 1 0 1 0 1 0 0 0 0 0 0 0 0 0 0 0 0 0 0 0 0 1 0 1 0 1 0 1 0 1 0 1 0 1 0 1 0 1 0 1zm-27 293l0 -293 27 0 0 293 -27 0zm0 0l27 0 0 1 0 1 0 1 0 1 0 1 0 1 0 1 0 1 0 1 0 1 0 0 0 0 0 0 0 0 0 0 0 0 0 0 -1 0 -1 0 -1 0 -1 0 -1 0 -1 0 -1 0 -1 0 -1 0 -1 0 -1 0 -1 0 -1 0 -1 0 -1 0 -1 0 -1 0 -1 0 -1 0 -1 0 -1 0 -1 0 -1 0 -1 0 -1 0 -1 0 -1 0 -1 0 -1 0 -1 0 0 0 0 0 0 0 0 0 0 0 0 0 0 0 0 -1 0 -1 0 -1 0 -1 0 -1 0 -1 0 -1 0 -1 0 -1 0 -1zm-231 -293l-27 0 0 -1 0 -1 0 -1 0 -1 0 -1 0 -1 0 -1 0 -1 0 -1 0 -1 0 0 0 0 0 0 0 0 0 0 0 0 0 0 1 0 1 0 1 0 1 0 1 0 1 0 1 0 1 0 1 0 1 0 1 0 1 0 1 0 1 0 1 0 1 0 1 0 1 0 1 0 1 0 1 0 1 0 1 0 1 0 1 0 1 0 1 0 1 0 1 0 1 0 0 0 0 0 0 0 0 0 0 0 0 0 0 0 0 1 0 1 0 1 0 1 0 1 0 1 0 1 0 1 0 1 0 1zm-27 293l0 -293 27 0 0 293 -27 0zm0 0l27 0 0 1 0 1 0 1 0 1 0 1 0 1 0 1 0 1 0 1 0 1 0 0 0 0 0 0 0 0 0 0 0 0 0 0 -1 0 -1 0 -1 0 -1 0 -1 0 -1 0 -1 0 -1 0 -1 0 -1 0 -1 0 -1 0 -1 0 -1 0 -1 0 -1 0 -1 0 -1 0 -1 0 -1 0 -1 0 -1 0 -1 0 -1 0 -1 0 -1 0 -1 0 -1 0 -1 0 -1 0 0 0 0 0 0 0 0 0 0 0 0 0 0 0 0 -1 0 -1 0 -1 0 -1 0 -1 0 -1 0 -1 0 -1 0 -1 0 -1zm-231 -293l-27 0 0 -1 0 -1 0 -1 0 -1 0 -1 0 -1 0 -1 0 -1 0 -1 0 -1 0 0 0 0 0 0 0 0 0 0 0 0 0 0 1 0 1 0 1 0 1 0 1 0 1 0 1 0 1 0 1 0 1 0 1 0 1 0 1 0 1 0 1 0 1 0 1 0 1 0 1 0 1 0 1 0 1 0 1 0 1 0 1 0 1 0 1 0 1 0 1 0 1 0 0 0 0 0 0 0 0 0 0 0 0 0 0 0 0 1 0 1 0 1 0 1 0 1 0 1 0 1 0 1 0 1 0 1zm-27 293l0 -293 27 0 0 293 -27 0zm0 0l27 0 0 1 0 1 0 1 0 1 0 1 0 1 0 1 0 1 0 1 0 1 0 0 0 0 0 0 0 0 0 0 0 0 0 0 -1 0 -1 0 -1 0 -1 0 -1 0 -1 0 -1 0 -1 0 -1 0 -1 0 -1 0 -1 0 -1 0 -1 0 -1 0 -1 0 -1 0 -1 0 -1 0 -1 0 -1 0 -1 0 -1 0 -1 0 -1 0 -1 0 -1 0 -1 0 -1 0 -1 0 0 0 0 0 0 0 0 0 0 0 0 0 0 0 0 -1 0 -1 0 -1 0 -1 0 -1 0 -1 0 -1 0 -1 0 -1 0 -1z"/>
  </g>
  <path class="fil7 str4" d="M5056 5019c220,-59 446,72 504,291 59,220 -72,446 -291,504 -220,59 -446,-72 -504,-291 -59,-220 72,-446 291,-504zm-201 399c-1,-137 90,-262 228,-299 138,-37 279,26 347,145m41 152c1,137 -90,262 -228,299 -138,37 -279,-26 -347,-145m312 40c-36,10 -5,-34 -48,-22 -20,5 -54,62 -64,55 -11,-8 -42,-31 -37,-43 10,-25 13,-53 39,-68 -19,-13 -74,6 -80,-20 0,-1 -117,-69 -65,-115 10,-9 -11,-42 -4,-66 6,-20 157,-3 151,-24 -3,-10 -19,-33 -54,-37 -6,-1 32,-10 53,-18 4,-2 -10,-15 -8,-17 8,-6 9,-8 19,-11m400 95c0,0 -23,23 -6,27m-683 178c-2,-16 25,-17 0,-34m398 118c36,-10 -13,-32 30,-43 20,-5 78,27 83,15 5,-12 21,-48 11,-56 -21,-16 -37,-40 -68,-39 10,-20 67,-32 59,-58 0,-1 67,-118 -2,-132 -13,-3 -11,-42 -30,-59 -16,-14 -137,76 -143,55 -3,-10 0,-38 28,-59 5,-4 -33,8 -55,11 -4,1 1,-18 -2,-18 -10,-1 -12,-3 -22,0"/>
  <path class="fil7 str2" d="M5699 3495c-139,416 -44,180 -108,143 -64,-37 235,-179 215,-65 -20,114 -235,86 -229,110 6,24 90,40 115,-20 25,-61 -12,47 55,29 66,-19 94,-73 83,-42 -11,30 8,25 43,7 35,-19 75,-38 75,-38"/>
  <path class="fil2" d="M4833 2985l-38 -62 34 -47c2,-2 3,-5 3,-7 0,-2 -1,-5 -4,-7 -2,-2 -4,-2 -6,-2 -4,0 -7,2 -9,5l-35 49 -4 0 0 -43c0,-5 -3,-10 -10,-10 -7,0 -10,5 -10,10l0 43 -4 0 -35 -49c-2,-3 -6,-5 -9,-5 -2,0 -4,1 -6,2 -2,2 -4,5 -4,7 0,2 1,5 3,7l34 47 -38 62c-3,5 -3,11 4,15 6,4 12,1 14,-4 12,-20 25,-41 37,-62l5 0 0 56c0,5 3,10 10,10 7,0 10,-5 10,-10l0 -56 4 0 37 62c2,4 8,7 14,4 6,-4 6,-10 4,-15zm76 -24l10 32c2,5 7,9 13,6 6,-2 8,-7 6,-13l-38 -119c-2,-5 -4,-8 -10,-8l-1 0c-6,0 -9,3 -10,8l-38 119c-2,5 0,11 6,13 6,2 12,-1 13,-6 3,-11 7,-22 10,-32l39 0zm-6 -19l-28 0 11 -35c1,-4 2,-6 3,-11l0 0c1,5 2,7 3,11l11 35zm80 31l11 -91 30 0 0 108c0,5 3,10 11,10 7,0 10,-5 10,-10l0 -118c0,-5 -3,-10 -10,-10l-50 0c-6,0 -10,4 -11,10l-12 96c-1,4 -1,7 -2,9 -2,3 -4,4 -9,4 -5,0 -10,3 -10,10 0,8 5,10 10,10 17,0 25,-6 29,-16 2,-4 2,-8 3,-12zm107 -73c0,-11 5,-19 17,-19l15 0c12,0 17,9 17,19l0 61c0,11 -5,19 -17,19l-15 0c-12,0 -17,-9 -17,-19l0 -61zm70 0c0,-22 -13,-40 -38,-40l-15 0c-25,0 -38,18 -38,40l0 61c0,22 13,40 38,40l15 0c25,0 38,-18 38,-40l0 -61zm71 15l-26 0 0 -33 47 0c5,0 10,-3 10,-10 0,-7 -5,-10 -10,-10l-57 0c-8,0 -11,5 -11,10l0 116c0,5 3,10 11,10l36 0c25,0 38,-17 38,-38l0 -9c0,-22 -13,-37 -38,-37zm17 47c0,10 -5,16 -17,16l-26 0 0 -44 26 0c12,0 17,6 17,17l0 11zm84 -48l-22 0 0 -43c0,-5 -3,-10 -10,-10 -7,0 -10,5 -10,10l0 118c0,5 3,10 11,10l32 0c25,0 38,-17 38,-38l0 -9c0,-22 -12,-38 -38,-38zm17 48c0,10 -5,16 -17,16l-22 0 0 -44 22 0c12,0 17,6 17,17l0 11zm55 -91c0,-5 -3,-10 -10,-10 -8,0 -10,5 -10,10l0 119c0,5 3,10 10,10 7,0 10,-5 10,-10l0 -119z"/>
  <path class="fil7 str2" d="M5624 3905c-21,-73 263,-95 198,83 -20,55 -155,132 -143,12 -46,-43 -111,-64 -111,40 0,56 58,-62 129,-87 75,-27 23,-14 23,87 0,-5 64,-62 64,-86 0,115 7,-44 21,19 21,93 40,4 125,7 34,1 4,7 6,7"/>
  <path class="fil7 str2" d="M5611 4284c-3,89 182,-14 159,-142 -33,0 -95,351 65,116 76,-113 -493,-5 -113,-5 75,0 160,6 227,6"/>
  <path class="fil7 str5" d="M4755 4802c-77,-24 -21,191 30,76 38,-88 -47,-116 -42,-70 1,5 96,24 96,-38 -7,0 28,206 -20,110 -6,-11 56,11 54,-5m2026 -111c-7,-12 36,-8 59,-8m45 -27c0,-26 13,74 -13,96 -1,1 89,9 57,-43 -1,-1 -4,73 -4,97m-141 -134c-20,78 34,11 53,82 13,51 -89,50 -86,14 8,0 31,9 32,15m-575 -60c57,-4 62,-32 83,-82 9,-21 -29,45 -20,160m-110 -67c-70,2 58,-128 47,-11 -3,35 -107,64 -55,83 24,9 57,-41 90,4m-549 -110c-58,-43 88,-1 72,-46 -44,-15 -34,272 -64,131 23,20 -40,-27 -28,-27 21,0 74,-3 92,3m-133 -23c41,-56 12,-138 12,57 0,1 -1,39 6,18m-671 -49c4,-11 99,-137 29,-137 -63,0 73,281 -20,223 -36,-23 -11,-124 66,-62 33,26 47,-76 38,-4 -5,44 39,-51 16,28 38,-54 84,36 80,-66 -1,-14 114,42 -17,88 -1,4 -1,4 -1,8"/>
  <path class="fil2 str0" d="M6077 4267c5,0 10,-2 10,-9 0,-6 -5,-9 -10,-9 -23,0 -17,0 -40,0 -5,0 -10,3 -10,9 0,6 5,9 10,9 23,0 17,0 40,0z"/>
  <path class="fil8 str6" d="M7661 1082l0 4901c-1098,0 -2195,0 -3293,0l0 -4901 3293 0z"/>
 </g>
</svg>
