<?xml version="1.0" encoding="UTF-8"?>
<!DOCTYPE svg PUBLIC "-//W3C//DTD SVG 1.1//EN" "http://www.w3.org/Graphics/SVG/1.1/DTD/svg11.dtd">
<!-- Creator: CorelDRAW X6 -->
<svg xmlns="http://www.w3.org/2000/svg" xml:space="preserve" width="115.711mm" height="70.5556mm" version="1.1" style="shape-rendering:geometricPrecision; text-rendering:geometricPrecision; image-rendering:optimizeQuality; fill-rule:evenodd; clip-rule:evenodd"
viewBox="0 0 11571 7056"
 xmlns:xlink="http://www.w3.org/1999/xlink">
 <defs>
  <style type="text/css">
   <![CDATA[
    .str1 {stroke:#806350;stroke-width:10}
    .str5 {stroke:#B9687A;stroke-width:12.73}
    .str2 {stroke:#4780BF;stroke-width:32;stroke-linecap:round;stroke-linejoin:round}
    .str4 {stroke:#CC7587;stroke-width:32.31}
    .str3 {stroke:#008CD1;stroke-width:41;stroke-linecap:round;stroke-linejoin:round}
    .str6 {stroke:#806350;stroke-width:16.12}
    .str0 {stroke:#AB8082;stroke-width:88.51;stroke-linecap:round;stroke-linejoin:round}
    .fil3 {fill:none}
    .fil6 {fill:none;fill-rule:nonzero}
    .fil8 {fill:#CC7587}
    .fil2 {fill:#FFF7B3}
    .fil1 {fill:#FFFADB}
    .fil9 {fill:#B9687A;fill-rule:nonzero}
    .fil10 {fill:#4780BF;fill-rule:nonzero}
    .fil5 {fill:#806350;fill-rule:nonzero}
    .fil4 {fill:#A37D66;fill-rule:nonzero}
    .fil7 {fill:#CC7587;fill-rule:nonzero}
    .fil0 {fill:url(#id0)}
   ]]>
  </style>
  <radialGradient id="id0" gradientUnits="objectBoundingBox" cx="50%" cy="50%" r="50%" fx="50%" fy="50%">
   <stop offset="0" style="stop-color:#FEFEFE"/>
   <stop offset="0.439216" style="stop-color:#FEFEFE"/>
   <stop offset="1" style="stop-color:#D1E2F2"/>
  </radialGradient>
 </defs>
 <g id="Layer_x0020_1">
  <metadata id="CorelCorpID_0Corel-Layer"/>
  <polygon class="fil0" points="0,0 11571,0 11571,7056 0,7056 "/>
  <g id="_725351056">
   <path class="fil1" d="M8945 1343l0 4887c-1220,0 -2038,0 -3258,0l0 -4887 3258 0z"/>
   <path class="fil2" d="M5687 1343l3258 0 0 2703 -3258 -1548c6,-160 0,-1048 0,-1155z"/>
   <path class="fil3 str0" d="M8945 1343l0 4887c-1220,0 -2038,0 -3258,0l0 -4887 3258 0z"/>
   <g>
    <path class="fil4" d="M8402 2584l0 -68 2 0 2 0 2 0 2 0 2 0 2 0 2 1 2 1 2 1 2 1 2 1 2 1 2 1 2 1 1 1 1 1 1 1 1 1 1 1 1 1 1 1 1 1 1 1 1 2 1 2 1 2 1 2 0 2 0 2 0 2 0 2 0 2 0 2 0 2 0 2 0 2 0 2 -1 2 -1 2 -1 2 -1 2 -1 1 -1 1 -1 1 -1 1 -1 1 -1 1 -1 1 -1 1 -1 1 -2 1 -2 1 -2 1 -2 1 -2 1 -2 1 -2 1 -2 1 -2 0 -2 0 -2 0 -2 0 -2 0 -2 0zm-2198 -68l2198 0 0 68 -2198 0 0 -68zm0 0l0 68 -2 0 -2 0 -2 0 -2 0 -2 0 -2 0 -2 -1 -2 -1 -2 -1 -2 -1 -2 -1 -2 -1 -2 -1 -2 -1 -1 -1 -1 -1 -1 -1 -1 -1 -1 -1 -1 -1 -1 -1 -1 -1 -1 -1 -1 -2 -1 -2 -1 -2 -1 -2 0 -2 0 -2 0 -2 0 -2 0 -2 0 -2 0 -2 0 -2 0 -2 0 -2 1 -2 1 -2 1 -2 1 -2 1 -1 1 -1 1 -1 1 -1 1 -1 1 -1 1 -1 1 -1 1 -1 2 -1 2 -1 2 -1 2 -1 2 -1 2 -1 2 -1 2 -1 2 0 2 0 2 0 2 0 2 0 2 0zm1508 314l0 -68 2 0 2 0 2 0 2 0 2 0 2 0 2 1 2 1 2 1 2 1 2 1 2 1 2 1 2 1 1 1 1 1 1 1 1 1 1 1 1 1 1 1 1 1 1 1 1 2 1 2 1 2 1 2 0 2 0 2 0 2 0 2 0 2 0 2 0 2 0 2 0 2 0 2 -1 2 -1 2 -1 2 -1 2 -1 1 -1 1 -1 1 -1 1 -1 1 -1 1 -1 1 -1 1 -1 1 -2 1 -2 1 -2 1 -2 1 -2 1 -2 1 -2 1 -2 1 -2 0 -2 0 -2 0 -2 0 -2 0 -2 0zm-1508 0l0 -68 47 0 47 0 47 0 47 0 47 0 47 0 47 0 47 0 47 0 47 0 47 0 47 0 47 0 47 0 47 0 47 0 47 0 47 0 47 0 47 0 47 0 47 0 47 0 47 0 47 0 47 0 47 0 47 0 47 0 47 0 47 0 47 0 0 68 -47 0 -47 0 -47 0 -47 0 -47 0 -47 0 -47 0 -47 0 -47 0 -47 0 -47 0 -47 0 -47 0 -47 0 -47 0 -47 0 -47 0 -47 0 -47 0 -47 0 -47 0 -47 0 -47 0 -47 0 -47 0 -47 0 -47 0 -47 0 -47 0 -47 0 -47 0 -47 0zm0 -68l0 68 -2 0 -2 0 -2 0 -2 0 -2 0 -2 0 -2 -1 -2 -1 -2 -1 -2 -1 -2 -1 -2 -1 -2 -1 -2 -1 -1 -1 -1 -1 -1 -1 -1 -1 -1 -1 -1 -1 -1 -1 -1 -1 -1 -1 -1 -2 -1 -2 -1 -2 -1 -2 0 -2 0 -2 0 -2 0 -2 0 -2 0 -2 0 -2 0 -2 0 -2 0 -2 1 -2 1 -2 1 -2 1 -2 1 -1 1 -1 1 -1 1 -1 1 -1 1 -1 1 -1 1 -1 1 -1 2 -1 2 -1 2 -1 2 -1 2 -1 2 -1 2 -1 2 -1 2 0 2 0 2 0 2 0 2 0 2 0z"/>
   </g>
   <g>
    <path class="fil4" d="M8402 2338l0 -68 2 0 2 0 2 0 2 0 2 0 1 0 1 1 1 1 1 1 1 1 1 1 1 1 1 1 1 1 1 1 1 1 1 1 1 1 1 1 1 1 1 1 1 1 1 1 1 2 1 2 0 2 0 2 0 2 0 2 0 2 0 2 0 2 0 2 0 2 0 2 0 2 0 2 0 2 0 2 -1 2 -1 2 -1 1 -1 1 -1 1 -1 1 -1 1 -1 1 -1 1 -1 1 -1 1 -1 1 -1 1 -1 1 -1 1 -1 1 -1 1 -1 1 -1 1 -1 0 -2 0 -2 0 -2 0 -2 0 -2 0zm-2198 -68l2198 0 0 68 -2198 0 0 -68zm0 0l0 68 -2 0 -2 0 -2 0 -2 0 -2 0 -1 0 -1 -1 -1 -1 -1 -1 -1 -1 -1 -1 -1 -1 -1 -1 -1 -1 -1 -1 -1 -1 -1 -1 -1 -1 -1 -1 -1 -1 -1 -1 -1 -1 -1 -1 -1 -2 -1 -2 0 -2 0 -2 0 -2 0 -2 0 -2 0 -2 0 -2 0 -2 0 -2 0 -2 0 -2 0 -2 0 -2 0 -2 1 -2 1 -2 1 -1 1 -1 1 -1 1 -1 1 -1 1 -1 1 -1 1 -1 1 -1 1 -1 1 -1 1 -1 1 -1 1 -1 1 -1 1 -1 1 -1 1 0 2 0 2 0 2 0 2 0 2 0z"/>
   </g>
   <g>
    <path class="fil4" d="M8402 2091l0 -68 2 0 2 0 2 0 2 0 2 0 2 0 2 1 2 1 2 1 2 1 2 1 2 1 2 1 2 1 1 1 1 1 1 1 1 1 1 1 1 1 1 1 1 1 1 1 1 2 1 2 1 2 1 2 0 2 0 2 0 2 0 2 0 2 0 2 0 2 0 2 0 2 0 2 -1 2 -1 2 -1 2 -1 2 -1 1 -1 1 -1 1 -1 1 -1 1 -1 1 -1 1 -1 1 -1 1 -2 1 -2 1 -2 1 -2 1 -2 1 -2 1 -2 1 -2 1 -2 0 -2 0 -2 0 -2 0 -2 0 -2 0zm-2198 -68l2198 0 0 68 -2198 0 0 -68zm0 0l0 68 -2 0 -2 0 -2 0 -2 0 -2 0 -2 0 -2 -1 -2 -1 -2 -1 -2 -1 -2 -1 -2 -1 -2 -1 -2 -1 -1 -1 -1 -1 -1 -1 -1 -1 -1 -1 -1 -1 -1 -1 -1 -1 -1 -1 -1 -2 -1 -2 -1 -2 -1 -2 0 -2 0 -2 0 -2 0 -2 0 -2 0 -2 0 -2 0 -2 0 -2 0 -2 1 -2 1 -2 1 -2 1 -2 1 -1 1 -1 1 -1 1 -1 1 -1 1 -1 1 -1 1 -1 1 -1 2 -1 2 -1 2 -1 2 -1 2 -1 2 -1 2 -1 2 -1 2 0 2 0 2 0 2 0 2 0 2 0z"/>
   </g>
   <path class="fil5 str1" d="M7365 3877c5,0 10,-2 10,-9 0,-6 -5,-9 -10,-9 -23,0 -17,0 -40,0 -5,0 -10,3 -10,9 0,6 5,9 10,9 23,0 17,0 40,0z"/>
   <path class="fil6 str2" d="M6908 3624c110,0 191,-160 141,-188 -94,-82 -195,192 40,123 117,-34 59,-257 59,4 0,17 241,56 -77,63"/>
   <g>
    <path class="fil4" d="M8402 1845l0 -68 2 0 2 0 2 0 2 0 2 0 2 0 2 1 2 1 2 1 2 1 2 1 2 1 2 1 2 1 1 1 1 1 1 1 1 1 1 1 1 1 1 1 1 1 1 1 1 2 1 2 1 2 1 2 0 2 0 2 0 2 0 2 0 2 0 2 0 2 0 2 0 2 0 2 -1 2 -1 2 -1 2 -1 2 -1 1 -1 1 -1 1 -1 1 -1 1 -1 1 -1 1 -1 1 -1 1 -2 1 -2 1 -2 1 -2 1 -2 1 -2 1 -2 1 -2 1 -2 0 -2 0 -2 0 -2 0 -2 0 -2 0zm-2198 -68l2198 0 0 68 -2198 0 0 -68zm0 0l0 68 -2 0 -2 0 -2 0 -2 0 -2 0 -2 0 -2 -1 -2 -1 -2 -1 -2 -1 -2 -1 -2 -1 -2 -1 -2 -1 -1 -1 -1 -1 -1 -1 -1 -1 -1 -1 -1 -1 -1 -1 -1 -1 -1 -1 -1 -2 -1 -2 -1 -2 -1 -2 0 -2 0 -2 0 -2 0 -2 0 -2 0 -2 0 -2 0 -2 0 -2 0 -2 1 -2 1 -2 1 -2 1 -2 1 -1 1 -1 1 -1 1 -1 1 -1 1 -1 1 -1 1 -1 1 -1 2 -1 2 -1 2 -1 2 -1 2 -1 2 -1 2 -1 2 -1 2 0 2 0 2 0 2 0 2 0 2 0z"/>
   </g>
   <g>
    <path class="fil4" d="M6807 3036l-27 0 0 -1 0 -1 0 -1 0 -1 0 -1 0 -1 0 -1 0 -1 0 -1 0 -1 0 0 0 0 0 0 0 0 0 0 0 0 0 0 0 0 1 0 1 0 1 0 1 0 1 0 1 0 1 0 1 0 1 0 1 0 1 0 1 0 1 0 1 0 1 0 1 0 1 0 1 0 1 0 1 0 1 0 1 0 1 0 1 0 1 0 1 0 1 0 1 0 0 0 0 0 0 0 0 0 0 0 0 0 0 0 0 0 0 1 0 1 0 1 0 1 0 1 0 1 0 1 0 1 0 1 0 1zm-27 292l0 -292 27 0 0 292 -27 0zm0 0l27 0 0 1 0 1 0 1 0 1 0 1 0 1 0 1 0 1 0 1 0 1 0 0 0 0 0 0 0 0 0 0 0 0 0 0 0 0 -1 0 -1 0 -1 0 -1 0 -1 0 -1 0 -1 0 -1 0 -1 0 -1 0 -1 0 -1 0 -1 0 -1 0 -1 0 -1 0 -1 0 -1 0 -1 0 -1 0 -1 0 -1 0 -1 0 -1 0 -1 0 -1 0 -1 0 -1 0 0 0 0 0 0 0 0 0 0 0 0 0 0 0 0 0 0 -1 0 -1 0 -1 0 -1 0 -1 0 -1 0 -1 0 -1 0 -1 0 -1zm14 14l0 23 -1 0 -1 0 -1 0 -1 0 -1 0 -1 0 -1 0 -1 0 -1 0 -1 0 -1 0 -1 0 -1 0 -1 0 0 0 0 0 0 0 0 0 0 0 0 0 0 0 0 0 0 -1 0 -1 0 -1 0 -1 0 -1 0 -1 0 -1 0 -1 0 -1 0 -1 0 -1 0 -1 0 -1 0 -1 0 -1 0 -1 0 -1 0 -1 0 -1 0 -1 0 0 0 0 0 0 0 0 0 0 0 0 0 0 0 0 1 0 1 0 1 0 1 0 1 0 1 0 1 0 1 0 1 0 1 0 1 0 1 0 1 0 1 0zm1806 23l-1806 0 0 -23 1806 0 0 23zm0 0l0 -23 1 0 1 0 1 0 1 0 1 0 1 0 1 0 1 0 1 0 1 0 1 0 1 0 1 0 1 0 0 0 0 0 0 0 0 0 0 0 0 0 0 0 0 0 0 1 0 1 0 1 0 1 0 1 0 1 0 1 0 1 0 1 0 1 0 1 0 1 0 1 0 1 0 1 0 1 0 1 0 1 0 1 0 1 0 0 0 0 0 0 0 0 0 0 0 0 0 0 0 0 -1 0 -1 0 -1 0 -1 0 -1 0 -1 0 -1 0 -1 0 -1 0 -1 0 -1 0 -1 0 -1 0 -1 0zm-1806 -367l0 23 -1 0 -1 0 -1 0 -1 0 -1 0 -1 0 -1 0 -1 0 -1 0 -1 0 -1 0 -1 0 -1 0 -1 0 0 0 0 0 0 0 0 0 0 0 0 0 0 0 0 0 0 -1 0 -1 0 -1 0 -1 0 -1 0 -1 0 -1 0 -1 0 -1 0 -1 0 -1 0 -1 0 -1 0 -1 0 -1 0 -1 0 -1 0 -1 0 -1 0 -1 0 0 0 0 0 0 0 0 0 0 0 0 0 0 0 0 1 0 1 0 1 0 1 0 1 0 1 0 1 0 1 0 1 0 1 0 1 0 1 0 1 0 1 0zm1806 23l-1806 0 0 -23 1806 0 0 23zm0 0l0 -23 1 0 1 0 1 0 1 0 1 0 1 0 1 0 1 0 1 0 1 0 1 0 1 0 1 0 1 0 0 0 0 0 0 0 0 0 0 0 0 0 0 0 0 0 0 1 0 1 0 1 0 1 0 1 0 1 0 1 0 1 0 1 0 1 0 1 0 1 0 1 0 1 0 1 0 1 0 1 0 1 0 1 0 1 0 0 0 0 0 0 0 0 0 0 0 0 0 0 0 0 -1 0 -1 0 -1 0 -1 0 -1 0 -1 0 -1 0 -1 0 -1 0 -1 0 -1 0 -1 0 -1 0 -1 0zm15 14l-27 0 0 -1 0 -1 0 -1 0 -1 0 -1 0 -1 0 -1 0 -1 0 -1 0 -1 0 0 0 0 0 0 0 0 0 0 0 0 0 0 0 0 1 0 1 0 1 0 1 0 1 0 1 0 1 0 1 0 1 0 1 0 1 0 1 0 1 0 1 0 1 0 1 0 1 0 1 0 1 0 1 0 1 0 1 0 1 0 1 0 1 0 1 0 1 0 1 0 0 0 0 0 0 0 0 0 0 0 0 0 0 0 0 0 0 1 0 1 0 1 0 1 0 1 0 1 0 1 0 1 0 1 0 1zm-27 292l0 -292 27 0 0 292 -27 0zm0 0l27 0 0 1 0 1 0 1 0 1 0 1 0 1 0 1 0 1 0 1 0 1 0 0 0 0 0 0 0 0 0 0 0 0 0 0 0 0 -1 0 -1 0 -1 0 -1 0 -1 0 -1 0 -1 0 -1 0 -1 0 -1 0 -1 0 -1 0 -1 0 -1 0 -1 0 -1 0 -1 0 -1 0 -1 0 -1 0 -1 0 -1 0 -1 0 -1 0 -1 0 -1 0 -1 0 -1 0 0 0 0 0 0 0 0 0 0 0 0 0 0 0 0 0 0 -1 0 -1 0 -1 0 -1 0 -1 0 -1 0 -1 0 -1 0 -1 0 -1zm-753 -292l-27 0 0 -1 0 -1 0 -1 0 -1 0 -1 0 -1 0 -1 0 -1 0 -1 0 -1 0 0 0 0 0 0 0 0 0 0 0 0 0 0 0 0 1 0 1 0 1 0 1 0 1 0 1 0 1 0 1 0 1 0 1 0 1 0 1 0 1 0 1 0 1 0 1 0 1 0 1 0 1 0 1 0 1 0 1 0 1 0 1 0 1 0 1 0 1 0 1 0 0 0 0 0 0 0 0 0 0 0 0 0 0 0 0 0 0 1 0 1 0 1 0 1 0 1 0 1 0 1 0 1 0 1 0 1zm-27 292l0 -292 27 0 0 292 -27 0zm0 0l27 0 0 1 0 1 0 1 0 1 0 1 0 1 0 1 0 1 0 1 0 1 0 0 0 0 0 0 0 0 0 0 0 0 0 0 0 0 -1 0 -1 0 -1 0 -1 0 -1 0 -1 0 -1 0 -1 0 -1 0 -1 0 -1 0 -1 0 -1 0 -1 0 -1 0 -1 0 -1 0 -1 0 -1 0 -1 0 -1 0 -1 0 -1 0 -1 0 -1 0 -1 0 -1 0 -1 0 0 0 0 0 0 0 0 0 0 0 0 0 0 0 0 0 0 -1 0 -1 0 -1 0 -1 0 -1 0 -1 0 -1 0 -1 0 -1 0 -1zm-230 -292l-27 0 0 -1 0 -1 0 -1 0 -1 0 -1 0 -1 0 -1 0 -1 0 -1 0 -1 0 0 0 0 0 0 0 0 0 0 0 0 0 0 0 0 1 0 1 0 1 0 1 0 1 0 1 0 1 0 1 0 1 0 1 0 1 0 1 0 1 0 1 0 1 0 1 0 1 0 1 0 1 0 1 0 1 0 1 0 1 0 1 0 1 0 1 0 1 0 1 0 0 0 0 0 0 0 0 0 0 0 0 0 0 0 0 0 0 1 0 1 0 1 0 1 0 1 0 1 0 1 0 1 0 1 0 1zm-27 292l0 -292 27 0 0 292 -27 0zm0 0l27 0 0 1 0 1 0 1 0 1 0 1 0 1 0 1 0 1 0 1 0 1 0 0 0 0 0 0 0 0 0 0 0 0 0 0 0 0 -1 0 -1 0 -1 0 -1 0 -1 0 -1 0 -1 0 -1 0 -1 0 -1 0 -1 0 -1 0 -1 0 -1 0 -1 0 -1 0 -1 0 -1 0 -1 0 -1 0 -1 0 -1 0 -1 0 -1 0 -1 0 -1 0 -1 0 -1 0 0 0 0 0 0 0 0 0 0 0 0 0 0 0 0 0 0 -1 0 -1 0 -1 0 -1 0 -1 0 -1 0 -1 0 -1 0 -1 0 -1zm-230 -292l-27 0 0 -1 0 -1 0 -1 0 -1 0 -1 0 -1 0 -1 0 -1 0 -1 0 -1 0 0 0 0 0 0 0 0 0 0 0 0 0 0 0 0 1 0 1 0 1 0 1 0 1 0 1 0 1 0 1 0 1 0 1 0 1 0 1 0 1 0 1 0 1 0 1 0 1 0 1 0 1 0 1 0 1 0 1 0 1 0 1 0 1 0 1 0 1 0 1 0 0 0 0 0 0 0 0 0 0 0 0 0 0 0 0 0 0 1 0 1 0 1 0 1 0 1 0 1 0 1 0 1 0 1 0 1zm-27 292l0 -292 27 0 0 292 -27 0zm0 0l27 0 0 1 0 1 0 1 0 1 0 1 0 1 0 1 0 1 0 1 0 1 0 0 0 0 0 0 0 0 0 0 0 0 0 0 0 0 -1 0 -1 0 -1 0 -1 0 -1 0 -1 0 -1 0 -1 0 -1 0 -1 0 -1 0 -1 0 -1 0 -1 0 -1 0 -1 0 -1 0 -1 0 -1 0 -1 0 -1 0 -1 0 -1 0 -1 0 -1 0 -1 0 -1 0 -1 0 0 0 0 0 0 0 0 0 0 0 0 0 0 0 0 0 0 -1 0 -1 0 -1 0 -1 0 -1 0 -1 0 -1 0 -1 0 -1 0 -1zm-230 -292l-27 0 0 -1 0 -1 0 -1 0 -1 0 -1 0 -1 0 -1 0 -1 0 -1 0 -1 0 0 0 0 0 0 0 0 0 0 0 0 0 0 0 0 1 0 1 0 1 0 1 0 1 0 1 0 1 0 1 0 1 0 1 0 1 0 1 0 1 0 1 0 1 0 1 0 1 0 1 0 1 0 1 0 1 0 1 0 1 0 1 0 1 0 1 0 1 0 1 0 0 0 0 0 0 0 0 0 0 0 0 0 0 0 0 0 0 1 0 1 0 1 0 1 0 1 0 1 0 1 0 1 0 1 0 1zm-27 292l0 -292 27 0 0 292 -27 0zm0 0l27 0 0 1 0 1 0 1 0 1 0 1 0 1 0 1 0 1 0 1 0 1 0 0 0 0 0 0 0 0 0 0 0 0 0 0 0 0 -1 0 -1 0 -1 0 -1 0 -1 0 -1 0 -1 0 -1 0 -1 0 -1 0 -1 0 -1 0 -1 0 -1 0 -1 0 -1 0 -1 0 -1 0 -1 0 -1 0 -1 0 -1 0 -1 0 -1 0 -1 0 -1 0 -1 0 -1 0 0 0 0 0 0 0 0 0 0 0 0 0 0 0 0 0 0 -1 0 -1 0 -1 0 -1 0 -1 0 -1 0 -1 0 -1 0 -1 0 -1z"/>
   </g>
   <path class="fil6 str2" d="M6988 3725c-138,385 -44,167 -108,132 -64,-34 234,-165 214,-60 -20,105 -234,80 -228,102 6,22 90,37 115,-19 25,-56 -12,44 55,26 66,-17 93,-67 83,-39 -11,28 8,23 43,6 35,-17 75,-35 75,-35"/>
   <path class="fil6 str2" d="M6914 4103c-21,-67 262,-87 198,77 -20,51 -154,122 -143,12 -45,-40 -111,-59 -111,37 0,52 58,-57 129,-81 75,-25 23,-13 23,80 0,-4 64,-57 64,-80 0,106 7,-41 20,18 21,86 40,3 125,6 34,1 4,6 6,6"/>
   <path class="fil6 str2" d="M6900 4453c-3,82 181,-13 158,-132 -33,0 -94,325 64,107 76,-104 -492,-4 -113,-4 75,0 160,6 226,6"/>
   <path class="fil6 str3" d="M6337 5188c224,-22 424,141 446,365 22,224 -141,424 -365,446 -224,22 -424,-141 -446,-365 -22,-224 141,-424 365,-446zm-260 358c21,-133 130,-241 270,-255 141,-14 269,70 316,196m16 154c-21,133 -130,241 -270,255 -141,14 -269,-70 -316,-196m298 88c-37,4 1,-34 -43,-30 -21,2 -63,52 -71,43 -9,-9 -36,-37 -30,-48 14,-22 21,-50 49,-60 -16,-16 -73,-6 -75,-33 0,-1 -104,-86 -45,-123 11,-7 -4,-43 7,-65 9,-18 154,22 152,1 -1,-10 -13,-36 -47,-45 -6,-2 33,-4 54,-9 4,-1 -7,-16 -5,-18 9,-5 10,-7 21,-8m376 156c0,0 -26,19 -10,26m-695 65c1,-16 27,-12 6,-33m369 178c37,-4 -8,-33 37,-38 21,-2 72,38 79,28 7,-11 28,-44 20,-52 -18,-19 -30,-45 -60,-49 13,-18 71,-20 67,-47 0,-1 85,-105 19,-129 -13,-5 -4,-43 -20,-63 -13,-16 -146,53 -148,31 -1,-10 6,-37 37,-53 5,-3 -33,2 -55,2 -4,0 4,-17 1,-18 -10,-3 -11,-5 -22,-3"/>
   <g>
    <path class="fil4" d="M6138 3166l0 83 -2 0 -2 0 -2 0 -2 0 -2 0 -2 -1 -2 -1 -2 -1 -2 -1 -2 -1 -2 -1 -2 -1 -2 -1 -2 -1 -2 -1 -2 -1 -2 -1 -2 -2 -1 -2 -1 -2 -1 -2 -1 -2 -1 -2 -1 -2 -1 -2 -1 -2 -1 -2 -1 -2 0 -2 0 -2 0 -2 0 -2 0 -2 0 -2 0 -2 0 -2 1 -2 1 -2 1 -2 1 -2 1 -2 1 -2 1 -2 1 -2 1 -2 1 -2 2 -2 2 -1 2 -1 2 -1 2 -1 2 -1 2 -1 2 -1 2 -1 2 -1 2 -1 2 -1 2 -1 2 0 2 0 2 0 2 0 2 0zm577 83l-577 0 0 -83 577 0 0 83zm0 0l0 -83 2 0 2 0 2 0 2 0 2 0 2 1 2 1 2 1 2 1 2 1 2 1 2 1 2 1 2 1 2 1 2 1 2 1 2 2 1 2 1 2 1 2 1 2 1 2 1 2 1 2 1 2 1 2 1 2 0 2 0 2 0 2 0 2 0 2 0 2 0 2 0 2 -1 2 -1 2 -1 2 -1 2 -1 2 -1 2 -1 2 -1 2 -1 2 -1 2 -2 2 -2 1 -2 1 -2 1 -2 1 -2 1 -2 1 -2 1 -2 1 -2 1 -2 1 -2 1 -2 1 -2 0 -2 0 -2 0 -2 0 -2 0z"/>
   </g>
   <g>
    <path class="fil7" d="M7002 3152l-99 0 0 -2 0 -2 0 -2 0 -2 1 -2 1 -2 1 -2 1 -2 1 -2 1 -2 1 -2 1 -2 1 -2 1 -2 2 -2 2 -1 2 -1 2 -1 2 -1 2 -1 2 -1 2 -1 2 -1 2 -1 2 -1 2 -1 2 -1 2 0 2 0 2 0 3 0 3 0 3 0 3 0 2 0 2 0 2 0 2 1 2 1 2 1 2 1 2 1 2 1 2 1 2 1 2 1 2 1 2 1 2 1 2 2 1 2 1 2 1 2 1 2 1 2 1 2 1 2 1 2 1 2 1 2 0 2 0 2 0 2 0 2zm-99 112l0 -112 99 0 0 112 -99 0zm0 0l99 0 0 2 0 2 0 2 0 2 -1 2 -1 2 -1 2 -1 2 -1 2 -1 2 -1 2 -1 2 -1 2 -1 2 -2 2 -2 1 -2 1 -2 1 -2 1 -2 1 -2 1 -2 1 -2 1 -2 1 -2 1 -2 1 -2 1 -2 0 -2 0 -2 0 -3 0 -3 0 -3 0 -3 0 -2 0 -2 0 -2 0 -2 -1 -2 -1 -2 -1 -2 -1 -2 -1 -2 -1 -2 -1 -2 -1 -2 -1 -2 -1 -2 -1 -2 -1 -2 -2 -1 -2 -1 -2 -1 -2 -1 -2 -1 -2 -1 -2 -1 -2 -1 -2 -1 -2 -1 -2 0 -2 0 -2 0 -2 0 -2z"/>
   </g>
   <g>
    <path class="fil7" d="M7223 3117l-99 0 0 -2 0 -2 0 -2 0 -2 1 -2 1 -2 1 -2 1 -2 1 -2 1 -2 1 -2 1 -2 1 -2 1 -2 2 -2 2 -1 2 -1 2 -1 2 -1 2 -1 2 -1 2 -1 2 -1 2 -1 2 -1 2 -1 2 -1 2 0 2 0 2 0 3 0 3 0 3 0 3 0 2 0 2 0 2 0 2 1 2 1 2 1 2 1 2 1 2 1 2 1 2 1 2 1 2 1 2 1 2 1 2 2 1 2 1 2 1 2 1 2 1 2 1 2 1 2 1 2 1 2 1 2 0 2 0 2 0 2 0 2zm-99 112l0 -112 99 0 0 112 -99 0zm0 0l99 0 0 2 0 2 0 2 0 2 -1 2 -1 2 -1 2 -1 2 -1 2 -1 2 -1 2 -1 2 -1 2 -1 2 -2 2 -2 1 -2 1 -2 1 -2 1 -2 1 -2 1 -2 1 -2 1 -2 1 -2 1 -2 1 -2 1 -2 0 -2 0 -2 0 -3 0 -3 0 -3 0 -3 0 -2 0 -2 0 -2 0 -2 -1 -2 -1 -2 -1 -2 -1 -2 -1 -2 -1 -2 -1 -2 -1 -2 -1 -2 -1 -2 -1 -2 -1 -2 -2 -1 -2 -1 -2 -1 -2 -1 -2 -1 -2 -1 -2 -1 -2 -1 -2 -1 -2 -1 -2 0 -2 0 -2 0 -2 0 -2z"/>
   </g>
   <g>
    <path class="fil7" d="M7463 3145l-99 0 0 -2 0 -2 0 -2 0 -2 1 -2 1 -2 1 -2 1 -2 1 -2 1 -2 1 -2 1 -2 1 -2 1 -2 2 -2 2 -1 2 -1 2 -1 2 -1 2 -1 2 -1 2 -1 2 -1 2 -1 2 -1 2 -1 2 -1 2 0 2 0 2 0 3 0 3 0 3 0 3 0 2 0 2 0 2 0 2 1 2 1 2 1 2 1 2 1 2 1 2 1 2 1 2 1 2 1 2 1 2 1 2 2 1 2 1 2 1 2 1 2 1 2 1 2 1 2 1 2 1 2 1 2 0 2 0 2 0 2 0 2zm-99 112l0 -112 99 0 0 112 -99 0zm0 0l99 0 0 2 0 2 0 2 0 2 -1 2 -1 2 -1 2 -1 2 -1 2 -1 2 -1 2 -1 2 -1 2 -1 2 -2 2 -2 1 -2 1 -2 1 -2 1 -2 1 -2 1 -2 1 -2 1 -2 1 -2 1 -2 1 -2 1 -2 0 -2 0 -2 0 -3 0 -3 0 -3 0 -3 0 -2 0 -2 0 -2 0 -2 -1 -2 -1 -2 -1 -2 -1 -2 -1 -2 -1 -2 -1 -2 -1 -2 -1 -2 -1 -2 -1 -2 -1 -2 -2 -1 -2 -1 -2 -1 -2 -1 -2 -1 -2 -1 -2 -1 -2 -1 -2 -1 -2 -1 -2 0 -2 0 -2 0 -2 0 -2z"/>
   </g>
   <g>
    <path class="fil7" d="M7734 3135l-99 0 0 -2 0 -2 0 -2 0 -2 1 -2 1 -2 1 -2 1 -2 1 -2 1 -2 1 -2 1 -2 1 -2 1 -2 2 -2 2 -1 2 -1 2 -1 2 -1 2 -1 2 -1 2 -1 2 -1 2 -1 2 -1 2 -1 2 -1 2 0 2 0 2 0 3 0 3 0 3 0 3 0 2 0 2 0 2 0 2 1 2 1 2 1 2 1 2 1 2 1 2 1 2 1 2 1 2 1 2 1 2 1 2 2 1 2 1 2 1 2 1 2 1 2 1 2 1 2 1 2 1 2 1 2 0 2 0 2 0 2 0 2zm-99 112l0 -112 99 0 0 112 -99 0zm0 0l99 0 0 2 0 2 0 2 0 2 -1 2 -1 2 -1 2 -1 2 -1 2 -1 2 -1 2 -1 2 -1 2 -1 2 -2 2 -2 1 -2 1 -2 1 -2 1 -2 1 -2 1 -2 1 -2 1 -2 1 -2 1 -2 1 -2 1 -2 0 -2 0 -2 0 -3 0 -3 0 -3 0 -3 0 -2 0 -2 0 -2 0 -2 -1 -2 -1 -2 -1 -2 -1 -2 -1 -2 -1 -2 -1 -2 -1 -2 -1 -2 -1 -2 -1 -2 -1 -2 -2 -1 -2 -1 -2 -1 -2 -1 -2 -1 -2 -1 -2 -1 -2 -1 -2 -1 -2 -1 -2 0 -2 0 -2 0 -2 0 -2z"/>
   </g>
   <g>
    <path class="fil7" d="M8221 3214l0 -83 2 0 2 0 2 0 2 0 2 0 2 1 2 1 2 1 2 1 2 1 2 1 2 1 2 1 2 1 2 1 2 1 2 1 2 2 1 2 1 2 1 2 1 2 1 2 1 2 1 2 1 2 1 2 1 2 0 2 0 2 0 2 0 2 0 2 0 2 0 2 0 2 -1 2 -1 2 -1 2 -1 2 -1 2 -1 2 -1 2 -1 2 -1 2 -1 2 -2 2 -2 1 -2 1 -2 1 -2 1 -2 1 -2 1 -2 1 -2 1 -2 1 -2 1 -2 1 -2 1 -2 0 -2 0 -2 0 -2 0 -2 0zm-288 -83l288 0 0 83 -288 0 0 -83zm0 0l0 83 -2 0 -2 0 -2 0 -2 0 -2 0 -2 -1 -2 -1 -2 -1 -2 -1 -2 -1 -2 -1 -2 -1 -2 -1 -2 -1 -2 -1 -2 -1 -2 -1 -2 -2 -1 -2 -1 -2 -1 -2 -1 -2 -1 -2 -1 -2 -1 -2 -1 -2 -1 -2 -1 -2 0 -2 0 -2 0 -2 0 -2 0 -2 0 -2 0 -2 0 -2 1 -2 1 -2 1 -2 1 -2 1 -2 1 -2 1 -2 1 -2 1 -2 1 -2 2 -2 2 -1 2 -1 2 -1 2 -1 2 -1 2 -1 2 -1 2 -1 2 -1 2 -1 2 -1 2 -1 2 0 2 0 2 0 2 0 2 0z"/>
   </g>
   <g>
    <path class="fil4" d="M7364 3823l0 83 -2 0 -2 0 -2 0 -2 0 -2 0 -2 -1 -2 -1 -2 -1 -2 -1 -2 -1 -2 -1 -2 -1 -2 -1 -2 -1 -2 -1 -2 -1 -2 -1 -2 -2 -1 -2 -1 -2 -1 -2 -1 -2 -1 -2 -1 -2 -1 -2 -1 -2 -1 -2 -1 -2 0 -2 0 -2 0 -2 0 -2 0 -2 0 -2 0 -2 0 -2 1 -2 1 -2 1 -2 1 -2 1 -2 1 -2 1 -2 1 -2 1 -2 1 -2 2 -2 2 -1 2 -1 2 -1 2 -1 2 -1 2 -1 2 -1 2 -1 2 -1 2 -1 2 -1 2 -1 2 0 2 0 2 0 2 0 2 0zm577 83l-577 0 0 -83 577 0 0 83zm0 0l0 -83 2 0 2 0 2 0 2 0 2 0 2 1 2 1 2 1 2 1 2 1 2 1 2 1 2 1 2 1 2 1 2 1 2 1 2 2 1 2 1 2 1 2 1 2 1 2 1 2 1 2 1 2 1 2 1 2 0 2 0 2 0 2 0 2 0 2 0 2 0 2 0 2 -1 2 -1 2 -1 2 -1 2 -1 2 -1 2 -1 2 -1 2 -1 2 -1 2 -2 2 -2 1 -2 1 -2 1 -2 1 -2 1 -2 1 -2 1 -2 1 -2 1 -2 1 -2 1 -2 1 -2 0 -2 0 -2 0 -2 0 -2 0z"/>
   </g>
   <g>
    <path class="fil4" d="M7364 4394l0 83 -2 0 -2 0 -2 0 -2 0 -2 0 -2 -1 -2 -1 -2 -1 -2 -1 -2 -1 -2 -1 -2 -1 -2 -1 -2 -1 -2 -1 -2 -1 -2 -1 -2 -2 -1 -2 -1 -2 -1 -2 -1 -2 -1 -2 -1 -2 -1 -2 -1 -2 -1 -2 -1 -2 0 -2 0 -2 0 -2 0 -2 0 -2 0 -2 0 -2 0 -2 1 -2 1 -2 1 -2 1 -2 1 -2 1 -2 1 -2 1 -2 1 -2 1 -2 2 -2 2 -1 2 -1 2 -1 2 -1 2 -1 2 -1 2 -1 2 -1 2 -1 2 -1 2 -1 2 -1 2 0 2 0 2 0 2 0 2 0zm1038 83l-1038 0 0 -83 1038 0 0 83zm0 0l0 -83 2 0 2 0 2 0 2 0 2 0 2 1 2 1 2 1 2 1 2 1 2 1 2 1 2 1 2 1 2 1 2 1 2 1 2 2 1 2 1 2 1 2 1 2 1 2 1 2 1 2 1 2 1 2 1 2 0 2 0 2 0 2 0 2 0 2 0 2 0 2 0 2 -1 2 -1 2 -1 2 -1 2 -1 2 -1 2 -1 2 -1 2 -1 2 -1 2 -2 2 -2 1 -2 1 -2 1 -2 1 -2 1 -2 1 -2 1 -2 1 -2 1 -2 1 -2 1 -2 1 -2 0 -2 0 -2 0 -2 0 -2 0z"/>
   </g>
   <g>
    <path class="fil4" d="M6536 4627l0 83 -2 0 -2 0 -2 0 -2 0 -2 0 -2 -1 -2 -1 -2 -1 -2 -1 -2 -1 -2 -1 -2 -1 -2 -1 -2 -1 -2 -1 -2 -1 -2 -1 -2 -2 -1 -2 -1 -2 -1 -2 -1 -2 -1 -2 -1 -2 -1 -2 -1 -2 -1 -2 -1 -2 0 -2 0 -2 0 -2 0 -2 0 -2 0 -2 0 -2 0 -2 1 -2 1 -2 1 -2 1 -2 1 -2 1 -2 1 -2 1 -2 1 -2 1 -2 2 -2 2 -1 2 -1 2 -1 2 -1 2 -1 2 -1 2 -1 2 -1 2 -1 2 -1 2 -1 2 -1 2 0 2 0 2 0 2 0 2 0zm1560 83l-1560 0 0 -83 1560 0 0 83zm0 0l0 -83 2 0 2 0 2 0 2 0 2 0 2 1 2 1 2 1 2 1 2 1 2 1 2 1 2 1 2 1 2 1 2 1 2 1 2 2 1 2 1 2 1 2 1 2 1 2 1 2 1 2 1 2 1 2 1 2 0 2 0 2 0 2 0 2 0 2 0 2 0 2 0 2 -1 2 -1 2 -1 2 -1 2 -1 2 -1 2 -1 2 -1 2 -1 2 -1 2 -2 2 -2 1 -2 1 -2 1 -2 1 -2 1 -2 1 -2 1 -2 1 -2 1 -2 1 -2 1 -2 1 -2 0 -2 0 -2 0 -2 0 -2 0z"/>
   </g>
   <path class="fil8 str4" d="M5376 6474c-79,0 -151,-33 -202,-85l-107 107 96 -368 270 0 -106 107 0 0c51,51 122,83 200,83 40,0 77,-8 111,-23 0,0 0,0 0,0l0 0c-41,104 -143,178 -262,178z"/>
   <path class="fil9 str5" d="M6684 5005l-55 -78 52 -67c5,-6 5,-12 -1,-17 -6,-6 -13,-3 -18,3l-53 73 -15 0 0 -66c0,-6 -4,-12 -12,-12 -9,0 -12,6 -12,12l0 160c0,6 4,12 12,12 8,0 12,-6 12,-12l0 -71 16 0 55 78c3,5 10,8 17,3 7,-5 7,-12 3,-17zm51 -114c0,-16 7,-28 24,-28l20 0c18,0 24,12 24,28l0 81c0,16 -7,28 -24,28l-20 0c-18,0 -24,-12 -24,-28l0 -81zm93 0c0,-28 -16,-51 -48,-51l-20 0c-32,0 -48,23 -48,51l0 81c0,28 16,51 48,51l20 0c32,0 48,-23 48,-51l0 -81zm122 -25l0 146c0,6 3,12 12,12 8,0 12,-6 12,-12l0 -157c0,-6 -4,-12 -12,-12l-86 0c-8,0 -12,6 -12,12l0 157c0,6 4,12 12,12 8,0 12,-6 12,-12l0 -146 62 0zm154 146c0,6 3,12 11,12 9,0 12,-6 12,-12l0 -160c0,-6 -4,-12 -12,-12 -5,0 -8,2 -12,9l-68 121 0 0c1,-5 1,-11 1,-18l0 -101c0,-6 -3,-12 -11,-12 -9,0 -12,6 -12,12l0 160c0,6 4,12 12,12 5,0 8,-2 12,-9l68 -121 0 0c-1,5 -1,11 -1,18l0 101zm53 -115c0,18 11,39 31,47 -2,3 -3,6 -6,13 0,0 -20,45 -22,50 -2,5 -1,12 7,15 8,3 13,-1 16,-7 3,-6 30,-68 30,-68l32 0 0 64c0,6 4,12 12,12 8,0 12,-6 12,-12l0 -157c0,-6 -4,-12 -12,-12l-49 0c-32,0 -49,20 -49,47l0 7zm48 28c-18,0 -24,-12 -24,-28l0 -7c0,-14 7,-24 25,-24l37 0 0 59 -38 0zm193 17l42 0c18,0 24,11 24,27l0 6c0,15 -7,24 -24,24l-42 0 0 -57zm0 -22l0 -53 31 0c17,0 24,6 24,21l0 6c0,15 -7,26 -24,26l-31 0zm90 49c0,-21 -9,-36 -28,-42 11,-7 17,-18 17,-34l0 -6c0,-29 -16,-44 -48,-44l-43 0c-9,0 -12,6 -12,12l0 155c0,6 4,12 12,12l53 0c32,0 48,-18 48,-47l0 -6zm125 52c6,0 11,-3 11,-11 0,-8 -5,-11 -11,-11l-70 0 0 -57 58 0c6,0 11,-3 11,-11 0,-8 -5,-11 -11,-11l-58 0 0 -52 70 0c6,0 11,-3 11,-11 0,-8 -5,-11 -11,-11l-82 0c-8,0 -12,6 -12,12l0 155c0,6 4,12 12,12l82 0zm64 -92l0 -63 40 0c18,0 25,9 25,24l0 13c0,16 -7,26 -25,26l-40 0zm40 23c33,0 49,-21 49,-49l0 -13c0,-29 -16,-47 -49,-47l-52 0c-8,0 -12,6 -12,12l0 157c0,6 4,12 12,12 8,0 12,-6 12,-12l0 -60 40 0zm194 -100c0,-6 -4,-12 -12,-12 -8,0 -12,6 -12,12l0 63 -67 0 0 -63c0,-6 -3,-12 -12,-12 -8,0 -12,6 -12,12l0 160c0,6 4,12 12,12 8,0 12,-6 12,-12l0 -74 67 0 0 74c0,6 3,12 12,12 8,0 12,-6 12,-12l0 -160zm115 119l14 45c2,6 8,10 15,7 7,-2 9,-8 7,-15l-51 -159c-2,-6 -5,-9 -12,-9l-1 0c-7,0 -10,3 -12,9l-51 159c-2,6 1,12 7,15 7,2 13,-1 15,-7l14 -45 55 0zm-32 -77c2,-6 3,-8 4,-15l0 0c1,6 2,9 4,15l17 55 -43 0 17 -55z"/>
   <path class="fil8 str4" d="M6200 581c79,0 151,33 202,85l107 -107 -96 368 -270 0 106 -107 0 0c-51,-51 -122,-83 -200,-83 -40,0 -77,8 -111,23 0,0 0,0 0,0l0 0c41,-104 143,-178 262,-178z"/>
   <g>
    <g>
     <path class="fil10" d="M7527 5775l-80 0 0 -2 0 -2 0 -2 0 -2 0 -2 1 -2 1 -2 1 -2 1 -2 1 -1 1 -1 1 -1 1 -1 1 -1 1 -1 1 -1 1 -1 1 -1 2 -1 2 -1 2 -1 2 -1 2 -1 2 -1 2 -1 2 -1 2 0 2 0 2 0 2 0 2 0 2 0 2 0 2 0 2 0 2 0 2 0 2 0 2 1 2 1 2 1 2 1 2 1 2 1 2 1 2 1 1 1 1 1 1 1 1 1 1 1 1 1 1 1 1 1 1 1 1 2 1 2 1 2 1 2 0 2 0 2 0 2 0 2 0 2zm-80 112l0 -112 80 0 0 112 -80 0zm0 0l80 0 0 2 0 2 0 2 0 2 0 2 -1 2 -1 2 -1 2 -1 2 -1 1 -1 1 -1 1 -1 1 -1 1 -1 1 -1 1 -1 1 -1 1 -2 1 -2 1 -2 1 -2 1 -2 1 -2 1 -2 1 -2 1 -2 0 -2 0 -2 0 -2 0 -2 0 -2 0 -2 0 -2 0 -2 0 -2 0 -2 0 -2 0 -2 -1 -2 -1 -2 -1 -2 -1 -2 -1 -2 -1 -2 -1 -2 -1 -1 -1 -1 -1 -1 -1 -1 -1 -1 -1 -1 -1 -1 -1 -1 -1 -1 -1 -1 -2 -1 -2 -1 -2 -1 -2 0 -2 0 -2 0 -2 0 -2 0 -2z"/>
    </g>
    <g>
     <path class="fil10" d="M7450 5775l-80 0 0 -2 0 -2 0 -2 0 -2 0 -2 1 -2 1 -2 1 -2 1 -2 1 -1 1 -1 1 -1 1 -1 1 -1 1 -1 1 -1 1 -1 1 -1 2 -1 2 -1 2 -1 2 -1 2 -1 2 -1 2 -1 2 -1 2 0 2 0 2 0 2 0 2 0 2 0 2 0 2 0 2 0 2 0 2 0 2 0 2 1 2 1 2 1 2 1 2 1 2 1 2 1 2 1 1 1 1 1 1 1 1 1 1 1 1 1 1 1 1 1 1 1 1 2 1 2 1 2 1 2 0 2 0 2 0 2 0 2 0 2zm-80 112l0 -112 80 0 0 112 -80 0zm0 0l80 0 0 2 0 2 0 2 0 2 0 2 -1 2 -1 2 -1 2 -1 2 -1 1 -1 1 -1 1 -1 1 -1 1 -1 1 -1 1 -1 1 -1 1 -2 1 -2 1 -2 1 -2 1 -2 1 -2 1 -2 1 -2 1 -2 0 -2 0 -2 0 -2 0 -2 0 -2 0 -2 0 -2 0 -2 0 -2 0 -2 0 -2 0 -2 -1 -2 -1 -2 -1 -2 -1 -2 -1 -2 -1 -2 -1 -2 -1 -1 -1 -1 -1 -1 -1 -1 -1 -1 -1 -1 -1 -1 -1 -1 -1 -1 -1 -1 -2 -1 -2 -1 -2 -1 -2 0 -2 0 -2 0 -2 0 -2 0 -2z"/>
    </g>
    <g>
     <path class="fil10" d="M8567 5775l-80 0 0 -2 0 -2 0 -2 0 -2 0 -2 1 -2 1 -2 1 -2 1 -2 1 -1 1 -1 1 -1 1 -1 1 -1 1 -1 1 -1 1 -1 1 -1 2 -1 2 -1 2 -1 2 -1 2 -1 2 -1 2 -1 2 -1 2 0 2 0 2 0 2 0 2 0 2 0 2 0 2 0 2 0 2 0 2 0 2 0 2 1 2 1 2 1 2 1 2 1 2 1 2 1 2 1 1 1 1 1 1 1 1 1 1 1 1 1 1 1 1 1 1 1 1 2 1 2 1 2 1 2 0 2 0 2 0 2 0 2 0 2zm-80 112l0 -112 80 0 0 112 -80 0zm0 0l80 0 0 2 0 2 0 2 0 2 0 2 -1 2 -1 2 -1 2 -1 2 -1 1 -1 1 -1 1 -1 1 -1 1 -1 1 -1 1 -1 1 -1 1 -2 1 -2 1 -2 1 -2 1 -2 1 -2 1 -2 1 -2 1 -2 0 -2 0 -2 0 -2 0 -2 0 -2 0 -2 0 -2 0 -2 0 -2 0 -2 0 -2 0 -2 -1 -2 -1 -2 -1 -2 -1 -2 -1 -2 -1 -2 -1 -2 -1 -1 -1 -1 -1 -1 -1 -1 -1 -1 -1 -1 -1 -1 -1 -1 -1 -1 -1 -1 -2 -1 -2 -1 -2 -1 -2 0 -2 0 -2 0 -2 0 -2 0 -2z"/>
    </g>
    <g>
     <path class="fil10" d="M8674 5775l-80 0 0 -2 0 -2 0 -2 0 -2 0 -2 1 -2 1 -2 1 -2 1 -2 1 -1 1 -1 1 -1 1 -1 1 -1 1 -1 1 -1 1 -1 1 -1 2 -1 2 -1 2 -1 2 -1 2 -1 2 -1 2 -1 2 -1 2 0 2 0 2 0 2 0 2 0 2 0 2 0 2 0 2 0 2 0 2 0 2 0 2 1 2 1 2 1 2 1 2 1 2 1 2 1 2 1 1 1 1 1 1 1 1 1 1 1 1 1 1 1 1 1 1 1 1 2 1 2 1 2 1 2 0 2 0 2 0 2 0 2 0 2zm-80 112l0 -112 80 0 0 112 -80 0zm0 0l80 0 0 2 0 2 0 2 0 2 0 2 -1 2 -1 2 -1 2 -1 2 -1 1 -1 1 -1 1 -1 1 -1 1 -1 1 -1 1 -1 1 -1 1 -2 1 -2 1 -2 1 -2 1 -2 1 -2 1 -2 1 -2 1 -2 0 -2 0 -2 0 -2 0 -2 0 -2 0 -2 0 -2 0 -2 0 -2 0 -2 0 -2 0 -2 -1 -2 -1 -2 -1 -2 -1 -2 -1 -2 -1 -2 -1 -2 -1 -1 -1 -1 -1 -1 -1 -1 -1 -1 -1 -1 -1 -1 -1 -1 -1 -1 -1 -1 -2 -1 -2 -1 -2 -1 -2 0 -2 0 -2 0 -2 0 -2 0 -2z"/>
    </g>
    <path class="fil9 str5" d="M6919 5889l-5 0 0 -144c0,-6 -4,-12 -12,-12l-61 0c-8,0 -12,5 -13,12l-23 144 -8 0c-8,0 -12,6 -12,12l0 33c0,6 4,12 12,12 9,0 12,-6 12,-12l0 -22 97 0 0 22c0,6 4,12 12,12 8,0 12,-6 12,-12l0 -33c0,-6 -4,-12 -12,-12l0 0zm-87 -18l18 -115 41 0 0 132 -62 0c2,-6 3,-12 4,-18l0 0zm201 -10l14 45c2,6 8,10 15,7 7,-2 9,-8 7,-15l-51 -159c-2,-6 -5,-9 -12,-9l-1 0c-7,0 -10,3 -12,9l-51 159c-2,6 1,12 7,15 7,2 13,-1 15,-7l14 -45 55 0zm-32 -77c2,-6 3,-8 4,-15l0 0c1,6 2,9 4,15l17 55 -43 0 17 -55zm135 130c8,0 12,-6 12,-12l0 -146 37 0c6,0 11,-3 11,-11 0,-8 -5,-11 -11,-11l-98 0c-6,0 -11,4 -11,11 0,8 5,11 11,11l37 0 0 146c0,6 4,12 12,12zm159 -53l14 45c2,6 8,10 15,7 7,-2 9,-8 7,-15l-51 -159c-2,-6 -5,-9 -12,-9l-1 0c-7,0 -10,3 -12,9l-51 159c-2,6 1,12 7,15 7,2 13,-1 15,-7l14 -45 55 0zm-32 -77c2,-6 3,-8 4,-15l0 0c1,6 2,9 4,15l17 55 -43 0 17 -55z"/>
    <path class="fil9 str5" d="M7750 5836l42 0c18,0 24,11 24,27l0 6c0,15 -7,24 -24,24l-42 0 0 -57zm0 -22l0 -53 31 0c17,0 24,6 24,21l0 6c0,15 -7,26 -24,26l-31 0zm90 49c0,-21 -9,-36 -28,-42 11,-7 17,-18 17,-34l0 -6c0,-29 -16,-44 -48,-44l-43 0c-9,0 -12,6 -12,12l0 155c0,6 4,12 12,12l53 0c32,0 48,-18 48,-47l0 -6zm55 -40l0 -63 40 0c18,0 25,9 25,24l0 13c0,16 -7,26 -25,26l-40 0zm40 23c33,0 49,-21 49,-49l0 -13c0,-29 -16,-47 -49,-47l-52 0c-8,0 -12,6 -12,12l0 157c0,6 4,12 12,12 8,0 12,-6 12,-12l0 -60 40 0zm173 69c6,0 11,-3 11,-11 0,-8 -5,-11 -11,-11l-70 0 0 -57 58 0c6,0 11,-3 11,-11 0,-8 -5,-11 -11,-11l-58 0 0 -52 70 0c6,0 11,-3 11,-11 0,-8 -5,-11 -11,-11l-82 0c-8,0 -12,6 -12,12l0 155c0,6 4,12 12,12l82 0zm109 -79c-2,-5 -4,-10 -6,-15l-40 -78c-4,-7 -7,-9 -12,-9 -8,0 -12,6 -12,12l0 160c0,6 3,12 12,12 8,0 12,-6 12,-12l0 -98c0,-7 -1,-13 -1,-18l0 0 36 71c2,4 4,6 10,6 6,0 9,-3 10,-6l36 -71 0 0c-1,5 -1,11 -1,18l0 98c0,6 3,12 12,12 8,0 12,-6 12,-12l0 -160c0,-6 -3,-12 -12,-12 -5,0 -8,2 -12,9l-40 78c-3,5 -5,10 -6,15zm100 -45c0,18 11,39 31,47 -2,3 -3,6 -6,13 0,0 -20,45 -22,50 -2,5 -1,12 7,15 8,3 13,-1 16,-7 3,-6 30,-68 30,-68l32 0 0 64c0,6 4,12 12,12 8,0 12,-6 12,-12l0 -157c0,-6 -4,-12 -12,-12l-49 0c-32,0 -49,20 -49,47l0 7zm48 28c-18,0 -24,-12 -24,-28l0 -7c0,-14 7,-24 25,-24l37 0 0 59 -38 0z"/>
   </g>
   <path class="fil6 str3" d="M6396 3673c205,92 296,334 204,539 -92,205 -334,296 -539,204 -205,-92 -296,-334 -204,-539 92,-205 334,-296 539,-204zm-404 180c85,-105 233,-144 362,-86 129,58 198,195 175,328m-64 142c-85,105 -233,144 -362,86 -129,-58 -198,-195 -175,-328m214 226c-34,-15 18,-29 -23,-47 -19,-9 -80,14 -83,2 -3,-13 -13,-50 -2,-56 23,-13 43,-33 72,-27 -6,-22 -61,-42 -49,-66 0,-1 -47,-126 23,-129 13,-1 18,-39 39,-53 17,-11 122,96 131,76 4,-9 6,-38 -18,-62 -4,-4 31,13 52,19 4,1 2,-18 5,-18 10,0 12,-1 22,4m247 323c0,0 -32,3 -22,17m-634 -291c8,-13 30,3 22,-26m231 339c34,15 10,-33 51,-14 19,9 43,69 54,64 12,-6 46,-24 43,-36 -6,-26 -4,-54 -27,-72 20,-10 71,18 81,-7 0,-1 125,-48 81,-102 -9,-10 18,-39 14,-64 -3,-20 -153,-28 -144,-47 4,-9 24,-29 59,-28 6,0 -30,-15 -48,-26 -4,-2 12,-13 10,-15 -7,-8 -7,-10 -17,-14"/>
   <path class="fil1" d="M5884 801l0 4887c-1220,0 -2038,0 -3258,0l0 -4887 3258 0z"/>
   <path class="fil2" d="M2626 801l3258 0 0 2703 -3258 -1548c6,-160 0,-1048 0,-1155z"/>
   <path class="fil3 str0" d="M5884 801l0 4887c-1220,0 -2038,0 -3258,0l0 -4887 3258 0z"/>
   <path class="fil9 str5" d="M5053 1443l-55 -78 52 -67c5,-6 5,-12 -1,-17 -6,-6 -13,-3 -18,3l-53 73 -15 0 0 -66c0,-6 -4,-12 -12,-12 -9,0 -12,6 -12,12l0 160c0,6 4,12 12,12 8,0 12,-6 12,-12l0 -71 16 0 55 78c3,5 10,8 17,3 7,-5 7,-12 3,-17zm51 -114c0,-16 7,-28 24,-28l20 0c18,0 24,12 24,28l0 81c0,16 -7,28 -24,28l-20 0c-18,0 -24,-12 -24,-28l0 -81zm93 0c0,-28 -16,-51 -48,-51l-20 0c-32,0 -48,23 -48,51l0 81c0,28 16,51 48,51l20 0c32,0 48,-23 48,-51l0 -81zm122 -25l0 146c0,6 3,12 12,12 8,0 12,-6 12,-12l0 -157c0,-6 -4,-12 -12,-12l-86 0c-8,0 -12,6 -12,12l0 157c0,6 4,12 12,12 8,0 12,-6 12,-12l0 -146 62 0zm154 146c0,6 3,12 11,12 9,0 12,-6 12,-12l0 -160c0,-6 -4,-12 -12,-12 -5,0 -8,2 -12,9l-68 121 0 0c1,-5 1,-11 1,-18l0 -101c0,-6 -3,-12 -11,-12 -9,0 -12,6 -12,12l0 160c0,6 4,12 12,12 5,0 8,-2 12,-9l68 -121 0 0c-1,5 -1,11 -1,18l0 101zm53 -115c0,18 11,39 31,47 -2,3 -3,6 -6,13 0,0 -20,45 -22,50 -2,5 -1,12 7,15 8,3 13,-1 16,-7 3,-6 30,-68 30,-68l32 0 0 64c0,6 4,12 12,12 8,0 12,-6 12,-12l0 -157c0,-6 -4,-12 -12,-12l-49 0c-32,0 -49,20 -49,47l0 7zm48 28c-18,0 -24,-12 -24,-28l0 -7c0,-14 7,-24 25,-24l37 0 0 59 -38 0z"/>
   <path class="fil5 str6" d="M3317 2182l0 300c0,13 7,24 25,24 17,0 25,-11 25,-24l0 -323c0,-13 -8,-24 -25,-24l-176 0c-17,0 -25,11 -25,24l0 323c0,13 8,24 25,24 17,0 25,-11 25,-24l0 -300 127 0zm177 129l0 -130 81 0c36,0 51,18 51,50l0 26c0,32 -15,54 -51,54l-81 0zm81 47c67,0 100,-44 100,-101l0 -26c0,-58 -33,-96 -100,-96l-106 0c-17,0 -24,11 -24,24l0 323c0,13 7,24 25,24 17,0 25,-11 25,-24l0 -123 81 0zm206 -124c0,-32 14,-57 50,-57l42 0c36,0 50,25 50,57l0 167c0,32 -14,57 -50,57l-42 0c-36,0 -50,-25 -50,-57l0 -167zm191 0c0,-57 -33,-104 -99,-104l-42 0c-66,0 -99,47 -99,104l0 167c0,57 33,104 99,104l42 0c66,0 99,-47 99,-104l0 -167zm164 271c17,0 25,-11 25,-24l0 -300 76 0c12,0 23,-7 23,-23 0,-16 -11,-23 -23,-23l-201 0c-12,0 -23,8 -23,23 0,17 11,23 23,23l76 0 0 300c0,13 7,24 25,24zm213 -271c0,-32 14,-57 50,-57l42 0c36,0 50,25 50,57l0 167c0,32 -14,57 -50,57l-42 0c-36,0 -50,-25 -50,-57l0 -167zm191 0c0,-57 -33,-104 -99,-104l-42 0c-66,0 -99,47 -99,104l0 167c0,57 33,104 99,104l42 0c66,0 99,-47 99,-104l0 -167zm307 233l-112 -159 106 -138c9,-12 9,-25 -1,-34 -13,-11 -28,-6 -37,5l-110 149 -31 0 0 -135c0,-13 -7,-24 -24,-24 -18,0 -25,11 -25,24l0 328c0,13 7,24 25,24 17,0 24,-11 24,-24l0 -146 32 0 112 159c7,10 20,16 34,7 15,-10 14,-25 6,-35zm105 -233c0,-32 14,-57 50,-57l42 0c36,0 50,25 50,57l0 167c0,32 -14,57 -50,57l-42 0c-36,0 -50,-25 -50,-57l0 -167zm191 0c0,-57 -33,-104 -99,-104l-42 0c-66,0 -99,47 -99,104l0 167c0,57 33,104 99,104l42 0c66,0 99,-47 99,-104l0 -167zm147 200c4,-30 31,-253 31,-253l91 0 0 300c0,13 7,24 25,24 17,0 24,-11 24,-24l0 -323c0,-13 -7,-24 -24,-24l-136 0c-15,0 -23,10 -25,24 -2,15 -30,243 -32,264 -2,12 -3,20 -6,25 -5,10 -14,13 -29,13 -13,0 -24,8 -24,25 0,18 11,23 24,23 45,0 64,-15 75,-41 4,-10 6,-19 7,-33z"/>
   <g>
    <path class="fil4" d="M3138 1417l0 68 -2 0 -2 0 -2 0 -2 0 -2 0 -1 0 -1 -1 -1 -1 -1 -1 -1 -1 -1 -1 -1 -1 -1 -1 -1 -1 -1 -1 -1 -1 -1 -1 -1 -1 -1 -1 -1 -1 -1 -1 -1 -1 -1 -1 -1 -2 -1 -2 0 -2 0 -2 0 -2 0 -2 0 -2 0 -2 0 -2 0 -2 0 -2 0 -2 0 -2 0 -2 0 -2 0 -2 1 -2 1 -2 1 -1 1 -1 1 -1 1 -1 1 -1 1 -1 1 -1 1 -1 1 -1 1 -1 1 -1 1 -1 1 -1 1 -1 1 -1 1 -1 1 -1 1 0 2 0 2 0 2 0 2 0 2 0zm416 68l-416 0 0 -68 416 0 0 68zm0 0l0 -68 2 0 2 0 2 0 2 0 2 0 1 0 1 1 1 1 1 1 1 1 1 1 1 1 1 1 1 1 1 1 1 1 1 1 1 1 1 1 1 1 1 1 1 1 1 1 1 2 1 2 0 2 0 2 0 2 0 2 0 2 0 2 0 2 0 2 0 2 0 2 0 2 0 2 0 2 0 2 -1 2 -1 2 -1 1 -1 1 -1 1 -1 1 -1 1 -1 1 -1 1 -1 1 -1 1 -1 1 -1 1 -1 1 -1 1 -1 1 -1 1 -1 1 -1 1 -1 0 -2 0 -2 0 -2 0 -2 0 -2 0zm-416 334l0 68 -2 0 -2 0 -2 0 -2 0 -2 0 -1 0 -1 -1 -1 -1 -1 -1 -1 -1 -1 -1 -1 -1 -1 -1 -1 -1 -1 -1 -1 -1 -1 -1 -1 -1 -1 -1 -1 -1 -1 -1 -1 -1 -1 -1 -1 -2 -1 -2 0 -2 0 -2 0 -2 0 -2 0 -2 0 -2 0 -2 0 -2 0 -2 0 -2 0 -2 0 -2 0 -2 0 -2 1 -2 1 -2 1 -1 1 -1 1 -1 1 -1 1 -1 1 -1 1 -1 1 -1 1 -1 1 -1 1 -1 1 -1 1 -1 1 -1 1 -1 1 -1 1 -1 1 0 2 0 2 0 2 0 2 0 2 0zm1415 68l-1415 0 0 -68 1415 0 0 68zm0 0l0 -68 2 0 2 0 2 0 2 0 2 0 1 0 1 1 1 1 1 1 1 1 1 1 1 1 1 1 1 1 1 1 1 1 1 1 1 1 1 1 1 1 1 1 1 1 1 1 1 2 1 2 0 2 0 2 0 2 0 2 0 2 0 2 0 2 0 2 0 2 0 2 0 2 0 2 0 2 0 2 -1 2 -1 2 -1 1 -1 1 -1 1 -1 1 -1 1 -1 1 -1 1 -1 1 -1 1 -1 1 -1 1 -1 1 -1 1 -1 1 -1 1 -1 1 -1 1 -1 0 -2 0 -2 0 -2 0 -2 0 -2 0zm-1415 -268l0 68 -2 0 -2 0 -2 0 -2 0 -2 0 -1 0 -1 -1 -1 -1 -1 -1 -1 -1 -1 -1 -1 -1 -1 -1 -1 -1 -1 -1 -1 -1 -1 -1 -1 -1 -1 -1 -1 -1 -1 -1 -1 -1 -1 -1 -1 -2 -1 -2 0 -2 0 -2 0 -2 0 -2 0 -2 0 -2 0 -2 0 -2 0 -2 0 -2 0 -2 0 -2 0 -2 0 -2 1 -2 1 -2 1 -1 1 -1 1 -1 1 -1 1 -1 1 -1 1 -1 1 -1 1 -1 1 -1 1 -1 1 -1 1 -1 1 -1 1 -1 1 -1 1 -1 1 0 2 0 2 0 2 0 2 0 2 0zm1410 68l-1410 0 0 -68 1410 0 0 68zm0 0l0 -68 2 0 2 0 2 0 2 0 2 0 1 0 1 1 1 1 1 1 1 1 1 1 1 1 1 1 1 1 1 1 1 1 1 1 1 1 1 1 1 1 1 1 1 1 1 1 1 2 1 2 0 2 0 2 0 2 0 2 0 2 0 2 0 2 0 2 0 2 0 2 0 2 0 2 0 2 0 2 -1 2 -1 2 -1 1 -1 1 -1 1 -1 1 -1 1 -1 1 -1 1 -1 1 -1 1 -1 1 -1 1 -1 1 -1 1 -1 1 -1 1 -1 1 -1 1 -1 0 -2 0 -2 0 -2 0 -2 0 -2 0z"/>
   </g>
   <g>
    <path class="fil4" d="M3089 3254l0 68 -2 0 -2 0 -2 0 -2 0 -2 0 -1 0 -1 -1 -1 -1 -1 -1 -1 -1 -1 -1 -1 -1 -1 -1 -1 -1 -1 -1 -1 -1 -1 -1 -1 -1 -1 -1 -1 -1 -1 -1 -1 -1 -1 -1 -1 -2 -1 -2 0 -2 0 -2 0 -2 0 -2 0 -2 0 -2 0 -2 0 -2 0 -2 0 -2 0 -2 0 -2 0 -2 0 -2 1 -2 1 -2 1 -1 1 -1 1 -1 1 -1 1 -1 1 -1 1 -1 1 -1 1 -1 1 -1 1 -1 1 -1 1 -1 1 -1 1 -1 1 -1 1 -1 1 0 2 0 2 0 2 0 2 0 2 0zm839 68l-839 0 0 -68 839 0 0 68zm0 0l0 -68 2 0 2 0 2 0 2 0 2 0 1 0 1 1 1 1 1 1 1 1 1 1 1 1 1 1 1 1 1 1 1 1 1 1 1 1 1 1 1 1 1 1 1 1 1 1 1 2 1 2 0 2 0 2 0 2 0 2 0 2 0 2 0 2 0 2 0 2 0 2 0 2 0 2 0 2 0 2 -1 2 -1 2 -1 1 -1 1 -1 1 -1 1 -1 1 -1 1 -1 1 -1 1 -1 1 -1 1 -1 1 -1 1 -1 1 -1 1 -1 1 -1 1 -1 1 -1 0 -2 0 -2 0 -2 0 -2 0 -2 0zm-839 1353l0 68 -2 0 -2 0 -2 0 -2 0 -2 0 -1 0 -1 -1 -1 -1 -1 -1 -1 -1 -1 -1 -1 -1 -1 -1 -1 -1 -1 -1 -1 -1 -1 -1 -1 -1 -1 -1 -1 -1 -1 -1 -1 -1 -1 -1 -1 -2 -1 -2 0 -2 0 -2 0 -2 0 -2 0 -2 0 -2 0 -2 0 -2 0 -2 0 -2 0 -2 0 -2 0 -2 0 -2 1 -2 1 -2 1 -1 1 -1 1 -1 1 -1 1 -1 1 -1 1 -1 1 -1 1 -1 1 -1 1 -1 1 -1 1 -1 1 -1 1 -1 1 -1 1 -1 1 0 2 0 2 0 2 0 2 0 2 0zm761 68l-761 0 0 -68 761 0 0 68zm0 0l0 -68 2 0 2 0 2 0 2 0 2 0 1 0 1 1 1 1 1 1 1 1 1 1 1 1 1 1 1 1 1 1 1 1 1 1 1 1 1 1 1 1 1 1 1 1 1 1 1 2 1 2 0 2 0 2 0 2 0 2 0 2 0 2 0 2 0 2 0 2 0 2 0 2 0 2 0 2 0 2 -1 2 -1 2 -1 1 -1 1 -1 1 -1 1 -1 1 -1 1 -1 1 -1 1 -1 1 -1 1 -1 1 -1 1 -1 1 -1 1 -1 1 -1 1 -1 1 -1 0 -2 0 -2 0 -2 0 -2 0 -2 0zm-761 111l0 68 -2 0 -2 0 -2 0 -2 0 -2 0 -1 0 -1 -1 -1 -1 -1 -1 -1 -1 -1 -1 -1 -1 -1 -1 -1 -1 -1 -1 -1 -1 -1 -1 -1 -1 -1 -1 -1 -1 -1 -1 -1 -1 -1 -1 -1 -2 -1 -2 0 -2 0 -2 0 -2 0 -2 0 -2 0 -2 0 -2 0 -2 0 -2 0 -2 0 -2 0 -2 0 -2 0 -2 1 -2 1 -2 1 -1 1 -1 1 -1 1 -1 1 -1 1 -1 1 -1 1 -1 1 -1 1 -1 1 -1 1 -1 1 -1 1 -1 1 -1 1 -1 1 -1 1 0 2 0 2 0 2 0 2 0 2 0zm1033 68l-1033 0 0 -68 1033 0 0 68zm0 0l0 -68 2 0 2 0 2 0 2 0 2 0 1 0 1 1 1 1 1 1 1 1 1 1 1 1 1 1 1 1 1 1 1 1 1 1 1 1 1 1 1 1 1 1 1 1 1 1 1 2 1 2 0 2 0 2 0 2 0 2 0 2 0 2 0 2 0 2 0 2 0 2 0 2 0 2 0 2 0 2 -1 2 -1 2 -1 1 -1 1 -1 1 -1 1 -1 1 -1 1 -1 1 -1 1 -1 1 -1 1 -1 1 -1 1 -1 1 -1 1 -1 1 -1 1 -1 1 -1 0 -2 0 -2 0 -2 0 -2 0 -2 0zm-1033 -720l0 68 -2 0 -2 0 -2 0 -2 0 -2 0 -1 0 -1 -1 -1 -1 -1 -1 -1 -1 -1 -1 -1 -1 -1 -1 -1 -1 -1 -1 -1 -1 -1 -1 -1 -1 -1 -1 -1 -1 -1 -1 -1 -1 -1 -1 -1 -2 -1 -2 0 -2 0 -2 0 -2 0 -2 0 -2 0 -2 0 -2 0 -2 0 -2 0 -2 0 -2 0 -2 0 -2 0 -2 1 -2 1 -2 1 -1 1 -1 1 -1 1 -1 1 -1 1 -1 1 -1 1 -1 1 -1 1 -1 1 -1 1 -1 1 -1 1 -1 1 -1 1 -1 1 -1 1 0 2 0 2 0 2 0 2 0 2 0zm1795 68l-1795 0 0 -68 1795 0 0 68zm0 0l0 -68 2 0 2 0 2 0 2 0 2 0 1 0 1 1 1 1 1 1 1 1 1 1 1 1 1 1 1 1 1 1 1 1 1 1 1 1 1 1 1 1 1 1 1 1 1 1 1 2 1 2 0 2 0 2 0 2 0 2 0 2 0 2 0 2 0 2 0 2 0 2 0 2 0 2 0 2 0 2 -1 2 -1 2 -1 1 -1 1 -1 1 -1 1 -1 1 -1 1 -1 1 -1 1 -1 1 -1 1 -1 1 -1 1 -1 1 -1 1 -1 1 -1 1 -1 1 -1 0 -2 0 -2 0 -2 0 -2 0 -2 0zm-1795 111l0 68 -2 0 -2 0 -2 0 -2 0 -2 0 -1 0 -1 -1 -1 -1 -1 -1 -1 -1 -1 -1 -1 -1 -1 -1 -1 -1 -1 -1 -1 -1 -1 -1 -1 -1 -1 -1 -1 -1 -1 -1 -1 -1 -1 -1 -1 -2 -1 -2 0 -2 0 -2 0 -2 0 -2 0 -2 0 -2 0 -2 0 -2 0 -2 0 -2 0 -2 0 -2 0 -2 0 -2 1 -2 1 -2 1 -1 1 -1 1 -1 1 -1 1 -1 1 -1 1 -1 1 -1 1 -1 1 -1 1 -1 1 -1 1 -1 1 -1 1 -1 1 -1 1 -1 1 0 2 0 2 0 2 0 2 0 2 0zm1210 68l-1210 0 0 -68 1210 0 0 68zm0 0l0 -68 2 0 2 0 2 0 2 0 2 0 1 0 1 1 1 1 1 1 1 1 1 1 1 1 1 1 1 1 1 1 1 1 1 1 1 1 1 1 1 1 1 1 1 1 1 1 1 2 1 2 0 2 0 2 0 2 0 2 0 2 0 2 0 2 0 2 0 2 0 2 0 2 0 2 0 2 0 2 -1 2 -1 2 -1 1 -1 1 -1 1 -1 1 -1 1 -1 1 -1 1 -1 1 -1 1 -1 1 -1 1 -1 1 -1 1 -1 1 -1 1 -1 1 -1 1 -1 0 -2 0 -2 0 -2 0 -2 0 -2 0zm-1210 -720l0 68 -2 0 -2 0 -2 0 -2 0 -2 0 -1 0 -1 -1 -1 -1 -1 -1 -1 -1 -1 -1 -1 -1 -1 -1 -1 -1 -1 -1 -1 -1 -1 -1 -1 -1 -1 -1 -1 -1 -1 -1 -1 -1 -1 -1 -1 -2 -1 -2 0 -2 0 -2 0 -2 0 -2 0 -2 0 -2 0 -2 0 -2 0 -2 0 -2 0 -2 0 -2 0 -2 0 -2 1 -2 1 -2 1 -1 1 -1 1 -1 1 -1 1 -1 1 -1 1 -1 1 -1 1 -1 1 -1 1 -1 1 -1 1 -1 1 -1 1 -1 1 -1 1 -1 1 0 2 0 2 0 2 0 2 0 2 0zm1795 68l-1795 0 0 -68 1795 0 0 68zm0 0l0 -68 2 0 2 0 2 0 2 0 2 0 1 0 1 1 1 1 1 1 1 1 1 1 1 1 1 1 1 1 1 1 1 1 1 1 1 1 1 1 1 1 1 1 1 1 1 1 1 2 1 2 0 2 0 2 0 2 0 2 0 2 0 2 0 2 0 2 0 2 0 2 0 2 0 2 0 2 0 2 -1 2 -1 2 -1 1 -1 1 -1 1 -1 1 -1 1 -1 1 -1 1 -1 1 -1 1 -1 1 -1 1 -1 1 -1 1 -1 1 -1 1 -1 1 -1 1 -1 0 -2 0 -2 0 -2 0 -2 0 -2 0zm-1795 111l0 68 -2 0 -2 0 -2 0 -2 0 -2 0 -1 0 -1 -1 -1 -1 -1 -1 -1 -1 -1 -1 -1 -1 -1 -1 -1 -1 -1 -1 -1 -1 -1 -1 -1 -1 -1 -1 -1 -1 -1 -1 -1 -1 -1 -1 -1 -2 -1 -2 0 -2 0 -2 0 -2 0 -2 0 -2 0 -2 0 -2 0 -2 0 -2 0 -2 0 -2 0 -2 0 -2 0 -2 1 -2 1 -2 1 -1 1 -1 1 -1 1 -1 1 -1 1 -1 1 -1 1 -1 1 -1 1 -1 1 -1 1 -1 1 -1 1 -1 1 -1 1 -1 1 -1 1 0 2 0 2 0 2 0 2 0 2 0zm1308 68l-1308 0 0 -68 1308 0 0 68zm0 0l0 -68 2 0 2 0 2 0 2 0 2 0 1 0 1 1 1 1 1 1 1 1 1 1 1 1 1 1 1 1 1 1 1 1 1 1 1 1 1 1 1 1 1 1 1 1 1 1 1 2 1 2 0 2 0 2 0 2 0 2 0 2 0 2 0 2 0 2 0 2 0 2 0 2 0 2 0 2 0 2 -1 2 -1 2 -1 1 -1 1 -1 1 -1 1 -1 1 -1 1 -1 1 -1 1 -1 1 -1 1 -1 1 -1 1 -1 1 -1 1 -1 1 -1 1 -1 1 -1 0 -2 0 -2 0 -2 0 -2 0 -2 0zm-1308 -541l0 68 -2 0 -2 0 -2 0 -2 0 -2 0 -1 0 -1 -1 -1 -1 -1 -1 -1 -1 -1 -1 -1 -1 -1 -1 -1 -1 -1 -1 -1 -1 -1 -1 -1 -1 -1 -1 -1 -1 -1 -1 -1 -1 -1 -1 -1 -2 -1 -2 0 -2 0 -2 0 -2 0 -2 0 -2 0 -2 0 -2 0 -2 0 -2 0 -2 0 -2 0 -2 0 -2 0 -2 1 -2 1 -2 1 -1 1 -1 1 -1 1 -1 1 -1 1 -1 1 -1 1 -1 1 -1 1 -1 1 -1 1 -1 1 -1 1 -1 1 -1 1 -1 1 -1 1 0 2 0 2 0 2 0 2 0 2 0zm1802 68l-1802 0 0 -68 1802 0 0 68zm0 0l0 -68 2 0 2 0 2 0 2 0 2 0 1 0 1 1 1 1 1 1 1 1 1 1 1 1 1 1 1 1 1 1 1 1 1 1 1 1 1 1 1 1 1 1 1 1 1 1 1 2 1 2 0 2 0 2 0 2 0 2 0 2 0 2 0 2 0 2 0 2 0 2 0 2 0 2 0 2 0 2 -1 2 -1 2 -1 1 -1 1 -1 1 -1 1 -1 1 -1 1 -1 1 -1 1 -1 1 -1 1 -1 1 -1 1 -1 1 -1 1 -1 1 -1 1 -1 1 -1 0 -2 0 -2 0 -2 0 -2 0 -2 0z"/>
   </g>
   <g>
    <path class="fil5" d="M3098 2742l0 71 -2 0 -2 0 -2 0 -2 0 -2 0 -2 0 -2 -1 -2 -1 -2 -1 -2 -1 -2 -1 -2 -1 -2 -1 -2 -1 -1 -1 -1 -1 -1 -1 -1 -1 -1 -1 -1 -1 -1 -1 -1 -1 -1 -2 -1 -2 -1 -2 -1 -2 -1 -2 0 -2 0 -2 0 -2 0 -2 0 -2 0 -2 0 -2 0 -2 0 -2 0 -2 1 -2 1 -2 1 -2 1 -2 1 -2 1 -1 1 -1 1 -1 1 -1 1 -1 1 -1 1 -1 1 -1 2 -1 2 -1 2 -1 2 -1 2 -1 2 -1 2 -1 2 -1 2 0 2 0 2 0 2 0 2 0 2 0zm2395 71l-2395 0 0 -71 2395 0 0 71zm0 0l0 -71 2 0 2 0 2 0 2 0 2 0 2 0 2 1 2 1 2 1 2 1 2 1 2 1 2 1 2 1 1 1 1 1 1 1 1 1 1 1 1 1 1 1 1 1 1 2 1 2 1 2 1 2 1 2 0 2 0 2 0 2 0 2 0 2 0 2 0 2 0 2 0 2 0 2 -1 2 -1 2 -1 2 -1 2 -1 2 -1 1 -1 1 -1 1 -1 1 -1 1 -1 1 -1 1 -1 1 -2 1 -2 1 -2 1 -2 1 -2 1 -2 1 -2 1 -2 1 -2 0 -2 0 -2 0 -2 0 -2 0 -2 0zm-1849 -217l0 71 -2 0 -2 0 -2 0 -2 0 -2 0 -2 0 -2 -1 -2 -1 -2 -1 -2 -1 -2 -1 -2 -1 -2 -1 -2 -1 -1 -1 -1 -1 -1 -1 -1 -1 -1 -1 -1 -1 -1 -1 -1 -1 -1 -2 -1 -2 -1 -2 -1 -2 -1 -2 0 -2 0 -2 0 -2 0 -2 0 -2 0 -2 0 -2 0 -2 0 -2 0 -2 1 -2 1 -2 1 -2 1 -2 1 -2 1 -1 1 -1 1 -1 1 -1 1 -1 1 -1 1 -1 1 -1 2 -1 2 -1 2 -1 2 -1 2 -1 2 -1 2 -1 2 -1 2 0 2 0 2 0 2 0 2 0 2 0zm1274 71l-1274 0 0 -71 1274 0 0 71zm0 0l0 -71 2 0 2 0 2 0 2 0 2 0 2 0 2 1 2 1 2 1 2 1 2 1 2 1 2 1 2 1 1 1 1 1 1 1 1 1 1 1 1 1 1 1 1 1 1 2 1 2 1 2 1 2 1 2 0 2 0 2 0 2 0 2 0 2 0 2 0 2 0 2 0 2 0 2 -1 2 -1 2 -1 2 -1 2 -1 2 -1 1 -1 1 -1 1 -1 1 -1 1 -1 1 -1 1 -1 1 -2 1 -2 1 -2 1 -2 1 -2 1 -2 1 -2 1 -2 1 -2 0 -2 0 -2 0 -2 0 -2 0 -2 0z"/>
   </g>
   <g>
    <path class="fil10" d="M7043 5302l-31 -8 0 -1 0 -1 0 -1 0 -1 0 -1 0 -1 0 -1 0 -1 1 -1 1 0 1 0 1 0 1 0 1 0 1 0 1 0 1 0 1 0 1 0 1 0 1 0 1 0 1 0 1 0 1 0 1 0 1 0 1 0 1 0 1 0 1 0 1 0 1 0 1 0 1 0 1 0 1 0 1 0 1 0 1 0 1 0 1 0 1 0 1 1 0 1 0 1 0 1 0 1 0 1 0 1 0 1 0 1 0 1 0 1 0 1 0 1 0 1 0 1 0 1 0 1 0 1 0 1 0 1 0 1zm-132 140l17 -23 0 0 8 5 7 6 5 7 4 8 3 8 2 8 2 8 1 8 1 8 0 7 0 7 0 6 0 6 0 5 0 3 0 1 -3 -5 -23 -2 -2 2 1 -2 2 -5 3 -7 3 -9 4 -11 5 -14 6 -16 7 -19 8 -22 9 -25 10 -28 11 -31 12 -34 31 8 -12 34 -11 31 -10 28 -9 25 -8 22 -7 19 -6 16 -5 14 -4 11 -3 9 -3 7 -2 5 -2 4 -4 5 -25 -2 -3 -8 0 -4 0 -4 0 -5 0 -5 0 -6 0 -6 0 -7 -1 -7 -1 -7 -1 -6 -2 -6 -2 -5 -2 -5 -3 -4 -3 -3 -3 -2 0 0zm17 -23l-17 23 -1 0 -1 0 -1 0 -1 0 -1 0 -1 -1 -1 -1 0 -1 0 -1 0 -1 0 -1 0 -1 0 -1 0 -1 0 -1 0 -1 0 -1 0 -1 0 -1 0 -1 0 -1 0 -1 0 -1 0 -1 0 -1 0 -1 0 -1 0 -1 0 -1 0 -1 0 -1 0 -1 0 -1 0 -1 1 -1 1 -1 1 0 1 0 1 0 1 0 1 0 1 0 1 0 1 0 1 0 1 0 1 0 1 0 1 0 1 0 1 0 1 0 1 0 1 0 1 0 1 0 1 0 1 0 1 0 1 0 1 0 1 0 1 0 1 0zm222 -46l-32 -4 0 0 1 -7 -1 -5 -1 -4 -2 -2 -2 -2 -3 -2 -5 -1 -6 -1 -8 0 -9 0 -10 1 -10 2 -11 2 -11 3 -11 4 -11 4 -11 4 -11 5 -11 5 -10 5 -10 5 -9 5 -8 5 -7 5 -5 5 -4 4 -3 4 -1 2 0 1 0 0 0 0 2 1 -17 23 -8 -6 -6 -8 -2 -9 1 -9 3 -8 5 -7 6 -7 7 -7 8 -6 9 -6 10 -6 11 -6 11 -6 12 -6 12 -5 12 -5 13 -4 13 -4 13 -3 12 -3 12 -2 12 -1 12 -1 11 0 11 2 10 3 10 5 8 7 6 8 4 10 1 11 -1 11 0 0zm-32 -4l32 4 0 1 0 1 0 1 0 1 0 1 0 1 0 1 0 1 0 1 0 1 0 1 -1 1 -1 0 -1 0 -1 0 -1 0 -1 0 -1 0 -1 0 -1 0 -1 0 -1 0 -1 0 -1 0 -1 0 -1 0 -1 0 -1 0 -1 0 -1 0 -1 0 -1 0 -1 0 -1 0 -1 0 -1 0 -1 0 -1 0 -1 0 -1 0 -1 0 -1 0 -1 0 -1 0 -1 0 -1 0 0 -1 0 -1 0 -1 0 -1 0 -1 0 -1 0 -1 0 -1 0 -1 0 -1 0 -1 0 -1 0 -1 0 -1 0 -1 0 -1 0 -1 0 -1zm-197 101l-31 6 0 0 0 -9 5 -7 6 -4 6 -2 6 -2 6 -1 7 -1 7 -1 8 -1 8 -1 9 -1 9 -1 9 -1 10 -1 10 -1 10 -2 10 -2 10 -2 10 -2 10 -3 9 -3 9 -3 8 -4 8 -4 7 -4 7 -5 6 -5 5 -6 4 -6 4 -7 3 -7 2 -8 32 4 -3 11 -4 10 -5 10 -6 9 -7 8 -8 7 -9 6 -9 6 -10 5 -10 4 -10 4 -11 3 -11 3 -11 3 -11 2 -11 2 -11 2 -10 2 -10 1 -10 1 -9 1 -9 1 -8 1 -7 1 -7 1 -6 1 -5 1 -3 1 -1 0 1 -1 3 -4 0 -5 0 0zm-31 6l31 -6 0 1 0 1 0 1 0 1 0 1 0 1 0 1 0 1 0 1 0 1 0 1 0 1 0 1 0 1 0 1 0 1 0 1 0 1 0 1 -1 1 -1 0 -1 0 -1 0 -1 0 -1 0 -1 0 -1 0 -1 0 -1 0 -1 0 -1 0 -1 0 -1 0 -1 0 -1 0 -1 0 -1 0 -1 0 -1 0 -1 0 -1 0 -1 0 -1 0 -1 0 -1 0 -1 0 -1 0 -1 0 -1 0 -1 0 -1 0 -1 0 -1 0 -1 0 0 -1 0 -1 0 -1 0 -1 0 -1 0 -1 0 -1 0 -1 0 -1 0 -1zm116 -27l30 10 0 0 -3 6 -3 6 -4 5 -4 5 -5 4 -5 4 -5 4 -5 3 -5 3 -6 2 -6 2 -6 2 -6 1 -6 1 -6 1 -6 0 -6 0 -5 0 -5 -1 -5 -1 -5 -1 -5 -1 -5 -1 -4 -2 -4 -2 -4 -2 -4 -2 -4 -3 -3 -3 -3 -3 -2 -4 -2 -4 31 -6 0 0 0 0 0 0 1 1 1 1 2 1 2 1 2 1 3 1 3 1 3 1 3 1 3 1 4 0 4 0 4 0 4 0 4 0 4 -1 4 -1 4 -1 4 -1 3 -1 3 -2 3 -2 3 -2 3 -2 3 -3 3 -3 2 -3 2 -4 2 -4 0 0zm30 10l-30 -10 0 -1 0 -1 0 -1 0 -1 0 -1 0 -1 1 -1 1 -1 1 0 1 0 1 0 1 0 1 0 1 0 1 0 1 0 1 0 1 0 1 0 1 0 1 0 1 0 1 0 1 0 1 0 1 0 1 0 1 0 1 0 1 0 1 0 1 0 1 0 1 0 1 0 1 0 1 0 1 0 1 0 1 0 1 0 1 0 0 1 0 1 0 1 0 1 0 1 0 1 0 1 0 1 0 1 0 1 0 1 0 1 0 1 0 1 0 1 0 1 0 1 0 1 0 1 0 1 0 1 0 1zm35 8l9 26 0 0 -7 2 -7 1 -7 0 -7 -1 -6 -2 -6 -2 -5 -3 -4 -4 -3 -4 -3 -4 -2 -4 -2 -4 -1 -4 -1 -4 -1 -4 -1 -3 0 -3 0 -3 0 -3 0 -2 0 -2 0 -1 0 1 3 4 15 5 8 -4 1 -1 0 1 -1 2 -1 3 -2 4 -2 5 -30 -10 2 -5 2 -4 2 -3 2 -3 2 -3 3 -3 9 -5 16 5 3 6 1 3 0 2 0 2 0 2 0 2 0 2 0 3 0 3 1 3 1 2 1 2 1 2 1 2 1 1 1 1 1 1 1 1 1 0 1 0 2 0 3 0 4 0 4 -1 0 0zm9 26l-9 -26 1 0 1 0 1 0 1 0 1 0 1 0 1 0 1 0 1 0 1 0 1 0 1 0 1 0 1 0 1 0 1 0 1 0 1 0 1 0 1 0 1 0 1 0 1 0 1 1 0 1 0 1 0 1 0 1 0 1 0 1 0 1 0 1 0 1 0 1 0 1 0 1 0 1 0 1 0 1 0 1 0 1 0 1 0 1 0 1 0 1 0 1 0 1 0 1 0 1 0 1 0 1 0 1 -1 1 -1 0 -1 0 -1 0 -1 0 -1 0 -1 0 -1 0 -1 0 -1 0 -1 0 -1 0zm93 -48l-30 -9 0 0 1 -2 1 -2 0 -1 0 0 0 3 5 8 13 3 5 -1 1 -1 0 0 -1 1 -1 1 -2 1 -2 2 -2 2 -3 2 -3 2 -3 2 -3 3 -4 3 -4 3 -4 3 -4 3 -5 3 -5 3 -5 3 -5 3 -6 2 -6 2 -6 2 -6 2 -7 2 -9 -26 5 -2 5 -2 5 -2 5 -2 5 -2 4 -2 4 -2 4 -2 4 -2 4 -2 4 -2 3 -2 3 -2 3 -2 3 -2 3 -2 2 -2 2 -2 2 -2 2 -2 2 -1 2 -1 2 -1 3 -2 6 -2 13 3 5 9 0 4 0 3 -1 2 -1 2 -1 3 0 0zm-30 -9l30 9 0 1 0 1 0 1 0 1 0 1 0 1 0 1 -1 1 -1 0 -1 0 -1 0 -1 0 -1 0 -1 0 -1 0 -1 0 -1 0 -1 0 -1 0 -1 0 -1 0 -1 0 -1 0 -1 0 -1 0 -1 0 -1 0 -1 0 -1 0 -1 0 -1 0 -1 0 -1 0 -1 0 -1 0 -1 0 -1 0 -1 0 -1 0 -1 0 -1 0 -1 0 -1 0 0 -1 0 -1 0 -1 0 -1 0 -1 0 -1 0 -1 0 -1 0 -1 0 -1 0 -1 0 -1 0 -1 0 -1 0 -1 0 -1 0 -1 0 -1 0 -1 0 -1 0 -1zm50 -1l16 24 0 0 -3 2 -3 2 -3 1 -3 1 -3 1 -3 1 -3 1 -3 1 -3 1 -3 1 -3 1 -3 1 -3 1 -3 0 -3 0 -3 0 -3 0 -4 -1 -4 -1 -4 -2 -3 -3 -2 -3 -2 -3 -1 -3 0 -3 0 -3 0 -3 0 -3 1 -3 1 -3 1 -3 1 -3 30 9 -1 2 -1 2 0 2 0 1 0 1 0 1 0 0 0 0 0 -1 -1 -1 -1 -1 -1 -1 -2 -1 -2 -1 -1 0 -1 0 0 0 0 0 1 0 1 0 1 0 2 0 2 -1 2 -1 2 -1 2 -1 3 -1 3 -1 3 -1 3 -1 3 -1 3 -2 0 0zm16 24l-16 -24 1 0 1 0 1 0 1 0 1 0 1 0 1 0 1 0 1 0 1 0 1 0 1 0 1 0 1 0 1 0 1 0 1 0 1 0 1 0 1 0 1 0 1 0 1 0 1 0 1 0 1 0 1 0 1 1 1 1 0 1 0 1 0 1 0 1 0 1 0 1 0 1 0 1 0 1 0 1 0 1 0 1 0 1 0 1 0 1 0 1 0 1 0 1 0 1 0 1 0 1 0 1 0 1 0 1 0 1 0 1 0 1 0 1 -1 1 -1 0 -1 0 -1 0 -1 0 -1 0 -1 0zm60 -59l15 24 0 0 0 0 -1 0 -1 0 -1 0 -1 1 -1 1 -2 1 -2 1 -2 1 -2 1 -2 1 -2 1 -2 1 -3 1 -3 1 -3 1 -3 1 -3 1 -3 1 -3 1 -3 1 -3 2 -3 2 -3 2 -3 2 -3 2 -3 2 -3 2 -3 2 -3 2 -3 2 -16 -24 3 -2 3 -2 3 -2 3 -2 3 -2 3 -2 3 -2 3 -2 3 -2 3 -2 3 -1 3 -1 3 -1 3 -1 3 -1 3 -1 3 -1 3 -1 2 -1 2 -1 2 -1 2 -1 2 -1 2 -1 2 -1 1 -1 1 -1 1 0 1 0 0 0 0 0 0 0zm15 24l-15 -24 1 0 1 0 1 0 1 0 1 0 1 0 1 0 1 0 1 0 1 0 1 0 1 0 1 0 1 0 1 0 1 0 1 0 1 0 1 0 1 0 1 0 1 0 1 0 1 0 1 0 1 0 1 1 1 1 0 1 0 1 0 1 0 1 0 1 0 1 0 1 0 1 0 1 0 1 0 1 0 1 0 1 0 1 0 1 0 1 0 1 0 1 0 1 0 1 0 1 0 1 0 1 0 1 0 1 0 1 0 1 0 1 -1 1 -1 0 -1 0 -1 0 -1 0 -1 0 -1 0 -1 0z"/>
   </g>
  </g>
 </g>
</svg>
