<?xml version="1.0" encoding="UTF-8"?>
<!DOCTYPE svg PUBLIC "-//W3C//DTD SVG 1.1//EN" "http://www.w3.org/Graphics/SVG/1.1/DTD/svg11.dtd">
<svg version="1.2" width="115.71mm" height="70.56mm" viewBox="0 0 11571 7056" preserveAspectRatio="xMidYMid" fill-rule="evenodd" stroke-width="28.222" stroke-linejoin="round" xmlns="http://www.w3.org/2000/svg" xmlns:ooo="http://xml.openoffice.org/svg/export" xmlns:xlink="http://www.w3.org/1999/xlink" xmlns:presentation="http://sun.com/xmlns/staroffice/presentation" xmlns:smil="http://www.w3.org/2001/SMIL20/" xmlns:anim="urn:oasis:names:tc:opendocument:xmlns:animation:1.0" xml:space="preserve">
 <defs class="ClipPathGroup">
  <clipPath id="presentation_clip_path" clipPathUnits="userSpaceOnUse">
   <rect x="0" y="0" width="11571" height="7056"/>
  </clipPath>
  <clipPath id="presentation_clip_path_shrink" clipPathUnits="userSpaceOnUse">
   <rect x="11" y="7" width="11548" height="7042"/>
  </clipPath>
 </defs>
 <defs class="TextShapeIndex">
  <g ooo:slide="id1" ooo:id-list="id3 id4 id5 id6 id7 id8 id9 id10 id11 id12 id13 id14 id15 id16 id17 id18 id19 id20 id21 id22 id23 id24 id25 id26 id27 id28 id29 id30 id31 id32 id33 id34 id35 id36 id37"/>
 </defs>
 <defs class="EmbeddedBulletChars">
  <g id="bullet-char-template(57356)" transform="scale(0.00048828125,-0.00048828125)">
   <path d="M 580,1141 L 1163,571 580,0 -4,571 580,1141 Z"/>
  </g>
  <g id="bullet-char-template(57354)" transform="scale(0.00048828125,-0.00048828125)">
   <path d="M 8,1128 L 1137,1128 1137,0 8,0 8,1128 Z"/>
  </g>
  <g id="bullet-char-template(10146)" transform="scale(0.00048828125,-0.00048828125)">
   <path d="M 174,0 L 602,739 174,1481 1456,739 174,0 Z M 1358,739 L 309,1346 659,739 1358,739 Z"/>
  </g>
  <g id="bullet-char-template(10132)" transform="scale(0.00048828125,-0.00048828125)">
   <path d="M 2015,739 L 1276,0 717,0 1260,543 174,543 174,936 1260,936 717,1481 1274,1481 2015,739 Z"/>
  </g>
  <g id="bullet-char-template(10007)" transform="scale(0.00048828125,-0.00048828125)">
   <path d="M 0,-2 C -7,14 -16,27 -25,37 L 356,567 C 262,823 215,952 215,954 215,979 228,992 255,992 264,992 276,990 289,987 310,991 331,999 354,1012 L 381,999 492,748 772,1049 836,1024 860,1049 C 881,1039 901,1025 922,1006 886,937 835,863 770,784 769,783 710,716 594,584 L 774,223 C 774,196 753,168 711,139 L 727,119 C 717,90 699,76 672,76 641,76 570,178 457,381 L 164,-76 C 142,-110 111,-127 72,-127 30,-127 9,-110 8,-76 1,-67 -2,-52 -2,-32 -2,-23 -1,-13 0,-2 Z"/>
  </g>
  <g id="bullet-char-template(10004)" transform="scale(0.00048828125,-0.00048828125)">
   <path d="M 285,-33 C 182,-33 111,30 74,156 52,228 41,333 41,471 41,549 55,616 82,672 116,743 169,778 240,778 293,778 328,747 346,684 L 369,508 C 377,444 397,411 428,410 L 1163,1116 C 1174,1127 1196,1133 1229,1133 1271,1133 1292,1118 1292,1087 L 1292,965 C 1292,929 1282,901 1262,881 L 442,47 C 390,-6 338,-33 285,-33 Z"/>
  </g>
  <g id="bullet-char-template(9679)" transform="scale(0.00048828125,-0.00048828125)">
   <path d="M 813,0 C 632,0 489,54 383,161 276,268 223,411 223,592 223,773 276,916 383,1023 489,1130 632,1184 813,1184 992,1184 1136,1130 1245,1023 1353,916 1407,772 1407,592 1407,412 1353,268 1245,161 1136,54 992,0 813,0 Z"/>
  </g>
  <g id="bullet-char-template(8226)" transform="scale(0.00048828125,-0.00048828125)">
   <path d="M 346,457 C 273,457 209,483 155,535 101,586 74,649 74,723 74,796 101,859 155,911 209,963 273,989 346,989 419,989 480,963 531,910 582,859 608,796 608,723 608,648 583,586 532,535 482,483 420,457 346,457 Z"/>
  </g>
  <g id="bullet-char-template(8211)" transform="scale(0.00048828125,-0.00048828125)">
   <path d="M -4,459 L 1135,459 1135,606 -4,606 -4,459 Z"/>
  </g>
  <g id="bullet-char-template(61548)" transform="scale(0.00048828125,-0.00048828125)">
   <path d="M 173,740 C 173,903 231,1043 346,1159 462,1274 601,1332 765,1332 928,1332 1067,1274 1183,1159 1299,1043 1357,903 1357,740 1357,577 1299,437 1183,322 1067,206 928,148 765,148 601,148 462,206 346,322 231,437 173,577 173,740 Z"/>
  </g>
 </defs>
 <defs class="TextEmbeddedBitmaps"/>
 <g>
  <g id="id2" class="Master_Slide">
   <g id="bg-id2" class="Background"/>
   <g id="bo-id2" class="BackgroundObjects"/>
  </g>
 </g>
 <g class="SlideGroup">
  <g>
   <g id="container-id1">
    <g id="id1" class="Slide" clip-path="url(#presentation_clip_path)">
     <g class="Page">
      <g class="com.sun.star.drawing.PolyPolygonShape">
       <g id="id3">
        <rect class="BoundingBox" stroke="none" fill="none" x="0" y="0" width="11573" height="7058"/>
        <g>
         <defs>
          <linearGradient id="gradient1" x1="0" y1="3528" x2="11573" y2="3528" gradientUnits="userSpaceOnUse">
           <stop offset="0" style="stop-color:rgb(255,255,255)"/>
           <stop offset="1" style="stop-color:rgb(209,226,242)"/>
          </linearGradient>
         </defs>
         <path style="fill:url(#gradient1)" d="M 0,0 L 11572,0 11572,7057 0,7057 0,0 Z"/>
        </g>
       </g>
      </g>
      <g class="com.sun.star.drawing.PolyPolygonShape">
       <g id="id4">
        <rect class="BoundingBox" stroke="none" fill="none" x="4368" y="1083" width="3295" height="4903"/>
        <path fill="rgb(255,250,219)" stroke="none" d="M 7662,1083 L 7662,5985 4759,5985 4368,5985 4368,1083 7662,1083 Z"/>
       </g>
      </g>
      <g class="com.sun.star.drawing.ClosedBezierShape">
       <g id="id5">
        <rect class="BoundingBox" stroke="none" fill="none" x="4597" y="4736" width="2910" height="150"/>
        <path fill="rgb(163,125,102)" stroke="none" d="M 4619,4828 L 4644,4802 C 4647,4799 4648,4795 4645,4791 4641,4788 4637,4789 4634,4792 L 4604,4823 C 4602,4824 4602,4826 4602,4828 4602,4830 4602,4832 4604,4833 L 4634,4864 C 4637,4866 4641,4867 4645,4864 4648,4860 4647,4856 4644,4854 L 4619,4828 Z M 4619,4828 L 4619,4828 Z M 4660,4828 L 4686,4802 C 4689,4799 4690,4795 4686,4791 4683,4788 4679,4789 4676,4792 L 4646,4823 C 4644,4824 4643,4826 4643,4828 4643,4830 4644,4832 4646,4833 L 4676,4864 C 4679,4866 4683,4867 4686,4864 4690,4860 4689,4856 4686,4854 L 4660,4828 Z M 4660,4828 L 4660,4828 Z M 4954,4854 C 4951,4856 4950,4860 4954,4864 4958,4867 4961,4866 4964,4864 L 4995,4833 C 4996,4832 4997,4830 4997,4828 4997,4826 4996,4824 4995,4823 L 4964,4792 C 4961,4789 4958,4788 4954,4791 4950,4795 4951,4799 4954,4802 L 4980,4828 4954,4854 Z M 4954,4854 L 4954,4854 Z M 4912,4854 C 4910,4856 4909,4860 4912,4864 4916,4867 4920,4866 4922,4864 L 4953,4833 C 4954,4832 4955,4830 4955,4828 4955,4826 4954,4824 4953,4823 L 4922,4792 C 4920,4789 4916,4788 4912,4791 4909,4795 4910,4799 4912,4802 L 4938,4828 4912,4854 Z M 4912,4854 L 4912,4854 Z M 5549,4845 C 5549,4836 5553,4830 5559,4827 L 5594,4811 C 5612,4802 5615,4789 5615,4776 L 5615,4775 C 5615,4753 5603,4741 5578,4741 L 5566,4741 C 5547,4741 5534,4749 5534,4769 5534,4774 5537,4778 5543,4778 5550,4778 5552,4774 5552,4769 5552,4761 5558,4758 5566,4758 L 5578,4758 C 5592,4758 5597,4763 5597,4775 L 5597,4776 C 5597,4785 5594,4790 5587,4794 L 5554,4808 C 5539,4816 5531,4830 5531,4847 L 5531,4878 5609,4878 C 5613,4878 5617,4875 5617,4869 5617,4863 5613,4860 5609,4860 L 5549,4860 5549,4845 Z M 5549,4845 L 5549,4845 Z M 5653,4789 C 5653,4769 5660,4758 5675,4758 L 5682,4758 C 5697,4758 5704,4769 5704,4789 L 5704,4831 C 5704,4851 5697,4862 5682,4862 L 5675,4862 C 5660,4862 5653,4851 5653,4831 L 5653,4789 Z M 5653,4789 L 5653,4789 Z M 5722,4789 C 5722,4759 5708,4741 5682,4741 L 5675,4741 C 5648,4741 5635,4759 5635,4789 L 5635,4831 C 5635,4861 5648,4880 5675,4880 L 5682,4880 C 5708,4880 5722,4861 5722,4831 L 5722,4789 Z M 5722,4789 L 5722,4789 Z M 5951,4777 L 5908,4777 C 5902,4777 5899,4781 5899,4786 L 5899,4871 C 5899,4875 5902,4880 5908,4880 5914,4880 5917,4875 5917,4871 L 5917,4793 5951,4793 C 5956,4793 5960,4791 5960,4785 5960,4779 5956,4777 5951,4777 Z M 5951,4777 L 5951,4777 Z M 5990,4867 C 5990,4862 5988,4857 5980,4857 5972,4857 5970,4862 5970,4867 L 5970,4869 C 5970,4875 5972,4880 5980,4880 5988,4880 5990,4875 5990,4869 L 5990,4867 Z M 5990,4867 L 5990,4867 Z M 6172,4825 C 6179,4821 6184,4814 6184,4803 L 6184,4801 C 6184,4784 6173,4777 6153,4777 L 6123,4777 C 6117,4777 6114,4781 6114,4785 L 6114,4869 C 6114,4874 6117,4878 6123,4878 L 6158,4878 C 6176,4878 6188,4870 6188,4852 L 6188,4846 C 6188,4835 6182,4828 6172,4825 Z M 6172,4825 L 6172,4825 Z M 6131,4793 L 6150,4793 C 6162,4793 6167,4797 6167,4804 L 6167,4806 C 6167,4814 6161,4818 6154,4818 L 6131,4818 6131,4793 Z M 6131,4793 L 6131,4793 Z M 6171,4849 C 6171,4858 6165,4862 6158,4862 L 6131,4862 6131,4833 6154,4833 C 6164,4833 6171,4838 6171,4847 L 6171,4849 Z M 6171,4849 L 6171,4849 Z M 6581,4775 C 6574,4775 6572,4779 6572,4784 L 6572,4826 6548,4826 C 6539,4826 6534,4822 6534,4815 L 6534,4783 C 6534,4778 6532,4774 6525,4774 6519,4774 6517,4778 6517,4783 L 6517,4815 C 6517,4833 6529,4842 6548,4842 L 6572,4842 6572,4871 C 6572,4875 6574,4880 6580,4880 6587,4880 6589,4875 6589,4871 L 6589,4784 C 6589,4779 6587,4775 6581,4775 Z M 6581,4775 L 6581,4775 Z M 6632,4777 C 6627,4777 6623,4779 6623,4785 6623,4791 6627,4793 6632,4793 L 6657,4793 C 6664,4793 6670,4797 6670,4807 L 6670,4811 6643,4811 C 6625,4811 6614,4819 6614,4837 L 6614,4852 C 6614,4869 6625,4878 6643,4878 L 6678,4878 C 6685,4878 6687,4873 6687,4869 L 6687,4806 C 6687,4789 6676,4777 6657,4777 L 6632,4777 Z M 6632,4777 L 6632,4777 Z M 6643,4862 C 6635,4862 6631,4858 6631,4852 L 6631,4837 C 6631,4831 6635,4827 6643,4827 L 6670,4827 6670,4862 6643,4862 Z M 6643,4862 L 6643,4862 Z M 6748,4863 C 6735,4863 6729,4854 6729,4842 L 6729,4811 C 6729,4799 6735,4792 6748,4792 L 6757,4792 C 6765,4792 6770,4795 6770,4801 6770,4806 6773,4811 6780,4811 6786,4811 6788,4806 6788,4801 6788,4783 6777,4775 6757,4775 L 6748,4775 C 6724,4775 6712,4789 6712,4811 L 6712,4842 C 6712,4864 6724,4880 6748,4880 L 6757,4880 C 6777,4880 6788,4871 6788,4854 6788,4849 6786,4845 6780,4845 6773,4845 6770,4849 6770,4854 6770,4859 6765,4863 6757,4863 L 6748,4863 Z M 6748,4863 L 6748,4863 Z M 6824,4867 C 6824,4862 6821,4857 6814,4857 6806,4857 6803,4862 6803,4867 L 6803,4869 C 6803,4875 6806,4880 6814,4880 6821,4880 6824,4875 6824,4869 L 6824,4867 Z M 6824,4867 L 6824,4867 Z M 7235,4775 C 7232,4775 7229,4777 7226,4780 7221,4790 7213,4806 7203,4823 7202,4826 7200,4830 7199,4835 7197,4830 7195,4826 7194,4823 7185,4806 7176,4790 7171,4780 7169,4777 7165,4775 7162,4775 7155,4775 7153,4779 7153,4784 L 7153,4871 C 7153,4875 7155,4880 7161,4880 7168,4880 7169,4875 7169,4871 7169,4871 7169,4831 7169,4824 7169,4819 7169,4813 7168,4807 7168,4807 7175,4821 7192,4851 7194,4854 7195,4856 7199,4856 7203,4856 7204,4854 7206,4851 7222,4821 7229,4807 7229,4807 7228,4813 7228,4819 7228,4824 7228,4831 7228,4871 7228,4871 7228,4875 7230,4880 7236,4880 7242,4880 7244,4875 7244,4871 L 7244,4784 C 7244,4779 7242,4775 7235,4775 Z M 7235,4775 L 7235,4775 Z M 7344,4775 C 7341,4775 7338,4777 7336,4780 L 7287,4848 C 7288,4843 7288,4840 7288,4835 7288,4828 7288,4784 7288,4784 7288,4779 7286,4775 7280,4775 7274,4775 7272,4779 7272,4784 L 7272,4871 C 7272,4875 7274,4880 7280,4880 7283,4880 7286,4877 7288,4874 L 7336,4807 C 7335,4813 7335,4816 7335,4820 7335,4827 7335,4871 7335,4871 7335,4875 7337,4880 7343,4880 7349,4880 7351,4875 7351,4871 L 7351,4784 C 7351,4779 7349,4775 7344,4775 Z M 7344,4775 L 7344,4775 Z M 7451,4775 C 7444,4775 7442,4779 7442,4784 L 7442,4817 7397,4817 7397,4784 C 7397,4779 7395,4775 7389,4775 7382,4775 7380,4779 7380,4784 L 7380,4871 C 7380,4875 7382,4880 7388,4880 7395,4880 7397,4875 7397,4871 L 7397,4833 7442,4833 7442,4871 C 7442,4875 7444,4880 7450,4880 7457,4880 7459,4875 7459,4871 L 7459,4784 C 7459,4779 7457,4775 7451,4775 Z M 7451,4775 L 7451,4775 Z M 7501,4867 C 7501,4862 7498,4857 7491,4857 7483,4857 7480,4862 7480,4867 L 7480,4869 C 7480,4875 7483,4880 7491,4880 7498,4880 7501,4875 7501,4869 L 7501,4867 Z"/>
        <path fill="none" stroke="rgb(163,125,102)" stroke-width="10" stroke-linejoin="miter" d="M 4619,4828 L 4644,4802 C 4647,4799 4648,4795 4645,4791 4641,4788 4637,4789 4634,4792 L 4604,4823 C 4602,4824 4602,4826 4602,4828 4602,4830 4602,4832 4604,4833 L 4634,4864 C 4637,4866 4641,4867 4645,4864 4648,4860 4647,4856 4644,4854 L 4619,4828 Z"/>
        <path fill="none" stroke="rgb(163,125,102)" stroke-width="10" stroke-linejoin="miter" d="M 4660,4828 L 4686,4802 C 4689,4799 4690,4795 4686,4791 4683,4788 4679,4789 4676,4792 L 4646,4823 C 4644,4824 4643,4826 4643,4828 4643,4830 4644,4832 4646,4833 L 4676,4864 C 4679,4866 4683,4867 4686,4864 4690,4860 4689,4856 4686,4854 L 4660,4828 Z"/>
        <path fill="none" stroke="rgb(163,125,102)" stroke-width="10" stroke-linejoin="miter" d="M 4954,4854 C 4951,4856 4950,4860 4954,4864 4958,4867 4961,4866 4964,4864 L 4995,4833 C 4996,4832 4997,4830 4997,4828 4997,4826 4996,4824 4995,4823 L 4964,4792 C 4961,4789 4958,4788 4954,4791 4950,4795 4951,4799 4954,4802 L 4980,4828 4954,4854 Z"/>
        <path fill="none" stroke="rgb(163,125,102)" stroke-width="10" stroke-linejoin="miter" d="M 4912,4854 C 4910,4856 4909,4860 4912,4864 4916,4867 4920,4866 4922,4864 L 4953,4833 C 4954,4832 4955,4830 4955,4828 4955,4826 4954,4824 4953,4823 L 4922,4792 C 4920,4789 4916,4788 4912,4791 4909,4795 4910,4799 4912,4802 L 4938,4828 4912,4854 Z"/>
        <path fill="none" stroke="rgb(163,125,102)" stroke-width="10" stroke-linejoin="miter" d="M 5549,4845 C 5549,4836 5553,4830 5559,4827 L 5594,4811 C 5612,4802 5615,4789 5615,4776 L 5615,4775 C 5615,4753 5603,4741 5578,4741 L 5566,4741 C 5547,4741 5534,4749 5534,4769 5534,4774 5537,4778 5543,4778 5550,4778 5552,4774 5552,4769 5552,4761 5558,4758 5566,4758 L 5578,4758 C 5592,4758 5597,4763 5597,4775 L 5597,4776 C 5597,4785 5594,4790 5587,4794 L 5554,4808 C 5539,4816 5531,4830 5531,4847 L 5531,4878 5609,4878 C 5613,4878 5617,4875 5617,4869 5617,4863 5613,4860 5609,4860 L 5549,4860 5549,4845 Z"/>
        <path fill="none" stroke="rgb(163,125,102)" stroke-width="10" stroke-linejoin="miter" d="M 5653,4789 C 5653,4769 5660,4758 5675,4758 L 5682,4758 C 5697,4758 5704,4769 5704,4789 L 5704,4831 C 5704,4851 5697,4862 5682,4862 L 5675,4862 C 5660,4862 5653,4851 5653,4831 L 5653,4789 Z"/>
        <path fill="none" stroke="rgb(163,125,102)" stroke-width="10" stroke-linejoin="miter" d="M 5722,4789 C 5722,4759 5708,4741 5682,4741 L 5675,4741 C 5648,4741 5635,4759 5635,4789 L 5635,4831 C 5635,4861 5648,4880 5675,4880 L 5682,4880 C 5708,4880 5722,4861 5722,4831 L 5722,4789 Z"/>
        <path fill="none" stroke="rgb(163,125,102)" stroke-width="10" stroke-linejoin="miter" d="M 5951,4777 L 5908,4777 C 5902,4777 5899,4781 5899,4786 L 5899,4871 C 5899,4875 5902,4880 5908,4880 5914,4880 5917,4875 5917,4871 L 5917,4793 5951,4793 C 5956,4793 5960,4791 5960,4785 5960,4779 5956,4777 5951,4777 Z"/>
        <path fill="none" stroke="rgb(163,125,102)" stroke-width="10" stroke-linejoin="miter" d="M 5990,4867 C 5990,4862 5988,4857 5980,4857 5972,4857 5970,4862 5970,4867 L 5970,4869 C 5970,4875 5972,4880 5980,4880 5988,4880 5990,4875 5990,4869 L 5990,4867 Z"/>
        <path fill="none" stroke="rgb(163,125,102)" stroke-width="10" stroke-linejoin="miter" d="M 6172,4825 C 6179,4821 6184,4814 6184,4803 L 6184,4801 C 6184,4784 6173,4777 6153,4777 L 6123,4777 C 6117,4777 6114,4781 6114,4785 L 6114,4869 C 6114,4874 6117,4878 6123,4878 L 6158,4878 C 6176,4878 6188,4870 6188,4852 L 6188,4846 C 6188,4835 6182,4828 6172,4825 Z"/>
        <path fill="none" stroke="rgb(163,125,102)" stroke-width="10" stroke-linejoin="miter" d="M 6131,4793 L 6150,4793 C 6162,4793 6167,4797 6167,4804 L 6167,4806 C 6167,4814 6161,4818 6154,4818 L 6131,4818 6131,4793 Z"/>
        <path fill="none" stroke="rgb(163,125,102)" stroke-width="10" stroke-linejoin="miter" d="M 6171,4849 C 6171,4858 6165,4862 6158,4862 L 6131,4862 6131,4833 6154,4833 C 6164,4833 6171,4838 6171,4847 L 6171,4849 Z"/>
        <path fill="none" stroke="rgb(163,125,102)" stroke-width="10" stroke-linejoin="miter" d="M 6581,4775 C 6574,4775 6572,4779 6572,4784 L 6572,4826 6548,4826 C 6539,4826 6534,4822 6534,4815 L 6534,4783 C 6534,4778 6532,4774 6525,4774 6519,4774 6517,4778 6517,4783 L 6517,4815 C 6517,4833 6529,4842 6548,4842 L 6572,4842 6572,4871 C 6572,4875 6574,4880 6580,4880 6587,4880 6589,4875 6589,4871 L 6589,4784 C 6589,4779 6587,4775 6581,4775 Z"/>
        <path fill="none" stroke="rgb(163,125,102)" stroke-width="10" stroke-linejoin="miter" d="M 6632,4777 C 6627,4777 6623,4779 6623,4785 6623,4791 6627,4793 6632,4793 L 6657,4793 C 6664,4793 6670,4797 6670,4807 L 6670,4811 6643,4811 C 6625,4811 6614,4819 6614,4837 L 6614,4852 C 6614,4869 6625,4878 6643,4878 L 6678,4878 C 6685,4878 6687,4873 6687,4869 L 6687,4806 C 6687,4789 6676,4777 6657,4777 L 6632,4777 Z"/>
        <path fill="none" stroke="rgb(163,125,102)" stroke-width="10" stroke-linejoin="miter" d="M 6643,4862 C 6635,4862 6631,4858 6631,4852 L 6631,4837 C 6631,4831 6635,4827 6643,4827 L 6670,4827 6670,4862 6643,4862 Z"/>
        <path fill="none" stroke="rgb(163,125,102)" stroke-width="10" stroke-linejoin="miter" d="M 6748,4863 C 6735,4863 6729,4854 6729,4842 L 6729,4811 C 6729,4799 6735,4792 6748,4792 L 6757,4792 C 6765,4792 6770,4795 6770,4801 6770,4806 6773,4811 6780,4811 6786,4811 6788,4806 6788,4801 6788,4783 6777,4775 6757,4775 L 6748,4775 C 6724,4775 6712,4789 6712,4811 L 6712,4842 C 6712,4864 6724,4880 6748,4880 L 6757,4880 C 6777,4880 6788,4871 6788,4854 6788,4849 6786,4845 6780,4845 6773,4845 6770,4849 6770,4854 6770,4859 6765,4863 6757,4863 L 6748,4863 Z"/>
        <path fill="none" stroke="rgb(163,125,102)" stroke-width="10" stroke-linejoin="miter" d="M 6824,4867 C 6824,4862 6821,4857 6814,4857 6806,4857 6803,4862 6803,4867 L 6803,4869 C 6803,4875 6806,4880 6814,4880 6821,4880 6824,4875 6824,4869 L 6824,4867 Z"/>
        <path fill="none" stroke="rgb(163,125,102)" stroke-width="10" stroke-linejoin="miter" d="M 7235,4775 C 7232,4775 7229,4777 7226,4780 7221,4790 7213,4806 7203,4823 7202,4826 7200,4830 7199,4835 7197,4830 7195,4826 7194,4823 7185,4806 7176,4790 7171,4780 7169,4777 7165,4775 7162,4775 7155,4775 7153,4779 7153,4784 L 7153,4871 C 7153,4875 7155,4880 7161,4880 7168,4880 7169,4875 7169,4871 7169,4871 7169,4831 7169,4824 7169,4819 7169,4813 7168,4807 7168,4807 7175,4821 7192,4851 7194,4854 7195,4856 7199,4856 7203,4856 7204,4854 7206,4851 7222,4821 7229,4807 7229,4807 7228,4813 7228,4819 7228,4824 7228,4831 7228,4871 7228,4871 7228,4875 7230,4880 7236,4880 7242,4880 7244,4875 7244,4871 L 7244,4784 C 7244,4779 7242,4775 7235,4775 Z"/>
        <path fill="none" stroke="rgb(163,125,102)" stroke-width="10" stroke-linejoin="miter" d="M 7344,4775 C 7341,4775 7338,4777 7336,4780 L 7287,4848 C 7288,4843 7288,4840 7288,4835 7288,4828 7288,4784 7288,4784 7288,4779 7286,4775 7280,4775 7274,4775 7272,4779 7272,4784 L 7272,4871 C 7272,4875 7274,4880 7280,4880 7283,4880 7286,4877 7288,4874 L 7336,4807 C 7335,4813 7335,4816 7335,4820 7335,4827 7335,4871 7335,4871 7335,4875 7337,4880 7343,4880 7349,4880 7351,4875 7351,4871 L 7351,4784 C 7351,4779 7349,4775 7344,4775 Z"/>
        <path fill="none" stroke="rgb(163,125,102)" stroke-width="10" stroke-linejoin="miter" d="M 7451,4775 C 7444,4775 7442,4779 7442,4784 L 7442,4817 7397,4817 7397,4784 C 7397,4779 7395,4775 7389,4775 7382,4775 7380,4779 7380,4784 L 7380,4871 C 7380,4875 7382,4880 7388,4880 7395,4880 7397,4875 7397,4871 L 7397,4833 7442,4833 7442,4871 C 7442,4875 7444,4880 7450,4880 7457,4880 7459,4875 7459,4871 L 7459,4784 C 7459,4779 7457,4775 7451,4775 Z"/>
        <path fill="none" stroke="rgb(163,125,102)" stroke-width="10" stroke-linejoin="miter" d="M 7501,4867 C 7501,4862 7498,4857 7491,4857 7483,4857 7480,4862 7480,4867 L 7480,4869 C 7480,4875 7483,4880 7491,4880 7498,4880 7501,4875 7501,4869 L 7501,4867 Z"/>
       </g>
      </g>
      <g class="com.sun.star.drawing.ClosedBezierShape">
       <g id="id6">
        <rect class="BoundingBox" stroke="none" fill="none" x="6113" y="4187" width="1381" height="150"/>
        <path fill="rgb(163,125,102)" stroke="none" d="M 6136,4230 C 6136,4218 6141,4209 6154,4209 L 6169,4209 C 6183,4209 6188,4218 6188,4230 L 6188,4292 C 6188,4304 6183,4313 6169,4313 L 6154,4313 C 6141,4313 6136,4304 6136,4292 L 6136,4230 Z M 6136,4230 L 6136,4230 Z M 6206,4230 C 6206,4209 6194,4192 6169,4192 L 6154,4192 C 6130,4192 6118,4209 6118,4230 L 6118,4292 C 6118,4313 6130,4331 6154,4331 L 6169,4331 C 6194,4331 6206,4313 6206,4292 L 6206,4230 Z M 6206,4230 L 6206,4230 Z M 6268,4313 C 6254,4313 6249,4304 6249,4292 L 6249,4230 C 6249,4218 6254,4209 6268,4209 L 6287,4209 C 6295,4209 6300,4212 6301,4220 6301,4225 6303,4229 6309,4229 6316,4229 6319,4225 6319,4220 6319,4200 6307,4192 6287,4192 L 6268,4192 C 6243,4192 6231,4209 6231,4230 L 6231,4292 C 6231,4313 6243,4331 6268,4331 L 6287,4331 C 6307,4331 6319,4322 6319,4302 6319,4297 6316,4293 6309,4293 6303,4293 6301,4297 6301,4302 6300,4310 6295,4313 6287,4313 L 6268,4313 Z M 6268,4313 L 6268,4313 Z M 6357,4230 C 6357,4218 6362,4209 6376,4209 L 6391,4209 C 6404,4209 6409,4218 6409,4230 L 6409,4292 C 6409,4304 6404,4313 6391,4313 L 6376,4313 C 6362,4313 6357,4304 6357,4292 L 6357,4230 Z M 6357,4230 L 6357,4230 Z M 6428,4230 C 6428,4209 6415,4192 6391,4192 L 6376,4192 C 6351,4192 6339,4209 6339,4230 L 6339,4292 C 6339,4313 6351,4331 6376,4331 L 6391,4331 C 6415,4331 6428,4313 6428,4292 L 6428,4230 Z M 6428,4230 L 6428,4230 Z M 6501,4247 L 6473,4247 6473,4211 6522,4211 C 6526,4211 6530,4208 6530,4202 6530,4196 6526,4193 6522,4193 L 6464,4193 C 6457,4193 6455,4198 6455,4202 L 6455,4320 C 6455,4324 6457,4329 6464,4329 L 6501,4329 C 6525,4329 6537,4313 6537,4291 L 6537,4283 C 6537,4260 6525,4247 6501,4247 Z M 6501,4247 L 6501,4247 Z M 6519,4293 C 6519,4305 6514,4311 6501,4311 L 6473,4311 6473,4264 6501,4264 C 6514,4264 6519,4270 6519,4282 L 6519,4293 Z M 6519,4293 L 6519,4293 Z M 6577,4230 C 6577,4218 6582,4209 6595,4209 L 6611,4209 C 6624,4209 6629,4218 6629,4230 L 6629,4292 C 6629,4304 6624,4313 6611,4313 L 6595,4313 C 6582,4313 6577,4304 6577,4292 L 6577,4230 Z M 6577,4230 L 6577,4230 Z M 6647,4230 C 6647,4209 6635,4192 6611,4192 L 6595,4192 C 6571,4192 6559,4209 6559,4230 L 6559,4292 C 6559,4313 6571,4331 6595,4331 L 6611,4331 C 6635,4331 6647,4313 6647,4292 L 6647,4230 Z M 6647,4230 L 6647,4230 Z M 6745,4329 C 6749,4329 6753,4326 6753,4320 6753,4314 6749,4311 6745,4311 L 6692,4311 6692,4268 6736,4268 C 6740,4268 6744,4266 6744,4259 6744,4253 6740,4250 6736,4250 L 6692,4250 6692,4211 6745,4211 C 6749,4211 6753,4208 6753,4202 6753,4196 6749,4193 6745,4193 L 6683,4193 C 6677,4193 6674,4198 6674,4202 L 6674,4320 C 6674,4324 6677,4329 6683,4329 L 6745,4329 Z M 6745,4329 L 6745,4329 Z M 6880,4269 C 6879,4265 6877,4262 6875,4257 L 6845,4198 C 6842,4193 6840,4192 6836,4192 6830,4192 6827,4196 6827,4200 L 6827,4322 C 6827,4326 6830,4331 6836,4331 6842,4331 6845,4326 6845,4322 L 6845,4247 C 6845,4242 6845,4237 6844,4234 L 6844,4234 6872,4288 C 6873,4291 6875,4293 6880,4293 6884,4293 6886,4291 6888,4288 L 6915,4234 6915,4234 C 6915,4237 6914,4242 6914,4247 L 6914,4322 C 6914,4326 6917,4331 6923,4331 6930,4331 6932,4326 6932,4322 L 6932,4200 C 6932,4196 6930,4192 6923,4192 6919,4192 6917,4193 6914,4198 L 6884,4257 C 6882,4262 6881,4265 6880,4269 Z M 6880,4269 L 6880,4269 Z M 7048,4200 C 7048,4196 7045,4192 7039,4192 7032,4192 7030,4196 7030,4200 L 7030,4248 6979,4248 6979,4200 C 6979,4196 6977,4192 6970,4192 6964,4192 6961,4196 6961,4200 L 6961,4322 C 6961,4326 6964,4331 6970,4331 6977,4331 6979,4326 6979,4322 L 6979,4266 7030,4266 7030,4322 C 7030,4326 7032,4331 7039,4331 7045,4331 7048,4326 7048,4322 L 7048,4200 Z M 7048,4200 L 7048,4200 Z M 7148,4329 C 7152,4329 7156,4326 7156,4320 7156,4314 7152,4311 7148,4311 L 7095,4311 7095,4268 7138,4268 C 7143,4268 7147,4266 7147,4259 7147,4253 7143,4250 7138,4250 L 7095,4250 7095,4211 7148,4211 C 7152,4211 7156,4208 7156,4202 7156,4196 7152,4193 7148,4193 L 7086,4193 C 7080,4193 7077,4198 7077,4202 L 7077,4320 C 7077,4324 7080,4329 7086,4329 L 7148,4329 Z M 7148,4329 L 7148,4329 Z M 7264,4200 C 7264,4196 7261,4192 7255,4192 7249,4192 7246,4196 7246,4200 L 7246,4248 7195,4248 7195,4200 C 7195,4196 7193,4192 7186,4192 7180,4192 7177,4196 7177,4200 L 7177,4322 C 7177,4326 7180,4331 7186,4331 7193,4331 7195,4326 7195,4322 L 7195,4266 7246,4266 7246,4322 C 7246,4326 7248,4331 7255,4331 7261,4331 7264,4326 7264,4322 L 7264,4200 Z M 7264,4200 L 7264,4200 Z M 7362,4322 C 7362,4326 7364,4331 7371,4331 7377,4331 7380,4326 7380,4322 L 7380,4200 C 7380,4196 7377,4192 7370,4192 7367,4192 7364,4193 7361,4198 L 7310,4290 7310,4290 C 7310,4287 7311,4282 7311,4277 L 7311,4200 C 7311,4196 7308,4192 7302,4192 7296,4192 7293,4196 7293,4200 L 7293,4322 C 7293,4326 7296,4331 7302,4331 7306,4331 7308,4329 7311,4324 L 7363,4232 7363,4232 C 7362,4235 7362,4240 7362,4245 L 7362,4322 Z M 7362,4322 L 7362,4322 Z M 7479,4329 C 7484,4329 7488,4326 7488,4320 7488,4314 7484,4311 7479,4311 L 7427,4311 7427,4268 7470,4268 C 7475,4268 7479,4266 7479,4259 7479,4253 7475,4250 7470,4250 L 7427,4250 7427,4211 7479,4211 C 7484,4211 7488,4208 7488,4202 7488,4196 7484,4193 7479,4193 L 7418,4193 C 7411,4193 7409,4198 7409,4202 L 7409,4320 C 7409,4324 7411,4329 7418,4329 L 7479,4329 Z"/>
        <path fill="none" stroke="rgb(163,125,102)" stroke-width="10" stroke-linejoin="miter" d="M 6136,4230 C 6136,4218 6141,4209 6154,4209 L 6169,4209 C 6183,4209 6188,4218 6188,4230 L 6188,4292 C 6188,4304 6183,4313 6169,4313 L 6154,4313 C 6141,4313 6136,4304 6136,4292 L 6136,4230 Z"/>
        <path fill="none" stroke="rgb(163,125,102)" stroke-width="10" stroke-linejoin="miter" d="M 6206,4230 C 6206,4209 6194,4192 6169,4192 L 6154,4192 C 6130,4192 6118,4209 6118,4230 L 6118,4292 C 6118,4313 6130,4331 6154,4331 L 6169,4331 C 6194,4331 6206,4313 6206,4292 L 6206,4230 Z"/>
        <path fill="none" stroke="rgb(163,125,102)" stroke-width="10" stroke-linejoin="miter" d="M 6268,4313 C 6254,4313 6249,4304 6249,4292 L 6249,4230 C 6249,4218 6254,4209 6268,4209 L 6287,4209 C 6295,4209 6300,4212 6301,4220 6301,4225 6303,4229 6309,4229 6316,4229 6319,4225 6319,4220 6319,4200 6307,4192 6287,4192 L 6268,4192 C 6243,4192 6231,4209 6231,4230 L 6231,4292 C 6231,4313 6243,4331 6268,4331 L 6287,4331 C 6307,4331 6319,4322 6319,4302 6319,4297 6316,4293 6309,4293 6303,4293 6301,4297 6301,4302 6300,4310 6295,4313 6287,4313 L 6268,4313 Z"/>
        <path fill="none" stroke="rgb(163,125,102)" stroke-width="10" stroke-linejoin="miter" d="M 6357,4230 C 6357,4218 6362,4209 6376,4209 L 6391,4209 C 6404,4209 6409,4218 6409,4230 L 6409,4292 C 6409,4304 6404,4313 6391,4313 L 6376,4313 C 6362,4313 6357,4304 6357,4292 L 6357,4230 Z"/>
        <path fill="none" stroke="rgb(163,125,102)" stroke-width="10" stroke-linejoin="miter" d="M 6428,4230 C 6428,4209 6415,4192 6391,4192 L 6376,4192 C 6351,4192 6339,4209 6339,4230 L 6339,4292 C 6339,4313 6351,4331 6376,4331 L 6391,4331 C 6415,4331 6428,4313 6428,4292 L 6428,4230 Z"/>
        <path fill="none" stroke="rgb(163,125,102)" stroke-width="10" stroke-linejoin="miter" d="M 6501,4247 L 6473,4247 6473,4211 6522,4211 C 6526,4211 6530,4208 6530,4202 6530,4196 6526,4193 6522,4193 L 6464,4193 C 6457,4193 6455,4198 6455,4202 L 6455,4320 C 6455,4324 6457,4329 6464,4329 L 6501,4329 C 6525,4329 6537,4313 6537,4291 L 6537,4283 C 6537,4260 6525,4247 6501,4247 Z"/>
        <path fill="none" stroke="rgb(163,125,102)" stroke-width="10" stroke-linejoin="miter" d="M 6519,4293 C 6519,4305 6514,4311 6501,4311 L 6473,4311 6473,4264 6501,4264 C 6514,4264 6519,4270 6519,4282 L 6519,4293 Z"/>
        <path fill="none" stroke="rgb(163,125,102)" stroke-width="10" stroke-linejoin="miter" d="M 6577,4230 C 6577,4218 6582,4209 6595,4209 L 6611,4209 C 6624,4209 6629,4218 6629,4230 L 6629,4292 C 6629,4304 6624,4313 6611,4313 L 6595,4313 C 6582,4313 6577,4304 6577,4292 L 6577,4230 Z"/>
        <path fill="none" stroke="rgb(163,125,102)" stroke-width="10" stroke-linejoin="miter" d="M 6647,4230 C 6647,4209 6635,4192 6611,4192 L 6595,4192 C 6571,4192 6559,4209 6559,4230 L 6559,4292 C 6559,4313 6571,4331 6595,4331 L 6611,4331 C 6635,4331 6647,4313 6647,4292 L 6647,4230 Z"/>
        <path fill="none" stroke="rgb(163,125,102)" stroke-width="10" stroke-linejoin="miter" d="M 6745,4329 C 6749,4329 6753,4326 6753,4320 6753,4314 6749,4311 6745,4311 L 6692,4311 6692,4268 6736,4268 C 6740,4268 6744,4266 6744,4259 6744,4253 6740,4250 6736,4250 L 6692,4250 6692,4211 6745,4211 C 6749,4211 6753,4208 6753,4202 6753,4196 6749,4193 6745,4193 L 6683,4193 C 6677,4193 6674,4198 6674,4202 L 6674,4320 C 6674,4324 6677,4329 6683,4329 L 6745,4329 Z"/>
        <path fill="none" stroke="rgb(163,125,102)" stroke-width="10" stroke-linejoin="miter" d="M 6880,4269 C 6879,4265 6877,4262 6875,4257 L 6845,4198 C 6842,4193 6840,4192 6836,4192 6830,4192 6827,4196 6827,4200 L 6827,4322 C 6827,4326 6830,4331 6836,4331 6842,4331 6845,4326 6845,4322 L 6845,4247 C 6845,4242 6845,4237 6844,4234 L 6844,4234 6872,4288 C 6873,4291 6875,4293 6880,4293 6884,4293 6886,4291 6888,4288 L 6915,4234 6915,4234 C 6915,4237 6914,4242 6914,4247 L 6914,4322 C 6914,4326 6917,4331 6923,4331 6930,4331 6932,4326 6932,4322 L 6932,4200 C 6932,4196 6930,4192 6923,4192 6919,4192 6917,4193 6914,4198 L 6884,4257 C 6882,4262 6881,4265 6880,4269 Z"/>
        <path fill="none" stroke="rgb(163,125,102)" stroke-width="10" stroke-linejoin="miter" d="M 7048,4200 C 7048,4196 7045,4192 7039,4192 7032,4192 7030,4196 7030,4200 L 7030,4248 6979,4248 6979,4200 C 6979,4196 6977,4192 6970,4192 6964,4192 6961,4196 6961,4200 L 6961,4322 C 6961,4326 6964,4331 6970,4331 6977,4331 6979,4326 6979,4322 L 6979,4266 7030,4266 7030,4322 C 7030,4326 7032,4331 7039,4331 7045,4331 7048,4326 7048,4322 L 7048,4200 Z"/>
        <path fill="none" stroke="rgb(163,125,102)" stroke-width="10" stroke-linejoin="miter" d="M 7148,4329 C 7152,4329 7156,4326 7156,4320 7156,4314 7152,4311 7148,4311 L 7095,4311 7095,4268 7138,4268 C 7143,4268 7147,4266 7147,4259 7147,4253 7143,4250 7138,4250 L 7095,4250 7095,4211 7148,4211 C 7152,4211 7156,4208 7156,4202 7156,4196 7152,4193 7148,4193 L 7086,4193 C 7080,4193 7077,4198 7077,4202 L 7077,4320 C 7077,4324 7080,4329 7086,4329 L 7148,4329 Z"/>
        <path fill="none" stroke="rgb(163,125,102)" stroke-width="10" stroke-linejoin="miter" d="M 7264,4200 C 7264,4196 7261,4192 7255,4192 7249,4192 7246,4196 7246,4200 L 7246,4248 7195,4248 7195,4200 C 7195,4196 7193,4192 7186,4192 7180,4192 7177,4196 7177,4200 L 7177,4322 C 7177,4326 7180,4331 7186,4331 7193,4331 7195,4326 7195,4322 L 7195,4266 7246,4266 7246,4322 C 7246,4326 7248,4331 7255,4331 7261,4331 7264,4326 7264,4322 L 7264,4200 Z"/>
        <path fill="none" stroke="rgb(163,125,102)" stroke-width="10" stroke-linejoin="miter" d="M 7362,4322 C 7362,4326 7364,4331 7371,4331 7377,4331 7380,4326 7380,4322 L 7380,4200 C 7380,4196 7377,4192 7370,4192 7367,4192 7364,4193 7361,4198 L 7310,4290 7310,4290 C 7310,4287 7311,4282 7311,4277 L 7311,4200 C 7311,4196 7308,4192 7302,4192 7296,4192 7293,4196 7293,4200 L 7293,4322 C 7293,4326 7296,4331 7302,4331 7306,4331 7308,4329 7311,4324 L 7363,4232 7363,4232 C 7362,4235 7362,4240 7362,4245 L 7362,4322 Z"/>
        <path fill="none" stroke="rgb(163,125,102)" stroke-width="10" stroke-linejoin="miter" d="M 7479,4329 C 7484,4329 7488,4326 7488,4320 7488,4314 7484,4311 7479,4311 L 7427,4311 7427,4268 7470,4268 C 7475,4268 7479,4266 7479,4259 7479,4253 7475,4250 7470,4250 L 7427,4250 7427,4211 7479,4211 C 7484,4211 7488,4208 7488,4202 7488,4196 7484,4193 7479,4193 L 7418,4193 C 7411,4193 7409,4198 7409,4202 L 7409,4320 C 7409,4324 7411,4329 7418,4329 L 7479,4329 Z"/>
       </g>
      </g>
      <g class="com.sun.star.drawing.ClosedBezierShape">
       <g id="id7">
        <rect class="BoundingBox" stroke="none" fill="none" x="4368" y="1083" width="3295" height="1847"/>
        <path fill="rgb(255,247,179)" stroke="none" d="M 4368,1083 L 7662,1083 7662,2929 4368,1363 C 4372,1219 4368,1178 4368,1083 Z"/>
       </g>
      </g>
      <g class="com.sun.star.drawing.ClosedBezierShape">
       <g id="id8">
        <rect class="BoundingBox" stroke="none" fill="none" x="3916" y="624" width="542" height="564"/>
        <path fill="rgb(204,117,135)" stroke="none" d="M 4220,691 C 4273,691 4321,713 4355,748 L 4426,677 4363,921 4182,921 4252,850 4252,850 C 4218,816 4172,794 4120,794 4015,794 3932,878 3932,983 3932,1084 4012,1167 4114,1170 L 4217,1066 C 4115,1065 4032,982 4032,878 4032,775 4117,691 4220,691 Z"/>
        <path fill="none" stroke="rgb(204,117,135)" stroke-width="32" stroke-linejoin="miter" d="M 4220,691 C 4273,691 4321,713 4355,748 L 4426,677 4363,921 4182,921 4252,850 4252,850 C 4218,816 4172,794 4120,794 4015,794 3932,878 3932,983 3932,1084 4012,1167 4114,1170 L 4217,1066 C 4115,1065 4032,982 4032,878 4032,775 4117,691 4220,691 Z"/>
       </g>
      </g>
      <g class="com.sun.star.drawing.OpenBezierShape">
       <g id="id9">
        <rect class="BoundingBox" stroke="none" fill="none" x="4878" y="2260" width="2275" height="317"/>
        <path fill="none" stroke="rgb(163,125,102)" stroke-width="68" stroke-linejoin="round" stroke-linecap="round" d="M 7118,2294 L 4912,2294"/>
        <path fill="none" stroke="rgb(163,125,102)" stroke-width="68" stroke-linejoin="round" stroke-linecap="round" d="M 6425,2542 C 5921,2542 5416,2542 4912,2542"/>
       </g>
      </g>
      <g class="com.sun.star.drawing.LineShape">
       <g id="id10">
        <rect class="BoundingBox" stroke="none" fill="none" x="4878" y="2012" width="2273" height="69"/>
        <path fill="none" stroke="rgb(163,125,102)" stroke-width="68" stroke-linejoin="round" stroke-linecap="round" d="M 7116,2046 L 4912,2046"/>
       </g>
      </g>
      <g class="com.sun.star.drawing.LineShape">
       <g id="id11">
        <rect class="BoundingBox" stroke="none" fill="none" x="4878" y="1765" width="2273" height="69"/>
        <path fill="none" stroke="rgb(163,125,102)" stroke-width="68" stroke-linejoin="round" stroke-linecap="round" d="M 7116,1799 L 4912,1799"/>
       </g>
      </g>
      <g class="com.sun.star.drawing.ClosedBezierShape">
       <g id="id12">
        <rect class="BoundingBox" stroke="none" fill="none" x="5110" y="4429" width="1812" height="175"/>
        <path fill="rgb(163,125,102)" stroke="none" d="M 5179,4453 L 5179,4565 C 5179,4570 5182,4574 5188,4574 5194,4574 5197,4570 5197,4565 L 5197,4445 C 5197,4440 5194,4436 5188,4436 L 5124,4436 C 5117,4436 5115,4440 5115,4445 L 5115,4565 C 5115,4570 5117,4574 5124,4574 5130,4574 5133,4570 5133,4565 L 5133,4453 5179,4453 Z M 5179,4453 L 5179,4453 Z M 5244,4502 L 5244,4453 5274,4453 C 5288,4453 5293,4460 5293,4471 L 5293,4482 C 5293,4493 5288,4502 5274,4502 L 5244,4502 Z M 5244,4502 L 5244,4502 Z M 5274,4519 C 5299,4519 5311,4503 5311,4482 L 5311,4471 C 5311,4450 5299,4436 5274,4436 L 5235,4436 C 5229,4436 5226,4440 5226,4445 L 5226,4565 C 5226,4570 5229,4574 5235,4574 5242,4574 5244,4570 5244,4565 L 5244,4519 5274,4519 Z M 5274,4519 L 5274,4519 Z M 5350,4472 C 5350,4460 5355,4451 5368,4451 L 5384,4451 C 5397,4451 5402,4460 5402,4472 L 5402,4535 C 5402,4547 5397,4557 5384,4557 L 5368,4557 C 5355,4557 5350,4547 5350,4535 L 5350,4472 Z M 5350,4472 L 5350,4472 Z M 5420,4472 C 5420,4451 5408,4434 5384,4434 L 5368,4434 C 5344,4434 5332,4451 5332,4472 L 5332,4535 C 5332,4557 5344,4574 5368,4574 L 5384,4574 C 5408,4574 5420,4557 5420,4535 L 5420,4472 Z M 5420,4472 L 5420,4472 Z M 5481,4574 C 5487,4574 5490,4570 5490,4565 L 5490,4453 5518,4453 C 5522,4453 5526,4451 5526,4444 5526,4439 5522,4436 5518,4436 L 5443,4436 C 5439,4436 5435,4439 5435,4444 5435,4451 5439,4453 5443,4453 L 5472,4453 5472,4565 C 5472,4570 5474,4574 5481,4574 Z M 5481,4574 L 5481,4574 Z M 5559,4472 C 5559,4460 5564,4451 5577,4451 L 5593,4451 C 5606,4451 5611,4460 5611,4472 L 5611,4535 C 5611,4547 5606,4557 5593,4557 L 5577,4557 C 5564,4557 5559,4547 5559,4535 L 5559,4472 Z M 5559,4472 L 5559,4472 Z M 5629,4472 C 5629,4451 5617,4434 5593,4434 L 5577,4434 C 5553,4434 5541,4451 5541,4472 L 5541,4535 C 5541,4557 5553,4574 5577,4574 L 5593,4574 C 5617,4574 5629,4557 5629,4535 L 5629,4472 Z M 5629,4472 L 5629,4472 Z M 5742,4560 L 5701,4500 5740,4448 C 5743,4444 5743,4439 5740,4436 5735,4433 5729,4434 5726,4438 L 5686,4493 5674,4493 5674,4443 C 5674,4438 5672,4434 5665,4434 5659,4434 5656,4438 5656,4443 L 5656,4565 C 5656,4570 5659,4574 5665,4574 5672,4574 5674,4570 5674,4565 L 5674,4511 5686,4511 5727,4570 C 5730,4574 5735,4576 5740,4573 5745,4569 5745,4564 5742,4560 Z M 5742,4560 L 5742,4560 Z M 5781,4472 C 5781,4460 5786,4451 5799,4451 L 5815,4451 C 5828,4451 5833,4460 5833,4472 L 5833,4535 C 5833,4547 5828,4557 5815,4557 L 5799,4557 C 5786,4557 5781,4547 5781,4535 L 5781,4472 Z M 5781,4472 L 5781,4472 Z M 5851,4472 C 5851,4451 5839,4434 5815,4434 L 5799,4434 C 5775,4434 5763,4451 5763,4472 L 5763,4535 C 5763,4557 5775,4574 5799,4574 L 5815,4574 C 5839,4574 5851,4557 5851,4535 L 5851,4472 Z M 5851,4472 L 5851,4472 Z M 5905,4547 C 5906,4536 5916,4453 5916,4453 L 5950,4453 5950,4565 C 5950,4570 5953,4574 5959,4574 5965,4574 5968,4570 5968,4565 L 5968,4445 C 5968,4440 5965,4436 5959,4436 L 5909,4436 C 5904,4436 5900,4439 5900,4445 5899,4450 5889,4535 5888,4543 5887,4547 5887,4550 5886,4552 5884,4555 5881,4557 5875,4557 5870,4557 5866,4560 5866,4566 5866,4573 5870,4575 5875,4575 5892,4575 5899,4570 5902,4560 5904,4555 5904,4552 5905,4547 Z M 5905,4547 L 5905,4547 Z M 6114,4453 L 6114,4565 C 6114,4570 6117,4574 6123,4574 6129,4574 6132,4570 6132,4565 L 6132,4445 C 6132,4440 6129,4436 6123,4436 L 6059,4436 C 6052,4436 6050,4440 6050,4445 L 6050,4565 C 6050,4570 6052,4574 6059,4574 6065,4574 6068,4570 6068,4565 L 6068,4453 6114,4453 Z M 6114,4453 L 6114,4453 Z M 6178,4472 C 6178,4460 6183,4451 6196,4451 L 6211,4451 C 6225,4451 6230,4460 6230,4472 L 6230,4535 C 6230,4547 6225,4557 6211,4557 L 6196,4557 C 6183,4557 6178,4547 6178,4535 L 6178,4472 Z M 6178,4472 L 6178,4472 Z M 6248,4472 C 6248,4451 6236,4434 6211,4434 L 6196,4434 C 6172,4434 6159,4451 6159,4472 L 6159,4535 C 6159,4557 6172,4574 6196,4574 L 6211,4574 C 6236,4574 6248,4557 6248,4535 L 6248,4472 Z M 6248,4472 L 6248,4472 Z M 6363,4554 L 6359,4554 6359,4445 C 6359,4440 6356,4436 6350,4436 L 6304,4436 C 6298,4436 6295,4440 6294,4445 L 6277,4554 6271,4554 C 6265,4554 6262,4559 6262,4564 L 6262,4588 C 6262,4593 6265,4597 6271,4597 6278,4597 6280,4593 6280,4588 L 6280,4572 6353,4572 6353,4588 C 6353,4593 6356,4597 6363,4597 6369,4597 6371,4593 6371,4588 L 6371,4564 C 6371,4559 6369,4554 6363,4554 Z M 6363,4554 L 6363,4554 Z M 6297,4541 L 6310,4453 6341,4453 6341,4554 6294,4554 C 6295,4549 6296,4545 6297,4541 Z M 6297,4541 L 6297,4541 Z M 6456,4453 L 6456,4565 C 6456,4570 6458,4574 6465,4574 6471,4574 6474,4570 6474,4565 L 6474,4445 C 6474,4440 6471,4436 6465,4436 L 6400,4436 C 6394,4436 6391,4440 6391,4445 L 6391,4565 C 6391,4570 6394,4574 6400,4574 6407,4574 6409,4570 6409,4565 L 6409,4453 6456,4453 Z M 6456,4453 L 6456,4453 Z M 6572,4565 C 6572,4570 6574,4574 6581,4574 6587,4574 6590,4570 6590,4565 L 6590,4443 C 6590,4438 6587,4434 6580,4434 6577,4434 6574,4435 6571,4440 L 6520,4533 6520,4533 C 6520,4529 6521,4525 6521,4519 L 6521,4443 C 6521,4438 6518,4434 6512,4434 6506,4434 6503,4438 6503,4443 L 6503,4565 C 6503,4570 6506,4574 6512,4574 6516,4574 6518,4573 6521,4567 L 6573,4474 6573,4474 C 6572,4479 6572,4483 6572,4488 L 6572,4565 Z M 6572,4565 L 6572,4565 Z M 6653,4557 C 6640,4557 6635,4547 6635,4535 L 6635,4472 C 6635,4460 6640,4451 6653,4451 L 6673,4451 C 6681,4451 6685,4455 6686,4462 6687,4467 6689,4471 6695,4471 6702,4471 6704,4467 6704,4462 6704,4443 6692,4434 6673,4434 L 6653,4434 C 6629,4434 6617,4451 6617,4472 L 6617,4535 C 6617,4557 6629,4574 6653,4574 L 6673,4574 C 6692,4574 6704,4565 6704,4544 6704,4540 6702,4536 6695,4536 6689,4536 6687,4540 6686,4544 6685,4552 6681,4557 6673,4557 L 6653,4557 Z M 6653,4557 L 6653,4557 Z M 6784,4533 L 6795,4568 C 6797,4572 6801,4575 6806,4573 6811,4572 6813,4567 6812,4563 L 6773,4440 C 6772,4436 6769,4434 6764,4434 L 6763,4434 C 6758,4434 6755,4436 6754,4440 L 6715,4563 C 6714,4567 6716,4572 6721,4573 6726,4575 6730,4572 6732,4568 L 6743,4533 6784,4533 Z M 6784,4533 L 6784,4533 Z M 6761,4474 C 6762,4470 6762,4468 6763,4463 L 6764,4463 C 6765,4468 6765,4470 6766,4474 L 6779,4517 6747,4517 6761,4474 Z M 6761,4474 L 6761,4474 Z M 6916,4443 C 6916,4438 6913,4434 6907,4434 6900,4434 6898,4438 6898,4443 L 6898,4491 6847,4491 6847,4443 C 6847,4438 6845,4434 6838,4434 6832,4434 6829,4438 6829,4443 L 6829,4565 C 6829,4570 6832,4574 6838,4574 6845,4574 6847,4570 6847,4565 L 6847,4509 6898,4509 6898,4565 C 6898,4570 6900,4574 6907,4574 6913,4574 6916,4570 6916,4565 L 6916,4443 Z"/>
        <path fill="none" stroke="rgb(163,125,102)" stroke-width="10" stroke-linejoin="miter" d="M 5179,4453 L 5179,4565 C 5179,4570 5182,4574 5188,4574 5194,4574 5197,4570 5197,4565 L 5197,4445 C 5197,4440 5194,4436 5188,4436 L 5124,4436 C 5117,4436 5115,4440 5115,4445 L 5115,4565 C 5115,4570 5117,4574 5124,4574 5130,4574 5133,4570 5133,4565 L 5133,4453 5179,4453 Z"/>
        <path fill="none" stroke="rgb(163,125,102)" stroke-width="10" stroke-linejoin="miter" d="M 5244,4502 L 5244,4453 5274,4453 C 5288,4453 5293,4460 5293,4471 L 5293,4482 C 5293,4493 5288,4502 5274,4502 L 5244,4502 Z"/>
        <path fill="none" stroke="rgb(163,125,102)" stroke-width="10" stroke-linejoin="miter" d="M 5274,4519 C 5299,4519 5311,4503 5311,4482 L 5311,4471 C 5311,4450 5299,4436 5274,4436 L 5235,4436 C 5229,4436 5226,4440 5226,4445 L 5226,4565 C 5226,4570 5229,4574 5235,4574 5242,4574 5244,4570 5244,4565 L 5244,4519 5274,4519 Z"/>
        <path fill="none" stroke="rgb(163,125,102)" stroke-width="10" stroke-linejoin="miter" d="M 5350,4472 C 5350,4460 5355,4451 5368,4451 L 5384,4451 C 5397,4451 5402,4460 5402,4472 L 5402,4535 C 5402,4547 5397,4557 5384,4557 L 5368,4557 C 5355,4557 5350,4547 5350,4535 L 5350,4472 Z"/>
        <path fill="none" stroke="rgb(163,125,102)" stroke-width="10" stroke-linejoin="miter" d="M 5420,4472 C 5420,4451 5408,4434 5384,4434 L 5368,4434 C 5344,4434 5332,4451 5332,4472 L 5332,4535 C 5332,4557 5344,4574 5368,4574 L 5384,4574 C 5408,4574 5420,4557 5420,4535 L 5420,4472 Z"/>
        <path fill="none" stroke="rgb(163,125,102)" stroke-width="10" stroke-linejoin="miter" d="M 5481,4574 C 5487,4574 5490,4570 5490,4565 L 5490,4453 5518,4453 C 5522,4453 5526,4451 5526,4444 5526,4439 5522,4436 5518,4436 L 5443,4436 C 5439,4436 5435,4439 5435,4444 5435,4451 5439,4453 5443,4453 L 5472,4453 5472,4565 C 5472,4570 5474,4574 5481,4574 Z"/>
        <path fill="none" stroke="rgb(163,125,102)" stroke-width="10" stroke-linejoin="miter" d="M 5559,4472 C 5559,4460 5564,4451 5577,4451 L 5593,4451 C 5606,4451 5611,4460 5611,4472 L 5611,4535 C 5611,4547 5606,4557 5593,4557 L 5577,4557 C 5564,4557 5559,4547 5559,4535 L 5559,4472 Z"/>
        <path fill="none" stroke="rgb(163,125,102)" stroke-width="10" stroke-linejoin="miter" d="M 5629,4472 C 5629,4451 5617,4434 5593,4434 L 5577,4434 C 5553,4434 5541,4451 5541,4472 L 5541,4535 C 5541,4557 5553,4574 5577,4574 L 5593,4574 C 5617,4574 5629,4557 5629,4535 L 5629,4472 Z"/>
        <path fill="none" stroke="rgb(163,125,102)" stroke-width="10" stroke-linejoin="miter" d="M 5742,4560 L 5701,4500 5740,4448 C 5743,4444 5743,4439 5740,4436 5735,4433 5729,4434 5726,4438 L 5686,4493 5674,4493 5674,4443 C 5674,4438 5672,4434 5665,4434 5659,4434 5656,4438 5656,4443 L 5656,4565 C 5656,4570 5659,4574 5665,4574 5672,4574 5674,4570 5674,4565 L 5674,4511 5686,4511 5727,4570 C 5730,4574 5735,4576 5740,4573 5745,4569 5745,4564 5742,4560 Z"/>
        <path fill="none" stroke="rgb(163,125,102)" stroke-width="10" stroke-linejoin="miter" d="M 5781,4472 C 5781,4460 5786,4451 5799,4451 L 5815,4451 C 5828,4451 5833,4460 5833,4472 L 5833,4535 C 5833,4547 5828,4557 5815,4557 L 5799,4557 C 5786,4557 5781,4547 5781,4535 L 5781,4472 Z"/>
        <path fill="none" stroke="rgb(163,125,102)" stroke-width="10" stroke-linejoin="miter" d="M 5851,4472 C 5851,4451 5839,4434 5815,4434 L 5799,4434 C 5775,4434 5763,4451 5763,4472 L 5763,4535 C 5763,4557 5775,4574 5799,4574 L 5815,4574 C 5839,4574 5851,4557 5851,4535 L 5851,4472 Z"/>
        <path fill="none" stroke="rgb(163,125,102)" stroke-width="10" stroke-linejoin="miter" d="M 5905,4547 C 5906,4536 5916,4453 5916,4453 L 5950,4453 5950,4565 C 5950,4570 5953,4574 5959,4574 5965,4574 5968,4570 5968,4565 L 5968,4445 C 5968,4440 5965,4436 5959,4436 L 5909,4436 C 5904,4436 5900,4439 5900,4445 5899,4450 5889,4535 5888,4543 5887,4547 5887,4550 5886,4552 5884,4555 5881,4557 5875,4557 5870,4557 5866,4560 5866,4566 5866,4573 5870,4575 5875,4575 5892,4575 5899,4570 5902,4560 5904,4555 5904,4552 5905,4547 Z"/>
        <path fill="none" stroke="rgb(163,125,102)" stroke-width="10" stroke-linejoin="miter" d="M 6114,4453 L 6114,4565 C 6114,4570 6117,4574 6123,4574 6129,4574 6132,4570 6132,4565 L 6132,4445 C 6132,4440 6129,4436 6123,4436 L 6059,4436 C 6052,4436 6050,4440 6050,4445 L 6050,4565 C 6050,4570 6052,4574 6059,4574 6065,4574 6068,4570 6068,4565 L 6068,4453 6114,4453 Z"/>
        <path fill="none" stroke="rgb(163,125,102)" stroke-width="10" stroke-linejoin="miter" d="M 6178,4472 C 6178,4460 6183,4451 6196,4451 L 6211,4451 C 6225,4451 6230,4460 6230,4472 L 6230,4535 C 6230,4547 6225,4557 6211,4557 L 6196,4557 C 6183,4557 6178,4547 6178,4535 L 6178,4472 Z"/>
        <path fill="none" stroke="rgb(163,125,102)" stroke-width="10" stroke-linejoin="miter" d="M 6248,4472 C 6248,4451 6236,4434 6211,4434 L 6196,4434 C 6172,4434 6159,4451 6159,4472 L 6159,4535 C 6159,4557 6172,4574 6196,4574 L 6211,4574 C 6236,4574 6248,4557 6248,4535 L 6248,4472 Z"/>
        <path fill="none" stroke="rgb(163,125,102)" stroke-width="10" stroke-linejoin="miter" d="M 6363,4554 L 6359,4554 6359,4445 C 6359,4440 6356,4436 6350,4436 L 6304,4436 C 6298,4436 6295,4440 6294,4445 L 6277,4554 6271,4554 C 6265,4554 6262,4559 6262,4564 L 6262,4588 C 6262,4593 6265,4597 6271,4597 6278,4597 6280,4593 6280,4588 L 6280,4572 6353,4572 6353,4588 C 6353,4593 6356,4597 6363,4597 6369,4597 6371,4593 6371,4588 L 6371,4564 C 6371,4559 6369,4554 6363,4554 Z"/>
        <path fill="none" stroke="rgb(163,125,102)" stroke-width="10" stroke-linejoin="miter" d="M 6297,4541 L 6310,4453 6341,4453 6341,4554 6294,4554 C 6295,4549 6296,4545 6297,4541 Z"/>
        <path fill="none" stroke="rgb(163,125,102)" stroke-width="10" stroke-linejoin="miter" d="M 6456,4453 L 6456,4565 C 6456,4570 6458,4574 6465,4574 6471,4574 6474,4570 6474,4565 L 6474,4445 C 6474,4440 6471,4436 6465,4436 L 6400,4436 C 6394,4436 6391,4440 6391,4445 L 6391,4565 C 6391,4570 6394,4574 6400,4574 6407,4574 6409,4570 6409,4565 L 6409,4453 6456,4453 Z"/>
        <path fill="none" stroke="rgb(163,125,102)" stroke-width="10" stroke-linejoin="miter" d="M 6572,4565 C 6572,4570 6574,4574 6581,4574 6587,4574 6590,4570 6590,4565 L 6590,4443 C 6590,4438 6587,4434 6580,4434 6577,4434 6574,4435 6571,4440 L 6520,4533 6520,4533 C 6520,4529 6521,4525 6521,4519 L 6521,4443 C 6521,4438 6518,4434 6512,4434 6506,4434 6503,4438 6503,4443 L 6503,4565 C 6503,4570 6506,4574 6512,4574 6516,4574 6518,4573 6521,4567 L 6573,4474 6573,4474 C 6572,4479 6572,4483 6572,4488 L 6572,4565 Z"/>
        <path fill="none" stroke="rgb(163,125,102)" stroke-width="10" stroke-linejoin="miter" d="M 6653,4557 C 6640,4557 6635,4547 6635,4535 L 6635,4472 C 6635,4460 6640,4451 6653,4451 L 6673,4451 C 6681,4451 6685,4455 6686,4462 6687,4467 6689,4471 6695,4471 6702,4471 6704,4467 6704,4462 6704,4443 6692,4434 6673,4434 L 6653,4434 C 6629,4434 6617,4451 6617,4472 L 6617,4535 C 6617,4557 6629,4574 6653,4574 L 6673,4574 C 6692,4574 6704,4565 6704,4544 6704,4540 6702,4536 6695,4536 6689,4536 6687,4540 6686,4544 6685,4552 6681,4557 6673,4557 L 6653,4557 Z"/>
        <path fill="none" stroke="rgb(163,125,102)" stroke-width="10" stroke-linejoin="miter" d="M 6784,4533 L 6795,4568 C 6797,4572 6801,4575 6806,4573 6811,4572 6813,4567 6812,4563 L 6773,4440 C 6772,4436 6769,4434 6764,4434 L 6763,4434 C 6758,4434 6755,4436 6754,4440 L 6715,4563 C 6714,4567 6716,4572 6721,4573 6726,4575 6730,4572 6732,4568 L 6743,4533 6784,4533 Z"/>
        <path fill="none" stroke="rgb(163,125,102)" stroke-width="10" stroke-linejoin="miter" d="M 6761,4474 C 6762,4470 6762,4468 6763,4463 L 6764,4463 C 6765,4468 6765,4470 6766,4474 L 6779,4517 6747,4517 6761,4474 Z"/>
        <path fill="none" stroke="rgb(163,125,102)" stroke-width="10" stroke-linejoin="miter" d="M 6916,4443 C 6916,4438 6913,4434 6907,4434 6900,4434 6898,4438 6898,4443 L 6898,4491 6847,4491 6847,4443 C 6847,4438 6845,4434 6838,4434 6832,4434 6829,4438 6829,4443 L 6829,4565 C 6829,4570 6832,4574 6838,4574 6845,4574 6847,4570 6847,4565 L 6847,4509 6898,4509 6898,4565 C 6898,4570 6900,4574 6907,4574 6913,4574 6916,4570 6916,4565 L 6916,4443 Z"/>
       </g>
      </g>
      <g class="com.sun.star.drawing.PolyPolygonShape">
       <g id="id13">
        <rect class="BoundingBox" stroke="none" fill="none" x="6228" y="4728" width="263" height="207"/>
        <path fill="rgb(255,255,255)" stroke="none" d="M 6490,4728 L 6228,4728 6228,4934 6490,4934 6490,4728 Z"/>
       </g>
      </g>
      <g class="com.sun.star.drawing.LineShape">
       <g id="id14">
        <rect class="BoundingBox" stroke="none" fill="none" x="6216" y="4921" width="285" height="25"/>
        <path fill="none" stroke="rgb(204,117,135)" stroke-width="24" stroke-linejoin="round" stroke-linecap="round" d="M 6228,4933 L 6488,4933"/>
       </g>
      </g>
      <g class="com.sun.star.drawing.PolyPolygonShape">
       <g id="id15">
        <rect class="BoundingBox" stroke="none" fill="none" x="6846" y="4728" width="264" height="207"/>
        <path fill="rgb(255,255,255)" stroke="none" d="M 7109,4728 L 6847,4728 6847,4934 7109,4934 7109,4728 Z"/>
       </g>
      </g>
      <g class="com.sun.star.drawing.LineShape">
       <g id="id16">
        <rect class="BoundingBox" stroke="none" fill="none" x="6835" y="4921" width="285" height="25"/>
        <path fill="none" stroke="rgb(204,117,135)" stroke-width="24" stroke-linejoin="round" stroke-linecap="round" d="M 6847,4933 L 7107,4933"/>
       </g>
      </g>
      <g class="com.sun.star.drawing.PolyPolygonShape">
       <g id="id17">
        <rect class="BoundingBox" stroke="none" fill="none" x="5518" y="4728" width="369" height="207"/>
        <path fill="rgb(255,255,255)" stroke="none" d="M 5886,4728 L 5518,4728 5518,4934 5886,4934 5886,4728 Z"/>
       </g>
      </g>
      <g class="com.sun.star.drawing.LineShape">
       <g id="id18">
        <rect class="BoundingBox" stroke="none" fill="none" x="5712" y="4920" width="180" height="27"/>
        <path fill="none" stroke="rgb(204,117,135)" stroke-width="25" stroke-linejoin="round" stroke-linecap="round" d="M 5725,4933 L 5878,4933"/>
       </g>
      </g>
      <g class="com.sun.star.drawing.PolyPolygonShape">
       <g id="id19">
        <rect class="BoundingBox" stroke="none" fill="none" x="5021" y="4728" width="419" height="207"/>
        <path fill="rgb(255,255,255)" stroke="none" d="M 5439,4728 L 5021,4728 5021,4934 5439,4934 5439,4728 Z"/>
       </g>
      </g>
      <g class="com.sun.star.drawing.LineShape">
       <g id="id20">
        <rect class="BoundingBox" stroke="none" fill="none" x="5008" y="4920" width="444" height="27"/>
        <path fill="none" stroke="rgb(204,117,135)" stroke-width="25" stroke-linejoin="round" stroke-linecap="round" d="M 5021,4933 L 5438,4933"/>
       </g>
      </g>
      <g class="com.sun.star.drawing.PolyPolygonShape">
       <g id="id21">
        <rect class="BoundingBox" stroke="none" fill="none" x="4675" y="4728" width="260" height="207"/>
        <path fill="rgb(255,255,255)" stroke="none" d="M 4934,4728 L 4675,4728 4675,4934 4934,4934 4934,4728 Z"/>
       </g>
      </g>
      <g class="com.sun.star.drawing.LineShape">
       <g id="id22">
        <rect class="BoundingBox" stroke="none" fill="none" x="4662" y="4920" width="284" height="27"/>
        <path fill="none" stroke="rgb(204,117,135)" stroke-width="25" stroke-linejoin="round" stroke-linecap="round" d="M 4675,4933 L 4932,4933"/>
       </g>
      </g>
      <g class="com.sun.star.drawing.ClosedBezierShape">
       <g id="id23">
        <rect class="BoundingBox" stroke="none" fill="none" x="6115" y="3543" width="538" height="151"/>
        <path fill="rgb(163,125,102)" stroke="none" d="M 6165,3603 L 6138,3603 6138,3567 6186,3567 C 6191,3567 6195,3564 6195,3558 6195,3552 6191,3549 6186,3549 L 6129,3549 C 6122,3549 6120,3554 6120,3558 L 6120,3676 C 6120,3680 6122,3685 6129,3685 L 6165,3685 C 6190,3685 6202,3669 6202,3647 L 6202,3639 C 6202,3616 6190,3603 6165,3603 Z M 6165,3603 L 6165,3603 Z M 6184,3649 C 6184,3661 6179,3667 6166,3667 L 6138,3667 6138,3620 6165,3620 C 6179,3620 6184,3626 6184,3638 L 6184,3649 Z M 6184,3649 L 6184,3649 Z M 6242,3586 C 6242,3574 6247,3565 6261,3565 L 6276,3565 C 6290,3565 6295,3574 6295,3586 L 6295,3648 C 6295,3660 6290,3669 6276,3669 L 6261,3669 C 6247,3669 6242,3660 6242,3648 L 6242,3586 Z M 6242,3586 L 6242,3586 Z M 6313,3586 C 6313,3565 6301,3548 6276,3548 L 6261,3548 C 6236,3548 6224,3565 6224,3586 L 6224,3648 C 6224,3669 6236,3687 6261,3687 L 6276,3687 C 6301,3687 6313,3669 6313,3648 L 6313,3586 Z M 6313,3586 L 6313,3586 Z M 6367,3661 C 6368,3650 6378,3567 6378,3567 L 6412,3567 6412,3678 C 6412,3682 6415,3687 6421,3687 6427,3687 6430,3682 6430,3678 L 6430,3558 C 6430,3554 6427,3549 6421,3549 L 6371,3549 C 6365,3549 6362,3553 6362,3558 6361,3564 6351,3649 6350,3656 6349,3661 6349,3663 6348,3665 6346,3669 6342,3670 6337,3670 6332,3670 6328,3673 6328,3679 6328,3685 6332,3688 6337,3688 6354,3688 6360,3682 6364,3673 6366,3669 6366,3666 6367,3661 Z M 6367,3661 L 6367,3661 Z M 6531,3685 C 6535,3685 6539,3682 6539,3676 6539,3670 6535,3667 6531,3667 L 6477,3667 6477,3624 6521,3624 C 6526,3624 6530,3622 6530,3615 6530,3609 6526,3606 6521,3606 L 6477,3606 6477,3567 6531,3567 C 6535,3567 6539,3564 6539,3558 6539,3552 6535,3549 6531,3549 L 6468,3549 C 6462,3549 6459,3554 6459,3558 L 6459,3676 C 6459,3680 6462,3685 6468,3685 L 6531,3685 Z M 6531,3685 L 6531,3685 Z M 6647,3556 C 6647,3552 6644,3548 6638,3548 6632,3548 6629,3552 6629,3556 L 6629,3604 6579,3604 6579,3556 C 6579,3552 6576,3548 6570,3548 6563,3548 6561,3552 6561,3556 L 6561,3678 C 6561,3682 6563,3687 6570,3687 6576,3687 6579,3682 6579,3678 L 6579,3622 6629,3622 6629,3678 C 6629,3682 6632,3687 6638,3687 6644,3687 6647,3682 6647,3678 L 6647,3556 Z"/>
        <path fill="none" stroke="rgb(163,125,102)" stroke-width="10" stroke-linejoin="miter" d="M 6165,3603 L 6138,3603 6138,3567 6186,3567 C 6191,3567 6195,3564 6195,3558 6195,3552 6191,3549 6186,3549 L 6129,3549 C 6122,3549 6120,3554 6120,3558 L 6120,3676 C 6120,3680 6122,3685 6129,3685 L 6165,3685 C 6190,3685 6202,3669 6202,3647 L 6202,3639 C 6202,3616 6190,3603 6165,3603 Z"/>
        <path fill="none" stroke="rgb(163,125,102)" stroke-width="10" stroke-linejoin="miter" d="M 6184,3649 C 6184,3661 6179,3667 6166,3667 L 6138,3667 6138,3620 6165,3620 C 6179,3620 6184,3626 6184,3638 L 6184,3649 Z"/>
        <path fill="none" stroke="rgb(163,125,102)" stroke-width="10" stroke-linejoin="miter" d="M 6242,3586 C 6242,3574 6247,3565 6261,3565 L 6276,3565 C 6290,3565 6295,3574 6295,3586 L 6295,3648 C 6295,3660 6290,3669 6276,3669 L 6261,3669 C 6247,3669 6242,3660 6242,3648 L 6242,3586 Z"/>
        <path fill="none" stroke="rgb(163,125,102)" stroke-width="10" stroke-linejoin="miter" d="M 6313,3586 C 6313,3565 6301,3548 6276,3548 L 6261,3548 C 6236,3548 6224,3565 6224,3586 L 6224,3648 C 6224,3669 6236,3687 6261,3687 L 6276,3687 C 6301,3687 6313,3669 6313,3648 L 6313,3586 Z"/>
        <path fill="none" stroke="rgb(163,125,102)" stroke-width="10" stroke-linejoin="miter" d="M 6367,3661 C 6368,3650 6378,3567 6378,3567 L 6412,3567 6412,3678 C 6412,3682 6415,3687 6421,3687 6427,3687 6430,3682 6430,3678 L 6430,3558 C 6430,3554 6427,3549 6421,3549 L 6371,3549 C 6365,3549 6362,3553 6362,3558 6361,3564 6351,3649 6350,3656 6349,3661 6349,3663 6348,3665 6346,3669 6342,3670 6337,3670 6332,3670 6328,3673 6328,3679 6328,3685 6332,3688 6337,3688 6354,3688 6360,3682 6364,3673 6366,3669 6366,3666 6367,3661 Z"/>
        <path fill="none" stroke="rgb(163,125,102)" stroke-width="10" stroke-linejoin="miter" d="M 6531,3685 C 6535,3685 6539,3682 6539,3676 6539,3670 6535,3667 6531,3667 L 6477,3667 6477,3624 6521,3624 C 6526,3624 6530,3622 6530,3615 6530,3609 6526,3606 6521,3606 L 6477,3606 6477,3567 6531,3567 C 6535,3567 6539,3564 6539,3558 6539,3552 6535,3549 6531,3549 L 6468,3549 C 6462,3549 6459,3554 6459,3558 L 6459,3676 C 6459,3680 6462,3685 6468,3685 L 6531,3685 Z"/>
        <path fill="none" stroke="rgb(163,125,102)" stroke-width="10" stroke-linejoin="miter" d="M 6647,3556 C 6647,3552 6644,3548 6638,3548 6632,3548 6629,3552 6629,3556 L 6629,3604 6579,3604 6579,3556 C 6579,3552 6576,3548 6570,3548 6563,3548 6561,3552 6561,3556 L 6561,3678 C 6561,3682 6563,3687 6570,3687 6576,3687 6579,3682 6579,3678 L 6579,3622 6629,3622 6629,3678 C 6629,3682 6632,3687 6638,3687 6644,3687 6647,3682 6647,3678 L 6647,3556 Z"/>
       </g>
      </g>
      <g class="com.sun.star.drawing.ClosedBezierShape">
       <g id="id24">
        <rect class="BoundingBox" stroke="none" fill="none" x="6022" y="3602" width="71" height="29"/>
        <path fill="rgb(163,125,102)" stroke="none" d="M 6077,3625 C 6082,3625 6087,3622 6087,3615 6087,3609 6082,3607 6077,3607 6053,3607 6061,3607 6036,3607 6031,3607 6027,3609 6027,3615 6027,3622 6031,3625 6036,3625 6061,3625 6053,3625 6077,3625 Z"/>
        <path fill="none" stroke="rgb(163,125,102)" stroke-width="10" stroke-linejoin="miter" d="M 6077,3625 C 6082,3625 6087,3622 6087,3615 6087,3609 6082,3607 6077,3607 6053,3607 6061,3607 6036,3607 6031,3607 6027,3609 6027,3615 6027,3622 6031,3625 6036,3625 6061,3625 6053,3625 6077,3625 Z"/>
       </g>
      </g>
      <g class="com.sun.star.drawing.OpenBezierShape">
       <g id="id25">
        <rect class="BoundingBox" stroke="none" fill="none" x="5603" y="3150" width="363" height="258"/>
        <path fill="none" stroke="rgb(71,128,191)" stroke-width="32" stroke-linejoin="round" stroke-linecap="round" d="M 5619,3388 C 5728,3388 5811,3212 5760,3182 5666,3094 5565,3391 5802,3316 5919,3279 5861,3037 5861,3320 5861,3339 6102,3382 5783,3390"/>
       </g>
      </g>
      <g class="com.sun.star.drawing.LineShape">
       <g id="id26">
        <rect class="BoundingBox" stroke="none" fill="none" x="4878" y="1518" width="2273" height="69"/>
        <path fill="none" stroke="rgb(163,125,102)" stroke-width="68" stroke-linejoin="round" stroke-linecap="round" d="M 7116,1552 L 4912,1552"/>
       </g>
      </g>
      <g class="com.sun.star.drawing.PolyPolygonShape">
       <g id="id27">
        <rect class="BoundingBox" stroke="none" fill="none" x="4530" y="2753" width="2787" height="348"/>
        <path fill="rgb(255,255,255)" stroke="none" d="M 7316,2754 L 4530,2754 4530,3100 7316,3100 7316,2754 Z"/>
       </g>
      </g>
      <g class="com.sun.star.drawing.ClosedBezierShape">
       <g id="id28">
        <rect class="BoundingBox" stroke="none" fill="none" x="5574" y="2830" width="1545" height="195"/>
        <path fill="rgb(204,117,135)" stroke="none" d="M 5601,2898 C 5601,2873 5610,2857 5628,2857 L 5637,2857 C 5656,2857 5664,2873 5664,2898 L 5664,2954 C 5664,2980 5656,2995 5637,2995 L 5628,2995 C 5610,2995 5601,2980 5601,2954 L 5601,2898 Z M 5601,2898 L 5601,2898 Z M 5686,2898 C 5686,2859 5670,2835 5637,2835 L 5628,2835 C 5596,2835 5579,2859 5579,2898 L 5579,2954 C 5579,2993 5596,3018 5628,3018 L 5637,3018 C 5670,3018 5686,2993 5686,2954 L 5686,2898 Z M 5686,2898 L 5686,2898 Z M 5859,2898 C 5859,2873 5868,2857 5887,2857 L 5895,2857 C 5914,2857 5922,2873 5922,2898 L 5922,2954 C 5922,2980 5914,2995 5895,2995 L 5887,2995 C 5868,2995 5859,2980 5859,2954 L 5859,2898 Z M 5859,2898 L 5859,2898 Z M 5945,2898 C 5945,2859 5928,2835 5895,2835 L 5887,2835 C 5854,2835 5837,2859 5837,2898 L 5837,2954 C 5837,2993 5854,3018 5887,3018 L 5895,3018 C 5928,3018 5945,2993 5945,2954 L 5945,2898 Z M 5945,2898 L 5945,2898 Z M 6118,2898 C 6118,2873 6127,2857 6146,2857 L 6154,2857 C 6173,2857 6182,2873 6182,2898 L 6182,2954 C 6182,2980 6173,2995 6154,2995 L 6146,2995 C 6127,2995 6118,2980 6118,2954 L 6118,2898 Z M 6118,2898 L 6118,2898 Z M 6204,2898 C 6204,2859 6187,2835 6154,2835 L 6146,2835 C 6113,2835 6096,2859 6096,2898 L 6096,2954 C 6096,2993 6113,3018 6146,3018 L 6154,3018 C 6187,3018 6204,2993 6204,2954 L 6204,2898 Z M 6204,2898 L 6204,2898 Z M 6377,2898 C 6377,2873 6386,2857 6404,2857 L 6413,2857 C 6431,2857 6440,2873 6440,2898 L 6440,2954 C 6440,2980 6431,2995 6413,2995 L 6404,2995 C 6386,2995 6377,2980 6377,2954 L 6377,2898 Z M 6377,2898 L 6377,2898 Z M 6462,2898 C 6462,2859 6445,2835 6413,2835 L 6404,2835 C 6371,2835 6354,2859 6354,2898 L 6354,2954 C 6354,2993 6371,3018 6404,3018 L 6413,3018 C 6445,3018 6462,2993 6462,2954 L 6462,2898 Z M 6462,2898 L 6462,2898 Z M 6727,2846 C 6727,2840 6723,2835 6715,2835 6708,2835 6704,2840 6704,2846 L 6704,2909 6642,2909 6642,2846 C 6642,2840 6639,2835 6630,2835 6623,2835 6619,2840 6619,2846 L 6619,3006 C 6619,3013 6623,3018 6630,3018 6638,3018 6642,3013 6642,3006 L 6642,2933 6704,2933 6704,3006 C 6704,3013 6707,3018 6715,3018 6723,3018 6727,3013 6727,3006 L 6727,2846 Z M 6727,2846 L 6727,2846 Z M 6804,2996 C 6788,2996 6782,2985 6782,2969 L 6782,2930 C 6782,2913 6788,2902 6804,2902 L 6814,2902 C 6830,2902 6837,2913 6837,2930 L 6837,2969 C 6837,2985 6830,2996 6814,2996 L 6804,2996 Z M 6804,2996 L 6804,2996 Z M 6814,3018 C 6844,3018 6858,2997 6858,2969 L 6858,2930 C 6858,2901 6844,2880 6814,2880 L 6804,2880 C 6774,2880 6760,2901 6760,2930 L 6760,2969 C 6760,2997 6774,3018 6804,3018 L 6814,3018 Z M 6814,3018 L 6814,3018 Z M 6974,2883 L 6922,2883 C 6915,2883 6911,2888 6910,2894 L 6899,2982 C 6898,2990 6892,2997 6885,2997 6880,2997 6875,3001 6875,3008 6875,3015 6880,3019 6885,3019 6903,3019 6915,3010 6918,2986 L 6929,2905 6964,2905 6964,3006 C 6964,3013 6967,3018 6974,3018 6982,3018 6985,3013 6985,3006 L 6985,2894 C 6985,2888 6982,2883 6974,2883 Z M 6974,2883 L 6974,2883 Z M 7043,2926 L 7043,2892 C 7043,2886 7040,2880 7033,2880 7025,2880 7022,2886 7022,2892 L 7022,3004 C 7022,3011 7025,3016 7033,3016 L 7077,3016 C 7099,3016 7113,3000 7113,2977 L 7113,2969 C 7113,2943 7096,2926 7072,2926 L 7043,2926 Z M 7043,2926 L 7043,2926 Z M 7092,2977 C 7092,2986 7086,2994 7075,2994 L 7043,2994 7043,2949 7072,2949 C 7086,2949 7092,2959 7092,2970 L 7092,2977 Z"/>
        <path fill="none" stroke="rgb(204,117,135)" stroke-width="10" stroke-linejoin="miter" d="M 5601,2898 C 5601,2873 5610,2857 5628,2857 L 5637,2857 C 5656,2857 5664,2873 5664,2898 L 5664,2954 C 5664,2980 5656,2995 5637,2995 L 5628,2995 C 5610,2995 5601,2980 5601,2954 L 5601,2898 Z"/>
        <path fill="none" stroke="rgb(204,117,135)" stroke-width="10" stroke-linejoin="miter" d="M 5686,2898 C 5686,2859 5670,2835 5637,2835 L 5628,2835 C 5596,2835 5579,2859 5579,2898 L 5579,2954 C 5579,2993 5596,3018 5628,3018 L 5637,3018 C 5670,3018 5686,2993 5686,2954 L 5686,2898 Z"/>
        <path fill="none" stroke="rgb(204,117,135)" stroke-width="10" stroke-linejoin="miter" d="M 5859,2898 C 5859,2873 5868,2857 5887,2857 L 5895,2857 C 5914,2857 5922,2873 5922,2898 L 5922,2954 C 5922,2980 5914,2995 5895,2995 L 5887,2995 C 5868,2995 5859,2980 5859,2954 L 5859,2898 Z"/>
        <path fill="none" stroke="rgb(204,117,135)" stroke-width="10" stroke-linejoin="miter" d="M 5945,2898 C 5945,2859 5928,2835 5895,2835 L 5887,2835 C 5854,2835 5837,2859 5837,2898 L 5837,2954 C 5837,2993 5854,3018 5887,3018 L 5895,3018 C 5928,3018 5945,2993 5945,2954 L 5945,2898 Z"/>
        <path fill="none" stroke="rgb(204,117,135)" stroke-width="10" stroke-linejoin="miter" d="M 6118,2898 C 6118,2873 6127,2857 6146,2857 L 6154,2857 C 6173,2857 6182,2873 6182,2898 L 6182,2954 C 6182,2980 6173,2995 6154,2995 L 6146,2995 C 6127,2995 6118,2980 6118,2954 L 6118,2898 Z"/>
        <path fill="none" stroke="rgb(204,117,135)" stroke-width="10" stroke-linejoin="miter" d="M 6204,2898 C 6204,2859 6187,2835 6154,2835 L 6146,2835 C 6113,2835 6096,2859 6096,2898 L 6096,2954 C 6096,2993 6113,3018 6146,3018 L 6154,3018 C 6187,3018 6204,2993 6204,2954 L 6204,2898 Z"/>
        <path fill="none" stroke="rgb(204,117,135)" stroke-width="10" stroke-linejoin="miter" d="M 6377,2898 C 6377,2873 6386,2857 6404,2857 L 6413,2857 C 6431,2857 6440,2873 6440,2898 L 6440,2954 C 6440,2980 6431,2995 6413,2995 L 6404,2995 C 6386,2995 6377,2980 6377,2954 L 6377,2898 Z"/>
        <path fill="none" stroke="rgb(204,117,135)" stroke-width="10" stroke-linejoin="miter" d="M 6462,2898 C 6462,2859 6445,2835 6413,2835 L 6404,2835 C 6371,2835 6354,2859 6354,2898 L 6354,2954 C 6354,2993 6371,3018 6404,3018 L 6413,3018 C 6445,3018 6462,2993 6462,2954 L 6462,2898 Z"/>
        <path fill="none" stroke="rgb(204,117,135)" stroke-width="10" stroke-linejoin="miter" d="M 6727,2846 C 6727,2840 6723,2835 6715,2835 6708,2835 6704,2840 6704,2846 L 6704,2909 6642,2909 6642,2846 C 6642,2840 6639,2835 6630,2835 6623,2835 6619,2840 6619,2846 L 6619,3006 C 6619,3013 6623,3018 6630,3018 6638,3018 6642,3013 6642,3006 L 6642,2933 6704,2933 6704,3006 C 6704,3013 6707,3018 6715,3018 6723,3018 6727,3013 6727,3006 L 6727,2846 Z"/>
        <path fill="none" stroke="rgb(204,117,135)" stroke-width="10" stroke-linejoin="miter" d="M 6804,2996 C 6788,2996 6782,2985 6782,2969 L 6782,2930 C 6782,2913 6788,2902 6804,2902 L 6814,2902 C 6830,2902 6837,2913 6837,2930 L 6837,2969 C 6837,2985 6830,2996 6814,2996 L 6804,2996 Z"/>
        <path fill="none" stroke="rgb(204,117,135)" stroke-width="10" stroke-linejoin="miter" d="M 6814,3018 C 6844,3018 6858,2997 6858,2969 L 6858,2930 C 6858,2901 6844,2880 6814,2880 L 6804,2880 C 6774,2880 6760,2901 6760,2930 L 6760,2969 C 6760,2997 6774,3018 6804,3018 L 6814,3018 Z"/>
        <path fill="none" stroke="rgb(204,117,135)" stroke-width="10" stroke-linejoin="miter" d="M 6974,2883 L 6922,2883 C 6915,2883 6911,2888 6910,2894 L 6899,2982 C 6898,2990 6892,2997 6885,2997 6880,2997 6875,3001 6875,3008 6875,3015 6880,3019 6885,3019 6903,3019 6915,3010 6918,2986 L 6929,2905 6964,2905 6964,3006 C 6964,3013 6967,3018 6974,3018 6982,3018 6985,3013 6985,3006 L 6985,2894 C 6985,2888 6982,2883 6974,2883 Z"/>
        <path fill="none" stroke="rgb(204,117,135)" stroke-width="10" stroke-linejoin="miter" d="M 7043,2926 L 7043,2892 C 7043,2886 7040,2880 7033,2880 7025,2880 7022,2886 7022,2892 L 7022,3004 C 7022,3011 7025,3016 7033,3016 L 7077,3016 C 7099,3016 7113,3000 7113,2977 L 7113,2969 C 7113,2943 7096,2926 7072,2926 L 7043,2926 Z"/>
        <path fill="none" stroke="rgb(204,117,135)" stroke-width="10" stroke-linejoin="miter" d="M 7092,2977 C 7092,2986 7086,2994 7075,2994 L 7043,2994 7043,2949 7072,2949 C 7086,2949 7092,2959 7092,2970 L 7092,2977 Z"/>
       </g>
      </g>
      <g class="com.sun.star.drawing.PolyLineShape">
       <g id="id29">
        <rect class="BoundingBox" stroke="none" fill="none" x="5492" y="2742" width="1839" height="371"/>
        <path fill="none" stroke="rgb(163,125,102)" stroke-width="23" stroke-linejoin="round" stroke-linecap="round" d="M 5504,2780 L 5504,3074"/>
        <path fill="none" stroke="rgb(163,125,102)" stroke-width="23" stroke-linejoin="round" stroke-linecap="round" d="M 5504,3100 L 7316,3100"/>
        <path fill="none" stroke="rgb(163,125,102)" stroke-width="23" stroke-linejoin="round" stroke-linecap="round" d="M 5504,2754 L 7316,2754"/>
        <path fill="none" stroke="rgb(163,125,102)" stroke-width="23" stroke-linejoin="round" stroke-linecap="round" d="M 7318,2780 L 7318,3074"/>
        <path fill="none" stroke="rgb(163,125,102)" stroke-width="23" stroke-linejoin="round" stroke-linecap="round" d="M 6535,2780 L 6535,3074"/>
        <path fill="none" stroke="rgb(163,125,102)" stroke-width="23" stroke-linejoin="round" stroke-linecap="round" d="M 6277,2780 L 6277,3074"/>
        <path fill="none" stroke="rgb(163,125,102)" stroke-width="23" stroke-linejoin="round" stroke-linecap="round" d="M 6019,2780 L 6019,3074"/>
        <path fill="none" stroke="rgb(163,125,102)" stroke-width="23" stroke-linejoin="round" stroke-linecap="round" d="M 5761,2780 L 5761,3074"/>
       </g>
      </g>
      <g class="com.sun.star.drawing.OpenBezierShape">
       <g id="id30">
        <rect class="BoundingBox" stroke="none" fill="none" x="4728" y="4983" width="870" height="870"/>
        <path fill="none" stroke="rgb(0,140,209)" stroke-width="42" stroke-linejoin="round" stroke-linecap="round" d="M 5056,5019 C 5276,4961 5502,5090 5561,5311 5620,5531 5490,5757 5269,5816 5049,5875 4822,5745 4764,5524 4706,5304 4835,5077 5056,5019 Z"/>
        <path fill="none" stroke="rgb(0,140,209)" stroke-width="42" stroke-linejoin="round" stroke-linecap="round" d="M 5056,5019 L 5056,5019 Z"/>
        <path fill="none" stroke="rgb(0,140,209)" stroke-width="42" stroke-linejoin="round" stroke-linecap="round" d="M 4853,5419 C 4853,5282 4944,5156 5083,5119 5221,5082 5362,5145 5431,5265"/>
        <path fill="none" stroke="rgb(0,140,209)" stroke-width="42" stroke-linejoin="round" stroke-linecap="round" d="M 5471,5416 C 5472,5553 5381,5679 5242,5716 5104,5753 4963,5690 4894,5570"/>
        <path fill="none" stroke="rgb(0,140,209)" stroke-width="42" stroke-linejoin="round" stroke-linecap="round" d="M 5207,5610 C 5171,5620 5203,5576 5159,5587 5139,5593 5105,5651 5095,5643 5084,5636 5053,5611 5058,5600 5068,5575 5070,5547 5097,5532 5078,5519 5023,5538 5017,5512 5017,5511 4898,5443 4951,5396 4962,5387 4940,5354 4948,5330 4954,5310 5106,5327 5100,5306 5097,5296 5081,5273 5046,5269 5040,5268 5078,5259 5099,5251 5103,5249 5089,5236 5091,5234 5099,5228 5100,5226 5110,5223"/>
        <path fill="none" stroke="rgb(0,140,209)" stroke-width="42" stroke-linejoin="round" stroke-linecap="round" d="M 5512,5318 C 5512,5318 5489,5341 5506,5345"/>
        <path fill="none" stroke="rgb(0,140,209)" stroke-width="42" stroke-linejoin="round" stroke-linecap="round" d="M 4821,5523 C 4819,5508 4846,5507 4821,5489"/>
        <path fill="none" stroke="rgb(0,140,209)" stroke-width="42" stroke-linejoin="round" stroke-linecap="round" d="M 5220,5606 C 5256,5597 5207,5575 5250,5563 5271,5558 5328,5590 5333,5578 5339,5566 5354,5530 5344,5523 5323,5507 5307,5483 5277,5484 5286,5463 5344,5452 5336,5426 5336,5426 5404,5308 5334,5294 5321,5291 5323,5252 5304,5235 5288,5221 5167,5311 5161,5290 5158,5280 5161,5251 5189,5231 5194,5227 5156,5238 5134,5241 5130,5242 5135,5223 5133,5223 5122,5222 5121,5220 5110,5223"/>
       </g>
      </g>
      <g class="com.sun.star.drawing.OpenBezierShape">
       <g id="id31">
        <rect class="BoundingBox" stroke="none" fill="none" x="5559" y="3479" width="407" height="278"/>
        <path fill="none" stroke="rgb(71,128,191)" stroke-width="32" stroke-linejoin="round" stroke-linecap="round" d="M 5698,3495 C 5560,3913 5654,3676 5589,3639 5526,3601 5825,3460 5805,3573 5786,3688 5571,3660 5576,3684 5582,3708 5665,3725 5691,3664 5716,3602 5679,3711 5746,3693 5813,3674 5840,3620 5830,3651 5819,3681 5837,3676 5873,3657 5908,3639 5948,3619 5948,3619"/>
       </g>
      </g>
      <g class="com.sun.star.drawing.ClosedBezierShape">
       <g id="id32">
        <rect class="BoundingBox" stroke="none" fill="none" x="4692" y="2859" width="714" height="144"/>
        <path fill="rgb(163,125,102)" stroke="none" d="M 4833,2985 L 4795,2922 4828,2876 C 4830,2873 4831,2871 4831,2868 4831,2866 4830,2863 4827,2861 4825,2859 4823,2859 4821,2859 4817,2859 4814,2860 4812,2863 L 4777,2913 4773,2913 4773,2870 C 4773,2865 4770,2860 4763,2860 4756,2860 4753,2865 4753,2870 L 4753,2913 4749,2913 4714,2863 C 4712,2860 4709,2859 4705,2859 4703,2859 4701,2859 4699,2861 4696,2863 4695,2866 4695,2868 4695,2870 4696,2873 4698,2876 L 4731,2922 4693,2985 C 4692,2990 4692,2995 4697,2999 4703,3003 4709,3000 4711,2996 4723,2975 4736,2954 4748,2934 L 4753,2934 4753,2990 C 4753,2996 4756,3001 4763,3001 4770,3001 4773,2996 4773,2990 L 4773,2934 4778,2934 4815,2996 C 4817,3000 4823,3003 4829,2999 4835,2995 4835,2990 4833,2985 Z M 4833,2985 L 4833,2985 Z M 4909,2961 L 4919,2994 C 4921,2999 4927,3002 4933,3000 4939,2998 4941,2993 4939,2987 L 4901,2867 C 4899,2862 4896,2860 4890,2860 L 4889,2860 C 4883,2860 4880,2862 4879,2867 L 4840,2987 C 4839,2993 4841,2998 4847,3000 4853,3002 4858,2999 4860,2994 4863,2983 4867,2972 4870,2961 L 4909,2961 Z M 4909,2961 L 4909,2961 Z M 4904,2942 L 4876,2942 4887,2907 C 4888,2902 4889,2900 4890,2896 L 4890,2896 C 4891,2900 4891,2902 4893,2907 L 4904,2942 Z M 4904,2942 L 4904,2942 Z M 4983,2973 L 4994,2882 5024,2882 5024,2990 C 5024,2996 5028,3001 5035,3001 5042,3001 5045,2996 5045,2990 L 5045,2872 C 5045,2866 5042,2862 5035,2862 L 4985,2862 C 4979,2862 4976,2866 4975,2872 L 4963,2969 C 4962,2973 4962,2976 4961,2977 4959,2980 4957,2981 4952,2981 4946,2981 4941,2984 4941,2991 4941,2999 4946,3002 4952,3002 4969,3002 4976,2996 4980,2986 4982,2982 4982,2978 4983,2973 Z M 4983,2973 L 4983,2973 Z M 5091,2899 C 5091,2888 5096,2880 5108,2880 L 5123,2880 C 5135,2880 5140,2888 5140,2899 L 5140,2961 C 5140,2972 5135,2980 5123,2980 L 5108,2980 C 5096,2980 5091,2972 5091,2961 L 5091,2899 Z M 5091,2899 L 5091,2899 Z M 5161,2899 C 5161,2878 5148,2860 5123,2860 L 5108,2860 C 5083,2860 5070,2878 5070,2899 L 5070,2961 C 5070,2983 5083,3001 5108,3001 L 5123,3001 C 5148,3001 5161,2983 5161,2961 L 5161,2899 Z M 5161,2899 L 5161,2899 Z M 5232,2914 L 5206,2914 5206,2882 5253,2882 C 5258,2882 5263,2879 5263,2872 5263,2865 5258,2862 5253,2862 L 5195,2862 C 5188,2862 5185,2866 5185,2872 L 5185,2988 C 5185,2994 5188,2999 5195,2999 L 5232,2999 C 5257,2999 5270,2982 5270,2960 L 5270,2952 C 5270,2928 5257,2914 5232,2914 Z M 5232,2914 L 5232,2914 Z M 5249,2962 C 5249,2973 5244,2979 5232,2979 L 5206,2979 5206,2934 5232,2934 C 5244,2934 5249,2940 5249,2951 L 5249,2962 Z M 5249,2962 L 5249,2962 Z M 5333,2913 L 5311,2913 5311,2870 C 5311,2865 5308,2860 5300,2860 5293,2860 5290,2865 5290,2870 L 5290,2988 C 5290,2994 5293,2999 5301,2999 L 5333,2999 C 5358,2999 5371,2982 5371,2960 L 5371,2952 C 5371,2928 5359,2913 5333,2913 Z M 5333,2913 L 5333,2913 Z M 5350,2962 C 5350,2973 5345,2979 5333,2979 L 5311,2979 5311,2934 5333,2934 C 5345,2934 5350,2940 5350,2951 L 5350,2962 Z M 5350,2962 L 5350,2962 Z M 5405,2870 C 5405,2865 5402,2860 5395,2860 5387,2860 5384,2865 5384,2870 L 5384,2990 C 5384,2996 5387,3001 5395,3001 5402,3001 5405,2996 5405,2990 L 5405,2870 Z"/>
       </g>
      </g>
      <g class="com.sun.star.drawing.OpenBezierShape">
       <g id="id33">
        <rect class="BoundingBox" stroke="none" fill="none" x="5553" y="3834" width="413" height="247"/>
        <path fill="none" stroke="rgb(71,128,191)" stroke-width="32" stroke-linejoin="round" stroke-linecap="round" d="M 5624,3903 C 5603,3832 5888,3810 5824,3987 5804,4042 5668,4119 5680,4000 5634,3957 5569,3935 5569,4040 5569,4096 5627,3979 5698,3952 5773,3925 5721,3938 5721,4040 5721,4035 5786,3978 5786,3952 5786,4068 5793,3908 5807,3972 5827,4066 5847,3976 5932,3979 5966,3981 5937,3986 5939,3986"/>
       </g>
      </g>
      <g class="com.sun.star.drawing.OpenBezierShape">
       <g id="id34">
        <rect class="BoundingBox" stroke="none" fill="none" x="5573" y="4125" width="393" height="232"/>
        <path fill="none" stroke="rgb(71,128,191)" stroke-width="32" stroke-linejoin="round" stroke-linecap="round" d="M 5610,4284 C 5608,4373 5793,4270 5770,4141 5737,4141 5674,4494 5835,4258 5912,4144 5340,4253 5722,4253 5797,4253 5883,4259 5949,4259"/>
       </g>
      </g>
      <g class="com.sun.star.drawing.OpenBezierShape">
       <g id="id35">
        <rect class="BoundingBox" stroke="none" fill="none" x="4705" y="4685" width="2365" height="258"/>
        <path fill="none" stroke="rgb(71,128,191)" stroke-width="24" stroke-linejoin="round" stroke-linecap="round" d="M 4754,4802 C 4678,4778 4734,4995 4785,4879 4823,4790 4738,4762 4743,4808 4743,4813 4839,4832 4839,4770 4832,4770 4867,4977 4819,4881 4814,4869 4875,4891 4874,4876"/>
        <path fill="none" stroke="rgb(71,128,191)" stroke-width="24" stroke-linejoin="round" stroke-linecap="round" d="M 6902,4764 C 6894,4750 6938,4754 6961,4754"/>
        <path fill="none" stroke="rgb(71,128,191)" stroke-width="24" stroke-linejoin="round" stroke-linecap="round" d="M 7005,4727 C 7005,4701 7018,4803 6993,4824 6992,4825 7081,4834 7050,4781 7049,4780 7046,4854 7046,4879"/>
        <path fill="none" stroke="rgb(71,128,191)" stroke-width="24" stroke-linejoin="round" stroke-linecap="round" d="M 6905,4743 C 6886,4822 6939,4754 6958,4826 6971,4878 6869,4877 6872,4840 6880,4840 6902,4849 6904,4854"/>
        <path fill="none" stroke="rgb(71,128,191)" stroke-width="24" stroke-linejoin="round" stroke-linecap="round" d="M 6328,4794 C 6384,4790 6389,4762 6411,4711 6420,4691 6381,4757 6391,4873"/>
        <path fill="none" stroke="rgb(71,128,191)" stroke-width="24" stroke-linejoin="round" stroke-linecap="round" d="M 6281,4805 C 6211,4807 6339,4677 6328,4794 6324,4830 6221,4859 6272,4878 6296,4886 6329,4836 6362,4882"/>
        <path fill="none" stroke="rgb(71,128,191)" stroke-width="24" stroke-linejoin="round" stroke-linecap="round" d="M 5813,4770 C 5755,4726 5901,4769 5885,4723 5842,4708 5852,4999 5822,4856 5844,4877 5782,4828 5793,4828 5814,4828 5867,4825 5885,4831"/>
        <path fill="none" stroke="rgb(71,128,191)" stroke-width="24" stroke-linejoin="round" stroke-linecap="round" d="M 5752,4808 C 5793,4751 5764,4670 5764,4865 5764,4867 5762,4906 5769,4884"/>
        <path fill="none" stroke="rgb(71,128,191)" stroke-width="24" stroke-linejoin="round" stroke-linecap="round" d="M 5097,4834 C 5101,4823 5197,4697 5126,4697 5063,4697 5199,4980 5106,4921 5070,4899 5095,4797 5172,4858 5205,4885 5219,4782 5210,4854 5205,4900 5250,4803 5226,4883 5264,4828 5311,4920 5308,4817 5307,4802 5422,4859 5290,4905 5288,4909 5289,4909 5289,4914"/>
       </g>
      </g>
      <g class="com.sun.star.drawing.ClosedBezierShape">
       <g id="id36">
        <rect class="BoundingBox" stroke="none" fill="none" x="6022" y="4244" width="71" height="30"/>
        <path fill="rgb(163,125,102)" stroke="none" d="M 6077,4268 C 6082,4268 6087,4265 6087,4258 6087,4252 6082,4250 6077,4250 6053,4250 6061,4250 6036,4250 6031,4250 6027,4252 6027,4258 6027,4265 6031,4268 6036,4268 6061,4268 6053,4268 6077,4268 Z"/>
        <path fill="none" stroke="rgb(163,125,102)" stroke-width="10" stroke-linejoin="miter" d="M 6077,4268 C 6082,4268 6087,4265 6087,4258 6087,4252 6082,4250 6077,4250 6053,4250 6061,4250 6036,4250 6031,4250 6027,4252 6027,4258 6027,4265 6031,4268 6036,4268 6061,4268 6053,4268 6077,4268 Z"/>
       </g>
      </g>
      <g class="com.sun.star.drawing.ClosedBezierShape">
       <g id="id37">
        <rect class="BoundingBox" stroke="none" fill="none" x="4327" y="1042" width="3377" height="4985"/>
        <path fill="none" stroke="rgb(171,128,130)" stroke-width="81" stroke-linejoin="round" stroke-linecap="round" d="M 7662,1083 L 7662,5985 C 6564,5985 5465,5985 4368,5985 L 4368,1083 7662,1083 Z"/>
       </g>
      </g>
     </g>
    </g>
   </g>
  </g>
 </g>
</svg>