<?xml version="1.0" encoding="UTF-8"?>
<!DOCTYPE svg PUBLIC "-//W3C//DTD SVG 1.0//EN" "http://www.w3.org/TR/2001/REC-SVG-20010904/DTD/svg10.dtd">
<!-- Creator: CorelDRAW X7 -->
<svg xmlns="http://www.w3.org/2000/svg" xml:space="preserve" width="200mm" height="200mm" version="1.0" style="shape-rendering:geometricPrecision; text-rendering:geometricPrecision; image-rendering:optimizeQuality; fill-rule:evenodd; clip-rule:evenodd"
viewBox="0 0 20000 20000"
 xmlns:xlink="http://www.w3.org/1999/xlink">
 <defs>
  <style type="text/css">
   <![CDATA[
    .str1 {stroke:#3198A2;stroke-width:25}
    .str0 {stroke:#2B2A29;stroke-width:20}
    .fil46 {fill:none}
    .fil25 {fill:black}
    .fil8 {fill:#0000FD}
    .fil43 {fill:#0A9986}
    .fil26 {fill:#0C1319}
    .fil42 {fill:#101C23}
    .fil32 {fill:#111415}
    .fil33 {fill:#1679BE}
    .fil27 {fill:#18303B}
    .fil14 {fill:#1952A9}
    .fil44 {fill:#254E51}
    .fil15 {fill:#2B6AB4}
    .fil30 {fill:#2C2B2A}
    .fil47 {fill:#2E99A3}
    .fil31 {fill:#434C4D}
    .fil35 {fill:#4ACD92}
    .fil10 {fill:#5476AB}
    .fil36 {fill:#585D91}
    .fil24 {fill:#5B99D3}
    .fil39 {fill:#6CB2C6}
    .fil20 {fill:#727089}
    .fil38 {fill:#7E7D7B}
    .fil5 {fill:#8C0005}
    .fil22 {fill:#8D8B9F}
    .fil12 {fill:#95023D}
    .fil23 {fill:#A5A3B2}
    .fil13 {fill:#AB4C74}
    .fil1 {fill:#C62002}
    .fil19 {fill:#C7C6CF}
    .fil6 {fill:#D6BCC1}
    .fil21 {fill:#E1E1E5}
    .fil2 {fill:#E7CCC4}
    .fil17 {fill:#E9D1BE}
    .fil40 {fill:#EFC18D}
    .fil7 {fill:#F4EBEB}
    .fil16 {fill:#F52C16}
    .fil41 {fill:#F6D0A1}
    .fil45 {fill:#F7F7F7}
    .fil29 {fill:#F8C996}
    .fil18 {fill:#F8F8F8}
    .fil28 {fill:#FAFAFA}
    .fil3 {fill:#FAFBFB}
    .fil34 {fill:#FBD959}
    .fil11 {fill:#FDF8FA}
    .fil9 {fill:#FDFF01}
    .fil37 {fill:#FE786D}
    .fil4 {fill:#FEFEFE}
    .fil0 {fill:url(#id0)}
   ]]>
  </style>
  <radialGradient id="id0" gradientUnits="userSpaceOnUse" gradientTransform="matrix(1.41421 -0 -0 1.41421 -4142 -4142)" cx="10000" cy="10000" r="10000" fx="10000" fy="10000">
   <stop offset="0" style="stop-opacity:1; stop-color:#FEFEFE"/>
   <stop offset="0.439216" style="stop-opacity:1; stop-color:#FEFEFE"/>
   <stop offset="1" style="stop-opacity:1; stop-color:#D1E2F2"/>
  </radialGradient>
 </defs>
 <g id="Layer_x0020_1">
  <metadata id="CorelCorpID_0Corel-Layer"/>
  <path class="fil0" d="M0 0l20000 0 0 20000 -20000 0 0 -20000z"/>
  <g id="Порядок_x0020_формирования">
   <g>
    <path class="fil1" d="M9482 13552l0 -2495 -2496 0 0 2495 2496 0z"/>
    <path class="fil2" d="M7054 13485l2376 6 4 -2378 -2374 -6c-31,120 -28,2171 -6,2378z"/>
    <path class="fil1" d="M7084 13455l2311 -2 -2 -2304 -2305 -2 -4 2308z"/>
    <path class="fil2" d="M8507 11782c-231,-31 -317,84 -357,-14l0 -88c-102,6 -253,10 -269,138l-163 5 108 557c14,154 -25,12 -54,157l124 108c80,-11 107,-39 171,-42 102,-5 88,38 164,34 70,-4 55,-47 167,-33 67,8 81,35 175,41 70,-112 -33,-81 120,-88 -34,-153 -80,-49 -42,-172 23,-73 47,-64 54,-164 5,-69 29,-365 23,-388l-163 -10c-29,-77 -107,-163 -169,-196l111 155z"/>
    <path class="fil1" d="M7979 12346c22,-66 -20,-21 52,-49 56,58 89,86 183,131l5 -321c-90,-58 -196,-147 -226,-209l-115 96c-35,-27 -47,-30 -68,-67l-25 -62c-35,-61 54,20 -16,-20 -2,5 -5,8 -5,17 -2,25 -18,25 -1,124l82 438c107,-80 46,-80 134,-78z"/>
    <path class="fil1" d="M8552 12353c83,-56 97,-222 66,-328 -43,-147 -72,-247 -257,-234 -103,8 -116,40 -122,131 -6,107 32,147 76,196 91,102 145,172 237,235z"/>
    <path class="fil3" d="M8827 13292c136,-21 -48,7 139,-66 144,-55 149,-220 1,-281l-61 -26c-52,-27 -6,-46 -97,-34 -84,11 7,-1 -142,62 -133,57 -133,221 1,276 47,19 34,9 74,31 63,33 -44,28 85,38z"/>
    <path class="fil3" d="M7830 13292l117 -3 24 -280c2,-5 6,-13 10,-18 30,12 59,-15 60,137 0,53 -4,99 -1,154l119 9 5 -391 -335 -9 1 401z"/>
    <path class="fil3" d="M7573 13156l74 134 133 0c-165,-324 -111,-118 -12,-395l-126 -1 -72 121c-15,-144 42,-119 -97,-123 -52,62 -43,228 -35,306 7,63 -13,141 91,86 64,-34 27,-46 44,-128z"/>
    <path class="fil3" d="M8243 13287l97 6 33 -102c123,-10 208,-60 168,-198 -35,-117 -189,-112 -299,-92l1 386z"/>
    <path class="fil1" d="M7979 12346c20,90 -7,54 -65,125 -83,103 -17,111 -8,134l42 5c120,-14 24,-58 273,1 -7,-128 -20,-90 -104,-146 -54,-36 -84,-77 -138,-119z"/>
    <path class="fil1" d="M8246 12445c130,12 128,27 233,-26 -39,-68 -165,-209 -234,-243l1 269z"/>
    <path class="fil1" d="M8043 11846c17,7 131,127 178,173l-2 -188c-51,-19 -52,-27 -112,-47l-64 62z"/>
   </g>
   <g>
    <path class="fil4" d="M7536 15688l3702 0 0 -2157 -3702 0 0 2157z"/>
    <path class="fil5" d="M9788 15020l-1145 0 -133 617 1350 3c109,-313 200,-742 289,-1083 90,-342 -4,-348 -142,-791 -69,-221 -33,-205 -161,-193 44,185 231,597 245,745 10,104 -258,568 -303,702z"/>
    <path class="fil5" d="M9276 14858l241 4 3 -294c174,-1 268,0 335,-114 56,-94 78,-236 55,-359 -61,-322 -312,-269 -629,-257l-5 1020z"/>
    <path class="fil5" d="M9192 14866c4,-431 6,-239 -171,-323 -97,-46 -225,-412 173,-412l0 -296c-210,0 -286,1 -401,128 -84,93 -138,231 -136,393 3,348 189,514 535,510z"/>
    <path class="fil4" d="M9061 15543c48,25 65,44 141,19 -11,-68 4,-7 -32,-51 -33,-39 -9,46 -36,-55 48,-61 8,-37 94,-51 42,104 -36,198 172,156 -32,-82 -37,-11 -83,-84 37,-103 55,-22 109,-106 -24,-12 -13,-31 -85,-16 -39,8 -47,24 -70,42 -15,-12 -52,-81 -151,-29 -70,37 -74,84 -59,175z"/>
    <path class="fil6" d="M9374 15241c57,-17 70,23 55,-65l4 67 379 -20c-3,-64 4,-61 -34,-110 -72,29 -34,-21 -67,92l-9 -87 -283 -1c-45,62 -46,55 -45,124z"/>
    <path class="fil7" d="M8819 15423l7 129c132,67 250,-16 207,-177 -121,-55 -136,-18 -214,48z"/>
    <path class="fil7" d="M9671 15395l-104 -42 -58 94c25,-35 -13,-81 -27,-96 -65,41 -33,-8 -56,101 -13,66 -17,68 14,123 113,-6 80,19 109,-83 3,6 4,9 6,17 10,61 54,63 54,63 4,-6 9,-20 10,-16 2,3 8,-12 10,-16 6,-18 11,-34 15,-51 12,-50 8,-55 27,-94z"/>
    <path class="fil4" d="M9671 15395c37,151 17,33 -24,177 87,-10 63,-11 110,-71 3,4 6,7 7,13 6,36 27,49 57,58 46,-47 55,-133 63,-219 -100,1 -160,9 -213,42z"/>
    <path class="fil4" d="M9514 14321l144 -12c25,-136 33,-269 -144,-221l0 233z"/>
    <path class="fil4" d="M8615 15572c78,-33 -11,-19 126,-69 93,-34 73,-42 71,-139l-184 -9c-23,105 -52,150 -13,217z"/>
    <path class="fil6" d="M8933 15242c68,-27 62,-12 90,-9 66,8 77,9 134,-1l-2 -120c-106,8 -82,-13 -107,95 -23,-94 9,-58 -52,-93 -56,53 -52,46 -63,128z"/>
   </g>
   <g>
    <path class="fil8" d="M4914 16323l3553 0 0 -1777 -3553 0 0 1777z"/>
    <path class="fil9" d="M6037 15915l134 -3 7 -155 357 1 9 157 138 -1 6 -268c-15,-118 6,3 -29,-54 -68,-112 -36,-428 -35,-563l-488 -5c7,789 -83,427 -109,642 -6,54 1,194 10,249z"/>
    <path class="fil9" d="M5375 15755c378,30 247,-244 277,-549l127 0 5 546 181 2 0 -722 -500 -8c2,139 2,277 2,412 0,221 -58,106 -89,212 -8,26 -4,78 -3,107z"/>
    <path class="fil9" d="M6928 15762l1 -553 204 -13 5 558 171 3 0 -26 0 -677 0 -30 -555 1 1 728 173 9z"/>
    <path class="fil9" d="M7424 15054l0 702 182 0 2 -266c225,-15 344,-45 303,-304 -35,-219 -273,-162 -487,-162l0 30z"/>
    <path class="fil8" d="M6268 15584l176 1 0 -380 -136 1 -40 378z"/>
    <path class="fil10" d="M6928 15762l24 -549 168 1c-2,100 -23,464 18,540l-5 -558 -204 13 -1 553z"/>
    <path class="fil8" d="M7606 15329c134,12 165,-45 107,-135 -60,-27 -30,-22 -107,-12l0 147z"/>
   </g>
   <g>
    <path class="fil11" d="M6944 16936l3934 0 0 -1036 -3934 0 0 1036z"/>
    <path class="fil12" d="M7036 16847c102,-71 83,-151 265,-251 223,-122 291,-34 426,48 68,-64 182,-171 153,-270 -167,-16 -158,17 -168,132 -143,-175 8,-218 205,-182 57,-688 -994,-247 -881,523z"/>
    <path class="fil12" d="M9123 16769c72,-34 26,-52 52,-160 193,-3 257,-45 210,-233 -101,-42 -174,-33 -306,-32l-3 341c11,130 -16,58 47,84z"/>
    <path class="fil12" d="M8609 16770c141,-7 99,-141 260,-99 101,56 1,8 56,60 45,45 -17,33 102,39 -23,-80 -128,-417 -203,-426 -90,-10 -190,343 -215,426z"/>
    <path class="fil12" d="M9870 16763c92,9 48,14 90,-24 0,0 102,-150 214,-31 56,61 -56,59 112,60 -22,-81 -55,-153 -87,-231 -14,-37 -26,-69 -41,-108 -43,-111 -108,-137 -160,-13l-128 347z"/>
    <path class="fil12" d="M9524 16769c76,-42 12,27 46,-185l156 1c25,246 -29,152 52,184 53,-27 39,54 39,-213 0,-34 5,-100 2,-130 -9,-117 12,-56 -41,-83 -63,24 -41,-3 -49,164l-163 5c-16,-211 14,-139 -42,-169 -63,24 -48,-72 -48,213 0,287 -16,189 48,213z"/>
    <path class="fil12" d="M8255 16769c62,-22 27,13 48,-46l7 -303 154 -6c13,69 11,116 10,184 -1,18 -3,95 -1,106 13,88 -18,32 36,65 62,-22 37,5 52,-64l-3 -362 -337 2 -3 340c7,108 -12,55 37,84z"/>
    <path class="fil12" d="M10648 16630c-103,-20 -20,4 -90,50 -153,103 -228,-180 -97,-253 128,-64 52,55 207,39 -25,-190 -356,-191 -358,90 -1,109 47,196 147,215 57,10 98,8 148,-23 19,-12 34,-23 45,-43 62,-124 10,-50 -2,-75z"/>
    <path class="fil13" d="M10552 16238c74,-2 108,-11 135,-21l-2 -120c-57,44 42,-44 -26,24l-93 -26 -14 143z"/>
    <path class="fil11" d="M9163 16535l148 -16c1,-119 -31,-103 -139,-103l-9 119z"/>
   </g>
   <g>
    <path class="fil14" d="M4618 14673l2834 0 0 -2834 -685 0c-19,49 -8,99 2,186 34,307 -9,155 -171,192 -74,18 -111,0 -205,1l86 46c-182,-3 -202,27 -278,-42 -2,9 -5,37 -5,45 0,3 3,18 3,15 0,-3 3,10 5,15 257,-16 470,14 473,290l-24 -28c-128,-162 -203,-164 -491,-145l-13 -66c-15,-36 42,-5 -35,-37 -96,-39 -366,12 -460,101 -29,-22 -22,52 -30,-45l0 -28c-37,53 44,37 -75,38 -46,1 -54,-16 -89,-46l-22 -21c-3,-3 -8,-7 -12,-9 0,0 -58,-25 -60,-26 12,-113 -24,-77 41,-84l-116 4c-91,2 -115,-104 -127,-122 -72,-105 -163,-64 -196,-234l-350 0 0 2834z"/>
    <path class="fil15" d="M5624 12367c131,-86 378,-255 577,-145 76,69 96,39 278,42l-86 -46c94,-1 131,17 205,-1 162,-37 205,115 171,-192 -10,-87 -21,-137 -2,-186l-1799 0c33,170 124,129 196,234 12,18 36,124 127,122l116 -4c-65,7 -29,-29 -41,84 2,1 60,26 60,26 4,2 9,6 12,9l22 21c35,30 43,47 89,46 119,-1 38,15 75,-38l0 28z"/>
    <path class="fil16" d="M5541 12678c173,-47 292,-137 504,-107 -32,56 -14,-11 -51,75 188,33 640,-111 606,318 54,-51 76,-113 67,-191 -30,-295 -416,-245 -548,-245 -26,-81 19,-27 -21,-92 -127,-16 -231,-8 -344,30 -121,42 -183,81 -213,212z"/>
    <path class="fil17" d="M5708 12918c203,104 61,0 171,178 17,28 12,22 30,40l20 -175c52,25 40,30 118,52 26,-70 -2,-26 44,-68 -121,276 16,79 -152,191 2,54 0,20 9,43l28 54c3,5 8,13 12,19l-141 -8c82,25 103,7 184,9l152 8c1,-5 3,-30 3,-32 22,-54 45,-9 3,-80l-26 -40c-48,99 -29,71 -19,103 54,179 -10,-108 20,52l-140 -16c7,-118 7,-51 30,-97 2,-5 39,-64 50,-79 39,-53 80,-94 142,-118 99,106 23,21 44,139 13,80 34,97 104,125 -55,-54 -68,-40 -89,-131l110 -60c-161,74 -95,5 -119,-22 70,-14 129,-26 191,-66 -4,-3 -12,-13 -14,-9 -3,5 -45,-52 -171,-91 -164,-50 -93,-15 -223,-12 -155,3 -328,-90 -371,91z"/>
    <path class="fil17" d="M5624 12367c8,97 1,23 30,45 94,-89 364,-140 460,-101 77,32 20,1 35,37l13 66c288,-19 363,-17 491,145l24 28c-3,-276 -216,-306 -473,-290 -2,-5 -5,-18 -5,-15 0,3 -3,-12 -3,-15 0,-8 3,-36 5,-45 -199,-110 -446,59 -577,145z"/>
    <path class="fil17" d="M5343 13817c152,-21 16,-2 87,-44 26,-15 -45,-22 77,-30 195,-13 41,38 168,73 53,-100 -4,-162 -9,-186 -17,-72 2,-135 -15,-217l-235 2c-22,429 -60,94 -73,402z"/>
    <path class="fil17" d="M5555 13865c-96,30 -159,91 -118,224 27,87 123,134 226,105 217,-62 129,-403 -108,-329z"/>
    <path class="fil17" d="M5730 13753c188,-9 104,-94 221,-178 10,142 -23,139 41,178 34,-14 56,19 56,-135 0,-70 -1,-135 1,-205 -185,11 -109,89 -223,183 0,-174 17,-151 -45,-182 -31,15 -51,-15 -51,137 0,67 1,133 0,202z"/>
    <path class="fil17" d="M6426 14200c164,31 91,-77 224,-167 -1,224 -11,152 40,178 34,-15 50,17 48,-150 -1,-66 1,-119 -11,-182 -165,-1 -77,69 -214,172l0 -170 -84 -1 -3 320z"/>
    <path class="fil17" d="M6855 14102c-49,55 -45,45 -70,102 109,15 106,-5 137,-89 4,5 7,8 8,18l25 47c25,29 -57,28 74,28 30,-78 18,-231 6,-323 -89,-11 -263,-27 -246,108l66 109z"/>
    <path class="fil17" d="M6869 13658l-57 87c78,32 100,-15 132,-92 59,78 -9,103 115,97l3 -317c-65,-13 -177,-25 -222,17 -82,76 13,172 29,208z"/>
    <path class="fil17" d="M6140 13754c69,-30 21,11 49,-54 8,-18 -1,-36 15,-76l96 -1c11,104 -21,125 86,125l18 -261c-15,-74 12,-43 -52,-71 -64,30 -13,-1 -44,53 -43,78 49,10 -41,72 -148,-20 -35,6 -77,-69 -24,-44 49,-46 -71,-54 0,1 -73,278 21,336z"/>
    <path class="fil17" d="M6458 13759c153,-27 2,-95 165,-62 111,22 -25,54 143,53l-110 -330c-84,-2 -129,-41 -201,238l3 101z"/>
    <path class="fil17" d="M5168 14202c95,-13 24,9 50,-26l20 -47c2,-6 5,-14 7,-18 2,-5 4,-13 7,-19l127 -27c46,-222 -44,-190 -238,-194l-9 254c18,132 -8,39 36,77z"/>
    <path class="fil17" d="M5113 13749c94,-2 148,16 200,-27 -11,-64 -9,-30 -58,-56 -51,-27 -11,8 -46,-29 105,-36 56,29 100,-64l-55 -23c-47,-28 -20,9 -44,-40 20,-9 61,-15 63,-16 53,-27 22,13 47,-47 -50,-47 66,-22 -87,-38 -20,-2 -92,2 -118,1l-2 339z"/>
    <path class="fil17" d="M6069 14107c-145,62 -193,-28 -136,-148 98,-35 44,-30 136,9 16,-253 -384,-47 -222,174 36,50 220,159 222,-35z"/>
    <path class="fil17" d="M6362 14194l8 -84c-76,34 -57,34 -141,9 -22,-50 -25,-95 -15,-157 78,-21 76,-32 153,11 0,-200 -221,-92 -250,5 -46,155 80,288 245,216z"/>
    <path class="fil14" d="M5540 13946c-64,278 204,221 129,13 -34,-18 -84,-40 -129,-13z"/>
   </g>
   <g>
    <path class="fil18" d="M10007 6954l-1 -771 1217 -5 3 776 138 0 0 -275 1206 0 0 -106 -106 0 0 -3744 106 0 0 -105c-239,0 -481,-4 -720,-1 -124,1 -194,23 -339,24 -198,1 -147,-34 -147,-235l85 0 0 -106 -1734 0c2,105 1,104 106,106l0 212c-205,0 -409,0 -614,0 -216,-1 -364,21 -592,21l0 84 106 0 0 3744 -106 0 0 106 1206 0 0 275 186 0z"/>
    <path class="fil19" d="M11672 3641l-13 46 226 0 -9 212 -217 -3 10 42c-48,46 -30,702 -29,708 1,6 3,12 4,17l12 33 -4 28 -16 370c-1,14 0,48 1,62l19 68 -3 30c-36,85 -14,756 -5,811 67,-27 159,-25 238,-9l-7 218 55 -2 -7 -209c65,-25 168,-22 233,2l2 -84 -122 34c-102,0 -89,-14 -96,-22 -2,-2 -110,-240 117,-222l102 40 -2 -84c-66,27 -169,30 -234,4l2 -197c66,-25 163,-23 230,2l8 -75c-75,37 -149,31 -236,16l5 -213c79,-13 155,-19 227,15 39,-165 28,-186 3,-349 -71,35 -151,29 -239,16l9 -211c81,-14 155,-21 228,15l1 -74 -245 19c2,-79 -6,-163 21,-234l232 19 -10 -63c-70,25 -169,31 -230,-1l3 -202c78,-17 152,-20 230,6l0 -73c-72,24 -172,29 -236,-1 -23,-213 -10,-250 229,-196l1 -63 -227 0 2 -191c59,-23 158,-19 225,0 9,-79 11,-178 12,-274 0,-85 24,-213 -21,-270l-4 220 -218 3 -2 -240 -39 9 -10 232 -208 -8 3 -221c-37,47 -59,462 -1,494z"/>
    <path class="fil19" d="M9013 3353l0 75 236 -6c55,211 -26,254 -235,204l8 69c68,-19 169,-24 230,1l-2 202 -229 -10c-34,279 -10,1713 -17,2242 -1,126 0,111 27,145l-6 -223 221 -4 1 234 51 -4 -6 -229 231 8 4 -60 -216 17c-31,-71 -28,-166 -4,-238 89,-7 163,-9 222,16l-5 -56 -222 12 -11 -228 231 9 10 -53 -241 11 5 -228 231 7 -1 -54 -231 6 15 -223 211 10 10 -60 -237 8 2 -228 233 11 -4 -53 -233 6 18 -225 213 10 3 -48 -228 5 4 -229 228 7 0 -52 -237 4 16 -221 213 7 1 -53 -220 0 2 -211 217 6 -4 -56 -215 1 -6 -219 237 5 -1 -50 -233 0 -1 -225 -45 3 -4 210c-69,37 -184,23 -237,-5z"/>
    <path class="fil20" d="M10007 6954l185 0 -2 -625c108,-29 720,-21 855,-5l-5 630 186 0 -3 -776 -1217 5 1 771z"/>
    <path class="fil18" d="M10328 6954l677 0 0 -424 -677 0 0 424z"/>
    <path class="fil21" d="M10192 6954l136 0 0 -424 677 0 0 424 35 0 5 -630c-135,-16 -747,-24 -855,5l2 625z"/>
    <path class="fil22" d="M10631 3095c521,10 469,93 447,-447 -111,-45 -334,-21 -462,-18 -5,122 -24,360 15,465z"/>
    <path class="fil22" d="M10566 3083l9 -454c-132,-1 -358,-24 -470,16 -3,78 -22,401 13,437 33,32 388,21 448,1z"/>
    <path class="fil22" d="M10101 3600l469 -1 2 -465 -473 -2 2 468z"/>
    <path class="fil22" d="M10615 4608l463 1 8 -468 -475 1 4 466z"/>
    <path class="fil22" d="M10611 3599l469 -1 2 -464 -472 -1 1 466z"/>
    <path class="fil22" d="M10101 5609l455 7c34,-113 22,-343 10,-464l-463 1 -2 456z"/>
    <path class="fil22" d="M10611 3908l2 181c115,37 336,15 464,14l6 -465 -459 2 -13 268z"/>
    <path class="fil22" d="M10614 5606l450 10c37,-105 25,-349 11,-464 -126,-2 -349,-23 -460,14l-1 440z"/>
    <path class="fil22" d="M10102 5112l460 0 9 -464 -462 -2 -7 466z"/>
    <path class="fil22" d="M10612 5111l458 0 11 -463 -461 -1 -8 464z"/>
    <path class="fil22" d="M10103 4597c92,25 380,27 464,-3l2 -438 -460 -11 -6 452z"/>
    <path class="fil22" d="M10099 4092l468 13 4 -451 -462 -11 -10 449z"/>
    <path class="fil22" d="M11676 6011c165,14 216,41 213,-112l-6 -372 -220 -10c-7,89 -13,437 13,494z"/>
    <path class="fil22" d="M9039 3953l-4 468c57,24 162,24 215,-5 18,-238 -15,-118 -6,-250 9,-149 61,-217 -58,-230 -51,-5 -116,2 -147,17z"/>
    <path class="fil22" d="M9031 5473c204,44 223,-14 223,-103l2 -238c4,-46 2,-86 -6,-124l-212 -12 -7 477z"/>
    <path class="fil18" d="M10328 6454l585 1 3 -100 -588 -12 0 111z"/>
    <path class="fil22" d="M9236 5769l-198 0c-21,73 -23,183 3,237 25,7 65,12 103,10 106,-6 60,9 89,-32 55,-42 17,-169 3,-215z"/>
    <path class="fil22" d="M9038 5769l198 0c24,-89 24,-153 15,-246l-219 -2 6 248z"/>
    <path class="fil22" d="M9527 5997l2 -205c-59,-25 -133,-23 -222,-16 -24,72 -27,167 4,238l216 -17z"/>
    <path class="fil22" d="M9013 3353c53,28 168,42 237,5l4 -210 -233 -7 -8 212z"/>
    <path class="fil22" d="M9533 3370l1 -213c-70,-27 -159,-21 -235,-12l1 225 233 0z"/>
    <path class="fil22" d="M11652 4724l7 229 235 1 -5 -223 -237 -7z"/>
    <path class="fil22" d="M12166 4147l-7 -197c-239,-54 -252,-17 -229,196 64,30 164,25 236,1z"/>
    <path class="fil22" d="M12165 4676l8 -196 -232 -19c-27,71 -19,155 -21,234l245 -19z"/>
    <path class="fil22" d="M11933 5202c57,30 149,20 223,21l6 -215c-50,-14 -170,-31 -213,-6 -43,25 -25,146 -16,200z"/>
    <path class="fil22" d="M11879 6274l7 -218c-79,-16 -171,-18 -238,9l-1 204 232 5z"/>
    <path class="fil22" d="M12162 5981l1 -170 -102 -40c-227,-18 -119,220 -117,222 7,8 -6,22 96,22l122 -34z"/>
    <path class="fil22" d="M9532 5476l-5 -210 -231 -7 -5 228 241 -11z"/>
    <path class="fil22" d="M9014 3626c209,50 290,7 235,-204l-236 6 1 198z"/>
    <path class="fil22" d="M12163 4417l3 -197c-78,-26 -152,-23 -230,-6l-3 202c61,32 160,26 230,1z"/>
    <path class="fil22" d="M12166 4930l-2 -180c-73,-36 -147,-29 -228,-15l-9 211c88,13 168,19 239,-16z"/>
    <path class="fil22" d="M12167 5461l-4 -182c-72,-34 -148,-28 -227,-15l-5 213c87,15 161,21 236,-16z"/>
    <path class="fil22" d="M11934 6272l227 5 -1 -212c-65,-24 -168,-27 -233,-2l7 209z"/>
    <path class="fil22" d="M9298 6278l226 0 -1 -221 -231 -8 6 229z"/>
    <path class="fil22" d="M9531 4945l-2 -209 -233 -11 -2 228 237 -8z"/>
    <path class="fil22" d="M12161 5727l-2 -191c-67,-25 -164,-27 -230,-2l-2 197c65,26 168,23 234,-4z"/>
    <path class="fil22" d="M12151 3152l-224 -17 2 240 218 -3 4 -220z"/>
    <path class="fil22" d="M9526 4426l4 -217 -228 -7 -4 229 228 -5z"/>
    <path class="fil22" d="M11656 4696l233 -5 -5 -221 -209 -7 -19 233z"/>
    <path class="fil22" d="M9028 4683c70,19 167,21 228,-11l-1 -193c-59,-23 -161,-24 -217,-5l-10 209z"/>
    <path class="fil22" d="M9031 6275l216 7 -1 -234 -221 4 6 223z"/>
    <path class="fil22" d="M11656 5224l227 -4c9,-76 15,-156 -10,-219l-197 -7 -20 230z"/>
    <path class="fil22" d="M9524 5736l-2 -207 -231 -9 11 228 222 -12z"/>
    <path class="fil22" d="M9030 4952c81,5 154,8 219,-13l3 -197c-69,-21 -154,-25 -223,-6l1 216z"/>
    <path class="fil22" d="M11672 3641l200 -5c28,-57 19,-149 18,-220l-224 -2 6 227z"/>
    <path class="fil22" d="M9518 3633l16 -213 -237 -5 6 219 215 -1z"/>
    <path class="fil22" d="M9530 4157l-8 -210 -213 -7 -16 221 237 -4z"/>
    <path class="fil22" d="M9525 4683l-2 -209 -213 -10 -18 225 233 -6z"/>
    <path class="fil22" d="M11653 5254c8,75 -3,168 27,223l192 1 14 -214 -233 -10z"/>
    <path class="fil22" d="M11888 3144l-215 3 -3 221 208 8 10 -232z"/>
    <path class="fil22" d="M11668 4430l209 4 7 -225 -212 -7 -4 228z"/>
    <path class="fil22" d="M9021 3888l229 10 2 -202c-61,-25 -162,-20 -230,-1l-1 193z"/>
    <path class="fil22" d="M11669 3938l-4 221 221 4 -2 -218 -215 -7z"/>
    <path class="fil22" d="M12134 3623c24,-42 16,-139 13,-202l-212 -5c-11,56 -26,176 8,208 35,32 166,14 191,-1z"/>
    <path class="fil22" d="M9526 5212l-5 -207 -211 -10 -15 223 231 -6z"/>
    <path class="fil22" d="M11659 3896l217 3 9 -212 -226 0 0 209z"/>
    <path class="fil22" d="M12160 3887l0 -191c-67,-19 -166,-23 -225,0l-2 191 227 0z"/>
    <path class="fil22" d="M9523 3894l-1 -205 -217 -6 -2 211 220 0z"/>
    <path class="fil23" d="M10310 3351c-71,-5 -136,-32 -154,28l164 10 -3 137c1,6 4,13 5,18 1,5 4,12 6,18 63,-70 27,-75 42,-163 82,-14 136,16 149,-41l-166 -12c2,-73 28,-138 -25,-158l-18 163z"/>
    <path class="fil23" d="M10809 2841c-82,-5 -109,-27 -145,31l167 16c-9,71 -39,138 26,155l5 -159c72,3 105,17 164,-12 -16,-45 -87,-24 -161,-22l-5 -171c-68,18 -26,73 -51,162z"/>
    <path class="fil23" d="M10824 3352l-161 -3c19,67 96,40 167,36 -7,72 -36,149 27,165l5 -165 167 0c-18,-65 -95,-38 -166,-33l-2 -164c-66,14 -38,89 -37,164z"/>
   </g>
   <g>
    <path class="fil24" d="M7409 8715c108,25 123,52 143,163 5,4 11,3 14,11l42 32 3 -188c74,21 23,-4 56,59 23,42 1,45 39,53 95,19 36,-72 105,-115 50,66 26,200 26,282 -180,-41 81,-122 -153,-120l-27 134c250,660 -61,1267 -642,1425 -376,103 -282,-225 -282,1071l0 0c1132,0 2046,-910 2051,-2042l0 -20c-5,-1131 -919,-2041 -2051,-2041l0 0c0,177 -26,853 -1,973 27,123 74,18 363,123 98,36 268,124 314,200z"/>
    <path class="fil25" d="M6500 9386c0,156 -16,149 34,220 18,27 -2,-1 19,23 67,77 243,48 243,-201 0,-294 -296,-242 -296,-42z"/>
    <path class="fil25" d="M6183 9301l0 5 0 103c3,72 29,61 169,61 -3,136 -29,118 -169,85 6,261 421,10 226,-141 -41,-31 -78,-28 -142,-28l0 -64c131,0 160,33 170,-84 -104,0 -254,-34 -254,63z"/>
    <path class="fil25" d="M6923 8794c0,163 -15,159 21,232 72,-19 30,3 58,-48l27 -79c7,85 12,90 63,127 56,-40 17,-5 63,-106l14 -28c2,-3 5,-10 8,-14l0 148 63 0 0 -296c-191,4 -49,82 -169,169 -5,-228 -148,-196 -148,-105z"/>
    <path class="fil25" d="M6458 8878c0,176 230,211 275,43 -131,2 -53,20 -120,32 -65,11 -54,7 -71,-54 64,0 191,19 191,-42 0,-218 -275,-181 -275,21z"/>
    <path class="fil25" d="M7552 8878c-20,-111 -35,-138 -143,-163 -140,14 -126,90 -126,248l68 59c126,4 175,26 185,-101 -108,9 -133,112 -169,-22 89,0 125,13 185,-21z"/>
    <path class="fil26" d="M7896 8784c-43,306 207,275 243,158 -99,-51 -114,128 -185,-43l193 -16c-8,-194 -131,-214 -251,-99z"/>
    <path class="fil26" d="M8194 8786c-44,295 205,281 243,156 -100,-50 -113,127 -185,-43l193 -16c-21,-252 -185,-164 -251,-97z"/>
    <path class="fil25" d="M6183 9026l63 0 0 -127 106 0 0 127 63 0 0 -296 -63 0 0 106 -106 0 0 -106 -63 0 0 296z"/>
    <path class="fil25" d="M7608 8921l-10 105 59 0 27 -134c234,-2 -27,79 153,120 0,-82 24,-216 -26,-282 -69,43 -10,134 -105,115 -38,-8 -16,-11 -39,-53 -33,-63 18,-38 -56,-59l-3 188z"/>
    <path class="fil26" d="M6986 9449l22 -21 21 -42c-3,-110 -16,-112 -73,-160 -2,-2 -8,-6 -12,-9 -57,27 -193,27 -84,232l126 0z"/>
    <path class="fil25" d="M7092 9449c-17,75 -21,70 -21,169 112,60 95,48 190,-1 0,-186 -4,-206 -169,-168z"/>
    <path class="fil25" d="M7029 9386l-21 42 -22 21c-69,132 -106,135 -126,212 144,-12 113,-124 232,-212 34,-126 116,-100 127,-232 -132,11 -64,84 -190,169z"/>
   </g>
   <g>
    <path class="fil27" d="M13994 12199l1 -148c18,-47 9,-38 46,-65 -72,-18 -31,-22 -43,-104 -16,-111 29,-52 -51,-101 85,-6 18,4 45,-26l-5 -165 -232 1 -25 -1 -229 1c0,279 21,520 21,819 -44,12 -118,39 -55,74 9,5 20,9 32,11l150 0c27,-128 49,-524 105,-614l64 614 149 0c12,-2 23,-6 33,-11 63,-35 -11,-62 -55,-74l0 -190 49 -21z"/>
    <path class="fil28" d="M13755 10934c29,99 20,233 29,341 14,161 51,215 -29,316l232 -1 0 -258 21 0 0 385c79,-65 38,31 127,-66 0,-190 -8,-367 -36,-516 -15,-80 -22,-166 -71,-204 -48,-39 -154,-56 -210,-48l-63 51z"/>
    <path class="fil28" d="M13353 11638l126 5 0 -354 22 0 0 302 229 -1c-45,-47 -54,-55 -48,-152 3,-59 14,-127 19,-188 8,-95 0,-257 31,-316 -20,-23 -23,-22 -44,-46 -25,-29 -10,-8 -33,-43 -150,138 -198,-59 -262,273 -36,186 -40,280 -40,509l0 11z"/>
    <path class="fil29" d="M13479 10572c15,60 45,106 81,150 23,27 30,29 54,53 42,42 42,12 41,70 23,35 8,14 33,43 21,24 24,23 44,46l23 0 63 -51 0 -80c70,-37 60,-16 106,-84 30,-45 58,-88 63,-155 -124,-14 -21,-116 -133,-153 -26,-9 -177,9 -248,-2 -53,58 -58,68 -68,163l-59 0z"/>
    <path class="fil30" d="M13479 10572l59 0c10,-95 15,-105 68,-163 71,11 222,-7 248,2 112,37 9,139 133,153 0,-187 -85,-323 -197,-353l-96 0c-25,6 -50,17 -74,34 -115,76 -141,147 -141,327z"/>
    <path class="fil31" d="M14008 11717l-16 38c-27,30 40,20 -45,26 80,49 35,-10 51,101 12,82 -29,86 43,104 85,-27 182,-79 242,-122l0 -215c-31,0 -55,5 -80,6l-56 -1c-2,-1 -8,-1 -12,-3 -89,97 -48,1 -127,66z"/>
    <path class="fil32" d="M14041 11986c-37,27 -28,18 -46,65l-1 148c145,-26 156,-96 289,-127l0 -208c-60,43 -157,95 -242,122z"/>
    <path class="fil33" d="M13730 11590l25 1c80,-101 43,-155 29,-316 -9,-108 0,-242 -29,-341l-23 0c-31,59 -23,221 -31,316 -5,61 -16,129 -19,188 -6,97 3,105 48,152z"/>
    <path class="fil29" d="M13479 11643l-126 -5c0,70 8,85 21,138l63 0 -24 -84c32,15 26,11 66,20l0 -69z"/>
   </g>
   <g>
    <path class="fil34" d="M13543 7652l317 0c261,0 295,-445 -63,-445l-191 0c-358,0 -324,445 -63,445z"/>
    <path class="fil34" d="M13479 6848c0,445 445,319 445,84 0,-143 -13,-296 -233,-296 -114,0 -212,97 -212,212z"/>
    <path class="fil35" d="M13416 8603c0,135 77,178 176,191l247 0c138,0 320,-360 -169,-360 -118,0 -254,57 -254,169z"/>
    <path class="fil36" d="M14724 8794c96,-10 172,-46 172,-170 0,-247 -486,-252 -555,-45 -32,98 48,215 175,215l208 0z"/>
    <path class="fil37" d="M12507 8624c0,124 76,160 172,170l208 0c93,0 172,-68 182,-154 24,-224 -259,-185 -393,-185 -103,0 -169,67 -169,169z"/>
    <path class="fil35" d="M13522 8180c0,290 359,290 359,0 0,-242 -359,-242 -359,0z"/>
    <path class="fil36" d="M14452 8159c0,97 -14,233 170,233 177,0 169,-152 169,-254 0,-151 -339,-218 -339,21z"/>
    <path class="fil37" d="M12612 8180c0,162 50,212 212,212 126,0 284,-381 -85,-381 -68,0 -127,92 -127,169z"/>
    <path class="fil38" d="M14600 7926l43 0c0,-476 -44,-528 -508,-528 67,92 -16,-4 186,25 50,7 144,36 187,67 117,83 92,249 92,436z"/>
    <path class="fil38" d="M12760 7926l43 0c0,-283 -38,-444 261,-500 224,-42 131,72 204,-28 -458,0 -508,45 -508,528z"/>
    <path class="fil38" d="M13691 7926l21 0 0 -232 -21 0 0 232z"/>
   </g>
   <g>
    <path class="fil39" d="M12642 15794l1978 0c-6,-40 -11,-89 -19,-128 -16,-78 -7,-65 -51,-97 -61,-45 -117,-33 -183,-101l-85 -17c-105,-28 -112,-22 -173,-96l-15 28 -167 -52 -134 299 -81 -53c-61,57 -20,39 -71,51l-36 -63 -93 61 -138 -296 -207 73 4 -178c-19,80 -32,149 -173,125 -68,-12 -79,-79 -96,-96l28 246c-313,87 -260,116 -288,294z"/>
    <path class="fil40" d="M13564 14511c7,5 15,13 21,16l45 20 14 771c-123,-29 -165,-62 -230,-115l149 250 82 77c115,-64 178,-139 282,-199l1 -87c-21,-246 49,-267 72,-367 8,-30 8,-107 39,-140l0 -21 -58 0 -42 74 -70 -309c-147,-12 -155,37 -305,30z"/>
    <path class="fil41" d="M13286 14716l-39 0c3,146 24,168 63,233 2,4 6,9 8,13 2,4 5,9 7,14 39,82 56,174 42,289l7 65c78,29 26,6 90,57 10,8 46,36 47,37 51,35 7,10 52,29l-149 -250c65,53 107,86 230,115l-14 -771 -45 -20c-6,-3 -14,-11 -21,-16 -253,-126 -172,132 -245,280l-33 -75z"/>
    <path class="fil42" d="M13286 14716l33 75c73,-148 -8,-406 245,-280 150,7 158,-42 305,-30l70 309 42 -74c9,-79 61,-297 -5,-391 -32,-47 -111,-55 -157,-76 -214,-95 -464,-4 -523,93 -66,109 -30,245 -10,374z"/>
    <path class="fil41" d="M14056 14864c-27,35 -17,2 -12,51 4,41 16,51 25,77 28,82 23,83 25,189l15 174c61,74 68,68 173,96l16 -20 -15 -145c42,-40 60,-39 110,-83l2 -22c-10,-86 -13,-103 9,-176 21,-65 49,-55 14,-141l-26 37c-57,-224 -6,-138 -272,-155 -31,53 -11,46 -31,94 -15,36 -2,10 -18,25 -67,64 6,26 -15,-1z"/>
    <path class="fil43" d="M12464 15794l178 0c28,-178 -25,-207 288,-294l-28 -246c17,17 28,84 96,96 141,24 154,-45 173,-125 -63,23 2,-12 -73,39 -18,12 -37,31 -46,38 -64,-28 -101,-66 -165,-101 -78,39 -311,95 -348,160 -14,25 -74,387 -75,433z"/>
    <path class="fil44" d="M14367 15468c66,68 122,56 183,101 44,32 35,19 51,97 8,39 13,88 19,128l192 0c-1,-48 -57,-397 -72,-435 -28,-71 -77,-74 -151,-103 -61,-23 -150,-50 -194,-75l-2 22 -26 265z"/>
    <path class="fil40" d="M12845 14903c-2,3 -2,6 -2,11 0,6 -2,10 -2,12 8,87 11,37 31,99 23,69 15,96 15,176 64,35 101,73 165,101 9,-7 28,-26 46,-38 75,-51 10,-16 73,-39l12 -19c0,-86 -6,-107 16,-180 21,-66 51,-60 10,-141l-22 38 -46 -148c-46,-1 -195,1 -236,6l-29 134 -31 -12z"/>
    <path class="fil44" d="M13927 15331c-104,60 -167,135 -282,199l-82 -77c-45,-19 -1,6 -52,-29 -1,-1 -37,-29 -47,-37 -64,-51 -12,-28 -90,-57l138 296 93 -61 36 63c51,-12 10,6 71,-51l81 53 134 -299z"/>
    <path class="fil42" d="M12845 14903l31 12 29 -134c41,-5 190,-7 236,-6l46 148 22 -38c59,-163 -8,-249 -174,-255 -64,-2 -149,20 -174,59 -30,47 -16,147 -16,214z"/>
    <path class="fil42" d="M14039 14716l0 21c1,54 8,55 17,127 21,27 -52,65 15,1 16,-15 3,11 18,-25 20,-48 0,-41 31,-94 266,17 215,-69 272,155l26 -37c33,-120 37,-218 -100,-247 -161,-35 -228,6 -279,99z"/>
    <path class="fil43" d="M13374 15330l-7 -65c-70,-19 -120,-50 -184,-59l-12 19 -4 178 207 -73z"/>
    <path class="fil44" d="M13928 15244l-1 87 167 52 15 -28 -15 -174c-57,29 -96,45 -166,63z"/>
    <path class="fil45" d="M14282 15451l85 17 26 -265c-50,44 -68,43 -110,83l15 145 -16 20z"/>
   </g>
  </g>
  <path class="fil46 str0" d="M10000 0l0 0"/>
  <path class="fil46 str0" d="M10000 0l0 0"/>
  <path class="fil46 str0" d="M10601 7094l0 4868"/>
  <path class="fil47 str1" d="M9724 1727l-174 0c-13,0 -24,-4 -32,-12 -7,-9 -11,-20 -11,-31 0,-10 3,-20 11,-29 7,-10 18,-14 32,-14l434 0c12,0 22,4 31,13 8,9 13,19 13,30 0,10 -4,19 -11,29 -7,9 -18,14 -33,14l-174 0 0 739c0,14 -4,25 -12,33 -8,7 -18,10 -31,10 -11,0 -21,-3 -30,-10 -9,-8 -13,-19 -13,-33l0 -739zm998 739c0,14 -4,25 -12,33 -8,7 -18,10 -31,10 -12,0 -22,-3 -30,-10 -9,-8 -13,-19 -13,-33l0 -614 -353 635c-5,9 -11,16 -19,21l-9 5c-3,2 -8,3 -14,4 -8,0 -18,-5 -28,-13 -8,-9 -12,-21 -12,-38l0 -781c0,-12 5,-23 13,-33 9,-7 19,-11 31,-11 11,0 21,4 29,11 9,7 14,18 14,33l0 614 352 -635c4,-7 10,-14 19,-21 8,-6 15,-9 23,-9 10,0 19,5 27,14 9,9 13,21 13,36l0 782zm260 -451l366 -362c9,-8 19,-12 30,-12 11,0 21,4 30,13 10,9 14,19 14,31 0,8 -4,18 -13,30l-259 257 267 472 6 23c0,12 -4,21 -14,29 -9,9 -19,13 -32,13 -14,0 -26,-7 -36,-22l-255 -453 -104 101 0 331c0,14 -4,25 -12,33 -8,7 -18,10 -31,10 -11,0 -22,-3 -30,-10 -9,-8 -13,-19 -13,-33l0 -783c0,-11 4,-21 13,-30 9,-8 19,-12 30,-12 11,0 21,3 30,10 9,7 13,18 13,32l0 332z"/>
  <path class="fil47 str1" d="M12517 9323c0,20 -7,38 -22,52 -14,15 -32,23 -52,23l-21 0c-20,0 -37,-8 -52,-22 -15,-14 -22,-32 -22,-53l0 -88c0,-19 7,-37 22,-52 14,-15 32,-22 52,-22l21 0c20,0 37,7 52,22 15,14 22,32 22,52l0 88zm-34 0l0 -88c0,-11 -4,-20 -11,-28 -8,-8 -18,-12 -29,-12l-21 0c-11,0 -20,4 -28,11 -8,8 -12,18 -12,29l0 88c0,11 4,21 11,29 8,8 18,12 29,12l21 0c11,0 20,-4 28,-12 8,-7 12,-17 12,-29zm237 7l0 -102c0,-9 -4,-17 -10,-24 -6,-6 -14,-9 -24,-9l-34 0c-10,0 -18,3 -24,9 -4,3 -6,7 -8,11 -1,4 -2,9 -2,13l0 102c0,10 3,18 10,24 3,3 7,6 10,8 5,1 10,2 14,2l34 0c9,0 17,-3 24,-10 6,-6 10,-14 10,-24zm-55 -169l-76 -72c-4,-5 -6,-9 -6,-14 0,-4 2,-7 5,-10 3,-4 7,-5 13,-5l135 0c5,0 9,1 12,5 4,3 5,7 5,12 0,3 -1,7 -4,11 -3,3 -7,5 -13,5l-93 0 90 86 4 5c11,13 16,28 16,45l0 101c0,18 -6,34 -20,48 -13,13 -29,20 -47,20l-34 0c-18,0 -34,-7 -48,-20 -13,-13 -20,-29 -20,-48l0 -101c0,-19 7,-35 20,-48 13,-13 29,-20 48,-20l13 0zm290 203l69 0 0 -186c0,-5 1,-9 5,-13 3,-3 7,-4 11,-4 5,0 8,1 12,4 4,3 5,7 5,13l0 186 17 0c11,0 17,6 17,17l0 33c0,5 -2,9 -5,12 -4,3 -8,5 -12,5 -4,0 -8,-1 -11,-4 -4,-3 -6,-7 -6,-13l0 -16 -27 0 -142 0c-18,0 -34,-7 -47,-20 -14,-13 -20,-29 -20,-48l0 -152c0,-5 1,-9 5,-13 3,-3 7,-4 11,-4 5,0 9,1 12,4 3,3 5,7 5,13l0 152c0,10 3,18 10,24 3,3 7,6 11,8 5,1 9,2 13,2l34 0 0 -186c0,-5 2,-9 5,-13 3,-3 7,-4 12,-4 4,0 8,1 11,4 4,3 5,7 5,13l0 186zm203 -101l102 0 0 -34c0,-10 -3,-18 -10,-25 -6,-6 -14,-9 -24,-9l-34 0c-10,0 -18,3 -24,9 -3,4 -6,7 -8,11 -1,4 -2,9 -2,14l0 34zm0 33l0 34c0,10 3,18 10,24 3,3 7,6 11,8 4,1 9,2 13,2l85 0c4,0 8,2 11,5 4,4 5,7 5,12 0,4 -1,7 -4,11 -3,4 -7,6 -12,6l-85 0c-18,0 -34,-7 -47,-20 -14,-13 -20,-29 -20,-48l0 -101c0,-19 6,-34 19,-48 13,-13 29,-20 48,-20l34 0c18,0 34,7 47,20 14,13 20,29 20,48l0 50c0,12 -5,17 -16,17l-119 0zm321 102l-51 0c-18,0 -34,-7 -47,-20 -13,-13 -20,-29 -20,-48l0 -101c0,-19 6,-35 20,-48 13,-13 29,-20 47,-20l51 0c5,0 9,2 12,5 3,4 5,7 5,12 0,4 -1,7 -4,11 -3,4 -7,6 -13,6l-51 0c-9,0 -17,3 -24,9 -3,3 -6,7 -7,11 -2,4 -3,9 -3,13l0 102c0,10 4,18 10,24 4,3 7,6 11,8 5,1 9,2 13,2l51 0c5,0 9,2 12,5 3,4 5,7 5,12 0,4 -1,7 -4,11 -3,4 -7,6 -13,6zm186 -203l-68 0 0 186c0,5 -2,9 -5,12 -3,3 -7,5 -12,5 -4,0 -8,-2 -12,-5 -3,-3 -5,-7 -5,-12l0 -203c0,-11 6,-17 17,-17l152 0c18,0 34,7 47,20 14,13 20,29 20,48l0 152c0,5 -1,9 -4,12 -3,3 -7,5 -12,5 -5,0 -9,-2 -12,-5 -3,-3 -5,-7 -5,-12l0 -153c0,-9 -3,-17 -10,-24 -6,-6 -14,-9 -24,-9l-34 0 0 186c0,5 -1,9 -5,12 -3,3 -7,5 -12,5 -4,0 -8,-2 -11,-5 -4,-3 -5,-7 -5,-12l0 -186zm338 135l0 -101c0,-10 -4,-18 -10,-24 -6,-7 -14,-10 -24,-10l-34 0c-10,0 -18,3 -24,10 -4,3 -6,7 -8,11 -1,4 -2,8 -2,13l0 101c0,10 3,18 10,24 3,3 7,6 10,8 5,1 10,2 14,2l34 0c9,0 17,-3 24,-9 6,-7 10,-15 10,-25zm-102 -157l14 -9 20 -14c6,-5 11,-9 14,-13 4,-5 6,-10 6,-16 0,-8 -3,-14 -8,-20 -6,-4 -12,-7 -19,-7 -7,0 -14,3 -19,7 -6,5 -8,11 -8,20l0 52zm68 -11c21,0 38,7 50,19 12,13 17,28 17,48l0 101c0,18 -6,34 -20,48 -13,13 -29,20 -47,20l-34 0c-18,0 -34,-7 -48,-20 -13,-13 -20,-29 -20,-48l0 -209c0,-19 6,-34 19,-46 12,-10 26,-15 42,-15 16,0 30,5 42,16 13,10 19,25 19,44 0,11 -2,20 -5,25 -3,6 -8,11 -15,17zm168 101l102 0 0 -34c0,-10 -3,-18 -10,-25 -6,-6 -14,-9 -24,-9l-34 0c-9,0 -18,3 -24,9 -3,4 -6,7 -7,11 -2,4 -3,9 -3,14l0 34zm0 33l0 34c0,10 3,18 10,24 3,3 7,6 11,8 4,1 9,2 13,2l85 0c4,0 8,2 12,5 3,4 4,7 4,12 0,4 -1,7 -4,11 -3,4 -7,6 -12,6l-85 0c-18,0 -34,-7 -47,-20 -14,-13 -20,-29 -20,-48l0 -101c0,-19 6,-34 19,-48 13,-13 29,-20 48,-20l34 0c18,0 34,7 47,20 14,13 20,29 20,48l0 50c0,12 -5,17 -16,17l-119 0zm338 -34l0 -84c0,-5 2,-9 5,-13 4,-3 8,-4 12,-4 4,0 8,1 12,4 3,3 5,7 5,13l0 203c0,5 -2,9 -5,12 -3,3 -7,5 -12,5 -4,0 -8,-2 -12,-5 -3,-3 -5,-7 -5,-12l0 -85 -102 0 0 85c0,5 -1,9 -4,12 -3,3 -7,5 -12,5 -5,0 -9,-2 -12,-5 -3,-3 -5,-7 -5,-12l0 -203c0,-5 2,-9 5,-13 3,-3 7,-4 12,-4 4,0 8,1 11,4 4,3 5,7 5,13l0 84 102 0zm237 0l0 -84c0,-5 1,-9 5,-13 3,-3 7,-4 11,-4 5,0 9,1 12,4 3,3 5,7 5,13l0 203c0,5 -1,9 -5,12 -3,3 -7,5 -12,5 -4,0 -8,-2 -11,-5 -4,-3 -5,-7 -5,-12l0 -85 -102 0 0 85c0,5 -2,9 -5,12 -3,3 -7,5 -12,5 -4,0 -8,-2 -12,-5 -3,-3 -5,-7 -5,-12l0 -203c0,-5 2,-9 5,-13 4,-3 8,-4 12,-4 4,0 8,1 12,4 3,3 5,7 5,13l0 84 102 0zm303 119c0,5 -2,9 -5,12 -3,3 -7,5 -12,5 -4,0 -8,-2 -12,-5 -3,-3 -5,-7 -5,-12l0 -203c0,-5 2,-9 5,-13 4,-3 8,-4 12,-4 4,0 8,1 12,4 3,3 5,7 5,13l0 203zm-169 -85l0 68 34 0c10,0 18,-4 25,-10 6,-7 9,-15 9,-24 0,-10 -3,-18 -8,-24 -3,-3 -7,-5 -11,-7 -4,-2 -9,-3 -15,-3l-34 0zm0 -34l34 0c21,0 38,7 50,21 12,13 17,29 17,47 0,18 -5,33 -16,46 -13,14 -30,22 -51,22l-51 0c-11,0 -16,-6 -16,-17l0 -203c0,-5 1,-9 5,-13 3,-3 7,-4 11,-4 5,0 9,1 12,4 3,3 5,7 5,13l0 84zm270 1l102 0 0 -34c0,-10 -3,-18 -10,-25 -6,-6 -14,-9 -24,-9l-34 0c-9,0 -18,3 -24,9 -3,4 -6,7 -7,11 -2,4 -3,9 -3,14l0 34zm0 33l0 34c0,10 3,18 10,24 3,3 7,6 11,8 5,1 9,2 13,2l85 0c4,0 8,2 12,5 3,4 4,7 4,12 0,4 -1,7 -4,11 -3,4 -7,6 -12,6l-85 0c-18,0 -34,-7 -47,-20 -14,-13 -20,-29 -20,-48l0 -101c0,-19 6,-34 19,-48 13,-13 29,-20 48,-20l34 0c18,0 34,7 47,20 14,13 20,29 20,48l0 50c0,12 -5,17 -16,17l-119 0zm-2422 568c0,20 -7,37 -21,52 -15,15 -32,22 -53,22l-20 0c-21,0 -38,-7 -53,-22 -14,-14 -22,-31 -22,-52l0 -88c0,-20 7,-37 22,-52 14,-15 32,-23 53,-23l20 0c20,0 37,8 52,22 15,14 22,32 22,53l0 88zm-33 0l0 -88c0,-12 -4,-21 -12,-29 -8,-8 -18,-12 -29,-12l-21 0c-11,0 -20,4 -28,12 -8,8 -12,17 -12,29l0 88c0,11 4,20 12,28 8,8 17,12 28,12l21 0c11,0 20,-4 28,-11 9,-8 13,-18 13,-29zm236 6l0 -101c0,-10 -3,-18 -10,-24 -6,-7 -14,-10 -24,-10l-34 0c-9,0 -18,3 -24,10 -3,3 -6,6 -7,11 -2,4 -3,8 -3,13l0 101c0,10 3,18 10,25 3,3 7,5 11,7 5,2 9,2 13,2l34 0c9,0 17,-3 24,-9 7,-6 10,-15 10,-25zm-55 -169l-75 -72c-4,-4 -6,-9 -6,-14 0,-3 1,-7 4,-10 3,-3 7,-5 13,-5l136 0c4,0 8,2 12,5 3,4 4,8 4,12 0,4 -1,7 -4,11 -3,4 -7,6 -12,6l-93 0 89 85 4 6c11,12 16,27 16,44l0 101c0,19 -6,35 -19,48 -14,13 -29,20 -48,20l-34 0c-18,0 -34,-7 -47,-20 -14,-13 -20,-29 -20,-48l0 -101c0,-19 6,-35 19,-48 13,-13 29,-20 48,-20l13 0zm206 135l0 68 68 0c10,0 19,-3 25,-10 6,-7 9,-15 9,-24 0,-9 -3,-17 -8,-23 -3,-3 -7,-6 -11,-8 -4,-2 -9,-3 -15,-3l-68 0zm0 -33l68 0c21,0 38,7 51,21 11,12 17,28 17,46 0,18 -6,34 -17,47 -13,14 -30,21 -51,21l-84 0c-12,0 -17,-6 -17,-17l0 -186 -17 0c-5,0 -9,-2 -13,-5 -2,-3 -4,-7 -4,-12 0,-4 2,-8 5,-11 3,-4 7,-6 12,-6l33 0c12,0 17,6 17,17l0 85zm237 0l101 0 0 -34c0,-10 -3,-18 -9,-24 -7,-7 -15,-10 -25,-10l-33 0c-10,0 -18,3 -25,10 -3,3 -5,7 -7,11 -2,4 -2,8 -2,13l0 34zm0 34l0 34c0,9 3,17 9,24 4,3 7,5 11,7 5,2 9,2 14,2l84 0c5,0 9,2 12,6 3,3 5,7 5,11 0,4 -1,8 -4,11 -3,4 -7,6 -13,6l-84 0c-19,0 -34,-7 -48,-20 -13,-13 -20,-29 -20,-48l0 -101c0,-18 7,-34 20,-47 13,-14 29,-21 48,-21l33 0c19,0 35,7 48,20 13,13 20,29 20,48l0 51c0,11 -6,17 -17,17l-118 0zm338 -102l-68 0c-10,0 -18,3 -24,10 -4,3 -6,6 -8,11 -1,4 -2,8 -2,13l0 101c0,10 3,18 10,25 3,3 7,5 11,7 4,2 9,2 13,2l34 0c9,0 17,-3 24,-9 6,-6 10,-15 10,-25l0 -135zm0 -34l0 -33c0,-10 -3,-18 -10,-25 -6,-6 -14,-9 -24,-9l-68 0c-5,0 -9,-2 -12,-5 -3,-4 -5,-8 -5,-12 0,-4 2,-8 4,-11 3,-4 8,-6 13,-6l68 0c19,0 35,7 48,20 13,13 19,29 19,48l0 202c0,19 -6,35 -19,48 -14,13 -30,20 -48,20l-34 0c-18,0 -34,-7 -47,-20 -14,-13 -21,-29 -21,-48l0 -101c0,-19 7,-35 20,-48 13,-13 29,-20 48,-20l68 0zm270 220c0,11 -6,17 -17,17l-85 0c-18,0 -34,-7 -47,-20 -14,-13 -20,-29 -20,-48l0 -152c0,-4 1,-8 5,-12 3,-3 7,-5 12,-5 4,0 8,2 11,5 4,2 5,7 5,12l0 153c0,9 4,17 10,24 3,3 7,5 11,7 5,2 9,2 13,2l68 0 0 -186c0,-4 2,-8 5,-12 3,-3 7,-5 12,-5 4,0 8,2 11,5 4,2 6,7 6,12l0 203zm202 -118l0 -85c0,-4 2,-8 5,-12 4,-3 8,-5 12,-5 4,0 8,2 12,5 3,2 5,7 5,12l0 203c0,5 -2,10 -5,13 -3,3 -7,4 -12,4 -4,0 -8,-1 -12,-4 -3,-3 -5,-7 -5,-13l0 -85 -101 0 0 85c0,5 -2,10 -5,13 -3,3 -7,4 -12,4 -5,0 -9,-1 -12,-4 -3,-3 -5,-7 -5,-13l0 -203c0,-4 2,-8 5,-12 3,-3 7,-5 12,-5 4,0 8,2 11,5 4,2 6,7 6,12l0 85 101 0zm135 0l102 0 0 -34c0,-10 -4,-18 -10,-24 -6,-7 -14,-10 -24,-10l-34 0c-10,0 -18,3 -24,10 -4,3 -6,7 -8,11 -1,4 -2,8 -2,13l0 34zm0 34l0 34c0,9 3,17 10,24 3,3 7,5 11,7 4,2 9,2 13,2l84 0c5,0 9,2 12,6 4,3 5,7 5,11 0,4 -1,8 -4,11 -3,4 -7,6 -13,6l-84 0c-18,0 -34,-7 -48,-20 -13,-13 -20,-29 -20,-48l0 -101c0,-18 7,-34 20,-47 13,-14 29,-21 48,-21l34 0c18,0 34,7 47,20 14,13 20,29 20,48l0 51c0,11 -5,17 -17,17l-118 0zm338 -34l0 -85c0,-4 2,-8 5,-12 3,-3 7,-5 12,-5 4,0 8,2 11,5 4,2 6,7 6,12l0 203c0,5 -2,10 -5,13 -3,3 -7,4 -12,4 -5,0 -9,-1 -12,-4 -3,-3 -5,-7 -5,-13l0 -85 -102 0 0 85c0,5 -1,10 -5,13 -3,3 -7,4 -12,4 -4,0 -8,-1 -11,-4 -4,-3 -5,-7 -5,-13l0 -203c0,-4 1,-8 5,-12 3,-3 7,-5 11,-5 5,0 9,2 12,5 4,2 5,7 5,12l0 85 102 0zm270 118c0,11 -6,17 -17,17l-84 0c-19,0 -34,-7 -48,-20 -13,-13 -20,-29 -20,-48l0 -152c0,-4 2,-8 5,-12 3,-3 7,-5 12,-5 4,0 8,2 11,5 4,2 6,7 6,12l0 153c0,9 3,17 9,24 4,3 7,5 11,7 5,2 9,2 14,2l67 0 0 -186c0,-4 2,-8 5,-12 4,-3 8,-5 12,-5 4,0 8,2 12,5 3,2 5,7 5,12l0 203zm203 -118l0 -68 -68 0c-10,0 -18,3 -25,10 -6,7 -9,15 -9,24 0,9 3,16 9,23 6,8 14,11 25,11l68 0zm-42 34l-63 93c-1,2 -3,4 -6,6l-8 2c-3,0 -7,-2 -11,-5 -4,-3 -6,-8 -6,-12 0,-3 1,-6 3,-9l51 -76c-17,-3 -30,-11 -39,-24 -10,-13 -15,-27 -15,-43 0,-18 6,-34 17,-46 13,-15 30,-22 51,-22l84 0c12,0 17,6 17,17l0 203c0,5 -1,10 -5,13 -3,3 -7,4 -12,4 -4,0 -8,-1 -11,-4 -4,-3 -5,-7 -5,-13l0 -84 -42 0z"/>
  <path class="fil47 str1" d="M11956 13109c0,6 -1,10 -5,13 -3,3 -7,4 -12,4 -4,0 -8,-1 -11,-4 -4,-3 -5,-7 -5,-13l0 -152c0,-9 -4,-17 -10,-24 -6,-6 -15,-10 -24,-10l-68 0 0 186c0,6 -2,10 -5,13 -3,3 -7,4 -12,4 -4,0 -8,-1 -12,-4 -3,-3 -5,-7 -5,-13l0 -202c0,-12 6,-17 17,-17l85 0c18,0 33,6 47,19 13,13 20,29 20,48l0 152zm101 -16l68 0c9,0 17,-3 24,-10 7,-6 10,-14 10,-24l0 -102c0,-9 -3,-17 -10,-24 -6,-6 -14,-10 -24,-10l-68 0 0 170zm0 33l0 85c0,4 -2,8 -5,12 -3,3 -7,5 -12,5 -4,0 -7,-2 -11,-5 -4,-2 -5,-7 -5,-12l0 -304c0,-12 5,-17 16,-17l85 0c18,0 34,6 47,19 14,13 20,29 20,48l0 102c0,18 -6,34 -19,47 -14,14 -30,20 -48,20l-68 0zm236 -135l102 0 0 -34c0,-9 -3,-17 -9,-24 -7,-6 -15,-10 -25,-10l-34 0c-9,0 -17,4 -24,10 -3,3 -6,7 -7,11 -2,4 -3,9 -3,13l0 34zm0 34l0 34c0,9 4,17 10,24 4,3 7,5 11,7 5,2 9,3 13,3l85 0c4,0 9,1 12,5 3,3 5,7 5,11 0,4 -2,8 -4,12 -3,3 -8,5 -13,5l-85 0c-18,0 -34,-6 -47,-19 -13,-13 -20,-29 -20,-48l0 -102c0,-18 6,-34 19,-47 13,-14 29,-20 48,-20l34 0c19,0 34,6 48,19 13,14 20,30 20,48l0 51c0,11 -6,17 -17,17l-119 0zm338 -102l-67 0c-10,0 -18,4 -25,10 -3,3 -5,7 -7,11 -1,4 -2,9 -2,13l0 102c0,9 3,17 9,24 4,3 7,5 11,7 5,2 10,3 14,3l34 0c9,0 17,-3 24,-10 6,-6 9,-14 9,-24l0 -136zm0 -33l0 -34c0,-10 -3,-18 -9,-24 -6,-7 -15,-10 -24,-10l-68 0c-5,0 -9,-1 -13,-4 -2,-4 -4,-8 -4,-13 0,-4 1,-7 4,-11 3,-4 7,-6 13,-6l67 0c19,0 35,7 48,20 13,13 20,29 20,48l0 203c0,18 -7,34 -20,47 -13,14 -29,20 -48,20l-33 0c-18,0 -34,-6 -48,-19 -13,-13 -20,-29 -20,-48l0 -102c0,-18 7,-34 20,-48 13,-13 29,-19 48,-19l67 0zm220 236l-51 0c-18,0 -34,-6 -47,-19 -14,-13 -21,-29 -21,-48l0 -102c0,-18 7,-34 20,-48 13,-13 29,-19 48,-19l51 0c4,0 8,1 12,5 3,3 5,7 5,12 0,3 -2,7 -5,11 -2,3 -7,5 -12,5l-51 0c-10,0 -18,4 -24,10 -4,3 -6,7 -8,11 -1,4 -2,9 -2,13l0 102c0,9 3,17 10,24 3,3 7,5 11,7 4,2 9,3 13,3l51 0c4,0 8,1 12,5 3,3 5,7 5,11 0,4 -2,8 -5,12 -2,3 -7,5 -12,5zm185 -203l-67 0 0 186c0,6 -2,10 -5,13 -3,3 -7,4 -12,4 -5,0 -9,-1 -12,-4 -3,-3 -5,-7 -5,-13l0 -202c0,-12 6,-17 17,-17l152 0c18,0 34,6 47,19 13,13 20,29 20,48l0 152c0,6 -1,10 -5,13 -3,3 -7,4 -12,4 -4,0 -8,-1 -11,-4 -4,-3 -5,-7 -5,-13l0 -152c0,-9 -4,-17 -10,-24 -6,-6 -14,-10 -24,-10l-34 0 0 186c0,6 -2,10 -5,13 -3,3 -7,4 -12,4 -4,0 -8,-1 -12,-4 -3,-3 -5,-7 -5,-13l0 -186zm338 136l0 -136 -68 0c-9,0 -17,4 -24,10 -3,3 -6,7 -7,11 -2,4 -3,9 -3,13l0 102c0,9 4,17 10,24 4,3 7,5 11,7 5,2 9,3 13,3l34 0c10,0 18,-3 24,-10 7,-6 10,-14 10,-24zm17 45c-6,6 -13,12 -23,16 -9,4 -18,6 -28,6l-34 0c-18,0 -34,-6 -47,-19 -13,-13 -20,-29 -20,-48l0 -102c0,-18 6,-34 20,-48 13,-13 29,-19 47,-19l85 0c11,0 17,5 17,17l0 151c0,7 2,14 6,21 4,6 10,11 17,15 7,3 11,8 11,15 0,5 -2,9 -5,12 -3,4 -7,5 -12,5 -3,0 -5,0 -7,-1 -11,-5 -20,-12 -27,-21zm220 -45l0 -101c0,-10 -4,-18 -10,-24 -6,-7 -15,-10 -24,-10l-34 0c-10,0 -18,3 -25,9 -3,4 -5,7 -7,11 -1,4 -2,9 -2,14l0 101c0,9 3,17 9,24 4,3 7,5 11,7 5,2 10,3 14,3l34 0c9,0 17,-3 24,-10 6,-6 10,-14 10,-24zm-102 -157l14 -9 20 -14c6,-5 11,-9 14,-13 4,-5 6,-11 6,-16 0,-8 -3,-15 -8,-20 -6,-5 -12,-7 -19,-7 -7,0 -14,2 -19,7 -6,4 -8,11 -8,20l0 52zm68 -11c21,0 38,6 50,19 11,12 17,28 17,47l0 102c0,18 -6,34 -20,47 -13,14 -29,20 -47,20l-34 0c-18,0 -34,-6 -48,-19 -13,-13 -20,-29 -20,-48l0 -210c0,-18 6,-34 19,-45 12,-10 26,-16 42,-16 16,0 30,6 42,16 13,11 19,26 19,45 0,11 -2,19 -5,25 -3,5 -8,11 -15,17zm303 218c0,12 -5,17 -16,17l-85 0c-18,0 -34,-6 -47,-19 -14,-13 -20,-29 -20,-48l0 -152c0,-5 1,-9 5,-13 3,-3 7,-4 11,-4 5,0 9,1 12,4 3,3 5,7 5,13l0 152c0,9 3,17 10,24 3,3 7,5 11,7 5,2 9,3 13,3l68 0 0 -186c0,-5 1,-9 5,-13 3,-3 7,-4 12,-4 4,0 8,1 11,4 4,3 5,7 5,13l0 202zm169 -186l-68 0 0 186c0,6 -1,10 -4,13 -3,3 -7,4 -12,4 -5,0 -9,-1 -12,-4 -4,-3 -5,-7 -5,-13l0 -202c0,-12 5,-17 17,-17l151 0c19,0 35,6 48,19 13,13 20,29 20,48l0 152c0,6 -2,10 -5,13 -3,3 -7,4 -12,4 -4,0 -8,-1 -12,-4 -3,-3 -5,-7 -5,-13l0 -152c0,-9 -3,-17 -9,-24 -7,-6 -15,-10 -25,-10l-33 0 0 186c0,6 -2,10 -5,13 -3,3 -7,4 -12,4 -5,0 -9,-1 -12,-4 -3,-3 -5,-7 -5,-13l0 -186zm236 68l102 0 0 -34c0,-9 -3,-17 -10,-24 -6,-6 -14,-10 -24,-10l-34 0c-9,0 -17,4 -24,10 -3,3 -6,7 -7,11 -2,4 -3,9 -3,13l0 34zm0 34l0 34c0,9 3,17 10,24 3,3 7,5 11,7 5,2 9,3 13,3l85 0c4,0 8,1 12,5 3,3 5,7 5,11 0,4 -2,8 -5,12 -2,3 -7,5 -12,5l-85 0c-18,0 -34,-6 -47,-19 -14,-13 -20,-29 -20,-48l0 -102c0,-18 6,-34 19,-47 13,-14 29,-20 48,-20l34 0c18,0 34,6 48,19 13,14 20,30 20,48l0 51c0,11 -6,17 -17,17l-119 0zm372 84c0,6 -2,10 -5,13 -3,3 -7,4 -12,4 -4,0 -8,-1 -12,-4 -3,-3 -5,-7 -5,-13l0 -186 -39 0 -63 192c-1,3 -3,6 -6,9 -1,0 -4,1 -9,2 -5,0 -9,-1 -12,-5 -4,-2 -6,-6 -6,-11l2 -6 66 -203c3,-7 8,-11 16,-11l68 0c11,0 17,5 17,17l0 202zm101 -84l0 68 68 0c10,0 18,-4 24,-11 7,-7 10,-14 10,-23 0,-10 -3,-18 -9,-24 -2,-3 -6,-6 -10,-8 -5,-1 -10,-2 -15,-2l-68 0zm0 -34l68 0c21,0 38,7 50,21 12,13 17,28 17,47 0,17 -5,33 -16,46 -13,14 -30,21 -51,21l-85 0c-11,0 -17,-5 -17,-17l0 -202c0,-5 2,-9 5,-13 4,-3 8,-4 12,-4 4,0 8,1 12,4 3,3 5,7 5,13l0 84zm338 0l0 -84c0,-5 2,-9 5,-13 3,-3 7,-4 12,-4 4,0 8,1 11,4 4,3 6,7 6,13l0 202c0,6 -2,10 -5,13 -3,3 -7,4 -12,4 -5,0 -9,-1 -12,-4 -3,-3 -5,-7 -5,-13l0 -84 -102 0 0 84c0,6 -1,10 -5,13 -3,3 -7,4 -12,4 -4,0 -8,-1 -11,-4 -4,-3 -5,-7 -5,-13l0 -202c0,-5 1,-9 5,-13 3,-3 7,-4 11,-4 5,0 9,1 12,4 3,3 5,7 5,13l0 84 102 0zm303 118c0,6 -1,10 -4,13 -3,3 -7,4 -12,4 -5,0 -9,-1 -12,-4 -4,-3 -5,-7 -5,-13l0 -202c0,-5 1,-9 5,-13 3,-3 7,-4 12,-4 4,0 8,1 11,4 4,3 5,7 5,13l0 202zm-168 -84l0 68 33 0c11,0 19,-4 25,-11 6,-7 9,-14 9,-23 0,-10 -3,-18 -8,-24 -3,-3 -6,-6 -11,-8 -4,-1 -9,-2 -15,-2l-33 0zm0 -34l33 0c21,0 38,7 51,21 11,13 17,28 17,47 0,17 -6,33 -17,46 -13,14 -30,21 -51,21l-50 0c-11,0 -17,-5 -17,-17l0 -202c0,-5 2,-9 5,-13 3,-3 7,-4 12,-4 4,0 8,1 11,4 4,3 6,7 6,13l0 84zm354 -169l-67 0c-5,0 -10,-1 -13,-4 -3,-4 -4,-8 -4,-13 0,-4 1,-7 4,-11 3,-4 7,-6 13,-6l67 0c5,0 9,2 12,6 3,3 5,7 5,11 0,4 -1,8 -4,12 -3,3 -7,5 -13,5zm51 287c0,12 -6,17 -17,17l-84 0c-19,0 -34,-6 -48,-19 -13,-13 -20,-29 -20,-48l0 -152c0,-5 2,-9 5,-13 3,-3 7,-4 12,-4 4,0 8,1 11,4 4,3 6,7 6,13l0 152c0,9 3,17 9,24 4,3 7,5 11,7 5,2 9,3 13,3l68 0 0 -186c0,-5 2,-9 5,-13 4,-3 8,-4 12,-4 4,0 8,1 12,4 3,3 5,7 5,13l0 202zm-2819 483c0,20 -7,38 -22,53 -14,14 -32,22 -52,22l-21 0c-20,0 -37,-7 -52,-22 -15,-14 -22,-32 -22,-53l0 -88c0,-19 7,-37 22,-52 14,-14 32,-22 52,-22l21 0c20,0 37,7 52,22 15,14 22,32 22,52l0 88zm-34 0l0 -88c0,-11 -4,-20 -11,-28 -8,-8 -18,-12 -29,-12l-21 0c-11,0 -20,4 -28,12 -8,7 -12,17 -12,28l0 88c0,12 4,21 12,29 7,8 17,12 28,12l21 0c11,0 20,-4 28,-12 8,-7 12,-17 12,-29zm135 41l68 0c9,0 17,-3 24,-9 6,-7 10,-15 10,-25l0 -101c0,-10 -3,-18 -10,-25 -6,-6 -14,-9 -24,-9l-68 0 0 169zm0 34l0 84c0,5 -2,9 -5,12 -4,3 -8,5 -12,5 -4,0 -7,-1 -11,-4 -4,-3 -6,-7 -6,-13l0 -304c0,-11 6,-17 17,-17l85 0c18,0 34,7 47,20 14,13 20,29 20,48l0 101c0,19 -6,35 -20,48 -13,13 -29,20 -47,20l-68 0zm363 -16c-9,5 -20,9 -34,13l-18 2 -20 1 -24 -1 -20 -3c-12,-2 -23,-7 -31,-17 -8,-10 -12,-21 -12,-33 0,-7 2,-15 5,-22 2,-7 7,-13 14,-19l108 -74c3,-3 5,-6 5,-10 0,-7 -6,-13 -17,-17 -12,-4 -25,-6 -39,-6 -11,0 -21,1 -29,3 -9,2 -16,5 -21,10 -3,2 -7,3 -11,3 -3,0 -7,-1 -12,-5 -3,-3 -4,-7 -4,-12 0,-5 2,-10 6,-13 7,-6 18,-10 32,-14 7,-1 14,-3 21,-3 7,-1 15,-2 22,-2 4,0 9,0 13,0 4,0 8,1 14,1 5,1 11,2 18,5 12,3 22,9 30,18 8,10 12,20 12,31 0,14 -7,27 -20,38l-108 74c-4,4 -6,8 -6,13 0,4 2,8 4,12 3,3 7,6 12,7l18 2 20 1c13,0 23,-1 31,-3 4,-1 7,-2 12,-3 4,-2 8,-4 12,-7l4 -1c1,0 3,-1 5,-1 5,0 9,2 12,6 3,3 5,7 5,12 0,6 -3,10 -9,14zm211 -52l0 -135 -67 0c-10,0 -18,3 -25,9 -3,4 -5,7 -7,11 -2,4 -2,9 -2,14l0 101c0,10 3,18 9,24 4,3 7,6 11,8 5,1 9,2 14,2l33 0c10,0 18,-3 24,-9 7,-7 10,-15 10,-25zm17 45c-6,7 -13,12 -22,16 -10,5 -19,7 -29,7l-33 0c-19,0 -34,-7 -48,-20 -13,-13 -20,-29 -20,-48l0 -101c0,-19 7,-35 20,-48 13,-13 29,-20 48,-20l84 0c11,0 17,6 17,17l0 152c0,6 2,13 6,20 4,7 10,12 17,15 7,3 11,8 11,15 0,5 -2,9 -5,13 -3,3 -7,5 -12,5 -2,0 -5,-1 -7,-2 -11,-4 -20,-11 -27,-21zm220 -113l0 -84c0,-5 1,-9 5,-13 3,-2 7,-4 11,-4 5,0 9,2 12,4 4,3 5,7 5,13l0 203c0,5 -1,9 -5,13 -3,2 -7,4 -12,4 -4,0 -8,-2 -11,-5 -4,-2 -5,-7 -5,-12l0 -85 -102 0 0 85c0,5 -2,9 -5,13 -3,2 -7,4 -12,4 -4,0 -8,-2 -12,-5 -3,-2 -5,-7 -5,-12l0 -203c0,-4 2,-9 5,-13 4,-2 8,-4 12,-4 4,0 8,2 12,4 3,3 5,7 5,13l0 84 102 0zm540 119c0,5 -2,9 -5,13 -3,2 -7,4 -12,4 -4,0 -8,-2 -11,-5 -4,-2 -6,-7 -6,-12l0 -241 -70 116c-4,8 -9,11 -14,11 -5,0 -10,-3 -15,-11l-70 -116 0 241c0,5 -2,9 -5,13 -3,2 -7,4 -12,4 -4,0 -8,-2 -12,-5 -3,-2 -5,-7 -5,-12l0 -303c0,-6 2,-11 5,-14 3,-3 7,-5 11,-5 3,0 5,1 8,2 2,2 5,5 8,9l87 144 86 -144c4,-8 10,-11 17,-11 3,0 7,2 10,5 3,4 5,9 5,14l0 303zm219 17l-84 0c-19,0 -35,-7 -48,-20 -13,-13 -20,-29 -20,-48l0 -203c0,-18 7,-34 20,-47 13,-14 29,-20 48,-20l84 0c5,0 9,2 12,5 3,3 5,7 5,12 0,4 -1,7 -4,11 -3,4 -7,5 -13,5l-85 0c-9,0 -17,4 -24,10 -3,3 -5,7 -7,11 -2,4 -2,9 -2,13l0 203c0,10 3,18 9,24 4,3 7,6 11,8 5,1 9,2 13,2l85 0c5,0 9,2 12,5 3,4 5,8 5,12 0,4 -1,7 -4,11 -3,4 -7,6 -13,6zm253 -136l-101 0c-18,0 -34,-6 -48,-19 -13,-13 -20,-29 -20,-48l0 -118c0,-5 2,-9 5,-13 4,-3 8,-4 12,-4 4,0 8,1 12,4 3,3 5,7 5,13l0 118c0,9 3,18 10,24 3,3 7,5 11,7 4,2 9,3 13,3l101 0 0 -152c0,-5 2,-9 5,-13 4,-3 8,-4 12,-4 4,0 8,1 12,4 3,3 5,7 5,13l0 253c0,19 -7,35 -20,48 -13,13 -29,20 -48,20l-84 0c-5,0 -9,-2 -13,-5 -2,-3 -4,-8 -4,-12 0,-4 2,-8 5,-11 3,-4 7,-6 12,-6l85 0c9,0 17,-3 23,-9 7,-7 10,-15 10,-25l0 -68z"/>
  <path class="fil47 str1" d="M12812 16337l-51 0c-18,0 -34,-7 -47,-20 -14,-13 -21,-29 -21,-48l0 -101c0,-19 7,-35 20,-48 13,-13 29,-20 48,-20l51 0c4,0 8,2 12,5 3,4 5,8 5,12 0,4 -2,7 -5,11 -2,4 -7,6 -12,6l-51 0c-10,0 -18,3 -24,9 -4,4 -6,7 -8,11 -1,4 -2,9 -2,14l0 101c0,10 3,18 10,24 3,3 7,6 11,8 4,1 9,2 13,2l51 0c4,0 8,2 12,5 3,4 5,8 5,12 0,4 -2,7 -5,11 -2,4 -7,6 -12,6zm253 -75c0,20 -7,38 -22,53 -14,14 -32,22 -52,22l-21 0c-20,0 -37,-8 -52,-22 -15,-14 -22,-32 -22,-53l0 -88c0,-19 7,-37 22,-52 14,-15 32,-22 52,-22l21 0c20,0 37,7 52,22 15,14 22,32 22,52l0 88zm-34 0l0 -88c0,-11 -4,-20 -11,-28 -8,-8 -18,-12 -29,-12l-21 0c-11,0 -20,4 -28,11 -8,8 -12,18 -12,29l0 88c0,11 3,21 11,29 8,8 18,12 29,12l21 0c11,0 20,-4 28,-12 8,-7 12,-17 12,-29zm237 7l0 -101c0,-10 -4,-18 -10,-25 -6,-6 -14,-9 -24,-9l-34 0c-10,0 -18,3 -24,9 -4,4 -6,7 -8,11 -1,4 -2,9 -2,14l0 101c0,10 3,18 10,24 3,3 7,6 10,8 5,1 10,2 14,2l34 0c9,0 17,-3 24,-9 6,-7 10,-15 10,-25zm-55 -169l-76 -72c-4,-5 -6,-9 -6,-14 0,-4 2,-7 5,-10 3,-4 7,-5 13,-5l135 0c5,0 9,1 12,5 4,3 5,7 5,12 0,3 -1,7 -4,11 -3,4 -7,5 -13,5l-93 0 90 86 4 5c11,13 16,28 16,45l0 101c0,19 -6,34 -20,48 -13,13 -29,20 -47,20l-34 0c-18,0 -34,-7 -48,-20 -13,-13 -20,-29 -20,-48l0 -101c0,-19 7,-35 20,-48 13,-13 29,-20 48,-20l13 0zm189 203l68 0c9,0 17,-3 24,-9 7,-7 10,-15 10,-25l0 -101c0,-10 -3,-18 -10,-25 -6,-6 -14,-9 -24,-9l-68 0 0 169zm0 34l0 84c0,5 -2,9 -5,12 -3,3 -7,5 -12,5 -3,0 -7,-2 -11,-4 -4,-3 -5,-7 -5,-13l0 -304c0,-11 5,-17 16,-17l85 0c18,0 34,7 48,20 13,13 20,29 20,48l0 101c0,19 -7,34 -20,48 -14,13 -29,20 -48,20l-68 0zm338 -68l0 -135 -68 0c-9,0 -17,3 -24,9 -3,4 -5,7 -7,11 -2,4 -2,9 -2,14l0 101c0,10 3,18 9,24 4,3 7,6 11,8 5,1 9,2 13,2l34 0c10,0 18,-3 24,-9 7,-7 10,-15 10,-25zm17 45c-6,7 -13,12 -23,16 -9,4 -18,7 -28,7l-34 0c-18,0 -33,-7 -47,-20 -13,-13 -20,-29 -20,-48l0 -101c0,-19 7,-35 20,-48 13,-13 29,-20 47,-20l85 0c11,0 17,6 17,17l0 152c0,6 2,13 6,20 4,7 10,12 17,15 7,3 11,8 11,15 0,5 -2,9 -5,12 -3,4 -7,6 -12,6 -3,0 -5,-1 -7,-2 -11,-4 -20,-11 -27,-21zm220 -113l0 -84c0,-5 1,-9 5,-13 3,-3 7,-4 11,-4 5,0 9,1 12,4 3,3 5,7 5,13l0 203c0,5 -1,9 -5,12 -3,3 -7,5 -12,5 -4,0 -8,-2 -11,-5 -4,-3 -5,-7 -5,-12l0 -85 -102 0 0 85c0,5 -2,9 -5,12 -3,3 -7,5 -12,5 -4,0 -8,-2 -12,-5 -3,-3 -5,-7 -5,-12l0 -203c0,-5 2,-9 5,-13 4,-3 8,-4 12,-4 4,0 8,1 12,4 3,3 5,7 5,13l0 84 102 0zm269 119c0,11 -5,17 -16,17l-85 0c-18,0 -34,-7 -47,-20 -14,-13 -20,-29 -20,-48l0 -152c0,-5 1,-9 5,-13 3,-3 7,-4 11,-4 5,0 9,1 12,4 3,3 5,7 5,13l0 152c0,10 3,18 10,24 3,3 7,6 11,8 5,1 9,2 13,2l68 0 0 -186c0,-5 2,-9 5,-13 3,-3 7,-4 12,-4 4,0 8,1 11,4 4,3 5,7 5,13l0 203zm101 -118l102 0 0 -34c0,-10 -3,-18 -9,-25 -7,-6 -15,-9 -25,-9l-34 0c-9,0 -17,3 -24,9 -3,4 -6,7 -7,11 -2,5 -3,9 -3,14l0 34zm0 33l0 34c0,10 4,18 10,24 4,3 7,6 11,8 5,1 9,2 13,2l85 0c5,0 9,2 12,5 3,4 5,8 5,12 0,4 -2,7 -4,11 -3,4 -7,6 -13,6l-85 0c-18,0 -34,-7 -47,-20 -13,-13 -20,-29 -20,-48l0 -101c0,-19 6,-34 19,-48 13,-13 29,-20 48,-20l34 0c19,0 34,7 48,20 13,13 20,29 20,48l0 50c0,12 -6,17 -17,17l-119 0zm-1881 625c0,11 -6,17 -17,17l-85 0c-18,0 -34,-7 -47,-20 -14,-13 -20,-29 -20,-48l0 -152c0,-4 1,-8 5,-12 3,-3 7,-5 12,-5 4,0 8,2 11,5 4,2 5,7 5,12l0 153c0,9 4,17 10,24 3,3 7,5 11,7 5,2 9,2 13,2l68 0 0 -186c0,-4 2,-8 5,-12 3,-3 7,-5 12,-5 4,0 8,2 11,5 4,2 6,7 6,12l0 203zm156 -85l-21 0c-5,0 -10,-1 -13,-5 -3,-3 -4,-7 -4,-12 0,-4 1,-7 4,-11 3,-4 8,-5 13,-5l17 0c10,0 18,-4 24,-11 7,-6 10,-14 10,-23 0,-10 -3,-17 -9,-24 -2,-3 -6,-5 -10,-7 -5,-2 -10,-3 -15,-3l-17 0c-16,0 -29,5 -41,14 -3,2 -6,3 -10,4 -4,0 -8,-2 -12,-6 -3,-3 -5,-7 -5,-12 0,-5 3,-10 7,-13 17,-14 38,-21 61,-21l17 0c21,0 38,7 50,21 12,13 17,29 17,47 0,5 0,10 -1,14 -1,5 -2,9 -4,14 -3,8 -9,15 -16,23 6,6 12,13 16,23l4 13c1,5 1,9 1,15 0,18 -5,34 -17,46 -12,14 -29,21 -50,21l-17 0c-23,0 -43,-7 -61,-20 -5,-4 -7,-8 -7,-14 0,-3 2,-7 5,-11 4,-4 7,-6 12,-6 3,0 6,1 10,4 12,9 26,13 41,13l17 0c10,0 18,-3 24,-10 6,-7 10,-15 10,-24 0,-9 -3,-16 -8,-22 -5,-6 -12,-10 -22,-12zm266 34l0 -101c0,-10 -3,-18 -10,-24 -6,-7 -14,-10 -24,-10l-34 0c-10,0 -18,3 -24,10 -3,3 -6,7 -8,11 -1,4 -2,8 -2,13l0 101c0,10 3,18 10,25 3,3 7,5 11,7 5,2 9,2 13,2l34 0c9,0 17,-3 24,-9 7,-6 10,-14 10,-25zm-55 -169l-75 -72c-5,-4 -6,-9 -6,-14 0,-3 1,-7 4,-10 3,-3 7,-5 13,-5l136 0c4,0 8,2 11,5 4,4 5,8 5,12 0,4 -1,8 -4,11 -3,4 -7,6 -12,6l-93 0 89 85 4 6c11,12 16,27 16,44l0 101c0,19 -6,35 -19,48 -14,13 -29,20 -48,20l-34 0c-18,0 -34,-7 -47,-20 -14,-13 -21,-29 -21,-48l0 -101c0,-19 7,-35 20,-48 13,-13 29,-20 48,-20l13 0zm325 220c0,11 -6,17 -17,17l-85 0c-18,0 -34,-7 -47,-20 -13,-13 -20,-29 -20,-48l0 -152c0,-4 1,-8 5,-12 3,-3 7,-5 12,-5 4,0 8,2 11,5 4,2 5,7 5,12l0 153c0,9 4,17 10,24 3,3 7,5 11,7 5,2 9,2 13,2l68 0 0 -186c0,-4 2,-8 5,-12 4,-3 7,-5 12,-5 4,0 8,2 12,5 3,2 5,7 5,12l0 203zm101 -17l68 0c9,0 17,-3 23,-9 7,-6 10,-14 10,-25l0 -101c0,-10 -3,-18 -9,-24 -7,-7 -15,-10 -24,-10l-68 0 0 169zm0 34l0 84c0,5 -2,9 -5,12 -4,4 -8,5 -12,5 -4,0 -8,-1 -11,-4 -4,-3 -6,-7 -6,-13l0 -304c0,-11 6,-17 17,-17l84 0c19,0 35,7 48,20 13,13 20,29 20,48l0 101c0,19 -7,35 -20,48 -13,13 -29,20 -48,20l-67 0zm338 -68l0 -135 -68 0c-10,0 -18,3 -24,10 -3,3 -6,7 -8,11 -1,4 -2,8 -2,13l0 101c0,10 3,18 10,25 3,3 7,5 11,7 4,2 9,2 13,2l34 0c9,0 17,-3 24,-9 6,-6 10,-14 10,-25zm16 46c-5,6 -13,11 -22,16 -9,4 -19,6 -28,6l-34 0c-18,0 -34,-7 -47,-20 -14,-13 -21,-29 -21,-48l0 -101c0,-19 7,-35 20,-48 13,-13 29,-20 48,-20l84 0c12,0 17,6 17,17l0 152c0,7 2,14 7,21 4,6 9,11 17,14 7,3 10,8 10,16 0,5 -1,9 -5,12 -2,3 -6,5 -12,5 -2,0 -4,-1 -7,-2 -11,-4 -20,-11 -27,-20zm186 -181l-68 0 0 186c0,5 -1,10 -4,13 -3,3 -8,4 -12,4 -5,0 -9,-1 -12,-4 -4,-3 -5,-7 -5,-13l0 -203c0,-11 5,-17 17,-17l151 0c19,0 35,7 48,20 13,13 20,29 20,48l0 152c0,5 -2,10 -5,13 -3,3 -7,4 -12,4 -4,0 -8,-1 -12,-4 -3,-3 -5,-7 -5,-13l0 -152c0,-10 -3,-18 -9,-24 -7,-7 -15,-10 -25,-10l-33 0 0 186c0,5 -2,10 -5,13 -3,3 -7,4 -12,4 -5,0 -9,-1 -12,-4 -3,-3 -5,-7 -5,-13l0 -186zm236 68l102 0 0 -34c0,-9 -3,-18 -10,-24 -6,-7 -14,-10 -24,-10l-34 0c-9,0 -18,3 -24,10 -3,3 -6,7 -7,11 -2,4 -3,8 -3,13l0 34zm0 34l0 34c0,9 3,17 10,24 3,3 7,5 11,7 5,2 9,2 13,2l85 0c4,0 8,2 12,6 3,3 4,7 4,11 0,4 -1,8 -4,11 -3,4 -7,6 -12,6l-85 0c-18,0 -34,-7 -47,-20 -14,-13 -20,-29 -20,-48l0 -101c0,-18 6,-34 19,-47 13,-14 29,-21 48,-21l34 0c18,0 34,7 47,20 14,13 20,29 20,48l0 51c0,11 -5,17 -16,17l-119 0zm372 84c0,5 -2,10 -5,13 -3,3 -7,4 -12,4 -4,0 -8,-1 -12,-4 -3,-3 -5,-7 -5,-13l0 -186 -39 0 -63 191c-1,4 -3,7 -6,9 -1,1 -4,2 -9,3 -5,0 -9,-2 -12,-5 -4,-3 -6,-7 -6,-11l2 -6 66 -203c3,-8 8,-12 16,-12l68 0c11,0 17,6 17,17l0 203zm101 -118l102 0 0 -34c0,-9 -4,-18 -10,-24 -6,-7 -14,-10 -24,-10l-34 0c-10,0 -18,3 -24,10 -4,3 -6,7 -8,11 -1,4 -2,8 -2,13l0 34zm0 34l0 34c0,9 3,17 9,24 4,3 8,5 11,7 5,2 10,2 14,2l84 0c5,0 9,2 12,6 3,3 5,7 5,11 0,4 -1,8 -4,11 -3,4 -7,6 -13,6l-84 0c-19,0 -34,-7 -48,-20 -13,-13 -20,-29 -20,-48l0 -101c0,-18 7,-34 20,-47 13,-14 29,-21 48,-21l34 0c18,0 34,7 47,20 13,13 20,29 20,48l0 51c0,11 -5,17 -17,17l-118 0zm321 -203l-68 0c-5,0 -9,-2 -12,-5 -3,-3 -5,-8 -5,-12 0,-4 2,-8 4,-11 3,-4 8,-6 13,-6l68 0c4,0 8,2 12,5 3,4 5,8 5,12 0,4 -2,8 -5,11 -2,4 -7,6 -12,6zm50 287c0,11 -5,17 -16,17l-85 0c-18,0 -34,-7 -47,-20 -14,-13 -20,-29 -20,-48l0 -151c0,-5 1,-9 5,-13 3,-3 7,-4 11,-4 5,0 9,1 12,4 3,3 5,7 5,13l0 152c0,9 3,17 10,24 3,3 7,5 11,7 5,2 9,2 13,2l68 0 0 -185c0,-5 2,-9 5,-13 3,-3 7,-4 12,-4 4,0 8,1 11,4 4,3 5,7 5,13l0 202z"/>
  <g id="_630023401824">
   <path class="fil47 str1" d="M5216 17519c0,5 -2,10 -5,13 -3,3 -7,4 -12,4 -5,0 -9,-1 -12,-4 -3,-3 -5,-7 -5,-13l0 -152c0,-10 -3,-18 -10,-24 -6,-7 -14,-10 -24,-10l-68 0 0 186c0,5 -1,10 -5,13 -3,3 -7,4 -12,4 -4,0 -8,-1 -11,-4 -4,-3 -5,-7 -5,-13l0 -203c0,-11 5,-17 17,-17l84 0c18,0 34,7 47,20 14,13 21,29 21,48l0 152zm236 -57c0,20 -7,37 -22,52 -14,15 -32,22 -52,22l-21 0c-20,0 -37,-7 -52,-21 -15,-15 -22,-32 -22,-53l0 -88c0,-20 7,-37 22,-52 14,-15 32,-23 52,-23l21 0c20,0 37,8 52,22 15,14 22,32 22,53l0 88zm-34 0l0 -88c0,-11 -4,-21 -11,-29 -8,-8 -18,-12 -29,-12l-21 0c-11,0 -20,4 -28,12 -8,8 -12,17 -12,29l0 88c0,11 4,20 11,28 8,8 18,12 29,12l21 0c11,0 20,-3 28,-11 8,-8 12,-18 12,-29zm270 57c0,5 -1,10 -5,13 -3,3 -7,4 -12,4 -4,0 -8,-1 -11,-4 -4,-3 -5,-7 -5,-13l0 -186 -39 0 -63 191c-2,4 -4,7 -7,9 -1,1 -4,2 -9,3 -4,0 -8,-2 -12,-5 -3,-3 -5,-7 -5,-11l1 -6 67 -203c2,-8 7,-12 16,-12l67 0c12,0 17,6 17,17l0 203zm237 0c0,11 -6,17 -17,17l-85 0c-18,0 -34,-6 -47,-20 -14,-13 -20,-29 -20,-48l0 -152c0,-4 1,-8 5,-12 3,-3 7,-5 11,-5 5,0 9,2 12,5 3,3 5,7 5,12l0 153c0,9 3,17 10,24 3,3 7,5 11,7 5,2 9,2 13,2l68 0 0 -186c0,-4 2,-8 5,-12 3,-3 7,-5 12,-5 4,0 8,2 11,5 4,3 6,7 6,12l0 203zm168 -186l-67 0 0 186c0,5 -2,10 -5,13 -3,3 -7,4 -12,4 -5,0 -9,-1 -12,-4 -3,-3 -5,-7 -5,-13l0 -203c0,-11 6,-17 17,-17l152 0c18,0 34,7 47,20 13,13 20,29 20,48l0 152c0,5 -2,10 -5,13 -3,3 -7,4 -12,4 -4,0 -8,-1 -12,-4 -3,-3 -5,-7 -5,-13l0 -152c0,-10 -3,-18 -9,-24 -6,-7 -15,-10 -24,-10l-34 0 0 186c0,5 -2,10 -5,13 -3,3 -7,4 -12,4 -4,0 -8,-1 -12,-4 -3,-3 -5,-7 -5,-13l0 -186zm372 186c0,11 -6,17 -17,17l-85 0c-18,0 -34,-6 -47,-20 -13,-13 -20,-29 -20,-48l0 -152c0,-4 1,-8 5,-12 3,-3 7,-5 12,-5 4,0 8,2 11,5 4,3 5,7 5,12l0 153c0,9 4,17 10,24 3,3 7,5 11,7 5,2 9,2 13,2l68 0 0 -186c0,-4 2,-8 5,-12 3,-3 7,-5 12,-5 4,0 8,2 12,5 3,3 5,7 5,12l0 203zm202 -118l0 -85c0,-4 2,-8 5,-12 4,-3 8,-5 12,-5 4,0 8,2 12,5 3,3 5,7 5,12l0 203c0,5 -2,10 -5,13 -3,3 -7,4 -12,4 -4,0 -8,-1 -12,-4 -3,-3 -5,-7 -5,-13l0 -85 -67 0c-18,0 -34,-6 -48,-19 -13,-13 -20,-29 -20,-48l0 -51c0,-4 2,-8 5,-12 3,-3 7,-5 12,-5 4,0 8,2 11,5 4,2 6,7 6,12l0 51c0,9 3,17 9,24 4,3 7,5 11,7 5,2 10,3 14,3l67 0zm135 0l102 0 0 -34c0,-9 -3,-18 -10,-24 -6,-7 -14,-10 -24,-10l-34 0c-10,0 -18,3 -24,10 -3,3 -6,7 -8,11 -1,4 -2,8 -2,13l0 34zm0 34l0 34c0,9 3,17 10,24 3,3 7,5 11,7 4,2 9,2 13,2l84 0c5,0 9,2 12,6 4,3 5,7 5,11 0,4 -1,8 -4,12 -3,3 -7,5 -13,5l-84 0c-18,0 -34,-7 -48,-20 -13,-13 -20,-29 -20,-48l0 -101c0,-18 7,-34 20,-47 13,-14 29,-21 48,-21l34 0c18,0 34,7 47,20 14,13 20,29 20,48l0 51c0,11 -5,17 -17,17l-118 0zm321 101l-51 0c-18,0 -34,-6 -47,-20 -14,-13 -20,-29 -20,-48l0 -101c0,-19 6,-35 20,-48 13,-13 29,-20 47,-20l51 0c5,0 9,2 12,6 3,3 5,7 5,11 0,4 -1,8 -4,12 -3,3 -7,5 -13,5l-51 0c-9,0 -17,3 -24,10 -3,3 -6,7 -7,11 -2,4 -3,8 -3,13l0 102c0,9 4,17 10,24 3,3 7,5 11,7 5,2 9,2 13,2l51 0c5,0 9,2 12,6 3,3 5,7 5,11 0,4 -1,8 -4,12 -3,3 -7,5 -13,5zm153 -110l-39 39 0 54c0,5 -1,10 -4,13 -3,3 -7,4 -12,4 -5,0 -9,-1 -12,-4 -4,-3 -5,-7 -5,-13l0 -202c0,-5 1,-9 5,-13 3,-3 7,-4 12,-4 4,0 8,1 11,4 4,3 5,7 5,13l0 99 108 -112c3,-3 6,-5 10,-5 4,0 8,2 12,5 4,3 5,8 5,13 0,4 -1,9 -5,12l-68 72 70 107c2,5 3,9 3,12 0,4 -1,8 -5,11 -4,4 -7,6 -12,6 -4,0 -8,-3 -12,-7l-67 -104zm319 93c0,11 -5,17 -16,17l-85 0c-18,0 -34,-6 -47,-20 -14,-13 -20,-29 -20,-48l0 -152c0,-4 1,-8 5,-12 3,-3 7,-5 11,-5 5,0 9,2 12,5 3,3 5,7 5,12l0 153c0,9 3,17 10,24 3,3 7,5 11,7 5,2 9,2 13,2l68 0 0 -186c0,-4 1,-8 5,-12 3,-3 7,-5 12,-5 4,0 8,2 11,5 4,3 5,7 5,12l0 203zm101 -118l102 0 0 -34c0,-9 -3,-18 -9,-24 -7,-7 -15,-10 -25,-10l-34 0c-9,0 -17,3 -24,10 -3,3 -6,7 -7,11 -2,4 -3,8 -3,13l0 34zm0 34l0 34c0,9 4,17 10,24 4,3 7,5 11,7 5,2 9,2 13,2l85 0c4,0 9,2 12,6 3,3 5,7 5,11 0,4 -2,8 -4,12 -3,3 -8,5 -13,5l-85 0c-18,0 -34,-7 -47,-20 -14,-13 -20,-29 -20,-48l0 -101c0,-18 6,-34 19,-47 13,-14 29,-21 48,-21l34 0c19,0 34,7 48,20 13,13 20,29 20,48l0 51c0,11 -6,17 -17,17l-119 0zm575 84c0,5 -2,10 -5,13 -3,3 -7,4 -12,4 -5,0 -9,-1 -12,-4 -3,-3 -5,-7 -5,-13l0 -152c0,-10 -3,-18 -10,-24 -6,-7 -14,-10 -24,-10l-68 0 0 186c0,5 -1,10 -4,13 -4,3 -8,4 -12,4 -5,0 -9,-1 -12,-4 -4,-3 -5,-7 -5,-13l0 -203c0,-11 5,-17 17,-17l84 0c18,0 34,7 47,20 14,13 21,29 21,48l0 152zm202 -50l0 -136 -67 0c-10,0 -18,3 -25,10 -3,3 -5,7 -7,11 -2,4 -2,8 -2,13l0 102c0,9 3,17 9,24 4,3 7,5 11,7 5,2 10,2 14,2l33 0c10,0 18,-3 24,-9 7,-6 10,-14 10,-24zm17 45c-6,6 -13,11 -22,16 -10,4 -19,6 -29,6l-33 0c-19,0 -34,-6 -48,-20 -13,-13 -20,-29 -20,-48l0 -101c0,-19 7,-35 20,-48 13,-13 29,-20 48,-20l84 0c11,0 17,6 17,17l0 152c0,7 2,14 6,21 4,6 10,11 17,14 7,3 11,8 11,16 0,5 -2,9 -5,12 -3,3 -7,5 -12,5 -2,0 -5,-1 -7,-2 -11,-4 -20,-11 -27,-20zm118 -12l68 0c9,0 17,-3 24,-9 6,-6 10,-14 10,-24l0 -102c0,-10 -4,-18 -10,-24 -6,-7 -14,-10 -24,-10l-68 0 0 169zm0 34l0 84c0,5 -2,9 -5,12 -4,4 -8,5 -12,5 -4,0 -7,-1 -11,-4 -4,-3 -6,-7 -6,-13l0 -304c0,-11 6,-17 17,-17l85 0c18,0 34,7 47,20 14,13 20,29 20,48l0 101c0,19 -6,35 -20,48 -13,13 -29,20 -47,20l-68 0zm304 -203l-68 0 0 186c0,5 -1,10 -5,13 -3,3 -7,4 -12,4 -4,0 -8,-1 -11,-4 -4,-3 -5,-7 -5,-13l0 -203c0,-11 5,-17 17,-17l151 0c19,0 34,7 48,20 13,13 20,29 20,48l0 152c0,5 -2,10 -5,13 -3,3 -7,4 -12,4 -4,0 -8,-1 -12,-4 -3,-3 -5,-7 -5,-13l0 -152c0,-10 -3,-18 -9,-24 -7,-7 -15,-10 -25,-10l-33 0 0 186c0,5 -2,10 -5,13 -3,3 -7,4 -12,4 -5,0 -9,-1 -12,-4 -3,-3 -5,-7 -5,-13l0 -186zm371 186c0,11 -5,17 -16,17l-85 0c-18,0 -34,-6 -47,-20 -14,-13 -21,-29 -21,-48l0 -152c0,-4 2,-8 6,-12 3,-3 7,-5 11,-5 5,0 9,2 12,5 3,3 5,7 5,12l0 153c0,9 3,17 10,24 3,3 7,5 11,7 5,2 9,2 13,2l68 0 0 -186c0,-4 1,-8 5,-12 3,-3 7,-5 12,-5 4,0 8,2 11,5 4,3 5,7 5,12l0 203zm237 0c0,11 -6,17 -17,17l-85 0c-18,0 -34,-6 -47,-20 -13,-13 -20,-29 -20,-48l0 -152c0,-4 1,-8 5,-12 3,-3 7,-5 12,-5 4,0 8,2 11,5 4,3 5,7 5,12l0 153c0,9 4,17 10,24 3,3 7,5 11,7 5,2 9,2 13,2l68 0 0 -186c0,-4 2,-8 5,-12 4,-3 7,-5 12,-5 4,0 8,2 12,5 3,3 5,7 5,12l0 203zm439 0c0,11 -6,17 -17,17l-85 0c-18,0 -34,-6 -47,-20 -14,-13 -20,-29 -20,-48l0 -152c0,-4 1,-8 5,-12 3,-3 7,-5 12,-5 4,0 8,2 11,5 4,3 5,7 5,12l0 153c0,9 4,17 10,24 3,3 7,5 11,7 5,2 9,2 13,2l68 0 0 -186c0,-4 2,-8 5,-12 3,-3 7,-5 12,-5 4,0 8,2 11,5 4,3 6,7 6,12l0 203zm-5241 541c0,11 -6,16 -17,16l-85 0c-18,0 -34,-6 -47,-19 -14,-13 -20,-29 -20,-48l0 -152c0,-5 1,-9 5,-13 3,-3 7,-4 11,-4 5,0 9,1 12,4 3,3 5,7 5,13l0 152c0,9 3,18 10,24 3,3 7,5 11,7 5,2 9,3 13,3l68 0 0 -186c0,-5 2,-9 5,-13 3,-3 7,-4 12,-4 4,0 8,1 11,4 4,3 6,7 6,13l0 203zm156 -85l-21 0c-5,0 -10,-2 -13,-5 -3,-3 -4,-8 -4,-12 0,-4 1,-8 4,-11 3,-4 7,-6 13,-6l17 0c10,0 18,-3 24,-10 6,-7 9,-15 9,-24 0,-9 -2,-17 -8,-23 -2,-3 -6,-6 -10,-8 -5,-2 -10,-3 -15,-3l-17 0c-16,0 -29,5 -41,14 -3,2 -6,3 -10,4 -4,0 -8,-2 -12,-5 -3,-4 -5,-8 -5,-12 0,-6 2,-10 7,-14 17,-13 38,-20 61,-20l17 0c21,0 38,7 50,21 11,13 17,28 17,46 0,6 0,11 -1,15 -1,4 -2,9 -4,13 -4,8 -9,16 -16,23 6,6 12,14 16,23l4 14c1,4 1,9 1,14 0,19 -6,34 -17,46 -12,14 -29,21 -50,21l-17 0c-23,0 -43,-6 -61,-20 -5,-3 -7,-8 -7,-13 0,-4 2,-8 5,-12 3,-4 7,-6 12,-6 3,0 6,1 10,4 12,9 25,14 41,14l17 0c10,0 18,-4 24,-11 6,-6 9,-14 9,-24 0,-8 -2,-16 -7,-22 -5,-6 -12,-10 -22,-11zm266 34l0 -102c0,-9 -4,-17 -10,-24 -6,-6 -14,-10 -24,-10l-34 0c-10,0 -18,4 -24,10 -4,3 -6,7 -8,11 -1,4 -2,9 -2,13l0 102c0,9 3,18 10,24 3,3 7,5 11,7 4,2 9,3 13,3l34 0c9,0 17,-3 24,-10 6,-6 10,-14 10,-24zm-55 -169l-76 -72c-4,-5 -6,-9 -6,-14 0,-4 2,-7 5,-10 3,-4 7,-5 13,-5l135 0c5,0 9,1 12,5 4,3 5,7 5,11 0,4 -1,8 -4,12 -3,3 -7,5 -13,5l-93 0 90 86 4 5c11,13 16,28 16,44l0 102c0,18 -6,34 -19,47 -14,14 -30,20 -48,20l-34 0c-18,0 -34,-6 -47,-19 -14,-13 -21,-29 -21,-48l0 -102c0,-18 7,-34 20,-47 13,-14 29,-20 48,-20l13 0zm325 220c0,11 -6,16 -17,16l-85 0c-18,0 -34,-6 -47,-19 -14,-13 -20,-29 -20,-48l0 -152c0,-5 1,-9 5,-13 3,-3 7,-4 11,-4 5,0 9,1 12,4 4,3 5,7 5,13l0 152c0,9 3,18 10,24 3,3 7,5 11,7 5,2 9,3 13,3l68 0 0 -186c0,-5 2,-9 5,-13 3,-3 7,-4 12,-4 4,0 8,1 11,4 4,3 6,7 6,13l0 203zm101 -17l67 0c10,0 18,-3 24,-10 7,-6 10,-14 10,-24l0 -102c0,-9 -3,-17 -9,-24 -7,-6 -15,-10 -25,-10l-67 0 0 170zm0 33l0 85c0,4 -2,8 -6,12 -3,3 -7,5 -11,5 -4,0 -8,-2 -11,-5 -4,-2 -6,-7 -6,-12l0 -304c0,-12 6,-17 17,-17l84 0c19,0 34,6 48,20 13,13 20,29 20,47l0 102c0,18 -7,34 -20,47 -13,14 -29,20 -48,20l-67 0zm338 -67l0 -136 -68 0c-10,0 -18,4 -24,10 -4,3 -6,7 -8,11 -1,4 -2,9 -2,13l0 102c0,9 3,18 10,24 3,3 7,5 10,7 5,2 10,3 14,3l34 0c9,0 17,-3 24,-10 6,-6 10,-14 10,-24zm16 45c-5,6 -13,12 -22,16 -10,4 -19,6 -28,6l-34 0c-18,0 -34,-6 -48,-19 -13,-13 -20,-29 -20,-48l0 -102c0,-18 7,-34 20,-47 13,-14 29,-20 48,-20l84 0c12,0 17,5 17,17l0 151c0,7 2,14 7,21 4,6 9,11 17,15 7,3 10,8 10,15 0,5 -1,9 -5,12 -3,4 -7,5 -12,5 -2,0 -4,0 -7,-1 -11,-5 -20,-11 -27,-21zm186 -181l-68 0 0 186c0,6 -1,10 -5,13 -3,3 -7,4 -12,4 -4,0 -8,-1 -11,-4 -4,-3 -5,-7 -5,-12l0 -203c0,-12 5,-17 17,-17l151 0c19,0 34,6 48,20 13,13 20,29 20,47l0 153c0,5 -2,9 -5,12 -3,3 -7,4 -12,4 -5,0 -8,-1 -12,-4 -3,-3 -5,-7 -5,-13l0 -152c0,-9 -3,-17 -9,-24 -7,-6 -15,-10 -25,-10l-34 0 0 186c0,6 -1,10 -4,13 -3,3 -7,4 -12,4 -5,0 -9,-1 -12,-4 -3,-3 -5,-7 -5,-13l0 -186zm236 69l102 0 0 -35c0,-9 -3,-17 -10,-24 -6,-6 -14,-10 -24,-10l-34 0c-10,0 -18,4 -24,10 -3,3 -6,7 -8,11 -1,4 -2,9 -2,13l0 35zm0 33l0 34c0,9 3,18 10,24 3,3 7,5 11,7 4,2 9,3 13,3l85 0c4,0 8,2 11,5 4,3 5,7 5,12 0,3 -1,7 -4,11 -3,4 -7,5 -12,5l-85 0c-18,0 -34,-6 -48,-19 -13,-13 -20,-29 -20,-48l0 -102c0,-18 7,-34 20,-47 13,-13 29,-20 48,-20l34 0c18,0 34,6 47,20 14,13 20,29 20,47l0 51c0,11 -5,17 -16,17l-119 0zm372 85c0,5 -2,9 -5,12 -3,3 -7,4 -12,4 -5,0 -8,-1 -12,-4 -3,-3 -5,-7 -5,-13l0 -186 -39 0 -63 192c-1,4 -3,6 -6,9 -1,0 -4,1 -9,2 -5,0 -9,-1 -12,-4 -4,-3 -6,-7 -6,-12l1 -6 67 -203c3,-7 8,-11 16,-11l68 0c11,0 17,5 17,17l0 203zm101 -85l0 68 68 0c10,0 18,-4 24,-11 6,-6 9,-14 9,-23 0,-10 -2,-18 -8,-24 -3,-3 -6,-5 -11,-7 -4,-2 -9,-3 -14,-3l-68 0zm0 -34l67 0c22,0 39,7 51,21 11,13 17,28 17,47 0,18 -5,33 -17,46 -12,14 -29,21 -51,21l-84 0c-11,0 -17,-5 -17,-16l0 -203c0,-5 2,-9 5,-13 4,-3 7,-4 12,-4 4,0 8,1 12,4 3,3 5,7 5,13l0 84zm338 0l0 -84c0,-5 1,-9 5,-13 3,-3 7,-4 12,-4 4,0 8,1 11,4 4,3 5,7 5,13l0 203c0,5 -1,9 -4,12 -3,3 -8,4 -12,4 -5,0 -9,-1 -12,-4 -4,-3 -5,-7 -5,-13l0 -84 -102 0 0 84c0,6 -2,10 -5,13 -3,3 -7,4 -12,4 -4,0 -8,-1 -12,-4 -3,-3 -5,-7 -5,-12l0 -203c0,-5 2,-9 5,-13 4,-3 8,-4 12,-4 5,0 8,1 12,4 3,3 5,7 5,13l0 84 102 0z"/>
   <path class="fil47 str1" d="M7401 18060c0,5 -1,9 -5,12 -3,3 -7,4 -12,4 -4,0 -8,-1 -11,-4 -4,-3 -5,-7 -5,-12l0 -203c0,-5 1,-9 5,-13 3,-3 7,-4 11,-4 5,0 9,1 12,4 4,3 5,7 5,13l0 203zm-169 -85l0 68 34 0c10,0 19,-4 25,-11 6,-6 9,-14 9,-23 0,-10 -3,-18 -8,-24 -3,-3 -6,-5 -11,-7 -4,-2 -9,-3 -15,-3l-34 0zm0 -34l34 0c21,0 38,7 51,21 11,13 17,28 17,47 0,18 -6,33 -17,46 -13,14 -30,21 -51,21l-50 0c-12,0 -17,-5 -17,-16l0 -203c0,-5 1,-9 5,-13 3,-3 7,-4 12,-4 4,0 8,1 11,4 4,3 5,7 5,13l0 84zm270 1l102 0 0 -35c0,-9 -3,-17 -9,-24 -7,-6 -15,-10 -25,-10l-34 0c-9,0 -17,4 -24,10 -3,3 -6,7 -7,11 -2,4 -3,9 -3,13l0 35zm0 33l0 34c0,9 4,18 10,24 3,3 7,5 11,7 5,2 9,3 13,3l85 0c4,0 8,2 12,5 3,3 5,7 5,12 0,3 -2,7 -4,11 -3,4 -8,5 -13,5l-85 0c-18,0 -34,-6 -47,-19 -14,-13 -20,-29 -20,-48l0 -102c0,-18 6,-34 19,-47 13,-13 29,-20 48,-20l34 0c19,0 34,6 48,20 13,13 20,29 20,47l0 51c0,11 -6,17 -17,17l-119 0zm575 27c0,20 -8,38 -22,52 -14,15 -32,22 -53,22l-20 0c-20,0 -37,-7 -52,-21 -15,-14 -22,-32 -22,-53l0 -88c0,-20 7,-37 21,-52 15,-15 32,-22 53,-22l20 0c20,0 38,7 53,21 14,15 22,32 22,53l0 88zm-34 0l0 -88c0,-11 -4,-21 -12,-29 -8,-8 -17,-12 -29,-12l-20 0c-11,0 -21,4 -29,12 -8,8 -12,18 -12,29l0 88c0,11 4,21 12,29 8,8 18,12 29,12l20 0c11,0 21,-4 29,-12 8,-8 12,-17 12,-29zm236 7l0 -102c0,-9 -3,-17 -9,-24 -7,-6 -15,-10 -25,-10l-33 0c-10,0 -18,4 -25,10 -3,3 -5,7 -7,11 -2,4 -2,9 -2,13l0 102c0,9 3,18 9,24 4,3 7,5 11,7 5,2 9,3 14,3l33 0c10,0 18,-3 24,-10 7,-6 10,-14 10,-24zm-54 -169l-76 -72c-4,-5 -6,-9 -6,-14 0,-4 2,-7 4,-10 3,-4 8,-5 14,-5l135 0c5,0 9,1 12,5 3,3 5,7 5,11 0,4 -1,8 -4,12 -3,3 -7,5 -13,5l-93 0 90 86 4 5c11,13 16,28 16,44l0 102c0,18 -7,34 -20,47 -13,14 -29,20 -48,20l-33 0c-19,0 -34,-6 -48,-19 -13,-13 -20,-29 -20,-48l0 -102c0,-18 7,-34 20,-47 13,-14 29,-20 48,-20l13 0zm206 135l0 68 68 0c10,0 18,-4 24,-11 6,-6 9,-14 9,-23 0,-10 -2,-18 -8,-24 -2,-3 -6,-5 -10,-7 -5,-2 -10,-3 -15,-3l-68 0zm0 -34l67 0c22,0 39,7 51,21 11,13 17,28 17,47 0,18 -5,33 -17,46 -12,14 -29,21 -51,21l-84 0c-11,0 -17,-5 -17,-17l0 -186 -17 0c-5,0 -9,-1 -12,-4 -3,-4 -4,-8 -4,-12 0,-4 1,-8 4,-12 3,-3 7,-5 12,-5l34 0c11,0 17,5 17,17l0 84zm236 1l102 0 0 -35c0,-9 -3,-17 -10,-24 -6,-6 -14,-10 -24,-10l-34 0c-10,0 -18,4 -24,10 -3,3 -6,7 -7,11 -2,4 -3,9 -3,13l0 35zm0 33l0 34c0,9 3,18 10,24 3,3 7,5 11,7 4,2 9,3 13,3l85 0c4,0 8,2 12,5 3,3 4,7 4,12 0,3 -1,7 -4,11 -3,4 -7,5 -12,5l-85 0c-18,0 -34,-6 -47,-19 -14,-13 -20,-29 -20,-48l0 -102c0,-18 6,-34 19,-47 13,-13 29,-20 48,-20l34 0c18,0 34,6 47,20 14,13 20,29 20,47l0 51c0,11 -5,17 -16,17l-119 0zm338 -102l-68 0c-9,0 -17,4 -24,10 -3,3 -6,7 -7,11 -2,4 -3,9 -3,13l0 102c0,9 4,18 10,24 4,3 7,5 11,7 5,2 9,3 13,3l34 0c10,0 18,-3 24,-10 7,-6 10,-14 10,-24l0 -136zm0 -33l0 -34c0,-10 -3,-18 -9,-24 -7,-7 -15,-10 -25,-10l-67 0c-5,0 -10,-1 -13,-4 -3,-4 -4,-8 -4,-13 0,-3 1,-7 4,-11 3,-4 7,-5 13,-5l67 0c19,0 35,6 48,19 13,14 20,29 20,48l0 203c0,18 -7,34 -20,47 -13,14 -29,20 -48,20l-34 0c-18,0 -34,-6 -47,-19 -13,-13 -20,-29 -20,-48l0 -102c0,-18 6,-34 20,-47 13,-14 29,-20 48,-20l67 0zm270 220c0,11 -6,16 -17,16l-84 0c-18,0 -34,-6 -48,-19 -13,-13 -20,-29 -20,-48l0 -152c0,-5 2,-9 5,-13 4,-3 8,-4 12,-4 4,0 8,1 12,4 3,3 5,7 5,13l0 152c0,9 3,18 9,24 4,3 7,5 11,7 5,2 10,3 14,3l68 0 0 -186c0,-5 1,-9 5,-13 3,-3 7,-4 11,-4 5,0 9,1 12,4 3,3 5,7 5,13l0 203zm203 -119l0 -84c0,-5 1,-9 5,-13 3,-3 7,-4 12,-4 4,0 8,1 11,4 4,3 5,7 5,13l0 203c0,5 -1,9 -4,12 -3,3 -7,4 -12,4 -5,0 -9,-1 -12,-4 -4,-3 -5,-7 -5,-13l0 -84 -102 0 0 84c0,6 -1,10 -5,13 -3,3 -7,4 -12,4 -4,0 -8,-1 -11,-4 -4,-3 -5,-7 -5,-12l0 -203c0,-5 1,-9 5,-13 3,-3 7,-4 11,-4 5,0 9,1 12,4 3,3 5,7 5,13l0 84 102 0zm134 1l102 0 0 -35c0,-9 -3,-17 -9,-24 -7,-6 -15,-10 -25,-10l-34 0c-9,0 -17,4 -24,10 -3,3 -6,7 -7,11 -2,4 -3,9 -3,13l0 35zm0 33l0 34c0,9 4,18 10,24 4,3 7,5 11,7 5,2 9,3 13,3l85 0c4,0 9,2 12,5 3,3 5,7 5,12 0,3 -2,7 -4,11 -3,4 -8,5 -13,5l-85 0c-18,0 -34,-6 -47,-19 -14,-13 -20,-29 -20,-48l0 -102c0,-18 6,-34 19,-47 13,-13 29,-20 48,-20l34 0c19,0 34,6 48,20 13,13 20,29 20,47l0 51c0,11 -6,17 -17,17l-119 0zm338 -34l0 -84c0,-5 2,-9 5,-13 4,-3 8,-4 12,-4 5,0 8,1 12,4 3,3 5,7 5,13l0 203c0,5 -2,9 -5,12 -3,3 -7,4 -12,4 -4,0 -8,-1 -12,-4 -3,-3 -5,-7 -5,-13l0 -84 -101 0 0 84c0,6 -2,10 -5,13 -3,3 -7,4 -12,4 -5,0 -8,-1 -12,-4 -3,-3 -5,-7 -5,-12l0 -203c0,-5 2,-9 5,-13 4,-3 7,-4 12,-4 4,0 8,1 12,4 3,3 5,7 5,13l0 84 101 0zm270 119c0,11 -5,16 -16,16l-85 0c-18,0 -34,-6 -47,-19 -14,-13 -21,-29 -21,-48l0 -152c0,-5 2,-9 5,-13 4,-3 8,-4 12,-4 5,0 8,1 12,4 3,3 5,7 5,13l0 152c0,9 3,18 10,24 3,3 7,5 11,7 4,2 9,3 13,3l68 0 0 -186c0,-5 1,-9 5,-13 3,-3 7,-4 12,-4 4,0 8,1 11,4 4,3 5,7 5,13l0 203zm203 -118l0 -69 -68 0c-9,0 -18,4 -25,11 -6,6 -9,14 -9,23 0,9 3,17 9,24 6,7 15,11 25,11l68 0zm-41 33l-63 94c-1,2 -4,4 -7,6l-7 1c-4,0 -7,-1 -12,-5 -3,-3 -5,-7 -5,-12 0,-3 1,-6 2,-9l51 -76c-16,-2 -30,-10 -39,-23 -9,-13 -14,-28 -14,-44 0,-18 5,-33 17,-46 12,-14 29,-21 50,-21l85 0c11,0 17,5 17,17l0 203c0,5 -2,9 -5,12 -3,3 -7,4 -12,4 -5,0 -8,-1 -12,-4 -3,-3 -5,-7 -5,-12l0 -85 -41 0z"/>
  </g>
 </g>
</svg>
