<?xml version="1.0" encoding="UTF-8"?>
<!DOCTYPE svg PUBLIC "-//W3C//DTD SVG 1.0//EN" "http://www.w3.org/TR/2001/REC-SVG-20010904/DTD/svg10.dtd">
<!-- Creator: CorelDRAW X7 -->
<svg xmlns="http://www.w3.org/2000/svg" xml:space="preserve" width="200mm" height="200mm" version="1.0" style="shape-rendering:geometricPrecision; text-rendering:geometricPrecision; image-rendering:optimizeQuality; fill-rule:evenodd; clip-rule:evenodd"
viewBox="0 0 20000 20000"
 xmlns:xlink="http://www.w3.org/1999/xlink">
 <defs>
  <style type="text/css">
   <![CDATA[
    .str6 {stroke:#EE7727;stroke-width:25}
    .str3 {stroke:#7F2637;stroke-width:25}
    .str4 {stroke:#294468;stroke-width:25}
    .str2 {stroke:#459DCF;stroke-width:25}
    .str0 {stroke:#68CED8;stroke-width:25}
    .str1 {stroke:#95A82B;stroke-width:25}
    .str5 {stroke:#C63232;stroke-width:25}
    .fil8 {fill:#FEFEFE}
    .fil101 {fill:#F8B469}
    .fil88 {fill:#F3922E}
    .fil7 {fill:#EE7727}
    .fil50 {fill:#FCFBFB}
    .fil9 {fill:#FAFBFB}
    .fil51 {fill:#F6F8F9}
    .fil10 {fill:#F6F5F6}
    .fil52 {fill:#F3F3F3}
    .fil84 {fill:#EFF1F3}
    .fil11 {fill:#EFEFF0}
    .fil53 {fill:#EDEDEF}
    .fil94 {fill:#E27C7F}
    .fil12 {fill:#EBEAEC}
    .fil54 {fill:#E9E9EC}
    .fil13 {fill:#E7E5E7}
    .fil89 {fill:#D44646}
    .fil82 {fill:#E4E4E8}
    .fil14 {fill:#E0E0E3}
    .fil55 {fill:#DFDEDF}
    .fil6 {fill:#C93036}
    .fil15 {fill:#DCDBDE}
    .fil56 {fill:#DAD9DB}
    .fil16 {fill:#D8D6D9}
    .fil17 {fill:#D4D3D4}
    .fil57 {fill:#D4D1D3}
    .fil80 {fill:#D0D2D5}
    .fil92 {fill:#D0D0D3}
    .fil18 {fill:#CDCED0}
    .fil19 {fill:#C9C9CB}
    .fil58 {fill:#C8C6C8}
    .fil20 {fill:#C5C3C5}
    .fil98 {fill:#C5DDA6}
    .fil59 {fill:#C1C1C4}
    .fil21 {fill:#C1BFC1}
    .fil60 {fill:#BEBCBF}
    .fil81 {fill:#BDBDC1}
    .fil22 {fill:#BDBCBD}
    .fil4 {fill:#7F2637}
    .fil23 {fill:#B6B6BA}
    .fil96 {fill:#B4B6BA}
    .fil61 {fill:#B4B4B7}
    .fil99 {fill:#B383B9}
    .fil24 {fill:#B2B0B4}
    .fil62 {fill:#ADACB1}
    .fil25 {fill:#ADACB0}
    .fil95 {fill:#ADCF7F}
    .fil63 {fill:#A9A9AD}
    .fil26 {fill:#A7A5A9}
    .fil64 {fill:#A7A5A8}
    .fil27 {fill:#A5A3A7}
    .fil65 {fill:#A2A1A4}
    .fil28 {fill:#A19EA2}
    .fil66 {fill:#9B9A9D}
    .fil29 {fill:#99989C}
    .fil67 {fill:#99989A}
    .fil30 {fill:#979598}
    .fil85 {fill:#94979C}
    .fil68 {fill:#949396}
    .fil31 {fill:#929093}
    .fil69 {fill:#918F92}
    .fil2 {fill:#92A430}
    .fil32 {fill:#8F8B8F}
    .fil70 {fill:#8F8B8D}
    .fil86 {fill:#955298}
    .fil90 {fill:#8DC04E}
    .fil33 {fill:#89878B}
    .fil71 {fill:#898789}
    .fil34 {fill:#858386}
    .fil72 {fill:#827E81}
    .fil35 {fill:#807D80}
    .fil100 {fill:#7F7B7F}
    .fil73 {fill:#7F7B7E}
    .fil36 {fill:#7D787B}
    .fil93 {fill:#69C3EF}
    .fil74 {fill:#79777A}
    .fil37 {fill:#777477}
    .fil38 {fill:#716F72}
    .fil75 {fill:#706D70}
    .fil39 {fill:#6D6B6F}
    .fil76 {fill:#6C686B}
    .fil91 {fill:#6A676A}
    .fil40 {fill:#6A666A}
    .fil102 {fill:#696567}
    .fil103 {fill:#686467}
    .fil77 {fill:#686466}
    .fil41 {fill:#676365}
    .fil104 {fill:#656265}
    .fil105 {fill:#646264}
    .fil78 {fill:#625F62}
    .fil42 {fill:#625E60}
    .fil79 {fill:#615E5F}
    .fil43 {fill:#5C595B}
    .fil44 {fill:#5A5556}
    .fil106 {fill:#444342}
    .fil1 {fill:#44BCCC}
    .fil45 {fill:#545052}
    .fil46 {fill:#504C4E}
    .fil47 {fill:#4B484A}
    .fil48 {fill:#484444}
    .fil97 {fill:#4A484B}
    .fil49 {fill:#444141}
    .fil87 {fill:#34AAE1}
    .fil83 {fill:#312C2C}
    .fil3 {fill:#179AD6}
    .fil5 {fill:#2F4A6E}
    .fil0 {fill:url(#id0)}
   ]]>
  </style>
  <radialGradient id="id0" gradientUnits="userSpaceOnUse" gradientTransform="matrix(1.41421 -0 -0 1.41421 -4155 -4129)" cx="10030.6" cy="9969.4" r="10000" fx="10030.6" fy="9969.4">
   <stop offset="0" style="stop-opacity:1; stop-color:#FEFEFE"/>
   <stop offset="0.439216" style="stop-opacity:1; stop-color:#FEFEFE"/>
   <stop offset="1" style="stop-opacity:1; stop-color:#D1E2F2"/>
  </radialGradient>
 </defs>
 <g id="Layer_x0020_1">
  <metadata id="CorelCorpID_0Corel-Layer"/>
  <path class="fil0" d="M31 -31l20000 0 0 20000 -20000 0 0 -20000z"/>
  <path class="fil1 str0" d="M9531 3074c0,-84 23,-150 68,-197 45,-47 103,-71 174,-71 47,0 89,11 126,33 38,23 66,54 86,94 20,39 30,85 30,135 0,51 -11,97 -32,137 -20,41 -50,71 -87,92 -38,21 -79,31 -123,31 -48,0 -90,-11 -128,-34 -37,-23 -66,-54 -85,-94 -19,-40 -29,-82 -29,-126zm69 1c0,61 17,109 49,144 33,35 74,52 124,52 50,0 91,-18 124,-53 32,-35 48,-85 48,-150 0,-41 -7,-77 -20,-108 -14,-30 -35,-54 -61,-71 -27,-17 -57,-25 -90,-25 -48,0 -88,16 -122,49 -35,32 -52,86 -52,162zm471 245l0 -505 191 0c33,0 59,1 77,4 25,4 45,12 62,24 17,12 31,28 41,49 10,20 15,43 15,68 0,43 -14,79 -41,109 -27,30 -77,45 -148,45l-130 0 0 206 -67 0zm67 -266l131 0c43,0 73,-8 92,-24 18,-16 27,-38 27,-68 0,-21 -5,-39 -16,-54 -11,-15 -25,-25 -42,-30 -12,-3 -32,-4 -63,-4l-129 0 0 180zm376 -239l326 0 0 59 -259 0 0 446 -67 0 0 -505zm248 505l194 -505 74 0 205 505 -76 0 -58 -153 -213 0 -55 153 -71 0zm146 -208l172 0 -53 -140c-16,-42 -28,-78 -36,-105 -7,33 -16,65 -28,97l-55 148zm354 208l0 -505 67 0 0 208 261 0 0 -208 67 0 0 505 -67 0 0 -238 -261 0 0 238 -67 0zm481 -505l67 0 0 215 120 0c79,0 131,14 156,44 25,29 37,62 37,99 0,39 -13,73 -40,103 -27,29 -76,44 -148,44l-192 0 0 -505zm67 448l122 0c41,0 72,-7 91,-22 19,-14 28,-36 28,-67 0,-21 -6,-39 -17,-53 -12,-15 -26,-24 -45,-28 -17,-3 -48,-5 -90,-5l-89 0 0 175zm374 -448l67 0 0 505 -67 0 0 -505zm-4588 630l326 0 0 59 -259 0 0 446 -67 0 0 -505zm291 259c0,-83 22,-149 68,-196 45,-48 103,-71 174,-71 47,0 89,11 126,33 37,22 66,53 86,93 19,40 29,85 29,136 0,51 -10,97 -31,137 -21,40 -50,71 -88,92 -38,20 -79,31 -122,31 -48,0 -91,-12 -128,-35 -37,-23 -66,-54 -85,-94 -19,-39 -29,-81 -29,-126zm69 2c0,60 16,108 49,143 33,35 74,53 123,53 51,0 92,-18 124,-53 33,-36 49,-86 49,-151 0,-41 -7,-76 -21,-107 -14,-31 -34,-54 -61,-71 -26,-17 -56,-25 -90,-25 -47,0 -88,16 -122,48 -34,33 -51,87 -51,163zm831 67l67 17c-14,55 -40,97 -76,125 -36,29 -81,44 -133,44 -55,0 -99,-11 -133,-34 -34,-22 -60,-54 -78,-96 -17,-42 -26,-87 -26,-135 0,-53 10,-98 30,-138 20,-39 49,-69 86,-89 37,-20 77,-30 122,-30 50,0 93,12 127,38 35,26 59,62 72,109l-65 15c-12,-37 -29,-63 -51,-80 -23,-17 -51,-25 -84,-25 -39,0 -71,9 -97,28 -26,18 -45,43 -55,75 -11,31 -16,63 -16,97 0,43 6,80 19,112 12,32 31,56 58,72 26,16 55,24 85,24 38,0 69,-11 95,-33 26,-21 43,-53 53,-96zm45 -328l68 0 165 311 144 -311 66 0 -189 393c-24,49 -44,81 -59,97 -15,15 -36,22 -65,22 -17,0 -38,-4 -63,-12l0 -57c18,11 37,16 57,16 16,0 30,-6 42,-16 12,-10 25,-34 39,-72l-205 -371zm484 0l308 0 0 446 45 0 0 177 -59 0 0 -118 -334 0 0 118 -60 0 0 -177 39 0c41,-61 61,-185 61,-372l0 -74zm241 59l-176 0 0 26c0,43 -4,102 -12,177 -8,75 -23,136 -45,184l233 0 0 -387zm107 446l193 -505 74 0 206 505 -76 0 -59 -153 -213 0 -54 153 -71 0zm145 -207l172 0 -53 -140c-15,-43 -27,-78 -36,-106 -7,33 -16,66 -28,98l-55 148zm351 207l0 -505 191 0c33,0 59,2 77,5 25,4 45,12 62,23 17,12 31,28 41,49 10,21 15,44 15,69 0,43 -13,79 -41,109 -27,29 -77,44 -148,44l-130 0 0 206 -67 0zm67 -265l131 0c43,0 74,-8 92,-24 18,-16 27,-39 27,-68 0,-21 -5,-39 -16,-54 -11,-15 -25,-25 -42,-30 -11,-3 -32,-5 -63,-5l-129 0 0 181zm726 88l67 17c-14,55 -39,97 -75,125 -36,29 -81,44 -133,44 -55,0 -99,-11 -133,-34 -34,-22 -60,-54 -78,-96 -18,-42 -26,-87 -26,-135 0,-53 9,-98 30,-138 20,-39 48,-69 85,-89 37,-20 78,-30 123,-30 50,0 93,12 127,38 34,26 58,62 72,109l-66 15c-11,-37 -28,-63 -51,-80 -22,-17 -50,-25 -84,-25 -38,0 -71,9 -97,28 -26,18 -44,43 -54,75 -11,31 -16,63 -16,97 0,43 6,80 18,112 13,32 32,56 59,72 26,16 54,24 85,24 37,0 69,-11 95,-33 26,-21 43,-53 52,-96zm226 177l0 -446 -167 0 0 -59 400 0 0 59 -166 0 0 446 -67 0zm270 0l0 -505 190 0c38,0 69,5 93,15 23,11 41,26 54,48 13,21 20,43 20,66 0,22 -6,42 -17,61 -12,19 -30,35 -53,46 30,9 54,25 70,46 17,22 25,47 25,77 0,24 -5,46 -15,66 -10,20 -23,36 -37,47 -15,11 -34,19 -56,25 -22,5 -49,8 -81,8l-193 0zm67 -293l109 0c30,0 51,-2 64,-5 17,-5 30,-14 39,-26 8,-11 12,-26 12,-44 0,-17 -4,-32 -12,-44 -8,-13 -19,-22 -34,-27 -15,-4 -41,-7 -77,-7l-101 0 0 153zm0 234l126 0c22,0 37,-1 46,-2 15,-3 28,-8 38,-14 10,-7 19,-16 26,-28 6,-13 10,-27 10,-43 0,-19 -5,-35 -15,-49 -10,-14 -23,-24 -40,-30 -17,-5 -42,-8 -74,-8l-117 0 0 174zm378 59l0 -505 365 0 0 59 -297 0 0 156 278 0 0 59 -278 0 0 172 309 0 0 59 -377 0zm443 0l0 -505 67 0 0 208 261 0 0 -208 67 0 0 505 -67 0 0 -237 -261 0 0 237 -67 0zm480 0l0 -505 67 0 0 208 261 0 0 -208 67 0 0 505 -67 0 0 -237 -261 0 0 237 -67 0zm457 -246c0,-83 23,-149 68,-196 45,-48 103,-71 174,-71 47,0 89,11 126,33 38,22 66,53 86,93 20,40 29,85 29,136 0,51 -10,97 -31,137 -20,40 -50,71 -87,92 -38,20 -79,31 -123,31 -48,0 -90,-12 -128,-35 -37,-23 -66,-54 -85,-94 -19,-39 -29,-81 -29,-126zm69 2c0,60 17,108 49,143 33,35 74,53 123,53 51,0 92,-18 125,-53 32,-36 48,-86 48,-151 0,-41 -7,-76 -21,-107 -13,-31 -34,-54 -60,-71 -27,-17 -57,-25 -91,-25 -47,0 -88,16 -122,48 -34,33 -51,87 -51,163zm472 -261l61 0 0 400 269 -400 66 0 0 505 -60 0 0 -399 -269 399 -67 0 0 -505zm252 -121l43 0c-4,29 -14,51 -32,67 -18,15 -41,23 -70,23 -30,0 -53,-8 -71,-23 -17,-16 -28,-38 -31,-67l42 0c3,16 10,28 19,35 10,8 23,12 39,12 18,0 33,-4 42,-11 10,-8 16,-20 19,-36zm-4441 1257l0 -505 189 0c39,0 70,5 93,15 24,10 42,26 55,47 13,21 20,44 20,67 0,21 -6,42 -18,61 -11,19 -29,34 -53,46 31,9 54,24 71,46 16,21 25,47 25,76 0,24 -6,46 -16,66 -10,21 -22,36 -37,47 -14,11 -33,20 -55,25 -22,6 -49,9 -81,9l-193 0zm67 -293l109 0c30,0 51,-2 64,-6 17,-5 30,-13 38,-25 9,-12 13,-27 13,-44 0,-17 -4,-32 -12,-45 -8,-12 -19,-21 -34,-26 -15,-5 -41,-7 -77,-7l-101 0 0 153zm0 234l126 0c21,0 36,-1 45,-3 16,-3 29,-7 39,-14 10,-6 19,-15 25,-28 7,-12 10,-26 10,-43 0,-18 -4,-35 -14,-49 -10,-14 -23,-24 -40,-29 -17,-6 -42,-9 -74,-9l-117 0 0 175zm406 -446l316 0 0 505 -67 0 0 -446 -182 0 0 260c0,53 -2,92 -7,116 -5,25 -15,44 -31,58 -16,14 -36,20 -61,20 -15,0 -32,-3 -53,-9l12 -59c11,6 20,8 28,8 15,0 27,-5 34,-17 8,-11 11,-38 11,-80l0 -356zm341 505l194 -505 74 0 205 505 -76 0 -58 -153 -213 0 -55 153 -71 0zm146 -208l172 0 -53 -140c-16,-42 -28,-77 -36,-105 -7,33 -16,65 -28,97l-55 148zm695 31l67 17c-14,55 -39,96 -75,125 -37,29 -81,43 -134,43 -54,0 -98,-11 -132,-33 -34,-22 -60,-54 -78,-96 -18,-42 -27,-87 -27,-135 0,-53 10,-99 30,-138 21,-39 49,-69 86,-89 37,-21 78,-31 122,-31 51,0 93,13 128,39 34,26 58,62 72,108l-66 16c-12,-37 -29,-64 -51,-80 -22,-17 -50,-26 -84,-26 -38,0 -71,10 -97,28 -26,19 -44,44 -55,75 -10,32 -16,64 -16,97 0,43 7,81 19,113 13,32 32,56 58,71 27,16 55,24 86,24 37,0 69,-11 95,-32 25,-22 43,-54 52,-96zm225 177l0 -446 -166 0 0 -59 400 0 0 59 -166 0 0 446 -68 0zm275 -505l61 0 0 400 269 -400 66 0 0 505 -61 0 0 -399 -268 399 -67 0 0 -505z"/>
  <path class="fil2 str1" d="M2196 4293c0,-84 22,-149 67,-197 45,-47 104,-71 175,-71 47,0 88,12 126,34 37,22 66,53 86,93 19,40 29,85 29,135 0,51 -10,97 -31,138 -21,40 -50,71 -88,91 -38,21 -79,31 -123,31 -47,0 -90,-11 -127,-34 -38,-23 -66,-54 -85,-94 -20,-40 -29,-82 -29,-126zm69 1c0,61 16,109 49,144 33,35 74,52 123,52 50,0 92,-17 124,-53 33,-35 49,-85 49,-150 0,-41 -7,-77 -21,-107 -14,-31 -34,-55 -61,-71 -27,-17 -57,-26 -90,-26 -47,0 -88,16 -122,49 -34,32 -51,86 -51,162zm471 245l0 -505 190 0c34,0 60,1 77,5 25,4 46,12 63,23 17,12 30,28 40,49 11,21 16,44 16,69 0,42 -14,79 -41,108 -28,30 -77,45 -149,45l-129 0 0 206 -67 0zm67 -265l130 0c44,0 74,-8 92,-24 18,-16 27,-39 27,-68 0,-21 -5,-40 -16,-55 -10,-15 -24,-25 -42,-29 -11,-3 -32,-5 -62,-5l-129 0 0 181zm375 -240l327 0 0 59 -260 0 0 446 -67 0 0 -505zm249 505l194 -505 73 0 206 505 -76 0 -59 -153 -212 0 -55 153 -71 0zm145 -207l173 0 -53 -140c-16,-43 -28,-78 -36,-106 -7,33 -17,65 -28,97l-56 149zm354 207l0 -505 67 0 0 208 262 0 0 -208 67 0 0 505 -67 0 0 -238 -262 0 0 238 -67 0zm481 -505l67 0 0 215 121 0c79,0 130,15 155,44 25,29 38,62 38,99 0,39 -14,74 -40,103 -27,29 -76,44 -149,44l-192 0 0 -505zm67 448l122 0c42,0 72,-7 91,-21 19,-14 29,-37 29,-68 0,-21 -6,-39 -18,-53 -11,-14 -26,-23 -44,-27 -18,-4 -48,-6 -90,-6l-90 0 0 175zm374 -448l67 0 0 505 -67 0 0 -505zm-3087 1136l0 -506 101 0 119 358c11,33 19,58 24,75 6,-19 15,-46 27,-81l122 -352 89 0 0 506 -64 0 0 -423 -147 423 -61 0 -145 -431 0 431 -65 0zm561 0l0 -506 365 0 0 60 -297 0 0 155 278 0 0 59 -278 0 0 172 309 0 0 60 -377 0zm800 -178l67 17c-14,55 -39,97 -75,126 -37,29 -81,43 -134,43 -54,0 -98,-11 -132,-33 -34,-22 -60,-54 -78,-96 -18,-43 -27,-88 -27,-136 0,-52 10,-98 30,-137 20,-40 49,-69 86,-90 37,-20 78,-30 122,-30 51,0 93,13 128,39 34,25 58,61 72,108l-66 15c-12,-36 -29,-63 -51,-80 -22,-17 -50,-25 -84,-25 -39,0 -71,9 -97,28 -26,19 -44,44 -55,75 -10,31 -16,64 -16,97 0,43 7,80 19,112 13,32 32,56 58,72 27,16 55,24 86,24 37,0 69,-11 95,-32 25,-22 43,-54 52,-97zm225 178l0 -446 -166 0 0 -60 400 0 0 60 -167 0 0 446 -67 0zm276 0l0 -506 67 0 0 209 261 0 0 -209 68 0 0 506 -68 0 0 -238 -261 0 0 238 -67 0zm457 -246c0,-84 23,-150 68,-197 45,-47 103,-71 174,-71 47,0 89,11 126,33 38,23 66,54 86,93 20,40 30,85 30,136 0,51 -11,97 -31,137 -21,41 -50,71 -88,92 -38,21 -79,31 -123,31 -48,0 -90,-11 -128,-34 -37,-23 -66,-55 -85,-94 -19,-40 -29,-82 -29,-126zm69 1c0,61 17,109 49,143 33,35 74,53 124,53 50,0 91,-18 124,-53 32,-35 48,-85 48,-150 0,-41 -7,-77 -20,-108 -14,-30 -35,-54 -61,-71 -27,-17 -57,-25 -90,-25 -48,0 -88,16 -122,48 -35,33 -52,87 -52,163zm473 -261l326 0 0 60 -259 0 0 446 -67 0 0 -506zm291 260c0,-84 22,-150 67,-197 45,-47 103,-71 175,-71 46,0 88,11 126,33 37,23 66,54 85,93 20,40 30,85 30,136 0,51 -10,97 -31,137 -21,41 -50,71 -88,92 -38,21 -79,31 -123,31 -47,0 -90,-11 -127,-34 -38,-23 -66,-55 -85,-94 -20,-40 -29,-82 -29,-126zm69 1c0,61 16,109 49,143 33,35 74,53 123,53 50,0 92,-18 124,-53 33,-35 49,-85 49,-150 0,-41 -7,-77 -21,-108 -14,-30 -34,-54 -61,-71 -27,-17 -57,-25 -90,-25 -47,0 -88,16 -122,48 -34,33 -51,87 -51,163zm-4238 698l67 17c-14,55 -39,97 -75,125 -36,29 -81,44 -133,44 -55,0 -99,-11 -133,-34 -34,-22 -60,-54 -78,-96 -18,-42 -27,-87 -27,-135 0,-53 10,-99 31,-138 20,-39 48,-69 85,-89 37,-20 78,-30 123,-30 50,0 93,12 127,38 34,26 58,62 72,109l-66 15c-11,-37 -28,-63 -51,-80 -22,-17 -50,-25 -84,-25 -38,0 -71,9 -97,28 -26,18 -44,43 -54,74 -11,32 -16,64 -16,97 0,43 6,81 18,113 13,32 32,56 59,72 26,16 54,23 85,23 37,0 69,-10 95,-32 26,-21 43,-53 52,-96zm50 177l194 -505 73 0 206 505 -76 0 -59 -153 -213 0 -54 153 -71 0zm145 -207l172 0 -52 -140c-16,-43 -28,-78 -37,-106 -7,33 -16,65 -28,97l-55 149zm350 207l0 -505 100 0 120 358c11,33 19,58 24,74 5,-18 15,-45 27,-81l121 -351 90 0 0 505 -64 0 0 -422 -148 422 -60 0 -146 -430 0 430 -64 0zm539 -246c0,-83 23,-149 68,-196 45,-48 103,-71 174,-71 47,0 89,11 126,33 38,22 66,53 86,93 20,40 30,85 30,135 0,52 -11,97 -32,138 -20,40 -49,71 -87,91 -38,21 -79,32 -123,32 -48,0 -90,-12 -128,-35 -37,-23 -66,-54 -85,-94 -19,-39 -29,-81 -29,-126zm69 1c0,61 17,109 49,144 33,35 74,52 124,52 50,0 91,-17 124,-52 32,-36 48,-86 48,-151 0,-41 -7,-77 -20,-107 -14,-31 -35,-55 -61,-71 -27,-17 -57,-26 -90,-26 -48,0 -88,17 -122,49 -35,33 -52,87 -52,162zm404 -260l68 0 165 311 144 -311 66 0 -189 393c-24,49 -43,81 -59,97 -15,15 -36,22 -65,22 -17,0 -38,-4 -63,-12l0 -57c18,10 37,16 57,16 16,0 30,-6 42,-16 12,-11 25,-34 39,-72l-205 -371zm471 0l397 0 0 505 -67 0 0 -446 -263 0 0 446 -67 0 0 -505zm477 505l0 -505 191 0c33,0 59,2 77,5 25,4 46,12 62,23 17,12 31,28 41,49 10,21 15,44 15,69 0,43 -13,79 -41,109 -27,29 -77,44 -148,44l-130 0 0 206 -67 0zm67 -265l131 0c43,0 74,-8 92,-24 18,-16 27,-39 27,-68 0,-21 -5,-39 -16,-54 -11,-15 -25,-25 -42,-30 -11,-3 -32,-5 -63,-5l-129 0 0 181zm272 265l194 -505 73 0 206 505 -76 0 -59 -153 -212 0 -55 153 -71 0zm145 -207l172 0 -52 -140c-16,-43 -28,-78 -36,-106 -7,33 -17,65 -28,97l-56 149zm349 207l0 -505 189 0c39,0 70,5 93,15 23,11 42,26 55,48 13,21 20,43 20,66 0,22 -6,42 -18,61 -11,19 -29,35 -53,46 31,9 54,25 71,46 16,22 24,47 24,77 0,23 -5,45 -15,66 -10,20 -22,36 -37,47 -14,11 -33,19 -55,25 -22,5 -49,8 -82,8l-192 0zm67 -293l109 0c30,0 51,-2 64,-6 17,-5 30,-13 38,-25 9,-12 13,-26 13,-44 0,-17 -4,-32 -12,-44 -8,-13 -20,-22 -34,-27 -15,-4 -41,-7 -77,-7l-101 0 0 153zm0 234l126 0c21,0 36,-1 45,-3 15,-2 28,-7 39,-13 10,-7 19,-16 25,-29 7,-12 10,-26 10,-42 0,-19 -5,-36 -14,-50 -10,-13 -23,-23 -41,-29 -17,-6 -41,-8 -73,-8l-117 0 0 174zm406 -446l316 0 0 505 -67 0 0 -446 -182 0 0 260c0,53 -2,92 -7,117 -5,24 -16,43 -31,57 -16,14 -37,21 -61,21 -15,0 -32,-3 -53,-10l12 -59c11,6 20,9 28,9 15,0 26,-6 34,-17 7,-12 11,-39 11,-81l0 -356zm398 505l0 -505 365 0 0 59 -298 0 0 155 279 0 0 60 -279 0 0 172 310 0 0 59 -377 0zm443 0l0 -505 67 0 0 208 261 0 0 -208 67 0 0 505 -67 0 0 -238 -261 0 0 238 -67 0zm478 -505l61 0 0 400 269 -400 66 0 0 505 -61 0 0 -399 -268 399 -67 0 0 -505zm876 505l0 -505 -224 0c-45,0 -79,5 -102,14 -24,9 -43,25 -57,48 -14,23 -21,48 -21,76 0,36 12,66 35,90 23,25 59,40 108,47 -18,9 -32,17 -41,25 -19,18 -38,41 -55,68l-87 137 83 0 67 -105c19,-30 35,-54 48,-70 13,-16 24,-27 34,-33 10,-7 20,-11 30,-14 8,-1 20,-2 38,-2l77 0 0 224 67 0zm-67 -282l-144 0c-30,0 -54,-3 -71,-10 -17,-6 -30,-16 -39,-30 -9,-14 -13,-29 -13,-45 0,-24 8,-44 25,-59 18,-16 45,-23 82,-23l160 0 0 167z"/>
  <path class="fil3 str2" d="M14019 6036l61 0 0 400 269 -400 66 0 0 505 -61 0 0 -399 -268 399 -67 0 0 -505zm449 362l64 -16c4,25 17,49 38,73 21,25 49,37 84,37 35,0 63,-9 83,-27 21,-18 31,-40 31,-66 0,-28 -11,-50 -32,-66 -22,-17 -51,-25 -88,-25l-32 0 0 -59c31,0 54,-1 71,-5 16,-3 30,-12 43,-27 12,-15 18,-31 18,-50 0,-22 -8,-41 -25,-57 -17,-16 -40,-24 -69,-24 -26,0 -47,6 -65,19 -18,13 -30,30 -37,51 -7,21 -10,36 -10,47l-65 -15c16,-107 75,-161 177,-161 50,0 89,14 117,41 29,28 44,60 44,96 0,47 -23,84 -67,110 26,7 47,22 65,43 17,22 26,49 26,79 0,44 -17,80 -51,109 -33,30 -78,44 -134,44 -95,0 -157,-50 -186,-151zm427 -362l328 0 0 59 -261 0 0 156 121 0c45,0 80,4 106,13 27,8 48,24 64,48 15,23 23,51 23,82 0,25 -5,49 -17,71 -11,23 -28,41 -51,55 -22,14 -61,21 -115,21l-198 0 0 -505zm67 448l134 0c36,0 63,-8 81,-22 18,-15 27,-37 27,-66 0,-21 -5,-39 -15,-53 -11,-14 -25,-23 -43,-28 -19,-4 -50,-6 -94,-6l-90 0 0 175zm366 -448l60 0 0 400 269 -400 66 0 0 505 -60 0 0 -399 -269 399 -66 0 0 -505zm476 505l0 -505 191 0c33,0 59,1 77,4 24,5 45,12 62,24 17,12 30,28 41,49 10,20 15,43 15,68 0,43 -14,80 -41,109 -27,30 -77,45 -148,45l-130 0 0 206 -67 0zm67 -265l130 0c44,0 74,-8 93,-25 18,-16 27,-38 27,-68 0,-21 -6,-39 -16,-54 -11,-15 -25,-25 -43,-30 -11,-3 -32,-4 -62,-4l-129 0 0 181zm272 265l193 -505 74 0 206 505 -77 0 -58 -153 -213 0 -55 153 -70 0zm145 -208l172 0 -53 -140c-15,-42 -27,-77 -36,-105 -7,33 -16,65 -28,97l-55 148zm424 208l0 -446 -166 0 0 -59 400 0 0 59 -167 0 0 446 -67 0zm275 0l0 -505 365 0 0 59 -298 0 0 155 279 0 0 59 -279 0 0 173 310 0 0 59 -377 0zm477 -505l316 0 0 505 -67 0 0 -446 -182 0 0 260c0,53 -2,92 -7,116 -5,25 -16,44 -31,58 -16,13 -37,20 -61,20 -15,0 -32,-3 -53,-9l12 -59c11,5 20,8 28,8 15,0 26,-5 34,-17 7,-11 11,-38 11,-80l0 -356zm399 0l67 0 0 215 121 0c56,0 97,6 122,19 25,14 43,32 54,54 11,23 17,46 17,70 0,39 -14,73 -40,103 -27,29 -76,44 -149,44l-192 0 0 -505zm67 448l122 0c50,0 82,-9 97,-27 15,-17 23,-38 23,-63 0,-20 -6,-38 -17,-52 -11,-14 -25,-23 -43,-27 -18,-4 -49,-6 -92,-6l-90 0 0 175zm367 57l0 -505 67 0 0 208 261 0 0 -208 67 0 0 505 -67 0 0 -238 -261 0 0 238 -67 0zm481 -505l67 0 0 215 120 0c79,0 131,14 156,44 25,29 37,62 37,99 0,39 -13,73 -40,103 -26,29 -76,44 -148,44l-192 0 0 -505zm67 448l122 0c42,0 72,-7 91,-22 19,-14 28,-36 28,-67 0,-21 -6,-39 -17,-53 -11,-15 -26,-24 -44,-27 -18,-4 -49,-6 -91,-6l-89 0 0 175zm374 -448l67 0 0 505 -67 0 0 -505zm152 505l0 -505 365 0 0 59 -298 0 0 155 279 0 0 59 -279 0 0 173 310 0 0 59 -377 0zm-4378 125l67 0 0 222c31,0 52,-6 65,-18 12,-12 28,-40 47,-86 14,-33 26,-56 35,-70 9,-14 22,-25 39,-35 16,-9 35,-14 55,-14 26,0 39,1 41,1l0 58c-3,0 -7,0 -14,0 -7,-1 -12,-1 -13,-1 -21,0 -37,6 -48,16 -10,10 -22,32 -36,66 -17,43 -31,70 -43,81 -12,11 -26,20 -42,27 33,9 65,39 97,90l104 168 -83 0 -85 -136c-23,-38 -43,-65 -58,-79 -16,-14 -36,-21 -61,-21l0 236 -67 0 0 -505zm352 259c0,-83 23,-149 68,-196 45,-48 103,-71 174,-71 47,0 89,11 126,33 38,22 66,53 86,93 19,40 29,85 29,136 0,51 -10,97 -31,137 -20,40 -50,71 -88,92 -37,21 -78,31 -122,31 -48,0 -90,-12 -128,-35 -37,-23 -66,-54 -85,-94 -19,-39 -29,-81 -29,-126zm69 2c0,60 17,108 49,143 33,35 74,53 123,53 51,0 92,-18 125,-53 32,-35 48,-86 48,-150 0,-42 -7,-77 -21,-108 -13,-31 -34,-54 -61,-71 -26,-17 -56,-25 -90,-25 -47,0 -88,16 -122,48 -34,33 -51,87 -51,163zm470 244l0 -505 100 0 119 358c11,33 19,58 24,75 6,-19 15,-46 27,-81l122 -352 89 0 0 505 -64 0 0 -422 -147 422 -60 0 -146 -430 0 430 -64 0zm561 -505l60 0 0 400 269 -400 66 0 0 505 -60 0 0 -399 -268 399 -67 0 0 -505zm836 328l67 17c-14,55 -39,97 -76,126 -36,28 -80,43 -133,43 -54,0 -98,-11 -133,-33 -34,-23 -60,-55 -77,-97 -18,-42 -27,-87 -27,-135 0,-53 10,-98 30,-138 20,-39 49,-68 86,-89 37,-20 78,-30 122,-30 51,0 93,13 127,38 35,26 59,62 72,109l-65 15c-12,-36 -29,-63 -51,-80 -22,-17 -50,-25 -84,-25 -39,0 -71,9 -97,28 -26,18 -45,43 -55,75 -11,31 -16,63 -16,97 0,43 6,80 19,112 12,32 32,56 58,72 26,16 55,24 86,24 37,0 68,-11 94,-33 26,-21 44,-53 53,-96zm480 0l67 17c-14,55 -39,97 -75,126 -37,28 -81,43 -134,43 -54,0 -98,-11 -132,-33 -35,-23 -60,-55 -78,-97 -18,-42 -27,-87 -27,-135 0,-53 10,-98 30,-138 20,-39 49,-68 86,-89 37,-20 78,-30 122,-30 51,0 93,13 128,38 34,26 58,62 72,109l-66 15c-12,-36 -29,-63 -51,-80 -22,-17 -50,-25 -84,-25 -39,0 -71,9 -97,28 -26,18 -44,43 -55,75 -10,31 -16,63 -16,97 0,43 7,80 19,112 12,32 32,56 58,72 27,16 55,24 86,24 37,0 69,-11 94,-33 26,-21 44,-53 53,-96zm122 -328l60 0 0 400 269 -400 67 0 0 505 -61 0 0 -399 -268 399 -67 0 0 -505zm477 0l61 0 0 400 269 -400 66 0 0 505 -60 0 0 -399 -269 399 -67 0 0 -505z"/>
  <path class="fil4 str3" d="M11027 15367c0,-83 23,-149 68,-196 45,-48 103,-71 174,-71 47,0 89,11 126,33 38,22 66,53 86,93 19,40 29,85 29,136 0,51 -10,97 -31,137 -20,40 -50,71 -88,92 -38,20 -78,31 -122,31 -48,0 -90,-12 -128,-35 -37,-23 -66,-54 -85,-94 -19,-39 -29,-81 -29,-126zm69 2c0,60 17,108 49,143 33,35 74,53 123,53 51,0 92,-18 124,-53 33,-36 49,-86 49,-151 0,-41 -7,-76 -21,-107 -14,-31 -34,-54 -61,-71 -26,-17 -56,-25 -90,-25 -47,0 -88,16 -122,48 -34,33 -51,87 -51,163zm471 244l0 -505 191 0c33,0 59,2 77,5 24,4 45,12 62,23 17,12 30,28 41,49 10,21 15,44 15,69 0,43 -14,79 -41,109 -27,29 -77,44 -149,44l-129 0 0 206 -67 0zm67 -265l130 0c44,0 74,-8 93,-24 18,-16 27,-39 27,-68 0,-21 -6,-39 -16,-54 -11,-15 -25,-25 -43,-30 -11,-3 -32,-5 -62,-5l-129 0 0 181zm376 -240l326 0 0 59 -259 0 0 446 -67 0 0 -505zm248 505l194 -505 74 0 205 505 -76 0 -58 -153 -213 0 -55 153 -71 0zm146 -207l172 0 -53 -140c-16,-43 -28,-78 -36,-106 -7,33 -16,66 -28,98l-55 148zm354 207l0 -505 67 0 0 208 261 0 0 -208 67 0 0 505 -67 0 0 -237 -261 0 0 237 -67 0zm478 -505l61 0 0 400 269 -400 66 0 0 505 -61 0 0 -399 -268 399 -67 0 0 -505zm449 363l64 -16c5,24 17,48 38,73 21,24 49,37 84,37 35,0 63,-9 83,-28 21,-18 31,-40 31,-66 0,-27 -11,-49 -32,-66 -22,-16 -51,-25 -88,-25l-32 0 0 -58c31,0 54,-2 71,-5 16,-4 30,-13 43,-28 12,-14 18,-31 18,-49 0,-22 -8,-41 -25,-57 -17,-17 -40,-25 -69,-25 -26,0 -47,7 -65,19 -18,13 -30,30 -37,51 -7,21 -10,37 -10,47l-65 -14c16,-108 75,-161 177,-161 50,0 89,13 117,41 29,27 44,59 44,96 0,47 -23,83 -67,109 26,7 47,22 65,44 17,22 26,48 26,79 0,43 -17,80 -51,109 -33,29 -78,44 -134,44 -95,0 -157,-51 -186,-151zm369 142l194 -505 73 0 206 505 -76 0 -58 -153 -213 0 -55 153 -71 0zm145 -207l173 0 -53 -140c-16,-43 -28,-78 -36,-106 -7,33 -17,66 -28,98l-56 148zm353 -298l67 0 0 446 263 0 0 -446 67 0 0 446 45 0 0 200 -59 0 0 -141 -383 0 0 -505zm493 0l60 0 0 400 269 -400 66 0 0 505 -60 0 0 -399 -269 399 -66 0 0 -505zm477 0l61 0 0 400 269 -400 66 0 0 505 -60 0 0 -399 -269 399 -67 0 0 -505zm485 505l0 -70 71 0 0 70c0,26 -5,47 -14,63 -9,16 -24,29 -44,38l-17 -27c13,-6 23,-15 29,-26 6,-11 10,-27 10,-48l-35 0zm-5875 385c0,-84 22,-149 67,-197 45,-47 104,-71 175,-71 47,0 89,11 126,34 37,22 66,53 86,93 19,40 29,85 29,135 0,51 -10,97 -31,137 -21,41 -50,72 -88,92 -38,21 -79,31 -123,31 -47,0 -90,-11 -127,-34 -37,-23 -66,-54 -85,-94 -20,-40 -29,-82 -29,-126zm69 1c0,61 16,109 49,144 33,35 74,52 123,52 50,0 92,-17 124,-53 33,-35 49,-85 49,-150 0,-41 -7,-77 -21,-107 -14,-31 -34,-55 -61,-72 -27,-16 -57,-25 -90,-25 -47,0 -88,16 -122,49 -34,32 -51,86 -51,162zm831 68l67 17c-14,55 -40,96 -76,125 -36,29 -81,43 -133,43 -55,0 -99,-11 -133,-33 -34,-22 -60,-54 -78,-96 -17,-42 -26,-87 -26,-135 0,-53 10,-99 30,-138 20,-39 48,-69 85,-89 38,-21 78,-31 123,-31 50,0 93,13 127,39 35,26 59,62 72,108l-66 16c-11,-37 -28,-64 -50,-80 -23,-17 -51,-26 -84,-26 -39,0 -72,10 -98,28 -26,19 -44,44 -54,75 -11,32 -16,64 -16,97 0,43 6,81 19,113 12,32 31,56 58,71 26,16 55,24 85,24 38,0 69,-11 95,-32 26,-22 43,-54 53,-96zm45 -328l68 0 165 310 144 -310 66 0 -190 393c-23,49 -43,81 -58,96 -15,15 -37,23 -65,23 -17,0 -38,-4 -63,-12l0 -57c18,10 37,15 57,15 16,0 30,-5 42,-15 12,-11 25,-35 39,-72l-205 -371zm472 0l67 0 0 446 167 0 0 -446 67 0 0 446 167 0 0 -446 67 0 0 446 45 0 0 199 -59 0 0 -140 -521 0 0 -505zm632 505l0 -505 365 0 0 59 -298 0 0 155 279 0 0 59 -279 0 0 173 310 0 0 59 -377 0zm799 -177l67 17c-14,55 -39,96 -75,125 -36,29 -81,43 -133,43 -55,0 -99,-11 -133,-33 -34,-22 -60,-54 -78,-96 -18,-42 -26,-87 -26,-135 0,-53 10,-99 30,-138 20,-39 48,-69 85,-89 37,-21 78,-31 123,-31 50,0 93,13 127,39 34,26 58,62 72,108l-66 16c-11,-37 -28,-64 -51,-80 -22,-17 -50,-26 -84,-26 -38,0 -71,10 -97,28 -26,19 -44,44 -54,75 -11,32 -16,64 -16,97 0,43 6,81 18,113 13,32 32,56 59,71 26,16 54,24 85,24 37,0 69,-11 95,-32 26,-22 43,-54 52,-96zm226 177l0 -446 -167 0 0 -59 400 0 0 59 -166 0 0 446 -67 0zm270 0l0 -505 190 0c38,0 69,5 93,15 23,10 41,26 54,47 13,21 20,44 20,67 0,21 -6,42 -17,61 -12,19 -30,34 -53,46 30,9 54,24 70,46 17,21 25,47 25,76 0,24 -5,46 -15,66 -10,21 -23,36 -37,47 -15,11 -33,20 -56,25 -22,6 -49,9 -81,9l-193 0zm67 -293l109 0c30,0 51,-2 64,-6 17,-5 30,-13 39,-25 8,-12 12,-27 12,-44 0,-17 -4,-32 -12,-45 -8,-12 -19,-21 -34,-26 -15,-5 -41,-7 -77,-7l-101 0 0 153zm0 234l126 0c22,0 37,-1 46,-3 15,-3 28,-7 38,-14 10,-6 19,-15 26,-28 6,-12 10,-26 10,-43 0,-18 -5,-35 -15,-49 -10,-14 -23,-24 -40,-29 -17,-6 -42,-9 -74,-9l-117 0 0 175zm407 -446l315 0 0 505 -67 0 0 -446 -181 0 0 260c0,53 -3,92 -8,116 -5,25 -15,44 -31,58 -16,14 -36,20 -60,20 -15,0 -33,-3 -54,-9l12 -59c11,6 21,8 28,8 15,0 27,-5 34,-17 8,-11 12,-38 12,-80l0 -356zm795 505l0 -505 -224 0c-45,0 -79,4 -102,13 -24,9 -42,25 -56,48 -14,23 -21,49 -21,76 0,36 11,67 34,91 24,25 59,40 108,47 -18,8 -31,17 -40,25 -20,18 -38,40 -56,67l-87 138 83 0 67 -105c20,-31 36,-54 48,-70 13,-16 24,-27 34,-34 10,-6 20,-11 31,-13 7,-2 20,-2 37,-2l77 0 0 224 67 0zm-67 -282l-143 0c-31,0 -55,-4 -72,-10 -17,-6 -30,-16 -39,-30 -9,-14 -13,-29 -13,-45 0,-24 8,-44 26,-59 17,-16 44,-24 82,-24l159 0 0 168zm151 -223l67 0 0 226 97 0c5,-71 28,-128 71,-171 42,-42 94,-64 156,-64 66,0 120,23 164,70 43,46 64,109 64,189 0,82 -21,147 -64,193 -43,47 -99,70 -166,70 -61,0 -112,-20 -152,-60 -41,-41 -65,-96 -72,-168l-98 0 0 220 -67 0 0 -505zm231 255c0,64 14,113 44,148 29,36 67,53 115,53 49,0 88,-17 117,-53 29,-35 43,-86 43,-152 0,-63 -14,-113 -43,-149 -28,-36 -67,-54 -116,-54 -49,0 -89,18 -117,55 -29,36 -43,87 -43,152zm451 -255l67 0 0 446 167 0 0 -446 67 0 0 446 167 0 0 -446 67 0 0 446 46 0 0 199 -60 0 0 -140 -521 0 0 -505zm632 0l61 0 0 400 269 -400 66 0 0 505 -61 0 0 -399 -268 399 -67 0 0 -505zm478 505l0 -505 365 0 0 59 -298 0 0 155 278 0 0 59 -278 0 0 173 310 0 0 59 -377 0zm-4415 630l0 -505 190 0c38,0 69,5 93,16 23,10 41,26 54,47 14,21 20,43 20,67 0,21 -6,41 -17,60 -12,19 -30,35 -53,47 30,9 54,24 70,46 17,21 25,47 25,76 0,24 -5,46 -15,66 -10,20 -23,36 -37,47 -15,11 -33,19 -55,25 -23,6 -50,8 -82,8l-193 0zm67 -292l109 0c30,0 51,-2 64,-6 17,-5 30,-14 39,-25 8,-12 13,-27 13,-45 0,-17 -4,-31 -13,-44 -8,-13 -19,-22 -34,-26 -15,-5 -41,-7 -77,-7l-101 0 0 153zm0 233l126 0c22,0 37,-1 46,-2 15,-3 28,-8 38,-14 11,-6 19,-16 26,-28 6,-13 10,-27 10,-43 0,-19 -5,-35 -15,-49 -9,-14 -23,-24 -40,-30 -17,-5 -42,-8 -74,-8l-117 0 0 174zm381 -446l67 0 0 215 120 0c79,0 131,15 156,44 25,30 37,63 37,100 0,39 -13,73 -40,102 -27,30 -76,44 -148,44l-192 0 0 -505zm67 448l122 0c41,0 72,-7 91,-21 19,-14 28,-37 28,-68 0,-21 -6,-38 -17,-53 -12,-14 -26,-23 -44,-27 -18,-4 -49,-6 -91,-6l-89 0 0 175zm374 -448l67 0 0 505 -67 0 0 -505zm151 0l397 0 0 505 -67 0 0 -445 -263 0 0 445 -67 0 0 -505zm426 0l67 0 166 311 144 -311 65 0 -189 393c-23,49 -43,82 -58,97 -15,15 -37,23 -65,23 -17,0 -38,-4 -63,-12l0 -58c18,11 37,16 57,16 16,0 30,-5 42,-16 11,-10 24,-34 39,-71l-205 -372zm830 328l67 17c-14,55 -39,97 -76,126 -36,28 -80,43 -133,43 -54,0 -98,-11 -133,-33 -34,-22 -59,-55 -77,-97 -18,-42 -27,-87 -27,-135 0,-52 10,-98 30,-137 20,-40 49,-69 86,-90 37,-20 78,-30 122,-30 51,0 93,13 128,38 34,26 58,62 72,109l-66 15c-12,-36 -29,-63 -51,-80 -22,-17 -50,-25 -84,-25 -39,0 -71,9 -97,28 -26,18 -44,43 -55,75 -10,31 -16,63 -16,97 0,43 6,80 19,112 12,32 32,56 58,72 26,16 55,24 86,24 37,0 69,-11 94,-33 26,-21 44,-53 53,-96zm122 -328l67 0 0 222c30,0 52,-6 64,-18 12,-12 28,-40 48,-86 14,-33 25,-56 34,-70 9,-14 22,-25 39,-34 17,-10 35,-14 56,-14 25,0 39,0 40,0l0 58c-2,0 -7,0 -13,0 -8,0 -12,-1 -14,-1 -21,0 -37,6 -47,16 -11,10 -23,32 -36,66 -17,43 -32,70 -43,81 -12,11 -26,20 -42,27 32,9 64,39 96,90l104 168 -83 0 -85 -136c-23,-38 -42,-64 -58,-79 -15,-14 -35,-21 -60,-21l0 236 -67 0 0 -505zm-1412 959l67 17c-14,55 -39,96 -75,125 -37,29 -81,44 -134,44 -54,0 -98,-12 -132,-34 -34,-22 -60,-54 -78,-96 -18,-42 -27,-87 -27,-135 0,-53 10,-99 30,-138 20,-39 49,-69 86,-89 37,-20 78,-31 122,-31 51,0 93,13 128,39 34,26 58,62 72,108l-66 16c-12,-37 -29,-64 -51,-80 -22,-17 -50,-25 -84,-25 -39,0 -71,9 -97,27 -26,19 -44,44 -55,75 -10,32 -16,64 -16,97 0,43 7,81 19,113 13,32 32,56 58,72 27,15 55,23 86,23 37,0 69,-10 95,-32 25,-22 43,-54 52,-96zm111 177l0 -505 100 0 120 357c11,34 19,59 24,75 6,-18 15,-45 27,-81l121 -351 90 0 0 505 -64 0 0 -423 -148 423 -60 0 -146 -430 0 430 -64 0zm561 -505l61 0 0 400 269 -400 66 0 0 505 -61 0 0 -399 -268 399 -67 0 0 -505z"/>
  <path class="fil5 str4" d="M15293 11889l0 -505 190 0c34,0 60,2 77,5 25,4 46,12 63,24 17,11 30,27 40,48 11,21 16,44 16,69 0,43 -14,79 -41,109 -28,30 -77,44 -149,44l-129 0 0 206 -67 0zm67 -265l130 0c43,0 74,-8 92,-24 18,-16 27,-39 27,-68 0,-21 -5,-39 -16,-54 -10,-15 -24,-25 -42,-30 -11,-3 -32,-5 -62,-5l-129 0 0 181zm375 265l0 -505 365 0 0 59 -298 0 0 156 279 0 0 59 -279 0 0 172 310 0 0 59 -377 0zm486 -505l308 0 0 446 45 0 0 177 -60 0 0 -118 -334 0 0 118 -59 0 0 -177 39 0c40,-61 61,-185 61,-372l0 -74zm241 59l-177 0 0 26c0,43 -4,102 -12,177 -7,75 -22,136 -45,184l234 0 0 -387zm106 446l194 -505 73 0 206 505 -76 0 -59 -153 -212 0 -55 153 -71 0zm145 -207l173 0 -53 -140c-16,-43 -28,-78 -36,-106 -7,33 -17,66 -28,98l-56 148zm353 -298l67 0 0 222c31,0 52,-6 64,-18 13,-12 29,-40 48,-86 14,-33 25,-56 35,-70 9,-14 22,-25 38,-34 17,-10 36,-14 56,-14 26,0 39,0 41,0l0 58c-3,0 -7,0 -14,0 -7,-1 -12,-1 -13,-1 -22,0 -37,6 -48,16 -10,10 -22,32 -36,66 -17,43 -31,70 -43,81 -12,11 -26,20 -42,27 33,9 65,39 96,90l105 168 -83 0 -85 -136c-23,-38 -43,-65 -58,-79 -16,-14 -36,-21 -61,-21l0 236 -67 0 0 -505zm382 0l67 0 0 446 262 0 0 -446 67 0 0 446 46 0 0 200 -59 0 0 -141 -383 0 0 -505zm492 0l61 0 0 400 269 -400 66 0 0 505 -61 0 0 -399 -268 399 -67 0 0 -505zm478 0l61 0 0 400 269 -400 66 0 0 505 -61 0 0 -399 -268 399 -67 0 0 -505zm-2586 959l67 17c-14,55 -39,96 -75,125 -36,29 -81,43 -133,43 -55,0 -99,-11 -133,-33 -34,-22 -60,-54 -78,-96 -18,-42 -26,-87 -26,-135 0,-53 9,-99 30,-138 20,-39 48,-69 85,-89 37,-21 78,-31 123,-31 50,0 93,13 127,39 34,26 58,62 72,108l-66 16c-11,-37 -28,-64 -51,-80 -22,-17 -50,-26 -84,-26 -38,0 -71,10 -97,28 -26,19 -44,44 -54,75 -11,32 -16,64 -16,97 0,43 6,81 18,113 13,32 32,56 59,72 26,15 54,23 85,23 37,0 69,-11 95,-32 26,-22 43,-54 52,-96zm122 177l0 -505 365 0 0 59 -298 0 0 155 279 0 0 60 -279 0 0 172 310 0 0 59 -377 0zm568 0l0 -446 -166 0 0 -59 400 0 0 59 -167 0 0 446 -67 0zm275 0l0 -505 365 0 0 59 -298 0 0 155 279 0 0 60 -279 0 0 172 310 0 0 59 -377 0zm437 0l0 -505 189 0c39,0 70,5 93,15 24,10 42,26 55,47 13,22 20,44 20,67 0,22 -6,42 -18,61 -11,19 -29,34 -53,46 31,9 55,24 71,46 16,22 25,47 25,76 0,24 -5,46 -15,67 -10,20 -23,36 -38,47 -14,11 -33,19 -55,25 -22,5 -49,8 -81,8l-193 0zm67 -293l109 0c30,0 51,-2 64,-6 17,-5 30,-13 38,-25 9,-12 13,-26 13,-44 0,-17 -4,-32 -12,-45 -8,-12 -19,-21 -34,-26 -15,-5 -41,-7 -77,-7l-101 0 0 153zm0 234l126 0c21,0 37,-1 45,-3 16,-2 29,-7 39,-14 10,-6 19,-15 25,-28 7,-12 10,-26 10,-42 0,-19 -4,-36 -14,-50 -10,-14 -23,-23 -40,-29 -17,-6 -42,-9 -74,-9l-117 0 0 175zm380 -446l67 0 0 215 121 0c79,0 131,15 155,44 25,29 38,62 38,99 0,39 -14,74 -40,103 -27,29 -76,44 -149,44l-192 0 0 -505zm67 448l122 0c42,0 73,-7 91,-21 19,-14 29,-37 29,-68 0,-21 -6,-39 -17,-53 -12,-14 -27,-23 -45,-27 -18,-4 -48,-6 -90,-6l-90 0 0 175zm374 -448l67 0 0 505 -67 0 0 -505zm100 505l195 -262 -172 -243 80 0 92 129c19,27 32,47 40,62 11,-18 25,-37 40,-57l101 -134 73 0 -175 240 189 265 -82 0 -128 -180c-7,-10 -14,-21 -21,-31 -11,17 -19,29 -24,36l-128 175 -80 0zm-2727 125l61 0 0 400 269 -400 66 0 0 506 -61 0 0 -399 -268 399 -67 0 0 -506zm449 363l63 -16c5,24 18,49 39,73 21,25 49,37 83,37 36,0 64,-9 84,-27 20,-19 31,-41 31,-66 0,-28 -11,-50 -33,-67 -21,-16 -50,-24 -87,-24l-32 0 0 -59c31,0 54,-2 70,-5 16,-4 31,-13 43,-27 13,-15 19,-31 19,-50 0,-22 -9,-41 -26,-57 -17,-16 -40,-25 -69,-25 -25,0 -47,7 -64,20 -18,12 -31,29 -38,50 -6,21 -10,37 -10,48l-64 -15c16,-107 75,-161 177,-161 49,0 88,14 117,41 29,27 43,59 43,96 0,47 -22,84 -66,110 25,7 47,21 64,43 18,22 26,48 26,79 0,43 -17,80 -50,109 -34,29 -78,44 -134,44 -95,0 -157,-50 -186,-151zm470 -363l308 0 0 446 45 0 0 177 -60 0 0 -117 -334 0 0 117 -59 0 0 -177 39 0c40,-61 61,-185 61,-372l0 -74zm241 60l-177 0 0 26c0,43 -4,101 -11,176 -8,75 -23,136 -46,184l234 0 0 -386zm106 446l194 -506 73 0 206 506 -76 0 -58 -154 -213 0 -55 154 -71 0zm145 -208l173 0 -53 -140c-16,-43 -28,-78 -36,-105 -7,33 -17,65 -28,97l-56 148zm355 208l0 -506 67 0 0 209 261 0 0 -209 67 0 0 506 -67 0 0 -238 -261 0 0 238 -67 0zm478 -506l61 0 0 400 269 -400 66 0 0 506 -61 0 0 -399 -268 399 -67 0 0 -506zm478 0l61 0 0 400 269 -400 66 0 0 506 -61 0 0 -399 -268 399 -67 0 0 -506zm252 -121l42 0c-3,29 -14,51 -31,67 -18,16 -41,23 -71,23 -29,0 -53,-7 -70,-23 -18,-15 -28,-38 -32,-67l43 0c3,16 9,28 19,36 9,7 22,11 38,11 19,0 33,-3 43,-11 9,-8 16,-20 19,-36z"/>
  <path class="fil6 str5" d="M3146 14534l0 -64 63 0 0 64c64,3 115,23 152,58 38,35 56,79 56,132 0,51 -18,95 -54,131 -36,36 -87,56 -154,59l0 65 -63 0 0 -65c-59,-2 -109,-20 -149,-55 -40,-34 -60,-79 -60,-135 0,-57 20,-102 60,-136 40,-33 89,-52 149,-54zm63 57l0 266c43,-2 77,-15 102,-38 25,-23 37,-55 37,-95 0,-40 -12,-71 -36,-94 -25,-24 -59,-36 -103,-39zm-63 1c-41,2 -75,14 -101,37 -25,22 -38,54 -38,95 0,40 12,72 38,95 25,23 59,35 101,37l0 -264zm326 -118l61 0 0 400 269 -400 66 0 0 505 -61 0 0 -399 -268 399 -67 0 0 -505zm449 363l63 -17c5,25 18,49 39,74 21,24 49,36 84,36 35,0 63,-9 83,-27 20,-18 31,-40 31,-66 0,-28 -11,-50 -32,-66 -22,-17 -51,-25 -88,-25l-32 0 0 -58c31,0 54,-2 70,-6 16,-3 31,-12 43,-27 13,-14 19,-31 19,-49 0,-22 -8,-41 -26,-58 -16,-16 -40,-24 -68,-24 -26,0 -47,6 -65,19 -18,13 -31,30 -38,51 -6,21 -10,37 -10,47l-64 -15c16,-107 75,-161 177,-161 49,0 88,14 117,42 29,27 43,59 43,96 0,47 -22,83 -66,109 25,7 47,22 64,44 18,22 26,48 26,78 0,44 -17,80 -50,110 -34,29 -78,44 -134,44 -95,0 -157,-51 -186,-151zm426 -363l60 0 0 400 269 -400 66 0 0 505 -60 0 0 -399 -269 399 -66 0 0 -505zm836 505l-67 0 0 -203c-60,22 -112,33 -157,33 -35,0 -66,-8 -93,-25 -27,-16 -45,-37 -54,-62 -9,-26 -14,-59 -14,-99l0 -149 67 0 0 142c0,55 10,92 30,109 20,17 45,26 73,26 47,0 97,-10 148,-31l0 -246 67 0 0 505zm82 0l0 -505 365 0 0 59 -298 0 0 155 279 0 0 60 -279 0 0 172 310 0 0 59 -377 0zm800 -177l67 17c-14,55 -39,96 -76,125 -36,29 -80,44 -133,44 -54,0 -99,-12 -133,-34 -34,-22 -60,-54 -77,-96 -18,-42 -27,-87 -27,-135 0,-53 10,-99 30,-138 20,-39 49,-69 86,-89 37,-20 78,-31 122,-31 51,0 93,13 127,39 35,26 59,62 72,108l-65 16c-12,-37 -29,-64 -51,-80 -22,-17 -50,-25 -84,-25 -39,0 -71,9 -97,27 -26,19 -45,44 -55,75 -11,32 -16,64 -16,97 0,43 6,81 19,113 12,32 32,56 58,72 26,16 55,23 85,23 38,0 69,-10 95,-32 26,-22 44,-54 53,-96zm122 -328l67 0 0 221c30,0 52,-6 64,-17 12,-12 28,-41 47,-86 14,-33 26,-57 35,-70 9,-14 22,-26 39,-35 17,-9 35,-14 55,-14 26,0 40,0 41,1l0 58c-2,0 -7,0 -13,-1 -8,0 -12,0 -14,0 -21,0 -37,5 -47,16 -11,10 -23,32 -37,66 -17,43 -31,70 -43,81 -11,11 -25,20 -42,26 33,9 65,40 97,91l104 168 -83 0 -85 -137c-23,-38 -42,-64 -58,-78 -16,-14 -36,-21 -60,-21l0 236 -67 0 0 -505zm381 0l61 0 0 400 269 -400 66 0 0 505 -61 0 0 -399 -268 399 -67 0 0 -505zm478 505l0 -505 365 0 0 59 -298 0 0 155 279 0 0 60 -279 0 0 172 310 0 0 59 -377 0zm-2707 125l316 0 0 506 -67 0 0 -446 -182 0 0 260c0,53 -2,92 -7,116 -5,25 -15,44 -31,58 -16,13 -36,20 -61,20 -14,0 -32,-3 -53,-9l12 -59c11,5 20,8 28,8 15,0 27,-6 34,-17 8,-11 11,-38 11,-80l0 -357zm398 0l61 0 0 401 269 -401 66 0 0 506 -61 0 0 -399 -268 399 -67 0 0 -506zm478 0l67 0 0 446 262 0 0 -446 67 0 0 446 46 0 0 200 -59 0 0 -140 -383 0 0 -506zm436 506l193 -506 74 0 206 506 -77 0 -58 -153 -213 0 -54 153 -71 0zm145 -208l172 0 -53 -140c-15,-42 -27,-78 -36,-105 -7,33 -16,65 -28,97l-55 148z"/>
  <path class="fil7 str6" d="M369 10734l67 0 0 227 98 0c5,-72 28,-129 70,-171 42,-43 95,-64 157,-64 66,0 120,23 163,69 43,47 65,110 65,189 0,83 -22,147 -65,194 -43,46 -98,70 -165,70 -61,0 -112,-20 -153,-61 -40,-40 -64,-96 -71,-167l-99 0 0 219 -67 0 0 -505zm231 255c0,64 15,114 44,149 29,35 68,53 115,53 49,0 88,-18 117,-53 29,-36 44,-87 44,-153 0,-63 -15,-112 -43,-149 -29,-36 -67,-54 -116,-54 -50,0 -89,18 -118,55 -29,37 -43,87 -43,152zm450 250l0 -505 191 0c33,0 59,2 77,5 25,4 45,12 62,23 17,12 30,28 41,49 10,21 15,44 15,69 0,43 -14,79 -41,109 -27,29 -77,44 -148,44l-130 0 0 206 -67 0zm67 -265l131 0c43,0 73,-8 92,-24 18,-16 27,-39 27,-68 0,-21 -5,-39 -16,-54 -11,-15 -25,-25 -42,-30 -12,-3 -32,-5 -63,-5l-129 0 0 181zm376 -240l60 0 0 400 269 -400 66 0 0 505 -60 0 0 -399 -268 399 -67 0 0 -505zm522 0l308 0 0 446 45 0 0 177 -60 0 0 -118 -334 0 0 118 -59 0 0 -177 39 0c40,-61 61,-185 61,-372l0 -74zm241 59l-177 0 0 26c0,43 -4,102 -12,177 -7,75 -22,136 -45,184l234 0 0 -387zm163 -59l61 0 0 400 268 -400 67 0 0 505 -61 0 0 -399 -268 399 -67 0 0 -505zm837 505l-67 0 0 -203c-60,22 -113,33 -158,33 -35,0 -66,-8 -93,-24 -27,-17 -45,-38 -54,-63 -9,-25 -13,-58 -13,-99l0 -149 67 0 0 143c0,55 10,91 30,108 20,18 44,26 72,26 47,0 97,-10 149,-31l0 -246 67 0 0 505zm81 0l0 -505 365 0 0 59 -297 0 0 156 278 0 0 59 -278 0 0 172 309 0 0 59 -377 0zm800 -177l67 17c-14,55 -39,97 -75,125 -37,29 -81,44 -134,44 -54,0 -98,-11 -132,-34 -34,-22 -60,-54 -78,-96 -18,-42 -27,-87 -27,-135 0,-53 10,-98 30,-138 20,-39 49,-69 86,-89 37,-20 78,-30 122,-30 51,0 93,12 128,38 34,26 58,62 72,109l-66 15c-12,-37 -29,-63 -51,-80 -22,-17 -50,-25 -84,-25 -39,0 -71,9 -97,28 -26,18 -44,43 -55,75 -10,31 -16,63 -16,97 0,43 7,80 19,112 13,32 32,56 58,72 27,16 55,24 86,24 37,0 69,-11 95,-33 25,-21 43,-53 52,-96zm122 -328l67 0 0 222c30,0 52,-6 64,-18 13,-12 28,-41 48,-86 14,-33 25,-56 34,-70 9,-14 22,-25 39,-35 17,-9 35,-14 56,-14 25,0 39,1 40,1l0 58c-2,0 -6,0 -13,0 -7,-1 -12,-1 -14,-1 -21,0 -37,5 -47,16 -11,10 -23,32 -36,66 -17,43 -32,70 -43,81 -12,11 -26,20 -42,27 32,9 64,39 96,90l104 168 -83 0 -85 -137c-23,-38 -42,-64 -58,-78 -15,-14 -35,-21 -60,-21l0 236 -67 0 0 -505zm381 0l61 0 0 400 269 -400 66 0 0 505 -60 0 0 -399 -269 399 -67 0 0 -505zm478 505l0 -505 365 0 0 59 -298 0 0 156 279 0 0 59 -279 0 0 172 310 0 0 59 -377 0zm-3041 126l315 0 0 505 -67 0 0 -446 -181 0 0 260c0,53 -2,92 -7,116 -5,25 -16,44 -32,58 -15,14 -36,20 -60,20 -15,0 -33,-3 -53,-9l12 -59c11,6 20,8 28,8 15,0 26,-5 34,-17 7,-11 11,-38 11,-80l0 -356zm398 0l60 0 0 400 269 -400 67 0 0 505 -61 0 0 -399 -268 399 -67 0 0 -505zm478 0l67 0 0 446 262 0 0 -446 67 0 0 446 46 0 0 199 -59 0 0 -140 -383 0 0 -505zm435 505l194 -505 74 0 205 505 -76 0 -58 -153 -213 0 -55 153 -71 0zm146 -208l172 0 -53 -140c-16,-42 -28,-77 -36,-105 -7,33 -16,65 -28,97l-55 148z"/>
  <path class="fil8" d="M12224 11787c-145,0 -282,-3 -409,-8l0 -2c126,5 264,8 409,8 596,0 1079,-49 1079,-109 0,-27 -103,-53 -273,-72 1,-1 1,-2 1,-3 183,20 294,46 294,75 0,62 -493,111 -1101,111z"/>
  <path class="fil9" d="M12224 11785c-145,0 -283,-3 -409,-8l0 -2c126,5 264,8 409,8 583,0 1056,-48 1056,-107 0,-26 -94,-50 -251,-69 1,-1 1,-2 1,-3 170,19 273,45 273,72 0,60 -483,109 -1079,109z"/>
  <path class="fil10" d="M12224 11783c-145,0 -283,-3 -409,-8l0 -3c126,5 264,8 409,8 571,0 1033,-46 1033,-104 0,-24 -85,-47 -229,-65 1,-1 1,-2 1,-4 157,19 251,43 251,69 0,59 -473,107 -1056,107z"/>
  <path class="fil11" d="M12224 11780c-145,0 -283,-3 -409,-8l0 -3c125,6 263,9 409,9 558,0 1011,-46 1011,-102 0,-23 -78,-44 -208,-61 1,-2 1,-3 1,-4 144,18 229,41 229,65 0,58 -462,104 -1033,104z"/>
  <path class="fil12" d="M12224 11778c-146,0 -284,-3 -409,-9l0 -2c125,6 263,9 409,9 546,0 988,-45 988,-100 0,-21 -69,-41 -186,-58 0,-1 1,-2 1,-3 130,17 208,38 208,61 0,56 -453,102 -1011,102z"/>
  <path class="fil13" d="M12224 11776c-146,0 -284,-3 -409,-9l0 -2c124,5 263,9 409,9 533,0 966,-44 966,-98 0,-20 -61,-39 -166,-54 1,-1 1,-3 2,-4 117,17 186,37 186,58 0,55 -442,100 -988,100z"/>
  <path class="fil14" d="M12224 11774c-146,0 -285,-4 -409,-9l0 -3c124,6 262,9 409,9 521,0 943,-42 943,-95 0,-18 -53,-36 -145,-50 1,-2 1,-3 2,-4 105,15 166,34 166,54 0,54 -433,98 -966,98z"/>
  <path class="fil15" d="M12224 11771c-147,0 -285,-3 -409,-9l0 -3c123,7 262,10 409,10 508,0 920,-41 920,-93 0,-17 -45,-33 -124,-46 1,-2 1,-3 2,-4 92,14 145,32 145,50 0,53 -422,95 -943,95z"/>
  <path class="fil16" d="M12224 11769c-147,0 -286,-3 -409,-10l0 -2c123,6 262,10 409,10 495,0 898,-41 898,-91 0,-15 -38,-29 -105,-42 1,-1 2,-3 3,-4 79,13 124,29 124,46 0,52 -412,93 -920,93z"/>
  <path class="fil17" d="M12224 11767c-147,0 -286,-4 -409,-10l0 -3c122,7 261,10 409,10 483,0 875,-39 875,-88 0,-13 -30,-26 -85,-37 1,-2 2,-3 3,-5 67,13 105,27 105,42 0,50 -403,91 -898,91z"/>
  <path class="fil18" d="M12224 11764c-148,0 -287,-3 -409,-10l0 -2c122,6 261,10 409,10 471,0 852,-38 852,-86 0,-11 -23,-23 -65,-33 1,-1 2,-3 3,-4 55,11 85,24 85,37 0,49 -392,88 -875,88z"/>
  <path class="fil19" d="M12224 11762c-148,0 -287,-4 -409,-10l0 -3c121,7 260,11 409,11 458,0 830,-37 830,-84 0,-9 -17,-19 -47,-28 1,-1 2,-3 4,-5 42,10 65,22 65,33 0,48 -381,86 -852,86z"/>
  <path class="fil20" d="M12224 11760c-149,0 -288,-4 -409,-11l0 -2c120,7 260,11 409,11 445,0 807,-37 807,-82 0,-7 -11,-15 -30,-22 2,-2 4,-3 6,-6 30,9 47,19 47,28 0,47 -372,84 -830,84z"/>
  <path class="fil21" d="M12224 11758c-149,0 -289,-4 -409,-11l0 -3c119,7 259,11 409,11 433,0 784,-35 784,-79 0,-5 -5,-10 -15,-15 3,-2 5,-4 8,-7 19,7 30,15 30,22 0,45 -362,82 -807,82z"/>
  <path class="fil22" d="M12224 11755c-150,0 -290,-4 -409,-11l0 -3c118,8 258,12 409,12 421,0 762,-34 762,-77 0,-2 -2,-5 -4,-7 4,-3 8,-5 11,-8 10,5 15,10 15,15 0,44 -351,79 -784,79z"/>
  <path class="fil23" d="M12224 11753c-151,0 -291,-4 -409,-12l0 -2c117,7 258,12 409,12 403,0 731,-33 739,-73 7,-3 13,-6 19,-9 2,2 4,5 4,7 0,43 -341,77 -762,77z"/>
  <path class="fil24" d="M12224 11751c-151,0 -292,-5 -409,-12l0 -3c116,8 257,13 409,13 372,0 677,-29 713,-66 9,0 18,-2 26,-5 -8,40 -336,73 -739,73z"/>
  <path class="fil25" d="M12224 11749c-152,0 -293,-5 -409,-13l0 -3c115,8 256,13 409,13 357,0 652,-27 690,-62l13 0c3,0 7,0 10,-1 -36,37 -341,66 -713,66z"/>
  <path class="fil26" d="M12224 11746c-153,0 -294,-5 -409,-13l0 -3c113,9 255,14 409,14 345,0 629,-26 667,-60l23 0c-38,35 -333,62 -690,62z"/>
  <path class="fil27" d="M12224 11744c-154,0 -296,-5 -409,-14l0 -3c112,9 254,15 409,15 332,0 607,-26 644,-58l7 0 16 0c-37,34 -322,60 -667,60z"/>
  <path class="fil28" d="M12224 11742c-155,0 -297,-6 -409,-15l0 -3c110,10 253,15 409,15 320,0 584,-24 621,-55l23 0c-37,32 -312,58 -644,58z"/>
  <path class="fil29" d="M12224 11739c-156,0 -299,-5 -409,-15l0 -3c108,10 251,16 409,16 307,0 561,-23 598,-53l23 0c-37,31 -301,55 -621,55z"/>
  <path class="fil30" d="M12224 11737c-158,0 -301,-6 -409,-16l0 -3c105,10 249,17 409,17 295,0 538,-22 576,-51l22 0c-37,30 -291,53 -598,53z"/>
  <path class="fil31" d="M12224 11735c-160,0 -304,-7 -409,-17l0 -3c102,11 247,17 409,17 282,0 516,-21 553,-48l23 0c-38,29 -281,51 -576,51z"/>
  <path class="fil32" d="M12224 11732c-162,0 -307,-6 -409,-17l0 -4c99,12 245,19 409,19 270,0 493,-20 530,-46l23 0c-37,27 -271,48 -553,48z"/>
  <path class="fil33" d="M12224 11730c-164,0 -310,-7 -409,-19l0 -3c94,12 242,20 409,20 257,0 471,-19 507,-44l23 0c-37,26 -260,46 -530,46z"/>
  <path class="fil34" d="M12224 11728c-167,0 -315,-8 -409,-20l0 -4c88,13 238,22 409,22 245,0 448,-18 484,-42l23 0c-36,25 -250,44 -507,44z"/>
  <path class="fil35" d="M12224 11726c-171,0 -321,-9 -409,-22l0 -5c80,15 233,24 409,24 232,0 425,-17 461,-39l23 0c-36,24 -239,42 -484,42z"/>
  <path class="fil36" d="M12224 11723c-176,0 -329,-9 -409,-24l0 -5c69,16 226,27 409,27 220,0 402,-16 438,-37l23 0c-36,22 -229,39 -461,39z"/>
  <path class="fil37" d="M12224 11721c-183,0 -340,-11 -409,-27l0 -7c49,18 213,32 409,32 207,0 380,-15 415,-35l23 0c-36,21 -218,37 -438,37z"/>
  <path class="fil38" d="M12224 11719c-196,0 -360,-14 -409,-32l0 -3 16 0c35,19 198,33 393,33 194,0 357,-14 392,-33l23 0c-35,20 -208,35 -415,35z"/>
  <path class="fil39" d="M12224 11717c-195,0 -358,-14 -393,-33l23 0c35,17 187,30 370,30 182,0 334,-13 369,-30l23 0c-35,19 -198,33 -392,33z"/>
  <path class="fil40" d="M12224 11714c-183,0 -335,-13 -370,-30l23 0c35,16 177,28 347,28 169,0 311,-12 346,-28l23 0c-35,17 -187,30 -369,30z"/>
  <path class="fil41" d="M12224 11712c-170,0 -312,-12 -347,-28l23 0c35,15 166,26 324,26 157,0 288,-11 323,-26l23 0c-35,16 -177,28 -346,28z"/>
  <path class="fil42" d="M12224 11710c-158,0 -289,-11 -324,-26l24 0c33,14 155,24 300,24 144,0 266,-10 299,-24l24 0c-35,15 -166,26 -323,26z"/>
  <path class="fil43" d="M12224 11708c-145,0 -267,-10 -300,-24l23 0c33,12 145,21 277,21 131,0 243,-9 276,-21l23 0c-33,14 -155,24 -299,24z"/>
  <path class="fil44" d="M12224 11705c-132,0 -244,-9 -277,-21l24 0c32,11 133,19 253,19 119,0 220,-8 252,-19l24 0c-33,12 -145,21 -276,21z"/>
  <path class="fil45" d="M12224 11703c-120,0 -221,-8 -253,-19l23 0c32,10 123,17 230,17 107,0 197,-7 229,-17l23 0c-32,11 -133,19 -252,19z"/>
  <path class="fil46" d="M12224 11701c-107,0 -198,-7 -230,-17l24 0c31,8 111,14 206,14 94,0 174,-6 205,-14l24 0c-32,10 -122,17 -229,17z"/>
  <path class="fil47" d="M12224 11698c-95,0 -175,-6 -206,-14l25 0c29,7 99,12 181,12 81,0 151,-5 180,-12l25 0c-31,8 -111,14 -205,14z"/>
  <path class="fil48" d="M12224 11696c-82,0 -152,-5 -181,-12l24 0c28,6 88,10 157,10 68,0 127,-4 155,-10l25 0c-29,7 -99,12 -180,12z"/>
  <path class="fil49" d="M12224 11694c-69,0 -129,-4 -157,-10l312 0c-28,6 -87,10 -155,10z"/>
  <path class="fil8" d="M9947 11695c-1026,0 -1858,-33 -1858,-75 0,-42 832,-75 1858,-75 331,0 641,3 910,9l0 2c-268,-6 -579,-9 -910,-9 -1005,-1 -1820,32 -1820,73 0,41 815,74 1820,74 331,0 642,-4 910,-10l0 2c-269,6 -579,9 -910,9z"/>
  <path class="fil50" d="M9947 11694c-1005,0 -1820,-33 -1820,-74 0,-41 815,-73 1820,-73 331,-1 642,3 910,9l0 2c-266,-6 -577,-10 -910,-10 -984,0 -1781,32 -1781,72 0,40 797,72 1781,72 333,0 644,-4 910,-10l0 2c-268,6 -579,10 -910,10z"/>
  <path class="fil51" d="M9947 11692c-984,0 -1781,-32 -1781,-72 0,-40 797,-72 1781,-72 333,0 644,4 910,10l0 2c-265,-7 -577,-11 -910,-11 -963,0 -1743,32 -1743,71 0,39 780,71 1743,71 333,0 645,-4 910,-11l0 2c-266,6 -577,10 -910,10z"/>
  <path class="fil52" d="M9947 11691c-963,0 -1743,-32 -1743,-71 0,-39 780,-71 1743,-71 333,0 645,4 910,11l0 2c-263,-7 -575,-11 -910,-11 -941,0 -1705,31 -1705,69 0,38 764,69 1705,69 335,0 647,-4 910,-10l0 1c-265,7 -577,11 -910,11z"/>
  <path class="fil53" d="M9947 11689c-941,0 -1705,-31 -1705,-69 0,-38 764,-69 1705,-69 335,0 647,4 910,11l0 2c-262,-7 -574,-11 -910,-11 -920,0 -1667,30 -1667,67 0,37 747,68 1667,68 336,0 648,-4 910,-11l0 2c-263,6 -575,10 -910,10z"/>
  <path class="fil54" d="M9947 11688c-920,0 -1667,-31 -1667,-68 0,-37 747,-67 1667,-67 336,0 648,4 910,11l0 1c-260,-7 -573,-11 -910,-11 -899,0 -1629,30 -1629,66 0,36 730,66 1629,66 337,0 650,-4 910,-11l0 2c-262,7 -574,11 -910,11z"/>
  <path class="fil13" d="M9947 11686c-899,0 -1629,-30 -1629,-66 0,-36 730,-66 1629,-66 337,0 650,4 910,11l0 2c-258,-7 -572,-11 -910,-11 -878,0 -1590,29 -1590,64 0,36 712,65 1590,65 338,0 652,-5 910,-12l0 2c-260,7 -573,11 -910,11z"/>
  <path class="fil14" d="M9947 11685c-878,0 -1590,-29 -1590,-65 0,-35 712,-64 1590,-64 338,0 652,4 910,11l0 2c-256,-7 -570,-12 -910,-12 -857,0 -1552,28 -1552,63 0,35 695,63 1552,63 340,0 654,-4 910,-12l0 2c-258,7 -572,12 -910,12z"/>
  <path class="fil55" d="M9947 11683c-857,0 -1552,-28 -1552,-63 0,-35 695,-63 1552,-63 340,0 654,5 910,12l0 2c-253,-8 -568,-12 -910,-12 -836,0 -1514,27 -1514,61 0,34 678,61 1514,61 342,0 657,-4 910,-12l0 2c-256,8 -570,12 -910,12z"/>
  <path class="fil56" d="M9947 11681c-836,0 -1514,-27 -1514,-61 0,-34 678,-61 1514,-61 342,0 657,4 910,12l0 2c-251,-8 -567,-13 -910,-13 -815,0 -1476,27 -1476,60 0,33 661,60 1476,60 343,0 659,-5 910,-13l0 2c-253,8 -568,12 -910,12z"/>
  <path class="fil16" d="M9947 11680c-815,0 -1476,-27 -1476,-60 0,-33 661,-60 1476,-60 343,0 659,5 910,13l0 2c-248,-8 -565,-13 -910,-13 -794,0 -1438,26 -1438,58 0,32 644,58 1438,58 345,0 662,-5 910,-13l0 2c-251,8 -567,13 -910,13z"/>
  <path class="fil57" d="M9947 11678c-794,0 -1438,-26 -1438,-58 0,-32 644,-58 1438,-58 345,0 662,5 910,13l0 2c-245,-8 -563,-14 -910,-14 -773,0 -1399,26 -1399,57 0,31 626,57 1399,57 347,0 665,-5 910,-14l0 2c-248,8 -565,13 -910,13z"/>
  <path class="fil18" d="M9947 11677c-773,0 -1399,-26 -1399,-57 0,-31 626,-57 1399,-57 347,0 665,6 910,14l0 2c-241,-9 -560,-14 -910,-14 -752,0 -1361,24 -1361,55 0,31 609,55 1361,55 350,0 669,-5 910,-14l0 2c-245,9 -563,14 -910,14z"/>
  <path class="fil19" d="M9947 11675c-752,0 -1361,-24 -1361,-55 0,-31 609,-55 1361,-55 350,0 669,5 910,14l0 2c-237,-9 -558,-15 -910,-15 -731,0 -1323,24 -1323,54 0,30 592,54 1323,54 352,0 673,-6 910,-15l0 2c-241,9 -560,14 -910,14z"/>
  <path class="fil58" d="M9947 11674c-731,0 -1323,-24 -1323,-54 0,-30 592,-54 1323,-54 352,0 673,6 910,15l0 2c-233,-9 -555,-15 -910,-15 -710,0 -1285,23 -1285,52 0,29 575,52 1285,52 356,0 677,-6 910,-15l0 2c-237,9 -558,15 -910,15z"/>
  <path class="fil59" d="M9947 11672c-710,0 -1285,-23 -1285,-52 0,-29 575,-52 1285,-52 356,0 677,6 910,15l0 3c-228,-10 -551,-16 -910,-16 -688,0 -1247,22 -1247,50 0,28 559,50 1247,50 359,0 682,-6 910,-15l0 2c-233,9 -555,15 -910,15z"/>
  <path class="fil60" d="M9947 11670c-688,0 -1247,-22 -1247,-50 0,-28 559,-50 1247,-50 359,0 682,6 910,16l0 2c-222,-10 -547,-17 -910,-17 -667,0 -1208,22 -1208,49 0,27 541,49 1208,49 363,0 688,-6 910,-17l0 3c-228,9 -551,15 -910,15z"/>
  <path class="fil22" d="M9947 11669c-667,0 -1208,-22 -1208,-49 0,-27 541,-49 1208,-49 363,0 688,7 910,17l0 2c-215,-10 -543,-17 -910,-17 -646,0 -1170,21 -1170,47 0,26 524,48 1170,48 367,0 695,-7 910,-18l0 2c-222,11 -547,17 -910,17z"/>
  <path class="fil23" d="M9947 11668c-646,0 -1170,-22 -1170,-48 0,-26 524,-47 1170,-47 367,0 695,7 910,17l0 3c-207,-11 -537,-19 -910,-19 -625,0 -1132,21 -1132,46 0,25 507,46 1132,46 373,0 703,-7 910,-19l0 3c-215,11 -543,18 -910,18z"/>
  <path class="fil61" d="M9947 11666c-625,0 -1132,-21 -1132,-46 0,-25 507,-46 1132,-46 373,0 703,8 910,19l0 2c-197,-11 -531,-19 -910,-19 -604,0 -1094,20 -1094,44 0,24 490,44 1094,44 379,0 713,-7 910,-19l0 2c-207,12 -537,19 -910,19z"/>
  <path class="fil62" d="M9947 11664c-604,0 -1094,-20 -1094,-44 0,-24 490,-44 1094,-44 379,0 713,8 910,19l0 3c-184,-12 -523,-21 -910,-21 -583,0 -1056,20 -1056,43 0,24 473,43 1056,43 387,0 726,-9 910,-21l0 3c-197,12 -531,19 -910,19z"/>
  <path class="fil63" d="M9947 11663c-583,0 -1056,-19 -1056,-43 0,-23 473,-43 1056,-43 387,0 726,9 910,21l0 4c-168,-14 -512,-23 -910,-23 -562,0 -1017,18 -1017,41 0,23 455,41 1017,41 398,0 742,-9 910,-22l0 3c-184,12 -523,21 -910,21z"/>
  <path class="fil64" d="M9947 11661c-562,0 -1017,-18 -1017,-41 0,-23 455,-41 1017,-41 398,0 742,9 910,23l0 3c-145,-14 -497,-25 -910,-25 -541,0 -979,18 -979,40 0,22 438,40 979,40 413,0 765,-11 910,-25l0 4c-168,13 -512,22 -910,22z"/>
  <path class="fil65" d="M9947 11660c-541,0 -979,-18 -979,-40 0,-22 438,-40 979,-40 413,0 765,11 910,25l0 5c-108,-16 -474,-28 -910,-28 -520,0 -941,17 -941,38 0,21 421,38 941,38 436,0 802,-12 910,-28l0 5c-145,14 -497,25 -910,25z"/>
  <path class="fil28" d="M9947 11658c-520,0 -941,-17 -941,-38 0,-21 421,-38 941,-38 436,0 802,12 910,28l0 20c-108,16 -474,28 -910,28zm0 -74c-498,0 -903,16 -903,36 0,20 405,37 903,37 499,0 903,-17 903,-37 0,-20 -404,-36 -903,-36z"/>
  <path class="fil66" d="M9947 11657c-498,0 -903,-17 -903,-37 0,-20 405,-36 903,-36 499,0 903,16 903,36 0,20 -404,37 -903,37zm0 -72c-477,0 -865,16 -865,35 0,19 388,35 865,35 478,0 865,-16 865,-35 0,-19 -387,-35 -865,-35z"/>
  <path class="fil67" d="M9947 11655c-477,0 -865,-16 -865,-35 0,-19 388,-35 865,-35 478,0 865,16 865,35 0,19 -387,35 -865,35zm0 -68c-456,0 -827,14 -827,33 0,19 371,34 827,34 457,0 827,-15 827,-34 0,-19 -370,-33 -827,-33z"/>
  <path class="fil68" d="M9947 11654c-456,0 -827,-15 -827,-34 0,-19 371,-33 827,-33 457,0 827,14 827,33 0,19 -370,34 -827,34zm0 -66c-435,0 -788,14 -788,32 0,18 353,32 788,32 436,0 789,-14 789,-32 0,-18 -353,-32 -789,-32z"/>
  <path class="fil69" d="M9947 11652c-435,0 -788,-14 -788,-32 0,-18 353,-32 788,-32 436,0 789,14 789,32 0,18 -353,32 -789,32zm0 -62c-414,0 -750,13 -750,30 0,17 336,31 750,31 415,0 751,-14 751,-31 0,-17 -336,-30 -751,-30z"/>
  <path class="fil70" d="M9947 11651c-414,0 -750,-14 -750,-31 0,-17 336,-30 750,-30 415,0 751,13 751,30 0,17 -336,31 -751,31zm0 -60c-393,0 -712,13 -712,29 0,16 319,29 712,29 394,0 712,-13 712,-29 0,-16 -318,-29 -712,-29z"/>
  <path class="fil71" d="M9947 11649c-393,0 -712,-13 -712,-29 0,-16 319,-29 712,-29 394,0 712,13 712,29 0,16 -318,29 -712,29zm0 -56c-372,0 -674,12 -674,27 0,15 302,27 674,27 373,0 674,-12 674,-27 0,-15 -301,-27 -674,-27z"/>
  <path class="fil34" d="M9947 11647c-372,0 -674,-12 -674,-27 0,-15 302,-27 674,-27 373,0 674,12 674,27 0,15 -301,27 -674,27zm0 -53c-351,0 -636,12 -636,26 0,14 285,26 636,26 352,0 636,-12 636,-26 0,-14 -284,-26 -636,-26z"/>
  <path class="fil72" d="M9947 11646c-351,0 -636,-12 -636,-26 0,-14 285,-26 636,-26 352,0 636,12 636,26 0,14 -284,26 -636,26zm0 -50c-330,0 -597,11 -597,24 0,13 267,24 597,24 330,0 598,-11 598,-24 0,-13 -268,-24 -598,-24z"/>
  <path class="fil73" d="M9947 11644c-330,0 -597,-11 -597,-24 0,-13 267,-24 597,-24 330,0 598,11 598,24 0,13 -268,24 -598,24zm0 -47c-309,0 -559,11 -559,23 0,12 250,23 559,23 309,0 560,-11 560,-23 0,-12 -251,-23 -560,-23z"/>
  <path class="fil74" d="M9947 11643c-309,0 -559,-11 -559,-23 0,-12 250,-23 559,-23 309,0 560,11 560,23 0,12 -251,23 -560,23zm0 -44c-288,0 -521,9 -521,21 0,12 233,21 521,21 288,0 521,-9 521,-21 0,-12 -233,-21 -521,-21z"/>
  <path class="fil37" d="M9947 11641c-288,0 -521,-9 -521,-21 0,-12 233,-21 521,-21 288,0 521,9 521,21 0,12 -233,21 -521,21zm0 -40c-267,0 -483,8 -483,19 0,11 216,20 483,20 267,0 483,-9 483,-20 0,-11 -216,-19 -483,-19z"/>
  <path class="fil38" d="M9947 11640c-267,0 -483,-9 -483,-20 0,-11 216,-19 483,-19 267,0 483,8 483,19 0,11 -216,20 -483,20zm0 -38c-246,0 -445,8 -445,18 0,10 199,18 445,18 246,0 445,-8 445,-18 0,-10 -199,-18 -445,-18z"/>
  <path class="fil75" d="M9947 11638c-246,0 -445,-8 -445,-18 0,-10 199,-18 445,-18 246,0 445,8 445,18 0,10 -199,18 -445,18zm0 -34c-224,0 -406,7 -406,16 0,9 182,17 406,17 225,0 407,-8 407,-17 0,-9 -182,-16 -407,-16z"/>
  <path class="fil76" d="M9947 11637c-224,0 -406,-8 -406,-17 0,-9 182,-16 406,-16 225,0 407,7 407,16 0,9 -182,17 -407,17zm0 -32c-203,0 -368,7 -368,15 0,8 165,15 368,15 204,0 369,-7 369,-15 0,-8 -165,-15 -369,-15z"/>
  <path class="fil77" d="M9947 11635c-203,0 -368,-7 -368,-15 0,-8 165,-15 368,-15 204,0 369,7 369,15 0,8 -165,15 -369,15zm0 -28c-182,0 -330,6 -330,13 0,7 148,14 330,14 183,0 331,-7 331,-14 0,-7 -148,-13 -331,-13z"/>
  <path class="fil78" d="M9947 11634c-182,0 -330,-7 -330,-14 0,-7 148,-13 330,-13 183,0 331,6 331,13 0,7 -148,14 -331,14zm0 -26c-161,0 -292,5 -292,12 0,7 131,12 292,12 162,0 293,-5 293,-12 0,-7 -131,-12 -293,-12z"/>
  <path class="fil79" d="M9947 11632c-161,0 -292,-5 -292,-12 0,-7 131,-12 292,-12 162,0 293,5 293,12 0,7 -131,12 -293,12z"/>
  <path class="fil80" d="M10557 11511l-1293 0 187 -872 919 0 187 872z"/>
  <path class="fil81" d="M10476 11132l-106 -493 -919 0 -106 493 1131 0z"/>
  <path class="fil82" d="M10828 11612l-1835 0c-97,0 -112,-129 -112,-129l2059 0c0,0 -15,129 -112,129z"/>
  <path class="fil83" d="M12337 10464c0,119 -96,215 -214,215l-4425 0c-119,0 -214,-96 -214,-215l0 -2571c0,-118 95,-214 214,-214l4425 0c118,0 214,96 214,214l0 2571z"/>
  <path class="fil82" d="M7484 10406l0 422c0,118 95,214 214,214l4425 0c118,0 214,-96 214,-214l0 -422 -4853 0z"/>
  <path class="fil84" d="M12181 10214l-4541 0 0 -2333 4541 0 0 2333z"/>
  <path class="fil85" d="M10065 10713c0,86 -69,155 -155,155 -85,0 -155,-69 -155,-155 0,-86 70,-155 155,-155 86,0 155,69 155,155z"/>
  <path class="fil86" d="M9233 8210l-989 0 0 -218 989 0 0 218z"/>
  <path class="fil81" d="M11577 8210l-2161 0 0 -218 2161 0 0 218z"/>
  <path class="fil87" d="M11577 8907l-3333 0 0 -598 3333 0 0 598z"/>
  <path class="fil88" d="M9233 9634l-989 0 0 -606 989 0 0 606z"/>
  <path class="fil89" d="M10405 9634l-989 0 0 -606 989 0 0 606z"/>
  <path class="fil90" d="M11577 9634l-989 0 0 -606 989 0 0 606z"/>
  <path class="fil85" d="M9233 9812l-989 0 0 -86 989 0 0 86z"/>
  <path class="fil81" d="M9233 9965l-989 0 0 -86 989 0 0 86z"/>
  <path class="fil81" d="M9233 10117l-989 0 0 -86 989 0 0 86z"/>
  <path class="fil85" d="M10405 9812l-989 0 0 -86 989 0 0 86z"/>
  <path class="fil81" d="M10405 9965l-989 0 0 -86 989 0 0 86z"/>
  <path class="fil81" d="M10405 10117l-989 0 0 -86 989 0 0 86z"/>
  <path class="fil85" d="M11577 9812l-989 0 0 -86 989 0 0 86z"/>
  <path class="fil81" d="M11577 9965l-989 0 0 -86 989 0 0 86z"/>
  <path class="fil81" d="M11577 10117l-989 0 0 -86 989 0 0 86z"/>
  <path class="fil91" d="M11383 10406l-687 0 -116 -192 803 0 0 192zm954 -1085l-156 0 0 -1440 -3009 0 -121 -199 3072 0c118,0 214,96 214,214l0 1425z"/>
  <path class="fil53" d="M10857 10673l-161 -267 687 0 0 131 -432 0 -3 0c-38,0 -70,22 -85,54l1 3c-4,12 -7,24 -7,38l0 41z"/>
  <path class="fil10" d="M11383 10214l-803 0 -175 -290 0 -45 -28 0 -40 -67 68 0 0 -86 -120 0 -55 -92 175 0 0 -606 -541 0 -73 -121 1786 0 0 -598 -2147 0 -258 -428 3009 0 0 1440 -604 0 0 -293 -989 0 0 606 795 0 0 92 -795 0 0 86 795 0 0 67 -795 0 0 86 795 0 0 66 -795 0 0 86 795 0 0 97zm-1967 -2222l0 218 2161 0 0 -218 -2161 0z"/>
  <path class="fil92" d="M11577 8210l-2161 0 0 -218 2161 0 0 218z"/>
  <path class="fil93" d="M11577 8907l-1786 0 -361 -598 2147 0 0 598z"/>
  <path class="fil94" d="M10405 9634l-175 0 -366 -606 541 0 0 606z"/>
  <path class="fil95" d="M11383 9634l-795 0 0 -606 989 0 0 293 -87 0c-2,0 -4,0 -5,0 -57,3 -102,50 -102,107l0 206z"/>
  <path class="fil96" d="M10405 9812l-68 0 -52 -86 120 0 0 86z"/>
  <path class="fil92" d="M10405 9924l-28 -45 28 0 0 45z"/>
  <path class="fil96" d="M11383 9812l-795 0 0 -86 795 0 0 86z"/>
  <path class="fil92" d="M11383 9965l-795 0 0 -86 795 0 0 86z"/>
  <path class="fil92" d="M11383 10117l-795 0 0 -86 795 0 0 86z"/>
  <path class="fil83" d="M11490 11684c-60,0 -107,-48 -107,-107l0 -2149c0,-59 47,-107 107,-107l1437 0c59,0 107,48 107,107l0 2149c0,59 -48,107 -107,107l-1437 0z"/>
  <path class="fil84" d="M11495 11454l0 -1903 1426 0 0 1903 -1426 0z"/>
  <path class="fil97" d="M12320 11575c0,22 -18,39 -40,39l-123 0c-21,0 -39,-17 -39,-39 0,-21 18,-39 39,-39l123 0c22,0 40,18 40,39z"/>
  <path class="fil86" d="M12012 9844l-441 0 0 -188 441 0 0 188z"/>
  <path class="fil81" d="M12845 9844l-755 0 0 -188 755 0 0 188z"/>
  <path class="fil87" d="M12845 10472l-1274 0 0 -527 1274 0 0 527z"/>
  <path class="fil88" d="M12150 10929l-579 0 0 -356 579 0 0 356z"/>
  <path class="fil89" d="M12838 10929l-580 0 0 -356 580 0 0 356z"/>
  <path class="fil85" d="M12150 11066l-579 0 0 -51 579 0 0 51z"/>
  <path class="fil81" d="M12150 11169l-579 0 0 -51 579 0 0 51z"/>
  <path class="fil81" d="M12150 11272l-579 0 0 -51 579 0 0 51z"/>
  <path class="fil81" d="M12150 11375l-579 0 0 -50 579 0 0 50z"/>
  <path class="fil85" d="M12838 11066l-580 0 0 -51 580 0 0 51z"/>
  <path class="fil81" d="M12838 11169l-580 0 0 -51 580 0 0 51z"/>
  <path class="fil81" d="M12838 11272l-580 0 0 -51 580 0 0 51z"/>
  <path class="fil81" d="M12838 11375l-580 0 0 -50 580 0 0 50z"/>
  <path class="fil98" d="M11485 9321c1,0 3,0 5,0 -2,0 -4,0 -5,0z"/>
  <path class="fil91" d="M12927 11684l-36 0 -16 0 -139 -230 185 0 0 -1903 -1334 0 -135 -223c10,-4 21,-6 33,-7 1,0 3,0 5,0l0 0 1437 0c59,0 107,48 107,107l0 2149c0,59 -48,107 -107,107z"/>
  <path class="fil10" d="M12921 11454l-185 0 -48 -79 150 0 0 -50 -180 0 -32 -53 212 0 0 -51 -243 0 -31 -52 274 0 0 -51 -305 0 -31 -52 336 0 0 -51 -367 0 -52 -86 419 0 0 -356 -580 0 0 89 -115 -190 702 0 0 -527 -1020 0 -61 -101 248 0 0 -188 -362 0 -63 -105 1334 0 0 1903zm-831 -1798l0 188 755 0 0 -188 -755 0z"/>
  <path class="fil99" d="M12012 9844l-248 0 -114 -188 362 0 0 188z"/>
  <path class="fil92" d="M12845 9844l-755 0 0 -188 755 0 0 188z"/>
  <path class="fil93" d="M12845 10472l-702 0 -318 -527 1020 0 0 527z"/>
  <path class="fil94" d="M12838 10929l-419 0 -161 -267 0 -89 580 0 0 356z"/>
  <path class="fil96" d="M12838 11066l-336 0 -31 -51 367 0 0 51z"/>
  <path class="fil92" d="M12838 11169l-274 0 -31 -51 305 0 0 51z"/>
  <path class="fil92" d="M12838 11272l-212 0 -31 -51 243 0 0 51z"/>
  <path class="fil92" d="M12838 11375l-150 0 -30 -50 180 0 0 50z"/>
  <path class="fil83" d="M11815 12103c0,52 -42,94 -94,94l-770 0c-52,0 -94,-42 -94,-94l0 -1471c0,-53 42,-95 94,-95l770 0c52,0 94,42 94,95l0 1471z"/>
  <path class="fil84" d="M11756 11965l-840 0 0 -1219 840 0 0 1219z"/>
  <path class="fil97" d="M11371 10653c0,19 -16,35 -35,35 -20,0 -35,-16 -35,-35 0,-20 15,-35 35,-35 19,0 35,15 35,35z"/>
  <path class="fil97" d="M11436 12082c0,22 -17,39 -39,39l-122 0c-21,0 -39,-17 -39,-39 0,-21 18,-39 39,-39l122 0c22,0 39,18 39,39z"/>
  <path class="fil86" d="M11716 10907l-758 0 0 -122 758 0 0 122z"/>
  <path class="fil81" d="M11716 11084l-758 0 0 -136 758 0 0 136z"/>
  <path class="fil87" d="M11716 11440l-758 0 0 -306 758 0 0 306z"/>
  <path class="fil88" d="M11716 11911l-758 0 0 -423 758 0 0 423z"/>
  <path class="fil52" d="M10864 10594l-1 -3c15,-32 47,-54 85,-54l3 0c-39,0 -72,24 -87,57z"/>
  <path class="fil91" d="M11806 12135c-4,0 -8,0 -12,-1l-102 -169 64 0 0 -1219 -800 0 -92 -152c15,-33 48,-57 87,-57l766 0c53,0 95,42 95,95l0 1471c0,11 -2,22 -6,32zm-470 -1517c-20,0 -35,15 -35,35 0,19 15,35 35,35 19,0 35,-16 35,-35 0,-20 -16,-35 -35,-35z"/>
  <path class="fil10" d="M11756 11965l-64 0 -33 -54 57 0 0 -423 -312 0 -29 -48 341 0 0 -306 -526 0 -30 -50 556 0 0 -136 -638 0 -25 -41 663 0 0 -122 -737 0 -23 -39 800 0 0 1219z"/>
  <path class="fil100" d="M11336 10688c-20,0 -35,-16 -35,-35 0,-20 15,-35 35,-35 19,0 35,15 35,35 0,19 -16,35 -35,35z"/>
  <path class="fil99" d="M11716 10907l-663 0 -74 -122 737 0 0 122z"/>
  <path class="fil92" d="M11716 11084l-556 0 -82 -136 638 0 0 136z"/>
  <path class="fil93" d="M11716 11440l-341 0 -185 -306 526 0 0 306z"/>
  <path class="fil101" d="M11716 11911l-57 0 -255 -423 312 0 0 423z"/>
  <path class="fil8" d="M11330 12273c-439,0 -795,-34 -795,-77 0,-25 129,-48 327,-61 0,0 1,1 1,1 -190,14 -312,36 -312,60 0,42 349,75 779,75 431,0 780,-33 780,-75 0,-24 -118,-45 -301,-59 0,0 0,-1 1,-2 192,14 316,36 316,61 0,43 -356,77 -796,77z"/>
  <path class="fil83" d="M11809 12137c-1,0 -2,0 -4,0 1,-1 1,-1 1,-2 1,0 3,0 4,0 -1,1 -1,2 -1,2zm-946 -1c0,0 -1,-1 -1,-1 115,-9 254,-14 405,-15 2,1 5,1 8,1l122 0c3,0 6,0 8,-1 144,2 277,7 389,14l1 2c-130,-9 -290,-15 -465,-15 -175,0 -337,6 -467,15z"/>
  <path class="fil97" d="M11397 12121l-122 0c-3,0 -6,0 -8,-1 21,0 42,0 63,0 26,0 51,0 75,0 -2,1 -5,1 -8,1z"/>
  <path class="fil91" d="M11806 12137c-4,0 -7,-1 -11,-1l-1 -2c4,1 8,1 12,1 0,1 0,1 0,2z"/>
  <path class="fil9" d="M11330 12271c-430,0 -779,-33 -779,-75 0,-24 122,-46 312,-60 0,1 0,2 1,2 -181,14 -297,35 -297,58 0,41 342,74 763,74 422,0 764,-33 764,-74 0,-23 -112,-43 -286,-57 0,0 1,-1 1,-2 183,14 301,35 301,59 0,42 -349,75 -780,75z"/>
  <path class="fil83" d="M11808 12139c-1,0 -2,0 -3,0 0,-1 0,-1 0,-2 2,0 3,0 4,0 0,1 -1,2 -1,2zm-944 -1c-1,0 -1,-1 -1,-2 130,-9 292,-15 467,-15 175,0 335,6 465,15l2 2c-129,-9 -291,-15 -467,-15 -175,0 -337,6 -466,15z"/>
  <path class="fil102" d="M11805 12139c-3,0 -6,0 -8,-1l-2 -2c4,0 7,1 10,1 0,1 0,1 0,2z"/>
  <path class="fil10" d="M11330 12270c-421,0 -763,-33 -763,-74 0,-23 116,-44 297,-58 0,1 0,2 0,2 -171,13 -280,34 -280,56 0,40 334,72 746,72 413,0 747,-32 747,-72 0,-22 -105,-42 -270,-55 1,-1 1,-1 1,-2 174,14 286,34 286,57 0,41 -342,74 -764,74z"/>
  <path class="fil83" d="M11807 12141c-1,0 -2,0 -3,0 0,-1 0,-1 1,-2 1,0 2,0 3,0 0,1 0,1 -1,2zm-9 -1c-128,-9 -291,-15 -468,-15 -176,0 -338,5 -466,15 0,0 0,-1 0,-2 129,-9 291,-15 466,-15 176,0 338,6 467,15l1 2z"/>
  <path class="fil103" d="M11804 12141c-2,0 -4,0 -6,-1l-1 -2c2,1 5,1 8,1 -1,1 -1,1 -1,2z"/>
  <path class="fil11" d="M11330 12268c-412,0 -746,-32 -746,-72 0,-22 109,-43 280,-56 1,1 1,2 1,2 -162,13 -265,33 -265,54 0,39 327,70 730,70 404,0 731,-31 731,-70 0,-21 -99,-40 -255,-53 1,0 1,-1 1,-2 165,13 270,33 270,55 0,40 -334,72 -747,72z"/>
  <path class="fil83" d="M11806 12143c-1,0 -2,0 -3,0 0,-1 1,-1 1,-2 1,0 2,0 3,0 0,1 0,2 -1,2zm-7 0c-127,-11 -290,-17 -469,-17 -176,0 -338,6 -465,16 0,0 0,-1 -1,-2 128,-10 290,-15 466,-15 177,0 340,6 468,15l1 3z"/>
  <path class="fil104" d="M11803 12143c-1,0 -3,0 -4,0l-1 -3c2,1 4,1 6,1 0,1 -1,1 -1,2z"/>
  <path class="fil12" d="M11330 12266c-403,0 -730,-31 -730,-70 0,-21 103,-41 265,-54 1,1 1,2 1,2 -153,13 -250,31 -250,52 0,38 320,69 714,69 395,0 715,-31 715,-69 0,-20 -93,-38 -240,-51 1,0 1,-1 1,-2 156,13 255,32 255,53 0,39 -327,70 -731,70z"/>
  <path class="fil83" d="M11805 12145c-1,0 -2,0 -3,0 0,-1 1,-1 1,-2 1,0 2,0 3,0 0,1 0,2 -1,2zm-5 0c-125,-11 -290,-17 -470,-17 -177,0 -339,6 -464,16 0,0 0,-1 -1,-2 127,-10 289,-16 465,-16 179,0 342,6 469,17l1 2z"/>
  <path class="fil104" d="M11802 12145c-1,0 -1,0 -2,0l-1 -2c1,0 3,0 4,0 0,1 -1,1 -1,2z"/>
  <path class="fil13" d="M11330 12265c-394,0 -714,-31 -714,-69 0,-21 97,-39 250,-52 1,1 1,2 1,2 -144,12 -234,30 -234,50 0,37 312,67 697,67 386,0 698,-30 698,-67 0,-19 -86,-37 -224,-49 1,-1 1,-1 1,-2 147,13 240,31 240,51 0,38 -320,69 -715,69z"/>
  <path class="fil83" d="M11804 12147c-124,-11 -291,-18 -474,-18 -177,0 -340,7 -463,17 0,0 0,-1 -1,-2 125,-10 287,-16 464,-16 180,0 345,6 470,17l1 1c1,0 1,-1 1,-1 1,0 2,0 3,0 0,1 0,1 -1,2z"/>
  <path class="fil105" d="M11801 12146l-1 -1c1,0 1,0 2,0 0,0 0,1 -1,1z"/>
  <path class="fil14" d="M11330 12263c-385,0 -697,-30 -697,-67 0,-20 90,-38 234,-50 1,1 1,2 1,2 -134,12 -219,29 -219,48 0,36 305,66 681,66 377,0 682,-30 682,-66 0,-18 -80,-35 -209,-47 1,0 1,-1 1,-2 138,12 224,30 224,49 0,37 -312,67 -698,67z"/>
  <path class="fil83" d="M11803 12149c-122,-11 -289,-18 -473,-18 -178,0 -340,7 -462,17 0,0 0,-1 -1,-2 123,-10 286,-17 463,-17 183,0 350,7 474,18 0,1 0,2 -1,2z"/>
  <path class="fil15" d="M11330 12262c-376,0 -681,-30 -681,-66 0,-19 85,-36 219,-48 1,1 1,2 1,2 -125,12 -203,28 -203,46 0,36 297,64 664,64 368,0 665,-28 665,-64 0,-17 -73,-33 -193,-45 0,0 1,-1 1,-2 129,12 209,29 209,47 0,36 -305,66 -682,66z"/>
  <path class="fil83" d="M11802 12151c-120,-11 -287,-19 -472,-19 -179,0 -341,7 -461,18 0,0 0,-1 -1,-2 122,-10 284,-17 462,-17 184,0 351,7 473,18 0,1 -1,2 -1,2z"/>
  <path class="fil16" d="M11330 12260c-367,0 -664,-28 -664,-64 0,-18 78,-34 203,-46 1,1 1,2 2,2 -117,12 -189,27 -189,44 0,35 290,63 648,63 359,0 649,-28 649,-63 0,-16 -68,-31 -178,-43 0,0 1,-1 1,-2 120,12 193,28 193,45 0,36 -297,64 -665,64z"/>
  <path class="fil83" d="M11801 12153c-118,-12 -285,-19 -471,-19 -179,0 -342,7 -459,18 -1,0 -1,-1 -2,-2 120,-11 282,-18 461,-18 185,0 352,8 472,19 0,1 -1,2 -1,2z"/>
  <path class="fil17" d="M11330 12259c-358,0 -648,-28 -648,-63 0,-17 72,-32 189,-44 0,1 1,2 1,3 -108,10 -174,25 -174,41 0,34 283,61 632,61 350,0 633,-27 633,-61 0,-15 -62,-30 -164,-40 1,-1 1,-2 2,-3 110,12 178,27 178,43 0,35 -290,63 -649,63z"/>
  <path class="fil83" d="M11799 12156c-115,-13 -283,-20 -469,-20 -180,0 -343,7 -458,19 0,-1 -1,-2 -1,-3 117,-11 280,-18 459,-18 186,0 353,7 471,19 -1,1 -1,2 -2,3z"/>
  <path class="fil18" d="M11330 12257c-349,0 -632,-27 -632,-61 0,-16 66,-31 174,-41 1,0 1,1 2,2 -99,10 -159,24 -159,39 0,33 275,59 615,59 341,0 616,-26 616,-59 0,-14 -56,-28 -148,-38 0,-1 1,-2 1,-2 102,10 164,25 164,40 0,34 -283,61 -633,61z"/>
  <path class="fil83" d="M11798 12158c-113,-13 -281,-21 -468,-21 -181,0 -344,8 -456,20 -1,-1 -1,-2 -2,-2 115,-12 278,-19 458,-19 186,0 354,7 469,20 0,0 -1,1 -1,2z"/>
  <path class="fil19" d="M11330 12255c-340,0 -615,-26 -615,-59 0,-15 60,-29 159,-39 0,0 1,1 1,2 -90,10 -144,23 -144,37 0,32 268,58 599,58 331,0 600,-26 600,-58 0,-13 -50,-26 -134,-36 1,-1 1,-1 2,-2 92,10 148,24 148,38 0,33 -275,59 -616,59z"/>
  <path class="fil83" d="M11796 12160c-110,-13 -278,-21 -466,-21 -182,0 -345,8 -455,20 0,-1 -1,-2 -1,-2 112,-12 275,-20 456,-20 187,0 355,8 468,21 -1,1 -1,1 -2,2z"/>
  <path class="fil20" d="M11330 12254c-331,0 -599,-26 -599,-58 0,-14 54,-27 144,-37 1,1 1,1 2,2 -81,10 -130,22 -130,35 0,31 262,56 583,56 322,0 584,-25 584,-56 0,-12 -45,-24 -120,-34 1,0 1,-1 2,-2 84,10 134,23 134,36 0,32 -269,58 -600,58z"/>
  <path class="fil83" d="M11794 12162c-106,-13 -274,-22 -464,-22 -183,0 -346,9 -453,21 -1,-1 -1,-1 -2,-2 110,-12 273,-20 455,-20 188,0 356,8 466,21 -1,1 -1,2 -2,2z"/>
  <path class="fil21" d="M11330 12252c-321,0 -583,-25 -583,-56 0,-13 49,-25 130,-35 0,1 1,2 2,2 -73,10 -115,21 -115,33 0,30 253,55 566,55 313,0 567,-25 567,-55 0,-11 -39,-22 -105,-31 1,-1 2,-2 2,-3 75,10 120,22 120,34 0,31 -262,56 -584,56z"/>
  <path class="fil83" d="M11792 12165c-102,-14 -271,-23 -462,-23 -184,0 -348,8 -451,21 -1,0 -2,-1 -2,-2 107,-12 270,-21 453,-21 190,0 358,9 464,22 0,1 -1,2 -2,3z"/>
  <path class="fil22" d="M11330 12251c-313,0 -566,-25 -566,-55 0,-12 42,-23 115,-33 0,1 1,2 2,3 -64,9 -101,19 -101,30 0,29 246,53 550,53 305,0 551,-24 551,-53 0,-10 -34,-20 -91,-29 1,-1 2,-1 2,-2 66,9 105,20 105,31 0,30 -254,55 -567,55z"/>
  <path class="fil83" d="M11790 12167c-98,-14 -267,-23 -460,-23 -185,0 -349,8 -449,22 -1,-1 -2,-2 -2,-3 103,-13 267,-21 451,-21 191,0 360,9 462,23 0,1 -1,1 -2,2z"/>
  <path class="fil23" d="M11330 12249c-304,0 -550,-24 -550,-53 0,-11 37,-21 101,-30 1,1 1,2 2,2 -55,8 -87,18 -87,28 0,29 239,52 534,52 296,0 534,-23 534,-52 0,-9 -28,-18 -76,-26 0,-1 1,-2 2,-3 57,9 91,19 91,29 0,29 -246,53 -551,53z"/>
  <path class="fil83" d="M11788 12170c-94,-15 -264,-25 -458,-25 -187,0 -352,9 -447,23 -1,0 -1,-1 -2,-2 100,-14 264,-22 449,-22 193,0 362,9 460,23 -1,1 -2,2 -2,3z"/>
  <path class="fil24" d="M11330 12248c-295,0 -534,-23 -534,-52 0,-10 32,-20 87,-28 1,1 2,2 2,3 -46,7 -72,16 -72,25 0,28 232,50 517,50 286,0 518,-22 518,-50 0,-8 -23,-17 -63,-24 1,0 2,-1 3,-2 48,8 76,17 76,26 0,29 -238,52 -534,52z"/>
  <path class="fil83" d="M11785 12172c-88,-15 -258,-25 -455,-25 -189,0 -354,9 -445,24 0,-1 -1,-2 -2,-3 95,-14 260,-23 447,-23 194,0 364,10 458,25 -1,1 -2,2 -3,2z"/>
  <path class="fil25" d="M11330 12246c-285,0 -517,-22 -517,-50 0,-9 26,-18 72,-25 1,1 2,2 4,3 -38,6 -60,14 -60,22 0,27 225,48 501,48 277,0 502,-21 502,-48 0,-7 -18,-14 -51,-21 2,-1 3,-2 4,-3 40,7 63,16 63,24 0,28 -232,50 -518,50z"/>
  <path class="fil83" d="M11781 12175c-81,-16 -252,-27 -451,-27 -191,0 -357,11 -441,26 -2,-1 -3,-2 -4,-3 91,-15 256,-24 445,-24 197,0 367,10 455,25 -1,1 -2,2 -4,3z"/>
  <path class="fil26" d="M11330 12244c-276,0 -501,-21 -501,-48 0,-8 22,-16 60,-22 1,1 2,1 3,2 -30,6 -47,13 -47,20 0,26 218,47 485,47 268,0 485,-21 485,-47 0,-6 -13,-12 -37,-18 1,-1 2,-2 3,-3 33,7 51,14 51,21 0,27 -225,48 -502,48z"/>
  <path class="fil83" d="M11778 12178c-73,-17 -246,-28 -448,-28 -193,0 -361,11 -438,26 -1,-1 -2,-1 -3,-2 84,-15 250,-26 441,-26 199,0 370,11 451,27 -1,1 -2,2 -3,3z"/>
  <path class="fil27" d="M11330 12243c-267,0 -485,-21 -485,-47 0,-7 17,-14 47,-20 1,1 2,2 4,3 -22,6 -34,11 -34,17 0,25 210,45 468,45 259,0 469,-20 469,-45 0,-5 -9,-10 -26,-14 2,-2 3,-3 5,-4 24,6 37,12 37,18 0,26 -217,47 -485,47z"/>
  <path class="fil83" d="M11773 12182c-63,-18 -237,-31 -443,-31 -196,0 -365,12 -434,28 -2,-1 -3,-2 -4,-3 77,-15 245,-26 438,-26 202,0 375,11 448,28 -2,1 -3,2 -5,4z"/>
  <path class="fil28" d="M11330 12241c-258,0 -468,-20 -468,-45 0,-6 12,-11 34,-17 1,2 3,3 5,4 -15,4 -23,8 -23,13 0,24 203,44 452,44 250,0 453,-20 453,-44 0,-4 -5,-7 -15,-11 1,-1 3,-2 5,-3 17,4 26,9 26,14 0,25 -210,45 -469,45z"/>
  <path class="fil83" d="M11768 12185c-52,-18 -228,-32 -438,-32 -200,0 -370,12 -429,30 -2,-1 -4,-2 -5,-4 69,-16 238,-28 434,-28 206,0 380,13 443,31 -2,1 -4,2 -5,3z"/>
  <path class="fil29" d="M11330 12240c-249,0 -452,-20 -452,-44 0,-5 8,-9 23,-13 2,1 4,2 6,3 -8,4 -12,7 -12,10 0,23 195,42 435,42 241,0 436,-19 436,-42 0,-2 -2,-5 -6,-7 2,-1 5,-3 8,-4 10,4 15,7 15,11 0,24 -203,44 -453,44z"/>
  <path class="fil83" d="M11760 12189c-36,-20 -215,-35 -430,-35 -205,0 -377,14 -423,32 -2,-1 -4,-2 -6,-3 59,-18 229,-30 429,-30 210,0 386,14 438,32 -3,1 -6,3 -8,4z"/>
  <path class="fil30" d="M11330 12238c-240,0 -435,-19 -435,-42 0,-3 4,-6 12,-10 3,2 5,3 8,4 -3,2 -4,4 -4,6 0,22 188,41 419,41 232,0 420,-19 420,-41 0,-1 0,-2 -1,-3 4,-1 7,-2 11,-4 4,2 6,5 6,7 0,23 -195,42 -436,42z"/>
  <path class="fil83" d="M11749 12193c-17,-21 -198,-37 -419,-37 -210,0 -385,15 -415,34 -3,-1 -5,-2 -8,-4 46,-18 218,-32 423,-32 215,0 394,15 430,35 -4,2 -7,3 -11,4z"/>
  <path class="fil31" d="M11330 12237c-231,0 -419,-19 -419,-41 0,-2 1,-4 4,-6 4,2 8,3 13,4 -1,1 -1,2 -1,2 0,22 181,39 403,39 222,0 402,-17 404,-39 5,0 10,-1 15,-3 1,1 1,2 1,3 0,22 -188,41 -420,41z"/>
  <path class="fil83" d="M11734 12196c0,0 0,0 0,0 0,-21 -181,-38 -404,-38 -216,0 -393,16 -402,36 -5,-1 -9,-2 -13,-4 30,-19 204,-34 415,-34 221,0 402,16 419,37 -5,2 -10,3 -15,3z"/>
  <path class="fil32" d="M11330 12235c-222,0 -403,-17 -403,-39 0,0 0,-1 1,-2 5,2 10,3 16,3 4,20 176,36 386,36 210,0 381,-16 387,-36l4 0c4,0 8,0 13,-1 -2,22 -182,39 -404,39z"/>
  <path class="fil83" d="M11721 12197l-4 0c0,0 0,0 0,-1 0,-20 -173,-37 -387,-37 -213,0 -386,17 -386,37 0,1 0,1 0,1 -6,0 -11,-1 -16,-3 9,-20 186,-36 402,-36 223,0 404,17 404,38 0,0 0,0 0,0 -5,1 -9,1 -13,1z"/>
  <path class="fil33" d="M11330 12233c-210,0 -382,-16 -386,-36 2,0 5,0 7,0l9 0c7,19 170,35 370,35 201,0 364,-16 371,-35l16 0c-6,20 -177,36 -387,36z"/>
  <path class="fil83" d="M11717 12197l-16 0c0,0 0,0 0,-1 0,-19 -166,-35 -371,-35 -204,0 -370,16 -370,35 0,1 0,1 0,1l-9 0c-2,0 -5,0 -7,0 0,0 0,0 0,-1 0,-20 173,-37 386,-37 214,0 387,17 387,37 0,1 0,1 0,1z"/>
  <path class="fil34" d="M11330 12232c-200,0 -363,-16 -370,-35l17 0c6,19 162,33 353,33 192,0 348,-14 354,-33l17 0c-7,19 -170,35 -371,35z"/>
  <path class="fil83" d="M11701 12197l-17 0c1,0 1,0 1,-1 0,-18 -159,-34 -355,-34 -195,0 -354,16 -354,34 0,1 0,1 1,1l-17 0c0,0 0,0 0,-1 0,-19 166,-35 370,-35 205,0 371,16 371,35 0,1 0,1 0,1z"/>
  <path class="fil35" d="M11330 12230c-191,0 -347,-14 -353,-33l16 0c6,18 155,32 337,32 183,0 332,-14 338,-32l16 0c-6,19 -162,33 -354,33z"/>
  <path class="fil83" d="M11684 12197l-16 0c0,0 0,0 0,-1 0,-18 -151,-32 -338,-32 -186,0 -337,14 -337,32 0,1 0,1 0,1l-16 0c-1,0 -1,0 -1,-1 0,-18 159,-34 354,-34 196,0 355,16 355,34 0,1 0,1 -1,1z"/>
  <path class="fil36" d="M11330 12229c-182,0 -331,-14 -337,-32l16 0c7,17 148,30 321,30 174,0 315,-13 322,-30l16 0c-6,18 -155,32 -338,32z"/>
  <path class="fil83" d="M11668 12197l-16 0c0,0 0,0 0,-1 0,-17 -144,-30 -322,-30 -177,0 -321,13 -321,30 0,1 0,1 0,1l-16 0c0,0 0,0 0,-1 0,-18 151,-32 337,-32 187,0 338,14 338,32 0,1 0,1 0,1z"/>
  <path class="fil37" d="M11330 12227c-173,0 -314,-13 -321,-30l17 0c6,16 140,28 304,28 165,0 299,-12 305,-28l17 0c-7,17 -148,30 -322,30z"/>
  <path class="fil83" d="M11652 12197l-17 0c0,0 0,0 0,-1 0,-16 -136,-29 -305,-29 -168,0 -304,13 -304,29 0,1 0,1 0,1l-17 0c0,0 0,0 0,-1 0,-17 144,-30 321,-30 178,0 322,13 322,30 0,1 0,1 0,1z"/>
  <path class="fil38" d="M11330 12225c-164,0 -298,-12 -304,-28l16 0c6,15 133,27 288,27 156,0 283,-12 289,-27l16 0c-6,16 -140,28 -305,28z"/>
  <path class="fil83" d="M11635 12197l-16 0c0,0 0,0 0,-1 0,-15 -129,-27 -289,-27 -159,0 -288,12 -288,27 0,1 0,1 0,1l-16 0c0,0 0,0 0,-1 0,-16 136,-29 304,-29 169,0 305,13 305,29 0,1 0,1 0,1z"/>
  <path class="fil39" d="M11330 12224c-155,0 -282,-12 -288,-27l17 0c6,14 125,26 271,26 147,0 266,-12 272,-26l17 0c-6,15 -133,27 -289,27z"/>
  <path class="fil83" d="M11619 12197l-17 0c1,0 1,0 1,-1 0,-14 -122,-26 -273,-26 -150,0 -272,12 -272,26 0,1 0,1 1,1l-17 0c0,0 0,0 0,-1 0,-15 129,-27 288,-27 160,0 289,12 289,27 0,1 0,1 0,1z"/>
  <path class="fil40" d="M11330 12223c-146,0 -265,-12 -271,-26l16 0c6,14 118,24 255,24 138,0 250,-10 256,-24l16 0c-6,14 -125,26 -272,26z"/>
  <path class="fil83" d="M11602 12197l-16 0c0,0 0,0 0,-1 0,-13 -114,-24 -256,-24 -141,0 -256,11 -256,24 0,1 0,1 1,1l-16 0c-1,0 -1,0 -1,-1 0,-14 122,-26 272,-26 151,0 273,12 273,26 0,1 0,1 -1,1z"/>
  <path class="fil41" d="M11330 12221c-137,0 -249,-10 -255,-24l16 0c6,13 111,22 239,22 129,0 233,-9 240,-22l16 0c-6,14 -118,24 -256,24z"/>
  <path class="fil83" d="M11586 12197l-16 0c0,0 0,0 0,-1 0,-12 -107,-23 -240,-23 -132,0 -239,11 -239,23 0,1 0,1 0,1l-16 0c-1,0 -1,0 -1,-1 0,-13 115,-24 256,-24 142,0 256,11 256,24 0,1 0,1 0,1z"/>
  <path class="fil42" d="M11330 12219c-128,0 -233,-9 -239,-22l16 0c7,12 104,21 223,21 120,0 217,-9 223,-21l17 0c-7,13 -111,22 -240,22z"/>
  <path class="fil83" d="M11570 12197l-17 0c0,0 1,0 1,-1 0,-11 -100,-21 -224,-21 -123,0 -223,10 -223,21 0,1 0,1 0,1l-16 0c0,0 0,0 0,-1 0,-12 107,-23 239,-23 133,0 240,11 240,23 0,1 0,1 0,1z"/>
  <path class="fil43" d="M11330 12218c-119,0 -216,-9 -223,-21l17 0c6,11 96,19 206,19 111,0 201,-8 207,-19l16 0c-6,12 -103,21 -223,21z"/>
  <path class="fil83" d="M11553 12197l-16 0c0,0 0,0 0,-1 0,-11 -92,-19 -207,-19 -114,0 -207,8 -207,19 0,1 1,1 1,1l-17 0c0,0 0,0 0,-1 0,-11 100,-21 223,-21 124,0 224,10 224,21 0,1 -1,1 -1,1z"/>
  <path class="fil44" d="M11330 12216c-110,0 -200,-8 -206,-19l16 0c6,10 89,18 190,18 102,0 184,-8 190,-18l17 0c-6,11 -96,19 -207,19z"/>
  <path class="fil83" d="M11537 12197l-17 0c1,0 1,0 1,-1 0,-10 -85,-18 -191,-18 -105,0 -190,8 -190,18 0,1 0,1 0,1l-16 0c0,0 -1,0 -1,-1 0,-11 93,-19 207,-19 115,0 207,8 207,19 0,1 0,1 0,1z"/>
  <path class="fil45" d="M11330 12215c-101,0 -184,-8 -190,-18l17 0c6,9 81,16 173,16 93,0 168,-7 174,-16l16 0c-6,10 -88,18 -190,18z"/>
  <path class="fil83" d="M11520 12197l-16 0c1,0 1,0 1,-1 0,-9 -78,-16 -175,-16 -96,0 -174,7 -174,16 0,1 0,1 1,1l-17 0c0,0 0,0 0,-1 0,-10 85,-18 190,-18 106,0 191,8 191,18 0,1 0,1 -1,1z"/>
  <path class="fil46" d="M11330 12213c-92,0 -167,-7 -173,-16l16 0c6,8 74,14 157,14 84,0 152,-6 158,-14l16 0c-6,9 -81,16 -174,16z"/>
  <path class="fil83" d="M11504 12197l-16 0c0,0 0,0 0,-1 0,-8 -70,-15 -158,-15 -87,0 -157,7 -157,15 0,1 0,1 0,1l-16 0c-1,0 -1,0 -1,-1 0,-9 78,-16 174,-16 97,0 175,7 175,16 0,1 0,1 -1,1z"/>
  <path class="fil47" d="M11330 12211c-83,0 -151,-6 -157,-14l16 0c7,7 67,13 141,13 75,0 135,-6 141,-13l17 0c-6,8 -74,14 -158,14z"/>
  <path class="fil83" d="M11488 12197l-16 0c0,0 0,0 0,-1 0,-7 -63,-13 -142,-13 -78,0 -141,6 -141,13 0,1 0,1 0,1l-16 0c0,0 0,0 0,-1 0,-8 70,-15 157,-15 88,0 158,7 158,15 0,1 0,1 0,1z"/>
  <path class="fil48" d="M11330 12210c-74,0 -134,-6 -141,-13l17 0c6,7 60,11 124,11 65,0 119,-4 125,-11l17 0c-7,7 -67,13 -142,13z"/>
  <path class="fil83" d="M11472 12197l-17 0c0,0 1,0 1,-1 0,-6 -57,-12 -126,-12 -69,0 -125,6 -125,12 0,1 1,1 1,1l-17 0c0,0 0,0 0,-1 0,-7 63,-13 141,-13 79,0 142,6 142,13 0,1 0,1 0,1z"/>
  <path class="fil49" d="M11330 12208c-64,0 -118,-4 -124,-11l249 0c-6,7 -60,11 -125,11z"/>
  <path class="fil83" d="M11455 12197l-249 0c0,0 -1,0 -1,-1 0,-6 56,-12 125,-12 69,0 126,6 126,12 0,1 -1,1 -1,1z"/>
  <path class="fil106" d="M14340 11736c-65,-54 -131,-107 -198,-160 -9,-8 -19,-16 -29,-24 77,60 152,122 227,184zm278 232c3,3 5,6 6,8 2,2 3,3 5,5 -6,1 -12,2 -18,3 -6,-2 -16,-12 -21,-16 -3,-3 -6,-5 -10,-7 9,6 18,12 27,18 7,4 14,-5 11,-11zm-249 -177c-28,-24 -57,-48 -85,-72 -30,-26 -60,-53 -90,-79 88,72 176,144 264,217 -30,-22 -60,-44 -89,-66zm88 92c31,25 63,50 95,75 1,1 2,2 3,3 -33,-26 -66,-52 -98,-78zm-325 -463c-51,-18 -102,-34 -154,-48 -40,-18 -80,-35 -121,-51 -11,-5 -19,11 -8,17 3,2 6,4 9,6 0,0 0,0 1,1 0,1 1,2 2,3 0,2 1,4 2,6 -1,0 -2,1 -3,1 -1,0 -1,0 -2,0 0,-1 0,-1 0,-1 -5,-11 -22,-6 -18,5 1,1 1,1 1,2 0,3 1,6 3,9 6,15 12,30 17,45 9,28 19,57 31,84 19,53 41,105 67,154 5,9 21,2 17,-7 -2,-5 -4,-9 -6,-13 0,0 0,0 1,0 1,2 3,4 4,6 6,9 22,3 17,-8 -3,-8 -7,-16 -11,-24 1,-2 1,-3 0,-5 -3,-8 -6,-15 -9,-22 1,0 2,0 2,0 3,1 6,0 7,-3 1,-1 1,-2 2,-3 3,-7 -7,-11 -11,-5 5,-7 -20,-46 -24,-54 -5,-11 -9,-21 -14,-31 -9,-24 -19,-47 -28,-71 14,15 29,29 44,43 203,209 426,397 663,566 7,5 17,-5 9,-11 -8,-6 -17,-13 -25,-19 23,14 47,21 55,-6 1,-3 0,-6 -2,-8 -228,-199 -464,-391 -705,-575 63,20 125,39 188,59 9,3 14,-8 11,-15 2,-5 1,-11 -5,-13 0,-1 -1,-1 -2,-1 2,-5 2,-11 -5,-13z"/>
  <path class="fil106" d="M7989 12955c66,-53 132,-107 198,-159 10,-9 20,-17 29,-25 -76,61 -152,122 -227,184zm-277 233c-3,2 -5,5 -6,8 -2,1 -4,3 -6,4 6,1 12,2 18,3 7,-2 16,-12 22,-16 3,-2 6,-4 9,-7 -9,6 -18,12 -27,18 -6,5 -13,-4 -10,-10zm249 -178c28,-24 56,-47 84,-72 31,-26 61,-52 90,-79 -87,72 -175,145 -263,217 29,-22 59,-44 89,-66zm-88 92c-32,26 -64,51 -95,76 -1,0 -3,1 -4,2 33,-25 66,-51 99,-78zm324 -463c51,-18 103,-33 155,-48 40,-17 80,-34 120,-51 12,-5 20,11 9,18 -3,1 -6,3 -9,5 0,0 -1,1 -1,1 -1,1 -1,3 -2,4 -1,2 -2,3 -2,5 1,1 2,1 3,2 0,-1 1,-1 1,-1 1,0 1,-1 1,-1 4,-11 21,-5 17,6 0,0 0,1 0,1 0,3 -1,7 -4,9 -5,15 -11,30 -17,45 -9,29 -19,57 -31,85 -19,52 -40,104 -67,154 -5,9 -20,2 -16,-8 2,-4 3,-9 5,-13 0,0 0,0 0,0 -2,2 -3,5 -5,7 -6,8 -21,2 -17,-8 4,-8 8,-16 11,-25 0,-1 0,-3 0,-5 3,-7 6,-15 9,-22 -1,0 -1,1 -2,1 -3,0 -5,-1 -7,-3 0,-1 -1,-2 -1,-3 -4,-7 7,-12 10,-6 -4,-7 21,-46 25,-54 4,-10 9,-20 13,-31 10,-23 19,-47 29,-71 -15,15 -30,29 -45,44 -203,208 -425,396 -662,565 -8,6 -18,-5 -10,-10 9,-7 17,-13 26,-20 -23,15 -48,22 -56,-6 -1,-2 1,-5 2,-7 229,-200 464,-391 705,-576 -62,20 -125,40 -187,59 -9,3 -15,-8 -11,-14 -3,-5 -2,-12 4,-14 1,0 2,0 3,-1 -3,-5 -2,-11 4,-13z"/>
  <path class="fil106" d="M14219 7753c-66,53 -132,106 -198,159 -10,8 -20,16 -29,24 76,-60 152,-121 227,-183zm277 -233c3,-3 5,-6 6,-8 2,-2 4,-3 6,-5 -6,-1 -12,-1 -18,-2 -7,1 -16,11 -22,15 -3,3 -6,5 -9,7 9,-6 18,-12 27,-18 6,-4 13,5 10,11zm-249 178c-28,23 -56,47 -84,71 -31,26 -61,53 -91,80 88,-73 176,-145 264,-217 -29,21 -59,43 -89,66zm88 -93c32,-25 64,-50 95,-75 1,-1 3,-2 4,-3 -33,26 -66,52 -99,78zm-324 464c-51,17 -103,33 -155,48 -40,17 -80,34 -120,50 -12,5 -20,-10 -9,-17 3,-2 6,-4 9,-5 0,-1 1,-1 1,-1 0,-2 1,-3 2,-4 1,-2 2,-4 2,-6 -1,0 -2,0 -3,-1 0,0 -1,0 -1,1 -1,0 -1,0 -1,1 -4,10 -21,5 -17,-6 0,0 0,-1 0,-2 0,-3 1,-6 4,-8 5,-15 11,-30 17,-45 9,-29 19,-57 31,-85 19,-53 40,-105 67,-154 5,-9 20,-2 16,8 -2,4 -3,8 -5,12 0,0 0,0 0,0 1,-2 3,-4 5,-6 5,-8 21,-3 17,8 -4,8 -8,16 -11,24 0,2 0,4 0,6 -3,7 -6,14 -9,21 1,0 1,0 2,0 3,-1 5,1 7,3 0,1 1,2 1,3 4,7 -7,12 -11,5 5,8 -20,46 -24,55 -4,10 -9,20 -13,30 -10,24 -19,48 -29,71 15,-14 30,-29 45,-43 203,-209 425,-397 662,-566 8,-5 17,6 10,11 -9,6 -17,13 -26,19 23,-14 48,-21 56,6 1,3 -1,6 -2,8 -229,200 -464,391 -705,575 62,-19 125,-39 187,-59 9,-2 15,8 11,15 3,5 2,11 -4,14 -1,0 -2,0 -3,0 3,5 2,11 -4,14z"/>
  <path class="fil106" d="M6733 6838c68,50 137,100 206,150 10,7 20,15 30,22 -79,-56 -158,-114 -236,-172zm-289 -218c-3,-3 -5,-5 -6,-8 -2,-1 -4,-3 -6,-4 6,-1 12,-3 18,-4 7,1 17,11 22,15 4,2 7,4 10,6 -9,-5 -19,-11 -28,-16 -7,-4 -13,5 -10,11zm258 165c29,22 59,44 88,67 31,25 63,50 94,75 -92,-68 -183,-136 -275,-204 31,20 62,41 93,62zm-93 -88c-33,-24 -66,-47 -99,-70 -1,-1 -2,-2 -3,-3 34,24 68,48 102,73zm347 446c52,15 105,29 157,41 41,15 82,30 123,44 12,4 19,-12 8,-17 -3,-2 -6,-4 -9,-5 -1,-1 -1,-1 -1,-2 -1,-1 -2,-2 -3,-3 0,-2 -1,-4 -2,-5 1,-1 2,-1 3,-2 0,0 1,0 2,1 0,0 0,0 0,1 5,10 22,4 17,-7 0,0 0,-1 -1,-2 1,-3 -1,-6 -3,-8 -7,-15 -13,-30 -20,-44 -10,-28 -22,-56 -35,-83 -21,-52 -45,-103 -74,-151 -6,-9 -21,-1 -16,9 2,4 4,8 6,12 -1,0 -1,0 -1,0 -1,-2 -3,-4 -4,-6 -7,-8 -22,-1 -17,9 4,8 8,16 12,24 -1,1 0,3 0,5 4,7 7,14 10,21 0,0 -1,0 -2,0 -3,-1 -5,1 -6,3 -1,1 -1,2 -2,3 -3,7 7,12 11,5 -4,8 23,45 27,53 5,10 10,20 15,30 11,23 22,46 32,70 -15,-14 -31,-28 -47,-41 -213,-199 -444,-375 -689,-532 -8,-5 -18,6 -10,11 9,6 18,12 27,18 -24,-13 -48,-19 -55,9 -1,3 0,6 2,7 239,188 483,368 733,540 -63,-17 -127,-33 -190,-50 -9,-2 -14,9 -10,15 -2,5 -1,12 5,14 1,0 1,0 2,0 -2,5 -1,11 5,13z"/>
  <path class="fil106" d="M12324 13571c-32,-78 -65,-157 -99,-234 -4,-12 -9,-24 -14,-35 39,89 77,179 113,269zm135 336c1,3 2,7 2,10 1,2 1,4 2,6 -5,-2 -11,-4 -17,-6 -5,-4 -8,-18 -11,-24 -2,-4 -4,-7 -5,-11 5,10 10,20 15,29 4,7 14,2 14,-4zm-135 -274c-14,-35 -28,-69 -41,-104 -14,-37 -28,-74 -42,-112 43,105 87,211 130,316 -16,-33 -32,-67 -47,-100zm34 122c16,38 32,75 48,112 1,1 1,2 2,4 -18,-39 -34,-77 -50,-116zm-68 -561c-36,-40 -74,-78 -113,-115 -27,-35 -55,-68 -83,-102 -8,-10 -22,0 -15,11 1,3 3,6 5,9 0,1 0,1 1,2 -1,1 -1,2 0,4 -1,2 -1,4 -1,6 -1,-1 -2,-1 -3,0 -1,-1 -1,-1 -2,-2 0,0 0,-1 0,-1 2,-12 -16,-15 -18,-3 0,0 0,1 0,2 -1,2 -2,6 -1,9 -2,16 -4,32 -6,47 -6,30 -10,60 -13,90 -8,55 -14,111 -14,167 0,11 17,11 18,1 1,-4 1,-9 2,-14 0,0 0,0 0,0 0,3 1,6 1,8 1,10 18,13 19,1 0,-8 1,-17 2,-26 1,-1 2,-3 2,-5 1,-8 2,-16 3,-24 0,1 1,2 1,2 2,2 5,2 8,0 1,0 1,-1 2,-1 7,-5 0,-14 -7,-10 8,-5 4,-50 5,-60 1,-11 1,-22 2,-33 3,-25 6,-51 9,-76 6,20 12,40 19,59 80,280 187,551 316,812 5,8 18,3 14,-5 -5,-10 -9,-20 -14,-30 14,24 32,42 53,22 1,-2 2,-6 1,-8 -107,-284 -224,-564 -350,-840 46,47 92,93 138,140 6,7 16,0 17,-7 4,-4 6,-10 2,-14 -1,-1 -1,-2 -2,-2 5,-3 7,-9 2,-14z"/>
  <path class="fil106" d="M6039 10565c78,-32 157,-64 236,-95 11,-5 23,-10 35,-15 -91,36 -181,73 -271,110zm-333 143c-3,1 -6,3 -8,5 -2,1 -4,2 -7,3 6,3 11,5 17,8 7,0 19,-6 25,-9 4,-1 7,-3 11,-4 -10,3 -21,6 -31,10 -8,2 -12,-9 -7,-13zm290 -99c34,-14 68,-29 101,-44 37,-16 73,-33 110,-49 -105,43 -211,87 -316,131 35,-12 70,-25 105,-38zm-111 63c-38,15 -75,30 -113,45 -1,0 -3,1 -4,1 39,-14 78,-30 117,-46zm444 -349c54,-2 108,-2 162,-1 44,-5 87,-10 130,-14 13,-1 16,16 4,19 -4,1 -7,2 -11,3 0,0 0,0 -1,0 -1,1 -1,2 -3,3 -1,2 -2,3 -3,5 0,1 1,1 2,2 1,0 1,0 2,0 0,0 0,-1 1,-1 7,-9 22,1 15,11 -1,0 -1,0 -2,1 0,3 -2,6 -5,7 -10,13 -20,26 -30,39 -16,24 -34,49 -54,72 -33,45 -69,88 -109,128 -7,7 -19,-4 -13,-12 3,-4 6,-8 9,-11 0,0 0,0 0,0 -2,1 -4,3 -7,5 -8,6 -21,-4 -14,-13 6,-7 12,-13 18,-20 0,-2 0,-3 2,-5 5,-6 9,-12 14,-19 0,0 -1,1 -2,1 -3,-1 -5,-3 -5,-5 -1,-2 -1,-3 -1,-4 -2,-7 10,-9 12,-2 -3,-8 32,-38 39,-45 7,-8 14,-17 22,-25 16,-20 32,-40 47,-60 -18,10 -36,19 -55,29 -254,141 -522,256 -798,349 -8,3 -15,-10 -6,-13 10,-3 20,-7 31,-11 -27,7 -52,7 -52,-22 0,-2 2,-5 4,-6 277,-125 558,-240 842,-347 -66,1 -132,1 -197,2 -9,0 -12,-12 -7,-17 0,-5 2,-11 9,-12 1,0 1,0 2,0 -1,-5 2,-11 8,-11z"/>
  <path class="fil106" d="M10723 6027c4,85 9,170 14,254 0,13 1,25 1,38 -6,-97 -11,-194 -15,-292zm-11 -361c0,-4 0,-8 2,-10 0,-3 0,-5 0,-7 4,3 9,7 13,11 4,6 3,20 3,27 0,4 1,7 1,11 -1,-10 -3,-21 -5,-32 -1,-7 -12,-7 -14,0zm33 303c2,37 3,74 3,111 1,40 1,80 1,120 -4,-113 -9,-227 -14,-341 4,37 7,74 10,110zm10 -127c-2,-40 -4,-80 -7,-121 0,-1 0,-2 0,-4 3,42 5,83 7,125zm-128 551c21,50 43,99 67,147 14,42 28,83 43,124 4,12 20,7 18,-5 0,-4 -1,-7 -2,-11 0,0 0,-1 0,-1 1,-1 2,-2 2,-4 1,-2 1,-3 2,-5 1,0 2,1 3,1 1,1 1,1 1,2 0,0 0,0 0,1 -5,10 10,19 15,9 1,-1 1,-1 1,-2 3,-2 5,-5 5,-8 7,-14 14,-28 22,-43 15,-25 29,-52 42,-79 27,-49 51,-100 70,-153 4,-10 -12,-16 -16,-7 -2,4 -4,8 -7,13 0,0 0,0 0,0 1,-3 2,-6 2,-8 2,-10 -12,-18 -17,-8 -4,8 -7,16 -11,25 -2,0 -3,2 -4,3 -3,7 -7,15 -10,22 -1,-1 -1,-2 -1,-3 -2,-2 -4,-3 -7,-2 -1,0 -2,0 -3,0 -8,2 -5,13 3,12 -9,1 -21,46 -25,54 -4,10 -9,21 -13,31 -12,23 -23,46 -34,68 1,-20 2,-41 2,-62 21,-290 12,-581 -20,-871 -1,-9 -15,-9 -14,0 1,11 2,22 2,33 -4,-27 -15,-50 -41,-38 -3,1 -4,4 -4,7 3,303 18,606 41,909 -27,-60 -54,-120 -81,-179 -4,-9 -16,-6 -19,1 -5,2 -9,6 -7,13 1,0 1,1 1,2 -5,1 -9,6 -6,12z"/>
 </g>
</svg>
