<?xml version="1.0" encoding="UTF-8"?>
<!DOCTYPE svg PUBLIC "-//W3C//DTD SVG 1.0//EN" "http://www.w3.org/TR/2001/REC-SVG-20010904/DTD/svg10.dtd">
<!-- Creator: CorelDRAW X7 -->
<svg xmlns="http://www.w3.org/2000/svg" xml:space="preserve" width="200mm" height="200mm" version="1.0" style="shape-rendering:geometricPrecision; text-rendering:geometricPrecision; image-rendering:optimizeQuality; fill-rule:evenodd; clip-rule:evenodd"
viewBox="0 0 20000 20000"
 xmlns:xlink="http://www.w3.org/1999/xlink">
 <defs>
  <style type="text/css">
   <![CDATA[
    .str1 {stroke:#AB8082;stroke-width:81.77}
    .str7 {stroke:#AB8082;stroke-width:81.78}
    .str5 {stroke:#737370;stroke-width:67.92;stroke-linecap:round;stroke-linejoin:round}
    .str3 {stroke:#B54F66;stroke-width:67.92;stroke-linecap:round;stroke-linejoin:round}
    .str0 {stroke:#2E99A3;stroke-width:132.61;stroke-linecap:round;stroke-linejoin:round}
    .str2 {stroke:#57A6B3;stroke-width:10.17;stroke-linecap:round;stroke-linejoin:round}
    .str6 {stroke:#57A6B3;stroke-width:10.19;stroke-linecap:round;stroke-linejoin:round}
    .str4 {stroke:#CC5770;stroke-width:108.03;stroke-linecap:round;stroke-linejoin:round;stroke-dasharray:84.660000 253.980000}
    .fil8 {fill:none}
    .fil14 {fill:none;fill-rule:nonzero}
    .fil16 {fill:#738287}
    .fil7 {fill:#ABC9BF}
    .fil3 {fill:#B3B3B3}
    .fil2 {fill:#BDD6D1}
    .fil6 {fill:#C4C7C7}
    .fil1 {fill:#C9E6E8}
    .fil12 {fill:#CC5770}
    .fil4 {fill:#D9D9D9}
    .fil5 {fill:#2E99A3;fill-rule:nonzero}
    .fil10 {fill:#57A6B3;fill-rule:nonzero}
    .fil11 {fill:#5C5C5C;fill-rule:nonzero}
    .fil15 {fill:#738287;fill-rule:nonzero}
    .fil9 {fill:#AB8082;fill-rule:nonzero}
    .fil13 {fill:#B54F66;fill-rule:nonzero}
    .fil0 {fill:url(#id0)}
   ]]>
  </style>
  <radialGradient id="id0" gradientUnits="userSpaceOnUse" gradientTransform="matrix(1.41421 -0 -0 1.41421 -4129 -4150)" cx="9969.31" cy="10020" r="10000" fx="9969.31" fy="10020">
   <stop offset="0" style="stop-opacity:1; stop-color:#FEFEFE"/>
   <stop offset="0.439216" style="stop-opacity:1; stop-color:#FEFEFE"/>
   <stop offset="1" style="stop-opacity:1; stop-color:#D1E2F2"/>
  </radialGradient>
 </defs>
 <g id="Layer_x0020_1">
  <metadata id="CorelCorpID_0Corel-Layer"/>
  <path class="fil0" d="M-31 20l20000 0 0 20000 -20000 0 0 -20000z"/>
  <g id="_623525553072">
   <path class="fil1" d="M2956 12689l0 -3493 3340 0 0 3493 -3340 0z"/>
   <path class="fil2" d="M7174 11625l0 -3394 -878 965 0 3493 878 -1064z"/>
   <path class="fil3" d="M7117 8635l0 -326 -821 887 0 326 821 -887z"/>
   <g>
    <path class="fil4" d="M3933 8231l3241 0 -878 965 -3340 0 977 -965z"/>
    <path id="1" class="fil5" d="M7174 8297l-3241 0 0 -132 3241 0 48 111 -48 21zm0 -132c36,0 65,29 65,66 0,37 -29,66 -65,66l0 -132zm-926 986l877 -965 97 90 -877 965 -49 21 -48 -111zm97 90c-25,27 -66,29 -93,4 -27,-25 -28,-67 -4,-94l97 90zm-3389 -111l3340 0 0 132 -3340 0 -46 -113 46 -19zm0 132c-36,0 -65,-29 -65,-66 0,-37 29,-66 65,-66l0 132zm1023 -983l-977 964 -92 -94 978 -965 45 -19 46 114zm-91 -95c25,-26 67,-25 92,1 26,26 25,68 -1,94l-91 -95z"/>
   </g>
   <path class="fil6" d="M2956 9522l0 -326 3340 0 0 326 -3340 0z"/>
   <path class="fil2" d="M3860 11725l3240 0 -804 964 -3340 0 904 -964z"/>
   <path class="fil7" d="M6296 11725l0 964 795 -964 -795 0z"/>
   <g>
    <path class="fil5" d="M7240 8231l0 3394 -133 0 0 -3394 17 -44 116 44zm-133 0c0,-36 30,-65 67,-65 36,0 66,29 66,65l-133 0zm-860 921l877 -965 99 88 -877 965 -116 -44 17 -44zm99 88c-25,27 -67,29 -94,5 -27,-24 -29,-66 -5,-93l99 88zm-116 3449l0 -3493 133 0 0 3493 -15 42 -118 -42zm133 0c0,37 -30,66 -67,66 -36,0 -66,-29 -66,-66l133 0zm862 -1023l-877 1065 -103 -83 877 -1065 118 42 -15 41zm-103 -83c23,-28 65,-32 94,-9 28,23 32,64 9,92l-103 -83z"/>
   </g>
   <path class="fil8 str0" d="M7174 8630l-811 892 -3394 0"/>
   <path class="fil8 str0" d="M2956 12689l0 -3493 3340 0 0 3493 -3340 0z"/>
   <path class="fil9 str1" d="M4963 10298c-21,0 -35,9 -47,21 -63,70 -135,140 -211,210 -23,22 -32,49 -1,80 29,29 56,18 80,-1 46,-39 95,-89 135,-137l0 634 -163 0c-32,0 -58,17 -58,59 0,42 26,59 58,59l422 0c33,0 59,-17 59,-59 0,-42 -26,-59 -59,-59l-137 0 0 -746c0,-34 -10,-61 -56,-61l-22 0z"/>
   <path class="fil9" d="M4202 10984c0,23 3,47 5,62l-1 0 -190 -390c-10,-21 -23,-29 -39,-29 -29,0 -40,19 -40,39l0 526c0,21 10,39 39,39 27,0 38,-18 38,-39l0 -318c0,-23 -4,-46 -5,-62l0 0 190 391c10,20 24,28 39,28 29,0 41,-18 41,-39l0 -526c0,-20 -11,-39 -40,-39 -27,0 -37,19 -37,39l0 318zm212 -180c-25,0 -32,-14 -32,-38l0 -42c0,-23 7,-37 32,-37l12 0c26,0 32,14 32,37l0 42c0,24 -6,38 -32,38l-12 0zm13 56c58,0 86,-38 86,-89l0 -51c0,-51 -28,-89 -86,-89l-14 0c-58,0 -86,38 -86,89l0 51c0,51 28,89 86,89l14 0zm58 99c18,0 30,-8 30,-30 0,-22 -12,-30 -30,-30l-129 0c-18,0 -31,8 -31,30 0,22 13,30 31,30l129 0z"/>
   <path class="fil10 str2" d="M4024 11816c0,-41 -18,-67 -53,-79 24,-15 36,-34 36,-65l0 -17c0,-56 -32,-85 -95,-85l-59 0c-17,0 -24,11 -24,23l0 306c0,12 7,23 24,23l75 0c64,0 96,-33 96,-90l0 -16zm-148 -51l52 0c35,0 49,20 49,51l0 16c0,30 -14,45 -49,45l-52 0 0 -112zm0 -44l0 -106 36 0c34,0 48,10 48,40l0 17c0,30 -14,49 -48,49l-36 0zm286 -15l-34 0 0 -118c0,-12 -7,-23 -24,-23 -17,0 -24,11 -24,23l0 311c0,12 7,23 24,23l58 0c64,0 94,-34 94,-90l0 -30c0,-56 -30,-96 -94,-96zm-34 46l34 0c35,0 47,19 47,50l0 30c0,30 -12,45 -47,45l-34 0 0 -125zm211 152l0 -316c0,-12 -7,-23 -24,-23 -16,0 -23,11 -23,23l0 316c0,12 6,23 23,23 16,0 24,-11 24,-23zm165 -195l-46 0 0 -94 102 0c12,0 22,-6 22,-22 0,-16 -10,-23 -22,-23l-126 0c-16,0 -23,10 -23,22l0 307c0,12 8,23 24,23l69 0c64,0 93,-33 93,-90l0 -29c0,-55 -29,-94 -93,-94zm47 123c0,30 -13,46 -47,46l-46 0 0 -126 46 0c34,0 47,19 47,50l0 30zm145 -169c0,-31 11,-53 45,-53l15 0c35,0 46,22 46,53l0 166c0,31 -11,53 -46,53l-15 0c-34,0 -45,-22 -45,-53l0 -166zm154 0c0,-55 -30,-98 -94,-98l-15 0c-64,0 -93,43 -93,98l0 166c0,56 29,98 93,98l15 0c64,0 94,-42 94,-98l0 -166zm114 77l0 -125 51 0c35,0 47,15 47,45l0 30c0,31 -12,50 -47,50l-51 0zm51 45c64,0 93,-39 93,-95l0 -30c0,-56 -29,-90 -93,-90l-75 0c-16,0 -23,11 -23,23l0 311c0,12 7,23 24,23 16,0 23,-11 23,-23l0 -119 51 0zm233 -79l-35 0 0 -118c0,-12 -7,-23 -24,-23 -16,0 -23,11 -23,23l0 311c0,12 7,23 23,23l59 0c64,0 93,-34 93,-90l0 -30c0,-56 -29,-96 -93,-96zm-35 46l35 0c34,0 47,19 47,50l0 30c0,30 -13,45 -47,45l-35 0 0 -125zm211 152l0 -316c0,-12 -7,-23 -23,-23 -16,0 -24,11 -24,23l0 316c0,12 7,23 23,23 16,0 24,-11 24,-23z"/>
   <g>
    <path class="fil11" d="M4007 8814c-53,0 -95,-45 -95,-100 0,-56 42,-100 95,-100l0 200zm2027 0l-2027 0 0 -200 2027 0 0 200zm0 -200c53,0 95,44 95,100 0,55 -42,100 -95,100l0 -200z"/>
   </g>
   <path class="fil12" d="M2880 8613l32 43c20,-13 40,-24 61,-35 26,-13 59,-2 72,24 14,27 4,61 -23,74 -15,8 -30,14 -44,23l17 23 -88 266 -671 507 -96 -126 -115 -152 -96 -127 672 -508 279 -12z"/>
   <path class="fil8 str3" d="M2685 8946c-8,-47 -52,-79 -100,-71 -47,7 -78,52 -71,99"/>
   <path class="fil8 str4" d="M3966 9091c113,354 -75,736 -427,861"/>
   <path class="fil13" d="M2988 8616c140,-63 294,-80 440,-54 177,33 343,129 461,284l0 0c14,19 27,38 39,57 22,35 1,67 -40,67l-60 0c-11,-20 -11,-40 -25,-59l0 0 0 0c-100,-133 -243,-215 -394,-242 -128,-24 -263,-8 -384,49l-3 1c27,-13 37,-47 23,-74 -11,-21 -34,-33 -57,-29zm-157 1248c135,108 306,169 487,164 30,-1 53,-26 52,-56 -1,-30 -26,-53 -55,-52 -155,4 -302,-47 -417,-140 -248,-198 -221,-406 -237,-700 -2,-36 -4,-74 -7,-128 -2,-30 -27,-53 -57,-51 -29,2 -52,27 -51,57 3,38 5,85 7,128 18,334 -3,554 278,778zm-329 -1164c-36,-137 -94,-283 -167,-433 -75,-153 -169,-311 -274,-464 -17,-25 -11,-58 13,-75 25,-17 59,-11 76,14 107,156 203,318 282,478 69,141 124,279 163,410l-93 70z"/>
   <path class="fil14 str5" d="M3782 8930c8,47 53,78 100,70 47,-8 78,-53 70,-100"/>
   <path class="fil14 str5" d="M3307 10060c48,3 89,-32 93,-80 3,-48 -33,-89 -80,-92"/>
   <path class="fil1" d="M13372 12689l0 -3493 3340 0 0 3493 -3340 0z"/>
   <path class="fil2" d="M17589 11625l0 -3394 -877 965 0 3493 877 -1064z"/>
   <path class="fil3" d="M17532 8635l0 -326 -820 887 0 326 820 -887z"/>
   <g>
    <path class="fil4" d="M14349 8231l3240 0 -877 965 -3340 0 977 -965z"/>
    <path id="1" class="fil5" d="M17589 8297l-3240 0 0 -132 3240 0 49 111 -49 21zm0 -132c36,0 66,29 66,66 0,37 -30,66 -66,66l0 -132zm-925 986l877 -965 97 90 -878 965 -48 21 -48 -111zm96 90c-24,27 -66,29 -92,4 -27,-25 -29,-67 -4,-94l96 90zm-3388 -111l3340 0 0 132 -3340 0 -46 -113 46 -19zm0 132c-36,0 -66,-29 -66,-66 0,-37 30,-66 66,-66l0 132zm1023 -983l-977 964 -92 -94 977 -965 46 -19 46 114zm-92 -95c26,-26 68,-25 93,1 25,26 25,68 -1,94l-92 -95z"/>
   </g>
   <path class="fil6" d="M13372 9522l0 -326 3340 0 0 326 -3340 0z"/>
   <path class="fil2" d="M14276 11725l3240 0 -804 964 -3340 0 904 -964z"/>
   <path class="fil7" d="M16712 11725l0 964 795 -964 -795 0z"/>
   <g>
    <path class="fil5" d="M17656 8231l0 3394 -133 0 0 -3394 17 -44 116 44zm-133 0c0,-36 30,-65 66,-65 37,0 67,29 67,65l-133 0zm-860 921l877 -965 99 88 -878 965 -115 -44 17 -44zm98 88c-24,27 -66,29 -93,5 -27,-24 -30,-66 -5,-93l98 88zm-115 3449l0 -3493 132 0 0 3493 -14 42 -118 -42zm132 0c0,37 -29,66 -66,66 -36,0 -66,-29 -66,-66l132 0zm863 -1023l-877 1065 -103 -83 877 -1065 118 42 -15 41zm-103 -83c23,-28 65,-32 93,-9 29,23 33,64 10,92l-103 -83z"/>
   </g>
   <path class="fil8 str0" d="M17589 8630l-811 892 -3393 0"/>
   <path class="fil8 str0" d="M13372 12689l0 -3493 3340 0 0 3493 -3340 0z"/>
   <path class="fil10 str6" d="M14440 11816c0,-41 -18,-67 -54,-79 25,-15 37,-34 37,-65l0 -17c0,-56 -32,-85 -96,-85l-59 0c-17,0 -24,11 -24,23l0 306c0,12 7,23 24,23l76 0c64,0 96,-33 96,-90l0 -16zm-148 -51l52 0c35,0 48,20 48,51l0 16c0,30 -13,45 -48,45l-52 0 0 -112zm0 -44l0 -106 35 0c35,0 49,10 49,40l0 17c0,30 -14,49 -49,49l-35 0zm286 -15l-35 0 0 -118c0,-12 -7,-23 -23,-23 -17,0 -24,11 -24,23l0 311c0,12 7,23 23,23l59 0c64,0 93,-34 93,-90l0 -30c0,-56 -29,-96 -93,-96zm-35 46l35 0c35,0 47,19 47,50l0 30c0,30 -12,45 -47,45l-35 0 0 -125zm211 152l0 -316c0,-12 -6,-23 -23,-23 -16,0 -24,11 -24,23l0 316c0,12 7,23 24,23 16,0 23,-11 23,-23zm165 -195l-45 0 0 -94 102 0c11,0 22,-6 22,-22 0,-16 -11,-23 -22,-23l-126 0c-16,0 -23,10 -23,22l0 307c0,12 7,23 23,23l69 0c64,0 94,-33 94,-90l0 -29c0,-55 -30,-94 -94,-94zm47 123c0,30 -12,46 -47,46l-45 0 0 -126 45 0c35,0 47,19 47,50l0 30zm145 -169c0,-31 11,-53 46,-53l15 0c35,0 46,22 46,53l0 166c0,31 -11,53 -46,53l-15 0c-35,0 -46,-22 -46,-53l0 -166zm154 0c0,-55 -29,-98 -93,-98l-15 0c-64,0 -93,43 -93,98l0 166c0,56 29,98 93,98l15 0c64,0 93,-42 93,-98l0 -166zm115 77l0 -125 51 0c35,0 47,15 47,45l0 30c0,31 -12,50 -47,50l-51 0zm51 45c64,0 93,-39 93,-95l0 -30c0,-56 -29,-90 -93,-90l-75 0c-16,0 -23,11 -23,23l0 311c0,12 7,23 23,23 17,0 24,-11 24,-23l0 -119 51 0zm232 -79l-34 0 0 -118c0,-12 -7,-23 -24,-23 -17,0 -24,11 -24,23l0 311c0,12 7,23 24,23l58 0c64,0 94,-34 94,-90l0 -30c0,-56 -30,-96 -94,-96zm-34 46l34 0c35,0 47,19 47,50l0 30c0,30 -12,45 -47,45l-34 0 0 -125zm211 152l0 -316c0,-12 -7,-23 -24,-23 -16,0 -23,11 -23,23l0 316c0,12 6,23 23,23 16,0 24,-11 24,-23z"/>
   <g>
    <path class="fil11" d="M14422 8814c-52,0 -95,-45 -95,-100 0,-56 43,-100 95,-100l0 200zm2028 0l-2028 0 0 -200 2028 0 0 200zm0 -200c53,0 95,44 95,100 0,55 -42,100 -95,100l0 -200z"/>
   </g>
   <path class="fil1" d="M8164 12689l0 -3493 3340 0 0 3493 -3340 0z"/>
   <path class="fil2" d="M12381 11625l0 -3394 -877 965 0 3493 877 -1064z"/>
   <path class="fil3" d="M12325 8635l0 -326 -821 887 0 326 821 -887z"/>
   <g>
    <path class="fil4" d="M9141 8231l3240 0 -877 965 -3340 0 977 -965z"/>
    <path id="1" class="fil5" d="M12381 8297l-3240 0 0 -132 3240 0 49 111 -49 21zm0 -132c37,0 66,29 66,66 0,37 -29,66 -66,66l0 -132zm-925 986l877 -965 97 90 -877 965 -49 21 -48 -111zm97 90c-25,27 -66,29 -93,4 -27,-25 -29,-67 -4,-94l97 90zm-3389 -111l3340 0 0 132 -3340 0 -46 -113 46 -19zm0 132c-36,0 -66,-29 -66,-66 0,-37 30,-66 66,-66l0 132zm1023 -983l-977 964 -92 -94 977 -965 46 -19 46 114zm-92 -95c26,-26 68,-25 93,1 25,26 25,68 -1,94l-92 -95z"/>
   </g>
   <path class="fil6" d="M8164 9522l0 -326 3340 0 0 326 -3340 0z"/>
   <path class="fil2" d="M9068 11725l3240 0 -804 964 -3340 0 904 -964z"/>
   <path class="fil7" d="M11504 11725l0 964 795 -964 -795 0z"/>
   <g>
    <path class="fil5" d="M12448 8231l0 3394 -133 0 0 -3394 17 -44 116 44zm-133 0c0,-36 30,-65 66,-65 37,0 67,29 67,65l-133 0zm-860 921l877 -965 99 88 -877 965 -116 -44 17 -44zm99 88c-25,27 -67,29 -94,5 -27,-24 -29,-66 -5,-93l99 88zm-116 3449l0 -3493 133 0 0 3493 -15 42 -118 -42zm133 0c0,37 -30,66 -67,66 -36,0 -66,-29 -66,-66l133 0zm862 -1023l-877 1065 -103 -83 877 -1065 118 42 -15 41zm-103 -83c23,-28 65,-32 93,-9 29,23 33,64 10,92l-103 -83z"/>
   </g>
   <path class="fil8 str0" d="M12381 8630l-811 892 -3393 0"/>
   <path class="fil8 str0" d="M8164 12689l0 -3493 3340 0 0 3493 -3340 0z"/>
   <path class="fil10 str6" d="M9232 11816c0,-41 -18,-67 -54,-79 25,-15 37,-34 37,-65l0 -17c0,-56 -32,-85 -95,-85l-59 0c-17,0 -25,11 -25,23l0 306c0,12 8,23 25,23l75 0c64,0 96,-33 96,-90l0 -16zm-148 -51l52 0c35,0 48,20 48,51l0 16c0,30 -13,45 -48,45l-52 0 0 -112zm0 -44l0 -106 36 0c34,0 48,10 48,40l0 17c0,30 -14,49 -48,49l-36 0zm286 -15l-34 0 0 -118c0,-12 -8,-23 -24,-23 -17,0 -24,11 -24,23l0 311c0,12 7,23 23,23l59 0c64,0 93,-34 93,-90l0 -30c0,-56 -29,-96 -93,-96zm-34 46l34 0c35,0 47,19 47,50l0 30c0,30 -12,45 -47,45l-34 0 0 -125zm210 152l0 -316c0,-12 -6,-23 -23,-23 -16,0 -23,11 -23,23l0 316c0,12 6,23 23,23 16,0 23,-11 23,-23zm166 -195l-46 0 0 -94 102 0c12,0 22,-6 22,-22 0,-16 -10,-23 -22,-23l-126 0c-16,0 -23,10 -23,22l0 307c0,12 7,23 24,23l69 0c63,0 93,-33 93,-90l0 -29c0,-55 -30,-94 -93,-94zm46 123c0,30 -12,46 -46,46l-46 0 0 -126 46 0c34,0 46,19 46,50l0 30zm145 -169c0,-31 11,-53 46,-53l15 0c35,0 46,22 46,53l0 166c0,31 -11,53 -46,53l-15 0c-35,0 -46,-22 -46,-53l0 -166zm154 0c0,-55 -29,-98 -93,-98l-15 0c-64,0 -93,43 -93,98l0 166c0,56 29,98 93,98l15 0c64,0 93,-42 93,-98l0 -166zm115 77l0 -125 51 0c35,0 47,15 47,45l0 30c0,31 -12,50 -47,50l-51 0zm51 45c64,0 93,-39 93,-95l0 -30c0,-56 -29,-90 -93,-90l-75 0c-16,0 -23,11 -23,23l0 311c0,12 7,23 24,23 16,0 23,-11 23,-23l0 -119 51 0zm233 -79l-35 0 0 -118c0,-12 -7,-23 -24,-23 -16,0 -23,11 -23,23l0 311c0,12 7,23 23,23l59 0c64,0 93,-34 93,-90l0 -30c0,-56 -29,-96 -93,-96zm-35 46l35 0c34,0 46,19 46,50l0 30c0,30 -12,45 -46,45l-35 0 0 -125zm211 152l0 -316c0,-12 -7,-23 -23,-23 -16,0 -24,11 -24,23l0 316c0,12 7,23 23,23 16,0 24,-11 24,-23z"/>
   <g>
    <path class="fil11" d="M9214 8814c-52,0 -95,-45 -95,-100 0,-56 43,-100 95,-100l0 200zm2028 0l-2028 0 0 -200 2028 0 0 200zm0 -200c53,0 95,44 95,100 0,55 -42,100 -95,100l0 -200z"/>
   </g>
   <path class="fil12" d="M8739 8569l-21 49c20,11 40,23 59,36 25,17 32,50 15,75 -16,25 -51,33 -76,16 -14,-9 -27,-19 -41,-27l-12 26 -274 54 -772 -334 63 -146 76 -175 63 -146 772 335 148 237z"/>
   <path class="fil8 str3" d="M8353 8563c38,-30 43,-84 13,-121 -30,-38 -84,-43 -121,-13"/>
   <path class="fil13" d="M8789 8665c104,76 184,175 236,288l-121 0c-45,-80 -108,-151 -185,-206l-3 -2c25,17 60,9 76,-16 14,-20 12,-46 -3,-64zm-339 1339c-93,12 -188,8 -282,-16l-2 0 -1 -1c-174,-49 -319,-160 -414,-304 -95,-141 -141,-316 -120,-498l1 0c25,-214 140,-407 318,-528 58,-38 128,-83 217,-140 36,-23 75,-48 108,-69 25,-16 58,-8 74,17 16,25 9,58 -16,74 -45,29 -78,50 -108,69 -96,61 -169,107 -226,147 -15,11 -29,22 -43,34 -117,100 -198,243 -218,408l0 0 0 0c-18,156 22,306 102,427 82,123 206,217 354,260 86,21 172,24 256,11l0 109zm28 -1721c101,-99 200,-221 294,-358 97,-142 188,-300 269,-468 13,-27 46,-38 73,-25 26,13 38,46 24,73 -83,170 -177,333 -277,481 -89,129 -182,245 -277,343l-106 -46z"/>
   <path class="fil14 str4" d="M9032 9074c113,354 -75,736 -428,861"/>
   <path class="fil14 str5" d="M8847 8913c9,47 54,79 101,70 47,-8 78,-53 70,-100"/>
   <path class="fil14 str5" d="M8373 10043c47,4 89,-32 92,-80 4,-47 -32,-89 -80,-92"/>
   <path class="fil12" d="M13745 8516l-8 53c22,5 45,12 67,19 28,10 43,40 34,68 -10,29 -41,45 -70,36 -16,-6 -31,-12 -47,-16l-4 29 -251 123 -833 -124 24 -157 28 -188 23 -157 832 123 205 191z"/>
   <path class="fil8 str3" d="M13371 8610c28,-39 19,-93 -19,-121 -39,-28 -93,-19 -121,19"/>
   <path class="fil13" d="M13818 8595c120,47 223,122 302,217l-117 32c-64,-66 -143,-118 -232,-151l-3 -1c29,9 60,-7 70,-36 7,-23 -1,-47 -20,-61zm19 1381c-86,37 -180,57 -276,58l-2 0 -2 0c-180,-3 -349,-72 -479,-186 -127,-113 -217,-269 -244,-451l0 0c-31,-213 31,-429 172,-592 45,-52 102,-114 172,-191 29,-31 61,-66 87,-95 20,-22 54,-23 76,-3 22,20 24,54 4,76 -36,40 -62,68 -87,95 -76,83 -135,147 -180,200 -12,14 -23,29 -33,44 -87,127 -128,286 -104,450l0 1 0 0c23,155 100,289 209,385 110,98 255,157 409,160 88,-2 172,-21 250,-56l28 105zm-419 -1669c72,-122 137,-265 192,-422 57,-162 104,-338 139,-521 6,-30 34,-49 63,-43 30,6 49,34 43,63 -36,186 -85,368 -144,537 -52,148 -112,284 -178,403l-115 -17z"/>
   <path class="fil14 str4" d="M14158 8928c201,313 118,730 -190,942"/>
   <path class="fil14 str5" d="M13939 8820c20,43 72,62 115,42 43,-21 62,-72 41,-115"/>
   <path class="fil14 str5" d="M13773 10035c47,-9 77,-55 68,-102 -9,-47 -54,-77 -101,-68"/>
   <path class="fil15" d="M11868 9025c-2,-76 41,-140 96,-142 55,-3 102,56 104,132 16,645 291,1035 582,1447l1 -1 0 1c2,3 4,5 6,8 152,218 244,424 226,594 -19,191 -149,311 -438,319l0 -277c165,-3 236,-33 241,-81 7,-74 -61,-204 -172,-362 -2,-2 -3,-4 -5,-6l0 0 0 0 0 -1 -1 -1c-319,-451 -620,-878 -640,-1630z"/>
   <path class="fil16" d="M12074 8881c59,0 107,92 107,206 0,114 -48,206 -107,206 -58,0 -106,-92 -106,-206 0,-114 48,-206 106,-206z"/>
   <path class="fil15" d="M6662 9025c-2,-76 41,-140 96,-142 55,-3 101,56 103,132 16,645 291,1035 583,1447l0 -1 0 1c2,3 4,5 6,8 152,218 244,424 227,594 -20,191 -150,311 -438,319l0 -277c165,-3 235,-33 240,-81 8,-74 -61,-204 -172,-362 -1,-2 -3,-4 -4,-6l0 0 0 0 -1 -1 0 -1c-320,-451 -621,-878 -640,-1630z"/>
   <path class="fil16" d="M6868 8881c59,0 106,92 106,206 0,114 -47,206 -106,206 -59,0 -107,-92 -107,-206 0,-114 48,-206 107,-206z"/>
   <path class="fil9 str7" d="M10050 11003c0,-60 22,-107 65,-127l239 -108c118,-52 144,-143 144,-232l0 -5c0,-150 -85,-233 -254,-233l-80 0c-134,0 -217,57 -217,195 0,34 17,62 61,62 44,0 61,-28 61,-62 0,-54 38,-78 95,-78l80 0c92,0 131,35 131,116l0 5c0,62 -19,99 -71,123l-223 99c-104,44 -154,143 -154,256l0 209 524 0c32,0 58,-17 58,-59 0,-42 -26,-59 -58,-59l-401 0 0 -102z"/>
   <path class="fil9" d="M9459 10984c0,23 3,47 5,62l-1 0 -190 -390c-10,-21 -23,-29 -39,-29 -29,0 -41,19 -41,39l0 526c0,21 11,39 40,39 27,0 38,-18 38,-39l0 -318c0,-23 -4,-46 -5,-62l0 0 190 391c10,20 23,28 39,28 29,0 41,-18 41,-39l0 -526c0,-20 -11,-39 -40,-39 -27,0 -37,19 -37,39l0 318zm212 -180c-25,0 -32,-14 -32,-38l0 -42c0,-23 7,-37 32,-37l12 0c25,0 32,14 32,37l0 42c0,24 -7,38 -32,38l-12 0zm13 56c58,0 86,-38 86,-89l0 -51c0,-51 -28,-89 -86,-89l-14 0c-58,0 -86,38 -86,89l0 51c0,51 28,89 86,89l14 0zm58 99c18,0 30,-8 30,-30 0,-22 -12,-30 -30,-30l-129 0c-18,0 -31,8 -31,30 0,22 13,30 31,30l129 0z"/>
   <path class="fil9 str7" d="M15762 10947c0,-109 -44,-192 -140,-222 61,-35 96,-92 96,-177l0 -17c0,-150 -85,-233 -254,-233l-69 0c-134,0 -217,57 -217,195 0,34 16,62 61,62 44,0 61,-28 61,-62 0,-54 38,-78 95,-78l69 0c93,0 132,35 132,116l0 17c0,82 -49,141 -142,141l-75 0c-32,0 -58,15 -58,57 0,42 26,57 58,57l133 0c93,0 128,60 128,144l0 43c0,82 -39,128 -132,128l-139 0c-57,0 -95,-23 -95,-78 0,-34 -17,-61 -61,-61 -45,0 -61,27 -61,61 0,138 83,196 217,196l139 0c170,0 254,-97 254,-246l0 -43z"/>
   <path class="fil9" d="M14715 10984c0,23 4,47 5,62l0 0 -190 -390c-10,-21 -23,-29 -39,-29 -29,0 -41,19 -41,39l0 526c0,21 11,39 40,39 27,0 38,-18 38,-39l0 -318c0,-23 -4,-46 -5,-62l0 0 190 391c10,20 23,28 39,28 29,0 41,-18 41,-39l0 -526c0,-20 -11,-39 -40,-39 -27,0 -38,19 -38,39l0 318zm213 -180c-25,0 -32,-14 -32,-38l0 -42c0,-23 7,-37 32,-37l12 0c25,0 32,14 32,37l0 42c0,24 -7,38 -32,38l-12 0zm13 56c58,0 86,-38 86,-89l0 -51c0,-51 -28,-89 -86,-89l-14 0c-58,0 -86,38 -86,89l0 51c0,51 28,89 86,89l14 0zm58 99c18,0 30,-8 30,-30 0,-22 -12,-30 -30,-30l-129 0c-18,0 -31,8 -31,30 0,22 13,30 31,30l129 0z"/>
   <path class="fil15" d="M17076 9025c-2,-76 41,-140 96,-142 55,-3 102,56 103,132 17,645 292,1035 583,1447l1 -1 0 1c2,3 4,5 6,8 152,218 244,424 226,594 -19,191 -149,311 -438,319l0 -277c165,-3 236,-33 241,-81 7,-74 -62,-204 -172,-362 -2,-2 -3,-4 -5,-6l0 0 0 0 0 -1 -1 -1c-319,-451 -621,-878 -640,-1630z"/>
   <path class="fil16" d="M17282 8881c59,0 107,92 107,206 0,114 -48,206 -107,206 -58,0 -106,-92 -106,-206 0,-114 48,-206 106,-206z"/>
  </g>
 </g>
</svg>
