<?xml version="1.0" encoding="UTF-8"?>
<!DOCTYPE svg PUBLIC "-//W3C//DTD SVG 1.0//EN" "http://www.w3.org/TR/2001/REC-SVG-20010904/DTD/svg10.dtd">
<!-- Creator: CorelDRAW X7 -->
<svg xmlns="http://www.w3.org/2000/svg" xml:space="preserve" width="200mm" height="200mm" version="1.0" style="shape-rendering:geometricPrecision; text-rendering:geometricPrecision; image-rendering:optimizeQuality; fill-rule:evenodd; clip-rule:evenodd"
viewBox="0 0 20000 20000"
 xmlns:xlink="http://www.w3.org/1999/xlink">
 <defs>
  <style type="text/css">
   <![CDATA[
    .str0 {stroke:#2B2A29;stroke-width:150;stroke-dasharray:300.000000 150.000000}
    .fil14 {fill:none}
    .fil4 {fill:#FEFEFE}
    .fil10 {fill:#E15754}
    .fil8 {fill:#F2EC84}
    .fil1 {fill:#E4E4E5}
    .fil3 {fill:#E5E4E1}
    .fil7 {fill:#CDD5E1}
    .fil11 {fill:#CCCCCF}
    .fil2 {fill:#BFCF54}
    .fil12 {fill:#979898}
    .fil13 {fill:#919191}
    .fil9 {fill:#9BC872}
    .fil5 {fill:#709BCB}
    .fil6 {fill:#4EB5B8}
    .fil0 {fill:url(#id0)}
   ]]>
  </style>
  <radialGradient id="id0" gradientUnits="userSpaceOnUse" gradientTransform="matrix(1.41421 -0 -0 1.41421 -4136 -4140)" cx="9984.92" cy="9995.7" r="10000" fx="9984.92" fy="9995.7">
   <stop offset="0" style="stop-opacity:1; stop-color:#FEFEFE"/>
   <stop offset="0.439216" style="stop-opacity:1; stop-color:#FEFEFE"/>
   <stop offset="1" style="stop-opacity:1; stop-color:#D1E2F2"/>
  </radialGradient>
 </defs>
 <g id="Layer_x0020_1">
  <metadata id="CorelCorpID_0Corel-Layer"/>
  <g id="_623537308608">
   <path class="fil0" d="M-15 -4l20000 0 0 20000 -20000 0 0 -20000z"/>
   <g>
    <g>
     <path class="fil1" d="M15447 15445l-10951 0 0 -10951 10951 0 0 10951z"/>
     <path class="fil2" d="M11035 10682l-542 851 -315 444 -617 -359 -864 -379 -648 -618 105 -1182 1292 -148 622 70 320 597 647 724z"/>
     <path class="fil3" d="M15447 6354l-3868 -1219 3868 1219z"/>
     <path class="fil4" d="M6957 10008l1219 -42 -4 -110 -1219 42 4 110z"/>
     <path class="fil4" d="M7647 9395l0 572 110 0 0 -572 -110 0z"/>
     <path class="fil4" d="M5314 10864l772 -104 195 -1336 -109 -16 -183 1254 -744 100 15 109 54 -7z"/>
     <path class="fil5" d="M15447 11711l-334 -86 -204 -549 -319 -174 -120 -365 432 -513 545 116 0 1571z"/>
     <path class="fil5" d="M14213 12101l165 -257 690 424 -166 235 -689 -402z"/>
     <path class="fil6" d="M7217 5249l-202 898 1709 309 597 -770 -2104 -437z"/>
     <path class="fil4" d="M7217 5249l-75 -16 -220 976 1834 331 701 -905 -2298 -476 -17 74 75 16 -15 75 1983 412 -494 637 -1584 -287 185 -820 -75 -17 -15 75 15 -75z"/>
     <path class="fil6" d="M4496 5379l660 388 916 -755 -914 -518 -186 0 -476 737 0 148z"/>
     <path class="fil7" d="M4496 5843l0 -438 526 381 -526 57z"/>
     <path class="fil6" d="M12314 9407l-323 1797 697 -311 -141 -1555 -233 69z"/>
     <path class="fil6" d="M13047 7024l0 1387 1166 -637 946 -87 288 26 0 -689 -460 201 -1940 -201z"/>
     <path class="fil8" d="M13619 11029l217 -89 272 456 -217 93 -272 -460z"/>
     <path class="fil8" d="M14599 9273l222 178 -213 244 -212 -180 203 -242z"/>
     <path class="fil8" d="M14507 6416l106 -252 399 101 -69 284 -436 -133z"/>
     <path class="fil8" d="M13517 4494l-470 1273 229 52 74 -158 300 77 333 -914 136 42 103 -227 -531 -145 -174 0z"/>
     <path class="fil9" d="M10190 4494l-218 588 -1936 -588 2154 0z"/>
     <path class="fil2" d="M6971 4494l-56 145 326 108 83 -247 -18 -6 -335 0z"/>
     <path class="fil9" d="M7930 4673c0,23 -119,375 -119,375l776 201 128 -341 -785 -235z"/>
     <path class="fil2" d="M11696 4494c-102,402 -256,1017 -248,1021 10,4 3048,971 3999,1273l0 -2294 -3751 0z"/>
     <path class="fil2" d="M15447 13091l-2525 -1220 -281 -823c0,0 28,-168 25,-209 -4,-40 8,-366 8,-366l322 -411 15 -1478c0,0 896,-1109 2436,-866l0 5373z"/>
     <path class="fil2" d="M4962 4494c-125,230 -306,544 -466,757l0 -757 466 0z"/>
     <path class="fil2" d="M5222 12226l0 158 1359 1722 890 -1566 -368 -183 -1881 -131z"/>
     <path class="fil6" d="M4496 9244c447,50 898,97 898,97l-183 3075 1406 1733 1497 531 330 -750 1121 -230 -133 -264 453 -229 265 -314 269 -317 259 -308 1084 632 -966 2446 -1451 -354c0,0 -669,360 -933,453l-194 0c-495,-109 -2654,-587 -2654,-587l-753 -319 125 -163 -440 -623 0 -4509z"/>
     <path class="fil2" d="M5608 9374l37 -356 -434 -1331 1137 281 390 959 -85 613 -1045 -166z"/>
     <path class="fil2" d="M4965 15445l-29 -816 702 261 2367 555 -3040 0zm3494 0l886 -453 643 453 -1529 0z"/>
     <path class="fil4" d="M11811 12865l-2644 -1540 -441 -135 -619 -590 141 -1311 -110 -11 -146 1364 676 645 455 139 2680 1562 56 -95 -48 -28z"/>
     <path class="fil4" d="M10969 10600l-1312 2267 -1406 459 136 598 -303 687 -1389 -492 851 -1603 -428 -213 -1947 -136 -7 110 1925 134 307 153 -858 1616 1605 569 359 -814 -121 -535 1350 -442 1361 -2350 -96 -55 -27 47z"/>
     <path class="fil4" d="M6967 12349l300 -648 -709 -368 -51 97 616 320 -279 603 100 46 23 -50z"/>
     <path class="fil4" d="M8337 10880l-1118 1549 90 64 1117 -1548 -89 -65z"/>
     <path class="fil4" d="M8816 11245l-1192 1420 84 71 1193 -1420 -85 -71z"/>
     <path class="fil4" d="M7281 14449l741 -1577 -99 -47 -742 1577 100 47z"/>
     <path class="fil4" d="M8175 13288l-563 1214 -222 818 106 29 220 -810 582 -1255 -99 -46 -24 50z"/>
     <path class="fil4" d="M8864 13159l-214 -448 -765 144 20 108 683 -128 200 421 99 -47 -23 -50z"/>
     <path class="fil4" d="M6948 9545l0 0c0,4 4,51 4,131 0,280 -48,967 -457,1684l-6 11 -79 972 110 9 78 -960 -55 -5 48 27c422,-740 471,-1446 471,-1738 0,-89 -5,-140 -5,-142l-5 -54 -110 10 6 55z"/>
     <path class="fil4" d="M7106 8416l211 1115 108 -21 -211 -1114 -108 20z"/>
     <path class="fil4" d="M6772 9485l154 -470 2986 -3914 -175 -134 -3008 3944 -200 610 209 68 34 -104z"/>
     <path class="fil4" d="M10594 5291l-1207 4025 211 63 1206 -4025 -210 -63z"/>
     <path class="fil4" d="M7732 7726c2,3 233,229 598,398 200,93 460,154 742,154 258,0 534,-51 797,-180l50 -24 -49 -99 -49 24c-246,121 -506,169 -749,169 -266,1 -512,-58 -696,-144 -173,-80 -316,-175 -415,-249 -49,-38 -88,-70 -114,-92 -13,-12 -23,-21 -29,-27 -3,-3 -6,-5 -7,-6l-2 -2 -1 -1 0 0 -39 -38 -77 79 40 38z"/>
     <path class="fil4" d="M8641 8164l-210 309 -195 -144 194 -267 -89 -65 -258 356 375 277 305 -449 -91 -62 -31 45z"/>
     <path class="fil4" d="M6601 6104l296 880 435 1293 104 -35 -435 -1293 -313 -932 -104 35 17 52z"/>
     <path class="fil4" d="M8265 7032l-1336 -123 -10 110 1336 122 10 -109z"/>
     <path class="fil4" d="M6185 4984l-905 -490 -231 0 1083 587 53 -97z"/>
     <path class="fil4" d="M4917 4494c-42,75 -90,160 -143,248 -82,136 -176,278 -273,403l-5 6 0 172c34,-39 68,-80 101,-123 157,-203 299,-441 403,-629 15,-27 29,-53 42,-77l-125 0z"/>
     <path class="fil4" d="M6789 8906l-401 -985 -1260 -311 290 888 172 527 -31 433 110 8 32 -455 -179 -547 -228 -700 1013 251 401 983 102 -41 -21 -51z"/>
     <path class="fil4" d="M6485 8143l-1083 300 30 106 1082 -300 -29 -106z"/>
     <path class="fil4" d="M10636 12233l-786 930 -492 249 49 98 503 -254 17 -13 828 -981 -84 -71 -35 42z"/>
     <path class="fil4" d="M15447 9923l-149 -94 -640 -1351 -99 48 654 1378 234 150 0 -131z"/>
     <path class="fil4" d="M15447 8588l-694 -186 -1796 912 49 98 1760 -893 681 183 0 -114z"/>
     <path class="fil4" d="M11344 7620l-302 319 -140 -77 -99 -474 311 -295 -76 -80 -355 338 122 583 259 142 398 -421 -80 -75 -38 40z"/>
     <path class="fil4" d="M13116 4494l-704 1402 99 50 729 -1452 -124 0z"/>
     <path class="fil4" d="M14066 4494l-650 1702 103 39 665 -1741 -118 0z"/>
     <path class="fil4" d="M15447 5925l-1725 -478 -29 106 1754 486 0 -114z"/>
     <path class="fil4" d="M13254 6148l-300 992 39 1377 110 -3 -38 -1359 310 -1027 -105 -32 -16 52z"/>
     <path class="fil4" d="M9147 4494l-97 355 106 29 105 -384 -114 0z"/>
     <path class="fil4" d="M9678 4494l-187 500 103 38 201 -538 -117 0z"/>
     <path class="fil4" d="M10137 4494l-69 180 -167 439 102 40 168 -439 84 -220 -118 0z"/>
     <path class="fil4" d="M11586 5085l-1503 -460 -32 106 1502 459 33 -105z"/>
     <path class="fil4" d="M11785 4598l-444 -104 -480 0 899 211 25 -107z"/>
     <path class="fil4" d="M11640 15445l356 -279 533 279 237 0 -782 -410 -523 410 179 0z"/>
     <path class="fil4" d="M13115 14546l-705 822 84 71 704 -821 -83 -72z"/>
     <path class="fil4" d="M13507 14902l-522 543 153 0 448 -467 -79 -76z"/>
     <path class="fil4" d="M12549 14180l-328 481 -52 591 109 9 50 -562 343 -503 -91 -61 -31 45z"/>
     <path class="fil4" d="M12071 13738l-862 1488 138 219 130 0 -139 -222 856 -1478 -95 -55 -28 48z"/>
     <path class="fil4" d="M13207 12012l-214 492 915 1856 98 -48 -892 -1810 216 -496 -101 -44 -22 50z"/>
     <path class="fil4" d="M14482 12584l-739 2130 104 36 739 -2130 -104 -36z"/>
     <path class="fil4" d="M14855 12825c-2,2 -47,79 -93,198 -45,119 -91,280 -91,451 0,76 9,155 32,232 35,116 102,230 212,325 111,96 263,173 469,225l53 13 10 -39 0 -72 -36 -9c-129,-32 -232,-75 -315,-123 -124,-74 -201,-161 -249,-255 -48,-94 -66,-196 -66,-297 -1,-151 41,-301 84,-412 21,-55 43,-101 58,-133 8,-16 15,-28 19,-36 3,-4 4,-7 6,-9l1 -2 0 -1 0 0 28 -47 -94 -56 -28 47z"/>
     <path class="fil4" d="M13441 13342l1337 483 38 -103 -1338 -484 -37 104z"/>
     <path class="fil4" d="M14209 12462l-775 850 81 74 776 -850 -82 -74z"/>
     <path class="fil4" d="M13081 12621l-466 959 99 48 466 -959 -99 -48z"/>
     <path class="fil4" d="M15447 14140c-239,28 -719,154 -1481,641l-47 30 60 93 46 -30c737,-472 1198,-594 1422,-623l0 -111z"/>
     <path class="fil4" d="M14973 14365l474 366 0 -139 -407 -314 -67 87z"/>
     <path class="fil4" d="M14279 14750l599 411 416 284 153 0 0 -28 -507 -347 -645 -442 -62 91 46 31z"/>
     <path class="fil4" d="M14791 15445l193 -351 -96 -53 -222 404 125 0z"/>
     <path class="fil2" d="M10047 10395c0,235 -191,425 -427,425 -236,0 -427,-190 -427,-425 0,-235 191,-426 427,-426 236,0 427,191 427,426z"/>
     <path class="fil4" d="M10047 10395l-55 0c0,102 -41,194 -109,262 -67,67 -160,108 -263,108 -103,0 -196,-41 -263,-108 -67,-68 -109,-160 -109,-262 0,-103 42,-195 109,-262 67,-67 160,-109 263,-109 103,0 196,42 263,109 68,67 109,159 109,262l55 0 55 0c0,-133 -54,-253 -141,-340 -87,-87 -208,-141 -341,-141 -133,0 -254,54 -341,141 -87,87 -141,207 -141,340 0,132 54,253 141,339 87,87 208,141 341,141 133,0 254,-54 341,-141 87,-86 141,-207 141,-339l-55 0z"/>
     <path class="fil4" d="M4496 9219c111,23 223,45 328,66 308,61 560,110 560,110l10 -54 -55 -4 -184 3097 1397 1774 1592 540 339 -770 1164 -239 -356 -704 -98 50 291 575 -1078 222 -322 730 -1465 -498 -1352 -1715 185 -3103 -48 -9c0,0 -23,-5 -64,-13 -144,-27 -503,-97 -844,-167l0 112z"/>
     <path class="fil4" d="M9970 10262l551 -287 -51 -98 -551 288 51 97z"/>
     <path class="fil4" d="M9573 10759l-111 863 109 14 111 -864 -109 -13z"/>
     <path class="fil4" d="M9527 9987l-488 -790 -94 58 489 790 93 -58z"/>
     <path class="fil4" d="M9247 10339l-1231 21 2 110 1231 -21 -2 -110z"/>
     <path class="fil4" d="M9874 10678l817 575 63 -90 -817 -575 -63 90z"/>
     <path class="fil4" d="M11197 8834l1107 782 63 -90 -1107 -782 -63 90z"/>
     <path class="fil4" d="M9618 12896l240 370 92 -60 -240 -370 -92 60z"/>
     <path class="fil4" d="M7449 12590c134,57 272,157 410,294 137,137 275,310 411,510l91 -62c-139,-204 -280,-382 -425,-526 -145,-143 -292,-253 -444,-317l-43 101z"/>
     <path class="fil4" d="M15447 12977l-3255 -1629 -18 -2 -5 54 6 -54 -1 0 -5 54 6 -54 -2 0c-24,-4 -246,-42 -601,-308 -355,-267 -844,-762 -1394,-1681l-82 50 83 48c3,-5 6,-12 9,-21 3,-10 6,-22 6,-35 0,-18 -5,-38 -14,-56 -8,-16 -19,-30 -31,-41 -22,-20 -48,-34 -80,-46 -48,-19 -112,-33 -206,-44 -95,-10 -219,-17 -386,-17 -462,0 -1252,51 -2612,221 -62,7 -124,11 -187,11 -78,0 -157,-6 -235,-18l-1947 -308 0 195 1917 303c88,14 177,21 265,21 71,0 141,-5 211,-13 1355,-169 2139,-220 2588,-220 141,0 248,5 330,13 60,6 106,13 140,20 25,6 43,11 55,16 8,3 14,6 16,7l1 1 6 -8 -6 8 0 0 6 -8 -6 8 31 -35 -42 20c4,8 9,13 11,15l31 -35 -42 20 62 -30 -69 0c0,10 3,22 7,30l62 -30 -69 0 76 0 -72 -24c-2,7 -4,15 -4,24l76 0 -72 -24 81 26 -74 -43c-2,5 -5,11 -7,17l81 26 -74 -43 -28 49 29 49c587,981 1113,1500 1498,1776 384,275 628,304 644,306l10 -96 -44 86 3326 1665 0 -216z"/>
     <path class="fil4" d="M7498 4494l7949 2362 0 -200 -7273 -2162 -676 0z"/>
     <path class="fil4" d="M11619 4494l-288 1143 187 47 299 -1190 -198 0z"/>
     <path class="fil4" d="M4496 5935l755 -76 1558 -1365 -292 0 -1346 1180 -675 68 0 193z"/>
     <path class="fil4" d="M4496 5496c280,179 572,361 572,361l16 10 3638 687 16 -3 -5 -31 5 31 0 0 -5 -31 5 31c1,0 154,-23 388,-23 165,0 370,12 591,50 332,56 699,173 1025,399 162,113 315,253 448,427 134,175 248,383 335,635l6 19 895 977 142 -130 -881 -963 -71 65 91 -31c-124,-360 -305,-645 -517,-868 -159,-167 -336,-299 -519,-403 -275,-155 -564,-247 -833,-301 -268,-53 -517,-68 -712,-68 -251,0 -413,25 -417,25l15 95 17 -94 -3604 -681 -18 95 51 -82c0,0 -16,-10 -44,-28 -100,-62 -349,-219 -578,-365l-52 -33 0 228z"/>
     <path class="fil4" d="M12137 5880l454 5004 -198 695 93 26 -82 -50c-1,1 -437,715 -881,1602 -180,357 -371,827 -537,1291 -127,355 -239,705 -318,997l200 0c76,-275 181,-602 299,-932 164,-458 354,-924 528,-1270 220,-439 439,-837 602,-1124 82,-144 150,-260 197,-340 24,-40 42,-71 55,-92 6,-11 11,-19 14,-24 4,-5 5,-8 5,-8l7 -11 211 -742 -466 -5135 -192 18 9 95z"/>
     <path class="fil4" d="M15447 7584c-59,-6 -153,-12 -273,-12 -256,0 -631,29 -1033,156 -201,64 -408,153 -610,276 -202,122 -399,279 -577,479l71 64 13 -96 -1075 -140 -25 191 1125 147 34 -38c165,-184 347,-329 534,-443 281,-171 575,-272 845,-330 271,-58 516,-73 698,-73 99,0 179,4 233,9 16,1 29,2 40,3l0 -193z"/>
     <path class="fil4" d="M12747 10459l358 -397 18 -1610 -193 -2 -16 1537 -374 415 143 129 64 -72z"/>
     <path class="fil4" d="M15443 6758l-250 368 -1984 -139 -2254 -1061 -4958 -1028 -39 189 4936 1023 2265 1066 2131 149 157 -230 0 -342 -4 5z"/>
     <path class="fil4" d="M12346 9030l-455 2414 878 -486 -93 -168 -520 287 397 -2106 -189 -35 -18 94z"/>
     <path class="fil4" d="M12512 11016l447 914 172 -85 -446 -913 -173 84z"/>
     <path class="fil4" d="M12570 9722l-312 168 52 97 312 -168 -52 -97z"/>
     <path class="fil4" d="M4496 13998l343 471 0 976 193 0 0 -1039 -536 -734 0 326z"/>
     <path class="fil4" d="M4496 14514c183,74 391,161 577,239 145,62 277,118 373,159 47,20 86,37 113,49 26,11 41,18 41,18l9 3 2150 463 833 0 764 -352 1469 304 39 -188 -1531 -317 -1028 474 -2647 -570 -20 94 39 -88c-1,0 -369,-160 -754,-321 -147,-61 -295,-122 -427,-174l0 207z"/>
     <path class="fil4" d="M9288 15070l543 375 339 0 -773 -533 -109 158z"/>
     <path class="fil6" d="M11641 13135l1167 528 1780 1782 -593 0 -1662 -1543 -870 -407 178 -360z"/>
     <path class="fil4" d="M11625 13234l1127 510 1700 1701 272 0 -1848 -1850 -28 -19 -1231 -557 -80 175 88 40zm2511 2211l-1737 -1614 -27 -17 -910 -406 -78 176 895 399 1574 1462 283 0z"/>
     <path class="fil2" d="M11339 8625c0,182 -148,329 -331,329 -182,0 -330,-147 -330,-329 0,-182 148,-329 330,-329 183,0 331,147 331,329z"/>
     <path class="fil4" d="M11339 8625l-44 0c0,79 -32,150 -84,202 -52,51 -123,83 -203,83 -79,0 -151,-32 -203,-83 -51,-52 -83,-123 -83,-202 0,-79 32,-150 83,-202 52,-52 124,-84 203,-84 80,0 151,32 203,84 52,52 84,123 84,202l44 0 44 0c0,-206 -168,-373 -375,-373 -206,0 -374,167 -374,373 0,206 168,373 374,373 207,0 375,-167 375,-373l-44 0z"/>
     <path class="fil10" d="M14271 10672c0,154 -308,506 -308,506 0,0 -309,-352 -309,-506 1,-155 139,-280 309,-280 170,0 308,125 308,280z"/>
     <path class="fil10" d="M14271 10659c0,171 -138,309 -308,309 -170,0 -309,-138 -309,-309 1,-170 139,-308 309,-308 170,0 308,138 308,308z"/>
     <path class="fil4" d="M14174 10659c0,117 -95,211 -211,211 -116,0 -211,-94 -211,-211 0,-116 95,-210 211,-210 116,0 211,94 211,210z"/>
     <path class="fil11" d="M6266 12119l-815 -64 18 -219 814 64 -17 219z"/>
     <path class="fil11" d="M12169 13102l-193 -103 382 -718 193 102 -382 719z"/>
     <path class="fil11" d="M14314 14447l-206 -72 202 -583 206 72 -202 583z"/>
     <path class="fil11" d="M11582 7374l-538 -610 331 -293 539 610 -332 293z"/>
     <path class="fil11" d="M12055 8258l-407 -705 189 -109 407 705 -189 109z"/>
     <path class="fil11" d="M14361 6957l-811 -55 14 -218 812 56 -15 217z"/>
     <path class="fil11" d="M14794 6987l-341 -23 15 -218 341 23 -15 218z"/>
     <path class="fil11" d="M10916 12208l-449 -259 117 -202 448 259 -116 202z"/>
     <path class="fil11" d="M11465 11934l-712 -411 227 -392 711 411 -226 392z"/>
     <path class="fil11" d="M10803 10097l-416 -630 194 -129 417 631 -195 128z"/>
     <path class="fil11" d="M6729 10523l-231 -32 105 -748 230 32 -104 748z"/>
     <path class="fil11" d="M5374 9101l-878 -192 0 -239 928 203 -50 228z"/>
     <path class="fil11" d="M7522 9181l-39 -331 751 -88 38 332 -750 87z"/>
     <path class="fil11" d="M9765 7608l-499 -159 228 -720 500 159 -229 720z"/>
     <path class="fil11" d="M5989 7039l-977 -214 161 -736 977 213 -161 737z"/>
     <path class="fil11" d="M6344 7698l-977 -213 90 -412 977 213 -90 412z"/>
     <path class="fil11" d="M5173 7442l-412 -90 90 -412 412 90 -90 412z"/>
     <path class="fil11" d="M9215 9073l-581 0 0 -334 581 0 0 334z"/>
     <path class="fil11" d="M7140 14161l-211 -97 317 -686 211 97 -317 686z"/>
     <path class="fil11" d="M7483 13419l-211 -98 234 -507 211 98 -234 507z"/>
     <path class="fil11" d="M9092 12344l-450 -393 368 -420 449 392 -367 421z"/>
     <path class="fil11" d="M7810 11381l-220 -192 367 -421 221 193 -368 420z"/>
     <path class="fil11" d="M8542 12420l-176 -153 184 -210 175 153 -183 210z"/>
     <path class="fil11" d="M8553 13733l-52 -227 441 -102 52 226 -441 103z"/>
     <path class="fil11" d="M9097 13607l-53 -227 158 -37 53 227 -158 37z"/>
     <path class="fil11" d="M6926 8257l-235 -718 221 -73 236 718 -222 73z"/>
     <path class="fil11" d="M7996 6941l-753 -52 15 -232 754 52 -16 232z"/>
     <path class="fil11" d="M6644 7394l-106 -322 222 -72 105 322 -221 72z"/>
     <path class="fil11" d="M6493 6935l-154 -470 221 -73 155 471 -222 72z"/>
     <path class="fil11" d="M11950 10396l-227 -49 161 -738 228 49 -162 738z"/>
     <path class="fil11" d="M11147 9880l-249 -431 401 -232 249 432 -401 231z"/>
     <path class="fil11" d="M11019 10423l-162 -244 195 -129 161 244 -194 129z"/>
     <path class="fil11" d="M10149 6364l-289 -43 34 -231 289 44 -34 230z"/>
     <path class="fil11" d="M9694 6296l-289 -44 35 -230 289 43 -35 231z"/>
     <path class="fil11" d="M11540 12542l-448 -258 116 -202 448 259 -116 201z"/>
     <path class="fil11" d="M5733 11254l-233 0 0 -234 233 0 0 234z"/>
     <path class="fil11" d="M5733 11676l-233 0 0 -233 233 0 0 233z"/>
     <path class="fil11" d="M11815 12137l-202 -117 116 -202 202 117 -116 202z"/>
     <path class="fil11" d="M12662 12279l-203 -117 117 -202 203 117 -117 202z"/>
     <path class="fil11" d="M12234 14401l-203 -117 117 -202 203 117 -117 202z"/>
     <path class="fil11" d="M12009 14790l-202 -117 117 -202 202 117 -117 202z"/>
     <path class="fil11" d="M14844 14882l-203 -117 117 -202 203 117 -117 202z"/>
     <path class="fil10" d="M10304 5721c0,154 -309,506 -309,506 0,0 -308,-352 -308,-506 0,-154 138,-280 308,-280 171,0 309,126 309,280z"/>
     <path class="fil10" d="M10304 5709c0,170 -139,308 -309,308 -170,0 -308,-138 -308,-308 0,-170 138,-309 308,-309 171,0 309,139 309,309z"/>
     <path class="fil4" d="M10206 5709c0,116 -94,211 -211,211 -116,0 -211,-95 -211,-211 0,-117 95,-211 211,-211 117,0 211,94 211,211z"/>
     <path class="fil12" d="M10094 5812l-198 0 0 -142 198 0 0 142z"/>
     <path class="fil12" d="M9995 5565l130 105 -260 0 130 -105z"/>
     <path class="fil4" d="M9961 5733l68 0 0 79 -68 0 0 -79z"/>
     <path class="fil10" d="M6974 9760c0,154 -308,506 -308,506 0,0 -309,-352 -309,-506 0,-155 138,-280 309,-280 170,0 308,125 308,280z"/>
     <path class="fil10" d="M6974 9747c0,171 -138,309 -308,309 -171,0 -309,-138 -309,-309 0,-170 138,-308 309,-308 170,0 308,138 308,308z"/>
     <path class="fil4" d="M6876 9747c0,117 -94,211 -210,211 -117,0 -211,-94 -211,-211 0,-116 94,-210 211,-210 116,0 210,94 210,210z"/>
     <path class="fil10" d="M9359 11466c0,155 -308,507 -308,507 0,0 -309,-352 -309,-507 0,-154 138,-279 309,-279 170,0 308,125 308,279z"/>
     <path class="fil10" d="M9359 11454c0,171 -138,309 -308,309 -171,0 -309,-138 -309,-309 0,-170 138,-308 309,-308 170,0 308,138 308,308z"/>
     <path class="fil4" d="M9262 11454c0,117 -95,211 -211,211 -117,0 -211,-94 -211,-211 0,-116 94,-211 211,-211 116,0 211,95 211,211z"/>
     <path class="fil10" d="M14580 13593c0,154 -309,506 -309,506 0,0 -308,-352 -308,-506 0,-155 138,-280 308,-280 171,0 309,125 309,280z"/>
     <path class="fil10" d="M14580 13581c0,170 -138,308 -309,308 -170,0 -308,-138 -308,-308 0,-171 138,-309 308,-309 171,0 309,138 309,309z"/>
     <path class="fil4" d="M14482 13581c0,116 -94,210 -211,210 -116,0 -210,-94 -210,-210 0,-117 94,-211 210,-211 117,0 211,94 211,211z"/>
     <path class="fil10" d="M9255 8295c0,154 -308,506 -308,506 0,0 -309,-352 -309,-506 0,-154 139,-280 309,-280 170,0 308,126 308,280z"/>
     <path class="fil10" d="M9255 8283c0,170 -138,308 -308,308 -170,0 -309,-138 -309,-308 0,-170 139,-309 309,-309 170,0 308,139 308,309z"/>
     <path class="fil4" d="M9158 8283c0,116 -95,211 -211,211 -116,0 -211,-95 -211,-211 0,-117 95,-211 211,-211 116,0 211,94 211,211z"/>
     <path class="fil10" d="M14369 6338c0,154 -308,506 -308,506 0,0 -309,-352 -309,-506 0,-154 138,-280 309,-280 170,0 308,126 308,280z"/>
     <path class="fil10" d="M14369 6326c0,170 -138,308 -308,308 -171,0 -309,-138 -309,-308 0,-171 138,-309 309,-309 170,0 308,138 308,309z"/>
     <path class="fil4" d="M14271 6326c0,116 -94,211 -210,211 -117,0 -211,-95 -211,-211 0,-117 94,-211 211,-211 116,0 210,94 210,211z"/>
     <path class="fil10" d="M7492 13179c0,155 -308,507 -308,507 0,0 -309,-352 -309,-507 0,-154 138,-279 309,-279 170,0 308,125 308,279z"/>
     <path class="fil10" d="M7492 13167c0,171 -138,309 -308,309 -171,0 -309,-138 -309,-309 0,-170 138,-308 309,-308 170,0 308,138 308,308z"/>
     <path class="fil4" d="M7395 13167c0,117 -95,211 -211,211 -117,0 -211,-94 -211,-211 0,-116 94,-211 211,-211 116,0 211,95 211,211z"/>
     <path class="fil13" d="M9875 15176l0 0 0 0z"/>
     <path class="fil13" d="M9877 15187l0 0c-1,-3 -1,-6 -2,-9 1,3 1,6 2,9z"/>
     <path class="fil13" d="M9888 15217l0 0 0 0z"/>
     <path class="fil13" d="M9887 15215l-1 -1 1 1z"/>
     <path class="fil13" d="M9880 15199c2,5 4,10 6,14 -3,-4 -4,-9 -6,-14l0 0z"/>
     <path class="fil12" d="M9040 8359l-199 0 0 -142 199 0 0 142z"/>
     <path class="fil12" d="M8940 8112l130 105 -260 0 130 -105z"/>
     <path class="fil4" d="M8906 8280l69 0 0 79 -69 0 0 -79z"/>
     <path class="fil12" d="M14155 6435l-198 0 0 -141 198 0 0 141z"/>
     <path class="fil12" d="M14056 6189l130 105 -260 0 130 -105z"/>
     <path class="fil4" d="M14022 6357l68 0 0 78 -68 0 0 -78z"/>
     <path class="fil12" d="M6765 9839l-198 0 0 -142 198 0 0 142z"/>
     <path class="fil12" d="M6666 9592l130 105 -260 0 130 -105z"/>
     <path class="fil4" d="M6632 9760l68 0 0 79 -68 0 0 -79z"/>
     <path class="fil12" d="M9145 11558l-198 0 0 -142 198 0 0 142z"/>
     <path class="fil12" d="M9046 11311l130 105 -260 0 130 -105z"/>
     <path class="fil4" d="M9012 11479l68 0 0 79 -68 0 0 -79z"/>
     <path class="fil12" d="M7285 13276l-199 0 0 -141 199 0 0 141z"/>
     <path class="fil12" d="M7186 13030l130 105 -260 0 130 -105z"/>
     <path class="fil4" d="M7151 13197l69 0 0 79 -69 0 0 -79z"/>
     <path class="fil12" d="M14056 10770l-199 0 0 -142 199 0 0 142z"/>
     <path class="fil12" d="M13957 10523l130 105 -260 0 130 -105z"/>
     <path class="fil4" d="M13923 10691l68 0 0 79 -68 0 0 -79z"/>
     <path class="fil12" d="M14371 13691l-199 0 0 -141 199 0 0 141z"/>
     <path class="fil12" d="M14271 13445l130 105 -260 0 130 -105z"/>
     <path class="fil4" d="M14237 13612l69 0 0 79 -69 0 0 -79z"/>
    </g>
    <path class="fil14 str0" d="M7625 13908l1102 -1928"/>
    <path class="fil14 str0" d="M7108 10392l1639 -1497"/>
    <path class="fil14 str0" d="M9279 8606l973 -1996"/>
    <path class="fil14 str0" d="M8713 11813l-1659 -1476"/>
    <path class="fil14 str0" d="M10709 6172l2878 514"/>
    <path class="fil14 str0" d="M13833 10077l199 -2820"/>
    <path class="fil14 str0" d="M13749 13638l106 -2218"/>
   </g>
  </g>
 </g>
</svg>
