<?xml version="1.0" encoding="UTF-8"?>
<!DOCTYPE svg PUBLIC "-//W3C//DTD SVG 1.0//EN" "http://www.w3.org/TR/2001/REC-SVG-20010904/DTD/svg10.dtd">
<!-- Creator: CorelDRAW X7 -->
<svg xmlns="http://www.w3.org/2000/svg" xml:space="preserve" width="115.711mm" height="70.5555mm" version="1.0" style="shape-rendering:geometricPrecision; text-rendering:geometricPrecision; image-rendering:optimizeQuality; fill-rule:evenodd; clip-rule:evenodd"
viewBox="0 0 11571 7056"
 xmlns:xlink="http://www.w3.org/1999/xlink">
 <defs>
  <style type="text/css">
   <![CDATA[
    .str0 {stroke:#024541;stroke-width:56.4409;stroke-linecap:round;stroke-linejoin:round}
    .fil3 {fill:none;fill-rule:nonzero}
    .fil1 {fill:#EBF2D9}
    .fil2 {fill:#CDDBAC}
    .fil4 {fill:#4D897C}
    .fil5 {fill:#4D897C;fill-rule:nonzero}
    .fil0 {fill:url(#id0)}
   ]]>
  </style>
  <radialGradient id="id0" gradientUnits="userSpaceOnUse" gradientTransform="matrix(1.17124 -0 -0 1.92083 -991 -3248)" cx="5785.55" cy="3527.77" r="3527.77" fx="5785.55" fy="3527.77">
   <stop offset="0" style="stop-opacity:1; stop-color:#FEFEFE"/>
   <stop offset="0.439216" style="stop-opacity:1; stop-color:#FEFEFE"/>
   <stop offset="1" style="stop-opacity:1; stop-color:#D1E2F2"/>
  </radialGradient>
 </defs>
 <g id="Layer_x0020_1">
  <metadata id="CorelCorpID_0Corel-Layer"/>
  <path class="fil0" d="M0 0l11571 0 0 7056 -11571 0 0 -7056z"/>
  <g id="_638300816304">
   <path class="fil1" d="M7453 1060l0 4986c-1245,0 -2079,0 -3324,0l0 -4986 3324 0z"/>
   <path class="fil2" d="M4204 1038l3246 0 0 1853 -3246 -1542c5,-160 0,-205 0,-311z"/>
   <path class="fil3 str0" d="M7468 1070l0 4986c-1244,0 -2079,0 -3323,0l0 -4986 3323 0z"/>
   <path class="fil4" d="M4803 2411l-45 -11c10,-37 37,-55 82,-55 27,0 47,5 61,17 14,12 21,26 21,42 0,11 -4,20 -10,29 -6,9 -15,17 -28,23 15,6 27,13 34,22 8,10 12,22 12,36 0,20 -8,36 -23,48 -14,13 -36,19 -65,19 -24,0 -43,-4 -57,-12 -14,-8 -24,-23 -31,-45l42 -14c4,14 10,23 17,27 8,4 17,6 27,6 15,0 25,-3 32,-9 7,-6 10,-14 10,-22 0,-9 -4,-17 -11,-23 -8,-5 -19,-8 -34,-8l-11 0 0 -35 6 0c14,0 24,-3 32,-9 7,-6 11,-15 11,-25 0,-9 -3,-16 -9,-21 -6,-6 -15,-9 -26,-9 -19,0 -32,10 -37,29zm384 166l-50 0 -20 -52 -91 0 -19 52 -49 0 89 -228 48 0 92 228zm-85 -91l-31 -84 -31 84 62 0zm257 91l0 -96 -9 0c-15,0 -25,3 -31,7 -6,4 -16,17 -31,39l-33 50 -55 0 28 -45c11,-17 19,-30 26,-37 7,-7 15,-13 24,-19 -21,-3 -36,-11 -45,-22 -10,-12 -15,-25 -15,-41 0,-14 4,-26 11,-37 7,-11 16,-18 28,-22 11,-4 28,-5 51,-5l97 0 0 228 -46 0zm0 -190l-36 0c-18,0 -30,1 -36,1 -6,1 -11,4 -15,9 -4,5 -6,11 -6,19 0,8 2,14 6,19 4,4 9,7 15,8 6,2 19,2 38,2l34 0 0 -58zm104 -38l91 0c18,0 32,0 40,2 9,1 17,5 24,9 7,5 13,11 18,19 4,8 7,17 7,27 0,11 -3,20 -9,29 -6,9 -13,16 -23,20 14,4 24,11 32,21 7,10 11,21 11,34 0,11 -2,21 -7,31 -5,10 -12,17 -20,23 -8,6 -19,10 -31,11 -8,1 -26,2 -56,2l-77 0 0 -228zm46 38l0 52 30 0c18,0 29,0 33,-1 8,-1 15,-3 19,-8 5,-4 7,-10 7,-18 0,-7 -2,-12 -6,-17 -4,-4 -10,-7 -17,-8 -5,0 -18,0 -40,0l-26 0zm0 90l0 61 43 0c16,0 27,0 31,-1 7,-1 13,-4 17,-9 4,-5 6,-12 6,-20 0,-7 -1,-12 -5,-17 -3,-5 -8,-9 -14,-11 -6,-2 -20,-3 -41,-3l-37 0zm192 -128l160 0 0 228 -46 0 0 -190 -69 0 0 98c0,27 -1,47 -2,58 -2,11 -7,20 -14,26 -7,6 -18,9 -34,9 -5,0 -15,-1 -29,-2l0 -35 10 0c10,0 16,-1 19,-4 4,-3 5,-9 5,-19l0 -39 0 -130zm219 228l0 -228 168 0 0 38 -122 0 0 51 114 0 0 38 -114 0 0 62 127 0 0 39 -173 0zm223 0l0 -228 47 0 0 89 89 0 0 -89 47 0 0 228 -47 0 0 -100 -89 0 0 100 -47 0zm242 -228l43 0 0 151 93 -151 46 0 0 228 -43 0 0 -150 -93 150 -46 0 0 -228zm240 228l0 -228 169 0 0 38 -123 0 0 51 114 0 0 38 -114 0 0 62 127 0 0 39 -173 0z"/>
   <path class="fil4" d="M5246 1243l72 0c15,0 26,3 33,8 7,6 11,14 11,25 0,7 -2,13 -6,18 -4,5 -9,9 -15,10 8,2 15,6 19,12 4,6 6,12 6,19 0,10 -3,17 -11,23 -7,6 -17,9 -31,9l-78 0 0 -124zm33 52l21 0c10,0 18,-1 22,-4 5,-2 7,-6 7,-12 0,-5 -2,-9 -6,-11 -5,-2 -12,-4 -23,-4l-21 0 0 31zm0 51l26 0c9,0 16,-1 20,-3 5,-2 7,-6 7,-12 0,-6 -3,-10 -8,-13 -5,-2 -14,-3 -28,-3l-17 0 0 31zm164 -103l35 0 30 88 29 -88 34 0 -44 120 -8 21c-3,8 -5,13 -8,17 -3,4 -6,7 -9,9 -4,2 -8,4 -13,6 -5,1 -10,2 -16,2 -7,0 -13,-1 -19,-2l-3 -26c5,1 10,2 14,2 8,0 13,-3 17,-7 4,-5 6,-10 8,-17l-47 -125zm145 0l33 0 0 30c0,7 1,12 2,15 1,4 4,6 8,9 4,2 9,3 15,3 5,0 12,-1 19,-4l0 -53 33 0 0 124 -33 0 0 -49c-13,3 -22,5 -29,5 -10,0 -19,-2 -27,-6 -8,-5 -14,-10 -17,-17 -3,-7 -4,-16 -4,-27l0 -30zm167 39l-30 -6c4,-12 9,-21 18,-26 8,-6 20,-9 36,-9 15,0 25,2 33,5 7,3 12,8 15,13 3,6 4,15 4,30l0 38c0,11 0,19 1,24 1,5 3,11 6,16l-32 0c-1,-2 -2,-5 -4,-9 0,-2 0,-3 -1,-4 -5,6 -11,10 -18,12 -6,3 -13,5 -20,5 -13,0 -23,-4 -30,-11 -7,-7 -11,-15 -11,-26 0,-7 2,-13 5,-19 3,-5 8,-9 14,-12 6,-3 15,-6 26,-8 15,-3 26,-6 32,-8l0 -3c0,-7 -2,-11 -5,-14 -3,-3 -9,-4 -17,-4 -6,0 -11,1 -14,3 -3,3 -6,7 -8,13zm44 26c-4,2 -11,3 -20,5 -9,2 -15,4 -18,6 -4,3 -6,7 -6,11 0,5 1,9 5,12 3,4 8,5 13,5 6,0 11,-2 17,-5 4,-3 6,-7 8,-11 0,-3 1,-8 1,-16l0 -7zm172 -28l-32 6c-1,-6 -3,-11 -7,-15 -4,-3 -9,-4 -15,-4 -8,0 -15,2 -20,8 -5,6 -7,15 -7,28 0,15 2,26 7,32 5,6 12,9 20,9 6,0 12,-2 15,-6 4,-3 7,-9 9,-18l32 6c-3,14 -10,26 -19,33 -10,8 -22,12 -38,12 -18,0 -33,-6 -44,-18 -10,-11 -16,-27 -16,-47 0,-21 6,-37 16,-48 11,-11 26,-17 44,-17 15,0 27,3 36,10 9,6 16,16 19,29zm11 -37l112 0 0 27 -40 0 0 97 -33 0 0 -97 -39 0 0 -27zm130 0l33 0 0 51c5,-1 9,-2 11,-5 2,-3 5,-9 8,-18 5,-12 9,-20 14,-23 5,-4 12,-5 20,-5 2,0 7,0 13,0l0 22c-9,0 -14,1 -17,2 -2,2 -5,7 -8,16 -3,11 -9,18 -16,21 10,3 19,12 26,27 1,1 1,1 2,2l18 34 -35 0 -17 -36c-3,-7 -6,-11 -8,-13 -3,-3 -7,-4 -11,-4l0 53 -33 0 0 -124zm110 61c0,-11 3,-22 8,-32 6,-10 13,-18 23,-23 10,-5 21,-8 33,-8 19,0 34,6 46,18 12,12 18,28 18,46 0,19 -6,35 -18,47 -12,12 -27,19 -46,19 -11,0 -22,-3 -32,-8 -11,-5 -18,-13 -24,-23 -5,-10 -8,-22 -8,-36zm34 2c0,12 3,21 9,28 5,7 13,10 21,10 9,0 16,-3 22,-10 5,-7 8,-16 8,-29 0,-12 -3,-21 -8,-28 -6,-6 -13,-9 -22,-9 -8,0 -16,3 -21,9 -6,7 -9,16 -9,29zm120 -63l72 0c15,0 26,3 33,8 7,6 11,14 11,25 0,7 -2,13 -6,18 -4,5 -9,9 -15,10 8,2 15,6 19,12 4,6 6,12 6,19 0,10 -3,17 -10,23 -8,6 -18,9 -32,9l-78 0 0 -124zm33 52l21 0c10,0 18,-1 22,-4 5,-2 7,-6 7,-12 0,-5 -2,-9 -6,-11 -5,-2 -12,-4 -23,-4l-21 0 0 31zm0 51l26 0c9,0 16,-1 20,-3 5,-2 7,-6 7,-12 0,-6 -3,-10 -8,-13 -5,-2 -14,-3 -28,-3l-17 0 0 31zm92 -103l35 0 30 88 29 -88 33 0 -43 120 -8 21c-3,8 -6,13 -8,17 -3,4 -6,7 -9,9 -4,2 -8,4 -13,6 -5,1 -11,2 -17,2 -6,0 -12,-1 -18,-2l-3 -26c5,1 10,2 14,2 7,0 13,-3 17,-7 3,-5 6,-10 8,-17l-47 -125zm148 0l33 0 0 51 26 0c2,-16 8,-29 18,-39 10,-9 24,-14 42,-14 17,0 31,5 42,17 11,11 17,27 17,49 0,12 -2,23 -6,32 -4,10 -11,17 -19,23 -9,6 -20,9 -34,9 -20,0 -34,-6 -44,-17 -10,-11 -15,-22 -16,-34l-26 0 0 47 -33 0 0 -124zm118 23c-9,0 -16,3 -20,9 -4,6 -6,15 -6,28 0,17 2,28 7,33 4,6 11,9 20,9 8,0 15,-3 19,-10 4,-6 6,-16 6,-29 0,-15 -2,-26 -6,-31 -5,-6 -12,-9 -20,-9zm-1522 244l31 0 0 78 51 -78 32 0 0 124 -32 0 0 -79 -51 79 -31 0 0 -124zm181 74l0 -22c5,0 10,0 12,-1 3,0 5,-2 7,-5 3,-3 4,-6 4,-10 0,-4 -1,-7 -4,-11 -3,-3 -7,-5 -13,-5 -4,0 -8,1 -12,3 -3,2 -6,6 -9,13l-28 -6c3,-11 9,-19 18,-24 9,-6 20,-8 32,-8 14,0 26,3 34,10 8,7 13,16 13,26 0,6 -2,12 -6,16 -3,4 -9,8 -17,12 10,2 16,6 21,11 5,5 7,12 7,19 0,10 -5,18 -14,25 -9,7 -22,10 -39,10 -29,0 -47,-11 -54,-34l30 -6c5,12 13,19 24,19 6,0 11,-2 15,-5 3,-4 5,-7 5,-12 0,-5 -2,-8 -5,-11 -4,-3 -9,-4 -16,-4l-5 0zm173 -125l22 0c-1,10 -4,18 -8,23 -4,5 -16,7 -33,7 -2,0 -4,0 -6,0l-5 0c-10,0 -19,1 -25,4 -7,2 -12,6 -16,13 -4,7 -6,17 -7,32 5,-9 11,-16 19,-20 8,-5 17,-7 28,-7 16,0 30,6 41,19 11,13 17,27 17,44 0,17 -6,32 -18,45 -12,12 -27,18 -47,18 -13,0 -24,-3 -34,-9 -10,-6 -17,-15 -22,-26 -4,-11 -6,-29 -6,-54 0,-30 5,-51 16,-64 11,-13 30,-20 58,-20l16 0c5,0 8,-2 10,-5zm-66 114c0,12 2,21 8,27 6,7 13,10 21,10 8,0 16,-3 21,-10 6,-7 9,-16 9,-27 0,-11 -3,-19 -9,-26 -6,-7 -13,-10 -21,-10 -8,0 -15,3 -21,10 -6,6 -8,15 -8,26zm119 -63l32 0 0 78 50 -78 32 0 0 124 -31 0 0 -79 -51 79 -32 0 0 -124zm147 0l30 0 0 19c4,-7 10,-12 17,-16 6,-3 14,-5 22,-5 14,0 27,5 37,17 10,11 15,27 15,47 0,21 -5,37 -15,48 -11,12 -23,17 -37,17 -7,0 -13,-1 -19,-4 -5,-2 -11,-7 -17,-14l0 62 -33 0 0 -171zm32 60c0,14 3,25 8,31 6,7 13,10 21,10 7,0 13,-3 19,-9 5,-6 7,-16 7,-30 0,-13 -2,-23 -8,-29 -5,-6 -11,-9 -19,-9 -8,0 -15,3 -20,9 -5,6 -8,15 -8,27zm139 -21l-29 -6c3,-12 9,-21 17,-27 8,-5 20,-8 36,-8 15,0 26,1 33,5 7,3 12,8 15,13 3,5 4,15 4,29l0 39c0,11 0,19 1,24 1,5 3,10 6,16l-32 0c-1,-2 -2,-5 -3,-9 -1,-2 -1,-3 -1,-4 -6,6 -12,10 -18,12 -7,3 -14,4 -21,4 -12,0 -22,-3 -30,-10 -7,-7 -11,-16 -11,-26 0,-7 2,-13 5,-19 4,-5 8,-10 14,-12 6,-3 15,-6 26,-8 16,-3 26,-6 32,-8l0 -3c0,-7 -1,-11 -5,-14 -3,-3 -9,-4 -17,-4 -6,0 -11,1 -14,3 -3,3 -6,7 -8,13zm44 26c-4,2 -11,3 -20,5 -9,2 -15,4 -18,6 -4,3 -6,7 -6,11 0,5 2,9 5,12 3,4 8,5 13,5 6,0 12,-2 17,-5 4,-3 7,-7 8,-11 1,-3 1,-8 1,-16l0 -7zm50 -65l112 0 0 27 -40 0 0 97 -32 0 0 -97 -40 0 0 -27zm203 85l33 6c-4,12 -11,21 -20,27 -9,6 -20,9 -34,9 -21,0 -37,-7 -48,-21 -8,-11 -12,-25 -12,-42 0,-21 5,-37 16,-49 11,-11 25,-17 41,-17 18,0 33,6 44,18 10,12 15,31 15,56l-82 0c0,10 3,17 8,23 5,5 11,8 19,8 5,0 9,-2 12,-4 4,-3 7,-8 8,-14zm2 -33c0,-10 -2,-17 -7,-22 -5,-5 -10,-7 -17,-7 -7,0 -13,2 -18,8 -4,5 -7,12 -7,21l49 0zm68 -52l110 0 0 124 -33 0 0 -97 -44 0 0 56c0,14 -2,24 -5,30 -3,5 -7,9 -11,11 -4,2 -10,3 -19,3 -5,0 -12,-1 -21,-3l0 -24c1,0 3,0 6,1 3,0 6,0 8,0 4,0 7,-2 8,-4 1,-3 1,-11 1,-25l0 -72zm144 0l33 0 0 52 33 0c13,0 22,1 29,3 7,2 13,6 18,12 4,6 7,13 7,21 0,12 -5,21 -13,27 -8,6 -20,9 -37,9l-70 0 0 -124zm33 103l30 0c10,0 16,-1 19,-4 3,-3 4,-7 4,-11 0,-6 -2,-10 -7,-13 -5,-2 -13,-3 -25,-3l-21 0 0 31zm112 -103l33 0 0 46 47 0 0 -46 33 0 0 124 -33 0 0 -52 -47 0 0 52 -33 0 0 -124zm130 0l35 0 29 88 29 -88 34 0 -43 120 -8 21c-3,7 -6,13 -9,17 -2,4 -5,7 -9,9 -3,2 -7,4 -12,6 -5,1 -11,2 -17,2 -6,0 -12,-1 -18,-2l-3 -26c5,1 9,2 14,2 7,0 13,-3 17,-7 3,-5 6,-10 8,-17l-47 -125zm148 0l33 0 0 51 26 0c2,-16 8,-29 18,-39 10,-9 24,-14 41,-14 18,0 32,5 43,17 11,11 17,27 17,49 0,12 -2,23 -6,32 -4,10 -11,17 -19,23 -9,6 -20,8 -34,8 -20,0 -35,-5 -44,-16 -10,-11 -15,-22 -16,-34l-26 0 0 47 -33 0 0 -124zm118 23c-9,0 -16,3 -20,9 -4,6 -6,15 -6,28 0,17 2,28 6,33 5,6 12,9 21,9 8,0 15,-3 19,-10 4,-6 6,-16 6,-29 0,-16 -2,-26 -7,-32 -4,-5 -11,-8 -19,-8zm-1778 244l33 0 0 51c5,-1 9,-2 12,-5 2,-3 5,-9 8,-18 4,-12 9,-20 14,-23 5,-4 11,-5 19,-5 3,0 7,0 13,0l0 22c-8,0 -14,1 -16,2 -3,2 -5,7 -8,16 -4,11 -10,18 -17,21 11,2 19,12 27,27 0,0 0,1 1,2l18 34 -35 0 -16 -36c-4,-7 -7,-12 -9,-14 -3,-2 -6,-3 -11,-3l0 53 -33 0 0 -124zm110 61c0,-11 3,-22 9,-32 5,-10 13,-18 22,-23 10,-6 21,-8 33,-8 19,0 34,6 46,18 12,12 18,28 18,46 0,19 -6,35 -18,47 -12,12 -27,18 -45,18 -12,0 -23,-2 -33,-7 -10,-5 -18,-13 -23,-23 -6,-10 -9,-22 -9,-36zm34 2c0,12 3,21 9,28 6,6 13,10 21,10 9,0 16,-4 22,-10 6,-7 9,-16 9,-29 0,-12 -3,-21 -9,-28 -6,-6 -13,-10 -22,-10 -8,0 -15,4 -21,10 -6,7 -9,16 -9,29zm118 -63l41 0 30 87 31 -87 41 0 0 124 -28 0 0 -81 -30 81 -28 0 -29 -81 0 81 -28 0 0 -124zm175 0l31 0 0 78 51 -78 32 0 0 124 -32 0 0 -79 -51 79 -31 0 0 -124zm256 37l-33 6c-1,-7 -3,-11 -7,-15 -4,-3 -9,-5 -15,-5 -8,0 -15,3 -20,9 -5,6 -7,15 -7,28 0,15 3,25 7,32 5,6 12,9 20,9 7,0 12,-2 16,-6 4,-3 6,-9 8,-18l32 6c-3,14 -10,26 -19,33 -9,8 -22,11 -38,11 -18,0 -33,-5 -43,-17 -11,-11 -17,-27 -17,-47 0,-21 6,-37 17,-48 10,-12 25,-17 43,-17 15,0 27,3 36,9 9,7 16,17 20,30zm132 0l-32 6c-1,-7 -3,-11 -7,-15 -4,-3 -9,-5 -15,-5 -8,0 -15,3 -20,9 -5,6 -7,15 -7,28 0,15 2,25 7,32 5,6 12,9 20,9 6,0 12,-2 15,-6 4,-3 7,-9 9,-18l32 6c-3,14 -10,26 -19,33 -10,8 -22,11 -38,11 -18,0 -33,-5 -44,-17 -10,-11 -16,-27 -16,-47 0,-21 6,-37 16,-48 11,-12 26,-17 44,-17 15,0 27,3 36,9 9,7 16,17 19,30zm24 -37l32 0 0 78 50 -78 33 0 0 124 -32 0 0 -79 -51 79 -32 0 0 -124zm148 0l32 0 0 50 27 0c1,-15 7,-28 18,-38 10,-10 24,-14 41,-14 18,0 32,5 43,17 11,11 17,27 17,48 0,13 -2,24 -7,33 -4,10 -10,17 -19,23 -8,6 -19,8 -33,8 -20,0 -35,-5 -44,-16 -10,-11 -15,-22 -16,-34l-27 0 0 47 -32 0 0 -124zm118 23c-9,0 -16,3 -20,9 -4,6 -7,15 -7,28 0,16 3,28 7,33 5,6 12,9 21,9 8,0 14,-3 19,-10 4,-6 6,-16 6,-29 0,-16 -2,-26 -7,-32 -4,-5 -11,-8 -19,-8zm155 -70l33 0 68 113 0 -113 32 0 0 171 -35 0 -66 -110 0 110 -32 0 0 -171zm144 79c0,-15 5,-26 13,-35 9,-9 20,-13 33,-13 14,0 25,5 34,14 8,9 13,21 13,34 0,9 -2,17 -5,24 -4,7 -9,12 -15,17 -7,4 -15,7 -26,7 -14,0 -26,-5 -34,-14 -8,-10 -13,-21 -13,-34zm32 3c0,7 1,13 4,16 2,4 6,6 11,6 5,0 8,-2 11,-7 2,-5 4,-11 4,-21 0,-7 -2,-13 -4,-17 -2,-4 -6,-5 -10,-5 -5,0 -9,2 -12,7 -3,4 -4,11 -4,21zm-27 56l83 0 0 26 -83 0 0 -26z"/>
   <path class="fil4" d="M4541 2989l39 0 40 88 34 -88 36 0 -58 130c-6,14 -12,24 -19,32 -6,7 -15,11 -25,11 -10,0 -18,-1 -24,-2l0 -26c5,0 9,1 13,1 8,0 14,-2 17,-5 4,-3 7,-9 10,-19l-63 -122zm156 47l32 0 0 50c6,0 10,-2 12,-5 2,-2 5,-8 8,-18 4,-12 9,-20 14,-23 5,-3 12,-5 20,-5 2,0 7,0 13,1l0 21c-9,0 -14,1 -17,3 -2,1 -5,6 -8,15 -3,11 -9,18 -16,21 10,3 19,12 26,27 0,1 1,2 1,2l19 35 -36 0 -16 -36c-3,-8 -6,-12 -9,-14 -2,-2 -6,-3 -11,-3l0 53 -32 0 0 -124zm145 38l-29 -5c3,-13 9,-21 17,-27 8,-6 20,-9 36,-9 15,0 26,2 33,5 7,4 12,8 15,13 3,6 4,15 4,30l0 38c0,11 0,19 1,24 1,5 3,11 6,17l-32 0c-1,-3 -2,-6 -3,-10 -1,-2 -1,-3 -1,-4 -6,6 -12,10 -18,13 -7,2 -14,4 -21,4 -12,0 -23,-4 -30,-11 -7,-7 -11,-15 -11,-26 0,-7 2,-13 5,-19 4,-5 8,-9 14,-12 6,-3 15,-6 26,-8 16,-3 26,-5 32,-8l0 -3c0,-7 -1,-11 -5,-14 -3,-3 -9,-4 -17,-4 -6,0 -11,1 -14,4 -3,2 -6,6 -8,12zm44 26c-4,2 -11,3 -20,5 -9,2 -15,4 -18,6 -4,3 -6,7 -6,12 0,4 2,8 5,12 3,3 8,5 13,5 6,0 12,-2 17,-6 4,-3 7,-7 8,-11 1,-3 1,-8 1,-16l0 -7zm101 9l0 -21c5,0 10,-1 12,-1 3,-1 5,-3 8,-6 2,-3 3,-6 3,-10 0,-4 -1,-7 -4,-11 -3,-3 -7,-5 -13,-5 -4,0 -8,1 -12,3 -3,2 -6,7 -9,13l-28 -6c3,-10 9,-18 18,-24 9,-5 20,-8 32,-8 14,0 26,3 34,10 8,7 13,16 13,26 0,7 -2,12 -6,16 -3,5 -9,8 -17,12 10,3 16,6 21,11 5,6 7,12 7,19 0,10 -5,18 -14,25 -9,7 -22,11 -39,11 -29,0 -47,-12 -54,-35l30 -5c5,12 13,18 24,18 6,0 11,-2 15,-5 3,-3 5,-7 5,-11 0,-5 -2,-9 -5,-12 -4,-3 -9,-4 -16,-4l-5 0zm107 -35l-30 -5c3,-13 9,-21 17,-27 8,-6 21,-9 37,-9 14,0 25,2 32,5 7,4 12,8 15,13 3,6 5,15 5,30l-1 38c0,11 1,19 2,24 1,5 3,11 6,17l-33 0c-1,-3 -2,-6 -3,-10 0,-2 -1,-3 -1,-4 -6,6 -12,10 -18,13 -6,2 -13,4 -20,4 -13,0 -23,-4 -30,-11 -8,-7 -11,-15 -11,-26 0,-7 1,-13 5,-19 3,-5 8,-9 14,-12 6,-3 14,-6 26,-8 15,-3 26,-5 32,-8l0 -3c0,-7 -2,-11 -5,-14 -3,-3 -9,-4 -18,-4 -6,0 -10,1 -13,4 -4,2 -6,6 -8,12zm44 26c-5,2 -11,3 -20,5 -10,2 -15,4 -18,6 -5,3 -7,7 -7,12 0,4 2,8 5,12 4,3 8,5 14,5 5,0 11,-2 16,-6 4,-3 7,-7 8,-11 1,-3 2,-8 2,-16l0 -7zm49 -64l112 0 0 26 -39 0 0 98 -33 0 0 -98 -40 0 0 -26zm133 0l33 0 0 51 32 0c13,0 23,1 30,3 7,2 13,6 17,12 5,6 7,13 7,22 0,12 -4,21 -12,27 -8,6 -21,9 -37,9l-70 0 0 -124zm33 103l30 0c10,0 16,-2 19,-5 2,-3 4,-7 4,-11 0,-6 -3,-10 -7,-12 -5,-3 -13,-4 -25,-4l-21 0 0 32zm178 -103l110 0 0 124 -33 0 0 -98 -44 0 0 98 -33 0 0 -124zm145 0l30 0 0 18c4,-6 10,-11 16,-15 7,-4 15,-6 23,-6 14,0 26,6 37,17 10,11 15,27 15,47 0,21 -5,37 -16,49 -10,11 -22,17 -36,17 -7,0 -13,-2 -19,-4 -6,-3 -11,-8 -18,-14l0 62 -32 0 0 -171zm32 60c0,14 3,24 8,31 6,6 12,10 20,10 8,0 14,-3 19,-9 5,-7 8,-17 8,-31 0,-13 -3,-22 -8,-29 -5,-6 -12,-9 -19,-9 -8,0 -15,3 -20,9 -5,6 -8,16 -8,28zm114 -60l31 0 0 78 51 -78 32 0 0 124 -32 0 0 -79 -51 79 -31 0 0 -124zm144 0l33 0 0 29c0,7 0,12 2,15 1,4 3,7 7,9 4,2 9,3 15,3 6,0 13,-1 20,-3l0 -53 33 0 0 124 -33 0 0 -50c-13,3 -23,5 -29,5 -10,0 -19,-2 -27,-6 -8,-5 -14,-10 -17,-17 -3,-7 -4,-16 -4,-27l0 -29zm141 0l32 0 0 78 50 -78 32 0 0 124 -31 0 0 -79 -51 79 -32 0 0 -124zm147 0l32 0 0 45 48 0 0 -45 32 0 0 124 -32 0 0 -52 -48 0 0 52 -32 0 0 -124zm130 0l34 0 30 88 29 -88 34 0 -44 119 -7 22c-3,7 -6,12 -9,16 -2,4 -5,7 -9,9 -3,3 -7,5 -12,6 -5,1 -11,2 -17,2 -6,0 -13,-1 -19,-2l-3 -26c6,1 10,2 14,2 8,0 14,-2 17,-7 4,-4 7,-10 9,-17l-47 -124z"/>
   <g>
    <path class="fil5" d="M4846 3498c-20,0 -36,-18 -36,-40 0,-21 16,-39 36,-39l0 79zm2225 0l-2225 0 0 -79 2225 0 0 79zm0 -79c20,0 36,18 36,39 0,22 -16,40 -36,40l0 -79zm-2583 306c-20,0 -36,-18 -36,-40 0,-22 16,-39 36,-39l0 79zm2496 0l-2496 0 0 -79 2496 0 0 79zm0 -79c20,0 37,17 37,39 0,22 -17,40 -37,40l0 -79zm-2502 306c-20,0 -36,-18 -36,-40 0,-22 16,-39 36,-39l0 79zm2589 0l-2589 0 0 -79 2589 0 0 79zm0 -79c20,0 36,17 36,39 0,22 -16,40 -36,40l0 -79z"/>
   </g>
   <g>
    <path class="fil5" d="M4817 4304c-21,0 -37,-17 -37,-39 0,-22 16,-40 37,-40l0 79zm2224 0l-2224 0 0 -79 2224 0 0 79zm0 -79c20,0 36,18 36,40 0,22 -16,39 -36,39l0 -79zm-2583 306c-20,0 -36,-17 -36,-39 0,-22 16,-40 36,-40l0 79zm2496 0l-2496 0 0 -79 2496 0 0 79zm0 -79c20,0 37,18 37,40 0,22 -17,39 -37,39l0 -79zm-2502 306c-20,0 -36,-18 -36,-39 0,-22 16,-40 36,-40l0 79zm2589 0l-2589 0 0 -79 2589 0 0 79zm0 -79c20,0 36,18 36,40 0,21 -16,39 -36,39l0 -79z"/>
   </g>
   <path class="fil4" d="M4693 5221l-37 0 -15 -39 -69 0 -14 39 -36 0 66 -171 37 0 68 171zm-63 -68l-24 -64 -23 64 47 0zm184 68l-94 0 0 32 -27 0 0 -59 14 0c5,-6 10,-16 14,-29 3,-14 5,-36 6,-68l100 0 0 97 14 0 0 59 -27 0 0 -32zm-19 -27l0 -70 -40 0c-1,34 -7,57 -16,70l56 0zm67 -97l31 0 0 18c4,-6 9,-11 16,-15 7,-4 14,-6 22,-6 15,0 27,6 37,17 10,11 15,27 15,47 0,21 -5,37 -15,49 -10,11 -23,17 -37,17 -7,0 -13,-2 -19,-4 -5,-3 -11,-8 -17,-14l0 62 -33 0 0 -171zm32 60c0,14 3,24 9,31 5,6 12,10 20,10 7,0 14,-3 19,-9 5,-7 7,-17 7,-31 0,-13 -2,-22 -8,-29 -5,-6 -11,-9 -19,-9 -8,0 -14,3 -20,9 -5,6 -8,16 -8,28zm187 24l32 6c-4,12 -10,21 -19,27 -10,7 -21,10 -34,10 -22,0 -38,-7 -48,-21 -8,-12 -13,-26 -13,-43 0,-21 6,-37 17,-49 10,-11 24,-17 40,-17 19,0 33,6 44,18 10,12 16,31 15,56l-82 0c0,10 3,18 8,23 5,5 11,8 19,8 5,0 9,-1 13,-4 3,-3 6,-7 8,-14zm2 -33c-1,-9 -3,-17 -8,-21 -4,-5 -10,-8 -17,-8 -7,0 -13,3 -17,8 -5,5 -7,12 -7,21l49 0zm164 -15l-33 6c-1,-6 -3,-11 -7,-14 -4,-4 -9,-5 -15,-5 -8,0 -15,3 -19,8 -5,6 -8,15 -8,29 0,14 3,25 8,31 5,6 11,9 19,9 7,0 12,-2 16,-5 4,-4 6,-10 8,-19l32 6c-3,15 -9,26 -19,33 -9,8 -22,12 -38,12 -18,0 -33,-6 -43,-17 -11,-12 -16,-28 -16,-48 0,-21 5,-36 16,-48 11,-11 25,-17 44,-17 15,0 27,3 36,10 8,6 15,16 19,29zm90 -36l110 0 0 124 -33 0 0 -98 -45 0 0 98 -32 0 0 -124zm144 0l31 0 0 18c4,-6 9,-11 16,-15 7,-4 14,-6 23,-6 14,0 26,6 36,17 10,11 15,27 15,47 0,21 -5,37 -15,49 -10,11 -22,17 -37,17 -7,0 -13,-2 -18,-4 -6,-3 -12,-8 -18,-14l0 62 -33 0 0 -171zm33 60c0,14 2,24 8,31 5,6 12,10 20,10 8,0 14,-3 19,-9 5,-7 8,-17 8,-31 0,-13 -3,-22 -8,-29 -5,-6 -12,-9 -20,-9 -8,0 -14,3 -19,9 -6,6 -8,16 -8,28zm107 0c0,-11 2,-21 8,-32 5,-10 13,-18 22,-23 10,-5 21,-8 33,-8 19,0 34,6 46,18 12,13 18,28 18,47 0,18 -6,34 -18,46 -12,13 -27,19 -45,19 -12,0 -23,-3 -33,-8 -10,-5 -18,-13 -23,-23 -6,-10 -8,-22 -8,-36zm33 2c0,12 3,22 9,28 6,7 13,10 22,10 8,0 15,-3 21,-10 6,-6 9,-16 9,-28 0,-13 -3,-22 -9,-28 -6,-7 -13,-10 -21,-10 -9,0 -16,3 -22,10 -6,6 -9,16 -9,28zm168 62l0 -53c-4,0 -7,1 -8,3 -2,1 -5,6 -9,14l-16 36 -35 0 17 -35c9,-17 18,-26 28,-29 -7,-3 -13,-10 -16,-21 -3,-9 -6,-14 -8,-15 -3,-2 -8,-3 -17,-3l0 -21c7,-1 11,-1 14,-1 7,0 13,2 18,5 5,3 10,11 15,24 3,10 6,16 8,18 2,3 5,4 9,5l0 -51 33 0 0 51c4,0 8,-2 10,-5 2,-2 5,-9 8,-18 4,-13 9,-21 14,-24 5,-3 12,-5 19,-5 3,0 7,0 13,1l0 21c-8,0 -14,1 -16,3 -2,1 -5,6 -8,15 -4,11 -9,18 -16,21 9,3 18,12 27,29l18 35 -35 0 -16 -36c-3,-7 -5,-11 -8,-13 -2,-3 -5,-4 -10,-4l0 53 -33 0zm118 -124l31 0 0 78 50 -78 33 0 0 124 -32 0 0 -79 -51 79 -31 0 0 -124zm148 0l71 0c15,0 26,2 33,8 8,5 11,13 11,24 0,7 -2,13 -6,18 -4,5 -9,9 -15,10 9,3 15,6 19,12 5,6 7,12 7,19 0,10 -4,18 -11,24 -7,6 -17,9 -31,9l-78 0 0 -124zm32 51l22 0c10,0 17,-1 22,-4 4,-2 7,-6 7,-12 0,-5 -2,-9 -7,-11 -4,-2 -12,-3 -22,-3l-22 0 0 30zm0 52l26 0c10,0 17,-1 21,-4 4,-2 6,-6 6,-12 0,-6 -2,-10 -7,-12 -5,-3 -15,-4 -29,-4l-17 0 0 32zm135 -65l-29 -5c3,-12 9,-21 17,-27 8,-6 20,-9 36,-9 15,0 26,2 33,5 7,4 12,8 15,13 3,6 5,15 5,30l-1 38c0,11 1,19 2,24 1,5 3,11 6,17l-33 0c-1,-3 -2,-6 -3,-10 -1,-2 -1,-3 -1,-4 -6,6 -12,10 -18,13 -7,2 -13,4 -20,4 -13,0 -23,-4 -31,-11 -7,-7 -11,-15 -11,-26 0,-7 2,-13 5,-19 4,-5 8,-9 15,-12 6,-3 14,-6 26,-8 15,-3 26,-5 31,-8l0 -3c0,-7 -1,-11 -4,-14 -3,-3 -9,-4 -18,-4 -6,0 -10,1 -14,4 -3,2 -6,6 -8,12zm44 26c-4,2 -10,3 -20,5 -9,2 -15,4 -17,6 -5,3 -7,7 -7,12 0,4 2,8 5,12 4,3 8,5 13,5 6,0 12,-2 17,-6 4,-3 7,-7 8,-11 1,-3 1,-8 1,-16l0 -7zm64 -64l32 0 0 45 48 0 0 -45 32 0 0 124 -32 0 0 -52 -48 0 0 52 -32 0 0 -124zm144 0l32 0 0 78 50 -78 33 0 0 124 -32 0 0 -79 -51 79 -32 0 0 -124zm254 0l0 124 -32 0 0 -52 -3 0c-7,0 -13,1 -16,3 -3,2 -7,6 -11,12l-2 2 -22 35 -38 0 24 -36c6,-11 12,-16 18,-18 -9,-1 -17,-4 -22,-10 -6,-7 -9,-15 -9,-25 0,-8 2,-15 6,-21 3,-5 8,-9 15,-11 6,-2 15,-3 28,-3l64 0zm-32 21l-24 0c-8,0 -15,1 -18,3 -4,3 -5,7 -5,13 0,5 2,9 6,12 4,2 10,4 19,4l22 0 0 -32z"/>
  </g>
 </g>
</svg>
