<?xml version="1.0" encoding="UTF-8"?>
<!DOCTYPE svg PUBLIC "-//W3C//DTD SVG 1.0//EN" "http://www.w3.org/TR/2001/REC-SVG-20010904/DTD/svg10.dtd">
<!-- Creator: CorelDRAW X7 -->
<svg xmlns="http://www.w3.org/2000/svg" xml:space="preserve" width="115.711mm" height="70.5555mm" version="1.0" style="shape-rendering:geometricPrecision; text-rendering:geometricPrecision; image-rendering:optimizeQuality; fill-rule:evenodd; clip-rule:evenodd"
viewBox="0 0 11571 7056"
 xmlns:xlink="http://www.w3.org/1999/xlink">
 <defs>
  <style type="text/css">
   <![CDATA[
    .str0 {stroke:#57A7B3;stroke-width:3.58775;stroke-linecap:round;stroke-linejoin:round}
    .fil4 {fill:#D9DADA}
    .fil6 {fill:#C5C6C6}
    .fil3 {fill:#B2B3B3}
    .fil11 {fill:#CD5771}
    .fil16 {fill:#748187}
    .fil1 {fill:#CAE6E9}
    .fil2 {fill:#BCD5D1}
    .fil7 {fill:#ABC9C0}
    .fil14 {fill:#727271;fill-rule:nonzero}
    .fil10 {fill:#5B5B5B;fill-rule:nonzero}
    .fil8 {fill:#AB8082;fill-rule:nonzero}
    .fil13 {fill:#CD5771;fill-rule:nonzero}
    .fil12 {fill:#B64F65;fill-rule:nonzero}
    .fil15 {fill:#748187;fill-rule:nonzero}
    .fil9 {fill:#57A7B3;fill-rule:nonzero}
    .fil5 {fill:#2D98A2;fill-rule:nonzero}
    .fil0 {fill:url(#id0)}
   ]]>
  </style>
  <radialGradient id="id0" gradientUnits="userSpaceOnUse" gradientTransform="matrix(1.17124 -0 -0 1.92083 -991 -3248)" cx="5785.55" cy="3527.77" r="3527.77" fx="5785.55" fy="3527.77">
   <stop offset="0" style="stop-opacity:1; stop-color:#FEFEFE"/>
   <stop offset="0.439216" style="stop-opacity:1; stop-color:#FEFEFE"/>
   <stop offset="1" style="stop-opacity:1; stop-color:#D1E2F2"/>
  </radialGradient>
 </defs>
 <g id="Layer_x0020_1">
  <metadata id="CorelCorpID_0Corel-Layer"/>
  <path class="fil0" d="M0 0l11571 0 0 7056 -11571 0 0 -7056z"/>
  <g id="_467017555504">
   <path class="fil1" d="M1574 5130l0 -2085 1994 0 0 2085 -1994 0z"/>
   <path class="fil2" d="M4092 4495l0 -2026 -524 576 0 2085 524 -635z"/>
   <path class="fil3" d="M4058 2710l0 -195 -490 530 0 195 490 -530z"/>
   <g>
    <path class="fil4" d="M2157 2469l1935 0 -524 576 -1994 0 583 -576z"/>
    <path id="1" class="fil5" d="M4092 2509l-1935 0 0 -80 1935 0 28 67 -28 13zm0 -80c21,0 39,18 39,40 0,22 -18,40 -39,40l0 -80zm-553 589l524 -576 57 54 -523 576 -29 13 -29 -67zm58 54c-15,16 -40,17 -56,2 -15,-15 -17,-40 -2,-56l58 54zm-2023 -67l1994 0 0 80 -1994 0 -27 -68 27 -12zm0 80c-22,0 -39,-18 -39,-40 0,-22 17,-40 39,-40l0 80zm611 -588l-584 576 -54 -56 583 -576 27 -12 28 68zm-55 -56c15,-16 40,-15 55,0 16,16 15,41 0,56l-55 -56z"/>
   </g>
   <path class="fil6" d="M1574 3240l0 -195 1994 0 0 195 -1994 0z"/>
   <path class="fil2" d="M2114 4554l1934 0 -480 576 -1994 0 540 -576z"/>
   <path class="fil7" d="M3568 4554l0 576 474 -576 -474 0z"/>
   <g>
    <path class="fil5" d="M4131 2469l0 2026 -79 0 0 -2026 10 -26 69 26zm-79 0c0,-22 18,-39 40,-39 21,0 39,17 39,39l-79 0zm-513 550l523 -576 59 52 -524 576 -69 -26 11 -26zm58 52c-14,16 -39,18 -56,3 -16,-14 -17,-39 -2,-55l58 52zm-69 2059l0 -2085 80 0 0 2085 -9 25 -71 -25zm80 0c0,22 -18,40 -40,40 -22,0 -40,-18 -40,-40l80 0zm514 -610l-523 635 -62 -49 524 -636 70 25 -9 25zm-61 -50c14,-17 39,-19 56,-6 17,14 19,39 5,56l-61 -50z"/>
   </g>
   <g>
    <path class="fil5" d="M4062 2681c15,-17 40,-18 56,-3 16,15 18,40 3,56l-59 -53zm-484 532l484 -532 59 53 -484 532 -30 13 -29 -66zm59 53c-15,16 -40,18 -56,3 -16,-15 -18,-40 -3,-56l59 53zm-2055 -66l2025 0 0 79 -2025 0 0 -79zm0 79c-22,0 -40,-18 -40,-39 0,-22 18,-40 40,-40l0 79z"/>
   </g>
   <g>
    <path class="fil5" d="M1614 3045l0 2085 -79 0 0 -2085 39 -40 40 40zm-79 0c0,-22 17,-40 39,-40 22,0 40,18 40,40l-79 0zm2033 40l-1994 0 0 -80 1994 0 40 40 -40 40zm0 -80c22,0 40,18 40,40 0,22 -18,40 -40,40l0 -80zm-40 2125l0 -2085 80 0 0 2085 -40 40 -40 -40zm80 0c0,22 -18,40 -40,40 -22,0 -40,-18 -40,-40l80 0zm-2034 -39l1994 0 0 79 -1994 0 -39 -40 39 -39zm0 79c-22,0 -39,-18 -39,-40 0,-21 17,-39 39,-39l0 79z"/>
   </g>
   <g>
    <path class="fil8" d="M2772 3703c-12,0 -21,5 -28,12 -38,42 -81,84 -126,125 -14,14 -19,30 -1,49 18,17 34,11 48,-1 28,-23 57,-53 81,-82l0 379 -97 0c-20,0 -35,10 -35,35 0,25 15,35 35,35l251 0c20,0 35,-10 35,-35 0,-25 -15,-35 -35,-35l-81 0 0 -446c0,-20 -6,-36 -34,-36l-13 0z"/>
    <path id="1" class="fil8" d="M2752 3722l-15 -13 0 -1 1 -1 1 0 0 -1 1 -1 1 0 1 -1 1 -1 1 -1 1 0 1 -1 1 -1 1 0 1 -1 1 0 1 -1 1 -1 1 0 1 -1 1 0 1 0 1 -1 2 0 1 -1 1 0 2 0 1 0 1 -1 2 0 1 0 1 0 2 0 1 0 0 20 -1 0 -1 0 0 0 -1 0 -1 0 -1 0 -1 0 0 1 -1 0 -1 0 0 0 -1 0 -1 1 0 0 -1 0 -1 0 0 1 -1 0 0 0 -1 1 -1 0 0 1 -1 0 0 0 -1 1 0 0 -1 1 -1 0 0 1 -1 0 0 1 -1 0 1 0zm-15 -13l0 -1 0 0 0 1zm-112 139l-14 -15 0 0 5 -4 4 -4 4 -3 4 -4 4 -4 4 -4 5 -4 4 -4 4 -4 4 -4 4 -3 4 -4 4 -4 4 -4 4 -4 4 -4 4 -4 4 -4 3 -4 4 -4 4 -3 4 -4 4 -4 4 -4 3 -4 4 -4 4 -4 3 -4 4 -4 4 -4 3 -4 4 -3 15 13 -4 4 -4 4 -3 4 -4 4 -4 4 -3 4 -4 4 -4 4 -4 4 -4 4 -4 4 -3 4 -4 3 -4 4 -4 4 -4 4 -4 4 -4 4 -4 4 -4 4 -4 4 -4 4 -4 4 -5 4 -4 4 -4 3 -4 4 -4 4 -4 4 -5 4 -4 4 -4 4 0 0zm-14 -15l0 0 0 0 0 0zm14 49l-15 14 0 0 -2 -2 -1 -2 -2 -2 -2 -2 -1 -2 -1 -3 -1 -2 -1 -2 -1 -2 -1 -2 -1 -2 0 -3 0 -2 -1 -2 0 -2 1 -2 0 -3 0 -2 1 -2 0 -2 1 -2 1 -2 1 -1 1 -2 1 -2 1 -2 1 -1 2 -2 1 -1 1 -2 2 -1 1 -2 14 15 -1 1 -1 1 -1 1 -1 1 -1 1 -1 1 0 1 -1 1 0 1 -1 1 0 1 -1 1 0 1 0 1 0 1 0 0 -1 1 0 1 1 1 0 1 0 1 0 1 0 1 1 1 0 1 1 1 1 2 1 1 1 1 1 2 1 1 1 2 1 0zm33 -2l13 16 0 0 -1 1 -2 1 -1 1 -2 1 -1 1 -2 1 -2 1 -1 1 -2 1 -2 1 -2 1 -2 0 -2 1 -2 0 -2 1 -2 0 -2 0 -2 0 -2 0 -2 0 -2 0 -2 -1 -2 -1 -3 0 -2 -1 -2 -1 -2 -1 -2 -2 -2 -1 -2 -2 -2 -1 -2 -2 15 -14 1 1 1 1 1 1 1 1 2 1 1 0 1 1 1 0 1 0 1 1 1 0 1 0 0 0 1 0 1 0 1 0 1 0 1 0 1 0 1 -1 1 0 1 -1 1 0 1 -1 1 0 2 -1 1 -1 1 0 1 -1 1 -1 1 -1 1 -1 0 0zm98 -74l-20 0 17 7 -2 2 -2 3 -3 3 -2 3 -2 2 -3 3 -2 3 -3 3 -2 2 -3 3 -2 3 -3 2 -2 3 -3 3 -3 2 -2 3 -3 3 -2 2 -3 3 -3 3 -2 2 -3 3 -3 2 -2 3 -3 2 -3 3 -2 2 -3 2 -3 3 -2 2 -3 2 -3 3 -13 -16 3 -2 3 -2 2 -2 3 -3 2 -2 3 -2 3 -3 2 -2 3 -2 2 -3 3 -2 2 -3 3 -2 3 -3 2 -2 3 -3 2 -2 3 -3 2 -3 3 -2 2 -3 3 -3 2 -2 2 -3 3 -3 2 -2 3 -3 2 -3 2 -2 3 -3 2 -3 2 -2 18 6zm-18 -6l18 -21 0 27 -18 -6zm-2 385l0 -379 20 0 0 379 -10 10 -10 -10zm20 0l0 10 -10 0 10 -10zm-107 -10l97 0 0 20 -97 0 0 0 0 -20zm-25 45l-20 0 0 0 0 -3 0 -2 0 -3 0 -3 1 -2 0 -2 1 -3 1 -2 1 -2 1 -2 1 -2 1 -2 2 -2 1 -1 2 -2 1 -1 2 -2 1 -1 2 -1 2 -1 2 -1 2 -1 2 -1 2 -1 2 0 2 -1 2 0 2 -1 2 0 2 0 2 0 3 0 0 20 -2 0 -1 0 -2 0 -1 0 -1 0 -2 1 -1 0 -1 0 -1 1 -1 0 -1 1 -1 0 -1 1 -1 0 -1 1 -1 0 0 1 -1 1 -1 1 0 1 -1 0 0 1 -1 1 0 2 -1 1 0 1 -1 1 0 2 0 1 0 2 0 2 0 2 0 0zm25 25l0 20 0 0 -3 0 -2 0 -2 0 -2 -1 -2 0 -2 -1 -2 0 -2 -1 -2 0 -2 -1 -2 -1 -2 -1 -2 -1 -2 -1 -1 -1 -2 -2 -1 -1 -2 -2 -1 -2 -2 -1 -1 -2 -1 -2 -1 -2 -1 -3 -1 -2 -1 -2 0 -2 -1 -3 0 -2 0 -3 0 -2 0 -3 20 0 0 2 0 2 0 1 0 2 0 1 1 2 0 1 1 1 0 1 1 1 0 1 1 1 0 1 1 1 1 1 0 0 1 1 1 0 1 1 1 1 1 0 1 1 1 0 1 0 1 1 1 0 2 0 1 0 1 1 2 0 1 0 2 0 0 0zm251 20l-251 0 0 -20 251 0 0 0 0 20zm25 -45l20 0 0 0 0 3 0 2 0 3 0 2 -1 3 -1 2 0 2 -1 2 -1 3 -1 2 -1 2 -1 2 -2 1 -1 2 -2 2 -1 1 -2 2 -2 1 -1 1 -2 1 -2 1 -2 1 -2 1 -2 0 -2 1 -2 0 -2 1 -2 0 -2 1 -2 0 -2 0 -3 0 0 -20 2 0 1 0 2 0 1 -1 1 0 2 0 1 0 1 -1 1 0 1 0 1 -1 1 0 1 -1 1 -1 1 0 1 -1 0 0 1 -1 1 -1 0 -1 1 -1 0 -1 1 -1 0 -1 1 -1 0 -1 1 -2 0 -1 0 -2 0 -1 0 -2 0 -2 0 0zm-25 -25l0 -20 0 0 3 0 2 0 2 0 2 0 2 1 2 0 2 1 2 0 2 1 2 1 2 1 2 1 2 1 1 1 2 1 2 2 1 1 2 2 1 1 2 2 1 2 1 2 1 2 1 2 1 2 0 3 1 2 1 2 0 3 0 3 0 2 0 3 -20 0 0 -2 0 -2 0 -2 0 -1 0 -2 -1 -1 0 -1 -1 -1 0 -2 -1 -1 0 -1 -1 0 0 -1 -1 -1 -1 -1 0 -1 -1 0 -1 -1 -1 0 -1 -1 -1 0 -1 -1 -1 0 -1 -1 -1 0 -1 0 -2 -1 -1 0 -1 0 -2 0 -1 0 -2 0 0 0zm-81 -20l81 0 0 20 -81 0 -10 -10 10 -10zm0 20l-10 0 0 -10 10 10zm10 -456l0 446 -20 0 0 -446 0 0 20 0zm-44 -26l0 -20 0 0 3 0 3 0 3 0 2 1 3 0 2 1 3 1 2 1 2 0 2 2 2 1 2 1 2 2 1 1 2 2 1 2 2 1 1 2 1 2 1 2 0 2 1 2 1 2 0 2 1 2 0 2 0 2 0 2 1 2 0 2 0 2 0 2 -20 0 0 -1 0 -2 0 -2 0 -1 -1 -2 0 -1 0 -1 0 -2 -1 -1 0 -1 0 -1 -1 -1 0 -1 -1 -1 0 -1 -1 0 0 -1 -1 -1 -1 0 0 -1 -1 -1 -1 0 -1 -1 -1 0 -1 0 -1 -1 -2 0 -1 -1 -2 0 -2 0 -2 0 -2 0 0 0zm-13 -20l13 0 0 20 -13 0 0 0 0 -20z"/>
   </g>
   <path class="fil8" d="M2317 4113c0,13 2,27 3,36l0 0 -113 -233c-6,-12 -14,-17 -24,-17 -17,0 -24,11 -24,23l0 315c0,12 7,23 24,23 16,0 22,-11 22,-23l0 -190c0,-14 -2,-28 -3,-37l1 0 113 233c6,12 14,17 24,17 17,0 24,-11 24,-23l0 -315c0,-12 -7,-23 -24,-23 -16,0 -23,11 -23,23l0 191zm127 -108c-15,0 -19,-9 -19,-23l0 -25c0,-14 4,-22 19,-22l8 0c15,0 19,8 19,22l0 25c0,14 -4,23 -19,23l-8 0zm8 34c35,0 51,-24 51,-54l0 -30c0,-31 -16,-53 -51,-53l-8 0c-35,0 -51,22 -51,53l0 30c0,30 16,54 51,54l8 0zm35 59c10,0 18,-5 18,-18 0,-13 -8,-18 -18,-18l-77 0c-11,0 -19,5 -19,18 0,13 8,18 19,18l77 0z"/>
   <path class="fil9 str0" d="M2116 4614c0,-27 -12,-45 -36,-53 16,-10 25,-23 25,-44l0 -11c0,-38 -22,-57 -65,-57l-40 0c-11,0 -16,7 -16,15l0 206c0,9 5,16 16,16l51 0c43,0 65,-23 65,-61l0 -11zm-100 -34l35 0c24,0 33,14 33,34l0 11c0,21 -9,31 -33,31l-35 0 0 -76zm0 -30l0 -71 24 0c23,0 33,7 33,27l0 11c0,21 -10,33 -33,33l-24 0zm217 -10l-23 0 0 -79c0,-8 -5,-16 -16,-16 -12,0 -16,8 -16,16l0 209c0,8 4,16 15,16l40 0c43,0 63,-23 63,-61l0 -20c0,-38 -20,-65 -63,-65zm-23 31l23 0c23,0 32,13 32,34l0 20c0,20 -9,31 -32,31l-23 0 0 -85zm142 103l0 -213c0,-8 -5,-16 -16,-16 -11,0 -16,8 -16,16l0 213c0,8 5,15 16,15 11,0 16,-7 16,-15l0 0zm135 -131l-31 0 0 -64 69 0c8,0 15,-4 15,-15 0,-10 -7,-15 -15,-15l-85 0c-11,0 -15,6 -15,14l0 207c0,9 5,16 16,16l46 0c43,0 63,-23 63,-61l0 -19c0,-38 -20,-63 -63,-63zm32 82c0,21 -9,31 -32,31l-31 0 0 -85 31 0c23,0 32,13 32,34l0 20zm121 -114c0,-21 8,-35 31,-35l10 0c24,0 31,14 31,35l0 112c0,21 -7,36 -31,36l-10 0c-23,0 -31,-15 -31,-36l0 -112zm104 0c0,-37 -20,-66 -63,-66l-10 0c-43,0 -63,29 -63,66l0 112c0,38 20,66 63,66l10 0c43,0 63,-28 63,-66l0 -112zm101 52l0 -84 35 0c23,0 31,10 31,30l0 21c0,20 -8,33 -31,33l-35 0zm35 31c43,0 62,-27 62,-64l0 -21c0,-38 -19,-60 -62,-60l-51 0c-11,0 -16,7 -16,15l0 210c0,8 5,15 16,15 12,0 16,-7 16,-15l0 -80 35 0zm180 -54l-23 0 0 -79c0,-8 -5,-16 -16,-16 -11,0 -16,8 -16,16l0 209c0,8 5,16 16,16l39 0c43,0 63,-23 63,-61l0 -20c0,-38 -20,-65 -63,-65zm-23 31l23 0c24,0 32,13 32,34l0 20c0,20 -8,31 -32,31l-23 0 0 -85zm142 103l0 -213c0,-8 -4,-16 -16,-16 -10,0 -16,8 -16,16l0 213c0,8 5,15 16,15 11,0 16,-7 16,-15l0 0z"/>
   <g>
    <path class="fil10" d="M2201 2817c-31,0 -57,-27 -57,-60 0,-33 26,-60 57,-60l0 120zm1211 0l-1211 0 0 -120 1211 0 0 120zm0 -120c31,0 56,27 56,60 0,33 -25,60 -56,60l0 -120z"/>
   </g>
   <path class="fil11" d="M1529 2697l19 25c12,-7 24,-14 36,-20 16,-8 35,-2 43,14 8,16 2,37 -14,45 -9,4 -18,8 -26,13l10 14 -52 158 -401 303 -57 -75 -69 -91 -57 -76 401 -303 167 -7z"/>
   <g>
    <path class="fil12" d="M1432 2892c2,11 -5,22 -16,24 -12,1 -22,-6 -24,-17l40 -7zm-76 -19l-7 -40 0 0 4 0 4 -1 3 0 4 0 4 0 3 1 4 0 3 1 3 1 4 1 3 1 3 2 3 1 3 2 3 2 3 2 3 2 2 2 3 2 2 3 3 2 2 3 2 3 2 3 2 3 1 3 2 3 1 3 2 4 1 3 0 4 1 3 -40 7 0 -2 -1 -1 0 -2 0 -1 -1 -2 -1 -1 0 -1 -1 -2 -1 -1 -1 -1 -1 -1 -1 -1 -1 -2 -1 -1 -1 -1 -2 0 -1 -1 -1 -1 -1 -1 -2 0 -1 -1 -2 -1 -1 0 -1 0 -2 -1 -1 0 -2 0 -2 0 -1 0 -2 0 -1 0 -2 0 0 0zm0 0c-11,2 -21,-5 -23,-17 -2,-11 5,-21 16,-23l7 40zm-26 36l-40 7 0 -4 0 -3 -1 -4 0 -4 1 -3 0 -4 1 -3 0 -4 1 -3 1 -3 2 -4 1 -3 1 -3 2 -3 2 -3 2 -3 2 -2 2 -3 2 -3 3 -2 2 -2 3 -3 3 -2 3 -2 3 -1 3 -2 3 -2 3 -1 4 -1 3 -1 4 -1 3 -1 7 40 -1 0 -2 1 -2 0 -1 1 -1 0 -2 1 -1 1 -1 1 -2 0 -1 1 -1 1 -1 1 -1 1 -1 1 -1 2 -1 1 -1 1 -1 1 -1 2 0 1 -1 1 0 2 -1 1 0 2 -1 1 0 2 0 1 0 2 0 1 0 2 0 2 0 1zm0 0c2,11 -5,22 -16,24 -11,1 -22,-6 -24,-17l40 -7z"/>
   </g>
   <g>
    <path class="fil13" d="M2146 2992c-5,-17 4,-35 21,-40 17,-6 35,4 41,21l-62 19zm74 28l-63 13 -1 -4 -4 -19 -6 -18 62 -19 6 21 5 21 1 5zm0 0c3,17 -8,34 -25,38 -17,4 -35,-7 -38,-25l63 -13zm-59 138c2,-18 18,-30 36,-28 18,3 30,19 28,36l-64 -8zm55 56l-63 -14 2 -8 3 -18 3 -16 64 8 -3 20 -4 20 -2 8zm0 0c-4,17 -22,28 -39,24 -17,-4 -28,-21 -24,-38l63 14zm-113 101c9,-16 29,-20 44,-11 15,9 20,29 11,44l-55 -33zm26 73l-51 -39 9 -12 11 -14 5 -8 55 33 -7 11 -12 17 -10 12zm0 0c-11,14 -31,17 -45,6 -14,-11 -17,-31 -6,-45l51 39zm-145 43c14,-10 34,-6 44,9 10,15 6,35 -9,45l-35 -54zm-7 77l-31 -57 17 -8 16 -9 5 -3 35 54 -7 4 -19 11 -16 8zm0 0c-16,9 -36,3 -44,-13 -8,-16 -2,-35 13,-44l31 57z"/>
   </g>
   <path class="fil12" d="M1593 2699c84,-38 175,-48 263,-32 105,19 205,77 275,169l0 0c8,11 16,23 23,34 13,21 1,40 -24,40l-35 0c-7,-12 -7,-24 -16,-35l0 0 0 0c-59,-79 -144,-128 -235,-145 -76,-14 -156,-4 -229,30l-2 1c16,-8 22,-29 14,-45 -6,-13 -20,-19 -34,-17zm-94 745c81,64 183,101 291,98 18,-1 32,-16 31,-34 0,-17 -15,-31 -33,-31 -92,3 -180,-28 -249,-83 -148,-119 -132,-243 -141,-418 -1,-22 -2,-45 -4,-77 -1,-18 -16,-31 -34,-30 -18,1 -32,16 -30,34 1,23 2,51 4,76 10,200 -2,331 165,465zm-196 -695c-22,-82 -56,-169 -100,-258 -45,-92 -100,-186 -164,-278 -10,-14 -6,-34 9,-44 14,-11 34,-7 45,8 64,93 121,190 168,286 41,84 74,166 97,244l-55 42z"/>
   <g>
    <path class="fil14" d="M2047 2890c-2,-11 5,-22 16,-24 11,-2 22,6 24,17l-40 7zm76 18l7 40 0 0 -3 1 -4 0 -3 0 -4 0 -4 0 -3 0 -4 -1 -3 -1 -4 -1 -3 -1 -3 -1 -3 -1 -3 -2 -4 -1 -2 -2 -3 -2 -3 -2 -3 -2 -2 -2 -3 -3 -2 -2 -2 -3 -3 -3 -1 -3 -2 -3 -2 -3 -2 -3 -1 -3 -1 -4 -1 -3 -1 -4 -1 -3 40 -7 0 1 1 2 0 1 1 2 0 1 1 2 1 1 0 1 1 2 1 1 1 1 1 1 1 1 1 1 2 1 1 1 1 1 1 1 2 0 1 1 2 0 1 1 1 0 2 1 1 0 2 0 1 0 2 1 1 0 2 -1 2 0 1 0 0 0zm0 0c11,-2 22,5 24,16 2,11 -6,22 -17,24l-7 -40zm26 -36l40 -7 0 3 0 4 1 3 0 4 -1 4 0 3 0 4 -1 3 -1 4 -1 3 -1 3 -2 3 -1 3 -2 4 -1 2 -2 3 -2 3 -2 3 -3 2 -2 3 -3 2 -2 2 -3 3 -3 1 -3 2 -3 2 -3 2 -4 1 -3 1 -3 1 -4 1 -4 1 -7 -40 2 0 1 -1 2 0 1 -1 2 0 1 -1 2 -1 1 0 1 -1 1 -1 1 -1 2 -1 1 -1 1 -1 1 -2 0 -1 1 -1 1 -1 1 -2 0 -1 1 -2 1 -1 0 -1 0 -2 1 -1 0 -2 0 -1 0 -2 0 -1 0 -2 0 -2 0 -1zm0 0c-2,-11 5,-22 16,-24 11,-2 22,6 24,17l-40 7z"/>
   </g>
   <g>
    <path class="fil14" d="M1782 3581c-11,-1 -19,-10 -18,-22 0,-11 10,-19 21,-18l-3 40zm37 -69l40 2 0 0 0 4 -1 4 -1 3 0 4 -1 3 -2 4 -1 3 -2 3 -1 3 -2 3 -2 3 -2 3 -2 2 -3 3 -2 2 -3 3 -2 2 -3 2 -3 2 -3 2 -3 1 -3 2 -3 1 -3 1 -4 1 -3 1 -4 1 -3 1 -4 0 -3 0 -4 0 -4 0 3 -40 2 0 1 0 2 0 2 -1 1 0 2 0 1 -1 1 0 2 -1 1 0 2 -1 1 0 1 -1 2 -1 1 -1 1 -1 1 -1 1 -1 1 -1 1 -1 1 -2 1 -1 1 -1 0 -1 1 -2 1 -1 0 -2 1 -1 0 -2 0 -1 0 -2 1 -1 0 0zm0 0c0,-12 10,-20 21,-19 11,1 20,10 19,21l-40 -2zm-29 -34l2 -40 4 0 4 1 3 0 4 1 3 1 4 1 3 2 3 1 3 2 3 2 3 2 3 2 2 2 3 2 2 3 3 2 2 3 2 3 2 3 2 2 1 4 2 3 1 3 1 3 1 3 1 4 1 3 1 4 0 4 0 3 0 4 0 3 -40 -2 0 -2 0 -2 0 -1 -1 -2 0 -1 0 -2 -1 -1 0 -2 0 -1 -1 -2 -1 -1 0 -1 -1 -2 -1 -1 -1 -1 -1 -1 -1 -1 -1 -1 -1 -1 -1 -1 -2 -1 -1 -1 -1 -1 -1 -1 -2 0 -1 -1 -2 0 -1 -1 -2 0 -1 -1 -2 0 -1 0zm0 0c-12,-1 -20,-10 -19,-22 1,-11 10,-19 21,-18l-2 40z"/>
   </g>
   <path class="fil1" d="M7792 5130l0 -2085 1993 0 0 2085 -1993 0z"/>
   <path class="fil2" d="M10309 4495l0 -2026 -524 576 0 2085 524 -635z"/>
   <path class="fil3" d="M10275 2710l0 -195 -490 530 0 195 490 -530z"/>
   <g>
    <path class="fil4" d="M8375 2469l1934 0 -524 576 -1994 0 584 -576z"/>
    <path id="1" class="fil5" d="M10309 2509l-1934 0 0 -80 1934 0 29 67 -29 13zm0 -80c22,0 39,18 39,40 0,22 -17,40 -39,40l0 -80zm-553 589l524 -576 58 54 -524 576 -29 13 -29 -67zm58 54c-14,16 -39,17 -55,2 -16,-15 -17,-40 -3,-56l58 54zm-2023 -67l1994 0 0 80 -1994 0 -27 -68 27 -12zm0 80c-21,0 -39,-18 -39,-40 0,-22 18,-40 39,-40l0 80zm611 -588l-583 576 -55 -56 583 -576 28 -12 27 68zm-55 -56c16,-16 41,-15 56,0 15,16 15,41 -1,56l-55 -56z"/>
   </g>
   <path class="fil6" d="M7792 3240l0 -195 1993 0 0 195 -1993 0z"/>
   <path class="fil2" d="M8331 4554l1934 0 -480 576 -1993 0 539 -576z"/>
   <path class="fil7" d="M9785 4554l0 576 475 -576 -475 0z"/>
   <g>
    <path class="fil5" d="M10349 2469l0 2026 -80 0 0 -2026 11 -26 69 26zm-80 0c0,-22 18,-39 40,-39 22,0 40,17 40,39l-80 0zm-513 550l524 -576 58 52 -523 576 -69 -26 10 -26zm59 52c-15,16 -40,18 -56,3 -16,-14 -18,-39 -3,-55l59 52zm-69 2059l0 -2085 79 0 0 2085 -9 25 -70 -25zm79 0c0,22 -18,40 -40,40 -21,0 -39,-18 -39,-40l79 0zm515 -610l-524 635 -61 -49 523 -636 71 25 -9 25zm-62 -50c14,-17 39,-19 56,-6 17,14 19,39 6,56l-62 -50z"/>
   </g>
   <g>
    <path class="fil5" d="M10280 2681c14,-17 39,-18 56,-3 16,15 17,40 2,56l-58 -53zm-484 532l484 -532 58 53 -484 532 -29 13 -29 -66zm58 53c-15,16 -40,18 -56,3 -16,-15 -17,-40 -2,-56l58 53zm-2055 -66l2026 0 0 79 -2026 0 0 -79zm0 79c-22,0 -39,-18 -39,-39 0,-22 17,-40 39,-40l0 79z"/>
   </g>
   <g>
    <path class="fil5" d="M7831 3045l0 2085 -79 0 0 -2085 39 -40 40 40zm-79 0c0,-22 18,-40 39,-40 22,0 40,18 40,40l-79 0zm2033 40l-1994 0 0 -80 1994 0 40 40 -40 40zm0 -80c22,0 40,18 40,40 0,22 -18,40 -40,40l0 -80zm-39 2125l0 -2085 79 0 0 2085 -40 40 -39 -40zm79 0c0,22 -18,40 -40,40 -22,0 -39,-18 -39,-40l79 0zm-2034 -39l1994 0 0 79 -1994 0 -39 -40 39 -39zm0 79c-21,0 -39,-18 -39,-40 0,-21 18,-39 39,-39l0 79z"/>
   </g>
   <g>
    <path class="fil10" d="M8418 2817c-31,0 -56,-27 -56,-60 0,-33 25,-60 56,-60l0 120zm1211 0l-1211 0 0 -120 1211 0 0 120zm0 -120c31,0 57,27 57,60 0,33 -26,60 -57,60l0 -120z"/>
   </g>
   <path class="fil1" d="M4683 5130l0 -2085 1994 0 0 2085 -1994 0z"/>
   <path class="fil2" d="M7200 4495l0 -2026 -523 576 0 2085 523 -635z"/>
   <path class="fil3" d="M7166 2710l0 -195 -489 530 0 195 489 -530z"/>
   <g>
    <path class="fil4" d="M5266 2469l1934 0 -523 576 -1994 0 583 -576z"/>
    <path id="1" class="fil5" d="M7200 2509l-1934 0 0 -80 1934 0 29 67 -29 13zm0 -80c22,0 39,18 39,40 0,22 -17,40 -39,40l0 -80zm-552 589l523 -576 58 54 -524 576 -28 13 -29 -67zm57 54c-14,16 -39,17 -55,2 -16,-15 -17,-40 -2,-56l57 54zm-2022 -67l1994 0 0 80 -1994 0 -28 -68 28 -12zm0 80c-22,0 -39,-18 -39,-40 0,-22 17,-40 39,-40l0 80zm610 -588l-583 576 -55 -56 584 -576 27 -12 27 68zm-54 -56c15,-16 40,-15 55,0 15,16 15,41 -1,56l-54 -56z"/>
   </g>
   <path class="fil6" d="M4683 3240l0 -195 1994 0 0 195 -1994 0z"/>
   <path class="fil2" d="M5222 4554l1935 0 -480 576 -1994 0 539 -576z"/>
   <path class="fil7" d="M6677 4554l0 576 474 -576 -474 0z"/>
   <g>
    <path class="fil5" d="M7240 2469l0 2026 -79 0 0 -2026 10 -26 69 26zm-79 0c0,-22 17,-39 39,-39 22,0 40,17 40,39l-79 0zm-514 550l524 -576 59 52 -524 576 -69 -26 10 -26zm59 52c-15,16 -40,18 -56,3 -16,-14 -17,-39 -3,-55l59 52zm-69 2059l0 -2085 79 0 0 2085 -9 25 -70 -25zm79 0c0,22 -17,40 -39,40 -22,0 -40,-18 -40,-40l79 0zm515 -610l-524 635 -61 -49 524 -636 70 25 -9 25zm-61 -50c13,-17 38,-19 55,-6 17,14 20,39 6,56l-61 -50z"/>
   </g>
   <g>
    <path class="fil5" d="M7171 2681c15,-17 40,-18 56,-3 16,15 17,40 3,56l-59 -53zm-484 532l484 -532 59 53 -485 532 -29 13 -29 -66zm58 53c-14,16 -39,18 -55,3 -17,-15 -18,-40 -3,-56l58 53zm-2055 -66l2026 0 0 79 -2026 0 0 -79zm0 79c-21,0 -39,-18 -39,-39 0,-22 18,-40 39,-40l0 79z"/>
   </g>
   <g>
    <path class="fil5" d="M4722 3045l0 2085 -79 0 0 -2085 40 -40 39 40zm-79 0c0,-22 18,-40 40,-40 22,0 39,18 39,40l-79 0zm2034 40l-1994 0 0 -80 1994 0 39 40 -39 40zm0 -80c22,0 39,18 39,40 0,22 -17,40 -39,40l0 -80zm-40 2125l0 -2085 79 0 0 2085 -39 40 -40 -40zm79 0c0,22 -17,40 -39,40 -22,0 -40,-18 -40,-40l79 0zm-2033 -39l1994 0 0 79 -1994 0 -40 -40 40 -39zm0 79c-22,0 -40,-18 -40,-40 0,-21 18,-39 40,-39l0 79z"/>
   </g>
   <g>
    <path class="fil10" d="M5310 2817c-32,0 -57,-27 -57,-60 0,-33 25,-60 57,-60l0 120zm1210 0l-1210 0 0 -120 1210 0 0 120zm0 -120c32,0 57,27 57,60 0,33 -25,60 -57,60l0 -120z"/>
   </g>
   <path class="fil11" d="M5026 2671l-13 29c12,7 24,14 36,22 15,9 19,29 9,44 -10,15 -31,20 -46,10 -8,-6 -16,-12 -24,-16l-7 15 -164 33 -461 -200 38 -87 45 -104 38 -87 461 199 88 142z"/>
   <g>
    <path class="fil12" d="M4809 2683c-9,7 -22,6 -29,-3 -7,-9 -6,-22 3,-29l26 32zm-21 -76l31 -25 0 0 3 3 2 3 2 3 1 3 2 3 1 4 1 3 2 3 0 4 1 3 1 3 0 4 0 3 0 4 0 3 0 4 -1 3 0 3 -1 4 -1 3 -1 3 -1 4 -2 3 -1 3 -2 3 -2 3 -2 3 -2 3 -2 2 -3 3 -3 3 -2 2 -26 -32 1 -1 2 -1 1 -1 1 -1 1 -1 1 -2 0 -1 1 -1 1 -1 0 -2 1 -1 0 -2 1 -1 0 -2 0 -1 1 -2 0 -1 0 -2 0 -1 0 -2 -1 -1 0 -2 0 -1 0 -2 -1 -1 0 -1 -1 -2 -1 -1 0 -2 -1 -1 -1 -1 -1 -2 0 0zm0 0c-7,-8 -6,-21 3,-28 9,-7 21,-6 28,3l-31 25zm-44 -4l-26 -32 3 -2 3 -2 3 -2 3 -2 4 -1 3 -2 3 -1 4 -1 3 -1 3 -1 4 0 3 -1 4 0 3 0 4 0 3 1 3 0 4 1 3 0 4 1 3 1 3 2 3 1 3 2 3 1 3 2 3 2 3 3 3 2 2 2 3 3 2 3 -31 25 -1 -1 -1 -1 -1 -1 -2 -1 -1 -1 -1 -1 -1 -1 -2 -1 -1 0 -1 -1 -2 0 -1 -1 -2 0 -1 -1 -2 0 -1 0 -2 0 -1 0 -2 0 -1 0 -2 0 -1 0 -2 1 -1 0 -2 0 -1 1 -2 1 -1 0 -1 1 -2 1 -1 1 -1 1zm0 0c-9,7 -22,5 -29,-3 -7,-9 -5,-22 3,-29l26 32z"/>
   </g>
   <path class="fil12" d="M5056 2728c62,45 110,105 141,172l-73 0c-27,-48 -64,-90 -110,-123l-2 -1c15,10 36,5 46,-10 8,-12 7,-27 -2,-38zm-203 799c-55,8 -112,5 -168,-9l-1 0 -1 -1c-103,-29 -190,-95 -247,-181 -56,-85 -84,-189 -71,-298l0 0c15,-127 84,-243 190,-314 34,-24 77,-50 129,-84 22,-14 46,-29 65,-41 15,-10 35,-5 44,9 10,15 6,35 -9,45 -27,17 -47,30 -65,41 -57,36 -100,64 -135,88 -9,6 -17,13 -26,20 -69,60 -118,145 -129,244l0 0 0 0c-11,93 12,182 61,255 48,73 122,129 211,155 51,12 103,14 152,6l0 65zm17 -1027c60,-59 120,-132 176,-214 57,-84 112,-179 161,-279 7,-16 27,-22 43,-15 16,8 22,27 14,43 -49,102 -105,200 -165,288 -53,77 -109,146 -166,205l-63 -28z"/>
   <g>
    <path class="fil13" d="M5170 2982c-6,-17 4,-35 21,-40 17,-6 35,4 40,21l-61 19zm74 28l-64 13 0 -4 -5 -18 -5 -19 61 -19 7 21 5 21 1 5zm0 0c3,17 -8,34 -25,38 -18,4 -35,-7 -39,-25l64 -13zm-59 138c2,-18 18,-30 36,-28 17,3 30,19 27,36l-63 -8zm54 56l-63 -14 2 -8 4 -18 3 -16 63 8 -3 20 -4 20 -2 8zm0 0c-4,17 -21,28 -38,24 -18,-4 -29,-21 -25,-38l63 14zm-113 101c10,-16 30,-20 45,-11 15,9 20,29 10,45l-55 -34zm27 73l-52 -39 10 -12 10 -14 5 -8 55 34 -7 10 -12 17 -9 12zm0 0c-11,14 -31,17 -45,6 -14,-11 -17,-31 -7,-45l52 39zm-146 43c15,-10 35,-6 45,9 10,15 6,35 -9,45l-36 -54zm-7 77l-30 -57 17 -8 16 -9 4 -3 36 54 -7 4 -19 11 -17 8zm0 0c-15,9 -35,3 -43,-13 -9,-16 -3,-35 13,-44l30 57z"/>
   </g>
   <g>
    <path class="fil14" d="M5071 2880c-2,-11 5,-22 16,-24 11,-2 22,6 24,17l-40 7zm76 18l7 40 0 0 -3 1 -4 0 -4 0 -3 0 -4 0 -3 0 -4 -1 -3 -1 -4 0 -3 -2 -3 -1 -4 -1 -3 -1 -3 -2 -3 -2 -3 -2 -2 -2 -3 -2 -3 -2 -2 -3 -2 -2 -3 -3 -2 -3 -2 -3 -2 -3 -1 -3 -2 -3 -1 -3 -2 -3 -1 -4 -1 -3 0 -4 40 -7 0 1 0 2 1 1 0 2 1 1 1 2 0 1 1 1 1 2 1 1 1 1 1 1 1 1 1 1 1 1 2 1 1 1 1 1 1 0 2 1 1 1 2 0 1 0 2 1 1 0 2 0 1 1 2 0 1 0 2 0 1 -1 2 0 0 0zm0 0c11,-2 22,5 24,17 1,11 -6,21 -17,23l-7 -40zm25 -36l40 -7 1 3 0 4 0 4 0 3 0 4 0 3 -1 4 0 3 -1 4 -1 3 -1 3 -2 3 -1 3 -2 4 -2 2 -2 3 -2 3 -2 3 -2 2 -2 3 -3 2 -3 2 -2 3 -3 2 -3 1 -3 2 -4 2 -3 1 -3 1 -4 1 -3 1 -4 1 -7 -40 2 0 1 -1 2 0 1 -1 2 0 1 -1 1 -1 2 0 1 -1 1 -1 1 -1 1 -1 1 -1 1 -1 1 -2 1 -1 1 -1 1 -1 1 -2 0 -1 1 -1 0 -2 1 -1 0 -2 0 -1 1 -2 0 -1 0 -2 0 -1 0 -2 0 -2 -1 -1zm0 0c-2,-11 6,-22 17,-24 11,-2 21,6 23,17l-40 7z"/>
   </g>
   <g>
    <path class="fil14" d="M4806 3571c-11,-1 -20,-10 -19,-22 1,-11 11,-19 22,-18l-3 40zm36 -69l41 2 0 0 -1 4 0 4 -1 3 -1 4 -1 3 -1 4 -1 3 -2 3 -2 3 -1 3 -2 3 -2 3 -3 2 -2 3 -2 2 -3 3 -2 2 -3 2 -3 2 -3 2 -3 1 -3 2 -3 1 -4 1 -3 1 -3 1 -4 1 -3 1 -4 0 -4 0 -3 0 -4 0 3 -40 2 0 1 0 2 0 1 -1 2 0 1 0 2 0 1 -1 2 0 1 -1 1 -1 2 0 1 -1 1 -1 1 -1 2 -1 1 -1 1 -1 1 -1 1 -1 1 -2 1 -1 0 -1 1 -1 1 -2 0 -1 1 -2 0 -1 1 -2 0 -1 0 -2 0 -1 0 0zm0 0c1,-12 11,-20 22,-19 11,1 20,10 19,21l-41 -2zm-29 -34l3 -40 4 0 3 1 4 0 4 1 3 1 3 1 4 2 3 1 3 2 3 2 3 2 2 2 3 2 3 2 2 3 2 2 3 3 2 3 2 3 1 3 2 3 2 3 1 3 1 3 1 4 1 3 1 3 0 4 1 4 0 3 0 4 0 3 -41 -2 0 -2 0 -2 0 -1 0 -2 0 -1 0 -2 -1 -1 0 -2 -1 -1 0 -2 -1 -1 -1 -1 -1 -1 0 -2 -1 -1 -1 -1 -1 -1 -1 -1 -1 -1 -2 -1 -1 -1 -1 -1 -1 -1 -2 -1 -1 0 -1 -1 -2 0 -1 -1 -2 0 -1 0 -2 -1 -2 0zm0 0c-11,-1 -19,-10 -18,-22 0,-11 10,-19 21,-18l-3 40z"/>
   </g>
   <path class="fil11" d="M8014 2639l-5 32c14,3 27,7 40,11 17,6 26,24 20,41 -5,17 -24,27 -41,21 -9,-3 -18,-7 -28,-9l-3 17 -149 73 -497 -73 14 -94 16 -113 14 -93 497 73 122 114z"/>
   <g>
    <path class="fil12" d="M7807 2707c-6,9 -19,11 -28,5 -9,-7 -11,-20 -5,-29l33 24zm-39 -68l23 -32 0 0 3 2 3 2 3 3 2 2 3 3 2 3 2 3 2 3 1 3 2 3 1 3 2 3 1 4 1 3 0 3 1 4 1 3 0 3 0 4 0 3 0 4 -1 3 0 4 -1 3 -1 4 -1 3 -1 3 -2 4 -1 3 -2 3 -2 3 -2 3 -33 -24 1 -1 1 -1 1 -2 1 -1 0 -2 1 -1 0 -2 1 -1 0 -2 0 -1 0 -2 0 -1 0 -2 0 -1 0 -2 0 -1 0 -2 -1 -1 0 -1 0 -2 -1 -1 -1 -2 0 -1 -1 -1 -1 -2 -1 -1 -1 -1 -1 -1 -1 -1 -1 -1 -1 -2 -1 -1 0 0zm0 0c-10,-6 -12,-19 -5,-28 7,-9 19,-11 28,-4l-23 32zm-44 7l-33 -24 2 -2 3 -3 2 -3 3 -2 2 -3 3 -2 3 -2 3 -2 3 -2 3 -1 3 -2 4 -1 3 -1 3 -1 4 -1 3 0 3 -1 4 0 3 0 4 0 3 0 4 1 3 0 3 1 4 1 3 1 4 1 3 1 3 2 3 2 3 2 3 2 -23 32 -2 0 -1 -1 -2 -1 -1 -1 -1 0 -2 -1 -1 0 -2 -1 -1 0 -2 0 -1 0 -2 -1 -1 0 -2 1 -1 0 -2 0 -1 0 -2 0 -1 1 -2 0 -1 1 -1 1 -2 0 -1 1 -1 1 -2 1 -1 1 -1 1 -1 1 -1 1 -1 1 -1 1zm0 0c-7,9 -20,11 -29,5 -9,-7 -11,-19 -4,-29l33 24z"/>
   </g>
   <path class="fil12" d="M8058 2687c71,27 133,72 180,129l-70 19c-38,-39 -85,-71 -138,-90l-2 -1c17,6 36,-4 41,-21 5,-14 0,-28 -11,-36zm11 824c-51,22 -107,34 -165,35l-1 0 -1 0c-108,-2 -208,-43 -286,-112 -76,-67 -130,-161 -145,-269l0 0c-19,-127 18,-256 102,-353 27,-31 61,-68 103,-114 17,-19 36,-40 52,-57 12,-13 32,-14 45,-2 13,12 14,32 2,45 -21,24 -37,41 -51,57 -46,50 -81,88 -108,120 -7,8 -13,17 -20,26 -51,76 -76,171 -62,269l0 0 0 0c14,93 60,173 125,230 66,58 152,94 244,95 53,-1 103,-12 149,-33l17 63zm-250 -997c43,-72 82,-158 114,-252 34,-96 63,-202 84,-311 3,-17 20,-29 37,-25 18,3 29,20 26,38 -22,111 -51,219 -86,320 -31,88 -67,170 -106,241l-69 -11z"/>
   <g>
    <path class="fil13" d="M8234 2903c-10,-15 -6,-35 9,-45 15,-10 35,-5 45,10l-54 35zm78 7l-58 29 -1 -4 -9 -16 -10 -16 54 -35 11 19 11 19 2 4zm0 0c8,16 2,35 -14,43 -16,9 -35,2 -44,-14l58 -29zm-21 149c-3,-18 10,-34 27,-36 18,-3 34,10 37,28l-64 8zm67 40l-64 2 0 -8 -2 -18 -1 -16 64 -8 2 19 1 21 0 8zm0 0c1,18 -13,33 -31,33 -18,1 -33,-13 -33,-31l64 -2zm-83 126c5,-17 23,-27 40,-21 17,5 27,23 22,40l-62 -19zm45 64l-60 -24 6 -14 6 -17 3 -9 62 19 -4 12 -7 19 -6 14zm0 0c-7,17 -26,25 -42,18 -17,-7 -25,-26 -18,-42l60 24zm-130 80c12,-14 32,-15 46,-3 13,11 14,32 3,45l-49 -42zm13 76l-44 -47 15 -13 13 -13 3 -3 49 42 -6 6 -15 15 -15 13zm0 0c-13,12 -33,11 -45,-2 -12,-13 -12,-33 1,-45l44 47z"/>
   </g>
   <g>
    <path class="fil14" d="M8112 2829c-5,-10 -1,-22 9,-27 10,-4 23,0 27,10l-36 17zm78 -2l17 37 0 0 -3 1 -4 2 -3 1 -4 1 -3 0 -4 1 -3 0 -4 1 -3 0 -4 0 -3 -1 -3 0 -4 -1 -3 -1 -4 0 -3 -2 -3 -1 -3 -1 -3 -2 -3 -1 -3 -2 -3 -2 -3 -2 -2 -3 -3 -2 -2 -3 -3 -2 -2 -3 -2 -3 -2 -3 -2 -3 -1 -4 36 -17 1 2 1 1 1 1 1 2 1 1 1 1 1 1 1 1 1 1 1 1 1 1 2 1 1 0 1 1 2 1 1 0 1 1 2 0 1 1 2 0 1 0 2 0 1 0 2 0 1 0 2 0 1 0 2 -1 1 0 2 -1 1 0 2 -1 0 0zm0 0c10,-5 22,0 27,10 5,10 0,22 -10,27l-17 -37zm15 -41l37 -18 1 4 1 3 2 4 1 3 0 4 1 3 0 4 0 3 1 4 -1 3 0 3 0 4 -1 3 -1 4 -1 3 -1 3 -1 3 -1 4 -2 3 -2 3 -1 3 -2 2 -3 3 -2 3 -2 2 -3 3 -3 2 -2 2 -3 3 -3 1 -4 2 -3 2 -17 -37 1 -1 2 0 1 -1 1 -1 2 -1 1 -1 1 -1 1 -1 1 -1 1 -2 1 -1 1 -1 0 -1 1 -2 1 -1 0 -2 1 -1 0 -1 0 -2 1 -1 0 -2 0 -1 0 -2 0 -1 0 -2 0 -1 -1 -2 0 -1 0 -2 -1 -1 0 -2 -1 -1zm0 0c-5,-11 0,-23 10,-27 10,-5 22,-1 27,9l-37 18z"/>
   </g>
   <g>
    <path class="fil14" d="M8035 3566c-11,2 -22,-6 -24,-17 -2,-11 5,-21 16,-23l8 40zm17 -77l40 -8 0 0 0 4 1 4 0 3 0 4 0 3 -1 4 0 3 -1 4 -1 3 0 4 -2 3 -1 3 -1 3 -2 3 -2 3 -1 3 -2 3 -3 3 -2 2 -2 3 -3 2 -2 2 -3 3 -3 2 -3 2 -3 1 -3 2 -3 1 -4 2 -3 1 -4 1 -3 1 -8 -40 2 -1 1 0 2 -1 1 0 1 -1 2 0 1 -1 1 -1 2 -1 1 -1 1 -1 1 -1 1 -1 1 -1 1 -1 1 -1 1 -2 1 -1 0 -1 1 -2 0 -1 1 -2 0 -1 1 -2 0 -1 0 -2 0 -1 0 -2 0 -1 0 -2 0 -1 0 -2 0 0zm0 0c-2,-11 5,-22 16,-24 11,-2 21,5 24,16l-40 8zm-37 -25l-8 -40 4 0 4 -1 3 0 4 0 3 0 4 1 3 0 4 1 3 0 4 1 3 2 3 1 3 1 3 2 3 2 3 1 3 2 3 3 2 2 3 2 2 3 3 2 2 3 2 3 2 3 1 3 2 3 1 3 2 4 1 3 1 4 1 3 -40 8 -1 -2 0 -1 -1 -2 0 -1 -1 -1 0 -2 -1 -1 -1 -1 -1 -2 -1 -1 -1 -1 -1 -1 -1 -1 -1 -1 -1 -1 -1 -1 -2 -1 -1 -1 -1 0 -2 -1 -1 0 -2 -1 -1 0 -2 -1 -1 0 -2 0 -1 0 -2 0 -1 0 -2 0 -1 0 -2 0zm0 0c-11,2 -22,-5 -24,-16 -2,-11 5,-21 16,-24l8 40z"/>
   </g>
   <path class="fil15" d="M6894 2943c-1,-45 25,-83 57,-85 33,-2 61,34 62,79 10,385 174,618 348,864l0 -1 0 1c1,1 2,3 4,5 90,129 145,253 135,354 -12,114 -89,186 -262,190l0 -165c99,-2 141,-20 144,-48 4,-44 -37,-122 -103,-216 -1,-1 -2,-3 -2,-4l0 0 0 0 -1 -1 0 0c-191,-269 -371,-524 -382,-973z"/>
   <path class="fil16" d="M7017 2857c35,0 64,55 64,123 0,68 -29,123 -64,123 -35,0 -64,-55 -64,-123 0,-68 29,-123 64,-123z"/>
   <path class="fil15" d="M3786 2943c-1,-45 25,-83 57,-85 33,-2 61,34 62,79 10,385 174,618 348,864l0 -1 0 1c1,1 2,3 4,5 91,129 145,253 135,354 -12,114 -89,186 -262,190l0 -165c99,-2 141,-20 144,-48 5,-44 -37,-122 -103,-216 -1,-1 -1,-3 -2,-4l0 0 0 0 -1 -1 0 0c-191,-269 -370,-524 -382,-973z"/>
   <path class="fil16" d="M3909 2857c35,0 64,55 64,123 0,68 -29,123 -64,123 -35,0 -63,-55 -63,-123 0,-68 28,-123 63,-123z"/>
   <g>
    <path class="fil8" d="M5808 4123c0,-35 14,-63 39,-75l143 -64c70,-32 86,-86 86,-139l0 -3c0,-89 -51,-139 -152,-139l-47 0c-80,0 -130,34 -130,116 0,21 10,37 36,37 27,0 37,-16 37,-37 0,-32 23,-46 57,-46l47 0c55,0 79,21 79,69l0 3c0,37 -12,59 -43,73l-133 59c-62,27 -92,86 -92,153l0 125 313 0c19,0 35,-10 35,-35 0,-25 -16,-35 -35,-35l-240 0 0 -62z"/>
    <path id="1" class="fil8" d="M5843 4039l8 18 0 0 -2 1 -2 1 -1 1 -2 1 -2 2 -2 1 -1 1 -2 2 -1 1 -2 2 -1 2 -1 1 -2 2 -1 2 -1 2 -1 2 -1 2 -1 3 -1 2 -1 2 0 3 -1 2 -1 3 0 2 -1 3 0 3 -1 3 0 2 0 3 -1 3 0 3 0 3 -20 0 0 -3 0 -4 1 -3 0 -4 0 -3 1 -3 0 -4 1 -3 1 -3 1 -3 0 -3 1 -3 1 -3 2 -3 1 -3 1 -3 2 -3 1 -2 2 -3 1 -2 2 -3 2 -2 2 -2 2 -2 2 -2 3 -2 2 -2 2 -2 3 -2 3 -1 2 -2 3 -1 0 0zm0 0l0 0 0 0 0 0zm151 -46l-143 64 -8 -18 143 -65 0 0 8 19zm-8 -19l0 0 0 0 0 0zm80 -129l20 0 0 0 0 5 0 5 -1 6 0 5 -1 5 0 5 -1 5 -1 6 -1 5 -1 5 -2 5 -1 5 -2 5 -2 5 -2 5 -3 5 -3 5 -3 5 -3 4 -3 5 -4 5 -4 4 -4 4 -4 5 -5 4 -5 4 -5 4 -6 3 -5 4 -7 3 -6 4 -7 3 -8 -19 6 -2 6 -3 5 -3 6 -4 4 -3 5 -3 4 -4 4 -3 4 -4 4 -3 3 -4 3 -4 3 -4 3 -4 2 -4 2 -4 2 -4 2 -5 2 -4 2 -4 1 -5 1 -4 1 -5 1 -4 1 -5 1 -4 1 -5 0 -5 0 -5 1 -4 0 -5 0 -5 0 0zm20 -3l0 3 -20 0 0 -3 0 0 20 0zm-162 -129l0 -20 0 0 10 0 9 0 9 1 9 1 9 2 8 1 8 2 8 3 7 2 7 3 7 3 6 4 7 3 6 5 5 4 6 5 5 5 4 5 5 5 4 6 4 6 3 7 3 6 3 7 2 7 2 8 2 7 1 8 1 8 1 8 1 8 0 9 -20 0 0 -8 -1 -8 -1 -7 -1 -7 -1 -7 -1 -7 -2 -6 -2 -6 -2 -6 -3 -5 -3 -6 -3 -5 -3 -5 -4 -4 -4 -5 -4 -4 -4 -4 -5 -3 -5 -4 -5 -3 -6 -3 -6 -3 -6 -2 -7 -2 -6 -2 -8 -2 -7 -2 -8 -1 -8 -1 -8 -1 -9 0 -9 0 0 0zm-47 -20l47 0 0 20 -47 0 0 0 0 -20zm-120 126l-20 0 0 0 0 -8 0 -7 1 -8 1 -7 2 -7 1 -7 2 -6 3 -6 2 -6 3 -6 3 -5 4 -5 3 -5 4 -5 5 -4 4 -4 5 -4 5 -4 5 -3 6 -3 6 -3 6 -2 6 -2 6 -2 6 -2 7 -1 7 -1 7 -1 7 -1 7 -1 8 0 8 0 0 20 -7 0 -7 0 -7 1 -7 0 -6 1 -6 1 -6 2 -6 1 -5 2 -5 2 -5 2 -5 2 -5 2 -4 3 -4 3 -4 3 -3 3 -4 4 -3 3 -3 4 -3 4 -2 5 -3 4 -2 5 -2 5 -1 6 -2 5 -1 6 -1 7 -1 6 0 7 0 7 0 0zm26 27l0 20 0 0 -2 0 -3 0 -3 0 -2 -1 -3 0 -2 -1 -3 -1 -2 -1 -2 -1 -2 -1 -3 -1 -1 -1 -2 -1 -2 -2 -2 -1 -1 -2 -2 -2 -1 -2 -1 -1 -1 -2 -1 -2 -1 -2 -1 -2 -1 -2 0 -2 -1 -3 0 -2 -1 -2 0 -2 0 -2 0 -2 0 -3 20 0 0 2 0 2 0 1 0 1 0 2 1 1 0 1 0 2 1 1 0 1 1 1 0 1 1 1 0 1 1 1 1 1 0 0 1 1 1 1 1 1 1 0 1 1 1 0 1 1 2 0 1 1 1 0 2 0 2 1 1 0 2 0 2 0 0 0zm27 -27l20 0 0 0 0 3 0 2 0 2 -1 2 0 2 0 2 -1 3 0 2 -1 2 -1 2 -1 2 -1 2 -1 2 -1 1 -1 2 -2 2 -1 2 -2 1 -2 2 -2 1 -2 1 -2 1 -2 1 -2 1 -2 1 -3 1 -2 1 -3 0 -2 1 -3 0 -3 0 -3 0 0 -20 2 0 2 0 2 0 2 -1 1 0 2 0 1 -1 2 0 1 -1 1 0 1 -1 1 0 1 -1 1 -1 0 -1 1 0 1 -1 0 -1 1 -1 1 -1 0 -1 1 -1 0 -1 0 -1 1 -2 0 -1 0 -1 1 -2 0 -1 0 -1 0 -2 0 -2 0 0zm67 -56l0 20 0 0 -3 0 -3 0 -3 0 -2 0 -3 1 -2 0 -3 1 -2 0 -2 1 -2 0 -2 1 -2 1 -2 1 -1 1 -2 1 -1 1 -2 1 -1 1 -1 1 -1 2 -1 1 -1 1 -1 2 -1 2 -1 1 0 2 -1 2 0 2 -1 2 0 2 0 3 0 2 -20 0 0 -3 0 -3 1 -4 0 -3 1 -3 1 -3 1 -3 1 -3 1 -2 2 -3 1 -2 2 -3 2 -2 2 -2 2 -2 2 -2 3 -2 2 -1 3 -2 2 -1 3 -1 3 -1 3 -1 3 -1 3 -1 3 -1 3 0 3 0 4 -1 3 0 3 0 4 0 0 0zm47 20l-47 0 0 -20 47 0 0 0 0 20zm89 59l-20 0 0 0 0 -4 -1 -4 0 -4 0 -3 -1 -4 -1 -3 0 -3 -1 -3 -1 -3 -1 -2 -2 -2 -1 -3 -1 -2 -2 -2 -2 -1 -2 -2 -1 -2 -3 -1 -2 -2 -2 -1 -3 -1 -3 -1 -3 -2 -3 0 -3 -1 -4 -1 -4 -1 -4 0 -4 -1 -4 0 -5 0 -5 0 0 -20 5 0 6 0 5 0 4 1 5 0 5 1 4 1 4 1 4 1 4 2 4 1 4 2 3 2 4 2 3 2 3 3 3 3 2 2 3 3 2 3 2 4 2 3 1 4 2 4 1 3 1 4 1 5 0 4 1 4 0 5 1 4 0 5 0 0zm-20 3l0 -3 20 0 0 3 0 0 -20 0zm-29 82l-8 -18 0 0 2 -1 3 -1 2 -2 2 -1 3 -1 2 -2 1 -1 2 -2 2 -1 1 -2 2 -1 1 -2 2 -1 1 -2 1 -2 1 -2 1 -2 1 -2 1 -2 1 -2 1 -2 0 -2 1 -3 1 -2 0 -3 0 -2 1 -3 0 -3 0 -3 1 -3 0 -3 0 -3 20 0 0 4 0 3 -1 4 0 3 0 3 -1 4 0 3 -1 3 -1 3 0 3 -1 3 -1 3 -1 3 -2 3 -1 2 -1 3 -2 3 -2 2 -1 3 -2 2 -2 2 -2 2 -3 3 -2 2 -2 2 -3 2 -2 1 -3 2 -3 2 -3 1 -3 2 -3 1 0 0zm0 0l0 0 0 0 0 0zm-141 41l133 -59 8 18 -133 59 0 0 -8 -18zm8 18l0 0 0 0 0 0zm-86 144l-20 0 0 0 0 -6 1 -7 0 -6 1 -7 1 -6 1 -6 1 -6 1 -7 2 -6 1 -6 2 -6 3 -5 2 -6 2 -6 3 -5 3 -6 3 -5 4 -5 3 -5 4 -5 4 -4 4 -5 4 -4 5 -5 4 -4 5 -4 5 -3 6 -4 5 -3 6 -3 6 -3 6 -3 8 18 -6 3 -5 2 -5 3 -4 3 -5 3 -5 3 -4 4 -4 3 -4 4 -4 4 -3 4 -4 4 -3 4 -3 4 -3 5 -3 4 -2 5 -3 5 -2 5 -2 5 -2 5 -1 5 -2 6 -1 5 -2 6 -1 5 -1 6 0 6 -1 6 0 5 -1 6 0 6 0 0zm-20 125l0 -125 20 0 0 125 -10 10 -10 -10zm10 10l-10 0 0 -10 10 10zm313 0l-313 0 0 -20 313 0 0 0 0 20zm25 -45l20 0 0 0 0 3 0 2 -1 3 0 2 -1 3 0 2 -1 2 -1 2 -1 3 -1 2 -1 2 -1 2 -1 1 -2 2 -1 2 -2 1 -1 2 -2 1 -2 1 -2 1 -2 1 -2 1 -2 1 -2 0 -2 1 -2 0 -2 1 -2 0 -2 1 -2 0 -2 0 -2 0 0 -20 1 0 2 0 1 0 1 -1 2 0 1 0 1 0 1 -1 1 0 2 0 1 -1 1 0 0 -1 1 -1 1 0 1 -1 1 0 0 -1 1 -1 1 -1 0 -1 1 -1 0 -1 1 -1 0 -1 1 -1 0 -2 0 -1 0 -2 1 -1 0 -2 0 -2 0 0zm-25 -25l0 -20 0 0 2 0 2 0 2 0 2 0 2 1 2 0 2 1 2 0 2 1 2 1 2 1 2 1 2 1 2 1 2 1 1 2 2 1 1 2 2 1 1 2 1 2 1 2 1 2 1 2 1 2 1 3 0 2 1 2 0 3 1 3 0 2 0 3 -20 0 0 -2 0 -2 -1 -2 0 -1 0 -2 0 -1 -1 -1 0 -1 -1 -2 0 -1 -1 -1 0 0 -1 -1 -1 -1 0 -1 -1 -1 -1 0 -1 -1 -1 0 0 -1 -1 0 -1 -1 -2 0 -1 -1 -1 0 -1 0 -1 -1 -2 0 -1 0 -1 0 -2 0 -1 0 0 0zm-240 -20l240 0 0 20 -240 0 -10 -10 10 -10zm0 20l-10 0 0 -10 10 10zm10 -72l0 62 -20 0 0 -62 0 0 20 0z"/>
   </g>
   <path class="fil8" d="M5455 4113c0,13 2,27 4,36l-1 0 -113 -233c-6,-12 -14,-17 -24,-17 -17,0 -24,11 -24,23l0 315c0,12 7,23 24,23 16,0 22,-11 22,-23l0 -190c0,-14 -2,-28 -3,-37l1 0 113 233c6,12 14,17 24,17 17,0 24,-11 24,-23l0 -315c0,-12 -7,-23 -24,-23 -16,0 -23,11 -23,23l0 191zm127 -108c-15,0 -19,-9 -19,-23l0 -25c0,-14 4,-22 19,-22l8 0c15,0 19,8 19,22l0 25c0,14 -4,23 -19,23l-8 0zm8 34c35,0 51,-24 51,-54l0 -30c0,-31 -16,-53 -51,-53l-8 0c-35,0 -51,22 -51,53l0 30c0,30 16,54 51,54l8 0zm35 59c10,0 18,-5 18,-18 0,-13 -8,-18 -18,-18l-77 0c-11,0 -19,5 -19,18 0,13 8,18 19,18l77 0z"/>
   <g>
    <path class="fil8" d="M9218 4090c0,-65 -26,-114 -84,-132 37,-21 58,-55 58,-106l0 -10c0,-89 -51,-139 -152,-139l-41 0c-80,0 -130,34 -130,116 0,21 10,37 37,37 26,0 36,-16 36,-37 0,-32 23,-46 57,-46l41 0c56,0 79,21 79,69l0 10c0,49 -29,84 -85,84l-44 0c-20,0 -35,9 -35,34 0,25 15,35 35,35l79 0c55,0 76,35 76,85l0 26c0,49 -23,77 -78,77l-83 0c-35,0 -57,-14 -57,-47 0,-20 -10,-37 -37,-37 -26,0 -36,17 -36,37 0,82 50,117 130,117l83 0c101,0 151,-58 151,-147l0 -26z"/>
    <path id="1" class="fil8" d="M9129 3949l10 18 -2 -19 6 2 6 2 5 3 5 2 5 3 5 3 5 3 4 3 4 4 4 3 4 4 4 4 3 4 4 4 3 5 3 4 2 5 3 5 2 5 2 5 2 5 2 5 2 6 1 5 1 6 1 6 1 6 1 5 1 6 0 7 0 6 0 6 -20 0 0 -6 0 -5 0 -6 -1 -5 0 -6 -1 -5 -1 -5 -1 -5 -2 -5 -1 -5 -2 -4 -1 -5 -2 -4 -2 -4 -2 -4 -3 -4 -2 -4 -3 -4 -2 -3 -3 -4 -3 -3 -3 -3 -4 -3 -3 -3 -4 -3 -4 -2 -4 -3 -4 -2 -4 -2 -5 -2 -5 -2 -5 -2 -2 -18zm2 18l-21 -6 19 -12 2 18zm51 -115l20 0 0 0 0 5 0 5 -1 5 0 4 -1 5 0 5 -1 4 -1 4 -1 5 -1 4 -2 4 -1 4 -2 4 -2 4 -1 3 -2 4 -2 4 -3 3 -2 3 -2 4 -3 3 -3 3 -2 3 -3 3 -3 3 -3 2 -3 3 -4 2 -3 3 -3 2 -4 2 -4 3 -10 -18 4 -2 3 -2 3 -2 2 -2 3 -2 3 -2 2 -2 3 -3 2 -2 3 -2 2 -3 2 -3 2 -2 2 -3 1 -3 2 -3 2 -3 1 -3 2 -3 1 -3 1 -4 1 -3 1 -4 1 -3 1 -4 1 -4 1 -4 0 -4 0 -4 1 -4 0 -4 0 -5 0 0zm20 -10l0 10 -20 0 0 -10 0 0 20 0zm-162 -129l0 -20 0 0 10 0 9 0 9 1 9 1 9 2 8 1 8 2 8 3 7 2 7 3 7 3 7 4 6 3 6 5 6 4 5 5 5 5 5 5 4 5 4 6 4 6 3 7 3 6 3 7 2 7 2 8 2 7 1 8 2 8 0 8 1 8 0 9 -20 0 0 -8 -1 -8 0 -7 -1 -7 -2 -7 -1 -7 -2 -6 -2 -6 -2 -6 -3 -5 -3 -6 -3 -5 -3 -5 -4 -4 -4 -5 -4 -4 -4 -4 -5 -3 -5 -4 -5 -3 -6 -3 -6 -3 -6 -2 -6 -2 -7 -2 -7 -2 -8 -2 -7 -1 -9 -1 -8 -1 -9 0 -9 0 0 0zm-41 -20l41 0 0 20 -41 0 0 0 0 -20zm-120 126l-20 0 0 0 1 -8 0 -7 1 -8 1 -7 1 -7 2 -7 2 -6 2 -6 3 -6 3 -6 3 -5 3 -5 4 -5 4 -5 4 -4 5 -4 5 -4 5 -4 5 -3 5 -3 6 -3 6 -2 6 -2 6 -2 7 -2 7 -1 6 -1 7 -1 8 -1 7 -1 7 0 8 0 0 20 -7 0 -7 0 -7 1 -6 0 -7 1 -6 1 -6 2 -5 1 -6 2 -5 2 -5 2 -5 2 -4 2 -4 3 -4 3 -4 3 -4 3 -3 4 -4 3 -3 4 -2 4 -3 5 -2 4 -2 5 -2 5 -2 6 -1 5 -2 6 0 7 -1 6 -1 7 0 7 0 0zm27 27l0 20 0 0 -3 0 -3 0 -2 0 -3 -1 -3 0 -2 -1 -2 -1 -3 -1 -2 -1 -2 -1 -2 -1 -2 -1 -2 -1 -2 -2 -1 -1 -2 -2 -1 -2 -2 -2 -1 -1 -1 -2 -1 -2 -1 -2 -1 -2 0 -2 -1 -2 0 -3 -1 -2 0 -2 0 -2 -1 -2 0 -2 0 -3 20 0 0 2 0 2 1 1 0 1 0 2 0 1 1 1 0 2 0 1 1 1 0 1 1 1 0 1 1 1 1 1 0 1 1 0 1 1 1 1 0 1 1 0 1 1 2 0 1 1 1 0 1 1 2 0 1 0 2 1 2 0 2 0 2 0 0 0zm26 -27l20 0 0 0 0 3 0 2 0 2 0 2 0 2 -1 2 0 3 -1 2 -1 2 0 2 -1 2 -1 2 -1 2 -2 1 -1 2 -1 2 -2 2 -2 1 -1 2 -2 1 -2 1 -2 1 -2 1 -3 1 -2 1 -2 1 -3 1 -2 0 -3 1 -3 0 -2 0 -3 0 0 -20 2 0 2 0 2 0 1 -1 2 0 1 0 2 -1 1 0 1 -1 1 0 1 -1 1 0 1 -1 1 -1 1 -1 1 0 0 -1 1 -1 0 -1 1 -1 1 -1 0 -1 0 -1 1 -1 0 -2 1 -1 0 -1 0 -2 0 -1 0 -1 0 -2 0 -2 0 0zm67 -56l0 20 0 0 -3 0 -3 0 -2 0 -3 0 -2 1 -3 0 -2 1 -3 0 -2 1 -2 0 -2 1 -2 1 -1 1 -2 1 -2 1 -1 1 -1 1 -2 1 -1 1 -1 2 -1 1 -1 1 -1 2 0 2 -1 1 -1 2 0 2 -1 2 0 2 0 2 -1 3 0 2 -20 0 1 -3 0 -3 0 -4 1 -3 0 -3 1 -3 1 -3 1 -3 2 -2 1 -3 2 -2 2 -3 1 -2 2 -2 3 -2 2 -2 2 -2 3 -1 2 -2 3 -1 3 -1 3 -1 2 -1 3 -1 3 -1 3 -1 4 0 3 0 3 -1 3 0 4 0 3 0 0 0zm41 20l-41 0 0 -20 41 0 0 0 0 20zm89 59l-20 0 0 0 0 -4 0 -4 -1 -4 0 -3 -1 -4 0 -3 -1 -3 -1 -3 -1 -3 -1 -2 -1 -2 -2 -3 -1 -2 -2 -2 -1 -1 -2 -2 -2 -2 -2 -1 -3 -2 -2 -1 -3 -1 -3 -1 -2 -2 -4 0 -3 -1 -4 -1 -4 -1 -4 0 -4 -1 -4 0 -5 0 -5 0 0 -20 6 0 5 0 5 0 5 1 4 0 5 1 4 1 5 1 4 1 4 2 3 1 4 2 4 2 3 2 3 2 3 3 3 3 2 2 3 3 2 3 2 4 2 3 1 4 2 4 1 3 1 4 1 5 1 4 0 4 1 5 0 4 0 5 0 0zm-20 10l0 -10 20 0 0 10 0 0 -20 0zm-75 94l0 -20 0 0 5 0 5 0 4 -1 4 0 4 -1 4 -1 4 -1 3 -1 4 -2 3 -1 3 -2 3 -2 3 -2 2 -2 3 -2 2 -2 2 -3 3 -2 1 -3 2 -3 2 -3 1 -3 2 -3 1 -3 1 -4 1 -3 1 -4 1 -4 0 -4 1 -4 0 -4 0 -4 20 0 0 5 0 5 -1 5 -1 4 0 5 -1 4 -2 5 -1 4 -2 4 -1 5 -2 4 -3 3 -2 4 -3 4 -2 3 -3 3 -3 3 -4 3 -3 3 -4 3 -4 2 -4 2 -4 2 -4 2 -5 2 -5 1 -4 1 -5 1 -6 1 -5 1 -5 0 -6 0 0 0zm-44 -20l44 0 0 20 -44 0 0 0 0 -20zm-25 44l-20 0 0 0 0 -2 0 -3 0 -3 1 -2 0 -2 1 -3 1 -2 0 -2 1 -2 1 -2 1 -2 2 -2 1 -2 1 -2 2 -1 2 -2 1 -1 2 -1 2 -1 2 -1 1 -1 2 -1 2 -1 2 -1 2 0 2 -1 2 0 2 0 3 -1 2 0 2 0 2 0 0 20 -2 0 -1 0 -2 0 -1 0 -1 1 -2 0 -1 0 -1 1 -1 0 -1 0 -1 1 -1 0 -1 1 -1 0 -1 1 0 0 -1 1 -1 1 0 1 -1 0 -1 1 0 1 -1 1 0 1 -1 1 0 2 0 1 -1 1 0 2 0 2 0 1 0 2 0 0zm25 25l0 20 0 0 -2 -1 -2 0 -2 0 -3 0 -2 0 -2 -1 -2 0 -2 -1 -2 0 -2 -1 -2 -1 -1 -1 -2 -1 -2 -1 -2 -1 -1 -2 -2 -1 -2 -2 -1 -1 -1 -2 -2 -2 -1 -2 -1 -2 -1 -2 0 -2 -1 -3 -1 -2 0 -2 -1 -3 0 -2 0 -3 0 -3 20 0 0 2 0 2 0 2 0 1 1 2 0 1 0 1 1 1 0 1 1 1 0 1 1 1 1 1 0 1 1 0 1 1 0 1 1 0 1 1 1 0 1 1 1 0 1 1 1 0 1 0 1 1 2 0 1 0 1 0 2 0 1 0 2 1 0 0zm79 20l-79 0 0 -20 79 0 0 0 0 20zm86 75l-20 0 0 0 0 -4 0 -5 0 -4 -1 -4 0 -4 -1 -3 -1 -4 0 -4 -1 -3 -2 -3 -1 -4 -1 -3 -2 -2 -1 -3 -2 -3 -2 -2 -2 -2 -2 -3 -2 -2 -3 -2 -2 -1 -3 -2 -3 -2 -3 -1 -3 -1 -3 -1 -4 -1 -4 -1 -4 -1 -4 0 -4 0 -5 0 0 -20 6 0 5 0 5 1 5 0 5 1 5 2 4 1 4 2 4 2 4 2 4 2 4 2 3 3 3 3 3 3 3 3 2 4 3 3 2 4 2 4 2 4 1 4 2 4 1 4 1 4 1 5 1 4 0 5 1 5 0 4 0 5 0 5 0 0zm-20 26l0 -26 20 0 0 26 0 0 -20 0zm-68 87l0 -20 0 0 5 0 4 -1 4 0 5 -1 4 0 3 -1 4 -1 3 -1 3 -1 3 -1 3 -2 3 -1 2 -2 2 -2 3 -1 2 -2 1 -3 2 -2 2 -2 1 -2 2 -3 1 -3 1 -3 1 -3 1 -3 1 -3 1 -4 0 -3 1 -4 0 -4 0 -4 0 -4 20 0 0 5 0 4 0 5 -1 4 -1 5 0 4 -1 4 -2 4 -1 4 -2 4 -1 4 -2 4 -2 3 -3 3 -2 3 -3 3 -3 3 -3 3 -3 2 -4 3 -3 2 -4 2 -4 1 -4 2 -5 1 -4 1 -5 1 -5 1 -4 1 -6 0 -5 1 -5 0 0 0zm-83 -20l83 0 0 20 -83 0 0 0 0 -20zm-67 -37l20 0 0 0 0 3 0 2 0 2 1 2 0 3 1 1 0 2 1 2 1 2 1 1 1 2 1 1 1 1 1 1 1 2 1 1 2 1 1 1 2 1 2 0 2 1 2 1 2 1 2 0 2 1 2 0 3 1 3 0 2 0 3 0 3 1 3 0 0 20 -4 0 -3 -1 -4 0 -3 0 -3 -1 -3 0 -3 -1 -3 0 -3 -1 -3 -1 -3 -1 -3 -1 -2 -2 -3 -1 -2 -2 -3 -1 -2 -2 -2 -2 -2 -2 -2 -3 -2 -2 -1 -3 -2 -2 -1 -3 -1 -3 -1 -3 -1 -3 -1 -3 0 -3 -1 -3 0 -4 0 -3 0 0zm-27 -27l0 -20 0 0 3 1 3 0 3 0 2 0 3 1 2 0 3 1 2 1 2 1 2 1 2 1 2 1 2 2 2 1 1 2 2 2 1 1 2 2 1 2 1 2 1 2 1 2 1 2 0 2 1 2 1 2 0 2 0 2 1 2 0 3 0 2 0 2 -20 0 0 -2 0 -1 0 -2 -1 -1 0 -1 0 -2 0 -1 -1 -1 0 -1 0 -2 -1 -1 0 -1 -1 -1 -1 -1 0 0 -1 -1 -1 -1 0 -1 -1 0 -1 -1 -1 -1 -1 0 -1 -1 -1 0 -2 -1 -1 0 -2 -1 -1 0 -2 0 -2 0 -2 -1 -2 0 0 0zm-26 27l-20 0 0 0 0 -2 0 -2 0 -3 0 -2 1 -2 0 -2 1 -2 0 -2 1 -2 1 -2 1 -2 1 -2 1 -2 1 -2 1 -2 2 -1 1 -2 2 -2 2 -1 1 -2 2 -1 2 -1 3 -1 2 -1 2 -1 2 -1 3 0 2 -1 3 0 3 0 3 0 2 -1 0 20 -2 0 -2 1 -1 0 -2 0 -2 0 -1 1 -2 0 -1 1 -1 0 -1 1 -1 0 -1 1 -1 1 -1 0 -1 1 0 1 -1 1 -1 0 0 1 -1 1 0 1 -1 1 0 2 -1 1 0 1 0 1 -1 2 0 1 0 1 0 2 0 1 0 2 0 0zm120 107l0 20 0 0 -8 0 -8 -1 -7 0 -7 -1 -7 -1 -7 -1 -7 -2 -6 -1 -6 -2 -7 -3 -5 -2 -6 -3 -6 -3 -5 -3 -5 -3 -5 -4 -4 -4 -5 -5 -4 -4 -3 -5 -4 -5 -3 -6 -3 -5 -2 -6 -3 -7 -2 -6 -1 -7 -2 -7 -1 -7 -1 -7 0 -8 0 -8 20 0 0 7 0 7 1 7 1 6 1 6 2 6 1 5 2 5 2 5 3 5 2 4 3 4 3 4 3 4 3 3 4 4 4 3 4 2 4 3 5 3 5 2 5 2 5 2 5 1 6 2 6 1 6 1 6 1 7 1 7 0 6 1 8 0 0 0zm83 20l-83 0 0 -20 83 0 0 0 0 20zm141 -157l20 0 0 0 0 8 0 9 -1 8 -1 8 -1 8 -2 8 -2 7 -3 8 -2 7 -3 7 -4 6 -3 7 -4 6 -5 6 -4 5 -5 6 -6 5 -5 5 -6 4 -6 4 -7 4 -7 4 -7 3 -7 3 -8 2 -8 2 -9 2 -8 2 -9 1 -9 1 -9 0 -10 1 0 -20 9 -1 8 0 9 -1 8 -1 7 -1 8 -2 7 -2 7 -2 6 -3 6 -2 6 -3 6 -4 5 -3 5 -4 5 -4 4 -4 5 -5 4 -5 3 -5 4 -5 3 -5 3 -6 2 -6 3 -6 2 -6 1 -7 2 -7 1 -7 1 -7 1 -8 0 -7 0 -8 0 0zm20 -26l0 26 -20 0 0 -26 0 0 20 0z"/>
   </g>
   <path class="fil8" d="M8594 4113c0,13 2,27 3,36l-1 0 -113 -233c-6,-12 -14,-17 -24,-17 -17,0 -24,11 -24,23l0 315c0,12 7,23 24,23 16,0 22,-11 22,-23l0 -190c0,-14 -2,-28 -3,-37l1 0 113 233c6,12 14,17 24,17 17,0 24,-11 24,-23l0 -315c0,-12 -7,-23 -24,-23 -16,0 -22,11 -22,23l0 191zm126 -108c-15,0 -19,-9 -19,-23l0 -25c0,-14 4,-22 19,-22l8 0c15,0 19,8 19,22l0 25c0,14 -4,23 -19,23l-8 0zm8 34c35,0 51,-24 51,-54l0 -30c0,-31 -16,-53 -51,-53l-8 0c-35,0 -51,22 -51,53l0 30c0,30 16,54 51,54l8 0zm35 59c10,0 18,-5 18,-18 0,-13 -8,-18 -18,-18l-77 0c-11,0 -19,5 -19,18 0,13 8,18 19,18l77 0z"/>
   <path class="fil15" d="M10003 2943c-1,-45 24,-83 57,-85 33,-2 60,34 62,79 9,385 174,618 348,864l0 -1 0 1c1,1 2,3 3,5 91,129 146,253 136,354 -12,114 -90,186 -262,190l0 -165c99,-2 141,-20 144,-48 4,-44 -37,-122 -103,-216 -1,-1 -2,-3 -3,-4l0 0 0 0 0 -1 0 0c-191,-269 -371,-524 -382,-973z"/>
   <path class="fil16" d="M10126 2857c35,0 63,55 63,123 0,68 -28,123 -63,123 -35,0 -64,-55 -64,-123 0,-68 29,-123 64,-123z"/>
   <path class="fil9 str0" d="M5262 4614c0,-27 -12,-45 -36,-53 17,-10 25,-23 25,-44l0 -11c0,-38 -22,-57 -65,-57l-39 0c-12,0 -17,7 -17,15l0 206c0,9 5,16 17,16l51 0c43,0 64,-23 64,-61l0 -11zm-100 -34l36 0c23,0 32,14 32,34l0 11c0,21 -9,31 -32,31l-36 0 0 -76zm0 -30l0 -71 24 0c23,0 33,7 33,27l0 11c0,21 -10,33 -33,33l-24 0zm217 -10l-23 0 0 -79c0,-8 -5,-16 -16,-16 -11,0 -16,8 -16,16l0 209c0,8 5,16 16,16l39 0c43,0 63,-23 63,-61l0 -20c0,-38 -20,-65 -63,-65zm-23 31l23 0c24,0 32,13 32,34l0 20c0,20 -8,31 -32,31l-23 0 0 -85zm142 103l0 -213c0,-8 -4,-16 -16,-16 -10,0 -16,8 -16,16l0 213c0,8 5,15 16,15 11,0 16,-7 16,-15l0 0zm135 -131l-30 0 0 -64 68 0c8,0 15,-4 15,-15 0,-10 -7,-15 -15,-15l-85 0c-10,0 -15,6 -15,14l0 207c0,9 5,16 16,16l46 0c43,0 63,-23 63,-61l0 -19c0,-38 -20,-63 -63,-63zm32 82c0,21 -8,31 -32,31l-30 0 0 -85 30 0c24,0 32,13 32,34l0 20zm121 -114c0,-21 8,-35 31,-35l10 0c24,0 31,14 31,35l0 112c0,21 -7,36 -31,36l-10 0c-23,0 -31,-15 -31,-36l0 -112zm104 0c0,-37 -19,-66 -63,-66l-10 0c-43,0 -63,29 -63,66l0 112c0,38 20,66 63,66l10 0c44,0 63,-28 63,-66l0 -112zm101 52l0 -84 35 0c23,0 31,10 31,30l0 21c0,20 -8,33 -31,33l-35 0zm35 31c43,0 63,-27 63,-64l0 -21c0,-38 -20,-60 -63,-60l-51 0c-11,0 -15,7 -15,15l0 210c0,8 4,15 16,15 11,0 15,-7 15,-15l0 -80 35 0zm180 -54l-23 0 0 -79c0,-8 -5,-16 -16,-16 -11,0 -16,8 -16,16l0 209c0,8 5,16 16,16l39 0c44,0 63,-23 63,-61l0 -20c0,-38 -19,-65 -63,-65zm-23 31l23 0c24,0 32,13 32,34l0 20c0,20 -8,31 -32,31l-23 0 0 -85zm142 103l0 -213c0,-8 -4,-16 -15,-16 -11,0 -16,8 -16,16l0 213c0,8 4,15 15,15 11,0 16,-7 16,-15l0 0z"/>
   <path class="fil9 str0" d="M8347 4614c0,-27 -12,-45 -36,-53 17,-10 25,-23 25,-44l0 -11c0,-38 -22,-57 -64,-57l-40 0c-12,0 -16,7 -16,15l0 206c0,9 4,16 16,16l51 0c43,0 64,-23 64,-61l0 -11zm-100 -34l36 0c23,0 32,14 32,34l0 11c0,21 -9,31 -32,31l-36 0 0 -76zm0 -30l0 -71 25 0c23,0 32,7 32,27l0 11c0,21 -9,33 -32,33l-25 0zm217 -10l-23 0 0 -79c0,-8 -5,-16 -16,-16 -11,0 -16,8 -16,16l0 209c0,8 5,16 16,16l39 0c44,0 63,-23 63,-61l0 -20c0,-38 -20,-65 -63,-65zm-23 31l23 0c24,0 32,13 32,34l0 20c0,20 -8,31 -32,31l-23 0 0 -85zm142 103l0 -213c0,-8 -4,-16 -15,-16 -11,0 -16,8 -16,16l0 213c0,8 4,15 15,15 11,0 16,-7 16,-15l0 0zm135 -131l-30 0 0 -64 68 0c8,0 15,-4 15,-15 0,-10 -7,-15 -15,-15l-84 0c-11,0 -16,6 -16,14l0 207c0,9 5,16 16,16l46 0c43,0 63,-23 63,-61l0 -19c0,-38 -20,-63 -63,-63zm32 82c0,21 -8,31 -32,31l-30 0 0 -85 30 0c24,0 32,13 32,34l0 20zm122 -114c0,-21 7,-35 30,-35l11 0c23,0 31,14 31,35l0 112c0,21 -8,36 -31,36l-11 0c-23,0 -30,-15 -30,-36l0 -112zm103 0c0,-37 -19,-66 -62,-66l-11 0c-43,0 -62,29 -62,66l0 112c0,38 19,66 62,66l11 0c43,0 62,-28 62,-66l0 -112zm102 52l0 -84 34 0c23,0 32,10 32,30l0 21c0,20 -9,33 -32,33l-34 0zm34 31c43,0 63,-27 63,-64l0 -21c0,-38 -20,-60 -63,-60l-51 0c-10,0 -15,7 -15,15l0 210c0,8 5,15 16,15 11,0 16,-7 16,-15l0 -80 34 0zm181 -54l-24 0 0 -79c0,-8 -5,-16 -16,-16 -11,0 -16,8 -16,16l0 209c0,8 5,16 16,16l40 0c43,0 62,-23 62,-61l0 -20c0,-38 -19,-65 -62,-65zm-24 31l24 0c23,0 31,13 31,34l0 20c0,20 -8,31 -31,31l-24 0 0 -85zm142 103l0 -213c0,-8 -4,-16 -15,-16 -11,0 -16,8 -16,16l0 213c0,8 4,15 15,15 11,0 16,-7 16,-15l0 0z"/>
  </g>
 </g>
</svg>
