<?xml version="1.0" encoding="UTF-8"?>
<!DOCTYPE svg PUBLIC "-//W3C//DTD SVG 1.0//EN" "http://www.w3.org/TR/2001/REC-SVG-20010904/DTD/svg10.dtd">
<!-- Creator: CorelDRAW X7 -->
<svg xmlns="http://www.w3.org/2000/svg" xml:space="preserve" width="200mm" height="200mm" version="1.0" style="shape-rendering:geometricPrecision; text-rendering:geometricPrecision; image-rendering:optimizeQuality; fill-rule:evenodd; clip-rule:evenodd"
viewBox="0 0 20000 20000"
 xmlns:xlink="http://www.w3.org/1999/xlink">
 <defs>
  <style type="text/css">
   <![CDATA[
    .str2 {stroke:#CC7588;stroke-width:162.6;stroke-linecap:round;stroke-linejoin:round;stroke-dasharray:507.960000 338.640000}
    .str3 {stroke:#7690C9;stroke-width:195.52;stroke-linecap:round;stroke-linejoin:round}
    .str4 {stroke:#7690C9;stroke-width:195.52;stroke-linecap:round;stroke-linejoin:round}
    .str1 {stroke:#4D897C;stroke-width:162.6;stroke-linecap:round;stroke-linejoin:round}
    .str0 {stroke:#024541;stroke-width:162.6;stroke-linecap:round;stroke-linejoin:round}
    .fil2 {fill:none}
    .fil5 {fill:none;fill-rule:nonzero}
    .fil1 {fill:#EBF2D9}
    .fil3 {fill:#CDDBAC}
    .fil4 {fill:#4D897C;fill-rule:nonzero}
    .fil0 {fill:url(#id0)}
   ]]>
  </style>
  <radialGradient id="id0" gradientUnits="userSpaceOnUse" gradientTransform="matrix(1.41421 -0 -0 1.41421 -4142 -4142)" cx="10000" cy="10000" r="10000" fx="10000" fy="10000">
   <stop offset="0" style="stop-opacity:1; stop-color:#FEFEFE"/>
   <stop offset="0.431373" style="stop-opacity:1; stop-color:#FEFEFE"/>
   <stop offset="1" style="stop-opacity:1; stop-color:#D1E2F2"/>
  </radialGradient>
 </defs>
 <g id="Layer_x0020_1">
  <metadata id="CorelCorpID_0Corel-Layer"/>
  <g id="_1003360464640">
   <path class="fil0" d="M0 0l20000 0 0 20000 -20000 0 0 -20000z"/>
   <path class="fil1" d="M7766 10152l0 1600 1970 0 -1970 -1600z"/>
   <path class="fil2 str0" d="M7766 10152l0 1600 1931 0"/>
   <path class="fil1" d="M11147 4562l-3934 0 0 5141 1970 1600 2524 0 0 -6182c0,-309 -251,-559 -560,-559z"/>
   <path class="fil3" d="M9178 11303l2500 0 0 -2448 -3508 1623 1008 825z"/>
   <g>
    <path class="fil4" d="M8325 10029c-45,0 -82,-32 -82,-72 0,-41 37,-73 82,-73l0 145zm2597 0l-2597 0 0 -145 2597 0 0 145zm0 -145c45,0 82,32 82,73 0,40 -37,72 -82,72l0 -145zm-2925 -3526c-45,0 -82,-32 -82,-73 0,-40 37,-72 82,-72l0 145zm2925 0l-2925 0 0 -145 2925 0 0 145zm0 -145c45,0 82,32 82,72 0,41 -37,73 -82,73l0 -145zm-2925 -310c-45,0 -82,-33 -82,-73 0,-40 37,-73 82,-73l0 146zm2925 0l-2925 0 0 -146 2925 0 0 146zm0 -146c45,0 82,33 82,73 0,40 -37,73 -82,73l0 -146zm-2925 -309c-45,0 -82,-33 -82,-73 0,-40 37,-73 82,-73l0 146zm2925 0l-2925 0 0 -146 2925 0 0 146zm0 -146c45,0 82,33 82,73 0,40 -37,73 -82,73l0 -146z"/>
   </g>
   <g>
    <path class="fil4" d="M10288 8664c-46,0 -82,-33 -82,-73 0,-40 36,-73 82,-73l0 146zm634 0l-634 0 0 -146 634 0 0 146zm0 -146c45,0 82,33 82,73 0,40 -37,73 -82,73l0 -146zm-2925 -1249c-45,0 -82,-33 -82,-73 0,-40 37,-73 82,-73l0 146zm871 0l-871 0 0 -146 871 0 0 146zm0 -146c45,0 82,33 82,73 0,40 -37,73 -82,73l0 -146zm-871 -309c-45,0 -82,-33 -82,-73 0,-41 37,-73 82,-73l0 146zm1807 0l-1807 0 0 -146 1807 0 0 146zm0 -146c45,0 82,32 82,73 0,40 -37,73 -82,73l0 -146zm-993 2906c-46,0 -82,-32 -82,-73 0,-40 36,-73 82,-73l0 146zm2111 0l-2111 0 0 -146 2111 0 0 146zm0 -146c45,0 82,33 82,73 0,41 -37,73 -82,73l0 -146zm-1389 -309c-45,0 -81,-33 -81,-73 0,-40 36,-73 81,-73l0 146zm1389 0l-1389 0 0 -146 1389 0 0 146zm0 -146c45,0 82,33 82,73 0,40 -37,73 -82,73l0 -146z"/>
   </g>
   <path class="fil2 str0" d="M7213 9700l0 -5138 4465 0 0 6741 -2495 0"/>
   <path class="fil4" d="M7845 8859l-69 40 -82 -143 154 -88c17,-10 28,-30 14,-54 -14,-23 -36,-25 -54,-15l-190 110c-24,14 -27,35 -16,54l268 464c11,18 32,28 56,14l105 -60c96,-56 111,-132 62,-217l-26 -45c-48,-83 -126,-116 -222,-60zm178 145c26,46 21,79 -31,109l-69 40 -110 -190 69 -40c52,-30 87,-12 114,35l27 46zm200 -654l-8 4c-102,59 -91,168 -43,251l32 55 -62 36 -109 -190c-11,-18 -28,-30 -54,-16 -24,15 -25,37 -14,55l276 478c10,18 30,30 54,15 25,-14 24,-36 14,-54l-127 -220 61 -35 67 114c48,84 125,115 221,59l8 -4c97,-56 103,-146 55,-230l-145 -251c-48,-84 -130,-123 -226,-67zm299 359c28,48 30,90 -23,120l-7 5c-53,30 -84,15 -111,-32l-137 -238c-28,-47 -45,-109 10,-141l8 -5c53,-30 88,-7 115,40l145 251zm294 -109c-9,-18 -188,-383 -188,-383l107 -61 252 437c10,18 31,28 57,13 24,-14 25,-36 14,-55l-271 -470c-11,-18 -31,-29 -55,-15l-175 101c-24,14 -25,38 -16,56 0,0 192,389 197,399 4,9 12,24 13,36 0,17 -6,33 -25,44 -18,10 -28,31 -14,56 15,25 36,24 54,14 54,-32 74,-72 67,-119 -3,-17 -9,-36 -17,-53zm406 -235c-8,-17 -188,-382 -188,-382l107 -62 252 437c11,18 31,29 57,14 24,-14 25,-37 15,-55l-272 -471c-10,-18 -31,-29 -55,-15l-174 101c-25,14 -26,38 -17,56 0,0 193,389 197,399 5,10 12,25 13,36 1,17 -6,33 -25,44 -18,10 -28,32 -14,56 15,26 37,24 55,14 54,-31 73,-72 66,-119 -2,-16 -9,-36 -17,-53zm603 -220c17,-10 27,-29 13,-53 -13,-23 -35,-25 -53,-15l-163 94 -99 -171 130 -75c17,-10 27,-29 13,-54 -13,-22 -35,-25 -53,-15l-129 75 -90 -156 163 -94c17,-10 27,-29 13,-53 -13,-23 -35,-25 -53,-15l-199 115c-25,14 -26,37 -15,55l267 463c11,18 31,29 55,15l200 -116zm174 -137c11,18 30,29 55,15 25,-14 26,-37 16,-56l-252 -437 88 -51c17,-10 28,-29 14,-53 -14,-23 -36,-25 -54,-15l-247 143c-18,10 -27,31 -14,53 14,25 36,25 54,15l88 -51 252 437zm508 -257c18,-10 28,-29 14,-53 -13,-23 -36,-25 -53,-15l-163 94 -99 -171 129 -75c18,-10 28,-29 14,-54 -13,-23 -36,-25 -53,-15l-130 75 -90 -156 163 -94c18,-10 28,-29 14,-54 -13,-22 -36,-25 -53,-15l-200 116c-24,14 -25,37 -14,55l267 463c10,18 31,28 55,14l199 -115zm119 -742c-11,-18 -32,-28 -56,-14 -25,14 -26,37 -16,55l110 190 -155 89 -109 -189c-11,-19 -30,-30 -56,-15 -25,14 -26,38 -16,56l276 478c11,18 32,28 56,14 25,-14 26,-37 16,-55l-127 -220 154 -90 127 220c11,19 30,30 56,15 25,-14 26,-38 16,-56l-276 -478zm361 30l-77 44 -103 -179c-11,-18 -31,-28 -56,-14 -25,15 -26,37 -16,56l271 469c11,19 31,29 56,15l113 -65c97,-56 111,-133 62,-218l-26 -46c-48,-83 -127,-118 -224,-62zm-37 113l77 -45c52,-30 87,-12 114,35l26 46c27,45 22,79 -31,109l-77 44 -109 -189z"/>
   <path class="fil5 str1" d="M6621 5100l0 5138"/>
   <path class="fil5 str1" d="M6917 4831c0,1283 0,3855 0,5138"/>
   <path class="fil5 str1" d="M6325 5368c0,1284 0,3856 0,5139"/>
   <path class="fil5 str1" d="M7470 10421l0 1600 1970 0"/>
   <path class="fil5 str1" d="M7174 10690l0 1600 1971 0"/>
   <path class="fil5 str1" d="M6879 10959l0 1600 1970 0"/>
   <path class="fil5 str1" d="M9514 11572l1907 0"/>
   <path class="fil5 str1" d="M9623 11840l1502 0"/>
   <path class="fil5 str1" d="M9413 12109l1416 0"/>
   <path class="fil5 str2" d="M10384 12316l-70 -58 -4002 -3285"/>
   <path class="fil5 str2" d="M10635 12522l1026 841"/>
   <path class="fil5 str3" d="M12757 14042c-173,-176 -170,-460 7,-633 177,-172 460,-169 633,8 173,177 169,460 -7,633 -132,128 -322,159 -481,94l-2666 -1013 -19 65 1450 630"/>
   <path class="fil5 str4" d="M12335 14464c-177,-173 -460,-169 -633,8 -173,176 -170,460 7,632 177,173 460,170 633,-7 128,-131 160,-321 95,-481l-1014 -2665 66 -19 630 1449"/>
  </g>
 </g>
</svg>
