<?xml version="1.0" encoding="UTF-8"?>
<!DOCTYPE svg PUBLIC "-//W3C//DTD SVG 1.0//EN" "http://www.w3.org/TR/2001/REC-SVG-20010904/DTD/svg10.dtd">
<!-- Creator: CorelDRAW X7 -->
<svg xmlns="http://www.w3.org/2000/svg" xml:space="preserve" width="200mm" height="200mm" version="1.0" style="shape-rendering:geometricPrecision; text-rendering:geometricPrecision; image-rendering:optimizeQuality; fill-rule:evenodd; clip-rule:evenodd"
viewBox="0 0 20000 20000"
 xmlns:xlink="http://www.w3.org/1999/xlink">
 <defs>
  <style type="text/css">
   <![CDATA[
    .str18 {stroke:#CC7588;stroke-width:15.74}
    .str20 {stroke:#024541;stroke-width:23.49}
    .str1 {stroke:#CC7588;stroke-width:42.26}
    .str21 {stroke:#CC7588;stroke-width:32.05}
    .str0 {stroke:#024541;stroke-width:29.51}
    .str19 {stroke:#024541;stroke-width:27.21}
    .str4 {stroke:#AB8082;stroke-width:40.64}
    .str5 {stroke:#CC7588;stroke-width:84.5;stroke-linecap:round;stroke-linejoin:round}
    .str12 {stroke:#B7CBD8;stroke-width:138.63;stroke-linecap:round;stroke-linejoin:round}
    .str8 {stroke:#4D897C;stroke-width:138.63;stroke-linecap:round;stroke-linejoin:round}
    .str13 {stroke:#024541;stroke-width:138.63;stroke-linecap:round;stroke-linejoin:round}
    .str14 {stroke:#024541;stroke-width:138.63;stroke-linecap:round;stroke-linejoin:round}
    .str17 {stroke:#024541;stroke-width:144.52;stroke-linecap:round;stroke-linejoin:round}
    .str3 {stroke:#4D897C;stroke-width:162.6;stroke-linecap:round;stroke-linejoin:round}
    .str2 {stroke:#024541;stroke-width:162.6;stroke-linecap:round;stroke-linejoin:round}
    .str16 {stroke:#7690C9;stroke-width:162.6;stroke-linecap:round;stroke-linejoin:round}
    .str7 {stroke:#024541;stroke-width:162.6;stroke-linecap:round;stroke-linejoin:round}
    .str15 {stroke:#7690C9;stroke-width:162.6;stroke-linecap:round;stroke-linejoin:round}
    .str11 {stroke:#B8974A;stroke-width:149.93;stroke-linecap:round;stroke-linejoin:round}
    .str6 {stroke:#024541;stroke-width:162.76;stroke-linecap:round;stroke-linejoin:round}
    .str9 {stroke:#024541;stroke-width:163.13;stroke-linecap:round;stroke-linejoin:round}
    .str10 {stroke:#024541;stroke-width:163.31;stroke-linecap:round;stroke-linejoin:round}
    .fil5 {fill:none}
    .fil7 {fill:none;fill-rule:nonzero}
    .fil14 {fill:#FEFEFE}
    .fil21 {fill:#D19A9D}
    .fil23 {fill:#CC6F3C}
    .fil4 {fill:#EBF2D9}
    .fil24 {fill:#CDDBAC}
    .fil19 {fill:#B7B0A7}
    .fil20 {fill:#A7A18F}
    .fil16 {fill:#A2D9F7}
    .fil9 {fill:#78C8D5}
    .fil18 {fill:#66C3D0}
    .fil8 {fill:#4D897C}
    .fil12 {fill:#7690C9}
    .fil17 {fill:#024541}
    .fil10 {fill:#093332}
    .fil13 {fill:#CAB677}
    .fil22 {fill:#FFCA9C}
    .fil15 {fill:#FEFEFE;fill-rule:nonzero}
    .fil6 {fill:#AB8082;fill-rule:nonzero}
    .fil2 {fill:#CC7588;fill-rule:nonzero}
    .fil11 {fill:#B7CBD8;fill-rule:nonzero}
    .fil3 {fill:#4D897C;fill-rule:nonzero}
    .fil1 {fill:#024541;fill-rule:nonzero}
    .fil0 {fill:url(#id0)}
   ]]>
  </style>
  <radialGradient id="id0" gradientUnits="userSpaceOnUse" gradientTransform="matrix(1.41421 -0 -0 1.41421 -4142 -4142)" cx="10000" cy="10000" r="10000" fx="10000" fy="10000">
   <stop offset="0" style="stop-opacity:1; stop-color:#FEFEFE"/>
   <stop offset="0.431373" style="stop-opacity:1; stop-color:#FEFEFE"/>
   <stop offset="1" style="stop-opacity:1; stop-color:#D1E2F2"/>
  </radialGradient>
 </defs>
 <g id="Layer_x0020_1">
  <metadata id="CorelCorpID_0Corel-Layer"/>
  <g id="_1003274971808">
   <path class="fil0" d="M0 0l20000 0 0 20000 -20000 0 0 -20000z"/>
   <path class="fil1 str0" d="M7308 17922l-132 -187 125 -162c11,-14 11,-29 -1,-40 -15,-14 -32,-7 -43,6l-128 174 -37 0 0 -158c0,-15 -9,-29 -28,-29 -21,0 -30,14 -30,29l0 384c0,15 9,28 30,28 19,0 28,-13 28,-28l0 -171 37 0 132 187c8,12 23,19 40,8 17,-12 16,-29 7,-41zm443 -334l0 351c0,15 8,28 28,28 20,0 29,-13 29,-28l0 -378c0,-15 -9,-28 -29,-28l-206 0c-20,0 -29,13 -29,28l0 378c0,15 9,28 29,28 20,0 29,-13 29,-28l0 -351 149 0zm202 61c0,-38 16,-67 58,-67l49 0c43,0 59,29 59,67l0 196c0,38 -16,67 -59,67l-49 0c-42,0 -58,-29 -58,-67l0 -196zm224 0c0,-67 -39,-123 -117,-123l-49 0c-77,0 -116,56 -116,123l0 196c0,67 39,122 116,122l49 0c78,0 117,-55 117,-122l0 -196zm118 -116c-22,0 -31,13 -31,28l0 378c0,15 9,28 28,28 21,0 29,-13 29,-28l0 -351 164 0c14,0 27,-8 27,-28 0,-18 -13,-27 -24,-27l-193 0zm455 307l34 108c5,14 19,23 36,17 15,-5 22,-20 17,-35l-123 -383c-5,-13 -12,-21 -29,-21l-3 0c-17,0 -25,8 -29,21l-124 383c-5,15 2,30 18,35 17,6 31,-3 36,-17l34 -108 133 0zm-76 -184c4,-14 6,-21 9,-35l1 0c3,14 5,21 9,35l41 133 -102 0 42 -133zm566 -130c-21,0 -30,14 -30,29l0 351 -102 0 0 -351c0,-16 -10,-29 -28,-29 -17,0 -27,14 -27,29l0 351 -102 0 0 -351c0,-15 -8,-29 -29,-29 -20,0 -28,14 -28,29l0 378c0,15 8,28 28,28l318 0c19,0 28,-13 28,-28l0 -378c0,-15 -9,-29 -28,-29zm346 435c14,0 27,-8 27,-27 0,-19 -13,-28 -27,-28l-168 0 0 -138 139 0c14,0 27,-8 27,-27 0,-19 -13,-28 -27,-28l-139 0 0 -125 168 0c14,0 27,-8 27,-28 0,-18 -13,-27 -27,-27l-197 0c-20,0 -28,13 -28,28l0 372c0,15 8,28 28,28l197 0zm372 -406c0,-15 -10,-29 -29,-29 -20,0 -29,14 -29,29l0 152 -161 0 0 -152c0,-15 -8,-29 -29,-29 -19,0 -28,14 -28,29l0 384c0,15 9,28 28,28 21,0 29,-13 29,-28l0 -177 161 0 0 177c0,15 8,28 29,28 19,0 29,-13 29,-28l0 -384zm312 384c0,15 8,28 28,28 21,0 29,-13 29,-28l0 -384c0,-15 -9,-29 -30,-29 -11,0 -19,5 -28,21l-164 292 0 0c1,-11 2,-26 2,-43l0 -241c0,-15 -8,-29 -28,-29 -20,0 -28,14 -28,29l0 384c0,15 8,28 29,28 12,0 20,-4 29,-21l163 -291 1 0c-1,11 -3,26 -3,42l0 242zm377 -413c-82,0 -118,70 -118,137l0 44 -56 0 0 -152c0,-15 -6,-29 -27,-29 -19,0 -27,14 -27,29l0 384c0,15 8,28 27,28 20,0 27,-13 27,-28l0 -177 56 0 0 82c0,67 35,123 113,123l33 0c77,0 116,-55 116,-122l0 -196c0,-67 -39,-123 -116,-123l-28 0zm86 319c0,38 -16,67 -58,67l-30 0c-42,0 -59,-29 -59,-67l0 -178c0,-38 16,-85 61,-85l28 0c41,0 58,30 58,64l0 199z"/>
   <path class="fil1 str0" d="M6924 17181c0,15 8,28 27,28 21,0 29,-13 29,-28l0 -384c0,-15 -9,-29 -29,-29 -12,0 -20,5 -29,21l-164 292 0 0c1,-11 2,-26 2,-43l0 -241c0,-15 -8,-29 -27,-29 -21,0 -29,14 -29,29l0 384c0,15 8,28 29,28 12,0 20,-4 29,-21l164 -291 0 0c-1,11 -2,26 -2,42l0 242zm255 28c20,0 29,-13 29,-28l0 -351 89 0c14,0 27,-8 27,-28 0,-18 -13,-28 -27,-28l-236 0c-14,0 -27,10 -27,28 0,20 13,28 27,28l89 0 0 351c0,15 9,28 29,28zm250 -318c0,-38 17,-68 59,-68l49 0c42,0 59,30 59,68l0 196c0,38 -17,67 -59,67l-49 0c-42,0 -59,-29 -59,-67l0 -196zm224 0c0,-68 -38,-123 -116,-123l-49 0c-78,0 -116,55 -116,123l0 196c0,67 38,122 116,122l49 0c78,0 116,-55 116,-122l0 -196zm119 -117c-22,0 -32,14 -32,29l0 378c0,15 10,28 29,28 20,0 29,-13 29,-28l0 -351 164 0c14,0 27,-8 27,-28 0,-18 -13,-28 -24,-28l-193 0zm323 117c0,-38 16,-68 59,-68l49 0c42,0 58,30 58,68l0 196c0,38 -16,67 -58,67l-49 0c-43,0 -59,-29 -59,-67l0 -196zm224 0c0,-68 -39,-123 -116,-123l-49 0c-78,0 -117,55 -117,123l0 196c0,67 39,122 117,122l49 0c77,0 116,-55 116,-122l0 -196zm304 52c0,-17 -8,-33 -33,-33 -24,0 -33,16 -33,33l0 7c0,17 9,33 33,33 25,0 33,-16 33,-33l0 -7zm0 227c0,-18 -8,-33 -33,-33 -24,0 -33,15 -33,33l0 6c0,18 9,33 33,33 25,0 33,-15 33,-33l0 -6zm2044 -291c-21,0 -28,13 -28,28l0 243 -93 0 0 -243c0,-15 -7,-28 -27,-28 -21,0 -28,13 -28,28l0 243 -93 0 0 -243c0,-15 -7,-28 -28,-28 -20,0 -27,13 -27,28l0 268c0,15 8,28 27,28l297 0c19,0 27,-13 27,-28l0 -268c0,-15 -7,-28 -27,-28zm318 6l-203 0c-14,0 -27,6 -27,25 0,19 13,27 27,27l74 0 0 244c0,15 8,28 28,28 20,0 28,-13 28,-28l0 -244 73 0c14,0 27,-8 27,-27 0,-19 -13,-25 -27,-25z"/>
   <path class="fil2 str1" d="M9213 17037c0,-73 -30,-129 -95,-149 41,-24 65,-62 65,-119l0 -12c0,-100 -57,-156 -171,-156l-47 0c-90,0 -146,38 -146,131 0,23 11,41 41,41 30,0 41,-18 41,-41 0,-37 26,-53 64,-53l47 0c62,0 88,24 88,78l0 12c0,55 -32,95 -95,95l-50 0c-22,0 -40,10 -40,38 0,28 18,39 40,39l89 0c62,0 86,40 86,96l0 29c0,55 -26,87 -88,87l-94 0c-39,0 -64,-16 -64,-53 0,-22 -12,-41 -42,-41 -29,0 -41,19 -41,41 0,93 56,132 147,132l94 0c114,0 171,-65 171,-166l0 -29zm175 38c0,-40 15,-72 44,-85l161 -73c79,-35 97,-96 97,-156l0 -4c0,-100 -57,-156 -171,-156l-54 0c-90,0 -146,38 -146,131 0,23 11,41 41,41 30,0 41,-18 41,-41 0,-37 25,-53 64,-53l54 0c62,0 88,24 88,78l0 4c0,41 -13,67 -48,82l-150 67c-70,30 -104,96 -104,173l0 140 353 0c22,0 39,-11 39,-39 0,-28 -17,-40 -39,-40l-270 0 0 -69zm582 -471c-139,83 -184,195 -184,332l0 130c0,101 57,166 171,166l51 0c114,0 171,-61 171,-161l0 -44c0,-100 -57,-170 -171,-170l-133 0c12,-72 52,-130 140,-184 18,-11 32,-33 16,-58 -16,-25 -42,-23 -61,-11zm-13 549c-62,0 -89,-32 -89,-87l0 -131 140 0c62,0 88,36 88,92l0 44c0,55 -26,82 -88,82l-51 0z"/>
   <g>
    <path class="fil2" d="M4146 14932c0,-42 36,-75 81,-75 45,0 82,33 82,75l-163 0zm0 423l0 -423 163 0 0 423 -82 76 -81 -76zm163 0c0,42 -37,76 -82,76 -45,0 -81,-34 -81,-76l163 0zm3372 76l-3454 0 0 -151 3454 0 0 0 0 151zm0 -151c45,0 82,33 82,75 0,42 -37,76 -82,76l0 -151zm3455 151l-3455 0 0 -151 3455 0 81 75 -81 76zm0 -151c44,0 81,33 81,75 0,42 -37,76 -81,76l0 -151zm81 -348l0 423 -163 0 0 -423 163 0zm-163 0c0,-42 37,-75 82,-75 44,0 81,33 81,75l-163 0zm-3454 0c0,-42 37,-75 81,-75 45,0 82,33 82,75l-163 0zm0 423l0 -423 163 0 0 423 -163 0zm163 0c0,42 -37,76 -82,76 -44,0 -81,-34 -81,-76l163 0z"/>
   </g>
   <g>
    <path class="fil2" d="M14508 14932c0,-42 37,-75 82,-75 45,0 81,33 81,75l-163 0zm0 423l0 -423 163 0 0 423 -81 76 -82 -76zm163 0c0,42 -36,76 -81,76 -45,0 -82,-34 -82,-76l163 0zm-3535 -75l3454 0 0 151 -3454 0 0 -151zm0 151c-45,0 -82,-34 -82,-76 0,-42 37,-75 82,-75l0 151z"/>
   </g>
   <g>
    <path class="fil2" d="M9326 15355c0,-41 37,-75 82,-75 46,0 83,34 83,75l-165 0zm0 821l0 -821 165 0 0 821 -165 0zm165 0c0,42 -37,76 -83,76 -45,0 -82,-34 -82,-76l165 0z"/>
   </g>
   <g>
    <path class="fil3" d="M9750 8207c-20,0 -36,-36 -36,-81 0,-45 16,-81 36,-81l0 162zm5192 0l-5192 0 0 -162 5192 0 0 162zm0 -162c20,0 36,36 36,81 0,45 -16,81 -36,81l0 -162z"/>
   </g>
   <path class="fil4 str2" d="M13306 9911l2567 0 0 3850 -2567 0 0 -3850z"/>
   <path class="fil4 str2" d="M6398 9911l2567 0 0 3850 -2567 0 0 -3850z"/>
   <path class="fil5 str3" d="M9556 10449l0 3850 -2567 0"/>
   <path class="fil5 str3" d="M9261 10180c0,1283 0,2567 0,3850 -856,0 -1712,0 -2567,0"/>
   <path class="fil4 str2" d="M9852 9911l2567 0 0 3850 -2567 0 0 -3850z"/>
   <path class="fil5 str3" d="M13010 10449l0 3850 -2566 0"/>
   <path class="fil5 str3" d="M12715 10180c0,1283 0,2567 0,3850 -856,0 -1712,0 -2567,0"/>
   <path class="fil5 str3" d="M16465 10449l0 3850 -2567 0"/>
   <path class="fil5 str3" d="M16169 10180c0,1283 0,2567 0,3850 -856,0 -1711,0 -2567,0"/>
   <path class="fil6 str4" d="M10823 12151c-16,0 -30,9 -30,30l0 180c0,21 14,30 30,30l126 0c48,0 68,24 68,66l0 42c0,42 -20,66 -68,66l-59 0c-29,0 -49,-12 -49,-40 0,-18 -8,-32 -31,-32 -23,0 -31,14 -31,32 0,70 42,100 111,100l59 0c87,0 131,-50 131,-126l0 -42c0,-77 -44,-127 -131,-127l-93 0 0 -119 172 0c17,0 30,-9 30,-30 0,-21 -13,-30 -30,-30l-205 0zm384 161c0,-67 25,-108 77,-108l24 0c52,0 76,41 76,108l0 145c0,67 -24,108 -76,108l-24 0c-52,0 -77,-41 -77,-108l0 -145zm240 0c0,-102 -47,-168 -139,-168l-24 0c-92,0 -140,66 -140,168l0 145c0,102 48,168 140,168l24 0c92,0 139,-66 139,-168l0 -145z"/>
   <path class="fil6 str4" d="M11125 12800c-20,0 -27,13 -27,27l0 239 -91 0 0 -239c0,-14 -7,-27 -27,-27 -20,0 -27,13 -27,27l0 239 -91 0 0 -239c0,-14 -7,-27 -27,-27 -20,0 -27,13 -27,27l0 263c0,15 8,28 27,28l290 0c19,0 27,-13 27,-28l0 -263c0,-14 -7,-27 -27,-27zm312 6l-199 0c-13,0 -26,6 -26,25 0,19 13,26 26,26l73 0 0 239c0,15 7,28 27,28 19,0 27,-13 27,-28l0 -239 72 0c14,0 26,-7 26,-26 0,-19 -12,-25 -26,-25z"/>
   <path class="fil7 str5" d="M10568 13352c-201,-164 -330,-415 -330,-695 0,-280 129,-530 330,-694m1135 0c201,164 330,414 330,694 0,280 -129,531 -330,695"/>
   <path class="fil6 str4" d="M7369 12151c-16,0 -30,9 -30,30l0 180c0,21 14,30 30,30l126 0c48,0 68,24 68,66l0 42c0,42 -20,66 -68,66l-59 0c-29,0 -49,-12 -49,-40 0,-18 -8,-32 -31,-32 -23,0 -32,14 -32,32 0,70 43,100 112,100l59 0c87,0 130,-50 130,-126l0 -42c0,-77 -43,-127 -130,-127l-93 0 0 -119 172 0c17,0 30,-9 30,-30 0,-21 -13,-30 -30,-30l-205 0zm384 161c0,-67 25,-108 77,-108l24 0c52,0 76,41 76,108l0 145c0,67 -24,108 -76,108l-24 0c-52,0 -77,-41 -77,-108l0 -145zm240 0c0,-102 -47,-168 -139,-168l-24 0c-92,0 -140,66 -140,168l0 145c0,102 48,168 140,168l24 0c92,0 139,-66 139,-168l0 -145z"/>
   <path class="fil6 str4" d="M7671 12800c-20,0 -27,13 -27,27l0 239 -91 0 0 -239c0,-14 -7,-27 -27,-27 -20,0 -27,13 -27,27l0 239 -91 0 0 -239c0,-14 -8,-27 -27,-27 -20,0 -27,13 -27,27l0 263c0,15 7,28 27,28l290 0c19,0 27,-13 27,-28l0 -263c0,-14 -7,-27 -27,-27zm312 6l-199 0c-13,0 -26,6 -26,25 0,19 13,26 26,26l73 0 0 239c0,15 7,28 27,28 19,0 27,-13 27,-28l0 -239 72 0c14,0 26,-7 26,-26 0,-19 -12,-25 -26,-25z"/>
   <path class="fil7 str5" d="M7114 13352c-201,-164 -330,-415 -330,-695 0,-280 129,-530 330,-694m1135 0c201,164 330,414 330,694 0,280 -129,531 -330,695"/>
   <path class="fil6 str4" d="M14179 12131c-10,0 -18,5 -24,11 -32,36 -69,72 -108,107 -12,11 -16,25 0,41 14,15 28,10 40,0 24,-20 49,-46 70,-70l0 325 -84 0c-16,0 -30,8 -30,30 0,21 14,30 30,30l216 0c17,0 30,-9 30,-30 0,-22 -13,-30 -30,-30l-70 0 0 -383c0,-17 -5,-31 -28,-31l-12 0zm307 449c0,17 8,31 31,31 23,0 31,-14 31,-31l0 -57c0,-94 19,-152 66,-227l69 -112c17,-26 5,-46 -25,-46l-249 0c-17,0 -30,8 -30,30 0,21 13,30 30,30l196 0 -43 65c-60,91 -76,153 -76,260l0 57zm416 -446c-106,63 -140,148 -140,252l0 99c0,77 43,126 130,126l39 0c86,0 130,-46 130,-123l0 -33c0,-76 -44,-129 -130,-129l-102 0c10,-55 40,-99 107,-140 14,-8 25,-25 12,-44 -12,-19 -31,-18 -46,-8zm-10 417c-47,0 -67,-24 -67,-66l0 -99 106 0c47,0 67,26 67,69l0 33c0,43 -20,63 -67,63l-39 0z"/>
   <path class="fil6 str4" d="M14579 12800c-20,0 -27,13 -27,27l0 239 -91 0 0 -239c0,-14 -7,-27 -27,-27 -20,0 -27,13 -27,27l0 239 -91 0 0 -239c0,-14 -7,-27 -27,-27 -20,0 -27,13 -27,27l0 263c0,15 8,28 27,28l290 0c19,0 27,-13 27,-28l0 -263c0,-14 -7,-27 -27,-27zm312 6l-198 0c-14,0 -27,6 -27,25 0,19 13,26 27,26l72 0 0 239c0,15 7,28 27,28 19,0 27,-13 27,-28l0 -239 72 0c14,0 27,-7 27,-26 0,-19 -13,-25 -27,-25z"/>
   <path class="fil7 str5" d="M14022 13352c-201,-164 -329,-415 -329,-695 0,-280 128,-530 329,-694m1135 0c201,164 330,414 330,694 0,280 -129,531 -330,695"/>
   <path class="fil4 str2" d="M2944 9911l2567 0 0 3850 -2567 0 0 -3850z"/>
   <path class="fil5 str3" d="M6102 10449l0 3850 -2567 0"/>
   <path class="fil5 str3" d="M5807 10180c0,1283 0,2567 0,3850 -856,0 -1712,0 -2567,0"/>
   <path class="fil6 str4" d="M3915 12151c-17,0 -30,9 -30,30l0 180c0,21 13,30 30,30l126 0c48,0 68,24 68,66l0 42c0,42 -20,66 -68,66l-59 0c-30,0 -49,-12 -49,-40 0,-18 -9,-32 -31,-32 -23,0 -32,14 -32,32 0,70 43,100 112,100l59 0c87,0 130,-50 130,-126l0 -42c0,-77 -43,-127 -130,-127l-93 0 0 -119 172 0c17,0 30,-9 30,-30 0,-21 -13,-30 -30,-30l-205 0zm384 161c0,-67 24,-108 77,-108l23 0c53,0 77,41 77,108l0 145c0,67 -24,108 -77,108l-23 0c-53,0 -77,-41 -77,-108l0 -145zm240 0c0,-102 -47,-168 -140,-168l-23 0c-92,0 -140,66 -140,168l0 145c0,102 48,168 140,168l23 0c93,0 140,-66 140,-168l0 -145z"/>
   <path class="fil6 str4" d="M4217 12800c-20,0 -27,13 -27,27l0 239 -91 0 0 -239c0,-14 -8,-27 -27,-27 -20,0 -27,13 -27,27l0 239 -91 0 0 -239c0,-14 -8,-27 -27,-27 -20,0 -27,13 -27,27l0 263c0,15 7,28 27,28l290 0c19,0 27,-13 27,-28l0 -263c0,-14 -7,-27 -27,-27zm312 6l-199 0c-14,0 -26,6 -26,25 0,19 12,26 26,26l73 0 0 239c0,15 7,28 27,28 19,0 27,-13 27,-28l0 -239 72 0c14,0 26,-7 26,-26 0,-19 -12,-25 -26,-25z"/>
   <path class="fil7 str5" d="M3660 13352c-201,-164 -330,-415 -330,-695 0,-280 129,-530 330,-694m1135 0c201,164 330,414 330,694 0,280 -129,531 -330,695"/>
   <path class="fil7 str3" d="M17056 10987l0 3850 -2567 0"/>
   <path class="fil7 str3" d="M16760 10718c0,1283 0,2567 0,3850 -855,0 -1711,0 -2567,0"/>
   <g>
    <path class="fil2" d="M4146 9545c0,42 -36,76 -81,76 -45,0 -82,-34 -82,-76l163 0zm0 -735l0 735 -163 0 0 -735 82 -75 81 75zm-163 0c0,-41 37,-75 82,-75 45,0 81,34 81,75l-163 0zm3536 76l-3454 0 0 -151 3454 0 0 0 0 151zm0 -151c45,0 81,34 81,75 0,42 -36,76 -81,76l0 -151zm3454 151l-3454 0 0 -151 3454 0 81 75 -81 76zm0 -151c45,0 81,34 81,75 0,42 -36,76 -81,76l0 -151zm-81 810l0 -735 162 0 0 735 -162 0zm162 0c0,42 -36,76 -81,76 -45,0 -81,-34 -81,-76l162 0zm3454 0c0,42 -36,76 -81,76 -45,0 -81,-34 -81,-76l162 0zm0 -1144l0 1144 -162 0 0 -1144 162 0zm-162 0c0,-42 36,-75 81,-75 45,0 81,33 81,75l-162 0zm-6746 1144c0,42 -36,76 -81,76 -45,0 -81,-34 -81,-76l162 0zm0 -1106l0 1106 -162 0 0 -1106 162 0zm-162 0c0,-42 36,-76 81,-76 45,0 81,34 81,76l-162 0z"/>
   </g>
   <path class="fil3" d="M6728 10993l-42 0 0 -86 94 0c10,0 20,-6 20,-21 0,-14 -10,-20 -20,-20l-116 0c-15,0 -21,8 -21,20l0 281c0,11 7,22 22,22l63 0c58,0 85,-31 85,-83l0 -27c0,-51 -27,-86 -85,-86zm43 113c0,28 -11,41 -43,41l-42 0 0 -115 42 0c32,0 43,18 43,46l0 28zm262 -245l-4 0c-62,0 -86,52 -86,103l0 33 -37 0 0 -115c0,-11 -5,-21 -20,-21 -15,0 -21,10 -21,21l0 290c0,11 6,21 21,21 15,0 20,-10 20,-21l0 -133 37 0 0 69c0,51 27,85 86,85l4 0c59,0 86,-39 86,-90l0 -152c0,-51 -27,-90 -86,-90zm42 242c0,29 -10,49 -42,49l-4 0c-32,0 -42,-15 -42,-44l0 -144c0,-29 8,-62 42,-62l4 0c32,0 42,20 42,49l0 152zm162 27c1,-10 16,-223 16,-223l64 0 0 265c0,11 7,21 22,21 15,0 22,-10 22,-21l0 -285c0,-11 -7,-21 -22,-21l-105 0c-15,0 -22,10 -23,21 0,0 -14,227 -15,233 0,5 -1,14 -3,20 -5,7 -12,13 -23,13 -11,0 -21,7 -21,22 0,15 10,20 21,20 33,0 52,-13 61,-36 4,-8 6,-19 6,-29zm247 0c1,-10 15,-223 15,-223l65 0 0 265c0,11 6,21 22,21 14,0 21,-10 21,-21l0 -285c0,-11 -7,-21 -21,-21l-106 0c-15,0 -22,10 -22,21 0,0 -15,227 -15,233 -1,5 -1,14 -4,20 -4,7 -11,13 -23,13 -11,0 -21,7 -21,22 0,15 10,20 21,20 33,0 52,-13 62,-36 3,-8 5,-19 6,-29zm331 59c11,0 21,-6 21,-21 0,-14 -10,-21 -21,-21l-98 0 0 -104 78 0c11,0 20,-6 20,-21 0,-13 -9,-20 -20,-20l-78 0 0 -95 98 0c11,0 21,-6 21,-21 0,-14 -10,-20 -21,-20l-120 0c-15,0 -22,10 -22,21l0 280c0,11 7,22 22,22l120 0zm116 -17c0,11 6,21 21,21 15,0 22,-10 22,-21l0 -265 53 0c11,0 21,-6 21,-21 0,-14 -10,-20 -21,-20l-150 0c-10,0 -20,6 -20,20 0,15 10,21 20,21l54 0 0 265zm298 17c11,0 21,-6 21,-21 0,-14 -10,-21 -21,-21l-98 0 0 -104 78 0c11,0 20,-6 20,-21 0,-13 -9,-20 -20,-20l-78 0 0 -95 98 0c11,0 21,-6 21,-21 0,-14 -10,-20 -21,-20l-121 0c-14,0 -21,10 -21,21l0 280c0,11 7,22 21,22l121 0zm249 -307c0,-11 -7,-21 -22,-21 -15,0 -21,10 -21,21l0 115 -94 0 0 -115c0,-11 -6,-21 -22,-21 -14,0 -21,10 -21,21l0 290c0,11 7,21 21,21 16,0 22,-10 22,-21l0 -133 94 0 0 133c0,11 6,21 21,21 15,0 22,-10 22,-21l0 -290zm157 109l-47 0 0 -109c0,-11 -7,-21 -22,-21 -15,0 -21,10 -21,21l0 285c0,11 6,21 21,21l69 0c58,0 85,-31 85,-83l0 -27c0,-51 -27,-87 -85,-87zm-47 41l47 0c31,0 42,18 42,46l0 27c0,28 -11,42 -42,42l-47 0 0 -115z"/>
   <path class="fil3" d="M10182 10993l-42 0 0 -86 94 0c10,0 20,-6 20,-21 0,-14 -10,-20 -20,-20l-116 0c-14,0 -21,8 -21,20l0 281c0,11 7,22 22,22l63 0c59,0 85,-31 85,-83l0 -27c0,-51 -26,-86 -85,-86zm43 113c0,28 -11,41 -43,41l-42 0 0 -115 42 0c32,0 43,18 43,46l0 28zm262 -245l-4 0c-62,0 -86,52 -86,103l0 33 -37 0 0 -115c0,-11 -4,-21 -20,-21 -15,0 -21,10 -21,21l0 290c0,11 6,21 21,21 15,0 20,-10 20,-21l0 -133 37 0 0 69c0,51 27,85 86,85l4 0c59,0 86,-39 86,-90l0 -152c0,-51 -27,-90 -86,-90zm42 242c0,29 -10,49 -42,49l-4 0c-32,0 -42,-15 -42,-44l0 -144c0,-29 8,-62 42,-62l4 0c32,0 42,20 42,49l0 152zm162 27c1,-10 16,-223 16,-223l64 0 0 265c0,11 7,21 22,21 15,0 22,-10 22,-21l0 -285c0,-11 -7,-21 -22,-21l-105 0c-15,0 -22,10 -22,21 0,0 -15,227 -16,233 0,5 -1,14 -3,20 -4,7 -11,13 -23,13 -11,0 -21,7 -21,22 0,15 10,20 21,20 33,0 52,-13 61,-36 4,-8 6,-19 6,-29zm247 0c1,-10 15,-223 15,-223l65 0 0 265c0,11 6,21 22,21 15,0 21,-10 21,-21l0 -285c0,-11 -6,-21 -21,-21l-106 0c-15,0 -22,10 -22,21 0,0 -15,227 -15,233 -1,5 -1,14 -4,20 -4,7 -11,13 -23,13 -11,0 -21,7 -21,22 0,15 10,20 21,20 33,0 53,-13 62,-36 3,-8 5,-19 6,-29zm332 59c10,0 20,-6 20,-21 0,-14 -10,-21 -20,-21l-99 0 0 -104 78 0c11,0 21,-6 21,-21 0,-13 -10,-20 -21,-20l-78 0 0 -95 99 0c10,0 20,-6 20,-21 0,-14 -10,-20 -20,-20l-121 0c-15,0 -22,10 -22,21l0 280c0,11 7,22 22,22l121 0zm115 -17c0,11 6,21 21,21 15,0 22,-10 22,-21l0 -265 53 0c11,0 21,-6 21,-21 0,-14 -10,-20 -21,-20l-150 0c-10,0 -20,6 -20,20 0,15 10,21 20,21l54 0 0 265zm298 17c11,0 21,-6 21,-21 0,-14 -10,-21 -21,-21l-98 0 0 -104 78 0c11,0 20,-6 20,-21 0,-13 -9,-20 -20,-20l-78 0 0 -95 98 0c11,0 21,-6 21,-21 0,-14 -10,-20 -21,-20l-120 0c-15,0 -22,10 -22,21l0 280c0,11 7,22 22,22l120 0zm249 -307c0,-11 -7,-21 -21,-21 -16,0 -22,10 -22,21l0 115 -94 0 0 -115c0,-11 -6,-21 -22,-21 -14,0 -21,10 -21,21l0 290c0,11 7,21 21,21 16,0 22,-10 22,-21l0 -133 94 0 0 133c0,11 6,21 22,21 14,0 21,-10 21,-21l0 -290zm157 109l-47 0 0 -109c0,-11 -6,-21 -22,-21 -15,0 -21,10 -21,21l0 285c0,11 6,21 21,21l69 0c58,0 85,-31 85,-83l0 -27c0,-51 -27,-87 -85,-87zm-47 41l47 0c31,0 43,18 43,46l0 27c0,28 -12,42 -43,42l-47 0 0 -115z"/>
   <path class="fil3" d="M3274 10993l-42 0 0 -86 93 0c11,0 21,-6 21,-21 0,-14 -10,-20 -21,-20l-115 0c-15,0 -21,8 -21,20l0 281c0,11 7,22 22,22l63 0c58,0 85,-31 85,-83l0 -27c0,-51 -27,-86 -85,-86zm43 113c0,28 -11,41 -43,41l-42 0 0 -115 42 0c32,0 43,18 43,46l0 28zm262 -245l-4 0c-62,0 -86,52 -86,103l0 33 -37 0 0 -115c0,-11 -5,-21 -20,-21 -15,0 -21,10 -21,21l0 290c0,11 6,21 21,21 15,0 20,-10 20,-21l0 -133 37 0 0 69c0,51 27,85 86,85l4 0c59,0 86,-39 86,-90l0 -152c0,-51 -27,-90 -86,-90zm42 242c0,29 -10,49 -42,49l-4 0c-32,0 -42,-15 -42,-44l0 -144c0,-29 8,-62 42,-62l4 0c32,0 42,20 42,49l0 152zm162 27c1,-10 15,-223 15,-223l65 0 0 265c0,11 6,21 22,21 15,0 21,-10 21,-21l0 -285c0,-11 -6,-21 -21,-21l-105 0c-15,0 -22,10 -23,21 0,0 -14,227 -15,233 0,5 -1,14 -4,20 -4,7 -11,13 -22,13 -11,0 -21,7 -21,22 0,15 10,20 21,20 33,0 52,-13 61,-36 3,-8 6,-19 6,-29zm247 0c1,-10 15,-223 15,-223l64 0 0 265c0,11 7,21 23,21 14,0 21,-10 21,-21l0 -285c0,-11 -7,-21 -21,-21l-106 0c-15,0 -22,10 -22,21 0,0 -15,227 -15,233 -1,5 -1,14 -4,20 -4,7 -11,13 -23,13 -11,0 -21,7 -21,22 0,15 10,20 21,20 33,0 52,-13 62,-36 3,-8 5,-19 6,-29zm331 59c11,0 21,-6 21,-21 0,-14 -10,-21 -21,-21l-98 0 0 -104 78 0c11,0 20,-6 20,-21 0,-13 -9,-20 -20,-20l-78 0 0 -95 98 0c11,0 21,-6 21,-21 0,-14 -10,-20 -21,-20l-121 0c-14,0 -21,10 -21,21l0 280c0,11 7,22 21,22l121 0zm116 -17c0,11 6,21 21,21 15,0 22,-10 22,-21l0 -265 53 0c11,0 20,-6 20,-21 0,-14 -9,-20 -20,-20l-150 0c-10,0 -20,6 -20,20 0,15 10,21 20,21l54 0 0 265zm298 17c11,0 21,-6 21,-21 0,-14 -10,-21 -21,-21l-98 0 0 -104 78 0c11,0 20,-6 20,-21 0,-13 -9,-20 -20,-20l-78 0 0 -95 98 0c11,0 21,-6 21,-21 0,-14 -10,-20 -21,-20l-121 0c-14,0 -21,10 -21,21l0 280c0,11 7,22 21,22l121 0zm249 -307c0,-11 -7,-21 -22,-21 -15,0 -21,10 -21,21l0 115 -94 0 0 -115c0,-11 -6,-21 -22,-21 -15,0 -21,10 -21,21l0 290c0,11 6,21 21,21 15,0 22,-10 22,-21l0 -133 94 0 0 133c0,11 6,21 21,21 15,0 22,-10 22,-21l0 -290zm156 109l-46 0 0 -109c0,-11 -7,-21 -22,-21 -15,0 -22,10 -22,21l0 285c0,11 7,21 22,21l68 0c59,0 86,-31 86,-83l0 -27c0,-51 -27,-87 -86,-87zm-46 41l46 0c32,0 43,18 43,46l0 27c0,28 -11,42 -43,42l-46 0 0 -115z"/>
   <path class="fil3" d="M13636 10993l-41 0 0 -86 93 0c10,0 20,-6 20,-21 0,-14 -10,-20 -20,-20l-116 0c-14,0 -21,8 -21,20l0 281c0,11 7,22 22,22l63 0c59,0 85,-31 85,-83l0 -27c0,-51 -26,-86 -85,-86zm43 113c0,28 -11,41 -43,41l-41 0 0 -115 41 0c32,0 43,18 43,46l0 28zm263 -245l-5 0c-62,0 -85,52 -85,103l0 33 -38 0 0 -115c0,-11 -4,-21 -20,-21 -15,0 -21,10 -21,21l0 290c0,11 6,21 21,21 15,0 20,-10 20,-21l0 -133 38 0 0 69c0,51 26,85 85,85l5 0c58,0 85,-39 85,-90l0 -152c0,-51 -27,-90 -85,-90zm42 242c0,29 -11,49 -42,49l-5 0c-32,0 -42,-15 -42,-44l0 -144c0,-29 8,-62 42,-62l5 0c31,0 42,20 42,49l0 152zm162 27c0,-10 15,-223 15,-223l64 0 0 265c0,11 7,21 23,21 14,0 21,-10 21,-21l0 -285c0,-11 -7,-21 -21,-21l-106 0c-15,0 -22,10 -22,21 0,0 -15,227 -16,233 0,5 0,14 -3,20 -4,7 -11,13 -23,13 -11,0 -21,7 -21,22 0,15 10,20 21,20 33,0 52,-13 62,-36 3,-8 5,-19 6,-29zm246 0c1,-10 15,-223 15,-223l65 0 0 265c0,11 6,21 22,21 15,0 21,-10 21,-21l0 -285c0,-11 -6,-21 -21,-21l-106 0c-15,0 -21,10 -22,21 0,0 -15,227 -15,233 -1,5 -1,14 -4,20 -4,7 -11,13 -22,13 -12,0 -22,7 -22,22 0,15 10,20 22,20 32,0 52,-13 61,-36 3,-8 5,-19 6,-29zm332 59c10,0 20,-6 20,-21 0,-14 -10,-21 -20,-21l-99 0 0 -104 78 0c11,0 21,-6 21,-21 0,-13 -10,-20 -21,-20l-78 0 0 -95 99 0c10,0 20,-6 20,-21 0,-14 -10,-20 -20,-20l-121 0c-15,0 -21,10 -21,21l0 280c0,11 6,22 21,22l121 0zm115 -17c0,11 6,21 21,21 15,0 22,-10 22,-21l0 -265 53 0c11,0 21,-6 21,-21 0,-14 -10,-20 -21,-20l-149 0c-11,0 -21,6 -21,20 0,15 10,21 21,21l53 0 0 265zm299 17c10,0 20,-6 20,-21 0,-14 -10,-21 -20,-21l-99 0 0 -104 78 0c11,0 21,-6 21,-21 0,-13 -10,-20 -21,-20l-78 0 0 -95 99 0c10,0 20,-6 20,-21 0,-14 -10,-20 -20,-20l-121 0c-15,0 -22,10 -22,21l0 280c0,11 7,22 22,22l121 0zm248 -307c0,-11 -7,-21 -21,-21 -16,0 -22,10 -22,21l0 115 -94 0 0 -115c0,-11 -6,-21 -21,-21 -15,0 -22,10 -22,21l0 290c0,11 7,21 22,21 15,0 21,-10 21,-21l0 -133 94 0 0 133c0,11 6,21 22,21 14,0 21,-10 21,-21l0 -290zm157 109l-47 0 0 -109c0,-11 -6,-21 -22,-21 -15,0 -21,10 -21,21l0 285c0,11 6,21 21,21l69 0c58,0 85,-31 85,-83l0 -27c0,-51 -27,-87 -85,-87zm-47 41l47 0c32,0 43,18 43,46l0 27c0,28 -11,42 -43,42l-47 0 0 -115z"/>
   <path class="fil8 str6" d="M4883 7870l-713 0 0 256 713 0 0 -256zm3666 0l-713 0 0 256 713 0 0 -256z"/>
   <path class="fil9 str2" d="M8739 4642l-4759 0c-80,0 -146,66 -146,147l0 2989c0,81 66,147 146,147l4759 0c81,0 147,-66 147,-147l0 -2989c0,-81 -67,-147 -147,-147z"/>
   <path class="fil10 str7" d="M8539 4989l-4319 0 0 2589 4319 0 0 -2589z"/>
   <path class="fil8 str8" d="M4220 5764l0 -565 -171 0 0 565 171 0zm0 1604l0 -565 -171 0 0 565 171 0z"/>
   <path class="fil11" d="M6525 7120l1641 0c38,0 69,31 69,69 0,38 -31,69 -69,69l-1641 0 0 -138zm0 -1009l820 0c38,0 70,31 70,69 0,39 -32,70 -70,70l-820 0 0 -139zm0 504l820 0c38,0 70,31 70,70 0,38 -32,69 -70,69l-820 0 0 -139zm0 -252l820 0c38,0 70,31 70,69 0,39 -32,70 -70,70l-820 0 0 -139zm0 504l1641 0c38,0 69,31 69,70 0,38 -31,69 -69,69l-1641 0 0 -139zm0 505l1641 0c38,0 69,31 69,69 0,38 -31,69 -69,69l-1641 0 0 -138z"/>
   <path class="fil12 str9" d="M5876 4242l-1656 705 0 2673 1656 704 0 -704 0 -2673 0 -705z"/>
   <path class="fil13 str10" d="M5876 4243l580 0 0 601 0 2879 0 602 -580 0 0 -602 0 -2879 0 -601z"/>
   <path class="fil14 str11" d="M6166 5359c-81,0 -147,66 -147,147 0,81 66,146 147,146 81,0 146,-65 146,-146 0,-81 -65,-147 -146,-147zm0 1556c-81,0 -147,65 -147,146 0,81 66,146 147,146 81,0 146,-65 146,-146 0,-81 -65,-146 -146,-146zm0 -778c-81,0 -147,66 -147,146 0,81 66,147 147,147 81,0 146,-66 146,-147 0,-80 -65,-146 -146,-146z"/>
   <g>
    <path class="fil14" d="M5066 7109l0 -381 125 0 0 381 -125 0z"/>
    <path id="1" class="fil15" d="M5135 6728l0 381 -137 0 0 -381 68 -70 69 70zm-137 0c0,-39 30,-70 68,-70 38,0 69,31 69,70l-137 0zm193 69l-125 0 0 -139 125 0 69 70 -69 69zm0 -139c38,0 69,31 69,70 0,38 -31,69 -69,69l0 -139zm-69 451l0 -381 138 0 0 381 -69 69 -69 -69zm138 0c0,38 -31,69 -69,69 -38,0 -69,-31 -69,-69l138 0zm-194 -70l125 0 0 139 -125 0 -68 -69 68 -70zm0 139c-38,0 -68,-31 -68,-69 0,-39 30,-70 68,-70l0 139z"/>
   </g>
   <path class="fil14 str12" d="M5390 5839c-96,0 -172,0 -268,0 -119,0 -215,199 -215,444 0,246 96,444 215,444 96,0 172,0 268,0 119,0 215,-198 215,-444 0,-245 -96,-444 -215,-444z"/>
   <g>
    <path class="fil14" d="M5378 5949l0 -491 -125 0 0 491 125 0z"/>
    <path id="1" class="fil15" d="M5447 5458l0 491 -138 0 0 -491 69 -69 69 69zm-138 0c0,-38 31,-69 69,-69 38,0 69,31 69,69l-138 0zm-56 -69l125 0 0 139 -125 0 -68 -70 68 -69zm0 139c-38,0 -68,-31 -68,-70 0,-38 30,-69 68,-69l0 139zm-68 421l0 -491 137 0 0 491 -69 70 -68 -70zm137 0c0,39 -31,70 -69,70 -38,0 -68,-31 -68,-70l137 0zm56 70l-125 0 0 -139 125 0 69 69 -69 70zm0 -139c38,0 69,31 69,69 0,39 -31,70 -69,70l0 -139z"/>
   </g>
   <path class="fil16" d="M4363 5993c31,-3 61,-5 93,-8 0,49 0,99 0,148 -32,1 -62,3 -93,4 0,-48 0,-96 0,-144zm295 445c36,2 72,3 110,5 0,54 0,108 0,162 -38,-4 -74,-7 -110,-10 0,-52 0,-104 0,-157zm-154 -7c33,2 67,3 101,5 0,51 0,103 0,154 -34,-3 -68,-5 -101,-8 0,-50 0,-100 0,-151zm154 -228c36,-1 72,-2 110,-3 0,54 0,108 0,162 -38,-1 -74,-2 -110,-2 0,-53 0,-105 0,-157zm-154 3c33,-1 67,-1 101,-2 0,51 0,103 0,154 -34,0 -68,-1 -101,-2 0,-50 0,-100 0,-150zm-48 223c0,50 0,99 0,148 -32,-2 -62,-5 -93,-8 0,-47 0,-96 0,-144 31,2 61,3 93,4zm0 -222c0,49 0,99 0,148 -32,0 -62,-1 -93,-2 0,-48 0,-96 0,-144 31,0 61,-1 93,-2zm202 -240c36,-3 73,-6 110,-10 0,54 0,108 0,162 -38,2 -74,3 -110,5 0,-52 0,-105 0,-157zm-154 13c33,-2 67,-5 101,-8 0,51 0,103 0,154 -34,2 -68,3 -101,5 0,-50 0,-100 0,-151z"/>
   <path class="fil17 str13" d="M5122 5944c-91,0 -164,152 -164,339 0,188 73,340 164,340 91,0 164,-152 164,-340 0,-187 -73,-339 -164,-339z"/>
   <path class="fil18" d="M11403 6534l-307 -354 354 921 86 -588 -40 -112 -93 133z"/>
   <path class="fil18" d="M11863 6534l307 -354 -355 921 -86 -588 41 -112 93 133z"/>
   <path class="fil19 str14" d="M12639 8126l0 -1220 1002 10 0 -257c0,-306 -246,-557 -547,-557l-542 0 -320 0 -600 1435 -599 -1435 -327 0c-300,0 -546,251 -546,557l0 1467 2479 0z"/>
   <path class="fil20 str14" d="M11632 7650l-412 -421 0 -281 -339 -253 73 -593 79 0 599 1435 600 -1435 79 0 73 593 -339 253 0 281 -413 421z"/>
   <path class="fil21 str14" d="M11811 7110l-179 427 -182 -436 86 -588 96 0 97 0 82 597z"/>
   <g>
    <path class="fil21" d="M11821 6258l-377 0 92 256 97 0 96 0 92 -256z"/>
    <path id="1" class="fil1" d="M11444 6189l377 0 0 138 -377 0 -66 -46 66 -92zm0 138c-38,0 -70,-31 -70,-69 0,-38 32,-69 70,-69l0 138zm26 210l-92 -256 132 -46 92 255 -66 93 -66 -46zm132 -47c13,36 -6,76 -42,89 -37,13 -77,-6 -90,-42l132 -47zm31 93l-97 0 0 -139 97 0 0 0 0 139zm0 -139c38,0 70,31 70,70 0,38 -32,69 -70,69l0 -139zm96 139l-96 0 0 -139 96 0 66 93 -66 46zm0 -139c38,0 70,31 70,70 0,38 -32,69 -70,69l0 -139zm158 -163l-92 256 -132 -47 92 -255 66 -46 66 92zm-132 -46c13,-36 53,-55 89,-42 37,13 56,52 43,88l-132 -46z"/>
   </g>
   <path class="fil16 str14" d="M11033 6102l361 445 102 -146 -52 -143 -275 -364 -136 208z"/>
   <path class="fil5 str13" d="M10765 7415l0 711m2340 -1220l-466 0 0 1220"/>
   <path class="fil5 str14" d="M11632 7537l0 589"/>
   <path class="fil22 str13" d="M11632 5862c206,1 929,-291 929,-776l0 -554c-123,-292 -38,-477 -189,-639 -147,63 -306,57 -473,4 -164,354 -776,200 -1006,-4 -151,162 -66,347 -189,639l0 554c0,485 722,777 928,776z"/>
   <path class="fil22 str13" d="M11821 6258l125 -165 0 -316c-130,56 -248,85 -314,85 -65,0 -183,-29 -313,-85l0 316 125 165 377 0z"/>
   <path class="fil23 str13" d="M11632 3076c-53,-10 -107,-15 -163,-15l0 0c-505,0 -919,413 -919,918l0 618c38,-40 93,-65 154,-65 123,-292 38,-477 189,-639 225,195 842,358 1006,4 167,53 326,59 473,-4 151,162 66,347 189,639 61,0 116,25 153,65l0 -618c0,-505 -413,-918 -918,-918l0 0c-56,0 -111,5 -164,15zm-1065 1789c26,135 81,259 159,366 -14,-46 -22,-95 -22,-145l0 -171c-53,0 -101,-19 -137,-50zm1994 50l0 171c0,50 -8,99 -22,145 78,-107 133,-231 159,-366 -36,31 -84,50 -137,50z"/>
   <path class="fil4 str13" d="M11319 5870l0 223 -151 -199 151 -24z"/>
   <path class="fil4 str13" d="M11946 5870l0 223 150 -199 -150 -24z"/>
   <path class="fil5 str13" d="M10893 3893c-88,-80 -146,-176 -163,-260 268,-35 317,-194 524,-227"/>
   <path class="fil4 str13" d="M11833 7447l535 0 0 308 -535 0 0 -308z"/>
   <path class="fil17 str13" d="M12061 4615c-36,0 -64,29 -64,65 0,35 28,64 64,64 36,0 65,-29 65,-64 0,-36 -29,-65 -65,-65zm-857 0c35,0 64,29 64,65 0,35 -29,64 -64,64 -36,0 -65,-29 -65,-64 0,-36 29,-65 65,-65z"/>
   <path class="fil22 str13" d="M10500 4723c0,-106 91,-191 204,-191l0 191 0 192c-113,0 -204,-86 -204,-192zm2265 0c0,-106 -92,-191 -204,-191l0 191 0 192c112,0 204,-86 204,-192z"/>
   <path class="fil16 str14" d="M12232 6102l-361 445 -102 -146 52 -143 275 -364 136 208z"/>
   <path class="fil4 str13" d="M11772 5508c-34,39 -92,65 -158,65 -105,0 -190,-66 -190,-146 0,-30 11,-57 30,-80 77,80 189,138 318,161z"/>
   <path class="fil23 str13" d="M11282 5226c231,-127 457,-111 680,0 0,30 0,60 0,90 0,72 0,11 0,83 -226,0 -453,0 -680,0 0,-102 0,-71 0,-173z"/>
   <path class="fil22 str2" d="M9668 8126l928 0c0,-45 0,-107 0,-149 0,-210 -96,-325 -237,-364 -87,-23 -226,-23 -307,26 -58,35 -105,95 -104,141 -95,-117 -283,-9 -283,190 0,27 3,106 3,156z"/>
   <path class="fil5 str13" d="M9976 7828l-332 -1239"/>
   <path class="fil2" d="M7570 9649l-102 0 -312 -481 102 -66 312 481 -102 0 102 66zm0 0l-51 79 -51 -79 102 0zm261 -514l51 33 -312 481 -102 -66 312 -481 51 33zm-251 386l0 3 0 3 -1 3 0 3 -1 3 -1 2 -1 3 -1 2 -1 3 -2 2 -1 3 -2 2 -1 2 -2 2 -2 2 -2 2 -2 2 -2 2 -3 2 -2 1 -3 2 -2 1 -3 1 -2 2 -3 1 -3 0 -3 1 -3 1 -3 0 -3 1 -3 0 -3 0 -3 0 -3 0 -3 -1 -3 0 -3 -1 -3 -1 -3 0 -3 -1 -3 -2 -2 -1 -3 -1 -2 -2 -3 -1 -2 -2 -2 -2 -2 -2 -2 -2 -2 -2 -2 -2 -2 -2 -1 -2 -2 -3 -1 -2 -1 -3 -1 -2 -1 -3 -1 -2 -1 -3 0 -3 -1 -3 0 -3 0 -3 122 0zm-122 -711l122 0 0 711 -122 0 0 -711zm0 0l0 -3 0 -2 1 -3 0 -3 1 -3 1 -2 1 -3 1 -3 1 -2 1 -3 2 -2 1 -2 2 -3 2 -2 2 -2 2 -2 2 -2 2 -1 2 -2 3 -2 2 -1 3 -1 2 -2 3 -1 3 -1 3 -1 3 0 3 -1 3 -1 3 0 3 0 3 0 3 0 3 0 3 0 3 1 3 1 3 0 3 1 3 1 2 1 3 2 2 1 3 1 2 2 3 2 2 1 2 2 2 2 2 2 2 2 1 3 2 2 1 2 2 3 1 2 1 3 1 3 1 2 1 3 0 3 1 3 0 2 0 3 -122 0z"/>
   <path class="fil2" d="M4116 9649l-102 0 -312 -481 102 -66 312 481 -102 0 102 66zm0 0l-51 79 -51 -79 102 0zm261 -514l51 33 -312 481 -102 -66 312 -481 51 33zm-251 386l0 3 -1 3 0 3 -1 3 0 3 -1 2 -1 3 -1 2 -1 3 -2 2 -1 3 -2 2 -1 2 -2 2 -2 2 -2 2 -2 2 -2 2 -3 2 -2 1 -3 2 -2 1 -3 1 -3 2 -2 1 -3 0 -3 1 -3 1 -3 0 -3 1 -3 0 -3 0 -3 0 -3 0 -4 -1 -3 0 -2 -1 -3 -1 -3 0 -3 -1 -3 -2 -2 -1 -3 -1 -2 -2 -3 -1 -2 -2 -2 -2 -2 -2 -2 -2 -2 -2 -2 -2 -2 -2 -1 -2 -2 -3 -1 -2 -1 -3 -2 -2 0 -3 -1 -2 -1 -3 -1 -3 0 -3 0 -3 0 -3 122 0zm-122 -711l122 0 0 711 -122 0 0 -711zm0 0l0 -3 0 -2 0 -3 1 -3 1 -3 1 -2 0 -3 2 -3 1 -2 1 -3 2 -2 1 -2 2 -3 2 -2 2 -2 2 -2 2 -2 2 -1 2 -2 3 -2 2 -1 3 -1 2 -2 3 -1 3 -1 3 -1 3 0 2 -1 3 -1 4 0 3 0 3 0 3 0 3 0 3 0 3 1 3 1 3 0 3 1 2 1 3 1 3 2 2 1 3 1 2 2 3 2 2 1 2 2 2 2 2 2 2 2 1 3 2 2 1 2 2 3 1 2 1 3 1 3 1 2 0 3 1 3 0 3 1 2 0 3 -122 0z"/>
   <path class="fil2" d="M11024 9649l-102 0 -312 -481 102 -66 312 481 -102 0 102 66zm0 0l-51 79 -51 -79 102 0zm261 -514l51 33 -312 481 -102 -66 312 -481 51 33zm-251 386l0 3 0 3 -1 3 0 3 -1 3 -1 2 -1 3 -1 2 -1 3 -1 2 -2 3 -1 2 -2 2 -2 2 -2 2 -2 2 -2 2 -2 2 -3 2 -2 1 -2 2 -3 1 -3 1 -2 2 -3 1 -3 0 -3 1 -3 1 -3 0 -3 1 -3 0 -3 0 -3 0 -3 0 -3 -1 -3 0 -3 -1 -3 -1 -3 0 -3 -1 -2 -2 -3 -1 -3 -1 -2 -2 -3 -1 -2 -2 -2 -2 -2 -2 -2 -2 -2 -2 -2 -2 -2 -2 -1 -2 -2 -3 -1 -2 -1 -3 -1 -2 -1 -3 -1 -2 -1 -3 0 -3 -1 -3 0 -3 0 -3 122 0zm-122 -711l122 0 0 711 -122 0 0 -711zm0 0l0 -3 0 -2 1 -3 0 -3 1 -3 1 -2 1 -3 1 -3 1 -2 1 -3 2 -2 1 -2 2 -3 2 -2 2 -2 2 -2 2 -2 2 -1 2 -2 3 -2 2 -1 3 -1 3 -2 2 -1 3 -1 3 -1 3 0 3 -1 3 -1 3 0 3 0 3 0 3 0 3 0 3 0 3 1 3 1 3 0 3 1 3 1 2 1 3 2 3 1 2 1 2 2 3 2 2 1 2 2 2 2 2 2 2 2 2 3 1 2 2 2 1 3 1 2 1 3 1 3 1 2 1 3 0 3 1 3 0 2 0 3 -122 0z"/>
   <path class="fil2" d="M14478 9649l-102 0 -312 -481 102 -66 312 481 -102 0 102 66zm0 0l-51 79 -51 -79 102 0zm261 -514l51 33 -312 481 -102 -66 312 -481 51 33zm-251 386l0 3 0 3 -1 3 0 3 -1 3 -1 2 -1 3 -1 2 -1 3 -1 2 -2 3 -1 2 -2 2 -2 2 -2 2 -2 2 -2 2 -2 2 -2 2 -3 1 -2 2 -3 1 -2 1 -3 2 -3 1 -3 0 -3 1 -3 1 -3 0 -3 1 -3 0 -3 0 -3 0 -3 0 -3 -1 -3 0 -3 -1 -3 -1 -3 0 -3 -1 -2 -2 -3 -1 -3 -1 -2 -2 -2 -1 -3 -2 -2 -2 -2 -2 -2 -2 -2 -2 -2 -2 -1 -2 -2 -2 -2 -3 -1 -2 -1 -3 -1 -2 -1 -3 -1 -2 -1 -3 0 -3 -1 -3 0 -3 0 -3 122 0zm-122 -711l122 0 0 711 -122 0 0 -711zm0 0l0 -3 0 -2 1 -3 0 -3 1 -3 1 -2 1 -3 1 -3 1 -2 1 -3 2 -2 2 -2 1 -3 2 -2 2 -2 2 -2 2 -2 2 -1 3 -2 2 -2 2 -1 3 -1 3 -2 2 -1 3 -1 3 -1 3 0 3 -1 3 -1 3 0 3 0 3 0 3 0 3 0 3 0 3 1 3 1 3 0 3 1 3 1 3 1 2 2 3 1 2 1 3 2 2 2 2 1 2 2 2 2 2 2 2 2 2 3 1 2 2 2 1 3 1 2 1 3 1 3 1 2 1 3 0 3 1 3 0 2 0 3 -122 0z"/>
   <path class="fil2" d="M9460 16302l-103 0 -312 -481 103 -67 312 481 -103 0 103 67zm0 0l-52 79 -51 -79 103 0zm261 -515l51 34 -312 481 -103 -67 313 -481 51 33zm-252 387l0 3 0 3 0 3 -1 2 0 3 -1 3 -1 2 -1 3 -2 3 -1 2 -1 2 -2 3 -2 2 -1 2 -2 2 -2 2 -2 2 -3 2 -2 1 -2 2 -3 1 -2 2 -3 1 -3 1 -3 1 -2 1 -3 1 -3 0 -3 1 -3 0 -3 1 -3 0 -4 0 -3 -1 -3 0 -3 -1 -3 0 -3 -1 -2 -1 -3 -1 -3 -1 -3 -1 -2 -2 -3 -1 -2 -2 -2 -1 -2 -2 -3 -2 -2 -2 -2 -2 -1 -2 -2 -2 -2 -3 -1 -2 -1 -2 -2 -3 -1 -3 -1 -2 -1 -3 0 -3 -1 -2 0 -3 0 -3 0 -3 121 0zm-121 -711l121 0 0 711 -121 0 0 -711zm0 0l0 -3 0 -3 0 -3 1 -2 0 -3 1 -3 1 -3 1 -2 2 -3 1 -2 1 -2 2 -3 2 -2 1 -2 2 -2 2 -2 3 -2 2 -2 2 -1 2 -2 3 -1 2 -2 3 -1 3 -1 3 -1 2 -1 3 -1 3 -1 3 0 3 0 3 -1 4 0 3 0 3 1 3 0 3 0 3 1 3 1 2 1 3 1 3 1 3 1 2 2 3 1 2 2 2 1 3 2 2 2 2 2 2 2 1 2 2 2 2 3 1 2 1 2 2 3 1 2 1 3 1 3 0 3 1 2 0 3 0 3 0 3 -121 0z"/>
   <path class="fil7 str15" d="M13805 16868c-205,-2 -370,-171 -368,-376 3,-206 171,-370 377,-368 205,2 370,171 368,376 -2,153 -95,283 -228,339l-2163 971 27 50 1223 -482"/>
   <path class="fil7 str16" d="M13805 17364c-205,3 -370,171 -368,377 3,205 171,370 377,368 205,-3 370,-171 368,-377 -2,-152 -95,-282 -228,-338l-2163 -972 27 -49 1223 482"/>
   <path class="fil4 str17" d="M16949 2220l0 5906 -3969 0c0,-147 0,-219 0,-512l0 -5394 3969 0z"/>
   <path class="fil24" d="M12980 2220l3969 0 0 2224 -3953 -1870c-16,-139 -16,-263 -16,-354z"/>
   <path class="fil1" d="M13526 4076c0,-33 -15,-54 -44,-64 20,-12 30,-27 30,-52l0 -14c0,-46 -26,-69 -77,-69l-48 0c-14,0 -20,9 -20,19l0 248c0,10 6,18 20,18l61 0c52,0 78,-27 78,-73l0 -13zm-120 -41l42 0c28,0 39,16 39,41l0 13c0,25 -11,37 -39,37l-42 0 0 -91zm0 -36l0 -86 29 0c27,0 39,8 39,33l0 14c0,24 -12,39 -39,39l-29 0zm229 133c-28,0 -32,-16 -32,-41l0 -69c0,-25 4,-41 32,-41l9 0c27,0 32,16 32,41l0 69c0,25 -5,41 -32,41l-9 0zm9 35c51,0 69,-31 69,-76l0 -69c0,-44 -18,-76 -69,-76l-9 0c-51,0 -69,32 -69,76l0 69c0,45 18,76 69,76l9 0zm211 -118c9,-2 32,-13 32,-44 0,-42 -22,-59 -66,-59 -46,0 -63,11 -63,49 0,11 6,19 19,19 13,0 17,-8 17,-18 0,-11 11,-15 27,-15 18,0 31,6 31,30 0,17 -16,24 -34,24 -12,0 -15,8 -15,16 0,8 3,16 16,16 27,0 36,12 36,36 0,18 -13,28 -32,28l-5 0c-15,0 -29,-4 -29,-15 0,-9 -5,-17 -18,-17 -13,0 -19,8 -19,19 0,35 25,49 65,49l6 0c52,0 69,-30 69,-65 0,-39 -23,-49 -37,-53zm188 1c16,-7 25,-19 25,-39l0 -13c0,-40 -27,-48 -60,-48l-50 0c-13,0 -18,8 -18,18l0 177c0,9 5,17 18,17l57 0c38,0 60,-15 60,-53l0 -13c0,-25 -14,-40 -32,-46zm-67 -65l28 0c17,0 28,5 28,18l0 8c0,13 -9,25 -26,25l-30 0 0 -51zm62 124c0,13 -6,19 -23,19l-39 0 0 -60 36 0c16,0 26,9 26,22l0 19zm104 -159c-13,0 -19,9 -19,19l0 277c0,10 5,19 18,19 13,0 19,-9 19,-19l0 -84 29 0c51,0 75,-32 75,-77l0 -63c0,-45 -23,-72 -74,-72l-48 0zm18 177l0 -142 30 0c28,0 37,13 37,37l0 63c0,26 -11,42 -38,42l-29 0zm187 -177c-10,0 -18,6 -18,18 0,12 8,17 18,17l34 0c17,0 27,6 27,26l0 10 -39 0c-37,0 -59,15 -59,53l0 35c0,38 22,53 59,53l57 0c13,0 19,-8 19,-17l0 -134c0,-37 -23,-61 -64,-61l-34 0zm22 178c-17,0 -23,-6 -23,-19l0 -34c0,-13 6,-20 23,-20l39 0 0 73 -39 0zm368 17c0,-13 -9,-18 -17,-18l-14 0 0 -162c0,-10 -5,-18 -18,-18 -12,0 -18,8 -18,18l0 162 -50 0 0 -162c0,-10 -5,-18 -17,-18 -13,0 -18,8 -18,18l0 162 -50 0 0 -162c0,-10 -5,-18 -18,-18 -12,0 -18,8 -18,18l0 179c0,10 6,18 18,18 0,0 153,0 157,0 5,0 10,0 14,-1l-22 39c-5,8 -4,18 7,25 11,6 20,1 25,-7l37 -64 0 0c1,-3 2,-6 2,-9zm175 -127c0,-45 -16,-72 -67,-72l-6 0c-51,0 -71,27 -71,72l0 67c0,45 22,77 73,77l37 0c10,0 18,-5 18,-17 0,-12 -8,-18 -18,-18l-37 0c-28,0 -36,-16 -36,-42l0 -12 89 0c10,0 18,-6 18,-18l0 -37zm-107 20l0 -20c0,-24 7,-38 34,-38l6 0c27,0 30,14 30,38l0 20 -70 0zm285 -92c-14,0 -19,9 -19,19l0 68 -74 0 0 -68c0,-10 -5,-19 -18,-19 -14,0 -19,9 -19,19l0 183c0,10 5,19 18,19 14,0 19,-9 19,-19l0 -81 74 0 0 81c0,10 5,19 18,19 14,0 19,-9 19,-19l0 -183c0,-10 -5,-19 -18,-19zm139 186c-27,0 -32,-16 -32,-41l0 -69c0,-25 5,-41 32,-41l9 0c28,0 33,16 33,41l0 69c0,25 -5,41 -33,41l-9 0zm9 35c51,0 69,-31 69,-76l0 -69c0,-44 -18,-76 -69,-76l-9 0c-51,0 -69,32 -69,76l0 69c0,45 18,76 69,76l9 0zm1217 -220c-13,0 -18,8 -18,18l0 162 -50 0 0 -162c0,-10 -5,-18 -18,-18 -13,0 -18,8 -18,18l0 162 -50 0 0 -162c0,-10 -5,-18 -18,-18 -12,0 -17,8 -17,18l0 179c0,10 5,18 18,18l170 0c13,0 19,-8 19,-18l0 -179c0,-10 -6,-18 -18,-18zm183 3l-109 0c-9,0 -17,5 -17,18 0,13 8,17 17,17l36 0 0 163c0,10 5,19 18,19 14,0 19,-9 19,-19l0 -163 36 0c9,0 18,-4 18,-17 0,-13 -9,-18 -18,-18z"/>
   <path class="fil2 str18" d="M15706 4142c0,14 6,26 26,26 19,0 25,-12 25,-26l0 -92 29 0c14,0 26,-7 26,-25 0,-18 -12,-26 -26,-26l-29 0 0 -109c0,-15 -6,-27 -25,-27 -20,0 -26,12 -26,27l0 109 -123 0c28,-64 52,-144 64,-214 2,-13 1,-28 -17,-32 -17,-5 -29,4 -32,18 -17,91 -44,167 -73,235 -3,7 -3,13 -3,19 0,18 11,25 25,25l159 0 0 92zm395 -99c0,-47 -19,-83 -61,-96 27,-15 42,-40 42,-77l0 -7c0,-65 -37,-101 -110,-101l-30 0c-58,0 -94,25 -94,84 0,15 7,27 26,27 20,0 27,-12 27,-27 0,-23 16,-33 41,-33l30 0c40,0 57,15 57,50l0 7c0,36 -21,61 -62,61l-32 0c-14,0 -25,7 -25,25 0,18 11,25 25,25l58 0c40,0 55,26 55,62l0 18c0,36 -17,56 -57,56l-60 0c-25,0 -41,-10 -41,-34 0,-14 -8,-26 -27,-26 -19,0 -27,12 -27,26 0,60 37,85 95,85l60 0c74,0 110,-42 110,-107l0 -18z"/>
   <path class="fil1 str19" d="M13483 3183l93 0c39,0 54,25 54,60l0 12c0,34 -15,53 -54,53l-93 0 0 -125zm0 -50l0 -118 69 0c38,0 54,13 54,47l0 14c0,33 -16,57 -54,57l-69 0zm200 110c0,-47 -21,-80 -62,-93 24,-15 38,-40 38,-74l0 -14c0,-63 -36,-98 -107,-98l-95 0c-19,0 -27,12 -27,26l0 343c0,13 8,26 27,26l119 0c72,0 107,-41 107,-104l0 -12zm277 116c13,0 25,-7 25,-25 0,-17 -12,-26 -25,-26l-155 0 0 -127 128 0c13,0 25,-7 25,-25 0,-17 -12,-26 -25,-26l-128 0 0 -115 155 0c13,0 25,-8 25,-26 0,-17 -12,-25 -25,-25l-182 0c-18,0 -26,12 -26,26l0 343c0,13 8,26 26,26l182 0zm346 -51l-11 0 0 -318c0,-14 -8,-26 -26,-26l-136 0c-18,0 -26,12 -28,26l-51 318 -17 0c-18,0 -26,13 -26,26l0 73c0,13 8,26 26,26 19,0 27,-13 27,-26l0 -48 215 0 0 48c0,13 8,26 27,26 18,0 26,-13 26,-26l0 -73c0,-13 -8,-26 -26,-26l0 0zm-194 -39l40 -254 90 0 0 293 -138 0c4,-14 7,-26 8,-39l0 0zm325 -198c0,-35 16,-62 55,-62l45 0c39,0 54,27 54,62l0 181c0,35 -15,62 -54,62l-45 0c-39,0 -55,-27 -55,-62l0 -181zm207 0c0,-62 -36,-113 -107,-113l-45 0c-72,0 -108,51 -108,113l0 181c0,62 36,113 108,113l45 0c71,0 107,-51 107,-113l0 -181zm234 112c-3,-11 -8,-22 -13,-32l-88 -174c-8,-15 -15,-19 -27,-19 -18,0 -26,13 -26,26l0 355c0,13 8,26 26,26 19,0 26,-13 26,-26l0 -218c0,-16 -1,-29 -2,-39l0 0 81 157c4,8 10,14 23,14 14,0 19,-6 23,-14l81 -157 1 0c-1,10 -3,23 -3,39l0 218c0,13 8,26 26,26 19,0 26,-13 26,-26l0 -355c0,-13 -7,-26 -26,-26 -11,0 -18,4 -26,19l-88 174c-6,10 -10,21 -14,32zm288 -112c0,-35 15,-62 54,-62l45 0c39,0 54,27 54,62l0 181c0,35 -15,62 -54,62l-45 0c-39,0 -54,-27 -54,-62l0 -181zm206 0c0,-62 -35,-113 -107,-113l-45 0c-72,0 -107,51 -107,113l0 181c0,62 35,113 107,113l45 0c72,0 107,-51 107,-113l0 -181zm182 243c-39,0 -54,-27 -54,-62l0 -181c0,-35 15,-62 54,-62l58 0c24,0 37,10 39,33 1,14 8,26 26,26 19,0 27,-12 27,-26 0,-58 -35,-84 -92,-84l-58 0c-72,0 -107,51 -107,113l0 181c0,62 35,113 107,113l58 0c57,0 92,-26 92,-85 0,-13 -8,-26 -27,-26 -18,0 -25,13 -26,26 -2,24 -15,34 -39,34l-58 0zm314 51c19,0 27,-13 27,-26l0 -324 82 0c13,0 25,-8 25,-26 0,-17 -12,-25 -25,-25l-218 0c-13,0 -24,8 -24,25 0,18 11,26 24,26l83 0 0 324c0,13 8,26 26,26zm326 -248l-89 0 0 -133c0,-13 -8,-26 -27,-26 -18,0 -26,13 -26,26l0 349c0,13 8,26 27,26l115 0c73,0 108,-48 108,-110l0 -25c0,-63 -33,-107 -108,-107zm55 138c0,34 -15,53 -54,53l-90 0 0 -140 89 0c39,0 55,19 55,53l0 34z"/>
   <path class="fil7 str17" d="M16949 8126l0 -5906 -3969 0 0 0 0 5906 3969 0z"/>
   <path class="fil1 str20" d="M13454 7363c0,11 6,22 22,22 16,0 22,-11 22,-22l0 -307c0,-11 -6,-22 -23,-22 -9,0 -16,3 -23,16l-130 233 -1 0c1,-9 2,-21 2,-34l0 -193c0,-11 -6,-22 -22,-22 -16,0 -22,11 -22,22l0 307c0,11 6,22 23,22 9,0 16,-3 23,-17l130 -232 1 0c-1,9 -2,21 -2,34l0 193zm203 22c16,0 23,-11 23,-22l0 -280 71 0c11,0 21,-7 21,-22 0,-15 -10,-22 -21,-22l-188 0c-11,0 -22,7 -22,22 0,15 11,22 22,22l71 0 0 280c0,11 7,22 23,22zm199 -254c0,-30 13,-53 47,-53l39 0c34,0 47,23 47,53l0 156c0,31 -13,54 -47,54l-39 0c-34,0 -47,-23 -47,-54l0 -156zm179 0c0,-53 -31,-97 -93,-97l-39 0c-62,0 -93,44 -93,97l0 156c0,54 31,98 93,98l39 0c62,0 93,-44 93,-98l0 -156zm94 -92c-18,0 -25,11 -25,22l0 302c0,11 7,22 23,22 16,0 23,-11 23,-22l0 -280 131 0c11,0 21,-7 21,-22 0,-15 -10,-22 -19,-22l-154 0zm257 92c0,-30 13,-53 47,-53l39 0c34,0 47,23 47,53l0 156c0,31 -13,54 -47,54l-39 0c-34,0 -47,-23 -47,-54l0 -156zm179 0c0,-53 -31,-97 -93,-97l-39 0c-62,0 -93,44 -93,97l0 156c0,54 31,98 93,98l39 0c62,0 93,-44 93,-98l0 -156zm242 42c0,-14 -7,-26 -26,-26 -20,0 -27,12 -27,26l0 5c0,14 7,27 27,27 19,0 26,-13 26,-27l0 -5zm0 181c0,-14 -7,-27 -26,-27 -20,0 -27,13 -27,27l0 5c0,14 7,26 27,26 19,0 26,-12 26,-26l0 -5zm1628 -232c-16,0 -22,10 -22,22l0 194 -74 0 0 -194c0,-12 -6,-22 -22,-22 -16,0 -22,10 -22,22l0 194 -74 0 0 -194c0,-12 -6,-22 -22,-22 -16,0 -22,10 -22,22l0 214c0,12 6,22 22,22l236 0c15,0 22,-10 22,-22l0 -214c0,-12 -6,-22 -22,-22zm253 5l-161 0c-11,0 -22,4 -22,20 0,15 11,21 22,21l59 0 0 195c0,11 6,22 22,22 15,0 22,-11 22,-22l0 -195 58 0c11,0 22,-6 22,-21 0,-16 -11,-20 -22,-20z"/>
   <path class="fil2 str21" d="M15111 6924c-11,0 -18,5 -24,11 -33,36 -70,71 -108,107 -12,11 -17,25 -1,41 15,15 29,9 41,-1 24,-20 48,-45 69,-70l0 324 -83 0c-17,0 -30,9 -30,30 0,22 13,30 30,30l215 0c17,0 30,-8 30,-30 0,-21 -13,-30 -30,-30l-69 0 0 -381c0,-17 -6,-31 -29,-31l-11 0zm305 448c0,17 9,31 31,31 23,0 32,-14 32,-31l0 -57c0,-94 18,-152 65,-227l69 -111c17,-26 5,-46 -25,-46l-248 0c-17,0 -30,8 -30,30 0,21 13,29 30,29l195 0 -42 66c-60,91 -77,152 -77,259l0 57zm415 -445c-106,63 -139,147 -139,252l0 98c0,77 43,126 129,126l39 0c86,0 130,-46 130,-122l0 -34c0,-76 -44,-129 -130,-129l-101 0c9,-54 40,-98 106,-139 14,-8 25,-25 12,-44 -12,-19 -31,-18 -46,-8zm-10 416c-47,0 -67,-24 -67,-66l0 -99 106 0c47,0 67,27 67,69l0 34c0,42 -20,62 -67,62l-39 0z"/>
   <path class="fil1" d="M13526 4784c0,-33 -15,-54 -44,-64 20,-12 30,-28 30,-53l0 -14c0,-45 -26,-69 -77,-69l-48 0c-14,0 -20,9 -20,19l0 248c0,10 6,19 20,19l61 0c52,0 78,-27 78,-73l0 -13zm-120 -41l42 0c28,0 39,16 39,41l0 13c0,25 -11,36 -39,36l-42 0 0 -90zm0 -36l0 -86 29 0c27,0 39,8 39,32l0 14c0,25 -12,40 -39,40l-29 0zm229 133c-28,0 -32,-16 -32,-42l0 -68c0,-25 4,-41 32,-41l9 0c27,0 32,16 32,41l0 68c0,26 -5,42 -32,42l-9 0zm9 35c51,0 69,-32 69,-77l0 -68c0,-45 -18,-76 -69,-76l-9 0c-51,0 -69,31 -69,76l0 68c0,45 18,77 69,77l9 0zm211 -118c9,-3 32,-13 32,-44 0,-42 -22,-59 -66,-59 -46,0 -63,11 -63,49 0,10 6,19 19,19 13,0 17,-8 17,-18 0,-12 11,-15 27,-15 18,0 31,5 31,30 0,17 -16,23 -34,23 -12,0 -15,9 -15,16 0,8 3,17 16,17 27,0 36,12 36,36 0,18 -13,28 -32,28l-5 0c-15,0 -29,-4 -29,-15 0,-10 -5,-18 -18,-18 -13,0 -19,9 -19,19 0,35 25,49 65,49l6 0c52,0 69,-30 69,-64 0,-39 -23,-50 -37,-53zm188 0c16,-6 25,-18 25,-38l0 -14c0,-39 -27,-47 -60,-47l-50 0c-13,0 -18,8 -18,18l0 176c0,10 5,18 18,18l57 0c38,0 60,-15 60,-53l0 -13c0,-25 -14,-40 -32,-47zm-67 -65l28 0c17,0 28,5 28,19l0 8c0,13 -9,25 -26,25l-30 0 0 -52zm62 125c0,12 -6,19 -23,19l-39 0 0 -61 36 0c16,0 26,10 26,23l0 19zm104 -159c-13,0 -19,9 -19,19l0 276c0,11 5,19 18,19 13,0 19,-8 19,-19l0 -83 29 0c51,0 75,-32 75,-78l0 -62c0,-46 -23,-72 -74,-72l-48 0zm18 177l0 -142 30 0c28,0 37,13 37,37l0 62c0,26 -11,43 -38,43l-29 0zm187 -177c-10,0 -18,5 -18,17 0,13 8,18 18,18l34 0c17,0 27,6 27,26l0 9 -39 0c-37,0 -59,16 -59,54l0 35c0,38 22,53 59,53l57 0c13,0 19,-8 19,-18l0 -133c0,-37 -23,-61 -64,-61l-34 0zm22 178c-17,0 -23,-7 -23,-19l0 -35c0,-13 6,-19 23,-19l39 0 0 73 -39 0zm368 17c0,-13 -9,-18 -17,-18l-14 0 0 -162c0,-10 -5,-19 -18,-19 -12,0 -18,9 -18,19l0 162 -50 0 0 -162c0,-10 -5,-19 -17,-19 -13,0 -18,9 -18,19l0 162 -50 0 0 -162c0,-10 -5,-19 -18,-19 -12,0 -18,9 -18,19l0 178c0,10 6,19 18,19 0,0 153,0 157,0 5,0 10,-1 14,-1l-22 39c-5,8 -4,18 7,25 11,6 20,0 25,-8l37 -64 0 0c1,-2 2,-5 2,-8zm175 -127c0,-45 -16,-72 -67,-72l-6 0c-51,0 -71,27 -71,72l0 66c0,46 22,78 73,78l37 0c10,0 18,-5 18,-17 0,-13 -8,-18 -18,-18l-37 0c-28,0 -36,-17 -36,-43l0 -12 89 0c10,0 18,-5 18,-18l0 -36zm-107 20l0 -20c0,-24 7,-38 34,-38l6 0c27,0 30,14 30,38l0 20 -70 0zm285 -92c-14,0 -19,9 -19,19l0 68 -74 0 0 -68c0,-10 -5,-19 -18,-19 -14,0 -19,9 -19,19l0 182c0,10 5,19 18,19 14,0 19,-9 19,-19l0 -80 74 0 0 80c0,10 5,19 18,19 14,0 19,-9 19,-19l0 -182c0,-10 -5,-19 -18,-19zm139 186c-27,0 -32,-16 -32,-42l0 -68c0,-25 5,-41 32,-41l9 0c28,0 33,16 33,41l0 68c0,26 -5,42 -33,42l-9 0zm9 35c51,0 69,-32 69,-77l0 -68c0,-45 -18,-76 -69,-76l-9 0c-51,0 -69,31 -69,76l0 68c0,45 18,77 69,77l9 0zm1217 -221c-13,0 -18,9 -18,19l0 162 -50 0 0 -162c0,-10 -5,-19 -18,-19 -13,0 -18,9 -18,19l0 162 -50 0 0 -162c0,-10 -5,-19 -18,-19 -12,0 -17,9 -17,19l0 178c0,10 5,19 18,19l170 0c13,0 19,-9 19,-19l0 -178c0,-10 -6,-19 -18,-19zm183 4l-109 0c-9,0 -17,5 -17,18 0,12 8,17 17,17l36 0 0 162c0,10 5,19 18,19 14,0 19,-9 19,-19l0 -162 36 0c9,0 18,-5 18,-17 0,-13 -9,-18 -18,-18z"/>
   <path class="fil2 str18" d="M15706 4849c0,15 6,27 26,27 19,0 25,-12 25,-27l0 -91 29 0c14,0 26,-8 26,-26 0,-18 -12,-25 -26,-25l-29 0 0 -109c0,-15 -6,-27 -25,-27 -20,0 -26,12 -26,27l0 109 -123 0c28,-64 52,-144 64,-214 2,-13 1,-28 -17,-33 -17,-4 -29,4 -32,19 -17,90 -44,167 -73,234 -3,8 -3,14 -3,20 0,18 11,25 25,25l159 0 0 91zm270 25c90,-54 118,-126 118,-214l0 -84c0,-65 -36,-107 -110,-107l-32 0c-74,0 -110,39 -110,104l0 28c0,65 36,110 110,110l85 0c-7,46 -33,84 -90,118 -12,7 -21,21 -10,38 10,16 26,14 39,7zm8 -354c40,0 57,20 57,56l0 84 -89 0c-40,0 -57,-22 -57,-59l0 -28c0,-35 17,-53 57,-53l32 0z"/>
   <path class="fil1" d="M13526 5492c0,-33 -15,-55 -44,-64 20,-12 30,-28 30,-53l0 -14c0,-46 -26,-69 -77,-69l-48 0c-14,0 -20,9 -20,19l0 248c0,10 6,19 20,19l61 0c52,0 78,-28 78,-73l0 -13zm-120 -42l42 0c28,0 39,17 39,42l0 13c0,24 -11,36 -39,36l-42 0 0 -91zm0 -35l0 -86 29 0c27,0 39,8 39,32l0 14c0,24 -12,40 -39,40l-29 0zm229 132c-28,0 -32,-16 -32,-41l0 -68c0,-26 4,-41 32,-41l9 0c27,0 32,15 32,41l0 68c0,25 -5,41 -32,41l-9 0zm9 35c51,0 69,-31 69,-76l0 -68c0,-45 -18,-77 -69,-77l-9 0c-51,0 -69,32 -69,77l0 68c0,45 18,76 69,76l9 0zm211 -118c9,-2 32,-12 32,-44 0,-41 -22,-59 -66,-59 -46,0 -63,11 -63,49 0,11 6,19 19,19 13,0 17,-8 17,-18 0,-11 11,-14 27,-14 18,0 31,5 31,29 0,18 -16,24 -34,24 -12,0 -15,9 -15,16 0,8 3,16 16,16 27,0 36,13 36,36 0,18 -13,29 -32,29l-5 0c-15,0 -29,-4 -29,-15 0,-10 -5,-18 -18,-18 -13,0 -19,8 -19,19 0,35 25,49 65,49l6 0c52,0 69,-30 69,-64 0,-39 -23,-50 -37,-54zm188 1c16,-6 25,-19 25,-38l0 -14c0,-40 -27,-47 -60,-47l-50 0c-13,0 -18,8 -18,17l0 177c0,10 5,18 18,18l57 0c38,0 60,-16 60,-53l0 -14c0,-25 -14,-39 -32,-46zm-67 -65l28 0c17,0 28,5 28,19l0 7c0,13 -9,25 -26,25l-30 0 0 -51zm62 125c0,12 -6,19 -23,19l-39 0 0 -61 36 0c16,0 26,9 26,23l0 19zm104 -159c-13,0 -19,9 -19,18l0 277c0,10 5,19 18,19 13,0 19,-9 19,-19l0 -83 29 0c51,0 75,-32 75,-78l0 -62c0,-46 -23,-72 -74,-72l-48 0zm18 177l0 -142 30 0c28,0 37,12 37,37l0 62c0,26 -11,43 -38,43l-29 0zm187 -177c-10,0 -18,5 -18,17 0,12 8,18 18,18l34 0c17,0 27,5 27,26l0 9 -39 0c-37,0 -59,16 -59,53l0 36c0,37 22,53 59,53l57 0c13,0 19,-8 19,-18l0 -134c0,-37 -23,-60 -64,-60l-34 0zm22 178c-17,0 -23,-7 -23,-19l0 -35c0,-13 6,-20 23,-20l39 0 0 74 -39 0zm368 16c0,-12 -9,-17 -17,-17l-14 0 0 -162c0,-11 -5,-19 -18,-19 -12,0 -18,8 -18,19l0 162 -50 0 0 -162c0,-11 -5,-19 -17,-19 -13,0 -18,8 -18,19l0 162 -50 0 0 -162c0,-11 -5,-19 -18,-19 -12,0 -18,8 -18,19l0 178c0,10 6,19 18,19 0,0 153,0 157,0 5,0 10,-1 14,-1l-22 38c-5,9 -4,19 7,25 11,6 20,1 25,-7l37 -64 0 0c1,-3 2,-5 2,-9zm175 -126c0,-45 -16,-73 -67,-73l-6 0c-51,0 -71,28 -71,73l0 66c0,46 22,78 73,78l37 0c10,0 18,-5 18,-18 0,-12 -8,-17 -18,-17l-37 0c-28,0 -36,-17 -36,-43l0 -12 89 0c10,0 18,-6 18,-18l0 -36zm-107 20l0 -20c0,-24 7,-38 34,-38l6 0c27,0 30,14 30,38l0 20 -70 0zm285 -93c-14,0 -19,9 -19,19l0 68 -74 0 0 -68c0,-10 -5,-19 -18,-19 -14,0 -19,9 -19,19l0 183c0,10 5,19 18,19 14,0 19,-9 19,-19l0 -80 74 0 0 80c0,10 5,19 18,19 14,0 19,-9 19,-19l0 -183c0,-10 -5,-19 -18,-19zm139 186c-27,0 -32,-16 -32,-41l0 -68c0,-26 5,-41 32,-41l9 0c28,0 33,15 33,41l0 68c0,25 -5,41 -33,41l-9 0zm9 35c51,0 69,-31 69,-76l0 -68c0,-45 -18,-77 -69,-77l-9 0c-51,0 -69,32 -69,77l0 68c0,45 18,76 69,76l9 0zm1217 -220c-13,0 -18,8 -18,19l0 162 -50 0 0 -162c0,-11 -5,-19 -18,-19 -13,0 -18,8 -18,19l0 162 -50 0 0 -162c0,-11 -5,-19 -18,-19 -12,0 -17,8 -17,19l0 178c0,10 5,19 18,19l170 0c13,0 19,-9 19,-19l0 -178c0,-11 -6,-19 -18,-19zm183 4l-109 0c-9,0 -17,4 -17,17 0,13 8,18 17,18l36 0 0 162c0,10 5,19 18,19 14,0 19,-9 19,-19l0 -162 36 0c9,0 18,-5 18,-18 0,-13 -9,-17 -18,-17z"/>
   <path class="fil2 str18" d="M15706 5557c0,15 6,26 26,26 19,0 25,-11 25,-26l0 -92 29 0c14,0 26,-7 26,-25 0,-18 -12,-25 -26,-25l-29 0 0 -110c0,-15 -6,-26 -25,-26 -20,0 -26,11 -26,26l0 110 -123 0c28,-65 52,-144 64,-214 2,-14 1,-28 -17,-33 -17,-5 -29,4 -32,19 -17,90 -44,167 -73,234 -3,8 -3,13 -3,20 0,18 11,24 25,24l159 0 0 92zm262 -378c-90,54 -119,126 -119,214l0 84c0,65 37,106 111,106l32 0c74,0 110,-38 110,-103l0 -29c0,-64 -36,-109 -110,-109l-86 0c8,-46 34,-84 91,-118 12,-7 21,-22 10,-38 -10,-16 -27,-15 -39,-7zm-8 354c-41,0 -57,-21 -57,-56l0 -84 89 0c40,0 57,22 57,58l0 29c0,35 -17,53 -57,53l-32 0z"/>
   <path class="fil1" d="M13526 6199c0,-33 -15,-54 -44,-64 20,-12 30,-28 30,-52l0 -14c0,-46 -26,-69 -77,-69l-48 0c-14,0 -20,9 -20,18l0 249c0,9 6,18 20,18l61 0c52,0 78,-27 78,-73l0 -13zm-120 -41l42 0c28,0 39,16 39,41l0 13c0,25 -11,37 -39,37l-42 0 0 -91zm0 -36l0 -86 29 0c27,0 39,8 39,33l0 14c0,24 -12,39 -39,39l-29 0zm229 133c-28,0 -32,-16 -32,-41l0 -69c0,-25 4,-41 32,-41l9 0c27,0 32,16 32,41l0 69c0,25 -5,41 -32,41l-9 0zm9 35c51,0 69,-31 69,-76l0 -69c0,-44 -18,-76 -69,-76l-9 0c-51,0 -69,32 -69,76l0 69c0,45 18,76 69,76l9 0zm211 -118c9,-2 32,-13 32,-44 0,-42 -22,-59 -66,-59 -46,0 -63,11 -63,49 0,11 6,19 19,19 13,0 17,-8 17,-18 0,-12 11,-15 27,-15 18,0 31,6 31,30 0,17 -16,24 -34,24 -12,0 -15,8 -15,16 0,8 3,16 16,16 27,0 36,12 36,36 0,18 -13,28 -32,28l-5 0c-15,0 -29,-4 -29,-15 0,-9 -5,-17 -18,-17 -13,0 -19,8 -19,19 0,35 25,49 65,49l6 0c52,0 69,-30 69,-65 0,-39 -23,-49 -37,-53zm188 1c16,-7 25,-19 25,-39l0 -13c0,-40 -27,-48 -60,-48l-50 0c-13,0 -18,8 -18,18l0 177c0,9 5,17 18,17l57 0c38,0 60,-15 60,-53l0 -13c0,-25 -14,-40 -32,-46zm-67 -66l28 0c17,0 28,6 28,19l0 8c0,13 -9,25 -26,25l-30 0 0 -52zm62 125c0,13 -6,19 -23,19l-39 0 0 -60 36 0c16,0 26,9 26,22l0 19zm104 -159c-13,0 -19,9 -19,19l0 277c0,10 5,19 18,19 13,0 19,-9 19,-19l0 -84 29 0c51,0 75,-32 75,-77l0 -63c0,-45 -23,-72 -74,-72l-48 0zm18 177l0 -142 30 0c28,0 37,13 37,37l0 63c0,26 -11,42 -38,42l-29 0zm187 -177c-10,0 -18,6 -18,18 0,12 8,17 18,17l34 0c17,0 27,6 27,26l0 10 -39 0c-37,0 -59,15 -59,53l0 35c0,38 22,53 59,53l57 0c13,0 19,-8 19,-17l0 -134c0,-37 -23,-61 -64,-61l-34 0zm22 178c-17,0 -23,-6 -23,-19l0 -34c0,-13 6,-20 23,-20l39 0 0 73 -39 0zm368 17c0,-13 -9,-18 -17,-18l-14 0 0 -162c0,-10 -5,-18 -18,-18 -12,0 -18,8 -18,18l0 162 -50 0 0 -162c0,-10 -5,-18 -17,-18 -13,0 -18,8 -18,18l0 162 -50 0 0 -162c0,-10 -5,-18 -18,-18 -12,0 -18,8 -18,18l0 179c0,9 6,18 18,18 0,0 153,0 157,0 5,0 10,0 14,-1l-22 39c-5,8 -4,18 7,25 11,6 20,1 25,-7l37 -65 0 0c1,-2 2,-5 2,-8zm175 -127c0,-45 -16,-72 -67,-72l-6 0c-51,0 -71,27 -71,72l0 67c0,45 22,77 73,77l37 0c10,0 18,-5 18,-17 0,-12 -8,-18 -18,-18l-37 0c-28,0 -36,-16 -36,-42l0 -12 89 0c10,0 18,-6 18,-18l0 -37zm-107 20l0 -20c0,-24 7,-38 34,-38l6 0c27,0 30,14 30,38l0 20 -70 0zm285 -92c-14,0 -19,9 -19,19l0 68 -74 0 0 -68c0,-10 -5,-19 -18,-19 -14,0 -19,9 -19,19l0 183c0,10 5,19 18,19 14,0 19,-9 19,-19l0 -81 74 0 0 81c0,10 5,19 18,19 14,0 19,-9 19,-19l0 -183c0,-10 -5,-19 -18,-19zm139 186c-27,0 -32,-16 -32,-41l0 -69c0,-25 5,-41 32,-41l9 0c28,0 33,16 33,41l0 69c0,25 -5,41 -33,41l-9 0zm9 35c51,0 69,-31 69,-76l0 -69c0,-44 -18,-76 -69,-76l-9 0c-51,0 -69,32 -69,76l0 69c0,45 18,76 69,76l9 0zm1217 -220c-13,0 -18,8 -18,18l0 162 -50 0 0 -162c0,-10 -5,-18 -18,-18 -13,0 -18,8 -18,18l0 162 -50 0 0 -162c0,-10 -5,-18 -18,-18 -12,0 -17,8 -17,18l0 179c0,9 5,18 18,18l170 0c13,0 19,-9 19,-18l0 -179c0,-10 -6,-18 -18,-18zm183 3l-109 0c-9,0 -17,5 -17,18 0,13 8,17 17,17l36 0 0 163c0,10 5,19 18,19 14,0 19,-9 19,-19l0 -163 36 0c9,0 18,-4 18,-17 0,-13 -9,-18 -18,-18z"/>
   <path class="fil2 str18" d="M15791 6166c0,-47 -19,-83 -61,-96 26,-15 42,-40 42,-77l0 -7c0,-65 -37,-101 -110,-101l-30 0c-59,0 -95,25 -95,84 0,15 8,27 27,27 19,0 26,-12 26,-27 0,-23 17,-34 42,-34l30 0c40,0 57,16 57,51l0 7c0,36 -21,61 -62,61l-32 0c-14,0 -26,7 -26,25 0,18 12,25 26,25l57 0c40,0 56,26 56,62l0 18c0,36 -17,56 -57,56l-61 0c-25,0 -41,-10 -41,-34 0,-14 -7,-26 -26,-26 -20,0 -27,12 -27,26 0,60 36,85 94,85l61 0c73,0 110,-42 110,-107l0 -18zm158 74c-40,0 -57,-20 -57,-56l0 -24c0,-36 17,-62 57,-62l46 0c40,0 57,26 57,62l0 24c0,36 -17,56 -57,56l-46 0zm16 -192c-40,0 -53,-19 -53,-55l0 -11c0,-35 13,-47 53,-47l14 0c40,0 53,12 53,47l0 11c0,36 -13,55 -53,55l-14 0zm140 112c0,-47 -21,-79 -57,-92 27,-16 37,-38 37,-75l0 -11c0,-65 -32,-97 -106,-97l-14 0c-74,0 -106,32 -106,97l0 11c0,37 10,59 37,75 -36,13 -57,45 -57,92l0 24c0,65 37,107 110,107l46 0c73,0 110,-42 110,-107l0 -24z"/>
   <path class="fil22 str2" d="M16949 5472l0 -396c294,-95 345,101 345,246l0 887c1,245 51,383 -253,378 -31,-1 -142,-1 -172,-1 -265,1 -475,5 -475,-370 0,-89 -1,-479 0,-484 41,-242 261,-258 555,-260z"/>
  </g>
 </g>
</svg>
