<?xml version="1.0" encoding="UTF-8"?>
<!DOCTYPE svg PUBLIC "-//W3C//DTD SVG 1.0//EN" "http://www.w3.org/TR/2001/REC-SVG-20010904/DTD/svg10.dtd">
<!-- Creator: CorelDRAW X7 -->
<svg xmlns="http://www.w3.org/2000/svg" xml:space="preserve" width="200mm" height="200mm" version="1.0" style="shape-rendering:geometricPrecision; text-rendering:geometricPrecision; image-rendering:optimizeQuality; fill-rule:evenodd; clip-rule:evenodd"
viewBox="0 0 20000 20000"
 xmlns:xlink="http://www.w3.org/1999/xlink">
 <defs>
  <style type="text/css">
   <![CDATA[
    .str1 {stroke:#024541;stroke-width:12.73}
    .str2 {stroke:#024541;stroke-width:29.14}
    .str4 {stroke:#CC7588;stroke-width:17.38}
    .str3 {stroke:#CC7588;stroke-width:20.05}
    .str0 {stroke:#024541;stroke-width:159.99;stroke-linecap:round;stroke-linejoin:round}
    .fil6 {fill:none;fill-rule:nonzero}
    .fil1 {fill:#EBF2D9}
    .fil2 {fill:#CDDBAC}
    .fil5 {fill:#CC7588;fill-rule:nonzero}
    .fil4 {fill:#4D897C;fill-rule:nonzero}
    .fil3 {fill:#024541;fill-rule:nonzero}
    .fil0 {fill:url(#id0)}
   ]]>
  </style>
  <radialGradient id="id0" gradientUnits="userSpaceOnUse" gradientTransform="matrix(1.41421 -0 -0 1.41421 -4142 -4142)" cx="10000" cy="10000" r="10000" fx="10000" fy="10000">
   <stop offset="0" style="stop-opacity:1; stop-color:#FEFEFE"/>
   <stop offset="0.431373" style="stop-opacity:1; stop-color:#FEFEFE"/>
   <stop offset="1" style="stop-opacity:1; stop-color:#D1E2F2"/>
  </radialGradient>
 </defs>
 <g id="Layer_x0020_1">
  <metadata id="CorelCorpID_0Corel-Layer"/>
  <g id="_594649819632">
   <path class="fil0" d="M0 0l20000 0 0 20000 -20000 0 0 -20000z"/>
   <path class="fil1 str0" d="M12944 5584l0 8832c-2205,0 -3683,0 -5888,0l0 -8832 5888 0z"/>
   <path class="fil2" d="M7056 5584l5888 0 0 3361 -5888 -2798c10,-289 0,-370 0,-563z"/>
   <path class="fil3 str1" d="M7578 10159l52 0 0 107c0,10 6,19 20,19 13,0 19,-9 19,-19l0 -259c0,-9 -6,-19 -19,-19 -14,0 -20,10 -20,19l0 114c0,0 -41,0 -58,0 -24,0 -37,-16 -37,-35 0,-17 0,-79 0,-79 0,-9 -5,-19 -19,-19 -13,0 -19,10 -19,19l0 75c0,44 19,77 81,77zm301 107c0,10 6,19 19,19 14,0 19,-9 19,-19l0 -259c0,-9 -6,-19 -20,-19 -7,0 -13,3 -19,14l-110 196 0 0c1,-7 1,-17 1,-28l0 -163c0,-9 -5,-19 -18,-19 -14,0 -19,10 -19,19l0 259c0,10 5,19 19,19 8,0 13,-3 20,-14l110 -196 0 0c-1,7 -2,17 -2,28l0 163zm175 -18c-29,0 -40,-20 -40,-46l0 -131c0,-26 11,-45 40,-45l42 0c17,0 27,7 29,24 0,10 5,19 18,19 14,0 20,-9 20,-19 0,-43 -25,-62 -67,-62l-42 0c-52,0 -78,38 -78,83l0 131c0,46 26,83 78,83l42 0c42,0 67,-19 67,-62 0,-9 -6,-18 -20,-18 -13,0 -18,9 -18,18 -2,18 -12,25 -29,25l-42 0zm215 -19c3,-24 25,-199 25,-199l72 0 0 236c0,10 5,19 19,19 14,0 19,-9 19,-19l0 -254c0,-10 -5,-19 -19,-19l-107 0c-12,0 -18,7 -20,19 -1,11 -23,191 -25,207 -1,10 -3,16 -5,20 -4,8 -11,10 -23,10 -10,0 -19,6 -19,19 0,14 9,19 19,19 36,0 50,-12 59,-32 3,-8 4,-15 5,-26zm233 -158c0,-26 11,-45 39,-45l33 0c28,0 39,19 39,45l0 131c0,26 -11,46 -39,46l-33 0c-28,0 -39,-20 -39,-46l0 -131zm150 0c0,-45 -26,-83 -78,-83l-33 0c-52,0 -78,38 -78,83l0 131c0,46 26,83 78,83l33 0c52,0 78,-37 78,-83l0 -131zm308 -41l0 236c0,10 5,19 19,19 13,0 19,-9 19,-19l0 -254c0,-10 -6,-19 -19,-19l-139 0c-13,0 -19,9 -19,19l0 254c0,10 6,19 19,19 14,0 20,-9 20,-19l0 -236 100 0zm135 41c0,-26 11,-45 40,-45l33 0c28,0 39,19 39,45l0 131c0,26 -11,46 -39,46l-33 0c-29,0 -40,-20 -40,-46l0 -131zm151 0c0,-45 -26,-83 -78,-83l-33 0c-52,0 -78,38 -78,83l0 131c0,46 26,83 78,83l33 0c52,0 78,-37 78,-83l0 -131zm80 -78c-15,0 -22,9 -22,19l0 254c0,10 7,19 20,19 13,0 19,-9 19,-19l0 -236 110 0c10,0 18,-6 18,-19 0,-12 -8,-18 -16,-18l-129 0zm305 207l23 72c3,9 13,15 24,12 11,-4 15,-14 12,-24l-83 -258c-3,-9 -8,-14 -19,-14l-3 0c-11,0 -16,5 -19,14l-83 258c-3,10 1,20 12,24 11,3 21,-3 24,-12l23 -72 89 0zm-51 -125c3,-9 4,-13 6,-23l1 0c2,10 3,14 6,23l28 90 -69 0 28 -90zm380 -87c-14,0 -19,10 -19,19l0 237 -69 0 0 -237c0,-10 -7,-19 -19,-19 -12,0 -18,10 -18,19l0 237 -68 0 0 -237c0,-9 -6,-19 -20,-19 -13,0 -19,10 -19,19l0 255c0,10 6,19 19,19l213 0c14,0 19,-9 19,-19l0 -255c0,-9 -5,-19 -19,-19zm233 293c10,0 18,-6 18,-19 0,-12 -8,-18 -18,-18l-112 0 0 -93 93 0c9,0 18,-5 18,-18 0,-13 -9,-19 -18,-19l-93 0 0 -84 112 0c10,0 18,-6 18,-19 0,-12 -8,-18 -18,-18l-132 0c-13,0 -19,9 -19,19l0 250c0,10 6,19 19,19l132 0zm250 -274c0,-9 -6,-19 -19,-19 -14,0 -20,10 -20,19l0 103 -108 0 0 -103c0,-9 -5,-19 -19,-19 -13,0 -20,10 -20,19l0 259c0,10 7,19 20,19 13,0 19,-9 19,-19l0 -119 108 0 0 119c0,10 6,19 20,19 13,0 19,-9 19,-19l0 -259zm248 0c0,-9 -6,-19 -19,-19 -14,0 -19,10 -19,19l0 103 -109 0 0 -103c0,-9 -5,-19 -19,-19 -13,0 -19,10 -19,19l0 259c0,10 6,19 19,19 14,0 19,-9 19,-19l0 -119 109 0 0 119c0,10 5,19 19,19 13,0 19,-9 19,-19l0 -259zm305 259l0 -259c0,-9 -5,-19 -19,-19 -13,0 -19,10 -19,19l0 259c0,10 5,19 19,19 13,0 19,-9 19,-19zm-153 -162l-51 0 0 -97c0,-9 -5,-19 -19,-19 -13,0 -19,10 -19,19l0 255c0,10 6,19 20,19l69 0c54,0 80,-35 80,-80l0 -19c0,-46 -25,-78 -80,-78zm41 101c0,25 -11,39 -40,39l-52 0 0 -103 51 0c29,0 41,15 41,39l0 25 0 0zm252 -110l-52 -95c-5,-10 -14,-15 -26,-9 -11,7 -12,18 -8,25l65 114 -72 127c-4,8 -4,19 8,25 11,6 20,1 26,-8l59 -109 60 109c6,10 15,14 26,8 12,-6 12,-17 8,-25l-72 -127 65 -114c4,-7 3,-18 -8,-25 -12,-6 -21,-1 -26,9l-53 95z"/>
   <path class="fil3 str1" d="M8981 10636l-59 0 0 -77 105 0c9,0 18,-5 18,-18 0,-13 -9,-19 -18,-19l-124 0c-14,0 -20,9 -20,19l0 250c0,10 6,19 20,19l78 0c53,0 79,-34 79,-80l0 -18c0,-46 -26,-76 -79,-76zm41 99c0,24 -11,38 -40,38l-60 0 0 -102 59 0c29,0 41,14 41,39l0 25zm241 -217c-55,0 -79,47 -79,92l0 30 -38 0 0 -103c0,-10 -4,-19 -18,-19 -13,0 -18,9 -18,19l0 258c0,10 5,19 18,19 14,0 18,-9 18,-19l0 -118 38 0 0 54c0,46 24,83 76,83l22 0c52,0 78,-37 78,-82l0 -132c0,-45 -26,-82 -78,-82l-19 0zm58 214c0,26 -11,45 -39,45l-20 0c-28,0 -39,-19 -39,-45l0 -119c0,-26 10,-58 40,-58l19 0c28,0 39,20 39,43l0 134zm155 26c3,-23 24,-199 24,-199l72 0 0 236c0,10 6,19 20,19 13,0 19,-9 19,-19l0 -254c0,-10 -6,-19 -19,-19l-107 0c-12,0 -19,8 -20,19 -1,12 -24,192 -26,208 -1,9 -2,16 -5,20 -4,8 -11,10 -23,10 -9,0 -19,6 -19,19 0,14 10,18 19,18 36,0 51,-11 59,-32 3,-7 5,-15 6,-26zm255 0c3,-23 24,-199 24,-199l72 0 0 236c0,10 6,19 20,19 13,0 19,-9 19,-19l0 -254c0,-10 -6,-19 -19,-19l-107 0c-12,0 -19,8 -20,19 -1,12 -23,192 -25,208 -2,9 -3,16 -5,20 -5,8 -12,10 -23,10 -10,0 -19,6 -19,19 0,14 9,18 19,18 35,0 50,-11 58,-32 3,-7 5,-15 6,-26zm349 52c10,0 18,-5 18,-18 0,-13 -8,-19 -18,-19l-113 0 0 -92 93 0c10,0 18,-6 18,-19 0,-12 -8,-18 -18,-18l-93 0 0 -85 113 0c10,0 18,-5 18,-18 0,-13 -8,-19 -18,-19l-132 0c-14,0 -19,9 -19,19l0 250c0,10 5,19 19,19l132 0zm136 4c13,0 19,-9 19,-19l0 -236 60 0c9,0 18,-5 18,-18 0,-13 -9,-19 -18,-19l-159 0c-9,0 -18,6 -18,19 0,13 9,18 18,18l60 0 0 236c0,10 6,19 20,19zm285 -4c9,0 18,-5 18,-18 0,-13 -9,-19 -18,-19l-113 0 0 -92 93 0c9,0 18,-6 18,-19 0,-12 -9,-18 -18,-18l-93 0 0 -85 113 0c9,0 18,-5 18,-18 0,-13 -9,-19 -18,-19l-133 0c-13,0 -19,9 -19,19l0 250c0,10 6,19 19,19l133 0zm249 -273c0,-10 -6,-19 -19,-19 -13,0 -19,9 -19,19l0 103 -108 0 0 -103c0,-10 -6,-19 -20,-19 -13,0 -19,9 -19,19l0 258c0,10 6,19 19,19 14,0 20,-9 20,-19l0 -118 108 0 0 118c0,10 5,19 19,19 13,0 19,-9 19,-19l0 -258zm214 273c10,0 19,-5 19,-18 0,-13 -9,-19 -19,-19l-112 0 0 -92 93 0c9,0 18,-6 18,-19 0,-12 -9,-18 -18,-18l-93 0 0 -85 112 0c10,0 19,-5 19,-18 0,-13 -9,-19 -19,-19l-132 0c-13,0 -19,9 -19,19l0 250c0,10 6,19 19,19l132 0zm159 -314c37,0 57,-26 57,-55 0,-8 -7,-14 -16,-14 -8,0 -14,6 -15,15 -1,15 -11,26 -26,26 -16,0 -26,-11 -27,-26 -1,-9 -7,-15 -15,-15 -9,0 -16,6 -16,14 0,29 20,55 58,55zm53 299c0,10 6,19 19,19 14,0 19,-9 19,-19l0 -258c0,-10 -5,-19 -19,-19 -8,0 -14,3 -20,14l-110 196 0 0c1,-7 2,-17 2,-28l0 -163c0,-10 -6,-19 -19,-19 -14,0 -19,9 -19,19l0 258c0,10 5,19 19,19 8,0 14,-2 20,-14l110 -195 0 0c-1,7 -2,17 -2,28l0 162z"/>
   <path class="fil3 str2" d="M8156 6838l0 540c0,22 11,43 42,43 29,0 43,-21 43,-43l0 -582c0,-22 -14,-43 -43,-43l-305 0c-29,0 -42,21 -42,43l0 582c0,22 13,43 42,43 30,0 43,-21 43,-43l0 -540 220 0zm307 233l0 -234 141 0c63,0 89,33 89,89l0 47c0,58 -26,98 -89,98l-141 0zm141 85c117,0 174,-79 174,-183l0 -47c0,-105 -57,-173 -174,-173l-184 0c-29,0 -42,21 -42,43l0 582c0,22 13,43 43,43 30,0 42,-21 42,-43l0 -222 141 0zm357 -224c0,-59 24,-104 87,-104l72 0c62,0 87,45 87,104l0 301c0,58 -25,103 -87,103l-72 0c-63,0 -87,-45 -87,-103l0 -301zm331 0c0,-104 -57,-188 -172,-188l-72 0c-115,0 -172,84 -172,188l0 301c0,103 57,188 172,188l72 0c115,0 172,-85 172,-188l0 -301zm285 489c30,0 42,-21 42,-43l0 -540 132 0c21,0 40,-13 40,-43 0,-28 -19,-42 -40,-42l-349 0c-21,0 -40,14 -40,42 0,30 19,43 40,43l132 0 0 540c0,22 13,43 43,43zm370 -489c0,-59 24,-104 87,-104l72 0c62,0 87,45 87,104l0 301c0,58 -25,103 -87,103l-72 0c-63,0 -87,-45 -87,-103l0 -301zm331 0c0,-104 -57,-188 -172,-188l-72 0c-115,0 -172,84 -172,188l0 301c0,103 57,188 172,188l72 0c115,0 172,-85 172,-188l0 -301zm532 419l-195 -287 185 -249c16,-22 16,-45 -2,-62 -22,-21 -48,-10 -63,9l-190 269 -55 0 0 -244c0,-23 -12,-43 -41,-43 -31,0 -44,20 -44,43l0 591c0,22 13,43 44,43 29,0 41,-21 41,-43l0 -263 56 0 194 287c12,19 34,29 59,13 25,-19 23,-45 11,-64zm182 -419c0,-59 25,-104 87,-104l73 0c62,0 86,45 86,104l0 301c0,58 -24,103 -86,103l-73 0c-62,0 -87,-45 -87,-103l0 -301zm331 0c0,-104 -57,-188 -171,-188l-73 0c-115,0 -172,84 -172,188l0 301c0,103 57,188 172,188l73 0c114,0 171,-85 171,-188l0 -301zm256 361c6,-53 53,-455 53,-455l158 0 0 540c0,22 13,43 44,43 29,0 41,-21 41,-43l0 -582c0,-22 -12,-43 -41,-43l-236 0c-27,0 -41,18 -44,43 -3,28 -51,439 -56,476 -3,21 -5,35 -11,45 -9,18 -24,22 -50,22 -22,0 -42,14 -42,44 0,32 20,43 42,43 78,0 111,-27 129,-74 6,-17 10,-34 13,-59z"/>
   <g>
    <path class="fil4" d="M7744 13425c-35,0 -64,-32 -64,-70 0,-39 29,-70 64,-70l0 140zm2420 0l-2420 0 0 -140 2420 0 0 140zm0 -140c36,0 65,31 65,70 0,38 -29,70 -65,70l0 -140zm-2420 -1499c-35,0 -64,-32 -64,-70 0,-39 29,-70 64,-70l0 140zm3411 0l-3411 0 0 -140 3411 0 0 140zm0 -140c36,0 65,31 65,70 0,38 -29,70 -65,70l0 -140zm-3411 -262c-35,0 -64,-32 -64,-70 0,-39 29,-70 64,-70l0 140zm3407 0l-3407 0 0 -140 3407 0 0 140zm0 -140c35,0 64,31 64,70 0,38 -29,70 -64,70l0 -140zm-3407 944c-35,0 -64,-32 -64,-70 0,-39 29,-70 64,-70l0 140zm4586 0l-4586 0 0 -140 4586 0 0 140zm0 -140c36,0 64,31 64,70 0,38 -28,70 -64,70l0 -140zm-4586 541c-35,0 -64,-31 -64,-70 0,-38 29,-70 64,-70l0 140zm3407 0l-3407 0 0 -140 3407 0 0 140zm0 -140c35,0 64,32 64,70 0,39 -29,70 -64,70l0 -140zm-3407 542c-35,0 -64,-31 -64,-70 0,-38 29,-70 64,-70l0 140zm4586 0l-4586 0 0 -140 4586 0 0 140zm0 -140c36,0 64,32 64,70 0,39 -28,70 -64,70l0 -140zm-4586 -3278c-35,0 -64,-32 -64,-70 0,-39 29,-70 64,-70l0 140zm4332 0l-4332 0 0 -140 4332 0 0 140zm0 -140c36,0 64,31 64,70 0,38 -28,70 -64,70l0 -140z"/>
   </g>
   <path class="fil5 str3" d="M11820 10142c0,-53 -21,-95 -67,-110 29,-17 46,-46 46,-88l0 -8c0,-75 -40,-116 -120,-116l-33 0c-63,0 -102,28 -102,97 0,17 8,30 29,30 21,0 28,-13 28,-30 0,-27 18,-39 45,-39l33 0c43,0 62,18 62,58l0 8c0,41 -23,70 -67,70l-35 0c-15,0 -28,8 -28,29 0,20 13,28 28,28l63 0c43,0 60,30 60,71l0 22c0,41 -19,64 -62,64l-66 0c-27,0 -45,-12 -45,-39 0,-17 -8,-30 -29,-30 -21,0 -29,13 -29,30 0,69 40,97 103,97l66 0c80,0 120,-48 120,-122l0 -22zm122 28c0,-30 11,-53 31,-63l113 -53c55,-26 68,-72 68,-116l0 -2c0,-75 -40,-116 -120,-116l-38 0c-63,0 -102,28 -102,97 0,17 8,30 29,30 21,0 29,-13 29,-30 0,-27 17,-39 44,-39l38 0c44,0 62,18 62,58l0 2c0,31 -9,50 -34,61l-105 49c-49,23 -72,72 -72,128l0 104 247 0c15,0 27,-9 27,-29 0,-21 -12,-30 -27,-30l-190 0 0 -51zm363 86c0,17 8,30 29,30 21,0 29,-13 29,-30l0 -55c0,-92 17,-148 60,-221l64 -108c15,-26 5,-46 -24,-46l-229 0c-15,0 -27,9 -27,29 0,21 12,30 27,30l181 0 -40 63c-55,89 -70,148 -70,253l0 55z"/>
   <path class="fil5 str4" d="M12036 10513c-18,0 -24,12 -24,25l0 224 -81 0 0 -224c0,-13 -6,-25 -24,-25 -17,0 -24,12 -24,25l0 224 -81 0 0 -224c0,-13 -6,-25 -24,-25 -17,0 -24,12 -24,25l0 246c0,15 7,26 24,26l258 0c17,0 24,-11 24,-26l0 -246c0,-13 -6,-25 -24,-25zm277 5l-176 0c-13,0 -24,6 -24,24 0,17 11,25 24,25l64 0 0 223c0,14 6,26 24,26 17,0 24,-12 24,-26l0 -223 64 0c12,0 23,-8 23,-25 0,-18 -11,-24 -23,-24z"/>
   <path class="fil6 str0" d="M12944 5584l0 8832c-2205,0 -3683,0 -5888,0l0 -8832 5888 0z"/>
   <g>
    <path class="fil5" d="M11555 11786c-35,0 -64,-32 -64,-70 0,-39 29,-70 64,-70l0 140zm770 0l-770 0 0 -140 770 0 0 140zm0 -140c35,0 64,31 64,70 0,38 -29,70 -64,70l0 -140zm-825 943c-36,0 -65,-31 -65,-70 0,-38 29,-70 65,-70l0 140zm769 0l-769 0 0 -140 769 0 0 140zm0 -140c36,0 65,32 65,70 0,39 -29,70 -65,70l0 -140z"/>
   </g>
   <g>
    <path class="fil4" d="M8390 8335c-36,0 -65,-31 -65,-70 0,-38 29,-70 65,-70l0 140zm3940 0l-3940 0 0 -140 3940 0 0 140zm0 -140c36,0 64,32 64,70 0,39 -28,70 -64,70l0 -140zm-4575 542c-36,0 -65,-31 -65,-70 0,-38 29,-70 65,-70l0 140zm4422 0l-4422 0 0 -140 4422 0 0 140zm0 -140c35,0 64,32 64,70 0,39 -29,70 -64,70l0 -140zm-4433 542c-35,0 -64,-31 -64,-70 0,-38 29,-70 64,-70l0 140zm4586 0l-4586 0 0 -140 4586 0 0 140zm0 -140c36,0 64,32 64,70 0,39 -28,70 -64,70l0 -140z"/>
   </g>
  </g>
 </g>
</svg>
