<?xml version="1.0" encoding="UTF-8"?>
<!DOCTYPE svg PUBLIC "-//W3C//DTD SVG 1.0//EN" "http://www.w3.org/TR/2001/REC-SVG-20010904/DTD/svg10.dtd">
<!-- Creator: CorelDRAW X7 -->
<svg xmlns="http://www.w3.org/2000/svg" xml:space="preserve" width="200mm" height="200mm" version="1.0" style="shape-rendering:geometricPrecision; text-rendering:geometricPrecision; image-rendering:optimizeQuality; fill-rule:evenodd; clip-rule:evenodd"
viewBox="0 0 20000 20000"
 xmlns:xlink="http://www.w3.org/1999/xlink">
 <defs>
  <style type="text/css">
   <![CDATA[
    .str16 {stroke:#024541;stroke-width:29.11}
    .str18 {stroke:#CC7588;stroke-width:34.29}
    .str15 {stroke:#CC7588;stroke-width:16.82}
    .str17 {stroke:#024541;stroke-width:25.12}
    .str2 {stroke:#AB8082;stroke-width:40.64}
    .str3 {stroke:#CC7588;stroke-width:84.5;stroke-linecap:round;stroke-linejoin:round}
    .str11 {stroke:#B7CBD8;stroke-width:138.63;stroke-linecap:round;stroke-linejoin:round}
    .str7 {stroke:#4D897C;stroke-width:138.63;stroke-linecap:round;stroke-linejoin:round}
    .str12 {stroke:#024541;stroke-width:138.63;stroke-linecap:round;stroke-linejoin:round}
    .str13 {stroke:#024541;stroke-width:138.63;stroke-linecap:round;stroke-linejoin:round}
    .str14 {stroke:#024541;stroke-width:154.71;stroke-linecap:round;stroke-linejoin:round}
    .str4 {stroke:#CC7588;stroke-width:162.6;stroke-linecap:round;stroke-linejoin:round}
    .str1 {stroke:#4D897C;stroke-width:162.6;stroke-linecap:round;stroke-linejoin:round}
    .str0 {stroke:#024541;stroke-width:162.6;stroke-linecap:round;stroke-linejoin:round}
    .str6 {stroke:#024541;stroke-width:162.6;stroke-linecap:round;stroke-linejoin:round}
    .str10 {stroke:#B8974A;stroke-width:149.93;stroke-linecap:round;stroke-linejoin:round}
    .str5 {stroke:#024541;stroke-width:162.76;stroke-linecap:round;stroke-linejoin:round}
    .str8 {stroke:#024541;stroke-width:163.13;stroke-linecap:round;stroke-linejoin:round}
    .str9 {stroke:#024541;stroke-width:163.31;stroke-linecap:round;stroke-linejoin:round}
    .fil3 {fill:none}
    .fil5 {fill:none;fill-rule:nonzero}
    .fil13 {fill:#FEFEFE}
    .fil20 {fill:#D19A9D}
    .fil23 {fill:#CC6F3C}
    .fil2 {fill:#EBF2D9}
    .fil24 {fill:#CDDBAC}
    .fil18 {fill:#B7B0A7}
    .fil19 {fill:#A7A18F}
    .fil15 {fill:#A2D9F7}
    .fil8 {fill:#78C8D5}
    .fil17 {fill:#66C3D0}
    .fil7 {fill:#4D897C}
    .fil11 {fill:#7690C9}
    .fil16 {fill:#024541}
    .fil9 {fill:#093332}
    .fil12 {fill:#CAB677}
    .fil22 {fill:#FFCA9C}
    .fil14 {fill:#FEFEFE;fill-rule:nonzero}
    .fil4 {fill:#AB8082;fill-rule:nonzero}
    .fil6 {fill:#CC7588;fill-rule:nonzero}
    .fil10 {fill:#B7CBD8;fill-rule:nonzero}
    .fil1 {fill:#4D897C;fill-rule:nonzero}
    .fil21 {fill:#024541;fill-rule:nonzero}
    .fil0 {fill:url(#id0)}
   ]]>
  </style>
  <radialGradient id="id0" gradientUnits="userSpaceOnUse" gradientTransform="matrix(1.41421 -0 -0 1.41421 -4142 -4142)" cx="10000" cy="10000" r="10000" fx="10000" fy="10000">
   <stop offset="0" style="stop-opacity:1; stop-color:#FEFEFE"/>
   <stop offset="0.431373" style="stop-opacity:1; stop-color:#FEFEFE"/>
   <stop offset="1" style="stop-opacity:1; stop-color:#D1E2F2"/>
  </radialGradient>
 </defs>
 <g id="Layer_x0020_1">
  <metadata id="CorelCorpID_0Corel-Layer"/>
  <g id="_1003192527952">
   <path class="fil0" d="M0 0l20000 0 0 20000 -20000 0 0 -20000z"/>
   <g>
    <path class="fil1" d="M9913 9068c-20,0 -36,-36 -36,-81 0,-45 16,-81 36,-81l0 162zm5191 0l-5191 0 0 -162 5191 0 0 162zm0 -162c20,0 36,36 36,81 0,45 -16,81 -36,81l0 -162z"/>
   </g>
   <path class="fil2 str0" d="M13306 11748l2567 0 0 3850 -2567 0 0 -3850z"/>
   <path class="fil2 str0" d="M6398 11748l2567 0 0 3850 -2567 0 0 -3850z"/>
   <path class="fil3 str1" d="M9556 12285l0 3851 -2567 0"/>
   <path class="fil3 str1" d="M9261 12016c0,1284 0,2567 0,3851 -856,0 -1712,0 -2567,0"/>
   <path class="fil2 str0" d="M9852 11748l2567 0 0 3850 -2567 0 0 -3850z"/>
   <path class="fil3 str1" d="M13010 12285l0 3851 -2566 0"/>
   <path class="fil3 str1" d="M12715 12016c0,1284 0,2567 0,3851 -856,0 -1712,0 -2567,0"/>
   <path class="fil3 str1" d="M16465 12285l0 3851 -2567 0"/>
   <path class="fil3 str1" d="M16169 12016c0,1284 0,2567 0,3851 -856,0 -1711,0 -2567,0"/>
   <path class="fil4 str2" d="M10823 13987c-16,0 -30,9 -30,30l0 180c0,21 14,30 30,30l126 0c48,0 68,24 68,66l0 42c0,42 -20,66 -68,66l-59 0c-29,0 -49,-12 -49,-40 0,-17 -8,-31 -31,-31 -23,0 -31,14 -31,31 0,71 42,100 111,100l59 0c87,0 131,-49 131,-126l0 -42c0,-77 -44,-126 -131,-126l-93 0 0 -120 172 0c17,0 30,-8 30,-30 0,-21 -13,-30 -30,-30l-205 0zm384 161c0,-66 25,-107 77,-107l24 0c52,0 76,41 76,107l0 146c0,66 -24,107 -76,107l-24 0c-52,0 -77,-41 -77,-107l0 -146zm240 0c0,-102 -47,-167 -139,-167l-24 0c-92,0 -140,65 -140,167l0 146c0,102 48,167 140,167l24 0c92,0 139,-65 139,-167l0 -146z"/>
   <path class="fil4 str2" d="M11125 14636c-20,0 -27,13 -27,28l0 239 -91 0 0 -239c0,-15 -7,-28 -27,-28 -20,0 -27,13 -27,28l0 239 -91 0 0 -239c0,-15 -7,-28 -27,-28 -20,0 -27,13 -27,28l0 263c0,15 8,27 27,27l290 0c19,0 27,-12 27,-27l0 -263c0,-15 -7,-28 -27,-28zm312 6l-199 0c-13,0 -26,6 -26,25 0,19 13,27 26,27l73 0 0 239c0,14 7,27 27,27 19,0 27,-13 27,-27l0 -239 72 0c14,0 26,-8 26,-27 0,-19 -12,-25 -26,-25z"/>
   <path class="fil5 str3" d="M10568 15189c-201,-165 -330,-415 -330,-695 0,-280 129,-530 330,-695m1135 0c201,165 330,415 330,695 0,280 -129,530 -330,695"/>
   <path class="fil4 str2" d="M7369 13987c-16,0 -30,9 -30,30l0 180c0,21 14,30 30,30l126 0c48,0 68,24 68,66l0 42c0,42 -20,66 -68,66l-59 0c-29,0 -49,-12 -49,-40 0,-17 -8,-31 -31,-31 -23,0 -32,14 -32,31 0,71 43,100 112,100l59 0c87,0 130,-49 130,-126l0 -42c0,-77 -43,-126 -130,-126l-93 0 0 -120 172 0c17,0 30,-8 30,-30 0,-21 -13,-30 -30,-30l-205 0zm384 161c0,-66 25,-107 77,-107l24 0c52,0 76,41 76,107l0 146c0,66 -24,107 -76,107l-24 0c-52,0 -77,-41 -77,-107l0 -146zm240 0c0,-102 -47,-167 -139,-167l-24 0c-92,0 -140,65 -140,167l0 146c0,102 48,167 140,167l24 0c92,0 139,-65 139,-167l0 -146z"/>
   <path class="fil4 str2" d="M7671 14636c-20,0 -27,13 -27,28l0 239 -91 0 0 -239c0,-15 -7,-28 -27,-28 -20,0 -27,13 -27,28l0 239 -91 0 0 -239c0,-15 -8,-28 -27,-28 -20,0 -27,13 -27,28l0 263c0,15 7,27 27,27l290 0c19,0 27,-12 27,-27l0 -263c0,-15 -7,-28 -27,-28zm312 6l-199 0c-13,0 -26,6 -26,25 0,19 13,27 26,27l73 0 0 239c0,14 7,27 27,27 19,0 27,-13 27,-27l0 -239 72 0c14,0 26,-8 26,-27 0,-19 -12,-25 -26,-25z"/>
   <path class="fil5 str3" d="M7114 15189c-201,-165 -330,-415 -330,-695 0,-280 129,-530 330,-695m1135 0c201,165 330,415 330,695 0,280 -129,530 -330,695"/>
   <path class="fil4 str2" d="M14179 13967c-10,0 -18,5 -24,11 -32,36 -69,72 -108,107 -12,12 -16,26 0,42 14,14 28,9 40,-1 24,-20 49,-45 70,-70l0 325 -84 0c-16,0 -30,9 -30,30 0,21 14,30 30,30l216 0c17,0 30,-9 30,-30 0,-21 -13,-30 -30,-30l-70 0 0 -382c0,-18 -5,-32 -28,-32l-12 0zm307 449c0,18 8,32 31,32 23,0 31,-14 31,-32l0 -56c0,-94 19,-153 66,-228l69 -111c17,-27 5,-47 -25,-47l-249 0c-17,0 -30,9 -30,30 0,21 13,30 30,30l196 0 -43 65c-60,92 -76,153 -76,261l0 56zm416 -446c-106,63 -140,148 -140,253l0 99c0,76 43,126 130,126l39 0c86,0 130,-46 130,-123l0 -33c0,-77 -44,-130 -130,-130l-102 0c10,-55 40,-99 107,-139 14,-9 25,-26 12,-45 -12,-19 -31,-17 -46,-8zm-10 418c-47,0 -67,-24 -67,-66l0 -100 106 0c47,0 67,27 67,70l0 33c0,42 -20,63 -67,63l-39 0z"/>
   <path class="fil4 str2" d="M14579 14636c-20,0 -27,13 -27,28l0 239 -91 0 0 -239c0,-15 -7,-28 -27,-28 -20,0 -27,13 -27,28l0 239 -91 0 0 -239c0,-15 -7,-28 -27,-28 -20,0 -27,13 -27,28l0 263c0,15 8,27 27,27l290 0c19,0 27,-12 27,-27l0 -263c0,-15 -7,-28 -27,-28zm312 6l-198 0c-14,0 -27,6 -27,25 0,19 13,27 27,27l72 0 0 239c0,14 7,27 27,27 19,0 27,-13 27,-27l0 -239 72 0c14,0 27,-8 27,-27 0,-19 -13,-25 -27,-25z"/>
   <path class="fil5 str3" d="M14022 15189c-201,-165 -329,-415 -329,-695 0,-280 128,-530 329,-695m1135 0c201,165 330,415 330,695 0,280 -129,530 -330,695"/>
   <path class="fil2 str0" d="M2944 11748l2567 0 0 3850 -2567 0 0 -3850z"/>
   <path class="fil3 str1" d="M6102 12285l0 3851 -2567 0"/>
   <path class="fil3 str1" d="M5807 12016c0,1284 0,2567 0,3851 -856,0 -1712,0 -2567,0"/>
   <path class="fil4 str2" d="M3915 13987c-17,0 -30,9 -30,30l0 180c0,21 13,30 30,30l126 0c48,0 68,24 68,66l0 42c0,42 -20,66 -68,66l-59 0c-30,0 -49,-12 -49,-40 0,-17 -9,-31 -31,-31 -23,0 -32,14 -32,31 0,71 43,100 112,100l59 0c87,0 130,-49 130,-126l0 -42c0,-77 -43,-126 -130,-126l-93 0 0 -120 172 0c17,0 30,-8 30,-30 0,-21 -13,-30 -30,-30l-205 0zm384 161c0,-66 24,-107 77,-107l23 0c53,0 77,41 77,107l0 146c0,66 -24,107 -77,107l-23 0c-53,0 -77,-41 -77,-107l0 -146zm240 0c0,-102 -47,-167 -140,-167l-23 0c-92,0 -140,65 -140,167l0 146c0,102 48,167 140,167l23 0c93,0 140,-65 140,-167l0 -146z"/>
   <path class="fil4 str2" d="M4217 14636c-20,0 -27,13 -27,28l0 239 -91 0 0 -239c0,-15 -8,-28 -27,-28 -20,0 -27,13 -27,28l0 239 -91 0 0 -239c0,-15 -8,-28 -27,-28 -20,0 -27,13 -27,28l0 263c0,15 7,27 27,27l290 0c19,0 27,-12 27,-27l0 -263c0,-15 -7,-28 -27,-28zm312 6l-199 0c-14,0 -26,6 -26,25 0,19 12,27 26,27l73 0 0 239c0,14 7,27 27,27 19,0 27,-13 27,-27l0 -239 72 0c14,0 26,-8 26,-27 0,-19 -12,-25 -26,-25z"/>
   <path class="fil5 str3" d="M3660 15189c-201,-165 -330,-415 -330,-695 0,-280 129,-530 330,-695m1135 0c201,165 330,415 330,695 0,280 -129,530 -330,695"/>
   <path class="fil5 str1" d="M17056 12823l0 3850 -2567 0"/>
   <path class="fil5 str1" d="M16760 12554c0,1284 0,2567 0,3851 -855,0 -1711,0 -2567,0"/>
   <path class="fil5 str4" d="M4227 11145l0 -896 3454 0 3455 0 0 896m-3455 0l0 -1751"/>
   <g>
    <path class="fil6" d="M14671 11145c0,45 -36,81 -81,81 -45,0 -82,-36 -82,-81l163 0zm0 -1792l0 1792 -163 0 0 -1792 163 0zm-163 0c0,-44 37,-80 82,-80 45,0 81,36 81,80l-163 0z"/>
   </g>
   <path class="fil1" d="M6728 12830l-42 0 0 -87 94 0c10,0 20,-6 20,-20 0,-14 -10,-21 -20,-21l-116 0c-15,0 -21,9 -21,20l0 282c0,11 7,21 22,21l63 0c58,0 85,-31 85,-83l0 -26c0,-51 -27,-86 -85,-86zm43 112c0,28 -11,42 -43,42l-42 0 0 -115 42 0c32,0 43,17 43,45l0 28zm262 -245l-4 0c-62,0 -86,52 -86,103l0 33 -37 0 0 -114c0,-11 -5,-22 -20,-22 -15,0 -21,11 -21,22l0 289c0,11 6,22 21,22 15,0 20,-11 20,-22l0 -133 37 0 0 70c0,50 27,85 86,85l4 0c59,0 86,-40 86,-90l0 -153c0,-50 -27,-90 -86,-90zm42 243c0,28 -10,48 -42,48l-4 0c-32,0 -42,-15 -42,-43l0 -145c0,-28 8,-61 42,-61l4 0c32,0 42,20 42,48l0 153zm162 27c1,-10 16,-224 16,-224l64 0 0 265c0,11 7,22 22,22 15,0 22,-11 22,-22l0 -285c0,-11 -7,-21 -22,-21l-105 0c-15,0 -22,11 -23,21 0,0 -14,228 -15,233 0,6 -1,15 -3,20 -5,8 -12,13 -23,13 -11,0 -21,7 -21,22 0,16 10,21 21,21 33,0 52,-13 61,-37 4,-8 6,-18 6,-28zm247 0c1,-10 15,-224 15,-224l65 0 0 265c0,11 6,22 22,22 14,0 21,-11 21,-22l0 -285c0,-11 -7,-21 -21,-21l-106 0c-15,0 -22,11 -22,21 0,0 -15,228 -15,233 -1,6 -1,15 -4,20 -4,8 -11,13 -23,13 -11,0 -21,7 -21,22 0,16 10,21 21,21 33,0 52,-13 62,-37 3,-8 5,-18 6,-28zm331 58c11,0 21,-6 21,-21 0,-14 -10,-21 -21,-21l-98 0 0 -103 78 0c11,0 20,-6 20,-21 0,-14 -9,-21 -20,-21l-78 0 0 -95 98 0c11,0 21,-6 21,-20 0,-14 -10,-21 -21,-21l-120 0c-15,0 -22,10 -22,21l0 281c0,11 7,21 22,21l120 0zm116 -17c0,11 6,22 21,22 15,0 22,-11 22,-22l0 -265 53 0c11,0 21,-6 21,-20 0,-14 -10,-21 -21,-21l-150 0c-10,0 -20,7 -20,21 0,14 10,20 20,20l54 0 0 265zm298 17c11,0 21,-6 21,-21 0,-14 -10,-21 -21,-21l-98 0 0 -103 78 0c11,0 20,-6 20,-21 0,-14 -9,-21 -20,-21l-78 0 0 -95 98 0c11,0 21,-6 21,-20 0,-14 -10,-21 -21,-21l-121 0c-14,0 -21,10 -21,21l0 281c0,11 7,21 21,21l121 0zm249 -306c0,-11 -7,-22 -22,-22 -15,0 -21,11 -21,22l0 114 -94 0 0 -114c0,-11 -6,-22 -22,-22 -14,0 -21,11 -21,22l0 289c0,11 7,22 21,22 16,0 22,-11 22,-22l0 -133 94 0 0 133c0,11 6,22 21,22 15,0 22,-11 22,-22l0 -289zm157 108l-47 0 0 -108c0,-11 -7,-22 -22,-22 -15,0 -21,11 -21,22l0 284c0,11 6,22 21,22l69 0c58,0 85,-31 85,-83l0 -28c0,-51 -27,-87 -85,-87zm-47 42l47 0c31,0 42,17 42,45l0 28c0,28 -11,41 -42,41l-47 0 0 -114z"/>
   <path class="fil1" d="M10182 12830l-42 0 0 -87 94 0c10,0 20,-6 20,-20 0,-14 -10,-21 -20,-21l-116 0c-14,0 -21,9 -21,20l0 282c0,11 7,21 22,21l63 0c59,0 85,-31 85,-83l0 -26c0,-51 -26,-86 -85,-86zm43 112c0,28 -11,42 -43,42l-42 0 0 -115 42 0c32,0 43,17 43,45l0 28zm262 -245l-4 0c-62,0 -86,52 -86,103l0 33 -37 0 0 -114c0,-11 -4,-22 -20,-22 -15,0 -21,11 -21,22l0 289c0,11 6,22 21,22 15,0 20,-11 20,-22l0 -133 37 0 0 70c0,50 27,85 86,85l4 0c59,0 86,-40 86,-90l0 -153c0,-50 -27,-90 -86,-90zm42 243c0,28 -10,48 -42,48l-4 0c-32,0 -42,-15 -42,-43l0 -145c0,-28 8,-61 42,-61l4 0c32,0 42,20 42,48l0 153zm162 27c1,-10 16,-224 16,-224l64 0 0 265c0,11 7,22 22,22 15,0 22,-11 22,-22l0 -285c0,-11 -7,-21 -22,-21l-105 0c-15,0 -22,11 -22,21 0,0 -15,228 -16,233 0,6 -1,15 -3,20 -4,8 -11,13 -23,13 -11,0 -21,7 -21,22 0,16 10,21 21,21 33,0 52,-13 61,-37 4,-8 6,-18 6,-28zm247 0c1,-10 15,-224 15,-224l65 0 0 265c0,11 6,22 22,22 15,0 21,-11 21,-22l0 -285c0,-11 -6,-21 -21,-21l-106 0c-15,0 -22,11 -22,21 0,0 -15,228 -15,233 -1,6 -1,15 -4,20 -4,8 -11,13 -23,13 -11,0 -21,7 -21,22 0,16 10,21 21,21 33,0 53,-13 62,-37 3,-8 5,-18 6,-28zm332 58c10,0 20,-6 20,-21 0,-14 -10,-21 -20,-21l-99 0 0 -103 78 0c11,0 21,-6 21,-21 0,-14 -10,-21 -21,-21l-78 0 0 -95 99 0c10,0 20,-6 20,-20 0,-14 -10,-21 -20,-21l-121 0c-15,0 -22,10 -22,21l0 281c0,11 7,21 22,21l121 0zm115 -17c0,11 6,22 21,22 15,0 22,-11 22,-22l0 -265 53 0c11,0 21,-6 21,-20 0,-14 -10,-21 -21,-21l-150 0c-10,0 -20,7 -20,21 0,14 10,20 20,20l54 0 0 265zm298 17c11,0 21,-6 21,-21 0,-14 -10,-21 -21,-21l-98 0 0 -103 78 0c11,0 20,-6 20,-21 0,-14 -9,-21 -20,-21l-78 0 0 -95 98 0c11,0 21,-6 21,-20 0,-14 -10,-21 -21,-21l-120 0c-15,0 -22,10 -22,21l0 281c0,11 7,21 22,21l120 0zm249 -306c0,-11 -7,-22 -21,-22 -16,0 -22,11 -22,22l0 114 -94 0 0 -114c0,-11 -6,-22 -22,-22 -14,0 -21,11 -21,22l0 289c0,11 7,22 21,22 16,0 22,-11 22,-22l0 -133 94 0 0 133c0,11 6,22 22,22 14,0 21,-11 21,-22l0 -289zm157 108l-47 0 0 -108c0,-11 -6,-22 -22,-22 -15,0 -21,11 -21,22l0 284c0,11 6,22 21,22l69 0c58,0 85,-31 85,-83l0 -28c0,-51 -27,-87 -85,-87zm-47 42l47 0c31,0 43,17 43,45l0 28c0,28 -12,41 -43,41l-47 0 0 -114z"/>
   <path class="fil1" d="M3274 12830l-42 0 0 -87 93 0c11,0 21,-6 21,-20 0,-14 -10,-21 -21,-21l-115 0c-15,0 -21,9 -21,20l0 282c0,11 7,21 22,21l63 0c58,0 85,-31 85,-83l0 -26c0,-51 -27,-86 -85,-86zm43 112c0,28 -11,42 -43,42l-42 0 0 -115 42 0c32,0 43,17 43,45l0 28zm262 -245l-4 0c-62,0 -86,52 -86,103l0 33 -37 0 0 -114c0,-11 -5,-22 -20,-22 -15,0 -21,11 -21,22l0 289c0,11 6,22 21,22 15,0 20,-11 20,-22l0 -133 37 0 0 70c0,50 27,85 86,85l4 0c59,0 86,-40 86,-90l0 -153c0,-50 -27,-90 -86,-90zm42 243c0,28 -10,48 -42,48l-4 0c-32,0 -42,-15 -42,-43l0 -145c0,-28 8,-61 42,-61l4 0c32,0 42,20 42,48l0 153zm162 27c1,-10 15,-224 15,-224l65 0 0 265c0,11 6,22 22,22 15,0 21,-11 21,-22l0 -285c0,-11 -6,-21 -21,-21l-105 0c-15,0 -22,11 -23,21 0,0 -14,228 -15,233 0,6 -1,15 -4,20 -4,8 -11,13 -22,13 -11,0 -21,7 -21,22 0,16 10,21 21,21 33,0 52,-13 61,-37 3,-8 6,-18 6,-28zm247 0c1,-10 15,-224 15,-224l64 0 0 265c0,11 7,22 23,22 14,0 21,-11 21,-22l0 -285c0,-11 -7,-21 -21,-21l-106 0c-15,0 -22,11 -22,21 0,0 -15,228 -15,233 -1,6 -1,15 -4,20 -4,8 -11,13 -23,13 -11,0 -21,7 -21,22 0,16 10,21 21,21 33,0 52,-13 62,-37 3,-8 5,-18 6,-28zm331 58c11,0 21,-6 21,-21 0,-14 -10,-21 -21,-21l-98 0 0 -103 78 0c11,0 20,-6 20,-21 0,-14 -9,-21 -20,-21l-78 0 0 -95 98 0c11,0 21,-6 21,-20 0,-14 -10,-21 -21,-21l-121 0c-14,0 -21,10 -21,21l0 281c0,11 7,21 21,21l121 0zm116 -17c0,11 6,22 21,22 15,0 22,-11 22,-22l0 -265 53 0c11,0 20,-6 20,-20 0,-14 -9,-21 -20,-21l-150 0c-10,0 -20,7 -20,21 0,14 10,20 20,20l54 0 0 265zm298 17c11,0 21,-6 21,-21 0,-14 -10,-21 -21,-21l-98 0 0 -103 78 0c11,0 20,-6 20,-21 0,-14 -9,-21 -20,-21l-78 0 0 -95 98 0c11,0 21,-6 21,-20 0,-14 -10,-21 -21,-21l-121 0c-14,0 -21,10 -21,21l0 281c0,11 7,21 21,21l121 0zm249 -306c0,-11 -7,-22 -22,-22 -15,0 -21,11 -21,22l0 114 -94 0 0 -114c0,-11 -6,-22 -22,-22 -15,0 -21,11 -21,22l0 289c0,11 6,22 21,22 15,0 22,-11 22,-22l0 -133 94 0 0 133c0,11 6,22 21,22 15,0 22,-11 22,-22l0 -289zm156 108l-46 0 0 -108c0,-11 -7,-22 -22,-22 -15,0 -22,11 -22,22l0 284c0,11 7,22 22,22l68 0c59,0 86,-31 86,-83l0 -28c0,-51 -27,-87 -86,-87zm-46 42l46 0c32,0 43,17 43,45l0 28c0,28 -11,41 -43,41l-46 0 0 -114z"/>
   <path class="fil1" d="M13636 12830l-41 0 0 -87 93 0c10,0 20,-6 20,-20 0,-14 -10,-21 -20,-21l-116 0c-14,0 -21,9 -21,20l0 282c0,11 7,21 22,21l63 0c59,0 85,-31 85,-83l0 -26c0,-51 -26,-86 -85,-86zm43 112c0,28 -11,42 -43,42l-41 0 0 -115 41 0c32,0 43,17 43,45l0 28zm263 -245l-5 0c-62,0 -85,52 -85,103l0 33 -38 0 0 -114c0,-11 -4,-22 -20,-22 -15,0 -21,11 -21,22l0 289c0,11 6,22 21,22 15,0 20,-11 20,-22l0 -133 38 0 0 70c0,50 26,85 85,85l5 0c58,0 85,-40 85,-90l0 -153c0,-50 -27,-90 -85,-90zm42 243c0,28 -11,48 -42,48l-5 0c-32,0 -42,-15 -42,-43l0 -145c0,-28 8,-61 42,-61l5 0c31,0 42,20 42,48l0 153zm162 27c0,-10 15,-224 15,-224l64 0 0 265c0,11 7,22 23,22 14,0 21,-11 21,-22l0 -285c0,-11 -7,-21 -21,-21l-106 0c-15,0 -22,11 -22,21 0,0 -15,228 -16,233 0,6 0,15 -3,20 -4,8 -11,13 -23,13 -11,0 -21,7 -21,22 0,16 10,21 21,21 33,0 52,-13 62,-37 3,-8 5,-18 6,-28zm246 0c1,-10 15,-224 15,-224l65 0 0 265c0,11 6,22 22,22 15,0 21,-11 21,-22l0 -285c0,-11 -6,-21 -21,-21l-106 0c-15,0 -21,11 -22,21 0,0 -15,228 -15,233 -1,6 -1,15 -4,20 -4,8 -11,13 -22,13 -12,0 -22,7 -22,22 0,16 10,21 22,21 32,0 52,-13 61,-37 3,-8 5,-18 6,-28zm332 58c10,0 20,-6 20,-21 0,-14 -10,-21 -20,-21l-99 0 0 -103 78 0c11,0 21,-6 21,-21 0,-14 -10,-21 -21,-21l-78 0 0 -95 99 0c10,0 20,-6 20,-20 0,-14 -10,-21 -20,-21l-121 0c-15,0 -21,10 -21,21l0 281c0,11 6,21 21,21l121 0zm115 -17c0,11 6,22 21,22 15,0 22,-11 22,-22l0 -265 53 0c11,0 21,-6 21,-20 0,-14 -10,-21 -21,-21l-149 0c-11,0 -21,7 -21,21 0,14 10,20 21,20l53 0 0 265zm299 17c10,0 20,-6 20,-21 0,-14 -10,-21 -20,-21l-99 0 0 -103 78 0c11,0 21,-6 21,-21 0,-14 -10,-21 -21,-21l-78 0 0 -95 99 0c10,0 20,-6 20,-20 0,-14 -10,-21 -20,-21l-121 0c-15,0 -22,10 -22,21l0 281c0,11 7,21 22,21l121 0zm248 -306c0,-11 -7,-22 -21,-22 -16,0 -22,11 -22,22l0 114 -94 0 0 -114c0,-11 -6,-22 -21,-22 -15,0 -22,11 -22,22l0 289c0,11 7,22 22,22 15,0 21,-11 21,-22l0 -133 94 0 0 133c0,11 6,22 22,22 14,0 21,-11 21,-22l0 -289zm157 108l-47 0 0 -108c0,-11 -6,-22 -22,-22 -15,0 -21,11 -21,22l0 284c0,11 6,22 21,22l69 0c58,0 85,-31 85,-83l0 -28c0,-51 -27,-87 -85,-87zm-47 42l47 0c32,0 43,17 43,45l0 28c0,28 -11,41 -43,41l-47 0 0 -114z"/>
   <path class="fil7 str5" d="M5046 8731l-714 0 0 256 714 0 0 -256zm3666 0l-714 0 0 256 714 0 0 -256z"/>
   <path class="fil8 str0" d="M8901 5503l-4758 0c-81,0 -147,66 -147,147l0 2989c0,81 66,147 147,147l4758 0c81,0 147,-66 147,-147l0 -2989c0,-81 -66,-147 -147,-147z"/>
   <path class="fil9 str6" d="M8702 5850l-4320 0 0 2589 4320 0 0 -2589z"/>
   <path class="fil7 str7" d="M4382 6625l0 -565 -171 0 0 565 171 0zm0 1604l0 -565 -171 0 0 565 171 0z"/>
   <path class="fil10" d="M6687 7980l1642 0c38,0 69,31 69,70 0,38 -31,69 -69,69l-1642 0 0 -139zm0 -1008l821 0c38,0 69,31 69,69 0,38 -31,69 -69,69l-821 0 0 -138zm0 504l821 0c38,0 69,31 69,69 0,39 -31,70 -69,70l-821 0 0 -139zm0 -252l821 0c38,0 69,31 69,69 0,39 -31,70 -69,70l-821 0 0 -139zm0 504l1642 0c38,0 69,31 69,70 0,38 -31,69 -69,69l-1642 0 0 -139zm0 505l1642 0c38,0 69,31 69,69 0,38 -31,69 -69,69l-1642 0 0 -138z"/>
   <path class="fil11 str8" d="M6038 5103l-1656 705 0 2673 1656 704 0 -704 0 -2673 0 -705z"/>
   <path class="fil12 str9" d="M6038 5103l581 0 0 602 0 2879 0 601 -581 0 0 -601 0 -2879 0 -602z"/>
   <path class="fil13 str10" d="M6328 6220c-80,0 -146,66 -146,147 0,80 66,146 146,146 81,0 147,-66 147,-146 0,-81 -66,-147 -147,-147zm0 1556c-80,0 -146,65 -146,146 0,81 66,146 146,146 81,0 147,-65 147,-146 0,-81 -66,-146 -147,-146zm0 -778c-80,0 -146,65 -146,146 0,81 66,147 146,147 81,0 147,-66 147,-147 0,-81 -66,-146 -147,-146z"/>
   <g>
    <path class="fil13" d="M5229 7969l0 -381 125 0 0 381 -125 0z"/>
    <path id="1" class="fil14" d="M5298 7588l0 381 -138 0 0 -381 69 -69 69 69zm-138 0c0,-38 31,-69 69,-69 38,0 69,31 69,69l-138 0zm194 70l-125 0 0 -139 125 0 68 69 -68 70zm0 -139c37,0 68,31 68,69 0,39 -31,70 -68,70l0 -139zm-69 450l0 -381 137 0 0 381 -68 70 -69 -70zm137 0c0,39 -31,70 -68,70 -38,0 -69,-31 -69,-70l137 0zm-193 -69l125 0 0 139 -125 0 -69 -70 69 -69zm0 139c-38,0 -69,-31 -69,-70 0,-38 31,-69 69,-69l0 139z"/>
   </g>
   <path class="fil13 str11" d="M5553 6700c-96,0 -172,0 -268,0 -119,0 -215,199 -215,444 0,246 96,444 215,444 96,0 172,0 268,0 119,0 215,-198 215,-444 0,-245 -96,-444 -215,-444z"/>
   <g>
    <path class="fil13" d="M5540 6810l0 -491 -124 0 0 491 124 0z"/>
    <path id="1" class="fil14" d="M5609 6319l0 491 -137 0 0 -491 68 -69 69 69zm-137 0c0,-38 31,-69 68,-69 38,0 69,31 69,69l-137 0zm-56 -69l124 0 0 139 -124 0 -69 -70 69 -69zm0 139c-38,0 -69,-31 -69,-70 0,-38 31,-69 69,-69l0 139zm-69 421l0 -491 137 0 0 491 -68 70 -69 -70zm137 0c0,39 -30,70 -68,70 -38,0 -69,-31 -69,-70l137 0zm56 70l-124 0 0 -139 124 0 69 69 -69 70zm0 -139c38,0 69,31 69,69 0,39 -31,70 -69,70l0 -139z"/>
   </g>
   <path class="fil15" d="M4526 6854c30,-3 61,-6 92,-8 0,49 0,98 0,148 -31,1 -62,3 -92,4 0,-48 0,-96 0,-144zm294 445c36,2 73,3 111,5 0,54 0,108 0,161 -38,-3 -75,-6 -111,-9 0,-52 0,-105 0,-157zm-153 -7c33,2 66,3 100,5 0,51 0,103 0,154 -34,-3 -67,-6 -100,-9 0,-49 0,-100 0,-150zm153 -228c36,-1 73,-2 111,-3 0,54 0,108 0,162 -38,-1 -75,-2 -111,-3 0,-52 0,-104 0,-156zm-153 3c33,-1 66,-2 100,-2 0,51 0,103 0,154 -34,0 -67,-1 -100,-2 0,-50 0,-100 0,-150zm-49 223c0,50 0,99 0,148 -31,-2 -62,-5 -92,-8 0,-48 0,-96 0,-144 30,2 61,3 92,4zm0 -222c0,49 0,99 0,148 -31,-1 -62,-1 -92,-2 0,-48 0,-96 0,-144 30,-1 61,-1 92,-2zm202 -240c36,-3 73,-7 111,-10 0,54 0,108 0,162 -38,2 -75,3 -111,5 0,-52 0,-105 0,-157zm-153 13c33,-3 66,-6 100,-9 0,52 0,104 0,155 -34,2 -67,3 -100,5 0,-50 0,-101 0,-151z"/>
   <path class="fil16 str12" d="M5285 6805c-91,0 -165,152 -165,339 0,188 74,340 165,340 90,0 164,-152 164,-340 0,-187 -74,-339 -164,-339z"/>
   <path class="fil17" d="M11565 7395l-307 -354 355 921 86 -588 -41 -112 -93 133z"/>
   <path class="fil17" d="M12025 7395l307 -354 -354 921 -86 -588 40 -112 93 133z"/>
   <path class="fil18 str13" d="M12801 8987l0 -1220 1002 9 0 -256c0,-307 -246,-557 -546,-557l-542 0 -320 0 -600 1434 -600 -1434 -326 0c-301,0 -547,250 -547,557l0 1467 2479 0z"/>
   <path class="fil19 str13" d="M11795 8511l-413 -421 0 -281 -339 -253 74 -593 78 0 600 1434 600 -1434 78 0 74 593 -339 253 0 281 -413 421z"/>
   <path class="fil20 str13" d="M11974 7971l-179 426 -182 -435 86 -588 96 0 96 0 83 597z"/>
   <g>
    <path class="fil20" d="M11983 7119l-376 0 92 255 96 0 96 0 92 -255z"/>
    <path id="1" class="fil21" d="M11607 7049l376 0 0 139 -376 0 -66 -46 66 -93zm0 139c-39,0 -70,-31 -70,-69 0,-38 31,-70 70,-70l0 139zm26 210l-92 -256 132 -46 92 255 -66 93 -66 -46zm132 -47c13,36 -6,76 -42,89 -37,13 -77,-6 -90,-42l132 -47zm30 93l-96 0 0 -139 96 0 0 0 0 139zm0 -139c39,0 70,31 70,69 0,39 -31,70 -70,70l0 -139zm96 139l-96 0 0 -139 96 0 66 93 -66 46zm0 -139c39,0 70,31 70,69 0,39 -31,70 -70,70l0 -139zm158 -163l-92 256 -132 -47 92 -255 66 -47 66 93zm-132 -46c13,-37 54,-55 90,-42 36,12 55,52 42,88l-132 -46z"/>
   </g>
   <path class="fil15 str13" d="M11195 6963l361 445 102 -146 -51 -143 -276 -365 -136 209z"/>
   <path class="fil3 str12" d="M10928 8276l0 711m2340 -1220l-467 0 0 1220"/>
   <path class="fil3 str13" d="M11795 8397l0 590"/>
   <path class="fil22 str12" d="M11795 6723c206,1 928,-291 928,-776l0 -554c-123,-292 -37,-477 -188,-640 -148,63 -307,58 -474,5 -163,354 -775,200 -1006,-5 -151,163 -65,348 -188,640l0 554c0,485 722,777 928,776z"/>
   <path class="fil22 str12" d="M11983 7119l125 -166 0 -315c-130,56 -248,85 -313,85 -66,0 -183,-29 -313,-85l0 315 125 166 376 0z"/>
   <path class="fil23 str12" d="M11795 3937c-53,-10 -108,-15 -164,-15l0 0c-505,0 -918,413 -918,918l0 618c37,-40 92,-65 154,-65 123,-292 37,-477 188,-640 226,196 843,359 1006,5 167,53 326,58 474,-5 151,163 65,348 188,640 62,0 116,25 154,65l0 -618c0,-505 -413,-918 -918,-918l0 0c-56,0 -111,5 -164,15zm-1066 1789c26,134 82,259 160,366 -15,-46 -22,-95 -22,-145l0 -171c-53,0 -101,-19 -138,-50zm1994 50l0 171c0,50 -7,98 -22,145 78,-107 134,-232 159,-366 -36,31 -84,50 -137,50z"/>
   <path class="fil2 str12" d="M11482 6731l0 222 -151 -198 151 -24z"/>
   <path class="fil2 str12" d="M12108 6731l0 222 151 -198 -151 -24z"/>
   <path class="fil3 str12" d="M11055 4753c-88,-79 -146,-175 -162,-259 267,-35 317,-194 523,-227"/>
   <path class="fil2 str12" d="M11995 8308l536 0 0 308 -536 0 0 -308z"/>
   <path class="fil16 str12" d="M12224 5476c-36,0 -65,29 -65,65 0,35 29,64 65,64 35,0 64,-29 64,-64 0,-36 -29,-65 -64,-65zm-858 0c36,0 65,29 65,65 0,35 -29,64 -65,64 -35,0 -64,-29 -64,-64 0,-36 29,-65 64,-65z"/>
   <path class="fil22 str12" d="M10663 5584c0,-106 91,-191 204,-191l0 191 0 192c-113,0 -204,-86 -204,-192zm2264 0c0,-106 -91,-191 -204,-191l0 191 0 192c113,0 204,-86 204,-192z"/>
   <path class="fil15 str13" d="M12395 6963l-361 445 -102 -146 51 -143 276 -365 136 209z"/>
   <path class="fil2 str12" d="M11935 6369c-34,39 -93,65 -158,65 -105,0 -191,-66 -191,-147 0,-29 12,-56 31,-79 77,79 188,137 318,161z"/>
   <path class="fil23 str12" d="M11445 6087c230,-128 456,-111 680,0 0,30 0,60 0,90 0,72 0,10 0,82 -227,0 -454,0 -680,0 0,-101 0,-70 0,-172z"/>
   <path class="fil22 str0" d="M9831 8987l928 0c0,-45 0,-107 0,-150 0,-209 -96,-324 -238,-363 -86,-24 -225,-23 -306,25 -58,36 -105,96 -104,142 -96,-117 -284,-10 -284,189 0,28 4,107 4,157z"/>
   <path class="fil3 str12" d="M10139 8689l-332 -1239"/>
   <path class="fil6" d="M7733 11261l-103 0 -312 -482 103 -66 312 481 -103 0 103 67zm0 0l-52 78 -51 -78 103 0zm261 -515l51 33 -312 482 -103 -67 312 -481 52 33zm-252 387l0 3 0 3 0 3 -1 3 0 3 -1 3 -1 3 -1 3 -2 2 -1 3 -1 2 -2 3 -2 2 -1 3 -2 2 -2 2 -3 2 -2 2 -2 2 -2 1 -3 2 -2 1 -3 2 -3 1 -3 1 -2 1 -3 1 -3 1 -3 0 -3 0 -3 1 -4 0 -3 0 -3 -1 -3 0 -3 0 -3 -1 -3 -1 -3 -1 -2 -1 -3 -1 -3 -2 -2 -1 -3 -2 -2 -1 -2 -2 -3 -2 -2 -2 -2 -2 -2 -2 -1 -3 -2 -2 -2 -3 -1 -2 -2 -3 -1 -2 -1 -3 -1 -3 -1 -3 0 -3 -1 -3 0 -3 0 -3 -1 -3 122 0zm-122 -780l122 0 0 780 -122 0 0 -780zm0 0l1 -3 0 -3 0 -3 1 -3 0 -3 1 -3 1 -3 1 -2 1 -3 2 -3 1 -2 2 -3 2 -2 1 -2 2 -3 2 -2 2 -2 3 -2 2 -1 2 -2 3 -2 2 -1 3 -2 3 -1 2 -1 3 -1 3 -1 3 0 3 -1 3 0 3 -1 3 0 4 0 3 1 3 0 3 1 3 0 3 1 2 1 3 1 3 1 3 2 2 1 3 2 2 2 2 1 2 2 3 2 2 2 2 3 1 2 2 2 2 3 1 2 1 3 2 3 1 2 1 3 1 3 0 3 1 3 0 3 0 3 0 3 -122 0z"/>
   <path class="fil6" d="M4278 11261l-102 0 -312 -482 103 -66 311 481 -102 0 102 67zm0 0l-51 78 -51 -78 102 0zm262 -515l51 33 -313 482 -102 -67 312 -481 52 33zm-252 387l0 3 0 3 0 3 -1 3 -1 3 0 3 -1 3 -1 3 -2 2 -1 3 -2 2 -1 3 -2 2 -2 3 -2 2 -2 2 -2 2 -2 2 -2 2 -3 1 -2 2 -3 1 -2 2 -3 1 -3 1 -3 1 -2 1 -3 1 -3 0 -3 0 -4 1 -3 0 -3 0 -3 -1 -3 0 -3 0 -3 -1 -3 -1 -3 -1 -2 -1 -3 -1 -3 -2 -2 -1 -3 -2 -2 -1 -2 -2 -3 -2 -2 -2 -2 -2 -2 -2 -2 -3 -1 -2 -2 -3 -1 -2 -2 -3 -1 -2 -1 -3 -1 -3 -1 -3 0 -3 -1 -3 0 -3 -1 -3 0 -3 122 0zm-122 -780l122 0 0 780 -122 0 0 -780zm0 0l0 -3 1 -3 0 -3 1 -3 0 -3 1 -3 1 -3 1 -2 1 -3 2 -3 1 -2 2 -3 1 -2 2 -2 2 -3 2 -2 2 -2 3 -2 2 -1 2 -2 3 -2 2 -1 3 -2 3 -1 2 -1 3 -1 3 -1 3 0 3 -1 3 0 3 -1 3 0 3 0 4 1 3 0 3 1 3 0 2 1 3 1 3 1 3 1 2 2 3 1 2 2 3 2 2 1 2 2 2 2 2 2 2 3 2 2 2 2 1 3 2 2 1 3 2 3 1 2 1 3 0 3 1 3 1 3 0 3 0 3 0 3 -122 0z"/>
   <path class="fil6" d="M11187 11261l-103 0 -312 -482 103 -66 312 481 -103 0 103 67zm0 0l-51 78 -52 -78 103 0zm261 -515l51 33 -312 482 -103 -67 313 -481 51 33zm-251 387l-1 3 0 3 0 3 -1 3 0 3 -1 3 -1 3 -1 3 -1 2 -2 3 -1 2 -2 3 -2 2 -1 3 -2 2 -2 2 -2 2 -3 2 -2 2 -2 1 -3 2 -2 1 -3 2 -3 1 -2 1 -3 1 -3 1 -3 1 -3 0 -3 0 -3 1 -3 0 -4 0 -3 -1 -3 0 -3 0 -3 -1 -3 -1 -2 -1 -3 -1 -3 -1 -2 -2 -3 -1 -3 -2 -2 -1 -2 -2 -2 -2 -3 -2 -2 -2 -1 -2 -2 -3 -2 -2 -2 -3 -1 -2 -1 -3 -2 -2 -1 -3 -1 -3 0 -3 -1 -3 -1 -3 0 -3 0 -3 0 -3 122 0zm-122 -780l122 0 0 780 -122 0 0 -780zm0 0l0 -3 0 -3 0 -3 1 -3 1 -3 0 -3 1 -3 1 -2 2 -3 1 -3 1 -2 2 -3 2 -2 2 -2 1 -3 2 -2 3 -2 2 -2 2 -1 2 -2 3 -2 3 -1 2 -2 3 -1 3 -1 2 -1 3 -1 3 0 3 -1 3 0 3 -1 4 0 3 0 3 1 3 0 3 1 3 0 3 1 3 1 2 1 3 1 3 2 2 1 3 2 2 2 2 1 3 2 2 2 2 2 2 3 1 2 2 2 2 3 1 2 2 3 1 3 1 2 1 3 1 3 0 3 1 3 0 3 0 3 1 3 -122 0z"/>
   <path class="fil6" d="M14641 11261l-102 0 -312 -482 102 -66 312 481 -102 0 102 67zm0 0l-51 78 -51 -78 102 0zm261 -515l51 33 -312 482 -102 -67 312 -481 51 33zm-251 387l0 3 -1 3 0 3 -1 3 0 3 -1 3 -1 3 -1 3 -1 2 -2 3 -1 2 -2 3 -1 2 -2 3 -2 2 -2 2 -2 2 -3 2 -2 2 -2 1 -3 2 -2 1 -3 2 -3 1 -2 1 -3 1 -3 1 -3 1 -3 0 -3 0 -3 1 -3 0 -3 0 -4 -1 -3 0 -3 0 -3 -1 -2 -1 -3 -1 -3 -1 -3 -1 -2 -2 -3 -1 -2 -2 -3 -1 -2 -2 -2 -2 -2 -2 -2 -2 -2 -2 -2 -3 -2 -2 -1 -3 -2 -2 -1 -3 -1 -2 -2 -3 -1 -3 0 -3 -1 -3 -1 -3 0 -3 0 -3 0 -3 122 0zm-122 -780l122 0 0 780 -122 0 0 -780zm0 0l0 -3 0 -3 0 -3 1 -3 1 -3 0 -3 1 -3 2 -2 1 -3 1 -3 2 -2 1 -3 2 -2 2 -2 2 -3 2 -2 2 -2 2 -2 2 -1 3 -2 2 -2 3 -1 2 -2 3 -1 3 -1 3 -1 2 -1 3 0 3 -1 3 0 4 -1 3 0 3 0 3 1 3 0 3 1 3 0 3 1 3 1 2 1 3 1 3 2 2 1 3 2 2 2 2 1 3 2 2 2 2 2 2 3 2 2 1 2 2 3 1 2 2 3 1 3 1 2 1 3 1 3 0 3 1 3 0 3 1 3 0 3 -122 0z"/>
   <path class="fil2 str14" d="M17487 2665l0 6322 -4248 0c0,-158 0,-234 0,-548l0 -5774 4248 0z"/>
   <path class="fil24" d="M13239 2665l4248 0 0 2380 -4231 -2001c-17,-149 -17,-282 -17,-379z"/>
   <path class="fil21" d="M13823 4652c0,-36 -15,-58 -46,-69 21,-12 32,-29 32,-56l0 -15c0,-49 -28,-74 -83,-74l-51 0c-15,0 -21,10 -21,20l0 266c0,10 6,20 21,20l65 0c56,0 83,-29 83,-78l0 -14zm-128 -44l45 0c30,0 42,17 42,44l0 14c0,26 -12,39 -42,39l-45 0 0 -97zm0 -39l0 -92 31 0c29,0 42,9 42,35l0 15c0,26 -13,42 -42,42l-31 0zm245 142c-29,0 -35,-17 -35,-44l0 -73c0,-27 6,-44 35,-44l9 0c30,0 35,17 35,44l0 73c0,27 -5,44 -35,44l-9 0zm9 38c55,0 74,-34 74,-82l0 -73c0,-48 -19,-82 -74,-82l-9 0c-55,0 -74,34 -74,82l0 73c0,48 19,82 74,82l9 0zm227 -126c9,-3 34,-14 34,-48 0,-44 -23,-63 -71,-63 -49,0 -68,12 -68,53 0,11 7,20 21,20 14,0 18,-8 18,-19 0,-12 12,-16 30,-16 18,0 33,6 33,32 0,18 -18,25 -37,25 -13,0 -16,9 -16,17 0,9 3,18 17,18 29,0 39,13 39,38 0,19 -14,31 -35,31l-5 0c-17,0 -31,-5 -31,-16 0,-11 -6,-19 -20,-19 -14,0 -19,9 -19,20 0,38 26,52 69,52l6 0c56,0 74,-31 74,-68 0,-42 -24,-54 -39,-57zm201 0c17,-7 27,-20 27,-41l0 -14c0,-43 -29,-51 -64,-51l-54 0c-14,0 -20,9 -20,19l0 189c0,10 6,19 20,19l61 0c40,0 64,-17 64,-57l0 -14c0,-27 -15,-43 -34,-50zm-71 -69l29 0c18,0 30,5 30,20l0 8c0,14 -10,27 -27,27l-32 0 0 -55zm66 133c0,13 -7,20 -25,20l-41 0 0 -64 37 0c18,0 29,10 29,24l0 20zm111 -170c-14,0 -21,9 -21,20l0 296c0,11 6,20 20,20 14,0 20,-9 20,-20l0 -89 31 0c55,0 80,-34 80,-83l0 -67c0,-49 -24,-77 -78,-77l-52 0zm19 189l0 -152 33 0c29,0 39,14 39,40l0 67c0,28 -11,45 -41,45l-31 0zm200 -189c-11,0 -19,5 -19,19 0,13 8,18 19,18l37 0c18,0 29,7 29,28l0 10 -42 0c-40,0 -64,17 -64,57l0 38c0,40 24,57 64,57l61 0c14,0 20,-9 20,-19l0 -143c0,-40 -25,-65 -68,-65l-37 0zm24 190c-18,0 -24,-7 -24,-20l0 -37c0,-14 6,-21 24,-21l42 0 0 78 -42 0zm393 18c0,-13 -8,-19 -18,-19l-14 0 0 -173c0,-11 -6,-20 -19,-20 -14,0 -20,9 -20,20l0 173 -53 0 0 -173c0,-11 -6,-20 -19,-20 -14,0 -19,9 -19,20l0 173 -54 0 0 -173c0,-11 -5,-20 -19,-20 -13,0 -19,9 -19,20l0 191c0,10 6,20 20,20 0,0 163,0 167,0 6,0 11,-1 16,-1l-24 41c-5,9 -5,20 7,27 12,6 22,1 27,-8l40 -69 0 0c1,-2 1,-5 1,-9zm188 -135c0,-48 -17,-78 -72,-78l-6 0c-54,0 -76,30 -76,78l0 71c0,49 23,83 78,83l40 0c11,0 19,-6 19,-19 0,-13 -8,-19 -19,-19l-40 0c-30,0 -38,-17 -38,-45l0 -13 95 0c10,0 19,-6 19,-19l0 -39zm-114 21l0 -21c0,-26 7,-41 36,-41l6 0c29,0 32,15 32,41l0 21 -74 0zm305 -99c-15,0 -20,10 -20,21l0 73 -80 0 0 -73c0,-11 -6,-21 -20,-21 -14,0 -20,10 -20,21l0 195c0,11 6,20 20,20 14,0 20,-9 20,-20l0 -86 80 0 0 86c0,11 5,20 19,20 15,0 20,-9 20,-20l0 -195c0,-11 -5,-21 -19,-21zm149 199c-30,0 -35,-17 -35,-44l0 -73c0,-27 5,-44 35,-44l9 0c30,0 35,17 35,44l0 73c0,27 -5,44 -35,44l-9 0zm9 38c55,0 74,-34 74,-82l0 -73c0,-48 -19,-82 -74,-82l-9 0c-55,0 -74,34 -74,82l0 73c0,48 19,82 74,82l9 0zm1303 -236c-14,0 -19,9 -19,20l0 173 -54 0 0 -173c0,-11 -6,-20 -19,-20 -14,0 -19,9 -19,20l0 173 -54 0 0 -173c0,-11 -5,-20 -19,-20 -13,0 -19,9 -19,20l0 191c0,10 6,20 19,20l183 0c14,0 20,-10 20,-20l0 -191c0,-11 -6,-20 -19,-20zm196 4l-116 0c-11,0 -20,5 -20,19 0,14 9,18 20,18l38 0 0 174c0,11 5,20 19,20 15,0 20,-9 20,-20l0 -174 39 0c10,0 19,-4 19,-18 0,-14 -9,-19 -19,-19z"/>
   <path class="fil6 str15" d="M16157 4722c0,15 7,28 27,28 21,0 28,-13 28,-28l0 -98 31 0c15,0 27,-8 27,-27 0,-20 -12,-28 -27,-28l-31 0 0 -117c0,-16 -7,-28 -28,-28 -20,0 -27,12 -27,28l0 117 -132 0c31,-68 56,-154 69,-229 2,-14 1,-30 -18,-35 -19,-4 -32,5 -35,20 -18,97 -47,179 -78,251 -3,9 -3,15 -3,21 0,20 12,27 27,27l170 0 0 98zm423 -106c0,-50 -20,-89 -65,-103 28,-16 45,-43 45,-82l0 -8c0,-69 -40,-108 -118,-108l-32 0c-63,0 -101,27 -101,91 0,15 8,28 28,28 21,0 29,-13 29,-28 0,-26 17,-37 44,-37l32 0c43,0 61,17 61,54l0 8c0,38 -23,65 -66,65l-35 0c-15,0 -27,8 -27,27 0,19 12,26 27,26l62 0c43,0 59,28 59,67l0 20c0,38 -18,60 -61,60l-64 0c-27,0 -44,-11 -44,-37 0,-15 -8,-28 -29,-28 -20,0 -28,13 -28,28 0,65 38,91 101,91l64 0c79,0 118,-45 118,-114l0 -20z"/>
   <path class="fil21 str16" d="M13778 3695l99 0c42,0 58,27 58,64l0 14c0,36 -16,56 -58,56l-99 0 0 -134zm0 -53l0 -127 73 0c41,0 58,15 58,51l0 14c0,37 -17,62 -58,62l-73 0zm214 117c0,-50 -23,-85 -67,-99 26,-16 41,-43 41,-80l0 -14c0,-68 -39,-105 -115,-105l-101 0c-20,0 -29,13 -29,28l0 367c0,15 9,28 29,28l127 0c77,0 115,-44 115,-111l0 -14zm296 125c14,0 26,-8 26,-27 0,-18 -12,-28 -26,-28l-166 0 0 -136 137 0c14,0 26,-7 26,-27 0,-18 -12,-27 -26,-27l-137 0 0 -124 166 0c14,0 26,-8 26,-27 0,-18 -12,-27 -26,-27l-195 0c-19,0 -28,13 -28,28l0 367c0,15 9,28 28,28l195 0zm370 -55l-11 0 0 -340c0,-15 -9,-28 -28,-28l-146 0c-19,0 -27,13 -30,28l-54 340 -19 0c-19,0 -28,14 -28,28l0 78c0,15 9,28 28,28 21,0 29,-13 29,-28l0 -51 230 0 0 51c0,15 9,28 29,28 20,0 28,-13 28,-28l0 -78c0,-14 -8,-28 -28,-28l0 0zm-207 -41l42 -273 97 0 0 314 -147 0c4,-15 6,-27 8,-41l0 0zm348 -212c0,-38 16,-67 58,-67l48 0c42,0 58,29 58,67l0 193c0,37 -16,66 -58,66l-48 0c-42,0 -58,-29 -58,-66l0 -193zm221 0c0,-67 -38,-121 -115,-121l-48 0c-77,0 -115,54 -115,121l0 193c0,66 38,121 115,121l48 0c77,0 115,-55 115,-121l0 -193zm251 119c-4,-11 -9,-23 -15,-34l-94 -186c-8,-17 -16,-20 -28,-20 -20,0 -28,13 -28,28l0 379c0,15 8,28 28,28 20,0 28,-13 28,-28l0 -233c0,-16 -2,-31 -3,-42l1 0 86 169c4,8 10,14 25,14 14,0 20,-6 25,-14l86 -169 1 0c-1,11 -3,26 -3,42l0 233c0,15 8,28 28,28 20,0 28,-13 28,-28l0 -379c0,-15 -8,-28 -28,-28 -13,0 -20,3 -28,20l-95 186c-6,11 -10,23 -14,34zm308 -119c0,-38 16,-67 58,-67l48 0c42,0 58,29 58,67l0 193c0,37 -16,66 -58,66l-48 0c-42,0 -58,-29 -58,-66l0 -193zm221 0c0,-67 -38,-121 -115,-121l-48 0c-77,0 -115,54 -115,121l0 193c0,66 38,121 115,121l48 0c77,0 115,-55 115,-121l0 -193zm194 259c-41,0 -58,-29 -58,-66l0 -193c0,-38 17,-67 58,-67l62 0c26,0 40,11 42,36 1,14 9,28 28,28 20,0 29,-14 29,-28 0,-63 -38,-90 -99,-90l-62 0c-77,0 -115,54 -115,121l0 193c0,66 38,121 115,121l62 0c61,0 99,-27 99,-90 0,-15 -9,-28 -29,-28 -19,0 -27,13 -28,28 -2,25 -16,35 -42,35l-62 0zm337 55c20,0 28,-13 28,-28l0 -347 88 0c14,0 27,-8 27,-27 0,-18 -13,-27 -27,-27l-233 0c-14,0 -26,9 -26,27 0,19 12,27 26,27l88 0 0 347c0,15 9,28 29,28zm348 -265l-95 0 0 -142c0,-15 -9,-28 -28,-28 -20,0 -29,13 -29,28l0 373c0,15 9,28 29,28l123 0c78,0 116,-51 116,-117l0 -28c0,-67 -36,-114 -116,-114zm60 148c0,36 -17,56 -58,56l-97 0 0 -150 95 0c42,0 60,21 60,57l0 37z"/>
   <path class="fil5 str14" d="M17487 8987l0 -6322 -4248 0 0 0 0 6322 4248 0z"/>
   <path class="fil21 str17" d="M13820 8170c0,12 7,24 24,24 17,0 24,-12 24,-24l0 -328c0,-13 -7,-24 -25,-24 -10,0 -17,3 -25,18l-139 248 0 0c1,-9 2,-22 2,-36l0 -206c0,-13 -7,-24 -24,-24 -18,0 -24,11 -24,24l0 328c0,12 7,24 25,24 10,0 16,-4 24,-18l140 -249 0 0c-1,10 -2,22 -2,36l0 207zm218 24c17,0 24,-12 24,-24l0 -300 76 0c12,0 23,-7 23,-23 0,-16 -11,-24 -23,-24l-201 0c-12,0 -23,8 -23,24 0,16 11,23 23,23l76 0 0 300c0,12 7,24 25,24zm213 -272c0,-32 14,-57 50,-57l42 0c36,0 50,25 50,57l0 167c0,33 -14,58 -50,58l-42 0c-36,0 -50,-25 -50,-58l0 -167zm191 0c0,-57 -33,-104 -99,-104l-42 0c-66,0 -99,47 -99,104l0 167c0,58 33,105 99,105l42 0c66,0 99,-47 99,-105l0 -167zm101 -99c-19,0 -27,12 -27,24l0 323c0,12 8,24 25,24 17,0 24,-12 24,-24l0 -300 140 0c12,0 23,-7 23,-23 0,-16 -11,-24 -20,-24l-165 0zm275 99c0,-32 15,-57 51,-57l41 0c36,0 50,25 50,57l0 167c0,33 -14,58 -50,58l-41 0c-36,0 -51,-25 -51,-58l0 -167zm191 0c0,-57 -32,-104 -99,-104l-41 0c-67,0 -100,47 -100,104l0 167c0,58 33,105 100,105l41 0c67,0 99,-47 99,-105l0 -167zm120 45c0,-15 -7,-28 -28,-28 -21,0 -28,13 -28,28l0 5c0,15 7,28 28,28 21,0 28,-13 28,-28l0 -5zm0 193c0,-15 -7,-28 -28,-28 -21,0 -28,13 -28,28l0 5c0,16 7,29 28,29 21,0 28,-13 28,-29l0 -5zm1742 -248c-17,0 -23,11 -23,24l0 207 -80 0 0 -207c0,-13 -6,-24 -23,-24 -17,0 -24,11 -24,24l0 207 -79 0 0 -207c0,-13 -6,-24 -23,-24 -18,0 -24,11 -24,24l0 228c0,13 7,24 24,24l252 0c17,0 24,-11 24,-24l0 -228c0,-13 -7,-24 -24,-24zm272 5l-173 0c-12,0 -23,5 -23,22 0,16 11,23 23,23l63 0 0 208c0,12 6,24 24,24 16,0 23,-12 23,-24l0 -208 63 0c12,0 23,-7 23,-23 0,-17 -11,-22 -23,-22z"/>
   <path class="fil6 str18" d="M15520 7700c-12,0 -19,5 -26,12 -35,38 -74,76 -115,114 -13,12 -18,27 -1,44 16,16 31,10 43,0 26,-22 52,-49 75,-75l0 347 -90 0c-17,0 -32,9 -32,32 0,23 15,32 32,32l231 0c18,0 32,-9 32,-32 0,-23 -14,-32 -32,-32l-75 0 0 -408c0,-19 -5,-34 -30,-34l-12 0zm327 479c0,19 9,34 33,34 24,0 34,-15 34,-34l0 -60c0,-100 20,-162 69,-243l75 -119c17,-28 5,-50 -28,-50l-265 0c-18,0 -32,9 -32,32 0,23 14,32 32,32l209 0 -45 70c-65,98 -82,163 -82,278l0 60zm444 -476c-113,68 -149,158 -149,270l0 105c0,82 46,135 138,135l42 0c92,0 139,-49 139,-131l0 -36c0,-81 -47,-138 -139,-138l-108 0c9,-58 42,-105 113,-149 15,-9 27,-27 13,-47 -13,-20 -33,-19 -49,-9zm-11 446c-50,0 -71,-26 -71,-71l0 -106 113 0c50,0 72,29 72,74l0 36c0,45 -22,67 -72,67l-42 0z"/>
   <path class="fil21" d="M13823 5409c0,-35 -15,-58 -46,-68 21,-13 32,-30 32,-57l0 -14c0,-49 -28,-74 -83,-74l-51 0c-15,0 -21,9 -21,20l0 265c0,11 6,21 21,21l65 0c56,0 83,-30 83,-79l0 -14zm-128 -44l45 0c30,0 42,18 42,44l0 14c0,27 -12,39 -42,39l-45 0 0 -97zm0 -38l0 -92 31 0c29,0 42,8 42,35l0 14c0,27 -13,43 -42,43l-31 0zm245 142c-29,0 -35,-17 -35,-44l0 -73c0,-27 6,-44 35,-44l9 0c30,0 35,17 35,44l0 73c0,27 -5,44 -35,44l-9 0zm9 37c55,0 74,-33 74,-81l0 -73c0,-48 -19,-82 -74,-82l-9 0c-55,0 -74,34 -74,82l0 73c0,48 19,81 74,81l9 0zm227 -126c9,-3 34,-13 34,-47 0,-45 -23,-63 -71,-63 -49,0 -68,12 -68,52 0,12 7,21 21,21 14,0 18,-9 18,-20 0,-12 12,-15 30,-15 18,0 33,5 33,31 0,19 -18,26 -37,26 -13,0 -16,9 -16,17 0,9 3,17 17,17 29,0 39,13 39,39 0,19 -14,30 -35,30l-5 0c-17,0 -31,-4 -31,-16 0,-10 -6,-19 -20,-19 -14,0 -19,9 -19,21 0,37 26,52 69,52l6 0c56,0 74,-32 74,-69 0,-42 -24,-53 -39,-57zm201 1c17,-7 27,-20 27,-41l0 -15c0,-42 -29,-51 -64,-51l-54 0c-14,0 -20,9 -20,20l0 188c0,11 6,20 20,20l61 0c40,0 64,-17 64,-57l0 -15c0,-26 -15,-42 -34,-49zm-71 -70l29 0c18,0 30,6 30,20l0 8c0,14 -10,27 -27,27l-32 0 0 -55zm66 134c0,13 -7,20 -25,20l-41 0 0 -65 37 0c18,0 29,10 29,24l0 21zm111 -171c-14,0 -21,10 -21,20l0 297c0,11 6,20 20,20 14,0 20,-9 20,-20l0 -89 31 0c55,0 80,-35 80,-84l0 -66c0,-49 -24,-78 -78,-78l-52 0zm19 190l0 -152 33 0c29,0 39,13 39,40l0 66c0,28 -11,46 -41,46l-31 0zm200 -190c-11,0 -19,6 -19,19 0,13 8,19 19,19l37 0c18,0 29,6 29,28l0 10 -42 0c-40,0 -64,17 -64,57l0 38c0,40 24,57 64,57l61 0c14,0 20,-9 20,-20l0 -143c0,-39 -25,-65 -68,-65l-37 0zm24 191c-18,0 -24,-7 -24,-20l0 -37c0,-14 6,-21 24,-21l42 0 0 78 -42 0zm393 18c0,-14 -8,-19 -18,-19l-14 0 0 -173c0,-11 -6,-21 -19,-21 -14,0 -20,10 -20,21l0 173 -53 0 0 -173c0,-11 -6,-21 -19,-21 -14,0 -19,10 -19,21l0 173 -54 0 0 -173c0,-11 -5,-21 -19,-21 -13,0 -19,10 -19,21l0 190c0,11 6,21 20,21 0,0 163,0 167,0 6,0 11,-1 16,-2l-24 42c-5,9 -5,19 7,26 12,7 22,1 27,-7l40 -69 0 0c1,-3 1,-6 1,-9zm188 -136c0,-48 -17,-77 -72,-77l-6 0c-54,0 -76,29 -76,77l0 71c0,49 23,84 78,84l40 0c11,0 19,-6 19,-19 0,-13 -8,-19 -19,-19l-40 0c-30,0 -38,-18 -38,-46l0 -13 95 0c10,0 19,-6 19,-19l0 -39zm-114 22l0 -22c0,-25 7,-40 36,-40l6 0c29,0 32,15 32,40l0 22 -74 0zm305 -99c-15,0 -20,10 -20,20l0 73 -80 0 0 -73c0,-10 -6,-20 -20,-20 -14,0 -20,10 -20,20l0 196c0,10 6,20 20,20 14,0 20,-10 20,-20l0 -86 80 0 0 86c0,10 5,20 19,20 15,0 20,-10 20,-20l0 -196c0,-10 -5,-20 -19,-20zm149 199c-30,0 -35,-17 -35,-44l0 -73c0,-27 5,-44 35,-44l9 0c30,0 35,17 35,44l0 73c0,27 -5,44 -35,44l-9 0zm9 37c55,0 74,-33 74,-81l0 -73c0,-48 -19,-82 -74,-82l-9 0c-55,0 -74,34 -74,82l0 73c0,48 19,81 74,81l9 0zm1303 -236c-14,0 -19,10 -19,21l0 173 -54 0 0 -173c0,-11 -6,-21 -19,-21 -14,0 -19,10 -19,21l0 173 -54 0 0 -173c0,-11 -5,-21 -19,-21 -13,0 -19,10 -19,21l0 190c0,11 6,21 19,21l183 0c14,0 20,-10 20,-21l0 -190c0,-11 -6,-21 -19,-21zm196 4l-116 0c-11,0 -20,6 -20,20 0,13 9,18 20,18l38 0 0 174c0,10 5,20 19,20 15,0 20,-10 20,-20l0 -174 39 0c10,0 19,-5 19,-18 0,-14 -9,-20 -19,-20z"/>
   <path class="fil6 str15" d="M16157 5479c0,16 7,29 27,29 21,0 28,-13 28,-29l0 -98 31 0c15,0 27,-8 27,-27 0,-19 -12,-27 -27,-27l-31 0 0 -117c0,-16 -7,-29 -28,-29 -20,0 -27,13 -27,29l0 117 -132 0c31,-69 56,-154 69,-229 2,-15 1,-30 -18,-35 -19,-5 -32,4 -35,20 -18,97 -47,179 -78,251 -3,8 -3,14 -3,21 0,19 12,26 27,26l170 0 0 98zm289 26c96,-57 127,-134 127,-229l0 -89c0,-70 -39,-114 -118,-114l-35 0c-79,0 -118,41 -118,111l0 30c0,69 39,117 118,117l92 0c-9,50 -36,90 -97,126 -13,8 -22,23 -11,41 11,17 29,16 42,7zm9 -378c43,0 61,22 61,60l0 90 -96 0c-43,0 -61,-24 -61,-63l0 -30c0,-38 18,-57 61,-57l35 0z"/>
   <path class="fil21" d="M13823 6167c0,-35 -15,-58 -46,-69 21,-12 32,-29 32,-56l0 -15c0,-49 -28,-74 -83,-74l-51 0c-15,0 -21,10 -21,20l0 266c0,10 6,20 21,20l65 0c56,0 83,-29 83,-78l0 -14zm-128 -44l45 0c30,0 42,17 42,44l0 14c0,26 -12,39 -42,39l-45 0 0 -97zm0 -39l0 -91 31 0c29,0 42,8 42,34l0 15c0,26 -13,42 -42,42l-31 0zm245 142c-29,0 -35,-17 -35,-44l0 -73c0,-27 6,-44 35,-44l9 0c30,0 35,17 35,44l0 73c0,27 -5,44 -35,44l-9 0zm9 38c55,0 74,-34 74,-82l0 -73c0,-48 -19,-81 -74,-81l-9 0c-55,0 -74,33 -74,81l0 73c0,48 19,82 74,82l9 0zm227 -126c9,-3 34,-14 34,-48 0,-44 -23,-62 -71,-62 -49,0 -68,11 -68,52 0,11 7,20 21,20 14,0 18,-8 18,-19 0,-12 12,-16 30,-16 18,0 33,6 33,32 0,18 -18,25 -37,25 -13,0 -16,10 -16,17 0,9 3,18 17,18 29,0 39,13 39,38 0,20 -14,31 -35,31l-5 0c-17,0 -31,-4 -31,-16 0,-11 -6,-19 -20,-19 -14,0 -19,9 -19,20 0,38 26,52 69,52l6 0c56,0 74,-31 74,-68 0,-42 -24,-53 -39,-57zm201 0c17,-6 27,-20 27,-41l0 -14c0,-43 -29,-51 -64,-51l-54 0c-14,0 -20,9 -20,19l0 189c0,10 6,19 20,19l61 0c40,0 64,-17 64,-57l0 -14c0,-27 -15,-43 -34,-50zm-71 -69l29 0c18,0 30,5 30,20l0 8c0,14 -10,27 -27,27l-32 0 0 -55zm66 133c0,13 -7,20 -25,20l-41 0 0 -64 37 0c18,0 29,10 29,24l0 20zm111 -170c-14,0 -21,9 -21,20l0 296c0,11 6,20 20,20 14,0 20,-9 20,-20l0 -89 31 0c55,0 80,-34 80,-83l0 -67c0,-49 -24,-77 -78,-77l-52 0zm19 190l0 -153 33 0c29,0 39,14 39,40l0 67c0,28 -11,46 -41,46l-31 0zm200 -190c-11,0 -19,6 -19,19 0,13 8,18 19,18l37 0c18,0 29,7 29,28l0 10 -42 0c-40,0 -64,17 -64,57l0 38c0,40 24,57 64,57l61 0c14,0 20,-9 20,-19l0 -143c0,-40 -25,-65 -68,-65l-37 0zm24 190c-18,0 -24,-7 -24,-20l0 -37c0,-14 6,-21 24,-21l42 0 0 78 -42 0zm393 18c0,-13 -8,-18 -18,-18l-14 0 0 -174c0,-11 -6,-20 -19,-20 -14,0 -20,9 -20,20l0 174 -53 0 0 -174c0,-11 -6,-20 -19,-20 -14,0 -19,9 -19,20l0 174 -54 0 0 -174c0,-11 -5,-20 -19,-20 -13,0 -19,9 -19,20l0 191c0,10 6,20 20,20 0,0 163,0 167,0 6,0 11,-1 16,-1l-24 41c-5,9 -5,20 7,27 12,7 22,1 27,-8l40 -69 0 0c1,-2 1,-5 1,-9zm188 -135c0,-48 -17,-77 -72,-77l-6 0c-54,0 -76,29 -76,77l0 71c0,49 23,83 78,83l40 0c11,0 19,-6 19,-19 0,-13 -8,-18 -19,-18l-40 0c-30,0 -38,-18 -38,-46l0 -13 95 0c10,0 19,-6 19,-19l0 -39zm-114 21l0 -21c0,-26 7,-41 36,-41l6 0c29,0 32,15 32,41l0 21 -74 0zm305 -98c-15,0 -20,9 -20,20l0 73 -80 0 0 -73c0,-11 -6,-20 -20,-20 -14,0 -20,9 -20,20l0 195c0,11 6,20 20,20 14,0 20,-9 20,-20l0 -86 80 0 0 86c0,11 5,20 19,20 15,0 20,-9 20,-20l0 -195c0,-11 -5,-20 -19,-20zm149 198c-30,0 -35,-17 -35,-44l0 -73c0,-27 5,-44 35,-44l9 0c30,0 35,17 35,44l0 73c0,27 -5,44 -35,44l-9 0zm9 38c55,0 74,-34 74,-82l0 -73c0,-48 -19,-81 -74,-81l-9 0c-55,0 -74,33 -74,81l0 73c0,48 19,82 74,82l9 0zm1303 -236c-14,0 -19,9 -19,20l0 174 -54 0 0 -174c0,-11 -6,-20 -19,-20 -14,0 -19,9 -19,20l0 174 -54 0 0 -174c0,-11 -5,-20 -19,-20 -13,0 -19,9 -19,20l0 191c0,10 6,20 19,20l183 0c14,0 20,-10 20,-20l0 -191c0,-11 -6,-20 -19,-20zm196 4l-116 0c-11,0 -20,5 -20,19 0,14 9,18 20,18l38 0 0 174c0,11 5,20 19,20 15,0 20,-9 20,-20l0 -174 39 0c10,0 19,-4 19,-18 0,-14 -9,-19 -19,-19z"/>
   <path class="fil6 str15" d="M16157 6237c0,15 7,28 27,28 21,0 28,-13 28,-28l0 -98 31 0c15,0 27,-8 27,-27 0,-20 -12,-28 -27,-28l-31 0 0 -117c0,-15 -7,-28 -28,-28 -20,0 -27,13 -27,28l0 117 -132 0c31,-68 56,-154 69,-229 2,-14 1,-30 -18,-35 -19,-4 -32,5 -35,20 -18,97 -47,179 -78,251 -3,9 -3,15 -3,21 0,20 12,27 27,27l170 0 0 98zm281 -404c-97,57 -127,134 -127,229l0 89c0,69 39,114 117,114l36 0c78,0 117,-42 117,-111l0 -30c0,-69 -39,-117 -117,-117l-92 0c8,-50 36,-90 96,-127 13,-8 23,-23 11,-40 -11,-17 -28,-16 -41,-7zm-10 378c-42,0 -61,-22 -61,-60l0 -90 97 0c42,0 61,24 61,63l0 30c0,38 -19,57 -61,57l-36 0z"/>
   <path class="fil21" d="M13823 6924c0,-35 -15,-58 -46,-68 21,-13 32,-30 32,-57l0 -14c0,-49 -28,-74 -83,-74l-51 0c-15,0 -21,9 -21,20l0 266c0,10 6,20 21,20l65 0c56,0 83,-30 83,-79l0 -14zm-128 -44l45 0c30,0 42,18 42,44l0 14c0,27 -12,39 -42,39l-45 0 0 -97zm0 -38l0 -92 31 0c29,0 42,8 42,35l0 14c0,27 -13,43 -42,43l-31 0zm245 142c-29,0 -35,-17 -35,-44l0 -73c0,-27 6,-44 35,-44l9 0c30,0 35,17 35,44l0 73c0,27 -5,44 -35,44l-9 0zm9 37c55,0 74,-33 74,-81l0 -73c0,-48 -19,-82 -74,-82l-9 0c-55,0 -74,34 -74,82l0 73c0,48 19,81 74,81l9 0zm227 -126c9,-2 34,-13 34,-47 0,-45 -23,-63 -71,-63 -49,0 -68,12 -68,52 0,12 7,21 21,21 14,0 18,-9 18,-20 0,-12 12,-15 30,-15 18,0 33,5 33,32 0,18 -18,25 -37,25 -13,0 -16,9 -16,17 0,9 3,17 17,17 29,0 39,13 39,39 0,19 -14,30 -35,30l-5 0c-17,0 -31,-4 -31,-16 0,-10 -6,-19 -20,-19 -14,0 -19,9 -19,21 0,37 26,52 69,52l6 0c56,0 74,-32 74,-69 0,-42 -24,-53 -39,-57zm201 1c17,-7 27,-20 27,-41l0 -15c0,-42 -29,-51 -64,-51l-54 0c-14,0 -20,9 -20,20l0 188c0,11 6,20 20,20l61 0c40,0 64,-17 64,-57l0 -15c0,-26 -15,-42 -34,-49zm-71 -70l29 0c18,0 30,6 30,20l0 9c0,13 -10,26 -27,26l-32 0 0 -55zm66 134c0,13 -7,20 -25,20l-41 0 0 -65 37 0c18,0 29,10 29,24l0 21zm111 -171c-14,0 -21,10 -21,21l0 296c0,11 6,20 20,20 14,0 20,-9 20,-20l0 -89 31 0c55,0 80,-35 80,-84l0 -66c0,-49 -24,-78 -78,-78l-52 0zm19 190l0 -152 33 0c29,0 39,14 39,40l0 66c0,28 -11,46 -41,46l-31 0zm200 -190c-11,0 -19,6 -19,19 0,13 8,19 19,19l37 0c18,0 29,6 29,28l0 10 -42 0c-40,0 -64,17 -64,57l0 38c0,40 24,57 64,57l61 0c14,0 20,-9 20,-20l0 -142c0,-40 -25,-66 -68,-66l-37 0zm24 191c-18,0 -24,-7 -24,-20l0 -37c0,-14 6,-21 24,-21l42 0 0 78 -42 0zm393 18c0,-14 -8,-19 -18,-19l-14 0 0 -173c0,-11 -6,-21 -19,-21 -14,0 -20,10 -20,21l0 173 -53 0 0 -173c0,-11 -6,-21 -19,-21 -14,0 -19,10 -19,21l0 173 -54 0 0 -173c0,-11 -5,-21 -19,-21 -13,0 -19,10 -19,21l0 191c0,10 6,20 20,20 0,0 163,0 167,0 6,0 11,-1 16,-2l-24 42c-5,9 -5,20 7,26 12,7 22,1 27,-7l40 -69 0 0c1,-3 1,-6 1,-9zm188 -136c0,-48 -17,-77 -72,-77l-6 0c-54,0 -76,29 -76,77l0 71c0,49 23,84 78,84l40 0c11,0 19,-6 19,-19 0,-13 -8,-19 -19,-19l-40 0c-30,0 -38,-18 -38,-46l0 -13 95 0c10,0 19,-6 19,-19l0 -39zm-114 22l0 -22c0,-25 7,-40 36,-40l6 0c29,0 32,15 32,40l0 22 -74 0zm305 -99c-15,0 -20,10 -20,20l0 73 -80 0 0 -73c0,-10 -6,-20 -20,-20 -14,0 -20,10 -20,20l0 196c0,10 6,20 20,20 14,0 20,-10 20,-20l0 -86 80 0 0 86c0,10 5,20 19,20 15,0 20,-10 20,-20l0 -196c0,-10 -5,-20 -19,-20zm149 199c-30,0 -35,-17 -35,-44l0 -73c0,-27 5,-44 35,-44l9 0c30,0 35,17 35,44l0 73c0,27 -5,44 -35,44l-9 0zm9 37c55,0 74,-33 74,-81l0 -73c0,-48 -19,-82 -74,-82l-9 0c-55,0 -74,34 -74,82l0 73c0,48 19,81 74,81l9 0zm1303 -236c-14,0 -19,10 -19,21l0 173 -54 0 0 -173c0,-11 -6,-21 -19,-21 -14,0 -19,10 -19,21l0 173 -54 0 0 -173c0,-11 -5,-21 -19,-21 -13,0 -19,10 -19,21l0 191c0,10 6,20 19,20l183 0c14,0 20,-10 20,-20l0 -191c0,-11 -6,-21 -19,-21zm196 4l-116 0c-11,0 -20,6 -20,20 0,13 9,18 20,18l38 0 0 174c0,10 5,20 19,20 15,0 20,-10 20,-20l0 -174 39 0c10,0 19,-5 19,-18 0,-14 -9,-20 -19,-20z"/>
   <path class="fil6 str15" d="M16248 6889c0,-51 -21,-89 -65,-103 28,-16 44,-43 44,-82l0 -8c0,-70 -39,-108 -118,-108l-32 0c-62,0 -101,26 -101,90 0,16 8,29 29,29 20,0 28,-13 28,-29 0,-25 18,-36 44,-36l32 0c43,0 61,16 61,54l0 8c0,38 -22,65 -65,65l-35 0c-15,0 -27,7 -27,26 0,20 12,27 27,27l62 0c43,0 59,28 59,67l0 19c0,39 -18,60 -61,60l-65 0c-26,0 -44,-11 -44,-36 0,-16 -8,-28 -28,-28 -21,0 -29,12 -29,28 0,64 39,91 101,91l65 0c79,0 118,-45 118,-115l0 -19zm170 79c-43,0 -61,-21 -61,-60l0 -26c0,-38 18,-66 61,-66l48 0c43,0 61,28 61,66l0 26c0,39 -18,60 -61,60l-48 0zm17 -205c-43,0 -57,-21 -57,-59l0 -12c0,-38 14,-50 57,-50l14 0c43,0 57,12 57,50l0 12c0,38 -14,59 -57,59l-14 0zm149 119c0,-50 -23,-85 -61,-99 29,-16 40,-40 40,-79l0 -12c0,-70 -35,-104 -114,-104l-14 0c-80,0 -114,34 -114,104l0 12c0,39 10,63 40,79 -39,14 -61,49 -61,99l0 26c0,70 39,115 118,115l48 0c78,0 118,-45 118,-115l0 -26z"/>
   <path class="fil22 str0" d="M17527 5845l0 -396c294,-95 345,101 345,246l0 887c1,245 51,383 -253,378 -31,-1 -142,-1 -172,-1 -265,2 -475,5 -475,-370 0,-89 -1,-479 0,-484 41,-242 261,-258 555,-260z"/>
  </g>
 </g>
</svg>
