<?xml version="1.0" encoding="UTF-8"?>
<!DOCTYPE svg PUBLIC "-//W3C//DTD SVG 1.0//EN" "http://www.w3.org/TR/2001/REC-SVG-20010904/DTD/svg10.dtd">
<!-- Creator: CorelDRAW X7 -->
<svg xmlns="http://www.w3.org/2000/svg" xml:space="preserve" width="200mm" height="200mm" version="1.0" style="shape-rendering:geometricPrecision; text-rendering:geometricPrecision; image-rendering:optimizeQuality; fill-rule:evenodd; clip-rule:evenodd"
viewBox="0 0 20000 20000"
 xmlns:xlink="http://www.w3.org/1999/xlink">
 <defs>
  <style type="text/css">
   <![CDATA[
    .str6 {stroke:#CC7588;stroke-width:53.78}
    .str4 {stroke:#AB8082;stroke-width:51.72}
    .str8 {stroke:#024541;stroke-width:29.51}
    .str7 {stroke:#CC7588;stroke-width:84.5;stroke-linecap:round;stroke-linejoin:round}
    .str2 {stroke:#024541;stroke-width:162;stroke-linecap:round;stroke-linejoin:round}
    .str5 {stroke:#CC7588;stroke-width:139.55;stroke-linecap:round;stroke-linejoin:round}
    .str1 {stroke:#4D897C;stroke-width:162.6;stroke-linecap:round;stroke-linejoin:round}
    .str0 {stroke:#024541;stroke-width:162.6;stroke-linecap:round;stroke-linejoin:round}
    .str3 {stroke:#4D897C;stroke-width:162.62;stroke-linecap:round;stroke-linejoin:round}
    .fil3 {fill:none}
    .fil6 {fill:none;fill-rule:nonzero}
    .fil1 {fill:#EBF2D9}
    .fil2 {fill:#CDDBAC}
    .fil5 {fill:#AB8082;fill-rule:nonzero}
    .fil4 {fill:#CC7588;fill-rule:nonzero}
    .fil7 {fill:#4D897C;fill-rule:nonzero}
    .fil8 {fill:#024541;fill-rule:nonzero}
    .fil0 {fill:url(#id0)}
   ]]>
  </style>
  <radialGradient id="id0" gradientUnits="userSpaceOnUse" gradientTransform="matrix(1.41421 -0 -0 1.41421 -4142 -4142)" cx="10000" cy="10000" r="10000" fx="10000" fy="10000">
   <stop offset="0" style="stop-opacity:1; stop-color:#FEFEFE"/>
   <stop offset="0.431373" style="stop-opacity:1; stop-color:#FEFEFE"/>
   <stop offset="1" style="stop-opacity:1; stop-color:#D1E2F2"/>
  </radialGradient>
 </defs>
 <g id="Layer_x0020_1">
  <metadata id="CorelCorpID_0Corel-Layer"/>
  <g id="_1003274972608">
   <path class="fil0" d="M0 0l20000 0 0 20000 -20000 0 0 -20000z"/>
   <path class="fil1" d="M9359 5738l-3934 0 0 5141 1970 1600 2523 0 0 -6182c0,-309 -250,-559 -559,-559z"/>
   <path class="fil2" d="M7390 12479l2500 0 0 -2448 -3509 1623 1009 825z"/>
   <path class="fil3 str0" d="M5424 10877l0 -5139 4466 0 0 6741 -2495 0"/>
   <path class="fil3 str0" d="M4833 6276l0 5138"/>
   <path class="fil3 str0" d="M5129 6007c0,1283 0,3855 0,5138"/>
   <path class="fil3 str1" d="M4537 6544c0,1284 0,3856 0,5139"/>
   <path class="fil3 str2" d="M7094 12748l2539 0"/>
   <path class="fil3 str2" d="M6798 13016l2539 0"/>
   <path class="fil3 str3" d="M6502 13285l2539 0"/>
   <g>
    <path class="fil4" d="M7458 12413c41,33 44,90 6,126 -38,37 -101,39 -142,6l136 -132zm-1965 -1600l1965 1600 -136 132 -1965 -1600 136 -132zm-136 132c-42,-34 -44,-90 -7,-127 38,-36 101,-39 143,-5l-136 132z"/>
   </g>
   <g>
    <path class="fil4" d="M7162 12679c41,34 44,90 6,127 -37,36 -101,39 -142,5l136 -132zm-1965 -1600l1965 1600 -136 132 -1965 -1600 136 -132zm-136 132c-41,-33 -44,-90 -7,-126 38,-37 102,-39 143,-6l-136 132z"/>
   </g>
   <g>
    <path class="fil4" d="M6866 12946c41,33 44,90 7,126 -38,37 -102,40 -143,6l136 -132zm-1965 -1600l1965 1600 -136 132 -1965 -1600 136 -132zm-136 132c-41,-33 -44,-90 -6,-127 37,-36 101,-39 142,-5l-136 132z"/>
   </g>
   <g>
    <path class="fil4" d="M6570 13212c42,34 44,91 7,127 -38,37 -101,39 -143,6l136 -133zm-1965 -1600l1965 1600 -136 133 -1965 -1600 136 -133zm-136 133c-41,-34 -44,-90 -6,-127 38,-36 101,-39 142,-6l-136 133z"/>
   </g>
   <path class="fil5 str4" d="M7673 10153c-25,0 -35,17 -35,35l0 304 -116 0 0 -304c0,-18 -9,-35 -34,-35 -25,0 -34,17 -34,35l0 304 -116 0 0 -304c0,-18 -9,-35 -35,-35 -25,0 -34,17 -34,35l0 335c0,19 10,35 34,35l370 0c24,0 34,-16 34,-35l0 -335c0,-18 -9,-35 -34,-35zm397 8l-253 0c-17,0 -33,7 -33,32 0,24 16,33 33,33l93 0 0 304c0,19 9,35 34,35 24,0 34,-16 34,-35l0 -304 92 0c17,0 33,-9 33,-33 0,-25 -16,-32 -33,-32z"/>
   <path class="fil6 str5" d="M6749 10834c-332,-271 -544,-684 -544,-1147 0,-462 212,-875 544,-1147m1875 0c332,272 544,685 544,1147 0,463 -212,876 -544,1147"/>
   <path class="fil4 str6" d="M7263 9592c0,-93 -38,-165 -120,-190 52,-30 82,-79 82,-152l0 -14c0,-129 -72,-200 -217,-200l-60 0c-115,0 -186,49 -186,167 0,29 15,53 52,53 38,0 53,-24 53,-53 0,-47 32,-67 81,-67l60 0c79,0 112,30 112,100l0 14c0,70 -41,121 -121,121l-64 0c-28,0 -50,13 -50,49 0,35 22,49 50,49l114 0c79,0 109,51 109,123l0 36c0,71 -33,111 -112,111l-120 0c-49,0 -81,-20 -81,-67 0,-29 -15,-53 -53,-53 -38,0 -52,24 -52,53 0,118 71,167 186,167l120 0c145,0 217,-82 217,-211l0 -36zm223 48c0,-52 19,-92 56,-109l205 -92c101,-45 123,-123 123,-199l0 -4c0,-129 -72,-200 -217,-200l-68 0c-115,0 -187,49 -187,167 0,29 15,53 53,53 38,0 52,-24 52,-53 0,-47 32,-67 82,-67l68 0c79,0 112,30 112,100l0 4c0,52 -16,85 -61,105l-191 85c-89,38 -132,122 -132,220l0 178 449 0c28,0 50,-14 50,-50 0,-36 -22,-50 -50,-50l-344 0 0 -88zm741 -600c-177,106 -234,248 -234,423l0 165c0,129 73,211 218,211l64 0c145,0 218,-77 218,-205l0 -56c0,-127 -73,-216 -218,-216l-169 0c15,-92 67,-166 178,-234 24,-14 42,-42 20,-74 -20,-32 -52,-29 -77,-14zm-16 699c-80,0 -113,-40 -113,-111l0 -166 177 0c80,0 113,45 113,116l0 56c0,70 -33,105 -113,105l-64 0z"/>
   <path class="fil7" d="M5959 7409l-74 0 0 -153 166 0c19,0 36,-11 36,-37 0,-25 -17,-37 -36,-37l-205 0c-26,0 -38,15 -38,36l0 501c0,19 13,37 39,37l112 0c105,0 152,-55 152,-147l0 -47c0,-90 -47,-153 -152,-153zm77 200c0,50 -20,74 -77,74l-74 0 0 -205 74 0c57,0 77,31 77,81l0 50zm467 -435l-9 0c-110,0 -151,92 -151,183l0 59 -67 0 0 -205c0,-19 -8,-37 -36,-37 -26,0 -37,18 -37,37l0 516c0,19 11,37 37,37 27,0 36,-18 36,-37l0 -237 67 0 0 124c0,90 47,150 151,150l9 0c104,0 151,-69 151,-160l0 -270c0,-91 -47,-160 -151,-160zm74 430c0,51 -18,87 -74,87l-9 0c-56,0 -74,-27 -74,-77l0 -257c0,-51 14,-109 74,-109l9 0c56,0 74,35 74,86l0 270zm288 49c2,-18 27,-397 27,-397l115 0 0 471c0,19 12,37 40,37 26,0 37,-18 37,-37l0 -507c0,-20 -11,-38 -37,-38l-188 0c-27,0 -39,19 -40,38 0,0 -26,404 -27,414 -1,10 -1,25 -6,35 -8,14 -20,24 -41,24 -19,0 -37,12 -37,39 0,28 18,37 37,37 59,0 93,-24 110,-65 5,-15 9,-34 10,-51zm438 0c2,-18 27,-397 27,-397l115 0 0 471c0,19 12,37 40,37 26,0 37,-18 37,-37l0 -507c0,-20 -11,-38 -37,-38l-188 0c-26,0 -39,19 -40,38 0,0 -26,404 -27,414 0,10 -1,25 -6,35 -8,14 -20,24 -40,24 -20,0 -38,12 -38,39 0,28 18,37 38,37 58,0 92,-24 109,-65 5,-15 10,-34 10,-51zm590 103c19,0 36,-10 36,-37 0,-24 -17,-37 -36,-37l-175 0 0 -184 139 0c19,0 36,-11 36,-37 0,-25 -17,-37 -36,-37l-139 0 0 -168 175 0c19,0 36,-11 36,-37 0,-25 -17,-37 -36,-37l-215 0c-26,0 -37,18 -37,38l0 499c0,19 11,37 37,37l215 0zm206 -29c0,19 10,37 37,37 27,0 39,-18 39,-37l0 -471 95 0c19,0 36,-11 36,-37 0,-25 -17,-37 -36,-37l-267 0c-19,0 -36,12 -36,37 0,26 17,37 36,37l96 0 0 471zm530 29c19,0 37,-10 37,-37 0,-24 -18,-37 -37,-37l-175 0 0 -184 139 0c19,0 36,-11 36,-37 0,-25 -17,-37 -36,-37l-139 0 0 -168 175 0c19,0 37,-11 37,-37 0,-25 -18,-37 -37,-37l-215 0c-26,0 -37,18 -37,38l0 499c0,19 11,37 37,37l215 0zm443 -545c0,-19 -13,-37 -39,-37 -27,0 -38,18 -38,37l0 205 -167 0 0 -205c0,-19 -11,-37 -39,-37 -26,0 -38,18 -38,37l0 516c0,19 12,37 38,37 28,0 39,-18 39,-37l0 -237 167 0 0 237c0,19 10,37 38,37 26,0 39,-18 39,-37l0 -516zm278 193l-83 0 0 -193c0,-19 -11,-37 -39,-37 -27,0 -38,18 -38,37l0 507c0,19 11,37 38,37l122 0c104,0 152,-55 152,-146l0 -50c0,-90 -48,-155 -152,-155zm-83 74l83 0c56,0 76,31 76,81l0 50c0,49 -20,73 -76,73l-83 0 0 -204z"/>
   <path class="fil1" d="M15580 5738l-3935 0 0 5141 1970 1600 2524 0 0 -6182c0,-309 -250,-559 -559,-559z"/>
   <path class="fil2" d="M13610 12479l2500 0 0 -2448 -3508 1623 1008 825z"/>
   <path class="fil3 str0" d="M11645 10877l0 -5139 4465 0 0 6741 -2495 0"/>
   <g>
    <path class="fil4" d="M13678 12413c41,33 44,90 7,126 -38,37 -102,39 -143,6l136 -132zm-1965 -1600l1965 1600 -136 132 -1965 -1600 136 -132zm-136 132c-41,-34 -44,-90 -6,-127 37,-36 101,-39 142,-5l-136 132z"/>
   </g>
   <path class="fil5 str4" d="M13864 10153c-25,0 -34,17 -34,35l0 304 -116 0 0 -304c0,-18 -9,-35 -34,-35 -26,0 -35,17 -35,35l0 304 -116 0 0 -304c0,-18 -9,-35 -34,-35 -25,0 -35,17 -35,35l0 335c0,19 10,35 35,35l369 0c25,0 35,-16 35,-35l0 -335c0,-18 -9,-35 -35,-35zm397 8l-252 0c-18,0 -34,7 -34,32 0,24 16,33 34,33l92 0 0 304c0,19 9,35 34,35 25,0 35,-16 35,-35l0 -304 91 0c18,0 34,-9 34,-33 0,-25 -16,-32 -34,-32z"/>
   <path class="fil6 str5" d="M12940 10834c-332,-271 -544,-684 -544,-1147 0,-462 212,-875 544,-1147m1875 0c332,272 544,685 544,1147 0,463 -212,876 -544,1147"/>
   <path class="fil4 str6" d="M13885 9022c-18,0 -30,8 -40,18 -55,61 -116,121 -181,180 -20,19 -28,42 -1,69 24,25 48,16 68,-1 40,-33 81,-76 116,-117l0 543 -140 0c-27,0 -50,15 -50,51 0,35 23,50 50,50l362 0c28,0 50,-15 50,-50 0,-36 -22,-51 -50,-51l-117 0 0 -639c0,-29 -9,-53 -48,-53l-19 0z"/>
   <path class="fil7" d="M12180 7409l-74 0 0 -153 166 0c19,0 36,-11 36,-37 0,-25 -17,-37 -36,-37l-205 0c-27,0 -38,15 -38,36l0 501c0,19 12,37 39,37l112 0c104,0 152,-55 152,-147l0 -47c0,-90 -48,-153 -152,-153zm76 200c0,50 -19,74 -76,74l-74 0 0 -205 74 0c57,0 76,31 76,81l0 50zm467 -435l-8 0c-110,0 -152,92 -152,183l0 59 -66 0 0 -205c0,-19 -9,-37 -36,-37 -27,0 -37,18 -37,37l0 516c0,19 10,37 37,37 27,0 36,-18 36,-37l0 -237 66 0 0 124c0,90 48,150 152,150l8 0c104,0 152,-69 152,-160l0 -270c0,-91 -48,-160 -152,-160zm75 430c0,51 -18,87 -75,87l-8 0c-57,0 -75,-27 -75,-77l0 -257c0,-51 15,-109 75,-109l8 0c57,0 75,35 75,86l0 270zm288 49c1,-18 27,-397 27,-397l115 0 0 471c0,19 11,37 39,37 26,0 38,-18 38,-37l0 -507c0,-20 -12,-38 -38,-38l-188 0c-26,0 -38,19 -39,38 0,0 -26,404 -27,414 -1,10 -2,25 -7,35 -7,14 -19,24 -40,24 -20,0 -38,12 -38,39 0,28 18,37 38,37 58,0 93,-24 109,-65 6,-15 10,-34 11,-51zm438 0c2,-18 27,-397 27,-397l115 0 0 471c0,19 11,37 39,37 27,0 38,-18 38,-37l0 -507c0,-20 -11,-38 -38,-38l-188 0c-26,0 -38,19 -39,38 0,0 -26,404 -27,414 -1,10 -2,25 -7,35 -7,14 -19,24 -40,24 -19,0 -38,12 -38,39 0,28 19,37 38,37 58,0 93,-24 109,-65 6,-15 10,-34 11,-51zm590 103c19,0 36,-10 36,-37 0,-24 -17,-37 -36,-37l-176 0 0 -184 140 0c19,0 36,-11 36,-37 0,-25 -17,-37 -36,-37l-140 0 0 -168 176 0c19,0 36,-11 36,-37 0,-25 -17,-37 -36,-37l-215 0c-26,0 -38,18 -38,38l0 499c0,19 12,37 38,37l215 0zm205 -29c0,19 11,37 38,37 26,0 38,-18 38,-37l0 -471 96 0c19,0 36,-11 36,-37 0,-25 -17,-37 -36,-37l-267 0c-19,0 -36,12 -36,37 0,26 17,37 36,37l95 0 0 471zm531 29c19,0 36,-10 36,-37 0,-24 -17,-37 -36,-37l-176 0 0 -184 140 0c19,0 36,-11 36,-37 0,-25 -17,-37 -36,-37l-140 0 0 -168 176 0c19,0 36,-11 36,-37 0,-25 -17,-37 -36,-37l-215 0c-26,0 -38,18 -38,38l0 499c0,19 12,37 38,37l215 0zm442 -545c0,-19 -12,-37 -38,-37 -27,0 -39,18 -39,37l0 205 -166 0 0 -205c0,-19 -11,-37 -39,-37 -26,0 -39,18 -39,37l0 516c0,19 13,37 39,37 27,0 39,-18 39,-37l0 -237 166 0 0 237c0,19 11,37 39,37 26,0 38,-18 38,-37l0 -516zm279 193l-83 0 0 -193c0,-19 -12,-37 -39,-37 -27,0 -39,18 -39,37l0 507c0,19 12,37 38,37l123 0c104,0 151,-55 151,-146l0 -50c0,-90 -47,-155 -151,-155zm-83 74l83 0c56,0 76,31 76,81l0 50c0,49 -20,73 -76,73l-83 0 0 -204z"/>
   <path class="fil6 str1" d="M4242 6818c0,1283 0,3855 0,5139"/>
   <path class="fil6 str3" d="M6207 13559l2539 0"/>
   <g>
    <path class="fil4" d="M6275 13486c41,33 44,90 6,126 -37,37 -101,40 -142,6l136 -132zm-1965 -1600l1965 1600 -136 132 -1965 -1600 136 -132zm-136 132c-42,-33 -44,-90 -7,-127 38,-36 101,-39 143,-5l-136 132z"/>
   </g>
   <path class="fil6 str1" d="M3946 7085c0,1283 0,3855 0,5138"/>
   <path class="fil6 str3" d="M5911 13825l2539 0"/>
   <g>
    <path class="fil4" d="M5979 13752c41,34 44,91 6,127 -37,37 -101,39 -142,6l136 -133zm-1965 -1600l1965 1600 -136 133 -1965 -1600 136 -133zm-136 133c-41,-34 -44,-90 -7,-127 38,-36 102,-39 143,-6l-136 133z"/>
   </g>
   <path class="fil6 str7" d="M4368 5076c-201,-165 -329,-415 -329,-695 0,-280 128,-530 329,-694m1136 0c201,164 329,414 329,694 0,280 -128,530 -329,695"/>
   <path class="fil5" d="M11997 3621c-17,0 -25,10 -34,23l-166 272c3,-20 4,-34 4,-54 0,-29 0,-203 0,-203 0,-20 -9,-38 -34,-38 -25,0 -34,18 -34,38l0 368c0,19 9,37 33,37 19,0 25,-10 33,-22l167 -271c-3,21 -3,33 -3,52 0,30 0,204 0,204 0,19 9,37 32,37 27,0 36,-18 36,-37l0 -368c0,-20 -9,-38 -34,-38zm281 373c-55,0 -68,-34 -68,-87l0 -141c0,-48 10,-74 65,-74l11 0c34,0 57,15 57,40 0,21 10,38 37,38 26,0 36,-17 36,-38 0,-75 -50,-111 -130,-111l-11 0c-102,0 -139,55 -139,145l0 141c0,93 39,157 142,157l8 0c80,0 130,-35 130,-110 0,-22 -10,-38 -36,-38 -27,0 -37,16 -37,38 0,24 -23,40 -57,40l-8 0zm473 -365l-207 0c-26,0 -37,18 -37,38l0 359c0,20 10,38 37,38 26,0 37,-18 37,-38l0 -326 134 0 0 326c0,20 11,38 37,38 26,0 37,-18 37,-38l0 -359c0,-20 -12,-38 -38,-38zm282 366c-55,0 -65,-32 -65,-83l0 -137c0,-51 10,-83 65,-83l18 0c55,0 65,32 65,83l0 137c0,51 -10,83 -65,83l-18 0zm18 70c102,0 138,-63 138,-153l0 -137c0,-91 -36,-154 -138,-154l-18 0c-103,0 -139,63 -139,154l0 137c0,90 36,153 139,153l18 0zm281 -436c-26,0 -38,18 -38,38l0 557c0,20 11,37 37,37 27,0 37,-17 37,-37l0 -168 59 0c103,0 151,-65 151,-157l0 -124c0,-92 -46,-146 -148,-146l-98 0zm36 357l0 -286 62 0c55,0 74,25 74,75l0 124c0,53 -22,87 -77,87l-59 0zm537 -365c-28,0 -38,18 -38,38l0 176 -78 0c-33,0 -46,-13 -46,-37l0 -143c0,-20 -10,-38 -36,-38 -28,0 -38,18 -38,38l0 143c0,75 45,106 120,106l78 0 0 123c0,19 10,37 36,37 28,0 38,-18 38,-37l0 -368c0,-20 -10,-38 -36,-38zm429 145c0,-90 -32,-145 -134,-145l-11 0c-103,0 -143,55 -143,145l0 133c0,92 43,157 145,157l76 0c20,0 36,-11 36,-35 0,-25 -16,-35 -36,-35l-76 0c-55,0 -71,-34 -71,-87l0 -23 178 0c20,0 36,-12 36,-36l0 -74zm-214 41l0 -41c0,-48 14,-76 69,-76l11 0c54,0 60,28 60,76l0 41 -140 0zm573 -186c-28,0 -38,18 -38,38l0 137 -150 0 0 -137c0,-20 -10,-38 -36,-38 -28,0 -38,18 -38,38l0 368c0,19 10,37 36,37 28,0 38,-18 38,-37l0 -162 150 0 0 162c0,19 10,37 36,37 28,0 38,-18 38,-37l0 -368c0,-20 -10,-38 -36,-38zm412 0c-27,0 -37,18 -37,38l0 137 -150 0 0 -137c0,-20 -10,-38 -37,-38 -27,0 -37,18 -37,38l0 368c0,19 10,37 36,37 28,0 38,-18 38,-37l0 -162 150 0 0 162c0,19 10,37 36,37 28,0 38,-18 38,-37l0 -368c0,-20 -10,-38 -37,-38zm296 148l-71 0 0 -110c0,-20 -10,-38 -36,-38 -28,0 -38,18 -38,38l0 361c0,20 12,36 38,36l111 0c75,0 123,-40 123,-116l0 -55c0,-76 -67,-116 -127,-116zm53 168c0,25 -15,50 -48,50l-76 0 0 -147 67 0c33,0 57,30 57,56l0 41zm177 -316c-28,0 -37,18 -37,38l0 368c0,19 9,37 36,37 28,0 37,-18 37,-37l0 -368c0,-20 -9,-38 -36,-38zm416 0c-18,0 -26,10 -34,23l-167 272c4,-20 4,-34 4,-54 0,-29 0,-203 0,-203 0,-20 -9,-38 -33,-38 -26,0 -35,18 -35,38l0 368c0,19 9,37 33,37 20,0 26,-10 34,-22l166 -271c-3,21 -3,33 -3,52 0,30 0,204 0,204 0,19 9,37 33,37 26,0 35,-18 35,-37l0 -368c0,-20 -9,-38 -33,-38zm-116 -32c70,0 106,-53 106,-110 0,-17 -13,-28 -30,-28 -17,0 -28,11 -29,29 -3,30 -18,53 -47,53 -29,0 -44,-23 -47,-53 -2,-18 -12,-29 -29,-29 -18,0 -30,11 -30,28 0,57 35,110 106,110l0 0z"/>
   <path class="fil5" d="M12107 4677c-18,0 -26,10 -34,23l-167 272c4,-20 5,-34 5,-53 0,-30 0,-204 0,-204 0,-20 -9,-38 -34,-38 -26,0 -35,18 -35,38l0 368c0,19 9,37 33,37 20,0 26,-9 34,-22l166 -271c-3,21 -3,33 -3,52 0,30 0,204 0,204 0,19 9,37 33,37 26,0 35,-18 35,-37l0 -368c0,-20 -9,-38 -33,-38zm330 207c17,-5 64,-25 64,-89 0,-83 -44,-118 -134,-118 -91,0 -127,22 -127,99 0,21 14,38 40,38 25,0 33,-16 33,-37 0,-23 23,-29 55,-29 36,0 63,11 63,60 0,34 -34,47 -69,47 -25,0 -30,18 -30,32 0,17 6,33 32,33 54,0 73,25 73,72 0,36 -27,58 -66,58l-9 0c-31,0 -58,-8 -58,-31 0,-19 -11,-35 -37,-35 -27,0 -37,17 -37,38 0,71 50,98 130,98l11 0c105,0 139,-60 139,-128 0,-79 -45,-101 -73,-108zm321 -167l-14 0c-25,0 -50,10 -69,29l0 -23c0,-52 18,-74 77,-81 78,-8 110,-38 110,-105 0,-21 -10,-40 -36,-40 -23,0 -33,19 -35,38 -2,22 -8,32 -39,36 -108,10 -151,70 -151,161l0 236c0,90 37,153 139,153l18 0c103,0 139,-63 139,-153l0 -98c0,-90 -36,-153 -139,-153zm65 251c0,51 -10,83 -65,83l-18 0c-55,0 -65,-32 -65,-83l0 -114c0,-44 22,-67 59,-67l24 0c55,0 65,32 65,83l0 98zm443 -291c-17,0 -25,10 -34,23l-166 272c3,-20 4,-34 4,-53 0,-30 0,-204 0,-204 0,-20 -9,-38 -34,-38 -25,0 -34,18 -34,38l0 368c0,19 9,37 33,37 19,0 25,-9 33,-22l167 -271c-3,21 -3,33 -3,52 0,30 0,204 0,204 0,19 9,37 32,37 27,0 36,-18 36,-37l0 -368c0,-20 -9,-38 -34,-38zm186 9c-26,0 -37,18 -37,37l0 557c0,20 10,37 37,37 26,0 36,-17 36,-37l0 -168 60 0c102,0 150,-65 150,-157l0 -124c0,-92 -45,-145 -148,-145l-98 0zm36 356l0 -286 62 0c55,0 74,26 74,75l0 124c0,53 -21,87 -76,87l-60 0zm377 -356c-20,0 -37,10 -37,35 0,24 17,35 37,35l69 0c34,0 53,12 53,53l0 18 -78 0c-75,0 -119,32 -119,107l0 72c0,75 44,106 119,106l114 0c27,0 38,-16 38,-36l0 -268c0,-75 -46,-122 -127,-122l-69 0zm44 357c-33,0 -46,-13 -46,-37l0 -70c0,-26 13,-40 46,-40l78 0 0 147 -78 0zm480 -357l-219 0c-18,0 -36,9 -36,36 0,25 18,34 36,34l73 0 0 327c0,19 9,37 36,37 28,0 37,-18 37,-37l0 -327 73 0c19,0 36,-9 36,-34 0,-27 -17,-36 -36,-36zm392 137c0,-91 -32,-146 -135,-146l-10 0c-103,0 -143,55 -143,146l0 132c0,92 43,157 145,157l76 0c20,0 36,-10 36,-35 0,-25 -16,-35 -36,-35l-76 0c-55,0 -71,-34 -71,-87l0 -23 178 0c20,0 36,-12 36,-36l0 -73zm-214 40l0 -40c0,-49 14,-77 69,-77l10 0c55,0 61,28 61,77l0 40 -140 0zm559 -177l-165 0c-28,0 -38,18 -38,37 0,0 -17,225 -21,280 -2,25 -16,48 -41,48 -17,0 -33,14 -33,36 0,23 16,35 37,35 59,0 100,-34 105,-104 5,-59 17,-198 22,-262l98 0 0 326c0,20 11,38 37,38 26,0 37,-18 37,-38l0 -359c0,-19 -11,-37 -38,-37zm431 137c0,-91 -32,-146 -134,-146l-11 0c-103,0 -143,55 -143,146l0 132c0,92 43,157 145,157l76 0c20,0 36,-10 36,-35 0,-25 -16,-35 -36,-35l-76 0c-55,0 -71,-34 -71,-87l0 -23 178 0c21,0 36,-12 36,-36l0 -73zm-214 40l0 -40c0,-49 14,-77 69,-77l11 0c55,0 60,28 60,77l0 40 -140 0zm611 -186c-21,0 -28,11 -36,27 0,0 -67,140 -77,160 -4,10 -12,32 -20,52 -7,-20 -14,-42 -19,-52 -9,-20 -77,-160 -77,-160 -8,-16 -14,-27 -36,-27 -28,0 -35,18 -35,38l0 368c0,19 7,37 34,37 27,0 35,-18 35,-37 0,0 0,-141 0,-172 0,-22 -3,-45 -6,-70l75 156c6,14 12,21 29,21 18,0 24,-8 31,-21l74 -156c-3,25 -5,48 -5,70 0,31 0,172 0,172 0,19 7,37 35,37 26,0 34,-18 34,-37l0 -368c0,-20 -8,-38 -36,-38z"/>
   <path class="fil4 str6" d="M10850 9175c0,-28 -13,-49 -46,-49 -35,0 -50,21 -50,49l0 195 -184 0c-28,0 -49,13 -49,48 0,35 21,48 49,48l184 0 0 196c0,28 14,50 48,50 35,0 48,-22 48,-50l0 -196 186 0c28,0 49,-13 49,-48 0,-35 -21,-48 -49,-48l-186 0 0 -195z"/>
   <path class="fil8 str8" d="M7288 16654c0,15 8,29 28,29 21,0 28,-14 28,-29l0 -384c0,-15 -8,-28 -29,-28 -12,0 -20,4 -29,21l-163 291 -1 0c1,-11 3,-26 3,-42l0 -242c0,-15 -8,-28 -28,-28 -21,0 -29,13 -29,28l0 384c0,15 9,29 30,29 11,0 19,-5 29,-21l163 -292 1 0c-2,11 -3,26 -3,43l0 241zm255 29c21,0 29,-14 29,-29l0 -351 90 0c14,0 27,-8 27,-28 0,-18 -13,-27 -27,-27l-237 0c-14,0 -27,9 -27,27 0,20 13,28 27,28l90 0 0 351c0,15 8,29 28,29zm251 -319c0,-38 16,-67 59,-67l49 0c42,0 58,29 58,67l0 196c0,38 -16,67 -58,67l-49 0c-43,0 -59,-29 -59,-67l0 -196zm224 0c0,-67 -39,-122 -116,-122l-49 0c-78,0 -117,55 -117,122l0 196c0,67 39,123 117,123l49 0c77,0 116,-56 116,-123l0 -196zm119 -116c-23,0 -32,13 -32,28l0 378c0,15 9,29 29,29 20,0 28,-14 28,-29l0 -351 164 0c15,0 27,-8 27,-28 0,-18 -12,-27 -23,-27l-193 0zm322 116c0,-38 17,-67 59,-67l49 0c42,0 59,29 59,67l0 196c0,38 -17,67 -59,67l-49 0c-42,0 -59,-29 -59,-67l0 -196zm224 0c0,-67 -38,-122 -116,-122l-49 0c-78,0 -116,55 -116,122l0 196c0,67 38,123 116,123l49 0c78,0 116,-56 116,-123l0 -196zm305 53c0,-18 -9,-33 -33,-33 -25,0 -33,15 -33,33l0 6c0,18 8,33 33,33 24,0 33,-15 33,-33l0 -6zm0 226c0,-17 -9,-33 -33,-33 -25,0 -33,16 -33,33l0 7c0,17 8,33 33,33 24,0 33,-16 33,-33l0 -7zm2371 -291c-20,0 -27,13 -27,28l0 244 -93 0 0 -244c0,-15 -8,-28 -28,-28 -20,0 -27,13 -27,28l0 244 -93 0 0 -244c0,-15 -8,-28 -28,-28 -20,0 -28,13 -28,28l0 268c0,16 8,28 28,28l296 0c20,0 28,-12 28,-28l0 -268c0,-15 -7,-28 -28,-28zm319 6l-203 0c-14,0 -27,6 -27,26 0,19 13,27 27,27l74 0 0 243c0,15 7,29 28,29 19,0 27,-14 27,-29l0 -243 74 0c14,0 27,-8 27,-27 0,-20 -13,-26 -27,-26z"/>
   <path class="fil4 str6" d="M9697 16460c0,-93 -37,-164 -120,-190 52,-30 83,-79 83,-152l0 -14c0,-128 -73,-200 -218,-200l-59 0c-115,0 -187,49 -187,168 0,29 15,52 53,52 38,0 52,-23 52,-52 0,-47 33,-67 82,-67l59 0c79,0 113,30 113,99l0 14c0,71 -42,121 -122,121l-64 0c-27,0 -50,13 -50,49 0,36 23,49 50,49l114 0c79,0 110,52 110,123l0 37c0,70 -34,110 -113,110l-120 0c-49,0 -81,-20 -81,-67 0,-29 -15,-52 -52,-52 -38,0 -53,23 -53,52 0,119 72,168 186,168l120 0c145,0 217,-83 217,-211l0 -37zm224 48c0,-51 19,-92 55,-108l206 -93c100,-45 123,-123 123,-199l0 -4c0,-128 -73,-200 -218,-200l-68 0c-115,0 -186,49 -186,168 0,29 14,52 52,52 38,0 52,-23 52,-52 0,-47 33,-67 82,-67l68 0c79,0 113,30 113,99l0 4c0,53 -17,85 -62,105l-191 85c-89,38 -131,123 -131,220l0 179 448 0c28,0 51,-15 51,-51 0,-35 -23,-50 -51,-50l-343 0 0 -88zm658 147c0,29 15,53 53,53 38,0 52,-24 52,-53l0 -95c0,-157 31,-254 109,-380l116 -187c28,-44 9,-78 -42,-78l-416 0c-28,0 -50,15 -50,51 0,35 22,50 50,50l328 0 -72 109c-100,153 -128,256 -128,435l0 95z"/>
   <g>
    <path class="fil4" d="M6524 14216c0,-42 35,-76 78,-76 42,0 77,34 77,76l-155 0zm0 423l0 -423 155 0 0 423 -77 75 -78 -75zm155 0c0,42 -35,75 -77,75 -43,0 -78,-33 -78,-75l155 0zm3200 75l-3277 0 0 -151 3277 0 0 0 0 151zm0 -151c42,0 77,34 77,76 0,42 -35,75 -77,75l0 -151zm4027 151l-4027 0 0 -151 4027 0 78 76 -78 75zm0 -151c43,0 78,34 78,76 0,42 -35,75 -78,75l0 -151zm78 -347l0 423 -155 0 0 -423 155 0zm-155 0c0,-42 35,-76 77,-76 43,0 78,34 78,76l-155 0z"/>
   </g>
   <g>
    <path class="fil4" d="M9975 14639c0,-42 37,-76 82,-76 45,0 82,34 82,76l-164 0zm0 821l0 -821 164 0 0 821 -164 0zm164 0c0,42 -37,75 -82,75 -45,0 -82,-33 -82,-75l164 0z"/>
   </g>
   <path class="fil4" d="M10108 15585l-102 0 -312 -481 102 -66 312 481 -102 0 102 66zm0 0l-51 79 -51 -79 102 0zm261 -514l51 33 -312 481 -102 -66 312 -481 51 33zm-251 387l0 3 0 2 -1 3 0 3 -1 3 -1 2 -1 3 -1 3 -1 2 -2 3 -1 2 -2 2 -1 3 -2 2 -2 2 -2 2 -2 2 -2 1 -3 2 -2 2 -3 1 -2 1 -3 2 -2 1 -3 1 -3 1 -3 0 -3 1 -3 1 -3 0 -3 0 -3 0 -3 0 -3 0 -3 0 -3 -1 -3 -1 -3 0 -3 -1 -3 -1 -3 -1 -2 -2 -3 -1 -2 -1 -3 -2 -2 -2 -2 -1 -2 -2 -2 -2 -2 -2 -2 -2 -2 -3 -1 -2 -2 -2 -1 -3 -1 -2 -1 -3 -1 -3 -1 -2 -1 -3 0 -3 -1 -3 0 -2 0 -3 122 0zm-122 -711l122 0 0 711 -122 0 0 -711zm0 0l0 -3 0 -3 1 -3 0 -3 1 -3 1 -2 1 -3 1 -2 1 -3 1 -2 2 -3 1 -2 2 -2 2 -2 2 -2 2 -2 2 -2 2 -2 2 -2 3 -1 2 -2 3 -1 2 -1 3 -2 3 -1 3 0 3 -1 3 -1 3 0 3 -1 3 0 3 0 3 0 3 0 3 1 3 0 3 1 3 1 3 0 3 1 2 2 3 1 2 1 3 2 2 1 3 2 2 2 2 2 2 2 2 2 2 2 1 2 2 2 1 3 2 2 1 3 1 2 1 3 1 2 1 3 0 3 1 3 0 3 0 3 -122 0z"/>
   <path class="fil5" d="M4394 4176c-15,14 -20,32 -1,51 18,18 36,13 51,0 24,-20 48,-46 68,-71l0 400 -86 0c-20,0 -37,10 -37,36 0,27 17,37 37,37l233 0c21,0 37,-10 37,-37 0,-26 -16,-36 -37,-36l-70 0 0 -471c0,-21 -6,-38 -35,-38l-14 0c-13,0 -22,6 -29,13 -36,39 -75,78 -117,116zm432 -121c-21,0 -37,11 -37,37l0 221c0,26 16,37 37,37l110 0c58,0 78,25 78,77l0 60c0,51 -20,77 -78,77l-28 0c-36,0 -60,-15 -60,-49 0,-22 -11,-39 -39,-39 -28,0 -38,17 -38,39 0,86 52,123 137,123l28 0c106,0 156,-57 156,-151l0 -60c0,-95 -50,-151 -156,-151l-70 0 0 -147 162 0c21,0 37,-11 37,-37 0,-26 -16,-37 -37,-37l-202 0zm418 194c0,-82 22,-128 87,-128l4 0c65,0 86,46 86,128l0 187c0,82 -21,128 -86,128l-4 0c-65,0 -87,-46 -87,-128l0 -187zm255 0c0,-126 -50,-202 -164,-202l-4 0c-113,0 -164,76 -164,202l0 187c0,125 51,202 164,202l4 0c114,0 164,-77 164,-202l0 -187z"/>
   <path class="fil5" d="M6218 4188c0,-21 -10,-36 -34,-36 -26,0 -37,15 -37,36l0 119 -110 0c-21,0 -36,10 -36,35 0,26 15,35 36,35l110 0 0 120c0,21 10,36 36,36 25,0 35,-15 35,-36l0 -120 112 0c20,0 36,-9 36,-35 0,-25 -16,-35 -36,-35l-112 0 0 -119z"/>
   <path class="fil5" d="M6875 4176c-15,14 -21,32 -1,51 18,18 36,13 51,0 24,-20 48,-46 68,-71l0 400 -86 0c-21,0 -37,10 -37,36 0,27 16,37 37,37l233 0c20,0 37,-10 37,-37 0,-26 -17,-36 -37,-36l-70 0 0 -471c0,-21 -6,-38 -35,-38l-14 0c-13,0 -22,6 -30,13 -35,39 -74,78 -116,116zm468 423c0,21 11,39 39,39 28,0 39,-18 39,-39l0 -70c0,-115 7,-189 55,-271l86 -146c20,-32 6,-57 -31,-57l-257 0c-21,0 -37,11 -37,37 0,26 16,37 37,37l192 0 -53 88c-61,104 -70,180 -70,312l0 70zm488 -549c-131,78 -172,182 -172,311l0 122c0,94 49,155 155,155l7 0c107,0 156,-53 156,-147l0 -50c0,-93 -49,-155 -156,-155l-80 0c12,-67 50,-121 132,-171 17,-11 30,-31 15,-55 -15,-23 -39,-21 -57,-10zm-17 514c-58,0 -78,-30 -78,-81l0 -123 85 0c58,0 79,29 79,81l0 50c0,51 -21,73 -79,73l-7 0z"/>
   <path class="fil5" d="M8971 4195c-25,0 -35,18 -35,38l0 326 -102 0 0 -326c0,-20 -10,-38 -35,-38 -26,0 -36,18 -36,38l0 326 -100 0 0 -326c0,-20 -11,-38 -37,-38 -24,0 -35,18 -35,38l0 359c0,19 11,37 36,37l343 0c26,0 37,-18 37,-37l0 -359c0,-20 -10,-38 -36,-38zm369 8l-219 0c-19,0 -36,10 -36,36 0,25 17,34 36,34l72 0 0 327c0,20 10,38 37,38 27,0 37,-18 37,-38l0 -327 73 0c18,0 36,-9 36,-34 0,-26 -18,-36 -36,-36z"/>
   <path class="fil6 str7" d="M6848 5076c-201,-165 -329,-415 -329,-695 0,-280 128,-530 329,-694m1135 0c201,164 330,414 330,694 0,280 -129,530 -330,695"/>
  </g>
 </g>
</svg>
