<?xml version="1.0" encoding="UTF-8"?>
<!DOCTYPE svg PUBLIC "-//W3C//DTD SVG 1.0//EN" "http://www.w3.org/TR/2001/REC-SVG-20010904/DTD/svg10.dtd">
<!-- Creator: CorelDRAW X7 -->
<svg xmlns="http://www.w3.org/2000/svg" xml:space="preserve" width="200mm" height="200mm" version="1.0" style="shape-rendering:geometricPrecision; text-rendering:geometricPrecision; image-rendering:optimizeQuality; fill-rule:evenodd; clip-rule:evenodd"
viewBox="0 0 20000 20000"
 xmlns:xlink="http://www.w3.org/1999/xlink">
 <defs>
  <style type="text/css">
   <![CDATA[
    .str0 {stroke:#4D897C;stroke-width:100}
    .str1 {stroke:#F9ECE4;stroke-width:150}
    .str2 {stroke:#38959F;stroke-width:25}
    .fil13 {fill:none}
    .fil23 {fill:#FEFEFE}
    .fil3 {fill:#FCDFCA}
    .fil16 {fill:#F9D5BB}
    .fil6 {fill:#F9EFE8}
    .fil8 {fill:#F7D0B4}
    .fil24 {fill:#F7E9E2}
    .fil19 {fill:#F4CBAF}
    .fil21 {fill:#F4B704}
    .fil17 {fill:#F0AFA8}
    .fil25 {fill:#F3C9AC}
    .fil20 {fill:#F2C5A5}
    .fil28 {fill:#F3BC64}
    .fil26 {fill:#F0C09E}
    .fil22 {fill:#E6A016}
    .fil41 {fill:#DEB391}
    .fil40 {fill:#D9AB85}
    .fil14 {fill:#C68667}
    .fil15 {fill:#B87055}
    .fil11 {fill:#AF642C}
    .fil18 {fill:#B06549}
    .fil27 {fill:#975729}
    .fil12 {fill:#AE5877}
    .fil29 {fill:#7D4525}
    .fil30 {fill:#764024}
    .fil32 {fill:#6F3F26}
    .fil31 {fill:#673A25}
    .fil7 {fill:#58423E}
    .fil4 {fill:#7AB4CD}
    .fil1 {fill:#5C4745}
    .fil9 {fill:#4D897C}
    .fil5 {fill:#5FA5BC}
    .fil39 {fill:#62A1B5}
    .fil43 {fill:#444342}
    .fil34 {fill:#2D78A2}
    .fil37 {fill:#346B89}
    .fil33 {fill:#28648C}
    .fil36 {fill:#2E5977}
    .fil38 {fill:#2D4B63}
    .fil35 {fill:#275173}
    .fil42 {fill:#3696A0}
    .fil2 {fill:#F9ECE4}
    .fil10 {fill:#4D897C;fill-rule:nonzero}
    .fil0 {fill:url(#id0)}
   ]]>
  </style>
  <radialGradient id="id0" gradientUnits="userSpaceOnUse" gradientTransform="matrix(1.41421 -0 -0 1.41421 -4131 -4154)" cx="9974.09" cy="10029.4" r="10000" fx="9974.09" fy="10029.4">
   <stop offset="0" style="stop-opacity:1; stop-color:#FEFEFE"/>
   <stop offset="0.439216" style="stop-opacity:1; stop-color:#FEFEFE"/>
   <stop offset="1" style="stop-opacity:1; stop-color:#D1E2F2"/>
  </radialGradient>
 </defs>
 <g id="Layer_x0020_1">
  <metadata id="CorelCorpID_0Corel-Layer"/>
  <path class="fil0" d="M-26 29l20000 0 0 20000 -20000 0 0 -20000z"/>
  <g id="_987276961536">
   <g>
    <g>
     <path class="fil1 str0" d="M11595 7187c-145,-82 -349,-133 -575,-133 -231,0 -439,53 -585,138 -26,-109 -57,-216 -89,-323 -68,-232 -142,-457 -118,-702 13,-136 54,-314 147,-418 53,-60 134,-96 217,-110l1 -1c5,-12 11,-25 18,-36 195,-326 708,-246 947,-23 149,140 233,340 253,544 24,245 -50,470 -118,702 -36,119 -70,240 -98,362z"/>
     <path class="fil2" d="M12212 7943c-49,-151 -111,-211 -267,-244l-451 -117c-84,-18 -146,-90 -151,-175l-64 -583 -275 0 -275 0 -64 583c-5,85 -67,157 -150,175l-452 117c-156,33 -217,93 -267,244l-49 570 1257 0 1257 0 -49 -570z"/>
     <path class="fil2 str0" d="M10951 5681c-129,12 -307,75 -386,193 -81,121 -121,307 -101,453l122 515c1,6 3,12 4,18l0 4c11,60 47,112 96,148l204 148c34,28 54,44 97,44l14 0 3 0 0 -1526c-18,1 -36,1 -53,3z"/>
     <path class="fil2 str0" d="M11058 5681c128,12 306,75 386,193 81,121 120,307 100,453l-124 524 0 2c-9,64 -45,121 -98,159l-203 148c-34,28 -55,44 -97,44l-15 0 -3 0 0 -1526c18,1 36,1 54,3z"/>
     <path class="fil3" d="M11585 6327c9,0 19,2 25,8 4,4 6,9 8,14 12,31 15,65 9,97 -31,47 -68,92 -90,143 -6,15 -19,44 -38,46 -20,3 -27,-24 -28,-39 -7,-78 5,-157 16,-234 1,-6 2,-12 5,-17 4,-5 10,-7 16,-9 25,-8 51,-11 77,-9z"/>
     <path class="fil2" d="M11497 6636c-11,0 -18,-9 -21,-18 -3,-8 -5,-16 -5,-22 -2,-16 -2,-31 -2,-47 0,-63 9,-125 18,-187 1,-6 2,-12 5,-17 4,-5 10,-7 16,-9 20,-6 42,-10 63,-10 5,0 10,0 14,1 9,0 19,2 25,8 4,4 6,9 8,14 8,21 12,43 12,65 0,11 -1,22 -3,32 -31,47 -68,92 -90,143 -6,15 -19,44 -38,46 0,0 -1,1 -2,1z"/>
     <path class="fil2" d="M10420 6327c-9,0 -18,2 -24,8 -4,4 -7,9 -9,14 -11,31 -14,65 -8,97 31,47 68,92 89,143 6,15 19,44 38,46 21,3 28,-24 29,-39 6,-78 -5,-157 -16,-234 -1,-6 -2,-12 -6,-17 -4,-5 -10,-7 -15,-9 -25,-8 -52,-11 -78,-9z"/>
     <path class="fil4 str0" d="M12212 7943c-49,-151 -111,-211 -267,-244l-451 -117c-84,-18 -146,-90 -151,-175l-26 -195c-73,43 -186,71 -313,71 -127,0 -239,-28 -313,-71l-26 195c-5,85 -67,157 -150,175l-452 117c-156,33 -217,93 -267,244l-49 570 1257 0 1257 0 -49 -570z"/>
     <path class="fil5 str0" d="M11268 7595c-27,16 -54,35 -83,48 -53,25 -111,33 -168,33 -36,0 -73,-3 -107,-18 -25,-10 -48,-27 -73,-39 -52,-26 -110,-32 -166,-43 -29,-6 -61,-16 -73,-45 -16,-36 8,-75 19,-113 18,-61 3,-84 9,-148 1,-19 5,-36 7,-55 1,-12 7,-26 18,-27 18,-2 52,20 70,28 29,14 57,29 88,36 42,10 85,5 126,9 21,2 42,6 63,9 101,11 202,-21 292,-72 16,-9 26,-24 46,-25 7,0 15,-1 22,4 22,14 18,77 18,100 2,80 1,118 30,192 7,17 15,38 5,54 -4,7 -10,11 -17,15 -30,20 -69,24 -101,42 -8,4 -17,9 -25,15z"/>
     <path class="fil6" d="M11493 7582c0,0 0,0 0,0 0,0 0,0 0,0z"/>
     <path class="fil6" d="M11493 7582c0,0 0,0 -1,-1 1,1 1,1 1,1z"/>
     <path class="fil6" d="M11492 7581c0,0 0,0 0,0 0,0 0,0 0,0z"/>
     <path class="fil6" d="M11492 7581c-35,-7 -66,-24 -90,-48 0,0 0,0 0,0 24,24 55,41 90,48z"/>
     <path class="fil6" d="M11416 7506c0,-12 -6,-25 -10,-37 -29,-74 -28,-112 -30,-192 0,-1 0,-2 0,-3 0,1 0,2 0,3 2,80 1,118 30,192 4,12 10,25 10,37zm-98 -328l-10 -95 10 95z"/>
     <path class="fil7" d="M11308 7083l0 0 -7 -56 7 56zm-602 -44l0 0 1 -12 -1 12z"/>
     <path class="fil2 str0" d="M11040 7272c-14,0 -28,-1 -42,-2 -21,-3 -42,-7 -63,-9 -27,-3 -219,-60 -247,-62l18 -160 1 -12 183 133c33,28 54,44 96,44 0,0 0,0 1,0l14 0 3 0 3 0 15 0c42,0 63,-16 97,-44l182 -133 7 56 10 95c-9,6 -17,14 -28,20 -78,44 -164,74 -250,74z"/>
     <path class="fil8" d="M10986 7204c-42,-1 -63,-16 -96,-44 33,28 54,44 96,44z"/>
     <path class="fil6" d="M11376 7251c0,-24 -1,-53 -12,-68 11,15 12,45 12,68zm-18 -74c-1,-1 -1,-1 -1,-1 0,0 0,0 1,1zm-1 -1c0,0 0,0 0,0 0,0 0,0 0,0zm-22 -3c0,0 0,0 0,0 0,0 0,0 0,0zm0 0c0,0 0,0 0,0 0,0 0,0 0,0zm1 0c2,0 4,0 6,0 -2,0 -4,0 -6,0zm6 0c0,0 0,0 0,0l0 0c0,0 0,0 0,0z"/>
     <path class="fil1" d="M10423 5848c20,-30 41,-59 68,-81 28,-22 65,-36 100,-29 18,3 34,11 49,22 20,15 36,33 49,54 42,74 27,168 -10,244 -37,77 -93,142 -133,217 -70,132 -89,290 -51,434 -53,-20 -94,-64 -125,-111 -73,-111 -106,-247 -93,-378 14,-134 74,-259 146,-372z"/>
     <path class="fil1" d="M11091 5573c-146,-17 -298,33 -410,128 -13,11 -26,23 -34,37 -20,31 -19,71 -11,106 32,143 164,243 298,300 135,57 282,84 412,153 4,-42 -7,-86 -29,-122 64,65 104,154 109,246 21,-51 27,-88 29,-125 80,142 93,322 81,485 82,-68 140,-162 176,-263 35,-101 49,-208 54,-315 2,-27 2,-54 -3,-81 -5,-22 -15,-44 -24,-65 -53,-118 -109,-241 -212,-319 -62,-47 -136,-75 -209,-101 -74,-27 -148,-55 -227,-64z"/>
     <path class="fil2" d="M10970 7166c-4,0 -50,-233 -54,-237 -6,-6 0,-113 -6,-118 -8,-7 0,-126 -8,-130l5 -394 11 -117c66,-42 146,39 162,50l-7 175 3 235c-3,13 -5,34 -8,49 63,175 39,579 -98,487z"/>
     <g>
      <path class="fil9" d="M10790 6488c-18,0 -32,14 -32,31 0,17 14,31 32,31 17,0 31,-14 31,-31 0,-17 -14,-31 -31,-31zm409 0c-17,0 -31,14 -31,31 0,17 14,31 31,31 18,0 32,-14 32,-31 0,-17 -14,-31 -32,-31z"/>
      <path id="1" class="fil10" d="M10790 6519l-63 0 0 0 0 -3 1 -3 0 -3 0 -2 1 -3 1 -3 1 -3 1 -2 1 -3 1 -2 2 -3 1 -2 2 -2 1 -2 2 -3 2 -2 2 -2 3 -2 2 -1 2 -2 3 -2 3 -1 2 -2 3 -1 3 -1 3 -1 3 -1 3 -1 4 0 3 -1 3 0 4 0 0 55 0 0 0 0 0 0 0 0 1 0 0 0 0 0 0 0 0 0 0 0 0 0 0 0 0 0 0 0 0 0 0 0 0 0 0 0 0 0 0 1 -1 0 0 0 0 0 0 0 0 1 0 0 0 0 0 0 0 1 0 0 0 0 0 1 0 0zm0 0c0,15 -14,28 -32,28 -17,0 -31,-13 -31,-28l63 0zm0 3l0 56 0 0 -4 0 -3 -1 -3 0 -4 -1 -3 0 -3 -1 -3 -1 -3 -1 -3 -2 -2 -1 -3 -2 -3 -1 -2 -2 -2 -2 -3 -2 -2 -2 -2 -2 -2 -2 -1 -2 -2 -2 -1 -3 -2 -2 -1 -3 -1 -2 -1 -3 -1 -3 -1 -2 -1 -3 0 -3 0 -3 -1 -2 0 -3 63 0 0 0 0 0 0 1 0 0 0 0 0 1 0 0 0 0 0 0 0 1 0 0 0 0 1 0 0 0 0 0 0 0 0 0 0 1 0 0 0 0 0 0 0 0 0 -1 0 0 0 0 0 0 0 0 -1 0 0 0 0 0 0 0 0 0 0 0zm0 0c17,0 31,13 31,28 0,15 -14,28 -31,28l0 -56zm0 -3l62 0 0 0 0 3 0 2 -1 3 0 3 -1 3 -1 2 0 3 -1 3 -2 2 -1 3 -1 2 -2 3 -1 2 -2 2 -2 2 -2 2 -2 2 -2 2 -3 2 -2 2 -3 1 -2 2 -3 1 -3 2 -3 1 -3 1 -3 1 -3 0 -3 1 -4 0 -3 1 -3 0 0 -56 -1 0 0 0 0 0 0 0 0 0 0 0 0 0 -1 0 0 0 0 1 0 0 0 0 0 0 0 -1 0 0 0 0 1 0 0 0 0 0 0 0 0 0 0 0 0 -1 0 0 0 0 0 0 0 -1 1 0 0 0 0 -1 0 0 0 0 0 0zm0 0c0,-16 14,-28 31,-28 17,0 31,12 31,28l-62 0zm0 -4l0 -55 0 0 3 0 3 0 4 1 3 0 3 1 3 1 3 1 3 1 3 1 3 2 2 1 3 2 2 2 3 1 2 2 2 2 2 2 2 3 2 2 1 2 2 2 1 3 1 2 2 3 1 2 0 3 1 3 1 3 0 2 1 3 0 3 0 3 -62 0 0 -1 0 0 0 0 0 -1 -1 0 0 0 0 0 0 0 0 -1 0 0 0 0 0 0 0 -1 0 0 0 0 -1 0 0 0 0 0 0 0 0 0 0 0 0 0 0 0 0 0 1 0 0 0 0 0 0 0 0 0 0 0 0 0 1 0 0 0zm0 0c-18,0 -32,-12 -32,-27 0,-16 14,-28 32,-28l0 55zm409 4l-62 0 0 0 0 -3 0 -3 1 -3 0 -2 1 -3 1 -3 0 -3 1 -2 2 -3 1 -2 1 -3 2 -2 1 -2 2 -2 2 -3 2 -2 2 -2 2 -2 3 -1 2 -2 3 -2 2 -1 3 -2 3 -1 3 -1 3 -1 3 -1 3 -1 3 0 4 -1 3 0 3 0 0 55 0 0 1 0 0 0 0 0 0 0 0 0 0 0 1 0 0 0 0 0 0 0 0 0 0 0 0 0 0 0 0 0 -1 0 0 0 0 0 0 1 0 0 0 0 0 0 0 0 0 1 0 0 0 0 -1 0 0 1 0 0 0 0 0 1 0 0zm0 0c0,15 -14,28 -31,28 -17,0 -31,-13 -31,-28l62 0zm0 3l0 56 0 0 -3 0 -3 -1 -4 0 -3 -1 -3 0 -3 -1 -3 -1 -3 -1 -3 -2 -3 -1 -2 -2 -3 -1 -2 -2 -3 -2 -2 -2 -2 -2 -2 -2 -2 -2 -2 -2 -1 -2 -2 -3 -1 -2 -1 -3 -2 -2 -1 -3 0 -3 -1 -2 -1 -3 0 -3 -1 -3 0 -2 0 -3 62 0 0 0 0 0 0 1 0 0 1 0 0 1 0 0 0 0 0 0 0 1 0 0 0 0 0 0 0 0 1 0 0 0 0 0 0 1 0 0 0 0 0 0 0 0 0 -1 0 0 -1 0 0 0 0 0 0 0 0 0 0 0 -1 0 0 0 0 0zm0 0c18,0 32,13 32,28 0,15 -14,28 -32,28l0 -56zm0 -3l63 0 0 0 0 3 -1 2 0 3 0 3 -1 3 -1 2 -1 3 -1 3 -1 2 -1 3 -2 2 -1 3 -2 2 -1 2 -2 2 -2 2 -2 2 -3 2 -2 2 -2 2 -3 1 -3 2 -2 1 -3 2 -3 1 -3 1 -3 1 -3 0 -4 1 -3 0 -3 1 -4 0 0 -56 0 0 0 0 0 0 0 0 -1 0 0 0 0 0 0 0 0 0 0 1 0 0 0 0 0 0 0 0 0 -1 0 0 0 0 0 0 0 0 0 0 1 0 0 0 0 -1 0 0 0 0 0 0 0 -1 0 0 0 0 0 -1 0 0 0 0 0 0zm0 0c0,-16 14,-28 32,-28 17,0 31,12 31,28l-63 0zm0 -4l0 -55 0 0 4 0 3 0 3 1 4 0 3 1 3 1 3 1 3 1 3 1 2 2 3 1 3 2 2 2 2 1 3 2 2 2 2 2 2 3 1 2 2 2 1 2 2 3 1 2 1 3 1 2 1 3 1 3 1 3 0 2 0 3 1 3 0 3 -63 0 0 -1 0 0 0 0 0 -1 0 0 0 0 0 0 0 -1 0 0 0 0 0 0 -1 0 0 -1 0 0 0 0 0 0 0 0 0 0 0 0 0 0 0 0 0 0 0 0 0 0 0 0 0 0 0 0 1 0 0 0 0 0 0 0 0 0 0 0zm0 0c-17,0 -31,-12 -31,-27 0,-16 14,-28 31,-28l0 55z"/>
     </g>
    </g>
    <g>
     <path class="fil11 str0" d="M3737 5995c-62,-197 -191,-379 -378,-490 -108,-63 -251,-102 -396,-109 -120,-6 -56,1371 -56,1543l0 0c8,16 15,32 23,48 321,3 464,82 464,82 353,-329 384,-726 386,-776 -1,-99 -12,-199 -43,-298z"/>
     <path class="fil11 str0" d="M2078 5995c61,-197 190,-379 377,-490 108,-63 251,-102 396,-109 384,-74 96,1357 56,1543l0 0c-8,16 -15,32 -23,48 -321,3 -463,82 -463,82 -354,-329 -385,-726 -387,-776 1,-99 13,-199 44,-298z"/>
     <path class="fil2 str0" d="M4115 7952c-49,-151 -111,-211 -267,-245l-451 -116c-84,-18 -146,-90 -151,-175l-64 -584 -275 0 -275 0 -64 584c-5,85 -67,157 -150,175l-452 116c-156,34 -217,94 -267,245l-49 570 1257 0 1257 0 -49 -570z"/>
     <path class="fil2 str0" d="M2853 5690c-128,12 -306,75 -386,193 -80,121 -120,307 -100,453l122 515c1,6 3,12 4,18l0 3c11,60 47,113 96,149l204 147c34,29 54,45 97,45l14 0 3 0 0 -1526c-18,0 -36,1 -54,3z"/>
     <path class="fil2 str0" d="M2961 5690c128,12 306,75 386,193 81,121 120,307 100,453l-124 524 0 1c-9,65 -45,122 -98,160l-204 147c-33,29 -54,45 -96,45l-15 0 -3 0 0 -1526c18,0 36,1 54,3z"/>
     <path class="fil3" d="M3488 6335c9,1 19,3 25,9 4,4 6,9 8,14 12,31 15,65 9,97 -31,46 -68,92 -90,143 -6,15 -19,44 -38,46 -21,3 -27,-24 -28,-39 -7,-79 5,-157 16,-235 1,-5 2,-11 5,-16 4,-5 10,-7 16,-9 25,-8 51,-11 77,-10z"/>
     <path class="fil2" d="M3400 6644c-11,0 -18,-8 -22,-18 -2,-7 -4,-15 -4,-21 -2,-16 -2,-31 -2,-47 0,-63 9,-125 18,-188 1,-5 2,-11 5,-16 4,-5 10,-7 16,-9 20,-7 42,-10 63,-10 5,0 10,0 14,0 9,1 19,3 25,9 4,4 6,9 8,14 8,21 12,43 12,65 0,10 -1,21 -3,32 -31,46 -68,92 -90,143 -6,15 -19,44 -38,46 -1,0 -1,0 -2,0z"/>
     <path class="fil2" d="M2323 6335c-9,1 -18,3 -24,9 -4,4 -7,9 -9,14 -11,31 -14,65 -8,97 31,46 68,92 89,143 6,15 19,44 38,46 21,3 28,-24 29,-39 6,-79 -5,-157 -16,-235 -1,-5 -2,-11 -6,-16 -4,-5 -10,-7 -15,-9 -25,-8 -52,-11 -78,-10z"/>
     <path class="fil12 str0" d="M4176 7950c-22,-219 -145,-286 -286,-272 -29,3 -56,10 -81,19l-366 -94c-46,154 -268,271 -536,271 -267,0 -490,-117 -536,-271l-335 86c-33,-18 -71,-29 -112,-33 -141,-14 -263,53 -286,272 -10,102 12,594 12,594l1257 0 1257 0c0,0 22,-472 12,-572z"/>
     <path class="fil6" d="M3246 7416l-42 -380 42 380z"/>
     <path class="fil8" d="M2889 7213c-42,-1 -63,-16 -96,-45 33,29 54,44 96,45zm-96 -45l-183 -132 183 132z"/>
     <path class="fil8" d="M3809 7697l-366 -94 227 58 139 36z"/>
     <path class="fil11 str0" d="M3267 5666c-73,-39 -158,-48 -240,-56 -65,-6 -131,-12 -194,2 -58,13 -111,42 -163,70 -96,52 -199,113 -235,216 -6,17 -9,35 -8,53 2,20 10,39 19,56 43,82 119,143 202,184 83,41 174,63 265,81 -15,-17 -30,-35 -45,-53 125,61 262,99 400,110 -20,-10 -39,-23 -56,-38 153,27 291,129 363,267 10,-169 16,-338 17,-507 0,-21 0,-43 -7,-63 -9,-27 -29,-49 -48,-70 -35,-37 -70,-74 -105,-112 -50,-53 -101,-106 -165,-140z"/>
     <path class="fil11 str0" d="M2569 5804c47,284 -80,590 -318,761 -99,-290 -26,-684 318,-761z"/>
     <path class="fil13 str1" d="M2907 7176l0 -865"/>
     <g>
      <path class="fil9" d="M2691 6387c-17,0 -31,14 -31,32 0,17 14,31 31,31 17,0 31,-14 31,-31 0,-18 -14,-32 -31,-32zm409 0c-17,0 -31,14 -31,32 0,17 14,31 31,31 18,0 32,-14 32,-31 0,-18 -14,-32 -32,-32z"/>
      <path id="1" class="fil10" d="M2691 6419l-63 0 0 0 0 -3 1 -3 0 -3 1 -3 0 -2 1 -3 1 -3 1 -2 1 -3 1 -2 2 -3 1 -2 2 -2 2 -3 1 -2 2 -2 3 -2 2 -2 2 -2 2 -1 3 -2 3 -1 2 -2 3 -1 3 -1 3 -1 3 -1 4 -1 3 -1 3 0 3 0 4 0 0 55 0 0 0 0 0 0 0 0 1 0 0 0 0 0 0 0 0 0 0 0 0 0 0 0 0 0 0 0 0 0 0 0 0 0 0 0 0 0 0 1 -1 0 0 0 0 0 0 0 0 1 0 0 0 0 0 0 0 1 0 0 0 0 0 1 0 0zm0 0c0,15 -14,27 -31,27 -18,0 -32,-12 -32,-27l63 0zm0 3l0 56 0 0 -4 0 -3 -1 -3 0 -3 -1 -4 0 -3 -1 -3 -1 -3 -2 -3 -1 -2 -1 -3 -2 -3 -1 -2 -2 -2 -2 -2 -2 -3 -2 -2 -2 -1 -2 -2 -2 -2 -3 -1 -2 -2 -2 -1 -3 -1 -2 -1 -3 -1 -3 -1 -2 0 -3 -1 -3 0 -3 -1 -3 0 -2 63 0 0 0 0 0 0 1 0 0 0 0 0 1 0 0 0 0 0 0 0 0 0 1 1 0 0 0 0 0 0 0 0 0 0 0 0 0 0 0 0 0 0 0 0 0 0 0 0 0 0 0 0 0 0 0 -1 0 0 0 0 0 0 0 0 0 0 0zm0 0c17,0 31,13 31,28 0,15 -14,28 -31,28l0 -56zm0 -3l62 0 0 0 0 2 0 3 -1 3 0 3 -1 3 0 2 -1 3 -1 3 -1 2 -2 3 -1 2 -2 2 -1 3 -2 2 -2 2 -2 2 -2 2 -2 2 -3 2 -2 2 -2 1 -3 2 -3 1 -3 1 -3 2 -3 1 -3 1 -3 0 -3 1 -4 0 -3 1 -3 0 0 -56 0 0 -1 0 0 0 0 0 0 0 0 0 0 0 0 0 -1 0 0 0 0 0 0 0 0 0 0 0 0 0 1 0 0 0 0 0 0 0 0 0 0 0 0 -1 0 0 0 0 0 0 0 0 1 -1 0 0 0 0 0 -1 0 0 0 0 0 0zm0 0c0,-16 14,-28 31,-28 17,0 31,12 31,28l-62 0zm0 -4l0 -55 0 0 3 0 3 0 4 0 3 1 3 1 3 1 3 1 3 1 3 1 3 2 2 1 3 2 3 1 2 2 2 2 2 2 2 2 2 2 2 3 1 2 2 2 1 3 2 2 1 3 1 2 1 3 0 3 1 2 0 3 1 3 0 3 0 3 -62 0 0 -1 0 0 0 0 0 -1 0 0 -1 0 0 0 0 -1 0 0 0 0 0 0 0 0 0 -1 0 0 0 0 0 0 -1 0 0 0 0 0 0 0 0 0 0 0 0 0 1 0 0 0 0 0 0 0 0 0 0 0 0 0 1 0 0 0 0 0zm0 0c-17,0 -31,-12 -31,-28 0,-15 14,-27 31,-27l0 55zm409 4l-62 0 0 0 0 -3 0 -3 1 -3 0 -3 1 -2 1 -3 1 -3 1 -2 1 -3 1 -2 1 -3 2 -2 1 -2 2 -3 2 -2 2 -2 2 -2 2 -2 3 -2 2 -1 3 -2 2 -1 3 -2 3 -1 3 -1 3 -1 3 -1 3 -1 3 -1 4 0 3 0 3 0 0 55 1 0 0 0 0 0 0 0 0 0 0 0 1 0 0 0 0 0 0 0 0 0 0 0 0 0 0 0 0 0 0 0 0 0 -1 0 0 0 0 1 0 0 0 0 0 0 0 0 0 1 0 0 0 0 0 0 0 1 -1 0 0 0 0 1 0 0zm0 0c0,15 -14,27 -31,27 -17,0 -31,-12 -31,-27l62 0zm0 3l0 56 0 0 -3 0 -3 -1 -4 0 -3 -1 -3 0 -3 -1 -3 -1 -3 -2 -3 -1 -3 -1 -2 -2 -3 -1 -2 -2 -3 -2 -2 -2 -2 -2 -2 -2 -2 -2 -2 -2 -1 -3 -2 -2 -1 -2 -1 -3 -1 -2 -1 -3 -1 -3 -1 -2 -1 -3 0 -3 -1 -3 0 -3 0 -2 62 0 0 0 0 0 1 1 0 0 0 0 0 1 0 0 0 0 0 0 0 0 0 1 0 0 0 0 0 0 1 0 0 0 0 0 0 0 0 0 0 0 0 0 0 0 0 0 0 0 0 0 -1 0 0 0 0 0 0 0 0 0 0 0 -1 0 0 0zm0 0c18,0 32,13 32,28 0,15 -14,28 -32,28l0 -56zm0 -3l63 0 0 0 0 2 0 3 -1 3 0 3 -1 3 -1 2 -1 3 -1 3 -1 2 -1 3 -1 2 -2 2 -2 3 -1 2 -2 2 -2 2 -2 2 -3 2 -2 2 -2 2 -3 1 -2 2 -3 1 -3 1 -3 2 -3 1 -3 1 -3 0 -4 1 -3 0 -3 1 -4 0 0 -56 0 0 0 0 0 0 0 0 0 0 -1 0 0 0 0 0 0 0 0 0 0 0 0 0 0 0 0 0 0 0 0 0 0 0 0 0 0 0 1 0 0 0 0 -1 0 0 0 0 0 0 0 0 0 -1 0 0 0 0 0 -1 0 0 0 0 0 0zm0 0c0,-16 14,-28 32,-28 17,0 31,12 31,28l-63 0zm0 -4l0 -55 0 0 4 0 3 0 3 0 4 1 3 1 3 1 3 1 3 1 3 1 3 2 2 1 3 2 2 1 3 2 2 2 2 2 2 2 2 2 1 3 2 2 2 2 1 3 1 2 1 3 1 2 1 3 1 3 1 2 0 3 1 3 0 3 0 3 -63 0 0 -1 0 0 0 0 0 -1 0 0 0 0 0 0 0 -1 0 0 0 0 0 0 0 0 -1 -1 0 0 0 0 0 0 0 0 0 0 0 0 0 0 0 0 0 0 0 0 0 0 0 0 0 0 1 0 0 0 0 0 0 0 0 0 0 0 0 0zm0 0c-17,0 -31,-12 -31,-28 0,-15 14,-27 31,-27l0 55z"/>
     </g>
    </g>
    <g id="_987276926080">
     <path class="fil14 str0" d="M5222 8091c-50,61 -38,155 -7,229 30,74 111,119 121,199 -49,-64 -149,-91 -222,-120 -45,-18 -94,-29 -137,-53 -81,-46 -133,-158 -90,-243 15,-28 38,-51 50,-80 64,-163 -198,-236 -286,-309 -155,-129 -183,-385 -77,-560 55,-90 139,-160 184,-256 76,-162 17,-299 -24,-457 -52,-204 -27,-424 58,-614 67,-152 214,-311 391,-274 13,3 27,6 39,12 51,21 91,66 112,118 44,104 15,254 -41,350 -50,85 -145,136 -189,225 -58,119 -9,245 64,341 69,90 137,208 94,314 -39,94 -147,132 -218,204 -114,115 -108,331 12,440 88,81 224,106 285,210 48,80 31,194 -37,256 -26,24 -59,41 -82,68z"/>
     <path class="fil15" d="M5667 6873l474 0 0 750 -474 0 0 -750z"/>
     <path class="fil2 str0" d="M6724 7949c-50,-151 -111,-211 -267,-245l-452 -116c-83,-18 -145,-90 -150,-175l-64 -584 -275 0 -275 0 -64 584c-6,85 -67,157 -151,175l-451 116c-156,34 -218,94 -267,245l-50 570 1258 0 1257 0 -49 -570z"/>
     <path class="fil2" d="M5569 5687c128,12 307,75 386,193 81,121 120,307 101,453l-124 524 -1 1c-8,65 -45,122 -97,160l-204 147c-34,29 -54,45 -97,45l-14 0 -3 0 0 -1526c18,0 35,1 53,3z"/>
     <path class="fil3" d="M6097 6333c9,0 18,2 24,8 5,4 7,9 9,14 11,31 14,65 8,97 -31,46 -68,92 -89,143 -6,15 -19,44 -38,46 -21,3 -28,-24 -29,-39 -6,-78 5,-157 17,-234 0,-6 1,-12 5,-17 4,-5 10,-7 16,-9 24,-8 51,-11 77,-9z"/>
     <path class="fil16" d="M6008 6641c-10,0 -17,-8 -21,-18l69 -289c9,-1 18,-2 27,-2 4,0 9,0 14,1 9,0 18,2 24,8 5,4 7,9 9,14 7,21 11,43 11,65 0,10 -1,21 -3,32 -31,46 -68,92 -89,143 -6,15 -19,44 -38,46 -1,0 -2,0 -3,0z"/>
     <path class="fil17 str0" d="M6389 8314c0,-239 85,-450 179,-573 -31,-15 -67,-27 -111,-37l-71 -25c-195,184 -512,304 -870,304 -359,0 -676,-120 -870,-304l-71 25c-44,10 -81,22 -112,37 95,123 179,334 179,573 0,72 -5,140 -15,205l889 0 889 0c-10,-65 -16,-133 -16,-205z"/>
     <path class="fil6" d="M6724 7949c0,0 -1,0 -1,-1 0,1 1,1 1,1zm-1 -1c0,0 0,0 0,0 0,0 0,0 0,0zm0 -1c0,0 0,0 0,0 0,0 0,0 0,0z"/>
     <path class="fil6" d="M6380 7685l-2 -1c3,-3 6,-5 7,-5 0,0 1,0 1,0 -2,2 -4,4 -6,6z"/>
     <path class="fil18" d="M6005 7587c0,0 0,0 0,0 0,0 0,0 0,0zm-1 0c0,0 0,0 0,0 0,0 0,0 0,0zm0 0c0,0 0,0 0,0 0,0 0,0 0,0zm-1 0c0,0 0,0 0,0 0,0 0,0 0,0zm0 0c0,0 0,0 0,0 0,0 0,0 0,0zm-1 0c0,0 0,0 0,0 0,0 0,0 0,0zm0 0c0,0 0,0 0,0 0,0 0,0 0,0zm-1 0c0,0 0,0 0,0 0,0 0,0 0,0zm0 0c0,0 0,0 0,-1 0,1 0,1 0,1zm-1 -1c0,0 0,0 0,0 0,0 0,0 0,0zm0 0c0,0 0,0 0,0 0,0 0,0 0,0zm0 0c-1,0 -1,0 -1,0 0,0 0,0 1,0zm-1 0c0,0 -1,0 -1,0 0,0 1,0 1,0zm-1 0c0,0 0,0 0,0 0,0 0,0 0,0zm0 0c0,0 -1,0 -1,0 0,0 0,0 1,0zm-1 0c-64,-17 -114,-66 -134,-128l0 0c20,62 70,111 134,128z"/>
     <path class="fil6" d="M6458 7705c0,0 0,0 0,0 0,0 0,0 0,0 0,0 0,0 0,0z"/>
     <path class="fil8" d="M6458 7705c0,0 0,0 0,0 0,0 0,0 0,0 0,0 0,0 0,0z"/>
     <path class="fil6" d="M6458 7705c0,0 0,0 0,0l0 0c0,0 0,0 0,0zm0 0c-1,0 -1,0 -1,-1 0,1 0,1 1,1z"/>
     <path class="fil8" d="M6458 7705c-1,0 -1,0 -1,-1l0 0c0,1 0,1 1,1 0,0 0,0 0,0l0 0z"/>
     <path class="fil18" d="M5874 7458l0 0c0,0 0,0 0,0zm-32 -160l0 0c5,-1 8,-1 8,-1 0,0 0,0 0,0l-8 1z"/>
     <path class="fil2" d="M5462 5687c-128,12 -306,75 -386,193 -81,121 -120,307 -100,453l122 515c1,6 2,12 3,18l1 3c11,61 46,113 96,149l203 147c34,29 54,45 97,45l15 0 3 0 0 -1526c-18,0 -36,1 -54,3z"/>
     <path class="fil19" d="M5987 6623l0 0c-3,-7 -4,-15 -5,-21 -1,-16 -2,-31 -2,-47 0,-63 9,-125 19,-187 0,-6 1,-12 5,-17 4,-5 10,-7 16,-9 11,-4 23,-7 36,-8l-69 289z"/>
     <path class="fil20" d="M5533 7210l-14 0 -3 0 3 0 14 0c43,0 63,-16 97,-45l0 0 183 -132 -183 132c-34,29 -54,45 -97,45z"/>
     <path class="fil14 str0" d="M5807 8091c51,61 38,155 8,229 -31,74 -112,119 -122,199 49,-64 149,-91 222,-120 46,-18 94,-29 137,-53 81,-46 134,-158 90,-243 -15,-28 -38,-51 -50,-80 -64,-163 199,-236 286,-309 156,-129 183,-385 77,-560 -55,-90 -138,-160 -183,-256 -77,-162 -17,-299 23,-457 62,-241 15,-504 -110,-715 -59,-101 -138,-191 -235,-252 -217,-135 -613,-118 -707,174 -37,113 3,248 94,322 100,80 237,82 363,104 125,22 265,88 288,217 21,114 -58,217 -127,308 -69,90 -137,208 -94,314 39,94 147,132 218,204 114,115 108,331 -11,440 -89,81 -225,106 -286,210 -47,80 -31,194 37,256 26,24 59,41 82,68z"/>
     <path class="fil14 str0" d="M5198 7018c-50,-36 -85,-88 -96,-149l-1 -3c-1,-6 -2,-12 -3,-18 -7,-27 -13,-54 -19,-80 -19,-34 -35,-70 -45,-110 -56,-218 -28,-476 134,-642 33,-34 70,-64 98,-102 38,-54 61,-350 -44,-349 -46,0 -50,-38 -92,-17 -95,-19 -314,146 -338,279 -122,44 -101,769 2,880 -5,40 -36,174 -36,191 -1,85 -220,248 -220,333 -198,680 198,328 418,375l70 -18c84,-18 145,-90 151,-175l41 -380 -20 -15z"/>
     <g>
      <path class="fil9" d="M5261 6338c-17,0 -31,14 -31,31 0,17 14,31 31,31 18,0 32,-14 32,-31 0,-17 -14,-31 -32,-31zm410 0c-17,0 -31,14 -31,31 0,17 14,31 31,31 17,0 31,-14 31,-31 0,-17 -14,-31 -31,-31z"/>
      <path id="1" class="fil10" d="M5261 6369l-62 0 0 0 0 -3 0 -3 1 -3 0 -2 1 -3 1 -3 1 -2 1 -3 1 -3 1 -2 1 -3 2 -2 2 -2 1 -2 2 -3 2 -2 2 -2 2 -1 3 -2 2 -2 3 -2 2 -1 3 -2 3 -1 3 -1 3 -1 3 -1 3 -1 3 0 4 -1 3 0 3 0 0 55 1 0 0 0 0 0 0 0 0 0 0 0 1 0 0 0 0 0 0 0 0 0 0 0 0 0 0 0 0 0 0 0 0 0 0 1 -1 0 0 0 0 0 0 0 0 0 0 1 0 0 0 0 0 0 0 1 0 0 0 0 -1 1 0 0 0 0zm0 0c0,15 -13,28 -31,28 -17,0 -31,-13 -31,-28l62 0zm0 3l0 56 0 0 -3 0 -3 -1 -4 0 -3 0 -3 -1 -3 -1 -3 -1 -3 -1 -3 -2 -3 -1 -2 -2 -3 -1 -2 -2 -3 -2 -2 -2 -2 -2 -2 -2 -2 -2 -1 -2 -2 -2 -2 -3 -1 -2 -1 -3 -1 -2 -1 -3 -1 -2 -1 -3 -1 -3 0 -3 -1 -2 0 -3 0 -3 62 0 0 0 1 1 0 0 0 0 0 0 0 1 0 0 0 0 0 1 0 0 0 0 0 0 0 0 1 0 0 0 0 1 0 0 0 0 0 0 0 0 0 0 0 0 0 0 0 0 0 0 -1 -1 0 0 0 0 0 0 0 0 0 0 -1 0 0 0zm0 0c18,0 32,13 32,28 0,15 -14,28 -32,28l0 -56zm0 -3l63 0 0 0 0 3 0 3 -1 2 0 3 -1 3 -1 3 -1 2 -1 3 -1 2 -1 3 -1 2 -2 3 -2 2 -1 2 -2 2 -2 2 -2 2 -3 2 -2 2 -2 2 -3 1 -2 2 -3 1 -3 2 -3 1 -3 1 -3 1 -3 1 -4 0 -3 0 -3 1 -4 0 0 -56 0 0 0 0 0 0 0 0 0 0 -1 0 0 1 0 0 0 0 0 0 0 0 0 0 0 0 0 0 0 0 0 0 0 -1 0 0 0 0 1 0 0 0 0 0 0 -1 0 0 0 0 0 0 0 -1 0 0 0 0 0 0 0 -1 0 0 0 0zm0 0c0,-15 14,-28 32,-28 17,0 31,13 31,28l-63 0zm0 -4l0 -55 0 0 4 0 3 0 3 1 4 0 3 1 3 1 3 1 3 1 3 1 3 2 2 1 3 2 2 2 3 2 2 1 2 2 2 2 2 3 1 2 2 2 2 3 1 2 1 2 1 3 1 3 1 2 1 3 1 3 0 2 1 3 0 3 0 3 -63 0 0 0 0 -1 0 0 0 0 0 -1 0 0 0 0 0 0 0 -1 0 0 0 0 0 0 -1 0 0 -1 0 0 0 0 0 0 0 0 0 0 0 0 0 0 0 0 0 0 0 0 0 0 0 0 1 0 0 0 0 0 0 0 0 0 0 0 0 0zm0 0c-17,0 -31,-12 -31,-27 0,-16 14,-28 31,-28l0 55zm410 4l-62 0 0 0 0 -3 0 -3 0 -3 1 -2 1 -3 0 -3 1 -2 1 -3 1 -3 2 -2 1 -3 2 -2 1 -2 2 -2 2 -3 2 -2 2 -2 2 -1 2 -2 3 -2 2 -2 3 -1 3 -2 3 -1 3 -1 3 -1 3 -1 3 -1 3 0 3 -1 4 0 3 0 0 55 0 0 1 0 0 0 0 0 0 0 0 0 0 0 0 0 1 0 0 0 0 0 0 0 0 0 0 0 -1 0 0 0 0 0 0 1 0 0 0 0 0 0 0 0 0 0 0 1 0 0 -1 0 0 0 0 1 0 0 0 0 0 1 0 0 0 0zm0 0c0,15 -14,28 -31,28 -17,0 -31,-13 -31,-28l62 0zm0 3l0 56 0 0 -3 0 -4 -1 -3 0 -3 0 -3 -1 -3 -1 -3 -1 -3 -1 -3 -2 -3 -1 -3 -2 -2 -1 -3 -2 -2 -2 -2 -2 -2 -2 -2 -2 -2 -2 -2 -2 -1 -2 -2 -3 -1 -2 -2 -3 -1 -2 -1 -3 -1 -2 0 -3 -1 -3 -1 -3 0 -2 0 -3 0 -3 62 0 0 0 0 1 0 0 0 0 0 0 0 1 1 0 0 0 0 1 0 0 0 0 0 0 0 0 0 0 0 0 0 1 0 0 1 0 0 0 0 0 0 0 0 0 0 0 -1 0 0 0 0 -1 0 0 0 0 0 0 0 0 -1 0 0 0 0 0zm0 0c17,0 31,13 31,28 0,15 -14,28 -31,28l0 -56zm0 -3l63 0 0 0 -1 3 0 3 0 2 -1 3 0 3 -1 3 -1 2 -1 3 -1 2 -1 3 -2 2 -1 3 -2 2 -2 2 -1 2 -2 2 -3 2 -2 2 -2 2 -2 2 -3 1 -3 2 -3 1 -2 2 -3 1 -3 1 -3 1 -4 1 -3 0 -3 0 -3 1 -4 0 0 -56 0 0 0 0 0 0 0 0 -1 0 0 0 0 1 0 0 0 0 0 0 0 0 0 0 0 0 0 0 0 0 0 0 0 -1 0 0 0 0 0 0 0 0 1 0 0 0 0 -1 0 0 0 0 0 -1 0 0 0 0 0 0 0 -1 0 0 0 0zm0 0c0,-15 14,-28 31,-28 18,0 32,13 32,28l-63 0zm0 -4l0 -55 0 0 4 0 3 0 3 1 3 0 4 1 3 1 3 1 3 1 2 1 3 2 3 1 2 2 3 2 2 2 2 1 3 2 1 2 2 3 2 2 2 2 1 3 2 2 1 2 1 3 1 3 1 2 1 3 0 3 1 2 0 3 0 3 1 3 -63 0 0 0 0 -1 0 0 0 0 0 -1 0 0 0 0 0 0 0 -1 0 0 -1 0 0 0 0 0 0 0 0 -1 0 0 0 0 0 0 0 0 0 0 0 0 0 0 0 0 0 0 0 0 0 0 0 0 1 0 0 0 0 0 0 0 0 0 0 0zm0 0c-17,0 -31,-12 -31,-27 0,-16 14,-28 31,-28l0 55z"/>
     </g>
     <path class="fil13 str0" d="M5174 7007l1 -11 183 132c33,28 54,44 96,44 0,0 0,0 1,0l14 0 3 0 3 0 14 0c43,0 64,-15 97,-44l183 -132"/>
    </g>
    <g>
     <path class="fil2 str0" d="M15032 7806c-76,-269 -434,-269 -639,-321 -25,-6 -49,-13 -73,-20 -25,-7 -49,-15 -70,-29 -85,-58 -88,-207 -99,-298 -13,-94 -20,-190 -21,-286 0,-34 1,-68 2,-102 -86,33 -139,100 -233,102 -7,1 -47,0 -84,0 -35,0 -68,0 -68,0 0,0 -32,0 -67,0 -38,0 -78,1 -84,0 -95,-2 -147,-69 -234,-102 1,34 2,68 2,102 -1,96 -8,192 -20,286 -12,91 -15,240 -100,298 -21,14 -45,22 -69,29 -24,7 -49,14 -73,20 -205,52 -563,52 -640,321l-112 705 1397 0 1397 0 -112 -705z"/>
     <path class="fil3" d="M14375 6197c9,1 18,2 25,8 4,4 6,9 8,15 11,30 14,64 9,96 -31,47 -68,92 -90,144 -6,14 -19,43 -38,46 -21,2 -27,-25 -29,-40 -6,-78 5,-157 17,-234 1,-6 2,-12 5,-17 4,-4 10,-7 16,-9 25,-8 51,-11 77,-9z"/>
     <path class="fil2 str0" d="M14287 6506c-19,0 -25,-25 -27,-40 -1,-16 -1,-31 -1,-47 0,-62 9,-125 18,-187 1,-6 2,-12 5,-17 4,-4 10,-7 16,-9 20,-6 42,-10 63,-10 5,0 9,1 14,1 9,1 18,2 25,8 4,4 6,9 8,15 8,20 12,42 12,64 0,11 -1,22 -3,32 -31,47 -68,92 -90,144 -6,14 -19,43 -38,46 -1,0 -2,0 -2,0z"/>
     <path class="fil2 str0" d="M14331 6074l-56 549c-7,45 -25,87 -52,123l-262 261c-4,4 -9,9 -13,14 -35,41 -86,65 -141,65l-60 0 0 -1604c325,1 636,237 584,592z"/>
     <path class="fil2 str0" d="M13121 6197c-8,1 -18,2 -24,8 -4,4 -7,9 -9,15 -11,30 -14,64 -8,96 31,47 68,92 89,144 7,14 19,43 38,46 21,2 28,-25 29,-40 6,-78 -5,-157 -16,-234 -1,-6 -2,-12 -6,-17 -3,-4 -9,-7 -15,-9 -25,-8 -52,-11 -78,-9z"/>
     <path class="fil2 str0" d="M13163 6074l57 549c6,45 24,87 51,123l262 261c5,4 9,9 13,14 35,41 87,65 141,65l60 0 0 -1604c-324,1 -635,237 -584,592z"/>
     <path class="fil21" d="M15032 7806c-76,-269 -434,-269 -639,-321 -25,-6 -49,-13 -73,-20 -25,-7 -49,-15 -70,-29 -85,-58 -88,-207 -99,-298 -2,-8 -2,-17 -3,-25 -111,44 -250,70 -401,70 -151,0 -289,-26 -400,-70 -1,8 -2,17 -3,25 -12,91 -15,240 -100,298 -21,14 -45,22 -69,29 -24,7 -49,14 -73,20 -205,52 -563,52 -640,321l-112 705 1397 0 1397 0 -112 -705z"/>
     <path class="fil22 str0" d="M14177 7112c22,11 12,48 13,67 1,35 5,69 12,104 1,9 3,18 7,27 13,35 44,76 29,117 -3,8 -10,14 -17,20 -45,35 -90,69 -143,89 -31,12 -63,19 -96,26 -90,19 -183,35 -275,26 -55,-6 -109,-21 -162,-35 -29,-8 -58,-16 -87,-25 -57,-16 -115,-36 -158,-76 -39,-36 -21,-81 -15,-129 3,-23 7,-46 10,-69 6,-47 10,-182 83,-175 17,1 33,8 48,15 124,55 261,85 399,78 57,-3 113,-15 169,-23 25,-3 50,-8 74,-15 25,-6 85,-35 109,-22z"/>
     <path class="fil23" d="M12573 8295l74 0 -37 66 -37 -66z"/>
     <path class="fil23" d="M12933 8295l75 0 -37 66 -38 -66z"/>
     <path class="fil1 str0" d="M13105 5597c30,-63 73,-120 131,-159 -31,-31 -67,-56 -106,-75 164,-49 342,-98 503,-41 -32,-33 -64,-66 -96,-99 109,0 219,0 326,19 114,21 223,68 310,144 43,39 56,69 61,125 100,1 175,151 194,233 17,70 15,143 11,214 -7,-22 -15,-44 -22,-67 -8,133 -54,264 -132,373 13,-82 26,-165 39,-247 -9,14 -22,24 -38,29 10,-73 -7,-148 -45,-210 -36,-57 -193,-34 -273,-32 97,-174 -296,16 -337,48 2,-26 4,-52 6,-78 -135,48 -253,138 -336,253 -8,-20 -11,-41 -9,-62 -51,80 -81,173 -88,268 -35,-45 -70,-92 -94,-144 -23,-52 -35,-112 -20,-167 -18,0 -36,0 -54,0 9,-90 18,-181 46,-266 7,-20 14,-40 23,-59z"/>
     <path class="fil23" d="M13294 8295l74 0 -37 66 -37 -66z"/>
     <path class="fil23" d="M13654 8295l74 0 -37 66 -37 -66z"/>
     <path class="fil23" d="M14014 8295l74 0 -37 66 -37 -66z"/>
     <path class="fil23" d="M14374 8295l75 0 -38 66 -37 -66z"/>
     <path class="fil23" d="M14735 8295l74 0 -37 66 -37 -66z"/>
     <path class="fil23" d="M12477 8148l104 -128c14,-17 43,-17 57,0l105 128c11,14 28,22 46,22 18,0 34,-8 45,-22l105 -128c7,-9 18,-14 29,-14 11,0 21,5 28,14l105 128c11,14 28,22 46,22 18,0 34,-8 45,-22l105 -128c14,-17 43,-17 57,0l105 128c11,14 28,22 46,22 18,0 34,-8 45,-22l105 -128c7,-9 18,-14 29,-14l0 0c11,0 21,5 28,14l105 128c11,14 28,22 46,22l0 0c18,0 34,-8 45,-22l105 -128c14,-17 43,-17 57,0l105 128c11,14 28,22 46,22l0 0c17,0 34,-8 45,-22l105 -128c14,-17 43,-17 57,0l105 129c11,13 28,21 46,21 17,0 34,-8 45,-21l105 -129c14,-18 43,-17 57,0l105 129c11,13 28,21 46,21l0 0c18,0 34,-8 45,-21l87 -107c-1,-10 -3,-20 -4,-29l-100 122c-7,8 -17,13 -28,13l0 0c-11,0 -22,-5 -29,-13l-105 -129c-11,-14 -27,-22 -45,-22 -18,0 -35,8 -46,22l-105 129c-14,17 -43,17 -57,0l-105 -129c-11,-14 -28,-22 -45,-22l0 0c-18,0 -35,8 -46,22l-105 129c-7,8 -17,13 -28,13l0 0c-11,0 -22,-5 -29,-13l-105 -129c-11,-14 -27,-22 -45,-22 -18,0 -35,8 -46,22l-105 129c-14,17 -43,17 -57,0l-105 -129c-11,-14 -27,-22 -45,-22l0 0c-18,0 -35,8 -46,22l-105 129c-14,17 -43,17 -57,0l-105 -129c-11,-14 -27,-22 -45,-22 -18,0 -35,8 -46,22l-105 129c-14,17 -43,17 -57,0l-105 -129c-11,-14 -27,-22 -45,-22l0 0c-18,0 -35,8 -46,22l-105 129c-14,17 -43,17 -57,0l-105 -129c-11,-14 -27,-22 -45,-22 -18,0 -35,8 -46,22l-104 129c-13,14 -36,16 -51,6 -1,8 -2,15 -4,23 8,4 17,6 26,6 18,0 34,-8 46,-22z"/>
     <path class="fil23" d="M12477 8229l104 -128c14,-18 43,-18 57,0l105 128c11,14 28,22 46,22l0 0c18,0 34,-8 45,-22l105 -128c14,-18 43,-18 57,0l105 128c11,14 28,22 46,22 18,0 34,-8 45,-22l105 -128c7,-9 18,-14 29,-14l0 0c11,0 21,5 28,14l105 128c11,14 28,22 46,22 18,0 34,-8 45,-22l105 -128c14,-18 43,-18 57,0l105 128c11,14 28,22 46,22 18,0 34,-8 45,-22l105 -128c14,-18 43,-18 57,0l105 128c11,14 28,22 46,22l0 0c17,0 34,-8 45,-22l105 -128c7,-9 17,-14 29,-14l0 0c11,0 21,5 28,14l105 128c11,14 28,22 46,22l0 0c17,0 34,-8 45,-22l105 -128c7,-9 18,-14 29,-14 11,0 21,5 28,14l105 128c11,14 28,22 46,22l0 0c18,0 34,-8 45,-22l98 -120c-1,-9 -3,-19 -4,-28 -2,2 -4,4 -6,6l-105 128c-14,18 -43,18 -57,0l-105 -128c-11,-14 -27,-22 -45,-22l0 0c-18,0 -35,8 -46,22l-105 128c-7,9 -17,14 -28,14l0 0c-12,0 -22,-5 -29,-14l-105 -128c-11,-14 -28,-22 -45,-22l0 0c-18,0 -35,8 -46,22l-105 128c-7,9 -17,14 -28,14l0 0c-11,0 -22,-5 -29,-14l-105 -128c-11,-14 -27,-22 -45,-22 -18,0 -35,8 -46,22l-105 128c-14,18 -43,18 -57,0l-105 -128c-11,-14 -27,-22 -45,-22 -18,0 -35,8 -46,22l-105 128c-14,18 -43,18 -57,0l-105 -128c-11,-14 -27,-22 -45,-22l0 0c-18,0 -35,8 -46,22l-105 128c-14,18 -43,18 -57,0l-105 -128c-11,-14 -27,-22 -45,-22 -18,0 -35,8 -46,22l-105 128c-7,9 -17,14 -28,14l0 0c-11,0 -22,-5 -29,-14l-105 -128c-11,-14 -27,-22 -45,-22 -18,0 -35,8 -46,22l-104 128c-15,18 -44,18 -58,0l-4 -5c-1,9 -3,18 -4,27 10,9 23,14 37,14 18,0 34,-8 46,-22z"/>
     <path class="fil24" d="M14411 8361l-37 -66 75 0 -38 66z"/>
     <path class="fil24" d="M14772 8361l-37 -66 74 0 -37 66z"/>
     <path class="fil24" d="M14250 7436c-4,-3 -8,-6 -12,-9 0,0 0,0 0,0 0,0 0,-1 0,-1 4,4 8,7 12,10zm-41 -126c0,0 0,0 0,0 0,0 0,0 0,0zm-1 -2c-3,-8 -5,-17 -6,-25 -7,-35 -11,-69 -12,-104 0,-1 -1,-2 -1,-3 0,1 1,2 1,3 1,35 5,69 12,104 1,8 3,17 6,25zm-17 -163c0,-9 -1,-17 -4,-23 3,6 4,14 4,23zm-44 -35c-10,-84 -16,-169 -17,-254 1,85 7,170 17,254 0,0 0,0 0,0zm-17 -254c0,0 0,-1 0,-2 0,1 0,2 0,2zm0 -4c0,-5 0,-9 0,-14l0 0c0,5 0,9 0,14z"/>
     <path class="fil25" d="M13747 7086l-60 0c-53,0 -104,-23 -139,-63 35,40 86,63 139,63l60 0zm-214 -79l-157 -158 157 158z"/>
     <path class="fil24" d="M14937 8170l0 0c-18,0 -35,-8 -46,-21l-105 -129c-7,-9 -17,-13 -28,-13 -11,0 -22,4 -29,13l-105 129c-11,13 -28,21 -45,21 -18,0 -35,-8 -46,-21l-105 -129c-7,-9 -18,-13 -28,-13 -11,0 -22,4 -29,13l-105 128c-11,14 -28,22 -45,22l0 0c-18,0 -35,-8 -46,-22l-105 -128c-7,-9 -18,-13 -28,-13 -11,0 -22,4 -29,13l-14 17 -11 -21 8 -10c11,-14 28,-22 46,-22 18,0 34,8 45,22l105 129c7,8 17,13 29,13l0 0c11,0 21,-5 28,-13l105 -129c11,-14 28,-22 46,-22l0 0c17,0 34,8 45,22l105 129c7,8 18,13 29,13 10,0 21,-5 28,-13l105 -129c11,-14 28,-22 46,-22 18,0 34,8 45,22l105 129c7,8 18,13 29,13l0 0c11,0 21,-5 28,-13l100 -122 4 29 -87 107c-11,13 -27,21 -45,21z"/>
     <path class="fil24" d="M14937 8251l0 0c-18,0 -35,-8 -46,-22l-105 -128c-7,-9 -17,-14 -28,-14 -11,0 -22,5 -29,14l-105 128c-11,14 -28,22 -45,22l0 0c-18,0 -35,-8 -46,-22l-105 -128c-7,-9 -17,-14 -28,-14l0 0c-12,0 -22,5 -29,14l-105 128c-11,14 -28,22 -45,22l0 0c-18,0 -35,-8 -46,-22l-105 -128c-7,-9 -18,-13 -28,-13 -5,0 -10,0 -14,2l-11 -20c8,-3 16,-5 25,-5 18,0 34,8 45,22l105 128c7,9 17,14 29,14l0 0c11,0 21,-5 28,-14l105 -128c11,-14 28,-22 46,-22l0 0c17,0 34,8 45,22l105 128c7,9 17,14 29,14l0 0c11,0 21,-5 28,-14l105 -128c11,-14 28,-22 46,-22l0 0c18,0 34,8 45,22l105 128c7,9 18,13 29,13 11,0 21,-4 28,-13l105 -128c2,-2 4,-4 6,-6l4 28 -98 120c-11,14 -27,22 -45,22z"/>
     <path class="fil13 str1" d="M13746 7056l0 -1235"/>
     <path class="fil26" d="M13807 7086l-60 0 60 0c36,0 70,-11 99,-29 -29,18 -63,29 -99,29zm154 -79l169 -169c0,0 0,0 0,0l-169 169z"/>
     <g>
      <path class="fil9" d="M13537 6177c-17,0 -31,14 -31,31 0,18 14,32 31,32 17,0 31,-14 31,-32 0,-17 -14,-31 -31,-31zm410 0c-18,0 -32,14 -32,31 0,18 14,32 32,32 17,0 31,-14 31,-32 0,-17 -14,-31 -31,-31z"/>
      <path id="1" class="fil10" d="M13537 6208l-62 0 0 0 0 -2 0 -3 0 -3 1 -3 0 -3 1 -2 1 -3 1 -2 1 -3 1 -2 2 -3 1 -2 2 -3 2 -2 2 -2 2 -2 2 -2 2 -2 2 -2 3 -1 2 -2 3 -2 2 -1 3 -1 3 -1 3 -2 3 0 4 -1 3 -1 3 0 4 0 3 0 0 55 0 0 0 0 0 0 1 0 0 0 0 0 0 0 0 0 0 0 0 0 0 0 0 0 0 0 0 0 0 0 0 0 0 0 0 0 0 0 0 0 0 1 0 0 -1 0 0 0 0 0 0 1 0 0 0 0 0 0 0 1 0 0 0 0 0 0zm0 0c0,16 -14,28 -31,28 -18,0 -31,-12 -31,-28l62 0zm0 4l0 55 0 0 -3 0 -4 0 -3 0 -3 -1 -4 -1 -3 -1 -3 -1 -3 -1 -2 -1 -3 -1 -3 -2 -2 -2 -3 -1 -2 -2 -2 -2 -2 -2 -2 -2 -2 -2 -2 -3 -2 -2 -1 -2 -2 -3 -1 -2 -1 -3 -1 -2 -1 -3 -1 -3 0 -2 -1 -3 0 -3 0 -3 0 -3 62 0 0 1 0 0 0 1 0 0 0 0 0 0 0 1 0 0 0 0 1 0 0 0 0 1 0 0 0 0 0 0 0 0 0 0 0 0 0 0 0 0 0 0 0 0 0 0 0 0 0 0 0 0 0 0 0 0 -1 0 0 0 0 0 0 0 0 0zm0 0c17,0 31,12 31,28 0,15 -14,27 -31,27l0 -55zm0 -4l62 0 0 0 0 3 0 3 0 3 -1 3 -1 2 0 3 -1 3 -1 2 -1 3 -2 2 -1 3 -2 2 -1 2 -2 3 -2 2 -2 2 -2 2 -2 2 -2 2 -3 1 -2 2 -3 2 -3 1 -3 1 -3 1 -3 1 -3 1 -3 1 -3 1 -3 0 -4 0 -3 0 0 -55 0 0 0 0 -1 0 0 0 0 0 0 0 0 0 0 0 0 0 -1 0 0 0 0 0 1 0 0 0 0 0 0 0 0 0 0 0 0 0 0 0 0 -1 0 0 0 0 0 0 1 0 0 -1 0 0 0 0 0 0 0 -1 0 0 0 -1 0 0zm0 0c0,-15 14,-27 31,-27 17,0 31,12 31,27l-62 0zm0 -3l0 -55 0 0 3 0 4 0 3 0 3 1 3 1 3 0 3 2 3 1 3 1 3 1 3 2 2 2 3 1 2 2 2 2 2 2 2 2 2 2 2 2 1 3 2 2 1 3 2 2 1 2 1 3 1 3 0 2 1 3 1 3 0 3 0 3 0 2 -62 0 0 0 0 0 0 -1 0 0 0 0 0 0 0 -1 -1 0 0 0 0 0 0 -1 0 0 0 0 0 0 0 0 0 0 0 0 0 0 0 0 -1 0 1 0 -1 0 0 0 1 0 0 0 0 0 0 0 0 0 0 0 1 0 0 0 0 0 0 0zm0 0c-17,0 -31,-12 -31,-28 0,-15 14,-27 31,-27l0 55zm410 3l-63 0 0 0 0 -2 1 -3 0 -3 0 -3 1 -3 1 -2 1 -3 1 -2 1 -3 1 -2 1 -3 2 -2 2 -3 1 -2 2 -2 2 -2 2 -2 3 -2 2 -2 2 -1 3 -2 2 -2 3 -1 3 -1 3 -1 3 -2 3 0 3 -1 4 -1 3 0 3 0 4 0 0 55 0 0 0 0 0 0 0 0 0 0 1 0 0 0 0 0 0 0 0 0 0 0 0 0 0 0 0 0 0 0 0 0 0 0 0 0 0 0 -1 0 0 0 0 1 0 0 0 0 0 0 0 1 0 0 0 0 0 0 0 1 0 0 0 0 0 0zm0 0c0,16 -14,28 -32,28 -17,0 -31,-12 -31,-28l63 0zm0 4l0 55 0 0 -4 0 -3 0 -3 0 -4 -1 -3 -1 -3 -1 -3 -1 -3 -1 -3 -1 -3 -1 -2 -2 -3 -2 -2 -1 -2 -2 -3 -2 -2 -2 -2 -2 -2 -2 -1 -2 -2 -3 -2 -2 -1 -3 -1 -2 -1 -3 -1 -2 -1 -3 -1 -3 -1 -2 0 -3 0 -3 -1 -3 0 -3 63 0 0 1 0 0 0 1 0 0 0 0 0 0 0 1 0 0 0 0 0 0 0 0 0 1 1 0 0 0 0 0 0 0 0 0 0 0 0 0 0 0 0 0 0 0 0 0 0 0 0 0 0 0 -1 0 0 0 0 0 0 0 0 0 0 0 0 0zm0 0c17,0 31,12 31,28 0,15 -14,27 -31,27l0 -55zm0 -4l62 0 0 0 0 3 0 3 -1 3 0 3 -1 2 -1 3 -1 3 -1 2 -1 3 -1 2 -1 3 -2 2 -1 2 -2 3 -2 2 -2 2 -2 2 -2 2 -3 2 -2 1 -3 2 -2 2 -3 1 -3 1 -3 1 -3 1 -3 1 -3 1 -3 1 -4 0 -3 0 -3 0 0 -55 -1 0 0 0 0 0 0 0 0 0 0 0 -1 0 0 0 0 0 0 0 0 0 0 0 0 0 0 0 0 0 0 0 0 0 1 0 0 0 0 0 0 -1 0 0 0 0 0 0 0 0 0 -1 0 0 0 0 0 0 1 -1 0 0 0 -1 0 0zm0 0c0,-15 14,-27 31,-27 17,0 31,12 31,27l-62 0zm0 -3l0 -55 0 0 3 0 3 0 4 0 3 1 3 1 3 0 3 2 3 1 3 1 3 1 2 2 3 2 2 1 3 2 2 2 2 2 2 2 2 2 2 2 1 3 2 2 1 3 1 2 1 3 1 2 1 3 1 2 1 3 0 3 1 3 0 3 0 2 -62 0 0 0 0 0 -1 -1 0 0 0 0 0 0 0 -1 0 0 0 0 0 0 0 0 0 -1 0 0 0 0 -1 0 0 0 0 0 0 0 0 0 0 0 0 0 0 0 0 0 0 0 0 0 1 0 0 0 0 0 0 0 0 0 0 0 1 0 0 0zm0 0c-18,0 -32,-12 -32,-28 0,-15 14,-27 32,-27l0 55z"/>
     </g>
    </g>
    <g>
     <path class="fil2 str0" d="M9519 7806c-77,-269 -435,-269 -640,-321 -24,-6 -49,-13 -73,-20 -24,-7 -48,-14 -69,-29 -85,-57 -88,-207 -100,-297 -12,-95 -19,-191 -20,-286 0,-34 1,-68 2,-103 -87,33 -140,100 -234,103 -6,0 -46,0 -84,0 -35,0 -67,0 -67,0 0,0 -33,0 -68,0 -37,0 -77,0 -84,0 -94,-3 -147,-70 -234,-103 2,35 3,69 3,103 -1,95 -8,191 -21,286 -12,90 -14,240 -99,297 -21,15 -46,22 -70,29 -24,7 -48,14 -73,20 -205,52 -563,52 -639,321l-112 706 1397 0 1397 0 -112 -706z"/>
     <path class="fil23" d="M9519 7806c-77,-269 -435,-269 -640,-321 -24,-6 -49,-13 -73,-20 -10,-3 -21,-6 -31,-10 -136,119 -328,193 -541,193 -214,0 -406,-74 -542,-193 -10,4 -20,7 -31,10 -24,7 -48,14 -73,20 -205,52 -563,52 -639,321l-112 706 1397 0 1397 0 -112 -706z"/>
     <path class="fil23 str0" d="M8660 7249l234 287 -437 402 -160 -403 363 -286z"/>
     <path class="fil23 str0" d="M7807 7249l-233 287 437 402 160 -403 -364 -286z"/>
     <path class="fil27 str0" d="M8926 7455l340 116c0,0 254,47 274,367l91 574 -737 0 32 -1057z"/>
     <path class="fil11 str0" d="M8694 7290l23 -19 209 161 0 1080 -421 0 189 -1222z"/>
     <path class="fil27 str0" d="M7541 7455l-340 116c0,0 -253,47 -273,367l-91 574 737 0 -33 -1057z"/>
     <path class="fil11 str0" d="M7774 7290l-24 -19 -209 161 0 1080 422 0 -189 -1222z"/>
     <path class="fil3" d="M8862 6197c9,1 18,2 24,9 4,3 7,9 9,14 11,31 14,65 8,97 -31,46 -68,92 -89,143 -6,15 -19,44 -38,46 -21,2 -28,-24 -29,-40 -6,-78 5,-156 16,-234 1,-5 2,-12 6,-16 4,-5 10,-7 15,-9 25,-8 52,-12 78,-10z"/>
     <path class="fil2 str0" d="M8773 6506c-19,0 -25,-25 -26,-40 -1,-15 -2,-31 -2,-46 0,-63 9,-126 18,-188 1,-5 2,-12 6,-16 4,-5 10,-7 15,-9 21,-7 42,-10 64,-10 4,0 9,0 14,0 9,1 18,2 24,9 4,3 7,9 9,14 7,21 11,42 11,64 0,11 -1,22 -3,33 -31,46 -68,92 -89,143 -6,15 -19,44 -38,46 -1,0 -2,0 -3,0z"/>
     <path class="fil2 str0" d="M8818 6074l-57 550c-6,44 -24,86 -52,122l-261 261c-5,5 -9,9 -13,14 -35,41 -87,65 -141,65l-60 0 0 -1603c324,0 635,237 584,591z"/>
     <path class="fil2 str0" d="M7608 6197c-9,1 -18,2 -25,9 -4,3 -6,9 -8,14 -11,31 -14,65 -9,97 31,46 68,92 90,143 6,15 19,44 38,46 21,2 27,-24 29,-40 6,-78 -5,-156 -17,-234 0,-5 -1,-12 -5,-16 -4,-5 -10,-7 -16,-9 -24,-8 -51,-12 -77,-10z"/>
     <path class="fil2 str0" d="M7650 6074l56 550c7,44 25,86 52,122l262 261c4,5 8,9 13,14 35,41 86,65 141,65l60 0 0 -1603c-325,0 -636,237 -584,591z"/>
     <path class="fil28 str0" d="M8811 5632c-32,-72 -77,-139 -138,-196 -179,-168 -463,-202 -693,-129 -53,16 -105,43 -147,80 -42,38 -56,69 -60,124 -84,1 -130,90 -154,158 -73,209 24,528 24,528l74 35c-15,-7 7,-148 10,-162 13,-96 42,-222 114,-292 70,62 166,81 257,97 103,17 209,19 313,5 -38,-22 -71,-53 -95,-89 90,48 188,94 290,84 -13,-16 -25,-33 -37,-49 20,26 75,32 102,48 44,27 71,84 84,131 10,39 14,80 15,121 1,12 14,101 4,106l62 -35c54,-183 53,-391 -25,-565z"/>
     <path class="fil29" d="M8569 7872c-2,21 -6,45 -21,61 -16,17 -42,21 -66,20 -64,-4 -122,-38 -176,-71 -64,-40 -128,-82 -174,-141 101,-78 215,-140 335,-182 32,-11 72,-19 96,5 17,17 18,44 18,68 0,80 -4,160 -12,240z"/>
     <path class="fil29 str0" d="M7899 7872c2,21 5,45 20,61 17,17 43,21 66,20 64,-4 122,-38 177,-71 64,-40 128,-82 174,-141 -101,-78 -215,-140 -336,-182 -31,-11 -71,-19 -95,5 -17,17 -19,44 -19,68 0,80 5,160 13,240z"/>
     <path class="fil24" d="M9631 8511l0 -1c0,1 0,1 0,1zm0 -1l0 0c0,0 0,0 0,0zm0 0l-91 -572c-1,-4 -1,-9 -1,-13 0,4 0,9 1,13l7 44c31,200 79,501 84,528zm-108 -677c0,0 0,0 0,0l-4 -26c0,4 2,13 4,26zm-829 -543l0 0 23 -19 -23 19zm-16 -19l-18 -22 18 22zm-27 -15c-5,-37 -9,-74 -12,-105 3,31 7,68 12,105l0 0zm-12 -106c0,0 0,0 0,0 0,0 0,0 0,0zm-22 -297c0,-5 0,-10 0,-15l0 0c0,5 0,10 0,15z"/>
     <path class="fil25" d="M8234 7086l-60 0c-55,0 -106,-24 -141,-65 -5,-5 -9,-9 -13,-14 4,5 8,9 13,14 35,41 86,65 141,65l60 0zm-214 -79l-158 -157 0 0 158 157z"/>
     <path class="fil26" d="M8294 7086l-60 0 60 0c49,0 96,-20 131,-54 -35,34 -82,54 -131,54zm143 -67c4,-4 7,-8 11,-12 -4,4 -7,8 -11,12z"/>
     <path class="fil30 str0" d="M8491 7953c-3,0 -6,0 -9,0 -15,-1 -30,-4 -45,-8l-135 -93c2,-2 32,-109 34,-111 -4,-3 -7,-5 -11,-8l0 -40c0,-26 -21,-47 -47,-47l-2 0c18,-10 35,-20 53,-29l0 0c45,-22 91,-41 138,-58 17,-5 36,-10 53,-10 16,0 32,4 43,15 17,17 18,44 18,68 0,66 -3,133 -8,199 -2,14 -3,27 -4,41 -2,21 -6,45 -21,61 -14,15 -36,20 -57,20z"/>
     <path class="fil30" d="M8331 7747l-6 -10 0 -4c4,3 7,5 11,8 -2,2 -4,4 -5,6z"/>
     <path class="fil31" d="M8325 7737l-49 -91 0 0 2 0c26,0 47,21 47,47l0 40 0 4z"/>
     <path class="fil32 str0" d="M8278 7856l-89 0c-26,0 -47,-21 -47,-47l0 -116c0,-26 21,-47 47,-47l89 0c26,0 47,21 47,47l0 116c0,26 -21,47 -47,47z"/>
     <path class="fil13 str1" d="M8234 7059l0 -1132"/>
     <g>
      <path class="fil9" d="M8017 6178c-18,0 -31,14 -31,31 0,17 13,31 31,31 17,0 31,-14 31,-31 0,-17 -14,-31 -31,-31zm409 0c-17,0 -31,14 -31,31 0,17 14,31 31,31 18,0 32,-14 32,-31 0,-17 -14,-31 -32,-31z"/>
      <path id="1" class="fil10" d="M8017 6209l-63 0 0 0 0 -3 1 -3 0 -2 0 -3 1 -3 1 -2 1 -3 1 -3 1 -2 1 -3 2 -2 1 -3 2 -2 1 -2 2 -2 2 -2 2 -2 3 -2 2 -2 2 -2 3 -1 3 -2 2 -1 3 -2 3 -1 3 -1 3 -1 3 0 4 -1 3 0 3 -1 4 0 0 56 0 0 0 0 0 0 0 0 1 0 0 0 0 0 0 -1 0 0 0 0 0 0 0 0 0 0 0 1 0 0 0 0 0 0 0 0 0 0 0 0 -1 0 0 0 0 1 0 0 0 0 0 0 0 1 0 0 0 0 0 0 0 1 0 0 0 0zm0 0c0,16 -14,28 -31,28 -18,0 -32,-12 -32,-28l63 0zm0 4l0 55 0 0 -4 0 -3 0 -3 -1 -4 0 -3 -1 -3 -1 -3 -1 -3 -1 -3 -1 -2 -2 -3 -1 -3 -2 -2 -2 -2 -1 -2 -2 -3 -2 -2 -2 -1 -3 -2 -2 -2 -2 -1 -2 -2 -3 -1 -2 -1 -3 -1 -3 -1 -2 -1 -3 -1 -3 0 -2 0 -3 -1 -3 0 -3 63 0 0 1 0 0 0 0 0 1 0 0 0 0 0 0 0 1 0 0 0 0 0 0 1 0 0 0 0 1 0 0 0 0 0 0 0 0 0 0 0 0 0 0 0 0 0 0 0 0 0 0 0 0 0 0 -1 0 0 0 0 0 0 0 0 0 0 0zm0 0c17,0 31,12 31,27 0,16 -14,28 -31,28l0 -55zm0 -4l62 0 0 0 0 3 0 3 -1 3 0 2 -1 3 0 3 -1 2 -1 3 -2 3 -1 2 -1 3 -2 2 -1 2 -2 3 -2 2 -2 2 -2 2 -2 2 -3 1 -2 2 -2 2 -3 1 -3 2 -3 1 -3 1 -3 1 -3 1 -3 1 -3 0 -4 1 -3 0 -3 0 0 -55 0 0 -1 0 0 0 0 0 0 0 0 0 0 0 0 0 -1 0 0 0 0 0 0 0 0 0 0 0 0 0 0 0 1 0 0 0 0 -1 0 0 0 0 0 0 0 0 0 0 0 -1 0 0 1 0 0 0 0 -1 0 0 0 0 0 -1 0 0zm0 0c0,-15 14,-28 31,-28 17,0 31,13 31,28l-62 0zm0 -3l0 -56 0 0 3 0 3 1 4 0 3 1 3 0 3 1 3 1 3 1 3 2 3 1 2 2 3 1 2 2 3 2 2 2 2 2 2 2 2 2 2 2 1 2 2 3 1 2 1 3 2 2 1 3 1 3 0 2 1 3 0 3 1 2 0 3 0 3 -62 0 0 0 0 -1 0 0 0 0 0 0 -1 -1 0 0 0 0 0 0 0 -1 0 0 0 0 0 0 0 0 0 0 -1 0 0 0 0 -1 0 0 0 0 0 0 0 0 0 0 0 0 1 1 0 0 0 0 0 0 0 0 0 0 1 0 0 0 0 0zm0 0c-18,0 -31,-13 -31,-28 0,-15 13,-28 31,-28l0 56zm409 3l-62 0 0 0 0 -3 0 -3 1 -2 0 -3 1 -3 1 -2 0 -3 2 -3 1 -2 1 -3 1 -2 2 -3 1 -2 2 -2 2 -2 2 -2 2 -2 2 -2 3 -2 2 -2 3 -1 2 -2 3 -1 3 -2 3 -1 3 -1 3 -1 3 0 3 -1 4 0 3 -1 3 0 0 56 1 0 0 0 0 0 0 0 0 0 0 0 1 0 0 -1 0 0 0 0 0 0 0 0 0 0 0 1 0 -1 0 1 0 0 0 0 -1 0 0 0 0 0 0 0 0 1 0 0 0 0 0 0 0 1 0 0 -1 0 0 0 0 1 0 0 0 0zm0 0c0,16 -14,28 -31,28 -17,0 -31,-12 -31,-28l62 0zm0 4l0 55 0 0 -3 0 -3 0 -4 -1 -3 0 -3 -1 -3 -1 -3 -1 -3 -1 -3 -1 -3 -2 -2 -1 -3 -2 -2 -2 -3 -1 -2 -2 -2 -2 -2 -2 -2 -3 -2 -2 -1 -2 -2 -2 -1 -3 -1 -2 -1 -3 -2 -3 0 -2 -1 -3 -1 -3 0 -2 -1 -3 0 -3 0 -3 62 0 0 1 0 0 0 0 1 1 0 0 0 0 0 0 0 1 0 0 0 0 0 0 0 0 0 0 0 1 1 0 0 0 0 0 0 0 0 0 0 0 0 0 0 0 0 0 0 0 0 0 -1 0 0 0 0 0 0 0 0 0 0 0 -1 0 0 0zm0 0c18,0 32,12 32,27 0,16 -14,28 -32,28l0 -55zm0 -4l63 0 0 0 0 3 -1 3 0 3 0 2 -1 3 -1 3 -1 2 -1 3 -1 3 -1 2 -2 3 -1 2 -2 2 -1 3 -2 2 -2 2 -2 2 -2 2 -3 1 -2 2 -3 2 -2 1 -3 2 -3 1 -3 1 -3 1 -3 1 -3 1 -4 0 -3 1 -3 0 -4 0 0 -55 0 0 0 0 0 0 0 0 0 0 -1 0 0 0 0 0 0 0 0 0 0 0 0 0 0 0 0 0 0 0 0 0 0 0 0 0 0 -1 1 0 0 0 0 0 0 0 0 0 0 -1 0 0 0 0 0 0 0 -1 0 0 0 0 0 -1 0 0zm0 0c0,-15 14,-28 32,-28 17,0 31,13 31,28l-63 0zm0 -3l0 -56 0 0 4 0 3 1 3 0 4 1 3 0 3 1 3 1 3 1 3 2 3 1 2 2 3 1 2 2 2 2 3 2 2 2 2 2 2 2 1 2 2 2 1 3 2 2 1 3 1 2 1 3 1 3 1 2 1 3 0 3 0 2 1 3 0 3 -63 0 0 0 0 -1 0 0 0 0 0 0 0 -1 0 0 0 0 0 0 0 -1 0 0 0 0 -1 0 0 0 0 0 0 0 0 0 0 -1 0 0 0 0 0 0 0 0 0 0 0 0 0 1 0 0 1 0 0 0 0 0 0 0 0 0 0 0 0 0zm0 0c-17,0 -31,-13 -31,-28 0,-15 14,-28 31,-28l0 56z"/>
     </g>
    </g>
    <g>
     <path class="fil2 str0" d="M17987 7795c-77,-270 -436,-270 -641,-323 -25,-6 -49,-12 -74,-19 -24,-7 -48,-15 -69,-29 -85,-58 -88,-208 -100,-299 -13,-95 -20,-191 -20,-287 -1,-34 0,-68 2,-102 -88,33 -140,99 -235,102 -7,0 -47,0 -84,0 -35,0 -68,0 -68,0 0,0 -32,0 -68,0 -37,0 -77,0 -84,0 -94,-3 -147,-69 -234,-102 1,34 2,68 2,102 -1,96 -8,192 -21,287 -11,91 -14,241 -100,299 -20,14 -45,22 -69,29 -24,7 -49,13 -73,19 -206,53 -565,53 -642,323l-112 707 1401 0 1401 0 -112 -707z"/>
     <path class="fil33" d="M17987 7795c-77,-270 -436,-270 -641,-323 -25,-6 -49,-12 -74,-19 -10,-3 -21,-73 -31,-77 -136,119 -543,391 -543,391 0,0 -407,-272 -543,-391 -10,4 -21,74 -31,77 -24,7 -49,13 -73,19 -206,53 -565,53 -642,323l-112 707 1401 0 1401 0 -112 -707z"/>
     <path class="fil34" d="M17126 7236l234 288 -438 403 -161 -405 365 -286z"/>
     <path class="fil35" d="M16761 7522l-63 245 128 -80 -65 -165z"/>
     <path class="fil34 str0" d="M16270 7236l-234 288 439 403 160 -405 -365 -286z"/>
     <path class="fil35" d="M16635 7522l63 245 -128 -80 65 -165z"/>
     <path class="fil24" d="M18099 8502l0 0 -112 -707c0,-1 -1,-2 -1,-2 0,0 1,1 1,2l0 2c3,17 17,103 34,210 2,17 5,34 8,52 2,11 3,22 5,32 31,194 65,411 65,411zm-747 -1028c0,0 0,0 0,0 0,0 0,0 0,0zm-1 0c0,0 -1,0 -1,0 0,0 1,0 1,0zm-1 0c0,0 -1,-1 -1,-1 0,0 1,0 1,1zm-1 -1c0,0 0,0 -1,0 1,0 1,0 1,0zm-1 0c0,0 0,0 -1,0 1,0 1,0 1,0zm-1 0c0,0 0,0 0,0 0,0 0,0 0,0zm-1 0c0,0 0,0 0,-1 0,1 0,1 0,1zm0 -1c-12,-2 -23,-5 -35,-8l-30 -38 30 37c11,3 23,7 35,9zm-105 -95l0 0 0 -1c0,0 0,1 0,1zm1 0c0,0 0,0 0,0 0,0 0,0 0,0zm0 -1c0,0 0,0 0,0 0,0 0,0 0,0zm0 0c0,0 0,0 0,0 0,0 0,0 0,0zm0 0c0,0 0,0 0,0 0,0 0,0 0,0zm0 0c-1,0 -1,0 -1,0 0,0 0,0 1,0zm-1 0c0,0 0,0 0,0 0,0 0,0 0,0zm0 0c0,0 0,0 0,0 0,0 0,0 0,0zm-124 -133c-6,-38 -9,-75 -13,-106 4,31 7,68 13,106l6 -5 -6 5zm-13 -106c0,0 0,-1 0,-1 0,0 0,1 0,1zm-9 -74c-7,-71 -12,-143 -12,-215 0,69 4,137 11,206 1,3 1,6 1,9zm-12 -215c0,0 0,-1 0,-1 0,0 0,1 0,1zm0 -2c0,0 0,-1 0,-2 0,1 0,2 0,2zm0 -3c0,0 0,-1 0,-1 0,0 0,1 0,1zm0 -2c0,0 0,-1 0,-1 0,0 0,1 0,1zm0 -3l0 0c-1,-5 -1,-10 -1,-14l1 0c0,4 -1,9 0,14l0 0z"/>
     <path class="fil36" d="M18099 8502l-706 0 -33 0 -153 0 -423 -788 42 -27 -2 -6 98 246 438 -403 -49 -60c12,3 23,6 35,8l0 0c0,1 0,1 0,1 0,0 1,0 1,0 0,0 0,0 0,0 0,0 0,0 0,0 1,0 1,0 1,0 0,0 0,0 0,0 1,0 1,0 1,0 0,0 0,0 0,0 0,0 1,1 1,1 0,0 0,0 0,0 0,0 1,0 1,0 0,0 1,0 1,0 0,0 0,0 0,0 150,37 377,49 519,154 6,5 12,10 18,15l2 2c6,4 11,9 16,14l3 3c5,5 9,10 13,15l4 4c4,5 8,9 11,14l4 6c4,5 7,10 10,15 1,2 3,4 4,6 3,5 6,10 8,16 2,2 3,4 4,7 3,5 5,11 7,17 1,2 2,4 3,7 3,8 6,15 8,24 0,0 1,1 1,2l112 707zm-852 -1117l-6 -8c0,0 0,-1 0,-1l0 0c0,0 0,0 0,0 0,0 0,0 0,0 0,0 0,0 0,0 0,0 0,0 1,0 0,0 0,0 0,0 0,0 0,0 0,0 0,0 0,0 0,0 0,0 0,0 0,0 0,0 0,0 0,0 0,1 0,1 0,1 0,0 0,0 0,0 2,1 3,4 5,8z"/>
     <path class="fil37 str0" d="M16922 7927l-98 -246 -63 -159 356 -279 6 -5 1 -1 2 -1 29 35 5 6 81 100 0 0 6 8c0,0 0,0 0,0l34 41 30 38 49 60 -438 403z"/>
     <path class="fil38" d="M16784 7714l-49 -90 26 -102 63 159 2 6 -42 27z"/>
     <path class="fil35" d="M16658 7717l40 50 0 735 -40 0 0 -785z"/>
     <path class="fil35" d="M16794 7833c0,22 -17,39 -38,39 -22,0 -39,-17 -39,-39 0,-21 17,-38 39,-38 21,0 38,17 38,38z"/>
     <path class="fil35" d="M16794 8349c0,21 -17,39 -38,39 -22,0 -39,-18 -39,-39 0,-21 17,-39 39,-39 21,0 38,18 38,39z"/>
     <path class="fil39 str0" d="M16791 7597l-93 0 -93 0 -67 170 70 81 90 0 90 0 70 -81 -67 -170z"/>
     <path class="fil4 str0" d="M16788 7848l-90 0 -90 0 -92 654 182 0 183 0 -93 -654z"/>
     <path class="fil2" d="M16112 6057l57 552c6,44 24,87 52,122l262 262c5,5 9,9 13,14 36,41 87,65 142,65l60 0 0 -1608c-325,0 -637,238 -586,593z"/>
     <path class="fil3" d="M17284 6057l-57 552c-6,44 -24,87 -52,122l-262 262c-5,5 -9,9 -13,14 -35,41 -87,65 -142,65l-60 0 0 -1608c326,0 638,238 586,593z"/>
     <path class="fil2" d="M16758 7072l-60 0 0 -1608c302,0 592,204 592,517 0,25 -2,50 -6,76l-13 128c-7,1 -14,3 -21,5 -5,2 -11,5 -15,9 -4,5 -5,11 -6,17 -9,62 -18,125 -18,188 0,16 1,31 2,47 1,14 7,40 26,40 0,0 0,0 0,0l-12 118c-6,44 -24,87 -52,122l-93 93 -169 169c-4,4 -7,7 -10,11 -1,1 -2,2 -3,3 -35,41 -87,65 -142,65z"/>
     <path class="fil3" d="M17328 6181c9,0 18,2 25,8 4,4 6,9 8,15 11,30 15,64 9,97 -31,46 -68,92 -90,143 -6,15 -19,44 -38,46 -21,3 -28,-24 -29,-39 -6,-79 5,-157 16,-235 1,-6 2,-12 6,-17 4,-4 10,-7 15,-9 25,-8 52,-11 78,-9z"/>
     <path class="fil16 str0" d="M17239 6491c-19,0 -25,-26 -26,-40 -1,-16 -2,-31 -2,-47 0,-63 9,-126 18,-188 1,-6 2,-12 6,-17 4,-4 10,-7 15,-9 21,-6 42,-10 64,-10 5,0 9,0 14,1 9,0 18,2 25,8 4,4 6,9 8,15 8,20 12,42 12,64 0,11 -1,22 -3,33 -31,46 -68,92 -90,143 -6,15 -19,44 -38,46 -1,0 -2,1 -3,1z"/>
     <path class="fil3 str0" d="M16070 6181c-8,0 -18,2 -24,8 -4,4 -7,9 -9,15 -11,30 -14,64 -8,97 31,46 68,92 90,143 6,15 19,44 38,46 21,3 27,-24 28,-39 7,-79 -5,-157 -16,-235 -1,-6 -2,-12 -5,-17 -4,-4 -10,-7 -16,-9 -25,-8 -51,-11 -78,-9z"/>
     <path class="fil40 str0" d="M17286 5614c-39,-118 -105,-246 -219,-285 -22,-7 -46,-5 -70,-3 -62,6 -127,8 -185,-14 -47,-18 -88,-50 -134,-72 -80,-37 -176,-39 -257,-5 -111,47 -173,143 -184,260 -83,1 -130,90 -154,158 -73,210 25,530 25,530l74 35c-4,-53 16,-239 34,-296 69,-214 311,-329 516,-221 88,47 324,288 406,109 4,-3 64,126 68,137 29,86 42,180 36,271l62 -35c14,-8 21,-84 24,-101 7,-42 11,-84 12,-126 2,-81 -7,-162 -26,-241 -7,-31 -17,-65 -28,-101z"/>
     <path class="fil41 str0" d="M16900 7007c4,-5 8,-9 13,-14l262 -262c28,-36 52,-137 58,-181l-92 16c0,0 60,1 -147,147 -207,147 -233,31 -233,31l-63 0 0 328 60 0c55,0 107,-24 142,-65z"/>
     <path class="fil41 str0" d="M16496 7007c-4,-5 -8,-9 -13,-14l-262 -262c-28,-36 -46,-78 -52,-122l16 -158c0,0 10,116 217,262 207,147 233,31 233,31l63 0 0 328 -60 0c-55,0 -106,-24 -142,-65z"/>
     <path class="fil41 str0" d="M16917 6555c-16,-12 -36,-17 -56,-15l-326 0c-20,-2 -39,3 -55,15l-209 151 149 133 99 -182c15,-26 43,-43 73,-43l106 0 106 0c31,0 59,17 73,43l99 182 149 -133 -208 -151z"/>
     <g>
      <path class="fil9" d="M16489 6110c-18,0 -32,14 -32,31 0,18 14,32 32,32 17,0 31,-14 31,-32 0,-17 -14,-31 -31,-31zm410 0c-17,0 -31,14 -31,31 0,18 14,32 31,32 18,0 32,-14 32,-32 0,-17 -14,-31 -32,-31z"/>
      <path id="1" class="fil10" d="M16489 6141l-63 0 0 0 0 -3 0 -2 1 -3 0 -3 1 -3 1 -2 0 -3 1 -3 2 -2 1 -3 1 -2 2 -2 1 -3 2 -2 2 -2 2 -2 2 -2 2 -2 3 -2 2 -2 3 -1 2 -2 3 -1 3 -2 3 -1 3 -1 3 -1 3 0 3 -1 4 0 3 -1 4 0 0 56 0 0 0 0 0 0 0 0 0 0 1 0 0 0 0 0 0 0 0 0 0 0 0 0 0 0 0 0 0 0 0 0 0 0 0 0 0 0 -1 0 0 0 0 1 0 0 0 0 0 0 0 0 0 1 0 0 0 0 0 1 0 0 0 0 0 0zm0 0c0,16 -14,28 -32,28 -17,0 -31,-12 -31,-28l63 0zm0 4l0 55 0 0 -4 0 -3 0 -4 0 -3 -1 -3 -1 -3 -1 -3 -1 -3 -1 -3 -1 -3 -1 -2 -2 -3 -2 -2 -1 -3 -2 -2 -2 -2 -2 -2 -2 -2 -2 -2 -3 -1 -2 -2 -2 -1 -3 -1 -2 -2 -3 -1 -2 0 -3 -1 -3 -1 -2 0 -3 -1 -3 0 -3 0 -3 63 0 0 1 0 0 0 0 0 1 0 0 0 0 0 0 0 1 0 0 0 0 0 0 0 0 0 1 1 0 0 0 0 0 0 0 0 0 0 0 0 0 0 0 0 0 0 0 0 0 0 0 0 0 -1 0 0 0 0 0 0 0 0 0 0 0 0 0zm0 0c17,0 31,12 31,28 0,15 -14,27 -31,27l0 -55zm0 -4l62 0 0 0 0 3 0 3 -1 3 0 3 -1 2 0 3 -1 3 -1 2 -2 3 -1 2 -1 3 -2 2 -1 2 -2 3 -2 2 -2 2 -2 2 -2 2 -3 2 -2 1 -3 2 -2 2 -3 1 -3 1 -3 1 -3 1 -3 1 -3 1 -3 1 -4 0 -3 0 -3 0 0 -55 -1 0 0 0 0 0 0 0 0 0 0 0 -1 0 0 0 0 0 0 0 0 0 0 0 0 0 0 0 0 0 0 0 0 0 0 0 1 0 0 -1 0 0 0 0 0 0 0 0 0 -1 0 0 0 0 0 0 0 -1 1 0 0 0 0 -1 0 0zm0 0c0,-15 14,-28 31,-28 17,0 31,13 31,28l-62 0zm0 -3l0 -56 0 0 3 0 3 1 4 0 3 1 3 0 3 1 3 1 3 1 3 2 3 1 2 2 3 1 2 2 3 2 2 2 2 2 2 2 2 2 2 2 1 2 2 3 1 2 1 3 2 2 1 3 1 3 0 2 1 3 0 3 1 3 0 2 0 3 -62 0 0 0 0 0 -1 -1 0 0 0 0 0 -1 0 0 0 0 0 0 0 0 0 -1 0 0 0 0 -1 0 0 0 0 0 0 0 0 0 0 0 0 0 0 0 0 0 0 0 0 0 0 0 1 0 0 0 0 0 0 0 0 0 0 0 1 0 0 0zm0 0c-18,0 -32,-13 -32,-28 0,-15 14,-28 32,-28l0 56zm410 3l-62 0 0 0 0 -3 0 -2 1 -3 0 -3 1 -3 0 -2 1 -3 1 -3 2 -2 1 -3 1 -2 2 -3 1 -2 2 -2 2 -2 2 -2 2 -2 2 -2 3 -2 2 -2 3 -1 2 -2 3 -1 3 -2 3 -1 3 -1 3 -1 3 0 3 -1 4 0 3 -1 3 0 0 56 1 0 0 0 0 0 0 0 0 0 0 0 1 0 0 0 0 0 0 0 0 0 0 0 0 0 0 0 0 0 0 0 0 0 0 0 -1 0 0 0 0 0 0 1 0 0 0 0 0 0 0 0 0 1 0 0 0 0 -1 1 0 0 0 0 0 0zm0 0c0,16 -14,28 -31,28 -17,0 -31,-12 -31,-28l62 0zm0 4l0 55 0 0 -3 0 -3 0 -4 0 -3 -1 -3 -1 -3 -1 -3 -1 -3 -1 -3 -1 -3 -1 -2 -2 -3 -2 -2 -1 -3 -2 -2 -2 -2 -2 -2 -2 -2 -2 -2 -3 -1 -2 -2 -2 -1 -3 -1 -2 -2 -3 -1 -2 -1 -3 0 -3 -1 -2 0 -3 -1 -3 0 -3 0 -3 62 0 0 1 0 0 1 0 0 1 0 0 0 0 0 0 0 1 0 0 0 0 0 0 0 0 0 1 1 0 0 0 0 0 0 0 0 0 0 0 0 0 0 0 0 0 0 0 0 0 0 0 -1 0 0 0 0 0 0 0 0 0 0 0 -1 0 0 0zm0 0c18,0 32,12 32,28 0,15 -14,27 -32,27l0 -55zm0 -4l63 0 0 0 0 3 0 3 -1 3 0 3 -1 2 -1 3 0 3 -1 2 -2 3 -1 2 -1 3 -2 2 -1 2 -2 3 -2 2 -2 2 -2 2 -2 2 -3 2 -2 1 -3 2 -2 2 -3 1 -3 1 -3 1 -3 1 -3 1 -3 1 -3 1 -4 0 -3 0 -4 0 0 -55 0 0 0 0 0 0 0 0 0 0 -1 0 0 0 0 0 0 0 0 0 0 0 0 0 0 0 0 0 0 0 0 0 0 0 0 0 1 0 0 -1 0 0 0 0 0 0 0 0 0 -1 0 0 0 0 0 0 0 -1 0 0 0 0 0 -1 0 0zm0 0c0,-15 14,-28 32,-28 17,0 31,13 31,28l-63 0zm0 -3l0 -56 0 0 4 0 3 1 4 0 3 1 3 0 3 1 3 1 3 1 3 2 3 1 2 2 3 1 2 2 3 2 2 2 2 2 2 2 2 2 2 2 1 3 2 2 1 2 1 3 2 2 1 3 0 3 1 2 1 3 0 3 1 3 0 2 0 3 -63 0 0 0 0 0 0 -1 0 0 0 0 0 -1 0 0 0 0 0 0 0 0 0 -1 0 0 -1 0 0 0 0 0 0 0 0 0 0 0 0 0 0 0 0 0 0 0 0 0 0 0 0 0 0 0 1 0 0 0 0 0 0 0 0 0 0 0 0 0zm0 0c-17,0 -31,-13 -31,-28 0,-15 14,-28 31,-28l0 56z"/>
     </g>
    </g>
   </g>
   <g>
    <path class="fil2 str0" d="M11263 16399c-77,-270 -436,-270 -641,-322 -25,-7 -49,-13 -74,-20 -24,-7 -48,-15 -69,-29 -86,-58 -88,-208 -100,-299 -13,-95 -20,-191 -21,-287 0,-34 1,-68 3,-102 -88,33 -140,100 -235,102 -7,1 -47,1 -84,0 -35,0 -68,0 -68,0 0,0 -33,0 -68,0 -37,1 -77,1 -84,0 -94,-2 -147,-69 -234,-102 1,34 2,68 2,102 -1,96 -8,192 -21,287 -12,91 -14,241 -100,299 -21,14 -45,22 -69,29 -24,7 -49,13 -73,20 -206,52 -565,52 -642,322l-112 707 1401 0 1401 0 -112 -707z"/>
    <path class="fil33" d="M11263 16399c-77,-270 -436,-270 -641,-322 -25,-7 -49,-13 -74,-20 -10,-3 -21,-73 -31,-76 -136,118 -543,390 -543,390 0,0 -407,-272 -543,-390 -10,3 -21,73 -31,76 -24,7 -49,13 -73,20 -206,52 -565,52 -642,322l-112 707 1401 0 1401 0 -112 -707z"/>
    <path class="fil34" d="M10402 15840l234 288 -438 403 -161 -404 365 -287z"/>
    <path class="fil35" d="M10037 16127l-63 244 128 -80 -65 -164z"/>
    <path class="fil34 str0" d="M9546 15840l-234 288 439 403 160 -404 -365 -287z"/>
    <path class="fil35" d="M9911 16127l63 244 -128 -80 65 -164z"/>
    <path class="fil24" d="M11375 17106l0 0 -112 -707c0,-1 -1,-2 -1,-2 0,0 1,1 1,2l0 3c3,16 16,102 34,209 2,17 5,35 8,53 2,10 3,21 5,32 31,193 65,410 65,410zm-747 -1028c0,0 0,0 0,0 0,0 0,0 0,0zm-1 0c-1,0 -1,0 -1,0 0,0 0,0 1,0zm-1 0c0,0 -1,0 -1,0 0,0 1,0 1,0zm-1 0c0,-1 0,-1 -1,-1 1,0 1,0 1,1zm-1 -1c0,0 0,0 -1,0 1,0 1,0 1,0zm-1 0c0,0 0,0 0,0 0,0 0,0 0,0zm-1 0c0,0 0,0 0,0 0,0 0,0 0,0zm0 0c-12,-3 -23,-6 -35,-9l-30 -38 30 37c11,3 23,7 35,10zm-105 -96l0 0 0 0c0,0 0,0 0,0zm1 0c0,0 0,0 0,0 0,0 0,0 0,0zm0 0c0,0 0,0 0,0 0,0 0,0 0,0zm0 0c0,0 0,0 0,0 0,0 0,0 0,0zm0 0c-1,0 -1,0 -1,0 0,0 0,0 1,0zm-1 0c0,0 0,0 0,0 0,0 0,0 0,0zm0 0c0,0 0,0 0,0 0,0 0,0 0,0zm0 0c0,0 0,0 0,0 0,0 0,0 0,0zm-124 -134c-6,-38 -9,-74 -13,-106 4,32 7,68 13,106l6 -5 -6 5zm-13 -106c0,0 0,0 0,0 0,0 0,0 0,0zm-9 -74c-7,-71 -12,-143 -12,-214 0,68 4,137 11,205 1,3 1,6 1,9zm-12 -215c0,0 0,-1 0,-1 0,0 0,1 0,1zm0 -1c0,-1 0,-2 0,-3 0,1 0,2 0,3zm0 -4c-1,0 -1,0 -1,-1 0,1 0,1 1,1zm-1 -2c0,0 0,0 0,-1 0,1 0,1 0,1zm0 -3l0 0c0,-4 0,-9 0,-14l1 0c0,5 -1,9 -1,14l0 0z"/>
    <path class="fil36" d="M11375 17106l-706 0 -33 0 -153 0 -424 -788 43 -27 -2 -5 98 245 438 -403 -49 -60c12,3 23,6 35,9l0 0c0,0 0,0 0,0 0,0 0,0 1,0 0,0 0,0 0,0 0,0 0,0 0,0 1,0 1,0 1,0 0,0 0,0 0,0 1,0 1,0 1,1 0,0 0,0 0,0 0,0 1,0 1,0 0,0 0,0 0,0 0,0 0,0 1,0 0,0 1,0 1,0 0,0 0,0 0,0 150,37 377,49 519,154 6,5 12,10 18,15l2 2c6,5 11,9 16,15l3 2c5,5 9,10 13,15l4 4c4,5 8,10 11,15l4 5c4,5 7,10 10,15 1,2 3,4 4,6 3,5 6,11 8,16 2,2 3,5 4,7 3,6 5,11 7,17 1,2 2,5 3,7 3,8 6,16 8,24 0,0 1,1 1,2l112 707zm-852 -1117l-6 -8c0,0 0,0 0,0l0 0c0,0 0,0 0,0 0,0 0,0 0,0 0,0 0,0 0,0 0,0 0,0 0,0 0,0 0,0 1,0 0,0 0,0 0,0 0,0 0,0 0,0 0,0 0,0 0,0 0,0 0,0 0,0 0,0 0,0 0,0 0,0 0,0 0,0 1,1 3,4 5,8z"/>
    <path class="fil37 str0" d="M10198 16531l-98 -245 -63 -159 356 -280 6 -5 1 -1 2 -1 29 35 5 6 81 100 0 0 6 8c0,0 0,0 0,0l34 41 30 38 49 60 -438 403z"/>
    <path class="fil38" d="M10059 16318l-48 -90 26 -101 63 159 2 5 -43 27z"/>
    <path class="fil35" d="M9934 16321l40 50 0 735 -40 0 0 -785z"/>
    <path class="fil35" d="M10070 16438c0,21 -17,38 -38,38 -22,0 -39,-17 -39,-38 0,-22 17,-39 39,-39 21,0 38,17 38,39z"/>
    <path class="fil35" d="M10070 16953c0,22 -17,39 -38,39 -22,0 -39,-17 -39,-39 0,-21 17,-38 39,-38 21,0 38,17 38,38z"/>
    <path class="fil39 str0" d="M10067 16202l-93 0 -93 0 -67 169 70 82 90 0 90 0 70 -82 -67 -169z"/>
    <path class="fil4 str0" d="M10064 16453l-90 0 -90 0 -92 653 182 0 183 0 -93 -653z"/>
    <path class="fil2" d="M9388 14662l57 551c6,45 24,87 52,122l262 262c5,5 9,10 13,14 36,42 87,65 142,65l60 0 0 -1608c-325,1 -637,238 -586,594z"/>
    <path class="fil3" d="M10560 14662l-57 551c-6,45 -24,87 -52,122l-262 262c-5,5 -9,10 -13,14 -36,42 -87,65 -142,65l-60 0 0 -1608c326,1 638,238 586,594z"/>
    <path class="fil2" d="M10034 15676l-60 0 0 -1608c302,1 592,204 592,517 0,25 -2,51 -6,77l-13 127c-7,2 -14,3 -21,6 -5,1 -11,4 -15,9 -4,4 -5,10 -6,16 -9,62 -18,125 -18,188 0,16 1,31 2,47 1,14 7,40 26,40 0,0 0,0 0,0l-12 118c-6,45 -24,87 -52,122l-93 93 -169 169c-4,4 -7,7 -10,11 -1,1 -2,2 -3,3 -36,42 -87,65 -142,65z"/>
    <path class="fil3" d="M10604 14785c9,1 18,2 25,8 4,4 6,10 8,15 11,31 14,65 9,97 -31,46 -69,92 -90,143 -6,15 -19,44 -38,47 -21,2 -28,-25 -29,-40 -6,-78 5,-157 16,-235 1,-6 2,-12 6,-16 4,-5 10,-8 15,-9 25,-9 52,-12 78,-10z"/>
    <path class="fil16 str0" d="M10515 15095c-19,0 -25,-26 -26,-40 -1,-16 -2,-31 -2,-47 0,-63 9,-126 18,-188 1,-6 2,-12 6,-16 4,-5 10,-8 15,-9 21,-7 42,-10 64,-10 5,0 9,0 14,0 9,1 18,2 25,8 4,4 6,10 8,15 8,20 12,42 12,64 0,11 -1,22 -3,33 -31,46 -69,92 -90,143 -6,15 -19,44 -38,47 -1,0 -2,0 -3,0z"/>
    <path class="fil3 str0" d="M9346 14785c-8,1 -18,2 -24,8 -4,4 -7,10 -9,15 -11,31 -14,65 -8,97 31,46 68,92 90,143 6,15 19,44 38,47 21,2 27,-25 28,-40 7,-78 -5,-157 -16,-235 -1,-6 -2,-12 -5,-16 -4,-5 -10,-8 -16,-9 -25,-9 -51,-12 -78,-10z"/>
    <path class="fil40 str0" d="M10562 14218c-39,-118 -105,-246 -219,-284 -22,-8 -46,-5 -70,-3 -62,5 -127,7 -185,-15 -47,-18 -88,-50 -134,-71 -80,-38 -176,-40 -257,-5 -111,46 -173,143 -184,259 -83,1 -130,90 -154,158 -73,210 25,530 25,530l74 36c-4,-54 16,-240 34,-296 69,-215 311,-329 516,-221 88,46 324,287 406,108 4,-3 64,126 68,137 29,87 42,181 36,272l62 -36c14,-8 21,-84 24,-101 7,-42 11,-84 12,-126 2,-81 -7,-162 -26,-241 -7,-31 -17,-65 -28,-101z"/>
    <path class="fil41 str0" d="M10176 15611c4,-4 8,-9 13,-14l262 -262c28,-35 52,-137 58,-181l-92 16c0,0 60,2 -147,148 -207,146 -233,30 -233,30l-63 0 0 328 60 0c55,0 106,-23 142,-65z"/>
    <path class="fil41 str0" d="M9772 15611c-4,-4 -8,-9 -13,-14l-262 -262c-28,-35 -46,-77 -52,-122l16 -158c0,0 10,117 217,263 207,146 233,30 233,30l63 0 0 328 -60 0c-55,0 -106,-23 -142,-65z"/>
    <path class="fil41 str0" d="M10193 15159c-16,-11 -36,-17 -56,-15l-326 0c-20,-2 -39,4 -56,15l-208 151 149 133 99 -181c15,-27 42,-44 73,-44l106 0 106 0c31,0 59,17 73,44l99 181 149 -133 -208 -151z"/>
    <g>
     <path class="fil9" d="M9764 14714c-17,0 -31,14 -31,32 0,17 14,31 31,31 18,0 32,-14 32,-31 0,-18 -14,-32 -32,-32zm411 0c-17,0 -31,14 -31,32 0,17 14,31 31,31 18,0 32,-14 32,-31 0,-18 -14,-32 -32,-32z"/>
     <path id="1" class="fil10" d="M9764 14746l-62 0 0 0 0 -3 0 -3 1 -3 0 -3 1 -2 0 -3 1 -3 1 -2 2 -3 1 -3 1 -2 2 -2 1 -3 2 -2 2 -2 2 -2 2 -2 2 -2 3 -2 2 -2 3 -1 2 -2 3 -1 3 -1 3 -2 3 -1 3 0 3 -1 3 -1 4 0 3 0 3 -1 0 56 1 0 0 0 0 0 0 0 0 0 0 0 1 0 0 0 0 0 0 0 0 0 0 0 0 0 0 0 0 0 0 0 0 0 0 0 -1 0 0 0 0 1 0 0 0 0 0 0 0 0 0 1 0 0 0 0 0 1 0 0 -1 0 0 1 0 0zm0 0c0,15 -14,27 -31,27 -17,0 -31,-12 -31,-27l62 0zm0 3l0 56 0 0 -3 0 -3 -1 -4 0 -3 -1 -3 0 -3 -1 -3 -1 -3 -2 -3 -1 -3 -1 -2 -2 -3 -1 -2 -2 -3 -2 -2 -2 -2 -2 -2 -2 -2 -2 -2 -2 -1 -3 -2 -2 -1 -2 -1 -3 -2 -3 -1 -2 -1 -3 0 -2 -1 -3 0 -3 -1 -3 0 -3 0 -2 62 0 0 0 1 0 0 1 0 0 0 0 0 0 0 1 0 0 0 0 0 0 0 1 0 0 0 0 1 0 0 0 0 0 0 0 0 0 0 0 0 0 0 0 0 0 0 0 0 0 0 0 -1 0 0 0 0 0 0 0 0 0 0 0 -1 0 0 0zm0 0c18,0 32,12 32,28 0,15 -14,28 -32,28l0 -56zm0 -3l63 0 0 0 0 2 0 3 -1 3 0 3 -1 3 -1 2 0 3 -1 3 -2 2 -1 3 -1 2 -2 2 -1 3 -2 2 -2 2 -2 2 -2 2 -2 2 -3 2 -2 2 -3 1 -2 2 -3 1 -3 1 -3 2 -3 1 -3 1 -3 0 -3 1 -4 0 -3 1 -4 0 0 -56 0 0 0 0 0 0 0 0 0 0 -1 0 0 0 0 0 0 0 0 0 0 0 0 0 0 0 0 0 0 0 0 0 0 0 0 0 1 0 0 0 0 0 0 -1 0 0 0 0 0 0 0 -1 0 0 0 0 0 0 0 -1 0 0 0 0 0 0zm0 0c0,-16 15,-28 32,-28 17,0 31,12 31,28l-63 0zm0 -4l0 -56 0 0 4 1 3 0 4 0 3 1 3 1 3 0 3 1 3 2 3 1 3 1 2 2 3 1 2 2 3 2 2 2 2 2 2 2 2 2 2 2 1 3 2 2 1 3 1 2 2 3 1 2 1 3 0 3 1 2 0 3 1 3 0 3 0 3 -63 0 0 -1 0 0 0 0 0 -1 0 0 0 0 0 -1 0 0 0 0 0 0 0 0 0 -1 0 0 -1 0 0 0 0 0 0 0 0 0 0 0 0 0 0 0 0 0 0 0 0 0 0 0 0 0 1 0 0 0 0 0 0 0 0 0 0 0 0 0zm0 0c-17,0 -31,-12 -31,-28 0,-15 14,-28 31,-28l0 56zm411 4l-62 0 0 0 0 -3 0 -3 1 -3 0 -3 1 -2 0 -3 1 -3 1 -2 1 -3 2 -2 1 -3 2 -2 1 -3 2 -2 2 -2 2 -2 2 -2 2 -2 3 -2 2 -2 3 -1 2 -2 3 -1 3 -1 3 -2 3 -1 3 0 3 -1 3 -1 4 0 3 0 3 -1 0 56 1 0 0 0 0 0 0 0 0 0 0 0 1 0 0 0 0 0 0 0 0 0 0 0 0 0 0 0 0 0 0 0 0 0 -1 0 0 0 0 0 0 1 0 0 0 0 0 0 0 0 0 1 0 0 0 0 -1 1 0 0 0 0 0 1 0 0zm0 0c0,15 -14,27 -31,27 -17,0 -31,-12 -31,-27l62 0zm0 3l0 56 0 0 -3 0 -3 -1 -4 0 -3 -1 -3 0 -3 -1 -3 -1 -3 -2 -3 -1 -3 -1 -2 -2 -3 -1 -2 -2 -3 -2 -2 -2 -2 -2 -2 -2 -2 -2 -2 -2 -1 -3 -2 -2 -1 -2 -2 -3 -1 -2 -1 -3 -1 -3 0 -2 -1 -3 0 -3 -1 -3 0 -3 0 -2 62 0 0 0 0 0 0 1 1 0 0 0 0 0 0 1 0 0 0 0 0 0 0 1 0 0 0 0 1 0 0 0 0 0 0 0 0 0 0 0 0 0 0 0 0 0 0 0 0 0 0 0 -1 0 0 0 0 0 0 0 0 0 0 0 -1 0 0 0zm0 0c18,0 32,12 32,28 0,15 -14,28 -32,28l0 -56zm0 -3l63 0 0 0 0 2 0 3 -1 3 0 3 -1 3 -1 2 0 3 -1 2 -2 3 -1 3 -1 2 -2 2 -2 3 -1 2 -2 2 -2 2 -2 2 -2 2 -3 2 -2 2 -3 1 -2 2 -3 1 -3 1 -3 2 -3 1 -3 1 -3 0 -3 1 -4 0 -3 1 -4 0 0 -56 0 0 0 0 0 0 0 0 0 0 -1 0 0 0 0 0 0 0 0 0 0 0 0 0 0 0 0 0 0 0 0 0 0 0 0 0 0 0 1 0 0 0 0 -1 0 0 0 0 0 0 0 -1 0 0 0 0 0 0 0 -1 0 0 0 0 0 0zm0 0c0,-16 14,-28 32,-28 17,0 31,12 31,28l-63 0zm0 -4l0 -56 0 0 4 1 3 0 4 0 3 1 3 1 3 0 3 1 3 2 3 1 3 1 2 2 3 1 2 2 3 2 2 2 2 2 2 2 2 2 2 2 1 3 2 2 1 2 1 3 2 3 1 2 0 3 1 3 1 2 0 3 1 3 0 3 0 3 -63 0 0 -1 0 0 0 0 0 -1 0 0 0 0 0 -1 0 0 0 0 0 0 0 0 0 -1 -1 0 0 0 0 0 0 0 0 0 0 0 0 0 0 0 0 0 0 0 0 0 0 0 0 0 0 0 1 0 0 0 0 0 0 0 0 0 0 0 0 0zm0 0c-17,0 -31,-12 -31,-28 0,-15 14,-28 31,-28l0 56z"/>
    </g>
   </g>
   <path class="fil42 str2" d="M6809 13497c0,9 -3,16 -8,22 -5,5 -12,7 -21,7 -7,0 -14,-2 -20,-7 -6,-5 -8,-12 -8,-22l0 -493 -232 0 0 493c0,9 -3,16 -9,22 -5,5 -12,7 -20,7 -8,0 -15,-2 -20,-7 -6,-5 -9,-12 -9,-22l0 -521c0,-19 10,-29 29,-29l289 0c20,0 29,10 29,29l0 521zm174 -261l174 0c16,0 29,-5 41,-16 11,-10 17,-24 17,-42l0 -116c0,-16 -6,-30 -17,-41 -11,-11 -25,-17 -41,-17l-174 0 0 232zm0 58l0 203c0,9 -3,16 -9,22 -5,5 -12,7 -20,7 -8,0 -15,-2 -20,-7 -6,-5 -9,-12 -9,-22l0 -521c0,-19 10,-29 29,-29l202 0c33,0 60,11 82,34 23,22 34,50 34,82l0 115c0,32 -11,59 -34,82 -22,23 -50,34 -82,34l-173 0zm463 -115l145 0c8,0 15,3 21,9 5,6 8,12 8,20 0,7 -2,13 -7,19 -5,6 -12,9 -22,9l-145 0 0 232 203 0c8,0 15,3 21,9 5,6 8,13 8,20 0,7 -2,14 -7,20 -5,6 -12,9 -22,9l-232 0c-19,0 -29,-9 -29,-27l0 -523c0,-19 10,-29 29,-29l232 0c8,0 15,3 21,9 5,6 8,12 8,20 0,7 -2,13 -7,19 -5,6 -12,9 -22,9l-203 0 0 175zm408 289l55 -496c0,-17 9,-25 29,-25l173 0c20,0 29,10 29,29l0 492 29 0c20,0 30,10 30,29l0 58c0,8 -3,14 -9,20 -6,6 -13,9 -20,9 -7,0 -13,-3 -19,-8 -7,-4 -10,-12 -10,-21l0 -29 -290 0 0 29c0,8 -3,14 -9,20 -6,6 -13,9 -20,9 -7,0 -13,-3 -19,-8 -7,-4 -10,-12 -10,-21l0 -58c0,-19 10,-29 29,-29l32 0zm229 0l0 -464 -119 0 -52 464 171 0zm462 58l-145 0c-31,0 -58,-11 -81,-34 -23,-22 -34,-50 -34,-82l0 -347c0,-33 11,-60 33,-82 23,-23 50,-34 82,-34l145 0c8,0 15,3 21,9 6,6 8,12 8,20 0,6 -2,13 -7,19 -5,6 -12,9 -22,9l-145 0c-16,0 -30,6 -41,17 -6,6 -10,12 -13,19 -2,7 -4,14 -4,22l0 348c0,17 6,31 17,42 6,5 12,9 18,12 9,3 16,4 23,4l145 0c8,0 15,3 21,9 6,6 8,13 8,20 0,7 -2,13 -7,20 -5,6 -12,9 -22,9zm202 -347l146 0c8,0 15,3 20,9 6,6 9,12 9,20 0,7 -2,13 -7,19 -5,6 -12,9 -22,9l-146 0 0 232 204 0c8,0 15,3 20,9 6,6 9,13 9,20 0,7 -3,14 -7,20 -5,6 -12,9 -22,9l-232 0c-20,0 -29,-9 -29,-27l0 -523c0,-19 9,-29 29,-29l232 0c8,0 15,3 20,9 6,6 9,12 9,20 0,7 -3,13 -7,19 -5,6 -12,9 -22,9l-204 0 0 175zm409 289l55 -496c0,-17 9,-25 29,-25l173 0c19,0 29,10 29,29l0 492 29 0c20,0 29,10 29,29l0 58c0,8 -3,14 -8,20 -6,6 -13,9 -20,9 -7,0 -13,-3 -20,-8 -6,-4 -9,-12 -9,-21l0 -29 -291 0 0 29c0,8 -2,14 -8,20 -6,6 -13,9 -20,9 -7,0 -13,-3 -20,-8 -6,-4 -9,-12 -9,-21l0 -58c0,-19 9,-29 29,-29l32 0zm228 0l0 -464 -118 0 -52 464 170 0zm333 -87l-41 125c-3,6 -6,11 -11,15 -4,2 -9,4 -16,5 -8,0 -14,-3 -20,-8 -6,-5 -10,-12 -10,-20l2 -10 175 -521c5,-17 14,-25 27,-25 12,0 21,8 27,25l173 521 2 10c0,7 -3,14 -9,20 -6,5 -13,8 -20,8 -4,0 -9,-1 -14,-3 -4,-2 -9,-7 -13,-17l-42 -125 -210 0zm191 -59l-85 -255 -86 255 171 0zm258 -318l-116 0c-9,0 -16,-2 -22,-7 -5,-7 -7,-14 -7,-21 0,-7 2,-13 7,-20 5,-6 12,-9 22,-9l289 0c8,0 15,3 21,9 5,6 8,12 8,20 0,6 -2,13 -7,19 -5,6 -12,9 -22,9l-116 0 0 493c0,9 -2,16 -8,22 -5,5 -12,7 -21,7 -7,0 -14,-2 -20,-7 -6,-5 -8,-12 -8,-22l0 -493zm375 175l146 0c8,0 15,3 21,9 5,6 8,12 8,20 0,7 -2,13 -7,19 -5,6 -12,9 -22,9l-146 0 0 232 204 0c8,0 15,3 21,9 5,6 8,13 8,20 0,7 -2,14 -7,20 -5,6 -12,9 -22,9l-232 0c-20,0 -29,-9 -29,-27l0 -523c0,-19 9,-29 29,-29l232 0c8,0 15,3 21,9 5,6 8,12 8,20 0,7 -2,13 -7,19 -5,6 -12,9 -22,9l-204 0 0 175zm696 318c0,9 -3,16 -8,22 -5,5 -12,7 -21,7 -7,0 -14,-2 -20,-7 -6,-5 -9,-12 -9,-22l0 -493 -94 0 -139 500c-1,6 -4,11 -9,16 -6,4 -12,6 -18,6 -9,0 -16,-2 -21,-7 -6,-5 -9,-12 -9,-21 0,-4 1,-7 2,-8l144 -522c5,-14 14,-21 28,-21l145 0c19,0 29,10 29,29l0 521zm173 -260l174 0c16,0 30,5 41,16 11,11 17,25 17,42l0 115c0,17 -6,31 -17,42 -6,5 -12,10 -19,12 -7,3 -14,4 -22,4l-174 0 0 -231zm0 -58l0 -203c0,-8 -3,-15 -9,-20 -6,-6 -13,-9 -20,-9 -7,0 -13,2 -20,7 -6,5 -9,12 -9,22l0 521c0,19 10,29 29,29l202 0c32,0 59,-11 82,-33 23,-23 34,-50 34,-83l0 -116c0,-31 -11,-58 -34,-81 -22,-23 -49,-34 -82,-34l-173 0zm1099 231c0,32 -11,59 -33,82 -23,23 -50,34 -82,34l-116 0c-32,0 -59,-11 -81,-34 -23,-22 -35,-50 -35,-82l0 -347c0,-33 12,-60 34,-82 22,-23 50,-34 82,-34l116 0c32,0 59,11 82,34 22,22 33,50 33,82l0 347zm-57 0l0 -348c0,-16 -6,-30 -17,-41 -10,-11 -24,-17 -41,-17l-116 0c-16,0 -30,6 -42,17 -5,6 -9,12 -12,19 -3,7 -4,14 -4,22l0 348c0,17 5,31 16,42 6,5 12,9 19,12 8,3 16,4 23,4l116 0c16,0 29,-5 41,-16 11,-10 17,-24 17,-42zm567 87c0,9 -3,16 -9,22 -5,5 -12,7 -20,7 -8,0 -15,-2 -20,-7 -6,-5 -9,-12 -9,-22l0 -409 -235 423c-3,6 -7,11 -13,14l-6 4c-2,1 -5,1 -9,2 -5,0 -12,-3 -19,-9 -5,-6 -7,-14 -7,-25l0 -521c0,-7 2,-15 8,-21 6,-5 13,-8 20,-8 8,0 14,3 20,8 6,4 9,12 9,21l0 409 235 -423c3,-4 7,-9 12,-14 6,-4 11,-6 16,-6 6,0 12,4 18,10 6,6 9,14 9,24l0 521zm173 -300l244 -242c6,-5 12,-8 20,-8 7,0 14,3 20,9 6,6 9,13 9,21 0,5 -3,11 -8,19l-173 172 178 315 4 15c0,7 -3,14 -9,19 -6,6 -13,9 -21,9 -10,0 -18,-5 -25,-15l-170 -302 -69 68 0 220c0,9 -3,16 -8,22 -5,5 -12,7 -21,7 -7,0 -14,-2 -20,-7 -6,-5 -8,-12 -8,-22l0 -522c0,-7 2,-14 8,-20 6,-5 13,-8 20,-8 8,0 14,2 20,7 6,4 9,12 9,21l0 222z"/>
   <path class="fil43" d="M9958 10419c-4,178 -7,355 -10,532 -1,26 -1,53 -2,79 3,-203 7,-407 12,-611zm21 -756c1,-8 1,-16 3,-20 0,-5 0,-10 0,-15 5,9 9,18 13,27 3,13 0,41 0,56 0,8 0,16 0,24 0,-23 -1,-45 -1,-68 -1,-16 -12,-17 -15,-4zm6 640c-2,77 -4,154 -7,231 -3,84 -6,168 -10,251 6,-238 11,-476 17,-714 0,77 0,154 0,232zm21 -263c2,-85 3,-169 4,-254 0,-3 0,-6 0,-9 0,88 -2,175 -4,263zm-178 1123c17,108 35,215 54,320 10,89 21,178 31,266 4,26 21,19 20,-7 -1,-8 -1,-15 -2,-22 1,-1 1,-2 1,-3 1,-2 1,-5 1,-8 2,-4 3,-7 4,-11 0,2 1,3 2,3 1,2 1,3 1,4 0,1 0,2 -1,2 -6,21 9,43 15,22 1,-1 1,-2 1,-3 3,-3 5,-9 5,-16 9,-29 18,-57 26,-85 18,-51 35,-103 50,-158 31,-97 60,-198 83,-305 5,-19 -10,-36 -16,-18 -2,9 -4,17 -7,25 0,0 0,0 0,0 1,-5 2,-11 3,-16 3,-20 -11,-39 -17,-19 -4,17 -9,33 -13,49 -2,1 -3,3 -4,7 -4,14 -8,28 -13,42 0,-1 0,-3 0,-4 -1,-6 -4,-8 -7,-7 -1,0 -2,0 -3,1 -8,2 -5,25 2,24 -9,2 -25,92 -29,109 -6,20 -11,41 -17,61 -13,46 -26,91 -39,137 2,-44 5,-87 7,-130 47,-601 65,-1209 59,-1819 0,-19 -15,-22 -14,-3 0,23 0,45 0,68 -3,-57 -12,-107 -39,-86 -2,1 -4,8 -4,13 -24,633 -37,1268 -41,1903 -22,-130 -43,-259 -65,-389 -3,-18 -15,-14 -18,0 -6,2 -10,11 -8,24 0,2 0,4 0,5 -5,2 -10,11 -8,24z"/>
   <g>
    <path class="fil42 str2" d="M1845 3353l0 -261c0,-8 3,-15 9,-21 6,-5 12,-8 20,-8 7,0 14,3 20,8 6,4 9,12 9,21l0 522c0,9 -3,16 -8,21 -6,5 -13,7 -21,7 -8,0 -14,-2 -20,-7 -6,-5 -9,-12 -9,-22l0 -203 -173 0c-32,0 -59,-11 -82,-33 -23,-23 -34,-50 -34,-82l0 -203c0,-8 2,-15 8,-21 6,-5 13,-8 20,-8 8,0 15,3 20,8 6,4 9,12 9,21l0 203c0,16 6,30 17,41 6,5 12,9 19,13 8,2 15,4 22,4l174 0zm522 261c0,9 -3,16 -9,21 -5,5 -12,7 -20,7 -8,0 -15,-2 -20,-7 -6,-5 -9,-12 -9,-21l0 -493 -94 0 -139 500c-1,6 -4,11 -10,15 -5,4 -11,6 -18,6 -8,0 -15,-2 -21,-7 -5,-5 -8,-11 -8,-20 0,-4 0,-7 1,-9l145 -521c4,-14 13,-22 28,-22l145 0c19,0 29,10 29,29l0 522zm172 -319l146 0c8,0 15,3 20,9 6,6 9,13 9,20 0,7 -3,14 -7,20 -5,6 -13,9 -22,9l-146 0 0 232 204 0c8,0 15,3 20,9 6,6 9,12 9,20 0,7 -3,13 -7,19 -5,6 -13,9 -22,9l-232 0c-20,0 -29,-9 -29,-27l0 -523c0,-19 9,-29 29,-29l232 0c8,0 15,3 20,9 6,6 9,13 9,20 0,7 -3,14 -8,20 -4,6 -12,9 -21,9l-204 0 0 174zm637 0l0 -203c0,-8 3,-14 9,-20 6,-6 12,-9 20,-9 7,0 14,3 20,8 6,4 9,12 9,21l0 521c0,8 -3,15 -9,22 -7,5 -14,7 -20,7 -7,0 -14,-2 -20,-7 -6,-4 -9,-11 -9,-21l0 -261 -232 0 0 261c0,9 -2,16 -8,21 -5,5 -12,7 -20,7 -8,0 -15,-2 -21,-7 -5,-5 -8,-12 -8,-21l0 -521c0,-8 3,-15 8,-22 6,-5 13,-7 21,-7 7,0 14,2 19,7 6,5 9,12 9,22l0 202 232 0zm579 319c0,9 -2,16 -8,21 -5,5 -12,7 -20,7 -8,0 -15,-2 -21,-7 -5,-5 -8,-12 -8,-21l0 -522c0,-8 3,-15 8,-21 6,-5 13,-8 21,-8 7,0 13,3 20,7 5,5 8,13 8,22l0 522zm-348 -261l0 232 117 0c16,0 29,-5 41,-16 11,-11 17,-25 17,-42l0 -116c0,-16 -6,-30 -17,-41 -11,-11 -24,-17 -41,-17l-117 0zm0 -58l116 0c32,0 59,12 82,34 23,22 34,50 34,82l0 116c0,31 -11,59 -34,81 -22,23 -50,34 -82,34l-144 0c-20,0 -29,-9 -29,-28l0 -522c0,-8 3,-15 8,-21 6,-5 13,-8 21,-8 7,0 14,3 19,8 6,4 9,12 9,21l0 203zm1158 232c0,31 -11,59 -34,81 -22,23 -50,34 -82,34l-115 0c-32,0 -59,-11 -82,-33 -23,-23 -34,-50 -34,-82l0 -348c0,-32 11,-60 34,-82 22,-22 49,-34 82,-34l115 0c32,0 60,12 82,34 23,23 34,50 34,82l0 348zm-58 0l0 -348c0,-16 -5,-30 -16,-41 -11,-11 -25,-17 -42,-17l-116 0c-16,0 -30,5 -41,16 -6,6 -10,12 -12,19 -3,7 -5,15 -5,23l0 348c0,16 6,30 17,41 6,5 12,9 19,13 8,2 16,4 22,4l116 0c17,0 30,-5 41,-16 12,-11 17,-25 17,-42zm278 -214l244 -242c5,-5 12,-8 20,-8 7,0 13,3 20,9 6,6 9,13 9,21 0,5 -3,12 -9,20l-172 171 178 315 4 15c0,8 -3,14 -10,20 -5,5 -13,8 -21,8 -9,0 -17,-5 -24,-15l-170 -302 -69 68 0 221c0,9 -3,16 -8,21 -6,5 -13,7 -21,7 -8,0 -14,-2 -20,-7 -6,-5 -9,-12 -9,-22l0 -521c0,-8 3,-15 9,-20 6,-6 13,-9 20,-9 7,0 14,3 20,7 6,5 9,12 9,21l0 222zm463 40l174 0c16,0 29,-5 41,-16 11,-11 17,-25 17,-42l0 -116c0,-16 -6,-30 -17,-41 -11,-11 -25,-17 -41,-17l-174 0 0 232zm0 57l0 203c0,10 -3,17 -8,22 -6,5 -13,7 -21,7 -8,0 -14,-2 -20,-7 -6,-5 -9,-12 -9,-21l0 -522c0,-19 10,-29 29,-29l203 0c32,0 59,12 82,34 22,23 33,50 33,82l0 116c0,32 -11,59 -34,81 -22,23 -50,34 -82,34l-173 0zm695 0l-174 0c-31,0 -59,-11 -82,-33 -22,-23 -34,-50 -34,-82l0 -203c0,-8 3,-15 9,-21 6,-5 12,-8 20,-8 7,0 14,3 20,8 6,4 9,12 9,21l0 203c0,16 5,30 16,41 6,5 12,9 19,13 8,2 16,4 23,4l174 0 0 -261c0,-8 3,-15 8,-21 6,-5 13,-8 20,-8 8,0 15,3 20,8 6,4 9,12 9,21l0 435c0,31 -11,59 -34,81 -22,23 -49,34 -81,34l-145 0c-9,0 -16,-2 -22,-8 -4,-6 -7,-12 -7,-20 0,-7 3,-14 8,-20 5,-6 12,-9 21,-9l145 0c16,0 29,-5 41,-16 11,-11 17,-25 17,-42l0 -117zm434 -121l150 -213c2,-3 5,-6 10,-9 4,-2 9,-4 13,-4 7,0 14,3 21,9 6,6 9,13 9,21 0,5 -2,11 -6,16l-151 216 153 274c3,6 4,11 4,16 0,6 -3,13 -9,19 -6,5 -13,8 -22,8 -8,0 -16,-4 -24,-15l-148 -265 0 251c0,10 -3,17 -8,22 -6,5 -12,7 -21,7 -8,0 -14,-2 -20,-7 -6,-5 -9,-12 -9,-21l0 -251 -148 265c-2,3 -6,6 -11,10l-7 3 -7 1c-8,0 -15,-2 -21,-8 -6,-5 -9,-12 -9,-20 0,-3 1,-8 4,-15l154 -273 -152 -216c-2,-3 -4,-9 -6,-18 0,-7 3,-14 9,-20 6,-6 13,-9 21,-9 8,0 16,5 23,13l150 214 0 -198c0,-7 3,-15 9,-21 6,-5 12,-8 20,-8 7,0 14,3 20,8 6,4 9,12 9,21l0 197zm608 6l0 -203c0,-8 2,-14 8,-20 6,-6 13,-9 20,-9 8,0 14,3 20,8 6,4 9,12 9,21l0 521c0,8 -3,15 -9,22 -7,5 -13,7 -20,7 -7,0 -14,-2 -20,-7 -6,-4 -8,-11 -8,-21l0 -261 -232 0 0 261c0,9 -3,16 -9,21 -5,5 -12,7 -20,7 -8,0 -15,-2 -20,-7 -6,-5 -9,-12 -9,-21l0 -521c0,-8 3,-15 9,-22 5,-5 12,-7 20,-7 7,0 14,2 20,7 6,5 9,12 9,22l0 202 232 0zm520 232c0,31 -11,59 -34,81 -22,23 -50,34 -82,34l-115 0c-32,0 -59,-11 -82,-33 -23,-23 -34,-50 -34,-82l0 -348c0,-32 11,-60 34,-82 22,-22 49,-34 82,-34l115 0c33,0 60,12 82,34 23,23 34,50 34,82l0 348zm-58 0l0 -348c0,-16 -5,-30 -16,-41 -11,-11 -25,-17 -41,-17l-116 0c-17,0 -31,5 -42,16 -5,6 -10,12 -12,19 -3,7 -4,15 -4,23l0 348c0,16 5,30 16,41 6,5 12,9 19,13 8,2 16,4 23,4l116 0c16,0 29,-5 41,-16 11,-11 16,-25 16,-42zm452 -521l-116 0c-9,0 -16,-3 -22,-8 -4,-6 -7,-13 -7,-21 0,-7 2,-13 7,-19 5,-7 12,-10 22,-10l116 0c8,0 15,3 20,9 6,6 9,13 9,20 0,7 -3,13 -8,19 -4,7 -12,10 -21,10zm115 608c0,9 -2,16 -8,21 -5,5 -12,7 -20,7 -8,0 -15,-2 -21,-7 -5,-5 -8,-12 -8,-21l0 -410 -235 424c-4,5 -8,10 -13,14l-6 3c-2,1 -5,2 -9,2 -6,0 -12,-3 -19,-8 -5,-6 -8,-14 -8,-25l0 -521c0,-8 3,-15 9,-22 6,-5 12,-7 20,-7 7,0 14,2 20,7 6,5 9,12 9,22l0 409 235 -423c3,-5 7,-9 12,-14 5,-4 11,-6 16,-6 6,0 12,3 18,10 5,5 8,13 8,24l0 521zm811 0c0,9 -3,16 -9,21 -5,5 -12,7 -20,7 -8,0 -15,-2 -20,-7 -6,-5 -9,-12 -9,-21l0 -410 -235 424c-3,5 -8,10 -13,14l-6 3c-2,1 -5,2 -9,2 -5,0 -12,-3 -19,-8 -5,-6 -8,-14 -8,-25l0 -521c0,-8 3,-15 9,-22 6,-5 13,-7 20,-7 8,0 14,2 20,7 6,5 9,12 9,22l0 409 235 -423c3,-5 7,-10 12,-14 6,-4 11,-6 16,-6 6,0 12,3 18,9 6,6 9,14 9,24l0 522zm290 -261l-87 0c-9,0 -16,-3 -22,-8 -5,-6 -7,-13 -7,-21 0,-7 2,-13 8,-19 5,-7 12,-10 21,-10l87 0c16,0 29,-5 41,-16 11,-11 16,-25 16,-42l0 -58c0,-16 -5,-30 -16,-41 -11,-11 -25,-17 -41,-17l-58 0c-13,0 -24,3 -34,11 -10,6 -17,16 -21,29 -1,5 -5,10 -9,14 -3,2 -5,4 -8,5l-10 1c-8,0 -15,-2 -21,-8 -6,-5 -9,-12 -9,-21l2 -10c7,-23 21,-42 41,-57 20,-14 43,-22 68,-22l58 0c33,0 60,12 82,34 23,23 34,50 34,82l0 58c0,17 -3,33 -10,48 -7,16 -16,29 -29,39 26,22 39,51 39,87l0 116c0,31 -11,59 -34,81 -22,23 -50,34 -82,34l-58 0c-24,0 -47,-7 -67,-21 -20,-15 -34,-34 -42,-58l-2 -10c0,-8 3,-15 9,-20 5,-6 13,-9 21,-9 12,0 20,6 26,20 4,11 11,21 21,30 12,7 23,11 35,11l58 0c16,0 29,-5 41,-16 11,-11 16,-25 16,-42l0 -116c0,-17 -4,-31 -13,-41 -10,-11 -25,-17 -44,-17zm288 0l0 232 174 0c16,0 30,-5 41,-16 12,-11 17,-25 17,-42l0 -116c0,-16 -5,-30 -16,-41 -11,-11 -25,-17 -42,-17l-174 0zm0 -58l174 0c31,0 58,12 81,34 23,22 35,50 35,82l0 116c0,31 -12,59 -34,81 -23,23 -50,34 -82,34l-202 0c-20,0 -29,-9 -29,-28l0 -522c0,-19 9,-29 29,-29l231 0c8,0 15,3 21,9 5,6 8,13 8,20 0,7 -2,13 -7,19 -5,7 -12,10 -22,10l-203 0 0 174zm753 319c0,9 -3,16 -8,21 -6,5 -13,7 -21,7 -8,0 -14,-2 -20,-7 -6,-5 -9,-12 -9,-21l0 -410 -235 424c-3,5 -7,10 -13,14l-6 3c-2,1 -5,2 -9,2 -5,0 -12,-3 -19,-8 -5,-6 -7,-14 -7,-25l0 -521c0,-8 2,-15 8,-22 6,-5 13,-7 20,-7 8,0 14,2 20,7 6,5 9,12 9,22l0 409 235 -423c3,-5 7,-10 13,-14 5,-4 10,-6 15,-6 7,0 12,3 18,9 6,6 9,14 9,24l0 522zm173 -261l174 0c16,0 30,-5 41,-16 11,-11 17,-25 17,-42l0 -116c0,-16 -5,-30 -16,-41 -11,-11 -25,-17 -42,-17l-174 0 0 232zm0 57l0 203c0,10 -3,17 -8,22 -5,5 -12,7 -21,7 -7,0 -14,-2 -20,-7 -6,-5 -8,-12 -8,-21l0 -522c0,-19 9,-29 29,-29l202 0c32,0 60,12 82,34 22,23 34,50 34,82l0 116c0,32 -12,59 -34,81 -23,23 -50,34 -82,34l-174 0zm449 88l-41 125c-3,6 -6,11 -11,15 -4,2 -9,4 -16,4 -8,0 -14,-2 -20,-8 -7,-5 -10,-11 -10,-20l2 -10 174 -521c6,-16 15,-25 28,-25 12,0 21,9 27,25l173 521 2 10c0,8 -3,14 -9,21 -6,5 -13,7 -20,7 -4,0 -9,-1 -14,-3 -4,-1 -9,-7 -13,-16l-42 -125 -210 0zm191 -60l-85 -254 -86 254 171 0zm258 -317l-116 0c-9,0 -16,-3 -22,-8 -5,-6 -7,-13 -7,-21 0,-7 2,-13 7,-19 5,-7 12,-10 22,-10l289 0c8,0 15,3 21,9 5,6 8,13 8,20 0,7 -2,13 -7,19 -5,7 -12,10 -22,10l-116 0 0 493c0,9 -2,16 -8,21 -5,5 -12,7 -21,7 -7,0 -14,-2 -20,-7 -6,-5 -8,-12 -8,-21l0 -493zm375 174l146 0c8,0 15,3 20,9 6,6 9,13 9,20 0,7 -2,14 -7,20 -5,6 -12,9 -22,9l-146 0 0 232 204 0c8,0 15,3 20,9 6,6 9,12 9,20 0,7 -2,13 -7,19 -5,6 -12,9 -22,9l-232 0c-20,0 -29,-9 -29,-27l0 -523c0,-19 9,-29 29,-29l232 0c8,0 15,3 20,9 6,6 9,13 9,20 0,7 -2,14 -7,20 -5,6 -12,9 -22,9l-204 0 0 174zm696 319c0,9 -3,16 -8,21 -5,5 -12,7 -21,7 -7,0 -14,-2 -20,-7 -6,-5 -9,-12 -9,-21l0 -493 -94 0 -139 500c-1,6 -4,11 -9,15 -6,4 -12,6 -18,6 -9,0 -16,-2 -21,-7 -6,-5 -9,-11 -9,-20 0,-4 1,-7 2,-9l144 -521c5,-14 14,-22 28,-22l145 0c19,0 29,10 29,29l0 522zm173 -261l174 0c16,0 30,6 41,16 11,11 17,25 17,42l0 116c0,16 -6,30 -17,41 -6,6 -12,10 -19,13 -7,2 -14,4 -22,4l-174 0 0 -232zm0 -58l0 -203c0,-7 -3,-14 -9,-20 -6,-6 -13,-9 -20,-9 -7,0 -13,3 -20,8 -6,4 -9,12 -9,21l0 522c0,19 10,28 29,28l202 0c32,0 59,-11 82,-33 23,-22 34,-50 34,-82l0 -116c0,-31 -11,-59 -34,-82 -22,-22 -49,-34 -82,-34l-173 0zm694 0l0 -203c0,-8 3,-14 9,-20 6,-6 13,-9 20,-9 8,0 14,3 20,8 6,4 9,12 9,21l0 521c0,8 -3,15 -9,22 -7,5 -14,7 -20,7 -7,0 -14,-2 -20,-7 -6,-4 -9,-11 -9,-21l0 -261 -231 0 0 261c0,9 -3,16 -9,21 -5,5 -12,7 -20,7 -8,0 -15,-2 -20,-7 -6,-5 -9,-12 -9,-21l0 -521c0,-8 3,-15 9,-22 5,-5 12,-7 20,-7 7,0 14,2 20,7 6,5 9,12 9,22l0 202 231 0zm521 232c0,31 -11,59 -34,81 -22,23 -50,34 -82,34l-115 0c-32,0 -59,-11 -82,-33 -23,-23 -34,-50 -34,-82l0 -348c0,-32 11,-60 34,-82 22,-22 49,-34 82,-34l115 0c33,0 60,12 82,34 23,23 34,50 34,82l0 348zm-58 0l0 -348c0,-16 -5,-30 -16,-41 -11,-11 -25,-17 -42,-17l-116 0c-16,0 -30,5 -41,16 -5,6 -10,12 -12,19 -3,7 -4,15 -4,23l0 348c0,16 5,30 16,41 6,5 12,9 19,13 8,2 16,4 22,4l116 0c17,0 30,-5 42,-16 11,-11 16,-25 16,-42zm452 -521l-116 0c-9,0 -16,-3 -22,-8 -4,-6 -7,-13 -7,-21 0,-7 2,-13 7,-19 5,-7 12,-10 22,-10l116 0c8,0 15,3 20,9 6,6 9,13 9,20 0,7 -3,13 -8,19 -4,7 -12,10 -21,10zm115 608c0,9 -2,16 -8,21 -5,5 -12,7 -20,7 -8,0 -15,-2 -21,-7 -5,-5 -8,-12 -8,-21l0 -410 -235 424c-4,5 -8,10 -13,14l-6 3c-2,1 -5,2 -9,2 -6,0 -12,-3 -19,-8 -5,-6 -8,-14 -8,-25l0 -521c0,-8 3,-15 9,-22 6,-5 12,-7 20,-7 7,0 14,2 20,7 6,5 9,12 9,22l0 409 235 -423c3,-5 7,-9 12,-14 5,-4 11,-6 16,-6 6,0 12,3 18,10 5,5 8,13 8,24l0 521zm521 -301l244 -242c6,-5 12,-8 20,-8 7,0 14,3 20,9 6,6 9,13 9,21 0,5 -3,12 -8,20l-173 171 178 315 4 15c0,8 -3,14 -9,20 -6,5 -13,8 -22,8 -9,0 -17,-5 -24,-15l-170 -302 -69 68 0 221c0,9 -3,16 -8,21 -5,5 -12,7 -21,7 -7,0 -14,-2 -20,-7 -6,-5 -9,-12 -9,-22l0 -521c0,-8 3,-15 9,-20 6,-6 13,-9 20,-9 8,0 14,3 20,7 6,5 9,12 9,21l0 222zm723 214c0,31 -11,59 -34,81 -22,23 -50,34 -81,34l-116 0c-32,0 -59,-11 -82,-33 -22,-23 -34,-50 -34,-82l0 -348c0,-32 11,-60 34,-82 22,-22 50,-34 82,-34l116 0c32,0 59,12 82,34 22,23 33,50 33,82l0 348zm-57 0l0 -348c0,-16 -6,-30 -17,-41 -11,-11 -25,-17 -41,-17l-116 0c-17,0 -30,5 -42,16 -5,6 -9,12 -12,19 -3,7 -4,15 -4,23l0 348c0,16 5,30 16,41 6,5 12,9 19,13 8,2 16,4 23,4l116 0c16,0 29,-5 41,-16 11,-11 17,-25 17,-42zm625 87c0,9 -3,16 -8,21 -5,5 -12,7 -21,7 -6,0 -13,-2 -19,-7 -7,-5 -10,-12 -10,-21l0 -414 -119 200c-7,13 -16,19 -26,19 -8,0 -16,-6 -25,-19l-120 -200 0 414c0,9 -3,16 -8,21 -5,5 -12,7 -21,7 -7,0 -14,-2 -20,-7 -6,-5 -9,-12 -9,-21l0 -519c0,-11 3,-19 9,-25 5,-5 11,-8 18,-8 5,0 10,1 14,4 4,3 8,7 13,14l149 248 149 -248c7,-12 16,-18 28,-18 6,0 13,3 18,9 5,6 8,14 8,24l0 519z"/>
    <path class="fil42 str2" d="M16469 3614c0,9 -2,16 -8,21 -5,5 -12,7 -20,7 -8,0 -15,-2 -21,-7 -5,-5 -8,-12 -8,-21l0 -410 -235 424c-4,5 -8,10 -13,14l-6 3c-2,1 -5,2 -9,2 -6,0 -12,-3 -19,-8 -5,-6 -8,-14 -8,-25l0 -521c0,-8 3,-15 9,-22 6,-5 12,-7 20,-7 7,0 14,2 20,7 6,5 9,12 9,22l0 409 235 -423c3,-5 7,-10 12,-14 5,-4 11,-6 16,-6 6,0 12,3 18,9 5,6 8,14 8,24l0 522zm377 28l-145 0c-31,0 -59,-11 -82,-33 -22,-23 -34,-50 -34,-82l0 -348c0,-32 11,-60 34,-82 22,-22 50,-34 82,-34l145 0c8,0 15,3 20,9 6,6 9,13 9,20 0,7 -2,13 -7,19 -5,7 -12,10 -22,10l-145 0c-16,0 -30,5 -42,16 -5,6 -9,12 -12,19 -3,7 -4,15 -4,23l0 348c0,16 5,30 16,41 6,5 12,9 19,13 8,2 16,4 23,4l145 0c8,0 15,3 20,9 6,6 9,12 9,20 0,6 -2,13 -7,19 -5,6 -12,9 -22,9zm379 0l-145 0c-31,0 -58,-11 -81,-33 -23,-23 -35,-50 -35,-82l0 -348c0,-32 12,-60 34,-82 22,-22 50,-34 82,-34l145 0c8,0 15,3 20,9 6,6 9,13 9,20 0,7 -2,13 -7,19 -5,7 -12,10 -22,10l-145 0c-16,0 -30,5 -42,16 -5,6 -9,12 -12,19 -3,7 -4,15 -4,23l0 348c0,16 5,30 16,41 6,5 12,9 19,13 8,2 16,4 23,4l145 0c8,0 15,3 20,9 6,6 9,12 9,20 0,6 -2,13 -7,19 -5,6 -12,9 -22,9zm491 -28c0,9 -2,16 -8,21 -5,5 -12,7 -20,7 -8,0 -15,-2 -20,-7 -6,-5 -9,-12 -9,-21l0 -410 -235 424c-3,5 -8,10 -13,14l-6 3c-2,1 -5,2 -9,2 -6,0 -12,-3 -19,-8 -5,-6 -8,-14 -8,-25l0 -521c0,-8 3,-15 9,-22 6,-5 13,-7 20,-7 7,0 14,2 20,7 6,5 9,12 9,22l0 409 235 -423c3,-5 7,-10 12,-14 6,-4 11,-6 16,-6 6,0 12,3 18,9 6,6 8,14 8,24l0 522zm463 0c0,9 -2,16 -8,21 -5,5 -12,7 -20,7 -8,0 -15,-2 -20,-7 -6,-5 -9,-12 -9,-21l0 -410 -235 424c-3,5 -8,10 -13,14l-6 3c-2,1 -5,2 -9,2 -6,0 -12,-3 -19,-8 -5,-6 -8,-14 -8,-25l0 -521c0,-8 3,-15 9,-22 6,-5 13,-7 20,-7 7,0 14,2 20,7 6,5 9,12 9,22l0 409 235 -423c3,-5 7,-10 12,-14 6,-4 11,-6 16,-6 6,0 12,3 18,9 6,6 8,14 8,24l0 522zm-13728 955l-145 0c-31,0 -58,-11 -81,-34 -23,-22 -34,-50 -34,-82l0 -347c0,-33 11,-60 33,-83 23,-22 50,-33 82,-33l145 0c8,0 15,3 21,9 5,5 8,12 8,20 0,6 -2,13 -7,19 -5,6 -12,9 -22,9l-145 0c-16,0 -30,6 -41,17 -6,5 -10,12 -13,19 -3,7 -4,14 -4,22l0 348c0,17 6,30 17,42 6,5 12,9 18,12 9,3 16,4 23,4l145 0c8,0 15,3 21,9 5,6 8,13 8,20 0,7 -2,13 -7,19 -5,7 -12,10 -22,10zm839 -29c0,9 -3,16 -8,22 -5,4 -12,7 -21,7 -7,0 -14,-3 -20,-7 -6,-5 -9,-12 -9,-22l0 -493 -232 0 0 493c0,9 -2,16 -8,22 -5,4 -12,7 -20,7 -8,0 -15,-3 -20,-7 -6,-5 -9,-12 -9,-22l0 -521c0,-20 10,-29 29,-29l289 0c19,0 29,9 29,29l0 521zm173 -261l174 0c17,0 30,-5 42,-16 11,-11 16,-25 16,-42l0 -116c0,-16 -5,-30 -16,-41 -11,-11 -25,-17 -42,-17l-174 0 0 232zm0 58l0 203c0,9 -2,16 -8,22 -5,4 -12,7 -20,7 -8,0 -15,-3 -20,-7 -6,-5 -9,-12 -9,-22l0 -521c0,-20 10,-29 29,-29l202 0c33,0 60,11 82,34 23,22 34,50 34,81l0 116c0,32 -11,59 -34,82 -23,22 -50,34 -82,34l-174 0zm450 87l-42 125c-2,6 -6,11 -11,15 -4,2 -9,4 -16,5 -7,0 -14,-3 -20,-8 -6,-5 -9,-12 -9,-20l2 -11 174 -521c6,-16 15,-24 27,-24 12,0 21,8 27,24l174 521 2 11c0,7 -4,14 -10,20 -6,5 -13,8 -20,8 -4,0 -8,-1 -13,-3 -5,-2 -10,-8 -14,-17l-41 -125 -210 0zm190 -59l-85 -255 -85 255 170 0zm521 -127c16,10 30,24 40,42 10,18 15,37 15,57l0 116c0,32 -11,59 -34,82 -22,22 -50,34 -82,34l-202 0c-20,0 -29,-10 -29,-29l0 -521c0,-20 9,-29 29,-29l174 0c32,0 59,11 82,34 22,22 33,50 33,82l0 57c0,14 -2,27 -6,39 -4,12 -11,25 -20,36zm-235 41l0 232 174 0c17,0 30,-5 42,-16 11,-11 16,-25 16,-42l0 -116c0,-16 -5,-30 -16,-41 -11,-11 -25,-17 -42,-17l-174 0zm146 -57c16,0 29,-6 41,-17 11,-10 17,-24 17,-42l0 -58c0,-16 -6,-30 -17,-41 -11,-11 -25,-17 -41,-17l-146 0 0 175 146 0zm607 231c0,32 -11,59 -34,82 -22,22 -50,34 -82,34l-115 0c-32,0 -59,-11 -82,-34 -23,-22 -34,-50 -34,-82l0 -347c0,-33 11,-60 34,-83 22,-22 49,-33 82,-33l115 0c32,0 60,11 82,34 23,22 34,50 34,82l0 347zm-58 0l0 -348c0,-16 -5,-30 -16,-41 -11,-11 -25,-17 -42,-17l-116 0c-16,0 -30,6 -41,17 -6,5 -10,12 -12,19 -3,7 -5,14 -5,22l0 348c0,17 6,30 17,42 6,5 12,9 19,12 8,3 16,4 22,4l116 0c17,0 30,-5 41,-16 12,-11 17,-25 17,-42zm626 87c0,9 -3,16 -8,22 -6,4 -13,7 -21,7 -7,0 -13,-3 -19,-7 -7,-5 -10,-12 -10,-22l0 -413 -120 200c-7,12 -15,18 -25,18 -8,0 -16,-6 -25,-18l-120 -200 0 413c0,9 -3,16 -8,22 -6,4 -13,7 -21,7 -8,0 -14,-3 -20,-7 -6,-5 -9,-12 -9,-22l0 -519c0,-11 3,-19 8,-24 5,-6 11,-9 19,-9 5,0 10,1 14,4 4,3 8,8 13,15l149 248 149 -248c7,-13 16,-19 28,-19 6,0 12,3 18,9 5,6 8,15 8,24l0 519zm520 -261l174 0c16,0 29,-5 41,-16 11,-11 17,-25 17,-42l0 -116c0,-16 -6,-30 -17,-41 -10,-11 -24,-17 -41,-17l-174 0 0 232zm0 58l0 203c0,9 -3,16 -8,22 -6,4 -12,7 -21,7 -8,0 -14,-3 -20,-7 -6,-5 -9,-12 -9,-22l0 -521c0,-20 10,-29 29,-29l203 0c32,0 59,11 82,34 22,22 33,50 33,81l0 116c0,32 -11,59 -33,82 -23,22 -50,34 -82,34l-174 0zm463 -115l145 0c8,0 15,3 21,9 6,5 9,12 9,20 0,6 -3,13 -8,19 -5,6 -12,9 -22,9l-145 0 0 232 203 0c8,0 15,3 21,9 6,6 8,13 8,20 0,7 -2,13 -7,20 -5,6 -12,9 -22,9l-232 0c-19,0 -29,-9 -29,-28l0 -522c0,-20 10,-29 29,-29l232 0c8,0 15,3 21,9 6,5 8,12 8,20 0,6 -2,13 -7,19 -5,6 -12,9 -22,9l-203 0 0 175zm607 289l145 0 0 -492c0,-8 3,-15 9,-22 5,-5 12,-7 20,-7 7,0 14,2 20,7 6,5 9,12 9,22l0 521c0,19 -10,29 -29,29l-405 0c-19,0 -29,-10 -29,-29l0 -521c0,-8 3,-15 9,-22 6,-5 13,-7 20,-7 8,0 14,2 20,7 6,5 9,12 9,22l0 492 145 0 0 -492c0,-8 3,-15 8,-22 6,-5 13,-7 21,-7 7,0 14,2 19,7 6,5 9,12 9,22l0 492zm421 -87l-42 125c-2,6 -6,11 -11,15 -3,2 -9,4 -15,5 -8,0 -15,-3 -21,-8 -6,-5 -9,-12 -9,-20l2 -11 174 -521c6,-16 15,-24 27,-24 13,0 22,8 27,24l174 521 2 11c0,7 -3,14 -10,20 -6,5 -13,8 -20,8 -4,0 -8,-1 -13,-3 -5,-2 -9,-8 -13,-17l-42 -125 -210 0zm190 -59l-85 -255 -85 255 170 0zm577 88l0 -348c0,-16 -5,-30 -16,-41 -11,-11 -25,-17 -42,-17l-58 0c-17,0 -30,6 -42,17 -5,5 -9,12 -12,19 -3,7 -4,14 -4,22l0 348c0,17 5,30 16,42 6,5 12,9 19,12 8,3 16,4 23,4l58 0c16,0 30,-5 41,-16 11,-11 17,-25 17,-42zm-290 -231l58 0 0 -116c0,-33 11,-60 34,-83 22,-22 50,-33 82,-33l58 0c32,0 59,11 82,34 22,22 34,50 34,82l0 347c0,32 -12,59 -34,82 -23,22 -50,34 -82,34l-58 0c-32,0 -59,-11 -82,-34 -23,-22 -34,-50 -34,-82l0 -174 -58 0 0 261c0,9 -3,16 -9,22 -5,4 -12,7 -20,7 -8,0 -15,-3 -20,-7 -6,-5 -9,-12 -9,-22l0 -521c0,-8 3,-15 9,-22 5,-5 12,-7 20,-7 7,0 14,2 20,7 6,5 9,12 9,22l0 203zm926 347l-29 0 -405 0c-20,0 -29,-10 -29,-29l0 -521c0,-8 3,-15 9,-22 5,-5 12,-7 20,-7 7,0 14,2 20,7 6,5 8,12 8,22l0 492 145 0 0 -492c0,-8 3,-15 9,-22 6,-5 12,-7 20,-7 7,0 14,2 20,7 6,5 9,12 9,22l0 492 145 0 0 -492c0,-8 3,-15 9,-22 6,-5 13,-7 20,-7 7,0 14,2 20,7 6,5 9,12 9,22l0 492 29 0c19,0 29,10 29,29l0 87c0,8 -3,15 -9,21 -6,5 -13,8 -20,8 -7,0 -13,-2 -20,-7 -6,-5 -9,-12 -9,-22l0 -58zm231 -347l146 0c8,0 15,3 20,9 6,5 9,12 9,20 0,6 -3,13 -7,19 -5,6 -13,9 -22,9l-146 0 0 232 204 0c8,0 14,3 20,9 6,6 9,13 9,20 0,7 -3,13 -7,20 -5,6 -13,9 -22,9l-232 0c-20,0 -29,-9 -29,-28l0 -522c0,-20 9,-29 29,-29l232 0c8,0 15,3 20,9 6,5 9,12 9,20 0,6 -3,13 -8,19 -4,6 -12,9 -21,9l-204 0 0 175zm608 -175l-203 0 0 493c0,9 -2,16 -8,22 -5,4 -12,7 -20,7 -8,0 -15,-3 -21,-7 -5,-5 -8,-12 -8,-22l0 -521c0,-20 9,-29 29,-29l232 0c7,0 14,3 20,9 6,5 8,12 8,20 0,6 -2,13 -7,19 -5,6 -12,9 -22,9zm463 406c0,32 -12,59 -34,82 -23,22 -50,34 -82,34l-116 0c-31,0 -58,-11 -81,-34 -23,-22 -34,-50 -34,-82l0 -347c0,-33 11,-60 33,-83 23,-22 50,-33 82,-33l116 0c32,0 59,11 82,34 22,22 34,50 34,82l0 347zm-58 0l0 -348c0,-16 -5,-30 -16,-41 -11,-11 -25,-17 -42,-17l-116 0c-16,0 -30,6 -41,17 -6,5 -10,12 -13,19 -3,7 -4,14 -4,22l0 348c0,17 6,30 17,42 6,5 12,9 18,12 9,3 16,4 23,4l116 0c16,0 30,-5 41,-16 11,-11 17,-25 17,-42zm828 -406l-203 0 0 493c0,9 -3,16 -9,22 -5,4 -12,7 -20,7 -8,0 -15,-3 -20,-7 -6,-5 -9,-12 -9,-22l0 -521c0,-20 10,-29 29,-29l232 0c8,0 15,3 20,9 6,5 9,12 9,20 0,6 -3,13 -7,19 -5,6 -13,9 -22,9zm462 406c0,32 -11,59 -34,82 -22,22 -50,34 -82,34l-115 0c-32,0 -59,-11 -82,-34 -23,-22 -34,-50 -34,-82l0 -347c0,-33 11,-60 34,-83 22,-22 49,-33 82,-33l115 0c32,0 60,11 82,34 23,22 34,50 34,82l0 347zm-58 0l0 -348c0,-16 -5,-30 -16,-41 -11,-11 -25,-17 -42,-17l-116 0c-16,0 -30,6 -41,17 -6,5 -10,12 -12,19 -3,7 -5,14 -5,22l0 348c0,17 6,30 17,42 6,5 12,9 19,12 8,3 15,4 22,4l116 0c16,0 30,-5 41,-16 12,-11 17,-25 17,-42zm510 87c0,9 -2,16 -8,22 -5,4 -12,7 -21,7 -7,0 -14,-3 -20,-7 -6,-5 -8,-12 -8,-22l0 -493 -94 0 -140 500c0,6 -4,11 -9,16 -6,4 -12,6 -18,6 -9,0 -16,-3 -21,-7 -6,-5 -8,-12 -8,-21 0,-4 0,-7 1,-9l145 -521c4,-14 13,-21 27,-21l145 0c20,0 29,9 29,29l0 521zm462 -87c0,32 -11,59 -33,82 -23,22 -50,34 -82,34l-116 0c-32,0 -59,-11 -81,-34 -23,-22 -35,-50 -35,-82l0 -347c0,-33 12,-60 34,-83 22,-22 50,-33 82,-33l116 0c32,0 59,11 82,34 22,22 33,50 33,82l0 347zm-57 0l0 -348c0,-16 -6,-30 -17,-41 -10,-11 -24,-17 -41,-17l-116 0c-16,0 -30,6 -42,17 -5,5 -9,12 -12,19 -3,7 -4,14 -4,22l0 348c0,17 5,30 16,42 6,5 12,9 19,12 8,3 16,4 23,4l116 0c16,0 29,-5 41,-16 11,-11 17,-25 17,-42zm480 116l-145 0c-31,0 -58,-11 -81,-34 -23,-22 -34,-50 -34,-82l0 -347c0,-33 11,-60 33,-83 23,-22 50,-33 82,-33l145 0c8,0 15,3 21,9 5,5 8,12 8,20 0,6 -2,13 -7,19 -5,6 -12,9 -22,9l-145 0c-16,0 -30,6 -41,17 -6,5 -10,12 -13,19 -3,7 -4,14 -4,22l0 348c0,17 6,30 17,42 6,5 12,9 18,12 9,3 16,4 23,4l145 0c8,0 15,3 21,9 5,6 8,13 8,20 0,7 -2,13 -7,19 -5,7 -12,10 -22,10zm246 -145l-42 125c-2,6 -5,11 -10,15 -4,2 -9,4 -16,5 -8,0 -14,-3 -20,-8 -7,-5 -10,-12 -10,-20l2 -11 174 -521c6,-16 15,-24 28,-24 12,0 21,8 27,24l173 521 2 11c0,7 -3,14 -9,20 -6,5 -13,8 -20,8 -4,0 -9,-1 -14,-3 -4,-2 -9,-8 -13,-17l-42 -125 -210 0zm191 -59l-85 -255 -86 255 171 0z"/>
   </g>
  </g>
 </g>
</svg>
