<?xml version="1.0" encoding="UTF-8"?>
<!DOCTYPE svg PUBLIC "-//W3C//DTD SVG 1.1//EN" "http://www.w3.org/Graphics/SVG/1.1/DTD/svg11.dtd">
<svg version="1.2" width="115.71mm" height="70.56mm" viewBox="0 0 11571 7056" preserveAspectRatio="xMidYMid" fill-rule="evenodd" stroke-width="28.222" stroke-linejoin="round" xmlns="http://www.w3.org/2000/svg" xmlns:ooo="http://xml.openoffice.org/svg/export" xmlns:xlink="http://www.w3.org/1999/xlink" xmlns:presentation="http://sun.com/xmlns/staroffice/presentation" xmlns:smil="http://www.w3.org/2001/SMIL20/" xmlns:anim="urn:oasis:names:tc:opendocument:xmlns:animation:1.0" xml:space="preserve">
 <defs class="ClipPathGroup">
  <clipPath id="presentation_clip_path" clipPathUnits="userSpaceOnUse">
   <rect x="0" y="0" width="11571" height="7056"/>
  </clipPath>
  <clipPath id="presentation_clip_path_shrink" clipPathUnits="userSpaceOnUse">
   <rect x="11" y="7" width="11548" height="7042"/>
  </clipPath>
 </defs>
 <defs class="TextShapeIndex">
  <g ooo:slide="id1" ooo:id-list="id3 id4 id5 id6 id7 id8 id9 id10 id11 id12 id13 id14 id15 id16 id17 id18 id19 id20 id21 id22 id23 id24 id25 id26 id27 id28 id29 id30 id31 id32 id33 id34 id35 id36 id37 id38 id39 id40 id41 id42 id43 id44 id45 id46 id47 id48 id49 id50 id51 id52 id53 id54 id55"/>
 </defs>
 <defs class="EmbeddedBulletChars">
  <g id="bullet-char-template(57356)" transform="scale(0.00048828125,-0.00048828125)">
   <path d="M 580,1141 L 1163,571 580,0 -4,571 580,1141 Z"/>
  </g>
  <g id="bullet-char-template(57354)" transform="scale(0.00048828125,-0.00048828125)">
   <path d="M 8,1128 L 1137,1128 1137,0 8,0 8,1128 Z"/>
  </g>
  <g id="bullet-char-template(10146)" transform="scale(0.00048828125,-0.00048828125)">
   <path d="M 174,0 L 602,739 174,1481 1456,739 174,0 Z M 1358,739 L 309,1346 659,739 1358,739 Z"/>
  </g>
  <g id="bullet-char-template(10132)" transform="scale(0.00048828125,-0.00048828125)">
   <path d="M 2015,739 L 1276,0 717,0 1260,543 174,543 174,936 1260,936 717,1481 1274,1481 2015,739 Z"/>
  </g>
  <g id="bullet-char-template(10007)" transform="scale(0.00048828125,-0.00048828125)">
   <path d="M 0,-2 C -7,14 -16,27 -25,37 L 356,567 C 262,823 215,952 215,954 215,979 228,992 255,992 264,992 276,990 289,987 310,991 331,999 354,1012 L 381,999 492,748 772,1049 836,1024 860,1049 C 881,1039 901,1025 922,1006 886,937 835,863 770,784 769,783 710,716 594,584 L 774,223 C 774,196 753,168 711,139 L 727,119 C 717,90 699,76 672,76 641,76 570,178 457,381 L 164,-76 C 142,-110 111,-127 72,-127 30,-127 9,-110 8,-76 1,-67 -2,-52 -2,-32 -2,-23 -1,-13 0,-2 Z"/>
  </g>
  <g id="bullet-char-template(10004)" transform="scale(0.00048828125,-0.00048828125)">
   <path d="M 285,-33 C 182,-33 111,30 74,156 52,228 41,333 41,471 41,549 55,616 82,672 116,743 169,778 240,778 293,778 328,747 346,684 L 369,508 C 377,444 397,411 428,410 L 1163,1116 C 1174,1127 1196,1133 1229,1133 1271,1133 1292,1118 1292,1087 L 1292,965 C 1292,929 1282,901 1262,881 L 442,47 C 390,-6 338,-33 285,-33 Z"/>
  </g>
  <g id="bullet-char-template(9679)" transform="scale(0.00048828125,-0.00048828125)">
   <path d="M 813,0 C 632,0 489,54 383,161 276,268 223,411 223,592 223,773 276,916 383,1023 489,1130 632,1184 813,1184 992,1184 1136,1130 1245,1023 1353,916 1407,772 1407,592 1407,412 1353,268 1245,161 1136,54 992,0 813,0 Z"/>
  </g>
  <g id="bullet-char-template(8226)" transform="scale(0.00048828125,-0.00048828125)">
   <path d="M 346,457 C 273,457 209,483 155,535 101,586 74,649 74,723 74,796 101,859 155,911 209,963 273,989 346,989 419,989 480,963 531,910 582,859 608,796 608,723 608,648 583,586 532,535 482,483 420,457 346,457 Z"/>
  </g>
  <g id="bullet-char-template(8211)" transform="scale(0.00048828125,-0.00048828125)">
   <path d="M -4,459 L 1135,459 1135,606 -4,606 -4,459 Z"/>
  </g>
  <g id="bullet-char-template(61548)" transform="scale(0.00048828125,-0.00048828125)">
   <path d="M 173,740 C 173,903 231,1043 346,1159 462,1274 601,1332 765,1332 928,1332 1067,1274 1183,1159 1299,1043 1357,903 1357,740 1357,577 1299,437 1183,322 1067,206 928,148 765,148 601,148 462,206 346,322 231,437 173,577 173,740 Z"/>
  </g>
 </defs>
 <defs class="TextEmbeddedBitmaps"/>
 <g>
  <g id="id2" class="Master_Slide">
   <g id="bg-id2" class="Background"/>
   <g id="bo-id2" class="BackgroundObjects"/>
  </g>
 </g>
 <g class="SlideGroup">
  <g>
   <g id="container-id1">
    <g id="id1" class="Slide" clip-path="url(#presentation_clip_path)">
     <g class="Page">
      <g class="Group">
       <g class="com.sun.star.drawing.PolyPolygonShape">
        <g id="id3">
         <rect class="BoundingBox" stroke="none" fill="none" x="0" y="0" width="11573" height="7058"/>
         <g>
          <defs>
           <linearGradient id="gradient1" x1="0" y1="3528" x2="11573" y2="3528" gradientUnits="userSpaceOnUse">
            <stop offset="0" style="stop-color:rgb(255,255,255)"/>
            <stop offset="1" style="stop-color:rgb(209,226,242)"/>
           </linearGradient>
          </defs>
          <path style="fill:url(#gradient1)" d="M 0,0 L 11572,0 11572,7057 0,7057 0,0 Z"/>
         </g>
        </g>
       </g>
       <g class="Group">
        <g class="com.sun.star.drawing.PolyPolygonShape">
         <g id="id4">
          <rect class="BoundingBox" stroke="none" fill="none" x="5893" y="2290" width="1377" height="2022"/>
          <path fill="rgb(236,243,217)" stroke="none" d="M 5934,4270 L 7227,4270 7227,2331 5934,2331 5934,4270 Z"/>
          <path fill="none" stroke="rgb(0,65,57)" stroke-width="82" stroke-linejoin="round" stroke-linecap="round" d="M 5934,4270 L 7227,4270 7227,2331 5934,2331 5934,4270 Z"/>
         </g>
        </g>
        <g class="com.sun.star.drawing.PolyPolygonShape">
         <g id="id5">
          <rect class="BoundingBox" stroke="none" fill="none" x="2416" y="2290" width="1376" height="2022"/>
          <path fill="rgb(236,243,217)" stroke="none" d="M 2457,4270 L 3750,4270 3750,2331 2457,2331 2457,4270 Z"/>
          <path fill="none" stroke="rgb(0,65,57)" stroke-width="82" stroke-linejoin="round" stroke-linecap="round" d="M 2457,4270 L 3750,4270 3750,2331 2457,2331 2457,4270 Z"/>
         </g>
        </g>
        <g class="com.sun.star.drawing.OpenBezierShape">
         <g id="id6">
          <rect class="BoundingBox" stroke="none" fill="none" x="2565" y="2154" width="1377" height="2022"/>
          <path fill="none" stroke="rgb(69,136,119)" stroke-width="82" stroke-linejoin="round" stroke-linecap="round" d="M 3899,4134 C 3899,3488 3899,2841 3899,2195 3468,2195 3036,2195 2606,2195"/>
         </g>
        </g>
        <g class="com.sun.star.drawing.PolyPolygonShape">
         <g id="id7">
          <rect class="BoundingBox" stroke="none" fill="none" x="4155" y="2290" width="1376" height="2022"/>
          <path fill="rgb(236,243,217)" stroke="none" d="M 4196,4270 L 5489,4270 5489,2331 4196,2331 4196,4270 Z"/>
          <path fill="none" stroke="rgb(0,65,57)" stroke-width="82" stroke-linejoin="round" stroke-linecap="round" d="M 4196,4270 L 5489,4270 5489,2331 4196,2331 4196,4270 Z"/>
         </g>
        </g>
        <g class="com.sun.star.drawing.OpenBezierShape">
         <g id="id8">
          <rect class="BoundingBox" stroke="none" fill="none" x="4303" y="2154" width="1376" height="2022"/>
          <path fill="none" stroke="rgb(69,136,119)" stroke-width="82" stroke-linejoin="round" stroke-linecap="round" d="M 5637,4134 C 5637,3488 5637,2841 5637,2195 5206,2195 4774,2195 4344,2195"/>
         </g>
        </g>
        <g class="com.sun.star.drawing.ClosedBezierShape">
         <g id="id9">
          <rect class="BoundingBox" stroke="none" fill="none" x="6258" y="3163" width="605" height="286"/>
          <path fill="rgb(170,125,129)" stroke="none" d="M 6297,3376 C 6297,3358 6303,3344 6316,3338 L 6387,3306 C 6422,3290 6430,3263 6430,3236 L 6430,3235 C 6430,3190 6405,3166 6354,3166 L 6331,3166 C 6291,3166 6266,3183 6266,3224 6266,3234 6271,3242 6284,3242 6298,3242 6303,3234 6303,3224 6303,3207 6314,3200 6331,3200 L 6354,3200 C 6382,3200 6394,3211 6394,3235 L 6394,3236 C 6394,3254 6388,3266 6372,3273 L 6306,3302 C 6275,3316 6261,3346 6261,3379 L 6261,3441 6416,3441 C 6426,3441 6433,3436 6433,3424 6433,3411 6426,3406 6416,3406 L 6297,3406 6297,3376 Z M 6297,3376 L 6297,3376 Z M 6510,3376 C 6510,3358 6516,3344 6529,3338 L 6601,3306 C 6636,3290 6644,3263 6644,3236 L 6644,3235 C 6644,3190 6619,3166 6568,3166 L 6544,3166 C 6504,3166 6479,3183 6479,3224 6479,3234 6484,3242 6497,3242 6510,3242 6515,3234 6515,3224 6515,3207 6527,3200 6544,3200 L 6568,3200 C 6596,3200 6607,3211 6607,3235 L 6607,3236 C 6607,3254 6601,3266 6586,3273 L 6519,3302 C 6488,3316 6473,3346 6473,3379 L 6473,3441 6630,3441 C 6639,3441 6647,3436 6647,3424 6647,3411 6639,3406 6630,3406 L 6510,3406 6510,3376 Z M 6510,3376 L 6510,3376 Z M 6859,3359 C 6859,3327 6846,3301 6817,3292 6835,3282 6846,3265 6846,3240 L 6846,3235 C 6846,3190 6820,3166 6770,3166 L 6750,3166 C 6710,3166 6685,3183 6685,3224 6685,3234 6690,3242 6703,3242 6716,3242 6721,3234 6721,3224 6721,3207 6733,3200 6750,3200 L 6770,3200 C 6798,3200 6809,3211 6809,3235 L 6809,3240 C 6809,3264 6795,3282 6767,3282 L 6745,3282 C 6735,3282 6728,3286 6728,3299 6728,3312 6735,3317 6745,3317 L 6784,3317 C 6812,3317 6822,3334 6822,3359 L 6822,3372 C 6822,3396 6811,3410 6783,3410 L 6742,3410 C 6725,3410 6714,3403 6714,3387 6714,3377 6709,3369 6695,3369 6682,3369 6677,3377 6677,3387 6677,3428 6702,3445 6742,3445 L 6783,3445 C 6834,3445 6859,3416 6859,3372 L 6859,3359 Z"/>
          <path fill="none" stroke="rgb(170,125,129)" stroke-width="5" stroke-linejoin="miter" d="M 6297,3376 C 6297,3358 6303,3344 6316,3338 L 6387,3306 C 6422,3290 6430,3263 6430,3236 L 6430,3235 C 6430,3190 6405,3166 6354,3166 L 6331,3166 C 6291,3166 6266,3183 6266,3224 6266,3234 6271,3242 6284,3242 6298,3242 6303,3234 6303,3224 6303,3207 6314,3200 6331,3200 L 6354,3200 C 6382,3200 6394,3211 6394,3235 L 6394,3236 C 6394,3254 6388,3266 6372,3273 L 6306,3302 C 6275,3316 6261,3346 6261,3379 L 6261,3441 6416,3441 C 6426,3441 6433,3436 6433,3424 6433,3411 6426,3406 6416,3406 L 6297,3406 6297,3376 Z"/>
          <path fill="none" stroke="rgb(170,125,129)" stroke-width="5" stroke-linejoin="miter" d="M 6510,3376 C 6510,3358 6516,3344 6529,3338 L 6601,3306 C 6636,3290 6644,3263 6644,3236 L 6644,3235 C 6644,3190 6619,3166 6568,3166 L 6544,3166 C 6504,3166 6479,3183 6479,3224 6479,3234 6484,3242 6497,3242 6510,3242 6515,3234 6515,3224 6515,3207 6527,3200 6544,3200 L 6568,3200 C 6596,3200 6607,3211 6607,3235 L 6607,3236 C 6607,3254 6601,3266 6586,3273 L 6519,3302 C 6488,3316 6473,3346 6473,3379 L 6473,3441 6630,3441 C 6639,3441 6647,3436 6647,3424 6647,3411 6639,3406 6630,3406 L 6510,3406 6510,3376 Z"/>
          <path fill="none" stroke="rgb(170,125,129)" stroke-width="5" stroke-linejoin="miter" d="M 6859,3359 C 6859,3327 6846,3301 6817,3292 6835,3282 6846,3265 6846,3240 L 6846,3235 C 6846,3190 6820,3166 6770,3166 L 6750,3166 C 6710,3166 6685,3183 6685,3224 6685,3234 6690,3242 6703,3242 6716,3242 6721,3234 6721,3224 6721,3207 6733,3200 6750,3200 L 6770,3200 C 6798,3200 6809,3211 6809,3235 L 6809,3240 C 6809,3264 6795,3282 6767,3282 L 6745,3282 C 6735,3282 6728,3286 6728,3299 6728,3312 6735,3317 6745,3317 L 6784,3317 C 6812,3317 6822,3334 6822,3359 L 6822,3372 C 6822,3396 6811,3410 6783,3410 L 6742,3410 C 6725,3410 6714,3403 6714,3387 6714,3377 6709,3369 6695,3369 6682,3369 6677,3377 6677,3387 6677,3428 6702,3445 6742,3445 L 6783,3445 C 6834,3445 6859,3416 6859,3372 L 6859,3359 Z"/>
         </g>
        </g>
        <g class="com.sun.star.drawing.ClosedBezierShape">
         <g id="id10">
          <rect class="BoundingBox" stroke="none" fill="none" x="6413" y="3573" width="338" height="171"/>
          <path fill="rgb(203,113,134)" stroke="none" d="M 6575,3576 C 6565,3576 6562,3582 6562,3589 L 6562,3711 6516,3711 6516,3589 C 6516,3582 6512,3576 6502,3576 6492,3576 6489,3582 6489,3589 L 6489,3711 6443,3711 6443,3589 C 6443,3582 6439,3576 6429,3576 6419,3576 6416,3582 6416,3589 L 6416,3723 C 6416,3730 6419,3737 6429,3737 L 6575,3737 C 6586,3737 6590,3730 6590,3723 L 6590,3589 C 6590,3582 6586,3576 6575,3576 Z M 6575,3576 L 6575,3576 Z M 6733,3579 L 6633,3579 C 6626,3579 6620,3582 6620,3591 6620,3601 6626,3604 6633,3604 L 6670,3604 6670,3726 C 6670,3733 6673,3740 6683,3740 6693,3740 6697,3733 6697,3726 L 6697,3604 6733,3604 C 6740,3604 6747,3601 6747,3591 6747,3582 6740,3579 6733,3579 Z"/>
          <path fill="none" stroke="rgb(203,113,134)" stroke-width="5" stroke-linejoin="miter" d="M 6575,3576 C 6565,3576 6562,3582 6562,3589 L 6562,3711 6516,3711 6516,3589 C 6516,3582 6512,3576 6502,3576 6492,3576 6489,3582 6489,3589 L 6489,3711 6443,3711 6443,3589 C 6443,3582 6439,3576 6429,3576 6419,3576 6416,3582 6416,3589 L 6416,3723 C 6416,3730 6419,3737 6429,3737 L 6575,3737 C 6586,3737 6590,3730 6590,3723 L 6590,3589 C 6590,3582 6586,3576 6575,3576 Z"/>
          <path fill="none" stroke="rgb(203,113,134)" stroke-width="5" stroke-linejoin="miter" d="M 6733,3579 L 6633,3579 C 6626,3579 6620,3582 6620,3591 6620,3601 6626,3604 6633,3604 L 6670,3604 6670,3726 C 6670,3733 6673,3740 6683,3740 6693,3740 6697,3733 6697,3726 L 6697,3604 6733,3604 C 6740,3604 6747,3601 6747,3591 6747,3582 6740,3579 6733,3579 Z"/>
         </g>
        </g>
        <g class="com.sun.star.drawing.PolyLineShape">
         <g id="id11">
          <rect class="BoundingBox" stroke="none" fill="none" x="6191" y="2019" width="1377" height="2022"/>
          <path fill="none" stroke="rgb(69,136,119)" stroke-width="82" stroke-linejoin="round" stroke-linecap="round" d="M 7525,3999 L 7525,2060 6232,2060"/>
         </g>
        </g>
        <g class="com.sun.star.drawing.OpenBezierShape">
         <g id="id12">
          <rect class="BoundingBox" stroke="none" fill="none" x="6042" y="2154" width="1376" height="2022"/>
          <path fill="none" stroke="rgb(69,136,119)" stroke-width="82" stroke-linejoin="round" stroke-linecap="round" d="M 7376,4134 C 7376,3488 7376,2841 7376,2195 6945,2195 6513,2195 6083,2195"/>
         </g>
        </g>
        <g class="com.sun.star.drawing.OpenBezierShape">
         <g id="id13">
          <rect class="BoundingBox" stroke="none" fill="none" x="6048" y="3025" width="1067" height="837"/>
          <path fill="none" stroke="rgb(203,113,134)" stroke-width="48" stroke-linejoin="round" stroke-linecap="round" d="M 6258,3837 C 6144,3744 6072,3602 6072,3442 6072,3283 6144,3142 6258,3049"/>
          <path fill="none" stroke="rgb(203,113,134)" stroke-width="48" stroke-linejoin="round" stroke-linecap="round" d="M 6904,3049 C 7018,3142 7090,3283 7090,3442 7090,3602 7018,3744 6904,3837"/>
         </g>
        </g>
        <g class="com.sun.star.drawing.ClosedBezierShape">
         <g id="id14">
          <rect class="BoundingBox" stroke="none" fill="none" x="4751" y="3166" width="182" height="283"/>
          <path fill="rgb(170,125,129)" stroke="none" d="M 4779,3169 C 4770,3169 4762,3174 4762,3186 L 4762,3291 C 4762,3303 4770,3308 4779,3308 L 4854,3308 C 4881,3308 4893,3322 4893,3347 L 4893,3371 C 4893,3396 4881,3410 4854,3410 L 4818,3410 C 4801,3410 4790,3403 4790,3387 4790,3377 4785,3368 4772,3368 4759,3368 4754,3377 4754,3387 4754,3428 4778,3445 4818,3445 L 4854,3445 C 4904,3445 4929,3416 4929,3371 L 4929,3347 C 4929,3302 4904,3274 4854,3274 L 4798,3274 4798,3203 4899,3203 C 4909,3203 4917,3198 4917,3186 4917,3174 4909,3169 4899,3169 L 4779,3169 Z"/>
          <path fill="none" stroke="rgb(170,125,129)" stroke-width="5" stroke-linejoin="miter" d="M 4779,3169 C 4770,3169 4762,3174 4762,3186 L 4762,3291 C 4762,3303 4770,3308 4779,3308 L 4854,3308 C 4881,3308 4893,3322 4893,3347 L 4893,3371 C 4893,3396 4881,3410 4854,3410 L 4818,3410 C 4801,3410 4790,3403 4790,3387 4790,3377 4785,3368 4772,3368 4759,3368 4754,3377 4754,3387 4754,3428 4778,3445 4818,3445 L 4854,3445 C 4904,3445 4929,3416 4929,3371 L 4929,3347 C 4929,3302 4904,3274 4854,3274 L 4798,3274 4798,3203 4899,3203 C 4909,3203 4917,3198 4917,3186 4917,3174 4909,3169 4899,3169 L 4779,3169 Z"/>
         </g>
        </g>
        <g class="com.sun.star.drawing.ClosedBezierShape">
         <g id="id15">
          <rect class="BoundingBox" stroke="none" fill="none" x="4674" y="3573" width="338" height="171"/>
          <path fill="rgb(203,113,134)" stroke="none" d="M 4836,3576 C 4826,3576 4823,3582 4823,3589 L 4823,3711 4777,3711 4777,3589 C 4777,3582 4773,3576 4763,3576 4753,3576 4750,3582 4750,3589 L 4750,3711 4704,3711 4704,3589 C 4704,3582 4700,3576 4690,3576 4680,3576 4677,3582 4677,3589 L 4677,3723 C 4677,3730 4680,3737 4690,3737 L 4836,3737 C 4847,3737 4851,3730 4851,3723 L 4851,3589 C 4851,3582 4847,3576 4836,3576 Z M 4836,3576 L 4836,3576 Z M 4994,3579 L 4894,3579 C 4887,3579 4881,3582 4881,3591 4881,3601 4887,3604 4894,3604 L 4931,3604 4931,3726 C 4931,3733 4934,3740 4944,3740 4954,3740 4958,3733 4958,3726 L 4958,3604 4994,3604 C 5001,3604 5008,3601 5008,3591 5008,3582 5001,3579 4994,3579 Z"/>
          <path fill="none" stroke="rgb(203,113,134)" stroke-width="5" stroke-linejoin="miter" d="M 4836,3576 C 4826,3576 4823,3582 4823,3589 L 4823,3711 4777,3711 4777,3589 C 4777,3582 4773,3576 4763,3576 4753,3576 4750,3582 4750,3589 L 4750,3711 4704,3711 4704,3589 C 4704,3582 4700,3576 4690,3576 4680,3576 4677,3582 4677,3589 L 4677,3723 C 4677,3730 4680,3737 4690,3737 L 4836,3737 C 4847,3737 4851,3730 4851,3723 L 4851,3589 C 4851,3582 4847,3576 4836,3576 Z"/>
          <path fill="none" stroke="rgb(203,113,134)" stroke-width="5" stroke-linejoin="miter" d="M 4994,3579 L 4894,3579 C 4887,3579 4881,3582 4881,3591 4881,3601 4887,3604 4894,3604 L 4931,3604 4931,3726 C 4931,3733 4934,3740 4944,3740 4954,3740 4958,3733 4958,3726 L 4958,3604 4994,3604 C 5001,3604 5008,3601 5008,3591 5008,3582 5001,3579 4994,3579 Z"/>
         </g>
        </g>
        <g class="com.sun.star.drawing.OpenBezierShape">
         <g id="id16">
          <rect class="BoundingBox" stroke="none" fill="none" x="4308" y="3025" width="1068" height="837"/>
          <path fill="none" stroke="rgb(203,113,134)" stroke-width="48" stroke-linejoin="round" stroke-linecap="round" d="M 4519,3837 C 4405,3744 4333,3602 4333,3442 4333,3283 4405,3142 4519,3049"/>
          <path fill="none" stroke="rgb(203,113,134)" stroke-width="48" stroke-linejoin="round" stroke-linecap="round" d="M 5165,3049 C 5279,3142 5351,3283 5351,3442 5351,3602 5279,3744 5165,3837"/>
         </g>
        </g>
        <g class="com.sun.star.drawing.ClosedBezierShape">
         <g id="id17">
          <rect class="BoundingBox" stroke="none" fill="none" x="2900" y="3160" width="387" height="286"/>
          <path fill="rgb(170,125,129)" stroke="none" d="M 2985,3163 C 2979,3163 2975,3165 2971,3169 2953,3190 2931,3210 2909,3231 2903,3238 2900,3246 2908,3255 2917,3263 2925,3260 2932,3255 2946,3243 2960,3228 2972,3214 L 2972,3403 2924,3403 C 2914,3403 2907,3408 2907,3421 2907,3433 2914,3438 2924,3438 L 3049,3438 C 3059,3438 3067,3433 3067,3421 3067,3408 3059,3403 3049,3403 L 3009,3403 3009,3181 C 3009,3171 3006,3163 2992,3163 L 2985,3163 Z M 2985,3163 L 2985,3163 Z M 3134,3166 C 3125,3166 3117,3171 3117,3184 L 3117,3288 C 3117,3300 3125,3306 3134,3306 L 3207,3306 C 3235,3306 3246,3320 3246,3345 L 3246,3369 C 3246,3393 3235,3407 3207,3407 L 3173,3407 C 3156,3407 3145,3400 3145,3384 3145,3374 3140,3366 3126,3366 3113,3366 3108,3374 3108,3384 3108,3425 3133,3442 3173,3442 L 3207,3442 C 3258,3442 3283,3413 3283,3369 L 3283,3345 C 3283,3299 3258,3270 3207,3270 L 3153,3270 3153,3201 3253,3201 C 3263,3201 3270,3196 3270,3184 3270,3171 3263,3166 3253,3166 L 3134,3166 Z"/>
          <path fill="none" stroke="rgb(170,125,129)" stroke-width="5" stroke-linejoin="miter" d="M 2985,3163 C 2979,3163 2975,3165 2971,3169 2953,3190 2931,3210 2909,3231 2903,3238 2900,3246 2908,3255 2917,3263 2925,3260 2932,3255 2946,3243 2960,3228 2972,3214 L 2972,3403 2924,3403 C 2914,3403 2907,3408 2907,3421 2907,3433 2914,3438 2924,3438 L 3049,3438 C 3059,3438 3067,3433 3067,3421 3067,3408 3059,3403 3049,3403 L 3009,3403 3009,3181 C 3009,3171 3006,3163 2992,3163 L 2985,3163 Z"/>
          <path fill="none" stroke="rgb(170,125,129)" stroke-width="5" stroke-linejoin="miter" d="M 3134,3166 C 3125,3166 3117,3171 3117,3184 L 3117,3288 C 3117,3300 3125,3306 3134,3306 L 3207,3306 C 3235,3306 3246,3320 3246,3345 L 3246,3369 C 3246,3393 3235,3407 3207,3407 L 3173,3407 C 3156,3407 3145,3400 3145,3384 3145,3374 3140,3366 3126,3366 3113,3366 3108,3374 3108,3384 3108,3425 3133,3442 3173,3442 L 3207,3442 C 3258,3442 3283,3413 3283,3369 L 3283,3345 C 3283,3299 3258,3270 3207,3270 L 3153,3270 3153,3201 3253,3201 C 3263,3201 3270,3196 3270,3184 3270,3171 3263,3166 3253,3166 L 3134,3166 Z"/>
         </g>
        </g>
        <g class="com.sun.star.drawing.ClosedBezierShape">
         <g id="id18">
          <rect class="BoundingBox" stroke="none" fill="none" x="2935" y="3573" width="338" height="171"/>
          <path fill="rgb(203,113,134)" stroke="none" d="M 3097,3576 C 3087,3576 3084,3582 3084,3589 L 3084,3711 3038,3711 3038,3589 C 3038,3582 3034,3576 3024,3576 3014,3576 3011,3582 3011,3589 L 3011,3711 2965,3711 2965,3589 C 2965,3582 2961,3576 2951,3576 2941,3576 2938,3582 2938,3589 L 2938,3723 C 2938,3730 2941,3737 2951,3737 L 3097,3737 C 3108,3737 3112,3730 3112,3723 L 3112,3589 C 3112,3582 3108,3576 3097,3576 Z M 3097,3576 L 3097,3576 Z M 3255,3579 L 3155,3579 C 3148,3579 3142,3582 3142,3591 3142,3601 3148,3604 3155,3604 L 3192,3604 3192,3726 C 3192,3733 3195,3740 3205,3740 3215,3740 3219,3733 3219,3726 L 3219,3604 3255,3604 C 3262,3604 3269,3601 3269,3591 3269,3582 3262,3579 3255,3579 Z"/>
          <path fill="none" stroke="rgb(203,113,134)" stroke-width="5" stroke-linejoin="miter" d="M 3097,3576 C 3087,3576 3084,3582 3084,3589 L 3084,3711 3038,3711 3038,3589 C 3038,3582 3034,3576 3024,3576 3014,3576 3011,3582 3011,3589 L 3011,3711 2965,3711 2965,3589 C 2965,3582 2961,3576 2951,3576 2941,3576 2938,3582 2938,3589 L 2938,3723 C 2938,3730 2941,3737 2951,3737 L 3097,3737 C 3108,3737 3112,3730 3112,3723 L 3112,3589 C 3112,3582 3108,3576 3097,3576 Z"/>
          <path fill="none" stroke="rgb(203,113,134)" stroke-width="5" stroke-linejoin="miter" d="M 3255,3579 L 3155,3579 C 3148,3579 3142,3582 3142,3591 3142,3601 3148,3604 3155,3604 L 3192,3604 3192,3726 C 3192,3733 3195,3740 3205,3740 3215,3740 3219,3733 3219,3726 L 3219,3604 3255,3604 C 3262,3604 3269,3601 3269,3591 3269,3582 3262,3579 3255,3579 Z"/>
         </g>
        </g>
        <g class="com.sun.star.drawing.OpenBezierShape">
         <g id="id19">
          <rect class="BoundingBox" stroke="none" fill="none" x="2570" y="3025" width="1068" height="837"/>
          <path fill="none" stroke="rgb(203,113,134)" stroke-width="48" stroke-linejoin="round" stroke-linecap="round" d="M 2781,3837 C 2667,3744 2595,3602 2595,3442 2595,3283 2667,3142 2781,3049"/>
          <path fill="none" stroke="rgb(203,113,134)" stroke-width="48" stroke-linejoin="round" stroke-linecap="round" d="M 3427,3049 C 3541,3142 3613,3283 3613,3442 3613,3602 3541,3744 3427,3837"/>
         </g>
        </g>
        <g class="com.sun.star.drawing.PolyPolygonShape">
         <g id="id20">
          <rect class="BoundingBox" stroke="none" fill="none" x="528" y="2290" width="1376" height="2022"/>
          <path fill="rgb(236,243,217)" stroke="none" d="M 569,4270 L 1862,4270 1862,2331 569,2331 569,4270 Z"/>
          <path fill="none" stroke="rgb(0,65,57)" stroke-width="82" stroke-linejoin="round" stroke-linecap="round" d="M 569,4270 L 1862,4270 1862,2331 569,2331 569,4270 Z"/>
         </g>
        </g>
        <g class="com.sun.star.drawing.PolyLineShape">
         <g id="id21">
          <rect class="BoundingBox" stroke="none" fill="none" x="826" y="2019" width="1376" height="2022"/>
          <path fill="none" stroke="rgb(69,136,119)" stroke-width="82" stroke-linejoin="round" stroke-linecap="round" d="M 2160,3999 L 2160,2060 867,2060"/>
         </g>
        </g>
        <g class="com.sun.star.drawing.OpenBezierShape">
         <g id="id22">
          <rect class="BoundingBox" stroke="none" fill="none" x="677" y="2154" width="1376" height="2022"/>
          <path fill="none" stroke="rgb(69,136,119)" stroke-width="82" stroke-linejoin="round" stroke-linecap="round" d="M 2011,4134 C 2011,3488 2011,2841 2011,2195 1580,2195 1148,2195 718,2195"/>
         </g>
        </g>
        <g class="com.sun.star.drawing.ClosedBezierShape">
         <g id="id23">
          <rect class="BoundingBox" stroke="none" fill="none" x="855" y="3153" width="498" height="290"/>
          <path fill="rgb(170,125,129)" stroke="none" d="M 939,3160 C 877,3197 858,3247 858,3308 L 858,3365 C 858,3411 883,3439 933,3439 L 955,3439 C 1006,3439 1031,3413 1031,3367 L 1031,3348 C 1031,3304 1006,3273 955,3273 L 897,3273 C 902,3241 920,3214 958,3191 967,3186 973,3176 965,3165 958,3155 947,3156 939,3160 Z M 939,3160 L 939,3160 Z M 933,3404 C 905,3404 894,3390 894,3365 L 894,3307 955,3307 C 983,3307 994,3323 994,3348 L 994,3367 C 994,3392 983,3404 955,3404 L 933,3404 Z M 933,3404 L 933,3404 Z M 1139,3257 C 1139,3217 1153,3194 1184,3194 L 1197,3194 C 1228,3194 1242,3217 1242,3257 L 1242,3341 C 1242,3381 1228,3404 1197,3404 L 1184,3404 C 1153,3404 1139,3381 1139,3341 L 1139,3257 Z M 1139,3257 L 1139,3257 Z M 1278,3257 C 1278,3197 1251,3159 1197,3159 L 1184,3159 C 1130,3159 1102,3197 1102,3257 L 1102,3341 C 1102,3401 1130,3439 1184,3439 L 1197,3439 C 1251,3439 1278,3401 1278,3341 L 1278,3257 Z M 1278,3257 L 1278,3257 Z M 1352,3257 L 1352,3257 Z"/>
          <path fill="none" stroke="rgb(170,125,129)" stroke-width="6" stroke-linejoin="miter" d="M 939,3160 C 877,3197 858,3247 858,3308 L 858,3365 C 858,3411 883,3439 933,3439 L 955,3439 C 1006,3439 1031,3413 1031,3367 L 1031,3348 C 1031,3304 1006,3273 955,3273 L 897,3273 C 902,3241 920,3214 958,3191 967,3186 973,3176 965,3165 958,3155 947,3156 939,3160 Z"/>
          <path fill="none" stroke="rgb(170,125,129)" stroke-width="6" stroke-linejoin="miter" d="M 933,3404 C 905,3404 894,3390 894,3365 L 894,3307 955,3307 C 983,3307 994,3323 994,3348 L 994,3367 C 994,3392 983,3404 955,3404 L 933,3404 Z"/>
          <path fill="none" stroke="rgb(170,125,129)" stroke-width="6" stroke-linejoin="miter" d="M 1139,3257 C 1139,3217 1153,3194 1184,3194 L 1197,3194 C 1228,3194 1242,3217 1242,3257 L 1242,3341 C 1242,3381 1228,3404 1197,3404 L 1184,3404 C 1153,3404 1139,3381 1139,3341 L 1139,3257 Z"/>
          <path fill="none" stroke="rgb(170,125,129)" stroke-width="6" stroke-linejoin="miter" d="M 1278,3257 C 1278,3197 1251,3159 1197,3159 L 1184,3159 C 1130,3159 1102,3197 1102,3257 L 1102,3341 C 1102,3401 1130,3439 1184,3439 L 1197,3439 C 1251,3439 1278,3401 1278,3341 L 1278,3257 Z"/>
         </g>
        </g>
        <g class="com.sun.star.drawing.ClosedBezierShape">
         <g id="id24">
          <rect class="BoundingBox" stroke="none" fill="none" x="1047" y="3573" width="338" height="171"/>
          <path fill="rgb(203,113,134)" stroke="none" d="M 1209,3576 C 1199,3576 1196,3582 1196,3589 L 1196,3711 1150,3711 1150,3589 C 1150,3582 1146,3576 1136,3576 1126,3576 1123,3582 1123,3589 L 1123,3711 1077,3711 1077,3589 C 1077,3582 1073,3576 1063,3576 1053,3576 1050,3582 1050,3589 L 1050,3723 C 1050,3730 1053,3737 1063,3737 L 1209,3737 C 1220,3737 1224,3730 1224,3723 L 1224,3589 C 1224,3582 1220,3576 1209,3576 Z M 1209,3576 L 1209,3576 Z M 1367,3579 L 1267,3579 C 1260,3579 1254,3582 1254,3591 1254,3601 1260,3604 1267,3604 L 1304,3604 1304,3726 C 1304,3733 1307,3740 1317,3740 1327,3740 1331,3733 1331,3726 L 1331,3604 1367,3604 C 1374,3604 1381,3601 1381,3591 1381,3582 1374,3579 1367,3579 Z"/>
          <path fill="none" stroke="rgb(203,113,134)" stroke-width="5" stroke-linejoin="miter" d="M 1209,3576 C 1199,3576 1196,3582 1196,3589 L 1196,3711 1150,3711 1150,3589 C 1150,3582 1146,3576 1136,3576 1126,3576 1123,3582 1123,3589 L 1123,3711 1077,3711 1077,3589 C 1077,3582 1073,3576 1063,3576 1053,3576 1050,3582 1050,3589 L 1050,3723 C 1050,3730 1053,3737 1063,3737 L 1209,3737 C 1220,3737 1224,3730 1224,3723 L 1224,3589 C 1224,3582 1220,3576 1209,3576 Z"/>
          <path fill="none" stroke="rgb(203,113,134)" stroke-width="5" stroke-linejoin="miter" d="M 1367,3579 L 1267,3579 C 1260,3579 1254,3582 1254,3591 1254,3601 1260,3604 1267,3604 L 1304,3604 1304,3726 C 1304,3733 1307,3740 1317,3740 1327,3740 1331,3733 1331,3726 L 1331,3604 1367,3604 C 1374,3604 1381,3601 1381,3591 1381,3582 1374,3579 1367,3579 Z"/>
         </g>
        </g>
        <g class="com.sun.star.drawing.OpenBezierShape">
         <g id="id25">
          <rect class="BoundingBox" stroke="none" fill="none" x="683" y="3025" width="1067" height="837"/>
          <path fill="none" stroke="rgb(203,113,134)" stroke-width="48" stroke-linejoin="round" stroke-linecap="round" d="M 893,3837 C 779,3744 707,3602 707,3442 707,3283 779,3142 893,3049"/>
          <path fill="none" stroke="rgb(203,113,134)" stroke-width="48" stroke-linejoin="round" stroke-linecap="round" d="M 1539,3049 C 1653,3142 1725,3283 1725,3442 1725,3602 1653,3744 1539,3837"/>
         </g>
        </g>
        <g class="com.sun.star.drawing.ClosedBezierShape">
         <g id="id26">
          <rect class="BoundingBox" stroke="none" fill="none" x="692" y="2723" width="1047" height="170"/>
          <path fill="rgb(69,136,119)" stroke="none" d="M 734,2789 L 713,2789 713,2746 760,2746 C 766,2746 770,2743 770,2735 770,2728 766,2725 760,2725 L 702,2725 C 695,2725 692,2729 692,2735 L 692,2878 C 692,2883 695,2888 702,2888 L 734,2888 C 764,2888 777,2873 777,2847 L 777,2833 C 777,2808 764,2789 734,2789 Z M 734,2789 L 734,2789 Z M 756,2847 C 756,2861 750,2868 734,2868 L 713,2868 713,2810 734,2810 C 750,2810 756,2819 756,2833 L 756,2847 Z M 756,2847 L 756,2847 Z M 888,2723 L 886,2723 C 855,2723 843,2749 843,2774 L 843,2791 824,2791 824,2733 C 824,2728 822,2723 814,2723 806,2723 803,2728 803,2733 L 803,2880 C 803,2886 806,2891 814,2891 821,2891 824,2886 824,2880 L 824,2813 843,2813 843,2848 C 843,2874 856,2891 886,2891 L 888,2891 C 918,2891 931,2871 931,2845 L 931,2768 C 931,2742 918,2723 888,2723 Z M 888,2723 L 888,2723 Z M 909,2845 C 909,2860 904,2870 888,2870 L 886,2870 C 870,2870 865,2862 865,2848 L 865,2774 C 865,2760 869,2743 886,2743 L 888,2743 C 904,2743 909,2753 909,2768 L 909,2845 Z M 909,2845 L 909,2845 Z M 991,2859 C 991,2854 998,2746 998,2746 L 1031,2746 1031,2880 C 1031,2886 1034,2891 1042,2891 1049,2891 1053,2886 1053,2880 L 1053,2736 C 1053,2730 1049,2725 1042,2725 L 989,2725 C 981,2725 978,2730 978,2736 978,2736 970,2851 970,2854 970,2857 970,2861 968,2864 966,2868 963,2871 957,2871 951,2871 946,2874 946,2881 946,2889 951,2892 957,2892 973,2892 983,2885 988,2874 989,2869 990,2864 991,2859 Z M 991,2859 L 991,2859 Z M 1115,2859 C 1115,2854 1122,2746 1122,2746 L 1155,2746 1155,2880 C 1155,2886 1158,2891 1166,2891 1174,2891 1177,2886 1177,2880 L 1177,2736 C 1177,2730 1174,2725 1166,2725 L 1113,2725 C 1105,2725 1102,2730 1102,2736 1102,2736 1094,2851 1094,2854 1094,2857 1094,2861 1092,2864 1090,2868 1087,2871 1081,2871 1075,2871 1070,2874 1070,2881 1070,2889 1075,2892 1081,2892 1097,2892 1107,2885 1112,2874 1113,2869 1115,2864 1115,2859 Z M 1115,2859 L 1115,2859 Z M 1283,2888 C 1288,2888 1293,2885 1293,2878 1293,2871 1288,2868 1283,2868 L 1233,2868 1233,2815 1273,2815 C 1278,2815 1283,2812 1283,2804 1283,2797 1278,2793 1273,2793 L 1233,2793 1233,2746 1283,2746 C 1288,2746 1293,2743 1293,2735 1293,2728 1288,2725 1283,2725 L 1222,2725 C 1213,2725 1210,2730 1210,2736 L 1210,2878 C 1210,2883 1213,2888 1222,2888 L 1283,2888 Z M 1283,2888 L 1283,2888 Z M 1341,2880 C 1341,2886 1344,2891 1352,2891 1359,2891 1362,2886 1362,2880 L 1362,2746 1389,2746 C 1395,2746 1400,2743 1400,2735 1400,2728 1395,2725 1389,2725 L 1314,2725 C 1309,2725 1304,2728 1304,2735 1304,2743 1309,2746 1314,2746 L 1341,2746 1341,2880 Z M 1341,2880 L 1341,2880 Z M 1491,2888 C 1496,2888 1501,2885 1501,2878 1501,2871 1496,2868 1491,2868 L 1441,2868 1441,2815 1481,2815 C 1486,2815 1491,2812 1491,2804 1491,2797 1486,2793 1481,2793 L 1441,2793 1441,2746 1491,2746 C 1496,2746 1501,2743 1501,2735 1501,2728 1496,2725 1491,2725 L 1430,2725 C 1423,2725 1420,2730 1420,2736 L 1420,2878 C 1420,2883 1423,2888 1430,2888 L 1491,2888 Z M 1491,2888 L 1491,2888 Z M 1616,2733 C 1616,2728 1613,2723 1605,2723 1598,2723 1595,2728 1595,2733 L 1595,2791 1547,2791 1547,2733 C 1547,2728 1544,2723 1536,2723 1529,2723 1526,2728 1526,2733 L 1526,2880 C 1526,2886 1529,2891 1536,2891 1544,2891 1547,2886 1547,2880 L 1547,2813 1595,2813 1595,2880 C 1595,2886 1598,2891 1605,2891 1613,2891 1616,2886 1616,2880 L 1616,2733 Z M 1616,2733 L 1616,2733 Z M 1695,2788 L 1672,2788 1672,2733 C 1672,2728 1668,2723 1661,2723 1653,2723 1650,2728 1650,2733 L 1650,2878 C 1650,2883 1653,2888 1660,2888 L 1695,2888 C 1725,2888 1738,2873 1738,2847 L 1738,2833 C 1738,2806 1725,2788 1695,2788 Z M 1695,2788 L 1695,2788 Z M 1672,2810 L 1695,2810 C 1711,2810 1717,2819 1717,2833 L 1717,2847 C 1717,2861 1711,2868 1695,2868 L 1672,2868 1672,2810 Z"/>
         </g>
        </g>
        <g class="com.sun.star.drawing.ClosedBezierShape">
         <g id="id27">
          <rect class="BoundingBox" stroke="none" fill="none" x="4319" y="2723" width="1047" height="170"/>
          <path fill="rgb(69,136,119)" stroke="none" d="M 4361,2789 L 4340,2789 4340,2746 4387,2746 C 4393,2746 4397,2743 4397,2735 4397,2728 4393,2725 4387,2725 L 4329,2725 C 4322,2725 4319,2729 4319,2735 L 4319,2878 C 4319,2883 4322,2888 4329,2888 L 4361,2888 C 4391,2888 4404,2873 4404,2847 L 4404,2833 C 4404,2808 4391,2789 4361,2789 Z M 4361,2789 L 4361,2789 Z M 4383,2847 C 4383,2861 4377,2868 4361,2868 L 4340,2868 4340,2810 4361,2810 C 4377,2810 4383,2819 4383,2833 L 4383,2847 Z M 4383,2847 L 4383,2847 Z M 4515,2723 L 4513,2723 C 4482,2723 4470,2749 4470,2774 L 4470,2791 4451,2791 4451,2733 C 4451,2728 4449,2723 4441,2723 4433,2723 4430,2728 4430,2733 L 4430,2880 C 4430,2886 4433,2891 4441,2891 4448,2891 4451,2886 4451,2880 L 4451,2813 4470,2813 4470,2848 C 4470,2874 4483,2891 4513,2891 L 4515,2891 C 4545,2891 4558,2871 4558,2845 L 4558,2768 C 4558,2742 4545,2723 4515,2723 Z M 4515,2723 L 4515,2723 Z M 4536,2845 C 4536,2860 4531,2870 4515,2870 L 4513,2870 C 4497,2870 4492,2862 4492,2848 L 4492,2774 C 4492,2760 4496,2743 4513,2743 L 4515,2743 C 4531,2743 4536,2753 4536,2768 L 4536,2845 Z M 4536,2845 L 4536,2845 Z M 4618,2859 C 4618,2854 4625,2746 4625,2746 L 4658,2746 4658,2880 C 4658,2886 4661,2891 4669,2891 4676,2891 4680,2886 4680,2880 L 4680,2736 C 4680,2730 4676,2725 4669,2725 L 4616,2725 C 4608,2725 4605,2730 4605,2736 4605,2736 4597,2851 4597,2854 4597,2857 4597,2861 4595,2864 4593,2868 4590,2871 4584,2871 4578,2871 4573,2874 4573,2881 4573,2889 4578,2892 4584,2892 4600,2892 4610,2885 4615,2874 4616,2869 4617,2864 4618,2859 Z M 4618,2859 L 4618,2859 Z M 4742,2859 C 4742,2854 4749,2746 4749,2746 L 4782,2746 4782,2880 C 4782,2886 4785,2891 4793,2891 4801,2891 4804,2886 4804,2880 L 4804,2736 C 4804,2730 4801,2725 4793,2725 L 4740,2725 C 4732,2725 4729,2730 4729,2736 4729,2736 4721,2851 4721,2854 4721,2857 4721,2861 4719,2864 4717,2868 4714,2871 4708,2871 4702,2871 4697,2874 4697,2881 4697,2889 4702,2892 4708,2892 4724,2892 4734,2885 4739,2874 4740,2869 4742,2864 4742,2859 Z M 4742,2859 L 4742,2859 Z M 4910,2888 C 4915,2888 4920,2885 4920,2878 4920,2871 4915,2868 4910,2868 L 4860,2868 4860,2815 4900,2815 C 4905,2815 4910,2812 4910,2804 4910,2797 4905,2793 4900,2793 L 4860,2793 4860,2746 4910,2746 C 4915,2746 4920,2743 4920,2735 4920,2728 4915,2725 4910,2725 L 4849,2725 C 4840,2725 4837,2730 4837,2736 L 4837,2878 C 4837,2883 4840,2888 4849,2888 L 4910,2888 Z M 4910,2888 L 4910,2888 Z M 4968,2880 C 4968,2886 4971,2891 4979,2891 4986,2891 4989,2886 4989,2880 L 4989,2746 5016,2746 C 5022,2746 5027,2743 5027,2735 5027,2728 5022,2725 5016,2725 L 4941,2725 C 4936,2725 4931,2728 4931,2735 4931,2743 4936,2746 4941,2746 L 4968,2746 4968,2880 Z M 4968,2880 L 4968,2880 Z M 5118,2888 C 5123,2888 5128,2885 5128,2878 5128,2871 5123,2868 5118,2868 L 5068,2868 5068,2815 5108,2815 C 5113,2815 5118,2812 5118,2804 5118,2797 5113,2793 5108,2793 L 5068,2793 5068,2746 5118,2746 C 5123,2746 5128,2743 5128,2735 5128,2728 5123,2725 5118,2725 L 5057,2725 C 5050,2725 5047,2730 5047,2736 L 5047,2878 C 5047,2883 5050,2888 5057,2888 L 5118,2888 Z M 5118,2888 L 5118,2888 Z M 5243,2733 C 5243,2728 5240,2723 5232,2723 5225,2723 5222,2728 5222,2733 L 5222,2791 5174,2791 5174,2733 C 5174,2728 5171,2723 5163,2723 5156,2723 5153,2728 5153,2733 L 5153,2880 C 5153,2886 5156,2891 5163,2891 5171,2891 5174,2886 5174,2880 L 5174,2813 5222,2813 5222,2880 C 5222,2886 5225,2891 5232,2891 5240,2891 5243,2886 5243,2880 L 5243,2733 Z M 5243,2733 L 5243,2733 Z M 5322,2788 L 5299,2788 5299,2733 C 5299,2728 5295,2723 5288,2723 5280,2723 5277,2728 5277,2733 L 5277,2878 C 5277,2883 5280,2888 5287,2888 L 5322,2888 C 5352,2888 5365,2873 5365,2847 L 5365,2833 C 5365,2806 5352,2788 5322,2788 Z M 5322,2788 L 5322,2788 Z M 5299,2810 L 5322,2810 C 5338,2810 5344,2819 5344,2833 L 5344,2847 C 5344,2861 5338,2868 5322,2868 L 5299,2868 5299,2810 Z"/>
         </g>
        </g>
        <g class="com.sun.star.drawing.ClosedBezierShape">
         <g id="id28">
          <rect class="BoundingBox" stroke="none" fill="none" x="6058" y="2723" width="1047" height="170"/>
          <path fill="rgb(69,136,119)" stroke="none" d="M 6100,2789 L 6079,2789 6079,2746 6126,2746 C 6132,2746 6136,2743 6136,2735 6136,2728 6132,2725 6126,2725 L 6068,2725 C 6061,2725 6058,2729 6058,2735 L 6058,2878 C 6058,2883 6061,2888 6068,2888 L 6100,2888 C 6130,2888 6143,2873 6143,2847 L 6143,2833 C 6143,2808 6130,2789 6100,2789 Z M 6100,2789 L 6100,2789 Z M 6122,2847 C 6122,2861 6116,2868 6100,2868 L 6079,2868 6079,2810 6100,2810 C 6116,2810 6122,2819 6122,2833 L 6122,2847 Z M 6122,2847 L 6122,2847 Z M 6254,2723 L 6252,2723 C 6221,2723 6209,2749 6209,2774 L 6209,2791 6190,2791 6190,2733 C 6190,2728 6188,2723 6180,2723 6172,2723 6169,2728 6169,2733 L 6169,2880 C 6169,2886 6172,2891 6180,2891 6187,2891 6190,2886 6190,2880 L 6190,2813 6209,2813 6209,2848 C 6209,2874 6222,2891 6252,2891 L 6254,2891 C 6284,2891 6297,2871 6297,2845 L 6297,2768 C 6297,2742 6284,2723 6254,2723 Z M 6254,2723 L 6254,2723 Z M 6275,2845 C 6275,2860 6270,2870 6254,2870 L 6252,2870 C 6236,2870 6231,2862 6231,2848 L 6231,2774 C 6231,2760 6235,2743 6252,2743 L 6254,2743 C 6270,2743 6275,2753 6275,2768 L 6275,2845 Z M 6275,2845 L 6275,2845 Z M 6357,2859 C 6357,2854 6364,2746 6364,2746 L 6397,2746 6397,2880 C 6397,2886 6400,2891 6408,2891 6415,2891 6419,2886 6419,2880 L 6419,2736 C 6419,2730 6415,2725 6408,2725 L 6355,2725 C 6347,2725 6344,2730 6344,2736 6344,2736 6336,2851 6336,2854 6336,2857 6336,2861 6334,2864 6332,2868 6329,2871 6323,2871 6317,2871 6312,2874 6312,2881 6312,2889 6317,2892 6323,2892 6339,2892 6349,2885 6354,2874 6355,2869 6356,2864 6357,2859 Z M 6357,2859 L 6357,2859 Z M 6481,2859 C 6481,2854 6488,2746 6488,2746 L 6521,2746 6521,2880 C 6521,2886 6524,2891 6532,2891 6540,2891 6543,2886 6543,2880 L 6543,2736 C 6543,2730 6540,2725 6532,2725 L 6479,2725 C 6471,2725 6468,2730 6468,2736 6468,2736 6460,2851 6460,2854 6460,2857 6460,2861 6458,2864 6456,2868 6453,2871 6447,2871 6441,2871 6436,2874 6436,2881 6436,2889 6441,2892 6447,2892 6463,2892 6473,2885 6478,2874 6479,2869 6481,2864 6481,2859 Z M 6481,2859 L 6481,2859 Z M 6649,2888 C 6654,2888 6659,2885 6659,2878 6659,2871 6654,2868 6649,2868 L 6599,2868 6599,2815 6639,2815 C 6644,2815 6649,2812 6649,2804 6649,2797 6644,2793 6639,2793 L 6599,2793 6599,2746 6649,2746 C 6654,2746 6659,2743 6659,2735 6659,2728 6654,2725 6649,2725 L 6588,2725 C 6579,2725 6576,2730 6576,2736 L 6576,2878 C 6576,2883 6579,2888 6588,2888 L 6649,2888 Z M 6649,2888 L 6649,2888 Z M 6707,2880 C 6707,2886 6710,2891 6718,2891 6725,2891 6728,2886 6728,2880 L 6728,2746 6755,2746 C 6761,2746 6766,2743 6766,2735 6766,2728 6761,2725 6755,2725 L 6680,2725 C 6675,2725 6670,2728 6670,2735 6670,2743 6675,2746 6680,2746 L 6707,2746 6707,2880 Z M 6707,2880 L 6707,2880 Z M 6857,2888 C 6862,2888 6867,2885 6867,2878 6867,2871 6862,2868 6857,2868 L 6807,2868 6807,2815 6847,2815 C 6852,2815 6857,2812 6857,2804 6857,2797 6852,2793 6847,2793 L 6807,2793 6807,2746 6857,2746 C 6862,2746 6867,2743 6867,2735 6867,2728 6862,2725 6857,2725 L 6796,2725 C 6789,2725 6786,2730 6786,2736 L 6786,2878 C 6786,2883 6789,2888 6796,2888 L 6857,2888 Z M 6857,2888 L 6857,2888 Z M 6982,2733 C 6982,2728 6979,2723 6971,2723 6964,2723 6961,2728 6961,2733 L 6961,2791 6913,2791 6913,2733 C 6913,2728 6910,2723 6902,2723 6895,2723 6892,2728 6892,2733 L 6892,2880 C 6892,2886 6895,2891 6902,2891 6910,2891 6913,2886 6913,2880 L 6913,2813 6961,2813 6961,2880 C 6961,2886 6964,2891 6971,2891 6979,2891 6982,2886 6982,2880 L 6982,2733 Z M 6982,2733 L 6982,2733 Z M 7061,2788 L 7038,2788 7038,2733 C 7038,2728 7034,2723 7027,2723 7019,2723 7016,2728 7016,2733 L 7016,2878 C 7016,2883 7019,2888 7026,2888 L 7061,2888 C 7091,2888 7104,2873 7104,2847 L 7104,2833 C 7104,2806 7091,2788 7061,2788 Z M 7061,2788 L 7061,2788 Z M 7038,2810 L 7061,2810 C 7077,2810 7083,2819 7083,2833 L 7083,2847 C 7083,2861 7077,2868 7061,2868 L 7038,2868 7038,2810 Z"/>
         </g>
        </g>
        <g class="com.sun.star.drawing.ClosedBezierShape">
         <g id="id29">
          <rect class="BoundingBox" stroke="none" fill="none" x="2580" y="2723" width="1047" height="170"/>
          <path fill="rgb(69,136,119)" stroke="none" d="M 2622,2789 L 2601,2789 2601,2746 2648,2746 C 2654,2746 2658,2743 2658,2735 2658,2728 2654,2725 2648,2725 L 2590,2725 C 2583,2725 2580,2729 2580,2735 L 2580,2878 C 2580,2883 2583,2888 2590,2888 L 2622,2888 C 2652,2888 2665,2873 2665,2847 L 2665,2833 C 2665,2808 2652,2789 2622,2789 Z M 2622,2789 L 2622,2789 Z M 2644,2847 C 2644,2861 2638,2868 2622,2868 L 2601,2868 2601,2810 2622,2810 C 2638,2810 2644,2819 2644,2833 L 2644,2847 Z M 2644,2847 L 2644,2847 Z M 2776,2723 L 2774,2723 C 2743,2723 2731,2749 2731,2774 L 2731,2791 2712,2791 2712,2733 C 2712,2728 2710,2723 2702,2723 2694,2723 2691,2728 2691,2733 L 2691,2880 C 2691,2886 2694,2891 2702,2891 2709,2891 2712,2886 2712,2880 L 2712,2813 2731,2813 2731,2848 C 2731,2874 2744,2891 2774,2891 L 2776,2891 C 2806,2891 2819,2871 2819,2845 L 2819,2768 C 2819,2742 2806,2723 2776,2723 Z M 2776,2723 L 2776,2723 Z M 2797,2845 C 2797,2860 2792,2870 2776,2870 L 2774,2870 C 2758,2870 2753,2862 2753,2848 L 2753,2774 C 2753,2760 2757,2743 2774,2743 L 2776,2743 C 2792,2743 2797,2753 2797,2768 L 2797,2845 Z M 2797,2845 L 2797,2845 Z M 2879,2859 C 2879,2854 2886,2746 2886,2746 L 2919,2746 2919,2880 C 2919,2886 2922,2891 2930,2891 2937,2891 2941,2886 2941,2880 L 2941,2736 C 2941,2730 2937,2725 2930,2725 L 2877,2725 C 2869,2725 2866,2730 2866,2736 2866,2736 2858,2851 2858,2854 2858,2857 2858,2861 2856,2864 2854,2868 2851,2871 2845,2871 2839,2871 2834,2874 2834,2881 2834,2889 2839,2892 2845,2892 2861,2892 2871,2885 2876,2874 2877,2869 2878,2864 2879,2859 Z M 2879,2859 L 2879,2859 Z M 3003,2859 C 3003,2854 3010,2746 3010,2746 L 3043,2746 3043,2880 C 3043,2886 3046,2891 3054,2891 3062,2891 3065,2886 3065,2880 L 3065,2736 C 3065,2730 3062,2725 3054,2725 L 3001,2725 C 2993,2725 2990,2730 2990,2736 2990,2736 2982,2851 2982,2854 2982,2857 2982,2861 2980,2864 2978,2868 2975,2871 2969,2871 2963,2871 2958,2874 2958,2881 2958,2889 2963,2892 2969,2892 2985,2892 2995,2885 3000,2874 3001,2869 3003,2864 3003,2859 Z M 3003,2859 L 3003,2859 Z M 3171,2888 C 3176,2888 3181,2885 3181,2878 3181,2871 3176,2868 3171,2868 L 3121,2868 3121,2815 3161,2815 C 3166,2815 3171,2812 3171,2804 3171,2797 3166,2793 3161,2793 L 3121,2793 3121,2746 3171,2746 C 3176,2746 3181,2743 3181,2735 3181,2728 3176,2725 3171,2725 L 3110,2725 C 3101,2725 3098,2730 3098,2736 L 3098,2878 C 3098,2883 3101,2888 3110,2888 L 3171,2888 Z M 3171,2888 L 3171,2888 Z M 3229,2880 C 3229,2886 3232,2891 3240,2891 3247,2891 3250,2886 3250,2880 L 3250,2746 3277,2746 C 3283,2746 3288,2743 3288,2735 3288,2728 3283,2725 3277,2725 L 3202,2725 C 3197,2725 3192,2728 3192,2735 3192,2743 3197,2746 3202,2746 L 3229,2746 3229,2880 Z M 3229,2880 L 3229,2880 Z M 3379,2888 C 3384,2888 3389,2885 3389,2878 3389,2871 3384,2868 3379,2868 L 3329,2868 3329,2815 3369,2815 C 3374,2815 3379,2812 3379,2804 3379,2797 3374,2793 3369,2793 L 3329,2793 3329,2746 3379,2746 C 3384,2746 3389,2743 3389,2735 3389,2728 3384,2725 3379,2725 L 3318,2725 C 3311,2725 3308,2730 3308,2736 L 3308,2878 C 3308,2883 3311,2888 3318,2888 L 3379,2888 Z M 3379,2888 L 3379,2888 Z M 3504,2733 C 3504,2728 3501,2723 3493,2723 3486,2723 3483,2728 3483,2733 L 3483,2791 3435,2791 3435,2733 C 3435,2728 3432,2723 3424,2723 3417,2723 3414,2728 3414,2733 L 3414,2880 C 3414,2886 3417,2891 3424,2891 3432,2891 3435,2886 3435,2880 L 3435,2813 3483,2813 3483,2880 C 3483,2886 3486,2891 3493,2891 3501,2891 3504,2886 3504,2880 L 3504,2733 Z M 3504,2733 L 3504,2733 Z M 3583,2788 L 3560,2788 3560,2733 C 3560,2728 3556,2723 3549,2723 3541,2723 3538,2728 3538,2733 L 3538,2878 C 3538,2883 3541,2888 3548,2888 L 3583,2888 C 3613,2888 3626,2873 3626,2847 L 3626,2833 C 3626,2806 3613,2788 3583,2788 Z M 3583,2788 L 3583,2788 Z M 3560,2810 L 3583,2810 C 3599,2810 3605,2819 3605,2833 L 3605,2847 C 3605,2861 3599,2868 3583,2868 L 3560,2868 3560,2810 Z"/>
         </g>
        </g>
        <g class="com.sun.star.drawing.PolyPolygonShape">
         <g id="id30">
          <rect class="BoundingBox" stroke="none" fill="none" x="9371" y="2290" width="1377" height="2022"/>
          <path fill="rgb(236,243,217)" stroke="none" d="M 9412,4270 L 10705,4270 10705,2331 9412,2331 9412,4270 Z"/>
          <path fill="none" stroke="rgb(0,65,57)" stroke-width="82" stroke-linejoin="round" stroke-linecap="round" d="M 9412,4270 L 10705,4270 10705,2331 9412,2331 9412,4270 Z"/>
         </g>
        </g>
        <g class="com.sun.star.drawing.PolyPolygonShape">
         <g id="id31">
          <rect class="BoundingBox" stroke="none" fill="none" x="7632" y="2290" width="1377" height="2022"/>
          <path fill="rgb(236,243,217)" stroke="none" d="M 7673,4270 L 8966,4270 8966,2331 7673,2331 7673,4270 Z"/>
          <path fill="none" stroke="rgb(0,65,57)" stroke-width="82" stroke-linejoin="round" stroke-linecap="round" d="M 7673,4270 L 8966,4270 8966,2331 7673,2331 7673,4270 Z"/>
         </g>
        </g>
        <g class="com.sun.star.drawing.OpenBezierShape">
         <g id="id32">
          <rect class="BoundingBox" stroke="none" fill="none" x="7781" y="2154" width="1376" height="2022"/>
          <path fill="none" stroke="rgb(69,136,119)" stroke-width="82" stroke-linejoin="round" stroke-linecap="round" d="M 9115,4134 C 9115,3488 9115,2841 9115,2195 8684,2195 8252,2195 7822,2195"/>
         </g>
        </g>
        <g class="com.sun.star.drawing.ClosedBezierShape">
         <g id="id33">
          <rect class="BoundingBox" stroke="none" fill="none" x="9727" y="3163" width="615" height="286"/>
          <path fill="rgb(170,125,129)" stroke="none" d="M 9912,3359 C 9912,3327 9899,3301 9869,3292 9888,3282 9899,3265 9899,3240 L 9899,3235 C 9899,3190 9873,3166 9822,3166 L 9802,3166 C 9762,3166 9737,3183 9737,3224 9737,3234 9742,3242 9755,3242 9769,3242 9774,3234 9774,3224 9774,3207 9785,3200 9802,3200 L 9822,3200 C 9850,3200 9861,3211 9861,3235 L 9861,3240 C 9861,3264 9847,3282 9819,3282 L 9797,3282 C 9788,3282 9780,3286 9780,3299 9780,3312 9788,3317 9797,3317 L 9837,3317 C 9864,3317 9875,3334 9875,3359 L 9875,3372 C 9875,3396 9863,3410 9835,3410 L 9794,3410 C 9777,3410 9766,3403 9766,3387 9766,3377 9761,3369 9748,3369 9735,3369 9730,3377 9730,3387 9730,3428 9754,3445 9794,3445 L 9835,3445 C 9887,3445 9912,3416 9912,3372 L 9912,3359 Z M 9912,3359 L 9912,3359 Z M 9989,3376 C 9989,3358 9996,3344 10009,3338 L 10080,3306 C 10115,3290 10122,3263 10122,3236 L 10122,3235 C 10122,3190 10097,3166 10047,3166 L 10023,3166 C 9983,3166 9959,3183 9959,3224 9959,3234 9964,3242 9977,3242 9990,3242 9995,3234 9995,3224 9995,3207 10006,3200 10023,3200 L 10047,3200 C 10074,3200 10086,3211 10086,3235 L 10086,3236 C 10086,3254 10080,3266 10065,3273 L 9999,3302 C 9968,3316 9953,3346 9953,3379 L 9953,3441 10108,3441 C 10118,3441 10126,3436 10126,3424 10126,3411 10118,3406 10108,3406 L 9989,3406 9989,3376 Z M 9989,3376 L 9989,3376 Z M 10218,3427 C 10218,3437 10223,3445 10237,3445 10250,3445 10255,3437 10255,3427 L 10255,3394 C 10255,3339 10266,3306 10293,3261 L 10333,3196 C 10343,3181 10336,3169 10318,3169 L 10173,3169 C 10163,3169 10156,3174 10156,3187 10156,3199 10163,3204 10173,3204 L 10288,3204 10263,3242 C 10228,3295 10218,3332 10218,3394 L 10218,3427 Z"/>
          <path fill="none" stroke="rgb(170,125,129)" stroke-width="5" stroke-linejoin="miter" d="M 9912,3359 C 9912,3327 9899,3301 9869,3292 9888,3282 9899,3265 9899,3240 L 9899,3235 C 9899,3190 9873,3166 9822,3166 L 9802,3166 C 9762,3166 9737,3183 9737,3224 9737,3234 9742,3242 9755,3242 9769,3242 9774,3234 9774,3224 9774,3207 9785,3200 9802,3200 L 9822,3200 C 9850,3200 9861,3211 9861,3235 L 9861,3240 C 9861,3264 9847,3282 9819,3282 L 9797,3282 C 9788,3282 9780,3286 9780,3299 9780,3312 9788,3317 9797,3317 L 9837,3317 C 9864,3317 9875,3334 9875,3359 L 9875,3372 C 9875,3396 9863,3410 9835,3410 L 9794,3410 C 9777,3410 9766,3403 9766,3387 9766,3377 9761,3369 9748,3369 9735,3369 9730,3377 9730,3387 9730,3428 9754,3445 9794,3445 L 9835,3445 C 9887,3445 9912,3416 9912,3372 L 9912,3359 Z"/>
          <path fill="none" stroke="rgb(170,125,129)" stroke-width="5" stroke-linejoin="miter" d="M 9989,3376 C 9989,3358 9996,3344 10009,3338 L 10080,3306 C 10115,3290 10122,3263 10122,3236 L 10122,3235 C 10122,3190 10097,3166 10047,3166 L 10023,3166 C 9983,3166 9959,3183 9959,3224 9959,3234 9964,3242 9977,3242 9990,3242 9995,3234 9995,3224 9995,3207 10006,3200 10023,3200 L 10047,3200 C 10074,3200 10086,3211 10086,3235 L 10086,3236 C 10086,3254 10080,3266 10065,3273 L 9999,3302 C 9968,3316 9953,3346 9953,3379 L 9953,3441 10108,3441 C 10118,3441 10126,3436 10126,3424 10126,3411 10118,3406 10108,3406 L 9989,3406 9989,3376 Z"/>
          <path fill="none" stroke="rgb(170,125,129)" stroke-width="5" stroke-linejoin="miter" d="M 10218,3427 C 10218,3437 10223,3445 10237,3445 10250,3445 10255,3437 10255,3427 L 10255,3394 C 10255,3339 10266,3306 10293,3261 L 10333,3196 C 10343,3181 10336,3169 10318,3169 L 10173,3169 C 10163,3169 10156,3174 10156,3187 10156,3199 10163,3204 10173,3204 L 10288,3204 10263,3242 C 10228,3295 10218,3332 10218,3394 L 10218,3427 Z"/>
         </g>
        </g>
        <g class="com.sun.star.drawing.ClosedBezierShape">
         <g id="id34">
          <rect class="BoundingBox" stroke="none" fill="none" x="9890" y="3573" width="338" height="171"/>
          <path fill="rgb(203,113,134)" stroke="none" d="M 10052,3576 C 10042,3576 10039,3582 10039,3589 L 10039,3711 9993,3711 9993,3589 C 9993,3582 9989,3576 9979,3576 9969,3576 9966,3582 9966,3589 L 9966,3711 9920,3711 9920,3589 C 9920,3582 9916,3576 9906,3576 9896,3576 9893,3582 9893,3589 L 9893,3723 C 9893,3730 9896,3737 9906,3737 L 10052,3737 C 10063,3737 10067,3730 10067,3723 L 10067,3589 C 10067,3582 10063,3576 10052,3576 Z M 10052,3576 L 10052,3576 Z M 10210,3579 L 10110,3579 C 10103,3579 10097,3582 10097,3591 10097,3601 10103,3604 10110,3604 L 10147,3604 10147,3726 C 10147,3733 10150,3740 10160,3740 10170,3740 10174,3733 10174,3726 L 10174,3604 10210,3604 C 10217,3604 10224,3601 10224,3591 10224,3582 10217,3579 10210,3579 Z"/>
          <path fill="none" stroke="rgb(203,113,134)" stroke-width="5" stroke-linejoin="miter" d="M 10052,3576 C 10042,3576 10039,3582 10039,3589 L 10039,3711 9993,3711 9993,3589 C 9993,3582 9989,3576 9979,3576 9969,3576 9966,3582 9966,3589 L 9966,3711 9920,3711 9920,3589 C 9920,3582 9916,3576 9906,3576 9896,3576 9893,3582 9893,3589 L 9893,3723 C 9893,3730 9896,3737 9906,3737 L 10052,3737 C 10063,3737 10067,3730 10067,3723 L 10067,3589 C 10067,3582 10063,3576 10052,3576 Z"/>
          <path fill="none" stroke="rgb(203,113,134)" stroke-width="5" stroke-linejoin="miter" d="M 10210,3579 L 10110,3579 C 10103,3579 10097,3582 10097,3591 10097,3601 10103,3604 10110,3604 L 10147,3604 10147,3726 C 10147,3733 10150,3740 10160,3740 10170,3740 10174,3733 10174,3726 L 10174,3604 10210,3604 C 10217,3604 10224,3601 10224,3591 10224,3582 10217,3579 10210,3579 Z"/>
         </g>
        </g>
        <g class="com.sun.star.drawing.PolyLineShape">
         <g id="id35">
          <rect class="BoundingBox" stroke="none" fill="none" x="9669" y="2019" width="1376" height="2022"/>
          <path fill="none" stroke="rgb(69,136,119)" stroke-width="82" stroke-linejoin="round" stroke-linecap="round" d="M 11003,3999 L 11003,2060 9710,2060"/>
         </g>
        </g>
        <g class="com.sun.star.drawing.OpenBezierShape">
         <g id="id36">
          <rect class="BoundingBox" stroke="none" fill="none" x="9520" y="2154" width="1376" height="2022"/>
          <path fill="none" stroke="rgb(69,136,119)" stroke-width="82" stroke-linejoin="round" stroke-linecap="round" d="M 10854,4134 C 10854,3488 10854,2841 10854,2195 10423,2195 9991,2195 9561,2195"/>
         </g>
        </g>
        <g class="com.sun.star.drawing.OpenBezierShape">
         <g id="id37">
          <rect class="BoundingBox" stroke="none" fill="none" x="9525" y="3025" width="1068" height="837"/>
          <path fill="none" stroke="rgb(203,113,134)" stroke-width="48" stroke-linejoin="round" stroke-linecap="round" d="M 9736,3837 C 9622,3744 9550,3602 9550,3442 9550,3283 9622,3142 9736,3049"/>
          <path fill="none" stroke="rgb(203,113,134)" stroke-width="48" stroke-linejoin="round" stroke-linecap="round" d="M 10382,3049 C 10496,3142 10568,3283 10568,3442 10568,3602 10496,3744 10382,3837"/>
         </g>
        </g>
        <g class="com.sun.star.drawing.ClosedBezierShape">
         <g id="id38">
          <rect class="BoundingBox" stroke="none" fill="none" x="8103" y="3156" width="404" height="293"/>
          <path fill="rgb(170,125,129)" stroke="none" d="M 8232,3427 C 8232,3437 8236,3445 8249,3445 8263,3445 8267,3437 8267,3427 L 8267,3364 8287,3364 C 8297,3364 8305,3359 8305,3347 8305,3334 8297,3329 8287,3329 L 8267,3329 8267,3253 C 8267,3243 8263,3235 8249,3235 8236,3235 8232,3243 8232,3253 L 8232,3329 8148,3329 C 8167,3284 8183,3230 8191,3182 8193,3172 8192,3162 8180,3159 8168,3157 8160,3162 8158,3172 8146,3234 8128,3287 8108,3334 8106,3339 8106,3343 8106,3347 8106,3360 8113,3364 8123,3364 L 8232,3364 8232,3427 Z M 8232,3427 L 8232,3427 Z M 8364,3263 C 8364,3224 8378,3200 8409,3200 L 8422,3200 C 8453,3200 8467,3224 8467,3263 L 8467,3348 C 8467,3387 8453,3410 8422,3410 L 8409,3410 C 8378,3410 8364,3387 8364,3348 L 8364,3263 Z M 8364,3263 L 8364,3263 Z M 8503,3263 C 8503,3203 8476,3166 8422,3166 L 8409,3166 C 8355,3166 8327,3203 8327,3263 L 8327,3348 C 8327,3407 8355,3445 8409,3445 L 8422,3445 C 8476,3445 8503,3407 8503,3348 L 8503,3263 Z"/>
          <path fill="none" stroke="rgb(170,125,129)" stroke-width="5" stroke-linejoin="miter" d="M 8232,3427 C 8232,3437 8236,3445 8249,3445 8263,3445 8267,3437 8267,3427 L 8267,3364 8287,3364 C 8297,3364 8305,3359 8305,3347 8305,3334 8297,3329 8287,3329 L 8267,3329 8267,3253 C 8267,3243 8263,3235 8249,3235 8236,3235 8232,3243 8232,3253 L 8232,3329 8148,3329 C 8167,3284 8183,3230 8191,3182 8193,3172 8192,3162 8180,3159 8168,3157 8160,3162 8158,3172 8146,3234 8128,3287 8108,3334 8106,3339 8106,3343 8106,3347 8106,3360 8113,3364 8123,3364 L 8232,3364 8232,3427 Z"/>
          <path fill="none" stroke="rgb(170,125,129)" stroke-width="5" stroke-linejoin="miter" d="M 8364,3263 C 8364,3224 8378,3200 8409,3200 L 8422,3200 C 8453,3200 8467,3224 8467,3263 L 8467,3348 C 8467,3387 8453,3410 8422,3410 L 8409,3410 C 8378,3410 8364,3387 8364,3348 L 8364,3263 Z"/>
          <path fill="none" stroke="rgb(170,125,129)" stroke-width="5" stroke-linejoin="miter" d="M 8503,3263 C 8503,3203 8476,3166 8422,3166 L 8409,3166 C 8355,3166 8327,3203 8327,3263 L 8327,3348 C 8327,3407 8355,3445 8409,3445 L 8422,3445 C 8476,3445 8503,3407 8503,3348 L 8503,3263 Z"/>
         </g>
        </g>
        <g class="com.sun.star.drawing.ClosedBezierShape">
         <g id="id39">
          <rect class="BoundingBox" stroke="none" fill="none" x="8151" y="3573" width="338" height="171"/>
          <path fill="rgb(203,113,134)" stroke="none" d="M 8313,3576 C 8303,3576 8300,3582 8300,3589 L 8300,3711 8254,3711 8254,3589 C 8254,3582 8250,3576 8240,3576 8230,3576 8227,3582 8227,3589 L 8227,3711 8181,3711 8181,3589 C 8181,3582 8177,3576 8167,3576 8157,3576 8154,3582 8154,3589 L 8154,3723 C 8154,3730 8157,3737 8167,3737 L 8313,3737 C 8324,3737 8328,3730 8328,3723 L 8328,3589 C 8328,3582 8324,3576 8313,3576 Z M 8313,3576 L 8313,3576 Z M 8471,3579 L 8371,3579 C 8364,3579 8358,3582 8358,3591 8358,3601 8364,3604 8371,3604 L 8408,3604 8408,3726 C 8408,3733 8411,3740 8421,3740 8431,3740 8435,3733 8435,3726 L 8435,3604 8471,3604 C 8478,3604 8485,3601 8485,3591 8485,3582 8478,3579 8471,3579 Z"/>
          <path fill="none" stroke="rgb(203,113,134)" stroke-width="5" stroke-linejoin="miter" d="M 8313,3576 C 8303,3576 8300,3582 8300,3589 L 8300,3711 8254,3711 8254,3589 C 8254,3582 8250,3576 8240,3576 8230,3576 8227,3582 8227,3589 L 8227,3711 8181,3711 8181,3589 C 8181,3582 8177,3576 8167,3576 8157,3576 8154,3582 8154,3589 L 8154,3723 C 8154,3730 8157,3737 8167,3737 L 8313,3737 C 8324,3737 8328,3730 8328,3723 L 8328,3589 C 8328,3582 8324,3576 8313,3576 Z"/>
          <path fill="none" stroke="rgb(203,113,134)" stroke-width="5" stroke-linejoin="miter" d="M 8471,3579 L 8371,3579 C 8364,3579 8358,3582 8358,3591 8358,3601 8364,3604 8371,3604 L 8408,3604 8408,3726 C 8408,3733 8411,3740 8421,3740 8431,3740 8435,3733 8435,3726 L 8435,3604 8471,3604 C 8478,3604 8485,3601 8485,3591 8485,3582 8478,3579 8471,3579 Z"/>
         </g>
        </g>
        <g class="com.sun.star.drawing.OpenBezierShape">
         <g id="id40">
          <rect class="BoundingBox" stroke="none" fill="none" x="7787" y="3025" width="1067" height="837"/>
          <path fill="none" stroke="rgb(203,113,134)" stroke-width="48" stroke-linejoin="round" stroke-linecap="round" d="M 7997,3837 C 7883,3744 7811,3602 7811,3442 7811,3283 7883,3142 7997,3049"/>
          <path fill="none" stroke="rgb(203,113,134)" stroke-width="48" stroke-linejoin="round" stroke-linecap="round" d="M 8643,3049 C 8757,3142 8829,3283 8829,3442 8829,3602 8757,3744 8643,3837"/>
         </g>
        </g>
        <g class="com.sun.star.drawing.ClosedBezierShape">
         <g id="id41">
          <rect class="BoundingBox" stroke="none" fill="none" x="7796" y="2723" width="1048" height="170"/>
          <path fill="rgb(69,136,119)" stroke="none" d="M 7839,2789 L 7818,2789 7818,2746 7865,2746 C 7871,2746 7875,2743 7875,2735 7875,2728 7871,2725 7865,2725 L 7807,2725 C 7800,2725 7797,2729 7797,2735 L 7797,2878 C 7797,2883 7800,2888 7807,2888 L 7839,2888 C 7869,2888 7882,2873 7882,2847 L 7882,2833 C 7882,2808 7869,2789 7839,2789 Z M 7839,2789 L 7839,2789 Z M 7861,2847 C 7861,2861 7855,2868 7839,2868 L 7818,2868 7818,2810 7839,2810 C 7855,2810 7861,2819 7861,2833 L 7861,2847 Z M 7861,2847 L 7861,2847 Z M 7993,2723 L 7991,2723 C 7960,2723 7948,2749 7948,2774 L 7948,2791 7929,2791 7929,2733 C 7929,2728 7927,2723 7919,2723 7911,2723 7908,2728 7908,2733 L 7908,2880 C 7908,2886 7911,2891 7919,2891 7926,2891 7929,2886 7929,2880 L 7929,2813 7948,2813 7948,2848 C 7948,2874 7961,2891 7991,2891 L 7993,2891 C 8023,2891 8036,2871 8036,2845 L 8036,2768 C 8036,2742 8023,2723 7993,2723 Z M 7993,2723 L 7993,2723 Z M 8014,2845 C 8014,2860 8009,2870 7993,2870 L 7991,2870 C 7975,2870 7970,2862 7970,2848 L 7970,2774 C 7970,2760 7974,2743 7991,2743 L 7993,2743 C 8009,2743 8014,2753 8014,2768 L 8014,2845 Z M 8014,2845 L 8014,2845 Z M 8096,2859 C 8096,2854 8103,2746 8103,2746 L 8136,2746 8136,2880 C 8136,2886 8139,2891 8147,2891 8154,2891 8158,2886 8158,2880 L 8158,2736 C 8158,2730 8154,2725 8147,2725 L 8094,2725 C 8086,2725 8083,2730 8083,2736 8083,2736 8075,2851 8075,2854 8075,2857 8075,2861 8073,2864 8071,2868 8068,2871 8062,2871 8056,2871 8051,2874 8051,2881 8051,2889 8056,2892 8062,2892 8078,2892 8088,2885 8093,2874 8094,2869 8095,2864 8096,2859 Z M 8096,2859 L 8096,2859 Z M 8220,2859 C 8220,2854 8227,2746 8227,2746 L 8260,2746 8260,2880 C 8260,2886 8263,2891 8271,2891 8279,2891 8282,2886 8282,2880 L 8282,2736 C 8282,2730 8279,2725 8271,2725 L 8218,2725 C 8210,2725 8207,2730 8207,2736 8207,2736 8199,2851 8199,2854 8199,2857 8199,2861 8197,2864 8195,2868 8192,2871 8186,2871 8180,2871 8175,2874 8175,2881 8175,2889 8180,2892 8186,2892 8202,2892 8212,2885 8217,2874 8218,2869 8220,2864 8220,2859 Z M 8220,2859 L 8220,2859 Z M 8388,2888 C 8393,2888 8398,2885 8398,2878 8398,2871 8393,2868 8388,2868 L 8338,2868 8338,2815 8378,2815 C 8383,2815 8388,2812 8388,2804 8388,2797 8383,2793 8378,2793 L 8338,2793 8338,2746 8388,2746 C 8393,2746 8398,2743 8398,2735 8398,2728 8393,2725 8388,2725 L 8327,2725 C 8318,2725 8315,2730 8315,2736 L 8315,2878 C 8315,2883 8318,2888 8327,2888 L 8388,2888 Z M 8388,2888 L 8388,2888 Z M 8446,2880 C 8446,2886 8449,2891 8457,2891 8464,2891 8467,2886 8467,2880 L 8467,2746 8494,2746 C 8500,2746 8505,2743 8505,2735 8505,2728 8500,2725 8494,2725 L 8419,2725 C 8414,2725 8409,2728 8409,2735 8409,2743 8414,2746 8419,2746 L 8446,2746 8446,2880 Z M 8446,2880 L 8446,2880 Z M 8596,2888 C 8601,2888 8606,2885 8606,2878 8606,2871 8601,2868 8596,2868 L 8546,2868 8546,2815 8586,2815 C 8591,2815 8596,2812 8596,2804 8596,2797 8591,2793 8586,2793 L 8546,2793 8546,2746 8596,2746 C 8601,2746 8606,2743 8606,2735 8606,2728 8601,2725 8596,2725 L 8535,2725 C 8528,2725 8525,2730 8525,2736 L 8525,2878 C 8525,2883 8528,2888 8535,2888 L 8596,2888 Z M 8596,2888 L 8596,2888 Z M 8721,2733 C 8721,2728 8718,2723 8710,2723 8703,2723 8700,2728 8700,2733 L 8700,2791 8652,2791 8652,2733 C 8652,2728 8649,2723 8641,2723 8634,2723 8631,2728 8631,2733 L 8631,2880 C 8631,2886 8634,2891 8641,2891 8649,2891 8652,2886 8652,2880 L 8652,2813 8700,2813 8700,2880 C 8700,2886 8703,2891 8710,2891 8718,2891 8721,2886 8721,2880 L 8721,2733 Z M 8721,2733 L 8721,2733 Z M 8800,2788 L 8777,2788 8777,2733 C 8777,2728 8773,2723 8766,2723 8758,2723 8755,2728 8755,2733 L 8755,2878 C 8755,2883 8758,2888 8765,2888 L 8800,2888 C 8830,2888 8843,2873 8843,2847 L 8843,2833 C 8843,2806 8830,2788 8800,2788 Z M 8800,2788 L 8800,2788 Z M 8777,2810 L 8800,2810 C 8816,2810 8822,2819 8822,2833 L 8822,2847 C 8822,2861 8816,2868 8800,2868 L 8777,2868 8777,2810 Z"/>
         </g>
        </g>
        <g class="com.sun.star.drawing.ClosedBezierShape">
         <g id="id42">
          <rect class="BoundingBox" stroke="none" fill="none" x="9535" y="2723" width="1047" height="170"/>
          <path fill="rgb(69,136,119)" stroke="none" d="M 9577,2789 L 9556,2789 9556,2746 9603,2746 C 9609,2746 9613,2743 9613,2735 9613,2728 9609,2725 9603,2725 L 9545,2725 C 9538,2725 9535,2729 9535,2735 L 9535,2878 C 9535,2883 9538,2888 9545,2888 L 9577,2888 C 9607,2888 9620,2873 9620,2847 L 9620,2833 C 9620,2808 9607,2789 9577,2789 Z M 9577,2789 L 9577,2789 Z M 9599,2847 C 9599,2861 9593,2868 9577,2868 L 9556,2868 9556,2810 9577,2810 C 9593,2810 9599,2819 9599,2833 L 9599,2847 Z M 9599,2847 L 9599,2847 Z M 9731,2723 L 9729,2723 C 9698,2723 9686,2749 9686,2774 L 9686,2791 9667,2791 9667,2733 C 9667,2728 9665,2723 9657,2723 9649,2723 9646,2728 9646,2733 L 9646,2880 C 9646,2886 9649,2891 9657,2891 9664,2891 9667,2886 9667,2880 L 9667,2813 9686,2813 9686,2848 C 9686,2874 9699,2891 9729,2891 L 9731,2891 C 9761,2891 9774,2871 9774,2845 L 9774,2768 C 9774,2742 9761,2723 9731,2723 Z M 9731,2723 L 9731,2723 Z M 9752,2845 C 9752,2860 9747,2870 9731,2870 L 9729,2870 C 9713,2870 9708,2862 9708,2848 L 9708,2774 C 9708,2760 9712,2743 9729,2743 L 9731,2743 C 9747,2743 9752,2753 9752,2768 L 9752,2845 Z M 9752,2845 L 9752,2845 Z M 9834,2859 C 9834,2854 9841,2746 9841,2746 L 9874,2746 9874,2880 C 9874,2886 9877,2891 9885,2891 9892,2891 9896,2886 9896,2880 L 9896,2736 C 9896,2730 9892,2725 9885,2725 L 9832,2725 C 9824,2725 9821,2730 9821,2736 9821,2736 9813,2851 9813,2854 9813,2857 9813,2861 9811,2864 9809,2868 9806,2871 9800,2871 9794,2871 9789,2874 9789,2881 9789,2889 9794,2892 9800,2892 9816,2892 9826,2885 9831,2874 9832,2869 9833,2864 9834,2859 Z M 9834,2859 L 9834,2859 Z M 9958,2859 C 9958,2854 9965,2746 9965,2746 L 9998,2746 9998,2880 C 9998,2886 10001,2891 10009,2891 10017,2891 10020,2886 10020,2880 L 10020,2736 C 10020,2730 10017,2725 10009,2725 L 9956,2725 C 9948,2725 9945,2730 9945,2736 9945,2736 9937,2851 9937,2854 9937,2857 9937,2861 9935,2864 9933,2868 9930,2871 9924,2871 9918,2871 9913,2874 9913,2881 9913,2889 9918,2892 9924,2892 9940,2892 9950,2885 9955,2874 9956,2869 9958,2864 9958,2859 Z M 9958,2859 L 9958,2859 Z M 10126,2888 C 10131,2888 10136,2885 10136,2878 10136,2871 10131,2868 10126,2868 L 10076,2868 10076,2815 10116,2815 C 10121,2815 10126,2812 10126,2804 10126,2797 10121,2793 10116,2793 L 10076,2793 10076,2746 10126,2746 C 10131,2746 10136,2743 10136,2735 10136,2728 10131,2725 10126,2725 L 10065,2725 C 10056,2725 10053,2730 10053,2736 L 10053,2878 C 10053,2883 10056,2888 10065,2888 L 10126,2888 Z M 10126,2888 L 10126,2888 Z M 10184,2880 C 10184,2886 10187,2891 10195,2891 10202,2891 10205,2886 10205,2880 L 10205,2746 10232,2746 C 10238,2746 10243,2743 10243,2735 10243,2728 10238,2725 10232,2725 L 10157,2725 C 10152,2725 10147,2728 10147,2735 10147,2743 10152,2746 10157,2746 L 10184,2746 10184,2880 Z M 10184,2880 L 10184,2880 Z M 10334,2888 C 10339,2888 10344,2885 10344,2878 10344,2871 10339,2868 10334,2868 L 10284,2868 10284,2815 10324,2815 C 10329,2815 10334,2812 10334,2804 10334,2797 10329,2793 10324,2793 L 10284,2793 10284,2746 10334,2746 C 10339,2746 10344,2743 10344,2735 10344,2728 10339,2725 10334,2725 L 10273,2725 C 10266,2725 10263,2730 10263,2736 L 10263,2878 C 10263,2883 10266,2888 10273,2888 L 10334,2888 Z M 10334,2888 L 10334,2888 Z M 10459,2733 C 10459,2728 10456,2723 10448,2723 10441,2723 10438,2728 10438,2733 L 10438,2791 10390,2791 10390,2733 C 10390,2728 10387,2723 10379,2723 10372,2723 10369,2728 10369,2733 L 10369,2880 C 10369,2886 10372,2891 10379,2891 10387,2891 10390,2886 10390,2880 L 10390,2813 10438,2813 10438,2880 C 10438,2886 10441,2891 10448,2891 10456,2891 10459,2886 10459,2880 L 10459,2733 Z M 10459,2733 L 10459,2733 Z M 10538,2788 L 10515,2788 10515,2733 C 10515,2728 10511,2723 10504,2723 10496,2723 10493,2728 10493,2733 L 10493,2878 C 10493,2883 10496,2888 10503,2888 L 10538,2888 C 10568,2888 10581,2873 10581,2847 L 10581,2833 C 10581,2806 10568,2788 10538,2788 Z M 10538,2788 L 10538,2788 Z M 10515,2810 L 10538,2810 C 10554,2810 10560,2819 10560,2833 L 10560,2847 C 10560,2861 10554,2868 10538,2868 L 10515,2868 10515,2810 Z"/>
         </g>
        </g>
        <g class="com.sun.star.drawing.ClosedBezierShape">
         <g id="id43">
          <rect class="BoundingBox" stroke="none" fill="none" x="1179" y="4658" width="300" height="472"/>
          <path fill="rgb(203,113,134)" stroke="none" d="M 1243,5016 C 1243,4985 1254,4961 1276,4952 L 1397,4897 C 1456,4871 1469,4825 1469,4781 L 1469,4778 C 1469,4702 1426,4661 1341,4661 L 1300,4661 C 1233,4661 1191,4689 1191,4758 1191,4775 1200,4790 1222,4790 1244,4790 1253,4775 1253,4758 1253,4731 1272,4719 1300,4719 L 1341,4719 C 1388,4719 1407,4737 1407,4778 L 1407,4781 C 1407,4812 1397,4831 1371,4842 L 1259,4892 C 1206,4914 1182,4964 1182,5022 L 1182,5126 1445,5126 C 1461,5126 1475,5118 1475,5097 1475,5076 1461,5068 1445,5068 L 1243,5068 1243,5016 Z"/>
          <path fill="none" stroke="rgb(203,113,134)" stroke-width="5" stroke-linejoin="miter" d="M 1243,5016 C 1243,4985 1254,4961 1276,4952 L 1397,4897 C 1456,4871 1469,4825 1469,4781 L 1469,4778 C 1469,4702 1426,4661 1341,4661 L 1300,4661 C 1233,4661 1191,4689 1191,4758 1191,4775 1200,4790 1222,4790 1244,4790 1253,4775 1253,4758 1253,4731 1272,4719 1300,4719 L 1341,4719 C 1388,4719 1407,4737 1407,4778 L 1407,4781 C 1407,4812 1397,4831 1371,4842 L 1259,4892 C 1206,4914 1182,4964 1182,5022 L 1182,5126 1445,5126 C 1461,5126 1475,5118 1475,5097 1475,5076 1461,5068 1445,5068 L 1243,5068 1243,5016 Z"/>
         </g>
        </g>
        <g class="com.sun.star.drawing.ClosedBezierShape">
         <g id="id44">
          <rect class="BoundingBox" stroke="none" fill="none" x="2153" y="4799" width="299" height="195"/>
          <path fill="rgb(203,113,134)" stroke="none" d="M 2419,4859 C 2436,4859 2448,4851 2448,4830 2448,4809 2436,4802 2419,4802 L 2184,4802 C 2168,4802 2156,4809 2156,4830 2156,4851 2168,4859 2184,4859 L 2419,4859 Z M 2419,4859 L 2419,4859 Z M 2419,4990 C 2436,4990 2448,4982 2448,4962 2448,4941 2436,4933 2419,4933 L 2184,4933 C 2168,4933 2156,4941 2156,4962 2156,4982 2168,4990 2184,4990 L 2419,4990 Z"/>
          <path fill="none" stroke="rgb(203,113,134)" stroke-width="5" stroke-linejoin="miter" d="M 2419,4859 C 2436,4859 2448,4851 2448,4830 2448,4809 2436,4802 2419,4802 L 2184,4802 C 2168,4802 2156,4809 2156,4830 2156,4851 2168,4859 2184,4859 L 2419,4859 Z"/>
          <path fill="none" stroke="rgb(203,113,134)" stroke-width="5" stroke-linejoin="miter" d="M 2419,4990 C 2436,4990 2448,4982 2448,4962 2448,4941 2436,4933 2419,4933 L 2184,4933 C 2168,4933 2156,4941 2156,4962 2156,4982 2168,4990 2184,4990 L 2419,4990 Z"/>
         </g>
        </g>
        <g class="com.sun.star.drawing.ClosedBezierShape">
         <g id="id45">
          <rect class="BoundingBox" stroke="none" fill="none" x="3046" y="4658" width="314" height="478"/>
          <path fill="rgb(203,113,134)" stroke="none" d="M 3356,4987 C 3356,4933 3334,4890 3285,4875 3316,4857 3334,4828 3334,4786 L 3334,4777 C 3334,4702 3291,4661 3206,4661 L 3171,4661 C 3103,4661 3062,4689 3062,4758 3062,4775 3070,4789 3092,4789 3114,4789 3123,4775 3123,4758 3123,4731 3142,4719 3171,4719 L 3206,4719 C 3253,4719 3272,4737 3272,4777 L 3272,4786 C 3272,4827 3248,4856 3200,4856 L 3163,4856 C 3146,4856 3133,4864 3133,4885 3133,4907 3146,4915 3163,4915 L 3230,4915 C 3277,4915 3294,4945 3294,4987 L 3294,5008 C 3294,5050 3275,5073 3228,5073 L 3158,5073 C 3129,5073 3110,5061 3110,5034 3110,5017 3101,5003 3079,5003 3057,5003 3049,5017 3049,5034 3049,5103 3090,5132 3158,5132 L 3228,5132 C 3313,5132 3356,5083 3356,5008 L 3356,4987 Z"/>
          <path fill="none" stroke="rgb(203,113,134)" stroke-width="5" stroke-linejoin="miter" d="M 3356,4987 C 3356,4933 3334,4890 3285,4875 3316,4857 3334,4828 3334,4786 L 3334,4777 C 3334,4702 3291,4661 3206,4661 L 3171,4661 C 3103,4661 3062,4689 3062,4758 3062,4775 3070,4789 3092,4789 3114,4789 3123,4775 3123,4758 3123,4731 3142,4719 3171,4719 L 3206,4719 C 3253,4719 3272,4737 3272,4777 L 3272,4786 C 3272,4827 3248,4856 3200,4856 L 3163,4856 C 3146,4856 3133,4864 3133,4885 3133,4907 3146,4915 3163,4915 L 3230,4915 C 3277,4915 3294,4945 3294,4987 L 3294,5008 C 3294,5050 3275,5073 3228,5073 L 3158,5073 C 3129,5073 3110,5061 3110,5034 3110,5017 3101,5003 3079,5003 3057,5003 3049,5017 3049,5034 3049,5103 3090,5132 3158,5132 L 3228,5132 C 3313,5132 3356,5083 3356,5008 L 3356,4987 Z"/>
         </g>
        </g>
        <g class="com.sun.star.drawing.ClosedBezierShape">
         <g id="id46">
          <rect class="BoundingBox" stroke="none" fill="none" x="4018" y="4862" width="312" height="64"/>
          <path fill="rgb(203,113,134)" stroke="none" d="M 4298,4922 C 4314,4922 4326,4914 4326,4894 4326,4872 4314,4865 4298,4865 L 4049,4865 C 4033,4865 4021,4872 4021,4894 4021,4914 4033,4922 4049,4922 L 4298,4922 Z"/>
          <path fill="none" stroke="rgb(203,113,134)" stroke-width="5" stroke-linejoin="miter" d="M 4298,4922 C 4314,4922 4326,4914 4326,4894 4326,4872 4314,4865 4298,4865 L 4049,4865 C 4033,4865 4021,4872 4021,4894 4021,4914 4033,4922 4049,4922 L 4298,4922 Z"/>
         </g>
        </g>
        <g class="com.sun.star.drawing.ClosedBezierShape">
         <g id="id47">
          <rect class="BoundingBox" stroke="none" fill="none" x="4884" y="4646" width="344" height="490"/>
          <path fill="rgb(203,113,134)" stroke="none" d="M 5100,5101 C 5100,5118 5108,5132 5131,5132 5154,5132 5162,5118 5162,5101 L 5162,4995 5195,4995 C 5211,4995 5224,4987 5224,4966 5224,4945 5211,4936 5195,4936 L 5162,4936 5162,4809 C 5162,4792 5154,4778 5131,4778 5108,4778 5100,4792 5100,4809 L 5100,4936 4958,4936 C 4991,4861 5019,4769 5033,4688 5035,4672 5034,4655 5013,4650 4993,4646 4979,4654 4976,4671 4955,4776 4924,4865 4890,4944 4887,4953 4887,4959 4887,4966 4887,4987 4900,4995 4916,4995 L 5100,4995 5100,5101 Z"/>
          <path fill="none" stroke="rgb(203,113,134)" stroke-width="5" stroke-linejoin="miter" d="M 5100,5101 C 5100,5118 5108,5132 5131,5132 5154,5132 5162,5118 5162,5101 L 5162,4995 5195,4995 C 5211,4995 5224,4987 5224,4966 5224,4945 5211,4936 5195,4936 L 5162,4936 5162,4809 C 5162,4792 5154,4778 5131,4778 5108,4778 5100,4792 5100,4809 L 5100,4936 4958,4936 C 4991,4861 5019,4769 5033,4688 5035,4672 5034,4655 5013,4650 4993,4646 4979,4654 4976,4671 4955,4776 4924,4865 4890,4944 4887,4953 4887,4959 4887,4966 4887,4987 4900,4995 4916,4995 L 5100,4995 5100,5101 Z"/>
         </g>
        </g>
        <g class="com.sun.star.drawing.ClosedBezierShape">
         <g id="id48">
          <rect class="BoundingBox" stroke="none" fill="none" x="5750" y="4722" width="338" height="351"/>
          <path fill="rgb(203,113,134)" stroke="none" d="M 5946,4753 C 5946,4737 5938,4725 5919,4725 5899,4725 5890,4737 5890,4753 L 5890,4869 5781,4869 C 5765,4869 5753,4876 5753,4897 5753,4917 5765,4925 5781,4925 L 5890,4925 5890,5041 C 5890,5057 5898,5069 5918,5069 5938,5069 5946,5057 5946,5041 L 5946,4925 6056,4925 C 6072,4925 6084,4917 6084,4897 6084,4876 6072,4869 6056,4869 L 5946,4869 5946,4753 Z"/>
          <path fill="none" stroke="rgb(203,113,134)" stroke-width="5" stroke-linejoin="miter" d="M 5946,4753 C 5946,4737 5938,4725 5919,4725 5899,4725 5890,4737 5890,4753 L 5890,4869 5781,4869 C 5765,4869 5753,4876 5753,4897 5753,4917 5765,4925 5781,4925 L 5890,4925 5890,5041 C 5890,5057 5898,5069 5918,5069 5938,5069 5946,5057 5946,5041 L 5946,4925 6056,4925 C 6072,4925 6084,4917 6084,4897 6084,4876 6072,4869 6056,4869 L 5946,4869 5946,4753 Z"/>
         </g>
        </g>
        <g class="com.sun.star.drawing.ClosedBezierShape">
         <g id="id49">
          <rect class="BoundingBox" stroke="none" fill="none" x="6656" y="4664" width="303" height="472"/>
          <path fill="rgb(203,113,134)" stroke="none" d="M 6702,4667 C 6686,4667 6673,4675 6673,4696 L 6673,4873 C 6673,4894 6686,4902 6702,4902 L 6827,4902 C 6873,4902 6894,4926 6894,4967 L 6894,5008 C 6894,5050 6873,5074 6827,5074 L 6769,5074 C 6740,5074 6720,5062 6720,5034 6720,5017 6711,5003 6689,5003 6667,5003 6659,5017 6659,5034 6659,5104 6700,5132 6769,5132 L 6827,5132 C 6913,5132 6955,5084 6955,5008 L 6955,4967 C 6955,4892 6913,4843 6827,4843 L 6735,4843 6735,4725 6905,4725 C 6921,4725 6934,4717 6934,4696 6934,4675 6921,4667 6905,4667 L 6702,4667 Z"/>
          <path fill="none" stroke="rgb(203,113,134)" stroke-width="5" stroke-linejoin="miter" d="M 6702,4667 C 6686,4667 6673,4675 6673,4696 L 6673,4873 C 6673,4894 6686,4902 6702,4902 L 6827,4902 C 6873,4902 6894,4926 6894,4967 L 6894,5008 C 6894,5050 6873,5074 6827,5074 L 6769,5074 C 6740,5074 6720,5062 6720,5034 6720,5017 6711,5003 6689,5003 6667,5003 6659,5017 6659,5034 6659,5104 6700,5132 6769,5132 L 6827,5132 C 6913,5132 6955,5084 6955,5008 L 6955,4967 C 6955,4892 6913,4843 6827,4843 L 6735,4843 6735,4725 6905,4725 C 6921,4725 6934,4717 6934,4696 6934,4675 6921,4667 6905,4667 L 6702,4667 Z"/>
         </g>
        </g>
        <g class="com.sun.star.drawing.ClosedBezierShape">
         <g id="id50">
          <rect class="BoundingBox" stroke="none" fill="none" x="7403" y="4722" width="338" height="351"/>
          <path fill="rgb(203,113,134)" stroke="none" d="M 7599,4753 C 7599,4737 7591,4725 7572,4725 7552,4725 7543,4737 7543,4753 L 7543,4869 7434,4869 C 7418,4869 7406,4876 7406,4897 7406,4917 7418,4925 7434,4925 L 7543,4925 7543,5041 C 7543,5057 7551,5069 7571,5069 7591,5069 7599,5057 7599,5041 L 7599,4925 7709,4925 C 7725,4925 7737,4917 7737,4897 7737,4876 7725,4869 7709,4869 L 7599,4869 7599,4753 Z"/>
          <path fill="none" stroke="rgb(203,113,134)" stroke-width="5" stroke-linejoin="miter" d="M 7599,4753 C 7599,4737 7591,4725 7572,4725 7552,4725 7543,4737 7543,4753 L 7543,4869 7434,4869 C 7418,4869 7406,4876 7406,4897 7406,4917 7418,4925 7434,4925 L 7543,4925 7543,5041 C 7543,5057 7551,5069 7571,5069 7591,5069 7599,5057 7599,5041 L 7599,4925 7709,4925 C 7725,4925 7737,4917 7737,4897 7737,4876 7725,4869 7709,4869 L 7599,4869 7599,4753 Z"/>
         </g>
        </g>
        <g class="com.sun.star.drawing.ClosedBezierShape">
         <g id="id51">
          <rect class="BoundingBox" stroke="none" fill="none" x="8314" y="4654" width="301" height="482"/>
          <path fill="rgb(203,113,134)" stroke="none" d="M 8455,4663 C 8350,4725 8317,4808 8317,4912 L 8317,5008 C 8317,5083 8359,5132 8445,5132 L 8483,5132 C 8569,5132 8611,5087 8611,5012 L 8611,4979 C 8611,4904 8569,4851 8483,4851 L 8382,4851 C 8393,4798 8423,4754 8488,4715 8502,4706 8512,4690 8500,4671 8488,4654 8469,4655 8455,4663 Z M 8455,4663 L 8455,4663 Z M 8445,5073 C 8399,5073 8378,5049 8378,5008 L 8378,4911 8483,4911 C 8529,4911 8550,4937 8550,4979 L 8550,5012 C 8550,5053 8529,5073 8483,5073 L 8445,5073 Z"/>
          <path fill="none" stroke="rgb(203,113,134)" stroke-width="5" stroke-linejoin="miter" d="M 8455,4663 C 8350,4725 8317,4808 8317,4912 L 8317,5008 C 8317,5083 8359,5132 8445,5132 L 8483,5132 C 8569,5132 8611,5087 8611,5012 L 8611,4979 C 8611,4904 8569,4851 8483,4851 L 8382,4851 C 8393,4798 8423,4754 8488,4715 8502,4706 8512,4690 8500,4671 8488,4654 8469,4655 8455,4663 Z"/>
          <path fill="none" stroke="rgb(203,113,134)" stroke-width="5" stroke-linejoin="miter" d="M 8445,5073 C 8399,5073 8378,5049 8378,5008 L 8378,4911 8483,4911 C 8529,4911 8550,4937 8550,4979 L 8550,5012 C 8550,5053 8529,5073 8483,5073 L 8445,5073 Z"/>
         </g>
        </g>
        <g class="com.sun.star.drawing.ClosedBezierShape">
         <g id="id52">
          <rect class="BoundingBox" stroke="none" fill="none" x="9131" y="4710" width="362" height="375"/>
          <path fill="rgb(203,113,134)" stroke="none" d="M 9339,4753 C 9339,4737 9331,4725 9312,4725 9292,4725 9283,4737 9283,4753 L 9283,4869 9174,4869 C 9158,4869 9146,4876 9146,4897 9146,4917 9158,4925 9174,4925 L 9283,4925 9283,5041 C 9283,5057 9291,5069 9311,5069 9331,5069 9339,5057 9339,5041 L 9339,4925 9449,4925 C 9465,4925 9477,4917 9477,4897 9477,4876 9465,4869 9449,4869 L 9339,4869 9339,4753 Z"/>
          <path fill="none" stroke="rgb(203,113,134)" stroke-width="30" stroke-linejoin="miter" d="M 9339,4753 C 9339,4737 9331,4725 9312,4725 9292,4725 9283,4737 9283,4753 L 9283,4869 9174,4869 C 9158,4869 9146,4876 9146,4897 9146,4917 9158,4925 9174,4925 L 9283,4925 9283,5041 C 9283,5057 9291,5069 9311,5069 9331,5069 9339,5057 9339,5041 L 9339,4925 9449,4925 C 9465,4925 9477,4917 9477,4897 9477,4876 9465,4869 9449,4869 L 9339,4869 9339,4753 Z"/>
         </g>
        </g>
        <g class="com.sun.star.drawing.ClosedBezierShape">
         <g id="id53">
          <rect class="BoundingBox" stroke="none" fill="none" x="10039" y="4664" width="313" height="472"/>
          <path fill="rgb(203,113,134)" stroke="none" d="M 10146,5102 C 10146,5119 10155,5132 10177,5132 10200,5132 10208,5119 10208,5102 L 10208,5046 C 10208,4953 10227,4896 10272,4822 L 10340,4712 C 10357,4686 10346,4667 10316,4667 L 10071,4667 C 10055,4667 10042,4675 10042,4696 10042,4717 10055,4725 10071,4725 L 10264,4725 10222,4790 C 10162,4880 10146,4940 10146,5046 L 10146,5102 Z"/>
          <path fill="none" stroke="rgb(203,113,134)" stroke-width="5" stroke-linejoin="miter" d="M 10146,5102 C 10146,5119 10155,5132 10177,5132 10200,5132 10208,5119 10208,5102 L 10208,5046 C 10208,4953 10227,4896 10272,4822 L 10340,4712 C 10357,4686 10346,4667 10316,4667 L 10071,4667 C 10055,4667 10042,4675 10042,4696 10042,4717 10055,4725 10071,4725 L 10264,4725 10222,4790 C 10162,4880 10146,4940 10146,5046 L 10146,5102 Z"/>
         </g>
        </g>
        <g class="com.sun.star.drawing.PolyLineShape">
         <g id="id54">
          <rect class="BoundingBox" stroke="none" fill="none" x="975" y="1884" width="1376" height="2022"/>
          <path fill="none" stroke="rgb(69,136,119)" stroke-width="82" stroke-linejoin="round" stroke-linecap="round" d="M 2309,3864 L 2309,1925 1016,1925"/>
         </g>
        </g>
        <g class="com.sun.star.drawing.ClosedBezierShape">
         <g id="id55">
          <rect class="BoundingBox" stroke="none" fill="none" x="1281" y="3156" width="255" height="286"/>
          <path fill="rgb(170,125,129)" stroke="none" d="M 1494,3256 C 1494,3217 1480,3193 1449,3193 L 1436,3193 C 1404,3193 1390,3217 1390,3256 L 1390,3341 C 1390,3380 1404,3403 1436,3403 L 1449,3403 C 1480,3403 1494,3380 1494,3341 L 1494,3256 Z M 1494,3256 L 1494,3256 Z M 1354,3256 C 1354,3196 1381,3159 1436,3159 L 1449,3159 C 1503,3159 1531,3196 1531,3256 L 1531,3341 C 1531,3400 1503,3438 1449,3438 L 1436,3438 C 1381,3438 1354,3400 1354,3341 L 1354,3256 Z M 1354,3256 L 1354,3256 Z M 1281,3256 L 1281,3256 Z"/>
          <path fill="none" stroke="rgb(170,125,129)" stroke-width="6" stroke-linejoin="miter" d="M 1494,3256 C 1494,3217 1480,3193 1449,3193 L 1436,3193 C 1404,3193 1390,3217 1390,3256 L 1390,3341 C 1390,3380 1404,3403 1436,3403 L 1449,3403 C 1480,3403 1494,3380 1494,3341 L 1494,3256 Z"/>
          <path fill="none" stroke="rgb(170,125,129)" stroke-width="6" stroke-linejoin="miter" d="M 1354,3256 C 1354,3196 1381,3159 1436,3159 L 1449,3159 C 1503,3159 1531,3196 1531,3256 L 1531,3341 C 1531,3400 1503,3438 1449,3438 L 1436,3438 C 1381,3438 1354,3400 1354,3341 L 1354,3256 Z"/>
         </g>
        </g>
       </g>
      </g>
     </g>
    </g>
   </g>
  </g>
 </g>
</svg>