<?xml version="1.0" encoding="UTF-8"?>
<!DOCTYPE svg PUBLIC "-//W3C//DTD SVG 1.1//EN" "http://www.w3.org/Graphics/SVG/1.1/DTD/svg11.dtd">
<svg version="1.2" width="115.71mm" height="70.56mm" viewBox="0 0 11571 7056" preserveAspectRatio="xMidYMid" fill-rule="evenodd" stroke-width="28.222" stroke-linejoin="round" xmlns="http://www.w3.org/2000/svg" xmlns:ooo="http://xml.openoffice.org/svg/export" xmlns:xlink="http://www.w3.org/1999/xlink" xmlns:presentation="http://sun.com/xmlns/staroffice/presentation" xmlns:smil="http://www.w3.org/2001/SMIL20/" xmlns:anim="urn:oasis:names:tc:opendocument:xmlns:animation:1.0" xml:space="preserve">
 <defs class="ClipPathGroup">
  <clipPath id="presentation_clip_path" clipPathUnits="userSpaceOnUse">
   <rect x="0" y="0" width="11571" height="7056"/>
  </clipPath>
  <clipPath id="presentation_clip_path_shrink" clipPathUnits="userSpaceOnUse">
   <rect x="11" y="7" width="11548" height="7042"/>
  </clipPath>
 </defs>
 <defs class="TextShapeIndex">
  <g ooo:slide="id1" ooo:id-list="id3 id4 id5 id6 id7 id8 id9 id10 id11 id12 id13 id14 id15 id16 id17 id18"/>
 </defs>
 <defs class="EmbeddedBulletChars">
  <g id="bullet-char-template(57356)" transform="scale(0.00048828125,-0.00048828125)">
   <path d="M 580,1141 L 1163,571 580,0 -4,571 580,1141 Z"/>
  </g>
  <g id="bullet-char-template(57354)" transform="scale(0.00048828125,-0.00048828125)">
   <path d="M 8,1128 L 1137,1128 1137,0 8,0 8,1128 Z"/>
  </g>
  <g id="bullet-char-template(10146)" transform="scale(0.00048828125,-0.00048828125)">
   <path d="M 174,0 L 602,739 174,1481 1456,739 174,0 Z M 1358,739 L 309,1346 659,739 1358,739 Z"/>
  </g>
  <g id="bullet-char-template(10132)" transform="scale(0.00048828125,-0.00048828125)">
   <path d="M 2015,739 L 1276,0 717,0 1260,543 174,543 174,936 1260,936 717,1481 1274,1481 2015,739 Z"/>
  </g>
  <g id="bullet-char-template(10007)" transform="scale(0.00048828125,-0.00048828125)">
   <path d="M 0,-2 C -7,14 -16,27 -25,37 L 356,567 C 262,823 215,952 215,954 215,979 228,992 255,992 264,992 276,990 289,987 310,991 331,999 354,1012 L 381,999 492,748 772,1049 836,1024 860,1049 C 881,1039 901,1025 922,1006 886,937 835,863 770,784 769,783 710,716 594,584 L 774,223 C 774,196 753,168 711,139 L 727,119 C 717,90 699,76 672,76 641,76 570,178 457,381 L 164,-76 C 142,-110 111,-127 72,-127 30,-127 9,-110 8,-76 1,-67 -2,-52 -2,-32 -2,-23 -1,-13 0,-2 Z"/>
  </g>
  <g id="bullet-char-template(10004)" transform="scale(0.00048828125,-0.00048828125)">
   <path d="M 285,-33 C 182,-33 111,30 74,156 52,228 41,333 41,471 41,549 55,616 82,672 116,743 169,778 240,778 293,778 328,747 346,684 L 369,508 C 377,444 397,411 428,410 L 1163,1116 C 1174,1127 1196,1133 1229,1133 1271,1133 1292,1118 1292,1087 L 1292,965 C 1292,929 1282,901 1262,881 L 442,47 C 390,-6 338,-33 285,-33 Z"/>
  </g>
  <g id="bullet-char-template(9679)" transform="scale(0.00048828125,-0.00048828125)">
   <path d="M 813,0 C 632,0 489,54 383,161 276,268 223,411 223,592 223,773 276,916 383,1023 489,1130 632,1184 813,1184 992,1184 1136,1130 1245,1023 1353,916 1407,772 1407,592 1407,412 1353,268 1245,161 1136,54 992,0 813,0 Z"/>
  </g>
  <g id="bullet-char-template(8226)" transform="scale(0.00048828125,-0.00048828125)">
   <path d="M 346,457 C 273,457 209,483 155,535 101,586 74,649 74,723 74,796 101,859 155,911 209,963 273,989 346,989 419,989 480,963 531,910 582,859 608,796 608,723 608,648 583,586 532,535 482,483 420,457 346,457 Z"/>
  </g>
  <g id="bullet-char-template(8211)" transform="scale(0.00048828125,-0.00048828125)">
   <path d="M -4,459 L 1135,459 1135,606 -4,606 -4,459 Z"/>
  </g>
  <g id="bullet-char-template(61548)" transform="scale(0.00048828125,-0.00048828125)">
   <path d="M 173,740 C 173,903 231,1043 346,1159 462,1274 601,1332 765,1332 928,1332 1067,1274 1183,1159 1299,1043 1357,903 1357,740 1357,577 1299,437 1183,322 1067,206 928,148 765,148 601,148 462,206 346,322 231,437 173,577 173,740 Z"/>
  </g>
 </defs>
 <defs class="TextEmbeddedBitmaps"/>
 <g>
  <g id="id2" class="Master_Slide">
   <g id="bg-id2" class="Background"/>
   <g id="bo-id2" class="BackgroundObjects"/>
  </g>
 </g>
 <g class="SlideGroup">
  <g>
   <g id="container-id1">
    <g id="id1" class="Slide" clip-path="url(#presentation_clip_path)">
     <g class="Page">
      <g class="Group">
       <g class="com.sun.star.drawing.PolyPolygonShape">
        <g id="id3">
         <rect class="BoundingBox" stroke="none" fill="none" x="0" y="0" width="11573" height="7058"/>
         <g>
          <defs>
           <linearGradient id="gradient1" x1="0" y1="3528" x2="11573" y2="3528" gradientUnits="userSpaceOnUse">
            <stop offset="0" style="stop-color:rgb(255,255,255)"/>
            <stop offset="1" style="stop-color:rgb(209,226,242)"/>
           </linearGradient>
          </defs>
          <path style="fill:url(#gradient1)" d="M 0,0 L 11572,0 11572,7057 0,7057 0,0 Z"/>
         </g>
        </g>
       </g>
       <g class="com.sun.star.drawing.PolyPolygonShape">
        <g id="id4">
         <rect class="BoundingBox" stroke="none" fill="none" x="4044" y="3135" width="3353" height="3305"/>
         <path fill="rgb(0,65,57)" stroke="none" d="M 4344,3605 L 6885,3173 7301,4236 7301,4762 7301,6130 7358,6374 7198,6401 4344,6401 4082,6401 4344,5873 4344,3605 Z"/>
         <path fill="none" stroke="rgb(0,65,57)" stroke-width="75" stroke-linejoin="round" stroke-linecap="round" d="M 4344,3605 L 6885,3173 7301,4236 7301,4762 7301,6130 7358,6374 7198,6401 4344,6401 4082,6401 4344,5873 4344,3605 Z"/>
        </g>
       </g>
       <g class="com.sun.star.drawing.LineShape">
        <g id="id5">
         <rect class="BoundingBox" stroke="none" fill="none" x="4048" y="5705" width="776" height="731"/>
         <path fill="none" stroke="rgb(69,136,119)" stroke-width="67" stroke-linejoin="round" stroke-linecap="round" d="M 4082,6401 L 4789,5739"/>
        </g>
       </g>
       <g class="com.sun.star.drawing.LineShape">
        <g id="id6">
         <rect class="BoundingBox" stroke="none" fill="none" x="7035" y="5964" width="358" height="445"/>
         <path fill="none" stroke="rgb(69,136,119)" stroke-width="67" stroke-linejoin="round" stroke-linecap="round" d="M 7358,6374 L 7069,5998"/>
        </g>
       </g>
       <g class="com.sun.star.drawing.PolyPolygonShape">
        <g id="id7">
         <rect class="BoundingBox" stroke="none" fill="none" x="4311" y="2431" width="3025" height="3187"/>
         <path fill="rgb(180,204,214)" stroke="none" d="M 4712,2525 L 4345,3605 6679,3240 7291,5583 7301,4237 6721,2753 5905,2465 4712,2525 Z"/>
         <path fill="none" stroke="rgb(69,136,119)" stroke-width="67" stroke-linejoin="round" stroke-linecap="round" d="M 4712,2525 L 4345,3605 6679,3240 7291,5583 7301,4237 6721,2753 5905,2465 4712,2525 Z"/>
        </g>
       </g>
       <g class="com.sun.star.drawing.PolyPolygonShape">
        <g id="id8">
         <rect class="BoundingBox" stroke="none" fill="none" x="4048" y="4167" width="590" height="2269"/>
         <path fill="rgb(180,204,214)" stroke="none" d="M 4345,5873 L 4082,6401 4603,5914 4345,4201 4345,5873 Z"/>
         <path fill="none" stroke="rgb(69,136,119)" stroke-width="67" stroke-linejoin="round" stroke-linecap="round" d="M 4345,5873 L 4082,6401 4603,5914 4345,4201 4345,5873 Z"/>
        </g>
       </g>
       <g class="com.sun.star.drawing.PolyPolygonShape">
        <g id="id9">
         <rect class="BoundingBox" stroke="none" fill="none" x="5359" y="1551" width="946" height="967"/>
         <path fill="rgb(180,204,214)" stroke="none" d="M 5520,2483 L 5944,2465 6270,1892 6095,1826 5851,1587 5393,1585 5520,2483 Z"/>
         <path fill="none" stroke="rgb(69,136,119)" stroke-width="67" stroke-linejoin="round" stroke-linecap="round" d="M 5520,2483 L 5944,2465 6270,1892 6095,1826 5851,1587 5393,1585 5520,2483 Z"/>
        </g>
       </g>
       <g class="com.sun.star.drawing.LineShape">
        <g id="id10">
         <rect class="BoundingBox" stroke="none" fill="none" x="5770" y="2179" width="170" height="322"/>
         <path fill="none" stroke="rgb(69,136,119)" stroke-width="67" stroke-linejoin="round" stroke-linecap="round" d="M 5905,2466 L 5804,2213"/>
        </g>
       </g>
       <g class="com.sun.star.drawing.ClosedBezierShape">
        <g id="id11">
         <rect class="BoundingBox" stroke="none" fill="none" x="4649" y="2797" width="1930" height="666"/>
         <path fill="rgb(255,255,255)" stroke="none" d="M 4731,3290 L 4816,3276 C 4852,3271 4869,3292 4874,3325 L 4876,3336 C 4881,3367 4870,3387 4834,3392 L 4749,3406 4731,3290 Z M 4731,3290 L 4731,3290 Z M 4724,3244 L 4707,3135 4770,3126 C 4805,3120 4821,3130 4826,3161 L 4828,3174 C 4833,3205 4822,3229 4787,3234 L 4724,3244 Z M 4724,3244 L 4724,3244 Z M 4923,3317 C 4916,3273 4892,3246 4852,3240 4873,3223 4882,3198 4877,3166 L 4875,3154 C 4866,3096 4828,3069 4762,3079 L 4676,3093 C 4658,3095 4654,3108 4655,3120 L 4704,3436 C 4706,3448 4715,3459 4733,3456 L 4841,3439 C 4907,3429 4934,3386 4925,3328 L 4923,3317 Z M 4923,3317 L 4923,3317 Z M 5305,3347 L 5255,3022 C 5253,3009 5244,2999 5227,3001 5211,3004 5205,3017 5207,3029 L 5257,3355 C 5259,3367 5268,3378 5285,3375 5301,3372 5307,3360 5305,3347 Z M 5305,3347 L 5305,3347 Z M 5081,3173 L 5017,3183 4998,3062 C 4996,3049 4987,3039 4970,3042 4952,3044 4947,3057 4949,3069 L 4999,3390 C 5001,3402 5010,3413 5027,3410 L 5115,3396 C 5183,3386 5209,3337 5200,3279 L 5196,3256 C 5187,3198 5150,3162 5081,3173 Z M 5081,3173 L 5081,3173 Z M 5152,3292 C 5157,3324 5146,3344 5109,3349 L 5044,3360 5024,3230 5088,3220 C 5124,3214 5143,3230 5147,3261 L 5152,3292 Z M 5152,3292 L 5152,3292 Z M 5476,3115 L 5401,3126 5386,3030 5518,3009 C 5530,3007 5540,2999 5537,2982 5535,2967 5523,2960 5511,2961 L 5355,2987 C 5338,2990 5332,3002 5334,3014 L 5383,3330 C 5385,3342 5394,3353 5412,3350 L 5511,3334 C 5577,3324 5603,3275 5594,3218 L 5591,3194 C 5582,3136 5543,3104 5476,3115 Z M 5476,3115 L 5476,3115 Z M 5546,3230 C 5551,3261 5540,3281 5504,3287 L 5428,3300 5408,3170 5483,3158 C 5519,3153 5537,3168 5542,3199 L 5546,3230 Z M 5546,3230 L 5546,3230 Z M 5675,3038 C 5670,3005 5680,2978 5716,2973 L 5758,2965 C 5793,2960 5811,2983 5816,3016 L 5842,3181 C 5847,3213 5837,3240 5801,3246 L 5760,3252 C 5724,3258 5706,3235 5701,3203 L 5675,3038 Z M 5675,3038 L 5675,3038 Z M 5865,3008 C 5856,2950 5816,2909 5750,2919 L 5709,2925 C 5643,2936 5618,2988 5627,3045 L 5653,3211 C 5661,3268 5701,3310 5767,3300 L 5808,3292 C 5874,3282 5899,3230 5891,3173 L 5865,3008 Z M 5865,3008 L 5865,3008 Z M 5999,3065 L 5979,2936 6059,2923 C 6096,2917 6114,2933 6119,2964 L 6123,2991 C 6128,3023 6116,3047 6079,3053 L 5999,3065 Z M 5999,3065 L 5999,3065 Z M 6087,3099 C 6154,3089 6180,3040 6171,2984 L 6167,2957 C 6158,2899 6120,2867 6052,2877 L 5947,2893 C 5930,2896 5925,2909 5927,2921 L 5976,3242 C 5978,3254 5987,3264 6004,3262 6022,3259 6027,3247 6025,3234 L 6006,3112 6087,3099 Z M 6087,3099 L 6087,3099 Z M 6572,3149 L 6521,2823 C 6519,2811 6511,2801 6494,2803 6477,2806 6471,2818 6473,2831 L 6524,3156 C 6526,3169 6534,3179 6551,3177 6568,3174 6574,3161 6572,3149 Z M 6572,3149 L 6572,3149 Z M 6348,2976 L 6284,2986 6265,2863 C 6263,2851 6254,2840 6237,2843 6220,2846 6215,2858 6216,2871 L 6266,3191 C 6268,3204 6277,3214 6295,3211 L 6383,3198 C 6450,3187 6475,3139 6467,3082 L 6463,3058 C 6454,3000 6417,2964 6348,2976 Z M 6348,2976 L 6348,2976 Z M 6419,3094 C 6424,3125 6412,3145 6377,3151 L 6311,3161 6291,3032 6355,3022 C 6391,3017 6409,3032 6414,3063 L 6419,3094 Z"/>
         <path fill="none" stroke="rgb(255,255,255)" stroke-width="10" stroke-linejoin="miter" d="M 4731,3290 L 4816,3276 C 4852,3271 4869,3292 4874,3325 L 4876,3336 C 4881,3367 4870,3387 4834,3392 L 4749,3406 4731,3290 Z"/>
         <path fill="none" stroke="rgb(255,255,255)" stroke-width="10" stroke-linejoin="miter" d="M 4724,3244 L 4707,3135 4770,3126 C 4805,3120 4821,3130 4826,3161 L 4828,3174 C 4833,3205 4822,3229 4787,3234 L 4724,3244 Z"/>
         <path fill="none" stroke="rgb(255,255,255)" stroke-width="10" stroke-linejoin="miter" d="M 4923,3317 C 4916,3273 4892,3246 4852,3240 4873,3223 4882,3198 4877,3166 L 4875,3154 C 4866,3096 4828,3069 4762,3079 L 4676,3093 C 4658,3095 4654,3108 4655,3120 L 4704,3436 C 4706,3448 4715,3459 4733,3456 L 4841,3439 C 4907,3429 4934,3386 4925,3328 L 4923,3317 Z"/>
         <path fill="none" stroke="rgb(255,255,255)" stroke-width="10" stroke-linejoin="miter" d="M 5305,3347 L 5255,3022 C 5253,3009 5244,2999 5227,3001 5211,3004 5205,3017 5207,3029 L 5257,3355 C 5259,3367 5268,3378 5285,3375 5301,3372 5307,3360 5305,3347 Z"/>
         <path fill="none" stroke="rgb(255,255,255)" stroke-width="10" stroke-linejoin="miter" d="M 5081,3173 L 5017,3183 4998,3062 C 4996,3049 4987,3039 4970,3042 4952,3044 4947,3057 4949,3069 L 4999,3390 C 5001,3402 5010,3413 5027,3410 L 5115,3396 C 5183,3386 5209,3337 5200,3279 L 5196,3256 C 5187,3198 5150,3162 5081,3173 Z"/>
         <path fill="none" stroke="rgb(255,255,255)" stroke-width="10" stroke-linejoin="miter" d="M 5152,3292 C 5157,3324 5146,3344 5109,3349 L 5044,3360 5024,3230 5088,3220 C 5124,3214 5143,3230 5147,3261 L 5152,3292 Z"/>
         <path fill="none" stroke="rgb(255,255,255)" stroke-width="10" stroke-linejoin="miter" d="M 5476,3115 L 5401,3126 5386,3030 5518,3009 C 5530,3007 5540,2999 5537,2982 5535,2967 5523,2960 5511,2961 L 5355,2987 C 5338,2990 5332,3002 5334,3014 L 5383,3330 C 5385,3342 5394,3353 5412,3350 L 5511,3334 C 5577,3324 5603,3275 5594,3218 L 5591,3194 C 5582,3136 5543,3104 5476,3115 Z"/>
         <path fill="none" stroke="rgb(255,255,255)" stroke-width="10" stroke-linejoin="miter" d="M 5546,3230 C 5551,3261 5540,3281 5504,3287 L 5428,3300 5408,3170 5483,3158 C 5519,3153 5537,3168 5542,3199 L 5546,3230 Z"/>
         <path fill="none" stroke="rgb(255,255,255)" stroke-width="10" stroke-linejoin="miter" d="M 5675,3038 C 5670,3005 5680,2978 5716,2973 L 5758,2965 C 5793,2960 5811,2983 5816,3016 L 5842,3181 C 5847,3213 5837,3240 5801,3246 L 5760,3252 C 5724,3258 5706,3235 5701,3203 L 5675,3038 Z"/>
         <path fill="none" stroke="rgb(255,255,255)" stroke-width="10" stroke-linejoin="miter" d="M 5865,3008 C 5856,2950 5816,2909 5750,2919 L 5709,2925 C 5643,2936 5618,2988 5627,3045 L 5653,3211 C 5661,3268 5701,3310 5767,3300 L 5808,3292 C 5874,3282 5899,3230 5891,3173 L 5865,3008 Z"/>
         <path fill="none" stroke="rgb(255,255,255)" stroke-width="10" stroke-linejoin="miter" d="M 5999,3065 L 5979,2936 6059,2923 C 6096,2917 6114,2933 6119,2964 L 6123,2991 C 6128,3023 6116,3047 6079,3053 L 5999,3065 Z"/>
         <path fill="none" stroke="rgb(255,255,255)" stroke-width="10" stroke-linejoin="miter" d="M 6087,3099 C 6154,3089 6180,3040 6171,2984 L 6167,2957 C 6158,2899 6120,2867 6052,2877 L 5947,2893 C 5930,2896 5925,2909 5927,2921 L 5976,3242 C 5978,3254 5987,3264 6004,3262 6022,3259 6027,3247 6025,3234 L 6006,3112 6087,3099 Z"/>
         <path fill="none" stroke="rgb(255,255,255)" stroke-width="10" stroke-linejoin="miter" d="M 6572,3149 L 6521,2823 C 6519,2811 6511,2801 6494,2803 6477,2806 6471,2818 6473,2831 L 6524,3156 C 6526,3169 6534,3179 6551,3177 6568,3174 6574,3161 6572,3149 Z"/>
         <path fill="none" stroke="rgb(255,255,255)" stroke-width="10" stroke-linejoin="miter" d="M 6348,2976 L 6284,2986 6265,2863 C 6263,2851 6254,2840 6237,2843 6220,2846 6215,2858 6216,2871 L 6266,3191 C 6268,3204 6277,3214 6295,3211 L 6383,3198 C 6450,3187 6475,3139 6467,3082 L 6463,3058 C 6454,3000 6417,2964 6348,2976 Z"/>
         <path fill="none" stroke="rgb(255,255,255)" stroke-width="10" stroke-linejoin="miter" d="M 6419,3094 C 6424,3125 6412,3145 6377,3151 L 6311,3161 6291,3032 6355,3022 C 6391,3017 6409,3032 6414,3063 L 6419,3094 Z"/>
        </g>
       </g>
       <g class="com.sun.star.drawing.PolyPolygonShape">
        <g id="id12">
         <rect class="BoundingBox" stroke="none" fill="none" x="4635" y="3323" width="2146" height="1797"/>
         <path fill="rgb(255,252,219)" stroke="none" d="M 4873,5119 L 6780,4821 6543,3323 4636,3621 4873,5119 Z"/>
        </g>
       </g>
       <g class="com.sun.star.drawing.OpenBezierShape">
        <g id="id13">
         <rect class="BoundingBox" stroke="none" fill="none" x="4866" y="3752" width="1303" height="362"/>
         <path fill="none" stroke="rgb(170,125,129)" stroke-width="64" stroke-linejoin="round" stroke-linecap="round" d="M 6136,3896 L 4923,4081"/>
         <path fill="none" stroke="rgb(170,125,129)" stroke-width="64" stroke-linejoin="round" stroke-linecap="round" d="M 5730,3784 C 5452,3826 5175,3869 4898,3911"/>
        </g>
       </g>
       <g class="com.sun.star.drawing.OpenBezierShape">
        <g id="id14">
         <rect class="BoundingBox" stroke="none" fill="none" x="4925" y="4110" width="1303" height="363"/>
         <path fill="none" stroke="rgb(170,125,129)" stroke-width="64" stroke-linejoin="round" stroke-linecap="round" d="M 6195,4255 L 4982,4440"/>
         <path fill="none" stroke="rgb(170,125,129)" stroke-width="64" stroke-linejoin="round" stroke-linecap="round" d="M 5789,4143 C 5511,4185 5234,4228 4957,4270"/>
        </g>
       </g>
       <g class="com.sun.star.drawing.OpenBezierShape">
        <g id="id15">
         <rect class="BoundingBox" stroke="none" fill="none" x="4984" y="4470" width="1303" height="363"/>
         <path fill="none" stroke="rgb(170,125,129)" stroke-width="64" stroke-linejoin="round" stroke-linecap="round" d="M 6254,4614 L 5041,4799"/>
         <path fill="none" stroke="rgb(170,125,129)" stroke-width="64" stroke-linejoin="round" stroke-linecap="round" d="M 5848,4502 C 5570,4544 5293,4587 5016,4629"/>
        </g>
       </g>
       <g class="com.sun.star.drawing.OpenBezierShape">
        <g id="id16">
         <rect class="BoundingBox" stroke="none" fill="none" x="6131" y="4365" width="414" height="119"/>
         <path fill="none" stroke="rgb(203,113,134)" stroke-width="64" stroke-linejoin="round" stroke-linecap="round" d="M 6512,4397 C 6395,4415 6279,4433 6163,4451"/>
        </g>
       </g>
       <g class="com.sun.star.drawing.OpenBezierShape">
        <g id="id17">
         <rect class="BoundingBox" stroke="none" fill="none" x="6072" y="4005" width="415" height="119"/>
         <path fill="none" stroke="rgb(203,113,134)" stroke-width="64" stroke-linejoin="round" stroke-linecap="round" d="M 6454,4037 C 6337,4055 6221,4073 6105,4091"/>
        </g>
       </g>
       <g class="com.sun.star.drawing.OpenBezierShape">
        <g id="id18">
         <rect class="BoundingBox" stroke="none" fill="none" x="5985" y="3646" width="414" height="120"/>
         <path fill="none" stroke="rgb(203,113,134)" stroke-width="64" stroke-linejoin="round" stroke-linecap="round" d="M 6366,3679 C 6249,3697 6133,3715 6017,3733"/>
        </g>
       </g>
      </g>
     </g>
    </g>
   </g>
  </g>
 </g>
</svg>