<?xml version="1.0" encoding="UTF-8" standalone="no"?>
<svg
   xmlns:dc="http://purl.org/dc/elements/1.1/"
   xmlns:cc="http://creativecommons.org/ns#"
   xmlns:rdf="http://www.w3.org/1999/02/22-rdf-syntax-ns#"
   xmlns:svg="http://www.w3.org/2000/svg"
   xmlns="http://www.w3.org/2000/svg"
   id="svg51"
   viewBox="0 0 12197.192 7699.8154"
   style="clip-rule:evenodd;fill-rule:evenodd;image-rendering:optimizeQuality;shape-rendering:geometricPrecision;text-rendering:geometricPrecision"
   version="1.1"
   height="291"
   width="461"
   xml:space="preserve"><metadata
     id="metadata55"><rdf:RDF><cc:Work
         rdf:about=""><dc:format>image/svg+xml</dc:format><dc:type
           rdf:resource="http://purl.org/dc/dcmitype/StillImage" /><dc:title></dc:title></cc:Work></rdf:RDF></metadata><defs
     id="defs11"><style
       id="style2"
       type="text/css"><![CDATA[
    .str0 {stroke:#CC7588;stroke-width:22.26}
    .str1 {stroke:#024541;stroke-width:155.02;stroke-linecap:round;stroke-linejoin:round}
    .fil6 {fill:none}
    .fil4 {fill:#024541}
    .fil2 {fill:#FEFEFE}
    .fil1 {fill:#4D897C;fill-rule:nonzero}
    .fil5 {fill:#B8C8BA;fill-rule:nonzero}
    .fil3 {fill:#CC7588;fill-rule:nonzero}
    .fil0 {fill:url(#id0)}
   ]]></style><radialGradient
       fy="3845.28"
       fx="6103.0498"
       r="5785.5698"
       cy="3845.28"
       cx="6103.0498"
       gradientUnits="userSpaceOnUse"
       id="id0"><stop
         id="stop4"
         style="stop-color:#FEFEFE"
         offset="0" /><stop
         id="stop6"
         style="stop-color:#FEFEFE"
         offset="0.45098" /><stop
         id="stop8"
         style="stop-color:#D2E2F2"
         offset="1" /></radialGradient></defs><g
     transform="matrix(1.0540952,0,0,1.0913984,-334.54684,-347.06468)"
     id="Layer_x0020_1"><metadata
       id="CorelCorpID_0Corel-Layer" /><polygon
       style="fill:url(#id0)"
       id="polygon14"
       points="11889,318 317,318 317,7373 11889,7373 "
       class="fil0" /><g
       id="g18"><path
         style="fill:#4d897c;fill-rule:nonzero"
         id="path16"
         d="m 3896,3756 v 178 h -5 -5 l -5,-1 -5,-1 -5,-1 -5,-1 -5,-1 -5,-2 -4,-2 -4,-2 -4,-2 -4,-2 -4,-2 -4,-3 -4,-3 -3,-3 -3,-3 -3,-3 -3,-3 -3,-3 -3,-4 -2,-4 -2,-4 -2,-4 -2,-4 -2,-4 -1,-4 -1,-4 -1,-4 -1,-4 v -5 -5 -5 -5 l 1,-4 1,-4 1,-4 1,-4 2,-4 2,-4 2,-4 2,-4 2,-4 3,-4 3,-3 3,-3 3,-3 3,-3 3,-3 4,-3 4,-3 4,-2 4,-2 4,-2 4,-2 4,-2 5,-2 5,-1 5,-1 5,-1 5,-1 5,-1 h 5 5 z m 485,178 h -485 v -178 h 485 z m 0,0 v -178 h 5 5 l 5,1 5,1 5,1 5,1 5,1 5,2 4,2 4,2 4,2 4,2 4,2 4,3 4,3 3,3 3,3 3,3 3,3 3,3 3,4 2,4 2,4 2,4 2,4 2,4 1,4 1,4 1,4 1,4 v 5 5 5 5 l -1,4 -1,4 -1,4 -1,4 -2,4 -2,4 -2,4 -2,4 -2,4 -3,4 -3,3 -3,3 -3,3 -3,3 -3,3 -4,3 -4,3 -4,2 -4,2 -4,2 -4,2 -4,2 -5,2 -5,1 -5,1 -5,1 -5,1 -5,1 h -5 -5 z"
         class="fil1" /></g><g
       id="g22"><path
         style="fill:#4d897c;fill-rule:nonzero"
         id="path20"
         d="m 5827,2124 h 200 v 5 5 l -1,4 -1,4 -1,4 -1,4 -2,4 -2,4 -2,4 -2,4 -2,4 -3,4 -3,3 -3,3 -3,3 -3,3 -3,3 -4,3 -4,3 -4,2 -4,2 -4,2 -4,2 -4,2 -5,2 -5,1 -5,1 -5,1 -5,1 -5,1 h -5 -5 -5 -5 l -5,-1 -5,-1 -5,-1 -5,-1 -5,-1 -5,-2 -4,-2 -4,-2 -4,-2 -4,-2 -4,-2 -4,-3 -4,-3 -3,-3 -3,-3 -3,-3 -3,-3 -3,-3 -3,-4 -2,-4 -2,-4 -2,-4 -2,-4 -2,-4 -1,-4 -1,-4 -1,-4 -1,-4 v -5 z m 200,-485 v 485 h -200 v -485 z m 0,0 h -200 v -5 -5 l 1,-4 1,-4 1,-4 1,-4 2,-4 2,-4 2,-4 2,-4 2,-4 3,-4 3,-3 3,-3 3,-3 3,-3 3,-3 4,-3 4,-3 4,-2 4,-2 4,-2 4,-2 4,-2 5,-2 5,-1 5,-1 5,-1 5,-1 5,-1 h 5 5 5 5 l 5,1 5,1 5,1 5,1 5,1 5,2 4,2 4,2 4,2 4,2 4,2 4,3 4,3 3,3 3,3 3,3 3,3 3,3 3,4 2,4 2,4 2,4 2,4 2,4 1,4 1,4 1,4 1,4 v 5 z"
         class="fil1" /></g><g
       id="g26"><path
         style="fill:#4d897c;fill-rule:nonzero"
         id="path24"
         d="m 6179,2124 h 200 v 5 5 l -1,4 -1,4 -1,4 -1,4 -2,4 -2,4 -2,4 -2,4 -2,4 -3,4 -3,3 -3,3 -3,3 -3,3 -3,3 -4,3 -4,3 -4,2 -4,2 -4,2 -4,2 -4,2 -5,2 -5,1 -5,1 -5,1 -5,1 -5,1 h -5 -5 -5 -5 l -5,-1 -5,-1 -5,-1 -5,-1 -5,-1 -5,-2 -4,-2 -4,-2 -4,-2 -4,-2 -4,-2 -4,-3 -4,-3 -3,-3 -3,-3 -3,-3 -3,-3 -3,-3 -3,-4 -2,-4 -2,-4 -2,-4 -2,-4 -2,-4 -1,-4 -1,-4 -1,-4 -1,-4 v -5 z m 200,-485 v 485 h -200 v -485 z m 0,0 h -200 v -5 -5 l 1,-4 1,-4 1,-4 1,-4 2,-4 2,-4 2,-4 2,-4 2,-4 3,-4 3,-3 3,-3 3,-3 3,-3 3,-3 4,-3 4,-3 4,-2 4,-2 4,-2 4,-2 4,-2 5,-2 5,-1 5,-1 5,-1 5,-1 5,-1 h 5 5 5 5 l 5,1 5,1 5,1 5,1 5,1 5,2 4,2 4,2 4,2 4,2 4,2 4,3 4,3 3,3 3,3 3,3 3,3 3,3 3,4 2,4 2,4 2,4 2,4 2,4 1,4 1,4 1,4 1,4 v 5 z"
         class="fil1" /></g><g
       id="g30"><path
         style="fill:#4d897c;fill-rule:nonzero"
         id="path28"
         d="m 7825,3756 v 178 h -5 -5 l -5,-1 -5,-1 -5,-1 -5,-1 -5,-1 -5,-2 -4,-2 -4,-2 -4,-2 -4,-2 -4,-2 -4,-3 -4,-3 -3,-3 -3,-3 -3,-3 -3,-3 -3,-3 -3,-4 -2,-4 -2,-4 -2,-4 -2,-4 -2,-4 -1,-4 -1,-4 -1,-4 -1,-4 v -5 -5 -5 -5 l 1,-4 1,-4 1,-4 1,-4 2,-4 2,-4 2,-4 2,-4 2,-4 3,-4 3,-3 3,-3 3,-3 3,-3 3,-3 4,-3 4,-3 4,-2 4,-2 4,-2 4,-2 4,-2 5,-2 5,-1 5,-1 5,-1 5,-1 5,-1 h 5 5 z m 485,178 h -485 v -178 h 485 z m 0,0 v -178 h 5 5 l 5,1 5,1 5,1 5,1 5,1 5,2 4,2 4,2 4,2 4,2 4,2 4,3 4,3 3,3 3,3 3,3 3,3 3,3 3,4 2,4 2,4 2,4 2,4 2,4 1,4 1,4 1,4 1,4 v 5 5 5 5 l -1,4 -1,4 -1,4 -1,4 -2,4 -2,4 -2,4 -2,4 -2,4 -3,4 -3,3 -3,3 -3,3 -3,3 -3,3 -4,3 -4,3 -4,2 -4,2 -4,2 -4,2 -4,2 -5,2 -5,1 -5,1 -5,1 -5,1 -5,1 h -5 -5 z"
         class="fil1" /></g><polygon
       style="fill:#fefefe"
       id="polygon32"
       points="4793,5439 4793,4236 7413,4236 7413,5439 "
       class="fil2" /><g
       id="g36"><path
         style="fill:#4d897c;fill-rule:nonzero"
         id="path34"
         d="m 6003,6052 h 200 v 5 5 l -1,4 -1,4 -1,4 -1,4 -2,4 -2,4 -2,4 -2,4 -2,4 -3,4 -3,3 -3,3 -3,3 -3,3 -3,3 -4,3 -4,3 -4,2 -4,2 -4,2 -4,2 -4,2 -5,2 -5,1 -5,1 -5,1 -5,1 -5,1 h -5 -5 -5 -5 l -5,-1 -5,-1 -5,-1 -5,-1 -5,-1 -5,-2 -4,-2 -4,-2 -4,-2 -4,-2 -4,-2 -4,-3 -4,-3 -3,-3 -3,-3 -3,-3 -3,-3 -3,-3 -3,-4 -2,-4 -2,-4 -2,-4 -2,-4 -2,-4 -1,-4 -1,-4 -1,-4 -1,-4 v -5 z m 200,-485 v 485 h -200 v -485 z m 0,0 h -200 v -5 -5 l 1,-4 1,-4 1,-4 1,-4 2,-4 2,-4 2,-4 2,-4 2,-4 3,-4 3,-3 3,-3 3,-3 3,-3 3,-3 4,-3 4,-3 4,-2 4,-2 4,-2 4,-2 4,-2 5,-2 5,-1 5,-1 5,-1 5,-1 5,-1 h 5 5 5 5 l 5,1 5,1 5,1 5,1 5,1 5,2 4,2 4,2 4,2 4,2 4,2 4,3 4,3 3,3 3,3 3,3 3,3 3,3 3,4 2,4 2,4 2,4 2,4 2,4 1,4 1,4 1,4 1,4 v 5 z"
         class="fil1" /></g><path
       style="fill:#cc7588;fill-rule:nonzero;stroke:#cc7588;stroke-width:22.26000023"
       id="path38"
       d="m 5166,5050 c 0,-41 15,-72 44,-86 l 162,-73 c 79,-35 97,-97 97,-157 v -4 c 0,-102 -57,-158 -172,-158 h -54 c -91,0 -147,39 -147,132 0,23 11,41 41,41 30,0 42,-19 42,-41 0,-37 26,-53 64,-53 h 54 c 63,0 89,24 89,79 v 4 c 0,42 -13,67 -49,83 l -151,67 c -71,30 -104,97 -104,174 v 141 h 355 c 22,0 40,-11 40,-40 0,-28 -18,-40 -40,-40 h -272 v -70 z m 475,-256 c 0,-88 33,-142 102,-142 h 31 c 70,0 102,54 102,142 v 192 c 0,88 -32,142 -102,142 h -31 c -70,0 -102,-54 -102,-142 z m 318,0 c 0,-135 -63,-222 -185,-222 h -31 c -122,0 -185,87 -185,222 v 192 c 0,135 64,222 185,222 h 31 c 122,0 185,-87 185,-222 z m 186,31 c 0,-26 -12,-48 -48,-48 -35,0 -48,22 -48,48 v 9 c 0,26 12,48 48,48 35,0 48,-22 48,-48 z m 0,327 c 0,-26 -12,-48 -48,-48 -35,0 -48,22 -48,48 v 9 c 0,26 12,48 48,48 35,0 48,-22 48,-48 z m 174,-358 c 0,-88 33,-142 102,-142 h 31 c 70,0 102,54 102,142 v 192 c 0,88 -32,142 -102,142 h -31 c -70,0 -102,-54 -102,-142 z m 318,0 c 0,-135 -63,-222 -185,-222 h -31 c -122,0 -185,87 -185,222 v 192 c 0,135 64,222 185,222 h 31 c 122,0 185,-87 185,-222 z m 168,0 c 0,-88 33,-142 102,-142 h 31 c 70,0 102,54 102,142 v 192 c 0,88 -32,142 -102,142 h -31 c -70,0 -102,-54 -102,-142 z m 318,0 c 0,-135 -63,-222 -185,-222 h -31 c -122,0 -185,87 -185,222 v 192 c 0,135 64,222 185,222 h 31 c 122,0 185,-87 185,-222 z"
       class="fil3 str0" /><polygon
       style="fill:#024541"
       id="polygon40"
       points="6324,4268 6199,4268 6007,4268 5882,4268 6040,1866 6166,1866 "
       class="fil4" /><polygon
       style="fill:#024541"
       id="polygon42"
       points="6256,3496 6319,3604 6415,3770 6477,3879 5055,4517 4992,4409 "
       class="fil4" /><g
       id="g46"><path
         style="fill:#b8c8ba;fill-rule:nonzero"
         id="path44"
         d="m 5002,2133 178,-81 2,4 2,4 2,4 1,4 1,4 1,4 1,4 v 4 4 4 4 4 l -1,4 -1,4 -1,4 -1,4 -2,4 -2,4 -2,4 -2,4 -2,4 -3,4 -3,4 -3,3 -3,3 -3,3 -4,3 -4,3 -4,3 -4,3 -4,2 -5,2 -5,2 -5,2 -5,2 -5,1 -5,1 -5,1 -5,1 h -5 -5 -5 -5 -5 l -5,-1 -5,-1 -5,-1 -5,-1 -5,-1 -4,-2 -4,-2 -4,-2 -4,-2 -4,-2 -4,-3 -4,-3 -4,-3 -4,-3 -3,-3 -3,-3 -3,-4 -3,-4 -3,-4 -2,-4 z m 87,-240 91,158 -178,81 -91,-158 z m 0,0 -178,81 -2,-4 -2,-4 -2,-4 -1,-4 -1,-4 -1,-4 -1,-4 v -4 -4 -4 -4 -4 l 1,-4 1,-4 1,-4 1,-4 2,-4 2,-4 2,-4 2,-4 2,-4 3,-4 3,-4 3,-3 3,-3 3,-3 4,-3 4,-3 4,-3 4,-3 4,-2 5,-2 5,-2 5,-2 5,-2 5,-1 5,-1 5,-1 5,-1 h 5 5 5 5 5 l 5,1 5,1 5,1 5,1 5,1 4,2 4,2 4,2 4,2 4,2 4,3 4,3 4,3 4,3 3,3 3,3 3,4 3,4 3,4 2,4 z m 2207,81 -178,-81 2,-4 3,-4 3,-4 3,-4 3,-3 3,-3 4,-3 4,-3 4,-3 4,-3 4,-2 4,-2 4,-2 4,-2 4,-2 5,-1 5,-1 5,-1 5,-1 5,-1 h 5 5 5 5 5 l 5,1 5,1 5,1 5,1 5,2 5,2 5,2 5,2 4,2 4,3 4,3 4,3 4,3 3,3 3,3 3,3 3,4 3,4 2,4 2,4 2,4 2,4 2,4 1,4 1,4 1,4 1,4 v 4 4 4 4 4 l -1,4 -1,4 -1,4 -1,4 -2,4 -2,4 -2,4 z m -269,77 91,-158 178,81 -91,158 z m 0,0 178,81 -2,4 -3,4 -3,4 -3,4 -3,3 -3,3 -4,3 -4,3 -4,3 -4,3 -4,2 -4,2 -4,2 -4,2 -4,2 -5,1 -5,1 -5,1 -5,1 -5,1 h -5 -5 -5 -5 -5 l -5,-1 -5,-1 -5,-1 -5,-1 -5,-2 -5,-2 -5,-2 -5,-2 -4,-2 -4,-3 -4,-3 -4,-3 -4,-3 -3,-3 -3,-3 -3,-3 -3,-4 -3,-4 -2,-4 -2,-4 -2,-4 -2,-4 -2,-4 -1,-4 -1,-4 -1,-4 -1,-4 v -4 -4 -4 -4 -4 l 1,-4 1,-4 1,-4 1,-4 2,-4 2,-4 2,-4 z m 1042,765 -109,-149 4,-2 4,-2 5,-2 5,-2 5,-2 5,-1 5,-1 5,-1 5,-1 h 5 5 5 5 5 l 5,1 5,1 5,1 5,1 5,1 4,2 4,2 4,2 4,2 4,2 4,3 4,3 4,3 4,3 3,3 3,3 3,4 3,4 3,4 2,4 2,4 2,4 2,4 1,4 1,4 1,4 1,4 v 4 4 4 4 4 l -1,4 -1,4 -1,4 -1,4 -2,4 -2,4 -2,4 -2,4 -2,4 -3,4 -3,4 -3,3 -3,3 -3,3 -4,3 -4,3 -4,3 -4,3 z m -267,-58 158,-91 109,149 -158,91 z m 0,0 109,149 -4,2 -4,2 -5,2 -5,2 -5,2 -5,1 -5,1 -5,1 -5,1 h -5 -5 -5 -5 -5 l -5,-1 -5,-1 -5,-1 -5,-1 -5,-1 -4,-2 -4,-2 -4,-2 -4,-2 -4,-2 -4,-3 -4,-3 -4,-3 -4,-3 -3,-3 -3,-3 -3,-4 -3,-4 -3,-4 -2,-4 -2,-4 -2,-4 -2,-4 -1,-4 -1,-4 -1,-4 -1,-4 v -4 -4 -4 -4 -4 l 1,-4 1,-4 1,-4 1,-4 2,-4 2,-4 2,-4 2,-4 2,-4 3,-4 3,-4 3,-3 3,-3 3,-3 4,-3 4,-3 4,-3 4,-3 z m 158,2265 109,-149 4,3 4,3 4,3 4,3 3,3 3,3 3,3 3,4 3,4 2,4 2,4 2,4 2,4 2,4 1,4 1,4 1,4 1,4 v 4 4 4 4 4 l -1,4 -1,4 -1,4 -1,4 -2,4 -2,4 -2,4 -2,4 -3,4 -3,4 -3,4 -3,3 -3,3 -4,3 -4,3 -4,3 -4,3 -4,2 -4,2 -4,2 -4,2 -4,2 -5,1 -5,1 -5,1 -5,1 -5,1 h -5 -5 -5 -5 -5 l -5,-1 -5,-1 -5,-1 -5,-1 -5,-2 -5,-2 -5,-2 -4,-2 -4,-2 z m -49,-241 158,91 -109,149 -158,-91 z m 0,0 -109,149 -4,-3 -4,-3 -4,-3 -4,-3 -3,-3 -3,-3 -3,-3 -3,-4 -3,-4 -2,-4 -2,-4 -2,-4 -2,-4 -2,-4 -1,-4 -1,-4 -1,-4 -1,-4 v -4 -4 -4 -4 -4 l 1,-4 1,-4 1,-4 1,-4 2,-4 2,-4 2,-4 2,-4 3,-4 3,-4 3,-4 3,-3 3,-3 4,-3 4,-3 4,-3 4,-3 4,-2 4,-2 4,-2 4,-2 4,-2 5,-1 5,-1 5,-1 5,-1 5,-1 h 5 5 5 5 5 l 5,1 5,1 5,1 5,1 5,2 5,2 5,2 4,2 4,2 z m -793,1014 178,-81 2,4 2,4 2,4 1,4 1,4 1,4 1,4 v 4 4 4 4 4 l -1,4 -1,4 -1,4 -1,4 -2,4 -2,4 -2,4 -2,4 -2,4 -3,4 -3,4 -3,3 -3,3 -3,3 -4,3 -4,3 -4,3 -4,3 -4,2 -5,2 -5,2 -5,2 -5,2 -5,1 -5,1 -5,1 -5,1 h -5 -5 -5 -5 -5 l -5,-1 -5,-1 -5,-1 -5,-1 -5,-1 -4,-2 -4,-2 -4,-2 -4,-2 -4,-2 -4,-3 -4,-3 -4,-3 -4,-3 -3,-3 -3,-3 -3,-4 -3,-4 -3,-4 -2,-4 z m 87,-240 91,158 -178,81 -91,-158 z m 0,0 -178,81 -2,-4 -2,-4 -2,-4 -1,-4 -1,-4 -1,-4 -1,-4 v -4 -4 -4 -4 -4 l 1,-4 1,-4 1,-4 1,-4 2,-4 2,-4 2,-4 2,-4 2,-4 3,-4 3,-4 3,-3 3,-3 3,-3 4,-3 4,-3 4,-3 4,-3 4,-2 5,-2 5,-2 5,-2 5,-2 5,-1 5,-1 5,-1 5,-1 h 5 5 5 5 5 l 5,1 5,1 5,1 5,1 5,1 4,2 4,2 4,2 4,2 4,2 4,3 4,3 4,3 4,3 3,3 3,3 3,4 3,4 3,4 2,4 z m -2024,81 -178,-81 2,-4 3,-4 3,-4 3,-4 3,-3 3,-3 4,-3 4,-3 4,-3 4,-3 4,-2 4,-2 4,-2 4,-2 4,-2 5,-1 5,-1 5,-1 5,-1 5,-1 h 5 5 5 5 5 l 5,1 5,1 5,1 5,1 5,2 5,2 5,2 5,2 4,2 4,3 4,3 4,3 4,3 3,3 3,3 3,3 3,4 3,4 2,4 2,4 2,4 2,4 2,4 1,4 1,4 1,4 1,4 v 4 4 4 4 4 l -1,4 -1,4 -1,4 -1,4 -2,4 -2,4 -2,4 z m -269,77 91,-158 178,81 -91,158 z m 0,0 178,81 -2,4 -3,4 -3,4 -3,4 -3,3 -3,3 -4,3 -4,3 -4,3 -4,3 -4,2 -4,2 -4,2 -4,2 -4,2 -5,1 -5,1 -5,1 -5,1 -5,1 h -5 -5 -5 -5 -5 l -5,-1 -5,-1 -5,-1 -5,-1 -5,-2 -5,-2 -5,-2 -5,-2 -4,-2 -4,-3 -4,-3 -4,-3 -4,-3 -3,-3 -3,-3 -3,-3 -3,-4 -3,-4 -2,-4 -2,-4 -2,-4 -2,-4 -2,-4 -1,-4 -1,-4 -1,-4 -1,-4 v -4 -4 -4 -4 -4 l 1,-4 1,-4 1,-4 1,-4 2,-4 2,-4 2,-4 z m -506,-784 -109,-149 4,-2 4,-2 5,-2 5,-2 5,-2 5,-1 5,-1 5,-1 5,-1 h 5 5 5 5 5 l 5,1 5,1 5,1 5,1 5,1 4,2 4,2 4,2 4,2 4,2 4,3 4,3 4,3 4,3 3,3 3,3 3,4 3,4 3,4 2,4 2,4 2,4 2,4 1,4 1,4 1,4 1,4 v 4 4 4 4 4 l -1,4 -1,4 -1,4 -1,4 -2,4 -2,4 -2,4 -2,4 -2,4 -3,4 -3,4 -3,3 -3,3 -3,3 -4,3 -4,3 -4,3 -4,3 z m -267,-58 158,-91 109,149 -158,91 z m 0,0 109,149 -4,2 -4,2 -5,2 -5,2 -5,2 -5,1 -5,1 -5,1 -5,1 h -5 -5 -5 -5 -5 l -5,-1 -5,-1 -5,-1 -5,-1 -5,-1 -4,-2 -4,-2 -4,-2 -4,-2 -4,-2 -4,-3 -4,-3 -4,-3 -4,-3 -3,-3 -3,-3 -3,-4 -3,-4 -3,-4 -2,-4 -2,-4 -2,-4 -2,-4 -1,-4 -1,-4 -1,-4 -1,-4 v -4 -4 -4 -4 -4 l 1,-4 1,-4 1,-4 1,-4 2,-4 2,-4 2,-4 2,-4 2,-4 3,-4 3,-4 3,-3 3,-3 3,-3 4,-3 4,-3 4,-3 4,-3 z m 158,-1966 109,-149 4,3 4,3 4,3 4,3 3,3 3,3 3,3 3,4 3,4 2,4 2,4 2,4 2,4 2,4 1,4 1,4 1,4 1,4 v 4 4 4 4 4 l -1,4 -1,4 -1,4 -1,4 -2,4 -2,4 -2,4 -2,4 -3,4 -3,4 -3,4 -3,3 -3,3 -4,3 -4,3 -4,3 -4,3 -4,2 -4,2 -4,2 -4,2 -4,2 -5,1 -5,1 -5,1 -5,1 -5,1 h -5 -5 -5 -5 -5 l -5,-1 -5,-1 -5,-1 -5,-1 -5,-2 -5,-2 -5,-2 -4,-2 -4,-2 z m -49,-241 158,91 -109,149 -158,-91 z m 0,0 -109,149 -4,-3 -4,-3 -4,-3 -4,-3 -3,-3 -3,-3 -3,-3 -3,-4 -3,-4 -2,-4 -2,-4 -2,-4 -2,-4 -2,-4 -1,-4 -1,-4 -1,-4 -1,-4 v -4 -4 -4 -4 -4 l 1,-4 1,-4 1,-4 1,-4 2,-4 2,-4 2,-4 2,-4 3,-4 3,-4 3,-4 3,-3 3,-3 4,-3 4,-3 4,-3 4,-3 4,-2 4,-2 4,-2 4,-2 4,-2 5,-1 5,-1 5,-1 5,-1 5,-1 h 5 5 5 5 5 l 5,1 5,1 5,1 5,1 5,2 5,2 5,2 4,2 4,2 z"
         class="fil5" /></g><path
       style="fill:none;stroke:#024541;stroke-width:155.02000427;stroke-linecap:round;stroke-linejoin:round"
       id="path48"
       d="m 6103,1507 c 1292,0 2338,1047 2338,2338 0,1292 -1047,2338 -2338,2338 -1291,0 -2338,-1047 -2338,-2338 0,-1292 1047,-2338 2338,-2338 z"
       class="fil6 str1" /></g></svg>