<?xml version="1.0" encoding="UTF-8" standalone="no"?>
<svg
   xmlns:dc="http://purl.org/dc/elements/1.1/"
   xmlns:cc="http://creativecommons.org/ns#"
   xmlns:rdf="http://www.w3.org/1999/02/22-rdf-syntax-ns#"
   xmlns:svg="http://www.w3.org/2000/svg"
   xmlns="http://www.w3.org/2000/svg"
   id="svg121"
   viewBox="0 0 12197.192 7699.8154"
   style="clip-rule:evenodd;fill-rule:evenodd;image-rendering:optimizeQuality;shape-rendering:geometricPrecision;text-rendering:geometricPrecision"
   version="1.1"
   height="291"
   width="461"
   xml:space="preserve"><metadata
     id="metadata125"><rdf:RDF><cc:Work
         rdf:about=""><dc:format>image/svg+xml</dc:format><dc:type
           rdf:resource="http://purl.org/dc/dcmitype/StillImage" /><dc:title></dc:title></cc:Work></rdf:RDF></metadata><defs
     id="defs11"><style
       id="style2"
       type="text/css"><![CDATA[
    .str2 {stroke:#AB8082;stroke-width:7.62}
    .str3 {stroke:#CC7588;stroke-width:7.62}
    .str6 {stroke:#CC7588;stroke-width:30}
    .str5 {stroke:#AB8082;stroke-width:5.76}
    .str4 {stroke:#CC7588;stroke-width:47.89;stroke-linecap:round;stroke-linejoin:round}
    .str0 {stroke:#024541;stroke-width:81.85;stroke-linecap:round;stroke-linejoin:round}
    .str1 {stroke:#4D897C;stroke-width:81.85;stroke-linecap:round;stroke-linejoin:round}
    .fil2 {fill:none}
    .fil5 {fill:none;fill-rule:nonzero}
    .fil1 {fill:#EBF2D9}
    .fil6 {fill:#4D897C;fill-rule:nonzero}
    .fil3 {fill:#AB8082;fill-rule:nonzero}
    .fil4 {fill:#CC7588;fill-rule:nonzero}
    .fil0 {fill:url(#id0)}
   ]]></style><radialGradient
       fy="3845.28"
       fx="6103.0498"
       r="5785.5698"
       cy="3845.28"
       cx="6103.0498"
       gradientUnits="userSpaceOnUse"
       id="id0"><stop
         id="stop4"
         style="stop-color:#FEFEFE"
         offset="0" /><stop
         id="stop6"
         style="stop-color:#FEFEFE"
         offset="0.45098" /><stop
         id="stop8"
         style="stop-color:#D2E2F2"
         offset="1" /></radialGradient></defs><g
     transform="matrix(1.0540952,0,0,1.0913984,-334.54685,-347.065)"
     id="Layer_x0020_1"><metadata
       id="CorelCorpID_0Corel-Layer" /><polygon
       style="fill:url(#id0)"
       id="polygon14"
       points="317,7373 11889,7373 11889,318 317,318 "
       class="fil0" /><polygon
       style="fill:#ebf2d9;stroke:#024541;stroke-width:81.84999847;stroke-linecap:round;stroke-linejoin:round"
       id="polygon16"
       points="7544,4586 7544,2648 6252,2648 6252,4586 "
       class="fil1 str0" /><polygon
       style="fill:#ebf2d9;stroke:#024541;stroke-width:81.84999847;stroke-linecap:round;stroke-linejoin:round"
       id="polygon18"
       points="4066,4586 4066,2648 2774,2648 2774,4586 "
       class="fil1 str0" /><path
       style="fill:none;stroke:#4d897c;stroke-width:81.84999847;stroke-linecap:round;stroke-linejoin:round"
       id="path20"
       d="m 4215,4451 c 0,-646 0,-1292 0,-1938 -431,0 -861,0 -1292,0"
       class="fil2 str1" /><polygon
       style="fill:#ebf2d9;stroke:#024541;stroke-width:81.84999847;stroke-linecap:round;stroke-linejoin:round"
       id="polygon22"
       points="5805,4586 5805,2648 4513,2648 4513,4586 "
       class="fil1 str0" /><path
       style="fill:none;stroke:#4d897c;stroke-width:81.84999847;stroke-linecap:round;stroke-linejoin:round"
       id="path24"
       d="m 5954,4451 c 0,-646 0,-1292 0,-1938 -431,0 -861,0 -1292,0"
       class="fil2 str1" /><path
       style="fill:#ab8082;fill-rule:nonzero;stroke:#ab8082;stroke-width:7.61999989"
       id="path26"
       d="m 6615,3693 c 0,-18 7,-32 19,-38 l 71,-32 c 35,-15 43,-43 43,-69 v -2 c 0,-44 -25,-69 -75,-69 h -24 c -40,0 -65,17 -65,58 0,10 5,18 18,18 13,0 18,-8 18,-18 0,-16 11,-23 28,-23 h 24 c 27,0 39,10 39,34 v 2 c 0,18 -6,29 -21,36 l -66,29 c -31,13 -46,43 -46,76 v 62 h 155 c 10,0 17,-5 17,-17 0,-12 -8,-17 -17,-17 h -119 v -31 z m 213,0 c 0,-18 7,-32 19,-38 l 71,-32 c 35,-15 43,-43 43,-69 v -2 c 0,-44 -25,-69 -75,-69 h -24 c -40,0 -65,17 -65,58 0,10 5,18 18,18 13,0 18,-8 18,-18 0,-16 11,-23 28,-23 h 24 c 27,0 39,10 39,34 v 2 c 0,18 -6,29 -21,36 l -66,29 c -31,13 -46,43 -46,76 v 62 h 156 c 10,0 17,-5 17,-17 0,-12 -8,-17 -17,-17 h -119 v -31 z m 348,-17 c 0,-32 -13,-57 -42,-66 18,-10 29,-27 29,-53 v -5 c 0,-44 -25,-69 -75,-69 h -21 c -40,0 -65,17 -65,58 0,10 5,18 18,18 13,0 18,-8 18,-18 0,-16 11,-23 28,-23 h 21 c 27,0 39,10 39,34 v 5 c 0,24 -14,42 -42,42 h -22 c -10,0 -17,5 -17,17 0,12 8,17 17,17 h 39 c 27,0 38,18 38,43 v 13 c 0,24 -12,38 -39,38 h -41 c -17,0 -28,-7 -28,-23 0,-10 -5,-18 -18,-18 -13,0 -18,8 -18,18 0,41 25,58 65,58 h 41 c 50,0 75,-29 75,-73 z"
       class="fil3 str2" /><path
       style="fill:#cc7588;fill-rule:nonzero;stroke:#cc7588;stroke-width:7.61999989"
       id="path28"
       d="m 6893,3893 c -10,0 -14,7 -14,14 v 120 h -46 v -120 c 0,-7 -4,-14 -14,-14 -10,0 -14,7 -14,14 v 120 h -46 v -120 c 0,-7 -4,-14 -14,-14 -10,0 -14,7 -14,14 v 132 c 0,8 4,14 14,14 h 146 c 10,0 14,-6 14,-14 v -132 c 0,-7 -4,-14 -14,-14 z m 157,3 h -100 c -7,0 -13,3 -13,13 0,9 6,13 13,13 h 37 v 120 c 0,7 4,14 14,14 10,0 14,-7 14,-14 v -120 h 36 c 7,0 13,-4 13,-13 0,-10 -6,-13 -13,-13 z"
       class="fil4 str3" /><polyline
       style="fill:none;fill-rule:nonzero;stroke:#4d897c;stroke-width:81.84999847;stroke-linecap:round;stroke-linejoin:round"
       id="polyline30"
       points="7842,4316 7842,2377 6550,2377 "
       class="fil5 str1" /><path
       style="fill:none;fill-rule:nonzero;stroke:#4d897c;stroke-width:81.84999847;stroke-linecap:round;stroke-linejoin:round"
       id="path32"
       d="m 7693,4451 c 0,-646 0,-1292 0,-1938 -431,0 -861,0 -1292,0"
       class="fil5 str1" /><path
       style="fill:none;fill-rule:nonzero;stroke:#cc7588;stroke-width:47.88999939;stroke-linecap:round;stroke-linejoin:round"
       id="path34"
       d="m 6576,4154 c -114,-93 -187,-235 -187,-394 0,-159 73,-300 187,-394 m 643,0 c 114,93 187,235 187,394 0,159 -73,300 -187,394"
       class="fil5 str4" /><path
       style="fill:#ab8082;fill-rule:nonzero;stroke:#ab8082;stroke-width:7.61999989"
       id="path36"
       d="m 5098,3487 c -10,0 -17,5 -17,17 v 104 c 0,12 8,17 17,17 h 73 c 27,0 39,14 39,38 v 24 c 0,24 -12,38 -39,38 h -34 c -17,0 -28,-7 -28,-23 0,-10 -5,-18 -18,-18 -13,0 -18,8 -18,18 0,41 25,58 65,58 h 34 c 50,0 75,-29 75,-73 v -24 c 0,-44 -25,-73 -75,-73 h -54 v -69 h 100 c 10,0 17,-5 17,-17 0,-12 -8,-17 -17,-17 h -119 z"
       class="fil3 str2" /><path
       style="fill:#cc7588;fill-rule:nonzero;stroke:#cc7588;stroke-width:7.61999989"
       id="path38"
       d="m 5154,3893 c -10,0 -14,7 -14,14 v 120 h -46 v -120 c 0,-7 -4,-14 -14,-14 -10,0 -14,7 -14,14 v 120 h -46 v -120 c 0,-7 -4,-14 -14,-14 -10,0 -14,7 -14,14 v 132 c 0,8 4,14 14,14 h 146 c 10,0 14,-6 14,-14 v -132 c 0,-7 -4,-14 -14,-14 z m 157,3 h -100 c -7,0 -13,3 -13,13 0,9 6,13 13,13 h 37 v 120 c 0,7 4,14 14,14 10,0 14,-7 14,-14 v -120 h 36 c 7,0 13,-4 13,-13 0,-10 -6,-13 -13,-13 z"
       class="fil4 str3" /><path
       style="fill:none;fill-rule:nonzero;stroke:#cc7588;stroke-width:47.88999939;stroke-linecap:round;stroke-linejoin:round"
       id="path40"
       d="m 4838,4154 c -114,-93 -187,-235 -187,-394 0,-159 73,-300 187,-394 m 643,0 c 114,93 187,235 187,394 0,159 -73,300 -187,394"
       class="fil5 str4" /><path
       style="fill:#ab8082;fill-rule:nonzero;stroke:#ab8082;stroke-width:7.61999989"
       id="path42"
       d="m 3303,3481 c -6,0 -10,3 -14,6 -19,21 -40,42 -63,62 -7,7 -10,15 0,24 9,9 17,5 24,0 14,-12 28,-26 40,-41 v 188 h -48 c -10,0 -17,5 -17,17 0,12 8,17 17,17 h 125 c 10,0 17,-5 17,-17 0,-12 -8,-17 -17,-17 h -41 v -222 c 0,-10 -3,-18 -17,-18 h -7 z m 148,4 c -10,0 -17,5 -17,17 v 104 c 0,12 8,17 17,17 h 73 c 27,0 39,14 39,38 v 24 c 0,24 -12,38 -39,38 h -34 c -17,0 -28,-7 -28,-23 0,-10 -5,-18 -18,-18 -13,0 -18,8 -18,18 0,41 25,58 65,58 h 34 c 50,0 75,-29 75,-73 v -24 c 0,-44 -25,-73 -75,-73 h -54 v -69 h 100 c 10,0 17,-5 17,-17 0,-12 -8,-17 -17,-17 h -119 z"
       class="fil3 str2" /><path
       style="fill:#cc7588;fill-rule:nonzero;stroke:#cc7588;stroke-width:7.61999989"
       id="path44"
       d="m 3415,3893 c -10,0 -14,7 -14,14 v 120 h -46 v -120 c 0,-7 -4,-14 -14,-14 -10,0 -14,7 -14,14 v 120 h -46 v -120 c 0,-7 -4,-14 -14,-14 -10,0 -14,7 -14,14 v 132 c 0,8 4,14 14,14 h 146 c 10,0 14,-6 14,-14 v -132 c 0,-7 -4,-14 -14,-14 z m 157,3 h -100 c -7,0 -13,3 -13,13 0,9 6,13 13,13 h 37 v 120 c 0,7 4,14 14,14 10,0 14,-7 14,-14 v -120 h 36 c 7,0 13,-4 13,-13 0,-10 -6,-13 -13,-13 z"
       class="fil4 str3" /><path
       style="fill:none;fill-rule:nonzero;stroke:#cc7588;stroke-width:47.88999939;stroke-linecap:round;stroke-linejoin:round"
       id="path46"
       d="m 3099,4154 c -114,-93 -187,-235 -187,-394 0,-159 73,-300 187,-394 m 643,0 c 114,93 187,235 187,394 0,159 -73,300 -187,394"
       class="fil5 str4" /><polygon
       style="fill:#ebf2d9;stroke:#024541;stroke-width:81.84999847;stroke-linecap:round;stroke-linejoin:round"
       id="polygon48"
       points="2179,4586 2179,2648 887,2648 887,4586 "
       class="fil1 str0" /><polyline
       style="fill:none;stroke:#4d897c;stroke-width:81.84999847;stroke-linecap:round;stroke-linejoin:round"
       id="polyline50"
       points="2477,4316 2477,2377 1184,2377 "
       class="fil2 str1" /><path
       style="fill:none;stroke:#4d897c;stroke-width:81.84999847;stroke-linecap:round;stroke-linejoin:round"
       id="path52"
       d="m 2328,4451 c 0,-646 0,-1292 0,-1938 -431,0 -861,0 -1292,0"
       class="fil2 str1" /><path
       style="fill:#ab8082;fill-rule:nonzero;stroke:#ab8082;stroke-width:5.76000023"
       id="path54"
       d="m 1257,3478 c -61,37 -81,86 -81,147 v 57 c 0,44 25,73 75,73 h 22 c 50,0 75,-27 75,-71 v -19 c 0,-44 -25,-75 -75,-75 h -59 c 5,-32 23,-57 62,-81 8,-5 14,-15 7,-26 -7,-11 -18,-10 -27,-5 z m -6,242 c -27,0 -39,-14 -39,-38 v -58 h 62 c 27,0 39,15 39,40 v 19 c 0,24 -12,36 -39,36 h -22 z m 205,-147 c 0,-39 14,-62 45,-62 h 14 c 31,0 44,24 44,62 v 84 c 0,39 -14,62 -44,62 h -14 c -31,0 -45,-24 -45,-62 z m 139,0 c 0,-59 -27,-97 -81,-97 h -14 c -53,0 -81,38 -81,97 v 84 c 0,59 28,97 81,97 h 14 c 53,0 81,-38 81,-97 z m 73,0 h -73 z"
       class="fil3 str5" /><path
       style="fill:#cc7588;fill-rule:nonzero;stroke:#cc7588;stroke-width:7.61999989"
       id="path56"
       d="m 1527,3893 c -10,0 -14,7 -14,14 v 120 h -46 v -120 c 0,-7 -4,-14 -14,-14 -10,0 -14,7 -14,14 v 120 h -46 v -120 c 0,-7 -4,-14 -14,-14 -10,0 -14,7 -14,14 v 132 c 0,8 4,14 14,14 h 146 c 10,0 14,-6 14,-14 v -132 c 0,-7 -4,-14 -14,-14 z m 157,3 h -100 c -7,0 -13,3 -13,13 0,9 6,13 13,13 h 37 v 120 c 0,7 4,14 14,14 10,0 14,-7 14,-14 v -120 h 36 c 7,0 13,-4 13,-13 0,-10 -6,-13 -13,-13 z"
       class="fil4 str3" /><path
       style="fill:none;fill-rule:nonzero;stroke:#cc7588;stroke-width:47.88999939;stroke-linecap:round;stroke-linejoin:round"
       id="path58"
       d="m 1211,4154 c -114,-93 -187,-235 -187,-394 0,-159 73,-300 187,-394 m 643,0 c 114,93 187,235 187,394 0,159 -73,300 -187,394"
       class="fil5 str4" /><path
       style="fill:#4d897c;fill-rule:nonzero"
       id="path60"
       d="m 1053,3107 h -21 v -43 h 47 c 5,0 10,-3 10,-10 0,-7 -5,-10 -10,-10 h -58 c -7,0 -11,4 -11,10 v 142 c 0,6 3,11 11,11 h 32 c 30,0 43,-16 43,-42 v -13 c 0,-26 -13,-43 -43,-43 z m 22,57 c 0,14 -6,21 -22,21 h -21 v -58 h 21 c 16,0 22,9 22,23 z m 132,-123 h -2 c -31,0 -43,26 -43,52 v 17 h -19 v -58 c 0,-6 -2,-11 -10,-11 -7,0 -10,5 -10,11 v 146 c 0,6 3,11 10,11 8,0 10,-5 10,-11 v -67 h 19 v 35 c 0,26 13,43 43,43 h 2 c 29,0 43,-20 43,-45 v -77 c 0,-26 -13,-45 -43,-45 z m 21,122 c 0,14 -5,24 -21,24 h -2 c -16,0 -21,-7 -21,-22 v -73 c 0,-14 4,-31 21,-31 h 2 c 16,0 21,10 21,24 v 77 z m 82,14 c 0,-5 8,-112 8,-112 h 33 v 133 c 0,6 3,11 11,11 7,0 11,-5 11,-11 v -144 c 0,-6 -3,-11 -11,-11 h -53 c -7,0 -11,5 -11,11 0,0 -7,115 -8,117 0,3 0,7 -2,10 -2,4 -6,7 -11,7 -6,0 -11,3 -11,11 0,8 5,10 11,10 16,0 26,-7 31,-18 2,-4 3,-10 3,-14 z m 124,0 c 0,-5 8,-112 8,-112 h 33 v 133 c 0,6 3,11 11,11 7,0 11,-5 11,-11 v -144 c 0,-6 -3,-11 -11,-11 h -53 c -7,0 -11,5 -11,11 0,0 -7,115 -8,117 0,3 0,7 -2,10 -2,4 -6,7 -11,7 -6,0 -11,3 -11,11 0,8 5,10 11,10 16,0 26,-7 31,-18 2,-4 3,-10 3,-14 z m 167,29 c 5,0 10,-3 10,-10 0,-7 -5,-10 -10,-10 h -50 v -52 h 39 c 5,0 10,-3 10,-10 0,-7 -5,-10 -10,-10 h -39 v -48 h 50 c 5,0 10,-3 10,-10 0,-7 -5,-10 -10,-10 h -61 c -7,0 -11,5 -11,11 v 141 c 0,6 3,11 11,11 h 61 z m 58,-8 c 0,6 3,11 11,11 7,0 11,-5 11,-11 v -133 h 27 c 5,0 10,-3 10,-10 0,-7 -5,-10 -10,-10 h -75 c -5,0 -10,3 -10,10 0,7 5,10 10,10 h 27 v 133 z m 150,8 c 5,0 10,-3 10,-10 0,-7 -5,-10 -10,-10 h -50 v -52 h 39 c 5,0 10,-3 10,-10 0,-7 -5,-10 -10,-10 h -39 v -48 h 50 c 5,0 10,-3 10,-10 0,-7 -5,-10 -10,-10 h -61 c -7,0 -11,5 -11,11 v 141 c 0,6 3,11 11,11 h 61 z m 125,-154 c 0,-6 -3,-11 -11,-11 -8,0 -11,5 -11,11 v 58 h -47 v -58 c 0,-6 -3,-11 -11,-11 -7,0 -11,5 -11,11 v 146 c 0,6 3,11 11,11 8,0 11,-5 11,-11 v -67 h 47 v 67 c 0,6 3,11 11,11 7,0 11,-5 11,-11 z m 79,55 h -23 v -55 c 0,-6 -3,-11 -11,-11 -8,0 -11,5 -11,11 v 143 c 0,6 3,11 11,11 h 35 c 30,0 43,-16 43,-42 v -14 c 0,-26 -13,-44 -43,-44 z m -23,21 h 23 c 16,0 22,9 22,23 v 14 c 0,14 -6,21 -22,21 h -23 z"
       class="fil6" /><path
       style="fill:#4d897c;fill-rule:nonzero"
       id="path62"
       d="m 4679,3107 h -21 v -43 h 47 c 5,0 10,-3 10,-10 0,-7 -5,-10 -10,-10 h -58 c -7,0 -11,4 -11,10 v 142 c 0,6 3,11 11,11 h 32 c 30,0 43,-16 43,-42 v -13 c 0,-26 -13,-43 -43,-43 z m 22,57 c 0,14 -6,21 -22,21 h -21 v -58 h 21 c 16,0 22,9 22,23 z m 132,-123 h -2 c -31,0 -43,26 -43,52 v 17 h -19 v -58 c 0,-6 -2,-11 -10,-11 -7,0 -10,5 -10,11 v 146 c 0,6 3,11 10,11 8,0 10,-5 10,-11 v -67 h 19 v 35 c 0,26 13,43 43,43 h 2 c 29,0 43,-20 43,-45 v -77 c 0,-26 -13,-45 -43,-45 z m 21,122 c 0,14 -5,24 -21,24 h -2 c -16,0 -21,-7 -21,-22 v -73 c 0,-14 4,-31 21,-31 h 2 c 16,0 21,10 21,24 v 77 z m 82,14 c 0,-5 8,-112 8,-112 h 33 v 133 c 0,6 3,11 11,11 7,0 11,-5 11,-11 v -144 c 0,-6 -3,-11 -11,-11 h -53 c -7,0 -11,5 -11,11 0,0 -7,115 -8,117 0,3 0,7 -2,10 -2,4 -6,7 -11,7 -6,0 -11,3 -11,11 0,8 5,10 11,10 16,0 26,-7 31,-18 2,-4 3,-10 3,-14 z m 124,0 c 0,-5 8,-112 8,-112 h 33 v 133 c 0,6 3,11 11,11 7,0 11,-5 11,-11 v -144 c 0,-6 -3,-11 -11,-11 h -53 c -7,0 -11,5 -11,11 0,0 -7,115 -8,117 0,3 0,7 -2,10 -2,4 -6,7 -11,7 -6,0 -11,3 -11,11 0,8 5,10 11,10 16,0 26,-7 31,-18 2,-4 3,-10 3,-14 z m 167,29 c 5,0 10,-3 10,-10 0,-7 -5,-10 -10,-10 h -50 v -52 h 39 c 5,0 10,-3 10,-10 0,-7 -5,-10 -10,-10 h -39 v -48 h 50 c 5,0 10,-3 10,-10 0,-7 -5,-10 -10,-10 h -61 c -7,0 -11,5 -11,11 v 141 c 0,6 3,11 11,11 h 61 z m 58,-8 c 0,6 3,11 11,11 7,0 11,-5 11,-11 v -133 h 27 c 5,0 10,-3 10,-10 0,-7 -5,-10 -10,-10 h -75 c -5,0 -10,3 -10,10 0,7 5,10 10,10 h 27 v 133 z m 150,8 c 5,0 10,-3 10,-10 0,-7 -5,-10 -10,-10 h -50 v -52 h 40 c 5,0 10,-3 10,-10 0,-7 -5,-10 -10,-10 h -40 v -48 h 50 c 5,0 10,-3 10,-10 0,-7 -5,-10 -10,-10 h -61 c -7,0 -11,5 -11,11 v 141 c 0,6 3,11 11,11 h 61 z m 125,-154 c 0,-6 -3,-11 -11,-11 -8,0 -11,5 -11,11 v 58 h -47 v -58 c 0,-6 -3,-11 -11,-11 -7,0 -11,5 -11,11 v 146 c 0,6 3,11 11,11 8,0 11,-5 11,-11 v -67 h 47 v 67 c 0,6 3,11 11,11 7,0 11,-5 11,-11 z m 79,55 h -23 v -55 c 0,-6 -3,-11 -11,-11 -8,0 -11,5 -11,11 v 143 c 0,6 3,11 11,11 h 35 c 30,0 43,-16 43,-42 v -14 c 0,-26 -13,-44 -43,-44 z m -23,21 h 23 c 16,0 22,9 22,23 v 14 c 0,14 -6,21 -22,21 h -23 z"
       class="fil6" /><path
       style="fill:#4d897c;fill-rule:nonzero"
       id="path64"
       d="m 6418,3107 h -21 v -43 h 47 c 5,0 10,-3 10,-10 0,-7 -5,-10 -10,-10 h -58 c -7,0 -11,4 -11,10 v 142 c 0,6 3,11 11,11 h 32 c 30,0 43,-16 43,-42 v -13 c 0,-26 -13,-43 -43,-43 z m 22,57 c 0,14 -6,21 -22,21 h -21 v -58 h 21 c 16,0 22,9 22,23 z m 132,-123 h -2 c -31,0 -43,26 -43,52 v 17 h -19 v -58 c 0,-6 -2,-11 -10,-11 -7,0 -10,5 -10,11 v 146 c 0,6 3,11 10,11 8,0 10,-5 10,-11 v -67 h 19 v 35 c 0,26 13,43 43,43 h 2 c 30,0 43,-20 43,-45 v -77 c 0,-26 -13,-45 -43,-45 z m 21,122 c 0,14 -5,24 -21,24 h -2 c -16,0 -21,-7 -21,-22 v -73 c 0,-14 4,-31 21,-31 h 2 c 16,0 21,10 21,24 v 77 z m 82,14 c 0,-5 8,-112 8,-112 h 33 v 133 c 0,6 3,11 11,11 7,0 11,-5 11,-11 v -144 c 0,-6 -3,-11 -11,-11 h -53 c -7,0 -11,5 -11,11 0,0 -7,115 -8,117 0,3 0,7 -2,10 -2,4 -6,7 -11,7 -6,0 -11,3 -11,11 0,8 5,10 11,10 16,0 26,-7 31,-18 2,-4 3,-10 3,-14 z m 124,0 c 0,-5 8,-112 8,-112 h 33 v 133 c 0,6 3,11 11,11 7,0 11,-5 11,-11 v -144 c 0,-6 -3,-11 -11,-11 h -53 c -7,0 -11,5 -11,11 0,0 -7,115 -8,117 0,3 0,7 -2,10 -2,4 -6,7 -11,7 -6,0 -11,3 -11,11 0,8 5,10 11,10 16,0 26,-7 31,-18 2,-4 3,-10 3,-14 z m 167,29 c 5,0 10,-3 10,-10 0,-7 -5,-10 -10,-10 h -50 v -52 h 39 c 5,0 10,-3 10,-10 0,-7 -5,-10 -10,-10 h -39 v -48 h 50 c 5,0 10,-3 10,-10 0,-7 -5,-10 -10,-10 h -61 c -7,0 -11,5 -11,11 v 141 c 0,6 3,11 11,11 h 61 z m 58,-8 c 0,6 3,11 11,11 7,0 11,-5 11,-11 v -133 h 27 c 5,0 10,-3 10,-10 0,-7 -5,-10 -10,-10 h -76 c -5,0 -10,3 -10,10 0,7 5,10 10,10 h 27 z m 150,8 c 5,0 10,-3 10,-10 0,-7 -5,-10 -10,-10 h -50 v -52 h 39 c 5,0 10,-3 10,-10 0,-7 -5,-10 -10,-10 h -39 v -48 h 50 c 5,0 10,-3 10,-10 0,-7 -5,-10 -10,-10 h -61 c -7,0 -11,5 -11,11 v 141 c 0,6 3,11 11,11 h 61 z m 125,-154 c 0,-6 -3,-11 -11,-11 -8,0 -11,5 -11,11 v 58 h -47 v -58 c 0,-6 -3,-11 -11,-11 -7,0 -11,5 -11,11 v 146 c 0,6 3,11 11,11 8,0 11,-5 11,-11 v -67 h 47 v 67 c 0,6 3,11 11,11 7,0 11,-5 11,-11 z m 79,55 h -23 v -55 c 0,-6 -3,-11 -11,-11 -8,0 -11,5 -11,11 v 143 c 0,6 3,11 11,11 h 35 c 30,0 43,-16 43,-42 v -14 c 0,-26 -13,-44 -43,-44 z m -23,21 h 23 c 16,0 22,9 22,23 v 14 c 0,14 -6,21 -22,21 h -23 z"
       class="fil6" /><path
       style="fill:#4d897c;fill-rule:nonzero"
       id="path66"
       d="m 2940,3107 h -21 v -43 h 47 c 5,0 10,-3 10,-10 0,-7 -5,-10 -10,-10 h -58 c -7,0 -11,4 -11,10 v 142 c 0,6 3,11 11,11 h 32 c 30,0 43,-16 43,-42 v -13 c 0,-26 -13,-43 -43,-43 z m 22,57 c 0,14 -6,21 -22,21 h -21 v -58 h 21 c 16,0 22,9 22,23 z m 132,-123 h -2 c -31,0 -43,26 -43,52 v 17 h -19 v -58 c 0,-6 -2,-11 -10,-11 -7,0 -10,5 -10,11 v 146 c 0,6 3,11 10,11 8,0 10,-5 10,-11 v -67 h 19 v 35 c 0,26 13,43 43,43 h 2 c 30,0 43,-20 43,-45 v -77 c 0,-26 -13,-45 -43,-45 z m 21,122 c 0,14 -5,24 -21,24 h -2 c -16,0 -21,-7 -21,-22 v -73 c 0,-14 4,-31 21,-31 h 2 c 16,0 21,10 21,24 v 77 z m 82,14 c 0,-5 8,-112 8,-112 h 33 v 133 c 0,6 3,11 11,11 7,0 11,-5 11,-11 v -144 c 0,-6 -3,-11 -11,-11 h -53 c -7,0 -11,5 -11,11 0,0 -7,115 -8,117 0,3 0,7 -2,10 -2,4 -6,7 -11,7 -6,0 -11,3 -11,11 0,8 5,10 11,10 17,0 26,-7 31,-18 2,-4 3,-10 3,-14 z m 124,0 c 0,-5 8,-112 8,-112 h 33 v 133 c 0,6 3,11 11,11 7,0 11,-5 11,-11 v -144 c 0,-6 -3,-11 -11,-11 h -53 c -7,0 -11,5 -11,11 0,0 -7,115 -8,117 0,3 0,7 -2,10 -2,4 -6,7 -11,7 -6,0 -11,3 -11,11 0,8 5,10 11,10 16,0 26,-7 31,-18 2,-4 3,-10 3,-14 z m 167,29 c 5,0 10,-3 10,-10 0,-7 -5,-10 -10,-10 h -50 v -52 h 39 c 5,0 10,-3 10,-10 0,-7 -5,-10 -10,-10 h -39 v -48 h 50 c 5,0 10,-3 10,-10 0,-7 -5,-10 -10,-10 h -61 c -7,0 -11,5 -11,11 v 141 c 0,6 3,11 11,11 h 61 z m 58,-8 c 0,6 3,11 11,11 7,0 11,-5 11,-11 v -133 h 27 c 5,0 10,-3 10,-10 0,-7 -5,-10 -10,-10 h -75 c -5,0 -10,3 -10,10 0,7 5,10 10,10 h 27 v 133 z m 150,8 c 5,0 10,-3 10,-10 0,-7 -5,-10 -10,-10 h -50 v -52 h 39 c 5,0 10,-3 10,-10 0,-7 -5,-10 -10,-10 h -39 v -48 h 50 c 5,0 10,-3 10,-10 0,-7 -5,-10 -10,-10 h -61 c -7,0 -11,5 -11,11 v 141 c 0,6 3,11 11,11 h 61 z m 125,-154 c 0,-6 -4,-11 -11,-11 -8,0 -11,5 -11,11 v 58 h -47 v -58 c 0,-6 -3,-11 -11,-11 -7,0 -11,5 -11,11 v 146 c 0,6 3,11 11,11 8,0 11,-5 11,-11 v -67 h 47 v 67 c 0,6 3,11 11,11 7,0 11,-5 11,-11 z m 79,55 h -23 v -55 c 0,-6 -3,-11 -11,-11 -8,0 -11,5 -11,11 v 143 c 0,6 3,11 11,11 h 35 c 30,0 43,-16 43,-42 v -14 c 0,-26 -13,-44 -43,-44 z m -23,21 h 23 c 16,0 22,9 22,23 v 14 c 0,14 -6,21 -22,21 h -23 z"
       class="fil6" /><polygon
       style="fill:#ebf2d9;stroke:#024541;stroke-width:81.84999847;stroke-linecap:round;stroke-linejoin:round"
       id="polygon68"
       points="11022,4586 11022,2648 9730,2648 9730,4586 "
       class="fil1 str0" /><polygon
       style="fill:#ebf2d9;stroke:#024541;stroke-width:81.84999847;stroke-linecap:round;stroke-linejoin:round"
       id="polygon70"
       points="9283,4586 9283,2648 7991,2648 7991,4586 "
       class="fil1 str0" /><path
       style="fill:none;stroke:#4d897c;stroke-width:81.84999847;stroke-linecap:round;stroke-linejoin:round"
       id="path72"
       d="m 9432,4451 c 0,-646 0,-1292 0,-1938 -431,0 -861,0 -1292,0"
       class="fil2 str1" /><path
       style="fill:#ab8082;fill-rule:nonzero;stroke:#ab8082;stroke-width:7.61999989"
       id="path74"
       d="m 10229,3676 c 0,-32 -13,-57 -42,-66 18,-10 29,-27 29,-53 v -5 c 0,-44 -25,-69 -75,-69 h -21 c -40,0 -65,17 -65,58 0,10 5,18 18,18 13,0 18,-8 18,-18 0,-16 11,-23 28,-23 h 21 c 27,0 39,10 39,34 v 5 c 0,24 -14,42 -42,42 h -22 c -10,0 -17,5 -17,17 0,12 8,17 17,17 h 39 c 27,0 38,18 38,43 v 13 c 0,24 -12,38 -39,38 h -41 c -17,0 -28,-7 -28,-23 0,-10 -5,-18 -18,-18 -13,0 -18,8 -18,18 0,41 25,58 65,58 h 41 c 50,0 75,-29 75,-73 z m 77,17 c 0,-18 7,-32 19,-38 l 71,-32 c 35,-15 43,-43 43,-69 v -2 c 0,-44 -25,-69 -75,-69 h -24 c -40,0 -65,17 -65,58 0,10 5,18 18,18 13,0 18,-8 18,-18 0,-16 11,-23 28,-23 h 24 c 27,0 39,10 39,34 v 2 c 0,18 -6,29 -21,36 l -66,29 c -31,13 -46,43 -46,76 v 62 h 156 c 10,0 17,-5 17,-17 0,-12 -8,-17 -17,-17 h -119 v -31 z m 228,51 c 0,10 5,18 18,18 13,0 18,-8 18,-18 v -33 c 0,-55 11,-88 38,-132 l 40,-65 c 10,-15 3,-27 -15,-27 h -144 c -10,0 -17,5 -17,17 0,12 8,17 17,17 h 114 l -25,38 c -35,53 -44,89 -44,151 v 33 z"
       class="fil3 str2" /><path
       style="fill:#cc7588;fill-rule:nonzero;stroke:#cc7588;stroke-width:7.61999989"
       id="path76"
       d="m 10370,3893 c -10,0 -14,7 -14,14 v 120 h -46 v -120 c 0,-7 -4,-14 -14,-14 -10,0 -14,7 -14,14 v 120 h -46 v -120 c 0,-7 -4,-14 -14,-14 -10,0 -14,7 -14,14 v 132 c 0,8 4,14 14,14 h 146 c 10,0 14,-6 14,-14 v -132 c 0,-7 -4,-14 -14,-14 z m 157,3 h -100 c -7,0 -13,3 -13,13 0,9 6,13 13,13 h 37 v 120 c 0,7 4,14 14,14 10,0 14,-7 14,-14 v -120 h 36 c 7,0 13,-4 13,-13 0,-10 -6,-13 -13,-13 z"
       class="fil4 str3" /><polyline
       style="fill:none;fill-rule:nonzero;stroke:#4d897c;stroke-width:81.84999847;stroke-linecap:round;stroke-linejoin:round"
       id="polyline78"
       points="11320,4316 11320,2377 10027,2377 "
       class="fil5 str1" /><path
       style="fill:none;fill-rule:nonzero;stroke:#4d897c;stroke-width:81.84999847;stroke-linecap:round;stroke-linejoin:round"
       id="path80"
       d="m 11171,4451 c 0,-646 0,-1292 0,-1938 -431,0 -861,0 -1292,0"
       class="fil5 str1" /><path
       style="fill:none;fill-rule:nonzero;stroke:#cc7588;stroke-width:47.88999939;stroke-linecap:round;stroke-linejoin:round"
       id="path82"
       d="m 10054,4154 c -114,-93 -187,-235 -187,-394 0,-159 73,-300 187,-394 m 643,0 c 114,93 187,235 187,394 0,159 -73,300 -187,394"
       class="fil5 str4" /><path
       style="fill:#ab8082;fill-rule:nonzero;stroke:#ab8082;stroke-width:7.61999989"
       id="path84"
       d="m 8549,3744 c 0,10 5,18 18,18 13,0 18,-8 18,-18 v -63 h 20 c 10,0 17,-5 17,-17 0,-12 -8,-17 -17,-17 h -20 v -75 c 0,-10 -5,-18 -18,-18 -13,0 -18,8 -18,18 v 75 h -84 c 19,-44 36,-99 44,-147 2,-9 1,-19 -12,-22 -12,-3 -20,3 -22,13 -12,62 -30,114 -50,161 -2,5 -2,9 -2,14 0,12 8,17 17,17 h 109 v 63 z m 131,-163 c 0,-39 14,-62 45,-62 h 14 c 31,0 44,24 44,62 v 84 c 0,39 -14,62 -44,62 h -14 c -31,0 -45,-24 -45,-62 z m 139,0 c 0,-59 -27,-97 -81,-97 h -14 c -53,0 -81,38 -81,97 v 84 c 0,59 28,97 81,97 h 14 c 53,0 81,-38 81,-97 z"
       class="fil3 str2" /><path
       style="fill:#cc7588;fill-rule:nonzero;stroke:#cc7588;stroke-width:7.61999989"
       id="path86"
       d="m 8632,3893 c -10,0 -14,7 -14,14 v 120 h -46 v -120 c 0,-7 -4,-14 -14,-14 -10,0 -14,7 -14,14 v 120 h -46 v -120 c 0,-7 -4,-14 -14,-14 -10,0 -14,7 -14,14 v 132 c 0,8 4,14 14,14 h 146 c 10,0 14,-6 14,-14 v -132 c 0,-7 -4,-14 -14,-14 z m 157,3 h -100 c -7,0 -13,3 -13,13 0,9 6,13 13,13 h 37 v 120 c 0,7 4,14 14,14 10,0 14,-7 14,-14 v -120 h 36 c 7,0 13,-4 13,-13 0,-10 -6,-13 -13,-13 z"
       class="fil4 str3" /><path
       style="fill:none;fill-rule:nonzero;stroke:#cc7588;stroke-width:47.88999939;stroke-linecap:round;stroke-linejoin:round"
       id="path88"
       d="m 8315,4154 c -114,-93 -187,-235 -187,-394 0,-159 73,-300 187,-394 m 643,0 c 114,93 187,235 187,394 0,159 -73,300 -187,394"
       class="fil5 str4" /><path
       style="fill:#4d897c;fill-rule:nonzero"
       id="path90"
       d="m 8157,3107 h -21 v -43 h 47 c 5,0 10,-3 10,-10 0,-7 -5,-10 -10,-10 h -58 c -7,0 -11,4 -11,10 v 142 c 0,6 3,11 11,11 h 32 c 30,0 43,-16 43,-42 v -13 c 0,-26 -13,-43 -43,-43 z m 22,57 c 0,14 -6,21 -22,21 h -21 v -58 h 21 c 16,0 22,9 22,23 z m 132,-123 h -2 c -31,0 -43,26 -43,52 v 17 h -19 v -58 c 0,-6 -2,-11 -10,-11 -7,0 -10,5 -10,11 v 146 c 0,6 3,11 10,11 8,0 10,-5 10,-11 v -67 h 19 v 35 c 0,26 13,43 43,43 h 2 c 30,0 43,-20 43,-45 v -77 c 0,-26 -13,-45 -43,-45 z m 21,122 c 0,14 -5,24 -21,24 h -2 c -16,0 -21,-7 -21,-22 v -73 c 0,-14 4,-31 21,-31 h 2 c 16,0 21,10 21,24 v 77 z m 82,14 c 0,-5 8,-112 8,-112 h 33 v 133 c 0,6 3,11 11,11 7,0 11,-5 11,-11 v -144 c 0,-6 -3,-11 -11,-11 h -53 c -7,0 -11,5 -11,11 0,0 -7,115 -8,117 0,3 0,7 -2,10 -2,4 -6,7 -11,7 -6,0 -11,3 -11,11 0,8 5,10 11,10 17,0 26,-7 31,-18 2,-4 3,-10 3,-14 z m 124,0 c 0,-5 8,-112 8,-112 h 33 v 133 c 0,6 3,11 11,11 7,0 11,-5 11,-11 v -144 c 0,-6 -3,-11 -11,-11 h -53 c -7,0 -11,5 -11,11 0,0 -7,115 -8,117 0,3 0,7 -2,10 -2,4 -6,7 -11,7 -6,0 -11,3 -11,11 0,8 5,10 11,10 17,0 26,-7 31,-18 2,-4 3,-10 3,-14 z m 167,29 c 5,0 10,-3 10,-10 0,-7 -5,-10 -10,-10 h -50 v -52 h 39 c 5,0 10,-3 10,-10 0,-7 -5,-10 -10,-10 h -39 v -48 h 50 c 5,0 10,-3 10,-10 0,-7 -5,-10 -10,-10 h -61 c -7,0 -11,5 -11,11 v 141 c 0,6 3,11 11,11 h 61 z m 58,-8 c 0,6 3,11 11,11 7,0 11,-5 11,-11 v -133 h 27 c 5,0 10,-3 10,-10 0,-7 -5,-10 -10,-10 h -76 c -5,0 -10,3 -10,10 0,7 5,10 10,10 h 27 z m 150,8 c 5,0 10,-3 10,-10 0,-7 -5,-10 -10,-10 h -50 v -52 h 39 c 5,0 10,-3 10,-10 0,-7 -5,-10 -10,-10 h -39 v -48 h 50 c 5,0 10,-3 10,-10 0,-7 -5,-10 -10,-10 h -61 c -7,0 -11,5 -11,11 v 141 c 0,6 3,11 11,11 h 61 z m 125,-154 c 0,-6 -3,-11 -11,-11 -8,0 -11,5 -11,11 v 58 h -47 v -58 c 0,-6 -3,-11 -11,-11 -7,0 -11,5 -11,11 v 146 c 0,6 3,11 11,11 8,0 11,-5 11,-11 v -67 h 47 v 67 c 0,6 3,11 11,11 7,0 11,-5 11,-11 z m 79,55 h -23 v -55 c 0,-6 -3,-11 -11,-11 -8,0 -11,5 -11,11 v 143 c 0,6 3,11 11,11 h 35 c 30,0 43,-16 43,-42 v -14 c 0,-26 -13,-44 -43,-44 z m -23,21 h 23 c 16,0 22,9 22,23 v 14 c 0,14 -6,21 -22,21 h -23 z"
       class="fil6" /><path
       style="fill:#4d897c;fill-rule:nonzero"
       id="path92"
       d="m 9896,3107 h -21 v -43 h 47 c 5,0 10,-3 10,-10 0,-7 -5,-10 -10,-10 h -58 c -7,0 -11,4 -11,10 v 142 c 0,6 3,11 11,11 h 32 c 30,0 43,-16 43,-42 v -13 c 0,-26 -13,-43 -43,-43 z m 22,57 c 0,14 -6,21 -22,21 h -21 v -58 h 21 c 16,0 22,9 22,23 z m 132,-123 h -2 c -31,0 -43,26 -43,52 v 17 h -19 v -58 c 0,-6 -2,-11 -10,-11 -7,0 -10,5 -10,11 v 146 c 0,6 3,11 10,11 8,0 10,-5 10,-11 v -67 h 19 v 35 c 0,26 13,43 43,43 h 2 c 30,0 43,-20 43,-45 v -77 c 0,-26 -13,-45 -43,-45 z m 21,122 c 0,14 -5,24 -21,24 h -2 c -16,0 -21,-7 -21,-22 v -73 c 0,-14 4,-31 21,-31 h 2 c 16,0 21,10 21,24 v 77 z m 82,14 c 0,-5 8,-112 8,-112 h 33 v 133 c 0,6 3,11 11,11 7,0 11,-5 11,-11 v -144 c 0,-6 -3,-11 -11,-11 h -53 c -7,0 -11,5 -11,11 0,0 -7,115 -8,117 0,3 0,7 -2,10 -2,4 -6,7 -11,7 -6,0 -11,3 -11,11 0,8 5,10 11,10 17,0 26,-7 31,-18 2,-4 3,-10 3,-14 z m 124,0 c 0,-5 8,-112 8,-112 h 33 v 133 c 0,6 3,11 11,11 7,0 11,-5 11,-11 v -144 c 0,-6 -3,-11 -11,-11 h -53 c -7,0 -11,5 -11,11 0,0 -7,115 -8,117 0,3 0,7 -2,10 -2,4 -6,7 -11,7 -6,0 -11,3 -11,11 0,8 5,10 11,10 17,0 26,-7 31,-18 2,-4 3,-10 3,-14 z m 167,29 c 5,0 10,-3 10,-10 0,-7 -5,-10 -10,-10 h -50 v -52 h 39 c 5,0 10,-3 10,-10 0,-7 -5,-10 -10,-10 h -39 v -48 h 50 c 5,0 10,-3 10,-10 0,-7 -5,-10 -10,-10 h -61 c -7,0 -11,5 -11,11 v 141 c 0,6 3,11 11,11 h 61 z m 58,-8 c 0,6 3,11 11,11 7,0 11,-5 11,-11 v -133 h 27 c 5,0 10,-3 10,-10 0,-7 -5,-10 -10,-10 h -75 c -5,0 -10,3 -10,10 0,7 5,10 10,10 h 27 v 133 z m 150,8 c 5,0 10,-3 10,-10 0,-7 -5,-10 -10,-10 h -50 v -52 h 39 c 5,0 10,-3 10,-10 0,-7 -5,-10 -10,-10 h -39 v -48 h 50 c 5,0 10,-3 10,-10 0,-7 -5,-10 -10,-10 h -61 c -7,0 -11,5 -11,11 v 141 c 0,6 3,11 11,11 h 61 z m 125,-154 c 0,-6 -4,-11 -11,-11 -8,0 -11,5 -11,11 v 58 h -47 v -58 c 0,-6 -3,-11 -11,-11 -7,0 -11,5 -11,11 v 146 c 0,6 3,11 11,11 8,0 11,-5 11,-11 v -67 h 47 v 67 c 0,6 3,11 11,11 7,0 11,-5 11,-11 z m 79,55 h -23 v -55 c 0,-6 -3,-11 -11,-11 -8,0 -11,5 -11,11 v 143 c 0,6 3,11 11,11 h 35 c 30,0 43,-16 43,-42 v -14 c 0,-26 -13,-44 -43,-44 z m -23,21 h 23 c 16,0 22,9 22,23 v 14 c 0,14 -6,21 -22,21 h -23 z"
       class="fil6" /><path
       style="fill:#cc7588;fill-rule:nonzero;stroke:#cc7588;stroke-width:7.61999989"
       id="path94"
       d="m 1561,5332 c 0,-30 11,-54 33,-63 l 120,-54 c 59,-26 72,-72 72,-116 v -3 c 0,-75 -42,-117 -127,-117 h -40 c -67,0 -109,29 -109,98 0,17 8,31 31,31 22,0 31,-14 31,-31 0,-27 19,-39 48,-39 h 40 c 46,0 66,18 66,58 v 3 c 0,31 -10,50 -36,61 l -112,50 c -52,22 -77,72 -77,129 v 105 h 263 c 16,0 29,-8 29,-29 0,-21 -13,-29 -29,-29 h -201 v -52 z"
       class="fil4 str3" /><path
       style="fill:#cc7588;fill-rule:nonzero;stroke:#cc7588;stroke-width:7.61999989"
       id="path96"
       d="m 2736,5176 c 16,0 29,-8 29,-28 0,-20 -12,-28 -29,-28 h -233 c -16,0 -29,8 -29,28 0,20 12,28 29,28 z m 0,131 c 16,0 29,-8 29,-28 0,-20 -12,-28 -29,-28 h -233 c -16,0 -29,8 -29,28 0,20 12,28 29,28 z"
       class="fil4 str3" /><path
       style="fill:#cc7588;fill-rule:nonzero;stroke:#cc7588;stroke-width:7.61999989"
       id="path98"
       d="m 3673,5303 c 0,-54 -22,-96 -71,-111 31,-18 48,-46 48,-89 v -8 c 0,-75 -42,-117 -127,-117 h -35 c -67,0 -109,29 -109,98 0,17 8,31 31,31 22,0 31,-14 31,-31 0,-27 19,-39 48,-39 h 35 c 46,0 66,18 66,58 v 8 c 0,41 -24,71 -71,71 h -37 c -16,0 -29,8 -29,29 0,21 13,29 29,29 h 67 c 46,0 64,30 64,72 v 22 c 0,41 -20,65 -66,65 h -70 c -29,0 -48,-12 -48,-39 0,-17 -8,-31 -31,-31 -22,0 -31,14 -31,31 0,69 42,98 109,98 h 70 c 85,0 127,-48 127,-123 v -22 z"
       class="fil4 str3" /><path
       style="fill:#cc7588;fill-rule:nonzero;stroke:#cc7588;stroke-width:7.61999989"
       id="path100"
       d="m 4614,5239 c 16,0 29,-8 29,-28 0,-20 -12,-28 -29,-28 h -246 c -16,0 -29,8 -29,28 0,20 12,28 29,28 z"
       class="fil4 str3" /><path
       style="fill:#cc7588;fill-rule:nonzero;stroke:#cc7588;stroke-width:7.61999989"
       id="path102"
       d="m 5417,5418 c 0,17 8,31 30,31 22,0 30,-14 30,-31 v -106 h 33 c 16,0 29,-9 29,-29 0,-21 -13,-29 -29,-29 h -33 v -127 c 0,-17 -8,-31 -30,-31 -22,0 -30,14 -30,31 v 127 h -142 c 33,-74 60,-167 74,-248 3,-16 1,-33 -20,-38 -20,-5 -34,5 -37,22 -20,105 -51,193 -84,271 -4,9 -4,16 -4,23 0,21 13,29 29,29 h 184 v 106 z"
       class="fil4 str3" /><path
       style="fill:#cc7588;fill-rule:nonzero;stroke:#cc7588;stroke-width:7.61999989"
       id="path104"
       d="m 6263,5071 c 0,-16 -8,-29 -27,-29 -20,0 -29,12 -29,29 v 114 h -108 c -16,0 -29,8 -29,28 0,20 12,28 29,28 h 108 v 115 c 0,16 8,29 28,29 20,0 28,-12 28,-29 v -115 h 108 c 16,0 29,-8 29,-28 0,-20 -12,-28 -29,-28 h -108 z"
       class="fil4 str3" /><path
       style="fill:#cc7588;fill-rule:nonzero;stroke:#cc7588;stroke-width:7.61999989"
       id="path106"
       d="m 7021,4985 c -16,0 -29,8 -29,29 v 176 c 0,21 13,29 29,29 h 123 c 46,0 66,24 66,65 v 41 c 0,41 -20,65 -66,65 h -58 c -29,0 -48,-12 -48,-39 0,-17 -9,-31 -31,-31 -22,0 -31,14 -31,31 0,69 42,98 109,98 h 58 c 85,0 127,-48 127,-123 v -41 c 0,-75 -42,-123 -127,-123 h -91 v -117 h 169 c 16,0 29,-8 29,-29 0,-21 -13,-29 -29,-29 h -201 z"
       class="fil4 str3" /><path
       style="fill:#cc7588;fill-rule:nonzero;stroke:#cc7588;stroke-width:7.61999989"
       id="path108"
       d="m 7916,5071 c 0,-16 -8,-29 -27,-29 -20,0 -29,12 -29,29 v 114 h -108 c -16,0 -29,8 -29,28 0,20 12,28 29,28 h 108 v 115 c 0,16 8,29 28,29 20,0 28,-12 28,-29 v -115 h 108 c 16,0 29,-8 29,-28 0,-20 -12,-28 -29,-28 h -108 z"
       class="fil4 str3" /><path
       style="fill:#cc7588;fill-rule:nonzero;stroke:#cc7588;stroke-width:7.61999989"
       id="path110"
       d="m 8772,4981 c -104,62 -137,145 -137,248 v 97 c 0,75 42,123 127,123 h 38 c 85,0 127,-45 127,-120 v -33 c 0,-74 -42,-127 -127,-127 h -99 c 9,-54 39,-97 105,-137 14,-9 24,-25 12,-44 -12,-18 -31,-17 -45,-8 z m -10,409 c -46,0 -66,-24 -66,-65 v -97 h 104 c 46,0 66,26 66,68 v 33 c 0,41 -20,61 -66,61 z"
       class="fil4 str3" /><path
       style="fill:#cc7588;fill-rule:nonzero;stroke:#cc7588;stroke-width:30"
       id="path112"
       d="m 9656,5071 c 0,-16 -8,-29 -27,-29 -20,0 -29,12 -29,29 v 114 h -108 c -16,0 -29,8 -29,28 0,20 12,28 29,28 h 108 v 115 c 0,16 8,29 28,29 20,0 28,-12 28,-29 v -115 h 108 c 16,0 29,-8 29,-28 0,-20 -12,-28 -29,-28 h -108 z"
       class="fil4 str6" /><path
       style="fill:#cc7588;fill-rule:nonzero;stroke:#cc7588;stroke-width:7.61999989"
       id="path114"
       d="m 10464,5418 c 0,17 8,31 31,31 22,0 31,-14 31,-31 v -56 c 0,-92 18,-149 64,-223 l 68,-109 c 16,-26 5,-46 -25,-46 h -244 c -16,0 -29,8 -29,29 0,21 13,29 29,29 h 192 l -42,64 c -59,90 -75,150 -75,255 v 56 z"
       class="fil4 str3" /><polyline
       style="fill:none;fill-rule:nonzero;stroke:#4d897c;stroke-width:81.84999847;stroke-linecap:round;stroke-linejoin:round"
       id="polyline116"
       points="2625,4180 2625,2242 1333,2242 "
       class="fil5 str1" /><path
       style="fill:#ab8082;fill-rule:nonzero;stroke:#ab8082;stroke-width:5.76000023"
       id="path118"
       d="m 1811,3574 c 0,-39 -14,-62 -45,-62 h -14 c -31,0 -44,24 -44,62 v 84 c 0,39 14,62 44,62 h 14 c 31,0 45,-24 45,-62 z m -139,0 c 0,-59 27,-97 81,-97 h 14 c 53,0 81,38 81,97 v 84 c 0,59 -28,97 -81,97 h -14 c -53,0 -81,-38 -81,-97 z m -73,0 h 73 z"
       class="fil3 str5" /></g></svg>