<?xml version="1.0" encoding="UTF-8"?>
<!DOCTYPE svg PUBLIC "-//W3C//DTD SVG 1.1//EN" "http://www.w3.org/Graphics/SVG/1.1/DTD/svg11.dtd">
<!-- Creator: CorelDRAW X6 -->
<svg xmlns="http://www.w3.org/2000/svg" xml:space="preserve" width="122.061mm" height="76.9056mm" version="1.1" style="shape-rendering:geometricPrecision; text-rendering:geometricPrecision; image-rendering:optimizeQuality; fill-rule:evenodd; clip-rule:evenodd"
viewBox="0 0 12206 7691"
 xmlns:xlink="http://www.w3.org/1999/xlink">
 <defs>
  <style type="text/css">
   <![CDATA[
    .str0 {stroke:#CC7588;stroke-width:21.8}
    .str1 {stroke:#024541;stroke-width:60;stroke-linecap:round;stroke-linejoin:round}
    .str2 {stroke:#024541;stroke-width:82.76;stroke-linecap:round;stroke-linejoin:round}
    .str3 {stroke:#4D897C;stroke-width:82.77;stroke-linecap:round;stroke-linejoin:round}
    .fil7 {fill:none}
    .fil10 {fill:#024541}
    .fil5 {fill:#A75F4A}
    .fil4 {fill:#B7B0A7}
    .fil9 {fill:#CC6F3C}
    .fil1 {fill:#FEFEFE}
    .fil11 {fill:#00315E}
    .fil8 {fill:#FFCA9C}
    .fil6 {fill:#024541;fill-rule:nonzero}
    .fil2 {fill:#4D897C;fill-rule:nonzero}
    .fil3 {fill:#CC7588;fill-rule:nonzero}
    .fil0 {fill:url(#id0)}
   ]]>
  </style>
  <radialGradient id="id0" gradientUnits="userSpaceOnUse" cx="6103.05" cy="3845.28" r="5785.57" fx="6103.05" fy="3845.28">
   <stop offset="0" style="stop-color:#FEFEFE"/>
   <stop offset="0.45098" style="stop-color:#FEFEFE"/>
   <stop offset="1" style="stop-color:#D2E2F2"/>
  </radialGradient>
 </defs>
 <g id="Layer_x0020_1">
  <metadata id="CorelCorpID_0Corel-Layer"/>
  <polygon class="fil0" points="317,318 317,7373 11889,7373 11889,318 "/>
  <g>
   <path class="fil1" d="M9255 2611c0,1455 -2673,1962 -4537,1522l0 681 -820 -966c-570,-279 -947,-692 -947,-1238 0,-2234 6305,-2234 6305,0z"/>
   <path id="1" class="fil2" d="M4749 4133l-62 0 36 -42 176 38 180 33 184 27 187 22 189 16 191 11 191 5 192 0 191 -6 190 -11 189 -17 186 -23 183 -28 180 -34 176 -39 171 -45 165 -50 159 -56 152 -61 145 -66 137 -72 128 -77 118 -83 108 -88 97 -93 86 -98 74 -103 62 -107 49 -112 35 -117 22 -122 7 -127 62 0 -8 140 -24 135 -39 128 -53 122 -66 115 -79 109 -90 103 -102 97 -112 91 -122 85 -131 79 -139 73 -147 68 -154 62 -161 56 -167 51 -172 45 -177 39 -181 34 -185 28 -188 23 -190 17 -192 12 -193 6 -193 0 -193 -5 -192 -11 -190 -16 -188 -22 -185 -27 -182 -33 -178 -39 36 -42zm-26 -42l-11 84 -2 0 -2 -1 -2 -1 -1 -1 -1 -1 -1 -1 -1 -1 -1 -1 -1 -1 -1 -1 -1 -1 -1 -1 -1 -1 -1 -2 -1 -2 -1 -2 -1 -2 -1 -2 -1 -2 -1 -2 -1 -2 -1 -2 0 -2 0 -2 0 -2 0 -2 0 -2 0 -2 0 -2 0 -2 0 -2 0 -2 0 -2 0 -2 0 -2 1 -2 1 -2 1 -2 1 -2 1 -2 1 -2 1 -2 1 -2 1 -2 1 -1 1 -1 1 -1 1 -1 1 -1 1 -1 1 -1 1 -1 1 -1 1 -1 1 -1 1 -1 1 0 2 0 2 0 2 0 2 0 2 0 2 0 2 0zm-36 723l0 -681 62 0 0 681 -52 32 -11 -32zm0 0l62 0 0 2 0 2 0 2 0 2 0 2 0 2 0 2 -1 2 -1 2 -1 2 -1 2 -1 2 -1 2 -1 2 -1 2 -1 1 -1 1 -1 1 -1 1 -1 1 -1 1 -1 1 -1 1 -1 1 -1 1 -1 1 -1 1 -2 0 -2 0 -2 0 -2 0 -2 0 -2 0 -2 0 -2 0 -2 0 -2 0 -1 -1 -1 -1 -1 -1 -1 -1 -1 -1 -1 -1 -1 -1 -1 -1 -1 -1 -1 -1 -1 -1 -1 -1 -1 -2 -1 -2 -1 -2 -1 -2 -1 -2 -1 -2 -1 -2 -1 -2 0 -2 0 -2 0 -2 0 -2 0 -2 0 -2 0 -2zm-769 -998l820 966 -41 65 -820 -966 31 -73 10 8zm0 0l-41 65 -1 -1 -1 -2 -1 -2 -1 -2 -1 -2 -1 -2 -1 -2 -1 -2 -1 -2 -1 -2 -1 -2 0 -2 0 -2 0 -2 0 -2 0 -2 0 -2 0 -2 0 -2 0 -2 0 -2 0 -2 0 -2 0 -2 1 -2 1 -2 1 -2 1 -2 1 -2 1 -2 1 -2 1 -2 1 -2 1 -2 1 -1 1 -1 1 -1 1 -1 1 -1 1 -1 1 -1 1 -1 1 -1 1 -1 1 0 1 0 1 0 1 0 1 0 2 0 2 0 1 0 1 0 1 0 1 0 1 1 1 1 1 1 1 1 1 1 1 1 1 1 1 1 1 1zm-998 -1205l62 0 0 0 1 48 3 47 5 47 7 46 9 45 11 45 13 44 15 43 17 43 19 42 20 41 22 41 24 40 26 39 28 39 29 38 31 37 33 37 34 36 36 35 37 34 39 34 40 33 42 32 43 32 45 31 46 30 47 29 49 29 50 28 51 27 52 26 -21 80 -53 -27 -52 -28 -51 -28 -50 -29 -49 -30 -47 -31 -46 -32 -45 -33 -43 -33 -42 -34 -40 -35 -39 -36 -37 -37 -36 -38 -34 -38 -33 -39 -31 -40 -29 -41 -28 -42 -26 -43 -24 -44 -22 -45 -20 -46 -18 -47 -16 -47 -14 -48 -12 -49 -10 -50 -8 -51 -6 -52 -3 -53 -1 -53 0 0zm62 0l-62 0 0 -2 0 -2 0 -2 0 -2 0 -2 0 -2 0 -2 1 -2 1 -2 1 -2 1 -2 1 -2 1 -2 1 -2 1 -2 1 -1 1 -1 1 -1 1 -1 1 -1 1 -1 1 -1 1 -1 1 -1 1 -1 1 -1 1 -1 2 0 2 0 2 0 2 0 2 0 2 0 2 0 2 0 2 0 2 0 1 1 1 1 1 1 1 1 1 1 1 1 1 1 1 1 1 1 1 1 1 1 1 1 1 2 1 2 1 2 1 2 1 2 1 2 1 2 1 2 0 2 0 2 0 2 0 2 0 2 0 2 0 2zm6305 0l-62 0 0 0 -17 -193 -50 -181 -82 -170 -112 -159 -140 -147 -165 -135 -189 -123 -210 -110 -229 -97 -245 -85 -259 -72 -271 -59 -280 -46 -287 -33 -292 -20 -294 -7 -294 7 -292 20 -287 33 -280 46 -271 59 -259 72 -245 85 -229 97 -210 110 -189 123 -165 135 -140 147 -112 159 -82 170 -50 181 -17 193 -62 0 19 -213 55 -199 88 -184 119 -169 146 -154 171 -140 194 -126 214 -112 232 -99 248 -86 262 -72 273 -59 282 -46 289 -33 294 -20 296 -7 296 7 294 20 289 33 282 46 273 59 262 72 248 86 232 99 214 112 194 126 171 140 146 154 119 169 88 184 55 199 19 213 0 0zm-62 0l62 0 0 2 0 2 0 2 0 2 0 2 0 2 0 2 -1 2 -1 2 -1 2 -1 2 -1 2 -1 2 -1 2 -1 2 -1 1 -1 1 -1 1 -1 1 -1 1 -1 1 -1 1 -1 1 -1 1 -1 1 -1 1 -1 1 -2 0 -2 0 -2 0 -2 0 -2 0 -2 0 -2 0 -2 0 -2 0 -2 0 -1 -1 -1 -1 -1 -1 -1 -1 -1 -1 -1 -1 -1 -1 -1 -1 -1 -1 -1 -1 -1 -1 -1 -1 -1 -2 -1 -2 -1 -2 -1 -2 -1 -2 -1 -2 -1 -2 -1 -2 0 -2 0 -2 0 -2 0 -2 0 -2 0 -2 0 -2z"/>
  </g>
  <path class="fil3 str0" d="M3764 2380c-13,0 -22,6 -30,13 -40,44 -85,89 -133,132 -15,14 -21,31 -1,51 18,18 35,11 50,-1 30,-25 60,-56 85,-86l0 400 -103 0c-21,0 -37,11 -37,37 0,26 16,37 37,37l266 0c21,0 37,-11 37,-37 0,-26 -16,-37 -37,-37l-86 0 0 -470c0,-21 -7,-39 -35,-39l-14 0zm490 431c-18,11 -25,28 -13,49 14,23 33,22 50,11l277 -169c9,-6 15,-12 15,-27 0,-14 -6,-21 -15,-26l-277 -170c-17,-11 -36,-11 -50,12 -12,21 -5,39 13,49l171 104c22,13 44,25 63,31 -20,7 -41,18 -63,31l-171 104zm940 -182c21,0 36,-10 36,-35 0,-25 -16,-35 -36,-35l-293 0c-21,0 -36,10 -36,35 0,25 16,35 36,35l293 0zm0 164c21,0 36,-10 36,-35 0,-25 -16,-35 -36,-35l-293 0c-21,0 -36,10 -36,35 0,25 16,35 36,35l293 0zm703 -4c0,-68 -28,-121 -89,-140 39,-22 61,-58 61,-112l0 -11c0,-94 -53,-147 -160,-147l-44 0c-85,0 -137,36 -137,123 0,21 11,39 39,39 28,0 39,-17 39,-39 0,-34 24,-49 60,-49l44 0c58,0 83,22 83,73l0 11c0,52 -30,89 -89,89l-47 0c-21,0 -37,10 -37,36 0,26 16,36 37,36l84 0c58,0 80,38 80,90l0 27c0,52 -25,81 -83,81l-88 0c-36,0 -60,-15 -60,-49 0,-21 -11,-39 -39,-39 -28,0 -39,17 -39,39 0,87 53,123 137,123l88 0c107,0 160,-61 160,-155l0 -27zm529 -292c0,-21 -10,-36 -34,-36 -25,0 -36,16 -36,36l0 144 -135 0c-21,0 -36,10 -36,35 0,25 16,35 36,35l135 0 0 144c0,21 10,36 35,36 25,0 35,-16 35,-36l0 -144 136 0c21,0 36,-10 36,-35 0,-25 -16,-35 -36,-35l-136 0 0 -144zm517 -108c-21,0 -37,11 -37,37l0 221c0,26 16,37 37,37l155 0c58,0 83,30 83,81l0 52c0,52 -25,81 -83,81l-73 0c-36,0 -60,-15 -60,-49 0,-21 -11,-39 -39,-39 -28,0 -39,17 -39,39 0,87 53,123 137,123l73 0c107,0 160,-61 160,-155l0 -52c0,-94 -53,-155 -160,-155l-115 0 0 -147 212 0c21,0 37,-11 37,-37 0,-26 -16,-37 -37,-37l-252 0zm846 108c0,-21 -10,-36 -34,-36 -25,0 -36,16 -36,36l0 144 -135 0c-21,0 -36,10 -36,35 0,25 16,35 36,35l135 0 0 144c0,21 10,36 35,36 25,0 35,-16 35,-36l0 -144 136 0c21,0 36,-10 36,-35 0,-25 -16,-35 -36,-35l-136 0 0 -144zm641 -113c-131,78 -172,182 -172,311l0 121c0,94 53,155 160,155l48 0c107,0 160,-57 160,-151l0 -41c0,-94 -53,-159 -160,-159l-125 0c11,-67 49,-121 131,-172 17,-11 30,-31 15,-55 -15,-23 -39,-21 -57,-10zm-12 514c-58,0 -83,-30 -83,-81l0 -122 131 0c58,0 83,33 83,85l0 41c0,52 -25,77 -83,77l-48 0z"/>
  <path class="fil4 str1" d="M6604 6756l0 -661 703 0 186 -847c33,-151 -273,-380 -308,-232l-168 718 -409 0 -209 0 -303 724 -303 -724 -165 0c-152,0 -276,127 -276,281l0 740 1251 0z"/>
  <polygon class="fil4 str1" points="6096,6515 5888,6303 5888,6161 5716,6034 5753,5734 5793,5734 6096,6458 6399,5734 6438,5734 6475,6034 6304,6161 6304,6303 "/>
  <polygon class="fil5 str1" points="6186,6243 6096,6458 6004,6239 6047,5942 6096,5942 6144,5942 "/>
  <g>
   <polygon class="fil5" points="6191,5813 6001,5813 6047,5942 6096,5942 6144,5942 "/>
   <path id="1" class="fil6" d="M6001 5771l190 0 0 83 -190 0 -39 -27 39 -55zm0 0l0 83 -2 0 -2 0 -2 0 -2 0 -2 0 -2 -1 -2 -1 -2 -1 -2 -1 -2 -1 -2 -1 -2 -1 -2 -1 -2 -1 -2 -1 -1 -1 -1 -1 -1 -2 -1 -2 -1 -2 -1 -2 -1 -2 -1 -2 -1 -2 -1 -2 -1 -2 -1 -2 0 -2 0 -2 0 -2 0 -2 0 -2 0 -2 0 -2 0 -2 0 -2 0 -2 1 -2 1 -2 1 -2 1 -2 1 -2 1 -2 1 -2 1 -2 1 -2 1 -2 1 -1 1 -1 2 -1 2 -1 2 -1 2 -1 2 -1 2 -1 2 -1 2 -1 2 -1 2 -1 2 0 2 0 2 0 2 0 2 0zm7 184l-47 -129 79 -28 47 129 -39 55 -39 -27zm0 0l79 -28 1 2 1 2 0 2 0 2 0 2 0 2 0 2 0 2 0 2 0 2 0 2 0 2 -1 2 -1 2 -1 2 -1 2 -1 2 -1 2 -1 2 -1 2 -1 2 -1 2 -1 1 -1 1 -2 1 -2 1 -2 1 -2 1 -2 1 -2 1 -2 1 -2 1 -2 1 -2 1 -2 0 -2 0 -2 0 -2 0 -2 0 -2 0 -2 0 -2 0 -2 0 -2 0 -2 -1 -2 -1 -2 -1 -2 -1 -2 -1 -2 -1 -2 -1 -2 -1 -2 -1 -2 -1 -1 -1 -1 -1 -1 -2 -1 -2 -1 -2 -1 -2 -1 -2 -1 -2 -1 -2 -1 -2zm88 27l-49 0 0 -83 49 0 0 0 0 83zm0 0l0 -83 2 0 2 0 2 0 2 0 2 0 2 1 2 1 2 1 2 1 2 1 2 1 2 1 2 1 2 1 2 1 1 1 1 1 1 2 1 2 1 2 1 2 1 2 1 2 1 2 1 2 1 2 1 2 0 2 0 2 0 2 0 2 0 2 0 2 0 2 0 2 0 2 0 2 -1 2 -1 2 -1 2 -1 2 -1 2 -1 2 -1 2 -1 2 -1 2 -1 2 -1 1 -1 1 -2 1 -2 1 -2 1 -2 1 -2 1 -2 1 -2 1 -2 1 -2 1 -2 1 -2 0 -2 0 -2 0 -2 0 -2 0zm49 0l-49 0 0 -83 49 0 39 55 -39 27zm0 0l0 -83 2 0 2 0 2 0 2 0 2 0 2 1 2 1 2 1 2 1 2 1 2 1 2 1 2 1 2 1 2 1 1 1 1 1 1 2 1 2 1 2 1 2 1 2 1 2 1 2 1 2 1 2 1 2 0 2 0 2 0 2 0 2 0 2 0 2 0 2 0 2 0 2 0 2 -1 2 -1 2 -1 2 -1 2 -1 2 -1 2 -1 2 -1 2 -1 2 -1 2 -1 1 -1 1 -2 1 -2 1 -2 1 -2 1 -2 1 -2 1 -2 1 -2 1 -2 1 -2 1 -2 0 -2 0 -2 0 -2 0 -2 0zm86 -156l-47 129 -79 -28 47 -129 39 -27 39 55zm0 0l-79 -28 1 -2 1 -2 1 -2 1 -2 1 -2 1 -2 1 -2 1 -2 1 -1 1 -1 2 -1 2 -1 2 -1 2 -1 2 -1 2 -1 2 -1 2 -1 2 -1 2 -1 2 0 2 0 2 0 2 0 2 0 2 0 2 0 2 0 2 0 2 0 2 1 2 1 2 1 2 1 2 1 2 1 2 1 2 1 2 1 2 1 1 1 1 1 1 2 1 2 1 2 1 2 1 2 1 2 1 2 1 2 1 2 1 2 0 2 0 2 0 2 0 2 0 2 0 2 0 2 0 2 0 2 0 2 -1 2 -1 2z"/>
  </g>
  <polygon class="fil1 str1" points="5793,5734 5975,5959 6027,5885 6001,5813 5862,5629 "/>
  <line class="fil7 str1" x1="5658" y1="6397" x2="5658" y2= "6756" />
  <line class="fil7 str2" x1="6096" y1="6458" x2="6096" y2= "6756" />
  <path class="fil8 str1" d="M6096 5613c104,0 469,-147 469,-392l0 -280c-62,-147 -19,-240 -95,-323 -74,32 -155,29 -239,2 -82,179 -391,101 -508,-2 -76,82 -33,175 -95,323l0 280c0,245 365,392 469,392z"/>
  <path class="fil8 str1" d="M6191 5813l63 -83 0 -159c-66,28 -125,43 -158,43 -33,0 -93,-15 -158,-43l0 159 63 83 190 0z"/>
  <polygon class="fil1 str1" points="6399,5734 6216,5959 6165,5885 6191,5813 6330,5629 "/>
  <path class="fil9 str1" d="M6096 4207c-27,-5 -54,-7 -83,-7l0 0c-255,0 -463,209 -463,463l0 312c19,-20 47,-33 77,-33 62,-147 19,-240 95,-323 114,99 425,181 508,2 84,27 164,30 239,-2 76,82 33,175 95,323 31,0 59,13 77,33l0 -312c0,-255 -209,-463 -463,-463l0 0c-28,0 -56,3 -83,7zm-538 903c13,68 41,130 80,184 -7,-23 -11,-48 -11,-73l0 -86c-27,0 -51,-10 -69,-25zm1006 25l0 86c0,25 -4,50 -11,73 39,-54 67,-117 80,-184 -18,16 -43,25 -69,25z"/>
  <polygon class="fil1 str1" points="5938,5617 5938,5729 5862,5629 "/>
  <polygon class="fil1 str1" points="6254,5617 6254,5729 6330,5629 "/>
  <path class="fil7 str2" d="M5723 4619c-44,-40 -74,-89 -82,-131 135,-17 160,-98 264,-114"/>
  <polygon class="fil1 str1" points="6197,6448 6467,6448 6467,6603 6197,6603 "/>
  <path class="fil10 str1" d="M6312 4984c-18,0 -33,15 -33,33 0,18 15,33 33,33 18,0 33,-15 33,-33 0,-18 -15,-33 -33,-33zm-433 0c18,0 33,15 33,33 0,18 -15,33 -33,33 -18,0 -33,-15 -33,-33 0,-18 15,-33 33,-33z"/>
  <path class="fil1 str1" d="M5524 5038c0,-53 46,-97 103,-97l0 97 0 97c-57,0 -103,-43 -103,-97zm1143 0c0,-53 -46,-97 -103,-97l0 97 0 97c57,0 103,-43 103,-97z"/>
  <path class="fil11 str1" d="M6166 5434c-17,20 -47,33 -80,33 -53,0 -96,-33 -96,-74 0,-15 6,-29 15,-40 39,40 95,69 160,81z"/>
  <path class="fil9 str1" d="M5919 5292c116,-65 230,-56 343,0 0,15 0,30 0,45 0,36 0,5 0,42 -114,0 -229,0 -343,0 0,-51 0,-35 0,-87z"/>
  <line class="fil7 str3" x1="5342" y1="6605" x2="5174" y2= "5980" />
  <g>
   <path class="fil2" d="M3531 6714l0 84 -2 0 -2 0 -2 0 -2 0 -2 0 -2 -1 -2 -1 -2 -1 -2 -1 -2 -1 -1 -1 -1 -1 -1 -1 -1 -1 -1 -1 -1 -1 -1 -1 -1 -2 -1 -2 -1 -2 -1 -2 -1 -2 -1 -2 -1 -2 -1 -2 -1 -2 0 -2 0 -2 0 -2 0 -2 0 -2 0 -2 0 -2 0 -2 0 -2 0 -2 0 -2 0 -2 1 -2 1 -2 1 -2 1 -2 1 -2 1 -2 1 -2 1 -2 1 -2 1 -1 1 -1 1 -1 1 -1 1 -1 1 -1 1 -1 2 -1 2 -1 2 -1 2 -1 2 -1 2 0 2 0 2 0 2 0 2 0zm5143 84l-5143 0 0 -84 5143 0 0 84zm0 0l0 -84 2 0 2 0 2 0 2 0 2 0 2 1 2 1 2 1 2 1 2 1 1 1 1 1 1 1 1 1 1 1 1 1 1 1 1 2 1 2 1 2 1 2 1 2 1 2 1 2 1 2 1 2 0 2 0 2 0 2 0 2 0 2 0 2 0 2 0 2 0 2 0 2 0 2 0 2 -1 2 -1 2 -1 2 -1 2 -1 2 -1 2 -1 2 -1 2 -1 2 -1 1 -1 1 -1 1 -1 1 -1 1 -1 1 -1 1 -2 1 -2 1 -2 1 -2 1 -2 1 -2 0 -2 0 -2 0 -2 0 -2 0z"/>
  </g>
  <path class="fil8 str1" d="M5186 6756l468 0c0,-23 0,-54 0,-75 0,-106 -48,-164 -120,-183 -44,-12 -114,-12 -155,13 -29,18 -53,48 -52,71 -48,-59 -143,-5 -143,96 0,14 2,54 2,79z"/>
  <path class="fil8 str1" d="M7262 4775l0 -254c0,-64 -5,-144 -89,-143 -89,1 -97,75 -97,145l0 505c0,132 -27,206 136,203 17,0 77,0 93,0 142,1 256,2 256,-199 0,-48 0,-113 0,-116 -22,-130 -141,-139 -298,-140z"/>
  <path class="fil7 str1" d="M7121 5174c76,-14 181,-226 225,-295 19,-28 -1,-85 -33,-104l-226 119"/>
  <line class="fil7 str1" x1="7259" y1="5050" x2="7560" y2= "5050" />
 </g>
</svg>
