<?xml version="1.0" encoding="UTF-8" standalone="no"?>
<svg
   xmlns:dc="http://purl.org/dc/elements/1.1/"
   xmlns:cc="http://creativecommons.org/ns#"
   xmlns:rdf="http://www.w3.org/1999/02/22-rdf-syntax-ns#"
   xmlns:svg="http://www.w3.org/2000/svg"
   xmlns="http://www.w3.org/2000/svg"
   id="svg76"
   viewBox="0 0 12197.192 7699.8154"
   style="clip-rule:evenodd;fill-rule:evenodd;image-rendering:optimizeQuality;shape-rendering:geometricPrecision;text-rendering:geometricPrecision"
   version="1.1"
   height="291"
   width="461"
   xml:space="preserve"><metadata
     id="metadata80"><rdf:RDF><cc:Work
         rdf:about=""><dc:format>image/svg+xml</dc:format><dc:type
           rdf:resource="http://purl.org/dc/dcmitype/StillImage" /><dc:title></dc:title></cc:Work></rdf:RDF></metadata><defs
     id="defs11"><style
       id="style2"
       type="text/css"><![CDATA[
    .str1 {stroke:#FEFEFE;stroke-width:10}
    .str0 {stroke:#024541;stroke-width:75;stroke-linecap:round;stroke-linejoin:round}
    .fil1 {fill:#024541}
    .fil3 {fill:#B7CBD8}
    .fil5 {fill:#FFFBDB}
    .fil2 {fill:#4D897C;fill-rule:nonzero}
    .fil6 {fill:#AB8082;fill-rule:nonzero}
    .fil7 {fill:#CC7588;fill-rule:nonzero}
    .fil4 {fill:#FEFEFE;fill-rule:nonzero}
    .fil0 {fill:url(#id0)}
   ]]></style><radialGradient
       fy="3845.28"
       fx="6103.0498"
       r="5785.5698"
       cy="3845.28"
       cx="6103.0498"
       gradientUnits="userSpaceOnUse"
       id="id0"><stop
         id="stop4"
         style="stop-color:#FEFEFE"
         offset="0" /><stop
         id="stop6"
         style="stop-color:#FEFEFE"
         offset="0.45098" /><stop
         id="stop8"
         style="stop-color:#D2E2F2"
         offset="1" /></radialGradient></defs><g
     transform="matrix(1.0540952,0,0,1.0913984,-334.54684,-347.06468)"
     id="Layer_x0020_1"><metadata
       id="CorelCorpID_0Corel-Layer" /><polygon
       style="fill:url(#id0)"
       id="polygon14"
       points="317,7373 11889,7373 11889,318 317,318 "
       class="fil0" /><polygon
       style="fill:#024541;stroke:#024541;stroke-width:75;stroke-linecap:round;stroke-linejoin:round"
       id="polygon16"
       points="4662,6189 4662,3922 7201,3490 7617,4554 7617,5080 7617,6447 7674,6691 7514,6718 4662,6718 4400,6718 "
       class="fil1 str0" /><g
       id="g20"><path
         style="fill:#4d897c;fill-rule:nonzero"
         id="path18"
         d="m 4373,6695 54,46 -1,1 -1,1 -1,1 -2,1 -2,1 -2,1 -2,1 -2,1 -2,1 -2,1 h -2 -2 -2 -2 -2 -2 -2 -2 -2 -2 -2 -2 -2 l -2,-1 -2,-1 -2,-1 -2,-1 -2,-1 -2,-1 -2,-1 -1,-1 -1,-1 -1,-1 -1,-1 -1,-1 -1,-1 -1,-1 -1,-1 -1,-1 -1,-1 -1,-2 -1,-2 -1,-2 v -2 -2 -2 -2 -2 -2 -2 -2 -2 -2 -2 l 1,-2 1,-2 1,-2 1,-1 1,-1 1,-1 1,-1 1,-1 1,-1 1,-1 z m 761,-615 -707,661 -54,-46 707,-661 z m 0,0 -54,-46 1,-1 1,-1 1,-1 2,-1 2,-1 2,-1 2,-1 2,-1 2,-1 2,-1 h 2 2 2 2 2 2 2 2 2 2 2 2 2 l 2,1 2,1 2,1 2,1 2,1 2,1 2,1 1,1 1,1 1,1 1,1 1,1 1,1 1,1 1,1 1,1 1,1 1,2 1,2 1,2 v 2 2 2 2 2 2 2 2 2 2 2 l -1,2 -1,2 -1,2 -1,1 -1,1 -1,1 -1,1 -1,1 -1,1 -1,1 z"
         class="fil2" /></g><g
       id="g24"><path
         style="fill:#4d897c;fill-rule:nonzero"
         id="path22"
         d="m 7643,6710 62,-38 1,1 1,1 1,2 1,2 1,2 1,2 1,2 v 2 2 2 2 2 2 2 2 2 2 2 l -1,2 -1,2 -1,1 -1,1 -1,1 -1,1 -1,1 -1,1 -1,1 -1,1 -1,1 -1,1 -1,1 -2,1 -2,1 -2,1 -2,1 -2,1 -2,1 -2,1 h -2 -2 -2 -2 -2 -2 -2 -2 -2 -2 -2 -2 -2 l -2,-1 -2,-1 -2,-1 -2,-1 -2,-1 -2,-1 -1,-1 -1,-1 -1,-1 -1,-1 -1,-1 -1,-1 -1,-1 z m -226,-413 288,375 -62,38 -288,-375 z m 0,0 -62,38 -1,-1 -1,-1 -1,-2 -1,-2 -1,-2 -1,-2 -1,-2 v -2 -2 -2 -2 -2 -2 -2 -2 -2 -2 -2 l 1,-2 1,-2 1,-1 1,-1 1,-1 1,-1 1,-1 1,-1 1,-1 1,-1 1,-1 1,-1 1,-1 2,-1 2,-1 2,-1 2,-1 2,-1 2,-1 2,-1 h 2 2 2 2 2 2 2 2 2 2 2 2 2 l 2,1 2,1 2,1 2,1 2,1 2,1 1,1 1,1 1,1 1,1 1,1 1,1 1,1 z"
         class="fil2" /></g><g
       id="g29"><polygon
         style="fill:#b7cbd8"
         id="polygon26"
         points="6995,3558 7607,5899 7617,4554 7037,3071 6222,2782 5030,2843 4662,3922 "
         class="fil3" /><path
         style="fill:#4d897c;fill-rule:nonzero"
         d="m 4627,3913 368,-1079 72,19 -368,1079 -29,23 -42,-43 z m 0,0 72,19 -1,2 -1,2 -1,2 -1,1 -1,1 -1,1 -1,1 -1,1 -1,1 -1,1 -1,1 -1,1 -1,1 -1,1 -2,1 -2,1 -2,1 -2,1 -2,1 -2,1 h -2 -2 -2 -2 -2 -2 -2 -2 -2 -2 -2 -2 l -2,-1 -2,-1 -2,-1 -2,-1 -2,-1 -2,-1 -1,-1 -1,-1 -1,-1 -1,-1 -1,-1 -1,-1 -1,-1 -1,-1 -1,-1 -1,-1 -1,-1 -1,-1 -1,-2 -1,-2 v -2 -2 -2 -2 -2 -2 -2 -2 -2 -2 -2 l 1,-2 z m 2375,-322 -2333,365 -13,-66 2333,-365 43,25 -30,40 z m 0,0 -13,-66 h 2 2 2 2 2 2 2 2 2 2 l 2,1 2,1 2,1 2,1 2,1 1,1 1,1 1,1 1,1 1,1 1,1 1,1 1,1 1,1 1,1 1,1 1,1 1,2 1,2 1,2 v 2 2 2 2 2 2 2 2 2 2 2 l -1,2 -1,2 -1,1 -1,1 -1,1 -1,1 -1,1 -1,1 -1,1 -1,1 -1,1 -1,1 -1,1 -1,1 -2,1 -2,1 -2,1 -2,1 -2,1 -2,1 -2,1 h -2 -2 z m 569,2316 -612,-2342 73,-15 612,2342 1,8 z m 0,0 73,-15 v 2 2 2 2 2 2 2 2 2 2 l -1,2 -1,2 -1,1 -1,1 -1,1 -1,1 -1,1 -1,1 -1,1 -1,1 -1,1 -1,1 -1,1 -1,1 -2,1 -2,1 -2,1 -2,1 -2,1 -2,1 -2,1 h -2 -2 -2 -2 -2 -2 -2 -2 -2 -2 -2 -2 l -2,-1 -2,-1 -2,-1 -2,-1 -2,-1 -2,-1 -1,-1 -1,-1 -1,-1 -1,-1 -1,-1 -1,-1 -1,-1 -1,-1 -1,-1 -1,-1 -1,-1 -1,-2 -1,-2 -1,-2 v -2 z m 84,-1353 -10,1346 h -75 l 10,-1346 73,-11 z m 0,0 h -75 v -2 -2 -2 -2 -2 l 1,-2 1,-2 1,-2 1,-1 1,-1 1,-1 1,-1 1,-1 1,-1 1,-1 1,-1 1,-1 1,-1 1,-1 1,-1 2,-1 2,-1 2,-1 2,-1 2,-1 2,-1 h 2 2 2 2 2 2 2 2 2 2 2 2 l 2,1 2,1 2,1 2,1 2,1 2,1 1,1 1,1 1,1 1,1 1,1 1,1 1,1 1,1 1,1 1,1 1,1 1,1 1,2 1,2 v 2 2 2 2 2 2 z m -582,-1494 580,1483 -71,22 -580,-1483 49,-42 z m 0,0 -71,22 -1,-2 v -2 -2 -2 -2 -2 -2 -2 -2 -2 -2 -2 l 1,-2 1,-2 1,-1 1,-1 1,-1 1,-1 1,-1 1,-1 1,-1 1,-1 1,-1 1,-1 1,-1 1,-1 2,-1 2,-1 2,-1 2,-1 2,-1 2,-1 2,-1 h 2 2 2 2 2 2 2 2 2 2 2 2 l 2,1 2,1 2,1 2,1 2,1 2,1 1,1 1,1 1,1 1,1 1,1 1,1 1,1 1,1 1,1 1,1 1,2 1,2 1,2 z m -837,-308 815,288 -28,62 -815,-288 12,-64 z m 0,0 -28,62 -2,-1 -2,-1 -2,-1 -2,-1 -2,-1 -1,-1 -1,-1 -1,-1 -1,-1 -1,-1 -1,-1 -1,-1 -1,-1 -1,-1 -1,-1 -1,-1 -1,-1 -1,-2 -1,-2 v -2 -2 -2 -2 -2 -2 -2 -2 -2 -2 -2 l 1,-2 1,-2 1,-2 1,-2 1,-1 1,-1 1,-1 1,-1 1,-1 1,-1 1,-1 1,-1 1,-1 1,-1 2,-1 2,-1 2,-1 2,-1 2,-1 2,-1 h 2 2 2 2 2 2 2 2 2 2 2 2 l 2,1 2,1 z m -1208,58 1192,-61 4,67 -1192,61 -38,-43 z m 0,0 4,67 h -2 -2 -2 -2 -2 -2 -2 l -2,-1 -2,-1 -2,-1 -2,-1 -2,-1 -2,-1 -1,-1 -1,-1 -1,-1 -1,-1 -1,-1 -1,-1 -1,-1 -1,-1 -1,-1 -1,-1 -1,-1 -1,-1 -1,-2 -1,-2 -1,-2 v -2 -2 -2 -2 -2 -2 -2 -2 -2 -2 -2 l 1,-2 1,-2 1,-1 1,-1 1,-1 1,-1 1,-1 1,-1 1,-1 1,-1 1,-1 1,-1 1,-1 1,-1 2,-1 2,-1 2,-1 2,-1 2,-1 2,-1 h 2 2 2 2 2 z"
         class="fil2"
         id="1" /></g><g
       id="g35"><polygon
         style="fill:#b7cbd8"
         id="polygon31"
         points="4400,6718 4920,6231 4662,4518 4662,6189 "
         class="fil3" /><path
         style="fill:#4d897c;fill-rule:nonzero"
         d="m 4366,6704 263,-528 69,27 -263,528 -7,10 -61,-37 z m 0,0 69,27 -1,2 -1,2 -1,1 -1,1 -1,1 -1,1 -1,1 -1,1 -1,1 -1,1 -1,1 -2,1 -2,1 -2,1 -2,1 -2,1 -2,1 h -2 -2 -2 -2 -2 -2 -2 -2 -2 -2 -2 -2 -2 l -2,-1 -2,-1 -2,-1 -2,-1 -2,-1 -2,-1 -1,-1 -1,-1 -1,-1 -1,-1 -1,-1 -1,-1 -1,-1 -1,-1 -1,-1 -1,-1 -1,-1 -1,-1 -1,-2 -1,-2 v -2 -2 -2 -2 -2 -2 -2 -2 -2 -2 -2 l 1,-2 1,-2 1,-2 z m 582,-450 -521,487 -54,-46 521,-487 64,19 z m 0,0 -54,-46 1,-1 1,-1 1,-1 2,-1 2,-1 2,-1 2,-1 2,-1 2,-1 2,-1 h 2 2 2 2 2 2 2 2 2 2 2 2 2 l 2,1 2,1 2,1 2,1 2,1 2,1 2,1 1,1 1,1 1,1 1,1 1,1 1,1 1,1 1,1 1,1 1,1 1,2 1,2 1,2 v 2 2 2 2 2 2 2 2 2 2 2 l -1,2 -1,2 -1,2 -1,1 -1,1 -1,1 -1,1 -1,1 -1,1 -1,1 z m -248,-1740 258,1713 -74,9 -258,-1713 v -4 l 75,-4 z m 0,0 -74,9 v -2 -2 -2 -2 -2 -2 -2 -2 l 1,-2 1,-2 1,-1 1,-1 1,-1 1,-1 1,-1 1,-1 1,-1 1,-1 1,-1 1,-1 1,-1 1,-1 1,-1 2,-1 2,-1 2,-1 2,-1 2,-1 2,-1 h 2 2 2 2 2 2 2 2 2 2 2 2 l 2,1 2,1 2,1 2,1 2,1 2,1 1,1 1,1 1,1 1,1 1,1 1,1 1,1 1,1 1,1 1,1 1,1 1,2 1,2 1,2 v 2 2 2 z m -75,1676 V 4519 h 75 v 1671 l -3,14 z m 0,0 h 75 v 2 2 2 2 2 l -1,2 -1,2 -1,2 -1,1 -1,1 -1,1 -1,1 -1,1 -1,1 -1,1 -1,1 -1,1 -1,1 -1,1 -1,1 -2,1 -2,1 -2,1 -2,1 -2,1 -2,1 h -2 -2 -2 -2 -2 -2 -2 -2 -2 -2 -2 -2 l -2,-1 -2,-1 -2,-1 -2,-1 -2,-1 -2,-1 -1,-1 -1,-1 -1,-1 -1,-1 -1,-1 -1,-1 -1,-1 -1,-1 -1,-1 -1,-1 -1,-1 -1,-1 -1,-2 -1,-2 -1,-2 v -2 -2 -2 -2 -2 z"
         class="fil2"
         id="path33" /></g><g
       id="g41"><polygon
         style="fill:#b7cbd8"
         id="polygon37"
         points="6411,2142 6168,1904 5711,1902 5838,2799 6261,2781 6586,2209 "
         class="fil3" /><path
         style="fill:#4d897c;fill-rule:nonzero"
         d="m 6266,2814 -423,18 -9,-67 423,-18 37,51 -29,17 z m 0,0 -9,-67 h 2 2 2 2 2 2 2 l 2,1 2,1 2,1 2,1 2,1 2,1 2,1 1,1 1,1 1,1 1,1 1,1 1,1 1,1 1,1 1,1 1,1 1,2 1,2 1,2 1,2 1,2 v 2 2 2 2 2 2 2 2 2 2 2 l -1,2 -1,1 -1,1 -1,1 -1,1 -1,1 -1,1 -1,1 -1,1 -1,1 -1,1 -1,1 -1,1 -1,1 -2,1 -2,1 -2,1 -2,1 -2,1 h -2 -2 -2 -2 -2 z m 354,-588 -325,572 -66,-34 325,-572 46,-14 21,48 z m 0,0 -66,-34 1,-1 1,-1 1,-1 1,-1 1,-1 1,-1 1,-1 1,-1 1,-1 1,-1 2,-1 2,-1 2,-1 2,-1 2,-1 h 2 2 2 2 2 2 2 2 2 2 2 2 2 l 2,1 2,1 2,1 2,1 2,1 2,1 2,1 1,1 1,1 1,1 1,1 1,1 1,1 1,1 1,1 1,1 1,1 1,2 1,2 1,2 1,2 v 2 2 2 2 2 2 2 2 2 2 2 l -1,2 -1,2 -1,2 -1,2 z m -197,-115 176,67 -25,62 -176,-67 -14,-9 z m 0,0 -25,62 -2,-1 -2,-1 -2,-1 -2,-1 -2,-1 -2,-1 -1,-1 -1,-1 -1,-1 -1,-1 -1,-1 -1,-1 -1,-1 -1,-1 -1,-1 -1,-1 -1,-2 -1,-2 -1,-2 -1,-2 v -2 -2 -2 -2 -2 -2 -2 -2 -2 -2 -2 l 1,-2 1,-2 1,-2 1,-1 1,-1 1,-1 1,-1 1,-1 1,-1 1,-1 1,-1 1,-1 1,-1 1,-1 2,-1 2,-1 2,-1 2,-1 h 2 2 2 2 2 2 2 2 2 2 2 2 2 l 2,1 2,1 z m -229,-229 243,238 -53,44 -243,-238 24,-56 z m 0,0 -53,44 -1,-1 -1,-1 -1,-1 -1,-1 -1,-1 -1,-2 -1,-2 -1,-2 -1,-2 -1,-2 v -2 -2 -2 -2 -2 -2 -2 -2 -2 -2 -2 -2 l 1,-2 1,-1 1,-1 1,-1 1,-1 1,-1 1,-1 1,-1 1,-1 1,-1 1,-1 1,-1 1,-1 2,-1 2,-1 2,-1 2,-1 2,-1 h 2 2 2 2 2 2 2 2 2 2 2 2 2 l 2,1 2,1 2,1 2,1 2,1 2,1 2,1 2,1 1,1 1,1 1,1 z m -486,-14 457,2 5,68 -457,-2 -39,-32 35,-36 z m 0,0 5,68 h -2 -2 -2 -2 -2 -2 l -2,-1 -2,-1 -2,-1 -2,-1 -2,-1 -2,-1 -2,-1 -1,-1 -1,-1 -1,-1 -1,-1 -1,-1 -1,-1 -1,-1 -1,-1 -1,-1 -1,-1 -1,-2 -1,-2 -1,-2 -1,-2 -1,-2 v -2 -2 -2 -2 -2 -2 -2 -2 -2 -2 -2 l 1,-2 1,-1 1,-1 1,-1 1,-1 1,-1 1,-1 1,-1 1,-1 1,-1 1,-1 1,-1 1,-1 1,-1 1,-1 2,-1 2,-1 2,-1 2,-1 h 2 2 2 2 2 2 z m 93,933 -128,-897 74,-4 128,897 -33,36 z m 0,0 74,-4 v 2 2 2 2 2 2 2 2 l -1,2 -1,2 -1,1 -1,1 -1,1 -1,1 -1,1 -1,1 -1,1 -1,1 -1,1 -1,1 -1,1 -1,1 -1,1 -2,1 -2,1 -2,1 -2,1 h -2 -2 -2 -2 -2 -2 -2 -2 -2 -2 -2 -2 l -2,-1 -2,-1 -2,-1 -2,-1 -2,-1 -2,-1 -2,-1 -1,-1 -1,-1 -1,-1 -1,-1 -1,-1 -1,-1 -1,-1 -1,-1 -1,-1 -1,-1 -1,-1 -1,-2 -1,-2 -1,-2 -1,-2 v -2 -2 -2 z"
         class="fil2"
         id="path39" /></g><g
       id="g45"><path
         style="fill:#4d897c;fill-rule:nonzero"
         id="path43"
         d="m 6187,2793 71,-22 1,2 1,2 v 2 2 2 2 2 2 2 2 2 2 l -1,2 -1,2 -1,1 -1,1 -1,1 -1,1 -1,1 -1,1 -1,1 -1,1 -1,1 -1,1 -1,1 -1,1 -2,1 -2,1 -2,1 -2,1 -2,1 -2,1 -2,1 h -2 -2 -2 -2 -2 -2 -2 -2 -2 -2 -2 -2 l -2,-1 -2,-1 -2,-1 -2,-1 -2,-1 -2,-1 -1,-1 -1,-1 -1,-1 -1,-1 -1,-1 -1,-1 -1,-1 -1,-1 -1,-1 -1,-1 -1,-2 -1,-2 -1,-2 z m -30,-274 100,252 -71,22 -100,-252 z m 0,0 -71,22 -1,-2 -1,-2 v -2 -2 -2 -2 -2 -2 -2 -2 -2 -2 l 1,-2 1,-2 1,-1 1,-1 1,-1 1,-1 1,-1 1,-1 1,-1 1,-1 1,-1 1,-1 1,-1 1,-1 2,-1 2,-1 2,-1 2,-1 2,-1 2,-1 2,-1 h 2 2 2 2 2 2 2 2 2 2 2 2 l 2,1 2,1 2,1 2,1 2,1 2,1 1,1 1,1 1,1 1,1 1,1 1,1 1,1 1,1 1,1 1,1 1,2 1,2 1,2 z"
         class="fil2" /></g><path
       style="fill:#fefefe;fill-rule:nonzero;stroke:#fefefe;stroke-width:10"
       id="path47"
       d="m 5049,3607 85,-13 c 36,-6 53,16 58,47 l 2,11 c 5,31 -6,51 -42,56 l -85,13 -18,-115 z m -7,-46 -17,-109 63,-10 c 35,-6 52,5 56,36 l 2,12 c 5,31 -6,55 -41,61 z m 199,72 c -7,-43 -31,-70 -71,-76 21,-18 29,-42 25,-74 l -2,-12 c -9,-58 -47,-85 -112,-75 l -86,14 c -18,3 -23,15 -21,28 l 49,315 c 2,12 11,23 29,20 l 109,-17 c 66,-10 92,-53 83,-111 l -2,-11 z m 382,31 -51,-325 c -2,-12 -10,-23 -28,-20 -17,3 -23,15 -21,28 l 51,325 c 2,12 10,23 28,20 17,-3 23,-15 21,-28 z m -224,-173 -64,10 -19,-122 c -2,-12 -11,-23 -28,-20 -17,3 -23,15 -21,28 l 50,320 c 2,12 11,23 29,20 l 88,-14 c 67,-10 93,-59 84,-116 l -4,-23 c -9,-58 -46,-93 -115,-83 z m 70,119 c 5,31 -6,51 -42,56 l -65,10 -20,-129 64,-10 c 36,-6 54,10 58,41 l 5,31 z m 324,-177 -75,12 -15,-97 132,-21 c 12,-2 22,-10 19,-27 -2,-16 -15,-22 -26,-20 l -156,24 c -18,3 -23,15 -21,28 l 49,315 c 2,12 11,23 29,20 l 99,-15 c 67,-10 93,-59 84,-116 l -4,-23 c -9,-58 -47,-90 -114,-80 z m 70,116 c 5,31 -6,51 -42,56 l -76,12 -20,-129 75,-12 c 36,-6 54,10 58,41 l 5,31 z m 129,-193 c -5,-32 5,-59 41,-65 l 41,-6 c 36,-6 54,17 59,49 l 26,166 c 5,32 -5,59 -41,65 l -41,6 c -36,6 -54,-17 -59,-49 z m 189,-30 c -9,-57 -49,-98 -114,-88 l -41,6 c -66,10 -91,62 -82,119 l 26,166 c 9,57 49,98 114,88 l 41,-6 c 66,-10 91,-62 82,-119 z m 134,58 -20,-129 81,-13 c 36,-6 54,10 58,41 l 4,26 c 5,32 -7,56 -42,62 z m 88,34 c 67,-10 93,-59 84,-116 l -4,-26 c -9,-58 -47,-90 -114,-80 l -106,16 c -17,3 -22,15 -20,28 l 50,320 c 2,12 11,23 28,20 17,-3 23,-15 21,-28 l -19,-122 81,-13 z m 484,50 -51,-325 c -2,-12 -10,-23 -28,-20 -17,3 -23,15 -21,28 l 51,325 c 2,12 10,23 28,20 17,-3 23,-15 21,-28 z m -224,-173 -64,10 -19,-122 c -2,-12 -11,-23 -28,-20 -17,3 -23,15 -21,28 l 50,320 c 2,12 11,23 29,20 l 88,-14 c 67,-10 93,-59 84,-116 l -4,-23 c -9,-58 -46,-93 -115,-83 z m 71,119 c 5,31 -6,51 -42,56 l -65,10 -20,-129 64,-10 c 36,-6 54,10 58,41 l 5,31 z"
       class="fil4 str1" /><polygon
       style="fill:#fffbdb"
       id="polygon49"
       points="7097,5137 6860,3640 4954,3938 5191,5435 "
       class="fil5" /><g
       id="g53"><path
         style="fill:#ab8082;fill-rule:nonzero"
         id="path51"
         d="m 6457,4244 -10,-63 h 2 2 2 2 2 2 2 2 2 2 l 2,1 2,1 2,1 2,1 1,1 1,1 1,1 1,1 1,1 1,1 1,1 1,1 1,1 1,1 1,1 1,1 1,1 1,1 1,2 v 2 2 2 2 2 2 2 2 2 2 2 l -1,2 -1,1 -1,1 -1,1 -1,1 -1,1 -1,1 -1,1 -1,1 -1,1 -1,1 -1,1 -1,1 -1,1 -1,1 -2,1 -2,1 -2,1 -2,1 -2,1 -2,1 h -2 -2 -2 z m -1221,121 1212,-184 10,63 -1212,184 z m 0,0 10,63 h -2 -2 -2 -2 -2 -2 -2 -2 -2 -2 l -2,-1 -2,-1 -2,-1 -2,-1 -1,-1 -1,-1 -1,-1 -1,-1 -1,-1 -1,-1 -1,-1 -1,-1 -1,-1 -1,-1 -1,-1 -1,-1 -1,-1 -1,-1 -1,-2 v -2 -2 -2 -2 -2 -2 -2 -2 -2 -2 -2 l 1,-2 1,-1 1,-1 1,-1 1,-1 1,-1 1,-1 1,-1 1,-1 1,-1 1,-1 1,-1 1,-1 1,-1 1,-1 2,-1 2,-1 2,-1 2,-1 2,-1 2,-1 h 2 2 2 z m 815,-233 -10,-63 h 2 2 2 2 2 2 2 2 2 2 l 2,1 2,1 2,1 2,1 1,1 1,1 1,1 1,1 1,1 1,1 1,1 1,1 1,1 1,1 1,1 1,1 1,1 1,1 1,2 v 2 2 2 2 2 2 2 2 2 2 2 l -1,2 -1,1 -1,1 -1,1 -1,1 -1,1 -1,1 -1,1 -1,1 -1,1 -1,1 -1,1 -1,1 -1,1 -1,1 -2,1 -2,1 -2,1 -2,1 -2,1 -2,1 h -2 -2 -2 z m -831,126 -10,-63 26,-4 26,-4 26,-4 26,-4 26,-4 26,-4 26,-4 26,-4 26,-4 26,-4 26,-4 26,-4 26,-4 26,-4 26,-4 26,-4 26,-4 26,-4 26,-4 26,-4 26,-4 26,-4 26,-4 26,-4 26,-4 26,-4 26,-4 26,-4 26,-4 26,-4 26,-4 26,-4 10,63 -26,4 -26,4 -26,4 -26,4 -26,4 -26,4 -26,4 -26,4 -26,4 -26,4 -26,4 -26,4 -26,4 -26,4 -26,4 -26,4 -26,4 -26,4 -26,4 -26,4 -26,4 -26,4 -26,4 -26,4 -26,4 -26,4 -26,4 -26,4 -26,4 -26,4 -26,4 z m -10,-63 10,63 h -2 -2 -2 -2 -2 -2 -2 -2 -2 -2 l -2,-1 -2,-1 -2,-1 -2,-1 -1,-1 -1,-1 -1,-1 -1,-1 -1,-1 -1,-1 -1,-1 -1,-1 -1,-1 -1,-1 -1,-1 -1,-1 -1,-1 -1,-1 -1,-2 v -2 -2 -2 -2 -2 -2 -2 -2 -2 -2 -2 l 1,-2 1,-1 1,-1 1,-1 1,-1 1,-1 1,-1 1,-1 1,-1 1,-1 1,-1 1,-1 1,-1 1,-1 1,-1 2,-1 2,-1 2,-1 2,-1 2,-1 2,-1 h 2 2 2 z"
         class="fil6" /></g><g
       id="g57"><path
         style="fill:#ab8082;fill-rule:nonzero"
         id="path55"
         d="m 6516,4603 -10,-63 h 2 2 2 2 2 2 2 2 2 2 l 2,1 2,1 2,1 2,1 1,1 1,1 1,1 1,1 1,1 1,1 1,1 1,1 1,1 1,1 1,1 1,1 1,1 1,1 1,2 v 2 2 2 2 2 2 2 2 2 2 2 l -1,2 -1,1 -1,1 -1,1 -1,1 -1,1 -1,1 -1,1 -1,1 -1,1 -1,1 -1,1 -1,1 -1,1 -1,1 -2,1 -2,1 -2,1 -2,1 -2,1 -2,1 h -2 -2 -2 z m -1221,121 1212,-184 10,63 -1212,184 z m 0,0 10,63 h -2 -2 -2 -2 -2 -2 -2 -2 -2 -2 l -2,-1 -2,-1 -2,-1 -2,-1 -1,-1 -1,-1 -1,-1 -1,-1 -1,-1 -1,-1 -1,-1 -1,-1 -1,-1 -1,-1 -1,-1 -1,-1 -1,-1 -1,-1 -1,-2 v -2 -2 -2 -2 -2 -2 -2 -2 -2 -2 -2 l 1,-2 1,-1 1,-1 1,-1 1,-1 1,-1 1,-1 1,-1 1,-1 1,-1 1,-1 1,-1 1,-1 1,-1 1,-1 2,-1 2,-1 2,-1 2,-1 2,-1 2,-1 h 2 2 2 z m 815,-233 -10,-63 h 2 2 2 2 2 2 2 2 2 2 l 2,1 2,1 2,1 2,1 1,1 1,1 1,1 1,1 1,1 1,1 1,1 1,1 1,1 1,1 1,1 1,1 1,1 1,1 1,2 v 2 2 2 2 2 2 2 2 2 2 2 l -1,2 -1,1 -1,1 -1,1 -1,1 -1,1 -1,1 -1,1 -1,1 -1,1 -1,1 -1,1 -1,1 -1,1 -1,1 -2,1 -2,1 -2,1 -2,1 -2,1 -2,1 h -2 -2 -2 z m -831,126 -10,-63 26,-4 26,-4 26,-4 26,-4 26,-4 26,-4 26,-4 26,-4 26,-4 26,-4 26,-4 26,-4 26,-4 26,-4 26,-4 26,-4 26,-4 26,-4 26,-4 26,-4 26,-4 26,-4 26,-4 26,-4 26,-4 26,-4 26,-4 26,-4 26,-4 26,-4 26,-4 26,-4 10,63 -26,4 -26,4 -26,4 -26,4 -26,4 -26,4 -26,4 -26,4 -26,4 -26,4 -26,4 -26,4 -26,4 -26,4 -26,4 -26,4 -26,4 -26,4 -26,4 -26,4 -26,4 -26,4 -26,4 -26,4 -26,4 -26,4 -26,4 -26,4 -26,4 -26,4 -26,4 z m -10,-63 10,63 h -2 -2 -2 -2 -2 -2 -2 -2 -2 -2 l -2,-1 -2,-1 -2,-1 -2,-1 -1,-1 -1,-1 -1,-1 -1,-1 -1,-1 -1,-1 -1,-1 -1,-1 -1,-1 -1,-1 -1,-1 -1,-1 -1,-1 -1,-1 -1,-2 v -2 -2 -2 -2 -2 -2 -2 -2 -2 -2 -2 l 1,-2 1,-1 1,-1 1,-1 1,-1 1,-1 1,-1 1,-1 1,-1 1,-1 1,-1 1,-1 1,-1 1,-1 1,-1 2,-1 2,-1 2,-1 2,-1 2,-1 2,-1 h 2 2 2 z"
         class="fil6" /></g><g
       id="g61"><path
         style="fill:#ab8082;fill-rule:nonzero"
         id="path59"
         d="m 6576,4963 -10,-63 h 2 2 2 2 2 2 2 2 2 2 l 2,1 2,1 2,1 2,1 1,1 1,1 1,1 1,1 1,1 1,1 1,1 1,1 1,1 1,1 1,1 1,1 1,1 1,1 1,2 v 2 2 2 2 2 2 2 2 2 2 2 l -1,2 -1,1 -1,1 -1,1 -1,1 -1,1 -1,1 -1,1 -1,1 -1,1 -1,1 -1,1 -1,1 -1,1 -1,1 -2,1 -2,1 -2,1 -2,1 -2,1 -2,1 h -2 -2 -2 z m -1221,121 1212,-184 10,63 -1212,184 z m 0,0 10,63 h -2 -2 -2 -2 -2 -2 -2 -2 -2 -2 l -2,-1 -2,-1 -2,-1 -2,-1 -1,-1 -1,-1 -1,-1 -1,-1 -1,-1 -1,-1 -1,-1 -1,-1 -1,-1 -1,-1 -1,-1 -1,-1 -1,-1 -1,-1 -1,-2 v -2 -2 -2 -2 -2 -2 -2 -2 -2 -2 -2 l 1,-2 1,-1 1,-1 1,-1 1,-1 1,-1 1,-1 1,-1 1,-1 1,-1 1,-1 1,-1 1,-1 1,-1 1,-1 2,-1 2,-1 2,-1 2,-1 2,-1 2,-1 h 2 2 2 z m 815,-233 -10,-63 h 2 2 2 2 2 2 2 2 2 2 l 2,1 2,1 2,1 2,1 1,1 1,1 1,1 1,1 1,1 1,1 1,1 1,1 1,1 1,1 1,1 1,1 1,1 1,1 1,2 v 2 2 2 2 2 2 2 2 2 2 2 l -1,2 -1,1 -1,1 -1,1 -1,1 -1,1 -1,1 -1,1 -1,1 -1,1 -1,1 -1,1 -1,1 -1,1 -1,1 -2,1 -2,1 -2,1 -2,1 -2,1 -2,1 h -2 -2 -2 z m -831,126 -10,-63 26,-4 26,-4 26,-4 26,-4 26,-4 26,-4 26,-4 26,-4 26,-4 26,-4 26,-4 26,-4 26,-4 26,-4 26,-4 26,-4 26,-4 26,-4 26,-4 26,-4 26,-4 26,-4 26,-4 26,-4 26,-4 26,-4 26,-4 26,-4 26,-4 26,-4 26,-4 26,-4 10,63 -26,4 -26,4 -26,4 -26,4 -26,4 -26,4 -26,4 -26,4 -26,4 -26,4 -26,4 -26,4 -26,4 -26,4 -26,4 -26,4 -26,4 -26,4 -26,4 -26,4 -26,4 -26,4 -26,4 -26,4 -26,4 -26,4 -26,4 -26,4 -26,4 -26,4 -26,4 z m -10,-63 10,63 h -2 -2 -2 -2 -2 -2 -2 -2 -2 -2 l -2,-1 -2,-1 -2,-1 -2,-1 -1,-1 -1,-1 -1,-1 -1,-1 -1,-1 -1,-1 -1,-1 -1,-1 -1,-1 -1,-1 -1,-1 -1,-1 -1,-1 -1,-1 -1,-2 v -2 -2 -2 -2 -2 -2 -2 -2 -2 -2 -2 l 1,-2 1,-1 1,-1 1,-1 1,-1 1,-1 1,-1 1,-1 1,-1 1,-1 1,-1 1,-1 1,-1 1,-1 1,-1 2,-1 2,-1 2,-1 2,-1 2,-1 2,-1 h 2 2 2 z"
         class="fil6" /></g><g
       id="g65"><path
         style="fill:#cc7588;fill-rule:nonzero"
         id="path63"
         d="m 6833,4746 -10,-63 h 2 2 2 2 2 2 2 2 2 2 l 2,1 2,1 2,1 2,1 1,1 1,1 1,1 1,1 1,1 1,1 1,1 1,1 1,1 1,1 1,1 1,1 1,1 1,1 1,2 v 2 2 2 2 2 2 2 2 2 2 2 l -1,2 -1,1 -1,1 -1,1 -1,1 -1,1 -1,1 -1,1 -1,1 -1,1 -1,1 -1,1 -1,1 -1,1 -1,1 -2,1 -2,1 -2,1 -2,1 -2,1 -2,1 h -2 -2 -2 z m -348,53 -10,-63 11,-2 11,-2 11,-2 11,-2 11,-2 11,-2 11,-2 11,-2 11,-2 11,-2 11,-2 11,-2 11,-2 11,-2 11,-2 11,-2 11,-2 11,-2 11,-2 11,-2 11,-2 11,-2 11,-2 11,-2 11,-2 11,-2 11,-2 11,-2 11,-2 11,-2 11,-2 11,-2 10,63 -11,2 -11,2 -11,2 -11,2 -11,2 -11,2 -11,2 -11,2 -11,2 -11,2 -11,2 -11,2 -11,2 -11,2 -11,2 -11,2 -11,2 -11,2 -11,2 -11,2 -11,2 -11,2 -11,2 -11,2 -11,2 -11,2 -11,2 -11,2 -11,2 -11,2 -11,2 z m -10,-63 10,63 h -2 -2 -2 -2 -2 -2 -2 -2 -2 -2 l -2,-1 -2,-1 -2,-1 -2,-1 -1,-1 -1,-1 -1,-1 -1,-1 -1,-1 -1,-1 -1,-1 -1,-1 -1,-1 -1,-1 -1,-1 -1,-1 -1,-1 -1,-1 -1,-2 v -2 -2 -2 -2 -2 -2 -2 -2 -2 -2 -2 l 1,-2 1,-1 1,-1 1,-1 1,-1 1,-1 1,-1 1,-1 1,-1 1,-1 1,-1 1,-1 1,-1 1,-1 1,-1 2,-1 2,-1 2,-1 2,-1 2,-1 2,-1 h 2 2 2 z"
         class="fil7" /></g><g
       id="g69"><path
         style="fill:#cc7588;fill-rule:nonzero"
         id="path67"
         d="m 6775,4386 -10,-63 h 2 2 2 2 2 2 2 2 2 2 l 2,1 2,1 2,1 2,1 1,1 1,1 1,1 1,1 1,1 1,1 1,1 1,1 1,1 1,1 1,1 1,1 1,1 1,1 1,2 v 2 2 2 2 2 2 2 2 2 2 2 l -1,2 -1,1 -1,1 -1,1 -1,1 -1,1 -1,1 -1,1 -1,1 -1,1 -1,1 -1,1 -1,1 -1,1 -1,1 -2,1 -2,1 -2,1 -2,1 -2,1 -2,1 h -2 -2 -2 z m -348,53 -10,-63 11,-2 11,-2 11,-2 11,-2 11,-2 11,-2 11,-2 11,-2 11,-2 11,-2 11,-2 11,-2 11,-2 11,-2 11,-2 11,-2 11,-2 11,-2 11,-2 11,-2 11,-2 11,-2 11,-2 11,-2 11,-2 11,-2 11,-2 11,-2 11,-2 11,-2 11,-2 11,-2 10,63 -11,2 -11,2 -11,2 -11,2 -11,2 -11,2 -11,2 -11,2 -11,2 -11,2 -11,2 -11,2 -11,2 -11,2 -11,2 -11,2 -11,2 -11,2 -11,2 -11,2 -11,2 -11,2 -11,2 -11,2 -11,2 -11,2 -11,2 -11,2 -11,2 -11,2 -11,2 z m -10,-63 10,63 h -2 -2 -2 -2 -2 -2 -2 -2 -2 -2 l -2,-1 -2,-1 -2,-1 -2,-1 -1,-1 -1,-1 -1,-1 -1,-1 -1,-1 -1,-1 -1,-1 -1,-1 -1,-1 -1,-1 -1,-1 -1,-1 -1,-1 -1,-1 -1,-2 v -2 -2 -2 -2 -2 -2 -2 -2 -2 -2 -2 l 1,-2 1,-1 1,-1 1,-1 1,-1 1,-1 1,-1 1,-1 1,-1 1,-1 1,-1 1,-1 1,-1 1,-1 1,-1 2,-1 2,-1 2,-1 2,-1 2,-1 2,-1 h 2 2 2 z"
         class="fil7" /></g><g
       id="g73"><path
         style="fill:#cc7588;fill-rule:nonzero"
         id="path71"
         d="m 6687,4028 -10,-63 h 2 2 2 2 2 2 2 2 2 2 l 2,1 2,1 2,1 2,1 1,1 1,1 1,1 1,1 1,1 1,1 1,1 1,1 1,1 1,1 1,1 1,1 1,1 1,1 1,2 v 2 2 2 2 2 2 2 2 2 2 2 l -1,2 -1,1 -1,1 -1,1 -1,1 -1,1 -1,1 -1,1 -1,1 -1,1 -1,1 -1,1 -1,1 -1,1 -1,1 -2,1 -2,1 -2,1 -2,1 -2,1 -2,1 h -2 -2 -2 z m -348,53 -10,-63 11,-2 11,-2 11,-2 11,-2 11,-2 11,-2 11,-2 11,-2 11,-2 11,-2 11,-2 11,-2 11,-2 11,-2 11,-2 11,-2 11,-2 11,-2 11,-2 11,-2 11,-2 11,-2 11,-2 11,-2 11,-2 11,-2 11,-2 11,-2 11,-2 11,-2 11,-2 11,-2 10,63 -11,2 -11,2 -11,2 -11,2 -11,2 -11,2 -11,2 -11,2 -11,2 -11,2 -11,2 -11,2 -11,2 -11,2 -11,2 -11,2 -11,2 -11,2 -11,2 -11,2 -11,2 -11,2 -11,2 -11,2 -11,2 -11,2 -11,2 -11,2 -11,2 -11,2 -11,2 z m -10,-63 10,63 h -2 -2 -2 -2 -2 -2 -2 -2 -2 -2 l -2,-1 -2,-1 -2,-1 -2,-1 -1,-1 -1,-1 -1,-1 -1,-1 -1,-1 -1,-1 -1,-1 -1,-1 -1,-1 -1,-1 -1,-1 -1,-1 -1,-1 -1,-1 -1,-2 v -2 -2 -2 -2 -2 -2 -2 -2 -2 -2 -2 l 1,-2 1,-1 1,-1 1,-1 1,-1 1,-1 1,-1 1,-1 1,-1 1,-1 1,-1 1,-1 1,-1 1,-1 1,-1 2,-1 2,-1 2,-1 2,-1 2,-1 2,-1 h 2 2 2 z"
         class="fil7" /></g></g></svg>