<?xml version="1.0" encoding="UTF-8"?>
<!DOCTYPE svg PUBLIC "-//W3C//DTD SVG 1.1//EN" "http://www.w3.org/Graphics/SVG/1.1/DTD/svg11.dtd">
<!-- Creator: CorelDRAW X6 -->
<svg xmlns="http://www.w3.org/2000/svg" xml:space="preserve" width="122.061mm" height="76.9056mm" version="1.1" style="shape-rendering:geometricPrecision; text-rendering:geometricPrecision; image-rendering:optimizeQuality; fill-rule:evenodd; clip-rule:evenodd"
viewBox="0 0 12206 7691"
 xmlns:xlink="http://www.w3.org/1999/xlink">
 <defs>
  <style type="text/css">
   <![CDATA[
    .str1 {stroke:#4D897C;stroke-width:92.47;stroke-linecap:round;stroke-linejoin:round}
    .str0 {stroke:#024541;stroke-width:100;stroke-linecap:round;stroke-linejoin:round}
    .str3 {stroke:#7690C9;stroke-width:111.19;stroke-linecap:round;stroke-linejoin:round}
    .str2 {stroke:#CC7588;stroke-width:130;stroke-linecap:round;stroke-linejoin:round;stroke-dasharray:529.540000 385.120000}
    .fil2 {fill:none}
    .fil5 {fill:none;fill-rule:nonzero}
    .fil3 {fill:#CDDBAC}
    .fil1 {fill:#EBF2D9}
    .fil4 {fill:#4D897C;fill-rule:nonzero}
    .fil0 {fill:url(#id0)}
   ]]>
  </style>
  <radialGradient id="id0" gradientUnits="userSpaceOnUse" cx="6103.05" cy="3845.28" r="5785.57" fx="6103.05" fy="3845.28">
   <stop offset="0" style="stop-color:#FEFEFE"/>
   <stop offset="0.45098" style="stop-color:#FEFEFE"/>
   <stop offset="1" style="stop-color:#D2E2F2"/>
  </radialGradient>
 </defs>
 <g id="Layer_x0020_1">
  <metadata id="CorelCorpID_0Corel-Layer"/>
  <polygon class="fil0" points="317,318 317,7373 11889,7373 11889,318 "/>
  <polygon class="fil1" points="4879,4249 4879,5159 5999,5159 "/>
  <polyline class="fil2 str0" points="4879,4249 4879,5159 5977,5159 "/>
  <path class="fil1" d="M6802 1070l-2238 0 0 2924 1120 910 1435 0 0 -3515c0,-176 -142,-318 -318,-318z"/>
  <polygon class="fil3" points="5682,4904 7104,4904 7104,3512 5109,4435 "/>
  <g>
   <path class="fil4" d="M5197 4116l0 45 -1 0 -1 0 -1 0 -1 0 -1 0 -1 0 -1 0 -1 0 -1 0 -1 0 -1 -1 -1 -1 -1 -1 -1 -1 -1 -1 -1 -1 -1 -1 -1 -1 -1 -1 -1 -1 -1 -1 -1 -1 -1 -1 -1 -1 0 -1 0 -1 0 -1 0 -1 0 -1 0 -1 0 -1 0 -1 0 -1 0 -1 0 -1 0 -1 0 -1 0 -1 0 -1 0 -1 1 -1 1 -1 1 -1 1 -1 1 -1 1 -1 1 -1 1 -1 1 -1 1 -1 1 -1 1 -1 1 -1 1 -1 1 0 1 0 1 0 1 0 1 0 1 0 1 0 1 0 1 0 1 0zm1477 45l-1477 0 0 -45 1477 0 0 45zm0 0l0 -45 1 0 1 0 1 0 1 0 1 0 1 0 1 0 1 0 1 0 1 0 1 1 1 1 1 1 1 1 1 1 1 1 1 1 1 1 1 1 1 1 1 1 1 1 1 1 1 1 0 1 0 1 0 1 0 1 0 1 0 1 0 1 0 1 0 1 0 1 0 1 0 1 0 1 0 1 0 1 0 1 -1 1 -1 1 -1 1 -1 1 -1 1 -1 1 -1 1 -1 1 -1 1 -1 1 -1 1 -1 1 -1 1 -1 1 -1 0 -1 0 -1 0 -1 0 -1 0 -1 0 -1 0 -1 0 -1 0 -1 0zm-1664 -2132l0 45 -1 0 -1 0 -1 0 -1 0 -1 0 -1 0 -1 0 -1 0 -1 0 -1 0 -1 -1 -1 -1 -1 -1 -1 -1 -1 -1 -1 -1 -1 -1 -1 -1 -1 -1 -1 -1 -1 -1 -1 -1 -1 -1 -1 -1 0 -1 0 -1 0 -1 0 -1 0 -1 0 -1 0 -1 0 -1 0 -1 0 -1 0 -1 0 -1 0 -1 0 -1 0 -1 0 -1 1 -1 1 -1 1 -1 1 -1 1 -1 1 -1 1 -1 1 -1 1 -1 1 -1 1 -1 1 -1 1 -1 1 -1 1 0 1 0 1 0 1 0 1 0 1 0 1 0 1 0 1 0 1 0zm1664 45l-1664 0 0 -45 1664 0 0 45zm0 0l0 -45 1 0 1 0 1 0 1 0 1 0 1 0 1 0 1 0 1 0 1 0 1 1 1 1 1 1 1 1 1 1 1 1 1 1 1 1 1 1 1 1 1 1 1 1 1 1 1 1 0 1 0 1 0 1 0 1 0 1 0 1 0 1 0 1 0 1 0 1 0 1 0 1 0 1 0 1 0 1 0 1 -1 1 -1 1 -1 1 -1 1 -1 1 -1 1 -1 1 -1 1 -1 1 -1 1 -1 1 -1 1 -1 1 -1 1 -1 0 -1 0 -1 0 -1 0 -1 0 -1 0 -1 0 -1 0 -1 0 -1 0zm-1664 -303l0 45 -1 0 -1 0 -1 0 -1 0 -1 0 -1 0 -1 0 -1 0 -1 0 -1 0 -1 -1 -1 -1 -1 -1 -1 -1 -1 -1 -1 -1 -1 -1 -1 -1 -1 -1 -1 -1 -1 -1 -1 -1 -1 -1 -1 -1 0 -1 0 -1 0 -1 0 -1 0 -1 0 -1 0 -1 0 -1 0 -1 0 -1 0 -1 0 -1 0 -1 0 -1 0 -1 0 -1 1 -1 1 -1 1 -1 1 -1 1 -1 1 -1 1 -1 1 -1 1 -1 1 -1 1 -1 1 -1 1 -1 1 -1 1 0 1 0 1 0 1 0 1 0 1 0 1 0 1 0 1 0 1 0zm1664 45l-1664 0 0 -45 1664 0 0 45zm0 0l0 -45 1 0 1 0 1 0 1 0 1 0 1 0 1 0 1 0 1 0 1 0 1 1 1 1 1 1 1 1 1 1 1 1 1 1 1 1 1 1 1 1 1 1 1 1 1 1 1 1 0 1 0 1 0 1 0 1 0 1 0 1 0 1 0 1 0 1 0 1 0 1 0 1 0 1 0 1 0 1 0 1 -1 1 -1 1 -1 1 -1 1 -1 1 -1 1 -1 1 -1 1 -1 1 -1 1 -1 1 -1 1 -1 1 -1 1 -1 0 -1 0 -1 0 -1 0 -1 0 -1 0 -1 0 -1 0 -1 0 -1 0zm-1664 -303l0 45 -1 0 -1 0 -1 0 -1 0 -1 0 -1 0 -1 0 -1 0 -1 0 -1 0 -1 -1 -1 -1 -1 -1 -1 -1 -1 -1 -1 -1 -1 -1 -1 -1 -1 -1 -1 -1 -1 -1 -1 -1 -1 -1 -1 -1 0 -1 0 -1 0 -1 0 -1 0 -1 0 -1 0 -1 0 -1 0 -1 0 -1 0 -1 0 -1 0 -1 0 -1 0 -1 0 -1 1 -1 1 -1 1 -1 1 -1 1 -1 1 -1 1 -1 1 -1 1 -1 1 -1 1 -1 1 -1 1 -1 1 -1 1 0 1 0 1 0 1 0 1 0 1 0 1 0 1 0 1 0 1 0zm1664 45l-1664 0 0 -45 1664 0 0 45zm0 0l0 -45 1 0 1 0 1 0 1 0 1 0 1 0 1 0 1 0 1 0 1 0 1 1 1 1 1 1 1 1 1 1 1 1 1 1 1 1 1 1 1 1 1 1 1 1 1 1 1 1 0 1 0 1 0 1 0 1 0 1 0 1 0 1 0 1 0 1 0 1 0 1 0 1 0 1 0 1 0 1 0 1 -1 1 -1 1 -1 1 -1 1 -1 1 -1 1 -1 1 -1 1 -1 1 -1 1 -1 1 -1 1 -1 1 -1 1 -1 0 -1 0 -1 0 -1 0 -1 0 -1 0 -1 0 -1 0 -1 0 -1 0z"/>
  </g>
  <g>
   <path class="fil4" d="M6313 3339l0 45 -1 0 -1 0 -1 0 -1 0 -1 0 -1 0 -1 0 -1 0 -1 0 -1 0 -1 -1 -1 -1 -1 -1 -1 -1 -1 -1 -1 -1 -1 -1 -1 -1 -1 -1 -1 -1 -1 -1 -1 -1 -1 -1 -1 -1 0 -1 0 -1 0 -1 0 -1 0 -1 0 -1 0 -1 0 -1 0 -1 0 -1 0 -1 0 -1 0 -1 0 -1 0 -1 0 -1 1 -1 1 -1 1 -1 1 -1 1 -1 1 -1 1 -1 1 -1 1 -1 1 -1 1 -1 1 -1 1 -1 1 -1 1 0 1 0 1 0 1 0 1 0 1 0 1 0 1 0 1 0 1 0zm361 45l-361 0 0 -45 361 0 0 45zm0 0l0 -45 1 0 1 0 1 0 1 0 1 0 1 0 1 0 1 0 1 0 1 0 1 1 1 1 1 1 1 1 1 1 1 1 1 1 1 1 1 1 1 1 1 1 1 1 1 1 1 1 0 1 0 1 0 1 0 1 0 1 0 1 0 1 0 1 0 1 0 1 0 1 0 1 0 1 0 1 0 1 0 1 -1 1 -1 1 -1 1 -1 1 -1 1 -1 1 -1 1 -1 1 -1 1 -1 1 -1 1 -1 1 -1 1 -1 1 -1 0 -1 0 -1 0 -1 0 -1 0 -1 0 -1 0 -1 0 -1 0 -1 0zm-1664 -838l0 45 -1 0 -1 0 -1 0 -1 0 -1 0 -1 0 -1 0 -1 0 -1 0 -1 0 -1 -1 -1 -1 -1 -1 -1 -1 -1 -1 -1 -1 -1 -1 -1 -1 -1 -1 -1 -1 -1 -1 -1 -1 -1 -1 -1 -1 0 -1 0 -1 0 -1 0 -1 0 -1 0 -1 0 -1 0 -1 0 -1 0 -1 0 -1 0 -1 0 -1 0 -1 0 -1 0 -1 1 -1 1 -1 1 -1 1 -1 1 -1 1 -1 1 -1 1 -1 1 -1 1 -1 1 -1 1 -1 1 -1 1 -1 1 0 1 0 1 0 1 0 1 0 1 0 1 0 1 0 1 0 1 0zm495 45l-495 0 0 -45 495 0 0 45zm0 0l0 -45 1 0 1 0 1 0 1 0 1 0 1 0 1 0 1 0 1 0 1 0 1 1 1 1 1 1 1 1 1 1 1 1 1 1 1 1 1 1 1 1 1 1 1 1 1 1 1 1 0 1 0 1 0 1 0 1 0 1 0 1 0 1 0 1 0 1 0 1 0 1 0 1 0 1 0 1 0 1 0 1 -1 1 -1 1 -1 1 -1 1 -1 1 -1 1 -1 1 -1 1 -1 1 -1 1 -1 1 -1 1 -1 1 -1 1 -1 0 -1 0 -1 0 -1 0 -1 0 -1 0 -1 0 -1 0 -1 0 -1 0zm-495 -303l0 45 -1 0 -1 0 -1 0 -1 0 -1 0 -1 0 -1 0 -1 0 -1 0 -1 0 -1 -1 -1 -1 -1 -1 -1 -1 -1 -1 -1 -1 -1 -1 -1 -1 -1 -1 -1 -1 -1 -1 -1 -1 -1 -1 -1 -1 0 -1 0 -1 0 -1 0 -1 0 -1 0 -1 0 -1 0 -1 0 -1 0 -1 0 -1 0 -1 0 -1 0 -1 0 -1 0 -1 1 -1 1 -1 1 -1 1 -1 1 -1 1 -1 1 -1 1 -1 1 -1 1 -1 1 -1 1 -1 1 -1 1 -1 1 0 1 0 1 0 1 0 1 0 1 0 1 0 1 0 1 0 1 0zm1028 45l-1028 0 0 -45 1028 0 0 45zm0 0l0 -45 1 0 1 0 1 0 1 0 1 0 1 0 1 0 1 0 1 0 1 0 1 1 1 1 1 1 1 1 1 1 1 1 1 1 1 1 1 1 1 1 1 1 1 1 1 1 1 1 0 1 0 1 0 1 0 1 0 1 0 1 0 1 0 1 0 1 0 1 0 1 0 1 0 1 0 1 0 1 0 1 -1 1 -1 1 -1 1 -1 1 -1 1 -1 1 -1 1 -1 1 -1 1 -1 1 -1 1 -1 1 -1 1 -1 1 -1 0 -1 0 -1 0 -1 0 -1 0 -1 0 -1 0 -1 0 -1 0 -1 0zm-565 1525l0 45 -1 0 -1 0 -1 0 -1 0 -1 0 -1 0 -1 0 -1 0 -1 0 -1 0 -1 -1 -1 -1 -1 -1 -1 -1 -1 -1 -1 -1 -1 -1 -1 -1 -1 -1 -1 -1 -1 -1 -1 -1 -1 -1 -1 -1 0 -1 0 -1 0 -1 0 -1 0 -1 0 -1 0 -1 0 -1 0 -1 0 -1 0 -1 0 -1 0 -1 0 -1 0 -1 0 -1 1 -1 1 -1 1 -1 1 -1 1 -1 1 -1 1 -1 1 -1 1 -1 1 -1 1 -1 1 -1 1 -1 1 -1 1 0 1 0 1 0 1 0 1 0 1 0 1 0 1 0 1 0 1 0zm1201 45l-1201 0 0 -45 1201 0 0 45zm0 0l0 -45 1 0 1 0 1 0 1 0 1 0 1 0 1 0 1 0 1 0 1 0 1 1 1 1 1 1 1 1 1 1 1 1 1 1 1 1 1 1 1 1 1 1 1 1 1 1 1 1 0 1 0 1 0 1 0 1 0 1 0 1 0 1 0 1 0 1 0 1 0 1 0 1 0 1 0 1 0 1 0 1 -1 1 -1 1 -1 1 -1 1 -1 1 -1 1 -1 1 -1 1 -1 1 -1 1 -1 1 -1 1 -1 1 -1 1 -1 0 -1 0 -1 0 -1 0 -1 0 -1 0 -1 0 -1 0 -1 0 -1 0zm-790 -303l0 45 -1 0 -1 0 -1 0 -1 0 -1 0 -1 0 -1 0 -1 0 -1 0 -1 0 -1 -1 -1 -1 -1 -1 -1 -1 -1 -1 -1 -1 -1 -1 -1 -1 -1 -1 -1 -1 -1 -1 -1 -1 -1 -1 -1 -1 0 -1 0 -1 0 -1 0 -1 0 -1 0 -1 0 -1 0 -1 0 -1 0 -1 0 -1 0 -1 0 -1 0 -1 0 -1 0 -1 1 -1 1 -1 1 -1 1 -1 1 -1 1 -1 1 -1 1 -1 1 -1 1 -1 1 -1 1 -1 1 -1 1 -1 1 0 1 0 1 0 1 0 1 0 1 0 1 0 1 0 1 0 1 0zm790 45l-790 0 0 -45 790 0 0 45zm0 0l0 -45 1 0 1 0 1 0 1 0 1 0 1 0 1 0 1 0 1 0 1 0 1 1 1 1 1 1 1 1 1 1 1 1 1 1 1 1 1 1 1 1 1 1 1 1 1 1 1 1 0 1 0 1 0 1 0 1 0 1 0 1 0 1 0 1 0 1 0 1 0 1 0 1 0 1 0 1 0 1 0 1 -1 1 -1 1 -1 1 -1 1 -1 1 -1 1 -1 1 -1 1 -1 1 -1 1 -1 1 -1 1 -1 1 -1 1 -1 0 -1 0 -1 0 -1 0 -1 0 -1 0 -1 0 -1 0 -1 0 -1 0z"/>
  </g>
  <polyline class="fil2 str0" points="4564,3993 4564,1070 7103,1070 7103,4904 5685,4904 "/>
  <path class="fil4" d="M4924 3514l-39 22 -47 -81 87 -50c10,-6 16,-17 8,-30 -8,-13 -20,-14 -30,-8l-108 62c-14,8 -15,20 -9,31l152 264c6,10 18,16 32,8l59 -34c55,-32 63,-75 35,-124l-15 -25c-27,-48 -72,-66 -127,-34zm101 82c15,26 12,45 -18,62l-39 22 -62 -108 39 -22c30,-17 50,-7 65,20l15 26zm114 -372l-4 3c-58,33 -52,95 -24,143l18 31 -35 20 -62 -108c-6,-10 -16,-17 -31,-9 -14,8 -14,21 -8,31l157 272c6,10 17,17 31,9 14,-8 14,-21 8,-31l-72 -125 35 -20 38 65c27,48 71,65 126,33l4 -3c55,-32 59,-83 31,-131l-82 -143c-27,-48 -74,-70 -129,-38zm171 204c16,27 17,51 -13,68l-4 3c-30,17 -47,9 -63,-18l-78 -135c-15,-27 -25,-62 6,-80l4 -3c30,-17 50,-4 66,23l82 143zm167 -62c-5,-10 -107,-218 -107,-218l61 -35 143 248c6,10 18,16 32,8 14,-8 14,-21 8,-31l-154 -267c-6,-10 -18,-16 -31,-8l-99 57c-14,8 -15,22 -9,32 0,0 109,221 112,227 3,5 7,14 7,21 0,10 -3,19 -14,25 -10,6 -16,18 -8,32 8,15 21,14 31,8 31,-18 42,-41 38,-67 -1,-10 -5,-21 -10,-30zm231 -133c-5,-10 -107,-218 -107,-218l61 -35 143 248c6,10 18,16 32,8 14,-8 14,-21 8,-31l-154 -267c-6,-10 -18,-16 -31,-8l-99 57c-14,8 -15,22 -9,32 0,0 109,221 112,227 3,5 7,14 7,21 0,10 -3,19 -14,25 -10,6 -16,18 -8,32 9,15 21,14 31,8 31,-18 42,-41 38,-67 -1,-10 -5,-21 -10,-30zm343 -125c10,-6 16,-17 8,-30 -7,-13 -20,-14 -30,-8l-93 53 -56 -97 74 -42c10,-6 16,-17 8,-30 -8,-13 -20,-14 -30,-8l-74 42 -51 -89 93 -53c10,-6 16,-17 8,-30 -8,-13 -20,-14 -30,-8l-113 65c-14,8 -14,21 -8,31l152 263c6,10 18,16 31,8l113 -65zm99 -78c6,10 17,17 31,8 14,-8 15,-21 9,-32l-143 -248 50 -29c10,-6 16,-17 8,-30 -8,-13 -20,-14 -30,-8l-141 81c-10,6 -15,17 -8,30 8,14 20,14 30,8l50 -29 143 248zm289 -146c10,-6 16,-17 8,-30 -8,-13 -20,-14 -30,-8l-93 53 -56 -97 74 -42c10,-6 16,-17 8,-30 -8,-13 -20,-14 -30,-8l-74 42 -51 -89 93 -53c10,-6 16,-17 8,-30 -8,-13 -20,-14 -30,-8l-113 65c-14,8 -14,21 -8,31l152 263c6,10 18,16 31,8l113 -65zm67 -422c-6,-10 -18,-16 -32,-8 -14,8 -15,21 -9,32l62 108 -88 51 -62 -108c-6,-10 -17,-17 -32,-8 -14,8 -15,21 -9,32l157 272c6,10 18,16 32,8 14,-8 15,-21 9,-32l-72 -125 88 -51 72 125c6,10 17,17 32,8 14,-8 15,-21 9,-32l-157 -272zm205 17l-44 25 -59 -102c-6,-10 -18,-16 -32,-8 -14,8 -15,21 -9,32l154 267c6,10 18,16 31,8l64 -37c55,-32 63,-75 35,-124l-15 -26c-28,-48 -72,-67 -127,-36zm-21 64l44 -25c30,-17 50,-7 65,20l15 26c15,26 12,45 -18,62l-44 25 -62 -108z"/>
  <line class="fil5 str1" x1="4228" y1="1376" x2="4228" y2= "4298" />
  <path class="fil5 str1" d="M4396 1223c0,730 0,2192 0,2922"/>
  <path class="fil5 str1" d="M4060 1529c0,730 0,2192 0,2922"/>
  <polyline class="fil5 str1" points="4711,4402 4711,5312 5831,5312 "/>
  <polyline class="fil5 str1" points="4543,4555 4543,5465 5663,5465 "/>
  <polyline class="fil5 str1" points="4374,4708 4374,5618 5495,5618 "/>
  <line class="fil5 str1" x1="5873" y1="5057" x2="6957" y2= "5057" />
  <line class="fil5 str1" x1="5935" y1="5209" x2="6789" y2= "5209" />
  <line class="fil5 str1" x1="5816" y1="5362" x2="6621" y2= "5362" />
  <polyline class="fil5 str2" points="7059,6050 7019,6018 4096,3598 "/>
  <path class="fil5 str3" d="M7717 6462c-98,-101 -96,-262 4,-360 101,-98 262,-96 360,4 98,101 96,262 -4,360 -75,73 -183,91 -274,54l-1516 -576 -11 37 824 358"/>
  <path class="fil5 str3" d="M7477 6702c-101,-98 -262,-96 -360,4 -98,101 -96,262 4,360 101,98 262,96 360,-4 73,-75 91,-183 54,-274l-576 -1516 37 -11 358 824"/>
 </g>
</svg>
