<?xml version="1.0" encoding="UTF-8" standalone="no"?>
<svg
   xmlns:dc="http://purl.org/dc/elements/1.1/"
   xmlns:cc="http://creativecommons.org/ns#"
   xmlns:rdf="http://www.w3.org/1999/02/22-rdf-syntax-ns#"
   xmlns:svg="http://www.w3.org/2000/svg"
   xmlns="http://www.w3.org/2000/svg"
   id="svg61"
   viewBox="0 0 12197.192 7699.8154"
   style="clip-rule:evenodd;fill-rule:evenodd;image-rendering:optimizeQuality;shape-rendering:geometricPrecision;text-rendering:geometricPrecision"
   version="1.1"
   height="291"
   width="461"
   xml:space="preserve"><metadata
     id="metadata65"><rdf:RDF><cc:Work
         rdf:about=""><dc:format>image/svg+xml</dc:format><dc:type
           rdf:resource="http://purl.org/dc/dcmitype/StillImage" /><dc:title></dc:title></cc:Work></rdf:RDF></metadata><defs
     id="defs11"><style
       id="style2"
       type="text/css"><![CDATA[
    .str1 {stroke:#4D897C;stroke-width:92.47;stroke-linecap:round;stroke-linejoin:round}
    .str0 {stroke:#024541;stroke-width:100;stroke-linecap:round;stroke-linejoin:round}
    .str3 {stroke:#7690C9;stroke-width:111.19;stroke-linecap:round;stroke-linejoin:round}
    .str2 {stroke:#CC7588;stroke-width:130;stroke-linecap:round;stroke-linejoin:round;stroke-dasharray:529.540000 385.120000}
    .fil2 {fill:none}
    .fil5 {fill:none;fill-rule:nonzero}
    .fil3 {fill:#CDDBAC}
    .fil1 {fill:#EBF2D9}
    .fil4 {fill:#4D897C;fill-rule:nonzero}
    .fil0 {fill:url(#id0)}
   ]]></style><radialGradient
       fy="3845.28"
       fx="6103.0498"
       r="5785.5698"
       cy="3845.28"
       cx="6103.0498"
       gradientUnits="userSpaceOnUse"
       id="id0"><stop
         id="stop4"
         style="stop-color:#FEFEFE"
         offset="0" /><stop
         id="stop6"
         style="stop-color:#FEFEFE"
         offset="0.45098" /><stop
         id="stop8"
         style="stop-color:#D2E2F2"
         offset="1" /></radialGradient></defs><g
     transform="matrix(1.0540952,0,0,1.0913984,-334.54684,-347.06468)"
     id="Layer_x0020_1"><metadata
       id="CorelCorpID_0Corel-Layer" /><polygon
       style="fill:url(#id0)"
       id="polygon14"
       points="317,7373 11889,7373 11889,318 317,318 "
       class="fil0" /><polygon
       style="fill:#ebf2d9"
       id="polygon16"
       points="4879,4249 4879,5159 5999,5159 "
       class="fil1" /><polyline
       style="fill:none;stroke:#024541;stroke-width:100;stroke-linecap:round;stroke-linejoin:round"
       id="polyline18"
       points="4879,4249 4879,5159 5977,5159 "
       class="fil2 str0" /><path
       style="fill:#ebf2d9"
       id="path20"
       d="M 6802,1070 H 4564 v 2924 l 1120,910 H 7119 V 1389 c 0,-176 -142,-318 -318,-318 z"
       class="fil1" /><polygon
       style="fill:#cddbac"
       id="polygon22"
       points="7104,4904 7104,3512 5109,4435 5682,4904 "
       class="fil3" /><g
       id="g26"><path
         style="fill:#4d897c;fill-rule:nonzero"
         id="path24"
         d="m 5197,4116 v 45 h -1 -1 -1 -1 -1 -1 -1 -1 -1 -1 l -1,-1 -1,-1 -1,-1 -1,-1 -1,-1 -1,-1 -1,-1 -1,-1 -1,-1 -1,-1 -1,-1 -1,-1 -1,-1 -1,-1 v -1 -1 -1 -1 -1 -1 -1 -1 -1 -1 -1 -1 -1 -1 -1 -1 l 1,-1 1,-1 1,-1 1,-1 1,-1 1,-1 1,-1 1,-1 1,-1 1,-1 1,-1 1,-1 1,-1 1,-1 h 1 1 1 1 1 1 1 1 1 1 z m 1477,45 H 5197 v -45 h 1477 z m 0,0 v -45 h 1 1 1 1 1 1 1 1 1 1 l 1,1 1,1 1,1 1,1 1,1 1,1 1,1 1,1 1,1 1,1 1,1 1,1 1,1 1,1 v 1 1 1 1 1 1 1 1 1 1 1 1 1 1 1 1 l -1,1 -1,1 -1,1 -1,1 -1,1 -1,1 -1,1 -1,1 -1,1 -1,1 -1,1 -1,1 -1,1 -1,1 h -1 -1 -1 -1 -1 -1 -1 -1 -1 -1 z M 5010,2029 v 45 h -1 -1 -1 -1 -1 -1 -1 -1 -1 -1 l -1,-1 -1,-1 -1,-1 -1,-1 -1,-1 -1,-1 -1,-1 -1,-1 -1,-1 -1,-1 -1,-1 -1,-1 -1,-1 -1,-1 v -1 -1 -1 -1 -1 -1 -1 -1 -1 -1 -1 -1 -1 -1 -1 -1 l 1,-1 1,-1 1,-1 1,-1 1,-1 1,-1 1,-1 1,-1 1,-1 1,-1 1,-1 1,-1 1,-1 1,-1 h 1 1 1 1 1 1 1 1 1 1 z m 1664,45 H 5010 v -45 h 1664 z m 0,0 v -45 h 1 1 1 1 1 1 1 1 1 1 l 1,1 1,1 1,1 1,1 1,1 1,1 1,1 1,1 1,1 1,1 1,1 1,1 1,1 1,1 v 1 1 1 1 1 1 1 1 1 1 1 1 1 1 1 1 l -1,1 -1,1 -1,1 -1,1 -1,1 -1,1 -1,1 -1,1 -1,1 -1,1 -1,1 -1,1 -1,1 -1,1 h -1 -1 -1 -1 -1 -1 -1 -1 -1 -1 z M 5010,1771 v 45 h -1 -1 -1 -1 -1 -1 -1 -1 -1 -1 l -1,-1 -1,-1 -1,-1 -1,-1 -1,-1 -1,-1 -1,-1 -1,-1 -1,-1 -1,-1 -1,-1 -1,-1 -1,-1 -1,-1 v -1 -1 -1 -1 -1 -1 -1 -1 -1 -1 -1 -1 -1 -1 -1 -1 l 1,-1 1,-1 1,-1 1,-1 1,-1 1,-1 1,-1 1,-1 1,-1 1,-1 1,-1 1,-1 1,-1 1,-1 h 1 1 1 1 1 1 1 1 1 1 z m 1664,45 H 5010 v -45 h 1664 z m 0,0 v -45 h 1 1 1 1 1 1 1 1 1 1 l 1,1 1,1 1,1 1,1 1,1 1,1 1,1 1,1 1,1 1,1 1,1 1,1 1,1 1,1 v 1 1 1 1 1 1 1 1 1 1 1 1 1 1 1 1 l -1,1 -1,1 -1,1 -1,1 -1,1 -1,1 -1,1 -1,1 -1,1 -1,1 -1,1 -1,1 -1,1 -1,1 h -1 -1 -1 -1 -1 -1 -1 -1 -1 -1 z M 5010,1513 v 45 h -1 -1 -1 -1 -1 -1 -1 -1 -1 -1 l -1,-1 -1,-1 -1,-1 -1,-1 -1,-1 -1,-1 -1,-1 -1,-1 -1,-1 -1,-1 -1,-1 -1,-1 -1,-1 -1,-1 v -1 -1 -1 -1 -1 -1 -1 -1 -1 -1 -1 -1 -1 -1 -1 -1 l 1,-1 1,-1 1,-1 1,-1 1,-1 1,-1 1,-1 1,-1 1,-1 1,-1 1,-1 1,-1 1,-1 1,-1 h 1 1 1 1 1 1 1 1 1 1 z m 1664,45 H 5010 v -45 h 1664 z m 0,0 v -45 h 1 1 1 1 1 1 1 1 1 1 l 1,1 1,1 1,1 1,1 1,1 1,1 1,1 1,1 1,1 1,1 1,1 1,1 1,1 1,1 v 1 1 1 1 1 1 1 1 1 1 1 1 1 1 1 1 l -1,1 -1,1 -1,1 -1,1 -1,1 -1,1 -1,1 -1,1 -1,1 -1,1 -1,1 -1,1 -1,1 -1,1 h -1 -1 -1 -1 -1 -1 -1 -1 -1 -1 z"
         class="fil4" /></g><g
       id="g30"><path
         style="fill:#4d897c;fill-rule:nonzero"
         id="path28"
         d="m 6313,3339 v 45 h -1 -1 -1 -1 -1 -1 -1 -1 -1 -1 l -1,-1 -1,-1 -1,-1 -1,-1 -1,-1 -1,-1 -1,-1 -1,-1 -1,-1 -1,-1 -1,-1 -1,-1 -1,-1 -1,-1 v -1 -1 -1 -1 -1 -1 -1 -1 -1 -1 -1 -1 -1 -1 -1 -1 l 1,-1 1,-1 1,-1 1,-1 1,-1 1,-1 1,-1 1,-1 1,-1 1,-1 1,-1 1,-1 1,-1 1,-1 h 1 1 1 1 1 1 1 1 1 1 z m 361,45 h -361 v -45 h 361 z m 0,0 v -45 h 1 1 1 1 1 1 1 1 1 1 l 1,1 1,1 1,1 1,1 1,1 1,1 1,1 1,1 1,1 1,1 1,1 1,1 1,1 1,1 v 1 1 1 1 1 1 1 1 1 1 1 1 1 1 1 1 l -1,1 -1,1 -1,1 -1,1 -1,1 -1,1 -1,1 -1,1 -1,1 -1,1 -1,1 -1,1 -1,1 -1,1 h -1 -1 -1 -1 -1 -1 -1 -1 -1 -1 z M 5010,2546 v 45 h -1 -1 -1 -1 -1 -1 -1 -1 -1 -1 l -1,-1 -1,-1 -1,-1 -1,-1 -1,-1 -1,-1 -1,-1 -1,-1 -1,-1 -1,-1 -1,-1 -1,-1 -1,-1 -1,-1 v -1 -1 -1 -1 -1 -1 -1 -1 -1 -1 -1 -1 -1 -1 -1 -1 l 1,-1 1,-1 1,-1 1,-1 1,-1 1,-1 1,-1 1,-1 1,-1 1,-1 1,-1 1,-1 1,-1 1,-1 h 1 1 1 1 1 1 1 1 1 1 z m 495,45 h -495 v -45 h 495 z m 0,0 v -45 h 1 1 1 1 1 1 1 1 1 1 l 1,1 1,1 1,1 1,1 1,1 1,1 1,1 1,1 1,1 1,1 1,1 1,1 1,1 1,1 v 1 1 1 1 1 1 1 1 1 1 1 1 1 1 1 1 l -1,1 -1,1 -1,1 -1,1 -1,1 -1,1 -1,1 -1,1 -1,1 -1,1 -1,1 -1,1 -1,1 -1,1 h -1 -1 -1 -1 -1 -1 -1 -1 -1 -1 z m -495,-303 v 45 h -1 -1 -1 -1 -1 -1 -1 -1 -1 -1 l -1,-1 -1,-1 -1,-1 -1,-1 -1,-1 -1,-1 -1,-1 -1,-1 -1,-1 -1,-1 -1,-1 -1,-1 -1,-1 -1,-1 v -1 -1 -1 -1 -1 -1 -1 -1 -1 -1 -1 -1 -1 -1 -1 -1 l 1,-1 1,-1 1,-1 1,-1 1,-1 1,-1 1,-1 1,-1 1,-1 1,-1 1,-1 1,-1 1,-1 1,-1 h 1 1 1 1 1 1 1 1 1 1 z m 1028,45 H 5010 v -45 h 1028 z m 0,0 v -45 h 1 1 1 1 1 1 1 1 1 1 l 1,1 1,1 1,1 1,1 1,1 1,1 1,1 1,1 1,1 1,1 1,1 1,1 1,1 1,1 v 1 1 1 1 1 1 1 1 1 1 1 1 1 1 1 1 l -1,1 -1,1 -1,1 -1,1 -1,1 -1,1 -1,1 -1,1 -1,1 -1,1 -1,1 -1,1 -1,1 -1,1 h -1 -1 -1 -1 -1 -1 -1 -1 -1 -1 z m -565,1525 v 45 h -1 -1 -1 -1 -1 -1 -1 -1 -1 -1 l -1,-1 -1,-1 -1,-1 -1,-1 -1,-1 -1,-1 -1,-1 -1,-1 -1,-1 -1,-1 -1,-1 -1,-1 -1,-1 -1,-1 v -1 -1 -1 -1 -1 -1 -1 -1 -1 -1 -1 -1 -1 -1 -1 -1 l 1,-1 1,-1 1,-1 1,-1 1,-1 1,-1 1,-1 1,-1 1,-1 1,-1 1,-1 1,-1 1,-1 1,-1 h 1 1 1 1 1 1 1 1 1 1 z m 1201,45 H 5473 v -45 h 1201 z m 0,0 v -45 h 1 1 1 1 1 1 1 1 1 1 l 1,1 1,1 1,1 1,1 1,1 1,1 1,1 1,1 1,1 1,1 1,1 1,1 1,1 1,1 v 1 1 1 1 1 1 1 1 1 1 1 1 1 1 1 1 l -1,1 -1,1 -1,1 -1,1 -1,1 -1,1 -1,1 -1,1 -1,1 -1,1 -1,1 -1,1 -1,1 -1,1 h -1 -1 -1 -1 -1 -1 -1 -1 -1 -1 z m -790,-303 v 45 h -1 -1 -1 -1 -1 -1 -1 -1 -1 -1 l -1,-1 -1,-1 -1,-1 -1,-1 -1,-1 -1,-1 -1,-1 -1,-1 -1,-1 -1,-1 -1,-1 -1,-1 -1,-1 -1,-1 v -1 -1 -1 -1 -1 -1 -1 -1 -1 -1 -1 -1 -1 -1 -1 -1 l 1,-1 1,-1 1,-1 1,-1 1,-1 1,-1 1,-1 1,-1 1,-1 1,-1 1,-1 1,-1 1,-1 1,-1 h 1 1 1 1 1 1 1 1 1 1 z m 790,45 h -790 v -45 h 790 z m 0,0 v -45 h 1 1 1 1 1 1 1 1 1 1 l 1,1 1,1 1,1 1,1 1,1 1,1 1,1 1,1 1,1 1,1 1,1 1,1 1,1 1,1 v 1 1 1 1 1 1 1 1 1 1 1 1 1 1 1 1 l -1,1 -1,1 -1,1 -1,1 -1,1 -1,1 -1,1 -1,1 -1,1 -1,1 -1,1 -1,1 -1,1 -1,1 h -1 -1 -1 -1 -1 -1 -1 -1 -1 -1 z"
         class="fil4" /></g><polyline
       style="fill:none;stroke:#024541;stroke-width:100;stroke-linecap:round;stroke-linejoin:round"
       id="polyline32"
       points="4564,3993 4564,1070 7103,1070 7103,4904 5685,4904 "
       class="fil2 str0" /><path
       style="fill:#4d897c;fill-rule:nonzero"
       id="path34"
       d="m 4924,3514 -39,22 -47,-81 87,-50 c 10,-6 16,-17 8,-30 -8,-13 -20,-14 -30,-8 l -108,62 c -14,8 -15,20 -9,31 l 152,264 c 6,10 18,16 32,8 l 59,-34 c 55,-32 63,-75 35,-124 l -15,-25 c -27,-48 -72,-66 -127,-34 z m 101,82 c 15,26 12,45 -18,62 l -39,22 -62,-108 39,-22 c 30,-17 50,-7 65,20 z m 114,-372 -4,3 c -58,33 -52,95 -24,143 l 18,31 -35,20 -62,-108 c -6,-10 -16,-17 -31,-9 -14,8 -14,21 -8,31 l 157,272 c 6,10 17,17 31,9 14,-8 14,-21 8,-31 l -72,-125 35,-20 38,65 c 27,48 71,65 126,33 l 4,-3 c 55,-32 59,-83 31,-131 l -82,-143 c -27,-48 -74,-70 -129,-38 z m 171,204 c 16,27 17,51 -13,68 l -4,3 c -30,17 -47,9 -63,-18 l -78,-135 c -15,-27 -25,-62 6,-80 l 4,-3 c 30,-17 50,-4 66,23 l 82,143 z m 167,-62 c -5,-10 -107,-218 -107,-218 l 61,-35 143,248 c 6,10 18,16 32,8 14,-8 14,-21 8,-31 l -154,-267 c -6,-10 -18,-16 -31,-8 l -99,57 c -14,8 -15,22 -9,32 0,0 109,221 112,227 3,5 7,14 7,21 0,10 -3,19 -14,25 -10,6 -16,18 -8,32 8,15 21,14 31,8 31,-18 42,-41 38,-67 -1,-10 -5,-21 -10,-30 z m 231,-133 c -5,-10 -107,-218 -107,-218 l 61,-35 143,248 c 6,10 18,16 32,8 14,-8 14,-21 8,-31 l -154,-267 c -6,-10 -18,-16 -31,-8 l -99,57 c -14,8 -15,22 -9,32 0,0 109,221 112,227 3,5 7,14 7,21 0,10 -3,19 -14,25 -10,6 -16,18 -8,32 9,15 21,14 31,8 31,-18 42,-41 38,-67 -1,-10 -5,-21 -10,-30 z m 343,-125 c 10,-6 16,-17 8,-30 -7,-13 -20,-14 -30,-8 l -93,53 -56,-97 74,-42 c 10,-6 16,-17 8,-30 -8,-13 -20,-14 -30,-8 l -74,42 -51,-89 93,-53 c 10,-6 16,-17 8,-30 -8,-13 -20,-14 -30,-8 l -113,65 c -14,8 -14,21 -8,31 l 152,263 c 6,10 18,16 31,8 l 113,-65 z m 99,-78 c 6,10 17,17 31,8 14,-8 15,-21 9,-32 l -143,-248 50,-29 c 10,-6 16,-17 8,-30 -8,-13 -20,-14 -30,-8 l -141,81 c -10,6 -15,17 -8,30 8,14 20,14 30,8 l 50,-29 143,248 z m 289,-146 c 10,-6 16,-17 8,-30 -8,-13 -20,-14 -30,-8 l -93,53 -56,-97 74,-42 c 10,-6 16,-17 8,-30 -8,-13 -20,-14 -30,-8 l -74,42 -51,-89 93,-53 c 10,-6 16,-17 8,-30 -8,-13 -20,-14 -30,-8 l -113,65 c -14,8 -14,21 -8,31 l 152,263 c 6,10 18,16 31,8 l 113,-65 z m 67,-422 c -6,-10 -18,-16 -32,-8 -14,8 -15,21 -9,32 l 62,108 -88,51 -62,-108 c -6,-10 -17,-17 -32,-8 -14,8 -15,21 -9,32 l 157,272 c 6,10 18,16 32,8 14,-8 15,-21 9,-32 l -72,-125 88,-51 72,125 c 6,10 17,17 32,8 14,-8 15,-21 9,-32 z m 205,17 -44,25 -59,-102 c -6,-10 -18,-16 -32,-8 -14,8 -15,21 -9,32 l 154,267 c 6,10 18,16 31,8 l 64,-37 c 55,-32 63,-75 35,-124 l -15,-26 c -28,-48 -72,-67 -127,-36 z m -21,64 44,-25 c 30,-17 50,-7 65,20 l 15,26 c 15,26 12,45 -18,62 l -44,25 z"
       class="fil4" /><line
       style="fill:none;fill-rule:nonzero;stroke:#4d897c;stroke-width:92.47000122;stroke-linecap:round;stroke-linejoin:round"
       id="line36"
       y2="4298"
       x2="4228"
       y1="1376"
       x1="4228"
       class="fil5 str1" /><path
       style="fill:none;fill-rule:nonzero;stroke:#4d897c;stroke-width:92.47000122;stroke-linecap:round;stroke-linejoin:round"
       id="path38"
       d="m 4396,1223 c 0,730 0,2192 0,2922"
       class="fil5 str1" /><path
       style="fill:none;fill-rule:nonzero;stroke:#4d897c;stroke-width:92.47000122;stroke-linecap:round;stroke-linejoin:round"
       id="path40"
       d="m 4060,1529 c 0,730 0,2192 0,2922"
       class="fil5 str1" /><polyline
       style="fill:none;fill-rule:nonzero;stroke:#4d897c;stroke-width:92.47000122;stroke-linecap:round;stroke-linejoin:round"
       id="polyline42"
       points="4711,4402 4711,5312 5831,5312 "
       class="fil5 str1" /><polyline
       style="fill:none;fill-rule:nonzero;stroke:#4d897c;stroke-width:92.47000122;stroke-linecap:round;stroke-linejoin:round"
       id="polyline44"
       points="4543,4555 4543,5465 5663,5465 "
       class="fil5 str1" /><polyline
       style="fill:none;fill-rule:nonzero;stroke:#4d897c;stroke-width:92.47000122;stroke-linecap:round;stroke-linejoin:round"
       id="polyline46"
       points="4374,4708 4374,5618 5495,5618 "
       class="fil5 str1" /><line
       style="fill:none;fill-rule:nonzero;stroke:#4d897c;stroke-width:92.47000122;stroke-linecap:round;stroke-linejoin:round"
       id="line48"
       y2="5057"
       x2="6957"
       y1="5057"
       x1="5873"
       class="fil5 str1" /><line
       style="fill:none;fill-rule:nonzero;stroke:#4d897c;stroke-width:92.47000122;stroke-linecap:round;stroke-linejoin:round"
       id="line50"
       y2="5209"
       x2="6789"
       y1="5209"
       x1="5935"
       class="fil5 str1" /><line
       style="fill:none;fill-rule:nonzero;stroke:#4d897c;stroke-width:92.47000122;stroke-linecap:round;stroke-linejoin:round"
       id="line52"
       y2="5362"
       x2="6621"
       y1="5362"
       x1="5816"
       class="fil5 str1" /><polyline
       style="fill:none;fill-rule:nonzero;stroke:#cc7588;stroke-width:130;stroke-linecap:round;stroke-linejoin:round;stroke-dasharray:529.54, 385.12"
       id="polyline54"
       points="7059,6050 7019,6018 4096,3598 "
       class="fil5 str2" /><path
       style="fill:none;fill-rule:nonzero;stroke:#7690c9;stroke-width:111.19000244;stroke-linecap:round;stroke-linejoin:round"
       id="path56"
       d="m 7717,6462 c -98,-101 -96,-262 4,-360 101,-98 262,-96 360,4 98,101 96,262 -4,360 -75,73 -183,91 -274,54 l -1516,-576 -11,37 824,358"
       class="fil5 str3" /><path
       style="fill:none;fill-rule:nonzero;stroke:#7690c9;stroke-width:111.19000244;stroke-linecap:round;stroke-linejoin:round"
       id="path58"
       d="m 7477,6702 c -101,-98 -262,-96 -360,4 -98,101 -96,262 4,360 101,98 262,96 360,-4 73,-75 91,-183 54,-274 l -576,-1516 37,-11 358,824"
       class="fil5 str3" /></g></svg>