<?xml version="1.0" encoding="UTF-8" standalone="no"?>
<svg
   xmlns:dc="http://purl.org/dc/elements/1.1/"
   xmlns:cc="http://creativecommons.org/ns#"
   xmlns:rdf="http://www.w3.org/1999/02/22-rdf-syntax-ns#"
   xmlns:svg="http://www.w3.org/2000/svg"
   xmlns="http://www.w3.org/2000/svg"
   id="svg172"
   viewBox="0 0 12197.192 7699.8154"
   style="clip-rule:evenodd;fill-rule:evenodd;image-rendering:optimizeQuality;shape-rendering:geometricPrecision;text-rendering:geometricPrecision"
   version="1.1"
   height="291"
   width="461"
   xml:space="preserve"><metadata
     id="metadata176"><rdf:RDF><cc:Work
         rdf:about=""><dc:format>image/svg+xml</dc:format><dc:type
           rdf:resource="http://purl.org/dc/dcmitype/StillImage" /><dc:title></dc:title></cc:Work></rdf:RDF></metadata><defs
     id="defs11"><style
       id="style2"
       type="text/css"><![CDATA[
    .str2 {stroke:#57A7B3;stroke-width:10.17;stroke-linecap:round;stroke-linejoin:round}
    .str1 {stroke:#AB8082;stroke-width:20}
    .str5 {stroke:#727271;stroke-width:40.54;stroke-linecap:round;stroke-linejoin:round}
    .str3 {stroke:#B64F65;stroke-width:40.54;stroke-linecap:round;stroke-linejoin:round}
    .str0 {stroke:#2D98A2;stroke-width:79.16;stroke-linecap:round;stroke-linejoin:round}
    .str4 {stroke:#CD5771;stroke-width:64.49;stroke-linecap:round;stroke-linejoin:round;stroke-dasharray:50.540000 151.620000}
    .fil8 {fill:none}
    .fil14 {fill:none;fill-rule:nonzero}
    .fil16 {fill:#748187}
    .fil7 {fill:#ABC9C0}
    .fil3 {fill:#B2B3B3}
    .fil2 {fill:#BCD5D1}
    .fil6 {fill:#C5C6C6}
    .fil1 {fill:#CAE6E9}
    .fil12 {fill:#CD5771}
    .fil4 {fill:#D9DADA}
    .fil5 {fill:#2D98A2;fill-rule:nonzero}
    .fil10 {fill:#57A7B3;fill-rule:nonzero}
    .fil11 {fill:#5B5B5B;fill-rule:nonzero}
    .fil15 {fill:#748187;fill-rule:nonzero}
    .fil9 {fill:#AB8082;fill-rule:nonzero}
    .fil13 {fill:#B64F65;fill-rule:nonzero}
    .fil0 {fill:url(#id0)}
   ]]></style><radialGradient
       fy="3845.28"
       fx="6103.0498"
       r="5785.5698"
       cy="3845.28"
       cx="6103.0498"
       gradientUnits="userSpaceOnUse"
       id="id0"><stop
         id="stop4"
         style="stop-color:#FEFEFE"
         offset="0" /><stop
         id="stop6"
         style="stop-color:#FEFEFE"
         offset="0.45098" /><stop
         id="stop8"
         style="stop-color:#D2E2F2"
         offset="1" /></radialGradient></defs><g
     transform="matrix(1.0540952,0,0,1.0913984,-334.54684,-347.06431)"
     id="Layer_x0020_1"><metadata
       id="CorelCorpID_0Corel-Layer" /><polygon
       style="fill:url(#id0)"
       id="polygon14"
       points="11889,7373 11889,318 317,318 317,7373 "
       class="fil0" /><polygon
       style="fill:#cae6e9"
       id="polygon16"
       points="3885,3363 3885,5448 1892,5448 1892,3363 "
       class="fil1" /><polygon
       style="fill:#bcd5d1"
       id="polygon18"
       points="3885,3363 3885,5448 4409,4812 4409,2787 "
       class="fil2" /><polygon
       style="fill:#b2b3b3"
       id="polygon20"
       points="3885,3363 3885,3557 4375,3028 4375,2833 "
       class="fil3" /><g
       id="g25"><polygon
         style="fill:#d9dada"
         id="polygon22"
         points="3885,3362 1892,3362 2475,2787 4409,2787 "
         class="fil4" /><path
         style="fill:#2d98a2;fill-rule:nonzero"
         d="M 4409,2826 H 2475 v -79 h 1934 l 29,66 z m 0,0 v -79 h 2 2 2 2 2 l 2,1 2,1 2,1 2,1 2,1 2,1 2,1 2,1 1,1 1,1 1,1 1,1 1,1 1,1 1,2 1,2 1,2 1,2 1,2 1,2 1,2 1,2 v 2 2 2 2 2 2 2 2 2 2 l -1,2 -1,2 -1,2 -1,2 -1,2 -1,2 -1,2 -1,2 -1,1 -1,1 -1,1 -1,1 -1,1 -1,1 -2,1 -2,1 -2,1 -2,1 -2,1 -2,1 -2,1 -2,1 h -2 -2 -2 -2 -2 z m -552,510 524,-576 58,54 -524,576 -29,13 -29,-66 z m 0,0 58,54 -1,1 -1,1 -2,1 -2,1 -2,1 -2,1 -2,1 -2,1 -2,1 -2,1 -2,1 h -2 -2 -2 -2 -2 -2 -2 -2 -2 -2 -2 l -2,-1 -2,-1 -2,-1 -2,-1 -2,-1 -2,-1 -2,-1 -2,-1 -2,-1 -2,-1 -1,-1 -1,-1 -1,-2 -1,-2 -1,-2 -1,-2 -1,-2 -1,-2 -1,-2 -1,-2 -1,-2 v -2 -2 -2 -2 -2 -2 -2 -2 -2 -2 -2 l 1,-2 1,-2 1,-2 1,-2 1,-2 1,-2 1,-2 1,-2 1,-2 1,-2 z m -1965,-13 h 1994 v 79 H 1892 l -27,-68 z m 0,0 v 79 h -2 -2 -2 -2 -2 l -2,-1 -2,-1 -2,-1 -2,-1 -2,-1 -2,-1 -2,-1 -2,-1 -1,-1 -1,-1 -1,-1 -1,-1 -1,-1 -1,-1 -1,-2 -1,-2 -1,-2 -1,-2 -1,-2 -1,-2 -1,-2 -1,-2 v -2 -2 -2 -2 -2 -2 -2 -2 -2 -2 l 1,-2 1,-2 1,-2 1,-2 1,-2 1,-2 1,-2 1,-2 1,-1 1,-1 1,-1 1,-1 1,-1 1,-1 2,-1 2,-1 2,-1 2,-1 2,-1 2,-1 2,-1 2,-1 h 2 2 2 2 2 z m 611,-508 -583,576 -55,-57 583,-576 27,-11 27,68 z m 0,0 -55,-57 1,-1 2,-1 2,-1 2,-1 2,-1 2,-1 2,-1 2,-1 2,-1 2,-1 h 2 2 2 2 2 2 2 2 2 2 2 l 2,1 2,1 2,1 2,1 2,1 2,1 2,1 2,1 2,1 1,1 1,1 1,1 1,2 1,2 1,2 1,2 1,2 1,2 1,2 1,2 1,2 v 2 2 2 2 2 2 2 2 2 2 2 l -1,2 -1,2 -1,2 -1,2 -1,2 -1,2 -1,2 -1,2 -1,2 -1,2 -1,1 z"
         class="fil5"
         id="1" /></g><polygon
       style="fill:#c5c6c6"
       id="polygon27"
       points="3885,3363 3885,3557 1892,3557 1892,3363 "
       class="fil6" /><polygon
       style="fill:#bcd5d1"
       id="polygon29"
       points="3885,5448 1892,5448 2431,4872 4365,4872 "
       class="fil2" /><polygon
       style="fill:#abc9c0"
       id="polygon31"
       points="3885,5448 4360,4872 3885,4872 "
       class="fil7" /><g
       id="g35"><path
         style="fill:#2d98a2;fill-rule:nonzero"
         id="path33"
         d="m 4449,2787 v 2026 h -79 V 2787 l 10,-26 z m 0,0 h -79 v -2 -2 -2 -2 -2 l 1,-2 1,-2 1,-2 1,-2 1,-2 1,-2 1,-2 1,-2 1,-1 1,-1 1,-1 1,-1 1,-1 1,-1 2,-1 2,-1 2,-1 2,-1 2,-1 2,-1 2,-1 2,-1 h 2 2 2 2 2 2 2 2 2 2 l 2,1 2,1 2,1 2,1 2,1 2,1 2,1 2,1 1,1 1,1 1,1 1,1 1,1 1,1 1,2 1,2 1,2 1,2 1,2 1,2 1,2 1,2 v 2 2 2 2 2 z m -593,550 524,-576 59,52 -524,576 -69,-26 z m 0,0 59,52 -1,1 -1,1 -2,1 -2,1 -2,1 -2,1 -2,1 -2,1 -2,1 -2,1 -2,1 -2,1 h -2 -2 -2 -2 -2 -2 -2 -2 -2 -2 -2 l -2,-1 -2,-1 -2,-1 -2,-1 -2,-1 -2,-1 -2,-1 -2,-1 -2,-1 -1,-1 -1,-1 -1,-2 -1,-2 -1,-2 -1,-2 -1,-2 -1,-2 -1,-2 -1,-2 -1,-2 -1,-2 v -2 -2 -2 -2 -2 -2 -2 -2 -2 -2 -2 l 1,-2 1,-2 1,-2 1,-2 1,-2 1,-2 1,-2 1,-2 1,-2 z m -10,2112 V 3364 h 79 v 2085 l -9,25 z m 0,0 h 79 v 2 2 2 2 2 l -1,2 -1,2 -1,2 -1,2 -1,2 -1,2 -1,2 -1,2 -1,1 -1,1 -1,1 -1,1 -1,1 -1,1 -2,1 -2,1 -2,1 -2,1 -2,1 -2,1 -2,1 -2,1 h -2 -2 -2 -2 -2 -2 -2 -2 -2 -2 l -2,-1 -2,-1 -2,-1 -2,-1 -2,-1 -2,-1 -2,-1 -2,-1 -1,-1 -1,-1 -1,-1 -1,-1 -1,-1 -1,-1 -1,-2 -1,-2 -1,-2 -1,-2 -1,-2 -1,-2 -1,-2 -1,-2 v -2 -2 -2 -2 -2 z m 594,-611 -524,636 -61,-50 524,-636 70,25 z m 0,0 -61,-50 1,-2 1,-1 1,-1 2,-1 2,-1 2,-1 2,-1 2,-1 2,-1 2,-1 2,-1 2,-1 2,-1 h 2 2 2 2 2 2 2 2 2 2 2 l 2,1 2,1 2,1 2,1 2,1 2,1 2,1 2,1 2,1 1,1 1,1 1,1 1,2 1,2 1,2 1,2 1,2 1,2 1,2 1,2 1,2 v 2 2 2 2 2 2 2 2 2 2 l -1,2 -1,2 -1,2 -1,2 -1,2 -1,2 -1,2 -1,2 -1,2 z"
         class="fil5" /></g><polyline
       style="fill:none;stroke:#2d98a2;stroke-width:79.16000366;stroke-linecap:round;stroke-linejoin:round"
       id="polyline37"
       points="4409,3025 3925,3557 1899,3557 "
       class="fil8 str0" /><polygon
       style="fill:none;stroke:#2d98a2;stroke-width:79.16000366;stroke-linecap:round;stroke-linejoin:round"
       id="polygon39"
       points="3885,3363 3885,5448 1892,5448 1892,3363 "
       class="fil8 str0" /><path
       style="fill:#ab8082;fill-rule:nonzero;stroke:#ab8082;stroke-width:20"
       id="path41"
       d="m 3090,4020 c -12,0 -21,5 -28,12 -38,42 -81,84 -126,125 -14,13 -19,30 -1,48 17,17 33,11 47,-1 28,-23 57,-53 81,-82 v 379 h -97 c -19,0 -35,10 -35,35 0,25 16,35 35,35 h 252 c 19,0 35,-10 35,-35 0,-25 -16,-35 -35,-35 h -82 v -445 c 0,-20 -6,-37 -33,-37 h -13 z"
       class="fil9 str1" /><path
       style="fill:#ab8082;fill-rule:nonzero"
       id="path43"
       d="m 2635,4430 c 0,14 2,28 3,37 h -1 l -113,-233 c -6,-12 -14,-17 -24,-17 -17,0 -24,11 -24,23 v 314 c 0,12 7,23 24,23 16,0 23,-11 23,-23 v -190 c 0,-14 -2,-28 -3,-37 v 0 l 113,233 c 6,12 14,17 24,17 17,0 24,-11 24,-23 v -314 c 0,-12 -7,-23 -24,-23 -16,0 -23,11 -23,23 v 190 z m 127,-108 c -15,0 -19,-9 -19,-23 v -25 c 0,-14 4,-23 19,-23 h 8 c 15,0 19,9 19,23 v 25 c 0,14 -4,23 -19,23 z m 8,34 c 35,0 51,-23 51,-54 v -30 c 0,-31 -17,-53 -51,-53 h -9 c -35,0 -51,23 -51,53 v 30 c 0,31 17,54 51,54 z m 35,59 c 11,0 18,-5 18,-18 0,-13 -8,-18 -18,-18 h -77 c -11,0 -19,5 -19,18 0,13 8,18 19,18 z"
       class="fil9" /><path
       style="fill:#57a7b3;fill-rule:nonzero;stroke:#57a7b3;stroke-width:10.17000008;stroke-linecap:round;stroke-linejoin:round"
       id="path45"
       d="m 2433,4932 c 0,-27 -12,-45 -36,-53 17,-10 25,-23 25,-44 v -12 c 0,-38 -22,-57 -64,-57 h -40 c -11,0 -16,8 -16,16 v 206 c 0,8 5,16 16,16 h 51 c 43,0 64,-23 64,-61 z m -100,-34 h 35 c 23,0 33,14 33,34 v 11 c 0,20 -9,30 -33,30 h -35 z m 0,-30 v -71 h 24 c 23,0 33,7 33,27 v 12 c 0,20 -10,33 -33,33 h -24 z m 217,-10 h -23 v -80 c 0,-8 -5,-16 -16,-16 -11,0 -16,8 -16,16 v 209 c 0,8 5,16 16,16 h 40 c 43,0 63,-23 63,-61 v -20 c 0,-37 -20,-64 -63,-64 z m -23,31 h 23 c 23,0 32,13 32,34 v 20 c 0,20 -8,31 -32,31 h -23 z m 142,103 v -213 c 0,-8 -4,-16 -16,-16 -11,0 -16,8 -16,16 v 213 c 0,8 4,16 16,16 11,0 16,-7 16,-16 z m 135,-131 h -31 v -63 h 69 c 8,0 15,-4 15,-15 0,-10 -7,-15 -15,-15 h -85 c -11,0 -16,6 -16,15 v 207 c 0,8 5,16 16,16 h 46 c 43,0 63,-23 63,-61 v -20 c 0,-37 -20,-63 -63,-63 z m 32,83 c 0,20 -8,31 -32,31 h -31 v -85 h 31 c 23,0 32,13 32,34 v 21 z m 122,-114 c 0,-21 7,-36 31,-36 h 10 c 23,0 31,15 31,36 v 112 c 0,21 -7,36 -31,36 h -10 c -23,0 -31,-15 -31,-36 z m 104,0 c 0,-37 -20,-66 -63,-66 h -10 c -43,0 -63,29 -63,66 v 112 c 0,37 20,66 63,66 h 10 c 43,0 63,-29 63,-66 z m 101,52 v -84 h 34 c 23,0 32,10 32,31 v 20 c 0,21 -8,34 -32,34 h -34 z m 34,31 c 43,0 63,-27 63,-64 v -20 c 0,-38 -20,-61 -63,-61 h -51 c -11,0 -16,7 -16,16 v 210 c 0,8 5,16 16,16 11,0 16,-7 16,-16 v -80 h 34 z m 181,-53 h -23 v -80 c 0,-8 -5,-16 -16,-16 -11,0 -16,7 -16,16 v 209 c 0,8 5,16 16,16 h 40 c 43,0 63,-23 63,-61 v -20 c 0,-37 -20,-64 -63,-64 z m -23,31 h 23 c 23,0 32,13 32,34 v 20 c 0,20 -8,31 -32,31 h -23 z m 142,103 v -213 c 0,-8 -4,-16 -16,-16 -11,0 -16,7 -16,16 v 213 c 0,8 4,16 16,16 11,0 16,-7 16,-16 z"
       class="fil10 str2" /><g
       id="g49"><path
         style="fill:#5b5b5b;fill-rule:nonzero"
         id="path47"
         d="m 2519,3015 v 119 h -3 -3 -3 l -3,-1 -3,-1 -3,-1 -3,-1 -3,-1 -3,-1 -2,-1 -2,-1 -2,-2 -2,-2 -2,-2 -2,-2 -2,-2 -2,-2 -2,-2 -2,-2 -2,-2 -1,-2 -1,-3 -1,-3 -1,-3 -1,-3 -1,-3 -1,-3 -1,-3 -1,-3 v -3 -3 -3 -3 -3 -3 l 1,-3 1,-3 1,-3 1,-3 1,-3 1,-3 1,-3 1,-3 1,-2 2,-2 2,-2 2,-2 2,-2 2,-2 2,-2 2,-2 2,-2 2,-2 2,-1 2,-1 3,-1 3,-1 3,-1 3,-1 3,-1 3,-1 h 3 3 3 z m 1210,119 H 2519 v -119 h 1210 z m 0,0 v -119 h 3 3 3 l 3,1 3,1 3,1 3,1 3,1 3,1 2,1 2,1 2,2 2,2 2,2 2,2 2,2 2,2 2,2 2,2 2,2 1,2 1,3 1,3 1,3 1,3 1,3 1,3 1,3 1,3 v 3 3 3 3 3 3 l -1,3 -1,3 -1,3 -1,3 -1,3 -1,3 -1,3 -1,3 -1,2 -2,2 -2,2 -2,2 -2,2 -2,2 -2,2 -2,2 -2,2 -2,2 -2,1 -2,1 -3,1 -3,1 -3,1 -3,1 -3,1 -3,1 h -3 -3 -3 z"
         class="fil11" /></g><path
       style="fill:#cd5771"
       id="path51"
       d="m 1846,3015 19,25 c 12,-7 24,-14 36,-20 16,-8 35,-2 43,14 8,16 2,36 -14,44 -9,5 -18,8 -26,13 l 10,14 -52,159 -401,303 -57,-76 -69,-91 -57,-76 401,-303 167,-7 z"
       class="fil12" /><path
       style="fill:none;stroke:#b64f65;stroke-width:40.54000092;stroke-linecap:round;stroke-linejoin:round"
       id="path53"
       d="m 1730,3213 c -5,-28 -31,-47 -59,-42 -28,5 -47,31 -42,59"
       class="fil8 str3" /><path
       style="fill:none;stroke:#cd5771;stroke-width:64.48999786;stroke-linecap:round;stroke-linejoin:round;stroke-dasharray:50.54, 151.62"
       id="path55"
       d="m 2494,3300 c 67,211 -45,439 -255,514"
       class="fil8 str4" /><path
       style="fill:#b64f65;fill-rule:nonzero"
       id="path57"
       d="m 1911,3017 c 84,-38 175,-48 263,-32 106,19 205,77 275,169 v 0 c 8,11 16,23 23,34 13,21 1,40 -24,40 h -35 c -7,-12 -7,-24 -15,-35 v 0 0 c -60,-79 -145,-128 -235,-145 -76,-14 -157,-4 -229,30 l -2,1 c 16,-8 22,-28 14,-44 -7,-13 -21,-20 -34,-17 z m -94,745 c 81,65 183,101 291,98 18,-1 32,-15 31,-33 -1,-18 -15,-32 -33,-31 -92,3 -180,-28 -249,-83 -148,-118 -132,-242 -142,-418 -1,-22 -2,-45 -4,-77 -1,-18 -16,-31 -34,-30 -18,1 -31,16 -30,34 1,23 3,51 4,77 11,200 -2,331 166,465 z m -196,-695 c -22,-82 -56,-169 -100,-258 -45,-92 -101,-186 -164,-277 -10,-15 -6,-35 8,-45 15,-10 35,-6 45,8 64,93 121,190 168,286 41,84 74,167 97,245 l -55,42 z"
       class="fil13" /><path
       style="fill:none;fill-rule:nonzero;stroke:#727271;stroke-width:40.54000092;stroke-linecap:round;stroke-linejoin:round"
       id="path59"
       d="m 2384,3204 c 5,28 32,47 60,42 28,-5 47,-32 42,-60"
       class="fil14 str5" /><path
       style="fill:none;fill-rule:nonzero;stroke:#727271;stroke-width:40.54000092;stroke-linecap:round;stroke-linejoin:round"
       id="path61"
       d="m 2101,3878 c 28,2 53,-19 55,-48 2,-28 -19,-53 -48,-55"
       class="fil14 str5" /><polygon
       style="fill:#cae6e9"
       id="polygon63"
       points="10103,3363 10103,5448 8109,5448 8109,3363 "
       class="fil1" /><polygon
       style="fill:#bcd5d1"
       id="polygon65"
       points="10103,3363 10103,5448 10626,4812 10626,2787 "
       class="fil2" /><polygon
       style="fill:#b2b3b3"
       id="polygon67"
       points="10103,3363 10103,3557 10593,3028 10593,2833 "
       class="fil3" /><g
       id="g73"><polygon
         style="fill:#d9dada"
         id="polygon69"
         points="10103,3362 8109,3362 8692,2787 10626,2787 "
         class="fil4" /><path
         style="fill:#2d98a2;fill-rule:nonzero"
         d="M 10626,2826 H 8692 v -79 h 1934 l 29,66 z m 0,0 v -79 h 2 2 2 2 2 l 2,1 2,1 2,1 2,1 2,1 2,1 2,1 2,1 1,1 1,1 1,1 1,1 1,1 1,1 1,2 1,2 1,2 1,2 1,2 1,2 1,2 1,2 v 2 2 2 2 2 2 2 2 2 2 l -1,2 -1,2 -1,2 -1,2 -1,2 -1,2 -1,2 -1,2 -1,1 -1,1 -1,1 -1,1 -1,1 -1,1 -2,1 -2,1 -2,1 -2,1 -2,1 -2,1 -2,1 -2,1 h -2 -2 -2 -2 -2 z m -552,510 524,-576 58,54 -524,576 -29,13 -29,-66 z m 0,0 58,54 -1,1 -1,1 -2,1 -2,1 -2,1 -2,1 -2,1 -2,1 -2,1 -2,1 -2,1 h -2 -2 -2 -2 -2 -2 -2 -2 -2 -2 -2 l -2,-1 -2,-1 -2,-1 -2,-1 -2,-1 -2,-1 -2,-1 -2,-1 -2,-1 -2,-1 -1,-1 -1,-1 -1,-2 -1,-2 -1,-2 -1,-2 -1,-2 -1,-2 -1,-2 -1,-2 -1,-2 v -2 -2 -2 -2 -2 -2 -2 -2 -2 -2 -2 l 1,-2 1,-2 1,-2 1,-2 1,-2 1,-2 1,-2 1,-2 1,-2 1,-2 z m -1965,-13 h 1994 v 79 H 8109 l -27,-68 z m 0,0 v 79 h -2 -2 -2 -2 -2 l -2,-1 -2,-1 -2,-1 -2,-1 -2,-1 -2,-1 -2,-1 -2,-1 -1,-1 -1,-1 -1,-1 -1,-1 -1,-1 -1,-1 -1,-2 -1,-2 -1,-2 -1,-2 -1,-2 -1,-2 -1,-2 -1,-2 v -2 -2 -2 -2 -2 -2 -2 -2 -2 -2 l 1,-2 1,-2 1,-2 1,-2 1,-2 1,-2 1,-2 1,-2 1,-1 1,-1 1,-1 1,-1 1,-1 1,-1 2,-1 2,-1 2,-1 2,-1 2,-1 2,-1 2,-1 2,-1 h 2 2 2 2 2 z m 611,-508 -583,576 -55,-57 583,-576 27,-11 27,68 z m 0,0 -55,-57 1,-1 2,-1 2,-1 2,-1 2,-1 2,-1 2,-1 2,-1 2,-1 2,-1 h 2 2 2 2 2 2 2 2 2 2 2 l 2,1 2,1 2,1 2,1 2,1 2,1 2,1 2,1 2,1 1,1 1,1 1,1 1,2 1,2 1,2 1,2 1,2 1,2 1,2 1,2 1,2 v 2 2 2 2 2 2 2 2 2 2 2 l -1,2 -1,2 -1,2 -1,2 -1,2 -1,2 -1,2 -1,2 -1,2 -1,2 -1,1 z"
         class="fil5"
         id="path71" /></g><polygon
       style="fill:#c5c6c6"
       id="polygon75"
       points="10103,3363 10103,3557 8109,3557 8109,3363 "
       class="fil6" /><polygon
       style="fill:#bcd5d1"
       id="polygon77"
       points="10103,5448 8109,5448 8649,4872 10583,4872 "
       class="fil2" /><polygon
       style="fill:#abc9c0"
       id="polygon79"
       points="10103,5448 10577,4872 10103,4872 "
       class="fil7" /><g
       id="g83"><path
         style="fill:#2d98a2;fill-rule:nonzero"
         id="path81"
         d="m 10666,2787 v 2026 h -79 V 2787 l 10,-26 z m 0,0 h -79 v -2 -2 -2 -2 -2 l 1,-2 1,-2 1,-2 1,-2 1,-2 1,-2 1,-2 1,-2 1,-1 1,-1 1,-1 1,-1 1,-1 1,-1 2,-1 2,-1 2,-1 2,-1 2,-1 2,-1 2,-1 2,-1 h 2 2 2 2 2 2 2 2 2 2 l 2,1 2,1 2,1 2,1 2,1 2,1 2,1 2,1 1,1 1,1 1,1 1,1 1,1 1,1 1,2 1,2 1,2 1,2 1,2 1,2 1,2 1,2 v 2 2 2 2 2 z m -593,550 524,-576 59,52 -524,576 -69,-26 z m 0,0 59,52 -1,1 -1,1 -2,1 -2,1 -2,1 -2,1 -2,1 -2,1 -2,1 -2,1 -2,1 -2,1 h -2 -2 -2 -2 -2 -2 -2 -2 -2 -2 -2 l -2,-1 -2,-1 -2,-1 -2,-1 -2,-1 -2,-1 -2,-1 -2,-1 -2,-1 -1,-1 -1,-1 -1,-2 -1,-2 -1,-2 -1,-2 -1,-2 -1,-2 -1,-2 -1,-2 -1,-2 -1,-2 v -2 -2 -2 -2 -2 -2 -2 -2 -2 -2 -2 l 1,-2 1,-2 1,-2 1,-2 1,-2 1,-2 1,-2 1,-2 1,-2 z m -10,2112 V 3364 h 79 v 2085 l -9,25 z m 0,0 h 79 v 2 2 2 2 2 l -1,2 -1,2 -1,2 -1,2 -1,2 -1,2 -1,2 -1,2 -1,1 -1,1 -1,1 -1,1 -1,1 -1,1 -2,1 -2,1 -2,1 -2,1 -2,1 -2,1 -2,1 -2,1 h -2 -2 -2 -2 -2 -2 -2 -2 -2 -2 l -2,-1 -2,-1 -2,-1 -2,-1 -2,-1 -2,-1 -2,-1 -2,-1 -1,-1 -1,-1 -1,-1 -1,-1 -1,-1 -1,-1 -1,-2 -1,-2 -1,-2 -1,-2 -1,-2 -1,-2 -1,-2 -1,-2 v -2 -2 -2 -2 -2 z m 594,-611 -524,636 -61,-50 524,-636 70,25 z m 0,0 -61,-50 1,-2 1,-1 1,-1 2,-1 2,-1 2,-1 2,-1 2,-1 2,-1 2,-1 2,-1 2,-1 2,-1 h 2 2 2 2 2 2 2 2 2 2 2 l 2,1 2,1 2,1 2,1 2,1 2,1 2,1 2,1 2,1 1,1 1,1 1,1 1,2 1,2 1,2 1,2 1,2 1,2 1,2 1,2 1,2 v 2 2 2 2 2 2 2 2 2 2 l -1,2 -1,2 -1,2 -1,2 -1,2 -1,2 -1,2 -1,2 -1,2 z"
         class="fil5" /></g><polyline
       style="fill:none;stroke:#2d98a2;stroke-width:79.16000366;stroke-linecap:round;stroke-linejoin:round"
       id="polyline85"
       points="10626,3025 10142,3557 8117,3557 "
       class="fil8 str0" /><polygon
       style="fill:none;stroke:#2d98a2;stroke-width:79.16000366;stroke-linecap:round;stroke-linejoin:round"
       id="polygon87"
       points="10103,3363 10103,5448 8109,5448 8109,3363 "
       class="fil8 str0" /><g
       id="g91"><path
         style="fill:#5b5b5b;fill-rule:nonzero"
         id="path89"
         d="m 8736,3015 v 119 h -3 -3 -3 l -3,-1 -3,-1 -3,-1 -3,-1 -3,-1 -3,-1 -2,-1 -2,-1 -2,-2 -2,-2 -2,-2 -2,-2 -2,-2 -2,-2 -2,-2 -2,-2 -2,-2 -1,-2 -1,-3 -1,-3 -1,-3 -1,-3 -1,-3 -1,-3 -1,-3 -1,-3 v -3 -3 -3 -3 -3 -3 l 1,-3 1,-3 1,-3 1,-3 1,-3 1,-3 1,-3 1,-3 1,-2 2,-2 2,-2 2,-2 2,-2 2,-2 2,-2 2,-2 2,-2 2,-2 2,-1 2,-1 3,-1 3,-1 3,-1 3,-1 3,-1 3,-1 h 3 3 3 z m 1210,119 H 8736 v -119 h 1210 z m 0,0 v -119 h 3 3 3 l 3,1 3,1 3,1 3,1 3,1 3,1 2,1 2,1 2,2 2,2 2,2 2,2 2,2 2,2 2,2 2,2 2,2 1,2 1,3 1,3 1,3 1,3 1,3 1,3 1,3 1,3 v 3 3 3 3 3 3 l -1,3 -1,3 -1,3 -1,3 -1,3 -1,3 -1,3 -1,3 -1,2 -2,2 -2,2 -2,2 -2,2 -2,2 -2,2 -2,2 -2,2 -2,2 -2,1 -2,1 -3,1 -3,1 -3,1 -3,1 -3,1 -3,1 h -3 -3 -3 z"
         class="fil11" /></g><polygon
       style="fill:#cae6e9"
       id="polygon93"
       points="6994,3363 6994,5448 5000,5448 5000,3363 "
       class="fil1" /><polygon
       style="fill:#bcd5d1"
       id="polygon95"
       points="6994,3363 6994,5448 7518,4812 7518,2787 "
       class="fil2" /><polygon
       style="fill:#b2b3b3"
       id="polygon97"
       points="6994,3363 6994,3557 7484,3028 7484,2833 "
       class="fil3" /><g
       id="g103"><polygon
         style="fill:#d9dada"
         id="polygon99"
         points="6994,3362 5000,3362 5584,2787 7518,2787 "
         class="fil4" /><path
         style="fill:#2d98a2;fill-rule:nonzero"
         d="M 7518,2826 H 5584 v -79 h 1934 l 29,66 z m 0,0 v -79 h 2 2 2 2 2 l 2,1 2,1 2,1 2,1 2,1 2,1 2,1 2,1 1,1 1,1 1,1 1,1 1,1 1,1 1,2 1,2 1,2 1,2 1,2 1,2 1,2 1,2 v 2 2 2 2 2 2 2 2 2 2 l -1,2 -1,2 -1,2 -1,2 -1,2 -1,2 -1,2 -1,2 -1,1 -1,1 -1,1 -1,1 -1,1 -1,1 -2,1 -2,1 -2,1 -2,1 -2,1 -2,1 -2,1 -2,1 h -2 -2 -2 -2 -2 z m -552,510 524,-576 58,54 -524,576 -29,13 -29,-66 z m 0,0 58,54 -1,1 -1,1 -2,1 -2,1 -2,1 -2,1 -2,1 -2,1 -2,1 -2,1 -2,1 h -2 -2 -2 -2 -2 -2 -2 -2 -2 -2 -2 l -2,-1 -2,-1 -2,-1 -2,-1 -2,-1 -2,-1 -2,-1 -2,-1 -2,-1 -2,-1 -1,-1 -1,-1 -1,-2 -1,-2 -1,-2 -1,-2 -1,-2 -1,-2 -1,-2 -1,-2 -1,-2 v -2 -2 -2 -2 -2 -2 -2 -2 -2 -2 -2 l 1,-2 1,-2 1,-2 1,-2 1,-2 1,-2 1,-2 1,-2 1,-2 1,-2 z m -1965,-13 h 1994 v 79 H 5001 l -27,-68 z m 0,0 v 79 h -2 -2 -2 -2 -2 l -2,-1 -2,-1 -2,-1 -2,-1 -2,-1 -2,-1 -2,-1 -2,-1 -1,-1 -1,-1 -1,-1 -1,-1 -1,-1 -1,-1 -1,-2 -1,-2 -1,-2 -1,-2 -1,-2 -1,-2 -1,-2 -1,-2 v -2 -2 -2 -2 -2 -2 -2 -2 -2 -2 l 1,-2 1,-2 1,-2 1,-2 1,-2 1,-2 1,-2 1,-2 1,-1 1,-1 1,-1 1,-1 1,-1 1,-1 2,-1 2,-1 2,-1 2,-1 2,-1 2,-1 2,-1 2,-1 h 2 2 2 2 2 z m 611,-508 -583,576 -55,-57 583,-576 27,-11 27,68 z m 0,0 -55,-57 1,-1 2,-1 2,-1 2,-1 2,-1 2,-1 2,-1 2,-1 2,-1 2,-1 h 2 2 2 2 2 2 2 2 2 2 2 l 2,1 2,1 2,1 2,1 2,1 2,1 2,1 2,1 2,1 1,1 1,1 1,1 1,2 1,2 1,2 1,2 1,2 1,2 1,2 1,2 1,2 v 2 2 2 2 2 2 2 2 2 2 2 l -1,2 -1,2 -1,2 -1,2 -1,2 -1,2 -1,2 -1,2 -1,2 -1,2 -1,1 z"
         class="fil5"
         id="path101" /></g><polygon
       style="fill:#c5c6c6"
       id="polygon105"
       points="6994,3363 6994,3557 5000,3557 5000,3363 "
       class="fil6" /><polygon
       style="fill:#bcd5d1"
       id="polygon107"
       points="6994,5448 5000,5448 5540,4872 7474,4872 "
       class="fil2" /><polygon
       style="fill:#abc9c0"
       id="polygon109"
       points="6994,5448 7469,4872 6994,4872 "
       class="fil7" /><g
       id="g113"><path
         style="fill:#2d98a2;fill-rule:nonzero"
         id="path111"
         d="m 7557,2787 v 2026 h -79 V 2787 l 10,-26 z m 0,0 h -79 v -2 -2 -2 -2 -2 l 1,-2 1,-2 1,-2 1,-2 1,-2 1,-2 1,-2 1,-2 1,-1 1,-1 1,-1 1,-1 1,-1 1,-1 2,-1 2,-1 2,-1 2,-1 2,-1 2,-1 2,-1 2,-1 h 2 2 2 2 2 2 2 2 2 2 l 2,1 2,1 2,1 2,1 2,1 2,1 2,1 2,1 1,1 1,1 1,1 1,1 1,1 1,1 1,2 1,2 1,2 1,2 1,2 1,2 1,2 1,2 v 2 2 2 2 2 z m -593,550 524,-576 59,52 -524,576 -69,-26 z m 0,0 59,52 -1,1 -1,1 -2,1 -2,1 -2,1 -2,1 -2,1 -2,1 -2,1 -2,1 -2,1 -2,1 h -2 -2 -2 -2 -2 -2 -2 -2 -2 -2 -2 l -2,-1 -2,-1 -2,-1 -2,-1 -2,-1 -2,-1 -2,-1 -2,-1 -2,-1 -1,-1 -1,-1 -1,-2 -1,-2 -1,-2 -1,-2 -1,-2 -1,-2 -1,-2 -1,-2 -1,-2 -1,-2 v -2 -2 -2 -2 -2 -2 -2 -2 -2 -2 -2 l 1,-2 1,-2 1,-2 1,-2 1,-2 1,-2 1,-2 1,-2 1,-2 z m -10,2112 V 3364 h 79 v 2085 l -9,25 z m 0,0 h 79 v 2 2 2 2 2 l -1,2 -1,2 -1,2 -1,2 -1,2 -1,2 -1,2 -1,2 -1,1 -1,1 -1,1 -1,1 -1,1 -1,1 -2,1 -2,1 -2,1 -2,1 -2,1 -2,1 -2,1 -2,1 h -2 -2 -2 -2 -2 -2 -2 -2 -2 -2 l -2,-1 -2,-1 -2,-1 -2,-1 -2,-1 -2,-1 -2,-1 -2,-1 -1,-1 -1,-1 -1,-1 -1,-1 -1,-1 -1,-1 -1,-2 -1,-2 -1,-2 -1,-2 -1,-2 -1,-2 -1,-2 -1,-2 v -2 -2 -2 -2 -2 z m 594,-611 -524,636 -61,-50 524,-636 70,25 z m 0,0 -61,-50 1,-2 1,-1 1,-1 2,-1 2,-1 2,-1 2,-1 2,-1 2,-1 2,-1 2,-1 2,-1 2,-1 h 2 2 2 2 2 2 2 2 2 2 2 l 2,1 2,1 2,1 2,1 2,1 2,1 2,1 2,1 2,1 1,1 1,1 1,1 1,2 1,2 1,2 1,2 1,2 1,2 1,2 1,2 1,2 v 2 2 2 2 2 2 2 2 2 2 l -1,2 -1,2 -1,2 -1,2 -1,2 -1,2 -1,2 -1,2 -1,2 z"
         class="fil5" /></g><polyline
       style="fill:none;stroke:#2d98a2;stroke-width:79.16000366;stroke-linecap:round;stroke-linejoin:round"
       id="polyline115"
       points="7518,3025 7034,3557 5008,3557 "
       class="fil8 str0" /><polygon
       style="fill:none;stroke:#2d98a2;stroke-width:79.16000366;stroke-linecap:round;stroke-linejoin:round"
       id="polygon117"
       points="6994,3363 6994,5448 5000,5448 5000,3363 "
       class="fil8 str0" /><g
       id="g121"><path
         style="fill:#5b5b5b;fill-rule:nonzero"
         id="path119"
         d="m 5627,3015 v 119 h -3 -3 -3 l -3,-1 -3,-1 -3,-1 -3,-1 -3,-1 -3,-1 -2,-1 -2,-1 -2,-2 -2,-2 -2,-2 -2,-2 -2,-2 -2,-2 -2,-2 -2,-2 -2,-2 -1,-2 -1,-3 -1,-3 -1,-3 -1,-3 -1,-3 -1,-3 -1,-3 -1,-3 v -3 -3 -3 -3 -3 -3 l 1,-3 1,-3 1,-3 1,-3 1,-3 1,-3 1,-3 1,-3 1,-2 2,-2 2,-2 2,-2 2,-2 2,-2 2,-2 2,-2 2,-2 2,-2 2,-1 2,-1 3,-1 3,-1 3,-1 3,-1 3,-1 3,-1 h 3 3 3 z m 1210,119 H 5627 v -119 h 1210 z m 0,0 v -119 h 3 3 3 l 3,1 3,1 3,1 3,1 3,1 3,1 2,1 2,1 2,2 2,2 2,2 2,2 2,2 2,2 2,2 2,2 2,2 1,2 1,3 1,3 1,3 1,3 1,3 1,3 1,3 1,3 v 3 3 3 3 3 3 l -1,3 -1,3 -1,3 -1,3 -1,3 -1,3 -1,3 -1,3 -1,2 -2,2 -2,2 -2,2 -2,2 -2,2 -2,2 -2,2 -2,2 -2,2 -2,1 -2,1 -3,1 -3,1 -3,1 -3,1 -3,1 -3,1 h -3 -3 -3 z"
         class="fil11" /></g><path
       style="fill:#cd5771"
       id="path123"
       d="m 5344,2989 -13,29 c 12,7 24,14 36,21 15,10 19,30 9,45 -10,15 -31,20 -45,10 -8,-6 -16,-12 -25,-16 l -7,16 -164,32 -461,-200 38,-87 45,-104 38,-87 461,200 88,142 z"
       class="fil12" /><path
       style="fill:none;stroke:#b64f65;stroke-width:40.54000092;stroke-linecap:round;stroke-linejoin:round"
       id="path125"
       d="m 5113,2985 c 22,-18 26,-50 8,-73 -18,-22 -50,-26 -73,-8"
       class="fil8 str3" /><path
       style="fill:#b64f65;fill-rule:nonzero"
       id="path127"
       d="m 5373,3046 c 62,45 110,105 141,172 h -72 c -27,-48 -64,-90 -110,-123 l -1,-1 c 15,10 36,5 45,-10 8,-12 7,-28 -2,-38 z m -203,799 c -55,8 -112,5 -168,-9 h -1 -1 c -104,-30 -190,-95 -247,-182 -56,-85 -84,-189 -71,-298 v 0 c 15,-127 84,-243 190,-315 34,-23 76,-50 129,-84 22,-14 45,-29 65,-41 15,-10 35,-5 44,10 10,15 5,35 -10,44 -27,17 -46,30 -65,41 -57,36 -100,64 -135,87 -9,6 -17,13 -26,20 -70,60 -118,145 -130,244 v 0 0 c -11,93 13,182 61,255 49,73 123,130 211,155 51,13 103,15 152,7 v 65 z m 17,-1027 c 60,-59 120,-132 176,-214 58,-84 112,-179 161,-279 8,-16 27,-23 43,-15 16,8 23,27 15,43 -50,102 -106,199 -166,287 -53,77 -108,147 -165,205 l -63,-27 z"
       class="fil13" /><path
       style="fill:none;fill-rule:nonzero;stroke:#cd5771;stroke-width:64.48999786;stroke-linecap:round;stroke-linejoin:round;stroke-dasharray:50.54, 151.62"
       id="path129"
       d="m 5518,3290 c 67,211 -45,439 -255,514"
       class="fil14 str4" /><path
       style="fill:none;fill-rule:nonzero;stroke:#727271;stroke-width:40.54000092;stroke-linecap:round;stroke-linejoin:round"
       id="path131"
       d="m 5408,3194 c 5,28 32,47 60,42 28,-5 47,-32 42,-60"
       class="fil14 str5" /><path
       style="fill:none;fill-rule:nonzero;stroke:#727271;stroke-width:40.54000092;stroke-linecap:round;stroke-linejoin:round"
       id="path133"
       d="m 5125,3868 c 28,2 53,-19 55,-48 2,-28 -19,-53 -48,-55"
       class="fil14 str5" /><path
       style="fill:#cd5771"
       id="path135"
       d="m 8332,2957 -5,31 c 13,3 27,7 40,11 17,6 26,24 20,41 -6,17 -25,27 -41,21 -10,-3 -19,-7 -28,-9 l -3,17 -150,74 -497,-74 14,-94 17,-113 14,-94 497,74 122,114 z"
       class="fil12" /><path
       style="fill:none;stroke:#b64f65;stroke-width:40.54000092;stroke-linecap:round;stroke-linejoin:round"
       id="path137"
       d="m 8108,3013 c 17,-23 12,-55 -11,-72 -23,-17 -55,-12 -72,11"
       class="fil8 str3" /><path
       style="fill:#b64f65;fill-rule:nonzero"
       id="path139"
       d="m 8375,3004 c 71,28 133,73 180,129 l -70,19 c -38,-39 -85,-70 -138,-90 l -2,-1 c 17,6 36,-4 41,-21 5,-14 0,-28 -12,-36 z m 11,824 c -51,22 -107,34 -165,35 h -1 -1 c -108,-2 -208,-43 -286,-111 -76,-67 -130,-161 -146,-269 v 0 c -18,-127 18,-256 102,-353 27,-31 61,-68 103,-114 17,-19 36,-40 52,-57 12,-13 32,-14 45,-2 13,12 14,32 2,45 -22,24 -37,41 -52,57 -45,50 -80,88 -108,119 -7,8 -13,17 -20,26 -52,76 -77,171 -62,269 v 0 0 c 14,93 59,173 125,230 66,58 152,93 244,95 52,-1 103,-12 149,-33 l 17,63 z m -250,-996 c 43,-73 81,-158 114,-252 34,-96 62,-202 83,-311 3,-17 20,-29 38,-26 17,3 29,20 26,38 -22,111 -51,220 -86,320 -31,88 -67,170 -106,241 l -68,-10 z"
       class="fil13" /><path
       style="fill:none;fill-rule:nonzero;stroke:#cd5771;stroke-width:64.48999786;stroke-linecap:round;stroke-linejoin:round;stroke-dasharray:50.54, 151.62"
       id="path141"
       d="m 8578,3203 c 120,187 71,436 -113,562"
       class="fil14 str4" /><path
       style="fill:none;fill-rule:nonzero;stroke:#727271;stroke-width:40.54000092;stroke-linecap:round;stroke-linejoin:round"
       id="path143"
       d="m 8447,3138 c 12,26 43,37 69,25 26,-12 37,-43 25,-69"
       class="fil14 str5" /><path
       style="fill:none;fill-rule:nonzero;stroke:#727271;stroke-width:40.54000092;stroke-linecap:round;stroke-linejoin:round"
       id="path145"
       d="m 8348,3863 c 28,-5 46,-32 41,-60 -5,-28 -32,-46 -60,-41"
       class="fil14 str5" /><path
       style="fill:#748187;fill-rule:nonzero"
       id="path147"
       d="m 7212,3261 c -1,-45 25,-84 57,-85 33,-2 60,34 62,79 10,385 174,617 348,863 v 0 0 c 1,2 2,3 3,5 91,130 146,253 135,354 -12,114 -89,186 -262,190 v -165 c 99,-2 141,-20 144,-48 5,-44 -36,-122 -103,-216 -1,-1 -2,-2 -3,-3 v 0 0 -1 0 c -191,-270 -371,-524 -382,-973 z"
       class="fil15" /><path
       style="fill:#748187"
       id="path149"
       d="m 7335,3175 c 35,0 64,55 64,123 0,68 -28,123 -64,123 -35,0 -64,-55 -64,-123 0,-68 28,-123 64,-123 z"
       class="fil16" /><path
       style="fill:#748187;fill-rule:nonzero"
       id="path151"
       d="m 4104,3261 c -1,-45 25,-84 57,-85 33,-2 60,34 62,79 10,385 174,617 348,863 v 0 0 c 1,2 2,3 3,5 91,130 146,253 135,354 -12,114 -89,186 -262,190 v -165 c 99,-2 141,-20 144,-48 5,-44 -37,-122 -103,-216 -1,-1 -2,-2 -3,-3 v 0 0 -1 0 c -191,-270 -371,-524 -382,-973 z"
       class="fil15" /><path
       style="fill:#748187"
       id="path153"
       d="m 4227,3175 c 35,0 64,55 64,123 0,68 -28,123 -64,123 -35,0 -64,-55 -64,-123 0,-68 28,-123 64,-123 z"
       class="fil16" /><path
       style="fill:#ab8082;fill-rule:nonzero;stroke:#ab8082;stroke-width:20"
       id="path155"
       d="m 6126,4441 c 0,-36 13,-64 39,-75 l 143,-65 c 70,-31 86,-86 86,-138 v -3 c 0,-89 -51,-139 -152,-139 h -47 c -80,0 -130,34 -130,117 0,20 10,37 37,37 26,0 37,-16 37,-37 0,-33 23,-47 57,-47 h 47 c 55,0 79,21 79,69 v 3 c 0,37 -12,59 -43,73 l -133,59 c -62,26 -92,86 -92,153 v 124 h 313 c 19,0 35,-10 35,-35 0,-25 -16,-35 -35,-35 h -239 v -61 z"
       class="fil9 str1" /><path
       style="fill:#ab8082;fill-rule:nonzero"
       id="path157"
       d="m 5773,4430 c 0,14 2,28 3,37 h -1 l -113,-233 c -6,-12 -14,-17 -24,-17 -17,0 -24,11 -24,23 v 314 c 0,12 7,23 24,23 16,0 23,-11 23,-23 v -190 c 0,-14 -2,-28 -3,-37 h 1 l 113,233 c 6,12 14,17 24,17 17,0 24,-11 24,-23 v -314 c 0,-12 -7,-23 -24,-23 -16,0 -23,11 -23,23 z m 127,-108 c -15,0 -19,-9 -19,-23 v -25 c 0,-14 4,-23 19,-23 h 8 c 15,0 19,9 19,23 v 25 c 0,14 -4,23 -19,23 z m 8,34 c 35,0 51,-23 51,-54 v -30 c 0,-31 -17,-53 -51,-53 h -9 c -35,0 -51,23 -51,53 v 30 c 0,31 17,54 51,54 z m 35,59 c 11,0 18,-5 18,-18 0,-13 -8,-18 -18,-18 h -77 c -11,0 -19,5 -19,18 0,13 8,18 19,18 z"
       class="fil9" /><path
       style="fill:#ab8082;fill-rule:nonzero;stroke:#ab8082;stroke-width:20"
       id="path159"
       d="m 9536,4408 c 0,-65 -26,-114 -84,-132 37,-21 58,-55 58,-106 v -10 c 0,-89 -51,-139 -152,-139 h -41 c -80,0 -130,34 -130,117 0,20 10,37 37,37 26,0 37,-16 37,-37 0,-33 23,-47 57,-47 h 41 c 55,0 79,21 79,69 v 10 c 0,49 -29,84 -85,84 h -44 c -19,0 -35,9 -35,34 0,25 16,34 35,34 h 79 c 55,0 76,36 76,86 v 26 c 0,49 -23,77 -79,77 h -83 c -34,0 -57,-14 -57,-47 0,-20 -10,-37 -37,-37 -26,0 -37,16 -37,37 0,82 50,117 130,117 h 83 c 101,0 152,-58 152,-147 z"
       class="fil9 str1" /><path
       style="fill:#ab8082;fill-rule:nonzero"
       id="path161"
       d="m 8911,4430 c 0,14 2,28 3,37 h -1 l -113,-233 c -6,-12 -14,-17 -24,-17 -17,0 -24,11 -24,23 v 314 c 0,12 6,23 24,23 16,0 23,-11 23,-23 v -190 c 0,-14 -2,-28 -3,-37 h 1 l 113,233 c 6,12 14,17 24,17 17,0 24,-11 24,-23 v -314 c 0,-12 -7,-23 -24,-23 -16,0 -23,11 -23,23 z m 127,-108 c -15,0 -19,-9 -19,-23 v -25 c 0,-14 4,-23 19,-23 h 8 c 15,0 19,9 19,23 v 25 c 0,14 -4,23 -19,23 z m 8,34 c 35,0 51,-23 51,-54 v -30 c 0,-31 -17,-53 -51,-53 h -9 c -35,0 -51,23 -51,53 v 30 c 0,31 17,54 51,54 z m 35,59 c 11,0 18,-5 18,-18 0,-13 -8,-18 -18,-18 h -77 c -11,0 -19,5 -19,18 0,13 8,18 19,18 z"
       class="fil9" /><path
       style="fill:#748187;fill-rule:nonzero"
       id="path163"
       d="m 10320,3261 c -1,-45 25,-84 57,-85 33,-2 60,34 62,79 10,385 174,617 348,863 v 0 0 c 1,2 2,3 3,5 91,130 146,253 135,354 -12,114 -89,186 -262,190 v -165 c 99,-2 141,-20 144,-48 5,-44 -37,-122 -103,-216 -1,-1 -2,-2 -3,-3 v 0 0 -1 0 c -191,-270 -371,-524 -382,-973 z"
       class="fil15" /><path
       style="fill:#748187"
       id="path165"
       d="m 10443,3175 c 35,0 64,55 64,123 0,68 -28,123 -64,123 -35,0 -64,-55 -64,-123 0,-68 28,-123 64,-123 z"
       class="fil16" /><path
       style="fill:#57a7b3;fill-rule:nonzero;stroke:#57a7b3;stroke-width:10.17000008;stroke-linecap:round;stroke-linejoin:round"
       id="path167"
       d="m 5580,4932 c 0,-27 -12,-45 -36,-53 17,-10 25,-23 25,-44 v -12 c 0,-38 -22,-57 -64,-57 h -40 c -11,0 -16,8 -16,16 v 206 c 0,8 5,16 16,16 h 51 c 43,0 64,-23 64,-61 z m -100,-34 h 35 c 23,0 33,14 33,34 v 11 c 0,20 -9,30 -33,30 h -35 z m 0,-30 v -71 h 24 c 23,0 33,7 33,27 v 12 c 0,20 -10,33 -33,33 h -24 z m 217,-10 h -23 v -80 c 0,-8 -5,-16 -16,-16 -11,0 -16,8 -16,16 v 209 c 0,8 5,16 16,16 h 40 c 43,0 63,-23 63,-61 v -20 c 0,-37 -20,-64 -63,-64 z m -23,31 h 23 c 23,0 32,13 32,34 v 20 c 0,20 -8,31 -32,31 h -23 z m 142,103 v -213 c 0,-8 -4,-16 -16,-16 -11,0 -16,8 -16,16 v 213 c 0,8 4,16 16,16 11,0 16,-7 16,-16 z m 135,-131 h -31 v -63 h 69 c 8,0 15,-4 15,-15 0,-10 -7,-15 -15,-15 h -85 c -11,0 -16,6 -16,15 v 207 c 0,8 5,16 16,16 h 46 c 43,0 63,-23 63,-61 v -20 c 0,-37 -20,-63 -63,-63 z m 32,83 c 0,20 -8,31 -32,31 h -31 v -85 h 31 c 23,0 32,13 32,34 v 21 z m 122,-114 c 0,-21 7,-36 31,-36 h 10 c 23,0 31,15 31,36 v 112 c 0,21 -7,36 -31,36 h -10 c -23,0 -31,-15 -31,-36 z m 104,0 c 0,-37 -20,-66 -63,-66 h -10 c -43,0 -63,29 -63,66 v 112 c 0,37 20,66 63,66 h 10 c 43,0 63,-29 63,-66 z m 101,52 v -84 h 34 c 23,0 32,10 32,31 v 20 c 0,21 -8,34 -32,34 h -34 z m 34,31 c 43,0 63,-27 63,-64 v -20 c 0,-38 -20,-61 -63,-61 h -51 c -11,0 -16,7 -16,16 v 210 c 0,8 5,16 16,16 11,0 16,-7 16,-16 v -80 h 34 z m 181,-53 h -23 v -80 c 0,-8 -5,-16 -16,-16 -11,0 -16,7 -16,16 v 209 c 0,8 5,16 16,16 h 40 c 43,0 63,-23 63,-61 v -20 c 0,-37 -20,-64 -63,-64 z m -23,31 h 23 c 23,0 32,13 32,34 v 20 c 0,20 -8,31 -32,31 h -23 z m 142,103 v -213 c 0,-8 -4,-16 -16,-16 -11,0 -16,7 -16,16 v 213 c 0,8 4,16 16,16 11,0 16,-7 16,-16 z"
       class="fil10 str2" /><path
       style="fill:#57a7b3;fill-rule:nonzero;stroke:#57a7b3;stroke-width:10.17000008;stroke-linecap:round;stroke-linejoin:round"
       id="path169"
       d="m 8665,4932 c 0,-27 -12,-45 -36,-53 17,-10 25,-23 25,-44 v -12 c 0,-38 -22,-57 -64,-57 h -40 c -11,0 -16,8 -16,16 v 206 c 0,8 5,16 16,16 h 51 c 43,0 64,-23 64,-61 z m -100,-34 h 35 c 23,0 33,14 33,34 v 11 c 0,20 -9,30 -33,30 h -35 z m 0,-30 v -71 h 24 c 23,0 33,7 33,27 v 12 c 0,20 -10,33 -33,33 h -24 z m 217,-10 h -23 v -80 c 0,-8 -5,-16 -16,-16 -11,0 -16,8 -16,16 v 209 c 0,8 5,16 16,16 h 40 c 43,0 63,-23 63,-61 v -20 c 0,-37 -20,-64 -63,-64 z m -23,31 h 23 c 23,0 32,13 32,34 v 20 c 0,20 -8,31 -32,31 h -23 z m 142,103 v -213 c 0,-8 -4,-16 -16,-16 -11,0 -16,8 -16,16 v 213 c 0,8 4,16 16,16 11,0 16,-7 16,-16 z m 135,-131 h -31 v -63 h 69 c 8,0 15,-4 15,-15 0,-10 -7,-15 -15,-15 h -85 c -11,0 -16,6 -16,15 v 207 c 0,8 5,16 16,16 h 46 c 43,0 63,-23 63,-61 v -20 c 0,-37 -20,-63 -63,-63 z m 32,83 c 0,20 -8,31 -32,31 h -31 v -85 h 31 c 23,0 32,13 32,34 v 21 z m 122,-114 c 0,-21 7,-36 31,-36 h 10 c 23,0 31,15 31,36 v 112 c 0,21 -7,36 -31,36 h -10 c -23,0 -31,-15 -31,-36 z m 104,0 c 0,-37 -20,-66 -63,-66 h -10 c -43,0 -63,29 -63,66 v 112 c 0,37 20,66 63,66 h 10 c 43,0 63,-29 63,-66 z m 101,52 v -84 h 34 c 23,0 32,10 32,31 v 20 c 0,21 -8,34 -32,34 h -34 z m 34,31 c 43,0 63,-27 63,-64 v -20 c 0,-38 -20,-61 -63,-61 h -51 c -11,0 -16,7 -16,16 v 210 c 0,8 5,16 16,16 11,0 16,-7 16,-16 v -80 h 34 z m 181,-53 h -23 v -80 c 0,-8 -5,-16 -16,-16 -11,0 -16,7 -16,16 v 209 c 0,8 5,16 16,16 h 40 c 43,0 63,-23 63,-61 v -20 c 0,-37 -20,-64 -63,-64 z m -23,31 h 23 c 23,0 32,13 32,34 v 20 c 0,20 -8,31 -32,31 h -23 z m 142,103 v -213 c 0,-8 -4,-16 -16,-16 -11,0 -16,7 -16,16 v 213 c 0,8 4,16 16,16 11,0 16,-7 16,-16 z"
       class="fil10 str2" /></g></svg>