<?xml version="1.0" encoding="UTF-8"?>
<!DOCTYPE svg PUBLIC "-//W3C//DTD SVG 1.0//EN" "http://www.w3.org/TR/2001/REC-SVG-20010904/DTD/svg10.dtd">
<!-- Creator: CorelDRAW X7 -->
<svg xmlns="http://www.w3.org/2000/svg" xml:space="preserve" width="200mm" height="200mm" version="1.0" style="shape-rendering:geometricPrecision; text-rendering:geometricPrecision; image-rendering:optimizeQuality; fill-rule:evenodd; clip-rule:evenodd"
viewBox="0 0 20000 20000"
 xmlns:xlink="http://www.w3.org/1999/xlink">
 <defs>
  <style type="text/css">
   <![CDATA[
    .str0 {stroke:#3198A2;stroke-width:25}
    .fil1 {fill:#D25F60}
    .fil2 {fill:#1494B7}
    .fil3 {fill:#2E99A3}
    .fil0 {fill:url(#id0)}
   ]]>
  </style>
  <radialGradient id="id0" gradientUnits="userSpaceOnUse" gradientTransform="matrix(1.41421 -0 -0 1.41421 -4155 -4129)" cx="10030.6" cy="9969.4" r="10000" fx="10030.6" fy="9969.4">
   <stop offset="0" style="stop-opacity:1; stop-color:#FEFEFE"/>
   <stop offset="0.439216" style="stop-opacity:1; stop-color:#FEFEFE"/>
   <stop offset="1" style="stop-opacity:1; stop-color:#D1E2F2"/>
  </radialGradient>
 </defs>
 <g id="Layer_x0020_1">
  <metadata id="CorelCorpID_0Corel-Layer"/>
  <path class="fil0" d="M31 -31l20000 0 0 20000 -20000 0 0 -20000z"/>
  <g id="_854915079280">
   <g>
    <path class="fil1" d="M4422 2690l-2314 0 0 1890 2314 0 0 -1890zm-271 221l0 1448 -1773 0 0 -1448 1773 0z"/>
    <path class="fil2" d="M3243 4522l-963 -961 315 -210 597 596 1541 -2097 348 171 -1838 2501z"/>
   </g>
   <g>
    <path class="fil1" d="M4422 5275l-2314 0 0 1889 2314 0 0 -1889zm-271 221l0 1447 -1773 0 0 -1447 1773 0z"/>
    <path class="fil2" d="M3243 7026l-963 -960 315 -210 597 595 1541 -2096 348 170 -1838 2501z"/>
   </g>
   <g>
    <path class="fil1" d="M4422 7798l-2314 0 0 1889 2314 0 0 -1889zm-271 221l0 1447 -1773 0 0 -1447 1773 0z"/>
    <path class="fil2" d="M3243 9611l-963 -961 315 -209 597 595 1541 -2097 348 171 -1838 2501z"/>
   </g>
   <g>
    <path class="fil1" d="M4422 10491l-2314 0 0 1889 2314 0 0 -1889zm-271 221l0 1447 -1773 0 0 -1447 1773 0z"/>
    <path class="fil2" d="M3243 12134l-963 -961 315 -209 597 595 1541 -2097 348 171 -1838 2501z"/>
   </g>
   <g>
    <path class="fil1" d="M4422 13184l-2314 0 0 1890 2314 0 0 -1890zm-271 221l0 1447 -1773 0 0 -1447 1773 0z"/>
    <path class="fil2" d="M3243 14827l-963 -961 315 -209 597 595 1541 -2096 348 170 -1838 2501z"/>
   </g>
   <g>
    <path class="fil3 str0" d="M6357 2950l0 -411c0,-6 3,-12 7,-18 5,-4 11,-6 17,-6 6,0 12,2 17,6 5,4 7,10 7,18l0 411 25 0c16,0 24,8 24,24l0 72c0,7 -3,13 -8,17 -4,5 -10,7 -16,7 -6,0 -11,-2 -16,-6 -6,-4 -8,-10 -8,-18l0 -48 -266 0c-16,0 -24,-8 -24,-24l0 -435c0,-6 2,-12 7,-18 5,-4 11,-6 17,-6 6,0 12,2 16,6 5,4 8,10 8,18l0 411 193 0zm219 -145l146 0 0 -49c0,-13 -5,-25 -14,-34 -9,-9 -21,-14 -35,-14l-48 0c-14,0 -26,4 -35,14 -5,4 -8,10 -10,16 -3,5 -4,12 -4,18l0 49zm0 48l0 48c0,14 5,26 14,35 5,4 10,8 16,10 6,3 13,4 19,4l120 0c7,0 13,2 17,7 5,5 8,11 8,17 0,5 -2,11 -6,16 -4,5 -11,8 -19,8l-120 0c-26,0 -49,-10 -68,-28 -19,-19 -29,-42 -29,-69l0 -145c0,-26 9,-48 28,-67 19,-20 42,-29 69,-29l48 0c26,0 49,9 68,28 19,19 29,42 29,68l0 73c0,16 -8,24 -25,24l-169 0zm483 -49l0 -120c0,-7 2,-12 7,-18 5,-4 11,-6 17,-6 6,0 12,2 17,6 5,4 7,10 7,18l0 290c0,7 -2,13 -7,18 -4,4 -10,6 -17,6 -6,0 -12,-2 -17,-6 -5,-4 -7,-10 -7,-18l0 -122 -145 0 0 122c0,7 -2,13 -7,18 -4,4 -10,6 -17,6 -7,0 -12,-2 -17,-6 -5,-4 -7,-10 -7,-18l0 -290c0,-6 2,-12 7,-18 5,-4 10,-6 17,-6 6,0 12,2 16,6 5,4 8,10 8,18l0 120 145 0zm289 -96l-97 0 0 266c0,7 -2,13 -6,18 -5,4 -11,6 -18,6 -6,0 -12,-2 -16,-6 -5,-4 -8,-10 -8,-18l0 -290c0,-16 8,-24 25,-24l216 0c26,0 49,9 68,28 19,19 29,41 29,68l0 218c0,7 -3,13 -7,18 -4,4 -10,6 -17,6 -7,0 -12,-2 -17,-6 -5,-4 -7,-10 -7,-18l0 -218c0,-14 -5,-25 -14,-34 -9,-9 -21,-14 -35,-14l-48 0 0 266c0,7 -2,13 -7,18 -4,4 -10,6 -17,6 -6,0 -12,-2 -17,-6 -5,-4 -7,-10 -7,-18l0 -266zm337 242l97 0c14,0 25,-5 35,-14 9,-9 14,-20 14,-35l0 -145c0,-13 -5,-25 -14,-34 -9,-9 -21,-14 -35,-14l-97 0 0 242zm0 48l0 120c0,7 -2,13 -7,17 -5,5 -10,7 -17,7 -5,0 -10,-2 -16,-6 -5,-4 -8,-10 -8,-18l0 -434c0,-16 8,-24 25,-24l120 0c26,0 49,9 68,28 19,19 29,41 29,68l0 145c0,27 -10,49 -29,68 -18,19 -41,29 -68,29l-97 0zm483 -97l0 -193 -97 0c-13,0 -25,4 -34,14 -5,4 -8,9 -11,15 -2,6 -3,13 -3,19l0 145c0,14 5,26 14,35 5,4 10,8 15,10 7,3 14,4 19,4l49 0c13,0 25,-5 34,-14 10,-9 14,-20 14,-35zm24 65c-8,9 -18,17 -32,23 -13,6 -27,9 -40,9l-48 0c-26,0 -49,-9 -68,-28 -19,-19 -29,-42 -29,-69l0 -145c0,-26 9,-49 28,-68 19,-19 42,-28 69,-28l120 0c16,0 24,8 24,24l0 217c0,9 3,19 10,29 5,9 13,16 24,21 10,4 15,12 15,22 0,7 -3,13 -7,18 -4,4 -10,7 -17,7 -4,0 -7,-1 -10,-3 -16,-6 -29,-16 -39,-29zm362 8c0,7 -2,13 -7,18 -4,4 -10,6 -17,6 -6,0 -12,-2 -17,-6 -5,-4 -7,-10 -7,-18l0 -266 -55 0 -91 273c-2,6 -5,10 -9,13 -1,1 -5,2 -13,4 -6,0 -12,-3 -17,-7 -5,-4 -8,-10 -8,-16l2 -9 95 -290c4,-11 11,-16 23,-16l97 0c16,0 24,8 24,24l0 290zm144 -122l0 98 97 0c15,0 27,-5 35,-15 9,-10 14,-21 14,-34 0,-14 -4,-25 -12,-34 -4,-4 -9,-8 -15,-10 -7,-3 -14,-5 -22,-5l-97 0zm0 -48l97 0c30,0 54,10 72,30 17,19 25,41 25,67 0,26 -8,48 -24,66 -18,21 -43,31 -73,31l-121 0c-16,0 -24,-8 -24,-24l0 -290c0,-6 3,-12 7,-18 5,-4 11,-6 17,-6 6,0 12,2 17,6 5,4 7,10 7,18l0 120zm483 0l0 -120c0,-7 3,-12 7,-18 5,-4 11,-6 17,-6 6,0 12,2 17,6 5,4 7,10 7,18l0 290c0,7 -2,13 -7,18 -4,4 -10,6 -17,6 -6,0 -12,-2 -17,-6 -4,-4 -7,-10 -7,-18l0 -122 -145 0 0 122c0,7 -2,13 -7,18 -4,4 -10,6 -17,6 -6,0 -12,-2 -17,-6 -5,-4 -7,-10 -7,-18l0 -290c0,-6 2,-12 7,-18 5,-4 11,-6 17,-6 6,0 12,2 16,6 5,4 8,10 8,18l0 120 145 0zm338 97l0 -193 -97 0c-14,0 -25,4 -35,14 -4,4 -8,9 -10,15 -2,6 -4,13 -4,19l0 145c0,14 5,26 14,35 5,4 10,8 16,10 7,3 13,4 19,4l48 0c14,0 25,-5 35,-14 9,-9 14,-20 14,-35zm23 65c-7,9 -18,17 -31,23 -14,6 -27,9 -41,9l-48 0c-26,0 -49,-9 -68,-28 -19,-19 -28,-42 -28,-69l0 -145c0,-26 9,-49 28,-68 19,-19 41,-28 68,-28l121 0c16,0 24,8 24,24l0 217c0,9 3,19 9,29 6,9 14,16 24,21 10,4 15,12 15,22 0,7 -2,13 -7,18 -4,4 -9,7 -17,7 -3,0 -7,-1 -10,-3 -15,-6 -28,-16 -39,-29zm314 -161l0 -97 -96 0c-14,0 -26,5 -36,14 -9,10 -13,21 -13,34 0,13 4,24 13,34 8,10 20,15 36,15l96 0zm-59 48l-90 134c-1,3 -4,6 -9,8l-11 3c-4,0 -10,-3 -16,-7 -5,-5 -8,-11 -8,-18 0,-4 1,-8 4,-13l72 -108c-23,-4 -42,-15 -56,-34 -13,-19 -20,-39 -20,-62 0,-25 8,-48 24,-66 18,-20 43,-30 73,-30l120 0c16,0 24,8 24,24l0 290c0,7 -2,13 -6,18 -5,4 -11,6 -18,6 -6,0 -12,-2 -16,-6 -5,-4 -8,-10 -8,-18l0 -121 -59 0zm734 121c0,16 -8,24 -24,24l-120 0c-26,0 -49,-9 -68,-28 -19,-19 -29,-42 -29,-69l0 -217c0,-6 2,-12 7,-18 5,-4 11,-6 17,-6 6,0 12,2 17,6 5,4 7,10 7,18l0 217c0,14 5,26 14,35 5,4 10,8 16,10 6,3 13,4 19,4l96 0 0 -266c0,-6 3,-12 8,-18 4,-4 10,-6 16,-6 7,0 12,2 17,6 5,4 7,10 7,18l0 290zm224 -122l-30 0c-8,0 -14,-2 -18,-6 -4,-5 -7,-11 -7,-18 0,-5 3,-11 7,-16 4,-5 10,-8 18,-8l24 0c14,0 26,-4 35,-14 9,-10 13,-21 13,-34 0,-14 -4,-25 -12,-33 -4,-5 -9,-8 -15,-11 -6,-3 -13,-4 -21,-4l-24 0c-23,0 -42,6 -58,20 -4,2 -9,4 -15,5 -5,0 -11,-3 -17,-7 -5,-5 -7,-11 -7,-18 0,-8 3,-14 10,-19 25,-20 53,-29 87,-29l24 0c30,0 54,10 72,30 16,18 24,40 24,66 0,8 -1,15 -2,21 -1,6 -3,13 -5,19 -5,11 -13,22 -23,33 9,8 17,19 23,33l5 19c1,6 2,13 2,21 0,26 -8,48 -24,66 -17,20 -41,30 -72,30l-24 0c-33,0 -62,-10 -87,-29 -7,-5 -10,-11 -10,-19 0,-6 2,-11 7,-17 5,-6 10,-9 17,-9 4,0 9,2 15,6 16,13 36,20 58,20l24 0c14,0 26,-5 35,-15 9,-10 13,-21 13,-34 0,-13 -3,-23 -10,-32 -7,-8 -18,-14 -32,-17zm380 49l0 -145c0,-13 -5,-25 -14,-34 -9,-9 -21,-14 -35,-14l-48 0c-14,0 -25,4 -35,14 -4,4 -8,9 -10,15 -3,6 -4,13 -4,19l0 145c0,14 5,26 14,35 5,4 10,8 16,10 7,3 13,4 19,4l48 0c14,0 25,-5 34,-14 10,-9 15,-20 15,-35zm-78 -241l-109 -103c-5,-7 -8,-13 -8,-20 0,-5 2,-10 6,-15 4,-4 11,-7 19,-7l193 0c7,0 13,3 17,8 5,4 8,10 8,16 0,6 -2,11 -6,16 -5,6 -11,8 -19,8l-132 0 128 122 5 8c16,18 24,39 24,63l0 145c0,27 -10,49 -29,68 -19,19 -41,29 -68,29l-48 0c-26,0 -49,-9 -68,-28 -19,-19 -29,-42 -29,-69l0 -145c0,-26 10,-49 28,-68 19,-19 42,-28 69,-28l19 0zm463 314c0,16 -8,24 -24,24l-121 0c-26,0 -48,-9 -67,-28 -20,-19 -29,-42 -29,-69l0 -217c0,-6 2,-12 7,-18 5,-4 10,-6 17,-6 6,0 12,2 16,6 5,4 8,10 8,18l0 217c0,14 4,26 14,35 5,4 10,8 15,10 7,3 14,4 19,4l97 0 0 -266c0,-6 3,-12 7,-18 5,-4 11,-6 17,-6 6,0 12,2 17,6 5,4 7,10 7,18l0 290zm144 -24l97 0c14,0 25,-5 35,-14 9,-9 14,-20 14,-35l0 -145c0,-13 -5,-25 -14,-34 -9,-9 -21,-14 -35,-14l-97 0 0 242zm0 48l0 120c0,7 -2,13 -7,17 -5,5 -10,7 -17,7 -5,0 -10,-2 -16,-6 -5,-4 -8,-10 -8,-18l0 -434c0,-16 8,-24 25,-24l120 0c26,0 49,9 68,28 19,19 29,41 29,68l0 145c0,27 -10,49 -29,68 -18,19 -41,29 -68,29l-97 0zm483 -97l0 -193 -97 0c-13,0 -25,4 -34,14 -5,4 -8,9 -11,15 -2,6 -3,13 -3,19l0 145c0,14 5,26 14,35 5,4 10,8 15,10 7,3 14,4 19,4l49 0c13,0 25,-5 34,-14 10,-9 14,-20 14,-35zm24 65c-8,9 -18,17 -32,23 -13,6 -27,9 -40,9l-48 0c-26,0 -49,-9 -68,-28 -19,-19 -29,-42 -29,-69l0 -145c0,-26 9,-49 28,-68 19,-19 42,-28 69,-28l120 0c16,0 24,8 24,24l0 217c0,9 3,19 10,29 5,9 13,16 24,21 10,4 15,12 15,22 0,7 -3,13 -7,18 -4,4 -10,7 -17,7 -4,0 -7,-1 -10,-3 -16,-6 -29,-16 -39,-29zm265 -258l-96 0 0 266c0,7 -3,13 -7,18 -5,4 -10,6 -17,6 -7,0 -12,-2 -17,-6 -5,-4 -7,-10 -7,-18l0 -290c0,-16 8,-24 24,-24l217 0c26,0 48,9 67,28 19,19 29,41 29,68l0 218c0,7 -2,13 -7,18 -4,4 -10,6 -17,6 -6,0 -12,-2 -17,-6 -5,-4 -7,-10 -7,-18l0 -218c0,-14 -5,-25 -14,-34 -9,-9 -20,-14 -34,-14l-49 0 0 266c0,7 -2,13 -7,18 -4,4 -10,6 -17,6 -6,0 -12,-2 -17,-6 -4,-4 -7,-10 -7,-18l0 -266zm338 97l145 0 0 -49c0,-13 -5,-25 -14,-34 -9,-9 -20,-14 -34,-14l-49 0c-13,0 -25,4 -34,14 -5,4 -9,10 -11,16 -2,5 -3,12 -3,18l0 49zm0 48l0 48c0,14 4,26 13,35 5,4 11,8 16,10 7,3 13,4 19,4l121 0c7,0 12,2 17,7 5,5 7,11 7,17 0,5 -2,11 -6,16 -4,5 -10,8 -18,8l-121 0c-26,0 -49,-10 -68,-28 -19,-19 -28,-42 -28,-69l0 -145c0,-26 9,-48 28,-67 18,-20 41,-29 68,-29l48 0c27,0 49,9 68,28 19,19 29,42 29,68l0 73c0,16 -8,24 -24,24l-169 0zm531 121c0,7 -3,13 -7,18 -5,4 -10,6 -17,6 -7,0 -12,-2 -17,-6 -5,-4 -7,-10 -7,-18l0 -266 -56 0 -90 273c-2,6 -5,10 -9,13 -1,1 -6,2 -13,4 -7,0 -12,-3 -17,-7 -5,-4 -8,-10 -8,-16l2 -9 95 -290c3,-11 11,-16 23,-16l97 0c16,0 24,8 24,24l0 290zm144 -122l0 98 97 0c15,0 26,-5 35,-15 9,-10 13,-21 13,-34 0,-14 -4,-25 -11,-34 -4,-4 -10,-8 -16,-10 -6,-3 -13,-5 -21,-5l-97 0zm0 -48l97 0c30,0 54,10 72,30 16,19 24,41 24,67 0,26 -8,48 -24,66 -18,21 -42,31 -72,31l-121 0c-16,0 -24,-8 -24,-24l0 -290c0,-6 2,-12 7,-18 5,-4 11,-6 17,-6 6,0 12,2 17,6 4,4 7,10 7,18l0 120zm483 0l0 -120c0,-7 2,-12 7,-18 5,-4 11,-6 17,-6 6,0 12,2 16,6 5,4 8,10 8,18l0 290c0,7 -2,13 -7,18 -4,4 -10,6 -17,6 -6,0 -12,-2 -17,-6 -5,-4 -7,-10 -7,-18l0 -122 -145 0 0 122c0,7 -3,13 -7,18 -5,4 -10,6 -17,6 -7,0 -12,-2 -17,-6 -5,-4 -7,-10 -7,-18l0 -290c0,-6 2,-12 7,-18 5,-4 10,-6 17,-6 6,0 11,2 16,6 5,4 8,10 8,18l0 120 145 0zm337 97l0 -193 -96 0c-14,0 -26,4 -35,14 -5,4 -8,9 -10,15 -3,6 -4,13 -4,19l0 145c0,14 5,26 14,35 5,4 10,8 16,10 6,3 13,4 19,4l48 0c13,0 25,-5 34,-14 10,-9 14,-20 14,-35zm24 65c-8,9 -18,17 -32,23 -13,6 -27,9 -40,9l-48 0c-26,0 -49,-9 -68,-28 -19,-19 -29,-42 -29,-69l0 -145c0,-26 10,-49 28,-68 19,-19 42,-28 69,-28l120 0c16,0 24,8 24,24l0 217c0,9 4,19 10,29 5,9 13,16 24,21 10,4 15,12 15,22 0,7 -2,13 -7,18 -4,4 -10,7 -17,7 -4,0 -7,-1 -10,-3 -16,-6 -29,-16 -39,-29zm314 -161l0 -97 -97 0c-13,0 -25,5 -36,14 -8,10 -12,21 -12,34 0,13 4,24 12,34 9,10 21,15 36,15l97 0zm-59 48l-90 134c-2,3 -5,6 -9,8l-11 3c-5,0 -10,-3 -16,-7 -6,-5 -8,-11 -8,-18 0,-4 1,-8 4,-13l72 -108c-24,-4 -42,-15 -56,-34 -13,-19 -20,-39 -20,-62 0,-25 8,-48 24,-66 18,-20 42,-30 72,-30l121 0c16,0 24,8 24,24l0 290c0,7 -2,13 -7,18 -4,4 -10,6 -17,6 -6,0 -12,-2 -17,-6 -5,-4 -7,-10 -7,-18l0 -121 -59 0zm590 -13l-54 57 0 77c0,7 -2,13 -7,18 -4,4 -10,6 -17,6 -7,0 -12,-2 -17,-6 -5,-4 -7,-10 -7,-18l0 -290c0,-6 2,-12 7,-18 5,-4 10,-6 17,-6 6,0 12,2 16,6 5,4 8,10 8,18l0 143 153 -161c4,-5 9,-7 15,-7 6,0 11,2 17,7 5,5 8,11 8,19 0,6 -3,12 -8,18l-97 102 99 153c4,7 6,12 6,16 0,7 -3,13 -8,17 -5,5 -11,8 -17,8 -7,0 -12,-4 -17,-10l-97 -149zm457 52c0,28 -10,53 -31,74 -20,21 -45,32 -75,32l-29 0c-29,0 -54,-10 -75,-31 -21,-20 -31,-46 -31,-75l0 -126c0,-28 10,-53 31,-74 21,-22 46,-32 75,-32l29 0c29,0 54,10 75,31 21,20 31,45 31,75l0 126zm-48 0l0 -126c0,-16 -5,-30 -17,-41 -11,-11 -24,-17 -41,-17l-29 0c-16,0 -30,5 -41,17 -11,11 -17,25 -17,41l0 126c0,16 6,29 17,41 11,11 25,17 41,17l29 0c16,0 29,-6 41,-17 11,-11 17,-25 17,-41zm434 82l0 -290c0,-9 -2,-16 -6,-20 -5,-5 -10,-8 -16,-8 -7,0 -14,5 -22,14l-101 142 -101 -142c-6,-9 -14,-14 -22,-14 -6,0 -11,3 -16,8 -3,5 -5,12 -5,20l0 290c0,7 2,13 6,18 5,4 10,6 18,6 5,0 11,-2 16,-7 5,-4 8,-10 8,-17l0 -215 77 108c6,9 12,13 19,13 6,0 13,-4 20,-13l77 -108 0 215c0,7 2,13 7,18 4,4 10,6 17,6 6,0 11,-2 16,-7 5,-4 8,-10 8,-17zm338 0c0,16 -8,24 -24,24l-121 0c-26,0 -49,-9 -68,-28 -19,-19 -29,-42 -29,-69l0 -217c0,-6 3,-12 8,-18 4,-4 10,-6 16,-6 6,0 12,2 17,6 5,4 7,10 7,18l0 217c0,14 5,26 14,35 5,4 10,8 16,10 7,3 13,4 19,4l97 0 0 -266c0,-6 2,-12 7,-18 5,-4 10,-6 17,-6 6,0 11,2 16,6 5,4 8,10 8,18l0 290z"/>
    <path class="fil3 str0" d="M16584 2998l-72 0c-26,0 -49,-9 -68,-28 -19,-19 -29,-42 -29,-69l0 -145c0,-26 9,-49 28,-68 19,-19 42,-28 69,-28l72 0c7,0 12,2 17,7 5,5 7,11 7,17 0,5 -2,11 -6,16 -4,5 -10,8 -18,8l-73 0c-13,0 -25,4 -34,14 -5,4 -8,9 -11,15 -2,6 -3,13 -3,19l0 145c0,14 5,26 14,35 5,4 10,8 15,10 7,3 14,4 19,4l73 0c7,0 12,2 17,7 5,5 7,11 7,17 0,5 -2,11 -6,16 -4,5 -10,8 -18,8zm289 0l-72 0c-26,0 -49,-9 -68,-28 -19,-19 -29,-42 -29,-69l0 -145c0,-26 10,-49 29,-68 19,-19 41,-28 68,-28l72 0c7,0 13,2 18,7 4,5 7,11 7,17 0,5 -2,11 -7,16 -4,5 -10,8 -18,8l-72 0c-14,0 -25,4 -35,14 -4,4 -8,9 -10,15 -2,6 -4,13 -4,19l0 145c0,14 5,26 14,35 5,4 10,8 16,10 7,3 13,4 19,4l72 0c7,0 13,2 18,7 4,5 7,11 7,17 0,5 -2,11 -7,16 -4,5 -10,8 -18,8zm362 -24c0,16 -8,24 -24,24l-121 0c-26,0 -48,-9 -67,-28 -20,-19 -29,-42 -29,-69l0 -217c0,-6 2,-12 7,-18 5,-4 10,-6 17,-6 6,0 12,2 16,6 5,4 8,10 8,18l0 217c0,14 4,26 14,35 4,4 10,8 15,10 7,3 13,4 19,4l97 0 0 -266c0,-6 2,-12 7,-18 5,-4 11,-6 17,-6 6,0 12,2 17,6 5,4 7,10 7,18l0 290zm290 -169l0 -97 -97 0c-14,0 -26,5 -36,14 -9,10 -13,21 -13,34 0,13 5,24 13,34 8,10 20,15 36,15l97 0zm-60 48l-89 134c-2,3 -5,6 -10,8l-10 3c-5,0 -11,-3 -17,-7 -5,-5 -8,-11 -8,-18 0,-4 2,-8 4,-13l72 -108c-23,-4 -42,-15 -55,-34 -14,-19 -21,-39 -21,-62 0,-25 8,-48 24,-66 19,-20 43,-30 73,-30l121 0c16,0 24,8 24,24l0 290c0,7 -3,13 -7,18 -4,4 -10,6 -17,6 -7,0 -12,-2 -17,-6 -5,-4 -7,-10 -7,-18l0 -121 -60 0zm-11301 675l145 0c13,0 25,-4 34,-13 10,-9 14,-21 14,-35l0 -96c0,-14 -4,-26 -13,-35 -9,-9 -21,-14 -35,-14l-145 0 0 193zm0 48l0 170c0,7 -2,13 -7,18 -4,4 -10,6 -17,6 -6,0 -12,-2 -17,-6 -5,-4 -7,-10 -7,-18l0 -435c0,-16 8,-24 24,-24l169 0c27,0 49,10 68,28 19,19 28,42 28,69l0 96c0,27 -9,49 -28,68 -19,19 -42,28 -68,28l-145 0zm579 88c0,28 -10,53 -31,74 -20,21 -46,32 -75,32l-29 0c-29,0 -54,-10 -75,-31 -21,-20 -31,-46 -31,-75l0 -126c0,-28 10,-53 31,-74 20,-22 46,-32 75,-32l29 0c29,0 53,10 75,31 21,20 31,45 31,75l0 126zm-48 0l0 -126c0,-16 -6,-30 -17,-41 -11,-11 -25,-17 -41,-17l-29 0c-16,0 -30,5 -41,17 -12,11 -17,25 -17,41l0 126c0,16 5,29 17,41 11,11 25,17 41,17l29 0c16,0 29,-6 41,-17 11,-11 17,-25 17,-41zm313 106l-72 0c-26,0 -49,-9 -68,-28 -19,-19 -29,-42 -29,-69l0 -145c0,-26 10,-49 29,-68 18,-19 41,-28 68,-28l72 0c7,0 13,2 17,7 5,5 8,11 8,17 0,5 -2,11 -7,16 -4,5 -10,8 -18,8l-72 0c-14,0 -25,4 -35,14 -5,4 -8,9 -10,15 -3,6 -4,13 -4,19l0 145c0,14 5,26 14,35 5,4 10,8 16,10 7,3 13,4 19,4l72 0c7,0 13,2 17,7 5,5 8,11 8,17 0,5 -2,11 -7,16 -4,5 -10,8 -18,8zm290 0l-73 0c-26,0 -48,-9 -67,-28 -20,-19 -29,-42 -29,-69l0 -145c0,-26 9,-49 28,-68 19,-19 42,-28 68,-28l73 0c6,0 12,2 17,7 5,5 7,11 7,17 0,5 -2,11 -6,16 -4,5 -10,8 -18,8l-73 0c-13,0 -25,4 -34,14 -5,4 -9,9 -11,15 -2,6 -3,13 -3,19l0 145c0,14 4,26 14,35 4,4 10,8 15,10 7,3 13,4 19,4l73 0c6,0 12,2 17,7 5,5 7,11 7,17 0,5 -2,11 -6,16 -4,5 -10,8 -18,8zm361 -24c0,16 -8,24 -24,24l-120 0c-26,0 -49,-9 -68,-28 -19,-19 -29,-42 -29,-69l0 -217c0,-6 2,-12 7,-18 5,-4 11,-6 17,-6 6,0 12,2 17,6 5,4 7,10 7,18l0 217c0,14 5,26 14,35 5,4 10,8 16,10 6,3 13,4 19,4l96 0 0 -266c0,-6 3,-12 8,-18 4,-4 10,-6 16,-6 7,0 12,2 17,6 5,4 7,10 7,18l0 290zm266 -411l-97 0c-7,0 -13,-2 -18,-6 -4,-6 -6,-11 -6,-18 0,-5 2,-11 6,-16 4,-5 10,-8 18,-8l97 0c6,0 12,3 17,8 4,4 7,10 7,16 0,6 -2,11 -6,16 -4,6 -10,8 -18,8zm72 411c0,16 -8,24 -24,24l-121 0c-26,0 -48,-9 -67,-28 -20,-19 -29,-42 -29,-69l0 -217c0,-6 2,-12 7,-18 5,-4 10,-6 17,-6 6,0 12,2 16,6 5,4 8,10 8,18l0 217c0,14 4,26 14,35 4,4 10,8 15,10 7,3 13,4 19,4l97 0 0 -266c0,-6 2,-12 7,-18 5,-4 11,-6 17,-6 6,0 12,2 17,6 5,4 7,10 7,18l0 290zm265 24l-72 0c-26,0 -49,-9 -68,-28 -19,-19 -29,-42 -29,-69l0 -145c0,-26 10,-49 29,-68 19,-19 41,-28 68,-28l72 0c7,0 13,2 18,7 4,5 7,11 7,17 0,5 -2,11 -7,16 -4,5 -10,8 -18,8l-72 0c-14,0 -25,4 -35,14 -4,4 -8,9 -10,15 -2,6 -4,13 -4,19l0 145c0,14 5,26 14,35 5,4 10,8 16,10 7,3 13,4 19,4l72 0c7,0 13,2 18,7 4,5 7,11 7,17 0,5 -2,11 -7,16 -4,5 -10,8 -18,8zm218 -158l-54 57 0 77c0,7 -2,13 -7,18 -4,4 -10,6 -17,6 -7,0 -12,-2 -17,-6 -5,-4 -7,-10 -7,-18l0 -290c0,-6 2,-12 7,-18 5,-4 10,-6 17,-6 6,0 12,2 16,6 5,4 8,10 8,18l0 143 153 -161c4,-5 9,-7 15,-7 5,0 11,2 17,7 5,5 8,11 8,19 0,6 -3,12 -8,18l-97 102 99 153c4,7 6,12 6,16 0,7 -3,13 -8,17 -5,5 -11,8 -17,8 -7,0 -12,-4 -17,-10l-97 -149zm457 52c0,28 -10,53 -31,74 -20,21 -45,32 -75,32l-29 0c-29,0 -54,-10 -75,-31 -21,-20 -31,-46 -31,-75l0 -126c0,-28 10,-53 31,-74 21,-22 46,-32 75,-32l29 0c29,0 54,10 75,31 21,20 31,45 31,75l0 126zm-48 0l0 -126c0,-16 -5,-30 -17,-41 -11,-11 -25,-17 -41,-17l-29 0c-16,0 -30,5 -41,17 -11,11 -17,25 -17,41l0 126c0,16 6,29 17,41 11,11 25,17 41,17l29 0c16,0 29,-6 41,-17 11,-11 17,-25 17,-41zm313 -329l-96 0c-7,0 -13,-2 -18,-6 -4,-6 -6,-11 -6,-18 0,-5 2,-11 6,-16 4,-5 10,-8 18,-8l96 0c7,0 13,3 17,8 5,4 7,10 7,16 0,6 -2,11 -6,16 -4,6 -10,8 -18,8zm73 411c0,16 -8,24 -24,24l-121 0c-26,0 -48,-9 -68,-28 -19,-19 -28,-42 -28,-69l0 -217c0,-6 2,-12 7,-18 5,-4 10,-6 17,-6 6,0 11,2 16,6 5,4 8,10 8,18l0 217c0,14 4,26 13,35 5,4 10,8 16,10 7,3 13,4 19,4l97 0 0 -266c0,-6 2,-12 7,-18 5,-4 10,-6 17,-6 6,0 12,2 16,6 5,4 8,10 8,18l0 290zm602 -339l0 219 24 0c27,0 50,-10 69,-29 18,-19 28,-41 28,-68l0 -25c0,-26 -9,-48 -28,-68 -19,-19 -42,-29 -69,-29l-24 0zm-48 219l0 -219 -24 0c-26,0 -49,10 -68,28 -19,19 -28,42 -28,69l0 25c0,26 9,49 28,68 19,19 41,29 68,29l24 0zm0 48l-24 0c-40,0 -74,-14 -102,-42 -28,-28 -42,-63 -42,-103l0 -25c0,-39 14,-73 42,-102 28,-28 62,-43 102,-43l24 0 0 -48c0,-6 3,-12 7,-18 5,-4 11,-6 17,-6 6,0 12,2 17,6 5,4 7,10 7,18l0 48 24 0c40,0 74,14 102,43 13,13 24,29 31,46 8,17 12,36 12,56l0 25c0,39 -14,73 -42,102 -28,28 -63,43 -103,43l-24 0 0 72c0,7 -2,13 -7,18 -4,4 -10,6 -17,6 -6,0 -12,-2 -17,-6 -4,-4 -7,-10 -7,-18l0 -72zm362 -97l145 0 0 -49c0,-13 -4,-25 -13,-34 -10,-9 -21,-14 -35,-14l-49 0c-13,0 -25,4 -34,14 -5,4 -8,10 -11,16 -2,5 -3,12 -3,18l0 49zm0 48l0 48c0,14 4,26 14,35 5,4 10,8 15,10 7,3 13,4 19,4l121 0c7,0 12,2 17,7 5,5 7,11 7,17 0,5 -2,11 -6,16 -4,5 -10,8 -18,8l-121 0c-26,0 -48,-10 -68,-28 -19,-19 -28,-42 -28,-69l0 -145c0,-26 9,-48 28,-67 18,-20 41,-29 68,-29l49 0c26,0 48,9 68,28 19,19 28,42 28,68l0 73c0,16 -8,24 -24,24l-169 0zm483 -145l-97 0c-14,0 -25,4 -35,14 -4,4 -8,9 -10,15 -2,6 -4,13 -4,19l0 145c0,14 5,26 14,35 5,4 10,8 16,10 7,3 13,4 19,4l48 0c14,0 25,-5 35,-14 9,-9 14,-20 14,-35l0 -193zm0 -48l0 -48c0,-14 -5,-26 -14,-35 -9,-9 -21,-14 -34,-14l-97 0c-8,0 -14,-2 -18,-6 -4,-6 -6,-11 -6,-18 0,-5 2,-11 6,-16 4,-5 10,-8 18,-8l96 0c27,0 50,10 69,28 18,19 28,42 28,69l0 289c0,27 -10,49 -28,68 -19,19 -42,29 -69,29l-48 0c-26,0 -49,-9 -68,-28 -19,-19 -28,-42 -28,-69l0 -145c0,-26 9,-49 28,-68 19,-19 41,-28 68,-28l97 0zm192 145l145 0 0 -49c0,-13 -4,-25 -13,-34 -9,-9 -21,-14 -35,-14l-48 0c-14,0 -26,4 -35,14 -5,4 -8,10 -10,16 -3,5 -4,12 -4,18l0 49zm0 48l0 48c0,14 5,26 14,35 5,4 10,8 15,10 7,3 14,4 19,4l121 0c7,0 13,2 17,7 5,5 7,11 7,17 0,5 -2,11 -6,16 -4,5 -10,8 -18,8l-120 0c-27,0 -49,-10 -68,-28 -19,-19 -29,-42 -29,-69l0 -145c0,-26 9,-48 28,-67 19,-20 42,-29 69,-29l48 0c26,0 49,9 68,28 19,19 28,42 28,68l0 73c0,16 -8,24 -24,24l-169 0zm338 97l97 0c13,0 24,-5 34,-14 9,-9 14,-20 14,-35l0 -145c0,-13 -5,-25 -14,-34 -9,-9 -20,-14 -34,-14l-97 0 0 242zm0 48l0 120c0,7 -3,13 -8,17 -5,5 -10,7 -16,7 -6,0 -11,-2 -16,-6 -6,-4 -8,-10 -8,-18l0 -434c0,-16 8,-24 24,-24l120 0c27,0 49,9 68,28 20,19 29,41 29,68l0 145c0,27 -9,49 -28,68 -19,19 -42,29 -69,29l-96 0zm483 -97l0 -193 -97 0c-14,0 -25,4 -35,14 -4,4 -8,9 -10,15 -3,6 -4,13 -4,19l0 145c0,14 5,26 14,35 5,4 10,8 16,10 7,3 13,4 19,4l48 0c14,0 25,-5 34,-14 10,-9 15,-20 15,-35zm23 65c-7,9 -18,17 -32,23 -13,6 -26,9 -40,9l-48 0c-26,0 -49,-9 -68,-28 -19,-19 -29,-42 -29,-69l0 -145c0,-26 10,-49 29,-68 18,-19 41,-28 68,-28l121 0c16,0 24,8 24,24l0 217c0,9 3,19 9,29 5,9 13,16 24,21 10,4 15,12 15,22 0,7 -2,13 -7,18 -4,4 -10,7 -17,7 -3,0 -7,-1 -10,-3 -16,-6 -29,-16 -39,-29zm314 -16l0 -266c0,-6 3,-12 7,-18 5,-4 11,-6 17,-6 6,0 12,2 17,6 5,4 7,10 7,18l0 266 24 0c16,0 24,8 24,24l0 43c0,7 -2,13 -7,17 -5,5 -11,8 -17,8 -5,0 -11,-2 -16,-7 -5,-4 -8,-10 -8,-18l0 -19 -145 0c-26,0 -48,-10 -67,-28 -20,-19 -29,-42 -29,-69l0 -217c0,-6 2,-12 7,-18 5,-4 11,-6 17,-6 6,0 12,2 17,6 4,4 7,10 7,18l0 217c0,14 5,26 14,35 5,4 10,8 15,10 7,3 14,4 19,4l97 0zm386 24c0,16 -8,24 -24,24l-121 0c-26,0 -48,-9 -68,-28 -19,-19 -28,-42 -28,-69l0 -217c0,-6 2,-12 7,-18 5,-4 10,-6 17,-6 6,0 11,2 16,6 5,4 8,10 8,18l0 217c0,14 4,26 13,35 5,4 10,8 16,10 7,3 13,4 19,4l97 0 0 -266c0,-6 2,-12 7,-18 5,-4 11,-6 17,-6 6,0 12,2 16,6 5,4 8,10 8,18l0 290zm337 0c0,16 -8,24 -24,24l-120 0c-26,0 -49,-9 -68,-28 -19,-19 -29,-42 -29,-69l0 -217c0,-6 3,-12 7,-18 5,-4 11,-6 17,-6 6,0 12,2 17,6 5,4 7,10 7,18l0 217c0,14 5,26 14,35 5,4 10,8 16,10 6,3 13,4 19,4l96 0 0 -266c0,-6 3,-12 8,-18 4,-4 10,-6 16,-6 7,0 12,2 17,6 5,4 7,10 7,18l0 290z"/>
   </g>
   <g>
    <path class="fil3 str0" d="M6357 5518c0,16 -8,24 -24,24l-121 0c-26,0 -48,-9 -67,-28 -19,-18 -29,-41 -29,-68l0 -217c0,-7 2,-13 7,-18 5,-4 11,-6 17,-6 6,0 12,2 16,5 5,5 8,11 8,19l0 217c0,14 4,25 14,35 5,4 10,7 15,10 7,2 14,3 19,3l97 0 0 -265c0,-7 3,-13 7,-18 5,-4 11,-6 17,-6 6,0 12,2 17,5 5,5 7,11 7,19l0 289zm224 -121l-31 0c-7,0 -13,-2 -18,-7 -4,-5 -6,-10 -6,-17 0,-6 2,-11 7,-16 4,-5 10,-8 17,-8l25 0c14,0 26,-5 35,-15 9,-9 13,-20 13,-33 0,-14 -4,-25 -12,-34 -4,-4 -9,-8 -15,-10 -6,-3 -13,-5 -21,-5l-25 0c-22,0 -41,7 -58,20 -4,3 -9,5 -14,6 -5,0 -11,-3 -17,-8 -5,-5 -7,-11 -7,-17 0,-8 3,-14 10,-19 24,-20 53,-29 86,-29l24 0c31,0 55,9 73,29 16,19 24,41 24,67 0,8 -1,15 -2,21 -1,6 -3,12 -6,19 -4,11 -12,22 -23,32 10,9 17,20 23,33l6 20c1,6 2,13 2,20 0,27 -8,49 -24,66 -17,20 -42,30 -73,30l-24 0c-32,0 -61,-9 -86,-28 -7,-5 -10,-12 -10,-20 0,-5 2,-11 7,-16 5,-6 10,-9 17,-9 4,0 9,2 14,6 17,13 37,19 58,19l25 0c14,0 26,-4 35,-14 8,-10 13,-22 13,-35 0,-12 -4,-23 -10,-31 -7,-9 -18,-14 -32,-17zm379 49l0 -145c0,-14 -4,-25 -13,-35 -9,-9 -21,-14 -35,-14l-49 0c-13,0 -25,5 -34,14 -5,5 -8,10 -11,16 -2,6 -3,12 -3,19l0 145c0,14 5,25 14,35 5,4 10,7 15,10 7,2 14,3 19,3l49 0c13,0 25,-4 34,-13 10,-9 14,-21 14,-35zm-78 -241l-108 -104c-6,-6 -8,-13 -8,-20 0,-5 2,-9 6,-14 4,-5 10,-7 19,-7l193 0c7,0 13,2 17,7 5,5 7,11 7,17 0,5 -2,11 -6,16 -4,5 -10,8 -18,8l-133 0 128 122 6 8c16,18 23,39 23,63l0 145c0,26 -9,49 -28,68 -19,19 -42,28 -68,28l-48 0c-26,0 -49,-9 -68,-28 -19,-18 -29,-41 -29,-68l0 -145c0,-27 9,-49 28,-68 19,-19 42,-28 68,-28l19 0zm464 313c0,16 -8,24 -24,24l-121 0c-26,0 -48,-9 -68,-28 -19,-18 -28,-41 -28,-68l0 -217c0,-7 2,-13 7,-18 5,-4 10,-6 17,-6 6,0 11,2 16,5 5,5 8,11 8,19l0 217c0,14 4,25 13,35 5,4 10,7 16,10 7,2 13,3 19,3l97 0 0 -265c0,-7 2,-13 7,-18 5,-4 11,-6 17,-6 6,0 12,2 17,5 4,5 7,11 7,19l0 289zm144 -24l97 0c14,0 25,-4 34,-13 10,-9 15,-21 15,-35l0 -145c0,-14 -5,-25 -14,-35 -9,-9 -21,-14 -35,-14l-97 0 0 242zm0 48l0 121c0,7 -2,12 -7,17 -5,5 -11,7 -17,7 -5,0 -11,-2 -16,-6 -5,-4 -8,-10 -8,-18l0 -434c0,-17 8,-24 24,-24l121 0c26,0 49,9 68,28 19,18 29,41 29,68l0 145c0,26 -10,49 -29,68 -19,19 -41,28 -68,28l-97 0zm483 -96l0 -194 -97 0c-13,0 -25,5 -34,14 -5,5 -8,10 -11,16 -2,6 -3,12 -3,19l0 145c0,14 4,25 14,35 5,4 10,7 15,10 7,2 14,3 19,3l49 0c13,0 25,-4 34,-13 9,-9 14,-21 14,-35zm24 65c-8,9 -19,16 -32,22 -14,6 -27,9 -40,9l-49 0c-26,0 -48,-9 -67,-28 -20,-18 -29,-41 -29,-68l0 -145c0,-27 9,-49 28,-68 19,-19 42,-28 68,-28l121 0c16,0 24,7 24,24l0 216c0,10 3,20 9,30 6,9 14,16 24,21 11,4 16,11 16,22 0,7 -3,13 -7,17 -4,5 -10,7 -17,7 -4,0 -7,0 -10,-2 -16,-6 -29,-16 -39,-29zm265 -259l-97 0 0 266c0,8 -2,14 -6,19 -5,3 -10,5 -18,5 -6,0 -12,-2 -16,-6 -5,-4 -8,-10 -8,-18l0 -289c0,-17 8,-24 25,-24l216 0c27,0 49,9 68,28 19,18 29,41 29,68l0 217c0,8 -3,14 -7,19 -4,3 -10,5 -17,5 -7,0 -12,-2 -17,-6 -5,-4 -7,-10 -7,-18l0 -217c0,-14 -5,-25 -14,-35 -9,-9 -21,-14 -35,-14l-48 0 0 266c0,8 -2,14 -7,19 -4,3 -10,5 -17,5 -6,0 -12,-2 -17,-6 -5,-4 -7,-10 -7,-18l0 -266zm337 98l146 0 0 -49c0,-13 -5,-25 -14,-34 -9,-10 -21,-15 -35,-15l-48 0c-14,0 -25,5 -35,14 -4,5 -8,10 -10,16 -2,6 -4,12 -4,19l0 49zm0 48l0 48c0,14 5,25 14,35 5,4 10,7 16,10 7,2 13,3 19,3l121 0c6,0 12,3 17,8 4,5 7,10 7,16 0,6 -2,11 -6,17 -4,5 -10,7 -18,7l-121 0c-26,0 -49,-9 -68,-28 -19,-18 -28,-41 -28,-68l0 -145c0,-26 9,-49 27,-68 19,-19 42,-28 69,-28l48 0c26,0 49,9 68,28 19,18 29,41 29,68l0 73c0,16 -8,24 -24,24l-170 0zm531 120c0,8 -2,14 -6,19 -5,3 -11,5 -18,5 -6,0 -12,-2 -16,-6 -5,-4 -8,-10 -8,-18l0 -266 -55 0 -90 274c-2,5 -5,9 -9,13 -1,0 -6,2 -13,3 -7,0 -12,-2 -17,-6 -6,-5 -8,-10 -8,-17l1 -8 96 -290c3,-11 11,-16 23,-16l96 0c16,0 24,7 24,24l0 289zm145 -121l0 97 97 0c14,0 26,-4 35,-14 9,-10 13,-21 13,-34 0,-14 -4,-25 -12,-34 -4,-4 -9,-8 -15,-11 -6,-2 -13,-4 -21,-4l-97 0zm0 -48l96 0c31,0 55,10 73,30 16,18 24,41 24,67 0,25 -8,47 -24,66 -18,20 -42,30 -73,30l-120 0c-16,0 -24,-8 -24,-24l0 -289c0,-7 2,-13 7,-18 5,-4 10,-6 17,-6 6,0 11,2 16,5 5,4 8,11 8,19l0 120zm483 0l0 -120c0,-7 2,-13 7,-18 5,-4 10,-6 17,-6 6,0 11,2 16,5 5,5 8,11 8,19l0 289c0,8 -3,14 -7,19 -5,3 -10,5 -17,5 -7,0 -12,-2 -17,-6 -5,-4 -7,-10 -7,-18l0 -121 -146 0 0 121c0,8 -2,14 -7,19 -4,3 -10,5 -17,5 -6,0 -12,-2 -16,-6 -5,-4 -8,-10 -8,-18l0 -289c0,-7 3,-13 8,-18 4,-4 10,-6 16,-6 6,0 12,2 17,5 5,4 7,11 7,19l0 120 146 0zm433 169c0,8 -2,14 -7,19 -4,3 -10,5 -17,5 -6,0 -12,-2 -17,-6 -4,-4 -7,-10 -7,-18l0 -289c0,-7 3,-13 7,-18 5,-4 11,-6 17,-6 6,0 12,2 17,5 5,5 7,11 7,19l0 289zm-241 -121l0 97 48 0c15,0 27,-4 35,-14 9,-10 14,-21 14,-34 0,-14 -4,-25 -12,-34 -4,-4 -9,-8 -15,-11 -7,-2 -14,-4 -22,-4l-48 0zm0 -48l48 0c30,0 55,10 72,30 17,18 25,41 25,67 0,25 -8,47 -24,66 -18,20 -43,30 -73,30l-72 0c-16,0 -24,-8 -24,-24l0 -289c0,-7 2,-13 7,-18 5,-4 11,-6 17,-6 6,0 12,2 17,5 4,4 7,11 7,19l0 120zm386 1l145 0 0 -49c0,-13 -4,-25 -14,-34 -9,-10 -20,-15 -34,-15l-49 0c-13,0 -25,5 -34,14 -5,5 -8,10 -11,16 -2,6 -3,12 -3,19l0 49zm0 48l0 48c0,14 4,25 13,35 5,4 11,7 16,10 7,2 13,3 19,3l121 0c7,0 12,3 17,8 5,5 7,10 7,16 0,6 -2,11 -6,17 -4,5 -10,7 -18,7l-121 0c-26,0 -48,-9 -68,-28 -19,-18 -28,-41 -28,-68l0 -145c0,-26 9,-49 28,-68 18,-19 41,-28 68,-28l49 0c26,0 48,9 67,28 20,18 29,41 29,68l0 73c0,16 -8,24 -24,24l-169 0zm676 -13l-54 56 0 77c0,8 -2,14 -7,19 -4,3 -10,5 -17,5 -7,0 -12,-2 -17,-6 -5,-4 -7,-10 -7,-18l0 -289c0,-7 2,-13 7,-18 5,-4 10,-6 17,-6 6,0 12,2 16,6 5,4 8,10 8,18l0 142 153 -160c4,-5 9,-7 15,-7 5,0 11,2 17,7 5,5 8,11 8,18 0,7 -3,13 -8,18l-97 102 99 154c4,6 6,12 6,16 0,7 -3,12 -8,17 -5,5 -11,7 -17,7 -7,0 -12,-3 -17,-9l-97 -149zm457 51c0,29 -10,54 -31,75 -20,21 -45,31 -75,31l-29 0c-29,0 -54,-10 -75,-30 -21,-21 -31,-46 -31,-76l0 -125c0,-29 10,-53 31,-75 21,-21 46,-31 75,-31l29 0c29,0 54,10 75,30 21,21 31,46 31,76l0 125zm-48 0l0 -125c0,-16 -5,-30 -17,-41 -11,-12 -24,-18 -41,-18l-29 0c-16,0 -30,6 -41,17 -11,12 -17,25 -17,42l0 125c0,16 6,30 17,41 11,12 25,17 41,17l29 0c16,0 29,-5 41,-16 11,-11 17,-25 17,-42zm434 82l0 -289c0,-9 -2,-16 -6,-21 -5,-5 -10,-7 -16,-7 -7,0 -14,5 -22,14l-101 141 -101 -141c-6,-9 -14,-14 -22,-14 -6,0 -11,2 -16,7 -3,6 -5,12 -5,21l0 289c0,8 2,14 6,19 5,3 10,5 18,5 5,0 11,-2 16,-6 5,-4 8,-10 8,-18l0 -214 77 108c6,8 12,13 19,13 6,0 13,-5 20,-13l77 -108 0 214c0,8 2,14 7,19 4,3 10,5 17,5 6,0 11,-2 16,-6 5,-4 8,-10 8,-18zm338 0c0,16 -8,24 -24,24l-121 0c-26,0 -49,-9 -68,-28 -19,-18 -29,-41 -29,-68l0 -217c0,-7 3,-13 8,-18 4,-4 10,-6 16,-6 6,0 12,2 17,5 5,5 7,11 7,19l0 217c0,14 5,25 14,35 5,4 10,7 16,10 7,2 13,3 19,3l97 0 0 -265c0,-7 2,-13 7,-18 5,-4 10,-6 17,-6 6,0 11,2 16,5 5,5 8,11 8,19l0 289zm265 24l-72 0c-26,0 -49,-9 -68,-28 -19,-18 -29,-41 -29,-68l0 -145c0,-27 9,-49 28,-68 19,-19 42,-28 69,-28l72 0c7,0 12,2 17,7 5,5 7,10 7,16 0,6 -2,11 -6,17 -4,5 -10,7 -18,7l-73 0c-13,0 -25,5 -34,14 -5,5 -8,10 -11,16 -2,6 -3,12 -3,19l0 145c0,14 5,25 14,35 5,4 10,7 15,10 7,2 14,3 19,3l73 0c7,0 12,3 17,8 5,5 7,10 7,16 0,6 -2,11 -6,17 -4,5 -10,7 -18,7zm289 0l-72 0c-26,0 -49,-9 -68,-28 -19,-18 -29,-41 -29,-68l0 -145c0,-27 10,-49 29,-68 19,-19 41,-28 68,-28l72 0c7,0 13,2 18,7 4,5 7,10 7,16 0,6 -2,11 -7,17 -4,5 -10,7 -18,7l-72 0c-14,0 -25,5 -35,14 -4,5 -8,10 -10,16 -2,6 -4,12 -4,19l0 145c0,14 5,25 14,35 5,4 10,7 16,10 7,2 13,3 19,3l72 0c7,0 13,3 18,8 4,5 7,10 7,16 0,6 -2,11 -7,17 -4,5 -10,7 -18,7zm362 -24c0,16 -8,24 -24,24l-121 0c-26,0 -48,-9 -67,-28 -20,-18 -29,-41 -29,-68l0 -217c0,-7 2,-13 7,-18 5,-4 10,-6 17,-6 6,0 12,2 16,5 5,5 8,11 8,19l0 217c0,14 4,25 14,35 4,4 10,7 15,10 7,2 13,3 19,3l97 0 0 -265c0,-7 2,-13 7,-18 5,-4 11,-6 17,-6 6,0 12,2 17,5 5,5 7,11 7,19l0 289zm338 0c0,16 -8,24 -24,24l-121 0c-26,0 -49,-9 -68,-28 -19,-18 -29,-41 -29,-68l0 -217c0,-7 3,-13 8,-18 4,-4 10,-6 16,-6 6,0 12,2 17,5 5,5 7,11 7,19l0 217c0,14 5,25 14,35 5,4 10,7 16,10 7,2 13,3 19,3l97 0 0 -265c0,-7 2,-13 7,-18 5,-4 10,-6 17,-6 6,0 11,2 16,5 5,5 8,11 8,19l0 289zm554 24l-72 0c-26,0 -49,-9 -68,-28 -19,-18 -29,-41 -29,-68l0 -145c0,-27 10,-49 29,-68 19,-19 41,-28 68,-28l72 0c7,0 13,2 18,7 4,5 7,10 7,16 0,6 -2,11 -7,17 -4,5 -10,7 -18,7l-72 0c-14,0 -25,5 -35,14 -4,5 -8,10 -10,16 -2,6 -4,12 -4,19l0 145c0,14 5,25 14,35 5,4 10,7 16,10 7,2 13,3 19,3l72 0c7,0 13,3 18,8 4,5 7,10 7,16 0,6 -2,11 -7,17 -4,5 -10,7 -18,7zm314 0l-97 0c-26,0 -48,-9 -67,-28 -20,-18 -29,-41 -29,-68l0 -217c0,-7 2,-13 7,-18 5,-4 10,-6 17,-6 6,0 12,2 16,5 5,5 8,11 8,19l0 217c0,14 4,25 14,35 4,4 10,7 15,10 7,2 13,3 19,3l97 0 0 -265c0,-7 2,-13 7,-18 5,-4 11,-6 17,-6 6,0 12,2 17,5 5,4 7,11 7,19l0 362c0,26 -9,48 -28,68 -19,19 -42,28 -68,28l-97 0c-6,0 -12,-2 -18,-7 -4,-5 -6,-11 -6,-17 0,-6 2,-12 6,-17 4,-5 10,-7 18,-7l97 0c13,0 25,-4 34,-14 9,-9 14,-20 14,-34l0 -49zm338 -96l0 -145c0,-14 -5,-25 -14,-35 -9,-9 -21,-14 -35,-14l-48 0c-14,0 -25,5 -35,14 -4,5 -8,10 -10,16 -2,6 -4,12 -4,19l0 145c0,14 5,25 14,35 5,4 10,7 16,10 7,2 13,3 19,3l48 0c14,0 25,-4 34,-13 10,-9 15,-21 15,-35zm-78 -241l-108 -104c-6,-6 -9,-13 -9,-20 0,-5 2,-9 6,-14 4,-5 11,-7 19,-7l194 0c6,0 12,2 17,7 4,5 7,11 7,17 0,5 -2,11 -6,16 -4,5 -10,8 -18,8l-133 0 128 122 6 8c15,18 23,39 23,63l0 145c0,26 -10,49 -29,68 -18,19 -41,28 -68,28l-48 0c-26,0 -49,-9 -68,-28 -19,-18 -29,-41 -29,-68l0 -145c0,-27 10,-49 29,-68 18,-19 41,-28 68,-28l19 0zm294 192l0 97 97 0c15,0 26,-4 35,-14 9,-10 13,-21 13,-34 0,-14 -4,-25 -11,-34 -4,-4 -9,-8 -16,-11 -6,-2 -13,-4 -21,-4l-97 0zm0 -48l97 0c30,0 54,10 72,30 16,18 24,41 24,67 0,25 -8,47 -23,66 -19,20 -43,30 -73,30l-121 0c-16,0 -24,-8 -24,-24l0 -266 -24 0c-7,0 -13,-2 -18,-6 -4,-5 -6,-11 -6,-18 0,-5 2,-11 6,-16 5,-5 10,-7 18,-7l48 0c16,0 24,7 24,24l0 120zm338 1l145 0 0 -49c0,-13 -5,-25 -14,-34 -9,-10 -20,-15 -34,-15l-49 0c-13,0 -25,5 -34,14 -5,5 -9,10 -11,16 -2,6 -3,12 -3,19l0 49zm0 48l0 48c0,14 4,25 13,35 5,4 11,7 16,10 7,2 13,3 19,3l121 0c7,0 12,3 17,8 5,5 7,10 7,16 0,6 -2,11 -6,17 -4,5 -10,7 -18,7l-121 0c-26,0 -49,-9 -68,-28 -19,-18 -28,-41 -28,-68l0 -145c0,-26 9,-49 28,-68 18,-19 41,-28 68,-28l48 0c27,0 49,9 68,28 19,18 29,41 29,68l0 73c0,16 -8,24 -24,24l-169 0zm387 -13l-55 56 0 77c0,8 -2,14 -6,19 -5,3 -11,5 -18,5 -6,0 -12,-2 -16,-6 -5,-4 -8,-10 -8,-18l0 -289c0,-7 3,-13 8,-18 4,-4 10,-6 16,-6 6,0 12,2 17,6 5,4 7,10 7,18l0 142 153 -160c5,-5 10,-7 16,-7 5,0 11,2 17,7 5,5 7,11 7,18 0,7 -2,13 -8,18l-96 102 99 154c3,6 5,12 5,16 0,7 -2,12 -8,17 -5,5 -10,7 -17,7 -6,0 -12,-3 -17,-9l-96 -149z"/>
    <path class="fil3 str0" d="M15979 5252l-97 0 0 266c0,8 -2,14 -7,19 -4,3 -10,5 -17,5 -6,0 -12,-2 -17,-6 -5,-4 -7,-10 -7,-18l0 -289c0,-17 8,-24 24,-24l217 0c26,0 49,9 68,28 19,18 28,41 28,68l0 217c0,8 -2,14 -7,19 -4,3 -10,5 -17,5 -6,0 -12,-2 -17,-6 -4,-4 -7,-10 -7,-18l0 -217c0,-14 -4,-25 -13,-35 -9,-9 -21,-14 -35,-14l-48 0 0 266c0,8 -3,14 -7,19 -5,3 -10,5 -17,5 -7,0 -12,-2 -17,-6 -5,-4 -7,-10 -7,-18l0 -266zm530 184c0,29 -10,54 -31,75 -20,21 -45,31 -75,31l-29 0c-29,0 -53,-10 -75,-30 -21,-21 -31,-46 -31,-76l0 -125c0,-29 10,-53 31,-75 21,-21 46,-31 75,-31l29 0c29,0 54,10 75,30 21,21 31,46 31,76l0 125zm-48 0l0 -125c0,-16 -5,-30 -17,-41 -11,-12 -24,-18 -41,-18l-29 0c-16,0 -29,6 -41,17 -11,12 -17,25 -17,42l0 125c0,16 6,30 17,41 11,12 25,17 41,17l29 0c16,0 29,-5 41,-16 12,-11 17,-25 17,-42zm338 10l0 -145c0,-13 -5,-25 -14,-34 -9,-9 -20,-14 -35,-14l-48 0c-14,0 -25,5 -35,14 -4,4 -8,10 -10,16 -2,5 -3,12 -3,18l0 145c0,14 4,25 13,35 5,4 10,7 16,10 7,2 13,3 19,3l48 0c14,0 25,-4 35,-13 9,-9 14,-20 14,-35zm-145 -224l19 -13 29 -20c9,-7 16,-13 20,-18 6,-8 9,-16 9,-24 0,-11 -4,-20 -12,-28 -7,-6 -17,-10 -27,-10 -10,0 -19,4 -27,10 -8,6 -11,16 -11,28l0 75zm96 -16c31,0 55,9 73,28 16,17 24,40 24,67l0 145c0,26 -10,49 -28,68 -19,19 -42,28 -69,28l-48 0c-26,0 -48,-9 -68,-27 -19,-19 -28,-42 -28,-69l0 -299c0,-27 9,-49 26,-65 17,-15 37,-22 61,-22 22,0 42,7 60,23 17,15 26,36 26,64 0,15 -2,27 -7,35 -4,8 -11,16 -22,24zm-10586 867l145 0c13,0 25,-4 34,-13 10,-9 14,-21 14,-35l0 -97c0,-13 -4,-25 -13,-34 -9,-9 -21,-14 -35,-14l-145 0 0 193zm0 48l0 169c0,8 -2,14 -7,19 -4,3 -10,5 -17,5 -6,0 -12,-2 -17,-6 -5,-4 -7,-10 -7,-18l0 -434c0,-16 8,-24 24,-24l169 0c27,0 49,9 68,28 19,19 28,42 28,68l0 97c0,26 -9,49 -28,68 -19,19 -42,28 -68,28l-145 0zm579 87c0,29 -10,54 -31,75 -20,21 -46,31 -75,31l-29 0c-29,0 -54,-10 -75,-30 -21,-21 -31,-46 -31,-76l0 -125c0,-29 10,-53 31,-75 20,-21 46,-31 75,-31l29 0c29,0 53,10 75,30 21,21 31,46 31,76l0 125zm-48 0l0 -125c0,-16 -6,-30 -17,-41 -11,-12 -25,-18 -41,-18l-29 0c-16,0 -30,6 -41,17 -12,12 -17,25 -17,42l0 125c0,16 5,30 17,41 11,12 25,17 41,17l29 0c16,0 29,-5 41,-16 11,-11 17,-25 17,-42zm313 106l-72 0c-26,0 -49,-9 -68,-28 -19,-18 -29,-41 -29,-68l0 -145c0,-27 10,-49 29,-68 18,-19 41,-28 68,-28l72 0c7,0 13,2 17,7 5,5 8,10 8,16 0,6 -2,11 -7,17 -4,5 -10,7 -18,7l-72 0c-14,0 -25,5 -35,14 -5,5 -8,10 -10,16 -3,6 -4,12 -4,19l0 145c0,14 5,25 14,35 5,4 10,7 16,10 7,2 13,3 19,3l72 0c7,0 13,3 17,8 5,5 8,10 8,16 0,6 -2,11 -7,17 -4,5 -10,7 -18,7zm290 0l-73 0c-26,0 -48,-9 -67,-28 -20,-18 -29,-41 -29,-68l0 -145c0,-27 9,-49 28,-68 19,-19 42,-28 68,-28l73 0c6,0 12,2 17,7 5,5 7,10 7,16 0,6 -2,11 -6,17 -4,5 -10,7 -18,7l-73 0c-13,0 -25,5 -34,14 -5,5 -9,10 -11,16 -2,6 -3,12 -3,19l0 145c0,14 4,25 14,35 4,4 10,7 15,10 7,2 13,3 19,3l73 0c6,0 12,3 17,8 5,5 7,10 7,16 0,6 -2,11 -6,17 -4,5 -10,7 -18,7zm361 -24c0,16 -8,24 -24,24l-120 0c-26,0 -49,-9 -68,-28 -19,-18 -29,-41 -29,-68l0 -217c0,-7 2,-13 7,-18 5,-4 11,-6 17,-6 6,0 12,2 17,5 5,5 7,11 7,19l0 217c0,14 5,25 14,35 5,4 10,7 16,10 6,2 13,3 19,3l96 0 0 -265c0,-7 3,-13 8,-18 4,-4 10,-6 16,-6 7,0 12,2 17,5 5,5 7,11 7,19l0 289zm266 -410l-97 0c-7,0 -13,-2 -18,-7 -4,-5 -6,-11 -6,-17 0,-6 2,-11 6,-16 4,-6 10,-8 18,-8l97 0c6,0 12,2 17,7 4,5 7,11 7,17 0,5 -2,11 -6,16 -4,5 -10,8 -18,8zm72 410c0,16 -8,24 -24,24l-121 0c-26,0 -48,-9 -67,-27 -20,-19 -29,-42 -29,-69l0 -217c0,-7 2,-13 7,-18 5,-4 10,-6 17,-6 6,0 12,2 16,6 5,4 8,10 8,18l0 217c0,14 4,25 14,35 4,4 10,7 15,10 7,2 13,3 19,3l97 0 0 -265c0,-7 2,-12 7,-18 5,-4 11,-6 17,-6 6,0 12,2 17,6 5,4 7,10 7,18l0 289zm265 24l-72 0c-26,0 -49,-9 -68,-28 -19,-18 -29,-41 -29,-68l0 -145c0,-27 10,-49 29,-68 19,-19 41,-28 68,-28l72 0c7,0 13,2 18,7 4,5 7,10 7,16 0,6 -2,11 -7,17 -4,5 -10,7 -18,7l-72 0c-14,0 -25,5 -35,14 -4,5 -8,10 -10,16 -2,6 -4,12 -4,19l0 145c0,14 5,25 14,35 5,4 10,7 16,10 7,2 13,3 19,3l72 0c7,0 13,3 18,8 4,5 7,10 7,16 0,6 -2,11 -7,17 -4,5 -10,7 -18,7zm218 -157l-54 56 0 77c0,8 -2,14 -7,19 -4,3 -10,5 -17,5 -7,0 -12,-2 -17,-6 -5,-4 -7,-10 -7,-18l0 -289c0,-7 2,-13 7,-18 5,-4 10,-6 17,-6 6,0 12,2 16,6 5,4 8,10 8,18l0 142 153 -160c4,-5 9,-7 15,-7 5,0 11,2 17,7 5,5 8,11 8,18 0,7 -3,13 -8,18l-97 102 99 154c4,6 6,12 6,16 0,7 -3,12 -8,17 -5,5 -11,7 -17,7 -7,0 -12,-3 -17,-9l-97 -149zm457 51c0,29 -10,54 -31,75 -20,21 -45,31 -75,31l-29 0c-29,0 -54,-10 -75,-30 -21,-21 -31,-46 -31,-76l0 -125c0,-29 10,-53 31,-75 21,-21 46,-31 75,-31l29 0c29,0 54,10 75,30 21,21 31,46 31,76l0 125zm-48 0l0 -125c0,-16 -5,-30 -17,-41 -11,-12 -25,-18 -41,-18l-29 0c-16,0 -30,6 -41,17 -11,12 -17,25 -17,42l0 125c0,16 6,30 17,41 11,12 25,17 41,17l29 0c16,0 29,-5 41,-16 11,-11 17,-25 17,-42zm313 -328l-96 0c-7,0 -13,-2 -18,-7 -4,-5 -6,-11 -6,-17 0,-6 2,-11 6,-16 4,-6 10,-8 18,-8l96 0c7,0 13,2 17,7 5,5 7,11 7,17 0,5 -2,11 -6,16 -4,5 -10,8 -18,8zm73 410c0,16 -8,24 -24,24l-121 0c-26,0 -48,-9 -68,-27 -19,-19 -28,-42 -28,-69l0 -217c0,-7 2,-13 7,-18 5,-4 10,-6 17,-6 6,0 11,2 16,6 5,4 8,10 8,18l0 217c0,14 4,25 13,35 5,4 10,7 16,10 7,2 13,3 19,3l97 0 0 -265c0,-7 2,-12 7,-18 5,-4 10,-6 17,-6 6,0 12,2 16,6 5,4 8,10 8,18l0 289zm602 -338l0 219 24 0c27,0 50,-10 69,-29 18,-19 28,-42 28,-69l0 -24c0,-26 -9,-49 -28,-68 -19,-19 -42,-29 -69,-29l-24 0zm-48 219l0 -219 -24 0c-26,0 -49,9 -68,28 -19,19 -28,42 -28,69l0 24c0,27 9,50 28,69 19,19 41,29 68,29l24 0zm0 48l-24 0c-40,0 -74,-15 -102,-43 -28,-28 -42,-62 -42,-103l0 -24c0,-39 14,-73 42,-102 28,-29 62,-43 102,-43l24 0 0 -48c0,-6 3,-12 7,-18 5,-4 11,-6 17,-6 6,0 12,2 17,6 5,4 7,10 7,18l0 48 24 0c40,0 74,14 102,42 13,14 24,30 31,47 8,17 12,36 12,56l0 24c0,39 -14,73 -42,102 -28,29 -63,44 -103,44l-24 0 0 71c0,8 -2,14 -7,19 -4,3 -10,5 -17,5 -6,0 -12,-2 -17,-6 -4,-4 -7,-10 -7,-18l0 -71zm362 -97l145 0 0 -49c0,-13 -4,-25 -13,-34 -10,-10 -21,-15 -35,-15l-49 0c-13,0 -25,5 -34,14 -5,5 -8,10 -11,16 -2,6 -3,12 -3,19l0 49zm0 48l0 48c0,14 4,25 14,35 5,4 10,7 15,10 7,2 13,3 19,3l121 0c7,0 12,3 17,8 5,5 7,10 7,16 0,6 -2,11 -6,17 -4,5 -10,7 -18,7l-121 0c-26,0 -48,-9 -68,-28 -19,-18 -28,-41 -28,-68l0 -145c0,-26 9,-49 28,-68 18,-19 41,-28 68,-28l49 0c26,0 48,9 68,28 19,18 28,41 28,68l0 73c0,16 -8,24 -24,24l-169 0zm483 -146l-97 0c-14,0 -25,5 -35,14 -4,5 -8,10 -10,16 -2,6 -4,12 -4,19l0 145c0,14 5,25 14,35 5,4 10,7 16,10 7,2 13,3 19,3l48 0c14,0 25,-4 35,-13 9,-9 14,-21 14,-35l0 -194zm0 -47l0 -49c0,-13 -5,-25 -14,-34 -9,-9 -21,-14 -34,-14l-97 0c-8,0 -14,-2 -18,-7 -4,-5 -6,-11 -6,-17 0,-6 2,-11 6,-16 4,-6 10,-8 18,-8l96 0c27,0 50,9 69,28 18,19 28,42 28,68l0 290c0,26 -10,49 -28,68 -19,19 -42,28 -69,28l-48 0c-26,0 -49,-9 -68,-28 -19,-18 -28,-41 -28,-68l0 -145c0,-27 9,-49 28,-68 19,-19 41,-28 68,-28l97 0zm192 145l145 0 0 -49c0,-13 -4,-25 -13,-34 -9,-10 -21,-15 -35,-15l-48 0c-14,0 -26,5 -35,14 -5,5 -8,10 -10,16 -3,6 -4,12 -4,19l0 49zm0 48l0 48c0,14 5,25 14,35 5,4 10,7 15,10 7,2 14,3 19,3l121 0c7,0 13,3 17,8 5,5 7,10 7,16 0,6 -2,11 -6,17 -4,5 -10,7 -18,7l-120 0c-27,0 -49,-9 -68,-28 -19,-18 -29,-41 -29,-68l0 -145c0,-26 9,-49 28,-68 19,-19 42,-28 69,-28l48 0c26,0 49,9 68,28 19,18 28,41 28,68l0 73c0,16 -8,24 -24,24l-169 0zm338 96l97 0c13,0 24,-4 34,-13 9,-9 14,-21 14,-35l0 -145c0,-14 -5,-25 -14,-35 -9,-9 -20,-14 -34,-14l-97 0 0 242zm0 48l0 121c0,7 -3,12 -8,17 -5,5 -10,7 -16,7 -6,0 -11,-2 -16,-6 -6,-4 -8,-10 -8,-18l0 -434c0,-17 8,-24 24,-24l120 0c27,0 49,9 68,28 20,18 29,41 29,68l0 145c0,26 -9,49 -28,68 -19,19 -42,28 -69,28l-96 0zm483 -96l0 -194 -97 0c-14,0 -25,5 -35,14 -4,5 -8,10 -10,16 -3,6 -4,12 -4,19l0 145c0,14 5,25 14,35 5,4 10,7 16,10 7,2 13,3 19,3l48 0c14,0 25,-4 34,-13 10,-9 15,-21 15,-35zm23 65c-7,9 -18,16 -32,22 -13,6 -26,9 -40,9l-48 0c-26,0 -49,-9 -68,-28 -19,-18 -29,-41 -29,-68l0 -145c0,-27 10,-49 29,-68 18,-19 41,-28 68,-28l121 0c16,0 24,7 24,24l0 216c0,10 3,20 9,30 5,9 13,16 24,21 10,4 15,11 15,22 0,7 -2,13 -7,17 -4,5 -10,7 -17,7 -3,0 -7,0 -10,-2 -16,-6 -29,-16 -39,-29zm314 -17l0 -265c0,-7 3,-13 7,-18 5,-4 11,-6 17,-6 6,0 12,2 17,5 5,5 7,11 7,19l0 265 24 0c16,0 24,8 24,25l0 43c0,7 -2,12 -7,17 -5,5 -11,7 -17,7 -5,0 -11,-2 -16,-6 -5,-4 -8,-10 -8,-18l0 -20 -145 0c-26,0 -48,-9 -67,-28 -20,-18 -29,-41 -29,-68l0 -217c0,-7 2,-13 7,-18 5,-4 11,-6 17,-6 6,0 12,2 17,5 4,5 7,11 7,19l0 217c0,14 5,25 14,35 5,4 10,7 15,10 7,2 14,3 19,3l97 0zm386 24c0,16 -8,24 -24,24l-121 0c-26,0 -48,-9 -68,-28 -19,-18 -28,-41 -28,-68l0 -217c0,-7 2,-13 7,-18 5,-4 10,-6 17,-6 6,0 11,2 16,5 5,5 8,11 8,19l0 217c0,14 4,25 13,35 5,4 10,7 16,10 7,2 13,3 19,3l97 0 0 -265c0,-7 2,-13 7,-18 5,-4 11,-6 17,-6 6,0 12,2 16,5 5,5 8,11 8,19l0 289zm337 0c0,16 -8,24 -24,24l-120 0c-26,0 -49,-9 -68,-28 -19,-18 -29,-41 -29,-68l0 -217c0,-7 3,-13 7,-18 5,-4 11,-6 17,-6 6,0 12,2 17,5 5,5 7,11 7,19l0 217c0,14 5,25 14,35 5,4 10,7 16,10 6,2 13,3 19,3l96 0 0 -265c0,-7 3,-13 8,-18 4,-4 10,-6 16,-6 7,0 12,2 17,5 5,5 7,11 7,19l0 289z"/>
   </g>
   <g>
    <path class="fil1" d="M4422 15878l-2314 0 0 1889 2314 0 0 -1889zm-271 221l0 1447 -1773 0 0 -1447 1773 0z"/>
    <path class="fil2" d="M3243 17520l-963 -960 315 -210 597 595 1541 -2096 348 170 -1838 2501z"/>
   </g>
   <g>
    <path class="fil3 str0" d="M6357 8072c0,16 -8,24 -24,24l-121 0c-26,0 -48,-9 -67,-28 -19,-18 -29,-41 -29,-68l0 -218c0,-6 2,-12 7,-18 5,-4 11,-6 17,-6 6,0 12,2 16,6 5,4 8,10 8,18l0 218c0,13 4,25 14,34 5,5 10,8 15,11 7,2 14,3 19,3l97 0 0 -266c0,-6 3,-12 7,-18 5,-4 11,-6 17,-6 6,0 12,2 17,6 5,4 7,10 7,18l0 290zm224 -121l-31 0c-7,0 -13,-2 -18,-7 -4,-5 -6,-11 -6,-17 0,-6 2,-11 7,-16 4,-6 10,-8 17,-8l25 0c14,0 26,-5 35,-15 9,-10 13,-21 13,-33 0,-14 -4,-25 -12,-34 -4,-4 -9,-8 -15,-11 -6,-2 -13,-4 -21,-4l-25 0c-22,0 -41,7 -58,20 -4,3 -9,5 -14,5 -5,0 -11,-2 -17,-7 -5,-5 -7,-11 -7,-18 0,-7 3,-14 10,-19 24,-19 53,-29 86,-29l24 0c31,0 55,10 73,30 16,18 24,41 24,67 0,7 -1,14 -2,20 -1,7 -3,13 -6,19 -4,12 -12,23 -23,33 10,9 17,20 23,33l6 19c1,7 2,13 2,21 0,26 -8,48 -24,66 -17,20 -42,30 -73,30l-24 0c-32,0 -61,-9 -86,-29 -7,-5 -10,-11 -10,-19 0,-5 2,-11 7,-17 5,-5 10,-8 17,-8 4,0 9,2 14,6 17,13 37,19 58,19l25 0c14,0 26,-5 35,-15 8,-9 13,-21 13,-34 0,-12 -4,-23 -10,-31 -7,-9 -18,-15 -32,-17zm379 49l0 -145c0,-14 -4,-25 -13,-35 -9,-9 -21,-14 -35,-14l-49 0c-13,0 -25,5 -34,14 -5,5 -8,10 -11,16 -2,6 -3,12 -3,19l0 145c0,13 5,25 14,34 5,5 10,8 15,11 7,2 14,3 19,3l49 0c13,0 25,-4 34,-13 10,-9 14,-21 14,-35zm-78 -242l-108 -103c-6,-6 -8,-13 -8,-20 0,-5 2,-10 6,-14 4,-5 10,-7 19,-7l193 0c7,0 13,2 17,7 5,5 7,10 7,17 0,5 -2,10 -6,16 -4,5 -10,8 -18,8l-133 0 128 122 6 8c16,18 23,39 23,63l0 145c0,26 -9,49 -28,68 -19,19 -42,28 -68,28l-48 0c-26,0 -49,-9 -68,-28 -19,-18 -29,-41 -29,-68l0 -145c0,-27 9,-50 28,-69 19,-18 42,-28 68,-28l19 0zm464 314c0,16 -8,24 -24,24l-121 0c-26,0 -48,-9 -68,-28 -19,-18 -28,-41 -28,-68l0 -218c0,-6 2,-12 7,-18 5,-4 10,-6 17,-6 6,0 11,2 16,6 5,4 8,10 8,18l0 218c0,13 4,25 13,34 5,5 10,8 16,11 7,2 13,3 19,3l97 0 0 -266c0,-6 2,-12 7,-18 5,-4 11,-6 17,-6 6,0 12,2 17,6 4,4 7,10 7,18l0 290zm144 -24l97 0c14,0 25,-4 34,-13 10,-9 15,-21 15,-35l0 -145c0,-14 -5,-25 -14,-35 -9,-9 -21,-14 -35,-14l-97 0 0 242zm0 48l0 121c0,6 -2,12 -7,17 -5,5 -11,7 -17,7 -5,0 -11,-2 -16,-6 -5,-4 -8,-10 -8,-18l0 -435c0,-16 8,-24 24,-24l121 0c26,0 49,10 68,28 19,19 29,42 29,69l0 145c0,26 -10,49 -29,68 -19,19 -41,28 -68,28l-97 0zm483 -96l0 -194 -97 0c-13,0 -25,5 -34,14 -5,5 -8,10 -11,16 -2,6 -3,12 -3,19l0 145c0,13 4,25 14,34 5,5 10,8 15,11 7,2 14,3 19,3l49 0c13,0 25,-4 34,-13 9,-9 14,-21 14,-35zm24 64c-8,9 -19,17 -32,23 -14,6 -27,9 -40,9l-49 0c-26,0 -48,-9 -67,-28 -20,-18 -29,-41 -29,-68l0 -145c0,-27 9,-50 28,-69 19,-18 42,-28 68,-28l121 0c16,0 24,8 24,24l0 217c0,10 3,20 9,30 6,9 14,16 24,21 11,4 16,11 16,21 0,8 -3,13 -7,18 -4,5 -10,7 -17,7 -4,0 -7,-1 -10,-2 -16,-6 -29,-16 -39,-30zm265 -258l-97 0 0 266c0,8 -2,14 -6,18 -5,4 -10,6 -18,6 -6,0 -12,-2 -16,-6 -5,-4 -8,-10 -8,-18l0 -290c0,-16 8,-24 25,-24l216 0c27,0 49,10 68,28 19,19 29,42 29,69l0 217c0,8 -3,14 -7,18 -4,4 -10,6 -17,6 -7,0 -12,-2 -17,-6 -5,-4 -7,-10 -7,-18l0 -217c0,-14 -5,-25 -14,-35 -9,-9 -21,-14 -35,-14l-48 0 0 266c0,8 -2,14 -7,18 -4,4 -10,6 -17,6 -6,0 -12,-2 -17,-6 -5,-4 -7,-10 -7,-18l0 -266zm337 98l146 0 0 -49c0,-14 -5,-25 -14,-35 -9,-9 -21,-14 -35,-14l-48 0c-14,0 -25,5 -35,14 -4,5 -8,10 -10,16 -2,6 -4,12 -4,19l0 49zm0 48l0 48c0,13 5,25 14,34 5,5 10,8 16,11 7,2 13,3 19,3l121 0c6,0 12,3 17,8 4,4 7,10 7,16 0,6 -2,11 -6,16 -4,6 -10,8 -18,8l-121 0c-26,0 -49,-9 -68,-28 -19,-19 -28,-41 -28,-68l0 -145c0,-26 9,-49 27,-68 19,-19 42,-29 69,-29l48 0c26,0 49,10 68,28 19,19 29,42 29,69l0 72c0,16 -8,25 -24,25l-170 0zm531 120c0,8 -2,14 -6,18 -5,4 -11,6 -18,6 -6,0 -12,-2 -16,-6 -5,-4 -8,-10 -8,-18l0 -266 -55 0 -90 274c-2,5 -5,9 -9,12 -1,1 -6,2 -13,4 -7,0 -12,-2 -17,-7 -6,-4 -8,-9 -8,-16l1 -9 96 -289c3,-11 11,-17 23,-17l96 0c16,0 24,8 24,24l0 290zm145 -121l0 97 97 0c14,0 26,-5 35,-15 9,-9 13,-21 13,-33 0,-14 -4,-25 -12,-34 -4,-5 -9,-8 -15,-11 -6,-3 -13,-4 -21,-4l-97 0zm0 -48l96 0c31,0 55,10 73,30 16,18 24,40 24,67 0,25 -8,47 -24,66 -18,20 -42,30 -73,30l-120 0c-16,0 -24,-8 -24,-24l0 -290c0,-6 2,-12 7,-18 5,-4 10,-6 17,-6 6,0 11,2 16,6 5,4 8,10 8,18l0 121zm483 0l0 -121c0,-6 2,-12 7,-18 5,-4 10,-6 17,-6 6,0 11,2 16,6 5,4 8,10 8,18l0 290c0,8 -3,14 -7,18 -5,4 -10,6 -17,6 -7,0 -12,-2 -17,-6 -5,-4 -7,-10 -7,-18l0 -121 -146 0 0 121c0,8 -2,14 -7,18 -4,4 -10,6 -17,6 -6,0 -12,-2 -16,-6 -5,-4 -8,-10 -8,-18l0 -290c0,-6 3,-12 8,-18 4,-4 10,-6 16,-6 6,0 12,2 17,6 5,4 7,10 7,18l0 121 146 0zm433 169c0,8 -2,14 -7,18 -4,4 -10,6 -17,6 -6,0 -12,-2 -17,-6 -4,-4 -7,-10 -7,-18l0 -290c0,-6 3,-12 7,-18 5,-4 11,-6 17,-6 6,0 12,2 17,6 5,4 7,10 7,18l0 290zm-241 -121l0 97 48 0c15,0 27,-5 35,-15 9,-9 14,-21 14,-33 0,-14 -4,-25 -12,-34 -4,-5 -9,-8 -15,-11 -7,-3 -14,-4 -22,-4l-48 0zm0 -48l48 0c30,0 55,10 72,30 17,18 25,40 25,67 0,25 -8,47 -24,66 -18,20 -43,30 -73,30l-72 0c-16,0 -24,-8 -24,-24l0 -290c0,-6 2,-12 7,-18 5,-4 11,-6 17,-6 6,0 12,2 17,6 4,4 7,10 7,18l0 121zm386 1l145 0 0 -49c0,-14 -4,-25 -14,-35 -9,-9 -20,-14 -34,-14l-49 0c-13,0 -25,5 -34,14 -5,5 -8,10 -11,16 -2,6 -3,12 -3,19l0 49zm0 48l0 48c0,13 4,25 13,34 5,5 11,8 16,11 7,2 13,3 19,3l121 0c7,0 12,3 17,8 5,4 7,10 7,16 0,6 -2,11 -6,16 -4,6 -10,8 -18,8l-121 0c-26,0 -48,-9 -68,-28 -19,-19 -28,-41 -28,-68l0 -145c0,-26 9,-49 28,-68 18,-19 41,-29 68,-29l49 0c26,0 48,10 67,28 20,19 29,42 29,69l0 72c0,16 -8,25 -24,25l-169 0zm676 -14l-54 57 0 77c0,8 -2,14 -7,18 -4,4 -10,6 -17,6 -7,0 -12,-2 -17,-6 -5,-4 -7,-10 -7,-18l0 -289c0,-7 2,-13 7,-18 5,-4 10,-6 17,-6 6,0 12,2 16,6 5,4 8,10 8,18l0 142 153 -160c4,-5 9,-7 15,-7 5,0 11,2 17,7 5,5 8,11 8,18 0,7 -3,13 -8,18l-97 102 99 153c4,7 6,12 6,17 0,7 -3,12 -8,17 -5,5 -11,7 -17,7 -7,0 -12,-3 -17,-9l-97 -150zm457 52c0,29 -10,54 -31,75 -20,21 -45,31 -75,31l-29 0c-29,0 -54,-10 -75,-30 -21,-21 -31,-46 -31,-76l0 -126c0,-28 10,-53 31,-74 21,-21 46,-32 75,-32l29 0c29,0 54,10 75,31 21,21 31,46 31,75l0 126zm-48 0l0 -126c0,-16 -5,-29 -17,-41 -11,-11 -24,-17 -41,-17l-29 0c-16,0 -30,6 -41,17 -11,11 -17,25 -17,41l0 126c0,16 6,30 17,41 11,11 25,17 41,17l29 0c16,0 29,-5 41,-16 11,-11 17,-25 17,-42zm434 82l0 -289c0,-9 -2,-16 -6,-21 -5,-5 -10,-7 -16,-7 -7,0 -14,4 -22,13l-101 142 -101 -142c-6,-9 -14,-13 -22,-13 -6,0 -11,2 -16,7 -3,5 -5,12 -5,21l0 289c0,8 2,14 6,18 5,4 10,6 18,6 5,0 11,-2 16,-6 5,-4 8,-10 8,-18l0 -214 77 108c6,8 12,12 19,12 6,0 13,-4 20,-12l77 -108 0 214c0,8 2,14 7,18 4,4 10,6 17,6 6,0 11,-2 16,-6 5,-4 8,-10 8,-18zm338 0c0,16 -8,24 -24,24l-121 0c-26,0 -49,-9 -68,-28 -19,-18 -29,-41 -29,-68l0 -218c0,-6 3,-12 8,-18 4,-4 10,-6 16,-6 6,0 12,2 17,6 5,4 7,10 7,18l0 218c0,13 5,25 14,34 5,5 10,8 16,11 7,2 13,3 19,3l97 0 0 -266c0,-6 2,-12 7,-18 5,-4 10,-6 17,-6 6,0 11,2 16,6 5,4 8,10 8,18l0 290zm265 24l-72 0c-26,0 -49,-9 -68,-28 -19,-18 -29,-41 -29,-68l0 -145c0,-27 9,-50 28,-69 19,-18 42,-28 69,-28l72 0c7,0 12,3 17,8 5,4 7,10 7,16 0,6 -2,11 -6,16 -4,6 -10,8 -18,8l-73 0c-13,0 -25,5 -34,14 -5,5 -8,10 -11,16 -2,6 -3,12 -3,19l0 145c0,13 5,25 14,34 5,5 10,8 15,11 7,2 14,3 19,3l73 0c7,0 12,3 17,8 5,4 7,10 7,16 0,6 -2,11 -6,16 -4,6 -10,8 -18,8zm289 0l-72 0c-26,0 -49,-9 -68,-28 -19,-18 -29,-41 -29,-68l0 -145c0,-27 10,-50 29,-69 19,-18 41,-28 68,-28l72 0c7,0 13,3 18,8 4,4 7,10 7,16 0,6 -2,11 -7,16 -4,6 -10,8 -18,8l-72 0c-14,0 -25,5 -35,14 -4,5 -8,10 -10,16 -2,6 -4,12 -4,19l0 145c0,13 5,25 14,34 5,5 10,8 16,11 7,2 13,3 19,3l72 0c7,0 13,3 18,8 4,4 7,10 7,16 0,6 -2,11 -7,16 -4,6 -10,8 -18,8zm362 -24c0,16 -8,24 -24,24l-121 0c-26,0 -48,-9 -67,-28 -20,-18 -29,-41 -29,-68l0 -218c0,-6 2,-12 7,-18 5,-4 10,-6 17,-6 6,0 12,2 16,6 5,4 8,10 8,18l0 218c0,13 4,25 14,34 4,5 10,8 15,11 7,2 13,3 19,3l97 0 0 -266c0,-6 2,-12 7,-18 5,-4 11,-6 17,-6 6,0 12,2 17,6 5,4 7,10 7,18l0 290zm338 0c0,16 -8,24 -24,24l-121 0c-26,0 -49,-9 -68,-28 -19,-18 -29,-41 -29,-68l0 -218c0,-6 3,-12 8,-18 4,-4 10,-6 16,-6 6,0 12,2 17,6 5,4 7,10 7,18l0 218c0,13 5,25 14,34 5,5 10,8 16,11 7,2 13,3 19,3l97 0 0 -266c0,-6 2,-12 7,-18 5,-4 10,-6 17,-6 6,0 11,2 16,6 5,4 8,10 8,18l0 290zm-7042 772l0 -289c0,-9 -2,-16 -6,-21 -4,-5 -9,-7 -15,-7 -7,0 -15,4 -23,13l-100 142 -101 -142c-7,-9 -14,-13 -23,-13 -5,0 -10,2 -15,7 -4,5 -6,12 -6,21l0 289c0,8 2,14 7,18 4,4 10,6 17,6 6,0 11,-2 16,-6 5,-4 8,-10 8,-18l0 -214 77 108c6,8 13,12 20,12 6,0 12,-4 19,-12l77 -108 0 214c0,8 2,14 7,18 4,4 10,6 17,6 6,0 11,-2 16,-6 6,-4 8,-10 8,-18zm290 24l-97 0c-26,0 -48,-9 -67,-28 -20,-18 -29,-41 -29,-68l0 -218c0,-6 2,-12 7,-18 5,-4 10,-6 17,-6 6,0 11,2 16,6 5,4 8,10 8,18l0 218c0,13 4,25 14,34 4,5 10,8 15,11 7,2 13,3 19,3l97 0 0 -266c0,-6 2,-12 7,-18 5,-4 11,-6 17,-6 6,0 12,2 17,6 5,4 7,10 7,18l0 362c0,27 -9,49 -28,68 -19,19 -42,29 -69,29l-96 0c-6,0 -12,-2 -18,-7 -4,-5 -6,-11 -6,-17 0,-6 2,-12 6,-17 4,-5 10,-7 18,-7l97 0c13,0 25,-5 34,-14 9,-9 14,-20 14,-34l0 -49zm338 -193l0 -121c0,-6 2,-12 7,-18 5,-4 10,-6 17,-6 6,0 11,2 16,6 5,4 8,10 8,18l0 290c0,8 -3,14 -7,18 -5,4 -10,6 -17,6 -7,0 -12,-2 -17,-6 -5,-4 -7,-10 -7,-18l0 -121 -146 0 0 121c0,8 -2,14 -6,18 -5,4 -11,6 -18,6 -6,0 -12,-2 -16,-6 -5,-4 -8,-10 -8,-18l0 -290c0,-6 3,-12 8,-18 4,-4 10,-6 16,-6 6,0 12,2 17,6 5,4 7,10 7,18l0 121 146 0zm385 169c0,16 -8,24 -24,24l-121 0c-25,0 -48,-9 -67,-28 -19,-18 -29,-41 -29,-68l0 -218c0,-6 2,-12 7,-18 5,-4 11,-6 17,-6 6,0 12,2 17,6 4,4 7,10 7,18l0 218c0,13 5,25 14,34 5,5 10,8 15,11 7,2 14,3 19,3l97 0 0 -266c0,-6 3,-12 7,-18 5,-4 11,-6 17,-6 6,0 12,2 17,6 5,4 7,10 7,18l0 290zm290 -24l0 -266c0,-6 2,-12 7,-18 5,-4 11,-6 17,-6 6,0 12,2 16,6 5,4 8,10 8,18l0 266 24 0c16,0 24,8 24,24l0 44c0,6 -3,12 -8,17 -4,5 -10,7 -16,7 -6,0 -11,-2 -16,-6 -6,-4 -8,-10 -8,-18l0 -20 -145 0c-26,0 -49,-9 -68,-28 -19,-19 -28,-41 -28,-68l0 -218c0,-6 2,-12 7,-18 5,-4 10,-6 17,-6 6,0 11,2 16,6 5,4 8,10 8,18l0 218c0,13 4,25 13,34 5,5 10,8 16,11 7,2 13,3 19,3l97 0zm385 24c0,16 -8,24 -24,24l-120 0c-26,0 -49,-9 -68,-28 -19,-18 -29,-41 -29,-68l0 -218c0,-6 3,-12 7,-18 5,-4 11,-6 17,-6 6,0 12,2 17,6 5,4 7,10 7,18l0 218c0,13 5,25 14,34 5,5 10,8 16,11 6,2 13,3 19,3l96 0 0 -266c0,-6 3,-12 8,-18 4,-4 10,-6 16,-6 7,0 12,2 17,6 5,4 7,10 7,18l0 290zm338 0c0,8 -2,14 -7,18 -4,4 -10,6 -17,6 -6,0 -12,-2 -17,-6 -5,-4 -7,-10 -7,-18l0 -217c0,-14 -4,-25 -14,-35 -9,-9 -20,-14 -34,-14l-97 0 0 266c0,8 -2,14 -7,18 -4,4 -10,6 -17,6 -7,0 -12,-2 -17,-6 -5,-4 -7,-10 -7,-18l0 -290c0,-16 8,-24 24,-24l121 0c25,0 48,10 67,28 19,18 29,41 29,69l0 217z"/>
    <path class="fil3 str0" d="M8721 8772l0 -194 -97 0c-14,0 -25,5 -35,14 -4,5 -8,10 -10,16 -2,6 -4,12 -4,19l0 145c0,13 5,25 14,34 5,5 10,8 16,11 7,2 13,3 19,3l48 0c14,0 25,-4 34,-13 10,-9 15,-21 15,-35zm23 64c-7,9 -18,17 -32,23 -13,6 -26,9 -40,9l-48 0c-26,0 -49,-9 -68,-28 -19,-18 -29,-41 -29,-68l0 -145c0,-27 10,-50 29,-69 19,-18 41,-28 68,-28l121 0c16,0 24,8 24,24l0 217c0,10 3,20 9,30 6,9 14,16 24,21 10,4 15,11 15,21 0,8 -2,13 -7,18 -4,5 -10,7 -17,7 -3,0 -7,-1 -10,-2 -16,-6 -29,-16 -39,-30zm362 8c0,8 -2,14 -7,18 -4,4 -10,6 -17,6 -6,0 -12,-2 -17,-6 -4,-4 -7,-10 -7,-18l0 -266 -55 0 -90 274c-2,5 -5,9 -9,12 -2,1 -6,2 -14,4 -6,0 -12,-2 -17,-7 -5,-4 -7,-9 -7,-16l1 -9 96 -289c3,-11 11,-17 22,-17l97 0c16,0 24,8 24,24l0 290zm145 -121l0 97 96 0c15,0 27,-5 36,-15 9,-9 13,-21 13,-33 0,-14 -4,-25 -12,-34 -4,-5 -9,-8 -15,-11 -6,-3 -13,-4 -22,-4l-96 0zm0 -48l96 0c31,0 55,10 73,30 16,18 24,40 24,67 0,25 -8,47 -24,66 -18,20 -42,30 -73,30l-120 0c-16,0 -24,-8 -24,-24l0 -290c0,-6 2,-12 7,-18 5,-4 10,-6 17,-6 6,0 11,2 16,6 5,4 8,10 8,18l0 121zm483 0l0 -121c0,-6 2,-12 7,-18 5,-4 10,-6 17,-6 6,0 11,2 16,6 5,4 8,10 8,18l0 290c0,8 -3,14 -7,18 -5,4 -10,6 -17,6 -7,0 -12,-2 -17,-6 -5,-4 -7,-10 -7,-18l0 -121 -146 0 0 121c0,8 -2,14 -7,18 -4,4 -10,6 -17,6 -6,0 -12,-2 -17,-6 -4,-4 -7,-10 -7,-18l0 -290c0,-6 3,-12 7,-18 5,-4 11,-6 17,-6 6,0 12,2 17,6 5,4 7,10 7,18l0 121 146 0zm433 169c0,8 -2,14 -7,18 -4,4 -10,6 -17,6 -6,0 -12,-2 -17,-6 -5,-4 -7,-10 -7,-18l0 -290c0,-6 2,-12 7,-18 5,-4 11,-6 17,-6 6,0 12,2 17,6 5,4 7,10 7,18l0 290zm-241 -121l0 97 48 0c15,0 27,-5 35,-15 9,-9 13,-21 13,-33 0,-14 -3,-25 -11,-34 -4,-5 -9,-8 -15,-11 -7,-3 -14,-4 -22,-4l-48 0zm0 -48l48 0c30,0 54,10 72,30 16,18 24,40 24,67 0,25 -7,47 -23,66 -18,20 -43,30 -73,30l-72 0c-16,0 -24,-8 -24,-24l0 -290c0,-6 2,-12 7,-18 5,-4 10,-6 17,-6 6,0 12,2 16,6 5,4 8,10 8,18l0 121zm488 25l88 131 4 7 0 6c0,7 -3,12 -8,17l-4 3 -5 3 -9 1c-7,0 -13,-3 -19,-10l-76 -115 -77 114c-4,8 -11,11 -20,11 -5,0 -10,-2 -16,-7 -6,-5 -8,-11 -8,-17 0,-4 1,-9 4,-14l87 -131 -88 -131 -3 -7 0 -7c0,-6 2,-12 7,-17 5,-4 11,-7 18,-7 7,0 13,4 19,11l77 115 76 -115c5,-7 11,-11 20,-11 5,0 10,3 17,8 5,5 8,10 8,17 0,4 -2,8 -4,13l-88 132zm718 62c0,29 -10,54 -31,75 -20,21 -46,31 -75,31l-29 0c-29,0 -54,-10 -75,-30 -21,-21 -31,-46 -31,-76l0 -126c0,-28 10,-53 31,-74 20,-21 45,-32 75,-32l29 0c28,0 53,10 74,31 21,21 32,46 32,75l0 126zm-48 0l0 -126c0,-16 -6,-29 -17,-41 -11,-11 -25,-17 -41,-17l-29 0c-16,0 -30,6 -41,17 -12,11 -17,25 -17,41l0 126c0,16 5,30 17,41 11,11 25,17 41,17l29 0c16,0 29,-5 41,-16 11,-11 17,-25 17,-42zm338 10l0 -145c0,-14 -5,-25 -14,-35 -9,-9 -21,-14 -35,-14l-48 0c-14,0 -25,5 -35,14 -4,5 -8,10 -10,16 -3,6 -4,12 -4,19l0 145c0,13 5,25 14,34 5,5 10,8 16,11 7,2 13,3 19,3l48 0c14,0 25,-4 34,-13 10,-9 15,-21 15,-35zm-78 -242l-109 -103c-5,-6 -8,-13 -8,-20 0,-5 2,-10 6,-14 4,-5 11,-7 19,-7l193 0c7,0 13,2 18,7 4,5 7,10 7,17 0,5 -2,10 -6,16 -5,5 -11,8 -19,8l-132 0 128 122 6 8c15,18 23,39 23,63l0 145c0,26 -10,49 -29,68 -19,19 -41,28 -68,28l-48 0c-26,0 -49,-9 -68,-28 -19,-18 -29,-41 -29,-68l0 -145c0,-27 10,-50 28,-69 19,-18 42,-28 69,-28l19 0zm270 290l97 0c13,0 25,-4 34,-13 10,-9 14,-21 14,-35l0 -145c0,-14 -4,-25 -13,-35 -10,-9 -21,-14 -35,-14l-97 0 0 242zm0 48l0 121c0,6 -3,12 -8,17 -4,5 -10,7 -16,7 -6,0 -11,-2 -16,-6 -6,-4 -8,-10 -8,-18l0 -435c0,-16 8,-24 24,-24l121 0c26,0 48,10 68,28 19,19 28,42 28,69l0 145c0,26 -9,49 -28,68 -19,19 -42,28 -68,28l-97 0zm483 -96l0 -194 -97 0c-14,0 -25,5 -35,14 -4,5 -8,10 -10,16 -2,6 -4,12 -4,19l0 145c0,13 5,25 14,34 5,5 10,8 16,11 7,2 13,3 19,3l48 0c14,0 25,-4 35,-13 9,-9 14,-21 14,-35zm23 64c-7,9 -18,17 -31,23 -14,6 -27,9 -41,9l-48 0c-26,0 -49,-9 -68,-28 -19,-18 -29,-41 -29,-68l0 -145c0,-27 10,-50 29,-69 19,-18 41,-28 68,-28l121 0c16,0 24,8 24,24l0 217c0,10 3,20 9,30 6,9 14,16 24,21 10,4 15,11 15,21 0,8 -2,13 -7,18 -4,5 -9,7 -17,7 -3,0 -7,-1 -10,-2 -15,-6 -28,-16 -39,-30zm248 -113l-30 0c-7,0 -13,-2 -18,-7 -4,-5 -6,-11 -6,-17 0,-6 2,-11 6,-16 4,-6 10,-8 18,-8l24 0c15,0 27,-5 35,-15 9,-10 13,-21 13,-33 0,-14 -3,-25 -11,-34 -4,-4 -9,-8 -15,-11 -7,-2 -14,-4 -22,-4l-24 0c-22,0 -42,7 -58,20 -4,3 -9,5 -15,5 -5,0 -10,-2 -17,-7 -4,-5 -7,-11 -7,-18 0,-7 4,-14 10,-19 25,-19 54,-29 87,-29l24 0c30,0 54,10 72,30 16,18 24,41 24,67 0,7 0,14 -1,20 -1,7 -3,13 -6,19 -5,12 -12,23 -23,33 9,9 17,20 23,33l5 19c2,7 2,13 2,21 0,26 -8,48 -24,66 -17,20 -41,30 -72,30l-24 0c-32,0 -61,-9 -87,-29 -7,-5 -10,-11 -10,-19 0,-5 3,-11 7,-17 5,-5 11,-8 17,-8 5,0 9,2 15,6 17,13 36,19 58,19l24 0c15,0 26,-5 35,-15 9,-9 13,-21 13,-34 0,-12 -3,-23 -10,-31 -7,-9 -17,-15 -32,-17zm428 39c0,29 -10,54 -31,75 -20,21 -46,31 -75,31l-29 0c-29,0 -54,-10 -75,-30 -21,-21 -31,-46 -31,-76l0 -126c0,-28 10,-53 31,-74 20,-21 45,-32 75,-32l29 0c28,0 53,10 74,31 21,21 32,46 32,75l0 126zm-48 0l0 -126c0,-16 -6,-29 -17,-41 -11,-11 -25,-17 -41,-17l-29 0c-16,0 -30,6 -41,17 -12,11 -17,25 -17,41l0 126c0,16 5,30 17,41 11,11 25,17 41,17l29 0c15,0 29,-5 41,-16 11,-11 17,-25 17,-42zm338 10l0 -145c0,-13 -5,-25 -14,-34 -9,-9 -21,-14 -35,-14l-48 0c-14,0 -26,4 -35,14 -5,4 -8,9 -10,15 -3,6 -4,12 -4,19l0 145c0,14 5,25 14,34 5,5 10,8 16,11 7,2 13,3 19,3l48 0c13,0 25,-4 34,-13 10,-9 15,-21 15,-35zm-146 -224l20 -13 29 -20c9,-8 16,-14 19,-18 7,-8 10,-16 10,-24 0,-11 -4,-20 -12,-28 -8,-7 -17,-10 -27,-10 -11,0 -20,3 -27,10 -8,6 -12,16 -12,28l0 75zm97 -16c31,0 55,9 72,28 17,17 25,40 25,67l0 145c0,26 -10,49 -29,68 -19,19 -41,28 -68,28l-48 0c-26,0 -49,-9 -68,-28 -19,-18 -29,-41 -29,-68l0 -299c0,-27 9,-49 27,-65 17,-15 37,-22 60,-22 23,0 43,7 60,22 18,15 27,37 27,64 0,16 -2,28 -7,36 -4,8 -11,16 -22,24zm386 240l0 -194 -97 0c-13,0 -25,5 -34,14 -5,5 -8,10 -11,16 -2,6 -3,12 -3,19l0 145c0,13 4,25 14,34 4,5 10,8 15,11 7,2 13,3 19,3l49 0c13,0 25,-4 34,-13 9,-9 14,-21 14,-35zm24 64c-8,9 -19,17 -32,23 -14,6 -27,9 -40,9l-49 0c-26,0 -48,-9 -67,-28 -20,-18 -29,-41 -29,-68l0 -145c0,-27 9,-50 28,-69 19,-18 42,-28 68,-28l121 0c16,0 24,8 24,24l0 217c0,10 3,20 9,30 6,9 14,16 24,21 11,4 16,11 16,21 0,8 -3,13 -7,18 -4,5 -10,7 -17,7 -4,0 -7,-1 -10,-2 -16,-6 -29,-16 -39,-30zm314 -161l0 -121c0,-6 2,-12 7,-18 5,-4 10,-6 17,-6 6,0 12,2 16,6 5,4 8,10 8,18l0 290c0,8 -2,14 -7,18 -4,4 -10,6 -17,6 -7,0 -12,-2 -17,-6 -5,-4 -7,-10 -7,-18l0 -121 -146 0 0 121c0,8 -2,14 -6,18 -5,4 -11,6 -18,6 -6,0 -12,-2 -16,-6 -5,-4 -8,-10 -8,-18l0 -290c0,-6 3,-12 8,-18 4,-4 10,-6 16,-6 7,0 12,2 17,6 5,4 7,10 7,18l0 121 146 0zm385 169c0,16 -8,24 -24,24l-120 0c-26,0 -49,-9 -68,-28 -19,-18 -29,-41 -29,-68l0 -218c0,-6 2,-12 7,-18 5,-4 11,-6 17,-6 6,0 12,2 17,6 5,4 7,10 7,18l0 218c0,13 5,25 14,34 5,5 10,8 15,11 7,2 14,3 19,3l97 0 0 -266c0,-6 3,-12 8,-18 4,-4 10,-6 16,-6 6,0 12,2 17,6 5,4 7,10 7,18l0 290zm266 -410l-97 0c-7,0 -13,-3 -18,-7 -4,-5 -6,-11 -6,-17 0,-6 2,-11 6,-17 4,-5 10,-7 18,-7l97 0c6,0 12,2 17,7 4,5 7,10 7,17 0,5 -2,10 -6,16 -4,5 -10,8 -18,8zm72 410c0,16 -8,24 -24,24l-121 0c-26,0 -48,-9 -68,-28 -19,-18 -28,-41 -28,-68l0 -217c0,-7 2,-13 7,-18 5,-4 10,-6 17,-6 6,0 11,2 16,6 5,4 8,10 8,18l0 217c0,14 4,25 14,34 4,5 10,8 15,11 7,2 13,3 19,3l97 0 0 -265c0,-7 2,-13 7,-18 5,-4 11,-6 17,-6 6,0 12,2 17,6 4,4 7,10 7,18l0 289z"/>
   </g>
   <g>
    <path class="fil3 str0" d="M6357 10598c0,29 -10,54 -31,75 -20,21 -45,31 -75,31l-29 0c-29,0 -54,-10 -75,-30 -21,-21 -31,-46 -31,-76l0 -125c0,-29 10,-53 31,-75 21,-21 46,-32 75,-32l29 0c29,0 54,11 75,31 21,21 31,46 31,76l0 125zm-48 0l0 -126c0,-15 -5,-29 -17,-40 -11,-12 -25,-18 -41,-18l-29 0c-16,0 -30,6 -41,17 -11,12 -17,25 -17,41l0 126c0,16 6,30 17,41 11,12 25,17 41,17l29 0c16,0 29,-5 41,-16 11,-11 17,-25 17,-42zm242 -51l-54 56 0 77c0,8 -3,14 -7,18 -5,4 -10,6 -17,6 -7,0 -12,-2 -17,-6 -5,-4 -7,-10 -7,-18l0 -289c0,-7 2,-13 7,-18 5,-4 10,-6 17,-6 6,0 11,2 16,6 5,4 8,10 8,18l0 142 153 -160c4,-5 9,-7 15,-7 5,0 11,2 17,7 5,5 7,11 7,18 0,7 -2,13 -8,18l-96 102 99 153c4,7 5,13 5,17 0,7 -2,12 -8,17 -4,5 -10,7 -16,7 -7,0 -13,-3 -18,-9l-96 -149zm288 109l97 0c13,0 25,-4 34,-13 10,-9 14,-21 14,-35l0 -145c0,-14 -4,-25 -13,-35 -9,-9 -21,-14 -35,-14l-97 0 0 242zm0 48l0 121c0,7 -2,12 -7,17 -5,5 -11,7 -17,7 -5,0 -11,-2 -16,-6 -5,-4 -8,-10 -8,-18l0 -435c0,-16 8,-24 24,-24l121 0c26,0 49,10 68,28 19,19 28,42 28,69l0 145c0,26 -9,49 -28,68 -19,19 -42,28 -68,28l-97 0zm483 0l-97 0c-26,0 -48,-9 -67,-28 -20,-18 -29,-41 -29,-68l0 -218c0,-6 2,-12 7,-17 5,-5 10,-7 17,-7 6,0 11,2 16,6 5,4 8,10 8,18l0 218c0,14 4,25 14,35 4,4 10,7 15,10 7,2 13,3 19,3l97 0 0 -266c0,-6 2,-12 7,-17 5,-5 11,-7 17,-7 6,0 12,2 17,6 5,4 7,10 7,18l0 362c0,27 -9,49 -28,68 -19,19 -42,29 -68,29l-97 0c-6,0 -12,-2 -18,-7 -4,-5 -6,-11 -6,-17 0,-6 2,-12 6,-17 4,-5 10,-7 18,-7l97 0c13,0 25,-5 34,-14 9,-9 14,-20 14,-34l0 -49zm344 -193l89 -134c2,-3 5,-6 9,-9l5 -2 6 0c6,0 12,3 17,8 5,5 8,10 8,17 0,4 -1,8 -4,13l-88 131 88 131 3 8 1 6c0,6 -2,12 -7,17 -5,5 -11,7 -18,7 -8,0 -15,-3 -20,-11l-89 -134 -11 0 0 121c0,8 -2,14 -7,18 -4,4 -10,6 -17,6 -7,0 -12,-2 -17,-6 -5,-4 -7,-10 -7,-18l0 -121 -11 0 -90 134c-2,3 -5,6 -9,9l-11 2c-5,0 -10,-2 -17,-7 -5,-5 -8,-10 -8,-17 0,-4 2,-9 5,-14l87 -131 -88 -131 -4 -7 0 -7c0,-6 3,-11 8,-16 5,-5 11,-8 18,-8 8,0 14,4 19,11l90 134 11 0 0 -121c0,-6 2,-12 7,-17 5,-5 10,-7 17,-7 6,0 12,2 16,6 5,4 8,10 8,18l0 121 11 0zm428 0l0 -121c0,-6 2,-12 7,-17 5,-5 10,-7 17,-7 6,0 11,2 16,6 5,4 8,10 8,18l0 290c0,8 -3,14 -7,18 -4,4 -10,6 -17,6 -7,0 -12,-2 -17,-6 -5,-4 -7,-10 -7,-18l0 -121 -146 0 0 121c0,8 -2,14 -6,18 -5,4 -11,6 -18,6 -6,0 -12,-2 -16,-6 -5,-4 -8,-10 -8,-18l0 -290c0,-6 3,-12 8,-17 4,-5 10,-7 16,-7 6,0 12,2 17,6 5,4 7,10 7,18l0 121 146 0zm433 169c0,8 -2,14 -7,18 -4,4 -10,6 -17,6 -6,0 -12,-2 -17,-6 -4,-4 -7,-10 -7,-18l0 -290c0,-6 3,-12 7,-17 5,-5 11,-7 17,-7 6,0 12,2 17,6 5,4 7,10 7,18l0 290zm-241 -121l0 97 48 0c15,0 27,-5 35,-14 9,-10 14,-22 14,-34 0,-14 -4,-25 -12,-34 -4,-4 -9,-8 -15,-11 -7,-3 -14,-4 -22,-4l-48 0zm0 -48l48 0c31,0 55,10 73,30 16,18 24,40 24,67 0,25 -8,47 -24,66 -18,20 -42,30 -73,30l-72 0c-16,0 -24,-8 -24,-24l0 -290c0,-6 2,-12 7,-17 5,-5 11,-7 17,-7 6,0 12,2 17,6 5,4 7,10 7,18l0 121zm386 1l145 0 0 -49c0,-14 -4,-25 -13,-35 -10,-9 -21,-14 -35,-14l-49 0c-13,0 -25,5 -34,14 -5,5 -8,10 -11,16 -2,6 -3,12 -3,19l0 49zm0 48l0 48c0,14 4,25 14,35 4,4 10,7 15,10 7,2 13,3 19,3l121 0c7,0 12,3 17,8 5,5 7,10 7,16 0,6 -2,11 -6,16 -4,6 -10,8 -18,8l-121 0c-26,0 -48,-9 -68,-28 -19,-18 -28,-41 -28,-68l0 -145c0,-26 9,-49 28,-68 18,-19 41,-29 68,-29l49 0c26,0 48,10 68,28 19,19 28,42 28,69l0 72c0,17 -8,25 -24,25l-169 0zm820 120c0,16 -8,24 -24,24l-121 0c-26,0 -48,-9 -67,-28 -20,-18 -29,-41 -29,-68l0 -218c0,-6 2,-12 7,-17 5,-5 10,-7 17,-7 6,0 12,2 16,6 5,4 8,10 8,18l0 218c0,14 4,25 14,35 5,4 10,7 15,10 7,2 13,3 19,3l97 0 0 -266c0,-6 3,-12 7,-17 5,-5 11,-7 17,-7 6,0 12,2 17,6 5,4 7,10 7,18l0 290zm224 -121l-31 0c-7,0 -13,-2 -18,-7 -4,-5 -6,-10 -6,-17 0,-6 2,-11 6,-16 5,-5 11,-8 18,-8l24 0c15,0 27,-5 36,-15 8,-9 13,-21 13,-33 0,-14 -4,-25 -12,-34 -4,-4 -9,-8 -15,-11 -6,-2 -13,-4 -22,-4l-24 0c-22,0 -41,7 -58,20 -4,3 -9,5 -14,5 -6,0 -11,-2 -17,-7 -5,-5 -7,-11 -7,-18 0,-7 3,-14 9,-19 25,-19 54,-29 87,-29l24 0c31,0 55,10 73,30 16,19 24,41 24,67 0,8 -1,14 -2,21 -1,6 -3,12 -6,19 -4,11 -12,22 -23,32 10,9 17,20 23,33l6 19c1,7 2,14 2,21 0,27 -8,49 -24,66 -18,20 -42,30 -73,30l-24 0c-32,0 -61,-9 -87,-29 -6,-4 -10,-11 -10,-19 0,-5 3,-11 8,-16 5,-6 10,-9 17,-9 4,0 9,2 14,6 17,13 36,19 58,19l24 0c15,0 27,-5 35,-14 9,-10 14,-22 14,-35 0,-12 -4,-23 -11,-31 -7,-9 -17,-14 -31,-17zm379 49l0 -145c0,-14 -4,-25 -13,-35 -10,-9 -21,-14 -35,-14l-49 0c-13,0 -25,5 -34,14 -5,5 -8,10 -11,16 -2,6 -3,12 -3,19l0 145c0,14 5,25 14,34 5,5 10,8 15,11 7,2 14,3 19,3l49 0c13,0 25,-4 34,-13 10,-9 14,-21 14,-35zm-78 -242l-108 -103c-6,-6 -8,-13 -8,-20 0,-5 2,-9 6,-14 4,-5 10,-7 19,-7l193 0c7,0 12,2 17,7 5,5 7,11 7,17 0,5 -2,11 -6,16 -4,5 -10,8 -18,8l-133 0 128 122 6 8c16,18 23,39 23,63l0 145c0,26 -9,49 -28,68 -19,19 -42,28 -68,28l-49 0c-26,0 -48,-9 -67,-28 -19,-18 -29,-41 -29,-68l0 -145c0,-27 9,-49 28,-68 19,-19 42,-29 68,-29l19 0zm464 314c0,16 -8,24 -24,24l-121 0c-26,0 -48,-9 -68,-28 -19,-18 -28,-41 -28,-68l0 -218c0,-6 2,-12 7,-17 5,-5 10,-7 17,-7 6,0 11,2 16,6 5,4 8,10 8,18l0 218c0,14 4,25 13,35 5,4 10,7 16,10 7,2 13,3 19,3l97 0 0 -266c0,-6 2,-12 7,-17 5,-5 11,-7 17,-7 6,0 12,2 16,6 5,4 8,10 8,18l0 290zm144 -24l97 0c13,0 25,-4 34,-13 10,-9 14,-21 14,-35l0 -145c0,-14 -4,-25 -13,-35 -9,-9 -21,-14 -35,-14l-97 0 0 242zm0 48l0 121c0,7 -2,12 -7,17 -5,5 -11,7 -17,7 -5,0 -11,-2 -16,-6 -5,-4 -8,-10 -8,-18l0 -435c0,-16 8,-24 24,-24l121 0c26,0 49,10 68,28 19,19 28,42 28,69l0 145c0,26 -9,49 -28,68 -19,19 -42,28 -68,28l-97 0zm483 -96l0 -194 -97 0c-13,0 -25,5 -34,14 -5,5 -8,10 -11,16 -2,6 -3,12 -3,19l0 145c0,14 4,25 14,34 4,5 10,8 15,11 7,2 13,3 19,3l49 0c13,0 24,-4 34,-13 9,-9 14,-21 14,-35zm24 65c-8,9 -19,16 -32,22 -14,6 -27,9 -40,9l-49 0c-26,0 -48,-9 -67,-28 -20,-18 -29,-41 -29,-68l0 -145c0,-27 9,-49 28,-68 19,-19 42,-29 68,-29l121 0c16,0 24,8 24,24l0 217c0,10 3,20 9,30 6,9 14,16 24,21 10,4 16,11 16,22 0,7 -3,12 -7,17 -5,5 -10,7 -17,7 -4,0 -7,0 -10,-2 -16,-6 -29,-16 -39,-29zm265 -259l-97 0 0 266c0,8 -2,14 -6,18 -5,4 -11,6 -18,6 -6,0 -12,-2 -16,-6 -5,-4 -8,-10 -8,-18l0 -290c0,-16 8,-24 24,-24l217 0c26,0 49,10 68,28 19,19 29,42 29,69l0 217c0,8 -3,14 -7,18 -5,4 -10,6 -17,6 -7,0 -12,-2 -17,-6 -5,-4 -7,-10 -7,-18l0 -217c0,-14 -5,-25 -14,-35 -9,-9 -21,-14 -35,-14l-48 0 0 266c0,8 -2,14 -7,18 -4,4 -10,6 -17,6 -6,0 -12,-2 -17,-6 -5,-4 -7,-10 -7,-18l0 -266zm337 98l146 0 0 -49c0,-14 -5,-25 -14,-35 -9,-9 -21,-14 -35,-14l-48 0c-14,0 -25,5 -35,14 -4,5 -8,10 -10,16 -2,6 -4,12 -4,19l0 49zm0 48l0 48c0,14 5,25 14,35 5,4 10,7 16,10 7,2 13,3 19,3l121 0c6,0 12,3 17,8 4,5 7,10 7,16 0,6 -2,11 -6,16 -4,6 -10,8 -18,8l-121 0c-26,0 -49,-9 -68,-28 -19,-18 -29,-41 -29,-68l0 -145c0,-26 10,-49 28,-68 19,-19 42,-29 69,-29l48 0c26,0 49,10 68,28 19,19 29,42 29,69l0 72c0,17 -8,25 -24,25l-170 0zm531 120c0,8 -2,14 -6,18 -5,4 -11,6 -18,6 -6,0 -12,-2 -16,-6 -5,-4 -8,-10 -8,-18l0 -266 -55 0 -90 274c-2,5 -5,9 -9,13 -2,0 -6,1 -14,3 -6,0 -12,-2 -17,-7 -5,-4 -7,-9 -7,-16l1 -8 96 -290c3,-11 11,-17 22,-17l97 0c16,0 24,8 24,24l0 290zm145 -121l0 97 97 0c14,0 26,-5 35,-14 9,-10 13,-22 13,-34 0,-14 -4,-25 -12,-34 -4,-4 -9,-8 -15,-11 -6,-3 -13,-4 -21,-4l-97 0zm0 -48l96 0c31,0 55,10 73,30 16,18 24,40 24,67 0,25 -8,47 -24,66 -18,20 -42,30 -73,30l-120 0c-16,0 -24,-8 -24,-24l0 -290c0,-6 2,-12 7,-17 5,-5 10,-7 17,-7 6,0 11,2 16,6 5,4 8,10 8,18l0 121zm483 0l0 -121c0,-6 2,-12 7,-17 5,-5 10,-7 17,-7 6,0 11,2 16,6 5,4 8,10 8,18l0 290c0,8 -3,14 -7,18 -5,4 -10,6 -17,6 -7,0 -12,-2 -17,-6 -5,-4 -7,-10 -7,-18l0 -121 -146 0 0 121c0,8 -2,14 -7,18 -4,4 -10,6 -17,6 -6,0 -12,-2 -17,-6 -4,-4 -7,-10 -7,-18l0 -290c0,-6 3,-12 7,-17 5,-5 11,-7 17,-7 6,0 12,2 17,6 5,4 7,10 7,18l0 121 146 0zm433 169c0,8 -2,14 -7,18 -4,4 -10,6 -17,6 -6,0 -12,-2 -17,-6 -4,-4 -7,-10 -7,-18l0 -290c0,-6 3,-12 7,-17 5,-5 11,-7 17,-7 6,0 12,2 17,6 5,4 7,10 7,18l0 290zm-241 -121l0 97 48 0c15,0 27,-5 35,-14 9,-10 14,-22 14,-34 0,-14 -4,-25 -12,-34 -4,-4 -9,-8 -15,-11 -7,-3 -14,-4 -22,-4l-48 0zm0 -48l48 0c30,0 55,10 72,30 16,18 24,40 24,67 0,25 -7,47 -23,66 -18,20 -43,30 -73,30l-72 0c-16,0 -24,-8 -24,-24l0 -290c0,-6 2,-12 7,-17 5,-5 11,-7 17,-7 6,0 12,2 16,6 5,4 8,10 8,18l0 121zm386 1l145 0 0 -49c0,-14 -5,-25 -14,-35 -9,-9 -20,-14 -34,-14l-49 0c-14,0 -25,5 -34,14 -5,5 -9,10 -11,16 -2,6 -3,12 -3,19l0 49zm0 48l0 48c0,14 4,25 13,35 5,4 11,7 16,10 7,2 13,3 19,3l121 0c6,0 12,3 17,8 5,5 7,10 7,16 0,6 -2,11 -6,16 -4,6 -10,8 -18,8l-121 0c-26,0 -49,-9 -68,-28 -19,-18 -28,-41 -28,-68l0 -145c0,-26 9,-49 28,-68 18,-19 41,-29 68,-29l48 0c27,0 49,10 68,28 19,19 29,42 29,69l0 72c0,17 -8,25 -24,25l-169 0zm676 -13l-54 56 0 77c0,8 -3,14 -7,18 -4,4 -10,6 -17,6 -7,0 -12,-2 -17,-6 -5,-4 -7,-10 -7,-18l0 -289c0,-7 2,-13 7,-18 5,-4 10,-6 17,-6 6,0 12,2 16,6 5,4 8,10 8,18l0 142 153 -160c4,-5 9,-7 15,-7 5,0 11,2 17,7 5,5 8,11 8,18 0,7 -3,13 -8,18l-97 102 99 153c4,7 6,13 6,17 0,7 -3,12 -8,17 -5,5 -11,7 -17,7 -7,0 -12,-3 -17,-9l-97 -149zm457 51c0,29 -10,54 -31,75 -20,21 -45,31 -75,31l-29 0c-29,0 -54,-10 -75,-30 -21,-21 -31,-46 -31,-76l0 -125c0,-29 10,-53 31,-75 21,-21 46,-32 75,-32l29 0c29,0 54,11 75,31 21,21 31,46 31,76l0 125zm-48 0l0 -126c0,-15 -5,-29 -17,-40 -11,-12 -25,-18 -41,-18l-29 0c-16,0 -30,6 -41,17 -11,12 -17,25 -17,41l0 126c0,16 5,30 17,41 11,12 25,17 41,17l29 0c16,0 29,-5 41,-16 11,-11 17,-25 17,-42zm434 82l0 -289c0,-9 -2,-16 -6,-21 -5,-5 -10,-7 -16,-7 -7,0 -14,4 -22,14l-101 141 -101 -141c-6,-10 -14,-14 -22,-14 -6,0 -11,2 -16,7 -4,5 -6,12 -6,21l0 289c0,8 3,14 7,18 5,4 10,6 17,6 6,0 12,-2 17,-6 5,-4 7,-10 7,-18l0 -214 77 108c7,8 13,13 20,13 6,0 13,-5 20,-13l77 -108 0 214c0,8 2,14 7,18 4,4 10,6 17,6 6,0 11,-2 16,-6 5,-4 8,-10 8,-18zm338 0c0,16 -8,24 -25,24l-120 0c-26,0 -49,-9 -68,-28 -19,-18 -29,-41 -29,-68l0 -218c0,-6 3,-12 7,-17 5,-5 11,-7 17,-7 6,0 12,2 17,6 5,4 7,10 7,18l0 218c0,14 5,25 14,35 5,4 10,7 16,10 7,2 13,3 19,3l97 0 0 -266c0,-6 2,-12 7,-17 5,-5 10,-7 17,-7 6,0 11,2 16,6 5,4 8,10 8,18l0 290zm265 24l-73 0c-26,0 -48,-9 -67,-28 -19,-18 -29,-41 -29,-68l0 -145c0,-27 9,-49 28,-68 19,-19 42,-29 68,-29l73 0c7,0 12,3 17,8 5,5 7,10 7,16 0,6 -2,11 -6,16 -4,6 -10,8 -18,8l-73 0c-13,0 -25,5 -34,14 -5,5 -8,10 -11,16 -2,6 -3,12 -3,19l0 145c0,14 4,25 14,34 5,5 10,8 15,11 7,2 14,3 19,3l73 0c7,0 12,3 17,8 5,5 7,10 7,16 0,6 -2,11 -6,16 -4,6 -10,8 -18,8zm289 0l-72 0c-26,0 -49,-9 -68,-28 -19,-18 -29,-41 -29,-68l0 -145c0,-27 10,-49 29,-68 18,-19 41,-29 68,-29l72 0c7,0 13,3 17,8 5,5 7,10 7,16 0,6 -2,11 -6,16 -4,6 -10,8 -18,8l-72 0c-14,0 -25,5 -35,14 -5,5 -8,10 -10,16 -3,6 -4,12 -4,19l0 145c0,14 5,25 14,34 5,5 10,8 16,11 7,2 13,3 19,3l72 0c7,0 13,3 17,8 5,5 7,10 7,16 0,6 -2,11 -6,16 -4,6 -10,8 -18,8z"/>
    <path class="fil3 str0" d="M16244 10680c0,16 -8,24 -24,24l-121 0c-26,0 -48,-9 -68,-28 -19,-18 -28,-41 -28,-68l0 -218c0,-6 2,-12 7,-17 5,-5 10,-7 17,-7 6,0 11,2 16,6 5,4 8,10 8,18l0 218c0,14 4,25 14,35 4,4 10,7 15,10 7,2 13,3 19,3l97 0 0 -266c0,-6 2,-12 7,-17 5,-5 11,-7 17,-7 6,0 12,2 17,6 5,4 7,10 7,18l0 290zm338 0c0,16 -8,24 -25,24l-120 0c-26,0 -49,-9 -68,-28 -19,-18 -29,-41 -29,-68l0 -218c0,-6 3,-12 7,-17 5,-5 11,-7 17,-7 6,0 12,2 17,6 5,4 7,10 7,18l0 218c0,14 5,25 14,35 5,4 10,7 16,10 7,2 13,3 19,3l97 0 0 -266c0,-6 2,-12 7,-17 5,-5 10,-7 17,-7 6,0 11,2 16,6 5,4 8,10 8,18l0 290z"/>
   </g>
   <g>
    <path class="fil3 str0" d="M6265 13108l-96 0 0 265c0,8 -2,14 -7,19 -4,4 -10,6 -17,6 -7,0 -12,-2 -17,-6 -5,-5 -7,-11 -7,-19l0 -289c0,-16 8,-24 24,-24l217 0c26,0 48,9 68,28 19,18 28,41 28,68l0 217c0,8 -2,14 -7,19 -4,4 -10,6 -17,6 -6,0 -12,-2 -17,-6 -5,-5 -7,-11 -7,-19l0 -217c0,-14 -4,-25 -14,-34 -9,-10 -20,-14 -34,-14l-49 0 0 265c0,8 -2,14 -6,19 -5,4 -10,6 -18,6 -6,0 -12,-2 -16,-6 -5,-5 -8,-11 -8,-19l0 -265zm338 97l145 0 0 -49c0,-13 -4,-25 -13,-34 -10,-10 -21,-14 -35,-14l-49 0c-13,0 -25,4 -34,13 -5,5 -8,10 -11,16 -2,6 -3,13 -3,19l0 49zm0 48l0 48c0,14 4,25 14,35 5,4 10,7 15,10 7,2 13,4 19,4l121 0c7,0 12,2 17,7 5,5 7,11 7,17 0,5 -2,10 -6,16 -4,5 -10,8 -18,8l-121 0c-26,0 -48,-10 -68,-28 -19,-19 -28,-42 -28,-69l0 -145c0,-26 9,-48 28,-68 18,-19 41,-28 68,-28l49 0c26,0 48,9 68,28 19,19 28,41 28,68l0 73c0,16 -8,24 -24,24l-169 0zm337 97l97 0c14,0 25,-5 35,-14 9,-9 14,-20 14,-35l0 -145c0,-14 -5,-25 -14,-34 -9,-10 -21,-14 -35,-14l-97 0 0 242zm0 48l0 120c0,7 -2,12 -7,17 -5,5 -10,7 -17,7 -5,0 -10,-2 -16,-6 -5,-4 -7,-10 -7,-18l0 -434c0,-16 7,-24 24,-24l120 0c26,0 49,9 68,28 19,18 29,41 29,68l0 145c0,27 -10,49 -29,68 -18,19 -41,29 -68,29l-97 0zm338 -48l97 0c13,0 25,-5 34,-14 10,-9 14,-20 14,-35l0 -145c0,-14 -4,-25 -13,-34 -9,-10 -21,-14 -35,-14l-97 0 0 242zm0 48l0 120c0,7 -2,12 -7,17 -5,5 -11,7 -17,7 -5,0 -11,-2 -16,-6 -5,-4 -8,-10 -8,-18l0 -434c0,-16 8,-24 24,-24l121 0c26,0 49,9 68,28 19,18 28,41 28,68l0 145c0,27 -9,49 -28,68 -19,19 -42,29 -68,29l-97 0zm531 -25c0,17 -8,25 -24,25l-121 0c-26,0 -48,-10 -67,-28 -20,-19 -29,-42 -29,-69l0 -217c0,-7 2,-13 7,-18 5,-4 10,-6 17,-6 6,0 11,2 16,6 5,4 8,10 8,18l0 217c0,14 4,25 14,35 4,4 10,7 15,10 7,2 13,4 19,4l97 0 0 -266c0,-7 2,-13 7,-18 5,-4 11,-6 17,-6 6,0 12,2 17,6 5,4 7,10 7,18l0 289zm241 -265l-97 0 0 265c0,8 -2,14 -7,19 -4,4 -10,6 -17,6 -6,0 -12,-2 -16,-6 -5,-5 -8,-11 -8,-19l0 -289c0,-16 8,-24 24,-24l217 0c26,0 49,9 68,28 19,18 29,41 29,68l0 217c0,8 -3,14 -7,19 -5,4 -10,6 -17,6 -7,0 -12,-2 -17,-6 -5,-5 -7,-11 -7,-19l0 -217c0,-14 -5,-25 -14,-34 -9,-10 -21,-14 -35,-14l-48 0 0 265c0,8 -2,14 -7,19 -4,4 -10,6 -17,6 -6,0 -12,-2 -17,-6 -5,-5 -7,-11 -7,-19l0 -265zm531 183c0,29 -11,54 -31,75 -21,21 -46,32 -76,32l-28 0c-29,0 -54,-11 -75,-31 -21,-21 -32,-46 -32,-76l0 -125c0,-28 11,-53 31,-74 21,-22 46,-32 76,-32l28 0c29,0 54,10 75,30 21,21 32,46 32,76l0 125zm-48 1l0 -126c0,-16 -6,-30 -17,-41 -11,-12 -25,-17 -41,-17l-30 0c-15,0 -29,5 -40,17 -12,11 -18,25 -18,41l0 126c0,15 6,29 17,40 12,12 25,18 41,18l30 0c15,0 29,-6 40,-17 12,-11 18,-25 18,-41zm192 58l97 0c13,0 25,-5 34,-14 10,-9 14,-20 14,-35l0 -145c0,-14 -4,-25 -13,-34 -10,-10 -21,-14 -35,-14l-97 0 0 242zm0 48l0 120c0,7 -3,12 -7,17 -5,5 -11,7 -17,7 -6,0 -11,-2 -16,-6 -5,-4 -8,-10 -8,-18l0 -434c0,-16 8,-24 24,-24l121 0c26,0 49,9 68,28 19,18 28,41 28,68l0 145c0,27 -9,49 -28,68 -19,19 -42,29 -68,29l-97 0zm531 -25c0,17 -8,25 -24,25l-121 0c-26,0 -48,-10 -68,-28 -19,-19 -28,-42 -28,-69l0 -217c0,-7 2,-13 7,-18 5,-4 10,-6 17,-6 6,0 11,2 16,6 5,4 8,10 8,18l0 217c0,14 4,25 13,35 5,4 10,7 16,10 7,2 13,4 19,4l97 0 0 -266c0,-7 2,-13 7,-18 5,-4 11,-6 17,-6 6,0 12,2 16,6 5,4 8,10 8,18l0 289zm290 -72l0 -193 -97 0c-14,0 -26,4 -35,13 -5,5 -8,10 -10,16 -3,6 -4,12 -4,19l0 145c0,14 5,25 14,35 5,4 10,7 16,10 7,2 13,4 19,4l48 0c13,0 25,-5 34,-14 10,-9 15,-20 15,-35zm23 65c-8,9 -18,16 -32,22 -13,7 -27,10 -40,10l-48 0c-26,0 -49,-10 -68,-28 -19,-19 -29,-42 -29,-69l0 -145c0,-27 10,-49 28,-68 19,-19 42,-28 69,-28l120 0c17,0 25,8 25,24l0 216c0,10 3,20 9,30 5,9 13,16 24,21 10,4 15,11 15,22 0,7 -2,13 -7,17 -4,5 -10,8 -17,8 -4,0 -7,-1 -10,-3 -16,-6 -29,-16 -39,-29zm362 7c0,8 -2,14 -7,19 -4,4 -10,6 -17,6 -6,0 -12,-2 -17,-6 -5,-5 -7,-11 -7,-19l0 -265 -55 0 -91 273c-2,5 -5,10 -9,13 -1,1 -5,2 -13,4 -6,0 -12,-3 -17,-7 -5,-4 -8,-10 -8,-17l2 -8 96 -290c3,-11 11,-16 22,-16l97 0c16,0 24,8 24,24l0 289zm144 -121l0 98 97 0c15,0 27,-5 36,-15 8,-10 13,-21 13,-34 0,-14 -4,-25 -12,-34 -4,-4 -9,-8 -15,-11 -7,-2 -14,-4 -22,-4l-97 0zm0 -48l97 0c30,0 55,10 73,30 16,18 24,41 24,67 0,25 -8,48 -24,66 -18,20 -42,31 -73,31l-120 0c-17,0 -25,-8 -25,-25l0 -289c0,-7 3,-13 8,-18 4,-4 10,-6 16,-6 7,0 12,2 17,6 5,4 7,10 7,18l0 120zm483 0l0 -120c0,-7 3,-13 8,-18 4,-4 10,-6 16,-6 6,0 12,2 17,6 5,4 7,10 7,18l0 289c0,8 -2,14 -6,19 -5,4 -11,6 -18,6 -6,0 -12,-2 -16,-7 -5,-4 -8,-10 -8,-18l0 -121 -145 0 0 121c0,8 -2,14 -7,19 -4,4 -10,6 -17,6 -6,0 -12,-2 -17,-6 -5,-5 -7,-11 -7,-19l0 -289c0,-7 2,-13 7,-18 5,-4 11,-6 17,-6 6,0 12,2 17,6 5,4 7,10 7,18l0 120 145 0zm434 169c0,8 -2,14 -7,19 -4,4 -10,6 -17,6 -6,0 -12,-2 -17,-6 -5,-5 -7,-11 -7,-19l0 -289c0,-7 2,-13 7,-18 5,-4 11,-6 17,-6 6,0 12,2 17,6 4,4 7,10 7,18l0 289zm-241 -121l0 98 48 0c15,0 26,-5 35,-15 9,-10 13,-21 13,-34 0,-14 -4,-25 -11,-34 -4,-4 -9,-8 -16,-11 -6,-2 -13,-4 -21,-4l-48 0zm0 -48l48 0c30,0 54,10 72,30 16,18 24,41 24,67 0,25 -8,48 -23,66 -19,20 -43,31 -73,31l-72 0c-16,0 -24,-8 -24,-25l0 -289c0,-7 2,-13 7,-18 5,-4 10,-6 17,-6 6,0 11,2 16,6 5,4 8,10 8,18l0 120zm385 1l146 0 0 -49c0,-13 -5,-25 -14,-34 -9,-10 -21,-14 -35,-14l-48 0c-14,0 -25,4 -35,13 -4,5 -8,10 -10,16 -2,6 -4,13 -4,19l0 49zm0 48l0 48c0,14 5,25 14,35 5,4 10,7 16,10 7,2 13,4 19,4l121 0c6,0 12,2 17,7 4,5 7,11 7,17 0,5 -2,10 -6,16 -4,5 -10,8 -18,8l-121 0c-26,0 -49,-10 -68,-28 -19,-19 -29,-42 -29,-69l0 -145c0,-26 10,-48 28,-68 19,-19 42,-28 69,-28l48 0c26,0 49,9 68,28 19,19 29,41 29,68l0 73c0,16 -8,24 -24,24l-170 0zm821 120c0,17 -8,25 -24,25l-121 0c-26,0 -49,-10 -68,-28 -19,-19 -29,-42 -29,-69l0 -217c0,-7 3,-13 8,-18 4,-4 10,-6 16,-6 7,0 12,2 17,6 5,4 7,10 7,18l0 217c0,14 5,25 14,35 5,4 10,7 16,10 7,2 13,4 19,4l97 0 0 -266c0,-7 2,-13 7,-18 5,-4 10,-6 17,-6 6,0 12,2 16,6 5,4 8,10 8,18l0 289zm223 -121l-30 0c-7,0 -13,-2 -18,-7 -4,-4 -6,-10 -6,-17 0,-5 2,-11 6,-16 4,-5 10,-8 18,-8l24 0c15,0 27,-5 35,-14 9,-10 13,-21 13,-34 0,-14 -3,-25 -11,-34 -4,-4 -9,-7 -16,-10 -6,-3 -13,-4 -21,-4l-24 0c-22,0 -42,6 -58,19 -4,3 -9,5 -15,6 -5,0 -11,-3 -17,-8 -4,-5 -7,-11 -7,-17 0,-8 4,-14 10,-19 25,-20 54,-29 87,-29l24 0c30,0 54,10 72,30 16,18 24,40 24,66 0,8 0,15 -1,21 -1,6 -3,12 -6,19 -5,11 -12,22 -23,33 9,8 17,19 23,32l5 20c2,6 2,13 2,20 0,27 -8,49 -24,67 -17,20 -41,30 -72,30l-24 0c-32,0 -61,-10 -87,-29 -7,-5 -10,-12 -10,-20 0,-5 3,-10 7,-16 5,-6 11,-9 17,-9 5,0 9,2 15,6 17,13 36,20 58,20l24 0c15,0 26,-5 35,-15 9,-10 13,-21 13,-34 0,-13 -3,-23 -10,-32 -7,-9 -17,-14 -32,-17zm380 49l0 -145c0,-14 -5,-25 -14,-34 -9,-10 -20,-14 -35,-14l-48 0c-14,0 -25,4 -35,13 -4,5 -8,10 -10,16 -2,6 -3,12 -3,19l0 145c0,14 4,25 13,35 5,4 10,7 16,10 7,2 13,4 19,4l48 0c14,0 25,-5 35,-14 9,-9 14,-20 14,-35zm-78 -241l-108 -103c-6,-7 -9,-14 -9,-21 0,-4 2,-9 6,-14 5,-5 11,-7 20,-7l193 0c6,0 12,2 17,7 5,5 7,11 7,17 0,6 -2,11 -6,16 -4,5 -10,8 -18,8l-133 0 128 122 6 8c15,18 23,39 23,63l0 145c0,27 -10,49 -28,68 -19,19 -42,29 -69,29l-48 0c-26,0 -48,-10 -68,-28 -19,-19 -28,-42 -28,-69l0 -145c0,-27 9,-49 28,-68 19,-19 41,-28 68,-28l19 0zm463 313c0,17 -8,25 -24,25l-120 0c-26,0 -49,-10 -68,-28 -19,-19 -29,-42 -29,-69l0 -217c0,-7 3,-13 7,-18 5,-4 11,-6 17,-6 6,0 12,2 17,6 5,4 7,10 7,18l0 217c0,14 5,25 14,35 5,4 10,7 16,10 7,2 13,4 19,4l97 0 0 -266c0,-7 2,-13 7,-18 5,-4 10,-6 17,-6 6,0 11,2 16,6 5,4 7,10 7,18l0 289zm145 -23l97 0c13,0 24,-5 34,-14 9,-9 14,-20 14,-35l0 -145c0,-14 -4,-25 -14,-34 -9,-10 -20,-14 -34,-14l-97 0 0 242zm0 48l0 120c0,7 -3,12 -8,17 -4,5 -10,7 -16,7 -6,0 -11,-2 -16,-6 -6,-4 -8,-10 -8,-18l0 -434c0,-16 8,-24 24,-24l121 0c26,0 48,9 68,28 19,18 28,41 28,68l0 145c0,27 -9,49 -28,68 -19,19 -42,29 -69,29l-96 0zm483 -97l0 -193 -97 0c-14,0 -25,4 -35,13 -4,5 -8,10 -10,16 -2,6 -4,12 -4,19l0 145c0,14 5,25 14,35 5,4 10,7 16,10 7,2 13,4 19,4l48 0c14,0 25,-5 35,-14 9,-9 14,-20 14,-35zm23 65c-7,9 -18,16 -31,22 -14,7 -27,10 -41,10l-48 0c-26,0 -49,-10 -68,-28 -19,-19 -29,-42 -29,-69l0 -145c0,-27 10,-49 29,-68 19,-19 41,-28 68,-28l121 0c16,0 24,8 24,24l0 216c0,10 3,20 9,30 6,9 14,16 24,21 10,4 15,11 15,22 0,7 -2,13 -7,17 -4,5 -10,8 -17,8 -3,0 -7,-1 -10,-3 -16,-6 -29,-16 -39,-29zm266 -258l-97 0 0 265c0,8 -2,14 -7,19 -4,4 -10,6 -17,6 -6,0 -12,-2 -17,-6 -5,-5 -7,-11 -7,-19l0 -289c0,-16 8,-24 24,-24l217 0c26,0 49,9 68,28 19,18 28,41 28,68l0 217c0,8 -2,14 -7,19 -4,4 -10,6 -17,6 -6,0 -12,-2 -17,-6 -4,-5 -7,-11 -7,-19l0 -217c0,-14 -4,-25 -13,-34 -9,-10 -21,-14 -35,-14l-48 0 0 265c0,8 -3,14 -7,19 -5,4 -10,6 -17,6 -7,0 -12,-2 -17,-6 -5,-5 -7,-11 -7,-19l0 -265zm337 97l145 0 0 -49c0,-13 -4,-25 -13,-34 -9,-10 -21,-14 -35,-14l-49 0c-13,0 -25,4 -34,13 -5,5 -8,10 -11,16 -2,6 -3,13 -3,19l0 49zm0 48l0 48c0,14 5,25 14,35 5,4 10,7 15,10 7,2 14,4 19,4l121 0c7,0 13,2 17,7 5,5 7,11 7,17 0,5 -2,10 -6,16 -4,5 -10,8 -18,8l-120 0c-27,0 -49,-10 -68,-28 -19,-19 -29,-42 -29,-69l0 -145c0,-26 9,-48 28,-68 19,-19 41,-28 69,-28l48 0c26,0 49,9 68,28 19,19 28,41 28,68l0 73c0,16 -8,24 -24,24l-169 0zm531 120c0,8 -2,14 -7,19 -4,4 -10,6 -17,6 -6,0 -12,-2 -17,-6 -5,-5 -7,-11 -7,-19l0 -265 -56 0 -90 273c-2,5 -5,10 -9,13 -1,1 -5,2 -13,4 -6,0 -12,-3 -17,-7 -5,-4 -8,-10 -8,-17l2 -8 95 -290c4,-11 11,-16 23,-16l97 0c16,0 24,8 24,24l0 289zm144 -121l0 98 97 0c15,0 27,-5 35,-15 9,-10 14,-21 14,-34 0,-14 -4,-25 -12,-34 -4,-4 -9,-8 -15,-11 -7,-2 -14,-4 -22,-4l-97 0zm0 -48l97 0c30,0 54,10 72,30 17,18 25,41 25,67 0,25 -8,48 -24,66 -18,20 -43,31 -73,31l-121 0c-16,0 -24,-8 -24,-25l0 -289c0,-7 3,-13 7,-18 5,-4 11,-6 17,-6 6,0 12,2 17,6 5,4 7,10 7,18l0 120zm483 0l0 -120c0,-7 3,-13 7,-18 5,-4 11,-6 17,-6 6,0 12,2 17,6 5,4 7,10 7,18l0 289c0,8 -2,14 -7,19 -4,4 -10,6 -17,6 -6,0 -12,-2 -17,-7 -4,-4 -7,-10 -7,-18l0 -121 -145 0 0 121c0,8 -2,14 -7,19 -4,4 -10,6 -17,6 -6,0 -12,-2 -17,-6 -5,-5 -7,-11 -7,-19l0 -289c0,-7 2,-13 7,-18 5,-4 11,-6 17,-6 6,0 12,2 16,6 5,4 8,10 8,18l0 120 145 0zm434 169c0,8 -2,14 -7,19 -4,4 -10,6 -17,6 -7,0 -12,-2 -17,-6 -5,-5 -7,-11 -7,-19l0 -289c0,-7 2,-13 7,-18 5,-4 10,-6 17,-6 6,0 12,2 16,6 5,4 8,10 8,18l0 289zm-242 -121l0 98 49 0c15,0 26,-5 35,-15 9,-10 13,-21 13,-34 0,-14 -4,-25 -12,-34 -3,-4 -9,-8 -15,-11 -6,-2 -13,-4 -21,-4l-49 0zm0 -48l49 0c30,0 54,10 72,30 16,18 24,41 24,67 0,25 -8,48 -24,66 -18,20 -42,31 -72,31l-72 0c-17,0 -24,-8 -24,-25l0 -289c0,-7 2,-13 7,-18 4,-4 10,-6 16,-6 7,0 12,2 17,6 5,4 7,10 7,18l0 120zm386 1l146 0 0 -49c0,-13 -5,-25 -14,-34 -9,-10 -21,-14 -35,-14l-48 0c-14,0 -25,4 -35,13 -4,5 -8,10 -10,16 -3,6 -4,13 -4,19l0 49zm0 48l0 48c0,14 5,25 14,35 5,4 10,7 16,10 7,2 13,4 19,4l121 0c6,0 12,2 17,7 4,5 7,11 7,17 0,5 -2,10 -6,16 -4,5 -10,8 -18,8l-121 0c-26,0 -49,-10 -68,-28 -19,-19 -29,-42 -29,-69l0 -145c0,-26 10,-48 28,-68 19,-19 42,-28 69,-28l48 0c26,0 49,9 68,28 19,19 29,41 29,68l0 73c0,16 -8,24 -24,24l-170 0z"/>
    <path class="fil3 str0" d="M6218 14012l-54 56 0 77c0,8 -2,14 -7,19 -4,4 -10,6 -17,6 -6,0 -12,-2 -17,-6 -5,-4 -7,-11 -7,-19l0 -289c0,-6 2,-12 7,-18 5,-4 11,-6 17,-6 6,0 12,2 16,6 5,4 8,10 8,18l0 142 153 -160c4,-5 9,-7 16,-7 5,0 10,2 16,7 5,5 8,11 8,18 0,7 -3,13 -8,19l-97 101 99 154c4,6 6,12 6,16 0,7 -3,13 -8,17 -5,5 -11,7 -17,7 -7,0 -12,-3 -17,-9l-97 -149zm457 51c0,29 -10,54 -31,75 -20,21 -45,32 -75,32l-29 0c-29,0 -53,-11 -74,-31 -22,-21 -32,-46 -32,-76l0 -125c0,-28 10,-53 31,-74 21,-22 46,-32 75,-32l29 0c29,0 54,10 75,30 21,21 31,46 31,76l0 125zm-48 1l0 -126c0,-16 -5,-30 -16,-41 -12,-12 -25,-17 -42,-17l-29 0c-16,0 -29,5 -41,17 -11,11 -17,25 -17,41l0 126c0,15 6,29 17,40 11,12 25,18 41,18l29 0c16,0 30,-6 41,-17 12,-11 17,-25 17,-41zm434 81l0 -289c0,-9 -2,-16 -6,-21 -4,-4 -10,-7 -16,-7 -7,0 -14,5 -22,14l-101 141 -101 -141c-6,-9 -14,-14 -22,-14 -6,0 -11,3 -16,8 -3,5 -5,12 -5,20l0 289c0,8 2,14 6,19 5,4 11,6 18,6 5,0 11,-3 16,-7 5,-4 8,-10 8,-18l0 -214 77 108c6,9 13,13 19,13 6,0 13,-4 20,-13l77 -108 0 214c0,8 2,14 7,19 4,4 10,6 17,6 6,0 11,-3 16,-7 5,-4 8,-10 8,-18zm338 0c0,17 -8,25 -24,25l-121 0c-26,0 -49,-10 -68,-28 -19,-19 -29,-42 -29,-69l0 -217c0,-7 3,-13 8,-18 4,-4 10,-6 16,-6 7,0 12,2 17,6 5,4 7,10 7,18l0 217c0,14 5,25 14,35 5,4 10,7 16,10 7,2 13,4 19,4l97 0 0 -266c0,-7 2,-13 7,-18 5,-4 10,-6 17,-6 6,0 12,2 16,6 5,4 8,10 8,18l0 289zm265 25l-72 0c-26,0 -49,-10 -68,-28 -19,-19 -29,-42 -29,-69l0 -145c0,-27 9,-49 28,-68 19,-19 42,-28 69,-28l72 0c7,0 12,2 17,7 5,5 7,11 7,17 0,5 -2,10 -6,16 -4,5 -10,8 -18,8l-73 0c-13,0 -25,4 -34,13 -5,5 -8,10 -11,16 -2,6 -3,12 -3,19l0 145c0,14 5,25 14,35 5,4 10,7 15,10 7,2 14,4 19,4l73 0c7,0 12,2 17,7 5,5 7,11 7,17 0,5 -2,10 -6,16 -4,5 -10,8 -18,8zm289 0l-72 0c-26,0 -49,-10 -68,-28 -19,-19 -29,-42 -29,-69l0 -145c0,-27 10,-49 29,-68 19,-19 41,-28 68,-28l72 0c7,0 13,2 18,7 4,5 7,11 7,17 0,5 -2,10 -6,16 -4,5 -10,8 -19,8l-72 0c-14,0 -25,4 -35,13 -4,5 -8,10 -10,16 -2,6 -4,12 -4,19l0 145c0,14 5,25 14,35 5,4 10,7 16,10 7,2 13,4 19,4l72 0c7,0 13,2 18,7 4,5 7,11 7,17 0,5 -2,10 -6,16 -4,5 -10,8 -19,8zm362 -25c0,17 -8,25 -24,25l-121 0c-26,0 -48,-10 -67,-28 -20,-19 -29,-42 -29,-69l0 -217c0,-7 2,-13 7,-18 5,-4 10,-6 17,-6 6,0 12,2 16,6 5,4 8,10 8,18l0 217c0,14 4,25 14,35 5,4 10,7 15,10 7,2 14,4 19,4l97 0 0 -266c0,-7 3,-13 7,-18 5,-4 11,-6 17,-6 6,0 12,2 17,6 5,4 7,10 7,18l0 289zm338 0c0,17 -8,25 -24,25l-121 0c-26,0 -49,-10 -68,-28 -19,-19 -29,-42 -29,-69l0 -217c0,-7 3,-13 8,-18 4,-4 10,-6 16,-6 7,0 12,2 17,6 5,4 7,10 7,18l0 217c0,14 5,25 14,35 5,4 10,7 16,10 7,2 13,4 19,4l97 0 0 -266c0,-7 2,-13 7,-18 5,-4 10,-6 17,-6 6,0 12,2 16,6 5,4 8,10 8,18l0 289z"/>
   </g>
   <g>
    <path class="fil3 str0" d="M6314 16091l-96 0c-26,0 -49,-9 -68,-28 -20,-19 -29,-42 -29,-69l0 -217c0,-6 2,-12 7,-18 5,-4 10,-6 17,-6 6,0 12,2 16,6 5,4 8,10 8,18l0 218c0,13 4,25 14,34 5,4 10,8 15,10 7,3 14,4 19,4l97 0 0 -266c0,-6 3,-12 7,-18 5,-4 11,-6 17,-6 6,0 12,2 17,6 5,4 7,10 7,18l0 362c0,26 -9,49 -28,68 -19,19 -41,29 -68,29l-97 0c-6,0 -12,-3 -18,-8 -4,-4 -6,-10 -6,-16 0,-7 2,-12 6,-17 4,-5 10,-7 18,-7l97 0c13,0 25,-5 34,-14 9,-9 14,-21 14,-35l0 -48zm338 -193l0 -121c0,-6 2,-12 7,-18 5,-4 10,-6 17,-6 6,0 12,2 16,6 5,4 8,10 8,18l0 290c0,7 -2,13 -7,18 -4,4 -10,6 -17,6 -7,0 -12,-2 -17,-6 -5,-4 -7,-10 -7,-18l0 -121 -97 0c-26,0 -48,-10 -68,-28 -19,-19 -29,-42 -29,-69l0 -72c0,-6 3,-12 8,-18 4,-4 10,-6 16,-6 7,0 12,2 17,6 5,4 7,10 7,18l0 72c0,14 5,25 14,35 5,4 10,7 16,10 7,2 13,4 19,4l97 0zm337 96l0 -193 -97 0c-13,0 -25,4 -34,14 -5,4 -8,10 -11,15 -2,6 -3,13 -3,19l0 145c0,14 5,26 14,35 5,4 10,8 15,10 7,3 14,4 19,4l49 0c13,0 25,-5 34,-14 10,-9 14,-20 14,-35zm24 65c-8,9 -18,17 -32,23 -13,6 -27,9 -40,9l-48 0c-26,0 -49,-9 -68,-28 -19,-19 -29,-42 -29,-69l0 -145c0,-26 9,-49 28,-68 19,-19 42,-28 69,-28l120 0c16,0 24,8 24,24l0 217c0,9 3,19 10,29 5,9 13,16 24,21 10,5 15,12 15,22 0,7 -3,13 -7,18 -4,4 -10,7 -17,7 -4,0 -7,-1 -10,-2 -16,-7 -29,-16 -39,-30zm290 32l-73 0c-26,0 -48,-9 -68,-28 -19,-19 -28,-42 -28,-69l0 -145c0,-26 9,-49 28,-68 19,-19 42,-28 68,-28l73 0c6,0 12,2 17,7 5,5 7,11 7,17 0,5 -2,11 -6,16 -4,5 -10,8 -18,8l-73 0c-14,0 -25,4 -34,14 -5,4 -9,10 -11,15 -2,6 -3,13 -3,19l0 145c0,14 4,26 14,35 4,4 10,8 15,10 7,3 13,4 19,4l73 0c6,0 12,2 17,7 5,5 7,11 7,17 0,5 -2,11 -6,16 -4,5 -10,8 -18,8zm265 -290l-97 0 0 266c0,7 -2,13 -7,18 -4,4 -10,6 -17,6 -6,0 -12,-2 -17,-6 -5,-4 -7,-10 -7,-18l0 -290c0,-16 8,-24 24,-24l217 0c26,0 49,9 68,28 19,19 28,42 28,68l0 218c0,7 -2,13 -6,18 -5,4 -11,6 -18,6 -6,0 -12,-2 -16,-6 -5,-4 -8,-10 -8,-18l0 -218c0,-13 -4,-25 -13,-34 -9,-9 -21,-14 -35,-14l-48 0 0 266c0,7 -3,13 -7,18 -4,4 -10,6 -17,6 -7,0 -12,-2 -17,-6 -5,-4 -7,-10 -7,-18l0 -266zm387 132l-55 57 0 77c0,7 -2,13 -7,18 -4,4 -10,6 -17,6 -6,0 -12,-2 -17,-6 -4,-4 -7,-10 -7,-18l0 -290c0,-6 3,-12 7,-18 5,-4 11,-6 17,-6 6,0 12,2 17,6 5,4 7,10 7,18l0 143 153 -161c5,-4 10,-7 16,-7 5,0 10,3 17,7 5,5 7,11 7,19 0,6 -3,12 -8,18l-97 102 99 153c4,7 6,12 6,16 0,7 -3,13 -8,17 -5,5 -10,8 -17,8 -6,0 -12,-3 -17,-10l-96 -149zm457 52c0,28 -11,53 -31,74 -21,21 -46,32 -76,32l-29 0c-28,0 -53,-10 -74,-31 -21,-20 -32,-45 -32,-75l0 -126c0,-28 11,-53 31,-74 21,-22 46,-32 75,-32l29 0c29,0 54,10 75,31 21,20 32,45 32,75l0 126zm-48 0l0 -126c0,-16 -6,-30 -17,-41 -11,-11 -25,-17 -41,-17l-30 0c-16,0 -29,6 -41,17 -11,11 -17,25 -17,41l0 126c0,16 6,29 17,41 11,11 25,17 41,17l30 0c15,0 29,-6 40,-17 12,-11 18,-25 18,-41zm337 10l0 -145c0,-14 -4,-25 -13,-35 -10,-9 -21,-14 -35,-14l-49 0c-13,0 -25,5 -34,14 -5,5 -8,10 -11,16 -2,6 -3,12 -3,19l0 145c0,13 4,25 14,34 5,4 10,8 15,10 7,3 14,4 19,4l49 0c13,0 25,-5 34,-14 10,-9 14,-20 14,-34zm-145 -225l20 -13 28 -20c10,-7 16,-13 20,-18 6,-7 9,-15 9,-23 0,-11 -3,-21 -11,-28 -8,-7 -17,-10 -27,-10 -11,0 -20,3 -28,10 -7,6 -11,15 -11,28l0 74zm97 -15c30,0 55,9 72,27 16,18 24,40 24,68l0 144c0,27 -9,49 -28,68 -19,19 -42,29 -68,29l-49 0c-26,0 -48,-9 -67,-28 -19,-19 -29,-42 -29,-69l0 -299c0,-26 9,-48 27,-65 17,-14 37,-22 60,-22 22,0 42,8 60,23 18,15 26,37 26,64 0,16 -2,27 -6,35 -4,8 -12,16 -22,25zm482 312c0,7 -2,13 -7,18 -4,4 -10,6 -17,6 -7,0 -12,-2 -17,-6 -5,-4 -7,-10 -7,-18l0 -290c0,-6 2,-12 7,-18 5,-4 10,-6 17,-6 6,0 12,2 16,6 5,4 8,10 8,18l0 290zm-242 -121l0 97 49 0c15,0 26,-5 35,-15 9,-10 13,-21 13,-34 0,-13 -4,-25 -12,-34 -4,-4 -9,-8 -15,-10 -6,-3 -13,-4 -21,-4l-49 0zm0 -48l49 0c30,0 54,10 72,30 16,18 24,40 24,66 0,26 -8,48 -24,67 -18,20 -42,30 -72,30l-72 0c-17,0 -25,-8 -25,-24l0 -290c0,-6 3,-12 8,-18 4,-4 10,-6 16,-6 7,0 12,2 17,6 5,4 7,10 7,18l0 121zm386 0l146 0 0 -48c0,-14 -5,-26 -14,-35 -9,-9 -21,-14 -35,-14l-48 0c-14,0 -25,4 -35,14 -4,4 -8,10 -10,16 -3,6 -4,12 -4,19l0 48zm0 48l0 49c0,13 5,25 14,34 5,4 10,8 16,10 7,3 13,4 19,4l121 0c6,0 12,2 17,7 4,5 7,11 7,17 0,5 -2,11 -6,16 -4,5 -10,8 -18,8l-121 0c-26,0 -49,-10 -68,-28 -19,-19 -29,-42 -29,-69l0 -145c0,-26 10,-48 28,-67 19,-19 42,-29 69,-29l48 0c26,0 49,9 68,28 19,19 29,42 29,69l0 72c0,16 -8,24 -24,24l-170 0zm821 121c0,16 -8,24 -24,24l-121 0c-26,0 -49,-9 -68,-28 -19,-19 -29,-42 -29,-69l0 -217c0,-6 3,-12 7,-18 5,-4 11,-6 17,-6 6,0 12,2 17,6 5,4 7,10 7,18l0 218c0,13 5,25 14,34 5,4 10,8 16,10 7,3 13,4 19,4l97 0 0 -266c0,-6 2,-12 7,-18 5,-4 10,-6 17,-6 6,0 11,2 16,6 5,4 8,10 8,18l0 290zm223 -121l-30 0c-8,0 -14,-3 -18,-7 -4,-5 -6,-11 -6,-17 0,-6 2,-12 6,-17 4,-5 10,-7 18,-7l24 0c15,0 26,-5 35,-15 9,-10 13,-21 13,-34 0,-13 -4,-24 -11,-33 -4,-5 -9,-8 -16,-11 -6,-3 -13,-4 -21,-4l-24 0c-23,0 -42,6 -58,20 -4,2 -9,4 -15,5 -5,0 -11,-3 -17,-7 -4,-5 -7,-11 -7,-18 0,-8 3,-14 10,-19 25,-19 54,-29 87,-29l24 0c30,0 54,10 72,30 16,18 24,40 24,66 0,8 0,15 -2,21 -1,6 -3,13 -5,19 -5,11 -13,22 -23,33 9,8 17,19 23,33l5 19c2,6 2,13 2,21 0,26 -8,48 -24,66 -17,20 -41,30 -72,30l-24 0c-33,0 -62,-10 -87,-29 -7,-5 -10,-11 -10,-19 0,-6 2,-11 7,-17 5,-6 11,-9 17,-9 4,0 9,2 15,6 17,13 36,20 58,20l24 0c15,0 26,-5 35,-15 9,-10 13,-21 13,-34 0,-13 -3,-23 -10,-32 -7,-8 -18,-14 -32,-16zm380 48l0 -145c0,-13 -5,-25 -14,-34 -9,-9 -21,-14 -35,-14l-48 0c-14,0 -25,4 -35,14 -4,4 -8,10 -10,15 -2,6 -4,13 -4,19l0 145c0,14 5,26 14,35 5,4 10,8 16,10 7,3 13,4 19,4l48 0c14,0 25,-5 35,-14 9,-9 14,-20 14,-35zm-78 -241l-108 -103c-6,-6 -9,-13 -9,-20 0,-5 2,-10 6,-15 4,-4 11,-7 20,-7l193 0c6,0 12,3 17,8 4,4 7,10 7,16 0,6 -2,11 -6,16 -4,6 -10,8 -18,8l-133 0 128 122 6 8c15,18 23,39 23,63l0 145c0,27 -10,49 -28,68 -19,19 -42,29 -69,29l-48 0c-26,0 -49,-9 -68,-28 -19,-19 -29,-42 -29,-69l0 -145c0,-26 10,-49 29,-68 18,-19 41,-28 68,-28l19 0zm463 314c0,16 -8,24 -24,24l-120 0c-26,0 -49,-9 -68,-28 -19,-19 -29,-42 -29,-69l0 -217c0,-6 2,-12 7,-18 5,-4 11,-6 17,-6 6,0 12,2 17,6 5,4 7,10 7,18l0 218c0,13 5,25 14,34 5,4 10,8 15,10 7,3 14,4 19,4l97 0 0 -266c0,-6 3,-12 8,-18 4,-4 10,-6 16,-6 6,0 12,2 17,6 5,4 7,10 7,18l0 290zm145 -24l97 0c13,0 24,-5 34,-14 9,-9 14,-20 14,-35l0 -145c0,-13 -5,-25 -14,-34 -9,-9 -20,-14 -34,-14l-97 0 0 242zm0 48l0 120c0,7 -3,13 -8,17 -5,5 -10,8 -16,8 -6,0 -11,-2 -16,-6 -6,-4 -8,-11 -8,-19l0 -434c0,-16 8,-24 24,-24l120 0c27,0 49,9 68,28 19,19 29,42 29,68l0 145c0,27 -9,49 -28,68 -19,19 -42,29 -69,29l-96 0zm483 -97l0 -193 -97 0c-14,0 -25,4 -35,14 -4,4 -8,10 -10,15 -3,6 -4,13 -4,19l0 145c0,14 5,26 14,35 5,4 10,8 16,10 7,3 13,4 19,4l48 0c14,0 25,-5 34,-14 10,-9 15,-20 15,-35zm23 65c-8,9 -18,17 -32,23 -13,6 -27,9 -40,9l-48 0c-26,0 -49,-9 -68,-28 -19,-19 -29,-42 -29,-69l0 -145c0,-26 10,-49 28,-68 19,-19 42,-28 69,-28l120 0c17,0 25,8 25,24l0 217c0,9 3,19 9,29 5,9 13,16 24,21 10,5 15,12 15,22 0,7 -2,13 -7,18 -4,4 -10,7 -17,7 -4,0 -7,-1 -10,-2 -16,-7 -29,-16 -39,-30zm266 -258l-97 0 0 266c0,7 -2,13 -7,18 -4,4 -10,6 -17,6 -6,0 -12,-2 -17,-6 -5,-4 -7,-10 -7,-18l0 -290c0,-16 8,-24 24,-24l217 0c26,0 49,9 68,28 19,19 28,42 28,68l0 218c0,7 -2,13 -7,18 -4,4 -10,6 -17,6 -6,0 -12,-2 -17,-6 -4,-4 -7,-10 -7,-18l0 -218c0,-13 -4,-25 -13,-34 -10,-9 -21,-14 -35,-14l-49 0 0 266c0,7 -2,13 -6,18 -5,4 -10,6 -17,6 -7,0 -12,-2 -17,-6 -5,-4 -7,-10 -7,-18l0 -266zm337 97l145 0 0 -48c0,-14 -4,-26 -13,-35 -10,-9 -21,-14 -35,-14l-49 0c-13,0 -25,4 -34,14 -5,4 -8,10 -11,16 -2,6 -3,12 -3,19l0 48zm0 48l0 49c0,13 4,25 14,34 5,4 10,8 15,10 7,3 13,4 19,4l121 0c7,0 12,2 17,7 5,5 7,11 7,17 0,5 -2,11 -6,16 -4,5 -10,8 -18,8l-121 0c-26,0 -48,-10 -68,-28 -19,-19 -28,-42 -28,-69l0 -145c0,-26 9,-48 28,-67 18,-19 41,-29 68,-29l49 0c26,0 48,9 68,28 19,19 28,42 28,69l0 72c0,16 -8,24 -24,24l-169 0zm531 121c0,7 -2,13 -7,18 -4,4 -10,6 -17,6 -7,0 -12,-2 -17,-6 -5,-4 -7,-10 -7,-18l0 -266 -56 0 -90 273c-2,6 -5,10 -9,13 -1,1 -5,2 -13,4 -7,0 -12,-2 -17,-7 -5,-4 -8,-10 -8,-16l2 -9 95 -290c4,-11 11,-16 23,-16l97 0c16,0 24,8 24,24l0 290zm144 -121l0 97 97 0c15,0 27,-5 35,-15 9,-10 13,-21 13,-34 0,-13 -3,-25 -11,-34 -4,-4 -9,-8 -16,-10 -6,-3 -13,-4 -21,-4l-97 0zm0 -48l97 0c30,0 54,10 72,30 16,18 24,40 24,66 0,26 -7,48 -23,67 -19,20 -43,30 -73,30l-121 0c-16,0 -24,-8 -24,-24l0 -290c0,-6 2,-12 7,-18 5,-4 11,-6 17,-6 6,0 12,2 17,6 5,4 7,10 7,18l0 121zm483 0l0 -121c0,-6 2,-12 7,-18 5,-4 11,-6 17,-6 6,0 12,2 17,6 5,4 7,10 7,18l0 290c0,7 -2,13 -7,18 -4,4 -10,6 -17,6 -6,0 -12,-2 -17,-6 -5,-4 -7,-10 -7,-18l0 -121 -145 0 0 121c0,7 -3,13 -7,18 -4,4 -10,6 -17,6 -7,0 -12,-2 -17,-6 -5,-4 -7,-10 -7,-18l0 -290c0,-6 2,-12 7,-18 5,-4 10,-6 17,-6 6,0 11,2 16,6 5,4 8,10 8,18l0 121 145 0zm434 169c0,7 -3,13 -7,18 -5,4 -10,6 -17,6 -7,0 -12,-2 -17,-6 -5,-4 -7,-10 -7,-18l0 -290c0,-6 2,-12 7,-18 5,-4 10,-6 17,-6 6,0 11,2 16,6 5,4 8,10 8,18l0 290zm-242 -121l0 97 49 0c14,0 26,-5 35,-15 9,-10 13,-21 13,-34 0,-13 -4,-25 -12,-34 -4,-4 -9,-8 -15,-10 -6,-3 -13,-4 -21,-4l-49 0zm0 -48l49 0c30,0 54,10 72,30 16,18 24,40 24,66 0,26 -8,48 -24,67 -18,20 -42,30 -72,30l-73 0c-16,0 -24,-8 -24,-24l0 -290c0,-6 3,-12 8,-18 4,-4 10,-6 16,-6 6,0 12,2 17,6 5,4 7,10 7,18l0 121zm386 0l145 0 0 -48c0,-14 -4,-26 -13,-35 -9,-9 -21,-14 -35,-14l-48 0c-14,0 -26,4 -35,14 -5,4 -8,10 -10,16 -3,6 -4,12 -4,19l0 48zm0 48l0 49c0,13 5,25 14,34 5,4 10,8 16,10 6,3 13,4 18,4l121 0c7,0 13,2 17,7 5,5 7,11 7,17 0,5 -2,11 -6,16 -4,5 -10,8 -18,8l-120 0c-27,0 -49,-10 -68,-28 -19,-19 -29,-42 -29,-69l0 -145c0,-26 9,-48 28,-67 19,-19 42,-29 69,-29l48 0c26,0 49,9 68,28 19,19 28,42 28,69l0 72c0,16 -8,24 -24,24l-169 0zm-7860 759l-54 57 0 77c0,7 -2,13 -7,18 -4,4 -10,6 -17,6 -6,0 -12,-2 -17,-6 -5,-4 -7,-10 -7,-18l0 -290c0,-6 2,-12 7,-18 5,-4 11,-6 17,-6 6,0 12,2 16,6 5,4 8,10 8,18l0 143 153 -161c4,-4 9,-7 16,-7 5,0 10,3 16,7 5,5 8,11 8,19 0,6 -3,12 -8,18l-97 102 99 153c4,7 6,12 6,16 0,7 -3,13 -8,17 -5,5 -11,8 -17,8 -7,0 -12,-3 -17,-10l-97 -149zm457 52c0,28 -10,53 -31,74 -20,21 -45,32 -75,32l-29 0c-29,0 -53,-10 -74,-31 -22,-20 -32,-45 -32,-75l0 -126c0,-28 10,-53 31,-74 21,-22 46,-32 75,-32l29 0c29,0 54,10 75,31 21,20 31,45 31,75l0 126zm-48 0l0 -126c0,-16 -5,-30 -16,-41 -12,-11 -25,-17 -42,-17l-29 0c-16,0 -29,6 -41,17 -11,11 -17,25 -17,41l0 126c0,16 6,29 17,41 11,11 25,17 41,17l29 0c16,0 30,-6 41,-17 12,-11 17,-25 17,-41zm434 82l0 -290c0,-9 -2,-16 -6,-20 -4,-5 -10,-8 -16,-8 -7,0 -14,5 -22,14l-101 142 -101 -142c-6,-9 -14,-14 -22,-14 -6,0 -11,3 -16,8 -3,5 -5,12 -5,20l0 290c0,7 2,13 6,18 5,4 11,6 18,6 5,0 11,-2 16,-6 5,-5 8,-11 8,-18l0 -214 77 107c6,9 13,13 19,13 6,0 13,-4 20,-13l77 -107 0 214c0,7 2,13 7,18 4,4 10,6 17,6 6,0 11,-2 16,-6 5,-5 8,-11 8,-18z"/>
    <path class="fil3 str0" d="M7399 16839c0,16 -8,24 -24,24l-121 0c-26,0 -49,-9 -68,-28 -19,-19 -29,-42 -29,-69l0 -217c0,-6 3,-12 8,-18 4,-4 10,-6 16,-6 7,0 12,2 17,6 5,4 7,10 7,18l0 218c0,13 5,25 14,34 5,4 10,8 16,10 7,3 13,4 19,4l97 0 0 -266c0,-6 2,-12 7,-18 5,-4 10,-6 17,-6 6,0 12,2 16,6 5,4 8,10 8,18l0 290zm265 24l-72 0c-26,0 -49,-9 -68,-28 -19,-19 -29,-42 -29,-69l0 -145c0,-26 9,-49 28,-68 19,-19 42,-28 69,-28l72 0c7,0 12,2 17,7 5,5 7,11 7,17 0,5 -2,11 -6,16 -4,5 -10,8 -18,8l-73 0c-13,0 -25,4 -34,14 -5,4 -8,10 -11,15 -2,6 -3,13 -3,19l0 145c0,14 5,26 14,35 5,4 10,8 15,10 7,3 14,4 19,4l73 0c7,0 12,2 17,7 5,5 7,11 7,17 0,5 -2,11 -6,16 -4,5 -10,8 -18,8zm289 0l-72 0c-26,0 -49,-9 -68,-28 -19,-19 -29,-42 -29,-69l0 -145c0,-26 10,-49 29,-68 19,-19 41,-28 68,-28l72 0c7,0 13,2 18,7 4,5 7,11 7,17 0,5 -2,11 -6,16 -4,5 -10,8 -19,8l-72 0c-14,0 -25,4 -35,14 -4,4 -8,10 -10,15 -2,6 -4,13 -4,19l0 145c0,14 5,26 14,35 5,4 10,8 16,10 7,3 13,4 19,4l72 0c7,0 13,2 18,7 4,5 7,11 7,17 0,5 -2,11 -6,16 -4,5 -10,8 -19,8zm362 -24c0,16 -8,24 -24,24l-121 0c-26,0 -48,-9 -67,-28 -20,-19 -29,-42 -29,-69l0 -217c0,-6 2,-12 7,-18 5,-4 10,-6 17,-6 6,0 12,2 16,6 5,4 8,10 8,18l0 218c0,13 4,25 14,34 5,4 10,8 15,10 7,3 14,4 19,4l97 0 0 -266c0,-6 3,-12 7,-18 5,-4 11,-6 17,-6 6,0 12,2 17,6 5,4 7,10 7,18l0 290zm338 0c0,16 -8,24 -24,24l-121 0c-26,0 -49,-9 -68,-28 -19,-19 -29,-42 -29,-69l0 -217c0,-6 3,-12 8,-18 4,-4 10,-6 16,-6 7,0 12,2 17,6 5,4 7,10 7,18l0 218c0,13 5,25 14,34 5,4 10,8 16,10 7,3 13,4 19,4l97 0 0 -266c0,-6 2,-12 7,-18 5,-4 10,-6 17,-6 6,0 12,2 16,6 5,4 8,10 8,18l0 290z"/>
   </g>
  </g>
 </g>
</svg>
