<?xml version="1.0" encoding="UTF-8"?>
<!DOCTYPE svg PUBLIC "-//W3C//DTD SVG 1.0//EN" "http://www.w3.org/TR/2001/REC-SVG-20010904/DTD/svg10.dtd">
<!-- Creator: CorelDRAW X7 -->
<svg xmlns="http://www.w3.org/2000/svg" xml:space="preserve" width="200mm" height="200mm" version="1.0" style="shape-rendering:geometricPrecision; text-rendering:geometricPrecision; image-rendering:optimizeQuality; fill-rule:evenodd; clip-rule:evenodd"
viewBox="0 0 20000 20000"
 xmlns:xlink="http://www.w3.org/1999/xlink">
 <defs>
  <style type="text/css">
   <![CDATA[
    .str3 {stroke:#4D897C;stroke-width:46.39}
    .str1 {stroke:#2B2A29;stroke-width:50}
    .str4 {stroke:#4D897C;stroke-width:50}
    .str2 {stroke:#4E897C;stroke-width:25}
    .str0 {stroke:#9B7560;stroke-width:25}
    .fil7 {fill:none;fill-rule:nonzero}
    .fil2 {fill:#FDEAD2}
    .fil4 {fill:#FCD5A6}
    .fil14 {fill:#4D897C}
    .fil22 {fill:#121112}
    .fil8 {fill:#4D8A7D}
    .fil21 {fill:#545251}
    .fil13 {fill:#72491D}
    .fil16 {fill:#8BA06D}
    .fil6 {fill:#9B7560}
    .fil20 {fill:#B7650B}
    .fil17 {fill:#D1CFC9}
    .fil19 {fill:#DD7D14}
    .fil12 {fill:#EA2C18}
    .fil18 {fill:#ED8F20}
    .fil11 {fill:#F7523C}
    .fil10 {fill:#F9ECE4}
    .fil5 {fill:#AB8082;fill-rule:nonzero}
    .fil15 {fill:#4D897C;fill-rule:nonzero}
    .fil3 {fill:#024541;fill-rule:nonzero}
    .fil9 {fill:#4D8A7D;fill-rule:nonzero}
    .fil0 {fill:url(#id0)}
    .fil1 {fill:url(#id1)}
   ]]>
  </style>
  <radialGradient id="id0" gradientUnits="userSpaceOnUse" gradientTransform="matrix(1.41421 -0 -0 1.41421 -4142 -4140)" cx="9999.37" cy="9994.13" r="10000" fx="9999.37" fy="9994.13">
   <stop offset="0" style="stop-opacity:1; stop-color:#FEFEFE"/>
   <stop offset="0.439216" style="stop-opacity:1; stop-color:#FEFEFE"/>
   <stop offset="1" style="stop-opacity:1; stop-color:#D1E2F2"/>
  </radialGradient>
  <radialGradient id="id1" gradientUnits="userSpaceOnUse" gradientTransform="matrix(1.41421 -0 -0 1.41421 -3993 -4129)" xlink:href="#id0" cx="9640.15" cy="9969.4" r="10000" fx="9640.15" fy="9969.4">
  </radialGradient>
 </defs>
 <g id="Layer_x0020_1">
  <metadata id="CorelCorpID_0Corel-Layer"/>
  <path class="fil0" d="M-1 -6l20000 0 0 20000 -20000 0 0 -20000z"/>
  <path class="fil1" d="M-360 -31l20000 0 0 20000 -20000 0 0 -20000z"/>
  <g id="_29466068640">
   <g>
    <path class="fil2" d="M4231 8340l11536 0 0 8649 0 1166 -11536 0 0 -9815z"/>
    <path id="1" class="fil3" d="M15767 8501l-11536 0 0 -321 11536 0 127 160 -127 161zm0 -321c70,0 127,72 127,160 0,89 -57,161 -127,161l0 -321zm-126 8809l0 -8649 253 0 0 8649 0 0 -253 0zm253 0c0,89 -57,160 -127,160 -70,0 -126,-71 -126,-160l253 0zm-253 1166l0 -1166 253 0 0 1166 -127 160 -126 -160zm253 0c0,88 -57,160 -127,160 -70,0 -126,-72 -126,-160l253 0zm-11663 -160l11536 0 0 320 -11536 0 -126 -160 126 -160zm0 320c-69,0 -126,-72 -126,-160 0,-88 57,-160 126,-160l0 320zm127 -9975l0 9815 -253 0 0 -9815 126 -160 127 160zm-253 0c0,-88 57,-160 126,-160 70,0 127,72 127,160l-253 0z"/>
   </g>
   <path class="fil4" d="M4231 8340l11536 0 0 4344 -11536 -3684c18,-339 0,-434 0,-660z"/>
   <g>
    <path class="fil3" d="M15767 8501l-11536 0 0 -321 11536 0 127 160 -127 161zm0 -321c70,0 127,72 127,160 0,89 -57,161 -127,161l0 -321zm0 10135l0 -320 -126 160 0 -307 0 -306 0 -307 0 -307 0 -307 0 -306 0 -307 0 -307 0 -306 0 -307 0 -307 0 -306 0 -307 0 -307 0 -307 0 -306 0 -307 0 -307 0 -306 0 -307 0 -307 0 -307 0 -306 0 -307 0 -307 0 -306 0 -307 0 -307 0 -306 0 -307 0 -307 0 -307 253 0 0 307 0 307 0 307 0 306 0 307 0 307 0 306 0 307 0 307 0 306 0 307 0 307 0 307 0 306 0 307 0 307 0 306 0 307 0 307 0 307 0 306 0 307 0 307 0 306 0 307 0 307 0 306 0 307 0 307 0 307 0 306 0 307 -127 160zm127 -160c0,88 -57,160 -127,160 -70,0 -126,-72 -126,-160l253 0zm-11663 -160l11536 0 0 320 -11536 0 -126 -160 126 -160zm0 320c-69,0 -126,-72 -126,-160 0,-88 57,-160 126,-160l0 320zm127 -9975l0 9815 -253 0 0 -9815 126 -160 127 160zm-253 0c0,-88 57,-160 126,-160 70,0 127,72 127,160l-253 0z"/>
   </g>
   <g>
    <path class="fil5" d="M6118 11487c-10,0 -19,-23 -19,-51 0,-28 9,-51 19,-51l0 102zm1280 0l-1280 0 0 -102 1280 0 0 102zm0 -102c11,0 19,23 19,51 0,28 -8,51 -19,51l0 -102z"/>
   </g>
   <g>
    <path class="fil5" d="M6138 17352c-51,0 -93,-23 -93,-52 0,-28 42,-51 93,-51l0 103zm6297 0l-6297 0 0 -103 6297 0 0 103zm0 -103c51,0 93,23 93,51 0,29 -42,52 -93,52l0 -103zm-6297 480c-51,0 -93,-23 -93,-51 0,-28 42,-51 93,-51l0 102zm2255 0l-2255 0 0 -102 2255 0 0 0 0 102zm0 -102c51,0 93,23 93,51 0,28 -42,51 -93,51l0 -102zm4042 102l-4042 0 0 -102 4042 0 0 102zm0 -102c51,0 93,23 93,51 0,28 -42,51 -93,51l0 -102z"/>
   </g>
   <g>
    <path class="fil5" d="M6136 17165c-52,0 -93,-23 -93,-51 0,-28 41,-51 93,-51l0 102zm6297 0l-6297 0 0 -102 6297 0 0 102zm0 -102c51,0 93,23 93,51 0,28 -42,51 -93,51l0 -102zm-6297 479c-52,0 -93,-22 -93,-51 0,-28 41,-51 93,-51l0 102zm2254 0l-2254 0 0 -102 2254 0 0 0 0 102zm0 -102c52,0 93,23 93,51 0,29 -41,51 -93,51l0 -102zm4043 102l-4043 0 0 -102 4043 0 0 102zm0 -102c51,0 93,23 93,51 0,29 -42,51 -93,51l0 -102z"/>
   </g>
   <g>
    <path class="fil5" d="M8094 11487c-11,0 -19,-23 -19,-51 0,-28 8,-51 19,-51l0 102zm1280 0l-1280 0 0 -102 1280 0 0 102zm0 -102c10,0 19,23 19,51 0,28 -9,51 -19,51l0 -102z"/>
   </g>
   <g>
    <path class="fil5" d="M10069 11487c-10,0 -18,-23 -18,-51 0,-28 8,-51 18,-51l0 102zm1280 0l-1280 0 0 -102 1280 0 0 102zm0 -102c11,0 19,23 19,51 0,28 -8,51 -19,51l0 -102z"/>
   </g>
   <g>
    <path class="fil5" d="M6118 11759c-10,0 -19,-23 -19,-51 0,-28 9,-51 19,-51l0 102zm1280 0l-1280 0 0 -102 1280 0 0 102zm0 -102c11,0 19,23 19,51 0,28 -8,51 -19,51l0 -102z"/>
   </g>
   <g>
    <path class="fil5" d="M8094 11759c-11,0 -19,-23 -19,-51 0,-28 8,-51 19,-51l0 102zm1280 0l-1280 0 0 -102 1280 0 0 102zm0 -102c10,0 19,23 19,51 0,28 -9,51 -19,51l0 -102z"/>
   </g>
   <g>
    <path class="fil5" d="M10069 11759c-10,0 -18,-23 -18,-51 0,-28 8,-51 18,-51l0 102zm1280 0l-1280 0 0 -102 1280 0 0 102zm0 -102c11,0 19,23 19,51 0,28 -8,51 -19,51l0 -102z"/>
   </g>
   <g>
    <path class="fil5" d="M6118 11999c-10,0 -19,-23 -19,-52 0,-28 9,-51 19,-51l0 103zm1280 0l-1280 0 0 -103 1280 0 0 103zm0 -103c11,0 19,23 19,51 0,29 -8,52 -19,52l0 -103z"/>
   </g>
   <g>
    <path class="fil5" d="M8094 11999c-11,0 -19,-23 -19,-52 0,-28 8,-51 19,-51l0 103zm1280 0l-1280 0 0 -103 1280 0 0 103zm0 -103c10,0 19,23 19,51 0,29 -9,52 -19,52l0 -103z"/>
   </g>
   <g>
    <path class="fil5" d="M10069 11999c-10,0 -18,-23 -18,-52 0,-28 8,-51 18,-51l0 103zm1280 0l-1280 0 0 -103 1280 0 0 103zm0 -103c11,0 19,23 19,51 0,29 -8,52 -19,52l0 -103z"/>
   </g>
   <g>
    <path class="fil5" d="M6118 12271c-10,0 -19,-23 -19,-52 0,-28 9,-51 19,-51l0 103zm1280 0l-1280 0 0 -103 1280 0 0 103zm0 -103c11,0 19,23 19,51 0,29 -8,52 -19,52l0 -103z"/>
   </g>
   <g>
    <path class="fil5" d="M8094 12271c-11,0 -19,-23 -19,-52 0,-28 8,-51 19,-51l0 103zm1280 0l-1280 0 0 -103 1280 0 0 103zm0 -103c10,0 19,23 19,51 0,29 -9,52 -19,52l0 -103z"/>
   </g>
   <g>
    <path class="fil5" d="M10069 12271c-10,0 -18,-23 -18,-52 0,-28 8,-51 18,-51l0 103zm1280 0l-1280 0 0 -103 1280 0 0 103zm0 -103c11,0 19,23 19,51 0,29 -8,52 -19,52l0 -103z"/>
   </g>
   <path class="fil6 str0" d="M6118 9406l-181 0c-39,0 -73,-14 -102,-42 -28,-28 -42,-62 -42,-103l0 -434c0,-40 14,-75 42,-103 28,-28 62,-42 102,-42l181 0c10,0 19,4 26,11 7,7 11,16 11,25 0,8 -3,16 -9,24 -7,8 -16,12 -28,12l-181 0c-20,0 -38,7 -52,21 -7,7 -12,15 -15,23 -4,9 -6,19 -6,29l0 435c0,20 7,37 21,51 8,7 15,12 24,16 10,3 19,5 28,5l181 0c10,0 19,4 26,11 7,7 11,16 11,25 0,8 -3,16 -9,24 -7,8 -16,12 -28,12zm615 -36c0,11 -4,20 -10,27 -7,6 -16,9 -26,9 -10,0 -18,-3 -25,-9 -8,-6 -11,-15 -11,-27l0 -616 -290 0 0 616c0,11 -3,20 -10,27 -7,6 -16,9 -26,9 -10,0 -18,-3 -25,-9 -8,-6 -11,-15 -11,-27l0 -652c0,-24 12,-36 36,-36l362 0c24,0 36,12 36,36l0 652zm579 0c0,11 -4,20 -11,27 -6,6 -15,9 -25,9 -10,0 -18,-3 -26,-9 -7,-6 -10,-15 -10,-27l0 -512 -294 530c-4,7 -10,13 -16,17l-8 4c-2,1 -6,2 -11,3 -7,0 -15,-3 -24,-11 -6,-7 -9,-17 -9,-31l0 -651c0,-10 3,-19 10,-27 8,-6 16,-9 26,-9 9,0 17,3 24,9 8,6 12,15 12,27l0 511 293 -529c4,-5 9,-11 16,-17 6,-5 13,-7 19,-7 8,0 16,4 23,11 7,8 11,18 11,30l0 652zm470 36l-181 0c-39,0 -73,-14 -102,-42 -28,-28 -43,-62 -43,-103l0 -434c0,-40 14,-75 43,-103 28,-28 62,-42 102,-42l181 0c10,0 19,4 26,11 7,7 10,16 10,25 0,8 -3,16 -8,24 -7,8 -16,12 -28,12l-181 0c-20,0 -38,7 -52,21 -7,7 -12,15 -16,23 -3,9 -5,19 -5,29l0 435c0,20 7,37 21,51 7,7 15,12 23,16 11,3 20,5 29,5l181 0c10,0 19,4 26,11 7,7 10,16 10,25 0,8 -3,16 -8,24 -7,8 -16,12 -28,12zm582 -145c0,40 -14,74 -42,102 -28,29 -63,43 -103,43l-144 0c-40,0 -73,-14 -102,-42 -29,-28 -43,-62 -43,-103l0 -434c0,-40 14,-75 42,-103 28,-28 63,-42 103,-42l144 0c41,0 75,14 103,42 28,29 42,63 42,103l0 434zm-72 1l0 -435c0,-21 -7,-38 -20,-52 -14,-14 -31,-21 -52,-21l-145 0c-21,0 -38,7 -52,21 -7,7 -12,15 -16,23 -3,9 -5,19 -5,29l0 435c0,20 7,37 21,51 7,7 15,12 23,16 10,3 20,5 29,5l145 0c20,0 37,-7 51,-20 14,-14 21,-31 21,-52zm347 -268l305 -302c7,-7 15,-10 25,-10 9,0 17,4 25,11 8,8 11,16 11,26 0,7 -3,15 -11,25l-215 215 222 393 5 19c0,9 -4,17 -12,24 -7,7 -16,11 -26,11 -12,0 -22,-6 -30,-19l-213 -377 -86 84 0 276c0,11 -4,20 -11,27 -6,6 -15,9 -25,9 -10,0 -18,-3 -25,-9 -8,-6 -11,-15 -11,-27l0 -653c0,-9 3,-17 11,-24 7,-7 16,-11 25,-11 9,0 17,3 25,8 7,7 11,16 11,27l0 277zm1017 340l68 -620c0,-21 12,-32 36,-32l217 0c24,0 36,12 36,36l0 616 37 0c24,0 37,12 37,36l0 72c0,10 -4,18 -12,25 -7,7 -15,11 -24,11 -9,0 -17,-3 -25,-9 -8,-6 -11,-15 -11,-27l0 -36 -363 0 0 36c0,10 -4,18 -12,25 -7,7 -15,11 -24,11 -9,0 -17,-3 -25,-9 -8,-6 -11,-15 -11,-27l0 -72c0,-24 12,-36 36,-36l40 0zm286 0l0 -580 -149 0 -65 580 214 0zm690 -73c0,40 -14,74 -42,102 -29,29 -63,43 -103,43l-144 0c-40,0 -74,-14 -102,-42 -29,-28 -43,-62 -43,-103l0 -434c0,-40 14,-75 42,-103 28,-28 62,-42 103,-42l144 0c40,0 75,14 103,42 28,29 42,63 42,103l0 434zm-72 1l0 -435c0,-21 -7,-38 -21,-52 -13,-14 -31,-21 -52,-21l-145 0c-20,0 -37,7 -51,21 -7,7 -12,15 -16,23 -3,9 -5,19 -5,29l0 435c0,20 7,37 21,51 7,7 15,12 23,16 10,3 20,5 28,5l145 0c21,0 37,-7 52,-20 14,-14 21,-31 21,-52zm601 144l-182 0c-39,0 -73,-14 -102,-42 -28,-28 -42,-62 -42,-103l0 -434c0,-40 14,-75 42,-103 28,-28 62,-42 102,-42l182 0c9,0 18,4 25,11 7,7 11,16 11,25 0,8 -3,16 -9,24 -6,8 -15,12 -28,12l-181 0c-20,0 -38,7 -52,21 -7,7 -12,15 -15,23 -4,9 -5,19 -5,29l0 435c0,20 6,37 20,51 8,7 15,12 24,16 10,3 19,5 28,5l181 0c10,0 19,4 26,11 7,7 11,16 11,25 0,8 -3,16 -9,24 -6,8 -15,12 -27,12zm252 -362l217 0c21,0 37,-7 52,-20 14,-14 21,-31 21,-52l0 -145c0,-21 -7,-38 -21,-52 -13,-14 -31,-21 -52,-21l-217 0 0 290zm0 72l0 254c0,11 -3,20 -10,27 -7,6 -15,9 -26,9 -10,0 -18,-3 -25,-9 -7,-6 -11,-15 -11,-27l0 -652c0,-24 12,-36 36,-36l253 0c40,0 75,14 103,42 28,29 42,63 42,103l0 144c0,40 -14,74 -42,102 -29,29 -63,43 -103,43l-217 0zm941 145c0,40 -14,74 -43,102 -28,29 -62,43 -102,43l-145 0c-39,0 -73,-14 -101,-42 -29,-28 -43,-62 -43,-103l0 -434c0,-40 14,-75 42,-103 28,-28 62,-42 102,-42l145 0c40,0 74,14 102,42 29,29 43,63 43,103l0 434zm-72 1l0 -435c0,-21 -7,-38 -21,-52 -13,-14 -31,-21 -52,-21l-145 0c-20,0 -37,7 -52,21 -7,7 -12,15 -15,23 -4,9 -5,19 -5,29l0 435c0,20 7,37 20,51 8,7 15,12 24,16 10,3 20,5 28,5l145 0c20,0 37,-7 51,-20 15,-14 22,-31 22,-52zm636 -218l0 -326c0,-9 4,-18 11,-27 7,-6 16,-9 25,-9 9,0 18,3 25,9 8,6 11,15 11,27l0 652c0,11 -3,20 -10,27 -7,6 -15,9 -26,9 -9,0 -18,-3 -25,-9 -7,-6 -11,-15 -11,-27l0 -254 -217 0c-39,0 -73,-14 -102,-42 -28,-28 -43,-62 -43,-103l0 -253c0,-9 4,-18 11,-27 7,-6 16,-9 25,-9 9,0 18,3 25,9 8,6 11,15 11,27l0 254c0,20 7,37 21,51 7,7 15,12 23,16 11,3 20,5 29,5l217 0zm579 -72l0 -254c0,-9 4,-18 11,-25 7,-7 15,-11 25,-11 9,0 18,3 25,9 7,6 11,15 11,27l0 651c0,10 -4,19 -11,27 -9,7 -17,10 -26,10 -8,0 -17,-3 -25,-9 -7,-6 -10,-15 -10,-27l0 -326 -290 0 0 326c0,11 -3,20 -10,27 -7,6 -15,9 -26,9 -10,0 -18,-3 -25,-9 -7,-6 -11,-15 -11,-27l0 -651c0,-10 4,-19 11,-27 7,-6 15,-9 25,-9 9,0 18,3 25,9 7,6 11,15 11,27l0 253 290 0zm651 289c0,40 -14,74 -43,102 -28,29 -62,43 -102,43l-145 0c-39,0 -73,-14 -101,-42 -29,-28 -43,-62 -43,-103l0 -434c0,-40 14,-75 42,-103 28,-28 62,-42 102,-42l145 0c40,0 74,14 103,42 28,29 42,63 42,103l0 434zm-72 1l0 -435c0,-21 -7,-38 -21,-52 -13,-14 -31,-21 -52,-21l-145 0c-20,0 -37,7 -52,21 -7,7 -12,15 -15,23 -4,9 -5,19 -5,29l0 435c0,20 7,37 20,51 8,7 16,12 24,16 10,3 20,5 28,5l145 0c20,0 37,-7 52,-20 14,-14 21,-31 21,-52zm-8010 1266c0,11 -3,20 -10,27 -7,6 -15,9 -26,9 -10,0 -18,-3 -25,-9 -8,-6 -11,-15 -11,-27l0 -616 -290 0 0 616c0,11 -3,20 -10,27 -7,6 -15,9 -26,9 -10,0 -18,-3 -25,-9 -7,-6 -11,-15 -11,-27l0 -652c0,-24 12,-36 36,-36l362 0c24,0 36,12 36,36l0 652zm217 -326l217 0c20,0 37,-7 52,-20 14,-14 21,-31 21,-52l0 -145c0,-21 -7,-38 -21,-52 -13,-14 -31,-21 -52,-21l-217 0 0 290zm0 72l0 254c0,11 -4,20 -11,27 -6,6 -15,9 -25,9 -10,0 -18,-3 -26,-9 -7,-6 -10,-15 -10,-27l0 -652c0,-24 12,-36 36,-36l253 0c40,0 74,14 102,42 29,29 43,63 43,103l0 144c0,40 -14,74 -43,102 -28,29 -62,43 -102,43l-217 0zm940 145c0,40 -14,74 -42,102 -28,29 -62,43 -102,43l-145 0c-39,0 -73,-14 -102,-42 -28,-28 -43,-62 -43,-103l0 -434c0,-40 15,-75 43,-103 28,-28 62,-42 102,-42l145 0c40,0 74,14 102,42 28,29 42,63 42,103l0 434zm-72 1l0 -435c0,-21 -6,-38 -20,-52 -14,-14 -31,-21 -52,-21l-145 0c-20,0 -38,7 -52,21 -7,7 -12,15 -15,23 -4,9 -6,19 -6,29l0 435c0,20 7,37 21,51 7,7 15,12 24,16 10,3 19,5 28,5l145 0c20,0 37,-7 51,-20 14,-14 21,-31 21,-52zm601 -508l-254 0 0 616c0,11 -3,20 -10,27 -7,6 -15,9 -26,9 -10,0 -18,-3 -25,-9 -7,-6 -11,-15 -11,-27l0 -652c0,-24 12,-36 36,-36l290 0c10,0 19,4 26,11 7,7 10,16 10,25 0,8 -3,16 -9,24 -6,8 -15,12 -27,12zm578 507c0,40 -14,74 -43,102 -28,29 -62,43 -102,43l-145 0c-39,0 -73,-14 -101,-42 -29,-28 -43,-62 -43,-103l0 -434c0,-40 14,-75 42,-103 28,-28 62,-42 102,-42l145 0c40,0 74,14 103,42 28,29 42,63 42,103l0 434zm-72 1l0 -435c0,-21 -7,-38 -21,-52 -13,-14 -31,-21 -52,-21l-145 0c-20,0 -37,7 -52,21 -7,7 -12,15 -15,23 -4,9 -5,19 -5,29l0 435c0,20 7,37 20,51 8,7 16,12 24,16 10,3 20,5 28,5l145 0c20,0 37,-7 52,-20 14,-14 21,-31 21,-52zm637 108c0,11 -3,20 -10,27 -7,6 -15,9 -26,9 -10,0 -18,-3 -25,-9 -7,-6 -11,-15 -11,-27l0 -616 -118 0 -174 625c-1,7 -5,14 -12,19 -6,5 -14,8 -22,8 -11,0 -19,-3 -26,-9 -7,-6 -11,-15 -11,-26 0,-5 1,-8 2,-10l181 -652c5,-18 17,-27 35,-27l181 0c24,0 36,12 36,36l0 652zm578 -109c0,40 -14,74 -43,102 -28,29 -62,43 -102,43l-145 0c-39,0 -73,-14 -101,-42 -29,-28 -43,-62 -43,-103l0 -434c0,-40 14,-75 42,-103 28,-28 62,-42 102,-42l145 0c40,0 74,14 103,42 28,29 42,63 42,103l0 434zm-72 1l0 -435c0,-21 -7,-38 -21,-52 -13,-14 -31,-21 -52,-21l-145 0c-20,0 -37,7 -52,21 -7,7 -12,15 -15,23 -4,9 -5,19 -5,29l0 435c0,20 7,37 20,51 8,7 16,12 24,16 10,3 20,5 28,5l145 0c20,0 37,-7 52,-20 14,-14 21,-31 21,-52zm600 144l-181 0c-39,0 -73,-14 -102,-42 -28,-28 -43,-62 -43,-103l0 -434c0,-40 14,-75 43,-103 28,-28 62,-42 102,-42l181 0c10,0 19,4 26,11 7,7 10,16 10,25 0,8 -3,16 -9,24 -6,8 -15,12 -27,12l-181 0c-20,0 -38,7 -52,21 -7,7 -12,15 -16,23 -3,9 -5,19 -5,29l0 435c0,20 7,37 21,51 7,7 15,12 23,16 11,3 20,5 29,5l181 0c10,0 19,4 26,11 7,7 10,16 10,25 0,8 -3,16 -9,24 -6,8 -15,12 -27,12zm582 -145c0,40 -14,74 -42,102 -29,29 -63,43 -103,43l-144 0c-40,0 -73,-14 -102,-42 -29,-28 -43,-62 -43,-103l0 -434c0,-40 14,-75 42,-103 28,-28 63,-42 103,-42l144 0c41,0 75,14 103,42 28,29 42,63 42,103l0 434zm-72 1l0 -435c0,-21 -7,-38 -20,-52 -14,-14 -31,-21 -52,-21l-145 0c-21,0 -38,7 -52,21 -7,7 -12,15 -16,23 -3,9 -5,19 -5,29l0 435c0,20 7,37 21,51 7,7 15,12 23,16 10,3 20,5 29,5l145 0c20,0 37,-7 51,-20 14,-14 21,-31 21,-52zm640 -269c20,12 37,30 50,52 12,23 19,46 19,72l0 144c0,40 -14,74 -43,102 -28,29 -62,43 -102,43l-253 0c-24,0 -36,-12 -36,-36l0 -652c0,-24 12,-36 36,-36l217 0c40,0 74,14 102,42 29,29 43,63 43,103l0 72c0,17 -3,33 -8,48 -5,16 -14,31 -25,46zm-293 51l0 290 217 0c20,0 37,-7 52,-20 14,-14 21,-31 21,-52l0 -145c0,-21 -7,-38 -21,-52 -13,-14 -31,-21 -52,-21l-217 0zm181 -72c20,0 37,-7 52,-20 14,-14 21,-31 21,-53l0 -72c0,-21 -7,-38 -21,-52 -13,-14 -31,-21 -52,-21l-181 0 0 218 181 0zm416 253l-52 156c-3,8 -8,14 -14,19 -5,3 -11,5 -19,6 -10,0 -19,-3 -26,-10 -8,-7 -12,-15 -12,-25l3 -13 217 -651c8,-21 19,-31 35,-31 15,0 26,10 34,31l216 651 3 13c0,9 -4,18 -12,25 -8,7 -16,10 -25,10 -5,0 -11,-1 -17,-4 -6,-2 -11,-9 -17,-21l-52 -156 -262 0zm238 -74l-106 -319 -107 319 213 0zm651 -158c20,12 37,30 50,52 12,23 19,46 19,72l0 144c0,40 -14,74 -43,102 -28,29 -62,43 -102,43l-253 0c-24,0 -36,-12 -36,-36l0 -652c0,-24 12,-36 36,-36l217 0c40,0 75,14 103,42 28,29 42,63 42,103l0 72c0,17 -3,33 -8,48 -5,16 -14,31 -25,46zm-293 51l0 290 217 0c20,0 37,-7 52,-20 14,-14 21,-31 21,-52l0 -145c0,-21 -7,-38 -21,-52 -13,-14 -31,-21 -52,-21l-217 0zm181 -72c20,0 37,-7 52,-20 14,-14 21,-31 21,-53l0 -72c0,-21 -7,-38 -21,-52 -13,-14 -31,-21 -52,-21l-181 0 0 218 181 0zm650 362l181 0 0 -616c0,-9 4,-18 11,-27 7,-6 16,-9 25,-9 9,0 18,3 26,9 7,6 10,15 10,27l0 652c0,24 -12,36 -36,36l-505 0c-24,0 -36,-12 -36,-36l0 -652c0,-9 3,-18 10,-27 8,-6 16,-9 26,-9 9,0 17,3 24,9 8,6 12,15 12,27l0 616 180 0 0 -616c0,-9 4,-18 11,-27 7,-6 16,-9 25,-9 10,0 18,3 25,9 8,6 11,15 11,27l0 616zm833 36c0,11 -3,20 -10,27 -7,6 -15,9 -26,9 -10,0 -18,-3 -25,-9 -7,-6 -11,-15 -11,-27l0 -512 -294 530c-4,7 -9,13 -16,17l-7 4c-3,1 -7,2 -12,3 -7,0 -15,-3 -24,-11 -6,-7 -9,-17 -9,-31l0 -651c0,-10 4,-19 11,-27 7,-6 16,-10 25,-10 9,0 18,4 25,10 7,6 11,15 11,27l0 511 294 -529c3,-5 8,-11 15,-17 7,-5 13,-8 20,-8 8,0 15,5 22,12 7,8 11,18 11,30l0 652zm398 -392l187 -280c3,-5 7,-9 13,-13l7 -3 9 0c9,0 18,4 26,11 8,7 12,16 12,26 0,6 -2,13 -6,20l-204 305 204 305 4 11 2 10c0,9 -4,18 -11,25 -8,7 -17,11 -28,11 -11,0 -21,-5 -28,-17l-187 -279 -186 279c-3,5 -7,9 -14,13l-16 4c-8,0 -16,-4 -25,-11 -8,-7 -12,-16 -12,-26 0,-6 2,-13 6,-20l203 -305 -204 -305 -5 -11 0 -10c0,-9 4,-17 11,-25 7,-7 16,-11 27,-11 11,0 21,6 29,17l186 279z"/>
   <g>
    <path class="fil7 str1" d="M4603 16497l0 -3845 6177 0 2417 0 2148 0 0 3845 -10742 0z"/>
    <g>
     <path class="fil6 str0" d="M7696 13123l0 -108c0,-6 2,-11 6,-16 4,-4 10,-6 15,-6 6,0 11,2 15,6 5,3 7,9 7,16l0 261c0,6 -2,12 -6,16 -4,4 -9,5 -16,5 -5,0 -11,-1 -15,-5 -4,-4 -6,-9 -6,-16l0 -109 -131 0 0 109c0,6 -2,12 -6,16 -4,4 -9,5 -16,5 -5,0 -11,-1 -15,-5 -4,-4 -6,-9 -6,-16l0 -261c0,-6 2,-11 6,-16 4,-4 10,-6 15,-6 6,0 11,2 15,6 5,3 7,9 7,16l0 108 131 0zm347 79c0,26 -10,48 -28,67 -19,19 -41,28 -68,28l-26 0c-26,0 -48,-9 -67,-27 -19,-19 -28,-41 -28,-68l0 -113c0,-26 9,-48 27,-67 19,-19 42,-29 68,-29l26 0c26,0 48,9 67,28 19,18 29,41 29,68l0 113zm-43 0l0 -113c0,-15 -6,-27 -16,-37 -10,-10 -22,-16 -37,-16l-26 0c-14,0 -27,5 -37,16 -10,10 -15,22 -15,37l0 113c0,14 5,26 15,37 10,10 22,15 37,15l26 0c14,0 27,-5 37,-15 10,-10 16,-22 16,-37zm390 74l0 -261c0,-8 -2,-14 -6,-18 -4,-5 -8,-7 -14,-7 -6,0 -13,4 -20,12l-90 128 -91 -128c-6,-8 -13,-12 -20,-12 -5,0 -10,2 -14,7 -4,4 -6,10 -6,18l0 261c0,6 2,12 7,16 3,4 9,5 15,5 5,0 10,-2 15,-5 4,-4 7,-10 7,-16l0 -193 69 97c6,7 12,11 18,11 5,0 11,-4 17,-11l70 -97 0 193c0,6 2,12 6,16 4,4 9,5 15,5 5,0 10,-2 15,-5 4,-4 7,-10 7,-16zm130 -152l131 0 0 -44c0,-12 -5,-22 -13,-31 -8,-8 -18,-13 -31,-13l-44 0c-12,0 -22,4 -31,13 -4,4 -7,9 -9,14 -2,5 -3,11 -3,17l0 44zm0 43l0 44c0,12 4,22 12,31 5,3 9,7 14,9 6,2 12,3 17,3l109 0c6,0 11,2 15,7 5,4 7,9 7,15 0,5 -2,10 -6,14 -3,5 -9,7 -16,7l-108 0c-24,0 -44,-8 -62,-25 -17,-17 -25,-37 -25,-62l0 -130c0,-23 8,-44 25,-61 17,-17 37,-26 62,-26l43 0c23,0 44,9 61,25 17,17 26,38 26,62l0 65c0,15 -7,22 -22,22l-152 0zm304 87l87 0c12,0 22,-4 31,-12 8,-8 12,-19 12,-31l0 -131c0,-12 -4,-23 -12,-31 -8,-8 -18,-13 -31,-13l-87 0 0 218zm0 43l0 109c0,6 -3,11 -7,15 -4,4 -9,7 -15,7 -5,0 -10,-2 -14,-6 -5,-3 -8,-9 -8,-16l0 -391c0,-15 8,-22 22,-22l109 0c23,0 44,9 61,25 17,17 26,38 26,62l0 130c0,24 -9,45 -26,62 -17,17 -37,25 -61,25l-87 0zm738 -21c0,6 -2,12 -6,16 -4,4 -9,5 -16,5 -5,0 -10,-1 -15,-5 -4,-4 -6,-9 -6,-16l0 -196c0,-12 -4,-23 -13,-31 -8,-8 -18,-13 -31,-13l-87 0 0 240c0,6 -2,12 -6,16 -4,4 -9,5 -16,5 -5,0 -10,-1 -15,-5 -4,-4 -6,-9 -6,-16l0 -261c0,-15 7,-22 21,-22l109 0c23,0 44,9 61,25 17,17 26,37 26,62l0 196zm304 -74c0,26 -9,48 -28,67 -18,19 -41,28 -68,28l-26 0c-26,0 -48,-9 -67,-27 -19,-19 -28,-41 -28,-68l0 -113c0,-26 9,-48 28,-67 18,-19 41,-29 67,-29l26 0c26,0 48,9 67,28 19,18 29,41 29,68l0 113zm-43 0l0 -113c0,-15 -5,-27 -16,-37 -10,-10 -22,-16 -37,-16l-26 0c-14,0 -26,5 -37,16 -10,10 -15,22 -15,37l0 113c0,14 5,26 15,37 10,10 23,15 37,15l26 0c14,0 27,-5 37,-15 10,-10 16,-22 16,-37zm607 74c0,6 -2,12 -6,16 -4,4 -9,5 -15,5 -6,0 -11,-1 -16,-5 -4,-4 -6,-9 -6,-16l0 -196c0,-12 -4,-23 -12,-31 -9,-8 -19,-13 -32,-13l-87 0 0 240c0,6 -2,12 -6,16 -4,4 -9,5 -15,5 -6,0 -11,-1 -16,-5 -4,-4 -6,-9 -6,-16l0 -261c0,-15 7,-22 22,-22l108 0c23,0 44,9 61,25 17,17 26,37 26,62l0 196zm304 -74c0,26 -9,48 -28,67 -18,19 -41,28 -68,28l-26 0c-25,0 -48,-9 -67,-27 -19,-19 -28,-41 -28,-68l0 -113c0,-26 9,-48 28,-67 18,-19 41,-29 67,-29l26 0c26,0 49,9 68,28 19,18 28,41 28,68l0 113zm-43 0l0 -113c0,-15 -5,-27 -15,-37 -10,-10 -23,-16 -38,-16l-26 0c-14,0 -26,5 -37,16 -10,10 -15,22 -15,37l0 113c0,14 5,26 15,37 10,10 23,15 37,15l26 0c15,0 27,-5 37,-15 11,-10 16,-22 16,-37zm173 52l87 0c12,0 22,-4 31,-12 8,-8 13,-19 13,-31l0 -131c0,-12 -5,-23 -13,-31 -8,-8 -18,-13 -31,-13l-87 0 0 218zm0 43l0 109c0,6 -2,11 -7,15 -4,4 -9,7 -15,7 -5,0 -10,-2 -14,-6 -5,-3 -7,-9 -7,-16l0 -391c0,-15 7,-22 21,-22l109 0c24,0 44,9 61,25 17,17 26,38 26,62l0 130c0,24 -9,45 -26,62 -17,17 -37,25 -61,25l-87 0zm434 -173l0 -88 -87 0c-12,0 -23,5 -32,13 -8,9 -11,19 -11,31 0,11 3,21 11,30 8,9 18,14 32,14l87 0zm-53 43l-81 121c-1,2 -4,5 -8,7l-10 2c-4,0 -9,-2 -15,-6 -4,-4 -7,-10 -7,-16 0,-3 2,-7 4,-12l65 -97c-21,-3 -38,-13 -50,-30 -12,-17 -19,-36 -19,-56 0,-23 8,-43 22,-60 17,-18 38,-27 65,-27l109 0c14,0 22,7 22,22l0 261c0,6 -2,12 -6,16 -4,4 -10,5 -16,5 -6,0 -11,-1 -15,-5 -4,-4 -7,-9 -7,-16l0 -109 -53 0zm357 -131l-87 0c-12,0 -23,4 -31,13 -4,4 -7,9 -9,14 -2,5 -3,11 -3,17l0 131c0,12 4,22 12,31 4,3 9,7 14,9 6,2 12,3 17,3l44 0c12,0 22,-4 31,-12 8,-8 12,-19 12,-31l0 -175zm0 -43l0 -43c0,-13 -4,-23 -12,-31 -8,-9 -19,-13 -31,-13l-87 0c-7,0 -12,-2 -16,-6 -4,-4 -6,-10 -6,-15 0,-5 2,-10 5,-15 4,-5 10,-7 17,-7l87 0c24,0 44,8 61,25 17,17 26,38 26,62l0 260c0,24 -9,45 -26,62 -17,17 -37,25 -61,25l-44 0c-23,0 -43,-8 -61,-25 -17,-17 -26,-37 -26,-62l0 -130c0,-24 9,-44 26,-61 17,-17 37,-26 61,-26l87 0zm218 162l-49 51 0 70c0,6 -2,12 -6,16 -4,4 -9,5 -16,5 -5,0 -10,-1 -15,-5 -4,-4 -6,-9 -6,-16l0 -261c0,-6 2,-11 6,-16 5,-4 10,-5 15,-5 6,0 11,1 15,5 5,4 7,9 7,16l0 128 138 -144c4,-4 8,-6 14,-6 4,0 9,2 15,6 4,4 6,10 6,16 0,6 -2,12 -7,17l-87 91 90 138c3,6 4,11 4,15 0,6 -2,11 -7,16 -4,4 -9,6 -15,6 -6,0 -11,-3 -15,-8l-87 -135zm390 142l-87 0c-23,0 -44,-8 -61,-25 -17,-17 -26,-37 -26,-62l0 -195c0,-6 2,-11 6,-16 5,-4 10,-6 16,-6 5,0 10,2 15,6 4,3 6,9 6,16l0 196c0,12 4,22 13,31 4,3 9,7 14,9 6,2 12,3 17,3l87 0 0 -239c0,-6 2,-11 6,-16 5,-4 10,-6 16,-6 5,0 10,2 15,6 4,3 6,9 6,16l0 326c0,23 -8,44 -25,61 -17,17 -37,26 -62,26l-87 0c-5,0 -10,-3 -16,-7 -3,-4 -5,-9 -5,-15 0,-6 2,-11 5,-15 4,-5 9,-7 17,-7l87 0c12,0 22,-4 30,-12 9,-8 13,-19 13,-31l0 -44zm176 -22l0 6 -22 87c-3,11 -10,16 -21,16 -7,0 -12,-2 -16,-6 -5,-3 -7,-8 -7,-15l1 -6 21 -85 0 -18c0,-6 3,-11 7,-16 4,-4 9,-6 15,-6 6,0 11,2 15,5 4,4 7,9 7,17l0 21zm-5559 456l0 218c23,0 44,-8 61,-25 17,-17 26,-38 26,-62l0 -44c0,-23 -8,-43 -25,-61 -17,-17 -38,-26 -62,-26zm-43 218l0 -218c-24,0 -44,9 -61,26 -18,16 -26,37 -26,61l0 44c0,24 8,44 25,61 17,17 38,26 62,26zm43 -261c36,0 67,13 92,38 26,25 38,56 38,92l0 44c0,35 -13,65 -38,91 -25,26 -56,39 -92,39l0 109c0,6 -2,11 -7,15 -4,4 -9,6 -15,6 -5,0 -9,-1 -14,-5 -5,-4 -7,-9 -7,-16l0 -109c-36,0 -67,-12 -92,-38 -26,-25 -38,-56 -38,-92l0 -44c0,-35 12,-66 38,-91 25,-26 56,-39 92,-39l0 -65c0,-6 2,-11 6,-16 5,-4 10,-6 15,-6 6,0 11,2 15,5 5,4 7,9 7,17l0 65zm391 217l0 -174 -87 0c-12,0 -23,4 -31,13 -4,4 -7,8 -9,14 -3,5 -4,11 -4,17l0 130c0,13 5,23 13,31 4,4 9,7 14,10 6,2 12,3 17,3l44 0c12,0 22,-4 30,-12 9,-8 13,-19 13,-32zm22 59c-7,8 -17,14 -29,20 -12,5 -24,8 -36,8l-44 0c-23,0 -44,-8 -61,-25 -17,-17 -26,-37 -26,-62l0 -130c0,-24 9,-45 26,-62 17,-17 37,-25 61,-25l109 0c14,0 21,7 21,22l0 195c0,8 3,17 9,26 5,8 12,15 21,19 9,4 14,11 14,20 0,6 -2,11 -6,16 -4,4 -9,6 -16,6 -3,0 -6,-1 -9,-2 -14,-6 -25,-14 -34,-26zm368 6l0 -260c0,-8 -1,-14 -5,-19 -4,-4 -8,-6 -14,-6 -6,0 -13,4 -20,12l-91 128 -91 -128c-5,-8 -12,-12 -20,-12 -5,0 -9,2 -14,7 -3,4 -5,10 -5,18l0 260c0,7 2,13 6,17 4,3 9,5 16,5 5,0 10,-2 14,-6 5,-3 7,-9 7,-16l0 -192 70 97c5,7 11,11 17,11 6,0 12,-4 18,-11l69 -97 0 192c0,7 2,13 6,17 4,3 10,5 16,5 5,0 10,-2 14,-6 5,-3 7,-9 7,-16zm305 0c0,15 -8,22 -22,22l-109 0c-23,0 -43,-8 -61,-25 -17,-17 -26,-37 -26,-62l0 -195c0,-6 2,-11 7,-16 4,-4 9,-6 15,-6 5,0 11,2 15,5 4,4 7,9 7,17l0 195c0,13 4,23 12,32 4,3 9,6 14,9 6,2 12,3 17,3l87 0 0 -239c0,-6 2,-11 7,-16 4,-4 9,-6 15,-6 5,0 11,2 15,5 4,4 7,9 7,17l0 260zm303 0c0,7 -2,13 -6,17 -4,3 -9,5 -15,5 -6,0 -11,-2 -15,-5 -5,-4 -7,-9 -7,-17l0 -239 -50 0 -81 246c-2,5 -4,9 -8,12 -1,0 -5,1 -12,3 -6,0 -11,-2 -15,-6 -5,-4 -7,-9 -7,-15l1 -7 86 -261c3,-10 10,-15 21,-15l87 0c14,0 21,7 21,22l0 260zm304 0c0,15 -7,22 -21,22l-109 0c-23,0 -44,-8 -61,-25 -17,-17 -26,-37 -26,-62l0 -195c0,-6 2,-11 7,-16 4,-4 9,-6 15,-6 5,0 10,2 15,5 4,4 6,9 6,17l0 195c0,13 4,23 13,32 4,3 9,6 14,9 6,2 12,3 17,3l87 0 0 -239c0,-6 2,-11 6,-16 5,-4 10,-6 16,-6 5,0 10,2 15,5 4,4 6,9 6,17l0 260zm261 -151l0 -88 -87 0c-13,0 -23,5 -33,13 -7,9 -11,19 -11,31 0,11 4,21 11,30 8,9 19,14 33,14l87 0zm-54 43l-80 120c-2,3 -5,5 -9,8l-9 2c-5,0 -10,-2 -15,-6 -5,-5 -7,-10 -7,-16 0,-3 1,-7 3,-12l65 -97c-21,-3 -38,-13 -50,-30 -12,-17 -18,-36 -18,-56 0,-23 7,-43 22,-60 16,-18 38,-27 65,-27l108 0c15,0 22,7 22,22l0 260c0,7 -2,13 -6,17 -4,3 -9,5 -16,5 -5,0 -10,-2 -15,-5 -4,-4 -6,-9 -6,-17l0 -108 -54 0zm229 108l0 6 -21 87c-3,11 -10,16 -22,16 -6,0 -11,-2 -15,-6 -5,-3 -7,-8 -7,-15l1 -6 21 -85 0 -18c0,-6 2,-12 7,-17 4,-3 9,-5 15,-5 5,0 10,2 15,5 4,4 6,9 6,17l0 21zm563 0c0,15 -8,22 -22,22l-109 0c-23,0 -43,-8 -61,-25 -17,-17 -26,-37 -26,-62l0 -195c0,-6 3,-11 7,-16 4,-4 9,-6 15,-6 5,0 11,2 15,5 4,4 7,9 7,17l0 195c0,13 4,23 12,32 4,3 9,6 14,9 6,2 12,3 17,3l87 0 0 -239c0,-6 2,-11 7,-16 4,-4 9,-6 15,-6 5,0 11,2 15,5 4,4 7,9 7,17l0 260zm347 0l0 -260c0,-8 -2,-14 -6,-19 -4,-4 -8,-6 -14,-6 -6,0 -13,4 -20,12l-91 128 -90 -128c-6,-8 -13,-12 -21,-12 -4,0 -9,2 -13,7 -4,4 -6,10 -6,18l0 260c0,7 2,13 6,17 4,3 9,5 16,5 5,0 10,-2 14,-6 5,-3 7,-9 7,-16l0 -192 70 97c5,7 11,11 17,11 6,0 12,-4 18,-11l69 -97 0 192c0,7 2,13 7,17 3,3 9,5 15,5 5,0 10,-2 15,-6 4,-3 7,-9 7,-16zm260 -151l0 -88 -87 0c-12,0 -23,5 -32,13 -8,9 -11,19 -11,31 0,11 3,21 11,30 8,9 18,14 32,14l87 0zm-53 43l-81 120c-1,3 -4,5 -8,8l-10 2c-4,0 -9,-2 -15,-6 -4,-5 -7,-10 -7,-16 0,-3 2,-7 4,-12l65 -97c-21,-3 -38,-13 -50,-30 -12,-17 -19,-36 -19,-56 0,-23 8,-43 22,-60 17,-18 38,-27 65,-27l109 0c14,0 22,7 22,22l0 260c0,7 -2,13 -6,17 -4,3 -10,5 -16,5 -6,0 -11,-2 -15,-5 -4,-4 -7,-9 -7,-17l0 -108 -53 0zm229 108l0 6 -22 87c-2,11 -9,16 -21,16 -6,0 -12,-2 -16,-6 -4,-3 -6,-8 -6,-15l0 -6 22 -85 0 -18c0,-6 2,-12 6,-17 5,-3 10,-5 15,-5 6,0 11,2 15,5 5,4 7,9 7,17l0 21zm562 -73c0,25 -9,48 -28,67 -18,19 -41,28 -67,28l-26 0c-26,0 -49,-9 -68,-27 -19,-19 -28,-42 -28,-68l0 -113c0,-26 9,-48 28,-67 19,-19 41,-29 68,-29l26 0c25,0 48,9 67,28 19,18 28,41 28,68l0 113zm-43 0l0 -114c0,-14 -5,-26 -15,-36 -10,-11 -23,-16 -37,-16l-27 0c-14,0 -26,5 -36,15 -11,11 -16,23 -16,37l0 114c0,14 5,26 15,37 11,10 23,15 37,15l27 0c14,0 26,-5 36,-15 11,-10 16,-22 16,-37zm260 -166l-87 0 0 239c0,7 -2,13 -6,17 -4,3 -9,5 -16,5 -5,0 -10,-2 -15,-5 -4,-4 -6,-9 -6,-17l0 -260c0,-15 7,-22 22,-22l195 0c23,0 43,8 61,25 17,17 25,38 25,62l0 195c0,7 -2,13 -6,17 -4,3 -9,5 -15,5 -6,0 -11,-2 -15,-5 -5,-4 -7,-9 -7,-17l0 -195c0,-13 -4,-23 -12,-31 -8,-9 -19,-13 -31,-13l-44 0 0 239c0,7 -2,13 -6,17 -4,3 -9,5 -15,5 -6,0 -11,-2 -16,-5 -4,-4 -6,-9 -6,-17l0 -239zm434 87l0 -108c0,-6 3,-11 7,-16 4,-4 9,-6 15,-6 6,0 11,2 15,5 4,4 7,9 7,17l0 260c0,7 -2,13 -7,17 -3,3 -9,5 -15,5 -6,0 -11,-2 -15,-5 -4,-4 -7,-9 -7,-17l0 -109 -87 0c-23,0 -43,-8 -61,-25 -17,-16 -26,-37 -26,-61l0 -65c0,-6 3,-12 7,-16 4,-4 9,-6 15,-6 6,0 11,2 15,5 4,4 7,9 7,17l0 65c0,12 4,22 12,31 4,3 9,7 14,9 6,2 12,3 17,3l87 0zm173 1l131 0 0 -44c0,-12 -4,-23 -12,-31 -8,-9 -19,-13 -31,-13l-44 0c-12,0 -23,4 -31,13 -4,4 -7,9 -9,14 -2,5 -4,11 -4,17l0 44zm0 43l0 43c0,13 5,23 13,32 4,3 9,6 14,9 6,2 12,3 17,3l109 0c6,0 11,2 15,7 4,4 6,9 6,15 0,5 -1,9 -5,14 -4,5 -9,7 -16,7l-109 0c-23,0 -44,-8 -61,-25 -17,-17 -26,-37 -26,-62l0 -130c0,-24 9,-44 25,-61 17,-17 38,-26 62,-26l44 0c23,0 43,8 61,25 17,17 25,38 25,62l0 65c0,15 -7,22 -21,22l-153 0z"/>
     <path class="fil6 str0" d="M12101 13992l-65 0c-23,0 -44,-8 -61,-25 -17,-17 -26,-37 -26,-62l0 -130c0,-24 9,-45 26,-62 17,-17 37,-25 61,-25l65 0c6,0 11,2 16,7 4,4 6,9 6,15 0,5 -2,9 -5,14 -4,5 -9,7 -17,7l-65 0c-12,0 -23,4 -31,13 -4,4 -7,8 -10,14 -2,5 -3,11 -3,17l0 130c0,13 4,23 13,31 4,4 9,7 14,10 6,2 12,3 17,3l65 0c6,0 11,2 16,7 4,4 6,9 6,15 0,5 -2,9 -5,14 -4,5 -9,7 -17,7zm239 -261l-87 0 0 239c0,7 -2,13 -6,17 -4,3 -9,5 -16,5 -6,0 -11,-2 -15,-5 -4,-4 -6,-9 -6,-17l0 -260c0,-15 7,-22 21,-22l195 0c24,0 44,8 61,25 18,17 26,38 26,62l0 195c0,7 -2,13 -6,17 -4,3 -9,5 -15,5 -6,0 -11,-2 -16,-5 -4,-4 -6,-9 -6,-17l0 -195c0,-13 -4,-23 -12,-31 -8,-9 -19,-13 -32,-13l-43 0 0 239c0,7 -2,13 -6,17 -4,3 -9,5 -16,5 -5,0 -10,-2 -15,-5 -4,-4 -6,-9 -6,-17l0 -239zm434 174l0 -130c0,-12 -4,-22 -12,-31 -8,-8 -19,-12 -31,-12l-44 0c-12,0 -23,4 -31,12 -4,4 -7,9 -10,14 -2,6 -3,11 -3,17l0 130c0,13 5,23 13,32 4,3 9,6 14,9 6,2 12,3 17,3l44 0c12,0 22,-4 30,-12 9,-8 13,-19 13,-32zm-131 -201l18 -12 26 -18c8,-7 14,-12 18,-16 5,-7 8,-14 8,-22 0,-9 -3,-18 -10,-25 -7,-6 -16,-9 -25,-9 -9,0 -17,3 -24,9 -7,6 -11,14 -11,25l0 68zm88 -14c27,0 49,8 65,24 14,16 21,36 21,61l0 130c0,24 -8,45 -25,62 -17,17 -37,25 -61,25l-44 0c-23,0 -44,-8 -61,-25 -17,-17 -26,-37 -26,-62l0 -269c0,-24 8,-43 24,-58 15,-14 34,-20 55,-20 20,0 38,7 54,20 16,14 23,33 23,58 0,14 -2,24 -6,32 -3,7 -10,14 -19,22zm390 207c0,25 -9,48 -27,67 -19,19 -42,28 -68,28l-26 0c-26,0 -49,-9 -68,-27 -18,-19 -28,-42 -28,-68l0 -113c0,-26 9,-48 28,-67 19,-19 41,-29 68,-29l26 0c26,0 48,9 67,28 19,18 28,41 28,68l0 113zm-43 0l0 -114c0,-14 -5,-26 -15,-36 -10,-11 -22,-16 -37,-16l-26 0c-15,0 -27,5 -37,15 -11,11 -16,23 -16,37l0 114c0,14 5,26 16,37 10,10 22,15 37,15l26 0c14,0 26,-5 37,-15 10,-10 15,-22 15,-37zm176 73l0 6 -22 87c-3,11 -10,16 -21,16 -7,0 -12,-2 -16,-6 -5,-3 -7,-8 -7,-15l1 -6 21 -85 0 -18c0,-6 3,-12 7,-17 4,-3 9,-5 15,-5 6,0 11,2 15,5 4,4 7,9 7,17l0 21zm-5189 456l-88 0c-12,0 -22,4 -31,12 -4,5 -7,9 -9,15 -2,5 -3,11 -3,17l0 130c0,12 4,23 12,31 5,4 9,7 14,10 7,2 12,3 17,3l44 0c12,0 22,-4 31,-12 8,-8 13,-19 13,-32l0 -174zm0 -43l0 -44c0,-12 -4,-22 -13,-31 -8,-8 -18,-12 -31,-12l-87 0c-6,0 -12,-2 -16,-6 -4,-5 -6,-10 -6,-16 0,-5 2,-10 6,-14 3,-5 9,-7 16,-7l87 0c24,0 45,8 62,25 16,17 25,37 25,62l0 260c0,24 -9,44 -26,61 -17,17 -37,26 -61,26l-43 0c-24,0 -44,-8 -61,-25 -18,-17 -26,-37 -26,-62l0 -130c0,-24 8,-45 25,-62 17,-17 38,-25 62,-25l87 0zm304 217l0 -174 -88 0c-12,0 -22,4 -31,12 -4,5 -7,9 -9,15 -2,5 -3,11 -3,17l0 130c0,12 4,23 12,31 5,4 9,7 14,10 6,2 12,3 17,3l44 0c12,0 22,-4 31,-12 8,-8 13,-19 13,-32zm21 58c-7,8 -17,15 -29,21 -12,5 -24,8 -36,8l-44 0c-23,0 -43,-8 -61,-25 -17,-17 -25,-37 -25,-62l0 -130c0,-24 8,-45 25,-62 17,-17 37,-25 61,-25l109 0c14,0 22,7 22,21l0 196c0,8 2,17 8,26 5,8 12,15 22,19 9,4 13,10 13,20 0,6 -2,11 -6,15 -4,5 -9,7 -15,7 -3,0 -6,-1 -9,-2 -14,-6 -26,-15 -35,-27zm239 -232l-87 0 0 239c0,7 -2,13 -7,17 -3,3 -9,5 -15,5 -6,0 -11,-2 -15,-5 -5,-4 -7,-10 -7,-17l0 -261c0,-14 8,-21 22,-21l195 0c24,0 44,8 61,25 17,17 26,37 26,62l0 195c0,7 -2,13 -6,17 -4,3 -9,5 -16,5 -5,0 -10,-2 -15,-5 -4,-4 -6,-10 -6,-17l0 -196c0,-12 -4,-22 -13,-30 -8,-9 -18,-13 -31,-13l-43 0 0 239c0,7 -2,13 -6,17 -4,3 -10,5 -16,5 -6,0 -11,-2 -15,-5 -4,-4 -6,-10 -6,-17l0 -239zm434 174l0 -174 -87 0c-12,0 -23,4 -31,12 -4,5 -8,9 -10,15 -2,5 -3,11 -3,17l0 130c0,12 4,23 13,31 4,4 9,7 14,10 6,2 12,3 17,3l43 0c12,0 23,-4 31,-12 9,-8 13,-19 13,-32zm21 58c-7,8 -16,15 -28,21 -13,5 -25,8 -37,8l-43 0c-23,0 -44,-8 -61,-25 -17,-17 -26,-37 -26,-62l0 -130c0,-24 8,-45 25,-62 17,-17 38,-25 62,-25l108 0c15,0 22,7 22,21l0 196c0,8 3,17 9,26 5,8 12,15 21,19 9,4 14,10 14,20 0,6 -2,11 -6,15 -4,5 -9,7 -16,7 -3,0 -6,-1 -9,-2 -14,-6 -26,-15 -35,-27zm412 -14l88 0c12,0 22,-4 30,-12 9,-8 13,-19 13,-32l0 -130c0,-13 -4,-23 -12,-31 -8,-9 -19,-13 -31,-13l-88 0 0 218zm0 43l0 108c0,6 -2,12 -6,16 -5,4 -10,6 -15,6 -5,0 -10,-2 -15,-5 -4,-4 -7,-9 -7,-17l0 -391c0,-14 8,-21 22,-21l109 0c23,0 44,8 61,25 17,17 25,37 25,62l0 130c0,24 -8,44 -25,61 -17,17 -37,26 -62,26l-87 0zm478 -96c0,26 -9,49 -27,68 -19,19 -42,28 -68,28l-26 0c-26,0 -49,-9 -67,-28 -19,-18 -29,-41 -29,-68l0 -113c0,-25 9,-47 28,-67 19,-19 41,-28 68,-28l26 0c26,0 48,9 67,28 19,18 28,41 28,67l0 113zm-43 0l0 -113c0,-14 -5,-26 -15,-37 -10,-10 -22,-15 -37,-15l-26 0c-15,0 -27,5 -37,15 -10,10 -16,23 -16,37l0 113c0,15 5,27 16,37 10,11 22,16 37,16l26 0c14,0 26,-5 37,-15 10,-10 15,-23 15,-38zm310 -78l80 -121c2,-3 4,-5 8,-7l4 -2 6 0c5,0 11,2 15,6 5,5 7,10 7,16 0,3 -1,7 -3,12l-79 118 79 118 2 6 1 6c0,6 -2,11 -6,15 -5,5 -10,7 -17,7 -6,0 -12,-3 -17,-10l-80 -121 -10 0 0 109c0,7 -2,13 -7,17 -3,3 -9,5 -15,5 -6,0 -11,-2 -15,-6 -5,-3 -7,-9 -7,-16l0 -109 -10 0 -80 121c-2,3 -4,5 -8,8l-10 2c-5,0 -10,-2 -15,-7 -5,-4 -7,-9 -7,-15 0,-4 1,-8 3,-12l79 -118 -79 -118 -3 -7 0 -6c0,-5 2,-10 6,-15 5,-4 10,-6 17,-6 6,0 12,3 17,10l80 120 10 0 0 -109c0,-5 2,-11 7,-16 4,-3 9,-5 15,-5 5,0 11,2 15,5 4,4 7,9 7,16l0 109 10 0zm385 -87l-88 0c-12,0 -22,4 -31,12 -4,5 -7,9 -9,15 -2,5 -3,11 -3,17l0 130c0,12 4,23 12,31 5,4 9,7 14,10 7,2 12,3 17,3l44 0c12,0 22,-4 31,-12 8,-8 13,-19 13,-32l0 -174zm0 -43l0 -44c0,-12 -4,-22 -13,-31 -8,-8 -18,-12 -31,-12l-87 0c-7,0 -12,-2 -16,-6 -4,-5 -6,-10 -6,-16 0,-5 2,-10 6,-14 3,-5 9,-7 16,-7l87 0c24,0 45,8 62,25 16,17 25,37 25,62l0 260c0,24 -9,44 -26,61 -17,17 -37,26 -61,26l-43 0c-24,0 -44,-8 -61,-25 -18,-17 -26,-37 -26,-62l0 -130c0,-24 8,-45 25,-62 17,-17 38,-25 62,-25l87 0zm173 131l130 0 0 -44c0,-12 -4,-23 -12,-31 -8,-9 -18,-13 -31,-13l-44 0c-12,0 -22,4 -31,12 -4,5 -7,9 -9,15 -2,5 -3,11 -3,17l0 44zm0 43l0 43c0,12 4,23 12,31 5,4 9,7 14,10 6,2 12,3 17,3l109 0c6,0 11,2 15,6 5,5 7,10 7,15 0,5 -2,10 -6,15 -3,5 -9,7 -16,7l-109 0c-23,0 -44,-9 -61,-25 -17,-17 -26,-38 -26,-62l0 -130c0,-24 9,-44 26,-61 16,-18 37,-26 61,-26l44 0c23,0 44,8 61,25 17,17 26,38 26,62l0 65c0,14 -8,22 -22,22l-152 0zm434 -44l0 -109c0,-5 2,-11 7,-16 4,-3 9,-5 15,-5 5,0 11,2 15,5 4,4 7,9 7,16l0 261c0,7 -2,13 -7,17 -4,3 -9,5 -15,5 -6,0 -11,-2 -15,-6 -5,-3 -7,-9 -7,-16l0 -109 -130 0 0 109c0,7 -2,13 -7,17 -4,3 -9,5 -15,5 -6,0 -11,-2 -15,-5 -5,-4 -7,-10 -7,-17l0 -261c0,-5 2,-11 7,-16 4,-3 9,-5 15,-5 5,0 11,2 15,5 4,4 7,9 7,16l0 109 130 0zm347 152c0,15 -7,22 -21,22l-109 0c-23,0 -44,-8 -61,-25 -17,-17 -26,-37 -26,-62l0 -196c0,-5 2,-11 7,-16 4,-3 9,-5 15,-5 5,0 10,2 15,5 4,4 6,9 6,16l0 196c0,12 5,23 13,31 4,4 9,7 14,10 6,2 12,3 17,3l87 0 0 -240c0,-5 2,-11 7,-16 4,-3 9,-5 15,-5 5,0 10,2 15,5 4,4 6,9 6,16l0 261zm261 -151l0 -88 -87 0c-12,0 -23,4 -33,13 -7,9 -11,19 -11,31 0,11 4,21 12,30 7,9 18,14 32,14l87 0zm-53 43l-81 120c-2,3 -5,5 -8,8l-10 2c-4,0 -9,-2 -15,-7 -5,-4 -7,-9 -7,-15 0,-4 1,-8 3,-12l66 -97c-22,-4 -38,-14 -51,-31 -12,-17 -18,-35 -18,-55 0,-24 7,-44 22,-60 16,-18 38,-27 65,-27l109 0c14,0 21,7 21,21l0 261c0,7 -2,13 -6,17 -4,3 -9,5 -15,5 -6,0 -11,-2 -16,-5 -4,-4 -6,-10 -6,-17l0 -108 -53 0zm229 108l0 5 -22 87c-3,11 -10,17 -21,17 -7,0 -12,-2 -16,-6 -5,-3 -7,-8 -7,-16l1 -5 21 -85 0 -19c0,-5 3,-11 7,-16 4,-4 9,-5 15,-5 6,0 11,1 15,5 4,4 7,9 7,16l0 22zm-5276 630l0 -174 -87 0c-13,0 -23,4 -32,12 -4,4 -7,9 -9,14 -2,6 -3,11 -3,17l0 131c0,12 4,23 12,31 5,4 9,7 14,10 7,2 12,3 18,3l43 0c12,0 22,-4 31,-13 9,-8 13,-18 13,-31zm21 58c-7,8 -17,15 -29,20 -12,6 -24,9 -36,9l-43 0c-24,0 -44,-9 -61,-25 -18,-17 -26,-38 -26,-62l0 -131c0,-24 8,-44 25,-61 17,-17 38,-25 62,-25l108 0c15,0 22,7 22,21l0 195c0,9 3,18 8,27 5,8 12,14 22,19 9,4 14,10 14,19 0,7 -3,12 -7,16 -3,5 -9,7 -15,7 -3,0 -6,-1 -9,-2 -14,-6 -26,-15 -35,-27zm283 -232l-88 0c-12,0 -22,4 -31,12 -4,4 -7,9 -9,14 -2,6 -3,11 -3,17l0 131c0,12 4,23 12,31 5,4 9,7 14,10 6,2 12,3 17,3l44 0c12,0 22,-4 31,-13 8,-8 13,-18 13,-31l0 -174zm0 -43l0 -44c0,-12 -5,-22 -13,-31 -8,-8 -18,-12 -31,-12l-87 0c-7,0 -12,-2 -16,-6 -4,-5 -6,-10 -6,-16 0,-5 2,-10 6,-14 3,-5 9,-8 16,-8l87 0c24,0 45,9 61,26 17,17 26,37 26,61l0 261c0,24 -9,44 -26,61 -17,17 -37,26 -61,26l-44 0c-23,0 -43,-9 -60,-25 -18,-17 -26,-38 -26,-62l0 -131c0,-24 8,-44 25,-61 17,-17 38,-25 62,-25l87 0zm173 261l87 0c12,0 22,-4 31,-13 8,-8 12,-18 12,-31l0 -131c0,-12 -4,-22 -12,-31 -8,-8 -18,-12 -31,-12l-87 0 0 218zm0 43l0 108c0,6 -3,11 -7,16 -4,4 -9,6 -15,6 -5,0 -10,-2 -14,-5 -5,-4 -8,-10 -8,-17l0 -391c0,-14 8,-21 22,-21l109 0c23,0 44,8 61,25 17,17 26,37 26,61l0 131c0,24 -9,44 -26,61 -17,17 -37,26 -61,26l-87 0zm303 -174l131 0 0 -43c0,-13 -4,-23 -12,-32 -8,-8 -19,-12 -31,-12l-44 0c-12,0 -23,4 -31,12 -4,4 -7,9 -9,15 -2,5 -4,11 -4,17l0 43zm0 44l0 43c0,12 5,23 13,31 4,4 9,7 14,10 6,2 12,3 17,3l109 0c6,0 11,2 15,6 4,5 6,10 6,15 0,5 -1,10 -5,15 -4,4 -9,7 -16,7l-109 0c-23,0 -44,-9 -61,-26 -17,-16 -26,-37 -26,-61l0 -131c0,-23 9,-43 25,-60 17,-18 38,-26 62,-26l44 0c23,0 43,8 61,25 17,17 25,37 25,62l0 65c0,14 -7,22 -21,22l-153 0zm413 130l-65 0c-23,0 -44,-9 -61,-25 -17,-17 -26,-38 -26,-62l0 -131c0,-24 9,-44 26,-61 17,-17 37,-25 61,-25l65 0c6,0 11,2 16,6 4,5 6,10 6,15 0,5 -2,10 -5,15 -4,4 -9,7 -17,7l-65 0c-12,0 -23,4 -31,12 -4,4 -7,9 -10,14 -2,6 -3,11 -3,17l0 131c0,12 4,23 13,31 4,4 9,7 14,10 6,2 12,3 17,3l65 0c6,0 11,2 16,6 4,5 6,10 6,15 0,5 -2,10 -5,15 -4,4 -9,7 -17,7zm629 -22l0 -261c0,-8 -1,-14 -5,-18 -4,-4 -8,-7 -14,-7 -6,0 -13,5 -20,13l-91 127 -91 -127c-5,-8 -12,-13 -20,-13 -5,0 -9,3 -14,7 -3,5 -5,11 -5,18l0 261c0,7 2,12 6,16 4,4 9,6 16,6 5,0 10,-2 14,-6 5,-4 7,-9 7,-16l0 -193 70 97c5,8 11,12 17,12 6,0 12,-4 18,-12l69 -97 0 193c0,7 2,12 6,16 4,4 9,6 16,6 5,0 10,-2 14,-6 5,-4 7,-9 7,-16zm130 -152l131 0 0 -43c0,-13 -4,-23 -12,-32 -8,-8 -19,-12 -31,-12l-44 0c-12,0 -23,4 -31,12 -4,4 -7,9 -9,15 -2,5 -4,11 -4,17l0 43zm0 44l0 43c0,12 5,23 13,31 4,4 9,7 14,10 6,2 12,3 17,3l109 0c6,0 11,2 15,6 4,5 6,10 6,15 0,5 -1,10 -5,15 -4,4 -9,7 -16,7l-109 0c-23,0 -44,-9 -61,-26 -17,-16 -26,-37 -26,-61l0 -131c0,-23 9,-43 25,-60 17,-18 38,-26 62,-26l44 0c23,0 44,8 61,25 17,17 25,37 25,62l0 65c0,14 -7,22 -21,22l-153 0zm413 130l-65 0c-23,0 -44,-9 -61,-25 -17,-17 -26,-38 -26,-62l0 -131c0,-24 9,-44 26,-61 17,-17 37,-25 61,-25l65 0c6,0 11,2 16,6 4,5 6,10 6,15 0,5 -2,10 -5,15 -4,4 -9,7 -17,7l-65 0c-12,0 -23,4 -31,12 -4,4 -7,9 -10,14 -2,6 -3,11 -3,17l0 131c0,12 4,23 13,31 4,4 9,7 14,10 6,2 12,3 17,3l65 0c6,0 11,2 16,6 4,5 6,10 6,15 0,5 -2,10 -5,15 -4,4 -9,7 -17,7zm239 -261l-87 0 0 239c0,7 -2,12 -6,16 -4,4 -9,6 -16,6 -6,0 -11,-2 -15,-6 -4,-3 -6,-9 -6,-16l0 -261c0,-14 7,-21 21,-21l195 0c24,0 44,8 61,25 18,17 26,37 26,61l0 196c0,7 -2,12 -6,16 -4,4 -9,6 -15,6 -6,0 -11,-2 -16,-6 -4,-3 -6,-9 -6,-16l0 -196c0,-12 -4,-22 -12,-31 -8,-8 -19,-12 -32,-12l-43 0 0 239c0,7 -2,12 -6,16 -4,4 -9,6 -16,6 -5,0 -10,-2 -15,-6 -4,-3 -6,-9 -6,-16l0 -239z"/>
     <path class="fil6 str0" d="M9779 15295l0 -174 -87 0c-12,0 -23,4 -31,12 -4,4 -7,9 -10,14 -2,6 -3,11 -3,17l0 131c0,12 5,23 13,31 4,4 9,7 14,10 6,2 12,3 17,3l44 0c12,0 22,-4 30,-13 9,-8 13,-18 13,-31zm22 58c-7,8 -17,15 -29,20 -12,6 -24,9 -36,9l-44 0c-23,0 -44,-9 -61,-25 -17,-17 -26,-38 -26,-62l0 -131c0,-24 9,-44 26,-61 17,-17 37,-25 61,-25l109 0c14,0 21,7 21,21l0 195c0,9 3,18 9,27 5,8 12,14 21,19 9,4 14,10 14,19 0,7 -2,12 -6,16 -4,5 -9,7 -16,7 -3,0 -6,-1 -9,-2 -14,-6 -25,-15 -34,-27zm548 -145l80 -121c2,-3 5,-5 8,-8l5 -1 5 0c6,0 11,2 16,6 5,5 7,10 7,15 0,4 -1,8 -4,13l-79 117 79 119 3 6 1 6c0,6 -2,11 -7,15 -4,5 -10,7 -16,7 -7,0 -13,-4 -18,-10l-80 -121 -10 0 0 109c0,7 -2,12 -6,16 -4,4 -9,6 -15,6 -6,0 -11,-2 -16,-6 -4,-3 -6,-9 -6,-16l0 -109 -10 0 -80 121c-2,2 -5,5 -9,8l-10 2c-4,0 -9,-2 -15,-7 -4,-4 -7,-9 -7,-15 0,-4 1,-8 4,-12l79 -118 -80 -118 -3 -7 0 -6c0,-5 2,-10 7,-15 4,-4 10,-6 16,-6 7,0 13,3 18,9l80 121 10 0 0 -109c0,-6 2,-11 6,-16 5,-4 10,-5 16,-5 5,0 10,1 14,5 5,4 7,9 7,16l0 109 10 0zm428 152c0,15 -7,22 -21,22l-109 0c-23,0 -44,-9 -61,-25 -17,-17 -26,-38 -26,-62l0 -196c0,-5 2,-11 7,-16 4,-4 9,-5 15,-5 5,0 10,1 15,5 4,4 6,9 6,16l0 196c0,12 4,23 13,31 4,4 9,7 14,10 6,2 12,3 17,3l87 0 0 -240c0,-5 2,-11 7,-16 4,-4 9,-5 15,-5 5,0 10,1 15,5 4,4 6,9 6,16l0 261zm217 -239l-87 0 0 239c0,7 -2,12 -6,16 -4,4 -9,6 -15,6 -6,0 -11,-2 -16,-6 -4,-3 -6,-9 -6,-16l0 -261c0,-14 7,-21 22,-21l195 0c23,0 44,8 61,25 17,17 26,37 26,61l0 196c0,7 -2,12 -7,16 -3,4 -9,6 -15,6 -6,0 -11,-2 -15,-6 -4,-3 -7,-9 -7,-16l0 -196c0,-12 -4,-22 -12,-31 -8,-8 -19,-12 -31,-12l-44 0 0 239c0,7 -2,12 -6,16 -4,4 -9,6 -15,6 -6,0 -11,-2 -15,-6 -5,-3 -7,-9 -7,-16l0 -239zm304 87l131 0 0 -43c0,-13 -4,-23 -13,-32 -8,-8 -18,-12 -31,-12l-44 0c-12,0 -22,4 -31,12 -4,4 -7,9 -9,15 -2,5 -3,11 -3,17l0 43zm0 44l0 43c0,12 4,23 12,31 5,4 9,7 14,10 6,2 12,3 17,3l109 0c6,0 11,2 15,6 5,5 7,10 7,15 0,5 -2,10 -6,15 -3,4 -9,7 -16,7l-108 0c-24,0 -44,-9 -62,-26 -17,-16 -25,-37 -25,-61l0 -131c0,-23 8,-43 25,-60 17,-18 37,-26 62,-26l43 0c24,0 44,8 61,25 17,17 26,37 26,62l0 65c0,14 -7,22 -22,22l-152 0zm478 108c0,7 -2,12 -6,16 -4,4 -10,6 -16,6 -6,0 -11,-2 -15,-6 -4,-3 -6,-9 -6,-16l0 -239 -50 0 -82 246c-1,5 -4,8 -8,11 -1,1 -5,2 -12,4 -5,0 -10,-2 -15,-6 -5,-4 -7,-9 -7,-15l2 -8 85 -260c4,-10 10,-15 21,-15l87 0c14,0 22,7 22,21l0 261zm130 -109l0 88 87 0c13,0 24,-5 32,-14 7,-9 11,-19 11,-30 0,-13 -3,-23 -10,-31 -4,-4 -8,-7 -14,-9 -6,-3 -12,-4 -19,-4l-87 0zm0 -43l87 0c27,0 49,9 65,27 14,16 22,36 22,60 0,23 -8,43 -22,59 -16,19 -38,28 -65,28l-109 0c-14,0 -22,-7 -22,-22l0 -261c0,-5 2,-11 7,-16 4,-4 9,-5 15,-5 5,0 11,1 15,5 4,4 7,9 7,16l0 109zm412 174l-65 0c-23,0 -44,-9 -61,-25 -17,-17 -26,-38 -26,-62l0 -131c0,-24 9,-44 26,-61 17,-17 37,-25 61,-25l65 0c6,0 12,2 16,6 4,5 6,10 6,15 0,5 -2,10 -5,15 -4,4 -9,7 -17,7l-65 0c-12,0 -23,4 -31,12 -4,4 -7,9 -10,14 -2,6 -3,11 -3,17l0 131c0,12 5,23 13,31 4,4 9,7 14,10 6,2 12,3 17,3l65 0c6,0 11,2 16,6 4,5 6,10 6,15 0,5 -2,10 -5,15 -4,4 -9,7 -17,7zm239 -261l-87 0 0 239c0,7 -2,12 -6,16 -4,4 -9,6 -16,6 -5,0 -11,-2 -15,-6 -4,-3 -6,-9 -6,-16l0 -261c0,-14 7,-21 21,-21l196 0c23,0 43,8 60,25 18,17 26,37 26,61l0 196c0,7 -2,12 -6,16 -4,4 -9,6 -15,6 -6,0 -11,-2 -16,-6 -4,-3 -6,-9 -6,-16l0 -196c0,-12 -4,-22 -12,-31 -8,-8 -19,-12 -31,-12l-44 0 0 239c0,7 -2,12 -6,16 -4,4 -9,6 -16,6 -5,0 -10,-2 -15,-6 -4,-3 -6,-9 -6,-16l0 -239zm434 174l0 -130c0,-12 -4,-23 -12,-31 -8,-8 -19,-13 -31,-13l-44 0c-12,0 -23,4 -31,13 -4,4 -7,9 -9,14 -2,5 -4,11 -4,17l0 130c0,12 5,23 13,31 4,4 9,7 14,10 6,2 12,3 17,3l44 0c12,0 22,-4 30,-12 9,-9 13,-19 13,-32zm-131 -202l18 -11 26 -18c8,-7 14,-12 18,-17 5,-6 8,-14 8,-21 0,-10 -3,-18 -10,-25 -7,-6 -15,-9 -25,-9 -9,0 -17,3 -24,9 -7,5 -11,14 -11,25l0 67zm88 -14c27,0 49,8 65,25 14,16 21,36 21,61l0 130c0,24 -8,44 -25,61 -17,17 -37,26 -61,26l-44 0c-23,0 -44,-9 -61,-25 -17,-17 -26,-38 -26,-62l0 -269c0,-24 8,-44 24,-59 16,-13 34,-20 55,-20 20,0 38,7 54,21 16,13 24,33 24,58 0,14 -2,24 -7,31 -3,7 -10,15 -19,22zm347 216l0 -174 -87 0c-12,0 -23,4 -31,12 -4,4 -7,9 -10,14 -2,6 -3,11 -3,17l0 131c0,12 4,23 13,31 4,4 9,7 14,10 6,2 12,3 17,3l44 0c12,0 22,-4 30,-13 9,-8 13,-18 13,-31zm21 58c-7,8 -16,15 -28,20 -12,6 -24,9 -36,9l-44 0c-23,0 -44,-9 -61,-25 -17,-17 -26,-38 -26,-62l0 -131c0,-24 9,-44 26,-61 17,-17 37,-25 61,-25l109 0c14,0 21,7 21,21l0 195c0,9 3,18 9,27 5,8 12,14 21,19 9,4 14,10 14,19 0,7 -2,12 -6,16 -4,5 -9,7 -16,7 -3,0 -6,-1 -9,-2 -14,-6 -25,-15 -35,-27zm-6467 724l-65 0c-24,0 -44,-9 -61,-26 -17,-16 -26,-37 -26,-61l0 -131c0,-24 8,-44 25,-61 17,-17 38,-26 62,-26l65 0c6,0 11,3 15,7 5,4 7,9 7,15 0,5 -2,10 -6,14 -3,5 -9,8 -16,8l-65 0c-13,0 -23,4 -31,12 -5,4 -8,9 -10,14 -2,5 -3,11 -3,17l0 131c0,12 4,22 13,31 4,4 9,7 14,9 6,2 12,3 17,3l65 0c6,0 11,3 15,7 5,4 7,9 7,15 0,5 -2,10 -6,14 -3,5 -9,8 -16,8zm152 -174l130 0 0 -44c0,-12 -4,-22 -12,-31 -8,-8 -19,-12 -31,-12l-44 0c-12,0 -22,4 -31,12 -4,4 -7,9 -9,14 -2,6 -3,11 -3,17l0 44zm0 43l0 44c0,12 4,22 12,31 4,4 9,7 14,9 6,2 12,3 17,3l109 0c6,0 11,3 15,7 4,4 7,9 7,15 0,5 -2,10 -6,14 -3,5 -9,8 -16,8l-109 0c-23,0 -44,-9 -61,-26 -17,-17 -26,-37 -26,-61l0 -131c0,-23 9,-43 25,-61 17,-17 38,-26 62,-26l44 0c23,0 44,9 61,26 17,17 26,37 26,61l0 66c0,14 -8,21 -22,21l-152 0zm303 87l88 0c12,0 22,-4 30,-12 9,-8 13,-18 13,-31l0 -131c0,-12 -4,-22 -12,-31 -8,-8 -19,-12 -31,-12l-88 0 0 217zm0 44l0 108c0,6 -2,11 -6,15 -5,5 -10,7 -15,7 -5,0 -10,-2 -15,-6 -4,-3 -7,-9 -7,-16l0 -391c0,-14 7,-22 22,-22l109 0c23,0 43,9 61,26 17,17 25,37 25,61l0 131c0,23 -8,44 -25,61 -17,17 -38,26 -62,26l-87 0zm478 -22c0,14 -7,22 -21,22l-109 0c-23,0 -44,-9 -61,-26 -17,-16 -26,-37 -26,-61l0 -196c0,-6 2,-11 7,-16 4,-4 9,-6 15,-6 5,0 10,2 15,6 4,3 6,9 6,16l0 196c0,12 4,22 13,31 4,4 9,7 14,9 6,2 12,3 17,3l87 0 0 -239c0,-6 2,-11 7,-16 4,-4 9,-6 15,-6 5,0 10,2 15,6 4,3 6,9 6,16l0 261zm261 -152l0 -87 -87 0c-13,0 -23,4 -33,13 -7,8 -11,19 -11,30 0,11 4,22 11,31 8,9 19,13 33,13l87 0zm-54 43l-80 121c-2,2 -5,5 -9,7l-9 3c-5,0 -10,-3 -15,-7 -5,-4 -7,-9 -7,-15 0,-4 1,-8 3,-12l65 -98c-21,-3 -38,-13 -50,-30 -12,-17 -18,-36 -18,-56 0,-23 7,-43 22,-59 16,-19 38,-28 65,-28l108 0c15,0 22,8 22,22l0 261c0,7 -2,12 -6,16 -4,4 -9,6 -15,6 -6,0 -11,-2 -16,-6 -4,-3 -6,-9 -6,-16l0 -109 -54 0zm661 109c0,14 -7,22 -21,22l-109 0c-23,0 -44,-9 -61,-26 -17,-16 -26,-37 -26,-61l0 -196c0,-6 2,-11 7,-16 4,-4 9,-6 15,-6 5,0 10,2 15,6 4,3 6,9 6,16l0 196c0,12 5,22 13,31 4,4 9,7 14,9 6,2 12,3 17,3l87 0 0 -239c0,-6 2,-11 7,-16 4,-4 9,-6 15,-6 5,0 10,2 15,6 4,3 6,9 6,16l0 261zm522 -152l0 -109c0,-6 2,-11 6,-16 4,-4 9,-6 15,-6 6,0 11,2 15,6 4,3 7,9 7,16l0 261c0,7 -2,12 -6,16 -4,4 -10,6 -16,6 -6,0 -11,-2 -15,-6 -4,-4 -6,-9 -6,-16l0 -109 -131 0 0 109c0,7 -2,12 -6,16 -4,4 -10,6 -16,6 -6,0 -11,-2 -15,-6 -4,-4 -6,-9 -6,-16l0 -261c0,-6 2,-11 6,-16 4,-4 9,-6 15,-6 6,0 11,2 15,6 5,3 7,9 7,16l0 109 131 0zm347 78c0,26 -10,48 -28,67 -19,19 -41,29 -68,29l-26 0c-26,0 -48,-10 -67,-28 -19,-18 -29,-41 -29,-68l0 -113c0,-25 10,-48 28,-67 19,-19 42,-29 68,-29l26 0c26,0 48,10 67,28 19,19 29,41 29,68l0 113zm-44 0l0 -113c0,-14 -5,-27 -15,-37 -10,-10 -22,-15 -37,-15l-26 0c-14,0 -27,5 -37,15 -10,10 -15,22 -15,37l0 113c0,14 5,27 15,37 10,10 22,15 37,15l26 0c14,0 26,-5 37,-15 10,-9 15,-22 15,-37zm391 74l0 -261c0,-8 -2,-14 -6,-18 -4,-5 -8,-7 -14,-7 -6,0 -13,4 -20,13l-91 127 -90 -127c-6,-9 -13,-13 -20,-13 -5,0 -10,2 -14,7 -4,5 -6,11 -6,18l0 261c0,7 2,12 6,16 4,4 9,6 16,6 5,0 10,-2 14,-6 5,-4 7,-9 7,-16l0 -193 70 97c5,8 11,12 17,12 6,0 12,-4 18,-12l69 -97 0 193c0,7 2,12 7,16 3,4 9,6 15,6 5,0 10,-2 15,-6 4,-4 7,-9 7,-16zm130 -152l130 0 0 -44c0,-12 -4,-22 -12,-31 -8,-8 -18,-12 -31,-12l-44 0c-12,0 -22,4 -31,12 -4,4 -7,9 -9,14 -2,6 -3,11 -3,17l0 44zm0 43l0 44c0,12 4,22 12,31 4,4 9,7 14,9 6,2 12,3 17,3l109 0c6,0 11,3 15,7 5,4 7,9 7,15 0,5 -2,10 -6,14 -3,5 -9,8 -16,8l-109 0c-23,0 -44,-9 -61,-26 -17,-17 -26,-37 -26,-61l0 -131c0,-23 9,-43 26,-61 16,-17 37,-26 61,-26l44 0c23,0 44,9 61,26 17,17 26,37 26,61l0 66c0,14 -8,21 -22,21l-152 0zm304 87l87 0c12,0 22,-4 31,-12 8,-8 12,-18 12,-31l0 -131c0,-12 -4,-22 -12,-31 -8,-8 -19,-12 -31,-12l-87 0 0 217zm0 44l0 108c0,6 -3,11 -7,15 -4,5 -10,7 -15,7 -5,0 -10,-2 -15,-6 -4,-3 -7,-9 -7,-16l0 -391c0,-14 8,-22 22,-22l109 0c23,0 44,9 61,26 17,17 26,37 26,61l0 131c0,23 -9,44 -26,61 -17,17 -37,26 -61,26l-87 0zm738 -22c0,7 -2,12 -6,16 -4,4 -9,6 -16,6 -5,0 -11,-2 -15,-6 -4,-4 -6,-9 -6,-16l0 -196c0,-12 -4,-22 -13,-31 -8,-8 -18,-12 -31,-12l-87 0 0 239c0,7 -2,12 -6,16 -4,4 -9,6 -16,6 -5,0 -11,-2 -15,-6 -4,-4 -6,-9 -6,-16l0 -261c0,-14 7,-22 21,-22l109 0c23,0 43,9 61,25 17,17 26,38 26,62l0 196zm260 -65l0 -174 -87 0c-12,0 -22,4 -31,12 -4,4 -7,9 -9,14 -2,5 -3,11 -3,17l0 131c0,12 4,22 12,31 5,4 9,7 14,9 6,2 12,3 17,3l44 0c12,0 22,-4 31,-12 8,-8 12,-18 12,-31zm22 58c-7,8 -17,15 -29,20 -12,6 -24,9 -36,9l-44 0c-23,0 -43,-9 -61,-26 -17,-16 -26,-37 -26,-61l0 -131c0,-24 9,-44 26,-61 17,-17 37,-26 61,-26l109 0c14,0 22,8 22,22l0 195c0,9 2,18 8,27 5,8 12,14 22,19 9,3 13,10 13,19 0,7 -2,12 -6,16 -4,4 -9,7 -15,7 -3,0 -6,-1 -9,-3 -14,-5 -26,-14 -35,-26zm260 29l-65 0c-23,0 -43,-9 -61,-26 -17,-16 -26,-37 -26,-61l0 -131c0,-24 9,-44 26,-61 17,-17 37,-26 61,-26l65 0c6,0 12,3 16,7 4,4 6,9 6,15 0,5 -2,10 -5,14 -4,5 -9,8 -17,8l-65 0c-12,0 -23,4 -31,12 -4,4 -7,9 -9,14 -2,5 -3,11 -3,17l0 131c0,12 4,22 12,31 4,4 9,7 14,9 6,2 12,3 17,3l65 0c6,0 12,3 16,7 4,4 6,9 6,15 0,5 -2,10 -5,14 -4,5 -9,8 -17,8zm326 -22c0,7 -2,12 -6,16 -4,4 -9,6 -16,6 -5,0 -10,-2 -15,-6 -4,-4 -6,-9 -6,-16l0 -196c0,-12 -4,-22 -12,-31 -9,-8 -19,-12 -32,-12l-87 0 0 239c0,7 -2,12 -6,16 -4,4 -9,6 -16,6 -5,0 -10,-2 -15,-6 -4,-4 -6,-9 -6,-16l0 -261c0,-14 7,-22 22,-22l108 0c23,0 44,9 61,25 17,17 26,38 26,62l0 196zm304 -74c0,26 -9,48 -28,67 -18,19 -41,29 -68,29l-26 0c-26,0 -48,-10 -67,-28 -19,-18 -28,-41 -28,-68l0 -113c0,-25 9,-48 28,-67 18,-19 41,-29 67,-29l26 0c26,0 49,10 67,28 19,19 29,41 29,68l0 113zm-43 0l0 -113c0,-14 -5,-27 -15,-37 -11,-10 -23,-15 -38,-15l-26 0c-14,0 -26,5 -37,15 -10,10 -15,22 -15,37l0 113c0,14 5,27 15,37 10,10 23,15 37,15l26 0c14,0 27,-5 37,-15 10,-9 16,-22 16,-37zm173 52l87 0c12,0 22,-4 31,-12 8,-8 12,-18 12,-31l0 -131c0,-12 -4,-22 -12,-31 -8,-8 -18,-12 -31,-12l-87 0 0 217zm0 44l0 108c0,6 -3,11 -7,15 -4,5 -9,7 -15,7 -5,0 -10,-2 -14,-6 -5,-3 -7,-9 -7,-16l0 -391c0,-14 7,-22 21,-22l109 0c23,0 44,9 61,26 17,17 26,37 26,61l0 131c0,23 -9,44 -26,61 -17,17 -37,26 -61,26l-87 0zm391 -261l-87 0 0 239c0,7 -2,12 -7,16 -4,4 -9,6 -15,6 -6,0 -11,-2 -15,-6 -5,-4 -7,-9 -7,-16l0 -261c0,-14 8,-22 22,-22l195 0c24,0 44,9 61,26 17,17 26,37 26,61l0 196c0,7 -2,12 -6,16 -4,4 -9,6 -16,6 -5,0 -10,-2 -15,-6 -4,-4 -6,-9 -6,-16l0 -196c0,-12 -4,-22 -13,-31 -8,-8 -18,-12 -31,-12l-43 0 0 239c0,7 -2,12 -6,16 -4,4 -10,6 -16,6 -6,0 -11,-2 -15,-6 -4,-4 -6,-9 -6,-16l0 -239z"/>
     <path class="fil6 str0" d="M13165 15990l0 -174 -87 0c-13,0 -23,4 -31,12 -4,4 -8,9 -10,14 -2,5 -3,11 -3,17l0 131c0,12 4,22 13,31 4,4 9,7 14,9 6,2 12,3 17,3l43 0c12,0 23,-4 31,-12 9,-8 13,-18 13,-31zm21 58c-7,8 -16,15 -28,20 -13,6 -25,9 -37,9l-43 0c-24,0 -44,-9 -61,-26 -17,-16 -26,-37 -26,-61l0 -131c0,-24 8,-44 25,-61 17,-17 38,-26 62,-26l108 0c15,0 22,8 22,22l0 195c0,9 3,18 9,27 4,8 12,14 21,19 9,3 14,10 14,19 0,7 -2,12 -6,16 -4,4 -9,7 -16,7 -3,0 -6,-1 -9,-3 -14,-5 -26,-14 -35,-26z"/>
    </g>
   </g>
  </g>
  <g>
   <g>
    <path class="fil8 str2" d="M3880 1653l0 -261c0,-8 3,-15 9,-21 6,-5 12,-8 20,-8 7,0 14,3 20,7 6,5 9,13 9,22l0 521c0,9 -3,17 -8,22 -6,5 -13,7 -21,7 -8,0 -14,-2 -20,-7 -6,-5 -9,-12 -9,-22l0 -203 -174 0c-31,0 -58,-11 -81,-33 -23,-23 -34,-50 -34,-82l0 -203c0,-8 2,-15 8,-21 6,-5 13,-8 20,-8 8,0 15,3 20,7 6,5 9,13 9,22l0 203c0,16 6,30 17,41 6,5 12,9 18,13 9,2 16,4 23,4l174 0zm522 260c0,9 -3,17 -9,22 -5,5 -12,7 -20,7 -8,0 -15,-2 -20,-7 -6,-5 -9,-12 -9,-22l0 -492 -94 0 -139 500c-1,6 -4,11 -10,15 -5,4 -11,6 -18,6 -8,0 -15,-2 -21,-7 -5,-5 -8,-12 -8,-20 0,-5 0,-7 1,-9l145 -521c4,-15 13,-22 28,-22l145 0c19,0 29,10 29,29l0 521zm172 -318l146 0c8,0 15,3 20,9 6,6 9,13 9,20 0,7 -3,13 -7,20 -5,6 -13,9 -22,9l-146 0 0 232 204 0c8,0 14,3 20,9 6,5 9,12 9,20 0,7 -3,13 -7,19 -5,6 -13,9 -22,9l-232 0c-20,0 -29,-9 -29,-27l0 -523c0,-19 9,-29 29,-29l232 0c8,0 15,3 20,9 6,6 9,13 9,20 0,7 -3,13 -8,20 -4,6 -12,9 -21,9l-204 0 0 174zm637 0l0 -203c0,-8 3,-14 9,-20 6,-6 12,-9 20,-9 7,0 14,3 20,7 6,5 9,13 9,22l0 521c0,8 -3,15 -9,21 -7,6 -14,8 -20,8 -7,0 -14,-2 -21,-7 -5,-4 -8,-12 -8,-21l0 -261 -232 0 0 260c0,9 -2,17 -8,22 -5,5 -12,7 -20,7 -8,0 -15,-2 -21,-7 -5,-5 -8,-12 -8,-22l0 -521c0,-7 3,-14 8,-21 6,-5 13,-7 21,-7 7,0 14,2 19,7 6,5 9,12 9,22l0 202 232 0zm579 318c0,9 -2,17 -8,22 -5,5 -12,7 -20,7 -8,0 -15,-2 -21,-7 -5,-5 -8,-12 -8,-22l0 -521c0,-8 3,-15 8,-21 6,-5 13,-8 21,-8 7,0 13,3 20,7 5,5 8,13 8,22l0 521zm-348 -260l0 232 117 0c16,0 29,-6 41,-16 11,-11 17,-25 17,-42l0 -116c0,-17 -6,-30 -17,-41 -11,-12 -24,-17 -41,-17l-117 0zm0 -58l116 0c32,0 59,12 82,34 23,22 34,50 34,82l0 116c0,31 -11,59 -34,81 -22,23 -50,34 -82,34l-144 0c-20,0 -29,-9 -29,-29l0 -521c0,-8 3,-15 8,-21 6,-5 13,-8 21,-8 7,0 14,3 19,7 6,5 9,13 9,22l0 203zm1158 318c0,9 -3,17 -8,22 -5,5 -12,7 -21,7 -7,0 -14,-2 -20,-7 -6,-5 -9,-12 -9,-22l0 -409 -235 424c-3,5 -7,10 -12,14l-7 3c-2,1 -5,2 -9,2 -5,0 -11,-3 -19,-8 -5,-6 -7,-15 -7,-25l0 -521c0,-8 3,-15 8,-22 6,-5 13,-7 21,-7 7,0 14,2 20,7 5,5 8,12 8,22l0 409 235 -423c3,-5 7,-10 13,-14 5,-4 10,-6 15,-6 7,0 13,3 18,9 6,6 9,14 9,24l0 521zm290 -260l-87 0c-9,0 -16,-3 -21,-8 -5,-6 -8,-13 -8,-21 0,-7 3,-13 8,-19 5,-7 12,-10 21,-10l87 0c16,0 30,-5 41,-16 11,-11 17,-25 17,-42l0 -58c0,-16 -6,-30 -17,-41 -10,-12 -24,-17 -41,-17l-58 0c-13,0 -24,3 -33,11 -10,6 -17,16 -22,29 -1,5 -4,10 -9,14 -2,2 -5,4 -8,5l-9 1c-8,0 -16,-2 -22,-8 -6,-5 -9,-12 -9,-21l2 -10c7,-23 21,-42 42,-57 20,-14 43,-22 68,-22l58 0c32,0 59,12 82,34 22,23 33,50 33,82l0 58c0,17 -3,33 -10,48 -6,15 -16,28 -29,39 26,22 39,51 39,87l0 116c0,31 -11,59 -33,81 -23,23 -50,34 -82,34l-58 0c-25,0 -47,-7 -67,-21 -20,-15 -34,-34 -43,-58l-2 -11c0,-7 3,-14 9,-19 6,-6 13,-9 22,-9 11,0 20,6 26,19 3,12 10,22 21,31 11,7 22,11 34,11l58 0c16,0 30,-6 41,-16 11,-11 17,-25 17,-42l0 -116c0,-17 -5,-31 -13,-41 -10,-11 -25,-17 -45,-17zm289 0l0 232 174 0c16,0 29,-6 41,-16 11,-11 17,-25 17,-42l0 -116c0,-17 -6,-30 -17,-41 -11,-12 -25,-17 -41,-17l-174 0zm0 -58l173 0c32,0 59,12 82,34 23,22 34,50 34,82l0 116c0,31 -11,59 -34,81 -22,23 -50,34 -82,34l-202 0c-19,0 -29,-9 -29,-29l0 -521c0,-19 10,-29 29,-29l231 0c8,0 15,3 21,9 6,6 8,13 8,20 0,7 -2,13 -7,19 -5,7 -12,10 -22,10l-202 0 0 174zm752 318c0,9 -3,17 -8,22 -5,5 -12,7 -21,7 -7,0 -14,-2 -20,-7 -6,-5 -8,-12 -8,-22l0 -409 -235 424c-4,5 -8,10 -13,14l-6 3c-2,1 -5,2 -10,2 -5,0 -11,-3 -19,-8 -4,-6 -7,-15 -7,-25l0 -521c0,-8 3,-15 9,-22 5,-5 12,-7 20,-7 7,0 14,2 20,7 6,5 9,12 9,22l0 409 234 -423c3,-5 7,-10 13,-14 5,-4 10,-6 16,-6 6,0 12,3 17,9 6,6 9,14 9,24l0 521zm174 -260l174 0c16,0 29,-6 41,-16 11,-11 17,-25 17,-42l0 -116c0,-17 -6,-30 -17,-41 -11,-12 -25,-17 -41,-17l-174 0 0 232zm0 57l0 203c0,9 -3,17 -9,22 -5,5 -12,7 -20,7 -8,0 -15,-2 -20,-7 -6,-5 -9,-12 -9,-22l0 -521c0,-19 10,-29 29,-29l202 0c33,0 60,12 82,34 23,23 34,50 34,82l0 116c0,31 -11,59 -34,81 -22,23 -50,34 -82,34l-173 0zm449 88l-42 124c-2,7 -6,11 -11,15 -4,3 -9,5 -15,5 -8,0 -15,-2 -21,-8 -6,-5 -9,-12 -9,-20l2 -10 174 -521c6,-16 15,-25 27,-25 13,0 22,9 27,25l174 521 2 10c0,8 -4,14 -10,20 -6,6 -13,8 -20,8 -4,0 -8,-1 -13,-3 -5,-1 -9,-7 -14,-17l-41 -124 -210 0zm190 -60l-85 -255 -85 255 170 0zm258 -317l-116 0c-9,0 -16,-3 -21,-8 -5,-6 -8,-13 -8,-21 0,-7 3,-13 7,-19 5,-7 13,-10 22,-10l289 0c8,0 15,3 21,9 6,6 8,13 8,20 0,7 -2,13 -7,19 -5,7 -12,10 -22,10l-115 0 0 492c0,9 -3,17 -9,22 -5,5 -12,7 -20,7 -8,0 -15,-2 -20,-7 -6,-5 -9,-12 -9,-22l0 -492zm376 174l145 0c8,0 15,3 21,9 6,6 8,13 8,20 0,7 -2,13 -7,20 -5,6 -12,9 -22,9l-145 0 0 232 203 0c8,0 15,3 21,9 6,5 8,12 8,20 0,7 -2,13 -7,19 -5,6 -12,9 -22,9l-232 0c-19,0 -29,-9 -29,-27l0 -523c0,-19 10,-29 29,-29l232 0c8,0 15,3 21,9 6,6 8,13 8,20 0,7 -2,13 -7,20 -5,6 -12,9 -22,9l-203 0 0 174zm695 318c0,9 -2,17 -8,22 -5,5 -12,7 -20,7 -8,0 -15,-2 -21,-7 -5,-5 -8,-12 -8,-22l0 -492 -94 0 -140 500c0,6 -4,11 -9,15 -6,4 -12,6 -18,6 -8,0 -16,-2 -21,-7 -6,-5 -8,-12 -8,-20 0,-5 0,-7 1,-9l145 -521c4,-15 13,-22 27,-22l145 0c20,0 29,10 29,29l0 521zm173 -260l174 0c16,0 30,5 41,16 11,11 17,25 17,42l0 116c0,16 -6,30 -17,41 -5,6 -11,10 -19,13 -7,2 -14,4 -22,4l-174 0 0 -232zm0 -58l0 -203c0,-7 -3,-14 -9,-20 -6,-6 -13,-9 -20,-9 -7,0 -13,3 -19,7 -7,5 -10,13 -10,22l0 521c0,20 10,29 29,29l203 0c31,0 58,-11 81,-33 23,-22 34,-50 34,-82l0 -116c0,-32 -11,-59 -33,-82 -23,-22 -50,-34 -82,-34l-174 0zm695 0l0 -203c0,-8 3,-14 8,-20 6,-6 13,-9 21,-9 7,0 14,3 20,7 5,5 8,13 8,22l0 521c0,8 -3,15 -9,21 -6,6 -13,8 -20,8 -7,0 -14,-2 -20,-7 -5,-4 -8,-12 -8,-21l0 -261 -232 0 0 260c0,9 -3,17 -8,22 -6,5 -12,7 -21,7 -8,0 -14,-2 -20,-7 -6,-5 -9,-12 -9,-22l0 -521c0,-7 3,-14 9,-21 6,-5 12,-7 20,-7 7,0 14,2 20,7 6,5 9,12 9,22l0 202 232 0zm520 232c0,31 -11,59 -33,81 -23,23 -50,34 -82,34l-116 0c-31,0 -59,-11 -81,-33 -23,-23 -35,-50 -35,-82l0 -348c0,-32 12,-60 34,-82 22,-22 50,-34 82,-34l116 0c32,0 59,12 82,34 22,23 33,50 33,82l0 348zm-57 0l0 -348c0,-17 -6,-30 -16,-41 -11,-12 -25,-17 -42,-17l-116 0c-16,0 -30,5 -42,16 -5,6 -9,12 -12,19 -3,7 -4,15 -4,23l0 348c0,16 5,30 16,41 6,5 13,9 19,13 8,2 16,4 23,4l116 0c16,0 30,-6 41,-16 11,-11 17,-25 17,-42zm451 -521l-116 0c-8,0 -16,-3 -21,-8 -5,-6 -8,-13 -8,-21 0,-7 3,-13 8,-19 4,-7 12,-10 21,-10l116 0c8,0 15,3 21,9 5,6 8,13 8,20 0,7 -2,13 -7,19 -5,7 -12,10 -22,10zm116 607c0,9 -3,17 -8,22 -6,5 -13,7 -21,7 -8,0 -14,-2 -20,-7 -6,-5 -9,-12 -9,-22l0 -409 -235 424c-3,5 -7,10 -13,14l-6 3c-2,1 -5,2 -9,2 -5,0 -12,-3 -19,-8 -5,-6 -7,-15 -7,-25l0 -521c0,-8 2,-15 8,-22 6,-5 13,-7 20,-7 8,0 14,2 20,7 6,5 9,12 9,22l0 409 235 -423c3,-5 7,-10 13,-14 5,-4 10,-6 15,-6 7,0 12,3 18,10 6,5 9,13 9,23l0 521zm520 -300l244 -242c6,-5 13,-8 20,-8 7,0 14,3 20,9 7,6 10,13 10,21 0,5 -3,11 -9,20l-172 171 177 315 4 15c0,8 -3,14 -9,20 -6,5 -13,8 -21,8 -9,0 -18,-5 -25,-15l-169 -302 -70 68 0 220c0,9 -2,17 -8,22 -5,5 -12,7 -20,7 -8,0 -15,-2 -21,-7 -5,-5 -8,-12 -8,-22l0 -522c0,-7 3,-14 9,-19 6,-6 12,-9 20,-9 7,0 14,3 20,7 6,5 8,12 8,21l0 222zm724 214c0,31 -12,59 -34,81 -23,23 -50,34 -82,34l-116 0c-31,0 -58,-11 -81,-33 -23,-23 -35,-50 -35,-82l0 -348c0,-32 12,-60 34,-82 23,-22 50,-34 82,-34l116 0c32,0 59,12 82,34 22,23 34,50 34,82l0 348zm-58 0l0 -348c0,-17 -5,-30 -16,-41 -11,-12 -25,-17 -42,-17l-116 0c-16,0 -30,5 -41,16 -6,6 -10,12 -13,19 -3,7 -4,15 -4,23l0 348c0,16 6,30 17,41 5,5 12,9 18,13 9,2 16,4 23,4l116 0c16,0 30,-6 41,-16 11,-11 17,-25 17,-42zm625 86c0,9 -2,17 -7,22 -6,5 -13,7 -21,7 -7,0 -13,-2 -20,-7 -6,-5 -9,-12 -9,-22l0 -413 -120 200c-7,13 -16,19 -25,19 -9,0 -17,-6 -25,-19l-121 -200 0 413c0,9 -2,17 -8,22 -5,5 -12,7 -20,7 -8,0 -15,-2 -21,-7 -5,-5 -8,-12 -8,-22l0 -518c0,-11 3,-19 8,-25 5,-5 11,-8 18,-8 6,0 10,1 14,4 4,2 9,7 14,14l149 248 149 -248c6,-12 15,-18 27,-18 7,0 13,3 19,9 5,6 7,14 7,24l0 518zm463 0c0,9 -3,17 -8,22 -6,5 -13,7 -21,7 -8,0 -14,-2 -20,-7 -6,-5 -9,-12 -9,-22l0 -409 -235 424c-3,5 -7,10 -13,14l-6 3c-2,1 -5,2 -9,2 -5,0 -12,-3 -19,-8 -5,-6 -7,-15 -7,-25l0 -521c0,-8 2,-15 8,-22 6,-5 13,-7 20,-7 8,0 14,2 20,7 6,5 9,12 9,22l0 409 235 -423c3,-5 7,-10 13,-14 5,-4 10,-6 15,-6 7,0 12,3 18,9 6,6 9,14 9,24l0 521zm376 29l-145 0c-31,0 -58,-11 -81,-33 -23,-23 -34,-50 -34,-82l0 -348c0,-32 11,-60 33,-82 23,-22 50,-34 82,-34l145 0c8,0 15,3 21,9 5,6 8,13 8,20 0,7 -2,13 -7,19 -5,7 -12,10 -22,10l-145 0c-16,0 -30,5 -41,16 -6,6 -10,12 -13,19 -2,7 -4,15 -4,23l0 348c0,16 6,30 17,41 6,5 12,9 18,13 9,2 16,4 23,4l145 0c8,0 15,3 21,9 5,5 8,12 8,20 0,6 -2,13 -7,19 -5,6 -12,9 -22,9zm379 0l-145 0c-31,0 -58,-11 -81,-33 -23,-23 -34,-50 -34,-82l0 -348c0,-32 11,-60 33,-82 23,-22 50,-34 82,-34l145 0c8,0 15,3 21,9 5,6 8,13 8,20 0,7 -2,13 -7,19 -5,7 -12,10 -22,10l-145 0c-16,0 -30,5 -41,16 -6,6 -10,12 -13,19 -2,7 -4,15 -4,23l0 348c0,16 6,30 17,41 6,5 12,9 18,13 9,2 16,4 23,4l145 0c8,0 15,3 21,9 5,5 8,12 8,20 0,6 -2,13 -7,19 -5,6 -12,9 -22,9zm492 -29c0,9 -3,17 -8,22 -6,5 -12,7 -21,7 -8,0 -14,-2 -20,-7 -6,-5 -9,-12 -9,-22l0 -409 -235 424c-3,5 -7,10 -12,14l-7 3c-2,1 -5,2 -9,2 -5,0 -12,-3 -19,-8 -5,-6 -7,-15 -7,-25l0 -521c0,-8 3,-15 8,-22 6,-5 13,-7 21,-7 7,0 14,2 19,7 6,5 9,12 9,22l0 409 235 -423c3,-5 7,-10 13,-14 5,-4 10,-6 15,-6 7,0 13,3 18,9 6,6 9,14 9,24l0 521zm463 0c0,9 -3,17 -8,22 -6,5 -12,7 -21,7 -8,0 -14,-2 -20,-7 -6,-5 -9,-12 -9,-22l0 -409 -235 424c-3,5 -7,10 -13,14l-6 3c-2,1 -5,2 -9,2 -5,0 -12,-3 -19,-8 -5,-6 -7,-15 -7,-25l0 -521c0,-8 3,-15 8,-22 6,-5 13,-7 21,-7 7,0 14,2 19,7 6,5 9,12 9,22l0 409 235 -423c3,-5 7,-10 13,-14 5,-4 10,-6 15,-6 7,0 13,3 18,9 6,6 9,14 9,24l0 521zm-11801 927c0,9 -2,16 -8,22 -5,4 -12,7 -21,7 -6,0 -13,-3 -19,-7 -6,-5 -9,-13 -9,-22l0 -413 -120 200c-7,12 -16,18 -25,18 -9,0 -17,-6 -25,-18l-121 -200 0 413c0,9 -2,16 -8,22 -5,4 -12,7 -21,7 -7,0 -14,-3 -20,-7 -6,-5 -8,-13 -8,-22l0 -519c0,-11 2,-19 8,-24 5,-6 11,-9 18,-9 5,0 10,1 14,4 4,3 9,8 13,15l150 248 148 -248c7,-13 16,-19 28,-19 7,0 13,3 19,9 5,6 7,15 7,24l0 519zm405 -203l-174 0c-31,0 -58,-11 -81,-34 -23,-22 -35,-50 -35,-82l0 -202c0,-8 3,-15 9,-22 6,-5 13,-7 20,-7 8,0 14,2 20,7 6,5 9,12 9,22l0 202c0,17 6,30 17,42 5,5 12,9 18,12 8,3 16,4 23,4l174 0 0 -260c0,-8 3,-15 9,-22 5,-5 12,-7 20,-7 7,0 14,2 20,7 6,5 9,12 9,22l0 434c0,32 -12,59 -34,82 -23,22 -50,34 -82,34l-145 0c-9,0 -16,-3 -21,-8 -5,-6 -8,-13 -8,-21 0,-7 3,-13 8,-19 5,-7 12,-10 21,-10l145 0c16,0 30,-5 41,-16 11,-11 17,-25 17,-42l0 -116zm463 -115l0 -204c0,-7 3,-14 9,-20 5,-6 12,-8 20,-8 7,0 14,2 20,7 6,5 9,12 9,22l0 520c0,8 -3,16 -9,22 -7,5 -14,8 -21,8 -7,0 -13,-3 -20,-7 -5,-5 -8,-12 -8,-22l0 -261 -232 0 0 261c0,9 -3,16 -8,22 -5,4 -12,7 -21,7 -7,0 -14,-3 -20,-7 -6,-5 -9,-13 -9,-22l0 -521c0,-8 3,-15 9,-22 6,-5 13,-7 20,-7 8,0 14,2 20,7 6,5 9,12 9,22l0 203 232 0z"/>
    <path class="fil8 str2" d="M5543 2840c0,9 -3,16 -9,22 -5,4 -12,7 -20,7 -8,0 -15,-3 -20,-7 -6,-5 -9,-13 -9,-22l0 -409 -235 423c-3,6 -8,10 -13,14l-6 3c-2,1 -5,2 -9,3 -6,0 -12,-3 -19,-9 -5,-6 -8,-14 -8,-25l0 -521c0,-8 3,-15 9,-22 6,-5 13,-7 20,-7 8,0 14,2 20,7 6,5 9,12 9,22l0 409 235 -423c3,-5 7,-9 12,-14 6,-4 11,-6 16,-6 6,0 12,3 18,10 6,6 9,14 9,24l0 521zm405 -29l0 -492c0,-8 3,-15 9,-22 5,-5 12,-7 20,-7 7,0 14,2 20,7 6,5 9,12 9,22l0 492 29 0c19,0 29,10 29,29l0 87c0,8 -3,15 -9,21 -6,5 -12,8 -20,8 -6,0 -13,-2 -19,-7 -6,-5 -10,-12 -10,-22l0 -58 -319 0c-19,0 -29,-10 -29,-29l0 -521c0,-8 3,-15 9,-22 6,-5 13,-7 20,-7 8,0 14,2 20,7 6,5 9,12 9,22l0 492 232 0zm578 29c0,9 -2,16 -8,22 -5,4 -12,7 -20,7 -8,0 -15,-3 -21,-7 -5,-5 -8,-13 -8,-22l0 -409 -235 423c-4,6 -8,10 -13,14l-6 3c-2,1 -5,2 -9,3 -6,0 -12,-3 -19,-9 -5,-6 -8,-14 -8,-25l0 -521c0,-8 3,-15 9,-22 6,-5 12,-7 20,-7 7,0 14,2 20,7 6,5 9,12 9,22l0 409 235 -423c3,-5 7,-9 12,-14 5,-4 11,-6 16,-6 6,0 12,3 18,10 5,6 8,14 8,24l0 521zm463 0c0,9 -2,16 -8,22 -5,4 -12,7 -20,7 -8,0 -15,-3 -21,-7 -5,-5 -8,-13 -8,-22l0 -493 -232 0 0 493c0,9 -3,16 -8,22 -6,4 -12,7 -21,7 -8,0 -14,-3 -20,-7 -6,-5 -9,-13 -9,-22l0 -521c0,-20 10,-29 29,-29l289 0c20,0 29,9 29,29l0 521zm218 -116l-42 125c-2,6 -6,11 -11,15 -3,2 -9,4 -15,5 -8,0 -15,-3 -21,-9 -6,-4 -9,-11 -9,-19l2 -11 174 -521c6,-16 15,-24 27,-24 13,0 22,8 27,24l174 521 2 11c0,7 -3,14 -10,20 -6,5 -13,8 -20,8 -4,0 -8,-1 -13,-3 -5,-2 -9,-8 -13,-17l-42 -125 -210 0zm190 -59l-85 -255 -85 255 170 0zm577 175c0,9 -3,16 -8,22 -5,4 -12,7 -21,7 -7,0 -14,-3 -20,-7 -6,-5 -9,-13 -9,-22l0 -493 -94 0 -139 500c-1,6 -4,11 -9,15 -6,5 -12,7 -18,7 -9,0 -16,-3 -21,-7 -6,-5 -9,-12 -9,-21 0,-4 1,-7 2,-9l145 -521c4,-14 13,-21 27,-21l145 0c19,0 29,9 29,29l0 521zm173 -261l174 0c16,0 30,6 41,17 11,11 17,25 17,41l0 116c0,17 -6,30 -17,42 -6,5 -12,9 -19,12 -7,3 -14,4 -22,4l-174 0 0 -232zm0 -57l0 -203c0,-8 -3,-15 -9,-21 -6,-5 -13,-8 -20,-8 -7,0 -13,2 -19,7 -7,5 -10,12 -10,22l0 521c0,19 10,29 29,29l203 0c31,0 58,-11 81,-34 23,-22 34,-49 34,-82l0 -116c0,-31 -11,-58 -34,-81 -22,-23 -49,-34 -82,-34l-173 0zm695 0l0 -204c0,-7 2,-14 8,-20 6,-6 13,-8 20,-8 8,0 15,2 20,7 6,5 9,12 9,22l0 520c0,8 -3,16 -9,22 -7,5 -13,8 -20,8 -7,0 -14,-3 -20,-7 -6,-5 -8,-12 -8,-22l0 -261 -232 0 0 261c0,9 -3,16 -9,22 -5,4 -12,7 -20,7 -8,0 -15,-3 -20,-7 -6,-5 -9,-13 -9,-22l0 -521c0,-8 3,-15 9,-22 5,-5 12,-7 20,-7 7,0 14,2 20,7 6,5 9,12 9,22l0 203 232 0zm520 231c0,32 -11,59 -34,82 -22,22 -50,34 -82,34l-115 0c-32,0 -59,-12 -82,-34 -23,-22 -34,-50 -34,-82l0 -347c0,-33 11,-60 34,-83 22,-22 50,-33 82,-33l115 0c33,0 60,11 82,34 23,22 34,49 34,82l0 347zm-57 0l0 -348c0,-16 -6,-30 -17,-41 -11,-11 -25,-17 -41,-17l-116 0c-17,0 -30,6 -42,17 -5,5 -9,12 -12,19 -3,7 -4,14 -4,22l0 348c0,16 5,30 16,42 6,5 12,9 19,12 8,3 16,4 23,4l116 0c16,0 29,-5 41,-16 11,-11 17,-25 17,-42zm480 -406l-203 0 0 493c0,9 -3,16 -8,22 -6,4 -12,7 -21,7 -8,0 -14,-3 -20,-7 -6,-5 -9,-13 -9,-22l0 -521c0,-20 10,-29 29,-29l232 0c8,0 15,3 21,9 5,5 8,12 8,19 0,7 -2,13 -7,20 -5,6 -12,9 -22,9zm462 406c0,32 -11,59 -34,82 -22,22 -50,34 -81,34l-116 0c-32,0 -59,-12 -82,-34 -22,-22 -34,-50 -34,-82l0 -347c0,-33 11,-60 34,-83 22,-22 50,-33 82,-33l116 0c32,0 59,11 82,34 22,22 33,49 33,82l0 347zm-57 0l0 -348c0,-16 -6,-30 -17,-41 -11,-11 -25,-17 -41,-17l-116 0c-17,0 -30,6 -42,17 -5,5 -9,12 -12,19 -3,7 -4,14 -4,22l0 348c0,16 5,30 16,42 6,5 12,9 19,12 8,3 16,4 23,4l116 0c16,0 29,-5 41,-16 11,-11 17,-25 17,-42zm914 0c0,32 -11,59 -34,82 -23,22 -50,34 -82,34l-116 0c-31,0 -58,-12 -81,-34 -23,-22 -34,-50 -34,-82l0 -347c0,-33 11,-60 33,-83 23,-22 50,-33 82,-33l116 0c32,0 60,11 82,34 23,22 34,49 34,82l0 347zm-58 0l0 -348c0,-16 -5,-30 -16,-41 -11,-11 -25,-17 -42,-17l-116 0c-16,0 -30,6 -41,17 -6,5 -10,12 -13,19 -2,7 -4,14 -4,22l0 348c0,16 6,30 17,42 6,5 12,9 19,12 8,3 15,4 22,4l116 0c16,0 30,-5 41,-16 12,-11 17,-25 17,-42zm278 -174l0 232 173 0c17,0 30,-5 42,-16 11,-11 16,-25 16,-42l0 -116c0,-16 -5,-30 -16,-41 -11,-11 -25,-17 -42,-17l-173 0zm0 -57l173 0c32,0 59,11 82,33 23,23 34,50 34,82l0 116c0,32 -11,59 -34,82 -22,22 -50,34 -82,34l-202 0c-19,0 -29,-10 -29,-29l0 -521c0,-20 10,-29 29,-29l231 0c8,0 15,3 21,9 6,5 8,12 8,19 0,7 -2,13 -7,20 -5,6 -12,9 -22,9l-202 0 0 175zm462 57l174 0c17,0 30,-5 42,-16 11,-11 16,-25 16,-42l0 -116c0,-16 -5,-30 -16,-41 -11,-11 -25,-17 -42,-17l-174 0 0 232zm0 58l0 203c0,9 -2,16 -8,22 -5,4 -12,7 -20,7 -8,0 -15,-3 -20,-7 -6,-5 -9,-13 -9,-22l0 -521c0,-20 10,-29 29,-29l202 0c33,0 60,11 82,34 23,22 34,49 34,81l0 116c0,32 -11,59 -34,82 -23,22 -50,34 -82,34l-174 0zm450 87l-42 125c-2,6 -6,11 -11,15 -4,2 -9,4 -16,5 -7,0 -14,-3 -20,-9 -6,-4 -9,-11 -9,-19l2 -11 174 -521c6,-16 15,-24 27,-24 12,0 22,8 27,24l174 521 2 11c0,7 -4,14 -10,20 -6,5 -13,8 -20,8 -4,0 -8,-1 -13,-3 -5,-2 -10,-8 -14,-17l-41 -125 -210 0zm190 -59l-85 -255 -85 255 170 0zm403 -86l-87 0c-9,0 -16,-2 -21,-8 -5,-6 -8,-13 -8,-21 0,-6 3,-13 8,-19 5,-6 12,-9 21,-9l87 0c16,0 30,-6 41,-17 11,-10 17,-24 17,-41l0 -59c0,-16 -6,-30 -16,-41 -11,-11 -25,-17 -42,-17l-58 0c-13,0 -24,4 -33,11 -10,7 -17,16 -22,29 -1,6 -4,10 -9,14 -2,2 -5,4 -8,5l-9 2c-8,0 -16,-3 -22,-8 -6,-6 -9,-13 -9,-21l2 -10c7,-23 21,-42 42,-57 20,-15 43,-22 68,-22l58 0c32,0 59,11 82,34 22,22 33,49 33,82l0 57c0,17 -3,33 -10,49 -6,15 -16,28 -29,38 26,22 39,51 39,87l0 116c0,32 -11,59 -33,82 -23,22 -50,34 -82,34l-58 0c-25,0 -47,-7 -67,-22 -20,-14 -34,-34 -43,-58l-2 -10c0,-8 3,-14 9,-20 6,-6 13,-9 22,-9 11,0 20,7 26,20 4,11 10,22 21,31 11,7 22,10 34,10l58 0c16,0 30,-5 41,-16 11,-11 17,-25 17,-42l0 -116c0,-17 -4,-30 -13,-40 -10,-12 -25,-18 -45,-18zm578 174c0,32 -11,59 -34,82 -22,22 -50,34 -82,34l-115 0c-32,0 -59,-12 -82,-34 -23,-22 -34,-50 -34,-82l0 -347c0,-33 11,-60 34,-83 22,-22 50,-33 82,-33l115 0c33,0 60,11 82,34 23,22 34,49 34,82l0 347zm-57 0l0 -348c0,-16 -6,-30 -17,-41 -11,-11 -25,-17 -41,-17l-116 0c-17,0 -30,6 -42,17 -5,5 -9,12 -12,19 -3,7 -4,14 -4,22l0 348c0,16 5,30 16,42 6,5 12,9 19,12 8,3 16,4 23,4l116 0c16,0 29,-5 41,-16 11,-11 17,-25 17,-42zm511 -215c17,10 30,24 40,42 10,18 15,37 15,57l0 116c0,32 -11,59 -33,82 -23,22 -50,34 -82,34l-203 0c-19,0 -29,-10 -29,-29l0 -521c0,-20 10,-29 29,-29l174 0c32,0 59,11 82,34 22,22 34,49 34,82l0 57c0,14 -2,26 -7,39 -4,12 -10,24 -20,36zm-234 41l0 232 174 0c16,0 29,-5 41,-16 11,-11 17,-25 17,-42l0 -116c0,-16 -6,-30 -17,-41 -10,-11 -24,-17 -41,-17l-174 0zm145 -57c16,0 30,-6 41,-17 11,-10 17,-24 17,-42l0 -58c0,-16 -5,-30 -16,-41 -11,-11 -25,-17 -42,-17l-145 0 0 175 145 0zm333 202l-42 125c-2,6 -6,11 -11,15 -4,2 -9,4 -16,5 -7,0 -14,-3 -20,-9 -6,-4 -9,-11 -9,-19l2 -11 174 -521c5,-16 15,-24 27,-24 12,0 21,8 27,24l173 521 3 11c0,7 -4,14 -10,20 -6,5 -13,8 -20,8 -4,0 -8,-1 -13,-3 -5,-2 -10,-8 -14,-17l-41 -125 -210 0zm190 -59l-85 -255 -86 255 171 0zm518 -143l0 -204c0,-7 3,-14 9,-20 6,-6 12,-8 20,-8 7,0 14,2 20,7 6,5 9,12 9,22l0 520c0,8 -3,16 -9,22 -7,5 -14,8 -20,8 -7,0 -14,-3 -20,-7 -6,-5 -9,-12 -9,-22l0 -261 -232 0 0 261c0,9 -2,16 -8,22 -5,4 -12,7 -20,7 -8,0 -15,-3 -21,-7 -5,-5 -8,-13 -8,-22l0 -521c0,-8 3,-15 8,-22 6,-5 13,-7 21,-7 7,0 14,2 19,7 6,5 9,12 9,22l0 203 232 0zm521 318c0,9 -3,16 -8,22 -6,4 -12,7 -21,7 -8,0 -14,-3 -20,-7 -6,-5 -9,-13 -9,-22l0 -409 -235 423c-3,6 -7,10 -12,14l-7 3c-2,1 -5,2 -9,3 -5,0 -12,-3 -19,-9 -5,-6 -7,-14 -7,-25l0 -521c0,-8 3,-15 8,-22 6,-5 13,-7 21,-7 7,0 14,2 19,7 6,5 9,12 9,22l0 409 235 -423c3,-5 7,-9 13,-14 5,-4 10,-6 15,-6 7,0 13,3 18,10 6,6 9,14 9,24l0 521zm405 -261l0 -232 -174 0c-16,0 -30,6 -41,17 -6,5 -10,12 -13,19 -2,7 -4,14 -4,22l0 116c0,16 6,30 17,42 6,5 12,9 19,12 8,3 15,4 22,4l174 0zm-99 58l-137 218c-6,9 -13,14 -23,14 -8,0 -14,-3 -20,-9 -7,-6 -10,-13 -10,-21 0,-5 1,-11 4,-15l117 -187 -6 0c-31,0 -58,-11 -81,-34 -23,-22 -34,-50 -34,-82l0 -116c0,-32 11,-59 33,-82 23,-22 50,-33 82,-33l203 0c19,0 29,9 29,29l0 521c0,9 -3,16 -8,22 -6,4 -12,7 -21,7 -8,0 -14,-3 -20,-7 -6,-5 -9,-13 -9,-22l0 -203 -99 0z"/>
   </g>
   <g>
    <g>
     <path class="fil9" d="M3325 7080c-36,0 -65,-22 -65,-49 0,-27 29,-49 65,-49l0 98zm12165 0l-12165 0 0 -98 12165 0 0 98zm0 -98c36,0 66,22 66,49 0,27 -30,49 -66,49l0 -98z"/>
    </g>
    <g>
     <path class="fil10 str3" d="M8967 6225c-127,-70 -657,-255 -659,-255 -123,-201 -173,-786 -173,-786l-359 0 -358 0c0,0 -51,585 -174,786 -1,0 -531,185 -658,255 -127,71 -212,151 -212,292 0,98 11,219 11,305l2782 0c0,-106 11,-207 11,-305 0,-141 -84,-221 -211,-292z"/>
     <path class="fil11 str3" d="M8967 6225c-127,-70 -658,-255 -659,-255 0,0 -83,365 -532,647 -448,-282 -532,-647 -532,-647 -1,0 -531,185 -658,255 -127,71 -212,151 -212,292 0,98 11,389 11,475l1391 0 1391 0c0,-86 11,-377 11,-475 0,-141 -84,-221 -211,-292z"/>
     <path class="fil12 str3" d="M8464 6025c-90,-32 -156,-55 -157,-55 0,0 -83,364 -531,646 -448,-282 -532,-646 -532,-646 0,0 -66,23 -156,55 0,0 140,579 688,797l0 0c0,0 0,0 0,0 0,0 0,0 0,0l0 0c547,-218 688,-797 688,-797z"/>
     <path class="fil10 str3" d="M8543 4566c-30,-66 -73,-14 -90,24 12,-451 -155,-924 -680,-932l0 -1c-3,0 -6,0 -8,0 -3,0 -5,0 -8,0l0 1c-528,9 -689,479 -675,932 -22,-36 -67,-94 -100,-24 -39,86 73,371 131,312 17,87 39,170 66,243 161,447 503,565 578,579l16 0c75,-14 416,-132 578,-579 26,-72 48,-154 65,-240 59,45 166,-230 127,-315z"/>
     <path class="fil13 str3" d="M7082 4590c0,0 677,-63 1102,-371 0,0 144,299 269,371 0,0 37,-72 79,-42 43,29 -2,226 -41,277 -38,50 -51,69 -75,56 0,0 -42,305 -244,555 0,0 16,262 236,379 220,117 534,96 719,-115 0,0 -393,0 -382,-442 7,-313 228,-1865 -943,-1705l-69 0c-1171,-160 -952,1392 -943,1705 12,412 -382,442 -382,442 185,211 499,232 719,115 220,-117 235,-379 235,-379 -201,-250 -243,-555 -243,-555 0,0 -61,14 -104,-96 -44,-110 -68,-324 67,-195z"/>
     <g>
      <path class="fil14" d="M7439 4714c-28,0 -50,22 -50,50 0,27 22,50 50,50 27,0 50,-23 50,-50 0,-28 -23,-50 -50,-50zm657 0c-28,0 -50,22 -50,50 0,27 22,50 50,50 27,0 50,-23 50,-50 0,-28 -23,-50 -50,-50z"/>
      <path id="1" class="fil15" d="M7439 4764l-100 0 0 0 0 -5 0 -4 1 -5 1 -4 1 -5 1 -4 1 -4 2 -4 2 -4 2 -4 2 -4 3 -4 2 -4 3 -3 3 -4 3 -3 3 -3 4 -3 4 -3 4 -3 4 -3 4 -2 4 -2 5 -2 5 -2 4 -2 5 -1 6 -1 5 -1 5 -1 5 -1 6 0 0 89 0 0 0 0 1 0 0 0 0 0 0 0 1 0 0 0 0 0 0 0 0 0 0 0 0 0 0 0 0 0 0 0 0 0 0 0 -1 1 0 0 0 0 0 0 0 1 0 0 -1 0 0 1 0 0 0 1 0 0 0 1 0 0 0 1 0 0zm0 0c0,24 -23,44 -50,44 -28,0 -50,-20 -50,-44l100 0zm0 5l0 89 0 0 -6 0 -5 0 -5 -1 -5 -1 -6 -1 -5 -1 -4 -2 -5 -2 -5 -2 -4 -2 -4 -3 -4 -2 -4 -3 -4 -3 -4 -3 -3 -3 -3 -4 -3 -3 -3 -4 -2 -3 -3 -4 -2 -4 -2 -4 -2 -4 -2 -4 -1 -4 -1 -5 -1 -4 -1 -5 -1 -4 0 -5 0 -4 100 0 0 0 0 1 0 0 0 1 0 0 0 1 0 0 1 1 0 0 0 0 0 1 0 0 0 0 1 0 0 0 0 1 0 0 0 0 0 0 0 0 0 0 0 0 0 0 0 0 0 0 -1 0 0 0 0 -1 0 0 -1 0 0 0 0 0 0 0zm0 0c27,0 50,20 50,45 0,24 -23,44 -50,44l0 -89zm0 -5l100 0 0 0 0 4 -1 5 0 4 -1 5 -1 4 -1 5 -2 4 -1 4 -2 4 -2 4 -2 4 -3 4 -2 3 -3 4 -3 3 -3 4 -4 3 -3 3 -4 3 -4 3 -4 2 -4 3 -5 2 -4 2 -5 2 -5 2 -5 1 -5 1 -5 1 -5 1 -6 0 -5 0 0 -89 0 0 -1 0 0 0 0 0 -1 1 0 0 0 0 0 0 0 0 0 0 0 0 0 0 0 0 0 0 0 0 0 0 0 -1 0 0 0 0 0 0 1 0 0 -1 0 0 0 0 0 -1 0 0 1 -1 0 0 0 -1 0 0 0 -1 0 0 0 0zm0 0c0,-25 22,-45 50,-45 27,0 50,20 50,45l-100 0zm0 -6l0 -89 0 0 5 0 6 1 5 1 5 1 5 1 5 1 5 2 5 2 4 2 5 2 4 2 4 3 4 3 4 3 3 3 4 3 3 3 3 4 3 3 2 4 3 4 2 4 2 4 2 4 1 4 2 4 1 4 1 5 1 4 0 5 1 4 0 5 -100 0 0 -1 0 0 0 -1 0 0 0 -1 -1 0 0 -1 0 0 0 0 0 -1 0 0 -1 0 0 0 0 -1 0 0 0 0 0 0 0 0 0 0 0 0 0 0 0 0 0 0 0 0 0 0 0 0 0 0 1 0 0 0 0 0 1 0 0 0 0 0zm0 0c-28,0 -50,-20 -50,-44 0,-25 22,-45 50,-45l0 89zm657 6l-100 0 0 0 0 -5 0 -4 1 -5 1 -4 1 -5 1 -4 1 -4 2 -4 2 -4 2 -4 2 -4 3 -4 2 -4 3 -3 3 -4 3 -3 3 -3 4 -3 4 -3 4 -3 4 -3 4 -2 4 -2 5 -2 5 -2 4 -2 5 -1 6 -1 5 -1 5 -1 5 -1 6 0 0 89 0 0 0 0 1 0 0 0 0 0 0 0 1 0 0 0 0 0 0 0 0 0 0 0 0 0 0 0 0 0 0 0 0 0 0 0 -1 1 0 0 0 0 0 0 0 1 0 0 -1 0 0 1 0 0 0 1 0 0 0 1 0 0 0 1 0 0zm0 0c0,24 -23,44 -50,44 -28,0 -50,-20 -50,-44l100 0zm0 5l0 89 0 0 -6 0 -5 0 -5 -1 -5 -1 -6 -1 -5 -1 -4 -2 -5 -2 -5 -2 -4 -2 -4 -3 -4 -2 -4 -3 -4 -3 -4 -3 -3 -3 -3 -4 -3 -3 -3 -4 -2 -3 -3 -4 -2 -4 -2 -4 -2 -4 -2 -4 -1 -4 -1 -5 -1 -4 -1 -5 -1 -4 0 -5 0 -4 100 0 0 0 0 1 0 0 0 1 0 0 0 1 0 0 1 1 0 0 0 0 0 1 0 0 0 0 1 0 0 0 0 1 0 0 0 0 0 0 0 0 0 0 0 0 0 0 0 0 0 0 -1 0 0 0 0 -1 0 0 -1 0 0 0 0 0 0 0zm0 0c27,0 50,20 50,45 0,24 -23,44 -50,44l0 -89zm0 -5l100 0 0 0 0 4 -1 5 0 4 -1 5 -1 4 -1 5 -2 4 -1 4 -2 4 -2 4 -2 4 -3 4 -2 3 -3 4 -3 3 -3 4 -4 3 -3 3 -4 3 -4 3 -4 2 -4 3 -5 2 -4 2 -5 2 -5 2 -5 1 -5 1 -5 1 -5 1 -6 0 -5 0 0 -89 0 0 -1 0 0 0 0 0 -1 1 0 0 0 0 0 0 0 0 0 0 0 0 0 0 0 0 0 0 0 0 0 0 0 -1 0 0 0 0 0 0 1 0 0 -1 0 0 0 0 0 -1 0 0 1 -1 0 0 0 -1 0 0 0 -1 0 0 0 0zm0 0c0,-25 22,-45 50,-45 27,0 50,20 50,45l-100 0zm0 -6l0 -89 0 0 5 0 6 1 5 1 5 1 5 1 5 1 5 2 5 2 4 2 5 2 4 2 4 3 4 3 4 3 3 3 4 3 3 3 3 4 3 3 2 4 3 4 2 4 2 4 2 4 1 4 2 4 1 4 1 5 1 4 0 5 1 4 0 5 -100 0 0 -1 0 0 0 -1 0 0 0 -1 -1 0 0 -1 0 0 0 0 0 -1 0 0 -1 0 0 0 0 -1 0 0 0 0 0 0 0 0 0 0 0 0 0 0 0 0 0 0 0 0 0 0 0 0 0 0 1 0 0 0 0 0 1 0 0 0 0 0zm0 0c-28,0 -50,-20 -50,-44 0,-25 22,-45 50,-45l0 89z"/>
     </g>
    </g>
    <path class="fil16 str4" d="M10154 4567c8,5 17,12 26,20 0,0 0,1 1,1 -7,-6 -16,-14 -27,-21z"/>
    <path class="fil10 str4" d="M9571 6469c440,-65 721,-396 721,-396 138,-187 112,-823 112,-823l444 0 444 0c0,0 -25,636 113,823 0,0 281,331 720,396 0,0 60,15 -79,243 -68,113 -631,170 -1198,171 -566,-1 -1129,-58 -1198,-171 -138,-228 -79,-243 -79,-243z"/>
    <path class="fil17 str4" d="M10822 6657c0,19 15,35 33,35 19,0 34,-16 34,-35 0,-18 -15,-34 -34,-34 -18,0 -33,16 -33,34z"/>
    <path class="fil10 str4" d="M10014 4549c50,-15 90,20 111,39 -1,-6 -1,-13 -1,-20 -13,-484 167,-991 730,-1001l0 0c3,0 6,0 9,0 2,0 5,0 8,0l0 0c566,10 739,515 725,1001 0,6 0,13 -1,20 22,-19 61,-54 111,-39 103,30 61,410 -163,471 -15,101 -34,225 -49,265 -26,70 -255,328 -353,372 -97,44 -279,40 -279,40 0,0 -182,4 -279,-40 -97,-44 -327,-302 -353,-372 -14,-40 -34,-164 -48,-264l-1 0c-228,-57 -257,-446 -167,-472z"/>
    <path class="fil18 str4" d="M12236 6964c0,-117 11,-228 11,-336 0,-155 -85,-243 -211,-321 -126,-78 -655,-281 -655,-281 -122,231 -529,229 -529,229 0,0 -406,2 -528,-229 0,0 -529,203 -655,281 -127,78 -211,166 -211,321 0,108 11,241 11,336l2767 0z"/>
    <path class="fil19 str4" d="M10257 6052c-14,10 -29,17 -47,18 17,-7 33,-13 47,-18z"/>
    <path class="fil19 str4" d="M9621 6338c-10,45 -46,79 -90,81 25,-30 55,-56 90,-81z"/>
    <path class="fil19 str4" d="M10075 6311c0,60 -44,108 -98,108 -54,0 -98,-48 -98,-108 0,-59 44,-108 98,-108 54,0 98,49 98,108z"/>
    <path class="fil19 str4" d="M10525 6311c0,60 -44,108 -98,108 -54,0 -97,-48 -97,-108 0,-59 43,-108 97,-108 54,0 98,49 98,108z"/>
    <path class="fil19 str4" d="M10975 6311c0,60 -44,108 -98,108 -54,0 -97,-48 -97,-108 0,-21 6,-41 15,-58 35,2 57,2 57,2 0,0 43,0 104,-7 12,18 19,40 19,63z"/>
    <path class="fil19 str4" d="M11425 6311c0,60 -44,108 -97,108 -54,0 -98,-48 -98,-108 0,-59 44,-108 98,-108 53,0 97,49 97,108z"/>
    <path class="fil19 str4" d="M11875 6311c0,60 -43,108 -97,108 -54,0 -98,-48 -98,-108 0,-59 44,-108 98,-108 54,0 97,49 97,108z"/>
    <path class="fil19 str4" d="M9849 6660c0,59 -43,108 -97,108 -54,0 -98,-49 -98,-108 0,-60 44,-108 98,-108 54,0 97,48 97,108z"/>
    <path class="fil19 str4" d="M10300 6660c0,59 -44,108 -98,108 -54,0 -97,-49 -97,-108 0,-60 43,-108 97,-108 54,0 98,48 98,108z"/>
    <path class="fil19 str4" d="M10750 6660c0,59 -44,108 -98,108 -54,0 -97,-49 -97,-108 0,-60 43,-108 97,-108 54,0 98,48 98,108z"/>
    <path class="fil19 str4" d="M11200 6660c0,59 -44,108 -98,108 -53,0 -97,-49 -97,-108 0,-60 44,-108 97,-108 54,0 98,48 98,108z"/>
    <path class="fil19 str4" d="M11650 6660c0,59 -43,108 -97,108 -54,0 -98,-49 -98,-108 0,-60 44,-108 98,-108 54,0 97,48 97,108z"/>
    <path class="fil19 str4" d="M12100 6660c0,59 -43,108 -97,108 -54,0 -98,-49 -98,-108 0,-60 44,-108 98,-108 54,0 97,48 97,108z"/>
    <path class="fil19 str4" d="M9468 6922c16,-13 37,-21 59,-21 39,0 73,26 89,63l-147 0c0,-13 0,-27 -1,-42z"/>
    <path class="fil19 str4" d="M9888 6964c15,-37 49,-63 89,-63 39,0 74,26 89,63l-178 0z"/>
    <path class="fil19 str4" d="M10338 6964c15,-37 50,-63 89,-63 40,0 74,26 89,63l-178 0z"/>
    <path class="fil19 str4" d="M10788 6964c16,-37 50,-63 89,-63 40,0 74,26 89,63l-178 0z"/>
    <path class="fil19 str4" d="M11239 6964c15,-37 49,-63 89,-63 39,0 73,26 88,63l-177 0z"/>
    <path class="fil19 str4" d="M11689 6964c15,-37 49,-63 89,-63 39,0 73,26 89,63l-178 0z"/>
    <path class="fil19 str4" d="M12139 6964c15,-37 49,-63 89,-63 3,0 6,0 9,0 -1,21 -1,42 -1,63l-97 0z"/>
    <path class="fil20 str4" d="M11381 6023c-165,227 -529,232 -529,232 0,0 -363,-5 -528,-232l-194 78c0,0 134,365 722,365 589,0 722,-365 722,-365l-193 -78z"/>
    <path class="fil21 str4" d="M11434 5279c-34,52 -290,80 -329,105 -38,25 -111,93 -242,95 -132,-2 -205,-70 -243,-95 -38,-25 -294,-53 -328,-105 -35,-51 -109,-259 -109,-259 14,104 34,232 49,272 26,73 258,338 357,384 86,40 237,41 274,41 37,0 188,-1 274,-41 98,-46 330,-311 356,-384 15,-40 35,-168 50,-272 0,0 -75,208 -109,259z"/>
    <path class="fil21 str4" d="M10014 4549c0,0 -42,-724 125,-685 0,0 -13,-159 120,-236 133,-77 215,-185 215,-185 0,0 14,88 -78,146 0,0 114,-52 197,-165 0,0 -22,97 -85,144 0,0 146,-130 334,-159 0,0 -89,22 -150,112 0,0 193,-65 233,-128 0,0 -40,100 -130,123 0,0 184,-72 343,-81 0,0 -107,30 -171,73 0,0 172,-56 231,-77 0,0 287,128 416,437 129,309 92,681 92,681 0,0 -58,15 -105,58 0,0 -62,-131 -65,-183 -3,-74 -56,-286 -103,-356 -48,-71 -155,-182 -262,-157 -107,26 -290,38 -449,17 -158,-21 -304,-2 -341,63 0,0 -122,340 -156,400 -34,60 -53,125 -78,215 0,0 -83,-84 -133,-57z"/>
    <path class="fil22 str4" d="M11459 4785c-24,85 -73,109 -153,120 -79,11 -171,2 -216,-25 -45,-26 -86,-114 -83,-189 4,-75 47,-92 126,-108 79,-17 191,-21 262,-18 72,3 87,30 90,59 3,31 -1,77 -26,161zm-804 95c-46,27 -137,36 -217,25 -79,-11 -129,-35 -153,-120 -24,-84 -29,-130 -25,-161 3,-29 17,-56 89,-59 72,-3 183,1 263,18 79,16 122,33 125,108 4,75 -37,163 -82,189zm705 -372c-146,0 -222,21 -287,35 -64,13 -136,39 -197,40 -61,-1 -133,-27 -198,-40 -64,-14 -140,-35 -286,-35 -176,0 -264,17 -264,17l10 76c42,11 44,28 54,61 10,34 34,112 47,156 10,33 34,114 194,133 155,19 233,-6 274,-41 47,-40 92,-166 103,-214 12,-49 29,-41 29,-41l35 0 4 0 35 0c0,0 17,-8 28,41 12,48 56,174 104,214 41,35 118,60 274,41 160,-19 184,-100 194,-133 13,-44 37,-122 47,-156 10,-33 12,-50 54,-61l10 -76c0,0 -89,-17 -264,-17z"/>
    <path class="fil21 str4" d="M11268 5235c-106,7 -225,-66 -294,-85 -69,-19 -98,19 -98,19 0,0 -29,-38 -98,-19 -69,19 -188,92 -294,85 0,0 206,111 392,11 186,100 392,-11 392,-11z"/>
    <g>
     <path class="fil14" d="M10538 4695c-27,0 -50,22 -50,50 0,28 23,50 50,50 28,0 50,-22 50,-50 0,-28 -22,-50 -50,-50zm657 0c-27,0 -50,22 -50,50 0,28 23,50 50,50 28,0 50,-22 50,-50 0,-28 -22,-50 -50,-50z"/>
     <path id="1" class="fil15" d="M10538 4745l-100 0 0 0 0 -5 1 -4 0 -5 1 -4 1 -4 1 -5 2 -4 1 -4 2 -4 2 -4 3 -4 2 -4 3 -4 2 -3 3 -4 4 -3 3 -3 4 -3 3 -3 4 -3 4 -3 4 -2 5 -2 4 -2 5 -2 5 -2 5 -1 5 -1 5 -1 6 -1 5 0 5 -1 0 89 1 0 0 0 0 0 0 0 1 0 0 0 0 0 0 0 0 0 1 0 0 0 0 0 0 0 -1 0 0 0 0 0 0 0 0 1 0 0 0 0 0 0 -1 1 0 0 0 0 0 1 0 0 0 0 0 1 -1 0 0 1 0 0 0 1 0 0zm0 0c0,25 -22,44 -50,44 -27,0 -50,-19 -50,-44l100 0zm0 5l0 89 0 0 -5 0 -5 0 -6 -1 -5 -1 -5 -1 -5 -1 -5 -2 -5 -2 -4 -2 -5 -2 -4 -2 -4 -3 -4 -3 -3 -3 -4 -3 -3 -3 -4 -3 -3 -4 -2 -3 -3 -4 -2 -4 -3 -4 -2 -4 -2 -4 -1 -4 -2 -4 -1 -5 -1 -4 -1 -4 0 -5 -1 -4 0 -5 100 0 0 1 0 0 0 1 1 0 0 1 0 0 0 0 0 1 0 0 0 0 1 1 0 0 0 0 0 1 0 0 0 0 0 0 0 0 1 0 0 0 0 0 0 0 -1 0 0 0 0 0 0 0 0 0 -1 0 0 0 0 0 0 -1 -1 0 0 0zm0 0c28,0 50,20 50,45 0,25 -22,44 -50,44l0 -89zm0 -5l100 0 0 0 0 5 0 4 -1 5 -1 4 -1 4 -1 5 -1 4 -2 4 -2 4 -2 4 -2 4 -2 4 -3 4 -3 3 -3 4 -3 3 -3 3 -4 3 -4 3 -3 3 -5 3 -4 2 -4 2 -5 2 -4 2 -5 2 -5 1 -6 1 -5 1 -5 1 -5 0 -6 0 0 -89 0 0 0 1 -1 0 0 0 0 0 0 0 -1 0 0 0 0 0 0 0 0 0 0 0 0 0 0 0 0 0 0 0 0 0 1 -1 0 0 0 0 0 0 0 -1 0 0 1 0 0 -1 0 0 0 0 0 -1 0 0 0 -1 0 0 0 -1 0 0zm0 0c0,-25 23,-45 50,-45 28,0 50,20 50,45l-100 0zm0 -6l0 -89 0 0 6 1 5 0 5 1 6 1 5 1 5 1 5 2 4 2 5 2 4 2 4 2 5 3 3 3 4 3 4 3 3 3 3 3 3 4 3 3 3 4 2 4 2 4 2 4 2 4 2 4 1 4 1 5 1 4 1 4 1 5 0 4 0 5 -100 0 0 -1 0 0 0 -1 0 0 0 -1 0 0 0 0 0 -1 -1 0 0 0 0 -1 0 0 0 0 0 0 -1 -1 0 0 0 0 0 0 0 0 0 0 0 0 0 0 0 0 0 0 0 0 1 0 0 0 0 0 0 0 1 0 0 0 0 0 0 0zm0 0c-27,0 -50,-19 -50,-44 0,-25 23,-45 50,-45l0 89zm657 6l-100 0 0 0 0 -5 1 -4 0 -5 1 -4 1 -4 1 -5 2 -4 1 -4 2 -4 2 -4 3 -4 2 -4 3 -4 2 -3 3 -4 4 -3 3 -3 4 -3 3 -3 4 -3 4 -3 4 -2 5 -2 4 -2 5 -2 5 -2 5 -1 5 -1 5 -1 6 -1 5 0 5 -1 0 89 1 0 0 0 0 0 0 0 1 0 0 0 0 0 0 0 0 0 1 0 0 0 0 0 0 0 -1 0 0 0 0 0 0 0 0 1 0 0 0 0 0 0 -1 1 0 0 0 0 0 1 0 0 0 0 0 1 -1 0 0 1 0 0 0 1 0 0zm0 0c0,25 -22,44 -50,44 -27,0 -50,-19 -50,-44l100 0zm0 5l0 89 0 0 -5 0 -5 0 -6 -1 -5 -1 -5 -1 -5 -1 -5 -2 -5 -2 -4 -2 -5 -2 -4 -2 -4 -3 -4 -3 -3 -3 -4 -3 -3 -3 -4 -3 -3 -4 -2 -3 -3 -4 -2 -4 -3 -4 -2 -4 -2 -4 -1 -4 -2 -4 -1 -5 -1 -4 -1 -4 0 -5 -1 -4 0 -5 100 0 0 1 0 0 0 1 1 0 0 1 0 0 0 0 0 1 0 0 0 0 1 1 0 0 0 0 0 0 0 1 0 0 0 0 0 0 1 0 0 0 0 0 0 0 -1 0 0 0 0 0 0 0 0 0 -1 0 0 0 0 0 0 -1 -1 0 0 0zm0 0c28,0 50,20 50,45 0,25 -22,44 -50,44l0 -89zm0 -5l100 0 0 0 0 5 0 4 -1 5 -1 4 -1 4 -1 5 -1 4 -2 4 -2 4 -2 4 -2 4 -2 4 -3 4 -3 3 -3 4 -3 3 -3 3 -4 3 -4 3 -3 3 -5 3 -4 2 -4 2 -5 2 -4 2 -5 2 -5 1 -6 1 -5 1 -5 1 -5 0 -6 0 0 -89 0 0 0 1 -1 0 0 0 0 0 0 0 -1 0 0 0 0 0 0 0 0 0 0 0 0 0 0 0 0 0 0 0 0 0 1 -1 0 0 0 0 0 0 0 -1 0 0 1 0 0 -1 0 0 0 0 0 -1 0 0 0 -1 0 0 0 -1 0 0zm0 0c0,-25 23,-45 50,-45 28,0 50,20 50,45l-100 0zm0 -6l0 -89 0 0 6 1 5 0 5 1 6 1 5 1 5 1 5 2 4 2 5 2 4 2 4 2 5 3 3 3 4 3 4 3 3 3 3 3 3 4 3 3 3 4 2 4 2 4 2 4 2 4 2 4 1 4 1 5 1 4 1 4 1 5 0 4 0 5 -100 0 0 -1 0 0 0 -1 0 0 0 -1 0 0 0 0 0 -1 -1 0 0 0 0 -1 0 0 0 0 0 0 -1 -1 0 0 0 0 0 0 0 0 0 0 0 0 0 0 0 0 0 0 0 0 1 0 0 0 0 0 0 0 1 0 0 0 0 0 0 0zm0 0c-27,0 -50,-19 -50,-44 0,-25 23,-45 50,-45l0 89z"/>
    </g>
   </g>
  </g>
 </g>
</svg>
