<?xml version="1.0" encoding="UTF-8"?>
<!DOCTYPE svg PUBLIC "-//W3C//DTD SVG 1.0//EN" "http://www.w3.org/TR/2001/REC-SVG-20010904/DTD/svg10.dtd">
<!-- Creator: CorelDRAW X7 -->
<svg xmlns="http://www.w3.org/2000/svg" xml:space="preserve" width="200mm" height="200mm" version="1.0" style="shape-rendering:geometricPrecision; text-rendering:geometricPrecision; image-rendering:optimizeQuality; fill-rule:evenodd; clip-rule:evenodd"
viewBox="0 0 20000 20000"
 xmlns:xlink="http://www.w3.org/1999/xlink">
 <defs>
  <style type="text/css">
   <![CDATA[
    .str0 {stroke:#3198A2;stroke-width:25}
    .str1 {stroke:#5797B4;stroke-width:75;stroke-linecap:round;stroke-linejoin:round}
    .str2 {stroke:#008CD1;stroke-width:129.51;stroke-linecap:round;stroke-linejoin:round}
    .fil3 {fill:none;fill-rule:nonzero}
    .fil10 {fill:#FEFEFE}
    .fil7 {fill:#F9C5A1}
    .fil5 {fill:#F9D6AA}
    .fil6 {fill:#E9B69A}
    .fil9 {fill:#DBE3E3}
    .fil12 {fill:#BF2C2E}
    .fil4 {fill:#D4E8F8}
    .fil8 {fill:#71523E}
    .fil1 {fill:#2E99A3}
    .fil13 {fill:#149288}
    .fil11 {fill:#00897E}
    .fil2 {fill:#AB8082;fill-rule:nonzero}
    .fil0 {fill:url(#id0)}
   ]]>
  </style>
  <radialGradient id="id0" gradientUnits="userSpaceOnUse" gradientTransform="matrix(1.41421 -0 -0 1.41421 -4155 -4129)" cx="10030.6" cy="9969.4" r="10000" fx="10030.6" fy="9969.4">
   <stop offset="0" style="stop-opacity:1; stop-color:#FEFEFE"/>
   <stop offset="0.439216" style="stop-opacity:1; stop-color:#FEFEFE"/>
   <stop offset="1" style="stop-opacity:1; stop-color:#D1E2F2"/>
  </radialGradient>
 </defs>
 <g id="Layer_x0020_1">
  <metadata id="CorelCorpID_0Corel-Layer"/>
  <path class="fil0" d="M31 -31l20000 0 0 20000 -20000 0 0 -20000z"/>
  <g id="_630051489712">
   <path class="fil1 str0" d="M6780 7245l-173 0c-32,0 -59,-11 -82,-33 -23,-23 -34,-50 -34,-82l0 -203c0,-7 3,-15 8,-21 6,-5 13,-8 21,-8 7,0 14,3 20,8 5,4 8,12 8,21l0 203c0,16 6,30 17,41 6,5 12,9 19,13 8,2 16,4 22,4l174 0 0 -261c0,-7 3,-15 9,-21 6,-5 13,-8 20,-8 8,0 14,3 20,8 6,4 9,12 9,21l0 435c0,31 -11,59 -34,81 -22,23 -50,34 -82,34l-144 0c-9,0 -16,-2 -22,-8 -5,-6 -7,-12 -7,-20 0,-7 2,-14 7,-20 6,-6 13,-9 22,-9l145 0c15,0 29,-5 40,-16 12,-11 17,-25 17,-42l0 -117zm209 175l54 -496c0,-17 10,-26 29,-26l174 0c19,0 29,10 29,29l0 493 29 0c20,0 29,9 29,29l0 57c0,8 -3,15 -9,21 -5,5 -12,8 -20,8 -6,0 -13,-2 -19,-7 -6,-5 -9,-12 -9,-22l0 -29 -291 0 0 29c0,8 -3,15 -9,21 -5,5 -12,8 -19,8 -7,0 -13,-2 -20,-7 -6,-5 -9,-12 -9,-22l0 -57c0,-20 9,-29 29,-29l32 0zm228 0l0 -464 -119 0 -52 464 171 0zm553 -58c0,31 -12,59 -34,81 -23,23 -50,34 -82,34l-116 0c-31,0 -58,-11 -81,-33 -23,-23 -35,-50 -35,-82l0 -348c0,-32 12,-59 34,-82 23,-22 50,-34 82,-34l116 0c32,0 59,12 82,34 22,23 34,50 34,82l0 348zm-58 0l0 -348c0,-16 -5,-30 -16,-41 -11,-11 -25,-17 -42,-17l-116 0c-16,0 -30,5 -41,16 -6,6 -10,12 -13,19 -3,7 -4,15 -4,23l0 348c0,16 6,30 17,41 5,5 12,9 18,13 8,2 16,4 23,4l116 0c16,0 30,-5 41,-16 11,-11 17,-25 17,-42zm480 115l-144 0c-32,0 -59,-11 -82,-33 -23,-23 -34,-50 -34,-82l0 -348c0,-32 11,-59 33,-82 23,-22 50,-34 83,-34l144 0c8,0 15,3 21,9 6,6 8,13 8,20 0,7 -2,13 -7,19 -5,7 -12,10 -22,10l-145 0c-16,0 -30,5 -41,16 -6,6 -10,12 -13,19 -2,7 -4,15 -4,23l0 348c0,16 6,30 17,41 6,5 12,9 19,13 8,2 15,4 22,4l145 0c8,0 15,3 21,9 6,6 8,12 8,20 0,6 -2,13 -7,19 -5,6 -12,9 -22,9zm290 -521l-116 0c-9,0 -16,-3 -22,-8 -5,-6 -7,-13 -7,-21 0,-7 2,-13 7,-19 5,-7 12,-10 22,-10l289 0c8,0 15,3 21,9 5,6 8,13 8,20 0,7 -2,13 -7,19 -5,7 -12,10 -22,10l-116 0 0 493c0,9 -2,16 -8,21 -5,5 -12,7 -21,7 -7,0 -14,-2 -20,-7 -6,-5 -8,-12 -8,-21l0 -493zm636 406c0,31 -12,59 -34,81 -23,23 -50,34 -82,34l-116 0c-31,0 -58,-11 -81,-33 -23,-23 -35,-50 -35,-82l0 -348c0,-32 12,-59 34,-82 23,-22 50,-34 82,-34l116 0c32,0 59,12 82,34 22,23 34,50 34,82l0 348zm-58 0l0 -348c0,-16 -5,-30 -16,-41 -11,-11 -25,-17 -42,-17l-116 0c-16,0 -30,5 -41,16 -6,6 -10,12 -13,19 -3,7 -4,15 -4,23l0 348c0,16 6,30 17,41 5,5 12,9 18,13 9,2 16,4 23,4l116 0c16,0 30,-5 41,-16 11,-11 17,-25 17,-42zm512 -215c16,10 29,24 40,42 10,18 15,37 15,57l0 116c0,31 -11,59 -34,81 -23,23 -50,34 -82,34l-202 0c-20,0 -29,-9 -29,-28l0 -522c0,-19 9,-29 29,-29l173 0c33,0 60,12 82,34 23,23 34,50 34,82l0 58c0,13 -2,26 -6,39 -4,12 -11,24 -20,36zm-235 41l0 232 174 0c16,0 30,-5 41,-16 12,-11 17,-25 17,-42l0 -116c0,-16 -5,-30 -16,-41 -11,-11 -25,-17 -42,-17l-174 0zm146 -58c15,0 29,-5 41,-16 11,-11 17,-25 17,-42l0 -58c0,-16 -6,-30 -17,-41 -11,-11 -25,-17 -41,-17l-146 0 0 174 146 0zm317 0l146 0c8,0 15,3 20,9 6,6 9,13 9,20 0,7 -2,14 -7,20 -5,6 -12,9 -22,9l-146 0 0 232 204 0c8,0 15,3 20,9 6,6 9,12 9,20 0,7 -3,13 -7,19 -5,6 -12,9 -22,9l-232 0c-20,0 -29,-9 -29,-27l0 -523c0,-19 9,-29 29,-29l232 0c8,0 15,3 20,9 6,6 9,13 9,20 0,7 -3,14 -7,20 -5,6 -12,9 -22,9l-204 0 0 174zm405 58l174 0c17,0 30,-5 41,-16 12,-11 17,-25 17,-42l0 -116c0,-16 -5,-30 -16,-41 -11,-11 -25,-17 -42,-17l-174 0 0 232zm0 57l0 203c0,10 -2,17 -8,22 -5,5 -12,7 -20,7 -8,0 -15,-2 -21,-7 -5,-5 -8,-12 -8,-21l0 -522c0,-19 9,-29 29,-29l202 0c32,0 60,12 82,34 23,23 34,50 34,82l0 116c0,32 -11,59 -34,81 -23,23 -50,34 -82,34l-174 0zm463 -115l146 0c8,0 15,3 20,9 6,6 9,13 9,20 0,7 -2,14 -7,20 -5,6 -12,9 -22,9l-146 0 0 232 204 0c8,0 15,3 20,9 6,6 9,12 9,20 0,7 -2,13 -7,19 -5,6 -12,9 -22,9l-232 0c-20,0 -29,-9 -29,-27l0 -523c0,-19 9,-29 29,-29l232 0c8,0 15,3 20,9 6,6 9,13 9,20 0,7 -2,14 -7,20 -5,6 -12,9 -22,9l-204 0 0 174zm638 0l0 -203c0,-7 2,-14 8,-20 6,-6 13,-9 20,-9 8,0 14,3 20,8 6,4 9,12 9,21l0 521c0,8 -3,15 -9,22 -7,5 -13,7 -20,7 -7,0 -14,-2 -20,-7 -6,-4 -8,-11 -8,-21l0 -261 -232 0 0 261c0,9 -3,16 -9,21 -5,5 -12,7 -20,7 -8,0 -15,-2 -20,-7 -6,-5 -9,-12 -9,-21l0 -521c0,-8 3,-15 9,-22 5,-5 12,-7 20,-7 7,0 14,2 20,7 6,5 9,12 9,22l0 202 232 0zm520 319c0,9 -3,16 -8,21 -5,5 -12,7 -21,7 -7,0 -14,-2 -20,-7 -6,-5 -8,-12 -8,-21l0 -410 -235 424c-4,5 -8,10 -13,14l-6 3c-2,1 -5,2 -10,2 -5,0 -11,-3 -19,-8 -5,-6 -7,-14 -7,-25l0 -521c0,-8 3,-15 9,-22 5,-5 12,-7 20,-7 7,0 14,2 20,7 6,5 9,12 9,22l0 409 234 -423c3,-5 7,-10 13,-14 5,-4 10,-6 16,-6 6,0 12,3 17,9 6,6 9,14 9,24l0 522zm174 -319l145 0c8,0 15,3 21,9 5,6 8,13 8,20 0,7 -2,14 -7,20 -5,6 -12,9 -22,9l-145 0 0 232 203 0c8,0 15,3 21,9 5,6 8,12 8,20 0,7 -2,13 -7,19 -5,6 -12,9 -22,9l-232 0c-19,0 -29,-9 -29,-27l0 -523c0,-19 10,-29 29,-29l232 0c8,0 15,3 21,9 5,6 8,13 8,20 0,7 -2,14 -7,20 -5,6 -12,9 -22,9l-203 0 0 174z"/>
   <g>
    <path class="fil2" d="M16500 13334l0 -6729 361 0 0 6729 -181 61 -180 -61zm361 0c0,33 -81,61 -181,61 -99,0 -180,-28 -180,-61l361 0zm-13661 0l361 0 -180 -61 462 0 453 0 445 0 437 0 430 0 423 0 417 0 412 0 407 0 402 0 399 0 396 0 394 0 392 0 391 0 390 0 390 0 390 0 392 0 394 0 396 0 399 0 403 0 406 0 412 0 417 0 423 0 430 0 437 0 445 0 453 0 462 0 0 122 -462 0 -453 0 -445 0 -437 0 -430 0 -423 0 -417 0 -412 0 -406 0 -403 0 -399 0 -396 0 -394 0 -392 0 -390 0 -390 0 -390 0 -391 0 -392 0 -394 0 -396 0 -399 0 -402 0 -407 0 -412 0 -417 0 -423 0 -430 0 -437 0 -445 0 -453 0 -462 0 -181 -61zm181 61c-100,0 -181,-28 -181,-61 0,-34 81,-61 181,-61l0 122zm180 -6790l0 6729 -361 0 0 -6729 181 -61 180 61zm-361 0c0,-33 81,-61 181,-61 100,0 180,28 180,61l-361 0zm13480 61l-13299 0 0 -122 13299 0 181 61 -181 61zm0 -122c100,0 181,28 181,61 0,34 -81,61 -181,61l0 -122z"/>
   </g>
   <g id="_630018657328">
    <path class="fil1 str0" d="M5471 8530l0 -195c0,-6 2,-11 7,-16 4,-4 9,-6 15,-6 5,0 10,2 15,6 4,3 7,9 7,16l0 391c0,7 -3,12 -7,16 -4,4 -9,5 -15,5 -6,0 -11,-1 -15,-5 -5,-4 -7,-9 -7,-16l0 -153 -130 0c-24,0 -44,-8 -61,-25 -17,-17 -26,-37 -26,-61l0 -152c0,-6 2,-11 7,-16 4,-4 9,-6 15,-6 5,0 10,2 15,6 4,3 6,9 6,16l0 152c0,12 4,22 13,31 4,4 9,7 14,9 6,2 12,3 17,3l130 0zm391 196c0,7 -2,12 -6,16 -4,4 -9,5 -15,5 -6,0 -11,-1 -15,-5 -5,-4 -7,-9 -7,-16l0 -370 -70 0 -105 375c0,5 -3,8 -7,12 -4,3 -9,4 -13,4 -7,0 -12,-1 -16,-5 -4,-4 -6,-9 -6,-15 0,-3 0,-6 1,-7l108 -391c3,-10 10,-16 21,-16l109 0c14,0 21,7 21,22l0 391zm130 -239l109 0c6,0 11,2 15,7 5,4 7,9 7,15 0,5 -2,10 -6,14 -3,5 -9,7 -16,7l-109 0 0 174 152 0c6,0 12,2 16,7 4,4 6,9 6,15 0,5 -2,10 -5,14 -4,5 -9,7 -16,7l-175 0c-14,0 -21,-6 -21,-20l0 -392c0,-15 7,-22 21,-22l175 0c5,0 11,2 15,7 4,4 6,9 6,15 0,5 -2,10 -5,14 -4,5 -9,7 -17,7l-152 0 0 131zm478 0l0 -152c0,-6 2,-11 6,-15 4,-5 10,-7 15,-7 6,0 11,2 15,6 5,3 7,9 7,16l0 390c0,6 -2,12 -7,17 -5,3 -10,5 -15,5 -5,0 -10,-1 -15,-5 -4,-3 -6,-9 -6,-16l0 -196 -174 0 0 196c0,7 -2,12 -6,16 -4,4 -10,5 -16,5 -6,0 -11,-1 -15,-5 -4,-4 -7,-9 -7,-16l0 -391c0,-6 3,-11 7,-16 4,-4 9,-6 15,-6 6,0 11,2 15,6 4,3 7,9 7,16l0 152 174 0zm607 86l-130 0c-24,0 -44,-8 -61,-25 -17,-17 -26,-37 -26,-61l0 -152c0,-6 2,-11 7,-16 4,-4 9,-6 15,-6 5,0 10,2 15,6 4,3 6,9 6,16l0 152c0,12 4,22 13,31 4,4 9,7 14,9 6,2 12,3 17,3l130 0 0 -195c0,-6 2,-11 7,-16 4,-4 9,-6 15,-6 5,0 11,2 15,6 4,3 7,9 7,16l0 326c0,23 -9,44 -26,61 -17,17 -37,25 -61,25l-109 0c-6,0 -12,-2 -16,-6 -4,-4 -5,-9 -5,-15 0,-5 1,-10 5,-15 4,-4 9,-7 16,-7l109 0c12,0 22,-4 31,-12 8,-8 12,-18 12,-31l0 -88zm348 -43l0 -195c0,-6 2,-11 6,-16 4,-4 9,-6 15,-6 6,0 11,2 15,6 5,3 7,9 7,16l0 391c0,7 -2,12 -6,16 -4,4 -9,5 -16,5 -6,0 -11,-1 -15,-5 -4,-4 -6,-9 -6,-16l0 -153 -131 0c-23,0 -44,-8 -61,-25 -17,-17 -26,-37 -26,-61l0 -152c0,-6 3,-11 7,-16 4,-4 9,-6 15,-6 6,0 11,2 15,6 4,3 7,9 7,16l0 152c0,12 4,22 12,31 4,4 9,7 14,9 6,2 12,3 17,3l131 0zm206 109l-31 94c-2,4 -5,8 -9,11 -2,2 -6,3 -11,3 -6,0 -11,-2 -15,-6 -5,-3 -8,-8 -8,-15l2 -7 130 -391c5,-12 12,-19 21,-19 9,0 16,7 20,19l130 391 2 7c0,6 -3,11 -7,16 -5,3 -10,5 -15,5 -3,0 -7,0 -10,-2 -4,-1 -7,-5 -10,-12l-32 -94 -157 0zm143 -45l-64 -191 -64 191 128 0zm367 153l-109 0c-23,0 -44,-8 -61,-25 -17,-17 -26,-37 -26,-61l0 -261c0,-24 9,-45 26,-62 16,-16 37,-25 61,-25l109 0c6,0 11,2 15,7 4,4 7,9 7,15 0,5 -2,9 -6,14 -4,5 -9,7 -16,7l-109 0c-12,0 -23,4 -31,13 -4,4 -7,9 -9,14 -2,5 -4,11 -4,17l0 261c0,12 5,22 13,31 4,4 9,7 14,9 6,2 12,3 17,3l109 0c6,0 11,2 15,7 4,4 7,9 7,15 0,5 -2,10 -6,14 -4,5 -9,7 -16,7zm217 -391l-87 0c-7,0 -12,-2 -16,-6 -4,-4 -6,-10 -6,-15 0,-5 2,-10 6,-15 3,-5 9,-7 16,-7l217 0c6,0 11,2 15,7 4,4 6,9 6,15 0,5 -1,9 -5,14 -4,5 -9,7 -16,7l-87 0 0 370c0,7 -2,12 -6,16 -4,4 -9,5 -16,5 -5,0 -10,-1 -15,-5 -4,-4 -6,-9 -6,-16l0 -370zm282 144l183 -181c4,-4 9,-6 14,-6 6,0 11,2 16,7 4,4 7,9 7,15 0,4 -3,9 -7,15l-129 129 133 236 3 11c0,6 -2,11 -7,15 -4,4 -10,6 -16,6 -7,0 -13,-3 -18,-11l-128 -226 -51 50 0 166c0,7 -2,12 -7,16 -3,4 -9,5 -15,5 -6,0 -11,-1 -15,-5 -4,-4 -7,-9 -7,-16l0 -392c0,-5 3,-10 7,-15 4,-4 9,-6 15,-6 5,0 11,2 15,5 4,4 7,9 7,16l0 166zm542 161c0,23 -9,44 -25,61 -17,17 -38,25 -62,25l-87 0c-23,0 -44,-8 -61,-25 -17,-17 -25,-37 -25,-61l0 -261c0,-24 8,-45 25,-62 17,-16 37,-25 61,-25l87 0c24,0 45,9 62,26 16,17 25,37 25,61l0 261zm-43 0l0 -261c0,-12 -4,-23 -12,-31 -9,-8 -19,-13 -32,-13l-87 0c-12,0 -22,4 -31,13 -4,4 -7,9 -9,14 -2,5 -3,11 -3,17l0 261c0,12 4,22 12,31 5,4 9,7 14,9 6,2 12,3 17,3l87 0c12,0 23,-4 31,-12 9,-8 13,-18 13,-31zm384 -161c12,7 22,17 29,31 8,13 12,28 12,43l0 87c0,23 -9,44 -25,61 -17,17 -38,25 -62,25l-152 0c-14,0 -21,-7 -21,-21l0 -391c0,-15 7,-22 21,-22l131 0c24,0 44,9 61,26 17,17 25,37 25,61l0 43c0,10 -1,20 -4,29 -3,10 -8,19 -15,28zm-176 30l0 174 130 0c12,0 22,-4 31,-12 9,-8 13,-18 13,-31l0 -87c0,-12 -4,-23 -13,-31 -8,-8 -18,-13 -31,-13l-130 0zm109 -43c12,0 22,-4 30,-12 9,-8 13,-19 13,-32l0 -43c0,-12 -4,-23 -12,-31 -8,-8 -19,-13 -31,-13l-109 0 0 131 109 0zm455 174c0,23 -8,44 -25,61 -17,17 -38,25 -62,25l-86 0c-24,0 -44,-8 -61,-25 -18,-17 -26,-37 -26,-61l0 -261c0,-24 8,-45 25,-62 17,-16 37,-25 62,-25l86 0c25,0 45,9 62,26 17,17 25,37 25,61l0 261zm-43 0l0 -261c0,-12 -4,-23 -12,-31 -8,-8 -19,-13 -32,-13l-87 0c-12,0 -22,4 -31,13 -4,4 -7,9 -9,14 -2,5 -3,11 -3,17l0 261c0,12 4,22 12,31 5,4 9,7 14,9 7,2 12,3 17,3l87 0c13,0 23,-4 31,-12 9,-8 13,-18 13,-31zm338 -391l-86 0c-7,0 -12,-2 -17,-6 -3,-5 -5,-10 -5,-16 0,-5 2,-9 5,-14 4,-5 9,-7 17,-7l86 0c6,0 12,2 16,6 4,5 6,10 6,15 0,5 -2,10 -5,15 -4,5 -9,7 -17,7zm87 456c0,7 -2,12 -6,16 -4,4 -9,5 -15,5 -6,0 -11,-1 -16,-5 -4,-4 -6,-9 -6,-16l0 -307 -176 317c-3,5 -6,8 -10,11l-5 2c-1,1 -3,2 -6,2 -4,0 -9,-2 -15,-6 -3,-5 -5,-11 -5,-19l0 -391c0,-6 2,-11 6,-16 5,-4 10,-6 15,-6 6,0 11,2 15,6 5,3 7,9 7,16l0 307 176 -317c2,-4 5,-7 9,-11 4,-3 8,-4 12,-4 5,0 9,2 14,7 4,4 6,10 6,18l0 391zm-5897 590c0,7 -2,13 -6,17 -4,3 -10,5 -16,5 -6,0 -11,-2 -15,-5 -4,-4 -6,-9 -6,-17l0 -307 -177 318c-2,4 -5,8 -9,10l-5 3c-1,1 -4,1 -7,2 -4,0 -9,-2 -14,-7 -4,-4 -6,-10 -6,-18l0 -391c0,-6 3,-12 7,-16 4,-4 9,-6 15,-6 5,0 11,2 15,5 4,4 7,9 7,17l0 307 176 -318c2,-3 5,-7 9,-10 4,-3 8,-5 12,-5 5,0 9,3 13,8 5,4 7,10 7,17l0 391zm217 -195l-65 0c-7,0 -12,-2 -16,-6 -4,-5 -6,-10 -6,-16 0,-5 2,-10 6,-14 4,-5 9,-7 16,-7l65 0c12,0 22,-4 31,-12 8,-9 13,-19 13,-32l0 -44c0,-12 -5,-22 -13,-31 -8,-8 -18,-12 -31,-12l-43 0c-10,0 -18,3 -25,8 -8,5 -13,12 -16,22 -1,4 -4,7 -7,10 -2,2 -4,3 -6,4l-7 1c-6,0 -12,-2 -17,-6 -4,-4 -6,-9 -6,-16l1 -7c6,-17 16,-32 31,-43 16,-11 33,-16 52,-16l43 0c24,0 45,8 62,25 16,17 25,38 25,62l0 43c0,13 -3,25 -8,36 -5,12 -12,21 -22,29 20,17 30,38 30,65l0 87c0,24 -9,44 -26,61 -17,17 -37,26 -61,26l-43 0c-19,0 -36,-5 -51,-16 -15,-11 -25,-25 -32,-44l-1 -7c0,-6 2,-11 6,-15 5,-5 10,-7 17,-7 8,0 15,5 19,15 3,8 8,16 16,23 8,5 17,8 26,8l43 0c12,0 22,-4 31,-12 8,-8 13,-19 13,-32l0 -87c0,-12 -4,-23 -10,-30 -8,-9 -19,-13 -34,-13zm217 0l0 174 130 0c12,0 22,-4 31,-12 8,-8 13,-19 13,-32l0 -87c0,-12 -4,-22 -13,-31 -8,-8 -18,-12 -31,-12l-130 0zm0 -43l130 0c24,0 44,8 61,25 17,17 26,37 26,61l0 87c0,24 -9,44 -26,61 -17,17 -37,26 -61,26l-152 0c-14,0 -22,-7 -22,-22l0 -391c0,-14 8,-21 22,-21l174 0c6,0 11,2 15,6 4,5 7,10 7,15 0,5 -2,10 -6,15 -4,5 -9,7 -16,7l-152 0 0 131zm564 238c0,7 -2,13 -6,17 -4,3 -9,5 -16,5 -5,0 -10,-2 -15,-5 -4,-4 -6,-9 -6,-17l0 -307 -176 318c-3,4 -6,8 -10,10l-5 3c-1,1 -3,1 -6,2 -5,0 -9,-2 -15,-7 -3,-4 -5,-10 -5,-18l0 -391c0,-6 2,-12 6,-16 5,-4 10,-6 15,-6 6,0 11,2 15,5 5,4 7,9 7,17l0 307 176 -318c2,-3 5,-7 9,-10 4,-3 8,-5 12,-5 5,0 9,3 14,8 4,4 6,10 6,17l0 391zm130 -195l131 0c12,0 22,-4 30,-12 9,-8 13,-19 13,-32l0 -87c0,-12 -4,-22 -12,-31 -8,-8 -19,-12 -31,-12l-131 0 0 174zm0 43l0 152c0,7 -2,13 -6,17 -4,3 -9,5 -15,5 -6,0 -11,-2 -16,-5 -4,-4 -6,-9 -6,-17l0 -391c0,-14 7,-21 22,-21l152 0c24,0 44,8 61,25 17,17 25,38 25,61l0 87c0,24 -8,44 -25,61 -17,17 -38,26 -62,26l-130 0zm337 65l-31 94c-2,5 -5,8 -8,11 -3,2 -7,3 -12,4 -6,0 -11,-2 -15,-6 -5,-4 -7,-9 -7,-15l1 -8 131 -390c4,-13 11,-19 20,-19 9,0 16,6 20,19l130 390 2 8c0,6 -2,11 -7,15 -5,4 -10,6 -15,6 -3,0 -6,-1 -10,-2 -4,-2 -7,-6 -10,-13l-32 -94 -157 0zm143 -44l-64 -191 -64 191 128 0zm193 -238l-87 0c-6,0 -12,-2 -16,-6 -3,-5 -5,-10 -5,-16 0,-5 1,-9 5,-14 4,-5 9,-7 16,-7l217 0c6,0 11,2 16,6 4,5 6,10 6,15 0,5 -2,10 -5,15 -4,5 -9,7 -17,7l-87 0 0 369c0,7 -2,13 -6,17 -4,3 -9,5 -15,5 -6,0 -11,-2 -15,-5 -5,-4 -7,-9 -7,-17l0 -369zm282 131l109 0c6,0 11,2 16,6 4,5 6,10 6,15 0,5 -2,10 -5,15 -4,5 -10,7 -17,7l-109 0 0 174 153 0c6,0 11,2 15,7 4,4 6,9 6,14 0,6 -1,10 -5,15 -4,5 -9,7 -16,7l-174 0c-15,0 -22,-7 -22,-20l0 -393c0,-14 7,-21 22,-21l174 0c6,0 11,2 15,6 4,5 6,10 6,15 0,5 -1,10 -5,15 -4,5 -9,7 -16,7l-153 0 0 131zm522 238c0,7 -2,13 -6,17 -4,3 -10,5 -16,5 -6,0 -11,-2 -15,-5 -4,-4 -6,-9 -6,-17l0 -369 -71 0 -104 375c-1,4 -3,8 -8,11 -4,3 -8,5 -13,5 -6,0 -12,-2 -16,-5 -4,-4 -6,-9 -6,-16 0,-3 0,-5 1,-6l109 -391c3,-11 10,-16 20,-16l109 0c15,0 22,7 22,21l0 391zm129 -195l131 0c12,0 22,4 31,12 8,8 12,19 12,31l0 87c0,13 -4,23 -12,31 -4,5 -9,8 -14,10 -6,2 -11,3 -17,3l-131 0 0 -174zm0 -43l0 -153c0,-5 -2,-10 -7,-15 -4,-4 -9,-6 -14,-6 -5,0 -10,1 -15,5 -5,4 -7,9 -7,16l0 391c0,15 7,22 22,22l152 0c23,0 43,-8 60,-25 18,-17 26,-37 26,-62l0 -87c0,-23 -8,-44 -25,-61 -17,-17 -37,-25 -62,-25l-130 0zm521 0l0 -153c0,-5 3,-11 7,-15 4,-4 9,-6 15,-6 5,0 11,1 15,5 4,4 7,9 7,16l0 391c0,6 -3,11 -7,16 -5,4 -10,6 -15,6 -6,0 -11,-2 -15,-5 -5,-4 -7,-9 -7,-16l0 -196 -174 0 0 195c0,7 -2,13 -6,17 -4,3 -9,5 -15,5 -6,0 -11,-2 -15,-5 -5,-4 -7,-9 -7,-17l0 -390c0,-6 2,-12 7,-16 4,-4 9,-6 15,-6 5,0 10,2 15,5 4,4 6,9 6,17l0 152 174 0zm391 173c0,24 -9,44 -26,61 -17,17 -37,26 -61,26l-87 0c-23,0 -44,-8 -61,-25 -17,-17 -26,-38 -26,-62l0 -260c0,-25 9,-45 26,-62 17,-17 37,-25 61,-25l87 0c24,0 45,8 62,25 16,17 25,38 25,62l0 260zm-43 0l0 -261c0,-12 -4,-22 -13,-31 -8,-8 -18,-12 -31,-12l-87 0c-12,0 -22,4 -31,12 -4,4 -7,9 -9,14 -2,6 -3,11 -3,17l0 261c0,13 4,23 12,31 4,4 9,7 14,10 6,2 12,3 17,3l87 0c12,0 22,-4 31,-12 8,-8 13,-19 13,-32zm338 -390l-87 0c-6,0 -12,-2 -16,-6 -4,-5 -5,-10 -5,-16 0,-5 1,-10 5,-15 4,-4 9,-7 16,-7l87 0c6,0 11,3 15,7 5,4 7,9 7,15 0,5 -2,10 -6,14 -3,5 -9,8 -16,8zm87 455c0,7 -2,13 -6,17 -4,3 -9,5 -16,5 -6,0 -11,-2 -15,-5 -4,-4 -6,-9 -6,-17l0 -307 -177 318c-2,4 -5,8 -9,10l-5 3c-1,1 -4,1 -7,2 -4,0 -9,-2 -14,-7 -4,-4 -6,-10 -6,-18l0 -391c0,-6 3,-12 7,-16 4,-4 9,-6 15,-6 6,0 11,2 15,5 4,4 7,9 7,17l0 307 176 -318c2,-3 5,-7 9,-10 4,-3 8,-4 12,-4 5,0 9,2 13,7 5,4 7,10 7,18l0 390zm390 -225l183 -181c5,-4 10,-6 15,-6 6,0 11,2 15,6 5,5 7,10 7,16 0,4 -2,9 -6,15l-130 129 134 235 3 12c0,6 -2,10 -7,14 -5,5 -10,7 -16,7 -7,0 -13,-4 -18,-11l-128 -227 -52 51 0 165c0,7 -2,13 -6,17 -4,3 -9,5 -15,5 -6,0 -11,-2 -15,-5 -5,-4 -7,-9 -7,-17l0 -391c0,-6 2,-11 7,-15 4,-4 9,-6 15,-6 5,0 10,1 15,5 4,3 6,9 6,16l0 166zm543 160c0,24 -9,44 -26,61 -17,17 -37,26 -61,26l-87 0c-23,0 -44,-8 -61,-25 -17,-17 -26,-38 -26,-62l0 -260c0,-25 9,-45 26,-62 16,-17 37,-25 61,-25l87 0c24,0 45,8 61,25 17,17 26,38 26,62l0 260zm-43 0l0 -261c0,-12 -5,-22 -13,-31 -8,-8 -18,-12 -31,-12l-87 0c-12,0 -23,4 -31,12 -4,4 -7,9 -9,14 -2,6 -3,11 -3,17l0 261c0,13 4,23 12,31 4,4 9,7 14,10 6,2 12,3 17,3l87 0c12,0 22,-4 31,-12 8,-8 13,-19 13,-32zm468 65c0,7 -1,13 -5,17 -4,3 -10,5 -16,5 -5,0 -10,-2 -15,-5 -4,-4 -7,-9 -7,-17l0 -310 -89 150c-6,10 -12,14 -19,14 -7,0 -13,-4 -19,-14l-91 -150 0 310c0,7 -2,13 -6,17 -4,3 -9,5 -15,5 -6,0 -11,-2 -15,-5 -5,-4 -7,-9 -7,-17l0 -388c0,-9 2,-15 7,-19 3,-4 8,-7 13,-7 4,0 8,1 11,3 3,3 6,6 10,11l112 186 111 -186c5,-9 12,-14 21,-14 5,0 10,3 14,7 4,5 5,11 5,19l0 388z"/>
    <path class="fil1 str0" d="M10129 9316c0,7 -2,13 -6,17 -4,3 -9,5 -15,5 -6,0 -11,-2 -15,-5 -5,-4 -7,-9 -7,-17l0 -307 -176 318c-3,4 -6,8 -10,10l-4 3c-2,1 -4,1 -7,2 -4,0 -9,-2 -14,-7 -4,-4 -6,-10 -6,-18l0 -391c0,-6 2,-12 6,-16 5,-4 10,-6 16,-6 5,0 10,2 14,5 5,4 7,9 7,17l0 307 176 -318c2,-3 6,-7 10,-10 4,-3 7,-5 11,-5 5,0 10,3 14,8 4,4 6,10 6,17l0 391zm283 22l-109 0c-24,0 -44,-8 -61,-25 -17,-17 -26,-38 -26,-62l0 -260c0,-25 9,-45 25,-62 17,-17 38,-25 62,-25l109 0c6,0 11,2 15,6 4,5 6,10 6,15 0,5 -1,10 -5,15 -4,5 -9,7 -16,7l-109 0c-12,0 -23,4 -31,12 -4,4 -7,9 -10,14 -2,6 -3,11 -3,17l0 261c0,13 4,23 13,31 4,4 9,7 14,10 6,2 12,3 17,3l109 0c6,0 11,2 15,7 4,4 6,9 6,14 0,5 -1,10 -5,15 -4,5 -9,7 -16,7zm284 0l-109 0c-23,0 -44,-8 -61,-25 -17,-17 -26,-38 -26,-62l0 -260c0,-25 9,-45 26,-62 17,-17 37,-25 61,-25l109 0c6,0 11,2 15,6 5,5 7,10 7,15 0,5 -2,10 -6,15 -3,5 -9,7 -16,7l-109 0c-12,0 -22,4 -31,12 -4,4 -7,9 -9,14 -2,6 -3,11 -3,17l0 261c0,13 4,23 12,31 4,4 9,7 14,10 6,2 12,3 17,3l109 0c6,0 11,2 15,7 5,4 7,9 7,14 0,5 -2,10 -6,15 -3,5 -9,7 -16,7zm369 -22c0,7 -2,13 -7,17 -3,3 -9,5 -15,5 -6,0 -11,-2 -15,-5 -4,-4 -7,-9 -7,-17l0 -307 -176 318c-2,4 -5,8 -9,10l-5 3c-2,1 -4,1 -7,2 -4,0 -9,-2 -14,-7 -4,-4 -6,-10 -6,-18l0 -391c0,-6 2,-12 7,-16 4,-4 9,-6 15,-6 5,0 10,2 15,5 4,4 6,9 6,17l0 307 177 -318c2,-3 5,-7 9,-10 4,-3 8,-5 12,-5 5,0 9,3 13,8 4,4 7,10 7,17l0 391zm347 0c0,7 -2,13 -6,17 -4,3 -9,5 -16,5 -5,0 -11,-2 -15,-5 -4,-4 -6,-9 -6,-17l0 -307 -177 318c-2,4 -5,8 -9,10l-5 3c-1,1 -4,1 -7,2 -4,0 -8,-2 -14,-7 -4,-4 -5,-10 -5,-18l0 -391c0,-6 2,-12 6,-16 4,-4 9,-6 15,-6 6,0 11,2 15,5 4,4 7,9 7,17l0 307 176 -318c2,-3 5,-7 9,-10 4,-3 8,-5 12,-5 5,0 9,3 13,8 5,4 7,10 7,17l0 391z"/>
   </g>
   <path class="fil1 str0" d="M4242 10334l-109 0c-23,0 -44,-8 -61,-25 -17,-17 -26,-37 -26,-61l0 -261c0,-24 9,-45 26,-62 17,-16 37,-25 61,-25l109 0c6,0 11,2 15,7 5,4 7,9 7,15 0,5 -2,9 -6,14 -3,5 -9,7 -16,7l-109 0c-12,0 -22,4 -31,13 -4,4 -7,9 -9,14 -2,5 -3,11 -3,17l0 261c0,12 4,22 12,31 4,4 9,7 14,9 6,2 12,3 17,3l109 0c6,0 11,2 15,7 5,4 7,9 7,15 0,5 -2,10 -6,14 -3,5 -9,7 -16,7zm629 -21c0,6 -2,12 -6,16 -4,4 -9,5 -16,5 -5,0 -10,-1 -15,-5 -4,-4 -6,-9 -6,-16l0 -370 -174 0 0 370c0,6 -2,12 -6,16 -4,4 -9,5 -16,5 -5,0 -10,-1 -15,-5 -4,-4 -6,-9 -6,-16l0 -391c0,-15 7,-22 21,-22l217 0c15,0 22,7 22,22l0 391zm130 -196l131 0c12,0 22,-4 30,-12 9,-8 13,-18 13,-31l0 -87c0,-13 -4,-23 -12,-31 -8,-9 -19,-13 -31,-13l-131 0 0 174zm0 43l0 153c0,6 -2,12 -6,16 -4,4 -9,5 -15,5 -6,0 -11,-1 -16,-5 -4,-4 -6,-9 -6,-16l0 -391c0,-15 7,-22 22,-22l152 0c24,0 44,9 61,25 17,17 25,38 25,62l0 87c0,23 -8,44 -25,61 -17,17 -38,25 -62,25l-130 0zm337 66l-31 93c-2,5 -5,9 -8,12 -3,1 -7,3 -12,3 -6,0 -11,-2 -15,-6 -5,-4 -7,-9 -7,-15l1 -7 131 -391c4,-13 11,-19 20,-19 9,0 16,6 20,19l130 391 2 7c0,6 -2,11 -7,15 -5,4 -10,6 -15,6 -3,0 -6,0 -10,-2 -4,-1 -7,-5 -10,-13l-32 -93 -157 0zm143 -45l-64 -191 -64 191 128 0zm390 -94c13,7 23,17 30,31 8,13 12,28 12,43l0 87c0,23 -9,44 -26,61 -17,17 -37,25 -61,25l-152 0c-14,0 -22,-7 -22,-21l0 -391c0,-15 8,-22 22,-22l130 0c25,0 45,9 62,25 17,17 25,38 25,62l0 43c0,10 -1,20 -4,29 -4,10 -9,19 -16,28zm-175 30l0 174 130 0c12,0 22,-4 31,-12 8,-8 13,-18 13,-31l0 -87c0,-13 -5,-23 -13,-31 -8,-9 -18,-13 -31,-13l-130 0zm109 -43c11,0 22,-4 30,-12 9,-8 13,-19 13,-32l0 -43c0,-12 -4,-23 -12,-31 -8,-9 -19,-13 -31,-13l-109 0 0 131 109 0zm455 174c0,23 -8,44 -25,61 -17,17 -38,25 -62,25l-87 0c-23,0 -43,-8 -61,-25 -17,-17 -25,-37 -25,-61l0 -261c0,-24 8,-45 25,-62 17,-16 37,-25 61,-25l87 0c24,0 45,9 62,25 17,17 25,38 25,62l0 261zm-43 0l0 -261c0,-13 -4,-23 -12,-31 -9,-9 -19,-13 -32,-13l-87 0c-12,0 -22,4 -31,13 -4,4 -7,9 -9,14 -2,5 -3,11 -3,17l0 261c0,12 4,22 12,31 5,4 9,7 14,9 6,2 12,3 17,3l87 0c12,0 23,-4 31,-12 9,-8 13,-18 13,-31zm469 65c0,6 -2,12 -6,16 -4,4 -9,5 -16,5 -5,0 -10,-1 -14,-5 -5,-4 -7,-9 -7,-16l0 -310 -90 150c-6,9 -12,14 -19,14 -6,0 -13,-5 -19,-14l-90 -150 0 310c0,6 -2,12 -6,16 -4,4 -9,5 -16,5 -5,0 -11,-1 -15,-5 -4,-4 -6,-9 -6,-16l0 -389c0,-8 2,-15 6,-19 4,-4 8,-6 14,-6 3,0 7,1 10,3 3,2 6,6 10,11l112 186 111 -186c5,-10 12,-14 21,-14 5,0 10,2 14,7 4,4 6,10 6,18l0 389zm542 21l-108 0c-24,0 -44,-8 -62,-25 -17,-17 -25,-37 -25,-61l0 -261c0,-24 8,-45 25,-62 17,-16 37,-25 62,-25l108 0c6,0 11,2 16,7 4,4 6,9 6,15 0,5 -2,9 -5,14 -4,5 -10,7 -17,7l-109 0c-12,0 -22,4 -31,13 -4,4 -7,9 -9,14 -2,5 -3,11 -3,17l0 261c0,12 4,22 12,31 5,4 9,7 14,9 6,2 12,3 17,3l109 0c6,0 11,2 16,7 4,4 6,9 6,15 0,5 -2,10 -5,14 -4,5 -10,7 -17,7zm349 -86c0,23 -8,44 -25,61 -17,17 -38,25 -61,25l-87 0c-24,0 -44,-8 -61,-25 -17,-17 -26,-37 -26,-61l0 -261c0,-24 8,-45 25,-62 17,-16 38,-25 62,-25l87 0c24,0 44,9 61,25 17,17 25,38 25,62l0 261zm-43 0l0 -261c0,-13 -4,-23 -12,-31 -8,-9 -19,-13 -31,-13l-87 0c-13,0 -23,4 -31,13 -5,4 -8,9 -10,14 -2,5 -3,11 -3,17l0 261c0,12 4,22 13,31 4,4 9,7 14,9 6,2 11,3 17,3l87 0c12,0 22,-4 30,-12 9,-8 13,-18 13,-31zm384 -161c12,7 22,17 30,31 7,13 11,28 11,43l0 87c0,23 -8,44 -25,61 -17,17 -38,25 -61,25l-152 0c-15,0 -22,-7 -22,-21l0 -391c0,-15 7,-22 22,-22l130 0c24,0 45,9 61,25 17,17 26,38 26,62l0 43c0,10 -2,20 -5,29 -3,10 -8,19 -15,28zm-176 30l0 174 131 0c12,0 22,-4 30,-12 9,-8 13,-18 13,-31l0 -87c0,-13 -4,-23 -12,-31 -8,-9 -19,-13 -31,-13l-131 0zm109 -43c12,0 22,-4 31,-12 8,-8 13,-19 13,-32l0 -43c0,-12 -5,-23 -13,-31 -8,-9 -18,-13 -31,-13l-109 0 0 131 109 0zm238 0l110 0c6,0 11,2 15,7 4,4 6,9 6,15 0,5 -1,10 -5,14 -4,5 -9,7 -16,7l-110 0 0 174 153 0c6,0 11,2 15,7 5,4 7,9 7,15 0,5 -2,10 -6,14 -3,5 -9,7 -16,7l-174 0c-15,0 -22,-6 -22,-20l0 -392c0,-15 7,-22 22,-22l174 0c6,0 11,2 15,7 5,4 7,9 7,15 0,5 -2,10 -6,14 -3,5 -9,7 -16,7l-153 0 0 131zm608 260l-21 0 -304 0c-15,0 -22,-7 -22,-21l0 -391c0,-6 2,-11 6,-16 5,-4 10,-6 16,-6 5,0 10,2 15,5 4,4 6,10 6,17l0 369 109 0 0 -369c0,-6 2,-11 6,-16 5,-4 10,-6 15,-6 6,0 11,2 15,5 5,4 7,10 7,17l0 369 109 0 0 -369c0,-6 2,-11 7,-16 4,-4 9,-6 15,-6 5,0 10,2 15,5 4,4 6,10 6,17l0 369 22 0c14,0 22,7 22,22l0 65c0,6 -3,11 -7,15 -4,5 -10,7 -15,7 -5,0 -10,-2 -15,-6 -4,-3 -7,-9 -7,-16l0 -44zm207 -108l-32 93c-1,5 -4,9 -8,12 -2,1 -7,3 -11,3 -6,0 -11,-2 -16,-6 -4,-4 -7,-9 -7,-15l2 -7 130 -391c5,-13 11,-19 21,-19 9,0 16,6 20,19l130 391 2 7c0,6 -3,11 -7,15 -5,4 -10,6 -16,6 -3,0 -6,0 -9,-2 -4,-1 -7,-5 -10,-13l-32 -93 -157 0zm143 -45l-64 -191 -64 191 128 0zm193 -238l-87 0c-6,0 -12,-2 -16,-6 -4,-4 -6,-10 -6,-15 0,-5 2,-10 6,-15 3,-5 9,-7 16,-7l217 0c6,0 11,2 15,7 5,4 7,9 7,15 0,5 -2,9 -6,14 -3,5 -9,7 -16,7l-87 0 0 370c0,6 -2,12 -6,16 -4,4 -9,5 -15,5 -6,0 -11,-1 -16,-5 -4,-4 -6,-9 -6,-16l0 -370zm282 131l109 0c6,0 11,2 15,7 5,4 7,9 7,15 0,5 -2,10 -6,14 -3,5 -9,7 -16,7l-109 0 0 174 152 0c6,0 12,2 16,7 4,4 6,9 6,15 0,5 -2,10 -5,14 -4,5 -9,7 -16,7l-175 0c-14,0 -21,-6 -21,-20l0 -392c0,-15 7,-22 21,-22l175 0c5,0 11,2 15,7 4,4 6,9 6,15 0,5 -2,10 -5,14 -4,5 -9,7 -17,7l-152 0 0 131zm521 239c0,6 -2,12 -6,16 -4,4 -9,5 -15,5 -6,0 -11,-1 -15,-5 -5,-4 -7,-9 -7,-16l0 -370 -70 0 -105 375c0,5 -3,8 -7,12 -4,3 -8,4 -13,4 -7,0 -12,-1 -16,-5 -4,-4 -6,-9 -6,-15 0,-4 0,-6 1,-7l108 -391c3,-11 10,-16 21,-16l109 0c14,0 21,7 21,22l0 391zm130 -196l130 0c13,0 23,4 31,13 9,8 13,18 13,31l0 87c0,12 -4,22 -12,31 -5,4 -9,7 -15,9 -5,2 -11,3 -17,3l-130 0 0 -174zm0 -43l0 -152c0,-6 -2,-11 -7,-15 -4,-5 -9,-7 -15,-7 -5,0 -9,2 -14,5 -5,4 -7,10 -7,17l0 391c0,14 7,21 21,21l152 0c24,0 44,-8 61,-25 17,-17 26,-37 26,-61l0 -87c0,-24 -8,-44 -25,-61 -17,-17 -38,-26 -62,-26l-130 0zm521 0l0 -152c0,-6 2,-11 7,-15 4,-5 9,-7 15,-7 5,0 10,2 15,5 4,4 6,10 6,17l0 390c0,6 -2,12 -6,16 -6,4 -11,6 -16,6 -5,0 -10,-1 -15,-5 -4,-3 -6,-9 -6,-16l0 -196 -174 0 0 196c0,6 -2,12 -6,16 -4,4 -9,5 -15,5 -6,0 -11,-1 -16,-5 -4,-4 -6,-9 -6,-16l0 -391c0,-6 2,-11 6,-16 5,-4 10,-6 16,-6 5,0 10,2 14,6 5,3 7,9 7,16l0 152 174 0zm391 174c0,23 -9,44 -26,61 -17,17 -37,25 -61,25l-87 0c-24,0 -44,-8 -61,-25 -17,-17 -26,-37 -26,-61l0 -261c0,-24 9,-45 25,-62 17,-16 38,-25 62,-25l87 0c24,0 44,9 61,25 17,17 26,38 26,62l0 261zm-44 0l0 -261c0,-13 -4,-23 -12,-31 -8,-9 -19,-13 -31,-13l-87 0c-12,0 -23,4 -31,13 -4,4 -7,9 -10,14 -2,5 -3,11 -3,17l0 261c0,12 5,22 13,31 4,4 9,7 14,9 6,2 12,3 17,3l87 0c12,0 22,-4 31,-12 8,-8 12,-18 12,-31zm361 -305l-153 0 0 370c0,6 -2,12 -6,16 -4,4 -9,5 -15,5 -6,0 -11,-1 -15,-5 -5,-4 -7,-9 -7,-16l0 -391c0,-15 7,-22 22,-22l174 0c6,0 11,2 15,7 4,4 6,9 6,15 0,5 -1,9 -5,14 -4,5 -9,7 -16,7zm346 305c0,23 -8,44 -25,61 -17,17 -38,25 -61,25l-87 0c-24,0 -44,-8 -61,-25 -17,-17 -26,-37 -26,-61l0 -261c0,-24 8,-45 25,-62 17,-16 38,-25 62,-25l87 0c24,0 44,9 61,25 17,17 25,38 25,62l0 261zm-43 0l0 -261c0,-13 -4,-23 -12,-31 -8,-9 -19,-13 -31,-13l-87 0c-12,0 -23,4 -31,13 -5,4 -8,9 -10,14 -2,5 -3,11 -3,17l0 261c0,12 4,22 13,31 4,4 9,7 14,9 6,2 11,3 17,3l87 0c12,0 22,-4 30,-12 9,-8 13,-18 13,-31zm-4573 286l-153 0 0 369c0,7 -2,13 -6,17 -4,3 -9,5 -15,5 -6,0 -11,-2 -15,-5 -5,-4 -7,-10 -7,-17l0 -391c0,-14 7,-21 22,-21l174 0c6,0 11,2 15,6 4,5 6,10 6,15 0,5 -1,10 -5,15 -4,4 -9,7 -16,7zm346 304c0,24 -8,44 -25,61 -17,17 -38,26 -61,26l-87 0c-24,0 -44,-8 -61,-25 -17,-17 -26,-38 -26,-62l0 -260c0,-25 8,-45 25,-62 17,-17 38,-25 62,-25l87 0c24,0 44,8 61,25 17,17 25,37 25,62l0 260zm-43 0l0 -261c0,-12 -4,-22 -12,-31 -8,-8 -19,-12 -31,-12l-87 0c-13,0 -23,4 -31,12 -5,4 -8,9 -10,14 -2,6 -3,11 -3,17l0 261c0,12 4,23 13,31 4,4 9,7 14,10 6,2 11,3 17,3l87 0c12,0 22,-4 30,-12 9,-8 13,-19 13,-32zm383 65c0,7 -2,13 -7,17 -4,3 -9,5 -15,5 -6,0 -11,-2 -15,-5 -5,-4 -7,-10 -7,-17l0 -369 -70 0 -105 375c0,4 -3,8 -7,11 -4,3 -8,5 -13,5 -7,0 -12,-2 -16,-5 -4,-4 -6,-9 -6,-16 0,-3 0,-5 1,-6l108 -391c3,-11 10,-16 21,-16l109 0c14,0 22,7 22,21l0 391zm346 -65c0,24 -8,44 -25,61 -17,17 -38,26 -62,26l-86 0c-24,0 -44,-8 -62,-25 -17,-17 -25,-38 -25,-62l0 -260c0,-25 8,-45 25,-62 17,-17 37,-25 62,-25l86 0c24,0 45,8 62,25 17,17 25,37 25,62l0 260zm-43 0l0 -261c0,-12 -4,-22 -12,-31 -8,-8 -19,-12 -32,-12l-87 0c-12,0 -22,4 -31,12 -4,4 -7,9 -9,14 -2,6 -3,11 -3,17l0 261c0,12 4,23 12,31 5,4 9,7 14,10 7,2 12,3 17,3l87 0c13,0 23,-4 31,-12 9,-8 13,-19 13,-32zm360 87l-108 0c-24,0 -44,-8 -62,-25 -17,-17 -25,-38 -25,-62l0 -260c0,-25 8,-45 25,-62 17,-17 37,-25 62,-25l108 0c6,0 11,2 16,6 4,5 6,10 6,15 0,5 -2,10 -5,15 -4,4 -9,7 -17,7l-109 0c-12,0 -22,4 -31,12 -4,4 -7,9 -9,14 -2,6 -3,11 -3,17l0 261c0,12 4,23 12,31 5,4 9,7 14,10 7,2 12,3 17,3l109 0c6,0 11,2 16,6 4,5 6,10 6,15 0,5 -2,10 -5,15 -4,5 -9,7 -17,7zm185 -109l-32 94c-1,5 -4,8 -8,11 -2,2 -6,3 -11,4 -6,0 -11,-2 -16,-6 -4,-4 -7,-9 -7,-15l2 -8 130 -391c5,-12 12,-18 21,-18 9,0 16,6 20,18l130 391 2 8c0,6 -3,10 -7,15 -5,4 -10,6 -16,6 -2,0 -6,-1 -9,-2 -4,-2 -7,-6 -10,-13l-32 -94 -157 0zm143 -44l-64 -191 -64 191 128 0z"/>
   <path class="fil3 str1" d="M10440 12617c0,124 89,147 201,124 225,-46 284,-628 222,-591 -88,54 -357,94 -361,276 -1,40 5,71 16,94 81,160 430,-55 585,-88 212,-45 41,-317 -189,-182 -51,30 -274,153 -299,204 -88,188 66,189 195,202 113,11 647,-217 636,-195 -1,3 -99,199 -38,158 100,-68 707,-152 401,-209 -87,-16 -416,-60 -496,-41"/>
   <path class="fil4" d="M16173 10708l-2847 1 84 -3288 2847 -1 -84 3288z"/>
   <path class="fil5" d="M15229 8959c-24,202 -25,473 2,647 16,107 244,306 176,389 -105,129 -553,118 -652,118 -103,0 -465,3 -548,-132 -49,-81 151,-270 153,-375 4,-140 53,-383 21,-591 -19,-127 318,83 399,83 73,0 463,-261 449,-139z"/>
   <path class="fil5" d="M14335 8824c-2,48 -38,87 -80,87l0 0c-44,0 -63,-16 -59,-200l-23 -118c2,-82 59,20 102,19l24 0c43,0 41,3 40,52l-4 160z"/>
   <path class="fil5" d="M15203 8824c-1,48 33,87 76,87l0 0c43,0 64,-16 68,-200l30 -118c2,-82 -61,19 -103,19l-24 0c-43,0 -41,3 -42,51l-5 161z"/>
   <path class="fil6" d="M15231 9606c-27,-174 -26,-445 -2,-647 14,-122 -376,139 -449,139 -81,0 -418,-210 -399,-83 14,87 13,180 7,269l579 913c113,-17 396,-148 440,-202 68,-83 -160,-282 -176,-389z"/>
   <path class="fil5" d="M14407 8166c-103,96 -78,329 -83,489l-7 279c-2,81 -10,174 17,243 50,125 179,249 295,295 48,19 86,-12 138,-13l30 -1329c-116,-2 -308,-40 -390,36z"/>
   <path class="fil7" d="M15258 8655c4,-178 37,-410 -81,-505 -75,-60 -273,-20 -372,-20 -3,0 -12,0 -14,0l-30 1329c1,0 8,0 9,0 55,0 153,30 203,10 96,-105 168,-148 254,-279 29,-68 22,-176 24,-256l7 -279z"/>
   <path class="fil8" d="M14235 8130c-9,19 -17,40 -24,60 -26,88 -15,172 14,254 26,78 58,155 59,241 0,45 24,70 53,99 -4,-52 -9,-98 -11,-144 -3,-61 9,-117 51,-160 27,-28 35,-60 31,-98 -3,-19 -4,-39 -6,-58 -7,-88 23,-140 101,-158 54,-13 111,-14 167,-14 127,1 254,5 381,8 12,1 23,0 34,1 55,6 89,43 93,104 1,21 2,45 -4,65 -21,71 -6,129 35,183 32,43 44,95 40,152 -4,39 -9,80 -14,119 3,2 6,3 9,5 11,-28 26,-54 33,-82 16,-64 27,-129 41,-193 25,-114 45,-228 30,-344 -14,-99 -75,-233 -182,-227 3,7 -60,47 -68,28 -23,-55 -96,-73 -154,-87 -109,-27 -219,-8 -331,-12 -283,-11 -366,230 -378,258z"/>
   <path class="fil9" d="M15040 10708l84 -348 119 -504c-15,54 -15,-256 -15,-256 -13,8 -472,332 -484,341 8,6 8,360 5,767l291 0z"/>
   <path class="fil9" d="M14480 10708l279 0c14,-419 28,-785 37,-792 -12,-9 -425,-312 -437,-321 0,0 -26,316 -38,261l93 504 66 348z"/>
   <path class="fil10" d="M15399 10003l-101 144 -31 -16 132 -128z"/>
   <path class="fil11" d="M15010 10708l1157 0c-114,-311 -133,-479 -130,-603 2,-39 -403,-86 -668,-360l-143 -171c3,22 -79,545 -79,545l-137 589z"/>
   <path class="fil12" d="M14783 9911l-169 321 172 352 154 -357 -133 -316 -24 0z"/>
   <path class="fil10" d="M14362 9580l203 745 220 -416 -423 -329z"/>
   <path class="fil10" d="M15229 9580l-241 745 -199 -416 440 -329z"/>
   <path class="fil12" d="M14857 10708l-70 -618 -106 619 176 -1z"/>
   <path class="fil13" d="M15408 10709l70 -161 -206 -118 269 -225 -156 -446 -159 -184 -222 1133 404 1z"/>
   <path class="fil11" d="M13524 10708c-22,-262 -23,-466 -23,-466 -61,176 -117,331 -169,467l192 -1z"/>
   <path class="fil11" d="M14515 10709l-71 -560c0,0 -84,-567 -81,-590l-101 138c-377,437 -732,334 -741,438 -2,20 -91,274 -166,573l1160 1z"/>
   <path class="fil13" d="M14060 10548l62 161 406 0 -165 -1148 -180 230 -167 414 257 225 -213 118z"/>
   <path class="fil3 str2" d="M12860 9158c797,-80 1509,502 1589,1300 80,797 -502,1509 -1299,1589 -798,80 -1509,-502 -1590,-1299 -80,-798 502,-1509 1300,-1590zm-927 1274c75,-475 462,-859 963,-909 501,-50 957,249 1125,700m56 550c-76,475 -463,859 -964,909 -501,51 -957,-249 -1125,-699m1063 314c-131,13 3,-121 -154,-105 -75,8 -224,185 -255,154 -33,-33 -128,-132 -105,-169 49,-79 73,-176 174,-213 -57,-56 -261,-21 -267,-116 0,-2 -369,-306 -159,-438 41,-26 -15,-153 26,-233 33,-65 547,80 540,3 -4,-35 -48,-127 -167,-160 -21,-5 118,-15 193,-33 15,-4 -25,-58 -17,-62 32,-18 35,-25 74,-27m1338 556c0,0 -92,67 -36,91m-2476 233c2,-56 98,-44 21,-120m1316 635c131,-13 -27,-118 131,-134 74,-8 256,137 279,101 26,-39 100,-156 70,-187 -63,-69 -107,-159 -213,-175 45,-66 252,-72 238,-167 0,-2 302,-372 69,-460 -45,-17 -15,-153 -71,-223 -46,-58 -521,187 -529,110 -3,-35 22,-134 132,-190 19,-9 -118,9 -196,6 -16,-1 13,-62 5,-65 -35,-11 -40,-16 -78,-11"/>
   <path class="fil1 str0" d="M4870 12733c0,7 -2,13 -6,17 -4,3 -10,5 -16,5 -6,0 -11,-2 -15,-5 -4,-4 -6,-10 -6,-17l0 -369 -174 0 0 369c0,7 -2,13 -7,17 -4,3 -9,5 -15,5 -6,0 -11,-2 -15,-5 -5,-4 -7,-10 -7,-17l0 -391c0,-14 8,-21 22,-21l217 0c14,0 22,7 22,21l0 391zm130 -195l130 0c12,0 22,-4 31,-12 9,-8 13,-19 13,-32l0 -87c0,-12 -4,-22 -13,-31 -8,-8 -18,-12 -31,-12l-130 0 0 174zm0 43l0 152c0,7 -2,13 -6,17 -4,3 -9,5 -16,5 -6,0 -11,-2 -15,-5 -4,-4 -6,-10 -6,-17l0 -391c0,-14 7,-21 21,-21l152 0c24,0 45,8 62,25 16,17 25,37 25,61l0 87c0,24 -9,44 -25,61 -18,17 -38,26 -62,26l-130 0zm347 -86l109 0c6,0 11,2 16,6 4,5 6,10 6,15 0,5 -2,10 -5,15 -4,4 -10,7 -17,7l-109 0 0 174 153 0c6,0 11,2 15,6 4,5 6,10 6,15 0,6 -1,10 -5,15 -4,5 -9,7 -16,7l-174 0c-15,0 -22,-7 -22,-21l0 -392c0,-14 7,-21 22,-21l174 0c6,0 11,2 15,6 4,5 6,10 6,15 0,5 -1,10 -5,15 -4,4 -9,7 -16,7l-153 0 0 131zm306 217l41 -372c0,-13 8,-19 22,-19l130 0c15,0 22,7 22,21l0 370 22 0c15,0 22,7 22,21l0 44c0,5 -2,11 -7,15 -4,4 -9,6 -15,6 -5,0 -9,-2 -14,-5 -5,-4 -7,-9 -7,-16l0 -22 -218 0 0 22c0,5 -2,11 -7,15 -4,4 -9,6 -15,6 -5,0 -9,-2 -14,-5 -5,-4 -7,-9 -7,-16l0 -44c0,-14 7,-21 21,-21l24 0zm172 0l0 -348 -89 0 -39 348 128 0zm347 43l-109 0c-23,0 -44,-9 -61,-25 -17,-17 -26,-38 -26,-62l0 -261c0,-24 9,-44 26,-61 16,-17 37,-25 61,-25l109 0c6,0 11,2 15,6 4,5 7,10 7,15 0,5 -2,10 -6,15 -4,4 -9,7 -16,7l-109 0c-12,0 -23,4 -31,12 -4,4 -7,9 -9,14 -2,6 -4,11 -4,17l0 261c0,12 5,23 13,31 4,4 9,7 14,10 6,2 12,3 17,3l109 0c6,0 11,2 15,6 4,5 7,10 7,15 0,5 -2,10 -6,15 -4,5 -9,7 -16,7zm151 -260l110 0c6,0 11,2 15,6 4,5 6,10 6,15 0,5 -1,10 -5,15 -4,4 -9,7 -16,7l-110 0 0 174 153 0c6,0 11,2 15,6 5,5 7,10 7,15 0,6 -2,10 -6,15 -3,5 -9,7 -16,7l-174 0c-15,0 -22,-7 -22,-21l0 -392c0,-14 7,-21 22,-21l174 0c6,0 11,2 15,6 5,5 7,10 7,15 0,5 -2,10 -6,15 -3,4 -9,7 -16,7l-153 0 0 131zm307 217l41 -372c0,-13 7,-19 21,-19l131 0c14,0 21,7 21,21l0 370 22 0c15,0 22,7 22,21l0 44c0,5 -2,11 -7,15 -4,4 -9,6 -14,6 -5,0 -10,-2 -15,-5 -5,-4 -7,-9 -7,-16l0 -22 -218 0 0 22c0,5 -2,11 -7,15 -4,4 -9,6 -14,6 -5,0 -10,-2 -15,-5 -5,-4 -7,-9 -7,-16l0 -44c0,-14 7,-21 22,-21l24 0zm171 0l0 -348 -89 0 -39 348 128 0zm250 -66l-32 94c-1,5 -4,8 -8,11 -2,2 -6,3 -11,4 -6,0 -11,-2 -16,-6 -4,-4 -7,-9 -7,-15l2 -8 130 -391c5,-12 12,-18 21,-18 9,0 16,6 20,18l130 391 2 8c0,5 -3,10 -7,15 -5,4 -10,6 -15,6 -3,0 -7,-1 -10,-2 -4,-2 -7,-6 -10,-13l-32 -94 -157 0zm143 -44l-64 -191 -64 191 128 0zm193 -238l-87 0c-6,0 -12,-2 -16,-6 -4,-5 -6,-10 -6,-16 0,-5 2,-10 6,-14 3,-5 9,-7 16,-7l217 0c6,0 11,2 15,6 5,5 7,10 7,15 0,5 -2,10 -6,15 -3,4 -9,7 -16,7l-87 0 0 369c0,7 -2,13 -6,17 -4,3 -9,5 -15,5 -6,0 -11,-2 -15,-5 -5,-4 -7,-10 -7,-17l0 -369zm282 131l109 0c6,0 11,2 15,6 5,5 7,10 7,15 0,5 -2,10 -6,15 -3,4 -9,7 -16,7l-109 0 0 174 152 0c7,0 12,2 16,6 4,5 6,10 6,15 0,6 -2,10 -5,15 -4,5 -9,7 -16,7l-175 0c-14,0 -21,-7 -21,-21l0 -392c0,-14 7,-21 21,-21l175 0c6,0 11,2 15,6 4,5 6,10 6,15 0,5 -2,10 -5,15 -4,4 -9,7 -17,7l-152 0 0 131zm522 238c0,7 -2,13 -7,17 -4,3 -9,5 -15,5 -6,0 -11,-2 -15,-5 -5,-4 -7,-10 -7,-17l0 -369 -70 0 -105 375c0,4 -3,8 -7,11 -4,3 -8,5 -13,5 -7,0 -12,-2 -16,-5 -4,-4 -6,-9 -6,-16 0,-3 0,-5 1,-6l108 -391c3,-11 10,-16 21,-16l109 0c14,0 22,7 22,21l0 391zm129 -195l130 0c13,0 23,4 31,12 9,8 13,19 13,31l0 87c0,13 -4,23 -12,31 -5,5 -9,8 -15,10 -5,2 -10,3 -17,3l-130 0 0 -174zm0 -44l0 -152c0,-5 -2,-10 -7,-15 -4,-4 -9,-6 -15,-6 -5,0 -9,1 -14,5 -5,4 -7,9 -7,16l0 391c0,15 7,22 21,22l152 0c24,0 44,-8 61,-25 17,-17 26,-37 26,-62l0 -87c0,-23 -8,-44 -25,-61 -17,-17 -38,-26 -62,-26l-130 0zm673 -130l-87 0c-6,0 -12,-2 -16,-6 -4,-5 -6,-10 -6,-16 0,-5 2,-10 6,-14 3,-5 9,-7 16,-7l217 0c6,0 11,2 15,6 5,5 7,10 7,15 0,5 -2,10 -6,15 -3,4 -9,7 -16,7l-87 0 0 369c0,7 -2,13 -6,17 -4,3 -9,5 -15,5 -6,0 -11,-2 -15,-5 -5,-4 -7,-10 -7,-17l0 -369zm499 369c0,7 -2,13 -6,17 -4,3 -9,5 -16,5 -5,0 -10,-2 -15,-5 -4,-4 -6,-10 -6,-17l0 -307 -176 318c-3,4 -6,8 -10,10l-5 3c-1,1 -3,1 -6,2 -4,0 -9,-3 -15,-7 -3,-4 -5,-10 -5,-19l0 -390c0,-6 2,-12 6,-17 5,-3 10,-5 15,-5 6,0 11,2 15,5 5,4 7,9 7,17l0 307 176 -318c2,-3 5,-7 9,-10 4,-3 8,-5 12,-5 5,0 9,3 14,7 4,5 6,11 6,18l0 391zm130 -225l183 -181c4,-4 9,-6 15,-6 5,0 10,2 15,6 5,5 7,10 7,16 0,4 -2,9 -6,15l-130 128 134 236 3 12c0,5 -3,10 -7,14 -5,5 -10,7 -16,7 -7,0 -13,-4 -19,-11l-127 -227 -52 51 0 165c0,7 -2,13 -6,17 -4,3 -9,5 -15,5 -6,0 -11,-2 -16,-5 -4,-4 -6,-10 -6,-17l0 -391c0,-6 2,-11 7,-15 4,-4 9,-6 15,-6 5,0 10,1 15,5 4,3 6,9 6,16l0 166z"/>
   <path class="fil1 str0" d="M12599 12733c0,7 -2,13 -6,17 -4,3 -9,5 -15,5 -6,0 -11,-2 -15,-5 -5,-4 -7,-10 -7,-17l0 -369 -174 0 0 369c0,7 -2,13 -6,17 -4,3 -9,5 -15,5 -6,0 -11,-2 -15,-5 -5,-4 -7,-10 -7,-17l0 -391c0,-14 7,-21 22,-21l217 0c14,0 21,7 21,21l0 391zm131 -238l109 0c6,0 11,2 15,6 4,5 7,10 7,15 0,5 -2,10 -6,15 -4,4 -9,7 -16,7l-109 0 0 174 152 0c6,0 11,2 16,6 4,5 6,10 6,15 0,6 -2,10 -5,15 -4,5 -10,7 -17,7l-174 0c-14,0 -22,-7 -22,-21l0 -392c0,-14 8,-21 22,-21l174 0c6,0 11,2 16,6 4,5 6,10 6,15 0,5 -2,10 -6,15 -3,4 -9,7 -16,7l-152 0 0 131zm369 -131l-87 0c-7,0 -12,-2 -16,-6 -4,-5 -6,-10 -6,-16 0,-5 2,-10 6,-14 3,-5 9,-7 16,-7l217 0c6,0 11,2 15,6 4,5 7,10 7,15 0,5 -2,10 -6,15 -3,4 -9,7 -16,7l-87 0 0 369c0,7 -2,13 -6,17 -4,3 -9,5 -16,5 -5,0 -10,-2 -15,-5 -4,-4 -6,-10 -6,-17l0 -369zm282 174l130 0c12,0 22,-4 31,-12 8,-8 13,-19 13,-32l0 -87c0,-12 -5,-22 -13,-31 -8,-8 -18,-12 -31,-12l-130 0 0 174zm0 43l0 152c0,7 -2,13 -7,17 -3,3 -9,5 -15,5 -6,0 -11,-2 -15,-5 -4,-4 -7,-10 -7,-17l0 -391c0,-14 8,-21 22,-21l152 0c24,0 45,8 61,25 17,17 26,37 26,61l0 87c0,24 -9,44 -26,61 -17,17 -37,26 -61,26l-130 0zm564 87c0,24 -8,44 -25,61 -17,17 -38,26 -62,26l-87 0c-23,0 -43,-9 -61,-25 -17,-17 -25,-38 -25,-62l0 -261c0,-24 8,-44 25,-61 17,-17 37,-25 61,-25l87 0c24,0 45,8 62,25 17,17 25,37 25,61l0 261zm-43 0l0 -261c0,-12 -4,-22 -12,-31 -9,-8 -19,-12 -32,-12l-87 0c-12,0 -22,4 -31,12 -4,4 -7,9 -9,14 -2,6 -3,11 -3,17l0 261c0,12 4,23 12,31 5,4 9,7 14,10 6,2 12,3 17,3l87 0c12,0 23,-4 31,-12 9,-8 13,-19 13,-32zm384 -161c12,8 22,18 30,31 7,14 11,28 11,43l0 87c0,24 -8,44 -25,61 -17,17 -38,26 -62,26l-152 0c-14,0 -21,-7 -21,-22l0 -391c0,-14 7,-21 21,-21l131 0c24,0 44,8 61,25 17,17 25,37 25,61l0 44c0,10 -1,19 -4,29 -3,9 -8,18 -15,27zm-176 31l0 174 130 0c12,0 23,-4 31,-12 9,-8 13,-19 13,-32l0 -87c0,-12 -4,-22 -12,-31 -9,-8 -19,-12 -32,-12l-130 0zm109 -44c12,0 22,-4 31,-12 8,-8 12,-18 12,-31l0 -44c0,-12 -4,-22 -12,-31 -8,-8 -19,-12 -31,-12l-109 0 0 131 109 -1zm532 152l-32 94c-1,5 -4,8 -8,11 -3,2 -7,3 -12,4 -5,0 -10,-2 -15,-6 -5,-4 -7,-9 -7,-15l2 -8 130 -391c4,-12 11,-18 21,-18 9,0 16,6 20,18l130 391 2 8c0,5 -3,10 -8,15 -4,4 -9,6 -15,6 -3,0 -6,-1 -10,-2 -3,-2 -7,-6 -10,-13l-31 -94 -157 0zm143 -44l-64 -191 -65 191 129 0zm171 131c0,-6 2,-11 6,-15 5,-4 10,-6 16,-6 4,0 9,2 14,6 5,4 7,9 7,15 0,6 -2,10 -6,15 -4,5 -10,7 -15,7 -7,0 -12,-2 -16,-7 -4,-4 -6,-9 -6,-15zm390 0c0,7 -2,13 -6,17 -4,3 -9,5 -15,5 -6,0 -11,-2 -15,-5 -5,-4 -7,-10 -7,-17l0 -369 -174 0 0 369c0,7 -2,13 -6,17 -4,3 -9,5 -15,5 -6,0 -11,-2 -15,-5 -5,-4 -7,-10 -7,-17l0 -391c0,-14 7,-21 22,-21l217 0c14,0 21,7 21,21l0 391zm87 0c0,-6 2,-11 7,-15 4,-4 9,-6 15,-6 5,0 9,2 14,6 5,4 8,9 8,15 0,6 -3,10 -7,15 -4,5 -9,7 -15,7 -6,0 -11,-2 -16,-7 -4,-4 -6,-9 -6,-15z"/>
  </g>
 </g>
</svg>
