<?xml version="1.0" encoding="UTF-8"?>
<!DOCTYPE svg PUBLIC "-//W3C//DTD SVG 1.0//EN" "http://www.w3.org/TR/2001/REC-SVG-20010904/DTD/svg10.dtd">
<!-- Creator: CorelDRAW X7 -->
<svg xmlns="http://www.w3.org/2000/svg" xml:space="preserve" width="200mm" height="200mm" version="1.0" style="shape-rendering:geometricPrecision; text-rendering:geometricPrecision; image-rendering:optimizeQuality; fill-rule:evenodd; clip-rule:evenodd"
viewBox="0 0 20000 20000"
 xmlns:xlink="http://www.w3.org/1999/xlink">
 <defs>
  <style type="text/css">
   <![CDATA[
    .str2 {stroke:#4D897C;stroke-width:20}
    .str1 {stroke:#4D897C;stroke-width:60;stroke-linecap:round;stroke-linejoin:round}
    .str0 {stroke:#024541;stroke-width:159.99;stroke-linecap:round;stroke-linejoin:round}
    .fil1 {fill:none;fill-rule:nonzero}
    .fil2 {fill:#EBF2D9}
    .fil3 {fill:#CDDBAC}
    .fil5 {fill:#4D897C}
    .fil12 {fill:#126B1D}
    .fil7 {fill:#164608}
    .fil15 {fill:#1A8C23}
    .fil13 {fill:#20A628}
    .fil10 {fill:#21660C}
    .fil11 {fill:#29CA2E}
    .fil8 {fill:#61B338}
    .fil6 {fill:#6ED041}
    .fil14 {fill:#87EB60}
    .fil9 {fill:#94FD7C}
    .fil4 {fill:#4D897C;fill-rule:nonzero}
    .fil0 {fill:url(#id0)}
   ]]>
  </style>
  <radialGradient id="id0" gradientUnits="userSpaceOnUse" gradientTransform="matrix(1.41421 -0 -0 1.41421 -4144 -4142)" cx="10004.7" cy="10000.6" r="10000" fx="10004.7" fy="10000.6">
   <stop offset="0" style="stop-opacity:1; stop-color:#FEFEFE"/>
   <stop offset="0.439216" style="stop-opacity:1; stop-color:#FEFEFE"/>
   <stop offset="1" style="stop-opacity:1; stop-color:#D1E2F2"/>
  </radialGradient>
 </defs>
 <g id="Layer_x0020_1">
  <metadata id="CorelCorpID_0Corel-Layer"/>
  <path class="fil0" d="M5 1l20000 0 0 20000 -20000 0 0 -20000z"/>
  <g id="_397325136752">
   <path class="fil1 str0" d="M12949 5489l0 8832c-2206,0 -3683,0 -5888,0l0 -8832 5888 0z"/>
   <path class="fil2" d="M12949 5489l0 8832c-2205,0 -3683,0 -5888,0l0 -8832 5888 0z"/>
   <path class="fil3" d="M7061 5489l5888 0 0 3361 -5888 -2798c10,-289 0,-370 0,-563z"/>
   <g>
    <path class="fil4" d="M8043 6465l-114 0 0 -153 200 0c18,0 35,-11 35,-37 0,-25 -17,-37 -35,-37l-237 0c-26,0 -37,18 -37,38l0 497c0,20 11,38 37,38l151 0c101,0 151,-69 151,-159l0 -37c0,-91 -50,-150 -151,-150zm77 195c0,50 -21,77 -76,77l-115 0 0 -203 114 0c54,0 77,28 77,77l0 49zm496 -430c-106,0 -152,92 -152,182l0 59 -72 0 0 -203c0,-20 -8,-38 -34,-38 -26,0 -36,18 -36,38l0 514c0,19 10,37 36,37 26,0 34,-18 34,-37l0 -237 72 0 0 109c0,90 46,165 145,165l42 0c100,0 150,-73 150,-163l0 -262c0,-90 -50,-164 -150,-164l-35 0zm111 426c0,50 -22,90 -76,90l-38 0c-54,0 -75,-40 -75,-90l0 -238c0,-51 20,-114 78,-114l35 0c54,0 76,40 76,86l0 266zm314 52c5,-47 46,-396 46,-396l138 0 0 470c0,19 11,37 38,37 25,0 36,-18 36,-37l0 -506c0,-20 -11,-38 -36,-38l-206 0c-22,0 -35,16 -37,38 -3,23 -45,381 -49,413 -3,19 -5,31 -10,39 -8,16 -21,20 -44,20 -19,0 -36,12 -36,39 0,27 17,36 36,36 69,0 97,-23 113,-64 5,-15 8,-30 11,-51zm522 0c5,-47 46,-396 46,-396l138 0 0 470c0,19 11,37 38,37 25,0 36,-18 36,-37l0 -506c0,-20 -11,-38 -36,-38l-206 0c-23,0 -35,16 -38,38 -2,23 -44,381 -48,413 -3,19 -5,31 -10,39 -8,16 -21,20 -44,20 -19,0 -36,12 -36,39 0,27 17,36 36,36 69,0 97,-23 113,-64 5,-15 8,-30 11,-51zm701 103c18,0 35,-11 35,-37 0,-24 -17,-37 -35,-37l-216 0 0 -184 178 0c18,0 35,-10 35,-37 0,-24 -17,-36 -35,-36l-178 0 0 -168 216 0c18,0 35,-11 35,-37 0,-25 -17,-37 -35,-37l-253 0c-26,0 -37,18 -37,38l0 497c0,20 11,38 37,38l253 0zm297 8c26,0 37,-18 37,-37l0 -470 115 0c18,0 34,-11 34,-37 0,-25 -16,-37 -34,-37l-304 0c-18,0 -35,12 -35,37 0,26 17,37 35,37l115 0 0 470c0,19 11,37 37,37zm579 -8c18,0 35,-11 35,-37 0,-24 -17,-37 -35,-37l-215 0 0 -184 177 0c18,0 35,-10 35,-37 0,-24 -17,-36 -35,-36l-177 0 0 -168 215 0c18,0 35,-11 35,-37 0,-25 -17,-37 -35,-37l-253 0c-25,0 -36,18 -36,38l0 497c0,20 11,38 36,38l253 0zm512 -543c0,-20 -12,-38 -37,-38 -26,0 -37,18 -37,38l0 203 -207 0 0 -203c0,-20 -10,-38 -37,-38 -25,0 -37,18 -37,38l0 514c0,19 12,37 37,37 26,0 37,-18 37,-37l0 -237 207 0 0 237c0,19 10,37 37,37 25,0 37,-18 37,-37l0 -514zm352 192l-125 0 0 -192c0,-20 -11,-38 -37,-38 -26,0 -37,18 -37,38l0 505c0,20 11,38 38,38l161 0c101,0 151,-69 151,-159l0 -37c0,-91 -47,-155 -151,-155zm77 200c0,50 -21,77 -76,77l-126 0 0 -203 125 0c54,0 77,28 77,77l0 49z"/>
    <path id="1" class="fil4" d="M7929 6452l114 0 0 26 -114 0 -13 -13 13 -13zm0 26l-13 0 0 -13 13 13zm12 -166l0 153 -25 0 0 -153 13 -13 12 13zm-25 0l0 -13 13 0 -13 13zm213 12l-200 0 0 -25 200 0 0 0 0 25zm23 -49l24 0 0 0 0 3 0 3 0 3 -1 2 0 3 -1 3 -1 2 -1 3 -1 2 -1 2 -1 2 -1 2 -2 2 -1 2 -2 2 -2 2 -1 1 -2 2 -2 1 -2 1 -2 1 -2 1 -2 1 -2 1 -2 0 -2 1 -2 0 -2 1 -2 0 -3 0 -2 0 -2 0 0 -25 1 0 2 0 1 0 1 0 1 0 1 -1 1 0 2 0 0 -1 1 0 1 -1 1 0 1 -1 1 0 1 -1 0 0 1 -1 1 -1 0 0 1 -1 0 -1 1 -1 0 -1 1 -1 0 -1 1 -1 0 -2 0 -1 0 -2 1 -1 0 -2 0 -2 0 0zm-23 -24l0 -26 0 0 2 0 3 1 2 0 2 0 2 1 2 0 2 1 2 0 2 1 2 1 2 1 2 1 2 2 2 1 2 1 2 2 1 2 2 1 1 2 2 2 1 2 1 2 1 3 1 2 1 2 1 3 1 2 0 3 1 3 0 2 0 3 0 3 -24 0 0 -2 0 -1 -1 -2 0 -1 0 -2 0 -1 -1 -1 0 -1 -1 -1 0 -1 -1 -1 0 -1 -1 -1 0 -1 -1 -1 -1 0 -1 -1 0 -1 -1 0 -1 -1 -1 0 -1 -1 -1 0 -1 -1 -1 0 -1 0 -1 -1 -1 0 -1 0 -1 0 -2 0 -1 0 0 0zm-237 -26l237 0 0 26 -237 0 0 0 0 -26zm-25 51l-25 0 0 0 1 -3 0 -2 0 -2 0 -2 1 -3 0 -2 1 -2 0 -3 1 -2 1 -2 1 -2 1 -2 1 -2 2 -2 1 -2 2 -2 1 -2 2 -1 2 -2 2 -2 2 -1 2 -1 2 -1 3 -2 2 0 3 -1 2 -1 3 -1 3 0 3 0 2 0 3 -1 0 26 -2 0 -1 0 -2 0 -2 0 -1 1 -2 0 -1 1 -1 0 -1 1 -1 0 -1 1 -1 0 -1 1 -1 1 -1 0 -1 1 0 1 -1 1 0 1 -1 1 0 1 -1 1 0 1 -1 1 0 1 0 1 -1 1 0 1 0 2 0 1 0 1 0 2 0 0zm-25 497l0 -497 25 0 0 497 0 0 -25 0zm50 25l0 26 0 0 -3 0 -2 -1 -3 0 -3 0 -3 -1 -2 -1 -3 0 -2 -1 -3 -1 -2 -2 -2 -1 -2 -1 -2 -2 -2 -1 -2 -2 -1 -2 -2 -2 -1 -2 -2 -2 -1 -2 -1 -2 -1 -2 -1 -2 -1 -2 0 -3 -1 -2 0 -2 -1 -2 0 -3 0 -2 0 -2 -1 -3 25 0 0 2 0 1 0 1 0 2 0 1 1 1 0 1 0 2 1 1 0 1 1 1 0 1 1 1 0 0 1 1 0 1 1 1 1 1 1 0 1 1 1 1 1 0 1 1 1 0 1 1 1 0 2 0 1 1 2 0 2 0 1 0 2 0 0 0zm151 26l-151 0 0 -26 151 0 0 0 0 26zm139 -172l24 0 0 0 0 9 -1 9 0 8 -2 9 -1 8 -2 8 -2 8 -2 8 -3 8 -3 7 -3 7 -4 7 -4 7 -4 7 -5 6 -5 6 -5 6 -6 5 -6 5 -6 5 -7 4 -7 5 -7 3 -7 4 -8 3 -8 2 -9 3 -9 1 -9 2 -9 1 -9 1 -10 0 0 -26 9 0 8 0 8 -1 8 -2 8 -1 7 -2 7 -2 7 -3 6 -3 6 -3 6 -3 5 -4 5 -4 5 -4 5 -4 4 -5 4 -5 4 -5 4 -6 3 -5 3 -6 3 -6 3 -7 2 -6 2 -7 2 -7 1 -7 1 -7 1 -7 1 -8 0 -8 1 -8 0 0zm24 -37l0 37 -24 0 0 -37 0 0 24 0zm-163 -137l0 -26 0 0 9 0 10 1 9 1 9 1 9 2 8 2 8 2 8 3 8 3 7 3 7 4 7 4 6 4 6 5 6 5 5 5 5 5 5 6 4 6 4 7 4 7 3 6 3 8 3 7 2 8 2 7 2 8 1 9 2 8 0 9 1 8 0 9 -24 0 -1 -8 0 -7 -1 -8 -1 -7 -1 -8 -1 -6 -2 -7 -2 -7 -2 -6 -3 -6 -3 -5 -3 -6 -3 -5 -3 -5 -4 -5 -4 -4 -5 -5 -4 -4 -5 -3 -5 -4 -6 -3 -5 -3 -7 -3 -6 -3 -7 -2 -7 -2 -7 -2 -8 -1 -7 -1 -9 -1 -8 0 -9 0 0 0zm1 272l0 -25 0 0 5 0 4 -1 4 0 4 0 4 -1 4 -1 3 -1 3 -1 3 -1 3 -1 2 -1 3 -2 2 -1 2 -2 2 -2 2 -1 1 -2 2 -2 1 -3 2 -2 1 -2 1 -3 1 -3 1 -3 1 -3 1 -3 0 -3 1 -4 0 -3 0 -4 1 -4 0 -5 24 0 0 5 0 5 -1 5 0 5 -1 4 -1 4 -1 5 -1 4 -1 4 -2 4 -1 4 -2 4 -2 3 -3 4 -2 3 -3 3 -3 3 -3 3 -3 2 -4 3 -3 2 -4 2 -4 2 -4 1 -4 2 -5 1 -4 1 -5 1 -5 0 -5 1 -5 0 -6 0 0 0zm-115 -25l115 0 0 25 -115 0 -13 -13 13 -12zm0 25l-13 0 0 -13 13 13zm12 -216l0 203 -25 0 0 -203 13 -13 12 13zm-25 0l0 -13 13 0 -13 13zm127 12l-114 0 0 -25 114 0 0 0 0 25zm89 65l-24 0 0 0 0 -4 -1 -4 0 -4 0 -3 -1 -4 -1 -3 0 -4 -1 -3 -1 -3 -1 -2 -1 -3 -2 -2 -1 -3 -2 -2 -1 -2 -2 -2 -2 -2 -2 -2 -2 -1 -2 -2 -3 -1 -2 -2 -3 -1 -3 -1 -3 -1 -4 -1 -3 -1 -4 -1 -4 0 -4 0 -5 -1 -4 0 0 -25 5 0 5 0 5 1 5 0 5 1 5 1 4 1 5 2 4 1 4 2 4 2 3 2 4 3 3 2 3 3 3 3 3 3 3 4 2 3 2 4 2 4 2 3 2 4 1 5 1 4 1 4 1 5 1 4 0 5 1 5 0 4 0 5 0 0zm-24 49l0 -49 24 0 0 49 0 0 -24 0zm368 -248l-24 0 0 0 0 -8 0 -9 1 -9 1 -9 1 -9 2 -8 2 -9 2 -9 3 -8 3 -8 3 -8 3 -8 4 -8 4 -8 5 -7 5 -7 5 -7 5 -7 6 -6 6 -6 7 -5 7 -5 7 -5 8 -5 8 -3 8 -4 9 -3 9 -2 10 -2 9 -2 10 0 11 -1 0 26 -9 0 -9 1 -8 1 -8 1 -8 2 -7 3 -7 3 -7 3 -6 4 -6 4 -6 4 -6 5 -5 4 -5 6 -5 5 -4 6 -4 6 -4 6 -4 7 -3 7 -3 7 -3 7 -2 7 -3 7 -2 8 -1 8 -2 8 -1 7 -1 8 0 8 -1 8 0 8 0 0zm-24 59l0 -59 24 0 0 59 -12 13 -12 -13zm24 0l0 13 -12 0 12 -13zm-84 -12l72 0 0 25 -72 0 -12 -13 12 -12zm0 25l-12 0 0 -13 12 13zm12 -216l0 203 -24 0 0 -203 0 0 24 0zm-46 -25l0 -26 0 0 3 0 2 1 3 0 3 0 3 1 2 1 3 0 2 1 2 1 3 2 2 1 2 2 2 1 1 2 2 2 2 1 1 2 1 2 1 2 1 3 1 2 1 2 1 2 0 2 1 2 0 2 1 3 0 2 0 2 0 2 0 2 0 3 -24 0 0 -2 0 -1 0 -2 0 -1 0 -2 -1 -1 0 -1 0 -1 0 -1 -1 -1 0 -2 -1 0 0 -1 0 -1 -1 -1 -1 -1 0 0 -1 -1 0 -1 -1 0 -1 -1 -1 0 0 -1 -1 0 -1 -1 -2 0 -1 -1 -1 0 -2 0 -2 0 -1 0 -2 0 0 0zm-24 25l-24 0 0 0 0 -3 0 -2 0 -2 1 -3 0 -2 0 -2 1 -2 1 -2 0 -3 1 -2 1 -2 1 -2 1 -2 1 -2 2 -2 1 -2 2 -2 2 -1 1 -2 2 -2 2 -1 2 -1 2 -2 3 -1 2 -1 3 0 2 -1 3 -1 2 0 3 0 3 -1 3 0 0 26 -2 0 -2 0 -1 0 -2 0 -1 0 -1 1 -2 0 -1 1 -1 0 -1 1 -1 0 0 1 -1 0 -1 1 -1 1 0 1 -1 0 0 1 -1 1 -1 1 0 1 0 1 -1 1 0 1 -1 1 0 2 0 1 0 1 0 1 -1 2 0 1 0 2 0 0zm-24 514l0 -514 24 0 0 514 0 0 -24 0zm48 25l0 25 0 0 -3 0 -3 0 -3 -1 -2 0 -3 -1 -2 0 -3 -1 -2 -1 -3 -1 -2 -2 -2 -1 -2 -1 -2 -2 -1 -1 -2 -2 -2 -2 -1 -2 -2 -2 -1 -2 -1 -2 -1 -2 -1 -2 -1 -2 0 -2 -1 -3 -1 -2 0 -2 0 -2 -1 -3 0 -2 0 -2 0 -2 24 0 0 1 0 1 1 2 0 1 0 1 0 2 0 1 1 1 0 1 1 1 0 1 0 1 1 1 1 1 0 1 1 1 0 0 1 1 1 1 1 0 0 1 1 0 1 1 1 0 1 1 2 0 1 1 1 0 2 0 1 0 2 1 2 0 0 0zm22 -25l24 0 0 0 0 2 0 2 0 2 0 2 0 3 -1 2 0 2 -1 2 0 2 -1 3 -1 2 -1 2 -1 2 -1 2 -1 2 -2 2 -1 2 -2 1 -2 2 -2 2 -2 1 -2 1 -2 2 -2 1 -3 1 -2 1 -3 0 -2 1 -3 0 -3 1 -2 0 -3 0 0 -25 2 0 1 -1 2 0 1 0 2 0 1 -1 1 0 1 0 1 -1 1 0 1 -1 1 -1 0 0 1 -1 1 0 0 -1 1 -1 0 -1 1 -1 0 0 1 -1 0 -1 0 -2 1 -1 0 -1 0 -1 1 -1 0 -2 0 -1 0 -2 0 -1 0 -1 0 0zm24 -237l0 237 -24 0 0 -237 12 -13 12 13zm-24 0l0 -13 12 0 -12 13zm84 13l-72 0 0 -26 72 0 12 13 -12 13zm0 -26l12 0 0 13 -12 -13zm-12 122l0 -109 24 0 0 109 0 0 -24 0zm157 153l0 25 0 0 -9 0 -10 -1 -9 -1 -9 -2 -8 -2 -9 -2 -8 -3 -7 -3 -8 -4 -7 -4 -7 -4 -6 -5 -6 -5 -6 -6 -5 -6 -5 -6 -5 -6 -4 -6 -4 -7 -4 -7 -4 -8 -3 -7 -3 -8 -2 -8 -2 -8 -2 -8 -2 -8 -1 -8 -1 -9 -1 -9 0 -8 0 -9 24 0 0 8 1 8 0 7 1 8 1 8 2 7 1 7 2 7 2 7 3 6 2 7 3 6 4 6 3 6 4 5 4 5 4 5 4 5 5 4 5 5 5 4 6 3 5 3 6 4 7 2 7 3 7 2 7 1 7 2 8 1 9 0 8 1 0 0zm42 25l-42 0 0 -25 42 0 0 0 0 25zm137 -176l25 0 0 0 0 8 -1 9 -1 9 -1 8 -1 9 -2 8 -2 8 -2 8 -3 8 -3 7 -3 8 -4 7 -4 7 -4 7 -5 6 -4 6 -6 6 -5 6 -6 5 -6 5 -7 5 -7 4 -7 4 -8 4 -7 3 -8 3 -9 2 -8 2 -9 2 -10 1 -9 1 -10 0 0 -25 9 -1 8 0 8 -1 8 -2 7 -1 8 -2 6 -3 7 -2 6 -3 6 -4 6 -3 5 -4 5 -4 5 -5 5 -4 4 -5 4 -5 4 -6 4 -5 3 -6 3 -6 3 -7 2 -6 3 -7 2 -7 2 -7 1 -7 1 -7 1 -8 1 -8 0 -8 0 -7 0 0zm25 -262l0 262 -25 0 0 -262 0 0 25 0zm-162 -151l0 -26 0 0 10 0 9 1 10 1 9 2 8 2 9 2 8 3 7 3 8 4 7 4 7 4 7 5 6 5 6 5 5 6 6 6 4 6 5 6 4 7 4 7 4 7 3 8 3 7 3 8 2 8 2 8 2 8 1 9 1 8 1 9 1 9 0 9 -25 0 0 -8 0 -8 -1 -8 -1 -7 -1 -8 -1 -7 -2 -7 -2 -7 -3 -7 -2 -6 -3 -6 -3 -7 -3 -5 -4 -6 -4 -5 -4 -6 -4 -5 -5 -4 -5 -5 -5 -4 -5 -4 -6 -3 -6 -4 -6 -3 -7 -2 -6 -3 -8 -2 -7 -1 -8 -2 -8 -1 -8 0 -9 0 0 0zm-35 -26l35 0 0 26 -35 0 0 0 0 -26zm35 541l0 -25 0 0 5 0 4 0 4 -1 4 -1 3 0 4 -1 3 -2 3 -1 3 -1 2 -2 3 -2 2 -1 3 -2 2 -3 2 -2 2 -2 1 -3 2 -2 2 -3 1 -3 1 -3 2 -3 1 -4 1 -3 1 -4 0 -4 1 -4 1 -4 0 -4 0 -4 0 -4 1 -4 24 0 0 5 0 5 -1 5 0 5 -1 4 -1 5 -1 5 -1 4 -1 5 -1 4 -2 5 -2 4 -2 4 -2 4 -3 4 -2 3 -3 4 -3 3 -3 3 -4 3 -3 3 -4 3 -4 2 -4 2 -5 2 -4 2 -5 1 -5 1 -5 1 -5 1 -5 0 -6 0 0 0zm-38 -25l38 0 0 25 -38 0 0 0 0 -25zm-87 -77l24 0 0 0 0 4 0 4 1 4 0 4 0 4 1 4 1 4 1 4 1 3 1 4 1 3 1 3 2 3 1 3 2 2 2 3 2 2 2 2 2 3 2 2 3 1 2 2 3 2 3 1 3 1 3 2 3 1 4 0 4 1 4 1 4 0 4 0 0 25 -5 0 -6 0 -5 -1 -5 -1 -5 -1 -4 -1 -5 -2 -4 -2 -4 -2 -4 -2 -4 -3 -4 -3 -3 -3 -4 -3 -3 -3 -2 -4 -3 -3 -2 -4 -3 -4 -2 -4 -1 -4 -2 -5 -1 -4 -2 -5 -1 -4 -1 -5 -1 -5 0 -4 -1 -5 0 -5 0 -5 0 -5 0 0zm24 -238l0 238 -24 0 0 -238 0 0 24 0zm66 -127l0 25 0 0 -5 0 -4 1 -4 1 -4 1 -3 1 -4 1 -3 2 -3 2 -3 2 -3 3 -3 2 -2 3 -3 3 -2 3 -2 4 -2 3 -2 4 -2 4 -2 4 -1 4 -2 4 -1 5 -1 4 -1 5 -1 4 -1 5 -1 4 0 5 -1 5 0 4 0 5 0 4 -24 0 0 -5 0 -5 0 -5 1 -6 0 -5 1 -5 1 -6 1 -5 1 -5 2 -5 1 -6 2 -5 2 -5 2 -5 2 -5 3 -4 2 -5 3 -5 3 -4 4 -4 3 -4 4 -4 4 -3 5 -3 4 -3 5 -3 5 -2 5 -2 6 -1 6 -1 6 -1 6 0 0 0zm35 25l-35 0 0 -25 35 0 0 0 0 25zm88 74l-24 0 0 0 -1 -4 0 -4 0 -4 0 -4 -1 -3 -1 -4 0 -3 -1 -4 -1 -3 -1 -3 -2 -3 -1 -3 -1 -3 -2 -3 -2 -2 -1 -3 -2 -2 -2 -2 -3 -2 -2 -2 -2 -2 -3 -2 -3 -1 -2 -2 -3 -1 -4 -1 -3 -1 -4 -1 -3 -1 -4 0 -5 -1 -4 0 0 -25 6 0 5 0 5 1 5 1 5 1 5 2 4 1 4 2 5 2 4 2 3 3 4 3 3 3 4 3 3 3 2 3 3 4 2 4 3 4 2 3 2 5 1 4 2 4 1 4 1 5 1 4 1 4 1 5 0 5 1 4 0 5 0 5 0 0zm-24 266l0 -266 24 0 0 266 0 0 -24 0zm372 -357l0 25 12 -11 0 1 0 3 -1 5 0 6 -1 8 -2 10 -1 11 -1 12 -2 13 -1 14 -2 15 -2 15 -2 17 -2 16 -2 17 -2 18 -2 17 -2 18 -2 17 -2 18 -2 16 -2 17 -2 16 -2 15 -1 14 -2 14 -1 12 -2 11 -1 10 -1 8 0 7 -1 5 -24 -3 0 -5 1 -7 1 -8 1 -10 2 -11 1 -12 2 -14 1 -14 2 -15 2 -16 2 -17 2 -16 2 -18 2 -17 2 -18 2 -17 2 -18 2 -17 2 -16 2 -17 2 -15 2 -15 1 -14 2 -13 1 -12 1 -11 1 -10 1 -8 1 -6 1 -5 0 -3 0 -1 12 -11zm-12 11l1 -11 11 0 -12 11zm150 14l-138 0 0 -25 138 0 12 13 -12 12zm0 -25l12 0 0 13 -12 -13zm-12 483l0 -470 24 0 0 470 0 0 -24 0zm50 25l0 25 0 0 -3 0 -3 0 -3 -1 -3 0 -2 -1 -3 0 -3 -1 -2 -1 -2 -1 -3 -1 -2 -2 -2 -1 -2 -2 -2 -1 -2 -2 -1 -2 -2 -2 -1 -1 -2 -2 -1 -3 -1 -2 -1 -2 -1 -2 0 -2 -1 -2 -1 -3 0 -2 -1 -2 0 -2 0 -3 0 -2 0 -2 24 0 0 1 0 1 0 2 0 1 1 1 0 1 0 2 1 1 0 1 0 1 1 1 0 1 1 1 0 1 1 0 1 1 0 1 1 1 1 0 1 1 1 1 1 0 1 1 1 0 1 1 2 0 1 1 2 0 1 0 2 0 2 1 2 0 0 0zm24 -25l24 0 0 0 0 2 0 2 0 2 -1 3 0 2 0 2 -1 3 -1 2 0 2 -1 2 -1 2 -1 2 -1 2 -2 2 -1 2 -2 2 -1 2 -2 2 -2 1 -2 2 -2 1 -2 2 -2 1 -2 1 -3 1 -2 1 -3 0 -2 1 -3 0 -3 1 -2 0 -3 0 0 -25 1 0 2 -1 2 0 1 0 2 0 1 -1 1 0 1 -1 1 0 1 -1 1 0 1 -1 1 0 1 -1 0 -1 1 -1 1 0 0 -1 1 -1 0 -1 1 -1 0 -1 1 -1 0 -1 1 -1 0 -2 0 -1 0 -1 1 -1 0 -2 0 -1 0 -1 0 0zm24 -506l0 506 -24 0 0 -506 0 0 24 0zm-48 -25l0 -26 0 0 3 1 2 0 3 0 3 0 2 1 3 1 2 1 3 1 2 1 2 1 2 1 2 2 2 1 2 2 2 1 1 2 2 2 1 2 2 2 1 2 1 2 1 2 1 2 0 3 1 2 1 2 0 2 0 3 1 2 0 2 0 2 0 3 -24 0 0 -2 0 -1 0 -1 -1 -2 0 -1 0 -1 0 -1 -1 -1 0 -2 -1 -1 0 -1 -1 -1 0 -1 -1 0 0 -1 -1 -1 -1 -1 0 -1 -1 0 -1 -1 -1 0 -1 -1 -1 -1 -1 0 -1 -1 -1 0 -1 0 -2 -1 -1 0 -2 0 -2 0 -1 0 0 0zm-206 -26l206 0 0 26 -206 0 0 0 0 -26zm-25 52l-25 -3 0 0 1 -2 0 -3 1 -2 0 -2 1 -3 0 -2 1 -2 1 -2 1 -3 1 -2 1 -2 1 -2 2 -2 1 -2 2 -1 1 -2 2 -2 2 -2 1 -1 2 -1 2 -2 2 -1 2 -1 3 -1 2 -1 2 -1 3 0 2 -1 3 0 2 0 3 0 2 -1 0 26 -1 0 -2 0 -1 0 -2 0 -1 1 -1 0 -1 0 -1 1 -1 0 -1 1 -1 0 -1 1 -1 0 -1 1 -1 1 -1 1 0 0 -1 1 -1 1 0 1 -1 1 0 1 -1 1 -1 2 0 1 0 1 -1 1 0 2 -1 1 0 2 0 2 0 1 0 0zm-25 -3l1 0 -1 0 0 0zm-24 417l-24 -4 0 0 0 -3 1 -6 1 -7 1 -9 1 -11 1 -11 2 -13 2 -14 1 -15 2 -16 2 -16 2 -17 2 -17 2 -18 3 -18 2 -18 2 -18 2 -18 2 -18 2 -17 2 -17 2 -16 2 -15 1 -15 2 -13 1 -13 2 -11 1 -9 1 -9 1 -7 0 -4 0 -4 25 3 -1 3 0 5 -1 7 -1 9 -1 9 -1 12 -2 12 -1 13 -2 15 -2 15 -2 16 -2 17 -2 17 -2 18 -2 18 -2 18 -2 18 -2 18 -3 18 -2 17 -2 17 -2 16 -1 16 -2 15 -2 14 -1 13 -2 11 -1 11 -1 9 -1 7 -1 6 0 4 0 0zm0 0l0 0 0 1 0 -1zm-11 43l-21 -12 0 0 0 -1 0 0 1 -1 0 0 0 -1 1 0 0 -1 0 -1 0 -1 1 -1 0 0 0 -1 0 -1 1 -1 0 -1 0 -1 0 -1 1 -1 0 -2 0 -1 0 -1 1 -1 0 -2 0 -1 0 -1 0 -2 1 -1 0 -2 0 -2 0 -1 1 -2 0 -2 24 4 0 2 -1 1 0 2 0 2 0 1 -1 2 0 2 0 1 0 2 -1 1 0 2 0 1 0 2 -1 1 0 1 0 2 -1 1 0 1 0 2 -1 1 0 1 0 1 -1 2 0 1 -1 1 0 1 0 1 -1 1 0 2 -1 1 -1 1 0 1 0 -1zm-21 -12l0 0 0 0 0 0zm-34 39l0 -26 0 0 2 0 2 0 2 0 2 0 1 0 2 0 2 0 1 0 2 -1 1 0 1 0 1 0 1 -1 1 0 2 0 0 -1 1 0 1 -1 1 0 1 0 0 -1 1 0 1 -1 0 0 1 -1 0 -1 1 0 0 -1 1 -1 1 -1 0 -1 1 -1 21 12 -1 2 -1 2 -1 2 -1 1 -1 2 -2 2 -1 1 -1 1 -2 2 -1 1 -2 1 -2 1 -1 1 -2 1 -2 1 -2 1 -1 1 -2 0 -2 1 -2 0 -2 1 -2 0 -2 0 -2 1 -2 0 -2 0 -2 0 -2 0 -2 1 -2 0 -2 0 -3 0 0 0zm-24 26l-24 0 0 0 0 -3 0 -3 0 -3 1 -3 0 -3 1 -2 1 -3 1 -2 1 -3 1 -2 1 -2 2 -2 1 -2 2 -2 1 -2 2 -2 2 -2 2 -1 1 -1 2 -2 2 -1 2 -1 3 -1 2 -1 2 0 2 -1 2 0 2 -1 3 0 2 0 2 -1 2 0 0 26 -1 0 -1 0 -2 0 -1 0 -1 0 -1 1 -1 0 -1 0 -1 1 -1 0 -1 1 -1 0 -1 1 -1 0 -1 1 -1 1 0 1 -1 0 -1 1 0 1 -1 1 -1 1 0 1 -1 1 0 2 -1 1 0 1 0 2 0 1 -1 2 0 2 0 2 0 0zm24 24l0 25 0 0 -2 0 -2 0 -2 0 -2 -1 -2 0 -2 0 -3 -1 -2 0 -2 -1 -2 -1 -2 -1 -2 -1 -2 -1 -2 -1 -2 -1 -2 -2 -1 -1 -2 -2 -2 -2 -1 -2 -2 -2 -1 -2 -1 -3 -1 -2 -1 -3 -1 -2 -1 -3 0 -3 -1 -2 0 -3 0 -3 0 -3 24 0 0 2 0 1 1 2 0 2 0 1 0 2 1 1 0 1 1 1 0 1 1 1 0 1 1 1 1 0 0 1 1 1 1 0 0 1 1 0 1 1 1 0 1 1 1 0 1 0 1 1 1 0 2 0 1 0 1 0 1 1 2 0 1 0 0 0zm101 -56l23 9 0 0 -2 4 -1 4 -2 4 -2 4 -2 4 -2 4 -3 3 -2 4 -3 3 -3 3 -3 3 -3 3 -3 3 -3 3 -4 2 -3 3 -4 2 -4 2 -5 2 -4 2 -4 1 -5 2 -5 1 -5 2 -5 1 -5 0 -6 1 -6 1 -6 0 -6 1 -6 0 -7 0 0 -25 6 0 6 -1 6 0 5 0 5 -1 5 -1 5 0 4 -1 4 -1 4 -1 4 -2 4 -1 3 -1 3 -2 3 -1 3 -2 3 -2 2 -2 3 -2 2 -2 3 -2 2 -2 2 -3 2 -2 2 -3 1 -2 2 -3 2 -3 1 -3 2 -3 1 -4 2 -3 -1 0zm23 9l0 0 0 0 0 0zm-12 -58l24 3 0 0 0 2 -1 2 0 2 0 2 0 2 -1 2 0 2 0 2 0 2 -1 1 0 2 0 2 -1 2 0 1 0 2 -1 2 0 1 0 2 -1 2 0 1 -1 2 0 1 0 2 -1 1 0 2 -1 2 0 1 -1 2 0 1 -1 2 0 1 -1 2 -23 -9 1 -1 0 -2 1 -1 0 -1 1 -2 0 -1 0 -1 1 -2 0 -1 1 -1 0 -2 0 -1 1 -2 0 -1 0 -1 1 -2 0 -1 0 -2 1 -1 0 -2 0 -1 0 -2 1 -2 0 -1 0 -2 0 -2 1 -1 0 -2 0 -2 0 -2 1 -2 0 -2 0 0zm0 0l0 0 0 0 0 0zm580 -407l0 25 12 -11 0 1 0 3 -1 5 -1 6 -1 8 -1 10 -1 11 -1 12 -2 13 -1 14 -2 15 -2 15 -2 17 -2 16 -2 17 -2 18 -2 17 -2 18 -2 17 -2 18 -2 16 -2 17 -2 16 -2 15 -1 14 -2 14 -1 12 -2 11 -1 10 -1 8 -1 7 0 5 -24 -3 0 -5 1 -7 1 -8 1 -10 2 -11 1 -12 2 -14 1 -14 2 -15 2 -16 2 -17 2 -16 2 -18 2 -17 2 -18 2 -17 2 -18 2 -17 2 -16 2 -17 2 -15 1 -15 2 -14 2 -13 1 -12 1 -11 1 -10 1 -8 1 -6 1 -5 0 -3 0 -1 12 -11zm-12 11l1 -11 11 0 -12 11zm150 14l-138 0 0 -25 138 0 12 13 -12 12zm0 -25l12 0 0 13 -12 -13zm-12 483l0 -470 24 0 0 470 0 0 -24 0zm50 25l0 25 0 0 -3 0 -3 0 -3 -1 -3 0 -3 -1 -2 0 -3 -1 -2 -1 -2 -1 -3 -1 -2 -2 -2 -1 -2 -2 -2 -1 -2 -2 -1 -2 -2 -2 -1 -1 -2 -2 -1 -3 -1 -2 -1 -2 -1 -2 -1 -2 0 -2 -1 -3 0 -2 -1 -2 0 -2 0 -3 0 -2 0 -2 24 0 0 1 0 1 0 2 0 1 1 1 0 1 0 2 0 1 1 1 0 1 1 1 0 1 1 1 0 1 1 0 1 1 0 1 1 1 1 0 1 1 1 1 1 0 1 1 1 0 1 1 1 0 2 1 1 0 2 0 2 0 2 1 2 0 0 0zm24 -25l24 0 0 0 0 2 0 2 0 2 -1 3 0 2 -1 2 0 3 -1 2 -1 2 0 2 -1 2 -1 2 -2 2 -1 2 -1 2 -2 2 -1 2 -2 2 -2 1 -2 2 -2 1 -2 2 -2 1 -2 1 -3 1 -2 1 -3 0 -2 1 -3 0 -3 1 -3 0 -2 0 0 -25 1 0 2 -1 2 0 1 0 2 0 1 -1 1 0 1 -1 1 0 1 -1 1 0 1 -1 1 0 1 -1 0 -1 1 -1 1 0 0 -1 1 -1 0 -1 1 -1 0 -1 1 -1 0 -1 0 -1 1 -2 0 -1 0 -1 0 -1 1 -2 0 -1 0 -1 0 0zm24 -506l0 506 -24 0 0 -506 0 0 24 0zm-48 -25l0 -26 0 0 2 1 3 0 3 0 3 0 2 1 3 1 2 1 3 1 2 1 2 1 2 1 2 2 2 1 2 2 2 1 1 2 2 2 1 2 1 2 2 2 1 2 1 2 0 2 1 3 1 2 0 2 1 2 0 3 1 2 0 2 0 2 0 3 -24 0 0 -2 0 -1 -1 -1 0 -2 0 -1 0 -1 -1 -1 0 -1 0 -2 -1 -1 0 -1 -1 -1 0 0 -1 -1 0 -1 -1 -1 -1 -1 0 -1 -1 0 -1 -1 -1 0 -1 -1 -1 -1 -1 0 -1 -1 -1 0 -1 0 -2 -1 -1 0 -2 0 -2 0 -1 0 0 0zm-206 -26l206 0 0 26 -206 0 0 0 0 -26zm-25 52l-25 -3 0 0 1 -2 0 -3 0 -2 1 -2 1 -3 0 -2 1 -2 1 -2 1 -3 1 -2 1 -2 1 -2 2 -2 1 -2 1 -1 2 -2 2 -2 1 -2 2 -1 2 -1 2 -2 2 -1 2 -1 3 -1 2 -1 2 -1 3 0 2 -1 3 0 2 0 3 0 2 -1 0 26 -1 0 -2 0 -1 0 -2 0 -1 1 -1 0 -1 0 -2 1 -1 0 -1 1 -1 0 0 1 -1 0 -1 1 -1 1 -1 1 0 0 -1 1 -1 1 0 1 -1 1 -1 1 0 1 -1 2 0 1 -1 1 0 1 0 2 -1 1 0 2 0 2 0 1 0 0zm-25 -3l0 1 0 -1 0 0zm-24 417l-24 -4 0 0 0 -3 1 -6 1 -7 1 -9 1 -11 1 -11 2 -13 2 -14 1 -15 2 -16 2 -16 2 -17 2 -17 2 -18 2 -18 3 -18 2 -18 2 -18 2 -18 2 -17 2 -17 2 -16 2 -15 1 -15 2 -13 1 -13 2 -11 1 -9 1 -9 0 -7 1 -5 0 -3 25 3 -1 3 0 5 -1 7 -1 9 -1 9 -2 12 -1 12 -2 13 -1 15 -2 15 -2 16 -2 17 -2 17 -2 18 -2 18 -2 18 -2 18 -3 18 -2 18 -2 17 -2 17 -2 16 -2 16 -1 15 -2 14 -2 13 -1 11 -1 11 -1 9 -1 7 -1 6 0 4 0 0zm0 0l0 0 0 1 0 -1zm-11 43l-22 -12 1 0 0 -1 0 0 1 -1 0 0 0 -1 0 0 1 -1 0 -1 0 -1 0 -1 1 0 0 -1 0 -1 1 -1 0 -1 0 -1 0 -1 0 -1 1 -2 0 -1 0 -1 0 -1 1 -2 0 -1 0 -1 0 -2 1 -1 0 -2 0 -2 0 -1 0 -2 1 -2 24 4 -1 2 0 1 0 2 0 2 0 1 -1 2 0 2 0 1 0 2 -1 1 0 2 0 1 0 2 -1 1 0 1 0 2 -1 1 0 1 0 2 -1 1 0 1 0 1 -1 2 0 1 -1 1 0 1 -1 1 0 1 -1 2 0 1 -1 1 0 1 0 -1zm-22 -12l1 0 0 0 -1 0zm-33 39l0 -26 0 0 2 0 2 0 2 0 2 0 1 0 2 0 2 0 1 0 1 -1 2 0 1 0 1 0 1 -1 1 0 1 0 1 -1 1 0 1 -1 1 0 0 0 1 -1 1 0 0 -1 1 0 1 -1 0 -1 1 0 0 -1 1 -1 0 -1 1 -1 0 -1 22 12 -1 2 -1 2 -1 2 -1 1 -2 2 -1 2 -1 1 -2 1 -1 2 -2 1 -1 1 -2 1 -1 1 -2 1 -2 1 -2 1 -2 1 -1 0 -2 1 -2 0 -2 1 -2 0 -2 0 -2 1 -2 0 -2 0 -2 0 -2 0 -2 1 -2 0 -3 0 -2 0 0 0zm-24 26l-24 0 0 0 0 -3 0 -3 0 -3 1 -3 0 -3 1 -2 1 -3 1 -2 1 -3 1 -2 1 -2 1 -2 2 -2 1 -2 2 -2 2 -2 2 -2 1 -1 2 -1 2 -2 2 -1 2 -1 2 -1 3 -1 2 0 2 -1 2 0 2 -1 2 0 3 0 2 -1 2 0 0 26 -1 0 -1 0 -2 0 -1 0 -1 0 -1 1 -1 0 -1 0 -1 1 -2 0 0 1 -1 0 -1 1 -1 0 -1 1 -1 1 -1 1 0 0 -1 1 -1 1 0 1 -1 1 0 1 -1 1 0 2 -1 1 0 1 0 2 -1 1 0 2 0 2 0 2 0 0zm24 24l0 25 0 0 -2 0 -2 0 -2 0 -2 -1 -2 0 -3 0 -2 -1 -2 0 -2 -1 -2 -1 -2 -1 -2 -1 -2 -1 -2 -1 -2 -1 -2 -2 -2 -1 -1 -2 -2 -2 -1 -2 -2 -2 -1 -2 -1 -3 -1 -2 -1 -3 -1 -2 -1 -3 0 -3 -1 -2 0 -3 0 -3 0 -3 24 0 0 2 0 1 0 2 1 2 0 1 0 2 1 1 0 1 1 1 0 1 1 1 0 1 1 1 0 0 1 1 1 1 0 0 1 1 1 0 1 1 1 0 1 1 1 0 1 0 1 1 1 0 1 0 2 0 1 0 1 1 2 0 1 0 0 0zm101 -56l23 9 0 0 -2 4 -1 4 -2 4 -2 4 -2 4 -3 4 -2 3 -2 4 -3 3 -3 3 -3 3 -3 3 -3 3 -3 3 -4 2 -4 3 -3 2 -5 2 -4 2 -4 2 -5 1 -4 2 -5 1 -5 2 -5 1 -6 0 -5 1 -6 1 -6 0 -6 1 -6 0 -7 0 0 -25 6 0 6 -1 6 0 5 0 5 -1 5 -1 4 0 5 -1 4 -1 4 -1 4 -2 3 -1 4 -1 3 -2 3 -1 3 -2 3 -2 2 -2 3 -2 2 -2 2 -2 3 -2 2 -3 2 -2 1 -3 2 -2 2 -3 2 -3 1 -3 2 -3 1 -4 1 -3 0 0zm23 9l0 0 0 0 0 0zm-12 -58l24 3 0 0 0 2 -1 2 0 2 0 2 0 2 -1 2 0 2 0 2 -1 2 0 1 0 2 0 2 -1 2 0 1 0 2 -1 2 0 1 0 2 -1 2 0 1 -1 2 0 1 0 2 -1 1 0 2 -1 2 0 1 -1 2 0 1 -1 2 0 1 -1 2 -23 -9 1 -1 0 -2 1 -1 0 -1 1 -2 0 -1 0 -1 1 -2 0 -1 0 -1 1 -2 0 -1 1 -2 0 -1 0 -1 1 -2 0 -1 0 -2 0 -1 1 -2 0 -1 0 -2 0 -2 1 -1 0 -2 0 -2 0 -1 1 -2 0 -2 0 -2 0 -2 1 -2 0 0zm0 0l0 0 0 0 0 0zm735 68l25 0 0 0 0 3 0 3 -1 3 0 3 -1 2 0 3 -1 2 -1 3 -1 2 -1 2 -1 3 -2 2 -1 2 -2 2 -1 1 -2 2 -2 1 -1 2 -2 1 -2 1 -2 1 -2 1 -2 1 -2 1 -2 1 -2 0 -2 1 -3 0 -2 0 -2 1 -2 0 -2 0 0 -26 1 0 1 0 2 0 1 0 1 0 1 0 1 -1 1 0 1 0 1 -1 1 0 1 -1 1 0 1 -1 0 0 1 -1 1 -1 0 0 1 -1 0 -1 1 -1 1 -1 0 -1 0 -1 1 -1 0 -1 1 -1 0 -2 0 -1 0 -2 0 -2 0 -2 0 0zm-22 -24l0 -25 0 0 2 0 2 0 3 0 2 0 2 1 2 0 2 1 2 1 2 1 2 1 2 1 2 1 2 1 2 1 2 2 1 1 2 2 2 2 1 2 1 2 2 2 1 2 1 2 1 2 1 3 1 2 0 3 1 2 0 3 1 3 0 2 0 3 -25 0 0 -1 0 -2 0 -2 0 -1 0 -1 -1 -2 0 -1 -1 -1 0 -1 0 -1 -1 -1 -1 -1 0 -1 -1 -1 0 0 -1 -1 -1 -1 -1 0 0 -1 -1 -1 -1 0 -1 -1 -1 0 -1 0 -1 -1 -1 0 -1 0 -1 -1 -2 0 -1 0 -1 0 -1 0 0 0zm-216 -25l216 0 0 25 -216 0 -12 -13 12 -12zm0 25l-12 0 0 -13 12 13zm13 -197l0 184 -25 0 0 -184 12 -12 13 12zm-25 0l0 -12 12 0 -12 12zm190 13l-178 0 0 -25 178 0 0 0 0 25zm23 -50l24 0 0 0 0 3 0 3 -1 3 0 3 0 2 -1 3 -1 3 -1 2 -1 2 -1 3 -1 2 -1 2 -2 2 -1 2 -2 1 -2 2 -1 2 -2 1 -2 1 -2 2 -2 1 -2 1 -2 0 -2 1 -2 1 -2 0 -2 1 -2 0 -2 1 -3 0 -2 0 -2 0 0 -25 1 0 2 -1 1 0 1 0 1 0 1 0 1 -1 1 0 1 0 1 -1 1 0 1 -1 1 0 1 -1 0 0 1 -1 1 0 1 -1 0 -1 1 -1 0 -1 1 -1 0 -1 1 -1 0 -1 1 -1 0 -1 0 -2 0 -1 1 -2 0 -2 0 -2 0 0zm-23 -24l0 -25 0 0 2 0 3 0 2 0 2 1 2 0 2 1 2 0 2 1 2 1 2 1 2 1 2 1 2 1 2 1 2 2 2 1 1 2 2 2 1 2 2 2 1 2 1 2 1 2 1 2 1 3 1 2 1 3 0 2 0 3 1 3 0 3 0 2 -24 0 0 -1 0 -2 -1 -1 0 -2 0 -1 0 -2 -1 -1 0 -1 -1 -1 0 -1 -1 -1 0 -1 -1 -1 -1 0 0 -1 -1 -1 -1 -1 0 0 -1 -1 -1 0 -1 -1 -1 0 -1 -1 -1 0 -1 -1 -1 0 -1 0 -1 0 -1 -1 -1 0 -2 0 -1 0 0 0zm-178 -25l178 0 0 25 -178 0 -12 -12 12 -13zm0 25l-12 0 0 -12 12 12zm13 -180l0 168 -25 0 0 -168 12 -13 13 13zm-25 0l0 -13 12 0 -12 13zm228 12l-216 0 0 -25 216 0 0 0 0 25zm22 -49l25 0 0 0 0 3 0 3 -1 3 0 2 -1 3 0 3 -1 2 -1 3 -1 2 -1 2 -1 2 -2 2 -1 2 -2 2 -1 2 -2 2 -2 1 -1 2 -2 1 -2 1 -2 1 -2 1 -2 1 -2 1 -2 0 -2 1 -2 0 -3 1 -2 0 -2 0 -2 0 -2 0 0 -25 1 0 1 0 2 0 1 0 1 0 1 -1 1 0 1 0 1 -1 1 0 1 -1 1 0 1 -1 1 0 0 -1 1 0 1 -1 0 -1 1 0 0 -1 1 -1 1 -1 0 -1 0 -1 1 -1 0 -1 1 -2 0 -1 0 -2 0 -1 0 -2 0 -2 0 0zm-22 -24l0 -26 0 0 2 0 2 1 3 0 2 0 2 1 2 0 2 1 2 0 2 1 2 1 2 1 2 1 2 2 2 1 2 1 1 2 2 2 2 1 1 2 1 2 2 2 1 2 1 3 1 2 1 2 1 3 0 2 1 3 0 3 1 2 0 3 0 3 -25 0 0 -2 0 -1 0 -2 0 -1 0 -2 -1 -1 0 -1 -1 -1 0 -1 0 -1 -1 -1 -1 -1 0 -1 -1 -1 0 -1 -1 0 -1 -1 -1 -1 0 0 -1 -1 -1 0 -1 -1 -1 0 -1 -1 -1 0 -1 0 -1 -1 -1 0 -2 0 -1 0 -1 0 -1 0 0 0zm-253 -26l253 0 0 26 -253 0 0 0 0 -26zm-24 51l-25 0 0 0 0 -3 0 -2 1 -2 0 -2 0 -3 1 -2 0 -2 1 -2 1 -3 1 -2 1 -2 1 -2 1 -2 1 -2 1 -2 2 -2 2 -2 1 -1 2 -2 2 -1 2 -2 2 -1 2 -1 3 -1 2 -1 2 -1 3 -1 3 -1 2 0 3 0 3 0 3 -1 0 26 -2 0 -2 0 -1 0 -2 0 -1 1 -2 0 -1 0 -1 1 -1 0 -1 1 -1 1 -1 0 -1 1 0 0 -1 1 -1 1 0 1 -1 1 -1 1 0 0 -1 1 0 1 -1 1 0 2 0 1 -1 1 0 1 0 1 0 2 0 1 0 1 0 2 0 0zm-25 497l0 -497 25 0 0 497 0 0 -25 0zm49 25l0 26 0 0 -3 0 -3 -1 -3 0 -2 0 -3 -1 -3 -1 -2 0 -2 -1 -3 -1 -2 -2 -2 -1 -2 -1 -2 -2 -2 -2 -1 -1 -2 -2 -2 -2 -1 -2 -1 -2 -1 -2 -1 -2 -1 -2 -1 -2 -1 -2 -1 -3 0 -2 -1 -2 0 -2 0 -3 -1 -2 0 -2 0 -3 25 0 0 2 0 1 0 1 0 2 0 1 0 1 1 1 0 2 0 1 1 1 0 1 1 1 0 1 1 1 1 0 0 1 1 1 1 1 0 0 1 1 1 1 1 0 1 1 1 0 1 1 1 0 2 0 1 1 2 0 1 0 2 0 2 0 0 0zm253 26l-253 0 0 -26 253 0 0 0 0 26zm322 -42l24 0 0 0 0 2 0 2 0 2 -1 3 0 2 -1 2 0 3 -1 2 -1 2 0 2 -1 2 -2 2 -1 2 -1 2 -1 2 -2 2 -2 2 -1 2 -2 1 -2 2 -2 1 -2 2 -3 1 -2 1 -2 1 -3 1 -2 0 -3 1 -3 0 -2 1 -3 0 -3 0 0 -25 2 0 1 -1 2 0 2 0 1 0 2 -1 1 0 1 -1 1 0 1 -1 1 0 1 -1 1 -1 1 0 0 -1 1 -1 1 0 0 -1 1 -1 0 -1 1 -1 0 -1 1 -1 0 -1 0 -1 1 -2 0 -1 0 -1 0 -1 1 -2 0 -1 0 -1 0 0zm24 -470l0 470 -24 0 0 -470 12 -13 12 13zm-24 0l0 -13 12 0 -12 13zm127 12l-115 0 0 -25 115 0 0 0 0 25zm22 -49l24 0 0 0 0 3 0 3 0 3 0 2 -1 3 -1 3 0 2 -1 3 -1 2 -1 2 -2 2 -1 2 -1 2 -2 2 -1 2 -2 2 -2 1 -2 2 -2 1 -1 1 -2 1 -2 1 -2 1 -2 1 -3 0 -2 1 -2 0 -2 1 -2 0 -2 0 -2 0 -2 0 0 -25 1 0 1 0 1 0 2 0 1 0 1 -1 1 0 1 0 1 -1 1 0 1 -1 1 0 0 -1 1 0 1 -1 1 0 0 -1 1 -1 1 0 0 -1 1 -1 0 -1 1 -1 0 -1 1 -1 0 -1 0 -2 1 -1 0 -2 0 -1 0 -2 0 -2 0 0zm-22 -24l0 -26 0 0 2 0 2 1 2 0 2 0 2 1 3 0 2 1 2 0 2 1 2 1 2 1 2 1 2 2 2 1 1 1 2 2 2 2 1 1 2 2 1 2 1 2 2 2 1 3 1 2 1 2 0 3 1 2 0 3 1 3 0 2 0 3 0 3 -24 0 0 -2 0 -1 0 -2 0 -1 -1 -2 0 -1 0 -1 -1 -1 0 -1 -1 -1 0 -1 -1 -1 0 -1 -1 -1 -1 -1 0 0 -1 -1 -1 -1 -1 0 -1 -1 -1 0 0 -1 -1 0 -1 -1 -1 0 -1 0 -2 -1 -1 0 -1 0 -1 0 -1 0 -1 0 0 0zm-304 -26l304 0 0 26 -304 0 0 0 0 -26zm-23 50l-24 0 0 0 0 -3 0 -3 1 -2 0 -3 1 -3 0 -2 1 -3 1 -2 1 -2 1 -3 1 -2 2 -2 1 -2 1 -2 2 -1 2 -2 1 -2 2 -1 2 -1 2 -2 2 -1 2 -1 2 -1 2 -1 2 0 2 -1 2 0 2 -1 2 0 3 0 2 -1 2 0 0 26 -1 0 -1 0 -2 0 -1 0 -1 0 -1 1 -1 0 -1 0 -1 1 -1 0 -1 1 -1 0 -1 1 0 0 -1 1 -1 1 -1 0 0 1 -1 1 -1 1 0 1 -1 1 0 1 -1 1 0 1 0 1 -1 1 0 2 0 1 0 2 0 1 -1 2 0 0zm23 24l0 25 0 0 -2 0 -2 0 -2 0 -3 0 -2 -1 -2 0 -2 -1 -2 0 -2 -1 -2 -1 -2 -1 -2 -1 -2 -1 -2 -1 -1 -2 -2 -1 -2 -2 -1 -2 -2 -2 -1 -2 -2 -2 -1 -2 -1 -2 -1 -2 -1 -3 -1 -2 0 -3 -1 -3 0 -2 -1 -3 0 -3 0 -3 24 0 1 2 0 2 0 1 0 2 0 1 1 2 0 1 0 1 1 1 0 1 1 1 0 1 1 1 1 0 0 1 1 1 1 0 0 1 1 0 1 1 1 0 1 1 1 0 1 1 1 0 1 0 1 1 1 0 1 0 1 0 2 0 1 0 0 0zm115 25l-115 0 0 -25 115 0 12 13 -12 12zm0 -25l12 0 0 13 -12 -13zm-12 483l0 -470 24 0 0 470 0 0 -24 0zm49 25l0 25 0 0 -3 0 -3 0 -3 -1 -2 0 -3 -1 -3 0 -2 -1 -3 -1 -2 -1 -2 -1 -2 -2 -2 -1 -2 -2 -2 -1 -2 -2 -1 -2 -2 -2 -1 -2 -2 -2 -1 -2 -1 -2 -1 -2 -1 -2 -1 -2 0 -2 -1 -3 0 -2 -1 -2 0 -3 0 -2 0 -2 0 -2 24 0 0 1 0 1 0 2 0 1 1 1 0 1 0 2 0 1 1 1 0 1 1 1 0 1 1 1 0 1 1 1 1 0 0 1 1 1 1 1 1 0 1 1 1 0 1 1 1 0 1 1 1 0 2 1 1 0 2 0 1 0 2 1 2 0 0 0zm602 -33l24 0 0 0 0 3 0 3 -1 3 0 3 -1 2 0 3 -1 2 -1 3 -1 2 -1 2 -1 3 -1 2 -2 2 -1 2 -2 1 -2 2 -1 1 -2 2 -2 1 -2 1 -2 1 -2 1 -2 1 -2 1 -2 1 -2 0 -2 1 -2 0 -2 0 -3 1 -2 0 -2 0 0 -26 1 0 2 0 1 0 1 0 1 0 1 0 1 -1 1 0 1 0 1 -1 1 0 1 -1 1 0 1 -1 0 0 1 -1 1 -1 0 0 1 -1 1 -1 0 -1 1 -1 0 -1 1 -1 0 -1 0 -1 1 -1 0 -2 0 -1 0 -2 1 -2 0 -2 0 0zm-23 -24l0 -25 0 0 2 0 2 0 3 0 2 0 2 1 2 0 2 1 2 1 2 1 2 1 2 1 2 1 2 1 2 1 2 2 2 1 1 2 2 2 1 2 2 2 1 2 1 2 1 2 1 2 1 3 1 2 0 3 1 2 0 3 1 3 0 2 0 3 -24 0 0 -1 -1 -2 0 -2 0 -1 0 -1 -1 -2 0 -1 0 -1 -1 -1 0 -1 -1 -1 0 -1 -1 -1 -1 -1 0 0 -1 -1 -1 -1 -1 0 0 -1 -1 -1 -1 0 -1 -1 -1 0 -1 0 -1 -1 -1 0 -1 0 -1 -1 -1 0 -1 0 -2 0 -1 0 0 0zm-215 -25l215 0 0 25 -215 0 -13 -13 13 -12zm0 25l-13 0 0 -13 13 13zm12 -197l0 184 -25 0 0 -184 13 -12 12 12zm-25 0l0 -12 13 0 -13 12zm190 13l-177 0 0 -25 177 0 0 0 0 25zm23 -50l24 0 0 0 0 3 0 3 0 3 -1 3 0 2 -1 3 -1 3 -1 2 -1 2 -1 3 -1 2 -1 2 -2 2 -1 2 -2 1 -1 2 -2 2 -2 1 -2 1 -2 2 -2 1 -2 1 -2 0 -2 1 -2 1 -2 0 -2 1 -2 0 -2 1 -2 0 -2 0 -3 0 0 -25 2 0 1 -1 1 0 1 0 1 0 1 0 2 -1 1 0 1 0 1 -1 0 0 1 -1 1 0 1 -1 1 0 0 -1 1 0 1 -1 0 -1 1 -1 0 -1 1 -1 0 -1 1 -1 0 -1 1 -1 0 -1 0 -2 1 -1 0 -2 0 -2 0 -2 0 0zm-23 -24l0 -25 0 0 3 0 2 0 2 0 2 1 2 0 2 1 2 0 3 1 2 1 2 1 2 1 2 1 1 1 2 1 2 2 2 1 1 2 2 2 1 2 2 2 1 2 1 2 1 2 1 2 1 3 1 2 1 3 0 2 1 3 0 3 0 3 0 2 -24 0 0 -1 0 -2 0 -1 -1 -2 0 -1 0 -2 -1 -1 0 -1 -1 -1 0 -1 -1 -1 0 -1 -1 -1 0 0 -1 -1 -1 -1 -1 -1 0 0 -1 -1 -1 0 -1 -1 -1 0 -1 -1 -1 0 -1 -1 -1 0 -1 0 -1 0 -1 -1 -1 0 -1 0 -2 0 0 0zm-177 -25l177 0 0 25 -177 0 -13 -12 13 -13zm0 25l-13 0 0 -12 13 12zm12 -180l0 168 -25 0 0 -168 13 -13 12 13zm-25 0l0 -13 13 0 -13 13zm228 12l-215 0 0 -25 215 0 0 0 0 25zm23 -49l24 0 0 0 0 3 0 3 -1 3 0 2 -1 3 0 3 -1 2 -1 3 -1 2 -1 2 -1 2 -1 2 -2 2 -1 2 -2 2 -2 2 -1 1 -2 2 -2 1 -2 1 -2 1 -2 1 -2 1 -2 1 -2 0 -2 1 -2 0 -2 1 -2 0 -3 0 -2 0 -2 0 0 -25 1 0 2 0 1 0 1 0 1 0 1 -1 1 0 1 0 1 -1 1 0 1 -1 1 0 1 -1 1 0 0 -1 1 0 1 -1 0 -1 1 0 1 -1 0 -1 1 -1 0 -1 1 -1 0 -1 0 -1 1 -2 0 -1 0 -2 0 -1 1 -2 0 -2 0 0zm-23 -24l0 -26 0 0 2 0 2 1 3 0 2 0 2 1 2 0 2 1 2 0 2 1 2 1 2 1 2 1 2 2 2 1 2 1 1 2 2 2 2 1 1 2 2 2 1 2 1 2 1 3 1 2 1 2 1 3 0 2 1 3 0 3 1 2 0 3 0 3 -24 0 0 -2 -1 -1 0 -2 0 -1 0 -2 -1 -1 0 -1 0 -1 -1 -1 0 -1 -1 -1 0 -1 -1 -1 -1 -1 0 -1 -1 0 -1 -1 -1 -1 0 0 -1 -1 -1 0 -1 -1 -1 0 -1 -1 -1 0 -1 0 -1 -1 -1 0 -1 0 -1 0 -2 0 -1 0 0 0zm-253 -26l253 0 0 26 -253 0 0 0 0 -26zm-24 51l-25 0 0 0 0 -3 1 -2 0 -2 0 -2 0 -3 1 -2 1 -2 0 -2 1 -3 1 -2 1 -2 1 -2 1 -2 1 -2 2 -2 1 -2 2 -2 1 -1 2 -2 2 -1 2 -2 2 -1 3 -1 2 -1 2 -1 3 -1 2 -1 3 -1 2 0 3 0 3 0 3 -1 0 26 -2 0 -2 0 -1 0 -2 0 -1 1 -1 0 -2 0 -1 1 -1 0 -1 1 -1 1 -1 0 0 1 -1 0 -1 1 -1 1 0 1 -1 1 0 1 -1 0 -1 1 0 1 0 1 -1 2 0 1 0 1 -1 1 0 1 0 2 0 1 0 1 0 2 0 0zm-25 497l0 -497 25 0 0 497 0 0 -25 0zm49 25l0 26 0 0 -3 0 -3 -1 -3 0 -2 0 -3 -1 -2 -1 -3 0 -2 -1 -2 -1 -3 -2 -2 -1 -2 -1 -2 -2 -2 -2 -1 -1 -2 -2 -1 -2 -2 -2 -1 -2 -1 -2 -1 -2 -1 -2 -1 -2 -1 -2 0 -3 -1 -2 -1 -2 0 -2 0 -3 0 -2 -1 -2 0 -3 25 0 0 2 0 1 0 1 0 2 0 1 1 1 0 1 0 2 1 1 0 1 0 1 1 1 1 1 0 1 1 0 0 1 1 1 1 1 1 0 0 1 1 1 1 0 1 1 1 0 1 1 2 0 1 0 1 1 2 0 1 0 2 0 2 0 0 0zm253 26l-253 0 0 -26 253 0 0 0 0 26zm475 -581l0 -26 0 0 3 0 2 1 3 0 3 0 2 1 3 1 2 0 3 1 2 1 2 2 2 1 3 1 1 2 2 1 2 2 2 2 1 2 2 2 1 2 1 2 1 2 1 2 1 2 1 2 1 2 0 3 1 2 0 2 1 3 0 2 0 2 0 3 -24 0 0 -2 0 -1 -1 -1 0 -2 0 -1 0 -1 -1 -1 0 -1 0 -2 -1 -1 0 -1 -1 -1 0 -1 -1 0 -1 -1 0 -1 -1 -1 -1 -1 -1 0 0 -1 -1 -1 -1 0 -1 -1 -1 0 -2 -1 -1 0 -1 -1 -2 0 -1 0 -2 0 -1 0 -2 0 0 0zm-25 25l-24 0 0 0 0 -3 0 -2 0 -2 0 -3 1 -2 0 -2 1 -2 0 -3 1 -2 1 -2 1 -2 1 -2 1 -2 2 -2 1 -2 2 -2 1 -2 2 -2 2 -1 2 -2 2 -1 2 -1 2 -2 2 -1 3 -1 2 0 3 -1 3 -1 2 0 3 0 3 -1 3 0 0 26 -2 0 -2 0 -2 0 -1 0 -2 1 -1 0 -1 0 -1 1 -1 0 -1 1 -1 0 -1 1 -1 1 -1 0 -1 1 0 1 -1 1 -1 0 0 1 -1 1 0 1 -1 1 0 1 -1 1 0 2 0 1 0 1 -1 1 0 2 0 1 0 1 0 2 0 0zm-24 203l0 -203 24 0 0 203 -12 13 -12 -13zm24 0l0 13 -12 0 12 -13zm-219 -12l207 0 0 25 -207 0 -12 -13 12 -12zm0 25l-12 0 0 -13 12 13zm12 -216l0 203 -24 0 0 -203 0 0 24 0zm-49 -25l0 -26 0 0 3 0 3 1 3 0 2 0 3 1 3 1 2 0 3 1 2 1 2 2 2 1 2 1 2 2 2 1 2 2 2 2 1 2 1 2 2 2 1 2 1 2 1 2 1 2 0 2 1 3 1 2 0 2 0 2 1 3 0 2 0 2 0 3 -24 0 0 -2 0 -1 0 -2 -1 -1 0 -1 0 -1 0 -2 -1 -1 0 -1 0 -1 -1 -1 0 -1 -1 -1 0 -1 -1 0 -1 -1 0 -1 -1 -1 -1 0 -1 -1 -1 -1 0 0 -2 -1 -1 0 -1 -1 -1 0 -1 0 -2 -1 -2 0 -1 0 -2 0 -2 0 0 0zm-25 25l-24 0 0 0 0 -3 0 -2 0 -2 0 -3 1 -2 0 -2 1 -3 1 -2 0 -2 1 -2 1 -2 1 -2 2 -2 1 -2 1 -2 2 -2 2 -2 1 -2 2 -1 2 -2 2 -1 2 -1 3 -2 2 -1 2 -1 3 0 2 -1 3 -1 3 0 2 0 3 -1 3 0 0 26 -2 0 -2 0 -1 0 -2 0 -1 0 -1 1 -2 0 -1 1 -1 0 -1 1 -1 0 -1 1 -1 1 -1 0 0 1 -1 1 -1 1 0 1 -1 0 -1 1 0 1 -1 1 0 1 0 2 -1 1 0 1 0 1 -1 1 0 2 0 1 0 1 0 2 0 0zm-24 514l0 -514 24 0 0 514 0 0 -24 0zm49 25l0 25 0 0 -3 0 -3 0 -2 -1 -3 0 -3 -1 -2 0 -3 -1 -2 -1 -2 -1 -3 -1 -2 -2 -2 -1 -2 -2 -2 -1 -1 -2 -2 -2 -2 -2 -1 -1 -1 -2 -2 -2 -1 -3 -1 -2 -1 -2 0 -2 -1 -2 -1 -3 0 -2 -1 -2 0 -2 0 -3 0 -2 0 -2 24 0 0 1 0 1 0 2 0 1 1 1 0 1 0 1 1 2 0 1 0 1 1 1 0 1 1 1 1 1 0 0 1 1 1 1 0 1 1 0 1 1 1 1 1 0 1 1 1 0 1 1 2 0 1 1 1 0 2 0 1 0 2 1 2 0 0 0zm25 -25l24 0 0 0 0 2 0 2 0 2 -1 3 0 2 0 2 -1 3 -1 2 0 2 -1 2 -1 2 -1 2 -2 2 -1 2 -1 2 -2 2 -1 2 -2 2 -2 1 -2 2 -2 1 -2 2 -2 1 -3 1 -2 1 -3 1 -2 0 -3 1 -3 0 -2 1 -3 0 -3 0 0 -25 2 0 2 -1 1 0 2 0 1 0 2 -1 1 0 1 -1 1 0 1 -1 1 0 1 -1 1 -1 1 0 0 -1 1 -1 1 0 0 -1 1 -1 0 -1 1 -1 0 -1 1 -1 0 -1 1 -1 0 -2 0 -1 0 -1 1 -1 0 -2 0 -1 0 -1 0 0zm24 -237l0 237 -24 0 0 -237 12 -13 12 13zm-24 0l0 -13 12 0 -12 13zm219 13l-207 0 0 -26 207 0 12 13 -12 13zm0 -26l12 0 0 13 -12 -13zm-12 250l0 -237 24 0 0 237 0 0 -24 0zm49 25l0 25 0 0 -3 0 -3 0 -3 -1 -3 0 -2 -1 -3 0 -2 -1 -3 -1 -2 -1 -2 -1 -3 -2 -2 -1 -2 -2 -1 -1 -2 -2 -2 -2 -1 -2 -2 -2 -1 -2 -1 -2 -1 -2 -1 -2 -1 -2 -1 -2 0 -3 -1 -2 0 -2 -1 -2 0 -3 0 -2 0 -2 0 -2 24 0 0 1 0 1 0 2 0 1 1 1 0 2 0 1 0 1 1 1 0 1 1 1 0 1 1 1 0 1 1 1 0 0 1 1 1 1 1 1 0 0 1 1 1 0 1 1 1 0 2 1 1 0 1 1 2 0 1 0 2 0 2 1 2 0 0 0zm25 -25l24 0 0 0 0 2 0 2 0 3 -1 2 0 2 -1 2 0 3 -1 2 -1 2 -1 2 -1 2 -1 3 -1 2 -1 2 -2 1 -1 2 -2 2 -2 2 -2 1 -1 2 -3 1 -2 2 -2 1 -2 1 -3 1 -2 1 -3 0 -2 1 -3 0 -3 1 -2 0 -3 0 0 -25 2 0 1 -1 2 0 1 0 2 0 1 -1 1 0 2 -1 1 0 1 -1 1 0 1 -1 0 -1 1 0 1 -1 1 -1 0 -1 1 0 1 -1 0 -1 1 -1 0 -1 1 -1 0 -1 0 -2 1 -1 0 -1 0 -1 0 -1 1 -2 0 -1 0 -1 0 0zm24 -514l0 514 -24 0 0 -514 0 0 24 0zm215 179l125 0 0 26 -125 0 -12 -13 12 -13zm0 26l-12 0 0 -13 12 13zm13 -205l0 192 -25 0 0 -192 0 0 25 0zm-50 -25l0 -26 0 0 3 0 3 1 3 0 3 0 2 1 3 1 2 0 3 1 2 1 2 2 2 1 3 1 1 2 2 1 2 2 2 2 1 2 2 2 1 2 1 2 1 2 1 2 1 2 1 2 0 3 1 2 0 2 1 2 0 3 0 2 1 2 0 3 -25 0 0 -2 0 -1 0 -1 0 -2 0 -1 -1 -1 0 -1 0 -2 -1 -1 0 -1 -1 -1 0 -1 -1 -1 0 -1 -1 0 0 -1 -1 -1 -1 -1 -1 0 0 -1 -1 -1 -1 0 -1 -1 -1 0 -2 -1 -1 0 -1 0 -2 -1 -1 0 -2 0 -2 0 -2 0 0 0zm-24 25l-25 0 0 0 0 -3 0 -2 1 -2 0 -3 0 -2 1 -2 0 -2 1 -3 1 -2 1 -2 1 -2 1 -2 1 -2 1 -2 2 -2 1 -2 2 -2 2 -2 1 -1 2 -2 2 -1 3 -1 2 -2 2 -1 2 -1 3 0 3 -1 2 -1 3 0 3 0 2 -1 3 0 0 26 -1 0 -2 0 -2 0 -1 0 -2 1 -1 0 -2 0 -1 1 -1 0 -1 1 -1 0 -1 1 -1 1 0 0 -1 1 -1 1 0 1 -1 0 -1 1 0 1 -1 1 0 1 -1 1 0 1 0 2 -1 1 0 1 0 1 0 2 0 1 0 1 0 2 0 0zm-25 505l0 -505 25 0 0 505 0 0 -25 0zm50 25l0 26 0 0 -3 0 -3 -1 -2 0 -3 0 -3 -1 -2 -1 -3 0 -3 -1 -2 -1 -2 -2 -2 -1 -2 -1 -2 -2 -2 -1 -2 -2 -2 -2 -1 -2 -2 -2 -1 -2 -1 -2 -1 -2 -1 -2 -1 -2 -1 -2 -1 -3 0 -2 -1 -2 0 -2 0 -3 -1 -2 0 -2 0 -3 25 0 0 2 0 1 0 1 0 2 0 1 0 1 1 1 0 2 0 1 1 1 0 1 1 1 0 1 1 0 1 1 0 1 1 1 1 1 1 0 0 1 1 1 1 0 1 1 2 0 1 1 1 0 2 0 1 1 2 0 1 0 2 0 2 0 0 0zm161 26l-161 0 0 -26 161 0 0 0 0 26zm139 -172l24 0 0 0 0 9 -1 9 0 8 -2 9 -1 8 -2 8 -2 8 -2 8 -3 8 -3 7 -3 7 -4 7 -4 7 -4 7 -5 6 -5 6 -5 6 -6 5 -6 5 -6 5 -7 4 -7 5 -7 3 -7 4 -8 3 -8 2 -9 3 -9 1 -9 2 -9 1 -9 1 -10 0 0 -26 9 0 8 0 8 -1 8 -2 8 -1 7 -2 7 -2 7 -3 6 -3 6 -3 6 -3 5 -4 5 -4 5 -4 5 -4 4 -5 4 -5 4 -5 4 -6 3 -5 3 -6 3 -6 3 -7 2 -6 2 -7 2 -7 1 -7 1 -7 1 -7 1 -8 0 -8 1 -8 0 0zm24 -37l0 37 -24 0 0 -37 0 0 24 0zm-163 -142l0 -26 0 0 10 0 9 1 10 1 9 1 9 2 8 2 8 3 8 2 8 4 7 3 7 4 7 4 6 5 6 5 6 5 5 6 5 5 5 7 4 6 4 7 3 6 4 8 3 7 2 7 3 8 2 8 1 8 2 9 1 8 0 9 1 8 0 9 -24 0 -1 -8 0 -8 -1 -7 0 -8 -2 -7 -1 -7 -2 -7 -2 -7 -2 -6 -2 -6 -3 -6 -3 -6 -3 -5 -4 -5 -4 -5 -4 -5 -4 -4 -5 -5 -4 -4 -6 -3 -5 -4 -6 -3 -6 -3 -6 -3 -7 -2 -7 -2 -7 -2 -8 -2 -8 -1 -8 -1 -9 0 -9 0 0 0zm1 277l0 -25 0 0 5 0 4 -1 4 0 4 0 4 -1 4 -1 3 -1 3 -1 3 -1 3 -1 2 -1 3 -2 2 -1 2 -2 2 -2 2 -1 1 -2 2 -2 1 -3 2 -2 1 -2 1 -3 1 -3 1 -3 1 -3 1 -3 0 -3 1 -4 0 -3 0 -4 1 -4 0 -5 24 0 0 5 0 5 -1 5 0 5 -1 4 -1 4 -1 5 -1 4 -1 4 -2 4 -1 4 -2 4 -2 3 -3 4 -2 3 -3 3 -3 3 -3 3 -3 2 -4 3 -3 2 -4 2 -4 2 -4 1 -4 2 -5 1 -4 1 -5 1 -5 0 -5 1 -5 0 -6 0 0 0zm-126 -25l126 0 0 25 -126 0 -12 -13 12 -12zm0 25l-12 0 0 -13 12 13zm13 -216l0 203 -25 0 0 -203 12 -13 13 13zm-25 0l0 -13 12 0 -12 13zm137 12l-125 0 0 -25 125 0 0 0 0 25zm89 65l-24 0 0 0 0 -4 -1 -4 0 -4 0 -3 -1 -4 -1 -3 0 -4 -1 -3 -1 -3 -1 -2 -1 -3 -2 -2 -1 -3 -2 -2 -1 -2 -2 -2 -2 -2 -2 -2 -2 -1 -2 -2 -3 -1 -2 -2 -3 -1 -3 -1 -3 -1 -4 -1 -3 -1 -4 -1 -4 0 -4 0 -5 -1 -4 0 0 -25 5 0 5 0 5 1 5 0 5 1 5 1 4 1 5 2 4 1 4 2 4 2 3 2 4 3 3 2 3 3 3 3 3 3 3 4 2 3 2 4 2 4 2 3 2 4 1 5 1 4 1 4 1 5 1 4 0 5 1 5 0 4 0 5 0 0zm-24 49l0 -49 24 0 0 49 0 0 -24 0z"/>
   </g>
   <g>
    <path class="fil4" d="M7828 7129c-39,0 -71,-33 -71,-75 0,-41 32,-75 71,-75l0 150zm4354 0l-4354 0 0 -150 4354 0 0 150zm0 -150c39,0 70,34 70,75 0,42 -31,75 -70,75l0 -150z"/>
   </g>
   <path class="fil1 str0" d="M12949 5489l0 8832c-2206,0 -3683,0 -5888,0l0 -8832 5888 0z"/>
   <path class="fil1 str1" d="M11760 9212l582 0 0 -557 -582 0 0 557z"/>
   <path class="fil1 str1" d="M11760 12287l582 0 0 -557 -582 0 0 557z"/>
   <path class="fil1 str1" d="M11760 8285l582 0 0 -558 -582 0 0 558z"/>
   <path class="fil5 str2" d="M7932 7973l122 -121c3,-3 7,-4 10,-4 4,0 7,2 10,5 4,3 5,6 5,10 0,2 -1,6 -4,10l-86 86 88 157 2 8c0,3 -1,7 -4,9 -3,3 -7,5 -11,5 -5,0 -9,-3 -12,-8l-85 -151 -35 34 0 110c0,5 -1,8 -4,11 -2,2 -6,4 -10,4 -4,0 -7,-2 -10,-4 -3,-2 -4,-6 -4,-11l0 -261c0,-3 1,-7 4,-10 3,-2 6,-4 10,-4 4,0 7,1 10,3 3,3 4,7 4,11l0 111zm254 92l-21 63c-1,3 -3,5 -5,7 -2,1 -5,2 -8,3 -4,0 -7,-2 -10,-4 -3,-3 -5,-6 -5,-10l1 -5 87 -261c3,-8 7,-12 14,-12 6,0 10,4 13,12l87 261 1 5c0,3 -2,7 -5,10 -3,2 -6,4 -10,4 -2,0 -4,-1 -6,-2 -3,-1 -5,-4 -7,-8l-21 -63 -105 0zm95 -29l-42 -128 -43 128 85 0zm259 -72l0 -101c0,-4 2,-8 5,-11 3,-2 6,-4 10,-4 3,0 7,1 10,4 3,2 4,6 4,11l0 260c0,4 -1,8 -4,11 -4,2 -7,4 -10,4 -4,0 -7,-2 -11,-4 -2,-2 -4,-6 -4,-11l0 -130 -116 0 0 130c0,5 -1,8 -4,11 -2,2 -6,4 -10,4 -4,0 -7,-2 -10,-4 -3,-2 -4,-6 -4,-11l0 -260c0,-4 1,-8 4,-11 3,-2 6,-4 10,-4 4,0 7,2 10,4 3,2 4,6 4,11l0 101 116 0zm117 145l28 -248c0,-9 5,-13 14,-13l87 0c10,0 15,5 15,15l0 246 14 0c10,0 15,5 15,14l0 29c0,4 -2,7 -5,10 -3,3 -6,4 -10,4 -3,0 -6,-1 -9,-3 -3,-3 -5,-6 -5,-11l0 -14 -145 0 0 14c0,4 -2,7 -5,10 -3,3 -6,4 -10,4 -3,0 -6,-1 -9,-3 -3,-3 -5,-6 -5,-11l0 -29c0,-9 5,-14 15,-14l15 0zm115 0l0 -232 -60 0 -26 232 86 0zm289 14c0,5 -1,8 -4,11 -3,2 -6,4 -10,4 -4,0 -8,-2 -10,-4 -3,-2 -5,-6 -5,-11l0 -204 -117 211c-2,3 -4,6 -7,7l-3 2c-1,0 -2,1 -4,1 -3,0 -6,-1 -10,-4 -2,-3 -4,-7 -4,-13l0 -260c0,-4 2,-8 5,-11 3,-2 6,-4 10,-4 4,0 7,2 10,4 3,2 4,6 4,11l0 204 118 -211c1,-3 3,-5 6,-7 3,-2 5,-3 8,-3 3,0 6,2 9,5 3,3 4,7 4,12l0 260zm88 -14l28 -248c0,-9 5,-13 14,-13l87 0c10,0 15,5 15,15l0 246 14 0c10,0 15,5 15,14l0 29c0,4 -2,7 -5,10 -3,3 -6,4 -10,4 -3,0 -6,-1 -9,-3 -4,-3 -5,-6 -5,-11l0 -14 -145 0 0 14c0,4 -2,7 -5,10 -3,3 -6,4 -10,4 -3,0 -6,-1 -9,-3 -3,-3 -5,-6 -5,-11l0 -29c0,-9 5,-14 14,-14l16 0zm115 0l0 -232 -60 0 -26 232 86 0zm166 -44l-21 63c-1,3 -3,5 -5,7 -2,1 -5,2 -8,3 -4,0 -7,-2 -10,-4 -3,-3 -5,-6 -5,-10l1 -5 87 -261c3,-8 8,-12 14,-12 6,0 11,4 13,12l87 261 1 5c0,3 -1,7 -5,10 -3,2 -6,4 -10,4 -2,0 -4,-1 -6,-2 -3,-1 -5,-4 -7,-8l-21 -63 -105 0zm95 -29l-42 -128 -43 128 85 0zm129 -159l-58 0c-4,0 -8,-1 -10,-4 -3,-3 -4,-7 -4,-10 0,-4 1,-7 4,-10 2,-3 6,-5 10,-5l145 0c4,0 7,2 10,5 3,2 4,6 4,10 0,3 -1,6 -3,9 -3,3 -6,5 -11,5l-58 0 0 246c0,5 -1,8 -4,11 -3,2 -6,4 -10,4 -4,0 -7,-2 -10,-4 -3,-2 -5,-6 -5,-11l0 -246zm361 246c0,5 -2,8 -4,11 -3,2 -6,4 -11,4 -3,0 -7,-2 -10,-4 -3,-2 -4,-6 -4,-11l0 -225 -33 33c-3,3 -6,4 -10,4 -4,0 -7,-1 -10,-4 -3,-3 -5,-7 -5,-11 0,-3 2,-6 5,-10l57 -58c2,-2 4,-3 6,-4 2,-1 5,-2 7,-2 2,0 5,1 8,4 3,3 4,7 4,12l0 261z"/>
   <path class="fil1 str1" d="M11763 11204l582 0 0 -557 -582 0 0 557z"/>
   <path class="fil1 str1" d="M11763 10204l582 0 0 -557 -582 0 0 557z"/>
   <path class="fil5 str2" d="M7932 8901l122 -121c3,-3 7,-4 10,-4 4,0 7,1 10,4 4,3 5,7 5,11 0,2 -1,5 -4,9l-86 86 88 158 2 7c0,4 -1,7 -4,10 -3,3 -7,4 -11,4 -5,0 -9,-2 -12,-7l-85 -151 -35 34 0 110c0,4 -1,8 -4,11 -2,2 -6,3 -10,3 -4,0 -7,-1 -10,-3 -3,-3 -4,-6 -4,-11l0 -261c0,-4 1,-7 4,-10 3,-3 6,-4 10,-4 4,0 7,1 10,3 3,2 4,6 4,11l0 111zm254 92l-21 62c-1,3 -3,6 -5,8 -2,1 -5,2 -8,2 -4,0 -7,-1 -10,-4 -3,-2 -5,-6 -5,-10l1 -5 87 -260c3,-9 7,-13 14,-13 6,0 10,4 13,13l87 260 1 5c0,4 -2,7 -5,10 -3,3 -6,4 -10,4 -2,0 -4,0 -6,-1 -3,-1 -5,-4 -7,-9l-21 -62 -105 0zm95 -30l-42 -127 -43 127 85 0zm259 -71l0 -102c0,-4 2,-7 5,-10 3,-3 6,-4 10,-4 3,0 7,1 10,3 3,3 4,6 4,11l0 260c0,5 -1,8 -4,11 -4,3 -7,4 -10,4 -4,0 -7,-1 -11,-3 -2,-3 -4,-6 -4,-11l0 -131 -116 0 0 131c0,4 -1,8 -4,11 -2,2 -6,3 -10,3 -4,0 -7,-1 -10,-3 -3,-3 -4,-6 -4,-11l0 -261c0,-4 1,-7 4,-10 3,-3 6,-4 10,-4 4,0 7,1 10,3 3,3 4,6 4,11l0 102 116 0zm117 144l28 -248c0,-8 5,-12 14,-12l87 0c10,0 15,4 15,14l0 246 14 0c10,0 15,5 15,15l0 29c0,4 -2,7 -5,10 -3,3 -6,4 -10,4 -3,0 -6,-1 -9,-4 -3,-2 -5,-6 -5,-10l0 -15 -145 0 0 15c0,4 -2,7 -5,10 -3,3 -6,4 -10,4 -3,0 -6,-1 -9,-4 -3,-2 -5,-6 -5,-10l0 -29c0,-10 5,-15 15,-15l15 0zm115 0l0 -232 -60 0 -26 232 86 0zm289 15c0,4 -1,8 -4,11 -3,2 -6,3 -10,3 -4,0 -8,-1 -10,-3 -3,-3 -5,-6 -5,-11l0 -205 -117 212c-2,3 -4,5 -7,7l-3 2c-1,0 -2,0 -4,1 -3,0 -6,-2 -10,-5 -2,-3 -4,-7 -4,-12l0 -261c0,-4 2,-7 5,-10 3,-3 6,-4 10,-4 4,0 7,1 10,3 3,3 4,6 4,11l0 205 118 -212c1,-2 3,-4 6,-7 3,-2 5,-3 8,-3 3,0 6,2 9,5 3,3 4,7 4,12l0 261zm88 -15l28 -248c0,-8 5,-12 14,-12l87 0c10,0 15,4 15,14l0 246 14 0c10,0 15,5 15,15l0 29c0,4 -2,7 -5,10 -3,3 -6,4 -10,4 -3,0 -6,-1 -9,-4 -4,-2 -5,-6 -5,-10l0 -15 -145 0 0 15c0,4 -2,7 -5,10 -3,3 -6,4 -10,4 -3,0 -6,-1 -9,-4 -3,-2 -5,-6 -5,-10l0 -29c0,-10 5,-15 14,-15l16 0zm115 0l0 -232 -60 0 -26 232 86 0zm166 -43l-21 62c-1,3 -3,6 -5,8 -2,1 -5,2 -8,2 -4,0 -7,-1 -10,-4 -3,-2 -5,-6 -5,-10l1 -5 87 -260c3,-9 8,-13 14,-13 6,0 11,4 13,13l87 260 1 5c0,4 -1,7 -5,10 -3,3 -6,4 -10,4 -2,0 -4,0 -6,-1 -3,-1 -5,-4 -7,-9l-21 -62 -105 0zm95 -30l-42 -127 -43 127 85 0zm129 -159l-58 0c-4,0 -8,-1 -10,-3 -3,-4 -4,-7 -4,-11 0,-3 1,-6 4,-10 2,-3 6,-4 10,-4l145 0c4,0 7,1 10,4 3,3 4,6 4,10 0,3 -1,7 -3,10 -3,3 -6,4 -11,4l-58 0 0 247c0,4 -1,8 -4,11 -3,2 -6,3 -10,3 -4,0 -7,-1 -10,-3 -3,-3 -5,-6 -5,-11l0 -247zm408 83l-93 149 89 0c4,0 8,2 11,5 2,3 4,6 4,10 0,3 -1,6 -4,10 -2,3 -6,4 -11,4l-115 0c-11,0 -16,-4 -16,-11 0,-3 1,-7 3,-11l107 -171c4,-7 6,-14 6,-21 0,-13 -5,-24 -15,-33 -4,-4 -10,-7 -16,-10 -6,-2 -12,-4 -19,-4 -8,0 -15,2 -21,6 -7,5 -13,10 -17,17 -1,2 -3,3 -6,5l-6 1c-4,0 -7,-1 -10,-4 -3,-2 -5,-6 -5,-10 0,-2 1,-4 2,-8 7,-10 16,-19 27,-25 6,-3 11,-6 17,-8 6,-1 11,-2 17,-2 22,0 41,7 57,22 16,15 24,33 24,54 0,12 -4,23 -10,35z"/>
   <path class="fil5 str2" d="M7932 9892l122 -121c3,-2 7,-3 10,-3 4,0 7,1 10,4 4,3 5,6 5,10 0,3 -1,6 -4,10l-86 86 88 157 2 8c0,4 -1,7 -4,10 -3,3 -7,4 -11,4 -5,0 -9,-2 -12,-8l-85 -150 -35 33 0 111c0,4 -1,8 -4,11 -2,2 -6,3 -10,3 -4,0 -7,-1 -10,-3 -3,-3 -4,-7 -4,-11l0 -261c0,-4 1,-7 4,-10 3,-3 6,-4 10,-4 4,0 7,1 10,3 3,2 4,6 4,11l0 110zm254 93l-21 62c-1,3 -3,6 -5,8 -2,1 -5,2 -8,2 -4,0 -7,-1 -10,-4 -3,-3 -5,-6 -5,-10l1 -5 87 -261c3,-8 7,-12 14,-12 6,0 10,4 13,12l87 261 1 5c0,4 -2,7 -5,10 -3,3 -6,4 -10,4 -2,0 -4,0 -6,-1 -3,-1 -5,-4 -7,-9l-21 -62 -105 0zm95 -30l-42 -127 -43 127 85 0zm259 -71l0 -102c0,-4 2,-7 5,-10 3,-3 6,-4 10,-4 3,0 7,1 10,3 3,3 4,6 4,11l0 260c0,4 -1,8 -4,11 -4,3 -7,4 -10,4 -4,0 -7,-1 -11,-3 -2,-3 -4,-6 -4,-11l0 -131 -116 0 0 131c0,4 -1,8 -4,11 -2,2 -6,3 -10,3 -4,0 -7,-1 -10,-3 -3,-3 -4,-7 -4,-11l0 -261c0,-4 1,-7 4,-11 3,-2 6,-3 10,-3 4,0 7,1 10,3 3,3 4,6 4,11l0 102 116 0zm117 144l28 -248c0,-8 5,-12 14,-12l87 0c10,0 15,4 15,14l0 246 14 0c10,0 15,5 15,15l0 28c0,4 -2,8 -5,11 -3,2 -6,4 -10,4 -3,0 -6,-1 -9,-4 -3,-2 -5,-6 -5,-11l0 -14 -145 0 0 14c0,4 -2,8 -5,11 -3,2 -6,4 -10,4 -3,0 -6,-1 -9,-4 -3,-2 -5,-6 -5,-11l0 -28c0,-10 5,-15 15,-15l15 0zm115 0l0 -232 -60 0 -26 232 86 0zm289 15c0,4 -1,8 -4,11 -3,2 -6,3 -10,3 -4,0 -8,-1 -10,-3 -3,-3 -5,-7 -5,-11l0 -205 -117 212c-2,3 -4,5 -7,7l-3 1c-1,1 -2,1 -4,2 -3,0 -6,-2 -10,-5 -2,-3 -4,-7 -4,-12l0 -261c0,-4 2,-7 5,-11 3,-2 6,-3 10,-3 4,0 7,1 10,3 3,3 4,6 4,11l0 205 118 -212c1,-2 3,-4 6,-7 3,-2 5,-3 8,-3 3,0 6,2 9,5 3,3 4,7 4,12l0 261zm88 -15l28 -248c0,-8 5,-12 14,-12l87 0c10,0 15,4 15,14l0 246 14 0c10,0 15,5 15,15l0 28c0,4 -2,8 -5,11 -3,2 -6,4 -10,4 -3,0 -6,-1 -9,-4 -4,-2 -5,-6 -5,-11l0 -14 -145 0 0 14c0,4 -2,8 -5,11 -3,2 -6,4 -10,4 -3,0 -6,-1 -9,-4 -3,-2 -5,-6 -5,-11l0 -28c0,-10 5,-15 14,-15l16 0zm115 0l0 -232 -60 0 -26 232 86 0zm166 -43l-21 62c-1,3 -3,6 -5,8 -2,1 -5,2 -8,2 -4,0 -7,-1 -10,-4 -3,-3 -5,-6 -5,-10l1 -5 87 -261c3,-8 8,-12 14,-12 6,0 11,4 13,12l87 261 1 5c0,4 -1,7 -5,10 -3,3 -6,4 -10,4 -2,0 -4,0 -6,-1 -3,-1 -5,-4 -7,-9l-21 -62 -105 0zm95 -30l-42 -127 -43 127 85 0zm129 -159l-58 0c-4,0 -8,-1 -10,-4 -3,-3 -4,-6 -4,-10 0,-3 1,-7 4,-10 2,-3 6,-4 10,-4l145 0c4,0 7,1 10,4 3,3 4,6 4,10 0,3 -1,6 -3,10 -3,3 -6,4 -11,4l-58 0 0 247c0,4 -1,8 -4,11 -3,2 -6,3 -10,3 -4,0 -7,-1 -10,-3 -3,-3 -5,-7 -5,-11l0 -247zm345 1l-58 0c-4,0 -8,-2 -11,-4 -2,-3 -3,-7 -3,-11 0,-3 1,-6 4,-9 2,-3 6,-5 10,-5l58 0c23,0 41,7 54,22 12,14 19,30 19,50 0,12 -3,22 -7,32 -5,10 -12,19 -22,27 8,6 15,14 20,24 6,10 9,21 9,33l0 29c0,19 -8,36 -22,51 -14,14 -31,21 -51,21l-58 0c-4,0 -8,-1 -11,-4 -2,-3 -3,-6 -3,-10 0,-4 1,-7 3,-10 3,-3 6,-5 11,-5l58 0c12,0 23,-4 31,-12 9,-9 13,-19 13,-31l0 -29c0,-12 -4,-22 -13,-31 -8,-8 -19,-13 -31,-13l-29 0c-4,0 -8,-1 -11,-4 -2,-3 -3,-6 -3,-10 0,-3 1,-7 3,-10 3,-3 6,-4 11,-4l29 0c13,0 24,-5 32,-14 7,-9 10,-19 10,-31 0,-12 -3,-21 -10,-29 -7,-9 -18,-13 -32,-13z"/>
   <path class="fil5 str2" d="M7932 10892l122 -121c3,-2 7,-3 10,-3 4,0 7,1 10,4 4,3 5,6 5,10 0,3 -1,6 -4,10l-86 86 88 157 2 8c0,4 -1,7 -4,10 -3,3 -7,4 -11,4 -5,0 -9,-2 -12,-8l-85 -150 -35 33 0 111c0,4 -1,8 -4,11 -2,2 -6,3 -10,3 -4,0 -7,-1 -10,-3 -3,-3 -4,-7 -4,-11l0 -261c0,-4 1,-7 4,-10 3,-3 6,-4 10,-4 4,0 7,1 10,3 3,2 4,6 4,11l0 110zm254 93l-21 62c-1,3 -3,6 -5,8 -2,1 -5,2 -8,2 -4,0 -7,-1 -10,-4 -3,-3 -5,-6 -5,-10l1 -5 87 -261c3,-8 7,-12 14,-12 6,0 10,4 13,12l87 261 1 5c0,4 -2,7 -5,10 -3,3 -6,4 -10,4 -2,0 -4,0 -6,-1 -3,-1 -5,-4 -7,-9l-21 -62 -105 0zm95 -30l-42 -127 -43 127 85 0zm259 -71l0 -102c0,-4 2,-7 5,-10 3,-3 6,-4 10,-4 3,0 7,1 10,3 3,3 4,6 4,11l0 260c0,4 -1,8 -4,11 -4,3 -7,4 -10,4 -4,0 -7,-1 -11,-3 -2,-3 -4,-6 -4,-11l0 -131 -116 0 0 131c0,4 -1,8 -4,11 -2,2 -6,3 -10,3 -4,0 -7,-1 -10,-3 -3,-3 -4,-7 -4,-11l0 -261c0,-4 1,-7 4,-11 3,-2 6,-3 10,-3 4,0 7,1 10,3 3,3 4,6 4,11l0 102 116 0zm117 144l28 -248c0,-8 5,-12 14,-12l87 0c10,0 15,4 15,14l0 246 14 0c10,0 15,5 15,15l0 28c0,4 -2,8 -5,11 -3,2 -6,4 -10,4 -3,0 -6,-1 -9,-4 -3,-2 -5,-6 -5,-11l0 -14 -145 0 0 14c0,4 -2,8 -5,11 -3,2 -6,4 -10,4 -3,0 -6,-1 -9,-4 -3,-2 -5,-6 -5,-11l0 -28c0,-10 5,-15 15,-15l15 0zm115 0l0 -232 -60 0 -26 232 86 0zm289 15c0,4 -1,8 -4,11 -3,2 -6,3 -10,3 -4,0 -8,-1 -10,-3 -3,-3 -5,-7 -5,-11l0 -205 -117 212c-2,3 -4,5 -7,7l-3 1c-1,1 -2,1 -4,2 -3,0 -6,-2 -10,-5 -2,-3 -4,-7 -4,-12l0 -261c0,-4 2,-7 5,-11 3,-2 6,-3 10,-3 4,0 7,1 10,3 3,3 4,6 4,11l0 205 118 -212c1,-2 3,-4 6,-7 3,-2 5,-3 8,-3 3,0 6,2 9,5 3,3 4,7 4,12l0 261zm88 -15l28 -248c0,-8 5,-12 14,-12l87 0c10,0 15,4 15,14l0 246 14 0c10,0 15,5 15,15l0 28c0,4 -2,8 -5,11 -3,2 -6,4 -10,4 -3,0 -6,-1 -9,-4 -4,-2 -5,-6 -5,-11l0 -14 -145 0 0 14c0,4 -2,8 -5,11 -3,2 -6,4 -10,4 -3,0 -6,-1 -9,-4 -3,-2 -5,-6 -5,-11l0 -28c0,-10 5,-15 14,-15l16 0zm115 0l0 -232 -60 0 -26 232 86 0zm166 -43l-21 62c-1,3 -3,6 -5,8 -2,1 -5,2 -8,2 -4,0 -7,-1 -10,-4 -3,-3 -5,-6 -5,-10l1 -5 87 -261c3,-8 8,-12 14,-12 6,0 11,4 13,12l87 261 1 5c0,4 -1,7 -5,10 -3,3 -6,4 -10,4 -2,0 -4,0 -6,-1 -3,-1 -5,-4 -7,-9l-21 -62 -105 0zm95 -30l-42 -127 -43 127 85 0zm129 -159l-58 0c-4,0 -8,-1 -10,-4 -3,-3 -4,-6 -4,-10 0,-3 1,-7 4,-10 2,-3 6,-4 10,-4l145 0c4,0 7,1 10,4 3,3 4,6 4,10 0,3 -1,6 -3,10 -3,3 -6,4 -11,4l-58 0 0 247c0,4 -1,8 -4,11 -3,2 -6,3 -10,3 -4,0 -7,-1 -10,-3 -3,-3 -5,-7 -5,-11l0 -247zm404 175l29 0c4,0 8,1 11,4 2,3 4,6 4,10 0,3 -1,7 -4,10 -2,3 -6,5 -11,5l-29 0 0 43c0,4 -1,8 -4,11 -2,2 -6,3 -10,3 -4,0 -7,-1 -10,-3 -3,-3 -4,-6 -4,-11l0 -43 -87 0c-10,0 -15,-4 -15,-12l0 -4 1 -3 58 -203c0,-3 2,-5 5,-8l2 -1c2,-1 4,-1 6,-1 4,0 8,1 10,4 3,2 5,6 5,10l-1 4 -52 185 68 0 0 -44c0,-4 1,-7 4,-11 3,-2 6,-3 10,-3 4,0 7,1 10,3 3,3 4,6 4,11l0 44z"/>
   <path class="fil5 str2" d="M7932 11975l122 -120c3,-3 7,-4 10,-4 4,0 7,1 10,4 4,3 5,6 5,10 0,3 -1,6 -4,10l-86 86 88 157 2 8c0,4 -1,7 -4,10 -3,3 -7,4 -11,4 -5,0 -9,-2 -12,-7l-85 -151 -35 33 0 111c0,4 -1,8 -4,11 -2,2 -6,3 -10,3 -4,0 -7,-1 -10,-3 -3,-3 -4,-7 -4,-11l0 -261c0,-4 1,-7 4,-10 3,-3 6,-4 10,-4 4,0 7,1 10,3 3,2 4,6 4,11l0 110zm254 93l-21 62c-1,3 -3,6 -5,8 -2,1 -5,2 -8,2 -4,0 -7,-1 -10,-4 -3,-2 -5,-6 -5,-10l1 -5 87 -261c3,-8 7,-12 14,-12 6,0 10,4 13,12l87 261 1 5c0,4 -2,7 -5,10 -3,3 -6,4 -10,4 -2,0 -4,0 -6,-1 -3,-1 -5,-4 -7,-9l-21 -62 -105 0zm95 -30l-42 -127 -43 127 85 0zm259 -71l0 -102c0,-4 2,-7 5,-10 3,-3 6,-4 10,-4 3,0 7,1 10,3 3,3 4,6 4,11l0 260c0,4 -1,8 -4,11 -4,3 -7,4 -10,4 -4,0 -7,-1 -11,-3 -2,-3 -4,-6 -4,-11l0 -131 -116 0 0 131c0,4 -1,8 -4,11 -2,2 -6,3 -10,3 -4,0 -7,-1 -10,-3 -3,-3 -4,-7 -4,-11l0 -261c0,-4 1,-7 4,-11 3,-2 6,-3 10,-3 4,0 7,1 10,3 3,3 4,6 4,11l0 102 116 0zm117 144l28 -248c0,-8 5,-12 14,-12l87 0c10,0 15,4 15,14l0 246 14 0c10,0 15,5 15,15l0 29c0,3 -2,7 -5,10 -3,3 -6,4 -10,4 -3,0 -6,-1 -9,-4 -3,-2 -5,-6 -5,-10l0 -15 -145 0 0 15c0,3 -2,7 -5,10 -3,3 -6,4 -10,4 -3,0 -6,-1 -9,-4 -3,-2 -5,-6 -5,-10l0 -29c0,-10 5,-15 15,-15l15 0zm115 0l0 -232 -60 0 -26 232 86 0zm289 15c0,4 -1,8 -4,11 -3,2 -6,3 -10,3 -4,0 -8,-1 -10,-3 -3,-3 -5,-7 -5,-11l0 -205 -117 212c-2,3 -4,5 -7,7l-3 1c-1,1 -2,1 -4,2 -3,0 -6,-2 -10,-5 -2,-3 -4,-7 -4,-12l0 -261c0,-4 2,-7 5,-11 3,-2 6,-3 10,-3 4,0 7,1 10,3 3,3 4,6 4,11l0 205 118 -212c1,-2 3,-4 6,-7 3,-2 5,-3 8,-3 3,0 6,2 9,5 3,3 4,7 4,12l0 261zm88 -15l28 -248c0,-8 5,-12 14,-12l87 0c10,0 15,4 15,14l0 246 14 0c10,0 15,5 15,15l0 29c0,3 -2,7 -5,10 -3,3 -6,4 -10,4 -3,0 -6,-1 -9,-4 -4,-2 -5,-6 -5,-10l0 -15 -145 0 0 15c0,3 -2,7 -5,10 -3,3 -6,4 -10,4 -3,0 -6,-1 -9,-4 -3,-2 -5,-6 -5,-10l0 -29c0,-10 5,-15 14,-15l16 0zm115 0l0 -232 -60 0 -26 232 86 0zm166 -43l-21 62c-1,3 -3,6 -5,8 -2,1 -5,2 -8,2 -4,0 -7,-1 -10,-4 -3,-2 -5,-6 -5,-10l1 -5 87 -261c3,-8 8,-12 14,-12 6,0 11,4 13,12l87 261 1 5c0,4 -1,7 -5,10 -3,3 -6,4 -10,4 -2,0 -4,0 -6,-1 -3,-1 -5,-4 -7,-9l-21 -62 -105 0zm95 -30l-42 -127 -43 127 85 0zm129 -159l-58 0c-4,0 -8,-1 -10,-4 -3,-3 -4,-6 -4,-10 0,-3 1,-7 4,-10 2,-3 6,-4 10,-4l145 0c4,0 7,1 10,4 3,3 4,6 4,10 0,3 -1,6 -3,10 -3,3 -6,4 -11,4l-58 0 0 247c0,4 -1,8 -4,11 -3,2 -6,3 -10,3 -4,0 -7,-1 -10,-3 -3,-3 -5,-7 -5,-11l0 -247zm303 0l0 88 43 0c20,0 37,7 51,21 15,14 22,31 22,51l0 29c0,20 -7,37 -22,51 -14,14 -31,21 -51,21l-58 0c-4,0 -7,-1 -10,-4 -3,-3 -4,-6 -4,-10 0,-4 1,-7 4,-10 2,-3 6,-5 11,-5l58 0c11,0 22,-4 30,-12 9,-8 13,-19 13,-31l0 -29c0,-12 -4,-22 -13,-31 -8,-8 -18,-13 -30,-13l-58 0c-10,0 -15,-4 -15,-14l0 -116c0,-10 5,-14 14,-14l116 0c4,0 8,1 11,4 2,3 4,6 4,10 0,3 -1,6 -4,10 -2,3 -6,4 -11,4l-101 0z"/>
   <g>
    <path class="fil6" d="M12245 8671l-282 254c-2,-3 -5,-6 -7,-8 -3,-3 -5,-5 -9,-8 0,6 -4,9 -7,13l-45 61c-6,7 -8,9 -13,18 -2,4 -2,5 -6,5 3,9 8,17 11,26 3,5 6,13 9,19 4,7 7,14 10,21 7,14 13,29 19,42 7,-5 24,-31 31,-40 4,-5 4,-3 8,-7 4,-6 8,-12 12,-17 5,-6 8,-11 13,-17 6,-8 7,-7 16,-11 7,-3 1,-1 11,-9l11 -10c5,-3 4,-1 8,-7 4,2 -2,1 3,2 2,-1 2,-2 4,-4 10,-11 4,-1 16,-22 1,-2 3,-4 5,-6 3,-4 4,-8 10,-9l0 4 5 -7c5,-4 4,1 5,1l-6 6c6,-1 14,-6 17,-13l2 2c0,1 -1,1 1,1l7 -7c4,-3 5,-6 8,-10l6 -6c8,-6 4,-5 9,-7 -1,4 -1,5 -4,7 6,-1 11,-9 15,-14l13 -18c2,-3 4,-5 6,-8l17 -15c9,-5 4,-3 9,-7l2 4c0,0 0,1 0,1l19 -19c4,-5 14,-20 19,-22 3,-3 5,-6 7,-10l81 -114c11,-13 20,-29 30,-42l37 -52c16,-25 38,-53 55,-78l50 -71c3,-4 2,-2 4,-7 -8,4 -24,20 -31,27 -21,19 -205,185 -211,188z"/>
    <path class="fil7" d="M11923 8835c-6,2 -9,9 -15,12l54 56c6,-2 54,-47 63,-55l154 -139c7,-6 25,-24 32,-27 9,-9 20,-18 29,-26l209 -188c10,-9 19,-17 30,-27 4,-4 10,-11 18,-9 5,2 10,10 8,20 -2,7 -19,29 -24,36 -18,27 -42,59 -60,86l-37 51c-4,6 -7,12 -11,17 -4,5 -10,14 -12,16 -2,7 -5,7 -9,13 -3,5 -5,8 -9,13 -5,8 -11,15 -17,24l-34 48c-7,11 -66,92 -67,96 -6,7 -11,17 -17,26 -3,5 -3,2 -6,6 -3,4 -8,13 -11,17 -8,13 -5,7 -9,12 -2,1 -2,3 -3,4 -4,6 -7,12 -11,17 -4,6 -3,2 -12,16 -3,4 -8,13 -11,16 -10,11 -13,21 -24,32 -3,4 -8,12 -11,17l-11 15c-5,6 -8,12 -12,18 -3,4 -5,5 -12,15l-22 33c-7,11 -9,12 -12,16l-17 24c-5,6 -10,18 -17,25 -7,7 -12,19 -17,25 -14,17 -21,39 -33,27 -4,-4 -41,-85 -46,-97l-37 -79 -37 -83 -15 -30c-3,2 -12,9 -13,12 0,5 12,27 14,32l58 128c5,11 10,22 15,33 5,10 9,20 14,31 6,12 10,21 15,33 3,6 5,10 8,16 7,17 13,33 33,32 10,-1 19,-11 24,-19l38 -54c5,-10 31,-43 37,-53 8,-12 14,-19 19,-27 8,-13 13,-17 19,-26 12,-19 31,-44 41,-60l24 -34c3,-4 6,-8 9,-12l244 -347c2,-2 3,-4 5,-6l89 -127c14,-20 9,-55 -12,-65 -13,-6 -22,2 -30,9l-324 290c-10,9 -174,158 -185,166l-31 -31c-3,-3 -6,-8 -10,-10z"/>
    <path class="fil8" d="M11925 9114c3,8 7,14 10,22l29 63 60 -84c2,-4 5,-7 7,-10l158 -224c4,-6 10,-16 15,-21 2,-6 6,-10 9,-15 4,-7 8,-7 10,-15 -5,2 -15,17 -19,22l-19 19c0,0 0,-1 0,-1l-2 -4c-5,4 0,2 -9,7l-17 15c-2,3 -4,5 -6,8l-13 18c-4,5 -9,13 -15,14 3,-2 3,-3 4,-7 -5,2 -1,1 -9,7l-6 6c-3,4 -4,7 -8,10l-7 7c-2,0 -1,0 -1,-1l-2 -2c-3,7 -11,12 -17,13l6 -6c-1,0 0,-5 -5,-1l-5 7 0 -4c-6,1 -7,5 -10,9 -2,2 -4,4 -5,6 -12,21 -6,11 -16,22 -2,2 -2,3 -4,4 -5,-1 1,0 -3,-2 -4,6 -3,4 -8,7l-11 10c-10,8 -4,6 -11,9 -9,4 -10,3 -16,11 -5,6 -8,11 -13,17 -4,5 -8,11 -12,17 -4,4 -4,2 -8,7 -7,9 -24,35 -31,40z"/>
    <path class="fil9" d="M11796 8833c1,2 52,110 54,117l1 0c4,-2 24,-32 29,-38 6,-8 9,-14 15,-21 3,-4 13,-16 14,-20l-36 -39c-6,-3 -64,-64 -71,-71 -12,-12 -23,-23 -35,-35 -6,-6 -12,-12 -18,-18 -4,-5 -13,-14 -17,-17 2,8 12,27 16,36 5,12 10,24 16,35 5,10 30,65 32,71z"/>
    <path class="fil10" d="M11809 8936c1,-3 10,-10 13,-12l-19 -44c-4,-8 -7,-14 -10,-21 -2,-4 -9,-19 -10,-23 -8,-22 -68,-141 -68,-152 0,-12 8,-20 17,-14 4,3 13,12 17,17 23,23 46,46 68,69 8,8 66,65 68,69 4,3 7,7 11,11 5,4 7,7 12,11 6,-3 9,-10 15,-12 -2,-3 -67,-69 -73,-74 -9,-9 -16,-17 -25,-25 -19,-20 -56,-56 -73,-75 -25,-27 -48,-11 -53,17 -2,18 5,31 10,42 16,32 34,75 50,108l50 108z"/>
    <path class="fil11" d="M12211 8682c1,4 -1,3 7,-1l25 -10c3,0 1,-1 2,0 6,-3 190,-169 211,-188 7,-7 23,-23 31,-27 -2,5 -1,3 -4,7l-50 71c-17,25 -39,53 -55,78l-37 52c9,-1 13,-6 20,-6 2,-2 8,-11 12,-16 4,-5 7,-11 11,-17l37 -51c18,-27 42,-59 60,-86 5,-7 22,-29 24,-36 2,-10 -3,-18 -8,-20 -8,-2 -14,5 -18,9 -11,10 -20,18 -30,27l-209 188c-9,8 -20,17 -29,26z"/>
    <path class="fil12" d="M12204 8860c-5,5 -11,15 -15,21l-158 224c-2,3 -5,6 -7,10l-60 84 -29 -63c-3,-8 -7,-14 -10,-22 -6,-13 -12,-28 -19,-42 -3,-7 -6,-14 -10,-21 -3,-6 -6,-14 -9,-19 -4,2 -8,4 -13,5l37 79c5,12 42,93 46,97 12,12 19,-10 33,-27 5,-6 10,-18 17,-25 7,-7 12,-19 17,-25l17 -24c3,-4 5,-5 12,-16l22 -33c7,-10 9,-11 12,-15 4,-6 7,-12 12,-18l11 -15c3,-5 8,-13 11,-17 11,-11 14,-21 24,-32 3,-3 8,-12 11,-16 9,-14 8,-10 12,-16 4,-5 7,-11 11,-17 1,-1 1,-3 3,-4 4,-5 1,1 9,-12 3,-4 8,-13 11,-17 3,-4 3,-1 6,-6 6,-9 11,-19 17,-26 -7,2 -13,6 -21,8z"/>
    <path class="fil13" d="M12211 8682c-7,3 -25,21 -32,27l-154 139c-9,8 -57,53 -63,55l-54 -56c-5,-4 -7,-7 -12,-11 -4,-4 -7,-8 -11,-11 -2,3 -10,3 -12,7l36 39c6,3 14,13 20,19 4,5 15,14 18,19 4,3 6,5 9,8 2,2 5,5 7,8l282 -254c-1,-1 1,0 -2,0l-25 10c-8,4 -6,5 -7,1z"/>
    <path class="fil14" d="M11851 8950c2,8 8,20 12,29 4,8 9,18 13,27 4,0 4,-1 6,-5 5,-9 7,-11 13,-18l45 -61c3,-4 7,-7 7,-13 -3,-5 -14,-14 -18,-19 -6,-6 -14,-16 -20,-19 -1,4 -11,16 -14,20 -6,7 -9,13 -15,21 -5,6 -25,36 -29,38z"/>
    <path class="fil11" d="M11783 8836c6,1 6,-3 13,-3 -2,-6 -27,-61 -32,-71 -6,-11 -11,-23 -16,-35 -4,-9 -14,-28 -16,-36 4,3 13,12 17,17 6,6 12,12 18,18 12,12 23,23 35,35 7,7 65,68 71,71 2,-4 10,-4 12,-7 -2,-4 -60,-61 -68,-69 -22,-23 -45,-46 -68,-69 -4,-5 -13,-14 -17,-17 -9,-6 -17,2 -17,14 0,11 60,130 68,152z"/>
    <path class="fil13" d="M12341 8664c-10,13 -19,29 -30,42l-81 114c-2,4 -4,7 -7,10 -2,8 -6,8 -10,15 -3,5 -7,9 -9,15 8,-2 14,-6 21,-8 1,-4 60,-85 67,-96l34 -48c6,-9 12,-16 17,-24 4,-5 6,-8 9,-13 4,-6 7,-6 9,-13 -7,0 -11,5 -20,6z"/>
    <path class="fil13" d="M11783 8836c1,4 8,19 10,23 3,7 6,13 10,21l19 44 15 30c5,0 7,-3 13,-4 -2,-7 -53,-115 -54,-117 -7,0 -7,4 -13,3z"/>
    <path class="fil15" d="M11837 8954l37 83c5,-1 9,-3 13,-5 -3,-9 -8,-17 -11,-26 -4,-9 -9,-19 -13,-27 -4,-9 -10,-21 -12,-29l-1 0c-6,1 -8,4 -13,4z"/>
   </g>
  </g>
 </g>
</svg>
