<?xml version="1.0" encoding="UTF-8"?>
<!DOCTYPE svg PUBLIC "-//W3C//DTD SVG 1.0//EN" "http://www.w3.org/TR/2001/REC-SVG-20010904/DTD/svg10.dtd">
<!-- Creator: CorelDRAW X7 -->
<svg xmlns="http://www.w3.org/2000/svg" xml:space="preserve" width="200mm" height="200mm" version="1.0" style="shape-rendering:geometricPrecision; text-rendering:geometricPrecision; image-rendering:optimizeQuality; fill-rule:evenodd; clip-rule:evenodd"
viewBox="0 0 20000 20000"
 xmlns:xlink="http://www.w3.org/1999/xlink">
 <defs>
  <style type="text/css">
   <![CDATA[
    .str1 {stroke:#034540;stroke-width:29.14}
    .str3 {stroke:#2B2A29;stroke-width:25}
    .str0 {stroke:#034540;stroke-width:159.99;stroke-linecap:round;stroke-linejoin:round}
    .str4 {stroke:#4D8A7D;stroke-width:139.99;stroke-linecap:round;stroke-linejoin:round}
    .str2 {stroke:#4D8A7D;stroke-width:140;stroke-linecap:round;stroke-linejoin:round}
    .str6 {stroke:#CC7588;stroke-width:162.6;stroke-linecap:round;stroke-linejoin:round;stroke-dasharray:507.960000 338.640000}
    .str7 {stroke:#7690C9;stroke-width:202.91;stroke-linecap:round;stroke-linejoin:round}
    .str8 {stroke:#7690C9;stroke-width:202.91;stroke-linecap:round;stroke-linejoin:round}
    .str5 {stroke:#024541;stroke-width:168.75;stroke-linecap:round;stroke-linejoin:round}
    .fil8 {fill:none}
    .fil5 {fill:none;fill-rule:nonzero}
    .fil6 {fill:#2B2A29}
    .fil7 {fill:#EBF2D9}
    .fil9 {fill:#CDDBAC}
    .fil2 {fill:#FFF7B3}
    .fil1 {fill:#FFFADB}
    .fil10 {fill:#4D897C;fill-rule:nonzero}
    .fil3 {fill:#034540;fill-rule:nonzero}
    .fil4 {fill:#4D8A7D;fill-rule:nonzero}
    .fil0 {fill:url(#id0)}
   ]]>
  </style>
  <radialGradient id="id0" gradientUnits="userSpaceOnUse" gradientTransform="matrix(1.41421 -0 -0 1.41421 -4142 -4142)" cx="10000" cy="10000" r="10000" fx="10000" fy="10000">
   <stop offset="0" style="stop-opacity:1; stop-color:#FEFEFE"/>
   <stop offset="0.439216" style="stop-opacity:1; stop-color:#FEFEFE"/>
   <stop offset="1" style="stop-opacity:1; stop-color:#D1E2F2"/>
  </radialGradient>
 </defs>
 <g id="Layer_x0020_1">
  <metadata id="CorelCorpID_0Corel-Layer"/>
  <g id="_1088931009520">
   <path class="fil0" d="M0 0l20000 0 0 20000 -20000 0 0 -20000z"/>
   <path class="fil1 str0" d="M17460 4513l0 8333c-2206,0 -3683,0 -5889,0l0 -8333 5889 0z"/>
   <path class="fil2" d="M11571 4513l5889 0 0 3361 -5889 -2798c10,-289 0,-370 0,-563z"/>
   <path class="fil3 str1" d="M14133 6147l51 165c7,23 28,36 52,27 24,-8 34,-31 27,-53l-183 -589c-7,-21 -17,-32 -43,-32l-4 0c-26,0 -36,11 -43,32l-183 589c-7,22 3,45 27,53 24,9 45,-4 52,-27l51 -165 196 0zm-112 -284c6,-21 9,-31 14,-54l0 0c5,23 8,33 14,54l62 205 -152 0 62 -205zm727 409l-194 -287 184 -249c17,-22 17,-45 -2,-62 -21,-21 -47,-10 -63,9l-190 269 -54 0 0 -244c0,-23 -13,-43 -42,-43 -30,0 -43,20 -43,43l0 591c0,22 13,43 43,43 29,0 42,-21 42,-43l0 -263 55 0 195 287c11,19 34,29 58,12 26,-18 24,-44 11,-63zm263 70c30,0 43,-21 43,-43l0 -540 132 0c21,0 40,-13 40,-43 0,-28 -19,-42 -40,-42l-349 0c-21,0 -40,14 -40,42 0,30 19,43 40,43l132 0 0 540c0,22 13,43 42,43z"/>
   <g>
    <path class="fil4" d="M12189 10128c-35,0 -64,-31 -64,-70 0,-38 29,-70 64,-70l0 140zm2420 0l-2420 0 0 -140 2420 0 0 140zm0 -140c36,0 65,32 65,70 0,39 -29,70 -65,70l0 -140zm-2420 -1065c-35,0 -64,-32 -64,-70 0,-39 29,-70 64,-70l0 140zm3407 0l-3407 0 0 -140 3407 0 0 140zm0 -140c35,0 64,31 64,70 0,38 -29,70 -64,70l0 -140zm-3407 542c-35,0 -64,-32 -64,-70 0,-39 29,-70 64,-70l0 140zm4586 0l-4586 0 0 -140 4586 0 0 140zm0 -140c36,0 64,31 64,70 0,38 -28,70 -64,70l0 -140zm-4586 542c-35,0 -64,-32 -64,-70 0,-39 29,-70 64,-70l0 140zm4586 0l-4586 0 0 -140 4586 0 0 140zm0 -140c36,0 64,31 64,70 0,38 -28,70 -64,70l0 -140z"/>
   </g>
   <path class="fil5 str0" d="M17460 4513l0 8333c-2206,0 -3683,0 -5889,0l0 -8333 5889 0z"/>
   <path class="fil5 str2" d="M15747 11317c-498,1734 -158,751 -389,597 -232,-155 842,-745 772,-270 -71,474 -843,359 -822,459 22,100 323,169 415,-84 91,-253 -42,197 196,119 238,-77 337,-302 298,-176 -39,127 28,106 154,29 127,-78 271,-158 271,-158"/>
   <g id="_1088931014512">
    <path class="fil6 str3" d="M12036 7173c-10,5 -23,9 -38,13l-21 3 -23 1 -27 -1 -23 -3c-14,-2 -26,-9 -35,-20 -9,-11 -14,-24 -14,-38 0,-8 2,-16 5,-24 3,-8 9,-15 16,-22l124 -85c4,-3 6,-7 6,-11 0,-9 -7,-15 -20,-20 -14,-4 -28,-6 -44,-6 -13,0 -24,1 -34,3 -10,2 -18,6 -24,11 -3,2 -7,3 -12,4 -4,0 -8,-2 -13,-6 -4,-4 -6,-9 -6,-14 0,-6 3,-11 8,-15 8,-6 20,-11 36,-15 8,-2 16,-3 24,-5 9,-1 17,-1 25,-1 5,0 10,0 15,0 4,0 10,1 15,1 6,1 13,3 21,5 14,4 26,11 35,22 9,10 13,22 13,34 0,16 -7,31 -22,44l-123 85c-5,4 -7,9 -7,15 0,4 1,9 4,13 4,4 8,7 14,8l20 2 24 1c14,0 26,-1 35,-3 4,0 8,-2 13,-4 5,-2 10,-4 14,-7l4 -1c2,-1 4,-1 7,-1 5,0 9,2 13,6 4,4 5,9 5,14 0,6 -3,12 -10,17zm242 -60l0 -155 -78 0c-10,0 -20,4 -27,11 -4,4 -7,8 -9,13 -1,4 -2,9 -2,15l0 116c0,11 3,20 11,27 4,4 8,7 12,9 6,2 11,3 15,3l39 0c11,0 20,-4 28,-11 7,-7 11,-17 11,-28zm19 52c-6,7 -15,13 -26,18 -10,4 -21,7 -32,7l-38 0c-21,0 -39,-8 -55,-22 -15,-15 -23,-34 -23,-55l0 -116c0,-22 8,-40 23,-55 15,-15 33,-22 55,-22l96 0c13,0 19,6 19,19l0 173c0,8 3,16 8,24 4,7 11,13 19,17 8,3 12,9 12,17 0,6 -2,10 -5,14 -4,4 -8,6 -14,6 -3,0 -6,-1 -8,-2 -13,-5 -23,-13 -31,-23zm250 -13l78 0 0 -213c0,-5 2,-10 6,-14 3,-4 8,-5 13,-5 5,0 9,1 13,4 4,4 6,8 6,15l0 232c0,13 -6,19 -19,19l-174 0c-20,0 -38,-8 -54,-22 -15,-15 -23,-34 -23,-55l0 -174c0,-5 2,-10 6,-14 4,-4 9,-5 14,-5 4,0 9,1 13,4 4,4 6,8 6,15l0 174c0,11 3,20 11,28 4,3 8,6 12,8 6,2 11,3 15,3l39 0 0 -213c0,-5 2,-10 6,-14 4,-4 8,-5 13,-5 5,0 10,1 14,4 4,4 5,8 5,15l0 213zm232 -116l116 0 0 -39c0,-11 -3,-20 -11,-28 -7,-7 -16,-11 -27,-11l-39 0c-11,0 -20,4 -28,11 -4,4 -6,8 -8,13 -2,4 -3,10 -3,15l0 39zm0 38l0 39c0,11 4,20 11,28 4,3 8,6 13,8 5,2 10,3 15,3l96 0c6,0 10,2 14,5 4,4 6,9 6,14 0,4 -2,8 -5,13 -3,4 -8,6 -15,6l-96 0c-21,0 -39,-8 -55,-23 -15,-15 -22,-33 -22,-54l0 -116c0,-21 7,-39 22,-54 15,-16 33,-23 55,-23l38 0c21,0 39,7 55,22 15,15 23,33 23,55l0 58c0,13 -7,19 -20,19l-135 0zm386 -39l0 -96c0,-5 2,-10 6,-14 4,-4 8,-5 14,-5 4,0 9,1 13,4 4,4 6,8 6,15l0 232c0,6 -2,11 -6,14 -3,3 -8,5 -13,5 -6,0 -10,-2 -14,-5 -4,-3 -6,-8 -6,-14l0 -97 -116 0 0 97c0,6 -2,11 -5,14 -4,3 -8,5 -14,5 -5,0 -10,-2 -14,-5 -3,-3 -5,-8 -5,-14l0 -232c0,-5 2,-10 5,-14 4,-4 9,-5 14,-5 5,0 9,1 13,4 4,4 6,8 6,15l0 96 116 0zm309 136c0,13 -7,19 -19,19l-97 0c-21,0 -39,-8 -54,-22 -16,-15 -23,-34 -23,-55l0 -174c0,-5 2,-10 6,-14 3,-4 8,-5 13,-5 5,0 9,1 13,4 4,4 6,8 6,15l0 174c0,11 4,20 11,28 4,3 8,6 13,8 5,2 10,3 15,3l77 0 0 -213c0,-5 2,-10 6,-14 4,-4 9,-5 14,-5 5,0 9,1 13,4 4,4 6,8 6,15l0 232zm232 -135l0 -78 -78 0c-11,0 -21,4 -29,12 -6,7 -10,16 -10,27 0,10 4,19 10,27 7,8 17,12 29,12l78 0zm-48 38l-72 107c-1,3 -4,5 -7,7l-9 2c-4,0 -8,-2 -13,-6 -4,-4 -6,-8 -6,-14 0,-3 1,-6 3,-10l58 -87c-19,-3 -34,-12 -45,-27 -11,-15 -16,-31 -16,-49 0,-21 6,-39 19,-53 15,-16 34,-24 58,-24l97 0c12,0 19,6 19,19l0 232c0,6 -2,11 -6,14 -3,3 -8,5 -13,5 -5,0 -10,-2 -14,-5 -4,-3 -5,-8 -5,-14l0 -97 -48 0zm587 97c0,13 -6,19 -19,19l-96 0c-21,0 -39,-8 -55,-22 -15,-15 -23,-34 -23,-55l0 -174c0,-5 2,-10 6,-14 4,-4 9,-5 14,-5 5,0 9,1 13,4 4,4 6,8 6,15l0 174c0,11 3,20 11,28 4,3 8,6 12,8 6,2 11,3 16,3l77 0 0 -213c0,-5 2,-10 6,-14 4,-4 8,-5 13,-5 5,0 10,1 14,4 4,4 5,8 5,15l0 232zm213 19l-58 0c-21,0 -39,-8 -54,-22 -16,-15 -23,-34 -23,-55l0 -116c0,-22 7,-40 22,-55 15,-15 34,-22 55,-22l58 0c5,0 10,2 13,5 4,4 6,9 6,14 0,4 -2,8 -5,13 -3,4 -8,6 -14,6l-58 0c-11,0 -20,4 -28,11 -4,4 -6,8 -8,13 -2,4 -3,9 -3,15l0 116c0,11 4,20 11,27 4,4 8,7 12,9 6,2 11,3 16,3l58 0c5,0 10,2 13,5 4,4 6,9 6,14 0,4 -2,8 -5,13 -3,4 -8,6 -14,6zm289 -19c0,6 -2,11 -5,14 -4,3 -8,5 -14,5 -5,0 -10,-2 -14,-5 -3,-3 -5,-8 -5,-14l0 -174c0,-11 -4,-20 -11,-28 -8,-7 -17,-11 -28,-11l-78 0 0 213c0,6 -1,11 -5,14 -4,3 -8,5 -14,5 -5,0 -9,-2 -13,-5 -4,-3 -6,-8 -6,-14l0 -232c0,-13 6,-19 19,-19l97 0c20,0 39,7 54,22 15,15 23,33 23,55l0 174zm270 -66c0,23 -8,43 -24,60 -17,17 -37,25 -61,25l-23 0c-23,0 -43,-8 -60,-25 -17,-16 -25,-36 -25,-60l0 -101c0,-22 8,-42 25,-59 17,-17 37,-25 60,-25l23 0c23,0 43,8 60,24 17,17 25,37 25,60l0 101zm-38 0l0 -101c0,-12 -5,-23 -14,-32 -9,-9 -20,-14 -33,-14l-23 0c-13,0 -24,4 -33,13 -9,10 -14,21 -14,33l0 101c0,13 5,24 14,33 9,9 20,14 33,14l23 0c13,0 24,-5 33,-14 9,-9 14,-20 14,-33zm154 47l77 0c11,0 20,-4 27,-11 8,-7 12,-17 12,-28l0 -116c0,-11 -4,-20 -11,-28 -7,-7 -17,-11 -28,-11l-77 0 0 194zm0 38l0 96c0,6 -2,10 -6,14 -4,4 -9,6 -14,6 -4,0 -8,-2 -13,-5 -4,-3 -6,-8 -6,-15l0 -347c0,-13 7,-19 19,-19l97 0c21,0 39,7 54,22 16,15 23,33 23,55l0 116c0,21 -7,39 -22,54 -15,15 -34,23 -55,23l-77 0zm386 -155l0 -96c0,-5 2,-10 6,-14 4,-4 8,-5 13,-5 5,0 10,1 13,4 4,4 6,8 6,15l0 232c0,6 -1,11 -5,14 -4,3 -8,5 -14,5 -5,0 -9,-2 -13,-5 -4,-3 -6,-8 -6,-14l0 -97 -77 0c-21,0 -39,-8 -55,-23 -15,-15 -23,-33 -23,-54l0 -58c0,-5 2,-10 6,-14 4,-4 8,-5 13,-5 5,0 10,1 14,4 4,4 6,8 6,15l0 58c0,11 3,20 11,27 4,4 8,6 12,9 6,1 11,2 15,2l78 0zm154 1l116 0 0 -39c0,-11 -4,-20 -11,-28 -7,-7 -16,-11 -28,-11l-39 0c-10,0 -20,4 -27,11 -4,4 -7,8 -9,13 -1,4 -2,10 -2,15l0 39zm0 38l0 39c0,11 3,20 11,28 4,3 8,6 12,8 6,2 11,3 15,3l97 0c5,0 10,2 14,5 4,4 5,9 5,14 0,4 -1,8 -4,13 -4,4 -8,6 -15,6l-96 0c-21,0 -39,-8 -55,-23 -15,-15 -23,-33 -23,-54l0 -116c0,-21 8,-39 23,-54 15,-16 33,-23 55,-23l38 0c21,0 39,7 55,22 15,15 22,33 22,55l0 58c0,13 -6,19 -19,19l-135 0zm386 -39l0 -96c0,-5 2,-10 6,-14 4,-4 8,-5 13,-5 5,0 10,1 14,4 3,4 5,8 5,15l0 232c0,6 -1,11 -5,14 -3,3 -8,5 -14,5 -5,0 -9,-2 -13,-5 -4,-3 -6,-8 -6,-14l0 -97 -116 0 0 97c0,6 -2,11 -6,14 -3,3 -8,5 -13,5 -5,0 -10,-2 -14,-5 -4,-3 -6,-8 -6,-14l0 -232c0,-5 2,-10 6,-14 4,-4 9,-5 14,-5 5,0 9,1 13,4 4,4 6,8 6,15l0 96 116 0zm270 0l0 -96c0,-5 2,-10 6,-14 4,-4 8,-5 13,-5 5,0 10,1 14,4 4,4 6,8 6,15l0 232c0,6 -2,11 -6,14 -3,3 -8,5 -14,5 -5,0 -9,-2 -13,-5 -4,-3 -6,-8 -6,-14l0 -97 -116 0 0 97c0,6 -2,11 -6,14 -3,3 -8,5 -13,5 -5,0 -10,-2 -14,-5 -4,-3 -5,-8 -5,-14l0 -232c0,-5 1,-10 5,-14 4,-4 9,-5 14,-5 5,0 9,1 13,4 4,4 6,8 6,15l0 96 116 0zm309 70c0,23 -9,43 -25,60 -16,17 -37,25 -60,25l-23 0c-23,0 -43,-8 -60,-25 -17,-16 -25,-36 -25,-60l0 -101c0,-22 8,-42 24,-59 17,-17 37,-25 61,-25l23 0c23,0 43,8 59,24 17,17 26,37 26,60l0 101zm-39 0l0 -101c0,-12 -4,-23 -13,-32 -9,-9 -20,-14 -33,-14l-24 0c-12,0 -23,4 -32,13 -9,10 -14,21 -14,33l0 101c0,13 4,24 14,33 9,9 20,14 32,14l24 0c12,0 23,-5 32,-14 10,-9 14,-20 14,-33zm299 68c-10,5 -23,9 -39,13l-21 3 -22 1 -27 -1 -24 -3c-14,-2 -26,-9 -35,-20 -9,-11 -14,-24 -14,-38 0,-8 2,-16 5,-24 4,-8 9,-15 17,-22l123 -85c4,-3 6,-7 6,-11 0,-9 -7,-15 -20,-20 -13,-4 -28,-6 -44,-6 -12,0 -24,1 -33,3 -10,2 -18,6 -25,11 -3,2 -7,3 -12,4 -4,0 -8,-2 -13,-6 -4,-4 -5,-9 -5,-14 0,-6 2,-11 7,-15 8,-6 20,-11 37,-15 7,-2 15,-3 24,-5 8,-1 16,-1 24,-1 6,0 10,0 15,0 5,0 10,1 16,1 6,1 13,3 21,5 14,4 25,11 34,22 9,10 14,22 14,34 0,16 -8,31 -23,44l-123 85c-5,4 -7,9 -7,15 0,4 2,9 5,13 3,4 7,7 13,8l21 2 23 1c14,0 26,-1 35,-3 4,0 9,-2 14,-4 5,-2 9,-4 14,-7l4 -1c1,-1 4,-1 6,-1 5,0 10,2 14,6 3,4 5,9 5,14 0,6 -3,12 -10,17zm280 -68c0,23 -8,43 -25,60 -16,17 -36,25 -60,25l-23 0c-23,0 -43,-8 -60,-25 -17,-16 -25,-36 -25,-60l0 -101c0,-22 8,-42 25,-59 16,-17 36,-25 60,-25l23 0c23,0 43,8 60,24 16,17 25,37 25,60l0 101zm-39 0l0 -101c0,-12 -4,-23 -13,-32 -9,-9 -20,-14 -33,-14l-23 0c-13,0 -24,4 -33,13 -9,10 -14,21 -14,33l0 101c0,13 5,24 14,33 9,9 20,14 33,14l23 0c12,0 23,-5 33,-14 9,-9 13,-20 13,-33zm-3684 625l0 -116c0,-11 -4,-20 -11,-27 -7,-8 -17,-11 -28,-11l-39 0c-11,0 -20,3 -27,11 -4,3 -7,7 -9,12 -2,5 -3,10 -3,15l0 116c0,11 4,20 12,28 3,3 8,6 12,8 6,2 11,3 15,3l39 0c11,0 20,-3 27,-11 8,-7 12,-16 12,-28zm-63 -193l-86 -82c-5,-5 -7,-11 -7,-16 0,-4 2,-8 5,-12 3,-4 8,-6 15,-6l155 0c5,0 10,2 14,6 3,4 5,9 5,14 0,4 -1,8 -5,13 -3,4 -8,6 -14,6l-106 0 102 97 5 7c12,14 18,31 18,50l0 116c0,21 -7,40 -22,55 -16,15 -34,23 -55,23l-39 0c-20,0 -39,-8 -54,-23 -15,-15 -23,-33 -23,-55l0 -116c0,-21 8,-39 23,-54 15,-15 33,-23 54,-23l15 0zm371 205l0 -139c0,-8 -2,-14 -8,-19 -5,-6 -11,-8 -19,-8l-23 0c-7,0 -13,2 -19,8 -5,5 -8,11 -8,19l0 139c0,8 2,14 8,19 2,3 5,5 9,6 4,1 7,2 10,2l23 0c8,0 14,-2 20,-8 5,-5 7,-11 7,-19zm-154 -89l39 0 0 -50c0,-18 6,-34 19,-47 12,-12 28,-19 46,-19l23 0c18,0 33,6 46,19 13,13 20,28 20,47l0 139c0,18 -7,34 -19,46 -13,13 -29,20 -47,20l-23 0c-18,0 -33,-7 -46,-20 -13,-12 -19,-28 -19,-46l0 -50 -39 0 0 96c0,6 -2,11 -6,15 -3,3 -8,5 -14,5 -5,0 -9,-2 -13,-5 -4,-4 -6,-8 -6,-15l0 -232c0,-5 2,-9 6,-14 4,-3 8,-5 13,-5 5,0 10,2 14,5 4,3 6,8 6,15l0 96zm424 135c0,6 -1,11 -5,15 -4,3 -8,5 -14,5 -5,0 -9,-2 -13,-5 -4,-4 -6,-8 -6,-15l0 -212 -44 0 -73 218c-1,4 -4,8 -7,10 -1,1 -4,2 -10,4 -6,0 -10,-2 -14,-6 -4,-3 -6,-8 -6,-13l1 -7 76 -232c3,-8 9,-13 19,-13l77 0c13,0 19,7 19,19l0 232zm270 0c0,6 -1,11 -5,15 -4,3 -8,5 -14,5 -5,0 -9,-2 -13,-5 -4,-4 -6,-8 -6,-15l0 -212 -44 0 -73 218c-1,4 -4,8 -7,10 -1,1 -4,2 -10,4 -6,0 -10,-2 -14,-6 -4,-3 -6,-8 -6,-13l1 -7 77 -232c2,-8 8,-13 18,-13l77 0c13,0 19,7 19,19l0 232zm116 -135l116 0 0 -39c0,-10 -4,-20 -11,-27 -7,-8 -16,-11 -28,-11l-38 0c-11,0 -21,3 -28,11 -4,3 -7,8 -8,12 -2,5 -3,10 -3,15l0 39zm0 39l0 38c0,11 3,20 11,28 4,3 8,6 12,8 6,2 11,3 15,3l97 0c5,0 10,2 14,6 4,4 5,8 5,13 0,5 -1,9 -4,13 -4,4 -8,7 -15,7l-96 0c-21,0 -39,-8 -55,-23 -15,-15 -23,-33 -23,-55l0 -116c0,-20 8,-38 23,-54 15,-15 33,-23 55,-23l38 0c21,0 39,8 55,23 15,15 22,33 22,54l0 58c0,13 -6,20 -19,20l-135 0zm347 -116l-77 0 0 212c0,6 -2,11 -6,15 -3,3 -8,5 -13,5 -5,0 -10,-2 -14,-5 -4,-4 -5,-8 -5,-15l0 -232c0,-12 6,-19 19,-19l173 0c21,0 39,8 54,23 16,15 23,33 23,54l0 174c0,6 -1,11 -5,15 -4,3 -8,5 -14,5 -5,0 -9,-2 -13,-5 -4,-4 -6,-8 -6,-15l0 -174c0,-11 -4,-20 -11,-27 -7,-8 -17,-11 -28,-11l-38 0 0 212c0,6 -2,11 -6,15 -3,3 -8,5 -14,5 -5,0 -9,-2 -13,-5 -4,-4 -6,-8 -6,-15l0 -212zm270 77l116 0 0 -39c0,-10 -3,-20 -11,-27 -7,-8 -16,-11 -27,-11l-39 0c-11,0 -20,3 -28,11 -3,3 -6,8 -8,12 -2,5 -3,10 -3,15l0 39zm0 39l0 38c0,11 4,20 11,28 4,3 8,6 13,8 5,2 10,3 15,3l96 0c6,0 10,2 14,6 4,4 6,8 6,13 0,5 -2,9 -5,13 -3,4 -8,7 -15,7l-96 0c-21,0 -39,-8 -54,-23 -16,-15 -23,-33 -23,-55l0 -116c0,-20 7,-38 22,-54 15,-15 33,-23 55,-23l39 0c21,0 39,8 54,23 15,15 23,33 23,54l0 58c0,13 -7,20 -20,20l-135 0zm386 -39l0 -97c0,-5 2,-9 6,-14 4,-3 9,-5 14,-5 5,0 9,2 13,5 4,3 6,8 6,14l0 232c0,6 -2,11 -6,15 -3,3 -8,5 -13,5 -5,0 -10,-2 -14,-5 -4,-4 -6,-8 -6,-15l0 -97 -116 0 0 97c0,6 -2,11 -5,15 -4,3 -8,5 -14,5 -5,0 -10,-2 -13,-5 -4,-4 -6,-8 -6,-15l0 -232c0,-5 2,-9 6,-14 3,-3 8,-5 13,-5 5,0 9,2 13,5 4,3 6,8 6,14l0 97 116 0z"/>
    <path class="fil6 str3" d="M15693 7653l0 -77 -78 0c-11,0 -20,3 -29,11 -6,8 -10,17 -10,27 0,10 4,19 10,27 7,8 17,12 29,12l78 0zm-48 39l-72 107c-1,2 -4,4 -7,7l-9 2c-4,0 -8,-2 -13,-6 -4,-4 -6,-9 -6,-14 0,-3 1,-7 3,-11l58 -86c-19,-3 -34,-12 -45,-27 -11,-15 -16,-32 -16,-50 0,-20 6,-38 19,-53 15,-16 34,-24 58,-24l97 0c13,0 19,7 19,19l0 232c0,6 -2,11 -6,15 -3,3 -8,5 -13,5 -5,0 -10,-2 -14,-5 -4,-3 -5,-8 -5,-15l0 -96 -48 0z"/>
   </g>
   <path class="fil5 str4" d="M14625 10862c0,168 120,198 270,167 303,-62 382,-845 300,-795 -119,72 -481,127 -487,371 -1,54 7,95 23,126 108,216 577,-74 787,-118 285,-61 54,-427 -255,-245 -69,41 -369,206 -402,275 -119,253 89,255 263,272 151,15 870,-293 855,-263 -2,4 -133,268 -52,213 135,-92 952,-205 540,-281 -117,-22 -560,-81 -668,-56"/>
   <path class="fil7" d="M4218 10354l0 1661 2044 0 -2044 -1661z"/>
   <path class="fil8 str5" d="M4218 10355l0 1660 2004 0"/>
   <path class="fil7" d="M7727 4553l-4083 0 0 5335 2044 1661 2620 0 0 -6416c0,-320 -260,-580 -581,-580z"/>
   <path class="fil9" d="M5683 11549l2595 0 0 -2540 -3641 1684 1046 856z"/>
   <g>
    <path class="fil10" d="M4798 10227c-47,0 -85,-33 -85,-75 0,-42 38,-76 85,-76l0 151zm2696 0l-2696 0 0 -151 2696 0 0 151zm0 -151c46,0 85,34 85,76 0,42 -39,75 -85,75l0 -151zm-3037 -3659c-46,0 -85,-33 -85,-75 0,-42 39,-76 85,-76l0 151zm3037 0l-3037 0 0 -151 3037 0 0 151zm0 -151c46,0 85,34 85,76 0,42 -39,75 -85,75l0 -151zm-3037 -321c-46,0 -85,-34 -85,-76 0,-41 39,-75 85,-75l0 151zm3037 0l-3037 0 0 -151 3037 0 0 151zm0 -151c46,0 85,34 85,75 0,42 -39,76 -85,76l0 -151zm-3037 -322c-46,0 -85,-33 -85,-75 0,-42 39,-76 85,-76l0 151zm3037 0l-3037 0 0 -151 3037 0 0 151zm0 -151c46,0 85,34 85,76 0,42 -39,75 -85,75l0 -151z"/>
   </g>
   <g>
    <path class="fil10" d="M6835 8810c-47,0 -85,-34 -85,-76 0,-41 38,-75 85,-75l0 151zm659 0l-659 0 0 -151 659 0 0 151zm0 -151c46,0 85,34 85,75 0,42 -39,76 -85,76l0 -151zm-3037 -1297c-46,0 -85,-33 -85,-75 0,-42 39,-76 85,-76l0 151zm905 0l-905 0 0 -151 905 0 0 151zm0 -151c47,0 85,34 85,76 0,42 -38,75 -85,75l0 -151zm-905 -321c-46,0 -85,-34 -85,-76 0,-41 39,-75 85,-75l0 151zm1876 0l-1876 0 0 -151 1876 0 0 151zm0 -151c47,0 85,34 85,75 0,42 -38,76 -85,76l0 -151zm-1031 3016c-47,0 -85,-34 -85,-76 0,-41 38,-75 85,-75l0 151zm2192 0l-2192 0 0 -151 2192 0 0 151zm0 -151c46,0 85,34 85,75 0,42 -39,76 -85,76l0 -151zm-1442 -321c-47,0 -85,-34 -85,-76 0,-42 38,-76 85,-76l0 152zm1442 0l-1442 0 0 -152 1442 0 0 152zm0 -152c46,0 85,34 85,76 0,42 -39,76 -85,76l0 -152z"/>
   </g>
   <path class="fil8 str5" d="M3644 9886l0 -5333 4633 0 0 6996 -2589 0"/>
   <path class="fil10" d="M4300 9013l-71 41 -86 -148 160 -92c18,-10 29,-30 14,-56 -14,-23 -37,-26 -55,-15l-198 114c-25,15 -27,36 -16,56l278 482c11,19 33,29 58,14l109 -62c100,-58 115,-137 64,-226l-26 -46c-50,-86 -131,-120 -231,-62zm184 150c28,48 23,82 -32,114l-71 41 -114 -198 71 -41c55,-31 91,-12 119,36l27 48zm208 -679l-8 5c-106,61 -95,173 -45,260l33 57 -64 37 -113 -197c-11,-18 -29,-31 -56,-16 -25,15 -26,38 -15,57l287 496c11,19 31,31 56,16 26,-15 25,-38 14,-56l-132 -229 64 -37 69 120c50,86 130,118 230,61l8 -5c100,-58 107,-152 57,-238l-150 -261c-50,-87 -135,-128 -235,-70zm311 373c28,49 31,93 -24,125l-8 4c-54,32 -86,17 -115,-32l-142 -248c-29,-48 -47,-113 11,-146l8 -5c54,-31 91,-7 120,42l150 260zm304 -113c-8,-18 -194,-397 -194,-397l110 -64 262 453c11,19 32,30 59,15 25,-15 26,-39 15,-58l-282 -488c-11,-19 -32,-30 -57,-15l-181 104c-25,15 -27,40 -17,58 0,0 200,404 204,414 5,10 13,26 14,38 0,18 -6,34 -26,45 -19,11 -29,33 -15,58 16,27 38,26 57,15 56,-32 76,-74 69,-123 -2,-18 -9,-38 -18,-55zm422 -244c-8,-18 -195,-397 -195,-397l111 -64 262 454c11,19 32,30 59,14 25,-14 26,-38 15,-57l-282 -488c-11,-19 -32,-30 -57,-16l-181 105c-25,14 -27,39 -17,58 0,0 200,404 204,414 5,10 13,25 14,37 0,18 -6,34 -26,46 -19,11 -29,33 -15,58 16,27 38,25 57,14 56,-32 76,-74 69,-123 -3,-17 -9,-37 -18,-55zm625 -228c19,-10 29,-30 15,-56 -14,-23 -37,-25 -56,-15l-169 98 -102 -178 134 -78c18,-10 29,-30 14,-55 -13,-24 -37,-26 -55,-16l-134 78 -94 -162 169 -98c18,-10 29,-30 14,-55 -13,-24 -37,-26 -55,-16l-207 120c-25,14 -26,38 -15,57l277 480c11,19 32,30 57,16l207 -120zm181 -142c11,19 32,30 58,15 25,-15 27,-39 16,-58l-262 -453 92 -53c18,-11 29,-30 14,-56 -14,-23 -37,-26 -55,-15l-257 148c-18,11 -28,32 -14,56 14,25 37,26 55,15l92 -53 261 454zm528 -267c18,-10 29,-30 14,-56 -14,-23 -37,-26 -55,-15l-169 98 -103 -178 135 -78c18,-10 28,-30 14,-55 -14,-24 -37,-26 -56,-16l-134 78 -93 -162 169 -98c18,-10 29,-30 14,-55 -14,-24 -37,-26 -55,-16l-207 120c-26,14 -27,38 -16,57l278 480c11,19 32,30 57,16l207 -120zm123 -770c-11,-19 -33,-30 -58,-15 -26,15 -27,39 -16,58l113 196 -160 93 -114 -197c-11,-19 -31,-30 -58,-15 -25,15 -27,39 -16,58l286 496c11,19 33,30 58,15 27,-15 28,-39 17,-58l-132 -228 160 -93 132 229c11,19 31,30 58,15 25,-15 27,-39 16,-58l-286 -496zm375 31l-80 46 -107 -186c-11,-19 -32,-30 -58,-15 -26,15 -27,39 -16,58l281 487c11,19 32,30 57,16l118 -68c100,-58 116,-137 64,-226l-27 -47c-50,-87 -132,-123 -232,-65zm-39 117l80 -46c54,-32 91,-13 118,36l28 47c27,47 22,82 -33,114l-79 46 -114 -197z"/>
   <path class="fil5 str6" d="M6222 12015l-45 -37 -2599 -2134"/>
   <path class="fil5 str7" d="M7961 13061c-180,-184 -176,-478 7,-657 184,-180 478,-176 657,7 179,184 176,478 -8,657 -136,133 -333,166 -499,98l-2766 -1051 -20 67 1505 654"/>
   <path class="fil5 str8" d="M7312 13899c-183,-180 -477,-176 -657,7 -179,184 -175,478 8,657 184,179 478,176 657,-7 133,-137 165,-334 98,-500l-1052 -2766 68 -20 654 1505"/>
  </g>
 </g>
</svg>
