<?xml version="1.0" encoding="UTF-8"?>
<!DOCTYPE svg PUBLIC "-//W3C//DTD SVG 1.0//EN" "http://www.w3.org/TR/2001/REC-SVG-20010904/DTD/svg10.dtd">
<!-- Creator: CorelDRAW X7 -->
<svg xmlns="http://www.w3.org/2000/svg" xml:space="preserve" width="200mm" height="200mm" version="1.0" style="shape-rendering:geometricPrecision; text-rendering:geometricPrecision; image-rendering:optimizeQuality; fill-rule:evenodd; clip-rule:evenodd"
viewBox="0 0 20000 20000"
 xmlns:xlink="http://www.w3.org/1999/xlink">
 <defs>
  <style type="text/css">
   <![CDATA[
    .str5 {stroke:#CC7588;stroke-width:25}
    .str2 {stroke:#4D897C;stroke-width:20}
    .str1 {stroke:#4D897C;stroke-width:60;stroke-linecap:round;stroke-linejoin:round}
    .str0 {stroke:#024541;stroke-width:159.99;stroke-linecap:round;stroke-linejoin:round}
    .str3 {stroke:#477FC0;stroke-width:120;stroke-linecap:round;stroke-linejoin:round}
    .str4 {stroke:#008DD2;stroke-width:71.33;stroke-linecap:round;stroke-linejoin:round}
    .fil4 {fill:none;fill-rule:nonzero}
    .fil7 {fill:#CC7588}
    .fil1 {fill:#EBF2D9}
    .fil2 {fill:#CDDBAC}
    .fil5 {fill:#4D897C}
    .fil6 {fill:#E51A4B;fill-rule:nonzero}
    .fil3 {fill:#4D897C;fill-rule:nonzero}
    .fil0 {fill:url(#id0)}
   ]]>
  </style>
  <radialGradient id="id0" gradientUnits="userSpaceOnUse" gradientTransform="matrix(1.41421 -0 -0 1.41421 -4142 -4142)" cx="10000" cy="10000" r="10000" fx="10000" fy="10000">
   <stop offset="0" style="stop-opacity:1; stop-color:#FEFEFE"/>
   <stop offset="0.439216" style="stop-opacity:1; stop-color:#FEFEFE"/>
   <stop offset="1" style="stop-opacity:1; stop-color:#D1E2F2"/>
  </radialGradient>
 </defs>
 <g id="Layer_x0020_1">
  <metadata id="CorelCorpID_0Corel-Layer"/>
  <g id="_1089152218656">
   <path class="fil0" d="M0 0l20000 0 0 20000 -20000 0 0 -20000z"/>
   <path class="fil1" d="M13007 3799l0 8832c-2205,0 -3683,0 -5888,0l0 -8832 5888 0z"/>
   <path class="fil2" d="M7119 3799l5888 0 0 3361 -5888 -2798c10,-289 0,-370 0,-563z"/>
   <g>
    <path class="fil3" d="M8101 4775l-114 0 0 -153 200 0c18,0 35,-11 35,-37 0,-25 -17,-37 -35,-37l-237 0c-26,0 -37,18 -37,38l0 498c0,19 11,37 37,37l151 0c101,0 151,-69 151,-159l0 -36c0,-92 -50,-151 -151,-151zm77 196c0,49 -21,77 -76,77l-115 0 0 -204 114 0c54,0 77,28 77,77l0 50zm496 -431c-106,0 -152,93 -152,183l0 58 -72 0 0 -203c0,-20 -8,-38 -34,-38 -25,0 -36,18 -36,38l0 514c0,19 11,37 36,37 26,0 34,-18 34,-37l0 -237 72 0 0 109c0,90 46,165 145,165l42 0c100,0 150,-73 150,-163l0 -262c0,-90 -50,-164 -150,-164l-35 0zm111 426c0,50 -22,90 -76,90l-38 0c-54,0 -75,-40 -75,-90l0 -238c0,-50 20,-114 78,-114l35 0c54,0 76,40 76,86l0 266zm314 52c5,-47 46,-396 46,-396l138 0 0 470c0,19 11,37 38,37 25,0 36,-18 36,-37l0 -506c0,-20 -11,-38 -36,-38l-206 0c-22,0 -35,16 -37,38 -3,24 -45,381 -49,413 -3,19 -5,31 -10,40 -7,15 -21,19 -44,19 -19,0 -36,12 -36,39 0,27 17,36 36,36 69,0 97,-22 113,-63 5,-16 8,-31 11,-52zm522 0c5,-47 46,-396 46,-396l138 0 0 470c0,19 11,37 38,37 25,0 36,-18 36,-37l0 -506c0,-20 -11,-38 -36,-38l-206 0c-23,0 -35,16 -38,38 -2,24 -44,381 -48,413 -3,19 -5,31 -10,40 -8,15 -21,19 -44,19 -19,0 -36,12 -36,39 0,27 17,36 36,36 69,0 97,-22 113,-63 5,-16 8,-31 11,-52zm701 103c18,0 35,-10 35,-37 0,-24 -17,-36 -35,-36l-216 0 0 -185 178 0c18,0 35,-10 35,-36 0,-25 -17,-37 -35,-37l-178 0 0 -168 216 0c18,0 35,-11 35,-37 0,-25 -17,-37 -35,-37l-253 0c-26,0 -37,18 -37,38l0 498c0,19 11,37 37,37l253 0zm297 8c26,0 37,-18 37,-37l0 -470 115 0c18,0 34,-11 34,-37 0,-25 -16,-37 -34,-37l-304 0c-18,0 -35,12 -35,37 0,26 17,37 35,37l115 0 0 470c0,19 11,37 37,37zm579 -8c18,0 35,-10 35,-37 0,-24 -17,-36 -35,-36l-215 0 0 -185 177 0c19,0 35,-10 35,-36 0,-25 -16,-37 -35,-37l-177 0 0 -168 215 0c18,0 35,-11 35,-37 0,-25 -17,-37 -35,-37l-253 0c-25,0 -36,18 -36,38l0 498c0,19 11,37 36,37l253 0zm512 -543c0,-20 -12,-38 -37,-38 -26,0 -37,18 -37,38l0 203 -207 0 0 -203c0,-20 -10,-38 -37,-38 -25,0 -37,18 -37,38l0 514c0,19 12,37 37,37 26,0 37,-18 37,-37l0 -237 207 0 0 237c0,19 10,37 37,37 25,0 37,-18 37,-37l0 -514zm352 192l-125 0 0 -192c0,-20 -11,-38 -37,-38 -26,0 -37,18 -37,38l0 506c0,19 11,37 38,37l161 0c101,0 151,-69 151,-159l0 -36c0,-92 -47,-156 -151,-156zm77 201c0,49 -21,77 -76,77l-126 0 0 -204 125 0c54,0 77,28 77,77l0 50z"/>
    <path id="1" class="fil3" d="M7987 4762l114 0 0 26 -114 0 -13 -13 13 -13zm0 26l-13 0 0 -13 13 13zm12 -166l0 153 -25 0 0 -153 13 -13 12 13zm-25 0l0 -13 13 0 -13 13zm213 13l-200 0 0 -26 200 0 0 0 0 26zm23 -50l24 0 0 0 0 3 0 3 0 3 -1 2 0 3 -1 3 -1 2 -1 3 -1 2 -1 2 -1 2 -1 3 -2 1 -1 2 -2 2 -2 2 -1 1 -2 2 -2 1 -2 1 -2 1 -2 1 -2 1 -2 1 -2 0 -2 1 -2 1 -2 0 -2 0 -2 0 -3 1 -2 0 0 -26 2 0 1 0 1 0 1 0 1 0 1 -1 1 0 2 0 1 -1 0 0 1 0 1 -1 1 0 1 -1 1 -1 0 0 1 -1 1 -1 0 0 1 -1 0 -1 1 -1 0 -1 1 -1 0 -1 1 -1 0 -2 0 -1 0 -2 1 -1 0 -2 0 -2 0 0zm-23 -24l0 -25 0 0 2 0 3 0 2 0 2 0 2 1 2 0 2 1 2 1 3 0 2 1 1 1 2 2 2 1 2 1 2 2 2 1 1 2 2 2 1 1 2 2 1 2 1 3 1 2 1 2 1 2 1 3 1 3 0 2 1 3 0 2 0 3 0 3 -24 0 0 -2 0 -1 -1 -2 0 -1 0 -2 0 -1 -1 -1 0 -1 -1 -1 0 -1 -1 -1 0 -1 -1 -1 0 -1 -1 -1 -1 0 -1 -1 0 -1 -1 0 -1 -1 -1 0 -1 -1 -1 0 -1 -1 -1 0 -1 0 -1 0 -1 -1 -1 0 -1 0 -1 0 -2 0 0 0zm-237 -25l237 0 0 25 -237 0 0 0 0 -25zm-25 50l-24 0 0 0 0 -2 0 -3 0 -2 0 -2 1 -3 0 -2 1 -2 0 -2 1 -3 1 -2 1 -2 1 -2 1 -2 2 -2 1 -2 2 -2 1 -2 2 -1 2 -2 2 -1 2 -2 2 -1 2 -1 3 -1 2 -1 3 -1 2 -1 3 0 3 -1 3 0 2 0 3 0 0 25 -1 0 -2 0 -2 0 -2 1 -1 0 -2 0 -1 1 -1 0 -1 1 -1 0 -1 1 -1 0 -1 1 -1 1 -1 0 0 1 -1 1 -1 1 0 1 -1 1 0 1 -1 1 0 1 -1 1 0 1 0 1 -1 1 0 2 0 1 0 1 0 2 0 1 0 0zm-24 498l0 -498 24 0 0 498 0 0 -24 0zm49 25l0 25 0 0 -3 0 -2 0 -3 -1 -3 0 -3 -1 -2 0 -3 -1 -2 -1 -3 -1 -2 -1 -2 -2 -2 -1 -2 -2 -2 -1 -2 -2 -1 -2 -2 -2 -1 -2 -2 -2 -1 -2 -1 -2 -1 -2 -1 -2 -1 -2 0 -2 -1 -3 0 -2 -1 -2 0 -3 0 -2 0 -2 0 -2 24 0 0 1 0 1 0 2 0 1 0 1 1 1 0 1 0 2 1 1 0 1 1 1 0 1 1 1 0 1 1 0 1 1 0 1 1 1 1 0 1 1 1 1 1 0 1 1 1 0 1 1 1 0 2 1 1 0 2 0 2 0 2 0 1 1 0 0zm151 25l-151 0 0 -25 151 0 0 0 0 25zm139 -172l24 0 0 0 0 9 -1 9 0 9 -1 8 -2 8 -2 8 -2 8 -2 8 -3 8 -3 7 -3 8 -4 7 -4 6 -4 7 -5 6 -5 6 -5 6 -6 5 -6 5 -6 5 -7 5 -7 4 -7 3 -7 4 -8 3 -8 2 -9 3 -8 2 -10 1 -9 1 -9 1 -10 0 0 -25 9 -1 8 0 8 -1 8 -1 8 -2 7 -2 7 -2 7 -3 6 -3 6 -3 6 -3 5 -4 5 -4 5 -4 5 -4 4 -5 5 -5 3 -5 4 -6 3 -5 3 -6 3 -6 3 -6 2 -7 2 -7 2 -6 1 -8 1 -7 1 -7 1 -8 1 -8 0 -8 0 0zm24 -36l0 36 -24 0 0 -36 0 0 24 0zm-163 -138l0 -26 0 0 10 0 9 1 9 1 9 1 9 2 8 2 8 2 8 3 8 3 7 3 7 4 7 4 6 4 6 5 6 5 5 5 5 6 5 5 4 7 4 6 4 7 3 7 3 7 3 7 2 8 2 8 2 8 2 8 1 8 0 9 1 9 0 9 -24 0 0 -8 -1 -8 -1 -8 -1 -7 -1 -7 -1 -7 -2 -7 -2 -6 -2 -7 -3 -6 -3 -5 -3 -6 -3 -5 -3 -5 -4 -5 -4 -4 -5 -4 -4 -4 -5 -4 -5 -4 -6 -3 -5 -3 -7 -3 -6 -2 -7 -3 -7 -2 -7 -1 -7 -2 -8 -1 -9 -1 -8 0 -9 0 0 0zm1 272l0 -25 0 0 5 0 4 0 4 -1 4 0 4 -1 4 -1 3 -1 3 -1 3 -1 3 -1 2 -1 3 -2 2 -1 2 -2 2 -2 2 -1 1 -2 2 -2 1 -2 2 -3 1 -2 1 -3 1 -3 1 -2 1 -4 1 -3 0 -3 1 -4 0 -3 0 -4 1 -4 0 -4 24 0 0 4 0 5 -1 5 0 5 -1 4 -1 5 -1 4 -1 4 -1 4 -2 4 -1 4 -2 4 -2 3 -3 4 -2 3 -3 3 -3 3 -3 3 -3 3 -4 2 -3 2 -4 2 -4 2 -4 1 -4 2 -5 1 -4 1 -5 1 -5 0 -5 1 -5 0 -6 0 0 0zm-115 -25l115 0 0 25 -115 0 -13 -12 13 -13zm0 25l-13 0 0 -12 13 12zm12 -216l0 204 -25 0 0 -204 13 -13 12 13zm-25 0l0 -13 13 0 -13 13zm127 12l-114 0 0 -25 114 0 0 0 0 25zm89 65l-24 0 0 0 0 -4 -1 -4 0 -4 0 -3 -1 -4 0 -3 -1 -3 -1 -3 -1 -3 -1 -3 -1 -3 -2 -2 -1 -3 -2 -2 -1 -2 -2 -2 -2 -2 -2 -2 -2 -1 -2 -2 -3 -1 -2 -2 -3 -1 -3 -1 -3 -1 -4 -1 -3 -1 -4 0 -4 -1 -4 0 -5 -1 -4 0 0 -25 5 0 5 0 5 1 5 1 5 0 5 1 4 2 5 1 4 2 4 1 4 2 3 3 4 2 3 3 3 2 3 3 3 3 3 4 2 3 2 4 2 4 2 4 2 4 1 4 1 4 1 4 1 5 1 4 0 5 1 5 0 5 0 4 0 0zm-24 50l0 -50 24 0 0 50 0 0 -24 0zm368 -248l-24 0 0 0 0 -9 0 -9 1 -9 1 -9 1 -9 2 -8 2 -9 2 -9 3 -8 3 -8 3 -8 3 -8 4 -8 4 -8 5 -7 5 -7 5 -7 5 -6 6 -7 6 -6 7 -5 7 -5 7 -5 8 -4 8 -4 8 -4 9 -3 9 -2 10 -2 9 -1 10 -1 11 -1 0 26 -9 0 -9 1 -8 1 -8 2 -8 2 -7 2 -7 3 -7 3 -6 4 -6 4 -6 4 -6 5 -5 5 -5 5 -5 5 -4 6 -4 6 -4 6 -4 7 -3 7 -3 7 -3 7 -2 7 -3 8 -2 7 -1 8 -2 8 -1 8 -1 8 0 8 -1 8 0 8 0 0zm-24 58l0 -58 24 0 0 58 -12 13 -12 -13zm24 0l0 13 -12 0 12 -13zm-84 -12l72 0 0 25 -72 0 -12 -13 12 -12zm0 25l-12 0 0 -13 12 13zm12 -216l0 203 -24 0 0 -203 0 0 24 0zm-46 -25l0 -26 0 0 3 0 3 1 2 0 3 0 3 1 2 1 3 1 2 1 2 1 3 1 2 1 2 2 2 1 1 2 2 2 2 2 1 2 1 2 1 2 1 2 1 2 1 2 1 2 0 2 1 2 0 3 1 2 0 2 0 2 0 2 0 3 0 2 -24 0 0 -2 0 -1 0 -2 0 -1 0 -1 -1 -2 0 -1 0 -1 0 -1 -1 -1 0 -1 -1 -1 0 -1 0 -1 -1 -1 0 -1 -1 0 -1 -1 0 -1 -1 0 -1 -1 -1 0 0 -1 -1 0 -1 -1 -2 0 -1 0 -1 -1 -2 0 -2 0 -1 0 -2 0 0 0zm-24 25l-24 0 0 0 0 -3 0 -2 0 -2 1 -2 0 -3 1 -2 0 -2 1 -2 0 -3 1 -2 1 -2 1 -2 1 -2 2 -2 1 -2 1 -2 2 -2 2 -1 1 -2 2 -1 2 -2 2 -1 2 -1 3 -1 2 -1 3 -1 2 -1 3 -1 2 0 3 0 3 -1 3 0 0 26 -2 0 -2 0 -1 0 -2 0 -1 1 -1 0 -2 0 -1 1 -1 0 -1 1 -1 0 0 1 -1 1 -1 0 -1 1 0 1 -1 1 0 0 -1 1 0 1 -1 1 0 1 -1 1 0 1 0 2 -1 1 0 1 0 1 0 2 0 1 -1 1 0 2 0 0zm-24 514l0 -514 24 0 0 514 0 0 -24 0zm48 25l0 25 0 0 -3 0 -3 0 -3 -1 -2 0 -3 -1 -2 0 -3 -1 -2 -1 -3 -1 -2 -1 -2 -2 -2 -1 -2 -2 -1 -1 -2 -2 -2 -2 -1 -2 -1 -2 -2 -2 -1 -2 -1 -2 -1 -2 -1 -2 0 -2 -1 -2 0 -3 -1 -2 0 -2 -1 -2 0 -3 0 -2 0 -2 24 0 0 1 1 2 0 1 0 1 0 1 0 2 1 1 0 1 0 1 1 1 0 1 1 1 0 1 1 1 0 1 1 1 0 0 1 1 1 1 1 0 0 1 1 1 1 0 1 1 1 0 2 0 1 1 1 0 2 0 1 1 2 0 2 0 0 0zm22 -25l24 0 0 0 0 2 0 2 0 2 0 3 0 2 -1 2 0 2 -1 2 0 3 -1 2 -1 2 -1 2 -1 2 -1 2 -1 2 -2 2 -1 2 -2 1 -2 2 -2 2 -2 1 -2 2 -2 1 -2 1 -3 1 -2 1 -3 0 -2 1 -3 0 -3 1 -2 0 -3 0 0 -25 2 0 1 0 2 -1 1 0 2 0 1 -1 1 0 1 0 1 -1 1 0 1 -1 1 0 0 -1 1 -1 1 0 0 -1 1 -1 0 -1 1 0 0 -1 1 -1 0 -1 1 -1 0 -2 0 -1 0 -1 1 -1 0 -2 0 -1 0 -1 0 -2 0 -1 0 0zm24 -237l0 237 -24 0 0 -237 12 -13 12 13zm-24 0l0 -13 12 0 -12 13zm84 13l-72 0 0 -26 72 0 12 13 -12 13zm0 -26l12 0 0 13 -12 -13zm-12 122l0 -109 24 0 0 109 0 0 -24 0zm157 153l0 25 0 0 -9 0 -10 -1 -9 -1 -9 -2 -8 -2 -9 -2 -8 -3 -7 -3 -8 -4 -7 -4 -6 -4 -7 -5 -6 -5 -6 -6 -5 -5 -5 -6 -5 -7 -4 -6 -4 -7 -4 -7 -4 -7 -3 -8 -3 -8 -2 -7 -2 -8 -2 -9 -2 -8 -1 -8 -1 -9 -1 -8 0 -9 0 -9 24 0 0 8 1 8 0 8 1 7 1 8 2 7 1 7 2 7 2 7 3 6 2 7 3 6 4 6 3 6 4 5 4 5 4 5 4 5 5 5 5 4 5 4 6 3 5 4 6 3 7 2 7 3 7 2 7 2 8 1 8 1 8 1 8 0 0 0zm42 25l-42 0 0 -25 42 0 0 0 0 25zm138 -176l24 0 0 0 0 9 -1 8 -1 9 -1 8 -1 9 -2 8 -2 8 -2 8 -3 8 -3 8 -3 7 -4 7 -4 7 -4 7 -5 6 -4 7 -6 6 -5 5 -6 6 -6 5 -7 4 -7 5 -7 4 -8 3 -7 3 -8 3 -9 2 -8 2 -9 2 -10 1 -9 1 -10 0 0 -25 9 0 8 -1 8 -1 8 -1 7 -2 8 -2 6 -3 7 -2 6 -3 6 -3 6 -4 5 -4 5 -4 5 -4 5 -5 4 -5 4 -5 4 -6 4 -5 3 -6 3 -6 3 -7 3 -6 2 -7 2 -7 2 -7 1 -7 1 -7 1 -8 1 -8 0 -7 1 -8 0 0zm24 -262l0 262 -24 0 0 -262 0 0 24 0zm-162 -151l0 -26 0 0 10 1 9 0 10 1 9 2 8 2 9 2 8 3 7 3 8 4 7 4 7 4 7 5 6 5 6 5 5 6 6 6 4 6 5 7 4 6 4 7 4 7 3 8 3 7 3 8 2 8 2 8 2 9 1 8 1 8 1 9 1 9 0 9 -24 0 -1 -8 0 -8 -1 -8 -1 -7 -1 -8 -1 -7 -2 -7 -2 -7 -2 -7 -3 -6 -3 -6 -3 -6 -3 -6 -4 -6 -4 -5 -4 -6 -4 -4 -5 -5 -5 -5 -5 -4 -5 -4 -6 -3 -6 -3 -6 -3 -7 -3 -6 -2 -8 -2 -7 -2 -8 -2 -8 -1 -8 0 -9 0 0 0zm-35 -26l35 0 0 26 -35 0 0 0 0 -26zm35 541l0 -25 0 0 5 0 4 0 4 -1 4 -1 3 0 4 -1 3 -1 3 -2 3 -1 2 -2 3 -2 2 -1 3 -2 2 -2 2 -3 2 -2 2 -3 1 -2 2 -3 1 -3 1 -3 2 -3 1 -4 1 -3 1 -4 0 -4 1 -3 1 -4 0 -5 0 -4 1 -4 0 -4 24 0 0 5 0 5 -1 5 0 5 -1 4 -1 5 -1 5 -1 4 -1 5 -1 4 -2 5 -2 4 -2 4 -2 4 -2 4 -3 4 -3 3 -3 3 -3 4 -4 3 -3 2 -4 3 -4 2 -4 2 -5 2 -4 2 -5 1 -5 1 -5 1 -5 1 -5 0 -6 0 0 0zm-38 -25l38 0 0 25 -38 0 0 0 0 -25zm-87 -77l24 0 0 0 0 4 0 4 1 4 0 5 0 4 1 3 1 4 1 4 1 3 1 4 1 3 1 3 2 3 1 3 2 2 2 3 2 2 2 3 2 2 2 2 3 1 2 2 3 2 3 1 3 2 3 1 3 1 4 0 4 1 4 1 4 0 4 0 0 25 -5 0 -6 0 -5 -1 -5 -1 -5 -1 -4 -1 -5 -2 -4 -2 -4 -2 -4 -2 -4 -3 -4 -2 -3 -3 -3 -4 -4 -3 -2 -3 -3 -4 -2 -4 -3 -4 -2 -4 -1 -4 -2 -5 -1 -4 -2 -4 -1 -5 -1 -5 -1 -5 0 -4 -1 -5 0 -5 0 -5 0 -5 0 0zm24 -238l0 238 -24 0 0 -238 0 0 24 0zm66 -127l0 25 0 0 -5 1 -4 0 -4 1 -4 1 -3 1 -4 1 -3 2 -3 2 -3 2 -3 3 -3 2 -2 3 -3 3 -2 3 -2 4 -2 3 -2 4 -2 4 -2 4 -1 4 -2 4 -1 5 -1 4 -1 5 -1 4 -1 5 -1 5 0 4 0 5 -1 4 0 5 0 4 -24 0 0 -5 0 -5 0 -5 1 -6 0 -5 1 -5 1 -5 1 -6 1 -5 2 -5 1 -6 2 -5 2 -5 2 -5 2 -5 3 -4 2 -5 3 -4 3 -5 4 -4 3 -4 4 -4 4 -3 5 -3 4 -3 5 -3 5 -2 6 -2 5 -1 6 -1 6 -1 6 0 0 0zm35 25l-35 0 0 -25 35 0 0 0 0 25zm88 74l-24 0 0 0 0 -4 -1 -4 0 -4 0 -4 -1 -3 -1 -4 0 -3 -1 -4 -1 -3 -1 -3 -2 -3 -1 -3 -1 -3 -2 -2 -2 -3 -1 -3 -2 -2 -2 -2 -3 -2 -2 -2 -2 -2 -3 -2 -3 -1 -2 -2 -3 -1 -4 -1 -3 -1 -4 -1 -3 -1 -4 0 -4 -1 -5 0 0 -25 6 0 5 1 5 0 5 1 5 1 5 2 4 1 5 2 4 2 4 3 3 2 4 3 3 3 4 3 3 3 2 4 3 3 3 4 2 4 2 4 2 4 1 4 2 4 1 4 1 5 1 4 1 5 1 4 0 5 1 4 0 5 0 5 0 0zm-24 266l0 -266 24 0 0 266 0 0 -24 0zm372 -357l0 26 12 -12 0 1 0 3 -1 5 0 7 -1 8 -1 9 -2 11 -1 12 -2 13 -1 14 -2 15 -2 15 -2 17 -2 16 -2 18 -2 17 -2 18 -2 17 -2 18 -2 17 -2 17 -2 16 -2 16 -1 15 -2 14 -2 14 -1 12 -1 11 -2 10 -1 8 0 7 -1 6 -24 -3 0 -6 1 -7 1 -8 1 -10 2 -11 1 -12 2 -14 1 -14 2 -15 2 -16 2 -16 2 -17 2 -18 2 -17 2 -18 2 -17 2 -17 2 -18 2 -16 2 -17 2 -15 2 -15 1 -14 2 -13 1 -12 1 -11 1 -10 1 -8 1 -6 1 -5 0 -3 0 -1 12 -11zm-12 11l1 -11 11 0 -12 11zm150 15l-138 0 0 -26 138 0 12 13 -12 13zm0 -26l12 0 0 13 -12 -13zm-12 483l0 -470 24 0 0 470 0 0 -24 0zm50 25l0 25 0 0 -3 0 -3 0 -3 -1 -3 0 -2 -1 -3 0 -3 -1 -2 -1 -2 -1 -3 -1 -2 -2 -2 -1 -2 -1 -2 -2 -1 -2 -2 -2 -2 -1 -1 -2 -1 -2 -2 -2 -1 -2 -1 -3 -1 -2 0 -2 -1 -2 -1 -3 0 -2 -1 -2 0 -2 0 -3 0 -2 0 -2 24 0 0 1 0 1 0 2 1 1 0 1 0 2 0 1 1 1 0 1 0 1 1 1 0 1 1 1 1 1 0 1 1 0 1 1 0 1 1 1 1 0 1 1 1 0 1 1 1 1 1 0 2 0 1 1 2 0 1 0 2 1 2 0 2 0 0 0zm24 -25l24 0 0 0 0 2 0 2 0 3 -1 2 0 2 0 2 -1 3 -1 2 0 2 -1 2 -1 2 -1 2 -1 3 -2 2 -1 1 -2 2 -1 2 -2 2 -2 1 -2 2 -2 1 -2 2 -2 1 -2 1 -3 1 -2 1 -3 0 -2 1 -3 0 -3 1 -2 0 -3 0 0 -25 2 0 1 0 2 -1 1 0 2 0 1 -1 1 0 1 0 1 -1 1 0 1 -1 1 -1 1 0 1 -1 0 -1 1 -1 1 0 0 -1 1 -1 1 -1 0 -1 0 -1 1 -1 0 -1 1 -1 0 -1 0 -2 0 -1 1 -1 0 -2 0 -1 0 -1 0 0zm24 -506l0 506 -24 0 0 -506 0 0 24 0zm-48 -25l0 -25 0 0 3 0 2 0 3 0 3 1 2 0 3 1 2 1 3 1 2 1 2 1 2 1 2 2 2 1 2 2 2 2 1 1 2 2 1 2 2 2 1 2 1 2 1 2 1 2 0 3 1 2 1 2 0 2 0 3 1 2 0 2 0 3 0 2 -24 0 0 -1 0 -2 0 -1 -1 -1 0 -2 0 -1 0 -1 -1 -1 0 -1 -1 -1 0 -1 0 -1 -1 -1 -1 -1 0 -1 -1 -1 -1 -1 0 0 -1 -1 -1 -1 -1 0 -1 -1 -1 0 -1 -1 -1 0 -1 -1 -1 0 -2 -1 -1 0 -2 0 -1 0 -2 0 0 0zm-206 -25l206 0 0 25 -206 0 0 0 0 -25zm-25 51l-24 -2 0 -1 0 -2 0 -2 1 -3 0 -2 1 -3 0 -2 1 -2 1 -2 1 -2 1 -3 1 -2 1 -2 2 -2 1 -2 2 -1 1 -2 2 -2 2 -1 1 -2 2 -1 2 -2 2 -1 3 -1 2 -1 2 -1 2 0 3 -1 2 -1 3 0 2 0 3 0 2 0 0 25 -1 0 -2 0 -1 0 -2 0 -1 1 -1 0 -1 0 -1 1 -1 0 -1 1 -1 0 -1 1 -1 1 -1 0 -1 1 0 1 -1 0 -1 1 -1 1 0 1 -1 1 0 1 -1 1 -1 2 0 1 0 1 -1 2 0 1 -1 2 0 1 0 2 0 1 0 0zm-24 -2l0 -1 0 0 0 1zm-25 416l-24 -3 0 0 0 -4 1 -6 1 -7 1 -9 1 -11 2 -11 1 -13 2 -14 1 -15 2 -16 2 -16 2 -17 2 -17 2 -18 3 -18 2 -18 2 -18 2 -18 2 -18 2 -17 2 -17 2 -16 2 -15 1 -15 2 -13 2 -12 1 -12 1 -9 1 -9 1 -6 0 -5 1 -3 24 2 -1 3 0 6 -1 6 -1 9 -1 9 -1 12 -2 12 -1 14 -2 14 -2 15 -2 16 -2 17 -2 17 -2 18 -2 18 -2 18 -2 18 -2 18 -2 18 -3 17 -2 17 -2 17 -1 15 -2 15 -2 14 -1 13 -2 11 -1 11 -1 9 -1 7 -1 6 0 4 0 0zm0 0l0 0 0 2 0 -2zm-11 43l-21 -11 0 -1 0 -1 1 0 0 0 0 -1 0 -1 1 0 0 -1 0 -1 0 -1 1 0 0 -1 0 -1 0 -1 1 -1 0 -1 0 -1 0 -1 1 -1 0 -1 0 -2 0 -1 1 -1 0 -2 0 -1 0 -1 0 -2 1 -1 0 -2 0 -1 0 -2 1 -2 0 -1 24 3 0 2 -1 1 0 2 0 2 0 1 0 2 -1 2 0 1 0 2 0 1 -1 2 0 1 0 2 -1 1 0 1 0 2 0 1 -1 1 0 2 0 1 -1 1 0 2 -1 1 0 1 0 1 -1 1 0 2 -1 1 0 1 -1 1 -1 1 0 1 0 -1zm-21 -11l0 -1 0 0 0 1zm-34 38l0 -26 0 0 2 0 2 0 2 0 2 0 2 0 1 0 2 0 1 0 2 0 1 -1 1 0 1 0 1 -1 2 0 1 0 0 -1 1 0 1 0 1 -1 1 0 0 -1 1 0 1 -1 0 0 1 -1 0 0 1 -1 0 -1 1 -1 1 0 0 -1 1 -1 21 11 -1 2 -1 2 -1 2 -1 1 -1 2 -2 2 -1 1 -1 2 -2 1 -1 1 -2 1 -2 1 -1 1 -2 1 -2 1 -2 1 -1 1 -2 0 -2 1 -2 0 -2 1 -2 0 -2 1 -2 0 -2 0 -2 0 -2 0 -2 1 -2 0 -2 0 -2 0 -3 0 0 0zm-24 26l-24 0 0 0 0 -3 0 -3 1 -3 0 -3 1 -3 0 -2 1 -3 1 -2 1 -3 1 -2 1 -2 2 -2 1 -2 2 -2 1 -2 2 -2 2 -1 2 -2 1 -1 2 -2 2 -1 2 -1 3 -1 2 0 2 -1 2 -1 2 0 2 -1 3 0 2 0 2 0 2 -1 0 26 -1 0 -1 0 -1 0 -2 0 -1 0 -1 1 -1 0 -1 0 -1 1 -1 0 -1 1 -1 0 -1 1 -1 1 -1 0 -1 1 0 1 -1 0 -1 1 0 1 -1 1 -1 1 0 1 -1 1 0 2 0 1 -1 1 0 2 0 1 -1 2 0 2 0 2 0 0zm24 24l0 25 0 0 -2 0 -2 0 -2 0 -2 0 -2 -1 -2 0 -3 -1 -2 0 -2 -1 -2 -1 -2 -1 -2 -1 -2 -1 -2 -1 -2 -1 -2 -2 -1 -1 -2 -2 -2 -2 -1 -2 -2 -2 -1 -2 -1 -3 -1 -2 -1 -2 -1 -3 0 -3 -1 -3 0 -2 -1 -3 0 -3 0 -3 24 0 0 2 0 2 1 1 0 2 0 1 1 2 0 1 0 1 1 1 0 1 1 1 0 1 1 1 1 0 0 1 1 1 1 0 0 1 1 0 1 1 1 0 1 1 1 0 1 0 1 1 1 0 2 0 1 0 1 1 2 0 1 0 1 0 0 0zm101 -56l23 9 0 0 -2 4 -1 4 -2 4 -2 4 -2 4 -2 4 -3 3 -2 4 -3 3 -3 3 -2 3 -4 3 -3 3 -3 3 -4 2 -3 3 -4 2 -4 2 -5 2 -4 2 -4 2 -5 1 -5 1 -5 2 -5 1 -5 1 -6 0 -6 1 -6 1 -6 0 -6 0 -7 0 0 -25 6 0 6 0 6 -1 5 0 5 -1 5 0 5 -1 4 -1 4 -1 4 -1 4 -1 4 -2 3 -1 3 -2 3 -1 3 -2 3 -2 3 -2 2 -2 2 -2 3 -2 2 -2 2 -2 2 -3 2 -3 1 -2 2 -3 2 -3 1 -3 2 -3 1 -4 2 -3 -1 0zm23 9l0 0 0 0 0 0zm-12 -57l24 3 0 0 0 2 -1 2 0 2 0 1 0 2 -1 2 0 2 0 2 0 2 -1 1 0 2 0 2 -1 2 0 1 0 2 -1 2 0 1 0 2 -1 2 0 1 0 2 -1 1 0 2 -1 2 0 1 -1 2 0 1 -1 2 0 1 -1 2 0 1 -1 2 -23 -9 1 -1 0 -2 1 -1 0 -1 1 -2 0 -1 1 -1 0 -2 0 -1 1 -1 0 -2 0 -1 1 -1 0 -2 0 -1 1 -2 0 -1 0 -2 1 -1 0 -2 0 -1 0 -2 1 -1 0 -2 0 -2 0 -1 1 -2 0 -2 0 -2 0 -2 1 -1 0 -2 0 0zm0 0l0 0 0 0 0 0zm580 -408l0 26 12 -12 0 1 0 3 -1 5 -1 7 0 8 -2 9 -1 11 -1 12 -2 13 -1 14 -2 15 -2 15 -2 17 -2 16 -2 18 -2 17 -2 18 -2 17 -2 18 -2 17 -2 17 -2 16 -2 16 -2 15 -1 14 -2 14 -1 12 -2 11 -1 10 -1 8 -1 7 0 6 -24 -3 0 -6 1 -7 1 -8 1 -10 2 -11 1 -12 2 -14 1 -14 2 -15 2 -16 2 -16 2 -17 2 -18 2 -17 2 -18 2 -17 2 -17 2 -18 2 -16 2 -17 2 -15 1 -15 2 -14 2 -13 1 -12 1 -11 1 -10 1 -8 1 -6 1 -5 0 -3 0 -1 12 -11zm-12 11l1 -11 11 0 -12 11zm150 15l-138 0 0 -26 138 0 12 13 -12 13zm0 -26l12 0 0 13 -12 -13zm-12 483l0 -470 24 0 0 470 0 0 -24 0zm50 25l0 25 0 0 -3 0 -3 0 -3 -1 -3 0 -2 -1 -3 0 -3 -1 -2 -1 -2 -1 -3 -1 -2 -2 -2 -1 -2 -1 -2 -2 -2 -2 -1 -2 -2 -1 -1 -2 -2 -2 -1 -2 -1 -2 -1 -3 -1 -2 -1 -2 0 -2 -1 -3 0 -2 -1 -2 0 -2 0 -3 0 -2 0 -2 24 0 0 1 0 1 0 2 0 1 1 1 0 2 0 1 1 1 0 1 0 1 1 1 0 1 1 1 0 1 1 1 1 0 0 1 1 1 1 1 1 0 1 1 1 0 1 1 1 0 1 1 1 0 2 1 1 0 2 0 2 1 2 0 2 0 0 0zm24 -25l24 0 0 0 0 2 0 2 0 3 -1 2 0 2 -1 2 0 3 -1 2 -1 2 0 2 -1 2 -1 2 -2 3 -1 2 -1 1 -2 2 -1 2 -2 2 -2 1 -2 2 -2 1 -2 2 -2 1 -2 1 -3 1 -2 1 -3 0 -2 1 -3 0 -3 1 -3 0 -2 0 0 -25 1 0 2 0 2 -1 1 0 2 0 1 -1 1 0 1 0 1 -1 1 0 1 -1 1 -1 1 0 1 -1 0 -1 1 -1 1 0 0 -1 1 -1 0 -1 1 -1 0 -1 1 -1 0 -1 1 -1 0 -1 0 -2 0 -1 0 -1 1 -2 0 -1 0 -1 0 0zm24 -506l0 506 -24 0 0 -506 0 0 24 0zm-48 -25l0 -25 0 0 2 0 3 0 3 0 3 1 2 0 3 1 2 1 3 1 2 1 2 1 2 1 2 2 2 1 2 2 2 2 1 1 2 2 1 2 1 2 2 2 1 2 1 2 0 2 1 3 1 2 0 2 1 2 0 3 1 2 0 2 0 3 0 2 -24 0 0 -1 0 -2 -1 -1 0 -1 0 -2 0 -1 0 -1 -1 -1 0 -1 -1 -1 0 -1 -1 -1 0 -1 -1 -1 0 -1 -1 -1 -1 -1 0 0 -1 -1 -1 -1 -1 0 -1 -1 -1 0 -1 -1 -1 0 -1 -1 -1 0 -2 -1 -1 0 -2 0 -2 0 -1 0 0 0zm-206 -25l206 0 0 25 -206 0 0 0 0 -25zm-25 51l-25 -2 0 -1 1 -2 0 -2 1 -3 0 -2 1 -3 0 -2 1 -2 1 -2 1 -2 1 -3 1 -2 1 -2 2 -2 1 -2 1 -1 2 -2 2 -2 1 -1 2 -2 2 -1 2 -2 2 -1 2 -1 3 -1 2 -1 2 0 3 -1 2 -1 3 0 2 0 3 0 2 0 0 25 -1 0 -2 0 -1 0 -2 0 -1 1 -1 0 -1 0 -2 1 -1 0 -1 1 0 0 -1 1 -1 1 -1 0 -1 1 -1 1 0 0 -1 1 -1 1 0 1 -1 1 -1 1 0 1 -1 2 0 1 -1 1 0 2 0 1 -1 1 0 2 0 2 0 1 0 0zm-25 -2l0 0 0 -1 0 1zm-24 416l-24 -3 0 0 0 -4 1 -6 1 -7 1 -9 1 -11 1 -11 2 -13 2 -14 1 -15 2 -16 2 -16 2 -17 2 -17 2 -18 2 -18 3 -18 2 -18 2 -18 2 -18 2 -17 2 -17 2 -16 2 -15 1 -15 2 -13 1 -12 2 -12 1 -9 1 -9 1 -6 0 -5 0 -3 25 2 -1 3 0 6 -1 6 -1 9 -1 9 -1 12 -2 12 -2 14 -1 14 -2 15 -2 16 -2 17 -2 17 -2 18 -2 18 -2 18 -2 18 -3 18 -2 18 -2 17 -2 17 -2 17 -2 15 -1 15 -2 14 -1 13 -2 11 -1 11 -1 9 -1 7 -1 6 0 4 0 0zm0 0l0 0 0 1 0 -1zm-11 43l-21 -11 0 -1 0 -1 0 0 1 0 0 -1 0 -1 0 0 1 -1 0 -1 0 -1 1 0 0 -1 0 -1 0 -1 1 -1 0 -1 0 -1 0 -1 1 -1 0 -1 0 -2 0 -1 0 -1 1 -2 0 -1 0 -1 0 -2 1 -1 0 -2 0 -1 0 -2 0 -2 1 -1 24 3 0 2 -1 1 0 2 0 2 0 1 -1 2 0 2 0 1 0 2 -1 1 0 2 0 1 0 2 -1 1 0 1 0 2 -1 1 0 1 0 2 -1 1 0 1 0 2 -1 1 0 1 -1 1 0 1 -1 2 0 1 -1 1 0 1 -1 1 0 1 0 -1zm-21 -11l0 -1 0 0 0 1zm-34 38l0 -26 0 0 2 0 2 0 2 0 2 0 1 0 2 0 2 0 1 0 1 0 2 -1 1 0 1 0 1 -1 1 0 1 0 1 -1 1 0 1 0 1 -1 1 0 0 -1 1 0 0 -1 1 0 1 -1 0 0 1 -1 0 -1 1 -1 0 0 1 -1 1 -1 21 11 -1 2 -1 2 -1 2 -1 1 -1 2 -2 2 -1 1 -2 2 -1 1 -2 1 -1 1 -2 1 -1 1 -2 1 -2 1 -2 1 -1 1 -2 0 -2 1 -2 0 -2 1 -2 0 -2 1 -2 0 -2 0 -2 0 -2 0 -2 1 -2 0 -2 0 -3 0 -2 0 0 0zm-24 26l-24 0 0 0 0 -3 0 -3 0 -3 1 -3 0 -3 1 -2 1 -3 1 -2 1 -3 1 -2 1 -2 2 -2 1 -2 2 -2 1 -2 2 -2 2 -1 1 -2 2 -1 2 -2 2 -1 2 -1 2 -1 3 0 2 -1 2 -1 2 0 2 -1 2 0 3 0 2 0 2 -1 0 26 -1 0 -1 0 -2 0 -1 0 -1 0 -1 1 -1 0 -1 0 -1 1 -1 0 -1 1 -1 0 -1 1 -1 1 -1 0 -1 1 -1 1 0 0 -1 1 -1 1 0 1 -1 1 0 1 -1 1 0 2 -1 1 0 1 0 2 0 1 -1 2 0 2 0 2 0 0zm24 24l0 25 0 0 -2 0 -2 0 -2 0 -2 0 -2 -1 -3 0 -2 -1 -2 0 -2 -1 -2 -1 -2 -1 -2 -1 -2 -1 -2 -1 -2 -1 -2 -2 -1 -1 -2 -2 -2 -2 -1 -2 -2 -2 -1 -2 -1 -3 -1 -2 -1 -2 -1 -3 -1 -3 0 -3 -1 -2 0 -3 0 -3 0 -3 24 0 0 2 0 2 1 1 0 2 0 1 0 2 1 1 0 1 1 1 0 1 1 1 0 1 1 1 0 0 1 1 1 1 0 0 1 1 1 0 1 1 1 0 1 1 1 0 1 0 1 1 1 0 1 0 2 0 1 1 1 0 2 0 1 0 0 0zm101 -56l23 9 0 0 -2 4 -1 4 -2 4 -2 4 -2 4 -2 4 -3 3 -2 4 -3 3 -3 3 -3 3 -3 3 -3 3 -3 3 -4 2 -4 3 -3 2 -4 2 -5 2 -4 2 -4 2 -5 1 -5 1 -5 2 -5 1 -6 1 -5 0 -6 1 -6 1 -6 0 -6 0 -7 0 0 -25 6 0 6 0 6 -1 5 0 5 -1 5 0 4 -1 5 -1 4 -1 4 -1 4 -1 3 -2 4 -1 3 -2 3 -1 3 -2 3 -2 2 -2 3 -2 2 -2 2 -2 3 -2 2 -2 2 -3 1 -3 2 -2 2 -3 2 -3 1 -3 2 -3 1 -4 1 -3 0 0zm23 9l0 0 0 0 0 0zm-12 -57l24 3 0 0 0 2 -1 2 0 2 0 1 0 2 -1 2 0 2 0 2 0 2 -1 1 0 2 0 2 -1 2 0 1 0 2 -1 2 0 1 0 2 -1 2 0 1 -1 2 0 1 0 2 -1 2 0 1 -1 2 0 1 -1 2 0 1 -1 2 0 1 -1 2 -23 -9 1 -1 0 -2 1 -1 0 -1 1 -2 0 -1 0 -1 1 -2 0 -1 1 -1 0 -2 0 -1 1 -1 0 -2 0 -1 1 -2 0 -1 0 -2 0 -1 1 -2 0 -1 0 -2 1 -1 0 -2 0 -2 0 -1 1 -2 0 -2 0 -2 0 -2 0 -1 1 -2 0 0zm0 0l0 0 0 -1 0 1zm735 67l25 0 0 0 0 3 0 3 -1 3 0 3 -1 2 0 3 -1 2 -1 3 -1 2 -1 3 -1 2 -2 2 -1 2 -2 2 -1 1 -2 2 -2 2 -1 1 -2 1 -2 1 -2 2 -2 1 -2 0 -2 1 -2 1 -2 0 -2 1 -2 0 -3 0 -2 1 -2 0 -2 0 0 -25 1 -1 2 0 1 0 1 0 1 0 1 0 1 -1 1 0 1 0 1 -1 1 0 1 -1 1 0 1 -1 0 0 1 -1 1 -1 0 0 1 -1 1 -1 0 -1 1 -1 0 -1 1 -1 0 -1 0 -1 1 -1 0 -2 0 -1 0 -2 0 -2 0 -2 0 0zm-22 -24l0 -25 0 0 2 0 2 0 3 0 2 1 2 0 2 1 2 0 2 1 2 1 2 1 2 1 2 1 2 1 2 1 2 2 1 1 2 2 2 2 1 2 1 2 2 2 1 2 1 2 1 2 1 3 1 2 0 3 1 2 0 3 1 3 0 3 0 2 -25 0 0 -1 0 -2 0 -1 0 -2 0 -1 -1 -2 0 -1 0 -1 -1 -1 0 -1 -1 -1 -1 -1 0 -1 -1 0 0 -1 -1 -1 -1 -1 -1 0 0 -1 -1 0 -1 -1 -1 0 -1 -1 -1 0 -1 -1 -1 0 -1 0 -1 0 -1 -1 -2 0 -1 0 -1 0 0 0zm-216 -25l216 0 0 25 -216 0 -12 -12 12 -13zm0 25l-12 0 0 -12 12 12zm13 -197l0 185 -25 0 0 -185 12 -12 13 12zm-25 0l0 -12 12 0 -12 12zm190 13l-178 0 0 -25 178 0 0 0 0 25zm23 -49l24 0 0 0 0 2 0 3 -1 3 0 3 0 3 -1 2 -1 3 -1 2 -1 2 -1 3 -1 2 -1 2 -2 2 -1 2 -2 2 -2 1 -1 2 -2 1 -2 1 -2 2 -2 1 -2 1 -2 1 -2 0 -2 1 -2 1 -2 0 -2 0 -2 1 -3 0 -2 0 -2 0 0 -25 1 0 2 0 1 -1 1 0 1 0 1 0 1 0 2 -1 0 0 1 -1 1 0 1 0 1 -1 1 0 1 -1 0 -1 1 0 1 -1 0 -1 1 -1 0 0 1 -1 0 -1 1 -1 0 -2 1 -1 0 -1 0 -2 0 -1 1 -2 0 -2 0 -1 0 0zm-23 -25l0 -25 0 0 2 0 3 0 2 0 2 1 2 0 2 1 2 0 2 1 2 1 2 1 2 1 2 1 2 1 2 2 2 1 2 2 1 1 2 2 1 2 2 2 1 2 1 2 1 2 1 3 1 2 1 2 1 3 0 3 0 2 1 3 0 3 0 3 -24 0 0 -2 0 -2 -1 -1 0 -2 0 -1 0 -1 -1 -2 0 -1 -1 -1 0 -1 -1 -1 0 -1 -1 -1 -1 0 0 -1 -1 -1 -1 0 0 -1 -1 -1 -1 0 -1 -1 -1 0 -1 -1 -1 0 -1 0 -1 -1 -1 0 -1 0 -1 0 -1 -1 -2 0 -1 0 0 0zm-178 -25l178 0 0 25 -178 0 -12 -12 12 -13zm0 25l-12 0 0 -12 12 12zm13 -180l0 168 -25 0 0 -168 12 -13 13 13zm-25 0l0 -13 12 0 -12 13zm228 13l-216 0 0 -26 216 0 0 0 0 26zm22 -50l25 0 0 0 0 3 0 3 -1 3 0 2 -1 3 0 3 -1 2 -1 3 -1 2 -1 2 -1 2 -2 3 -1 1 -2 2 -1 2 -2 2 -2 1 -1 2 -2 1 -2 1 -2 1 -2 1 -2 1 -2 1 -2 0 -2 1 -2 1 -2 0 -3 0 -2 0 -2 1 -2 0 0 -26 1 0 2 0 1 0 1 0 1 0 1 -1 1 0 1 0 1 -1 1 0 1 0 1 -1 1 0 1 -1 0 -1 1 0 1 -1 0 -1 1 0 1 -1 0 -1 1 -1 0 -1 1 -1 0 -1 0 -1 1 -2 0 -1 0 -2 0 -1 0 -2 0 -2 0 0zm-22 -24l0 -25 0 0 2 0 2 0 3 0 2 0 2 1 2 0 2 1 2 1 2 0 2 1 2 1 2 2 2 1 2 1 2 2 1 1 2 2 2 2 1 1 1 2 2 2 1 3 1 2 1 2 1 2 1 3 0 3 1 2 0 3 1 2 0 3 0 3 -25 0 0 -2 0 -1 0 -2 0 -1 0 -2 -1 -1 0 -1 0 -1 -1 -1 0 -1 -1 -1 -1 -1 0 -1 -1 -1 0 -1 -1 0 -1 -1 -1 -1 0 0 -1 -1 -1 0 -1 -1 -1 0 -1 -1 -1 0 -1 0 -1 0 -1 -1 -1 0 -2 0 -1 0 -1 0 0 0zm-253 -25l253 0 0 25 -253 0 0 0 0 -25zm-24 50l-25 0 0 0 0 -2 0 -3 1 -2 0 -2 0 -3 1 -2 0 -2 1 -2 1 -2 1 -3 1 -2 1 -2 1 -2 1 -2 2 -2 1 -2 2 -1 1 -2 2 -2 2 -1 2 -2 2 -1 2 -1 3 -1 2 -1 3 -1 2 -1 3 0 2 -1 3 0 3 0 3 0 0 25 -2 0 -2 0 -1 0 -2 0 -1 1 -2 0 -1 1 -1 0 -1 1 -1 0 -1 1 -1 0 -1 1 0 1 -1 0 -1 1 0 1 -1 1 -1 1 0 1 -1 1 0 1 -1 1 0 1 0 1 -1 1 0 1 0 2 0 1 0 1 0 2 0 1 0 0zm-25 498l0 -498 25 0 0 498 0 0 -25 0zm49 25l0 25 0 0 -3 0 -3 0 -3 -1 -2 0 -3 -1 -2 0 -3 -1 -2 -1 -3 -1 -2 -2 -2 -1 -2 -1 -2 -2 -2 -1 -1 -2 -2 -2 -1 -2 -2 -2 -1 -2 -1 -2 -1 -2 -1 -2 -1 -2 -1 -2 -1 -2 0 -3 -1 -2 0 -2 0 -3 -1 -2 0 -2 0 -2 25 0 0 1 0 1 0 2 0 1 0 1 0 1 1 2 0 1 0 1 1 1 0 1 1 1 0 1 1 1 1 1 0 0 1 1 1 1 0 1 1 0 1 1 1 0 1 1 1 0 1 1 1 0 2 1 1 0 2 0 1 0 2 0 2 1 0 0zm253 25l-253 0 0 -25 253 0 0 0 0 25zm322 -42l24 0 0 0 0 2 0 2 0 3 -1 2 0 2 -1 2 0 3 -1 2 -1 2 0 2 -1 2 -1 3 -2 2 -1 2 -1 2 -2 1 -1 2 -2 2 -2 1 -2 2 -2 1 -2 2 -2 1 -3 1 -2 1 -3 1 -2 0 -3 1 -3 0 -2 1 -3 0 -3 0 0 -25 2 0 2 0 1 -1 2 0 1 0 2 -1 1 0 1 0 1 -1 1 -1 1 0 1 -1 1 0 1 -1 0 -1 1 -1 1 0 0 -1 1 -1 0 -1 1 -1 0 -1 1 -1 0 -1 1 -1 0 -1 0 -2 0 -1 0 -1 1 -2 0 -1 0 -1 0 0zm24 -470l0 470 -24 0 0 -470 12 -13 12 13zm-24 0l0 -13 12 0 -12 13zm127 13l-115 0 0 -26 115 0 0 0 0 26zm22 -50l24 0 0 0 0 3 0 3 0 3 0 2 -1 3 -1 3 0 2 -1 3 -1 2 -1 2 -2 2 -1 3 -1 1 -2 2 -1 2 -2 2 -2 1 -2 2 -2 1 -1 1 -2 1 -2 1 -2 1 -2 1 -2 0 -3 1 -2 1 -2 0 -2 0 -2 0 -2 1 -2 0 0 -26 1 0 1 0 1 0 2 0 1 0 1 -1 1 0 1 0 1 -1 1 0 1 0 1 -1 0 0 1 -1 1 -1 1 0 0 -1 1 -1 1 0 0 -1 1 -1 0 -1 1 -1 0 -1 1 -1 0 -1 0 -2 1 -1 0 -2 0 -1 0 -2 0 -2 0 0zm-22 -24l0 -25 0 0 2 0 2 0 2 0 2 0 3 1 2 0 2 1 2 1 2 0 2 1 2 1 2 2 2 1 2 1 1 2 2 1 2 2 1 2 2 1 1 2 1 2 2 3 1 2 1 2 1 2 0 3 1 3 1 2 0 3 0 2 0 3 0 3 -24 0 0 -2 0 -1 0 -2 0 -1 -1 -2 0 -1 0 -1 -1 -1 0 -1 -1 -1 0 -1 -1 -1 0 -1 -1 -1 -1 -1 0 0 -1 -1 -1 -1 -1 0 -1 -1 0 0 -1 -1 -1 0 -1 -1 -1 0 -1 0 -1 0 -2 -1 -1 0 -1 0 -1 0 -1 0 0 0zm-304 -25l304 0 0 25 -304 0 0 0 0 -25zm-22 49l-25 0 0 0 0 -3 0 -3 1 -2 0 -3 1 -2 0 -3 1 -3 1 -2 1 -2 1 -2 1 -3 2 -2 1 -2 1 -1 2 -2 2 -2 1 -1 2 -2 2 -1 2 -1 2 -2 2 -1 2 -1 2 0 2 -1 2 -1 2 0 2 -1 2 0 3 0 2 0 2 0 0 25 -1 0 -1 0 -1 0 -2 0 -1 1 -1 0 -1 0 -1 0 -1 1 -1 0 -1 1 -1 0 -1 1 0 0 -1 1 -1 1 -1 0 0 1 -1 1 0 1 -1 1 -1 1 0 1 -1 1 0 1 0 1 -1 1 0 2 0 1 0 2 0 1 0 2 0 0zm22 24l0 26 0 0 -2 0 -2 -1 -2 0 -3 0 -2 0 -2 -1 -2 -1 -2 0 -2 -1 -2 -1 -2 -1 -2 -1 -2 -1 -2 -1 -1 -2 -2 -1 -2 -2 -1 -2 -2 -2 -1 -1 -2 -3 -1 -2 -1 -2 -1 -2 -1 -3 -1 -2 0 -3 -1 -3 0 -2 -1 -3 0 -3 0 -3 25 0 0 2 0 2 0 1 0 2 0 1 1 2 0 1 1 1 0 1 0 1 1 1 0 1 1 1 1 0 0 1 1 1 1 0 0 1 1 1 1 0 1 1 1 0 1 0 1 1 1 0 1 0 1 1 1 0 1 0 2 0 1 0 1 0 0 0zm115 26l-115 0 0 -26 115 0 12 13 -12 13zm0 -26l12 0 0 13 -12 -13zm-12 483l0 -470 24 0 0 470 0 0 -24 0zm49 25l0 25 0 0 -3 0 -3 0 -3 -1 -2 0 -3 -1 -3 0 -2 -1 -2 -1 -3 -1 -2 -1 -2 -2 -2 -1 -2 -2 -2 -1 -2 -2 -1 -2 -2 -1 -1 -2 -2 -2 -1 -2 -1 -3 -1 -2 -1 -2 -1 -2 0 -2 -1 -3 0 -2 -1 -2 0 -2 0 -3 0 -2 0 -2 24 0 0 1 0 1 0 2 0 1 1 1 0 2 0 1 1 1 0 1 0 1 1 1 0 1 1 1 0 1 1 1 1 0 0 1 1 1 1 1 1 0 1 1 1 0 1 1 1 1 1 0 1 0 2 1 1 0 2 0 1 1 2 0 2 0 0 0zm602 -33l24 0 0 0 0 3 0 3 -1 3 0 3 -1 2 0 3 -1 2 -1 3 -1 2 -1 3 -1 2 -1 2 -2 2 -1 2 -2 1 -2 2 -1 2 -2 1 -2 1 -2 1 -2 2 -2 1 -2 0 -2 1 -2 1 -2 0 -2 1 -2 0 -2 0 -3 1 -2 0 -2 0 0 -25 1 -1 2 0 1 0 1 0 1 0 1 0 1 -1 1 0 1 0 1 -1 1 0 1 -1 1 0 1 -1 0 0 1 -1 1 -1 1 0 0 -1 1 -1 0 -1 1 -1 0 -1 1 -1 0 -1 0 -1 1 -1 0 -2 0 -1 0 -2 1 -2 0 -2 0 0zm-23 -24l0 -25 0 0 2 0 3 0 2 0 2 1 2 0 2 1 2 0 2 1 2 1 2 1 2 1 2 1 2 1 2 1 2 2 2 1 1 2 2 2 1 2 2 2 1 2 1 2 1 2 1 2 1 3 1 2 0 3 1 2 0 3 1 3 0 3 0 2 -24 0 0 -1 -1 -2 0 -2 0 -1 0 -1 -1 -2 0 -1 0 -1 -1 -1 0 -1 -1 -1 0 -1 -1 -1 -1 0 0 -1 -1 -1 -1 -1 0 0 -1 -1 -1 0 -1 -1 -1 0 -1 -1 -1 0 -1 -1 -1 0 -1 0 -1 0 -1 -1 -1 0 -2 0 -1 0 0 0zm-215 -25l215 0 0 25 -215 0 -13 -12 13 -13zm0 25l-13 0 0 -12 13 12zm12 -197l0 185 -25 0 0 -185 13 -12 12 12zm-25 0l0 -12 13 0 -13 12zm190 13l-177 0 0 -25 177 0 0 0 0 25zm23 -49l24 0 0 0 0 2 0 3 0 3 -1 3 0 3 -1 2 -1 3 -1 2 -1 2 -1 3 -1 2 -1 2 -2 2 -1 2 -2 2 -1 1 -2 2 -2 1 -2 1 -2 2 -2 1 -2 1 -2 1 -2 0 -2 1 -2 1 -2 0 -2 0 -2 1 -2 0 -2 0 -3 0 0 -25 2 0 1 0 1 -1 1 0 1 0 2 0 1 0 1 -1 1 0 1 -1 0 0 1 0 1 -1 1 0 1 -1 0 -1 1 0 1 -1 0 -1 1 -1 0 0 1 -1 0 -1 1 -1 0 -2 1 -1 0 -1 0 -2 1 -1 0 -2 0 -2 0 -1 0 0zm-23 -25l0 -25 0 0 3 0 2 0 2 0 2 1 2 0 2 1 2 0 3 1 2 1 2 1 2 1 2 1 1 1 2 2 2 1 2 2 1 1 2 2 1 2 2 2 1 2 1 2 1 2 1 3 1 2 1 2 1 3 0 3 1 2 0 3 0 3 0 3 -24 0 0 -2 0 -2 0 -1 -1 -2 0 -1 0 -1 -1 -2 0 -1 -1 -1 0 -1 -1 -1 0 -1 -1 -1 0 0 -1 -1 -1 -1 0 0 -1 -1 -1 -1 -1 0 -1 -1 -1 0 -1 -1 -1 0 -1 0 -1 -1 -1 0 -1 0 -1 0 -1 -1 -1 0 -2 0 0 0zm-177 -25l177 0 0 25 -177 0 -13 -12 13 -13zm0 25l-13 0 0 -12 13 12zm12 -180l0 168 -25 0 0 -168 13 -13 12 13zm-25 0l0 -13 13 0 -13 13zm228 13l-215 0 0 -26 215 0 0 0 0 26zm23 -50l24 0 0 0 0 3 0 3 -1 3 0 2 -1 3 0 3 -1 2 -1 3 -1 2 -1 2 -1 2 -1 2 -2 2 -1 2 -2 2 -2 2 -1 1 -2 2 -2 1 -2 1 -2 1 -2 1 -2 1 -2 1 -2 0 -2 1 -2 1 -2 0 -2 0 -3 0 -2 1 -2 0 0 -26 1 0 2 0 1 0 1 0 1 0 1 -1 1 0 1 0 1 -1 1 0 1 0 1 -1 1 0 1 -1 0 -1 1 0 1 -1 1 -1 0 0 1 -1 0 -1 1 -1 0 -1 1 -1 0 -1 0 -1 1 -2 0 -1 0 -2 0 -1 1 -2 0 -2 0 0zm-23 -24l0 -25 0 0 2 0 3 0 2 0 2 0 2 1 2 0 2 1 2 1 2 0 2 1 2 1 2 2 2 1 2 1 2 2 2 1 1 2 2 2 1 1 2 2 1 2 1 3 1 2 1 2 1 2 1 3 0 2 1 3 0 3 1 2 0 3 0 3 -24 0 0 -2 -1 -1 0 -2 0 -1 0 -2 -1 -1 0 -1 0 -1 -1 -1 0 -1 -1 -1 0 -1 -1 -1 -1 -1 0 -1 -1 0 -1 -1 0 -1 -1 0 -1 -1 -1 0 -1 -1 -1 0 -1 -1 -1 0 -1 0 -1 0 -1 -1 -1 0 -1 0 -2 0 -1 0 0 0zm-253 -25l253 0 0 25 -253 0 0 0 0 -25zm-24 50l-25 0 0 0 0 -2 1 -3 0 -2 0 -2 1 -3 0 -2 1 -2 0 -2 1 -2 1 -3 1 -2 1 -2 1 -2 1 -2 2 -2 1 -2 2 -1 1 -2 2 -2 2 -1 2 -2 2 -1 3 -1 2 -1 2 -1 3 -1 2 -1 3 0 2 -1 3 0 3 0 3 0 0 25 -2 0 -2 0 -1 0 -2 0 -1 1 -1 0 -2 1 -1 0 -1 1 -1 0 -1 1 -1 0 0 1 -1 1 -1 0 -1 1 0 1 -1 1 0 1 -1 1 0 1 -1 1 0 1 -1 1 0 1 0 1 -1 1 0 2 0 1 0 1 0 2 0 1 0 0zm-25 498l0 -498 25 0 0 498 0 0 -25 0zm49 25l0 25 0 0 -3 0 -3 0 -3 -1 -2 0 -3 -1 -2 0 -3 -1 -2 -1 -2 -1 -3 -2 -2 -1 -2 -1 -2 -2 -2 -1 -1 -2 -2 -2 -1 -2 -2 -2 -1 -2 -1 -2 -1 -2 -1 -2 -1 -2 -1 -2 0 -2 -1 -3 0 -2 -1 -2 0 -3 0 -2 -1 -2 0 -2 25 0 0 1 0 1 0 2 0 1 0 1 1 1 0 2 0 1 1 1 0 1 1 1 0 1 1 1 0 1 1 1 0 0 1 1 1 1 1 1 0 0 1 1 1 0 1 1 1 0 1 1 2 0 1 1 1 0 2 0 1 0 2 0 2 1 0 0zm253 25l-253 0 0 -25 253 0 0 0 0 25zm475 -581l0 -26 0 0 3 0 2 1 3 0 3 0 2 1 3 1 2 0 3 1 2 2 2 1 3 1 2 1 2 2 1 1 2 2 2 2 1 2 2 2 1 2 1 2 1 2 1 2 1 2 1 2 1 3 0 2 1 2 0 2 1 3 0 2 0 2 0 3 -24 0 0 -2 0 -1 -1 -1 0 -2 0 -1 0 -1 -1 -1 0 -1 0 -1 -1 -1 0 -1 -1 -1 0 -1 -1 -1 -1 -1 0 -1 -1 -1 -1 0 -1 -1 0 -1 -1 0 -1 -1 -1 -1 -1 0 -2 -1 -1 0 -1 0 -2 -1 -1 0 -2 0 -1 0 -2 0 0 0zm-25 25l-24 0 0 0 0 -3 0 -2 0 -2 0 -3 1 -2 0 -2 1 -2 0 -3 1 -2 1 -2 1 -2 1 -2 1 -2 2 -2 1 -2 2 -2 1 -2 2 -1 2 -2 2 -2 2 -1 2 -1 2 -1 3 -2 2 -1 2 0 3 -1 3 -1 2 0 3 0 3 -1 3 0 0 26 -2 0 -2 0 -1 0 -2 0 -1 1 -2 0 -1 0 -1 1 -1 0 -1 1 -1 1 -1 0 -1 1 -1 0 -1 1 0 1 -1 1 -1 1 0 0 -1 1 0 1 -1 1 0 1 0 2 -1 1 0 1 0 1 -1 1 0 2 0 1 0 1 0 2 0 0zm-24 203l0 -203 24 0 0 203 -12 13 -12 -13zm24 0l0 13 -12 0 12 -13zm-219 -12l207 0 0 25 -207 0 -12 -13 12 -12zm0 25l-12 0 0 -13 12 13zm12 -216l0 203 -24 0 0 -203 0 0 24 0zm-49 -25l0 -26 0 0 3 0 3 1 3 0 2 0 3 1 3 1 2 0 3 1 2 2 2 1 2 1 2 1 2 2 2 2 2 1 2 2 1 2 1 2 2 2 1 2 1 2 1 2 1 2 0 3 1 2 1 2 0 2 0 3 1 2 0 2 0 2 0 3 -24 0 0 -2 0 -1 0 -1 -1 -2 0 -1 0 -1 0 -1 -1 -2 0 -1 0 -1 -1 -1 0 -1 -1 -1 0 -1 -1 0 -1 -1 0 -1 -1 -1 -1 0 -1 -1 0 0 -1 -1 -1 -1 -2 0 -1 -1 -1 0 -1 0 -2 -1 -2 0 -1 0 -2 0 -2 0 0 0zm-25 25l-24 0 0 0 0 -3 0 -2 0 -2 1 -3 0 -2 0 -2 1 -2 1 -3 1 -2 0 -2 1 -2 2 -2 1 -2 1 -2 1 -2 2 -2 2 -2 1 -2 2 -1 2 -2 2 -1 2 -1 3 -1 2 -2 2 -1 3 0 2 -1 3 -1 3 0 2 0 3 -1 3 0 0 26 -2 0 -2 0 -1 0 -2 0 -1 1 -1 0 -2 0 -1 1 -1 0 -1 1 -1 1 -1 0 -1 1 -1 1 0 0 -1 1 -1 1 0 1 -1 1 0 1 -1 1 0 1 -1 1 0 1 -1 1 0 1 0 1 0 1 -1 2 0 1 0 1 0 2 0 0zm-24 514l0 -514 24 0 0 514 0 0 -24 0zm49 25l0 25 0 0 -3 0 -3 0 -2 -1 -3 0 -3 -1 -2 0 -3 -1 -2 -1 -2 -1 -3 -1 -2 -2 -2 -1 -2 -1 -2 -2 -1 -2 -2 -2 -2 -1 -1 -2 -1 -2 -1 -2 -2 -2 -1 -3 0 -2 -1 -2 -1 -2 -1 -2 0 -3 0 -2 -1 -2 0 -3 0 -2 0 -2 24 0 0 1 0 1 0 2 1 1 0 1 0 1 0 2 1 1 0 1 1 1 0 1 1 1 0 1 1 1 0 1 1 0 1 1 0 1 1 1 1 0 1 1 1 0 1 1 1 1 1 0 2 0 1 1 1 0 2 0 1 1 2 0 2 0 0 0zm25 -25l24 0 0 0 0 2 0 2 0 3 -1 2 0 2 0 2 -1 3 -1 2 0 2 -1 2 -1 2 -1 3 -2 2 -1 2 -1 2 -2 1 -1 2 -2 2 -2 1 -2 2 -2 1 -2 2 -2 1 -3 1 -2 1 -3 1 -2 0 -3 1 -3 0 -2 1 -3 0 -3 0 0 -25 2 0 2 0 1 -1 2 0 1 0 2 -1 1 0 1 0 1 -1 1 -1 1 0 1 -1 1 0 1 -1 0 -1 1 -1 1 0 0 -1 1 -1 1 -1 0 -1 0 -1 1 -1 0 -1 1 -1 0 -1 0 -2 0 -1 1 -1 0 -2 0 -1 0 -1 0 0zm24 -237l0 237 -24 0 0 -237 12 -13 12 13zm-24 0l0 -13 12 0 -12 13zm219 13l-207 0 0 -26 207 0 12 13 -12 13zm0 -26l12 0 0 13 -12 -13zm-12 250l0 -237 24 0 0 237 0 0 -24 0zm49 25l0 25 0 0 -3 0 -3 0 -3 -1 -3 0 -2 -1 -3 0 -2 -1 -3 -1 -2 -1 -2 -1 -3 -2 -2 -1 -2 -2 -1 -1 -2 -2 -2 -2 -1 -2 -2 -2 -1 -2 -1 -2 -1 -2 -1 -2 -1 -2 -1 -2 0 -2 -1 -3 0 -2 -1 -2 0 -2 0 -3 0 -2 0 -2 24 0 0 1 0 2 0 1 0 1 1 1 0 2 0 1 0 1 1 1 0 1 1 1 0 1 1 1 0 1 1 1 0 1 1 0 1 1 1 1 0 0 1 1 1 0 1 1 1 1 2 0 1 0 1 1 2 0 1 0 2 1 2 0 2 0 0 0zm25 -25l24 0 0 0 0 2 0 2 0 3 -1 2 0 2 -1 3 0 2 -1 2 -1 2 -1 2 -1 3 -1 2 -1 2 -1 2 -2 2 -1 1 -2 2 -2 2 -1 2 -2 1 -2 1 -3 2 -2 1 -2 1 -3 1 -2 1 -3 0 -2 1 -3 0 -3 1 -2 0 -3 0 0 -25 2 0 1 0 2 -1 1 0 2 0 1 -1 1 0 2 0 1 -1 1 -1 1 0 1 -1 0 0 1 -1 1 -1 1 -1 0 0 1 -1 1 -1 0 -1 1 -1 0 -1 1 -1 0 -1 0 -1 1 -2 0 -1 0 -1 0 -1 1 -2 0 -1 0 -1 0 0zm24 -514l0 514 -24 0 0 -514 0 0 24 0zm215 179l125 0 0 26 -125 0 -12 -13 12 -13zm0 26l-12 0 0 -13 12 13zm13 -205l0 192 -25 0 0 -192 0 0 25 0zm-50 -25l0 -26 0 0 3 0 3 1 3 0 3 0 2 1 3 1 2 0 3 1 2 2 2 1 2 1 3 1 2 2 1 2 2 1 2 2 1 2 2 2 1 2 1 2 1 2 1 2 1 2 1 2 0 3 1 2 1 2 0 2 0 3 0 2 1 2 0 3 -25 0 0 -2 0 -1 0 -1 0 -2 0 -1 -1 -1 0 -1 0 -1 -1 -2 0 -1 0 -1 -1 -1 -1 -1 0 0 -1 -1 0 -1 -1 -1 -1 -1 -1 0 0 -1 -1 0 -1 -1 -1 -1 -1 0 -2 -1 -1 0 -1 0 -2 -1 -1 0 -2 0 -2 0 -2 0 0 0zm-24 25l-25 0 0 0 0 -3 0 -2 1 -2 0 -3 0 -2 1 -2 0 -2 1 -3 1 -2 1 -2 1 -2 1 -2 1 -2 1 -2 2 -2 1 -2 2 -2 2 -1 1 -2 2 -2 2 -1 3 -1 2 -1 2 -2 3 -1 2 0 3 -1 2 -1 3 0 3 0 3 -1 2 0 0 26 -1 0 -2 0 -2 0 -1 0 -2 1 -1 0 -1 0 -2 1 -1 0 -1 1 -1 1 -1 0 -1 1 0 0 -1 1 -1 1 0 1 -1 1 -1 0 0 1 -1 1 0 1 -1 1 0 2 0 1 -1 1 0 1 0 1 0 2 0 1 0 1 0 2 0 0zm-25 506l0 -506 25 0 0 506 0 0 -25 0zm50 25l0 25 0 0 -3 0 -3 0 -2 -1 -3 0 -3 -1 -2 0 -3 -1 -2 -1 -3 -1 -2 -1 -2 -2 -2 -1 -2 -2 -2 -1 -2 -2 -2 -2 -1 -2 -2 -2 -1 -2 -1 -2 -1 -2 -1 -2 -1 -2 -1 -2 -1 -2 0 -3 -1 -2 0 -2 0 -3 -1 -2 0 -2 0 -2 25 0 0 1 0 1 0 2 0 1 0 1 0 1 1 1 0 2 1 1 0 1 0 1 1 1 0 1 1 1 1 0 0 1 1 1 1 1 1 0 0 1 1 1 1 0 1 1 2 0 1 1 1 0 2 1 1 0 2 0 1 0 2 0 2 1 0 0zm161 25l-161 0 0 -25 161 0 0 0 0 25zm139 -172l24 0 0 0 0 9 -1 9 0 9 -1 8 -2 8 -2 8 -2 8 -2 8 -3 8 -3 7 -3 8 -4 7 -4 6 -4 7 -5 6 -5 6 -5 6 -6 5 -6 5 -6 5 -7 5 -7 4 -7 3 -7 4 -8 3 -8 2 -9 3 -8 2 -10 1 -9 1 -9 1 -10 0 0 -25 9 -1 8 0 8 -1 8 -1 8 -2 7 -2 7 -2 7 -3 6 -3 6 -3 6 -3 5 -4 5 -4 5 -4 5 -4 4 -5 4 -5 4 -5 4 -6 3 -5 3 -6 3 -6 3 -6 2 -7 2 -7 2 -6 1 -8 1 -7 1 -7 1 -8 1 -8 0 -8 0 0zm24 -36l0 36 -24 0 0 -36 0 0 24 0zm-163 -143l0 -26 0 0 10 1 9 0 10 1 9 1 9 2 8 2 9 3 7 3 8 3 7 3 7 4 7 4 6 5 6 5 6 5 5 6 5 6 5 6 4 6 4 7 4 7 3 7 3 7 2 8 3 7 2 8 1 8 2 9 1 8 0 9 1 9 0 9 -24 0 0 -9 -1 -7 -1 -8 0 -8 -2 -7 -1 -7 -2 -7 -2 -6 -2 -7 -2 -6 -3 -6 -3 -6 -3 -5 -4 -5 -4 -5 -4 -5 -4 -4 -4 -5 -5 -4 -5 -3 -6 -4 -6 -3 -6 -3 -6 -3 -7 -2 -7 -2 -7 -2 -8 -2 -8 -1 -8 -1 -9 0 -9 0 0 0zm1 277l0 -25 0 0 5 0 4 0 4 -1 4 0 4 -1 4 -1 3 -1 3 -1 3 -1 3 -1 2 -1 3 -2 2 -1 2 -2 2 -2 2 -1 1 -2 2 -2 1 -2 2 -3 1 -2 1 -3 1 -3 1 -2 1 -4 1 -3 0 -3 1 -4 0 -3 0 -4 1 -4 0 -4 24 0 0 4 0 5 -1 5 0 5 -1 4 -1 5 -1 4 -1 4 -1 4 -2 4 -1 4 -2 4 -2 3 -3 4 -2 3 -3 3 -3 3 -3 3 -3 3 -4 2 -3 2 -4 2 -4 2 -4 1 -4 2 -5 1 -4 1 -5 1 -5 0 -5 1 -5 0 -6 0 0 0zm-126 -25l126 0 0 25 -126 0 -12 -12 12 -13zm0 25l-12 0 0 -12 12 12zm13 -216l0 204 -25 0 0 -204 12 -13 13 13zm-25 0l0 -13 12 0 -12 13zm137 12l-125 0 0 -25 125 0 0 0 0 25zm89 65l-24 0 0 0 0 -4 -1 -4 0 -4 0 -3 -1 -4 0 -3 -1 -3 -1 -3 -1 -3 -1 -3 -1 -3 -2 -2 -1 -3 -2 -2 -1 -2 -2 -2 -2 -2 -2 -2 -2 -1 -2 -2 -3 -1 -2 -2 -3 -1 -3 -1 -3 -1 -4 -1 -3 -1 -4 0 -4 -1 -4 0 -5 -1 -4 0 0 -25 5 0 5 0 5 1 5 1 5 0 5 1 4 2 5 1 4 2 4 1 4 2 3 3 4 2 3 3 3 2 3 3 3 3 3 4 2 3 2 4 2 4 2 4 2 4 1 4 1 4 1 4 1 5 1 4 0 5 1 5 0 5 0 4 0 0zm-24 50l0 -50 24 0 0 50 0 0 -24 0z"/>
   </g>
   <g>
    <path class="fil3" d="M7886 5439c-39,0 -71,-33 -71,-75 0,-41 32,-75 71,-75l0 150zm4354 0l-4354 0 0 -150 4354 0 0 150zm0 -150c39,0 70,34 70,75 0,42 -31,75 -70,75l0 -150z"/>
   </g>
   <path class="fil4 str0" d="M13007 3799l0 8832c-2205,0 -3683,0 -5888,0l0 -8832 5888 0z"/>
   <path class="fil4 str1" d="M11818 7522l582 0 0 -557 -582 0 0 557z"/>
   <path class="fil4 str1" d="M11818 10597l582 0 0 -557 -582 0 0 557z"/>
   <path class="fil4 str1" d="M11818 6595l582 0 0 -558 -582 0 0 558z"/>
   <path class="fil5 str2" d="M7990 6283l122 -121c3,-2 7,-4 10,-4 4,0 7,2 10,5 4,3 5,6 5,10 0,3 -1,6 -4,10l-86 86 88 157 3 8c0,4 -2,7 -5,9 -3,3 -7,5 -11,5 -4,0 -9,-3 -12,-8l-85 -151 -35 34 0 110c0,5 -1,9 -4,11 -2,3 -6,4 -10,4 -4,0 -7,-1 -10,-4 -3,-2 -4,-6 -4,-11l0 -261c0,-3 1,-7 4,-10 3,-2 6,-4 10,-4 4,0 7,1 10,4 3,2 4,6 4,10l0 111zm254 92l-21 63c-1,3 -3,5 -5,7 -2,2 -5,2 -8,3 -4,0 -7,-2 -10,-4 -3,-3 -5,-6 -5,-10l1 -5 87 -261c3,-8 7,-12 14,-12 6,0 10,4 13,12l87 261 1 5c0,4 -2,7 -5,10 -3,2 -6,4 -10,4 -2,0 -4,-1 -6,-2 -3,-1 -5,-3 -7,-8l-21 -63 -105 0zm95 -29l-42 -128 -43 128 85 0zm259 -72l0 -101c0,-4 2,-8 5,-10 3,-3 6,-5 10,-5 3,0 7,1 10,4 3,2 4,6 4,11l0 260c0,4 -1,8 -4,11 -4,2 -7,4 -10,4 -4,0 -7,-1 -11,-4 -2,-2 -4,-6 -4,-11l0 -130 -116 0 0 130c0,5 -1,9 -4,11 -2,3 -6,4 -10,4 -4,0 -7,-1 -10,-4 -3,-2 -4,-6 -4,-11l0 -260c0,-4 1,-8 4,-11 3,-2 6,-4 10,-4 4,0 7,2 10,4 3,2 4,6 4,11l0 101 116 0zm117 145l28 -248c0,-9 5,-13 14,-13l87 0c10,0 15,5 15,15l0 246 14 0c10,0 15,5 15,14l0 29c0,4 -2,8 -5,10 -2,3 -6,5 -10,5 -3,0 -6,-2 -9,-4 -3,-2 -5,-6 -5,-11l0 -14 -145 0 0 14c0,4 -2,8 -5,10 -2,3 -6,5 -10,5 -3,0 -6,-2 -9,-4 -3,-2 -5,-6 -5,-11l0 -29c0,-9 5,-14 15,-14l15 0zm115 0l0 -232 -60 0 -26 232 86 0zm289 14c0,5 -1,9 -4,11 -3,3 -6,4 -10,4 -4,0 -8,-1 -10,-4 -3,-2 -5,-6 -5,-11l0 -204 -117 211c-2,3 -4,6 -7,7l-3 2c-1,1 -2,1 -4,1 -3,0 -6,-1 -10,-4 -2,-3 -3,-7 -3,-13l0 -260c0,-4 1,-8 4,-11 3,-2 6,-4 10,-4 4,0 7,2 10,4 3,2 4,6 4,11l0 205 118 -212c1,-2 3,-5 6,-7 3,-2 5,-3 8,-3 3,0 6,2 9,5 3,3 4,7 4,12l0 260zm88 -14l28 -248c0,-9 5,-13 14,-13l87 0c10,0 15,5 15,15l0 246 14 0c10,0 15,5 15,14l0 29c0,4 -2,8 -5,10 -3,3 -6,5 -10,5 -3,0 -6,-2 -9,-4 -3,-2 -5,-6 -5,-11l0 -14 -145 0 0 14c0,4 -2,8 -5,10 -3,3 -6,5 -10,5 -3,0 -6,-2 -9,-4 -3,-2 -5,-6 -5,-11l0 -29c0,-9 5,-14 14,-14l16 0zm115 0l0 -232 -60 0 -26 232 86 0zm166 -44l-21 63c-1,3 -3,5 -5,7 -2,2 -5,2 -8,3 -4,0 -7,-2 -10,-4 -3,-3 -5,-6 -5,-10l1 -5 87 -261c3,-8 8,-12 14,-12 6,0 11,4 14,12l86 261 1 5c0,4 -1,7 -5,10 -3,2 -6,4 -10,4 -2,0 -4,-1 -6,-2 -3,-1 -5,-3 -7,-8l-21 -63 -105 0zm96 -29l-43 -128 -43 128 86 0zm128 -159l-58 0c-4,0 -8,-1 -10,-4 -3,-3 -4,-7 -4,-10 0,-4 1,-7 4,-10 2,-3 6,-5 10,-5l145 0c4,0 7,2 10,5 3,3 5,6 5,10 0,3 -2,6 -4,9 -2,3 -6,5 -11,5l-58 0 0 246c0,5 -1,9 -4,11 -3,3 -6,4 -10,4 -4,0 -7,-1 -10,-4 -3,-2 -5,-6 -5,-11l0 -246zm361 246c0,5 -1,9 -4,11 -3,3 -6,4 -11,4 -3,0 -7,-1 -10,-4 -3,-2 -4,-6 -4,-11l0 -225 -33 33c-3,3 -6,4 -10,4 -4,0 -7,-1 -10,-4 -3,-3 -5,-7 -5,-10 0,-4 2,-7 5,-10l57 -59c2,-1 4,-3 6,-4 2,-1 5,-2 7,-2 2,0 5,1 8,4 3,3 4,7 4,13l0 260z"/>
   <path class="fil4 str1" d="M11821 9514l582 0 0 -557 -582 0 0 557z"/>
   <path class="fil4 str1" d="M11821 8514l582 0 0 -557 -582 0 0 557z"/>
   <path class="fil5 str2" d="M7990 7211l122 -121c3,-3 7,-4 10,-4 4,0 7,1 10,4 4,3 5,7 5,11 0,2 -1,5 -4,9l-86 86 88 158 3 7c0,4 -2,7 -5,10 -3,3 -7,4 -11,4 -4,0 -9,-2 -12,-7l-85 -151 -35 34 0 110c0,4 -1,8 -4,11 -2,2 -6,3 -10,3 -4,0 -7,-1 -10,-3 -3,-3 -4,-6 -4,-11l0 -261c0,-4 1,-7 4,-10 3,-3 6,-4 10,-4 4,0 7,1 10,3 3,3 4,6 4,11l0 111zm254 92l-21 62c-1,3 -3,6 -5,8 -2,1 -5,2 -8,2 -4,0 -7,-1 -10,-4 -3,-2 -5,-6 -5,-10l1 -5 87 -260c3,-9 7,-13 14,-13 6,0 10,4 13,13l87 260 1 5c0,4 -2,7 -5,10 -3,3 -6,4 -10,4 -2,0 -4,0 -6,-1 -3,-1 -5,-4 -7,-9l-21 -62 -105 0zm95 -30l-42 -127 -43 127 85 0zm259 -71l0 -102c0,-4 2,-7 5,-10 3,-3 6,-4 10,-4 3,0 7,1 10,3 3,3 4,6 4,11l0 260c0,5 -1,8 -4,11 -4,3 -7,4 -10,4 -4,0 -7,-1 -11,-3 -2,-3 -4,-6 -4,-11l0 -130 -116 0 0 130c0,4 -1,8 -4,11 -2,2 -6,3 -10,3 -4,0 -7,-1 -10,-3 -3,-3 -4,-6 -4,-11l0 -261c0,-3 1,-7 4,-10 3,-3 6,-4 10,-4 4,0 7,1 10,4 3,2 4,6 4,10l0 102 116 0zm117 145l28 -248c0,-9 5,-13 14,-13l87 0c10,0 15,5 15,14l0 247 14 0c10,0 15,4 15,14l0 29c0,4 -2,7 -5,10 -2,3 -6,4 -10,4 -3,0 -6,-1 -9,-3 -3,-3 -5,-6 -5,-11l0 -15 -145 0 0 15c0,4 -2,7 -5,10 -2,3 -6,4 -10,4 -3,0 -6,-1 -9,-3 -3,-3 -5,-6 -5,-11l0 -29c0,-10 5,-14 15,-14l15 0zm115 0l0 -232 -60 0 -26 232 86 0zm289 14c0,4 -1,8 -4,11 -3,2 -6,3 -10,3 -4,0 -8,-1 -10,-3 -3,-3 -5,-6 -5,-11l0 -205 -117 212c-2,3 -4,5 -7,7l-3 2c-1,0 -2,0 -4,1 -3,0 -6,-2 -10,-5 -2,-2 -3,-7 -3,-12l0 -261c0,-3 1,-7 4,-10 3,-3 6,-4 10,-4 4,0 7,1 10,4 3,2 4,6 4,10l0 205 118 -212c1,-2 3,-4 6,-6 3,-2 5,-3 8,-3 3,0 6,1 9,4 3,3 4,7 4,12l0 261zm88 -14l28 -248c0,-9 5,-13 14,-13l87 0c10,0 15,5 15,14l0 247 14 0c10,0 15,4 15,14l0 29c0,4 -2,7 -5,10 -3,3 -6,4 -10,4 -3,0 -6,-1 -9,-3 -3,-3 -5,-6 -5,-11l0 -15 -145 0 0 15c0,4 -2,7 -5,10 -3,3 -6,4 -10,4 -3,0 -6,-1 -9,-3 -3,-3 -5,-6 -5,-11l0 -29c0,-10 5,-14 14,-14l16 0zm115 0l0 -232 -60 0 -26 232 86 0zm166 -44l-21 62c-1,3 -3,6 -5,8 -2,1 -5,2 -8,2 -4,0 -7,-1 -10,-4 -3,-2 -5,-6 -5,-10l1 -5 87 -260c3,-9 8,-13 14,-13 6,0 11,4 14,13l86 260 1 5c0,4 -1,7 -5,10 -3,3 -6,4 -10,4 -2,0 -4,0 -6,-1 -3,-1 -5,-4 -7,-9l-21 -62 -105 0zm96 -30l-43 -127 -43 127 86 0zm128 -158l-58 0c-4,0 -8,-2 -10,-4 -3,-3 -4,-7 -4,-11 0,-3 1,-6 4,-9 2,-4 6,-5 10,-5l145 0c4,0 7,1 10,4 3,3 5,7 5,10 0,4 -2,7 -4,10 -2,3 -6,5 -11,5l-58 0 0 246c0,4 -1,8 -4,11 -3,2 -6,3 -10,3 -4,0 -7,-1 -10,-3 -3,-3 -5,-6 -5,-11l0 -246zm408 82l-93 150 89 0c4,0 8,1 11,4 2,3 4,6 4,10 0,3 -1,6 -4,10 -2,3 -6,4 -11,4l-115 0c-11,0 -16,-4 -16,-11 0,-3 1,-7 3,-11l107 -171c4,-7 6,-14 6,-21 0,-13 -5,-23 -15,-33 -4,-4 -10,-7 -16,-10 -6,-2 -12,-3 -19,-3 -8,0 -15,1 -21,5 -7,5 -13,10 -17,17 -1,2 -3,3 -6,5l-6 2c-4,0 -7,-2 -10,-5 -3,-2 -5,-6 -5,-10 0,-1 1,-4 2,-8 7,-10 16,-19 27,-25 6,-3 11,-6 17,-8 6,-1 11,-2 17,-2 22,0 41,7 57,22 16,15 24,33 24,54 0,12 -4,23 -10,35z"/>
   <path class="fil5 str2" d="M7990 8203l122 -121c3,-3 7,-4 10,-4 4,0 7,1 10,4 4,3 5,7 5,11 0,2 -1,5 -4,9l-86 86 88 157 3 8c0,4 -2,7 -5,10 -3,3 -7,4 -11,4 -4,0 -9,-2 -12,-7l-85 -151 -35 34 0 110c0,4 -1,8 -4,11 -2,2 -6,3 -10,3 -4,0 -7,-1 -10,-3 -3,-3 -4,-6 -4,-11l0 -261c0,-4 1,-7 4,-10 3,-3 6,-4 10,-4 4,0 7,1 10,3 3,2 4,6 4,11l0 111zm254 92l-21 62c-1,3 -3,6 -5,8 -2,1 -5,2 -8,2 -4,0 -7,-1 -10,-4 -3,-2 -5,-6 -5,-10l1 -5 87 -260c3,-9 7,-13 14,-13 6,0 10,4 13,13l87 260 1 5c0,4 -2,7 -5,10 -3,3 -6,4 -10,4 -2,0 -4,0 -6,-1 -3,-1 -5,-4 -7,-9l-21 -62 -105 0zm95 -30l-42 -127 -43 127 85 0zm259 -71l0 -102c0,-4 2,-7 5,-10 3,-3 6,-4 10,-4 3,0 7,1 10,3 3,3 4,6 4,11l0 260c0,5 -1,8 -4,11 -4,3 -7,4 -10,4 -4,0 -7,-1 -11,-3 -2,-3 -4,-6 -4,-11l0 -131 -116 0 0 131c0,4 -1,8 -4,11 -2,2 -6,3 -10,3 -4,0 -7,-1 -10,-3 -3,-3 -4,-6 -4,-11l0 -261c0,-4 1,-7 4,-10 3,-3 6,-4 10,-4 4,0 7,1 10,3 3,3 4,6 4,11l0 102 116 0zm117 144l28 -248c0,-8 5,-12 14,-12l87 0c10,0 15,4 15,14l0 246 14 0c10,0 15,5 15,15l0 29c0,4 -2,7 -5,10 -2,3 -6,4 -10,4 -3,0 -6,-1 -9,-4 -3,-2 -5,-6 -5,-10l0 -15 -145 0 0 15c0,4 -2,7 -5,10 -2,3 -6,4 -10,4 -3,0 -6,-1 -9,-4 -3,-2 -5,-6 -5,-10l0 -29c0,-10 5,-15 15,-15l15 0zm115 0l0 -232 -60 0 -26 232 86 0zm289 15c0,4 -1,8 -4,11 -3,2 -6,3 -10,3 -4,0 -8,-1 -10,-3 -3,-3 -5,-6 -5,-11l0 -205 -117 212c-2,3 -4,5 -7,7l-3 2c-1,0 -2,0 -4,1 -3,0 -6,-2 -10,-5 -2,-3 -3,-7 -3,-12l0 -261c0,-4 1,-7 4,-10 3,-3 6,-4 10,-4 4,0 7,1 10,3 3,3 4,6 4,11l0 205 118 -212c1,-2 3,-4 6,-7 3,-2 5,-3 8,-3 3,0 6,2 9,5 3,3 4,7 4,12l0 261zm88 -15l28 -248c0,-8 5,-12 14,-12l87 0c10,0 15,4 15,14l0 246 14 0c10,0 15,5 15,15l0 29c0,4 -2,7 -5,10 -3,3 -6,4 -10,4 -3,0 -6,-1 -9,-4 -3,-2 -5,-6 -5,-10l0 -15 -145 0 0 15c0,4 -2,7 -5,10 -3,3 -6,4 -10,4 -3,0 -6,-1 -9,-4 -3,-2 -5,-6 -5,-10l0 -29c0,-10 5,-15 14,-15l16 0zm115 0l0 -232 -60 0 -26 232 86 0zm166 -43l-21 62c-1,3 -3,6 -5,8 -2,1 -5,2 -8,2 -4,0 -7,-1 -10,-4 -3,-2 -5,-6 -5,-10l1 -5 87 -260c3,-9 8,-13 14,-13 6,0 11,4 14,13l86 260 1 5c0,4 -1,7 -5,10 -3,3 -6,4 -10,4 -2,0 -4,0 -6,-1 -3,-1 -5,-4 -7,-9l-21 -62 -105 0zm96 -30l-43 -127 -43 127 86 0zm128 -159l-58 0c-4,0 -8,-1 -10,-3 -3,-4 -4,-7 -4,-11 0,-3 1,-6 4,-10 2,-3 6,-4 10,-4l145 0c4,0 7,1 10,4 3,3 5,6 5,10 0,3 -2,7 -4,10 -2,3 -6,4 -11,4l-58 0 0 247c0,4 -1,8 -4,11 -3,2 -6,3 -10,3 -4,0 -7,-1 -10,-3 -3,-3 -5,-6 -5,-11l0 -247zm345 1l-58 0c-4,0 -8,-1 -10,-4 -3,-3 -4,-7 -4,-11 0,-3 1,-6 4,-9 2,-3 6,-5 10,-5l58 0c23,0 41,7 54,22 13,14 19,31 19,50 0,12 -3,22 -7,32 -5,10 -12,19 -22,27 8,6 15,14 21,24 5,10 8,21 8,33l0 29c0,20 -8,37 -22,51 -14,14 -31,21 -51,21l-58 0c-4,0 -8,-1 -10,-4 -3,-3 -4,-6 -4,-10 0,-3 1,-7 3,-10 3,-3 6,-5 11,-5l58 0c12,0 23,-4 31,-12 9,-9 13,-19 13,-31l0 -29c0,-12 -4,-22 -13,-31 -8,-8 -18,-13 -31,-13l-29 0c-4,0 -8,-1 -11,-3 -2,-4 -3,-7 -3,-11 0,-3 1,-6 3,-10 3,-3 6,-4 11,-4l29 0c13,0 24,-5 32,-14 7,-8 11,-19 11,-31 0,-11 -4,-21 -11,-29 -7,-9 -18,-13 -32,-13z"/>
   <path class="fil5 str2" d="M7990 9203l122 -121c3,-3 7,-4 10,-4 4,0 7,1 10,4 4,3 5,7 5,11 0,2 -1,5 -4,9l-86 86 88 157 3 8c0,4 -2,7 -5,10 -3,3 -7,4 -11,4 -4,0 -9,-2 -12,-7l-85 -151 -35 34 0 110c0,4 -1,8 -4,11 -2,2 -6,3 -10,3 -4,0 -7,-1 -10,-3 -3,-3 -4,-6 -4,-11l0 -261c0,-4 1,-7 4,-10 3,-3 6,-4 10,-4 4,0 7,1 10,3 3,2 4,6 4,11l0 111zm254 92l-21 62c-1,3 -3,6 -5,8 -2,1 -5,2 -8,2 -4,0 -7,-1 -10,-4 -3,-2 -5,-6 -5,-10l1 -5 87 -260c3,-9 7,-13 14,-13 6,0 10,4 13,13l87 260 1 5c0,4 -2,7 -5,10 -3,3 -6,4 -10,4 -2,0 -4,0 -6,-1 -3,-1 -5,-4 -7,-9l-21 -62 -105 0zm95 -30l-42 -127 -43 127 85 0zm259 -71l0 -102c0,-4 2,-7 5,-10 3,-3 6,-4 10,-4 3,0 7,1 10,3 3,3 4,6 4,11l0 260c0,5 -1,8 -4,11 -4,3 -7,4 -10,4 -4,0 -7,-1 -11,-3 -2,-3 -4,-6 -4,-11l0 -131 -116 0 0 131c0,4 -1,8 -4,11 -2,2 -6,3 -10,3 -4,0 -7,-1 -10,-3 -3,-3 -4,-6 -4,-11l0 -261c0,-4 1,-7 4,-10 3,-3 6,-4 10,-4 4,0 7,1 10,3 3,3 4,6 4,11l0 102 116 0zm117 144l28 -248c0,-8 5,-12 14,-12l87 0c10,0 15,4 15,14l0 246 14 0c10,0 15,5 15,15l0 29c0,4 -2,7 -5,10 -2,3 -6,4 -10,4 -3,0 -6,-1 -9,-4 -3,-2 -5,-6 -5,-10l0 -15 -145 0 0 15c0,4 -2,7 -5,10 -2,3 -6,4 -10,4 -3,0 -6,-1 -9,-4 -3,-2 -5,-6 -5,-10l0 -29c0,-10 5,-15 15,-15l15 0zm115 0l0 -232 -60 0 -26 232 86 0zm289 15c0,4 -1,8 -4,11 -3,2 -6,3 -10,3 -4,0 -8,-1 -10,-3 -3,-3 -5,-6 -5,-11l0 -205 -117 212c-2,3 -4,5 -7,7l-3 2c-1,0 -2,0 -4,1 -3,0 -6,-2 -10,-5 -2,-3 -3,-7 -3,-12l0 -261c0,-4 1,-7 4,-10 3,-3 6,-4 10,-4 4,0 7,1 10,3 3,3 4,6 4,11l0 205 118 -212c1,-2 3,-4 6,-7 3,-2 5,-3 8,-3 3,0 6,2 9,5 3,3 4,7 4,12l0 261zm88 -15l28 -248c0,-8 5,-12 14,-12l87 0c10,0 15,4 15,14l0 246 14 0c10,0 15,5 15,15l0 29c0,4 -2,7 -5,10 -3,3 -6,4 -10,4 -3,0 -6,-1 -9,-4 -3,-2 -5,-6 -5,-10l0 -15 -145 0 0 15c0,4 -2,7 -5,10 -3,3 -6,4 -10,4 -3,0 -6,-1 -9,-4 -3,-2 -5,-6 -5,-10l0 -29c0,-10 5,-15 14,-15l16 0zm115 0l0 -232 -60 0 -26 232 86 0zm166 -43l-21 62c-1,3 -3,6 -5,8 -2,1 -5,2 -8,2 -4,0 -7,-1 -10,-4 -3,-2 -5,-6 -5,-10l1 -5 87 -260c3,-9 8,-13 14,-13 6,0 11,4 14,13l86 260 1 5c0,4 -1,7 -5,10 -3,3 -6,4 -10,4 -2,0 -4,0 -6,-1 -3,-1 -5,-4 -7,-9l-21 -62 -105 0zm96 -30l-43 -127 -43 127 86 0zm128 -159l-58 0c-4,0 -8,-1 -10,-3 -3,-4 -4,-7 -4,-11 0,-3 1,-6 4,-10 2,-3 6,-4 10,-4l145 0c4,0 7,1 10,4 3,3 5,6 5,10 0,3 -2,7 -4,10 -2,3 -6,4 -11,4l-58 0 0 247c0,4 -1,8 -4,11 -3,2 -6,3 -10,3 -4,0 -7,-1 -10,-3 -3,-3 -5,-6 -5,-11l0 -247zm404 175l29 0c4,0 8,1 11,4 2,3 4,7 4,10 0,4 -1,7 -4,10 -2,3 -6,5 -11,5l-29 0 0 43c0,4 -1,8 -4,11 -2,2 -6,3 -10,3 -4,0 -7,-1 -10,-3 -3,-3 -4,-6 -4,-11l0 -43 -87 0c-10,0 -15,-4 -15,-12l0 -4 1 -3 58 -203c1,-3 2,-5 5,-8l2 -1c2,-1 4,-1 6,-1 4,0 8,1 10,4 4,2 5,6 5,10l-1 4 -52 185 68 0 0 -44c0,-3 1,-7 4,-10 3,-3 6,-4 10,-4 4,0 7,1 10,3 3,3 4,7 4,11l0 44z"/>
   <path class="fil5 str2" d="M7990 10286l122 -121c3,-3 7,-4 10,-4 4,0 7,1 10,4 4,3 5,7 5,11 0,2 -1,5 -4,9l-86 86 88 158 3 7c0,4 -2,7 -5,10 -3,3 -7,4 -11,4 -4,0 -9,-2 -12,-7l-85 -151 -35 34 0 110c0,4 -1,8 -4,11 -2,2 -6,3 -10,3 -4,0 -7,-1 -10,-3 -3,-3 -4,-6 -4,-11l0 -261c0,-4 1,-7 4,-10 3,-3 6,-4 10,-4 4,0 7,1 10,3 3,2 4,6 4,11l0 111zm254 92l-21 62c-1,3 -3,6 -5,8 -2,1 -5,2 -8,2 -4,0 -7,-1 -10,-4 -3,-2 -5,-6 -5,-10l1 -5 87 -260c3,-9 7,-13 14,-13 6,0 10,4 13,13l87 260 1 5c0,4 -2,7 -5,10 -3,3 -6,4 -10,4 -2,0 -4,0 -6,-1 -3,-1 -5,-4 -7,-9l-21 -62 -105 0zm95 -30l-42 -127 -43 127 85 0zm259 -71l0 -102c0,-4 2,-7 5,-10 3,-3 6,-4 10,-4 3,0 7,1 10,3 3,3 4,6 4,11l0 260c0,5 -1,8 -4,11 -4,3 -7,4 -10,4 -4,0 -7,-1 -11,-3 -2,-3 -4,-6 -4,-11l0 -131 -116 0 0 131c0,4 -1,8 -4,11 -2,2 -6,3 -10,3 -4,0 -7,-1 -10,-3 -3,-3 -4,-6 -4,-11l0 -261c0,-4 1,-7 4,-10 3,-3 6,-4 10,-4 4,0 7,1 10,4 3,2 4,6 4,10l0 102 116 0zm117 144l28 -248c0,-8 5,-12 14,-12l87 0c10,0 15,4 15,14l0 246 14 0c10,0 15,5 15,15l0 29c0,4 -2,7 -5,10 -2,3 -6,4 -10,4 -3,0 -6,-1 -9,-4 -3,-2 -5,-6 -5,-10l0 -15 -145 0 0 15c0,4 -2,7 -5,10 -2,3 -6,4 -10,4 -3,0 -6,-1 -9,-4 -3,-2 -5,-6 -5,-10l0 -29c0,-10 5,-15 15,-15l15 0zm115 0l0 -232 -60 0 -26 232 86 0zm289 15c0,4 -1,8 -4,11 -3,2 -6,3 -10,3 -4,0 -8,-1 -10,-3 -3,-3 -5,-6 -5,-11l0 -205 -117 212c-2,3 -4,5 -7,7l-3 2c-1,0 -2,0 -4,1 -3,0 -6,-2 -10,-5 -2,-3 -3,-7 -3,-12l0 -261c0,-4 1,-7 4,-10 3,-3 6,-4 10,-4 4,0 7,1 10,4 3,2 4,6 4,10l0 205 118 -212c1,-2 3,-4 6,-7 3,-2 5,-3 8,-3 3,0 6,2 9,5 3,3 4,7 4,12l0 261zm88 -15l28 -248c0,-8 5,-12 14,-12l87 0c10,0 15,4 15,14l0 246 14 0c10,0 15,5 15,15l0 29c0,4 -2,7 -5,10 -3,3 -6,4 -10,4 -3,0 -6,-1 -9,-4 -3,-2 -5,-6 -5,-10l0 -15 -145 0 0 15c0,4 -2,7 -5,10 -3,3 -6,4 -10,4 -3,0 -6,-1 -9,-4 -3,-2 -5,-6 -5,-10l0 -29c0,-10 5,-15 14,-15l16 0zm115 0l0 -232 -60 0 -26 232 86 0zm166 -43l-21 62c-1,3 -3,6 -5,8 -2,1 -5,2 -8,2 -4,0 -7,-1 -10,-4 -3,-2 -5,-6 -5,-10l1 -5 87 -260c3,-9 8,-13 14,-13 6,0 11,4 14,13l86 260 1 5c0,4 -1,7 -5,10 -3,3 -6,4 -10,4 -2,0 -4,0 -6,-1 -3,-1 -5,-4 -7,-9l-21 -62 -105 0zm96 -30l-43 -127 -43 127 86 0zm128 -159l-58 0c-4,0 -8,-1 -10,-3 -3,-4 -4,-7 -4,-11 0,-3 1,-6 4,-10 2,-3 6,-4 10,-4l145 0c4,0 7,1 10,4 3,3 5,6 5,10 0,3 -2,7 -4,10 -2,3 -6,4 -11,4l-58 0 0 247c0,4 -1,8 -4,11 -3,2 -6,3 -10,3 -4,0 -7,-1 -10,-3 -3,-3 -5,-6 -5,-11l0 -247zm303 0l0 88 43 0c20,0 37,7 51,21 15,14 22,31 22,51l0 29c0,20 -7,37 -21,51 -15,14 -32,21 -52,21l-57 0c-5,0 -8,-1 -11,-4 -3,-3 -4,-6 -4,-10 0,-4 1,-7 4,-10 2,-3 6,-5 11,-5l58 0c11,0 22,-4 30,-12 9,-8 13,-19 13,-31l0 -29c0,-12 -4,-22 -13,-31 -8,-8 -18,-13 -30,-13l-58 0c-10,0 -15,-4 -15,-14l0 -116c0,-10 5,-14 15,-14l115 0c4,0 8,1 11,4 2,3 4,6 4,10 0,3 -1,7 -4,10 -2,3 -6,4 -11,4l-101 0z"/>
   <path class="fil4 str3" d="M9634 11378c-499,1734 -158,751 -390,597 -231,-154 843,-744 772,-270 -70,474 -842,360 -821,460 21,99 323,168 414,-85 91,-252 -42,197 197,120 238,-78 336,-303 298,-176 -39,126 28,105 154,28 127,-77 270,-158 270,-158"/>
   <path class="fil4 str3" d="M10685 12260c350,0 610,-552 450,-649 -300,-280 -622,659 129,423 374,-118 189,-885 189,14 0,57 767,194 -245,218"/>
   <path class="fil6" d="M11991 11418l0 60 -77 0 0 -105c0,-10 -5,-19 -18,-19 -13,0 -19,9 -19,19l0 123c0,14 9,20 19,20l250 0c10,0 19,-6 19,-20l0 -78c0,-53 -34,-79 -80,-79l-18 0c-46,0 -76,26 -76,79zm98 -40c25,0 39,11 39,39l0 61 -102 0 0 -60c0,-29 14,-40 39,-40l24 0zm-216 -242c0,55 46,79 92,79l29 0 0 38 -102 0c-10,0 -19,4 -19,18 0,13 9,18 19,18l258 0c10,0 19,-5 19,-18 0,-14 -9,-18 -19,-18l-119 0 0 -38 55 0c45,0 83,-23 83,-76l0 -22c0,-52 -37,-78 -82,-78l-132 0c-45,0 -82,26 -82,78l0 19zm214 -58c25,0 45,11 45,39l0 20c0,29 -20,40 -45,40l-119 0c-26,0 -58,-11 -58,-41l0 -19c0,-28 20,-39 43,-39l134 0zm26 -147c-23,-2 -199,-24 -199,-24l0 -72 236 0c10,0 19,-6 19,-20 0,-13 -9,-19 -19,-19l-254 0c-10,0 -19,6 -19,19l0 108c0,12 8,18 19,20 12,1 192,23 208,25 9,1 15,3 20,5 7,4 9,11 9,23 0,10 7,19 20,19 14,0 18,-9 18,-19 0,-36 -11,-51 -32,-59 -8,-3 -15,-4 -26,-6zm0 -255c-23,-3 -199,-24 -199,-24l0 -72 236 0c10,0 19,-6 19,-20 0,-13 -9,-19 -19,-19l-254 0c-10,0 -19,6 -19,19l0 108c0,12 8,18 19,19 12,2 192,24 208,26 9,1 15,2 20,5 7,4 9,11 9,23 0,10 7,19 20,19 14,0 18,-9 18,-19 0,-36 -11,-51 -32,-59 -8,-3 -15,-4 -26,-6zm52 -349c0,-9 -5,-18 -18,-18 -13,0 -19,9 -19,18l0 113 -93 0 0 -93c0,-9 -5,-18 -18,-18 -12,0 -19,9 -19,18l0 93 -84 0 0 -113c0,-9 -5,-18 -18,-18 -13,0 -19,9 -19,18l0 133c0,13 9,19 19,19l250 0c10,0 19,-6 19,-19l0 -133zm4 -137c0,-14 -9,-19 -19,-19l-236 0 0 -61c0,-9 -5,-18 -18,-18 -13,0 -19,9 -19,18l0 159c0,10 6,18 19,18 13,0 18,-8 18,-18l0 -60 236 0c10,0 19,-6 19,-19zm-4 -285c0,-10 -5,-18 -18,-18 -13,0 -19,8 -19,18l0 112 -93 0 0 -93c0,-9 -5,-18 -18,-18 -12,0 -19,9 -19,18l0 93 -84 0 0 -112c0,-10 -5,-18 -18,-18 -13,0 -19,8 -19,18l0 132c0,13 9,19 19,19l250 0c10,0 19,-6 19,-19l0 -132zm-273 -250c-10,0 -19,6 -19,19 0,14 9,20 19,20l102 0 0 108 -102 0c-10,0 -19,5 -19,19 0,13 9,19 19,19l258 0c10,0 19,-6 19,-19 0,-13 -9,-19 -19,-19l-119 0 0 -108 119 0c10,0 19,-6 19,-20 0,-13 -9,-19 -19,-19l-258 0zm97 -166l0 65 -97 0c-10,0 -19,5 -19,19 0,14 9,19 19,19l254 0c10,0 19,-5 19,-19l0 -84c0,-53 -34,-79 -80,-79l-18 0c-46,0 -78,24 -78,79zm100 -41c25,0 39,11 39,40l0 66 -102 0 0 -65c0,-29 14,-41 39,-41l24 0zm-197 -382c-10,0 -19,6 -19,19 0,14 9,20 19,20l102 0 0 108 -102 0c-10,0 -19,5 -19,19 0,13 9,20 19,20l258 0c10,0 19,-7 19,-20 0,-13 -9,-19 -19,-19l-119 0 0 -108 119 0c10,0 19,-6 19,-20 0,-13 -9,-19 -19,-19l-258 0zm273 -214c0,-9 -5,-18 -18,-18 -13,0 -19,9 -19,18l0 113 -93 0 0 -93c0,-10 -5,-18 -18,-18 -12,0 -19,8 -19,18l0 93 -84 0 0 -113c0,-9 -5,-18 -18,-18 -13,0 -19,9 -19,18l0 133c0,13 9,18 19,18l250 0c10,0 19,-5 19,-18l0 -133zm-37 -258l0 7 -232 0c-10,0 -19,6 -19,19l0 99c0,14 9,19 19,21l232 37 0 13c0,13 9,19 19,19l53 0c10,0 19,-6 19,-19 0,-14 -9,-20 -19,-20l-35 0 0 -157 35 0c10,0 19,-5 19,-19 0,-14 -9,-19 -19,-19l-53 0c-10,0 -19,5 -19,19zm-28 141l-186 -29 0 -66 214 0 0 100c-10,-2 -19,-4 -28,-5zm65 -354c0,-10 -5,-18 -18,-18 -13,0 -19,8 -19,18l0 113 -93 0 0 -93c0,-10 -5,-19 -18,-19 -12,0 -19,9 -19,19l0 93 -84 0 0 -113c0,-10 -5,-18 -18,-18 -13,0 -19,8 -19,18l0 132c0,13 9,19 19,19l250 0c10,0 19,-6 19,-19l0 -132zm-314 -158c0,-38 -27,-57 -55,-57 -9,0 -14,6 -14,15 0,8 5,14 14,15 16,1 27,11 27,27 0,15 -11,25 -27,27 -9,0 -14,6 -14,15 0,8 5,15 14,15 28,0 55,-20 55,-57zm299 -54c10,0 19,-5 19,-19 0,-14 -9,-19 -19,-19l-258 0c-10,0 -19,6 -19,20 0,8 3,13 14,19l196 110 0 0c-8,0 -18,-1 -29,-1l-162 0c-10,0 -19,5 -19,18 0,14 9,20 19,20l258 0c10,0 19,-6 19,-20 0,-8 -3,-13 -14,-19l-196 -110 0 -1c8,1 18,2 29,2l162 0zm-18 -175c0,29 -20,40 -45,40l-132 0c-25,0 -45,-11 -45,-40l0 -42c0,-17 7,-27 24,-28 10,-1 19,-6 19,-19 0,-14 -9,-20 -19,-20 -43,0 -61,25 -61,67l0 42c0,53 37,79 82,79l132 0c45,0 82,-26 82,-79l0 -42c0,-42 -18,-67 -61,-67 -10,0 -19,6 -19,20 0,13 9,18 19,19 17,1 24,11 24,28l0 42zm37 -229c0,-13 -9,-19 -19,-19l-236 0 0 -60c0,-10 -5,-18 -18,-18 -13,0 -19,8 -19,18l0 159c0,9 6,18 19,18 13,0 18,-9 18,-18l0 -60 236 0c10,0 19,-6 19,-20zm-132 -172l0 -68c0,-28 18,-39 43,-39l9 0c25,0 39,11 39,39l0 68 -91 0zm-37 0l-86 0 0 -50c0,-28 10,-40 35,-40l9 0c25,0 42,12 42,40l0 50zm80 -146c-34,0 -58,15 -67,46 -11,-18 -29,-28 -55,-28l-9 0c-46,0 -72,26 -72,78l0 69c0,14 9,19 19,19l250 0c10,0 19,-5 19,-19l0 -87c0,-52 -30,-78 -76,-78l-9 0zm70 -198c10,0 19,-5 19,-18 0,-14 -9,-20 -19,-20l-258 0c-10,0 -19,6 -19,20 0,8 3,13 14,19l196 110 0 1c-8,-1 -18,-2 -29,-2l-162 0c-10,0 -19,5 -19,19 0,13 9,19 19,19l258 0c10,0 19,-6 19,-20 0,-8 -3,-13 -14,-19l-196 -110 0 -1c8,1 18,2 29,2l162 0zm19 -171c0,-14 -9,-20 -19,-20l-236 0 0 -60c0,-9 -5,-18 -18,-18 -13,0 -19,9 -19,18l0 159c0,9 6,18 19,18 13,0 18,-9 18,-18l0 -60 236 0c10,0 19,-6 19,-19zm-4 -286c0,-9 -5,-18 -18,-18 -13,0 -19,9 -19,18l0 113 -93 0 0 -93c0,-9 -5,-18 -18,-18 -12,0 -19,9 -19,18l0 93 -84 0 0 -113c0,-9 -5,-18 -18,-18 -13,0 -19,9 -19,18l0 133c0,13 9,19 19,19l250 0c10,0 19,-6 19,-19l0 -133zm-52 -126c-23,-2 -199,-24 -199,-24l0 -72 236 0c10,0 19,-6 19,-20 0,-13 -9,-19 -19,-19l-254 0c-10,0 -19,6 -19,19l0 108c0,12 8,18 19,20 12,1 192,23 208,25 9,1 15,2 20,5 7,4 9,11 9,23 0,10 7,19 20,19 14,0 18,-9 18,-19 0,-36 -11,-51 -32,-59 -8,-3 -15,-4 -26,-6zm52 -349c0,-9 -5,-18 -18,-18 -13,0 -19,9 -19,18l0 113 -93 0 0 -93c0,-9 -5,-18 -18,-18 -12,0 -19,9 -19,18l0 93 -84 0 0 -113c0,-9 -5,-18 -18,-18 -13,0 -19,9 -19,18l0 133c0,13 9,19 19,19l250 0c10,0 19,-6 19,-19l0 -133zm-273 -249c-10,0 -19,6 -19,19 0,14 9,19 19,19l102 0 0 109 -102 0c-10,0 -19,5 -19,19 0,13 9,19 19,19l258 0c10,0 19,-6 19,-19 0,-14 -9,-19 -19,-19l-119 0 0 -109 119 0c10,0 19,-5 19,-19 0,-13 -9,-19 -19,-19l-258 0zm674 6185l0 -68c0,-28 19,-39 44,-39l9 0c25,0 39,11 39,39l0 68 -92 0zm-36 0l-86 0 0 -50c0,-28 10,-39 34,-39l10 0c25,0 42,11 42,39l0 50zm80 -146c-34,0 -58,15 -68,46 -11,-18 -29,-28 -54,-28l-10 0c-46,0 -71,26 -71,78l0 69c0,14 9,19 19,19l250 0c10,0 19,-5 19,-19l0 -87c0,-52 -30,-78 -76,-78l-9 0zm52 -234c0,28 -20,39 -45,39l-132 0c-26,0 -45,-11 -45,-39l0 -42c0,-18 7,-28 24,-29 10,-1 19,-6 19,-19 0,-14 -9,-20 -19,-20 -43,0 -61,26 -61,68l0 42c0,52 37,78 82,78l132 0c45,0 82,-26 82,-78l0 -42c0,-42 -19,-68 -62,-68 -9,0 -18,6 -18,20 0,13 9,18 18,19 18,1 25,11 25,29l0 42zm-177 -193c-26,0 -45,-11 -45,-40l0 -32c0,-29 19,-40 45,-40l132 0c25,0 45,11 45,40l0 32c0,29 -20,40 -45,40l-132 0zm0 -151c-45,0 -82,26 -82,79l0 32c0,53 37,79 82,79l132 0c45,0 82,-26 82,-79l0 -32c0,-53 -37,-79 -82,-79l-132 0zm0 -93c-26,0 -45,-11 -45,-39l0 -33c0,-28 19,-40 45,-40l132 0c25,0 45,12 45,40l0 33c0,28 -20,39 -45,39l-132 0zm0 -150c-45,0 -82,26 -82,78l0 33c0,52 37,78 82,78l132 0c45,0 82,-26 82,-78l0 -33c0,-52 -37,-78 -82,-78l-132 0zm214 -120c0,-13 -9,-19 -19,-19l-236 0 0 -60c0,-9 -6,-18 -19,-18 -12,0 -18,9 -18,18l0 159c0,9 6,18 18,18 13,0 19,-9 19,-18l0 -60 236 0c10,0 19,-6 19,-20zm-133 -172l0 -68c0,-28 19,-39 44,-39l9 0c25,0 39,11 39,39l0 68 -92 0zm-36 0l-86 0 0 -50c0,-28 10,-39 34,-39l10 0c25,0 42,11 42,39l0 50zm80 -146c-34,0 -58,16 -68,46 -11,-18 -29,-28 -54,-28l-10 0c-46,0 -71,26 -71,78l0 69c0,14 9,20 19,20l250 0c10,0 19,-6 19,-20l0 -87c0,-52 -30,-78 -76,-78l-9 0zm85 -201c0,-10 -6,-18 -19,-18 -12,0 -18,8 -18,18l0 112 -93 0 0 -93c0,-9 -5,-18 -18,-18 -13,0 -19,9 -19,18l0 93 -84 0 0 -112c0,-10 -6,-18 -19,-18 -12,0 -18,8 -18,18l0 132c0,13 9,19 19,19l250 0c10,0 19,-6 19,-19l0 -132zm4 -138c0,-13 -9,-19 -19,-19l-236 0 0 -60c0,-10 -6,-18 -19,-18 -12,0 -18,8 -18,18l0 159c0,9 6,18 18,18 13,0 19,-9 19,-18l0 -60 236 0c10,0 19,-6 19,-20zm-37 -197c0,28 -20,39 -45,39l-132 0c-26,0 -45,-11 -45,-39l0 -42c0,-18 7,-27 24,-29 10,-1 19,-6 19,-19 0,-14 -9,-20 -19,-20 -43,0 -61,26 -61,68l0 42c0,52 37,78 82,78l132 0c45,0 82,-26 82,-78l0 -42c0,-42 -19,-68 -62,-68 -9,0 -18,6 -18,20 0,13 9,18 18,19 18,2 25,11 25,29l0 42zm37 -230c0,-13 -9,-19 -19,-19l-236 0 0 -60c0,-9 -6,-18 -19,-18 -12,0 -18,9 -18,18l0 159c0,9 6,18 18,18 13,0 19,-9 19,-18l0 -60 236 0c10,0 19,-6 19,-20zm-133 -172l0 -67c0,-29 19,-40 44,-40l9 0c25,0 39,11 39,40l0 67 -92 0zm-36 0l-86 0 0 -50c0,-28 10,-39 34,-39l10 0c25,0 42,11 42,39l0 50zm80 -146c-34,0 -58,16 -68,46 -11,-18 -29,-28 -54,-28l-10 0c-46,0 -71,26 -71,78l0 69c0,14 9,20 19,20l250 0c10,0 19,-6 19,-20l0 -86c0,-53 -30,-79 -76,-79l-9 0zm70 -198c10,0 19,-5 19,-18 0,-14 -9,-19 -19,-19l-259 0c-9,0 -18,5 -18,19 0,8 2,13 14,20l195 110 0 0c-7,-1 -17,-2 -28,-2l-163 0c-9,0 -18,6 -18,19 0,14 9,19 18,19l259 0c10,0 19,-6 19,-20 0,-7 -3,-13 -14,-19l-196 -110 0 0c7,1 17,1 28,1l163 0zm0 -248c10,0 19,-5 19,-18 0,-14 -9,-20 -19,-20l-259 0c-9,0 -18,6 -18,20 0,8 2,13 14,19l195 110 0 1c-7,-1 -17,-2 -28,-2l-163 0c-9,0 -18,5 -18,19 0,14 9,19 18,19l259 0c10,0 19,-6 19,-20 0,-8 -3,-13 -14,-19l-196 -110 0 0c7,0 17,1 28,1l163 0zm-18 -285c0,29 -20,40 -45,40l-132 0c-26,0 -45,-11 -45,-40l0 -42c0,-17 7,-27 24,-28 10,-1 19,-6 19,-19 0,-14 -9,-20 -19,-20 -43,0 -61,26 -61,67l0 42c0,53 37,79 82,79l132 0c45,0 82,-26 82,-79l0 -42c0,-41 -19,-67 -62,-67 -9,0 -18,6 -18,20 0,13 9,18 18,19 18,1 25,11 25,28l0 42zm-89 -344l0 -51 107 0c10,0 19,-6 19,-20 0,-13 -9,-19 -19,-19l-259 0c-9,0 -18,6 -18,19 0,14 9,20 18,20l114 0c0,0 0,41 0,58 0,24 -16,37 -35,37 -17,0 -79,0 -79,0 -9,0 -18,5 -18,19 0,13 9,19 18,19l75 0c44,0 77,-19 77,-82zm99 -181c-11,0 -22,6 -22,23 0,16 11,22 22,22l5 0c12,0 22,-6 22,-22 0,-17 -10,-23 -22,-23l-5 0zm-269 -132c0,7 2,11 6,15 22,20 45,43 66,67 7,7 16,10 26,0 9,-9 6,-18 -1,-25 -12,-15 -28,-30 -43,-43l201 0 0 52c0,10 5,18 18,18 13,0 19,-8 19,-18l0 -134c0,-10 -6,-18 -19,-18 -13,0 -18,8 -18,18l0 44 -236 0c-11,0 -19,3 -19,17l0 7zm204 -316c-34,0 -60,14 -70,44 -11,-19 -29,-30 -55,-30l-6 0c-47,0 -73,27 -73,80l0 22c0,42 18,69 61,69 11,0 20,-6 20,-20 0,-14 -9,-19 -20,-19 -17,0 -24,-12 -24,-30l0 -22c0,-29 11,-42 36,-42l6 0c25,0 44,16 44,45l0 24c0,10 5,18 18,18 13,0 18,-8 18,-18l0 -42c0,-29 19,-41 45,-41l14 0c26,0 41,13 41,42l0 44c0,18 -8,30 -25,30 -11,0 -19,5 -19,19 0,14 8,20 19,20 44,0 62,-27 62,-69l0 -44c0,-53 -31,-80 -78,-80l-14 0zm55 -235c0,29 -20,40 -45,40l-132 0c-26,0 -45,-11 -45,-40l0 -42c0,-17 7,-27 24,-29 10,0 19,-5 19,-18 0,-14 -9,-20 -19,-20 -43,0 -61,25 -61,67l0 42c0,52 37,78 82,78l132 0c45,0 82,-26 82,-78l0 -42c0,-42 -19,-67 -62,-67 -9,0 -18,6 -18,20 0,13 9,18 18,18 18,2 25,12 25,29l0 42zm37 -229c0,-14 -9,-19 -19,-19l-236 0 0 -60c0,-10 -6,-19 -19,-19 -12,0 -18,9 -18,19l0 158c0,10 6,19 18,19 13,0 19,-9 19,-19l0 -60 236 0c10,0 19,-5 19,-19zm-27 -141c-11,0 -22,6 -22,22 0,17 11,22 22,22l5 0c12,0 22,-5 22,-22 0,-16 -10,-22 -22,-22l-5 0zm-10 -112c0,30 -15,42 -41,42l-18 0c-26,0 -45,-12 -45,-42l0 -33c0,-29 19,-41 45,-41l18 0c26,0 41,12 41,41l0 33zm-140 -11c0,29 -15,38 -40,38l-9 0c-25,0 -33,-9 -33,-38l0 -10c0,-29 8,-39 33,-39l9 0c25,0 40,10 40,39l0 10zm81 -102c-34,0 -58,15 -67,42 -11,-20 -28,-27 -54,-27l-9 0c-47,0 -70,23 -70,77l0 10c0,54 23,77 70,77l9 0c26,0 43,-7 54,-27 9,26 33,42 67,42l18 0c47,0 78,-27 78,-81l0 -33c0,-53 -31,-80 -78,-80l-18 0zm76 -162c11,0 20,-4 20,-18 0,-14 -9,-19 -20,-19l-66 0 0 -21c0,-11 -6,-19 -19,-19 -13,0 -18,8 -18,19l0 21 -80 0c-11,0 -19,5 -19,19 0,14 8,18 19,18l80 0 0 90c-47,-21 -105,-38 -156,-47 -10,-1 -21,-1 -24,13 -3,12 3,21 14,23 65,12 121,32 170,53 6,3 10,3 15,3 13,0 18,-9 18,-19l0 -116 66 0zm-11 -406l-125 89 -109 -84c-10,-8 -20,-8 -27,1 -9,9 -5,21 4,28l117 87 0 25 -107 0c-9,0 -18,5 -18,18 0,14 9,20 18,20l259 0c10,0 19,-6 19,-20 0,-13 -9,-18 -19,-18l-115 0 0 -26 126 -88c8,-5 12,-16 5,-27 -8,-11 -19,-10 -28,-5zm-183 -77c-26,0 -45,-11 -45,-39l0 -33c0,-29 19,-40 45,-40l132 0c25,0 45,11 45,40l0 33c0,28 -20,39 -45,39l-132 0zm0 -150c-45,0 -82,26 -82,78l0 33c0,52 37,78 82,78l132 0c45,0 82,-26 82,-78l0 -33c0,-52 -37,-78 -82,-78l-132 0zm173 -247l0 8 -232 0c-10,0 -19,6 -19,19l0 99c0,13 8,19 19,21l232 37 0 12c0,14 9,19 19,19l53 0c10,0 19,-5 19,-19 0,-14 -9,-19 -19,-19l-35 0 0 -157 35 0c10,0 19,-6 19,-20 0,-13 -9,-19 -19,-19l-53 0c-10,0 -19,6 -19,19zm-29 141l-185 -28 0 -66 214 0 0 100c-11,-3 -19,-4 -29,-6zm66 -354c0,-9 -6,-18 -19,-18 -12,0 -18,9 -18,18l0 113 -93 0 0 -93c0,-9 -5,-18 -18,-18 -13,0 -19,9 -19,18l0 93 -84 0 0 -113c0,-9 -6,-18 -19,-18 -12,0 -18,9 -18,18l0 133c0,13 9,19 19,19l250 0c10,0 19,-6 19,-19l0 -133zm-27 -247l-125 88 -109 -84c-10,-7 -20,-7 -27,1 -9,10 -5,22 4,29l117 86 0 25 -107 0c-9,0 -18,6 -18,19 0,14 9,20 18,20l259 0c10,0 19,-6 19,-20 0,-13 -9,-19 -19,-19l-115 0 0 -25 126 -89c8,-5 12,-15 5,-26 -8,-12 -19,-11 -28,-5zm-6 -117c0,29 -20,40 -45,40l-132 0c-26,0 -45,-11 -45,-40l0 -42c0,-17 7,-27 24,-29 10,0 19,-5 19,-18 0,-14 -9,-20 -19,-20 -43,0 -61,25 -61,67l0 42c0,53 37,78 82,78l132 0c45,0 82,-25 82,-78l0 -42c0,-42 -19,-67 -62,-67 -9,0 -18,6 -18,20 0,13 9,18 18,18 18,2 25,12 25,29l0 42z"/>
   <path class="fil6" d="M12614 5326l72 -23c10,-3 15,-13 12,-24 -4,-11 -14,-15 -24,-12l-257 83c-10,3 -14,8 -14,20l0 2c0,11 4,16 14,19l257 83c10,4 20,-1 24,-12 3,-11 -2,-20 -12,-24l-72 -23 0 -89zm-125 51c-9,-3 -13,-4 -23,-6l0 0c10,-3 14,-4 23,-7l90 -28 0 69 -90 -28z"/>
   <path class="fil4 str4" d="M8029 11162c376,-101 762,123 863,499 101,376 -122,762 -498,863 -377,101 -763,-122 -864,-498 -101,-376 123,-763 499,-864zm-345 683c-1,-233 154,-448 391,-511 236,-63 478,44 594,247m69 260c2,234 -154,448 -390,511 -237,64 -479,-44 -595,-247m535 68c-62,16 -8,-59 -83,-39 -35,10 -92,106 -109,94 -19,-13 -72,-53 -64,-73 17,-42 21,-90 67,-116 -32,-22 -127,11 -137,-35 -1,-1 -201,-117 -111,-197 18,-16 -19,-72 -6,-113 11,-35 269,-5 259,-41 -4,-17 -33,-57 -92,-64 -11,-1 55,-16 90,-31 7,-3 -17,-26 -13,-29 14,-11 15,-14 33,-18m685 162c0,0 -39,39 -10,46m-1169 305c-3,-26 44,-28 1,-58m680 201c62,-17 -22,-55 53,-75 35,-9 133,46 142,27 9,-21 35,-82 18,-95 -35,-28 -63,-68 -116,-67 17,-35 116,-55 102,-99 0,-1 115,-202 -3,-226 -23,-5 -20,-72 -52,-101 -26,-24 -235,130 -245,94 -4,-17 0,-66 49,-101 8,-7 -56,13 -94,18 -7,1 2,-31 -3,-32 -17,-2 -20,-5 -38,1"/>
   <g>
    <path class="fil7 str5" d="M2112 14349c4,4 6,10 6,16 0,7 -3,13 -8,18 -6,6 -12,8 -20,8 -8,0 -15,-3 -21,-11l-103 -109c-4,-5 -5,-11 -5,-17 0,-5 1,-10 5,-15l103 -109c6,-8 13,-12 21,-12 6,0 12,3 19,8 6,6 9,12 9,19 0,6 -2,11 -6,16l-91 93 91 95zm143 0c4,4 6,10 6,16 0,7 -3,13 -8,18 -6,6 -12,8 -20,8 -8,0 -15,-3 -21,-11l-103 -109c-4,-5 -6,-11 -6,-17 0,-5 2,-10 6,-15l103 -109c6,-8 13,-12 21,-12 6,0 12,3 19,8 6,6 9,12 9,19 0,6 -2,11 -6,16l-91 93 91 95zm177 -174l0 212 160 0c14,0 27,-4 37,-14 11,-10 16,-23 16,-39l0 -106c0,-15 -5,-28 -15,-38 -10,-10 -23,-15 -38,-15l-160 0zm0 -53l159 0c29,0 54,10 75,31 21,20 32,46 32,75l0 106c0,29 -11,54 -31,75 -21,21 -46,31 -75,31l-186 0c-18,0 -27,-9 -27,-26l0 -478c0,-18 9,-27 27,-27l212 0c7,0 14,3 19,9 5,5 8,11 8,18 0,6 -2,12 -7,17 -4,6 -11,9 -20,9l-186 0 0 160zm691 212l0 -319c0,-15 -5,-27 -15,-37 -10,-11 -23,-16 -38,-16l-54 0c-15,0 -27,5 -38,15 -5,5 -9,11 -11,18 -3,6 -4,13 -4,20l0 319c0,15 5,28 15,38 6,5 11,9 17,12 8,2 15,3 21,3l54 0c14,0 27,-4 37,-14 11,-10 16,-23 16,-39zm-266 -212l53 0 0 -106c0,-30 11,-55 31,-76 21,-20 46,-31 75,-31l53 0c30,0 55,11 76,31 20,21 31,46 31,76l0 318c0,29 -11,54 -31,75 -21,21 -46,31 -76,31l-53 0c-28,0 -53,-10 -74,-31 -21,-20 -32,-45 -32,-75l0 -159 -53 0 0 239c0,8 -3,15 -8,20 -5,4 -11,6 -19,6 -7,0 -13,-2 -18,-6 -6,-5 -8,-12 -8,-20l0 -478c0,-7 2,-14 8,-20 5,-4 11,-7 18,-7 7,0 13,3 18,7 6,4 9,11 9,20l0 186zm690 292c0,8 -2,15 -7,20 -5,4 -11,6 -19,6 -7,0 -13,-2 -19,-6 -5,-5 -8,-12 -8,-20l0 -452 -86 0 -127 458c-1,6 -4,10 -9,14 -5,4 -11,6 -16,6 -8,0 -15,-2 -20,-6 -5,-5 -7,-11 -7,-19 0,-4 0,-7 1,-8l133 -478c3,-13 12,-20 25,-20l133 0c17,0 26,9 26,27l0 478zm425 0c0,8 -3,15 -8,20 -5,4 -11,6 -19,6 -7,0 -13,-2 -18,-6 -6,-5 -8,-12 -8,-20l0 -452 -86 0 -128 458c-1,6 -4,10 -9,14 -5,4 -10,6 -16,6 -8,0 -14,-2 -19,-6 -5,-5 -8,-11 -8,-19 0,-4 0,-7 1,-8l133 -478c4,-13 12,-20 25,-20l133 0c18,0 27,9 27,27l0 478zm158 -292l133 0c8,0 14,3 19,8 5,5 8,12 8,18 0,7 -2,13 -7,18 -4,6 -11,9 -20,9l-133 0 0 212 186 0c8,0 14,3 19,9 5,5 8,11 8,18 0,6 -2,12 -7,18 -4,5 -11,8 -19,8l-213 0c-18,0 -27,-8 -27,-25l0 -479c0,-18 9,-27 27,-27l213 0c7,0 13,3 18,9 5,5 8,11 8,18 0,6 -2,12 -7,18 -4,5 -11,8 -20,8l-186 0 0 160zm451 -160l-106 0c-8,0 -15,-2 -20,-7 -4,-6 -7,-12 -7,-19 0,-6 3,-12 7,-18 4,-6 11,-9 20,-9l265 0c8,0 14,3 19,9 5,5 8,11 8,18 0,6 -3,12 -7,17 -4,6 -11,9 -20,9l-106 0 0 452c0,8 -3,15 -8,20 -4,4 -11,6 -18,6 -7,0 -14,-2 -19,-6 -5,-5 -8,-12 -8,-20l0 -452zm345 160l133 0c7,0 14,3 19,8 5,5 8,12 8,18 0,7 -2,13 -7,18 -4,6 -11,9 -20,9l-133 0 0 212 186 0c8,0 14,3 19,9 5,5 8,11 8,18 0,6 -2,12 -7,18 -4,5 -11,8 -20,8l-213 0c-17,0 -26,-8 -26,-25l0 -479c0,-18 9,-27 26,-27l213 0c8,0 14,3 19,9 5,5 8,11 8,18 0,6 -2,12 -7,18 -4,5 -11,8 -20,8l-186 0 0 160zm584 0l0 -186c0,-7 2,-13 8,-19 5,-5 11,-8 18,-8 7,0 13,3 18,7 6,4 8,11 8,20l0 477c0,8 -2,14 -8,20 -6,5 -12,7 -18,7 -7,0 -13,-2 -19,-6 -5,-5 -7,-11 -7,-20l0 -239 -213 0 0 239c0,8 -2,15 -8,20 -4,4 -11,6 -18,6 -7,0 -14,-2 -19,-6 -5,-5 -8,-12 -8,-20l0 -478c0,-7 3,-13 8,-20 5,-4 12,-6 19,-6 6,0 13,2 18,6 5,5 8,11 8,20l0 186 213 0zm211 53l160 0c15,0 27,5 38,15 10,10 15,23 15,38l0 106c0,15 -5,28 -15,38 -5,5 -11,9 -17,12 -7,2 -14,3 -21,3l-160 0 0 -212zm0 -53l0 -186c0,-7 -2,-13 -8,-19 -5,-5 -11,-8 -18,-8 -6,0 -12,3 -18,7 -6,4 -8,11 -8,20l0 478c0,17 8,26 26,26l186 0c28,0 53,-10 74,-30 21,-21 32,-46 32,-76l0 -106c0,-29 -11,-54 -31,-75 -21,-21 -46,-31 -75,-31l-160 0zm956 0l0 -186c0,-7 2,-13 8,-19 5,-5 11,-8 18,-8 7,0 13,3 18,7 6,4 9,11 9,20l0 477c0,8 -3,14 -9,20 -6,5 -12,7 -18,7 -7,0 -13,-2 -19,-6 -5,-5 -7,-11 -7,-20l0 -239 -213 0 0 239c0,8 -2,15 -7,20 -5,4 -12,6 -19,6 -7,0 -13,-2 -19,-6 -5,-5 -8,-12 -8,-20l0 -478c0,-7 3,-13 8,-20 6,-4 12,-6 19,-6 6,0 13,2 18,6 5,5 8,11 8,20l0 186 213 0zm212 0l133 0c7,0 14,3 19,8 5,5 8,12 8,18 0,7 -3,13 -7,18 -4,6 -11,9 -20,9l-133 0 0 212 186 0c7,0 14,3 19,9 5,5 8,11 8,18 0,6 -3,12 -7,18 -4,5 -11,8 -20,8l-213 0c-17,0 -26,-8 -26,-25l0 -479c0,-18 9,-27 26,-27l213 0c7,0 14,3 19,9 5,5 8,11 8,18 0,6 -3,12 -7,18 -4,5 -11,8 -20,8l-186 0 0 160zm374 265l50 -454c0,-16 9,-24 27,-24l159 0c18,0 26,9 26,27l0 451 27 0c18,0 27,9 27,27l0 53c0,7 -3,13 -8,18 -6,5 -12,8 -19,8 -6,0 -11,-2 -17,-7 -6,-4 -9,-11 -9,-19l0 -27 -266 0 0 27c0,7 -3,13 -8,18 -6,5 -12,8 -18,8 -7,0 -12,-2 -18,-7 -6,-4 -9,-11 -9,-19l0 -53c0,-18 9,-27 27,-27l29 0zm210 0l0 -425 -109 0 -48 425 157 0zm264 -265l134 0c7,0 13,3 19,8 5,5 7,12 7,18 0,7 -2,13 -6,18 -5,6 -11,9 -20,9l-134 0 0 212 187 0c7,0 13,3 19,9 5,5 8,11 8,18 0,6 -3,12 -7,18 -5,5 -11,8 -20,8l-213 0c-18,0 -26,-8 -26,-25l0 -479c0,-18 8,-27 26,-27l213 0c7,0 14,3 19,9 5,5 8,11 8,18 0,6 -3,12 -7,18 -5,5 -11,8 -20,8l-187 0 0 160zm531 -265l-106 0c-8,0 -15,-3 -20,-8 -4,-5 -7,-12 -7,-19 0,-6 3,-12 7,-18 5,-5 11,-8 20,-8l106 0c7,0 14,3 19,8 5,5 8,11 8,18 0,6 -2,12 -7,18 -4,6 -11,9 -20,9zm106 557c0,8 -2,15 -7,20 -5,4 -11,6 -19,6 -7,0 -13,-2 -19,-6 -5,-5 -8,-12 -8,-20l0 -375 -215 388c-3,5 -7,9 -12,12l-5 4c-2,0 -5,1 -9,2 -5,0 -11,-3 -17,-8 -5,-6 -7,-13 -7,-23l0 -478c0,-7 3,-13 8,-20 5,-4 11,-6 18,-6 7,0 13,2 19,6 5,5 8,11 8,20l0 375 215 -387c3,-5 6,-9 11,-13 5,-4 10,-6 15,-6 6,0 11,3 16,9 5,6 8,13 8,22l0 478zm345 26l-132 0c-29,0 -54,-10 -75,-31 -21,-20 -32,-45 -32,-75l0 -318c0,-30 11,-55 31,-76 21,-20 46,-31 76,-31l132 0c8,0 14,3 19,9 5,5 8,11 8,18 0,6 -2,12 -7,17 -4,6 -11,9 -20,9l-133 0c-15,0 -27,5 -38,15 -5,5 -9,11 -11,18 -3,6 -4,13 -4,20l0 319c0,15 5,28 15,38 6,5 11,9 17,12 8,2 15,3 21,3l133 0c8,0 14,3 19,9 5,5 8,11 8,18 0,6 -2,12 -7,18 -4,5 -11,8 -20,8zm265 -478l-106 0c-8,0 -14,-2 -19,-7 -5,-6 -7,-12 -7,-19 0,-6 2,-12 6,-18 5,-6 11,-9 20,-9l265 0c8,0 14,3 19,9 5,5 8,11 8,18 0,6 -2,12 -7,17 -4,6 -11,9 -20,9l-106 0 0 452c0,8 -2,15 -7,20 -5,4 -11,6 -19,6 -7,0 -13,-2 -19,-6 -5,-5 -8,-12 -8,-20l0 -452zm560 175c15,9 27,22 36,39 10,16 14,33 14,52l0 106c0,29 -10,54 -31,75 -20,21 -46,31 -75,31l-185 0c-18,0 -27,-9 -27,-26l0 -478c0,-18 9,-27 27,-27l159 0c29,0 54,11 75,31 21,21 31,46 31,76l0 53c0,12 -2,24 -6,35 -4,11 -10,22 -18,33zm-215 38l0 212 159 0c15,0 28,-4 38,-14 10,-10 16,-23 16,-39l0 -106c0,-15 -6,-28 -15,-38 -10,-10 -23,-15 -39,-15l-159 0zm133 -53c15,0 27,-5 38,-15 10,-10 15,-23 15,-38l0 -54c0,-15 -5,-27 -15,-37 -10,-11 -23,-16 -38,-16l-133 0 0 160 133 0zm557 292c0,8 -3,15 -8,20 -5,4 -11,6 -19,6 -7,0 -13,-2 -18,-6 -5,-5 -8,-12 -8,-20l0 -375 -215 388c-4,5 -7,9 -12,12l-6 4c-2,0 -4,1 -8,2 -5,0 -11,-3 -18,-8 -4,-6 -6,-13 -6,-23l0 -478c0,-7 2,-13 7,-20 6,-4 12,-6 19,-6 7,0 13,2 18,6 6,5 8,11 8,20l0 375 216 -388c2,-4 6,-8 11,-12 5,-4 10,-6 14,-6 6,0 12,3 17,9 5,5 8,13 8,22l0 478zm239 -452l-107 0c-8,0 -14,-2 -19,-7 -5,-6 -7,-12 -7,-19 0,-6 2,-12 6,-18 5,-6 12,-9 20,-9l266 0c7,0 13,3 18,9 6,5 8,11 8,18 0,6 -2,12 -6,17 -5,6 -12,9 -20,9l-107 0 0 452c0,8 -2,15 -7,20 -5,4 -11,6 -19,6 -7,0 -13,-2 -18,-6 -6,-5 -8,-12 -8,-20l0 -452zm344 160l134 0c7,0 13,3 18,8 6,5 8,12 8,18 0,7 -2,13 -7,18 -4,6 -11,9 -19,9l-134 0 0 212 187 0c7,0 13,3 18,9 6,5 8,11 8,18 0,6 -2,12 -6,18 -5,5 -11,8 -20,8l-213 0c-18,0 -27,-8 -27,-25l0 -479c0,-18 9,-27 27,-27l213 0c7,0 13,3 18,9 6,5 8,11 8,18 0,6 -2,12 -6,18 -5,5 -11,8 -20,8l-187 0 0 160zm638 292c0,8 -3,15 -8,20 -5,4 -11,6 -19,6 -7,0 -13,-2 -18,-6 -6,-5 -8,-12 -8,-20l0 -452 -86 0 -128 458c-1,6 -4,10 -9,14 -5,4 -10,6 -16,6 -8,0 -14,-2 -19,-6 -5,-5 -8,-11 -8,-19 0,-4 0,-7 1,-8l133 -478c4,-13 12,-20 25,-20l133 0c18,0 27,9 27,27l0 478zm158 -292l133 0c8,0 14,3 19,8 5,5 8,12 8,18 0,7 -2,13 -7,18 -4,6 -11,9 -20,9l-133 0 0 212 186 0c8,0 14,3 19,9 5,5 8,11 8,18 0,6 -2,12 -7,18 -4,5 -11,8 -19,8l-213 0c-18,0 -27,-8 -27,-25l0 -479c0,-18 9,-27 27,-27l213 0c7,0 13,3 18,9 5,5 8,11 8,18 0,6 -2,12 -7,18 -4,5 -11,8 -20,8l-186 0 0 160zm584 0l0 -186c0,-7 2,-13 8,-19 5,-5 11,-8 18,-8 7,0 13,3 18,7 6,4 9,11 9,20l0 477c0,8 -3,14 -9,20 -6,5 -12,7 -18,7 -7,0 -13,-2 -19,-6 -5,-5 -7,-11 -7,-20l0 -239 -213 0 0 239c0,8 -2,15 -7,20 -5,4 -11,6 -19,6 -7,0 -13,-2 -19,-6 -5,-5 -8,-12 -8,-20l0 -478c0,-7 3,-13 8,-20 6,-4 12,-6 19,-6 7,0 13,2 18,6 5,5 8,11 8,20l0 186 213 0zm745 15c15,9 27,22 36,39 10,16 14,33 14,52l0 106c0,29 -10,54 -31,75 -20,21 -45,31 -75,31l-185 0c-18,0 -27,-9 -27,-26l0 -478c0,-18 9,-27 27,-27l159 0c29,0 55,11 75,31 21,21 31,46 31,76l0 53c0,12 -2,24 -6,35 -3,11 -10,22 -18,33zm-215 38l0 212 159 0c15,0 28,-4 38,-14 10,-10 16,-23 16,-39l0 -106c0,-15 -5,-28 -15,-38 -10,-10 -23,-15 -39,-15l-159 0zm133 -53c15,0 27,-5 38,-15 10,-10 15,-23 15,-38l0 -54c0,-15 -5,-27 -15,-37 -10,-11 -23,-16 -38,-16l-133 0 0 160 133 0zm796 318l-133 0c-29,0 -54,-10 -75,-31 -21,-20 -31,-45 -31,-75l0 -318c0,-30 10,-55 31,-76 20,-20 45,-31 75,-31l133 0c7,0 14,3 19,9 5,5 7,11 7,18 0,6 -2,12 -6,17 -5,6 -11,9 -20,9l-133 0c-15,0 -28,5 -38,15 -5,5 -9,11 -12,18 -2,6 -3,13 -3,20l0 319c0,15 5,28 15,38 5,5 11,9 17,12 8,2 15,3 21,3l133 0c7,0 14,3 19,9 5,5 7,11 7,18 0,6 -2,12 -6,18 -5,5 -11,8 -20,8zm427 -106c0,29 -11,54 -31,75 -21,21 -46,31 -76,31l-106 0c-28,0 -53,-10 -74,-31 -21,-20 -32,-45 -32,-75l0 -318c0,-30 11,-55 31,-76 21,-20 46,-31 75,-31l106 0c30,0 55,11 76,31 20,21 31,46 31,76l0 318zm-53 0l0 -319c0,-15 -5,-27 -15,-37 -10,-11 -23,-16 -38,-16l-107 0c-15,0 -27,5 -38,15 -5,5 -9,11 -11,18 -3,6 -4,13 -4,20l0 319c0,15 5,28 15,38 6,5 11,9 17,12 8,2 15,3 21,3l107 0c14,0 27,-4 37,-14 11,-10 16,-23 16,-39zm519 0c0,29 -10,54 -31,75 -20,21 -45,31 -75,31l-106 0c-29,0 -53,-10 -74,-31 -21,-20 -32,-45 -32,-75l0 -318c0,-30 11,-55 31,-76 21,-20 46,-31 75,-31l106 0c30,0 55,11 75,31 21,21 31,46 31,76l0 318zm-52 0l0 -319c0,-15 -5,-27 -15,-37 -10,-11 -23,-16 -39,-16l-106 0c-15,0 -27,5 -38,15 -5,5 -9,11 -11,18 -3,6 -4,13 -4,20l0 319c0,15 5,28 15,38 6,5 11,9 17,12 8,2 15,3 21,3l106 0c15,0 28,-4 38,-14 10,-10 16,-23 16,-39zm307 -372l-106 0c-8,0 -15,-2 -20,-7 -5,-6 -7,-12 -7,-19 0,-6 2,-12 7,-18 4,-6 11,-9 20,-9l265 0c7,0 13,3 19,9 5,5 7,11 7,18 0,6 -2,12 -6,17 -5,6 -11,9 -20,9l-106 0 0 452c0,8 -3,15 -8,20 -5,4 -11,6 -19,6 -7,0 -13,-2 -18,-6 -6,-5 -8,-12 -8,-20l0 -452zm559 175c15,9 27,22 37,39 9,16 14,33 14,52l0 106c0,29 -11,54 -31,75 -21,21 -46,31 -75,31l-186 0c-18,0 -27,-9 -27,-26l0 -478c0,-18 9,-27 27,-27l159 0c30,0 55,11 75,31 21,21 31,46 31,76l0 53c0,12 -2,24 -5,35 -4,11 -10,22 -19,33zm-215 38l0 212 160 0c15,0 27,-4 37,-14 11,-10 16,-23 16,-39l0 -106c0,-15 -5,-28 -15,-38 -10,-10 -23,-15 -38,-15l-160 0zm133 -53c15,0 28,-5 38,-15 10,-10 16,-23 16,-38l0 -54c0,-15 -6,-27 -15,-37 -10,-11 -23,-16 -39,-16l-133 0 0 160 133 0zm292 0l133 0c8,0 14,3 19,8 5,5 8,12 8,18 0,7 -2,13 -7,18 -4,6 -11,9 -20,9l-133 0 0 212 186 0c8,0 14,3 19,9 5,5 8,11 8,18 0,6 -2,12 -7,18 -4,5 -11,8 -20,8l-213 0c-17,0 -26,-8 -26,-25l0 -479c0,-18 9,-27 26,-27l213 0c8,0 14,3 19,9 5,5 8,11 8,18 0,6 -2,12 -7,18 -4,5 -11,8 -20,8l-186 0 0 160zm451 -160l-106 0c-8,0 -15,-2 -20,-7 -4,-6 -7,-12 -7,-19 0,-6 2,-12 7,-18 4,-6 11,-9 20,-9l265 0c7,0 14,3 19,9 5,5 7,11 7,18 0,6 -2,12 -6,17 -5,6 -11,9 -20,9l-106 0 0 452c0,8 -3,15 -8,20 -5,4 -11,6 -19,6 -7,0 -13,-2 -18,-6 -5,-5 -8,-12 -8,-20l0 -452z"/>
    <path class="fil7 str5" d="M16316 14440l-133 0c-29,0 -54,-10 -75,-31 -21,-20 -31,-45 -31,-75l0 -318c0,-30 10,-55 31,-76 20,-20 45,-31 75,-31l133 0c7,0 13,3 19,9 5,5 7,11 7,18 0,6 -2,12 -6,17 -5,6 -11,9 -20,9l-133 0c-15,0 -28,5 -38,15 -5,5 -9,11 -12,18 -2,6 -3,13 -3,20l0 319c0,15 5,28 15,38 5,5 11,9 17,12 7,2 14,3 21,3l133 0c7,0 13,3 19,9 5,5 7,11 7,18 0,6 -2,12 -6,18 -5,5 -11,8 -20,8zm265 -478l-106 0c-8,0 -15,-2 -20,-7 -5,-6 -7,-12 -7,-19 0,-6 2,-12 7,-18 4,-6 11,-9 20,-9l265 0c7,0 13,3 19,9 5,5 7,11 7,18 0,6 -2,12 -6,17 -5,6 -11,9 -20,9l-106 0 0 452c0,8 -3,15 -8,20 -5,4 -11,6 -19,6 -7,0 -13,-2 -18,-6 -6,-5 -8,-12 -8,-20l0 -452zm559 175c15,9 27,22 37,39 9,16 14,33 14,52l0 106c0,29 -11,54 -31,75 -21,21 -46,31 -75,31l-186 0c-18,0 -26,-9 -26,-26l0 -478c0,-18 8,-27 26,-27l159 0c30,0 55,11 75,31 21,21 31,46 31,76l0 53c0,12 -2,24 -5,35 -4,11 -10,22 -19,33zm-215 38l0 212 160 0c15,0 27,-4 37,-14 11,-10 16,-23 16,-39l0 -106c0,-15 -5,-28 -15,-38 -10,-10 -23,-15 -38,-15l-160 0zm133 -53c15,0 28,-5 38,-15 10,-10 16,-23 16,-38l0 -54c0,-15 -6,-27 -15,-37 -10,-11 -23,-16 -39,-16l-133 0 0 160 133 0zm557 292c0,8 -2,15 -7,20 -5,4 -12,6 -19,6 -7,0 -13,-2 -19,-6 -5,-5 -8,-12 -8,-20l0 -375 -215 388c-3,5 -7,9 -12,12l-6 4c-1,0 -4,1 -8,2 -5,0 -11,-3 -17,-8 -5,-6 -7,-13 -7,-23l0 -478c0,-7 2,-13 8,-20 5,-4 11,-6 18,-6 7,0 13,2 19,6 5,5 8,11 8,20l0 375 215 -388c3,-4 6,-8 11,-12 5,-4 10,-6 15,-6 6,0 11,3 16,9 5,5 8,13 8,22l0 478zm425 0c0,8 -3,15 -8,20 -5,4 -11,6 -19,6 -7,0 -13,-2 -18,-6 -6,-5 -8,-12 -8,-20l0 -375 -216 388c-3,5 -7,9 -11,12l-6 4c-2,0 -5,1 -8,2 -5,0 -11,-3 -18,-8 -4,-6 -7,-13 -7,-23l0 -478c0,-7 3,-13 8,-20 5,-4 12,-6 19,-6 6,0 13,2 18,6 5,5 8,11 8,20l0 375 215 -388c3,-4 7,-8 12,-12 5,-4 9,-6 14,-6 6,0 11,3 16,9 6,5 9,13 9,22l0 478zm-14418 875l-133 0c-28,0 -53,-10 -74,-31 -21,-20 -32,-45 -32,-75l0 -318c0,-30 11,-55 31,-76 21,-20 46,-30 75,-30l133 0c8,0 14,2 19,8 5,5 8,11 8,18 0,6 -2,12 -7,18 -4,5 -11,8 -20,8l-133 0c-15,0 -27,5 -38,15 -5,6 -9,11 -11,18 -3,6 -4,13 -4,20l0 319c0,15 5,28 15,38 6,5 11,9 17,12 8,2 15,4 21,4l133 0c8,0 14,2 19,8 5,5 8,11 8,18 0,6 -2,12 -7,18 -4,6 -11,8 -20,8zm716 -265l0 -239c0,-7 3,-14 8,-20 6,-4 12,-6 19,-6 6,0 13,2 18,6 5,5 8,11 8,20l0 478c0,8 -2,15 -7,20 -5,4 -11,6 -19,6 -7,0 -13,-2 -19,-6 -5,-5 -8,-11 -8,-20l0 -186 -159 0c-29,0 -54,-11 -75,-31 -21,-21 -31,-46 -31,-75l0 -186c0,-7 3,-14 8,-20 5,-4 11,-6 18,-6 7,0 13,2 19,6 5,5 8,11 8,20l0 186c0,15 5,27 15,38 5,4 11,8 17,11 8,3 15,4 21,4l159 0zm159 239c0,-7 3,-13 8,-19 5,-5 11,-7 19,-7 6,0 11,2 17,7 6,6 9,12 9,19 0,6 -2,12 -8,18 -5,6 -11,8 -18,8 -8,0 -14,-2 -20,-7 -4,-6 -7,-12 -7,-19zm319 0c0,8 -3,15 -8,20 -5,4 -11,6 -19,6 -7,0 -13,-2 -18,-6 -6,-5 -8,-11 -8,-20l0 -414 -61 61c-5,5 -12,8 -18,8 -7,0 -13,-3 -19,-8 -5,-6 -8,-12 -8,-19 0,-6 2,-12 8,-18l106 -107c3,-3 7,-6 11,-8 3,-2 7,-4 12,-4 4,0 9,3 15,8 4,6 7,13 7,23l0 478zm236 -451l-106 0c-8,0 -15,-2 -20,-7 -4,-6 -7,-12 -7,-19 0,-7 3,-13 7,-18 5,-6 12,-9 20,-9l106 0c42,0 75,14 99,41 23,25 34,56 34,91 0,22 -4,41 -13,59 -8,18 -21,34 -39,49 15,11 27,26 37,45 10,19 15,38 15,60l0 53c0,36 -13,67 -39,93 -26,26 -58,39 -94,39l-106 0c-8,0 -15,-2 -20,-7 -4,-6 -7,-12 -7,-19 0,-6 3,-12 7,-18 5,-6 11,-8 20,-8l106 0c22,0 41,-8 57,-24 15,-15 23,-34 23,-56l0 -53c0,-22 -8,-41 -23,-56 -15,-16 -34,-24 -57,-24l-53 0c-8,0 -15,-2 -20,-7 -4,-6 -7,-12 -7,-19 0,-6 3,-12 7,-18 5,-6 11,-9 20,-9l53 0c24,0 43,-8 58,-25 13,-15 20,-34 20,-56 0,-22 -6,-39 -19,-54 -14,-16 -34,-24 -59,-24zm798 477l-132 0c-29,0 -54,-10 -75,-31 -21,-20 -32,-45 -32,-75l0 -318c0,-30 11,-55 31,-76 21,-20 46,-30 76,-30l132 0c8,0 14,2 19,8 5,5 8,11 8,18 0,6 -2,12 -7,18 -4,5 -11,8 -20,8l-133 0c-14,0 -27,5 -38,15 -5,6 -8,11 -11,18 -2,6 -4,13 -4,20l0 319c0,15 5,28 15,38 6,5 11,9 18,12 7,2 14,4 20,4l133 0c8,0 14,2 19,8 5,5 8,11 8,18 0,6 -2,12 -7,18 -4,6 -11,8 -20,8zm266 -478l-107 0c-8,0 -14,-2 -19,-7 -5,-6 -7,-12 -7,-19 0,-6 2,-12 6,-18 5,-6 12,-8 20,-8l265 0c8,0 14,2 19,8 5,5 8,11 8,18 0,6 -2,12 -7,18 -4,5 -11,8 -20,8l-106 0 0 452c0,8 -2,15 -7,20 -5,4 -11,6 -19,6 -7,0 -13,-2 -19,-6 -5,-5 -7,-11 -7,-20l0 -452zm291 452c0,-7 3,-13 8,-19 5,-5 11,-7 19,-7 5,0 11,2 17,7 6,6 9,12 9,19 0,6 -3,12 -8,18 -5,6 -11,8 -18,8 -8,0 -14,-2 -20,-7 -4,-6 -7,-12 -7,-19zm319 -292c24,0 44,-8 60,-25 13,-15 19,-34 19,-55 0,-21 -6,-40 -19,-55 -15,-16 -35,-25 -60,-25 -23,0 -43,9 -60,25 -13,16 -20,34 -20,55 0,22 7,40 20,55 15,17 34,25 60,25zm0 53c-34,0 -60,11 -80,33 -18,20 -27,44 -27,73 0,29 9,53 27,73 20,23 47,34 80,34 33,0 60,-11 80,-33 18,-20 27,-45 27,-74 0,-28 -9,-52 -27,-73 -20,-22 -47,-33 -80,-33zm87 -29c24,13 42,32 54,57 12,24 18,50 18,78 0,42 -13,78 -40,109 -29,34 -69,50 -119,50 -50,0 -90,-16 -120,-49 -26,-29 -40,-66 -40,-110 0,-28 6,-54 18,-78 12,-24 30,-44 54,-58 -14,-12 -25,-27 -33,-46 -8,-18 -12,-37 -12,-57 0,-35 11,-66 33,-91 25,-28 58,-41 100,-41 41,0 74,13 99,41 22,25 33,56 33,91 0,20 -4,39 -11,57 -7,19 -19,34 -34,47zm417 136l53 0c7,0 13,3 19,8 5,6 7,12 7,18 0,7 -2,12 -6,18 -5,6 -11,9 -20,9l-53 0 0 79c0,8 -3,15 -8,20 -5,4 -11,6 -19,6 -7,0 -13,-2 -18,-6 -5,-5 -8,-11 -8,-20l0 -79 -160 0c-18,0 -27,-7 -27,-22l1 -6 1 -6 106 -372c2,-5 5,-10 9,-15l5 -2c3,-2 7,-2 11,-2 7,0 14,2 19,7 5,5 8,11 8,19l-1 8 -97 338 125 0 0 -80c0,-7 3,-13 8,-19 5,-5 11,-7 18,-7 7,0 13,2 19,6 5,5 8,11 8,20l0 80zm822 132c0,8 -3,15 -8,20 -5,4 -11,6 -19,6 -7,0 -13,-2 -18,-6 -6,-5 -8,-11 -8,-20l0 -375 -216 388c-3,5 -6,9 -11,13l-6 3c-2,1 -4,1 -8,2 -5,0 -11,-3 -18,-8 -4,-5 -7,-13 -7,-23l0 -478c0,-7 3,-13 8,-19 6,-5 12,-7 19,-7 7,0 13,2 18,7 5,4 8,11 8,19l0 376 216 -388c2,-5 6,-9 11,-13 5,-4 10,-6 14,-6 6,0 12,3 17,9 5,6 8,13 8,22l0 478zm265 -239l-79 0c-8,0 -15,-2 -20,-8 -4,-5 -7,-11 -7,-18 0,-7 3,-13 7,-18 5,-6 12,-9 20,-9l79 0c15,0 28,-5 38,-15 10,-10 15,-22 15,-38l0 -53c0,-15 -5,-28 -15,-38 -9,-11 -22,-16 -38,-16l-53 0c-11,0 -22,4 -30,10 -9,6 -16,15 -20,27 -1,5 -4,9 -8,13 -2,2 -5,3 -8,5l-8 1c-8,0 -14,-3 -20,-8 -5,-5 -8,-11 -8,-19l1 -9c7,-21 20,-39 39,-52 18,-14 39,-20 62,-20l53 0c30,0 55,10 75,31 21,20 31,45 31,75l0 53c0,15 -3,30 -9,44 -6,14 -15,26 -27,35 24,21 36,47 36,80l0 106c0,29 -10,54 -31,75 -20,21 -45,31 -75,31l-53 0c-23,0 -43,-6 -61,-19 -19,-14 -32,-31 -40,-54l-1 -9c0,-7 3,-13 8,-18 5,-6 12,-8 20,-8 10,0 18,6 23,18 4,10 10,20 20,28 10,6 21,10 31,10l53 0c15,0 28,-5 38,-15 10,-10 15,-23 15,-39l0 -106c0,-16 -4,-28 -12,-37 -9,-11 -22,-16 -41,-16zm265 0l0 213 159 0c15,0 28,-5 38,-15 10,-10 16,-23 16,-39l0 -106c0,-15 -5,-27 -15,-38 -10,-10 -23,-15 -39,-15l-159 0zm0 -53l159 0c29,0 54,11 75,31 21,21 31,46 31,75l0 106c0,29 -10,54 -31,75 -20,21 -45,31 -75,31l-185 0c-18,0 -27,-8 -27,-26l0 -478c0,-18 9,-26 27,-26l212 0c7,0 14,2 19,8 5,5 8,11 8,18 0,6 -3,12 -7,18 -5,5 -11,8 -20,8l-186 0 0 160zm690 292c0,8 -3,15 -8,20 -4,4 -11,6 -19,6 -7,0 -13,-2 -18,-6 -5,-5 -8,-11 -8,-20l0 -375 -215 388c-3,5 -7,9 -12,13l-6 3c-2,1 -4,1 -8,2 -5,0 -11,-3 -18,-8 -4,-5 -6,-13 -6,-23l0 -478c0,-7 2,-13 8,-19 5,-5 11,-7 18,-7 7,0 13,2 18,7 6,4 8,11 8,19l0 376 216 -388c2,-5 6,-9 11,-13 5,-4 10,-6 14,-6 6,0 12,3 17,9 5,6 8,13 8,22l0 478zm159 -239l159 0c15,0 27,-5 38,-15 10,-10 15,-23 15,-38l0 -107c0,-15 -5,-27 -15,-37 -10,-11 -22,-16 -38,-16l-159 0 0 213zm0 53l0 186c0,8 -3,15 -8,20 -5,4 -11,6 -19,6 -7,0 -13,-2 -18,-6 -5,-5 -8,-11 -8,-20l0 -478c0,-18 9,-26 27,-26l185 0c30,0 55,10 75,31 21,20 31,45 31,75l0 106c0,29 -10,54 -31,74 -21,21 -46,32 -75,32l-159 0zm412 80l-39 114c-2,6 -5,10 -10,14 -3,2 -8,4 -14,4 -7,0 -13,-2 -19,-7 -5,-5 -8,-11 -8,-18l2 -10 159 -477c5,-15 14,-23 25,-23 12,0 20,8 25,23l159 477 2 10c0,7 -3,13 -9,18 -5,5 -12,7 -18,7 -4,0 -8,-1 -12,-2 -5,-2 -9,-7 -13,-16l-38 -114 -192 0zm174 -55l-78 -233 -78 233 156 0zm236 -291l-106 0c-8,0 -14,-2 -19,-7 -5,-6 -7,-12 -7,-19 0,-6 2,-12 6,-18 5,-6 11,-8 20,-8l265 0c8,0 14,2 19,8 5,5 8,11 8,18 0,6 -2,12 -7,18 -4,5 -11,8 -20,8l-106 0 0 452c0,8 -2,15 -7,20 -5,4 -11,6 -19,6 -7,0 -13,-2 -19,-6 -5,-5 -8,-11 -8,-20l0 -452zm345 160l133 0c8,0 14,3 19,8 5,6 8,12 8,19 0,6 -2,12 -7,17 -4,6 -11,9 -20,9l-133 0 0 213 186 0c8,0 14,2 19,8 6,5 8,11 8,18 0,6 -2,12 -6,18 -5,6 -12,8 -20,8l-213 0c-18,0 -27,-8 -27,-25l0 -479c0,-18 9,-26 27,-26l213 0c7,0 13,2 18,8 6,5 8,11 8,18 0,6 -2,12 -7,18 -4,5 -11,8 -20,8l-186 0 0 160zm638 292c0,8 -3,15 -8,20 -5,4 -11,6 -19,6 -7,0 -13,-2 -18,-6 -6,-5 -8,-11 -8,-20l0 -452 -87 0 -127 459c-1,5 -4,10 -9,14 -5,3 -10,5 -16,5 -8,0 -15,-2 -20,-6 -5,-5 -7,-11 -7,-19 0,-4 0,-6 1,-8l133 -478c4,-13 12,-19 25,-19l133 0c18,0 27,8 27,26l0 478zm158 -239l159 0c15,0 28,5 38,15 10,10 15,23 15,38l0 106c0,15 -5,28 -15,38 -5,6 -11,9 -17,12 -7,2 -13,4 -21,4l-159 0 0 -213zm0 -53l0 -186c0,-7 -3,-13 -8,-18 -6,-6 -12,-8 -19,-8 -6,0 -12,2 -17,6 -6,5 -9,11 -9,20l0 478c0,18 9,26 26,26l186 0c29,0 53,-10 74,-30 22,-21 32,-46 32,-76l0 -106c0,-29 -10,-54 -31,-74 -20,-21 -45,-32 -75,-32l-159 0zm637 0l0 -186c0,-7 2,-13 8,-19 5,-5 11,-7 18,-7 7,0 13,2 18,6 6,5 9,11 9,20l0 477c0,8 -3,14 -9,20 -6,5 -12,7 -18,7 -7,0 -13,-2 -19,-6 -5,-4 -7,-11 -7,-20l0 -239 -213 0 0 239c0,8 -2,15 -7,20 -5,4 -12,6 -19,6 -7,0 -13,-2 -19,-6 -5,-5 -8,-11 -8,-20l0 -478c0,-7 3,-13 8,-19 6,-5 12,-7 19,-7 6,0 13,2 18,7 5,4 8,11 8,19l0 186 213 0zm477 212c0,29 -10,54 -31,75 -21,21 -46,31 -75,31l-106 0c-29,0 -54,-10 -75,-31 -21,-20 -31,-45 -31,-75l0 -318c0,-30 10,-55 31,-76 20,-20 45,-30 75,-30l106 0c29,0 54,10 75,31 21,20 31,45 31,75l0 318zm-53 0l0 -319c0,-15 -5,-27 -15,-37 -10,-11 -23,-16 -38,-16l-106 0c-15,0 -28,5 -38,15 -5,6 -9,11 -12,18 -2,6 -4,13 -4,20l0 319c0,15 6,28 16,38 5,5 11,9 17,12 7,2 14,4 21,4l106 0c15,0 27,-5 38,-15 10,-10 15,-23 15,-39zm440 -372l-186 0 0 452c0,8 -2,15 -7,20 -5,4 -11,6 -19,6 -7,0 -13,-2 -19,-6 -5,-5 -7,-11 -7,-20l0 -478c0,-18 8,-26 26,-26l213 0c7,0 13,2 18,8 6,5 8,11 8,18 0,6 -2,12 -6,18 -5,5 -12,8 -21,8zm424 372c0,29 -10,54 -31,75 -21,21 -46,31 -75,31l-106 0c-29,0 -54,-10 -75,-31 -21,-20 -31,-45 -31,-75l0 -318c0,-30 10,-55 31,-76 20,-20 46,-30 75,-30l106 0c30,0 55,10 75,31 21,20 31,45 31,75l0 318zm-53 0l0 -319c0,-15 -5,-27 -15,-37 -10,-11 -22,-16 -38,-16l-106 0c-15,0 -28,5 -38,15 -5,6 -9,11 -11,18 -3,6 -4,13 -4,20l0 319c0,15 5,28 15,38 5,5 11,9 17,12 8,2 15,4 21,4l106 0c15,0 27,-5 38,-15 10,-10 15,-23 15,-39zm573 -196l224 -221c5,-5 11,-7 18,-7 6,0 13,2 18,8 6,5 9,11 9,19 0,4 -3,10 -8,18l-158 157 163 289 4 14c0,7 -3,12 -9,17 -5,6 -12,8 -20,8 -8,0 -16,-4 -22,-14l-156 -276 -63 62 0 202c0,8 -3,15 -8,20 -4,4 -11,6 -18,6 -7,0 -14,-2 -19,-6 -5,-5 -8,-11 -8,-20l0 -479c0,-6 3,-13 8,-18 6,-5 12,-7 19,-7 6,0 12,2 18,6 5,4 8,11 8,19l0 203z"/>
    <path class="fil7 str5" d="M14502 15183c0,29 -10,54 -31,75 -21,21 -46,31 -75,31l-106 0c-29,0 -54,-10 -75,-31 -21,-20 -31,-45 -31,-75l0 -318c0,-30 10,-55 31,-76 20,-20 45,-30 75,-30l106 0c29,0 54,10 75,31 21,20 31,45 31,75l0 318zm-53 0l0 -319c0,-15 -5,-27 -15,-37 -10,-11 -23,-16 -38,-16l-106 0c-15,0 -28,5 -38,15 -5,6 -9,11 -12,18 -2,6 -4,13 -4,20l0 319c0,15 5,28 16,38 5,5 11,9 17,12 7,2 14,4 21,4l106 0c15,0 27,-5 38,-15 10,-10 15,-23 15,-39zm229 54l50 -455c0,-16 9,-23 27,-23l159 0c18,0 27,8 27,26l0 452 26 0c18,0 27,8 27,26l0 53c0,7 -3,13 -8,18 -5,6 -11,8 -18,8 -6,0 -12,-2 -18,-6 -6,-5 -9,-11 -9,-20l0 -27 -266 0 0 27c0,7 -3,13 -8,18 -5,6 -11,8 -18,8 -6,0 -12,-2 -18,-6 -6,-5 -9,-11 -9,-20l0 -53c0,-18 9,-26 27,-26l29 0zm210 0l0 -426 -109 0 -48 426 157 0zm265 -266l133 0c7,0 14,3 19,8 5,6 8,12 8,19 0,6 -2,12 -7,17 -4,6 -11,9 -20,9l-133 0 0 213 186 0c8,0 14,2 19,8 5,5 8,11 8,18 0,6 -2,12 -7,18 -4,6 -11,8 -20,8l-213 0c-17,0 -26,-8 -26,-25l0 -479c0,-18 9,-26 26,-26l213 0c8,0 14,2 19,8 5,5 8,11 8,18 0,6 -2,12 -7,18 -4,5 -11,8 -20,8l-186 0 0 160zm371 16l224 -221c5,-5 11,-7 18,-7 6,0 13,2 18,8 6,5 9,11 9,19 0,4 -3,10 -8,18l-158 157 163 289 4 14c0,7 -3,12 -9,17 -5,6 -12,8 -19,8 -9,0 -17,-4 -23,-14l-156 -276 -63 62 0 202c0,8 -2,15 -7,20 -5,4 -12,6 -19,6 -7,0 -14,-2 -19,-6 -5,-5 -8,-11 -8,-20l0 -479c0,-6 3,-13 8,-18 6,-5 12,-7 19,-7 6,0 13,2 18,6 5,4 8,11 8,19l0 203zm584 302l-133 0c-29,0 -54,-10 -75,-31 -21,-20 -31,-45 -31,-75l0 -318c0,-30 10,-55 31,-76 20,-20 45,-30 75,-30l133 0c7,0 13,2 19,8 5,5 7,11 7,18 0,6 -2,12 -6,18 -5,5 -11,8 -20,8l-133 0c-15,0 -28,5 -38,15 -5,6 -9,11 -12,18 -2,6 -4,13 -4,20l0 319c0,15 6,28 16,38 5,5 11,9 17,12 7,2 14,4 21,4l133 0c7,0 13,2 19,8 5,5 7,11 7,18 0,6 -2,12 -6,18 -5,6 -11,8 -20,8zm225 -132l-38 114c-2,6 -5,10 -10,14 -3,2 -8,4 -14,4 -7,0 -14,-2 -19,-7 -6,-5 -9,-11 -9,-18l2 -10 160 -477c5,-15 13,-23 25,-23 11,0 20,8 25,23l159 477 2 10c0,7 -3,13 -9,18 -6,5 -12,7 -19,7 -3,0 -7,-1 -12,-2 -4,-2 -8,-7 -12,-16l-38 -114 -193 0zm175 -55l-78 -233 -79 233 157 0zm-10088 723l137 -206c2,-3 5,-6 9,-9l6 -2 6 0c7,0 13,2 19,8 6,5 9,12 9,19 0,4 -2,9 -5,14l-149 224 149 224 4 8 1 7c0,7 -3,13 -8,18 -6,6 -12,9 -20,9 -9,0 -16,-4 -21,-13l-137 -205 -137 205c-2,4 -5,7 -10,10l-12 3c-5,0 -11,-3 -18,-8 -6,-6 -9,-12 -9,-19 0,-5 2,-10 5,-15l149 -224 -150 -224 -4 -8 0 -7c0,-7 3,-13 8,-18 6,-6 12,-8 20,-8 8,0 15,4 21,12l137 205zm385 181l-39 114c-2,6 -5,10 -10,14 -3,2 -8,4 -14,5 -7,0 -13,-3 -19,-8 -5,-5 -8,-11 -8,-18l2 -10 159 -477c6,-15 14,-23 25,-23 12,0 20,8 25,23l159 477 2 10c0,7 -3,13 -9,18 -5,5 -12,8 -18,8 -4,0 -8,-1 -12,-3 -5,-2 -9,-7 -13,-16l-38 -114 -192 0zm174 -54l-78 -234 -78 234 156 0zm263 -79l0 213 159 0c15,0 27,-5 38,-15 10,-10 15,-23 15,-38l0 -107c0,-15 -5,-27 -15,-37 -10,-11 -22,-16 -38,-16l-159 0zm0 -53l159 0c29,0 54,11 75,31 21,21 31,46 31,75l0 107c0,29 -10,53 -31,74 -21,21 -46,32 -75,32l-186 0c-17,0 -26,-9 -26,-27l0 -478c0,-17 9,-26 26,-26l213 0c7,0 13,2 18,8 6,5 8,11 8,18 0,6 -2,12 -7,18 -4,6 -11,9 -19,9l-186 0 0 159zm438 186l-39 114c-2,6 -5,10 -10,14 -3,2 -8,4 -14,5 -7,0 -13,-3 -19,-8 -5,-5 -8,-11 -8,-18l2 -10 159 -477c5,-15 14,-23 25,-23 12,0 20,8 25,23l159 477 2 10c0,7 -3,13 -9,18 -5,5 -12,8 -18,8 -4,0 -8,-1 -12,-3 -5,-2 -9,-7 -13,-16l-38 -114 -192 0zm174 -54l-78 -234 -78 234 156 0zm263 -79l159 0c15,0 27,-5 38,-15 10,-10 15,-22 15,-38l0 -106c0,-15 -5,-28 -15,-38 -10,-10 -23,-15 -38,-15l-159 0 0 212zm0 53l0 186c0,8 -3,15 -8,20 -5,4 -11,7 -19,7 -7,0 -13,-3 -18,-7 -6,-4 -8,-11 -8,-20l0 -478c0,-17 9,-26 26,-26l186 0c29,0 55,10 75,31 21,20 31,46 31,75l0 106c0,29 -10,54 -31,75 -21,20 -46,31 -75,31l-159 0zm689 106c0,30 -10,54 -31,75 -20,21 -45,32 -75,32l-106 0c-29,0 -53,-11 -74,-31 -21,-21 -32,-46 -32,-76l0 -318c0,-30 11,-55 31,-75 21,-21 46,-31 75,-31l106 0c30,0 55,10 76,31 20,21 30,46 30,75l0 318zm-52 1l0 -319c0,-15 -5,-28 -15,-38 -10,-10 -23,-15 -39,-15l-106 0c-15,0 -27,5 -38,15 -5,5 -9,11 -11,17 -3,6 -4,13 -4,21l0 319c0,15 5,27 15,38 6,4 11,8 17,11 8,3 15,4 21,4l106 0c15,0 28,-5 38,-15 10,-10 16,-23 16,-38zm469 -197c15,9 27,22 36,38 10,16 14,34 14,52l0 106c0,30 -10,54 -31,75 -20,21 -46,32 -75,32l-185 0c-18,0 -27,-9 -27,-27l0 -478c0,-17 9,-26 27,-26l159 0c29,0 54,10 75,31 21,21 31,46 31,75l0 53c0,12 -2,24 -6,35 -4,12 -10,23 -18,34zm-215 37l0 213 159 0c15,0 27,-5 38,-15 10,-10 15,-23 15,-38l0 -107c0,-15 -5,-27 -15,-37 -9,-11 -22,-16 -38,-16l-159 0zm133 -53c15,0 27,-5 38,-15 10,-9 15,-22 15,-38l0 -53c0,-15 -5,-28 -15,-38 -10,-10 -23,-15 -38,-15l-133 0 0 159 133 0zm477 319l-132 0c-29,0 -54,-11 -75,-31 -21,-21 -32,-46 -32,-76l0 -318c0,-30 11,-55 31,-75 21,-21 46,-31 76,-31l132 0c8,0 14,2 19,8 5,5 8,11 8,18 0,6 -2,12 -7,18 -4,6 -11,9 -20,9l-133 0c-14,0 -27,5 -38,15 -5,5 -8,11 -11,17 -2,6 -4,13 -4,21l0 319c0,15 5,27 15,38 6,4 11,8 18,11 7,3 14,4 20,4l133 0c8,0 14,3 19,8 5,5 8,11 8,18 0,6 -2,12 -7,18 -4,6 -11,9 -20,9zm186 -302l223 -222c6,-5 12,-7 18,-7 7,0 13,2 19,8 6,5 9,12 9,19 0,5 -3,11 -9,18l-158 157 163 289 4 14c0,7 -3,13 -9,18 -5,5 -11,8 -19,8 -8,0 -16,-5 -22,-14l-156 -277 -63 62 0 202c0,8 -3,15 -8,20 -5,4 -11,7 -19,7 -7,0 -13,-3 -18,-7 -6,-5 -8,-11 -8,-20l0 -478c0,-7 3,-13 8,-19 5,-5 11,-7 18,-7 7,0 13,2 19,6 5,4 8,11 8,19l0 204zm663 195c0,30 -11,54 -32,75 -20,21 -45,32 -75,32l-106 0c-28,0 -53,-11 -74,-31 -21,-21 -32,-46 -32,-76l0 -318c0,-30 11,-55 31,-75 21,-21 46,-31 75,-31l106 0c30,0 55,10 76,31 20,21 31,46 31,75l0 318zm-53 1l0 -319c0,-15 -5,-28 -15,-38 -10,-10 -23,-15 -38,-15l-107 0c-15,0 -27,5 -38,15 -5,5 -9,11 -11,17 -3,6 -4,13 -4,21l0 319c0,15 5,27 15,38 6,4 11,8 17,11 8,3 15,4 21,4l107 0c14,0 27,-5 37,-15 11,-10 16,-23 16,-38zm440 -372l-186 0 0 451c0,8 -3,15 -8,20 -4,4 -11,7 -18,7 -7,0 -14,-3 -19,-7 -5,-4 -8,-11 -8,-20l0 -478c0,-17 9,-26 27,-26l212 0c7,0 14,2 19,8 5,5 8,11 8,18 0,6 -2,12 -7,18 -4,6 -11,9 -20,9zm424 371c0,30 -11,54 -31,75 -21,21 -46,32 -75,32l-106 0c-29,0 -54,-11 -75,-31 -21,-21 -31,-46 -31,-76l0 -318c0,-30 10,-55 31,-75 20,-21 45,-31 75,-31l106 0c29,0 54,10 75,31 20,21 31,46 31,75l0 318zm-53 1l0 -319c0,-15 -5,-28 -15,-38 -10,-10 -23,-15 -38,-15l-106 0c-15,0 -28,5 -38,15 -6,5 -9,11 -12,17 -2,6 -4,13 -4,21l0 319c0,15 5,27 16,38 5,4 11,8 17,11 7,3 14,4 21,4l106 0c15,0 27,-5 38,-15 10,-10 15,-23 15,-38zm573 -196l223 -222c5,-5 12,-7 18,-7 7,0 13,2 19,8 6,5 8,12 8,19 0,5 -2,11 -8,18l-158 157 163 289 4 14c0,7 -3,13 -9,18 -5,5 -11,8 -19,8 -9,0 -16,-5 -22,-14l-156 -277 -63 62 0 202c0,8 -3,15 -8,20 -5,4 -11,7 -19,7 -7,0 -13,-3 -18,-7 -6,-5 -8,-11 -8,-20l0 -478c0,-7 2,-13 8,-19 5,-5 11,-7 18,-7 7,0 13,2 19,6 5,4 8,11 8,19l0 204zm424 36l159 0c15,0 28,-5 38,-15 10,-10 16,-22 16,-38l0 -106c0,-15 -5,-28 -15,-38 -10,-10 -23,-15 -39,-15l-159 0 0 212zm0 53l0 186c0,8 -3,15 -8,20 -4,4 -11,7 -18,7 -7,0 -14,-3 -19,-7 -5,-4 -8,-11 -8,-20l0 -478c0,-17 9,-26 27,-26l185 0c30,0 55,10 75,31 21,20 31,46 31,75l0 106c0,29 -10,54 -31,75 -21,20 -45,31 -75,31l-159 0zm412 80l-39 114c-2,6 -5,10 -9,14 -4,2 -9,4 -15,5 -7,0 -13,-3 -18,-8 -6,-5 -9,-11 -9,-18l2 -10 159 -477c6,-15 14,-23 25,-23 12,0 20,8 25,23l159 477 2 10c0,7 -3,13 -9,18 -5,5 -12,8 -18,8 -4,0 -8,-1 -12,-3 -5,-2 -9,-7 -13,-16l-38 -114 -192 0zm174 -54l-78 -234 -78 234 156 0zm475 -79l0 -212 -159 0c-15,0 -28,5 -38,15 -5,5 -9,11 -12,17 -2,6 -3,13 -3,21l0 106c0,15 5,28 15,38 5,5 11,8 17,11 8,3 15,4 21,4l159 0zm-91 53l-125 200c-5,8 -13,13 -21,13 -7,0 -13,-3 -19,-9 -6,-5 -9,-11 -9,-18 0,-6 1,-10 4,-15l107 -171 -5 0c-29,0 -54,-10 -75,-31 -21,-21 -31,-46 -31,-75l0 -106c0,-30 10,-55 31,-75 20,-21 46,-31 75,-31l186 0c17,0 26,9 26,26l0 478c0,8 -2,15 -7,20 -5,4 -11,7 -19,7 -7,0 -13,-3 -19,-7 -5,-5 -8,-11 -8,-20l0 -186 -91 0zm553 43l-104 110c-5,7 -12,11 -21,11 -6,0 -13,-3 -18,-9 -6,-5 -9,-11 -9,-18 0,-6 2,-11 6,-16l91 -94 -91 -93 -4 -6c-1,-3 -2,-7 -2,-11 0,-7 2,-13 8,-18 6,-6 12,-8 19,-8 8,0 15,3 21,11l104 109c3,5 5,10 5,16 0,5 -1,11 -5,16zm-144 0l-103 110c-5,7 -12,11 -21,11 -7,0 -13,-3 -19,-9 -6,-5 -9,-11 -9,-18 0,-6 2,-11 6,-16l91 -94 -91 -93 -3 -6c-1,-3 -2,-7 -3,-11 0,-7 3,-13 9,-18 5,-6 12,-8 19,-8 7,0 14,3 21,11l103 109c3,5 5,10 6,16 0,5 -2,11 -6,16z"/>
   </g>
  </g>
 </g>
</svg>
