<?xml version="1.0" encoding="UTF-8"?>
<!DOCTYPE svg PUBLIC "-//W3C//DTD SVG 1.0//EN" "http://www.w3.org/TR/2001/REC-SVG-20010904/DTD/svg10.dtd">
<!-- Creator: CorelDRAW X7 -->
<svg xmlns="http://www.w3.org/2000/svg" xml:space="preserve" width="115.711mm" height="70.5555mm" version="1.0" style="shape-rendering:geometricPrecision; text-rendering:geometricPrecision; image-rendering:optimizeQuality; fill-rule:evenodd; clip-rule:evenodd"
viewBox="0 0 11571 7056"
 xmlns:xlink="http://www.w3.org/1999/xlink">
 <defs>
  <style type="text/css">
   <![CDATA[
    .str2 {stroke:#D7B659;stroke-width:8.81944}
    .str3 {stroke:#DBBC4A;stroke-width:8.81944}
    .str1 {stroke:#024541;stroke-width:85.1393;stroke-linecap:round;stroke-linejoin:round}
    .str0 {stroke:#024541;stroke-width:85.1393;stroke-linecap:round;stroke-linejoin:round}
    .str4 {stroke:#FFE7AF;stroke-width:70.3509;stroke-linecap:round;stroke-linejoin:round}
    .fil3 {fill:none;fill-rule:nonzero}
    .fil1 {fill:#390000}
    .fil2 {fill:#903532}
    .fil5 {fill:#DCBD49}
    .fil4 {fill:#E5C651}
    .fil0 {fill:url(#id0)}
   ]]>
  </style>
  <radialGradient id="id0" gradientUnits="userSpaceOnUse" gradientTransform="matrix(1.17124 -0 -0 1.92083 -991 -3248)" cx="5785.55" cy="3527.77" r="3527.77" fx="5785.55" fy="3527.77">
   <stop offset="0" style="stop-opacity:1; stop-color:#FEFEFE"/>
   <stop offset="0.439216" style="stop-opacity:1; stop-color:#FEFEFE"/>
   <stop offset="1" style="stop-opacity:1; stop-color:#D1E2F2"/>
  </radialGradient>
 </defs>
 <g id="Layer_x0020_1">
  <metadata id="CorelCorpID_0Corel-Layer"/>
  <path class="fil0" d="M0 0l11571 0 0 7056 -11571 0 0 -7056z"/>
  <path class="fil1 str0" d="M7329 1050l0 4700c-1173,0 -1960,0 -3133,0l0 -4700 3133 0z"/>
  <path class="fil2" d="M4196 1050l3133 0 0 1788 -3133 -1489c5,-153 0,-197 0,-299z"/>
  <path class="fil3 str1" d="M7359 1050l0 4700c-1174,0 -1960,0 -3133,0l0 -4700 3133 0z"/>
  <path class="fil4 str2" d="M4779 4983c0,7 -2,13 -7,18 -4,3 -9,5 -16,5 -6,0 -12,-2 -16,-6 -5,-4 -7,-9 -7,-17l0 -393 -185 0 0 393c0,7 -3,13 -7,18 -4,3 -10,5 -16,5 -6,0 -12,-2 -16,-6 -5,-3 -7,-9 -7,-17l0 -416c0,-15 7,-23 23,-23l231 0c15,0 23,8 23,23l0 416zm173 -92l-33 99c-2,5 -5,9 -9,12 -3,2 -7,3 -12,4 -6,0 -12,-2 -16,-6 -5,-4 -8,-10 -8,-16l2 -8 139 -416c4,-14 12,-20 21,-20 10,0 18,6 22,20l139 416 1 8c0,6 -2,11 -7,16 -5,4 -11,6 -17,6 -3,0 -6,-1 -10,-2 -4,-2 -7,-6 -11,-14l-33 -99 -168 0zm152 -48l-68 -203 -68 203 136 0zm391 163l-116 0c-25,0 -46,-9 -65,-27 -18,-18 -27,-40 -27,-65l0 -278c0,-25 9,-47 27,-65 18,-18 40,-27 65,-27l116 0c6,0 12,2 16,7 5,5 7,10 7,16 0,5 -2,10 -6,15 -3,5 -9,8 -17,8l-116 0c-13,0 -24,4 -33,13 -4,5 -8,9 -10,15 -2,6 -3,12 -3,18l0 278c0,13 4,24 13,33 5,4 10,7 15,10 7,2 13,3 18,3l116 0c6,0 12,3 16,7 5,5 7,10 7,16 0,5 -2,11 -6,16 -3,5 -9,7 -17,7zm392 -23c0,7 -2,13 -6,18 -4,3 -10,5 -17,5 -6,0 -11,-2 -16,-6 -4,-4 -7,-9 -7,-17l0 -393 -185 0 0 393c0,7 -2,13 -6,18 -4,3 -10,5 -17,5 -6,0 -11,-2 -16,-6 -4,-3 -7,-9 -7,-17l0 -416c0,-15 8,-23 23,-23l231 0c16,0 23,8 23,23l0 416zm370 -69c0,25 -9,47 -27,65 -18,18 -40,27 -65,27l-93 0c-25,0 -46,-9 -65,-27 -18,-18 -27,-40 -27,-65l0 -278c0,-25 9,-47 27,-65 18,-18 40,-27 65,-27l93 0c25,0 47,9 65,27 18,18 27,40 27,65l0 278zm-46 0l0 -278c0,-13 -4,-24 -13,-33 -9,-9 -20,-13 -33,-13l-93 0c-13,0 -24,4 -33,13 -4,5 -8,9 -10,15 -2,6 -3,12 -3,18l0 278c0,13 4,24 13,33 5,4 10,7 15,10 7,2 13,3 18,3l93 0c13,0 23,-4 33,-13 9,-8 13,-19 13,-33zm221 -139l139 0c13,0 24,-4 33,-13 9,-8 14,-20 14,-33l0 -93c0,-13 -5,-24 -14,-33 -8,-9 -19,-13 -33,-13l-139 0 0 185zm0 46l0 162c0,7 -2,13 -6,18 -4,3 -10,5 -17,5 -6,0 -11,-2 -16,-6 -4,-3 -7,-9 -7,-17l0 -416c0,-15 8,-23 24,-23l161 0c26,0 48,9 66,27 17,18 27,40 27,65l0 93c0,25 -10,47 -28,65 -18,18 -39,27 -65,27l-139 0zm416 -231l-92 0c-7,0 -13,-2 -17,-6 -4,-5 -6,-11 -6,-17 0,-5 1,-10 5,-16 4,-5 10,-7 18,-7l231 0c6,0 11,2 16,7 4,5 7,10 7,16 0,5 -2,10 -6,15 -4,5 -10,8 -17,8l-93 0 0 393c0,7 -2,13 -6,18 -5,3 -10,5 -17,5 -6,0 -11,-2 -16,-6 -5,-4 -7,-9 -7,-17l0 -393z"/>
  <path class="fil5 str3" d="M4606 1604l92 0c9,0 16,-3 22,-8 6,-6 9,-13 9,-23l0 -61c0,-9 -3,-16 -9,-22 -6,-6 -13,-9 -22,-9l-92 0 0 123zm0 31l0 108c0,5 -2,9 -5,12 -3,2 -6,3 -11,3 -4,0 -7,-1 -11,-3 -3,-3 -4,-7 -4,-12l0 -277c0,-11 5,-16 15,-16l108 0c17,0 32,6 44,18 12,12 18,27 18,44l0 61c0,17 -6,32 -18,44 -12,12 -27,18 -44,18l-92 0zm400 62c0,17 -6,31 -18,43 -12,12 -27,18 -44,18l-61 0c-17,0 -31,-6 -43,-18 -13,-11 -19,-26 -19,-43l0 -185c0,-17 6,-32 18,-44 12,-12 27,-18 44,-18l61 0c18,0 32,6 44,18 12,12 18,27 18,44l0 185zm-31 0l0 -185c0,-9 -3,-16 -8,-22 -6,-6 -14,-9 -22,-9l-62 0c-9,0 -16,3 -22,9 -3,3 -5,6 -7,10 -1,3 -2,7 -2,12l0 185c0,9 3,16 9,22 3,3 6,5 10,7 4,1 8,2 12,2l62 0c8,0 15,-3 21,-9 6,-6 9,-13 9,-22zm256 61l-77 0c-17,0 -31,-6 -43,-18 -13,-11 -19,-26 -19,-43l0 -185c0,-17 6,-32 18,-44 12,-12 27,-18 44,-18l77 0c4,0 8,2 11,5 3,3 4,7 4,11 0,3 -1,6 -3,10 -3,3 -7,5 -12,5l-77 0c-9,0 -16,3 -22,9 -3,3 -5,6 -7,10 -1,3 -2,7 -2,12l0 185c0,9 3,16 9,22 3,3 6,5 10,7 4,1 8,2 12,2l77 0c4,0 8,1 11,5 3,3 4,6 4,10 0,4 -1,7 -3,10 -3,4 -7,5 -12,5zm202 0l-77 0c-17,0 -32,-6 -44,-18 -12,-11 -18,-26 -18,-43l0 -185c0,-17 6,-32 18,-44 12,-12 26,-18 44,-18l77 0c4,0 8,2 11,5 3,3 4,7 4,11 0,3 -1,6 -4,10 -2,3 -6,5 -11,5l-78 0c-8,0 -16,3 -22,9 -3,3 -5,6 -6,10 -2,3 -2,7 -2,12l0 185c0,9 3,16 8,22 4,3 7,5 10,7 5,1 9,2 12,2l78 0c4,0 8,1 11,5 3,3 4,6 4,10 0,4 -1,7 -4,10 -2,4 -6,5 -11,5zm261 -15c0,5 -1,9 -4,12 -3,2 -7,3 -11,3 -4,0 -8,-1 -11,-3 -3,-3 -4,-7 -4,-12l0 -218 -125 226c-2,3 -4,5 -7,7l-4 2c-1,0 -2,1 -4,1 -3,0 -7,-2 -10,-5 -3,-3 -4,-7 -4,-13l0 -277c0,-4 1,-8 4,-12 3,-2 7,-4 11,-4 4,0 7,2 10,4 4,3 5,7 5,12l0 218 125 -226c2,-2 4,-5 7,-7 3,-2 5,-3 8,-3 4,0 7,2 10,5 3,3 4,7 4,13l0 277zm185 -323l-61 0c-5,0 -9,-2 -12,-5 -3,-3 -4,-7 -4,-11 0,-3 1,-7 4,-10 3,-3 6,-5 12,-5l61 0c4,0 8,2 11,5 3,3 5,6 5,10 0,4 -2,7 -4,11 -3,3 -7,5 -12,5zm62 323c0,5 -2,9 -5,12 -2,2 -6,3 -11,3 -4,0 -7,-1 -10,-3 -3,-3 -5,-7 -5,-12l0 -218 -125 226c-2,3 -4,5 -7,7l-3 2c-1,0 -3,1 -5,1 -3,0 -6,-2 -10,-5 -3,-3 -4,-7 -4,-13l0 -277c0,-4 1,-8 5,-12 3,-2 6,-4 10,-4 4,0 8,2 11,4 3,3 5,7 5,12l0 218 125 -225c1,-3 3,-5 6,-8 3,-2 6,-3 9,-3 3,0 6,2 9,5 3,3 5,7 5,13l0 277zm200 15l-77 0c-17,0 -31,-6 -43,-18 -13,-11 -19,-26 -19,-43l0 -185c0,-17 6,-32 18,-44 12,-12 27,-18 44,-18l77 0c4,0 8,2 11,5 3,3 4,7 4,11 0,3 -1,6 -3,10 -3,3 -7,5 -12,5l-77 0c-9,0 -16,3 -22,9 -3,3 -5,6 -7,10 -1,3 -2,7 -2,12l0 185c0,9 3,16 9,22 3,3 6,5 10,7 4,1 8,2 12,2l77 0c4,0 8,1 11,5 3,3 4,6 4,10 0,4 -1,7 -3,10 -3,4 -7,5 -12,5zm108 -175l129 -129c3,-2 7,-4 11,-4 4,0 7,2 11,5 3,3 5,7 5,11 0,3 -2,6 -5,10l-92 92 95 167 2 8c0,4 -2,8 -5,11 -3,3 -7,4 -11,4 -5,0 -10,-2 -13,-8l-91 -160 -36 36 0 117c0,5 -2,9 -5,12 -3,2 -6,3 -11,3 -4,0 -7,-1 -11,-3 -3,-3 -4,-7 -4,-12l0 -278c0,-4 1,-7 5,-10 3,-3 6,-5 10,-5 4,0 8,1 11,4 3,2 5,6 5,11l0 118zm269 98l-22 67c-1,3 -3,6 -6,8 -2,1 -4,2 -8,2 -4,0 -8,-1 -11,-4 -3,-3 -5,-6 -5,-11l1 -5 93 -277c3,-9 8,-13 14,-13 7,0 12,4 15,13l92 277 1 5c0,4 -1,8 -5,11 -3,3 -7,4 -11,4 -2,0 -4,0 -7,-1 -2,-1 -4,-4 -7,-9l-22 -67 -112 0zm102 -31l-46 -136 -45 136 91 0zm276 -46l0 -123 -93 0c-9,0 -16,3 -22,9 -3,3 -5,6 -7,10 -1,3 -2,7 -2,12l0 61c0,9 3,16 9,23 3,2 6,4 10,6 4,2 8,2 12,2l93 0zm-53 31l-73 116c-3,5 -7,7 -12,7 -4,0 -8,-1 -11,-4 -4,-4 -6,-7 -6,-11 0,-3 1,-6 3,-9l62 -99 -3 0c-17,0 -31,-6 -43,-18 -12,-12 -19,-26 -19,-44l0 -61c0,-17 6,-32 18,-44 12,-12 27,-18 44,-18l108 0c10,0 15,5 15,16l0 277c0,5 -1,9 -4,12 -3,2 -7,3 -11,3 -4,0 -8,-1 -11,-3 -3,-3 -4,-7 -4,-12l0 -108 -53 0zm-2063 385l0 139 16 0c17,0 31,-6 43,-18 12,-12 18,-26 18,-44l0 -15c0,-17 -6,-31 -18,-44 -12,-12 -26,-18 -43,-18l-16 0zm-30 139l0 -139 -16 0c-17,0 -31,6 -43,18 -12,12 -19,27 -19,44l0 15c0,17 6,32 18,44 13,12 27,18 44,18l16 0zm0 31l-16 0c-25,0 -47,-9 -65,-27 -18,-18 -27,-40 -27,-66l0 -15c0,-25 9,-47 27,-65 18,-19 40,-28 65,-28l16 0 0 -30c0,-5 1,-8 4,-12 3,-2 7,-4 11,-4 4,0 7,2 10,4 4,3 5,6 5,12l0 30 16 0c25,0 47,9 65,27 8,9 15,19 20,30 4,11 7,23 7,36l0 15c0,25 -9,47 -27,65 -18,19 -40,28 -65,28l-16 0 0 46c0,5 -1,9 -4,12 -3,2 -7,3 -11,3 -4,0 -8,-1 -11,-3 -3,-3 -4,-7 -4,-12l0 -46zm231 -123l77 0c4,0 8,1 11,4 3,3 4,7 4,11 0,4 -1,7 -3,10 -3,4 -7,5 -12,5l-77 0 0 124 108 0c4,0 8,1 11,4 3,4 4,7 4,11 0,4 -1,7 -4,10 -2,4 -6,5 -11,5l-124 0c-10,0 -15,-4 -15,-14l0 -278c0,-11 5,-16 15,-16l124 0c4,0 8,2 11,5 3,3 4,7 4,11 0,3 -1,7 -4,10 -2,3 -6,5 -11,5l-108 0 0 93zm217 154l29 -264c0,-9 5,-14 15,-14l93 0c10,0 15,5 15,16l0 262 16 0c10,0 15,5 15,15l0 31c0,4 -1,8 -4,11 -4,3 -7,4 -11,4 -4,0 -7,-1 -10,-4 -4,-2 -5,-6 -5,-11l0 -16 -155 0 0 16c0,4 -1,8 -5,11 -3,3 -6,4 -10,4 -4,0 -7,-1 -11,-4 -3,-2 -5,-6 -5,-11l0 -31c0,-10 6,-15 16,-15l17 0zm122 0l0 -247 -64 0 -27 247 91 0zm153 -154l78 0c4,0 8,1 11,4 3,3 4,7 4,11 0,4 -1,7 -4,10 -2,4 -6,5 -11,5l-78 0 0 124 109 0c4,0 7,1 11,4 3,4 4,7 4,11 0,4 -1,7 -4,10 -2,4 -6,5 -11,5l-124 0c-10,0 -15,-4 -15,-14l0 -278c0,-11 5,-16 15,-16l124 0c4,0 8,2 11,5 3,3 4,7 4,11 0,3 -1,7 -4,10 -2,3 -6,5 -11,5l-109 0 0 93zm216 30l92 0c9,0 16,-3 22,-8 6,-6 9,-13 9,-23l0 -61c0,-9 -3,-16 -8,-22 -6,-6 -14,-9 -23,-9l-92 0 0 123zm0 31l0 108c0,5 -2,9 -5,12 -2,2 -6,3 -10,3 -5,0 -8,-1 -11,-3 -3,-3 -5,-7 -5,-12l0 -277c0,-11 5,-16 16,-16l107 0c17,0 32,6 44,18 12,12 18,27 18,44l0 61c0,17 -6,32 -18,44 -12,12 -27,18 -44,18l-92 0zm239 46l-22 67c-2,3 -3,6 -6,8 -2,1 -5,2 -8,2 -5,0 -8,-1 -11,-4 -4,-3 -5,-6 -5,-11l1 -5 92 -277c4,-9 8,-13 15,-13 7,0 11,4 14,13l93 277 1 5c0,4 -2,8 -5,11 -4,3 -7,4 -11,4 -2,0 -4,0 -7,-1 -3,-1 -5,-4 -7,-9l-22 -67 -112 0zm101 -31l-45 -136 -46 136 91 0zm276 78l0 -262c0,-4 2,-8 5,-12 3,-2 6,-4 10,-4 4,0 8,2 11,4 3,3 5,7 5,12l0 262 15 0c11,0 16,5 16,15l0 46c0,5 -2,8 -5,11 -3,3 -7,5 -11,5 -3,0 -6,-1 -10,-4 -3,-3 -5,-6 -5,-12l0 -31 -170 0c-10,0 -15,-5 -15,-15l0 -277c0,-5 1,-8 5,-12 3,-2 6,-4 10,-4 4,0 8,2 11,4 3,3 5,7 5,12l0 262 123 0zm308 15c0,5 -2,9 -5,12 -2,2 -6,3 -10,3 -5,0 -8,-1 -11,-3 -3,-3 -5,-7 -5,-12l0 -218 -125 226c-2,3 -4,5 -7,7l-3 2c-1,0 -3,1 -5,1 -3,0 -6,-2 -10,-5 -3,-3 -4,-7 -4,-13l0 -277c0,-4 2,-8 5,-12 3,-2 6,-4 10,-4 4,0 8,2 11,4 3,3 5,7 5,12l0 218 125 -226c1,-2 3,-5 6,-7 3,-2 6,-3 9,-3 3,0 6,2 9,5 3,3 5,7 5,13l0 277zm216 -139l0 -123 -93 0c-9,0 -16,3 -22,9 -3,3 -5,6 -7,10 -1,3 -2,7 -2,12l0 61c0,9 3,16 9,23 3,2 6,4 10,6 4,2 8,2 12,2l93 0zm-53 31l-73 116c-3,5 -7,7 -12,7 -4,0 -8,-1 -11,-4 -4,-4 -5,-7 -5,-11 0,-3 0,-6 2,-9l62 -99 -3 0c-17,0 -31,-6 -43,-18 -12,-12 -18,-27 -18,-44l0 -61c0,-17 6,-32 17,-44 12,-12 27,-18 44,-18l108 0c10,0 15,5 15,16l0 277c0,5 -1,9 -4,12 -3,2 -7,3 -11,3 -4,0 -8,-1 -11,-3 -3,-3 -4,-7 -4,-12l0 -108 -53 0z"/>
  <g id="_1008496395136">
   <path class="fil3 str4" d="M5704 3996c100,0 -12,-92 110,-92 57,0 184,124 205,99 23,-28 88,-111 68,-137 -44,-57 -70,-130 -150,-150 40,-47 198,-36 195,-109 0,-1 258,-261 88,-346 -33,-16 -1,-117 -38,-175 -30,-47 -411,103 -411,44 0,-28 27,-101 115,-135 15,-6 -91,-3 -150,-10 -12,-2 15,-47 9,-49 -26,-11 -29,-16 -59,-15"/>
   <path class="fil3 str4" d="M5669 3996c-101,0 11,-92 -110,-92 -57,0 -185,124 -206,99 -22,-28 -87,-111 -67,-137 43,-57 69,-130 149,-150 -39,-47 -197,-36 -195,-109 0,-1 -258,-261 -87,-346 33,-16 0,-117 37,-175 31,-47 411,103 411,44 0,-28 -27,-101 -115,-135 -15,-6 91,-3 150,-10 12,-2 -15,-47 -8,-49 26,-11 29,-16 58,-15"/>
  </g>
 </g>
</svg>
