<?xml version="1.0" encoding="UTF-8"?>
<!DOCTYPE svg PUBLIC "-//W3C//DTD SVG 1.0//EN" "http://www.w3.org/TR/2001/REC-SVG-20010904/DTD/svg10.dtd">
<!-- Creator: CorelDRAW X7 -->
<svg xmlns="http://www.w3.org/2000/svg" xml:space="preserve" width="115mm" height="70.122mm" version="1.0" style="shape-rendering:geometricPrecision; text-rendering:geometricPrecision; image-rendering:optimizeQuality; fill-rule:evenodd; clip-rule:evenodd"
viewBox="0 0 11500 7012"
 xmlns:xlink="http://www.w3.org/1999/xlink">
 <defs>
  <style type="text/css">
   <![CDATA[
    .str0 {stroke:#3696A0;stroke-width:8.76524}
    .fil3 {fill:#D8D8DA}
    .fil2 {fill:#C5C3C5}
    .fil1 {fill:#767477}
    .fil4 {fill:#3497A1}
    .fil8 {fill:#85CCCA}
    .fil5 {fill:#979689}
    .fil7 {fill:#EAE8DF}
    .fil6 {fill:#F2F1EB}
    .fil9 {fill:#FD5B44}
    .fil0 {fill:url(#id0)}
   ]]>
  </style>
  <radialGradient id="id0" gradientUnits="userSpaceOnUse" gradientTransform="matrix(1.17124 -0 -0 1.92083 -985 -3229)" cx="5750" cy="3506.1" r="3506.1" fx="5750" fy="3506.1">
   <stop offset="0" style="stop-opacity:1; stop-color:#FEFEFE"/>
   <stop offset="0.439216" style="stop-opacity:1; stop-color:#FEFEFE"/>
   <stop offset="1" style="stop-opacity:1; stop-color:#D1E2F2"/>
  </radialGradient>
 </defs>
 <g id="Layer_x0020_1">
  <metadata id="CorelCorpID_0Corel-Layer"/>
  <path class="fil0" d="M0 0l11500 0 0 7012 -11500 0 0 -7012z"/>
  <g id="_670645774400">
   <path class="fil1" d="M7182 3909c0,0 0,0 0,0z"/>
   <path class="fil2" d="M8087 1383l-4675 0 0 -549 4675 0 0 549z"/>
   <path class="fil3" d="M6497 4254l-3085 0 0 -2376 3085 0 0 2376z"/>
   <path class="fil2" d="M5464 4684l-2052 0 0 -347 2052 0 0 347z"/>
   <path class="fil2" d="M6452 1818l-3040 0 0 -41 3040 0 0 41z"/>
   <path class="fil2" d="M8087 1474l-1508 0 0 755 1508 0 0 -755z"/>
   <path class="fil3" d="M8060 2229l-1481 0 0 711 1481 0 0 -711z"/>
   <path class="fil3" d="M4930 4748l-1331 0 0 109 1331 0 0 -109z"/>
   <path class="fil3" d="M4930 4912l-1518 0 0 110 1518 0 0 -110z"/>
   <path class="fil3" d="M4930 5077l-1518 0 0 110 1518 0 0 -110z"/>
   <path class="fil3" d="M4930 5241l-1518 0 0 110 1518 0 0 -110z"/>
   <path class="fil3" d="M4930 5406l-1518 0 0 110 1518 0 0 -110z"/>
   <path class="fil3" d="M4930 5570l-1518 0 0 110 1518 0 0 -110z"/>
   <path class="fil3" d="M4930 5735l-1518 0 0 110 1518 0 0 -110z"/>
   <path class="fil3" d="M4930 5899l-1518 0 0 110 1518 0 0 -110z"/>
   <path class="fil3" d="M4616 6064l-1204 0 0 110 1204 0 0 -110z"/>
   <path class="fil3" d="M6507 4748l-1331 0 0 109 1331 0 0 -109z"/>
   <path class="fil3" d="M6507 4912l-1518 0 0 110 1518 0 0 -110z"/>
   <path class="fil3" d="M6507 5077l-1518 0 0 110 1518 0 0 -110z"/>
   <path class="fil3" d="M6507 5241l-1518 0 0 110 1518 0 0 -110z"/>
   <path class="fil3" d="M6507 5406l-1518 0 0 110 1518 0 0 -110z"/>
   <path class="fil3" d="M6507 5570l-1518 0 0 110 1518 0 0 -110z"/>
   <path class="fil3" d="M6507 5735l-1518 0 0 110 1518 0 0 -110z"/>
   <path class="fil3" d="M6507 5899l-1518 0 0 110 1518 0 0 -110z"/>
   <path class="fil3" d="M6193 6064l-1204 0 0 110 1204 0 0 -110z"/>
   <path class="fil3" d="M8084 4748l-1331 0 0 109 1331 0 0 -109z"/>
   <path class="fil3" d="M8084 4912l-1518 0 0 110 1518 0 0 -110z"/>
   <path class="fil3" d="M8084 5077l-1518 0 0 110 1518 0 0 -110z"/>
   <path class="fil3" d="M8084 5241l-1518 0 0 110 1518 0 0 -110z"/>
   <path class="fil3" d="M8084 5406l-1518 0 0 110 1518 0 0 -110z"/>
   <path class="fil3" d="M8084 5570l-1518 0 0 110 1518 0 0 -110z"/>
   <path class="fil3" d="M8084 5735l-1518 0 0 110 1518 0 0 -110z"/>
   <path class="fil3" d="M8084 5899l-1518 0 0 110 1518 0 0 -110z"/>
   <path class="fil3" d="M7770 6064l-1204 0 0 110 1204 0 0 -110z"/>
   <path class="fil3" d="M6497 1462l-3085 0 0 247 3085 0 0 -247z"/>
   <path class="fil4 str0" d="M4263 1228c0,3 -1,6 -3,8 -2,1 -4,2 -7,2 -3,0 -5,-1 -7,-2 -2,-2 -3,-5 -3,-8l0 -143 -83 148c-1,2 -3,4 -4,5l-3 1c0,0 -1,1 -3,1 -2,0 -4,-1 -6,-3 -2,-2 -3,-5 -3,-9l0 -183c0,-2 1,-5 3,-7 2,-2 4,-3 7,-3 3,0 5,1 7,3 2,2 3,4 3,7l0 144 83 -148c1,-2 2,-4 4,-5 2,-2 4,-2 5,-2 3,0 5,1 7,3 2,2 3,5 3,8l0 183zm101 -91l-30 0c-3,0 -6,-1 -8,-3 -1,-2 -2,-5 -2,-7 0,-3 1,-5 2,-7 2,-2 5,-3 8,-3l30 0c6,0 11,-2 15,-6 4,-4 6,-9 6,-15l0 -20c0,-6 -2,-11 -6,-15 -4,-4 -9,-6 -15,-6l-20 0c-4,0 -8,2 -12,4 -3,2 -6,6 -7,10 -1,2 -2,4 -3,5 -1,1 -2,2 -3,2l-3 1c-3,0 -6,-1 -8,-3 -2,-2 -3,-5 -3,-8l0 -3c3,-8 8,-15 15,-20 7,-5 15,-8 24,-8l20 0c12,0 21,4 29,12 8,8 12,18 12,29l0 20c0,6 -1,12 -4,17 -2,5 -5,10 -10,14 9,7 14,17 14,30l0 41c0,11 -4,20 -12,28 -8,8 -17,12 -29,12l-20 0c-9,0 -17,-2 -24,-7 -7,-5 -12,-12 -15,-21l0 -3c0,-3 1,-5 3,-7 2,-2 5,-3 8,-3 4,0 7,2 9,7 1,4 3,7 7,10 4,3 8,4 12,4l20 0c6,0 11,-2 15,-6 4,-3 6,-8 6,-14l0 -41c0,-6 -2,-11 -5,-14 -3,-4 -9,-6 -16,-6zm102 0l0 81 61 0c5,0 10,-2 14,-6 4,-3 6,-8 6,-14l0 -41c0,-6 -2,-11 -6,-14 -4,-4 -9,-6 -14,-6l-61 0zm0 -20l60 0c11,0 21,3 29,11 8,8 12,18 12,29l0 41c0,11 -4,20 -12,28 -8,8 -17,12 -28,12l-71 0c-7,0 -11,-3 -11,-10l0 -183c0,-6 4,-10 11,-10l81 0c2,0 5,1 7,3 2,2 3,5 3,7 0,3 -1,5 -3,7 -1,2 -4,3 -7,3l-71 0 0 62zm263 111c0,3 -1,6 -2,8 -2,1 -5,2 -8,2 -2,0 -5,-1 -7,-2 -2,-2 -3,-5 -3,-8l0 -143 -82 148c-1,2 -3,4 -5,5l-2 1c-1,0 -2,1 -3,1 -2,0 -4,-1 -7,-3 -1,-2 -2,-5 -2,-9l0 -183c0,-2 1,-5 3,-7 2,-2 4,-3 7,-3 2,0 5,1 7,3 2,2 3,4 3,7l0 144 82 -148c1,-2 3,-4 5,-5 1,-2 3,-2 5,-2 2,0 4,1 6,3 2,2 3,5 3,8l0 183zm61 -91l61 0c6,0 11,-2 15,-6 4,-4 6,-9 6,-15l0 -40c0,-6 -2,-11 -6,-15 -4,-4 -9,-6 -15,-6l-61 0 0 82zm0 20l0 71c0,3 -1,6 -3,8 -1,1 -4,2 -7,2 -3,0 -5,-1 -7,-2 -2,-2 -3,-5 -3,-8l0 -183c0,-6 3,-10 10,-10l71 0c11,0 21,4 29,12 8,8 12,18 12,29l0 40c0,11 -4,21 -12,29 -8,8 -18,12 -29,12l-61 0zm158 30l-15 44c-1,2 -2,4 -4,5 -1,1 -3,2 -5,2 -3,0 -5,-1 -7,-3 -3,-1 -4,-4 -4,-7l1 -3 61 -183c2,-6 5,-9 10,-9 4,0 7,3 9,9l61 183 1 3c0,3 -1,5 -4,7 -2,2 -4,3 -7,3 -1,0 -3,0 -4,-1 -2,0 -4,-2 -5,-6l-15 -44 -73 0zm67 -20l-30 -90 -30 90 60 0zm90 -112l-41 0c-3,0 -5,-1 -7,-2 -2,-3 -3,-5 -3,-8 0,-2 1,-4 3,-7 1,-2 4,-3 7,-3l102 0c2,0 5,1 7,3 2,2 3,5 3,7 0,3 -1,5 -3,7 -1,2 -4,3 -7,3l-41 0 0 173c0,3 -1,6 -3,8 -2,1 -4,2 -7,2 -3,0 -5,-1 -7,-2 -2,-2 -3,-5 -3,-8l0 -173zm132 62l51 0c3,0 5,1 7,3 2,2 3,4 3,7 0,2 -1,4 -3,6 -1,3 -4,4 -7,4l-51 0 0 81 71 0c3,0 5,1 7,3 2,2 3,5 3,7 0,3 -1,5 -2,7 -2,2 -5,3 -8,3l-81 0c-7,0 -11,-3 -11,-9l0 -184c0,-6 4,-10 11,-10l81 0c3,0 5,1 7,3 2,2 3,5 3,7 0,3 -1,5 -2,7 -2,2 -5,3 -8,3l-71 0 0 62zm243 111c0,3 0,6 -2,8 -2,1 -5,2 -8,2 -2,0 -5,-1 -7,-2 -2,-2 -3,-5 -3,-8l0 -173 -33 0 -48 176c-1,2 -2,3 -4,5 -2,1 -4,2 -6,2 -3,0 -6,-1 -8,-2 -1,-2 -2,-4 -2,-7 0,-2 0,-3 0,-4l51 -182c1,-5 4,-8 10,-8l50 0c7,0 10,4 10,10l0 183zm61 -91l61 0c6,0 11,2 14,5 4,4 6,9 6,15l0 41c0,5 -2,10 -5,14 -2,2 -5,4 -7,5 -3,1 -5,1 -8,1l-61 0 0 -81zm0 -21l0 -71c0,-2 -1,-5 -3,-7 -2,-2 -5,-3 -7,-3 -2,0 -5,1 -7,3 -2,1 -3,4 -3,7l0 183c0,7 3,10 10,10l71 0c11,0 20,-4 28,-12 8,-7 13,-17 13,-28l0 -41c0,-11 -4,-21 -12,-29 -8,-8 -18,-12 -29,-12l-61 0zm244 1l0 -72c0,-2 1,-5 3,-7 2,-2 4,-3 7,-3 2,0 5,1 7,3 2,1 3,4 3,7l0 183c0,3 -1,5 -3,7 -3,2 -5,3 -7,3 -3,0 -5,-1 -7,-2 -2,-2 -3,-4 -3,-8l0 -91 -82 0 0 91c0,3 -1,6 -3,8 -1,1 -4,2 -7,2 -2,0 -5,-1 -7,-2 -2,-2 -3,-5 -3,-8l0 -183c0,-2 1,-5 3,-7 2,-2 5,-3 7,-3 3,0 5,1 7,3 2,2 3,4 3,7l0 72 82 0zm203 111c0,3 -1,6 -3,8 -2,1 -4,2 -7,2 -3,0 -5,-1 -8,-2 -2,-2 -3,-5 -3,-8l0 -183c0,-2 1,-5 3,-7 3,-2 5,-3 8,-3 2,0 4,1 7,3 2,1 3,4 3,7l0 183zm-122 -91l0 81 40 0c6,0 11,-2 15,-6 4,-3 6,-8 6,-14l0 -41c0,-6 -2,-11 -6,-14 -4,-4 -9,-6 -15,-6l-40 0zm0 -20l40 0c11,0 21,3 29,11 8,8 12,18 12,29l0 41c0,11 -4,20 -12,28 -8,8 -17,12 -29,12l-50 0c-7,0 -11,-3 -11,-10l0 -183c0,-2 1,-5 3,-7 3,-2 5,-3 8,-3 2,0 5,1 7,3 2,1 3,4 3,7l0 72zm243 -102l-40 0c-3,0 -6,-1 -8,-3 -2,-2 -2,-4 -2,-7 0,-2 0,-5 2,-7 2,-2 4,-3 8,-3l40 0c3,0 5,1 7,3 2,2 3,4 3,7 0,2 0,4 -2,7 -2,2 -4,3 -8,3zm41 213c0,3 -1,6 -3,8 -2,1 -4,2 -7,2 -3,0 -5,-1 -7,-2 -2,-2 -3,-5 -3,-8l0 -143 -83 148c-1,2 -2,4 -4,5l-2 1c-1,0 -2,1 -4,1 -2,0 -4,-1 -6,-3 -2,-2 -3,-5 -3,-9l0 -183c0,-2 1,-5 3,-7 2,-2 4,-3 7,-3 3,0 5,1 7,3 2,2 3,4 3,7l0 144 83 -148c1,-2 2,-4 4,-5 2,-2 4,-2 5,-2 3,0 5,1 7,3 2,2 3,5 3,8l0 183zm265 -106c5,4 10,9 14,15 3,6 5,13 5,20l0 41c0,11 -4,20 -12,28 -8,8 -18,12 -29,12l-71 0c-6,0 -10,-3 -10,-10l0 -183c0,-6 4,-10 10,-10l61 0c11,0 21,4 29,12 8,8 12,18 12,29l0 20c0,5 -1,9 -2,14 -2,4 -4,8 -7,12zm-83 15l0 81 61 0c6,0 11,-2 15,-6 4,-3 6,-8 6,-14l0 -41c0,-6 -2,-11 -6,-14 -4,-4 -9,-6 -15,-6l-61 0zm51 -21c6,0 11,-1 15,-5 4,-4 6,-9 6,-15l0 -20c0,-6 -2,-11 -6,-15 -4,-4 -9,-6 -15,-6l-51 0 0 62 51 -1zm112 1l51 0c3,0 5,1 7,3 2,2 3,4 3,7 0,2 -1,4 -3,6 -1,3 -4,4 -7,4l-51 0 0 81 71 0c3,0 5,1 7,3 2,2 3,5 3,7 0,3 -1,5 -2,7 -2,2 -5,3 -8,3l-81 0c-7,0 -11,-3 -11,-9l0 -184c0,-6 4,-10 11,-10l81 0c3,0 5,1 7,3 2,2 3,5 3,7 0,3 -1,5 -2,7 -2,2 -5,3 -8,3l-71 0 0 62zm203 121l-51 0c-11,0 -21,-4 -29,-12 -8,-7 -12,-17 -12,-28l0 -122c0,-12 4,-21 12,-29 8,-8 18,-12 29,-12l51 0c2,0 5,1 7,3 2,2 3,5 3,7 0,3 -1,5 -3,7 -1,2 -4,3 -7,3l-51 0c-6,0 -11,2 -15,6 -2,2 -3,4 -4,7 -1,2 -2,5 -2,8l0 122c0,5 2,10 6,14 2,2 4,3 7,5 3,1 5,1 8,1l51 0c2,0 5,1 7,3 2,2 3,5 3,7 0,2 -1,5 -3,7 -1,2 -4,3 -7,3zm101 -183l-41 0c-3,0 -5,-1 -7,-2 -2,-3 -3,-5 -3,-8 0,-2 1,-4 3,-7 1,-2 4,-3 7,-3l102 0c3,0 5,1 7,3 2,2 3,5 3,7 0,3 -1,5 -3,7 -1,2 -4,3 -7,3l-41 0 0 173c0,3 -1,6 -3,8 -1,1 -4,2 -7,2 -3,0 -5,-1 -7,-2 -2,-2 -3,-5 -3,-8l0 -173zm213 62l0 -72c0,-2 1,-5 3,-7 2,-2 5,-3 7,-3 3,0 5,1 7,3 2,1 3,4 3,7l0 183c0,3 -1,5 -3,7 -2,2 -5,3 -7,3 -2,0 -5,-1 -7,-2 -2,-2 -3,-4 -3,-8l0 -91 -81 0 0 91c0,3 -1,6 -3,8 -2,1 -4,2 -7,2 -3,0 -5,-1 -7,-2 -2,-2 -3,-5 -3,-8l0 -183c0,-2 1,-5 3,-7 2,-2 4,-3 7,-3 2,0 5,1 7,3 2,2 3,4 3,7l0 72 81 0zm183 111c0,3 -1,6 -3,8 -2,1 -4,2 -7,2 -3,0 -5,-1 -8,-2 -2,-2 -3,-5 -3,-8l0 -143 -82 148c-1,2 -3,4 -4,5l-3 1c0,0 -1,1 -3,1 -2,0 -4,-1 -6,-3 -2,-2 -3,-5 -3,-9l0 -183c0,-2 1,-5 3,-7 2,-2 4,-3 7,-3 3,0 5,1 7,3 2,2 3,4 3,7l0 144 83 -148c0,-2 2,-4 4,-5 2,-2 4,-2 5,-2 3,0 5,1 7,3 2,2 3,5 3,8l0 183zm60 -105l86 -85c2,-2 4,-3 7,-3 3,0 5,1 7,3 2,2 3,5 3,8 0,1 -1,4 -3,6l-60 61 62 110 2 5c0,3 -2,5 -4,7 -2,2 -4,3 -7,3 -3,0 -6,-2 -9,-5l-59 -106 -25 24 0 77c0,3 0,6 -2,8 -2,1 -5,2 -8,2 -2,0 -5,-1 -7,-2 -2,-2 -3,-5 -3,-8l0 -183c0,-3 1,-5 3,-7 2,-2 5,-3 7,-3 3,0 5,1 7,2 2,2 3,5 3,8l0 78z"/>
   <path class="fil4 str0" d="M7132 1670l-38 0c-9,0 -16,-3 -22,-9 -6,-6 -9,-13 -9,-21l0 -92c0,-8 3,-15 9,-21 6,-6 13,-9 22,-9l38 0c2,0 4,1 5,2 2,2 2,3 2,5 0,2 0,4 -2,5 -1,2 -3,3 -5,3l-39 0c-4,0 -7,1 -10,4 -2,2 -3,3 -4,5 0,2 -1,4 -1,6l0 92c0,4 2,8 5,11 1,1 3,2 4,3 3,1 5,1 6,1l39 0c2,0 4,1 5,2 2,2 2,4 2,5 0,2 0,4 -2,6 -1,1 -3,2 -5,2zm105 -8c0,3 -1,5 -3,6 -1,1 -3,2 -5,2 -2,0 -4,-1 -5,-2 -2,-1 -3,-3 -3,-6l0 -68c0,-5 -1,-8 -4,-11 -3,-3 -6,-4 -11,-4l-30 0 0 83c0,3 -1,5 -3,6 -1,1 -3,2 -5,2 -2,0 -4,-1 -5,-2 -2,-1 -3,-3 -3,-6l0 -91c0,-5 3,-8 8,-8l38 0c8,0 15,3 21,9 7,6 10,13 10,22l0 68zm97 0c0,6 -3,8 -8,8l-38 0c-8,0 -15,-3 -21,-9 -6,-6 -9,-13 -9,-21l0 -69c0,-2 1,-4 2,-6 2,-1 3,-2 5,-2 2,0 4,1 6,2 1,2 2,3 2,6l0 69c0,4 1,8 4,11 2,1 4,2 5,3 2,1 4,1 6,1l31 0 0 -84c0,-2 1,-4 2,-6 2,-1 3,-2 5,-2 2,0 4,1 6,2 1,2 2,3 2,6l0 91zm75 8l-23 0c-8,0 -16,-3 -22,-9 -6,-6 -9,-13 -9,-21l0 -46c0,-9 3,-16 9,-22 6,-6 13,-9 22,-9l23 0c2,0 4,1 5,3 2,1 2,3 2,5 0,2 0,3 -2,5 -1,2 -3,3 -5,3l-23 0c-5,0 -8,1 -11,4 -2,1 -3,3 -4,5 0,2 -1,4 -1,6l0 46c0,4 2,8 5,11 1,1 3,2 5,3 2,1 4,1 6,1l23 0c2,0 4,1 5,2 2,2 2,4 2,5 0,2 0,4 -2,6 -1,1 -3,2 -5,2zm59 -50l-17 18 0 24c0,3 -1,5 -2,6 -1,1 -3,2 -6,2 -2,0 -3,-1 -5,-2 -1,-1 -2,-3 -2,-6l0 -91c0,-2 1,-4 2,-6 2,-1 3,-1 5,-1 2,0 4,0 6,1 1,2 2,4 2,6l0 45 48 -51c2,-1 3,-2 5,-2 2,0 4,1 6,2 1,2 2,4 2,6 0,2 -1,4 -3,6l-30 32 31 48c1,3 2,4 2,6 0,2 -1,4 -3,5 -1,2 -3,2 -5,2 -2,0 -4,-1 -5,-3l-31 -47zm135 42c0,6 -2,8 -7,8l-38 0c-9,0 -16,-3 -22,-9 -6,-6 -9,-13 -9,-21l0 -69c0,-2 1,-4 2,-6 2,-1 4,-2 6,-2 2,0 3,1 5,2 2,2 2,3 2,6l0 69c0,4 2,8 5,11 1,1 3,2 5,3 2,1 4,1 6,1l30 0 0 -84c0,-2 1,-4 2,-6 2,-1 4,-2 6,-2 2,0 3,1 5,2 2,2 2,3 2,6l0 91zm-835 195c0,5 -3,8 -8,8l-38 0c-8,0 -15,-3 -21,-9 -6,-6 -9,-13 -9,-22l0 -68c0,-2 0,-4 2,-6 1,-1 3,-2 5,-2 2,0 4,1 6,2 1,1 2,3 2,6l0 69c0,4 1,7 4,10 2,2 3,3 5,4 2,0 4,1 6,1l31 0 0 -84c0,-2 0,-4 2,-6 1,-1 3,-2 5,-2 2,0 4,1 6,2 1,1 2,3 2,6l0 91zm61 -38l-9 0c-3,0 -5,-1 -6,-2 -1,-2 -2,-3 -2,-6 0,-1 1,-3 2,-5 1,-1 3,-2 6,-2l7 0c5,0 9,-2 11,-5 3,-3 5,-6 5,-10 0,-5 -2,-8 -4,-11 -1,-1 -3,-2 -5,-3 -2,-1 -4,-2 -7,-2l-7 0c-7,0 -13,2 -19,7 -1,1 -2,1 -4,1 -2,0 -4,0 -6,-2 -1,-2 -2,-3 -2,-6 0,-2 1,-4 3,-6 8,-6 17,-9 28,-9l7 0c10,0 17,3 23,10 5,5 8,12 8,21 0,2 -1,4 -1,6 0,2 -1,4 -2,6 -1,4 -4,7 -7,11 3,2 5,6 7,10l2 6c0,2 1,4 1,7 0,8 -3,15 -8,20 -5,7 -13,10 -23,10l-7 0c-11,0 -20,-3 -28,-9 -2,-2 -3,-4 -3,-6 0,-2 1,-4 2,-6 2,-1 4,-2 6,-2 1,0 3,0 4,2 6,4 12,6 19,6l7 0c5,0 9,-2 11,-5 3,-3 5,-7 5,-11 0,-4 -2,-7 -4,-10 -2,-2 -5,-4 -10,-5zm111 15l0 -45c0,-5 -2,-8 -4,-11 -3,-3 -7,-5 -11,-5l-16 0c-4,0 -8,2 -11,5 -1,1 -2,3 -3,5 -1,2 -1,4 -1,6l0 45c0,5 1,8 4,11 2,2 4,3 5,4 3,0 5,1 6,1l16 0c4,0 7,-2 10,-4 3,-3 5,-7 5,-12zm-25 -76l-34 -32c-2,-2 -3,-4 -3,-7 0,-1 1,-3 2,-4 2,-2 4,-2 7,-2l60 0c3,0 4,0 6,2 1,2 2,3 2,5 0,2 -1,4 -2,5 -1,2 -3,3 -6,3l-41 0 40 38 2 3c5,6 7,12 7,20l0 45c0,9 -3,16 -9,22 -6,6 -13,9 -21,9l-16 0c-8,0 -15,-3 -21,-9 -6,-6 -9,-13 -9,-22l0 -45c0,-9 3,-16 9,-22 6,-6 13,-9 21,-9l6 0zm137 99c0,5 -2,8 -7,8l-38 0c-8,0 -16,-3 -22,-9 -6,-6 -9,-13 -9,-22l0 -68c0,-2 1,-4 3,-6 1,-1 3,-2 5,-2 2,0 4,1 5,2 2,1 2,3 2,6l0 69c0,4 2,7 5,10 1,2 3,3 5,4 2,0 4,1 6,1l30 0 0 -84c0,-2 1,-4 3,-6 1,-1 3,-2 5,-2 2,0 4,1 5,2 2,1 2,3 2,6l0 91zm37 -7l30 0c5,0 8,-2 11,-4 3,-3 5,-7 5,-12l0 -45c0,-5 -2,-8 -5,-11 -2,-3 -6,-5 -11,-5l-30 0 0 77zm0 15l0 38c0,2 -1,4 -3,5 -1,2 -3,3 -5,3 -1,0 -3,-1 -5,-2 -1,-2 -2,-4 -2,-6l0 -137c0,-5 2,-8 7,-8l38 0c9,0 16,3 22,9 6,6 9,13 9,22l0 45c0,9 -3,16 -9,22 -6,6 -13,9 -22,9l-30 0zm143 -31l0 -61 -30 0c-5,0 -8,2 -11,5 -2,1 -3,3 -4,5 0,2 -1,4 -1,6l0 45c0,5 2,8 5,11 1,2 3,3 5,4 2,0 4,1 6,1l15 0c4,0 8,-2 11,-4 3,-3 4,-7 4,-12zm8 21c-3,3 -6,5 -11,7 -4,2 -8,3 -12,3l-15 0c-9,0 -16,-3 -22,-9 -6,-6 -9,-13 -9,-22l0 -45c0,-9 3,-16 9,-22 6,-6 13,-9 22,-9l38 0c5,0 7,3 7,8l0 68c0,3 1,6 3,10 2,2 4,5 8,6 3,2 5,4 5,7 0,2 -1,4 -3,6 -1,1 -3,2 -5,2 -1,0 -2,0 -3,-1 -5,-2 -9,-5 -12,-9zm74 -82l-30 0 0 84c0,3 -1,5 -3,6 -1,1 -3,2 -5,2 -2,0 -4,-1 -5,-2 -2,-1 -3,-3 -3,-6l0 -91c0,-5 3,-8 8,-8l69 0c8,0 15,3 21,9 6,6 9,13 9,22l0 68c0,3 -1,5 -2,6 -2,1 -3,2 -6,2 -2,0 -3,-1 -5,-2 -1,-1 -2,-3 -2,-6l0 -68c0,-5 -2,-8 -5,-11 -2,-3 -6,-5 -10,-5l-16 0 0 84c0,3 0,5 -2,6 -1,1 -3,2 -5,2 -2,0 -4,-1 -6,-2 -1,-1 -2,-3 -2,-6l0 -84zm97 31l46 0 0 -15c0,-5 -1,-8 -4,-11 -3,-3 -7,-5 -11,-5l-15 0c-5,0 -8,2 -11,5 -2,1 -3,3 -3,5 -1,2 -2,4 -2,6l0 15zm0 15l0 16c0,4 2,7 5,10 1,2 3,3 5,4 2,0 4,1 6,1l38 0c2,0 4,1 5,2 2,2 2,3 2,5 0,2 0,4 -1,5 -2,2 -4,3 -6,3l-38 0c-8,0 -16,-3 -22,-9 -6,-6 -9,-13 -9,-22l0 -45c0,-8 3,-16 9,-22 6,-6 13,-9 22,-9l15 0c8,0 15,3 21,9 6,6 9,13 9,22l0 23c0,5 -2,7 -7,7l-54 0zm159 38c0,3 -1,5 -2,6 -2,1 -3,2 -6,2 -2,0 -3,-1 -5,-2 -2,-1 -2,-3 -2,-6l0 -84 -18 0 -28 87c-1,1 -2,3 -3,4 0,0 -2,0 -4,1 -2,0 -4,-1 -6,-2 -1,-2 -2,-3 -2,-5l0 -3 31 -91c1,-4 3,-6 7,-6l30 0c5,0 8,3 8,8l0 91zm36 -38l0 31 31 0c5,0 8,-2 11,-5 3,-3 4,-7 4,-11 0,-4 -1,-7 -4,-10 -1,-2 -2,-3 -4,-4 -2,0 -5,-1 -7,-1l-31 0zm0 -15l31 0c9,0 17,3 23,9 5,6 7,13 7,21 0,8 -2,15 -7,21 -6,7 -14,10 -23,10l-38 0c-5,0 -8,-3 -8,-8l0 -91c0,-2 1,-4 2,-6 2,-1 4,-2 6,-2 2,0 3,1 5,2 1,1 2,3 2,6l0 38zm144 0l0 -38c0,-2 0,-4 2,-6 1,-1 3,-2 5,-2 2,0 4,1 5,2 2,1 3,3 3,6l0 91c0,3 -1,5 -2,6 -2,1 -4,2 -6,2 -2,0 -4,-1 -5,-2 -2,-1 -2,-3 -2,-6l0 -38 -46 0 0 38c0,3 -1,5 -2,6 -2,1 -4,2 -6,2 -2,0 -4,-1 -5,-2 -2,-1 -2,-3 -2,-6l0 -91c0,-2 0,-4 2,-6 1,-1 3,-2 5,-2 2,0 4,1 5,2 2,1 3,3 3,6l0 38 46 0zm127 53c0,3 -1,5 -2,6 -1,1 -3,2 -5,2 -2,0 -4,-1 -6,-2 -1,-1 -2,-3 -2,-6l0 -91c0,-2 1,-4 2,-6 2,-1 4,-2 6,-2 2,0 3,1 5,2 1,1 2,3 2,6l0 91zm-76 -38l0 31 15 0c5,0 9,-2 11,-5 3,-3 5,-7 5,-11 0,-4 -2,-7 -4,-10 -1,-2 -3,-3 -5,-4 -2,0 -4,-1 -7,-1l-15 0zm0 -15l15 0c10,0 17,3 23,9 5,6 8,13 8,21 0,8 -3,15 -8,21 -6,7 -13,10 -23,10l-22 0c-6,0 -8,-3 -8,-8l0 -91c0,-2 1,-4 2,-6 2,-1 3,-2 5,-2 2,0 4,1 6,2 1,1 2,3 2,6l0 38zm145 8l28 41 1 2 0 2c0,2 -1,4 -2,6l-2 1 -1 0 -3 1c-2,0 -4,-1 -6,-3l-24 -36 -24 35c-2,3 -4,4 -7,4 -1,0 -3,-1 -5,-2 -2,-2 -2,-4 -2,-6 0,-1 0,-3 1,-4l27 -41 -27 -42 -1 -2 0 -2c0,-2 0,-4 2,-5 1,-2 3,-3 6,-3 2,0 4,1 6,4l24 36 24 -36c1,-3 3,-4 6,-4 2,0 3,1 6,3 1,1 2,3 2,5 0,1 -1,3 -1,4l-28 42zm-935 248l-30 0c-8,0 -15,-3 -21,-9 -6,-6 -10,-13 -10,-22l0 -68c0,-2 1,-4 3,-6 1,-1 3,-2 5,-2 2,0 4,1 5,2 2,1 3,3 3,6l0 68c0,5 1,8 4,11 2,2 3,3 5,4 2,0 4,1 6,1l30 0 0 -84c0,-2 1,-4 3,-6 1,-1 3,-2 5,-2 2,0 4,1 5,2 2,1 3,3 3,6l0 114c0,8 -3,15 -9,21 -6,6 -13,9 -22,9l-30 0c-2,0 -4,0 -6,-2 -1,-1 -2,-3 -2,-5 0,-2 1,-4 2,-5 1,-2 3,-3 6,-3l30 0c4,0 8,-1 11,-4 3,-3 4,-7 4,-11l0 -15zm98 -61l0 -38c0,-2 1,-4 2,-6 2,-1 3,-2 5,-2 2,0 4,1 6,2 1,1 2,3 2,6l0 91c0,3 -1,5 -2,6 -2,1 -3,2 -6,2 -2,0 -3,-1 -5,-2 -1,-1 -2,-3 -2,-6l0 -38 -31 0c-8,0 -15,-3 -21,-9 -6,-6 -9,-13 -9,-21l0 -23c0,-2 1,-4 2,-6 2,-1 3,-2 5,-2 2,0 4,1 6,2 1,1 2,3 2,6l0 23c0,4 1,7 4,10 2,2 4,3 5,4 2,0 4,1 6,1l31 0zm97 30l0 -61 -30 0c-5,0 -8,2 -11,5 -2,1 -3,3 -4,5 0,1 -1,3 -1,6l0 45c0,5 2,8 5,11 1,2 3,3 5,4 2,0 4,1 6,1l15 0c4,0 8,-2 11,-5 3,-2 4,-6 4,-11zm8 21c-3,3 -6,5 -10,7 -5,2 -9,3 -13,3l-15 0c-8,0 -16,-3 -22,-9 -6,-6 -9,-13 -9,-22l0 -45c0,-9 3,-16 9,-22 6,-6 13,-9 22,-9l38 0c5,0 7,3 7,8l0 68c0,3 1,6 3,10 2,2 5,5 8,6 3,1 5,4 5,7 0,2 -1,4 -2,6 -2,1 -4,2 -6,2 -1,0 -2,0 -3,-1 -5,-2 -9,-5 -12,-9zm82 10l-23 0c-8,0 -15,-3 -21,-9 -6,-6 -9,-13 -9,-22l0 -45c0,-9 3,-16 9,-22 6,-6 13,-9 21,-9l23 0c2,0 4,1 5,3 2,1 3,3 3,5 0,1 -1,3 -2,5 -2,1 -3,2 -6,2l-23 0c-4,0 -8,2 -11,5 -1,1 -2,3 -3,5 -1,1 -1,3 -1,6l0 45c0,5 1,8 4,11 2,2 3,3 5,4 2,0 4,1 6,1l23 0c2,0 4,0 5,2 2,2 3,3 3,5 0,2 -1,4 -2,5 -2,2 -3,3 -6,3zm74 -92l-30 0 0 84c0,3 -1,5 -2,6 -2,1 -3,2 -6,2 -2,0 -3,-1 -5,-2 -1,-1 -2,-3 -2,-6l0 -91c0,-5 2,-8 7,-8l69 0c8,0 15,3 21,9 6,6 9,13 9,22l0 68c0,3 0,5 -2,6 -1,1 -3,2 -5,2 -2,0 -4,-1 -6,-2 -1,-1 -2,-3 -2,-6l0 -68c0,-5 -1,-8 -4,-11 -3,-3 -7,-5 -11,-5l-15 0 0 84c0,3 -1,5 -3,6 -1,1 -3,2 -5,2 -2,0 -4,-1 -5,-2 -2,-1 -3,-3 -3,-6l0 -84zm113 42l-17 18 0 24c0,3 0,5 -2,6 -1,1 -3,2 -5,2 -2,0 -4,-1 -6,-2 -1,-1 -2,-3 -2,-6l0 -91c0,-2 1,-4 2,-6 2,-1 4,-2 6,-2 2,0 3,1 5,2 1,1 2,3 2,6l0 45 49 -51c1,-1 3,-2 4,-2 2,0 4,1 6,2 1,2 2,4 2,6 0,2 -1,4 -2,6l-31 32 31 48c2,2 2,4 2,5 0,3 -1,4 -2,6 -2,1 -4,2 -6,2 -2,0 -4,-1 -5,-3l-31 -47zm136 16c0,9 -4,17 -10,24 -7,7 -15,10 -24,10l-9 0c-9,0 -17,-3 -24,-10 -6,-6 -10,-14 -10,-24l0 -39c0,-9 4,-17 10,-24 7,-6 15,-10 24,-10l9 0c9,0 17,3 24,10 6,6 10,14 10,24l0 39zm-16 0l0 -39c0,-5 -1,-10 -5,-13 -3,-4 -8,-6 -13,-6l-9 0c-5,0 -9,2 -13,6 -4,3 -5,8 -5,13l0 39c0,5 1,10 5,13 3,4 8,6 13,6l9 0c5,0 9,-2 13,-6 4,-3 5,-7 5,-13zm98 3l0 -45c0,-5 -2,-8 -5,-11 -2,-3 -6,-5 -11,-5l-15 0c-4,0 -8,2 -11,5 -1,1 -2,3 -3,5 -1,2 -1,4 -1,6l0 45c0,5 1,8 4,11 2,2 3,3 5,4 2,0 4,1 6,1l15 0c5,0 8,-2 11,-5 3,-2 5,-6 5,-11zm-46 -70l6 -4 9 -7c3,-2 5,-4 6,-5 2,-3 3,-5 3,-8 0,-3 -1,-6 -3,-9 -3,-2 -6,-3 -9,-3 -3,0 -6,1 -8,3 -3,2 -4,5 -4,9l0 24zm30 -5c10,0 18,3 23,8 5,6 8,13 8,22l0 45c0,9 -3,16 -9,22 -6,6 -13,9 -22,9l-15 0c-8,0 -15,-3 -21,-9 -6,-6 -9,-13 -9,-22l0 -94c0,-8 3,-15 8,-21 6,-4 12,-6 19,-6 7,0 14,2 19,7 6,4 9,11 9,20 0,5 -1,9 -3,11 -1,3 -3,5 -7,8z"/>
   <path class="fil4 str0" d="M4061 2112l-38 0c-8,0 -15,-3 -21,-9 -6,-6 -9,-13 -9,-22l0 -91c0,-9 3,-16 9,-22 6,-6 13,-8 21,-8l38 0c3,0 4,0 6,2 1,1 2,3 2,5 0,2 -1,3 -2,5 -1,2 -3,3 -6,3l-38 0c-4,0 -8,1 -11,4 -1,1 -2,3 -3,5 -1,2 -1,4 -1,6l0 91c0,5 1,8 4,11 2,2 4,3 5,4 2,0 4,1 6,1l38 0c3,0 4,0 6,2 1,2 2,3 2,5 0,2 -1,4 -2,5 -1,2 -3,3 -6,3zm77 -53l28 41 1 2 0 2c0,2 -1,4 -3,6l-1 1 -2 0 -2 1c-3,0 -5,-1 -7,-4l-24 -36 -24 36c-1,3 -3,4 -6,4 -2,0 -3,-1 -5,-3 -2,-1 -3,-3 -3,-5 0,-1 1,-3 2,-4l27 -42 -28 -41 -1 -2 0 -2c0,-2 1,-4 3,-6 1,-1 3,-2 5,-2 2,0 4,1 6,4l24 36 24 -36c2,-3 4,-4 7,-4 1,0 3,1 5,2 2,2 3,4 3,6 0,1 -1,3 -2,4l-27 42zm65 -8l46 0 0 -15c0,-5 -2,-8 -5,-11 -3,-3 -6,-5 -11,-5l-15 0c-4,0 -8,2 -11,5 -1,1 -2,3 -3,5 -1,2 -1,4 -1,6l0 15zm0 15l0 15c0,5 1,8 4,11 2,2 3,3 5,4 2,0 4,1 6,1l38 0c2,0 4,0 6,2 1,2 2,3 2,5 0,2 -1,4 -2,5 -1,2 -3,3 -6,3l-38 0c-8,0 -15,-3 -21,-9 -6,-6 -9,-13 -9,-22l0 -45c0,-9 3,-16 8,-22 6,-6 14,-9 22,-9l15 0c9,0 16,3 22,9 6,6 9,13 9,22l0 23c0,5 -3,7 -8,7l-53 0zm173 38l0 -91c0,-3 0,-5 -2,-7 -1,-1 -3,-2 -4,-2 -3,0 -5,1 -7,4l-32 45 -32 -45c-2,-3 -5,-4 -7,-4 -2,0 -4,1 -5,2 -1,2 -2,4 -2,7l0 91c0,3 1,4 2,6 2,1 3,2 6,2 1,0 3,-1 5,-2 1,-2 2,-3 2,-6l0 -67 24 34c3,2 5,4 7,4 2,0 4,-2 6,-4l24 -34 0 67c0,3 1,4 2,6 2,1 4,2 6,2 2,0 3,-1 5,-2 2,-2 2,-3 2,-6zm113 0c0,3 -1,4 -2,6 -2,1 -3,2 -6,2 -2,0 -3,-1 -5,-2 -1,-1 -2,-3 -2,-6l0 -91c0,-2 1,-4 2,-6 2,-1 3,-2 5,-2 2,0 4,1 6,2 1,1 2,3 2,6l0 91zm-76 -38l0 31 15 0c5,0 8,-2 11,-5 3,-3 4,-7 4,-11 0,-4 -1,-8 -3,-10 -2,-2 -3,-3 -5,-4 -2,-1 -4,-1 -7,-1l-15 0zm0 -15l15 0c10,0 17,3 23,9 5,6 7,13 7,21 0,8 -2,15 -7,21 -6,7 -13,10 -23,10l-23 0c-5,0 -7,-3 -7,-8l0 -91c0,-2 0,-4 2,-6 1,-1 3,-2 5,-2 2,0 4,1 5,2 2,1 3,3 3,6l0 38zm274 53c0,5 -3,8 -8,8l-38 0c-8,0 -15,-3 -21,-9 -6,-6 -9,-13 -9,-22l0 -68c0,-2 0,-4 2,-6 2,-1 3,-2 5,-2 2,0 4,1 6,2 1,1 2,3 2,6l0 68c0,5 1,8 4,11 2,2 3,3 5,4 2,0 4,1 6,1l31 0 0 -84c0,-2 0,-4 2,-6 2,-1 3,-2 5,-2 2,0 4,1 6,2 1,1 2,3 2,6l0 91zm61 -38l-9 0c-3,0 -5,-1 -6,-2 -1,-2 -2,-4 -2,-6 0,-1 1,-3 2,-5 1,-1 3,-2 6,-2l7 0c5,0 9,-2 11,-5 3,-3 5,-6 5,-10 0,-5 -2,-8 -4,-11 -1,-1 -3,-3 -5,-3 -2,-1 -4,-2 -7,-2l-7 0c-7,0 -13,2 -19,7 -1,0 -2,1 -4,1 -2,0 -4,-1 -6,-2 -1,-2 -2,-4 -2,-6 0,-2 1,-4 3,-6 8,-6 17,-9 28,-9l7 0c10,0 17,3 23,10 5,5 8,12 8,21 0,2 0,4 -1,6 0,2 -1,4 -2,6 -1,4 -4,7 -7,10 3,3 5,7 7,11l2 6c0,2 1,4 1,6 0,9 -3,16 -8,21 -5,7 -13,10 -23,10l-7 0c-11,0 -20,-3 -28,-9 -2,-2 -3,-4 -3,-6 0,-2 1,-4 2,-6 2,-1 4,-2 6,-2 1,0 3,0 4,1 6,5 12,7 19,7l7 0c5,0 9,-2 11,-5 3,-3 5,-7 5,-11 0,-4 -2,-7 -4,-10 -2,-3 -5,-4 -10,-5zm111 15l0 -45c0,-5 -2,-8 -4,-11 -3,-3 -7,-5 -11,-5l-16 0c-4,0 -8,2 -11,5 -1,1 -2,3 -3,5 -1,1 -1,3 -1,6l0 45c0,5 2,8 4,11 2,2 4,3 5,4 3,0 5,1 6,1l16 0c4,0 7,-2 10,-5 3,-2 5,-6 5,-11zm-25 -76l-34 -32c-2,-2 -3,-5 -3,-7 0,-1 1,-3 2,-4 2,-2 4,-2 7,-2l60 0c3,0 4,0 6,2 1,1 2,3 2,5 0,2 -1,3 -2,5 -1,2 -3,3 -6,3l-41 0 40 38 2 3c5,5 7,12 7,20l0 45c0,9 -3,16 -9,22 -6,6 -13,9 -21,9l-16 0c-8,0 -15,-3 -21,-9 -6,-6 -9,-13 -9,-22l0 -45c0,-9 3,-16 9,-22 6,-6 13,-9 21,-9l6 0zm137 99c0,5 -2,8 -7,8l-38 0c-8,0 -16,-3 -22,-9 -6,-6 -9,-13 -9,-22l0 -68c0,-2 1,-4 3,-6 1,-1 3,-2 5,-2 2,0 4,1 5,2 2,1 2,3 2,6l0 68c0,5 2,8 5,11 1,2 3,3 5,4 2,0 4,1 6,1l30 0 0 -84c0,-2 1,-4 3,-6 1,-1 3,-2 5,-2 2,0 4,1 5,2 2,1 2,3 2,6l0 91zm37 -7l30 0c5,0 8,-2 11,-5 3,-2 5,-6 5,-11l0 -45c0,-5 -2,-8 -5,-11 -2,-3 -6,-5 -11,-5l-30 0 0 77zm0 15l0 38c0,2 -1,4 -2,5 -2,2 -4,2 -6,2 -1,0 -3,0 -5,-1 -1,-2 -2,-4 -2,-6l0 -137c0,-5 2,-8 7,-8l38 0c9,0 16,3 22,9 6,6 9,13 9,22l0 45c0,9 -3,16 -9,22 -6,6 -13,9 -22,9l-30 0zm143 -31l0 -61 -30 0c-5,0 -8,2 -11,5 -2,1 -3,3 -4,5 0,1 -1,3 -1,6l0 45c0,5 2,8 5,11 1,2 3,3 5,4 2,0 4,1 6,1l15 0c4,0 8,-2 11,-5 3,-2 4,-6 4,-11zm8 21c-3,3 -6,5 -10,7 -5,2 -9,3 -13,3l-15 0c-9,0 -16,-3 -22,-9 -6,-6 -9,-13 -9,-22l0 -45c0,-9 3,-16 9,-22 6,-6 13,-9 22,-9l38 0c5,0 7,3 7,8l0 68c0,3 1,6 3,9 2,3 4,6 8,7 3,1 5,4 5,7 0,2 -1,4 -3,5 -1,2 -3,3 -5,3 -1,0 -2,0 -3,-1 -5,-2 -9,-5 -12,-9zm74 -82l-30 0 0 84c0,3 -1,4 -2,6 -2,1 -4,2 -6,2 -2,0 -4,-1 -5,-2 -2,-1 -2,-3 -2,-6l0 -91c0,-5 2,-8 7,-8l69 0c8,0 15,3 21,9 6,6 9,13 9,22l0 68c0,3 -1,4 -2,6 -2,1 -3,2 -6,2 -2,0 -3,-1 -5,-2 -1,-1 -2,-3 -2,-6l0 -68c0,-5 -2,-8 -5,-11 -2,-3 -6,-5 -10,-5l-16 0 0 84c0,3 0,4 -2,6 -1,1 -3,2 -5,2 -2,0 -4,-1 -6,-2 -1,-1 -2,-3 -2,-6l0 -84zm97 31l46 0 0 -15c0,-5 -1,-8 -4,-11 -3,-3 -6,-5 -11,-5l-15 0c-5,0 -8,2 -11,5 -2,1 -3,3 -3,5 -1,2 -2,4 -2,6l0 15zm0 15l0 15c0,5 2,8 5,11 1,2 3,3 5,4 2,0 4,1 6,1l38 0c2,0 4,0 5,2 2,2 2,3 2,5 0,2 0,4 -1,5 -2,2 -4,3 -6,3l-38 0c-8,0 -16,-3 -22,-9 -6,-6 -9,-13 -9,-22l0 -45c0,-9 3,-16 9,-22 6,-6 13,-9 22,-9l15 0c8,0 15,3 21,9 6,6 9,13 9,22l0 23c0,5 -2,7 -7,7l-54 0zm159 38c0,3 -1,4 -2,6 -2,1 -3,2 -6,2 -2,0 -3,-1 -5,-2 -2,-1 -2,-3 -2,-6l0 -84 -18 0 -28 87c-1,1 -2,3 -3,4 0,0 -2,0 -4,1 -2,0 -4,-1 -6,-2 -1,-2 -2,-3 -2,-6l0 -2 31 -92c1,-3 3,-5 7,-5l30 0c5,0 8,3 8,8l0 91zm36 -38l0 31 31 0c5,0 8,-2 11,-5 3,-3 4,-7 4,-11 0,-4 -1,-8 -4,-10 -1,-2 -2,-3 -4,-4 -2,-1 -5,-1 -7,-1l-31 0zm0 -15l31 0c9,0 17,3 23,9 5,6 7,13 7,21 0,8 -2,15 -7,21 -6,7 -14,10 -23,10l-38 0c-5,0 -8,-3 -8,-8l0 -91c0,-2 1,-4 2,-6 2,-1 4,-2 6,-2 2,0 3,1 5,2 2,1 2,3 2,6l0 38zm144 0l0 -38c0,-2 0,-4 2,-6 1,-1 3,-2 5,-2 2,0 4,1 5,2 2,1 3,3 3,6l0 91c0,3 -1,4 -2,6 -2,1 -4,2 -6,2 -2,0 -4,-1 -5,-2 -2,-1 -2,-3 -2,-6l0 -38 -46 0 0 38c0,3 -1,4 -2,6 -2,1 -4,2 -6,2 -2,0 -4,-1 -5,-2 -2,-1 -2,-3 -2,-6l0 -91c0,-2 0,-4 2,-6 1,-1 3,-2 5,-2 2,0 4,1 5,2 2,1 3,3 3,6l0 38 46 0zm127 53c0,3 0,4 -2,6 -1,1 -3,2 -5,2 -2,0 -4,-1 -6,-2 -1,-1 -2,-3 -2,-6l0 -91c0,-2 1,-4 2,-6 2,-1 4,-2 6,-2 2,0 3,1 5,2 1,1 2,3 2,6l0 91zm-76 -38l0 31 15 0c5,0 9,-2 11,-5 3,-3 5,-7 5,-11 0,-4 -2,-8 -4,-10 -1,-2 -3,-3 -5,-4 -2,-1 -4,-1 -7,-1l-15 0zm0 -15l15 0c10,0 17,3 23,9 5,6 8,13 8,21 0,8 -3,15 -8,21 -5,7 -13,10 -23,10l-22 0c-6,0 -8,-3 -8,-8l0 -91c0,-2 1,-4 2,-6 2,-1 4,-2 6,-2 1,0 3,1 5,2 1,1 2,3 2,6l0 38zm145 8l28 41 1 2 0 2c0,2 -1,4 -2,6l-2 1 -1 0 -3 1c-2,0 -4,-1 -6,-4l-24 -36 -24 36c-2,3 -4,4 -7,4 -1,0 -3,-1 -5,-3 -2,-1 -2,-3 -2,-5 0,-1 0,-3 1,-4l27 -42 -27 -41 -1 -2 0 -2c0,-2 0,-4 2,-6 1,-1 3,-2 6,-2 2,0 4,1 6,4l24 36 24 -36c1,-3 3,-4 6,-4 2,0 3,1 6,2 1,2 2,4 2,6 0,1 -1,3 -1,4l-28 42zm-1176 214c0,9 -3,17 -10,24 -6,6 -14,10 -23,10l-9 0c-10,0 -17,-4 -24,-10 -7,-6 -10,-14 -10,-24l0 -39c0,-9 3,-17 10,-24 6,-7 14,-10 24,-10l9 0c9,0 17,3 23,10 7,6 10,14 10,24l0 39zm-15 0l0 -40c0,-5 -2,-9 -5,-12 -4,-4 -8,-6 -13,-6l-10 0c-5,0 -9,2 -12,6 -4,3 -6,7 -6,12l0 40c0,5 2,10 5,13 4,4 8,6 13,6l10 0c5,0 9,-2 13,-6 3,-3 5,-8 5,-13zm67 -16l-17 18 0 24c0,2 -1,4 -2,6 -2,1 -3,2 -6,2 -2,0 -3,-1 -5,-2 -1,-1 -2,-3 -2,-6l0 -91c0,-2 1,-4 2,-6 2,-1 3,-2 5,-2 2,0 4,1 6,2 1,1 2,3 2,6l0 45 48 -51c2,-1 3,-2 5,-2 2,0 4,1 6,2 1,2 2,4 2,6 0,2 -1,4 -3,6l-30 32 31 48c1,2 2,4 2,5 0,2 -1,4 -3,6 -1,1 -3,2 -5,2 -2,0 -4,-1 -5,-3l-31 -47zm82 35l31 0c4,0 7,-2 10,-5 3,-3 5,-6 5,-11l0 -46c0,-4 -2,-7 -4,-10 -3,-3 -7,-5 -11,-5l-31 0 0 77zm0 15l0 38c0,2 -1,4 -2,5 -2,2 -4,2 -6,2 -1,0 -3,0 -5,-2 -1,-1 -2,-3 -2,-5l0 -137c0,-5 2,-8 7,-8l38 0c9,0 16,3 22,9 6,6 9,13 9,21l0 46c0,9 -3,16 -9,22 -6,6 -13,9 -22,9l-30 0zm143 0l-30 0c-8,0 -16,-3 -22,-9 -6,-6 -9,-13 -9,-22l0 -68c0,-2 1,-4 2,-6 2,-1 4,-2 6,-2 2,0 3,1 5,2 2,1 2,3 2,6l0 68c0,5 2,8 5,11 1,1 3,3 5,3 2,1 4,2 6,2l30 0 0 -84c0,-2 1,-4 2,-6 2,-1 4,-2 6,-2 2,0 3,1 5,2 2,1 2,3 2,6l0 114c0,8 -3,15 -9,21 -5,6 -13,9 -21,9l-31 0c-1,0 -3,0 -5,-2 -2,-1 -2,-3 -2,-5 0,-2 0,-4 2,-6 1,-1 3,-2 5,-2l31 0c4,0 8,-1 11,-4 3,-3 4,-7 4,-11l0 -15zm109 -7c-4,2 -9,4 -15,5l-9 1 -9 1 -10 -1 -9 -1c-6,-1 -11,-3 -14,-8 -4,-4 -6,-9 -6,-15 0,-3 1,-6 2,-9 2,-3 4,-6 7,-9l48 -33c2,-2 3,-3 3,-5 0,-3 -3,-6 -8,-7 -5,-2 -11,-3 -17,-3 -5,0 -10,0 -14,1 -4,1 -7,2 -9,4 -2,1 -3,2 -5,2 -2,0 -3,-1 -5,-2 -2,-2 -2,-4 -2,-6 0,-2 1,-4 3,-6 3,-2 8,-4 14,-6 3,0 6,-1 9,-1 4,-1 7,-1 10,-1 2,0 4,0 6,0 2,0 4,0 6,1 3,0 5,0 8,1 6,2 11,5 14,9 4,4 5,9 5,14 0,6 -3,12 -8,17l-49 33c-2,2 -3,4 -3,6 0,2 1,4 2,5 1,2 3,3 5,3l8 1 10 1c5,0 10,-1 13,-1 2,-1 4,-1 6,-2 2,-1 4,-2 5,-3l2 0c1,-1 1,-1 2,-1 2,0 4,1 6,3 1,1 2,3 2,5 0,3 -2,5 -4,7zm101 -27c0,9 -3,17 -10,24 -6,6 -14,10 -23,10l-9 0c-10,0 -17,-4 -24,-10 -7,-6 -10,-14 -10,-24l0 -39c0,-9 3,-17 10,-24 6,-7 14,-10 24,-10l9 0c9,0 17,3 23,10 7,6 10,14 10,24l0 39zm-15 0l0 -40c0,-5 -2,-9 -5,-12 -4,-4 -8,-6 -13,-6l-10 0c-5,0 -9,2 -12,6 -4,3 -6,7 -6,12l0 40c0,5 2,10 5,13 4,4 8,6 13,6l10 0c5,0 9,-2 13,-6 3,-3 5,-8 5,-13zm97 3l0 -45c0,-5 -1,-8 -4,-11 -3,-3 -6,-5 -11,-5l-15 0c-4,0 -8,2 -11,5 -2,1 -3,3 -3,5 -1,2 -1,3 -1,6l0 45c0,5 1,8 4,11 1,1 3,3 5,3 2,1 4,2 6,2l15 0c4,0 8,-2 11,-5 3,-3 4,-6 4,-11zm-45 -70l6 -5 9 -6c3,-2 5,-4 6,-6 2,-2 3,-4 3,-7 0,-4 -1,-6 -4,-9 -2,-2 -5,-3 -8,-3 -4,0 -6,1 -9,3 -2,2 -3,5 -3,9l0 24zm30 -5c10,0 17,2 23,8 5,6 8,13 8,22l0 45c0,9 -3,16 -9,22 -6,6 -13,9 -22,9l-15 0c-8,0 -15,-3 -22,-9 -6,-6 -9,-13 -9,-22l0 -94c0,-9 3,-15 9,-21 5,-4 12,-7 19,-7 7,0 13,3 19,8 5,4 8,11 8,20 0,5 -1,8 -2,11 -1,2 -4,5 -7,8z"/>
   <path class="fil4 str0" d="M3586 1574l45 0c5,0 8,-1 11,-4 3,-3 5,-7 5,-11l0 -31c0,-4 -2,-7 -5,-10 -3,-3 -6,-5 -11,-5l-45 0 0 61zm0 15l0 54c0,2 -1,4 -3,5 -1,2 -3,2 -5,2 -2,0 -4,0 -5,-2 -2,-1 -3,-3 -3,-5l0 -137c0,-5 3,-8 8,-8l53 0c9,0 16,3 22,9 6,6 9,13 9,21l0 31c0,8 -3,15 -9,21 -6,6 -13,9 -22,9l-45 0zm112 1l46 0 0 -16c0,-4 -1,-8 -4,-11 -3,-3 -7,-4 -11,-4l-16 0c-4,0 -7,1 -10,4 -2,2 -3,3 -4,5 0,2 -1,4 -1,6l0 16zm0 15l0 15c0,4 2,8 5,11 1,1 3,2 4,3 3,1 5,1 6,1l39 0c2,0 3,1 5,3 1,1 2,3 2,5 0,1 0,3 -2,5 -1,1 -3,2 -5,2l-39 0c-8,0 -15,-3 -21,-9 -6,-5 -9,-13 -9,-21l0 -46c0,-8 3,-15 9,-21 6,-6 13,-9 21,-9l16 0c8,0 15,3 21,9 6,5 9,13 9,21l0 23c0,5 -2,8 -7,8l-54 0zm143 30l31 0 0 -84c0,-2 0,-4 2,-5 1,-2 3,-2 5,-2 2,0 4,0 6,2 1,1 2,3 2,5l0 92c0,5 -3,7 -8,7l-68 0c-8,0 -15,-3 -22,-9 -6,-5 -9,-13 -9,-21l0 -69c0,-2 1,-4 3,-5 1,-2 3,-2 5,-2 2,0 4,0 5,2 2,1 3,3 3,5l0 69c0,4 1,8 4,11 1,1 3,2 5,3 2,1 4,1 6,1l15 0 0 -84c0,-2 1,-4 2,-5 2,-2 4,-2 6,-2 2,0 3,0 5,2 1,1 2,3 2,5l0 84zm82 -45l46 0 0 -16c0,-4 -1,-8 -4,-11 -3,-3 -7,-4 -11,-4l-15 0c-5,0 -8,1 -11,4 -2,2 -3,3 -4,5 0,2 -1,4 -1,6l0 16zm0 15l0 15c0,4 2,8 5,11 1,1 3,2 5,3 2,1 4,1 6,1l38 0c2,0 4,1 5,3 2,1 2,3 2,5 0,1 0,3 -1,5 -2,1 -4,2 -6,2l-38 0c-9,0 -16,-3 -22,-9 -6,-5 -9,-13 -9,-21l0 -46c0,-8 3,-15 9,-21 6,-6 13,-9 22,-9l15 0c8,0 15,3 21,9 6,5 9,13 9,21l0 23c0,5 -2,8 -7,8l-54 0zm144 -16l0 -38c0,-2 0,-4 2,-5 1,-2 3,-2 5,-2 2,0 4,0 5,2 2,1 3,3 3,5l0 92c0,2 -1,4 -2,5 -2,2 -4,2 -6,2 -2,0 -4,0 -5,-2 -2,-1 -2,-3 -2,-5l0 -39 -46 0 0 39c0,2 -1,4 -2,5 -2,2 -4,2 -6,2 -2,0 -4,0 -5,-2 -2,-1 -2,-3 -2,-5l0 -92c0,-2 0,-4 2,-5 1,-2 3,-2 5,-2 2,0 4,0 5,2 2,1 3,3 3,5l0 38 46 0zm112 54c0,5 -2,7 -7,7l-38 0c-9,0 -16,-3 -22,-9 -6,-5 -9,-13 -9,-21l0 -69c0,-2 1,-4 2,-5 2,-2 4,-2 6,-2 2,0 3,0 5,2 1,1 2,3 2,5l0 69c0,4 2,8 5,11 1,1 3,2 4,3 3,1 5,1 6,1l31 0 0 -84c0,-2 1,-4 2,-5 2,-2 4,-2 6,-2 2,0 3,0 5,2 1,1 2,3 2,5l0 92zm37 -53l45 0 0 -16c0,-4 -1,-8 -4,-11 -3,-3 -6,-4 -11,-4l-15 0c-4,0 -8,1 -11,4 -1,2 -3,3 -3,5 -1,2 -1,4 -1,6l0 16zm0 15l0 15c0,4 1,8 4,11 1,1 3,2 5,3 2,1 4,1 6,1l38 0c2,0 4,1 5,3 2,1 3,3 3,5 0,1 -1,3 -2,5 -2,1 -3,2 -6,2l-38 0c-8,0 -15,-3 -22,-9 -6,-5 -9,-13 -9,-21l0 -46c0,-8 3,-15 9,-21 6,-6 13,-9 22,-9l15 0c8,0 16,3 22,9 6,5 9,13 9,21l0 23c0,5 -3,8 -8,8l-53 0zm258 12c0,9 -3,17 -9,23 -7,7 -15,10 -24,10l-9 0c-9,0 -17,-3 -24,-9 -6,-7 -10,-15 -10,-24l0 -40c0,-9 4,-17 10,-23 7,-7 15,-10 24,-10l9 0c9,0 17,3 24,9 6,7 9,15 9,24l0 40zm-15 0l0 -40c0,-5 -1,-9 -5,-13 -4,-3 -8,-5 -13,-5l-9 0c-5,0 -10,2 -13,5 -4,4 -6,8 -6,13l0 40c0,5 2,9 6,13 3,3 8,5 13,5l9 0c5,0 9,-2 13,-5 3,-4 5,-8 5,-13zm198 -28l0 -38c0,-2 1,-4 2,-5 2,-2 4,-2 6,-2 2,0 3,0 5,2 2,1 2,3 2,5l0 92c0,2 0,4 -2,5 -1,2 -3,2 -5,2 -2,0 -4,0 -6,-2 -1,-1 -2,-3 -2,-5l0 -39 -46 0 0 39c0,2 0,4 -2,5 -1,2 -3,2 -5,2 -2,0 -4,0 -6,-2 -1,-1 -2,-3 -2,-5l0 -92c0,-2 1,-4 2,-5 2,-2 4,-2 6,-2 2,0 3,0 5,2 2,1 2,3 2,5l0 38 46 0zm98 31l0 -61 -31 0c-4,0 -8,1 -11,4 -1,2 -2,3 -3,5 -1,2 -1,4 -1,6l0 46c0,4 1,8 4,11 2,1 3,2 5,3 2,1 4,1 6,1l15 0c5,0 8,-1 11,-4 3,-3 5,-7 5,-11zm7 20c-2,3 -6,5 -10,7 -4,2 -9,3 -13,3l-15 0c-8,0 -15,-3 -21,-9 -6,-5 -9,-13 -9,-21l0 -46c0,-8 3,-15 8,-21 6,-6 14,-9 22,-9l38 0c5,0 8,2 8,7l0 69c0,3 1,6 3,9 1,3 4,5 7,7 3,1 5,3 5,6 0,3 -1,5 -2,6 -1,2 -3,2 -6,2 -1,0 -2,0 -3,0 -5,-2 -9,-5 -12,-10zm69 -36l-9 0c-3,0 -5,0 -6,-2 -1,-1 -2,-3 -2,-5 0,-2 1,-4 2,-5 1,-2 3,-3 6,-3l7 0c5,0 8,-1 11,-4 3,-3 4,-7 4,-11 0,-4 -1,-8 -3,-11 -2,-1 -3,-2 -5,-3 -2,-1 -4,-1 -7,-1l-7 0c-8,0 -14,2 -19,6 -1,1 -3,1 -4,2 -2,0 -4,-1 -6,-3 -1,-1 -2,-3 -2,-5 0,-3 1,-5 3,-6 8,-6 17,-9 27,-9l8 0c10,0 17,3 23,9 5,6 8,13 8,21 0,3 -1,5 -1,7 0,2 -1,4 -2,6 -1,3 -4,7 -7,10 3,3 5,6 7,10l2 6c0,2 1,5 1,7 0,8 -3,15 -8,21 -5,6 -13,9 -23,9l-8 0c-10,0 -19,-3 -27,-9 -2,-1 -3,-3 -3,-6 0,-2 1,-3 2,-5 2,-2 4,-3 6,-3 1,0 2,1 4,2 6,4 12,6 19,6l7 0c5,0 8,-1 11,-5 3,-3 4,-6 4,-10 0,-4 -1,-8 -3,-10 -2,-3 -5,-5 -10,-6zm111 -15l0 -38c0,-2 0,-4 2,-5 2,-2 3,-2 5,-2 2,0 4,0 6,2 1,1 2,3 2,5l0 92c0,2 -1,4 -2,5 -2,2 -3,2 -6,2 -2,0 -3,0 -5,-2 -2,-1 -2,-3 -2,-5l0 -39 -46 0 0 39c0,2 -1,4 -2,5 -2,2 -3,2 -6,2 -2,0 -3,0 -5,-2 -2,-1 -2,-3 -2,-5l0 -92c0,-2 0,-4 2,-5 2,-2 3,-2 5,-2 2,0 4,0 6,2 1,1 2,3 2,5l0 38 46 0zm97 31l0 -61 -30 0c-5,0 -8,1 -11,4 -2,2 -3,3 -4,5 0,2 -1,4 -1,6l0 46c0,4 2,8 5,11 1,1 3,2 5,3 2,1 4,1 6,1l15 0c4,0 8,-1 11,-4 3,-3 4,-7 4,-11zm8 20c-3,3 -6,5 -10,7 -5,2 -9,3 -13,3l-15 0c-9,0 -16,-3 -22,-9 -6,-5 -9,-13 -9,-21l0 -46c0,-8 3,-15 9,-21 6,-6 13,-9 22,-9l38 0c5,0 7,2 7,7l0 69c0,3 1,6 3,9 2,3 4,5 8,7 3,1 5,3 5,6 0,3 -1,5 -3,6 -1,2 -3,2 -5,2 -1,0 -2,0 -3,0 -5,-2 -9,-5 -12,-10zm90 -51l0 -38c0,-2 0,-4 2,-5 1,-2 3,-2 5,-2 2,0 4,0 5,2 2,1 3,3 3,5l0 92c0,2 -1,4 -2,5 -2,2 -4,2 -6,2 -2,0 -4,0 -5,-2 -2,-1 -2,-3 -2,-5l0 -39 -31 0c-8,0 -15,-2 -21,-8 -6,-6 -9,-13 -9,-22l0 -23c0,-2 0,-4 2,-5 1,-2 3,-2 5,-2 2,0 4,0 5,2 2,1 3,3 3,5l0 23c0,4 1,8 4,11 2,1 3,2 5,3 2,1 4,1 6,1l31 0zm51 1l46 0 0 -16c0,-4 -1,-8 -4,-11 -3,-3 -7,-4 -11,-4l-16 0c-4,0 -8,1 -11,4 -1,2 -2,3 -3,5 -1,2 -1,4 -1,6l0 16zm0 15l0 15c0,4 2,8 4,11 2,1 4,2 5,3 3,1 5,1 6,1l38 0c3,0 4,1 6,3 1,1 2,3 2,5 0,1 -1,3 -2,5 -1,1 -3,2 -6,2l-38 0c-8,0 -15,-3 -21,-9 -6,-5 -9,-13 -9,-21l0 -46c0,-8 3,-15 9,-21 6,-6 13,-9 21,-9l16 0c8,0 15,3 21,9 6,5 9,13 9,21l0 23c0,5 -2,8 -8,8l-53 0zm143 -16l0 -38c0,-2 1,-4 3,-5 1,-2 3,-2 5,-2 2,0 4,0 5,2 2,1 2,3 2,5l0 92c0,2 0,4 -2,5 -1,2 -3,2 -5,2 -2,0 -4,0 -5,-2 -2,-1 -3,-3 -3,-5l0 -39 -46 0 0 39c0,2 0,4 -2,5 -1,2 -3,2 -5,2 -2,0 -4,0 -5,-2 -2,-1 -3,-3 -3,-5l0 -92c0,-2 1,-4 3,-5 1,-2 3,-2 5,-2 2,0 4,0 5,2 2,1 2,3 2,5l0 38 46 0zm113 54c0,5 -3,7 -8,7l-38 0c-8,0 -15,-3 -21,-9 -6,-5 -9,-13 -9,-21l0 -69c0,-2 0,-4 2,-5 2,-2 3,-2 5,-2 2,0 4,0 6,2 1,1 2,3 2,5l0 69c0,4 1,8 4,11 2,1 3,2 5,3 2,1 4,1 6,1l31 0 0 -84c0,-2 0,-4 2,-5 2,-2 3,-2 5,-2 2,0 4,0 6,2 1,1 2,3 2,5l0 92zm97 0c0,5 -2,7 -7,7l-38 0c-9,0 -16,-3 -22,-9 -6,-5 -9,-13 -9,-21l0 -69c0,-2 1,-4 2,-5 2,-2 4,-2 6,-2 2,0 3,0 5,2 2,1 2,3 2,5l0 69c0,4 2,8 5,11 1,1 3,2 5,3 2,1 4,1 6,1l30 0 0 -84c0,-2 1,-4 2,-5 2,-2 4,-2 6,-2 2,0 3,0 5,2 2,1 2,3 2,5l0 92zm183 -23l0 -46c0,-4 -1,-8 -4,-11 -3,-3 -7,-4 -11,-4l-16 0c-4,0 -8,1 -10,4 -2,2 -3,3 -4,5 0,2 -1,4 -1,6l0 46c0,4 2,8 5,11 1,1 3,2 4,3 3,1 5,1 6,1l16 0c4,0 8,-1 11,-4 3,-3 4,-7 4,-11zm-46 -71l6 -4 9 -6c3,-3 5,-4 7,-6 2,-2 3,-5 3,-7 0,-4 -2,-7 -4,-9 -3,-2 -5,-3 -9,-3 -3,0 -6,1 -8,3 -3,2 -4,5 -4,9l0 23zm31 -5c9,0 17,3 23,9 5,5 7,13 7,21l0 46c0,8 -3,15 -9,21 -6,6 -13,9 -21,9l-16 0c-8,0 -15,-3 -21,-8 -6,-6 -9,-14 -9,-22l0 -94c0,-9 3,-16 8,-21 6,-5 12,-7 19,-7 8,0 14,2 19,7 6,5 9,12 9,20 0,5 -1,9 -2,11 -2,3 -4,6 -7,8zm143 99c0,2 -1,4 -2,5 -2,2 -4,2 -6,2 -2,0 -4,0 -5,-2 -2,-1 -2,-3 -2,-5l0 -92c0,-2 0,-4 2,-5 1,-2 3,-2 5,-2 2,0 4,0 5,2 2,1 3,3 3,5l0 92zm-76 -39l0 31 15 0c4,0 8,-1 11,-5 3,-3 4,-6 4,-10 0,-5 -1,-8 -4,-11 -1,-1 -2,-2 -4,-3 -2,-1 -5,-2 -7,-2l-15 0zm0 -15l15 0c9,0 17,3 23,10 5,6 7,13 7,21 0,8 -2,15 -7,21 -6,6 -14,9 -23,9l-23 0c-5,0 -8,-2 -8,-7l0 -92c0,-2 1,-4 3,-5 1,-2 3,-2 5,-2 2,0 4,0 5,2 2,1 3,3 3,5l0 38zm158 31l0 -46c0,-4 -1,-8 -4,-11 -3,-3 -7,-4 -11,-4l-16 0c-4,0 -8,1 -10,4 -2,2 -3,3 -4,5 0,2 -1,4 -1,6l0 46c0,4 2,8 5,11 1,1 3,2 4,3 3,1 5,1 6,1l16 0c4,0 8,-1 11,-4 3,-3 4,-7 4,-11zm-25 -76l-34 -33c-2,-2 -2,-4 -2,-6 0,-2 0,-3 2,-5 1,-1 3,-2 6,-2l61 0c2,0 3,1 5,2 1,2 2,4 2,6 0,1 0,3 -2,5 -1,1 -3,2 -5,2l-42 0 40 39 2 2c5,6 7,13 7,20l0 46c0,8 -3,15 -9,21 -6,6 -13,9 -21,9l-16 0c-8,0 -15,-3 -21,-9 -6,-5 -9,-13 -9,-21l0 -46c0,-8 3,-15 9,-21 6,-6 13,-9 21,-9l6 0zm138 73c0,9 -4,17 -10,23 -7,7 -15,10 -24,10l-9 0c-9,0 -17,-3 -24,-9 -6,-7 -10,-15 -10,-24l0 -40c0,-9 4,-17 10,-23 7,-7 15,-10 24,-10l9 0c9,0 17,3 24,9 6,7 10,15 10,24l0 40zm-16 0l0 -40c0,-5 -1,-9 -5,-13 -3,-3 -8,-5 -13,-5l-9 0c-5,0 -9,2 -13,5 -4,4 -5,8 -5,13l0 40c0,5 1,9 5,13 3,3 8,5 13,5l9 0c5,0 9,-2 13,-5 4,-4 5,-8 5,-13zm52 18l31 0c4,0 7,-1 10,-4 3,-3 5,-7 5,-11l0 -46c0,-4 -2,-8 -4,-11 -3,-3 -7,-4 -11,-4l-31 0 0 76zm0 15l0 38c0,2 -1,4 -2,6 -2,1 -4,2 -6,2 -1,0 -3,-1 -5,-2 -1,-1 -2,-3 -2,-6l0 -137c0,-5 2,-7 7,-7l38 0c9,0 16,3 22,9 6,5 9,13 9,21l0 46c0,8 -3,15 -9,21 -6,6 -13,9 -22,9l-30 0zm158 -33c0,9 -3,17 -9,23 -7,7 -15,10 -24,10l-9 0c-9,0 -17,-3 -24,-9 -6,-7 -10,-15 -10,-24l0 -40c0,-9 3,-17 10,-23 7,-7 14,-10 24,-10l9 0c9,0 17,3 23,9 7,7 10,15 10,24l0 40zm-15 0l0 -40c0,-5 -2,-9 -5,-13 -4,-3 -8,-5 -13,-5l-9 0c-5,0 -10,2 -13,5 -4,4 -6,8 -6,13l0 40c0,5 2,9 6,13 3,3 8,5 13,5l9 0c5,0 9,-2 13,-5 3,-4 5,-8 5,-13zm98 3l0 -46c0,-4 -2,-8 -5,-11 -3,-3 -6,-4 -11,-4l-15 0c-4,0 -8,1 -11,4 -1,2 -2,3 -3,5 -1,2 -1,4 -1,6l0 46c0,4 1,8 4,11 2,1 3,2 5,3 2,1 4,1 6,1l15 0c5,0 8,-1 11,-4 3,-3 5,-7 5,-11zm-46 -71l6 -4 9 -6c3,-3 5,-4 6,-6 2,-2 3,-5 3,-7 0,-4 -1,-7 -3,-9 -3,-2 -6,-3 -9,-3 -3,0 -6,1 -9,3 -2,2 -3,5 -3,9l0 23zm30 -5c10,0 18,3 23,9 5,5 8,13 8,21l0 46c0,8 -3,15 -9,21 -6,6 -13,9 -22,9l-15 0c-8,0 -15,-3 -21,-8 -6,-6 -9,-14 -9,-22l0 -94c0,-9 2,-16 8,-21 5,-5 12,-7 19,-7 7,0 13,2 19,7 6,5 8,12 8,20 0,5 0,9 -2,11 -1,3 -3,6 -7,8z"/>
   <path class="fil4 str0" d="M3689 4503l46 0c4,0 7,-2 11,-5 2,-3 4,-6 4,-11l0 -30c0,-5 -1,-8 -4,-11 -3,-3 -7,-4 -11,-4l-46 0 0 61zm0 15l0 53c0,2 -1,4 -2,6 -2,1 -3,2 -6,2 -2,0 -3,-1 -5,-2 -1,-1 -2,-3 -2,-6l0 -137c0,-5 2,-8 7,-8l54 0c8,0 15,3 21,9 6,6 9,13 9,22l0 30c0,9 -3,16 -9,22 -6,6 -13,9 -21,9l-46 0zm113 0l45 0 0 -15c0,-5 -1,-8 -4,-11 -3,-3 -6,-5 -11,-5l-15 0c-4,0 -8,2 -11,5 -2,1 -3,3 -3,5 -1,1 -1,3 -1,6l0 15zm0 15l0 15c0,5 1,8 4,11 1,1 3,3 5,3 2,1 4,2 6,2l38 0c2,0 4,0 5,2 2,1 3,3 3,5 0,2 -1,4 -2,5 -2,2 -4,3 -6,3l-38 0c-8,0 -16,-3 -22,-9 -6,-6 -9,-13 -9,-22l0 -46c0,-8 3,-15 9,-21 6,-6 13,-9 22,-9l15 0c8,0 16,3 22,9 6,6 9,13 9,22l0 22c0,5 -3,8 -8,8l-53 0zm143 31l30 0 0 -84c0,-2 1,-4 2,-6 2,-1 4,-2 6,-2 2,0 3,1 5,2 2,1 2,3 2,6l0 91c0,5 -2,8 -7,8l-69 0c-8,0 -15,-3 -21,-9 -6,-6 -9,-13 -9,-22l0 -68c0,-2 1,-4 2,-6 2,-1 3,-2 5,-2 2,0 4,1 6,2 1,1 2,3 2,6l0 68c0,5 1,8 4,11 2,1 3,3 5,3 2,1 4,2 6,2l15 0 0 -84c0,-2 1,-4 3,-6 1,-1 3,-2 5,-2 2,0 4,1 5,2 2,1 3,3 3,6l0 84zm82 -46l46 0 0 -15c0,-5 -2,-8 -5,-11 -3,-3 -6,-5 -11,-5l-15 0c-4,0 -8,2 -11,5 -1,1 -2,3 -3,5 -1,1 -1,3 -1,6l0 15zm0 15l0 15c0,5 1,8 4,11 2,1 3,3 5,3 2,1 4,2 6,2l38 0c2,0 4,0 6,2 1,1 2,3 2,5 0,2 -1,4 -2,5 -1,2 -3,3 -6,3l-38 0c-8,0 -15,-3 -21,-9 -6,-6 -9,-13 -9,-22l0 -46c0,-8 3,-15 8,-21 6,-6 14,-9 22,-9l15 0c9,0 16,3 22,9 6,6 9,13 9,22l0 22c0,5 -3,8 -8,8l-53 0zm143 -15l0 -38c0,-2 1,-4 2,-6 2,-1 4,-2 6,-2 2,0 3,1 5,2 1,1 2,3 2,6l0 91c0,2 -1,4 -2,6 -1,1 -3,2 -5,2 -2,0 -4,-1 -6,-2 -1,-2 -2,-3 -2,-6l0 -38 -46 0 0 38c0,2 -1,4 -2,6 -1,1 -3,2 -5,2 -2,0 -4,-1 -6,-2 -1,-2 -2,-3 -2,-6l0 -91c0,-2 1,-4 2,-6 2,-1 4,-2 6,-2 2,0 3,1 5,2 1,1 2,3 2,6l0 38 46 0zm113 53c0,5 -3,8 -8,8l-38 0c-8,0 -15,-3 -21,-9 -7,-6 -10,-13 -10,-22l0 -68c0,-2 1,-4 3,-6 1,-1 3,-2 5,-2 2,0 4,1 5,2 2,1 3,3 3,6l0 68c0,5 1,8 4,11 1,1 3,3 5,3 2,1 4,2 6,2l30 0 0 -84c0,-2 1,-4 3,-6 1,-1 3,-2 5,-2 2,0 4,1 5,2 2,1 3,3 3,6l0 91zm36 -53l46 0 0 -15c0,-5 -2,-8 -4,-11 -3,-3 -7,-5 -11,-5l-16 0c-4,0 -8,2 -11,5 -1,1 -2,3 -3,5 -1,1 -1,3 -1,6l0 15zm0 15l0 15c0,5 1,8 4,11 2,1 4,3 5,3 2,1 4,2 6,2l38 0c2,0 4,0 6,2 1,1 2,3 2,5 0,2 -1,4 -2,5 -1,2 -3,3 -6,3l-38 0c-8,0 -15,-3 -21,-9 -6,-6 -9,-13 -9,-22l0 -46c0,-8 3,-15 9,-21 6,-6 13,-9 21,-9l16 0c8,0 15,3 21,9 6,6 9,13 9,22l0 22c0,5 -3,8 -8,8l-53 0zm213 -4l-17 18 0 24c0,2 0,4 -2,6 -1,1 -3,2 -5,2 -2,0 -4,-1 -6,-2 -1,-1 -2,-3 -2,-6l0 -91c0,-2 1,-4 2,-6 2,-1 4,-2 6,-2 2,0 3,1 5,2 2,1 2,3 2,6l0 45 49 -51c1,-1 3,-2 4,-2 2,0 4,1 6,2 1,2 2,4 2,6 0,2 -1,4 -2,6l-31 32 31 48c2,2 2,4 2,5 0,2 -1,4 -2,6 -2,1 -4,2 -6,2 -2,0 -4,-1 -5,-3l-31 -47zm136 16c0,9 -4,17 -10,24 -7,6 -15,10 -24,10l-9 0c-9,0 -17,-4 -24,-10 -6,-6 -10,-14 -10,-24l0 -39c0,-9 4,-17 10,-24 7,-7 15,-10 24,-10l9 0c9,0 17,3 24,10 6,6 10,14 10,24l0 39zm-16 0l0 -39c0,-6 -1,-10 -5,-13 -3,-4 -8,-6 -13,-6l-9 0c-5,0 -9,2 -13,6 -4,3 -5,7 -5,13l0 39c0,5 1,10 5,13 3,4 8,6 13,6l9 0c5,0 9,-2 13,-6 4,-3 5,-8 5,-13zm128 26l0 -91c0,-3 -1,-5 -2,-7 -1,-1 -3,-2 -5,-2 -2,0 -4,1 -7,4l-32 45 -31 -45c-2,-3 -5,-4 -7,-4 -2,0 -4,1 -5,2 -2,2 -2,4 -2,7l0 91c0,2 0,4 2,6 1,1 3,2 5,2 2,0 4,-1 5,-2 2,-2 3,-4 3,-6l0 -68 24 34c2,3 4,4 6,4 2,0 4,-1 7,-4l24 -34 0 68c0,2 1,4 2,6 1,1 3,2 5,2 2,0 4,-1 6,-2 1,-2 2,-4 2,-6zm98 0c0,5 -3,8 -8,8l-38 0c-8,0 -15,-3 -22,-9 -6,-6 -9,-13 -9,-22l0 -68c0,-2 1,-4 3,-6 1,-1 3,-2 5,-2 2,0 4,1 5,2 2,1 3,3 3,6l0 68c0,5 1,8 4,11 1,1 3,3 5,3 2,1 4,2 6,2l30 0 0 -84c0,-2 1,-4 3,-6 1,-1 3,-2 5,-2 2,0 4,1 5,2 2,1 3,3 3,6l0 91zm74 8l-23 0c-8,0 -15,-3 -21,-9 -6,-6 -9,-13 -9,-22l0 -46c0,-8 3,-15 9,-21 6,-6 13,-9 21,-9l23 0c2,0 4,1 6,2 1,2 2,4 2,6 0,1 -1,3 -2,5 -1,1 -3,2 -6,2l-23 0c-4,0 -8,2 -11,5 -1,1 -2,3 -3,4 -1,2 -1,4 -1,6l0 46c0,5 1,8 4,11 2,1 3,3 5,3 2,1 4,2 6,2l23 0c2,0 4,0 6,2 1,1 2,3 2,5 0,2 -1,4 -2,5 -1,2 -3,3 -6,3zm82 0l-23 0c-8,0 -15,-3 -21,-9 -6,-6 -9,-13 -9,-22l0 -46c0,-8 3,-15 9,-21 6,-6 13,-9 21,-9l23 0c2,0 4,1 6,2 1,2 2,4 2,6 0,1 -1,3 -2,5 -1,1 -3,2 -6,2l-23 0c-4,0 -8,2 -11,5 -1,1 -2,3 -3,4 -1,2 -1,4 -1,6l0 46c0,5 2,8 4,11 2,1 4,3 5,3 3,1 5,2 6,2l23 0c2,0 4,0 6,2 1,1 2,3 2,5 0,2 -1,4 -2,5 -1,2 -3,3 -6,3zm105 -8c0,5 -2,8 -7,8l-38 0c-9,0 -16,-3 -22,-9 -6,-6 -9,-13 -9,-22l0 -68c0,-2 1,-4 2,-6 2,-1 4,-2 6,-2 2,0 3,1 5,2 2,1 2,3 2,6l0 68c0,5 2,8 5,11 1,1 3,3 5,3 2,1 4,2 6,2l30 0 0 -84c0,-2 1,-4 2,-6 2,-1 4,-2 6,-2 2,0 3,1 5,2 2,1 2,3 2,6l0 91zm75 -129l-31 0c-2,0 -4,-1 -5,-3 -2,-1 -2,-3 -2,-5 0,-2 0,-3 2,-5 1,-2 3,-3 5,-3l31 0c2,0 4,1 5,3 2,1 2,3 2,5 0,2 0,3 -1,5 -2,2 -4,3 -6,3zm23 129c0,5 -3,8 -8,8l-38 0c-8,0 -15,-3 -21,-9 -6,-6 -9,-13 -9,-22l0 -68c0,-2 0,-4 2,-6 1,-1 3,-2 5,-2 2,0 4,1 5,2 2,1 3,3 3,6l0 68c0,5 1,8 4,11 2,1 3,3 5,3 2,1 4,2 6,2l31 0 0 -84c0,-2 0,-4 2,-6 1,-1 3,-2 5,-2 2,0 4,1 5,2 2,1 3,3 3,6l0 91z"/>
   <path class="fil4 str0" d="M6854 2443l-23 0c-8,0 -15,-3 -21,-9 -6,-6 -9,-13 -9,-22l0 -45c0,-9 3,-16 9,-22 6,-6 13,-9 21,-9l23 0c2,0 4,1 5,3 2,1 3,3 3,5 0,2 -1,3 -2,5 -2,2 -3,2 -6,2l-23 0c-4,0 -8,2 -11,5 -1,1 -2,3 -3,5 -1,2 -1,4 -1,6l0 45c0,5 1,8 4,11 2,2 3,3 5,4 2,0 4,1 6,1l23 0c2,0 4,1 5,2 2,2 3,3 3,5 0,2 -1,4 -2,5 -2,2 -3,3 -6,3zm190 0l-30 0c-8,0 -15,-3 -22,-9 -6,-6 -9,-13 -9,-22l0 -68c0,-2 1,-4 3,-6 1,-1 3,-2 5,-2 2,0 4,1 5,2 2,1 2,3 2,6l0 69c0,4 2,7 5,10 1,2 3,3 5,4 2,0 4,1 6,1l30 0 0 -84c0,-2 1,-4 3,-6 1,-1 3,-2 5,-2 2,0 4,1 5,2 2,1 2,3 2,6l0 114c0,8 -2,15 -8,22 -6,6 -13,9 -22,9l-30 0c-2,0 -4,-1 -6,-3 -1,-1 -2,-3 -2,-5 0,-2 1,-4 2,-5 1,-2 3,-3 6,-3l30 0c4,0 8,-1 11,-4 3,-3 4,-6 4,-11l0 -15zm67 -50l-17 18 0 24c0,3 0,5 -2,6 -1,1 -3,2 -5,2 -2,0 -4,-1 -6,-2 -1,-1 -2,-3 -2,-6l0 -91c0,-2 1,-4 2,-6 2,-1 4,-2 6,-2 2,0 3,1 5,2 2,2 2,3 2,6l0 45 49 -51c1,-1 3,-2 5,-2 1,0 3,1 5,2 1,2 2,4 2,6 0,2 -1,4 -2,6l-31 32 31 48c2,2 2,4 2,6 0,2 -1,3 -2,5 -2,1 -4,2 -6,2 -2,0 -3,-1 -5,-3l-31 -47zm120 19l0 -61 -30 0c-4,0 -8,2 -11,5 -2,1 -3,3 -3,5 -1,2 -1,4 -1,6l0 45c0,5 1,8 4,11 1,2 3,3 5,4 2,0 4,1 6,1l15 0c4,0 8,-2 11,-4 3,-3 4,-7 4,-12zm8 21c-3,3 -6,5 -10,7 -4,2 -9,3 -13,3l-15 0c-8,0 -15,-3 -21,-9 -7,-6 -10,-13 -10,-22l0 -45c0,-9 3,-16 9,-22 6,-6 13,-9 22,-9l38 0c5,0 8,3 8,8l0 68c0,3 1,6 2,10 2,2 5,5 8,6 3,2 5,4 5,7 0,2 -1,4 -2,6 -2,1 -3,2 -6,2 -1,0 -2,0 -3,-1 -5,-2 -9,-5 -12,-9zm69 -36l-10 0c-2,0 -4,-1 -5,-2 -2,-2 -2,-3 -2,-6 0,-1 0,-3 2,-5 1,-1 3,-2 5,-2l8 0c5,0 8,-2 11,-5 3,-3 4,-6 4,-10 0,-5 -1,-8 -3,-11 -2,-1 -3,-2 -5,-3 -2,-1 -4,-2 -7,-2l-8 0c-7,0 -13,2 -18,7 -1,1 -3,1 -5,1 -1,0 -3,0 -5,-2 -1,-2 -2,-3 -2,-6 0,-2 1,-4 3,-6 8,-6 17,-9 27,-9l8 0c10,0 17,3 23,10 5,5 7,12 7,21 0,2 0,4 0,6 -1,2 -1,4 -2,6 -1,4 -4,7 -7,11 3,2 5,6 7,10l2 6c0,2 0,4 0,7 0,8 -2,15 -7,20 -6,7 -13,10 -23,10l-8 0c-10,0 -19,-3 -27,-9 -2,-2 -3,-4 -3,-6 0,-2 1,-4 2,-6 2,-1 3,-2 5,-2 2,0 3,0 5,2 5,4 11,6 18,6l8 0c5,0 8,-2 11,-5 3,-3 4,-7 4,-11 0,-4 -1,-7 -3,-10 -2,-2 -6,-4 -10,-5zm111 15l0 -61 -31 0c-4,0 -8,2 -11,5 -1,1 -2,3 -3,5 -1,2 -1,4 -1,6l0 45c0,5 1,8 4,11 2,2 3,3 5,4 2,0 4,1 6,1l15 0c5,0 8,-2 11,-4 3,-3 5,-7 5,-12zm7 21c-2,3 -6,5 -10,7 -4,2 -8,3 -13,3l-15 0c-8,0 -15,-3 -21,-9 -6,-6 -9,-13 -9,-22l0 -45c0,-9 3,-16 9,-22 5,-6 13,-9 21,-9l38 0c5,0 8,3 8,8l0 68c0,3 1,6 3,10 1,2 4,5 7,6 3,2 5,4 5,7 0,2 -1,4 -2,6 -1,1 -3,2 -6,2 -1,0 -2,0 -3,-1 -5,-2 -9,-5 -12,-9zm90 -51l0 -38c0,-2 1,-4 2,-6 2,-1 4,-2 6,-2 2,0 3,1 5,2 1,1 2,3 2,6l0 91c0,3 -1,5 -2,6 -1,1 -3,2 -5,2 -2,0 -4,-1 -6,-2 -1,-1 -2,-3 -2,-6l0 -38 -46 0 0 38c0,3 -1,5 -2,6 -1,1 -3,2 -5,2 -2,0 -4,-1 -6,-2 -1,-1 -2,-3 -2,-6l0 -91c0,-2 1,-4 2,-6 2,-1 4,-2 6,-2 2,0 3,1 5,2 1,1 2,3 2,6l0 38 46 0zm113 53c0,5 -3,8 -8,8l-38 0c-8,0 -15,-3 -22,-9 -6,-6 -9,-13 -9,-22l0 -68c0,-2 1,-4 3,-6 1,-1 3,-2 5,-2 2,0 4,1 5,2 2,1 3,3 3,6l0 69c0,4 1,7 4,10 1,2 3,3 5,4 2,0 4,1 6,1l30 0 0 -84c0,-2 1,-4 3,-6 1,-1 3,-2 5,-2 2,0 4,1 5,2 2,1 3,3 3,6l0 91zm36 -53l46 0 0 -15c0,-5 -2,-8 -4,-11 -3,-3 -7,-5 -11,-5l-16 0c-4,0 -8,2 -11,5 -1,1 -2,3 -3,5 -1,2 -1,4 -1,6l0 15zm0 15l0 16c0,4 1,7 4,10 2,2 3,3 5,4 2,0 4,1 6,1l38 0c2,0 4,1 6,2 1,2 2,3 2,5 0,2 -1,4 -2,5 -1,2 -3,3 -6,3l-38 0c-8,0 -15,-3 -21,-9 -6,-6 -9,-13 -9,-22l0 -45c0,-8 3,-16 9,-22 6,-6 13,-9 21,-9l15 0c9,0 16,3 22,9 6,6 9,13 9,22l0 23c0,5 -3,7 -8,7l-53 0zm173 38l0 -91c0,-3 0,-5 -1,-7 -2,-1 -3,-2 -5,-2 -2,0 -5,2 -7,5l-32 44 -32 -44c-2,-3 -4,-5 -7,-5 -2,0 -3,1 -5,3 -1,1 -2,3 -2,6l0 91c0,3 1,5 2,6 2,1 4,2 6,2 2,0 3,-1 5,-2 2,-1 2,-3 2,-6l0 -67 25 34c2,2 4,4 6,4 2,0 4,-2 6,-4l24 -34 0 67c0,3 1,5 3,6 1,1 3,2 5,2 2,0 3,-1 5,-2 2,-1 2,-3 2,-6zm-879 195c0,5 -3,8 -8,8l-38 0c-8,0 -15,-3 -21,-9 -6,-6 -9,-13 -9,-22l0 -68c0,-2 1,-4 2,-6 2,-1 3,-2 5,-2 2,0 4,1 6,2 1,1 2,3 2,6l0 68c0,5 1,8 4,11 2,2 3,3 5,4 2,0 4,1 6,1l31 0 0 -84c0,-2 1,-4 2,-6 2,-1 3,-2 5,-2 2,0 4,1 6,2 1,1 2,3 2,6l0 91zm69 -45l27 41 2 2 0 2c0,2 -1,4 -3,6l-1 1 -2 0 -2 1c-3,0 -5,-1 -7,-4l-24 -36 -24 36c-1,3 -3,4 -6,4 -2,0 -3,-1 -5,-2 -2,-2 -3,-4 -3,-6 0,-1 1,-3 2,-4l27 -42 -28 -41 -1 -2 0 -2c0,-2 1,-4 3,-6 1,-1 3,-2 5,-2 2,0 4,1 6,4l24 36 24 -36c2,-3 4,-4 7,-4 1,0 3,1 5,2 2,2 3,4 3,6 0,1 -1,3 -2,4l-27 42zm222 46c-4,2 -9,4 -15,5l-8 2 -9 0 -11 0 -9 -2c-6,-1 -10,-3 -14,-8 -3,-4 -5,-9 -5,-15 0,-3 0,-6 2,-9 1,-3 3,-6 6,-9l49 -33c1,-1 2,-3 2,-5 0,-3 -2,-6 -8,-7 -5,-2 -11,-3 -17,-3 -5,0 -9,0 -13,1 -4,1 -7,2 -10,5 -1,0 -3,1 -4,1 -2,0 -4,-1 -6,-2 -1,-2 -2,-4 -2,-6 0,-2 1,-4 3,-6 3,-2 8,-4 14,-6 3,0 7,-1 10,-1 3,-1 6,-1 10,-1 2,0 4,0 5,0 2,0 4,0 7,1 2,0 5,1 8,2 5,1 10,4 14,8 3,4 5,9 5,14 0,6 -3,12 -9,17l-49 33c-1,2 -2,4 -2,6 0,2 0,4 2,6 1,1 2,2 5,3l8 0 9 1c6,0 10,0 14,-1 1,-1 3,-1 5,-2 2,-1 4,-1 6,-3l1 0c1,0 2,-1 3,-1 2,0 4,1 5,3 2,1 2,3 2,5 0,3 -1,5 -4,7zm41 -8l30 0c4,0 8,-2 11,-5 3,-2 4,-6 4,-11l0 -45c0,-5 -1,-8 -4,-11 -3,-3 -6,-5 -11,-5l-30 0 0 77zm0 15l0 38c0,2 -1,4 -3,5 -1,2 -3,2 -5,2 -2,0 -3,0 -5,-1 -2,-2 -3,-4 -3,-6l0 -137c0,-5 3,-8 8,-8l38 0c8,0 16,3 22,9 6,6 9,13 9,22l0 45c0,9 -3,16 -9,22 -6,6 -13,9 -22,9l-30 0zm143 -31l0 -61 -31 0c-4,0 -8,2 -11,5 -1,1 -2,3 -3,5 -1,1 -1,3 -1,6l0 45c0,5 1,8 4,11 2,2 4,3 5,4 2,0 4,1 6,1l16 0c4,0 7,-2 10,-5 3,-2 5,-6 5,-11zm7 21c-2,3 -5,5 -10,7 -4,2 -8,3 -12,3l-16 0c-8,0 -15,-3 -21,-9 -6,-6 -9,-13 -9,-22l0 -45c0,-9 3,-16 9,-22 6,-6 13,-9 21,-9l38 0c5,0 8,3 8,8l0 68c0,3 1,6 3,10 2,2 4,5 8,6 3,1 4,4 4,7 0,2 0,4 -2,6 -1,1 -3,2 -5,2 -1,0 -2,0 -3,-1 -5,-2 -9,-5 -13,-9zm90 -51l0 -38c0,-2 1,-4 3,-6 1,-1 3,-2 5,-2 2,0 4,1 5,2 2,1 2,3 2,6l0 91c0,3 0,4 -2,6 -1,1 -3,2 -5,2 -2,0 -4,-1 -5,-2 -2,-1 -3,-3 -3,-6l0 -38 -46 0 0 38c0,3 0,4 -2,6 -1,1 -3,2 -5,2 -2,0 -4,-1 -5,-2 -2,-1 -3,-3 -3,-6l0 -91c0,-2 1,-4 3,-6 1,-1 3,-2 5,-2 2,0 4,1 5,2 2,1 2,3 2,6l0 38 46 0zm113 53c0,5 -3,8 -8,8l-38 0c-8,0 -15,-3 -21,-9 -6,-6 -9,-13 -9,-22l0 -68c0,-2 0,-4 2,-6 1,-1 3,-2 5,-2 2,0 4,1 5,2 2,1 3,3 3,6l0 68c0,5 1,8 4,11 2,2 3,3 5,4 2,0 4,1 6,1l31 0 0 -84c0,-2 0,-4 2,-6 1,-1 3,-2 5,-2 2,0 4,1 5,2 2,1 3,3 3,6l0 91zm82 -7l0 -84c0,-2 1,-4 2,-6 2,-1 4,-2 6,-2 2,0 3,1 5,2 1,1 2,3 2,6l0 84 8 0c5,0 7,2 7,7l0 14c0,2 0,4 -2,5 -2,2 -3,3 -5,3 -2,0 -4,-1 -5,-2 -2,-2 -3,-4 -3,-6l0 -6 -45 0c-9,0 -16,-3 -22,-9 -6,-6 -9,-13 -9,-22l0 -68c0,-2 1,-4 2,-6 2,-1 4,-2 6,-2 2,0 3,1 5,2 1,1 2,3 2,6l0 68c0,5 2,8 5,11 1,2 3,3 4,4 3,0 5,1 7,1l30 0zm-785 202c0,5 -3,8 -8,8l-38 0c-8,0 -15,-3 -21,-9 -6,-6 -9,-13 -9,-22l0 -68c0,-2 0,-4 2,-6 1,-1 3,-2 5,-2 2,0 4,1 5,2 2,1 3,3 3,6l0 68c0,5 1,8 4,11 2,2 3,3 5,3 2,1 4,2 6,2l31 0 0 -84c0,-2 0,-4 2,-6 1,-1 3,-2 5,-2 2,0 4,1 5,2 2,1 3,3 3,6l0 91zm182 -53l0 -38c0,-2 1,-4 3,-6 1,-1 3,-2 5,-2 2,0 4,1 5,2 2,1 3,3 3,6l0 91c0,2 -1,4 -3,6 -1,1 -3,2 -5,2 -2,0 -4,-1 -5,-2 -2,-2 -3,-3 -3,-6l0 -38 -45 0 0 38c0,2 -1,4 -3,6 -1,1 -3,2 -5,2 -2,0 -4,-1 -5,-2 -2,-2 -3,-3 -3,-6l0 -91c0,-2 1,-4 3,-6 1,-1 3,-2 5,-2 2,0 4,1 5,2 2,1 3,3 3,6l0 38 45 0zm113 27c0,9 -3,17 -10,24 -6,6 -14,10 -24,10l-9 0c-9,0 -17,-4 -23,-10 -7,-6 -10,-14 -10,-24l0 -39c0,-9 3,-17 10,-24 6,-7 14,-10 23,-10l9 0c10,0 17,3 24,10 7,6 10,14 10,24l0 39zm-15 0l0 -39c0,-5 -2,-10 -5,-13 -4,-4 -8,-6 -14,-6l-9 0c-5,0 -9,2 -13,6 -3,3 -5,7 -5,13l0 39c0,5 2,10 5,13 4,4 8,6 13,6l9 0c5,0 10,-2 13,-6 4,-3 6,-8 6,-13zm128 26l0 -91c0,-3 -1,-5 -2,-7 -2,-1 -3,-2 -5,-2 -2,0 -5,1 -7,4l-32 45 -32 -45c-2,-3 -4,-4 -7,-4 -2,0 -3,1 -5,2 -1,2 -2,4 -2,7l0 91c0,2 1,4 2,6 2,1 4,2 6,2 2,0 3,-1 5,-2 2,-2 2,-4 2,-6l0 -68 25 34c2,3 4,5 6,5 2,0 4,-2 6,-5l24 -34 0 68c0,2 1,4 3,6 1,1 3,2 5,2 2,0 3,-1 5,-2 2,-2 3,-4 3,-6zm36 -53l46 0 0 -15c0,-5 -2,-8 -4,-11 -3,-3 -7,-5 -11,-5l-16 0c-4,0 -8,2 -11,5 -1,1 -2,3 -3,5 -1,1 -1,3 -1,6l0 15zm0 15l0 15c0,5 1,8 4,11 2,2 4,3 5,3 2,1 4,2 6,2l38 0c2,0 4,0 6,2 1,1 2,3 2,5 0,2 -1,4 -2,5 -1,2 -3,3 -6,3l-38 0c-8,0 -15,-3 -21,-9 -6,-6 -9,-13 -9,-22l0 -45c0,-9 3,-16 9,-22 6,-6 13,-9 21,-9l16 0c8,0 15,3 21,9 6,6 9,13 9,22l0 22c0,5 -3,8 -8,8l-53 0zm97 31l31 0c4,0 8,-2 11,-5 3,-3 4,-6 4,-11l0 -46c0,-4 -1,-7 -4,-10 -3,-3 -7,-5 -11,-5l-31 0 0 77zm0 15l0 38c0,2 0,4 -2,5 -1,2 -3,2 -5,2 -2,0 -4,0 -5,-2 -2,-1 -3,-3 -3,-5l0 -137c0,-5 3,-8 8,-8l38 0c8,0 15,3 21,9 6,6 9,13 9,22l0 45c0,9 -3,16 -9,22 -6,6 -13,9 -21,9l-31 0zm159 -34c0,9 -3,17 -10,24 -6,6 -14,10 -24,10l-9 0c-9,0 -17,-4 -23,-10 -7,-6 -10,-14 -10,-24l0 -39c0,-9 3,-17 9,-24 7,-7 15,-10 24,-10l9 0c9,0 17,3 24,10 6,6 10,14 10,24l0 39zm-15 0l0 -39c0,-5 -2,-10 -6,-13 -3,-4 -8,-6 -13,-6l-9 0c-5,0 -9,2 -13,6 -3,3 -5,7 -5,13l0 39c0,5 2,10 5,13 4,4 8,6 13,6l9 0c5,0 10,-2 13,-6 4,-3 6,-8 6,-13zm97 3l0 -45c0,-5 -1,-8 -4,-11 -3,-3 -7,-5 -11,-5l-16 0c-4,0 -7,2 -10,5 -2,1 -3,3 -4,5 0,2 -1,4 -1,6l0 45c0,5 2,8 5,11 1,2 3,3 4,3 3,1 5,2 6,2l16 0c4,0 8,-2 11,-5 3,-3 4,-6 4,-11zm-46 -70l6 -5 10 -6c2,-2 4,-4 6,-6 2,-2 3,-4 3,-7 0,-4 -2,-6 -4,-9 -3,-2 -5,-3 -9,-3 -3,0 -6,1 -8,3 -3,2 -4,5 -4,9l0 24zm31 -5c9,0 17,2 23,8 5,6 7,13 7,22l0 45c0,9 -3,16 -9,22 -6,6 -13,9 -21,9l-15 0c-9,0 -16,-3 -22,-9 -6,-6 -9,-13 -9,-22l0 -94c0,-9 3,-15 8,-21 6,-4 12,-7 20,-7 7,0 13,3 18,8 6,4 9,11 9,20 0,5 -1,8 -2,11 -2,2 -4,5 -7,8zm67 98l0 2 -7 30c-1,4 -4,6 -8,6 -2,0 -4,-1 -5,-2 -2,-1 -2,-3 -2,-5l0 -2 7 -30 0 -7c0,-2 1,-4 3,-5 1,-2 3,-2 5,-2 2,0 4,0 5,2 2,1 2,3 2,5l0 8z"/>
   <path class="fil3" d="M8060 2979l-1481 0 0 1269 1481 0 0 -1269z"/>
   <g>
    <path class="fil4 str0" d="M7211 3186l0 -92c0,-3 0,-5 -2,-6 -1,-2 -2,-3 -4,-3 -3,0 -5,2 -7,5l-32 44 -32 -44c-2,-3 -4,-5 -7,-5 -2,0 -4,1 -5,3 -1,1 -2,4 -2,6l0 92c0,2 1,4 2,5 2,2 3,2 6,2 1,0 3,0 5,-2 1,-1 2,-3 2,-5l0 -68 25 34c2,3 4,4 6,4 2,0 4,-1 6,-4l24 -34 0 68c0,2 1,4 2,5 2,2 4,2 6,2 2,0 3,0 5,-2 2,-1 2,-3 2,-5zm37 -54l46 0 0 -15c0,-4 -2,-8 -5,-11 -2,-3 -6,-4 -11,-4l-15 0c-4,0 -8,1 -11,4 -1,2 -2,3 -3,5 -1,2 -1,4 -1,6l0 15zm0 16l0 15c0,4 1,8 4,11 2,1 3,2 5,3 2,1 4,1 6,1l38 0c2,0 4,1 6,2 1,2 2,4 2,6 0,1 -1,3 -2,5 -1,1 -3,2 -6,2l-38 0c-8,0 -15,-3 -21,-9 -6,-6 -9,-13 -9,-21l0 -46c0,-8 3,-15 9,-21 5,-6 13,-9 21,-9l15 0c9,0 16,3 22,8 6,6 9,14 9,22l0 23c0,5 -3,8 -8,8l-53 0zm135 45l-22 0c-9,0 -16,-3 -22,-9 -6,-5 -9,-13 -9,-21l0 -46c0,-8 3,-16 9,-22 6,-5 13,-8 22,-8l22 0c3,0 4,0 6,2 1,1 2,3 2,5 0,2 -1,4 -2,5 -1,2 -3,3 -6,3l-22 0c-5,0 -8,1 -11,4 -2,2 -3,3 -4,5 0,2 -1,4 -1,6l0 46c0,4 2,8 5,11 1,1 3,2 5,3 2,1 4,1 6,1l22 0c3,0 4,1 6,2 1,2 2,4 2,6 0,1 -1,3 -2,5 -1,1 -3,2 -6,2zm75 -91l-31 0 0 84c0,2 0,4 -2,5 -1,2 -3,2 -5,2 -2,0 -4,0 -5,-2 -2,-1 -3,-3 -3,-5l0 -92c0,-5 3,-7 8,-7l68 0c9,0 16,3 22,8 6,6 9,14 9,22l0 69c0,2 -1,4 -2,5 -2,2 -4,2 -6,2 -2,0 -4,0 -5,-2 -2,-1 -2,-3 -2,-5l0 -69c0,-4 -2,-8 -5,-11 -3,-3 -6,-4 -11,-4l-15 0 0 84c0,2 -1,4 -2,5 -1,2 -3,2 -5,2 -2,0 -4,0 -6,-2 -1,-1 -2,-3 -2,-5l0 -84zm-569 225l0 -38c0,-2 1,-4 2,-6 2,-1 3,-2 5,-2 2,0 4,1 6,2 1,2 2,4 2,6l0 91c0,3 -1,5 -2,6 -1,1 -3,2 -6,2 -2,0 -3,-1 -5,-2 -1,-1 -2,-3 -2,-6l0 -38 -46 0 0 38c0,3 -1,5 -2,6 -1,1 -3,2 -6,2 -2,0 -3,-1 -5,-2 -1,-1 -2,-3 -2,-6l0 -91c0,-2 1,-4 2,-6 2,-1 3,-2 5,-2 2,0 4,1 6,2 1,2 2,4 2,6l0 38 46 0zm97 31l0 -61 -30 0c-5,0 -8,1 -11,4 -2,1 -3,3 -3,5 -1,2 -2,4 -2,6l0 46c0,4 2,8 5,11 1,1 3,2 5,3 2,1 4,1 6,1l15 0c4,0 8,-1 11,-4 3,-3 4,-7 4,-11zm8 20c-3,3 -6,5 -10,7 -5,2 -9,3 -13,3l-15 0c-8,0 -16,-3 -22,-9 -6,-6 -9,-13 -9,-21l0 -46c0,-8 3,-16 9,-22 6,-6 13,-9 22,-9l38 0c5,0 7,3 7,8l0 68c0,3 1,7 3,10 2,3 5,5 8,6 3,2 5,4 5,7 0,3 -1,4 -2,6 -2,1 -4,2 -6,2 -1,0 -2,0 -3,-1 -5,-2 -9,-5 -12,-9zm76 -43l28 41 1 3 0 2c0,2 -1,3 -2,5l-2 1 -1 1 -3 0c-2,0 -4,-1 -6,-3l-24 -36 -24 36c-2,2 -4,3 -6,3 -2,0 -4,-1 -6,-2 -1,-2 -2,-3 -2,-6 0,-1 0,-2 1,-4l28 -41 -28 -42 -1 -2 0 -2c0,-2 0,-4 2,-5 2,-2 3,-3 6,-3 2,0 4,2 6,4l24 36 24 -36c1,-2 4,-4 6,-4 2,0 4,1 6,3 1,1 2,3 2,5 0,1 0,3 -1,4l-28 42zm126 20c0,9 -3,17 -9,23 -7,7 -15,10 -24,10l-9 0c-9,0 -17,-3 -24,-10 -7,-6 -10,-14 -10,-23l0 -40c0,-9 3,-17 10,-23 6,-7 14,-11 24,-11l9 0c9,0 17,4 23,10 7,7 10,15 10,24l0 40zm-15 0l0 -40c0,-5 -2,-9 -5,-13 -4,-4 -8,-5 -13,-5l-9 0c-5,0 -10,1 -13,5 -4,4 -6,8 -6,13l0 40c0,5 2,9 6,13 3,3 7,5 13,5l9 0c5,0 9,-2 13,-5 3,-4 5,-8 5,-13zm99 -28l29 -42c0,-1 1,-2 2,-3l2 -1 2 0c2,0 4,1 5,3 2,1 3,3 3,5 0,1 -1,3 -1,4l-28 42 28 41 0 2 1 2c0,2 -1,4 -3,6 -1,1 -3,2 -5,2 -3,0 -5,-1 -6,-3l-29 -43 -3 0 0 38c0,3 -1,5 -2,6 -2,1 -3,2 -6,2 -2,0 -3,-1 -5,-2 -1,-1 -2,-3 -2,-6l0 -38 -4 0 -28 43c0,1 -1,1 -3,2l-3 1c-2,0 -4,-1 -6,-2 -1,-2 -2,-3 -2,-6 0,-1 0,-2 1,-4l28 -41 -28 -42 -1 -2 0 -2c0,-2 1,-4 2,-5 2,-2 4,-3 6,-3 2,0 4,2 6,4l28 42 4 0 0 -38c0,-2 1,-4 2,-6 2,-1 3,-2 5,-2 2,0 4,1 6,2 1,2 2,4 2,6l0 38 3 0zm126 -30l-30 0c-5,0 -8,1 -11,4 -2,1 -3,3 -3,5 -1,2 -2,4 -2,6l0 46c0,4 2,8 5,11 1,1 3,2 5,3 2,1 4,1 6,1l15 0c4,0 8,-1 11,-4 3,-3 4,-7 4,-11l0 -61zm0 -16l0 -15c0,-4 -1,-8 -4,-11 -3,-3 -7,-4 -11,-4l-30 0c-3,0 -5,-1 -6,-2 -1,-2 -2,-4 -2,-6 0,-1 1,-3 2,-5 1,-1 3,-2 6,-2l30 0c8,0 16,3 22,9 5,6 8,13 8,21l0 92c0,8 -3,15 -8,21 -6,6 -14,9 -22,9l-15 0c-8,0 -16,-3 -22,-9 -6,-6 -9,-13 -9,-21l0 -46c0,-8 3,-16 9,-22 6,-6 13,-9 22,-9l30 0zm52 46l46 0 0 -15c0,-4 -2,-8 -5,-11 -2,-3 -6,-4 -11,-4l-15 0c-4,0 -8,1 -11,4 -1,1 -2,3 -3,5 -1,2 -1,4 -1,6l0 15zm0 15l0 16c0,4 1,8 4,11 2,1 3,2 5,3 2,1 4,1 6,1l38 0c2,0 4,1 6,2 1,2 2,4 2,6 0,1 -1,3 -2,5 -1,1 -3,2 -6,2l-38 0c-8,0 -15,-3 -21,-9 -6,-6 -9,-13 -9,-21l0 -46c0,-8 3,-15 9,-21 5,-6 13,-10 21,-10l15 0c9,0 16,3 22,9 6,6 9,13 9,22l0 23c0,5 -3,7 -8,7l-53 0zm143 -15l0 -38c0,-2 1,-4 2,-6 2,-1 4,-2 6,-2 2,0 3,1 5,2 1,2 2,4 2,6l0 91c0,3 0,5 -2,6 -1,1 -3,2 -5,2 -2,0 -4,-1 -6,-2 -1,-1 -2,-3 -2,-6l0 -38 -46 0 0 38c0,3 0,5 -2,6 -1,1 -3,2 -5,2 -2,0 -4,-1 -6,-2 -1,-1 -2,-3 -2,-6l0 -91c0,-2 1,-4 2,-6 2,-1 4,-2 6,-2 2,0 3,1 5,2 1,2 2,4 2,6l0 38 46 0zm113 53c0,6 -3,8 -8,8l-38 0c-8,0 -15,-3 -21,-9 -6,-6 -9,-13 -9,-21l0 -69c0,-2 0,-4 2,-6 1,-1 3,-2 5,-2 2,0 4,1 5,2 2,2 3,4 3,6l0 69c0,4 1,8 4,11 2,1 3,2 5,3 2,1 4,1 6,1l31 0 0 -84c0,-2 0,-4 2,-6 1,-1 3,-2 5,-2 2,0 4,1 5,2 2,2 3,4 3,6l0 91zm82 -53l0 -30 -31 0c-4,0 -8,1 -11,4 -3,3 -4,7 -4,11 0,4 1,7 4,11 3,3 6,4 11,4l31 0zm-19 15l-28 43c-1,1 -2,1 -3,2l-3 1c-2,0 -4,-1 -6,-2 -1,-2 -2,-3 -2,-6 0,-1 0,-2 1,-4l23 -34c-8,-1 -13,-5 -18,-11 -4,-5 -6,-12 -6,-19 0,-8 2,-15 8,-21 5,-6 13,-10 22,-10l38 0c6,0 8,3 8,8l0 91c0,3 -1,5 -2,6 -1,1 -3,2 -6,2 -2,0 -3,-1 -5,-2 -1,-1 -2,-3 -2,-6l0 -38 -19 0zm-639 180l-45 0c-9,0 -16,-3 -22,-9 -6,-6 -9,-13 -9,-21l0 -54c0,-2 1,-4 3,-5 1,-2 3,-2 5,-2 2,0 4,0 5,2 2,1 2,3 2,5l0 54c0,4 2,8 5,11 1,1 3,2 5,3 2,0 4,1 6,1l45 0 0 -69c0,-2 1,-4 3,-5 1,-2 3,-2 5,-2 2,0 4,0 5,2 2,1 3,3 3,5l0 115c0,8 -3,15 -9,21 -6,6 -13,9 -22,9l-38 0c-2,0 -4,-1 -6,-2 -1,-2 -2,-4 -2,-6 0,-1 1,-3 2,-5 2,-1 4,-2 6,-2l38 0c4,0 8,-2 11,-4 3,-3 4,-7 4,-11l0 -31zm128 53c0,3 -1,5 -2,6 -1,1 -3,2 -5,2 -2,0 -4,-1 -6,-2 -1,-1 -2,-3 -2,-6l0 -107 -62 111c-1,2 -2,3 -3,4l-2 1c0,0 -1,0 -2,0 -2,0 -3,0 -5,-2 -1,-2 -2,-4 -2,-7l0 -137c0,-2 1,-4 2,-5 2,-2 3,-2 5,-2 2,0 4,0 6,2 1,1 2,3 2,5l0 108 62 -111c1,-1 2,-3 3,-4 1,-1 3,-1 4,-1 2,0 3,0 5,2 1,2 2,4 2,6l0 137zm37 -79l64 -63c1,-2 3,-2 5,-2 2,0 4,0 5,2 2,2 3,3 3,6 0,1 -1,3 -3,5l-45 45 47 83 1 4c0,2 -1,3 -3,5 -1,1 -3,2 -5,2 -3,0 -5,-1 -7,-4l-44 -79 -18 17 0 58c0,3 -1,5 -3,6 -1,1 -3,2 -5,2 -2,0 -4,-1 -5,-2 -2,-1 -3,-3 -3,-6l0 -137c0,-2 1,-4 3,-5 1,-2 3,-2 5,-2 2,0 4,0 5,1 2,2 3,4 3,6l0 58zm274 79c0,5 -3,8 -8,8l-38 0c-8,0 -15,-3 -21,-9 -6,-6 -9,-13 -9,-21l0 -69c0,-2 0,-4 2,-6 1,-1 3,-2 5,-2 2,0 4,1 5,2 2,2 3,3 3,6l0 69c0,4 1,8 4,11 2,1 3,2 5,3 2,0 4,1 6,1l31 0 0 -84c0,-2 0,-4 2,-6 1,-1 3,-2 5,-2 2,0 4,1 5,2 2,2 3,3 3,6l0 91zm-632 195c0,3 -1,5 -2,6 -1,1 -3,2 -5,2 -2,0 -4,-1 -6,-2 -1,-1 -2,-3 -2,-6l0 -68c0,-5 -1,-8 -4,-11 -3,-3 -7,-5 -11,-5l-31 0 0 84c0,3 -1,5 -2,6 -1,1 -3,2 -5,2 -2,0 -4,-1 -6,-2 -1,-1 -2,-3 -2,-6l0 -91c0,-5 2,-8 8,-8l38 0c8,0 15,3 21,9 6,6 9,13 9,22l0 68zm98 -26c0,9 -4,17 -10,24 -7,7 -15,10 -24,10l-9 0c-9,0 -17,-3 -24,-10 -6,-6 -10,-14 -10,-24l0 -39c0,-9 4,-17 10,-24 7,-6 15,-10 24,-10l9 0c9,0 17,3 24,10 6,6 10,14 10,24l0 39zm-16 0l0 -39c0,-5 -1,-10 -5,-13 -3,-4 -8,-6 -13,-6l-9 0c-5,0 -9,2 -13,6 -4,3 -5,8 -5,13l0 39c0,5 1,10 5,13 3,4 8,6 13,6l9 0c5,0 9,-2 13,-5 4,-4 5,-8 5,-14zm128 26l0 -91c0,-3 -1,-5 -2,-7 -1,-1 -3,-2 -5,-2 -2,0 -4,2 -7,4l-32 45 -31 -45c-2,-2 -5,-4 -7,-4 -2,0 -4,1 -5,2 -2,2 -2,4 -2,7l0 91c0,3 0,5 2,6 1,1 3,2 5,2 2,0 4,-1 5,-2 2,-1 3,-3 3,-6l0 -67 24 34c2,2 4,4 6,4 2,0 4,-2 7,-4l24 -34 0 67c0,3 1,5 2,6 1,1 3,2 5,2 2,0 4,-1 6,-2 1,-1 2,-3 2,-6zm37 -53l45 0 0 -15c0,-5 -1,-8 -4,-11 -3,-3 -6,-5 -11,-5l-15 0c-4,0 -8,2 -11,5 -2,1 -3,3 -3,5 -1,2 -1,4 -1,6l0 15zm0 15l0 15c0,5 1,8 4,11 1,2 3,3 5,4 2,0 4,1 6,1l38 0c2,0 4,1 5,2 2,2 3,3 3,5 0,2 -1,4 -2,5 -2,2 -4,3 -6,3l-38 0c-8,0 -16,-3 -22,-9 -6,-6 -9,-13 -9,-22l0 -45c0,-9 3,-16 9,-22 6,-6 13,-9 22,-9l15 0c8,0 15,3 22,9 6,6 9,13 9,22l0 23c0,5 -3,7 -8,7l-53 0zm143 31l30 0 0 -84c0,-2 1,-4 3,-6 1,-1 3,-2 5,-2 2,0 3,1 5,2 2,1 2,3 2,6l0 84 8 0c5,0 8,2 8,7l0 15c0,3 -1,4 -3,6 -1,1 -3,2 -5,2 -2,0 -3,-1 -5,-2 -2,-1 -3,-3 -3,-6l0 -7 -12 0 -64 0c-8,0 -15,-3 -21,-9 -6,-6 -9,-13 -9,-22l0 -68c0,-2 1,-4 2,-6 2,-1 3,-2 5,-2 2,0 4,1 6,2 1,1 2,3 2,6l0 68c0,5 1,8 4,11 2,2 3,3 5,4 2,0 4,1 6,1l15 0 0 -84c0,-2 1,-4 3,-6 1,-1 3,-2 5,-2 2,0 4,1 5,2 2,1 3,3 3,6l0 84zm82 -46l46 0 0 -15c0,-5 -2,-8 -5,-11 -3,-3 -6,-5 -11,-5l-15 0c-4,0 -8,2 -11,5 -1,1 -2,3 -3,5 -1,2 -1,4 -1,6l0 15zm0 15l0 15c0,5 1,8 4,11 2,2 3,3 5,4 2,0 4,1 6,1l38 0c2,0 4,1 6,2 1,2 2,3 2,5 0,2 -1,4 -2,5 -1,2 -3,3 -6,3l-38 0c-8,0 -15,-3 -21,-9 -6,-6 -9,-13 -9,-22l0 -45c0,-9 3,-16 8,-22 6,-6 14,-9 22,-9l15 0c9,0 16,3 22,9 6,6 9,13 9,22l0 23c0,5 -3,7 -8,7l-53 0zm143 -15l0 -38c0,-2 1,-4 2,-6 2,-1 4,-2 6,-2 2,0 3,1 5,2 1,1 2,3 2,6l0 91c0,3 -1,5 -2,6 -1,1 -3,2 -5,2 -2,0 -4,-1 -6,-2 -1,-1 -2,-3 -2,-6l0 -38 -46 0 0 38c0,3 -1,5 -2,6 -1,1 -3,2 -5,2 -2,0 -4,-1 -6,-2 -1,-1 -2,-3 -2,-6l0 -91c0,-2 1,-4 2,-6 2,-1 4,-2 6,-2 2,0 3,1 5,2 1,1 2,3 2,6l0 38 46 0zm113 53c0,5 -3,8 -8,8l-38 0c-8,0 -15,-3 -21,-9 -7,-6 -10,-13 -10,-22l0 -68c0,-2 1,-4 3,-6 1,-1 3,-2 5,-2 2,0 4,1 5,2 2,1 3,3 3,6l0 68c0,5 1,8 4,11 1,2 3,3 5,4 2,0 4,1 6,1l30 0 0 -84c0,-2 1,-4 3,-6 1,-1 3,-2 5,-2 2,0 4,1 5,2 2,1 3,3 3,6l0 91zm74 -129l-30 0c-3,0 -5,-1 -6,-2 -1,-2 -2,-4 -2,-6 0,-2 1,-3 2,-5 1,-2 3,-2 6,-2l30 0c2,0 4,0 6,2 1,1 2,3 2,5 0,2 -1,4 -2,5 -1,2 -3,3 -6,3zm23 129c0,5 -3,8 -8,8l-38 0c-8,0 -15,-3 -21,-9 -6,-6 -9,-13 -9,-22l0 -68c0,-2 1,-4 2,-6 2,-1 3,-2 5,-2 2,0 4,1 6,2 1,1 2,3 2,6l0 68c0,5 1,8 4,11 2,2 4,3 5,4 2,0 4,1 6,1l31 0 0 -84c0,-2 1,-4 2,-6 2,-1 3,-2 5,-2 2,0 4,1 6,2 1,1 2,3 2,6l0 91z"/>
    <path class="fil4 str0" d="M7245 3881l-31 0c-4,0 -8,2 -10,5 -2,1 -3,3 -4,5 0,1 -1,3 -1,6l0 45c0,5 2,8 5,11 1,2 3,3 4,4 3,0 5,1 6,1l16 0c4,0 8,-2 11,-5 3,-2 4,-6 4,-11l0 -61zm0 -15l0 -15c0,-4 -1,-8 -4,-11 -3,-3 -7,-4 -11,-4l-31 0c-2,0 -4,-1 -5,-2 -2,-2 -2,-4 -2,-6 0,-2 0,-3 2,-5 1,-2 3,-3 5,-3l31 0c8,0 15,3 21,9 6,6 9,14 9,22l0 91c0,9 -3,16 -9,22 -6,6 -13,9 -21,9l-16 0c-8,0 -15,-3 -21,-9 -6,-6 -9,-13 -9,-22l0 -45c0,-9 3,-16 9,-22 6,-6 13,-9 22,-9l30 0zm113 99c0,3 -1,4 -3,6 -1,1 -3,2 -5,2 -2,0 -4,-1 -5,-2 -2,-1 -3,-3 -3,-6l0 -84 -17 0 -29 87c0,1 -1,3 -2,4 -1,0 -2,0 -5,1 -2,0 -3,-1 -5,-2 -2,-2 -2,-3 -2,-6l0 -2 30 -92c1,-3 4,-5 7,-5l31 0c5,0 8,3 8,8l0 91zm82 -53l0 -31 -31 0c-4,0 -8,2 -11,5 -3,3 -4,6 -4,11 0,3 1,7 4,10 3,3 6,5 11,5l31 0zm-19 15l-28 42c-1,1 -2,2 -3,3l-4 1c-1,0 -3,-1 -5,-3 -1,-1 -2,-3 -2,-5 0,-1 0,-3 1,-4l23 -34c-8,-1 -14,-5 -18,-11 -4,-6 -6,-12 -6,-19 0,-9 2,-16 7,-21 6,-7 14,-10 23,-10l38 0c5,0 8,3 8,8l0 91c0,3 -1,4 -2,6 -2,1 -3,2 -6,2 -2,0 -3,-1 -5,-2 -1,-1 -2,-3 -2,-6l0 -38 -19 0zm-547 234c-4,2 -9,4 -15,5l-8 1 -9 1 -11 -1 -9 -1c-6,-1 -10,-3 -14,-8 -3,-4 -5,-9 -5,-15 0,-3 0,-6 2,-9 1,-4 3,-6 6,-9l49 -33c1,-2 2,-3 2,-5 0,-3 -3,-6 -8,-7 -5,-2 -11,-3 -17,-3 -5,0 -9,0 -13,1 -4,1 -7,2 -10,4 -1,1 -3,2 -5,2 -1,0 -3,-1 -5,-2 -1,-2 -2,-4 -2,-6 0,-2 1,-4 3,-6 3,-2 8,-4 14,-6 3,0 7,-1 10,-1 3,-1 6,-1 10,-1 2,0 4,0 5,0 2,0 4,0 7,0 2,1 5,1 8,2 5,2 10,5 13,9 4,4 6,9 6,14 0,6 -3,12 -9,17l-49 33c-2,2 -2,4 -2,6 0,2 0,4 1,5 2,2 3,3 6,3l8 1 9 1c6,0 10,-1 14,-1 1,-1 3,-1 5,-2 2,-1 4,-2 6,-3l1 0c1,-1 2,-1 3,-1 2,0 4,1 5,3 2,1 2,3 2,5 0,3 -1,5 -4,7zm102 -27c0,9 -4,17 -10,24 -7,6 -15,10 -24,10l-9 0c-9,0 -17,-4 -24,-10 -6,-7 -10,-14 -10,-24l0 -39c0,-9 4,-17 10,-24 7,-7 15,-10 24,-10l9 0c9,0 17,3 24,10 6,6 10,14 10,24l0 39zm-16 0l0 -40c0,-5 -1,-9 -5,-12 -3,-4 -8,-6 -13,-6l-9 0c-5,0 -9,2 -13,5 -4,4 -5,8 -5,13l0 40c0,5 1,9 5,13 3,4 8,5 13,5l9 0c5,0 9,-1 13,-5 4,-3 5,-8 5,-13zm113 26c0,2 -1,4 -2,6 -2,1 -3,2 -6,2 -2,0 -3,-1 -5,-2 -1,-2 -2,-3 -2,-6l0 -84 -18 0 -28 86c-1,2 -2,3 -3,4 0,1 -2,1 -4,2 -2,0 -4,-1 -6,-3 -1,-1 -2,-3 -2,-5l1 -2 30 -92c1,-3 3,-5 7,-5l30 0c5,0 8,3 8,8l0 91zm97 -26c0,9 -3,17 -9,24 -7,6 -15,10 -24,10l-9 0c-9,0 -17,-4 -24,-10 -6,-7 -10,-14 -10,-24l0 -39c0,-9 3,-17 10,-24 7,-7 14,-10 24,-10l9 0c9,0 17,3 23,10 7,6 10,14 10,24l0 39zm-15 0l0 -40c0,-5 -2,-9 -5,-12 -4,-4 -8,-6 -13,-6l-9 0c-5,0 -10,2 -13,5 -4,4 -6,8 -6,13l0 40c0,5 2,9 6,13 3,4 8,5 13,5l9 0c5,0 9,-1 13,-5 3,-3 5,-8 5,-13zm90 34l-23 0c-8,0 -15,-3 -21,-9 -6,-6 -9,-13 -9,-22l0 -46c0,-8 3,-15 9,-21 5,-6 13,-9 21,-9l23 0c2,0 4,1 5,2 2,2 3,4 3,6 0,1 -1,3 -2,5 -2,1 -4,2 -6,2l-23 0c-4,0 -8,2 -11,5 -1,1 -2,3 -3,4 -1,2 -1,4 -1,6l0 46c0,5 1,8 4,11 2,1 3,3 5,3 2,1 4,1 6,1l23 0c2,0 4,1 5,3 2,1 3,3 3,5 0,2 -1,3 -2,5 -2,2 -4,3 -6,3zm105 -34c0,9 -3,17 -10,24 -6,6 -14,10 -24,10l-9 0c-9,0 -17,-4 -23,-10 -7,-7 -10,-14 -10,-24l0 -39c0,-9 3,-17 10,-24 6,-7 14,-10 23,-10l9 0c9,0 17,3 24,10 7,6 10,14 10,24l0 39zm-15 0l0 -40c0,-5 -2,-9 -5,-12 -4,-4 -8,-6 -14,-6l-9 0c-5,0 -9,2 -13,5 -3,4 -5,8 -5,13l0 40c0,5 2,9 5,13 4,4 8,5 13,5l9 0c5,0 10,-1 13,-5 4,-3 6,-8 6,-13zm97 3l0 -45c0,-5 -1,-8 -4,-11 -3,-3 -7,-5 -11,-5l-15 0c-5,0 -8,2 -11,5 -2,1 -3,3 -4,5 0,1 -1,3 -1,6l0 45c0,5 2,8 5,11 1,1 3,3 5,3 2,1 4,1 6,1l15 0c4,0 8,-1 11,-4 3,-3 4,-6 4,-11zm-46 -71l7 -4 9 -6c3,-2 5,-4 6,-6 2,-2 3,-4 3,-7 0,-4 -1,-7 -4,-9 -2,-2 -5,-3 -8,-3 -4,0 -7,1 -9,3 -2,2 -4,5 -4,9l0 23zm31 -4c10,0 17,2 23,8 5,6 7,13 7,22l0 45c0,9 -3,16 -9,22 -6,6 -13,9 -21,9l-15 0c-9,0 -16,-3 -22,-9 -6,-6 -9,-13 -9,-22l0 -94c0,-9 3,-15 9,-21 5,-4 11,-7 19,-7 7,0 13,3 19,8 5,4 8,11 8,20 0,5 -1,8 -2,11 -1,2 -4,5 -7,8zm113 75l0 -61 -31 0c-4,0 -8,2 -11,5 -1,1 -2,3 -3,4 -1,2 -1,4 -1,6l0 46c0,5 1,8 4,11 2,1 3,3 5,3 2,1 4,1 6,1l15 0c5,0 8,-1 11,-4 3,-3 5,-6 5,-11zm7 21c-2,2 -6,5 -10,7 -4,2 -8,3 -13,3l-15 0c-8,0 -15,-3 -21,-9 -6,-6 -9,-13 -9,-22l0 -46c0,-8 3,-15 9,-21 5,-6 13,-9 21,-9l38 0c5,0 8,3 8,8l0 68c0,3 1,6 3,9 1,3 4,5 7,7 3,1 5,4 5,7 0,2 -1,4 -2,5 -1,2 -3,3 -6,3 -1,0 -2,-1 -3,-1 -5,-2 -9,-5 -12,-9zm90 -51l0 -38c0,-2 1,-4 2,-6 2,-1 4,-2 6,-2 2,0 3,1 5,2 1,1 2,3 2,6l0 91c0,2 -1,4 -2,6 -1,1 -3,2 -5,2 -2,0 -4,-1 -6,-2 -1,-2 -2,-3 -2,-6l0 -38 -46 0 0 38c0,2 -1,4 -2,6 -1,1 -3,2 -5,2 -2,0 -4,-1 -6,-2 -1,-2 -2,-3 -2,-6l0 -91c0,-2 1,-4 2,-6 2,-1 4,-2 6,-2 1,0 3,1 5,2 1,1 2,3 2,6l0 38 46 0zm113 53c0,5 -3,8 -8,8l-38 0c-8,0 -15,-3 -22,-9 -6,-6 -9,-13 -9,-22l0 -68c0,-2 1,-4 3,-6 1,-1 3,-2 5,-2 2,0 4,1 5,2 2,1 3,3 3,6l0 68c0,5 1,8 4,11 1,1 3,3 5,3 2,1 4,1 6,1l30 0 0 -83c0,-2 1,-4 3,-6 1,-1 3,-2 5,-2 2,0 4,1 5,2 2,1 3,3 3,6l0 91zm82 -53l0 -31 -31 0c-4,0 -8,2 -11,5 -3,3 -4,6 -4,10 0,4 1,8 4,11 3,3 6,5 11,5l31 0zm-19 15l-28 42c-1,1 -2,2 -3,3l-4 1c-1,0 -3,-1 -5,-3 -1,-1 -2,-3 -2,-5 0,-1 0,-3 1,-4l23 -34c-8,-2 -14,-5 -18,-11 -4,-6 -6,-12 -6,-20 0,-8 2,-15 7,-20 6,-7 14,-10 23,-10l38 0c5,0 8,3 8,8l0 91c0,2 -1,4 -2,6 -2,1 -3,2 -6,2 -2,0 -3,-1 -5,-2 -1,-2 -2,-3 -2,-6l0 -38 -19 0z"/>
   </g>
   <g>
    <path class="fil5" d="M5341 2708l0 0 0 0 0 0z"/>
    <path class="fil6" d="M4334 3149l352 -112 335 112 352 -112 351 112 256 831 -471 -88 -496 88 -471 -80 -455 80 247 -831z"/>
    <path class="fil7" d="M4686 3037l-144 863 471 80 8 -831 -335 -112z"/>
    <path class="fil7" d="M5373 3037l136 855 471 88 -256 -831 -351 -112z"/>
    <path class="fil8" d="M5216 3492l-17 -108 -12 2 217 -74 16 95 -204 85zm-188 177l1 -85 0 0 0 -145 147 -50 28 175 -176 105zm-435 0l19 -118 0 0 6 -29 387 58 -1 98 -411 -9zm-24 -1l-157 0 16 -87 158 -18 -17 105zm48 -274l-26 144 -158 19 21 -120 163 -43zm392 -119l-3 141 -363 -48 19 -146 347 53zm-368 117l364 48 0 2 0 0 0 114 -383 -57 19 -107zm534 -92l0 64 -145 50 1 -65 144 -49zm24 -124l176 -50 26 162 -202 68 0 -73 0 -17 0 -90zm397 55l20 178 -191 -120 -15 -97 186 39zm-34 279l-118 -101 -14 -89 123 78 9 112zm29 56l308 150 -11 -33 -300 -153 -10 -117 282 177 -11 -36 -207 -129 -14 -126 155 42 -9 -29 -149 -39 -7 -53 -12 -108 -23 -8 10 102 -187 -39 -12 -71 -195 55 0 -58 -24 7 0 174 -143 50 2 -70 -1 0 0 -109 -12 4 -12 -4 0 105 -344 -51 21 -162 -24 8 -43 323 -162 43 40 -314 -25 8 -8 62 -144 30 -7 26 148 -31 -10 81 -163 31 -8 27 168 -33 -16 120 -193 51 -8 27 202 -54 -45 226 0 0 0 0 0 1 -218 33 -7 24 233 -34 182 0 450 10 202 -126 -10 -60 211 -87 160 137z"/>
    <path class="fil9" d="M5162 2710c43,0 77,35 77,78 0,43 -34,78 -77,78 -43,0 -78,-35 -78,-78 0,-43 35,-78 78,-78zm196 78c0,-108 -88,-196 -196,-196 -109,0 -197,88 -197,196 0,19 3,36 7,53l0 0c0,0 18,119 189,305 157,-161 190,-304 190,-304l0 0c4,-17 7,-35 7,-54z"/>
   </g>
  </g>
 </g>
</svg>
