<?xml version="1.0" encoding="UTF-8"?>
<!DOCTYPE svg PUBLIC "-//W3C//DTD SVG 1.0//EN" "http://www.w3.org/TR/2001/REC-SVG-20010904/DTD/svg10.dtd">
<!-- Creator: CorelDRAW X7 -->
<svg xmlns="http://www.w3.org/2000/svg" xml:space="preserve" width="115mm" height="70.122mm" version="1.0" style="shape-rendering:geometricPrecision; text-rendering:geometricPrecision; image-rendering:optimizeQuality; fill-rule:evenodd; clip-rule:evenodd"
viewBox="0 0 11500 7012"
 xmlns:xlink="http://www.w3.org/1999/xlink">
 <defs>
  <style type="text/css">
   <![CDATA[
    .str2 {stroke:#3696A0;stroke-width:8.76524}
    .str1 {stroke:white;stroke-width:8.76524}
    .str0 {stroke:#024541;stroke-width:52.5915;stroke-linecap:round;stroke-linejoin:round}
    .fil27 {fill:none}
    .fil18 {fill:#FEFEFE}
    .fil13 {fill:#FCE2D5}
    .fil25 {fill:#A75F4A}
    .fil34 {fill:#F19321}
    .fil14 {fill:#F7CBA8}
    .fil8 {fill:#F2F2F3}
    .fil10 {fill:#EED7C7}
    .fil21 {fill:#EDC3A0}
    .fil24 {fill:#EBECEC}
    .fil1 {fill:#E3E1E0}
    .fil29 {fill:#CC2A29}
    .fil19 {fill:#CAA483}
    .fil2 {fill:#C5C2C1}
    .fil15 {fill:#ACC1CB}
    .fil22 {fill:#9AADB5}
    .fil32 {fill:#89CCC6}
    .fil20 {fill:#6C5C49}
    .fil9 {fill:#758E9C}
    .fil11 {fill:#6E8695}
    .fil7 {fill:#433F3E}
    .fil17 {fill:#3EA8DF}
    .fil12 {fill:#3F3C3A}
    .fil16 {fill:#2F2D2B}
    .fil23 {fill:#2797CE}
    .fil28 {fill:#354045}
    .fil5 {fill:#283C4B}
    .fil6 {fill:#283643}
    .fil4 {fill:#27455E}
    .fil3 {fill:#263E57}
    .fil31 {fill:#23364B}
    .fil35 {fill:#3497A1}
    .fil33 {fill:#FEFEFE}
    .fil30 {fill:white}
    .fil26 {fill:#024541;fill-rule:nonzero}
    .fil0 {fill:url(#id0)}
   ]]>
  </style>
  <radialGradient id="id0" gradientUnits="userSpaceOnUse" gradientTransform="matrix(1.17124 -0 -0 1.92083 -985 -3229)" cx="5750" cy="3506.1" r="3506.1" fx="5750" fy="3506.1">
   <stop offset="0" style="stop-opacity:1; stop-color:#FEFEFE"/>
   <stop offset="0.439216" style="stop-opacity:1; stop-color:#FEFEFE"/>
   <stop offset="1" style="stop-opacity:1; stop-color:#D1E2F2"/>
  </radialGradient>
 </defs>
 <g id="Layer_x0020_1">
  <metadata id="CorelCorpID_0Corel-Layer"/>
  <path class="fil0" d="M0 0l11500 0 0 7012 -11500 0 0 -7012z"/>
  <g id="_436113687920">
   <g>
    <path class="fil1" d="M7136 1706l-261 -262 -146 0 0 -77 178 0 284 284 -55 55z"/>
    <path class="fil2" d="M6800 1909l-606 0 0 178 606 0 0 -178z"/>
    <path class="fil1" d="M6194 2087l0 179 606 0 0 -179 -606 0z"/>
    <path class="fil3" d="M7275 1919c0,-49 -39,-89 -88,-89l-636 0c-49,0 -89,40 -89,89l0 168 813 0 0 -168z"/>
    <path class="fil4" d="M6462 2087l0 169c0,49 40,89 89,89l636 0c49,0 88,-40 88,-89l0 -169 -813 0z"/>
    <path class="fil5" d="M6830 2087l0 342c0,100 73,180 163,180l1173 0c90,0 163,-80 163,-180l0 -342 -1499 0z"/>
    <path class="fil6" d="M8329 1746c0,-100 -73,-180 -163,-180l-1173 0c-90,0 -163,80 -163,180l0 341 1499 0 0 -341z"/>
    <path class="fil3" d="M6204 1889l0 -3 -289 -175 0 376 289 0 0 -198z"/>
    <path class="fil4" d="M5915 2087l0 377 289 -175 0 -3 0 -199 -289 0z"/>
    <path class="fil2" d="M8093 2077l0 -216c0,-63 -47,-114 -104,-114l-742 0c-57,0 -103,51 -103,114l0 216 949 0z"/>
    <path class="fil1" d="M7144 2293c0,63 46,114 103,114l742 0c57,0 104,-51 104,-114l0 -216 -949 0 0 216z"/>
    <path class="fil6" d="M6764 1346c-17,-8 -39,-13 -63,-13 -57,0 -105,30 -109,69l172 0 0 -56z"/>
    <path class="fil3" d="M6592 1402c0,2 0,3 0,5 0,41 49,75 109,75 24,0 46,-6 63,-14l0 -66 -172 0z"/>
   </g>
   <g>
    <path class="fil7" d="M4165 1090l39 60c20,0 40,0 60,0l39 -60 -68 -74 -70 74z"/>
    <path class="fil7" d="M4204 1150l-55 385 170 0 -55 -385 -60 0z"/>
    <path class="fil8" d="M4074 816l-14 54 40 283 135 -137 -161 -200z"/>
    <path class="fil8" d="M4394 816l11 53 -37 287 -133 -140 159 -200z"/>
    <path class="fil9" d="M4235 1016l0 0c0,0 0,0 0,0l0 0z"/>
    <path class="fil10" d="M4235 1016l0 0 -161 -200 0 -5 161 199 159 -199 0 5 -159 200z"/>
    <path class="fil11" d="M4265 1152l0 0 -1 -2 1 2zm-61 0l0 0 0 -2 0 2z"/>
    <path class="fil12" d="M4265 1152l-61 0 0 -2 60 0 1 2z"/>
    <path class="fil13" d="M4062 1933c-329,145 -428,221 -467,256 -60,53 -93,252 -129,420l745 0 745 0c-36,-168 -69,-367 -129,-420 -39,-35 -134,-110 -464,-254l-301 -2z"/>
    <path class="fil7" d="M4062 1933c-329,145 -428,221 -467,256 -60,53 -93,252 -129,420l745 0 745 0c-36,-168 -69,-367 -129,-420 -39,-35 -134,-110 -464,-254l-301 -2z"/>
    <path class="fil14" d="M4051 1646l0 244 0 120c88,104 232,108 320,0l0 -120 0 -244c0,-198 -320,-198 -320,0z"/>
    <path class="fil14" d="M3878 1416c28,-9 64,23 80,71 16,49 6,96 -22,105 -29,10 -64,-22 -80,-71 -16,-49 -7,-96 22,-105z"/>
    <path class="fil14" d="M4543 1416c-28,-9 -64,23 -80,71 -16,49 -6,96 22,105 28,10 64,-22 80,-71 16,-49 6,-96 -22,-105z"/>
    <path class="fil15" d="M4212 2090c0,0 -223,53 -223,67 0,13 85,452 85,452l302 0 35 -451 -199 -68z"/>
    <path class="fil16" d="M4051 1938l0 72 69 599 -119 0 -131 -267 125 -83 -153 -72 141 -218 68 -31z"/>
    <path class="fil16" d="M4371 1938l0 72 -70 599 119 0 131 -267 -125 -83 153 -72 -125 -212 -83 -37z"/>
    <path class="fil17" d="M4142 2164l39 60c20,0 40,0 60,0l39 -60 -68 -74 -70 74z"/>
    <path class="fil17" d="M4181 2224l-55 385 170 0 -55 -385 -60 0z"/>
    <path class="fil18" d="M4051 1890l-14 54 39 283 136 -137 -161 -200z"/>
    <path class="fil19" d="M4215 1934c-2,0 -3,0 -4,0 -78,-3 -160,-100 -160,-100l0 -12 320 1 0 17c0,0 -80,94 -156,94z"/>
    <path class="fil14" d="M4211 990c-492,0 -303,674 -271,726 35,56 192,182 271,182 80,0 236,-126 271,-182 32,-52 221,-726 -271,-726z"/>
    <path class="fil20" d="M4180 1135c-3,-1 -6,-2 -8,-3 4,1 8,2 12,3 -1,0 -3,0 -4,0zm252 -129c-166,-131 -423,-53 -500,56 -97,137 -63,343 -40,499l0 -1c0,2 1,3 1,5 0,1 3,5 4,6 1,1 7,0 9,-1 0,0 1,-1 1,-2 1,-14 0,-41 0,-41 -2,-22 -7,-42 -10,-63 16,-98 62,-119 86,-237 5,-8 10,-16 16,-23 7,-9 13,-17 21,-24 5,-3 9,-6 12,-9 90,-32 182,7 266,41 33,13 69,29 104,26 16,-1 27,-11 28,-24 41,121 74,177 94,266 -3,15 -6,31 -7,47 0,0 -1,27 0,41 0,1 0,2 1,2 2,1 8,2 9,1 0,-1 3,-5 3,-6 2,-6 2,-11 2,-17 2,-8 3,-16 4,-24 26,-96 73,-477 -104,-518z"/>
    <path class="fil18" d="M4371 1890l11 53 -37 287 -133 -140 159 -200z"/>
    <path class="fil21" d="M4212 2090l0 0 -161 -200 0 -5 161 199 159 -199 0 5 -159 200z"/>
    <path class="fil22" d="M4241 2226l0 0 0 -2 0 2zm-60 0l0 0 0 -2 0 2z"/>
    <path class="fil23" d="M4241 2226l-60 0 0 -2 60 0 0 2z"/>
    <path class="fil24" d="M3611 1993l0 0 0 -2 0 2zm-60 0l0 0 0 -2 0 2z"/>
   </g>
   <path class="fil25 str0" d="M4280 2196l-66 157 -67 -160 32 -217 35 0 36 0 30 220z"/>
   <g>
    <path class="fil25" d="M4284 1881l-139 0 34 95 35 0 36 0 34 -95z"/>
    <path id="1" class="fil26" d="M4145 1855l139 0 0 52 -139 0 -25 -17 25 -35zm0 52c-15,0 -26,-11 -26,-26 0,-14 11,-26 26,-26l0 52zm9 77l-34 -94 50 -17 34 94 -25 35 -25 -18zm50 -17c5,13 -3,28 -16,33 -14,5 -29,-2 -34,-16l50 -17zm10 35l-35 0 0 -52 35 0 0 0 0 52zm0 -52c15,0 27,11 27,26 0,14 -12,26 -27,26l0 -52zm36 52l-36 0 0 -52 36 0 25 34 -25 18zm0 -52c14,0 26,11 26,26 0,14 -12,26 -26,26l0 -52zm59 -60l-34 94 -50 -17 34 -94 25 -18 25 35zm-50 -17c5,-14 20,-21 34,-16 13,5 21,20 16,33l-50 -17z"/>
   </g>
   <path class="fil27 str0" d="M4214 2353l0 218"/>
   <path class="fil28" d="M4302 2163l-39 0 -81 -2 -39 -1c-6,0 -11,5 -11,11l26 594c0,6 5,11 12,11l0 0 80 2 1 0c6,0 11,-5 11,-11l51 -592c0,-6 -5,-11 -11,-12z"/>
   <path class="fil28" d="M4372 1917c-1,80 -68,143 -147,142 -80,-2 -144,-68 -142,-148 1,-80 67,-144 147,-142 80,2 144,68 142,148z"/>
   <path class="fil29" d="M4380 1917c0,6 -4,10 -10,10l-285 -6c-6,0 -11,-5 -10,-10l0 0c0,-6 4,-11 10,-10l285 5c6,0 10,5 10,11l0 0z"/>
   <path class="fil29" d="M4369 2174c0,9 -8,16 -17,16l-261 -6c-9,0 -16,-7 -15,-16l2 -135c0,-9 8,-16 17,-16l261 5c9,1 16,8 16,17l-3 135z"/>
   <path class="fil30 str1" d="M4177 2062l-21 0c-1,0 -3,-1 -4,-2 -1,-1 -1,-2 -1,-3 0,-2 0,-3 1,-4 1,-1 2,-2 4,-2l52 0c1,0 3,1 4,2 1,1 1,2 1,4 0,1 0,2 -1,3 -1,1 -2,2 -4,2l-21 0 0 88c0,2 0,3 -1,4 -1,1 -2,1 -4,1 -1,0 -2,0 -3,-1 -2,-1 -2,-2 -2,-4l0 -88zm109 34c3,2 6,4 7,8 2,3 3,6 3,10l0 20c0,6 -2,11 -6,15 -4,4 -9,6 -15,6l-36 0c-3,0 -5,-1 -5,-5l0 -93c0,-4 2,-6 5,-6l31 0c6,0 11,3 15,7 4,4 6,9 6,14l0 11c0,2 0,4 -1,7 -1,2 -2,4 -4,6zm-42 7l0 42 31 0c3,0 6,-1 8,-3 2,-2 3,-4 3,-7l0 -21c0,-3 -1,-6 -3,-8 -2,-2 -5,-3 -8,-3l-31 0zm26 -10c3,0 6,-1 8,-3 2,-2 3,-4 3,-7l0 -11c0,-3 -1,-5 -3,-7 -2,-2 -5,-3 -8,-3l-26 0 0 31 26 0z"/>
   <g id="_436113688400">
    <path class="fil31" d="M4679 5424c-9,56 -62,94 -118,84l0 0c-56,-9 -93,-62 -84,-118l24 -185c9,-56 62,-47 117,-38l0 0c56,9 133,32 124,88l-63 169z"/>
    <path class="fil31" d="M6842 5424c10,56 63,94 119,84l0 0c55,-9 93,-62 84,-118l-24 -185c-9,-56 -62,-47 -118,-38l0 0c-56,9 -133,32 -123,88l62 169z"/>
    <path class="fil31" d="M5637 3604c0,155 -125,279 -279,279 -154,0 -279,-124 -279,-279 0,-154 125,-279 279,-279 154,0 279,125 279,279z"/>
    <path class="fil31" d="M7337 4960c0,200 -163,362 -362,362l-2428 0c-200,0 -362,-162 -362,-362l0 -1159c0,-200 162,-362 362,-362l2428 0c199,0 362,162 362,362l0 1159z"/>
    <path class="fil32" d="M6290 3662l-1538 0c-200,0 -362,162 -362,362l0 808c0,112 52,213 132,279l2025 -1342c-65,-66 -156,-107 -257,-107z"/>
    <path class="fil33" d="M4522 5111c63,51 143,82 230,82l1538 0c200,0 362,-162 362,-361l0 -808c0,-100 -40,-189 -105,-255l-2025 1342z"/>
    <path class="fil34" d="M6850 4002c0,30 -25,55 -55,55 -30,0 -54,-25 -54,-55 0,-30 24,-55 54,-55 30,0 55,25 55,55z"/>
    <path class="fil34" d="M7039 4002c0,30 -25,55 -55,55 -30,0 -55,-25 -55,-55 0,-30 25,-55 55,-55 30,0 55,25 55,55z"/>
    <path class="fil34" d="M7227 4002c0,30 -24,55 -54,55 -31,0 -55,-25 -55,-55 0,-30 24,-55 55,-55 30,0 54,25 54,55z"/>
    <path class="fil1" d="M7238 4219l-497 0 0 -80 497 0 0 80z"/>
    <path class="fil1" d="M7238 4398l-497 0 0 -79 497 0 0 79z"/>
    <path class="fil1" d="M7238 4578l-497 0 0 -79 497 0 0 79z"/>
    <path class="fil1" d="M7238 4758l-497 0 0 -79 497 0 0 79z"/>
   </g>
   <path class="fil35 str2" d="M4637 4393c6,4 11,9 14,15 4,6 6,13 6,20l0 41c0,11 -4,20 -12,28 -8,8 -18,12 -29,12l-71 0c-7,0 -10,-3 -10,-10l0 -183c0,-6 3,-10 10,-10l61 0c11,0 21,4 29,12 8,8 12,18 12,29l0 20c0,5 -1,9 -2,14 -2,4 -4,8 -8,12zm-82 15l0 81 61 0c6,0 11,-2 15,-6 4,-3 6,-8 6,-14l0 -41c0,-6 -2,-11 -6,-14 -4,-4 -9,-6 -15,-6l-61 0zm51 -21c6,0 11,-1 15,-5 4,-4 6,-9 6,-15l0 -20c0,-6 -2,-11 -6,-15 -4,-4 -9,-6 -15,-6l-51 0 0 62 51 -1zm183 122l-51 0c-11,0 -21,-4 -29,-12 -8,-7 -12,-17 -12,-28l0 -122c0,-12 4,-21 12,-29 8,-8 18,-12 29,-12l51 0c3,0 5,1 7,3 2,2 3,5 3,7 0,3 -1,5 -3,7 -1,2 -4,3 -7,3l-51 0c-6,0 -11,2 -15,6 -2,2 -3,4 -4,7 -1,2 -1,5 -1,8l0 122c0,5 2,10 5,14 2,2 5,3 7,5 3,1 6,1 8,1l51 0c3,0 5,1 7,3 2,2 3,5 3,7 0,2 -1,5 -3,7 -1,2 -4,3 -7,3zm71 -121l51 0c3,0 5,1 7,3 2,2 3,4 3,7 0,2 -1,4 -3,6 -1,3 -4,4 -7,4l-51 0 0 81 71 0c3,0 5,1 7,3 2,2 3,5 3,7 0,3 -1,5 -2,7 -2,2 -5,3 -8,3l-81 0c-7,0 -11,-3 -11,-9l0 -184c0,-6 4,-10 11,-10l81 0c3,0 5,1 7,3 2,2 3,5 3,7 0,3 -1,5 -2,7 -2,2 -5,3 -8,3l-71 0 0 62zm345 0l0 -72c0,-2 1,-5 3,-7 2,-2 4,-3 7,-3 2,0 5,1 7,3 2,1 3,4 3,7l0 183c0,3 -1,5 -3,7 -3,2 -5,3 -7,3 -3,0 -5,-1 -7,-2 -2,-2 -3,-4 -3,-8l0 -91 -82 0 0 91c0,3 -1,6 -2,8 -2,1 -5,2 -8,2 -2,0 -5,-1 -7,-2 -2,-2 -3,-5 -3,-8l0 -183c0,-2 1,-5 3,-7 2,-2 5,-3 7,-3 3,0 5,1 7,3 2,2 3,4 3,7l0 72 82 0zm96 70l-14 44c-1,2 -2,4 -4,5 -2,1 -3,2 -6,2 -2,0 -5,-1 -7,-3 -2,-1 -3,-4 -3,-7l1 -3 61 -183c2,-6 5,-9 9,-9 5,0 8,3 10,9l60 183 1 3c0,3 -1,5 -3,7 -2,2 -5,3 -7,3 -2,0 -3,0 -5,-1 -2,0 -3,-2 -5,-6l-14 -44 -74 0zm67 -20l-30 -90 -30 90 60 0zm304 -45c6,4 11,9 14,15 4,6 6,13 6,20l0 41c0,11 -4,20 -12,28 -8,8 -18,12 -29,12l-71 0c-7,0 -10,-3 -10,-10l0 -183c0,-6 3,-10 10,-10l61 0c11,0 21,4 29,12 8,8 12,18 12,29l0 20c0,5 -1,9 -3,14 -1,4 -3,8 -7,12zm-82 15l0 81 61 0c6,0 11,-2 15,-6 3,-3 5,-8 5,-14l0 -41c0,-6 -1,-11 -5,-14 -4,-4 -9,-6 -15,-6l-61 0zm51 -21c6,0 10,-1 14,-5 4,-4 6,-9 6,-15l0 -20c0,-6 -2,-11 -5,-15 -4,-4 -9,-6 -15,-6l-51 0 0 62 51 -1zm233 112c0,3 0,6 -2,8 -2,1 -5,2 -8,2 -2,0 -5,-1 -7,-2 -2,-2 -3,-5 -3,-8l0 -183c0,-2 1,-5 3,-7 2,-2 5,-3 7,-3 3,0 5,1 7,3 2,1 3,4 3,7l0 183zm-122 -91l0 81 41 0c6,0 11,-2 15,-6 4,-3 6,-8 6,-14l0 -41c0,-6 -2,-11 -6,-14 -4,-4 -9,-6 -15,-6l-41 0zm0 -20l41 0c11,0 21,3 29,11 8,8 12,18 12,29l0 41c0,11 -4,20 -12,28 -8,8 -18,12 -29,12l-51 0c-6,0 -10,-3 -10,-10l0 -183c0,-2 1,-5 3,-7 2,-2 5,-3 7,-3 3,0 5,1 7,3 2,1 3,4 3,7l0 72zm183 20l0 81 61 0c6,0 10,-2 14,-6 4,-3 6,-8 6,-14l0 -41c0,-6 -2,-11 -5,-14 -4,-4 -9,-6 -15,-6l-61 0zm0 -20l61 0c11,0 21,3 29,11 8,8 12,18 12,29l0 41c0,11 -4,20 -12,28 -8,8 -18,12 -29,12l-71 0c-7,0 -10,-3 -10,-10l0 -183c0,-6 3,-10 10,-10l81 0c3,0 5,1 7,3 2,2 3,5 3,7 0,3 0,5 -2,7 -2,2 -4,3 -8,3l-71 0 0 62zm264 81c0,11 -4,20 -12,28 -8,8 -17,12 -29,12l-40 0c-11,0 -21,-4 -29,-12 -8,-7 -12,-17 -12,-28l0 -122c0,-12 4,-21 12,-29 8,-8 18,-12 29,-12l40 0c12,0 21,4 29,12 8,8 12,18 12,29l0 122zm-20 0l0 -122c0,-6 -2,-11 -6,-15 -4,-4 -9,-6 -15,-6l-40 0c-6,0 -11,2 -15,6 -2,2 -3,4 -4,7 -1,2 -2,5 -2,8l0 122c0,5 2,10 6,14 2,2 4,3 7,5 3,1 5,1 8,1l40 0c6,0 11,-2 15,-6 4,-3 6,-8 6,-14zm97 -61l61 0c6,0 10,-2 14,-6 4,-4 6,-9 6,-15l0 -40c0,-6 -2,-11 -5,-15 -4,-4 -9,-6 -15,-6l-61 0 0 82zm0 20l0 71c0,3 -1,6 -3,8 -2,1 -4,2 -7,2 -3,0 -5,-1 -7,-2 -2,-2 -3,-5 -3,-8l0 -183c0,-6 3,-10 10,-10l71 0c11,0 21,4 29,12 8,8 11,18 11,29l0 40c0,11 -3,21 -11,29 -8,8 -18,12 -29,12l-61 0zm284 71c0,3 -1,6 -3,8 -1,1 -4,2 -7,2 -2,0 -5,-1 -7,-2 -2,-2 -3,-5 -3,-8l0 -183c0,-2 1,-5 3,-7 2,-2 5,-3 7,-3 3,0 5,1 7,3 2,1 3,4 3,7l0 183zm-122 -91l0 81 41 0c6,0 10,-2 14,-6 4,-3 6,-8 6,-14l0 -41c0,-6 -1,-11 -5,-14 -4,-4 -9,-6 -15,-6l-41 0zm0 -20l41 0c11,0 21,3 29,11 8,8 12,18 12,29l0 41c0,11 -4,20 -12,28 -8,8 -18,12 -29,12l-51 0c-7,0 -10,-3 -10,-10l0 -183c0,-2 1,-5 3,-7 2,-2 5,-3 7,-3 3,0 5,1 7,3 2,1 3,4 3,7l0 72z"/>
  </g>
 </g>
</svg>
