<?xml version="1.0" encoding="UTF-8"?>
<!DOCTYPE svg PUBLIC "-//W3C//DTD SVG 1.0//EN" "http://www.w3.org/TR/2001/REC-SVG-20010904/DTD/svg10.dtd">
<!-- Creator: CorelDRAW X7 -->
<svg xmlns="http://www.w3.org/2000/svg" xml:space="preserve" width="115mm" height="70.122mm" version="1.0" style="shape-rendering:geometricPrecision; text-rendering:geometricPrecision; image-rendering:optimizeQuality; fill-rule:evenodd; clip-rule:evenodd"
viewBox="0 0 11500 7012"
 xmlns:xlink="http://www.w3.org/1999/xlink">
 <defs>
  <style type="text/css">
   <![CDATA[
    .str1 {stroke:#E31E24;stroke-width:70.122}
    .str0 {stroke:#3A949E;stroke-width:8.76524}
    .str2 {stroke:#E31E24;stroke-width:70.122}
    .fil12 {fill:none}
    .fil3 {fill:#F19321}
    .fil4 {fill:#E3E1E0}
    .fil1 {fill:#23364B}
    .fil6 {fill:black}
    .fil11 {fill:#38959F}
    .fil10 {fill:#8A8A8C}
    .fil9 {fill:#A2A3A5}
    .fil8 {fill:#C4C4C6}
    .fil7 {fill:#E7E7E8}
    .fil2 {fill:#FEFEFE}
    .fil5 {fill:white}
    .fil0 {fill:url(#id0)}
   ]]>
  </style>
  <radialGradient id="id0" gradientUnits="userSpaceOnUse" gradientTransform="matrix(1.17124 -0 -0 1.92083 -985 -3229)" cx="5750" cy="3506.1" r="3506.1" fx="5750" fy="3506.1">
   <stop offset="0" style="stop-opacity:1; stop-color:#FEFEFE"/>
   <stop offset="0.439216" style="stop-opacity:1; stop-color:#FEFEFE"/>
   <stop offset="1" style="stop-opacity:1; stop-color:#D1E2F2"/>
  </radialGradient>
 </defs>
 <g id="Layer_x0020_1">
  <metadata id="CorelCorpID_0Corel-Layer"/>
  <path class="fil0" d="M0 0l11500 0 0 7012 -11500 0 0 -7012z"/>
  <path class="fil1" d="M4346 4685c-12,66 -74,110 -140,99l0 0c-66,-11 -110,-73 -99,-139l28 -219c11,-66 73,-56 139,-45l0 0c66,11 157,38 146,104l-74 200z"/>
  <path class="fil1" d="M6902 4685c11,66 74,110 140,99l0 0c66,-11 110,-73 99,-139l-28 -219c-11,-66 -73,-56 -139,-45l0 0c-66,11 -157,38 -146,104l74 200z"/>
  <path class="fil1" d="M5477 2534c0,183 -147,330 -329,330 -182,0 -330,-147 -330,-330 0,-182 148,-329 330,-329 182,0 329,147 329,329z"/>
  <path class="fil1" d="M7486 4136c0,237 -191,428 -428,428l-2869 0c-236,0 -427,-191 -427,-428l0 -1369c0,-236 191,-428 427,-428l2869 0c237,0 428,192 428,428l0 1369z"/>
  <path class="fil2" d="M6249 2602l-1817 0c-236,0 -428,192 -428,428l0 955c0,133 61,251 156,330l2393 -1586c-77,-78 -185,-127 -304,-127z"/>
  <path class="fil2" d="M4160 4315c74,61 169,97 272,97l1817 0c237,0 428,-191 428,-427l0 -955c0,-117 -47,-224 -124,-301l-2393 1586z"/>
  <path class="fil3" d="M6911 3004c0,36 -29,65 -65,65 -35,0 -64,-29 -64,-65 0,-35 29,-64 64,-64 36,0 65,29 65,64z"/>
  <path class="fil3" d="M7134 3004c0,36 -29,65 -65,65 -35,0 -64,-29 -64,-65 0,-35 29,-64 64,-64 36,0 65,29 65,64z"/>
  <path class="fil3" d="M7357 3004c0,36 -29,65 -65,65 -35,0 -64,-29 -64,-65 0,-35 29,-64 64,-64 36,0 65,29 65,64z"/>
  <path class="fil4" d="M7369 3260l-587 0 0 -93 587 0 0 93z"/>
  <path class="fil4" d="M7369 3473l-587 0 0 -94 587 0 0 94z"/>
  <path class="fil4" d="M7369 3685l-587 0 0 -93 587 0 0 93z"/>
  <path class="fil4" d="M7369 3897l-587 0 0 -93 587 0 0 93z"/>
  <g id="_670651447024">
   <path class="fil5" d="M5301 4141c0,1 -1,0 1,1 1,0 8,1 11,3 3,3 2,9 0,12 -1,7 -7,16 -10,19 0,6 2,8 4,11 3,3 5,5 7,7 2,1 1,1 3,3 8,8 4,10 2,20l-36 0c-4,0 4,1 -1,0l-1 0c0,-3 0,-5 -1,-8 -2,-5 -5,-8 -9,-11 -1,0 -2,-1 -2,-1 -1,-1 0,0 -1,-1 -3,-2 -9,-4 -10,-8 -1,-2 -1,-5 0,-7 1,-3 1,-4 4,-5 5,-2 10,-1 15,-2l-1 -9c-1,-3 -1,-6 -2,-9 0,-1 -2,-5 -2,-6 -1,-3 0,-5 0,-8 -6,-9 1,-10 3,-33 -5,-1 -12,0 -16,-2 -3,-2 -5,-8 -3,-13 2,-4 7,-5 11,-7 4,-3 6,-5 9,-9 3,-6 3,-7 3,-16 0,-19 -3,-26 -2,-50 -4,-3 -6,-2 -5,-10 0,-3 1,-9 -2,-12 -1,-2 -4,-2 -7,-7 -4,-7 -13,-44 -15,-53 -8,-30 -16,-58 -22,-89 -4,-18 -6,-30 -2,-49 5,-27 5,-14 7,-21 2,-6 -1,-5 -4,-8 -3,-3 0,-7 2,-9 2,-6 4,-15 6,-22 3,-8 4,-14 3,-24 0,-8 -3,-45 -5,-49 -3,-2 -15,-2 -20,-4 -5,-1 -13,2 -18,4 -17,7 -19,9 -36,6 -19,-3 -16,-1 -39,-7l-28 -7c-6,0 -5,0 -10,1 1,4 0,7 -2,9 -2,2 -3,5 -6,6 -1,-1 0,0 -1,-2l-1 -2c-4,6 -6,-1 -5,-7 -4,1 -7,-1 -10,-3 -3,-2 -1,-2 -2,-5 -2,-3 -1,0 -1,-3 0,-1 0,-1 0,-3l-3 -2c0,-1 2,-7 -1,-8 -2,9 3,13 -1,24 -14,2 -10,-12 -12,-23 0,-3 -1,-5 -2,-9 0,-7 2,-16 -1,-22 -3,-5 -6,-5 -8,-15 -6,-18 -3,-15 -12,-35 -12,-23 -21,-36 -32,-61 -8,-18 -6,-19 -10,-37 -3,-18 -9,-38 -15,-55 -1,-4 -3,-15 -5,-18 -2,5 -10,30 -14,39 -6,16 -8,26 -5,45 5,32 20,43 33,72 14,30 30,82 43,117 2,6 5,13 7,19 2,4 7,15 8,18 -6,2 -13,0 -18,2 -7,2 -9,1 -16,3 -5,1 -10,2 -15,3 -6,0 -13,-1 -16,2 -5,4 -7,22 -9,29 -8,32 -16,64 -12,99 3,23 9,42 6,67 -4,42 -27,80 -27,123 1,6 1,12 2,18 0,6 0,12 1,17 0,10 1,25 5,33 5,10 6,16 8,29 1,12 5,24 -6,28 1,2 4,3 6,4 1,2 3,4 3,7 1,3 -1,13 -1,17 -1,9 -3,18 -6,25 -1,7 -7,12 -5,20 0,4 -1,10 -2,13 -1,5 -1,9 -1,13 0,9 -2,18 -2,26l-28 0c-1,-1 -5,-18 -6,-21 -1,-7 -1,-20 -1,-27 1,-7 -4,-16 -4,-24 -1,-4 -1,-7 -1,-12 0,-5 -1,-9 -1,-13 0,-8 -1,-11 3,-18 4,-8 10,-7 10,-9 -5,-3 -6,-2 -10,-6 -6,-7 -5,-16 -4,-25 0,-5 0,-10 0,-15 1,-10 4,-16 5,-25 2,-10 0,-20 1,-29 1,-9 4,-16 6,-25 1,-9 1,-19 2,-28 0,-20 -1,-39 -4,-58 -2,-17 -6,-38 -3,-56 4,-26 6,-26 1,-54 -4,-29 -3,-28 -4,-57 0,-12 0,-48 -2,-58 -3,0 -9,1 -12,2 -5,2 -4,5 -5,11 -1,9 -3,17 -4,26 -3,18 -4,36 -7,54 -2,13 -4,14 3,24 4,5 9,12 11,19 7,18 3,37 4,56 1,9 2,19 3,28 2,10 5,14 8,22 6,12 1,17 1,28 0,10 0,19 0,29 -2,20 1,38 -11,51 -6,6 -32,5 -41,-14 -6,-13 3,-37 6,-51 2,-8 3,-17 5,-25 2,-9 8,-21 8,-22 2,-13 -17,-33 -22,-39 -9,-11 -16,-24 -21,-40 -4,-9 -5,-13 -6,-25 0,-11 -2,-16 -5,-26 -3,-16 1,-38 -3,-57 -3,-17 -8,-32 -11,-50 -1,-10 -13,-2 -23,-6 -6,-3 -6,-2 -12,-2 -5,1 -3,-1 -5,-2 -2,-1 -4,-1 -7,-1 1,-4 5,-12 7,-17 2,-6 4,-11 7,-17 6,-17 16,-55 21,-74 4,-13 6,-26 9,-39 7,-29 15,-50 14,-82 0,-16 -3,-28 -5,-43 -2,-15 -1,-30 -4,-44 -2,3 -4,9 -6,13 -2,4 -4,8 -6,13 -3,7 -9,18 -11,26 -1,11 2,17 -2,36 -3,10 -6,19 -9,28 -3,10 -6,19 -9,29 -5,16 -10,33 -5,48 8,21 -3,16 -1,31 1,5 2,11 -2,14 -9,1 -10,-6 -11,-14 -7,5 -5,25 1,33 3,4 2,9 5,15 3,4 8,8 3,14 -4,-1 -3,-3 -7,-6 -3,-2 -4,-6 -6,-8 -1,4 0,6 -4,8 -2,-1 -5,-6 -6,-9 -2,-5 0,-9 0,-14 -1,-7 -5,-16 -8,-22l0 705 1370 0 0 -853c-4,6 -1,3 -7,10 -6,6 1,13 -1,30 -2,8 -3,8 -6,11 -1,1 0,0 -1,2l0 13c-1,6 -1,12 -1,18 0,11 0,22 1,33 2,33 14,59 2,90 -2,8 -5,21 -11,23 -1,-2 -3,-5 -4,-7 -1,-4 -1,-6 0,-10 4,-9 -2,-5 3,-18 3,-7 2,-12 -1,-19 -3,-11 -1,-11 -9,-13 -4,6 0,23 -8,23 -9,0 -5,-18 -6,-23 0,-3 -4,-2 -6,-1l-4 2c-1,-1 -1,0 -1,0 1,19 5,39 7,58 2,20 3,40 3,61 -1,10 -2,20 -3,30 -5,36 -1,29 2,58 0,11 -2,18 -3,28 -3,18 -5,38 -9,56 -4,21 -25,71 -21,90 1,5 3,6 4,12 1,17 -9,40 -22,43 3,9 24,33 29,54 2,11 0,15 -4,22 0,2 0,1 2,3 6,6 6,19 3,25 -1,3 -2,7 -4,9 -1,3 -3,6 -3,8 -3,7 -20,29 -20,32l0 2c10,4 16,14 18,25 4,13 3,18 -1,28 -1,4 -1,6 -1,10 -2,-2 -29,0 -35,0l-107 0c1,-5 2,-12 3,-17 4,-23 -4,-37 -3,-46 0,-3 1,-3 2,-3 1,-5 7,-9 9,-14 3,-6 1,-11 0,-17 0,-4 0,-4 2,-5 0,-5 4,-1 9,-2 0,-5 -5,-8 -7,-10 -1,-2 -3,-3 -4,-5 -1,-2 -1,-8 -1,-6 1,-4 1,-6 0,-9 -1,-3 -2,-4 -2,-6l-2 -2c1,-4 3,-4 3,-10 -1,-4 -2,-8 0,-11 2,-3 12,-10 11,-14 -4,-1 -4,1 -8,1 -6,-6 2,-17 -4,-28 -5,-6 -12,-10 -10,-22 6,-23 4,-34 -1,-57 -4,-19 -9,-35 -11,-55 -8,-60 -7,-122 -14,-182 -2,-21 -4,-40 -5,-60 -1,-21 -2,-42 -2,-63 -2,-2 -11,-6 -14,-7 -4,-36 12,-77 14,-114 1,-13 3,-49 1,-60 -2,-12 -7,-17 -14,-7 -15,18 2,40 -20,44 -13,3 -12,5 -20,12 -11,11 -13,5 -20,12 -7,7 -30,24 -21,39 3,4 5,5 4,12l-10 22c-3,5 -3,4 -9,6 -3,2 0,1 -3,5 -3,4 -9,9 -16,8 -6,14 -9,32 -15,47 -4,11 -5,14 -14,17 -7,2 -19,2 -24,6l0 8c-6,2 -24,6 -30,6 -9,1 -7,2 -10,8 -5,7 -12,9 -12,15l-2 25c-2,23 -5,63 1,85 0,3 1,5 1,8 -1,4 -2,2 -1,7 2,10 5,20 7,30 1,9 4,5 7,10 3,6 -1,10 -3,13 0,8 0,17 1,25 1,8 0,16 1,24 2,15 4,32 6,47 3,13 4,11 7,20 3,7 -2,16 1,23 3,9 7,9 3,21 -4,13 -8,8 -16,9 1,2 1,3 2,4 0,2 0,3 1,5 3,7 10,13 12,22 1,7 -2,12 -7,15 -6,3 -13,0 -18,-2 -11,-8 -11,-14 -15,-30 -2,-5 -6,-12 -6,-16 0,-3 1,-3 -1,-4 -3,-5 -3,-5 -3,-14 0,-7 -2,-12 -3,-19 -2,-9 0,-13 1,-20 0,-7 -2,-14 -3,-20 -1,-8 -3,-12 -4,-18 -2,-7 -1,-13 -3,-20 -2,-6 -3,-11 -5,-18 -1,-6 -2,-13 -3,-19 -1,-3 -2,-6 -3,-9 -1,-3 -1,-5 -4,-7 -7,5 -6,44 -6,51 -1,9 -2,18 -3,27 0,11 0,18 -1,28 -2,14 -3,40 0,54 1,10 2,15 -1,25 -6,19 -1,18 -3,23 -1,3 -7,2 -10,3 1,4 2,7 2,10 0,4 1,7 -2,9 -2,2 -10,8 -11,9 0,2 -1,0 0,1l4 4c12,8 10,6 11,15l-2 11c2,0 4,0 6,1 1,0 1,0 2,0 3,2 2,4 2,8 0,14 6,20 5,26 -1,0 0,0 -2,1l-52 0c0,-12 -4,-13 -7,-23 1,-1 0,-4 0,-6 0,-8 2,-6 16,-7 -2,-3 -4,-4 -6,-7 -1,-4 -1,-1 -2,-4 -3,-2 -5,-5 -8,-7 -3,-3 -7,-5 -9,-8 -1,-3 -4,-6 0,-10 3,-2 7,-4 9,-6l8 -8c1,-2 0,-1 1,-3 1,-2 4,-4 4,-6l-11 -1c-10,-1 1,-21 2,-25 2,-10 -3,-18 0,-28 3,-10 5,-15 6,-26 2,-19 2,-40 3,-59 0,-11 -3,-21 -2,-30 1,-11 -1,-18 -1,-29 0,-9 3,-19 0,-28 -1,0 -1,0 -2,0 -4,-1 -6,-7 -7,-10 -3,-5 -6,-9 -7,-15 0,-7 2,-13 0,-20l-5 -15c-4,-11 -5,-13 -7,-24 0,-4 -2,-6 -2,-8 -1,-7 7,-24 8,-33 -2,-1 -2,-1 -4,-2 -1,-11 4,-40 7,-50 7,-20 19,-17 35,-23 5,-1 7,-3 10,-5 2,-1 2,0 4,-3 4,-3 8,-7 8,-14 -1,-3 -4,-6 -5,-9 -1,-2 -1,-4 -2,-6 -1,-3 0,-3 -2,-5 -4,-2 -3,-4 -5,-10 0,-3 -2,-8 -2,-12 1,-3 4,-3 0,-9l0 -1c4,-6 -1,-4 0,-9 0,-2 0,-1 0,-2 0,-3 2,-1 2,-6 0,-2 1,-4 2,-5 1,-2 1,-2 2,-3 2,-2 0,0 1,-2 0,-2 1,-1 1,-2l1 -2c2,-4 10,-2 13,-5 1,-1 1,-2 1,-4 1,-1 1,-2 2,-3 1,-1 3,-4 5,-4 -1,3 -4,3 -5,9 2,-1 2,-2 4,-3 1,1 1,1 2,2 12,-4 11,0 17,0 6,-1 11,-1 16,4 2,1 6,6 7,8 2,4 4,7 5,11 1,4 -1,5 2,8 -1,3 -1,0 -2,3 0,2 0,2 0,4 -1,2 -2,2 -2,6l0 7c-1,6 4,1 -5,18 -3,7 -3,7 -9,8 -3,5 -8,10 -8,18 0,10 5,10 11,14 2,-1 4,-5 5,-6 5,-9 33,-11 43,-12 6,-1 12,-3 18,-4 1,2 0,1 1,3 24,-4 18,-5 20,-8 2,-5 2,-2 4,-10 4,-14 20,-35 19,-39 -2,-8 1,-11 1,-18 0,-6 9,-20 13,-26 7,-13 7,-7 8,-11 3,-7 3,-8 7,-14 6,-9 18,-29 18,-40 1,-19 9,-21 10,-29 1,-5 -4,-9 -2,-17 1,-5 6,-8 9,-11 5,-3 8,-5 10,-10 2,-6 1,-11 5,-14 6,-5 6,-5 8,-12 3,-8 9,-22 11,-29 1,-5 2,-11 3,-17 1,-11 3,-22 5,-34 4,-25 10,-41 25,-53 15,-12 36,-18 59,-19 0,-2 -2,-8 -3,-10 -2,-7 -7,-8 -9,-14 -3,-6 -2,-14 -4,-20 -1,-2 -4,-6 -4,-8 -1,-3 0,-4 -2,-5 -1,-2 -2,-1 -3,-3 0,-2 0,-4 0,-6 -1,-1 -3,0 -3,0 0,0 0,0 -1,0 -1,-5 1,-7 2,-11 -1,0 0,0 -1,0 -1,0 -1,0 -1,-1 0,0 -1,0 -1,0 2,-2 4,-2 4,-6 -2,-1 -2,0 -4,1 1,-4 2,-2 3,-5 -2,-2 -4,-2 -6,-4 1,-1 1,0 2,-2 -1,-2 -2,-1 -2,-4 2,1 2,1 4,0 2,-1 2,0 3,-3 3,-7 2,-5 2,-9 3,1 5,3 5,-2 0,-1 0,-1 0,-3 1,-2 1,-3 2,-5 4,0 6,0 6,-4l4 0c2,-7 4,0 9,-5 2,-2 1,-1 4,-3 3,-1 1,-1 3,-3 4,-1 4,2 7,0 5,-4 3,-1 7,-2 4,0 -1,-3 6,-2 2,1 6,0 8,-1l-979 0c4,2 10,2 14,4 10,3 14,2 25,10 8,6 2,3 10,8 6,3 14,11 17,19l5 21c0,3 1,5 1,8 2,1 1,-2 1,1 0,2 -2,9 -2,11 -1,12 -5,17 -9,27 -1,4 -3,8 -6,11 -5,6 -10,12 -15,20 -3,5 -10,20 -11,25 18,3 32,10 43,19 5,4 9,12 11,20 2,9 2,19 2,29 0,25 -4,32 2,57 5,17 7,34 13,49 17,46 14,66 25,99 4,14 7,23 15,32 3,3 4,5 8,8l15 15c7,9 6,11 7,24 4,1 8,3 13,4 24,6 41,2 63,5 4,1 10,3 14,3 4,-1 24,-7 26,-8 1,-3 2,-6 3,-8 2,-3 4,-4 6,-7 2,-2 2,-4 5,-6 2,0 8,-1 10,-1 12,-1 7,2 18,-3 4,-2 11,-6 15,-7 1,-28 -11,-89 16,-99 4,-1 5,0 9,-1 2,0 4,-2 7,-3 15,-3 30,8 38,20 5,8 7,19 8,31 0,7 0,13 0,19 0,10 4,18 3,27 0,4 -3,9 -5,9 0,1 0,1 0,1 0,0 0,0 0,0 0,0 -1,0 -1,0l-8 3c2,4 7,4 11,7 3,3 4,5 9,8 9,5 16,3 25,10 9,7 18,25 14,35 -1,3 -5,8 -7,9 1,11 11,28 13,44 1,5 0,9 3,12 2,3 3,5 5,9 9,16 11,36 19,53 1,4 2,6 5,8 4,4 12,10 14,16 0,2 0,3 1,6 2,5 3,14 -1,16 -3,-4 -2,-10 -5,-15 0,1 -2,6 -2,7 -1,3 1,3 1,8l-8 -2 1 -6c-3,2 -2,5 -6,6 -2,-7 6,-15 0,-18 -1,6 -1,12 -6,13 -1,-5 1,-7 1,-11 1,-5 -2,-6 -4,-8 -4,-5 -2,-4 -4,-10 -2,-7 -19,-30 -24,-40 -3,-6 -5,-12 -9,-18 -9,-16 -9,-37 -18,-59 -1,2 -2,3 -2,5 -6,19 -11,32 -12,53 -1,15 1,13 2,20 -2,2 -3,2 -6,3 1,7 8,15 10,24 6,30 -4,62 -9,91 -5,32 -8,62 -8,94 0,9 3,26 -1,32 -2,2 -6,2 -9,2 -2,15 -10,24 -4,40 2,4 10,22 9,27 -1,5 -10,12 -16,19 -8,10 5,12 9,32 1,8 -4,10 -12,11z"/>
   <path class="fil6" d="M5449 4145c8,3 14,3 23,3 4,-1 7,-2 10,-3 5,-2 5,-3 9,-5 1,-1 9,-7 11,-9 3,-2 2,-5 2,-9 0,-3 -1,-6 -2,-10 3,-1 9,0 10,-3 2,-5 -3,-4 3,-23 3,-10 2,-15 1,-25 -3,-14 -2,-40 0,-54 1,-10 1,-17 1,-28 1,-9 2,-18 3,-27 0,-7 -1,-46 6,-51 3,2 3,4 4,7 1,3 2,6 3,9 1,6 2,13 3,19 2,7 3,12 5,18 2,7 1,13 3,20 1,6 3,10 4,18 1,6 3,13 3,20 -1,7 -3,11 -1,20 1,7 3,12 3,19 0,9 0,9 3,14 2,1 1,1 1,4 0,4 4,11 6,16 4,16 4,22 15,30 5,2 12,5 18,2 5,-3 8,-8 7,-15 -2,-9 -9,-15 -12,-22 -1,-2 -1,-3 -1,-5 -1,-1 -1,-2 -2,-4 8,-1 12,4 16,-9 4,-12 0,-12 -3,-21 -3,-7 2,-16 -1,-23 -3,-9 -4,-7 -7,-20 -2,-15 -4,-32 -6,-47 -1,-8 0,-16 -1,-24 -1,-8 -1,-17 -1,-25 2,-3 6,-7 3,-13 -3,-5 -6,-1 -7,-10 -2,-10 -5,-20 -7,-30 -1,-5 0,-3 1,-7 0,-3 -1,-5 -1,-8 -6,-22 -3,-62 -1,-85l2 -25c0,-6 7,-8 12,-15 3,-6 1,-7 10,-8 6,0 24,-4 30,-6l0 -8c5,-4 17,-4 24,-6 9,-3 10,-6 14,-17 6,-15 9,-33 15,-47 7,1 13,-4 16,-8 3,-4 0,-3 3,-5 6,-2 6,-1 9,-6l10 -22c1,-7 -1,-8 -4,-12 -9,-15 14,-32 21,-39 7,-7 9,-1 20,-12 8,-7 7,-9 20,-12 22,-4 5,-26 20,-44 7,-10 12,-5 14,7 2,11 0,47 -1,60 -2,37 -18,78 -14,114 3,1 12,5 14,7 0,21 1,42 2,63 1,20 3,39 5,60 7,60 6,122 14,182 2,20 7,36 11,55 5,23 7,34 1,57 -2,12 5,16 10,22 6,11 -2,22 4,28 4,0 4,-2 8,-1 1,4 -9,11 -11,14 -2,3 -1,7 0,11 0,6 -2,6 -3,10l2 2c8,2 23,2 32,2 8,0 28,1 32,-3 0,-3 -1,-7 0,-10 0,-2 2,-5 2,-8 1,-7 -1,-15 -1,-22 8,2 18,26 27,33 3,2 9,6 13,7l1 2c1,0 2,0 2,0 8,3 17,5 25,2 4,-2 4,-3 7,-5 4,-7 6,-11 4,-22 -5,-21 -26,-45 -29,-54 13,-3 23,-26 22,-43 -1,-6 -3,-7 -4,-12 -4,-19 17,-69 21,-90 4,-18 6,-38 9,-56 1,-10 3,-17 3,-28 -3,-29 -7,-22 -2,-58 1,-10 2,-20 3,-30 0,-21 -1,-41 -3,-61 -2,-19 -6,-39 -7,-58 0,0 0,-1 1,0l4 -2c2,-1 6,-2 6,1 1,5 -3,23 6,23 8,0 4,-17 8,-23 8,2 6,2 9,13 3,7 4,12 1,19 -5,13 1,9 -3,18 -1,4 -1,6 0,10 1,2 3,5 4,7 6,-2 9,-15 11,-23 12,-31 0,-57 -2,-90 -1,-11 -1,-22 -1,-33 0,-6 0,-12 1,-18l0 -13c1,-2 0,-1 1,-2 3,-3 4,-3 6,-11 2,-17 -5,-24 1,-30 6,-7 3,-4 7,-10l0 -8c-1,0 0,1 -1,-1l-1 -2c-1,-2 -2,-2 -3,-4 -10,-13 -10,-8 -9,-24 0,-9 -8,-7 -8,-15 0,-4 2,-7 1,-11 -1,-3 -3,-5 -4,-8 -7,-16 2,-55 -3,-85 -1,-14 -6,-26 -13,-33 -7,-8 -17,-15 -28,-19 -6,-1 -12,-2 -19,-3 -24,-4 -19,-2 -24,-11l-13 -20c1,-1 0,-1 2,-1l1 0c-3,-7 2,-9 -1,-13 -3,-4 -2,-9 -2,-13 1,-7 -1,-10 -1,-16 0,-8 5,-3 -2,-10 -2,-2 -1,-3 -2,-7 -1,-3 -2,-3 -3,-5 -1,-3 1,-4 0,-7 -1,-2 -3,-2 -3,-5 0,-3 1,0 0,-3 -1,0 -2,-1 -2,-2 0,-2 5,-6 -10,-12 1,-4 1,-1 2,-3 -4,-2 -4,-1 -5,-3 1,-2 1,-1 3,-2 -5,-2 -8,-1 -12,-3 -2,-1 -3,-2 -5,-3 -2,-1 -3,-1 -5,-1 1,-2 0,0 3,-2 0,0 0,0 1,-1 0,0 0,0 0,0 -3,-1 -5,0 -8,0 -1,-1 -1,-1 -1,-2l-3 0c-2,1 -6,2 -8,1 -7,-1 -2,2 -6,2 -4,1 -2,-2 -7,2 -3,2 -3,-1 -7,0 -2,2 0,2 -3,3 -3,2 -2,1 -4,3 -5,5 -7,-2 -9,5l-4 0c0,4 -2,4 -6,4 -1,2 -1,3 -2,5 0,2 0,2 0,3 0,5 -2,3 -5,2 0,4 1,2 -2,9 -1,3 -1,2 -3,3 -2,1 -2,1 -4,0 0,3 1,2 2,4 -1,2 -1,1 -2,2 2,2 4,2 6,4 -1,3 -2,1 -3,5 2,-1 2,-2 4,-1 0,4 -2,4 -4,6 0,0 1,0 1,0 0,1 0,1 1,1 1,0 0,0 1,0 -1,4 -3,6 -2,11 1,0 1,0 1,0 0,0 2,-1 3,0 0,2 0,4 0,6 1,2 2,1 3,3 2,1 1,2 2,5 0,2 3,6 4,8 2,6 1,14 4,20 2,6 7,7 9,14 1,2 3,8 3,10 -23,1 -44,7 -59,19 -15,12 -21,28 -25,53 -2,12 -4,23 -5,34 -1,6 -2,12 -3,17 -2,7 -8,21 -11,29 -2,7 -2,7 -8,12 -4,3 -3,8 -5,14 -2,5 -5,7 -10,10 -3,3 -8,6 -9,11 -2,8 3,12 2,17 -1,8 -9,10 -10,29 0,11 -12,31 -18,40 -4,6 -4,7 -7,14 -1,4 -1,-2 -8,11 -4,6 -13,20 -13,26 0,7 -3,10 -1,18 1,4 -15,25 -19,39 -2,8 -2,5 -4,10 -2,3 4,4 -20,8 -1,-2 0,-1 -1,-3 -6,1 -12,3 -18,4 -10,1 -38,3 -43,12 -1,1 -3,5 -5,6 -6,-4 -11,-4 -11,-14 0,-8 5,-13 8,-18 6,-1 6,-1 9,-8 9,-17 4,-12 5,-18l0 -7c0,-4 1,-4 2,-6 0,-2 0,-2 0,-4 1,-3 1,0 2,-3 -3,-3 -1,-4 -2,-8 -1,-4 -3,-7 -5,-11 -1,-2 -5,-7 -7,-8 -5,-5 -10,-5 -16,-4 -6,0 -5,-4 -17,0 -1,-1 -1,-1 -2,-2 -2,1 -2,2 -4,3 1,-6 4,-6 5,-9 -2,0 -4,3 -5,4 -1,1 -1,2 -2,3 0,2 0,3 -1,4 -3,3 -11,1 -13,5l-1 2c0,1 -1,0 -1,2 -1,2 1,0 -1,2 -1,1 -1,1 -2,3 -1,1 -2,3 -2,5 0,5 -2,3 -2,6 0,1 0,0 0,2 -1,5 4,3 0,9l0 1c4,6 1,6 0,9 0,4 2,9 2,12 2,6 1,8 5,10 2,2 1,2 2,5 1,2 1,4 2,6 1,3 4,6 5,9 0,7 -4,11 -8,14 -2,3 -2,2 -4,3 -3,2 -5,4 -10,5 -16,6 -28,3 -35,23 -3,10 -8,39 -7,50 2,1 2,1 4,2 -1,9 -9,26 -8,33 0,2 2,4 2,8 2,11 3,13 7,24l5 15c2,7 0,13 0,20 1,6 4,10 7,15 1,3 3,9 7,10 1,0 1,0 2,0 3,9 0,19 0,28 0,11 2,18 1,29 -1,9 2,19 2,30 -1,19 -1,40 -3,59 -1,11 -3,16 -6,26 -3,10 2,18 0,28 -1,4 -12,24 -2,25l11 1c0,2 -3,4 -4,6 -1,2 0,1 -1,3l-8 8c-2,2 -6,4 -9,6 -4,4 -1,7 0,10z"/>
   <path class="fil6" d="M4698 3618c3,6 7,15 8,22 0,5 -2,9 0,14 1,3 4,8 6,9 4,-2 3,-4 4,-8 2,2 3,6 6,8 4,3 3,5 7,6 5,-6 0,-10 -3,-14 -3,-6 -2,-11 -5,-15 -6,-8 -8,-28 -1,-33 1,8 2,15 11,14 4,-3 3,-9 2,-14 -2,-15 9,-10 1,-31 -5,-15 0,-32 5,-48 3,-10 6,-19 9,-29 3,-9 6,-18 9,-28 4,-19 1,-25 2,-36 2,-8 8,-19 11,-26 2,-5 4,-9 6,-13 2,-4 4,-10 6,-13 3,14 2,29 4,44 2,15 5,27 5,43 1,32 -7,53 -14,82 -3,13 -5,26 -9,39 -5,19 -15,57 -21,74 -3,6 -5,11 -7,17 -2,5 -6,13 -7,17 3,0 5,0 7,1 2,1 0,3 5,2 6,0 6,-1 12,2 10,4 22,-4 23,6 3,18 8,33 11,50 4,19 0,41 3,57 3,10 5,15 5,26 1,12 2,16 6,25 5,16 12,29 21,40 5,6 24,26 22,39 0,1 -6,13 -8,22 -2,8 -3,17 -5,25 -3,14 -12,38 -6,51 9,19 35,20 41,14 12,-13 9,-31 11,-51 0,-10 0,-19 0,-29 0,-11 5,-16 -1,-28 -3,-8 -6,-12 -8,-22 -1,-9 -2,-19 -3,-28 -1,-19 3,-38 -4,-56 -2,-7 -7,-14 -11,-19 -7,-10 -5,-11 -3,-24 3,-18 4,-36 7,-54 1,-9 3,-17 4,-26 1,-6 0,-9 5,-11 3,-1 9,-2 12,-2 2,10 2,46 2,58 1,29 0,28 4,57 5,28 3,28 -1,54 -3,18 1,39 3,56 3,19 4,38 4,58 -1,9 -1,19 -2,28 -2,9 -5,16 -6,25 -1,9 1,19 -1,29 -1,9 -4,15 -5,25 0,5 0,10 0,15 -1,9 -2,18 4,25 4,4 5,3 10,6 10,3 26,4 36,-1 11,-4 7,-16 6,-28 -2,-13 -3,-19 -8,-29 -4,-8 -5,-23 -5,-33 -1,-5 -1,-11 -1,-17 -1,-6 -1,-12 -2,-18 0,-43 23,-81 27,-123 3,-25 -3,-44 -6,-67 -4,-35 4,-67 12,-99 2,-7 4,-25 9,-29 3,-3 10,-2 16,-2 5,-1 10,-2 15,-3 7,-2 9,-1 16,-3 5,-2 12,0 18,-2 -1,-3 -6,-14 -8,-18 -2,-6 -5,-13 -7,-19 -13,-35 -29,-87 -43,-117 -13,-29 -28,-40 -33,-72 -3,-19 -1,-29 5,-45 4,-9 12,-34 14,-39 2,3 4,14 5,18 6,17 12,37 15,55 4,18 2,19 10,37 11,25 20,38 32,61 9,20 6,17 12,35 2,10 5,10 8,15 3,6 1,15 1,22 1,4 2,6 2,9 2,11 -2,25 12,23 4,-11 -1,-15 1,-24 3,1 1,7 1,8l3 2c0,2 0,2 0,3 0,3 -1,0 1,3 1,3 -1,3 2,5 3,2 6,4 10,3 -1,6 1,13 5,7l1 2c1,2 0,1 1,2 3,-1 4,-4 6,-6 2,-2 3,-5 2,-9 5,-1 4,-1 10,-1l28 7c23,6 20,4 39,7 17,3 19,1 36,-6 5,-2 13,-5 18,-4 5,2 17,2 20,4 2,4 5,41 5,49 1,10 0,16 -3,24 -2,7 -4,16 -6,22 -2,2 -5,6 -2,9 3,3 6,2 4,8 -2,7 -2,-6 -7,21 -4,19 -2,31 2,49 6,31 14,59 22,89 2,9 11,46 15,53 3,5 6,5 7,7 3,3 2,9 2,12 -1,8 1,7 5,10 -1,24 2,31 2,50 0,9 0,10 -3,16 -3,4 -5,6 -9,9 -4,2 -9,3 -11,7 -2,5 0,11 3,13 4,2 11,1 16,2 -2,23 -9,24 -3,33 3,3 8,3 14,2 2,-1 4,-1 7,-2 2,0 5,-1 8,-1 8,-1 13,-3 12,-11 -4,-20 -17,-22 -9,-32 6,-7 15,-14 16,-19 1,-5 -7,-23 -9,-27 -6,-16 2,-25 4,-40 3,0 7,0 9,-2 4,-6 1,-23 1,-32 0,-32 3,-62 8,-94 5,-29 15,-61 9,-91 -2,-9 -9,-17 -10,-24 3,-1 4,-1 6,-3 -1,-7 -3,-5 -2,-20 1,-21 6,-34 12,-53 0,-2 1,-3 2,-5 9,22 9,43 18,59 4,6 6,12 9,18 5,10 22,33 24,40 2,6 0,5 4,10 2,2 5,3 4,8 0,4 -2,6 -1,11 5,-1 5,-7 6,-13 6,3 -2,11 0,18 4,-1 3,-4 6,-6l-1 6 8 2c0,-5 -2,-5 -1,-8 0,-1 2,-6 2,-7 3,5 2,11 5,15 4,-2 3,-11 1,-16 -1,-3 -1,-4 -1,-6 -2,-6 -10,-12 -14,-16 -3,-2 -4,-4 -5,-8 -8,-17 -10,-37 -19,-53 -2,-4 -3,-6 -5,-9 -3,-3 -2,-7 -3,-12 -2,-16 -12,-33 -13,-44 2,-1 6,-6 7,-9 4,-10 -5,-28 -14,-35 -9,-7 -16,-5 -25,-10 -5,-3 -6,-5 -9,-8 -4,-3 -9,-3 -11,-7l8 -3c0,0 1,0 1,0 0,0 0,0 0,0 0,0 0,0 0,-1 2,0 5,-5 5,-9 1,-9 -3,-17 -3,-27 0,-6 0,-12 0,-19 -1,-12 -3,-23 -8,-31 -8,-12 -23,-23 -38,-20 -3,1 -5,3 -7,3 -4,1 -5,0 -9,1 -27,10 -15,71 -16,99 -4,1 -11,5 -15,7 -11,5 -6,2 -18,3 -2,0 -8,1 -10,1 -3,2 -3,4 -5,6 -2,3 -4,4 -6,7 -1,2 -2,5 -3,8 -2,1 -22,7 -26,8 -4,0 -10,-2 -14,-3 -22,-3 -39,1 -63,-5 -5,-1 -9,-3 -13,-4 -1,-13 0,-15 -7,-24l-15 -15c-4,-3 -5,-5 -8,-8 -8,-9 -11,-18 -15,-32 -11,-33 -8,-53 -25,-99 -6,-15 -8,-32 -13,-49 -6,-25 -2,-32 -2,-57 0,-10 0,-20 -2,-29 -2,-8 -6,-16 -11,-20 -11,-9 -25,-16 -43,-19 1,-5 8,-20 11,-25 5,-8 10,-14 15,-20 3,-3 5,-7 6,-11 4,-10 8,-15 9,-27 0,-2 2,-9 2,-11 0,-3 1,0 -1,-1 0,-3 -1,-5 -1,-8l-5 -21c-3,-8 -11,-16 -17,-19 -8,-5 -2,-2 -10,-8 -11,-8 -15,-7 -25,-10 -4,-2 -10,-2 -14,-4l-8 0c-6,3 -21,4 -31,12 -7,4 -17,15 -20,23 2,-1 2,-2 3,-4 1,-1 2,-2 3,-3 -4,9 -9,14 -12,18 -1,2 -2,4 -4,6 -4,8 -1,5 -8,12 -2,2 -9,7 -10,9 3,-1 7,-5 9,-6 -3,11 -4,8 -7,12 -16,20 -10,42 -13,46 -2,3 -2,0 -3,4 -1,6 -6,5 -8,11 4,-1 14,-12 16,-16 -1,5 -8,14 -11,16l-16 13c0,0 0,0 0,0 3,2 2,0 2,1 -10,7 -9,4 -20,8 -6,2 -11,8 -14,14 -5,10 -9,32 -10,44 -1,9 -1,17 -3,26 -1,8 -10,32 -13,41 -3,7 -6,13 -8,20 -14,31 -8,66 -9,101 -1,27 -7,46 -12,71 -1,5 -4,17 -6,21l0 6z"/>
   <path class="fil5" d="M4698 3612c2,-4 5,-16 6,-21 5,-25 11,-44 12,-71 1,-35 -5,-70 9,-101 2,-7 5,-13 8,-20 3,-9 12,-33 13,-41 2,-9 2,-17 3,-26 1,-12 5,-34 10,-44 3,-6 8,-12 14,-14 11,-4 10,-1 20,-8 0,-1 1,1 -2,-1 0,0 0,0 0,0l16 -13c3,-2 10,-11 11,-16 -2,4 -12,15 -16,16 2,-6 7,-5 8,-11 1,-4 1,-1 3,-4 3,-4 -3,-26 13,-46 3,-4 4,-1 7,-12 -2,1 -6,5 -9,6 1,-2 8,-7 10,-9 7,-7 4,-4 8,-12 2,-2 3,-4 4,-6 3,-4 8,-9 12,-18 -1,1 -2,2 -3,3 -1,2 -1,3 -3,4 3,-8 13,-19 20,-23 10,-8 25,-9 31,-12l-205 0 0 500z"/>
   <path class="fil5" d="M6068 3462l0 -350 -175 0c0,1 0,1 1,2 3,0 5,-1 8,0 0,0 0,0 0,0 -1,1 -1,1 -1,1 -3,2 -2,0 -3,2 2,0 3,0 5,1 2,1 3,2 5,3 4,2 7,1 12,3 -2,1 -2,0 -3,2 1,2 1,1 5,3 -1,2 -1,-1 -2,3 15,6 10,10 10,12 0,1 1,2 2,2 1,3 0,0 0,3 0,3 2,3 3,5 1,3 -1,4 0,7 1,2 2,2 3,5 1,4 0,5 2,7 7,7 2,2 2,10 0,6 2,9 1,16 0,4 -1,9 2,13 3,4 -2,6 1,13l-1 0c-2,0 -1,0 -2,1l13 20c5,9 0,7 24,11 7,1 13,2 19,3 11,4 21,11 28,19 7,7 12,19 13,33 5,30 -4,69 3,85 1,3 3,5 4,8 1,4 -1,7 -1,11 0,8 8,6 8,15 -1,16 -1,11 9,24 1,2 2,2 3,4l1 2c1,2 0,1 1,1z"/>
   <path class="fil7" d="M5969 4223c-4,2 -24,1 -31,1l-93 0c-1,-1 -1,1 0,-2 -1,0 -2,0 -2,3 -1,9 7,23 3,46 -1,5 -2,12 -3,17l107 0c6,0 33,-2 35,0 0,-4 0,-6 1,-10 4,-10 5,-15 1,-28 -2,-11 -8,-21 -18,-25l0 -2z"/>
   <path class="fil5" d="M5913 3972c5,-9 11,-63 12,-78 5,-36 10,-43 6,-83 -3,-27 -10,-52 -14,-78 -2,-19 -6,-52 -7,-72 0,-4 0,-7 -5,-6l2 39c0,13 0,27 -1,40 -2,14 0,27 -1,41 -1,47 -4,70 0,121 1,10 6,72 8,76z"/>
   <path class="fil8" d="M5845 4222c-1,3 -1,1 0,2l93 0c7,0 27,1 31,-1 0,-3 17,-25 20,-32l-134 0 1 -5c-2,1 -2,1 -2,5 1,6 3,11 0,17 -2,5 -8,9 -9,14z"/>
   <path class="fil9" d="M5853 4163c0,-2 0,4 1,6 1,2 3,3 4,5 2,2 7,5 7,10 -5,1 -9,-3 -9,2l-1 5 134 0c0,-2 2,-5 3,-8 2,-2 3,-6 4,-9 -2,1 0,0 -4,0 -12,0 -33,0 -46,0 -3,0 -14,2 -14,-1 -3,1 -5,6 -6,8 -2,3 -4,6 -8,7 0,-7 3,-22 -1,-28 1,4 1,1 0,3l-64 0z"/>
   <path class="fil7" d="M4882 4285c0,-16 1,-38 -6,-49 -3,-4 -1,-2 -4,-5 -2,-1 -2,-1 -4,-2 -4,-1 -7,-1 -12,-1 -8,0 -15,4 -20,8 -11,11 -7,29 -3,44 2,7 0,5 21,5 10,0 19,0 28,0z"/>
   <path class="fil7" d="M4884 4221c0,7 0,20 1,27 1,3 5,20 6,21l28 0c0,-8 2,-17 2,-26 0,-4 0,-8 1,-13 1,-3 2,-9 2,-13 -2,2 -2,6 -2,8l-37 0 -1 -3c0,-1 0,-1 0,-1z"/>
   <path class="fil5" d="M5915 4147l2 0c0,3 0,4 0,7 -1,4 0,3 0,6 4,6 1,21 1,28 4,-1 6,-4 8,-7 1,-2 3,-7 6,-8 0,-3 7,-13 9,-15 1,-1 2,-2 3,-3 3,-2 10,-5 12,-8 -4,-1 -10,-5 -13,-7 -9,-7 -19,-31 -27,-33 0,7 2,15 1,22 0,3 -2,6 -2,8 -1,3 0,7 0,10z"/>
   <path class="fil9" d="M4880 4197l49 0c3,-7 5,-16 6,-25l-57 0c0,4 1,8 1,13 0,5 0,8 1,12z"/>
   <path class="fil10" d="M4891 4145c0,2 -6,1 -10,9 -4,7 -3,10 -3,18l57 0c0,-4 2,-14 1,-17 0,-3 -2,-5 -3,-7 -2,-1 -5,-2 -6,-4 -10,5 -26,4 -36,1z"/>
   <path class="fil10" d="M5956 4147c-2,3 -9,6 -12,8 -1,1 -2,2 -3,3 -2,2 -9,12 -9,15 0,3 11,1 14,1 13,0 34,0 46,0 4,0 2,1 4,0 3,-6 3,-19 -3,-25 -2,-2 -2,-1 -2,-3 -3,2 -3,3 -7,5 -8,3 -17,1 -25,-2 0,0 -1,0 -2,0l-1 -2z"/>
   <path class="fil7" d="M5561 4209c5,-2 28,0 30,-1 2,-1 2,-5 4,-9 4,-7 16,-20 7,-31 -8,-9 -26,0 -30,7 -5,7 -6,17 -8,25 -1,3 -2,6 -3,9z"/>
   <path class="fil5" d="M6019 3612c5,-14 10,-15 10,-27 2,-21 -5,-37 -10,-55 -1,-5 0,-3 -4,-5 -8,-5 -6,-22 -9,-28 -4,26 3,61 8,88 1,8 3,20 5,27z"/>
   <path class="fil7" d="M5458 4184c3,10 7,11 7,23l52 0c2,-1 1,-1 2,-1 1,-6 -5,-12 -5,-26 -1,2 -1,3 -1,5 -2,-2 -10,-1 -13,-1 -11,0 -28,1 -38,0 -2,0 -2,0 -4,0z"/>
   <path class="fil8" d="M4884 4221c0,0 0,0 0,1l1 3 37 0c0,-2 0,-6 2,-8 -2,-8 4,-13 5,-20l-49 0c0,8 5,17 4,24z"/>
   <path class="fil8" d="M5458 4184c2,0 2,0 4,0 10,1 27,0 38,0 3,0 11,-1 13,1 0,-2 0,-3 1,-5 0,-4 1,-6 -2,-8 -1,0 -1,0 -2,0 -2,-1 -4,-1 -6,-1l2 -11c-9,0 -33,2 -40,0 1,3 1,0 2,4 2,3 4,4 6,7 -14,1 -16,-1 -16,7 0,2 1,5 0,6z"/>
   <path class="fil7" d="M5268 4196c1,1 0,0 1,1 0,0 1,1 2,1 4,3 7,6 9,11 1,3 1,5 1,8l1 0c5,1 -3,0 1,0l36 0c2,-10 6,-12 -2,-20 -2,-2 -1,-2 -3,-3l0 2 -46 0z"/>
   <path class="fil8" d="M5268 4196l46 0 0 -2c-2,-2 -4,-4 -7,-7 -2,-3 -4,-5 -4,-11 -4,0 -41,1 -41,0 -3,1 -3,2 -4,5 -1,2 -1,5 0,7 1,4 7,6 10,8z"/>
   <path class="fil10" d="M5851 4148c0,2 1,3 2,6 1,3 1,5 0,9l64 0c1,-2 1,1 0,-3 0,-3 -1,-2 0,-6 0,-3 0,-4 0,-7l-2 0c-4,4 -24,3 -32,3 -9,0 -24,0 -32,-2z"/>
   <path class="fil9" d="M5449 4145c2,3 6,5 9,8 3,2 5,5 8,7 7,2 31,0 40,0 -1,-9 1,-7 -11,-15l-4 -4c-1,-1 0,1 0,-1 -4,2 -4,3 -9,5 -3,1 -6,2 -10,3 -9,0 -15,0 -23,-3z"/>
   <path class="fil10" d="M5272 4142c0,3 -1,5 0,8 0,1 2,5 2,6l2 2c1,1 14,0 17,0 5,0 17,1 20,-1 2,-3 3,-9 0,-12 -3,-2 -10,-3 -11,-3 -2,-1 -1,0 -1,-1 -3,0 -6,1 -8,1 -3,1 -5,1 -7,2 -6,1 -11,1 -14,-2z"/>
   <path class="fil9" d="M5262 4176c0,1 37,0 41,0 3,-3 9,-12 10,-19 -3,2 -15,1 -20,1 -3,0 -16,1 -17,0l-2 -2c1,3 1,6 2,9l1 9c-5,1 -10,0 -15,2z"/>
   <path class="fil5" d="M5471 3833c0,-1 0,-1 1,-2l1 -14c0,-6 0,-11 0,-17 0,-6 0,-11 0,-17 -1,-9 0,-14 -4,-15l-7 23c1,2 2,4 3,7 2,10 0,29 6,35z"/>
  </g>
  <path class="fil11 str0" d="M4600 2977l81 -213 31 0 87 213 -32 0 -25 -65 -89 0 -23 65 -30 0zm61 -88l72 0 -22 -59c-7,-17 -12,-32 -15,-44 -3,14 -7,28 -12,41l-23 62zm161 -125l137 0 0 25 -109 0 0 188 -28 0 0 -213zm160 0l26 0 0 168 113 -168 28 0 0 213 -26 0 0 -168 -112 168 -29 0 0 -213zm267 213l0 -188 -70 0 0 -25 168 0 0 25 -70 0 0 188 -28 0zm94 0l82 -213 31 0 86 213 -32 0 -24 -65 -90 0 -23 65 -30 0zm62 -88l72 0 -22 -59c-7,-17 -12,-32 -15,-44 -3,14 -7,28 -12,41l-23 62zm160 -125l28 0 0 188 111 0 0 -188 28 0 0 188 19 0 0 84 -25 0 0 -59 -161 0 0 -213zm220 0l25 0 0 168 113 -168 28 0 0 213 -25 0 0 -168 -113 168 -28 0 0 -213zm381 213l0 -213 -95 0c-19,0 -33,2 -43,6 -10,4 -17,10 -23,20 -6,10 -9,20 -9,32 0,15 5,28 14,38 10,11 25,17 46,20 -8,3 -13,7 -17,10 -9,8 -16,17 -24,29l-36 58 35 0 28 -45c8,-12 15,-22 20,-29 5,-7 10,-11 14,-14 5,-3 9,-5 13,-6 3,0 9,-1 16,-1l32 0 0 95 29 0zm-29 -119l-60 0c-13,0 -23,-1 -30,-4 -7,-3 -13,-7 -16,-13 -4,-6 -6,-12 -6,-19 0,-10 4,-18 11,-25 7,-6 19,-9 34,-9l67 0 0 70z"/>
  <g id="_670651446032">
   <path class="fil12 str1" d="M5383 3231c315,0 570,247 570,552 0,304 -255,551 -570,551 -315,0 -570,-247 -570,-551 0,-305 255,-552 570,-552z"/>
   <path class="fil12 str2" d="M5804 3411l-761 815"/>
  </g>
 </g>
</svg>
