<?xml version="1.0" encoding="UTF-8"?>
<!DOCTYPE svg PUBLIC "-//W3C//DTD SVG 1.0//EN" "http://www.w3.org/TR/2001/REC-SVG-20010904/DTD/svg10.dtd">
<!-- Creator: CorelDRAW X7 -->
<svg xmlns="http://www.w3.org/2000/svg" xml:space="preserve" width="200mm" height="200mm" version="1.0" style="shape-rendering:geometricPrecision; text-rendering:geometricPrecision; image-rendering:optimizeQuality; fill-rule:evenodd; clip-rule:evenodd"
viewBox="0 0 20000 20000"
 xmlns:xlink="http://www.w3.org/1999/xlink">
 <defs>
  <style type="text/css">
   <![CDATA[
    .str6 {stroke:#024541;stroke-width:75}
    .str8 {stroke:#024541;stroke-width:50}
    .str4 {stroke:#024541;stroke-width:25}
    .str9 {stroke:#3497A1;stroke-width:25}
    .str2 {stroke:#3696A0;stroke-width:25}
    .str1 {stroke:#2B2A29;stroke-width:10}
    .str0 {stroke:#5B5B5B;stroke-width:7.62}
    .str3 {stroke:#2E99A3;stroke-width:7.62}
    .str5 {stroke:#024541;stroke-width:75;stroke-linecap:round;stroke-linejoin:round}
    .str7 {stroke:#CC7588;stroke-width:150;stroke-linecap:round;stroke-linejoin:round}
    .fil7 {fill:none}
    .fil38 {fill:#FEFEFE}
    .fil13 {fill:#C5C6C6}
    .fil21 {fill:#F9CCC3}
    .fil9 {fill:#E31E24}
    .fil28 {fill:#F7CBA8}
    .fil31 {fill:#EDC3A0}
    .fil15 {fill:#EBECEC}
    .fil34 {fill:#B9687A}
    .fil16 {fill:#B83633}
    .fil29 {fill:#CAA483}
    .fil23 {fill:#B7B0A7}
    .fil18 {fill:#ACC1CB}
    .fil32 {fill:#9AADB5}
    .fil30 {fill:#6C5C49}
    .fil25 {fill:#758E9C}
    .fil26 {fill:#6E8695}
    .fil10 {fill:#444342}
    .fil24 {fill:#433F3E}
    .fil20 {fill:#3EA8DF}
    .fil27 {fill:#3F3C3A}
    .fil19 {fill:#2F2D2B}
    .fil33 {fill:#2797CE}
    .fil47 {fill:#005D9F}
    .fil44 {fill:#0088CB}
    .fil11 {fill:#0E1111}
    .fil45 {fill:#151515}
    .fil8 {fill:#1884F0}
    .fil39 {fill:#204182}
    .fil12 {fill:#212226}
    .fil46 {fill:#30913D}
    .fil4 {fill:#3497A1}
    .fil54 {fill:#3696A0}
    .fil14 {fill:#434244}
    .fil52 {fill:#656666}
    .fil6 {fill:#7C8E97}
    .fil50 {fill:#878888}
    .fil1 {fill:#8A771A}
    .fil53 {fill:#8E9FC0}
    .fil49 {fill:#9A3849}
    .fil51 {fill:#AC9F3C}
    .fil41 {fill:#B0DFF8}
    .fil42 {fill:#BFC7CA}
    .fil43 {fill:#CC2022}
    .fil40 {fill:#E3E7E9}
    .fil2 {fill:#E9E5D3}
    .fil48 {fill:#F8E447}
    .fil3 {fill:#FDF3BE}
    .fil35 {fill:#FFCA9C}
    .fil5 {fill:white}
    .fil22 {fill:#CC7588;fill-rule:nonzero}
    .fil37 {fill:#B9687A;fill-rule:nonzero}
    .fil17 {fill:#4D897C;fill-rule:nonzero}
    .fil36 {fill:#024541;fill-rule:nonzero}
    .fil0 {fill:url(#id0)}
   ]]>
  </style>
  <radialGradient id="id0" gradientUnits="userSpaceOnUse" gradientTransform="matrix(1.41421 -0 -0 1.41421 -4131 -4154)" cx="9974.09" cy="10029.4" r="10000" fx="9974.09" fy="10029.4">
   <stop offset="0" style="stop-opacity:1; stop-color:#FEFEFE"/>
   <stop offset="0.439216" style="stop-opacity:1; stop-color:#FEFEFE"/>
   <stop offset="1" style="stop-opacity:1; stop-color:#D1E2F2"/>
  </radialGradient>
 </defs>
 <g id="Layer_x0020_1">
  <metadata id="CorelCorpID_0Corel-Layer"/>
  <path class="fil0" d="M-26 29l20000 0 0 20000 -20000 0 0 -20000z"/>
  <g id="_776340546256">
   <g>
    <path class="fil1" d="M10523 3136l-24 0 0 -661 24 0 0 661z"/>
    <path class="fil2 str0" d="M13039 5893l-5036 0 0 -2109 5036 0 0 2109z"/>
    <path class="fil2" d="M9018 3966l1492 -852 1514 852 -3006 0z"/>
    <path class="fil3 str0" d="M9018 3966l16 28 1476 -842 1387 781 -2879 0 0 33 16 28 -16 -28 0 33 3132 0 -1640 -923 -1617 923 125 0 0 -33z"/>
    <path class="fil4 str0" d="M11950 5749l-2859 0 0 -1728 2859 0 0 1728z"/>
    <path class="fil3 str0" d="M12140 4249l-3238 0 0 -265 3238 0 0 265z"/>
    <path class="fil5" d="M10283 3721c87,131 265,167 396,79 132,-88 167,-265 80,-397 -88,-131 -266,-166 -397,-79 -131,88 -167,265 -79,397z"/>
    <path class="fil1" d="M10283 3721l-16 11c58,88 155,136 254,136 58,0 117,-17 169,-52 88,-59 136,-156 136,-254 0,-58 -16,-117 -51,-169 -59,-89 -156,-136 -255,-136 -58,0 -117,16 -169,51 -88,59 -136,156 -136,254 0,59 17,118 52,170l16 -11 16 -11c-30,-46 -45,-97 -45,-148 0,-86 42,-170 119,-222 45,-30 97,-44 147,-44 87,0 171,41 222,118 31,46 45,97 45,148 0,86 -41,170 -118,222 -46,30 -97,45 -148,45 -86,0 -171,-42 -222,-119l-16 11z"/>
    <path class="fil6" d="M10501 3566l16 -11 126 188 -16 11 -126 -188z"/>
    <path class="fil6" d="M10518 3576l-17 -10 113 -196 17 10 -113 196z"/>
    <path class="fil3 str0" d="M9269 5893l-338 0 0 -144 338 0 0 144z"/>
    <path class="fil3 str0" d="M9232 5800l-257 0 22 -1561 213 0 22 1561z"/>
    <path class="fil3 str0" d="M9226 4224c-16,0 -235,0 -252,0 -40,0 -73,33 -73,73 0,41 33,73 73,73 27,0 50,-14 63,-35l127 0c13,21 36,35 62,35 41,0 73,-32 73,-73 0,-40 -32,-73 -73,-73z"/>
    <path class="fil3 str0" d="M12110 5893l-338 0 0 -144 338 0 0 144z"/>
    <path class="fil3 str0" d="M12072 5800l-257 0 22 -1561 213 0 22 1561z"/>
    <path class="fil3 str0" d="M12067 4224c-17,0 -236,0 -252,0 -41,0 -73,33 -73,73 0,41 32,73 73,73 26,0 49,-14 62,-35l127 0c13,21 36,35 63,35 40,0 73,-32 73,-73 0,-40 -33,-73 -73,-73z"/>
    <path class="fil3 str0" d="M11163 5893l-338 0 0 -144 338 0 0 144z"/>
    <path class="fil3 str0" d="M11125 5800l-257 0 22 -1561 213 0 22 1561z"/>
    <path class="fil3 str0" d="M11120 4224c-17,0 -236,0 -252,0 -41,0 -73,33 -73,73 0,41 32,73 73,73 26,0 49,-14 62,-35l128 0c12,21 35,35 62,35 40,0 73,-32 73,-73 0,-40 -33,-73 -73,-73z"/>
    <path class="fil3 str0" d="M10216 5893l-338 0 0 -144 338 0 0 144z"/>
    <path class="fil3 str0" d="M10179 5800l-257 0 22 -1561 213 0 22 1561z"/>
    <path class="fil3 str0" d="M10173 4224c-16,0 -236,0 -252,0 -40,0 -73,33 -73,73 0,41 33,73 73,73 27,0 50,-14 62,-35l128 0c12,21 36,35 62,35 40,0 73,-32 73,-73 0,-40 -33,-73 -73,-73z"/>
    <path class="fil4" d="M8310 5574l-131 0 0 -1204 131 0 0 1204z"/>
    <path class="fil4" d="M8564 5574l-131 0 0 -1204 131 0 0 1204z"/>
    <path class="fil4" d="M8817 5574l-131 0 0 -1204 131 0 0 1204z"/>
    <path class="fil4" d="M12343 5574l-130 0 0 -1204 130 0 0 1204z"/>
    <path class="fil4" d="M12597 5574l-131 0 0 -1204 131 0 0 1204z"/>
    <path class="fil4" d="M12850 5574l-130 0 0 -1204 130 0 0 1204z"/>
    <path class="fil7 str1" d="M10520 2480l661 0 0 130 -661 0 0 -130z"/>
    <path class="fil8 str1" d="M10520 2608l661 0 0 129 -661 0 0 -129z"/>
    <path class="fil9 str1" d="M10520 2735l661 0 0 130 -661 0 0 -130z"/>
   </g>
   <path class="fil4 str2" d="M9908 6711c0,36 -12,67 -38,92 -25,26 -56,39 -92,39l-130 0c-36,0 -66,-13 -92,-38 -26,-25 -39,-56 -39,-93l0 -391c0,-36 13,-67 38,-92 26,-26 56,-38 93,-38l130 0c36,0 67,12 92,38 26,25 38,56 38,92l0 391zm-65 1l0 -392c0,-19 -6,-34 -18,-47 -12,-12 -28,-18 -47,-18l-130 0c-19,0 -34,6 -47,18 -6,7 -11,14 -14,21 -3,8 -5,17 -5,26l0 392c0,18 6,34 19,46 6,6 13,11 21,14 9,3 18,5 26,5l130 0c18,0 33,-6 46,-18 13,-12 19,-28 19,-47zm704 97c0,10 -2,19 -8,25 -7,5 -15,8 -24,8 -8,0 -15,-3 -22,-8 -7,-6 -10,-14 -10,-25l0 -465 -135 225c-8,14 -18,21 -29,21 -9,0 -18,-7 -28,-21l-135 -225 0 465c0,10 -3,19 -10,25 -6,5 -13,8 -23,8 -8,0 -16,-3 -23,-8 -6,-6 -9,-14 -9,-25l0 -583c0,-13 3,-22 9,-28 6,-7 13,-10 21,-10 6,0 11,1 15,4 5,4 10,9 15,17l168 279 168 -279c7,-14 18,-21 31,-21 7,0 14,3 21,10 6,7 8,16 8,28l0 583zm424 33l-163 0c-36,0 -66,-13 -92,-38 -26,-25 -39,-56 -39,-93l0 -391c0,-36 13,-67 38,-92 25,-26 56,-38 93,-38l163 0c9,0 16,3 23,10 6,6 9,14 9,22 0,8 -2,15 -8,22 -5,7 -13,11 -24,11l-164 0c-18,0 -34,6 -46,18 -7,7 -11,14 -14,21 -3,8 -5,17 -5,26l0 392c0,18 6,34 19,46 6,6 13,11 21,14 9,3 17,5 25,5l164 0c9,0 16,3 23,10 6,6 9,14 9,22 0,8 -2,15 -8,22 -5,7 -13,11 -24,11zm488 -261l-195 0c-36,0 -66,-13 -92,-38 -26,-26 -39,-56 -39,-93l0 -228c0,-8 3,-16 10,-24 6,-5 14,-8 23,-8 8,0 16,2 22,8 7,5 10,14 10,24l0 229c0,18 6,33 19,46 6,6 13,10 21,14 9,3 18,5 25,5l196 0 0 -294c0,-8 3,-16 10,-24 6,-5 14,-8 23,-8 8,0 16,2 22,8 7,5 10,14 10,24l0 489c0,36 -13,67 -38,92 -25,26 -56,39 -92,39l-163 0c-10,0 -18,-3 -24,-9 -6,-7 -9,-15 -9,-24 0,-7 3,-15 9,-22 6,-7 14,-10 24,-10l163 0c18,0 34,-6 46,-18 13,-12 19,-28 19,-47l0 -131z"/>
  </g>
  <path class="fil10" d="M10561 8490c-2,-85 -5,-169 -8,-254 0,-13 0,-25 0,-38 4,97 6,195 8,292zm4 362c0,4 -1,8 -2,10 0,2 0,5 0,7 -5,-4 -9,-8 -14,-12 -3,-6 -1,-20 -2,-27 0,-3 0,-7 -1,-11 2,11 3,21 4,32 1,8 12,7 15,1zm-27 -304c0,-37 -1,-74 -1,-111 0,-40 1,-80 2,-120 2,113 4,227 7,341 -3,-37 -6,-73 -8,-110zm-13 126c1,41 3,81 5,122 0,1 0,2 0,4 -2,-42 -4,-84 -5,-126zm141 -547c-20,-51 -42,-100 -64,-149 -13,-42 -27,-83 -40,-125 -4,-12 -21,-7 -19,5 0,4 1,7 2,11 0,0 0,0 0,1 -1,1 -2,2 -2,4 -1,2 -2,3 -3,5 -1,0 -2,-1 -3,-1 0,-1 0,-1 0,-2 0,0 0,-1 0,-1 5,-10 -10,-20 -15,-10 -1,1 -1,2 -1,2 -3,2 -5,5 -5,8 -7,14 -15,28 -23,42 -16,26 -31,52 -44,79 -28,49 -53,99 -73,151 -4,10 11,17 16,8 2,-4 4,-9 7,-13 0,0 0,0 0,0 -1,3 -2,6 -3,8 -2,10 13,18 18,8 3,-8 7,-16 11,-24 2,-1 3,-2 4,-4 4,-7 7,-14 11,-21 0,1 1,2 1,2 1,3 4,4 7,3 1,0 2,0 3,0 7,-2 4,-13 -3,-12 9,-1 22,-45 26,-54 4,-10 9,-20 14,-30 12,-23 23,-45 35,-68 -1,21 -2,42 -3,62 -27,290 -25,581 1,871 1,9 15,10 14,1 0,-11 -1,-22 -2,-33 5,27 15,51 41,39 3,-1 4,-4 4,-7 3,-303 -5,-607 -21,-910 25,61 51,121 77,181 4,9 15,6 18,-1 6,-1 10,-6 8,-12 -1,-1 -1,-2 -1,-2 5,-2 9,-6 7,-12z"/>
  <path class="fil10" d="M5424 8588c-43,-60 -86,-120 -130,-180 -6,-9 -12,-18 -19,-27 50,68 100,137 149,207zm179 259c2,3 3,5 3,8 2,1 3,3 4,5 -5,-1 -11,-1 -16,-2 -5,-3 -11,-14 -14,-18 -2,-3 -4,-6 -6,-8 6,7 12,14 18,21 4,5 12,-1 11,-6zm-168 -207c-18,-26 -37,-53 -55,-79 -19,-29 -38,-58 -57,-88 57,81 114,162 172,243 -21,-25 -40,-50 -60,-76zm53 98c20,28 41,57 62,85 1,1 2,2 2,3 -22,-29 -43,-58 -64,-88zm-166 -464c-39,-26 -79,-51 -119,-75 -30,-24 -60,-48 -90,-71 -8,-6 -18,5 -11,13 2,2 5,4 7,6 0,1 0,1 0,2 0,1 0,2 1,3 0,2 0,4 1,5 -1,0 -2,0 -3,1 -1,-1 -1,-1 -2,-1 0,-1 0,-1 0,-1 -1,-10 -16,-10 -15,1 0,0 0,1 0,1 -1,3 -1,6 0,8 2,14 3,28 4,42 1,26 3,52 7,78 4,49 10,97 21,145 2,9 16,6 15,-3 0,-4 -1,-8 -1,-12 0,0 0,0 0,0 1,2 1,5 2,7 3,8 18,7 16,-3 -1,-8 -2,-15 -3,-23 1,-1 1,-3 1,-5 -1,-6 -2,-13 -2,-20 0,0 1,1 1,1 2,1 5,1 7,-1 0,-1 1,-1 2,-2 4,-5 -3,-12 -8,-7 5,-5 -7,-43 -8,-51 -2,-10 -3,-20 -5,-29 -2,-22 -5,-44 -7,-66 9,15 18,31 28,46 122,222 265,431 426,628 5,6 15,-1 10,-7 -6,-8 -11,-15 -17,-22 16,17 35,28 48,7 1,-2 1,-5 0,-6 -146,-221 -300,-436 -460,-646 48,31 96,62 145,93 6,4 13,-3 12,-10 3,-3 4,-9 -1,-12 0,-1 -1,-1 -1,-1 3,-4 4,-9 -1,-13z"/>
  <g id="_776340542128">
   <path class="fil7 str3" d="M15711 3377l24 29c-18,68 -6,7 -25,40 -33,59 -50,512 -53,595 -3,62 -4,79 -49,137l-26 26c-77,-30 -54,-135 -48,-201 20,-191 6,-314 85,-461 48,-90 -1,-99 63,-173 18,-19 8,-11 23,-33 -18,-8 -18,-5 -35,-21 -36,-34 19,44 -23,-34 -70,16 -179,95 -247,133 22,58 -37,142 -52,171 -2,3 -4,6 -5,9 -13,28 -6,13 -12,42 -29,143 11,121 -5,279 -14,134 -49,470 -19,571 44,147 59,35 21,254 -4,26 -8,21 -2,45 20,78 3,24 35,47 -8,-79 1,-154 6,-232 3,-51 29,-173 54,-208 206,91 402,-1 597,-36 12,16 6,3 19,26 12,23 46,190 25,230 -23,44 -31,-38 -61,112 18,20 8,7 21,18l26 23c-37,44 -7,92 0,149 32,-97 81,-51 169,-90 23,18 4,-10 13,37 48,-41 6,-137 47,-269 68,-221 101,-697 26,-823l-56 26c3,4 18,17 19,19 13,24 12,-11 0,19 -87,-45 -103,-189 -74,-250l83 5c-7,-52 -34,-80 -58,-131 -43,-92 24,-56 -118,-136 -56,-31 -23,-30 -81,-46 -37,-10 -50,2 -76,-18 -24,-18 -16,-27 -40,-63 -14,65 23,17 -43,68 -13,10 -32,18 -54,30 -113,61 -85,41 -94,85z"/>
   <path class="fil11" d="M16048 4914c-45,19 -14,8 -40,38l-80 81c-20,22 -8,28 -72,52 -35,13 -38,10 -84,-4 -49,-15 -66,-14 -103,-46 2,0 6,-1 7,-1l23 0c10,1 38,10 40,10l29 1c3,-1 7,-3 9,-4 42,-20 -7,21 24,-25 -46,-6 -90,-2 -126,-29 48,-9 73,-11 117,-30 -4,-3 -8,-6 -12,-8 -62,-33 -46,-14 -112,-25 31,-23 70,-23 101,-38 -24,-21 32,-4 -41,-20l-183 -10c-95,117 28,-11 -83,80 3,2 8,3 11,4l60 20c-70,2 -95,-19 -126,30l138 20c-41,23 -13,5 -45,8 -61,4 -31,12 -57,16l-12 0c-2,0 -6,-1 -8,-2 -2,0 -6,-2 -8,-3 -19,-5 8,-3 -23,-7l-6 31c-13,90 82,493 100,625 14,98 50,218 43,313 -8,119 -23,229 26,326l-18 18c-12,15 -5,1 -15,20 -24,47 1,91 -96,141 -72,38 -193,51 -157,131 17,20 92,20 126,15 37,-5 84,-12 121,-19 76,-14 126,-46 219,-56 -15,66 -64,110 -14,160 54,36 176,4 222,-37 19,-16 75,-166 81,-205 14,-110 -62,-50 2,-210 21,-51 50,-188 56,-245 16,-161 -7,-404 -11,-572 -2,-86 27,-159 30,-251 12,-347 -45,-276 129,-346 -9,-47 10,-19 -13,-37 -88,39 -137,-7 -169,90z"/>
   <path class="fil12" d="M15361 4832c1,71 -4,174 25,221l6 -31c31,4 4,2 23,7 2,1 6,3 8,3 2,1 6,2 8,2l12 0c26,-4 -4,-12 57,-16 32,-3 4,15 45,-8l-138 -20c31,-49 56,-28 126,-30l-60 -20c-3,-1 -8,-2 -11,-4 111,-91 -12,37 83,-80l183 10c73,16 17,-1 41,20 -31,15 -70,15 -101,38 66,11 50,-8 112,25 4,2 8,5 12,8 -44,19 -69,21 -117,30 36,27 80,23 126,29 -31,46 18,5 -24,25 -2,1 -6,3 -9,4l-29 -1c-2,0 -30,-9 -40,-10l-23 0c-1,0 -5,1 -7,1 37,32 54,31 103,46 46,14 49,17 84,4 64,-24 52,-30 72,-52l80 -81c26,-30 -5,-19 40,-38 -7,-57 -37,-105 0,-149l-26 -23c-13,-11 -3,2 -21,-18 30,-150 38,-68 61,-112 21,-40 -13,-207 -25,-230 -13,-23 -7,-10 -19,-26 -195,35 -391,127 -597,36 -25,35 -51,157 -54,208 -5,78 -14,153 -6,232z"/>
   <path class="fil12" d="M15542 2945c58,-25 138,-28 213,-20 114,13 112,-6 128,109 42,-28 3,-29 73,-39 318,-103 -209,-643 -444,-319 -104,144 -2,227 30,269z"/>
   <path class="fil13" d="M15542 2945c42,126 -13,141 57,232 27,35 55,72 48,104 42,78 -13,0 23,34 17,16 17,13 35,21 -15,22 -5,14 -23,33l29 8c9,-44 -19,-24 94,-85 22,-12 41,-20 54,-30 66,-51 29,-3 43,-68 2,-100 78,-49 54,-199 -70,10 -31,11 -73,39 -16,-115 -14,-96 -128,-109 -75,-8 -155,-5 -213,20z"/>
   <path class="fil12" d="M15711 3377l-29 -8c-64,74 -15,83 -63,173 -79,147 -65,270 -85,461 -6,66 -29,171 48,201l26 -26c45,-58 46,-75 49,-137 3,-83 20,-536 53,-595 19,-33 7,28 25,-40l-24 -29z"/>
   <path class="fil14" d="M16303 3769l-28 -181 -83 -5c-29,61 -13,205 74,250 12,-30 13,5 0,-19 -1,-2 -16,-15 -19,-19l56 -26z"/>
  </g>
  <path class="fil10" d="M14760 8588c43,-60 86,-120 129,-180 7,-9 13,-18 20,-27 -51,68 -100,137 -149,207zm-179 259c-2,3 -3,5 -4,8 -1,1 -2,3 -3,5 5,-1 10,-1 16,-2 5,-3 10,-14 14,-18 2,-3 4,-6 6,-8 -6,7 -12,14 -18,21 -5,5 -13,-1 -11,-6zm168 -207c18,-26 36,-53 54,-79 20,-29 39,-58 58,-88 -57,81 -115,162 -172,243 20,-25 40,-50 60,-76zm-53 98c-21,28 -41,57 -63,85 0,1 -1,2 -2,3 22,-29 44,-58 65,-88zm166 -464c39,-26 78,-51 119,-75 29,-24 59,-48 89,-71 9,-6 19,5 12,13 -3,2 -5,4 -7,6 0,1 0,1 -1,2 1,1 0,2 0,3 -1,2 -1,4 -1,5 1,0 2,0 3,1 0,-1 1,-1 1,-1 0,-1 0,-1 0,-1 2,-10 17,-10 16,1 0,0 0,1 0,1 1,3 1,6 -1,8 -1,14 -2,28 -4,42 0,26 -3,52 -6,78 -4,49 -10,97 -21,145 -2,9 -17,6 -15,-3 0,-4 0,-8 1,-12 0,0 0,0 0,0 -1,2 -2,5 -2,7 -4,8 -18,7 -17,-3 2,-8 3,-15 4,-23 -1,-1 -1,-3 -1,-5 1,-6 1,-13 2,-20 0,0 -1,1 -2,1 -2,1 -4,1 -6,-1 0,-1 -1,-1 -2,-2 -4,-5 3,-12 8,-7 -6,-5 6,-43 8,-51 1,-10 3,-20 4,-29 3,-22 5,-44 8,-66 -9,15 -19,31 -28,46 -122,222 -266,431 -426,628 -5,6 -16,-1 -10,-7 5,-8 11,-15 17,-22 -16,17 -35,28 -48,7 -2,-2 -1,-5 0,-6 146,-221 299,-436 459,-646 -48,31 -96,62 -144,93 -6,4 -13,-3 -12,-10 -3,-3 -4,-9 0,-12 1,-1 2,-1 2,-1 -3,-4 -4,-9 1,-13z"/>
  <path class="fil15" d="M20586 17229l0 0 -1 -5 1 5zm-173 0l0 0 1 -5 -1 5z"/>
  <path class="fil16" d="M20586 17229l-173 0 1 -5 171 0 1 5z"/>
  <g>
   <path class="fil17" d="M6403 15216c-39,0 -70,-30 -70,-68 0,-38 31,-69 70,-69l0 137zm7142 0l-7142 0 0 -137 7142 0 0 137zm0 -137c39,0 70,31 70,69 0,38 -31,68 -70,68l0 -137z"/>
  </g>
  <path class="fil18" d="M9026 13735c0,0 -595,142 -595,177 0,37 226,1207 226,1207l808 0 92 -1201 -531 -183z"/>
  <path class="fil19" d="M8597 13330l0 193 185 1596 -318 0 -350 -711 334 -223 -409 -191 376 -583 182 -81z"/>
  <path class="fil19" d="M9450 13331l0 192 -187 1596 318 0 350 -711 -334 -223 409 -191 -334 -565 -222 -98z"/>
  <path class="fil20 str4" d="M8943 14092l-147 1027 454 0 -147 -1027 -160 0z"/>
  <g>
   <path class="fil21" d="M12532 13978l346 0 0 -156 256 0 0 216 303 487c45,71 74,129 88,174 14,45 20,104 20,178l0 271 -1680 0 0 -271c0,-115 38,-234 115,-357l297 -482 0 -216 255 0 0 156z"/>
   <path id="1" class="fil22" d="M12878 14050l-346 0 0 -143 346 0 72 71 -72 72zm0 -143c39,0 72,32 72,71 0,40 -33,72 -72,72l0 -143zm72 -85l0 156 -144 0 0 -156 72 -71 72 71zm-144 0c0,-39 32,-71 72,-71 39,0 72,32 72,71l-144 0zm328 72l-256 0 0 -143 256 0 71 71 -71 72zm0 -143c39,0 71,32 71,71 0,40 -32,72 -71,72l0 -143zm-72 287l0 -216 143 0 0 216 -132 38 -11 -38zm143 0c0,40 -32,72 -71,72 -40,0 -72,-32 -72,-72l143 0zm172 525l-304 -487 121 -76 304 487 -121 76 0 0zm121 -76c21,33 11,78 -23,98 -33,21 -77,11 -98,-22l121 -76zm95 191l-137 42 0 0 -1 -4 -1 -3 -1 -4 -1 -3 -2 -4 -1 -4 -2 -4 -1 -4 -2 -4 -2 -4 -2 -5 -2 -4 -2 -5 -3 -5 -2 -4 -2 -5 -3 -5 -2 -5 -3 -6 -3 -5 -3 -5 -3 -6 -3 -5 -3 -6 -4 -6 -3 -5 -3 -6 -4 -6 -4 -6 -4 -7 -3 -6 -4 -6 121 -76 4 7 4 6 5 7 4 7 4 7 3 6 4 7 4 6 4 6 3 7 4 6 3 6 3 6 3 6 4 6 3 6 3 6 2 6 3 6 3 6 2 5 3 6 2 5 3 6 2 5 2 6 2 5 2 6 2 5 2 5 2 5 1 6 0 0zm0 0c12,37 -9,78 -47,89 -38,12 -78,-9 -90,-47l137 -42zm24 199l-143 0 0 0 0 -6 0 -7 0 -6 0 -6 -1 -6 0 -6 0 -6 0 -6 -1 -6 0 -5 0 -6 -1 -5 0 -6 -1 -5 0 -5 -1 -5 0 -5 -1 -4 -1 -5 0 -5 -1 -4 -1 -5 -1 -4 0 -4 -1 -4 -1 -4 -1 -4 -1 -4 -1 -3 -1 -4 -1 -3 -1 -3 137 -42 2 5 1 5 2 6 1 5 2 6 1 5 1 6 1 5 1 6 1 6 1 6 1 6 1 6 1 6 1 6 0 6 1 6 1 6 0 7 1 6 0 7 1 6 0 7 1 7 0 7 0 6 0 7 1 7 0 7 0 7 0 8 0 7 0 0zm0 0c0,40 -32,72 -72,72 -39,0 -71,-32 -71,-72l143 0zm-143 271l0 -271 143 0 0 271 -72 71 -71 -71zm143 0c0,39 -32,71 -72,71 -39,0 -71,-32 -71,-71l143 0zm-1752 -72l1680 0 0 143 -1680 0 -72 -71 72 -72zm0 143c-40,0 -72,-32 -72,-71 0,-40 32,-72 72,-72l0 143zm71 -342l0 271 -143 0 0 -271 0 0 143 0zm-143 0c0,-40 32,-72 72,-72 39,0 71,32 71,72l-143 0zm126 -395l122 76 0 0 -7 11 -6 10 -6 11 -6 11 -6 10 -5 11 -6 10 -5 10 -5 11 -4 10 -5 10 -4 11 -4 10 -3 10 -4 10 -3 10 -3 10 -3 10 -3 9 -2 10 -3 10 -2 10 -2 9 -1 10 -2 9 -1 10 -1 9 -1 10 -1 9 0 9 0 10 -1 9 -143 0 0 -12 1 -13 0 -12 1 -12 1 -12 2 -13 1 -12 2 -12 3 -13 2 -12 3 -12 2 -13 4 -12 3 -13 4 -12 3 -12 5 -13 4 -12 5 -12 4 -13 5 -12 6 -12 5 -13 6 -12 6 -12 6 -13 7 -12 6 -12 7 -13 7 -12 8 -12 7 -13 0 0zm0 0c21,-33 65,-44 99,-23 33,21 44,65 23,99l-122 -76zm419 -406l-297 482 -122 -76 297 -481 132 37 -10 38zm-122 -75c20,-34 65,-44 98,-24 34,21 44,65 24,99l-122 -75zm132 -179l0 216 -143 0 0 -216 72 -71 71 71zm-143 0c0,-39 32,-71 72,-71 39,0 71,32 71,71l-143 0zm327 72l-255 0 0 -143 255 0 72 71 -72 72zm0 -143c40,0 72,32 72,71 0,40 -32,72 -72,72l0 -143zm-71 227l0 -156 143 0 0 156 -72 72 -71 -72zm143 0c0,40 -32,72 -72,72 -39,0 -71,-32 -71,-72l143 0z"/>
  </g>
  <path class="fil23 str5" d="M11758 12989l0 622c0,257 -247,463 -549,463l-1131 0 0 1074 0 0 -2603 0 0 -1234c0,-258 247,-469 549,-469l482 -137 561 1344 412 -1366 512 159 292 0c131,0 216,51 286,124 91,95 485,-83 485,62l0 -642 704 0z"/>
  <g>
   <path class="fil24" d="M8902 11068l104 160c53,0 106,0 160,0l103 -160 -181 -197 -186 197z"/>
   <path class="fil24" d="M9006 11228l-147 1028 454 0 -147 -1028 -160 0z"/>
   <path class="fil25" d="M9088 10871l0 0c0,0 0,0 0,0l0 0z"/>
   <path class="fil26" d="M9166 11234l0 0 0 -6 0 6zm-161 0l0 0 1 -6 -1 6z"/>
   <path class="fil27" d="M9166 11234l-161 0 1 -6 160 0 0 6z"/>
   <path class="fil15" d="M6919 13575l0 0 -1 -5 1 5zm-162 0l0 0 1 -5 -1 5z"/>
   <path class="fil28 str6" d="M8597 12550l0 651 0 322c235,277 618,287 853,0l0 -322 0 -651c0,-526 -853,-526 -853,0z"/>
   <path class="fil28 str6" d="M8135 11938c75,-25 170,61 213,190 43,130 16,256 -59,280 -75,25 -170,-60 -213,-190 -43,-130 -17,-255 59,-280z"/>
   <path class="fil28 str6" d="M9909 11938c-76,-25 -171,61 -214,190 -43,130 -16,256 59,280 75,25 170,-60 213,-190 43,-130 17,-255 -58,-280z"/>
   <path class="fil20 str4" d="M8840 13932l103 160c54,0 107,0 160,0l104 -160 -181 -197 -186 197z"/>
   <path class="fil29" d="M9034 13320c-4,0 -8,0 -11,0 -208,-10 -426,-268 -426,-268l0 -31 853 1 0 47c0,0 -212,251 -416,251z"/>
   <path class="fil28 str6" d="M9024 10803c-1311,0 -809,1796 -723,1934 95,151 511,486 723,486 212,0 629,-335 723,-486 86,-138 588,-1934 -723,-1934z"/>
   <path class="fil30 str6" d="M8941 11187c-7,-2 -15,-4 -22,-6 11,2 22,5 33,8 -4,0 -7,-1 -11,-2zm671 -342c-443,-349 -1126,-141 -1333,149 -290,408 -106,1329 -106,1329 1,4 2,8 3,12 1,4 8,13 10,16 25,46 27,-113 26,-118 -5,-57 -17,-112 -25,-168 41,-262 164,-317 228,-632 14,-21 28,-41 43,-61 18,-23 36,-45 57,-65 12,-6 22,-14 33,-22 238,-87 484,18 709,109 86,35 182,77 277,70 41,-4 72,-30 75,-64 108,322 196,472 249,708 -7,41 -15,82 -19,125 0,0 -2,73 0,109 0,3 1,5 3,6 6,3 22,7 24,3 1,-3 9,-12 9,-16 5,-15 5,-29 6,-45 3,-20 6,-42 9,-65 69,-256 194,-1270 -278,-1380z"/>
   <path class="fil31" d="M9026 13735l0 0 -429 -534 0 -12 429 530 424 -530 0 12 -424 534z"/>
   <path class="fil32" d="M9104 14097l0 0 -1 -5 1 5zm-161 0l0 0 0 -5 0 5z"/>
   <path class="fil33" d="M9104 14097l-161 0 0 -5 160 0 1 5z"/>
   <path class="fil15" d="M7424 13478l0 0 0 -6 0 6zm-161 0l0 0 1 -6 -1 6z"/>
   <path class="fil34" d="M13020 14265l0 99 -144 0 0 -99 144 0zm-485 341l0 99 -145 0 0 -99 145 0zm241 0l0 99 -142 0 0 -99 142 0zm244 0l0 99 -144 0 0 -99 144 0zm-485 -171l0 100 -145 0 0 -100 145 0zm241 0l0 100 -142 0 0 -100 142 0zm244 0l0 100 -144 0 0 -100 144 0zm-485 -170l0 99 -145 0 0 -99 145 0zm241 0l0 99 -142 0 0 -99 142 0z"/>
   <g>
    <path class="fil21" d="M11284 11670l-101 0c-100,0 -173,-29 -219,-88 -46,-58 -69,-151 -69,-279 0,-93 16,-155 46,-189 31,-33 89,-49 174,-49l109 0c-27,85 -41,161 -41,230 0,129 34,254 101,375zm391 1620c-115,68 -300,114 -446,138 -17,-74 -31,-148 -31,-221 0,-144 17,-386 187,-386 125,0 188,-189 188,-566 0,-390 -63,-585 -189,-585l-101 0c-77,-129 -100,-249 -100,-375 0,-75 14,-156 41,-230 137,23 327,70 451,139 60,160 104,326 134,499 29,173 44,352 44,538 0,192 -15,376 -44,550 -30,175 -74,341 -134,499zm-446 138l-139 0c-78,0 -131,-16 -160,-50 -29,-33 -43,-94 -43,-184 0,-127 22,-221 67,-282 44,-61 112,-91 204,-91l136 0c-64,120 -96,248 -96,386 0,80 11,153 31,221z"/>
    <path id="1" class="fil22" d="M11183 11598l101 0 0 144 -101 0 0 0 0 -144zm0 144c-39,0 -71,-33 -71,-72 0,-40 32,-72 71,-72l0 144zm-275 -115l112 -89 0 0 3 4 3 3 3 3 3 4 3 3 4 2 3 3 4 3 3 3 4 2 4 3 4 2 5 2 4 2 5 3 5 2 5 1 5 2 5 2 6 2 6 1 5 1 7 2 6 1 7 1 6 1 7 1 8 0 7 1 7 0 8 0 8 0 0 144 -10 -1 -11 0 -10 0 -11 -1 -10 -1 -10 -1 -10 -1 -10 -2 -10 -2 -9 -2 -10 -2 -9 -2 -9 -3 -10 -3 -9 -3 -8 -3 -9 -4 -9 -4 -8 -4 -9 -5 -8 -4 -8 -5 -7 -5 -8 -6 -7 -5 -8 -6 -7 -6 -6 -7 -7 -6 -6 -7 -6 -7 -6 -7 0 0zm0 0c-25,-31 -19,-76 12,-101 31,-24 76,-19 100,12l-112 89zm-84 -324l143 0 0 0 0 11 0 11 1 10 0 11 1 10 0 10 1 9 1 10 1 9 1 9 1 9 2 8 1 9 2 8 1 7 2 8 2 7 2 7 2 7 2 6 2 6 2 6 3 6 2 6 3 5 2 5 3 5 2 4 3 5 3 4 2 4 3 3 -112 89 -6 -8 -5 -7 -6 -8 -5 -8 -4 -9 -5 -8 -4 -9 -4 -8 -4 -9 -4 -9 -3 -10 -4 -9 -3 -10 -3 -9 -2 -10 -3 -10 -2 -10 -3 -11 -2 -10 -2 -11 -1 -11 -2 -11 -1 -11 -2 -11 -1 -12 -1 -12 0 -11 -1 -12 -1 -13 0 -12 0 -13 0 -12 0 0zm0 0c0,-40 32,-72 71,-72 40,0 72,32 72,72l-143 0zm64 -237l106 97 0 0 -1 1 -1 1 -1 1 -1 2 -1 1 -1 2 -1 2 -1 3 -1 2 -2 3 -1 3 -1 4 -1 3 -1 4 -2 4 -1 4 -1 5 -1 5 -1 5 -1 5 0 5 -1 6 -1 6 0 6 -1 6 -1 7 0 7 0 7 -1 7 0 7 0 8 0 8 -143 0 0 -10 0 -9 0 -9 1 -9 0 -8 1 -9 0 -9 1 -8 1 -8 1 -8 1 -8 1 -8 1 -8 2 -7 1 -8 2 -7 2 -8 2 -7 2 -7 2 -7 3 -7 3 -7 2 -6 3 -7 4 -6 3 -7 4 -6 4 -6 4 -6 4 -6 5 -6 4 -5 0 0zm0 0c27,-29 73,-31 102,-4 29,27 31,72 4,101l-106 -97zm227 -73l0 143 0 0 -7 0 -7 1 -6 0 -7 0 -6 0 -6 1 -6 0 -6 1 -5 1 -5 0 -5 1 -5 1 -4 1 -5 1 -4 1 -4 1 -3 1 -4 1 -3 1 -3 2 -3 1 -2 1 -3 1 -2 1 -2 1 -1 1 -2 1 -1 1 -2 1 -1 1 0 1 -1 1 -106 -97 6 -5 5 -5 5 -5 6 -5 6 -4 6 -4 6 -4 6 -4 7 -3 6 -3 7 -4 6 -2 7 -3 7 -2 7 -3 7 -2 7 -2 7 -1 8 -2 7 -2 8 -1 8 -1 7 -1 8 -1 8 -1 8 -1 8 0 9 -1 8 0 9 -1 8 0 9 0 0 0zm0 0c40,0 72,32 72,72 0,39 -32,71 -72,71l0 -143zm109 143l-109 0 0 -143 109 0 68 94 -68 49zm0 -143c39,0 71,32 71,72 0,39 -32,71 -71,71l0 -143zm30 302l-143 0 0 0 0 -7 0 -8 1 -7 0 -8 0 -7 1 -8 0 -7 1 -8 1 -7 1 -8 1 -8 1 -7 1 -8 1 -8 1 -8 2 -8 1 -7 2 -8 1 -8 2 -8 2 -8 1 -8 2 -8 2 -9 3 -8 2 -8 2 -8 2 -9 3 -8 2 -8 3 -9 2 -8 137 44 -2 7 -3 7 -2 8 -2 7 -2 7 -2 7 -2 7 -2 8 -1 6 -2 7 -2 7 -1 7 -2 7 -1 6 -1 7 -1 7 -2 6 -1 6 -1 7 -1 6 0 6 -1 7 -1 6 0 6 -1 6 0 6 -1 6 0 5 0 6 0 6 -1 5 0 6 0 0zm0 0c0,40 -32,72 -71,72 -40,0 -72,-32 -72,-72l143 0zm30 447l0 -144 -62 107 -7 -12 -6 -13 -7 -12 -6 -12 -6 -13 -5 -12 -6 -12 -5 -13 -5 -13 -5 -12 -5 -13 -4 -12 -4 -13 -4 -13 -4 -13 -4 -13 -3 -12 -3 -13 -3 -13 -3 -13 -3 -13 -2 -13 -2 -13 -2 -13 -1 -13 -2 -14 -1 -13 -1 -13 -1 -13 0 -13 -1 -14 0 -13 143 0 0 11 1 11 0 11 1 11 1 10 1 11 1 11 1 11 2 10 1 11 2 11 2 10 3 11 2 11 3 10 2 11 3 10 3 11 4 11 3 10 4 11 4 10 4 11 4 10 5 11 4 10 5 11 5 10 5 11 6 10 5 11 6 10 -63 107zm63 -107c19,34 7,78 -28,97 -34,20 -78,7 -97,-27l125 -70zm-188 1809l140 -31 -82 -55 13 -2 14 -3 14 -2 14 -3 14 -3 14 -3 14 -3 14 -3 15 -3 14 -4 15 -3 14 -4 15 -3 14 -4 14 -4 14 -4 14 -5 14 -4 14 -4 14 -5 13 -4 13 -5 13 -5 13 -5 12 -5 12 -5 12 -5 11 -5 11 -6 10 -5 10 -6 9 -5 73 123 -12 7 -13 7 -13 7 -13 7 -14 6 -14 6 -14 6 -14 6 -15 6 -14 5 -15 6 -15 5 -15 5 -16 5 -15 4 -15 5 -16 5 -15 4 -16 4 -15 4 -16 4 -15 4 -16 3 -15 4 -16 3 -15 3 -15 4 -15 2 -15 3 -15 3 -14 3 -14 2 -82 -55zm82 55c-39,7 -76,-20 -83,-59 -6,-39 20,-76 59,-82l24 141zm-114 -292l143 0 0 0 0 6 0 6 0 6 0 6 1 6 0 7 1 6 0 6 1 6 0 6 1 7 1 6 0 6 1 7 1 6 1 7 1 6 1 7 1 6 1 7 1 6 2 7 1 6 1 7 2 7 1 6 1 7 2 7 1 6 2 7 1 7 2 7 -140 31 -2 -7 -1 -7 -2 -7 -1 -7 -2 -8 -1 -7 -2 -7 -1 -7 -2 -8 -1 -7 -1 -7 -2 -8 -1 -7 -1 -7 -1 -8 -2 -7 -1 -8 -1 -7 -1 -8 -1 -7 0 -7 -1 -8 -1 -7 -1 -8 0 -7 -1 -8 0 -8 -1 -7 0 -8 0 -7 0 -8 0 -8 0 0zm0 0c0,-39 32,-71 71,-71 40,0 72,32 72,71l-143 0zm258 -458l0 143 0 0 -9 1 -8 1 -6 1 -6 3 -6 2 -5 3 -6 4 -5 5 -5 5 -5 7 -5 7 -5 9 -5 9 -4 10 -5 11 -4 12 -4 12 -3 13 -3 14 -3 14 -3 14 -2 15 -2 14 -1 15 -1 15 -2 15 0 15 -1 14 -1 14 0 14 0 14 0 13 -143 0 0 -14 0 -15 0 -16 1 -16 1 -16 1 -17 1 -17 1 -17 2 -17 2 -18 3 -18 3 -18 4 -17 4 -18 5 -18 5 -17 6 -17 7 -18 7 -16 9 -17 9 -16 11 -15 12 -15 13 -14 15 -13 16 -12 17 -11 19 -9 20 -7 20 -5 22 -3 22 -1 0 0zm0 0c39,0 72,32 72,72 0,39 -33,71 -72,71l0 -143zm117 -494l143 0 0 0 0 35 -1 35 -1 33 -1 33 -2 31 -2 31 -2 29 -3 28 -4 28 -3 26 -5 25 -4 25 -5 23 -6 23 -5 21 -7 21 -7 20 -8 19 -8 18 -9 17 -9 16 -11 16 -12 14 -12 14 -14 12 -14 12 -16 9 -17 9 -17 6 -18 5 -19 2 -18 1 0 -143 5 0 4 -1 3 -1 4 -1 3 -2 4 -2 4 -3 5 -4 4 -5 5 -7 6 -8 5 -9 5 -10 6 -12 5 -13 5 -14 5 -16 5 -17 4 -19 5 -19 3 -21 4 -23 3 -23 3 -25 3 -25 2 -27 2 -29 2 -29 1 -31 1 -31 0 -33 1 -34 0 0zm0 0c0,-40 32,-72 71,-72 40,0 72,32 72,72l-143 0zm-118 -513l0 -144 0 0 19 1 18 3 19 5 17 7 17 8 16 10 15 12 13 13 13 14 11 14 11 16 9 17 9 18 9 18 7 20 7 20 7 21 6 22 5 24 5 24 5 25 4 26 3 27 4 28 3 29 2 31 2 31 2 32 1 34 1 34 1 36 0 37 -143 0 -1 -35 0 -35 -1 -32 -1 -32 -2 -30 -2 -30 -2 -28 -3 -26 -3 -26 -3 -24 -4 -23 -4 -22 -4 -20 -4 -20 -5 -17 -5 -17 -5 -15 -6 -14 -5 -12 -6 -11 -5 -9 -5 -8 -6 -7 -4 -6 -5 -4 -4 -3 -4 -3 -3 -1 -4 -2 -3 -1 -4 0 -5 0 0 0zm0 0c-39,0 -72,-33 -72,-72 0,-40 33,-72 72,-72l0 144zm-101 -144l101 0 0 144 -101 0 -62 -36 62 -108zm0 144c-40,0 -72,-33 -72,-72 0,-40 32,-72 72,-72l0 144zm-172 -447l143 0 0 0 0 11 1 11 0 11 0 10 1 11 1 11 1 10 1 11 1 10 1 11 2 10 2 10 2 11 2 10 2 10 3 11 2 10 3 11 3 10 3 10 4 11 4 10 4 11 4 10 4 11 5 10 5 11 5 11 6 11 6 11 6 11 6 11 -123 72 -8 -13 -7 -13 -7 -13 -7 -13 -6 -13 -6 -13 -6 -13 -5 -13 -6 -13 -5 -13 -4 -13 -5 -13 -4 -13 -4 -13 -3 -13 -3 -13 -3 -12 -3 -13 -3 -13 -2 -13 -2 -13 -2 -12 -2 -13 -2 -13 -1 -12 -1 -13 -1 -13 -1 -12 0 -13 -1 -13 0 -12 0 -13 0 0zm0 0c0,-40 32,-72 72,-72 39,0 71,32 71,72l-143 0zm125 -301l-24 141 79 -45 -2 6 -2 6 -3 6 -2 6 -2 7 -1 6 -2 6 -2 7 -2 6 -1 7 -2 6 -1 7 -2 6 -1 7 -1 6 -1 7 -2 6 -1 7 -1 6 0 7 -1 7 -1 6 -1 7 0 6 -1 7 0 6 -1 6 0 7 0 6 0 6 -1 7 0 6 -143 0 0 -8 0 -8 1 -8 0 -8 0 -8 1 -8 0 -8 1 -8 1 -8 1 -8 1 -8 1 -8 1 -8 1 -8 1 -8 2 -8 1 -8 2 -8 1 -8 2 -8 2 -8 2 -8 2 -8 2 -8 2 -8 2 -8 2 -8 3 -8 2 -8 3 -7 3 -8 3 -8 79 -46zm-79 46c13,-37 54,-56 91,-42 38,13 57,54 43,92l-134 -50zm585 139l-134 51 32 37 -11 -6 -10 -6 -12 -5 -11 -6 -12 -5 -13 -5 -12 -6 -13 -5 -14 -5 -13 -5 -14 -5 -14 -4 -14 -5 -14 -4 -14 -5 -14 -4 -15 -4 -14 -4 -15 -4 -14 -4 -15 -3 -14 -4 -15 -3 -14 -3 -14 -4 -14 -3 -14 -2 -13 -3 -14 -3 -13 -2 -13 -2 -12 -3 24 -141 13 3 14 2 14 3 14 2 15 3 14 3 15 3 15 4 16 3 15 4 15 4 16 3 16 4 15 5 16 4 15 4 16 5 16 5 15 5 16 5 15 5 15 5 16 6 15 6 14 6 15 6 15 6 14 6 14 7 13 7 14 7 13 7 32 37zm-32 -37c35,20 47,63 27,98 -19,34 -63,46 -97,27l70 -125zm169 549l-141 24 0 0 -3 -16 -3 -16 -2 -15 -3 -16 -3 -16 -4 -15 -3 -16 -3 -15 -4 -16 -3 -15 -4 -15 -3 -16 -4 -15 -4 -15 -4 -16 -4 -15 -4 -15 -4 -15 -5 -15 -4 -15 -4 -15 -5 -15 -4 -15 -5 -15 -5 -15 -5 -14 -5 -15 -5 -15 -5 -15 -5 -14 -6 -15 -5 -14 134 -51 6 16 5 15 6 16 5 15 6 16 5 15 5 16 5 15 5 16 5 16 5 16 5 16 4 15 5 16 4 16 4 16 5 16 4 16 4 16 4 16 4 17 3 16 4 16 4 16 3 17 4 16 3 16 3 17 3 16 3 17 3 16 3 17 0 0zm0 0c7,39 -19,76 -58,82 -39,7 -76,-19 -83,-58l141 -24zm45 550l-143 0 0 0 0 -17 0 -17 0 -17 -1 -17 0 -17 -1 -17 0 -17 -1 -17 0 -16 -1 -17 -1 -17 -1 -16 -1 -17 -1 -16 -2 -17 -1 -16 -1 -17 -2 -16 -1 -16 -2 -17 -2 -16 -1 -16 -2 -16 -2 -17 -2 -16 -2 -16 -3 -16 -2 -16 -2 -16 -3 -16 -2 -16 -3 -15 141 -24 3 16 3 17 2 17 3 16 2 17 2 17 3 17 2 17 2 17 2 17 2 17 2 17 1 17 2 17 1 17 2 17 1 17 2 17 1 18 1 17 1 17 1 18 1 17 0 18 1 17 1 18 0 17 0 18 1 17 0 18 0 18 0 18 0 0zm0 0c0,39 -32,71 -71,71 -40,0 -72,-32 -72,-71l143 0zm-45 562l-141 -23 0 0 3 -16 2 -17 3 -16 2 -16 2 -16 3 -16 2 -17 2 -16 2 -16 2 -17 1 -16 2 -17 2 -17 1 -16 2 -17 1 -17 1 -17 2 -17 1 -17 1 -17 1 -17 1 -17 1 -17 0 -17 1 -18 0 -17 1 -17 0 -18 1 -18 0 -17 0 -18 0 -17 143 0 0 18 0 18 0 19 -1 18 0 18 0 18 -1 18 -1 18 0 18 -1 18 -1 18 -1 18 -1 18 -1 17 -2 18 -1 17 -2 18 -1 18 -2 17 -1 17 -2 18 -2 17 -2 17 -2 18 -2 17 -3 17 -2 17 -2 17 -3 17 -2 17 -3 16 -3 17 0 0zm0 0c-6,39 -43,66 -82,59 -39,-7 -66,-43 -59,-82l141 23zm-168 548l-73 -123 -30 36 5 -14 6 -15 5 -14 5 -15 5 -14 5 -15 5 -14 5 -15 5 -15 4 -15 5 -14 4 -15 5 -15 4 -15 4 -15 4 -15 4 -16 4 -15 4 -15 4 -15 3 -16 4 -15 3 -16 4 -15 3 -16 3 -15 3 -16 4 -16 3 -16 2 -16 3 -15 3 -16 141 23 -3 17 -3 17 -3 16 -3 17 -3 17 -3 16 -4 17 -3 16 -4 16 -4 17 -3 16 -4 16 -4 16 -4 17 -4 16 -5 16 -4 16 -4 16 -5 15 -4 16 -5 16 -5 16 -5 15 -5 16 -5 16 -5 15 -5 16 -6 15 -5 15 -6 16 -5 15 -6 15 -31 36zm31 -36c-14,37 -56,56 -93,42 -36,-15 -55,-56 -41,-93l134 51zm-652 42l139 0 0 143 -139 0 0 0 0 -143zm0 143c-40,0 -72,-32 -72,-72 0,-39 32,-71 72,-71l0 143zm-214 -75l108 -94 0 0 1 1 1 1 1 1 1 1 1 1 1 1 2 1 1 1 2 1 2 1 2 1 3 1 2 1 3 1 3 1 3 2 3 1 4 0 4 1 4 1 4 1 4 1 5 1 4 0 5 1 5 0 6 1 5 0 6 0 6 1 6 0 6 0 0 143 -8 0 -8 0 -8 -1 -8 0 -8 0 -8 -1 -7 -1 -8 -1 -7 -1 -8 -1 -7 -1 -7 -2 -7 -1 -7 -2 -7 -2 -7 -2 -6 -2 -7 -2 -7 -3 -6 -3 -6 -3 -7 -3 -6 -3 -6 -4 -6 -3 -6 -4 -5 -4 -6 -5 -5 -4 -5 -5 -5 -5 -5 -6 0 0zm0 0c-26,-29 -23,-75 7,-101 30,-26 75,-22 101,7l-108 94zm-61 -231l144 0 0 0 0 7 0 8 0 7 0 7 0 7 1 6 0 7 1 6 0 6 1 6 1 5 1 6 1 5 0 5 1 5 1 4 1 4 1 4 2 4 1 4 1 3 1 3 1 3 1 3 1 2 1 2 2 2 1 2 1 1 0 1 1 1 1 1 -108 94 -5 -5 -4 -6 -4 -6 -4 -5 -3 -6 -4 -7 -3 -6 -3 -6 -3 -7 -3 -6 -2 -7 -2 -7 -2 -6 -2 -7 -2 -7 -2 -7 -2 -8 -1 -7 -2 -8 -1 -7 -1 -8 -1 -8 -1 -8 -1 -8 0 -8 -1 -8 -1 -8 0 -9 0 -9 0 -8 -1 -9 0 -9 0 0zm0 0c0,-40 32,-72 72,-72 39,0 72,32 72,72l-144 0zm81 -324l116 85 0 0 -3 4 -3 4 -3 4 -2 5 -3 5 -3 5 -2 5 -3 6 -2 5 -2 6 -3 7 -2 6 -2 7 -2 7 -2 7 -2 7 -1 8 -2 7 -2 9 -1 8 -1 8 -2 9 -1 9 -1 9 -1 10 0 9 -1 10 -1 10 0 10 0 11 0 11 0 11 -144 0 0 -13 1 -12 0 -13 0 -12 1 -12 1 -11 1 -12 1 -11 1 -12 2 -11 1 -11 2 -10 2 -11 2 -11 2 -10 2 -10 3 -10 2 -10 3 -10 3 -9 3 -10 4 -9 3 -9 4 -9 4 -9 4 -8 4 -9 5 -8 4 -8 5 -8 5 -8 6 -8 0 0zm0 0c23,-32 68,-39 100,-15 32,23 39,68 16,100l-116 -85zm262 -121l0 143 0 0 -7 0 -7 1 -6 0 -7 0 -6 1 -6 1 -6 1 -6 1 -5 1 -6 1 -5 2 -5 1 -5 2 -5 1 -4 2 -5 2 -4 2 -4 2 -4 2 -4 3 -4 2 -3 2 -4 3 -3 3 -4 3 -3 3 -3 3 -3 3 -3 3 -4 4 -3 4 -2 4 -116 -85 5 -7 6 -7 6 -7 6 -7 7 -7 6 -6 7 -6 7 -6 7 -6 8 -5 7 -5 8 -5 8 -5 8 -5 8 -4 9 -4 8 -3 9 -4 9 -3 9 -3 9 -2 9 -3 9 -2 9 -2 10 -2 9 -1 10 -1 10 -1 9 -1 10 0 10 -1 10 0 0 0zm0 0c40,0 72,32 72,72 0,39 -32,71 -72,71l0 -143zm136 143l-136 0 0 -143 136 0 63 105 -63 38zm0 -143c39,0 71,32 71,72 0,39 -32,71 -71,71l0 -143zm-24 458l-143 0 0 0 0 -14 0 -14 1 -13 0 -14 1 -14 1 -14 2 -13 1 -14 2 -13 2 -14 2 -13 2 -14 3 -13 3 -14 2 -13 4 -13 3 -13 4 -13 3 -13 4 -13 4 -13 5 -13 4 -13 5 -12 5 -13 5 -13 6 -12 5 -13 6 -12 6 -12 6 -13 6 -12 127 67 -6 10 -5 11 -5 10 -5 11 -4 10 -5 11 -4 10 -4 11 -4 10 -4 11 -4 11 -3 11 -3 11 -4 10 -3 11 -2 11 -3 11 -2 11 -3 12 -2 11 -2 11 -2 11 -1 12 -2 11 -1 11 -1 12 -1 12 -1 11 0 12 -1 12 0 11 0 12 0 0zm0 0c0,40 -32,72 -72,72 -39,0 -71,-32 -71,-72l143 0zm-41 293l0 -143 -69 92 -2 -7 -2 -7 -2 -7 -2 -8 -1 -7 -2 -7 -2 -7 -1 -8 -2 -7 -1 -7 -2 -8 -1 -7 -1 -8 -2 -7 -1 -8 -1 -7 -1 -8 -1 -7 -1 -8 -1 -8 0 -7 -1 -8 -1 -8 0 -7 -1 -8 0 -8 0 -8 -1 -8 0 -8 0 -8 0 -8 0 -8 143 0 0 7 0 7 0 7 0 6 1 7 0 7 0 6 1 7 0 6 1 7 0 6 1 7 1 6 0 7 1 6 1 6 1 6 1 7 1 6 1 6 1 6 1 6 1 6 2 6 1 6 1 6 2 6 1 6 2 6 1 6 2 5 2 6 -69 92zm69 -92c11,38 -11,78 -49,89 -38,11 -77,-10 -89,-48l138 -41z"/>
   </g>
   <g>
    <path class="fil35" d="M11745 11755l0 -338c258,-81 303,86 303,210l0 759c1,209 45,327 -221,323 -28,-1 -125,-1 -152,-1 -232,1 -416,4 -416,-316 0,-77 -1,-410 0,-414 36,-207 229,-221 486,-223z"/>
    <path id="1" class="fil36" d="M11783 11417l0 338 -75 0 0 -338 26 -35 49 35zm-75 0c0,-21 17,-37 37,-37 21,0 38,16 38,37l-75 0zm377 210l-75 0 0 0 0 -11 0 -11 -1 -11 -1 -11 -1 -11 -2 -11 -2 -11 -3 -10 -2 -11 -4 -10 -3 -9 -5 -9 -4 -9 -5 -8 -6 -7 -6 -7 -6 -7 -7 -6 -7 -5 -8 -5 -9 -4 -10 -4 -11 -3 -12 -2 -12 -1 -14 -1 -16 0 -16 2 -18 2 -20 4 -20 5 -22 7 -23 -70 25 -8 24 -6 23 -4 22 -3 21 -2 20 0 20 0 18 3 18 3 16 5 16 6 15 7 14 8 13 9 11 10 11 10 10 12 8 12 8 12 7 13 6 13 5 13 4 13 4 14 3 13 3 13 2 14 2 13 1 14 1 13 0 12 0 13 0 0zm0 0c0,20 -16,37 -37,37 -21,0 -38,-17 -38,-37l75 0zm-74 759l-1 -759 75 0 1 759 0 0 -75 0zm75 0c0,20 -17,37 -38,37 -20,0 -37,-17 -37,-37l75 0zm-260 359l1 -73 0 0 23 0 21 -1 19 -1 18 -2 15 -2 14 -3 12 -4 10 -4 9 -4 8 -4 6 -5 5 -4 5 -5 4 -6 4 -6 3 -7 2 -8 3 -9 2 -10 1 -10 2 -12 0 -12 1 -14 0 -14 0 -15 -1 -15 0 -17 -1 -17 0 -18 -1 -18 0 -19 0 -20 75 0 0 19 0 18 1 18 0 18 1 17 0 17 1 16 0 16 0 16 -1 15 -1 15 -1 14 -2 15 -3 14 -4 13 -5 14 -6 13 -7 12 -8 12 -10 11 -12 10 -12 9 -14 8 -15 7 -16 6 -17 5 -18 4 -19 3 -21 2 -22 2 -24 0 -25 0 0 0zm0 0c-21,0 -37,-17 -37,-37 0,-20 17,-37 38,-36l-1 73zm-150 0l-1 -73 0 0 3 0 3 0 3 -1 4 0 4 0 5 0 4 0 5 0 5 0 6 0 5 0 6 0 5 0 6 0 6 0 6 0 5 0 6 0 6 0 6 0 5 0 6 0 5 1 5 0 5 0 5 0 4 0 5 0 3 0 4 0 3 0 3 0 -1 73 -3 0 -3 0 -3 0 -4 0 -4 0 -4 0 -5 0 -5 0 -5 0 -5 0 -6 0 -5 0 -6 0 -6 0 -6 0 -5 0 -6 0 -6 0 -6 0 -5 0 -6 0 -5 0 -6 0 -5 0 -5 0 -4 0 -4 0 -5 0 -3 0 -4 0 -3 0 -2 0 0 0zm0 0c-21,0 -38,-16 -38,-37 0,-20 17,-36 37,-36l1 73zm-455 -354l75 1 0 0 1 27 1 26 3 24 3 22 4 20 5 18 6 17 6 15 7 14 8 12 8 11 9 10 9 9 10 8 10 7 12 6 12 6 13 5 13 4 15 4 15 4 16 3 17 2 17 2 18 1 19 1 19 1 20 0 20 1 21 0 21 0 21 0 1 73 -22 0 -22 0 -21 0 -21 0 -21 -1 -20 0 -20 -2 -20 -1 -20 -2 -19 -3 -19 -3 -18 -4 -19 -5 -17 -6 -18 -7 -17 -8 -16 -9 -15 -11 -15 -12 -14 -13 -13 -14 -12 -16 -10 -18 -10 -18 -8 -20 -8 -22 -6 -22 -5 -24 -4 -26 -2 -27 -2 -29 -1 -31 0 0zm0 0c0,-20 17,-36 38,-36 21,0 37,16 37,37l-75 -1zm1 -419l74 12 0 0 0 -4 0 3 0 5 0 6 0 8 0 9 0 11 0 12 0 13 0 14 0 14 0 16 0 16 0 16 0 17 0 18 0 17 0 18 0 18 0 17 0 18 0 17 0 16 0 16 0 16 0 14 0 14 0 13 0 12 0 10 0 10 0 8 -75 -1 0 -7 0 -10 0 -10 0 -12 0 -13 0 -13 0 -15 0 -16 0 -16 0 -16 0 -17 0 -18 0 -17 0 -18 0 -17 0 -18 0 -17 0 -18 0 -16 0 -16 0 -16 0 -14 0 -14 0 -13 0 -12 0 -11 0 -9 0 -8 0 -7 0 -5 0 -4 1 -6 0 0zm0 0c4,-20 23,-34 43,-30 21,3 34,22 31,42l-74 -12zm486 -217l75 0 -37 37 -24 0 -23 1 -23 0 -23 1 -22 0 -21 1 -21 2 -20 1 -19 2 -19 2 -18 3 -18 3 -17 3 -16 4 -15 5 -15 4 -14 6 -13 5 -12 6 -12 7 -11 7 -10 8 -9 8 -9 9 -8 10 -7 11 -7 11 -6 12 -6 13 -4 15 -5 15 -3 17 -74 -12 4 -21 6 -20 6 -19 8 -18 8 -17 10 -16 10 -15 12 -14 12 -13 14 -12 14 -11 15 -10 15 -9 17 -8 16 -7 18 -7 18 -6 18 -5 19 -4 19 -4 20 -4 20 -2 21 -3 21 -2 21 -2 22 -1 22 -1 23 -1 23 -1 23 0 24 0 24 0 -37 36zm37 -36c21,-1 38,16 38,36 0,20 -17,37 -37,37l-1 -73z"/>
   </g>
   <path class="fil7 str7" d="M11572 14778c0,-81 65,-147 146,-147 81,0 147,66 147,147"/>
   <g>
    <path class="fil37" d="M11415 14621c-28,28 -73,28 -101,0 -28,-28 -28,-73 0,-101l101 101zm208 -101l-102 101 0 0 -3 -3 -2 -2 -3 -3 -4 -2 -3 -2 -3 -1 -3 -2 -3 -1 -4 -2 -3 -1 -4 -1 -3 -1 -4 0 -3 -1 -4 0 -4 0 -3 0 -4 0 -3 1 -4 0 -3 1 -4 1 -3 1 -4 2 -3 1 -3 2 -4 1 -3 2 -3 2 -3 3 -3 2 -3 3 -101 -101 8 -8 9 -7 8 -7 9 -6 9 -6 10 -5 10 -5 9 -4 10 -4 10 -3 10 -3 11 -2 10 -2 11 -1 10 -1 10 0 11 0 10 1 11 1 10 2 10 2 10 3 10 3 10 4 10 4 10 5 9 5 9 6 9 6 9 7 8 7 9 8 0 0zm0 0c28,28 28,73 0,101 -28,28 -74,28 -102,0l102 -101zm0 308l-102 -101 3 -3 3 -3 2 -3 2 -3 2 -3 2 -3 1 -3 2 -4 1 -3 1 -4 1 -3 1 -4 0 -3 1 -4 0 -3 0 -4 0 -4 0 -3 -1 -4 0 -3 -1 -4 -1 -3 -1 -4 -1 -3 -2 -4 -1 -3 -2 -3 -2 -3 -2 -3 -2 -3 -3 -3 -3 -3 102 -101 7 8 7 8 7 9 6 9 6 9 5 10 5 9 4 10 4 10 3 10 3 10 2 10 2 11 1 10 1 11 0 10 0 10 -1 11 -1 10 -2 11 -2 10 -3 10 -3 10 -4 10 -4 10 -5 9 -5 10 -6 9 -6 9 -7 9 -7 8 -7 8zm0 0c-28,28 -74,28 -102,0 -28,-28 -28,-73 0,-101l102 101z"/>
   </g>
   <g>
    <path class="fil22" d="M11308 14357c-39,10 -78,-13 -88,-51 -10,-38 12,-78 50,-88l38 139zm230 15l-139 38 0 0 -1 -4 -1 -4 -2 -3 -1 -4 -2 -3 -2 -3 -2 -3 -2 -3 -2 -3 -3 -3 -2 -2 -3 -3 -3 -2 -3 -2 -3 -2 -3 -2 -3 -2 -3 -1 -3 -2 -4 -1 -3 -1 -4 -1 -3 -1 -4 0 -3 -1 -4 0 -4 0 -3 0 -4 0 -4 1 -4 1 -3 1 -38 -139 11 -2 11 -2 11 -2 11 -1 11 0 11 0 10 1 11 1 10 2 11 2 10 2 10 4 10 3 9 4 10 5 9 5 9 5 8 6 9 7 8 6 8 7 7 8 7 8 7 8 6 8 6 9 6 10 5 9 5 10 4 10 3 11 4 10 0 0zm0 0c10,39 -13,78 -51,88 -38,10 -78,-12 -88,-50l139 -38zm-155 268l-37 -139 4 -1 4 -1 3 -2 4 -1 3 -2 3 -2 3 -2 3 -2 3 -2 2 -3 3 -2 2 -3 3 -3 2 -3 2 -3 2 -3 1 -3 2 -3 1 -3 2 -4 1 -3 1 -4 1 -3 0 -4 0 -3 1 -4 0 -4 0 -3 -1 -4 0 -4 -1 -4 -1 -3 139 -38 2 11 2 11 2 11 1 11 0 11 0 11 -1 10 -1 11 -2 10 -2 11 -3 10 -3 10 -4 10 -4 9 -4 10 -5 9 -6 9 -6 8 -6 9 -7 8 -7 8 -7 7 -8 7 -8 7 -9 6 -9 6 -9 6 -9 5 -10 5 -11 4 -10 3 -11 4zm0 0c-38,10 -77,-13 -87,-51 -11,-38 12,-78 50,-88l37 139z"/>
   </g>
   <g>
    <path class="fil37" d="M11232 14074c-39,10 -78,-13 -88,-51 -10,-38 12,-78 51,-88l37 139zm230 15l-139 38 0 0 -1 -4 -1 -4 -1 -3 -2 -4 -2 -3 -2 -3 -2 -3 -2 -3 -2 -3 -3 -3 -2 -2 -3 -3 -3 -2 -2 -2 -3 -2 -3 -2 -4 -2 -3 -1 -3 -2 -4 -1 -3 -1 -4 -1 -3 -1 -4 0 -3 -1 -4 0 -4 0 -3 0 -4 0 -4 1 -3 1 -4 1 -37 -139 10 -2 11 -2 11 -2 11 -1 11 0 11 0 10 1 11 1 11 2 10 2 10 3 10 3 10 3 10 4 9 5 9 5 9 5 9 6 8 7 8 6 8 7 7 8 7 8 7 8 6 8 6 9 6 10 5 9 5 10 4 10 4 11 3 10 0 0zm0 0c10,39 -13,78 -51,88 -38,10 -77,-12 -88,-50l139 -38zm-154 268l-38 -139 4 -1 4 -1 3 -2 4 -1 3 -2 3 -2 3 -2 3 -2 3 -2 3 -3 2 -2 3 -3 2 -3 2 -3 2 -3 2 -3 2 -3 1 -3 2 -3 1 -4 1 -3 1 -4 1 -3 0 -4 1 -3 0 -4 0 -4 0 -3 0 -4 -1 -4 -1 -4 -1 -3 139 -38 2 11 2 11 2 11 1 11 0 11 0 11 -1 10 -1 11 -2 10 -2 11 -3 10 -3 10 -3 10 -5 9 -4 10 -5 9 -6 9 -5 9 -7 8 -6 8 -7 8 -8 7 -8 7 -8 7 -9 6 -8 6 -10 6 -9 5 -10 5 -10 4 -11 3 -10 4zm0 0c-39,10 -78,-13 -88,-51 -10,-38 12,-78 50,-88l38 139z"/>
   </g>
   <g>
    <path class="fil22" d="M11195 14064c-39,-11 -61,-50 -51,-88 10,-38 49,-61 88,-51l-37 139zm128 -192l139 37 0 0 -3 11 -4 10 -4 11 -5 10 -5 9 -6 9 -6 9 -6 9 -7 8 -7 8 -7 7 -8 7 -8 7 -8 6 -9 6 -9 6 -9 5 -9 4 -10 4 -10 4 -10 3 -10 3 -10 2 -11 2 -11 1 -10 1 -11 0 -11 0 -11 -1 -11 -2 -11 -2 -10 -2 37 -139 4 1 3 1 4 0 4 1 3 0 4 0 4 0 3 -1 4 0 3 -1 4 -1 3 -1 4 -2 3 -1 3 -2 3 -1 4 -2 3 -2 2 -2 3 -3 3 -2 2 -3 3 -2 2 -3 2 -3 2 -3 2 -3 2 -4 2 -3 1 -3 1 -4 1 -4 0 0zm0 0c11,-38 50,-61 88,-50 38,10 61,49 51,87l-139 -37zm-53 -91l38 -139 10 3 11 4 10 4 10 5 9 5 10 5 8 6 9 7 8 7 8 7 8 7 7 8 6 8 7 8 5 9 6 9 5 9 4 9 5 10 3 10 3 10 3 10 2 10 2 11 1 10 1 11 0 11 0 11 -1 11 -2 11 -2 11 -2 10 -139 -37 1 -4 1 -3 1 -4 0 -4 0 -4 0 -3 0 -4 -1 -3 0 -4 -1 -3 -1 -4 -1 -3 -1 -4 -2 -3 -1 -3 -2 -4 -2 -3 -2 -3 -2 -3 -2 -2 -3 -3 -2 -3 -3 -2 -3 -2 -3 -2 -3 -2 -3 -2 -3 -2 -4 -2 -3 -1 -4 -1 -4 -1zm0 0c-38,-11 -60,-50 -50,-88 10,-38 49,-61 88,-51l-38 139z"/>
   </g>
   <g>
    <path class="fil37" d="M11232 13498c-39,10 -78,-13 -88,-51 -10,-38 12,-78 51,-88l37 139zm230 15l-139 37 0 0 -1 -3 -1 -4 -1 -3 -2 -4 -2 -3 -2 -3 -2 -3 -2 -3 -2 -3 -3 -3 -2 -2 -3 -3 -3 -2 -2 -2 -3 -2 -4 -2 -3 -2 -3 -1 -3 -2 -4 -1 -3 -1 -4 -1 -3 -1 -4 0 -3 -1 -4 0 -4 0 -3 0 -4 0 -4 1 -4 1 -3 1 -37 -139 10 -2 11 -2 11 -2 11 -1 11 0 11 0 10 1 11 1 11 2 10 2 10 2 10 4 10 3 10 4 9 5 9 5 9 5 9 6 8 7 8 6 8 7 7 8 7 8 7 8 7 8 5 9 6 10 5 9 5 10 4 10 4 11 3 10 0 0zm0 0c10,39 -13,78 -51,88 -38,10 -77,-12 -88,-51l139 -37zm-155 268l-37 -139 4 -1 4 -1 3 -2 4 -1 3 -2 3 -2 3 -2 3 -2 3 -2 3 -3 2 -2 3 -3 2 -3 2 -3 2 -3 2 -3 2 -3 1 -3 2 -3 1 -4 1 -3 1 -4 1 -3 0 -4 1 -3 0 -4 0 -4 0 -3 0 -4 -1 -4 -1 -4 -1 -4 139 -37 2 11 2 11 2 11 1 11 0 11 0 11 -1 10 -1 11 -2 10 -2 11 -3 10 -3 10 -3 10 -5 9 -4 10 -5 9 -6 9 -5 8 -7 9 -6 8 -7 8 -8 7 -8 7 -8 7 -9 6 -8 6 -10 6 -9 5 -10 5 -10 4 -11 3 -11 4zm0 0c-38,10 -77,-13 -87,-51 -10,-38 12,-78 50,-88l37 139z"/>
   </g>
   <path class="fil38 str8" d="M8597 13201l-91 170 158 730 362 -366 -429 -534z"/>
   <path class="fil38 str8" d="M9450 13201l29 143 -98 765 -355 -374 424 -534z"/>
  </g>
  <g>
   <path class="fil35" d="M7215 15145l932 0c0,-46 0,-108 0,-150 0,-211 -97,-326 -239,-365 -87,-24 -227,-24 -308,25 -58,35 -105,96 -104,142 -96,-117 -285,-9 -285,191 0,27 4,107 4,157z"/>
   <path id="1" class="fil36" d="M8147 15182l-932 0 0 -75 932 0 37 38 -37 37zm0 -75c20,0 37,17 37,38 0,21 -17,37 -37,37l0 -75zm-38 -112l75 0 0 0 0 4 0 4 0 4 0 4 0 5 0 4 0 5 0 5 0 4 0 5 0 5 0 5 0 5 0 5 0 5 0 5 0 5 0 5 0 5 0 5 0 4 0 5 0 5 0 5 0 5 0 5 0 4 0 5 0 5 0 4 0 5 0 4 -75 0 0 -4 0 -5 0 -4 0 -5 0 -5 0 -4 0 -5 0 -5 0 -5 0 -5 0 -5 0 -4 0 -5 0 -5 0 -5 0 -5 0 -5 0 -5 0 -5 0 -5 0 -5 0 -5 0 -5 0 -4 0 -5 0 -5 0 -4 0 -5 0 -4 0 -4 0 -4 0 -4 0 0zm0 0c0,-21 17,-38 38,-38 20,0 37,17 37,38l-75 0zm-211 -329l20 -73 0 0 15 5 14 5 14 5 14 6 13 6 13 7 13 7 12 8 13 9 11 9 12 10 10 10 11 11 10 11 10 12 9 12 8 13 8 14 8 14 7 14 6 15 6 16 6 16 5 16 4 17 4 18 3 18 3 19 2 19 1 19 1 20 0 21 -75 0 0 -19 -1 -17 -1 -18 -2 -16 -2 -16 -3 -16 -3 -14 -4 -15 -4 -13 -4 -14 -5 -12 -5 -12 -6 -12 -6 -11 -6 -11 -7 -10 -7 -9 -7 -9 -8 -9 -8 -8 -8 -8 -9 -8 -9 -7 -10 -6 -9 -7 -10 -5 -10 -6 -11 -5 -11 -5 -11 -4 -12 -4 -12 -3 0 0zm0 0c-20,-6 -31,-26 -26,-46 5,-20 26,-32 46,-27l-20 73zm-278 21l-39 -64 0 0 9 -5 10 -5 10 -5 9 -4 11 -4 10 -3 11 -3 10 -3 11 -3 11 -2 11 -2 11 -2 11 -1 11 -2 12 -1 11 0 11 -1 11 0 12 0 11 0 11 0 11 1 11 0 10 1 11 2 10 1 11 1 10 2 10 2 9 2 10 2 9 2 -20 73 -7 -2 -8 -2 -8 -2 -8 -1 -9 -2 -9 -1 -9 -1 -9 -1 -9 -1 -10 0 -9 -1 -10 0 -9 0 -10 0 -10 0 -10 1 -9 0 -10 1 -10 1 -9 1 -9 2 -10 2 -9 1 -8 3 -9 2 -8 2 -8 3 -8 3 -7 3 -7 3 -7 4 -6 3 0 0zm0 0c-18,11 -41,5 -52,-12 -10,-18 -5,-41 13,-52l39 64zm-153 134l58 -48 -66 25 0 -7 0 -6 1 -7 1 -6 2 -7 1 -6 2 -6 3 -7 2 -6 3 -6 3 -6 4 -6 3 -5 4 -6 4 -6 4 -5 4 -6 4 -5 5 -6 5 -5 5 -5 5 -5 5 -5 5 -5 6 -5 5 -5 6 -4 6 -5 6 -4 6 -4 6 -4 6 -4 39 64 -5 3 -5 3 -4 3 -5 4 -4 3 -4 3 -5 4 -4 4 -4 3 -4 4 -3 4 -4 4 -4 4 -3 4 -3 4 -3 4 -3 3 -3 4 -2 4 -2 4 -3 4 -1 4 -2 3 -2 4 -1 3 -1 3 -1 3 -1 3 0 3 0 2 0 2 0 2 -67 25zm67 -25c0,21 -16,38 -37,39 -21,0 -38,-16 -38,-37l75 -2zm-285 192l-75 0 0 0 0 -21 2 -20 3 -20 4 -19 5 -18 6 -18 7 -16 8 -17 9 -15 9 -14 10 -14 11 -13 12 -12 12 -10 12 -10 14 -9 13 -8 14 -7 15 -6 14 -4 15 -3 15 -2 16 -1 15 1 15 2 15 4 15 6 14 6 14 9 13 10 12 11 12 13 -58 48 -7 -8 -7 -7 -7 -5 -8 -5 -7 -3 -8 -3 -8 -2 -8 -2 -8 0 -9 0 -8 1 -9 2 -9 3 -9 4 -9 4 -8 5 -9 6 -9 7 -8 7 -8 9 -8 9 -7 10 -7 10 -7 11 -5 12 -6 13 -4 13 -4 14 -3 15 -2 15 -2 15 0 17 0 0zm0 0c0,20 -17,37 -38,37 -20,0 -37,-17 -37,-37l75 0zm-34 119l0 75 -38 -37 0 -5 0 -5 0 -5 0 -5 0 -5 0 -5 0 -6 0 -5 0 -6 -1 -5 0 -6 0 -6 0 -5 0 -6 0 -6 -1 -5 0 -6 0 -5 0 -5 0 -6 0 -5 0 -5 -1 -5 0 -4 0 -5 0 -4 0 -4 0 -4 0 -4 0 -3 0 -3 0 -3 75 0 0 2 0 3 0 3 0 3 0 4 0 4 0 4 0 5 0 4 1 5 0 5 0 5 0 5 0 6 0 5 0 6 1 5 0 6 0 6 0 5 0 6 0 6 0 6 1 5 0 6 0 5 0 6 0 5 0 6 0 5 0 5 0 5 -37 -38zm37 38c0,21 -17,37 -37,37 -21,0 -38,-16 -38,-37l75 0z"/>
  </g>
  <g>
   <path class="fil39" d="M3901 6963l-104 -7c12,-21 -2,-3 13,-17 4,-4 8,-5 17,-12l14 -107c-3,-23 1,-46 -1,-63 -4,-32 3,-10 -19,-36 -2,-2 -5,-4 -6,-6 -2,-1 -5,-3 -6,-6l119 6c-26,45 24,-32 -13,14 -21,26 -18,32 -18,86 48,-9 68,-53 83,-98l88 4 -84 96c22,22 69,43 38,105 -19,41 -74,38 -121,41zm105 108l-47 0c-176,-2 -356,-23 -538,-65 -84,-19 -159,-40 -237,-67 -241,-85 -384,-167 -592,-305 -202,-134 -462,-397 -596,-598l-116 -181c-201,-331 -318,-770 -318,-1223 0,-313 85,-708 220,-982 44,-89 132,-258 192,-341 12,-15 19,-26 28,-40 221,-334 606,-638 977,-810 476,-221 1023,-269 1550,-150 303,69 582,201 830,373 32,22 55,41 87,65 101,75 150,124 237,211 28,27 49,49 77,76l198 250c41,62 82,123 117,188 110,205 202,410 252,646 133,629 47,1176 -255,1731 -144,265 -393,545 -631,723 -434,324 -921,494 -1435,499zm355 -350l-11 14c-9,41 -20,80 -30,121 -27,109 -11,93 -66,98 -1,-1 -3,-6 -4,-5 0,2 -3,-4 -4,-5l-90 -173c-28,-53 -42,-32 -35,-46l92 -6c-1,25 -13,2 17,69l81 -8c15,-69 12,-48 -5,-71 -32,-40 3,23 -8,-9l44 -1 36 -8c8,30 2,5 -5,15l-12 15zm330 138c-19,20 -106,38 -141,40 -107,6 -119,-129 19,-148 -10,-44 -9,-62 -30,-75 -7,-5 -3,-2 -11,-5 -52,-23 16,18 -17,-7 30,-20 86,-31 124,-33 -24,46 -32,-10 -22,54 2,15 14,52 18,69 35,134 13,84 60,105zm324 -119c-29,14 -80,42 -114,41 18,-29 24,-5 16,-43 -4,-19 -19,-45 -28,-56 -69,81 -40,111 -39,113 35,45 -6,-28 12,11l-84 33c5,-17 35,-54 64,-132l-152 -92c-2,-1 -5,-3 -7,-5l91 -33c16,24 71,71 107,80 -21,-67 -19,-69 -50,-88 -1,-1 -4,-3 -6,-4l101 -52 -17 32c-6,13 -10,-8 0,23l55 132c27,60 13,11 51,40zm136 -287c-28,-158 232,-211 259,-25 10,72 -58,130 -118,139 -78,12 -131,-63 -141,-114zm-2311 -87c41,9 67,38 108,50 -2,2 -6,0 -7,4l-93 127 143 -59c-2,-39 0,-11 -16,-45 21,6 38,15 54,24l40 39 -28 13c-3,2 -8,11 -10,14 -15,22 -20,37 -33,59 -82,136 -39,69 -35,119 -30,-9 -76,-39 -104,-56 6,-4 56,4 103,-129 -16,11 -118,53 -144,64 0,32 1,10 15,45 -52,-15 -63,-38 -110,-50l36 -20c18,-13 41,-61 55,-87 67,-116 41,-54 26,-112zm3 180c0,0 2,1 2,1 0,1 1,1 1,1 0,0 6,-9 -3,-2zm-167 -147c-7,0 -92,-43 -91,57 55,27 29,10 86,4 -10,29 -12,25 -28,47 -41,-11 -90,-44 -103,-77 -23,-57 24,-79 76,-78 -16,-49 -4,-108 63,-103 44,3 101,62 113,89l-30 34c-36,-35 8,-28 -15,-63 -8,-12 -34,-24 -53,-19 -17,5 -38,22 -39,45 -3,44 13,7 21,58 0,1 0,4 0,6zm-71 -226c-38,25 12,-52 -156,117 -21,21 -16,5 -14,41l-1 10c0,1 1,4 0,5 -37,-18 -129,-121 -142,-154 26,-15 21,-18 54,-29l-16 53c20,19 40,40 64,51l48 -49c-18,-23 -49,-52 -57,-90 -9,-47 19,-76 59,-78 61,-4 128,93 161,123zm3087 67c-40,37 -110,122 -153,144l-43 -56c36,1 24,4 54,15 22,-25 38,-35 60,-59 -7,17 5,7 -40,-38l-80 -81c-29,-26 -19,-12 -58,-6 20,-36 53,-61 84,-90 11,20 -12,22 18,51 20,20 32,32 52,51 138,137 47,31 106,69zm-80 -228c-14,-68 48,-143 99,-153 73,-14 149,55 159,105 14,71 -48,142 -101,153 -70,14 -148,-56 -157,-105zm-3364 -263c25,25 41,64 69,83l-18 7c-1,0 -3,1 -4,1 -35,4 12,-8 -15,-1l-80 51c-17,13 -21,21 -31,23l162 5c4,-11 2,-29 17,-46 11,25 10,29 31,53 17,21 26,21 24,48 -56,-17 -18,-21 -104,40 -26,19 -72,46 -82,62l-9 21c-2,2 -3,5 -4,8 -1,2 -2,5 -4,8 -13,-35 -41,-60 -50,-79 -19,-43 7,-11 28,-14 18,-3 28,-13 43,-25 28,-22 42,-24 66,-52l-156 -3c-13,18 1,15 -10,43 -31,-21 -56,-65 -71,-101 61,23 29,23 170,-75 60,-43 -3,-41 28,-57zm3572 -106l52 -107 15 31c9,15 -2,7 20,20l142 72c20,0 21,-9 41,-16 -14,41 -29,79 -58,108l-3 -11c-5,-18 8,-29 -76,-60 2,30 9,64 18,91 25,75 10,10 41,23l-36 76c-1,-1 -2,-7 -3,-6 0,1 -3,-5 -3,-7l-33 -127c-102,22 -104,2 -181,37l38 -87 138 -2c-12,-21 -17,-21 -52,-39 -37,-20 -29,-6 -60,4zm-3655 -63l57 118 -32 -15c-15,-5 -2,-7 -28,6 -22,11 -40,22 -61,33 -19,9 -77,35 -88,50l-18 33c-14,-52 -78,-128 -58,-187 27,-81 123,-34 149,40 51,-17 64,-25 70,-48 0,-2 0,-4 1,-6 6,-26 -10,-6 8,-24zm3814 -102c-27,0 -37,-3 -62,-24 15,-253 261,-186 265,-60 1,53 -27,111 -56,134l-49 -20c12,-16 31,0 57,-29 107,-119 -220,-215 -189,-51 9,50 18,7 34,50zm-4002 -143l23 78 53 0 17 -31c17,16 26,50 29,75 -36,-3 3,-8 -40,-15 -17,-3 -54,-2 -74,-2 -51,-2 -102,-3 -153,-4l-15 -41c20,-34 114,-100 150,-129l41 -52c1,-2 2,-4 3,-6 18,19 13,17 22,45 8,23 13,39 18,64 -2,-2 -6,-7 -7,-5 -4,7 -9,-18 -32,-8 -2,1 -33,30 -35,31zm4157 -181c-20,22 -14,38 -60,40 -107,2 -47,-156 -38,-238 2,2 4,3 5,7l11 13c1,1 3,3 5,5 25,25 29,14 97,28 21,4 51,13 72,15 38,4 19,-6 53,-24 -3,36 -20,138 -35,166 -17,34 -75,65 -110,-12zm-4384 -158l4 46c37,9 155,-20 198,-30l17 -40 26 133c-17,-6 -9,-3 -20,-14 -1,-2 -6,-8 -8,-9l-200 26c7,60 13,52 46,62 2,1 5,2 7,2 2,1 5,1 7,2 -21,16 -26,17 -62,20 -17,-34 -47,-188 -40,-228l66 -7c-17,38 -12,7 -41,37zm4303 -186c-51,-192 205,-221 242,-91 22,79 -11,152 -77,167 -63,15 -144,5 -165,-76zm-2491 1950l7 2c-1,29 15,4 -62,53l-152 93c-53,32 -48,41 -60,-22l-4 -12 -30 -149 -3 -12c-15,-69 -30,-136 -43,-205 -14,-80 -4,-54 -126,-117 -96,-51 -289,-175 -357,-244 -200,-204 -240,-219 -393,-463 -279,-442 -358,-997 -205,-1571 52,-197 195,-473 327,-639 151,-188 305,-333 512,-462 696,-432 1646,-391 2285,159 64,55 134,116 186,179 80,98 138,155 212,279 395,649 412,1383 8,2066l-70 108c-309,411 -708,683 -1231,784 -149,28 -293,37 -445,30 -114,-5 -97,6 -180,56 -31,19 -126,70 -147,95l-29 -8zm-346 -316l2 11 -2 -11zm9 42l2 10 -2 -10zm-1519 -1762l-7 -62c31,-6 44,-7 65,6 -21,33 -58,4 -34,109l78 0c9,-26 8,-31 -6,-55 -43,-68 4,34 -15,-21l77 -2c-25,40 -29,10 -26,74 30,6 67,4 91,-5 8,-124 -23,-70 -51,-118l70 -1 8 217 -22 -22c-18,-13 25,-7 -33,-11 -17,-1 -56,3 -77,4 -48,2 -70,-5 -94,14 -20,16 1,12 -22,18l-2 -145zm4517 -353l29 -10 6 -28c2,-1 4,-6 5,-4 0,2 3,0 4,1 0,0 2,3 3,4l8 37c2,77 19,97 -11,165 -92,25 -115,-1 -129,-96 -15,-1 -42,-3 -57,2 -41,13 -10,-3 -32,41l-21 -128c2,1 5,2 6,6 1,4 9,9 11,10 38,28 82,-3 178,0zm-4256 50c-55,20 43,-13 -96,-28 -42,-4 -85,-13 -127,-11l-7 65c67,18 221,12 219,93 -2,54 -26,32 -68,29 24,-42 4,-4 43,-30 -13,-48 -165,-70 -194,-55l-30 26c4,-48 10,-192 33,-222 30,38 -25,27 115,43 168,19 64,5 121,-19l-9 109zm18 -171c-28,-51 40,-19 -113,-62 -131,-36 -63,-21 -116,3 3,-40 15,-92 35,-120l5 13c16,31 20,30 79,42 18,-29 16,-58 43,-86 26,-27 75,-31 99,2 30,40 -6,180 -32,208zm3966 -203c37,16 21,18 65,23l163 15c51,6 39,-2 51,48 -1,2 -3,2 -4,5 -1,3 -4,3 -5,4l-197 161 -34 -110c23,3 15,22 42,14 4,-1 22,-15 38,-20l-20 -86 -64 -6c-2,31 0,17 -8,33l-27 -81zm62 -233c7,38 32,71 19,113 -8,27 -45,55 -85,38 -39,-16 -90,-126 -101,-179 50,25 -18,43 121,-15 20,-9 40,-16 60,-25 64,-27 15,-12 39,-50 19,19 70,150 81,181 -18,12 -34,20 -62,18 11,-21 50,-36 -2,-106l-70 25zm-4104 -75c7,-32 29,-89 51,-111 35,57 -66,-2 98,76 18,8 70,36 87,34 26,-3 5,-6 35,-15 -6,30 -8,28 -22,57 -4,9 -6,17 -10,24l-19 29 -13 -33c-13,-17 -55,-28 -78,-37l-35 81c16,10 65,38 81,36l33 -19 -45 114 -16 -32c-12,-16 2,-5 -24,-18 -20,-9 -45,-20 -65,-28 -130,-54 -57,-39 -122,-16l53 -101c1,1 5,10 7,12 15,24 30,31 72,41l40 -79c-30,-17 -57,-35 -78,-30 -2,1 -9,4 -11,5 -2,0 -5,2 -6,3l-13 7zm3914 1c-22,-25 -39,-60 -59,-90 30,-20 19,30 66,-42 -14,-32 -24,-45 -43,-69l-51 11c-14,33 9,-38 -3,13l-5 20c-23,-18 -33,-42 -45,-72 63,18 67,7 136,-7 43,-9 91,-26 135,-21l18 28c-8,35 -13,29 -38,58l-101 136c-11,26 5,9 -10,35zm-3749 -325c133,10 168,59 276,37 -13,39 -38,64 -54,99 -2,-1 -4,-8 -4,-6l-9 -13c-14,-18 -8,-18 -63,-27 -11,27 -26,43 -38,69 6,12 12,29 27,39 15,10 3,3 16,3 22,0 4,-12 23,0 -14,24 -27,40 -42,61 -2,-2 -2,-8 -2,-7l-120 -178c-31,-40 -23,-32 -10,-77zm3602 -288c26,29 51,58 74,90 -22,10 -8,-4 -32,0l-22 63 74 -2c8,-28 -12,-4 8,-33 13,19 43,47 50,67 -54,-9 -73,-15 -139,-5 -20,59 -40,111 -27,168 -22,-12 -73,-66 -86,-85l31 -10c1,0 4,0 5,-1l21 -73 -87 19c-1,1 -2,4 -3,5l-14 12c-21,-44 -30,-22 -43,-69 64,19 81,13 152,8l38 -154zm-3131 100l-63 88c-28,-33 16,-29 -68,-83 -18,42 2,67 13,106 12,41 -13,48 -36,81l-29 -116c-8,-3 -150,12 -107,-101 13,-33 85,-112 109,-136 18,23 -10,21 24,54 17,17 34,36 52,50 27,21 24,20 49,45 43,44 22,0 56,12zm2774 -388c-50,30 -3,-51 -89,85 -13,20 -30,41 -42,61 -23,36 -7,16 6,57 -34,-5 -75,-37 -102,-61 2,-1 6,-3 7,-2 0,1 25,-2 42,-26 13,-19 10,-26 22,-42 -44,-16 -93,28 -134,38l-55 -39c17,-16 62,-15 118,-47 -25,-67 -7,-135 80,-114 33,9 125,71 147,90zm-2323 -112c-39,-152 210,-230 250,-40 18,87 -37,129 -107,144 -84,18 -126,-39 -143,-104zm-174 110c41,6 91,35 165,58 2,0 5,1 7,2 -25,22 -46,37 -77,48 -32,-19 -82,-60 -123,-52 11,14 20,35 33,52 18,24 38,21 53,34 -39,14 -66,44 -108,56 29,-55 27,-18 -35,-119 -89,-144 -43,-54 -89,-88 25,-18 70,-56 106,-58 -13,25 -28,24 6,72l21 23 30 -83c8,-53 5,-12 -4,-29 -5,-9 -60,11 6,-34 16,-11 34,-19 51,-24 -7,26 -15,25 -25,65 -6,27 -9,49 -17,77zm1947 -293l113 46c-1,0 -5,-2 -6,2 -11,31 7,-4 -13,7 -33,19 -64,96 -70,131l137 -78c-3,-42 0,-5 -18,-45 36,10 88,28 110,53 -42,19 -21,-30 -76,98 -8,21 -22,45 -29,65 -16,42 -1,22 11,53 -34,-2 -83,-28 -109,-47 2,-1 6,-4 7,-2 2,3 29,-2 49,-54 11,-27 25,-52 33,-78 -27,9 -69,36 -94,50 -68,39 -46,18 -26,70l-113 -44c1,0 5,-5 6,-3 2,2 6,-3 7,-4 15,-9 7,-2 18,-10 22,-17 35,-65 45,-88 54,-120 40,-71 18,-122zm-176 187c-114,11 -216,-53 -173,-176 34,-98 159,-111 230,-39 -12,48 -9,39 -27,52l-10 -53c-96,-33 -133,-6 -144,104 -5,53 7,77 52,86 63,14 52,-15 94,-37 -4,35 -4,39 -22,63zm-986 -287c-22,33 -5,39 10,109 24,109 10,83 43,101l12 6c-25,18 -84,29 -117,30 4,-13 3,-6 12,-17 1,-1 8,-5 9,-9 0,-3 3,-3 5,-4 -9,-36 -43,-149 -40,-163l-44 186c-57,-24 -70,-93 -133,-136 41,222 51,141 69,175l-77 7c1,-2 3,-4 4,-6 19,-29 -5,-111 -25,-178 -14,-45 -29,-25 -33,-35 -1,-3 -4,-2 -6,-3 8,-5 1,-2 18,-10 46,-20 74,-18 98,14 25,33 43,58 76,88l37 -153 82 -2zm687 213c-276,94 -284,-347 17,-224 0,13 1,22 -2,34 -10,36 12,-32 -5,13l-7 13c-2,-2 -2,-5 -3,-7 -14,-33 -10,-34 -33,-45 -127,-57 -144,171 -71,199 70,27 106,-40 106,-40 2,-4 5,-4 8,-5l-10 62zm-456 -249c-18,50 -39,-37 -20,164 25,-42 62,-87 87,-133 -15,-40 -8,5 -32,-35l121 -6 -24 29c-1,2 -2,4 -3,6l2 74c3,37 4,73 6,110 23,19 16,4 32,27l-120 7c29,-57 -32,44 13,-15 26,-34 12,-82 9,-149l-48 66c-15,23 -30,40 -41,64 9,20 13,16 32,30 -25,10 -85,12 -120,10 20,-43 33,14 26,-90 -3,-43 -5,-85 -8,-128 -31,-24 -11,5 -32,-27l120 -4z"/>
   <path class="fil40" d="M3756 5540c-13,-14 -16,-12 -19,-52l3 -805c6,-20 5,-14 10,-21 2,-1 5,-3 7,-3 2,-1 5,-2 8,-3 57,-16 -38,5 15,-4l77 -1c36,0 73,-1 110,-1l642 -1 8 -216c-98,-1 -197,-3 -295,-3 -48,-1 -96,-1 -144,-2 -24,0 -50,0 -74,-1 0,0 -27,-3 -28,-4 -34,-9 -11,1 -28,-14 42,-18 24,-3 63,-31 21,-15 35,-25 55,-25 -118,0 -235,-5 -352,-5 -57,0 -317,15 -342,-12 31,-18 200,-7 247,-7 -24,-63 -36,-110 -59,-175 -56,-157 -150,-339 -112,-487 12,-45 20,-42 62,-50 138,-26 277,-48 416,-76 67,-14 135,-24 207,-38l199 -37c74,126 112,207 201,346l226 317c-22,10 -278,76 -321,100 -4,3 -11,11 -12,9 -1,-2 -4,3 -6,5l15 6c60,17 -40,-6 16,4 4,1 20,1 25,2 319,9 130,-16 443,114 69,29 117,74 150,45l-262 -122c-160,-87 -157,-33 -320,-62l302 -89c-7,-16 -227,-317 -274,-401 -142,-257 -109,-178 -226,-462l215 -176 -21 -54c-38,6 -194,79 -217,100l-6 -22c-34,-67 6,-157 26,-223 -81,27 -210,116 -270,168 -33,28 -29,13 -87,66l-112 99c-24,25 -111,84 -198,175 -48,52 -84,103 -138,149 -185,160 60,537 85,675l-702 1 -12 660 -92 -241c-85,-297 -62,-622 42,-901 128,-342 381,-608 640,-766 148,-90 305,-157 492,-202 306,-73 913,175 1105,353l93 75c20,19 35,23 53,42l85 91c19,20 29,21 46,39l81 96c19,23 18,30 35,50 60,70 162,244 198,326 212,485 246,954 68,1456 -47,131 -156,346 -240,462 -43,59 -190,232 -246,278 -74,61 -34,44 -143,119l-157 113c-314,215 -724,297 -1107,285 2,1 1,14 13,-6 16,-24 22,4 1,-25 -45,38 -121,75 -172,108 -67,42 -118,73 -185,112l29 8c21,-25 116,-76 147,-95 83,-50 66,-61 180,-56 152,7 296,-2 445,-30 523,-101 922,-373 1231,-784l70 -108c404,-683 387,-1417 -8,-2066 -74,-124 -132,-181 -212,-279 -52,-63 -122,-124 -186,-179 -639,-550 -1589,-591 -2285,-159 -207,129 -361,274 -512,462 -132,166 -275,442 -327,639 -153,574 -74,1129 205,1571 153,244 193,259 393,463 68,69 261,193 357,244 122,63 112,37 126,117 13,69 28,136 43,205 17,-33 12,-12 5,-55 -3,-14 -8,-33 -11,-49 -7,-38 -15,-74 -25,-113l-2 -10 -7 -31 -2 -11 -28 -159c-15,-29 -76,-343 -91,-418 -4,-23 -10,-47 -15,-70 -4,-22 -7,-48 -21,-63 -11,55 25,157 37,218l1 5 90 435c-62,-17 -205,-110 -254,-144 -22,-15 -41,-27 -61,-41 -24,-17 -35,-29 -57,-45 -20,-14 -37,-30 -56,-45 -152,-126 -304,-314 -403,-486 -337,-582 -354,-1272 -23,-1885 48,-89 99,-167 158,-240 63,-79 117,-151 185,-213 240,-224 602,-451 1073,-516 67,-10 164,-23 230,-13 -67,24 -156,37 -230,62 -204,68 -438,194 -584,329 -171,158 -154,139 -287,314 -291,384 -367,971 -202,1437 61,174 160,350 269,483 64,78 57,100 81,225l33 120c7,-47 -14,-91 -21,-132l98 311c2,2 5,5 6,6l12 19c55,-82 99,46 -67,-353 -21,-52 -42,-105 -60,-158 -21,-65 -45,-95 -42,-167 33,-20 49,-37 81,-62l157 -130c26,-22 53,-41 76,-62 4,187 13,371 13,558 0,165 -17,385 1,546l606 185 1168 -478c-6,-22 -10,-18 13,-11l-519 72c0,-50 11,-258 6,-275 5,15 8,13 -8,8 5,16 7,13 -9,8 6,20 8,13 -14,8 -28,2 -31,12 -74,15 -53,3 -220,8 -251,-10 81,-4 257,14 314,-21 78,-46 55,-165 55,-276 0,-203 15,-462 -1,-659l-835 1c-14,224 -2,489 -2,717 0,248 12,237 296,236 88,-1 81,10 127,52 15,-26 17,-38 50,-42 -44,45 -8,-8 -53,73 -101,-187 -338,53 -428,-173zm-495 1185l30 149c19,-35 7,-43 -2,-83 -6,-30 -12,-61 -16,-92 -22,30 -9,4 -12,26zm34 161c12,63 7,54 60,22l152 -93c77,-49 61,-24 62,-53 -45,18 -75,40 -115,67 -37,25 -69,39 -110,68l-12 6 -5 6c-26,-10 -5,9 -15,-14 -7,-16 -4,-14 -6,-35 -15,19 -14,-1 -11,26zm652 -361l-2 4c0,17 3,12 -16,8 10,7 -11,22 18,5 24,-15 17,7 0,-17zm41 -27l-13 16c0,21 5,16 -18,10 5,2 2,22 29,0 23,-18 19,-1 2,-26zm41 -26l-12 15c0,21 4,15 -19,10 6,3 1,23 30,1 28,-22 20,2 1,-26zm29 -14l-2 3c0,18 3,13 -16,9 9,6 -11,22 17,5 24,-15 18,7 1,-17zm41 -27l-36 19c16,11 -1,27 34,7 44,-26 14,-9 2,-26zm41 -27l-13 16c0,21 5,15 -18,10 5,3 1,22 29,0 29,-22 21,3 2,-26zm69 -40l-42 30c0,19 4,13 -17,9 22,12 6,15 41,-4 54,-27 31,-18 18,-35zm41 -27l-13 16c0,21 5,16 -18,10 6,3 2,22 30,0 28,-22 21,3 1,-26zm41 -26l-13 15c0,20 4,14 -18,10 5,3 1,23 30,1 29,-22 20,2 1,-26zm29 -15l-3 4c0,17 3,12 -15,9 10,6 -11,22 18,4 24,-14 17,8 0,-17zm41 -26l-13 15c0,22 4,16 -18,11 4,2 2,21 29,-1 23,-18 19,0 2,-25zm41 -27l-12 16c0,21 4,14 -20,10 6,3 2,22 30,0 29,-22 21,3 2,-26zm28 -14l-2 4c0,18 4,12 -16,9 10,6 -11,22 18,4 24,-15 17,7 0,-17zm41 -27l-36 20c17,11 0,26 35,6 43,-25 13,-8 1,-26zm42 -26l-13 15c0,22 4,16 -19,11 5,2 2,22 30,0 28,-23 21,3 2,-26zm40 -26l-14 15c0,19 4,13 -16,10 4,2 0,23 29,1 29,-22 20,1 1,-26zm29 -15l-3 4c0,16 3,11 -15,9 10,6 -11,22 18,4 24,-15 17,8 0,-17zm41 -27l-13 16c0,22 4,16 -18,11 5,2 2,21 29,-1 28,-22 21,4 2,-26zm41 -26l-13 16c0,20 4,14 -18,10 5,2 1,23 30,0 28,-22 20,2 1,-26zm29 -14l-3 4c0,16 3,11 -15,8 9,7 -12,22 17,5 25,-15 17,7 1,-17zm41 -27l-14 15c0,22 5,17 -18,11 5,2 2,22 30,0 22,-18 18,-1 2,-26zm40 -26l-12 15c0,21 4,15 -19,10 5,3 2,23 30,1 28,-22 21,2 1,-26zm29 -15l-2 4c0,18 4,13 -16,9 9,6 -11,22 18,4 23,-14 17,8 0,-17zm41 -26l-36 19c17,11 0,27 34,7 44,-26 14,-8 2,-26zm41 -27l-13 16c0,21 5,15 -18,10 5,3 2,22 29,0 29,-22 21,3 2,-26zm41 -26l-14 16c0,18 4,13 -17,9 5,3 0,24 30,1 29,-22 20,2 1,-26zm29 -14l-4 4c0,16 4,11 -14,8 10,6 -12,22 18,5 24,-15 17,7 0,-17zm41 -27l-13 15c0,22 4,16 -19,11 5,2 2,22 30,0 23,-19 18,-1 2,-26zm41 -26l-13 15c0,20 3,14 -19,10 6,3 1,23 30,1 29,-23 21,2 2,-26zm28 -15l-3 4c0,17 4,12 -15,9 10,6 -11,22 18,4 24,-14 17,8 0,-17zm28 -13l-23 6c36,26 8,12 56,-2 -25,-10 4,-11 -33,-4zm68 -1412l-1 1361c-21,14 -31,20 -50,31 18,19 7,27 68,-13 13,-95 -2,-1055 3,-1288 1,-6 2,-40 2,-42 -5,-45 -10,-39 -22,-49zm-966 1027c0,18 4,14 -13,7l-40 25 -2 4c21,-14 40,-17 55,-33 12,-13 16,-30 33,-50 69,-5 60,17 130,-23 30,-17 67,-46 105,-64 -4,32 -14,57 -17,80 -8,64 9,51 -52,88 -42,26 -66,41 -118,56l-2 9 -3 7c9,20 5,12 -2,39l-58 6c-42,-7 10,-13 -54,-12l-9 2 -21 13 -36 -31c-12,-15 -10,-21 -9,-50l-120 -82c-17,-15 -36,-98 -37,-131 37,33 54,53 99,83l-6 -5c-22,-23 -52,-45 -76,-70 -38,-38 -25,-36 -73,-78 -19,-15 -1,12 -4,-15l5 -35c14,-45 55,-77 81,-115 53,-78 116,-95 182,-137 -41,-47 -55,3 -71,-46 -28,-18 -8,-5 -36,-11 -34,-8 -19,-8 -33,-17l1 -22c16,-9 7,-13 34,-3 11,4 72,27 99,13 -11,-8 15,-2 -21,-10 -22,-5 -36,3 -66,4 -2,-36 -10,-38 -15,-69l163 -19c-12,-32 -4,-57 40,-49 46,9 10,27 14,54 28,-41 19,-88 122,-12 -10,9 -19,16 -27,23l-20 19c-1,-2 -4,3 -6,5 12,7 41,32 48,43 18,23 3,4 11,21l9 15c0,1 2,3 2,4 13,18 -12,-18 9,11 1,2 6,8 6,10 10,32 7,-20 -1,9 -3,13 -36,2 37,36l91 279c-26,14 -12,-5 -14,16 -3,39 7,-1 -10,18 -15,17 -4,19 -19,33 -8,8 -10,9 -21,18 -208,167 -216,31 -264,139z"/>
   <path class="fil41" d="M4360 3126c-6,-81 -14,-214 73,-224 52,-7 77,30 100,55 24,24 41,55 50,91l21 54 -215 176c117,284 84,205 226,462 47,84 267,385 274,401l-302 89c163,29 160,-25 320,62l262 122 -8 0c12,10 17,4 22,49 0,2 -1,36 -2,42 -5,233 10,1193 -3,1288 -61,40 -50,32 -68,13l-8 0c-23,-7 -19,-11 -13,11l4 9c37,-7 8,-6 33,4 -48,14 -20,28 -56,2l-5 7c17,25 24,3 0,17 -29,18 -8,2 -18,-4 19,3 15,8 15,-9l-15 9 -10 2c19,28 27,3 -2,26 -29,22 -24,2 -30,-1 22,4 19,10 19,-10l-19 10 -9 1c16,25 21,7 -2,26 -28,22 -25,2 -30,0 23,5 19,11 19,-11l-19 11 -9 1c17,24 24,2 0,17 -30,17 -8,1 -18,-5 18,3 14,8 14,-8l-14 8 -11 2c19,28 28,4 -1,26 -30,23 -25,2 -30,-1 21,4 17,9 17,-9l-17 9 -10 1c19,29 27,4 -2,26 -27,22 -24,3 -29,0 23,5 18,11 18,-10l-18 10 -10 1c12,18 42,0 -2,26 -34,20 -17,4 -34,-7l-5 7c17,25 23,3 0,17 -29,18 -9,2 -18,-4 20,4 16,9 16,-9l-16 9 -11 2c20,28 27,4 -1,26 -28,22 -25,2 -30,-1 23,5 19,11 19,-10l-19 10 -9 1c16,25 20,8 -2,26 -28,22 -25,2 -30,0 23,6 18,11 18,-11l-18 11 -9 1c16,24 24,2 -1,17 -29,17 -8,2 -17,-5 18,3 15,8 15,-8l-15 8 -11 2c19,28 27,4 -1,26 -29,23 -25,2 -30,0 22,4 18,10 18,-10l-18 10 -10 0c19,30 26,4 -2,26 -27,22 -24,3 -29,1 22,5 18,11 18,-11l-18 11 -10 0c17,25 24,2 0,17 -29,18 -8,2 -18,-4 18,2 15,7 15,-9l-15 9 -11 2c19,27 28,4 -1,26 -29,22 -25,1 -29,-1 20,3 16,9 16,-10l-16 10 -10 1c19,29 26,3 -2,26 -28,22 -25,2 -30,0 23,5 19,11 19,-11l-19 11 -10 0c12,18 42,1 -1,26 -35,20 -18,5 -35,-6l-5 7c17,24 24,2 0,17 -29,18 -8,2 -18,-4 20,3 16,9 16,-9l-16 9 -10 1c19,29 27,4 -2,26 -28,22 -24,3 -30,0 24,4 20,11 20,-10l-20 10 -9 1c17,25 21,7 -2,25 -27,22 -25,3 -29,1 22,5 18,11 18,-11l-18 11 -10 0c17,25 24,3 0,17 -29,18 -8,2 -18,-4 18,3 15,8 15,-9l-15 9 -11 2c19,28 28,4 -1,26 -29,22 -25,2 -30,-1 22,4 18,10 18,-10l-18 10 -10 1c20,29 27,4 -1,26 -28,22 -24,3 -30,0 23,6 18,11 18,-10l-18 10 -10 1c13,17 36,8 -18,35 -35,19 -19,16 -41,4 21,4 17,10 17,-9l-17 9 -10 1c19,29 27,4 -2,26 -28,22 -24,3 -29,0 23,5 18,11 18,-10l-18 10 -10 1c12,17 42,0 -2,26 -35,20 -18,4 -34,-7l-5 8c17,24 23,2 -1,17 -28,17 -8,1 -17,-5 19,4 16,9 16,-9l-16 9 -11 2c19,28 27,4 -1,26 -29,22 -24,2 -30,-1 23,5 19,11 19,-10l-19 10 -10 1c17,25 21,8 -2,26 -27,22 -24,2 -29,0 23,6 18,11 18,-10l-18 10 -10 1c17,24 24,2 0,17 -29,17 -8,2 -18,-5 19,4 16,9 16,-8l-16 8 -10 3c21,29 15,1 -1,25 -12,20 -11,7 -13,6 383,12 793,-70 1107,-285l157 -113c109,-75 69,-58 143,-119 56,-46 203,-219 246,-278 84,-116 193,-331 240,-462 178,-502 144,-971 -68,-1456 -36,-82 -138,-256 -198,-326 -17,-20 -16,-27 -35,-50l-81 -96c-17,-18 -27,-19 -46,-39l-85 -91c-18,-19 -33,-23 -53,-42l-93 -75c-192,-178 -799,-426 -1105,-353 -187,45 -344,112 -492,202 -259,158 -512,424 -640,766 -104,279 -127,604 -42,901l92 241 12 -660 702 -1c-25,-138 -270,-515 -85,-675 54,-46 90,-97 138,-149 87,-91 174,-150 198,-175l112 -99c58,-53 54,-38 87,-66 60,-52 189,-141 270,-168 -20,66 -60,156 -26,223z"/>
   <path class="fil42" d="M3750 4662c-5,7 -4,1 -10,21l-3 805c3,40 6,38 19,52l-6 -878 864 7c0,160 0,320 0,480 0,82 0,164 0,245 0,235 -13,124 -25,209 -15,-5 -12,-7 -8,8 -16,-5 -14,-8 -9,8 -18,-6 -14,-10 -14,8 22,5 20,12 14,-8 16,5 14,8 9,-8 16,5 13,7 8,-8 5,17 -6,225 -6,275l519 -72 8 0c19,-11 29,-17 50,-31l1 -1361 8 0c-33,29 -81,-16 -150,-45 -313,-130 -124,-105 -443,-114 -5,-1 -21,-1 -25,-2 -56,-10 44,13 -16,-4l-15 -6c2,-2 5,-7 6,-5 1,2 8,-6 12,-9 43,-24 299,-90 321,-100l-226 -317c-89,-139 -127,-220 -201,-346l-199 37c-72,14 -140,24 -207,38 -139,28 -278,50 -416,76 -42,8 -50,5 -62,50 -38,148 56,330 112,487 23,65 35,112 59,175 -47,0 -216,-11 -247,7 25,27 285,12 342,12 117,0 234,5 352,5 -20,0 -34,10 -55,25 -39,28 -21,13 -63,31 17,15 -6,5 28,14 1,1 28,4 28,4 24,1 50,1 74,1 48,1 96,1 144,2 98,0 197,2 295,3l-8 216 -642 1c-37,0 -74,1 -110,1l-77 1c-53,9 42,-12 -15,4 -3,1 -6,2 -8,3 -2,0 -5,2 -7,3z"/>
   <path class="fil43" d="M3099 5957l-1 -5c-234,-142 -502,-467 -614,-726 -309,-710 -153,-1478 388,-1985 453,-426 797,-412 879,-464 -471,65 -833,292 -1073,516 -68,62 -122,134 -185,213 -59,73 -110,151 -158,240 -331,613 -314,1303 23,1885 99,172 251,360 403,486 19,15 36,31 56,45 22,16 33,28 57,45 20,14 39,26 61,41 49,34 192,127 254,144l-90 -435z"/>
   <path class="fil44" d="M3751 2777c-82,52 -426,38 -879,464 -541,507 -697,1275 -388,1985 112,259 380,584 614,726l1 5 -1 -5c-12,-61 -48,-163 -37,-218 14,15 17,41 21,63 5,23 11,47 15,70 15,75 76,389 91,418 7,-34 17,-48 42,-34 -28,-110 -66,-230 -92,-338l-98 -311c7,41 28,85 21,132l-33 -120c-24,-125 -17,-147 -81,-225 -109,-133 -208,-309 -269,-483 -165,-466 -89,-1053 202,-1437 133,-175 116,-156 287,-314 146,-135 380,-261 584,-329 74,-25 163,-38 230,-62 -66,-10 -163,3 -230,13z"/>
   <path class="fil45" d="M4276 5531c52,-15 76,-30 118,-56 61,-37 44,-24 52,-88 3,-23 13,-48 17,-80 -38,18 -75,47 -105,64 -70,40 -61,18 -130,23 -17,20 -21,37 -33,50 -15,16 -34,19 -55,33 -2,2 -5,2 -6,5l-16 15c-8,6 -12,8 -24,15 5,10 0,3 8,19 19,39 21,12 46,51l9 -2c2,-1 5,-6 7,-3l22 -6c59,-6 51,9 78,-26l12 -14zm-2 9l-3 7 3 -7zm-132 -67l40 -25c-25,-25 -39,-35 -63,-57 -38,9 -64,18 -95,-7 -45,-30 -62,-50 -99,-83 1,33 20,116 37,131l120 82c43,-19 12,-23 60,-41zm-124 -94l101 8c11,-24 18,-39 17,-74 12,3 36,5 24,45 -1,1 -1,3 -2,4l-32 23c19,23 42,46 69,56 48,-108 56,28 264,-139 11,-9 13,-10 21,-18 15,-14 4,-16 19,-33 17,-19 7,21 10,-18 2,-21 -12,-2 14,-16l-91 -279c-73,-34 -40,-23 -37,-36 8,-29 11,23 1,-9 0,-2 -5,-8 -6,-10 -21,-29 4,7 -9,-11 0,-1 -2,-3 -2,-4l-9 -15c-8,-17 7,2 -11,-21 -7,-11 -36,-36 -48,-43 2,-2 5,-7 6,-5l20 -19c8,-7 17,-14 27,-23 -103,-76 -94,-29 -122,12 -4,-27 32,-45 -14,-54 -44,-8 -52,17 -40,49l-163 19c5,31 13,33 15,69 30,-1 44,-9 66,-4 36,8 10,2 21,10 8,-10 7,-3 5,-11 26,16 13,5 28,31l-19 18c1,-2 3,-15 3,-19 -3,-38 2,-4 -6,-19l-16 37c-38,6 -44,-5 -60,3 16,49 30,-1 71,46 -66,42 -129,59 -182,137 -26,38 -67,70 -81,115l-5 35c3,27 -15,0 4,15 48,42 35,40 73,78 24,25 54,47 76,70zm202 4c-14,-5 -22,-3 -32,-21l1 -35c8,-14 7,-15 29,-14 -33,41 0,16 2,70zm40 -95l-38 3 -44 16c-13,-7 -20,-12 -44,-16l-39 -3c-25,-1 -29,3 -42,-16 -13,-21 -1,17 -2,-18 0,-2 2,-10 4,-13 -7,-27 -9,-170 1,-206 24,-2 67,7 64,-13l-26 -61c57,30 36,40 122,29 -22,-33 8,6 -59,-41 23,6 18,-1 44,0l34 14c-1,1 -3,1 -3,2l-6 5c-9,13 -5,-3 0,8l15 3c3,-13 -15,-7 11,-11l49 -6 -27 -13c7,-16 5,-6 -2,-21 28,-2 27,-13 50,-20 30,-10 38,-1 43,1 -6,6 -4,6 -13,13 -25,18 -50,11 -60,25l27 6 61 -5c-33,13 -112,49 -126,85l0 -1 43 2 1 206 17 -36c10,-28 6,-41 29,-66l-16 95c-1,2 -2,5 -2,7 -1,2 -2,4 -3,6 -5,10 13,-18 -7,12 -1,2 -2,4 -3,5l-11 11c-9,7 -7,15 -42,12zm-116 -495l43 -16c-13,23 -12,52 -43,16zm145 -51c24,-1 8,1 20,12 -38,16 -32,3 -39,-3 16,-12 -17,-8 19,-9z"/>
   <path class="fil46" d="M3305 6513l1 347c2,21 -1,19 6,35 10,23 -11,4 15,14l5 -6 12 -6c79,-109 472,-469 577,-602l-606 -185c-23,40 -2,327 -10,403z"/>
   <path class="fil42" d="M3138 5913c26,108 64,228 92,338l75 262c8,-76 -13,-363 10,-403 -18,-161 -1,-381 -1,-546 0,-187 -9,-371 -13,-558 -23,21 -50,40 -76,62l-157 130c-32,25 -48,42 -81,62 -3,72 21,102 42,167 18,53 39,106 60,158 166,399 122,271 67,353l-12 -19c-1,-1 -4,-4 -6,-6z"/>
   <path class="fil44" d="M3921 6295c-105,133 -498,493 -577,602l-12 6 -5 6 5 -6 12 -6c41,-29 73,-43 110,-68 40,-27 70,-49 115,-67l-7 -2c67,-39 118,-70 185,-112 51,-33 127,-70 172,-108l10 -3 16 -8 2 -4 10 -1 18 -10 13 -16 10 -1 19 -10 12 -15 11 -2 16 -9 2 -3 5 -8 36 -19 10 -1 18 -10 13 -16 10 -1 17 -9 42 -30 10 -1 18 -10 13 -16 10 -1 18 -10 13 -15 11 -2 15 -9 3 -4 10 0 18 -11 13 -15 9 -1 20 -10 12 -16 10 -1 16 -9 2 -4 5 -7 36 -20 10 0 19 -11 13 -15 10 -1 16 -10 14 -15 11 -2 15 -9 3 -4 10 0 18 -11 13 -16 10 0 18 -10 13 -16 11 -2 15 -8 3 -4 9 -1 18 -11 14 -15 9 -1 19 -10 12 -15 11 -2 16 -9 2 -4 5 -7 36 -19 10 -1 18 -10 13 -16 10 -1 17 -9 14 -16 11 -2 14 -8 4 -4 9 -1 19 -11 13 -15 9 -1 19 -10 13 -15 10 -2 15 -9 3 -4 5 -7 23 -6 -4 -9 -1168 478z"/>
   <path class="fil40" d="M3525 2446l-37 153c-33,-30 -51,-55 -76,-88 -24,-32 -52,-34 -98,-14 -17,8 -10,5 -18,10 2,1 5,0 6,3 4,10 19,-10 33,35 20,67 44,149 25,178 -1,2 -3,4 -4,6l77 -7c-18,-34 -28,47 -69,-175 63,43 76,112 133,136l44 -186c-3,14 31,127 40,163 -2,1 -5,1 -5,4 -1,4 -8,8 -9,9 -9,11 -8,4 -12,17 33,-1 92,-12 117,-30l-12 -6c-33,-18 -19,8 -43,-101 -15,-70 -32,-76 -10,-109l-82 2z"/>
   <path class="fil40" d="M2843 6546c9,-7 3,2 3,2 0,0 -1,0 -1,-1 0,0 -2,-1 -2,-1zm-3 -180c15,58 41,-4 -26,112 -14,26 -37,74 -55,87l-36 20c47,12 58,35 110,50 -14,-35 -15,-13 -15,-45 26,-11 128,-53 144,-64 -47,133 -97,125 -103,129 28,17 74,47 104,56 -4,-50 -47,17 35,-119 13,-22 18,-37 33,-59 2,-3 7,-12 10,-14l28 -13 -40 -39c-16,-9 -33,-18 -54,-24 16,34 14,6 16,45l-143 59 93 -127c1,-4 5,-2 7,-4 -41,-12 -67,-41 -108,-50z"/>
   <path class="fil40" d="M2248 5749c-31,16 32,14 -28,57 -141,98 -109,98 -170,75 15,36 40,80 71,101 11,-28 -3,-25 10,-43l156 3c-24,28 -38,30 -66,52 -15,12 -25,22 -43,25 -21,3 -47,-29 -28,14 9,19 37,44 50,79 2,-3 3,-6 4,-8 1,-3 2,-6 4,-8l9 -21c10,-16 56,-43 82,-62 86,-61 48,-57 104,-40 2,-27 -7,-27 -24,-48 -21,-24 -20,-28 -31,-53 -15,17 -13,35 -17,46l-162 -5c10,-2 14,-10 31,-23l80 -51c27,-7 -20,5 15,1 1,0 3,-1 4,-1l18 -7c-28,-19 -44,-58 -69,-83z"/>
   <path class="fil40" d="M3718 2412c21,32 1,3 32,27 3,43 5,85 8,128 7,104 -6,47 -26,90 35,2 95,0 120,-10 -19,-14 -23,-10 -32,-30 11,-24 26,-41 41,-64l48 -66c3,67 17,115 -9,149 -45,59 16,-42 -13,15l120 -7c-16,-23 -9,-8 -32,-27 -2,-37 -3,-73 -6,-110l-2 -74c1,-2 2,-4 3,-6l24 -29 -121 6c24,40 17,-5 32,35 -25,46 -62,91 -87,133 -19,-201 2,-114 20,-164l-120 4z"/>
   <path class="fil40" d="M4769 2544c22,51 36,2 -18,122 -10,23 -23,71 -45,88 -11,8 -3,1 -18,10 -1,1 -5,6 -7,4 -1,-2 -5,3 -6,3l113 44c-20,-52 -42,-31 26,-70 25,-14 67,-41 94,-50 -8,26 -22,51 -33,78 -20,52 -47,57 -49,54 -1,-2 -5,1 -7,2 26,19 75,45 109,47 -12,-31 -27,-11 -11,-53 7,-20 21,-44 29,-65 55,-128 34,-79 76,-98 -22,-25 -74,-43 -110,-53 18,40 15,3 18,45l-137 78c6,-35 37,-112 70,-131 20,-11 2,24 13,-7 1,-4 5,-2 6,-2l-113 -46z"/>
   <path class="fil45" d="M4558 5627c0,-18 -4,-14 14,-8 -5,-16 -7,-13 9,-8 -4,-15 -7,-13 8,-8 12,-85 25,26 25,-209 0,-81 0,-163 0,-245 0,-160 0,-320 0,-480l-864 -7 6 878c90,226 327,-14 428,173 45,-81 9,-28 53,-73 -33,4 -35,16 -50,42 -46,-42 -39,-53 -127,-52 -284,1 -296,12 -296,-236 0,-228 -12,-493 2,-717l835 -1c16,197 1,456 1,659 0,111 23,230 -55,276 -57,35 -233,17 -314,21 31,18 198,13 251,10 43,-3 46,-13 74,-15z"/>
   <path class="fil40" d="M2038 3763c23,9 65,20 78,37l13 33 19 -29c4,-7 6,-15 10,-24 14,-29 16,-27 22,-57 -30,9 -9,12 -35,15 -17,2 -69,-26 -87,-34 -164,-78 -63,-19 -98,-76 -22,22 -44,79 -51,111l13 -7c1,-1 4,-3 6,-3 2,-1 9,-4 11,-5 21,-5 48,13 78,30l-40 79c-42,-10 -57,-17 -72,-41 -2,-2 -6,-11 -7,-12l-53 101c65,-23 -8,-38 122,16 20,8 45,19 65,28 26,13 12,2 24,18l16 32 45 -114 -33 19c-16,2 -65,-26 -81,-36l35 -81z"/>
   <path class="fil40" d="M3897 6840c114,-18 91,116 -5,95l5 -95zm-56 -20l-36 133 96 10c47,-3 102,0 121,-41 31,-62 -16,-83 -38,-105l84 -96 -88 -4c-15,45 -35,89 -83,98 0,-54 -3,-60 18,-86 37,-46 -13,31 13,-14l-119 -6c1,3 4,5 6,6 1,2 4,4 6,6 22,26 15,4 19,36 2,17 -2,40 1,63z"/>
   <path class="fil42" d="M4360 3126l6 22c23,-21 179,-94 217,-100 -9,-36 -26,-67 -50,-91 -23,-25 -48,-62 -100,-55 -87,10 -79,143 -73,224z"/>
   <path class="fil40" d="M5177 2890c-30,-16 -73,-35 -38,-83 24,-33 57,-19 93,-7 -9,31 -39,68 -55,90zm-78 89c-1,-1 -5,1 -7,2 27,24 68,56 102,61 -13,-41 -29,-21 -6,-57 12,-20 29,-41 42,-61 86,-136 39,-55 89,-85 -22,-19 -114,-81 -147,-90 -87,-21 -105,47 -80,114 -56,32 -101,31 -118,47l55 39c41,-10 90,-54 134,-38 -12,16 -9,23 -22,42 -17,24 -42,27 -42,26z"/>
   <path class="fil40" d="M2399 3219c-21,20 -51,54 -87,20 -37,-36 -21,-65 12,-90 28,25 60,41 75,70zm146 8c-34,-12 -13,32 -56,-12 -25,-25 -22,-24 -49,-45 -18,-14 -35,-33 -52,-50 -34,-33 -6,-31 -24,-54 -24,24 -96,103 -109,136 -43,113 99,98 107,101l29 116c23,-33 48,-40 36,-81 -11,-39 -31,-64 -13,-106 84,54 40,50 68,83l63 -88z"/>
   <path class="fil40" d="M6156 5072l81 16c5,71 -43,60 -85,34l4 -50zm-21 -7c-7,41 -15,83 -63,69 -39,-12 -37,-45 -26,-83l89 14zm-1 89c35,77 93,46 110,12 15,-28 32,-130 35,-166 -34,18 -15,28 -53,24 -21,-2 -51,-11 -72,-15 -68,-14 -72,-3 -97,-28 -2,-2 -4,-4 -5,-5l-11 -13c-1,-4 -3,-5 -5,-7 -9,82 -69,240 38,238 46,-2 40,-18 60,-40z"/>
   <path class="fil40" d="M2822 2837c8,-28 11,-50 17,-77 10,-40 18,-39 25,-65 -17,5 -35,13 -51,24 -66,45 -11,25 -6,34 9,17 12,-24 4,29l-30 83 -21 -23c-34,-48 -19,-47 -6,-72 -36,2 -81,40 -106,58 46,34 0,-56 89,88 62,101 64,64 35,119 42,-12 69,-42 108,-56 -15,-13 -35,-10 -53,-34 -13,-17 -22,-38 -33,-52 41,-8 91,33 123,52 31,-11 52,-26 77,-48 -2,-1 -5,-2 -7,-2 -74,-23 -124,-52 -165,-58z"/>
   <path class="fil40" d="M6012 5794c-31,-13 -16,52 -41,-23 -9,-27 -16,-61 -18,-91 84,31 71,42 76,60l3 11c29,-29 44,-67 58,-108 -20,7 -21,16 -41,16l-142 -72c-22,-13 -11,-5 -20,-20l-15 -31 -52 107c31,-10 23,-24 60,-4 35,18 40,18 52,39l-138 2 -38 87c77,-35 79,-15 181,-37l33 127c0,2 3,8 3,7 1,-1 2,5 3,6l36 -76z"/>
   <path class="fil40" d="M5015 6740c-38,-29 -24,20 -51,-40l-55 -132c-10,-31 -6,-10 0,-23l17 -32 -101 52c2,1 5,3 6,4 31,19 29,21 50,88 -36,-9 -91,-56 -107,-80l-91 33c2,2 5,4 7,5l152 92c-29,78 -59,115 -64,132l84 -33c-18,-39 23,34 -12,-11 -1,-2 -30,-32 39,-113 9,11 24,37 28,56 8,38 2,14 -16,43 34,1 85,-27 114,-41z"/>
   <path class="fil40" d="M2464 6192c-48,-29 -49,-82 23,-100l37 38 -60 62zm-118 -29c-33,11 -28,14 -54,29 13,33 105,136 142,154 1,-1 0,-4 0,-5l1 -10c-2,-36 -7,-20 14,-41 168,-169 118,-92 156,-117 -33,-30 -100,-127 -161,-123 -40,2 -68,31 -59,78 8,38 39,67 57,90l-48 49c-24,-11 -44,-32 -64,-51l16 -53z"/>
   <path class="fil40" d="M5224 6353c50,-35 86,21 110,53 28,37 49,94 2,121 -54,32 -88,-28 -109,-56 -44,-62 -46,-89 -3,-118zm-73 100c10,51 63,126 141,114 60,-9 128,-67 118,-139 -27,-186 -287,-133 -259,25z"/>
   <path class="fil40" d="M3079 2607c56,-29 82,30 99,70 21,49 38,108 -16,127 -76,25 -168,-153 -83,-197zm-83 120c17,65 59,122 143,104 70,-15 125,-57 107,-144 -40,-190 -289,-112 -250,40z"/>
   <path class="fil47" d="M3188 6285l28 159 2 11 7 31 2 10c10,39 18,75 25,113 3,16 8,35 11,49 7,43 12,22 -5,55l3 12c3,-22 -10,4 12,-26 4,31 10,62 16,92 9,40 21,48 2,83l4 12c-3,-27 -4,-7 11,-26l-1 -347 -75 -262c-25,-14 -35,0 -42,34z"/>
   <path class="fil40" d="M5645 5970c-9,-57 46,-86 102,-53 168,97 67,191 -9,145 -30,-19 -87,-55 -93,-92zm-33 42c9,49 87,119 157,105 53,-11 115,-82 101,-153 -10,-50 -86,-119 -159,-105 -51,10 -113,85 -99,153z"/>
   <path class="fil40" d="M6071 4785c-30,-114 184,-98 205,-39 42,116 -189,103 -205,39zm-18 25c21,81 102,91 165,76 66,-15 99,-88 77,-167 -37,-130 -293,-101 -242,91z"/>
   <path class="fil40" d="M5901 3859l90 -33c8,35 20,64 -15,81 -44,22 -68,-9 -75,-48zm182 -70c52,70 13,85 2,106 28,2 44,-6 62,-18 -11,-31 -62,-162 -81,-181 -24,38 25,23 -39,50 -20,9 -40,16 -60,25 -139,58 -71,40 -121,15 11,53 62,163 101,179 40,17 77,-11 85,-38 13,-42 -12,-75 -19,-113l70 -25z"/>
   <path class="fil40" d="M1976 4312c-57,24 47,38 -121,19 -140,-16 -85,-5 -115,-43 -23,30 -29,174 -33,222l30 -26c29,-15 181,7 194,55 -39,26 -19,-12 -43,30 42,3 66,25 68,-29 2,-81 -152,-75 -219,-93l7 -65c42,-2 85,7 127,11 139,15 41,48 96,28l9 -109z"/>
   <path class="fil40" d="M5750 3217c-23,-32 -48,-61 -74,-90l-38 154c-71,5 -88,11 -152,-8 13,47 22,25 43,69l14 -12c1,-1 2,-4 3,-5l87 -19 -21 73c-1,1 -4,1 -5,1l-31 10c13,19 64,73 86,85 -13,-57 7,-109 27,-168 66,-10 85,-4 139,5 -7,-20 -37,-48 -50,-67 -20,29 0,5 -8,33l-74 2 22 -63c24,-4 10,10 32,0z"/>
   <path class="fil40" d="M1906 4133c2,-67 59,-62 93,-33l0 49c-29,10 -64,-2 -93,-16zm79 117c26,-28 62,-168 32,-208 -24,-33 -73,-29 -99,-2 -27,28 -25,57 -43,86 -59,-12 -63,-11 -79,-42l-5 -13c-20,28 -32,80 -35,120 53,-24 -15,-39 116,-3 153,43 85,11 113,62z"/>
   <path class="fil40" d="M1978 5713c-16,-37 -19,-58 21,-76 39,-18 56,-3 71,32l-92 44zm187 -133c-18,18 -2,-2 -8,24 -1,2 -1,4 -1,6 -6,23 -19,31 -70,48 -26,-74 -122,-121 -149,-40 -20,59 44,135 58,187l18 -33c11,-15 69,-41 88,-50 21,-11 39,-22 61,-33 26,-13 13,-11 28,-6l32 15 -57 -118z"/>
   <path class="fil40" d="M2107 3477l94 20 -34 56c-10,-10 -58,-75 -60,-76zm189 74c16,-35 41,-60 54,-99 -108,22 -143,-27 -276,-37 -13,45 -21,37 10,77l120 178c0,-1 0,5 2,7 15,-21 28,-37 42,-61 -19,-12 -1,0 -23,0 -13,0 -1,7 -16,-3 -15,-10 -21,-27 -27,-39 12,-26 27,-42 38,-69 55,9 49,9 63,27l9 13c0,-2 2,5 4,6z"/>
   <path class="fil39" d="M4145 5160l-6 9 -9 8 -9 7 -10 8 -9 7 -10 7c0,12 3,9 -9,8 0,12 3,9 -10,7 1,13 4,10 -9,8 1,13 4,9 -9,12 -2,3 -4,11 -4,13 1,35 -11,-3 2,18 13,19 17,15 42,16l6 -14 8 -8 10 -7 9 -8 8 -8 9 -8 10 -8 9 -8 13 -12 7 4 9 8 9 8 9 8 8 8 8 9 10 7 9 9 9 8 5 12c35,3 33,-5 42,-12l11 -11c1,-1 2,-3 3,-5 20,-30 2,-2 7,-12 1,-2 2,-4 3,-6 0,-2 1,-5 2,-7l16 -95c-23,25 -19,38 -29,66l-17 36c-18,-11 -65,-51 -78,-68 -20,-30 -11,-97 -11,-141l45 1 0 1 -125 2 3 3c21,-13 13,21 13,48 0,25 -1,47 0,72z"/>
   <path class="fil40" d="M6076 4103l93 7c-15,17 -54,43 -80,53l-13 -60zm-60 -33c-44,-5 -28,-7 -65,-23l27 81c8,-16 6,-2 8,-33l64 6 20 86c-16,5 -34,19 -38,20 -27,8 -19,-11 -42,-14l34 110 197 -161c1,-1 4,-1 5,-4 1,-3 3,-3 4,-5 -12,-50 0,-42 -51,-48l-163 -15z"/>
   <path class="fil40" d="M4553 6872c-13,-12 -29,-33 -27,-64 1,-35 15,-31 48,-39l25 99 -46 4zm138 -13c-47,-21 -25,29 -60,-105 -4,-17 -16,-54 -18,-69 -10,-64 -2,-8 22,-54 -38,2 -94,13 -124,33 33,25 -35,-16 17,7 8,3 4,0 11,5 21,13 20,31 30,75 -138,19 -126,154 -19,148 35,-2 122,-20 141,-40z"/>
   <path class="fil40" d="M1764 4668l-60 -5 2 61 2 145c23,-6 2,-2 22,-18 24,-19 46,-12 94,-14 21,-1 60,-5 77,-4 58,4 15,-2 33,11l22 22 -8 -217 -70 1c28,48 59,-6 51,118 -24,9 -61,11 -91,5 -3,-64 1,-34 26,-74l-77 2c19,55 -28,-47 15,21 14,24 15,29 6,55l-78 0c-24,-105 13,-76 34,-109z"/>
   <path class="fil40" d="M1958 5350l19 63 -97 -2 78 -61zm19 -15c2,-1 33,-30 35,-31 23,-10 28,15 32,8 1,-2 5,3 7,5 -5,-25 -10,-41 -18,-64 -9,-28 -4,-26 -22,-45 -1,2 -2,4 -3,6l-41 52c-36,29 -130,95 -150,129l15 41c51,1 102,2 153,4 20,0 57,-1 74,2 43,7 4,12 40,15 -3,-25 -12,-59 -29,-75l-17 31 -53 0 -23 -78z"/>
   <path class="fil40" d="M6163 4434c30,-4 74,-13 100,-5l-5 41c-40,28 -104,36 -95,-36zm89 -73l-29 10c-96,-3 -140,28 -178,0 -2,-1 -10,-6 -11,-10 -1,-4 -4,-5 -6,-6l21 128c22,-44 -9,-28 32,-41 15,-5 42,-3 57,-2 14,95 37,121 129,96 30,-68 13,-88 11,-165l-8 -37 -12 -1 -6 28z"/>
   <path class="fil40" d="M5905 3513c-14,33 -31,34 -48,74 -21,-13 -26,-14 -43,-54l91 -20zm-82 227c15,-26 -1,-9 10,-35l101 -136c25,-29 30,-23 38,-58l-18 -28c-44,-5 -92,12 -135,21 -69,14 -73,25 -136,7 12,30 22,54 45,72l5 -20c12,-51 -11,20 3,-13l51 -11c19,24 29,37 43,69 -47,72 -36,22 -66,42 20,30 37,65 59,90z"/>
   <path class="fil40" d="M4306 6804l-23 93c-4,-12 -33,-65 -42,-87l65 -6zm44 -69l11 -14 12 -15c-17,-12 31,-13 -31,-7l-44 1c11,32 -24,-31 8,9 17,23 20,2 5,71l-81 8c-30,-67 -18,-44 -17,-69l-92 6c-7,14 7,-7 35,46l90 173c1,1 4,7 4,5 1,-1 3,4 4,5 55,-5 39,11 66,-98 10,-41 21,-80 30,-121z"/>
   <path class="fil39" d="M6071 4785c16,64 247,77 205,-39 -21,-59 -235,-75 -205,39z"/>
   <path class="fil39" d="M3079 2607c-85,44 7,222 83,197 54,-19 37,-78 16,-127 -17,-40 -43,-99 -99,-70z"/>
   <path class="fil40" d="M1750 4996c29,-30 24,1 41,-37l-66 7c-7,40 23,194 40,228 36,-3 41,-4 62,-20 -2,-1 -5,-1 -7,-2 -2,0 -5,-1 -7,-2 -33,-10 -39,-2 -46,-62l200 -26c2,1 7,7 8,9 11,11 3,8 20,14l-26 -133 -17 40c-43,10 -161,39 -198,30l-4 -46z"/>
   <path class="fil39" d="M5645 5970c6,37 63,73 93,92 76,46 177,-48 9,-145 -56,-33 -111,-4 -102,53z"/>
   <path class="fil39" d="M5224 6353c-43,29 -41,56 3,118 21,28 55,88 109,56 47,-27 26,-84 -2,-121 -24,-32 -60,-88 -110,-53z"/>
   <path class="fil40" d="M5692 6240c-59,-38 32,68 -106,-69 -20,-19 -32,-31 -52,-51 -30,-29 -7,-31 -18,-51 -31,29 -64,54 -84,90 39,-6 29,-20 58,6l80 81c45,45 33,55 40,38 -22,24 -38,34 -60,59 -30,-11 -18,-14 -54,-15l43 56c43,-22 113,-107 153,-144z"/>
   <path class="fil40" d="M4593 2731c18,-24 18,-28 22,-63 -42,22 -31,51 -94,37 -45,-9 -57,-33 -52,-86 11,-110 48,-137 144,-104l10 53c18,-13 15,-4 27,-52 -71,-72 -196,-59 -230,39 -43,123 59,187 173,176z"/>
   <path class="fil40" d="M4294 2657l10 -62c-3,1 -6,1 -8,5 0,0 -36,67 -106,40 -73,-28 -56,-256 71,-199 23,11 19,12 33,45 1,2 1,5 3,7l7 -13c17,-45 -5,23 5,-13 3,-12 2,-21 2,-34 -301,-123 -293,318 -17,224z"/>
   <path class="fil40" d="M5979 5478c-16,-43 -25,0 -34,-50 -31,-164 296,-68 189,51 -26,29 -45,13 -57,29l49 20c29,-23 57,-81 56,-134 -4,-126 -250,-193 -265,60 25,21 35,24 62,24z"/>
   <path class="fil40" d="M2676 6399c0,-2 0,-5 0,-6 -8,-51 -24,-14 -21,-58 1,-23 22,-40 39,-45 19,-5 45,7 53,19 23,35 -21,28 15,63l30 -34c-12,-27 -69,-86 -113,-89 -67,-5 -79,54 -63,103 -52,-1 -99,21 -76,78 13,33 62,66 103,77 16,-22 18,-18 28,-47 -57,6 -31,23 -86,-4 -1,-100 84,-57 91,-57z"/>
   <path class="fil48" d="M4298 5242l-1 -206 -43 -2 -45 -1c0,44 -9,111 11,141 13,17 60,57 78,68z"/>
   <path class="fil48" d="M4064 5229c-2,-13 -4,-10 9,-8 0,-12 -3,-9 10,-7l9 -8 10 -7 9 -7 10 -8 9 -7 9 -8 6 -9c-1,-25 0,-47 0,-72 0,-27 8,-61 -13,-48l-73 5 5 184z"/>
   <path class="fil40" d="M4319 4955l-18 9 -49 6 -11 11 -15 -3 -10 12c-86,11 -65,1 -122,-29l26 61 9 15 125 -2c14,-36 93,-72 126,-85l-61 5z"/>
   <path class="fil39" d="M5177 2890c16,-22 46,-59 55,-90 -36,-12 -69,-26 -93,7 -35,48 8,67 38,83z"/>
   <path class="fil39" d="M2399 3219c-15,-29 -47,-45 -75,-70 -33,25 -49,54 -12,90 36,34 66,0 87,-20z"/>
   <path class="fil39" d="M3892 6935c96,21 119,-113 5,-95l-5 95z"/>
   <path class="fil39" d="M6135 5065l-89 -14c-11,38 -13,71 26,83 48,14 56,-28 63,-69z"/>
   <path class="fil48" d="M4119 5259l-10 7 -8 8c7,8 -1,4 17,13 2,1 13,3 16,4 24,4 31,9 44,16l44 -16c3,-1 16,-4 16,-4 17,-8 10,-6 17,-11l-9 -8 -9 -9 -10 -7 -8 -9 -8 -8 -9 -8 -9 -8 -9 -8 -20 8 -9 8 -10 8 -9 8 -8 8 24 6c32,-1 -2,-4 25,-4l44 14c-26,13 -67,24 -102,-8z"/>
   <path class="fil39" d="M5901 3859c7,39 31,70 75,48 35,-17 23,-46 15,-81l-90 33z"/>
   <path class="fil39" d="M2464 6192l60 -62 -37 -38c-72,18 -71,71 -23,100z"/>
   <path class="fil49" d="M4062 4883c16,-8 22,3 60,-3l16 -37c8,15 3,-19 6,19 0,4 -2,17 -3,19l19 -18c-15,-26 -2,-15 -28,-31 2,8 3,1 -5,11 -27,14 -88,-9 -99,-13 -27,-10 -18,-6 -34,3l-1 22c14,9 -1,9 33,17 28,6 8,-7 36,11z"/>
   <path class="fil39" d="M1906 4133c29,14 64,26 93,16l0 -49c-34,-29 -91,-34 -93,33z"/>
   <path class="fil39" d="M6163 4434c-9,72 55,64 95,36l5 -41c-26,-8 -70,1 -100,5z"/>
   <path class="fil39" d="M4553 6872l46 -4 -25 -99c-33,8 -47,4 -48,39 -2,31 14,52 27,64z"/>
   <path class="fil39" d="M1978 5713l92 -44c-15,-35 -32,-50 -71,-32 -40,18 -37,39 -21,76z"/>
   <path class="fil39" d="M6152 5122c42,26 90,37 85,-34l-81 -16 -4 50z"/>
   <path class="fil50" d="M4018 5379l6 5c31,25 57,16 95,7 24,22 38,32 63,57 17,7 13,11 13,-7 -27,-10 -50,-33 -69,-56l32 -23c1,-1 1,-3 2,-4 12,-40 -12,-42 -24,-45 1,35 -6,50 -17,74l-101 -8z"/>
   <path class="fil39" d="M5814 3533c17,40 22,41 43,54 17,-40 34,-41 48,-74l-91 20z"/>
   <path class="fil39" d="M6089 4163c26,-10 65,-36 80,-53l-93 -7 13 60z"/>
   <path class="fil51" d="M4055 5241c13,-3 10,1 9,-12 13,2 10,5 9,-8 13,2 10,5 10,-7 12,1 9,4 9,-8l10 -7 9 -7 10 -8 9 -7 9 -8 6 -9 -6 9 -9 8 -9 7 -10 8 -9 7 -10 7 -9 8c-13,-2 -10,-5 -10,7 -13,-2 -11,-5 -9,8l-5 -184 73 -5 -3 -3 -9 -15c3,20 -40,11 -64,13 -10,36 -8,179 -1,206z"/>
   <path class="fil39" d="M1880 5411l97 2 -19 -63 -78 61z"/>
   <path class="fil39" d="M2107 3477c2,1 50,66 60,76l34 -56 -94 -20z"/>
   <path class="fil39" d="M4241 6810c9,22 38,75 42,87l23 -93 -65 6z"/>
   <path class="fil52" d="M4148 5582c-25,-39 -27,-12 -46,-51 -8,-16 -3,-9 -8,-19 12,-7 16,-9 24,-15l16 -15c1,-3 4,-3 6,-5l2 -4c-48,18 -17,22 -60,41 -1,29 -3,35 9,50l36 31 21 -13z"/>
   <path class="fil52" d="M4157 5580c64,-1 12,5 54,12l58 -6c7,-27 11,-19 2,-39l3 -7 2 -9 -12 14c-27,35 -19,20 -78,26l-22 6c-2,-3 -5,2 -7,3z"/>
   <path class="fil50" d="M4301 4964l18 -9 -27 -6c10,-14 35,-7 60,-25 9,-7 7,-7 13,-13 -5,-2 -13,-11 -43,-1 -23,7 -22,18 -50,20 7,15 9,5 2,21l27 13z"/>
   <path class="fil43" d="M4164 5219l-9 8 -10 8 -9 8 -8 8 -9 8 -10 7 -8 8 -6 14 39 3c-3,-1 -14,-3 -16,-4 -18,-9 -10,-5 -17,-13l8 -8 10 -7c35,32 76,21 102,8l-44 -14c-27,0 7,3 -25,4l-24 -6 8 -8 9 -8 10 -8 9 -8 20 -8 9 8 9 8 9 8 8 8 8 9 10 7 9 9 9 8c-7,5 0,3 -17,11 0,0 -13,3 -16,4l38 -3 -5 -12 -9 -8 -9 -9 -10 -7 -8 -9 -8 -8 -9 -8 -9 -8 -9 -8 -7 -4 -13 12z"/>
   <path class="fil50" d="M4220 5383c-2,-54 -35,-29 -2,-70 -22,-1 -21,0 -29,14l-1 35c10,18 18,16 32,21z"/>
   <path class="fil50" d="M4216 4990l10 -12c-5,-11 -9,5 0,-8l6 -5c0,-1 2,-1 3,-2l-34 -14c-26,-1 -21,6 -44,0 67,47 37,8 59,41zm36 -20c-26,4 -8,-2 -11,11l11 -11z"/>
   <path class="fil53" d="M3901 6963l-96 -10 36 -133 -14 107c-9,7 -13,8 -17,12 -15,14 -1,-4 -13,17l104 7z"/>
   <path class="fil52" d="M4144 4793c31,36 30,7 43,-16l-43 16z"/>
   <path class="fil40" d="M4270 4751c7,6 1,19 39,3 -12,-11 4,-13 -20,-12 -36,1 -3,-3 -19,9z"/>
   <path class="fil53" d="M1706 4724l-2 -61 60 5c-21,-13 -34,-12 -65,-6l7 62z"/>
   <path class="fil53" d="M4373 6706l-12 15 -11 14 11 -14 12 -15c7,-10 13,15 5,-15l-36 8c62,-6 14,-5 31,7z"/>
   <path class="fil53" d="M6252 4361l-29 10 29 -10 6 -28 12 1 8 37 -8 -37c-1,-1 -3,-4 -3,-4 -1,-1 -4,1 -4,-1 -1,-2 -3,3 -5,4l-6 28z"/>
  </g>
  <path class="fil54 str9" d="M6750 16149c0,9 -3,16 -8,22 -5,5 -12,7 -21,7 -7,0 -14,-2 -20,-7 -6,-5 -9,-12 -9,-22l0 -493 -232 0 0 493c0,9 -2,16 -8,22 -5,5 -12,7 -20,7 -8,0 -15,-2 -21,-7 -5,-5 -8,-12 -8,-22l0 -521c0,-20 9,-29 29,-29l289 0c19,0 29,9 29,29l0 521zm173 -261l174 0c16,0 30,-5 41,-16 12,-11 17,-25 17,-42l0 -116c0,-16 -5,-30 -16,-41 -11,-11 -25,-17 -42,-17l-174 0 0 232zm0 58l0 203c0,9 -2,16 -8,22 -5,5 -12,7 -20,7 -8,0 -15,-2 -21,-7 -5,-5 -8,-12 -8,-22l0 -521c0,-20 9,-29 29,-29l202 0c32,0 60,11 82,34 23,22 34,50 34,82l0 115c0,32 -11,59 -34,82 -23,23 -50,34 -82,34l-174 0zm463 -115l146 0c8,0 15,3 20,9 6,5 9,12 9,20 0,7 -2,13 -7,19 -5,6 -12,9 -22,9l-146 0 0 232 204 0c8,0 15,3 20,9 6,6 9,13 9,20 0,7 -3,14 -7,20 -5,6 -12,9 -22,9l-232 0c-20,0 -29,-9 -29,-27l0 -523c0,-20 9,-29 29,-29l232 0c8,0 15,3 20,9 6,5 9,12 9,20 0,7 -3,13 -7,19 -5,6 -12,9 -22,9l-204 0 0 175zm409 289l55 -496c0,-17 9,-25 29,-25l173 0c19,0 29,9 29,29l0 492 29 0c20,0 29,10 29,29l0 58c0,8 -3,14 -8,20 -6,6 -13,9 -20,9 -7,0 -13,-3 -20,-8 -6,-4 -9,-12 -9,-21l0 -29 -291 0 0 29c0,8 -2,14 -8,20 -6,6 -13,9 -20,9 -7,0 -13,-3 -20,-8 -6,-4 -9,-12 -9,-21l0 -58c0,-19 9,-29 29,-29l32 0zm228 0l0 -464 -118 0 -52 464 170 0zm463 58l-145 0c-31,0 -58,-11 -81,-34 -23,-22 -35,-50 -35,-82l0 -347c0,-33 12,-60 34,-82 23,-23 50,-34 82,-34l145 0c8,0 15,3 21,9 5,5 8,12 8,20 0,6 -2,13 -7,19 -5,6 -12,9 -22,9l-145 0c-16,0 -30,6 -42,17 -5,6 -9,12 -12,19 -3,7 -4,14 -4,22l0 348c0,17 5,30 16,42 6,5 13,9 19,12 8,3 16,4 23,4l145 0c8,0 15,3 21,9 5,6 8,13 8,20 0,7 -2,13 -7,19 -5,7 -12,10 -22,10zm202 -347l146 0c8,0 15,3 20,9 6,5 9,12 9,20 0,7 -3,13 -8,19 -4,6 -12,9 -21,9l-146 0 0 232 204 0c8,0 14,3 20,9 6,6 9,13 9,20 0,7 -3,14 -8,20 -4,6 -12,9 -21,9l-233 0c-19,0 -28,-9 -28,-27l0 -523c0,-20 9,-29 28,-29l233 0c8,0 15,3 20,9 6,5 9,12 9,20 0,7 -3,13 -8,19 -4,6 -12,9 -21,9l-204 0 0 175zm408 289l55 -496c0,-17 10,-25 29,-25l174 0c19,0 29,9 29,29l0 492 29 0c19,0 29,10 29,29l0 58c0,8 -3,14 -9,20 -5,6 -12,9 -20,9 -6,0 -13,-3 -19,-8 -6,-4 -9,-12 -9,-21l0 -29 -291 0 0 29c0,8 -3,14 -9,20 -5,6 -12,9 -20,9 -6,0 -13,-3 -19,-8 -6,-4 -9,-12 -9,-21l0 -58c0,-19 9,-29 29,-29l31 0zm229 0l0 -464 -119 0 -52 464 171 0zm333 -87l-42 125c-2,6 -5,11 -10,15 -4,2 -10,4 -16,5 -8,0 -15,-3 -20,-8 -7,-5 -10,-12 -10,-20l2 -10 174 -521c6,-17 15,-25 27,-25 13,0 22,8 28,25l173 521 2 10c0,7 -3,14 -9,20 -7,5 -13,8 -21,8 -4,0 -8,-1 -13,-3 -5,-2 -9,-7 -13,-17l-42 -125 -210 0zm191 -59l-86 -255 -85 255 171 0zm257 -318l-115 0c-9,0 -16,-2 -22,-7 -5,-7 -7,-14 -7,-21 0,-7 2,-13 7,-20 5,-6 12,-9 22,-9l289 0c8,0 15,3 20,9 6,5 9,12 9,20 0,6 -3,13 -7,19 -5,6 -13,9 -22,9l-116 0 0 493c0,9 -3,16 -8,22 -5,5 -12,7 -21,7 -7,0 -14,-2 -20,-7 -6,-5 -9,-12 -9,-22l0 -493zm376 175l146 0c8,0 15,3 20,9 6,5 9,12 9,20 0,7 -3,13 -7,19 -5,6 -13,9 -22,9l-146 0 0 232 204 0c8,0 14,3 20,9 6,6 9,13 9,20 0,7 -3,14 -7,20 -5,6 -13,9 -22,9l-232 0c-20,0 -29,-9 -29,-27l0 -523c0,-20 9,-29 29,-29l232 0c8,0 15,3 20,9 6,5 9,12 9,20 0,7 -3,13 -8,19 -4,6 -12,9 -21,9l-204 0 0 175zm696 318c0,9 -3,16 -8,22 -6,5 -13,7 -21,7 -8,0 -14,-2 -20,-7 -6,-5 -9,-12 -9,-22l0 -493 -94 0 -139 500c-1,6 -4,11 -10,16 -5,4 -11,6 -17,6 -9,0 -16,-2 -22,-7 -5,-5 -8,-12 -8,-21 0,-4 0,-7 1,-8l145 -522c4,-14 13,-21 28,-21l145 0c19,0 29,9 29,29l0 521zm172 -260l174 0c17,0 30,5 41,16 12,11 17,25 17,42l0 115c0,17 -5,30 -16,42 -6,5 -12,9 -19,12 -7,3 -15,4 -23,4l-174 0 0 -231zm0 -58l0 -203c0,-8 -3,-15 -9,-20 -5,-6 -12,-9 -19,-9 -7,0 -13,2 -20,7 -6,5 -9,12 -9,22l0 521c0,19 9,29 29,29l202 0c31,0 58,-11 81,-33 23,-23 35,-50 35,-83l0 -116c0,-31 -11,-58 -34,-81 -22,-23 -50,-34 -82,-34l-174 0zm898 -175l-116 0c-9,0 -16,-2 -22,-7 -4,-7 -7,-14 -7,-21 0,-7 2,-13 7,-20 5,-6 12,-9 22,-9l289 0c8,0 15,3 21,9 5,5 8,12 8,20 0,6 -2,13 -7,19 -5,6 -12,9 -22,9l-116 0 0 493c0,9 -2,16 -8,22 -5,5 -12,7 -20,7 -8,0 -15,-2 -21,-7 -5,-5 -8,-12 -8,-22l0 -493zm665 493c0,9 -3,16 -8,22 -5,5 -12,7 -21,7 -7,0 -14,-2 -20,-7 -6,-5 -8,-12 -8,-22l0 -409 -235 423c-4,6 -8,11 -13,14l-6 4c-2,0 -5,1 -9,2 -6,0 -12,-3 -20,-9 -4,-6 -7,-14 -7,-25l0 -521c0,-8 3,-15 9,-21 5,-5 12,-8 20,-8 7,0 14,3 20,7 6,5 9,12 9,22l0 409 235 -423c2,-4 6,-9 12,-14 5,-4 10,-6 16,-6 6,0 12,4 17,10 6,6 9,14 9,24l0 521zm174 -300l244 -242c5,-5 12,-8 19,-8 8,0 14,3 20,9 7,6 10,13 10,21 0,5 -3,11 -9,19l-172 172 178 314 4 16c0,7 -3,14 -10,19 -6,6 -13,9 -21,9 -9,0 -17,-5 -24,-15l-170 -302 -69 68 0 220c0,9 -3,16 -9,22 -5,5 -12,7 -20,7 -8,0 -15,-2 -20,-7 -6,-5 -9,-12 -9,-22l0 -522c0,-7 3,-14 9,-20 6,-5 12,-8 20,-8 7,0 14,2 20,6 6,5 9,13 9,22l0 222z"/>
 </g>
</svg>
