<?xml version="1.0" encoding="UTF-8"?>
<!DOCTYPE svg PUBLIC "-//W3C//DTD SVG 1.0//EN" "http://www.w3.org/TR/2001/REC-SVG-20010904/DTD/svg10.dtd">
<!-- Creator: CorelDRAW X7 -->
<svg xmlns="http://www.w3.org/2000/svg" xml:space="preserve" width="200mm" height="200mm" version="1.0" style="shape-rendering:geometricPrecision; text-rendering:geometricPrecision; image-rendering:optimizeQuality; fill-rule:evenodd; clip-rule:evenodd"
viewBox="0 0 20000 20000"
 xmlns:xlink="http://www.w3.org/1999/xlink">
 <defs>
  <style type="text/css">
   <![CDATA[
    .str0 {stroke:#00CD99;stroke-width:25}
    .str2 {stroke:#14A0C1;stroke-width:25}
    .str1 {stroke:#4F7CAA;stroke-width:25}
    .str3 {stroke:#5059AC;stroke-width:25}
    .str4 {stroke:#FF004D;stroke-width:25}
    .fil5 {fill:#00CD99}
    .fil4 {fill:#14A0C1}
    .fil3 {fill:#4F7CAA}
    .fil2 {fill:#5059AC}
    .fil6 {fill:gray}
    .fil1 {fill:#FF004D}
    .fil0 {fill:url(#id0)}
   ]]>
  </style>
  <radialGradient id="id0" gradientUnits="userSpaceOnUse" gradientTransform="matrix(1.41421 -0 -0 1.41421 -4131 -4154)" cx="9974.09" cy="10029.4" r="10000" fx="9974.09" fy="10029.4">
   <stop offset="0" style="stop-opacity:1; stop-color:#FEFEFE"/>
   <stop offset="0.439216" style="stop-opacity:1; stop-color:#FEFEFE"/>
   <stop offset="1" style="stop-opacity:1; stop-color:#D1E2F2"/>
  </radialGradient>
 </defs>
 <g id="Layer_x0020_1">
  <metadata id="CorelCorpID_0Corel-Layer"/>
  <path class="fil0" d="M-26 29l20000 0 0 20000 -20000 0 0 -20000z"/>
  <g id="_273180847312">
   <path class="fil1" d="M15614 12079c-344,-10 -685,-146 -945,-409 -537,-541 -533,-1419 9,-1956 1,-1 3,-2 4,-4l-309 -312c-1,2 -3,3 -4,4 -715,709 -721,1863 -13,2578 347,350 801,529 1258,539l0 -440z"/>
   <path class="fil2" d="M4339 7012c344,10 685,145 945,409 537,541 533,1419 -9,1955 -2,2 -3,3 -4,4l309 313c1,-2 3,-3 4,-4 715,-709 721,-1863 12,-2578 -346,-350 -800,-530 -1257,-539l0 440z"/>
   <path class="fil1" d="M19262 12518l-3660 0 0 -440 3660 0 0 440z"/>
   <path class="fil2" d="M4347 7012l-3661 0 0 -440 3661 0 0 440z"/>
   <path class="fil2" d="M6499 12732c-265,0 -481,-216 -481,-481 0,-265 216,-481 481,-481 265,0 480,216 480,481 0,265 -215,481 -480,481zm0 -1070c-325,0 -589,264 -589,589 0,325 264,588 589,588 325,0 588,-263 588,-588 0,-325 -263,-589 -588,-589z"/>
   <path class="fil3" d="M8824 7336c-265,0 -480,-216 -480,-481 0,-265 215,-481 480,-481 265,0 481,216 481,481 0,265 -216,481 -481,481zm0 -1070c-325,0 -588,264 -588,589 0,325 263,588 588,588 325,0 589,-263 589,-588 0,-325 -264,-589 -589,-589z"/>
   <path class="fil3" d="M8318 7154c-52,-88 -82,-190 -82,-299 0,-51 6,-100 18,-147 -253,86 -492,230 -695,431 -714,707 -721,1858 -17,2573l313 -309c-533,-542 -527,-1416 13,-1952 133,-131 286,-230 450,-297z"/>
   <path class="fil4" d="M10136 7151c-215,-217 -472,-369 -745,-455 14,51 22,104 22,159 0,105 -28,203 -76,288 178,68 345,174 487,318 537,542 532,1419 -9,1956 -2,1 -3,2 -5,4l310 312c1,-1 3,-3 4,-4 715,-708 721,-1862 12,-2578z"/>
   <path class="fil2" d="M5910 12251c0,-113 32,-218 87,-307 -156,-68 -302,-166 -428,-294 -537,-541 -533,-1419 9,-1955 2,-2 3,-3 5,-4l-310 -313c-1,2 -3,3 -4,4 -715,709 -721,1863 -12,2578 195,197 425,340 670,430 -11,-45 -17,-91 -17,-139z"/>
   <path class="fil3" d="M7851 9399l-313 309c533,542 527,1417 -13,1952 -148,146 -321,252 -505,318 43,82 67,174 67,273 0,61 -10,121 -27,177 283,-82 550,-234 774,-456 714,-707 721,-1858 17,-2573z"/>
   <path class="fil3" d="M7084 9062c-32,-114 36,-183 150,-154l133 33c115,29 303,77 417,106l133 34c115,29 141,122 59,207l-96 98c-82,85 -218,224 -300,308l-96 98c-82,85 -176,62 -208,-52l-37 -132c-33,-114 -85,-300 -118,-414l-37 -132z"/>
   <path class="fil4" d="M11192 12717c-265,0 -481,-215 -481,-481 1,-265 216,-480 481,-480 265,0 481,215 481,480 0,266 -216,481 -481,481zm0 -1069c-325,0 -588,264 -588,588 0,325 263,589 588,589 325,0 589,-264 589,-589 0,-325 -264,-588 -589,-588z"/>
   <path class="fil5" d="M12412 9419l-313 310c533,542 527,1416 -13,1951 -114,114 -244,202 -381,267 48,86 76,184 76,289 0,58 -9,114 -24,167 232,-88 450,-224 638,-410 714,-707 721,-1858 17,-2574z"/>
   <path class="fil4" d="M10604 12236c0,-83 17,-162 49,-234 -192,-67 -371,-178 -523,-331 -537,-542 -532,-1419 9,-1956 2,-1 3,-3 5,-4l-310 -312c-1,1 -2,2 -4,4 -715,708 -721,1862 -12,2577 237,240 525,400 830,480 -28,-69 -44,-144 -44,-224z"/>
   <path class="fil5" d="M13942 6895c0,265 -215,481 -480,481 -266,0 -481,-216 -481,-481 0,-265 215,-481 481,-481 265,0 480,216 480,481zm108 0c0,-325 -263,-589 -588,-589 -325,0 -589,264 -589,589 0,325 264,588 589,588 325,0 588,-263 588,-588z"/>
   <path class="fil1" d="M14681 9712l-312 -310c532,-542 527,-1416 -14,-1951 -114,-113 -243,-202 -381,-267 48,-86 76,-184 76,-289 0,-58 -9,-114 -24,-166 232,87 451,223 638,410 714,707 721,1857 17,2573z"/>
   <path class="fil5" d="M12873 6895c0,83 18,163 49,234 -191,68 -371,178 -523,331 -536,542 -532,1419 10,1956 1,2 3,3 4,4l-309 312c-2,-1 -3,-2 -5,-4 -715,-708 -720,-1862 -12,-2577 238,-240 526,-400 830,-480 -28,69 -44,145 -44,224z"/>
   <path class="fil6" d="M6260 10772c-8,0 -14,-6 -14,-14 0,-7 6,-13 14,-13 7,0 13,6 13,13 0,8 -6,14 -13,14zm-29 -14c0,16 13,29 29,29 16,0 29,-13 29,-29 0,-16 -13,-29 -29,-29 -16,0 -29,13 -29,29z"/>
   <path class="fil6" d="M6680 10039l0 -85 97 85 -97 0zm-411 633l0 -222c15,-33 10,-61 6,-81 -2,-11 -4,-20 -1,-25 11,-20 13,-55 13,-68 6,-3 16,-11 23,-24 17,-32 21,-58 11,-77 -7,-14 -20,-21 -30,-25 -4,-1 -7,-2 -9,-2 -1,0 -2,-1 -2,-1 -4,0 -8,2 -9,6 0,1 -1,3 -2,5 0,1 0,1 0,1l0 0 0 -10 0 -204 396 0 0 102c0,4 3,7 8,7l117 1 0 617 -521 0zm-15 -490l0 2c-13,19 -31,43 -44,59 -21,26 -59,105 -60,108 -2,4 -1,8 3,10 2,1 5,1 7,0 1,-1 3,-2 3,-3 1,-1 39,-80 59,-105 8,-9 20,-25 32,-42 2,-4 5,-7 7,-11 3,-4 6,-8 8,-11 6,-10 11,-19 14,-25 7,2 19,7 24,18 8,15 4,36 -10,63 -8,13 -21,20 -21,20 -3,1 -4,4 -4,7 0,0 0,16 -3,34 -2,10 -4,21 -8,29 0,1 0,2 -1,2 -5,10 -3,21 0,35 0,2 1,5 1,7 3,13 4,28 0,45 -1,7 -4,15 -7,22 -6,12 -16,25 -29,39 -1,1 -1,2 -2,2 -3,3 -3,8 0,11 2,2 4,2 6,2 2,0 3,0 5,-2 8,-8 14,-15 20,-22l0 154 -201 0 8 -95c1,-2 16,-183 144,-307 18,-18 34,-33 49,-46zm45 611l-278 0 0 -148 233 0 0 34 0 1c0,2 1,4 3,6 1,1 2,2 4,2l38 0 0 105zm506 -748c0,0 0,0 0,0 0,-1 0,-1 0,-2 -1,0 -1,0 -1,0 0,-1 -1,-1 -1,-2l-125 -110c-1,0 -2,-1 -2,-1 -1,0 -1,0 -1,0 -1,0 -1,-1 -2,-1 0,0 0,0 0,0l-412 0c-4,0 -7,4 -7,8l0 225c-19,15 -39,34 -60,55 -132,128 -148,315 -148,317l-8 96 -25 0c-4,0 -7,3 -7,8l0 163c0,4 3,8 7,8l293 0c5,0 8,-4 8,-8l0 -113 484 0c4,0 8,-4 8,-8l0 -633c0,-1 -1,-1 -1,-2z"/>
   <path class="fil6" d="M6365 10113l274 0c4,0 7,-4 7,-8 0,-4 -3,-8 -7,-8l-273 0 -1 0c-4,0 -7,3 -8,6 0,1 0,1 0,2 0,4 3,8 8,8z"/>
   <path class="fil6" d="M6365 10242l356 0c4,0 7,-4 7,-8 0,-4 -3,-8 -7,-8l-356 0c-5,0 -8,4 -8,8 0,4 3,8 8,8z"/>
   <path class="fil6" d="M6365 10295c46,0 352,0 355,0 9,0 12,-13 2,-15 -5,-1 -345,0 -354,0 -2,0 -5,-1 -8,1 -6,4 -3,14 5,14z"/>
   <path class="fil6" d="M6365 10348c47,0 352,0 355,0 9,0 12,-13 2,-15 -6,-1 -349,0 -355,0 -3,0 -5,0 -7,1 -6,4 -3,14 5,14z"/>
   <path class="fil6" d="M6365 10435c47,0 353,0 355,0 10,0 11,-15 1,-15 -6,-1 -346,0 -354,0 -2,0 -5,0 -7,1 -6,4 -3,14 5,14z"/>
   <path class="fil6" d="M6365 10488l356 0c10,0 10,-15 0,-15l-356 0c-10,0 -10,15 0,15z"/>
   <path class="fil6" d="M6365 10542l356 0c10,0 10,-16 0,-16l-356 0c-10,0 -10,16 0,16z"/>
   <g>
    <path class="fil6" d="M11709 10620c8,2 13,13 16,20 7,14 9,31 10,47 0,16 -2,34 -8,49 -3,8 -8,20 -17,23l-1 -139zm-341 208l-208 -45c-31,-26 -55,-61 -56,-103 -1,-28 10,-55 31,-74 24,-21 55,-33 85,-41 38,-10 77,-16 116,-22 54,-8 108,-14 162,-26 46,-11 95,-26 132,-58l3 409c0,13 20,13 20,0l-3 -461 37 0 4 564 -37 1 0 -28c0,-6 -7,-12 -11,-16 -4,-4 -8,-8 -12,-12 -9,-8 -18,-15 -27,-22 -20,-14 -41,-24 -64,-33 -55,-20 -114,-27 -172,-33zm-133 114c-5,-53 -22,-98 -50,-133l157 34c-21,21 -32,57 -38,91 -18,0 -44,4 -69,8zm-248 109l23 202 -105 12 -22 -202 104 -12zm346 -85c5,7 5,17 4,26 -1,6 -1,10 4,15 9,9 15,20 16,33 1,9 -1,18 -6,26 -3,5 -3,8 -1,14 2,11 4,23 2,35 -1,5 -3,11 -7,15 -6,5 -15,8 -10,18 8,12 13,31 5,44 -7,12 -24,18 -36,23 -18,7 -36,13 -55,18 -37,10 -77,16 -116,13 -35,-2 -70,-14 -105,-12l-20 -173c31,-10 53,-31 68,-58 8,-15 14,-30 20,-45 3,-7 5,-14 8,-21 2,-6 5,-14 9,-18 15,-8 32,-15 48,-20 10,-3 22,-5 32,-3 15,3 16,23 12,35 -5,12 -19,17 -31,21 -7,3 -18,6 -15,16 2,7 8,8 14,7 16,-4 32,-7 49,-10 20,-4 41,-8 61,-10 16,-1 39,-4 50,11 6,10 -3,-4 0,0zm422 -277c-1,-49 -20,-87 -46,-89l-2 -203c0,-6 -5,-11 -10,-10l-57 0c-6,0 -10,5 -10,10l0 34c-24,28 -59,43 -94,55 -42,13 -86,20 -129,27 -76,11 -156,16 -228,45 -41,16 -80,42 -91,87 -16,60 15,117 61,154 25,23 41,50 51,78 -20,-6 -43,1 -63,9 -12,4 -25,9 -36,16 -6,5 -10,13 -13,20 -19,45 -31,100 -82,118l0 -1c-1,-6 -6,-10 -11,-9l-124 14c-6,0 -10,5 -9,11l25 222c0,6 5,10 11,9l124 -14c5,-1 9,-6 9,-11l-1 -7c35,-2 68,10 103,13 39,2 78,-3 116,-13 28,-7 55,-16 81,-29 12,-6 24,-14 30,-27 7,-17 4,-36 -3,-52 20,-16 18,-49 12,-71 19,-34 2,-65 -12,-81 3,-25 -7,-49 -33,-57 7,-40 21,-77 44,-89 146,15 214,41 266,100l0 34c0,5 4,10 10,10l57 -1c6,0 10,-4 10,-10l-1 -202c26,-2 45,-40 45,-90 -1,-49 0,50 0,0z"/>
    <path class="fil6" d="M11762 10656c3,4 9,6 14,3l218 -145c11,-8 0,-24 -11,-17l-219 145c-4,3 -5,9 -2,14 2,3 -3,-5 0,0z"/>
    <path class="fil6" d="M11751 10600c3,0 6,-1 8,-4l176 -221c8,-11 -8,-23 -16,-13l-175 222c-6,6 -1,16 7,16z"/>
    <path class="fil6" d="M11761 10805c-8,-10 -24,3 -16,13l179 219c8,10 24,-2 16,-12l-179 -220z"/>
    <path class="fil6" d="M11999 10700c0,0 0,0 0,0l-223 2c-13,0 -13,20 0,20l223 -1c13,-1 13,-21 0,-21z"/>
    <path class="fil6" d="M11985 10883l-209 -119c-11,-6 -21,11 -10,18l209 118c11,7 21,-11 10,-17z"/>
    <path class="fil6" d="M10929 11227c1,-2 3,-3 5,-3 7,0 8,12 1,13l-1 0c-5,0 -8,-6 -5,-10 1,-2 -1,1 0,0zm5 30c33,0 34,-51 1,-53 -14,-1 -27,11 -27,25 -1,15 11,28 26,28z"/>
   </g>
   <path class="fil4" d="M9545 9361c31,-115 125,-140 208,-56l97 97c84,84 220,221 304,305l97 97c83,84 58,177 -56,208l-133 35c-114,30 -301,80 -416,111l-132 35c-114,31 -183,-38 -152,-152l36 -132c31,-115 81,-302 112,-416l35 -132z"/>
   <path class="fil5" d="M12462 9121c114,31 139,124 55,208l-96 97c-84,84 -221,221 -304,304l-97 97c-84,84 -177,59 -208,-55l-36 -132c-30,-115 -81,-302 -111,-416l-36 -132c-31,-115 38,-183 152,-153l132 36c115,30 302,80 416,111l133 35z"/>
   <g>
    <path class="fil6" d="M8827 7999c66,0 233,0 250,0 3,0 5,0 8,0 8,0 13,-9 7,-14 -5,-4 -17,-2 -23,-2 -29,0 -239,0 -242,0 -12,0 -12,16 0,16z"/>
    <path class="fil6" d="M8827 8047c73,0 254,0 258,0 8,0 13,-9 7,-14 -6,-5 -19,-3 -26,-3 -28,0 -219,0 -232,0 -2,0 -4,0 -7,0 -12,0 -12,17 0,17z"/>
    <path class="fil6" d="M8827 8095c75,0 246,0 257,0 10,0 15,-12 5,-16 -3,-1 -6,-1 -9,-1 -38,0 -237,0 -247,0 -2,0 -4,0 -6,0 -12,0 -12,17 0,17z"/>
    <path class="fil6" d="M8707 8206c68,0 376,0 378,0 12,0 12,-17 0,-17 -69,0 -375,0 -377,0 -12,0 -13,17 -1,17z"/>
    <path class="fil6" d="M8707 8254c68,0 376,0 378,0 12,0 12,-17 0,-17 -69,0 -375,0 -377,0 -13,0 -13,17 -1,17z"/>
    <path class="fil6" d="M9214 8601c-50,-31 -251,-157 -301,-189 50,-31 251,-157 301,-188 0,57 0,376 0,377zm-582 -398l-43 0 43 -45 0 45zm529 0l0 -46 43 46 -43 0zm-583 398c0,-58 0,-375 0,-377 57,35 258,161 302,188 -54,34 -255,160 -302,189zm583 -382l27 0 -27 18 0 -18zm-529 18l-28 -18 28 0 0 18zm376 96c-72,0 -221,0 -223,0 -2,0 -37,-23 -50,-31l322 0 -49 31zm-147 47l-49 -31 169 0c-10,6 -49,31 -51,31 -23,0 -46,0 -69,0zm27 17l17 0 -9 5 -8 -5zm-423 -678c39,-6 78,-11 117,-15 19,-1 35,0 54,3 58,9 116,22 174,35 16,4 33,9 50,13 21,6 45,11 64,21 16,9 30,21 45,32 23,16 46,31 69,46 -36,0 -71,0 -106,0 -4,0 -6,-3 -9,-5 -7,-6 -15,-12 -23,-18 -9,-6 -18,-12 -27,-19 -19,-15 -37,-31 -55,-48 -1,-1 -2,-2 -4,-4 -5,-5 -16,-1 -16,6 1,7 10,13 15,17 19,17 38,35 59,51 14,9 28,18 41,29 15,13 30,26 44,41 5,5 11,11 15,17 3,6 4,9 -3,12 -11,6 -27,5 -40,2 -18,-3 -34,-12 -48,-22 -7,-6 -14,-13 -21,-19 -6,-7 -18,-9 -27,-12 -44,-13 -87,-28 -129,-47 -14,-7 -29,-13 -41,-23 -3,-2 -7,-5 -9,-8 -2,-6 -4,-12 -12,-10 -18,5 2,25 8,30 16,12 35,21 53,29 1,1 2,1 3,1 -5,0 -10,0 -15,0 -3,0 -6,0 -8,0 -4,0 -10,-4 -13,-6 -10,-6 -21,-13 -29,-21 -4,-4 -10,-3 -15,-2 -44,7 -88,15 -130,27l-31 -133zm23 180c-41,8 -81,15 -122,23 -14,-64 -47,-202 -48,-208l121 -23c14,58 46,196 49,208zm162 -28c16,0 92,-2 99,1 21,8 42,15 64,22 9,3 19,6 28,9 9,2 15,12 22,17 27,22 67,42 105,31 18,-5 31,-18 21,-35 -9,-17 -25,-31 -40,-45 64,0 129,0 193,0 0,67 0,368 0,377 0,2 -12,8 -14,9 -10,6 -43,28 -44,28 -22,0 -358,0 -370,0 -8,0 -64,-35 -64,-37 0,-15 0,-377 0,-377zm-52 738c54,-33 252,-158 298,-186 55,34 253,158 298,186l-596 0zm630 -409c-3,-1 -3,0 -5,-2 -2,-3 -51,-55 -62,-67 -1,-1 0,-200 0,-268 0,-8 -8,-9 -14,-9 -10,0 -76,2 -81,-2 -23,-15 -45,-30 -68,-45 -11,-8 -22,-15 -33,-23 -8,-6 -16,-13 -25,-19 -23,-14 -53,-20 -80,-27 -22,-6 -44,-12 -67,-17 -56,-12 -112,-25 -169,-33 -17,-2 -33,-1 -51,1 -37,3 -75,8 -112,13 -2,-7 -4,-15 -5,-22 -2,-8 -10,-7 -16,-6 -19,4 -100,19 -121,23 -10,2 -23,2 -21,15 16,68 32,137 48,205 2,8 3,25 15,23 13,-1 125,-23 133,-25 6,-1 14,-2 14,-9 1,-6 -7,-32 -8,-38 29,-8 58,-14 88,-19 10,-2 21,-4 31,-6 4,0 7,-1 11,-1 2,-1 5,3 6,5 4,2 7,5 11,7 -7,0 -15,1 -15,10 0,3 0,6 0,9 0,14 0,227 0,257 0,2 0,2 -1,4 -5,5 -61,63 -63,65 -1,1 0,0 -2,1 -4,1 -6,4 -6,8 0,1 0,393 0,403 0,6 -1,15 9,15 15,0 650,0 655,0 10,0 9,-9 9,-15 0,-69 0,-335 0,-400 0,-4 0,-8 -5,-11 -1,0 3,2 0,0z"/>
    <path class="fil6" d="M8383 7889c-2,-10 16,-14 19,-3 2,10 -16,13 -19,3 0,-2 1,2 0,0zm35 -11c-6,-13 -22,-19 -36,-14 -14,6 -22,21 -15,34 7,12 23,18 37,12 14,-6 20,-20 14,-32 -4,-9 1,1 0,0z"/>
   </g>
   <g>
    <path class="fil6" d="M13511 7748c4,0 8,0 12,1 57,6 102,51 108,107 0,4 0,8 0,13 0,6 5,11 12,11 6,0 12,-5 12,-11 0,-80 -65,-144 -144,-144 -7,0 -12,5 -12,12 0,6 5,11 12,11z"/>
    <path class="fil6" d="M13515 7705c86,0 156,70 156,156 0,84 -65,152 -147,156 16,-91 23,-136 22,-146 -1,-20 -19,-35 -41,-35 -18,0 -33,9 -42,23 -4,8 -15,47 -36,132 -41,-28 -69,-76 -69,-130 0,-86 71,-156 157,-156zm-258 989c23,-42 40,-74 41,-80 1,-5 0,-14 -8,-49 -12,-54 -31,-145 -23,-189 14,-72 -10,-188 -10,-189 -2,-10 -27,-49 -45,-78 6,-3 15,-5 25,-5 24,0 45,16 62,47 33,61 34,115 34,135 0,4 0,7 0,8 1,6 7,11 13,11 10,0 12,-4 34,-57 5,-13 11,-26 13,-30 3,-6 12,-38 38,-146 4,-14 49,-193 53,-201 4,-7 12,-12 21,-12 6,0 17,3 18,14 1,9 -53,315 -52,327 0,3 1,5 2,7 2,3 10,13 22,13 3,0 5,-1 8,-2 4,-2 7,-6 17,-16 8,-10 32,-37 40,-37 10,-1 32,3 40,14 4,6 4,12 1,21l-18 36c-2,5 -4,8 -4,8 -3,6 0,13 6,16 5,2 12,0 15,-6l4 -7c13,-25 28,-41 38,-39 11,3 20,9 24,18 5,8 5,17 2,27 -8,20 -13,31 -19,43 -3,7 -5,12 -5,13 -2,6 1,12 7,14 6,2 12,0 15,-6l4 -10c2,-4 7,-11 12,-11 23,1 27,5 28,17 1,20 -42,242 -79,293 -20,27 -44,57 -64,83 -18,23 -34,43 -42,55l-268 -50zm-135 221l40 -215 403 76 -40 214 -403 -75zm528 -295c40,-56 85,-282 83,-308 -2,-36 -32,-39 -48,-39 1,-4 3,-7 4,-12 7,-15 6,-32 -2,-46 -8,-15 -22,-26 -40,-29 -7,-2 -14,-1 -21,2 0,-10 -4,-17 -7,-22 -15,-21 -47,-25 -60,-24 -17,1 -36,20 -57,44 -2,3 -5,6 -7,9 1,-21 14,-93 25,-154 97,-3 175,-82 175,-180 0,-99 -81,-180 -180,-180 -99,0 -180,81 -180,180 0,65 35,122 86,154 -4,16 -8,33 -13,52 -15,62 -32,133 -35,140 -3,5 -7,15 -15,32 -1,3 -2,6 -4,10 -3,-28 -12,-67 -34,-109 -27,-49 -60,-60 -83,-60 -27,0 -48,15 -49,15 -5,4 -6,11 -3,16 22,35 47,74 49,81 5,21 21,121 10,180 -9,49 11,142 23,198 4,17 8,35 8,40 -3,8 -20,39 -42,79l-78 -14c-7,-2 -13,3 -14,9l-45 238c0,3 0,6 2,9 2,2 5,4 8,4l426 81c1,0 1,0 2,0 5,0 10,-4 11,-10l45 -238c1,-3 0,-6 -2,-8 -1,-3 -4,-5 -7,-5l-31 -6c9,-12 21,-28 35,-45 21,-27 45,-57 65,-84z"/>
    <path class="fil6" d="M13674 8382c2,3 5,4 8,4 3,0 6,-1 8,-3 4,-4 5,-11 1,-16 -93,-105 -202,-145 -262,-131 -6,2 -10,8 -9,14 2,6 8,10 14,8 4,-1 10,-1 15,-2 44,-1 124,24 204,104 7,7 14,14 21,22z"/>
    <path class="fil6" d="M13474 8945c-10,-2 -18,-13 -16,-23 2,-10 10,-17 20,-17 1,0 2,0 4,1 5,1 9,4 12,8 3,4 4,10 3,15 -2,10 -12,18 -23,16zm12 -62c0,0 -1,0 -1,0 -2,-1 -5,-1 -7,-1 -2,0 -4,0 -6,0 -6,1 -12,3 -17,7 -5,3 -9,6 -12,11 -4,5 -6,11 -8,17 -4,24 12,46 35,51 3,0 5,0 8,0 21,0 39,-14 42,-35 3,-11 0,-23 -6,-32 -7,-10 -17,-16 -28,-18z"/>
   </g>
   <path class="fil5 str0" d="M12960 5586l35 -321c0,-11 7,-16 19,-16l112 0c13,0 19,6 19,18l0 319 19 0c12,0 18,6 18,18l0 37c0,5 -1,10 -5,13 -4,4 -8,6 -13,6 -4,0 -8,-2 -13,-5 -4,-3 -6,-8 -6,-14l0 -18 -187 0 0 18c0,5 -2,10 -6,13 -4,4 -8,6 -13,6 -4,0 -8,-2 -12,-5 -4,-3 -6,-8 -6,-14l0 -37c0,-12 6,-18 18,-18l21 0zm148 0l0 -300 -77 0 -34 300 111 0zm186 -187l94 0c5,0 10,1 13,5 4,4 6,8 6,13 0,5 -2,9 -5,13 -3,4 -8,6 -14,6l-94 0 0 150 132 0c5,0 9,1 13,5 3,4 5,8 5,13 0,5 -1,9 -4,13 -4,4 -8,6 -14,6l-150 0c-13,0 -19,-6 -19,-18l0 -338c0,-12 6,-18 19,-18l150 0c5,0 9,2 13,5 3,4 5,9 5,13 0,5 -1,9 -4,13 -4,4 -8,6 -14,6l-132 0 0 113zm412 0l0 -132c0,-5 1,-9 5,-13 4,-3 8,-5 13,-5 5,0 9,1 13,4 4,3 6,8 6,14l0 336c0,6 -2,11 -6,15 -5,3 -9,5 -13,5 -5,0 -9,-2 -13,-5 -4,-3 -5,-8 -5,-14l0 -168 -150 0 0 168c0,6 -2,11 -6,14 -3,3 -7,5 -13,5 -5,0 -9,-2 -13,-5 -4,-3 -5,-8 -5,-14l0 -336c0,-5 1,-10 5,-14 4,-3 8,-5 13,-5 5,0 9,2 13,5 4,3 6,7 6,14l0 131 150 0zm149 37l112 0c11,0 19,3 27,10 7,7 11,16 11,27l0 75c0,11 -4,19 -11,27 -4,3 -8,6 -12,8 -5,2 -10,3 -15,3l-112 0 0 -150zm0 -38l0 -131c0,-5 -2,-9 -6,-13 -4,-3 -8,-5 -13,-5 -4,0 -8,1 -12,4 -4,3 -6,8 -6,14l0 337c0,13 6,19 18,19l131 0c20,0 38,-7 52,-22 15,-14 23,-32 23,-53l0 -75c0,-20 -8,-38 -22,-52 -15,-15 -32,-23 -53,-23l-112 0zm-1196 486l-75 0c-5,0 -10,-2 -14,-5 -3,-4 -4,-9 -4,-13 0,-5 1,-9 4,-13 3,-4 8,-6 14,-6l187 0c5,0 10,2 13,6 4,3 6,8 6,13 0,4 -2,8 -5,12 -3,4 -8,6 -14,6l-75 0 0 318c0,6 -2,11 -5,14 -3,3 -8,5 -13,5 -5,0 -10,-2 -13,-5 -4,-3 -6,-8 -6,-14l0 -318zm430 318c0,6 -2,11 -6,14 -3,3 -7,5 -13,5 -5,0 -9,-2 -13,-5 -4,-3 -6,-8 -6,-14l0 -264 -151 273c-2,4 -5,7 -9,9l-4 3c-1,0 -3,1 -5,1 -4,0 -8,-2 -13,-6 -3,-3 -4,-9 -4,-16l0 -336c0,-5 1,-10 5,-14 4,-3 8,-5 13,-5 5,0 9,2 13,5 4,3 6,8 6,14l0 264 151 -273c2,-3 5,-6 8,-9 4,-3 7,-4 11,-4 4,0 7,2 11,6 4,4 6,9 6,16l0 336zm242 -18l94 0 0 -318c0,-5 2,-10 5,-14 4,-3 8,-5 13,-5 5,0 9,2 13,5 4,3 6,7 6,14l0 336c0,13 -6,19 -19,19l-261 0c-12,0 -19,-6 -19,-19l0 -336c0,-5 2,-10 6,-14 4,-3 8,-5 13,-5 5,0 9,2 13,5 4,3 6,7 6,14l0 318 93 0 0 -318c0,-5 2,-10 6,-14 3,-3 8,-5 13,-5 4,0 9,2 13,5 3,3 5,7 5,14l0 318zm430 18c0,6 -1,11 -5,14 -3,3 -8,5 -13,5 -5,0 -9,-2 -13,-5 -4,-3 -6,-8 -6,-14l0 -264 -151 273c-3,4 -5,7 -9,9l-4 3c-1,0 -3,1 -6,1 -3,0 -7,-2 -12,-6 -3,-3 -5,-9 -5,-16l0 -336c0,-5 2,-10 6,-14 4,-3 8,-5 13,-5 5,0 9,2 13,5 4,3 5,8 5,14l0 264 152 -273c2,-3 5,-6 8,-9 4,-3 7,-4 10,-4 4,0 8,2 12,6 4,4 5,9 5,16l0 336zm262 -205l0 -131c0,-5 2,-10 6,-13 4,-4 8,-6 13,-6 5,0 9,2 13,5 4,3 5,7 5,14l0 336c0,5 -1,10 -5,14 -5,3 -9,5 -13,5 -5,0 -9,-2 -13,-5 -4,-3 -6,-7 -6,-14l0 -168 -150 0 0 168c0,6 -1,11 -5,14 -3,3 -8,5 -13,5 -5,0 -9,-2 -13,-5 -4,-3 -6,-8 -6,-14l0 -336c0,-5 2,-10 6,-14 4,-3 8,-5 13,-5 5,0 9,2 13,5 4,3 5,8 5,14l0 131 150 0zm374 205c0,6 -2,11 -5,14 -4,3 -8,5 -13,5 -5,0 -10,-2 -13,-5 -4,-3 -6,-8 -6,-14l0 -336c0,-5 2,-10 6,-14 3,-3 8,-5 13,-5 4,0 8,2 13,5 3,3 5,7 5,14l0 336zm-225 -168l0 150 75 0c11,0 20,-4 27,-11 7,-7 11,-16 11,-27l0 -75c0,-10 -4,-19 -11,-26 -7,-7 -16,-11 -27,-11l-75 0zm0 -37l75 0c21,0 38,7 53,22 15,14 22,32 22,52l0 75c0,21 -7,38 -22,53 -14,15 -32,22 -53,22l-93 0c-13,0 -19,-6 -19,-19l0 -336c0,-5 2,-10 6,-14 4,-3 8,-5 13,-5 5,0 9,2 13,5 3,3 5,7 5,14l0 131z"/>
   <path class="fil3 str1" d="M7599 5660l97 -137c1,-3 3,-5 6,-6 3,-2 6,-3 8,-3 5,0 10,2 14,6 4,4 6,8 6,13 0,4 -1,8 -4,11l-98 139 99 177c2,4 3,7 3,10 0,5 -2,9 -6,13 -4,3 -8,5 -14,5 -6,0 -11,-3 -16,-9l-95 -172 0 163c0,5 -2,10 -6,14 -3,3 -7,4 -13,4 -5,0 -9,-1 -13,-4 -4,-3 -5,-8 -5,-14l0 -162 -96 171c-2,2 -4,4 -7,7l-5 1 -4 1c-6,0 -10,-1 -14,-5 -4,-3 -6,-8 -6,-13 0,-2 1,-5 3,-10l99 -176 -98 -140c-1,-2 -3,-5 -4,-11 0,-5 2,-9 6,-13 4,-4 8,-6 14,-6 5,0 10,3 15,9l97 138 0 -128c0,-5 1,-10 5,-14 4,-3 8,-5 13,-5 5,0 9,2 13,5 4,3 6,8 6,14l0 127zm242 4l94 0c6,0 10,2 14,6 3,4 5,8 5,13 0,4 -1,8 -5,12 -3,4 -7,6 -14,6l-94 0 0 150 132 0c5,0 9,2 13,6 4,4 5,8 5,13 0,4 -1,8 -4,12 -3,4 -8,6 -14,6l-150 0c-13,0 -19,-6 -19,-17l0 -338c0,-13 6,-19 19,-19l150 0c5,0 9,2 13,6 4,4 5,8 5,13 0,4 -1,9 -4,12 -3,4 -8,6 -14,6l-132 0 0 113zm262 37l112 0c11,0 19,-3 27,-10 7,-7 11,-16 11,-27l0 -75c0,-11 -4,-19 -11,-27 -7,-7 -16,-11 -27,-11l-112 0 0 150zm0 37l0 132c0,5 -2,10 -5,14 -4,3 -8,4 -14,4 -5,0 -9,-1 -13,-4 -3,-3 -5,-8 -5,-14l0 -337c0,-13 6,-19 18,-19l131 0c21,0 39,8 53,22 15,15 22,32 22,53l0 75c0,20 -7,38 -22,52 -15,15 -32,22 -53,22l-112 0zm299 -74l94 0c5,0 10,2 13,6 4,4 6,8 6,13 0,4 -2,8 -5,12 -3,4 -8,6 -14,6l-94 0 0 150 131 0c5,0 10,2 14,6 3,4 5,8 5,13 0,4 -1,8 -5,12 -3,4 -7,6 -14,6l-150 0c-12,0 -18,-6 -18,-17l0 -338c0,-13 6,-19 18,-19l150 0c5,0 10,2 14,6 3,4 5,8 5,13 0,4 -1,9 -5,12 -3,4 -7,6 -14,6l-131 0 0 113zm262 37l0 150 112 0c10,0 19,-3 26,-10 8,-7 11,-16 11,-27l0 -75c0,-11 -3,-20 -10,-27 -7,-7 -16,-11 -27,-11l-112 0zm0 -37l112 0c20,0 38,7 52,22 15,14 23,32 23,53l0 75c0,20 -8,38 -22,52 -15,15 -33,22 -53,22l-131 0c-12,0 -19,-6 -19,-18l0 -337c0,-13 7,-19 19,-19l150 0c5,0 9,2 13,6 3,4 5,8 5,13 0,4 -1,8 -4,12 -4,4 -8,6 -15,6l-130 0 0 113zm299 37l112 0c10,0 19,4 26,11 8,7 11,16 11,27l0 75c0,10 -3,19 -10,26 -4,4 -8,7 -13,8 -4,2 -9,3 -14,3l-112 0 0 -150zm0 -37l0 -131c0,-5 -2,-9 -6,-13 -4,-4 -8,-6 -13,-6 -4,0 -8,2 -13,5 -4,3 -6,8 -6,14l0 337c0,12 7,18 19,18l131 0c20,0 37,-7 52,-21 15,-15 22,-32 22,-53l0 -75c0,-20 -7,-38 -21,-53 -15,-15 -32,-22 -53,-22l-112 0zm298 0l95 0c5,0 9,2 13,6 3,4 5,8 5,13 0,4 -1,8 -4,12 -4,4 -8,6 -14,6l-95 0 0 150 132 0c5,0 9,2 13,6 4,4 6,8 6,13 0,4 -2,8 -5,12 -3,4 -8,6 -14,6l-150 0c-12,0 -19,-6 -19,-17l0 -338c0,-13 7,-19 19,-19l150 0c5,0 10,2 13,6 4,4 6,8 6,13 0,4 -2,9 -5,12 -3,4 -8,6 -14,6l-132 0 0 113zm413 11c11,6 20,15 26,27 7,11 10,24 10,37l0 74c0,21 -7,39 -22,53 -14,15 -32,22 -53,22l-130 0c-13,0 -19,-6 -19,-18l0 -337c0,-13 6,-19 19,-19l112 0c21,0 38,8 53,22 14,15 22,32 22,53l0 37c0,9 -2,17 -5,25 -2,8 -7,16 -13,24zm-151 26l0 150 112 0c11,0 20,-3 27,-10 7,-7 11,-16 11,-27l0 -75c0,-11 -4,-20 -11,-27 -7,-7 -16,-11 -27,-11l-112 0zm94 -37c10,0 19,-3 26,-10 8,-7 11,-16 11,-28l0 -37c0,-11 -3,-19 -10,-27 -7,-7 -16,-11 -27,-11l-94 0 0 113 94 0zm205 12l158 -157c3,-3 8,-5 12,-5 5,0 9,2 13,6 5,4 7,8 7,14 0,3 -2,7 -6,12l-111 111 114 203 3 10c0,5 -2,9 -6,13 -4,3 -8,5 -14,5 -6,0 -11,-3 -16,-10l-109 -194 -45 43 0 143c0,5 -2,10 -5,14 -4,3 -8,4 -14,4 -4,0 -9,-1 -13,-4 -3,-4 -5,-8 -5,-14l0 -337c0,-5 2,-10 6,-13 3,-4 8,-6 12,-6 5,0 10,2 14,5 3,3 5,7 5,13l0 144zm327 119l-26 80c-2,4 -4,8 -7,10 -3,2 -6,3 -11,3 -5,0 -9,-2 -13,-5 -4,-3 -6,-8 -6,-13l2 -7 112 -336c4,-11 10,-16 18,-16 8,0 13,5 17,16l112 336 1 7c0,5 -2,9 -6,13 -4,4 -8,5 -13,5 -2,0 -5,0 -8,-2 -3,-1 -6,-4 -9,-11l-27 -80 -136 0zm124 -38l-55 -165 -56 165 111 0z"/>
   <path class="fil5 str2" d="M10099 13421l-27 81c-2,4 -4,7 -7,9 -3,2 -6,3 -10,4 -5,0 -10,-2 -14,-6 -4,-3 -6,-7 -6,-12l2 -7 112 -337c4,-10 10,-16 18,-16 8,0 14,6 17,16l112 337 2 7c0,4 -3,9 -7,13 -4,3 -8,5 -13,5 -2,0 -5,-1 -8,-2 -3,-1 -6,-5 -9,-11l-27 -81 -135 0zm123 -38l-55 -165 -56 165 111 0zm316 -205l-131 0 0 318c0,6 -2,11 -6,14 -3,3 -8,5 -13,5 -5,0 -9,-2 -13,-5 -4,-3 -6,-8 -6,-14l0 -337c0,-12 7,-18 19,-18l150 0c5,0 9,2 13,5 4,4 5,9 5,13 0,5 -1,9 -4,13 -3,4 -8,6 -14,6zm317 318c0,6 -2,11 -5,14 -4,3 -8,5 -13,5 -5,0 -10,-2 -13,-5 -4,-3 -6,-8 -6,-14l0 -264 -152 273c-2,4 -5,7 -8,9l-4 2c-1,1 -3,1 -6,2 -3,0 -8,-2 -12,-6 -3,-4 -5,-9 -5,-16l0 -336c0,-5 2,-10 6,-14 3,-3 8,-5 13,-5 4,0 9,2 12,5 4,3 6,7 6,14l0 264 152 -273c2,-3 4,-6 8,-9 3,-3 7,-4 10,-4 4,0 8,2 11,6 4,4 6,9 6,15l0 337zm168 -318l-74 0c-6,0 -11,-2 -14,-5 -3,-4 -5,-9 -5,-14 0,-4 1,-8 5,-12 3,-4 7,-6 14,-6l186 0c6,0 10,2 14,5 3,4 5,9 5,13 0,5 -1,9 -5,13 -3,4 -7,6 -14,6l-74 0 0 318c0,6 -2,11 -6,14 -3,3 -8,5 -13,5 -5,0 -9,-2 -13,-5 -4,-3 -6,-8 -6,-14l0 -318zm197 243l-27 81c-2,4 -4,7 -7,9 -3,2 -6,3 -10,4 -5,0 -10,-2 -13,-6 -4,-3 -6,-7 -6,-12l1 -7 112 -337c4,-10 10,-16 18,-16 8,0 14,6 17,16l112 337 2 7c0,4 -2,9 -6,13 -4,3 -9,5 -13,5 -3,0 -6,-1 -9,-2 -3,-1 -6,-5 -9,-11l-27 -81 -135 0zm123 -38l-55 -165 -55 165 110 0zm335 94l0 -318c0,-5 1,-9 5,-13 4,-4 8,-5 13,-5 5,0 9,1 13,4 4,4 6,8 6,14l0 318 19 0c12,0 18,7 18,19l0 56c0,5 -1,10 -5,14 -4,3 -8,5 -13,5 -4,0 -9,-2 -13,-5 -4,-3 -6,-8 -6,-14l0 -37 -206 0c-12,0 -18,-7 -18,-19l0 -337c0,-5 1,-9 5,-13 4,-4 8,-5 13,-5 5,0 9,1 13,4 4,4 6,8 6,14l0 318 150 0zm373 19c0,6 -2,11 -5,14 -4,3 -8,5 -14,5 -4,0 -9,-2 -13,-5 -3,-3 -5,-8 -5,-14l0 -264 -152 273c-2,4 -5,7 -8,9l-4 2c-1,1 -3,1 -6,2 -4,0 -8,-2 -12,-6 -3,-4 -5,-9 -5,-16l0 -336c0,-5 2,-10 5,-14 4,-3 9,-5 13,-5 5,0 10,2 13,5 4,3 6,7 6,14l0 264 152 -273c2,-3 4,-6 8,-9 3,-3 7,-4 10,-4 4,0 8,2 11,6 4,4 6,9 6,15l0 337zm262 -168l0 -150 -113 0c-10,0 -19,3 -26,11 -4,3 -7,7 -8,12 -2,4 -3,9 -3,14l0 75c0,11 4,20 11,27 4,3 8,6 12,8 5,2 10,3 14,3l113 0zm-64 37l-89 141c-3,6 -8,9 -15,9 -4,0 -9,-2 -13,-6 -4,-4 -6,-8 -6,-13 0,-4 1,-7 3,-10l75 -121 -3 0c-21,0 -38,-7 -53,-22 -15,-14 -22,-32 -22,-53l0 -75c0,-20 7,-38 22,-53 14,-14 32,-21 53,-21l130 0c13,0 19,6 19,18l0 337c0,6 -2,11 -5,14 -4,3 -8,5 -14,5 -4,0 -9,-2 -13,-5 -3,-3 -5,-8 -5,-14l0 -131 -64 0zm-2291 524l0 -132c0,-4 1,-9 5,-13 4,-3 8,-5 13,-5 5,0 9,1 13,5 4,3 6,7 6,14l0 336c0,5 -2,10 -6,14 -5,3 -9,5 -13,5 -5,0 -9,-2 -13,-5 -4,-3 -5,-7 -5,-14l0 -168 -150 0 0 168c0,6 -2,11 -6,14 -3,3 -7,5 -13,5 -5,0 -9,-2 -13,-5 -4,-3 -5,-8 -5,-14l0 -336c0,-5 1,-10 5,-14 4,-3 8,-5 13,-5 5,0 9,2 13,5 4,3 6,8 6,14l0 131 150 0zm177 130l-27 81c-1,4 -4,7 -7,10 -2,1 -6,2 -10,3 -5,0 -9,-2 -13,-5 -4,-4 -6,-8 -6,-13l1 -7 113 -336c3,-11 9,-16 17,-16 8,0 14,5 18,16l112 336 1 7c0,5 -2,9 -6,13 -4,3 -8,5 -13,5 -3,0 -5,-1 -9,-2 -3,-1 -6,-5 -8,-11l-27 -81 -136 0zm123 -38l-55 -164 -55 164 110 0zm279 -55l0 -168c0,-5 1,-10 5,-14 4,-3 8,-5 13,-5 5,0 9,1 13,5 4,3 6,7 6,14l0 336c0,6 -2,11 -6,14 -3,3 -7,5 -13,5 -5,0 -9,-2 -13,-5 -4,-3 -5,-8 -5,-14l0 -131 -113 0c-20,0 -37,-7 -52,-22 -15,-14 -22,-32 -22,-53l0 -130c0,-5 1,-10 5,-14 4,-3 8,-5 13,-5 5,0 9,1 13,5 4,3 6,7 6,14l0 131c0,10 3,19 10,26 4,3 8,6 13,8 5,2 10,3 14,3l113 0zm336 168c0,6 -2,11 -6,14 -3,3 -7,5 -13,5 -5,0 -9,-2 -13,-5 -4,-3 -5,-8 -5,-14l0 -264 -152 273c-2,4 -5,7 -8,9l-4 3c-2,0 -4,1 -6,1 -4,0 -8,-2 -13,-6 -3,-3 -4,-9 -4,-16l0 -336c0,-5 1,-10 5,-14 4,-3 8,-5 13,-5 5,0 9,2 13,5 4,3 6,8 6,14l0 264 151 -273c2,-3 5,-6 9,-9 3,-3 6,-4 10,-4 4,0 8,2 11,6 4,4 6,9 6,16l0 336zm262 -205l0 -132c0,-4 1,-9 5,-13 4,-3 8,-5 13,-5 5,0 9,1 13,5 4,3 6,7 6,14l0 336c0,5 -2,10 -6,14 -5,3 -9,5 -13,5 -5,0 -9,-2 -13,-5 -4,-3 -5,-7 -5,-14l0 -168 -150 0 0 168c0,6 -2,11 -6,14 -3,3 -7,5 -13,5 -5,0 -9,-2 -13,-5 -4,-3 -5,-8 -5,-14l0 -336c0,-5 1,-10 5,-14 4,-3 8,-5 13,-5 5,0 9,2 13,5 4,3 6,8 6,14l0 131 150 0zm177 130l-27 81c-1,4 -4,7 -7,10 -2,1 -6,2 -10,3 -5,0 -9,-2 -13,-5 -4,-4 -6,-8 -6,-13l1 -7 113 -336c3,-11 9,-16 17,-16 8,0 14,5 18,16l112 336 1 7c0,5 -2,9 -6,13 -4,3 -8,5 -13,5 -3,0 -5,-1 -9,-2 -3,-1 -6,-5 -8,-11l-27 -81 -136 0zm123 -38l-55 -164 -55 164 110 0zm185 -92l94 0c5,0 10,2 13,5 4,4 6,9 6,13 0,5 -2,9 -5,13 -3,4 -8,6 -14,6l-94 0 0 150 131 0c6,0 10,2 14,5 3,4 5,9 5,13 0,5 -1,9 -4,13 -4,4 -8,6 -14,6l-150 0c-13,0 -19,-6 -19,-18l0 -337c0,-13 6,-19 19,-19l150 0c5,0 9,2 13,6 3,3 5,8 5,12 0,5 -1,9 -5,13 -3,4 -7,6 -14,6l-131 0 0 113zm318 -113l-75 0c-5,0 -10,-2 -14,-5 -3,-4 -4,-9 -4,-14 0,-4 1,-8 4,-12 3,-4 8,-6 14,-6l187 0c5,0 10,2 13,6 4,3 6,8 6,12 0,5 -2,9 -5,13 -3,4 -8,6 -14,6l-75 0 0 318c0,6 -2,11 -5,14 -3,3 -8,5 -13,5 -5,0 -10,-2 -13,-5 -4,-3 -6,-8 -6,-14l0 -318zm357 337l-94 0c-20,0 -37,-7 -52,-22 -15,-14 -22,-32 -22,-53l0 -224c0,-21 7,-39 21,-53 15,-15 33,-22 53,-22l94 0c5,0 10,2 13,6 4,3 6,8 6,12 0,5 -2,9 -5,13 -3,4 -8,6 -14,6l-94 0c-10,0 -19,4 -27,11 -3,3 -6,7 -8,12 -1,5 -2,9 -2,15l0 224c0,11 3,20 10,27 4,3 8,6 13,8 5,2 10,3 14,3l94 0c5,0 10,2 13,5 4,4 6,9 6,13 0,5 -2,9 -5,13 -3,4 -8,6 -14,6zm280 -187l0 -150 -112 0c-11,0 -20,4 -27,11 -3,3 -6,7 -8,12 -2,5 -3,9 -3,15l0 74c0,11 4,20 11,27 4,3 8,6 12,8 5,2 10,3 15,3l112 0zm-64 37l-88 141c-4,6 -9,9 -15,9 -5,0 -9,-2 -13,-6 -5,-4 -7,-8 -7,-13 0,-4 1,-7 3,-10l76 -121 -4 0c-20,0 -38,-7 -53,-22 -14,-14 -22,-32 -22,-53l0 -74c0,-21 8,-39 22,-53 15,-15 32,-22 53,-22l131 0c12,0 18,6 18,19l0 336c0,6 -1,11 -5,14 -3,3 -8,5 -13,5 -5,0 -9,-2 -13,-5 -4,-3 -6,-8 -6,-14l0 -131 -64 0zm-2562 561l-56 0c-5,0 -10,-2 -14,-5 -3,-4 -4,-8 -4,-13 0,-5 1,-9 5,-13 3,-4 7,-6 13,-6l56 0c11,0 19,-4 27,-11 7,-6 11,-15 11,-27l0 -37c0,-11 -4,-20 -11,-27 -7,-7 -16,-11 -27,-11l-37 0c-8,0 -16,3 -22,7 -6,5 -11,11 -13,19 -1,4 -3,6 -6,9 -2,1 -4,3 -6,3l-6 1c-5,0 -10,-1 -14,-5 -3,-3 -5,-8 -5,-13l1 -7c5,-15 14,-27 27,-37 13,-9 27,-14 44,-14l37 0c21,0 39,7 53,22 15,15 22,32 22,53l0 37c0,11 -2,22 -7,31 -4,10 -10,19 -18,25 16,15 25,33 25,56l0 75c0,21 -7,38 -22,53 -15,15 -32,22 -53,22l-37 0c-16,0 -31,-5 -44,-14 -12,-9 -22,-22 -27,-37l-1 -7c0,-5 2,-9 5,-13 4,-4 9,-5 14,-5 8,0 13,4 17,12 3,8 7,14 14,20 7,5 14,7 22,7l37 0c11,0 19,-4 27,-11 7,-6 11,-15 11,-27l0 -74c0,-11 -3,-20 -9,-27 -6,-7 -16,-11 -29,-11zm196 94l-27 80c-1,4 -4,7 -7,10 -2,1 -6,3 -10,3 -5,0 -9,-2 -13,-5 -4,-3 -6,-8 -6,-13l1 -7 113 -336c3,-11 9,-16 17,-16 8,0 14,5 18,16l112 336 1 7c0,5 -2,9 -6,13 -4,3 -8,5 -13,5 -3,0 -5,-1 -9,-2 -3,-1 -6,-5 -8,-11l-27 -80 -136 0zm123 -39l-55 -164 -55 164 110 0zm545 -98l-120 193 116 0c5,0 9,2 13,6 3,3 5,8 5,13 0,4 -1,8 -4,12 -4,4 -8,6 -14,6l-150 0c-13,0 -20,-5 -20,-15 0,-4 1,-8 4,-14l138 -220c5,-10 7,-19 7,-28 0,-16 -6,-30 -18,-42 -6,-5 -13,-10 -21,-13 -8,-3 -16,-5 -25,-5 -10,0 -19,3 -28,8 -8,5 -15,12 -21,21 -2,2 -4,5 -7,7l-9 2c-4,0 -9,-2 -13,-6 -4,-3 -6,-7 -6,-12 0,-3 1,-7 3,-11 9,-13 20,-24 35,-33 7,-4 14,-7 22,-9 7,-3 14,-4 21,-4 29,0 54,10 74,29 20,19 31,42 31,69 0,16 -5,31 -13,46zm201 6c17,0 31,-6 42,-18 10,-11 14,-24 14,-38 0,-16 -4,-28 -14,-39 -10,-12 -24,-18 -42,-18 -16,0 -30,6 -42,18 -9,11 -14,24 -14,39 0,15 5,28 14,38 10,12 24,18 42,18zm0 37c-23,0 -42,8 -56,23 -13,14 -19,32 -19,52 0,20 6,37 19,51 14,16 33,24 56,24 24,0 43,-8 57,-23 12,-14 18,-32 18,-52 0,-20 -6,-37 -18,-51 -14,-16 -33,-24 -57,-24zm62 -21c16,10 29,23 38,41 8,17 12,35 12,55 0,29 -9,55 -28,77 -20,23 -48,35 -84,35 -35,0 -63,-11 -84,-35 -19,-20 -28,-46 -28,-77 0,-20 4,-38 12,-55 9,-17 21,-31 38,-41 -10,-8 -17,-19 -23,-32 -5,-13 -8,-26 -8,-40 0,-25 8,-47 23,-65 17,-19 41,-29 70,-29 29,0 52,10 70,29 16,18 23,40 23,65 0,14 -2,27 -7,40 -6,13 -14,24 -24,32zm388 171l36 -320c0,-11 6,-17 18,-17l113 0c12,0 18,6 18,19l0 318 19 0c13,0 19,6 19,19l0 37c0,5 -2,9 -6,13 -4,3 -8,5 -13,5 -4,0 -8,-1 -12,-4 -4,-3 -6,-8 -6,-14l0 -19 -188 0 0 19c0,5 -2,9 -6,13 -3,3 -8,5 -12,5 -5,0 -9,-1 -13,-4 -4,-3 -6,-8 -6,-14l0 -37c0,-13 6,-19 19,-19l20 0zm148 0l0 -300 -77 0 -33 300 110 0zm336 -187l0 -131c0,-5 2,-10 6,-13 4,-4 8,-6 13,-6 5,0 9,2 13,5 4,3 6,8 6,14l0 336c0,5 -2,10 -6,14 -5,3 -9,5 -13,5 -5,0 -9,-1 -13,-4 -4,-3 -6,-8 -6,-14l0 -169 -149 0 0 168c0,6 -2,11 -6,15 -3,3 -8,4 -13,4 -5,0 -9,-1 -13,-5 -4,-3 -6,-7 -6,-14l0 -336c0,-5 2,-10 6,-14 4,-3 8,-5 13,-5 5,0 9,2 13,5 4,3 6,8 6,14l0 131 149 0zm150 0l94 0c5,0 9,2 13,6 4,3 5,8 5,13 0,4 -1,8 -4,12 -4,4 -8,6 -14,6l-94 0 0 150 131 0c5,0 9,2 13,6 4,3 6,8 6,13 0,4 -2,8 -5,12 -3,4 -8,6 -14,6l-150 0c-12,0 -19,-6 -19,-18l0 -337c0,-13 7,-19 19,-19l150 0c5,0 10,2 13,6 4,4 6,8 6,13 0,4 -2,8 -5,12 -3,4 -8,6 -14,6l-131 0 0 113zm373 -187l-74 0c-6,0 -11,-2 -14,-5 -3,-4 -5,-9 -5,-14 0,-4 2,-8 5,-12 3,-4 7,-6 14,-6l74 0c6,0 10,2 14,6 3,3 5,8 5,12 0,5 -1,9 -5,13 -3,4 -7,6 -14,6zm75 392c0,6 -2,11 -5,15 -4,3 -8,4 -13,4 -5,0 -10,-1 -13,-5 -4,-3 -6,-7 -6,-14l0 -264 -152 274c-2,3 -5,6 -8,9l-4 2c-1,0 -3,1 -6,1 -3,0 -8,-2 -12,-5 -3,-4 -5,-9 -5,-16l0 -337c0,-5 2,-10 6,-14 3,-3 8,-5 13,-5 4,0 9,2 12,5 4,3 6,8 6,14l0 264 152 -273c2,-3 4,-6 8,-9 3,-2 7,-4 10,-4 4,0 8,3 11,7 4,3 6,8 6,15l0 336z"/>
   <path class="fil2 str3" d="M1470 7758l0 -153c0,-5 2,-10 7,-15 4,-4 9,-6 15,-6 5,0 10,2 15,5 4,4 6,9 6,16l0 391c0,6 -2,11 -6,16 -6,4 -11,6 -16,6 -5,0 -10,-2 -15,-5 -4,-4 -6,-9 -6,-16l0 -196 -174 0 0 195c0,7 -2,13 -6,17 -4,3 -9,5 -15,5 -6,0 -11,-2 -16,-5 -4,-4 -6,-9 -6,-17l0 -390c0,-6 2,-11 6,-16 5,-4 10,-6 16,-6 5,0 10,2 15,5 4,4 6,9 6,17l0 152 174 0zm206 151l-31 94c-2,5 -4,8 -8,11 -3,2 -7,3 -12,4 -5,0 -11,-2 -15,-6 -5,-4 -7,-9 -7,-15l1 -8 131 -390c4,-13 11,-19 21,-19 9,0 16,6 20,19l130 390 1 8c0,6 -2,11 -7,15 -4,4 -9,6 -15,6 -3,0 -6,-1 -10,-2 -3,-2 -7,-6 -10,-13l-31 -94 -158 0zm143 -44l-63 -191 -65 191 128 0zm324 -64l0 -196c0,-5 2,-11 6,-16 4,-3 10,-5 15,-5 6,0 11,2 15,5 5,4 7,9 7,16l0 391c0,7 -2,13 -6,17 -4,3 -9,5 -16,5 -5,0 -11,-2 -15,-5 -4,-4 -6,-9 -6,-17l0 -152 -131 0c-23,0 -44,-8 -61,-25 -17,-17 -26,-38 -26,-62l0 -152c0,-5 3,-11 7,-16 4,-3 9,-5 15,-5 6,0 11,2 15,5 4,4 7,9 7,16l0 152c0,13 4,23 12,32 4,3 9,6 14,9 6,2 12,3 17,3l131 0zm206 108l-31 94c-2,5 -5,8 -8,11 -3,2 -7,3 -12,4 -6,0 -11,-2 -15,-6 -5,-4 -8,-9 -8,-15l2 -8 131 -390c4,-13 11,-19 20,-19 9,0 16,6 20,19l130 390 2 8c0,6 -2,11 -7,15 -5,4 -10,6 -15,6 -3,0 -7,-1 -10,-2 -4,-2 -7,-6 -10,-13l-32 -94 -157 0zm143 -44l-64 -191 -64 191 128 0zm432 131c0,7 -2,13 -6,17 -4,3 -9,5 -15,5 -6,0 -11,-2 -15,-5 -5,-4 -7,-9 -7,-17l0 -369 -70 0 -105 375c0,4 -3,8 -7,11 -4,3 -9,5 -13,5 -7,0 -12,-2 -16,-5 -4,-4 -6,-9 -6,-16 0,-3 0,-5 0,-6l109 -391c3,-11 10,-16 21,-16l109 0c14,0 21,7 21,21l0 391zm347 -65c0,24 -9,44 -25,61 -17,17 -38,26 -62,26l-87 0c-23,0 -44,-8 -61,-25 -17,-17 -25,-38 -25,-62l0 -260c0,-25 8,-45 25,-62 17,-17 37,-25 61,-25l87 0c24,0 45,8 62,25 16,17 25,38 25,62l0 260zm-43 0l0 -261c0,-12 -4,-22 -13,-31 -8,-8 -18,-12 -31,-12l-87 0c-12,0 -22,4 -31,12 -4,5 -7,9 -9,14 -2,6 -3,11 -3,17l0 261c0,13 4,23 12,31 5,4 9,7 14,10 6,2 12,3 17,3l87 0c12,0 22,-4 31,-12 9,-8 13,-19 13,-32zm-2316 535l183 -182c4,-3 9,-5 15,-5 5,0 10,2 15,6 5,5 7,10 7,16 0,4 -2,8 -7,14l-129 129 133 236 3 12c0,5 -2,10 -7,14 -4,5 -9,7 -16,7 -6,0 -13,-4 -18,-12l-127 -226 -52 51 0 165c0,7 -2,12 -6,17 -4,3 -9,5 -16,5 -5,0 -10,-2 -15,-6 -4,-3 -6,-9 -6,-16l0 -391c0,-6 2,-11 6,-15 5,-4 10,-6 15,-6 6,0 11,1 15,4 5,4 7,10 7,17l0 166zm380 138l-31 94c-2,4 -5,8 -8,11 -3,2 -7,3 -12,4 -6,0 -11,-2 -15,-6 -5,-4 -7,-9 -7,-15l1 -8 131 -391c4,-12 11,-18 20,-18 10,0 16,6 21,18l130 391 1 8c0,5 -2,10 -7,15 -5,4 -10,6 -15,6 -3,0 -6,-1 -10,-2 -4,-2 -7,-6 -10,-13l-31 -94 -158 0zm143 -44l-64 -191 -64 191 128 0zm476 131c0,7 -2,12 -6,17 -4,3 -9,5 -16,5 -5,0 -10,-2 -14,-6 -5,-3 -7,-9 -7,-16l0 -310 -90 150c-6,10 -12,14 -19,14 -6,0 -13,-4 -19,-14l-90 -150 0 310c0,7 -2,12 -6,17 -4,3 -9,5 -16,5 -6,0 -11,-2 -15,-6 -4,-3 -6,-9 -6,-16l0 -389c0,-8 2,-14 6,-18 4,-5 8,-7 13,-7 4,0 8,1 11,3 3,2 6,6 10,11l112 186 111 -186c5,-9 12,-14 21,-14 5,0 10,2 14,7 4,5 6,11 6,18l0 389zm347 0c0,7 -2,12 -7,17 -3,3 -9,5 -15,5 -6,0 -11,-2 -15,-6 -4,-3 -7,-9 -7,-16l0 -369 -174 0 0 369c0,7 -2,12 -6,17 -4,3 -9,5 -15,5 -6,0 -11,-2 -15,-6 -5,-3 -7,-9 -7,-16l0 -391c0,-14 7,-21 22,-21l217 0c14,0 22,7 22,21l0 391zm163 -87l-32 94c-1,4 -4,8 -8,11 -3,2 -7,3 -11,4 -6,0 -11,-2 -16,-6 -4,-4 -7,-9 -7,-15l2 -8 130 -391c5,-12 11,-18 21,-18 9,0 16,6 20,18l130 391 2 8c0,5 -3,10 -8,15 -4,4 -9,6 -15,6 -3,0 -6,-1 -9,-2 -4,-2 -7,-6 -11,-13l-31 -94 -157 0zm143 -44l-64 -191 -64 191 128 0zm388 -107l0 -153c0,-6 2,-11 7,-15 4,-4 9,-6 15,-6 5,0 10,1 15,5 4,4 6,9 6,16l0 391c0,6 -2,11 -6,16 -6,4 -10,6 -15,6 -6,0 -11,-2 -16,-5 -4,-4 -6,-9 -6,-17l0 -195 -174 0 0 195c0,7 -2,12 -6,17 -4,3 -9,5 -15,5 -6,0 -11,-2 -15,-6 -5,-3 -7,-9 -7,-16l0 -391c0,-5 2,-11 7,-16 4,-3 9,-5 15,-5 5,0 10,2 15,5 4,4 6,9 6,17l0 152 174 0zm391 238c0,7 -2,12 -6,17 -4,3 -10,5 -16,5 -6,0 -11,-2 -15,-6 -4,-3 -7,-9 -7,-16l0 -307 -176 318c-2,4 -5,8 -9,10l-5 3c-1,1 -4,1 -7,2 -4,-1 -9,-3 -14,-7 -4,-4 -6,-11 -6,-19l0 -390c0,-6 2,-12 7,-17 4,-3 9,-5 15,-5 5,0 10,2 15,5 4,4 7,9 7,17l0 306 176 -317c2,-3 5,-7 9,-10 4,-3 8,-5 12,-5 5,0 9,3 13,7 4,5 7,11 7,18l0 391zm347 0c0,7 -2,12 -6,17 -4,3 -9,5 -16,5 -5,0 -10,-2 -15,-6 -4,-3 -6,-9 -6,-16l0 -307 -176 318c-3,4 -6,8 -10,10l-5 3c-1,1 -3,1 -7,2 -4,-1 -8,-3 -14,-7 -4,-4 -5,-11 -5,-19l0 -390c0,-6 2,-12 6,-17 4,-3 9,-5 15,-5 6,0 11,2 15,5 5,4 7,9 7,17l0 306 176 -317c2,-3 5,-7 9,-10 4,-3 8,-5 12,-5 5,0 9,3 13,7 5,5 7,11 7,18l0 391z"/>
   <path class="fil1 str4" d="M16691 10891l41 -372c0,-13 8,-19 22,-19l130 0c15,0 22,7 22,21l0 370 22 0c15,0 22,7 22,21l0 44c0,5 -2,11 -7,15 -4,4 -9,6 -15,6 -5,0 -9,-2 -14,-5 -5,-4 -7,-9 -7,-16l0 -22 -218 0 0 22c0,5 -2,11 -7,15 -4,4 -9,6 -15,6 -5,0 -9,-2 -14,-5 -5,-4 -7,-9 -7,-16l0 -44c0,-14 7,-21 21,-21l24 0zm172 0l0 -348 -89 0 -39 348 128 0zm216 -217l110 0c6,0 11,2 15,6 4,5 6,10 6,15 0,5 -1,10 -5,15 -4,4 -9,7 -16,7l-110 0 0 174 153 0c6,0 11,2 16,6 4,5 6,10 6,15 0,6 -2,10 -6,15 -3,5 -9,7 -16,7l-174 0c-15,0 -22,-7 -22,-21l0 -392c0,-14 7,-21 22,-21l174 0c6,0 11,2 16,6 4,5 6,10 6,15 0,5 -2,10 -6,15 -3,4 -9,7 -16,7l-153 0 0 131zm478 0l0 -153c0,-6 2,-11 7,-15 4,-4 9,-6 15,-6 5,0 10,1 15,5 4,4 6,9 6,16l0 391c0,6 -2,11 -6,16 -5,4 -10,6 -15,6 -6,0 -11,-2 -16,-5 -4,-4 -6,-9 -6,-17l0 -195 -174 0 0 195c0,7 -2,13 -6,17 -4,3 -9,5 -15,5 -6,0 -11,-2 -15,-5 -5,-4 -7,-10 -7,-17l0 -390c0,-6 2,-12 7,-17 4,-3 9,-5 15,-5 5,0 10,2 15,5 4,4 6,9 6,17l0 152 174 0zm174 43l130 0c12,0 23,4 31,12 8,8 13,19 13,31l0 87c0,13 -5,23 -13,31 -4,4 -9,8 -14,10 -5,2 -11,3 -17,3l-130 0 0 -174zm0 -44l0 -152c0,-5 -3,-11 -7,-15 -4,-4 -10,-6 -15,-6 -5,0 -10,1 -15,5 -4,4 -7,9 -7,16l0 391c0,15 8,22 22,22l152 0c23,0 44,-8 61,-25 17,-17 26,-38 26,-62l0 -87c0,-23 -9,-44 -26,-61 -16,-17 -37,-26 -61,-26l-130 0zm-2082 565l-152 0 0 369c0,7 -2,12 -7,16 -3,4 -9,6 -15,6 -6,0 -11,-2 -15,-6 -4,-3 -7,-9 -7,-16l0 -391c0,-14 8,-22 22,-22l174 0c6,0 11,3 15,7 5,4 7,9 7,15 0,5 -2,10 -6,14 -3,5 -9,8 -16,8zm347 304c0,24 -9,44 -26,61 -17,17 -37,26 -61,26l-87 0c-24,0 -44,-9 -61,-26 -17,-16 -26,-37 -26,-61l0 -261c0,-24 9,-44 26,-61 16,-17 37,-26 61,-26l87 0c24,0 45,9 61,26 17,17 26,37 26,61l0 261zm-44 0l0 -261c0,-12 -4,-22 -12,-31 -8,-8 -18,-12 -31,-12l-87 0c-12,0 -23,4 -31,12 -4,4 -7,9 -9,14 -2,5 -4,11 -4,17l0 261c0,12 5,23 13,31 4,4 9,7 14,9 6,2 12,4 17,4l87 0c12,0 22,-4 31,-13 8,-8 12,-18 12,-31zm383 65c0,7 -2,12 -6,16 -4,4 -9,6 -16,6 -5,0 -11,-2 -15,-6 -4,-3 -6,-9 -6,-16l0 -369 -71 0 -104 375c-1,4 -3,8 -7,11 -5,3 -9,5 -14,5 -6,0 -12,-2 -16,-6 -4,-3 -6,-8 -6,-15 0,-3 0,-5 1,-7l109 -391c3,-10 10,-16 20,-16l109 0c15,0 22,8 22,22l0 391zm346 -65c0,24 -8,44 -25,61 -17,17 -37,26 -61,26l-87 0c-24,0 -44,-9 -61,-26 -17,-16 -26,-37 -26,-61l0 -261c0,-24 9,-44 25,-61 17,-17 38,-26 62,-26l87 0c24,0 44,9 61,26 17,17 25,37 25,61l0 261zm-43 0l0 -261c0,-12 -4,-22 -12,-31 -8,-8 -19,-12 -31,-12l-87 0c-12,0 -23,4 -31,12 -4,4 -8,9 -10,14 -2,5 -3,11 -3,17l0 261c0,12 4,23 13,31 4,4 9,7 14,9 6,2 12,4 17,4l87 0c12,0 22,-4 31,-13 8,-8 12,-18 12,-31zm361 87l-109 0c-24,0 -44,-9 -61,-26 -17,-16 -26,-37 -26,-61l0 -261c0,-24 9,-44 25,-61 17,-17 38,-26 62,-26l109 0c6,0 11,3 15,7 4,4 6,9 6,15 0,5 -1,10 -5,14 -4,5 -9,8 -16,8l-109 0c-12,0 -23,4 -31,12 -5,4 -8,9 -10,14 -2,5 -3,11 -3,17l0 261c0,12 4,23 13,31 4,4 9,7 14,9 6,2 12,4 17,4l109 0c6,0 11,2 15,6 4,5 6,10 6,15 0,5 -1,10 -5,15 -4,4 -9,7 -16,7zm349 -87c0,24 -9,44 -26,61 -17,17 -37,26 -61,26l-87 0c-24,0 -44,-9 -61,-26 -17,-16 -26,-37 -26,-61l0 -261c0,-24 9,-44 26,-61 16,-17 37,-26 61,-26l87 0c24,0 45,9 61,26 17,17 26,37 26,61l0 261zm-44 0l0 -261c0,-12 -4,-22 -12,-31 -8,-8 -18,-12 -31,-12l-87 0c-12,0 -23,4 -31,12 -4,4 -7,9 -9,14 -2,5 -4,11 -4,17l0 261c0,12 5,23 13,31 4,4 9,7 14,9 6,2 12,4 17,4l87 0c12,0 22,-4 31,-13 8,-8 12,-18 12,-31zm384 -161c13,7 23,18 30,31 8,14 12,28 12,43l0 87c0,24 -9,44 -26,61 -17,17 -37,26 -61,26l-152 0c-15,0 -22,-7 -22,-22l0 -391c0,-14 7,-22 22,-22l130 0c24,0 45,9 62,26 17,17 25,37 25,61l0 44c0,10 -2,19 -5,29 -3,9 -8,18 -15,27zm-176 31l0 174 131 0c12,0 22,-4 31,-13 8,-8 12,-18 12,-31l0 -87c0,-12 -4,-22 -12,-31 -8,-8 -18,-12 -31,-12l-131 0zm109 -44c12,0 23,-4 31,-12 9,-8 13,-18 13,-31l0 -44c0,-12 -4,-22 -12,-31 -9,-8 -19,-12 -32,-12l-109 0 0 130 109 0zm250 152l-32 94c-1,4 -4,8 -8,11 -3,2 -7,3 -11,4 -6,0 -11,-2 -16,-7 -4,-3 -7,-8 -7,-14l2 -8 130 -391c5,-12 11,-18 21,-18 9,0 16,6 20,18l130 391 2 8c0,5 -3,10 -7,15 -5,4 -10,6 -16,6 -3,0 -6,-1 -9,-2 -4,-2 -7,-6 -11,-13l-31 -94 -157 0zm143 -44l-64 -191 -64 191 128 0zm388 -108l0 -152c0,-6 2,-11 7,-15 4,-4 9,-7 15,-7 5,0 10,2 15,6 4,3 6,9 6,16l0 390c0,7 -2,12 -6,17 -5,4 -10,6 -15,6 -6,0 -11,-2 -16,-6 -4,-3 -6,-8 -6,-16l0 -195 -174 0 0 195c0,7 -2,12 -6,16 -4,4 -9,6 -15,6 -6,0 -11,-2 -15,-6 -5,-3 -7,-9 -7,-16l0 -391c0,-5 2,-11 7,-16 4,-3 9,-5 15,-5 5,0 10,2 15,5 4,4 6,9 6,16l0 152 174 0zm391 239c0,7 -2,12 -6,16 -4,4 -10,6 -16,6 -6,0 -11,-2 -15,-6 -4,-3 -6,-9 -6,-16l0 -307 -177 318c-2,4 -5,7 -9,10l-5 3c-1,0 -4,1 -7,1 -4,0 -9,-2 -14,-6 -4,-4 -6,-11 -6,-19l0 -391c0,-5 2,-11 7,-16 4,-3 9,-5 15,-5 5,0 11,2 15,5 4,4 7,9 7,16l0 307 176 -317c2,-4 5,-7 9,-11 4,-3 8,-4 12,-4 5,0 9,2 13,7 4,5 7,11 7,18l0 391zm304 -195l0 -174 -131 0c-12,0 -22,4 -31,12 -4,4 -7,9 -9,14 -2,5 -3,11 -3,17l0 87c0,12 4,23 12,31 5,4 9,7 14,9 6,3 12,4 17,4l131 0zm-75 43l-102 163c-5,7 -11,11 -18,11 -5,0 -10,-3 -15,-7 -5,-4 -7,-9 -7,-15 0,-5 1,-9 3,-12l88 -140 -5 0c-23,0 -44,-9 -61,-26 -17,-16 -25,-37 -25,-61l0 -87c0,-24 8,-44 25,-61 17,-17 37,-26 61,-26l152 0c15,0 22,8 22,22l0 391c0,7 -2,12 -6,16 -4,4 -9,6 -16,6 -5,0 -10,-2 -15,-6 -4,-3 -6,-9 -6,-16l0 -152 -75 0z"/>
   <g>
    <path class="fil2 str3" d="M4563 13320c0,23 -9,44 -26,61 -17,17 -37,25 -61,25l-87 0c-24,0 -44,-8 -61,-25 -17,-17 -26,-37 -26,-61l0 -261c0,-24 9,-45 26,-62 16,-16 37,-25 61,-25l87 0c24,0 44,9 61,26 17,17 26,37 26,61l0 261zm-44 0l0 -261c0,-12 -4,-23 -12,-31 -8,-8 -19,-13 -31,-13l-87 0c-12,0 -23,4 -31,13 -4,4 -7,9 -10,14 -2,5 -3,11 -3,17l0 261c0,12 5,22 13,31 4,4 9,7 14,9 6,2 12,3 17,3l87 0c12,0 22,-4 31,-12 8,-8 12,-18 12,-31zm426 65c0,7 -2,12 -7,16 -4,4 -9,5 -15,5 -6,0 -11,-1 -15,-5 -5,-4 -7,-9 -7,-16l0 -370 -174 0 0 370c0,7 -2,12 -6,16 -4,4 -9,5 -15,5 -6,0 -11,-1 -15,-5 -5,-4 -7,-9 -7,-16l0 -391c0,-15 7,-22 22,-22l217 0c14,0 22,7 22,22l0 391zm304 -153l-131 0c-23,0 -44,-8 -61,-25 -17,-17 -26,-37 -26,-61l0 -152c0,-6 3,-11 7,-16 4,-4 9,-6 15,-6 5,0 11,2 15,6 4,3 7,9 7,16l0 152c0,12 4,22 12,31 4,4 9,7 14,9 6,2 12,3 17,3l131 0 0 -195c0,-6 2,-11 6,-16 4,-4 9,-6 15,-6 6,0 11,2 15,6 5,3 7,9 7,16l0 326c0,23 -9,44 -26,61 -17,17 -37,25 -61,25l-109 0c-6,0 -11,-2 -16,-6 -3,-4 -5,-9 -5,-15 0,-5 2,-10 6,-15 3,-4 9,-7 15,-7l109 0c12,0 22,-4 31,-12 8,-8 13,-18 13,-31l0 -88zm173 -43l0 174 130 0c12,0 23,-4 31,-12 9,-8 13,-18 13,-31l0 -87c0,-12 -4,-23 -12,-31 -9,-8 -19,-13 -32,-13l-130 0zm0 -43l130 0c24,0 44,9 61,25 17,17 26,38 26,62l0 87c0,23 -8,44 -25,61 -17,17 -38,25 -62,25l-152 0c-14,0 -21,-7 -21,-21l0 -391c0,-15 7,-22 21,-22l174 0c6,0 11,2 15,7 5,4 7,9 7,15 0,5 -2,9 -6,14 -3,5 -9,7 -16,7l-152 0 0 131zm545 239c0,7 -2,12 -6,16 -4,4 -9,5 -15,5 -6,0 -11,-1 -15,-5 -5,-4 -7,-9 -7,-16l0 -370 -70 0 -105 375c0,5 -3,8 -7,12 -4,3 -9,4 -13,4 -7,0 -12,-1 -16,-5 -4,-4 -6,-9 -6,-15 0,-3 0,-6 0,-7l109 -391c3,-10 10,-16 21,-16l109 0c14,0 21,7 21,22l0 391zm347 0c0,7 -2,12 -6,16 -4,4 -9,5 -16,5 -5,0 -10,-1 -15,-5 -4,-4 -6,-9 -6,-16l0 -307 -176 317c-3,5 -6,8 -10,11l-5 2c-1,1 -3,2 -7,2 -4,0 -8,-2 -14,-6 -4,-5 -5,-11 -5,-19l0 -391c0,-6 2,-11 6,-16 4,-4 9,-6 15,-6 6,0 11,2 15,6 5,3 7,9 7,16l0 307 176 -317c2,-4 5,-7 9,-11 4,-3 8,-4 12,-4 5,0 9,2 13,7 5,4 7,10 7,18l0 391zm130 -226l183 -181c4,-4 9,-6 15,-6 5,0 10,2 15,7 5,4 7,9 7,15 0,4 -2,9 -7,15l-129 129 133 236 4 11c0,6 -3,11 -8,15 -4,4 -9,6 -15,6 -7,0 -14,-3 -19,-11l-127 -226 -52 50 0 166c0,7 -2,12 -6,16 -4,4 -9,5 -16,5 -5,0 -10,-1 -15,-5 -4,-4 -6,-9 -6,-16l0 -392c0,-5 2,-10 6,-15 5,-4 10,-6 15,-6 6,0 11,2 16,5 4,4 6,9 6,16l0 166zm542 161c0,23 -8,44 -25,61 -17,17 -37,25 -61,25l-87 0c-24,0 -44,-8 -61,-25 -17,-17 -26,-37 -26,-61l0 -261c0,-24 8,-45 25,-62 17,-16 38,-25 62,-25l87 0c24,0 44,9 61,26 17,17 25,37 25,61l0 261zm-43 0l0 -261c0,-12 -4,-23 -12,-31 -8,-8 -19,-13 -31,-13l-87 0c-12,0 -23,4 -31,13 -5,4 -8,9 -10,14 -2,5 -3,11 -3,17l0 261c0,12 4,22 13,31 4,4 9,7 14,9 6,2 12,3 17,3l87 0c12,0 22,-4 30,-12 9,-8 13,-18 13,-31zm384 -161c12,7 22,17 30,31 8,13 11,28 11,43l0 87c0,23 -8,44 -25,61 -17,17 -38,25 -61,25l-152 0c-15,0 -22,-7 -22,-21l0 -391c0,-15 7,-22 22,-22l130 0c24,0 45,9 61,26 17,17 26,37 26,61l0 43c0,10 -2,20 -5,29 -3,10 -8,19 -15,28zm-176 30l0 174 131 0c12,0 22,-4 30,-12 9,-8 13,-18 13,-31l0 -87c0,-12 -4,-23 -12,-31 -8,-8 -19,-13 -31,-13l-131 0zm109 -43c12,0 22,-4 31,-12 8,-8 13,-19 13,-32l0 -43c0,-12 -5,-23 -13,-31 -8,-8 -18,-13 -31,-13l-109 0 0 131 109 0zm249 152l-31 94c-2,4 -4,8 -8,11 -3,2 -7,3 -12,3 -6,0 -11,-2 -15,-6 -5,-3 -7,-8 -7,-15l1 -7 131 -391c4,-12 11,-19 20,-19 10,0 17,7 21,19l130 391 1 7c0,6 -2,11 -7,16 -4,3 -9,5 -15,5 -3,0 -6,0 -10,-2 -3,-1 -7,-5 -10,-12l-31 -94 -158 0zm143 -45l-64 -191 -64 191 128 0zm389 -107l0 -152c0,-6 2,-11 6,-15 5,-5 10,-7 16,-7 5,0 10,2 15,6 4,3 6,9 6,16l0 390c0,6 -2,12 -7,17 -5,3 -10,5 -15,5 -5,0 -10,-1 -15,-5 -4,-3 -6,-9 -6,-16l0 -196 -174 0 0 196c0,7 -2,12 -6,16 -4,4 -9,5 -16,5 -5,0 -10,-1 -15,-5 -4,-4 -6,-9 -6,-16l0 -391c0,-6 2,-11 6,-16 5,-4 10,-6 15,-6 6,0 11,2 15,6 5,3 7,9 7,16l0 152 174 0zm390 239c0,7 -2,12 -6,16 -4,4 -9,5 -15,5 -6,0 -11,-1 -15,-5 -5,-4 -7,-9 -7,-16l0 -307 -176 317c-3,5 -6,8 -10,11l-4 2c-2,1 -4,2 -7,2 -4,0 -9,-2 -14,-6 -4,-5 -6,-11 -6,-19l0 -391c0,-6 2,-11 7,-16 4,-4 9,-6 15,-6 5,0 10,2 15,6 4,3 6,9 6,16l0 307 176 -317c3,-4 6,-7 10,-11 4,-3 8,-4 12,-4 4,0 9,2 13,7 4,4 6,10 6,18l0 391zm130 -239l110 0c6,0 11,2 15,7 4,4 7,9 7,15 0,5 -2,10 -6,14 -4,5 -9,7 -16,7l-110 0 0 174 153 0c6,0 11,3 16,7 4,4 6,9 6,15 0,5 -2,10 -5,14 -4,5 -10,7 -17,7l-174 0c-14,0 -22,-6 -22,-20l0 -392c0,-15 8,-22 22,-22l174 0c6,0 11,2 16,7 4,4 6,9 6,15 0,5 -2,10 -6,14 -3,5 -9,7 -16,7l-153 0 0 131zm-3601 934c0,6 -2,12 -6,16 -4,3 -9,5 -15,5 -6,0 -11,-2 -15,-5 -5,-4 -7,-9 -7,-16l0 -307 -176 317c-2,4 -6,8 -10,11l-4 2c-2,1 -4,1 -7,2 -4,0 -9,-2 -14,-7 -4,-4 -6,-10 -6,-18l0 -391c0,-6 2,-11 7,-16 4,-4 9,-6 15,-6 5,0 10,2 15,6 4,3 6,9 6,16l0 307 176 -318c3,-3 6,-7 10,-10 4,-3 8,-4 12,-4 4,0 9,2 13,7 4,4 6,10 6,18l0 391zm305 -239l0 -152c0,-6 2,-11 6,-16 4,-4 9,-6 15,-6 6,0 11,2 15,5 4,4 7,9 7,17l0 390c0,6 -3,12 -7,16 -5,4 -10,6 -15,6 -6,0 -11,-2 -15,-5 -4,-4 -6,-9 -6,-16l0 -196 -174 0 0 196c0,6 -2,12 -7,16 -4,3 -9,5 -15,5 -6,0 -11,-2 -15,-5 -5,-4 -7,-9 -7,-16l0 -391c0,-6 2,-11 7,-16 4,-4 9,-6 15,-6 5,0 11,2 15,6 4,3 7,9 7,16l0 152 174 0zm325 -66l0 197 21 0c24,0 45,-9 62,-26 17,-17 25,-38 25,-62l0 -22c0,-23 -8,-43 -25,-61 -17,-17 -37,-26 -62,-26l-21 0zm-44 197l0 -197 -21 0c-24,0 -44,8 -62,25 -17,17 -25,38 -25,62l0 22c0,24 8,45 25,62 17,17 38,26 62,26l21 0zm0 43l-21 0c-36,0 -67,-13 -92,-38 -26,-25 -38,-56 -38,-93l0 -22c0,-35 12,-66 38,-92 25,-25 56,-38 92,-38l21 0 0 -43c0,-6 2,-12 7,-17 4,-3 9,-5 15,-5 5,0 11,2 15,5 4,4 7,9 7,17l0 43 21 0c36,0 67,13 92,38 12,12 21,26 28,42 7,15 10,32 10,50l0 22c0,35 -12,66 -38,92 -25,26 -56,39 -92,39l-21 0 0 65c0,6 -2,12 -7,16 -4,3 -9,5 -15,5 -6,0 -11,-2 -15,-5 -5,-4 -7,-9 -7,-16l0 -65zm543 -1c0,24 -8,45 -25,62 -17,17 -38,25 -62,25l-87 0c-23,0 -43,-8 -61,-25 -17,-17 -25,-37 -25,-62l0 -260c0,-24 8,-45 25,-62 17,-17 37,-25 61,-25l87 0c24,0 45,8 62,25 17,17 25,38 25,62l0 260zm-43 1l0 -261c0,-13 -4,-23 -12,-31 -9,-9 -19,-13 -32,-13l-87 0c-12,0 -22,4 -31,12 -4,5 -7,9 -9,15 -2,5 -3,11 -3,17l0 261c0,12 4,22 12,31 5,3 9,6 14,9 6,2 12,3 17,3l87 0c12,0 23,-4 31,-12 9,-8 13,-19 13,-31zm208 -131l130 0c12,0 23,-4 31,-12 9,-8 13,-19 13,-31l0 -87c0,-13 -4,-23 -12,-31 -9,-9 -19,-13 -32,-13l-130 0 0 174zm0 43l0 152c0,7 -2,13 -6,17 -4,3 -9,5 -16,5 -5,0 -11,-2 -15,-5 -4,-4 -6,-9 -6,-16l0 -391c0,-15 7,-22 21,-22l152 0c24,0 45,8 62,25 17,17 25,38 25,62l0 86c0,24 -8,45 -25,62 -17,17 -38,25 -62,25l-130 0zm608 153c0,6 -2,12 -6,16 -4,3 -9,5 -16,5 -5,0 -9,-2 -14,-5 -5,-4 -7,-9 -7,-16l0 -310 -90 150c-5,9 -12,14 -19,14 -6,0 -12,-5 -19,-14l-90 -150 0 310c0,6 -2,12 -6,16 -4,3 -9,5 -16,5 -5,0 -10,-2 -15,-5 -4,-4 -6,-9 -6,-16l0 -389c0,-9 2,-15 6,-19 4,-4 8,-6 14,-6 4,0 7,1 10,3 3,2 7,5 10,11l112 186 112 -186c5,-10 12,-14 20,-14 5,0 10,2 14,6 4,5 6,11 6,19l0 389zm163 -87l-32 93c-1,5 -4,9 -8,12 -3,1 -7,3 -11,3 -6,0 -11,-2 -16,-6 -4,-4 -7,-9 -7,-15l2 -8 130 -390c5,-13 11,-19 21,-19 9,0 16,6 20,19l130 390 2 8c0,6 -3,11 -7,15 -5,4 -10,6 -16,6 -3,0 -6,0 -9,-2 -4,-1 -7,-6 -10,-13l-32 -93 -157 0zm143 -45l-64 -191 -64 191 128 0zm388 110l0 -369c0,-6 2,-11 7,-16 4,-4 9,-6 15,-6 5,0 10,2 15,5 4,4 7,9 7,17l0 369 21 0c15,0 22,7 22,22l0 65c0,6 -2,11 -6,15 -5,5 -10,7 -15,7 -5,0 -10,-2 -15,-6 -5,-3 -7,-9 -7,-16l0 -44 -239 0c-15,0 -22,-7 -22,-21l0 -391c0,-6 2,-11 7,-16 4,-4 9,-6 15,-6 5,0 10,2 15,5 4,4 6,9 6,17l0 369 174 0zm434 22c0,6 -2,12 -6,16 -4,3 -9,5 -15,5 -6,0 -11,-2 -16,-5 -4,-4 -6,-9 -6,-16l0 -307 -176 317c-3,4 -6,8 -10,11l-5 2c-1,1 -3,1 -6,2 -4,0 -9,-2 -15,-7 -3,-4 -5,-10 -5,-18l0 -391c0,-6 2,-11 6,-16 5,-4 10,-6 15,-6 6,0 11,2 15,6 5,3 7,9 7,16l0 307 176 -318c2,-3 5,-7 9,-10 4,-3 8,-4 12,-4 5,0 9,2 14,7 4,4 6,10 6,18l0 391zm347 0c0,6 -2,12 -6,16 -4,3 -9,5 -15,5 -6,0 -11,-2 -15,-5 -5,-4 -7,-9 -7,-16l0 -307 -176 317c-3,4 -6,8 -10,11l-4 2c-2,1 -4,1 -7,2 -4,0 -9,-2 -14,-7 -4,-4 -6,-10 -6,-18l0 -391c0,-6 2,-11 6,-16 5,-4 10,-6 16,-6 5,0 10,2 15,6 4,3 6,9 6,16l0 307 176 -318c3,-3 6,-7 10,-10 4,-3 8,-4 11,-4 5,0 10,2 14,7 4,4 6,10 6,18l0 391zm-3914 716l-109 0c-24,0 -44,-8 -61,-25 -17,-17 -26,-38 -26,-62l0 -260c0,-25 8,-45 25,-62 17,-17 38,-25 62,-25l109 0c5,0 11,2 15,6 4,5 6,10 6,15 0,5 -2,10 -5,15 -4,5 -9,7 -17,7l-108 0c-13,0 -23,4 -31,12 -5,5 -8,9 -10,14 -2,6 -3,11 -3,17l0 261c0,13 4,23 13,32 4,3 9,6 14,9 6,2 11,3 17,3l108 0c6,0 12,2 16,7 4,4 6,9 6,14 0,5 -2,10 -5,15 -4,5 -9,7 -16,7zm412 -22c0,7 -2,13 -6,17 -4,3 -9,5 -16,5 -5,0 -9,-2 -14,-5 -5,-4 -7,-9 -7,-17l0 -310 -90 150c-5,10 -12,14 -19,14 -6,0 -12,-4 -19,-14l-90 -150 0 310c0,7 -2,13 -6,17 -4,3 -9,5 -16,5 -5,0 -10,-2 -15,-5 -4,-4 -6,-9 -6,-17l0 -388c0,-9 2,-15 6,-19 4,-4 8,-7 14,-7 4,0 7,2 10,4 3,2 7,5 10,10l112 186 112 -186c5,-9 12,-14 20,-14 5,0 10,3 14,7 4,5 6,11 6,19l0 388zm347 0c0,7 -2,13 -6,17 -4,3 -9,5 -16,5 -6,0 -11,-2 -15,-5 -4,-4 -6,-9 -6,-17l0 -307 -177 318c-2,4 -5,8 -9,10l-5 3c-1,1 -4,1 -7,2 -4,0 -9,-2 -14,-7 -4,-4 -6,-10 -6,-18l0 -391c0,-6 3,-11 7,-16 4,-4 9,-6 15,-6 6,0 11,2 15,5 4,4 7,9 7,17l0 307 176 -318c2,-3 5,-7 9,-10 4,-3 8,-5 12,-5 5,0 9,3 13,8 5,4 7,10 7,18l0 390zm607 -65c0,24 -8,44 -25,61 -17,17 -37,26 -61,26l-87 0c-24,0 -44,-8 -61,-25 -17,-17 -26,-38 -26,-62l0 -260c0,-25 9,-45 25,-62 17,-17 38,-25 62,-25l87 0c24,0 44,8 61,25 17,17 25,38 25,62l0 260zm-43 0l0 -261c0,-12 -4,-22 -12,-31 -8,-8 -19,-12 -31,-12l-87 0c-12,0 -23,4 -31,12 -4,5 -7,9 -10,14 -2,6 -3,11 -3,17l0 261c0,13 4,23 13,32 4,3 9,6 14,9 6,2 12,3 17,3l87 0c12,0 22,-4 31,-12 8,-8 12,-19 12,-32zm686 65c0,7 -2,13 -6,17 -4,3 -9,5 -16,5 -5,0 -10,-2 -15,-5 -4,-4 -6,-9 -6,-17l0 -369 -174 0 0 369c0,7 -2,13 -6,17 -4,3 -10,5 -16,5 -6,0 -11,-2 -15,-5 -4,-4 -6,-9 -6,-17l0 -391c0,-14 7,-21 21,-21l217 0c15,0 22,7 22,21l0 391zm130 -238l109 0c6,0 11,2 16,6 4,5 6,10 6,15 0,5 -2,10 -6,15 -3,5 -9,7 -16,7l-109 0 0 174 153 0c6,0 11,2 15,7 4,4 6,9 6,14 0,6 -1,11 -5,15 -4,5 -9,7 -16,7l-175 0c-14,0 -21,-7 -21,-20l0 -393c0,-14 7,-21 21,-21l175 0c6,0 11,2 15,6 4,5 6,10 6,15 0,6 -1,10 -5,15 -4,5 -9,7 -16,7l-153 0 0 131zm478 43l0 -196c0,-5 2,-11 6,-16 5,-3 10,-5 15,-5 6,0 11,2 15,5 5,4 7,9 7,16l0 391c0,7 -2,13 -6,17 -4,3 -9,5 -16,5 -5,0 -10,-2 -15,-5 -4,-4 -6,-9 -6,-17l0 -152 -130 0c-24,0 -44,-8 -62,-25 -17,-17 -25,-38 -25,-62l0 -152c0,-5 2,-11 6,-16 4,-3 10,-5 15,-5 6,0 11,2 15,5 5,4 7,9 7,16l0 153c0,12 4,22 12,31 5,3 9,6 14,9 6,2 12,3 17,3l131 0zm206 108l-31 94c-2,5 -5,8 -8,11 -3,2 -7,3 -12,4 -6,0 -11,-2 -15,-6 -5,-4 -7,-9 -7,-15l1 -8 131 -390c4,-13 11,-19 20,-19 9,0 16,6 21,19l130 390 1 8c0,6 -2,11 -7,15 -5,4 -10,6 -15,6 -3,0 -6,-1 -10,-2 -4,-2 -7,-6 -10,-13l-31 -94 -158 0zm143 -44l-64 -191 -64 191 128 0zm193 -238l-87 0c-6,0 -12,-2 -16,-6 -3,-5 -5,-10 -5,-16 0,-5 2,-9 5,-14 4,-5 9,-7 16,-7l217 0c6,0 12,2 16,6 4,5 6,10 6,15 0,5 -2,10 -5,15 -4,5 -9,7 -17,7l-86 0 0 369c0,7 -3,13 -7,17 -4,3 -9,5 -15,5 -6,0 -11,-2 -15,-5 -5,-4 -7,-9 -7,-17l0 -369z"/>
    <path class="fil2 str3" d="M8038 14536l0 -153c0,-5 2,-10 7,-15 4,-4 9,-6 15,-6 5,0 10,2 15,5 4,4 6,9 6,16l0 391c0,6 -2,11 -6,16 -6,4 -11,6 -16,6 -5,0 -10,-2 -15,-5 -4,-4 -6,-9 -6,-16l0 -196 -174 0 0 195c0,7 -2,13 -6,17 -4,3 -9,5 -15,5 -6,0 -11,-2 -16,-5 -4,-4 -6,-9 -6,-17l0 -390c0,-6 2,-11 6,-16 5,-4 10,-6 16,-6 5,0 10,2 14,5 5,4 7,9 7,17l0 152 174 0zm391 173c0,24 -9,44 -26,61 -17,17 -37,26 -61,26l-87 0c-24,0 -44,-8 -61,-25 -17,-17 -26,-38 -26,-62l0 -260c0,-25 9,-45 26,-62 16,-17 37,-25 61,-25l87 0c24,0 44,8 61,25 17,17 26,38 26,62l0 260zm-44 0l0 -261c0,-12 -4,-22 -12,-31 -8,-8 -19,-12 -31,-12l-87 0c-12,0 -23,4 -31,12 -4,5 -7,9 -10,14 -2,6 -3,11 -3,17l0 261c0,13 5,23 13,32 4,3 9,6 14,9 6,2 12,3 17,3l87 0c12,0 22,-4 31,-12 8,-8 12,-19 12,-32zm339 -390l-87 0c-7,0 -12,-2 -16,-6 -4,-5 -6,-10 -6,-16 0,-5 2,-10 6,-15 3,-4 9,-7 16,-7l87 0c6,0 11,3 15,7 4,4 7,9 7,15 0,5 -2,10 -6,14 -4,5 -9,8 -16,8zm87 455c0,7 -2,13 -7,17 -4,3 -9,5 -15,5 -6,0 -11,-2 -15,-5 -5,-4 -7,-9 -7,-17l0 -307 -176 318c-2,4 -6,8 -10,10l-4 3c-2,1 -4,1 -7,2 -4,0 -9,-2 -14,-7 -4,-4 -6,-10 -6,-18l0 -391c0,-6 2,-11 7,-16 4,-4 9,-6 15,-6 5,0 10,2 15,5 4,4 6,9 6,17l0 307 177 -318c2,-3 5,-7 9,-10 4,-3 8,-4 12,-4 4,0 9,2 13,7 4,4 7,10 7,18l0 390zm-3330 695c0,7 -2,12 -6,17 -4,3 -9,5 -15,5 -6,0 -11,-2 -15,-6 -5,-3 -7,-9 -7,-16l0 -369 -174 0 0 369c0,7 -2,12 -6,17 -4,3 -9,5 -15,5 -6,0 -11,-2 -16,-6 -4,-3 -6,-9 -6,-16l0 -391c0,-14 7,-21 22,-21l217 0c14,0 21,7 21,21l0 391zm348 0c0,7 -2,12 -6,17 -4,3 -9,5 -15,5 -6,0 -11,-2 -16,-6 -4,-3 -6,-9 -6,-16l0 -369 -71 0 -104 375c-1,4 -3,8 -7,11 -4,3 -9,5 -13,5 -7,0 -12,-2 -16,-6 -4,-3 -7,-8 -7,-15 0,-3 1,-5 1,-6l109 -391c3,-11 10,-16 21,-16l108 0c15,0 22,7 22,21l0 391zm347 -65c0,24 -9,44 -26,61 -17,17 -37,26 -61,26l-87 0c-23,0 -44,-9 -61,-25 -17,-17 -26,-38 -26,-62l0 -261c0,-24 9,-44 26,-61 17,-17 37,-25 61,-25l87 0c24,0 45,8 61,25 17,17 26,37 26,61l0 261zm-43 0l0 -261c0,-12 -5,-22 -13,-31 -8,-8 -18,-12 -31,-12l-87 0c-12,0 -22,4 -31,12 -4,4 -7,9 -9,14 -2,6 -3,11 -3,17l0 261c0,12 4,23 12,31 4,4 9,7 14,10 6,2 12,3 17,3l87 0c12,0 22,-4 31,-12 8,-9 13,-19 13,-32zm512 87l-22 0 -304 0c-14,0 -22,-7 -22,-22l0 -391c0,-6 3,-11 7,-16 4,-4 9,-5 15,-5 5,0 11,1 15,5 4,4 7,9 7,16l0 370 108 0 0 -370c0,-5 2,-11 7,-16 4,-4 9,-5 15,-5 5,0 10,1 15,5 4,4 6,9 6,16l0 370 110 0 0 -370c0,-5 2,-11 6,-16 4,-4 9,-5 15,-5 6,0 11,1 15,5 5,4 7,9 7,16l0 370 21 0c15,0 22,7 22,21l0 66c0,6 -2,11 -7,15 -4,4 -9,6 -15,6 -5,0 -9,-2 -14,-5 -5,-4 -7,-9 -7,-17l0 -43zm206 -109l-31 94c-2,4 -5,8 -8,11 -3,2 -7,3 -12,4 -6,0 -11,-2 -15,-6 -5,-4 -7,-9 -7,-15l1 -8 131 -391c4,-12 11,-18 20,-18 9,0 16,6 21,18l130 391 1 8c0,5 -2,10 -7,15 -5,4 -10,6 -15,6 -3,0 -6,-1 -10,-2 -4,-2 -7,-6 -10,-13l-31 -94 -158 0zm143 -44l-64 -191 -64 191 128 0zm217 110l41 -372c0,-13 8,-19 22,-19l130 0c15,0 22,7 22,21l0 370 22 0c14,0 22,7 22,21l0 43c0,6 -3,11 -7,16 -4,4 -9,6 -15,6 -5,0 -10,-2 -14,-5 -5,-4 -7,-9 -7,-17l0 -21 -218 0 0 21c0,6 -3,11 -7,16 -4,4 -9,6 -15,6 -5,0 -10,-2 -14,-5 -5,-4 -7,-9 -7,-17l0 -43c0,-14 7,-21 21,-21l24 0zm172 0l0 -348 -89 0 -39 348 128 0zm434 21c0,7 -2,12 -7,17 -4,3 -9,5 -15,5 -6,0 -11,-2 -15,-6 -5,-3 -7,-9 -7,-16l0 -307 -176 318c-2,4 -6,8 -10,10l-4 3c-2,1 -4,1 -7,2 -4,-1 -9,-3 -14,-7 -4,-4 -6,-11 -6,-19l0 -390c0,-6 2,-12 7,-17 4,-3 9,-5 15,-5 5,0 10,2 15,5 4,4 6,9 6,17l0 306 177 -317c2,-3 5,-7 9,-10 4,-3 8,-5 12,-5 4,0 9,3 13,7 4,5 7,11 7,18l0 391zm-2672 456l0 -152c0,-6 2,-11 7,-15 4,-5 9,-7 15,-7 5,0 10,2 15,6 4,3 6,9 6,16l0 390c0,7 -2,12 -6,17 -6,4 -10,6 -15,6 -6,0 -11,-2 -16,-6 -4,-3 -6,-9 -6,-16l0 -196 -174 0 0 196c0,7 -2,12 -6,16 -4,4 -9,6 -15,6 -6,0 -11,-2 -15,-6 -5,-3 -7,-9 -7,-16l0 -391c0,-5 2,-11 7,-16 4,-4 9,-5 15,-5 5,0 10,1 15,5 4,4 6,9 6,16l0 152 174 0zm174 0l109 0c6,0 11,3 15,7 4,4 7,9 7,15 0,5 -2,10 -6,15 -4,4 -9,6 -16,6l-109 0 0 174 152 0c6,0 11,3 16,7 4,4 6,10 6,15 0,5 -2,10 -5,15 -4,4 -10,7 -17,7l-174 0c-14,0 -22,-7 -22,-21l0 -392c0,-14 8,-22 22,-22l174 0c6,0 11,3 16,7 4,4 6,9 6,15 0,5 -2,10 -6,15 -3,4 -9,7 -16,7l-152 0 0 130zm781 239c0,7 -2,12 -6,16 -4,4 -9,6 -16,6 -5,0 -10,-2 -15,-6 -4,-3 -6,-9 -6,-16l0 -369 -174 0 0 369c0,7 -2,12 -6,16 -4,4 -9,6 -16,6 -5,0 -11,-2 -15,-6 -4,-3 -6,-9 -6,-16l0 -391c0,-14 7,-22 21,-22l217 0c15,0 22,8 22,22l0 391zm347 -65c0,24 -8,44 -25,61 -17,17 -38,26 -62,26l-86 0c-24,0 -44,-9 -61,-26 -18,-16 -26,-37 -26,-61l0 -261c0,-24 8,-45 25,-61 17,-17 38,-26 62,-26l86 0c25,0 45,9 62,26 17,17 25,37 25,61l0 261zm-43 0l0 -261c0,-12 -4,-23 -12,-31 -8,-8 -19,-12 -31,-12l-87 0c-13,0 -23,4 -32,12 -4,4 -7,9 -9,14 -2,5 -3,11 -3,17l0 261c0,12 4,23 12,31 5,4 10,7 15,9 6,2 11,3 17,3l87 0c12,0 22,-4 30,-12 9,-8 13,-18 13,-31zm295 -131l-65 0c-6,0 -12,-2 -16,-6 -4,-4 -5,-9 -5,-15 0,-5 2,-10 5,-15 4,-4 9,-7 16,-7l65 0c12,0 23,-4 31,-12 9,-8 13,-18 13,-31l0 -44c0,-12 -4,-22 -12,-31 -9,-8 -19,-12 -32,-12l-43 0c-10,0 -18,2 -25,8 -7,5 -13,12 -16,22 -1,3 -3,7 -7,10 -2,1 -4,3 -6,4l-7 1c-6,0 -12,-2 -16,-6 -5,-4 -7,-10 -7,-16l1 -7c6,-18 16,-32 32,-43 15,-11 32,-17 51,-17l43 0c24,0 45,9 62,26 17,17 25,37 25,61l0 44c0,12 -3,24 -8,36 -5,11 -12,21 -21,29 19,16 29,38 29,65l0 87c0,24 -8,44 -25,61 -17,17 -38,26 -62,26l-43 0c-19,0 -36,-6 -51,-17 -14,-10 -25,-25 -32,-43l-1 -8c0,-5 2,-10 7,-15 4,-4 10,-6 16,-6 9,0 15,5 19,14 3,9 9,17 16,24 9,5 17,7 26,7l43 0c12,0 23,-4 31,-12 9,-8 13,-18 13,-31l0 -87c0,-13 -3,-23 -10,-30 -8,-9 -19,-14 -34,-14zm197 174l41 -372c0,-12 8,-19 22,-19l130 0c15,0 22,8 22,22l0 369 22 0c15,0 22,8 22,22l0 43c0,6 -2,11 -7,15 -4,5 -9,7 -15,7 -5,0 -9,-2 -14,-6 -5,-3 -7,-9 -7,-16l0 -21 -218 0 0 21c0,6 -2,11 -7,15 -4,5 -9,7 -15,7 -5,0 -9,-2 -14,-6 -5,-3 -7,-9 -7,-16l0 -43c0,-14 7,-22 21,-22l24 0zm172 0l0 -347 -89 0 -39 347 128 0zm390 -217l0 -152c0,-6 3,-11 7,-15 4,-5 9,-7 15,-7 6,0 11,2 15,6 4,3 7,9 7,16l0 390c0,7 -3,12 -7,17 -5,4 -10,6 -15,6 -6,0 -11,-2 -15,-6 -5,-3 -7,-9 -7,-16l0 -196 -174 0 0 196c0,7 -2,12 -6,16 -4,4 -9,6 -15,6 -6,0 -11,-2 -15,-6 -5,-3 -7,-9 -7,-16l0 -391c0,-5 2,-11 7,-16 4,-4 9,-5 15,-5 5,0 10,1 15,5 4,4 6,9 6,16l0 152 174 0zm174 0l109 0c6,0 11,3 15,7 5,4 7,9 7,15 0,5 -2,10 -6,15 -3,4 -9,6 -16,6l-109 0 0 174 152 0c6,0 11,3 16,7 4,4 6,10 6,15 0,5 -2,10 -5,15 -4,4 -9,7 -17,7l-174 0c-14,0 -21,-7 -21,-21l0 -392c0,-14 7,-22 21,-22l174 0c6,0 12,3 16,7 4,4 6,9 6,15 0,5 -2,10 -5,15 -4,4 -9,7 -17,7l-152 0 0 130zm304 0l109 0c6,0 11,3 15,7 4,4 7,9 7,15 0,5 -2,10 -6,15 -3,4 -9,6 -16,6l-109 0 0 174 152 0c6,0 11,3 16,7 4,4 6,10 6,15 0,5 -2,10 -5,15 -4,4 -10,7 -17,7l-174 0c-14,0 -22,-7 -22,-21l0 -392c0,-14 8,-22 22,-22l174 0c6,0 11,3 16,7 4,4 6,9 6,15 0,5 -2,10 -6,15 -3,4 -9,7 -16,7l-152 0 0 130zm-2396 565l-87 0c-6,0 -12,-2 -16,-6 -3,-5 -5,-10 -5,-16 0,-5 2,-10 5,-14 4,-5 10,-7 16,-7l87 0c34,0 61,11 82,33 18,21 27,45 27,75 0,17 -3,33 -10,48 -7,15 -18,28 -32,40 12,9 22,21 30,37 8,15 12,31 12,48l0 44c0,30 -11,55 -32,76 -21,22 -47,32 -77,32l-87 0c-6,0 -12,-1 -16,-5 -3,-5 -5,-10 -5,-16 0,-5 2,-10 5,-15 4,-4 9,-7 17,-7l87 0c18,0 33,-6 46,-19 12,-13 19,-28 19,-46l0 -44c0,-17 -7,-33 -19,-45 -13,-13 -28,-20 -47,-20l-43 0c-7,0 -12,-2 -16,-6 -4,-4 -6,-10 -6,-15 0,-5 2,-10 6,-15 3,-5 9,-7 16,-7l43 0c20,0 36,-7 48,-21 11,-12 16,-27 16,-45 0,-18 -5,-33 -15,-44 -12,-13 -28,-20 -49,-20zm415 295c0,26 -10,48 -28,67 -19,19 -41,28 -68,28l-26 0c-26,0 -48,-9 -67,-27 -19,-19 -29,-41 -29,-68l0 -243c0,-26 10,-48 28,-67 19,-19 42,-29 68,-29l26 0c26,0 48,9 67,28 19,18 29,41 29,68l0 243zm-44 0l0 -244c0,-14 -5,-26 -15,-36 -10,-11 -22,-16 -37,-16l-26 0c-14,0 -27,5 -37,16 -10,10 -15,22 -15,36l0 244c0,14 5,27 15,37 10,10 22,15 37,15l26 0c14,0 27,-5 37,-15 10,-10 15,-22 15,-37zm436 52l42 -372c0,-13 7,-19 21,-19l130 0c15,0 22,7 22,22l0 369 22 0c15,0 22,7 22,22l0 43c0,6 -2,11 -7,15 -4,5 -9,7 -15,7 -5,0 -9,-2 -14,-6 -5,-3 -7,-9 -7,-16l0 -22 -218 0 0 22c0,6 -2,11 -7,15 -4,5 -9,7 -15,7 -5,0 -9,-2 -14,-6 -5,-3 -7,-9 -7,-16l0 -43c0,-15 7,-22 21,-22l24 0zm172 0l0 -348 -89 0 -39 348 128 0zm391 -217l0 -152c0,-6 2,-11 6,-15 4,-5 9,-7 15,-7 6,0 11,2 15,6 5,3 7,9 7,16l0 390c0,6 -2,12 -7,17 -5,3 -10,5 -15,5 -5,0 -11,-1 -15,-5 -4,-3 -6,-9 -6,-16l0 -196 -174 0 0 196c0,7 -2,12 -7,16 -3,4 -9,5 -15,5 -6,0 -11,-1 -15,-5 -4,-4 -7,-9 -7,-16l0 -391c0,-6 3,-11 7,-16 4,-4 9,-6 15,-6 6,0 11,2 15,6 4,3 7,9 7,16l0 152 174 0zm173 0l109 0c6,0 11,2 15,7 5,4 7,9 7,15 0,5 -2,10 -6,14 -3,5 -9,7 -16,7l-109 0 0 174 152 0c6,0 12,3 16,7 4,4 6,9 6,15 0,5 -2,10 -5,14 -4,5 -9,7 -16,7l-175 0c-14,0 -21,-6 -21,-20l0 -392c0,-15 7,-22 21,-22l175 0c5,0 11,2 15,7 4,4 6,9 6,15 0,5 -2,10 -5,14 -4,5 -9,7 -17,7l-152 0 0 131zm434 -217l-87 0c-6,0 -12,-2 -16,-6 -4,-5 -5,-10 -5,-16 0,-5 1,-9 5,-14 4,-5 9,-7 16,-7l87 0c6,0 11,2 16,6 4,5 6,10 6,15 0,5 -2,10 -6,15 -3,5 -9,7 -16,7zm87 456c0,7 -2,12 -6,16 -4,4 -9,5 -16,5 -5,0 -11,-1 -15,-5 -4,-4 -6,-9 -6,-16l0 -307 -177 317c-2,5 -5,8 -9,11l-5 2c-1,1 -4,2 -7,2 -4,0 -8,-2 -14,-6 -4,-5 -5,-11 -5,-19l0 -391c0,-6 2,-11 6,-16 4,-4 9,-6 15,-6 6,0 11,2 15,6 4,3 7,9 7,16l0 307 176 -317c2,-4 5,-7 9,-11 4,-3 8,-4 12,-4 5,0 9,2 13,7 5,4 7,10 7,18l0 391z"/>
   </g>
  </g>
 </g>
</svg>
