<?xml version="1.0" encoding="UTF-8"?>
<!DOCTYPE svg PUBLIC "-//W3C//DTD SVG 1.1//EN" "http://www.w3.org/Graphics/SVG/1.1/DTD/svg11.dtd">
<!-- Creator: CorelDRAW X6 -->
<svg xmlns="http://www.w3.org/2000/svg" xml:space="preserve" width="200mm" height="200mm" version="1.1" style="shape-rendering:geometricPrecision; text-rendering:geometricPrecision; image-rendering:optimizeQuality; fill-rule:evenodd; clip-rule:evenodd"
viewBox="0 0 20000 20000"
 xmlns:xlink="http://www.w3.org/1999/xlink">
 <defs>
  <style type="text/css">
   <![CDATA[
    .str7 {stroke:#A37C66;stroke-width:11.6;stroke-linecap:round;stroke-linejoin:round}
    .str6 {stroke:#A37C66;stroke-width:19.08;stroke-linecap:round;stroke-linejoin:round}
    .str4 {stroke:#7688A1;stroke-width:150;stroke-linecap:round;stroke-linejoin:round}
    .str9 {stroke:#493A8B;stroke-width:250;stroke-linecap:round;stroke-linejoin:round}
    .str2 {stroke:#008DD2;stroke-width:71.33;stroke-linecap:round;stroke-linejoin:round}
    .str1 {stroke:#5797B4;stroke-width:71.33;stroke-linecap:round;stroke-linejoin:round}
    .str8 {stroke:#7690C9;stroke-width:71.33;stroke-linecap:round;stroke-linejoin:round}
    .str3 {stroke:#7688A1;stroke-width:142.65;stroke-linecap:round;stroke-linejoin:round}
    .str5 {stroke:#AB8082;stroke-width:142.65;stroke-linecap:round;stroke-linejoin:round}
    .str0 {stroke:#AB8082;stroke-width:161.66;stroke-linecap:round;stroke-linejoin:round}
    .fil4 {fill:none}
    .fil9 {fill:none;fill-rule:nonzero}
    .fil11 {fill:#7690C9}
    .fil10 {fill:#EBECEC}
    .fil1 {fill:#FCD5A6}
    .fil3 {fill:#FDEAD2}
    .fil6 {fill:#FEFEFE}
    .fil2 {fill:#FFFBDB}
    .fil7 {fill:#493A8B;fill-rule:nonzero}
    .fil8 {fill:#A37C66;fill-rule:nonzero}
    .fil5 {fill:#FCD5A6;fill-rule:nonzero}
    .fil0 {fill:url(#id0)}
   ]]>
  </style>
  <radialGradient id="id0" gradientUnits="userSpaceOnUse" cx="10000" cy="10000" r="10000" fx="10000" fy="10000">
   <stop offset="0" style="stop-color:#FEFEFE"/>
   <stop offset="0.439216" style="stop-color:#FEFEFE"/>
   <stop offset="1" style="stop-color:#D1E2F2"/>
  </radialGradient>
 </defs>
 <g id="Layer_x0020_1">
  <metadata id="CorelCorpID_0Corel-Layer"/>
  <g id="_911064624">
   <polygon class="fil0" points="0,0 20000,0 20000,20000 0,20000 "/>
   <polygon class="fil1" points="6093,16436 6093,9579 4382,3842 4382,10699 "/>
   <polygon class="fil2" points="16037,9579 6093,9579 4382,3842 14668,3842 14668,4989 15010,4989 15010,6136 15352,6136 15352,7284 15694,7284 15694,8431 16037,8431 "/>
   <path class="fil3" d="M16379 16436l-10286 0c0,-2568 0,-4289 0,-6857l10286 0 0 6857z"/>
   <path class="fil1" d="M6093 9579l10286 0 0 3120 -10286 -2597c18,-268 0,-344 0,-523z"/>
   <path class="fil4 str0" d="M16379 16436l-10286 0c0,-2568 0,-4289 0,-6857l10286 0 0 6857z"/>
   <g>
    <path class="fil5" d="M6531 13723l0 66 -2 0 -2 0 -2 0 -2 0 -2 0 -2 0 -2 -1 -2 -1 -2 -1 -2 -1 -1 -1 -1 -1 -1 -1 -1 -1 -1 -1 -1 -1 -1 -1 -1 -1 -1 -1 -1 -1 -1 -1 -1 -1 -1 -1 -1 -1 -1 -2 -1 -2 0 -2 0 -2 0 -2 0 -2 0 -2 0 -2 0 -2 0 -2 0 -2 0 -2 0 -2 0 -2 1 -2 1 -2 1 -1 1 -1 1 -1 1 -1 1 -1 1 -1 1 -1 1 -1 1 -1 1 -1 1 -1 1 -1 1 -1 1 -1 2 -1 2 -1 2 -1 2 -1 2 0 2 0 2 0 2 0 2 0 2 0zm9433 66l-9433 0 0 -66 9433 0 0 66zm0 0l0 -66 2 0 2 0 2 0 2 0 2 0 2 0 2 1 2 1 2 1 2 1 1 1 1 1 1 1 1 1 1 1 1 1 1 1 1 1 1 1 1 1 1 1 1 1 1 1 1 1 1 2 1 2 0 2 0 2 0 2 0 2 0 2 0 2 0 2 0 2 0 2 0 2 0 2 0 2 -1 2 -1 2 -1 1 -1 1 -1 1 -1 1 -1 1 -1 1 -1 1 -1 1 -1 1 -1 1 -1 1 -1 1 -1 1 -1 1 -2 1 -2 1 -2 1 -2 1 -2 0 -2 0 -2 0 -2 0 -2 0 -2 0z"/>
   </g>
   <polygon class="fil6" points="5968,11039 9069,11039 9069,14196 5968,14196 "/>
   <path class="fil4 str1" d="M7977 12926c-405,1410 -128,611 -317,485 -188,-126 685,-605 628,-220 -57,386 -685,293 -668,374 17,81 263,137 337,-69 74,-206 -34,160 160,97 194,-63 274,-246 242,-143 -31,103 23,86 126,23 103,-63 220,-128 220,-128"/>
   <path class="fil4 str2" d="M7637 11379c376,-101 763,122 863,499 101,376 -122,763 -499,863 -376,101 -763,-122 -863,-499 -101,-376 122,-763 499,-863zm-345 683c-1,-234 154,-448 391,-511 236,-63 478,45 594,247m70 259c1,234 -154,448 -391,511 -236,63 -478,-44 -594,-247m534 68c-62,17 -8,-58 -82,-38 -35,9 -93,106 -110,94 -18,-13 -72,-54 -64,-73 17,-42 21,-90 67,-116 -32,-22 -127,11 -137,-35 0,-1 -201,-117 -110,-197 18,-15 -19,-72 -6,-113 11,-34 269,-5 259,-41 -4,-17 -33,-57 -93,-63 -10,-1 55,-17 90,-31 7,-3 -17,-26 -13,-29 14,-11 15,-14 33,-19m685 162c0,0 -39,40 -10,47m-1169 305c-3,-27 43,-28 1,-59m681 201c62,-17 -22,-54 52,-74 35,-9 133,46 142,26 9,-21 35,-82 19,-95 -36,-28 -64,-68 -116,-67 16,-35 115,-54 101,-99 0,-1 115,-202 -3,-226 -23,-5 -19,-72 -52,-101 -27,-24 -235,131 -245,94 -4,-17 0,-66 48,-101 8,-6 -56,13 -94,18 -8,1 1,-31 -3,-31 -18,-2 -20,-5 -38,1"/>
   <path class="fil4 str3" d="M6659 13583c0,100 81,182 182,182 100,0 182,-81 182,-182"/>
   <path class="fil4 str3" d="M6659 11535c0,100 81,182 182,182 100,0 182,-81 182,-182"/>
   <polyline class="fil4 str4" points="5968,14196 9069,14196 9069,11039 "/>
   <path class="fil4 str5" d="M6659 15636c0,100 81,182 182,182 100,0 182,-81 182,-182"/>
   <g>
    <path class="fil7" d="M4265 5621l234 -9 0 6 0 6 -1 6 -1 6 -1 6 -1 6 -2 6 -2 6 -2 5 -2 5 -3 5 -3 5 -3 5 -3 5 -4 4 -4 4 -4 4 -4 4 -4 4 -4 4 -5 3 -5 3 -5 3 -5 3 -5 2 -5 2 -5 2 -6 2 -6 1 -6 1 -6 1 -6 0 -6 0 -6 0 -6 -1 -6 -1 -6 -1 -6 -1 -6 -2 -5 -2 -5 -2 -5 -2 -5 -3 -5 -3 -5 -3 -5 -3 -4 -4 -4 -4 -4 -4 -4 -4 -4 -4 -3 -5 -3 -5 -3 -5 -3 -5 -3 -5 -2 -5 -2 -5 -2 -6 -2 -6 -1 -6 -1 -6 -1 -6 0 -6zm-76 -356l220 -82 0 0 8 22 7 21 7 21 6 21 6 20 5 20 5 20 5 19 4 19 4 18 4 18 3 17 3 17 3 16 3 15 2 15 2 14 2 14 2 13 2 12 1 11 1 11 1 10 1 9 1 8 1 7 0 6 0 5 0 4 0 3 0 2 0 1 -234 9 0 0 0 -1 0 -2 0 -3 0 -4 0 -5 0 -5 -1 -6 -1 -7 -1 -8 -1 -9 -1 -9 -1 -10 -1 -11 -2 -11 -2 -12 -2 -13 -2 -13 -2 -14 -3 -14 -3 -15 -3 -15 -3 -16 -4 -16 -4 -16 -4 -17 -5 -17 -5 -17 -5 -18 -6 -18 -6 -18 -6 -18 0 0zm220 -82l-220 82 -2 -6 -2 -6 -1 -6 -1 -6 -1 -6 0 -6 0 -6 0 -6 0 -6 1 -6 1 -6 1 -6 1 -6 2 -5 2 -5 2 -5 2 -5 3 -5 3 -5 3 -5 3 -5 4 -4 4 -4 4 -4 4 -4 4 -4 5 -3 5 -3 5 -3 5 -3 5 -3 6 -2 6 -2 6 -2 6 -1 6 -1 6 -1 6 0 6 0 6 0 6 0 6 1 6 1 6 1 5 2 5 2 5 2 5 2 5 3 5 3 5 3 5 3 4 3 4 4 4 4 4 4 4 4 4 5 3 5 3 5 3 5 3 5 2 6 2 6zm-1312 -846l198 -127 19 28 21 27 23 26 25 25 27 24 29 23 31 23 33 22 35 22 36 21 38 21 39 21 40 21 41 21 42 22 42 22 43 23 43 24 43 25 43 27 42 28 42 30 41 32 40 34 39 37 38 40 36 42 34 45 32 49 29 52 26 55 23 58 -220 82 -17 -44 -19 -41 -21 -38 -23 -36 -25 -34 -27 -32 -28 -30 -30 -29 -32 -27 -33 -26 -35 -25 -36 -24 -37 -23 -38 -23 -39 -22 -40 -22 -41 -22 -41 -22 -41 -22 -41 -22 -41 -22 -41 -23 -41 -24 -41 -25 -40 -27 -39 -28 -38 -30 -37 -32 -35 -35 -33 -37 -31 -40 -29 -43zm198 -127l-198 127 -3 -5 -3 -5 -2 -5 -2 -6 -2 -6 -2 -6 -1 -6 -1 -6 -1 -6 0 -6 0 -6 0 -6 0 -6 1 -6 1 -6 1 -6 1 -6 2 -5 2 -5 2 -5 2 -5 3 -5 3 -5 3 -5 3 -5 4 -5 4 -4 4 -4 4 -4 5 -4 5 -4 5 -3 5 -3 5 -3 5 -3 5 -2 5 -2 6 -2 6 -1 6 -1 6 -1 6 0 6 0 6 0 6 0 6 1 6 1 5 1 5 1 5 2 5 2 5 2 5 2 5 3 5 3 5 3 5 3 4 4 4 4 4 4 4 4 4 5 4 5 3 5z"/>
   </g>
   <path class="fil8 str6" d="M11020 12250c-59,0 -82,-41 -82,-94l0 -273c0,-53 23,-94 82,-94l87 0c37,0 56,15 60,50 2,20 12,39 39,39 29,0 41,-19 41,-39 0,-89 -53,-127 -140,-127l-87 0c-108,0 -162,77 -162,171l0 273c0,94 54,171 162,171l87 0c87,0 140,-38 140,-127 0,-20 -12,-39 -41,-39 -27,0 -38,19 -39,39 -3,36 -23,50 -60,50l-87 0zm615 -452l0 490c0,20 11,39 40,39 27,0 40,-19 40,-39l0 -527c0,-20 -13,-39 -40,-39l-287 0c-27,0 -40,19 -40,39l0 527c0,20 13,39 40,39 28,0 40,-19 40,-39l0 -490 207 0zm516 490c0,20 11,39 38,39 29,0 40,-19 40,-39l0 -536c0,-20 -12,-39 -41,-39 -16,0 -27,6 -40,29l-228 406 -1 0c2,-15 3,-36 3,-59l0 -337c0,-20 -11,-39 -38,-39 -29,0 -40,19 -40,39l0 536c0,20 12,39 41,39 16,0 27,-6 40,-29l228 -406 1 0c-2,15 -3,36 -3,59l0 337zm362 -38c-59,0 -82,-41 -82,-94l0 -273c0,-53 23,-94 82,-94l87 0c37,0 56,15 60,50 2,20 12,39 39,39 29,0 41,-19 41,-39 0,-89 -53,-127 -140,-127l-87 0c-108,0 -162,77 -162,171l0 273c0,94 54,171 162,171l87 0c87,0 140,-38 140,-127 0,-20 -12,-39 -41,-39 -27,0 -38,19 -39,39 -3,36 -23,50 -60,50l-87 0zm399 -367c0,-53 23,-94 82,-94l68 0c59,0 82,41 82,94l0 273c0,53 -23,94 -82,94l-68 0c-59,0 -82,-41 -82,-94l0 -273zm312 0c0,-94 -54,-171 -162,-171l-68 0c-108,0 -162,77 -162,171l0 273c0,94 54,171 162,171l68 0c108,0 162,-77 162,-171l0 -273zm501 380l-183 -260 174 -226c15,-20 15,-41 -2,-56 -20,-19 -45,-9 -60,9l-179 243 -51 0 0 -221c0,-20 -12,-39 -39,-39 -29,0 -41,19 -41,39l0 536c0,20 12,39 41,39 27,0 39,-19 39,-39l0 -238 52 0 183 260c11,17 32,26 55,11 24,-17 22,-40 10,-57zm-3659 1121c0,20 11,39 38,39 29,0 40,-19 40,-39l0 -536c0,-20 -12,-39 -41,-39 -16,0 -27,6 -40,29l-228 406 -1 0c2,-15 3,-36 3,-59l0 -337c0,-20 -11,-39 -38,-39 -29,0 -40,19 -40,39l0 536c0,20 12,39 41,39 16,0 27,-6 40,-29l228 -406 1 0c-2,15 -3,36 -3,59l0 337zm457 -418c0,51 -36,99 -94,99l-31 0c-20,0 -38,13 -38,38 0,27 18,38 38,38l63 0c59,0 82,47 82,99l0 20c0,53 -19,88 -83,88l-64 0c-33,0 -65,-15 -68,-50 -2,-20 -12,-39 -39,-39 -29,0 -41,19 -41,39 0,81 61,127 148,127l71 0c103,0 157,-71 157,-165l0 -20c0,-71 -33,-132 -99,-148 58,-26 78,-72 78,-125 0,-94 -46,-157 -159,-157l-38 0c-87,0 -146,44 -146,127 0,20 12,39 41,39 27,0 38,-19 39,-39 2,-34 36,-50 72,-50l31 0c57,0 79,24 79,80zm409 88l-124 0 0 -159 217 0c20,0 38,-11 38,-38 0,-26 -18,-38 -38,-38l-257 0c-29,0 -41,19 -41,39l0 519c0,20 12,39 41,39l163 0c110,0 164,-72 164,-165l0 -38c0,-96 -54,-157 -164,-157zm84 204c0,51 -23,80 -82,80l-125 0 0 -212 124 0c59,0 84,30 84,81l0 51zm490 126c0,20 11,39 38,39 29,0 40,-19 40,-39l0 -536c0,-20 -12,-39 -41,-39 -16,0 -27,6 -40,29l-228 406 -1 0c2,-15 3,-36 3,-59l0 -337c0,-20 -11,-39 -38,-39 -29,0 -40,19 -40,39l0 536c0,20 12,39 41,39 16,0 27,-6 40,-29l228 -406 1 0c-2,15 -3,36 -3,59l0 337zm288 -278l0 -212 133 0c59,0 84,30 84,81l0 43c0,52 -25,89 -84,89l-133 0zm133 77c110,0 164,-72 164,-165l0 -43c0,-96 -54,-157 -164,-157l-174 0c-27,0 -39,19 -39,39l0 527c0,20 12,39 40,39 28,0 40,-19 40,-39l0 -201 133 0zm484 64l48 149c7,20 26,32 49,25 22,-8 32,-28 25,-49l-172 -534c-6,-19 -16,-29 -40,-29l-4 0c-24,0 -34,10 -40,29l-172 534c-7,20 3,41 25,49 23,8 43,-4 49,-25l48 -149 185 0zm-106 -258c6,-19 9,-28 13,-49l1 0c4,20 7,30 13,49l58 186 -142 0 58 -186zm406 434c28,0 40,-19 40,-39l0 -490 125 0c20,0 38,-11 38,-38 0,-26 -18,-38 -38,-38l-329 0c-20,0 -38,13 -38,38 0,27 18,38 38,38l125 0 0 490c0,20 12,39 40,39zm591 -9c20,0 38,-11 38,-38 0,-26 -18,-38 -38,-38l-234 0 0 -192 193 0c20,0 38,-11 38,-38 0,-26 -18,-38 -38,-38l-193 0 0 -175 234 0c20,0 38,-11 38,-38 0,-26 -18,-38 -38,-38l-275 0c-27,0 -39,19 -39,39l0 519c0,20 12,39 39,39l275 0zm261 -107c6,-49 50,-413 50,-413l149 0 0 490c0,20 12,39 41,39 27,0 39,-19 39,-39l0 -527c0,-20 -12,-39 -39,-39l-223 0c-25,0 -38,16 -41,39 -3,25 -49,397 -53,431 -3,20 -5,32 -10,41 -9,16 -23,20 -48,20 -20,0 -39,13 -39,40 0,29 19,38 39,38 74,0 105,-24 122,-67 6,-16 9,-32 12,-54zm723 107c20,0 38,-11 38,-38 0,-26 -18,-38 -38,-38l-234 0 0 -192 193 0c20,0 38,-11 38,-38 0,-26 -18,-38 -38,-38l-193 0 0 -175 234 0c20,0 38,-11 38,-38 0,-26 -18,-38 -38,-38l-275 0c-27,0 -39,19 -39,39l0 519c0,20 12,39 39,39l275 0zm327 -651c78,0 119,-55 119,-114 0,-18 -14,-30 -32,-30 -18,0 -30,12 -32,31 -3,32 -23,55 -55,55 -32,0 -53,-23 -55,-55 -2,-19 -14,-31 -32,-31 -18,0 -32,12 -32,30 0,59 41,114 119,114zm112 620c0,20 11,39 38,39 29,0 40,-19 40,-39l0 -536c0,-20 -12,-39 -41,-39 -16,0 -27,6 -40,29l-228 406 -1 0c2,-15 3,-36 3,-59l0 -337c0,-20 -11,-39 -38,-39 -29,0 -40,19 -40,39l0 536c0,20 12,39 41,39 16,0 27,-6 40,-29l228 -406 1 0c-2,15 -3,36 -3,59l0 337z"/>
   <path class="fil8 str7" d="M7704 9208l-111 -158 106 -137c9,-12 9,-25 -1,-34 -12,-11 -27,-6 -36,5l-109 148 -31 0 0 -134c0,-12 -7,-24 -24,-24 -18,0 -25,11 -25,24l0 325c0,12 7,24 25,24 17,0 24,-11 24,-24l0 -145 32 0 111 158c7,10 20,16 34,7 15,-10 13,-24 6,-35zm295 -311c0,-12 -8,-24 -24,-24 -17,0 -24,11 -24,24l0 129 -136 0 0 -129c0,-12 -7,-24 -24,-24 -17,0 -24,11 -24,24l0 325c0,12 8,24 24,24 17,0 24,-11 24,-24l0 -150 136 0 0 150c0,12 7,24 24,24 17,0 24,-11 24,-24l0 -325zm265 325c0,12 7,24 23,24 18,0 24,-11 24,-24l0 -325c0,-12 -7,-24 -25,-24 -10,0 -17,4 -24,18l-138 247 -1 0c1,-9 2,-22 2,-36l0 -205c0,-12 -7,-24 -23,-24 -18,0 -24,11 -24,24l0 325c0,12 7,24 25,24 10,0 17,-4 24,-18l138 -247 1 0c-1,9 -2,22 -2,36l0 205zm153 -344c-19,0 -27,11 -27,24l0 320c0,12 8,24 24,24 17,0 24,-11 24,-24l0 -297 139 0c12,0 23,-7 23,-23 0,-16 -11,-23 -20,-23l-163 0zm343 261l29 91c4,12 16,20 30,15 13,-5 19,-17 15,-30l-105 -324c-4,-11 -10,-18 -24,-18l-3 0c-15,0 -21,6 -24,18l-105 324c-4,12 2,25 15,30 14,5 26,-3 30,-15l29 -91 112 0zm-64 -156c4,-11 5,-17 8,-30l1 0c3,12 4,18 8,30l35 113 -87 0 35 -113zm485 111c0,14 2,29 3,38l-1 0 -117 -241c-6,-12 -15,-18 -24,-18 -18,0 -25,11 -25,24l0 325c0,12 7,24 24,24 17,0 23,-11 23,-24l0 -197c0,-14 -2,-29 -3,-38l1 0 117 241c6,12 15,18 24,18 18,0 25,-11 25,-24l0 -325c0,-12 -7,-24 -24,-24 -17,0 -23,11 -23,24l0 197zm131 -111c-16,0 -20,-9 -20,-23l0 -26c0,-15 4,-23 20,-23l8 0c16,0 20,9 20,23l0 26c0,15 -4,23 -20,23l-8 0zm8 35c36,0 53,-24 53,-55l0 -31c0,-32 -17,-55 -53,-55l-9 0c-36,0 -53,23 -53,55l0 31c0,32 17,55 53,55l9 0zm36 61c11,0 19,-5 19,-19 0,-13 -8,-19 -19,-19l-80 0c-11,0 -19,5 -19,19 0,13 8,19 19,19l80 0zm327 -205c-8,0 -14,4 -19,8 -25,28 -54,56 -84,83 -9,9 -13,20 -1,32 11,11 22,7 32,-1 19,-16 38,-35 54,-54l0 252 -65 0c-13,0 -23,7 -23,23 0,17 10,23 23,23l168 0c13,0 23,-7 23,-23 0,-17 -10,-23 -23,-23l-54 0 0 -297c0,-13 -4,-24 -22,-24l-9 0zm409 326c-36,0 -50,-25 -50,-57l0 -166c0,-32 14,-57 50,-57l53 0c22,0 34,9 36,31 1,12 7,24 24,24 18,0 25,-11 25,-24 0,-54 -32,-77 -85,-77l-53 0c-66,0 -98,47 -98,104l0 166c0,57 33,104 98,104l53 0c53,0 85,-23 85,-77 0,-12 -7,-24 -25,-24 -17,0 -23,11 -24,24 -2,22 -14,31 -36,31l-53 0zm374 -275l0 297c0,12 7,24 24,24 17,0 24,-11 24,-24l0 -320c0,-12 -8,-24 -24,-24l-175 0c-17,0 -24,11 -24,24l0 320c0,12 8,24 24,24 17,0 24,-11 24,-24l0 -297 126 0zm313 297c0,12 7,24 23,24 18,0 24,-11 24,-24l0 -325c0,-12 -7,-24 -25,-24 -10,0 -17,4 -24,18l-138 247 -1 0c1,-9 2,-22 2,-36l0 -205c0,-12 -7,-24 -23,-24 -18,0 -24,11 -24,24l0 325c0,12 7,24 25,24 10,0 17,-4 24,-18l138 -247 1 0c-1,9 -2,22 -2,36l0 205zm220 -23c-36,0 -50,-25 -50,-57l0 -166c0,-32 14,-57 50,-57l53 0c22,0 34,9 36,31 1,12 7,24 24,24 18,0 25,-11 25,-24 0,-54 -32,-77 -85,-77l-53 0c-66,0 -98,47 -98,104l0 166c0,57 33,104 98,104l53 0c53,0 85,-23 85,-77 0,-12 -7,-24 -25,-24 -17,0 -23,11 -24,24 -2,22 -14,31 -36,31l-53 0zm430 8l-111 -158 106 -137c9,-12 9,-25 -1,-34 -12,-11 -27,-6 -36,5l-109 148 -31 0 0 -134c0,-12 -7,-24 -24,-24 -18,0 -25,11 -25,24l0 325c0,12 7,24 25,24 17,0 24,-11 24,-24l0 -145 32 0 111 158c7,10 20,16 34,7 15,-10 13,-24 6,-35zm220 -69l29 91c4,12 16,20 30,15 13,-5 19,-17 15,-30l-105 -324c-4,-11 -10,-18 -24,-18l-3 0c-15,0 -21,6 -24,18l-105 324c-4,12 2,25 15,30 14,5 26,-3 30,-15l29 -91 112 0zm-64 -156c4,-11 5,-17 8,-30l1 0c3,12 4,18 8,30l35 113 -87 0 35 -113zm510 240c0,12 7,24 23,24 18,0 24,-11 24,-24l0 -325c0,-12 -7,-24 -25,-24 -10,0 -17,4 -24,18l-138 247 -1 0c1,-9 2,-22 2,-36l0 -205c0,-12 -7,-24 -23,-24 -18,0 -24,11 -24,24l0 325c0,12 7,24 25,24 10,0 17,-4 24,-18l138 -247 1 0c-1,9 -2,22 -2,36l0 205zm278 -254c0,31 -22,60 -57,60l-19 0c-12,0 -23,8 -23,23 0,17 11,23 23,23l38 0c36,0 50,29 50,60l0 12c0,32 -11,53 -50,53l-39 0c-20,0 -39,-9 -41,-31 -1,-12 -7,-24 -24,-24 -18,0 -25,11 -25,24 0,49 37,77 90,77l43 0c63,0 95,-43 95,-100l0 -12c0,-43 -20,-80 -60,-90 35,-16 48,-44 48,-76 0,-57 -28,-95 -97,-95l-23 0c-53,0 -89,26 -89,77 0,12 7,24 25,24 17,0 23,-11 24,-24 1,-21 22,-31 44,-31l19 0c35,0 48,15 48,49zm248 53l-75 0 0 -97 132 0c12,0 23,-7 23,-23 0,-16 -11,-23 -23,-23l-156 0c-18,0 -25,11 -25,24l0 315c0,12 7,24 25,24l99 0c67,0 99,-44 99,-101l0 -23c0,-58 -33,-95 -99,-95zm51 124c0,31 -14,49 -50,49l-76 0 0 -129 75 0c36,0 51,18 51,49l0 31zm298 77c0,12 7,24 23,24 18,0 24,-11 24,-24l0 -325c0,-12 -7,-24 -25,-24 -10,0 -17,4 -24,18l-138 247 -1 0c1,-9 2,-22 2,-36l0 -205c0,-12 -7,-24 -23,-24 -18,0 -24,11 -24,24l0 325c0,12 7,24 25,24 10,0 17,-4 24,-18l138 -247 1 0c-1,9 -2,22 -2,36l0 205zm175 -169l0 -129 81 0c36,0 51,18 51,49l0 26c0,32 -15,54 -51,54l-81 0zm81 47c67,0 99,-44 99,-101l0 -26c0,-58 -33,-95 -99,-95l-106 0c-17,0 -24,11 -24,24l0 320c0,12 7,24 24,24 17,0 24,-11 24,-24l0 -122 81 0zm294 39l29 91c4,12 16,20 30,15 13,-5 19,-17 15,-30l-105 -324c-4,-11 -10,-18 -24,-18l-3 0c-15,0 -21,6 -24,18l-105 324c-4,12 2,25 15,30 14,5 26,-3 30,-15l29 -91 112 0zm-64 -156c4,-11 5,-17 8,-30l1 0c3,12 4,18 8,30l35 113 -87 0 35 -113zm247 264c17,0 24,-11 24,-24l0 -297 76 0c12,0 23,-7 23,-23 0,-16 -11,-23 -23,-23l-200 0c-12,0 -23,8 -23,23 0,17 11,23 23,23l76 0 0 297c0,12 7,24 24,24zm359 -5c12,0 23,-7 23,-23 0,-16 -11,-23 -23,-23l-142 0 0 -117 117 0c12,0 23,-7 23,-23 0,-16 -11,-23 -23,-23l-117 0 0 -106 142 0c12,0 23,-7 23,-23 0,-16 -11,-23 -23,-23l-167 0c-17,0 -24,11 -24,24l0 315c0,12 7,24 24,24l167 0zm159 -65c4,-30 31,-251 31,-251l91 0 0 297c0,12 7,24 25,24 17,0 24,-11 24,-24l0 -320c0,-12 -7,-24 -24,-24l-135 0c-15,0 -23,10 -25,24 -2,15 -30,241 -32,262 -2,12 -3,20 -6,25 -5,10 -14,12 -29,12 -12,0 -24,8 -24,24 0,18 11,23 24,23 45,0 64,-15 74,-40 4,-10 6,-19 7,-33zm439 65c12,0 23,-7 23,-23 0,-16 -11,-23 -23,-23l-142 0 0 -117 117 0c12,0 23,-7 23,-23 0,-16 -11,-23 -23,-23l-117 0 0 -106 142 0c12,0 23,-7 23,-23 0,-16 -11,-23 -23,-23l-167 0c-17,0 -24,11 -24,24l0 315c0,12 7,24 24,24l167 0zm199 -395c47,0 72,-34 72,-69 0,-11 -8,-18 -19,-18 -11,0 -18,7 -19,19 -2,19 -14,33 -34,33 -20,0 -32,-14 -34,-33 -1,-11 -8,-19 -19,-19 -11,0 -19,7 -19,18 0,36 25,69 72,69zm68 377c0,12 7,24 23,24 18,0 24,-11 24,-24l0 -325c0,-12 -7,-24 -25,-24 -10,0 -17,4 -24,18l-138 247 -1 0c1,-9 2,-22 2,-36l0 -205c0,-12 -7,-24 -23,-24 -18,0 -24,11 -24,24l0 325c0,12 7,24 25,24 10,0 17,-4 24,-18l138 -247 1 0c-1,9 -2,22 -2,36l0 205z"/>
   <path class="fil8 str7" d="M7362 8060l-111 -158 106 -137c9,-12 9,-25 -1,-34 -12,-11 -27,-6 -36,5l-109 148 -31 0 0 -134c0,-12 -7,-24 -24,-24 -18,0 -25,11 -25,24l0 325c0,12 7,24 25,24 17,0 24,-11 24,-24l0 -145 32 0 111 158c7,10 20,16 34,7 15,-10 13,-24 6,-35zm295 -311c0,-12 -8,-24 -24,-24 -17,0 -24,11 -24,24l0 129 -136 0 0 -129c0,-12 -7,-24 -24,-24 -17,0 -24,11 -24,24l0 325c0,12 8,24 24,24 17,0 24,-11 24,-24l0 -150 136 0 0 150c0,12 7,24 24,24 17,0 24,-11 24,-24l0 -325zm265 325c0,12 7,24 23,24 18,0 24,-11 24,-24l0 -325c0,-12 -7,-24 -25,-24 -10,0 -17,4 -24,18l-138 247 -1 0c1,-9 2,-22 2,-36l0 -205c0,-12 -7,-24 -23,-24 -18,0 -24,11 -24,24l0 325c0,12 7,24 25,24 10,0 17,-4 24,-18l138 -247 1 0c-1,9 -2,22 -2,36l0 205zm153 -344c-19,0 -27,11 -27,24l0 320c0,12 8,24 24,24 17,0 24,-11 24,-24l0 -297 139 0c12,0 23,-7 23,-23 0,-16 -11,-23 -20,-23l-163 0zm343 261l29 91c4,12 16,20 30,15 13,-5 19,-17 15,-30l-105 -324c-4,-11 -10,-18 -24,-18l-3 0c-15,0 -21,6 -24,18l-105 324c-4,12 2,25 15,30 14,5 26,-3 30,-15l29 -91 112 0zm-64 -156c4,-11 5,-17 8,-30l1 0c3,12 4,18 8,30l35 113 -87 0 35 -113zm485 111c0,14 2,29 3,38l-1 0 -117 -241c-6,-12 -15,-18 -24,-18 -18,0 -25,11 -25,24l0 325c0,12 7,24 24,24 17,0 23,-11 23,-24l0 -197c0,-14 -2,-29 -3,-38l1 0 117 241c6,12 15,18 24,18 18,0 25,-11 25,-24l0 -325c0,-12 -7,-24 -24,-24 -17,0 -23,11 -23,24l0 197zm131 -111c-16,0 -20,-9 -20,-23l0 -26c0,-15 4,-23 20,-23l8 0c16,0 20,9 20,23l0 26c0,15 -4,23 -20,23l-8 0zm8 35c36,0 53,-24 53,-55l0 -31c0,-32 -17,-55 -53,-55l-9 0c-36,0 -53,23 -53,55l0 31c0,32 17,55 53,55l9 0zm36 61c11,0 19,-5 19,-19 0,-13 -8,-19 -19,-19l-80 0c-11,0 -19,5 -19,19 0,13 8,19 19,19l80 0zm259 75c0,-24 9,-42 26,-50l95 -43c47,-21 57,-57 57,-92l0 -2c0,-60 -34,-93 -101,-93l-32 0c-53,0 -87,23 -87,78 0,13 7,24 24,24 18,0 24,-11 24,-24 0,-22 15,-31 38,-31l32 0c37,0 52,14 52,46l0 2c0,24 -8,39 -29,49l-89 39c-41,18 -61,57 -61,102l0 83 208 0c13,0 23,-7 23,-23 0,-17 -10,-23 -23,-23l-160 0 0 -41zm477 46c-36,0 -50,-25 -50,-57l0 -166c0,-32 14,-57 50,-57l53 0c22,0 34,9 36,31 1,12 7,24 24,24 18,0 25,-11 25,-24 0,-54 -32,-77 -85,-77l-53 0c-66,0 -98,47 -98,104l0 166c0,57 33,104 98,104l53 0c53,0 85,-23 85,-77 0,-12 -7,-24 -25,-24 -17,0 -23,11 -24,24 -2,22 -14,31 -36,31l-53 0zm374 -275l0 297c0,12 7,24 24,24 17,0 24,-11 24,-24l0 -320c0,-12 -8,-24 -24,-24l-175 0c-17,0 -24,11 -24,24l0 320c0,12 8,24 24,24 17,0 24,-11 24,-24l0 -297 126 0zm313 297c0,12 7,24 23,24 18,0 24,-11 24,-24l0 -325c0,-12 -7,-24 -25,-24 -10,0 -17,4 -24,18l-138 247 -1 0c1,-9 2,-22 2,-36l0 -205c0,-12 -7,-24 -23,-24 -18,0 -24,11 -24,24l0 325c0,12 7,24 25,24 10,0 17,-4 24,-18l138 -247 1 0c-1,9 -2,22 -2,36l0 205zm220 -23c-36,0 -50,-25 -50,-57l0 -166c0,-32 14,-57 50,-57l53 0c22,0 34,9 36,31 1,12 7,24 24,24 18,0 25,-11 25,-24 0,-54 -32,-77 -85,-77l-53 0c-66,0 -98,47 -98,104l0 166c0,57 33,104 98,104l53 0c53,0 85,-23 85,-77 0,-12 -7,-24 -25,-24 -17,0 -23,11 -24,24 -2,22 -14,31 -36,31l-53 0zm430 8l-111 -158 106 -137c9,-12 9,-25 -1,-34 -12,-11 -27,-6 -36,5l-109 148 -31 0 0 -134c0,-12 -7,-24 -24,-24 -18,0 -25,11 -25,24l0 325c0,12 7,24 25,24 17,0 24,-11 24,-24l0 -145 32 0 111 158c7,10 20,16 34,7 15,-10 13,-24 6,-35zm220 -69l29 91c4,12 16,20 30,15 13,-5 19,-17 15,-30l-105 -324c-4,-11 -10,-18 -24,-18l-3 0c-15,0 -21,6 -24,18l-105 324c-4,12 2,25 15,30 14,5 26,-3 30,-15l29 -91 112 0zm-64 -156c4,-11 5,-17 8,-30l1 0c3,12 4,18 8,30l35 113 -87 0 35 -113zm510 240c0,12 7,24 23,24 18,0 24,-11 24,-24l0 -325c0,-12 -7,-24 -25,-24 -10,0 -17,4 -24,18l-138 247 -1 0c1,-9 2,-22 2,-36l0 -205c0,-12 -7,-24 -23,-24 -18,0 -24,11 -24,24l0 325c0,12 7,24 25,24 10,0 17,-4 24,-18l138 -247 1 0c-1,9 -2,22 -2,36l0 205zm278 -254c0,31 -22,60 -57,60l-19 0c-12,0 -23,8 -23,23 0,17 11,23 23,23l38 0c36,0 50,29 50,60l0 12c0,32 -11,53 -50,53l-39 0c-20,0 -39,-9 -41,-31 -1,-12 -7,-24 -24,-24 -18,0 -25,11 -25,24 0,49 37,77 90,77l43 0c63,0 95,-43 95,-100l0 -12c0,-43 -20,-80 -60,-90 35,-16 48,-44 48,-76 0,-57 -28,-95 -97,-95l-23 0c-53,0 -89,26 -89,77 0,12 7,24 25,24 17,0 23,-11 24,-24 1,-21 22,-31 44,-31l19 0c35,0 48,15 48,49zm248 53l-75 0 0 -97 132 0c12,0 23,-7 23,-23 0,-16 -11,-23 -23,-23l-156 0c-18,0 -25,11 -25,24l0 315c0,12 7,24 25,24l99 0c67,0 99,-44 99,-101l0 -23c0,-58 -33,-95 -99,-95zm51 124c0,31 -14,49 -50,49l-76 0 0 -129 75 0c36,0 51,18 51,49l0 31zm298 77c0,12 7,24 23,24 18,0 24,-11 24,-24l0 -325c0,-12 -7,-24 -25,-24 -10,0 -17,4 -24,18l-138 247 -1 0c1,-9 2,-22 2,-36l0 -205c0,-12 -7,-24 -23,-24 -18,0 -24,11 -24,24l0 325c0,12 7,24 25,24 10,0 17,-4 24,-18l138 -247 1 0c-1,9 -2,22 -2,36l0 205zm175 -169l0 -129 81 0c36,0 51,18 51,49l0 26c0,32 -15,54 -51,54l-81 0zm81 47c67,0 99,-44 99,-101l0 -26c0,-58 -33,-95 -99,-95l-106 0c-17,0 -24,11 -24,24l0 320c0,12 7,24 24,24 17,0 24,-11 24,-24l0 -122 81 0zm294 39l29 91c4,12 16,20 30,15 13,-5 19,-17 15,-30l-105 -324c-4,-11 -10,-18 -24,-18l-3 0c-15,0 -21,6 -24,18l-105 324c-4,12 2,25 15,30 14,5 26,-3 30,-15l29 -91 112 0zm-64 -156c4,-11 5,-17 8,-30l1 0c3,12 4,18 8,30l35 113 -87 0 35 -113zm247 264c17,0 24,-11 24,-24l0 -297 76 0c12,0 23,-7 23,-23 0,-16 -11,-23 -23,-23l-200 0c-12,0 -23,8 -23,23 0,17 11,23 23,23l76 0 0 297c0,12 7,24 24,24zm359 -5c12,0 23,-7 23,-23 0,-16 -11,-23 -23,-23l-142 0 0 -117 117 0c12,0 23,-7 23,-23 0,-16 -11,-23 -23,-23l-117 0 0 -106 142 0c12,0 23,-7 23,-23 0,-16 -11,-23 -23,-23l-167 0c-17,0 -24,11 -24,24l0 315c0,12 7,24 24,24l167 0zm159 -65c4,-30 31,-251 31,-251l91 0 0 297c0,12 7,24 25,24 17,0 24,-11 24,-24l0 -320c0,-12 -7,-24 -24,-24l-135 0c-15,0 -23,10 -25,24 -2,15 -30,241 -32,262 -2,12 -3,20 -6,25 -5,10 -14,12 -29,12 -12,0 -24,8 -24,24 0,18 11,23 24,23 45,0 64,-15 74,-40 4,-10 6,-19 7,-33zm439 65c12,0 23,-7 23,-23 0,-16 -11,-23 -23,-23l-142 0 0 -117 117 0c12,0 23,-7 23,-23 0,-16 -11,-23 -23,-23l-117 0 0 -106 142 0c12,0 23,-7 23,-23 0,-16 -11,-23 -23,-23l-167 0c-17,0 -24,11 -24,24l0 315c0,12 7,24 24,24l167 0zm199 -395c47,0 72,-34 72,-69 0,-11 -8,-18 -19,-18 -11,0 -18,7 -19,19 -2,19 -14,33 -34,33 -20,0 -32,-14 -34,-33 -1,-11 -8,-19 -19,-19 -11,0 -19,7 -19,18 0,36 25,69 72,69zm68 377c0,12 7,24 23,24 18,0 24,-11 24,-24l0 -325c0,-12 -7,-24 -25,-24 -10,0 -17,4 -24,18l-138 247 -1 0c1,-9 2,-22 2,-36l0 -205c0,-12 -7,-24 -23,-24 -18,0 -24,11 -24,24l0 325c0,12 7,24 25,24 10,0 17,-4 24,-18l138 -247 1 0c-1,9 -2,22 -2,36l0 205z"/>
   <path class="fil8 str7" d="M7020 6913l-111 -158 106 -137c9,-12 9,-25 -1,-34 -12,-11 -27,-6 -36,5l-109 148 -31 0 0 -134c0,-12 -7,-24 -24,-24 -18,0 -25,11 -25,24l0 325c0,12 7,24 25,24 17,0 24,-11 24,-24l0 -145 32 0 111 158c7,10 20,16 34,7 15,-10 13,-24 6,-35zm295 -311c0,-12 -8,-24 -24,-24 -17,0 -24,11 -24,24l0 129 -136 0 0 -129c0,-12 -7,-24 -24,-24 -17,0 -24,11 -24,24l0 325c0,12 8,24 24,24 17,0 24,-11 24,-24l0 -150 136 0 0 150c0,12 7,24 24,24 17,0 24,-11 24,-24l0 -325zm265 325c0,12 7,24 23,24 18,0 24,-11 24,-24l0 -325c0,-12 -7,-24 -25,-24 -10,0 -17,4 -24,18l-138 247 -1 0c1,-9 2,-22 2,-36l0 -205c0,-12 -7,-24 -23,-24 -18,0 -24,11 -24,24l0 325c0,12 7,24 25,24 10,0 17,-4 24,-18l138 -247 1 0c-1,9 -2,22 -2,36l0 205zm153 -344c-19,0 -27,11 -27,24l0 320c0,12 8,24 24,24 17,0 24,-11 24,-24l0 -297 139 0c12,0 23,-7 23,-23 0,-16 -11,-23 -20,-23l-163 0zm343 261l29 91c4,12 16,20 30,15 13,-5 19,-17 15,-30l-105 -324c-4,-11 -10,-18 -24,-18l-3 0c-15,0 -21,6 -24,18l-105 324c-4,12 2,25 15,30 14,5 26,-3 30,-15l29 -91 112 0zm-64 -156c4,-11 5,-17 8,-30l1 0c3,12 4,18 8,30l35 113 -87 0 35 -113zm485 111c0,14 2,29 3,38l-1 0 -117 -241c-6,-12 -15,-18 -24,-18 -18,0 -25,11 -25,24l0 325c0,12 7,24 24,24 17,0 23,-11 23,-24l0 -197c0,-14 -2,-29 -3,-38l1 0 117 241c6,12 15,18 24,18 18,0 25,-11 25,-24l0 -325c0,-12 -7,-24 -24,-24 -17,0 -23,11 -23,24l0 197zm131 -111c-16,0 -20,-9 -20,-23l0 -26c0,-15 4,-23 20,-23l8 0c16,0 20,9 20,23l0 26c0,15 -4,23 -20,23l-8 0zm8 35c36,0 53,-24 53,-55l0 -31c0,-32 -17,-55 -53,-55l-9 0c-36,0 -53,23 -53,55l0 31c0,32 17,55 53,55l9 0zm36 61c11,0 19,-5 19,-19 0,-13 -8,-19 -19,-19l-80 0c-11,0 -19,5 -19,19 0,13 8,19 19,19l80 0zm440 53c0,-43 -18,-76 -56,-88 24,-14 38,-37 38,-70l0 -7c0,-60 -34,-93 -101,-93l-27 0c-53,0 -87,23 -87,78 0,13 7,24 24,24 18,0 24,-11 24,-24 0,-22 15,-31 38,-31l27 0c37,0 52,14 52,46l0 7c0,33 -19,56 -56,56l-30 0c-13,0 -23,6 -23,23 0,17 10,23 23,23l53 0c37,0 51,24 51,57l0 17c0,33 -16,51 -52,51l-55 0c-23,0 -38,-9 -38,-31 0,-13 -7,-24 -24,-24 -18,0 -24,11 -24,24 0,55 33,78 87,78l55 0c67,0 101,-38 101,-98l0 -17zm295 68c-36,0 -50,-25 -50,-57l0 -166c0,-32 14,-57 50,-57l53 0c22,0 34,9 36,31 1,12 7,24 24,24 18,0 25,-11 25,-24 0,-54 -32,-77 -85,-77l-53 0c-66,0 -98,47 -98,104l0 166c0,57 33,104 98,104l53 0c53,0 85,-23 85,-77 0,-12 -7,-24 -25,-24 -17,0 -23,11 -24,24 -2,22 -14,31 -36,31l-53 0zm374 -275l0 297c0,12 7,24 24,24 17,0 24,-11 24,-24l0 -320c0,-12 -8,-24 -24,-24l-175 0c-17,0 -24,11 -24,24l0 320c0,12 8,24 24,24 17,0 24,-11 24,-24l0 -297 126 0zm313 297c0,12 7,24 23,24 18,0 24,-11 24,-24l0 -325c0,-12 -7,-24 -25,-24 -10,0 -17,4 -24,18l-138 247 -1 0c1,-9 2,-22 2,-36l0 -205c0,-12 -7,-24 -23,-24 -18,0 -24,11 -24,24l0 325c0,12 7,24 25,24 10,0 17,-4 24,-18l138 -247 1 0c-1,9 -2,22 -2,36l0 205zm220 -23c-36,0 -50,-25 -50,-57l0 -166c0,-32 14,-57 50,-57l53 0c22,0 34,9 36,31 1,12 7,24 24,24 18,0 25,-11 25,-24 0,-54 -32,-77 -85,-77l-53 0c-66,0 -98,47 -98,104l0 166c0,57 33,104 98,104l53 0c53,0 85,-23 85,-77 0,-12 -7,-24 -25,-24 -17,0 -23,11 -24,24 -2,22 -14,31 -36,31l-53 0zm430 8l-111 -158 106 -137c9,-12 9,-25 -1,-34 -12,-11 -27,-6 -36,5l-109 148 -31 0 0 -134c0,-12 -7,-24 -24,-24 -18,0 -25,11 -25,24l0 325c0,12 7,24 25,24 17,0 24,-11 24,-24l0 -145 32 0 111 158c7,10 20,16 34,7 15,-10 13,-24 6,-35zm220 -69l29 91c4,12 16,20 30,15 13,-5 19,-17 15,-30l-105 -324c-4,-11 -10,-18 -24,-18l-3 0c-15,0 -21,6 -24,18l-105 324c-4,12 2,25 15,30 14,5 26,-3 30,-15l29 -91 112 0zm-64 -156c4,-11 5,-17 8,-30l1 0c3,12 4,18 8,30l35 113 -87 0 35 -113zm510 240c0,12 7,24 23,24 18,0 24,-11 24,-24l0 -325c0,-12 -7,-24 -25,-24 -10,0 -17,4 -24,18l-138 247 -1 0c1,-9 2,-22 2,-36l0 -205c0,-12 -7,-24 -23,-24 -18,0 -24,11 -24,24l0 325c0,12 7,24 25,24 10,0 17,-4 24,-18l138 -247 1 0c-1,9 -2,22 -2,36l0 205zm278 -254c0,31 -22,60 -57,60l-19 0c-12,0 -23,8 -23,23 0,17 11,23 23,23l38 0c36,0 50,29 50,60l0 12c0,32 -11,53 -50,53l-39 0c-20,0 -39,-9 -41,-31 -1,-12 -7,-24 -24,-24 -18,0 -25,11 -25,24 0,49 37,77 90,77l43 0c63,0 95,-43 95,-100l0 -12c0,-43 -20,-80 -60,-90 35,-16 48,-44 48,-76 0,-57 -28,-95 -97,-95l-23 0c-53,0 -89,26 -89,77 0,12 7,24 25,24 17,0 23,-11 24,-24 1,-21 22,-31 44,-31l19 0c35,0 48,15 48,49zm248 53l-75 0 0 -97 132 0c12,0 23,-7 23,-23 0,-16 -11,-23 -23,-23l-156 0c-18,0 -25,11 -25,24l0 315c0,12 7,24 25,24l99 0c67,0 99,-44 99,-101l0 -23c0,-58 -33,-95 -99,-95zm51 124c0,31 -14,49 -50,49l-76 0 0 -129 75 0c36,0 51,18 51,49l0 31zm298 77c0,12 7,24 23,24 18,0 24,-11 24,-24l0 -325c0,-12 -7,-24 -25,-24 -10,0 -17,4 -24,18l-138 247 -1 0c1,-9 2,-22 2,-36l0 -205c0,-12 -7,-24 -23,-24 -18,0 -24,11 -24,24l0 325c0,12 7,24 25,24 10,0 17,-4 24,-18l138 -247 1 0c-1,9 -2,22 -2,36l0 205zm175 -169l0 -129 81 0c36,0 51,18 51,49l0 26c0,32 -15,54 -51,54l-81 0zm81 47c67,0 99,-44 99,-101l0 -26c0,-58 -33,-95 -99,-95l-106 0c-17,0 -24,11 -24,24l0 320c0,12 7,24 24,24 17,0 24,-11 24,-24l0 -122 81 0zm294 39l29 91c4,12 16,20 30,15 13,-5 19,-17 15,-30l-105 -324c-4,-11 -10,-18 -24,-18l-3 0c-15,0 -21,6 -24,18l-105 324c-4,12 2,25 15,30 14,5 26,-3 30,-15l29 -91 112 0zm-64 -156c4,-11 5,-17 8,-30l1 0c3,12 4,18 8,30l35 113 -87 0 35 -113zm247 264c17,0 24,-11 24,-24l0 -297 76 0c12,0 23,-7 23,-23 0,-16 -11,-23 -23,-23l-200 0c-12,0 -23,8 -23,23 0,17 11,23 23,23l76 0 0 297c0,12 7,24 24,24zm359 -5c12,0 23,-7 23,-23 0,-16 -11,-23 -23,-23l-142 0 0 -117 117 0c12,0 23,-7 23,-23 0,-16 -11,-23 -23,-23l-117 0 0 -106 142 0c12,0 23,-7 23,-23 0,-16 -11,-23 -23,-23l-167 0c-17,0 -24,11 -24,24l0 315c0,12 7,24 24,24l167 0zm159 -65c4,-30 31,-251 31,-251l91 0 0 297c0,12 7,24 25,24 17,0 24,-11 24,-24l0 -320c0,-12 -7,-24 -24,-24l-135 0c-15,0 -23,10 -25,24 -2,15 -30,241 -32,262 -2,12 -3,20 -6,25 -5,10 -14,12 -29,12 -12,0 -24,8 -24,24 0,18 11,23 24,23 45,0 64,-15 74,-40 4,-10 6,-19 7,-33zm439 65c12,0 23,-7 23,-23 0,-16 -11,-23 -23,-23l-142 0 0 -117 117 0c12,0 23,-7 23,-23 0,-16 -11,-23 -23,-23l-117 0 0 -106 142 0c12,0 23,-7 23,-23 0,-16 -11,-23 -23,-23l-167 0c-17,0 -24,11 -24,24l0 315c0,12 7,24 24,24l167 0zm199 -395c47,0 72,-34 72,-69 0,-11 -8,-18 -19,-18 -11,0 -18,7 -19,19 -2,19 -14,33 -34,33 -20,0 -32,-14 -34,-33 -1,-11 -8,-19 -19,-19 -11,0 -19,7 -19,18 0,36 25,69 72,69zm68 377c0,12 7,24 23,24 18,0 24,-11 24,-24l0 -325c0,-12 -7,-24 -25,-24 -10,0 -17,4 -24,18l-138 247 -1 0c1,-9 2,-22 2,-36l0 -205c0,-12 -7,-24 -23,-24 -18,0 -24,11 -24,24l0 325c0,12 7,24 25,24 10,0 17,-4 24,-18l138 -247 1 0c-1,9 -2,22 -2,36l0 205z"/>
   <path class="fil8 str7" d="M6678 5766l-111 -158 106 -137c9,-12 9,-25 -1,-34 -12,-11 -27,-6 -36,5l-109 148 -31 0 0 -134c0,-12 -7,-24 -24,-24 -18,0 -25,11 -25,24l0 325c0,12 7,24 25,24 17,0 24,-11 24,-24l0 -145 32 0 111 158c7,10 20,16 34,7 15,-10 13,-24 6,-35zm295 -311c0,-12 -8,-24 -24,-24 -17,0 -24,11 -24,24l0 129 -136 0 0 -129c0,-12 -7,-24 -24,-24 -17,0 -24,11 -24,24l0 325c0,12 8,24 24,24 17,0 24,-11 24,-24l0 -150 136 0 0 150c0,12 7,24 24,24 17,0 24,-11 24,-24l0 -325zm265 325c0,12 7,24 23,24 18,0 24,-11 24,-24l0 -325c0,-12 -7,-24 -25,-24 -10,0 -17,4 -24,18l-138 247 -1 0c1,-9 2,-22 2,-36l0 -205c0,-12 -7,-24 -23,-24 -18,0 -24,11 -24,24l0 325c0,12 7,24 25,24 10,0 17,-4 24,-18l138 -247 1 0c-1,9 -2,22 -2,36l0 205zm153 -344c-19,0 -27,11 -27,24l0 320c0,12 8,24 24,24 17,0 24,-11 24,-24l0 -297 139 0c12,0 23,-7 23,-23 0,-16 -11,-23 -20,-23l-163 0zm343 261l29 91c4,12 16,20 30,15 13,-5 19,-17 15,-30l-105 -324c-4,-11 -10,-18 -24,-18l-3 0c-15,0 -21,6 -24,18l-105 324c-4,12 2,25 15,30 14,5 26,-3 30,-15l29 -91 112 0zm-64 -156c4,-11 5,-17 8,-30l1 0c3,12 4,18 8,30l35 113 -87 0 35 -113zm485 111c0,14 2,29 3,38l-1 0 -117 -241c-6,-12 -15,-18 -24,-18 -18,0 -25,11 -25,24l0 325c0,12 7,24 24,24 17,0 23,-11 23,-24l0 -197c0,-14 -2,-29 -3,-38l1 0 117 241c6,12 15,18 24,18 18,0 25,-11 25,-24l0 -325c0,-12 -7,-24 -24,-24 -17,0 -23,11 -23,24l0 197zm131 -111c-16,0 -20,-9 -20,-23l0 -26c0,-15 4,-23 20,-23l8 0c16,0 20,9 20,23l0 26c0,15 -4,23 -20,23l-8 0zm8 35c36,0 53,-24 53,-55l0 -31c0,-32 -17,-55 -53,-55l-9 0c-36,0 -53,23 -53,55l0 31c0,32 17,55 53,55l9 0zm36 61c11,0 19,-5 19,-19 0,-13 -8,-19 -19,-19l-80 0c-11,0 -19,5 -19,19 0,13 8,19 19,19l80 0zm362 144c0,13 6,24 24,24 18,0 24,-11 24,-24l0 -84 26 0c13,0 23,-7 23,-23 0,-17 -10,-23 -23,-23l-26 0 0 -101c0,-13 -6,-24 -24,-24 -18,0 -24,11 -24,24l0 101 -112 0c26,-59 48,-132 59,-196 2,-12 1,-26 -16,-30 -16,-4 -27,4 -30,17 -16,83 -40,153 -67,215 -3,7 -3,12 -3,18 0,17 10,23 23,23l146 0 0 84zm374 -22c-36,0 -50,-25 -50,-57l0 -166c0,-32 14,-57 50,-57l53 0c22,0 34,9 36,31 1,12 7,24 24,24 18,0 25,-11 25,-24 0,-54 -32,-77 -85,-77l-53 0c-66,0 -98,47 -98,104l0 166c0,57 33,104 98,104l53 0c53,0 85,-23 85,-77 0,-12 -7,-24 -25,-24 -17,0 -23,11 -24,24 -2,22 -14,31 -36,31l-53 0zm374 -275l0 297c0,12 7,24 24,24 17,0 24,-11 24,-24l0 -320c0,-12 -8,-24 -24,-24l-175 0c-17,0 -24,11 -24,24l0 320c0,12 8,24 24,24 17,0 24,-11 24,-24l0 -297 126 0zm313 297c0,12 7,24 23,24 18,0 24,-11 24,-24l0 -325c0,-12 -7,-24 -25,-24 -10,0 -17,4 -24,18l-138 247 -1 0c1,-9 2,-22 2,-36l0 -205c0,-12 -7,-24 -23,-24 -18,0 -24,11 -24,24l0 325c0,12 7,24 25,24 10,0 17,-4 24,-18l138 -247 1 0c-1,9 -2,22 -2,36l0 205zm220 -23c-36,0 -50,-25 -50,-57l0 -166c0,-32 14,-57 50,-57l53 0c22,0 34,9 36,31 1,12 7,24 24,24 18,0 25,-11 25,-24 0,-54 -32,-77 -85,-77l-53 0c-66,0 -98,47 -98,104l0 166c0,57 33,104 98,104l53 0c53,0 85,-23 85,-77 0,-12 -7,-24 -25,-24 -17,0 -23,11 -24,24 -2,22 -14,31 -36,31l-53 0zm430 8l-111 -158 106 -137c9,-12 9,-25 -1,-34 -12,-11 -27,-6 -36,5l-109 148 -31 0 0 -134c0,-12 -7,-24 -24,-24 -18,0 -25,11 -25,24l0 325c0,12 7,24 25,24 17,0 24,-11 24,-24l0 -145 32 0 111 158c7,10 20,16 34,7 15,-10 13,-24 6,-35zm220 -69l29 91c4,12 16,20 30,15 13,-5 19,-17 15,-30l-105 -324c-4,-11 -10,-18 -24,-18l-3 0c-15,0 -21,6 -24,18l-105 324c-4,12 2,25 15,30 14,5 26,-3 30,-15l29 -91 112 0zm-64 -156c4,-11 5,-17 8,-30l1 0c3,12 4,18 8,30l35 113 -87 0 35 -113zm510 240c0,12 7,24 23,24 18,0 24,-11 24,-24l0 -325c0,-12 -7,-24 -25,-24 -10,0 -17,4 -24,18l-138 247 -1 0c1,-9 2,-22 2,-36l0 -205c0,-12 -7,-24 -23,-24 -18,0 -24,11 -24,24l0 325c0,12 7,24 25,24 10,0 17,-4 24,-18l138 -247 1 0c-1,9 -2,22 -2,36l0 205zm278 -254c0,31 -22,60 -57,60l-19 0c-12,0 -23,8 -23,23 0,17 11,23 23,23l38 0c36,0 50,29 50,60l0 12c0,32 -11,53 -50,53l-39 0c-20,0 -39,-9 -41,-31 -1,-12 -7,-24 -24,-24 -18,0 -25,11 -25,24 0,49 37,77 90,77l43 0c63,0 95,-43 95,-100l0 -12c0,-43 -20,-80 -60,-90 35,-16 48,-44 48,-76 0,-57 -28,-95 -97,-95l-23 0c-53,0 -89,26 -89,77 0,12 7,24 25,24 17,0 23,-11 24,-24 1,-21 22,-31 44,-31l19 0c35,0 48,15 48,49zm248 53l-75 0 0 -97 132 0c12,0 23,-7 23,-23 0,-16 -11,-23 -23,-23l-156 0c-18,0 -25,11 -25,24l0 315c0,12 7,24 25,24l99 0c67,0 99,-44 99,-101l0 -23c0,-58 -33,-95 -99,-95zm51 124c0,31 -14,49 -50,49l-76 0 0 -129 75 0c36,0 51,18 51,49l0 31zm298 77c0,12 7,24 23,24 18,0 24,-11 24,-24l0 -325c0,-12 -7,-24 -25,-24 -10,0 -17,4 -24,18l-138 247 -1 0c1,-9 2,-22 2,-36l0 -205c0,-12 -7,-24 -23,-24 -18,0 -24,11 -24,24l0 325c0,12 7,24 25,24 10,0 17,-4 24,-18l138 -247 1 0c-1,9 -2,22 -2,36l0 205zm175 -169l0 -129 81 0c36,0 51,18 51,49l0 26c0,32 -15,54 -51,54l-81 0zm81 47c67,0 99,-44 99,-101l0 -26c0,-58 -33,-95 -99,-95l-106 0c-17,0 -24,11 -24,24l0 320c0,12 7,24 24,24 17,0 24,-11 24,-24l0 -122 81 0zm294 39l29 91c4,12 16,20 30,15 13,-5 19,-17 15,-30l-105 -324c-4,-11 -10,-18 -24,-18l-3 0c-15,0 -21,6 -24,18l-105 324c-4,12 2,25 15,30 14,5 26,-3 30,-15l29 -91 112 0zm-64 -156c4,-11 5,-17 8,-30l1 0c3,12 4,18 8,30l35 113 -87 0 35 -113zm247 264c17,0 24,-11 24,-24l0 -297 76 0c12,0 23,-7 23,-23 0,-16 -11,-23 -23,-23l-200 0c-12,0 -23,8 -23,23 0,17 11,23 23,23l76 0 0 297c0,12 7,24 24,24zm359 -5c12,0 23,-7 23,-23 0,-16 -11,-23 -23,-23l-142 0 0 -117 117 0c12,0 23,-7 23,-23 0,-16 -11,-23 -23,-23l-117 0 0 -106 142 0c12,0 23,-7 23,-23 0,-16 -11,-23 -23,-23l-167 0c-17,0 -24,11 -24,24l0 315c0,12 7,24 24,24l167 0zm159 -65c4,-30 31,-251 31,-251l91 0 0 297c0,12 7,24 25,24 17,0 24,-11 24,-24l0 -320c0,-12 -7,-24 -24,-24l-135 0c-15,0 -23,10 -25,24 -2,15 -30,241 -32,262 -2,12 -3,20 -6,25 -5,10 -14,12 -29,12 -12,0 -24,8 -24,24 0,18 11,23 24,23 45,0 64,-15 74,-40 4,-10 6,-19 7,-33zm439 65c12,0 23,-7 23,-23 0,-16 -11,-23 -23,-23l-142 0 0 -117 117 0c12,0 23,-7 23,-23 0,-16 -11,-23 -23,-23l-117 0 0 -106 142 0c12,0 23,-7 23,-23 0,-16 -11,-23 -23,-23l-167 0c-17,0 -24,11 -24,24l0 315c0,12 7,24 24,24l167 0zm199 -395c47,0 72,-34 72,-69 0,-11 -8,-18 -19,-18 -11,0 -18,7 -19,19 -2,19 -14,33 -34,33 -20,0 -32,-14 -34,-33 -1,-11 -8,-19 -19,-19 -11,0 -19,7 -19,18 0,36 25,69 72,69zm68 377c0,12 7,24 23,24 18,0 24,-11 24,-24l0 -325c0,-12 -7,-24 -25,-24 -10,0 -17,4 -24,18l-138 247 -1 0c1,-9 2,-22 2,-36l0 -205c0,-12 -7,-24 -23,-24 -18,0 -24,11 -24,24l0 325c0,12 7,24 25,24 10,0 17,-4 24,-18l138 -247 1 0c-1,9 -2,22 -2,36l0 205z"/>
   <path class="fil9 str0" d="M4382 10699c0,-2568 0,-4289 0,-6857l10286 0"/>
   <path class="fil8 str7" d="M5613 4633c0,12 7,24 23,24 18,0 24,-11 24,-24l0 -325c0,-12 -7,-24 -25,-24 -10,0 -17,4 -24,18l-138 247 -1 0c1,-9 2,-22 2,-36l0 -205c0,-12 -7,-24 -23,-24 -18,0 -24,11 -24,24l0 325c0,12 7,24 25,24 10,0 17,-4 24,-18l138 -247 1 0c-1,9 -2,22 -2,36l0 205zm216 24c17,0 24,-11 24,-24l0 -297 76 0c12,0 23,-7 23,-23 0,-16 -11,-23 -23,-23l-200 0c-12,0 -23,8 -23,23 0,17 11,23 23,23l76 0 0 297c0,12 7,24 24,24zm199 -269c0,-32 14,-57 50,-57l41 0c36,0 50,25 50,57l0 166c0,32 -14,57 -50,57l-41 0c-36,0 -50,-25 -50,-57l0 -166zm190 0c0,-57 -33,-104 -98,-104l-41 0c-66,0 -98,47 -98,104l0 166c0,57 33,104 98,104l41 0c66,0 98,-47 98,-104l0 -166zm101 -98c-19,0 -27,11 -27,24l0 320c0,12 8,24 24,24 17,0 24,-11 24,-24l0 -297 139 0c12,0 23,-7 23,-23 0,-16 -11,-23 -20,-23l-163 0zm273 98c0,-32 14,-57 50,-57l41 0c36,0 50,25 50,57l0 166c0,32 -14,57 -50,57l-41 0c-36,0 -50,-25 -50,-57l0 -166zm190 0c0,-57 -33,-104 -98,-104l-41 0c-66,0 -98,47 -98,104l0 166c0,57 33,104 98,104l41 0c66,0 98,-47 98,-104l0 -166zm122 103l85 0c36,0 50,23 50,55l0 11c0,31 -14,49 -50,49l-85 0 0 -115zm0 -46l0 -109 63 0c35,0 50,12 50,44l0 12c0,31 -15,53 -50,53l-63 0zm183 101c0,-43 -19,-73 -58,-85 23,-14 35,-37 35,-68l0 -12c0,-58 -33,-90 -98,-90l-87 0c-18,0 -25,11 -25,24l0 315c0,12 7,24 25,24l109 0c66,0 98,-37 98,-95l0 -11zm368 88l0 -325c0,-12 -7,-24 -24,-24 -17,0 -24,11 -24,24l0 325c0,12 7,24 24,24 17,0 24,-11 24,-24zm-192 -204l-64 0 0 -122c0,-12 -7,-24 -24,-24 -17,0 -24,11 -24,24l0 320c0,12 7,24 25,24l88 0c67,0 99,-44 99,-101l0 -23c0,-58 -31,-98 -99,-98zm51 127c0,31 -14,49 -50,49l-65 0 0 -129 64 0c36,0 51,18 51,49l0 31zm338 -300c47,0 72,-34 72,-69 0,-11 -8,-18 -19,-18 -11,0 -18,7 -19,19 -2,19 -14,33 -34,33 -20,0 -32,-14 -34,-33 -1,-11 -8,-19 -19,-19 -11,0 -19,7 -19,18 0,36 25,69 72,69zm68 377c0,12 7,24 23,24 18,0 24,-11 24,-24l0 -325c0,-12 -7,-24 -25,-24 -10,0 -17,4 -24,18l-138 247 -1 0c1,-9 2,-22 2,-36l0 -205c0,-12 -7,-24 -23,-24 -18,0 -24,11 -24,24l0 325c0,12 7,24 25,24 10,0 17,-4 24,-18l138 -247 1 0c-1,9 -2,22 -2,36l0 205zm338 -47c4,-30 31,-251 31,-251l91 0 0 297c0,12 7,24 25,24 17,0 24,-11 24,-24l0 -320c0,-12 -7,-24 -24,-24l-135 0c-15,0 -23,10 -25,24 -2,15 -30,241 -32,262 -2,12 -3,20 -6,25 -5,10 -14,12 -29,12 -12,0 -24,8 -24,24 0,18 11,23 24,23 45,0 64,-15 74,-40 4,-10 6,-19 7,-33zm435 47c0,12 7,24 23,24 18,0 24,-11 24,-24l0 -325c0,-12 -7,-24 -25,-24 -10,0 -17,4 -24,18l-138 247 -1 0c1,-9 2,-22 2,-36l0 -205c0,-12 -7,-24 -23,-24 -18,0 -24,11 -24,24l0 325c0,12 7,24 25,24 10,0 17,-4 24,-18l138 -247 1 0c-1,9 -2,22 -2,36l0 205zm220 -23c-36,0 -50,-25 -50,-57l0 -166c0,-32 14,-57 50,-57l53 0c22,0 34,9 36,31 1,12 7,24 24,24 18,0 25,-11 25,-24 0,-54 -32,-77 -85,-77l-53 0c-66,0 -98,47 -98,104l0 166c0,57 33,104 98,104l53 0c53,0 85,-23 85,-77 0,-12 -7,-24 -25,-24 -17,0 -23,11 -24,24 -2,22 -14,31 -36,31l-53 0zm289 47c17,0 24,-11 24,-24l0 -297 76 0c12,0 23,-7 23,-23 0,-16 -11,-23 -23,-23l-200 0c-12,0 -23,8 -23,23 0,17 11,23 23,23l76 0 0 297c0,12 7,24 24,24zm401 -47c-36,0 -50,-25 -50,-57l0 -166c0,-32 14,-57 50,-57l53 0c22,0 34,9 36,31 1,12 7,24 24,24 18,0 25,-11 25,-24 0,-54 -32,-77 -85,-77l-53 0c-66,0 -98,47 -98,104l0 166c0,57 33,104 98,104l53 0c53,0 85,-23 85,-77 0,-12 -7,-24 -25,-24 -17,0 -23,11 -24,24 -2,22 -14,31 -36,31l-53 0zm374 -275l0 297c0,12 7,24 24,24 17,0 24,-11 24,-24l0 -320c0,-12 -8,-24 -24,-24l-175 0c-17,0 -24,11 -24,24l0 320c0,12 8,24 24,24 17,0 24,-11 24,-24l0 -297 126 0zm313 297c0,12 7,24 23,24 18,0 24,-11 24,-24l0 -325c0,-12 -7,-24 -25,-24 -10,0 -17,4 -24,18l-138 247 -1 0c1,-9 2,-22 2,-36l0 -205c0,-12 -7,-24 -23,-24 -18,0 -24,11 -24,24l0 325c0,12 7,24 25,24 10,0 17,-4 24,-18l138 -247 1 0c-1,9 -2,22 -2,36l0 205zm220 -23c-36,0 -50,-25 -50,-57l0 -166c0,-32 14,-57 50,-57l53 0c22,0 34,9 36,31 1,12 7,24 24,24 18,0 25,-11 25,-24 0,-54 -32,-77 -85,-77l-53 0c-66,0 -98,47 -98,104l0 166c0,57 33,104 98,104l53 0c53,0 85,-23 85,-77 0,-12 -7,-24 -25,-24 -17,0 -23,11 -24,24 -2,22 -14,31 -36,31l-53 0zm430 8l-111 -158 106 -137c9,-12 9,-25 -1,-34 -12,-11 -27,-6 -36,5l-109 148 -31 0 0 -134c0,-12 -7,-24 -24,-24 -18,0 -25,11 -25,24l0 325c0,12 7,24 25,24 17,0 24,-11 24,-24l0 -145 32 0 111 158c7,10 20,16 34,7 15,-10 13,-24 6,-35zm220 -69l29 91c4,12 16,20 30,15 13,-5 19,-17 15,-30l-105 -324c-4,-11 -10,-18 -24,-18l-3 0c-15,0 -21,6 -24,18l-105 324c-4,12 2,25 15,30 14,5 26,-3 30,-15l29 -91 112 0zm-64 -156c4,-11 5,-17 8,-30l1 0c3,12 4,18 8,30l35 113 -87 0 35 -113zm510 240c0,12 7,24 23,24 18,0 24,-11 24,-24l0 -325c0,-12 -7,-24 -25,-24 -10,0 -17,4 -24,18l-138 247 -1 0c1,-9 2,-22 2,-36l0 -205c0,-12 -7,-24 -23,-24 -18,0 -24,11 -24,24l0 325c0,12 7,24 25,24 10,0 17,-4 24,-18l138 -247 1 0c-1,9 -2,22 -2,36l0 205zm278 -254c0,31 -22,60 -57,60l-19 0c-12,0 -23,8 -23,23 0,17 11,23 23,23l38 0c36,0 50,29 50,60l0 12c0,32 -11,53 -50,53l-39 0c-20,0 -39,-9 -41,-31 -1,-12 -7,-24 -24,-24 -18,0 -25,11 -25,24 0,49 37,77 90,77l43 0c63,0 95,-43 95,-100l0 -12c0,-43 -20,-80 -60,-90 35,-16 48,-44 48,-76 0,-57 -28,-95 -97,-95l-23 0c-53,0 -89,26 -89,77 0,12 7,24 25,24 17,0 23,-11 24,-24 1,-21 22,-31 44,-31l19 0c35,0 48,15 48,49zm248 53l-75 0 0 -97 132 0c12,0 23,-7 23,-23 0,-16 -11,-23 -23,-23l-156 0c-18,0 -25,11 -25,24l0 315c0,12 7,24 25,24l99 0c67,0 99,-44 99,-101l0 -23c0,-58 -33,-95 -99,-95zm51 124c0,31 -14,49 -50,49l-76 0 0 -129 75 0c36,0 51,18 51,49l0 31zm298 77c0,12 7,24 23,24 18,0 24,-11 24,-24l0 -325c0,-12 -7,-24 -25,-24 -10,0 -17,4 -24,18l-138 247 -1 0c1,-9 2,-22 2,-36l0 -205c0,-12 -7,-24 -23,-24 -18,0 -24,11 -24,24l0 325c0,12 7,24 25,24 10,0 17,-4 24,-18l138 -247 1 0c-1,9 -2,22 -2,36l0 205zm175 -169l0 -129 81 0c36,0 51,18 51,49l0 26c0,32 -15,54 -51,54l-81 0zm81 47c67,0 99,-44 99,-101l0 -26c0,-58 -33,-95 -99,-95l-106 0c-17,0 -24,11 -24,24l0 320c0,12 7,24 24,24 17,0 24,-11 24,-24l0 -122 81 0zm294 39l29 91c4,12 16,20 30,15 13,-5 19,-17 15,-30l-105 -324c-4,-11 -10,-18 -24,-18l-3 0c-15,0 -21,6 -24,18l-105 324c-4,12 2,25 15,30 14,5 26,-3 30,-15l29 -91 112 0zm-64 -156c4,-11 5,-17 8,-30l1 0c3,12 4,18 8,30l35 113 -87 0 35 -113zm247 264c17,0 24,-11 24,-24l0 -297 76 0c12,0 23,-7 23,-23 0,-16 -11,-23 -23,-23l-200 0c-12,0 -23,8 -23,23 0,17 11,23 23,23l76 0 0 297c0,12 7,24 24,24zm359 -5c12,0 23,-7 23,-23 0,-16 -11,-23 -23,-23l-142 0 0 -117 117 0c12,0 23,-7 23,-23 0,-16 -11,-23 -23,-23l-117 0 0 -106 142 0c12,0 23,-7 23,-23 0,-16 -11,-23 -23,-23l-167 0c-17,0 -24,11 -24,24l0 315c0,12 7,24 24,24l167 0zm159 -65c4,-30 31,-251 31,-251l91 0 0 297c0,12 7,24 25,24 17,0 24,-11 24,-24l0 -320c0,-12 -7,-24 -24,-24l-135 0c-15,0 -23,10 -25,24 -2,15 -30,241 -32,262 -2,12 -3,20 -6,25 -5,10 -14,12 -29,12 -12,0 -24,8 -24,24 0,18 11,23 24,23 45,0 64,-15 74,-40 4,-10 6,-19 7,-33zm439 65c12,0 23,-7 23,-23 0,-16 -11,-23 -23,-23l-142 0 0 -117 117 0c12,0 23,-7 23,-23 0,-16 -11,-23 -23,-23l-117 0 0 -106 142 0c12,0 23,-7 23,-23 0,-16 -11,-23 -23,-23l-167 0c-17,0 -24,11 -24,24l0 315c0,12 7,24 24,24l167 0zm199 -395c47,0 72,-34 72,-69 0,-11 -8,-18 -19,-18 -11,0 -18,7 -19,19 -2,19 -14,33 -34,33 -20,0 -32,-14 -34,-33 -1,-11 -8,-19 -19,-19 -11,0 -19,7 -19,18 0,36 25,69 72,69zm68 377c0,12 7,24 23,24 18,0 24,-11 24,-24l0 -325c0,-12 -7,-24 -25,-24 -10,0 -17,4 -24,18l-138 247 -1 0c1,-9 2,-22 2,-36l0 -205c0,-12 -7,-24 -23,-24 -18,0 -24,11 -24,24l0 325c0,12 7,24 25,24 10,0 17,-4 24,-18l138 -247 1 0c-1,9 -2,22 -2,36l0 205z"/>
   <path class="fil9 str0" d="M4724 11846c0,-2568 0,-4289 0,-6857l10286 0"/>
   <path class="fil9 str0" d="M5066 12994c0,-2568 0,-4289 0,-6857l10286 0"/>
   <path class="fil9 str0" d="M5408 14141c0,-2568 0,-4289 0,-6857l10286 0"/>
   <path class="fil9 str0" d="M5750 15289c0,-2568 0,-4289 0,-6857l10286 0"/>
   <polygon class="fil10" points="5968,11039 4257,5302 4257,8460 5968,14196 "/>
   <g>
    <path class="fil7" d="M4417 5731l-70 -228 6 -2 6 -1 6 -1 6 -1 6 0 6 0 6 0 6 0 6 1 6 1 6 1 5 2 5 2 5 2 5 2 5 3 5 3 5 3 5 3 4 3 4 4 4 4 4 4 4 4 4 5 3 5 3 5 3 5 3 5 2 5 2 6 2 6 2 6 1 6 1 6 1 6 0 6 0 6 0 6 0 6 -1 6 -1 6 -1 6 -1 6 -2 5 -2 5 -2 5 -2 5 -3 5 -3 5 -3 5 -3 5 -4 4 -4 4 -4 4 -4 4 -4 4 -5 3 -5 3 -5 3 -5 3 -5 3 -6 2 -6 2zm2356 5447l40 235 -294 34 -281 -2 -268 -37 -255 -69 -240 -99 -226 -127 -211 -152 -196 -174 -181 -194 -167 -211 -152 -227 -138 -240 -124 -251 -111 -260 -97 -267 -83 -272 -70 -275 -56 -276 -43 -274 -30 -271 -16 -266 -3 -258 11 -249 24 -238 38 -225 52 -210 67 -193 82 -174 99 -153 116 -130 135 -102 152 -69 70 228 -104 48 -96 73 -88 99 -80 124 -70 148 -59 171 -47 190 -35 208 -23 223 -10 235 3 246 15 254 28 260 41 263 54 264 67 264 80 260 93 255 105 248 118 238 130 226 143 213 155 197 167 179 179 159 190 137 202 113 214 88 226 62 239 33 252 2 267 -31zm40 235l-40 -235 6 -1 6 -1 6 0 6 0 6 0 6 1 6 1 6 1 6 1 5 2 5 2 5 2 5 2 5 3 5 3 5 3 5 3 4 4 4 4 4 4 4 4 4 4 3 5 3 5 3 5 3 5 3 5 2 5 2 6 2 6 1 6 1 6 1 6 1 6 0 6 0 6 0 6 -1 6 -1 6 -1 6 -1 6 -2 6 -2 5 -2 5 -2 5 -3 5 -3 5 -3 5 -3 5 -4 4 -4 4 -4 4 -4 4 -4 4 -5 3 -5 3 -5 3 -5 3 -5 3 -5 2 -6 2 -6 2 -6 1 -6 1z"/>
   </g>
   <g>
    <path class="fil7" d="M6904 15365l-224 67 -2 -6 -1 -6 -1 -6 -1 -6 0 -6 0 -6 0 -6 1 -6 1 -6 1 -6 1 -6 2 -6 2 -5 2 -5 2 -5 3 -5 3 -5 3 -5 3 -5 3 -5 4 -4 4 -4 4 -4 4 -4 5 -4 5 -3 5 -3 5 -3 5 -3 5 -2 6 -2 6 -2 6 -2 6 -1 6 -1 6 -1 6 0 6 0 6 0 6 1 6 1 6 1 5 1 5 2 5 2 5 2 5 2 5 3 5 3 5 3 5 3 4 4 4 4 4 4 4 4 4 4 4 5 3 5 3 5 3 5 3 5 2 6 2 6 2 6zm55 258l-233 22 0 -1 -1 -8 -1 -9 -1 -9 -1 -9 -1 -9 -2 -9 -2 -9 -2 -10 -2 -10 -2 -10 -2 -10 -2 -10 -2 -10 -2 -10 -2 -10 -3 -10 -3 -9 -3 -9 -3 -9 -3 -9 -3 -9 -2 -9 -2 -8 224 -67 3 9 3 9 3 10 3 10 3 10 3 10 3 11 3 11 3 11 3 11 3 11 3 11 3 12 3 12 2 12 2 12 2 12 2 12 2 12 2 12 2 12 1 12 1 13 0 1zm-233 22l233 -22 0 6 0 6 0 6 -1 6 -1 6 -1 6 -1 6 -2 6 -2 5 -2 5 -2 5 -3 5 -3 5 -3 5 -3 5 -3 4 -4 4 -4 4 -4 4 -4 4 -4 4 -5 3 -5 3 -5 3 -5 3 -5 2 -5 2 -6 2 -6 2 -6 1 -6 1 -6 1 -6 0 -6 0 -6 0 -6 -1 -6 -1 -6 -1 -6 -1 -5 -2 -5 -2 -5 -2 -5 -2 -5 -3 -5 -3 -5 -3 -5 -3 -4 -4 -4 -4 -4 -4 -4 -4 -4 -4 -3 -5 -3 -5 -3 -5 -3 -5 -3 -5 -2 -5 -2 -6 -2 -6 -2 -6 -1 -6 -1 -6 -1 -6zm-176 394l-7 -239 6 0 6 0 6 1 6 1 6 1 6 1 5 2 5 2 5 2 5 2 5 3 5 3 5 3 5 3 4 4 4 4 4 4 4 4 4 4 3 5 3 5 3 5 3 5 2 5 2 5 2 5 2 6 1 6 1 6 1 6 1 6 0 6 0 6 0 6 -1 6 -1 6 -1 6 -1 6 -2 6 -2 5 -2 5 -2 5 -3 5 -3 5 -3 5 -3 5 -4 4 -4 4 -4 4 -4 4 -4 4 -4 3 -5 3 -5 3 -5 3 -5 3 -5 2 -5 2 -6 2 -6 2 -6 1 -6 1 -6 1 -6 0zm-266 -36l58 -231 17 5 20 5 20 4 19 4 19 3 18 3 17 2 17 1 16 1 16 1 15 0 8 0 7 239 -14 0 -21 0 -22 -1 -22 -1 -23 -2 -23 -3 -24 -3 -24 -4 -25 -5 -25 -6 -26 -6 -17 -5zm58 -231l-58 231 -6 -2 -6 -2 -5 -2 -5 -2 -5 -3 -5 -3 -5 -3 -5 -3 -4 -4 -4 -4 -4 -4 -4 -4 -4 -4 -3 -5 -3 -5 -3 -5 -3 -5 -3 -5 -2 -5 -2 -5 -2 -5 -2 -6 -1 -6 -1 -6 -1 -6 0 -6 0 -6 0 -6 0 -6 1 -6 1 -6 1 -6 2 -6 2 -6 2 -6 2 -5 3 -5 3 -5 3 -5 3 -5 4 -5 4 -4 4 -4 4 -4 4 -4 4 -3 5 -3 5 -3 5 -3 5 -3 5 -2 5 -2 5 -2 5 -2 6 -1 6 -1 6 -1 6 0 6 0 6 0 6 0 6 1 6 1 6 1zm-518 -3l136 -194 5 4 5 4 4 4 4 4 4 4 4 5 3 5 3 5 3 5 3 5 2 5 2 5 2 5 2 6 1 6 1 6 1 6 1 6 0 6 0 6 0 6 -1 6 -1 6 -1 6 -1 6 -2 6 -2 6 -2 5 -3 5 -3 5 -3 5 -3 5 -4 5 -4 5 -4 4 -4 4 -4 4 -5 4 -5 3 -5 3 -5 3 -5 3 -5 2 -5 2 -5 2 -5 2 -5 1 -6 1 -6 1 -6 1 -6 0 -6 0 -6 0 -6 -1 -6 -1 -6 -1 -6 -1 -5 -2 -5 -2 -5 -2 -5 -3 -5 -3 -5 -3 -5 -3zm-194 -162l157 -177 4 4 15 14 15 14 15 13 15 13 15 13 15 12 14 12 14 12 14 11 14 11 14 11 8 6 -136 194 -10 -7 -16 -12 -16 -12 -16 -13 -16 -13 -16 -13 -16 -14 -16 -14 -16 -14 -17 -15 -17 -15 -17 -15 -4 -4zm157 -177l-157 177 -4 -4 -4 -4 -4 -5 -4 -5 -3 -5 -3 -5 -3 -5 -3 -5 -2 -5 -2 -5 -2 -5 -1 -6 -1 -6 -1 -6 -1 -6 0 -6 0 -6 0 -6 0 -6 1 -6 1 -6 1 -6 1 -6 2 -6 2 -5 2 -5 3 -5 3 -5 3 -5 3 -5 4 -5 4 -5 4 -4 4 -4 4 -4 5 -4 5 -3 5 -3 5 -3 5 -3 5 -2 5 -2 5 -2 5 -1 5 -1 6 -1 6 -1 6 0 6 0 6 0 6 0 6 1 6 1 6 1 5 2 5 2 5 2 5 2 5 3 5 3 5 3 5 3 5 4 5 4zm-490 -190l180 -153 4 5 3 5 3 5 3 5 3 5 2 5 2 5 2 6 2 6 1 6 1 6 1 6 0 6 0 6 0 6 0 6 -1 6 -1 6 -1 6 -1 6 -2 5 -2 5 -2 5 -2 5 -3 5 -3 5 -3 5 -4 5 -4 5 -4 4 -4 4 -5 4 -5 4 -5 4 -5 3 -5 3 -5 3 -5 2 -5 2 -5 2 -5 2 -6 1 -6 1 -6 1 -6 0 -6 0 -6 0 -6 0 -6 -1 -6 -1 -6 -1 -5 -1 -5 -2 -5 -2 -5 -2 -5 -3 -5 -3 -5 -3 -5 -3 -5 -4 -4 -4 -4 -4 -4 -4 -4 -5zm-147 -200l190 -139 21 31 35 50 37 50 39 51 4 5 -180 153 -6 -8 -42 -54 -40 -54 -38 -53 -21 -31zm190 -139l-190 139 -3 -5 -3 -5 -3 -5 -3 -5 -2 -5 -2 -6 -2 -6 -1 -6 -1 -6 -1 -6 -1 -6 0 -6 0 -6 0 -6 1 -6 1 -6 1 -6 1 -6 2 -6 2 -5 2 -5 2 -5 3 -5 3 -5 3 -5 3 -5 4 -5 4 -4 4 -4 4 -4 5 -4 5 -4 5 -3 5 -3 5 -3 5 -3 5 -2 5 -2 5 -2 6 -1 6 -1 6 -1 6 -1 6 0 6 0 6 0 6 1 6 1 6 1 5 1 5 2 5 2 5 2 5 2 5 3 5 3 5 3 5 3 5 4 4 4 4 4 4 4 4 5 4 5zm-439 -296l211 -103 2 6 2 6 2 6 2 6 1 6 1 6 1 6 0 6 0 6 0 6 0 6 -1 6 -1 6 -1 6 -1 6 -2 5 -2 5 -2 5 -2 5 -3 5 -3 5 -3 5 -3 5 -4 4 -4 4 -4 4 -4 4 -5 4 -5 3 -5 3 -5 3 -5 3 -5 3 -6 2 -6 2 -6 2 -6 1 -6 1 -6 1 -6 0 -6 0 -6 0 -6 0 -6 -1 -6 -1 -5 -1 -5 -2 -5 -2 -5 -2 -5 -2 -5 -3 -5 -3 -5 -3 -5 -3 -5 -4 -4 -4 -4 -4 -4 -4 -4 -4 -4 -5 -3 -5 -3 -5 -3 -5 -3 -5zm-93 -235l220 -81 11 31 14 38 15 39 16 40 18 41 11 24 -211 103 -13 -28 -20 -45 -18 -44 -17 -43 -15 -43 -11 -31zm220 -81l-220 81 -2 -6 -2 -6 -1 -6 -1 -6 -1 -6 0 -6 0 -6 0 -6 0 -6 1 -6 1 -6 1 -6 2 -6 2 -5 2 -5 2 -5 3 -5 3 -5 3 -5 3 -5 3 -5 4 -4 4 -4 4 -4 4 -4 4 -4 5 -3 5 -3 5 -3 5 -3 5 -2 6 -2 6 -2 6 -2 6 -1 6 -1 6 -1 6 0 6 0 6 0 6 0 6 1 6 1 5 1 5 2 5 2 5 2 5 2 5 3 5 3 5 3 5 3 4 4 4 4 4 4 4 4 4 4 4 5 3 5 3 5 3 5 3 5 2 6 2 6zm-323 -414l232 -34 1 6 0 6 0 6 0 6 0 6 -1 6 -1 6 -1 6 -2 6 -2 5 -2 5 -2 5 -3 5 -3 5 -3 5 -3 5 -3 4 -4 4 -4 4 -4 4 -4 4 -4 4 -5 3 -5 3 -5 3 -5 3 -5 2 -5 2 -6 2 -6 2 -6 1 -6 1 -6 1 -6 0 -6 0 -6 0 -6 -1 -6 -1 -6 -1 -6 -1 -5 -2 -5 -2 -5 -2 -5 -2 -5 -3 -5 -3 -5 -3 -5 -3 -4 -4 -4 -4 -4 -4 -4 -4 -4 -4 -3 -5 -3 -5 -3 -5 -3 -5 -3 -5 -2 -5 -2 -6 -2 -6 -2 -6 -1 -6 -1 -6zm-34 -238l231 -35 4 27 14 94 11 79 6 39 -232 34 -5 -38 -11 -79 -14 -94 -4 -27zm231 -35l-231 35 -1 -6 0 -6 0 -6 0 -6 0 -6 1 -6 1 -6 1 -6 2 -6 2 -5 2 -5 2 -5 3 -5 3 -5 3 -5 3 -5 3 -5 4 -4 4 -4 4 -4 4 -4 4 -4 5 -3 5 -3 5 -3 5 -3 5 -2 5 -2 6 -2 6 -2 6 -1 6 -1 6 -1 6 0 6 0 6 0 6 0 6 1 6 1 6 1 5 2 5 2 5 2 5 2 5 3 5 3 5 3 5 3 4 4 4 4 4 4 4 4 4 4 4 5 3 5 3 5 3 5 3 5 2 5 2 6 2 6 2 6 1 6 1 6zm-302 -442l231 -36 1 6 0 6 0 6 0 6 0 6 -1 6 -1 6 -1 6 -2 6 -2 5 -2 5 -2 5 -3 5 -3 5 -3 5 -3 5 -3 5 -4 4 -4 4 -4 4 -4 4 -4 4 -5 3 -5 3 -5 3 -5 3 -5 2 -5 2 -6 2 -6 2 -6 1 -6 1 -6 1 -6 0 -6 0 -6 0 -6 0 -6 -1 -6 -1 -6 -1 -5 -2 -5 -2 -5 -2 -5 -2 -5 -3 -5 -3 -5 -3 -5 -3 -4 -4 -4 -4 -4 -4 -4 -4 -4 -4 -4 -5 -3 -5 -3 -5 -3 -5 -3 -5 -2 -5 -2 -6 -2 -6 -2 -6 -1 -6 -1 -6zm-35 -239l231 -36 14 96 21 143 -231 36 -21 -143 -14 -96zm231 -36l-231 36 -1 -6 0 -6 0 -6 0 -6 0 -6 1 -6 1 -6 1 -6 2 -6 2 -5 2 -5 2 -5 3 -5 3 -5 3 -5 3 -5 3 -5 4 -4 4 -4 4 -4 4 -4 4 -4 5 -3 5 -3 5 -3 5 -3 5 -2 5 -2 6 -2 6 -2 6 -1 6 -1 6 -1 6 0 6 0 6 0 6 0 6 1 6 1 6 1 5 2 5 2 5 2 5 2 5 3 5 3 5 3 5 3 4 4 4 4 4 4 4 4 4 4 4 5 3 5 3 5 3 5 3 5 2 5 2 6 2 6 2 6 1 6 1 6zm-302 -442l231 -36 1 6 0 6 0 6 0 6 0 6 -1 6 -1 6 -1 6 -2 6 -2 5 -2 5 -2 5 -3 5 -3 5 -3 5 -3 5 -3 5 -4 4 -4 4 -4 4 -4 4 -4 4 -5 3 -5 3 -5 3 -5 3 -5 2 -5 2 -6 2 -6 2 -6 1 -6 1 -6 1 -6 0 -6 0 -6 0 -6 0 -6 -1 -6 -1 -6 -1 -5 -2 -5 -2 -5 -2 -5 -2 -5 -3 -5 -3 -5 -3 -5 -3 -4 -4 -4 -4 -4 -4 -4 -4 -4 -4 -4 -5 -3 -5 -3 -5 -3 -5 -3 -5 -2 -5 -2 -6 -2 -6 -2 -6 -1 -6 -1 -6zm-36 -239l231 -36 24 158 12 80 -231 36 -12 -80 -24 -158zm231 -36l-231 36 -1 -6 0 -6 0 -6 0 -6 0 -6 1 -6 1 -6 1 -6 2 -6 2 -5 2 -5 2 -5 3 -5 3 -5 3 -5 3 -5 3 -5 4 -4 4 -4 4 -4 4 -4 4 -4 5 -3 5 -3 5 -3 5 -3 5 -2 5 -2 6 -2 6 -2 6 -1 6 -1 6 -1 6 0 6 0 6 0 6 0 6 1 6 1 6 1 5 2 5 2 5 2 5 2 5 3 5 3 5 3 5 3 4 4 4 4 4 4 4 4 4 4 4 5 3 5 3 5 3 5 3 5 2 5 2 6 2 6 2 6 1 6 1 6zm-303 -442l231 -36 1 6 0 6 0 6 0 6 0 6 -1 6 -1 6 -1 6 -2 6 -2 5 -2 5 -2 5 -3 5 -3 5 -3 5 -3 5 -3 5 -4 4 -4 4 -4 4 -4 4 -4 4 -5 3 -5 3 -5 3 -5 3 -5 2 -5 2 -6 2 -6 2 -6 1 -6 1 -6 1 -6 0 -6 0 -6 0 -6 0 -6 -1 -6 -1 -6 -1 -5 -2 -5 -2 -5 -2 -5 -2 -5 -3 -5 -3 -5 -3 -5 -3 -4 -4 -4 -4 -4 -4 -4 -4 -4 -4 -4 -5 -3 -5 -3 -5 -3 -5 -3 -5 -2 -5 -2 -6 -2 -6 -2 -6 -1 -6 -1 -6zm-36 -239l231 -36 3 21 25 167 8 51 -231 36 -8 -51 -25 -167 -3 -21zm231 -36l-231 36 -1 -6 0 -6 0 -6 0 -6 0 -6 1 -6 1 -6 1 -6 2 -6 2 -5 2 -5 2 -5 3 -5 3 -5 3 -5 3 -5 3 -5 4 -4 4 -4 4 -4 4 -4 4 -4 5 -3 5 -3 5 -3 5 -3 5 -2 5 -2 6 -2 6 -2 6 -1 6 -1 6 -1 6 0 6 0 6 0 6 0 6 1 6 1 6 1 5 2 5 2 5 2 5 2 5 3 5 3 5 3 5 3 4 3 4 4 4 4 4 4 4 4 4 5 3 5 3 5 3 5 3 5 2 5 2 6 2 6 2 6 1 6 1 6zm-303 -441l231 -36 1 6 0 6 0 6 0 6 0 6 -1 6 -1 6 -1 6 -2 6 -2 5 -2 5 -2 5 -3 5 -3 5 -3 5 -3 5 -3 5 -4 4 -4 4 -4 4 -4 4 -4 4 -5 3 -5 3 -5 3 -5 3 -5 2 -5 2 -6 2 -6 2 -6 1 -6 1 -6 1 -6 0 -6 0 -6 0 -6 0 -6 -1 -6 -1 -6 -1 -5 -2 -5 -2 -5 -2 -5 -2 -5 -3 -5 -3 -5 -3 -5 -3 -4 -3 -4 -4 -4 -4 -4 -4 -4 -4 -4 -5 -3 -5 -3 -5 -3 -5 -3 -5 -2 -5 -2 -6 -2 -6 -2 -6 -1 -6 -1 -6zm-36 -239l231 -36 19 125 17 113 -231 36 -17 -113 -19 -125zm231 -36l-231 36 -1 -6 0 -6 0 -6 0 -6 0 -6 1 -6 1 -6 1 -6 2 -6 2 -5 2 -5 2 -5 3 -5 3 -5 3 -5 3 -5 3 -5 4 -4 4 -4 4 -4 4 -4 4 -4 5 -3 5 -3 5 -3 5 -3 5 -2 5 -2 6 -2 6 -2 6 -1 6 -1 6 -1 6 0 6 0 6 0 6 0 6 1 6 1 6 1 5 2 5 2 5 2 5 2 5 3 5 3 5 3 5 3 4 3 4 4 4 4 4 4 4 4 4 5 3 5 3 5 3 5 3 5 2 5 2 6 2 6 2 6 1 6 1 6zm-303 -441l231 -36 1 6 0 6 0 6 0 6 0 6 -1 6 -1 6 -1 6 -2 6 -2 5 -2 5 -2 5 -3 5 -3 5 -3 5 -3 5 -3 5 -4 4 -4 4 -4 4 -4 4 -4 4 -5 3 -5 3 -5 3 -5 3 -5 2 -5 2 -6 2 -6 2 -6 1 -6 1 -6 1 -6 0 -6 0 -6 0 -6 0 -6 -1 -6 -1 -6 -1 -5 -2 -5 -2 -5 -2 -5 -2 -5 -3 -5 -3 -5 -3 -5 -3 -4 -4 -4 -4 -4 -4 -4 -4 -4 -4 -4 -5 -3 -5 -3 -5 -3 -5 -3 -5 -2 -5 -2 -6 -2 -6 -2 -6 -1 -6 -1 -6zm-14 -93l231 -36 2 10 5 30 7 49 1 4 -231 36 -1 -4 -7 -49 -5 -30 -2 -10zm231 -36l-231 36 -1 -6 0 -6 0 -6 0 -6 0 -6 1 -6 1 -6 1 -6 2 -6 2 -5 2 -5 2 -5 3 -5 3 -5 3 -5 3 -5 3 -5 4 -4 4 -4 4 -4 4 -4 4 -4 5 -3 5 -3 5 -3 5 -3 5 -2 5 -2 6 -2 6 -2 6 -1 6 -1 6 -1 6 0 6 0 6 0 6 0 6 1 6 1 6 1 5 2 5 2 5 2 5 2 5 3 5 3 5 3 5 3 4 4 4 4 4 4 4 4 4 4 4 5 3 5 3 5 3 5 3 5 2 5 2 6 2 6 2 6 1 6 1 6z"/>
   </g>
   <path class="fil11 str8" d="M6621 18806l-1319 -1797c-78,-123 -328,-587 -486,-659 -179,-81 -329,59 -265,245 54,159 458,480 561,574l1510 1638zm-1521 -1848c-63,85 -549,-350 -405,-471 146,-123 505,418 405,471z"/>
   <path class="fil4 str9" d="M6792 15398c-116,-401 -554,-725 -952,-706 -994,49 -1002,1026 -1002,1026 -1,647 97,1058 -274,1361"/>
   <path class="fil11 str8" d="M4581 16654c55,84 165,192 272,289l58 -60c-110,-88 -229,-224 -242,-319l-88 90z"/>
   <g>
    <path class="fil7" d="M6722 11455l215 -95 2 6 2 6 2 6 1 6 1 6 1 6 0 6 0 6 0 6 0 6 -1 6 -1 6 -1 6 -1 6 -2 5 -2 5 -2 5 -2 5 -3 5 -3 5 -3 5 -3 5 -4 4 -4 4 -4 4 -4 4 -4 4 -5 4 -5 3 -5 3 -5 3 -5 3 -6 2 -6 2 -6 2 -6 1 -6 1 -6 1 -6 0 -6 0 -6 0 -6 0 -6 -1 -6 -1 -6 -1 -5 -1 -5 -2 -5 -2 -5 -2 -5 -2 -5 -3 -5 -3 -5 -3 -5 -3 -4 -4 -4 -4 -4 -4 -4 -4 -4 -5 -3 -5 -3 -5 -3 -5 -3 -5 -3 -6zm-94 -222l215 -95 94 222 -215 95 -94 -222zm215 -95l-215 95 -2 -6 -2 -6 -2 -6 -1 -6 -1 -6 -1 -6 0 -6 0 -6 0 -6 0 -6 1 -6 1 -6 1 -6 1 -6 2 -5 2 -5 2 -5 2 -5 3 -5 3 -5 3 -5 3 -5 4 -4 4 -4 4 -4 4 -4 4 -4 5 -4 5 -3 5 -3 5 -3 5 -3 6 -2 6 -2 6 -2 6 -1 6 -1 6 -1 6 0 6 0 6 0 6 0 6 1 6 1 6 1 5 1 5 2 5 2 5 2 5 2 5 3 5 3 5 3 5 3 4 4 4 4 4 4 4 4 4 5 3 5 3 5 3 5 3 5 3 6zm-402 -349l215 -95 2 6 2 6 2 6 1 6 1 6 1 6 0 6 0 6 0 6 0 6 -1 6 -1 6 -1 6 -1 6 -2 5 -2 5 -2 5 -2 5 -3 5 -3 5 -3 5 -3 5 -4 4 -4 4 -4 4 -4 4 -4 4 -5 4 -5 3 -5 3 -5 3 -5 3 -6 2 -6 2 -6 2 -6 1 -6 1 -6 1 -6 0 -6 0 -6 0 -6 0 -6 -1 -6 -1 -6 -1 -5 -1 -5 -2 -5 -2 -5 -2 -5 -2 -5 -3 -5 -3 -5 -3 -5 -3 -4 -4 -4 -4 -4 -4 -4 -4 -4 -5 -3 -5 -3 -5 -3 -5 -3 -5 -3 -6zm-94 -222l215 -95 94 222 -215 95 -94 -222zm215 -95l-215 95 -2 -6 -2 -6 -2 -6 -1 -6 -1 -6 -1 -6 0 -6 0 -6 0 -6 0 -6 1 -6 1 -6 1 -6 1 -6 2 -5 2 -5 2 -5 2 -5 3 -5 3 -5 3 -5 3 -5 4 -4 4 -4 4 -4 4 -4 4 -4 5 -4 5 -3 5 -3 5 -3 5 -3 6 -2 6 -2 6 -2 6 -1 6 -1 6 -1 6 0 6 0 6 0 6 0 6 1 6 1 6 1 5 1 5 2 5 2 5 2 5 2 5 3 5 3 5 3 5 3 4 4 4 4 4 4 4 4 4 5 3 5 3 5 3 5 3 5 3 6zm-402 -349l215 -95 2 6 2 6 2 6 1 6 1 6 1 6 0 6 0 6 0 6 0 6 -1 6 -1 6 -1 6 -1 6 -2 5 -2 5 -2 5 -2 5 -3 5 -3 5 -3 5 -3 5 -4 4 -4 4 -4 4 -4 4 -4 4 -5 4 -5 3 -5 3 -5 3 -5 3 -6 2 -6 2 -6 2 -6 1 -6 1 -6 1 -6 0 -6 0 -6 0 -6 0 -6 -1 -6 -1 -6 -1 -5 -1 -5 -2 -5 -2 -5 -2 -5 -2 -5 -3 -5 -3 -5 -3 -5 -3 -4 -4 -4 -4 -4 -4 -4 -4 -4 -5 -3 -5 -3 -5 -3 -5 -3 -5 -3 -6zm-94 -222l215 -95 94 222 -215 95 -94 -222zm215 -95l-215 95 -2 -6 -2 -6 -2 -6 -1 -6 -1 -6 -1 -6 0 -6 0 -6 0 -6 0 -6 1 -6 1 -6 1 -6 1 -6 2 -5 2 -5 2 -5 2 -5 3 -5 3 -5 3 -5 3 -5 4 -4 4 -4 4 -4 4 -4 4 -4 5 -4 5 -3 5 -3 5 -3 5 -3 6 -2 6 -2 6 -2 6 -1 6 -1 6 -1 6 0 6 0 6 0 6 0 6 1 6 1 6 1 5 1 5 2 5 2 5 2 5 2 5 3 5 3 5 3 5 3 4 4 4 4 4 4 4 4 4 5 3 5 3 5 3 5 3 5 3 6zm-402 -349l215 -95 2 6 2 6 2 6 1 6 1 6 1 6 0 6 0 6 0 6 0 6 -1 6 -1 6 -1 6 -1 6 -2 5 -2 5 -2 5 -2 5 -3 5 -3 5 -3 5 -3 5 -4 4 -4 4 -4 4 -4 4 -4 4 -5 4 -5 3 -5 3 -5 3 -5 3 -6 2 -6 2 -6 2 -6 1 -6 1 -6 1 -6 0 -6 0 -6 0 -6 0 -6 -1 -6 -1 -6 -1 -5 -1 -5 -2 -5 -2 -5 -2 -5 -2 -5 -3 -5 -3 -5 -3 -5 -3 -4 -4 -4 -4 -4 -4 -4 -4 -4 -5 -3 -5 -3 -5 -3 -5 -3 -5 -3 -6zm-94 -222l215 -95 94 222 -215 95 -94 -222zm215 -95l-215 95 -2 -6 -2 -6 -2 -6 -1 -6 -1 -6 -1 -6 0 -6 0 -6 0 -6 0 -6 1 -6 1 -6 1 -6 1 -6 2 -5 2 -5 2 -5 2 -5 3 -5 3 -5 3 -5 3 -5 4 -4 4 -4 4 -4 4 -4 4 -4 5 -4 5 -3 5 -3 5 -3 5 -3 6 -2 6 -2 6 -2 6 -1 6 -1 6 -1 6 0 6 0 6 0 6 0 6 1 6 1 6 1 5 1 5 2 5 2 5 2 5 2 5 3 5 3 5 3 5 3 4 4 4 4 4 4 4 4 4 5 3 5 3 5 3 5 3 5 3 6zm-402 -349l215 -95 2 6 2 6 2 6 1 6 1 6 1 6 0 6 0 6 0 6 0 6 -1 6 -1 6 -1 6 -1 6 -2 5 -2 5 -2 5 -2 5 -3 5 -3 5 -3 5 -3 5 -4 4 -4 4 -4 4 -4 4 -4 4 -5 4 -5 3 -5 3 -5 3 -5 3 -6 2 -6 2 -6 2 -6 1 -6 1 -6 1 -6 0 -6 0 -6 0 -6 0 -6 -1 -6 -1 -6 -1 -5 -1 -5 -2 -5 -2 -5 -2 -5 -2 -5 -3 -5 -3 -5 -3 -5 -3 -4 -4 -4 -4 -4 -4 -4 -4 -4 -5 -3 -5 -3 -5 -3 -5 -3 -5 -3 -6zm-94 -222l215 -95 94 222 -215 95 -94 -222zm215 -95l-215 95 -2 -6 -2 -6 -2 -6 -1 -6 -1 -6 -1 -6 0 -6 0 -6 0 -6 0 -6 1 -6 1 -6 1 -6 1 -6 2 -5 2 -5 2 -5 2 -5 3 -5 3 -5 3 -5 3 -5 4 -4 4 -4 4 -4 4 -4 4 -4 5 -4 5 -3 5 -3 5 -3 5 -3 6 -2 6 -2 6 -2 6 -1 6 -1 6 -1 6 0 6 0 6 0 6 0 6 1 6 1 6 1 5 1 5 2 5 2 5 2 5 2 5 3 5 3 5 3 5 3 4 4 4 4 4 4 4 4 4 5 3 5 3 5 3 5 3 5 3 6zm-402 -349l215 -95 2 6 2 6 2 6 1 6 1 6 1 6 0 6 0 6 0 6 0 6 -1 6 -1 6 -1 6 -1 6 -2 5 -2 5 -2 5 -2 5 -3 5 -3 5 -3 5 -3 5 -4 4 -4 4 -4 4 -4 4 -4 4 -5 4 -5 3 -5 3 -5 3 -5 3 -6 2 -6 2 -6 2 -6 1 -6 1 -6 1 -6 0 -6 0 -6 0 -6 0 -6 -1 -6 -1 -6 -1 -5 -1 -5 -2 -5 -2 -5 -2 -5 -2 -5 -3 -5 -3 -5 -3 -5 -3 -4 -4 -4 -4 -4 -4 -4 -4 -4 -5 -3 -5 -3 -5 -3 -5 -3 -5 -3 -6zm-94 -222l215 -95 94 222 -215 95 -94 -222zm215 -95l-215 95 -2 -6 -2 -6 -2 -6 -1 -6 -1 -6 -1 -6 0 -6 0 -6 0 -6 0 -6 1 -6 1 -6 1 -6 1 -6 2 -5 2 -5 2 -5 2 -5 3 -5 3 -5 3 -5 3 -5 4 -4 4 -4 4 -4 4 -4 4 -4 5 -4 5 -3 5 -3 5 -3 5 -3 6 -2 6 -2 6 -2 6 -1 6 -1 6 -1 6 0 6 0 6 0 6 0 6 1 6 1 6 1 5 1 5 2 5 2 5 2 5 2 5 3 5 3 5 3 5 3 4 4 4 4 4 4 4 4 4 5 3 5 3 5 3 5 3 5 3 6zm-402 -349l215 -95 2 6 2 6 2 6 1 6 1 6 1 6 0 6 0 6 0 6 0 6 -1 6 -1 6 -1 6 -1 6 -2 5 -2 5 -2 5 -2 5 -3 5 -3 5 -3 5 -3 5 -4 4 -4 4 -4 4 -4 4 -4 4 -5 4 -5 3 -5 3 -5 3 -5 3 -6 2 -6 2 -6 2 -6 1 -6 1 -6 1 -6 0 -6 0 -6 0 -6 0 -6 -1 -6 -1 -6 -1 -5 -1 -5 -2 -5 -2 -5 -2 -5 -2 -5 -3 -5 -3 -5 -3 -5 -3 -4 -4 -4 -4 -4 -4 -4 -4 -4 -5 -3 -5 -3 -5 -3 -5 -3 -5 -3 -6zm-94 -222l215 -95 94 222 -215 95 -94 -222zm215 -95l-215 95 -2 -6 -2 -6 -2 -6 -1 -6 -1 -6 -1 -6 0 -6 0 -6 0 -6 0 -6 1 -6 1 -6 1 -6 1 -6 2 -5 2 -5 2 -5 2 -5 3 -5 3 -5 3 -5 3 -5 4 -4 4 -4 4 -4 4 -4 4 -4 5 -4 5 -3 5 -3 5 -3 5 -3 6 -2 6 -2 6 -2 6 -1 6 -1 6 -1 6 0 6 0 6 0 6 0 6 1 6 1 6 1 5 1 5 2 5 2 5 2 5 2 5 3 5 3 5 3 5 3 4 4 4 4 4 4 4 4 4 5 3 5 3 5 3 5 3 5 3 6zm-402 -349l215 -95 2 6 2 6 2 6 1 6 1 6 1 6 0 6 0 6 0 6 0 6 -1 6 -1 6 -1 6 -1 6 -2 5 -2 5 -2 5 -2 5 -3 5 -3 5 -3 5 -3 5 -4 4 -4 4 -4 4 -4 4 -4 4 -5 4 -5 3 -5 3 -5 3 -5 3 -6 2 -6 2 -6 2 -6 1 -6 1 -6 1 -6 0 -6 0 -6 0 -6 0 -6 -1 -6 -1 -6 -1 -5 -1 -5 -2 -5 -2 -5 -2 -5 -2 -5 -3 -5 -3 -5 -3 -5 -3 -4 -4 -4 -4 -4 -4 -4 -4 -4 -5 -3 -5 -3 -5 -3 -5 -3 -5 -3 -6zm-94 -222l215 -95 94 222 -215 95 -94 -222zm215 -95l-215 95 -2 -6 -2 -6 -2 -6 -1 -6 -1 -6 -1 -6 0 -6 0 -6 0 -6 0 -6 1 -6 1 -6 1 -6 1 -6 2 -5 2 -5 2 -5 2 -5 3 -5 3 -5 3 -5 3 -5 4 -4 4 -4 4 -4 4 -4 4 -4 5 -4 5 -3 5 -3 5 -3 5 -3 6 -2 6 -2 6 -2 6 -1 6 -1 6 -1 6 0 6 0 6 0 6 0 6 1 6 1 6 1 5 1 5 2 5 2 5 2 5 2 5 3 5 3 5 3 5 3 4 4 4 4 4 4 4 4 4 5 3 5 3 5 3 5 3 5 3 6zm-402 -349l215 -95 2 6 2 6 2 6 1 6 1 6 1 6 0 6 0 6 0 6 0 6 -1 6 -1 6 -1 6 -1 6 -2 5 -2 5 -2 5 -2 5 -3 5 -3 5 -3 5 -3 5 -4 4 -4 4 -4 4 -4 4 -4 4 -5 4 -5 3 -5 3 -5 3 -5 3 -6 2 -6 2 -6 2 -6 1 -6 1 -6 1 -6 0 -6 0 -6 0 -6 0 -6 -1 -6 -1 -6 -1 -5 -1 -5 -2 -5 -2 -5 -2 -5 -2 -5 -3 -5 -3 -5 -3 -5 -3 -4 -4 -4 -4 -4 -4 -4 -4 -4 -5 -3 -5 -3 -5 -3 -5 -3 -5 -3 -6zm-94 -222l215 -95 94 222 -215 95 -94 -222zm215 -95l-215 95 -2 -6 -2 -6 -2 -6 -1 -6 -1 -6 -1 -6 0 -6 0 -6 0 -6 0 -6 1 -6 1 -6 1 -6 1 -6 2 -5 2 -5 2 -5 2 -5 3 -5 3 -5 3 -5 3 -5 4 -4 4 -4 4 -4 4 -4 4 -4 5 -4 5 -3 5 -3 5 -3 5 -3 6 -2 6 -2 6 -2 6 -1 6 -1 6 -1 6 0 6 0 6 0 6 0 6 1 6 1 6 1 5 1 5 2 5 2 5 2 5 2 5 3 5 3 5 3 5 3 4 4 4 4 4 4 4 4 4 5 3 5 3 5 3 5 3 5 3 6z"/>
   </g>
   <g>
    <path class="fil7" d="M4417 8018l-70 -228 6 -2 6 -1 6 -1 6 -1 6 0 6 0 6 0 6 0 6 1 6 1 6 1 5 2 5 2 5 2 5 2 5 3 5 3 5 3 5 3 4 3 4 4 4 4 4 4 4 4 4 5 3 5 3 5 3 5 3 5 2 5 2 6 2 6 2 6 1 6 1 6 1 6 0 6 0 6 0 6 0 6 -1 6 -1 6 -1 6 -1 6 -2 5 -2 5 -2 5 -2 5 -3 5 -3 5 -3 5 -3 5 -4 4 -4 4 -4 4 -4 4 -4 4 -5 3 -5 3 -5 3 -5 3 -5 3 -6 2 -6 2zm2356 5447l40 235 -294 34 -281 -2 -268 -37 -255 -69 -240 -99 -226 -127 -211 -152 -196 -174 -181 -194 -167 -211 -152 -227 -138 -240 -124 -251 -111 -260 -97 -267 -83 -272 -70 -275 -56 -276 -43 -274 -30 -271 -16 -266 -3 -258 11 -249 24 -238 38 -225 52 -210 67 -193 82 -174 99 -153 116 -130 135 -102 152 -69 70 228 -104 48 -96 73 -88 99 -80 124 -70 148 -59 171 -47 190 -35 208 -23 223 -10 235 3 246 15 254 28 260 41 263 54 264 67 264 80 260 93 255 105 248 118 238 130 226 143 213 155 197 167 179 179 159 190 137 202 113 214 88 226 62 239 33 252 2 267 -31zm40 235l-40 -235 6 -1 6 -1 6 0 6 0 6 0 6 1 6 1 6 1 6 1 5 2 5 2 5 2 5 2 5 3 5 3 5 3 5 3 4 4 4 4 4 4 4 4 4 4 3 5 3 5 3 5 3 5 3 5 2 5 2 6 2 6 1 6 1 6 1 6 1 6 0 6 0 6 0 6 -1 6 -1 6 -1 6 -1 6 -2 6 -2 5 -2 5 -2 5 -3 5 -3 5 -3 5 -3 5 -4 4 -4 4 -4 4 -4 4 -4 4 -5 3 -5 3 -5 3 -5 3 -5 3 -5 2 -6 2 -6 2 -6 1 -6 1z"/>
   </g>
   <g>
    <path class="fil7" d="M6722 13630l215 -95 2 6 2 6 2 6 1 6 1 6 1 6 0 6 0 6 0 6 0 6 -1 6 -1 6 -1 6 -1 6 -2 5 -2 5 -2 5 -2 5 -3 5 -3 5 -3 5 -3 5 -4 4 -4 4 -4 4 -4 4 -4 4 -5 4 -5 3 -5 3 -5 3 -5 3 -6 2 -6 2 -6 2 -6 1 -6 1 -6 1 -6 0 -6 0 -6 0 -6 0 -6 -1 -6 -1 -6 -1 -5 -1 -5 -2 -5 -2 -5 -2 -5 -2 -5 -3 -5 -3 -5 -3 -5 -3 -4 -4 -4 -4 -4 -4 -4 -4 -4 -5 -3 -5 -3 -5 -3 -5 -3 -5 -3 -6zm-94 -222l215 -95 94 222 -215 95 -94 -222zm215 -95l-215 95 -2 -6 -2 -6 -2 -6 -1 -6 -1 -6 -1 -6 0 -6 0 -6 0 -6 0 -6 1 -6 1 -6 1 -6 1 -6 2 -5 2 -5 2 -5 2 -5 3 -5 3 -5 3 -5 3 -5 4 -4 4 -4 4 -4 4 -4 4 -4 5 -4 5 -3 5 -3 5 -3 5 -3 6 -2 6 -2 6 -2 6 -1 6 -1 6 -1 6 0 6 0 6 0 6 0 6 1 6 1 6 1 5 1 5 2 5 2 5 2 5 2 5 3 5 3 5 3 5 3 4 4 4 4 4 4 4 4 4 5 3 5 3 5 3 5 3 5 3 6zm-402 -349l215 -95 2 6 2 6 2 6 1 6 1 6 1 6 0 6 0 6 0 6 0 6 -1 6 -1 6 -1 6 -1 6 -2 5 -2 5 -2 5 -2 5 -3 5 -3 5 -3 5 -3 5 -4 4 -4 4 -4 4 -4 4 -4 4 -5 4 -5 3 -5 3 -5 3 -5 3 -6 2 -6 2 -6 2 -6 1 -6 1 -6 1 -6 0 -6 0 -6 0 -6 0 -6 -1 -6 -1 -6 -1 -5 -1 -5 -2 -5 -2 -5 -2 -5 -2 -5 -3 -5 -3 -5 -3 -5 -3 -4 -4 -4 -4 -4 -4 -4 -4 -4 -5 -3 -5 -3 -5 -3 -5 -3 -5 -3 -6zm-94 -222l215 -95 94 222 -215 95 -94 -222zm215 -95l-215 95 -2 -6 -2 -6 -2 -6 -1 -6 -1 -6 -1 -6 0 -6 0 -6 0 -6 0 -6 1 -6 1 -6 1 -6 1 -6 2 -5 2 -5 2 -5 2 -5 3 -5 3 -5 3 -5 3 -5 4 -4 4 -4 4 -4 4 -4 4 -4 5 -4 5 -3 5 -3 5 -3 5 -3 6 -2 6 -2 6 -2 6 -1 6 -1 6 -1 6 0 6 0 6 0 6 0 6 1 6 1 6 1 5 1 5 2 5 2 5 2 5 2 5 3 5 3 5 3 5 3 4 4 4 4 4 4 4 4 4 5 3 5 3 5 3 5 3 5 3 6zm-402 -349l215 -95 2 6 2 6 2 6 1 6 1 6 1 6 0 6 0 6 0 6 0 6 -1 6 -1 6 -1 6 -1 6 -2 5 -2 5 -2 5 -2 5 -3 5 -3 5 -3 5 -3 5 -4 4 -4 4 -4 4 -4 4 -4 4 -5 4 -5 3 -5 3 -5 3 -5 3 -6 2 -6 2 -6 2 -6 1 -6 1 -6 1 -6 0 -6 0 -6 0 -6 0 -6 -1 -6 -1 -6 -1 -5 -1 -5 -2 -5 -2 -5 -2 -5 -2 -5 -3 -5 -3 -5 -3 -5 -3 -4 -4 -4 -4 -4 -4 -4 -4 -4 -5 -3 -5 -3 -5 -3 -5 -3 -5 -3 -6zm-94 -222l215 -95 94 222 -215 95 -94 -222zm215 -95l-215 95 -2 -6 -2 -6 -2 -6 -1 -6 -1 -6 -1 -6 0 -6 0 -6 0 -6 0 -6 1 -6 1 -6 1 -6 1 -6 2 -5 2 -5 2 -5 2 -5 3 -5 3 -5 3 -5 3 -5 4 -4 4 -4 4 -4 4 -4 4 -4 5 -4 5 -3 5 -3 5 -3 5 -3 6 -2 6 -2 6 -2 6 -1 6 -1 6 -1 6 0 6 0 6 0 6 0 6 1 6 1 6 1 5 1 5 2 5 2 5 2 5 2 5 3 5 3 5 3 5 3 4 4 4 4 4 4 4 4 4 5 3 5 3 5 3 5 3 5 3 6zm-402 -349l215 -95 2 6 2 6 2 6 1 6 1 6 1 6 0 6 0 6 0 6 0 6 -1 6 -1 6 -1 6 -1 6 -2 5 -2 5 -2 5 -2 5 -3 5 -3 5 -3 5 -3 5 -4 4 -4 4 -4 4 -4 4 -4 4 -5 4 -5 3 -5 3 -5 3 -5 3 -6 2 -6 2 -6 2 -6 1 -6 1 -6 1 -6 0 -6 0 -6 0 -6 0 -6 -1 -6 -1 -6 -1 -5 -1 -5 -2 -5 -2 -5 -2 -5 -2 -5 -3 -5 -3 -5 -3 -5 -3 -4 -4 -4 -4 -4 -4 -4 -4 -4 -5 -3 -5 -3 -5 -3 -5 -3 -5 -3 -6zm-94 -222l215 -95 94 222 -215 95 -94 -222zm215 -95l-215 95 -2 -6 -2 -6 -2 -6 -1 -6 -1 -6 -1 -6 0 -6 0 -6 0 -6 0 -6 1 -6 1 -6 1 -6 1 -6 2 -5 2 -5 2 -5 2 -5 3 -5 3 -5 3 -5 3 -5 4 -4 4 -4 4 -4 4 -4 4 -4 5 -4 5 -3 5 -3 5 -3 5 -3 6 -2 6 -2 6 -2 6 -1 6 -1 6 -1 6 0 6 0 6 0 6 0 6 1 6 1 6 1 5 1 5 2 5 2 5 2 5 2 5 3 5 3 5 3 5 3 4 4 4 4 4 4 4 4 4 5 3 5 3 5 3 5 3 5 3 6zm-402 -349l215 -95 2 6 2 6 2 6 1 6 1 6 1 6 0 6 0 6 0 6 0 6 -1 6 -1 6 -1 6 -1 6 -2 5 -2 5 -2 5 -2 5 -3 5 -3 5 -3 5 -3 5 -4 4 -4 4 -4 4 -4 4 -4 4 -5 4 -5 3 -5 3 -5 3 -5 3 -6 2 -6 2 -6 2 -6 1 -6 1 -6 1 -6 0 -6 0 -6 0 -6 0 -6 -1 -6 -1 -6 -1 -5 -1 -5 -2 -5 -2 -5 -2 -5 -2 -5 -3 -5 -3 -5 -3 -5 -3 -4 -4 -4 -4 -4 -4 -4 -4 -4 -5 -3 -5 -3 -5 -3 -5 -3 -5 -3 -6zm-94 -222l215 -95 94 222 -215 95 -94 -222zm215 -95l-215 95 -2 -6 -2 -6 -2 -6 -1 -6 -1 -6 -1 -6 0 -6 0 -6 0 -6 0 -6 1 -6 1 -6 1 -6 1 -6 2 -5 2 -5 2 -5 2 -5 3 -5 3 -5 3 -5 3 -5 4 -4 4 -4 4 -4 4 -4 4 -4 5 -4 5 -3 5 -3 5 -3 5 -3 6 -2 6 -2 6 -2 6 -1 6 -1 6 -1 6 0 6 0 6 0 6 0 6 1 6 1 6 1 5 1 5 2 5 2 5 2 5 2 5 3 5 3 5 3 5 3 4 4 4 4 4 4 4 4 4 5 3 5 3 5 3 5 3 5 3 6zm-402 -349l215 -95 2 6 2 6 2 6 1 6 1 6 1 6 0 6 0 6 0 6 0 6 -1 6 -1 6 -1 6 -1 6 -2 5 -2 5 -2 5 -2 5 -3 5 -3 5 -3 5 -3 5 -4 4 -4 4 -4 4 -4 4 -4 4 -5 4 -5 3 -5 3 -5 3 -5 3 -6 2 -6 2 -6 2 -6 1 -6 1 -6 1 -6 0 -6 0 -6 0 -6 0 -6 -1 -6 -1 -6 -1 -5 -1 -5 -2 -5 -2 -5 -2 -5 -2 -5 -3 -5 -3 -5 -3 -5 -3 -4 -4 -4 -4 -4 -4 -4 -4 -4 -5 -3 -5 -3 -5 -3 -5 -3 -5 -3 -6zm-94 -222l215 -95 94 222 -215 95 -94 -222zm215 -95l-215 95 -2 -6 -2 -6 -2 -6 -1 -6 -1 -6 -1 -6 0 -6 0 -6 0 -6 0 -6 1 -6 1 -6 1 -6 1 -6 2 -5 2 -5 2 -5 2 -5 3 -5 3 -5 3 -5 3 -5 4 -4 4 -4 4 -4 4 -4 4 -4 5 -4 5 -3 5 -3 5 -3 5 -3 6 -2 6 -2 6 -2 6 -1 6 -1 6 -1 6 0 6 0 6 0 6 0 6 1 6 1 6 1 5 1 5 2 5 2 5 2 5 2 5 3 5 3 5 3 5 3 4 4 4 4 4 4 4 4 4 5 3 5 3 5 3 5 3 5 3 6zm-402 -349l215 -95 2 6 2 6 2 6 1 6 1 6 1 6 0 6 0 6 0 6 0 6 -1 6 -1 6 -1 6 -1 6 -2 5 -2 5 -2 5 -2 5 -3 5 -3 5 -3 5 -3 5 -4 4 -4 4 -4 4 -4 4 -4 4 -5 4 -5 3 -5 3 -5 3 -5 3 -6 2 -6 2 -6 2 -6 1 -6 1 -6 1 -6 0 -6 0 -6 0 -6 0 -6 -1 -6 -1 -6 -1 -5 -1 -5 -2 -5 -2 -5 -2 -5 -2 -5 -3 -5 -3 -5 -3 -5 -3 -4 -4 -4 -4 -4 -4 -4 -4 -4 -5 -3 -5 -3 -5 -3 -5 -3 -5 -3 -6zm-94 -222l215 -95 94 222 -215 95 -94 -222zm215 -95l-215 95 -2 -6 -2 -6 -2 -6 -1 -6 -1 -6 -1 -6 0 -6 0 -6 0 -6 0 -6 1 -6 1 -6 1 -6 1 -6 2 -5 2 -5 2 -5 2 -5 3 -5 3 -5 3 -5 3 -5 4 -4 4 -4 4 -4 4 -4 4 -4 5 -4 5 -3 5 -3 5 -3 5 -3 6 -2 6 -2 6 -2 6 -1 6 -1 6 -1 6 0 6 0 6 0 6 0 6 1 6 1 6 1 5 1 5 2 5 2 5 2 5 2 5 3 5 3 5 3 5 3 4 4 4 4 4 4 4 4 4 5 3 5 3 5 3 5 3 5 3 6zm-402 -349l215 -95 2 6 2 6 2 6 1 6 1 6 1 6 0 6 0 6 0 6 0 6 -1 6 -1 6 -1 6 -1 6 -2 5 -2 5 -2 5 -2 5 -3 5 -3 5 -3 5 -3 5 -4 4 -4 4 -4 4 -4 4 -4 4 -5 4 -5 3 -5 3 -5 3 -5 3 -6 2 -6 2 -6 2 -6 1 -6 1 -6 1 -6 0 -6 0 -6 0 -6 0 -6 -1 -6 -1 -6 -1 -5 -1 -5 -2 -5 -2 -5 -2 -5 -2 -5 -3 -5 -3 -5 -3 -5 -3 -4 -4 -4 -4 -4 -4 -4 -4 -4 -5 -3 -5 -3 -5 -3 -5 -3 -5 -3 -6zm-94 -222l215 -95 94 222 -215 95 -94 -222zm215 -95l-215 95 -2 -6 -2 -6 -2 -6 -1 -6 -1 -6 -1 -6 0 -6 0 -6 0 -6 0 -6 1 -6 1 -6 1 -6 1 -6 2 -5 2 -5 2 -5 2 -5 3 -5 3 -5 3 -5 3 -5 4 -4 4 -4 4 -4 4 -4 4 -4 5 -4 5 -3 5 -3 5 -3 5 -3 6 -2 6 -2 6 -2 6 -1 6 -1 6 -1 6 0 6 0 6 0 6 0 6 1 6 1 6 1 5 1 5 2 5 2 5 2 5 2 5 3 5 3 5 3 5 3 4 4 4 4 4 4 4 4 4 5 3 5 3 5 3 5 3 5 3 6zm-402 -349l215 -95 2 6 2 6 2 6 1 6 1 6 1 6 0 6 0 6 0 6 0 6 -1 6 -1 6 -1 6 -1 6 -2 5 -2 5 -2 5 -2 5 -3 5 -3 5 -3 5 -3 5 -4 4 -4 4 -4 4 -4 4 -4 4 -5 4 -5 3 -5 3 -5 3 -5 3 -6 2 -6 2 -6 2 -6 1 -6 1 -6 1 -6 0 -6 0 -6 0 -6 0 -6 -1 -6 -1 -6 -1 -5 -1 -5 -2 -5 -2 -5 -2 -5 -2 -5 -3 -5 -3 -5 -3 -5 -3 -4 -4 -4 -4 -4 -4 -4 -4 -4 -5 -3 -5 -3 -5 -3 -5 -3 -5 -3 -6zm-94 -222l215 -95 94 222 -215 95 -94 -222zm215 -95l-215 95 -2 -6 -2 -6 -2 -6 -1 -6 -1 -6 -1 -6 0 -6 0 -6 0 -6 0 -6 1 -6 1 -6 1 -6 1 -6 2 -5 2 -5 2 -5 2 -5 3 -5 3 -5 3 -5 3 -5 4 -4 4 -4 4 -4 4 -4 4 -4 5 -4 5 -3 5 -3 5 -3 5 -3 6 -2 6 -2 6 -2 6 -1 6 -1 6 -1 6 0 6 0 6 0 6 0 6 1 6 1 6 1 5 1 5 2 5 2 5 2 5 2 5 3 5 3 5 3 5 3 4 4 4 4 4 4 4 4 4 5 3 5 3 5 3 5 3 5 3 6z"/>
   </g>
  </g>
 </g>
</svg>
