<?xml version="1.0" encoding="UTF-8"?>
<!DOCTYPE svg PUBLIC "-//W3C//DTD SVG 1.0//EN" "http://www.w3.org/TR/2001/REC-SVG-20010904/DTD/svg10.dtd">
<!-- Creator: CorelDRAW X7 -->
<svg xmlns="http://www.w3.org/2000/svg" xml:space="preserve" width="200mm" height="200mm" version="1.0" style="shape-rendering:geometricPrecision; text-rendering:geometricPrecision; image-rendering:optimizeQuality; fill-rule:evenodd; clip-rule:evenodd"
viewBox="0 0 20000 20000"
 xmlns:xlink="http://www.w3.org/1999/xlink">
 <defs>
  <style type="text/css">
   <![CDATA[
    .str1 {stroke:#3696A0;stroke-width:25}
    .str0 {stroke:white;stroke-width:25}
    .str2 {stroke:#5B5B5B;stroke-width:7.62}
    .fil15 {fill:#0050A0}
    .fil7 {fill:#2C3E50}
    .fil19 {fill:#3497A1}
    .fil13 {fill:#3696A0}
    .fil18 {fill:#3C4F59}
    .fil2 {fill:#5C9EBC}
    .fil17 {fill:#7C8E97}
    .fil9 {fill:#8C8C8C}
    .fil5 {fill:#999999}
    .fil1 {fill:#A0E13A}
    .fil11 {fill:#BABABA}
    .fil16 {fill:#BB8076}
    .fil4 {fill:#C6A44F}
    .fil8 {fill:#CCCCCC}
    .fil20 {fill:#DBBCB6}
    .fil10 {fill:#FEC006}
    .fil14 {fill:#FEE9D0}
    .fil3 {fill:white}
    .fil12 {fill:url(#id0)}
    .fil6 {fill:url(#id1)}
    .fil0 {fill:url(#id2)}
   ]]>
  </style>
  <linearGradient id="id0" gradientUnits="userSpaceOnUse" x1="6234.66" y1="7159.71" x2="6234.66" y2="6900.1">
   <stop offset="0" style="stop-opacity:1; stop-color:#231F20"/>
   <stop offset="0.0901961" style="stop-opacity:0.74902; stop-color:#231F20"/>
   <stop offset="0.321569" style="stop-opacity:0.329412; stop-color:#231F20"/>
   <stop offset="0.588235" style="stop-opacity:0.0784314; stop-color:#231F20"/>
   <stop offset="1" style="stop-opacity:0; stop-color:#231F20"/>
  </linearGradient>
  <linearGradient id="id1" gradientUnits="userSpaceOnUse" xlink:href="#id0" x1="6234.66" y1="7529.35" x2="6234.66" y2="6973.98">
  </linearGradient>
  <radialGradient id="id2" gradientUnits="userSpaceOnUse" gradientTransform="matrix(1.41421 -0 -0 1.41421 -4155 -4129)" cx="10030.6" cy="9969.4" r="10000" fx="10030.6" fy="9969.4">
   <stop offset="0" style="stop-opacity:1; stop-color:#FEFEFE"/>
   <stop offset="0.439216" style="stop-opacity:1; stop-color:#FEFEFE"/>
   <stop offset="1" style="stop-opacity:1; stop-color:#D1E2F2"/>
  </radialGradient>
 </defs>
 <g id="Layer_x0020_1">
  <metadata id="CorelCorpID_0Corel-Layer"/>
  <path class="fil0" d="M31 -31l20000 0 0 20000 -20000 0 0 -20000z"/>
  <g id="_444226280208">
   <path class="fil1" d="M2146 15170l6911 0 1955 -1941 -1955 -1941 -6911 0 0 3882z"/>
   <path class="fil1" d="M5957 10981c196,42 344,216 344,425 0,240 -195,434 -435,434 -240,0 -434,-194 -434,-434 0,-209 147,-383 344,-425l0 -870 -383 0 473 -861 473 861 -382 0 0 870z"/>
   <path class="fil2" d="M9057 15170l6911 0 1947 -1950 -1947 -1932 -6911 0 1955 1941 -1955 1941z"/>
   <path class="fil2" d="M12899 10981c196,42 344,216 344,425 0,240 -195,434 -435,434 -240,0 -434,-194 -434,-434 0,-209 147,-383 344,-425l0 -870 -383 0 473 -861 473 861 -382 0 0 870z"/>
   <path class="fil3 str0" d="M11654 13386l-50 0c-12,0 -22,-3 -30,-11 -7,-8 -10,-17 -10,-28 0,-9 3,-18 10,-27 8,-8 17,-12 30,-12l39 0c25,0 44,-9 58,-25 15,-16 22,-34 22,-55 0,-22 -7,-40 -19,-55 -7,-7 -15,-13 -25,-18 -11,-4 -22,-6 -36,-6l-39 0c-37,0 -69,11 -96,32 -6,5 -14,8 -24,9 -8,0 -17,-4 -28,-12 -7,-8 -11,-18 -11,-29 0,-13 5,-23 16,-31 41,-32 88,-48 143,-48l39 0c50,0 90,16 119,49 27,30 40,66 40,110 0,12 -1,23 -3,34 -2,10 -5,20 -10,31 -7,18 -20,36 -37,54 15,14 27,32 37,54l9 31c3,10 4,22 4,34 0,44 -13,80 -40,109 -28,33 -68,49 -119,49l-39 0c-54,0 -101,-15 -143,-47 -11,-8 -16,-19 -16,-32 0,-9 4,-18 11,-27 8,-10 18,-14 28,-14 7,0 15,3 24,9 28,22 60,33 96,33l39 0c24,0 44,-9 58,-25 14,-16 22,-35 22,-56 0,-21 -6,-38 -17,-52 -12,-14 -29,-23 -52,-28zm624 81l0 -318 -160 0c-22,0 -41,7 -57,23 -7,7 -13,16 -17,25 -3,10 -5,20 -5,31l0 239c0,22 7,41 22,57 8,7 17,12 26,17 11,4 22,6 31,6l80 0c22,0 41,-8 56,-23 16,-14 24,-34 24,-57zm38 106c-12,15 -30,27 -52,37 -22,10 -44,15 -66,15l-79 0c-43,0 -80,-15 -112,-46 -31,-30 -47,-68 -47,-112l0 -238c0,-44 15,-82 46,-113 31,-31 69,-46 113,-46l198 0c26,0 39,13 39,39l0 357c0,16 5,32 16,48 9,15 22,27 39,35 17,7 25,19 25,36 0,11 -4,21 -11,28 -7,8 -16,12 -28,12 -6,0 -12,-1 -17,-3 -26,-11 -47,-27 -64,-49zm869 -661l-158 0c-12,0 -22,-4 -30,-11 -7,-8 -10,-17 -10,-28 0,-10 3,-19 10,-27 7,-8 17,-13 30,-13l158 0c62,0 112,20 149,61 33,38 50,83 50,136 0,32 -7,62 -19,89 -13,26 -32,50 -58,72 22,17 40,40 55,68 14,27 22,57 22,89l0 79c0,54 -20,101 -59,140 -39,39 -85,58 -140,58l-158 0c-12,0 -22,-3 -30,-10 -7,-9 -10,-19 -10,-29 0,-9 3,-18 10,-27 7,-8 16,-12 30,-12l159 0c33,0 61,-12 84,-35 23,-24 35,-52 35,-85l0 -79c0,-33 -12,-61 -35,-84 -22,-23 -51,-35 -85,-35l-79 0c-12,0 -22,-4 -30,-11 -6,-9 -10,-18 -10,-29 0,-9 3,-17 10,-26 7,-9 17,-13 30,-13l79 0c36,0 65,-13 87,-38 20,-23 29,-51 29,-84 0,-32 -9,-58 -28,-80 -21,-24 -50,-36 -88,-36zm1154 237l-159 0c-23,0 -42,7 -57,23 -8,7 -14,16 -17,25 -4,10 -6,20 -6,31l0 239c0,22 7,41 23,57 8,7 16,12 25,17 12,4 22,6 32,6l79 0c22,0 41,-8 56,-23 16,-14 24,-34 24,-57l0 -318zm0 -79l0 -80c0,-22 -8,-41 -23,-56 -14,-15 -34,-23 -57,-23l-158 0c-13,0 -23,-3 -30,-11 -7,-8 -10,-18 -10,-28 0,-10 3,-18 10,-27 6,-9 16,-13 29,-13l159 0c44,0 82,16 112,47 31,31 47,68 47,112l0 476c0,43 -16,80 -47,112 -31,31 -68,46 -112,46l-79 0c-43,0 -80,-15 -112,-46 -31,-30 -47,-68 -47,-112l0 -238c0,-44 16,-82 47,-113 31,-31 68,-46 112,-46l159 0zm555 238l0 -199c0,-10 4,-20 12,-29 7,-7 17,-10 27,-10 10,0 20,3 27,10 9,6 13,16 13,29l0 477c0,12 -4,22 -12,30 -7,6 -16,9 -28,9 -10,0 -20,-3 -27,-10 -8,-6 -12,-16 -12,-29l0 -200 -239 0 0 200c0,12 -4,22 -11,30 -8,6 -17,9 -29,9 -10,0 -19,-3 -27,-9 -8,-7 -12,-17 -12,-30l0 -477c0,-10 4,-20 12,-29 8,-7 17,-10 27,-10 10,0 20,3 28,10 8,6 12,16 12,29l0 199 239 0zm555 1l0 -160 -160 0c-22,0 -42,8 -59,24 -13,15 -20,34 -20,56 0,20 7,38 20,55 14,16 34,25 59,25l160 0zm-98 79l-147 219c-3,5 -8,10 -15,15l-18 3c-8,0 -17,-3 -27,-11 -9,-8 -13,-18 -13,-29 0,-6 2,-14 6,-22l119 -178c-39,-5 -69,-24 -92,-55 -22,-31 -33,-65 -33,-101 0,-43 13,-79 40,-109 30,-34 69,-50 119,-50l198 0c26,0 40,13 40,39l0 477c0,12 -4,22 -12,30 -7,6 -16,9 -28,9 -10,0 -20,-3 -28,-9 -7,-7 -11,-17 -11,-30l0 -198 -98 0z"/>
   <path class="fil3 str0" d="M3954 13390l-50 0c-12,0 -22,-4 -29,-12 -7,-8 -11,-17 -11,-28 0,-9 4,-18 11,-27 7,-8 17,-12 29,-12l40 0c24,0 43,-8 58,-24 14,-17 21,-35 21,-56 0,-22 -6,-40 -19,-55 -6,-7 -15,-13 -25,-17 -10,-5 -22,-7 -35,-7l-40 0c-37,0 -68,11 -95,32 -7,5 -15,8 -24,9 -9,0 -18,-4 -28,-12 -8,-8 -11,-18 -11,-29 0,-13 5,-23 15,-31 41,-32 89,-48 143,-48l40 0c50,0 89,16 119,49 26,30 39,67 39,110 0,12 -1,23 -3,34 -2,10 -5,20 -9,31 -8,18 -20,36 -38,54 15,14 28,32 38,54l9 31c2,11 3,22 3,34 0,44 -13,80 -39,109 -29,33 -68,49 -119,49l-40 0c-53,0 -101,-15 -143,-47 -11,-8 -16,-19 -16,-32 0,-8 4,-18 12,-27 8,-9 17,-14 28,-14 7,0 15,3 24,10 28,21 59,32 95,32l40 0c24,0 43,-9 57,-25 15,-16 22,-35 22,-56 0,-20 -5,-38 -17,-52 -11,-14 -29,-23 -52,-27zm624 80l0 -318 -159 0c-23,0 -42,7 -57,23 -8,7 -13,16 -17,25 -4,10 -6,20 -6,31l0 239c0,22 8,41 23,57 8,7 16,12 25,17 12,4 22,6 32,6l79 0c22,0 41,-8 57,-23 15,-14 23,-33 23,-57zm39 106c-13,15 -30,27 -53,37 -22,10 -44,15 -66,15l-79 0c-43,0 -80,-15 -111,-46 -32,-30 -48,-68 -48,-112l0 -238c0,-44 16,-82 47,-113 31,-31 68,-46 112,-46l198 0c27,0 40,13 40,40l0 356c0,16 5,32 15,49 9,14 22,26 40,34 16,7 25,19 25,36 0,11 -4,21 -12,28 -7,8 -16,12 -28,12 -6,0 -11,-1 -16,-3 -26,-11 -48,-27 -64,-49zm912 13c0,12 -4,22 -12,30 -7,6 -16,9 -28,9 -10,0 -20,-3 -27,-9 -8,-7 -12,-17 -12,-30l0 -618 -91 91c-8,7 -17,12 -28,12 -9,0 -18,-5 -27,-12 -8,-9 -13,-18 -13,-29 0,-9 4,-18 12,-27l158 -159c6,-6 11,-10 17,-13 5,-3 12,-5 18,-5 7,0 14,4 23,12 6,8 10,20 10,33l0 715zm555 -135c0,47 -17,88 -51,123 -34,34 -75,51 -124,51l-47 0c-47,0 -88,-16 -123,-50 -34,-34 -52,-75 -52,-124l0 -444c0,-47 17,-87 51,-122 34,-35 76,-53 124,-53l47 0c48,0 89,17 123,51 35,34 52,75 52,124l0 444zm-79 0l0 -445c0,-26 -9,-48 -28,-67 -18,-19 -41,-28 -67,-28l-48 0c-26,0 -49,9 -68,28 -18,18 -28,41 -28,67l0 445c0,26 9,49 28,68 19,18 41,28 68,28l48 0c25,0 48,-9 67,-28 19,-18 28,-40 28,-68zm594 -64l-317 0c-12,0 -22,-4 -29,-12 -7,-8 -10,-17 -10,-28 0,-9 3,-18 10,-27 7,-8 17,-12 29,-12l317 0c11,0 21,4 28,12 8,8 12,17 12,27 0,9 -3,18 -10,27 -7,8 -16,13 -30,13zm555 2l80 0c11,0 20,4 28,12 7,8 11,17 11,27 0,9 -3,18 -10,27 -6,8 -16,13 -29,13l-80 0 0 118c0,12 -3,22 -11,30 -7,6 -16,9 -28,9 -10,0 -20,-3 -28,-9 -8,-7 -11,-17 -11,-30l0 -118 -239 0c-27,0 -41,-11 -41,-32l1 -10 2 -9 159 -556c2,-8 7,-15 14,-21l7 -4c4,-3 9,-4 15,-4 12,0 21,4 29,12 8,7 13,16 13,27l-2 12 -145 506 187 0 0 -119c0,-11 3,-21 11,-30 8,-7 18,-10 28,-10 10,0 19,3 27,10 8,7 12,16 12,30l0 119zm1071 -240l-159 0c-23,0 -42,7 -57,23 -8,7 -14,16 -17,25 -4,10 -6,20 -6,31l0 239c0,22 7,41 23,57 8,7 16,12 25,17 12,4 22,6 32,6l79 0c22,0 41,-8 56,-23 16,-14 24,-33 24,-57l0 -318zm0 -79l0 -79c0,-23 -8,-42 -23,-57 -14,-15 -34,-23 -57,-23l-158 0c-13,0 -23,-3 -30,-11 -7,-8 -10,-18 -10,-28 0,-9 3,-18 10,-27 6,-9 16,-13 29,-13l159 0c44,0 82,16 112,47 31,31 47,68 47,112l0 476c0,43 -16,81 -47,112 -31,31 -68,46 -112,46l-79 0c-43,0 -80,-15 -112,-46 -31,-30 -47,-68 -47,-112l0 -238c0,-44 16,-82 47,-113 31,-31 68,-46 112,-46l159 0zm555 238l0 -198c0,-11 4,-21 12,-30 7,-7 17,-10 27,-10 10,0 20,3 27,10 9,7 13,16 13,30l0 476c0,12 -4,22 -12,30 -7,6 -16,9 -28,9 -10,0 -20,-3 -27,-10 -8,-6 -12,-16 -12,-29l0 -199 -239 0 0 199c0,12 -4,22 -11,30 -8,6 -17,9 -29,9 -10,0 -19,-3 -27,-9 -8,-7 -12,-17 -12,-30l0 -476c0,-11 4,-21 12,-30 8,-7 17,-10 27,-10 10,0 20,3 28,10 8,6 12,16 12,30l0 198 239 0zm555 1l0 -160 -160 0c-22,0 -42,8 -59,24 -13,15 -20,34 -20,56 0,20 7,38 20,55 14,17 34,25 59,25l160 0zm-98 79l-147 219c-3,5 -8,10 -15,15l-18 3c-8,0 -17,-3 -27,-11 -9,-8 -13,-18 -13,-29 0,-6 2,-14 6,-22l119 -178c-39,-5 -69,-24 -92,-54 -22,-32 -33,-65 -33,-102 0,-43 13,-79 40,-109 30,-33 69,-50 119,-50l198 0c26,0 40,13 40,40l0 476c0,12 -4,22 -12,30 -7,6 -16,9 -28,9 -10,0 -20,-3 -28,-9 -7,-7 -11,-17 -11,-30l0 -198 -98 0z"/>
   <g>
    <g>
     <path class="fil4" d="M3731 7583l4857 0 0 -1678 -4857 0 0 1678z"/>
     <path class="fil5" d="M7399 7374l454 0 0 -455 -454 0 0 455z"/>
     <path class="fil6" d="M5080 7529l2310 0 0 -555 -2310 0 0 555z"/>
     <path class="fil7" d="M5885 7595l705 0 0 -21 -705 0 0 21z"/>
     <path class="fil7" d="M5910 7576l656 0 0 -22 -656 0 0 22z"/>
     <path class="fil7" d="M5934 7557l608 0 0 -22 -608 0 0 22z"/>
     <path class="fil7" d="M5958 7537l560 0 0 -21 -560 0 0 21z"/>
     <path class="fil7" d="M5982 7518l511 0 0 -21 -511 0 0 21z"/>
     <path class="fil7" d="M5982 7497l511 0 0 -192 -511 0 0 192z"/>
     <path class="fil8" d="M5982 7340l511 0 0 -35 -511 0 0 35z"/>
     <path class="fil8" d="M5982 7497l29 0 0 -192 -29 0 0 192z"/>
     <path class="fil8" d="M6463 7497l30 0 0 -192 -30 0 0 192z"/>
     <path class="fil9" d="M6027 7470l74 0 0 -85 -74 0 0 85z"/>
     <path class="fil9" d="M6142 7470l75 0 0 -85 -75 0 0 85z"/>
     <path class="fil9" d="M6257 7470l75 0 0 -85 -75 0 0 85z"/>
     <path class="fil9" d="M6373 7470l74 0 0 -85 -74 0 0 85z"/>
     <path class="fil3" d="M5591 7430l87 0 0 -717 -87 0 0 717z"/>
     <path class="fil3" d="M6203 7427l87 0 0 -717 -87 0 0 717z"/>
     <path class="fil3" d="M6749 7427l87 0 0 -717 -87 0 0 717z"/>
     <path class="fil10" d="M4306 5607l0 2069 773 0 0 -746 2159 0 0 746 775 0 0 -2069 -3707 0z"/>
     <path class="fil11" d="M5591 7659l87 0 0 -231 -87 0 0 231z"/>
     <path class="fil11" d="M6203 7658l87 0 0 -231 -87 0 0 231z"/>
     <path class="fil11" d="M6749 7658l87 0 0 -231 -87 0 0 231z"/>
     <path class="fil3" d="M4385 7599l695 0 0 -595 2158 0 0 595 687 0 0 -1871 -3540 0 0 1871z"/>
     <path class="fil7" d="M4466 6294l455 0 0 -455 -455 0 0 455z"/>
     <path class="fil7" d="M4955 6294l455 0 0 -455 -455 0 0 455z"/>
     <path class="fil7" d="M5444 6294l454 0 0 -455 -454 0 0 455z"/>
     <path class="fil7" d="M5932 6294l455 0 0 -455 -455 0 0 455z"/>
     <path class="fil7" d="M6421 6294l455 0 0 -455 -455 0 0 455z"/>
     <path class="fil7" d="M6910 6294l455 0 0 -455 -455 0 0 455z"/>
     <path class="fil7" d="M7399 6294l454 0 0 -455 -454 0 0 455z"/>
     <path class="fil7" d="M4466 6826l455 0 0 -455 -455 0 0 455z"/>
     <path class="fil7" d="M4955 6826l455 0 0 -455 -455 0 0 455z"/>
     <path class="fil7" d="M5444 6826l454 0 0 -455 -454 0 0 455z"/>
     <path class="fil7" d="M5932 6826l455 0 0 -455 -455 0 0 455z"/>
     <path class="fil7" d="M6421 6826l455 0 0 -455 -455 0 0 455z"/>
     <path class="fil7" d="M6910 6826l455 0 0 -455 -455 0 0 455z"/>
     <path class="fil7" d="M7399 6826l454 0 0 -455 -454 0 0 455z"/>
     <path class="fil7" d="M4466 7355l455 0 0 -455 -455 0 0 455z"/>
     <path class="fil7" d="M7389 7355l455 0 0 -455 -455 0 0 455z"/>
     <path class="fil12" d="M5080 7160l2310 0 0 -260 -2310 0 0 260z"/>
    </g>
    <path class="fil13 str1" d="M5335 8662c0,13 -4,24 -12,33 -8,7 -19,10 -31,10 -12,0 -22,-3 -30,-11 -9,-7 -13,-18 -13,-32l0 -614 -353 635c-5,9 -11,16 -19,21l-9 5c-3,1 -8,2 -14,4 -8,-1 -18,-5 -29,-14 -7,-8 -11,-21 -11,-37l0 -782c0,-11 5,-22 13,-32 9,-7 19,-11 30,-11 11,0 22,4 30,11 9,7 14,18 14,32l0 614 352 -634c4,-7 10,-14 19,-21 8,-6 15,-9 23,-9 10,0 19,5 27,14 9,9 13,21 13,36l0 782zm260 -451l366 -363c9,-8 19,-12 30,-12 11,0 21,5 30,14 10,9 14,19 14,31 0,8 -4,17 -13,29l-259 258 267 472 6 23c0,11 -4,21 -14,29 -9,9 -19,13 -32,13 -14,0 -26,-7 -36,-23l-255 -452 -104 101 0 331c0,13 -4,24 -12,33 -8,7 -18,10 -31,10 -11,0 -22,-3 -30,-11 -9,-7 -13,-18 -13,-32l0 -783c0,-11 4,-21 13,-30 9,-8 19,-13 30,-13 11,0 21,4 30,10 9,8 13,19 13,33l0 332zm1217 451c0,13 -4,24 -12,33 -8,7 -19,10 -32,10 -10,0 -19,-3 -29,-11 -9,-7 -14,-18 -14,-32l0 -620 -179 300c-11,19 -24,28 -38,28 -13,0 -25,-9 -38,-28l-180 -300 0 620c0,13 -4,24 -13,33 -8,7 -18,10 -31,10 -11,0 -21,-3 -30,-11 -9,-7 -13,-18 -13,-32l0 -778c0,-16 4,-29 13,-37 7,-9 16,-13 27,-13 8,0 15,2 21,6 6,4 13,11 20,22l224 372 223 -372c10,-19 24,-28 41,-28 10,0 20,4 28,13 8,10 12,22 12,37l0 778zm693 -131c0,48 -17,89 -51,123 -33,34 -75,51 -122,51l-174 0c-47,0 -88,-17 -122,-50 -34,-34 -52,-75 -52,-124l0 -521c0,-48 17,-89 51,-123 34,-34 75,-51 123,-51l174 0c48,0 89,17 123,51 33,34 50,75 50,123l0 521zm-86 1l0 -522c0,-25 -8,-45 -25,-62 -16,-17 -37,-25 -62,-25l-174 0c-24,0 -45,8 -62,25 -9,8 -15,17 -19,28 -4,11 -6,22 -6,34l0 522c0,24 8,45 25,62 9,7 18,14 28,19 12,4 23,6 34,6l174 0c24,0 44,-8 61,-25 17,-16 26,-37 26,-62z"/>
   </g>
   <g>
    <path class="fil14 str2" d="M13793 7682l-1901 0 0 -1736 1901 0 0 1736z"/>
    <path class="fil15 str2" d="M13922 5964l-2159 0 139 -421 1882 0 138 421z"/>
    <path class="fil14 str2" d="M12011 5980l849 -674 862 674 -1711 0z"/>
    <path class="fil15 str2" d="M12028 6001l832 -660 845 661c12,9 29,7 38,-5 10,-12 8,-29 -4,-38l-862 -674c-10,-8 -24,-8 -34,0l-849 674c-12,9 -14,26 -5,38 10,12 27,14 39,4z"/>
    <path class="fil16 str2" d="M12282 7682l-48 0 0 -1055 48 0 0 1055z"/>
    <path class="fil16 str2" d="M13498 7682l-48 0 0 -1055 48 0 0 1055z"/>
    <path class="fil15 str2" d="M13592 6645l-1452 0 0 -169 1452 0 0 169z"/>
    <path class="fil17 str2" d="M13301 7682l-870 0 0 -971 870 0 0 971z"/>
    <path class="fil18 str2" d="M12872 7682l-12 0 0 -971 12 0 0 971z"/>
    <path class="fil18 str2" d="M12825 7231l-38 0c-8,0 -14,-6 -14,-14 0,-7 6,-13 14,-13l38 0c8,0 14,6 14,13 0,8 -6,14 -14,14z"/>
    <path class="fil18 str2" d="M12952 7231l-38 0c-8,0 -14,-6 -14,-14 0,-7 6,-13 14,-13l38 0c8,0 14,6 14,13 0,8 -6,14 -14,14z"/>
    <path class="fil19 str2" d="M12467 6391l-245 0 0 -307 245 0 0 307z"/>
    <path class="fil20 str2" d="M12467 6391l0 -12 -233 0 0 -282 221 0 0 294 12 0 0 -12 0 12 13 0 0 -319 -271 0 0 332 271 0 0 -13 -13 0z"/>
    <path class="fil19 str2" d="M12820 6391l-246 0 0 -307 246 0 0 307z"/>
    <path class="fil20 str2" d="M12820 6391l0 -12 -233 0 0 -282 220 0 0 294 13 0 0 -12 0 12 12 0 0 -319 -270 0 0 332 270 0 0 -13 -12 0z"/>
    <path class="fil19 str2" d="M13172 6391l-245 0 0 -307 245 0 0 307z"/>
    <path class="fil20 str2" d="M13172 6391l0 -12 -233 0 0 -282 221 0 0 294 12 0 0 -12 0 12 13 0 0 -319 -271 0 0 332 271 0 0 -13 -13 0z"/>
    <path class="fil19 str2" d="M13525 6391l-246 0 0 -307 246 0 0 307z"/>
    <path class="fil20 str2" d="M13525 6391l0 -12 -233 0 0 -282 221 0 0 294 12 0 0 -12 0 12 12 0 0 -319 -270 0 0 332 270 0 0 -13 -12 0z"/>
    <path class="fil13 str1" d="M12342 8357l-260 0c-47,0 -88,-17 -122,-50 -35,-34 -52,-75 -52,-123l0 -304c0,-12 4,-22 13,-32 9,-8 19,-12 30,-12 11,0 21,4 30,11 9,7 13,18 13,33l0 304c0,24 9,45 25,62 9,7 18,14 28,19 13,4 24,6 34,6l261 0 0 -391c0,-12 5,-22 13,-32 9,-8 19,-12 31,-12 11,0 21,4 29,11 9,7 14,18 14,33l0 651c0,48 -17,89 -51,123 -34,34 -75,51 -123,51l-217 0c-13,0 -24,-4 -32,-12 -7,-9 -11,-19 -11,-31 0,-10 4,-20 11,-29 8,-10 19,-14 32,-14l218 0c24,0 44,-8 61,-25 17,-16 25,-37 25,-62l0 -175zm781 305c0,13 -4,24 -12,33 -8,7 -18,10 -31,10 -11,0 -22,-3 -30,-11 -9,-7 -13,-18 -13,-32l0 -614 -353 635c-5,9 -11,16 -19,21l-9 5c-3,1 -8,2 -14,4 -8,-1 -17,-5 -28,-14 -8,-8 -11,-21 -11,-37l0 -782c0,-11 4,-22 12,-32 9,-7 19,-11 31,-11 11,0 21,4 30,11 8,7 13,18 13,32l0 614 352 -634c5,-7 11,-14 19,-21 8,-6 16,-9 23,-9 10,0 19,5 27,14 9,9 13,21 13,36l0 782zm260 -451l366 -363c9,-8 19,-12 30,-12 11,0 21,5 30,14 10,9 14,19 14,31 0,8 -4,17 -13,29l-258 258 266 472 7 23c0,11 -5,21 -15,29 -8,9 -19,13 -31,13 -14,0 -27,-7 -37,-23l-255 -452 -104 101 0 331c0,13 -4,24 -12,33 -8,7 -18,10 -31,10 -11,0 -21,-3 -30,-11 -9,-7 -13,-18 -13,-32l0 -783c0,-11 4,-21 13,-30 9,-8 19,-13 30,-13 11,0 21,4 30,10 9,8 13,19 13,33l0 332z"/>
   </g>
  </g>
 </g>
</svg>
