<?xml version="1.0" encoding="UTF-8"?>
<!DOCTYPE svg PUBLIC "-//W3C//DTD SVG 1.0//EN" "http://www.w3.org/TR/2001/REC-SVG-20010904/DTD/svg10.dtd">
<!-- Creator: CorelDRAW X7 -->
<svg xmlns="http://www.w3.org/2000/svg" xml:space="preserve" width="200mm" height="200mm" version="1.0" style="shape-rendering:geometricPrecision; text-rendering:geometricPrecision; image-rendering:optimizeQuality; fill-rule:evenodd; clip-rule:evenodd"
viewBox="0 0 20000 20000"
 xmlns:xlink="http://www.w3.org/1999/xlink">
 <defs>
  <style type="text/css">
   <![CDATA[
    .str1 {stroke:#E31E24;stroke-width:200}
    .str0 {stroke:#3A949E;stroke-width:25}
    .str2 {stroke:#E31E24;stroke-width:200}
    .fil13 {fill:none}
    .fil4 {fill:#F19321}
    .fil5 {fill:#E3E1E0}
    .fil2 {fill:#23364B}
    .fil7 {fill:black}
    .fil12 {fill:#38959F}
    .fil11 {fill:#8A8A8C}
    .fil10 {fill:#A2A3A5}
    .fil9 {fill:#C4C4C6}
    .fil8 {fill:#E7E7E8}
    .fil3 {fill:#FEFEFE}
    .fil6 {fill:white}
    .fil0 {fill:url(#id0)}
    .fil1 {fill:url(#id1)}
   ]]>
  </style>
  <radialGradient id="id0" gradientUnits="userSpaceOnUse" gradientTransform="matrix(1.41421 -0 -0 1.41421 -4142 -4140)" cx="9999.37" cy="9994.13" r="10000" fx="9999.37" fy="9994.13">
   <stop offset="0" style="stop-opacity:1; stop-color:#FEFEFE"/>
   <stop offset="0.439216" style="stop-opacity:1; stop-color:#FEFEFE"/>
   <stop offset="1" style="stop-opacity:1; stop-color:#D1E2F2"/>
  </radialGradient>
  <radialGradient id="id1" gradientUnits="userSpaceOnUse" gradientTransform="matrix(1.41421 -0 -0 1.41421 -3993 -4129)" xlink:href="#id0" cx="9640.15" cy="9969.4" r="10000" fx="9640.15" fy="9969.4">
  </radialGradient>
 </defs>
 <g id="Layer_x0020_1">
  <metadata id="CorelCorpID_0Corel-Layer"/>
  <path class="fil0" d="M-1 -6l20000 0 0 20000 -20000 0 0 -20000z"/>
  <path class="fil1" d="M-360 -31l20000 0 0 20000 -20000 0 0 -20000z"/>
  <path class="fil2" d="M5994 13362c-32,188 -210,315 -398,284l0 0c-188,-32 -315,-211 -283,-399l79 -622c32,-188 210,-161 398,-129l0 0c188,32 448,109 416,297l-212 569z"/>
  <path class="fil2" d="M13286 13362c32,188 210,315 398,284l0 0c188,-32 315,-211 283,-399l-79 -622c-32,-188 -209,-161 -398,-129l0 0c-188,32 -447,109 -416,297l212 569z"/>
  <path class="fil2" d="M9222 7229c0,519 -421,940 -940,940 -519,0 -941,-421 -941,-940 0,-520 422,-941 941,-941 519,0 940,421 940,941z"/>
  <path class="fil2" d="M14952 11798c0,673 -547,1220 -1220,1220l-8183 0c-674,0 -1220,-547 -1220,-1220l0 -3906c0,-674 546,-1220 1220,-1220l8183 0c673,0 1220,546 1220,1220l0 3906z"/>
  <path class="fil3" d="M11424 7422l-5183 0c-674,0 -1220,546 -1220,1220l0 2723c0,379 173,718 444,942l6826 -4523c-221,-223 -528,-362 -867,-362z"/>
  <path class="fil3" d="M5465 12307c211,173 481,278 776,278l5183 0c674,0 1220,-546 1220,-1220l0 -2723c0,-334 -135,-637 -353,-858l-6826 4523z"/>
  <path class="fil4" d="M13311 8569c0,102 -82,184 -184,184 -102,0 -184,-82 -184,-184 0,-102 82,-184 184,-184 102,0 184,82 184,184z"/>
  <path class="fil4" d="M13947 8569c0,102 -82,184 -184,184 -102,0 -184,-82 -184,-184 0,-102 82,-184 184,-184 102,0 184,82 184,184z"/>
  <path class="fil4" d="M14583 8569c0,102 -82,184 -184,184 -101,0 -184,-82 -184,-184 0,-102 83,-184 184,-184 102,0 184,82 184,184z"/>
  <path class="fil5" d="M14618 9299l-1675 0 0 -267 1675 0 0 267z"/>
  <path class="fil5" d="M14618 9904l-1675 0 0 -266 1675 0 0 266z"/>
  <path class="fil5" d="M14618 10510l-1675 0 0 -266 1675 0 0 266z"/>
  <path class="fil5" d="M14618 11116l-1675 0 0 -266 1675 0 0 266z"/>
  <g id="_436025634128">
   <path class="fil6" d="M8718 11810c1,4 -1,1 3,3 3,2 25,4 32,10 9,7 7,25 2,35 -4,18 -22,44 -30,54 -1,17 4,21 12,30 7,9 13,14 19,21 5,3 5,2 8,6 25,25 13,29 7,60l-102 0c-12,-2 10,3 -3,-1l-2 -1c-2,-8 0,-14 -4,-21 -8,-15 -15,-25 -27,-33 -1,-1 -4,-2 -4,-3 -2,-2 -1,-1 -3,-3 -10,-4 -26,-11 -30,-21 -3,-7 -2,-15 0,-22 2,-8 5,-11 12,-13 13,-6 28,-3 42,-6l-3 -26c-1,-8 -3,-16 -4,-25 -2,-3 -7,-14 -8,-17 -2,-10 1,-13 1,-22 -17,-26 3,-30 10,-95 -15,-2 -34,-1 -46,-7 -10,-5 -16,-23 -9,-37 5,-10 19,-14 31,-20 11,-7 18,-14 25,-26 11,-17 10,-19 10,-43 -1,-55 -10,-75 -6,-145 -13,-8 -16,-4 -16,-26 1,-11 4,-28 -3,-35 -4,-5 -12,-6 -20,-20 -13,-20 -38,-125 -45,-153 -21,-85 -44,-165 -62,-252 -11,-53 -16,-87 -5,-142 14,-75 14,-40 20,-58 7,-18 -4,-16 -11,-23 -8,-8 0,-19 4,-27 7,-16 12,-43 18,-61 8,-24 11,-40 9,-68 -1,-23 -7,-129 -16,-142 -7,-4 -41,-4 -56,-9 -13,-5 -37,5 -51,10 -49,19 -55,27 -104,18 -52,-10 -45,-3 -110,-21l-80 -18c-16,-3 -14,-2 -27,2 1,12 -2,18 -7,26 -5,6 -9,14 -16,16 -4,-4 -1,-1 -4,-6l-3 -5c-10,18 -17,-2 -13,-20 -13,3 -22,-3 -30,-10 -7,-6 -1,-6 -6,-14 -4,-7 -3,2 -3,-8 0,-3 1,-4 1,-9l-10 -4c1,-4 8,-20 -2,-23 -4,26 9,36 -2,67 -39,5 -29,-34 -33,-64 -2,-10 -6,-16 -7,-27 -2,-20 4,-44 -5,-62 -7,-16 -14,-13 -22,-43 -15,-53 -7,-44 -34,-100 -32,-66 -58,-103 -90,-175 -23,-52 -19,-54 -29,-105 -10,-51 -27,-107 -41,-157 -4,-11 -11,-43 -15,-50 -7,14 -29,84 -40,111 -17,46 -25,73 -15,127 15,91 56,122 95,207 39,85 85,233 121,332 7,19 13,37 21,55 4,12 20,43 22,53 -18,3 -37,-2 -51,4 -19,7 -25,4 -44,8 -16,3 -30,7 -45,9 -16,2 -35,-2 -46,7 -13,10 -20,62 -25,82 -22,92 -46,184 -33,281 9,67 24,120 17,192 -14,120 -77,228 -76,351 0,18 2,34 3,51 2,17 2,34 3,50 2,27 5,71 15,92 15,30 18,48 22,85 3,34 14,66 -17,79 3,4 12,7 17,11 4,4 8,10 10,19 1,11 -4,36 -5,48 -1,27 -7,53 -15,74 -5,18 -20,33 -16,56 0,11 -3,27 -4,38 -2,12 -2,24 -3,36 -1,25 -6,51 -6,73l-80 0c-4,-3 -15,-50 -17,-60 -3,-19 -4,-56 -2,-76 2,-21 -12,-45 -14,-67 0,-12 -2,-23 -2,-35 -1,-14 -1,-25 -1,-39 0,-21 -3,-30 6,-49 12,-24 29,-21 29,-27 -14,-7 -17,-6 -27,-17 -18,-20 -14,-47 -13,-71 1,-14 0,-27 1,-42 2,-29 11,-46 15,-72 4,-27 -1,-57 2,-83 4,-24 13,-46 16,-71 4,-27 5,-54 6,-82 0,-55 -3,-108 -9,-163 -6,-50 -17,-109 -10,-159 11,-74 17,-74 4,-156 -13,-83 -10,-79 -12,-161 0,-36 0,-137 -5,-167 -11,1 -27,4 -36,7 -14,5 -11,14 -13,30 -4,26 -8,50 -12,75 -8,52 -12,104 -20,155 -6,37 -12,40 9,67 11,15 24,34 32,55 17,50 7,106 11,161 3,25 5,54 9,79 4,28 13,40 23,63 14,33 1,46 2,78 0,31 1,54 -1,84 -4,58 4,108 -31,144 -18,18 -92,15 -116,-38 -19,-39 8,-107 16,-146 5,-24 9,-49 15,-72 6,-26 22,-59 23,-64 4,-35 -50,-92 -64,-111 -24,-31 -44,-68 -61,-112 -11,-28 -13,-39 -15,-72 -1,-33 -7,-45 -13,-73 -11,-48 0,-111 -10,-163 -9,-50 -24,-91 -30,-144 -4,-28 -40,-4 -67,-17 -17,-8 -17,-6 -35,-4 -14,1 -9,-3 -14,-7 -5,-4 -11,-2 -19,-2 3,-12 13,-35 19,-48 7,-17 13,-33 19,-50 18,-49 47,-157 62,-212 10,-37 17,-73 26,-111 18,-82 43,-142 40,-234 -1,-44 -11,-80 -15,-122 -5,-42 -4,-86 -11,-126 -7,9 -11,26 -17,38 -6,13 -12,24 -17,36 -10,20 -27,53 -31,76 -5,31 4,48 -8,101 -7,28 -17,54 -26,81 -9,27 -17,55 -25,83 -13,44 -29,94 -14,136 22,60 -9,45 -3,88 2,15 5,31 -4,42 -26,3 -30,-18 -32,-41 -20,13 -16,71 1,93 9,13 7,27 17,42 7,12 20,25 8,41 -13,-2 -8,-7 -22,-17 -9,-5 -10,-15 -16,-23 -3,11 -1,19 -12,23 -5,-3 -13,-18 -17,-26 -5,-15 0,-24 -1,-39 -1,-20 -12,-45 -23,-62l0 2009 3908 0 0 -2432c-11,17 -2,9 -20,28 -16,17 4,36 -3,86 -3,22 -9,23 -16,32 -2,2 -1,0 -2,4l-2 40c-1,16 -1,33 -1,49 0,31 1,63 2,95 5,95 41,167 7,257 -8,21 -17,59 -32,65 -4,-5 -9,-14 -12,-21 -4,-10 -3,-17 1,-26 10,-27 -7,-16 8,-53 7,-20 4,-34 -2,-54 -9,-31 -3,-32 -28,-37 -10,17 3,65 -23,65 -25,0 -13,-51 -15,-64 -1,-9 -12,-6 -18,-4l-13 5c0,-1 0,0 -1,0 3,55 13,112 19,167 6,57 10,114 8,173 0,30 -3,56 -7,85 -14,105 -2,83 4,167 3,30 -3,50 -8,79 -9,53 -13,108 -24,160 -12,59 -73,202 -60,257 3,13 8,18 10,35 3,47 -25,114 -62,120 8,27 69,96 82,156 7,30 1,43 -11,62 0,5 -1,3 5,9 18,16 17,54 9,71 -2,10 -6,19 -10,27 -3,6 -8,15 -10,21 -9,19 -56,84 -56,91l-1 6c30,12 45,41 53,71 10,37 8,52 -3,81 -4,10 -3,16 -3,28 -8,-5 -84,-1 -100,-1l-305 0c1,-13 5,-34 7,-47 12,-65 -12,-106 -8,-131 1,-8 4,-8 5,-9 4,-14 20,-24 27,-41 7,-17 2,-30 1,-48 -1,-10 0,-11 3,-15 1,-14 13,-3 27,-5 0,-13 -14,-21 -21,-28 -3,-4 -8,-8 -11,-14 -2,-6 -3,-22 -2,-19 1,-9 3,-16 0,-25 -2,-7 -5,-9 -6,-17l-5 -4c2,-11 8,-11 7,-29 -1,-11 -4,-23 2,-32 5,-9 33,-28 30,-39 -12,-4 -12,3 -23,1 -16,-15 7,-48 -12,-78 -12,-19 -34,-30 -26,-64 15,-64 11,-97 -5,-163 -12,-53 -24,-98 -32,-156 -21,-171 -18,-348 -37,-520 -7,-58 -14,-112 -17,-171 -3,-60 -4,-120 -6,-180 -6,-6 -30,-15 -39,-19 -10,-103 35,-219 40,-324 3,-38 9,-141 4,-172 -6,-34 -20,-49 -42,-20 -40,52 7,113 -55,127 -39,8 -36,11 -57,33 -32,31 -38,14 -57,34 -21,21 -87,68 -60,111 7,11 15,14 10,33l-28 63c-9,16 -9,12 -25,20 -8,3 -1,1 -9,13 -9,12 -27,24 -45,23 -17,40 -25,91 -42,134 -13,32 -17,39 -40,47 -20,6 -54,7 -70,17l0 23c-16,6 -67,18 -85,19 -25,2 -20,5 -30,22 -12,19 -32,26 -34,43l-6 71c-5,66 -13,179 3,243 2,7 5,15 3,23 -1,11 -4,5 -1,20 5,28 14,56 18,85 3,26 13,13 22,29 8,16 -3,28 -11,35 0,23 0,50 4,72 3,23 1,46 4,69 6,43 9,92 17,133 7,39 9,31 19,57 8,22 -5,47 3,68 9,24 21,24 10,57 -13,38 -25,23 -46,28 0,5 3,6 4,11 2,4 2,8 3,13 8,21 29,39 34,63 4,20 -5,36 -19,43 -17,9 -37,1 -50,-7 -34,-20 -33,-39 -45,-83 -4,-14 -16,-36 -16,-48 0,-8 2,-6 -2,-11 -11,-12 -10,-14 -10,-38 1,-22 -5,-36 -9,-56 -6,-24 0,-35 2,-57 2,-18 -4,-39 -7,-58 -2,-20 -8,-32 -13,-50 -5,-18 -2,-37 -7,-57 -5,-17 -10,-32 -13,-51 -4,-18 -6,-36 -10,-54 -2,-9 -5,-16 -8,-25 -3,-9 -3,-15 -11,-21 -20,14 -18,127 -19,147 -2,26 -6,51 -6,77 -1,29 0,49 -4,77 -5,40 -8,117 -1,156 4,28 6,44 -2,72 -16,54 -3,50 -9,65 -3,8 -19,5 -27,9 1,10 3,18 4,28 0,12 2,19 -5,25 -6,7 -30,22 -33,26 0,5 -1,1 2,4l10 9c34,25 31,18 32,45l-5 31c6,0 11,1 16,1 2,1 5,1 7,2 9,4 4,10 6,23 0,39 15,56 12,73 -2,1 1,1 -4,2l-150 0c0,-33 -9,-36 -18,-64 2,-4 0,-12 0,-17 0,-23 5,-18 44,-22 -5,-7 -11,-9 -15,-18 -5,-11 -4,-4 -8,-12 -7,-7 -14,-15 -22,-21 -9,-7 -20,-12 -24,-21 -5,-10 -14,-17 0,-29 6,-5 17,-12 24,-18l22 -23c3,-4 1,-3 4,-7 3,-5 11,-12 12,-17l-32 -3c-29,-4 1,-60 5,-73 7,-27 -8,-49 2,-80 8,-26 14,-41 17,-72 5,-56 4,-114 6,-171 1,-30 -7,-57 -5,-83 3,-32 -3,-53 -3,-83 0,-25 9,-56 0,-80 -1,-2 -2,-1 -4,-1 -12,-2 -17,-20 -22,-29 -7,-14 -17,-24 -18,-42 -1,-18 6,-38 0,-56l-16 -42c-12,-32 -13,-40 -18,-71 -2,-10 -5,-15 -7,-23 -3,-19 19,-68 22,-93 -4,-3 -5,-2 -9,-5 -4,-31 9,-116 19,-144 20,-57 53,-48 101,-64 14,-5 17,-10 26,-15 7,-4 7,-1 14,-7 11,-11 21,-22 20,-41 -1,-10 -9,-16 -13,-27 -2,-6 -4,-11 -5,-17 -2,-9 -1,-9 -7,-13 -11,-7 -9,-13 -13,-28 -2,-9 -7,-24 -6,-34 2,-11 10,-10 0,-27l-2 -3c12,-18 0,-11 1,-25 1,-8 1,-3 0,-7 0,-9 5,-3 5,-16 0,-6 3,-11 6,-16 3,-4 4,-4 6,-7 5,-6 0,1 3,-6 2,-5 2,-3 4,-7l2 -4c6,-13 27,-6 37,-14 3,-4 2,-5 4,-11 1,-3 3,-6 4,-9 3,-5 9,-12 15,-13 -4,10 -12,9 -14,27 6,-3 6,-5 13,-8 2,2 1,3 3,5 36,-10 33,-1 50,-1 17,-1 30,-2 46,11 6,4 15,18 19,25 5,10 11,19 14,30 2,12 -2,15 5,25 -3,8 -2,-2 -4,8 -1,5 0,5 -2,10 -2,7 -3,7 -3,16l-3 22c-2,15 13,3 -12,52 -10,19 -8,17 -26,20 -8,16 -22,29 -23,52 -1,29 14,30 32,41 4,-3 10,-14 13,-19 15,-24 94,-30 122,-34 18,-2 34,-6 51,-9 4,3 2,2 5,7 68,-10 51,-12 56,-22 7,-14 7,-6 13,-29 11,-41 56,-99 52,-112 -6,-21 5,-31 4,-50 -1,-18 25,-58 36,-75 21,-36 20,-20 24,-32 7,-19 9,-22 20,-38 17,-26 50,-84 52,-116 3,-53 24,-58 28,-82 3,-15 -11,-26 -6,-49 4,-14 16,-23 26,-30 13,-9 23,-14 28,-29 6,-17 3,-31 16,-41 15,-13 14,-13 22,-34 8,-21 24,-61 29,-82 4,-16 6,-31 9,-47 5,-33 8,-65 14,-98 13,-72 29,-118 73,-152 43,-33 102,-51 169,-55 0,-3 -6,-21 -8,-26 -7,-21 -21,-25 -29,-41 -8,-17 -3,-41 -11,-58 -3,-6 -10,-17 -12,-23 -1,-6 1,-9 -3,-14 -4,-5 -6,-1 -8,-8 -2,-6 0,-12 -3,-16 -2,-4 -7,-1 -8,-1 0,-1 0,0 -1,0 -4,-13 1,-20 5,-30 -4,-2 -1,-1 -4,-2 -1,0 -2,1 -3,-1 0,-1 0,0 -1,-1 5,-5 12,-6 11,-16 -5,-3 -5,-1 -12,0 2,-10 5,-4 8,-13 -4,-4 -12,-7 -17,-10 3,-4 3,-1 5,-7 -3,-6 -3,-2 -6,-10 8,2 7,2 12,-1 7,-4 8,-1 11,-9 7,-19 6,-15 4,-25 10,3 14,7 15,-6 0,-4 -1,-4 0,-8 2,-6 4,-8 5,-15 12,-1 16,1 18,-12l10 0c8,-19 13,1 26,-13 7,-8 3,-4 12,-8 8,-4 3,-4 8,-10 12,-2 12,5 21,-1 14,-11 8,-2 19,-4 10,-2 -1,-9 17,-6 7,1 16,0 22,-3l-2790 0c11,5 27,6 40,11 28,9 40,5 72,30 20,16 5,7 28,21 17,10 40,32 46,54l15 61c2,8 2,13 3,22 5,3 3,-4 4,4 0,6 -5,24 -6,32 -3,33 -14,48 -25,77 -4,11 -10,23 -18,31 -15,17 -29,34 -43,57 -7,12 -29,56 -32,70 52,10 91,29 123,55 14,11 27,33 32,57 5,27 5,54 5,82 0,73 -11,92 7,164 13,47 19,96 36,140 48,130 40,186 71,282 13,38 19,65 44,90 8,8 11,14 21,23l45 43c20,25 16,32 18,69 12,3 24,8 38,11 69,16 118,6 179,16 12,2 28,8 40,6 13,-3 68,-18 75,-23 4,-8 5,-16 10,-23 5,-9 10,-10 15,-18 6,-7 6,-13 16,-17 4,-2 21,-5 26,-5 34,-1 22,7 53,-8 11,-6 32,-17 43,-20 1,-79 -31,-254 45,-281 10,-3 15,-2 25,-3 5,-1 12,-6 20,-8 44,-10 87,22 108,56 15,24 22,55 24,88 1,19 -1,37 0,55 1,27 12,51 9,76 -1,11 -10,25 -14,28 0,0 -1,0 -1,0 0,0 -1,0 -1,0 0,0 -1,1 -2,1l-23 8c6,11 21,12 31,20 10,9 11,16 26,23 26,14 46,9 71,28 27,21 53,71 41,100 -4,9 -16,24 -22,27 3,31 33,78 39,126 2,14 -1,23 7,34 7,8 11,12 17,24 25,47 30,105 52,152 5,12 7,17 15,24 11,11 34,26 39,43 2,7 0,10 4,18 6,14 8,40 -4,46 -9,-11 -6,-29 -12,-43 -2,2 -7,16 -8,20 -1,10 5,10 3,23l-21 -5 2 -17c-8,6 -6,15 -19,16 -3,-19 18,-41 2,-50 -2,15 -3,33 -16,36 -3,-15 1,-19 2,-32 1,-14 -6,-17 -12,-23 -11,-12 -7,-11 -11,-27 -5,-21 -55,-87 -69,-115 -9,-17 -15,-34 -24,-50 -28,-46 -27,-106 -54,-168 -3,4 -4,8 -5,13 -17,54 -31,91 -34,150 -2,44 4,38 7,59 -6,4 -10,6 -19,9 3,19 23,40 29,69 17,83 -12,176 -25,257 -14,91 -23,177 -22,270 0,24 7,72 -3,91 -7,4 -18,5 -28,6 -4,42 -27,68 -9,113 5,12 27,62 24,77 -4,16 -29,33 -46,55 -22,28 15,34 25,90 5,23 -9,28 -34,31z"/>
   <path class="fil7" d="M9143 11823c21,8 39,9 65,7 10,-1 20,-4 29,-7 12,-5 14,-9 23,-15 3,-4 27,-19 33,-26 7,-6 5,-13 5,-25 -1,-10 -3,-18 -4,-28 8,-4 24,-1 27,-9 6,-15 -7,-11 9,-65 8,-28 6,-44 2,-72 -7,-39 -4,-116 1,-156 4,-28 3,-48 4,-77 0,-26 4,-51 6,-77 1,-20 -1,-133 19,-147 8,6 8,12 11,21 3,9 6,16 8,25 4,18 6,36 10,54 3,19 8,34 13,51 5,20 2,39 7,57 5,18 11,30 13,50 3,19 9,40 7,58 -2,22 -8,33 -2,57 4,20 10,34 9,56 0,24 -1,26 10,38 4,5 2,3 2,11 0,12 12,34 16,48 12,44 11,63 45,83 13,8 33,16 50,7 14,-7 23,-23 19,-43 -5,-24 -26,-42 -34,-63 -1,-5 -1,-9 -3,-13 -1,-5 -4,-6 -4,-11 21,-5 33,10 46,-28 11,-33 -1,-33 -10,-57 -8,-21 5,-46 -3,-68 -10,-26 -12,-18 -19,-57 -8,-41 -11,-90 -17,-133 -3,-23 -1,-46 -4,-69 -4,-22 -4,-49 -4,-72 8,-7 19,-19 11,-35 -9,-16 -19,-3 -22,-29 -4,-29 -13,-57 -18,-85 -3,-15 0,-9 1,-20 2,-8 -1,-16 -3,-23 -16,-64 -8,-177 -3,-243l6 -71c2,-17 22,-24 34,-43 10,-17 5,-20 30,-22 18,-1 69,-13 85,-19l0 -23c16,-10 50,-11 70,-17 23,-8 27,-15 40,-47 17,-43 25,-94 42,-134 18,1 36,-11 45,-23 8,-12 1,-10 9,-13 16,-8 16,-4 25,-20l28 -63c5,-19 -3,-22 -10,-33 -27,-43 39,-90 60,-111 19,-20 25,-3 57,-34 21,-22 18,-25 57,-33 62,-14 15,-75 55,-127 22,-29 36,-14 42,20 5,31 -1,134 -4,172 -5,105 -50,221 -40,324 9,4 33,13 39,19 2,60 3,120 6,180 3,59 10,113 17,171 19,172 16,349 37,520 8,58 20,103 32,156 16,66 20,99 5,163 -8,34 14,45 26,64 19,30 -4,63 12,78 11,2 11,-5 23,-1 3,11 -25,30 -30,39 -6,9 -3,21 -2,32 1,18 -5,18 -7,29l5 4c24,5 65,6 93,6 21,0 79,3 90,-9 0,-8 -2,-19 -1,-26 1,-8 5,-15 6,-25 2,-20 -1,-41 -1,-61 20,3 49,73 75,93 8,6 27,18 36,21l6 3c2,2 3,2 5,3 22,8 48,14 69,5 11,-5 13,-10 21,-15 12,-19 18,-32 11,-62 -13,-60 -74,-129 -82,-156 37,-6 65,-73 62,-120 -2,-17 -7,-22 -10,-35 -13,-55 48,-198 60,-257 11,-52 15,-107 24,-160 5,-29 11,-49 8,-79 -6,-84 -18,-62 -4,-167 4,-29 7,-55 7,-85 2,-59 -2,-116 -8,-173 -6,-55 -16,-112 -19,-167 1,0 1,-1 1,0l13 -5c6,-2 17,-5 18,4 2,13 -10,64 15,64 26,0 13,-48 23,-65 25,5 19,6 28,37 6,20 9,34 2,54 -15,37 2,26 -8,53 -4,9 -5,16 -1,26 3,7 8,16 12,21 15,-6 24,-44 32,-65 34,-90 -2,-162 -7,-257 -1,-32 -2,-64 -2,-95 0,-16 0,-33 1,-49l2 -40c1,-4 0,-2 2,-4 7,-9 13,-10 16,-32 7,-50 -13,-69 3,-86 18,-19 9,-11 20,-28l0 -22c-1,-1 1,1 -2,-3l-4 -8c-2,-4 -3,-5 -7,-9 -29,-38 -28,-23 -26,-69 1,-25 -23,-20 -22,-44 0,-12 4,-19 1,-31 -2,-8 -7,-15 -10,-22 -21,-44 4,-158 -8,-244 -5,-38 -18,-72 -38,-93 -21,-23 -48,-43 -79,-53 -17,-5 -36,-8 -55,-11 -68,-10 -54,-3 -69,-29l-37 -59c3,-2 -1,-1 7,-2l2 0c-8,-20 4,-25 -3,-37 -7,-10 -6,-25 -5,-37 2,-20 -3,-28 -2,-44 0,-23 12,-9 -7,-30 -7,-7 -4,-9 -6,-19 -1,-8 -5,-10 -8,-15 -4,-10 2,-10 0,-19 -3,-7 -8,-7 -9,-14 -1,-9 3,-2 -1,-10 -1,-1 -4,-4 -4,-6 -2,-5 13,-17 -28,-35 2,-9 2,-2 4,-8 -11,-6 -11,-2 -14,-9 4,-4 2,-1 8,-4 -12,-7 -22,-4 -34,-10 -5,-2 -8,-5 -13,-7 -6,-3 -10,-3 -14,-5 3,-5 -1,0 8,-5 0,0 1,-1 1,-1 0,-1 1,-1 1,-1 -8,-3 -13,0 -23,-1 -2,-3 -1,-2 -2,-5l-10 0c-6,3 -15,4 -22,3 -18,-3 -7,4 -17,6 -11,2 -5,-7 -19,4 -9,6 -9,-1 -21,1 -5,6 0,6 -8,10 -9,4 -5,0 -12,8 -13,14 -18,-6 -26,13l-10 0c-2,13 -6,11 -18,12 -1,7 -3,9 -5,15 -1,4 0,4 0,8 -1,13 -5,9 -15,6 2,10 3,6 -4,25 -3,8 -4,5 -11,9 -5,3 -4,3 -12,1 3,8 3,4 6,10 -2,6 -2,3 -5,7 5,3 13,6 17,10 -3,9 -6,3 -8,13 7,-1 7,-3 12,0 1,10 -6,11 -11,16 1,1 1,0 1,1 1,2 2,1 3,1 3,1 0,0 4,2 -4,10 -9,17 -5,30 1,0 1,-1 1,0 1,0 6,-3 8,1 3,4 1,10 3,16 2,7 4,3 8,8 4,5 2,8 3,14 2,6 9,17 12,23 8,17 3,41 11,58 8,16 22,20 29,41 2,5 8,23 8,26 -67,4 -126,22 -169,55 -44,34 -60,80 -73,152 -6,33 -9,65 -14,98 -3,16 -5,31 -9,47 -5,21 -21,61 -29,82 -8,21 -7,21 -22,34 -13,10 -10,24 -16,41 -5,15 -15,20 -28,29 -10,7 -22,16 -26,30 -5,23 9,34 6,49 -4,24 -25,29 -28,82 -2,32 -35,90 -52,116 -11,16 -13,19 -20,38 -4,12 -3,-4 -24,32 -11,17 -37,57 -36,75 1,19 -10,29 -4,50 4,13 -41,71 -52,112 -6,23 -6,15 -13,29 -5,10 12,12 -56,22 -3,-5 -1,-4 -5,-7 -17,3 -33,7 -51,9 -28,4 -107,10 -122,34 -3,5 -9,16 -13,19 -18,-11 -33,-12 -32,-41 1,-23 15,-36 23,-52 18,-3 16,-1 26,-20 25,-49 10,-37 12,-52l3 -22c0,-9 1,-9 3,-16 2,-5 1,-5 2,-10 2,-10 1,0 4,-8 -7,-10 -3,-13 -5,-25 -3,-11 -9,-20 -14,-30 -4,-7 -13,-21 -19,-25 -16,-13 -29,-12 -46,-11 -17,0 -14,-9 -50,1 -2,-2 -1,-3 -3,-5 -7,3 -7,5 -13,8 2,-18 10,-17 14,-27 -6,1 -12,8 -15,13 -1,3 -3,6 -4,9 -2,6 -1,7 -4,11 -10,8 -31,1 -37,14l-2 4c-2,4 -2,2 -4,7 -3,7 2,0 -3,6 -2,3 -3,3 -6,7 -3,5 -6,10 -6,16 0,13 -5,7 -5,16 1,4 1,-1 0,7 -1,14 11,7 -1,25l2 3c10,17 2,16 0,27 -1,10 4,25 6,34 4,15 2,21 13,28 6,4 5,4 7,13 1,6 3,11 5,17 4,11 12,17 13,27 1,19 -9,30 -20,41 -7,6 -7,3 -14,7 -9,5 -12,10 -26,15 -48,16 -81,7 -101,64 -10,28 -23,113 -19,144 4,3 5,2 9,5 -3,25 -25,74 -22,93 2,8 5,13 7,23 5,31 6,39 18,71l16 42c6,18 -1,38 0,56 1,18 11,28 18,42 5,9 10,27 22,29 2,0 3,-1 4,1 9,24 0,55 0,80 0,30 6,51 3,83 -2,26 6,53 5,83 -2,57 -1,115 -6,171 -3,31 -9,46 -17,72 -10,31 5,53 -2,80 -4,13 -34,69 -5,73l32 3c-1,5 -9,12 -12,17 -3,4 -1,3 -4,7l-22 23c-7,6 -18,13 -24,18 -14,12 -5,19 0,29z"/>
   <path class="fil7" d="M6998 10320c11,17 22,42 23,62 1,15 -4,24 1,39 4,8 12,23 17,26 11,-4 9,-12 12,-23 6,8 7,18 16,23 14,10 9,15 22,17 12,-16 -1,-29 -8,-41 -10,-15 -8,-29 -17,-42 -17,-22 -21,-80 -1,-93 2,23 6,44 32,41 9,-11 6,-27 4,-42 -6,-43 25,-28 3,-88 -15,-42 1,-92 14,-136 8,-28 16,-56 25,-83 9,-27 19,-53 26,-81 12,-53 3,-70 8,-101 4,-23 21,-56 31,-76 5,-12 11,-23 17,-36 6,-12 10,-29 17,-38 7,40 6,84 11,126 4,42 14,78 15,122 3,92 -22,152 -40,234 -9,38 -16,74 -26,111 -15,55 -44,163 -62,212 -6,17 -12,33 -19,50 -6,13 -16,36 -19,48 8,0 14,-2 19,2 5,4 0,8 14,7 18,-2 18,-4 35,4 27,13 63,-11 67,17 6,53 21,94 30,144 10,52 -1,115 10,163 6,28 12,40 13,73 2,33 4,44 15,72 17,44 37,81 61,112 14,19 68,76 64,111 -1,5 -17,38 -23,64 -6,23 -10,48 -15,72 -8,39 -35,107 -16,146 24,53 98,56 116,38 35,-36 27,-86 31,-144 2,-30 1,-53 1,-84 -1,-32 12,-45 -2,-78 -10,-23 -19,-35 -23,-63 -4,-25 -6,-54 -9,-79 -4,-55 6,-111 -11,-161 -8,-21 -21,-40 -32,-55 -21,-27 -15,-30 -9,-67 8,-51 12,-103 20,-155 4,-25 8,-49 12,-75 2,-16 -1,-25 13,-30 9,-3 25,-6 36,-7 5,30 5,131 5,167 2,82 -1,78 12,161 13,82 7,82 -4,156 -7,50 4,109 10,159 6,55 9,108 9,163 -1,28 -2,55 -6,82 -3,25 -12,47 -16,71 -3,26 2,56 -2,83 -4,26 -13,43 -15,72 -1,15 0,28 -1,42 -1,24 -5,51 13,71 10,11 13,10 27,17 30,9 76,13 103,-2 31,-13 20,-45 17,-79 -4,-37 -7,-55 -22,-85 -10,-21 -13,-65 -15,-92 -1,-16 -1,-33 -3,-50 -1,-17 -3,-33 -3,-51 -1,-123 62,-231 76,-351 7,-72 -8,-125 -17,-192 -13,-97 11,-189 33,-281 5,-20 12,-72 25,-82 11,-9 30,-5 46,-7 15,-2 29,-6 45,-9 19,-4 25,-1 44,-8 14,-6 33,-1 51,-4 -2,-10 -18,-41 -22,-53 -8,-18 -14,-36 -21,-55 -36,-99 -82,-247 -121,-332 -39,-85 -80,-116 -95,-207 -10,-54 -2,-81 15,-127 11,-27 33,-97 40,-111 4,7 11,39 15,50 14,50 31,106 41,157 10,51 6,53 29,105 32,72 58,109 90,175 27,56 19,47 34,100 8,30 15,27 22,43 9,18 3,42 5,62 1,11 5,17 7,27 4,30 -6,69 33,64 11,-31 -2,-41 2,-67 10,3 3,19 2,23l10 4c0,5 -1,6 -1,9 0,10 -1,1 3,8 5,8 -1,8 6,14 8,7 17,13 30,10 -4,18 3,38 13,20l3 5c3,5 0,2 4,6 7,-2 11,-10 16,-16 5,-8 8,-14 7,-26 13,-4 11,-5 27,-2l80 18c65,18 58,11 110,21 49,9 55,1 104,-18 14,-5 38,-15 51,-10 15,5 49,5 56,9 9,13 15,119 16,142 2,28 -1,44 -9,68 -6,18 -11,45 -18,61 -4,8 -12,19 -4,27 7,7 18,5 11,23 -6,18 -6,-17 -20,58 -11,55 -6,89 5,142 18,87 41,167 62,252 7,28 32,133 45,153 8,14 16,15 20,20 7,7 4,24 3,35 0,22 3,18 16,26 -4,70 5,90 6,145 0,24 1,26 -10,43 -7,12 -14,19 -25,26 -12,6 -26,10 -31,20 -7,14 -1,32 9,37 12,6 31,5 46,7 -7,65 -27,69 -10,95 11,9 23,7 40,4 8,-1 13,-3 21,-4 7,-1 15,-4 21,-5 25,-3 39,-8 34,-31 -10,-56 -47,-62 -25,-90 17,-22 42,-39 46,-55 3,-15 -19,-65 -24,-77 -18,-45 5,-71 9,-113 10,-1 21,-2 28,-6 10,-19 3,-67 3,-91 -1,-93 8,-179 22,-270 13,-81 42,-174 25,-257 -6,-29 -26,-50 -29,-69 9,-3 13,-5 19,-9 -3,-21 -9,-15 -7,-59 3,-59 17,-96 34,-150 1,-5 2,-9 5,-13 27,62 26,122 54,168 9,16 15,33 24,50 14,28 64,94 69,115 4,16 0,15 11,27 6,6 13,9 12,23 -1,13 -5,17 -2,32 13,-3 14,-21 16,-36 16,9 -5,31 -2,50 13,-1 11,-10 19,-16l-2 17 21 5c2,-13 -4,-13 -3,-23 1,-4 6,-18 8,-20 6,14 3,32 12,43 12,-6 10,-32 4,-46 -4,-8 -2,-11 -4,-18 -5,-17 -28,-32 -39,-43 -8,-7 -10,-12 -15,-24 -22,-47 -27,-105 -52,-152 -6,-12 -10,-16 -17,-24 -8,-11 -5,-20 -7,-34 -6,-48 -36,-95 -39,-126 6,-3 18,-18 22,-27 12,-29 -14,-79 -41,-100 -25,-19 -45,-14 -71,-28 -15,-7 -16,-14 -26,-23 -10,-8 -25,-9 -31,-20l23 -8c1,0 2,-1 2,-1 0,0 1,0 1,0 0,0 1,0 1,0 4,-3 13,-17 14,-28 3,-25 -8,-49 -9,-76 -1,-18 1,-36 0,-55 -2,-33 -9,-64 -24,-88 -21,-34 -64,-66 -108,-56 -8,2 -15,7 -20,8 -10,1 -15,0 -25,3 -76,27 -44,202 -45,281 -11,3 -32,14 -43,20 -31,15 -19,7 -53,8 -5,0 -22,3 -26,5 -10,4 -10,10 -16,17 -5,8 -10,9 -15,18 -5,7 -6,15 -10,23 -7,5 -62,20 -75,23 -12,2 -28,-4 -40,-6 -61,-10 -110,0 -179,-16 -14,-3 -26,-8 -38,-11 -2,-37 2,-44 -18,-69l-45 -43c-10,-9 -13,-15 -21,-23 -25,-25 -31,-52 -44,-90 -31,-96 -23,-152 -71,-282 -17,-44 -23,-93 -36,-140 -18,-72 -7,-91 -7,-164 0,-28 0,-55 -5,-82 -5,-24 -18,-46 -32,-57 -32,-26 -71,-45 -123,-55 3,-14 25,-58 32,-70 14,-23 28,-40 43,-57 8,-8 14,-20 18,-31 11,-29 22,-44 25,-77 1,-8 6,-26 6,-32 -1,-8 1,-1 -4,-4 -1,-9 -1,-14 -3,-22l-15 -61c-6,-22 -29,-44 -46,-54 -23,-14 -8,-5 -28,-21 -32,-25 -44,-21 -72,-30 -13,-5 -29,-6 -40,-11l-25 0c-17,8 -58,12 -88,33 -20,13 -49,43 -57,66 6,-3 6,-4 9,-10 3,-4 6,-8 8,-10 -11,26 -26,40 -32,53 -3,6 -8,10 -12,16 -13,22 -4,14 -23,33 -7,8 -25,21 -29,28 8,-5 18,-16 27,-18 -11,32 -12,24 -21,36 -45,55 -30,119 -37,130 -6,8 -5,1 -8,12 -5,17 -18,13 -25,31 14,-3 42,-34 48,-46 -3,14 -24,38 -33,46l-45 35c0,0 1,1 1,1 8,5 3,0 4,3 -27,20 -26,13 -55,24 -17,6 -33,23 -41,38 -16,29 -26,93 -30,127 -3,24 -3,49 -6,73 -3,24 -30,92 -39,119 -7,19 -16,37 -24,55 -37,88 -22,188 -24,288 -3,78 -19,131 -34,202 -3,15 -13,51 -19,61l0 18z"/>
   <path class="fil6" d="M6998 10302c6,-10 16,-46 19,-61 15,-71 31,-124 34,-202 2,-100 -13,-200 24,-288 8,-18 17,-36 24,-55 9,-27 36,-95 39,-119 3,-24 3,-49 6,-73 4,-34 14,-98 30,-127 8,-15 24,-32 41,-38 29,-11 28,-4 55,-24 -1,-3 4,2 -4,-3 0,0 -1,-1 -1,-1l45 -35c9,-8 30,-32 33,-46 -6,12 -34,43 -48,46 7,-18 20,-14 25,-31 3,-11 2,-4 8,-12 7,-11 -8,-75 37,-130 9,-12 10,-4 21,-36 -9,2 -19,13 -27,18 4,-7 22,-20 29,-28 19,-19 10,-11 23,-33 4,-6 9,-10 12,-16 6,-13 21,-27 32,-53 -2,2 -5,6 -8,10 -3,6 -3,7 -9,10 8,-23 37,-53 57,-66 30,-21 71,-25 88,-33l-585 0 0 1426z"/>
   <path class="fil6" d="M10906 9875l0 -999 -498 0c1,3 0,2 2,5 10,1 15,-2 23,1 0,0 -1,0 -1,1 0,0 -1,1 -1,1 -9,5 -5,0 -8,5 4,2 8,2 14,5 5,2 8,5 13,7 12,6 22,3 34,10 -6,3 -4,0 -8,4 3,7 3,3 14,9 -2,6 -2,-1 -4,8 41,18 26,30 28,35 0,2 3,5 4,6 4,8 0,1 1,10 1,7 6,7 9,14 2,9 -4,9 0,19 3,5 7,7 8,15 2,10 -1,12 6,19 19,21 7,7 7,30 -1,16 4,24 2,44 -1,12 -2,27 5,37 7,12 -5,17 3,37l-2 0c-8,1 -4,0 -7,2l37 59c15,26 1,19 69,29 19,3 38,6 55,11 31,10 58,30 79,53 20,21 33,55 38,93 12,86 -13,200 8,244 3,7 8,14 10,22 3,12 -1,19 -1,31 -1,24 23,19 22,44 -2,46 -3,31 26,69 4,4 5,5 7,9l4 8c3,4 1,2 2,3z"/>
   <path class="fil8" d="M10625 12044c-13,6 -69,3 -88,3l-266 0c-2,-3 -3,4 -1,-5 -1,1 -4,1 -5,9 -4,25 20,66 8,131 -2,13 -6,34 -7,47l305 0c16,0 92,-4 100,1 0,-12 -1,-18 3,-28 11,-29 13,-44 3,-81 -8,-30 -23,-59 -53,-71l1 -6z"/>
   <path class="fil6" d="M10464 11330c14,-27 31,-182 36,-224 13,-102 28,-123 15,-237 -8,-76 -27,-147 -38,-222 -7,-55 -18,-148 -21,-206 0,-10 -1,-19 -14,-17l7 111c0,38 0,79 -5,116 -4,40 0,76 -1,116 -3,134 -11,201 -1,346 3,29 17,204 22,217z"/>
   <path class="fil9" d="M10270 12042c-2,9 -1,2 1,5l266 0c19,0 75,3 88,-3 0,-7 47,-72 56,-91l-381 0 1 -15c-3,4 -4,5 -3,15 1,18 6,31 -1,48 -7,17 -23,27 -27,41z"/>
   <path class="fil10" d="M10294 11872c-1,-3 0,13 2,19 3,6 8,10 11,14 7,7 21,15 21,28 -14,2 -26,-9 -27,5l-1 15 381 0c2,-6 7,-15 10,-21 4,-8 8,-17 10,-27 -4,2 -1,1 -10,1 -35,-1 -94,0 -131,0 -9,0 -40,3 -42,-4 -7,4 -12,16 -17,23 -6,8 -10,17 -21,19 0,-20 8,-63 -3,-79 2,12 2,3 -1,7l-182 0z"/>
   <path class="fil8" d="M7525 12221c-1,-44 3,-109 -19,-140 -7,-9 -3,-6 -11,-13 -4,-4 -4,-5 -9,-6 -12,-4 -23,-4 -35,-3 -25,1 -43,11 -57,24 -33,31 -21,80 -10,124 5,19 0,14 61,14 27,0 54,-1 80,0z"/>
   <path class="fil8" d="M7531 12039c-2,20 -1,57 2,76 2,10 13,57 17,60l80 0c0,-22 5,-48 6,-73 1,-12 1,-24 3,-36 1,-11 4,-27 4,-38 -4,5 -4,16 -5,22l-104 0 -3 -9c0,-1 0,-1 0,-2z"/>
   <path class="fil6" d="M10471 11827l5 2c1,7 1,12 0,19 -1,11 1,9 1,17 11,16 3,59 3,79 11,-2 15,-11 21,-19 5,-7 10,-19 17,-23 2,-7 22,-36 28,-42 3,-3 5,-6 9,-9 7,-7 27,-15 31,-22 -9,-3 -28,-15 -36,-21 -26,-20 -55,-90 -75,-93 0,20 3,41 1,61 -1,10 -5,17 -6,25 -1,7 1,18 1,26z"/>
   <path class="fil10" d="M7517 11972l142 0c8,-21 14,-47 15,-74l-160 0c0,14 0,25 1,39 0,12 2,23 2,35z"/>
   <path class="fil11" d="M7549 11822c0,6 -17,3 -29,27 -9,19 -6,28 -6,49l160 0c1,-12 6,-37 5,-48 -2,-9 -6,-15 -10,-19 -5,-4 -14,-7 -17,-11 -27,15 -73,11 -103,2z"/>
   <path class="fil11" d="M10586 11829c-4,7 -24,15 -31,22 -4,3 -6,6 -9,9 -6,6 -26,35 -28,42 2,7 33,4 42,4 37,0 96,-1 131,0 9,0 6,1 10,-1 8,-17 9,-55 -9,-71 -6,-6 -5,-4 -5,-9 -8,5 -10,10 -21,15 -21,9 -47,3 -69,-5 -2,-1 -3,-1 -5,-3l-6 -3z"/>
   <path class="fil8" d="M9462 12004c14,-5 78,1 84,-2 5,-3 5,-13 11,-25 12,-19 48,-57 22,-88 -24,-28 -74,-1 -87,18 -13,20 -15,48 -22,72 -3,9 -7,17 -8,25z"/>
   <path class="fil6" d="M10767 10303c14,-41 28,-43 30,-77 3,-60 -16,-106 -29,-157 -4,-15 -2,-8 -13,-15 -22,-15 -15,-64 -26,-81 -9,76 9,175 23,251 5,24 9,57 15,79z"/>
   <path class="fil8" d="M9168 11934c9,28 18,31 18,64l150 0c5,-1 2,-1 4,-2 3,-17 -12,-34 -12,-73 -3,4 -3,8 -3,13 -6,-5 -29,-1 -38,-1 -32,0 -79,1 -109,-1 -4,0 -4,0 -10,0z"/>
   <path class="fil9" d="M7531 12039c0,1 0,1 0,2l3 9 104 0c1,-6 1,-17 5,-22 -4,-23 11,-38 16,-56l-142 0c2,22 16,46 14,67z"/>
   <path class="fil9" d="M9168 11934c6,0 6,0 10,0 30,2 77,1 109,1 9,0 32,-4 38,1 0,-5 0,-9 3,-13 -2,-13 3,-19 -6,-23 -2,-1 -5,-1 -7,-2 -5,0 -10,-1 -16,-1l5 -31c-26,0 -93,4 -115,-1 4,8 3,1 8,12 4,9 10,11 15,18 -39,4 -44,-1 -44,22 0,5 2,13 0,17z"/>
   <path class="fil8" d="M8626 11967c2,2 1,1 3,3 0,1 3,2 4,3 12,8 19,18 27,33 4,7 2,13 4,21l2 1c13,4 -9,-1 3,1l102 0c6,-31 18,-35 -7,-60 -3,-4 -3,-3 -8,-6l0 4 -130 0z"/>
   <path class="fil9" d="M8626 11967l130 0 0 -4c-6,-7 -12,-12 -19,-21 -8,-9 -13,-13 -12,-30 -11,0 -117,1 -117,-1 -7,2 -10,5 -12,13 -2,7 -3,15 0,22 4,10 20,17 30,21z"/>
   <path class="fil11" d="M10288 11830c1,8 4,10 6,17 3,9 1,16 0,25l182 0c3,-4 3,5 1,-7 0,-8 -2,-6 -1,-17 1,-7 1,-12 0,-19l-5 -2c-11,12 -69,9 -90,9 -28,0 -69,-1 -93,-6z"/>
   <path class="fil10" d="M9143 11823c4,9 15,14 24,21 8,6 15,14 22,21 22,5 89,1 115,1 -1,-27 2,-20 -32,-45l-10 -9c-3,-3 -2,1 -2,-4 -9,6 -11,10 -23,15 -9,3 -19,6 -29,7 -26,2 -44,1 -65,-7z"/>
   <path class="fil11" d="M8636 11815c0,9 -3,12 -1,22 1,3 6,14 8,17l4 4c5,4 42,2 50,2 14,0 49,2 58,-2 5,-10 7,-28 -2,-35 -7,-6 -29,-8 -32,-10 -4,-2 -2,1 -3,-3 -6,1 -14,4 -21,5 -8,1 -13,3 -21,4 -17,3 -29,5 -40,-4z"/>
   <path class="fil10" d="M8608 11911c0,2 106,1 117,1 8,-10 26,-36 30,-54 -9,4 -44,2 -58,2 -8,0 -45,2 -50,-2l-4 -4c1,9 3,17 4,25l3 26c-14,3 -29,0 -42,6z"/>
   <path class="fil6" d="M9205 10931c1,-2 0,0 1,-3l4 -41c1,-16 1,-33 1,-50 0,-16 -1,-31 -1,-47 -2,-27 1,-40 -10,-42l-20 64c2,6 5,11 7,22 5,26 0,80 18,97z"/>
  </g>
  <path class="fil12 str0" d="M6719 8490l233 -606 88 0 247 606 -91 0 -71 -184 -255 0 -66 184 -85 0zm175 -249l206 0 -63 -168c-19,-51 -33,-93 -43,-127 -9,40 -20,79 -34,117l-66 178zm458 -357l392 0 0 71 -311 0 0 535 -81 0 0 -606zm459 0l72 0 0 480 323 -480 80 0 0 606 -73 0 0 -479 -322 479 -80 0 0 -606zm761 606l0 -535 -200 0 0 -71 480 0 0 71 -200 0 0 535 -80 0zm268 0l233 -606 88 0 247 606 -92 0 -70 -184 -255 0 -66 184 -85 0zm175 -249l206 0 -63 -168c-19,-51 -33,-93 -43,-127 -9,40 -20,79 -34,117l-66 178zm458 -357l81 0 0 535 314 0 0 -535 81 0 0 535 55 0 0 239 -71 0 0 -168 -460 0 0 -606zm626 0l73 0 0 480 323 -480 79 0 0 606 -73 0 0 -479 -321 479 -81 0 0 -606zm1086 606l0 -606 -268 0c-54,0 -95,5 -123,16 -28,11 -51,30 -68,58 -16,27 -25,58 -25,91 0,43 14,79 42,109 28,29 71,48 129,56 -22,10 -38,20 -49,30 -23,22 -45,49 -66,81l-105 165 100 0 81 -126c23,-37 42,-65 57,-84 15,-19 29,-33 41,-40 12,-8 24,-13 37,-16 9,-2 23,-3 44,-3l93 0 0 269 80 0zm-80 -339l-172 0c-37,0 -65,-4 -86,-11 -21,-8 -36,-20 -47,-37 -11,-16 -16,-34 -16,-54 0,-29 10,-52 31,-71 21,-18 54,-27 98,-27l192 0 0 200z"/>
  <g id="_436025634800">
   <path class="fil13 str1" d="M8952 9216c898,0 1626,705 1626,1573 0,869 -728,1573 -1626,1573 -898,0 -1626,-704 -1626,-1573 0,-868 728,-1573 1626,-1573z"/>
   <path class="fil13 str2" d="M10154 9730l-2171 2322"/>
  </g>
 </g>
</svg>
