<?xml version="1.0" encoding="UTF-8"?>
<!DOCTYPE svg PUBLIC "-//W3C//DTD SVG 1.0//EN" "http://www.w3.org/TR/2001/REC-SVG-20010904/DTD/svg10.dtd">
<!-- Creator: CorelDRAW X7 -->
<svg xmlns="http://www.w3.org/2000/svg" xml:space="preserve" width="200mm" height="200mm" version="1.0" style="shape-rendering:geometricPrecision; text-rendering:geometricPrecision; image-rendering:optimizeQuality; fill-rule:evenodd; clip-rule:evenodd"
viewBox="0 0 20000 20000"
 xmlns:xlink="http://www.w3.org/1999/xlink">
 <defs>
  <style type="text/css">
   <![CDATA[
    .str1 {stroke:#2E99A3;stroke-width:25}
    .str0 {stroke:#846573;stroke-width:108.68}
    .fil12 {fill:#FEFEFE}
    .fil9 {fill:#F9C5A1}
    .fil2 {fill:#F6B096}
    .fil7 {fill:#F9D6AA}
    .fil8 {fill:#E9B69A}
    .fil11 {fill:#DBE3E3}
    .fil5 {fill:#DAD9DA}
    .fil14 {fill:#BF2C2E}
    .fil6 {fill:#D4E8F8}
    .fil10 {fill:#71523E}
    .fil4 {fill:#2E99A3}
    .fil3 {fill:#A8D4AF}
    .fil15 {fill:#149288}
    .fil13 {fill:#00897E}
    .fil1 {fill:#97A59A;fill-rule:nonzero}
    .fil16 {fill:#5B7674;fill-rule:nonzero}
    .fil0 {fill:url(#id0)}
   ]]>
  </style>
  <radialGradient id="id0" gradientUnits="userSpaceOnUse" gradientTransform="matrix(1.41421 -0 -0 1.41421 -4142 -4142)" cx="10000" cy="10000" r="10000" fx="10000" fy="10000">
   <stop offset="0" style="stop-opacity:1; stop-color:#FEFEFE"/>
   <stop offset="0.439216" style="stop-opacity:1; stop-color:#FEFEFE"/>
   <stop offset="1" style="stop-opacity:1; stop-color:#D1E2F2"/>
  </radialGradient>
 </defs>
 <g id="Layer_x0020_1">
  <metadata id="CorelCorpID_0Corel-Layer"/>
  <path class="fil0" d="M0 0l20000 0 0 20000 -20000 0 0 -20000z"/>
  <g id="_504810528464">
   <g>
    <path class="fil1" d="M2577 4228c-22,5 -43,-10 -47,-33 -4,-24 10,-46 31,-51l16 84zm7431 -1641l-7431 1641 -16 -84 7431 -1641 16 0 0 84zm-16 -84c22,-5 42,10 47,33 4,23 -10,46 -31,51l-16 -84zm7431 1725l-7431 -1641 16 -84 7431 1641 -16 84zm16 -84c21,5 35,27 31,51 -5,23 -25,38 -47,33l16 -84z"/>
   </g>
   <path class="fil2 str0" d="M10011 2560c44,0 81,36 81,81 0,45 -37,81 -81,81 -45,0 -81,-36 -81,-81 0,-45 36,-81 81,-81z"/>
   <g id="_504807363952">
    <path class="fil3" d="M503 5283l19092 0 0 -1364 -19092 0 0 1364z"/>
    <path class="fil4 str1" d="M6418 4580c0,7 -3,14 -7,18 -5,4 -10,6 -17,6 -7,0 -12,-2 -17,-6 -5,-4 -7,-10 -7,-18l0 -341 -196 353c-3,5 -7,8 -11,11l-5 3c-2,1 -4,2 -8,2 -4,0 -10,-2 -16,-7 -4,-5 -6,-12 -6,-21l0 -434c0,-7 3,-13 7,-18 5,-4 11,-6 17,-6 6,0 12,2 17,6 5,4 7,10 7,18l0 341 196 -353c2,-4 6,-8 10,-11 5,-4 9,-5 13,-5 6,0 11,2 15,8 5,4 8,11 8,20l0 434zm337 -265l0 -170c0,-6 3,-12 8,-16 4,-5 10,-8 16,-8 6,0 12,2 17,6 5,4 7,11 7,19l0 433c0,7 -2,13 -7,18 -6,5 -11,7 -17,7 -6,0 -12,-2 -17,-6 -4,-4 -7,-10 -7,-18l0 -217 -193 0 0 217c0,7 -2,14 -7,18 -4,4 -10,6 -17,6 -6,0 -12,-2 -17,-6 -5,-4 -7,-10 -7,-18l0 -434c0,-7 2,-13 7,-18 5,-4 11,-6 17,-6 6,0 12,2 17,6 5,4 7,10 7,18l0 169 193 0zm362 -74l0 219 24 0c26,0 49,-9 68,-28 19,-19 28,-42 28,-69l0 -24c0,-26 -9,-49 -28,-68 -18,-20 -41,-30 -68,-30l-24 0zm-48 219l0 -219 -25 0c-26,0 -48,10 -68,29 -19,19 -28,41 -28,69l0 24c0,27 9,49 28,68 19,20 42,29 68,29l25 0zm0 48l-25 0c-40,0 -74,-14 -102,-42 -28,-28 -42,-63 -42,-103l0 -24c0,-40 14,-74 42,-103 28,-28 63,-43 102,-43l25 0 0 -48c0,-6 2,-12 7,-17 5,-5 10,-7 17,-7 6,0 11,2 16,6 5,4 8,10 8,18l0 48 24 0c39,0 74,15 102,43 13,14 23,29 31,46 7,18 11,36 11,57l0 24c0,39 -14,73 -42,102 -28,29 -62,43 -102,43l-24 0 0 72c0,8 -3,14 -7,18 -5,4 -10,6 -17,6 -7,0 -12,-2 -17,-6 -5,-4 -7,-10 -7,-18l0 -72zm603 -1c0,27 -10,50 -29,69 -18,19 -41,28 -68,28l-96 0c-27,0 -49,-9 -68,-28 -19,-19 -29,-42 -29,-69l0 -289c0,-27 10,-50 28,-68 19,-19 42,-29 69,-29l96 0c27,0 50,10 68,29 19,19 29,41 29,68l0 289zm-48 1l0 -290c0,-14 -5,-25 -14,-35 -9,-9 -21,-14 -35,-14l-96 0c-14,0 -25,5 -35,14 -5,5 -8,10 -10,16 -3,6 -4,12 -4,19l0 290c0,13 5,25 14,34 5,4 10,8 16,11 6,2 13,3 19,3l96 0c14,0 25,-4 34,-13 10,-9 15,-21 15,-35zm231 -145l145 0c13,0 24,-5 34,-14 9,-9 14,-20 14,-35l0 -96c0,-14 -5,-25 -14,-35 -9,-9 -20,-14 -34,-14l-145 0 0 194zm0 48l0 169c0,7 -3,14 -7,18 -5,4 -10,6 -17,6 -7,0 -12,-2 -17,-6 -5,-4 -7,-10 -7,-18l0 -434c0,-17 8,-25 24,-25l169 0c26,0 49,10 68,29 19,18 28,41 28,68l0 96c0,27 -9,49 -28,68 -19,19 -42,29 -69,29l-144 0zm675 169c0,7 -2,14 -6,18 -5,4 -10,6 -18,6 -5,0 -10,-2 -16,-6 -5,-4 -8,-10 -8,-18l0 -345 -99 167c-6,11 -13,16 -21,16 -7,0 -14,-5 -21,-16l-101 -167 0 345c0,7 -2,14 -6,18 -5,4 -10,6 -18,6 -6,0 -12,-2 -16,-6 -5,-4 -8,-10 -8,-18l0 -432c0,-9 3,-16 7,-21 5,-5 10,-7 16,-7 4,0 8,1 11,3 4,3 7,7 11,13l125 206 124 -206c5,-11 13,-16 23,-16 5,0 10,2 15,8 4,5 6,12 6,20l0 432zm181 -97l-35 104c-1,6 -4,10 -9,13 -3,2 -7,3 -13,4 -6,0 -12,-2 -17,-7 -5,-4 -7,-10 -7,-16l1 -9 145 -434c5,-14 13,-21 23,-21 10,0 18,7 23,21l144 434 2 9c0,6 -3,11 -8,16 -5,5 -11,7 -17,7 -3,0 -7,-1 -11,-2 -4,-2 -8,-7 -11,-15l-35 -104 -175 0zm159 -49l-71 -212 -71 212 142 0zm432 122l0 -410c0,-7 2,-13 7,-18 5,-4 11,-7 17,-7 6,0 12,2 16,6 5,5 8,11 8,19l0 410 24 0c16,0 25,8 25,24l0 73c0,6 -3,12 -8,17 -5,4 -10,7 -16,7 -6,0 -11,-2 -17,-6 -5,-4 -7,-10 -7,-19l0 -48 -266 0c-16,0 -24,-8 -24,-24l0 -434c0,-7 2,-13 7,-18 5,-4 10,-7 17,-7 6,0 11,2 16,6 5,5 8,11 8,19l0 410 193 0zm482 24c0,7 -2,14 -7,18 -4,4 -10,6 -17,6 -6,0 -12,-2 -17,-6 -5,-4 -7,-10 -7,-18l0 -341 -196 353c-3,5 -6,8 -11,11l-5 3c-1,1 -4,2 -7,2 -5,0 -10,-2 -16,-7 -4,-5 -6,-12 -6,-21l0 -434c0,-7 2,-13 7,-18 5,-4 10,-6 17,-6 6,0 11,2 16,6 5,4 8,10 8,18l0 341 195 -353c3,-4 6,-8 11,-11 4,-4 8,-5 13,-5 5,0 10,2 15,8 4,4 7,11 7,20l0 434zm386 -73c0,27 -10,50 -29,69 -18,19 -41,28 -68,28l-96 0c-26,0 -49,-9 -68,-28 -19,-19 -29,-42 -29,-69l0 -289c0,-27 10,-50 29,-68 18,-19 41,-29 68,-29l96 0c27,0 50,10 69,29 18,19 28,41 28,68l0 289zm-48 1l0 -290c0,-14 -5,-25 -14,-35 -9,-9 -21,-14 -35,-14l-96 0c-14,0 -25,5 -35,14 -4,5 -8,10 -10,16 -2,6 -4,12 -4,19l0 290c0,13 5,25 14,34 5,4 10,8 16,11 7,2 13,3 19,3l96 0c14,0 25,-4 35,-13 9,-9 14,-21 14,-35zm424 -193l0 -170c0,-6 2,-12 7,-16 5,-5 11,-8 17,-8 6,0 12,2 17,6 5,4 7,11 7,19l0 433c0,7 -2,13 -7,18 -6,5 -12,7 -17,7 -6,0 -12,-2 -17,-6 -5,-4 -7,-10 -7,-18l0 -217 -193 0 0 217c0,7 -2,14 -7,18 -4,4 -10,6 -17,6 -7,0 -12,-2 -17,-6 -5,-4 -7,-10 -7,-18l0 -434c0,-7 2,-13 7,-18 5,-4 10,-6 17,-6 6,0 12,2 16,6 5,4 8,10 8,18l0 169 193 0zm386 0l0 -170c0,-6 2,-12 7,-16 5,-5 11,-8 17,-8 6,0 12,2 17,6 4,4 7,11 7,19l0 433c0,7 -3,13 -8,18 -5,5 -11,7 -16,7 -6,0 -12,-2 -17,-6 -5,-4 -7,-10 -7,-18l0 -217 -193 0 0 217c0,7 -3,14 -7,18 -5,4 -10,6 -17,6 -7,0 -12,-2 -17,-6 -5,-4 -7,-10 -7,-18l0 -434c0,-7 2,-13 7,-18 5,-4 10,-6 17,-6 6,0 11,2 16,6 5,4 8,10 8,18l0 169 193 0zm482 265c0,7 -2,14 -6,18 -5,4 -11,6 -18,6 -6,0 -12,-2 -16,-6 -5,-4 -8,-10 -8,-18l0 -434c0,-7 3,-13 8,-18 4,-4 10,-7 16,-7 6,0 12,2 17,6 5,4 7,11 7,19l0 434zm-290 -217l0 193 97 0c14,0 25,-4 35,-13 9,-9 14,-21 14,-35l0 -97c0,-14 -5,-25 -14,-34 -9,-10 -21,-14 -35,-14l-97 0zm0 -48l97 0c26,0 49,9 68,28 19,19 29,41 29,68l0 97c0,26 -10,49 -28,68 -19,19 -42,28 -69,28l-120 0c-17,0 -25,-8 -25,-24l0 -434c0,-7 3,-13 8,-18 4,-4 10,-7 16,-7 7,0 12,2 17,6 5,5 7,11 7,19l0 169zm579 -242l-96 0c-7,0 -13,-2 -18,-6 -4,-5 -6,-11 -6,-18 0,-5 2,-10 6,-16 4,-5 10,-8 18,-8l96 0c7,0 13,3 18,8 4,5 7,10 7,16 0,6 -2,11 -7,17 -4,5 -10,7 -18,7zm97 507c0,7 -2,14 -7,18 -4,4 -10,6 -17,6 -7,0 -12,-2 -17,-6 -5,-4 -7,-10 -7,-18l0 -341 -196 353c-3,5 -6,8 -11,11l-5 3c-2,1 -4,2 -7,2 -5,0 -10,-2 -16,-7 -4,-5 -7,-12 -7,-21l0 -434c0,-7 3,-13 8,-18 4,-4 10,-6 16,-6 7,0 12,2 17,6 5,4 7,10 7,18l0 341 196 -353c3,-3 6,-7 11,-11 4,-3 8,-5 13,-5 5,0 10,3 14,8 5,5 8,11 8,20l0 434zm603 24l-121 0c-26,0 -49,-9 -68,-28 -19,-19 -28,-42 -28,-69l0 -289c0,-27 9,-50 28,-68 19,-19 41,-29 68,-29l121 0c7,0 12,3 17,8 5,5 7,10 7,16 0,6 -2,11 -6,17 -4,5 -10,7 -18,7l-121 0c-14,0 -25,5 -35,14 -4,5 -8,10 -10,16 -2,6 -3,12 -3,19l0 290c0,13 4,25 13,34 5,4 11,8 16,11 7,2 13,3 19,3l121 0c7,0 12,3 17,7 5,5 7,11 7,17 0,6 -2,11 -6,16 -4,5 -10,8 -18,8zm241 -435l-97 0c-7,0 -13,-2 -17,-6 -5,-5 -7,-11 -7,-18 0,-5 2,-10 6,-16 4,-5 10,-8 18,-8l241 0c7,0 13,3 18,8 4,5 7,10 7,16 0,6 -2,11 -6,17 -4,5 -11,7 -19,7l-96 0 0 411c0,7 -2,14 -7,18 -4,4 -10,6 -17,6 -6,0 -12,-2 -17,-6 -5,-4 -7,-10 -7,-18l0 -411zm313 146l121 0c7,0 13,2 18,7 4,5 7,11 7,17 0,6 -2,11 -6,16 -4,5 -11,8 -19,8l-121 0 0 193 170 0c6,0 12,3 17,7 5,5 7,11 7,17 0,6 -2,11 -6,16 -4,5 -10,8 -18,8l-194 0c-16,0 -24,-8 -24,-23l0 -435c0,-17 8,-25 24,-25l194 0c6,0 12,3 17,8 5,5 7,10 7,16 0,6 -2,12 -6,17 -4,5 -10,7 -18,7l-170 0 0 146zm531 0l0 -170c0,-6 2,-12 7,-16 5,-5 11,-8 17,-8 6,0 12,2 17,6 5,4 7,11 7,19l0 433c0,7 -2,13 -7,18 -6,5 -12,7 -17,7 -6,0 -12,-2 -17,-6 -5,-4 -7,-10 -7,-18l0 -217 -193 0 0 217c0,7 -3,14 -7,18 -4,4 -10,6 -17,6 -7,0 -12,-2 -17,-6 -5,-4 -7,-10 -7,-18l0 -434c0,-7 2,-13 7,-18 5,-4 10,-6 17,-6 6,0 12,2 16,6 5,4 8,10 8,18l0 169 193 0zm195 241l46 -413c0,-15 8,-22 24,-22l145 0c16,0 24,8 24,25l0 410 24 0c16,0 25,8 25,24l0 48c0,7 -3,12 -8,17 -5,5 -10,7 -16,7 -6,0 -11,-2 -17,-6 -5,-4 -7,-10 -7,-18l0 -24 -242 0 0 24c0,7 -3,12 -8,17 -5,5 -10,7 -16,7 -6,0 -11,-2 -17,-6 -5,-4 -7,-10 -7,-18l0 -48c0,-16 8,-24 24,-24l26 0zm191 0l0 -387 -99 0 -44 387 143 0z"/>
    <g>
     <path class="fil4 str1" d="M1533 5118l-78 0c-20,0 -38,-8 -54,-23 -15,-15 -23,-33 -23,-54l0 -174c0,-5 2,-10 6,-15 4,-3 8,-5 13,-5 5,0 10,2 14,5 4,3 6,8 6,15l0 174c0,11 3,20 11,27 3,4 8,6 12,9 6,1 11,2 15,2l78 0 0 -212c0,-5 2,-10 6,-15 3,-3 8,-5 13,-5 5,0 9,2 13,5 4,3 6,8 6,15l0 289c0,21 -7,39 -22,55 -15,15 -33,22 -55,22l-77 0c-5,0 -10,-1 -15,-5 -3,-4 -5,-9 -5,-14 0,-5 2,-9 5,-13 4,-4 8,-6 15,-6l77 0c11,0 20,-4 28,-11 7,-7 11,-16 11,-28l0 -38zm270 -155l0 -96c0,-6 2,-10 6,-15 3,-3 8,-5 13,-5 5,0 9,2 13,5 4,3 6,8 6,15l0 231c0,6 -2,11 -5,15 -4,3 -8,5 -14,5 -5,0 -10,-2 -13,-5 -4,-3 -6,-8 -6,-15l0 -97 -77 0c-21,0 -39,-7 -55,-22 -15,-15 -23,-33 -23,-55l0 -57c0,-6 2,-10 6,-15 4,-3 8,-5 13,-5 5,0 10,2 14,5 4,3 6,8 6,15l0 58c0,10 3,20 11,27 4,3 8,6 12,8 6,2 11,3 15,3l78 0zm270 78l0 -155 -78 0c-10,0 -20,3 -27,11 -4,4 -7,8 -9,12 -1,5 -2,10 -2,16l0 116c0,11 3,20 11,27 4,4 8,6 12,9 6,1 11,2 15,2l39 0c11,0 20,-3 28,-10 7,-8 11,-17 11,-28zm19 51c-6,7 -15,14 -26,18 -10,5 -21,8 -32,8l-38 0c-21,0 -39,-8 -55,-23 -15,-15 -23,-33 -23,-54l0 -116c0,-22 8,-40 23,-55 15,-15 33,-23 55,-23l96 0c13,0 19,7 19,20l0 173c0,8 3,16 8,24 4,7 11,13 19,16 8,4 12,10 12,18 0,6 -2,10 -5,14 -4,4 -8,6 -14,6 -3,0 -6,-1 -8,-2 -13,-5 -23,-13 -31,-24zm232 26l-58 0c-21,0 -39,-8 -55,-23 -15,-15 -23,-33 -23,-54l0 -116c0,-22 8,-40 23,-55 15,-15 33,-23 55,-23l58 0c5,0 10,2 13,6 4,4 6,9 6,14 0,4 -2,8 -5,12 -3,5 -8,7 -14,7l-58 0c-11,0 -21,3 -28,11 -4,4 -7,8 -8,12 -2,5 -3,10 -3,16l0 116c0,11 3,20 11,27 4,4 8,6 12,9 6,1 11,2 16,2l58 0c5,0 9,2 13,6 4,4 6,9 6,14 0,4 -2,8 -5,12 -3,5 -8,7 -14,7zm212 -232l-78 0 0 212c0,6 -1,11 -5,15 -4,3 -8,5 -14,5 -5,0 -9,-2 -13,-5 -4,-3 -6,-8 -6,-15l0 -231c0,-13 6,-20 19,-20l174 0c21,0 39,8 54,23 15,15 23,33 23,55l0 173c0,6 -2,11 -6,15 -3,3 -8,5 -13,5 -6,0 -10,-2 -14,-5 -4,-3 -6,-8 -6,-15l0 -174c0,-10 -3,-20 -11,-27 -7,-7 -16,-11 -27,-11l-39 0 0 212c0,6 -2,11 -5,15 -4,3 -9,5 -14,5 -5,0 -10,-2 -14,-5 -4,-3 -5,-8 -5,-15l0 -212zm309 105l-43 46 0 61c0,6 -2,11 -6,15 -3,3 -8,5 -14,5 -5,0 -9,-2 -13,-5 -4,-3 -6,-8 -6,-15l0 -231c0,-5 2,-10 6,-14 4,-4 8,-5 13,-5 5,0 10,1 14,4 4,4 6,9 6,15l0 114 122 -128c3,-4 8,-6 12,-6 5,0 9,2 14,6 4,3 6,8 6,14 0,5 -2,10 -7,15l-77 81 79 123c3,5 5,10 5,13 0,5 -2,10 -7,14 -3,3 -8,5 -13,5 -5,0 -10,-2 -14,-7l-77 -120zm366 42c0,23 -9,43 -25,60 -16,16 -37,25 -60,25l-23 0c-23,0 -43,-8 -60,-25 -17,-16 -25,-36 -25,-60l0 -101c0,-22 8,-42 24,-59 17,-17 37,-26 61,-26l23 0c23,0 43,9 59,25 17,16 26,37 26,60l0 101zm-39 0l0 -101c0,-12 -4,-23 -13,-33 -9,-9 -20,-13 -33,-13l-24 0c-12,0 -23,4 -32,13 -9,9 -14,20 -14,33l0 101c0,13 5,24 14,33 9,9 20,13 32,13l24 0c12,0 23,-4 32,-13 10,-9 14,-20 14,-33zm270 8l0 -116c0,-11 -3,-20 -11,-28 -7,-7 -16,-11 -27,-11l-39 0c-11,0 -20,4 -28,11 -3,4 -6,8 -8,13 -2,5 -3,10 -3,15l0 116c0,11 4,20 11,27 4,4 8,6 13,9 5,1 10,2 15,2l39 0c10,0 19,-3 27,-10 8,-8 11,-17 11,-28zm-116 -180l16 -10 23 -16c7,-6 13,-11 16,-15 5,-6 7,-12 7,-19 0,-8 -3,-16 -9,-22 -7,-5 -14,-8 -22,-8 -8,0 -16,3 -22,8 -6,5 -9,13 -9,22l0 60zm78 -12c24,0 43,7 57,22 13,14 20,32 20,54l0 116c0,21 -8,39 -23,54 -15,15 -33,23 -54,23l-39 0c-21,0 -39,-8 -54,-23 -16,-14 -23,-33 -23,-54l0 -240c0,-21 7,-38 21,-52 14,-11 30,-17 48,-17 18,0 34,6 48,18 15,12 22,29 22,51 0,13 -2,22 -6,28 -3,7 -9,13 -17,20zm347 184c0,23 -8,43 -25,60 -16,16 -36,25 -60,25l-23 0c-23,0 -43,-8 -60,-25 -17,-16 -25,-36 -25,-60l0 -101c0,-22 8,-42 25,-59 16,-17 36,-26 60,-26l23 0c23,0 43,9 60,25 16,16 25,37 25,60l0 101zm-39 0l0 -101c0,-12 -4,-23 -13,-33 -9,-9 -20,-13 -33,-13l-23 0c-13,0 -24,4 -33,13 -9,9 -14,20 -14,33l0 101c0,13 5,24 14,33 9,9 20,13 33,13l23 0c12,0 23,-4 33,-13 9,-9 13,-20 13,-33zm251 -263l-77 0c-6,0 -11,-2 -15,-5 -3,-4 -5,-9 -5,-14 0,-5 2,-9 5,-13 4,-4 8,-6 15,-6l77 0c5,0 10,2 14,6 3,3 5,8 5,13 0,4 -1,9 -5,13 -3,4 -8,6 -14,6zm58 328c0,13 -6,20 -19,20l-97 0c-21,0 -39,-8 -54,-23 -15,-15 -23,-33 -23,-54l0 -174c0,-5 2,-10 6,-14 3,-4 8,-5 13,-5 5,0 9,1 13,4 4,4 6,9 6,15l0 174c0,11 4,20 11,27 4,4 8,6 13,9 5,1 10,2 15,2l78 0 0 -212c0,-5 1,-10 5,-14 4,-4 9,-5 14,-5 5,0 9,1 13,4 4,4 6,9 6,15l0 231zm502 0c0,13 -7,20 -20,20l-96 0c-21,0 -39,-8 -54,-23 -16,-15 -24,-33 -24,-54l0 -174c0,-5 2,-10 6,-15 4,-3 9,-5 14,-5 5,0 9,2 13,5 4,3 6,8 6,15l0 174c0,11 4,20 11,27 4,4 8,6 12,9 6,1 11,2 16,2l77 0 0 -212c0,-5 2,-10 6,-15 4,-3 8,-5 13,-5 5,0 10,2 14,5 4,3 6,8 6,15l0 231zm178 -97l-24 0c-6,0 -11,-1 -14,-5 -4,-4 -5,-8 -5,-14 0,-4 1,-9 5,-13 3,-4 8,-6 14,-6l19 0c12,0 22,-4 28,-12 8,-7 11,-16 11,-27 0,-10 -3,-19 -9,-26 -3,-4 -8,-7 -13,-9 -5,-2 -10,-3 -17,-3l-19 0c-18,0 -33,5 -46,16 -4,2 -8,3 -12,4 -4,0 -9,-2 -14,-6 -3,-4 -5,-9 -5,-14 0,-6 2,-11 8,-15 19,-16 43,-24 69,-24l19 0c25,0 44,8 58,24 13,15 19,33 19,54 0,6 0,11 -1,16 -1,5 -2,10 -5,15 -3,9 -9,18 -18,27 7,6 14,15 18,26l5 15c1,5 1,11 1,17 0,21 -6,39 -19,53 -14,16 -33,24 -58,24l-19 0c-26,0 -49,-8 -69,-23 -6,-4 -8,-9 -8,-16 0,-4 2,-8 5,-13 4,-5 9,-7 14,-7 3,0 7,2 12,5 13,10 29,15 46,15l19 0c12,0 21,-4 28,-11 7,-8 11,-18 11,-28 0,-10 -3,-18 -8,-25 -6,-7 -14,-11 -26,-14zm304 40l0 -116c0,-11 -4,-21 -11,-28 -7,-7 -16,-11 -28,-11l-39 0c-10,0 -20,3 -27,11 -4,4 -7,8 -9,12 -1,5 -2,10 -2,16l0 116c0,11 3,20 11,27 4,4 8,6 12,9 6,1 11,2 15,2l39 0c11,0 20,-3 28,-10 7,-8 11,-17 11,-28zm-62 -194l-87 -82c-5,-5 -7,-11 -7,-16 0,-4 2,-8 5,-12 3,-3 9,-5 16,-5l154 0c5,0 10,2 14,6 4,3 5,8 5,13 0,4 -1,9 -4,13 -4,4 -9,6 -15,6l-106 0 102 98 5 6c12,15 18,31 18,51l0 116c0,21 -7,39 -22,54 -15,15 -33,23 -55,23l-38 0c-21,0 -39,-8 -55,-23 -15,-15 -23,-33 -23,-54l0 -116c0,-22 8,-40 23,-55 15,-15 33,-23 54,-23l16 0zm370 251c0,13 -6,20 -19,20l-96 0c-21,0 -39,-8 -55,-23 -15,-15 -23,-33 -23,-54l0 -174c0,-5 2,-10 6,-15 4,-3 9,-5 14,-5 5,0 9,2 13,5 4,3 6,8 6,15l0 174c0,11 3,20 11,27 4,4 8,6 12,9 6,1 11,2 16,2l77 0 0 -212c0,-5 2,-10 6,-15 4,-3 8,-5 13,-5 5,0 10,2 14,5 3,3 5,8 5,15l0 231zm116 -19l77 0c11,0 20,-3 28,-10 7,-8 11,-17 11,-28l0 -116c0,-11 -4,-21 -11,-28 -7,-7 -16,-11 -28,-11l-77 0 0 193zm0 39l0 96c0,6 -2,10 -6,14 -4,4 -8,5 -13,5 -5,0 -9,-1 -13,-4 -4,-4 -6,-8 -6,-15l0 -347c0,-13 6,-20 19,-20l96 0c21,0 39,8 55,23 15,15 23,33 23,55l0 116c0,21 -8,39 -23,54 -15,15 -33,23 -55,23l-77 0zm386 -77l0 -155 -77 0c-11,0 -20,3 -28,11 -4,4 -6,8 -8,12 -2,5 -3,10 -3,16l0 116c0,11 4,20 11,27 4,4 8,6 12,9 6,1 11,2 16,2l38 0c11,0 20,-3 28,-10 7,-8 11,-17 11,-28zm19 51c-6,7 -15,14 -25,18 -11,5 -22,8 -33,8l-38 0c-21,0 -39,-8 -54,-23 -16,-15 -23,-33 -23,-54l0 -116c0,-22 7,-40 22,-55 15,-15 33,-23 55,-23l96 0c13,0 20,7 20,20l0 173c0,8 2,16 7,24 4,7 11,13 19,16 8,4 12,10 12,18 0,6 -1,10 -5,14 -3,4 -8,6 -14,6 -3,0 -5,-1 -8,-2 -12,-5 -23,-13 -31,-24zm212 -206l-77 0 0 212c0,6 -2,11 -5,15 -4,3 -8,5 -14,5 -5,0 -10,-2 -14,-5 -3,-3 -5,-8 -5,-15l0 -231c0,-13 6,-20 19,-20l173 0c21,0 39,8 55,23 15,15 22,33 22,55l0 173c0,6 -1,11 -5,15 -3,3 -8,5 -14,5 -5,0 -9,-2 -13,-5 -4,-3 -6,-8 -6,-15l0 -174c0,-10 -4,-20 -11,-27 -7,-7 -16,-11 -28,-11l-38 0 0 212c0,6 -2,11 -6,15 -3,3 -8,5 -13,5 -6,0 -10,-2 -14,-5 -4,-3 -6,-8 -6,-15l0 -212zm270 78l117 0 0 -39c0,-11 -4,-20 -11,-28 -8,-7 -17,-11 -28,-11l-39 0c-11,0 -20,3 -28,11 -3,4 -6,8 -8,13 -2,4 -3,9 -3,15l0 39zm0 38l0 39c0,11 4,20 11,27 4,4 8,6 13,9 5,1 10,2 15,2l97 0c5,0 10,2 13,6 4,4 6,9 6,14 0,4 -2,8 -5,12 -3,5 -8,7 -14,7l-97 0c-21,0 -39,-8 -54,-23 -15,-15 -23,-33 -23,-54l0 -116c0,-21 7,-39 22,-55 15,-15 33,-23 55,-23l39 0c21,0 39,8 54,23 15,15 23,33 23,55l0 58c0,13 -6,19 -19,19l-136 0zm425 96c0,6 -2,11 -5,15 -4,3 -9,5 -14,5 -5,0 -10,-2 -14,-5 -3,-3 -5,-8 -5,-15l0 -212 -45 0 -72 218c-2,5 -4,8 -7,11 -1,0 -5,1 -11,3 -5,0 -9,-2 -13,-6 -4,-3 -7,-7 -7,-13l2 -7 76 -231c3,-9 9,-14 18,-14l78 0c13,0 19,7 19,20l0 231zm115 -97l0 78 78 0c12,0 21,-4 28,-11 7,-8 11,-17 11,-28 0,-10 -3,-20 -10,-27 -3,-3 -7,-6 -12,-8 -5,-2 -11,-4 -17,-4l-78 0zm0 -38l78 0c24,0 43,8 58,24 13,15 19,32 19,53 0,21 -6,39 -19,53 -14,17 -34,25 -58,25l-97 0c-13,0 -19,-7 -19,-20l0 -231c0,-5 2,-10 6,-15 4,-3 8,-5 13,-5 5,0 10,2 14,5 3,3 5,8 5,15l0 96zm387 0l0 -96c0,-6 2,-10 6,-15 3,-3 8,-5 13,-5 5,0 9,2 13,5 4,3 6,8 6,15l0 231c0,6 -2,11 -5,15 -4,3 -8,5 -14,5 -5,0 -10,-2 -13,-5 -4,-3 -6,-8 -6,-15l0 -97 -116 0 0 97c0,6 -2,11 -6,15 -3,3 -8,5 -14,5 -5,0 -9,-2 -13,-5 -4,-3 -6,-8 -6,-15l0 -231c0,-5 2,-10 6,-15 4,-3 8,-5 13,-5 5,0 10,2 14,5 4,3 6,8 6,15l0 96 116 0zm308 70c0,23 -8,43 -24,60 -17,16 -37,25 -61,25l-23 0c-23,0 -43,-8 -60,-25 -16,-16 -25,-36 -25,-60l0 -101c0,-22 8,-42 25,-59 17,-17 37,-26 60,-26l23 0c23,0 43,9 60,25 17,16 25,37 25,60l0 101zm-38 0l0 -101c0,-12 -5,-23 -14,-33 -9,-9 -20,-13 -33,-13l-23 0c-13,0 -24,4 -33,13 -9,9 -13,20 -13,33l0 101c0,13 4,24 13,33 9,9 20,13 33,13l23 0c13,0 24,-4 33,-13 9,-9 14,-20 14,-33zm250 -263l-77 0c-6,0 -10,-2 -14,-5 -3,-4 -5,-9 -5,-14 0,-5 1,-9 5,-13 3,-4 8,-6 14,-6l77 0c6,0 10,2 14,6 4,3 6,8 6,13 0,4 -2,9 -5,13 -3,4 -8,6 -15,6zm58 328c0,13 -6,20 -19,20l-96 0c-21,0 -39,-8 -55,-23 -15,-15 -23,-33 -23,-54l0 -174c0,-5 2,-10 6,-14 4,-4 8,-5 13,-5 5,0 10,1 14,4 4,4 6,9 6,15l0 174c0,11 3,20 11,27 4,4 8,6 12,9 6,1 11,2 15,2l78 0 0 -212c0,-5 2,-10 6,-14 4,-4 8,-5 13,-5 5,0 10,1 13,4 4,4 6,9 6,15l0 231zm387 -107l-44 46 0 61c0,6 -1,11 -5,15 -4,3 -8,5 -14,5 -5,0 -9,-2 -13,-5 -4,-3 -6,-8 -6,-15l0 -231c0,-5 2,-10 6,-14 4,-4 8,-5 13,-5 5,0 10,1 13,4 4,4 6,9 6,15l0 114 123 -128c3,-4 7,-6 12,-6 4,0 9,2 14,6 4,3 6,8 6,14 0,5 -3,10 -7,15l-77 81 79 123c3,5 5,10 5,13 0,5 -3,10 -7,14 -4,3 -8,5 -13,5 -5,0 -10,-2 -14,-7l-77 -120zm365 42c0,23 -8,43 -24,60 -17,16 -37,25 -61,25l-23 0c-23,0 -43,-8 -59,-25 -17,-16 -26,-36 -26,-60l0 -101c0,-22 9,-42 25,-59 17,-17 37,-26 60,-26l23 0c23,0 43,9 60,25 17,16 25,37 25,60l0 101zm-38 0l0 -101c0,-12 -4,-23 -13,-33 -9,-9 -20,-13 -33,-13l-24 0c-12,0 -23,4 -32,13 -10,9 -14,20 -14,33l0 101c0,13 4,24 13,33 9,9 20,13 33,13l24 0c12,0 23,-4 32,-13 9,-9 14,-20 14,-33zm347 65l0 -231c0,-7 -2,-13 -5,-17 -3,-3 -7,-5 -12,-5 -6,0 -12,3 -18,11l-81 113 -81 -113c-5,-8 -11,-11 -17,-11 -5,0 -9,2 -13,6 -3,4 -5,9 -5,16l0 231c0,6 2,11 6,15 3,3 8,5 14,5 4,0 9,-2 13,-5 4,-4 6,-9 6,-15l0 -171 61 86c6,7 11,10 16,10 5,0 10,-3 16,-10l62 -86 0 171c0,6 1,11 5,15 3,3 8,5 14,5 4,0 9,-2 13,-5 4,-4 6,-9 6,-15zm270 0c0,13 -6,20 -19,20l-97 0c-20,0 -39,-8 -54,-23 -15,-15 -23,-33 -23,-54l0 -174c0,-5 2,-10 6,-15 4,-3 8,-5 13,-5 5,0 10,2 14,5 4,3 5,8 5,15l0 174c0,11 4,20 12,27 3,4 8,6 12,9 6,1 11,2 15,2l78 0 0 -212c0,-5 2,-10 6,-15 3,-3 8,-5 13,-5 5,0 9,2 13,5 4,3 6,8 6,15l0 231z"/>
     <path class="fil4 str1" d="M9364 5118l-58 0c-20,0 -38,-8 -54,-23 -15,-15 -23,-33 -23,-54l0 -116c0,-22 8,-40 23,-55 15,-15 33,-23 54,-23l58 0c6,0 10,2 14,6 4,4 6,9 6,14 0,4 -2,8 -5,12 -3,5 -8,7 -15,7l-58 0c-11,0 -20,3 -27,11 -4,4 -7,8 -9,12 -1,5 -2,10 -2,16l0 116c0,11 3,20 11,27 4,4 8,6 12,9 6,1 11,2 15,2l58 0c6,0 10,2 14,6 4,4 6,9 6,14 0,4 -2,8 -5,12 -3,5 -8,7 -15,7zm232 0l-58 0c-21,0 -39,-8 -54,-23 -16,-15 -23,-33 -23,-54l0 -116c0,-22 7,-40 22,-55 15,-15 34,-23 55,-23l58 0c5,0 10,2 14,6 3,4 5,9 5,14 0,4 -1,8 -5,12 -3,5 -8,7 -14,7l-58 0c-11,0 -20,3 -28,11 -4,4 -6,8 -8,12 -2,5 -3,10 -3,16l0 116c0,11 4,20 11,27 4,4 8,6 13,9 5,1 10,2 15,2l58 0c5,0 10,2 14,6 3,4 5,9 5,14 0,4 -1,8 -5,12 -3,5 -8,7 -14,7zm289 -20c0,13 -6,20 -19,20l-97 0c-20,0 -38,-8 -54,-23 -15,-15 -23,-33 -23,-54l0 -174c0,-5 2,-10 6,-15 4,-3 8,-5 13,-5 5,0 10,2 14,5 4,3 6,8 6,15l0 174c0,11 3,20 11,27 4,4 8,6 12,9 6,1 11,2 15,2l78 0 0 -212c0,-5 2,-10 6,-15 3,-3 8,-5 13,-5 5,0 9,2 13,5 4,3 6,8 6,15l0 231zm270 0c0,13 -6,20 -19,20l-96 0c-21,0 -39,-8 -55,-23 -15,-15 -23,-33 -23,-54l0 -174c0,-5 2,-10 6,-15 4,-3 8,-5 13,-5 5,0 10,2 14,5 4,3 6,8 6,15l0 174c0,11 3,20 11,27 4,4 8,6 12,9 6,1 11,2 15,2l78 0 0 -212c0,-5 2,-10 6,-15 4,-3 8,-5 13,-5 5,0 10,2 13,5 4,3 6,8 6,15l0 231zm502 0c0,13 -6,20 -19,20l-97 0c-21,0 -39,-8 -54,-23 -15,-15 -23,-33 -23,-54l0 -174c0,-5 2,-10 6,-15 3,-3 8,-5 13,-5 5,0 9,2 13,5 4,3 6,8 6,15l0 174c0,11 4,20 11,27 4,4 8,6 13,9 5,1 10,2 15,2l78 0 0 -212c0,-5 1,-10 5,-15 4,-3 9,-5 14,-5 5,0 9,2 13,5 4,3 6,8 6,15l0 231zm179 -97l-25 0c-5,0 -10,-1 -14,-5 -3,-4 -5,-8 -5,-14 0,-4 2,-9 5,-13 4,-4 8,-6 14,-6l20 0c12,0 21,-4 28,-12 7,-7 10,-16 10,-27 0,-10 -3,-19 -9,-26 -3,-4 -7,-7 -12,-9 -5,-2 -11,-3 -17,-3l-20 0c-17,0 -33,5 -46,16 -3,2 -7,3 -12,4 -4,0 -8,-2 -13,-6 -4,-4 -6,-9 -6,-14 0,-6 3,-11 8,-15 20,-16 43,-24 69,-24l20 0c24,0 43,8 58,24 12,15 19,33 19,54 0,6 -1,11 -2,16 0,5 -2,10 -4,15 -4,9 -10,18 -18,27 7,6 13,15 18,26l4 15c1,5 2,11 2,17 0,21 -7,39 -19,53 -14,16 -33,24 -58,24l-20 0c-25,0 -49,-8 -69,-23 -5,-4 -8,-9 -8,-16 0,-4 2,-8 6,-13 4,-5 8,-7 13,-7 4,0 8,2 12,5 14,10 29,15 46,15l20 0c11,0 21,-4 28,-11 7,-8 10,-18 10,-28 0,-10 -2,-18 -8,-25 -5,-7 -14,-11 -25,-14zm303 40l0 -116c0,-11 -3,-21 -10,-28 -8,-7 -17,-11 -28,-11l-39 0c-11,0 -20,3 -28,11 -3,4 -6,8 -8,12 -2,5 -3,10 -3,16l0 116c0,11 4,20 11,27 4,4 8,6 13,9 5,1 10,2 15,2l39 0c10,0 20,-3 27,-10 8,-8 11,-17 11,-28zm-62 -194l-86 -82c-5,-5 -7,-11 -7,-16 0,-4 1,-8 5,-12 3,-3 8,-5 15,-5l155 0c5,0 9,2 13,6 4,3 6,8 6,13 0,4 -2,9 -5,13 -3,4 -8,6 -14,6l-107 0 103 98 4 6c13,15 19,31 19,51l0 116c0,21 -8,39 -23,54 -15,15 -33,23 -54,23l-39 0c-21,0 -39,-8 -54,-23 -16,-15 -23,-33 -23,-54l0 -116c0,-22 7,-40 22,-55 15,-15 34,-23 55,-23l15 0zm371 251c0,13 -7,20 -19,20l-97 0c-21,0 -39,-8 -54,-23 -15,-15 -23,-33 -23,-54l0 -174c0,-5 2,-10 6,-15 3,-3 8,-5 13,-5 5,0 9,2 13,5 4,3 6,8 6,15l0 174c0,11 4,20 11,27 4,4 8,6 13,9 5,1 10,2 15,2l78 0 0 -212c0,-5 1,-10 5,-15 4,-3 9,-5 14,-5 5,0 9,2 13,5 4,3 6,8 6,15l0 231zm115 -19l78 0c11,0 20,-3 27,-10 8,-8 12,-17 12,-28l0 -116c0,-11 -4,-21 -11,-28 -8,-7 -17,-11 -28,-11l-78 0 0 193zm0 39l0 96c0,6 -2,10 -6,14 -3,4 -8,5 -13,5 -4,0 -9,-1 -13,-4 -4,-4 -6,-8 -6,-15l0 -347c0,-13 6,-20 19,-20l97 0c21,0 39,8 54,23 15,15 23,33 23,55l0 116c0,21 -8,39 -23,54 -15,15 -33,23 -54,23l-78 0zm387 -77l0 -155 -78 0c-11,0 -20,3 -28,11 -3,4 -6,8 -8,12 -2,5 -3,10 -3,16l0 116c0,11 4,20 11,27 4,4 8,6 13,9 5,1 11,2 15,2l39 0c11,0 20,-3 27,-10 8,-8 12,-17 12,-28zm19 51c-7,7 -15,14 -26,18 -11,5 -21,8 -32,8l-39 0c-21,0 -39,-8 -54,-23 -15,-15 -23,-33 -23,-54l0 -116c0,-22 8,-40 23,-55 15,-15 33,-23 54,-23l97 0c13,0 19,7 19,20l0 173c0,8 2,16 7,24 5,7 11,13 20,16 8,4 12,10 12,18 0,6 -2,10 -6,14 -3,4 -8,6 -13,6 -3,0 -6,-1 -8,-2 -13,-5 -23,-13 -31,-24zm212 -206l-78 0 0 212c0,6 -1,11 -5,15 -3,3 -8,5 -14,5 -5,0 -9,-2 -13,-5 -4,-3 -6,-8 -6,-15l0 -231c0,-13 6,-20 19,-20l174 0c21,0 39,8 54,23 15,15 23,33 23,55l0 173c0,6 -2,11 -6,15 -3,3 -8,5 -13,5 -5,0 -10,-2 -14,-5 -4,-3 -5,-8 -5,-15l0 -174c0,-10 -4,-20 -11,-27 -8,-7 -17,-11 -28,-11l-39 0 0 212c0,6 -2,11 -5,15 -4,3 -8,5 -14,5 -5,0 -10,-2 -13,-5 -4,-3 -6,-8 -6,-15l0 -212zm270 78l116 0 0 -39c0,-11 -4,-20 -11,-28 -7,-7 -17,-11 -28,-11l-39 0c-10,0 -20,3 -27,11 -4,4 -7,8 -9,13 -1,4 -2,9 -2,15l0 39zm0 38l0 39c0,11 3,20 11,27 4,4 8,6 12,9 6,1 11,2 15,2l97 0c5,0 10,2 14,6 3,4 5,9 5,14 0,4 -1,8 -4,12 -4,5 -9,7 -15,7l-96 0c-21,0 -39,-8 -55,-23 -15,-15 -23,-33 -23,-54l0 -116c0,-21 8,-39 23,-55 15,-15 33,-23 55,-23l38 0c21,0 39,8 54,23 16,15 23,33 23,55l0 58c0,13 -6,19 -19,19l-135 0zm424 96c0,6 -1,11 -5,15 -4,3 -8,5 -14,5 -5,0 -9,-2 -13,-5 -4,-3 -6,-8 -6,-15l0 -212 -44 0 -73 218c-1,5 -3,8 -7,11 -1,0 -4,1 -10,3 -5,0 -10,-2 -14,-6 -4,-3 -6,-7 -6,-13l1 -7 77 -231c2,-9 8,-14 18,-14l77 0c13,0 19,7 19,20l0 231zm116 -97l0 78 77 0c12,0 22,-4 29,-11 7,-8 10,-17 10,-28 0,-10 -3,-20 -9,-27 -3,-3 -8,-6 -13,-8 -4,-2 -10,-4 -17,-4l-77 0zm0 -38l77 0c24,0 44,8 58,24 13,15 20,32 20,53 0,21 -7,39 -19,53 -15,17 -34,25 -59,25l-96 0c-13,0 -20,-7 -20,-20l0 -231c0,-5 2,-10 6,-15 4,-3 9,-5 14,-5 5,0 9,2 13,5 4,3 6,8 6,15l0 96zm386 0l0 -96c0,-6 2,-10 6,-15 4,-3 8,-5 13,-5 5,0 10,2 14,5 4,3 6,8 6,15l0 231c0,6 -2,11 -6,15 -3,3 -8,5 -14,5 -5,0 -9,-2 -13,-5 -4,-3 -6,-8 -6,-15l0 -97 -116 0 0 97c0,6 -2,11 -6,15 -3,3 -8,5 -13,5 -5,0 -10,-2 -14,-5 -4,-3 -5,-8 -5,-15l0 -231c0,-5 1,-10 5,-15 4,-3 9,-5 14,-5 5,0 9,2 13,5 4,3 6,8 6,15l0 96 116 0zm309 70c0,23 -9,43 -25,60 -16,16 -37,25 -60,25l-23 0c-23,0 -43,-8 -60,-25 -17,-16 -25,-36 -25,-60l0 -101c0,-22 8,-42 24,-59 17,-17 37,-26 61,-26l23 0c23,0 43,9 59,25 17,16 26,37 26,60l0 101zm-39 0l0 -101c0,-12 -4,-23 -13,-33 -9,-9 -20,-13 -33,-13l-24 0c-12,0 -23,4 -32,13 -9,9 -14,20 -14,33l0 101c0,13 5,24 14,33 9,9 20,13 32,13l24 0c12,0 23,-4 32,-13 10,-9 14,-20 14,-33zm299 67c-10,6 -23,10 -39,14l-21 3 -22 1 -27 -1 -23 -3c-15,-2 -27,-9 -36,-20 -9,-11 -14,-24 -14,-38 0,-8 2,-16 5,-24 4,-8 9,-16 17,-22l123 -85c4,-3 6,-7 6,-12 0,-8 -7,-14 -20,-19 -13,-4 -28,-7 -43,-7 -13,0 -25,1 -34,4 -10,2 -18,5 -25,11 -3,2 -7,3 -11,4 -5,0 -9,-2 -14,-6 -4,-4 -5,-9 -5,-14 0,-6 2,-11 7,-15 8,-6 20,-11 37,-15 7,-2 15,-4 24,-5 8,-1 16,-1 24,-1 6,0 10,0 15,0 5,0 10,0 16,1 6,1 13,2 21,5 14,4 25,11 34,21 9,11 14,23 14,35 0,16 -8,31 -22,44l-124 85c-5,4 -7,9 -7,15 0,4 2,9 5,13 3,4 7,7 13,8l21 2 23 1c14,0 26,-1 35,-3 4,-1 9,-2 14,-4 5,-2 9,-4 14,-7l4 -2c1,0 4,0 6,0 5,0 10,2 14,6 3,4 5,9 5,14 0,6 -3,12 -10,16zm280 -67c0,23 -8,43 -25,60 -16,16 -36,25 -60,25l-23 0c-23,0 -43,-8 -60,-25 -17,-16 -25,-36 -25,-60l0 -101c0,-22 8,-42 25,-59 16,-17 36,-26 60,-26l23 0c23,0 43,9 60,25 16,16 25,37 25,60l0 101zm-39 0l0 -101c0,-12 -4,-23 -13,-33 -9,-9 -20,-13 -33,-13l-23 0c-13,0 -24,4 -33,13 -9,9 -14,20 -14,33l0 101c0,13 5,24 14,33 9,9 20,13 33,13l23 0c12,0 23,-4 33,-13 9,-9 13,-20 13,-33zm502 85l-77 0c-21,0 -39,-8 -55,-23 -15,-15 -23,-33 -23,-54l0 -174c0,-5 2,-10 6,-15 4,-3 8,-5 14,-5 4,0 9,2 13,5 4,3 6,8 6,15l0 174c0,11 3,20 11,27 4,4 8,6 12,9 6,1 11,2 16,2l77 0 0 -212c0,-5 2,-10 6,-15 4,-3 8,-5 13,-5 5,0 10,2 13,5 4,3 6,8 6,15l0 289c0,21 -7,39 -22,55 -15,15 -33,22 -55,22l-77 0c-5,0 -10,-1 -14,-5 -4,-4 -5,-9 -5,-14 0,-5 1,-9 5,-13 3,-4 8,-6 14,-6l77 0c11,0 20,-4 28,-11 7,-7 11,-16 11,-28l0 -38zm270 -155l0 -96c0,-6 2,-10 6,-15 4,-3 8,-5 13,-5 5,0 10,2 14,5 4,3 5,8 5,15l0 231c0,6 -1,11 -5,15 -3,3 -8,5 -14,5 -5,0 -9,-2 -13,-5 -4,-3 -6,-8 -6,-15l0 -97 -77 0c-21,0 -39,-7 -54,-22 -16,-15 -24,-33 -24,-55l0 -57c0,-6 2,-10 6,-15 4,-3 9,-5 14,-5 5,0 9,2 13,5 4,3 6,8 6,15l0 58c0,10 4,20 11,27 4,3 8,6 12,8 6,2 11,3 16,3l77 0zm270 78l0 -155 -77 0c-11,0 -20,3 -28,11 -4,4 -6,8 -8,12 -2,5 -3,10 -3,16l0 116c0,11 4,20 11,27 4,4 8,6 12,9 6,1 11,2 16,2l38 0c11,0 20,-3 28,-10 7,-8 11,-17 11,-28zm19 51c-6,7 -15,14 -25,18 -11,5 -22,8 -33,8l-38 0c-21,0 -39,-8 -54,-23 -16,-15 -23,-33 -23,-54l0 -116c0,-22 7,-40 22,-55 15,-15 33,-23 55,-23l96 0c13,0 20,7 20,20l0 173c0,8 2,16 7,24 4,7 11,13 19,16 8,4 12,10 12,18 0,6 -2,10 -5,14 -4,4 -8,6 -14,6 -3,0 -5,-1 -8,-2 -12,-5 -23,-13 -31,-24zm232 26l-58 0c-21,0 -39,-8 -54,-23 -16,-15 -23,-33 -23,-54l0 -116c0,-22 7,-40 22,-55 15,-15 34,-23 55,-23l58 0c5,0 10,2 14,6 3,4 5,9 5,14 0,4 -1,8 -5,12 -3,5 -8,7 -14,7l-58 0c-11,0 -20,3 -28,11 -4,4 -6,8 -8,12 -2,5 -3,10 -3,16l0 116c0,11 4,20 11,27 4,4 8,6 13,9 5,1 10,2 15,2l58 0c5,0 10,2 14,6 3,4 5,9 5,14 0,4 -1,8 -5,12 -3,5 -8,7 -14,7zm212 -232l-77 0 0 212c0,6 -2,11 -6,15 -3,3 -8,5 -14,5 -5,0 -9,-2 -13,-5 -4,-3 -6,-8 -6,-15l0 -231c0,-13 7,-20 19,-20l174 0c21,0 39,8 54,23 15,15 23,33 23,55l0 173c0,6 -2,11 -6,15 -3,3 -8,5 -13,5 -5,0 -10,-2 -14,-5 -4,-3 -5,-8 -5,-15l0 -174c0,-10 -4,-20 -11,-27 -8,-7 -17,-11 -28,-11l-39 0 0 212c0,6 -2,11 -5,15 -4,3 -8,5 -14,5 -5,0 -10,-2 -13,-5 -4,-3 -6,-8 -6,-15l0 -212zm309 105l-43 46 0 61c0,6 -2,11 -6,15 -3,3 -8,5 -13,5 -5,0 -10,-2 -14,-5 -4,-3 -6,-8 -6,-15l0 -231c0,-5 2,-10 6,-14 4,-4 9,-5 14,-5 4,0 9,1 13,4 4,4 6,9 6,15l0 114 122 -128c4,-4 8,-6 13,-6 4,0 8,2 13,6 4,3 6,8 6,14 0,5 -2,10 -6,15l-78 81 80 123c3,5 4,10 4,13 0,5 -2,10 -6,14 -4,3 -9,5 -14,5 -5,0 -9,-2 -14,-7l-77 -120zm328 50l0 -155 -78 0c-11,0 -20,3 -28,11 -3,4 -6,8 -8,12 -2,5 -3,10 -3,16l0 116c0,11 4,20 11,27 4,4 8,6 13,9 5,1 10,2 15,2l39 0c10,0 20,-3 27,-10 8,-8 12,-17 12,-28zm18 51c-6,7 -14,14 -25,18 -11,5 -22,8 -32,8l-39 0c-21,0 -39,-8 -54,-23 -15,-15 -23,-33 -23,-54l0 -116c0,-22 7,-40 22,-55 16,-15 34,-23 55,-23l97 0c12,0 19,7 19,20l0 173c0,8 2,16 7,24 5,7 11,13 20,16 8,4 12,10 12,18 0,6 -2,10 -6,14 -3,4 -8,6 -14,6 -2,0 -5,-1 -8,-2 -12,-5 -22,-13 -31,-24zm715 -225c0,17 -6,31 -19,43 -11,10 -24,15 -39,15 -16,0 -29,-5 -40,-15 -12,-11 -18,-25 -18,-43l0 -78c0,-17 6,-31 18,-43 11,-10 24,-14 40,-14 15,0 28,4 39,14 13,10 19,25 19,43l0 78zm-155 231c0,5 -2,10 -6,15 -4,3 -8,5 -13,5 -8,0 -14,-4 -18,-10l-156 -282 0 272c0,6 -2,11 -6,15 -3,3 -8,5 -13,5 -5,0 -10,-2 -14,-5 -4,-3 -6,-8 -6,-15l0 -347c0,-5 2,-10 6,-14 4,-4 9,-5 14,-5 7,0 13,3 17,10l156 282 0 -273c0,-5 2,-10 6,-14 4,-4 9,-5 14,-5 5,0 9,1 13,4 4,4 6,9 6,15l0 347zm116 -231l0 -78c0,-5 -2,-10 -6,-15 -4,-2 -8,-4 -13,-4 -5,0 -9,2 -14,5 -4,3 -6,8 -6,14l0 78c0,6 2,11 5,15 4,3 9,4 15,4 4,0 9,-1 13,-5 4,-3 6,-8 6,-14zm540 310l-231 0 0 -38 231 0 0 38zm232 0l-232 0 0 -38 232 0 0 38zm231 0l-231 0 0 -38 231 0 0 38zm232 0l-232 0 0 -38 232 0 0 38zm231 0l-231 0 0 -38 231 0 0 38zm232 0l-232 0 0 -38 232 0 0 38z"/>
    </g>
   </g>
   <g id="_504807351216">
    <path class="fil5" d="M8001 9664l-1076 -5 7 -228 1075 5 -6 228z"/>
    <path class="fil5" d="M7988 10078l-1075 -6 7 -228 1075 6 -7 228z"/>
    <path class="fil5" d="M7976 10491l-1075 -5 7 -228 1075 5 -7 228z"/>
    <path class="fil5" d="M12952 9688l-4617 -22 6 -228 4618 23 -7 227z"/>
    <path class="fil5" d="M12939 10102l-4617 -23 7 -228 4617 23 -7 228z"/>
    <path class="fil5" d="M12927 10515l-4617 -22 7 -228 4617 22 -7 228z"/>
    <path class="fil5" d="M7959 11052l-1075 -5 7 -228 1075 5 -7 228z"/>
    <path class="fil5" d="M7947 11465l-1075 -5 6 -228 1076 5 -7 228z"/>
    <path class="fil5" d="M7935 11879l-1075 -5 6 -229 1076 6 -7 228z"/>
    <path class="fil5" d="M12911 11076l-4618 -23 7 -227 4618 22 -7 228z"/>
    <path class="fil5" d="M12898 11489l-4617 -22 7 -228 4617 22 -7 228z"/>
    <path class="fil5" d="M12886 11903l-4617 -22 7 -229 4617 23 -7 228z"/>
    <path class="fil5" d="M10063 7355l-7 227 2863 15 7 -229 -2863 -13z"/>
    <path class="fil5" d="M10050 7768l-6 228 2863 14 6 -228 -2863 -14z"/>
    <path class="fil5" d="M10038 8182l-6 228 2862 13 7 -227 -2863 -14z"/>
    <path class="fil5" d="M10026 8595l-7 228 2863 14 7 -228 -2863 -14z"/>
    <path class="fil6" d="M12575 7033l-2142 -11 26 -906 2143 11 -27 906z"/>
    <path class="fil6" d="M9511 9038l-2432 0 72 -2809 2432 0 -72 2809z"/>
    <path class="fil7" d="M8704 7544c-20,172 -20,404 2,552 14,92 209,262 151,332 -90,111 -473,102 -558,102 -87,-1 -397,2 -467,-114 -42,-68 128,-230 130,-320 4,-120 46,-327 19,-505 -17,-108 271,72 341,72 61,-1 395,-224 382,-119z"/>
    <path class="fil7" d="M7941 7428c-1,41 -32,75 -69,75l0 0c-37,-1 -53,-14 -49,-171l-20 -101c1,-70 50,17 87,16l20 1c37,-1 35,2 34,43l-3 137z"/>
    <path class="fil7" d="M8683 7428c-1,41 28,75 64,75l0 0c37,0 55,-14 59,-172l25 -100c2,-70 -52,16 -88,16l-20 0c-37,0 -35,3 -36,44l-4 137z"/>
    <path class="fil8" d="M8706 8096c-22,-148 -22,-380 -2,-552 13,-105 -321,118 -382,119 -70,0 -358,-180 -341,-72 11,75 10,154 5,230l495 780c96,-14 338,-126 376,-173 58,-70 -137,-240 -151,-332z"/>
    <path class="fil7" d="M8002 6866c-88,83 -67,281 -70,418l-7 238c-1,69 -8,149 15,208 43,106 153,212 252,252 41,16 73,-10 118,-11l26 -1136c-99,-1 -264,-34 -334,31z"/>
    <path class="fil9" d="M8729 7284c4,-152 32,-351 -69,-432 -63,-51 -233,-16 -318,-16 -2,-1 -10,-1 -12,-1l-25 1136c1,0 7,0 8,0 47,0 131,25 173,8 82,-90 143,-126 217,-238 25,-58 18,-151 20,-219l6 -238z"/>
    <path class="fil10" d="M7855 6835c-7,17 -14,35 -20,52 -22,75 -13,146 12,217 22,67 49,132 50,206 1,38 21,59 46,85 -4,-45 -8,-84 -9,-124 -3,-52 7,-100 43,-137 23,-23 30,-51 26,-83 -2,-17 -3,-33 -5,-50 -6,-75 20,-120 86,-135 47,-11 96,-12 143,-11 109,0 217,4 326,6 10,1 19,0 29,1 47,5 75,36 79,89 1,18 2,38 -3,56 -18,60 -6,110 29,156 28,36 38,81 35,129 -4,34 -8,69 -12,102 3,2 5,3 8,4 9,-23 22,-46 28,-70 13,-54 23,-110 35,-165 21,-97 38,-194 25,-294 -11,-84 -63,-198 -155,-193 2,6 -51,40 -58,24 -20,-47 -82,-62 -132,-75 -93,-23 -187,-6 -282,-10 -242,-10 -313,197 -324,220z"/>
    <path class="fil11" d="M8543 9038l72 -298 102 -430c-14,46 -14,-219 -14,-219 -10,7 -402,284 -413,291 8,6 7,308 4,656l249 0z"/>
    <path class="fil11" d="M8065 9038l238 0c12,-358 24,-671 32,-677 -10,-7 -364,-267 -373,-274 0,0 -22,270 -33,223l79 431 57 297z"/>
    <path class="fil12" d="M8850 8435l-87 124 -26 -15 113 -109z"/>
    <path class="fil13" d="M8518 9038l987 0c-97,-266 -112,-409 -110,-516 1,-33 -344,-73 -571,-307l-122 -146c2,19 -68,466 -68,466l-116 503z"/>
    <path class="fil14" d="M8324 8357l-144 274 146 301 131 -305 -113 -271 -20 1z"/>
    <path class="fil12" d="M7964 8074l174 637 187 -356 -361 -281z"/>
    <path class="fil12" d="M8705 8074l-206 636 -170 -355 376 -281z"/>
    <path class="fil14" d="M8387 9038l-60 -529 -90 529 150 0z"/>
    <path class="fil15" d="M8858 9038l60 -137 -177 -101 230 -192 -133 -381 -136 -157 -190 968 346 0z"/>
    <path class="fil13" d="M7248 9038c-18,-224 -19,-399 -19,-399 -53,151 -101,283 -145,399l164 0z"/>
    <path class="fil13" d="M8094 9038l-60 -478c0,0 -72,-484 -69,-504l-86 118c-322,374 -626,285 -633,374 -2,17 -78,234 -142,490l990 0z"/>
    <path class="fil15" d="M7706 8901l53 137 347 0 -141 -981 -154 198 -142 353 219 192 -182 101z"/>
   </g>
   <g id="_504810530512">
    <path class="fil4 str1" d="M6934 12701l-121 0c-26,0 -49,-9 -68,-28 -19,-19 -29,-42 -29,-69l0 -289c0,-27 10,-50 28,-68 19,-19 42,-29 69,-29l121 0c6,0 12,3 17,8 4,5 7,10 7,16 0,6 -2,11 -6,17 -5,5 -10,7 -19,7l-120 0c-14,0 -26,5 -35,14 -5,5 -8,10 -10,16 -3,6 -4,12 -4,19l0 290c0,13 5,25 14,34 5,4 10,8 16,11 6,2 13,3 19,3l120 0c7,0 13,3 18,7 4,5 7,11 7,17 0,6 -2,11 -6,16 -5,5 -10,8 -18,8zm291 -96l0 -145c0,-14 -4,-25 -13,-34 -9,-10 -21,-14 -35,-14l-49 0c-13,0 -25,4 -34,13 -5,5 -8,10 -11,16 -2,6 -3,12 -3,19l0 145c0,13 5,25 14,34 5,4 10,8 15,11 7,2 14,3 19,3l49 0c13,0 25,-4 34,-13 10,-9 14,-21 14,-35zm-145 -225l20 -13 29 -20c9,-7 15,-13 19,-18 6,-7 10,-15 10,-23 0,-11 -4,-21 -12,-28 -8,-7 -17,-10 -27,-10 -11,0 -20,3 -28,10 -7,6 -11,15 -11,28l0 74zm97 -15c31,0 55,9 72,27 16,18 24,40 24,68l0 145c0,26 -9,49 -28,68 -19,18 -41,28 -68,28l-48 0c-26,0 -49,-9 -68,-28 -19,-18 -29,-41 -29,-68l0 -299c0,-27 9,-49 27,-66 17,-14 37,-22 60,-22 22,0 42,8 60,23 18,15 27,37 27,64 0,16 -3,27 -7,35 -4,8 -11,16 -22,25zm241 143l145 0 0 -48c0,-14 -5,-25 -14,-35 -9,-9 -20,-14 -34,-14l-49 0c-14,0 -25,5 -34,14 -5,5 -9,10 -11,16 -2,6 -3,12 -3,19l0 48zm0 48l0 49c0,13 4,25 13,34 5,4 11,8 16,11 7,2 13,3 19,3l121 0c6,0 12,3 17,7 5,5 7,11 7,17 0,6 -2,11 -6,16 -4,5 -10,8 -18,8l-121 0c-26,0 -49,-9 -68,-28 -19,-19 -28,-42 -28,-69l0 -144c0,-26 9,-49 28,-68 18,-19 41,-29 68,-29l48 0c27,0 49,9 68,28 19,19 29,42 29,69l0 72c0,16 -8,24 -24,24l-169 0zm483 -145l-97 0c-14,0 -25,5 -35,14 -4,4 -8,10 -10,16 -3,5 -4,12 -4,18l0 146c0,13 5,25 14,34 5,4 10,8 16,11 7,2 13,3 19,3l48 0c14,0 25,-4 34,-13 10,-9 15,-21 15,-35l0 -194zm0 -48l0 -48c0,-14 -5,-25 -14,-35 -9,-9 -21,-14 -35,-14l-96 0c-8,0 -14,-2 -18,-6 -5,-5 -7,-11 -7,-18 0,-5 2,-10 6,-16 4,-5 10,-8 18,-8l97 0c27,0 50,10 68,29 19,19 29,41 29,68l0 289c0,27 -10,50 -29,69 -19,18 -41,28 -68,28l-48 0c-26,0 -49,-9 -68,-28 -19,-19 -29,-41 -29,-69l0 -144c0,-27 10,-50 29,-69 18,-19 41,-28 68,-28l97 0zm192 145l145 0 0 -48c0,-14 -4,-25 -13,-35 -10,-9 -21,-14 -35,-14l-49 0c-13,0 -25,5 -34,14 -5,5 -8,10 -11,16 -2,6 -3,12 -3,19l0 48zm0 48l0 49c0,13 4,25 14,34 5,4 10,8 15,11 7,2 13,3 19,3l121 0c7,0 12,3 17,7 5,5 7,11 7,17 0,6 -2,11 -6,16 -4,5 -10,8 -18,8l-121 0c-26,0 -48,-9 -68,-28 -19,-19 -28,-42 -28,-69l0 -144c0,-26 9,-49 28,-68 18,-19 41,-29 68,-29l49 0c26,0 48,9 68,28 19,19 28,42 28,69l0 72c0,16 -8,24 -24,24l-169 0zm483 -48l0 -121c0,-6 2,-12 7,-18 5,-4 10,-6 17,-6 6,0 12,2 16,6 5,4 8,10 8,18l0 290c0,7 -2,14 -7,18 -4,4 -10,6 -17,6 -7,0 -12,-2 -17,-6 -5,-4 -7,-10 -7,-18l0 -121 -146 0 0 121c0,7 -2,14 -6,18 -5,4 -10,6 -18,6 -6,0 -12,-2 -16,-6 -5,-4 -8,-10 -8,-18l0 -290c0,-6 3,-12 8,-18 4,-4 10,-6 16,-6 7,0 12,2 17,6 5,4 7,10 7,18l0 121 146 0zm385 169c0,16 -8,24 -24,24l-120 0c-26,0 -49,-9 -68,-28 -19,-19 -29,-41 -29,-69l0 -217c0,-6 2,-12 7,-18 5,-4 11,-6 17,-6 6,0 12,2 17,6 5,4 7,10 7,18l0 218c0,13 5,25 14,34 5,4 10,8 15,11 7,2 14,3 20,3l96 0 0 -266c0,-6 3,-12 8,-18 4,-4 10,-6 16,-6 7,0 12,2 17,6 5,4 7,10 7,18l0 290zm290 -169l0 -97 -97 0c-14,0 -25,5 -36,15 -8,9 -12,21 -12,34 0,12 4,23 12,33 9,10 21,15 36,15l97 0zm-59 48l-90 134c-2,3 -5,6 -9,9l-11 2c-5,0 -10,-2 -17,-7 -5,-5 -7,-11 -7,-17 0,-4 1,-9 3,-14l73 -108c-24,-3 -42,-15 -56,-33 -13,-19 -20,-40 -20,-62 0,-26 8,-48 24,-67 18,-20 42,-30 72,-30l121 0c16,0 24,8 24,24l0 290c0,7 -2,14 -7,18 -4,4 -10,6 -17,6 -6,0 -12,-2 -17,-6 -5,-4 -7,-10 -7,-18l0 -121 -59 0zm734 39c0,29 -10,53 -31,74 -20,22 -46,32 -75,32l-29 0c-29,0 -54,-10 -75,-31 -21,-20 -31,-45 -31,-75l0 -126c0,-28 10,-53 31,-74 20,-21 46,-32 75,-32l29 0c29,0 53,10 75,31 21,20 31,46 31,75l0 126zm-48 0l0 -126c0,-16 -6,-29 -17,-41 -11,-11 -25,-17 -41,-17l-29 0c-16,0 -30,6 -41,17 -12,11 -17,25 -17,41l0 126c0,16 5,29 17,41 11,11 25,17 41,17l29 0c16,0 29,-5 41,-17 11,-11 17,-24 17,-41zm627 -87l0 -121c0,-6 2,-12 7,-18 5,-4 11,-6 17,-6 6,0 12,2 17,6 5,4 7,10 7,18l0 290c0,7 -2,14 -7,18 -4,4 -10,6 -17,6 -6,0 -12,-2 -17,-6 -5,-4 -7,-10 -7,-18l0 -121 -145 0 0 121c0,7 -3,14 -7,18 -4,4 -10,6 -17,6 -7,0 -12,-2 -17,-6 -5,-4 -7,-10 -7,-18l0 -290c0,-6 2,-12 7,-18 5,-4 10,-6 17,-6 6,0 11,2 16,6 5,4 8,10 8,18l0 121 145 0zm192 0l146 0 0 -48c0,-14 -5,-25 -14,-35 -9,-9 -21,-14 -35,-14l-48 0c-14,0 -25,5 -35,14 -4,5 -8,10 -10,16 -3,6 -4,12 -4,19l0 48zm0 48l0 49c0,13 5,25 14,34 5,4 10,8 16,11 7,2 13,3 19,3l121 0c6,0 12,3 17,7 4,5 7,11 7,17 0,6 -2,11 -6,16 -4,5 -10,8 -18,8l-121 0c-26,0 -49,-9 -68,-28 -19,-19 -29,-42 -29,-69l0 -144c0,-26 10,-49 28,-68 19,-19 42,-29 69,-29l48 0c26,0 49,9 68,28 19,19 29,42 29,69l0 72c0,16 -8,24 -24,24l-170 0zm459 145l-73 0c-25,0 -48,-9 -67,-28 -19,-19 -29,-41 -29,-69l0 -144c0,-27 9,-50 28,-69 19,-19 42,-28 68,-28l73 0c7,0 12,3 17,7 5,5 7,11 7,17 0,6 -2,11 -6,16 -4,5 -10,8 -18,8l-73 0c-13,0 -25,5 -34,14 -5,4 -8,10 -11,16 -2,5 -3,12 -3,18l0 146c0,13 5,25 14,34 5,4 10,8 15,11 7,2 14,3 19,3l73 0c7,0 12,3 17,7 5,5 7,11 7,17 0,6 -2,11 -6,16 -4,5 -10,8 -18,8zm314 -193l0 -121c0,-6 2,-12 7,-18 5,-4 10,-6 17,-6 6,0 11,2 16,6 5,4 8,10 8,18l0 290c0,7 -3,14 -7,18 -5,4 -10,6 -17,6 -7,0 -12,-2 -17,-6 -5,-4 -7,-10 -7,-18l0 -121 -146 0 0 121c0,7 -2,14 -6,18 -5,4 -11,6 -18,6 -6,0 -12,-2 -16,-6 -5,-4 -8,-10 -8,-18l0 -290c0,-6 3,-12 8,-18 4,-4 10,-6 16,-6 6,0 12,2 17,6 5,4 7,10 7,18l0 121 146 0zm337 0l0 -97 -97 0c-13,0 -25,5 -36,15 -8,9 -12,21 -12,34 0,12 4,23 13,33 8,10 20,15 35,15l97 0zm-59 48l-90 134c-1,3 -5,6 -9,9l-11 2c-5,0 -10,-2 -16,-7 -5,-5 -8,-11 -8,-17 0,-4 1,-9 4,-14l72 -108c-24,-3 -42,-15 -56,-33 -13,-19 -20,-40 -20,-62 0,-26 8,-48 24,-67 18,-20 42,-30 73,-30l120 0c16,0 24,8 24,24l0 290c0,7 -2,14 -7,18 -4,4 -10,6 -17,6 -6,0 -12,-2 -17,-6 -4,-4 -7,-10 -7,-18l0 -121 -59 0zm348 -145l-96 0 0 266c0,7 -3,14 -7,18 -5,4 -10,6 -17,6 -7,0 -12,-2 -17,-6 -5,-4 -7,-10 -7,-18l0 -290c0,-16 8,-24 24,-24l217 0c26,0 48,9 67,28 19,19 29,42 29,69l0 217c0,7 -2,14 -7,18 -4,4 -10,6 -17,6 -7,0 -12,-2 -17,-6 -5,-4 -7,-10 -7,-18l0 -218c0,-13 -5,-25 -14,-34 -9,-9 -20,-14 -34,-14l-49 0 0 266c0,7 -2,14 -7,18 -4,4 -10,6 -17,6 -6,0 -12,-2 -17,-6 -4,-4 -7,-10 -7,-18l0 -266zm531 184c0,29 -10,53 -31,74 -20,22 -46,32 -75,32l-29 0c-29,0 -54,-10 -75,-31 -21,-20 -31,-45 -31,-75l0 -126c0,-28 10,-53 31,-74 20,-21 45,-32 75,-32l29 0c28,0 53,10 74,31 21,20 32,46 32,75l0 126zm-48 0l0 -126c0,-16 -6,-29 -17,-41 -11,-11 -25,-17 -41,-17l-29 0c-16,0 -30,6 -41,17 -12,11 -17,25 -17,41l0 126c0,16 5,29 17,41 11,11 25,17 41,17l29 0c15,0 29,-5 41,-17 11,-11 17,-24 17,-41zm313 -329l-96 0c-8,0 -14,-2 -18,-6 -4,-5 -7,-11 -7,-18 0,-5 2,-10 6,-16 5,-5 11,-8 19,-8l96 0c7,0 12,3 17,8 5,5 7,10 7,16 0,6 -2,11 -6,17 -4,5 -10,7 -18,7zm73 411c0,16 -8,24 -25,24l-120 0c-26,0 -49,-9 -68,-28 -19,-19 -29,-41 -29,-68l0 -217c0,-7 3,-13 7,-18 5,-5 11,-7 17,-7 6,0 12,2 17,6 5,4 7,11 7,19l0 217c0,13 5,25 14,34 5,4 10,8 16,11 7,2 13,3 19,3l97 0 0 -265c0,-7 2,-13 7,-18 5,-5 10,-7 17,-7 6,0 11,2 16,6 5,4 8,11 8,19l0 289zm-5223 772c0,16 -8,24 -24,24l-120 0c-26,0 -49,-9 -68,-28 -19,-19 -29,-41 -29,-69l0 -217c0,-6 2,-12 7,-18 5,-4 11,-6 17,-6 6,0 12,2 17,6 5,4 7,10 7,18l0 218c0,13 5,25 14,34 5,4 10,8 16,11 6,2 13,3 19,3l96 0 0 -266c0,-6 3,-12 8,-18 4,-4 10,-6 16,-6 7,0 12,2 17,6 5,4 7,10 7,18l0 290zm579 -169l0 -121c0,-6 3,-12 8,-18 4,-4 10,-6 16,-6 7,0 12,2 17,6 5,4 7,10 7,18l0 290c0,7 -2,14 -6,18 -5,4 -10,6 -18,6 -6,0 -12,-2 -16,-6 -5,-4 -8,-10 -8,-18l0 -121 -145 0 0 121c0,7 -2,14 -7,18 -4,4 -10,6 -17,6 -6,0 -12,-2 -17,-6 -5,-4 -7,-10 -7,-18l0 -290c0,-6 2,-12 7,-18 5,-4 11,-6 17,-6 6,0 12,2 17,6 5,4 7,10 7,18l0 121 145 0zm193 0l145 0 0 -48c0,-14 -5,-25 -14,-35 -9,-9 -20,-14 -34,-14l-49 0c-13,0 -25,5 -34,14 -5,5 -9,10 -11,16 -2,6 -3,12 -3,19l0 48zm0 48l0 49c0,13 4,25 13,34 5,4 11,8 16,11 7,2 13,3 19,3l121 0c7,0 12,3 17,7 5,5 7,11 7,17 0,6 -2,11 -6,16 -4,5 -10,8 -18,8l-121 0c-26,0 -49,-9 -68,-28 -19,-19 -28,-42 -28,-69l0 -144c0,-26 9,-49 28,-68 18,-19 41,-29 68,-29l49 0c26,0 48,9 67,28 20,19 29,42 29,69l0 72c0,16 -8,24 -24,24l-169 0zm531 121c0,7 -3,14 -7,18 -5,4 -10,6 -17,6 -7,0 -12,-2 -17,-6 -5,-4 -7,-10 -7,-18l0 -218c0,-13 -5,-25 -14,-34 -9,-9 -21,-14 -35,-14l-97 0 0 266c0,7 -2,14 -6,18 -5,4 -11,6 -18,6 -6,0 -12,-2 -16,-6 -5,-4 -8,-10 -8,-18l0 -290c0,-16 8,-24 24,-24l121 0c26,0 48,9 68,28 19,18 29,41 29,69l0 217zm337 -82c0,29 -10,53 -31,74 -20,22 -45,32 -75,32l-29 0c-29,0 -53,-10 -75,-31 -21,-20 -31,-45 -31,-75l0 -126c0,-28 10,-53 31,-74 21,-21 46,-32 75,-32l29 0c29,0 54,10 75,31 21,20 31,46 31,75l0 126zm-48 0l0 -126c0,-16 -5,-29 -17,-41 -11,-11 -24,-17 -41,-17l-29 0c-16,0 -29,6 -41,17 -11,11 -17,25 -17,41l0 126c0,16 6,29 17,41 11,11 25,17 41,17l29 0c16,0 29,-5 41,-17 12,-11 17,-24 17,-41zm373 84c-12,7 -28,13 -48,18l-26 3 -28 1 -34 -1 -29 -4c-18,-3 -33,-11 -44,-25 -12,-14 -17,-29 -17,-47 0,-10 2,-20 6,-31 4,-10 11,-19 20,-27l155 -106c5,-4 7,-9 7,-14 0,-11 -8,-19 -25,-24 -16,-6 -35,-9 -54,-9 -16,0 -31,1 -43,4 -12,3 -22,7 -30,14 -4,3 -9,4 -15,5 -5,0 -10,-2 -17,-7 -4,-5 -6,-11 -6,-18 0,-7 3,-14 9,-19 10,-7 25,-14 45,-19 10,-2 20,-4 30,-5 11,-1 21,-2 31,-2 7,0 13,0 19,0 6,0 12,1 20,2 7,1 16,3 26,6 17,5 32,14 43,27 11,13 16,27 16,43 0,20 -9,38 -27,54l-154 107c-6,5 -9,11 -9,18 0,6 2,12 6,17 4,5 9,8 16,10l26 2 29 2c18,0 33,-1 44,-4 5,-1 11,-2 17,-5 6,-2 12,-5 18,-9l5 -2c2,0 4,-1 8,-1 6,0 11,3 17,8 4,5 6,11 6,18 0,8 -4,14 -13,20zm303 -74l0 -194 -97 0c-14,0 -26,5 -35,14 -5,4 -8,10 -10,16 -3,5 -4,12 -4,18l0 146c0,13 5,25 14,34 5,4 10,8 16,11 7,2 13,3 19,3l48 0c13,0 25,-4 34,-13 10,-9 15,-21 15,-35zm23 64c-8,9 -18,17 -32,23 -13,6 -27,9 -40,9l-48 0c-26,0 -49,-9 -68,-28 -19,-19 -29,-41 -29,-69l0 -144c0,-27 10,-50 28,-69 19,-19 42,-28 69,-28l120 0c16,0 24,8 24,24l0 217c0,10 4,19 10,30 5,8 13,16 24,20 10,5 15,12 15,22 0,7 -2,13 -7,18 -4,5 -10,7 -17,7 -4,0 -7,-1 -10,-2 -16,-7 -29,-16 -39,-30zm313 -16l97 0 0 -266c0,-6 2,-12 7,-18 5,-4 11,-6 17,-6 6,0 12,2 17,6 5,4 7,10 7,18l0 290c0,16 -8,24 -24,24l-217 0c-26,0 -48,-9 -68,-28 -19,-19 -28,-41 -28,-69l0 -217c0,-6 2,-12 7,-18 5,-4 10,-6 17,-6 6,0 12,2 16,6 5,4 8,10 8,18l0 218c0,13 4,25 14,34 4,4 10,8 15,11 7,2 13,3 19,3l48 0 0 -266c0,-6 3,-12 8,-18 4,-4 10,-6 16,-6 7,0 12,2 17,6 5,4 7,10 7,18l0 266zm290 -145l145 0 0 -48c0,-14 -4,-25 -13,-35 -10,-9 -21,-14 -35,-14l-49 0c-13,0 -25,5 -34,14 -5,5 -8,10 -11,16 -2,6 -3,12 -3,19l0 48zm0 48l0 49c0,13 4,25 14,34 5,4 10,8 15,11 7,2 13,3 19,3l121 0c7,0 12,3 17,7 5,5 7,11 7,17 0,6 -2,11 -6,16 -4,5 -10,8 -18,8l-121 0c-26,0 -48,-9 -68,-28 -19,-19 -28,-42 -28,-69l0 -144c0,-26 9,-49 28,-68 18,-19 41,-29 68,-29l49 0c26,0 48,9 68,28 19,19 28,42 28,69l0 72c0,16 -8,24 -24,24l-169 0z"/>
    <path class="fil4 str1" d="M11119 13280l0 -121c0,-6 2,-12 7,-18 5,-4 10,-6 17,-6 6,0 12,2 16,6 5,4 8,10 8,18l0 290c0,7 -2,14 -7,18 -4,4 -10,6 -17,6 -7,0 -12,-2 -17,-6 -5,-4 -7,-10 -7,-18l0 -121 -146 0 0 121c0,7 -2,14 -6,18 -5,4 -11,6 -18,6 -6,0 -12,-2 -16,-6 -5,-4 -8,-10 -8,-18l0 -290c0,-6 3,-12 8,-18 4,-4 10,-6 16,-6 7,0 12,2 17,6 5,4 7,10 7,18l0 121 146 0zm337 0l0 -121c0,-6 3,-12 8,-18 4,-4 10,-6 16,-6 6,0 12,2 17,6 5,4 7,10 7,18l0 290c0,7 -2,14 -6,18 -5,4 -11,6 -18,6 -6,0 -12,-2 -16,-6 -5,-4 -8,-10 -8,-18l0 -121 -145 0 0 121c0,7 -2,14 -7,18 -4,4 -10,6 -17,6 -6,0 -12,-2 -17,-6 -5,-4 -7,-10 -7,-18l0 -290c0,-6 2,-12 7,-18 5,-4 11,-6 17,-6 6,0 12,2 17,6 5,4 7,10 7,18l0 121 145 0zm386 87c0,29 -10,53 -31,74 -20,22 -46,32 -75,32l-29 0c-29,0 -54,-10 -75,-31 -21,-20 -31,-45 -31,-75l0 -126c0,-28 10,-53 31,-74 20,-21 45,-32 75,-32l29 0c28,0 53,10 74,31 22,20 32,46 32,75l0 126zm-48 0l0 -126c0,-16 -6,-29 -17,-41 -11,-11 -25,-17 -41,-17l-29 0c-16,0 -30,6 -41,17 -12,11 -17,25 -17,41l0 126c0,16 5,29 17,41 11,11 25,17 41,17l29 0c16,0 29,-5 41,-17 11,-11 17,-24 17,-41zm313 -329l-96 0c-8,0 -14,-2 -18,-6 -4,-5 -7,-11 -7,-18 0,-5 2,-10 6,-16 5,-5 11,-8 19,-8l96 0c7,0 12,3 17,8 5,5 7,10 7,16 0,6 -2,11 -6,17 -4,5 -10,7 -18,7zm73 411c0,16 -8,24 -25,24l-120 0c-26,0 -49,-9 -68,-28 -19,-19 -29,-41 -29,-68l0 -217c0,-7 3,-13 7,-18 5,-5 11,-7 17,-7 6,0 12,2 17,6 5,4 7,11 7,19l0 217c0,13 5,25 14,34 5,4 10,8 16,11 7,2 13,3 19,3l97 0 0 -265c0,-7 2,-13 7,-18 5,-5 10,-7 17,-7 6,0 11,2 16,6 5,4 8,11 8,19l0 289zm-5366 796l-72 0c-26,0 -49,-9 -68,-28 -19,-19 -29,-41 -29,-69l0 -144c0,-27 10,-50 29,-69 18,-19 41,-28 68,-28l72 0c7,0 13,3 17,7 5,5 7,11 7,17 0,6 -2,11 -6,16 -4,5 -10,8 -18,8l-72 0c-14,0 -26,5 -35,14 -5,4 -8,10 -10,16 -3,5 -4,12 -4,18l0 146c0,13 5,25 14,34 5,4 10,8 16,11 7,2 13,3 19,3l72 0c7,0 13,3 17,7 5,5 7,11 7,17 0,6 -2,11 -6,16 -4,5 -10,8 -18,8zm314 0l-97 0c-26,0 -48,-9 -68,-28 -19,-19 -28,-41 -28,-69l0 -217c0,-6 2,-12 7,-18 5,-4 10,-6 17,-6 6,0 11,2 16,6 5,4 8,10 8,18l0 218c0,13 4,25 13,34 5,4 10,8 16,11 7,2 13,3 19,3l97 0 0 -266c0,-6 2,-12 7,-18 5,-4 11,-6 17,-6 6,0 12,2 17,6 4,4 7,10 7,18l0 362c0,26 -9,49 -28,68 -19,19 -42,29 -69,29l-96 0c-6,0 -12,-3 -18,-8 -4,-4 -6,-10 -6,-16 0,-7 2,-12 6,-17 4,-5 10,-7 18,-7l97 0c13,0 25,-5 34,-14 9,-9 14,-21 14,-35l0 -48zm338 -290l-97 0c-14,0 -26,5 -35,14 -4,4 -8,10 -10,16 -3,5 -4,12 -4,18l0 146c0,13 5,25 14,34 5,4 10,8 16,11 7,2 13,3 19,3l48 0c14,0 25,-4 34,-13 10,-9 15,-21 15,-35l0 -194zm0 -48l0 -48c0,-14 -5,-25 -14,-35 -9,-9 -21,-14 -35,-14l-96 0c-8,0 -14,-2 -18,-6 -5,-5 -7,-11 -7,-18 0,-5 2,-10 6,-16 4,-5 10,-8 18,-8l97 0c27,0 50,10 68,29 19,19 29,41 29,68l0 289c0,27 -10,50 -29,69 -19,18 -41,28 -68,28l-48 0c-26,0 -49,-9 -68,-28 -19,-19 -29,-41 -29,-69l0 -144c0,-27 10,-50 29,-69 18,-19 41,-28 68,-28l97 0zm385 314c0,16 -8,24 -24,24l-121 0c-26,0 -48,-9 -67,-28 -20,-19 -29,-41 -29,-69l0 -217c0,-6 2,-12 7,-18 5,-4 10,-6 17,-6 6,0 12,2 16,6 5,4 8,10 8,18l0 218c0,13 4,25 14,34 5,4 10,8 15,11 7,2 14,3 19,3l97 0 0 -266c0,-6 3,-12 7,-18 5,-4 11,-6 17,-6 6,0 12,2 17,6 5,4 7,10 7,18l0 290zm386 0l0 -290c0,-9 -2,-15 -6,-20 -5,-5 -10,-7 -16,-7 -7,0 -14,4 -22,13l-101 142 -101 -142c-6,-9 -14,-13 -22,-13 -6,0 -11,2 -16,7 -4,5 -6,12 -6,20l0 290c0,7 3,14 7,18 5,4 10,6 17,6 6,0 12,-2 17,-6 5,-5 7,-11 7,-18l0 -214 77 107c7,9 13,13 20,13 6,0 13,-4 20,-13l77 -107 0 214c0,7 2,14 7,18 4,4 10,6 17,6 6,0 11,-2 16,-6 5,-5 8,-11 8,-18zm338 -82c0,29 -11,53 -31,74 -21,22 -46,32 -76,32l-29 0c-28,0 -53,-10 -74,-31 -21,-20 -32,-45 -32,-75l0 -126c0,-28 11,-53 31,-74 21,-21 46,-32 75,-32l29 0c29,0 54,10 75,31 21,20 32,46 32,75l0 126zm-48 0l0 -126c0,-16 -6,-29 -17,-41 -11,-11 -25,-17 -41,-17l-30 0c-16,0 -29,6 -41,17 -11,11 -17,25 -17,41l0 126c0,16 6,29 17,41 11,11 25,17 41,17l30 0c15,0 29,-5 40,-17 12,-11 18,-24 18,-41zm313 106l-73 0c-26,0 -48,-9 -67,-28 -19,-19 -29,-41 -29,-69l0 -144c0,-27 9,-50 28,-69 19,-19 42,-28 68,-28l73 0c7,0 12,3 17,7 5,5 7,11 7,17 0,6 -2,11 -6,16 -4,5 -10,8 -18,8l-73 0c-13,0 -25,5 -34,14 -5,4 -8,10 -11,16 -2,5 -3,12 -3,18l0 146c0,13 4,25 14,34 5,4 10,8 15,11 7,2 14,3 19,3l73 0c7,0 12,3 17,7 5,5 7,11 7,17 0,6 -2,11 -6,16 -4,5 -10,8 -18,8zm265 -290l-97 0 0 266c0,7 -2,14 -7,18 -4,4 -10,6 -17,6 -6,0 -12,-2 -17,-6 -4,-4 -7,-10 -7,-18l0 -290c0,-16 8,-24 24,-24l217 0c26,0 49,9 68,28 19,19 29,42 29,69l0 217c0,7 -3,14 -7,18 -5,4 -10,6 -17,6 -7,0 -12,-2 -17,-6 -5,-4 -7,-10 -7,-18l0 -218c0,-13 -5,-25 -14,-34 -9,-9 -21,-14 -35,-14l-48 0 0 266c0,7 -2,14 -7,18 -4,4 -10,6 -17,6 -6,0 -12,-2 -17,-6 -5,-4 -7,-10 -7,-18l0 -266zm531 266c0,16 -8,24 -24,24l-121 0c-26,0 -49,-9 -68,-28 -19,-19 -29,-41 -29,-69l0 -217c0,-6 3,-12 7,-18 5,-4 11,-6 17,-6 6,0 12,2 17,6 5,4 7,10 7,18l0 218c0,13 5,25 14,34 5,4 10,8 16,11 7,2 13,3 19,3l97 0 0 -266c0,-6 2,-12 7,-18 5,-4 10,-6 17,-6 6,0 11,2 16,6 5,4 8,10 8,18l0 290zm483 -134l-55 57 0 77c0,7 -2,14 -6,18 -5,4 -11,6 -18,6 -6,0 -12,-2 -16,-6 -5,-4 -8,-10 -8,-18l0 -289c0,-7 3,-13 8,-18 4,-5 10,-7 16,-7 6,0 12,2 17,6 5,4 7,11 7,19l0 142 153 -160c5,-5 10,-8 16,-8 5,0 11,3 17,8 5,4 7,10 7,18 0,6 -2,13 -8,18l-96 102 99 153c3,7 5,12 5,17 0,6 -2,12 -8,17 -5,4 -10,7 -17,7 -6,0 -12,-3 -17,-10l-96 -149zm409 62l0 -194 -97 0c-14,0 -25,5 -35,14 -4,4 -8,10 -10,16 -2,5 -4,12 -4,18l0 146c0,13 5,25 14,34 5,4 10,8 16,11 7,2 13,3 19,3l48 0c14,0 25,-4 35,-13 9,-9 14,-21 14,-35zm23 64c-7,9 -18,17 -31,23 -14,6 -27,9 -41,9l-48 0c-26,0 -49,-9 -68,-28 -19,-19 -29,-41 -29,-69l0 -144c0,-27 10,-50 29,-69 19,-19 41,-28 68,-28l121 0c16,0 24,8 24,24l0 217c0,10 3,19 9,30 6,8 14,16 24,20 10,5 15,12 15,22 0,7 -2,13 -7,18 -4,5 -9,7 -17,7 -3,0 -7,-1 -10,-2 -16,-7 -28,-16 -39,-30zm314 -161l0 -121c0,-6 3,-12 8,-18 4,-4 10,-6 16,-6 7,0 12,2 17,6 5,4 7,10 7,18l0 290c0,7 -2,14 -6,18 -5,4 -11,6 -18,6 -6,0 -12,-2 -16,-6 -5,-4 -8,-10 -8,-18l0 -121 -145 0 0 121c0,7 -2,14 -7,18 -4,4 -10,6 -17,6 -6,0 -12,-2 -17,-6 -5,-4 -7,-10 -7,-18l0 -290c0,-6 2,-12 7,-18 5,-4 11,-6 17,-6 6,0 12,2 17,6 5,4 7,10 7,18l0 121 145 0zm338 -97l-97 0c-14,0 -25,5 -34,14 -5,4 -9,10 -11,16 -2,5 -3,12 -3,18l0 146c0,13 4,25 14,34 4,4 10,8 15,11 7,2 13,3 19,3l49 0c13,0 24,-4 34,-13 9,-9 14,-21 14,-35l0 -194zm0 -48l0 -48c0,-14 -5,-25 -14,-35 -9,-9 -20,-14 -34,-14l-97 0c-7,0 -13,-2 -18,-6 -4,-5 -6,-11 -6,-18 0,-5 2,-10 6,-16 4,-5 10,-8 18,-8l96 0c27,0 50,10 69,29 19,19 28,41 28,68l0 289c0,27 -9,50 -28,69 -19,18 -42,28 -69,28l-48 0c-26,0 -48,-9 -67,-28 -20,-19 -29,-41 -29,-69l0 -144c0,-27 9,-50 28,-69 19,-19 42,-28 68,-28l97 0zm386 314c0,16 -8,24 -24,24l-121 0c-26,0 -49,-9 -68,-28 -19,-19 -29,-41 -29,-69l0 -217c0,-6 3,-12 7,-18 5,-4 11,-6 17,-6 6,0 12,2 17,6 5,4 7,10 7,18l0 218c0,13 5,25 14,34 5,4 10,8 16,11 7,2 13,3 19,3l97 0 0 -266c0,-6 2,-12 7,-18 5,-4 10,-6 17,-6 6,0 11,2 16,6 5,4 8,10 8,18l0 290zm289 -266l-97 0c-13,0 -25,5 -34,14 -5,4 -8,10 -11,16 -2,5 -3,12 -3,18l0 146c0,13 4,25 14,34 5,4 10,8 15,11 7,2 14,3 19,3l49 0c13,0 25,-4 34,-13 10,-9 14,-21 14,-35l0 -194zm0 -48l0 -48c0,-14 -4,-25 -13,-35 -9,-9 -21,-14 -35,-14l-97 0c-7,0 -13,-2 -18,-6 -4,-5 -6,-11 -6,-18 0,-5 2,-10 6,-16 4,-5 10,-8 18,-8l97 0c27,0 49,10 68,29 19,19 28,41 28,68l0 289c0,27 -9,50 -28,69 -19,18 -42,28 -68,28l-49 0c-26,0 -48,-9 -67,-28 -19,-19 -29,-41 -29,-69l0 -144c0,-27 9,-50 28,-69 19,-19 42,-28 69,-28l96 0zm338 242l0 -194 -97 0c-14,0 -25,5 -35,14 -4,4 -8,10 -10,16 -2,5 -3,12 -3,18l0 146c0,13 4,25 13,34 5,4 10,8 16,11 7,2 13,3 19,3l48 0c14,0 25,-4 35,-13 9,-9 14,-21 14,-35zm23 64c-7,9 -18,17 -31,23 -14,6 -27,9 -41,9l-48 0c-26,0 -48,-9 -68,-28 -19,-19 -28,-41 -28,-69l0 -144c0,-27 9,-50 28,-69 19,-19 41,-28 68,-28l121 0c16,0 24,8 24,24l0 217c0,10 3,19 9,30 6,8 14,16 24,20 10,5 15,12 15,22 0,7 -2,13 -7,18 -4,5 -9,7 -17,7 -3,0 -7,-1 -10,-2 -15,-7 -28,-16 -39,-30zm266 -258l-97 0 0 266c0,7 -2,14 -7,18 -4,4 -10,6 -17,6 -6,0 -12,-2 -17,-6 -5,-4 -7,-10 -7,-18l0 -290c0,-16 8,-24 24,-24l217 0c26,0 49,9 68,28 19,19 28,42 28,69l0 217c0,7 -2,14 -6,18 -5,4 -11,6 -18,6 -6,0 -12,-2 -16,-6 -5,-4 -8,-10 -8,-18l0 -218c0,-13 -4,-25 -13,-34 -9,-9 -21,-14 -35,-14l-48 0 0 266c0,7 -2,14 -7,18 -4,4 -10,6 -17,6 -7,0 -12,-2 -17,-6 -5,-4 -7,-10 -7,-18l0 -266zm483 194l0 -194 -97 0c-14,0 -26,5 -35,14 -5,4 -8,10 -10,16 -3,5 -4,12 -4,18l0 146c0,13 5,25 14,34 5,4 10,8 16,11 6,2 13,3 19,3l48 0c13,0 25,-4 34,-13 10,-9 15,-21 15,-35zm23 64c-8,9 -18,17 -32,23 -13,6 -27,9 -40,9l-48 0c-26,0 -49,-9 -68,-28 -19,-19 -29,-41 -29,-69l0 -144c0,-27 10,-50 28,-69 19,-19 42,-28 69,-28l120 0c16,0 24,8 24,24l0 217c0,10 4,19 10,30 5,8 13,16 24,20 10,5 15,12 15,22 0,7 -2,13 -7,18 -4,5 -10,7 -17,7 -4,0 -7,-1 -10,-2 -16,-7 -29,-16 -39,-30z"/>
   </g>
   <g>
    <path class="fil16" d="M19654 3942l-19226 0 0 -120 19226 0 66 60 -66 60zm0 -120l66 0 0 60 -66 -60zm-66 11907l0 -11847 132 0 0 11847 -66 60 -66 -60zm132 0l0 60 -66 0 66 -60zm-19292 -61l19226 0 0 121 -19226 0 -66 -60 66 -61zm0 121l-66 0 0 -60 66 60zm66 -11907l0 11847 -132 0 0 -11847 66 -60 66 60zm-132 0l0 -60 66 0 -66 60z"/>
   </g>
  </g>
 </g>
</svg>
