<?xml version="1.0" encoding="UTF-8"?>
<!DOCTYPE svg PUBLIC "-//W3C//DTD SVG 1.0//EN" "http://www.w3.org/TR/2001/REC-SVG-20010904/DTD/svg10.dtd">
<!-- Creator: CorelDRAW X7 -->
<svg xmlns="http://www.w3.org/2000/svg" xml:space="preserve" width="200mm" height="200mm" version="1.0" style="shape-rendering:geometricPrecision; text-rendering:geometricPrecision; image-rendering:optimizeQuality; fill-rule:evenodd; clip-rule:evenodd"
viewBox="0 0 20000 20000"
 xmlns:xlink="http://www.w3.org/1999/xlink">
 <defs>
  <style type="text/css">
   <![CDATA[
    .str4 {stroke:#2E99A3;stroke-width:25}
    .str3 {stroke:#4D897C;stroke-width:20}
    .str2 {stroke:#4D897C;stroke-width:60;stroke-linecap:round;stroke-linejoin:round}
    .str1 {stroke:#024541;stroke-width:159.99;stroke-linecap:round;stroke-linejoin:round}
    .str0 {stroke:#846573;stroke-width:108.68}
    .fil3 {fill:none;fill-rule:nonzero}
    .fil2 {fill:#F6B096}
    .fil4 {fill:#EBF2D9}
    .fil5 {fill:#CDDBAC}
    .fil7 {fill:#4D897C}
    .fil14 {fill:#126B1D}
    .fil9 {fill:#164608}
    .fil17 {fill:#1A8C23}
    .fil15 {fill:#20A628}
    .fil12 {fill:#21660C}
    .fil13 {fill:#29CA2E}
    .fil20 {fill:#2E99A3}
    .fil10 {fill:#61B338}
    .fil8 {fill:#6ED041}
    .fil16 {fill:#87EB60}
    .fil11 {fill:#94FD7C}
    .fil19 {fill:#A8D4AF}
    .fil1 {fill:#97A59A;fill-rule:nonzero}
    .fil18 {fill:#5B7674;fill-rule:nonzero}
    .fil6 {fill:#4D897C;fill-rule:nonzero}
    .fil0 {fill:url(#id0)}
   ]]>
  </style>
  <radialGradient id="id0" gradientUnits="userSpaceOnUse" gradientTransform="matrix(1.41421 -0 -0 1.41421 -4142 -4142)" cx="10000" cy="10000" r="10000" fx="10000" fy="10000">
   <stop offset="0" style="stop-opacity:1; stop-color:#FEFEFE"/>
   <stop offset="0.439216" style="stop-opacity:1; stop-color:#FEFEFE"/>
   <stop offset="1" style="stop-opacity:1; stop-color:#D1E2F2"/>
  </radialGradient>
 </defs>
 <g id="Layer_x0020_1">
  <metadata id="CorelCorpID_0Corel-Layer"/>
  <path class="fil0" d="M0 0l20000 0 0 20000 -20000 0 0 -20000z"/>
  <g id="_504740410256">
   <g>
    <path class="fil1" d="M2577 4228c-22,5 -43,-10 -47,-33 -4,-24 10,-46 31,-51l16 84zm7431 -1641l-7431 1641 -16 -84 7431 -1641 16 0 0 84zm-16 -84c22,-5 42,10 47,33 4,23 -10,46 -31,51l-16 -84zm7431 1725l-7431 -1641 16 -84 7431 1641 -16 84zm16 -84c21,5 35,27 31,51 -5,23 -25,38 -47,33l16 -84z"/>
   </g>
   <path class="fil2 str0" d="M10011 2560c44,0 81,36 81,81 0,45 -37,81 -81,81 -45,0 -81,-36 -81,-81 0,-45 36,-81 81,-81z"/>
   <g id="_504740412048">
    <path class="fil3 str1" d="M13071 5916l0 8833c-2205,0 -3683,0 -5888,0l0 -8833 5888 0z"/>
    <path class="fil4" d="M13071 5916l0 8833c-2205,0 -3683,0 -5888,0l0 -8833 5888 0z"/>
    <path class="fil5" d="M7183 5916l5888 0 0 3361 -5888 -2798c10,-289 0,-370 0,-563z"/>
    <g>
     <path class="fil6" d="M8165 6892l-114 0 0 -153 201 0c18,0 34,-11 34,-37 0,-24 -16,-37 -34,-37l-237 0c-27,0 -38,18 -38,38l0 498c0,19 11,37 38,37l150 0c101,0 151,-68 151,-158l0 -37c0,-92 -50,-151 -151,-151zm77 196c0,49 -21,77 -75,77l-116 0 0 -204 114 0c54,0 77,29 77,78l0 49zm496 -431c-105,0 -152,93 -152,183l0 59 -71 0 0 -204c0,-20 -8,-38 -35,-38 -25,0 -35,18 -35,38l0 514c0,20 10,38 35,38 26,0 35,-18 35,-38l0 -237 71 0 0 109c0,90 46,166 146,166l41 0c100,0 150,-74 150,-164l0 -262c0,-90 -50,-164 -150,-164l-35 0zm111 426c0,51 -21,90 -76,90l-37 0c-55,0 -76,-39 -76,-90l0 -237c0,-51 21,-115 78,-115l35 0c54,0 76,40 76,86l0 266zm314 52c6,-46 47,-396 47,-396l137 0 0 470c0,20 11,38 38,38 25,0 36,-18 36,-38l0 -506c0,-20 -11,-38 -36,-38l-205 0c-23,0 -36,16 -38,38 -3,24 -45,382 -49,413 -2,19 -5,32 -9,40 -8,15 -22,19 -44,19 -19,0 -37,13 -37,39 0,28 18,37 37,37 68,0 96,-23 112,-64 6,-16 9,-30 11,-52zm522 0c5,-46 46,-396 46,-396l138 0 0 470c0,20 11,38 38,38 25,0 36,-18 36,-38l0 -506c0,-20 -11,-38 -36,-38l-205 0c-23,0 -36,16 -38,38 -3,24 -45,382 -49,413 -2,19 -5,32 -9,40 -8,15 -22,19 -45,19 -18,0 -36,13 -36,39 0,28 18,37 36,37 69,0 97,-23 113,-64 5,-16 9,-30 11,-52zm701 103c18,0 35,-10 35,-36 0,-25 -17,-37 -35,-37l-215 0 0 -184 177 0c19,0 35,-11 35,-37 0,-25 -16,-37 -35,-37l-177 0 0 -168 215 0c18,0 35,-11 35,-37 0,-24 -17,-37 -35,-37l-253 0c-25,0 -36,18 -36,38l0 498c0,19 11,37 36,37l253 0zm297 9c26,0 37,-18 37,-38l0 -470 115 0c18,0 35,-11 35,-37 0,-24 -17,-37 -35,-37l-304 0c-18,0 -34,13 -34,37 0,26 16,37 34,37l115 0 0 470c0,20 11,38 37,38zm579 -9c19,0 35,-10 35,-36 0,-25 -16,-37 -35,-37l-215 0 0 -184 178 0c18,0 34,-11 34,-37 0,-25 -16,-37 -34,-37l-178 0 0 -168 215 0c19,0 35,-11 35,-37 0,-24 -16,-37 -35,-37l-253 0c-25,0 -36,18 -36,38l0 498c0,19 11,37 36,37l253 0zm512 -543c0,-20 -12,-38 -37,-38 -26,0 -37,18 -37,38l0 204 -207 0 0 -204c0,-20 -10,-38 -37,-38 -25,0 -37,18 -37,38l0 514c0,20 12,38 37,38 26,0 37,-18 37,-38l0 -237 207 0 0 237c0,20 10,38 37,38 25,0 37,-18 37,-38l0 -514zm352 192l-124 0 0 -192c0,-20 -11,-38 -37,-38 -26,0 -37,18 -37,38l0 506c0,19 11,37 37,37l161 0c101,0 151,-68 151,-158l0 -37c0,-92 -47,-156 -151,-156zm77 201c0,49 -21,77 -75,77l-126 0 0 -204 124 0c54,0 77,29 77,78l0 49z"/>
     <path id="1" class="fil6" d="M8051 6880l114 0 0 25 -114 0 -12 -13 12 -12zm0 25l-12 0 0 -13 12 13zm12 -166l0 153 -24 0 0 -153 12 -13 12 13zm-24 0l0 -13 12 0 -12 13zm213 13l-201 0 0 -26 201 0 0 0 0 26zm22 -50l24 0 0 0 0 3 0 3 0 3 -1 3 0 2 -1 3 -1 2 0 3 -1 2 -2 2 -1 3 -1 2 -1 2 -2 2 -2 1 -1 2 -2 2 -2 1 -2 1 -2 1 -2 1 -2 1 -2 1 -2 1 -2 1 -2 0 -2 1 -2 0 -2 0 -2 1 -2 0 -2 0 0 -26 1 0 1 0 1 0 1 0 2 0 1 0 1 -1 1 0 1 0 1 -1 1 0 0 -1 1 0 1 -1 1 0 1 -1 0 -1 1 0 0 -1 1 -1 1 -1 0 -1 1 -1 0 -1 0 -1 1 -1 0 -1 0 -2 1 -1 0 -2 0 -2 0 -2 0 0zm-22 -24l0 -25 0 0 2 0 2 0 2 0 2 1 2 0 3 0 2 1 2 1 2 1 2 1 2 1 2 1 2 1 1 1 2 2 2 1 2 2 1 2 2 2 1 2 1 2 1 2 2 2 1 2 0 3 1 2 1 3 0 2 1 3 0 3 0 2 0 3 -24 0 0 -1 0 -2 0 -2 -1 -1 0 -1 0 -2 -1 -1 0 -1 0 -1 -1 -1 0 -1 -1 -1 -1 -1 0 -1 -1 0 -1 -1 0 -1 -1 0 -1 -1 -1 0 -1 -1 -1 0 -1 -1 -1 0 -1 -1 -1 0 -1 0 -1 0 -1 -1 -1 0 -1 0 -1 0 0 0zm-237 -25l237 0 0 25 -237 0 0 0 0 -25zm-26 50l-24 0 0 0 0 -2 0 -2 0 -3 0 -2 1 -2 0 -3 1 -2 1 -2 0 -2 1 -3 1 -2 1 -2 2 -2 1 -2 1 -2 2 -2 1 -1 2 -2 2 -2 2 -1 2 -2 2 -1 3 -1 2 -1 2 -1 3 -1 3 -1 2 0 3 -1 3 0 3 0 3 0 0 25 -2 0 -2 0 -2 0 -1 1 -2 0 -1 0 -2 1 -1 0 -1 1 -1 0 -1 1 -1 1 -1 0 -1 1 -1 1 0 0 -1 1 -1 1 0 1 -1 1 0 1 -1 1 0 1 0 1 -1 1 0 1 0 2 -1 1 0 1 0 1 0 2 0 1 0 0zm-24 498l0 -498 24 0 0 498 0 0 -24 0zm50 25l0 25 0 0 -3 0 -3 0 -3 0 -3 -1 -2 0 -3 -1 -3 -1 -2 -1 -2 -1 -3 -1 -2 -1 -2 -2 -2 -1 -2 -2 -2 -2 -1 -1 -2 -2 -1 -2 -2 -2 -1 -2 -1 -2 -1 -3 -1 -2 0 -2 -1 -2 -1 -2 0 -3 -1 -2 0 -2 0 -3 0 -2 0 -2 24 0 0 1 0 1 0 2 0 1 1 1 0 2 0 1 1 1 0 1 0 1 1 1 0 1 1 1 0 1 1 1 1 0 0 1 1 1 1 1 1 0 1 1 1 0 1 1 1 1 1 0 2 0 1 1 2 0 1 0 2 1 2 0 2 0 0 0zm150 25l-150 0 0 -25 150 0 0 0 0 25zm139 -171l24 0 0 0 0 8 0 9 -1 9 -1 8 -2 9 -1 8 -2 8 -3 8 -2 7 -3 8 -4 7 -3 7 -4 7 -5 6 -4 6 -5 6 -6 6 -5 5 -6 6 -7 4 -6 5 -7 4 -8 4 -7 3 -8 3 -8 3 -9 2 -8 2 -9 1 -10 1 -9 1 -10 0 0 -25 9 0 8 -1 9 -1 7 -1 8 -2 7 -2 7 -2 7 -2 6 -3 6 -3 6 -4 6 -4 5 -3 5 -5 4 -4 5 -5 4 -5 4 -5 3 -5 4 -6 3 -6 2 -6 3 -6 2 -7 2 -6 2 -7 1 -7 2 -8 1 -7 0 -8 1 -7 0 -8 0 0zm24 -37l0 37 -24 0 0 -37 0 0 24 0zm-163 -138l0 -25 0 0 10 0 9 0 10 1 8 1 9 2 9 2 8 2 7 3 8 3 7 3 7 4 7 4 6 4 6 5 6 5 5 5 5 6 5 6 4 6 4 6 4 7 3 7 3 7 3 7 3 8 2 8 1 8 2 8 1 8 1 9 0 9 0 9 -24 0 0 -8 -1 -8 0 -8 -1 -7 -1 -7 -2 -7 -2 -7 -2 -6 -2 -6 -3 -6 -2 -6 -3 -6 -4 -5 -3 -5 -4 -4 -4 -5 -4 -4 -5 -4 -5 -4 -5 -4 -5 -3 -6 -3 -6 -3 -7 -2 -6 -2 -7 -2 -8 -2 -7 -2 -8 -1 -8 0 -9 -1 -9 0 0 0zm2 272l0 -25 0 0 4 0 5 0 4 -1 4 0 3 -1 4 0 3 -1 3 -1 3 -1 3 -2 3 -1 2 -1 2 -2 2 -2 2 -1 2 -2 2 -2 1 -2 2 -2 1 -3 1 -2 1 -3 1 -2 1 -3 1 -3 1 -3 1 -4 0 -3 0 -4 1 -4 0 -4 0 -4 24 0 0 5 0 5 0 4 -1 5 -1 4 0 5 -1 4 -1 4 -2 4 -1 4 -2 4 -2 4 -2 4 -2 3 -3 3 -3 3 -2 3 -4 3 -3 3 -3 2 -4 2 -4 2 -4 2 -4 2 -4 1 -5 1 -4 1 -5 1 -5 1 -5 0 -5 0 -5 0 0 0zm-116 -25l116 0 0 25 -116 0 -12 -12 12 -13zm0 25l-12 0 0 -12 12 12zm12 -216l0 204 -24 0 0 -204 12 -13 12 13zm-24 0l0 -13 12 0 -12 13zm126 13l-114 0 0 -26 114 0 0 0 0 26zm89 65l-24 0 0 0 0 -4 0 -4 -1 -4 0 -4 -1 -4 0 -3 -1 -3 -1 -3 -1 -3 -1 -3 -1 -3 -1 -2 -2 -2 -1 -3 -2 -2 -2 -2 -2 -2 -2 -1 -2 -2 -2 -2 -3 -1 -2 -1 -3 -2 -3 -1 -3 -1 -4 -1 -3 -1 -4 0 -4 -1 -4 0 -4 0 -5 0 0 -26 5 0 6 1 5 0 5 1 4 1 5 1 5 1 4 1 4 2 4 2 4 2 4 2 3 2 3 3 4 3 3 3 2 3 3 3 2 3 3 4 1 4 2 4 2 4 1 4 1 4 1 5 1 4 1 5 1 4 0 5 0 5 0 5 0 0zm-24 49l0 -49 24 0 0 49 0 0 -24 0zm368 -248l-24 0 0 0 0 -9 1 -9 0 -9 1 -9 2 -8 1 -9 2 -9 2 -8 3 -9 3 -8 3 -8 3 -8 4 -8 4 -7 5 -8 5 -7 5 -7 6 -6 5 -6 7 -6 6 -6 7 -5 8 -5 7 -4 8 -4 9 -4 8 -2 10 -3 9 -2 10 -1 10 -1 10 0 0 25 -9 0 -9 1 -8 1 -8 2 -8 2 -7 2 -7 3 -7 3 -6 4 -6 4 -6 4 -5 5 -6 5 -5 5 -4 6 -5 5 -4 6 -4 7 -3 6 -4 7 -3 7 -3 7 -2 7 -2 8 -2 7 -2 8 -1 8 -2 8 -1 8 0 8 -1 8 0 8 0 0zm-24 59l0 -59 24 0 0 59 -12 12 -12 -12zm24 0l0 12 -12 0 12 -12zm-83 -13l71 0 0 25 -71 0 -13 -12 13 -13zm0 25l-13 0 0 -12 13 12zm12 -216l0 204 -25 0 0 -204 0 0 25 0zm-47 -25l0 -25 0 0 3 0 3 0 3 0 2 1 3 0 2 1 3 1 2 1 3 1 2 1 2 1 2 2 2 2 2 1 1 2 2 2 1 2 1 2 2 2 1 2 1 2 0 2 1 2 1 2 0 3 1 2 0 2 0 2 0 2 1 3 0 2 0 2 -25 0 0 -2 0 -1 0 -1 0 -2 0 -1 0 -1 -1 -2 0 -1 0 -1 -1 -1 0 -1 0 -1 -1 -1 0 -1 -1 -1 0 0 -1 -1 0 -1 -1 0 -1 -1 0 0 -1 -1 -1 0 -1 -1 -1 0 -1 -1 -2 0 -1 0 -2 -1 -1 0 -2 0 -2 0 0 0zm-23 25l-25 0 0 0 0 -2 1 -3 0 -2 0 -2 0 -2 1 -3 0 -2 1 -2 1 -2 0 -2 1 -3 1 -2 2 -2 1 -2 1 -2 2 -1 1 -2 2 -2 2 -2 1 -1 2 -2 3 -1 2 -1 2 -1 2 -1 3 -1 2 -1 3 0 3 -1 2 0 3 0 3 0 0 25 -2 0 -2 0 -1 0 -2 1 -1 0 -1 0 -1 1 -1 0 -1 1 -1 0 -1 1 -1 0 -1 1 -1 1 0 0 -1 1 -1 1 0 1 -1 0 0 1 -1 1 0 1 -1 1 0 2 0 1 -1 1 0 1 0 2 0 1 0 1 0 2 0 1 0 0zm-25 514l0 -514 25 0 0 514 0 0 -25 0zm48 25l0 25 0 0 -3 0 -3 0 -2 0 -3 -1 -3 0 -2 -1 -3 -1 -2 -1 -2 -1 -2 -1 -3 -1 -2 -2 -1 -1 -2 -2 -2 -2 -1 -2 -2 -1 -1 -2 -1 -2 -2 -2 -1 -3 -1 -2 0 -2 -1 -2 -1 -2 0 -2 -1 -3 0 -2 0 -2 0 -3 -1 -2 0 -2 25 0 0 1 0 2 0 1 0 1 0 2 0 1 1 1 0 1 0 1 1 2 0 1 1 0 0 1 1 1 0 1 1 1 1 1 0 0 1 1 1 1 1 0 1 1 1 0 1 1 1 0 1 1 1 0 1 0 2 1 1 0 2 0 2 0 0 0zm22 -25l25 0 0 0 0 2 0 2 -1 3 0 2 0 2 0 2 -1 2 -1 3 0 2 -1 2 -1 2 -1 2 -1 2 -1 2 -1 2 -2 2 -1 2 -2 2 -1 1 -2 2 -2 1 -2 2 -3 1 -2 1 -2 1 -3 1 -2 1 -3 0 -3 1 -2 0 -3 0 -3 0 0 -25 2 0 2 0 1 0 2 -1 1 0 1 0 1 -1 1 0 1 -1 1 0 1 -1 1 0 1 -1 0 0 1 -1 1 -1 0 -1 1 0 0 -1 1 -1 0 -1 0 -1 1 -1 0 -1 0 -2 1 -1 0 -1 0 -1 0 -2 0 -1 0 -2 0 -1 0 0zm25 -237l0 237 -25 0 0 -237 13 -12 12 12zm-25 0l0 -12 13 0 -13 12zm84 13l-71 0 0 -25 71 0 12 12 -12 13zm0 -25l12 0 0 12 -12 -12zm-12 121l0 -109 24 0 0 109 0 0 -24 0zm158 153l0 25 0 0 -10 0 -10 -1 -9 -1 -9 -1 -8 -2 -8 -3 -8 -3 -8 -3 -7 -4 -8 -4 -6 -4 -7 -5 -6 -5 -5 -5 -6 -6 -5 -6 -5 -7 -4 -6 -4 -7 -4 -7 -3 -7 -3 -8 -3 -7 -3 -8 -2 -8 -2 -8 -1 -9 -2 -8 -1 -9 0 -8 -1 -9 0 -9 24 0 0 8 1 8 0 8 1 7 1 8 2 7 2 7 1 7 3 7 2 7 3 6 3 6 3 6 3 6 4 5 4 6 4 5 4 4 5 5 5 4 5 4 6 4 6 3 6 3 6 3 7 2 7 2 7 2 8 1 8 1 8 1 9 0 0 0zm41 25l-41 0 0 -25 41 0 0 0 0 25zm138 -176l24 0 0 0 0 9 -1 9 0 8 -1 9 -2 8 -1 8 -3 8 -2 8 -3 8 -2 8 -4 7 -3 7 -4 7 -5 7 -4 7 -5 6 -5 6 -6 5 -6 6 -6 5 -7 4 -7 5 -7 4 -7 3 -8 4 -8 2 -9 3 -8 2 -9 1 -9 1 -10 1 -10 0 0 -25 9 0 8 -1 8 -1 8 -1 8 -2 7 -2 7 -2 6 -3 6 -3 6 -3 6 -4 5 -4 6 -4 5 -4 4 -5 4 -5 5 -5 3 -5 4 -6 3 -6 3 -6 3 -6 3 -7 2 -7 2 -6 2 -7 1 -8 2 -7 1 -8 0 -7 1 -8 0 -8 0 0zm24 -262l0 262 -24 0 0 -262 0 0 24 0zm-162 -151l0 -25 0 0 10 0 10 1 9 1 9 1 8 2 9 3 8 2 8 4 7 3 7 4 7 4 7 5 6 5 6 5 6 6 5 6 5 6 4 7 5 6 4 7 3 8 4 7 2 8 3 7 2 8 3 9 1 8 2 8 1 9 0 8 1 9 0 9 -24 0 0 -8 -1 -8 0 -7 -1 -8 -2 -7 -1 -8 -2 -7 -2 -7 -2 -6 -3 -7 -3 -6 -3 -6 -3 -6 -4 -6 -3 -5 -5 -5 -4 -5 -4 -5 -5 -4 -6 -4 -5 -4 -6 -4 -6 -3 -6 -3 -6 -3 -7 -2 -7 -2 -8 -2 -8 -1 -8 -1 -8 -1 -9 0 0 0zm-35 -25l35 0 0 25 -35 0 0 0 0 -25zm35 541l0 -26 0 0 5 0 4 0 4 -1 4 0 4 -1 3 -1 3 -1 3 -2 3 -1 3 -2 2 -1 3 -2 2 -2 2 -2 2 -2 2 -3 2 -2 1 -3 2 -3 1 -3 2 -3 1 -3 1 -3 1 -4 1 -4 1 -3 0 -4 1 -4 0 -4 1 -4 0 -5 0 -4 24 0 0 5 0 5 -1 5 0 5 -1 5 0 4 -1 5 -1 5 -2 4 -1 5 -2 4 -2 4 -2 4 -2 4 -2 4 -3 4 -3 3 -3 4 -3 3 -3 3 -4 3 -4 2 -4 2 -4 3 -4 1 -5 2 -5 1 -4 2 -5 0 -6 1 -5 0 -6 1 0 0zm-37 -26l37 0 0 26 -37 0 0 0 0 -26zm-88 -77l24 0 0 0 0 4 0 5 1 4 0 4 1 4 0 4 1 3 1 4 1 4 1 3 1 3 2 3 1 3 2 3 1 3 2 2 2 3 2 2 2 2 2 2 3 2 2 1 3 2 3 1 3 2 3 1 4 1 3 1 4 0 4 1 4 0 5 0 0 26 -6 -1 -5 0 -5 -1 -6 0 -4 -2 -5 -1 -5 -2 -4 -1 -4 -3 -4 -2 -4 -2 -4 -3 -3 -3 -3 -3 -3 -4 -3 -3 -3 -4 -2 -4 -2 -4 -2 -4 -2 -4 -2 -4 -1 -5 -1 -4 -2 -5 -1 -5 0 -4 -1 -5 0 -5 -1 -5 0 -5 0 -5 0 0zm24 -237l0 237 -24 0 0 -237 0 0 24 0zm66 -128l0 26 0 0 -4 0 -5 0 -4 1 -3 1 -4 1 -3 2 -4 1 -3 2 -3 2 -3 3 -2 2 -3 3 -2 3 -3 4 -2 3 -2 4 -2 3 -2 4 -1 4 -2 4 -1 5 -2 4 -1 4 -1 5 -1 5 -1 4 0 5 -1 4 0 5 -1 5 0 4 0 5 -24 0 0 -6 0 -5 1 -5 0 -5 1 -6 0 -5 1 -5 1 -6 2 -5 1 -5 1 -5 2 -5 2 -5 2 -5 2 -5 3 -5 3 -5 3 -4 3 -5 3 -4 4 -4 4 -3 4 -4 4 -3 5 -3 4 -2 5 -3 6 -1 5 -2 6 -1 6 -1 6 0 0 0zm35 26l-35 0 0 -26 35 0 0 0 0 26zm88 73l-24 0 0 0 0 -4 0 -4 -1 -4 0 -3 -1 -4 0 -3 -1 -4 -1 -3 -1 -4 -1 -3 -1 -3 -2 -3 -1 -3 -2 -2 -1 -3 -2 -2 -2 -3 -2 -2 -2 -2 -3 -2 -2 -2 -3 -1 -2 -2 -3 -2 -3 -1 -3 -1 -4 -1 -3 -1 -4 0 -4 -1 -4 0 -5 0 0 -26 6 0 5 1 5 0 5 1 5 1 5 2 4 2 5 1 4 2 4 3 4 2 3 3 4 3 3 3 3 3 3 4 2 3 3 4 2 4 2 4 2 4 2 4 1 4 1 5 1 4 1 4 1 5 1 4 0 5 1 5 0 4 0 5 0 0zm-24 266l0 -266 24 0 0 266 0 0 -24 0zm373 -357l0 26 12 -11 -1 1 0 3 0 4 -1 7 -1 8 -1 9 -1 11 -2 12 -1 13 -2 14 -2 15 -2 16 -2 16 -2 17 -2 17 -2 17 -2 18 -2 17 -2 18 -2 17 -2 17 -2 16 -1 16 -2 15 -2 15 -1 13 -2 12 -1 11 -1 10 -1 9 -1 7 -1 5 -24 -3 1 -5 0 -7 1 -9 2 -10 1 -11 1 -12 2 -14 2 -14 1 -15 2 -16 2 -16 2 -17 2 -17 2 -18 2 -17 2 -18 2 -17 2 -17 2 -17 2 -16 2 -16 2 -15 1 -14 2 -13 1 -12 2 -11 1 -9 1 -8 0 -7 1 -4 0 -3 0 -1 13 -12zm-13 12l2 -12 11 0 -13 12zm150 14l-137 0 0 -26 137 0 12 13 -12 13zm0 -26l12 0 0 13 -12 -13zm-12 483l0 -470 24 0 0 470 0 0 -24 0zm50 25l0 25 0 0 -3 0 -3 0 -3 0 -2 -1 -3 0 -3 -1 -2 -1 -3 -1 -2 -1 -2 -1 -3 -1 -2 -2 -2 -1 -1 -2 -2 -2 -2 -1 -1 -2 -2 -2 -1 -2 -1 -2 -2 -2 0 -2 -1 -3 -1 -2 -1 -2 0 -2 -1 -3 0 -2 -1 -2 0 -2 0 -3 0 -2 24 0 0 1 0 2 1 1 0 1 0 2 0 1 1 1 0 1 0 1 1 1 0 1 1 1 0 1 1 1 0 1 1 1 1 0 1 1 0 1 1 0 1 1 1 1 1 0 1 1 2 0 1 1 1 0 2 0 1 1 2 0 2 0 2 0 0 0zm24 -25l24 0 0 0 0 2 0 3 0 2 0 2 -1 2 0 3 -1 2 0 2 -1 2 -1 3 -1 2 -1 2 -1 2 -1 2 -2 2 -1 2 -2 1 -2 2 -2 2 -1 1 -2 2 -3 1 -2 1 -2 1 -2 1 -3 1 -2 1 -3 0 -3 1 -2 0 -3 0 -3 0 0 -25 2 0 1 0 2 0 2 -1 1 0 1 0 1 -1 2 0 1 -1 1 0 1 -1 0 0 1 -1 1 -1 1 0 0 -1 1 -1 1 -1 0 -1 1 -1 0 -1 1 -1 0 -1 1 -1 0 -1 0 -1 0 -1 1 -2 0 -1 0 -1 0 -2 0 -1 0 0zm24 -506l0 506 -24 0 0 -506 0 0 24 0zm-48 -25l0 -25 0 0 3 0 3 0 2 0 3 1 3 0 2 1 3 1 2 1 2 1 2 1 3 1 2 2 1 1 2 2 2 2 2 2 1 1 2 2 1 2 1 2 1 2 1 3 1 2 1 2 0 2 1 2 0 3 1 2 0 2 0 3 0 2 0 2 -24 0 0 -1 0 -2 0 -1 0 -1 -1 -1 0 -2 0 -1 0 -1 -1 -1 0 -1 -1 -1 0 -1 -1 -1 0 -1 -1 -1 -1 -1 0 0 -1 -1 -1 -1 -1 -1 0 0 -1 -1 -1 0 -1 -1 -2 0 -1 -1 -1 0 -1 0 -2 -1 -2 0 -1 0 -2 0 0 0zm-205 -25l205 0 0 25 -205 0 0 0 0 -25zm-26 51l-24 -2 0 0 0 -3 0 -2 1 -3 0 -2 1 -2 1 -3 1 -2 0 -2 1 -2 1 -2 1 -2 2 -2 1 -2 1 -2 2 -2 1 -2 2 -2 2 -1 2 -2 2 -1 2 -1 2 -1 2 -2 2 -1 2 0 3 -1 2 -1 2 0 3 -1 2 0 3 0 3 0 0 25 -2 0 -2 0 -1 0 -1 1 -2 0 -1 0 -1 1 -1 0 -1 0 -1 1 -1 1 -1 0 -1 1 -1 0 -1 1 0 1 -1 1 -1 1 0 0 -1 1 -1 2 0 1 -1 1 0 1 -1 1 0 1 -1 2 0 1 0 2 -1 1 0 2 0 2 0 -1zm-24 -2l0 0 0 0 0 0zm-25 416l-24 -3 0 0 0 -4 1 -6 1 -7 1 -9 1 -10 2 -12 1 -13 2 -14 2 -15 2 -15 2 -17 2 -17 2 -17 2 -18 2 -18 2 -18 2 -18 2 -18 2 -17 2 -18 2 -16 2 -16 2 -16 2 -14 1 -14 2 -12 1 -11 1 -10 1 -8 1 -7 0 -5 1 -3 24 2 0 4 -1 5 -1 7 -1 8 -1 10 -1 11 -2 12 -1 14 -2 14 -2 16 -2 16 -2 16 -2 18 -2 17 -2 18 -2 18 -2 18 -2 18 -2 18 -2 17 -2 17 -2 17 -2 15 -2 15 -2 14 -1 13 -1 12 -2 10 -1 9 -1 7 0 6 -1 4 0 0zm0 0l0 0 0 2 0 -2zm-11 44l-21 -12 0 -1 0 0 1 -1 0 0 0 -1 1 -1 0 0 0 -1 0 -1 1 0 0 -1 0 -1 0 -1 1 -1 0 -1 0 -1 0 -1 1 -1 0 -1 0 -1 0 -1 1 -2 0 -1 0 -1 0 -2 1 -1 0 -2 0 -1 0 -2 0 -1 1 -2 0 -1 0 -2 24 3 0 2 0 2 -1 1 0 2 0 2 0 1 0 2 -1 1 0 2 0 2 -1 1 0 1 0 2 0 1 -1 2 0 1 0 1 -1 2 0 1 0 1 -1 2 0 1 0 1 -1 1 0 1 -1 2 0 1 -1 1 0 1 -1 1 0 1 -1 1 0 0zm-21 -12l0 0 0 -1 0 1zm-33 38l0 -25 0 0 2 0 1 0 2 0 2 0 2 -1 1 0 2 0 1 0 2 0 1 0 1 -1 2 0 1 0 1 -1 1 0 1 0 1 -1 0 0 1 -1 1 0 1 0 0 -1 1 0 0 -1 1 -1 1 0 0 -1 1 -1 0 0 1 -1 0 -1 1 -1 21 12 -1 2 -1 1 -1 2 -1 2 -1 1 -1 2 -2 1 -1 2 -2 1 -1 1 -2 2 -1 1 -2 1 -2 1 -2 0 -1 1 -2 1 -2 1 -2 0 -2 1 -2 0 -1 0 -2 1 -2 0 -2 0 -3 1 -2 0 -2 0 -2 0 -2 0 -2 0 -2 0 0 0zm-24 26l-25 0 0 0 0 -3 0 -3 1 -3 0 -3 1 -2 0 -3 1 -3 1 -2 1 -2 1 -3 2 -2 1 -2 1 -2 2 -2 1 -2 2 -2 2 -1 2 -2 2 -1 2 -1 2 -1 2 -1 2 -1 2 -1 2 -1 2 -1 2 0 3 -1 2 0 2 0 2 0 3 0 0 25 -2 0 -1 0 -1 0 -1 0 -2 1 -1 0 -1 0 -1 1 -1 0 -1 1 -1 0 -1 1 -1 0 -1 1 -1 0 0 1 -1 1 -1 1 -1 1 0 0 -1 1 0 1 -1 1 0 2 -1 1 0 1 -1 2 0 1 0 2 0 1 0 2 0 2 0 0zm24 24l0 25 0 0 -3 0 -2 0 -2 0 -2 0 -2 0 -2 -1 -2 0 -2 -1 -3 -1 -2 0 -2 -1 -2 -1 -2 -1 -2 -2 -1 -1 -2 -1 -2 -2 -2 -2 -1 -2 -2 -2 -1 -2 -2 -2 -1 -2 -1 -3 -1 -2 -1 -3 0 -3 -1 -2 0 -3 -1 -3 0 -3 0 -3 25 0 0 2 0 2 0 2 0 1 0 2 1 1 0 1 1 1 0 2 1 1 0 0 1 1 0 1 1 1 0 0 1 1 1 1 1 0 0 1 1 0 1 1 1 0 1 0 1 1 1 0 2 0 1 1 1 0 1 0 2 0 1 0 2 0 0 0zm101 -56l22 9 0 1 -1 4 -2 4 -2 4 -2 3 -2 4 -2 4 -2 3 -3 4 -3 3 -2 3 -3 4 -3 3 -4 2 -3 3 -4 3 -3 2 -4 2 -4 2 -4 2 -5 2 -4 2 -5 1 -5 2 -5 1 -5 1 -5 1 -6 1 -5 0 -6 1 -7 0 -6 0 -6 0 0 -25 6 0 5 0 6 -1 5 0 5 -1 5 0 5 -1 4 -1 4 -1 4 -1 4 -1 4 -2 3 -1 3 -1 4 -2 2 -2 3 -2 3 -1 2 -2 3 -2 2 -3 2 -2 2 -2 2 -3 2 -2 2 -3 1 -3 2 -3 1 -3 2 -3 1 -3 2 -4 0 0zm22 9l0 1 0 -1 0 0zm-12 -57l24 3 0 0 0 2 0 2 -1 2 0 2 0 2 0 1 -1 2 0 2 0 2 0 2 -1 1 0 2 0 2 -1 2 0 1 0 2 -1 2 0 1 0 2 -1 1 0 2 -1 2 0 1 -1 2 0 1 0 2 -1 1 0 2 -1 2 0 1 -1 2 -1 1 -22 -9 0 -1 1 -1 0 -2 1 -1 0 -1 0 -2 1 -1 0 -1 1 -2 0 -1 0 -1 1 -2 0 -1 0 -2 1 -1 0 -2 0 -1 1 -1 0 -2 0 -2 0 -1 1 -2 0 -1 0 -2 0 -2 1 -1 0 -2 0 -2 0 -2 1 -1 0 -2 0 -2 0 0zm0 0l0 0 0 0 0 0zm580 -408l0 26 12 -11 0 1 0 3 -1 4 0 7 -1 8 -1 9 -2 11 -1 12 -2 13 -1 14 -2 15 -2 16 -2 16 -2 17 -2 17 -2 17 -2 18 -2 17 -2 18 -2 17 -2 17 -2 16 -2 16 -1 15 -2 15 -2 13 -1 12 -1 11 -2 10 -1 9 0 7 -1 5 -24 -3 1 -5 0 -7 1 -9 1 -10 2 -11 1 -12 2 -14 1 -14 2 -15 2 -16 2 -16 2 -17 2 -17 2 -18 2 -17 2 -18 2 -17 2 -17 2 -17 2 -16 2 -16 2 -15 1 -14 2 -13 1 -12 2 -11 1 -9 1 -8 0 -7 1 -4 0 -3 0 -1 12 -12zm-12 12l2 -12 10 0 -12 12zm150 14l-138 0 0 -26 138 0 12 13 -12 13zm0 -26l12 0 0 13 -12 -13zm-12 483l0 -470 24 0 0 470 0 0 -24 0zm50 25l0 25 0 0 -3 0 -3 0 -3 0 -3 -1 -2 0 -3 -1 -2 -1 -3 -1 -2 -1 -2 -1 -3 -1 -2 -2 -2 -1 -2 -2 -1 -2 -2 -1 -2 -2 -1 -2 -1 -2 -2 -2 -1 -2 -1 -2 -1 -3 0 -2 -1 -2 -1 -2 0 -3 0 -2 -1 -2 0 -2 0 -3 0 -2 24 0 0 1 0 2 0 1 1 1 0 2 0 1 0 1 1 1 0 1 1 1 0 1 1 1 0 1 1 1 0 1 1 1 1 0 0 1 1 1 1 0 1 1 1 1 1 0 1 1 1 0 2 1 1 0 2 0 1 1 2 0 2 0 2 0 0 0zm24 -25l24 0 0 0 0 2 0 3 0 2 0 2 -1 2 0 3 -1 2 -1 2 0 2 -1 3 -1 2 -1 2 -1 2 -2 2 -1 2 -2 2 -1 1 -2 2 -2 2 -2 1 -2 2 -2 1 -2 1 -2 1 -3 1 -2 1 -3 1 -2 0 -3 1 -2 0 -3 0 -3 0 0 -25 2 0 1 0 2 0 1 -1 2 0 1 0 1 -1 1 0 1 -1 1 0 1 -1 1 0 1 -1 1 -1 1 0 0 -1 1 -1 1 -1 0 -1 1 -1 0 -1 1 -1 0 -1 0 -1 1 -1 0 -1 0 -1 1 -2 0 -1 0 -1 0 -2 0 -1 0 0zm24 -506l0 506 -24 0 0 -506 0 0 24 0zm-48 -25l0 -25 0 0 3 0 3 0 2 0 3 1 2 0 3 1 2 1 3 1 2 1 2 1 2 1 2 2 2 1 2 2 2 2 2 2 1 1 1 2 2 2 1 2 1 2 1 3 1 2 0 2 1 2 1 2 0 3 1 2 0 2 0 3 0 2 0 2 -24 0 0 -1 0 -2 0 -1 0 -1 -1 -1 0 -2 0 -1 -1 -1 0 -1 0 -1 -1 -1 0 -1 -1 -1 0 -1 -1 -1 -1 -1 0 0 -1 -1 -1 -1 -1 -1 -1 0 -1 -1 0 0 -2 -1 -1 0 -1 -1 -1 0 -2 0 -1 -1 -2 0 -1 0 -2 0 0 0zm-205 -25l205 0 0 25 -205 0 0 0 0 -25zm-26 51l-24 -2 0 0 0 -3 0 -2 1 -3 0 -2 1 -2 1 -3 0 -2 1 -2 1 -2 1 -2 1 -2 2 -2 1 -2 1 -2 2 -2 1 -2 2 -2 2 -1 2 -2 1 -1 2 -1 3 -2 2 -1 2 -1 2 0 2 -1 3 -1 2 0 3 -1 2 0 3 0 3 0 0 25 -2 0 -2 0 -1 0 -1 1 -2 0 -1 0 -1 1 -1 0 -1 0 -1 1 -1 1 -1 0 -1 1 -1 0 -1 1 0 1 -1 1 -1 1 0 0 -1 1 -1 1 0 2 -1 1 0 1 -1 1 0 1 -1 2 0 1 0 2 -1 1 0 2 0 2 0 -1zm-24 -2l0 0 0 0 0 0zm-25 416l-24 -3 0 0 0 -4 1 -6 1 -7 1 -9 1 -10 2 -12 1 -13 2 -14 2 -15 1 -15 2 -17 2 -17 2 -17 3 -18 2 -18 2 -18 2 -18 2 -18 2 -17 2 -18 2 -16 2 -16 2 -16 2 -14 1 -14 2 -12 1 -11 1 -10 1 -8 1 -7 0 -5 1 -3 24 2 -1 4 0 5 -1 7 -1 8 -1 10 -1 11 -2 12 -1 14 -2 14 -2 16 -2 16 -2 16 -2 18 -2 17 -2 18 -2 18 -2 18 -2 18 -2 18 -2 17 -2 17 -2 17 -2 15 -2 15 -2 14 -1 13 -2 12 -1 10 -1 9 -1 7 -1 6 0 4 0 0zm0 0l0 0 0 1 0 -1zm-11 44l-21 -12 0 -1 0 0 1 -1 0 0 0 -1 0 -1 1 0 0 -1 0 -1 1 0 0 -1 0 -1 0 -1 1 -1 0 -1 0 -1 0 -1 1 -1 0 -1 0 -1 0 -1 0 -2 1 -1 0 -1 0 -2 0 -1 1 -2 0 -1 0 -2 0 -1 0 -2 1 -1 0 -2 24 3 0 2 0 2 -1 1 0 2 0 2 0 1 -1 2 0 1 0 2 0 2 -1 1 0 1 0 2 0 1 -1 2 0 1 0 1 -1 2 0 1 0 1 -1 2 0 1 -1 1 0 1 0 1 -1 2 0 1 -1 1 0 1 -1 1 0 1 -1 1 0 0zm-21 -12l0 0 0 -1 0 1zm-34 38l0 -25 0 0 2 0 2 0 2 0 2 0 2 -1 1 0 2 0 1 0 2 0 1 0 1 -1 1 0 2 0 1 -1 1 0 1 0 0 -1 1 0 1 -1 1 0 0 0 1 -1 1 0 0 -1 1 -1 0 0 1 -1 1 -1 0 0 1 -1 0 -1 1 -1 21 12 -1 2 -1 1 -1 2 -1 2 -1 1 -2 2 -1 1 -1 2 -2 1 -1 1 -2 2 -2 1 -1 1 -2 1 -2 0 -1 1 -2 1 -2 1 -2 0 -2 1 -2 0 -2 0 -2 1 -2 0 -2 0 -2 1 -2 0 -2 0 -2 0 -2 0 -2 0 -3 0 0 0zm-24 26l-24 0 0 0 0 -3 0 -3 1 -3 0 -3 1 -2 0 -3 1 -3 1 -2 1 -2 1 -3 1 -2 2 -2 1 -2 2 -2 1 -2 2 -2 2 -1 2 -2 2 -1 2 -1 2 -1 2 -1 2 -1 2 -1 2 -1 2 -1 2 0 3 -1 2 0 2 0 2 0 2 0 0 25 -1 0 -1 0 -1 0 -2 0 -1 1 -1 0 -1 0 -1 1 -1 0 -1 1 -1 0 -1 1 -1 0 -1 1 -1 0 -1 1 0 1 -1 1 -1 1 0 0 -1 1 0 1 -1 1 -1 2 0 1 0 1 -1 2 0 1 0 2 0 1 -1 2 0 2 0 0zm24 24l0 25 0 0 -2 0 -2 0 -2 0 -2 0 -2 0 -2 -1 -2 0 -3 -1 -2 -1 -2 0 -2 -1 -2 -1 -2 -1 -2 -2 -2 -1 -1 -1 -2 -2 -2 -2 -2 -2 -1 -2 -1 -2 -2 -2 -1 -2 -1 -3 -1 -2 -1 -3 0 -3 -1 -2 0 -3 -1 -3 0 -3 0 -3 24 0 0 2 1 2 0 2 0 1 0 2 1 1 0 1 0 1 1 2 0 1 1 0 0 1 1 1 1 1 0 0 1 1 1 1 0 0 1 1 1 0 1 1 1 0 1 0 1 1 1 0 2 0 1 1 1 0 1 0 2 0 1 0 1 0 0 0zm102 -56l22 9 0 1 -1 4 -2 4 -2 4 -2 3 -2 4 -2 4 -3 3 -2 4 -3 3 -2 3 -3 4 -3 3 -4 2 -3 3 -4 3 -3 2 -4 2 -4 2 -4 2 -5 2 -4 2 -5 1 -5 2 -5 1 -5 1 -5 1 -6 1 -6 0 -6 1 -6 0 -6 0 -7 0 0 -25 6 0 6 0 6 -1 5 0 5 -1 5 0 5 -1 4 -1 4 -1 4 -1 4 -1 4 -2 3 -1 3 -1 3 -2 3 -2 3 -2 3 -1 2 -2 2 -2 3 -3 2 -2 2 -2 2 -3 2 -2 1 -3 2 -3 2 -3 1 -3 2 -3 1 -3 2 -4 0 0zm22 9l0 1 0 0 0 -1zm-12 -57l24 3 0 0 0 2 0 2 -1 2 0 2 0 2 0 1 -1 2 0 2 0 2 -1 2 0 1 0 2 0 2 -1 2 0 1 0 2 -1 2 0 1 -1 2 0 1 0 2 -1 2 0 1 -1 2 0 1 -1 2 0 1 -1 2 0 2 -1 1 0 2 -1 1 -22 -9 0 -1 1 -1 0 -2 0 -1 1 -1 0 -2 1 -1 0 -1 0 -2 1 -1 0 -1 0 -2 1 -1 0 -2 0 -1 1 -2 0 -1 0 -1 1 -2 0 -2 0 -1 1 -2 0 -1 0 -2 0 -2 1 -1 0 -2 0 -2 0 -2 0 -1 1 -2 0 -2 0 0zm0 0l0 0 0 0 0 0zm736 68l24 0 0 0 0 3 0 2 0 3 -1 3 0 3 -1 2 -1 3 -1 2 -1 3 -1 2 -1 2 -1 2 -2 2 -1 2 -2 2 -2 1 -1 2 -2 1 -2 2 -2 1 -2 1 -2 1 -2 1 -2 0 -2 1 -2 1 -2 0 -2 0 -2 1 -3 0 -2 0 -2 0 0 -25 1 0 2 0 1 0 1 -1 1 0 1 0 1 0 2 -1 0 0 1 0 1 -1 1 0 1 -1 1 0 1 -1 0 -1 1 0 1 -1 0 -1 1 -1 0 0 1 -1 0 -1 1 -1 0 -2 1 -1 0 -1 0 -2 0 -1 1 -2 0 -2 0 -1 0 0zm-23 -25l0 -25 0 0 2 0 3 0 2 1 2 0 2 0 2 1 2 0 2 1 2 1 2 1 2 1 2 1 2 1 2 2 2 1 2 2 1 1 2 2 1 2 2 2 1 2 1 2 1 2 1 3 1 2 1 2 1 3 0 3 0 2 1 3 0 3 0 3 -24 0 0 -2 0 -2 -1 -1 0 -2 0 -1 0 -1 -1 -2 0 -1 -1 -1 0 -1 -1 -1 0 -1 -1 0 -1 -1 0 -1 -1 -1 -1 0 0 -1 -1 -1 -1 0 -1 -1 -1 0 -1 -1 -1 0 -1 0 -1 -1 -1 0 -1 0 -1 0 -1 0 -2 -1 -1 0 0 0zm-215 -25l215 0 0 25 -215 0 -12 -12 12 -13zm0 25l-12 0 0 -12 12 12zm12 -196l0 184 -24 0 0 -184 12 -13 12 13zm-24 0l0 -13 12 0 -12 13zm189 12l-177 0 0 -25 177 0 0 0 0 25zm23 -49l24 0 0 0 0 3 0 3 0 2 -1 3 0 3 -1 2 -1 3 0 2 -1 3 -2 2 -1 2 -1 2 -2 2 -1 2 -2 2 -1 1 -2 2 -2 1 -2 2 -2 1 -2 1 -2 1 -2 1 -2 1 -2 0 -2 1 -2 0 -2 1 -2 0 -2 0 -2 0 -3 0 0 -25 2 0 1 0 1 0 1 0 2 -1 1 0 1 0 1 -1 1 0 1 0 1 -1 0 0 1 -1 1 0 1 -1 0 0 1 -1 1 -1 0 -1 1 0 1 -1 0 -1 1 -1 0 -1 0 -1 1 -2 0 -1 0 -1 1 -2 0 -2 0 -1 0 -2 0 0zm-23 -24l0 -26 0 0 3 0 2 0 2 1 2 0 2 0 2 1 3 1 2 0 2 1 2 1 2 1 2 1 2 1 1 2 2 1 2 2 1 1 2 2 1 2 2 2 1 2 1 2 1 2 1 3 1 2 1 3 1 2 0 3 1 2 0 3 0 3 0 3 -24 0 0 -2 0 -2 0 -1 -1 -2 0 -1 0 -1 -1 -1 0 -2 0 -1 -1 -1 0 -1 -1 0 -1 -1 0 -1 -1 -1 -1 -1 0 0 -1 -1 -1 0 -1 -1 -1 -1 -1 0 -1 0 -1 -1 -1 0 -1 -1 -1 0 -1 0 -1 0 -1 0 -1 0 -2 0 0 0zm-177 -26l177 0 0 26 -177 0 -12 -13 12 -13zm0 26l-12 0 0 -13 12 13zm12 -181l0 168 -24 0 0 -168 12 -13 12 13zm-24 0l0 -13 12 0 -12 13zm227 13l-215 0 0 -26 215 0 0 0 0 26zm23 -50l24 0 0 0 0 3 0 3 0 3 -1 3 0 2 -1 3 -1 2 -1 3 -1 2 -1 2 -1 3 -1 2 -2 2 -1 2 -2 1 -2 2 -1 2 -2 1 -2 1 -2 1 -2 1 -2 1 -2 1 -2 1 -2 1 -2 0 -2 1 -2 0 -2 0 -3 1 -2 0 -2 0 0 -26 1 0 2 0 1 0 1 0 1 0 1 0 1 -1 2 0 0 0 1 -1 1 0 1 -1 1 0 1 -1 1 0 0 -1 1 -1 1 0 0 -1 1 -1 0 -1 1 -1 0 -1 1 -1 0 -1 1 -1 0 -1 0 -2 0 -1 1 -2 0 -2 0 -2 0 0zm-23 -24l0 -25 0 0 2 0 3 0 2 0 2 1 2 0 2 0 2 1 2 1 2 1 2 1 2 1 2 1 2 1 2 1 2 2 2 1 1 2 2 2 1 2 2 2 1 2 1 2 1 2 1 2 1 3 1 2 1 3 0 2 0 3 1 3 0 2 0 3 -24 0 0 -1 0 -2 -1 -2 0 -1 0 -1 0 -2 -1 -1 0 -1 -1 -1 0 -1 -1 -1 0 -1 -1 -1 -1 -1 0 0 -1 -1 -1 -1 0 0 -1 -1 -1 0 -1 -1 -1 0 -1 -1 -1 0 -1 -1 -1 0 -1 0 -1 0 -1 -1 -1 0 -2 0 -1 0 0 0zm-253 -25l253 0 0 25 -253 0 0 0 0 -25zm-24 50l-24 0 0 0 0 -2 0 -2 0 -3 0 -2 1 -2 0 -3 1 -2 0 -2 1 -2 1 -2 1 -3 1 -2 1 -2 1 -2 2 -2 1 -1 2 -2 2 -2 1 -2 2 -1 2 -2 2 -1 3 -1 2 -1 2 -1 3 -1 2 -1 3 0 3 -1 2 0 3 0 3 0 0 25 -2 0 -2 0 -1 0 -2 1 -1 0 -1 0 -2 1 -1 0 -1 1 -1 0 -1 1 -1 0 0 1 -1 1 -1 1 -1 0 0 1 -1 1 0 1 -1 1 0 1 -1 1 0 1 -1 1 0 1 0 1 -1 2 0 1 0 1 0 1 0 2 0 1 0 0zm-24 498l0 -498 24 0 0 498 0 0 -24 0zm48 25l0 25 0 0 -3 0 -3 0 -2 0 -3 -1 -3 -1 -2 0 -3 -1 -2 -1 -2 -1 -3 -1 -2 -2 -2 -1 -2 -2 -1 -1 -2 -2 -2 -2 -1 -1 -2 -2 -1 -2 -1 -2 -1 -3 -1 -2 -1 -2 -1 -2 0 -2 -1 -3 0 -2 -1 -2 0 -2 0 -3 0 -2 0 -2 24 0 0 1 0 1 0 2 0 1 0 1 1 2 0 1 0 1 1 1 0 1 1 1 0 1 1 1 0 1 1 1 0 1 1 0 1 1 1 1 0 0 1 1 1 1 1 0 1 1 1 0 2 0 1 1 1 0 2 0 1 1 2 0 2 0 0 0zm253 25l-253 0 0 -25 253 0 0 0 0 25zm322 -42l24 0 0 0 0 2 0 3 0 2 0 2 -1 2 0 3 -1 2 -1 2 0 2 -1 3 -1 2 -1 2 -1 2 -2 2 -1 2 -2 2 -1 1 -2 2 -2 2 -2 1 -2 2 -2 1 -2 1 -3 1 -2 1 -2 1 -3 1 -3 0 -2 1 -3 0 -3 0 -3 0 0 -25 2 0 2 0 1 0 2 -1 1 0 2 0 1 -1 1 0 1 -1 1 0 1 -1 1 0 1 -1 1 -1 1 -1 0 0 1 -1 1 -1 0 -1 1 -1 0 -1 1 -1 0 -1 0 -1 1 -1 0 -1 0 -1 1 -2 0 -1 0 -1 0 -2 0 -1 0 0zm24 -470l0 470 -24 0 0 -470 12 -13 12 13zm-24 0l0 -13 12 0 -12 13zm127 13l-115 0 0 -26 115 0 0 0 0 26zm22 -50l25 0 0 0 0 3 0 3 -1 3 0 3 -1 2 0 3 -1 2 -1 3 -1 2 -1 2 -1 3 -2 2 -1 2 -2 2 -1 1 -2 2 -2 2 -1 1 -2 1 -2 1 -2 1 -2 1 -2 1 -2 1 -2 1 -2 0 -2 1 -3 0 -2 0 -2 1 -2 0 -2 0 0 -26 1 0 1 0 2 0 1 0 1 0 1 0 1 -1 1 0 1 0 1 -1 1 0 1 -1 1 0 1 -1 0 0 1 -1 1 -1 0 0 1 -1 0 -1 1 -1 1 -1 0 -1 0 -1 1 -1 0 -1 1 -1 0 -2 0 -1 0 -2 0 -2 0 -2 0 0zm-22 -24l0 -25 0 0 2 0 2 0 3 0 2 1 2 0 2 0 2 1 2 1 2 1 2 1 2 1 2 1 2 1 2 1 2 2 1 1 2 2 1 2 2 2 1 2 2 2 1 2 1 2 1 2 1 3 1 2 0 3 1 2 0 3 0 3 1 2 0 3 -25 0 0 -1 0 -2 0 -2 0 -1 0 -1 -1 -2 0 -1 -1 -1 0 -1 0 -1 -1 -1 -1 -1 0 -1 -1 -1 -1 0 0 -1 -1 -1 -1 0 -1 -1 0 0 -1 -1 -1 0 -1 -1 -1 0 -1 -1 -1 0 -1 0 -1 0 -2 -1 -1 0 -1 0 -1 0 0 0zm-304 -25l304 0 0 25 -304 0 0 0 0 -25zm-22 49l-25 0 0 0 1 -3 0 -2 0 -3 0 -3 1 -2 1 -3 0 -2 1 -3 1 -2 1 -2 2 -2 1 -2 1 -2 2 -2 1 -2 2 -2 2 -1 1 -2 2 -1 2 -1 2 -1 2 -1 2 -1 2 -1 2 -1 2 -1 2 0 3 0 2 -1 2 0 2 0 2 0 0 25 -1 0 -1 0 -1 0 -1 1 -2 0 -1 0 -1 0 -1 1 -1 0 -1 1 -1 0 0 1 -1 0 -1 1 -1 0 -1 1 0 1 -1 0 -1 1 0 1 -1 1 0 1 -1 1 0 1 -1 1 0 1 0 2 -1 1 0 1 0 2 0 2 0 1 0 0zm22 24l0 26 0 0 -2 0 -2 0 -2 -1 -2 0 -2 0 -2 -1 -3 0 -2 -1 -2 -1 -2 -1 -2 -1 -2 -1 -2 -1 -1 -1 -2 -1 -2 -2 -2 -2 -1 -1 -2 -2 -1 -2 -1 -2 -2 -3 -1 -2 -1 -2 -1 -3 0 -2 -1 -3 -1 -2 0 -3 0 -3 0 -3 -1 -3 25 0 0 2 0 2 0 2 0 1 1 2 0 1 0 1 1 1 0 1 1 1 0 1 1 1 0 1 1 1 1 0 0 1 1 1 1 0 0 1 1 0 1 1 1 0 1 1 1 0 1 0 1 1 1 0 1 0 2 0 1 0 1 0 1 0 0 0zm115 26l-115 0 0 -26 115 0 12 13 -12 13zm0 -26l12 0 0 13 -12 -13zm-12 483l0 -470 24 0 0 470 0 0 -24 0zm49 25l0 25 0 0 -3 0 -3 0 -2 0 -3 -1 -3 0 -2 -1 -3 -1 -2 -1 -3 -1 -2 -1 -2 -1 -2 -2 -2 -1 -2 -2 -2 -2 -1 -1 -2 -2 -1 -2 -1 -2 -2 -2 -1 -2 -1 -2 -1 -3 0 -2 -1 -2 -1 -2 0 -3 0 -2 -1 -2 0 -2 0 -3 0 -2 24 0 0 1 0 2 0 1 1 1 0 2 0 1 0 1 1 1 0 1 1 1 0 1 1 1 0 1 1 1 0 1 1 1 1 0 0 1 1 1 1 1 1 0 1 1 1 0 1 1 1 0 1 1 2 0 1 0 2 1 1 0 2 0 2 0 0 0zm602 -32l24 0 0 0 0 3 0 2 0 3 -1 3 0 3 -1 2 -1 3 -1 2 -1 3 -1 2 -1 2 -1 2 -2 2 -1 2 -2 2 -1 1 -2 2 -2 1 -2 2 -2 1 -2 1 -2 1 -2 1 -2 0 -2 1 -2 1 -2 0 -2 0 -2 1 -2 0 -2 0 -3 0 0 -25 2 0 1 0 1 0 1 -1 1 0 2 0 1 0 1 -1 1 0 1 0 1 -1 0 0 1 -1 1 0 1 -1 0 -1 1 0 1 -1 0 -1 1 -1 0 0 1 -1 0 -1 1 -1 0 -2 1 -1 0 -1 0 -2 1 -1 0 -2 0 -2 0 -1 0 0zm-23 -25l0 -25 0 0 3 0 2 0 2 1 2 0 2 0 2 1 2 0 3 1 2 1 2 1 2 1 2 1 1 1 2 2 2 1 2 2 1 1 2 2 1 2 2 2 1 2 1 2 1 2 1 3 1 2 1 2 1 3 0 3 1 2 0 3 0 3 0 3 -24 0 0 -2 0 -2 0 -1 -1 -2 0 -1 0 -1 -1 -2 0 -1 -1 -1 0 -1 -1 -1 0 -1 -1 0 0 -1 -1 -1 -1 -1 0 0 -1 -1 -1 -1 -1 0 -1 -1 -1 0 -1 -1 -1 0 -1 0 -1 -1 -1 0 -1 0 -1 0 -1 0 -1 -1 -2 0 0 0zm-215 -25l215 0 0 25 -215 0 -12 -12 12 -13zm0 25l-12 0 0 -12 12 12zm12 -196l0 184 -24 0 0 -184 12 -13 12 13zm-24 0l0 -13 12 0 -12 13zm190 12l-178 0 0 -25 178 0 0 0 0 25zm22 -49l24 0 0 0 0 3 0 3 0 2 -1 3 0 3 -1 2 0 3 -1 2 -1 3 -1 2 -2 2 -1 2 -1 2 -2 2 -1 2 -2 1 -2 2 -2 1 -2 2 -1 1 -2 1 -2 1 -2 1 -3 1 -2 0 -2 1 -2 0 -2 1 -2 0 -2 0 -2 0 -2 0 0 -25 1 0 1 0 1 0 1 0 2 -1 1 0 1 0 1 -1 1 0 1 0 1 -1 1 0 0 -1 1 0 1 -1 1 0 0 -1 1 -1 1 -1 0 0 1 -1 0 -1 1 -1 0 -1 1 -1 0 -2 0 -1 1 -1 0 -2 0 -2 0 -1 0 -2 0 0zm-22 -24l0 -26 0 0 2 0 2 0 2 1 2 0 2 0 3 1 2 1 2 0 2 1 2 1 2 1 2 1 2 1 2 2 1 1 2 2 2 1 1 2 2 2 1 2 1 2 2 2 1 2 1 3 1 2 0 3 1 2 0 3 1 2 0 3 0 3 0 3 -24 0 0 -2 0 -2 0 -1 0 -2 -1 -1 0 -1 0 -1 -1 -2 0 -1 -1 -1 0 -1 -1 0 0 -1 -1 -1 -1 -1 -1 -1 0 0 -1 -1 -1 0 -1 -1 -1 -1 0 0 -1 0 -1 -1 -1 0 -1 -1 -2 0 -1 0 -1 0 -1 0 -1 0 -1 0 0 0zm-178 -26l178 0 0 26 -178 0 -12 -13 12 -13zm0 26l-12 0 0 -13 12 13zm12 -181l0 168 -24 0 0 -168 12 -13 12 13zm-24 0l0 -13 12 0 -12 13zm227 13l-215 0 0 -26 215 0 0 0 0 26zm23 -50l24 0 0 0 0 3 0 3 0 3 -1 3 0 2 -1 3 -1 2 -1 3 -1 2 -1 2 -1 3 -1 2 -2 2 -1 2 -2 1 -1 2 -2 2 -2 1 -2 1 -2 1 -2 1 -2 1 -2 1 -2 1 -2 1 -2 0 -2 1 -2 0 -2 0 -2 1 -2 0 -3 0 0 -26 2 0 1 0 1 0 1 0 1 0 2 0 1 -1 1 0 1 0 1 -1 1 0 0 -1 1 0 1 -1 1 0 0 -1 1 -1 1 0 0 -1 1 -1 0 -1 1 -1 0 -1 1 -1 0 -1 1 -1 0 -1 0 -2 1 -1 0 -2 0 -2 0 -2 0 0zm-23 -24l0 -25 0 0 3 0 2 0 2 0 2 1 2 0 2 0 3 1 2 1 2 1 2 1 2 1 2 1 1 1 2 1 2 2 2 1 1 2 2 2 1 2 2 2 1 2 1 2 1 2 1 2 1 3 1 2 1 3 0 2 1 3 0 3 0 2 0 3 -24 0 0 -1 0 -2 0 -2 -1 -1 0 -1 0 -2 -1 -1 0 -1 -1 -1 0 -1 -1 -1 0 -1 -1 -1 0 -1 -1 0 -1 -1 0 -1 -1 0 -1 -1 -1 0 -1 -1 -1 0 -1 -1 -1 0 -1 -1 -1 0 -1 0 -1 0 -1 -1 -1 0 -1 0 -2 0 0 0zm-253 -25l253 0 0 25 -253 0 0 0 0 -25zm-24 50l-24 0 0 0 0 -2 0 -2 0 -3 0 -2 1 -2 0 -3 1 -2 0 -2 1 -2 1 -2 1 -3 1 -2 1 -2 2 -2 1 -2 1 -1 2 -2 2 -2 2 -2 1 -1 2 -2 3 -1 2 -1 2 -1 2 -1 3 -1 2 -1 3 0 3 -1 2 0 3 0 3 0 0 25 -2 0 -1 0 -2 0 -1 1 -2 0 -1 0 -1 1 -2 0 -1 1 -1 0 -1 1 0 0 -1 1 -1 1 -1 1 0 0 -1 1 -1 1 0 1 -1 1 0 1 -1 1 0 1 0 1 -1 1 0 1 0 2 -1 1 0 1 0 1 0 2 0 1 0 0zm-24 498l0 -498 24 0 0 498 0 0 -24 0zm48 25l0 25 0 0 -3 0 -3 0 -2 0 -3 -1 -3 -1 -2 0 -3 -1 -2 -1 -2 -1 -2 -1 -3 -2 -2 -1 -1 -2 -2 -1 -2 -2 -2 -2 -1 -1 -1 -2 -2 -2 -1 -2 -1 -3 -1 -2 -1 -2 -1 -2 0 -2 -1 -3 0 -2 -1 -2 0 -2 0 -3 0 -2 0 -2 24 0 0 1 0 1 0 2 0 1 1 1 0 2 0 1 1 1 0 1 0 1 1 1 0 1 1 1 0 1 1 1 1 1 0 0 1 1 1 1 1 0 0 1 1 1 1 0 1 1 2 0 1 0 1 1 2 0 1 0 2 1 1 0 2 0 0 0zm253 25l-253 0 0 -25 253 0 0 0 0 25zm475 -581l0 -25 0 0 3 0 3 0 2 0 3 1 3 0 2 1 3 1 2 1 2 1 3 1 2 1 2 2 2 1 2 2 1 1 2 2 2 2 1 2 1 2 1 2 2 2 1 2 0 2 1 3 1 2 1 2 0 2 0 3 1 2 0 2 0 3 0 2 -24 0 0 -1 0 -2 0 -1 -1 -1 0 -2 0 -1 0 -1 -1 -1 0 -1 0 -1 -1 -1 0 -1 -1 -1 -1 -1 0 -1 -1 -1 -1 -1 0 0 -1 -1 -1 -1 -1 0 -1 -1 -1 0 -1 -1 -1 0 -2 -1 -1 0 -1 0 -2 -1 -1 0 -2 0 -2 0 0 0zm-25 25l-24 0 0 0 0 -2 0 -3 0 -2 1 -2 0 -3 0 -2 1 -2 1 -2 0 -2 1 -3 1 -2 1 -2 2 -2 1 -2 1 -2 2 -2 1 -2 2 -1 2 -2 2 -1 2 -2 2 -1 2 -1 3 -1 2 -1 3 -1 2 -1 3 0 3 -1 2 0 3 0 3 0 0 25 -2 0 -2 0 -1 0 -2 1 -1 0 -2 0 -1 1 -1 0 -1 1 -1 0 -1 1 -1 0 -1 1 -1 1 0 0 -1 1 -1 1 0 1 -1 1 0 1 -1 1 0 1 -1 1 0 1 -1 1 0 1 0 1 0 2 -1 1 0 1 0 2 0 1 0 0zm-24 204l0 -204 24 0 0 204 -12 12 -12 -12zm24 0l0 12 -12 0 12 -12zm-219 -13l207 0 0 25 -207 0 -12 -12 12 -13zm0 25l-12 0 0 -12 12 12zm12 -216l0 204 -24 0 0 -204 0 0 24 0zm-49 -25l0 -25 0 0 3 0 3 0 3 0 3 1 2 0 3 1 2 1 3 1 2 1 2 1 3 1 2 2 2 1 1 2 2 2 2 1 1 2 2 2 1 2 1 2 1 2 1 3 1 2 1 2 0 2 1 2 0 3 1 2 0 2 0 2 0 3 0 2 -24 0 0 -1 0 -2 0 -1 0 -1 -1 -2 0 -1 0 -1 0 -1 -1 -1 0 -2 -1 -1 0 0 -1 -1 0 -1 -1 -1 0 -1 -1 -1 -1 0 -1 -1 0 -1 -1 0 -1 -1 -1 0 -1 -1 -2 0 -1 -1 -1 0 -2 0 -1 -1 -2 0 -2 0 -2 0 0 0zm-25 25l-24 0 0 0 0 -2 0 -3 0 -2 1 -2 0 -3 1 -2 0 -2 1 -2 1 -3 1 -2 1 -2 1 -2 1 -2 1 -2 2 -2 1 -2 2 -2 2 -1 1 -2 2 -1 3 -2 2 -1 2 -1 2 -1 3 -1 2 -1 3 -1 2 0 3 -1 3 0 2 0 3 0 0 25 -2 0 -1 0 -2 0 -1 1 -2 0 -1 0 -1 1 -2 0 -1 1 -1 0 -1 1 -1 0 0 1 -1 1 -1 1 -1 0 0 1 -1 1 -1 1 0 1 -1 1 0 1 -1 1 0 1 0 1 -1 1 0 1 0 2 0 1 -1 1 0 2 0 1 0 0zm-24 514l0 -514 24 0 0 514 0 0 -24 0zm49 25l0 25 0 0 -3 0 -2 0 -3 0 -3 -1 -2 0 -3 -1 -2 -1 -3 -1 -2 -1 -2 -1 -2 -1 -3 -2 -2 -1 -1 -2 -2 -2 -2 -1 -1 -2 -2 -2 -1 -2 -1 -2 -1 -2 -1 -2 -1 -2 -1 -3 -1 -2 0 -2 -1 -2 0 -3 -1 -2 0 -2 0 -3 0 -2 24 0 0 1 0 2 1 1 0 1 0 1 0 2 1 1 0 1 0 1 1 1 0 1 1 1 0 1 1 1 1 1 0 1 1 0 1 1 1 1 0 0 1 1 1 1 1 0 1 1 2 0 1 1 1 0 2 0 1 1 2 0 1 0 2 0 0 0zm25 -25l24 0 0 0 0 2 0 3 0 2 0 2 -1 2 0 3 -1 2 0 2 -1 2 -1 3 -1 2 -1 2 -1 2 -2 2 -1 2 -2 2 -1 1 -2 2 -2 2 -2 1 -2 2 -2 1 -2 1 -2 1 -3 1 -2 1 -3 1 -3 0 -2 1 -3 0 -3 0 -3 0 0 -25 2 0 2 0 1 0 2 -1 1 0 2 0 1 -1 1 0 1 -1 1 0 1 -1 1 0 1 -1 1 -1 1 -1 0 0 1 -1 1 -1 0 -1 1 -1 0 -1 1 -1 0 -1 1 -1 0 -1 0 -1 0 -1 1 -2 0 -1 0 -1 0 -2 0 -1 0 0zm24 -237l0 237 -24 0 0 -237 12 -12 12 12zm-24 0l0 -12 12 0 -12 12zm219 13l-207 0 0 -25 207 0 12 12 -12 13zm0 -25l12 0 0 12 -12 -12zm-12 249l0 -237 24 0 0 237 0 0 -24 0zm49 25l0 25 0 0 -3 0 -3 0 -3 0 -2 -1 -3 0 -3 -1 -2 -1 -3 -1 -2 -1 -2 -1 -2 -1 -2 -2 -2 -1 -2 -2 -2 -2 -2 -1 -1 -2 -1 -2 -2 -2 -1 -2 -1 -2 -1 -3 -1 -2 0 -2 -1 -2 -1 -2 0 -3 0 -2 -1 -2 0 -3 0 -2 0 -2 24 0 0 1 0 2 0 1 1 1 0 2 0 1 0 1 1 1 0 1 0 1 1 1 0 1 1 1 0 1 1 1 1 1 0 1 1 0 1 1 1 1 0 0 1 1 1 0 2 1 1 0 1 1 1 0 2 0 2 1 1 0 2 0 2 0 0 0zm25 -25l24 0 0 0 0 2 0 3 0 2 -1 2 0 3 0 2 -1 2 -1 2 -1 3 0 2 -1 2 -2 2 -1 2 -1 2 -1 2 -2 2 -2 1 -1 2 -2 2 -2 1 -2 2 -2 1 -3 1 -2 1 -2 1 -3 1 -2 1 -3 0 -3 1 -2 0 -3 0 -3 0 0 -25 2 0 2 0 1 0 2 -1 1 0 1 0 2 -1 1 0 1 -1 1 0 1 -1 1 0 1 -1 1 -1 0 -1 1 0 1 -1 0 -1 1 -1 1 -1 0 -1 1 -1 0 -1 0 -1 1 -1 0 -1 0 -2 0 -1 1 -1 0 -1 0 -2 0 -1 0 0zm24 -514l0 514 -24 0 0 -514 0 0 24 0zm216 180l124 0 0 25 -124 0 -12 -13 12 -12zm0 25l-12 0 0 -13 12 13zm12 -205l0 192 -24 0 0 -192 0 0 24 0zm-49 -25l0 -25 0 0 3 0 2 0 3 0 3 1 3 0 2 1 3 1 2 1 2 1 3 1 2 1 2 2 2 1 2 2 1 1 2 2 1 2 2 2 1 2 1 2 1 2 1 2 1 3 1 2 1 2 0 2 1 2 0 3 0 2 1 2 0 3 0 2 -24 0 -1 -1 0 -2 0 -1 0 -1 0 -2 0 -1 -1 -1 0 -1 0 -1 -1 -1 0 -1 -1 -1 0 -1 -1 -1 0 -1 -1 -1 -1 -1 -1 0 0 -1 -1 -1 -1 0 -1 -1 -1 0 -1 -1 -1 0 -2 -1 -1 0 -1 0 -2 -1 -2 0 -1 0 -2 0 0 0zm-25 25l-24 0 0 0 0 -2 0 -3 0 -2 0 -2 1 -3 0 -2 1 -2 0 -2 1 -2 1 -3 1 -2 1 -2 1 -2 1 -2 2 -2 1 -2 2 -2 2 -1 2 -2 2 -1 2 -2 2 -1 2 -1 2 -1 3 -1 2 -1 3 -1 2 0 3 -1 3 0 3 0 3 0 0 25 -2 0 -2 0 -2 0 -1 1 -2 0 -1 0 -1 1 -1 0 -2 1 -1 0 -1 1 0 0 -1 1 -1 1 -1 0 0 1 -1 1 -1 1 0 1 -1 1 0 1 -1 1 0 1 -1 1 0 1 0 1 -1 1 0 2 0 1 0 1 0 2 0 1 0 0zm-24 506l0 -506 24 0 0 506 0 0 -24 0zm49 25l0 25 0 0 -2 0 -3 0 -3 0 -3 -1 -3 0 -2 -1 -3 -1 -2 -1 -3 -1 -2 -1 -2 -1 -2 -2 -2 -1 -2 -2 -2 -2 -1 -2 -2 -1 -1 -2 -2 -2 -1 -2 -1 -2 -1 -3 -1 -2 -1 -2 0 -2 -1 -2 0 -3 -1 -2 0 -2 0 -3 0 -2 0 -2 24 0 0 1 0 1 0 2 0 1 0 1 1 2 0 1 0 1 1 1 0 1 1 1 0 1 1 1 0 1 1 1 1 0 0 1 1 1 1 1 1 0 1 1 1 0 1 1 1 1 1 0 1 0 2 1 1 0 2 0 2 1 2 0 1 0 0 0zm161 25l-161 0 0 -25 161 0 0 0 0 25zm139 -171l24 0 0 0 0 8 0 9 -1 9 -1 8 -2 9 -1 8 -2 8 -3 8 -2 7 -3 8 -4 7 -3 7 -4 7 -5 6 -4 6 -5 6 -6 6 -5 5 -6 6 -7 4 -6 5 -7 4 -8 4 -7 3 -8 3 -8 3 -9 2 -8 2 -9 1 -10 1 -9 1 -10 0 0 -25 9 0 8 -1 9 -1 7 -1 8 -2 7 -2 7 -2 7 -2 6 -3 6 -3 6 -4 6 -4 5 -3 5 -5 4 -4 5 -5 4 -5 4 -5 3 -5 3 -6 4 -6 2 -6 3 -6 2 -7 2 -6 2 -7 1 -7 2 -8 1 -7 0 -8 1 -7 0 -8 0 0zm24 -37l0 37 -24 0 0 -37 0 0 24 0zm-163 -143l0 -25 0 0 10 0 10 0 9 1 9 2 9 1 9 3 8 2 8 3 7 3 8 4 6 3 7 5 6 4 6 5 6 5 5 6 5 6 5 6 4 6 4 7 4 7 3 7 3 7 3 8 2 8 2 8 2 8 1 8 1 8 1 9 0 9 0 9 -24 0 0 -8 -1 -8 0 -8 -1 -7 -1 -8 -2 -7 -2 -7 -1 -6 -3 -7 -2 -6 -3 -6 -3 -5 -3 -6 -4 -5 -3 -5 -4 -5 -5 -4 -4 -4 -5 -4 -5 -4 -6 -4 -5 -3 -6 -3 -7 -2 -7 -3 -7 -2 -7 -2 -8 -1 -8 -1 -8 -1 -9 -1 -9 0 0 0zm2 277l0 -25 0 0 4 0 5 0 4 -1 4 0 3 -1 4 0 3 -1 3 -1 3 -1 3 -2 3 -1 2 -1 2 -2 2 -2 2 -1 2 -2 2 -2 1 -2 2 -2 1 -3 1 -2 1 -3 1 -2 1 -3 1 -3 1 -3 1 -4 0 -3 0 -4 1 -4 0 -4 0 -4 24 0 0 5 0 5 0 4 -1 5 -1 4 0 5 -1 4 -1 4 -2 4 -1 4 -2 4 -2 4 -2 4 -2 3 -3 3 -3 3 -2 3 -4 3 -3 3 -3 2 -4 2 -4 2 -4 2 -4 2 -4 1 -5 1 -4 1 -5 1 -5 1 -5 0 -5 0 -5 0 0 0zm-126 -25l126 0 0 25 -126 0 -12 -12 12 -13zm0 25l-12 0 0 -12 12 12zm12 -216l0 204 -24 0 0 -204 12 -13 12 13zm-24 0l0 -13 12 0 -12 13zm136 13l-124 0 0 -26 124 0 0 0 0 26zm89 65l-24 0 0 0 0 -4 0 -4 -1 -4 0 -4 -1 -4 0 -3 -1 -3 -1 -3 -1 -3 -1 -3 -1 -3 -1 -2 -2 -2 -1 -3 -2 -2 -2 -2 -2 -2 -2 -1 -2 -2 -2 -2 -3 -1 -2 -1 -3 -2 -3 -1 -3 -1 -4 -1 -3 -1 -4 0 -4 -1 -4 0 -4 0 -5 0 0 -26 5 0 6 1 5 0 5 1 4 1 5 1 5 1 4 1 4 2 4 2 4 2 4 2 3 2 3 3 4 3 3 3 2 3 3 3 2 3 3 4 1 4 2 4 2 4 1 4 1 4 1 5 1 4 1 5 1 4 0 5 0 5 0 5 0 0zm-24 49l0 -49 24 0 0 49 0 0 -24 0z"/>
    </g>
    <g>
     <path class="fil6" d="M7950 7557c-39,0 -70,-34 -70,-75 0,-42 31,-75 70,-75l0 150zm4354 0l-4354 0 0 -150 4354 0 0 150zm0 -150c39,0 70,33 70,75 0,41 -31,75 -70,75l0 -150z"/>
    </g>
    <path class="fil3 str1" d="M13071 5916l0 8833c-2205,0 -3683,0 -5888,0l0 -8833 5888 0z"/>
    <path class="fil3 str2" d="M11883 9640l582 0 0 -558 -582 0 0 558z"/>
    <path class="fil3 str2" d="M11883 12715l582 0 0 -558 -582 0 0 558z"/>
    <path class="fil3 str2" d="M11883 8712l582 0 0 -557 -582 0 0 557z"/>
    <path class="fil7 str3" d="M8055 8400l122 -121c3,-2 6,-4 10,-4 3,0 7,2 10,5 3,3 4,6 4,10 0,3 -1,6 -4,10l-86 86 89 157 2 8c0,4 -2,7 -5,10 -3,3 -6,4 -11,4 -4,0 -8,-2 -12,-8l-85 -150 -34 33 0 111c0,4 -2,8 -4,11 -3,2 -6,3 -11,3 -3,0 -7,-1 -10,-4 -3,-2 -4,-6 -4,-10l0 -261c0,-4 1,-7 4,-10 3,-3 7,-5 10,-5 4,0 7,2 10,4 3,2 5,6 5,11l0 110zm253 93l-21 62c-1,3 -3,6 -5,8 -2,1 -5,2 -8,2 -4,0 -7,-1 -10,-4 -3,-3 -5,-6 -5,-10l1 -5 87 -261c3,-8 8,-12 14,-12 6,0 11,4 14,12l86 261 1 5c0,4 -1,7 -5,10 -3,3 -6,4 -10,4 -2,0 -4,0 -6,-1 -3,-1 -5,-4 -7,-9l-21 -62 -105 0zm96 -30l-43 -127 -43 127 86 0zm259 -72l0 -101c0,-4 1,-7 4,-10 3,-3 6,-5 10,-5 4,0 7,2 10,4 3,2 4,6 4,11l0 260c0,4 -1,8 -4,11 -4,3 -7,4 -10,4 -4,0 -7,-1 -10,-3 -3,-3 -4,-6 -4,-11l0 -131 -116 0 0 131c0,4 -2,8 -4,11 -3,2 -7,3 -11,3 -4,0 -7,-1 -10,-4 -3,-2 -4,-6 -4,-10l0 -261c0,-4 1,-7 4,-11 3,-2 6,-3 10,-3 4,0 7,1 10,3 3,3 5,6 5,11l0 101 116 0zm117 145l27 -248c0,-8 5,-13 15,-13l86 0c10,0 15,5 15,15l0 246 14 0c10,0 15,5 15,15l0 28c0,4 -1,8 -4,11 -3,2 -7,4 -10,4 -4,0 -7,-1 -10,-4 -3,-2 -5,-6 -5,-11l0 -14 -145 0 0 14c0,4 -1,8 -4,11 -3,2 -7,4 -10,4 -4,0 -7,-1 -10,-4 -3,-2 -5,-6 -5,-11l0 -28c0,-10 5,-15 15,-15l16 0zm114 0l0 -232 -59 0 -26 232 85 0zm289 15c0,4 -1,8 -4,11 -2,2 -6,3 -10,3 -4,0 -7,-1 -10,-4 -3,-2 -4,-6 -4,-10l0 -205 -118 212c-2,3 -4,5 -6,7l-3 1c-1,1 -3,1 -5,2 -3,-1 -6,-2 -10,-5 -2,-3 -3,-7 -3,-12l0 -261c0,-4 1,-7 4,-11 3,-2 6,-3 10,-3 4,0 7,1 10,3 3,3 5,6 5,11l0 205 117 -212c1,-2 3,-4 6,-7 3,-2 5,-3 8,-3 3,0 6,2 9,5 3,3 4,7 4,12l0 261zm89 -15l27 -248c0,-8 5,-13 15,-13l86 0c10,0 15,5 15,15l0 246 14 0c10,0 15,5 15,15l0 28c0,4 -1,8 -4,11 -3,2 -7,4 -10,4 -4,0 -7,-1 -10,-4 -3,-2 -5,-6 -5,-11l0 -14 -145 0 0 14c0,4 -1,8 -4,11 -3,2 -7,4 -10,4 -4,0 -7,-1 -10,-4 -3,-2 -5,-6 -5,-11l0 -28c0,-10 5,-15 15,-15l16 0zm114 0l0 -232 -59 0 -26 232 85 0zm166 -43l-20 62c-2,3 -3,6 -6,8 -2,1 -4,2 -8,2 -4,0 -7,-1 -10,-4 -3,-3 -5,-6 -5,-10l1 -5 88 -261c2,-8 7,-12 13,-12 6,0 11,4 14,12l86 261 1 5c0,4 -1,7 -4,10 -3,3 -7,4 -10,4 -2,0 -5,0 -7,-1 -2,-1 -5,-4 -7,-9l-21 -62 -105 0zm96 -30l-43 -127 -43 127 86 0zm129 -159l-58 0c-5,0 -8,-1 -11,-4 -3,-3 -4,-6 -4,-10 0,-3 1,-7 4,-10 2,-3 6,-5 11,-5l144 0c4,0 8,2 11,5 2,3 4,6 4,10 0,3 -1,6 -4,10 -2,3 -6,4 -11,4l-58 0 0 247c0,4 -1,8 -4,11 -2,2 -6,3 -10,3 -4,0 -7,-1 -10,-4 -3,-2 -4,-6 -4,-10l0 -247zm360 247c0,4 -1,8 -4,11 -3,2 -6,3 -10,3 -4,0 -8,-1 -10,-4 -3,-2 -5,-6 -5,-10l0 -226 -33 33c-3,3 -6,4 -10,4 -3,0 -7,-1 -10,-4 -3,-3 -5,-6 -5,-10 0,-4 2,-7 5,-10l58 -58c1,-2 3,-4 6,-5 2,-1 4,-2 6,-2 3,0 5,2 9,5 2,3 3,7 3,12l0 261z"/>
    <path class="fil3 str2" d="M11885 11631l582 0 0 -557 -582 0 0 557z"/>
    <path class="fil3 str2" d="M11885 10631l582 0 0 -557 -582 0 0 557z"/>
    <path class="fil7 str3" d="M8055 9328l122 -121c3,-3 6,-4 10,-4 3,0 7,2 10,4 3,3 4,7 4,11 0,2 -1,6 -4,10l-86 86 89 157 2 8c0,3 -2,6 -5,9 -3,3 -6,5 -11,5 -4,0 -8,-3 -12,-8l-85 -151 -34 34 0 110c0,5 -2,8 -4,11 -3,2 -6,4 -11,4 -3,0 -7,-2 -10,-4 -3,-2 -4,-6 -4,-11l0 -261c0,-4 1,-7 4,-10 3,-3 7,-4 10,-4 4,0 7,1 10,3 3,3 5,6 5,11l0 111zm253 92l-21 63c-1,3 -3,5 -5,7 -2,1 -5,2 -8,3 -4,0 -7,-2 -10,-5 -3,-2 -5,-5 -5,-9l1 -6 87 -260c3,-8 8,-13 14,-13 6,0 11,5 14,13l86 260 1 6c0,3 -1,7 -5,10 -3,2 -6,4 -10,4 -2,0 -4,-1 -6,-2 -3,-1 -5,-4 -7,-8l-21 -63 -105 0zm96 -29l-43 -128 -43 128 86 0zm259 -72l0 -102c0,-3 1,-7 4,-10 3,-3 6,-4 10,-4 4,0 7,1 10,4 3,2 4,6 4,11l0 260c0,4 -1,8 -4,11 -4,2 -7,4 -10,4 -4,0 -7,-2 -10,-4 -3,-2 -4,-6 -4,-11l0 -130 -116 0 0 130c0,5 -2,8 -4,11 -3,2 -7,4 -11,4 -4,0 -7,-2 -10,-4 -3,-2 -4,-6 -4,-11l0 -260c0,-4 1,-8 4,-11 3,-3 6,-4 10,-4 4,0 7,1 10,4 3,2 5,6 5,11l0 101 116 0zm117 145l27 -248c0,-9 5,-13 15,-13l86 0c10,0 15,5 15,15l0 246 14 0c10,0 15,5 15,14l0 29c0,4 -1,7 -4,10 -3,3 -7,4 -10,4 -4,0 -7,-1 -10,-3 -3,-3 -5,-6 -5,-11l0 -14 -145 0 0 14c0,4 -1,7 -4,10 -3,3 -7,4 -10,4 -4,0 -7,-1 -10,-3 -3,-3 -5,-6 -5,-11l0 -29c0,-9 5,-14 15,-14l16 0zm114 0l0 -232 -59 0 -26 232 85 0zm289 14c0,5 -1,8 -4,11 -2,2 -6,4 -10,4 -4,0 -7,-2 -10,-4 -3,-2 -4,-6 -4,-11l0 -204 -118 211c-2,3 -4,5 -6,7l-3 2c-1,0 -3,1 -5,1 -3,0 -6,-1 -10,-4 -2,-3 -3,-7 -3,-13l0 -260c0,-4 1,-8 4,-11 3,-3 6,-4 10,-4 4,0 7,1 10,4 3,2 5,6 5,11l0 204 117 -211c1,-3 3,-5 6,-7 3,-2 5,-3 8,-3 3,0 6,1 9,5 3,2 4,6 4,12l0 260zm89 -14l27 -248c0,-9 5,-13 15,-13l86 0c10,0 15,5 15,15l0 246 14 0c10,0 15,5 15,14l0 29c0,4 -1,7 -4,10 -3,3 -7,4 -10,4 -4,0 -7,-1 -10,-3 -3,-3 -5,-6 -5,-11l0 -14 -145 0 0 14c0,4 -1,7 -4,10 -3,3 -7,4 -10,4 -4,0 -7,-1 -10,-3 -3,-3 -5,-6 -5,-11l0 -29c0,-9 5,-14 15,-14l16 0zm114 0l0 -232 -59 0 -26 232 85 0zm166 -44l-20 63c-2,3 -3,5 -6,7 -2,1 -4,2 -8,3 -4,0 -7,-2 -10,-5 -3,-2 -5,-5 -5,-9l1 -6 88 -260c2,-8 7,-13 13,-13 6,0 11,5 14,13l86 260 1 6c0,3 -1,7 -4,10 -3,2 -7,4 -10,4 -2,0 -5,-1 -7,-2 -2,-1 -5,-4 -7,-8l-21 -63 -105 0zm96 -29l-43 -128 -43 128 86 0zm129 -159l-58 0c-5,0 -8,-1 -11,-4 -3,-3 -4,-7 -4,-11 0,-3 1,-6 4,-9 2,-3 6,-5 11,-5l144 0c4,0 8,2 11,4 2,3 4,7 4,10 0,4 -1,7 -4,10 -2,3 -6,5 -11,5l-58 0 0 246c0,5 -1,8 -4,11 -2,2 -6,4 -10,4 -4,0 -7,-2 -10,-4 -3,-2 -4,-6 -4,-11l0 -246zm407 83l-93 149 90 0c4,0 7,1 10,4 3,3 4,7 4,10 0,4 -1,7 -3,10 -3,3 -7,5 -11,5l-116 0c-11,0 -16,-4 -16,-12 0,-3 1,-7 4,-11l107 -170c3,-8 5,-15 5,-22 0,-12 -5,-23 -14,-32 -5,-5 -10,-8 -16,-10 -6,-3 -13,-4 -20,-4 -7,0 -14,2 -21,6 -7,4 -12,9 -17,16 -1,2 -3,4 -5,5l-7 2c-4,0 -7,-2 -10,-4 -3,-3 -5,-6 -5,-10 0,-2 1,-5 3,-9 6,-10 15,-18 27,-25 5,-3 11,-6 16,-7 6,-2 12,-3 17,-3 23,0 42,8 57,22 16,15 24,33 24,54 0,12 -3,24 -10,36z"/>
    <path class="fil7 str3" d="M8055 10320l122 -121c3,-3 6,-4 10,-4 3,0 7,1 10,4 3,3 4,7 4,11 0,2 -1,6 -4,10l-86 85 89 158 2 7c0,4 -2,7 -5,10 -3,3 -6,4 -11,4 -4,0 -8,-2 -12,-7l-85 -151 -34 34 0 110c0,5 -2,8 -4,11 -3,2 -6,3 -11,3 -3,0 -7,-1 -10,-3 -3,-3 -4,-6 -4,-11l0 -261c0,-4 1,-7 4,-10 3,-3 7,-4 10,-4 4,0 7,1 10,3 3,3 5,6 5,11l0 111zm253 92l-21 63c-1,3 -3,5 -5,7 -2,1 -5,2 -8,2 -4,0 -7,-1 -10,-4 -3,-2 -5,-5 -5,-10l1 -5 87 -260c3,-8 8,-13 14,-13 6,0 11,5 14,13l86 260 1 5c0,4 -1,7 -5,11 -3,2 -6,3 -10,3 -2,0 -4,0 -6,-1 -3,-1 -5,-4 -7,-8l-21 -63 -105 0zm96 -30l-43 -127 -43 127 86 0zm259 -71l0 -102c0,-4 1,-7 4,-10 3,-3 6,-4 10,-4 4,0 7,1 10,4 3,2 4,6 4,10l0 261c0,4 -1,7 -4,11 -4,2 -7,3 -10,3 -4,0 -7,-1 -10,-3 -3,-2 -4,-6 -4,-11l0 -130 -116 0 0 130c0,5 -2,8 -4,11 -3,2 -7,3 -11,3 -4,0 -7,-1 -10,-3 -3,-3 -4,-6 -4,-11l0 -260c0,-4 1,-8 4,-11 3,-3 6,-4 10,-4 4,0 7,1 10,4 3,2 5,6 5,11l0 101 116 0zm117 145l27 -248c0,-9 5,-13 15,-13l86 0c10,0 15,5 15,14l0 247 14 0c10,0 15,4 15,14l0 29c0,4 -1,7 -4,10 -3,3 -7,4 -10,4 -4,0 -7,-1 -10,-3 -3,-3 -5,-6 -5,-11l0 -15 -145 0 0 15c0,4 -1,7 -4,10 -3,3 -7,4 -10,4 -4,0 -7,-1 -10,-3 -3,-3 -5,-6 -5,-11l0 -29c0,-10 5,-14 15,-14l16 0zm114 0l0 -232 -59 0 -26 232 85 0zm289 14c0,5 -1,8 -4,11 -2,2 -6,3 -10,3 -4,0 -7,-1 -10,-3 -3,-3 -4,-6 -4,-11l0 -205 -118 212c-2,3 -4,5 -6,7l-3 2c-1,0 -3,1 -5,1 -3,0 -6,-2 -10,-4 -2,-3 -3,-7 -3,-13l0 -260c0,-4 1,-8 4,-11 3,-3 6,-4 10,-4 4,0 7,1 10,4 3,2 5,6 5,11l0 204 117 -211c1,-3 3,-5 6,-7 3,-2 5,-3 8,-3 3,0 6,1 9,4 3,3 4,7 4,12l0 261zm89 -14l27 -248c0,-9 5,-13 15,-13l86 0c10,0 15,5 15,14l0 247 14 0c10,0 15,4 15,14l0 29c0,4 -1,7 -4,10 -3,3 -7,4 -10,4 -4,0 -7,-1 -10,-3 -3,-3 -5,-6 -5,-11l0 -15 -145 0 0 15c0,4 -1,7 -4,10 -3,3 -7,4 -10,4 -4,0 -7,-1 -10,-3 -3,-3 -5,-6 -5,-11l0 -29c0,-10 5,-14 15,-14l16 0zm114 0l0 -232 -59 0 -26 232 85 0zm166 -44l-20 63c-2,3 -3,5 -6,7 -2,1 -4,2 -8,2 -4,0 -7,-1 -10,-4 -3,-2 -5,-5 -5,-10l1 -5 88 -260c2,-8 7,-13 13,-13 6,0 11,5 14,13l86 260 1 5c0,4 -1,7 -4,11 -3,2 -7,3 -10,3 -2,0 -5,0 -7,-1 -2,-1 -5,-4 -7,-8l-21 -63 -105 0zm96 -30l-43 -127 -43 127 86 0zm129 -158l-58 0c-5,0 -8,-2 -11,-4 -3,-3 -4,-7 -4,-11 0,-3 1,-6 4,-9 2,-4 6,-5 11,-5l144 0c4,0 8,1 11,4 2,3 4,7 4,10 0,4 -1,7 -4,10 -2,3 -6,5 -11,5l-58 0 0 246c0,5 -1,8 -4,11 -2,2 -6,3 -10,3 -4,0 -7,-1 -10,-3 -3,-3 -4,-6 -4,-11l0 -246zm344 0l-58 0c-4,0 -7,-1 -10,-4 -3,-3 -4,-6 -4,-10 0,-4 1,-7 4,-10 2,-3 6,-5 10,-5l58 0c23,0 41,8 55,22 12,14 18,31 18,50 0,12 -2,23 -7,32 -5,10 -12,19 -21,27 8,6 14,14 20,25 5,10 8,21 8,32l0 29c0,20 -7,37 -21,51 -15,14 -32,21 -52,21l-58 0c-4,0 -7,-1 -10,-3 -3,-4 -4,-7 -4,-11 0,-3 1,-6 4,-10 2,-3 6,-4 11,-4l58 0c12,0 22,-5 30,-13 9,-9 13,-19 13,-31l0 -29c0,-12 -4,-22 -13,-30 -8,-9 -18,-13 -31,-13l-29 0c-4,0 -8,-2 -10,-4 -3,-3 -4,-7 -4,-11 0,-3 1,-6 4,-9 2,-4 6,-5 10,-5l29 0c13,0 24,-5 32,-14 7,-8 11,-18 11,-30 0,-12 -4,-22 -10,-30 -8,-8 -19,-13 -33,-13z"/>
    <path class="fil7 str3" d="M8055 11320l122 -121c3,-3 6,-4 10,-4 3,0 7,1 10,4 3,3 4,7 4,11 0,2 -1,6 -4,10l-86 85 89 158 2 7c0,4 -2,7 -5,10 -3,3 -6,4 -11,4 -4,0 -8,-2 -12,-7l-85 -151 -34 34 0 110c0,5 -2,8 -4,11 -3,2 -6,3 -11,3 -3,0 -7,-1 -10,-3 -3,-3 -4,-6 -4,-11l0 -261c0,-4 1,-7 4,-10 3,-3 7,-4 10,-4 4,0 7,1 10,3 3,3 5,6 5,11l0 111zm253 92l-21 63c-1,3 -3,5 -5,7 -2,1 -5,2 -8,2 -4,0 -7,-1 -10,-4 -3,-2 -5,-5 -5,-10l1 -5 87 -260c3,-8 8,-13 14,-13 6,0 11,5 14,13l86 260 1 5c0,4 -1,7 -5,11 -3,2 -6,3 -10,3 -2,0 -4,0 -6,-1 -3,-1 -5,-4 -7,-8l-21 -63 -105 0zm96 -30l-43 -127 -43 127 86 0zm259 -71l0 -102c0,-4 1,-7 4,-10 3,-3 6,-4 10,-4 4,0 7,1 10,4 3,2 4,6 4,10l0 261c0,4 -1,7 -4,11 -4,2 -7,3 -10,3 -4,0 -7,-1 -10,-3 -3,-2 -4,-6 -4,-11l0 -130 -116 0 0 130c0,5 -2,8 -4,11 -3,2 -7,3 -11,3 -4,0 -7,-1 -10,-3 -3,-3 -4,-6 -4,-11l0 -260c0,-4 1,-8 4,-11 3,-3 6,-4 10,-4 4,0 7,1 10,4 3,2 5,6 5,11l0 101 116 0zm117 145l27 -248c0,-9 5,-13 15,-13l86 0c10,0 15,5 15,14l0 247 14 0c10,0 15,4 15,14l0 29c0,4 -1,7 -4,10 -3,3 -7,4 -10,4 -4,0 -7,-1 -10,-3 -3,-3 -5,-6 -5,-11l0 -15 -145 0 0 15c0,4 -1,7 -4,10 -3,3 -7,4 -10,4 -4,0 -7,-1 -10,-3 -3,-3 -5,-6 -5,-11l0 -29c0,-10 5,-14 15,-14l16 0zm114 0l0 -232 -59 0 -26 232 85 0zm289 14c0,5 -1,8 -4,11 -2,2 -6,3 -10,3 -4,0 -7,-1 -10,-3 -3,-3 -4,-6 -4,-11l0 -205 -118 212c-2,3 -4,5 -6,7l-3 2c-1,0 -3,1 -5,1 -3,0 -6,-2 -10,-4 -2,-3 -3,-7 -3,-13l0 -260c0,-4 1,-8 4,-11 3,-3 6,-4 10,-4 4,0 7,1 10,4 3,2 5,6 5,11l0 204 117 -211c1,-3 3,-5 6,-7 3,-2 5,-3 8,-3 3,0 6,1 9,4 3,3 4,7 4,12l0 261zm89 -14l27 -248c0,-9 5,-13 15,-13l86 0c10,0 15,5 15,14l0 247 14 0c10,0 15,4 15,14l0 29c0,4 -1,7 -4,10 -3,3 -7,4 -10,4 -4,0 -7,-1 -10,-3 -3,-3 -5,-6 -5,-11l0 -15 -145 0 0 15c0,4 -1,7 -4,10 -3,3 -7,4 -10,4 -4,0 -7,-1 -10,-3 -3,-3 -5,-6 -5,-11l0 -29c0,-10 5,-14 15,-14l16 0zm114 0l0 -232 -59 0 -26 232 85 0zm166 -44l-20 63c-2,3 -3,5 -6,7 -2,1 -4,2 -8,2 -4,0 -7,-1 -10,-4 -3,-2 -5,-5 -5,-10l1 -5 88 -260c2,-8 7,-13 13,-13 6,0 11,5 14,13l86 260 1 5c0,4 -1,7 -4,11 -3,2 -7,3 -10,3 -2,0 -5,0 -7,-1 -2,-1 -5,-4 -7,-8l-21 -63 -105 0zm96 -30l-43 -127 -43 127 86 0zm129 -158l-58 0c-5,0 -8,-2 -11,-4 -3,-3 -4,-7 -4,-11 0,-3 1,-6 4,-9 2,-4 6,-5 11,-5l144 0c4,0 8,1 11,4 2,3 4,7 4,10 0,4 -1,7 -4,10 -2,3 -6,5 -11,5l-58 0 0 246c0,5 -1,8 -4,11 -2,2 -6,3 -10,3 -4,0 -7,-1 -10,-3 -3,-3 -4,-6 -4,-11l0 -246zm404 174l29 0c4,0 7,2 10,5 3,2 4,6 4,9 0,4 -1,7 -4,10 -2,3 -6,5 -10,5l-29 0 0 43c0,5 -2,8 -4,11 -3,2 -6,3 -11,3 -4,0 -7,-1 -10,-3 -3,-3 -4,-6 -4,-11l0 -43 -87 0c-10,0 -15,-4 -15,-12l0 -3 1 -4 58 -203c1,-2 2,-5 5,-7l3 -2c1,-1 3,-1 5,-1 4,0 8,1 11,4 3,3 4,6 4,10l0 5 -53 184 68 0 0 -43c0,-4 1,-8 4,-11 3,-3 6,-4 10,-4 4,0 7,1 10,4 3,2 5,6 5,11l0 43z"/>
    <path class="fil7 str3" d="M8055 12403l122 -121c3,-3 6,-4 10,-4 3,0 7,1 10,4 3,3 4,7 4,11 0,2 -1,6 -4,10l-86 85 89 158 2 7c0,4 -2,7 -5,10 -3,3 -6,4 -11,4 -4,0 -8,-2 -12,-7l-85 -151 -34 34 0 110c0,5 -2,8 -4,11 -3,2 -6,3 -11,3 -3,0 -7,-1 -10,-3 -3,-3 -4,-6 -4,-11l0 -261c0,-4 1,-7 4,-10 3,-3 7,-4 10,-4 4,0 7,1 10,3 3,3 5,6 5,11l0 111zm253 92l-21 63c-1,3 -3,5 -5,7 -2,1 -5,2 -8,2 -4,0 -7,-1 -10,-4 -3,-2 -5,-5 -5,-10l1 -5 87 -260c3,-8 8,-13 14,-13 6,0 11,5 14,13l86 260 1 5c0,4 -1,8 -5,11 -3,2 -6,3 -10,3 -2,0 -4,0 -6,-1 -3,-1 -5,-4 -7,-8l-21 -63 -105 0zm96 -30l-43 -127 -43 127 86 0zm259 -71l0 -102c0,-3 1,-7 4,-10 3,-3 6,-4 10,-4 4,0 7,1 10,4 3,2 4,6 4,10l0 261c0,4 -1,7 -4,11 -4,2 -7,3 -10,3 -4,0 -7,-1 -10,-3 -3,-2 -4,-6 -4,-11l0 -130 -116 0 0 130c0,5 -2,8 -4,11 -3,2 -7,3 -11,3 -4,0 -7,-1 -10,-3 -3,-3 -4,-6 -4,-11l0 -260c0,-4 1,-8 4,-11 3,-3 6,-4 10,-4 4,0 7,1 10,4 3,2 5,6 5,11l0 101 116 0zm117 145l27 -248c0,-9 5,-13 15,-13l86 0c10,0 15,5 15,14l0 247 14 0c10,0 15,5 15,14l0 29c0,4 -1,7 -4,10 -3,3 -7,4 -10,4 -4,0 -7,-1 -10,-3 -3,-3 -5,-6 -5,-11l0 -15 -145 0 0 15c0,4 -1,7 -4,10 -3,3 -7,4 -10,4 -4,0 -7,-1 -10,-3 -3,-3 -5,-6 -5,-11l0 -29c0,-9 5,-14 15,-14l16 0zm114 0l0 -232 -59 0 -26 232 85 0zm289 14c0,5 -1,8 -4,11 -2,2 -6,3 -10,3 -4,0 -7,-1 -10,-3 -3,-3 -4,-6 -4,-11l0 -205 -118 212c-2,3 -4,5 -6,7l-3 2c-1,0 -3,1 -5,1 -3,0 -6,-2 -10,-4 -2,-3 -3,-7 -3,-13l0 -260c0,-4 1,-8 4,-11 3,-3 6,-4 10,-4 4,0 7,1 10,4 3,2 5,6 5,11l0 204 117 -211c1,-3 3,-5 6,-7 3,-2 5,-3 8,-3 3,0 6,1 9,4 3,3 4,7 4,12l0 261zm89 -14l27 -248c0,-9 5,-13 15,-13l86 0c10,0 15,5 15,14l0 247 14 0c10,0 15,5 15,14l0 29c0,4 -1,7 -4,10 -3,3 -7,4 -10,4 -4,0 -7,-1 -10,-3 -3,-3 -5,-6 -5,-11l0 -15 -145 0 0 15c0,4 -1,7 -4,10 -3,3 -7,4 -10,4 -4,0 -7,-1 -10,-3 -3,-3 -5,-6 -5,-11l0 -29c0,-9 5,-14 15,-14l16 0zm114 0l0 -232 -59 0 -26 232 85 0zm166 -44l-20 63c-2,3 -3,5 -6,7 -2,1 -4,2 -8,2 -4,0 -7,-1 -10,-4 -3,-2 -5,-5 -5,-10l1 -5 88 -260c2,-8 7,-13 13,-13 6,0 11,5 14,13l86 260 1 5c0,4 -1,8 -4,11 -3,2 -7,3 -10,3 -2,0 -5,0 -7,-1 -2,-1 -5,-4 -7,-8l-21 -63 -105 0zm96 -30l-43 -127 -43 127 86 0zm129 -158l-58 0c-5,0 -8,-2 -11,-4 -3,-3 -4,-7 -4,-11 0,-3 1,-6 4,-9 2,-4 6,-5 11,-5l144 0c4,0 8,1 11,4 2,3 4,7 4,10 0,4 -1,7 -4,10 -2,3 -6,5 -11,5l-58 0 0 246c0,5 -1,8 -4,11 -2,2 -6,3 -10,3 -4,0 -7,-1 -10,-3 -3,-3 -4,-6 -4,-11l0 -246zm302 0l0 87 44 0c19,0 36,7 51,21 14,14 21,31 21,51l0 29c0,20 -7,37 -21,51 -14,14 -31,21 -51,21l-58 0c-5,0 -8,-1 -11,-4 -2,-2 -4,-6 -4,-10 0,-3 2,-7 4,-10 3,-3 6,-4 11,-4l58 0c12,0 22,-4 30,-13 9,-8 13,-18 13,-31l0 -29c0,-12 -4,-22 -12,-31 -9,-8 -19,-12 -31,-12l-58 0c-10,0 -15,-5 -15,-15l0 -116c0,-9 5,-14 15,-14l116 0c4,0 7,1 10,4 3,3 4,7 4,10 0,4 -1,7 -4,10 -2,3 -6,5 -10,5l-102 0z"/>
    <g>
     <path class="fil8" d="M12367 9099l-282 253c-2,-2 -5,-6 -7,-8 -3,-3 -5,-5 -8,-7 0,6 -5,9 -8,13l-45 60c-6,8 -8,10 -13,18 -2,5 -2,5 -6,5 4,9 8,17 11,26 3,5 7,13 10,20 3,6 6,14 9,21 7,14 13,29 20,41 6,-4 23,-30 30,-40 4,-4 4,-3 8,-7 4,-5 8,-11 13,-17 4,-6 8,-10 12,-16 6,-8 7,-8 16,-11 7,-3 1,-2 11,-9l12 -11c4,-3 4,0 7,-7 5,2 -2,1 3,3 2,-2 2,-3 4,-5 10,-11 5,0 17,-22 1,-2 2,-4 4,-5 3,-5 4,-9 10,-9l0 4 5 -8c5,-3 5,1 5,1l-5 7c5,-2 13,-7 16,-13l2 1c1,1 -1,1 1,1l7 -7c4,-3 6,-6 9,-10l5 -6c8,-6 4,-5 10,-6 -2,4 -2,4 -5,7 6,-1 11,-10 15,-15l13 -18c3,-3 4,-5 7,-8l16 -15c9,-4 4,-3 9,-7l2 4c0,1 0,1 0,2l20 -19c3,-6 13,-21 18,-22 3,-3 5,-7 7,-10l82 -115c10,-12 20,-28 30,-42l36 -52c17,-25 38,-53 55,-78l50 -71c4,-4 2,-2 4,-7 -7,4 -23,20 -31,27 -21,19 -204,185 -211,189z"/>
     <path class="fil9" d="M12045 9263c-5,2 -9,9 -15,11l55 57c5,-3 54,-48 63,-56l154 -138c6,-6 25,-24 31,-27 9,-10 20,-19 29,-27l209 -187c10,-10 20,-18 30,-27 5,-4 10,-12 18,-10 6,2 11,11 8,21 -1,6 -19,29 -23,35 -19,28 -43,59 -61,86l-36 51c-4,6 -8,12 -12,17 -4,5 -10,14 -12,16 -2,7 -5,8 -9,13 -3,5 -5,9 -8,13 -6,9 -12,16 -17,24l-35 48c-7,11 -66,93 -67,96 -6,7 -11,18 -16,26 -4,6 -4,3 -7,7 -3,3 -8,12 -11,17 -8,13 -5,6 -9,11 -1,1 -2,3 -3,5 -4,6 -7,11 -11,17 -3,5 -3,1 -12,15 -3,5 -7,13 -11,17 -10,10 -13,20 -23,32 -4,4 -8,11 -12,16l-11 16c-4,6 -7,11 -12,17 -3,5 -5,6 -11,16l-23 32c-7,11 -9,12 -12,17l-17 24c-5,6 -10,17 -17,24 -7,7 -12,20 -17,25 -14,17 -21,39 -33,28 -4,-4 -40,-86 -46,-98l-36 -78 -38 -83 -14 -31c-3,2 -12,9 -14,12 0,5 12,28 14,33l58 127c5,12 10,22 15,33 5,11 10,21 15,32 5,11 10,21 15,32 2,6 4,10 7,16 7,17 14,34 33,32 11,-1 19,-10 24,-19l38 -53c6,-10 31,-43 37,-54 8,-12 15,-19 19,-27 8,-12 13,-17 19,-26 12,-19 31,-43 41,-60l24 -33c4,-5 6,-8 10,-13l243 -347c2,-2 4,-4 5,-6l89 -127c14,-20 10,-55 -12,-65 -13,-6 -22,2 -30,9l-323 291c-11,9 -175,158 -186,166l-30 -32c-4,-3 -7,-7 -11,-9z"/>
     <path class="fil10" d="M12048 9541c3,8 6,14 9,22l30 63 59 -84c2,-4 5,-6 7,-10l158 -223c4,-7 10,-17 15,-22 3,-6 6,-10 10,-15 4,-6 7,-7 9,-14 -5,1 -15,16 -18,22l-20 19c0,-1 0,-1 0,-2l-2 -4c-5,4 0,3 -9,7l-16 15c-3,3 -4,5 -7,8l-13 18c-4,5 -9,14 -15,15 3,-3 3,-3 5,-7 -6,1 -2,0 -10,6l-5 6c-3,4 -5,7 -9,10l-7 7c-2,0 0,0 -1,-1l-2 -1c-3,6 -11,11 -16,13l5 -7c0,0 0,-4 -5,-1l-5 8 0 -4c-6,0 -7,4 -10,9 -2,1 -3,3 -4,5 -12,22 -7,11 -17,22 -2,2 -2,3 -4,5 -5,-2 2,-1 -3,-3 -3,7 -3,4 -7,7l-12 11c-10,7 -4,6 -11,9 -9,3 -10,3 -16,11 -4,6 -8,10 -12,16 -5,6 -9,12 -13,17 -4,4 -4,3 -8,7 -7,10 -24,36 -30,40z"/>
     <path class="fil11" d="M11918 9260c2,2 52,110 54,118l1 0c4,-3 25,-32 30,-39 5,-7 8,-13 14,-21 3,-4 13,-16 14,-20l-36 -39c-6,-3 -64,-63 -71,-71 -12,-12 -23,-23 -35,-35 -6,-6 -11,-12 -17,-18 -5,-4 -14,-14 -18,-16 2,8 12,27 16,36 5,12 11,23 16,35 5,10 31,64 32,70z"/>
     <path class="fil12" d="M11931 9363c2,-3 11,-10 14,-12l-20 -44c-4,-7 -7,-14 -10,-21 -2,-4 -9,-18 -10,-22 -8,-22 -68,-142 -68,-153 0,-11 9,-20 17,-14 4,3 13,13 17,17 24,24 46,46 69,69 8,8 65,65 67,70 5,2 8,6 12,10 4,5 6,7 11,11 6,-2 10,-9 15,-11 -2,-4 -67,-69 -73,-75 -8,-9 -16,-17 -25,-25 -19,-19 -56,-56 -73,-75 -24,-27 -47,-10 -52,18 -3,17 4,30 10,42 15,31 33,74 49,107l50 108z"/>
     <path class="fil13" d="M12333 9110c1,3 -1,2 8,-2l24 -10c3,0 1,-1 2,1 7,-4 190,-170 211,-189 8,-7 24,-23 31,-27 -2,5 0,3 -4,7l-50 71c-17,25 -38,53 -55,78l-36 52c8,-1 12,-6 19,-6 2,-2 8,-11 12,-16 4,-5 8,-11 12,-17l36 -51c18,-27 42,-58 61,-86 4,-6 22,-29 23,-35 3,-10 -2,-19 -8,-21 -8,-2 -13,6 -18,10 -10,9 -20,17 -30,27l-209 187c-9,8 -20,17 -29,27z"/>
     <path class="fil14" d="M12326 9287c-5,5 -11,15 -15,22l-158 223c-2,4 -5,6 -7,10l-59 84 -30 -63c-3,-8 -6,-14 -9,-22 -7,-12 -13,-27 -20,-41 -3,-7 -6,-15 -9,-21 -3,-7 -7,-15 -10,-20 -4,2 -8,4 -12,6l36 78c6,12 42,94 46,98 12,11 19,-11 33,-28 5,-5 10,-18 17,-25 7,-7 12,-18 17,-24l17 -24c3,-5 5,-6 12,-17l23 -32c6,-10 8,-11 11,-16 5,-6 8,-11 12,-17l11 -16c4,-5 8,-12 12,-16 10,-12 13,-22 23,-32 4,-4 8,-12 11,-17 9,-14 9,-10 12,-15 4,-6 7,-11 11,-17 1,-2 2,-4 3,-5 4,-5 1,2 9,-11 3,-5 8,-14 11,-17 3,-4 3,-1 7,-7 5,-8 10,-19 16,-26 -7,2 -13,6 -21,8z"/>
     <path class="fil15" d="M12333 9110c-6,3 -25,21 -31,27l-154 138c-9,8 -58,53 -63,56l-55 -57c-5,-4 -7,-6 -11,-11 -4,-4 -7,-8 -12,-10 -2,3 -10,3 -12,6l36 39c6,3 14,13 20,19 5,5 15,15 19,20 3,2 5,4 8,7 2,2 5,6 7,8l282 -253c-1,-2 1,-1 -2,-1l-24 10c-9,4 -7,5 -8,2z"/>
     <path class="fil16" d="M11973 9378c2,8 9,20 13,28 4,9 9,18 12,27 4,0 4,0 6,-5 5,-8 7,-10 13,-18l45 -60c3,-4 8,-7 8,-13 -4,-5 -14,-15 -19,-20 -6,-6 -14,-16 -20,-19 -1,4 -11,16 -14,20 -6,8 -9,14 -14,21 -5,7 -26,36 -30,39z"/>
     <path class="fil13" d="M11905 9264c6,0 7,-3 13,-4 -1,-6 -27,-60 -32,-70 -5,-12 -11,-23 -16,-35 -4,-9 -14,-28 -16,-36 4,2 13,12 18,16 6,6 11,12 17,18 12,12 23,23 35,35 7,8 65,68 71,71 2,-3 10,-3 12,-6 -2,-5 -59,-62 -67,-70 -23,-23 -45,-45 -69,-69 -4,-4 -13,-14 -17,-17 -8,-6 -17,3 -17,14 0,11 60,131 68,153z"/>
     <path class="fil15" d="M12464 9091c-10,14 -20,30 -30,42l-82 115c-2,3 -4,7 -7,10 -2,7 -5,8 -9,14 -4,5 -7,9 -10,15 8,-2 14,-6 21,-8 1,-3 60,-85 67,-96l35 -48c5,-8 11,-15 17,-24 3,-4 5,-8 8,-13 4,-5 7,-6 9,-13 -7,0 -11,5 -19,6z"/>
     <path class="fil15" d="M11905 9264c1,4 8,18 10,22 3,7 6,14 10,21l20 44 14 31c6,-1 7,-4 13,-4 -2,-8 -52,-116 -54,-118 -6,1 -7,4 -13,4z"/>
     <path class="fil17" d="M11959 9382l38 83c4,-2 8,-4 12,-6 -3,-9 -7,-17 -11,-26 -3,-9 -8,-18 -12,-27 -4,-8 -11,-20 -13,-28l-1 0c-6,0 -7,3 -13,4z"/>
    </g>
   </g>
   <g>
    <path class="fil18" d="M19664 3964l-19226 0 0 -120 19226 0 67 60 -67 60zm0 -120l67 0 0 60 -67 -60zm-66 11907l0 -11847 133 0 0 11847 -67 60 -66 -60zm133 0l0 60 -67 0 67 -60zm-19293 -61l19226 0 0 121 -19226 0 -66 -60 66 -61zm0 121l-66 0 0 -60 66 60zm66 -11907l0 11847 -132 0 0 -11847 66 -60 66 60zm-132 0l0 -60 66 0 -66 60z"/>
   </g>
   <g>
    <path class="fil19" d="M503 5283l19092 0 0 -1364 -19092 0 0 1364z"/>
    <path class="fil20 str4" d="M6418 4580c0,7 -3,14 -7,18 -5,4 -10,6 -17,6 -7,0 -12,-2 -17,-6 -5,-4 -7,-10 -7,-18l0 -341 -196 353c-3,5 -7,8 -11,11l-5 3c-2,1 -4,2 -8,2 -4,0 -10,-2 -16,-7 -4,-5 -6,-12 -6,-21l0 -434c0,-7 3,-13 7,-18 5,-4 11,-6 17,-6 6,0 12,2 17,6 5,4 7,10 7,18l0 341 196 -353c2,-4 6,-8 10,-11 5,-4 9,-5 13,-5 6,0 11,2 15,8 5,4 8,11 8,20l0 434zm337 -265l0 -170c0,-6 3,-12 8,-16 4,-5 10,-8 16,-8 6,0 12,2 17,6 5,4 7,11 7,19l0 433c0,7 -2,13 -7,18 -6,5 -11,7 -17,7 -6,0 -12,-2 -17,-6 -4,-4 -7,-10 -7,-18l0 -217 -193 0 0 217c0,7 -2,14 -7,18 -4,4 -10,6 -17,6 -6,0 -12,-2 -17,-6 -5,-4 -7,-10 -7,-18l0 -434c0,-7 2,-13 7,-18 5,-4 11,-6 17,-6 6,0 12,2 17,6 5,4 7,10 7,18l0 169 193 0zm362 -74l0 219 24 0c26,0 49,-9 68,-28 19,-19 28,-42 28,-69l0 -24c0,-26 -9,-49 -28,-68 -18,-20 -41,-30 -68,-30l-24 0zm-48 219l0 -219 -25 0c-26,0 -48,10 -68,29 -19,19 -28,41 -28,69l0 24c0,27 9,49 28,68 19,20 42,29 68,29l25 0zm0 48l-25 0c-40,0 -74,-14 -102,-42 -28,-28 -42,-63 -42,-103l0 -24c0,-40 14,-74 42,-103 28,-28 63,-43 102,-43l25 0 0 -48c0,-6 2,-12 7,-17 5,-5 10,-7 17,-7 6,0 11,2 16,6 5,4 8,10 8,18l0 48 24 0c39,0 74,15 102,43 13,14 23,29 31,46 7,18 11,36 11,57l0 24c0,39 -14,73 -42,102 -28,29 -62,43 -102,43l-24 0 0 72c0,8 -3,14 -7,18 -5,4 -10,6 -17,6 -7,0 -12,-2 -17,-6 -5,-4 -7,-10 -7,-18l0 -72zm603 -1c0,27 -10,50 -29,69 -18,19 -41,28 -68,28l-96 0c-27,0 -49,-9 -68,-28 -19,-19 -29,-42 -29,-69l0 -289c0,-27 10,-50 28,-68 19,-19 42,-29 69,-29l96 0c27,0 50,10 68,29 19,19 29,41 29,68l0 289zm-48 1l0 -290c0,-14 -5,-25 -14,-35 -9,-9 -21,-14 -35,-14l-96 0c-14,0 -25,5 -35,14 -5,5 -8,10 -10,16 -3,6 -4,12 -4,19l0 290c0,13 5,25 14,34 5,4 10,8 16,11 6,2 13,3 19,3l96 0c14,0 25,-4 34,-13 10,-9 15,-21 15,-35zm231 -145l145 0c13,0 24,-5 34,-14 9,-9 14,-20 14,-35l0 -96c0,-14 -5,-25 -14,-35 -9,-9 -20,-14 -34,-14l-145 0 0 194zm0 48l0 169c0,7 -3,14 -7,18 -5,4 -10,6 -17,6 -7,0 -12,-2 -17,-6 -5,-4 -7,-10 -7,-18l0 -434c0,-17 8,-25 24,-25l169 0c26,0 49,10 68,29 19,18 28,41 28,68l0 96c0,27 -9,49 -28,68 -19,19 -42,29 -69,29l-144 0zm675 169c0,7 -2,14 -6,18 -5,4 -10,6 -18,6 -5,0 -10,-2 -16,-6 -5,-4 -8,-10 -8,-18l0 -345 -99 167c-6,11 -13,16 -21,16 -7,0 -14,-5 -21,-16l-101 -167 0 345c0,7 -2,14 -6,18 -5,4 -10,6 -18,6 -6,0 -12,-2 -16,-6 -5,-4 -8,-10 -8,-18l0 -432c0,-9 3,-16 7,-21 5,-5 10,-7 16,-7 4,0 8,1 11,3 4,3 7,7 11,13l125 206 124 -206c5,-11 13,-16 23,-16 5,0 10,2 15,8 4,5 6,12 6,20l0 432zm181 -97l-35 104c-1,6 -4,10 -9,13 -3,2 -7,3 -13,4 -6,0 -12,-2 -17,-7 -5,-4 -7,-10 -7,-16l1 -9 145 -434c5,-14 13,-21 23,-21 10,0 18,7 23,21l144 434 2 9c0,6 -3,11 -8,16 -5,5 -11,7 -17,7 -3,0 -7,-1 -11,-2 -4,-2 -8,-7 -11,-15l-35 -104 -175 0zm159 -49l-71 -212 -71 212 142 0zm432 122l0 -410c0,-7 2,-13 7,-18 5,-4 11,-7 17,-7 6,0 12,2 16,6 5,5 8,11 8,19l0 410 24 0c16,0 25,8 25,24l0 73c0,6 -3,12 -8,17 -5,4 -10,7 -16,7 -6,0 -11,-2 -17,-6 -5,-4 -7,-10 -7,-19l0 -48 -266 0c-16,0 -24,-8 -24,-24l0 -434c0,-7 2,-13 7,-18 5,-4 10,-7 17,-7 6,0 11,2 16,6 5,5 8,11 8,19l0 410 193 0zm482 24c0,7 -2,14 -7,18 -4,4 -10,6 -17,6 -6,0 -12,-2 -17,-6 -5,-4 -7,-10 -7,-18l0 -341 -196 353c-3,5 -6,8 -11,11l-5 3c-1,1 -4,2 -7,2 -5,0 -10,-2 -16,-7 -4,-5 -6,-12 -6,-21l0 -434c0,-7 2,-13 7,-18 5,-4 10,-6 17,-6 6,0 11,2 16,6 5,4 8,10 8,18l0 341 195 -353c3,-4 6,-8 11,-11 4,-4 8,-5 13,-5 5,0 10,2 15,8 4,4 7,11 7,20l0 434zm386 -73c0,27 -10,50 -29,69 -18,19 -41,28 -68,28l-96 0c-26,0 -49,-9 -68,-28 -19,-19 -29,-42 -29,-69l0 -289c0,-27 10,-50 29,-68 18,-19 41,-29 68,-29l96 0c27,0 50,10 69,29 18,19 28,41 28,68l0 289zm-48 1l0 -290c0,-14 -5,-25 -14,-35 -9,-9 -21,-14 -35,-14l-96 0c-14,0 -25,5 -35,14 -4,5 -8,10 -10,16 -2,6 -4,12 -4,19l0 290c0,13 5,25 14,34 5,4 10,8 16,11 7,2 13,3 19,3l96 0c14,0 25,-4 35,-13 9,-9 14,-21 14,-35zm424 -193l0 -170c0,-6 2,-12 7,-16 5,-5 11,-8 17,-8 6,0 12,2 17,6 5,4 7,11 7,19l0 433c0,7 -2,13 -7,18 -6,5 -12,7 -17,7 -6,0 -12,-2 -17,-6 -5,-4 -7,-10 -7,-18l0 -217 -193 0 0 217c0,7 -2,14 -7,18 -4,4 -10,6 -17,6 -7,0 -12,-2 -17,-6 -5,-4 -7,-10 -7,-18l0 -434c0,-7 2,-13 7,-18 5,-4 10,-6 17,-6 6,0 12,2 16,6 5,4 8,10 8,18l0 169 193 0zm386 0l0 -170c0,-6 2,-12 7,-16 5,-5 11,-8 17,-8 6,0 12,2 17,6 4,4 7,11 7,19l0 433c0,7 -3,13 -8,18 -5,5 -11,7 -16,7 -6,0 -12,-2 -17,-6 -5,-4 -7,-10 -7,-18l0 -217 -193 0 0 217c0,7 -3,14 -7,18 -5,4 -10,6 -17,6 -7,0 -12,-2 -17,-6 -5,-4 -7,-10 -7,-18l0 -434c0,-7 2,-13 7,-18 5,-4 10,-6 17,-6 6,0 11,2 16,6 5,4 8,10 8,18l0 169 193 0zm482 265c0,7 -2,14 -6,18 -5,4 -11,6 -18,6 -6,0 -12,-2 -16,-6 -5,-4 -8,-10 -8,-18l0 -434c0,-7 3,-13 8,-18 4,-4 10,-7 16,-7 6,0 12,2 17,6 5,4 7,11 7,19l0 434zm-290 -217l0 193 97 0c14,0 25,-4 35,-13 9,-9 14,-21 14,-35l0 -97c0,-14 -5,-25 -14,-34 -9,-10 -21,-14 -35,-14l-97 0zm0 -48l97 0c26,0 49,9 68,28 19,19 29,41 29,68l0 97c0,26 -10,49 -28,68 -19,19 -42,28 -69,28l-120 0c-17,0 -25,-8 -25,-24l0 -434c0,-7 3,-13 8,-18 4,-4 10,-7 16,-7 7,0 12,2 17,6 5,5 7,11 7,19l0 169zm579 -242l-96 0c-7,0 -13,-2 -18,-6 -4,-5 -6,-11 -6,-18 0,-5 2,-10 6,-16 4,-5 10,-8 18,-8l96 0c7,0 13,3 18,8 4,5 7,10 7,16 0,6 -2,11 -7,17 -4,5 -10,7 -18,7zm97 507c0,7 -2,14 -7,18 -4,4 -10,6 -17,6 -7,0 -12,-2 -17,-6 -5,-4 -7,-10 -7,-18l0 -341 -196 353c-3,5 -6,8 -11,11l-5 3c-2,1 -4,2 -7,2 -5,0 -10,-2 -16,-7 -4,-5 -7,-12 -7,-21l0 -434c0,-7 3,-13 8,-18 4,-4 10,-6 16,-6 7,0 12,2 17,6 5,4 7,10 7,18l0 341 196 -353c3,-3 6,-7 11,-11 4,-3 8,-5 13,-5 5,0 10,3 14,8 5,5 8,11 8,20l0 434zm603 24l-121 0c-26,0 -49,-9 -68,-28 -19,-19 -28,-42 -28,-69l0 -289c0,-27 9,-50 28,-68 19,-19 41,-29 68,-29l121 0c7,0 12,3 17,8 5,5 7,10 7,16 0,6 -2,11 -6,17 -4,5 -10,7 -18,7l-121 0c-14,0 -25,5 -35,14 -4,5 -8,10 -10,16 -2,6 -3,12 -3,19l0 290c0,13 4,25 13,34 5,4 11,8 16,11 7,2 13,3 19,3l121 0c7,0 12,3 17,7 5,5 7,11 7,17 0,6 -2,11 -6,16 -4,5 -10,8 -18,8zm241 -435l-97 0c-7,0 -13,-2 -17,-6 -5,-5 -7,-11 -7,-18 0,-5 2,-10 6,-16 4,-5 10,-8 18,-8l241 0c7,0 13,3 18,8 4,5 7,10 7,16 0,6 -2,11 -6,17 -4,5 -11,7 -19,7l-96 0 0 411c0,7 -2,14 -7,18 -4,4 -10,6 -17,6 -6,0 -12,-2 -17,-6 -5,-4 -7,-10 -7,-18l0 -411zm313 146l121 0c7,0 13,2 18,7 4,5 7,11 7,17 0,6 -2,11 -6,16 -4,5 -11,8 -19,8l-121 0 0 193 170 0c6,0 12,3 17,7 5,5 7,11 7,17 0,6 -2,11 -6,16 -4,5 -10,8 -18,8l-194 0c-16,0 -24,-8 -24,-23l0 -435c0,-17 8,-25 24,-25l194 0c6,0 12,3 17,8 5,5 7,10 7,16 0,6 -2,12 -6,17 -4,5 -10,7 -18,7l-170 0 0 146zm531 0l0 -170c0,-6 2,-12 7,-16 5,-5 11,-8 17,-8 6,0 12,2 17,6 5,4 7,11 7,19l0 433c0,7 -2,13 -7,18 -6,5 -12,7 -17,7 -6,0 -12,-2 -17,-6 -5,-4 -7,-10 -7,-18l0 -217 -193 0 0 217c0,7 -3,14 -7,18 -4,4 -10,6 -17,6 -7,0 -12,-2 -17,-6 -5,-4 -7,-10 -7,-18l0 -434c0,-7 2,-13 7,-18 5,-4 10,-6 17,-6 6,0 12,2 16,6 5,4 8,10 8,18l0 169 193 0zm195 241l46 -413c0,-15 8,-22 24,-22l145 0c16,0 24,8 24,25l0 410 24 0c16,0 25,8 25,24l0 48c0,7 -3,12 -8,17 -5,5 -10,7 -16,7 -6,0 -11,-2 -17,-6 -5,-4 -7,-10 -7,-18l0 -24 -242 0 0 24c0,7 -3,12 -8,17 -5,5 -10,7 -16,7 -6,0 -11,-2 -17,-6 -5,-4 -7,-10 -7,-18l0 -48c0,-16 8,-24 24,-24l26 0zm191 0l0 -387 -99 0 -44 387 143 0z"/>
    <g>
     <path class="fil20 str4" d="M1533 5118l-78 0c-20,0 -38,-8 -54,-23 -15,-15 -23,-33 -23,-54l0 -174c0,-5 2,-10 6,-15 4,-3 8,-5 13,-5 5,0 10,2 14,5 4,3 6,8 6,15l0 174c0,11 3,20 11,27 3,4 8,6 12,9 6,1 11,2 15,2l78 0 0 -212c0,-5 2,-10 6,-15 3,-3 8,-5 13,-5 5,0 9,2 13,5 4,3 6,8 6,15l0 289c0,21 -7,39 -22,55 -15,15 -33,22 -55,22l-77 0c-5,0 -10,-1 -15,-5 -3,-4 -5,-9 -5,-14 0,-5 2,-9 5,-13 4,-4 8,-6 15,-6l77 0c11,0 20,-4 28,-11 7,-7 11,-16 11,-28l0 -38zm270 -155l0 -96c0,-6 2,-10 6,-15 3,-3 8,-5 13,-5 5,0 9,2 13,5 4,3 6,8 6,15l0 231c0,6 -2,11 -5,15 -4,3 -8,5 -14,5 -5,0 -10,-2 -13,-5 -4,-3 -6,-8 -6,-15l0 -97 -77 0c-21,0 -39,-7 -55,-22 -15,-15 -23,-33 -23,-55l0 -57c0,-6 2,-10 6,-15 4,-3 8,-5 13,-5 5,0 10,2 14,5 4,3 6,8 6,15l0 58c0,10 3,20 11,27 4,3 8,6 12,8 6,2 11,3 15,3l78 0zm270 78l0 -155 -78 0c-10,0 -20,3 -27,11 -4,4 -7,8 -9,12 -1,5 -2,10 -2,16l0 116c0,11 3,20 11,27 4,4 8,6 12,9 6,1 11,2 15,2l39 0c11,0 20,-3 28,-10 7,-8 11,-17 11,-28zm19 51c-6,7 -15,14 -26,18 -10,5 -21,8 -32,8l-38 0c-21,0 -39,-8 -55,-23 -15,-15 -23,-33 -23,-54l0 -116c0,-22 8,-40 23,-55 15,-15 33,-23 55,-23l96 0c13,0 19,7 19,20l0 173c0,8 3,16 8,24 4,7 11,13 19,16 8,4 12,10 12,18 0,6 -2,10 -5,14 -4,4 -8,6 -14,6 -3,0 -6,-1 -8,-2 -13,-5 -23,-13 -31,-24zm232 26l-58 0c-21,0 -39,-8 -55,-23 -15,-15 -23,-33 -23,-54l0 -116c0,-22 8,-40 23,-55 15,-15 33,-23 55,-23l58 0c5,0 10,2 13,6 4,4 6,9 6,14 0,4 -2,8 -5,12 -3,5 -8,7 -14,7l-58 0c-11,0 -21,3 -28,11 -4,4 -7,8 -8,12 -2,5 -3,10 -3,16l0 116c0,11 3,20 11,27 4,4 8,6 12,9 6,1 11,2 16,2l58 0c5,0 9,2 13,6 4,4 6,9 6,14 0,4 -2,8 -5,12 -3,5 -8,7 -14,7zm212 -232l-78 0 0 212c0,6 -1,11 -5,15 -4,3 -8,5 -14,5 -5,0 -9,-2 -13,-5 -4,-3 -6,-8 -6,-15l0 -231c0,-13 6,-20 19,-20l174 0c21,0 39,8 54,23 15,15 23,33 23,55l0 173c0,6 -2,11 -6,15 -3,3 -8,5 -13,5 -6,0 -10,-2 -14,-5 -4,-3 -6,-8 -6,-15l0 -174c0,-10 -3,-20 -11,-27 -7,-7 -16,-11 -27,-11l-39 0 0 212c0,6 -2,11 -5,15 -4,3 -9,5 -14,5 -5,0 -10,-2 -14,-5 -4,-3 -5,-8 -5,-15l0 -212zm309 105l-43 46 0 61c0,6 -2,11 -6,15 -3,3 -8,5 -14,5 -5,0 -9,-2 -13,-5 -4,-3 -6,-8 -6,-15l0 -231c0,-5 2,-10 6,-14 4,-4 8,-5 13,-5 5,0 10,1 14,4 4,4 6,9 6,15l0 114 122 -128c3,-4 8,-6 12,-6 5,0 9,2 14,6 4,3 6,8 6,14 0,5 -2,10 -7,15l-77 81 79 123c3,5 5,10 5,13 0,5 -2,10 -7,14 -3,3 -8,5 -13,5 -5,0 -10,-2 -14,-7l-77 -120zm366 42c0,23 -9,43 -25,60 -16,16 -37,25 -60,25l-23 0c-23,0 -43,-8 -60,-25 -17,-16 -25,-36 -25,-60l0 -101c0,-22 8,-42 24,-59 17,-17 37,-26 61,-26l23 0c23,0 43,9 59,25 17,16 26,37 26,60l0 101zm-39 0l0 -101c0,-12 -4,-23 -13,-33 -9,-9 -20,-13 -33,-13l-24 0c-12,0 -23,4 -32,13 -9,9 -14,20 -14,33l0 101c0,13 5,24 14,33 9,9 20,13 32,13l24 0c12,0 23,-4 32,-13 10,-9 14,-20 14,-33zm270 8l0 -116c0,-11 -3,-20 -11,-28 -7,-7 -16,-11 -27,-11l-39 0c-11,0 -20,4 -28,11 -3,4 -6,8 -8,13 -2,5 -3,10 -3,15l0 116c0,11 4,20 11,27 4,4 8,6 13,9 5,1 10,2 15,2l39 0c10,0 19,-3 27,-10 8,-8 11,-17 11,-28zm-116 -180l16 -10 23 -16c7,-6 13,-11 16,-15 5,-6 7,-12 7,-19 0,-8 -3,-16 -9,-22 -7,-5 -14,-8 -22,-8 -8,0 -16,3 -22,8 -6,5 -9,13 -9,22l0 60zm78 -12c24,0 43,7 57,22 13,14 20,32 20,54l0 116c0,21 -8,39 -23,54 -15,15 -33,23 -54,23l-39 0c-21,0 -39,-8 -54,-23 -16,-14 -23,-33 -23,-54l0 -240c0,-21 7,-38 21,-52 14,-11 30,-17 48,-17 18,0 34,6 48,18 15,12 22,29 22,51 0,13 -2,22 -6,28 -3,7 -9,13 -17,20zm347 184c0,23 -8,43 -25,60 -16,16 -36,25 -60,25l-23 0c-23,0 -43,-8 -60,-25 -17,-16 -25,-36 -25,-60l0 -101c0,-22 8,-42 25,-59 16,-17 36,-26 60,-26l23 0c23,0 43,9 60,25 16,16 25,37 25,60l0 101zm-39 0l0 -101c0,-12 -4,-23 -13,-33 -9,-9 -20,-13 -33,-13l-23 0c-13,0 -24,4 -33,13 -9,9 -14,20 -14,33l0 101c0,13 5,24 14,33 9,9 20,13 33,13l23 0c12,0 23,-4 33,-13 9,-9 13,-20 13,-33zm251 -263l-77 0c-6,0 -11,-2 -15,-5 -3,-4 -5,-9 -5,-14 0,-5 2,-9 5,-13 4,-4 8,-6 15,-6l77 0c5,0 10,2 14,6 3,3 5,8 5,13 0,4 -1,9 -5,13 -3,4 -8,6 -14,6zm58 328c0,13 -6,20 -19,20l-97 0c-21,0 -39,-8 -54,-23 -15,-15 -23,-33 -23,-54l0 -174c0,-5 2,-10 6,-14 3,-4 8,-5 13,-5 5,0 9,1 13,4 4,4 6,9 6,15l0 174c0,11 4,20 11,27 4,4 8,6 13,9 5,1 10,2 15,2l78 0 0 -212c0,-5 1,-10 5,-14 4,-4 9,-5 14,-5 5,0 9,1 13,4 4,4 6,9 6,15l0 231zm502 0c0,13 -7,20 -20,20l-96 0c-21,0 -39,-8 -54,-23 -16,-15 -24,-33 -24,-54l0 -174c0,-5 2,-10 6,-15 4,-3 9,-5 14,-5 5,0 9,2 13,5 4,3 6,8 6,15l0 174c0,11 4,20 11,27 4,4 8,6 12,9 6,1 11,2 16,2l77 0 0 -212c0,-5 2,-10 6,-15 4,-3 8,-5 13,-5 5,0 10,2 14,5 4,3 6,8 6,15l0 231zm178 -97l-24 0c-6,0 -11,-1 -14,-5 -4,-4 -5,-8 -5,-14 0,-4 1,-9 5,-13 3,-4 8,-6 14,-6l19 0c12,0 22,-4 28,-12 8,-7 11,-16 11,-27 0,-10 -3,-19 -9,-26 -3,-4 -8,-7 -13,-9 -5,-2 -10,-3 -17,-3l-19 0c-18,0 -33,5 -46,16 -4,2 -8,3 -12,4 -4,0 -9,-2 -14,-6 -3,-4 -5,-9 -5,-14 0,-6 2,-11 8,-15 19,-16 43,-24 69,-24l19 0c25,0 44,8 58,24 13,15 19,33 19,54 0,6 0,11 -1,16 -1,5 -2,10 -5,15 -3,9 -9,18 -18,27 7,6 14,15 18,26l5 15c1,5 1,11 1,17 0,21 -6,39 -19,53 -14,16 -33,24 -58,24l-19 0c-26,0 -49,-8 -69,-23 -6,-4 -8,-9 -8,-16 0,-4 2,-8 5,-13 4,-5 9,-7 14,-7 3,0 7,2 12,5 13,10 29,15 46,15l19 0c12,0 21,-4 28,-11 7,-8 11,-18 11,-28 0,-10 -3,-18 -8,-25 -6,-7 -14,-11 -26,-14zm304 40l0 -116c0,-11 -4,-21 -11,-28 -7,-7 -16,-11 -28,-11l-39 0c-10,0 -20,3 -27,11 -4,4 -7,8 -9,12 -1,5 -2,10 -2,16l0 116c0,11 3,20 11,27 4,4 8,6 12,9 6,1 11,2 15,2l39 0c11,0 20,-3 28,-10 7,-8 11,-17 11,-28zm-62 -194l-87 -82c-5,-5 -7,-11 -7,-16 0,-4 2,-8 5,-12 3,-3 9,-5 16,-5l154 0c5,0 10,2 14,6 4,3 5,8 5,13 0,4 -1,9 -4,13 -4,4 -9,6 -15,6l-106 0 102 98 5 6c12,15 18,31 18,51l0 116c0,21 -7,39 -22,54 -15,15 -33,23 -55,23l-38 0c-21,0 -39,-8 -55,-23 -15,-15 -23,-33 -23,-54l0 -116c0,-22 8,-40 23,-55 15,-15 33,-23 54,-23l16 0zm370 251c0,13 -6,20 -19,20l-96 0c-21,0 -39,-8 -55,-23 -15,-15 -23,-33 -23,-54l0 -174c0,-5 2,-10 6,-15 4,-3 9,-5 14,-5 5,0 9,2 13,5 4,3 6,8 6,15l0 174c0,11 3,20 11,27 4,4 8,6 12,9 6,1 11,2 16,2l77 0 0 -212c0,-5 2,-10 6,-15 4,-3 8,-5 13,-5 5,0 10,2 14,5 3,3 5,8 5,15l0 231zm116 -19l77 0c11,0 20,-3 28,-10 7,-8 11,-17 11,-28l0 -116c0,-11 -4,-21 -11,-28 -7,-7 -16,-11 -28,-11l-77 0 0 193zm0 39l0 96c0,6 -2,10 -6,14 -4,4 -8,5 -13,5 -5,0 -9,-1 -13,-4 -4,-4 -6,-8 -6,-15l0 -347c0,-13 6,-20 19,-20l96 0c21,0 39,8 55,23 15,15 23,33 23,55l0 116c0,21 -8,39 -23,54 -15,15 -33,23 -55,23l-77 0zm386 -77l0 -155 -77 0c-11,0 -20,3 -28,11 -4,4 -6,8 -8,12 -2,5 -3,10 -3,16l0 116c0,11 4,20 11,27 4,4 8,6 12,9 6,1 11,2 16,2l38 0c11,0 20,-3 28,-10 7,-8 11,-17 11,-28zm19 51c-6,7 -15,14 -25,18 -11,5 -22,8 -33,8l-38 0c-21,0 -39,-8 -54,-23 -16,-15 -23,-33 -23,-54l0 -116c0,-22 7,-40 22,-55 15,-15 33,-23 55,-23l96 0c13,0 20,7 20,20l0 173c0,8 2,16 7,24 4,7 11,13 19,16 8,4 12,10 12,18 0,6 -1,10 -5,14 -3,4 -8,6 -14,6 -3,0 -5,-1 -8,-2 -12,-5 -23,-13 -31,-24zm212 -206l-77 0 0 212c0,6 -2,11 -5,15 -4,3 -8,5 -14,5 -5,0 -10,-2 -14,-5 -3,-3 -5,-8 -5,-15l0 -231c0,-13 6,-20 19,-20l173 0c21,0 39,8 55,23 15,15 22,33 22,55l0 173c0,6 -1,11 -5,15 -3,3 -8,5 -14,5 -5,0 -9,-2 -13,-5 -4,-3 -6,-8 -6,-15l0 -174c0,-10 -4,-20 -11,-27 -7,-7 -16,-11 -28,-11l-38 0 0 212c0,6 -2,11 -6,15 -3,3 -8,5 -13,5 -6,0 -10,-2 -14,-5 -4,-3 -6,-8 -6,-15l0 -212zm270 78l117 0 0 -39c0,-11 -4,-20 -11,-28 -8,-7 -17,-11 -28,-11l-39 0c-11,0 -20,3 -28,11 -3,4 -6,8 -8,13 -2,4 -3,9 -3,15l0 39zm0 38l0 39c0,11 4,20 11,27 4,4 8,6 13,9 5,1 10,2 15,2l97 0c5,0 10,2 13,6 4,4 6,9 6,14 0,4 -2,8 -5,12 -3,5 -8,7 -14,7l-97 0c-21,0 -39,-8 -54,-23 -15,-15 -23,-33 -23,-54l0 -116c0,-21 7,-39 22,-55 15,-15 33,-23 55,-23l39 0c21,0 39,8 54,23 15,15 23,33 23,55l0 58c0,13 -6,19 -19,19l-136 0zm425 96c0,6 -2,11 -5,15 -4,3 -9,5 -14,5 -5,0 -10,-2 -14,-5 -3,-3 -5,-8 -5,-15l0 -212 -45 0 -72 218c-2,5 -4,8 -7,11 -1,0 -5,1 -11,3 -5,0 -9,-2 -13,-6 -4,-3 -7,-7 -7,-13l2 -7 76 -231c3,-9 9,-14 18,-14l78 0c13,0 19,7 19,20l0 231zm115 -97l0 78 78 0c12,0 21,-4 28,-11 7,-8 11,-17 11,-28 0,-10 -3,-20 -10,-27 -3,-3 -7,-6 -12,-8 -5,-2 -11,-4 -17,-4l-78 0zm0 -38l78 0c24,0 43,8 58,24 13,15 19,32 19,53 0,21 -6,39 -19,53 -14,17 -34,25 -58,25l-97 0c-13,0 -19,-7 -19,-20l0 -231c0,-5 2,-10 6,-15 4,-3 8,-5 13,-5 5,0 10,2 14,5 3,3 5,8 5,15l0 96zm387 0l0 -96c0,-6 2,-10 6,-15 3,-3 8,-5 13,-5 5,0 9,2 13,5 4,3 6,8 6,15l0 231c0,6 -2,11 -5,15 -4,3 -8,5 -14,5 -5,0 -10,-2 -13,-5 -4,-3 -6,-8 -6,-15l0 -97 -116 0 0 97c0,6 -2,11 -6,15 -3,3 -8,5 -14,5 -5,0 -9,-2 -13,-5 -4,-3 -6,-8 -6,-15l0 -231c0,-5 2,-10 6,-15 4,-3 8,-5 13,-5 5,0 10,2 14,5 4,3 6,8 6,15l0 96 116 0zm308 70c0,23 -8,43 -24,60 -17,16 -37,25 -61,25l-23 0c-23,0 -43,-8 -60,-25 -16,-16 -25,-36 -25,-60l0 -101c0,-22 8,-42 25,-59 17,-17 37,-26 60,-26l23 0c23,0 43,9 60,25 17,16 25,37 25,60l0 101zm-38 0l0 -101c0,-12 -5,-23 -14,-33 -9,-9 -20,-13 -33,-13l-23 0c-13,0 -24,4 -33,13 -9,9 -13,20 -13,33l0 101c0,13 4,24 13,33 9,9 20,13 33,13l23 0c13,0 24,-4 33,-13 9,-9 14,-20 14,-33zm250 -263l-77 0c-6,0 -10,-2 -14,-5 -3,-4 -5,-9 -5,-14 0,-5 1,-9 5,-13 3,-4 8,-6 14,-6l77 0c6,0 10,2 14,6 4,3 6,8 6,13 0,4 -2,9 -5,13 -3,4 -8,6 -15,6zm58 328c0,13 -6,20 -19,20l-96 0c-21,0 -39,-8 -55,-23 -15,-15 -23,-33 -23,-54l0 -174c0,-5 2,-10 6,-14 4,-4 8,-5 13,-5 5,0 10,1 14,4 4,4 6,9 6,15l0 174c0,11 3,20 11,27 4,4 8,6 12,9 6,1 11,2 15,2l78 0 0 -212c0,-5 2,-10 6,-14 4,-4 8,-5 13,-5 5,0 10,1 13,4 4,4 6,9 6,15l0 231zm387 -107l-44 46 0 61c0,6 -1,11 -5,15 -4,3 -8,5 -14,5 -5,0 -9,-2 -13,-5 -4,-3 -6,-8 -6,-15l0 -231c0,-5 2,-10 6,-14 4,-4 8,-5 13,-5 5,0 10,1 13,4 4,4 6,9 6,15l0 114 123 -128c3,-4 7,-6 12,-6 4,0 9,2 14,6 4,3 6,8 6,14 0,5 -3,10 -7,15l-77 81 79 123c3,5 5,10 5,13 0,5 -3,10 -7,14 -4,3 -8,5 -13,5 -5,0 -10,-2 -14,-7l-77 -120zm365 42c0,23 -8,43 -24,60 -17,16 -37,25 -61,25l-23 0c-23,0 -43,-8 -59,-25 -17,-16 -26,-36 -26,-60l0 -101c0,-22 9,-42 25,-59 17,-17 37,-26 60,-26l23 0c23,0 43,9 60,25 17,16 25,37 25,60l0 101zm-38 0l0 -101c0,-12 -4,-23 -13,-33 -9,-9 -20,-13 -33,-13l-24 0c-12,0 -23,4 -32,13 -10,9 -14,20 -14,33l0 101c0,13 4,24 13,33 9,9 20,13 33,13l24 0c12,0 23,-4 32,-13 9,-9 14,-20 14,-33zm347 65l0 -231c0,-7 -2,-13 -5,-17 -3,-3 -7,-5 -12,-5 -6,0 -12,3 -18,11l-81 113 -81 -113c-5,-8 -11,-11 -17,-11 -5,0 -9,2 -13,6 -3,4 -5,9 -5,16l0 231c0,6 2,11 6,15 3,3 8,5 14,5 4,0 9,-2 13,-5 4,-4 6,-9 6,-15l0 -171 61 86c6,7 11,10 16,10 5,0 10,-3 16,-10l62 -86 0 171c0,6 1,11 5,15 3,3 8,5 14,5 4,0 9,-2 13,-5 4,-4 6,-9 6,-15zm270 0c0,13 -6,20 -19,20l-97 0c-20,0 -39,-8 -54,-23 -15,-15 -23,-33 -23,-54l0 -174c0,-5 2,-10 6,-15 4,-3 8,-5 13,-5 5,0 10,2 14,5 4,3 5,8 5,15l0 174c0,11 4,20 12,27 3,4 8,6 12,9 6,1 11,2 15,2l78 0 0 -212c0,-5 2,-10 6,-15 3,-3 8,-5 13,-5 5,0 9,2 13,5 4,3 6,8 6,15l0 231z"/>
     <path class="fil20 str4" d="M9364 5118l-58 0c-20,0 -38,-8 -54,-23 -15,-15 -23,-33 -23,-54l0 -116c0,-22 8,-40 23,-55 15,-15 33,-23 54,-23l58 0c6,0 10,2 14,6 4,4 6,9 6,14 0,4 -2,8 -5,12 -3,5 -8,7 -15,7l-58 0c-11,0 -20,3 -27,11 -4,4 -7,8 -9,12 -1,5 -2,10 -2,16l0 116c0,11 3,20 11,27 4,4 8,6 12,9 6,1 11,2 15,2l58 0c6,0 10,2 14,6 4,4 6,9 6,14 0,4 -2,8 -5,12 -3,5 -8,7 -15,7zm232 0l-58 0c-21,0 -39,-8 -54,-23 -16,-15 -23,-33 -23,-54l0 -116c0,-22 7,-40 22,-55 15,-15 34,-23 55,-23l58 0c5,0 10,2 14,6 3,4 5,9 5,14 0,4 -1,8 -5,12 -3,5 -8,7 -14,7l-58 0c-11,0 -20,3 -28,11 -4,4 -6,8 -8,12 -2,5 -3,10 -3,16l0 116c0,11 4,20 11,27 4,4 8,6 13,9 5,1 10,2 15,2l58 0c5,0 10,2 14,6 3,4 5,9 5,14 0,4 -1,8 -5,12 -3,5 -8,7 -14,7zm289 -20c0,13 -6,20 -19,20l-97 0c-20,0 -38,-8 -54,-23 -15,-15 -23,-33 -23,-54l0 -174c0,-5 2,-10 6,-15 4,-3 8,-5 13,-5 5,0 10,2 14,5 4,3 6,8 6,15l0 174c0,11 3,20 11,27 4,4 8,6 12,9 6,1 11,2 15,2l78 0 0 -212c0,-5 2,-10 6,-15 3,-3 8,-5 13,-5 5,0 9,2 13,5 4,3 6,8 6,15l0 231zm270 0c0,13 -6,20 -19,20l-96 0c-21,0 -39,-8 -55,-23 -15,-15 -23,-33 -23,-54l0 -174c0,-5 2,-10 6,-15 4,-3 8,-5 13,-5 5,0 10,2 14,5 4,3 6,8 6,15l0 174c0,11 3,20 11,27 4,4 8,6 12,9 6,1 11,2 15,2l78 0 0 -212c0,-5 2,-10 6,-15 4,-3 8,-5 13,-5 5,0 10,2 13,5 4,3 6,8 6,15l0 231zm502 0c0,13 -6,20 -19,20l-97 0c-21,0 -39,-8 -54,-23 -15,-15 -23,-33 -23,-54l0 -174c0,-5 2,-10 6,-15 3,-3 8,-5 13,-5 5,0 9,2 13,5 4,3 6,8 6,15l0 174c0,11 4,20 11,27 4,4 8,6 13,9 5,1 10,2 15,2l78 0 0 -212c0,-5 1,-10 5,-15 4,-3 9,-5 14,-5 5,0 9,2 13,5 4,3 6,8 6,15l0 231zm179 -97l-25 0c-5,0 -10,-1 -14,-5 -3,-4 -5,-8 -5,-14 0,-4 2,-9 5,-13 4,-4 8,-6 14,-6l20 0c12,0 21,-4 28,-12 7,-7 10,-16 10,-27 0,-10 -3,-19 -9,-26 -3,-4 -7,-7 -12,-9 -5,-2 -11,-3 -17,-3l-20 0c-17,0 -33,5 -46,16 -3,2 -7,3 -12,4 -4,0 -8,-2 -13,-6 -4,-4 -6,-9 -6,-14 0,-6 3,-11 8,-15 20,-16 43,-24 69,-24l20 0c24,0 43,8 58,24 12,15 19,33 19,54 0,6 -1,11 -2,16 0,5 -2,10 -4,15 -4,9 -10,18 -18,27 7,6 13,15 18,26l4 15c1,5 2,11 2,17 0,21 -7,39 -19,53 -14,16 -33,24 -58,24l-20 0c-25,0 -49,-8 -69,-23 -5,-4 -8,-9 -8,-16 0,-4 2,-8 6,-13 4,-5 8,-7 13,-7 4,0 8,2 12,5 14,10 29,15 46,15l20 0c11,0 21,-4 28,-11 7,-8 10,-18 10,-28 0,-10 -2,-18 -8,-25 -5,-7 -14,-11 -25,-14zm303 40l0 -116c0,-11 -3,-21 -10,-28 -8,-7 -17,-11 -28,-11l-39 0c-11,0 -20,3 -28,11 -3,4 -6,8 -8,12 -2,5 -3,10 -3,16l0 116c0,11 4,20 11,27 4,4 8,6 13,9 5,1 10,2 15,2l39 0c10,0 20,-3 27,-10 8,-8 11,-17 11,-28zm-62 -194l-86 -82c-5,-5 -7,-11 -7,-16 0,-4 1,-8 5,-12 3,-3 8,-5 15,-5l155 0c5,0 9,2 13,6 4,3 6,8 6,13 0,4 -2,9 -5,13 -3,4 -8,6 -14,6l-107 0 103 98 4 6c13,15 19,31 19,51l0 116c0,21 -8,39 -23,54 -15,15 -33,23 -54,23l-39 0c-21,0 -39,-8 -54,-23 -16,-15 -23,-33 -23,-54l0 -116c0,-22 7,-40 22,-55 15,-15 34,-23 55,-23l15 0zm371 251c0,13 -7,20 -19,20l-97 0c-21,0 -39,-8 -54,-23 -15,-15 -23,-33 -23,-54l0 -174c0,-5 2,-10 6,-15 3,-3 8,-5 13,-5 5,0 9,2 13,5 4,3 6,8 6,15l0 174c0,11 4,20 11,27 4,4 8,6 13,9 5,1 10,2 15,2l78 0 0 -212c0,-5 1,-10 5,-15 4,-3 9,-5 14,-5 5,0 9,2 13,5 4,3 6,8 6,15l0 231zm115 -19l78 0c11,0 20,-3 27,-10 8,-8 12,-17 12,-28l0 -116c0,-11 -4,-21 -11,-28 -8,-7 -17,-11 -28,-11l-78 0 0 193zm0 39l0 96c0,6 -2,10 -6,14 -3,4 -8,5 -13,5 -4,0 -9,-1 -13,-4 -4,-4 -6,-8 -6,-15l0 -347c0,-13 6,-20 19,-20l97 0c21,0 39,8 54,23 15,15 23,33 23,55l0 116c0,21 -8,39 -23,54 -15,15 -33,23 -54,23l-78 0zm387 -77l0 -155 -78 0c-11,0 -20,3 -28,11 -3,4 -6,8 -8,12 -2,5 -3,10 -3,16l0 116c0,11 4,20 11,27 4,4 8,6 13,9 5,1 11,2 15,2l39 0c11,0 20,-3 27,-10 8,-8 12,-17 12,-28zm19 51c-7,7 -15,14 -26,18 -11,5 -21,8 -32,8l-39 0c-21,0 -39,-8 -54,-23 -15,-15 -23,-33 -23,-54l0 -116c0,-22 8,-40 23,-55 15,-15 33,-23 54,-23l97 0c13,0 19,7 19,20l0 173c0,8 2,16 7,24 5,7 11,13 20,16 8,4 12,10 12,18 0,6 -2,10 -6,14 -3,4 -8,6 -13,6 -3,0 -6,-1 -8,-2 -13,-5 -23,-13 -31,-24zm212 -206l-78 0 0 212c0,6 -1,11 -5,15 -3,3 -8,5 -14,5 -5,0 -9,-2 -13,-5 -4,-3 -6,-8 -6,-15l0 -231c0,-13 6,-20 19,-20l174 0c21,0 39,8 54,23 15,15 23,33 23,55l0 173c0,6 -2,11 -6,15 -3,3 -8,5 -13,5 -5,0 -10,-2 -14,-5 -4,-3 -5,-8 -5,-15l0 -174c0,-10 -4,-20 -11,-27 -8,-7 -17,-11 -28,-11l-39 0 0 212c0,6 -2,11 -5,15 -4,3 -8,5 -14,5 -5,0 -10,-2 -13,-5 -4,-3 -6,-8 -6,-15l0 -212zm270 78l116 0 0 -39c0,-11 -4,-20 -11,-28 -7,-7 -17,-11 -28,-11l-39 0c-10,0 -20,3 -27,11 -4,4 -7,8 -9,13 -1,4 -2,9 -2,15l0 39zm0 38l0 39c0,11 3,20 11,27 4,4 8,6 12,9 6,1 11,2 15,2l97 0c5,0 10,2 14,6 3,4 5,9 5,14 0,4 -1,8 -4,12 -4,5 -9,7 -15,7l-96 0c-21,0 -39,-8 -55,-23 -15,-15 -23,-33 -23,-54l0 -116c0,-21 8,-39 23,-55 15,-15 33,-23 55,-23l38 0c21,0 39,8 54,23 16,15 23,33 23,55l0 58c0,13 -6,19 -19,19l-135 0zm424 96c0,6 -1,11 -5,15 -4,3 -8,5 -14,5 -5,0 -9,-2 -13,-5 -4,-3 -6,-8 -6,-15l0 -212 -44 0 -73 218c-1,5 -3,8 -7,11 -1,0 -4,1 -10,3 -5,0 -10,-2 -14,-6 -4,-3 -6,-7 -6,-13l1 -7 77 -231c2,-9 8,-14 18,-14l77 0c13,0 19,7 19,20l0 231zm116 -97l0 78 77 0c12,0 22,-4 29,-11 7,-8 10,-17 10,-28 0,-10 -3,-20 -9,-27 -3,-3 -8,-6 -13,-8 -4,-2 -10,-4 -17,-4l-77 0zm0 -38l77 0c24,0 44,8 58,24 13,15 20,32 20,53 0,21 -7,39 -19,53 -15,17 -34,25 -59,25l-96 0c-13,0 -20,-7 -20,-20l0 -231c0,-5 2,-10 6,-15 4,-3 9,-5 14,-5 5,0 9,2 13,5 4,3 6,8 6,15l0 96zm386 0l0 -96c0,-6 2,-10 6,-15 4,-3 8,-5 13,-5 5,0 10,2 14,5 4,3 6,8 6,15l0 231c0,6 -2,11 -6,15 -3,3 -8,5 -14,5 -5,0 -9,-2 -13,-5 -4,-3 -6,-8 -6,-15l0 -97 -116 0 0 97c0,6 -2,11 -6,15 -3,3 -8,5 -13,5 -5,0 -10,-2 -14,-5 -4,-3 -5,-8 -5,-15l0 -231c0,-5 1,-10 5,-15 4,-3 9,-5 14,-5 5,0 9,2 13,5 4,3 6,8 6,15l0 96 116 0zm309 70c0,23 -9,43 -25,60 -16,16 -37,25 -60,25l-23 0c-23,0 -43,-8 -60,-25 -17,-16 -25,-36 -25,-60l0 -101c0,-22 8,-42 24,-59 17,-17 37,-26 61,-26l23 0c23,0 43,9 59,25 17,16 26,37 26,60l0 101zm-39 0l0 -101c0,-12 -4,-23 -13,-33 -9,-9 -20,-13 -33,-13l-24 0c-12,0 -23,4 -32,13 -9,9 -14,20 -14,33l0 101c0,13 5,24 14,33 9,9 20,13 32,13l24 0c12,0 23,-4 32,-13 10,-9 14,-20 14,-33zm299 67c-10,6 -23,10 -39,14l-21 3 -22 1 -27 -1 -23 -3c-15,-2 -27,-9 -36,-20 -9,-11 -14,-24 -14,-38 0,-8 2,-16 5,-24 4,-8 9,-16 17,-22l123 -85c4,-3 6,-7 6,-12 0,-8 -7,-14 -20,-19 -13,-4 -28,-7 -43,-7 -13,0 -25,1 -34,4 -10,2 -18,5 -25,11 -3,2 -7,3 -11,4 -5,0 -9,-2 -14,-6 -4,-4 -5,-9 -5,-14 0,-6 2,-11 7,-15 8,-6 20,-11 37,-15 7,-2 15,-4 24,-5 8,-1 16,-1 24,-1 6,0 10,0 15,0 5,0 10,0 16,1 6,1 13,2 21,5 14,4 25,11 34,21 9,11 14,23 14,35 0,16 -8,31 -22,44l-124 85c-5,4 -7,9 -7,15 0,4 2,9 5,13 3,4 7,7 13,8l21 2 23 1c14,0 26,-1 35,-3 4,-1 9,-2 14,-4 5,-2 9,-4 14,-7l4 -2c1,0 4,0 6,0 5,0 10,2 14,6 3,4 5,9 5,14 0,6 -3,12 -10,16zm280 -67c0,23 -8,43 -25,60 -16,16 -36,25 -60,25l-23 0c-23,0 -43,-8 -60,-25 -17,-16 -25,-36 -25,-60l0 -101c0,-22 8,-42 25,-59 16,-17 36,-26 60,-26l23 0c23,0 43,9 60,25 16,16 25,37 25,60l0 101zm-39 0l0 -101c0,-12 -4,-23 -13,-33 -9,-9 -20,-13 -33,-13l-23 0c-13,0 -24,4 -33,13 -9,9 -14,20 -14,33l0 101c0,13 5,24 14,33 9,9 20,13 33,13l23 0c12,0 23,-4 33,-13 9,-9 13,-20 13,-33zm502 85l-77 0c-21,0 -39,-8 -55,-23 -15,-15 -23,-33 -23,-54l0 -174c0,-5 2,-10 6,-15 4,-3 8,-5 14,-5 4,0 9,2 13,5 4,3 6,8 6,15l0 174c0,11 3,20 11,27 4,4 8,6 12,9 6,1 11,2 16,2l77 0 0 -212c0,-5 2,-10 6,-15 4,-3 8,-5 13,-5 5,0 10,2 13,5 4,3 6,8 6,15l0 289c0,21 -7,39 -22,55 -15,15 -33,22 -55,22l-77 0c-5,0 -10,-1 -14,-5 -4,-4 -5,-9 -5,-14 0,-5 1,-9 5,-13 3,-4 8,-6 14,-6l77 0c11,0 20,-4 28,-11 7,-7 11,-16 11,-28l0 -38zm270 -155l0 -96c0,-6 2,-10 6,-15 4,-3 8,-5 13,-5 5,0 10,2 14,5 4,3 5,8 5,15l0 231c0,6 -1,11 -5,15 -3,3 -8,5 -14,5 -5,0 -9,-2 -13,-5 -4,-3 -6,-8 -6,-15l0 -97 -77 0c-21,0 -39,-7 -54,-22 -16,-15 -24,-33 -24,-55l0 -57c0,-6 2,-10 6,-15 4,-3 9,-5 14,-5 5,0 9,2 13,5 4,3 6,8 6,15l0 58c0,10 4,20 11,27 4,3 8,6 12,8 6,2 11,3 16,3l77 0zm270 78l0 -155 -77 0c-11,0 -20,3 -28,11 -4,4 -6,8 -8,12 -2,5 -3,10 -3,16l0 116c0,11 4,20 11,27 4,4 8,6 12,9 6,1 11,2 16,2l38 0c11,0 20,-3 28,-10 7,-8 11,-17 11,-28zm19 51c-6,7 -15,14 -25,18 -11,5 -22,8 -33,8l-38 0c-21,0 -39,-8 -54,-23 -16,-15 -23,-33 -23,-54l0 -116c0,-22 7,-40 22,-55 15,-15 33,-23 55,-23l96 0c13,0 20,7 20,20l0 173c0,8 2,16 7,24 4,7 11,13 19,16 8,4 12,10 12,18 0,6 -2,10 -5,14 -4,4 -8,6 -14,6 -3,0 -5,-1 -8,-2 -12,-5 -23,-13 -31,-24zm232 26l-58 0c-21,0 -39,-8 -54,-23 -16,-15 -23,-33 -23,-54l0 -116c0,-22 7,-40 22,-55 15,-15 34,-23 55,-23l58 0c5,0 10,2 14,6 3,4 5,9 5,14 0,4 -1,8 -5,12 -3,5 -8,7 -14,7l-58 0c-11,0 -20,3 -28,11 -4,4 -6,8 -8,12 -2,5 -3,10 -3,16l0 116c0,11 4,20 11,27 4,4 8,6 13,9 5,1 10,2 15,2l58 0c5,0 10,2 14,6 3,4 5,9 5,14 0,4 -1,8 -5,12 -3,5 -8,7 -14,7zm212 -232l-77 0 0 212c0,6 -2,11 -6,15 -3,3 -8,5 -14,5 -5,0 -9,-2 -13,-5 -4,-3 -6,-8 -6,-15l0 -231c0,-13 7,-20 19,-20l174 0c21,0 39,8 54,23 15,15 23,33 23,55l0 173c0,6 -2,11 -6,15 -3,3 -8,5 -13,5 -5,0 -10,-2 -14,-5 -4,-3 -5,-8 -5,-15l0 -174c0,-10 -4,-20 -11,-27 -8,-7 -17,-11 -28,-11l-39 0 0 212c0,6 -2,11 -5,15 -4,3 -8,5 -14,5 -5,0 -10,-2 -13,-5 -4,-3 -6,-8 -6,-15l0 -212zm309 105l-43 46 0 61c0,6 -2,11 -6,15 -3,3 -8,5 -13,5 -5,0 -10,-2 -14,-5 -4,-3 -6,-8 -6,-15l0 -231c0,-5 2,-10 6,-14 4,-4 9,-5 14,-5 4,0 9,1 13,4 4,4 6,9 6,15l0 114 122 -128c4,-4 8,-6 13,-6 4,0 8,2 13,6 4,3 6,8 6,14 0,5 -2,10 -6,15l-78 81 80 123c3,5 4,10 4,13 0,5 -2,10 -6,14 -4,3 -9,5 -14,5 -5,0 -9,-2 -14,-7l-77 -120zm328 50l0 -155 -78 0c-11,0 -20,3 -28,11 -3,4 -6,8 -8,12 -2,5 -3,10 -3,16l0 116c0,11 4,20 11,27 4,4 8,6 13,9 5,1 10,2 15,2l39 0c10,0 20,-3 27,-10 8,-8 12,-17 12,-28zm18 51c-6,7 -14,14 -25,18 -11,5 -22,8 -32,8l-39 0c-21,0 -39,-8 -54,-23 -15,-15 -23,-33 -23,-54l0 -116c0,-22 7,-40 22,-55 16,-15 34,-23 55,-23l97 0c12,0 19,7 19,20l0 173c0,8 2,16 7,24 5,7 11,13 20,16 8,4 12,10 12,18 0,6 -2,10 -6,14 -3,4 -8,6 -14,6 -2,0 -5,-1 -8,-2 -12,-5 -22,-13 -31,-24zm715 -225c0,17 -6,31 -19,43 -11,10 -24,15 -39,15 -16,0 -29,-5 -40,-15 -12,-11 -18,-25 -18,-43l0 -78c0,-17 6,-31 18,-43 11,-10 24,-14 40,-14 15,0 28,4 39,14 13,10 19,25 19,43l0 78zm-155 231c0,5 -2,10 -6,15 -4,3 -8,5 -13,5 -8,0 -14,-4 -18,-10l-156 -282 0 272c0,6 -2,11 -6,15 -3,3 -8,5 -13,5 -5,0 -10,-2 -14,-5 -4,-3 -6,-8 -6,-15l0 -347c0,-5 2,-10 6,-14 4,-4 9,-5 14,-5 7,0 13,3 17,10l156 282 0 -273c0,-5 2,-10 6,-14 4,-4 9,-5 14,-5 5,0 9,1 13,4 4,4 6,9 6,15l0 347zm116 -231l0 -78c0,-5 -2,-10 -6,-15 -4,-2 -8,-4 -13,-4 -5,0 -9,2 -14,5 -4,3 -6,8 -6,14l0 78c0,6 2,11 5,15 4,3 9,4 15,4 4,0 9,-1 13,-5 4,-3 6,-8 6,-14zm540 310l-231 0 0 -38 231 0 0 38zm232 0l-232 0 0 -38 232 0 0 38zm231 0l-231 0 0 -38 231 0 0 38zm232 0l-232 0 0 -38 232 0 0 38zm231 0l-231 0 0 -38 231 0 0 38zm232 0l-232 0 0 -38 232 0 0 38z"/>
    </g>
   </g>
  </g>
 </g>
</svg>
