<?xml version="1.0" encoding="UTF-8"?>
<!DOCTYPE svg PUBLIC "-//W3C//DTD SVG 1.0//EN" "http://www.w3.org/TR/2001/REC-SVG-20010904/DTD/svg10.dtd">
<!-- Creator: CorelDRAW X7 -->
<svg xmlns="http://www.w3.org/2000/svg" xml:space="preserve" width="200mm" height="200mm" version="1.0" style="shape-rendering:geometricPrecision; text-rendering:geometricPrecision; image-rendering:optimizeQuality; fill-rule:evenodd; clip-rule:evenodd"
viewBox="0 0 20000 20000"
 xmlns:xlink="http://www.w3.org/1999/xlink">
 <defs>
  <style type="text/css">
   <![CDATA[
    .str2 {stroke:#1A5989;stroke-width:25}
    .str0 {stroke:#3696A0;stroke-width:25}
    .str3 {stroke:#61CCD8;stroke-width:25}
    .str4 {stroke:#EF4652;stroke-width:25}
    .str1 {stroke:#F69021;stroke-width:25}
    .fil8 {fill:#FEFEFE}
    .fil7 {fill:#F28E2B}
    .fil11 {fill:#E84353}
    .fil3 {fill:#D8D8DA}
    .fil2 {fill:#C5C3C5}
    .fil1 {fill:#767477}
    .fil12 {fill:#5A5654}
    .fil10 {fill:#33BACC}
    .fil6 {fill:#484855}
    .fil9 {fill:#215C8B}
    .fil4 {fill:#3497A1}
    .fil5 {fill:#3696A0}
    .fil0 {fill:url(#id0)}
   ]]>
  </style>
  <radialGradient id="id0" gradientUnits="userSpaceOnUse" gradientTransform="matrix(1.41421 -0 -0 1.41421 -4155 -4129)" cx="10030.6" cy="9969.4" r="10000" fx="10030.6" fy="9969.4">
   <stop offset="0" style="stop-opacity:1; stop-color:#FEFEFE"/>
   <stop offset="0.439216" style="stop-opacity:1; stop-color:#FEFEFE"/>
   <stop offset="1" style="stop-opacity:1; stop-color:#D1E2F2"/>
  </radialGradient>
 </defs>
 <g id="Layer_x0020_1">
  <metadata id="CorelCorpID_0Corel-Layer"/>
  <path class="fil0" d="M31 -31l20000 0 0 20000 -20000 0 0 -20000z"/>
  <g id="_70985047728">
   <g>
    <path class="fil1" d="M16998 18202c0,0 0,0 0,0z"/>
    <path class="fil2" d="M18732 13360l-8960 0 0 -1051 8960 0 0 1051z"/>
    <path class="fil3" d="M15684 18863l-5912 0 0 -4554 5912 0 0 4554z"/>
    <path class="fil2" d="M15599 14195l-5827 0 0 -79 5827 0 0 79z"/>
    <path class="fil2" d="M18732 13535l-2890 0 0 1446 2890 0 0 -1446z"/>
    <path class="fil3" d="M18680 14981l-2838 0 0 1364 2838 0 0 -1364z"/>
    <path class="fil3" d="M15684 13511l-5912 0 0 473 5912 0 0 -473z"/>
    <path class="fil4 str0" d="M11402 13063c0,6 -2,11 -6,15 -3,3 -8,5 -13,5 -5,0 -10,-2 -14,-5 -4,-3 -6,-8 -6,-15l0 -275 -158 285c-2,4 -5,7 -8,9l-4 2c-2,1 -4,2 -6,2 -4,0 -8,-2 -13,-6 -4,-4 -5,-9 -5,-17l0 -350c0,-5 2,-10 5,-14 4,-4 9,-5 14,-5 5,0 10,1 13,5 4,3 6,8 6,14l0 275 158 -284c2,-3 5,-6 9,-10 3,-2 7,-4 10,-4 4,0 8,3 12,7 4,4 6,9 6,16l0 350zm195 -175l-58 0c-6,0 -11,-2 -15,-5 -3,-4 -5,-9 -5,-14 0,-5 2,-9 5,-13 4,-5 8,-7 15,-7l58 0c11,0 20,-3 27,-11 8,-7 12,-16 12,-28l0 -39c0,-11 -4,-20 -11,-28 -8,-7 -17,-11 -28,-11l-39 0c-9,0 -16,3 -23,7 -6,5 -11,11 -14,20 -1,4 -3,7 -6,9 -2,2 -4,3 -5,4l-7 1c-5,0 -10,-2 -14,-6 -4,-3 -6,-8 -6,-14l1 -6c5,-16 14,-29 28,-39 13,-10 29,-14 46,-14l39 0c21,0 40,7 55,22 15,16 22,34 22,55l0 39c0,12 -2,22 -6,33 -5,10 -11,19 -20,26 18,14 26,34 26,58l0 78c0,21 -7,39 -22,55 -16,15 -34,23 -55,23l-39 0c-17,0 -32,-5 -45,-15 -14,-10 -23,-23 -29,-39l-1 -7c0,-5 2,-9 6,-13 4,-4 8,-6 14,-6 8,0 14,4 18,13 2,8 7,15 14,21 7,5 15,7 23,7l39 0c11,0 20,-4 27,-11 8,-7 12,-17 12,-28l0 -78c0,-11 -3,-21 -9,-27 -7,-8 -17,-12 -30,-12zm194 0l0 156 117 0c10,0 20,-4 27,-11 8,-7 12,-17 12,-28l0 -78c0,-11 -4,-20 -11,-28 -8,-7 -17,-11 -28,-11l-117 0zm0 -39l116 0c22,0 40,8 55,23 16,15 23,34 23,55l0 78c0,21 -7,39 -22,55 -16,15 -34,23 -55,23l-136 0c-13,0 -20,-7 -20,-20l0 -350c0,-13 7,-19 20,-19l155 0c5,0 10,1 14,5 4,4 6,9 6,14 0,4 -2,9 -5,13 -4,4 -8,6 -15,6l-136 0 0 117zm505 214c0,6 -1,11 -5,15 -4,3 -8,5 -14,5 -5,0 -10,-2 -13,-5 -4,-3 -6,-8 -6,-15l0 -275 -158 285c-2,4 -5,7 -9,9l-4 2c-1,1 -3,2 -6,2 -4,0 -8,-2 -13,-6 -3,-4 -5,-9 -5,-17l0 -350c0,-5 2,-10 6,-14 4,-4 8,-5 14,-5 4,0 9,1 13,5 4,3 6,8 6,14l0 275 158 -284c2,-3 4,-6 8,-10 4,-2 7,-4 11,-4 4,0 8,3 12,7 3,4 5,9 5,16l0 350zm117 -175l117 0c11,0 20,-4 28,-11 7,-7 11,-16 11,-28l0 -78c0,-11 -4,-20 -11,-28 -7,-7 -17,-11 -28,-11l-117 0 0 156zm0 39l0 136c0,6 -2,11 -5,15 -4,3 -9,5 -14,5 -5,0 -10,-2 -14,-5 -4,-3 -6,-8 -6,-15l0 -350c0,-13 7,-19 20,-19l136 0c21,0 40,7 55,22 15,15 23,34 23,55l0 78c0,21 -8,40 -23,55 -15,15 -34,23 -55,23l-117 0zm302 58l-28 84c-2,4 -4,8 -7,10 -3,2 -7,3 -11,4 -5,0 -10,-2 -14,-6 -4,-3 -6,-8 -6,-13l1 -7 117 -350c4,-11 10,-17 19,-17 8,0 14,6 18,17l116 350 2 7c0,5 -2,9 -7,13 -4,4 -8,6 -13,6 -3,0 -6,-1 -9,-2 -3,-2 -6,-5 -9,-12l-28 -84 -141 0zm128 -39l-57 -172 -58 172 115 0zm173 -214l-78 0c-6,0 -10,-2 -14,-5 -3,-4 -5,-9 -5,-14 0,-5 1,-9 5,-13 3,-4 8,-6 14,-6l195 0c5,0 10,1 13,5 4,4 6,9 6,14 0,4 -2,9 -5,13 -3,4 -8,6 -14,6l-78 0 0 331c0,6 -2,11 -6,15 -3,3 -8,5 -14,5 -5,0 -9,-2 -13,-5 -4,-3 -6,-8 -6,-15l0 -331zm253 117l97 0c6,0 10,2 14,6 4,4 6,9 6,14 0,4 -2,9 -5,13 -3,4 -8,6 -15,6l-97 0 0 156 136 0c6,0 10,2 14,6 4,4 6,8 6,13 0,5 -2,9 -5,13 -3,5 -8,7 -15,7l-156 0c-13,0 -19,-6 -19,-19l0 -351c0,-13 6,-19 19,-19l156 0c6,0 10,1 14,5 4,4 6,9 6,14 0,4 -2,9 -5,13 -3,4 -8,6 -15,6l-136 0 0 117zm467 214c0,6 -2,11 -6,15 -3,3 -8,5 -13,5 -5,0 -10,-2 -14,-5 -4,-3 -6,-8 -6,-15l0 -331 -63 0 -93 336c-1,4 -3,7 -7,10 -4,3 -8,5 -12,5 -6,0 -10,-2 -14,-5 -4,-3 -6,-8 -6,-14 0,-3 1,-5 1,-6l98 -350c2,-10 8,-14 18,-14l98 0c13,0 19,6 19,19l0 350zm116 -175l117 0c11,0 20,4 28,11 7,7 11,17 11,28l0 78c0,11 -4,20 -11,28 -4,4 -8,6 -13,8 -5,2 -10,3 -15,3l-117 0 0 -156zm0 -39l0 -136c0,-5 -2,-10 -6,-14 -4,-4 -8,-5 -13,-5 -5,0 -9,1 -13,4 -5,4 -7,8 -7,15l0 350c0,13 7,20 20,20l136 0c21,0 39,-8 54,-23 16,-15 24,-33 24,-55l0 -78c0,-21 -8,-39 -23,-55 -15,-15 -34,-23 -55,-23l-117 0zm467 0l0 -136c0,-5 2,-10 6,-14 4,-4 8,-5 13,-5 5,0 10,1 14,4 4,4 6,8 6,15l0 350c0,5 -2,10 -6,14 -5,4 -9,6 -14,6 -5,0 -9,-2 -14,-5 -3,-3 -5,-8 -5,-15l0 -175 -156 0 0 175c0,6 -2,11 -5,15 -4,3 -9,5 -14,5 -5,0 -10,-2 -14,-5 -4,-3 -6,-8 -6,-15l0 -350c0,-5 2,-10 6,-14 4,-4 9,-5 14,-5 5,0 9,1 13,5 4,3 6,8 6,14l0 136 156 0zm389 214c0,6 -2,11 -5,15 -4,3 -9,5 -14,5 -5,0 -10,-2 -14,-5 -4,-3 -6,-8 -6,-15l0 -350c0,-5 2,-10 6,-14 4,-4 9,-5 14,-5 5,0 9,1 13,4 4,4 6,8 6,15l0 350zm-234 -175l0 156 78 0c11,0 20,-4 28,-11 8,-7 11,-17 11,-28l0 -78c0,-11 -3,-20 -11,-28 -7,-7 -16,-11 -28,-11l-78 0zm0 -39l78 0c21,0 40,8 55,23 15,15 23,34 23,55l0 78c0,21 -7,39 -23,55 -15,15 -33,23 -55,23l-97 0c-13,0 -19,-7 -19,-20l0 -350c0,-5 1,-10 5,-14 4,-4 9,-5 14,-5 5,0 9,1 13,4 4,4 6,8 6,15l0 136zm467 -194l-78 0c-6,0 -10,-2 -14,-5 -3,-5 -5,-9 -5,-15 0,-4 1,-8 5,-13 3,-4 8,-6 14,-6l78 0c5,0 10,2 14,6 4,4 6,9 6,13 0,5 -2,9 -5,13 -4,5 -8,7 -15,7zm78 408c0,6 -2,11 -6,15 -3,3 -8,5 -14,5 -5,0 -9,-2 -13,-5 -4,-3 -6,-8 -6,-15l0 -275 -158 285c-2,4 -5,7 -8,9l-5 2c-1,1 -3,2 -6,2 -3,0 -8,-2 -12,-6 -4,-4 -5,-9 -5,-17l0 -350c0,-5 1,-10 5,-14 4,-4 9,-5 14,-5 5,0 9,1 13,5 4,3 6,8 6,14l0 275 158 -284c2,-3 5,-6 8,-9 4,-3 7,-4 11,-4 4,0 8,2 12,6 4,4 6,9 6,16l0 350zm507 -202c11,6 20,16 27,28 7,12 10,25 10,38l0 78c0,21 -7,39 -22,55 -16,15 -34,23 -55,23l-137 0c-13,0 -19,-7 -19,-20l0 -350c0,-13 6,-19 19,-19l117 0c22,0 40,7 55,22 15,16 23,34 23,55l0 39c0,9 -1,18 -4,26 -3,8 -8,17 -14,25zm-157 27l0 156 117 0c10,0 20,-4 27,-11 8,-7 12,-17 12,-28l0 -78c0,-11 -4,-20 -11,-28 -8,-7 -17,-11 -28,-11l-117 0zm97 -39c11,0 20,-3 28,-11 7,-7 11,-16 11,-28l0 -39c0,-11 -3,-20 -11,-28 -7,-7 -16,-11 -28,-11l-97 0 0 117 97 0zm214 0l98 0c5,0 10,2 13,6 4,4 6,9 6,14 0,4 -1,9 -5,13 -3,4 -8,6 -14,6l-98 0 0 156 137 0c5,0 10,2 13,6 4,4 6,8 6,13 0,5 -2,9 -5,13 -3,5 -8,7 -14,7l-156 0c-13,0 -20,-6 -20,-19l0 -351c0,-13 7,-19 20,-19l156 0c5,0 10,1 13,5 4,4 6,9 6,14 0,4 -2,9 -5,13 -3,4 -8,6 -14,6l-137 0 0 117zm389 234l-97 0c-22,0 -40,-8 -55,-23 -16,-15 -23,-33 -23,-55l0 -234c0,-21 7,-40 22,-55 15,-15 34,-22 56,-22l97 0c5,0 10,1 14,5 3,4 5,9 5,14 0,4 -1,9 -5,13 -3,4 -8,6 -14,6l-98 0c-11,0 -20,4 -28,11 -3,4 -6,8 -8,13 -2,5 -3,10 -3,15l0 234c0,11 4,20 11,28 4,3 9,6 13,8 6,2 11,3 15,3l98 0c5,0 10,2 14,6 3,4 5,8 5,13 0,5 -1,9 -5,13 -3,5 -8,7 -14,7zm194 -351l-78 0c-6,0 -10,-2 -14,-5 -3,-4 -5,-9 -5,-14 0,-5 2,-9 5,-13 3,-4 8,-6 14,-6l195 0c5,0 10,1 13,5 4,4 6,9 6,14 0,4 -1,9 -5,13 -3,4 -8,6 -14,6l-78 0 0 331c0,6 -2,11 -6,15 -3,3 -8,5 -13,5 -6,0 -10,-2 -14,-5 -4,-3 -6,-8 -6,-15l0 -331zm409 117l0 -136c0,-5 1,-10 5,-14 4,-4 9,-5 14,-5 5,0 9,1 13,4 4,4 6,8 6,15l0 350c0,5 -2,10 -6,14 -4,4 -9,6 -13,6 -5,0 -10,-2 -14,-5 -4,-3 -5,-8 -5,-15l0 -175 -156 0 0 175c0,6 -2,11 -6,15 -3,3 -8,5 -14,5 -5,0 -9,-2 -13,-5 -4,-3 -6,-8 -6,-15l0 -350c0,-5 2,-10 6,-14 4,-4 8,-5 13,-5 5,0 10,1 14,5 4,3 6,8 6,14l0 136 156 0zm349 214c0,6 -1,11 -5,15 -4,3 -8,5 -14,5 -5,0 -10,-2 -13,-5 -4,-3 -6,-8 -6,-15l0 -275 -158 285c-2,4 -5,7 -9,9l-4 2c-1,1 -3,2 -6,2 -4,0 -8,-2 -13,-6 -3,-4 -5,-9 -5,-17l0 -350c0,-5 2,-10 6,-14 4,-4 8,-5 13,-5 5,0 10,1 14,5 4,3 6,8 6,14l0 275 158 -284c2,-3 4,-6 8,-10 4,-2 7,-4 11,-4 4,0 8,3 12,7 3,4 5,9 5,16l0 350zm117 -202l164 -162c4,-4 8,-5 13,-5 5,0 10,1 14,5 4,4 6,9 6,15 0,3 -2,7 -6,13l-116 115 120 211 3 11c0,5 -3,9 -7,13 -4,4 -8,6 -14,6 -6,0 -12,-4 -16,-11l-115 -202 -46 45 0 148c0,6 -2,11 -6,15 -3,3 -8,5 -13,5 -6,0 -10,-2 -14,-5 -4,-3 -6,-8 -6,-15l0 -351c0,-5 2,-9 6,-13 4,-4 9,-5 14,-5 5,0 9,1 13,4 4,3 6,8 6,14l0 149z"/>
    <path class="fil4 str0" d="M10104 13727l88 0c8,0 15,-3 21,-9 5,-5 8,-12 8,-21l0 -58c0,-8 -3,-15 -8,-21 -6,-6 -13,-8 -21,-8l-88 0 0 117zm0 29l0 102c0,4 -1,8 -4,11 -3,2 -6,3 -10,3 -4,0 -8,-1 -11,-3 -2,-3 -4,-6 -4,-11l0 -263c0,-10 5,-14 15,-14l102 0c16,0 30,5 41,17 11,11 17,25 17,41l0 58c0,16 -6,30 -17,41 -11,12 -25,18 -41,18l-88 0zm216 0l88 0 0 -29c0,-9 -3,-16 -8,-21 -6,-6 -13,-9 -21,-9l-30 0c-8,0 -15,3 -21,8 -2,3 -5,7 -6,10 -1,4 -2,7 -2,12l0 29zm0 29l0 29c0,8 3,15 8,21 3,3 6,5 10,6 4,2 8,2 11,2l73 0c4,0 8,2 11,5 2,3 4,6 4,10 0,3 -1,7 -4,10 -2,3 -6,4 -11,4l-73 0c-16,0 -29,-5 -41,-17 -11,-11 -17,-25 -17,-41l0 -88c0,-15 6,-29 17,-40 11,-12 25,-18 41,-18l30 0c15,0 29,6 41,17 11,11 17,25 17,42l0 43c0,10 -5,15 -15,15l-102 0zm274 58l59 0 0 -160c0,-4 1,-8 4,-11 3,-3 6,-4 10,-4 4,0 7,1 10,4 3,2 5,6 5,11l0 175c0,10 -5,14 -15,14l-131 0c-16,0 -29,-5 -41,-16 -12,-12 -17,-25 -17,-42l0 -131c0,-4 1,-8 4,-11 3,-3 6,-4 10,-4 4,0 7,1 10,4 3,2 5,6 5,11l0 131c0,8 2,15 8,21 3,3 6,5 9,6 5,2 8,2 12,2l29 0 0 -160c0,-4 2,-8 4,-11 3,-3 7,-4 11,-4 3,0 7,1 10,4 3,2 4,6 4,11l0 160zm158 -87l88 0 0 -29c0,-9 -3,-16 -9,-21 -5,-6 -12,-9 -21,-9l-29 0c-8,0 -15,3 -21,8 -3,3 -5,7 -6,10 -2,4 -2,7 -2,12l0 29zm0 29l0 29c0,8 2,15 8,21 3,3 6,5 9,6 5,2 8,2 12,2l73 0c4,0 7,2 10,5 3,3 5,6 5,10 0,3 -2,7 -4,10 -2,3 -6,4 -11,4l-73 0c-16,0 -29,-5 -41,-17 -12,-11 -17,-25 -17,-41l0 -88c0,-15 5,-29 16,-40 12,-12 26,-18 42,-18l29 0c16,0 30,6 41,17 12,11 18,25 18,42l0 43c0,10 -5,15 -15,15l-102 0zm274 -29l0 -73c0,-4 2,-8 5,-11 2,-3 6,-4 10,-4 3,0 7,1 10,4 3,2 4,6 4,11l0 175c0,4 -1,8 -4,11 -3,2 -6,3 -10,3 -4,0 -8,-1 -10,-3 -3,-3 -5,-6 -5,-11l0 -73 -88 0 0 73c0,4 -1,8 -4,11 -2,2 -6,3 -10,3 -4,0 -7,-1 -10,-3 -3,-3 -5,-6 -5,-11l0 -175c0,-4 2,-8 5,-11 3,-3 6,-4 10,-4 4,0 7,1 10,4 3,2 4,6 4,11l0 73 88 0zm216 102c0,10 -5,14 -15,14l-73 0c-15,0 -29,-5 -41,-16 -11,-12 -17,-25 -17,-42l0 -131c0,-4 1,-8 4,-11 3,-3 7,-4 10,-4 4,0 8,1 11,4 3,2 4,6 4,11l0 131c0,8 3,15 8,21 3,3 6,5 10,6 4,2 8,2 11,2l59 0 0 -160c0,-4 1,-8 4,-11 3,-3 7,-4 10,-4 4,0 8,1 10,4 3,2 5,6 5,11l0 175zm70 -102l88 0 0 -29c0,-9 -3,-16 -9,-21 -5,-6 -12,-9 -21,-9l-29 0c-8,0 -15,3 -21,8 -3,3 -5,7 -6,10 -2,4 -2,7 -2,12l0 29zm0 29l0 29c0,8 2,15 8,21 3,3 6,5 9,6 5,2 8,2 12,2l73 0c4,0 7,2 10,5 3,3 5,6 5,10 0,3 -2,7 -4,10 -2,3 -6,4 -11,4l-73 0c-16,0 -29,-5 -41,-17 -12,-11 -17,-25 -17,-41l0 -88c0,-15 5,-29 17,-40 11,-12 25,-18 41,-18l29 0c16,0 30,6 41,17 12,11 18,25 18,42l0 43c0,10 -5,15 -15,15l-102 0zm496 23c0,18 -6,33 -19,45 -12,13 -27,19 -45,19l-18 0c-17,0 -32,-6 -45,-18 -13,-12 -19,-28 -19,-46l0 -76c0,-17 6,-32 19,-45 12,-13 27,-19 45,-19l18 0c17,0 32,6 45,19 12,12 19,27 19,45l0 76zm-29 0l0 -76c0,-9 -4,-18 -10,-25 -7,-6 -15,-10 -25,-10l-18 0c-10,0 -18,4 -25,10 -7,7 -10,15 -10,25l0 76c0,10 3,18 10,25 7,7 15,10 25,10l18 0c9,0 17,-3 24,-10 7,-6 11,-15 11,-25zm379 -52l0 -73c0,-4 1,-8 4,-11 3,-3 7,-4 11,-4 3,0 7,1 10,4 3,2 4,6 4,11l0 175c0,4 -1,8 -4,11 -3,2 -6,3 -10,3 -4,0 -8,-1 -11,-3 -3,-3 -4,-6 -4,-11l0 -73 -88 0 0 73c0,4 -1,8 -4,11 -3,2 -6,3 -10,3 -4,0 -8,-1 -11,-3 -2,-3 -4,-6 -4,-11l0 -175c0,-4 2,-8 4,-11 3,-3 7,-4 11,-4 3,0 7,1 10,4 3,2 4,6 4,11l0 73 88 0zm187 58l0 -117 -59 0c-8,0 -15,3 -21,8 -3,3 -5,6 -6,10 -2,4 -2,7 -2,11l0 88c0,8 3,15 8,21 3,3 6,5 10,6 4,2 8,2 11,2l29 0c8,0 15,-2 21,-8 6,-5 9,-12 9,-21zm14 39c-5,6 -11,10 -19,14 -8,4 -17,5 -25,5l-29 0c-16,0 -29,-5 -41,-16 -11,-12 -17,-25 -17,-42l0 -88c0,-16 5,-29 17,-41 11,-11 25,-17 41,-17l73 0c10,0 15,5 15,15l0 131c0,6 2,12 5,18 4,5 8,9 15,12 6,3 9,7 9,13 0,5 -1,8 -4,11 -3,3 -6,4 -11,4 -2,0 -4,0 -6,-1 -9,-4 -17,-10 -23,-18zm132 -68l-18 0c-4,0 -8,-2 -11,-5 -2,-2 -4,-6 -4,-10 0,-3 2,-7 4,-10 3,-3 6,-4 11,-4l15 0c9,0 16,-3 21,-9 5,-6 8,-13 8,-21 0,-8 -2,-15 -7,-20 -3,-3 -6,-5 -9,-6 -4,-2 -8,-3 -13,-3l-15 0c-13,0 -25,4 -35,12 -3,2 -6,3 -9,3 -3,0 -6,-1 -10,-4 -3,-3 -4,-7 -4,-11 0,-4 2,-8 5,-11 15,-12 33,-18 53,-18l15 0c18,0 32,6 43,18 10,11 15,25 15,40 0,5 0,9 -1,13 -1,4 -2,8 -4,11 -3,7 -7,14 -13,20 5,5 10,12 13,20l4 12c0,4 1,8 1,12 0,16 -5,30 -15,40 -10,12 -25,18 -43,18l-15 0c-20,0 -37,-5 -53,-17 -4,-3 -6,-7 -6,-12 0,-3 2,-6 5,-10 3,-3 6,-5 10,-5 3,0 6,1 9,4 10,8 22,11 35,11l15 0c8,0 15,-3 21,-8 5,-6 8,-13 8,-21 0,-8 -2,-14 -6,-19 -5,-6 -11,-9 -20,-10zm212 -29l0 -73c0,-4 2,-8 5,-11 3,-3 6,-4 10,-4 4,0 7,1 10,4 3,2 4,6 4,11l0 175c0,4 -1,8 -4,11 -2,2 -6,3 -10,3 -4,0 -7,-1 -10,-3 -3,-3 -5,-6 -5,-11l0 -73 -87 0 0 73c0,4 -2,8 -5,11 -2,2 -6,3 -10,3 -4,0 -7,-1 -10,-3 -3,-3 -4,-6 -4,-11l0 -175c0,-4 1,-8 4,-11 3,-3 6,-4 10,-4 4,0 7,1 10,4 3,2 5,6 5,11l0 73 87 0zm187 58l0 -117 -58 0c-9,0 -16,3 -21,8 -3,3 -5,6 -7,10 -1,4 -2,7 -2,11l0 88c0,8 3,15 9,21 3,3 6,5 9,6 4,2 8,2 12,2l29 0c8,0 15,-2 21,-8 5,-5 8,-12 8,-21zm14 39c-4,6 -11,10 -19,14 -8,4 -16,5 -24,5l-29 0c-16,0 -30,-5 -41,-16 -12,-12 -18,-25 -18,-42l0 -88c0,-16 6,-29 17,-41 12,-11 25,-17 42,-17l73 0c9,0 14,5 14,15l0 131c0,6 2,12 6,18 3,5 8,9 14,12 6,3 9,7 9,13 0,5 -1,8 -4,11 -2,3 -6,4 -10,4 -2,0 -4,0 -6,-1 -10,-4 -17,-10 -24,-18zm173 -97l0 -73c0,-4 1,-8 4,-11 3,-3 6,-4 10,-4 4,0 7,1 10,4 3,2 5,6 5,11l0 175c0,4 -2,8 -4,11 -3,2 -6,3 -11,3 -4,0 -7,-1 -10,-3 -3,-3 -4,-6 -4,-11l0 -73 -59 0c-15,0 -29,-6 -41,-17 -11,-12 -17,-25 -17,-42l0 -43c0,-4 1,-8 4,-11 3,-3 7,-4 10,-4 4,0 8,1 10,4 3,2 5,6 5,11l0 43c0,9 3,16 8,21 3,3 6,5 10,7 4,1 8,2 11,2l59 0zm99 0l87 0 0 -29c0,-9 -2,-16 -8,-21 -5,-6 -12,-9 -21,-9l-29 0c-8,0 -15,3 -21,8 -3,3 -5,7 -6,10 -2,4 -2,7 -2,12l0 29zm0 29l0 29c0,8 2,15 8,21 3,3 6,5 9,6 4,2 8,2 12,2l73 0c4,0 7,2 10,5 3,3 4,6 4,10 0,3 -1,7 -3,10 -3,3 -6,4 -11,4l-73 0c-16,0 -30,-5 -41,-17 -12,-11 -17,-25 -17,-41l0 -88c0,-15 5,-29 16,-40 12,-12 26,-18 42,-18l29 0c16,0 30,6 41,17 12,11 17,25 17,42l0 43c0,10 -4,15 -14,15l-102 0zm274 -29l0 -73c0,-4 2,-8 4,-11 3,-3 7,-4 11,-4 3,0 7,1 10,4 3,2 4,6 4,11l0 175c0,4 -1,8 -4,11 -3,2 -6,3 -10,3 -4,0 -8,-1 -11,-3 -2,-3 -4,-6 -4,-11l0 -73 -88 0 0 73c0,4 -1,8 -4,11 -2,2 -6,3 -10,3 -4,0 -8,-1 -10,-3 -3,-3 -5,-6 -5,-11l0 -175c0,-4 2,-8 5,-11 2,-3 6,-4 10,-4 3,0 7,1 10,4 3,2 4,6 4,11l0 73 88 0zm216 102c0,10 -5,14 -15,14l-73 0c-15,0 -29,-5 -41,-16 -11,-12 -17,-25 -17,-42l0 -131c0,-4 1,-8 4,-11 3,-3 7,-4 10,-4 4,0 8,1 10,4 3,2 5,6 5,11l0 131c0,8 3,15 8,21 3,3 6,5 10,6 4,2 8,2 11,2l59 0 0 -160c0,-4 1,-8 4,-11 3,-3 7,-4 10,-4 4,0 7,1 10,4 3,2 5,6 5,11l0 175zm187 0c0,10 -5,14 -15,14l-73 0c-16,0 -29,-5 -41,-16 -12,-12 -17,-25 -17,-42l0 -131c0,-4 1,-8 4,-11 3,-3 6,-4 10,-4 4,0 7,1 10,4 3,2 5,6 5,11l0 131c0,8 2,15 8,21 3,3 6,5 9,6 5,2 8,2 12,2l59 0 0 -160c0,-4 1,-8 4,-11 3,-3 6,-4 10,-4 4,0 7,1 10,4 3,2 5,6 5,11l0 175zm350 -44l0 -87c0,-9 -3,-15 -9,-21 -5,-6 -12,-9 -21,-9l-29 0c-8,0 -15,3 -21,9 -3,3 -5,6 -6,9 -1,4 -2,8 -2,12l0 87c0,8 3,15 8,21 3,3 6,5 10,6 4,2 8,2 11,2l29 0c9,0 15,-2 21,-8 6,-5 9,-12 9,-21zm-88 -135l12 -8 17 -12c6,-5 10,-8 12,-11 4,-5 6,-10 6,-15 0,-6 -3,-12 -7,-16 -5,-5 -11,-7 -17,-7 -6,0 -12,2 -16,7 -5,3 -7,9 -7,16l0 46zm58 -10c19,0 34,6 44,17 10,10 15,24 15,41l0 87c0,16 -6,30 -17,41 -12,12 -26,17 -42,17l-29 0c-16,0 -29,-5 -41,-16 -11,-12 -17,-25 -17,-42l0 -181c0,-16 5,-29 16,-39 10,-9 22,-13 36,-13 14,0 26,4 37,13 10,10 16,22 16,39 0,10 -2,17 -4,21 -3,5 -7,10 -14,15zm274 189c0,4 -1,8 -4,11 -2,2 -6,3 -10,3 -4,0 -7,-1 -10,-3 -3,-3 -5,-6 -5,-11l0 -175c0,-4 2,-8 5,-11 3,-3 6,-4 10,-4 4,0 7,1 10,4 3,2 4,6 4,11l0 175zm-146 -73l0 58 30 0c9,0 16,-3 21,-8 5,-6 8,-13 8,-21 0,-8 -2,-15 -7,-20 -3,-3 -6,-5 -9,-7 -4,-2 -8,-2 -13,-2l-30 0zm0 -29l30 0c18,0 33,6 43,18 10,11 15,24 15,40 0,15 -5,29 -14,40 -11,12 -26,18 -44,18l-44 0c-10,0 -15,-4 -15,-14l0 -175c0,-4 2,-8 5,-11 3,-3 6,-4 10,-4 4,0 7,1 10,4 3,2 4,6 4,11l0 73zm304 58l0 -88c0,-8 -3,-15 -8,-20 -6,-6 -13,-9 -21,-9l-29 0c-9,0 -16,3 -21,8 -3,3 -5,6 -7,10 -1,4 -2,7 -2,11l0 88c0,8 3,15 9,21 3,3 6,5 9,6 4,2 8,2 12,2l29 0c8,0 15,-2 21,-8 5,-5 8,-12 8,-21zm-47 -146l-65 -62c-4,-4 -6,-8 -6,-12 0,-3 2,-6 4,-9 3,-3 7,-4 12,-4l117 0c4,0 7,1 10,4 3,3 4,6 4,10 0,3 -1,7 -3,10 -3,3 -6,5 -11,5l-81 0 78 73 3 5c10,11 14,24 14,38l0 88c0,16 -5,30 -17,41 -11,12 -25,17 -41,17l-29 0c-16,0 -30,-5 -41,-16 -12,-12 -18,-25 -18,-42l0 -88c0,-16 6,-29 17,-41 12,-11 26,-17 42,-17l11 0zm263 140c0,18 -6,33 -19,45 -12,13 -27,19 -45,19l-18 0c-17,0 -32,-6 -45,-18 -13,-12 -19,-28 -19,-46l0 -76c0,-17 6,-32 19,-45 12,-13 27,-19 45,-19l18 0c17,0 32,6 45,19 13,12 19,27 19,45l0 76zm-29 0l0 -76c0,-9 -4,-18 -10,-25 -7,-6 -15,-10 -25,-10l-18 0c-9,0 -18,4 -25,10 -7,7 -10,15 -10,25l0 76c0,10 3,18 10,25 7,7 15,10 25,10l18 0c9,0 17,-3 24,-10 7,-6 11,-15 11,-25zm99 35l58 0c8,0 15,-2 21,-8 6,-5 9,-12 9,-21l0 -88c0,-8 -3,-15 -9,-20 -5,-6 -12,-9 -21,-9l-58 0 0 146zm0 29l0 73c0,4 -2,8 -5,11 -3,3 -6,4 -10,4 -3,0 -6,-1 -10,-4 -3,-2 -4,-6 -4,-11l0 -262c0,-10 5,-15 14,-15l73 0c16,0 30,6 41,17 12,11 18,25 18,41l0 88c0,16 -6,30 -18,41 -11,12 -25,17 -41,17l-58 0zm303 -64c0,18 -6,33 -18,45 -13,13 -28,19 -46,19l-17 0c-18,0 -33,-6 -46,-18 -12,-12 -19,-28 -19,-46l0 -76c0,-17 7,-32 19,-45 13,-13 28,-19 46,-19l17 0c17,0 32,6 45,19 13,12 19,27 19,45l0 76zm-29 0l0 -76c0,-9 -3,-18 -10,-25 -7,-6 -15,-10 -25,-10l-18 0c-9,0 -17,4 -24,10 -7,7 -11,15 -11,25l0 76c0,10 4,18 11,25 6,7 15,10 24,10l18 0c10,0 18,-3 25,-10 7,-6 10,-15 10,-25zm187 6l0 -87c0,-9 -3,-15 -8,-21 -6,-6 -13,-9 -21,-9l-30 0c-8,0 -15,3 -21,9 -2,3 -4,6 -6,9 -1,4 -2,8 -2,12l0 87c0,8 3,15 8,21 3,3 6,5 10,6 4,2 8,2 11,2l30 0c8,0 15,-2 20,-8 6,-5 9,-12 9,-21zm-88 -135l12 -8 17 -12c6,-5 10,-8 12,-11 4,-5 6,-10 6,-15 0,-6 -2,-12 -7,-16 -5,-5 -10,-7 -16,-7 -7,0 -12,2 -17,7 -5,3 -7,9 -7,16l0 46zm59 -10c18,0 33,6 43,17 10,10 15,24 15,41l0 87c0,16 -6,30 -17,41 -12,12 -25,17 -41,17l-30 0c-15,0 -29,-5 -41,-16 -11,-12 -17,-25 -17,-42l0 -181c0,-16 5,-29 16,-39 10,-9 23,-13 37,-13 13,0 25,4 36,13 11,10 16,22 16,39 0,10 -1,17 -4,21 -2,5 -7,10 -13,15z"/>
    <path class="fil3" d="M18680 16419l-2838 0 0 2432 2838 0 0 -2432z"/>
    <g>
     <path class="fil5 str0" d="M10679 16207c0,4 -1,8 -4,11 -3,2 -6,3 -10,3 -4,0 -8,-1 -11,-3 -2,-3 -4,-7 -4,-11l0 -132c0,-8 -3,-15 -8,-21 -6,-5 -13,-8 -21,-8l-59 0 0 161c0,4 -1,8 -4,11 -3,2 -6,3 -10,3 -4,0 -8,-1 -10,-3 -3,-3 -5,-7 -5,-11l0 -176c0,-9 5,-14 15,-14l73 0c15,0 29,5 41,17 11,11 17,25 17,41l0 132zm175 14l-58 0c-16,0 -30,-5 -41,-17 -12,-11 -18,-25 -18,-41l0 -132c0,-3 2,-7 5,-10 3,-3 6,-4 10,-4 4,0 7,1 10,3 3,3 4,7 4,11l0 132c0,8 3,15 9,21 3,2 6,4 9,6 4,1 8,2 12,2l58 0 0 -161c0,-3 2,-7 5,-10 3,-3 6,-4 10,-4 3,0 7,1 10,3 3,3 4,7 4,11l0 219c0,16 -5,30 -17,41 -11,12 -25,18 -41,18l-59 0c-3,0 -7,-2 -10,-5 -3,-3 -4,-6 -4,-10 0,-4 1,-7 4,-10 2,-3 6,-4 11,-4l58 0c8,0 15,-3 21,-9 5,-5 8,-12 8,-21l0 -29zm204 -58l0 -88c0,-8 -2,-15 -8,-21 -5,-5 -12,-8 -21,-8l-29 0c-8,0 -15,3 -21,8 -3,3 -5,6 -6,10 -2,3 -2,7 -2,11l0 88c0,8 2,15 8,21 3,2 6,4 9,6 4,1 8,2 12,2l29 0c8,0 15,-3 21,-8 6,-5 8,-12 8,-21zm-47 -146l-65 -62c-4,-4 -5,-8 -5,-13 0,-3 1,-6 3,-8 3,-3 7,-5 12,-5l117 0c4,0 7,2 10,5 3,3 4,6 4,10 0,3 -1,6 -3,10 -3,3 -6,4 -11,4l-81 0 78 74 3 5c10,11 14,24 14,38l0 88c0,16 -5,30 -17,41 -11,11 -25,17 -41,17l-29 0c-16,0 -29,-5 -41,-17 -12,-11 -17,-25 -17,-41l0 -88c0,-16 5,-30 17,-41 11,-12 25,-17 41,-17l11 0zm281 190c0,4 -2,8 -5,11 -2,2 -6,3 -10,3 -4,0 -7,-1 -10,-3 -3,-3 -4,-7 -4,-11l0 -161 -34 0 -55 165c-1,3 -3,6 -5,8 -1,0 -3,1 -8,2 -4,0 -7,-1 -10,-4 -3,-2 -5,-6 -5,-10l1 -5 58 -175c2,-7 6,-10 13,-10l59 0c10,0 15,5 15,14l0 176zm204 0c0,9 -5,14 -15,14l-73 0c-15,0 -29,-5 -41,-17 -11,-11 -17,-25 -17,-41l0 -132c0,-3 1,-7 4,-10 3,-3 7,-4 10,-4 4,0 7,1 10,3 3,3 5,7 5,11l0 132c0,8 3,15 8,21 3,2 6,4 10,6 4,1 8,2 11,2l59 0 0 -161c0,-3 1,-7 4,-10 3,-3 6,-4 10,-4 4,0 7,1 10,3 3,3 5,7 5,11l0 176zm117 -81l-33 34 0 47c0,4 -1,8 -4,11 -3,2 -6,3 -10,3 -4,0 -8,-1 -11,-3 -3,-3 -4,-7 -4,-11l0 -175c0,-4 1,-8 4,-11 3,-3 7,-4 11,-4 3,0 7,1 10,4 3,2 4,6 4,11l0 86 93 -97c2,-3 5,-5 9,-5 3,0 6,2 10,5 3,3 5,6 5,11 0,4 -2,7 -5,11l-59 61 60 93c3,4 4,7 4,10 0,4 -2,8 -5,10 -3,3 -6,5 -10,5 -4,0 -8,-2 -11,-6l-58 -90zm262 95l-58 0c-16,0 -30,-5 -41,-17 -12,-11 -18,-25 -18,-41l0 -132c0,-3 2,-7 5,-10 2,-3 6,-4 10,-4 3,0 7,1 10,3 3,3 4,7 4,11l0 132c0,8 3,15 9,21 3,2 6,4 9,6 4,1 8,2 12,2l58 0 0 -161c0,-3 2,-7 4,-10 3,-3 7,-4 11,-4 3,0 7,1 10,3 3,3 4,7 4,11l0 219c0,16 -6,30 -17,41 -11,12 -25,18 -41,18l-59 0c-3,0 -7,-2 -10,-5 -3,-3 -4,-6 -4,-10 0,-4 1,-7 3,-10 3,-3 7,-4 11,-4l59 0c8,0 15,-3 21,-9 5,-5 8,-12 8,-21l0 -29zm116 -116l88 0 0 -30c0,-8 -3,-15 -8,-21 -6,-5 -12,-8 -21,-8l-29 0c-9,0 -16,3 -21,8 -3,3 -5,6 -7,10 -1,3 -2,7 -2,11l0 30zm0 29l0 29c0,8 3,15 9,21 3,2 6,4 9,6 4,1 8,2 12,2l73 0c4,0 7,2 10,5 3,3 4,6 4,10 0,3 -1,6 -3,9 -3,4 -6,5 -11,5l-73 0c-16,0 -30,-6 -41,-17 -12,-11 -18,-25 -18,-41l0 -88c0,-16 6,-29 17,-41 12,-11 25,-17 42,-17l29 0c16,0 29,5 41,17 12,11 17,25 17,41l0 44c0,10 -5,15 -14,15l-103 0zm263 -88l-58 0 0 161c0,4 -2,8 -5,11 -2,2 -6,3 -10,3 -4,0 -7,-1 -10,-3 -3,-3 -4,-7 -4,-11l0 -176c0,-9 4,-14 14,-14l131 0c16,0 30,5 41,17 12,11 17,25 17,41l0 132c0,4 -1,8 -4,11 -2,2 -6,3 -10,3 -4,0 -7,-1 -10,-3 -3,-3 -5,-7 -5,-11l0 -132c0,-8 -2,-15 -8,-21 -5,-5 -12,-8 -21,-8l-29 0 0 161c0,4 -1,8 -4,11 -3,2 -6,3 -10,3 -4,0 -8,-1 -11,-3 -3,-3 -4,-7 -4,-11l0 -161zm277 175l-44 0c-15,0 -29,-5 -41,-17 -11,-11 -17,-25 -17,-41l0 -88c0,-16 6,-30 17,-41 12,-12 25,-17 41,-17l44 0c4,0 8,1 11,4 2,3 4,7 4,10 0,4 -1,7 -4,10 -2,3 -6,5 -11,5l-44 0c-8,0 -15,3 -21,8 -2,3 -4,6 -6,10 -1,3 -2,7 -2,11l0 88c0,8 3,15 8,21 3,2 6,4 10,6 4,1 8,2 11,2l44 0c4,0 8,2 11,5 2,3 4,6 4,10 0,3 -1,6 -4,9 -2,4 -6,5 -11,5zm190 -116l0 -59 -59 0c-8,0 -15,3 -21,9 -5,5 -8,12 -8,20 0,8 3,14 8,21 5,6 12,9 21,9l59 0zm-36 29l-54 81c-1,1 -3,3 -6,5l-6 1c-3,0 -7,-1 -10,-4 -3,-3 -5,-7 -5,-11 0,-2 1,-5 2,-8l44 -65c-14,-2 -26,-9 -34,-20 -8,-12 -12,-24 -12,-38 0,-15 5,-29 15,-40 11,-12 25,-18 43,-18l73 0c10,0 15,5 15,14l0 176c0,4 -1,8 -4,11 -3,2 -6,3 -11,3 -3,0 -7,-1 -10,-3 -3,-3 -4,-7 -4,-11l0 -73 -36 0zm415 -30l0 -73c0,-4 2,-7 4,-10 3,-3 7,-4 11,-4 3,0 7,1 10,3 3,3 4,7 4,11l0 176c0,4 -1,8 -4,11 -3,2 -6,3 -10,3 -4,0 -8,-1 -11,-4 -2,-2 -4,-6 -4,-10l0 -74 -88 0 0 74c0,4 -1,8 -4,11 -3,2 -6,3 -10,3 -4,0 -8,-1 -10,-3 -3,-3 -5,-7 -5,-11l0 -176c0,-3 2,-7 5,-10 2,-3 6,-4 10,-4 3,0 7,1 10,3 3,3 4,7 4,11l0 73 88 0zm116 1l88 0 0 -30c0,-8 -2,-15 -8,-21 -6,-5 -12,-8 -21,-8l-29 0c-9,0 -16,3 -21,8 -3,3 -5,6 -7,10 -1,3 -2,7 -2,11l0 30zm0 29l0 29c0,8 3,15 9,21 3,2 6,4 9,6 4,1 8,2 12,2l73 0c4,0 7,2 10,5 3,3 4,6 4,10 0,3 -1,6 -3,9 -3,4 -6,5 -11,5l-73 0c-16,0 -30,-6 -41,-17 -12,-11 -18,-25 -18,-41l0 -88c0,-16 6,-29 17,-41 12,-11 25,-17 42,-17l29 0c16,0 29,5 41,17 12,11 17,25 17,41l0 44c0,10 -5,15 -14,15l-103 0zm496 73c0,4 -1,8 -4,11 -2,2 -6,3 -10,3 -4,0 -7,-1 -10,-3 -3,-3 -5,-7 -5,-11l0 -132c0,-8 -2,-15 -8,-21 -5,-5 -12,-8 -21,-8l-58 0 0 161c0,4 -2,8 -5,11 -2,2 -6,3 -10,3 -4,0 -7,-1 -10,-3 -3,-3 -4,-7 -4,-11l0 -176c0,-9 4,-14 14,-14l73 0c16,0 29,5 41,17 12,11 17,25 17,41l0 132zm205 -50c0,17 -7,32 -19,45 -12,13 -28,19 -46,19l-17 0c-17,0 -32,-6 -45,-18 -13,-13 -19,-28 -19,-46l0 -76c0,-17 6,-32 18,-45 13,-13 28,-19 46,-19l17 0c18,0 33,6 46,18 12,13 19,28 19,46l0 76zm-29 0l0 -76c0,-10 -4,-18 -11,-25 -6,-7 -15,-10 -25,-10l-17 0c-10,0 -18,3 -25,10 -7,7 -10,15 -10,25l0 76c0,10 3,18 10,25 7,7 15,10 25,10l17 0c10,0 18,-3 25,-10 7,-7 11,-15 11,-25zm164 -24l-19 0c-4,0 -8,-1 -10,-4 -3,-3 -4,-6 -4,-10 0,-4 1,-7 4,-10 2,-3 6,-5 10,-5l15 0c9,0 16,-3 21,-9 6,-6 8,-12 8,-20 0,-8 -2,-15 -7,-20 -2,-3 -5,-5 -9,-7 -4,-1 -8,-2 -13,-2l-15 0c-13,0 -25,4 -35,12 -2,1 -5,3 -9,3 -3,0 -6,-2 -10,-4 -3,-4 -4,-7 -4,-11 0,-5 2,-9 6,-12 15,-11 32,-17 52,-17l15 0c18,0 33,6 44,18 9,11 14,24 14,40 0,5 0,9 -1,13 0,3 -2,7 -3,11 -3,7 -8,14 -14,20 6,5 10,12 14,20l3 11c1,4 1,8 1,13 0,16 -5,29 -14,40 -11,12 -25,18 -44,18l-15 0c-19,0 -37,-6 -52,-17 -4,-3 -6,-7 -6,-12 0,-3 1,-7 4,-10 3,-3 7,-5 10,-5 3,0 6,1 9,3 11,8 22,12 35,12l15 0c9,0 16,-3 21,-9 6,-6 8,-13 8,-20 0,-8 -2,-14 -6,-20 -4,-5 -11,-8 -19,-10zm229 -87l-58 0c-8,0 -15,3 -21,8 -3,3 -5,6 -6,10 -2,3 -3,7 -3,11l0 88c0,8 3,15 9,21 3,2 6,4 9,6 4,1 8,2 12,2l29 0c8,0 15,-3 21,-8 6,-5 8,-12 8,-21l0 -117zm0 -29l0 -29c0,-9 -2,-16 -8,-21 -5,-6 -12,-9 -21,-9l-58 0c-5,0 -8,-1 -11,-4 -3,-3 -4,-6 -4,-10 0,-3 1,-7 4,-10 2,-3 6,-5 11,-5l58 0c16,0 30,6 41,17 12,12 17,26 17,42l0 175c0,16 -5,30 -17,41 -11,11 -25,17 -41,17l-29 0c-16,0 -30,-5 -41,-17 -12,-11 -18,-25 -18,-41l0 -88c0,-16 6,-30 18,-41 11,-12 25,-17 41,-17l58 0zm205 87l0 -73c0,-4 1,-7 4,-10 3,-3 6,-4 10,-4 4,0 7,1 10,3 3,3 5,7 5,11l0 176c0,4 -2,8 -5,11 -2,2 -6,3 -10,3 -4,0 -7,-1 -10,-4 -3,-2 -4,-6 -4,-10l0 -74 -88 0 0 74c0,4 -2,8 -4,11 -3,2 -7,3 -11,3 -4,0 -7,-1 -10,-3 -3,-3 -4,-7 -4,-11l0 -176c0,-3 1,-7 4,-10 3,-3 6,-4 10,-4 4,0 7,1 10,3 3,3 5,7 5,11l0 73 88 0zm116 1l88 0 0 -30c0,-8 -3,-15 -9,-21 -5,-5 -12,-8 -21,-8l-29 0c-8,0 -15,3 -21,8 -3,3 -5,6 -6,10 -1,3 -2,7 -2,11l0 30zm0 29l0 29c0,8 3,15 8,21 3,2 6,4 10,6 4,1 8,2 11,2l73 0c4,0 8,2 10,5 3,3 5,6 5,10 0,3 -1,6 -4,9 -2,4 -6,5 -11,5l-73 0c-16,0 -29,-6 -41,-17 -11,-11 -17,-25 -17,-41l0 -88c0,-16 5,-29 17,-41 11,-11 25,-17 41,-17l29 0c16,0 30,5 41,17 12,11 18,25 18,41l0 44c0,10 -5,15 -15,15l-102 0zm204 -29l88 0 0 -30c0,-8 -3,-15 -8,-21 -6,-5 -13,-8 -21,-8l-30 0c-8,0 -15,3 -21,8 -2,3 -5,6 -6,10 -1,3 -2,7 -2,11l0 30zm0 29l0 29c0,8 3,15 8,21 3,2 6,4 10,6 4,1 8,2 11,2l73 0c4,0 8,2 11,5 2,3 4,6 4,10 0,3 -1,6 -4,9 -2,4 -6,5 -11,5l-73 0c-15,0 -29,-6 -41,-17 -11,-11 -17,-25 -17,-41l0 -88c0,-16 6,-29 17,-41 11,-11 25,-17 41,-17l30 0c15,0 29,5 41,17 11,11 17,25 17,41l0 44c0,10 -5,15 -15,15l-102 0zm-4141 437l0 -73c0,-4 1,-7 4,-11 3,-2 6,-3 10,-3 4,0 7,1 10,3 3,3 5,6 5,11l0 175c0,5 -2,9 -4,11 -3,3 -7,4 -11,4 -4,0 -7,-1 -10,-4 -3,-2 -4,-6 -4,-11l0 -73 -59 0c-16,0 -29,-5 -41,-17 -11,-11 -17,-25 -17,-41l0 -44c0,-4 1,-7 4,-11 3,-2 6,-3 10,-3 4,0 7,1 10,3 3,3 5,6 5,11l0 44c0,8 3,15 8,21 3,2 6,4 10,6 4,1 8,2 11,2l59 0zm116 1l88 0 0 -30c0,-8 -3,-15 -8,-21 -6,-5 -13,-8 -21,-8l-30 0c-8,0 -15,2 -21,8 -2,3 -5,6 -6,10 -1,3 -2,7 -2,11l0 30zm0 29l0 29c0,8 3,15 8,21 3,2 6,4 10,6 4,1 8,2 11,2l73 0c4,0 8,2 11,5 2,2 4,6 4,10 0,3 -1,6 -4,9 -2,3 -6,5 -11,5l-73 0c-16,0 -29,-6 -41,-17 -11,-11 -17,-25 -17,-41l0 -88c0,-16 6,-29 17,-41 11,-12 25,-17 41,-17l29 0c16,0 30,5 42,17 11,11 17,25 17,41l0 44c0,10 -5,15 -15,15l-102 0zm350 72l0 -175c0,-5 -1,-9 -4,-12 -2,-3 -5,-4 -9,-4 -4,0 -9,2 -13,8l-61 85 -61 -85c-4,-6 -9,-8 -14,-8 -3,0 -6,1 -9,4 -3,3 -4,7 -4,12l0 175c0,5 1,9 4,11 3,3 6,4 11,4 3,0 6,-1 9,-4 4,-2 5,-6 5,-11l0 -129 47 65c4,5 8,8 12,8 3,0 7,-3 11,-8l47 -65 0 129c0,5 1,9 4,11 3,3 6,4 11,4 3,0 6,-1 9,-4 3,-2 5,-6 5,-11zm350 -102l0 -73c0,-4 2,-7 5,-11 3,-2 6,-3 10,-3 4,0 7,1 10,3 3,3 4,6 4,11l0 175c0,5 -1,9 -4,11 -2,3 -6,4 -10,4 -4,0 -7,-1 -10,-4 -3,-2 -5,-6 -5,-11l0 -73 -58 0c-16,0 -29,-5 -41,-17 -12,-11 -18,-25 -18,-41l0 -44c0,-4 2,-7 5,-11 3,-2 6,-3 10,-3 4,0 7,1 10,3 3,3 4,6 4,11l0 44c0,8 3,15 9,21 3,2 6,4 9,6 4,1 8,2 12,2l58 0zm117 1l88 0 0 -30c0,-8 -3,-15 -9,-21 -5,-5 -12,-8 -21,-8l-29 0c-8,0 -15,2 -21,8 -3,3 -5,6 -6,10 -2,3 -2,7 -2,11l0 30zm0 29l0 29c0,8 2,15 8,21 3,2 6,4 9,6 5,1 8,2 12,2l73 0c4,0 7,2 10,5 3,2 5,6 5,10 0,3 -2,6 -4,9 -3,3 -6,5 -11,5l-73 0c-16,0 -30,-6 -41,-17 -12,-11 -17,-25 -17,-41l0 -88c0,-16 5,-29 16,-41 12,-12 26,-17 42,-17l29 0c16,0 30,5 41,17 12,11 18,25 18,41l0 44c0,10 -5,15 -15,15l-102 0zm204 58l58 0c8,0 15,-3 21,-8 6,-6 9,-13 9,-21l0 -88c0,-8 -3,-15 -9,-21 -5,-5 -12,-8 -21,-8l-58 0 0 146zm0 29l0 73c0,4 -2,7 -5,10 -3,3 -6,5 -10,5 -3,0 -6,-2 -9,-4 -4,-3 -5,-6 -5,-11l0 -263c0,-9 5,-14 14,-14l73 0c16,0 30,5 41,17 12,11 18,25 18,41l0 88c0,16 -6,29 -17,41 -12,11 -26,17 -42,17l-58 0zm204 -116l88 0 0 -30c0,-8 -3,-15 -8,-21 -6,-5 -13,-8 -21,-8l-30 0c-8,0 -15,2 -21,8 -2,3 -5,6 -6,10 -1,3 -2,7 -2,11l0 30zm0 29l0 29c0,8 3,15 8,21 3,2 6,4 10,6 4,1 8,2 11,2l73 0c4,0 8,2 11,5 2,2 4,6 4,10 0,3 -1,6 -4,9 -2,3 -6,5 -11,5l-73 0c-16,0 -29,-6 -41,-17 -11,-11 -17,-25 -17,-41l0 -88c0,-16 6,-29 17,-41 11,-12 25,-17 41,-17l29 0c16,0 30,5 42,17 11,11 17,25 17,41l0 44c0,10 -5,15 -15,15l-102 0z"/>
     <path class="fil5 str0" d="M12258 16600l-18 0c-5,0 -8,-1 -11,-4 -3,-3 -4,-6 -4,-10 0,-4 1,-7 4,-10 3,-3 6,-5 11,-5l14 0c9,0 16,-3 22,-9 5,-6 8,-12 8,-20 0,-8 -3,-15 -8,-20 -2,-3 -5,-5 -9,-7 -4,-1 -8,-2 -13,-2l-14 0c-14,0 -25,4 -35,12 -3,1 -6,2 -9,3 -3,0 -7,-2 -10,-5 -3,-3 -5,-6 -5,-10 0,-5 2,-9 6,-12 15,-12 33,-17 53,-17l14 0c19,0 33,6 44,18 10,11 15,24 15,40 0,5 -1,9 -2,13 0,3 -1,7 -3,11 -3,7 -7,13 -14,20 6,5 10,12 14,20l3 11c1,4 2,8 2,13 0,16 -5,29 -15,40 -10,12 -25,18 -44,18l-14 0c-20,0 -37,-6 -53,-17 -4,-3 -6,-7 -6,-12 0,-3 2,-7 5,-10 2,-4 6,-5 10,-5 2,0 5,1 9,3 10,8 21,12 35,12l14 0c9,0 16,-3 21,-9 6,-6 9,-13 9,-21 0,-7 -3,-14 -7,-19 -4,-5 -10,-8 -19,-10zm434 73c0,5 -2,9 -4,11 -3,3 -7,4 -11,4 -4,0 -7,-1 -10,-4 -3,-2 -4,-6 -4,-11l0 -131c0,-8 -3,-15 -9,-21 -5,-5 -12,-8 -21,-8l-58 0 0 160c0,5 -2,9 -4,11 -3,3 -7,4 -11,4 -4,0 -7,-1 -10,-4 -3,-2 -4,-6 -4,-11l0 -175c0,-9 5,-14 14,-14l73 0c16,0 29,5 41,16 12,12 18,25 18,42l0 131zm175 -101l0 -59 -59 0c-8,0 -15,3 -22,8 -5,6 -7,13 -7,21 0,8 2,14 8,20 5,7 12,10 21,10l59 0zm-36 29l-54 80c-1,2 -3,4 -6,6l-6 1c-3,0 -7,-1 -10,-4 -4,-3 -5,-7 -5,-11 0,-2 1,-5 2,-8l44 -65c-14,-2 -26,-9 -34,-20 -8,-12 -12,-24 -12,-38 0,-16 5,-29 14,-40 11,-12 26,-18 44,-18l73 0c10,0 15,5 15,14l0 175c0,5 -2,9 -4,11 -3,3 -6,4 -11,4 -4,0 -7,-1 -10,-4 -3,-2 -4,-6 -4,-11l0 -72 -36 0zm211 -88l-59 0 0 160c0,5 -1,9 -4,11 -3,3 -6,4 -10,4 -4,0 -8,-1 -11,-4 -3,-2 -4,-6 -4,-11l0 -175c0,-9 5,-14 15,-14l131 0c16,0 29,5 41,17 11,11 17,25 17,41l0 131c0,5 -1,9 -4,11 -3,3 -6,4 -11,4 -3,0 -7,-1 -10,-4 -3,-2 -4,-6 -4,-11l0 -131c0,-8 -3,-15 -8,-21 -6,-5 -13,-8 -21,-8l-29 0 0 160c0,5 -2,9 -5,11 -2,3 -6,4 -10,4 -4,0 -7,-1 -10,-4 -3,-2 -4,-6 -4,-11l0 -160zm204 87l0 59 58 0c9,0 16,-3 21,-9 6,-6 8,-13 8,-20 0,-9 -2,-15 -7,-21 -2,-2 -5,-5 -9,-6 -4,-2 -8,-3 -13,-3l-58 0zm0 -29l58 0c18,0 33,6 44,18 10,11 14,25 14,41 0,15 -4,28 -14,40 -11,12 -26,18 -44,18l-73 0c-10,0 -14,-5 -14,-15l0 -175c0,-4 1,-7 4,-11 3,-2 6,-3 10,-3 4,0 7,1 10,3 3,3 5,6 5,11l0 73zm467 -58l-59 0c-8,0 -15,2 -21,8 -3,3 -5,6 -6,10 -2,3 -2,7 -2,11l0 88c0,8 2,15 8,21 3,2 6,4 10,6 4,1 8,2 11,2l29 0c8,0 15,-3 21,-8 6,-6 9,-13 9,-21l0 -117zm0 -29l0 -30c0,-8 -3,-15 -9,-20 -5,-6 -12,-9 -21,-9l-58 0c-5,0 -8,-1 -11,-4 -2,-3 -4,-6 -4,-10 0,-4 1,-7 4,-10 2,-3 6,-5 11,-5l58 0c17,0 30,6 42,17 11,12 17,25 17,42l0 175c0,16 -6,29 -17,41 -12,11 -26,17 -42,17l-29 0c-16,0 -29,-6 -41,-17 -11,-11 -17,-25 -17,-41l0 -88c0,-16 5,-30 17,-41 11,-12 25,-17 41,-17l59 0zm204 87l0 -73c0,-4 1,-7 4,-11 3,-2 6,-3 10,-3 4,0 7,1 10,3 3,3 5,6 5,11l0 175c0,5 -2,9 -4,11 -3,3 -6,4 -11,4 -4,0 -7,-1 -10,-4 -3,-2 -4,-6 -4,-11l0 -73 -88 0 0 73c0,5 -1,9 -4,11 -3,3 -6,4 -11,4 -3,0 -7,-1 -10,-4 -3,-2 -4,-6 -4,-11l0 -175c0,-4 1,-7 4,-11 3,-2 7,-3 10,-3 4,0 7,1 10,3 3,3 5,6 5,11l0 73 88 0zm116 1l88 0 0 -30c0,-8 -3,-15 -8,-21 -6,-5 -13,-8 -21,-8l-30 0c-8,0 -15,2 -21,8 -2,3 -4,6 -6,10 -1,3 -2,7 -2,11l0 30zm0 29l0 29c0,8 3,15 8,21 3,2 6,4 10,6 4,1 8,2 11,2l73 0c4,0 8,2 11,5 3,2 4,6 4,10 0,3 -1,6 -4,9 -2,3 -6,5 -11,5l-73 0c-15,0 -29,-6 -41,-17 -11,-11 -17,-25 -17,-41l0 -88c0,-16 6,-29 17,-41 11,-12 25,-17 41,-17l30 0c15,0 29,5 41,17 11,11 17,25 17,41l0 44c0,10 -5,15 -15,15l-102 0zm277 -176l-58 0c-4,0 -8,-1 -11,-4 -2,-3 -4,-6 -4,-10 0,-4 2,-7 4,-10 2,-3 6,-5 11,-5l58 0c4,0 8,2 11,5 2,3 4,6 4,10 0,3 -1,6 -4,9 -2,4 -6,5 -11,5zm44 248c0,10 -5,15 -14,15l-73 0c-16,0 -30,-6 -41,-17 -12,-11 -18,-25 -18,-41l0 -132c0,-3 2,-7 5,-10 2,-3 6,-4 10,-4 3,0 7,1 10,4 3,2 4,6 4,10l0 132c0,8 3,15 9,21 3,2 6,4 9,6 4,1 8,2 12,2l58 0 0 -161c0,-3 2,-7 4,-10 3,-3 7,-4 11,-4 3,0 7,1 10,4 3,2 4,6 4,10l0 175zm336 15l-44 0c-16,0 -30,-6 -41,-17 -12,-11 -18,-25 -18,-41l0 -88c0,-16 6,-30 18,-41 11,-12 25,-17 41,-17l44 0c4,0 7,1 10,4 3,3 4,6 4,10 0,4 -1,7 -3,10 -3,3 -7,5 -11,5l-44 0c-9,0 -16,2 -21,8 -3,3 -5,6 -7,10 -1,3 -2,7 -2,11l0 88c0,8 3,15 9,21 3,2 6,4 9,6 4,1 8,2 12,2l44 0c4,0 7,2 10,5 3,2 4,6 4,10 0,3 -1,6 -3,9 -3,3 -7,5 -11,5zm218 -64c0,17 -6,32 -18,45 -13,13 -28,19 -46,19l-17 0c-18,0 -33,-6 -46,-19 -12,-12 -19,-27 -19,-45l0 -76c0,-17 7,-32 19,-45 13,-13 28,-19 46,-19l17 0c17,0 33,6 45,18 13,13 19,28 19,46l0 76zm-29 0l0 -76c0,-10 -3,-18 -10,-25 -7,-7 -15,-10 -25,-10l-17 0c-10,0 -18,3 -25,10 -7,7 -11,15 -11,25l0 76c0,10 4,18 11,25 6,7 15,10 25,10l17 0c10,0 18,-3 25,-10 7,-7 10,-15 10,-25zm-3638 356l-59 0c-8,0 -15,2 -21,8 -3,3 -5,6 -6,9 -1,4 -2,8 -2,12l0 88c0,8 3,15 8,20 3,3 6,5 10,7 4,1 8,2 11,2l29 0c9,0 15,-3 21,-8 6,-6 9,-13 9,-21l0 -117zm0 -29l0 -30c0,-8 -3,-15 -9,-20 -5,-6 -12,-9 -21,-9l-58 0c-4,0 -8,-1 -11,-4 -2,-3 -4,-7 -4,-10 0,-4 2,-7 4,-10 3,-3 6,-5 11,-5l58 0c17,0 30,6 42,17 11,12 17,25 17,41l0 176c0,16 -6,29 -17,41 -12,11 -26,17 -42,17l-29 0c-16,0 -29,-6 -41,-17 -11,-11 -17,-25 -17,-41l0 -88c0,-16 5,-30 17,-41 11,-12 25,-17 41,-17l59 0zm204 87l0 -73c0,-4 1,-7 4,-11 3,-2 7,-3 10,-3 4,0 8,1 10,3 3,3 5,6 5,11l0 175c0,5 -1,9 -4,11 -3,3 -6,4 -11,4 -3,0 -7,-1 -10,-4 -3,-2 -4,-6 -4,-11l0 -73 -88 0 0 73c0,5 -1,9 -4,11 -3,3 -6,4 -11,4 -3,0 -7,-1 -10,-4 -3,-2 -4,-6 -4,-11l0 -175c0,-4 1,-7 4,-11 3,-2 7,-3 10,-3 4,0 8,1 11,3 3,3 4,6 4,11l0 73 88 0zm204 0l0 -58 -59 0c-8,0 -15,2 -21,8 -5,6 -8,13 -8,21 0,7 3,14 8,20 5,6 12,9 21,9l59 0zm-36 29l-54 81c-1,2 -3,4 -6,5l-6 2c-3,0 -6,-2 -10,-4 -3,-3 -5,-7 -5,-11 0,-2 1,-5 2,-8l44 -65c-14,-2 -25,-9 -34,-21 -8,-11 -12,-24 -12,-37 0,-16 5,-29 15,-40 11,-12 25,-18 44,-18l72 0c10,0 15,4 15,14l0 175c0,5 -1,9 -4,11 -3,3 -6,4 -10,4 -4,0 -8,-1 -11,-4 -3,-2 -4,-6 -4,-11l0 -73 -36 0zm327 -29l88 0 0 -29c0,-8 -3,-15 -8,-21 -6,-6 -13,-8 -21,-8l-29 0c-9,0 -16,2 -21,8 -3,3 -5,6 -7,10 -1,3 -2,7 -2,11l0 29zm0 29l0 30c0,8 3,15 9,21 3,2 6,4 9,6 4,1 8,2 12,2l73 0c4,0 7,1 10,4 3,3 4,7 4,10 0,4 -1,7 -3,10 -3,3 -6,5 -11,5l-73 0c-16,0 -30,-6 -41,-17 -12,-11 -18,-25 -18,-41l0 -88c0,-16 6,-29 17,-41 11,-12 25,-17 42,-17l29 0c16,0 29,5 41,17 11,11 17,25 17,41l0 44c0,10 -5,14 -14,14l-103 0zm314 75c-8,4 -17,7 -29,10l-16 2 -17 1 -21 -1 -17 -2c-11,-2 -20,-7 -27,-15 -7,-9 -10,-18 -10,-29 0,-6 1,-12 4,-18 2,-6 6,-12 12,-17l93 -64c3,-2 5,-5 5,-9 0,-6 -5,-11 -15,-14 -10,-3 -21,-5 -33,-5 -10,0 -19,1 -26,2 -7,2 -14,5 -18,9 -3,1 -6,2 -9,3 -3,0 -7,-2 -10,-5 -3,-3 -5,-6 -5,-10 0,-5 2,-9 6,-12 6,-4 15,-8 28,-11 5,-2 12,-3 18,-3 6,-1 12,-2 19,-2 3,0 7,0 11,0 3,1 7,1 12,1 4,1 9,2 16,4 10,3 19,8 25,16 7,8 11,17 11,27 0,12 -6,23 -17,32l-93 65c-4,3 -6,7 -6,11 0,3 2,7 4,10 2,3 6,5 10,6l16 1 17 1c11,0 20,0 27,-2 3,0 6,-1 10,-3 4,-1 7,-3 11,-5l3 -1c1,-1 2,-1 4,-1 4,0 8,2 11,5 2,3 4,6 4,10 0,5 -3,9 -8,13zm212 -51c0,17 -7,32 -19,45 -12,13 -28,19 -46,19l-17 0c-17,0 -33,-6 -45,-19 -13,-12 -19,-27 -19,-45l0 -76c0,-17 6,-32 18,-45 13,-13 28,-19 46,-19l17 0c18,0 33,6 46,18 12,13 19,28 19,46l0 76zm-29 0l0 -76c0,-10 -4,-18 -11,-25 -6,-7 -15,-10 -25,-10l-17 0c-10,0 -18,3 -25,10 -7,7 -10,15 -10,25l0 76c0,9 3,18 10,25 7,6 15,10 25,10l17 0c10,0 18,-3 25,-10 7,-7 11,-15 11,-25zm408 49c0,5 -2,9 -4,11 -3,3 -6,4 -11,4 -4,0 -7,-1 -10,-4 -3,-2 -4,-6 -4,-11l0 -131c0,-8 -3,-15 -8,-21 -6,-6 -13,-8 -22,-8l-58 0 0 160c0,5 -1,9 -4,11 -3,3 -6,4 -11,4 -3,0 -7,-1 -10,-4 -3,-2 -4,-6 -4,-11l0 -175c0,-10 5,-14 14,-14l73 0c16,0 30,5 41,16 12,11 18,25 18,42l0 131zm87 -14l59 0c8,0 15,-3 20,-8 6,-6 9,-13 9,-21l0 -88c0,-8 -3,-15 -8,-21 -6,-6 -13,-8 -21,-8l-59 0 0 146zm0 29l0 73c0,4 -1,7 -4,10 -3,3 -7,4 -10,4 -4,0 -7,-1 -10,-3 -3,-3 -5,-6 -5,-11l0 -263c0,-10 5,-14 15,-14l73 0c15,0 29,5 41,17 11,11 17,25 17,41l0 88c0,16 -6,29 -17,41 -12,11 -25,17 -42,17l-58 0zm321 -15c0,10 -5,15 -14,15l-73 0c-16,0 -30,-6 -41,-17 -12,-11 -18,-25 -18,-41l0 -132c0,-4 2,-7 5,-11 2,-2 6,-3 10,-3 3,0 7,1 10,3 3,3 4,6 4,11l0 132c0,8 3,15 9,21 3,2 6,4 9,6 4,1 8,2 12,2l58 0 0 -161c0,-4 2,-7 4,-11 3,-2 7,-3 11,-3 3,0 7,1 10,3 3,3 4,6 4,11l0 175zm175 -102l0 -73c0,-4 2,-7 5,-11 3,-2 6,-3 10,-3 3,0 7,1 10,3 3,3 4,6 4,11l0 175c0,5 -1,9 -4,11 -2,3 -6,4 -10,4 -4,0 -7,-1 -10,-4 -3,-2 -5,-6 -5,-11l0 -73 -88 0 0 73c0,5 -1,9 -4,11 -2,3 -6,4 -10,4 -4,0 -7,-1 -10,-4 -3,-2 -5,-6 -5,-11l0 -175c0,-4 2,-7 5,-11 3,-2 6,-3 10,-3 4,0 7,1 10,3 3,3 4,6 4,11l0 73 88 0zm204 0l0 -58 -58 0c-8,0 -16,2 -22,8 -5,6 -7,13 -7,21 0,7 2,14 7,20 5,6 13,9 22,9l58 0zm-35 29l-55 81c-1,2 -3,4 -5,5l-7 2c-3,0 -6,-2 -10,-4 -3,-3 -4,-7 -4,-11 0,-2 0,-5 2,-8l44 -65c-15,-2 -26,-9 -34,-21 -8,-11 -12,-24 -12,-37 0,-16 4,-29 14,-40 11,-12 26,-18 44,-18l73 0c10,0 14,4 14,14l0 175c0,5 -1,9 -4,11 -2,3 -6,4 -10,4 -4,0 -7,-1 -10,-4 -3,-2 -5,-6 -5,-11l0 -73 -35 0zm210 -87l-58 0 0 160c0,5 -2,9 -4,11 -3,3 -7,4 -11,4 -4,0 -7,-1 -10,-4 -3,-2 -4,-6 -4,-11l0 -175c0,-10 5,-14 14,-14l131 0c16,0 30,5 41,17 12,11 18,25 18,41l0 131c0,5 -2,9 -4,11 -3,3 -7,4 -11,4 -4,0 -7,-1 -10,-4 -3,-2 -4,-6 -4,-11l0 -131c0,-8 -3,-15 -9,-21 -5,-6 -12,-8 -21,-8l-29 0 0 160c0,5 -1,9 -4,11 -3,3 -6,4 -10,4 -4,0 -8,-1 -10,-4 -3,-2 -5,-6 -5,-11l0 -160zm321 160c0,10 -5,15 -14,15l-73 0c-16,0 -30,-6 -41,-17 -12,-11 -18,-25 -18,-41l0 -132c0,-4 2,-7 5,-11 2,-2 6,-3 10,-3 3,0 7,1 10,3 3,3 4,6 4,11l0 132c0,8 3,15 9,21 3,2 6,4 9,6 4,1 8,2 11,2l59 0 0 -161c0,-4 2,-7 4,-11 3,-2 7,-3 11,-3 3,0 7,1 10,3 3,3 4,6 4,11l0 175zm175 -102l0 -58 -58 0c-9,0 -16,2 -22,8 -5,6 -8,13 -8,21 0,7 3,14 8,20 5,6 12,9 22,9l58 0zm-36 29l-54 81c-1,2 -3,4 -5,5l-7 2c-3,0 -6,-2 -10,-4 -3,-3 -5,-7 -5,-11 0,-2 1,-5 3,-8l43 -65c-14,-2 -25,-9 -33,-21 -9,-11 -13,-24 -13,-37 0,-16 5,-29 15,-40 11,-12 26,-18 44,-18l73 0c9,0 14,4 14,14l0 175c0,5 -1,9 -4,11 -2,3 -6,4 -10,4 -4,0 -7,-1 -10,-4 -3,-2 -5,-6 -5,-11l0 -73 -36 0z"/>
    </g>
   </g>
   <path class="fil6" d="M6388 13574l0 -10672 77 0 0 10672 -77 0z"/>
   <path class="fil6" d="M3129 8162l3322 0 0 76 -3322 0 0 -76z"/>
   <path class="fil7" d="M6427 13301c-151,0 -273,123 -273,273 0,151 122,273 273,273 151,0 273,-122 273,-273 0,-150 -122,-273 -273,-273z"/>
   <path class="fil8" d="M6427 13382c-107,0 -193,86 -193,192 0,107 86,193 193,193 106,0 192,-86 192,-193 0,-106 -86,-192 -192,-192z"/>
   <path class="fil7" d="M6427 13443c-73,0 -131,59 -131,131 0,73 58,131 131,131 72,0 131,-58 131,-131 0,-72 -59,-131 -131,-131z"/>
   <path class="fil9" d="M6427 9744c-151,0 -273,122 -273,273 0,151 122,273 273,273 151,0 273,-122 273,-273 0,-151 -122,-273 -273,-273z"/>
   <path class="fil8" d="M6427 9824c-107,0 -193,87 -193,193 0,106 86,193 193,193 106,0 192,-87 192,-193 0,-106 -86,-193 -192,-193z"/>
   <path class="fil9" d="M6427 9886c-73,0 -131,59 -131,131 0,72 58,131 131,131 72,0 131,-59 131,-131 0,-72 -59,-131 -131,-131z"/>
   <path class="fil10" d="M6427 6187c-151,0 -273,122 -273,273 0,151 122,273 273,273 151,0 273,-122 273,-273 0,-151 -122,-273 -273,-273z"/>
   <path class="fil8" d="M6427 6267c-107,0 -193,86 -193,193 0,106 86,192 193,192 106,0 192,-86 192,-192 0,-107 -86,-193 -192,-193z"/>
   <path class="fil10" d="M6427 6329c-73,0 -131,58 -131,131 0,72 58,131 131,131 72,0 131,-59 131,-131 0,-73 -59,-131 -131,-131z"/>
   <path class="fil11" d="M6427 2629c-151,0 -273,122 -273,273 0,151 122,273 273,273 151,0 273,-122 273,-273 0,-151 -122,-273 -273,-273z"/>
   <path class="fil8" d="M6427 2710c-107,0 -193,86 -193,192 0,107 86,193 193,193 106,0 192,-86 192,-193 0,-106 -86,-192 -192,-192z"/>
   <path class="fil11" d="M6427 2771c-73,0 -131,59 -131,131 0,73 58,131 131,131 72,0 131,-58 131,-131 0,-72 -59,-131 -131,-131z"/>
   <path class="fil12" d="M4894 8238c0,1249 -1013,2262 -2262,2262 -1249,0 -2261,-1013 -2261,-2262 0,-1249 1012,-2261 2261,-2261 1249,0 2262,1012 2262,2261z"/>
   <path class="fil5 str0" d="M1134 7973l54 -496c0,-17 10,-26 29,-26l174 0c19,0 29,10 29,29l0 493 29 0c20,0 29,9 29,28l0 58c0,8 -3,15 -9,20 -5,6 -12,9 -20,9 -6,0 -13,-3 -19,-7 -6,-5 -9,-12 -9,-22l0 -29 -291 0 0 29c0,8 -3,15 -9,20 -5,6 -12,9 -19,9 -7,0 -13,-3 -20,-7 -6,-5 -9,-12 -9,-22l0 -58c0,-19 9,-28 29,-28l32 0zm228 0l0 -464 -119 0 -52 464 171 0zm521 -290l0 -203c0,-8 3,-14 9,-20 6,-6 12,-9 20,-9 7,0 14,3 20,7 6,5 9,12 9,22l0 521c0,8 -3,15 -9,21 -7,6 -14,8 -21,8 -7,0 -13,-2 -20,-7 -5,-4 -8,-12 -8,-21l0 -261 -232 0 0 260c0,9 -3,17 -8,22 -5,5 -12,7 -21,7 -7,0 -14,-2 -20,-7 -6,-5 -8,-12 -8,-22l0 -521c0,-7 2,-14 8,-21 6,-5 13,-8 20,-8 8,0 14,3 20,8 6,5 9,12 9,22l0 202 232 0zm231 0l146 0c8,0 15,3 20,9 6,6 9,13 9,20 0,7 -3,13 -8,19 -4,7 -12,10 -21,10l-146 0 0 232 204 0c8,0 14,3 20,9 6,5 9,12 9,19 0,7 -3,14 -8,20 -4,6 -12,9 -21,9l-233 0c-19,0 -28,-9 -28,-27l0 -523c0,-19 9,-29 28,-29l233 0c8,0 15,3 20,9 6,6 9,13 9,20 0,7 -3,13 -8,19 -4,7 -12,10 -21,10l-204 0 0 174zm579 -289l-116 0c-8,0 -16,-3 -21,-8 -5,-7 -8,-14 -8,-21 0,-7 3,-13 8,-20 5,-6 12,-9 21,-9l116 0c8,0 15,3 21,9 5,6 8,12 8,20 0,6 -2,13 -7,19 -5,6 -12,10 -22,10zm116 607c0,9 -3,17 -8,22 -6,5 -13,7 -21,7 -8,0 -14,-2 -20,-7 -6,-5 -9,-12 -9,-22l0 -409 -235 423c-3,6 -7,11 -13,14l-6 4c-2,1 -5,2 -9,2 -5,0 -12,-3 -19,-9 -5,-5 -7,-14 -7,-24l0 -521c0,-8 2,-15 8,-22 6,-5 13,-8 20,-8 8,0 15,3 20,8 6,5 9,12 9,22l0 409 235 -423c3,-5 7,-10 13,-14 5,-4 10,-6 15,-6 7,0 13,3 18,10 6,5 9,13 9,23l0 521zm524 -28l55 -496c0,-17 9,-26 29,-26l173 0c19,0 29,10 29,29l0 493 29 0c20,0 29,9 29,28l0 58c0,8 -2,15 -8,20 -6,6 -13,9 -20,9 -7,0 -13,-3 -20,-7 -6,-5 -9,-12 -9,-22l0 -29 -291 0 0 29c0,8 -2,15 -8,20 -6,6 -13,9 -20,9 -7,0 -13,-3 -20,-7 -6,-5 -9,-12 -9,-22l0 -58c0,-19 10,-28 29,-28l32 0zm228 0l0 -464 -118 0 -52 464 170 0zm553 -59c0,32 -12,59 -34,82 -23,23 -50,34 -82,34l-116 0c-31,0 -58,-11 -81,-33 -23,-23 -34,-50 -34,-83l0 -347c0,-32 11,-60 33,-82 23,-23 50,-34 82,-34l116 0c32,0 60,11 82,34 22,23 34,50 34,82l0 347zm-58 1l0 -348c0,-17 -5,-30 -16,-41 -11,-12 -25,-17 -42,-17l-116 0c-16,0 -30,5 -41,16 -6,6 -10,12 -13,19 -2,7 -4,15 -4,23l0 348c0,16 6,30 17,41 6,5 12,9 18,13 9,2 16,4 23,4l116 0c16,0 30,-6 41,-17 12,-10 17,-24 17,-41zm-2785 711c16,10 29,24 40,42 10,18 15,37 15,57l0 116c0,32 -11,59 -34,82 -23,22 -50,34 -82,34l-202 0c-20,0 -29,-10 -29,-29l0 -522c0,-19 9,-28 29,-28l173 0c32,0 60,11 82,33 23,23 34,50 34,82l0 58c0,14 -2,26 -6,39 -4,12 -11,24 -20,36zm-235 41l0 232 174 0c16,0 30,-5 41,-16 12,-11 17,-25 17,-42l0 -116c0,-16 -5,-30 -16,-41 -11,-11 -25,-17 -42,-17l-174 0zm145 -58c16,0 30,-5 42,-16 11,-11 16,-25 16,-42l0 -58c0,-16 -5,-30 -16,-41 -11,-11 -25,-17 -42,-17l-145 0 0 175 145 -1zm666 319c0,9 -2,16 -8,22 -5,4 -12,7 -21,7 -7,0 -14,-3 -20,-8 -6,-4 -8,-12 -8,-21l0 -522c0,-7 2,-14 8,-21 6,-5 13,-7 20,-7 8,0 14,2 21,7 5,5 8,12 8,21l0 522zm-348 -261l0 232 116 0c17,0 30,-5 42,-16 11,-11 17,-25 17,-42l0 -116c0,-16 -6,-30 -17,-41 -11,-11 -25,-17 -42,-17l-116 0zm0 -57l116 0c32,0 59,11 82,33 23,23 34,50 34,82l0 116c0,32 -11,59 -34,82 -22,22 -50,34 -82,34l-144 0c-20,0 -29,-10 -29,-29l0 -522c0,-7 2,-14 8,-21 6,-5 13,-7 20,-7 8,0 15,2 20,7 6,5 9,12 9,21l0 204zm521 57l0 232 174 0c16,0 30,-5 41,-16 11,-11 17,-25 17,-42l0 -116c0,-16 -5,-30 -16,-41 -11,-11 -25,-17 -42,-17l-174 0zm0 -57l174 0c31,0 58,11 81,33 23,23 35,50 35,82l0 116c0,32 -12,59 -34,82 -23,22 -50,34 -82,34l-203 0c-19,0 -29,-10 -29,-29l0 -522c0,-19 10,-28 29,-28l232 0c8,0 15,3 20,8 6,6 9,13 9,20 0,7 -2,13 -7,20 -5,6 -12,9 -22,9l-203 0 0 175zm753 231c0,32 -12,59 -34,82 -23,22 -50,34 -82,34l-116 0c-31,0 -58,-12 -81,-34 -23,-22 -35,-50 -35,-82l0 -348c0,-32 12,-59 34,-82 23,-22 50,-33 82,-33l116 0c32,0 59,11 82,33 22,23 34,50 34,82l0 348zm-58 0l0 -348c0,-16 -5,-30 -16,-41 -11,-11 -25,-17 -42,-17l-116 0c-16,0 -30,6 -41,17 -6,5 -10,11 -13,19 -3,7 -4,14 -4,22l0 348c0,16 6,30 17,42 5,5 12,9 18,12 9,3 16,4 23,4l116 0c16,0 30,-5 41,-16 11,-11 17,-25 17,-42zm277 -174l174 0c16,0 30,-5 41,-16 12,-11 17,-25 17,-42l0 -116c0,-16 -5,-30 -16,-41 -11,-11 -25,-17 -42,-17l-174 0 0 232zm0 58l0 203c0,9 -2,16 -8,22 -5,4 -12,7 -20,7 -8,0 -15,-3 -21,-8 -5,-4 -8,-12 -8,-21l0 -522c0,-19 9,-28 29,-28l202 0c32,0 60,11 82,33 23,23 34,50 34,82l0 116c0,32 -11,59 -34,82 -23,22 -50,34 -82,34l-174 0zm753 116c0,32 -11,59 -34,82 -23,22 -50,34 -82,34l-116 0c-31,0 -58,-12 -81,-34 -23,-22 -34,-50 -34,-82l0 -348c0,-32 11,-59 33,-82 23,-22 50,-33 82,-33l116 0c32,0 60,11 82,33 23,23 34,50 34,82l0 348zm-58 0l0 -348c0,-16 -5,-30 -16,-41 -11,-11 -25,-17 -42,-17l-116 0c-16,0 -30,6 -41,17 -6,5 -10,11 -13,19 -2,7 -4,14 -4,22l0 348c0,16 6,30 17,42 6,5 12,9 19,12 8,3 15,4 22,4l116 0c16,0 30,-5 41,-16 12,-11 17,-25 17,-42zm512 -215c16,10 30,24 40,42 10,18 15,37 15,57l0 116c0,32 -11,59 -34,82 -22,22 -50,34 -82,34l-202 0c-19,0 -29,-10 -29,-29l0 -522c0,-19 10,-28 29,-28l174 0c32,0 59,11 82,33 22,23 33,50 33,82l0 58c0,14 -2,26 -6,39 -4,12 -11,24 -20,36zm-234 41l0 232 174 0c16,0 29,-5 41,-16 11,-11 17,-25 17,-42l0 -116c0,-16 -6,-30 -17,-41 -11,-11 -25,-17 -41,-17l-174 0zm145 -58c16,0 29,-5 41,-16 11,-11 17,-25 17,-42l0 -58c0,-16 -6,-30 -17,-41 -10,-11 -24,-17 -41,-17l-145 0 0 175 145 -1z"/>
   <path class="fil7 str1" d="M4951 13893c0,14 -4,25 -12,33 -8,7 -18,10 -31,10 -11,0 -22,-3 -30,-10 -9,-8 -13,-19 -13,-33l0 -677 -100 100c-9,8 -19,13 -30,13 -10,0 -20,-5 -30,-13 -9,-9 -14,-20 -14,-31 0,-10 5,-20 13,-30l173 -175c6,-5 12,-10 18,-14 7,-3 13,-5 21,-5 7,0 15,4 25,13 7,9 10,21 10,37l0 782zm434 0c0,14 -4,25 -12,33 -8,7 -18,10 -31,10 -11,0 -21,-3 -30,-10 -9,-8 -13,-19 -13,-33l0 -677 -100 100c-8,8 -18,13 -30,13 -10,0 -20,-5 -30,-13 -9,-9 -14,-20 -14,-31 0,-10 5,-20 13,-30l174 -175c5,-5 11,-10 18,-14 6,-3 13,-5 20,-5 7,0 15,4 25,13 7,9 10,21 10,37l0 782zm608 -148c0,52 -18,97 -55,135 -37,38 -82,56 -136,56l-52 0c-51,0 -96,-18 -134,-55 -38,-37 -57,-82 -57,-136l0 -486c0,-51 19,-96 56,-134 37,-38 82,-57 135,-57l52 0c52,0 97,18 135,55 38,37 56,83 56,136l0 486zm-86 1l0 -488c0,-28 -10,-53 -30,-73 -20,-21 -45,-31 -75,-31l-52 0c-29,0 -53,10 -74,31 -20,20 -31,44 -31,73l0 488c0,28 11,53 31,73 20,21 45,31 74,31l52 0c29,0 53,-10 74,-30 21,-20 31,-44 31,-74z"/>
   <path class="fil9 str2" d="M4864 10335c0,13 -4,24 -12,33 -8,7 -18,10 -31,10 -11,0 -21,-3 -30,-11 -9,-7 -13,-18 -13,-32l0 -677 -100 99c-8,9 -18,13 -30,13 -10,0 -20,-4 -30,-13 -9,-9 -14,-19 -14,-31 0,-10 5,-20 14,-30l173 -174c5,-6 12,-10 18,-14 6,-3 13,-5 20,-5 7,0 15,4 25,13 7,9 10,21 10,36l0 783zm608 -148c0,52 -18,97 -55,134 -37,38 -82,57 -136,57l-52 0c-51,0 -96,-18 -134,-55 -38,-37 -57,-82 -57,-136l0 -486c0,-51 19,-96 56,-134 37,-38 82,-57 135,-57l52 0c52,0 97,18 135,55 38,37 56,82 56,136l0 486zm-86 0l0 -487c0,-28 -10,-53 -30,-73 -20,-21 -45,-31 -74,-31l-53 0c-29,0 -53,10 -74,30 -20,21 -30,45 -30,74l0 487c0,29 10,54 30,74 20,21 45,31 74,31l53 0c28,0 52,-10 73,-30 21,-20 31,-45 31,-75zm694 0c0,52 -18,97 -55,134 -37,38 -83,57 -136,57l-52 0c-52,0 -97,-18 -134,-55 -38,-37 -57,-82 -57,-136l0 -486c0,-51 18,-96 56,-134 37,-38 82,-57 135,-57l52 0c52,0 97,18 134,55 38,37 57,82 57,136l0 486zm-86 0l0 -487c0,-28 -10,-53 -30,-73 -21,-21 -45,-31 -75,-31l-52 0c-29,0 -53,10 -74,30 -20,21 -31,45 -31,74l0 487c0,29 10,54 31,74 20,21 45,31 74,31l52 0c28,0 53,-10 74,-30 20,-20 31,-45 31,-75z"/>
   <path class="fil10 str3" d="M5168 6305l1 -19 0 -24 0 -218c0,-24 -8,-45 -24,-61 -17,-17 -38,-26 -63,-26l-87 0c-25,0 -45,9 -62,25 -9,9 -15,18 -19,29 -4,10 -6,21 -6,33l0 174c0,25 8,46 25,63 8,7 18,13 28,18 12,4 24,6 34,6l173 0zm-16 87l-157 0c-47,0 -87,-17 -122,-50 -34,-34 -52,-75 -52,-124l0 -173c0,-48 17,-89 51,-123 34,-34 75,-51 123,-51l87 0c48,0 89,17 123,51 34,34 51,75 51,123l0 216c0,84 -16,162 -48,235 -22,54 -54,102 -95,144 -42,42 -90,74 -145,96l-18 4c-10,0 -20,-5 -29,-14 -8,-10 -13,-20 -13,-32 0,-7 2,-14 6,-20 3,-7 10,-13 21,-17 22,-9 42,-20 61,-32 19,-13 37,-28 55,-46 32,-33 58,-72 78,-118l12 -33 11 -36zm711 157c0,51 -18,96 -55,134 -37,38 -82,57 -136,57l-52 0c-52,0 -96,-19 -134,-55 -38,-37 -57,-83 -57,-136l0 -487c0,-51 19,-95 56,-134 37,-38 82,-57 135,-57l52 0c52,0 97,18 135,56 37,37 56,82 56,135l0 487zm-86 0l0 -487c0,-29 -10,-53 -30,-74 -20,-20 -45,-31 -75,-31l-52 0c-29,0 -53,11 -74,31 -20,20 -31,45 -31,74l0 487c0,29 11,53 31,74 20,20 45,30 74,30l52 0c29,0 53,-10 74,-29 21,-20 31,-45 31,-75z"/>
   <path class="fil11 str4" d="M5039 2727c39,0 72,-14 98,-41 21,-26 32,-56 32,-90 0,-36 -11,-65 -32,-90 -24,-27 -57,-41 -98,-41 -38,0 -71,14 -98,41 -21,25 -32,55 -32,90 0,35 11,65 32,90 24,27 56,41 98,41zm0 86c-55,0 -99,18 -131,54 -29,33 -44,73 -44,120 0,47 15,86 44,119 33,37 76,55 131,55 55,0 99,-18 131,-54 29,-33 44,-73 44,-120 0,-46 -15,-86 -43,-119 -33,-37 -77,-55 -132,-55zm143 -48c39,22 68,53 88,93 20,40 30,83 30,129 0,68 -22,128 -65,178 -48,55 -114,82 -196,82 -82,0 -147,-27 -196,-80 -43,-49 -65,-109 -65,-180 0,-46 10,-89 29,-128 19,-40 49,-71 89,-95 -24,-20 -42,-45 -54,-75 -13,-30 -20,-61 -20,-93 0,-58 18,-108 54,-150 40,-45 95,-67 163,-67 67,0 121,22 162,67 36,42 54,92 54,150 0,32 -6,63 -18,93 -12,30 -30,56 -55,76zm725 291c0,52 -19,97 -56,135 -37,37 -82,56 -135,56l-52 0c-52,0 -97,-18 -135,-55 -38,-37 -57,-82 -57,-136l0 -486c0,-51 19,-96 56,-134 38,-38 83,-57 136,-57l52 0c51,0 96,18 134,55 38,37 57,82 57,136l0 486zm-87 1l0 -488c0,-28 -10,-53 -30,-73 -20,-21 -45,-31 -74,-31l-53 0c-28,0 -53,10 -73,30 -21,21 -31,45 -31,74l0 488c0,28 10,53 30,73 21,21 45,31 74,31l53 0c28,0 53,-10 73,-30 21,-20 31,-45 31,-74z"/>
   <path class="fil6" d="M7238 13350l0 -7163 77 0 0 7163 -77 0z"/>
   <path class="fil7" d="M7277 13301c-151,0 -273,123 -273,273 0,151 122,273 273,273 151,0 273,-122 273,-273 0,-150 -122,-273 -273,-273z"/>
   <path class="fil8" d="M7277 13382c-107,0 -193,86 -193,192 0,107 86,193 193,193 106,0 192,-86 192,-193 0,-106 -86,-192 -192,-192z"/>
   <path class="fil7" d="M7277 13443c-73,0 -131,59 -131,131 0,73 58,131 131,131 72,0 131,-58 131,-131 0,-72 -59,-131 -131,-131z"/>
   <path class="fil10" d="M7297 6187c-151,0 -273,122 -273,273 0,151 122,273 273,273 151,0 273,-122 273,-273 0,-151 -122,-273 -273,-273z"/>
   <path class="fil8" d="M7297 6267c-107,0 -193,86 -193,193 0,106 86,192 193,192 106,0 192,-86 192,-192 0,-107 -86,-193 -192,-193z"/>
   <path class="fil10" d="M7297 6329c-73,0 -131,58 -131,131 0,72 58,131 131,131 72,0 131,-59 131,-131 0,-73 -59,-131 -131,-131z"/>
   <path class="fil5 str0" d="M7710 9571l0 262 29 0c32,0 59,-11 82,-34 22,-23 34,-50 34,-83l0 -29c0,-31 -11,-58 -34,-81 -22,-24 -50,-35 -82,-35l-29 0zm-58 262l0 -262 -29 0c-31,0 -58,11 -81,34 -23,22 -34,50 -34,82l0 29c0,32 11,60 33,83 23,23 50,34 82,34l29 0zm0 58l-29 0c-48,0 -89,-17 -122,-51 -34,-34 -51,-75 -51,-124l0 -29c0,-47 17,-88 51,-122 34,-35 75,-52 122,-52l29 0 0 -58c0,-7 3,-14 9,-21 6,-5 13,-7 20,-7 7,0 14,2 20,7 6,5 9,12 9,21l0 58 29 0c48,0 89,17 122,51 16,17 29,35 38,56 9,20 13,43 13,67l0 29c0,47 -17,88 -50,123 -34,34 -75,52 -123,52l-29 0 0 86c0,9 -3,16 -8,22 -5,4 -12,7 -21,7 -7,0 -14,-3 -20,-7 -6,-5 -9,-12 -9,-22l0 -86zm434 -232l146 0c8,0 15,3 20,9 6,5 9,12 9,19 0,7 -2,14 -7,20 -5,6 -12,9 -22,9l-146 0 0 232 204 0c8,0 15,3 20,9 6,6 9,13 9,20 0,7 -2,13 -7,20 -5,6 -12,9 -22,9l-232 0c-20,0 -29,-9 -29,-28l0 -522c0,-20 9,-29 29,-29l232 0c8,0 15,3 20,9 6,5 9,12 9,19 0,7 -2,14 -7,20 -5,6 -12,9 -22,9l-204 0 0 175zm409 289l55 -496c0,-17 9,-25 29,-25l173 0c19,0 29,9 29,29l0 492 29 0c20,0 29,10 29,29l0 58c0,8 -2,14 -8,20 -6,6 -13,8 -20,8 -7,0 -13,-2 -20,-7 -6,-5 -9,-12 -9,-21l0 -29 -290 0 0 29c0,8 -3,14 -9,20 -6,6 -13,8 -20,8 -7,0 -13,-2 -20,-7 -6,-5 -9,-12 -9,-21l0 -58c0,-19 10,-29 29,-29l32 0zm229 0l0 -464 -119 0 -52 464 171 0zm288 -289l146 0c8,0 15,3 20,9 6,5 9,12 9,19 0,7 -2,14 -7,20 -5,6 -12,9 -22,9l-146 0 0 232 204 0c8,0 15,3 20,9 6,6 9,13 9,20 0,7 -2,13 -7,20 -5,6 -12,9 -22,9l-232 0c-20,0 -29,-9 -29,-28l0 -522c0,-20 9,-29 29,-29l232 0c8,0 15,3 20,9 6,5 9,12 9,19 0,7 -2,14 -7,20 -5,6 -12,9 -22,9l-204 0 0 175zm405 57l174 0c17,0 30,-5 42,-16 11,-11 16,-25 16,-42l0 -116c0,-16 -5,-30 -16,-41 -11,-11 -25,-17 -42,-17l-174 0 0 232zm0 58l0 203c0,9 -2,16 -8,22 -5,4 -12,7 -20,7 -8,0 -15,-3 -20,-7 -6,-5 -9,-13 -9,-22l0 -521c0,-20 10,-29 29,-29l202 0c33,0 60,11 82,34 23,22 34,50 34,81l0 116c0,32 -11,59 -34,82 -23,22 -50,34 -82,34l-174 0zm450 87l-42 125c-2,6 -6,11 -11,15 -4,2 -9,4 -16,5 -7,0 -14,-3 -20,-9 -6,-4 -9,-11 -9,-19l2 -11 174 -521c6,-16 15,-24 27,-24 12,0 21,8 27,24l174 521 2 11c0,7 -4,14 -10,20 -6,5 -13,8 -20,8 -4,0 -8,-1 -13,-3 -5,-2 -10,-8 -14,-17l-41 -125 -210 0zm190 -59l-85 -255 -85 255 170 0zm577 175c0,9 -3,16 -8,22 -6,4 -12,7 -21,7 -8,0 -14,-3 -20,-7 -6,-5 -9,-13 -9,-22l0 -493 -94 0 -139 500c-1,6 -4,11 -10,15 -5,5 -11,7 -17,7 -9,0 -16,-3 -22,-7 -5,-5 -8,-12 -8,-21 0,-4 1,-7 1,-9l145 -521c4,-14 14,-21 28,-21l145 0c19,0 29,9 29,29l0 521zm172 -261l174 0c17,0 30,6 42,17 11,11 16,25 16,41l0 116c0,17 -5,30 -16,42 -6,5 -12,9 -19,12 -7,3 -15,4 -23,4l-174 0 0 -232zm0 -57l0 -203c0,-8 -3,-15 -8,-21 -6,-5 -13,-8 -20,-8 -7,0 -13,2 -20,7 -6,5 -9,12 -9,22l0 521c0,19 9,29 29,29l202 0c31,0 58,-11 81,-34 23,-22 35,-49 35,-82l0 -116c0,-31 -11,-58 -34,-81 -22,-23 -50,-34 -82,-34l-174 0zm695 0l0 -204c0,-7 3,-14 9,-20 6,-5 13,-8 20,-8 8,0 14,2 20,7 6,5 9,12 9,22l0 520c0,8 -3,16 -9,22 -7,5 -14,8 -20,8 -7,0 -14,-3 -20,-7 -6,-5 -9,-12 -9,-22l0 -261 -232 0 0 261c0,9 -2,16 -8,22 -5,4 -12,7 -20,7 -8,0 -15,-3 -21,-7 -5,-5 -8,-13 -8,-22l0 -521c0,-8 3,-15 8,-22 6,-4 13,-7 21,-7 7,0 14,3 20,7 5,5 8,12 8,22l0 203 232 0zm579 318c0,9 -2,16 -8,22 -5,4 -12,7 -20,7 -8,0 -15,-3 -21,-7 -5,-5 -8,-13 -8,-22l0 -521c0,-8 3,-15 8,-22 6,-5 13,-7 21,-7 7,0 13,2 20,7 6,5 8,12 8,22l0 521zm-348 -261l0 232 117 0c16,0 29,-5 41,-16 11,-11 17,-25 17,-42l0 -116c0,-16 -6,-30 -17,-41 -11,-11 -24,-17 -41,-17l-117 0zm0 -57l116 0c32,0 59,11 82,33 23,23 34,50 34,82l0 116c0,32 -11,59 -33,82 -23,22 -50,34 -82,34l-145 0c-20,0 -29,-10 -29,-29l0 -521c0,-8 3,-15 8,-22 6,-5 13,-7 21,-7 7,0 14,2 20,7 5,5 8,12 8,22l0 203zm695 -290l-116 0c-8,0 -16,-2 -21,-8 -5,-6 -8,-13 -8,-21 0,-6 3,-13 8,-19 5,-6 12,-9 21,-9l116 0c8,0 15,3 21,8 5,6 8,13 8,20 0,7 -2,13 -7,20 -5,6 -12,9 -22,9zm116 608c0,9 -3,16 -8,22 -6,4 -13,7 -21,7 -8,0 -14,-3 -20,-7 -6,-5 -9,-13 -9,-22l0 -409 -235 423c-3,6 -7,10 -13,14l-6 4c-2,0 -5,1 -9,2 -5,0 -12,-3 -19,-9 -5,-6 -7,-14 -7,-25l0 -521c0,-8 2,-15 8,-22 6,-4 13,-7 20,-7 8,0 15,3 20,7 6,5 9,12 9,22l0 409 235 -423c3,-4 7,-9 13,-14 5,-4 10,-6 15,-6 7,0 13,4 18,10 6,6 9,14 9,24l0 521zm-3262 839c0,32 -11,59 -33,82 -23,23 -50,34 -82,34l-116 0c-32,0 -59,-11 -81,-34 -23,-22 -35,-49 -35,-82l0 -347c0,-32 12,-60 34,-82 22,-23 50,-34 82,-34l116 0c32,0 59,11 82,34 22,23 33,50 33,82l0 347zm-57 1l0 -348c0,-17 -6,-30 -17,-42 -10,-11 -24,-16 -41,-16l-116 0c-16,0 -30,5 -42,16 -5,6 -9,12 -12,19 -3,7 -4,15 -4,23l0 348c0,16 5,30 16,41 6,5 12,9 19,13 8,2 16,4 23,4l116 0c16,0 29,-6 41,-17 11,-10 17,-24 17,-41zm277 -174l174 0c16,0 30,-6 41,-17 11,-10 17,-24 17,-41l0 -116c0,-17 -5,-30 -16,-42 -11,-11 -25,-16 -42,-16l-174 0 0 232zm0 57l0 203c0,9 -3,17 -8,22 -5,5 -12,7 -21,7 -7,0 -14,-2 -20,-7 -6,-5 -8,-12 -8,-22l0 -521c0,-19 9,-29 28,-29l203 0c32,0 59,11 82,34 22,23 34,50 34,82l0 116c0,31 -12,58 -34,81 -23,23 -50,34 -82,34l-174 0zm666 -289l-203 0 0 492c0,9 -3,17 -8,22 -5,5 -12,7 -21,7 -7,0 -14,-2 -20,-7 -6,-5 -9,-12 -9,-22l0 -521c0,-19 10,-29 29,-29l232 0c8,0 15,3 21,9 5,6 8,13 8,20 0,7 -2,13 -7,19 -5,7 -12,10 -22,10zm125 376l-42 125c-2,6 -5,11 -10,15 -4,3 -10,4 -16,5 -8,0 -15,-3 -20,-8 -7,-5 -10,-12 -10,-20l2 -10 174 -521c6,-17 15,-25 28,-25 12,0 21,8 27,25l173 521 2 10c0,8 -3,14 -9,20 -6,6 -13,8 -21,8 -4,0 -8,-1 -13,-3 -4,-2 -9,-7 -13,-17l-42 -125 -210 0zm191 -59l-85 -255 -86 255 171 0zm518 -143l0 -203c0,-8 3,-15 9,-20 5,-6 12,-9 20,-9 7,0 14,2 20,7 6,5 9,12 9,22l0 520c0,9 -3,16 -10,22 -6,6 -13,8 -20,8 -7,0 -14,-2 -20,-7 -5,-4 -8,-12 -8,-21l0 -261 -232 0 0 260c0,9 -3,17 -8,22 -5,5 -12,7 -21,7 -7,0 -14,-2 -20,-7 -6,-5 -9,-12 -9,-22l0 -521c0,-7 3,-15 9,-21 6,-5 13,-8 20,-8 8,0 14,3 20,8 6,5 9,12 9,21l0 203 232 0z"/>
   <path class="fil6" d="M12958 10087l0 -3678 77 0 0 3678 -77 0z"/>
   <path class="fil9" d="M12997 9744c-151,0 -273,122 -273,273 0,151 122,273 273,273 151,0 273,-122 273,-273 0,-151 -122,-273 -273,-273z"/>
   <path class="fil8" d="M12997 9824c-107,0 -193,87 -193,193 0,106 86,193 193,193 106,0 192,-87 192,-193 0,-106 -86,-193 -192,-193z"/>
   <path class="fil9" d="M12997 9886c-73,0 -131,59 -131,131 0,72 58,131 131,131 72,0 131,-59 131,-131 0,-72 -59,-131 -131,-131z"/>
   <path class="fil10" d="M12997 6187c-151,0 -273,122 -273,273 0,151 122,273 273,273 151,0 273,-122 273,-273 0,-151 -122,-273 -273,-273z"/>
   <path class="fil8" d="M12997 6267c-107,0 -193,86 -193,193 0,106 86,192 193,192 106,0 192,-86 192,-192 0,-107 -86,-193 -192,-193z"/>
   <path class="fil10" d="M12997 6329c-73,0 -131,58 -131,131 0,72 58,131 131,131 72,0 131,-59 131,-131 0,-73 -59,-131 -131,-131z"/>
   <path class="fil5 str0" d="M13670 8334l-145 0c-31,0 -58,-11 -81,-34 -23,-22 -34,-50 -34,-82l0 -347c0,-33 11,-60 33,-83 23,-22 50,-33 82,-33l145 0c8,0 15,3 21,9 6,5 8,12 8,20 0,6 -2,13 -7,19 -5,6 -12,9 -22,9l-145 0c-16,0 -30,6 -41,17 -6,5 -10,12 -13,19 -2,7 -4,14 -4,22l0 348c0,17 6,30 17,42 6,5 12,9 18,12 9,3 16,4 23,4l145 0c8,0 15,3 21,9 6,6 8,13 8,20 0,7 -2,13 -7,19 -5,7 -12,10 -22,10zm434 -232l-173 0c-32,0 -59,-11 -82,-34 -23,-22 -34,-50 -34,-82l0 -202c0,-8 3,-15 8,-22 6,-5 13,-7 21,-7 7,0 14,2 19,7 6,5 9,12 9,22l0 202c0,17 6,31 17,42 6,5 12,9 19,12 8,3 15,4 22,4l174 0 0 -260c0,-8 3,-15 9,-22 6,-5 12,-7 20,-7 7,0 14,2 20,7 6,5 9,12 9,22l0 434c0,32 -11,59 -34,82 -23,22 -50,34 -82,34l-144 0c-9,0 -16,-3 -22,-8 -5,-6 -7,-13 -7,-21 0,-7 2,-13 7,-19 5,-7 13,-10 22,-10l144 0c16,0 30,-5 41,-16 12,-11 17,-25 17,-42l0 -116zm231 -58l0 232 174 0c16,0 30,-5 41,-16 12,-11 17,-25 17,-42l0 -116c0,-16 -5,-30 -16,-41 -11,-11 -25,-17 -42,-17l-174 0zm0 -57l174 0c31,0 59,11 82,33 22,23 34,50 34,82l0 116c0,32 -11,59 -34,82 -23,22 -50,34 -82,34l-202 0c-20,0 -29,-10 -29,-29l0 -521c0,-20 9,-29 29,-29l231 0c8,0 15,3 21,9 5,5 8,12 8,20 0,6 -2,13 -7,19 -5,6 -12,9 -22,9l-203 0 0 175zm579 57l0 232 174 0c16,0 30,-5 41,-16 12,-11 17,-25 17,-42l0 -116c0,-16 -5,-30 -16,-41 -11,-11 -25,-17 -42,-17l-174 0zm0 -57l174 0c32,0 60,11 82,34 23,22 34,50 34,81l0 116c0,32 -11,60 -34,82 -22,23 -50,34 -82,34l-202 0c-20,0 -29,-10 -29,-29l0 -493 -87 0c-9,0 -16,-2 -22,-7 -5,-7 -7,-14 -7,-21 0,-7 2,-13 7,-20 5,-6 12,-9 22,-9l115 0c20,0 29,9 29,29l0 203zm463 0l146 0c8,0 15,3 20,9 6,5 9,12 9,20 0,6 -3,13 -8,19 -4,6 -12,9 -21,9l-146 0 0 232 204 0c8,0 14,3 20,9 6,6 9,13 9,20 0,7 -3,13 -8,20 -4,6 -12,9 -21,9l-233 0c-19,0 -28,-9 -28,-28l0 -522c0,-20 9,-29 28,-29l233 0c8,0 15,3 20,9 6,5 9,12 9,20 0,6 -3,13 -8,19 -4,6 -12,9 -21,9l-204 0 0 175zm405 18l244 -242c6,-6 13,-8 20,-8 7,0 14,3 20,9 7,6 10,12 10,21 0,4 -3,11 -9,19l-173 172 178 314 4 16c0,7 -3,14 -9,19 -6,6 -13,9 -21,9 -10,0 -18,-5 -25,-15l-170 -302 -69 68 0 220c0,9 -2,16 -8,22 -5,4 -12,7 -21,7 -7,0 -14,-3 -20,-7 -5,-5 -8,-12 -8,-22l0 -522c0,-8 3,-14 9,-20 5,-5 12,-8 19,-8 8,0 15,2 21,6 5,5 8,13 8,22l0 222zm550 -193l-115 0c-9,0 -16,-2 -22,-7 -5,-7 -7,-14 -7,-21 0,-7 2,-13 7,-20 5,-6 12,-9 22,-9l289 0c8,0 15,3 20,9 6,5 9,12 9,20 0,6 -3,13 -7,19 -5,6 -13,9 -22,9l-116 0 0 493c0,9 -3,16 -8,22 -5,4 -12,7 -21,7 -7,0 -14,-3 -20,-7 -6,-5 -9,-12 -9,-22l0 -493zm-1765 1159l174 0c16,0 29,-6 41,-17 11,-10 17,-24 17,-41l0 -116c0,-17 -6,-30 -17,-41 -10,-12 -24,-17 -41,-17l-174 0 0 232zm0 57l0 203c0,9 -3,17 -8,22 -6,5 -13,7 -21,7 -8,0 -14,-2 -20,-7 -6,-5 -9,-12 -9,-22l0 -521c0,-19 10,-29 29,-29l203 0c32,0 59,11 82,34 22,23 33,50 33,82l0 116c0,31 -11,58 -34,81 -22,23 -49,34 -81,34l-174 0zm665 -203l0 263 29 0c32,0 59,-12 82,-35 23,-22 34,-50 34,-82l0 -29c0,-31 -11,-59 -34,-82 -22,-23 -49,-35 -82,-35l-29 0zm-57 263l0 -263 -29 0c-32,0 -59,11 -82,34 -23,23 -34,50 -34,83l0 29c0,32 11,59 34,82 22,23 50,35 82,35l29 0zm0 57l-29 0c-48,0 -89,-17 -123,-51 -34,-33 -51,-74 -51,-123l0 -29c0,-48 17,-88 51,-123 34,-34 75,-52 123,-52l29 0 0 -57c0,-8 2,-15 8,-22 6,-4 13,-7 20,-7 8,0 14,3 20,7 6,5 9,12 9,22l0 57 29 0c48,0 89,18 123,52 15,16 28,35 37,55 9,21 13,43 13,68l0 29c0,47 -16,88 -50,122 -34,35 -75,52 -123,52l-29 0 0 86c0,9 -3,17 -8,22 -5,5 -12,7 -21,7 -7,0 -14,-2 -20,-7 -6,-5 -8,-12 -8,-22l0 -86z"/>
   <path class="fil6" d="M15928 6571l0 -3546 77 0 0 3546 -77 0z"/>
   <path class="fil8" d="M8557 13382c-107,0 -193,86 -193,192 0,107 86,193 193,193 106,0 192,-86 192,-193 0,-106 -86,-192 -192,-192z"/>
   <path class="fil10" d="M15967 6187c-151,0 -273,122 -273,273 0,151 122,273 273,273 151,0 273,-122 273,-273 0,-151 -122,-273 -273,-273z"/>
   <path class="fil8" d="M15967 6267c-107,0 -193,86 -193,193 0,106 86,192 193,192 106,0 192,-86 192,-192 0,-107 -86,-193 -192,-193z"/>
   <path class="fil10" d="M15967 6329c-73,0 -131,58 -131,131 0,72 58,131 131,131 72,0 131,-59 131,-131 0,-73 -59,-131 -131,-131z"/>
   <path class="fil11" d="M15967 2629c-151,0 -273,122 -273,273 0,151 122,273 273,273 151,0 273,-122 273,-273 0,-151 -122,-273 -273,-273z"/>
   <path class="fil8" d="M15967 2710c-107,0 -193,86 -193,192 0,107 86,193 193,193 106,0 192,-86 192,-193 0,-106 -86,-192 -192,-192z"/>
   <path class="fil11" d="M15967 2771c-73,0 -131,59 -131,131 0,73 58,131 131,131 72,0 131,-58 131,-131 0,-72 -59,-131 -131,-131z"/>
   <path class="fil5 str0" d="M17117 4875c0,9 -3,16 -8,22 -5,4 -12,7 -21,7 -6,0 -13,-3 -19,-7 -7,-5 -10,-13 -10,-22l0 -413 -119 200c-7,12 -16,18 -26,18 -8,0 -16,-6 -25,-18l-120 -200 0 413c0,9 -3,16 -8,22 -5,4 -12,7 -21,7 -7,0 -14,-3 -20,-7 -6,-5 -9,-13 -9,-22l0 -519c0,-11 3,-19 9,-24 5,-6 11,-9 18,-9 5,0 10,1 14,4 4,3 9,8 13,15l149 248 149 -248c7,-13 16,-19 28,-19 6,0 13,3 18,9 5,6 8,15 8,24l0 519zm376 29l-145 0c-31,0 -58,-11 -81,-34 -23,-22 -35,-50 -35,-82l0 -347c0,-33 12,-60 34,-83 22,-22 50,-33 82,-33l145 0c8,0 15,3 20,9 6,5 9,12 9,19 0,7 -2,13 -7,20 -5,6 -12,9 -22,9l-145 0c-16,0 -30,6 -42,17 -5,5 -9,12 -12,19 -3,7 -4,14 -4,22l0 348c0,16 5,30 16,42 6,5 12,9 19,12 8,3 16,4 23,4l145 0c8,0 15,3 20,9 6,6 9,13 9,20 0,7 -2,13 -7,19 -5,7 -12,10 -22,10zm434 -232l-174 0c-31,0 -58,-11 -81,-34 -23,-22 -35,-50 -35,-82l0 -202c0,-8 3,-15 9,-22 6,-5 13,-7 20,-7 8,0 14,2 20,7 6,5 9,12 9,22l0 202c0,17 5,30 16,42 6,5 13,9 19,12 8,3 16,4 23,4l174 0 0 -260c0,-8 3,-15 9,-22 5,-5 12,-7 20,-7 7,0 14,2 20,7 6,5 9,12 9,22l0 434c0,32 -12,59 -34,82 -23,22 -50,34 -82,34l-145 0c-9,0 -16,-3 -21,-8 -5,-6 -8,-13 -8,-21 0,-7 3,-13 8,-19 5,-7 12,-10 21,-10l145 0c16,0 30,-5 41,-16 11,-11 17,-25 17,-42l0 -116z"/>
   <path class="fil5 str0" d="M2725 1496l0 -145c0,-7 2,-14 8,-21 6,-5 13,-8 20,-8 8,0 15,3 20,8 6,5 9,12 9,21l0 348c0,9 -2,16 -8,22 -5,5 -12,7 -21,7 -7,0 -14,-2 -20,-7 -6,-5 -8,-12 -8,-22l0 -145 -175 0 0 145c0,9 -2,16 -8,22 -5,5 -12,7 -21,7 -7,0 -14,-2 -20,-7 -6,-5 -8,-12 -8,-22l0 -348c0,-7 2,-14 8,-21 6,-5 13,-8 20,-8 8,0 15,3 20,8 6,4 9,12 9,21l0 145 175 0zm230 1l175 0 0 -59c0,-16 -6,-30 -17,-41 -11,-11 -24,-17 -41,-17l-59 0c-16,0 -30,5 -41,17 -6,5 -10,12 -13,19 -2,7 -4,14 -4,22l0 59zm0 57l0 58c0,17 6,30 17,42 6,5 12,9 19,12 8,3 15,4 22,4l145 0c8,0 15,3 21,9 6,6 8,13 8,20 0,7 -2,13 -7,20 -5,6 -12,9 -22,9l-144 0c-32,0 -59,-11 -82,-34 -23,-22 -34,-50 -34,-82l0 -174c0,-31 11,-58 33,-81 23,-23 50,-35 83,-35l57 0c32,0 59,12 82,34 23,23 34,50 34,82l0 87c0,20 -9,29 -29,29l-203 0zm985 145c0,9 -3,16 -8,22 -6,5 -13,7 -21,7 -8,0 -14,-2 -20,-7 -6,-5 -9,-12 -9,-22l0 -261c0,-16 -5,-30 -16,-41 -11,-11 -25,-17 -42,-17l-116 0 0 319c0,9 -3,16 -8,22 -6,5 -13,7 -21,7 -8,0 -14,-2 -20,-7 -6,-5 -9,-12 -9,-22l0 -348c0,-19 10,-29 29,-29l145 0c31,0 58,12 81,34 23,22 35,49 35,82l0 261zm405 -98c0,34 -12,64 -37,89 -25,25 -55,38 -91,38l-34 0c-35,0 -65,-12 -90,-37 -25,-24 -38,-55 -38,-90l0 -151c0,-34 13,-64 38,-89 24,-26 54,-39 90,-39l34 0c35,0 65,13 90,37 25,25 38,55 38,91l0 151zm-58 0l0 -151c0,-19 -6,-36 -20,-49 -13,-14 -30,-21 -49,-21l-35 0c-19,0 -36,7 -50,20 -13,14 -20,30 -20,50l0 151c0,19 7,35 20,49 14,13 30,20 50,20l35 0c18,0 35,-6 49,-20 13,-13 20,-29 20,-49zm326 -47l-36 0c-9,0 -16,-3 -22,-9 -5,-5 -7,-12 -7,-20 0,-7 2,-14 7,-20 5,-6 13,-9 22,-9l29 0c17,0 31,-6 42,-18 10,-11 16,-25 16,-40 0,-16 -5,-30 -14,-40 -5,-5 -11,-10 -19,-13 -7,-3 -16,-5 -25,-5l-29 0c-27,0 -50,8 -70,24 -5,3 -11,5 -18,6 -6,0 -12,-3 -20,-9 -5,-6 -8,-13 -8,-21 0,-9 4,-17 11,-23 30,-23 65,-35 105,-35l28 0c37,0 66,12 87,36 20,22 29,49 29,80 0,9 0,18 -2,25 -1,8 -4,15 -7,23 -5,13 -14,26 -27,39 11,10 20,23 27,40l7 23c1,7 2,15 2,25 0,31 -9,58 -29,79 -20,24 -49,36 -87,36l-28 0c-39,0 -74,-12 -105,-35 -8,-6 -12,-13 -12,-23 0,-6 3,-13 9,-20 6,-7 13,-10 20,-10 6,0 12,2 18,7 20,16 43,23 70,23l29 0c17,0 31,-6 42,-17 10,-12 16,-26 16,-41 0,-15 -4,-28 -13,-38 -8,-11 -21,-17 -38,-20zm456 -174l-117 0c-16,0 -30,5 -41,17 -6,5 -10,11 -13,18 -2,7 -4,15 -4,23l0 174c0,17 6,30 17,42 6,5 12,9 18,12 9,3 16,4 23,4l58 0c17,0 30,-5 42,-16 11,-11 17,-25 17,-42l0 -232zm0 -58l0 -58c0,-16 -6,-30 -17,-41 -11,-11 -25,-17 -41,-17l-116 0c-9,0 -16,-2 -22,-7 -5,-7 -7,-14 -7,-21 0,-7 2,-13 7,-20 5,-6 12,-9 21,-9l116 0c33,0 60,11 82,34 23,22 34,50 34,82l0 347c0,32 -11,59 -34,82 -22,23 -50,34 -82,34l-58 0c-31,0 -58,-11 -81,-34 -23,-22 -34,-49 -34,-82l0 -174c0,-32 11,-59 34,-82 22,-22 50,-34 82,-34l116 0zm405 174l0 -145c0,-7 3,-14 8,-21 6,-5 13,-8 21,-8 7,0 14,3 19,8 6,5 9,12 9,21l0 348c0,9 -2,16 -8,22 -5,5 -12,7 -20,7 -8,0 -15,-2 -21,-7 -5,-5 -8,-12 -8,-22l0 -145 -175 0 0 145c0,9 -2,16 -8,22 -5,5 -12,7 -20,7 -8,0 -15,-2 -21,-7 -5,-5 -8,-12 -8,-22l0 -348c0,-7 3,-14 8,-21 6,-5 13,-8 21,-8 7,0 14,3 19,8 6,4 9,12 9,21l0 145 175 0zm230 1l175 0 0 -59c0,-16 -6,-30 -16,-41 -11,-11 -25,-17 -42,-17l-58 0c-17,0 -31,5 -42,17 -5,5 -10,12 -12,19 -3,7 -5,14 -5,22l0 59zm0 57l0 58c0,17 6,30 17,42 6,5 12,9 19,12 8,3 16,4 22,4l146 0c7,0 14,3 20,9 6,6 8,13 8,20 0,7 -2,13 -7,20 -5,6 -12,9 -21,9l-145 0c-32,0 -59,-11 -82,-34 -23,-22 -34,-50 -34,-82l0 -174c0,-31 11,-58 33,-81 23,-23 50,-35 83,-35l58 0c31,0 58,12 81,34 23,23 34,50 34,82l0 87c0,20 -9,29 -28,29l-204 0zm406 -57l174 0 0 -59c0,-16 -5,-30 -16,-41 -11,-11 -25,-17 -42,-17l-58 0c-17,0 -30,5 -42,17 -5,5 -9,12 -12,19 -3,7 -4,14 -4,22l0 59zm0 57l0 58c0,17 5,30 16,42 6,5 12,9 19,12 8,3 16,4 23,4l145 0c8,0 14,3 20,9 6,6 9,13 9,20 0,7 -3,13 -8,20 -4,6 -12,9 -21,9l-145 0c-32,0 -59,-11 -82,-34 -23,-22 -34,-50 -34,-82l0 -174c0,-31 11,-58 33,-81 23,-23 50,-35 83,-35l58 0c31,0 58,12 81,34 23,23 35,50 35,82l0 87c0,20 -10,29 -29,29l-203 0zm926 -58l0 -145c0,-7 3,-14 9,-21 6,-5 13,-8 20,-8 8,0 14,3 20,8 6,5 9,12 9,21l0 348c0,9 -3,16 -8,22 -5,5 -12,7 -21,7 -7,0 -14,-2 -20,-7 -6,-5 -9,-12 -9,-22l0 -145 -116 0c-31,0 -58,-12 -81,-34 -23,-22 -35,-50 -35,-82l0 -87c0,-7 3,-15 9,-21 6,-5 13,-8 20,-8 8,0 14,3 20,8 6,4 9,12 9,21l0 87c0,16 6,30 17,41 5,5 12,10 18,13 9,3 16,4 23,4l116 0zm231 1l175 0 0 -59c0,-16 -6,-30 -17,-41 -11,-11 -25,-17 -42,-17l-58 0c-16,0 -30,5 -41,17 -6,5 -10,12 -13,19 -2,7 -4,14 -4,22l0 59zm0 57l0 58c0,17 6,30 17,42 6,5 12,9 18,12 9,3 16,4 23,4l145 0c8,0 15,3 21,9 5,6 8,13 8,20 0,7 -2,13 -7,20 -5,6 -12,9 -22,9l-145 0c-31,0 -58,-11 -81,-34 -23,-22 -34,-50 -34,-82l0 -174c0,-31 11,-58 33,-81 22,-23 50,-35 82,-35l58 0c32,0 59,12 82,34 23,23 34,50 34,82l0 87c0,20 -9,29 -29,29l-203 0zm695 145l0 -347c0,-11 -3,-19 -8,-25 -5,-6 -11,-9 -18,-9 -8,0 -17,6 -27,17l-121 169 -121 -169c-8,-11 -16,-17 -27,-17 -6,0 -12,3 -18,9 -5,6 -7,14 -7,25l0 347c0,9 2,16 8,22 5,5 12,7 20,7 7,0 14,-3 20,-8 6,-5 9,-12 9,-21l0 -257 93 129c7,10 15,16 23,16 8,0 16,-6 24,-16l92 -129 0 257c0,9 3,16 8,22 6,5 13,7 21,7 7,0 13,-3 20,-8 6,-5 9,-12 9,-21zm616 -145l-37 0c-9,0 -16,-3 -21,-9 -5,-5 -8,-12 -8,-20 0,-7 3,-14 8,-20 5,-6 12,-9 21,-9l29 0c18,0 32,-6 42,-18 11,-11 16,-25 16,-40 0,-16 -5,-30 -14,-40 -5,-5 -11,-10 -18,-13 -8,-3 -16,-5 -26,-5l-29 0c-27,0 -50,8 -69,24 -5,3 -11,5 -18,6 -6,0 -13,-3 -20,-9 -6,-6 -9,-13 -9,-21 0,-9 4,-17 12,-23 30,-23 64,-35 104,-35l29 0c36,0 65,12 87,36 19,22 29,49 29,80 0,9 -1,18 -2,25 -2,8 -4,15 -7,23 -6,13 -15,26 -28,39 11,10 20,23 28,40l6 23c2,7 3,15 3,25 0,31 -10,58 -29,79 -21,24 -50,36 -87,36l-29 0c-39,0 -73,-12 -104,-35 -8,-6 -12,-13 -12,-23 0,-6 3,-13 9,-20 5,-7 12,-10 20,-10 5,0 11,2 18,7 20,16 43,23 69,23l29 0c18,0 32,-6 42,-17 11,-12 16,-26 16,-41 0,-15 -4,-28 -12,-38 -9,-11 -21,-17 -38,-20zm455 58l0 -232 -116 0c-17,0 -30,5 -42,17 -5,5 -9,11 -12,18 -3,7 -4,15 -4,23l0 174c0,17 5,30 16,42 6,5 12,9 19,12 8,3 16,4 23,4l58 0c16,0 30,-5 41,-16 11,-11 17,-25 17,-42zm28 78c-9,11 -22,20 -38,27 -16,7 -32,11 -48,11l-58 0c-31,0 -58,-11 -81,-34 -23,-22 -35,-49 -35,-82l0 -174c0,-32 11,-59 34,-82 23,-22 50,-34 82,-34l145 0c19,0 29,10 29,29l0 260c0,12 3,24 11,36 6,11 16,19 29,25 12,5 18,14 18,26 0,9 -3,16 -8,21 -5,6 -12,9 -21,9 -4,0 -8,-1 -12,-3 -19,-7 -34,-19 -47,-35z"/>
   <path class="fil5 str0" d="M3115 14972l0 -145c0,-7 3,-14 9,-21 6,-5 12,-7 20,-7 7,0 14,2 20,7 6,5 9,12 9,21l0 348c0,9 -3,17 -8,22 -6,5 -12,7 -21,7 -8,0 -14,-2 -20,-7 -6,-5 -9,-12 -9,-22l0 -145 -174 0 0 145c0,9 -3,17 -8,22 -6,5 -12,7 -21,7 -8,0 -14,-2 -20,-7 -6,-5 -9,-12 -9,-22l0 -348c0,-7 3,-14 9,-21 6,-5 12,-7 20,-7 7,0 14,2 20,7 6,5 9,12 9,21l0 145 174 0zm231 1l174 0 0 -58c0,-17 -5,-31 -16,-42 -11,-11 -25,-17 -42,-17l-58 0c-16,0 -30,6 -41,17 -6,5 -10,12 -13,19 -3,7 -4,14 -4,23l0 58zm0 58l0 58c0,16 6,30 17,41 5,5 12,9 18,12 8,3 16,5 23,5l145 0c8,0 15,2 21,8 5,6 8,13 8,20 0,7 -2,13 -7,20 -5,6 -12,9 -22,9l-145 0c-31,0 -58,-11 -81,-34 -23,-22 -35,-49 -35,-82l0 -174c0,-31 12,-58 34,-81 22,-23 50,-34 82,-34l58 0c32,0 59,11 82,33 23,23 34,50 34,83l0 86c0,20 -10,30 -29,30l-203 0zm752 116l117 0c16,0 29,-6 41,-17 11,-10 17,-24 17,-42l0 -174c0,-16 -6,-30 -17,-41 -11,-11 -24,-17 -41,-17l-117 0 0 291zm0 57l0 145c0,8 -3,15 -8,20 -6,6 -13,9 -20,9 -7,0 -13,-3 -20,-8 -6,-4 -9,-12 -9,-21l0 -522c0,-19 9,-28 29,-28l145 0c31,0 58,11 81,33 23,23 34,50 34,82l0 174c0,32 -11,59 -34,82 -22,23 -50,34 -82,34l-116 0zm580 -116l0 -232 -116 0c-17,0 -31,6 -42,17 -5,5 -10,11 -12,19 -3,7 -4,14 -4,22l0 174c0,17 5,31 16,42 6,5 12,9 19,12 8,3 16,5 23,5l58 0c16,0 30,-6 41,-17 11,-10 17,-24 17,-42zm28 78c-9,11 -22,20 -38,27 -16,7 -32,11 -48,11l-58 0c-31,0 -58,-11 -81,-34 -23,-22 -35,-49 -35,-82l0 -174c0,-32 11,-59 34,-82 23,-22 50,-33 82,-33l145 0c19,0 29,9 29,28l0 261c0,11 3,23 11,35 6,11 16,19 28,25 13,5 19,14 19,26 0,9 -3,16 -9,21 -5,6 -11,9 -20,9 -4,0 -8,-1 -12,-3 -19,-7 -35,-19 -47,-35zm377 -194l0 -145c0,-7 3,-14 9,-21 5,-5 12,-7 20,-7 7,0 14,2 20,7 6,5 9,12 9,21l0 348c0,9 -3,17 -9,22 -5,5 -12,7 -20,7 -8,0 -15,-2 -20,-7 -6,-5 -9,-12 -9,-22l0 -145 -174 0 0 145c0,9 -3,17 -9,22 -5,5 -12,7 -20,7 -8,0 -14,-2 -20,-7 -6,-5 -9,-12 -9,-22l0 -348c0,-7 3,-14 9,-21 6,-5 12,-7 20,-7 7,0 14,2 20,7 6,5 9,12 9,21l0 145 174 0zm231 1l174 0 0 -58c0,-17 -5,-31 -16,-42 -11,-11 -25,-17 -42,-17l-58 0c-16,0 -30,6 -42,17 -5,5 -9,12 -12,19 -3,7 -4,14 -4,23l0 58zm0 58l0 58c0,16 5,30 16,41 6,5 12,9 19,12 8,3 16,5 23,5l145 0c8,0 15,2 20,8 6,6 9,13 9,20 0,7 -3,13 -7,20 -5,6 -13,9 -22,9l-145 0c-31,0 -58,-11 -81,-34 -23,-22 -35,-49 -35,-82l0 -174c0,-31 11,-58 34,-81 22,-23 49,-34 82,-34l58 0c31,0 59,11 82,33 22,23 34,50 34,83l0 86c0,20 -10,30 -29,30l-203 0zm405 -58l174 0 0 -58c0,-17 -5,-31 -16,-42 -11,-11 -25,-17 -42,-17l-58 0c-16,0 -30,6 -41,17 -6,5 -10,12 -13,19 -3,7 -4,14 -4,23l0 58zm0 58l0 58c0,16 5,30 16,41 6,5 13,9 19,12 8,3 16,5 23,5l145 0c8,0 15,2 20,8 6,6 9,13 9,20 0,7 -2,13 -7,20 -5,6 -12,9 -22,9l-145 0c-31,0 -58,-11 -81,-34 -23,-22 -35,-49 -35,-82l0 -174c0,-31 12,-58 34,-81 22,-23 50,-34 82,-34l58 0c32,0 59,11 82,33 22,23 34,50 34,83l0 86c0,20 -10,30 -29,30l-203 0zm927 -59l0 -145c0,-7 3,-14 8,-21 6,-5 13,-7 21,-7 7,0 14,2 19,7 6,5 9,12 9,21l0 348c0,9 -2,17 -8,22 -5,5 -12,7 -20,7 -8,0 -15,-2 -21,-7 -5,-5 -8,-12 -8,-22l0 -145 -116 0c-31,0 -59,-11 -82,-34 -23,-22 -34,-49 -34,-82l0 -87c0,-7 3,-15 8,-21 6,-5 13,-7 21,-7 7,0 14,2 19,7 6,5 9,12 9,21l0 87c0,16 6,30 17,42 6,5 12,9 19,12 8,3 16,4 22,4l117 0zm230 1l175 0 0 -58c0,-17 -6,-31 -16,-42 -11,-11 -25,-17 -42,-17l-58 0c-17,0 -31,6 -42,17 -5,5 -10,12 -12,19 -3,7 -5,14 -5,23l0 58zm0 58l0 58c0,16 6,30 17,41 6,5 12,9 19,12 8,3 16,5 22,5l146 0c7,0 14,2 20,8 6,6 8,13 8,20 0,7 -2,13 -7,20 -5,6 -12,9 -21,9l-145 0c-32,0 -59,-11 -82,-34 -23,-22 -34,-49 -34,-82l0 -174c0,-31 11,-58 33,-81 23,-23 50,-34 83,-34l58 0c31,0 58,11 81,33 23,23 34,50 34,83l0 86c0,20 -9,30 -28,30l-204 0zm695 144l0 -347c0,-11 -2,-19 -7,-25 -5,-6 -11,-9 -19,-9 -8,0 -17,6 -26,17l-121 170 -121 -170c-8,-11 -17,-17 -27,-17 -7,0 -13,3 -19,9 -5,6 -7,15 -7,25l0 347c0,9 3,17 8,22 5,5 12,7 21,7 7,0 13,-2 19,-8 6,-5 10,-12 10,-21l0 -257 92 129c8,11 16,16 24,16 7,0 15,-5 23,-16l93 -129 0 257c0,9 2,17 8,22 5,5 12,7 20,7 7,0 14,-2 20,-8 6,-5 9,-12 9,-21zm616 -145l-36 0c-9,0 -17,-3 -22,-9 -5,-5 -8,-12 -8,-20 0,-7 3,-14 8,-20 5,-6 12,-9 22,-9l28 0c18,0 32,-6 43,-18 10,-11 15,-25 15,-40 0,-16 -4,-30 -14,-40 -4,-5 -10,-10 -18,-13 -7,-3 -16,-5 -26,-5l-28 0c-27,0 -50,8 -70,24 -5,3 -11,5 -18,6 -6,0 -13,-3 -20,-9 -6,-6 -8,-13 -8,-21 0,-9 4,-17 11,-23 30,-23 65,-34 104,-34l29 0c37,0 66,12 87,36 19,21 29,48 29,79 0,10 -1,18 -2,25 -1,8 -4,15 -7,23 -6,13 -15,27 -27,39 11,10 20,24 27,40l7 23c1,7 2,15 2,25 0,31 -10,58 -29,79 -20,24 -49,36 -87,36l-29 0c-38,0 -73,-11 -104,-35 -8,-5 -12,-13 -12,-23 0,-6 3,-13 9,-20 6,-7 13,-10 20,-10 5,0 11,2 18,7 20,16 43,24 70,24l28 0c18,0 32,-6 43,-18 10,-12 15,-26 15,-41 0,-15 -4,-28 -12,-38 -8,-11 -21,-17 -38,-20zm455 58l0 -232 -116 0c-16,0 -30,6 -41,17 -6,5 -10,11 -13,19 -3,7 -4,14 -4,22l0 174c0,17 6,31 17,42 5,5 12,9 18,12 9,3 16,5 23,5l58 0c16,0 30,-6 41,-17 12,-10 17,-24 17,-42zm29 78c-9,11 -22,20 -38,27 -17,7 -33,11 -49,11l-58 0c-31,0 -58,-11 -81,-34 -23,-22 -35,-49 -35,-82l0 -174c0,-32 12,-59 34,-82 23,-22 50,-33 82,-33l145 0c19,0 29,9 29,28l0 261c0,11 4,23 11,35 7,11 16,19 29,25 12,5 18,14 18,26 0,9 -3,16 -8,21 -5,6 -12,9 -21,9 -4,0 -8,-1 -12,-3 -19,-7 -34,-19 -46,-35z"/>
  </g>
 </g>
</svg>
