<?xml version="1.0" encoding="UTF-8"?>
<!DOCTYPE svg PUBLIC "-//W3C//DTD SVG 1.1//EN" "http://www.w3.org/Graphics/SVG/1.1/DTD/svg11.dtd">
<!-- Creator: CorelDRAW X6 -->
<svg xmlns="http://www.w3.org/2000/svg" xml:space="preserve" width="200mm" height="200mm" version="1.1" style="shape-rendering:geometricPrecision; text-rendering:geometricPrecision; image-rendering:optimizeQuality; fill-rule:evenodd; clip-rule:evenodd"
viewBox="0 0 20000 20000"
 xmlns:xlink="http://www.w3.org/1999/xlink">
 <defs>
  <style type="text/css">
   <![CDATA[
    .str2 {stroke:#A37D66;stroke-width:10}
    .str3 {stroke:#CC7587;stroke-width:10}
    .str1 {stroke:#AB8082;stroke-width:25}
    .str0 {stroke:#AB8082;stroke-width:249.99;stroke-linecap:round;stroke-linejoin:round}
    .fil3 {fill:none}
    .fil2 {fill:#FFF7B3}
    .fil1 {fill:#FFFADB}
    .fil4 {fill:white}
    .fil6 {fill:#A37D66;fill-rule:nonzero}
    .fil5 {fill:#AB8082;fill-rule:nonzero}
    .fil7 {fill:#CC7587;fill-rule:nonzero}
    .fil0 {fill:url(#id0)}
   ]]>
  </style>
  <radialGradient id="id0" gradientUnits="userSpaceOnUse" cx="10000" cy="10000" r="10000" fx="10000" fy="10000">
   <stop offset="0" style="stop-color:#FEFEFE"/>
   <stop offset="0.45098" style="stop-color:#FEFEFE"/>
   <stop offset="1" style="stop-color:#D1E2F2"/>
  </radialGradient>
 </defs>
 <g id="Layer_x0020_1">
  <metadata id="CorelCorpID_0Corel-Layer"/>
  <g id="_1151665264">
   <polygon class="fil0" points="0,0 20000,0 20000,20000 0,20000 "/>
   <polygon class="fil1" points="14480,2384 14480,17616 5460,17616 4244,17616 4244,2384 "/>
   <path class="fil2" d="M4244 2384l10236 0 0 5735 -10236 -4864c16,-447 0,-573 0,-871z"/>
   <path class="fil3 str0" d="M14480 2384l0 15233c-3412,0 -6824,0 -10236,0l0 -15233 10236 0z"/>
   <polygon class="fil4" points="18973,12566 12742,12566 12742,13638 18973,13638 "/>
   <path class="fil5 str1" d="M6743 6783l0 814c0,34 18,65 67,65 45,0 67,-31 67,-65l0 -876c0,-34 -21,-65 -67,-65l-478 0c-45,0 -67,31 -67,65l0 876c0,34 21,65 67,65 47,0 67,-31 67,-65l0 -814 344 0zm482 352l0 -353 221 0c98,0 139,50 139,135l0 71c0,86 -41,147 -139,147l-221 0zm221 128c183,0 272,-119 272,-275l0 -71c0,-159 -89,-261 -272,-261l-289 0c-45,0 -65,31 -65,65l0 876c0,34 20,65 67,65 47,0 67,-31 67,-65l0 -335 221 0zm559 -337c0,-88 38,-156 136,-156l113 0c98,0 136,68 136,156l0 454c0,88 -38,156 -136,156l-113 0c-98,0 -136,-68 -136,-156l0 -454zm519 0c0,-156 -89,-284 -269,-284l-113 0c-180,0 -269,128 -269,284l0 454c0,156 89,284 269,284l113 0c180,0 269,-128 269,-284l0 -454zm447 737c47,0 67,-31 67,-65l0 -814 207 0c33,0 62,-18 62,-64 0,-43 -30,-64 -62,-64l-547 0c-33,0 -62,21 -62,64 0,45 30,64 62,64l207 0 0 814c0,34 20,65 67,65zm580 -737c0,-88 38,-156 136,-156l113 0c98,0 136,68 136,156l0 454c0,88 -38,156 -136,156l-113 0c-98,0 -136,-68 -136,-156l0 -454zm519 0c0,-156 -89,-284 -269,-284l-113 0c-180,0 -269,128 -269,284l0 454c0,156 89,284 269,284l113 0c180,0 269,-128 269,-284l0 -454zm834 632l-305 -432 289 -376c26,-33 26,-68 -3,-94 -34,-31 -75,-16 -99,14l-298 404 -85 0 0 -367c0,-34 -20,-65 -65,-65 -48,0 -68,31 -68,65l0 890c0,34 20,65 68,65 45,0 65,-31 65,-65l0 -396 86 0 305 432c18,28 54,44 92,18 40,-28 37,-67 17,-95zm286 -632c0,-88 38,-156 136,-156l113 0c98,0 136,68 136,156l0 454c0,88 -38,156 -136,156l-113 0c-98,0 -136,-68 -136,-156l0 -454zm519 0c0,-156 -89,-284 -269,-284l-113 0c-180,0 -269,128 -269,284l0 454c0,156 89,284 269,284l113 0c180,0 269,-128 269,-284l0 -454zm400 544c10,-81 84,-686 84,-686l248 0 0 814c0,34 20,65 68,65 45,0 65,-31 65,-65l0 -876c0,-34 -20,-65 -65,-65l-370 0c-41,0 -64,27 -68,65 -4,41 -81,661 -88,716 -4,33 -9,54 -17,68 -14,27 -38,34 -79,34 -34,0 -65,21 -65,67 0,48 31,64 65,64 123,0 174,-40 203,-111 10,-27 16,-52 20,-89z"/>
   <g>
    <path class="fil6" d="M10696 14472l0 -203 6 0 6 0 6 1 6 1 6 1 6 1 6 2 6 2 6 2 5 2 5 2 5 3 5 3 5 3 5 3 4 3 4 4 4 4 4 4 3 4 3 4 3 4 3 4 3 4 2 5 2 5 2 5 1 5 1 5 1 5 0 5 0 5 0 5 0 5 -1 5 -1 5 -1 5 -2 5 -2 5 -2 5 -3 4 -3 4 -3 4 -3 4 -3 4 -4 4 -4 4 -4 4 -4 3 -5 3 -5 3 -5 3 -5 3 -5 2 -5 2 -6 2 -6 2 -6 2 -6 1 -6 1 -6 1 -6 1 -6 0 -6 0zm-4262 -203l4262 0 0 203 -4262 0 0 -203zm0 0l0 203 -6 0 -6 0 -6 -1 -6 -1 -6 -1 -6 -1 -6 -2 -6 -2 -6 -2 -5 -2 -5 -2 -5 -3 -5 -3 -5 -3 -5 -3 -4 -3 -4 -4 -4 -4 -4 -4 -3 -4 -3 -4 -3 -4 -3 -4 -3 -4 -2 -5 -2 -5 -2 -5 -1 -5 -1 -5 -1 -5 0 -5 0 -5 0 -5 0 -5 1 -5 1 -5 1 -5 2 -5 2 -5 2 -5 3 -4 3 -4 3 -4 3 -4 3 -4 4 -4 4 -4 4 -4 4 -3 5 -3 5 -3 5 -3 5 -3 5 -2 5 -2 6 -2 6 -2 6 -2 6 -1 6 -1 6 -1 6 -1 6 0 6 0zm2924 -366l0 -203 6 0 6 0 6 1 6 1 6 1 6 1 6 2 6 2 6 2 5 2 5 2 5 3 5 3 5 3 5 3 4 3 4 4 4 4 4 4 3 4 3 4 3 4 3 4 3 4 2 5 2 5 2 5 1 5 1 5 1 5 0 5 0 5 0 5 0 5 -1 5 -1 5 -1 5 -2 5 -2 5 -2 5 -3 4 -3 4 -3 4 -3 4 -3 4 -4 4 -4 4 -4 4 -4 3 -5 3 -5 3 -5 3 -5 3 -5 2 -5 2 -6 2 -6 2 -6 2 -6 1 -6 1 -6 1 -6 1 -6 0 -6 0zm-2924 0l0 -203 91 0 91 0 91 0 91 0 91 0 91 0 91 0 91 0 91 0 91 0 91 0 91 0 91 0 91 0 91 0 91 0 91 0 91 0 91 0 91 0 91 0 91 0 91 0 91 0 91 0 91 0 91 0 91 0 91 0 91 0 91 0 91 0 0 203 -91 0 -91 0 -91 0 -91 0 -91 0 -91 0 -91 0 -91 0 -91 0 -91 0 -91 0 -91 0 -91 0 -91 0 -91 0 -91 0 -91 0 -91 0 -91 0 -91 0 -91 0 -91 0 -91 0 -91 0 -91 0 -91 0 -91 0 -91 0 -91 0 -91 0 -91 0 -91 0zm0 -203l0 203 -6 0 -6 0 -6 -1 -6 -1 -6 -1 -6 -1 -6 -2 -6 -2 -6 -2 -5 -2 -5 -2 -5 -3 -5 -3 -5 -3 -5 -3 -4 -3 -4 -4 -4 -4 -4 -4 -3 -4 -3 -4 -3 -4 -3 -4 -3 -4 -2 -5 -2 -5 -2 -5 -1 -5 -1 -5 -1 -5 0 -5 0 -5 0 -5 0 -5 1 -5 1 -5 1 -5 2 -5 2 -5 2 -5 3 -4 3 -4 3 -4 3 -4 3 -4 4 -4 4 -4 4 -4 4 -3 5 -3 5 -3 5 -3 5 -3 5 -2 5 -2 6 -2 6 -2 6 -2 6 -1 6 -1 6 -1 6 -1 6 0 6 0z"/>
   </g>
   <g>
    <path class="fil6" d="M10696 12645l0 -203 6 0 6 0 6 1 6 1 6 1 6 1 6 2 6 2 6 2 5 2 5 2 5 3 5 3 5 3 5 3 4 3 4 4 4 4 4 4 3 4 3 4 3 4 3 4 3 4 2 5 2 5 2 5 1 5 1 5 1 5 0 5 0 5 0 5 0 5 -1 5 -1 5 -1 5 -2 5 -2 5 -2 5 -3 4 -3 4 -3 4 -3 4 -3 4 -4 4 -4 4 -4 4 -4 3 -5 3 -5 3 -5 3 -5 3 -5 2 -5 2 -6 2 -6 2 -6 2 -6 1 -6 1 -6 1 -6 1 -6 0 -6 0zm-4262 -203l4262 0 0 203 -4262 0 0 -203zm0 0l0 203 -6 0 -6 0 -6 -1 -6 -1 -6 -1 -6 -1 -6 -2 -6 -2 -6 -2 -5 -2 -5 -2 -5 -3 -5 -3 -5 -3 -5 -3 -4 -3 -4 -4 -4 -4 -4 -4 -3 -4 -3 -4 -3 -4 -3 -4 -3 -4 -2 -5 -2 -5 -2 -5 -1 -5 -1 -5 -1 -5 0 -5 0 -5 0 -5 0 -5 1 -5 1 -5 1 -5 2 -5 2 -5 2 -5 3 -4 3 -4 3 -4 3 -4 3 -4 4 -4 4 -4 4 -4 4 -3 5 -3 5 -3 5 -3 5 -3 5 -2 5 -2 6 -2 6 -2 6 -2 6 -1 6 -1 6 -1 6 -1 6 0 6 0zm2924 -366l0 -203 6 0 6 0 6 1 6 1 6 1 6 1 6 2 6 2 6 2 5 2 5 2 5 3 5 3 5 3 5 3 4 3 4 4 4 4 4 4 3 4 3 4 3 4 3 4 3 4 2 5 2 5 2 5 1 5 1 5 1 5 0 5 0 5 0 5 0 5 -1 5 -1 5 -1 5 -2 5 -2 5 -2 5 -3 4 -3 4 -3 4 -3 4 -3 4 -4 4 -4 4 -4 4 -4 3 -5 3 -5 3 -5 3 -5 3 -5 2 -5 2 -6 2 -6 2 -6 2 -6 1 -6 1 -6 1 -6 1 -6 0 -6 0zm-2924 0l0 -203 91 0 91 0 91 0 91 0 91 0 91 0 91 0 91 0 91 0 91 0 91 0 91 0 91 0 91 0 91 0 91 0 91 0 91 0 91 0 91 0 91 0 91 0 91 0 91 0 91 0 91 0 91 0 91 0 91 0 91 0 91 0 91 0 0 203 -91 0 -91 0 -91 0 -91 0 -91 0 -91 0 -91 0 -91 0 -91 0 -91 0 -91 0 -91 0 -91 0 -91 0 -91 0 -91 0 -91 0 -91 0 -91 0 -91 0 -91 0 -91 0 -91 0 -91 0 -91 0 -91 0 -91 0 -91 0 -91 0 -91 0 -91 0 -91 0zm0 -203l0 203 -6 0 -6 0 -6 -1 -6 -1 -6 -1 -6 -1 -6 -2 -6 -2 -6 -2 -5 -2 -5 -2 -5 -3 -5 -3 -5 -3 -5 -3 -4 -3 -4 -4 -4 -4 -4 -4 -3 -4 -3 -4 -3 -4 -3 -4 -3 -4 -2 -5 -2 -5 -2 -5 -1 -5 -1 -5 -1 -5 0 -5 0 -5 0 -5 0 -5 1 -5 1 -5 1 -5 2 -5 2 -5 2 -5 3 -4 3 -4 3 -4 3 -4 3 -4 4 -4 4 -4 4 -4 4 -3 5 -3 5 -3 5 -3 5 -3 5 -2 5 -2 6 -2 6 -2 6 -2 6 -1 6 -1 6 -1 6 -1 6 0 6 0z"/>
   </g>
   <g>
    <path class="fil6" d="M10696 10818l0 -203 6 0 6 0 6 1 6 1 6 1 6 1 6 2 6 2 6 2 5 2 5 2 5 3 5 3 5 3 5 3 4 3 4 4 4 4 4 4 3 4 3 4 3 4 3 4 3 4 2 5 2 5 2 5 1 5 1 5 1 5 0 5 0 5 0 5 0 5 -1 5 -1 5 -1 5 -2 5 -2 5 -2 5 -3 4 -3 4 -3 4 -3 4 -3 4 -4 4 -4 4 -4 4 -4 3 -5 3 -5 3 -5 3 -5 3 -5 2 -5 2 -6 2 -6 2 -6 2 -6 1 -6 1 -6 1 -6 1 -6 0 -6 0zm-4262 -203l4262 0 0 203 -4262 0 0 -203zm0 0l0 203 -6 0 -6 0 -6 -1 -6 -1 -6 -1 -6 -1 -6 -2 -6 -2 -6 -2 -5 -2 -5 -2 -5 -3 -5 -3 -5 -3 -5 -3 -4 -3 -4 -4 -4 -4 -4 -4 -3 -4 -3 -4 -3 -4 -3 -4 -3 -4 -2 -5 -2 -5 -2 -5 -1 -5 -1 -5 -1 -5 0 -5 0 -5 0 -5 0 -5 1 -5 1 -5 1 -5 2 -5 2 -5 2 -5 3 -4 3 -4 3 -4 3 -4 3 -4 4 -4 4 -4 4 -4 4 -3 5 -3 5 -3 5 -3 5 -3 5 -2 5 -2 6 -2 6 -2 6 -2 6 -1 6 -1 6 -1 6 -1 6 0 6 0zm2924 -366l0 -203 6 0 6 0 6 1 6 1 6 1 6 1 6 2 6 2 6 2 5 2 5 2 5 3 5 3 5 3 5 3 4 3 4 4 4 4 4 4 3 4 3 4 3 4 3 4 3 4 2 5 2 5 2 5 1 5 1 5 1 5 0 5 0 5 0 5 0 5 -1 5 -1 5 -1 5 -2 5 -2 5 -2 5 -3 4 -3 4 -3 4 -3 4 -3 4 -4 4 -4 4 -4 4 -4 3 -5 3 -5 3 -5 3 -5 3 -5 2 -5 2 -6 2 -6 2 -6 2 -6 1 -6 1 -6 1 -6 1 -6 0 -6 0zm-2924 0l0 -203 91 0 91 0 91 0 91 0 91 0 91 0 91 0 91 0 91 0 91 0 91 0 91 0 91 0 91 0 91 0 91 0 91 0 91 0 91 0 91 0 91 0 91 0 91 0 91 0 91 0 91 0 91 0 91 0 91 0 91 0 91 0 91 0 0 203 -91 0 -91 0 -91 0 -91 0 -91 0 -91 0 -91 0 -91 0 -91 0 -91 0 -91 0 -91 0 -91 0 -91 0 -91 0 -91 0 -91 0 -91 0 -91 0 -91 0 -91 0 -91 0 -91 0 -91 0 -91 0 -91 0 -91 0 -91 0 -91 0 -91 0 -91 0 -91 0zm0 -203l0 203 -6 0 -6 0 -6 -1 -6 -1 -6 -1 -6 -1 -6 -2 -6 -2 -6 -2 -5 -2 -5 -2 -5 -3 -5 -3 -5 -3 -5 -3 -4 -3 -4 -4 -4 -4 -4 -4 -3 -4 -3 -4 -3 -4 -3 -4 -3 -4 -2 -5 -2 -5 -2 -5 -1 -5 -1 -5 -1 -5 0 -5 0 -5 0 -5 0 -5 1 -5 1 -5 1 -5 2 -5 2 -5 2 -5 3 -4 3 -4 3 -4 3 -4 3 -4 4 -4 4 -4 4 -4 4 -3 5 -3 5 -3 5 -3 5 -3 5 -2 5 -2 6 -2 6 -2 6 -2 6 -1 6 -1 6 -1 6 -1 6 0 6 0z"/>
   </g>
   <path class="fil6 str2" d="M7318 3144l-60 0c-61,0 -102,30 -102,89 0,14 8,27 29,27 19,0 25,-13 27,-27 4,-24 25,-35 51,-35l55 0c44,0 54,26 54,66l0 63 -100 0c-14,0 -26,9 -26,27 0,19 13,27 26,27l100 0 0 79c0,37 -10,61 -57,61l-55 0c-23,0 -45,-10 -48,-35 -1,-14 -8,-27 -27,-27 -20,0 -29,13 -29,27 0,57 42,89 103,89l60 0c76,0 109,-48 109,-114l0 -196c0,-66 -30,-119 -110,-119zm460 385l-128 -182 122 -158c11,-14 11,-29 -1,-39 -14,-13 -32,-7 -42,6l-125 170 -36 0 0 -154c0,-14 -8,-27 -27,-27 -20,0 -29,13 -29,27l0 374c0,14 8,27 29,27 19,0 27,-13 27,-27l0 -166 36 0 128 182c8,12 23,18 39,8 17,-12 16,-28 7,-40zm244 -275c0,36 -25,69 -66,69l-21 0c-14,0 -26,9 -26,26 0,19 13,26 26,26l44 0c41,0 57,33 57,69l0 14c0,37 -13,61 -58,61l-45 0c-23,0 -45,-10 -48,-35 -1,-14 -8,-27 -27,-27 -20,0 -29,13 -29,27 0,57 42,89 103,89l49 0c72,0 110,-49 110,-115l0 -14c0,-49 -23,-92 -69,-104 41,-18 55,-51 55,-87 0,-66 -32,-110 -112,-110l-26 0c-61,0 -102,30 -102,89 0,14 8,27 29,27 19,0 27,-13 27,-27 1,-24 25,-35 51,-35l21 0c40,0 55,17 55,56zm363 314c14,0 26,-8 26,-27 0,-18 -13,-27 -26,-27l-163 0 0 -134 135 0c14,0 26,-8 26,-27 0,-18 -13,-27 -26,-27l-135 0 0 -122 163 0c14,0 26,-8 26,-27 0,-18 -13,-27 -26,-27l-192 0c-19,0 -27,13 -27,27l0 363c0,14 8,27 27,27l192 0zm256 -186c-4,-11 -8,-23 -14,-34l-93 -183c-8,-17 -16,-20 -28,-20 -20,0 -27,13 -27,27l0 374c0,14 8,27 27,27 20,0 27,-13 27,-27l0 -230c0,-16 -1,-30 -2,-41l1 0 85 166c4,8 10,14 24,14 14,0 20,-6 24,-14l85 -166 1 0c-1,11 -2,25 -2,41l0 230c0,14 8,27 27,27 20,0 27,-13 27,-27l0 -374c0,-14 -8,-27 -27,-27 -13,0 -20,4 -28,20l-93 183c-6,11 -11,23 -14,34zm454 -178l0 342c0,14 8,27 28,27 19,0 28,-13 28,-27l0 -369c0,-14 -9,-27 -28,-27l-201 0c-19,0 -28,13 -28,27l0 369c0,14 9,27 28,27 20,0 28,-13 28,-27l0 -342 145 0zm230 289c4,-34 35,-289 35,-289l104 0 0 342c0,14 8,27 29,27 19,0 27,-13 27,-27l0 -369c0,-14 -8,-27 -27,-27l-156 0c-17,0 -27,11 -29,27 -2,17 -34,278 -37,301 -2,14 -4,23 -7,29 -6,11 -16,14 -33,14 -14,0 -27,9 -27,28 0,20 13,27 27,27 52,0 73,-17 85,-47 4,-11 7,-22 8,-38zm266 -216c0,43 25,92 72,111 -4,7 -8,14 -14,30 0,0 -47,105 -52,118 -5,13 -2,29 16,36 18,7 30,-2 36,-16 6,-14 69,-160 69,-160l76 0 0 150c0,14 8,27 28,27 20,0 28,-13 28,-27l0 -369c0,-14 -8,-27 -28,-27l-114 0c-76,0 -116,48 -116,110l0 17zm113 66c-41,0 -57,-29 -57,-66l0 -17c0,-33 17,-56 59,-56l87 0 0 138 -89 0zm292 10l0 -148 93 0c41,0 58,21 58,57l0 30c0,36 -17,62 -58,62l-93 0zm93 54c77,0 114,-50 114,-116l0 -30c0,-67 -38,-110 -114,-110l-122 0c-19,0 -27,13 -27,27l0 369c0,14 8,27 28,27 20,0 28,-13 28,-27l0 -141 93 0zm530 -7c0,16 2,33 4,44l-1 0 -135 -277c-7,-14 -17,-20 -28,-20 -20,0 -29,13 -29,27l0 374c0,14 8,27 28,27 19,0 27,-13 27,-27l0 -227c0,-16 -2,-33 -4,-44l1 0 135 277c7,14 17,20 28,20 20,0 29,-13 29,-27l0 -374c0,-14 -8,-27 -28,-27 -19,0 -27,13 -27,27l0 227zm151 -128c-18,0 -23,-10 -23,-27l0 -30c0,-17 5,-27 23,-27l9 0c18,0 23,10 23,27l0 30c0,17 -5,27 -23,27l-9 0zm10 40c41,0 61,-27 61,-64l0 -36c0,-36 -20,-63 -61,-63l-10 0c-41,0 -61,27 -61,63l0 36c0,36 20,64 61,64l10 0zm41 70c13,0 21,-6 21,-21 0,-16 -9,-21 -21,-21l-92 0c-13,0 -22,6 -22,21 0,16 10,21 22,21l92 0z"/>
   <path class="fil6 str2" d="M5685 3895c0,-14 -9,-27 -28,-27 -20,0 -28,13 -28,27l0 148 -157 0 0 -148c0,-14 -8,-27 -28,-27 -19,0 -28,13 -28,27l0 374c0,14 9,27 28,27 20,0 28,-13 28,-27l0 -172 157 0 0 172c0,14 8,27 28,27 19,0 28,-13 28,-27l0 -374zm269 278l33 104c5,14 18,23 35,17 16,-5 22,-20 17,-34l-120 -373c-4,-13 -11,-20 -28,-20l-3 0c-17,0 -24,7 -28,20l-120 373c-5,14 2,29 17,34 16,5 30,-3 35,-17l33 -104 129 0zm-74 -180c4,-13 6,-20 9,-34l1 0c3,14 5,21 9,34l41 130 -100 0 41 -130zm388 -16c0,36 -25,69 -66,69l-21 0c-14,0 -26,9 -26,26 0,19 13,26 26,26l44 0c41,0 57,33 57,69l0 14c0,37 -13,61 -58,61l-45 0c-23,0 -45,-10 -48,-35 -1,-14 -8,-27 -27,-27 -20,0 -29,13 -29,27 0,57 42,89 103,89l49 0c72,0 110,-49 110,-115l0 -14c0,-49 -23,-92 -69,-104 41,-18 55,-51 55,-87 0,-66 -32,-110 -112,-110l-26 0c-61,0 -102,30 -102,89 0,14 8,27 29,27 19,0 27,-13 27,-27 1,-24 25,-35 51,-35l21 0c40,0 55,17 55,56zm199 128l98 0c41,0 57,27 57,63l0 13c0,36 -16,56 -57,56l-98 0 0 -132zm0 -52l0 -125 72 0c41,0 57,14 57,50l0 14c0,36 -17,61 -57,61l-72 0zm211 116c0,-49 -22,-84 -66,-98 26,-16 41,-42 41,-79l0 -14c0,-67 -38,-104 -113,-104l-100 0c-20,0 -29,13 -29,27l0 363c0,14 8,27 29,27l125 0c76,0 113,-43 113,-110l0 -13zm251 5l33 104c5,14 18,23 35,17 16,-5 22,-20 17,-34l-120 -373c-4,-13 -11,-20 -28,-20l-3 0c-17,0 -24,7 -28,20l-120 373c-5,14 2,29 17,34 16,5 30,-3 35,-17l33 -104 129 0zm-74 -180c4,-13 6,-20 9,-34l1 0c3,14 5,21 9,34l41 130 -100 0 41 -130zm482 -98c0,-14 -9,-27 -28,-27 -20,0 -28,13 -28,27l0 148 -157 0 0 -148c0,-14 -8,-27 -28,-27 -19,0 -28,13 -28,27l0 374c0,14 9,27 28,27 20,0 28,-13 28,-27l0 -172 157 0 0 172c0,14 8,27 28,27 19,0 28,-13 28,-27l0 -374zm305 374c0,14 8,27 27,27 20,0 28,-13 28,-27l0 -374c0,-14 -8,-27 -29,-27 -11,0 -19,4 -28,20l-159 284 -1 0c1,-11 2,-25 2,-41l0 -236c0,-14 -8,-27 -27,-27 -20,0 -28,13 -28,27l0 374c0,14 8,27 29,27 11,0 19,-4 28,-20l159 -284 1 0c-1,11 -2,25 -2,41l0 236zm365 21c14,0 26,-8 26,-27 0,-18 -13,-27 -26,-27l-163 0 0 -134 135 0c14,0 26,-8 26,-27 0,-18 -13,-27 -26,-27l-135 0 0 -122 163 0c14,0 26,-8 26,-27 0,-18 -13,-27 -26,-27l-192 0c-19,0 -27,13 -27,27l0 363c0,14 8,27 27,27l192 0zm309 -186l98 0c41,0 57,27 57,63l0 13c0,36 -16,56 -57,56l-98 0 0 -132zm0 -52l0 -125 72 0c41,0 57,14 57,50l0 14c0,36 -17,61 -57,61l-72 0zm211 116c0,-49 -22,-84 -66,-98 26,-16 41,-42 41,-79l0 -14c0,-67 -38,-104 -113,-104l-100 0c-20,0 -29,13 -29,27l0 363c0,14 8,27 29,27l125 0c76,0 113,-43 113,-110l0 -13zm424 101l0 -374c0,-14 -8,-27 -27,-27 -19,0 -28,13 -28,27l0 374c0,14 8,27 27,27 19,0 28,-13 28,-27zm-221 -234l-74 0 0 -140c0,-14 -8,-27 -28,-27 -20,0 -28,13 -28,27l0 369c0,14 8,27 29,27l101 0c77,0 114,-50 114,-116l0 -27c0,-67 -36,-113 -114,-113zm58 146c0,36 -16,56 -57,56l-75 0 0 -148 74 0c41,0 58,21 58,57l0 36zm396 -143l-86 0 0 -112 152 0c14,0 26,-8 26,-27 0,-18 -13,-27 -26,-27l-179 0c-20,0 -29,13 -29,27l0 363c0,14 8,27 29,27l114 0c77,0 114,-50 114,-116l0 -27c0,-67 -38,-110 -114,-110zm58 143c0,36 -16,56 -57,56l-88 0 0 -148 86 0c41,0 58,21 58,57l0 36zm179 -194c0,-37 16,-66 57,-66l48 0c41,0 57,29 57,66l0 191c0,37 -16,66 -57,66l-48 0c-41,0 -57,-29 -57,-66l0 -191zm218 0c0,-66 -38,-119 -113,-119l-48 0c-76,0 -113,54 -113,119l0 191c0,66 38,119 113,119l48 0c76,0 113,-54 113,-119l0 -191zm141 88l0 -148 93 0c41,0 58,21 58,57l0 30c0,36 -17,62 -58,62l-93 0zm93 54c77,0 114,-50 114,-116l0 -30c0,-67 -38,-110 -114,-110l-122 0c-19,0 -27,13 -27,27l0 369c0,14 8,27 28,27 20,0 28,-13 28,-27l0 -141 93 0zm235 -142c0,-37 16,-66 57,-66l48 0c41,0 57,29 57,66l0 191c0,37 -16,66 -57,66l-48 0c-41,0 -57,-29 -57,-66l0 -191zm218 0c0,-66 -38,-119 -113,-119l-48 0c-76,0 -113,54 -113,119l0 191c0,66 38,119 113,119l48 0c76,0 113,-54 113,-119l0 -191zm141 118l98 0c41,0 57,27 57,63l0 13c0,36 -16,56 -57,56l-98 0 0 -132zm0 -52l0 -125 72 0c41,0 57,14 57,50l0 14c0,36 -17,61 -57,61l-72 0zm211 116c0,-49 -22,-84 -66,-98 26,-16 41,-42 41,-79l0 -14c0,-67 -38,-104 -113,-104l-100 0c-20,0 -29,13 -29,27l0 363c0,14 8,27 29,27l125 0c76,0 113,-43 113,-110l0 -13z"/>
   <path class="fil6 str2" d="M5689 5685l-11 0 0 -336c0,-14 -8,-27 -27,-27l-144 0c-19,0 -27,13 -30,27l-54 336 -18 0c-19,0 -27,13 -27,27l0 77c0,14 8,27 27,27 20,0 29,-13 29,-27l0 -51 227 0 0 51c0,14 8,27 29,27 19,0 27,-13 27,-27l0 -77c0,-14 -8,-27 -27,-27zm-205 -41l42 -269 95 0 0 310 -146 0c4,-15 7,-27 8,-41zm472 -23l33 104c5,14 18,23 35,17 16,-5 22,-20 17,-34l-120 -373c-4,-13 -11,-20 -28,-20l-3 0c-17,0 -24,7 -28,20l-120 373c-5,14 2,29 17,34 16,5 30,-3 35,-17l33 -104 129 0zm-74 -180c4,-13 6,-20 9,-34l1 0c3,14 5,21 9,34l41 130 -100 0 41 -130zm317 304c20,0 28,-13 28,-27l0 -342 87 0c14,0 26,-8 26,-27 0,-18 -13,-27 -26,-27l-230 0c-14,0 -26,9 -26,27 0,19 13,27 26,27l87 0 0 342c0,14 8,27 28,27zm372 -123l33 104c5,14 18,23 35,17 16,-5 22,-20 17,-34l-120 -373c-4,-13 -11,-20 -28,-20l-3 0c-17,0 -24,7 -28,20l-120 373c-5,14 2,29 17,34 16,5 30,-3 35,-17l33 -104 129 0zm-74 -180c4,-13 6,-20 9,-34l1 0c3,14 5,21 9,34l41 130 -100 0 41 -130zm564 -120c-22,0 -31,13 -31,27l0 369c0,14 9,27 28,27 20,0 28,-13 28,-27l0 -342 160 0c14,0 26,-8 26,-27 0,-18 -13,-27 -23,-27l-188 0zm314 113c0,-37 16,-66 57,-66l48 0c41,0 57,29 57,66l0 191c0,37 -16,66 -57,66l-48 0c-41,0 -57,-29 -57,-66l0 -191zm218 0c0,-66 -38,-119 -113,-119l-48 0c-76,0 -113,54 -113,119l0 191c0,66 38,119 113,119l48 0c76,0 113,-54 113,-119l0 -191zm168 229c4,-34 35,-289 35,-289l104 0 0 342c0,14 8,27 29,27 19,0 27,-13 27,-27l0 -369c0,-14 -8,-27 -27,-27l-156 0c-17,0 -27,11 -29,27 -2,17 -34,278 -37,301 -2,14 -4,23 -7,29 -6,11 -16,14 -33,14 -14,0 -27,9 -27,28 0,20 13,27 27,27 52,0 73,-17 85,-47 4,-11 7,-22 8,-38zm336 -229c0,-37 16,-66 57,-66l48 0c41,0 57,29 57,66l0 191c0,37 -16,66 -57,66l-48 0c-41,0 -57,-29 -57,-66l0 -191zm218 0c0,-66 -38,-119 -113,-119l-48 0c-76,0 -113,54 -113,119l0 191c0,66 38,119 113,119l48 0c76,0 113,-54 113,-119l0 -191zm192 256c-41,0 -57,-29 -57,-66l0 -191c0,-37 16,-66 57,-66l61 0c26,0 39,11 42,35 1,14 8,27 27,27 20,0 29,-13 29,-27 0,-62 -37,-89 -98,-89l-61 0c-76,0 -113,54 -113,119l0 191c0,66 38,119 113,119l61 0c61,0 98,-27 98,-89 0,-14 -8,-27 -29,-27 -19,0 -26,13 -27,27 -2,25 -16,35 -42,35l-61 0zm279 -256c0,-37 16,-66 57,-66l48 0c41,0 57,29 57,66l0 191c0,37 -16,66 -57,66l-48 0c-41,0 -57,-29 -57,-66l0 -191zm218 0c0,-66 -38,-119 -113,-119l-48 0c-76,0 -113,54 -113,119l0 191c0,66 38,119 113,119l48 0c76,0 113,-54 113,-119l0 -191zm141 118l98 0c41,0 57,27 57,63l0 13c0,36 -16,56 -57,56l-98 0 0 -132zm0 -52l0 -125 72 0c41,0 57,14 57,50l0 14c0,36 -17,61 -57,61l-72 0zm211 116c0,-49 -22,-84 -66,-98 26,-16 41,-42 41,-79l0 -14c0,-67 -38,-104 -113,-104l-100 0c-20,0 -29,13 -29,27l0 363c0,14 8,27 29,27l125 0c76,0 113,-43 113,-110l0 -13zm251 5l33 104c5,14 18,23 35,17 16,-5 22,-20 17,-34l-120 -373c-4,-13 -11,-20 -28,-20l-3 0c-17,0 -24,7 -28,20l-120 373c-5,14 2,29 17,34 16,5 30,-3 35,-17l33 -104 129 0zm-74 -180c4,-13 6,-20 9,-34l1 0c3,14 5,21 9,34l41 130 -100 0 41 -130zm482 -98c0,-14 -9,-27 -28,-27 -20,0 -28,13 -28,27l0 148 -157 0 0 -148c0,-14 -8,-27 -28,-27 -19,0 -28,13 -28,27l0 374c0,14 9,27 28,27 20,0 28,-13 28,-27l0 -172 157 0 0 172c0,14 8,27 28,27 19,0 28,-13 28,-27l0 -374zm305 374c0,14 8,27 27,27 20,0 28,-13 28,-27l0 -374c0,-14 -8,-27 -29,-27 -11,0 -19,4 -28,20l-159 284 -1 0c1,-11 2,-25 2,-41l0 -236c0,-14 -8,-27 -27,-27 -20,0 -28,13 -28,27l0 374c0,14 8,27 29,27 11,0 19,-4 28,-20l159 -284 1 0c-1,11 -2,25 -2,41l0 236zm125 -270c0,43 25,92 72,111 -4,7 -8,14 -14,30 0,0 -47,105 -52,118 -5,13 -2,29 16,36 18,7 30,-2 36,-16 6,-14 69,-160 69,-160l76 0 0 150c0,14 8,27 28,27 20,0 28,-13 28,-27l0 -369c0,-14 -8,-27 -28,-27l-114 0c-76,0 -116,48 -116,110l0 17zm113 66c-41,0 -57,-29 -57,-66l0 -17c0,-33 17,-56 59,-56l87 0 0 138 -89 0z"/>
   <path class="fil6 str2" d="M8138 8096c-18,-5 -30,6 -34,20 0,0 -29,113 -54,206 -4,0 -23,0 -44,0 -21,0 -32,-14 -36,-26 -8,-30 -47,-180 -47,-180 -4,-14 -15,-24 -33,-20 -20,5 -24,20 -21,34 0,0 35,134 45,172 10,41 29,71 101,71 8,0 18,-1 18,-1l2 0c-10,35 -19,61 -21,66 -8,18 -30,26 -46,26l-23 0c-16,0 -27,10 -27,28 0,19 13,28 27,28l23 0c39,0 76,-13 97,-60 10,-21 11,-27 18,-53 7,-26 75,-277 75,-277 4,-14 -1,-29 -20,-34zm187 246l75 0 0 155c0,14 8,27 28,27 19,0 28,-13 28,-27l0 -374c0,-14 -9,-27 -28,-27 -20,0 -28,13 -28,27l0 165c0,0 -60,0 -85,0 -35,0 -53,-23 -53,-51 0,-25 0,-114 0,-114 0,-14 -8,-27 -28,-27 -19,0 -28,13 -28,27l0 108c0,64 29,112 119,112zm400 59l33 104c5,14 18,23 35,17 16,-5 22,-20 17,-34l-120 -373c-4,-13 -11,-20 -28,-20l-3 0c-17,0 -24,7 -28,20l-120 373c-5,14 2,29 17,34 16,5 30,-3 35,-17l33 -104 129 0zm-74 -180c4,-13 6,-20 9,-34l1 0c3,14 5,21 9,34l41 130 -100 0 41 -130zm321 250c-41,0 -57,-29 -57,-66l0 -191c0,-37 16,-66 57,-66l61 0c26,0 39,11 42,35 1,14 8,27 27,27 20,0 29,-13 29,-27 0,-62 -37,-89 -98,-89l-61 0c-76,0 -113,54 -113,119l0 191c0,66 38,119 113,119l61 0c61,0 98,-27 98,-89 0,-14 -8,-27 -29,-27 -19,0 -26,13 -27,27 -2,25 -16,35 -42,35l-61 0zm332 54c20,0 28,-13 28,-27l0 -342 87 0c14,0 26,-8 26,-27 0,-18 -13,-27 -26,-27l-230 0c-14,0 -26,9 -26,27 0,19 13,27 26,27l87 0 0 342c0,14 8,27 28,27zm244 -310c0,-37 16,-66 57,-66l48 0c41,0 57,29 57,66l0 191c0,37 -16,66 -57,66l-48 0c-41,0 -57,-29 -57,-66l0 -191zm218 0c0,-66 -38,-119 -113,-119l-48 0c-76,0 -113,54 -113,119l0 191c0,66 38,119 113,119l48 0c76,0 113,-54 113,-119l0 -191zm351 266l-128 -182 122 -158c11,-14 11,-29 -1,-39 -14,-13 -32,-7 -42,6l-125 170 -36 0 0 -154c0,-14 -8,-27 -27,-27 -20,0 -29,13 -29,27l0 374c0,14 8,27 29,27 19,0 27,-13 27,-27l0 -166 36 0 128 182c8,12 23,18 39,8 17,-12 16,-28 7,-40zm415 -131c0,16 2,33 4,44l-1 0 -135 -277c-7,-14 -17,-20 -28,-20 -20,0 -29,13 -29,27l0 374c0,14 8,27 28,27 19,0 27,-13 27,-27l0 -227c0,-16 -2,-33 -4,-44l1 0 135 277c7,14 17,20 28,20 20,0 29,-13 29,-27l0 -374c0,-14 -8,-27 -28,-27 -19,0 -27,13 -27,27l0 227zm151 -128c-18,0 -23,-10 -23,-27l0 -30c0,-17 5,-27 23,-27l9 0c18,0 23,10 23,27l0 30c0,17 -5,27 -23,27l-9 0zm10 40c41,0 61,-27 61,-64l0 -36c0,-36 -20,-63 -61,-63l-10 0c-41,0 -61,27 -61,63l0 36c0,36 20,64 61,64l10 0zm41 70c13,0 21,-6 21,-21 0,-16 -9,-21 -21,-21l-92 0c-13,0 -22,6 -22,21 0,16 10,21 22,21l92 0z"/>
   <path class="fil6 str2" d="M5595 9168l33 104c5,14 18,23 35,17 16,-5 22,-20 17,-34l-120 -373c-4,-13 -11,-20 -28,-20l-3 0c-17,0 -24,7 -28,20l-120 373c-5,14 2,29 17,34 16,5 30,-3 35,-17l33 -104 129 0zm-74 -180c4,-13 6,-20 9,-34l1 0c3,14 5,21 9,34l41 130 -100 0 41 -130zm486 244l-11 0 0 -336c0,-14 -8,-27 -27,-27l-144 0c-19,0 -27,13 -30,27l-54 336 -18 0c-19,0 -27,13 -27,27l0 77c0,14 8,27 27,27 20,0 29,-13 29,-27l0 -51 227 0 0 51c0,14 8,27 29,27 19,0 27,-13 27,-27l0 -77c0,-14 -8,-27 -27,-27zm-205 -41l42 -269 95 0 0 310 -146 0c4,-15 7,-27 8,-41zm349 -121l0 -148 93 0c41,0 58,21 58,57l0 30c0,36 -17,62 -58,62l-93 0zm93 54c77,0 114,-50 114,-116l0 -30c0,-67 -38,-110 -114,-110l-122 0c-19,0 -27,13 -27,27l0 369c0,14 8,27 28,27 20,0 28,-13 28,-27l0 -141 93 0zm404 162c14,0 26,-8 26,-27 0,-18 -13,-27 -26,-27l-163 0 0 -134 135 0c14,0 26,-8 26,-27 0,-18 -13,-27 -26,-27l-135 0 0 -122 163 0c14,0 26,-8 26,-27 0,-18 -13,-27 -26,-27l-192 0c-19,0 -27,13 -27,27l0 363c0,14 8,27 27,27l192 0zm200 -48c-41,0 -57,-29 -57,-66l0 -191c0,-37 16,-66 57,-66l61 0c26,0 39,11 42,35 1,14 8,27 27,27 20,0 29,-13 29,-27 0,-62 -37,-89 -98,-89l-61 0c-76,0 -113,54 -113,119l0 191c0,66 38,119 113,119l61 0c61,0 98,-27 98,-89 0,-14 -8,-27 -29,-27 -19,0 -26,13 -27,27 -2,25 -16,35 -42,35l-61 0zm624 -374c-18,-5 -30,6 -34,20 0,0 -29,113 -54,206 -4,0 -23,0 -44,0 -21,0 -32,-14 -36,-26 -8,-30 -47,-180 -47,-180 -4,-14 -15,-24 -33,-20 -20,5 -24,20 -21,34 0,0 35,134 45,172 10,41 29,71 101,71 8,0 18,-1 18,-1l2 0c-10,35 -19,61 -21,66 -8,18 -30,26 -46,26l-23 0c-16,0 -27,10 -27,28 0,19 13,28 27,28l23 0c39,0 76,-13 97,-60 10,-21 11,-27 18,-53 7,-26 75,-277 75,-277 4,-14 -1,-29 -20,-34zm291 401c0,14 8,27 27,27 20,0 28,-13 28,-27l0 -374c0,-14 -8,-27 -29,-27 -11,0 -19,4 -28,20l-159 284 -1 0c1,-11 2,-25 2,-41l0 -236c0,-14 -8,-27 -27,-27 -20,0 -28,13 -28,27l0 374c0,14 8,27 29,27 11,0 19,-4 28,-20l159 -284 1 0c-1,11 -2,25 -2,41l0 236zm411 -17l-128 -182 122 -158c11,-14 11,-29 -1,-39 -14,-13 -32,-7 -42,6l-125 170 -36 0 0 -154c0,-14 -8,-27 -27,-27 -20,0 -29,13 -29,27l0 374c0,14 8,27 29,27 19,0 27,-13 27,-27l0 -166 36 0 128 182c8,12 23,18 39,8 17,-12 16,-28 7,-40z"/>
   <g>
    <path class="fil6" d="M10696 16298l0 -203 6 0 6 0 6 1 6 1 6 1 6 1 6 2 6 2 6 2 5 2 5 2 5 3 5 3 5 3 5 3 4 3 4 4 4 4 4 4 3 4 3 4 3 4 3 4 3 4 2 5 2 5 2 5 1 5 1 5 1 5 0 5 0 5 0 5 0 5 -1 5 -1 5 -1 5 -2 5 -2 5 -2 5 -3 4 -3 4 -3 4 -3 4 -3 4 -4 4 -4 4 -4 4 -4 3 -5 3 -5 3 -5 3 -5 3 -5 2 -5 2 -6 2 -6 2 -6 2 -6 1 -6 1 -6 1 -6 1 -6 0 -6 0zm-4262 -203l4262 0 0 203 -4262 0 0 -203zm0 0l0 203 -6 0 -6 0 -6 -1 -6 -1 -6 -1 -6 -1 -6 -2 -6 -2 -6 -2 -5 -2 -5 -2 -5 -3 -5 -3 -5 -3 -5 -3 -4 -3 -4 -4 -4 -4 -4 -4 -3 -4 -3 -4 -3 -4 -3 -4 -3 -4 -2 -5 -2 -5 -2 -5 -1 -5 -1 -5 -1 -5 0 -5 0 -5 0 -5 0 -5 1 -5 1 -5 1 -5 2 -5 2 -5 2 -5 3 -4 3 -4 3 -4 3 -4 3 -4 4 -4 4 -4 4 -4 4 -3 5 -3 5 -3 5 -3 5 -3 5 -2 5 -2 6 -2 6 -2 6 -2 6 -1 6 -1 6 -1 6 -1 6 0 6 0zm2924 -366l0 -203 6 0 6 0 6 1 6 1 6 1 6 1 6 2 6 2 6 2 5 2 5 2 5 3 5 3 5 3 5 3 4 3 4 4 4 4 4 4 3 4 3 4 3 4 3 4 3 4 2 5 2 5 2 5 1 5 1 5 1 5 0 5 0 5 0 5 0 5 -1 5 -1 5 -1 5 -2 5 -2 5 -2 5 -3 4 -3 4 -3 4 -3 4 -3 4 -4 4 -4 4 -4 4 -4 3 -5 3 -5 3 -5 3 -5 3 -5 2 -5 2 -6 2 -6 2 -6 2 -6 1 -6 1 -6 1 -6 1 -6 0 -6 0zm-2924 0l0 -203 91 0 91 0 91 0 91 0 91 0 91 0 91 0 91 0 91 0 91 0 91 0 91 0 91 0 91 0 91 0 91 0 91 0 91 0 91 0 91 0 91 0 91 0 91 0 91 0 91 0 91 0 91 0 91 0 91 0 91 0 91 0 91 0 0 203 -91 0 -91 0 -91 0 -91 0 -91 0 -91 0 -91 0 -91 0 -91 0 -91 0 -91 0 -91 0 -91 0 -91 0 -91 0 -91 0 -91 0 -91 0 -91 0 -91 0 -91 0 -91 0 -91 0 -91 0 -91 0 -91 0 -91 0 -91 0 -91 0 -91 0 -91 0 -91 0zm0 -203l0 203 -6 0 -6 0 -6 -1 -6 -1 -6 -1 -6 -1 -6 -2 -6 -2 -6 -2 -5 -2 -5 -2 -5 -3 -5 -3 -5 -3 -5 -3 -4 -3 -4 -4 -4 -4 -4 -4 -3 -4 -3 -4 -3 -4 -3 -4 -3 -4 -2 -5 -2 -5 -2 -5 -1 -5 -1 -5 -1 -5 0 -5 0 -5 0 -5 0 -5 1 -5 1 -5 1 -5 2 -5 2 -5 2 -5 3 -4 3 -4 3 -4 3 -4 3 -4 4 -4 4 -4 4 -4 4 -3 5 -3 5 -3 5 -3 5 -3 5 -2 5 -2 6 -2 6 -2 6 -2 6 -1 6 -1 6 -1 6 -1 6 0 6 0z"/>
   </g>
   <path class="fil7 str3" d="M13011 13013c0,-79 29,-127 91,-127l28 0c62,0 91,48 91,127l0 172c0,79 -28,127 -91,127l-28 0c-62,0 -91,-48 -91,-127l0 -172zm284 0c0,-121 -56,-198 -165,-198l-28 0c-109,0 -166,77 -166,198l0 172c0,121 57,198 166,198l28 0c109,0 165,-77 165,-198l0 -172zm572 0c0,-79 29,-127 91,-127l28 0c62,0 91,48 91,127l0 172c0,79 -28,127 -91,127l-28 0c-62,0 -91,-48 -91,-127l0 -172zm284 0c0,-121 -56,-198 -165,-198l-28 0c-109,0 -166,77 -166,198l0 172c0,121 57,198 166,198l28 0c109,0 165,-77 165,-198l0 -172zm685 -198c-13,0 -21,6 -28,13 -39,43 -82,85 -128,127 -14,13 -20,30 -1,49 17,17 34,11 48,-1 28,-24 58,-54 82,-83l0 384 -99 0c-20,0 -35,10 -35,35 0,25 16,35 35,35l255 0c20,0 35,-10 35,-35 0,-25 -16,-35 -35,-35l-83 0 0 -452c0,-21 -6,-37 -34,-37l-13 0zm743 198c0,-79 29,-127 91,-127l28 0c62,0 91,48 91,127l0 172c0,79 -28,127 -91,127l-28 0c-62,0 -91,-48 -91,-127l0 -172zm284 0c0,-121 -56,-198 -165,-198l-28 0c-109,0 -166,77 -166,198l0 172c0,121 57,198 166,198l28 0c109,0 165,-77 165,-198l0 -172zm881 291l-15 0 0 -445c0,-19 -11,-36 -36,-36l-190 0c-25,0 -36,17 -39,36l-71 445 -24 0c-25,0 -36,17 -36,36l0 102c0,19 11,36 36,36 27,0 38,-17 38,-36l0 -67 300 0 0 67c0,19 11,36 38,36 25,0 36,-17 36,-36l0 -102c0,-19 -11,-36 -36,-36zm-270 -54l55 -356 126 0 0 410 -192 0c6,-20 9,-36 11,-54zm691 -149c0,-87 -47,-143 -145,-143l-24 0c-99,0 -145,57 -145,143l0 120c0,88 49,155 147,155l102 0c20,0 35,-9 35,-33 0,-24 -15,-33 -35,-33l-102 0c-53,0 -76,-38 -76,-88l0 -20 209 0c20,0 35,-11 35,-35l0 -65zm-244 34l0 -34c0,-47 21,-77 74,-77l24 0c53,0 74,31 74,77l0 34 -173 0zm482 181c-53,0 -77,-36 -77,-88l0 -127c0,-47 22,-76 75,-76l38 0c32,0 54,15 54,39 0,21 10,36 35,36 25,0 35,-16 35,-36 0,-73 -48,-106 -125,-106l-38 0c-99,0 -146,57 -146,143l0 127c0,89 50,155 148,155l35 0c77,0 125,-34 125,-106 0,-21 -10,-36 -35,-36 -25,0 -35,16 -35,36 0,24 -22,39 -54,39l-35 0zm505 -350l-147 0c-73,0 -119,50 -119,121l0 13c0,58 30,97 77,114l-77 121c-9,14 -5,32 14,44 21,13 39,3 48,-13l84 -143 86 0 0 125c0,19 9,36 35,36 27,0 36,-17 36,-36l0 -347c0,-19 -11,-35 -36,-35zm-35 192l-95 0c-49,0 -66,-29 -66,-63l0 -10c0,-28 20,-53 56,-53l105 0 0 130 0 -4zm445 -192l-261 0c-18,0 -35,8 -35,33 0,24 17,35 35,35l95 0 0 314c0,19 9,36 35,36 25,0 35,-17 35,-36l0 -314 95 0c18,0 35,-10 35,-35 0,-25 -17,-33 -35,-33zm184 134l0 -106c0,-19 -9,-36 -35,-36 -27,0 -36,17 -36,36l0 347c0,19 11,35 36,35l147 0c73,0 119,-50 119,-121l0 -25c0,-80 -57,-130 -137,-130l-95 0zm161 157c0,28 -20,53 -56,53l-105 0 0 -142 95 0c49,0 66,32 66,66l0 23z"/>
   <g>
    <path class="fil6" d="M12784 12647l-85 0 0 -2 0 -2 0 -2 0 -2 0 -2 1 -2 1 -2 1 -2 1 -2 1 -2 1 -2 1 -1 1 -1 1 -1 1 -1 1 -1 1 -1 2 -1 2 -1 2 -1 2 -1 2 -1 2 -1 2 -1 2 -1 2 -1 2 0 2 0 2 0 2 0 2 0 2 0 2 0 2 0 2 0 2 0 2 0 2 0 2 1 2 1 2 1 2 1 2 1 2 1 2 1 2 1 2 1 1 1 1 1 1 1 1 1 1 1 1 1 1 2 1 2 1 2 1 2 1 2 1 2 0 2 0 2 0 2 0 2 0 2zm-85 910l0 -910 85 0 0 910 -85 0zm0 0l85 0 0 2 0 2 0 2 0 2 0 2 -1 2 -1 2 -1 2 -1 2 -1 2 -1 2 -1 1 -1 1 -1 1 -1 1 -1 1 -1 1 -2 1 -2 1 -2 1 -2 1 -2 1 -2 1 -2 1 -2 1 -2 1 -2 0 -2 0 -2 0 -2 0 -2 0 -2 0 -2 0 -2 0 -2 0 -2 0 -2 0 -2 0 -2 -1 -2 -1 -2 -1 -2 -1 -2 -1 -2 -1 -2 -1 -2 -1 -2 -1 -1 -1 -1 -1 -1 -1 -1 -1 -1 -1 -1 -1 -1 -2 -1 -2 -1 -2 -1 -2 -1 -2 -1 -2 0 -2 0 -2 0 -2 0 -2 0 -2zm42 45l0 73 -2 0 -2 0 -2 0 -2 0 -2 0 -2 0 -2 -1 -2 -1 -2 -1 -2 -1 -2 -1 -2 -1 -2 -1 -2 -1 -2 -1 -1 -1 -1 -1 -1 -1 -1 -1 -1 -1 -1 -1 -1 -2 -1 -2 -1 -2 -1 -2 -1 -2 -1 -2 0 -2 0 -2 0 -2 0 -2 0 -2 0 -2 0 -2 0 -2 0 -2 0 -2 1 -2 1 -2 1 -2 1 -2 1 -2 1 -2 1 -1 1 -1 1 -1 1 -1 1 -1 1 -1 2 -1 2 -1 2 -1 2 -1 2 -1 2 -1 2 -1 2 -1 2 -1 2 0 2 0 2 0 2 0 2 0 2 0zm6231 73l-6231 0 0 -73 6231 0 0 73zm0 0l0 -73 2 0 2 0 2 0 2 0 2 0 2 0 2 1 2 1 2 1 2 1 2 1 2 1 2 1 2 1 2 1 1 1 1 1 1 1 1 1 1 1 1 1 1 2 1 2 1 2 1 2 1 2 1 2 0 2 0 2 0 2 0 2 0 2 0 2 0 2 0 2 0 2 0 2 -1 2 -1 2 -1 2 -1 2 -1 2 -1 2 -1 1 -1 1 -1 1 -1 1 -1 1 -1 1 -2 1 -2 1 -2 1 -2 1 -2 1 -2 1 -2 1 -2 1 -2 1 -2 0 -2 0 -2 0 -2 0 -2 0 -2 0zm-6231 -1144l0 73 -2 0 -2 0 -2 0 -2 0 -2 0 -2 0 -2 -1 -2 -1 -2 -1 -2 -1 -2 -1 -2 -1 -2 -1 -2 -1 -2 -1 -1 -1 -1 -1 -1 -1 -1 -1 -1 -1 -1 -1 -1 -2 -1 -2 -1 -2 -1 -2 -1 -2 -1 -2 0 -2 0 -2 0 -2 0 -2 0 -2 0 -2 0 -2 0 -2 0 -2 0 -2 1 -2 1 -2 1 -2 1 -2 1 -2 1 -2 1 -1 1 -1 1 -1 1 -1 1 -1 1 -1 2 -1 2 -1 2 -1 2 -1 2 -1 2 -1 2 -1 2 -1 2 -1 2 0 2 0 2 0 2 0 2 0 2 0zm6231 73l-6231 0 0 -73 6231 0 0 73zm0 0l0 -73 2 0 2 0 2 0 2 0 2 0 2 0 2 1 2 1 2 1 2 1 2 1 2 1 2 1 2 1 2 1 1 1 1 1 1 1 1 1 1 1 1 1 1 2 1 2 1 2 1 2 1 2 1 2 0 2 0 2 0 2 0 2 0 2 0 2 0 2 0 2 0 2 0 2 -1 2 -1 2 -1 2 -1 2 -1 2 -1 2 -1 1 -1 1 -1 1 -1 1 -1 1 -1 1 -2 1 -2 1 -2 1 -2 1 -2 1 -2 1 -2 1 -2 1 -2 1 -2 0 -2 0 -2 0 -2 0 -2 0 -2 0zm48 45l-85 0 0 -2 0 -2 0 -2 0 -2 0 -2 1 -2 1 -2 1 -2 1 -2 1 -2 1 -2 1 -1 1 -1 1 -1 1 -1 1 -1 1 -1 2 -1 2 -1 2 -1 2 -1 2 -1 2 -1 2 -1 2 -1 2 -1 2 0 2 0 2 0 2 0 2 0 2 0 2 0 2 0 2 0 2 0 2 0 2 0 2 1 2 1 2 1 2 1 2 1 2 1 2 1 2 1 2 1 1 1 1 1 1 1 1 1 1 1 1 1 1 2 1 2 1 2 1 2 1 2 1 2 0 2 0 2 0 2 0 2 0 2zm-85 910l0 -910 85 0 0 910 -85 0zm0 0l85 0 0 2 0 2 0 2 0 2 0 2 -1 2 -1 2 -1 2 -1 2 -1 2 -1 2 -1 1 -1 1 -1 1 -1 1 -1 1 -1 1 -2 1 -2 1 -2 1 -2 1 -2 1 -2 1 -2 1 -2 1 -2 1 -2 0 -2 0 -2 0 -2 0 -2 0 -2 0 -2 0 -2 0 -2 0 -2 0 -2 0 -2 0 -2 -1 -2 -1 -2 -1 -2 -1 -2 -1 -2 -1 -2 -1 -2 -1 -2 -1 -1 -1 -1 -1 -1 -1 -1 -1 -1 -1 -1 -1 -1 -2 -1 -2 -1 -2 -1 -2 -1 -2 -1 -2 0 -2 0 -2 0 -2 0 -2 0 -2zm-2947 -910l-85 0 0 -2 0 -2 0 -2 0 -2 0 -2 1 -2 1 -2 1 -2 1 -2 1 -2 1 -2 1 -1 1 -1 1 -1 1 -1 1 -1 1 -1 2 -1 2 -1 2 -1 2 -1 2 -1 2 -1 2 -1 2 -1 2 -1 2 0 2 0 2 0 2 0 2 0 2 0 2 0 2 0 2 0 2 0 2 0 2 0 2 1 2 1 2 1 2 1 2 1 2 1 2 1 2 1 2 1 1 1 1 1 1 1 1 1 1 1 1 1 1 2 1 2 1 2 1 2 1 2 1 2 0 2 0 2 0 2 0 2 0 2zm-85 910l0 -910 85 0 0 910 -85 0zm0 0l85 0 0 2 0 2 0 2 0 2 0 2 -1 2 -1 2 -1 2 -1 2 -1 2 -1 2 -1 1 -1 1 -1 1 -1 1 -1 1 -1 1 -2 1 -2 1 -2 1 -2 1 -2 1 -2 1 -2 1 -2 1 -2 1 -2 0 -2 0 -2 0 -2 0 -2 0 -2 0 -2 0 -2 0 -2 0 -2 0 -2 0 -2 0 -2 -1 -2 -1 -2 -1 -2 -1 -2 -1 -2 -1 -2 -1 -2 -1 -2 -1 -1 -1 -1 -1 -1 -1 -1 -1 -1 -1 -1 -1 -1 -2 -1 -2 -1 -2 -1 -2 -1 -2 -1 -2 0 -2 0 -2 0 -2 0 -2 0 -2zm-717 -910l-85 0 0 -2 0 -2 0 -2 0 -2 0 -2 1 -2 1 -2 1 -2 1 -2 1 -2 1 -2 1 -1 1 -1 1 -1 1 -1 1 -1 1 -1 2 -1 2 -1 2 -1 2 -1 2 -1 2 -1 2 -1 2 -1 2 -1 2 0 2 0 2 0 2 0 2 0 2 0 2 0 2 0 2 0 2 0 2 0 2 0 2 1 2 1 2 1 2 1 2 1 2 1 2 1 2 1 2 1 1 1 1 1 1 1 1 1 1 1 1 1 1 2 1 2 1 2 1 2 1 2 1 2 0 2 0 2 0 2 0 2 0 2zm-85 910l0 -910 85 0 0 910 -85 0zm0 0l85 0 0 2 0 2 0 2 0 2 0 2 -1 2 -1 2 -1 2 -1 2 -1 2 -1 2 -1 1 -1 1 -1 1 -1 1 -1 1 -1 1 -2 1 -2 1 -2 1 -2 1 -2 1 -2 1 -2 1 -2 1 -2 1 -2 0 -2 0 -2 0 -2 0 -2 0 -2 0 -2 0 -2 0 -2 0 -2 0 -2 0 -2 0 -2 -1 -2 -1 -2 -1 -2 -1 -2 -1 -2 -1 -2 -1 -2 -1 -2 -1 -1 -1 -1 -1 -1 -1 -1 -1 -1 -1 -1 -1 -1 -2 -1 -2 -1 -2 -1 -2 -1 -2 -1 -2 0 -2 0 -2 0 -2 0 -2 0 -2zm-717 -910l-85 0 0 -2 0 -2 0 -2 0 -2 0 -2 1 -2 1 -2 1 -2 1 -2 1 -2 1 -2 1 -1 1 -1 1 -1 1 -1 1 -1 1 -1 2 -1 2 -1 2 -1 2 -1 2 -1 2 -1 2 -1 2 -1 2 -1 2 0 2 0 2 0 2 0 2 0 2 0 2 0 2 0 2 0 2 0 2 0 2 0 2 1 2 1 2 1 2 1 2 1 2 1 2 1 2 1 2 1 1 1 1 1 1 1 1 1 1 1 1 1 1 2 1 2 1 2 1 2 1 2 1 2 0 2 0 2 0 2 0 2 0 2zm-85 910l0 -910 85 0 0 910 -85 0zm0 0l85 0 0 2 0 2 0 2 0 2 0 2 -1 2 -1 2 -1 2 -1 2 -1 2 -1 2 -1 1 -1 1 -1 1 -1 1 -1 1 -1 1 -2 1 -2 1 -2 1 -2 1 -2 1 -2 1 -2 1 -2 1 -2 1 -2 0 -2 0 -2 0 -2 0 -2 0 -2 0 -2 0 -2 0 -2 0 -2 0 -2 0 -2 0 -2 -1 -2 -1 -2 -1 -2 -1 -2 -1 -2 -1 -2 -1 -2 -1 -2 -1 -1 -1 -1 -1 -1 -1 -1 -1 -1 -1 -1 -1 -1 -2 -1 -2 -1 -2 -1 -2 -1 -2 -1 -2 0 -2 0 -2 0 -2 0 -2 0 -2zm-717 -910l-85 0 0 -2 0 -2 0 -2 0 -2 0 -2 1 -2 1 -2 1 -2 1 -2 1 -2 1 -2 1 -1 1 -1 1 -1 1 -1 1 -1 1 -1 2 -1 2 -1 2 -1 2 -1 2 -1 2 -1 2 -1 2 -1 2 -1 2 0 2 0 2 0 2 0 2 0 2 0 2 0 2 0 2 0 2 0 2 0 2 0 2 1 2 1 2 1 2 1 2 1 2 1 2 1 2 1 2 1 1 1 1 1 1 1 1 1 1 1 1 1 1 2 1 2 1 2 1 2 1 2 1 2 0 2 0 2 0 2 0 2 0 2zm-85 910l0 -910 85 0 0 910 -85 0zm0 0l85 0 0 2 0 2 0 2 0 2 0 2 -1 2 -1 2 -1 2 -1 2 -1 2 -1 2 -1 1 -1 1 -1 1 -1 1 -1 1 -1 1 -2 1 -2 1 -2 1 -2 1 -2 1 -2 1 -2 1 -2 1 -2 1 -2 0 -2 0 -2 0 -2 0 -2 0 -2 0 -2 0 -2 0 -2 0 -2 0 -2 0 -2 0 -2 -1 -2 -1 -2 -1 -2 -1 -2 -1 -2 -1 -2 -1 -2 -1 -2 -1 -1 -1 -1 -1 -1 -1 -1 -1 -1 -1 -1 -1 -1 -2 -1 -2 -1 -2 -1 -2 -1 -2 -1 -2 0 -2 0 -2 0 -2 0 -2 0 -2z"/>
   </g>
   <g>
    <path class="fil7" d="M12451 13166l0 -75 2 0 2 0 2 0 2 0 2 0 2 1 2 1 2 1 2 1 2 1 2 1 2 1 2 1 2 1 2 1 1 1 1 1 1 1 1 1 1 1 1 2 1 2 1 2 1 2 1 2 1 2 1 2 0 2 0 2 0 2 0 2 0 2 0 2 0 2 0 2 0 2 0 2 -1 2 -1 2 -1 2 -1 2 -1 2 -1 2 -1 2 -1 1 -1 1 -1 1 -1 1 -1 1 -2 1 -2 1 -2 1 -2 1 -2 1 -2 1 -2 1 -2 1 -2 1 -2 1 -2 0 -2 0 -2 0 -2 0 -2 0zm-280 -276l85 0 0 0 0 11 1 10 1 10 2 10 2 10 3 10 3 9 4 9 4 9 4 9 5 8 5 8 6 8 6 8 6 7 7 7 7 7 7 6 7 6 8 5 8 5 8 5 8 4 9 4 9 3 9 3 9 3 9 2 9 2 10 1 10 1 10 0 0 75 -15 0 -14 -1 -14 -2 -14 -3 -14 -3 -14 -4 -13 -4 -13 -5 -13 -6 -12 -6 -12 -7 -11 -7 -11 -8 -11 -8 -10 -9 -10 -9 -9 -10 -9 -10 -8 -10 -8 -11 -7 -11 -7 -11 -6 -12 -5 -12 -5 -12 -4 -13 -4 -13 -3 -13 -2 -13 -2 -14 -1 -14 0 -14 0 0zm85 0l-85 0 0 -2 0 -2 0 -2 0 -2 0 -2 1 -2 1 -2 1 -2 1 -2 1 -2 1 -2 1 -2 1 -1 1 -1 1 -1 1 -1 1 -1 2 -1 2 -1 2 -1 2 -1 2 -1 2 -1 2 -1 2 -1 2 -1 2 -1 2 0 2 0 2 0 2 0 2 0 2 0 2 0 2 0 2 0 2 0 2 1 2 1 2 1 2 1 2 1 2 1 2 1 2 1 2 1 2 1 1 1 1 1 1 1 1 1 1 1 1 2 1 2 1 2 1 2 1 2 1 2 1 2 0 2 0 2 0 2 0 2 0 2zm0 -2560l0 2560 -85 0 0 -2560 0 0 85 0zm0 0l-85 0 0 -2 0 -2 0 -2 0 -2 0 -2 1 -2 1 -2 1 -2 1 -2 1 -2 1 -2 1 -2 1 -1 1 -1 1 -1 1 -1 1 -1 2 -1 2 -1 2 -1 2 -1 2 -1 2 -1 2 -1 2 -1 2 -1 2 -1 2 0 2 0 2 0 2 0 2 0 2 0 2 0 2 0 2 0 2 0 2 1 2 1 2 1 2 1 2 1 2 1 2 1 2 1 2 1 2 1 1 1 1 1 1 1 1 1 1 1 1 2 1 2 1 2 1 2 1 2 1 2 1 2 0 2 0 2 0 2 0 2 0 2zm-280 -200l0 -75 15 0 14 1 14 2 14 3 14 3 14 4 13 4 13 5 13 6 12 6 12 7 11 7 11 8 11 8 10 9 10 9 9 10 9 10 8 10 8 11 7 11 7 11 6 12 5 12 5 12 4 13 4 13 3 13 2 13 2 14 1 14 0 14 -85 0 0 -11 -1 -10 -1 -10 -2 -10 -2 -10 -3 -10 -3 -9 -4 -9 -4 -9 -4 -9 -5 -8 -5 -8 -6 -8 -6 -8 -6 -7 -7 -7 -7 -7 -7 -6 -7 -6 -8 -5 -8 -5 -8 -5 -8 -4 -9 -4 -9 -3 -9 -3 -9 -3 -9 -2 -9 -2 -10 -1 -10 -1 -10 0zm0 -75l0 75 -2 0 -2 0 -2 0 -2 0 -2 0 -2 -1 -2 -1 -2 -1 -2 -1 -2 -1 -2 -1 -2 -1 -2 -1 -2 -1 -2 -1 -1 -1 -1 -1 -1 -1 -1 -1 -1 -1 -1 -2 -1 -2 -1 -2 -1 -2 -1 -2 -1 -2 -1 -2 0 -2 0 -2 0 -2 0 -2 0 -2 0 -2 0 -2 0 -2 0 -2 0 -2 1 -2 1 -2 1 -2 1 -2 1 -2 1 -2 1 -2 1 -1 1 -1 1 -1 1 -1 1 -1 2 -1 2 -1 2 -1 2 -1 2 -1 2 -1 2 -1 2 -1 2 -1 2 -1 2 0 2 0 2 0 2 0 2 0zm476 3112l0 -75 2 0 2 0 2 0 2 0 2 0 2 1 2 1 2 1 2 1 2 1 2 1 2 1 2 1 2 1 2 1 1 1 1 1 1 1 1 1 1 1 1 2 1 2 1 2 1 2 1 2 1 2 1 2 0 2 0 2 0 2 0 2 0 2 0 2 0 2 0 2 0 2 0 2 -1 2 -1 2 -1 2 -1 2 -1 2 -1 2 -1 2 -1 1 -1 1 -1 1 -1 1 -1 1 -2 1 -2 1 -2 1 -2 1 -2 1 -2 1 -2 1 -2 1 -2 1 -2 1 -2 0 -2 0 -2 0 -2 0 -2 0zm-196 200l-85 0 0 0 0 -14 1 -14 2 -14 2 -13 3 -13 4 -13 4 -13 5 -12 5 -12 6 -12 7 -11 7 -11 8 -11 8 -10 9 -10 9 -10 10 -9 10 -9 11 -8 11 -8 11 -7 12 -7 12 -6 13 -6 13 -5 13 -4 14 -4 14 -3 14 -3 14 -2 14 -1 15 0 0 75 -10 0 -10 1 -10 1 -9 2 -9 2 -9 3 -9 3 -9 3 -9 4 -8 4 -8 5 -8 5 -8 5 -7 6 -7 6 -7 7 -7 7 -6 7 -6 8 -6 8 -5 8 -5 8 -4 9 -4 9 -4 9 -3 9 -3 10 -2 10 -2 10 -1 10 -1 10 0 11 0 0zm-85 0l85 0 0 2 0 2 0 2 0 2 0 2 -1 2 -1 2 -1 2 -1 2 -1 2 -1 2 -1 2 -1 1 -1 1 -1 1 -1 1 -1 1 -2 1 -2 1 -2 1 -2 1 -2 1 -2 1 -2 1 -2 1 -2 1 -2 1 -2 0 -2 0 -2 0 -2 0 -2 0 -2 0 -2 0 -2 0 -2 0 -2 0 -2 -1 -2 -1 -2 -1 -2 -1 -2 -1 -2 -1 -2 -1 -2 -1 -2 -1 -2 -1 -1 -1 -1 -1 -1 -1 -1 -1 -1 -1 -1 -2 -1 -2 -1 -2 -1 -2 -1 -2 -1 -2 -1 -2 0 -2 0 -2 0 -2 0 -2 0 -2zm0 2560l0 -2560 85 0 0 2560 0 0 -85 0zm0 0l85 0 0 2 0 2 0 2 0 2 0 2 -1 2 -1 2 -1 2 -1 2 -1 2 -1 2 -1 2 -1 1 -1 1 -1 1 -1 1 -1 1 -2 1 -2 1 -2 1 -2 1 -2 1 -2 1 -2 1 -2 1 -2 1 -2 1 -2 0 -2 0 -2 0 -2 0 -2 0 -2 0 -2 0 -2 0 -2 0 -2 0 -2 -1 -2 -1 -2 -1 -2 -1 -2 -1 -2 -1 -2 -1 -2 -1 -2 -1 -2 -1 -1 -1 -1 -1 -1 -1 -1 -1 -1 -1 -1 -2 -1 -2 -1 -2 -1 -2 -1 -2 -1 -2 -1 -2 0 -2 0 -2 0 -2 0 -2 0 -2zm-196 276l0 -75 10 0 10 -1 10 -1 9 -2 9 -2 9 -3 9 -3 9 -3 9 -4 8 -4 8 -5 8 -5 8 -5 7 -6 7 -6 7 -7 7 -7 6 -7 6 -8 6 -8 5 -8 5 -8 4 -9 4 -9 4 -9 3 -9 3 -10 2 -10 2 -10 1 -10 1 -10 0 -11 85 0 0 14 -1 14 -2 14 -2 13 -3 13 -4 13 -4 13 -5 12 -5 12 -6 12 -7 11 -7 11 -8 11 -8 10 -9 10 -9 10 -10 9 -10 9 -11 8 -11 8 -11 7 -12 7 -12 6 -13 6 -13 5 -13 4 -14 4 -14 3 -14 3 -14 2 -14 1 -15 0zm0 -75l0 75 -2 0 -2 0 -2 0 -2 0 -2 0 -2 -1 -2 -1 -2 -1 -2 -1 -2 -1 -2 -1 -2 -1 -2 -1 -2 -1 -2 -1 -1 -1 -1 -1 -1 -1 -1 -1 -1 -1 -1 -2 -1 -2 -1 -2 -1 -2 -1 -2 -1 -2 -1 -2 0 -2 0 -2 0 -2 0 -2 0 -2 0 -2 0 -2 0 -2 0 -2 0 -2 1 -2 1 -2 1 -2 1 -2 1 -2 1 -2 1 -2 1 -1 1 -1 1 -1 1 -1 1 -1 2 -1 2 -1 2 -1 2 -1 2 -1 2 -1 2 -1 2 -1 2 -1 2 -1 2 0 2 0 2 0 2 0 2 0z"/>
   </g>
   <polygon class="fil4" points="13647,3021 10913,3021 10913,3557 13647,3557 "/>
   <g>
    <path class="fil7" d="M10913 3530l0 75 -2 0 -2 0 -2 0 -2 0 -2 0 -2 -1 -2 -1 -2 -1 -2 -1 -2 -1 -2 -1 -2 -1 -2 -1 -2 -1 -2 -1 -1 -1 -1 -1 -1 -1 -1 -1 -1 -1 -1 -2 -1 -2 -1 -2 -1 -2 -1 -2 -1 -2 -1 -2 0 -2 0 -2 0 -2 0 -2 0 -2 0 -2 0 -2 0 -2 0 -2 0 -2 1 -2 1 -2 1 -2 1 -2 1 -2 1 -2 1 -2 1 -1 1 -1 1 -1 1 -1 1 -1 2 -1 2 -1 2 -1 2 -1 2 -1 2 -1 2 -1 2 -1 2 -1 2 -1 2 0 2 0 2 0 2 0 2 0zm2725 75l-2725 0 0 -75 2725 0 0 75zm0 0l0 -75 2 0 2 0 2 0 2 0 2 0 2 1 2 1 2 1 2 1 2 1 2 1 2 1 2 1 2 1 2 1 1 1 1 1 1 1 1 1 1 1 1 2 1 2 1 2 1 2 1 2 1 2 1 2 0 2 0 2 0 2 0 2 0 2 0 2 0 2 0 2 0 2 0 2 -1 2 -1 2 -1 2 -1 2 -1 2 -1 2 -1 2 -1 1 -1 1 -1 1 -1 1 -1 1 -2 1 -2 1 -2 1 -2 1 -2 1 -2 1 -2 1 -2 1 -2 1 -2 1 -2 0 -2 0 -2 0 -2 0 -2 0z"/>
   </g>
   <polygon class="fil4" points="13647,3755 10913,3755 10913,4291 13647,4291 "/>
   <polygon class="fil4" points="13647,4419 5371,4419 5371,4925 13647,4925 "/>
   <polygon class="fil4" points="13647,5201 10913,5201 10913,5737 13647,5737 "/>
   <g>
    <path class="fil7" d="M5410 4887l0 76 -2 0 -2 0 -2 0 -2 0 -2 0 -2 -1 -2 -1 -2 -1 -2 -1 -2 -1 -2 -1 -2 -1 -2 -1 -2 -1 -2 -1 -1 -1 -1 -1 -1 -1 -1 -1 -1 -1 -1 -2 -1 -2 -1 -2 -1 -2 -1 -2 -1 -2 -1 -2 0 -2 0 -2 0 -2 0 -2 0 -2 0 -2 0 -2 0 -2 0 -2 0 -2 1 -2 1 -2 1 -2 1 -2 1 -2 1 -2 1 -2 1 -1 1 -1 1 -1 1 -1 1 -1 2 -1 2 -1 2 -1 2 -1 2 -1 2 -1 2 -1 2 -1 2 -1 2 -1 2 0 2 0 2 0 2 0 2 0zm8229 76l-8229 0 0 -76 8229 0 0 76zm0 0l0 -76 2 0 2 0 2 0 2 0 2 0 2 1 2 1 2 1 2 1 2 1 2 1 2 1 2 1 2 1 2 1 1 1 1 1 1 1 1 1 1 1 1 2 1 2 1 2 1 2 1 2 1 2 1 2 0 2 0 2 0 2 0 2 0 2 0 2 0 2 0 2 0 2 0 2 -1 2 -1 2 -1 2 -1 2 -1 2 -1 2 -1 2 -1 1 -1 1 -1 1 -1 1 -1 1 -2 1 -2 1 -2 1 -2 1 -2 1 -2 1 -2 1 -2 1 -2 1 -2 1 -2 0 -2 0 -2 0 -2 0 -2 0z"/>
   </g>
   <g>
    <path class="fil7" d="M10913 4253l0 75 -2 0 -2 0 -2 0 -2 0 -2 0 -2 -1 -2 -1 -2 -1 -2 -1 -2 -1 -2 -1 -2 -1 -2 -1 -2 -1 -2 -1 -1 -1 -1 -1 -1 -1 -1 -1 -1 -1 -1 -2 -1 -2 -1 -2 -1 -2 -1 -2 -1 -2 -1 -2 0 -2 0 -2 0 -2 0 -2 0 -2 0 -2 0 -2 0 -2 0 -2 0 -2 1 -2 1 -2 1 -2 1 -2 1 -2 1 -2 1 -2 1 -1 1 -1 1 -1 1 -1 1 -1 2 -1 2 -1 2 -1 2 -1 2 -1 2 -1 2 -1 2 -1 2 -1 2 -1 2 0 2 0 2 0 2 0 2 0zm2725 75l-2725 0 0 -75 2725 0 0 75zm0 0l0 -75 2 0 2 0 2 0 2 0 2 0 2 1 2 1 2 1 2 1 2 1 2 1 2 1 2 1 2 1 2 1 1 1 1 1 1 1 1 1 1 1 1 2 1 2 1 2 1 2 1 2 1 2 1 2 0 2 0 2 0 2 0 2 0 2 0 2 0 2 0 2 0 2 0 2 -1 2 -1 2 -1 2 -1 2 -1 2 -1 2 -1 2 -1 1 -1 1 -1 1 -1 1 -1 1 -2 1 -2 1 -2 1 -2 1 -2 1 -2 1 -2 1 -2 1 -2 1 -2 1 -2 0 -2 0 -2 0 -2 0 -2 0z"/>
   </g>
   <g>
    <path class="fil7" d="M10913 5700l0 75 -2 0 -2 0 -2 0 -2 0 -2 0 -2 -1 -2 -1 -2 -1 -2 -1 -2 -1 -2 -1 -2 -1 -2 -1 -2 -1 -2 -1 -1 -1 -1 -1 -1 -1 -1 -1 -1 -1 -1 -2 -1 -2 -1 -2 -1 -2 -1 -2 -1 -2 -1 -2 0 -2 0 -2 0 -2 0 -2 0 -2 0 -2 0 -2 0 -2 0 -2 0 -2 1 -2 1 -2 1 -2 1 -2 1 -2 1 -2 1 -2 1 -1 1 -1 1 -1 1 -1 1 -1 2 -1 2 -1 2 -1 2 -1 2 -1 2 -1 2 -1 2 -1 2 -1 2 -1 2 0 2 0 2 0 2 0 2 0zm2725 75l-2725 0 0 -75 2725 0 0 75zm0 0l0 -75 2 0 2 0 2 0 2 0 2 0 2 1 2 1 2 1 2 1 2 1 2 1 2 1 2 1 2 1 2 1 1 1 1 1 1 1 1 1 1 1 1 2 1 2 1 2 1 2 1 2 1 2 1 2 0 2 0 2 0 2 0 2 0 2 0 2 0 2 0 2 0 2 0 2 -1 2 -1 2 -1 2 -1 2 -1 2 -1 2 -1 2 -1 1 -1 1 -1 1 -1 1 -1 1 -2 1 -2 1 -2 1 -2 1 -2 1 -2 1 -2 1 -2 1 -2 1 -2 1 -2 0 -2 0 -2 0 -2 0 -2 0z"/>
   </g>
   <polygon class="fil4" points="13647,7980 10913,7980 10913,8515 13647,8515 "/>
   <polygon class="fil4" points="13647,8747 8365,8747 8365,9283 13647,9283 "/>
   <g>
    <path class="fil7" d="M8364 9247l0 76 -2 0 -2 0 -2 0 -2 0 -2 0 -2 -1 -2 -1 -2 -1 -2 -1 -2 -1 -2 -1 -2 -1 -2 -1 -2 -1 -2 -1 -1 -1 -1 -1 -1 -1 -1 -1 -1 -1 -1 -2 -1 -2 -1 -2 -1 -2 -1 -2 -1 -2 -1 -2 0 -2 0 -2 0 -2 0 -2 0 -2 0 -2 0 -2 0 -2 0 -2 0 -2 1 -2 1 -2 1 -2 1 -2 1 -2 1 -2 1 -2 1 -1 1 -1 1 -1 1 -1 1 -1 2 -1 2 -1 2 -1 2 -1 2 -1 2 -1 2 -1 2 -1 2 -1 2 -1 2 0 2 0 2 0 2 0 2 0zm5274 76l-5274 0 0 -76 5274 0 0 76zm0 0l0 -76 2 0 2 0 2 0 2 0 2 0 2 1 2 1 2 1 2 1 2 1 2 1 2 1 2 1 2 1 2 1 1 1 1 1 1 1 1 1 1 1 1 2 1 2 1 2 1 2 1 2 1 2 1 2 0 2 0 2 0 2 0 2 0 2 0 2 0 2 0 2 0 2 0 2 -1 2 -1 2 -1 2 -1 2 -1 2 -1 2 -1 2 -1 1 -1 1 -1 1 -1 1 -1 1 -2 1 -2 1 -2 1 -2 1 -2 1 -2 1 -2 1 -2 1 -2 1 -2 1 -2 0 -2 0 -2 0 -2 0 -2 0z"/>
   </g>
   <g>
    <path class="fil7" d="M10913 8480l0 75 -2 0 -2 0 -2 0 -2 0 -2 0 -2 -1 -2 -1 -2 -1 -2 -1 -2 -1 -2 -1 -2 -1 -2 -1 -2 -1 -2 -1 -1 -1 -1 -1 -1 -1 -1 -1 -1 -1 -1 -2 -1 -2 -1 -2 -1 -2 -1 -2 -1 -2 -1 -2 0 -2 0 -2 0 -2 0 -2 0 -2 0 -2 0 -2 0 -2 0 -2 0 -2 1 -2 1 -2 1 -2 1 -2 1 -2 1 -2 1 -2 1 -1 1 -1 1 -1 1 -1 1 -1 2 -1 2 -1 2 -1 2 -1 2 -1 2 -1 2 -1 2 -1 2 -1 2 -1 2 0 2 0 2 0 2 0 2 0zm2725 75l-2725 0 0 -75 2725 0 0 75zm0 0l0 -75 2 0 2 0 2 0 2 0 2 0 2 1 2 1 2 1 2 1 2 1 2 1 2 1 2 1 2 1 2 1 1 1 1 1 1 1 1 1 1 1 1 2 1 2 1 2 1 2 1 2 1 2 1 2 0 2 0 2 0 2 0 2 0 2 0 2 0 2 0 2 0 2 0 2 -1 2 -1 2 -1 2 -1 2 -1 2 -1 2 -1 2 -1 1 -1 1 -1 1 -1 1 -1 1 -2 1 -2 1 -2 1 -2 1 -2 1 -2 1 -2 1 -2 1 -2 1 -2 1 -2 0 -2 0 -2 0 -2 0 -2 0z"/>
   </g>
  </g>
 </g>
</svg>
