<?xml version="1.0" encoding="UTF-8"?>
<!DOCTYPE svg PUBLIC "-//W3C//DTD SVG 1.0//EN" "http://www.w3.org/TR/2001/REC-SVG-20010904/DTD/svg10.dtd">
<!-- Creator: CorelDRAW X7 -->
<svg xmlns="http://www.w3.org/2000/svg" xml:space="preserve" width="200mm" height="200mm" version="1.0" style="shape-rendering:geometricPrecision; text-rendering:geometricPrecision; image-rendering:optimizeQuality; fill-rule:evenodd; clip-rule:evenodd"
viewBox="0 0 20000 20000"
 xmlns:xlink="http://www.w3.org/1999/xlink">
 <defs>
  <style type="text/css">
   <![CDATA[
    .str3 {stroke:#7F6351;stroke-width:25}
    .str0 {stroke:#AB8082;stroke-width:7.62}
    .str5 {stroke:#2E99A3;stroke-width:16.61;stroke-linecap:round;stroke-linejoin:round}
    .str4 {stroke:#737370;stroke-width:73.41;stroke-linecap:round;stroke-linejoin:round}
    .str2 {stroke:#806350;stroke-width:27.79}
    .str1 {stroke:#AB8082;stroke-width:147.9;stroke-linecap:round;stroke-linejoin:round}
    .fil39 {fill:none}
    .fil36 {fill:none;fill-rule:nonzero}
    .fil17 {fill:#FEFEFE}
    .fil3 {fill:#F8BC8B}
    .fil28 {fill:#F6AD75}
    .fil11 {fill:#EC6B47}
    .fil18 {fill:#F8F8F9}
    .fil26 {fill:#F0F8FE}
    .fil23 {fill:#E6E3F2}
    .fil1 {fill:#DAE0CF}
    .fil8 {fill:#BAB5B4}
    .fil7 {fill:#B9B3B2}
    .fil14 {fill:#B5AEAC}
    .fil4 {fill:#AAB59E}
    .fil13 {fill:#A4A09F}
    .fil6 {fill:#A4A09D}
    .fil12 {fill:#9C9795}
    .fil30 {fill:#4D2E25}
    .fil34 {fill:#979695}
    .fil29 {fill:#4F292D}
    .fil25 {fill:#8F969A}
    .fil15 {fill:#8C8787}
    .fil20 {fill:#8A8281}
    .fil35 {fill:#3C2A26}
    .fil5 {fill:#829474}
    .fil10 {fill:#7C7A78}
    .fil21 {fill:#706C64}
    .fil24 {fill:#7D88A0}
    .fil9 {fill:#737171}
    .fil2 {fill:#302826}
    .fil22 {fill:#524E47}
    .fil16 {fill:#3F3C3A}
    .fil27 {fill:#4C504F}
    .fil32 {fill:#2A2627}
    .fil19 {fill:#303230}
    .fil31 {fill:#2A2931}
    .fil33 {fill:#312D52}
    .fil42 {fill:#806350}
    .fil50 {fill:#ABC9BF}
    .fil46 {fill:#B3B3B3}
    .fil44 {fill:#BDD6D1}
    .fil45 {fill:#C4C7C7}
    .fil49 {fill:#C9E6E8}
    .fil47 {fill:#D9D9D9}
    .fil38 {fill:#FFF7B3}
    .fil37 {fill:#FFFADB}
    .fil43 {fill:#4D897C;fill-rule:nonzero}
    .fil48 {fill:#034540;fill-rule:nonzero}
    .fil53 {fill:#2E99A3;fill-rule:nonzero}
    .fil51 {fill:#5C5C5C;fill-rule:nonzero}
    .fil40 {fill:#806350;fill-rule:nonzero}
    .fil41 {fill:#A37D66;fill-rule:nonzero}
    .fil52 {fill:#BDD6D1;fill-rule:nonzero}
    .fil0 {fill:url(#id0)}
   ]]>
  </style>
  <radialGradient id="id0" gradientUnits="userSpaceOnUse" gradientTransform="matrix(1.41421 -0 -0 1.41421 -4137 -4145)" cx="9987.82" cy="10006.4" r="10000" fx="9987.82" fy="10006.4">
   <stop offset="0" style="stop-opacity:1; stop-color:#FEFEFE"/>
   <stop offset="0.439216" style="stop-opacity:1; stop-color:#FEFEFE"/>
   <stop offset="1" style="stop-opacity:1; stop-color:#D1E2F2"/>
  </radialGradient>
 </defs>
 <g id="Layer_x0020_1">
  <metadata id="CorelCorpID_0Corel-Layer"/>
  <path class="fil0" d="M-12 6l20000 0 0 20000 -20000 0 0 -20000z"/>
  <path class="fil1" d="M10807 1265l-41 17 0 -34 41 17z"/>
  <path class="fil2" d="M15687 11394c-15,-12 -28,-25 -43,-37 11,14 24,28 41,43 0,-2 1,-4 2,-6z"/>
  <path class="fil3" d="M15687 11394c-1,2 -2,4 -2,6 14,14 32,28 55,43 -18,-16 -35,-32 -53,-49z"/>
  <path class="fil1" d="M9116 8689l-1317 762 -13 -8 1317 -760 13 6z"/>
  <path class="fil4" d="M10983 15649l6508 -3757 0 486 -6508 3758 -7 -4 0 -486 7 3z"/>
  <path class="fil5" d="M10976 15646l0 486 -187 -108 11 -17 -20 -475 196 114z"/>
  <path class="fil4" d="M10780 15532l20 475 -11 17 -439 -253 0 -12 408 -239 22 12z"/>
  <path class="fil1" d="M10350 15771l-1257 -726 423 -242 1242 717 -408 239 0 12z"/>
  <path class="fil5" d="M10350 15771l-3 329 -1 1 -1285 -736 0 -301 32 -19 1257 726z"/>
  <path class="fil1" d="M10093 16261l-1272 -717 240 -134 0 -45 1285 736 -251 144 -2 16z"/>
  <path class="fil5" d="M10093 16261l-40 325 -26 18c-259,-149 -775,-443 -1263,-720l0 -307 57 -33 1272 717z"/>
  <path class="fil4" d="M9755 16790c1,0 1,0 1,0l271 -186 26 -18 40 -325 2 -16 251 -144 1 -1 3 -329 439 253 -953 1486 -358 -206 277 -175 0 -339z"/>
  <path class="fil1" d="M9755 17129l-277 175 -1317 -761 305 -158c633,366 1289,744 1289,744z"/>
  <path class="fil5" d="M9516 14803l-423 242 -5083 -2935 0 -486 5506 3179z"/>
  <path class="fil1" d="M8764 15884c488,277 1004,571 1263,720l-271 186c0,0 0,0 -1,0 -272,-157 -773,-445 -1251,-720l260 -150 0 -36z"/>
  <path class="fil5" d="M8504 16070c478,275 979,563 1251,720l0 339c0,0 -656,-378 -1289,-744l0 -1c0,-96 0,-292 0,-292l38 -22z"/>
  <path class="fil1 str0" d="M7787 9449l1318 -761 -13 -7 1414 -816 6973 4026 -6508 3757 -6 -4 -197 -113 -1 -24 -20 12 -1242 -718 -5507 -3179 3421 -1975 356 -205 12 7z"/>
  <path class="fil1" d="M17403 11344l0 12 -11 -6 11 -6z"/>
  <path class="fil1" d="M10661 4496l-9 6 0 -11 9 5z"/>
  <path class="fil6" d="M15755 11765c21,23 -4,60 -4,60 0,0 -8,5 -22,13 8,-23 17,-47 26,-73z"/>
  <path class="fil6" d="M15248 12053c-14,38 -24,66 -29,79 0,0 -1,0 -1,1 -16,9 -26,15 -26,15l-47 -27 -307 -171 -78 -43 -39 -22c0,0 -27,-39 4,-64l470 262c0,0 20,-11 53,-30z"/>
  <path class="fil6" d="M15354 11992c96,-56 215,-124 298,-172l-29 79c-7,4 -13,7 -20,11 -86,50 -194,112 -278,161 9,-24 19,-50 29,-79z"/>
  <path class="fil7" d="M15218 12134c0,28 0,74 0,129 -6,14 -19,19 -34,19 -22,0 -39,-11 -39,-42 0,0 0,-49 0,-119l47 27c0,0 10,-6 26,-15 0,0 0,1 0,1z"/>
  <path class="fil8" d="M14838 11950c0,169 0,515 0,515 0,31 -17,43 -39,43 -21,0 -39,-12 -39,-43 0,0 0,-416 0,-558l78 43z"/>
  <path class="fil8" d="M15811 11389l95 -258c0,0 29,-62 71,-55 39,7 7,64 7,64 0,0 -28,76 -66,182 -48,129 -112,304 -163,443 -9,26 -18,50 -26,73 -22,58 -39,105 -48,131 0,168 0,517 0,517 0,31 -18,42 -39,42 -22,0 -39,-11 -39,-42 0,0 0,-374 0,-534l20 -53 29 -79 35 -97 124 -334z"/>
  <path class="fil8" d="M15505 11580c-4,10 -8,21 -11,31 -46,125 -99,269 -140,381 -10,29 -20,55 -29,79 -13,35 -23,64 -30,83l1 1c0,143 0,556 0,556 0,31 -18,43 -39,43 -21,0 -39,-12 -39,-43 0,0 0,-269 0,-448 0,-55 0,-101 0,-129 0,0 1,-1 1,-2 5,-13 15,-41 29,-79 36,-97 95,-259 150,-406 64,-174 120,-328 120,-328 0,0 15,-31 39,-46 10,-6 21,-10 33,-8 39,6 7,63 7,63 0,0 -40,111 -92,252z"/>
  <path class="fil9" d="M15687 11723l-35 97c-83,48 -202,116 -298,172 41,-112 94,-256 140,-381 69,40 142,83 193,112z"/>
  <path class="fil9" d="M15398 11647c-55,147 -114,309 -150,406 -33,19 -53,30 -53,30l-470 -262c2,-1 4,-3 7,-4l570 -317c0,0 1,1 4,3l-62 148c0,0 52,47 61,54 0,0 36,-23 93,-58z"/>
  <path class="fil6" d="M14909 12276c21,23 -5,60 -5,60 0,0 -8,5 -22,13 9,-23 18,-47 27,-73z"/>
  <path class="fil6" d="M14402 12564c-14,38 -25,66 -29,79 -1,0 -1,0 -1,1 -17,9 -26,15 -26,15l-47 -27 -307 -171 -78 -43 -39 -22c0,0 -28,-39 3,-64l471 263c0,0 20,-12 53,-31z"/>
  <path class="fil6" d="M14508 12503c96,-56 214,-124 297,-172l-29 79c-6,4 -13,7 -19,11 -86,50 -195,112 -278,161 9,-24 18,-50 29,-79z"/>
  <path class="fil7" d="M14372 12645c0,28 0,74 0,129 -7,14 -19,19 -34,19 -22,0 -39,-11 -39,-42 0,0 0,-49 0,-119l47 27c0,0 9,-6 26,-15 0,0 0,1 0,1z"/>
  <path class="fil8" d="M13992 12461c0,169 0,515 0,515 0,31 -18,43 -39,43 -22,0 -39,-12 -39,-43 0,0 0,-416 0,-558l78 43z"/>
  <path class="fil8" d="M14964 11900l95 -258c0,0 30,-62 72,-55 39,7 7,64 7,64 0,0 -28,75 -67,182 -47,129 -111,304 -162,443 -9,26 -18,50 -27,73 -21,58 -38,105 -48,131 0,168 0,517 0,517 0,31 -17,42 -39,42 -21,0 -38,-11 -38,-42 0,0 0,-374 0,-534l19 -53 29 -79 36 -97 123 -334z"/>
  <path class="fil8" d="M14659 12091c-4,10 -8,21 -12,31 -45,125 -98,269 -139,381 -11,29 -20,55 -29,79 -13,35 -23,64 -31,83l2 1c0,143 0,556 0,556 0,31 -18,43 -39,43 -22,0 -39,-12 -39,-43 0,0 0,-269 0,-448 0,-55 0,-101 0,-129 0,-1 0,-1 1,-2 4,-13 15,-41 29,-79 36,-97 95,-259 149,-406 64,-174 121,-328 121,-328 0,0 15,-31 39,-46 9,-7 20,-10 32,-8 39,6 8,63 8,63 0,0 -41,111 -92,252z"/>
  <path class="fil8" d="M15246 11445l-545 323 -98 59 -53 -30 1 -2 644 -383 51 33z"/>
  <path class="fil6" d="M14460 12014l90 -217 53 30 -1 0 -143 389c-10,-7 -61,-54 -61,-54l62 -148z"/>
  <path class="fil9" d="M14841 12234l-36 97c-83,48 -201,116 -297,172 41,-112 94,-256 139,-381 69,40 143,83 194,112z"/>
  <path class="fil9" d="M14551 12158c-54,147 -113,309 -149,406 -33,19 -53,31 -53,31l-471 -263c3,-1 5,-3 7,-4l570 -317c0,0 2,1 5,3l-62 148c0,0 51,47 61,54 0,0 36,-23 92,-58z"/>
  <path class="fil10" d="M14672 11830c0,0 -57,154 -121,328 -56,35 -92,58 -92,58l143 -389 1 0 98 -59 10 16c-24,15 -39,46 -39,46z"/>
  <path class="fil10" d="M14743 11776c-12,-2 -23,1 -32,8l-10 -16 545 -323 -115 350c0,0 -23,15 -60,38 39,-107 67,-182 67,-182 0,0 31,-57 -7,-64 -42,-7 -72,55 -72,55l-95 258c-92,58 -208,130 -305,191 51,-141 92,-252 92,-252 0,0 31,-57 -8,-63z"/>
  <path class="fil6" d="M14065 12700c21,24 -4,61 -4,61 0,0 -8,4 -22,13 8,-23 17,-48 26,-74z"/>
  <path class="fil6" d="M13558 12989c-14,38 -24,66 -29,79 0,0 -1,0 -1,0 -16,10 -26,15 -26,15l-47 -26 -307 -171 -78 -43 -39 -22c0,0 -27,-40 4,-64l470 262c0,0 20,-11 53,-30z"/>
  <path class="fil6" d="M13664 12927c96,-55 214,-124 298,-171l-29 79c-7,3 -13,7 -20,11 -86,50 -194,112 -278,161 9,-24 19,-51 29,-80z"/>
  <path class="fil7" d="M13528 13070c0,28 0,74 0,128 -6,14 -19,20 -34,20 -22,0 -39,-12 -39,-43 0,0 0,-48 0,-118l47 26c0,0 10,-5 26,-15 0,1 0,1 0,2z"/>
  <path class="fil8" d="M13148 12886c0,169 0,515 0,515 0,31 -17,42 -39,42 -21,0 -39,-11 -39,-42 0,0 0,-416 0,-558l78 43z"/>
  <path class="fil8" d="M14120 12325l95 -259c0,0 30,-61 72,-54 39,7 7,63 7,63 0,0 -28,76 -67,183 -47,129 -111,304 -162,442 -9,26 -18,51 -26,74 -22,58 -39,105 -48,131 0,168 0,516 0,516 0,31 -18,43 -39,43 -22,0 -39,-12 -39,-43 0,0 0,-373 0,-533l20 -53 29 -79 35 -97 123 -334z"/>
  <path class="fil8" d="M13815 12516c-4,10 -8,20 -11,31 -46,125 -99,269 -140,380 -10,29 -20,56 -29,80 -13,35 -23,63 -30,83l1 0c0,144 0,557 0,557 0,31 -18,42 -39,42 -21,0 -39,-11 -39,-42 0,0 0,-269 0,-449 0,-54 0,-100 0,-128 0,-1 1,-1 1,-2 5,-13 15,-41 29,-79 36,-97 95,-259 149,-406 65,-174 121,-328 121,-328 0,0 15,-31 39,-46 9,-7 21,-10 33,-8 38,6 7,63 7,63 0,0 -40,110 -92,252z"/>
  <path class="fil8" d="M14402 11869l-545 324 -98 58 -53 -29 1 -2 644 -383 51 32z"/>
  <path class="fil6" d="M13616 12439l90 -217 53 29 -1 1 -143 389c-9,-7 -61,-55 -61,-55l62 -147z"/>
  <path class="fil9" d="M13997 12659l-35 97c-84,47 -202,116 -298,171 41,-111 94,-255 140,-380 69,40 142,82 193,112z"/>
  <path class="fil9" d="M13707 12583c-54,147 -113,309 -149,406 -33,19 -53,30 -53,30l-470 -262c2,-2 4,-3 7,-5l570 -316c0,0 1,1 4,3l-62 147c0,0 52,48 61,55 0,0 36,-23 92,-58z"/>
  <path class="fil10" d="M13828 12255c0,0 -56,154 -121,328 -56,35 -92,58 -92,58l143 -389 1 -1 98 -58 10 16c-24,15 -39,46 -39,46z"/>
  <path class="fil10" d="M13900 12201c-12,-2 -24,1 -33,8l-10 -16 545 -324 -114 351c0,0 -23,14 -61,38 39,-107 67,-183 67,-183 0,0 32,-56 -7,-63 -42,-7 -72,54 -72,54l-95 259c-92,57 -208,130 -305,191 52,-142 92,-252 92,-252 0,0 31,-57 -7,-63z"/>
  <path class="fil6" d="M13219 13211c21,24 -5,61 -5,61 0,0 -8,4 -22,13 9,-23 18,-48 27,-74z"/>
  <path class="fil6" d="M12712 13500c-14,38 -25,66 -30,79 0,0 0,0 0,0 -17,10 -26,15 -26,15l-47 -26 -307 -171 -78 -43 -39 -22c0,0 -28,-40 3,-64l471 262c0,0 20,-12 53,-30z"/>
  <path class="fil6" d="M12818 13438c95,-55 214,-124 297,-171l-29 79c-6,3 -13,7 -19,11 -87,50 -195,112 -278,160 9,-23 18,-50 29,-79z"/>
  <path class="fil7" d="M12682 13581c0,28 0,74 0,128 -7,14 -20,20 -34,20 -22,0 -39,-12 -39,-43 0,0 0,-48 0,-118l47 26c0,0 9,-5 26,-15 0,1 0,1 0,2z"/>
  <path class="fil8" d="M12302 13397c0,168 0,515 0,515 0,31 -18,42 -39,42 -22,0 -39,-11 -39,-42 0,0 0,-416 0,-558l78 43z"/>
  <path class="fil8" d="M13274 12836l95 -259c0,0 30,-61 72,-54 38,7 7,63 7,63 0,0 -28,76 -67,183 -47,129 -111,304 -162,442 -9,26 -18,51 -27,74 -21,58 -38,104 -48,131 0,168 0,516 0,516 0,31 -17,43 -39,43 -21,0 -38,-12 -38,-43 0,0 0,-373 0,-533l19 -53 29 -79 36 -97 123 -334z"/>
  <path class="fil8" d="M12968 13027c-3,10 -7,20 -11,31 -46,125 -98,268 -139,380 -11,29 -20,56 -29,79 -13,36 -23,64 -31,84l1 0c0,144 0,557 0,557 0,31 -17,42 -38,42 -22,0 -39,-11 -39,-42 0,0 0,-269 0,-449 0,-54 0,-100 0,-128 0,-1 0,-1 0,-2 5,-13 16,-41 30,-79 35,-97 95,-259 149,-406 64,-174 121,-328 121,-328 0,0 15,-31 38,-47 10,-6 21,-9 33,-7 39,6 8,63 8,63 0,0 -41,110 -93,252z"/>
  <path class="fil8" d="M13556 12380l-545 324 -99 58 -52 -29 1 -3 644 -382 51 32z"/>
  <path class="fil6" d="M12769 12949l91 -216 52 29 0 1 -143 389c-10,-7 -61,-55 -61,-55l61 -148z"/>
  <path class="fil9" d="M13151 13170l-36 97c-83,47 -202,116 -297,171 41,-112 93,-255 139,-380 69,40 143,82 194,112z"/>
  <path class="fil9" d="M12861 13094c-54,147 -114,309 -149,406 -33,18 -53,30 -53,30l-471 -262c2,-2 5,-3 7,-5l570 -316c0,0 2,1 4,2l-61 148c0,0 51,48 61,55 0,0 36,-23 92,-58z"/>
  <path class="fil10" d="M12982 12766c0,0 -57,154 -121,328 -56,35 -92,58 -92,58l143 -389 0 -1 99 -58 10 15c-24,16 -39,47 -39,47z"/>
  <path class="fil10" d="M13053 12712c-12,-2 -23,1 -33,7l-9 -15 545 -324 -115 351c0,0 -23,14 -60,38 39,-107 67,-183 67,-183 0,0 31,-56 -7,-63 -42,-7 -72,54 -72,54l-95 259c-92,57 -208,130 -306,191 52,-142 93,-252 93,-252 0,0 31,-57 -8,-63z"/>
  <path class="fil11" d="M5343 10599l-5 3 5 1 0 -4z"/>
  <path class="fil12" d="M5286 10587l10 2 -2 -7 -8 5z"/>
  <path class="fil13" d="M5802 11245c0,136 0,339 0,339 0,29 21,52 47,52 26,0 47,-23 47,-52 0,0 0,-265 0,-393 -22,13 -55,32 -94,54z"/>
  <path class="fil13" d="M5316 11397l0 460c0,29 21,52 47,52 26,0 47,-23 47,-52 0,0 0,-302 0,-417l-93 -56c-1,4 -1,8 -1,13z"/>
  <path class="fil13" d="M4914 11156l0 461c0,28 21,52 47,52 25,0 47,-24 47,-52 0,0 0,-305 0,-419l-93 -56 0 -1c-1,8 -1,14 -1,15z"/>
  <path class="fil8" d="M4753 10344l75 44 464 -271 -69 -39 -470 266z"/>
  <path class="fil8" d="M5928 11100c-7,0 -485,273 -485,273l-1 -1 -3 84c17,-10 224,-131 363,-211 39,-22 72,-41 94,-54 19,-11 31,-17 32,-17 2,0 0,-74 0,-74z"/>
  <path class="fil14" d="M4974 11101l-66 -313 -83 -398 3 -2 -75 -44 162 797 0 1 93 56 309 186 93 56 28 17c0,0 1,0 1,-1l3 -84 -468 -271z"/>
  <path class="fil12" d="M5025 11071l333 -189 41 -22 55 -32c73,41 480,272 474,272 -7,0 -485,273 -485,273l-1 -1 -468 -271 51 -30zm420 -181l-362 212 349 209 382 -214 -369 -207z"/>
  <path class="fil15" d="M5313 10672l45 210 41 -22 -45 -210 -41 22z"/>
  <path class="fil12" d="M5296 10589l6 32 36 -19 -42 -13z"/>
  <path class="fil15" d="M5294 10582l2 7 42 13 5 -3 -44 -202 -40 22 35 163z"/>
  <path class="fil12" d="M4963 10761l7 38 332 -178 -6 -32 -10 -2 -323 174z"/>
  <path class="fil13" d="M5083 11102l349 209 382 -214 -369 -207 -362 212z"/>
  <path class="fil8" d="M4889 10397l38 158 320 -183 32 -18 -33 -161 -357 204z"/>
  <path class="fil13" d="M5292 10117l-464 271 27 15 34 -6 357 -204 33 161 -32 18 3 5 9 42 40 -22 44 202 0 4 11 47 45 210 55 -32 -162 -711z"/>
  <path class="fil13" d="M5302 10621l11 51 41 -22 -11 -47 -5 -1 -36 19z"/>
  <path class="fil13" d="M4970 10799l11 52 332 -179 -11 -51 -332 178z"/>
  <path class="fil13" d="M4908 10788l66 313 51 -30 -44 -220 -11 -52 -7 -38 -49 26 -6 1z"/>
  <path class="fil13" d="M4931 10604l328 -185 -9 -42 -3 -5 -320 183 -38 -158 -34 6 -27 -15 -3 2 83 398 6 -1 49 -26 -32 -157z"/>
  <path class="fil11" d="M6184 10117l-5 2 6 1 -1 -3z"/>
  <path class="fil12" d="M6127 10104l10 3 -2 -7 -8 4z"/>
  <path class="fil13" d="M6643 10762c0,137 0,339 0,339 0,29 21,52 47,52 27,0 48,-23 48,-52 0,0 0,-265 0,-393 -23,13 -56,32 -95,54z"/>
  <path class="fil13" d="M6157 10914l0 461c0,28 21,52 47,52 26,0 47,-24 47,-52 0,0 0,-302 0,-417l-93 -56c-1,4 -1,8 -1,12z"/>
  <path class="fil13" d="M5755 10674l0 460c0,29 21,52 47,52 26,0 47,-23 47,-52 0,0 0,-305 0,-418l-93 -56 0 -2c-1,8 -1,14 -1,16z"/>
  <path class="fil8" d="M5594 9861l75 44 464 -270 -69 -40 -470 266z"/>
  <path class="fil8" d="M6769 10618c-6,0 -485,272 -485,272l-1 0 -3 84c17,-10 224,-131 363,-212 39,-22 72,-41 95,-54 18,-10 30,-17 31,-17 2,0 0,-73 0,-73z"/>
  <path class="fil14" d="M5815 10618l-65 -313 -84 -398 3 -2 -75 -44 162 797 0 2 93 56 309 186 93 56 28 17c0,0 1,-1 1,-1l3 -84 -468 -272z"/>
  <path class="fil12" d="M5866 10589l333 -189 41 -23 55 -31c73,41 480,272 474,272 -6,0 -485,272 -485,272l-1 0 -468 -272 51 -29zm420 -181l-361 211 348 210 382 -214 -369 -207z"/>
  <path class="fil15" d="M6154 10189l45 211 41 -23 -45 -209 -41 21z"/>
  <path class="fil12" d="M6137 10107l7 31 35 -19 -42 -12z"/>
  <path class="fil15" d="M6135 10100l2 7 42 12 5 -2 -44 -203 -40 22 35 164z"/>
  <path class="fil12" d="M5804 10278l7 39 333 -179 -7 -31 -10 -3 -323 174z"/>
  <path class="fil13" d="M5925 10619l348 210 382 -214 -369 -207 -361 211z"/>
  <path class="fil8" d="M5730 9914l38 159 321 -183 31 -18 -33 -161 -357 203z"/>
  <path class="fil13" d="M6133 9635l-464 270 28 16 33 -7 357 -203 33 161 -31 18 2 5 9 41 40 -22 44 203 1 3 10 48 45 209 55 -31 -162 -711z"/>
  <path class="fil13" d="M6144 10138l10 51 41 -21 -10 -48 -6 -1 -35 19z"/>
  <path class="fil13" d="M5811 10317l11 51 332 -179 -10 -51 -333 179z"/>
  <path class="fil13" d="M5750 10305l65 313 51 -29 -44 -221 -11 -51 -7 -39 -49 26 -5 1z"/>
  <path class="fil13" d="M5772 10121l328 -185 -9 -41 -2 -5 -321 183 -38 -159 -33 7 -28 -16 -3 2 84 398 5 -1 49 -26 -32 -157z"/>
  <path class="fil11" d="M7043 9652l-4 3 5 1 -1 -4z"/>
  <path class="fil12" d="M6987 9640l9 3 -1 -7 -8 4z"/>
  <path class="fil13" d="M7503 10298c0,137 0,339 0,339 0,29 21,52 46,52 27,0 48,-23 48,-52 0,0 0,-265 0,-393 -23,13 -56,32 -94,54z"/>
  <path class="fil13" d="M7016 10450l0 461c0,28 21,51 47,51 26,0 47,-23 47,-51 0,0 0,-303 0,-417l-92 -56c-1,4 -2,8 -2,12z"/>
  <path class="fil13" d="M6614 10210l0 460c0,29 21,52 47,52 26,0 47,-23 47,-52 0,0 0,-305 0,-419l-93 -55 0 -2c-1,8 -1,14 -1,16z"/>
  <path class="fil8" d="M6453 9397l76 44 463 -270 -69 -40 -470 266z"/>
  <path class="fil8" d="M7628 10154c-6,0 -485,272 -485,272l-1 0 -2 84c17,-10 223,-131 363,-212 38,-22 71,-41 94,-54 19,-10 30,-17 31,-17 2,0 0,-73 0,-73z"/>
  <path class="fil14" d="M6674 10154l-65 -313 -83 -398 3 -2 -76 -44 162 797 0 2 93 55 310 187 92 56 28 16c0,0 1,0 2,0l2 -84 -468 -272z"/>
  <path class="fil12" d="M6725 10125l334 -189 40 -23 55 -31c73,41 480,272 474,272 -6,0 -485,272 -485,272l-1 0 -468 -272 51 -29zm420 -181l-361 211 348 209 382 -213 -369 -207z"/>
  <path class="fil15" d="M7013 9725l46 211 40 -23 -45 -209 -41 21z"/>
  <path class="fil12" d="M6996 9643l7 31 36 -19 -43 -12z"/>
  <path class="fil15" d="M6995 9636l1 7 43 12 4 -3 -44 -202 -39 22 35 164z"/>
  <path class="fil12" d="M6663 9814l8 38 332 -178 -7 -31 -9 -3 -324 174z"/>
  <path class="fil13" d="M6784 10155l348 209 382 -213 -369 -207 -361 211z"/>
  <path class="fil8" d="M6589 9450l38 159 321 -183 31 -18 -32 -161 -358 203z"/>
  <path class="fil13" d="M6992 9171l-463 270 27 16 33 -7 358 -203 32 161 -31 18 3 4 9 42 39 -22 44 202 1 4 10 48 45 209 55 -31 -162 -711z"/>
  <path class="fil13" d="M7003 9674l10 51 41 -21 -10 -48 -5 -1 -36 19z"/>
  <path class="fil13" d="M6671 9852l10 52 332 -179 -10 -51 -332 178z"/>
  <path class="fil13" d="M6609 9841l65 313 51 -29 -44 -221 -10 -52 -8 -38 -49 26 -5 1z"/>
  <path class="fil13" d="M6631 9657l329 -185 -9 -42 -3 -4 -321 183 -38 -159 -33 7 -27 -16 -3 2 83 398 5 -1 49 -26 -32 -157z"/>
  <path class="fil16" d="M6370 12332c0,35 -27,63 -59,63l0 0c-33,0 -59,-28 -59,-63l0 -554c0,-35 26,-64 59,-64l0 0c32,0 59,29 59,64l0 554z"/>
  <path class="fil16" d="M7980 11390c0,35 -26,64 -59,64l0 0c-32,0 -59,-29 -59,-64l0 -554c0,-35 27,-63 59,-63l0 0c33,0 59,28 59,63l0 554z"/>
  <path class="fil16" d="M5653 11900c0,35 -27,64 -59,64l0 0c-33,0 -59,-29 -59,-64l0 -554c0,-35 26,-63 59,-63l0 0c32,0 59,28 59,63l0 554z"/>
  <path class="fil10" d="M6931 11401l0 0c497,-288 1043,-603 1043,-603 0,0 152,-99 154,-240 44,199 -154,338 -154,338 0,0 -546,315 -1043,603l0 0c-225,130 -384,222 -384,222 0,0 -124,74 -307,114 -26,6 -53,11 -81,15 -51,7 -106,11 -163,9 -130,-3 -273,-34 -414,-115 -185,-107 -208,-212 -200,-346l0 0c2,78 53,164 200,248 473,273 965,-23 965,-23 0,0 159,-92 384,-222z"/>
  <path class="fil17" d="M6931 11401l0 0c-225,130 -384,222 -384,222 0,0 -492,296 -965,23 -147,-84 -198,-170 -200,-248 -3,-173 242,-308 242,-308 0,0 272,-156 606,-349l0 -1c425,-244 820,-472 820,-472 0,0 429,-234 840,-2 183,104 239,205 238,292 -2,141 -154,240 -154,240 0,0 -546,315 -1043,603z"/>
  <path class="fil18" d="M6037 11397c-2,8 -5,13 -7,18l170 109c4,-10 8,-24 9,-38 2,-18 0,-34 -3,-45l0 -1 -172 -106c3,11 6,20 6,31 0,15 -1,25 -3,32z"/>
  <path class="fil18" d="M5892 11305c-2,7 -5,12 -7,17l171 109c3,-10 7,-23 9,-38 2,-18 -1,-34 -4,-45l0 -1 -171 -106c2,11 5,20 5,31 0,15 -1,25 -3,33z"/>
  <path class="fil19" d="M17227 11887c0,-1 0,-2 0,-2 -1,0 -2,0 -2,0 1,0 2,1 2,2z"/>
  <path class="fil20" d="M16377 11899l1 -1 0 0 -1 1z"/>
  <path class="fil20" d="M16377 11899l0 0 0 0 0 0z"/>
  <path class="fil20" d="M16291 12098c0,0 0,-1 0,-1 -1,0 -3,-1 -5,-1 2,1 3,1 5,2z"/>
  <path class="fil20" d="M16157 12199l28 -17 -26 15c-1,1 -1,1 -2,2z"/>
  <path class="fil19" d="M15926 11916c0,-1 -1,-2 -1,-3 0,0 -1,1 -2,1 1,0 2,1 3,2z"/>
  <path class="fil20" d="M16719 11327l1 0 -1 0 0 0z"/>
  <path class="fil20" d="M16719 11328l0 -1 0 1 0 0z"/>
  <path class="fil20" d="M16642 11506c0,0 0,-1 0,-1 -1,0 -3,-1 -4,-1 1,1 2,1 4,2z"/>
  <path class="fil20" d="M16522 11596l25 -15 -23 14c-1,0 -1,1 -2,1z"/>
  <path class="fil19" d="M10684 8547c0,-1 0,-2 0,-3 -1,1 -1,1 -2,1 1,0 2,1 2,2z"/>
  <path class="fil20" d="M10696 7703l1 -1 -1 0 0 1z"/>
  <path class="fil20" d="M10696 7703l0 0 -1 0 1 0z"/>
  <path class="fil20" d="M10618 7881c1,0 1,0 1,-1 -2,0 -3,0 -5,-1 2,1 3,2 4,2z"/>
  <path class="fil20" d="M10499 7972l25 -16 -24 14c0,1 -1,1 -1,2z"/>
  <path class="fil2" d="M12712 7847c-3,-3 -6,-7 -10,-11 3,4 6,9 10,13 0,0 0,-1 0,-2z"/>
  <path class="fil3" d="M12712 7847c0,1 0,2 0,2 3,4 7,9 12,13 -4,-5 -8,-10 -12,-15z"/>
  <path class="fil21" d="M11468 13170c1,-4 5,-34 9,-58 0,74 157,161 220,201 65,43 251,145 312,123 68,-25 295,-143 306,-197 1,-8 0,-17 -3,-25 20,21 7,95 3,115 -11,54 -238,172 -306,196 -61,23 -247,-79 -312,-122 -71,-46 -248,-132 -229,-233z"/>
  <path class="fil22" d="M11688 13123l280 173 137 -73c0,-31 0,-90 0,-159 58,27 184,90 207,149l0 1c3,8 4,17 3,25 -11,54 -238,172 -306,197 -61,22 -247,-80 -312,-123 -63,-40 -220,-127 -220,-201 1,-9 3,-18 5,-23 0,0 0,0 0,0 1,-1 1,-2 2,-3 27,-48 148,-96 202,-112l2 0c0,72 0,135 0,149z"/>
  <path class="fil16" d="M12105 13064c0,69 0,128 0,159l-137 73c0,-38 -1,-245 -2,-414 48,-7 95,-15 139,-25 0,69 0,142 0,207z"/>
  <path class="fil21" d="M11968 13296l-280 -173c0,-14 0,-77 0,-149 0,-25 0,-51 0,-76 97,3 191,-4 278,-16 1,169 2,376 2,414z"/>
  <path class="fil10" d="M13287 12115l0 -1c851,-491 1784,-1030 1784,-1030 0,0 260,-171 263,-412 75,341 -263,579 -263,579 0,0 -933,539 -1784,1030l0 1c-384,222 -656,379 -656,379 0,0 -213,128 -526,196 -44,10 -91,18 -139,25 -87,12 -181,19 -278,16 -224,-5 -467,-58 -709,-197 -316,-183 -355,-363 -341,-592l0 0c2,133 90,280 341,425 810,467 1652,-40 1652,-40 0,0 272,-157 656,-379z"/>
  <path class="fil17" d="M13270 12132l0 1c-384,222 -656,379 -656,379 0,0 -842,507 -1651,40 -251,-145 -340,-292 -342,-425 -5,-296 414,-526 414,-526 0,0 464,-268 1037,-598l-1 0c726,-419 1402,-809 1402,-809 0,0 734,-400 1437,-2 313,177 408,350 407,498 -3,241 -263,412 -263,412 0,0 -933,539 -1784,1030z"/>
  <path class="fil23" d="M14006 10959l397 -240 529 289 -430 232 -496 -281z"/>
  <path class="fil23" d="M13360 11342l397 -240 529 289 -429 231 -497 -280z"/>
  <path class="fil23" d="M12049 12148l355 -214 474 258 -385 207 -444 -251z"/>
  <path class="fil24" d="M13774 10773c1,0 0,0 1,1l-1 0c0,-1 0,-1 0,-1z"/>
  <path class="fil25" d="M13663 11342c-1,0 -3,0 -4,0 1,0 3,0 4,0z"/>
  <path class="fil3" d="M13659 11342c-1,0 -2,0 -3,1 1,-1 2,-1 3,-1z"/>
  <path class="fil3" d="M13656 11343c-3,0 -7,1 -10,1 3,-1 7,-1 10,-1z"/>
  <path class="fil3" d="M13636 11347c3,-1 6,-2 10,-3 -4,1 -7,2 -10,3z"/>
  <path class="fil25" d="M13386 11472c0,0 0,0 0,0 0,0 0,0 0,0 0,0 0,0 0,0z"/>
  <path class="fil26" d="M13343 10451c2,2 3,3 4,5 -2,-1 -4,-3 -4,-5z"/>
  <path class="fil3" d="M11416 11251l0 2c-2,2 -4,3 -6,5 2,-2 4,-4 6,-7 0,0 0,0 0,0z"/>
  <path class="fil27" d="M11331 11509c0,1 0,2 0,3 0,-1 -1,-2 -1,-3 0,0 1,0 1,0z"/>
  <path class="fil28" d="M11156 10725c-1,2 -2,5 -3,8 0,0 -1,0 -1,0 2,-3 3,-5 4,-8z"/>
  <path class="fil28" d="M11152 10734c0,0 0,0 0,1 -4,8 -9,15 -17,19 7,-6 13,-13 17,-20z"/>
  <path class="fil29" d="M10060 9583c0,0 0,0 0,1 0,-1 0,-1 0,-1z"/>
  <path class="fil29" d="M10054 9566c4,-2 8,-5 11,-7 -3,3 -7,5 -11,7z"/>
  <path class="fil29" d="M10071 9555c0,0 0,0 0,1 -1,1 -3,2 -5,3 2,-1 4,-3 5,-4z"/>
  <path class="fil24" d="M12760 10447c0,0 0,1 0,1l0 0c0,0 0,-1 0,-1z"/>
  <path class="fil25" d="M12515 10910c0,1 0,2 0,2 0,0 -1,-1 -2,-1 1,0 1,0 2,-1z"/>
  <path class="fil19" d="M14280 12483c0,-1 0,-2 0,-3 -1,1 -1,1 -2,1 1,0 2,1 2,2z"/>
  <path class="fil30" d="M15155 11687c0,1 0,1 1,1 0,0 0,-1 -1,-1 0,0 0,0 0,0z"/>
  <path class="fil31" d="M14715 11900l1 1c0,-3 -1,-5 -2,-7 0,2 1,4 1,6z"/>
  <path class="fil19" d="M10595 14224c1,-1 2,-2 3,-2 -1,0 -2,0 -2,-1 0,1 -1,2 -1,3z"/>
  <path class="fil32" d="M11485 12909c0,0 0,0 1,0 -1,0 -1,0 -1,0 0,0 0,0 0,0z"/>
  <path class="fil33" d="M11256 13053c0,0 -1,1 -1,1 0,1 0,3 0,4 1,-2 1,-3 1,-5z"/>
  <path class="fil26" d="M11091 12239l0 0c0,0 0,0 0,0 0,0 0,0 0,0z"/>
  <path class="fil34" d="M10982 12191c-6,-3 -12,-6 -18,-10 6,4 13,7 19,11 0,-1 0,-1 -1,-1z"/>
  <path class="fil34" d="M8132 11870c-4,5 -8,10 -9,15 1,-2 3,-4 4,-7 1,-2 3,-5 5,-8z"/>
  <path class="fil34" d="M14674 12718c-2,-6 -6,-12 -10,-17 2,3 4,6 5,9 2,3 3,5 5,8z"/>
  <path class="fil19" d="M13078 12130c0,-1 0,-2 -1,-3 0,1 -1,1 -1,1 0,0 1,1 2,2z"/>
  <path class="fil19" d="M11942 12776c0,-1 0,-1 0,-2 -1,0 -1,0 -2,0 1,1 2,1 2,2z"/>
  <path class="fil30" d="M12727 12069l0 0 0 0c0,0 0,0 0,0z"/>
  <path class="fil35" d="M12723 12007c1,2 2,3 3,5 0,-1 1,-2 1,-3 -1,0 -3,-1 -4,-2z"/>
  <path class="fil30" d="M12727 12068c0,0 -1,0 -1,1 0,0 0,0 0,0 0,0 0,0 0,0 1,0 1,0 1,0l0 0 0 0c0,0 0,-1 0,-1z"/>
  <path class="fil23" d="M12734 11719l355 -215 474 259 -385 207 -444 -251z"/>
  <path class="fil36 str1" d="M18467 1318l0 8165c-2039,0 -3405,0 -5443,0l0 -8165 5443 0z"/>
  <path class="fil37" d="M18467 1318l0 8165c-2039,0 -3405,0 -5443,0l0 -8165 5443 0z"/>
  <path class="fil38" d="M13024 1318l5443 0 0 4517 -5443 -2587c9,-267 0,-1752 0,-1930z"/>
  <path class="fil39 str1" d="M18467 1318l0 8165c-2039,0 -3405,0 -5443,0l0 -8165 5443 0z"/>
  <path class="fil40 str2" d="M14135 3579l0 516c0,21 12,41 43,41 28,0 42,-20 42,-41l0 -556c0,-22 -14,-41 -42,-41l-303 0c-29,0 -43,19 -43,41l0 556c0,21 14,41 43,41 29,0 42,-20 42,-41l0 -516 218 0zm306 223l0 -224 141 0c62,0 88,31 88,85l0 45c0,55 -26,94 -88,94l-141 0zm141 81c116,0 172,-76 172,-175l0 -45c0,-101 -56,-165 -172,-165l-184 0c-29,0 -41,19 -41,41l0 556c0,21 12,41 42,41 30,0 42,-20 42,-41l0 -212 141 0zm354 -215c0,-55 24,-98 86,-98l72 0c62,0 87,43 87,98l0 288c0,56 -25,99 -87,99l-72 0c-62,0 -86,-43 -86,-99l0 -288zm329 0c0,-98 -56,-179 -171,-179l-72 0c-114,0 -171,81 -171,179l0 288c0,99 57,180 171,180l72 0c115,0 171,-81 171,-180l0 -288zm284 468c29,0 42,-20 42,-41l0 -516 131 0c21,0 40,-12 40,-41 0,-27 -19,-40 -40,-40l-347 0c-21,0 -40,13 -40,40 0,29 19,41 40,41l131 0 0 516c0,21 13,41 43,41zm368 -468c0,-55 24,-98 86,-98l72 0c62,0 86,43 86,98l0 288c0,56 -24,99 -86,99l-72 0c-62,0 -86,-43 -86,-99l0 -288zm329 0c0,-98 -57,-179 -171,-179l-72 0c-114,0 -171,81 -171,179l0 288c0,99 57,180 171,180l72 0c114,0 171,-81 171,-180l0 -288zm529 402l-194 -275 184 -238c16,-21 16,-43 -2,-59 -22,-20 -48,-10 -63,9l-189 256 -54 0 0 -233c0,-22 -12,-41 -41,-41 -31,0 -43,19 -43,41l0 565c0,21 12,41 43,41 29,0 41,-20 41,-41l0 -251 55 0 193 274c12,18 35,28 59,12 25,-18 23,-42 11,-60zm181 -402c0,-55 25,-98 87,-98l72 0c62,0 86,43 86,98l0 288c0,56 -24,99 -86,99l-72 0c-62,0 -87,-43 -87,-99l0 -288zm330 0c0,-98 -57,-179 -171,-179l-72 0c-114,0 -171,81 -171,179l0 288c0,99 57,180 171,180l72 0c114,0 171,-81 171,-180l0 -288zm253 346c7,-51 53,-435 53,-435l158 0 0 516c0,21 12,41 43,41 29,0 41,-20 41,-41l0 -556c0,-22 -12,-41 -41,-41l-235 0c-26,0 -40,17 -43,41 -3,26 -51,419 -56,454 -2,21 -5,34 -10,43 -9,18 -25,22 -51,22 -21,0 -41,14 -41,42 0,31 20,41 41,41 78,0 111,-25 129,-70 6,-17 10,-34 12,-57z"/>
  <g>
   <path class="fil41" d="M13828 2256c-32,0 -59,-29 -59,-64 0,-36 27,-65 59,-65l0 129zm718 0l-718 0 0 -129 718 0 0 129zm0 -129c32,0 59,29 59,65 0,35 -27,64 -59,64l0 -129zm-718 821c-32,0 -59,-29 -59,-64 0,-36 27,-65 59,-65l0 129zm2439 0l-2439 0 0 -129 2439 0 0 129zm0 -129c33,0 59,29 59,65 0,35 -26,64 -59,64l0 -129zm-2439 -217c-32,0 -59,-29 -59,-64 0,-36 27,-65 59,-65l0 129zm2431 0l-2431 0 0 -129 2431 0 0 129zm0 -129c32,0 59,29 59,65 0,35 -27,64 -59,64l0 -129z"/>
  </g>
  <g>
   <path class="fil41" d="M13744 6448c-33,0 -59,-29 -59,-65 0,-35 26,-64 59,-64l0 129zm1446 0l-1446 0 0 -129 1446 0 0 129zm0 -129c32,0 59,29 59,64 0,36 -27,65 -59,65l0 -129zm-1446 2577c-33,0 -59,-29 -59,-64 0,-36 26,-65 59,-65l0 129zm1311 0l-1311 0 0 -129 1311 0 0 129zm0 -129c33,0 59,29 59,65 0,35 -26,64 -59,64l0 -129zm-1311 436c-33,0 -59,-29 -59,-64 0,-36 26,-64 59,-64l0 128zm1781 0l-1781 0 0 -128 1781 0 0 128zm0 -128c33,0 59,28 59,64 0,35 -26,64 -59,64l0 -128zm-1781 -995c-33,0 -59,-29 -59,-65 0,-35 26,-64 59,-64l0 129zm3095 0l-3095 0 0 -129 3095 0 0 129zm0 -129c32,0 59,29 59,64 0,36 -27,65 -59,65l0 -129zm-3095 436c-33,0 -59,-29 -59,-64 0,-36 26,-64 59,-64l0 128zm2086 0l-2086 0 0 -128 2086 0 0 128zm0 -128c33,0 59,28 59,64 0,35 -26,64 -59,64l0 -128zm-2086 -995c-33,0 -59,-29 -59,-65 0,-35 26,-64 59,-64l0 129zm3095 0l-3095 0 0 -129 3095 0 0 129zm0 -129c32,0 59,29 59,64 0,36 -27,65 -59,65l0 -129zm-3095 436c-33,0 -59,-29 -59,-64 0,-36 26,-65 59,-65l0 129zm2255 0l-2255 0 0 -129 2255 0 0 129zm0 -129c32,0 59,29 59,65 0,35 -27,64 -59,64l0 -129zm-2255 -687c-33,0 -59,-29 -59,-64 0,-36 26,-65 59,-65l0 129zm3105 0l-3105 0 0 -129 3105 0 0 129zm0 -129c33,0 59,29 59,65 0,35 -26,64 -59,64l0 -129z"/>
  </g>
  <path class="fil42 str3" d="M13744 5023c2,4 3,8 3,12 0,6 -2,12 -7,16 -5,5 -11,7 -18,7 -7,0 -14,-4 -20,-12 -22,-40 -40,-85 -54,-136 -5,-21 -9,-44 -13,-70 -4,-25 -6,-50 -6,-73 0,-98 25,-191 73,-279 2,-4 5,-7 9,-9 3,-2 7,-3 11,-4 7,0 13,3 18,7 5,4 7,10 7,17 0,3 -1,7 -3,12 -5,9 -10,19 -15,28 -4,9 -8,19 -12,29 -4,10 -8,21 -12,32 -3,11 -7,22 -10,34 -12,45 -18,89 -18,133 0,90 23,176 67,256zm340 -234l-145 0c-26,0 -48,-10 -67,-28 -20,-19 -29,-42 -29,-69l0 -168c0,-7 2,-13 7,-18 5,-4 11,-7 17,-7 6,0 12,2 17,6 4,4 7,11 7,19l0 169c0,13 5,25 14,34 5,4 10,8 15,10 7,3 13,4 19,4l145 0 0 -217c0,-7 3,-13 7,-18 5,-4 11,-7 17,-7 6,0 12,2 17,6 5,4 7,11 7,19l0 361c0,27 -9,50 -28,69 -19,19 -42,28 -68,28l-121 0c-7,0 -13,-2 -18,-7 -4,-5 -6,-10 -6,-17 0,-6 2,-11 7,-16 4,-5 10,-8 17,-8l121 0c13,0 25,-4 34,-13 10,-9 14,-21 14,-35l0 -97zm388 -82c14,8 25,20 33,34 9,15 13,31 13,48l0 96c0,27 -9,50 -28,69 -19,19 -42,28 -68,28l-169 0c-16,0 -24,-8 -24,-24l0 -434c0,-17 8,-25 24,-25l145 0c26,0 49,10 68,29 19,19 28,41 28,68l0 48c0,11 -2,22 -5,32 -4,11 -9,21 -17,31zm-195 34l0 193 145 0c13,0 24,-4 34,-13 9,-9 14,-21 14,-35l0 -97c0,-14 -5,-25 -14,-34 -9,-10 -20,-14 -34,-14l-145 0zm121 -48c13,0 24,-5 34,-14 9,-9 14,-20 14,-35l0 -48c0,-14 -5,-25 -14,-35 -9,-9 -20,-14 -34,-14l-121 0 0 146 121 0zm265 0l121 0c7,0 12,2 17,7 5,5 7,11 7,17 0,6 -2,11 -6,16 -4,5 -10,8 -18,8l-121 0 0 193 169 0c7,0 12,3 17,7 5,5 7,11 7,17 0,6 -2,11 -6,16 -4,5 -10,8 -18,8l-193 0c-16,0 -24,-8 -24,-23l0 -435c0,-17 8,-25 24,-25l193 0c7,0 13,3 17,8 5,5 7,10 7,16 0,6 -2,12 -6,17 -4,5 -10,7 -18,7l-169 0 0 146zm579 265c0,7 -2,14 -7,18 -4,4 -10,6 -17,6 -6,0 -12,-2 -17,-6 -4,-4 -7,-10 -7,-18l0 -411 -78 0 -116 417c-1,5 -4,9 -8,13 -5,3 -10,5 -15,5 -7,0 -13,-2 -18,-6 -4,-4 -7,-10 -7,-17 0,-4 1,-6 1,-7l121 -435c4,-12 11,-18 23,-18l121 0c16,0 24,8 24,25l0 434zm385 0c0,7 -2,14 -7,18 -4,4 -10,6 -17,6 -6,0 -12,-2 -17,-6 -4,-4 -7,-10 -7,-18l0 -341 -195 353c-3,5 -7,8 -11,11l-5 3c-2,1 -4,2 -8,2 -4,0 -10,-2 -16,-7 -4,-5 -6,-12 -6,-21l0 -434c0,-7 2,-13 7,-18 5,-4 11,-6 17,-6 6,0 12,2 17,6 5,4 7,10 7,18l0 341 196 -353c2,-4 6,-8 10,-11 4,-4 9,-5 13,-5 5,0 10,2 15,8 5,4 7,11 7,20l0 434zm338 -217l0 -217c0,-7 2,-13 7,-18 5,-4 11,-7 17,-7 6,0 12,2 17,6 5,4 7,11 7,19l0 434c0,7 -2,14 -7,18 -4,4 -10,6 -17,6 -6,0 -12,-2 -17,-6 -5,-4 -7,-10 -7,-18l0 -169 -145 0c-26,0 -48,-10 -68,-28 -19,-19 -28,-42 -28,-69l0 -168c0,-7 2,-13 7,-18 5,-4 10,-7 17,-7 6,0 12,2 16,6 5,4 8,11 8,19l0 169c0,13 4,25 14,34 5,4 10,8 15,10 7,3 13,4 19,4l145 0zm193 -48l121 0c7,0 12,2 17,7 5,5 7,11 7,17 0,6 -2,11 -6,16 -4,5 -10,8 -18,8l-121 0 0 193 169 0c7,0 13,3 17,7 5,5 7,11 7,17 0,6 -2,11 -6,16 -4,5 -10,8 -18,8l-193 0c-16,0 -24,-8 -24,-23l0 -435c0,-17 8,-25 24,-25l193 0c7,0 13,3 17,8 5,5 7,10 7,16 0,6 -2,12 -6,17 -4,5 -10,7 -18,7l-169 0 0 146zm531 0l0 -170c0,-6 2,-12 7,-16 5,-5 10,-8 17,-8 6,0 11,2 16,6 5,4 8,11 8,19l0 433c0,7 -3,13 -8,18 -6,5 -11,7 -17,7 -6,0 -11,-2 -17,-6 -4,-4 -6,-10 -6,-18l0 -217 -194 0 0 217c0,7 -2,14 -7,18 -4,4 -10,6 -17,6 -6,0 -12,-2 -17,-6 -4,-4 -7,-10 -7,-18l0 -434c0,-7 3,-13 7,-18 5,-4 11,-6 17,-6 6,0 12,2 17,6 5,4 7,10 7,18l0 169 194 0zm385 0l0 -170c0,-6 3,-12 8,-16 4,-5 10,-8 16,-8 6,0 12,2 17,6 5,4 7,11 7,19l0 433c0,7 -2,13 -7,18 -6,5 -11,7 -17,7 -6,0 -11,-2 -17,-6 -4,-4 -7,-10 -7,-18l0 -217 -193 0 0 217c0,7 -2,14 -7,18 -4,4 -10,6 -17,6 -6,0 -12,-2 -17,-6 -5,-4 -7,-10 -7,-18l0 -434c0,-7 2,-13 7,-18 5,-4 11,-6 17,-6 6,0 12,2 17,6 5,4 7,10 7,18l0 169 193 0zm230 168l-35 104c-2,6 -5,10 -9,13 -3,2 -8,3 -13,4 -7,0 -12,-2 -17,-7 -5,-4 -8,-10 -8,-16l2 -9 145 -434c5,-14 12,-21 22,-21 11,0 18,7 23,21l145 434 1 9c0,6 -2,11 -8,16 -5,5 -10,7 -17,7 -3,0 -6,-1 -10,-2 -4,-2 -8,-7 -12,-15l-34 -104 -175 0zm158 -49l-71 -212 -71 212 142 0zm432 -71l0 -194 -145 0c-13,0 -25,5 -34,14 -5,5 -8,10 -11,16 -2,6 -3,12 -3,19l0 96c0,14 5,25 14,35 5,4 10,8 15,10 7,3 13,4 19,4l145 0zm-83 48l-114 182c-4,7 -11,11 -19,11 -6,0 -12,-3 -17,-8 -5,-4 -8,-10 -8,-16 0,-5 1,-10 4,-13l97 -156 -5 0c-26,0 -48,-10 -67,-28 -20,-19 -29,-42 -29,-69l0 -96c0,-27 9,-50 28,-68 19,-19 42,-29 68,-29l169 0c16,0 24,8 24,25l0 434c0,7 -2,14 -7,18 -4,4 -10,6 -17,6 -6,0 -12,-2 -17,-6 -4,-4 -7,-10 -7,-18l0 -169 -83 0zm-2951 602l0 219 24 0c27,0 50,-9 68,-28 19,-19 29,-42 29,-69l0 -24c0,-26 -10,-49 -28,-68 -19,-20 -42,-30 -69,-30l-24 0zm-48 219l0 -219 -24 0c-26,0 -49,10 -68,29 -19,19 -29,41 -29,69l0 24c0,27 10,49 29,68 19,20 41,29 68,29l24 0zm0 48l-24 0c-40,0 -74,-14 -102,-42 -28,-28 -43,-63 -43,-103l0 -24c0,-40 15,-74 43,-103 28,-28 62,-43 102,-43l24 0 0 -48c0,-6 2,-12 7,-17 5,-5 11,-7 17,-7 6,0 12,2 17,6 5,4 7,10 7,18l0 48 24 0c40,0 74,15 102,43 13,14 24,29 31,46 8,18 12,36 12,57l0 24c0,39 -14,73 -42,102 -29,29 -63,43 -103,43l-24 0 0 72c0,8 -2,14 -7,18 -4,4 -10,6 -17,6 -6,0 -12,-2 -17,-6 -5,-4 -7,-10 -7,-18l0 -72zm603 -1c0,27 -9,50 -28,69 -19,19 -42,28 -68,28l-97 0c-26,0 -49,-9 -68,-28 -19,-19 -28,-42 -28,-69l0 -289c0,-27 9,-50 28,-68 19,-19 41,-29 68,-29l97 0c26,0 49,10 68,29 19,19 28,41 28,68l0 289zm-48 1l0 -290c0,-14 -4,-25 -14,-35 -9,-9 -20,-14 -34,-14l-97 0c-13,0 -25,5 -34,14 -5,5 -8,10 -11,16 -2,6 -3,12 -3,19l0 290c0,13 4,25 14,34 4,4 10,8 15,11 7,2 13,3 19,3l97 0c13,0 24,-4 34,-13 9,-9 14,-21 14,-35zm231 -145l145 0c14,0 25,-5 34,-14 10,-9 15,-20 15,-35l0 -96c0,-14 -5,-25 -14,-35 -9,-9 -21,-14 -35,-14l-145 0 0 194zm0 48l0 169c0,7 -2,14 -7,18 -4,4 -10,6 -17,6 -6,0 -12,-2 -17,-6 -4,-4 -7,-10 -7,-18l0 -434c0,-17 8,-25 24,-25l169 0c27,0 50,10 68,29 19,18 28,41 28,68l0 96c0,27 -9,49 -28,68 -19,19 -41,29 -68,29l-145 0zm676 169c0,7 -2,14 -6,18 -5,4 -11,6 -18,6 -6,0 -11,-2 -16,-6 -5,-4 -8,-10 -8,-18l0 -345 -100 167c-6,11 -13,16 -21,16 -7,0 -14,-5 -21,-16l-100 -167 0 345c0,7 -2,14 -7,18 -4,4 -10,6 -17,6 -6,0 -12,-2 -17,-6 -5,-4 -7,-10 -7,-18l0 -432c0,-9 2,-16 7,-21 4,-5 9,-7 15,-7 4,0 8,1 12,3 3,3 7,7 11,13l124 206 124 -206c6,-11 13,-16 23,-16 6,0 11,2 16,8 4,5 6,12 6,20l0 432zm181 -97l-35 104c-2,6 -5,10 -9,13 -3,2 -8,3 -13,4 -7,0 -12,-2 -17,-7 -5,-4 -8,-10 -8,-16l2 -9 145 -434c5,-14 12,-21 23,-21 10,0 17,7 22,21l145 434 1 9c0,6 -2,11 -8,16 -5,5 -10,7 -16,7 -4,0 -7,-1 -11,-2 -4,-2 -8,-7 -11,-15l-35 -104 -175 0zm159 -49l-71 -212 -72 212 143 0zm233 234c-2,3 -4,6 -9,9l-6 2 -6 1c-6,0 -12,-2 -17,-6 -5,-5 -8,-11 -8,-17 0,-4 1,-8 3,-12 20,-37 37,-79 50,-125 11,-45 17,-88 17,-131 0,-25 -1,-48 -4,-68 -2,-20 -6,-41 -12,-63l-9 -32 -5 -15 -7 -16c-7,-19 -17,-40 -30,-62l-3 -13c0,-5 3,-10 8,-15 5,-5 11,-8 17,-8 8,0 15,5 21,13 11,22 21,43 30,64 8,21 16,45 23,72 5,20 10,43 14,69 3,26 5,51 5,74 0,27 -1,52 -4,75 -3,22 -8,45 -14,69 -11,47 -29,92 -54,135z"/>
  <path class="fil8" d="M16097 10933l-545 324 -98 58 -53 -30 1 -2 644 -382 51 32z"/>
  <path class="fil6" d="M15311 11502l90 -217 53 30 -1 1 -143 389c-10,-7 -61,-55 -61,-55l62 -148z"/>
  <path class="fil10" d="M15593 11263c-12,-2 -23,2 -33,8l-9 -16 545 -323 -115 351c0,0 -23,14 -60,37 39,-106 67,-182 67,-182 0,0 31,-57 -7,-63 -42,-7 -72,54 -72,54l-95 258c-92,58 -208,131 -306,192 52,-142 93,-252 93,-252 0,0 31,-57 -8,-64z"/>
  <path class="fil10" d="M15519 11320c0,0 -57,153 -121,328 -56,35 -93,58 -93,58l143 -389 1 -1 99 -58 9 15c-23,16 -38,47 -38,47z"/>
  <g>
   <path class="fil43" d="M10976 6544c4,15 -6,29 -23,33 -16,3 -33,-6 -37,-20l60 -13zm-86 -321l86 321 -60 13 -86 -321 60 -13zm-60 13c-4,-15 7,-30 23,-33 17,-4 33,5 37,20l-60 13z"/>
  </g>
  <path class="fil44" d="M11164 8771l0 -2619 -458 452 0 2619 458 -452z"/>
  <path class="fil45" d="M9085 6617l0 -225 1595 0 0 225 -1595 0z"/>
  <path class="fil46" d="M11158 6167l0 -247 -478 472 0 246 478 -471z"/>
  <g>
   <path class="fil47" d="M9574 5940l1564 0 -458 452 -1564 0 458 -452z"/>
   <path id="1" class="fil48" d="M11138 5967l-1564 0 0 -54 1564 0 18 46 -18 8zm0 -54c15,0 26,12 26,27 0,15 -11,27 -26,27l0 -54zm-476 459l457 -451 37 38 -457 452 -19 7 -18 -46zm37 39c-11,10 -27,10 -38,-1 -10,-10 -10,-27 1,-38l37 39zm-1583 -46l1564 0 0 53 -1564 0 -18 -46 18 -7zm0 53c-14,0 -26,-12 -26,-26 0,-15 12,-27 26,-27l0 53zm476 -459l-457 452 -37 -39 457 -451 19 -8 18 46zm-37 -38c11,-11 28,-11 38,0 10,11 10,28 -1,38l-37 -38z"/>
  </g>
  <path class="fil49" d="M9116 9236l0 -2619 1564 0 0 2619 -1564 0z"/>
  <path class="fil44" d="M9574 8799l1564 0 -458 451 -1564 0 458 -451z"/>
  <path class="fil50" d="M10651 8799l0 451 457 -451 -457 0z"/>
  <g>
   <path class="fil51" d="M9625 6209c-24,0 -44,-21 -44,-46 0,-26 20,-47 44,-47l0 93zm950 0l-950 0 0 -93 950 0 0 93zm0 -93c24,0 44,21 44,47 0,25 -20,46 -44,46l0 -93z"/>
  </g>
  <g>
   <path class="fil52" d="M9601 8784c0,14 -12,26 -27,26 -15,0 -27,-12 -27,-26l54 0zm0 -2101l0 2101 -54 0 0 -2101 54 0zm-54 0c0,-14 12,-26 27,-26 15,0 27,12 27,26l-54 0z"/>
  </g>
  <g>
   <path class="fil53" d="M11165 6184l0 2595 -54 0 0 -2595 8 -19 46 19zm-54 0c0,-15 12,-27 27,-27 15,0 27,12 27,27l-54 0zm-450 432l458 -451 38 37 -458 452 -46 -19 8 -19zm38 38c-10,10 -27,10 -38,0 -10,-10 -10,-27 0,-38l38 38zm-46 2577l0 -2596 54 0 0 2596 -8 19 -46 -19zm54 0c0,15 -12,27 -27,27 -14,0 -27,-12 -27,-27l54 0zm450 -433l-458 452 -38 -38 458 -451 46 18 -8 19zm-38 -37c10,-11 27,-11 38,0 10,10 10,27 0,37l-38 -37z"/>
  </g>
  <g>
   <path class="fil53" d="M9141 6617l0 2619 -53 0 0 -2619 26 -27 27 27zm-53 0c0,-15 12,-27 26,-27 15,0 27,12 27,27l-53 0zm1590 26l-1564 0 0 -53 1564 0 27 27 -27 26zm0 -53c15,0 27,12 27,27 0,14 -12,26 -27,26l0 -53zm-26 2646l0 -2619 53 0 0 2619 -27 26 -26 -26zm53 0c0,14 -12,26 -27,26 -14,0 -26,-12 -26,-26l53 0zm-1591 -26l1564 0 0 52 -1564 0 -26 -26 26 -26zm0 52c-14,0 -26,-12 -26,-26 0,-15 12,-26 26,-26l0 52z"/>
  </g>
  <g>
   <path class="fil48" d="M11119 6166c11,-10 28,-10 38,1 10,10 10,27 -1,38l-37 -39zm-437 431l437 -431 37 39 -437 431 -19 7 -18 -46zm37 39c-10,10 -27,10 -38,-1 -10,-10 -10,-27 1,-38l37 39zm-1603 -46l1584 0 0 53 -1584 0 0 -53zm0 53c-14,0 -26,-12 -26,-26 0,-15 12,-27 26,-27l0 53z"/>
  </g>
  <path class="fil36 str4" d="M10748 5976c-8,17 0,38 17,46 17,8 38,0 46,-17"/>
  <path class="fil36 str4" d="M11055 6343c-19,4 -31,22 -28,40 4,19 22,31 41,28"/>
  <path class="fil36 str4" d="M9396 6310c3,18 21,31 40,27 19,-3 31,-21 28,-40"/>
  <path class="fil36 str4" d="M9207 6759c19,2 36,-13 37,-32 1,-19 -13,-35 -32,-36"/>
  <path class="fil53 str5" d="M9536 7372c0,-25 -10,-41 -32,-48 15,-9 22,-21 22,-39l0 -10c0,-34 -19,-51 -57,-51l-35 0c-11,0 -15,6 -15,14l0 183c0,8 4,14 15,14l45 0c38,0 57,-20 57,-54l0 -9zm-89 -31l32 0c21,0 29,12 29,31l0 9c0,18 -8,27 -29,27l-32 0 0 -67zm0 -27l0 -63 22 0c20,0 29,6 29,24l0 10c0,18 -9,29 -29,29l-22 0zm173 -8l-21 0 0 -72c0,-7 -5,-13 -14,-13 -10,0 -15,6 -15,13l0 187c0,7 5,14 14,14l36 0c38,0 56,-20 56,-54l0 -18c0,-33 -18,-57 -56,-57zm-21 27l21 0c20,0 28,11 28,30l0 18c0,18 -8,27 -28,27l-21 0 0 -75zm127 92l0 -191c0,-7 -4,-13 -14,-13 -10,0 -15,6 -15,13l0 191c0,7 4,13 14,13 10,0 15,-6 15,-13zm99 -118l-27 0 0 -56 61 0c7,0 13,-4 13,-14 0,-9 -6,-13 -13,-13l-76 0c-10,0 -14,5 -14,13l0 184c0,8 5,14 14,14l42 0c38,0 56,-20 56,-54l0 -17c0,-34 -18,-57 -56,-57zm28 74c0,18 -7,27 -28,27l-27 0 0 -75 27 0c21,0 28,11 28,30l0 18zm87 -101c0,-19 7,-32 28,-32l9 0c21,0 27,13 27,32l0 99c0,19 -6,32 -27,32l-9 0c-21,0 -28,-13 -28,-32l0 -99zm93 0c0,-34 -18,-59 -56,-59l-9 0c-39,0 -56,25 -56,59l0 99c0,34 17,59 56,59l9 0c38,0 56,-25 56,-59l0 -99zm69 46l0 -75 30 0c21,0 28,9 28,27l0 18c0,18 -7,30 -28,30l-30 0zm30 27c39,0 56,-24 56,-57l0 -18c0,-34 -17,-54 -56,-54l-45 0c-10,0 -14,6 -14,14l0 187c0,7 4,13 14,13 10,0 15,-6 15,-13l0 -72 30 0zm140 -47l-21 0 0 -72c0,-7 -4,-13 -14,-13 -10,0 -14,6 -14,13l0 187c0,7 4,14 14,14l35 0c38,0 56,-20 56,-54l0 -18c0,-33 -18,-57 -56,-57zm-21 27l21 0c21,0 28,11 28,30l0 18c0,18 -7,27 -28,27l-21 0 0 -75zm127 92l0 -191c0,-7 -4,-13 -14,-13 -10,0 -14,6 -14,13l0 191c0,7 4,13 14,13 9,0 14,-6 14,-13z"/>
 </g>
</svg>
