<?xml version="1.0" encoding="UTF-8"?>
<!DOCTYPE svg PUBLIC "-//W3C//DTD SVG 1.0//EN" "http://www.w3.org/TR/2001/REC-SVG-20010904/DTD/svg10.dtd">
<!-- Creator: CorelDRAW X7 -->
<svg xmlns="http://www.w3.org/2000/svg" xml:space="preserve" width="200mm" height="200mm" version="1.0" style="shape-rendering:geometricPrecision; text-rendering:geometricPrecision; image-rendering:optimizeQuality; fill-rule:evenodd; clip-rule:evenodd"
viewBox="0 0 20000 20000"
 xmlns:xlink="http://www.w3.org/1999/xlink">
 <defs>
  <style type="text/css">
   <![CDATA[
    .str14 {stroke:#024541;stroke-width:50}
    .str16 {stroke:#AB8082;stroke-width:25}
    .str15 {stroke:#4D897C;stroke-width:25}
    .str2 {stroke:#AB8082;stroke-width:40.64}
    .str3 {stroke:#CC7588;stroke-width:84.5;stroke-linecap:round;stroke-linejoin:round}
    .str10 {stroke:#B7CBD8;stroke-width:138.63;stroke-linecap:round;stroke-linejoin:round}
    .str6 {stroke:#4D897C;stroke-width:138.63;stroke-linecap:round;stroke-linejoin:round}
    .str11 {stroke:#024541;stroke-width:138.63;stroke-linecap:round;stroke-linejoin:round}
    .str12 {stroke:#024541;stroke-width:138.63;stroke-linecap:round;stroke-linejoin:round}
    .str13 {stroke:#024541;stroke-width:154.71;stroke-linecap:round;stroke-linejoin:round}
    .str1 {stroke:#4D897C;stroke-width:162.6;stroke-linecap:round;stroke-linejoin:round}
    .str0 {stroke:#024541;stroke-width:162.6;stroke-linecap:round;stroke-linejoin:round}
    .str5 {stroke:#024541;stroke-width:162.6;stroke-linecap:round;stroke-linejoin:round}
    .str9 {stroke:#B8974A;stroke-width:149.93;stroke-linecap:round;stroke-linejoin:round}
    .str4 {stroke:#024541;stroke-width:162.76;stroke-linecap:round;stroke-linejoin:round}
    .str7 {stroke:#024541;stroke-width:163.13;stroke-linecap:round;stroke-linejoin:round}
    .str8 {stroke:#024541;stroke-width:163.31;stroke-linecap:round;stroke-linejoin:round}
    .fil3 {fill:none}
    .fil5 {fill:none;fill-rule:nonzero}
    .fil13 {fill:#FEFEFE}
    .fil20 {fill:#D19A9D}
    .fil25 {fill:#AB8082}
    .fil23 {fill:#CC6F3C}
    .fil2 {fill:#EBF2D9}
    .fil24 {fill:#CDDBAC}
    .fil18 {fill:#B7B0A7}
    .fil19 {fill:#A7A18F}
    .fil15 {fill:#A2D9F7}
    .fil8 {fill:#78C8D5}
    .fil17 {fill:#66C3D0}
    .fil7 {fill:#4D897C}
    .fil11 {fill:#7690C9}
    .fil16 {fill:#024541}
    .fil9 {fill:#093332}
    .fil12 {fill:#CAB677}
    .fil22 {fill:#FFCA9C}
    .fil14 {fill:#FEFEFE;fill-rule:nonzero}
    .fil4 {fill:#AB8082;fill-rule:nonzero}
    .fil6 {fill:#CC7588;fill-rule:nonzero}
    .fil10 {fill:#B7CBD8;fill-rule:nonzero}
    .fil1 {fill:#4D897C;fill-rule:nonzero}
    .fil21 {fill:#024541;fill-rule:nonzero}
    .fil0 {fill:url(#id0)}
   ]]>
  </style>
  <radialGradient id="id0" gradientUnits="userSpaceOnUse" gradientTransform="matrix(1.41421 -0 -0 1.41421 -4145 -4156)" cx="10007.1" cy="10034.5" r="10000" fx="10007.1" fy="10034.5">
   <stop offset="0" style="stop-opacity:1; stop-color:#FEFEFE"/>
   <stop offset="0.439216" style="stop-opacity:1; stop-color:#FEFEFE"/>
   <stop offset="1" style="stop-opacity:1; stop-color:#D1E2F2"/>
  </radialGradient>
 </defs>
 <g id="Layer_x0020_1">
  <metadata id="CorelCorpID_0Corel-Layer"/>
  <g id="_623535489312">
   <path class="fil0" d="M7 35l20000 0 0 20000 -20000 0 0 -20000z"/>
   <g>
    <path class="fil1" d="M9913 9068c-20,0 -36,-36 -36,-81 0,-45 16,-81 36,-81l0 162zm5191 0l-5191 0 0 -162 5191 0 0 162zm0 -162c20,0 36,36 36,81 0,45 -16,81 -36,81l0 -162z"/>
   </g>
   <path class="fil2 str0" d="M13306 11748l2567 0 0 3850 -2567 0 0 -3850z"/>
   <path class="fil3 str1" d="M16465 12285l0 3851 -2567 0"/>
   <path class="fil3 str1" d="M16169 12016c0,1284 0,2567 0,3851 -856,0 -1711,0 -2567,0"/>
   <path class="fil4 str2" d="M14579 14636c-20,0 -27,13 -27,28l0 239 -91 0 0 -239c0,-15 -7,-28 -27,-28 -20,0 -27,13 -27,28l0 239 -91 0 0 -239c0,-15 -7,-28 -27,-28 -20,0 -27,13 -27,28l0 263c0,15 8,27 27,27l290 0c19,0 27,-12 27,-27l0 -263c0,-15 -7,-28 -27,-28zm312 6l-198 0c-14,0 -27,6 -27,25 0,19 13,27 27,27l72 0 0 239c0,14 7,27 27,27 19,0 27,-13 27,-27l0 -239 72 0c14,0 27,-8 27,-27 0,-19 -13,-25 -27,-25z"/>
   <path class="fil5 str3" d="M14022 15189c-201,-165 -329,-415 -329,-695 0,-280 128,-530 329,-695m1135 0c201,165 330,415 330,695 0,280 -129,530 -330,695"/>
   <path class="fil5 str1" d="M17056 12823l0 3850 -2567 0"/>
   <path class="fil5 str1" d="M16760 12554c0,1284 0,2567 0,3851 -855,0 -1711,0 -2567,0"/>
   <g>
    <path class="fil6" d="M14671 11145c0,45 -36,81 -81,81 -45,0 -82,-36 -82,-81l163 0zm0 -1792l0 1792 -163 0 0 -1792 163 0zm-163 0c0,-44 37,-80 82,-80 45,0 81,36 81,80l-163 0z"/>
   </g>
   <path class="fil7 str4" d="M5046 8731l-714 0 0 256 714 0 0 -256zm3666 0l-714 0 0 256 714 0 0 -256z"/>
   <path class="fil8 str0" d="M8901 5503l-4758 0c-81,0 -147,66 -147,147l0 2989c0,81 66,147 147,147l4758 0c81,0 147,-66 147,-147l0 -2989c0,-81 -66,-147 -147,-147z"/>
   <path class="fil9 str5" d="M8702 5850l-4320 0 0 2589 4320 0 0 -2589z"/>
   <path class="fil7 str6" d="M4382 6625l0 -565 -171 0 0 565 171 0zm0 1604l0 -565 -171 0 0 565 171 0z"/>
   <path class="fil10" d="M6687 7980l1642 0c38,0 69,31 69,70 0,38 -31,69 -69,69l-1642 0 0 -139zm0 -1008l821 0c38,0 69,31 69,69 0,38 -31,69 -69,69l-821 0 0 -138zm0 504l821 0c38,0 69,31 69,69 0,39 -31,70 -69,70l-821 0 0 -139zm0 -252l821 0c38,0 69,31 69,69 0,39 -31,70 -69,70l-821 0 0 -139zm0 504l1642 0c38,0 69,31 69,70 0,38 -31,69 -69,69l-1642 0 0 -139zm0 505l1642 0c38,0 69,31 69,69 0,38 -31,69 -69,69l-1642 0 0 -138z"/>
   <path class="fil11 str7" d="M6038 5103l-1656 705 0 2673 1656 704 0 -704 0 -2673 0 -705z"/>
   <path class="fil12 str8" d="M6038 5103l581 0 0 602 0 2879 0 601 -581 0 0 -601 0 -2879 0 -602z"/>
   <path class="fil13 str9" d="M6328 6220c-80,0 -146,66 -146,147 0,80 66,146 146,146 81,0 147,-66 147,-146 0,-81 -66,-147 -147,-147zm0 1556c-80,0 -146,65 -146,146 0,81 66,146 146,146 81,0 147,-65 147,-146 0,-81 -66,-146 -147,-146zm0 -778c-80,0 -146,65 -146,146 0,81 66,147 146,147 81,0 147,-66 147,-147 0,-81 -66,-146 -147,-146z"/>
   <g>
    <path class="fil13" d="M5229 7969l0 -381 125 0 0 381 -125 0z"/>
    <path id="1" class="fil14" d="M5298 7588l0 381 -138 0 0 -381 69 -69 69 69zm-138 0c0,-38 31,-69 69,-69 38,0 69,31 69,69l-138 0zm194 70l-125 0 0 -139 125 0 68 69 -68 70zm0 -139c37,0 68,31 68,69 0,39 -31,70 -68,70l0 -139zm-69 450l0 -381 137 0 0 381 -68 70 -69 -70zm137 0c0,39 -31,70 -68,70 -38,0 -69,-31 -69,-70l137 0zm-193 -69l125 0 0 139 -125 0 -69 -70 69 -69zm0 139c-38,0 -69,-31 -69,-70 0,-38 31,-69 69,-69l0 139z"/>
   </g>
   <path class="fil13 str10" d="M5553 6700c-96,0 -172,0 -268,0 -119,0 -215,199 -215,444 0,246 96,444 215,444 96,0 172,0 268,0 119,0 215,-198 215,-444 0,-245 -96,-444 -215,-444z"/>
   <g>
    <path class="fil13" d="M5540 6810l0 -491 -124 0 0 491 124 0z"/>
    <path id="1" class="fil14" d="M5609 6319l0 491 -137 0 0 -491 68 -69 69 69zm-137 0c0,-38 31,-69 68,-69 38,0 69,31 69,69l-137 0zm-56 -69l124 0 0 139 -124 0 -69 -70 69 -69zm0 139c-38,0 -69,-31 -69,-70 0,-38 31,-69 69,-69l0 139zm-69 421l0 -491 137 0 0 491 -68 70 -69 -70zm137 0c0,39 -30,70 -68,70 -38,0 -69,-31 -69,-70l137 0zm56 70l-124 0 0 -139 124 0 69 69 -69 70zm0 -139c38,0 69,31 69,69 0,39 -31,70 -69,70l0 -139z"/>
   </g>
   <path class="fil15" d="M4526 6854c30,-3 61,-6 92,-8 0,49 0,98 0,148 -31,1 -62,3 -92,4 0,-48 0,-96 0,-144zm294 445c36,2 73,3 111,5 0,54 0,108 0,161 -38,-3 -75,-6 -111,-9 0,-52 0,-105 0,-157zm-153 -7c33,2 66,3 100,5 0,51 0,103 0,154 -34,-3 -67,-6 -100,-9 0,-49 0,-100 0,-150zm153 -228c36,-1 73,-2 111,-3 0,54 0,108 0,162 -38,-1 -75,-2 -111,-3 0,-52 0,-104 0,-156zm-153 3c33,-1 66,-2 100,-2 0,51 0,103 0,154 -34,0 -67,-1 -100,-2 0,-50 0,-100 0,-150zm-49 223c0,50 0,99 0,148 -31,-2 -62,-5 -92,-8 0,-48 0,-96 0,-144 30,2 61,3 92,4zm0 -222c0,49 0,99 0,148 -31,-1 -62,-1 -92,-2 0,-48 0,-96 0,-144 30,-1 61,-1 92,-2zm202 -240c36,-3 73,-7 111,-10 0,54 0,108 0,162 -38,2 -75,3 -111,5 0,-52 0,-105 0,-157zm-153 13c33,-3 66,-6 100,-9 0,52 0,104 0,155 -34,2 -67,3 -100,5 0,-50 0,-101 0,-151z"/>
   <path class="fil16 str11" d="M5285 6805c-91,0 -165,152 -165,339 0,188 74,340 165,340 90,0 164,-152 164,-340 0,-187 -74,-339 -164,-339z"/>
   <path class="fil17" d="M11565 7395l-307 -354 355 921 86 -588 -41 -112 -93 133z"/>
   <path class="fil17" d="M12025 7395l307 -354 -354 921 -86 -588 40 -112 93 133z"/>
   <path class="fil18 str12" d="M12801 8987l0 -1220 1002 9 0 -256c0,-307 -246,-557 -546,-557l-542 0 -320 0 -600 1434 -600 -1434 -326 0c-301,0 -547,250 -547,557l0 1467 2479 0z"/>
   <path class="fil19 str12" d="M11795 8511l-413 -421 0 -281 -339 -253 74 -593 78 0 600 1434 600 -1434 78 0 74 593 -339 253 0 281 -413 421z"/>
   <path class="fil20 str12" d="M11974 7971l-179 426 -182 -435 86 -588 96 0 96 0 83 597z"/>
   <g>
    <path class="fil20" d="M11983 7119l-376 0 92 255 96 0 96 0 92 -255z"/>
    <path id="1" class="fil21" d="M11607 7049l376 0 0 139 -376 0 -66 -46 66 -93zm0 139c-39,0 -70,-31 -70,-69 0,-38 31,-70 70,-70l0 139zm26 210l-92 -256 132 -46 92 255 -66 93 -66 -46zm132 -47c13,36 -6,76 -42,89 -37,13 -77,-6 -90,-42l132 -47zm30 93l-96 0 0 -139 96 0 0 0 0 139zm0 -139c39,0 70,31 70,69 0,39 -31,70 -70,70l0 -139zm96 139l-96 0 0 -139 96 0 66 93 -66 46zm0 -139c39,0 70,31 70,69 0,39 -31,70 -70,70l0 -139zm158 -163l-92 256 -132 -47 92 -255 66 -47 66 93zm-132 -46c13,-37 54,-55 90,-42 36,12 55,52 42,88l-132 -46z"/>
   </g>
   <path class="fil15 str12" d="M11195 6963l361 445 102 -146 -51 -143 -276 -365 -136 209z"/>
   <path class="fil3 str11" d="M10928 8276l0 711m2340 -1220l-467 0 0 1220"/>
   <path class="fil3 str12" d="M11795 8397l0 590"/>
   <path class="fil22 str11" d="M11795 6723c206,1 928,-291 928,-776l0 -554c-123,-292 -37,-477 -188,-640 -148,63 -307,58 -474,5 -163,354 -775,200 -1006,-5 -151,163 -65,348 -188,640l0 554c0,485 722,777 928,776z"/>
   <path class="fil22 str11" d="M11983 7119l125 -166 0 -315c-130,56 -248,85 -313,85 -66,0 -183,-29 -313,-85l0 315 125 166 376 0z"/>
   <path class="fil23 str11" d="M11795 3937c-53,-10 -108,-15 -164,-15l0 0c-505,0 -918,413 -918,918l0 618c37,-40 92,-65 154,-65 123,-292 37,-477 188,-640 226,196 843,359 1006,5 167,53 326,58 474,-5 151,163 65,348 188,640 62,0 116,25 154,65l0 -618c0,-505 -413,-918 -918,-918l0 0c-56,0 -111,5 -164,15zm-1066 1789c26,134 82,259 160,366 -15,-46 -22,-95 -22,-145l0 -171c-53,0 -101,-19 -138,-50zm1994 50l0 171c0,50 -7,98 -22,145 78,-107 134,-232 159,-366 -36,31 -84,50 -137,50z"/>
   <path class="fil2 str11" d="M11482 6731l0 222 -151 -198 151 -24z"/>
   <path class="fil2 str11" d="M12108 6731l0 222 151 -198 -151 -24z"/>
   <path class="fil3 str11" d="M11055 4753c-88,-79 -146,-175 -162,-259 267,-35 317,-194 523,-227"/>
   <path class="fil2 str11" d="M11995 8308l536 0 0 308 -536 0 0 -308z"/>
   <path class="fil16 str11" d="M12224 5476c-36,0 -65,29 -65,65 0,35 29,64 65,64 35,0 64,-29 64,-64 0,-36 -29,-65 -64,-65zm-858 0c36,0 65,29 65,65 0,35 -29,64 -65,64 -35,0 -64,-29 -64,-64 0,-36 29,-65 64,-65z"/>
   <path class="fil22 str11" d="M10663 5584c0,-106 91,-191 204,-191l0 191 0 192c-113,0 -204,-86 -204,-192zm2264 0c0,-106 -91,-191 -204,-191l0 191 0 192c113,0 204,-86 204,-192z"/>
   <path class="fil15 str12" d="M12395 6963l-361 445 -102 -146 51 -143 276 -365 136 209z"/>
   <path class="fil2 str11" d="M11935 6369c-34,39 -93,65 -158,65 -105,0 -191,-66 -191,-147 0,-29 12,-56 31,-79 77,79 188,137 318,161z"/>
   <path class="fil23 str11" d="M11445 6087c230,-128 456,-111 680,0 0,30 0,60 0,90 0,72 0,10 0,82 -227,0 -454,0 -680,0 0,-101 0,-70 0,-172z"/>
   <path class="fil22 str0" d="M9831 8987l928 0c0,-45 0,-107 0,-150 0,-209 -96,-324 -238,-363 -86,-24 -225,-23 -306,25 -58,36 -105,96 -104,142 -96,-117 -284,-10 -284,189 0,28 4,107 4,157z"/>
   <path class="fil3 str11" d="M10139 8689l-332 -1239"/>
   <path class="fil6" d="M14641 11261l-102 0 -312 -482 102 -66 312 481 -102 0 102 67zm0 0l-51 78 -51 -78 102 0zm261 -515l51 33 -312 482 -102 -67 312 -481 51 33zm-251 387l0 3 -1 3 0 3 -1 3 0 3 -1 3 -1 3 -1 3 -1 2 -2 3 -1 2 -2 3 -1 2 -2 3 -2 2 -2 2 -2 2 -3 2 -2 2 -2 1 -3 2 -2 1 -3 2 -3 1 -2 1 -3 1 -3 1 -3 1 -3 0 -3 0 -3 1 -3 0 -3 0 -4 -1 -3 0 -3 0 -3 -1 -2 -1 -3 -1 -3 -1 -3 -1 -2 -2 -3 -1 -2 -2 -3 -1 -2 -2 -2 -2 -2 -2 -2 -2 -2 -2 -2 -3 -2 -2 -1 -3 -2 -2 -1 -3 -1 -2 -2 -3 -1 -3 0 -3 -1 -3 -1 -3 0 -3 0 -3 0 -3 122 0zm-122 -780l122 0 0 780 -122 0 0 -780zm0 0l0 -3 0 -3 0 -3 1 -3 1 -3 0 -3 1 -3 2 -2 1 -3 1 -3 2 -2 1 -3 2 -2 2 -2 2 -3 2 -2 2 -2 2 -2 2 -1 3 -2 2 -2 3 -1 2 -2 3 -1 3 -1 3 -1 2 -1 3 0 3 -1 3 0 4 -1 3 0 3 0 3 1 3 0 3 1 3 0 3 1 3 1 2 1 3 1 3 2 2 1 3 2 2 2 2 1 3 2 2 2 2 2 2 3 2 2 1 2 2 3 1 2 2 3 1 3 1 2 1 3 1 3 0 3 1 3 0 3 1 3 0 3 -122 0z"/>
   <path class="fil2 str13" d="M17487 2665l0 6322 -4248 0c0,-158 0,-234 0,-548l0 -5774 4248 0z"/>
   <path class="fil24" d="M13239 2665l4248 0 0 2380 -4231 -2001c-17,-149 -17,-282 -17,-379z"/>
   <path class="fil5 str13" d="M17487 8987l0 -6322 -4248 0 0 0 0 6322 4248 0z"/>
   <path class="fil22 str0" d="M17527 5845l0 -396c294,-95 345,101 345,246l0 887c1,245 51,383 -253,378 -31,-1 -142,-1 -172,-1 -265,2 -475,5 -475,-370 0,-89 -1,-479 0,-484 41,-242 261,-258 555,-260z"/>
   <path class="fil16 str14" d="M13936 3565c13,9 24,20 33,35 8,15 13,31 13,48l0 96c0,26 -10,49 -29,68 -19,19 -41,29 -68,29l-169 0c-16,0 -24,-8 -24,-25l0 -434c0,-16 8,-24 24,-24l145 0c27,0 50,9 68,28 19,19 29,42 29,69l0 48c0,11 -2,21 -6,32 -3,10 -9,20 -16,30zm-196 34l0 194 145 0c14,0 25,-5 34,-14 10,-9 15,-21 15,-35l0 -96c0,-14 -5,-25 -14,-35 -9,-9 -21,-14 -35,-14l-145 0zm121 -48c14,0 25,-4 34,-13 10,-9 15,-21 15,-35l0 -49c0,-13 -5,-25 -14,-34 -9,-9 -21,-14 -35,-14l-121 0 0 145 121 0zm265 0l121 0c7,0 13,3 17,8 5,5 8,10 8,16 0,6 -2,11 -7,17 -4,5 -10,7 -18,7l-121 0 0 194 170 0c6,0 12,2 17,7 4,5 7,10 7,17 0,5 -2,11 -6,16 -4,5 -10,8 -18,8l-194 0c-16,0 -24,-8 -24,-23l0 -436c0,-16 8,-24 24,-24l194 0c6,0 12,2 17,7 4,5 7,11 7,17 0,6 -2,11 -6,16 -4,5 -10,8 -18,8l-170 0 0 145zm340 242l46 -414c0,-14 8,-21 24,-21l145 0c16,0 24,8 24,24l0 411 24 0c17,0 25,8 25,24l0 48c0,6 -3,12 -8,16 -5,5 -10,8 -16,8 -6,0 -11,-2 -16,-6 -6,-4 -8,-10 -8,-18l0 -24 -242 0 0 24c0,6 -3,12 -8,16 -5,5 -10,8 -16,8 -6,0 -11,-2 -16,-6 -6,-4 -8,-10 -8,-18l0 -48c0,-16 8,-24 24,-24l26 0zm191 0l0 -387 -99 0 -43 387 142 0zm460 -49c0,26 -9,49 -28,68 -19,19 -42,29 -68,29l-97 0c-26,0 -48,-10 -67,-29 -20,-18 -29,-41 -29,-68l0 -289c0,-27 9,-50 28,-69 19,-19 42,-28 68,-28l97 0c27,0 49,9 68,28 19,19 28,42 28,69l0 289zm-48 0l0 -290c0,-13 -4,-25 -13,-34 -9,-9 -21,-14 -35,-14l-97 0c-13,0 -25,5 -34,14 -5,4 -8,10 -11,15 -2,6 -3,13 -3,19l0 290c0,14 5,25 14,35 5,4 10,7 15,10 7,2 13,4 19,4l97 0c13,0 25,-5 34,-14 10,-9 14,-21 14,-35zm521 72c0,8 -2,14 -6,19 -5,4 -11,6 -18,6 -5,0 -11,-2 -16,-6 -5,-5 -8,-11 -8,-19l0 -344 -99 167c-6,10 -13,15 -21,15 -7,0 -14,-5 -21,-15l-101 -167 0 344c0,8 -2,14 -6,19 -5,4 -11,6 -18,6 -6,0 -12,-2 -16,-6 -5,-4 -8,-11 -8,-19l0 -432c0,-9 3,-16 7,-20 4,-5 9,-7 15,-7 5,0 9,1 12,3 4,2 7,6 11,12l125 207 124 -207c5,-10 13,-15 23,-15 5,0 10,2 15,7 4,5 6,12 6,20l0 432zm386 -72c0,26 -10,49 -29,68 -18,19 -41,29 -68,29l-96 0c-26,0 -49,-10 -68,-29 -19,-18 -29,-41 -29,-68l0 -289c0,-27 10,-50 28,-69 19,-19 42,-28 69,-28l96 0c27,0 50,9 69,28 18,19 28,42 28,69l0 289zm-48 0l0 -290c0,-13 -5,-25 -14,-34 -9,-9 -21,-14 -35,-14l-96 0c-14,0 -25,5 -35,14 -4,4 -8,10 -10,15 -2,6 -4,13 -4,19l0 290c0,14 5,25 14,35 5,4 10,7 16,10 7,2 13,4 19,4l96 0c14,0 25,-5 35,-14 9,-9 14,-21 14,-35zm400 97l-121 0c-26,0 -48,-10 -68,-29 -19,-18 -28,-41 -28,-68l0 -289c0,-27 9,-50 28,-69 19,-19 41,-28 68,-28l121 0c7,0 12,2 17,7 5,5 7,11 7,17 0,5 -2,11 -6,16 -4,5 -10,8 -18,8l-121 0c-13,0 -25,5 -34,14 -5,4 -8,10 -11,15 -2,6 -3,13 -3,19l0 290c0,14 4,25 14,35 4,4 10,7 15,10 7,2 13,4 19,4l121 0c7,0 12,2 17,7 5,5 7,10 7,17 0,5 -2,10 -6,16 -4,5 -10,8 -18,8zm241 -435l-97 0c-7,0 -13,-2 -17,-7 -5,-5 -7,-11 -7,-17 0,-6 2,-11 6,-16 4,-5 10,-8 18,-8l242 0c6,0 12,2 17,7 4,5 7,11 7,17 0,5 -2,11 -6,16 -4,5 -10,8 -18,8l-97 0 0 410c0,8 -2,14 -7,19 -4,4 -10,6 -17,6 -6,0 -12,-2 -17,-6 -5,-5 -7,-11 -7,-19l0 -410zm313 193l145 0c14,0 25,5 35,14 9,9 14,21 14,35l0 96c0,14 -5,25 -14,35 -5,4 -10,8 -16,10 -6,2 -12,4 -19,4l-145 0 0 -194zm0 -48l0 -169c0,-6 -2,-12 -7,-17 -5,-5 -11,-7 -17,-7 -5,0 -11,2 -16,6 -5,4 -8,10 -8,18l0 434c0,17 8,25 24,25l169 0c26,0 49,-10 68,-28 19,-19 28,-42 28,-69l0 -96c0,-27 -9,-49 -28,-68 -18,-19 -41,-29 -68,-29l-145 0z"/>
   <path class="fil16 str14" d="M13921 8231c0,7 -2,12 -6,17 -4,3 -9,5 -16,5 -5,0 -10,-2 -15,-6 -4,-3 -6,-9 -6,-16l0 -307 -176 318c-3,4 -6,8 -10,10l-5 3c-1,0 -3,1 -6,1 -5,0 -9,-2 -15,-6 -3,-4 -5,-11 -5,-19l0 -391c0,-5 2,-11 6,-16 4,-3 10,-5 15,-5 6,0 11,2 15,5 5,4 7,9 7,16l0 307 176 -317c2,-4 5,-7 9,-10 4,-3 8,-5 12,-5 5,0 9,3 13,7 5,5 7,11 7,18l0 391zm196 -369l-87 0c-7,0 -12,-2 -16,-6 -4,-5 -6,-10 -6,-16 0,-5 2,-10 5,-14 4,-5 9,-8 17,-8l217 0c6,0 11,3 15,7 4,4 6,10 6,15 0,5 -2,10 -5,15 -4,4 -9,7 -16,7l-87 0 0 369c0,7 -2,12 -6,17 -4,3 -10,5 -16,5 -6,0 -11,-2 -15,-6 -4,-3 -6,-9 -6,-16l0 -369zm477 304c0,24 -9,44 -26,61 -17,17 -37,26 -61,26l-87 0c-24,0 -44,-9 -61,-25 -17,-17 -26,-38 -26,-62l0 -261c0,-24 9,-44 25,-61 17,-17 38,-26 62,-26l87 0c24,0 44,9 61,26 17,17 26,37 26,61l0 261zm-44 0l0 -261c0,-12 -4,-22 -12,-31 -8,-8 -19,-12 -31,-12l-87 0c-12,0 -23,4 -31,12 -4,4 -7,9 -10,14 -2,5 -3,11 -3,17l0 261c0,12 4,23 13,31 4,4 9,7 14,10 6,2 12,3 17,3l87 0c12,0 22,-4 31,-13 8,-8 12,-18 12,-31zm361 -304l-153 0 0 369c0,7 -2,12 -6,17 -4,3 -9,5 -15,5 -6,0 -11,-2 -15,-6 -5,-3 -7,-9 -7,-16l0 -391c0,-14 7,-22 22,-22l174 0c6,0 11,3 15,7 4,4 6,10 6,15 0,5 -1,10 -5,15 -4,4 -9,7 -16,7zm346 304c0,24 -8,44 -25,61 -17,17 -38,26 -61,26l-87 0c-24,0 -44,-9 -61,-25 -17,-17 -26,-38 -26,-62l0 -261c0,-24 8,-44 25,-61 17,-17 38,-26 62,-26l87 0c24,0 44,9 61,26 17,17 25,37 25,61l0 261zm-43 0l0 -261c0,-12 -4,-22 -12,-31 -8,-8 -19,-12 -31,-12l-87 0c-13,0 -23,4 -31,12 -5,4 -8,9 -10,14 -2,5 -3,11 -3,17l0 261c0,12 4,23 13,31 4,4 9,7 14,10 6,2 11,3 17,3l87 0c12,0 22,-4 30,-13 9,-8 13,-18 13,-31zm165 -34c0,-6 2,-11 6,-16 4,-4 10,-6 15,-6 5,0 10,2 15,6 5,5 7,10 7,16 0,5 -2,10 -6,14 -5,5 -10,7 -16,7 -6,0 -11,-2 -15,-6 -4,-5 -6,-10 -6,-15zm0 -177c0,-6 2,-11 6,-15 4,-4 10,-7 15,-7 5,0 10,3 15,7 5,4 7,9 7,15 0,5 -2,10 -6,15 -5,4 -10,7 -16,7 -6,0 -11,-3 -15,-7 -4,-4 -6,-10 -6,-15zm434 -93l0 130 65 0c30,0 55,11 77,32 21,21 32,47 32,77l0 43c0,30 -11,55 -32,77 -22,21 -47,32 -77,32l-87 0c-6,0 -12,-2 -16,-6 -4,-5 -5,-10 -5,-16 0,-5 1,-10 5,-14 4,-5 9,-7 16,-7l87 0c18,0 33,-7 46,-19 13,-13 20,-28 20,-47l0 -43c0,-18 -7,-34 -19,-46 -13,-13 -28,-19 -47,-19l-87 0c-14,0 -21,-8 -21,-22l0 -174c0,-14 7,-22 21,-22l174 0c6,0 11,3 15,7 5,4 7,10 7,15 0,5 -2,10 -6,15 -3,4 -9,7 -16,7l-152 0zm694 348l87 0 0 -240c0,-5 2,-11 7,-16 4,-3 9,-5 15,-5 5,0 10,1 15,5 4,4 6,9 6,16l0 261c0,15 -7,22 -21,22l-195 0c-24,0 -44,-9 -61,-25 -18,-17 -26,-38 -26,-62l0 -196c0,-5 2,-11 6,-16 5,-3 10,-5 15,-5 6,0 11,1 15,5 5,4 7,9 7,16l0 196c0,12 4,23 12,31 5,4 10,7 14,10 7,2 12,3 18,3l43 0 0 -240c0,-5 2,-11 6,-16 5,-3 10,-5 16,-5 5,0 10,1 15,5 4,4 6,9 6,16l0 240zm348 -218l-87 0 0 239c0,7 -2,12 -6,17 -4,3 -10,5 -16,5 -6,0 -11,-2 -15,-6 -4,-3 -7,-9 -7,-16l0 -261c0,-14 8,-21 22,-21l195 0c24,0 44,8 61,25 17,17 26,37 26,62l0 195c0,7 -2,12 -6,17 -4,3 -9,5 -16,5 -5,0 -10,-2 -15,-6 -4,-3 -6,-9 -6,-16l0 -196c0,-12 -4,-22 -12,-31 -9,-8 -19,-12 -32,-12l-43 0 0 239c0,7 -2,12 -6,17 -4,3 -9,5 -16,5 -5,0 -11,-2 -15,-6 -4,-3 -6,-9 -6,-16l0 -239z"/>
   <path class="fil16 str14" d="M13809 5280c12,7 22,18 30,31 8,14 11,28 11,43l0 87c0,24 -8,44 -25,61 -17,17 -37,26 -61,26l-152 0c-15,0 -22,-8 -22,-22l0 -391c0,-15 7,-22 22,-22l130 0c24,0 45,9 62,26 16,17 25,37 25,61l0 44c0,10 -2,19 -5,28 -3,10 -8,19 -15,28zm-176 30l0 174 131 0c12,0 22,-4 31,-12 8,-8 12,-18 12,-31l0 -87c0,-12 -4,-23 -12,-31 -8,-8 -19,-13 -31,-13l-131 0zm109 -43c12,0 22,-4 31,-12 8,-8 13,-19 13,-31l0 -44c0,-12 -4,-22 -13,-31 -8,-8 -18,-13 -31,-13l-109 0 0 131 109 0zm456 239c0,7 -2,12 -6,16 -4,4 -10,6 -16,6 -6,0 -11,-2 -15,-6 -4,-3 -6,-9 -6,-16l0 -261c0,-6 2,-11 6,-16 4,-4 9,-6 15,-6 6,0 11,2 15,6 4,4 7,9 7,16l0 261zm-217 -109l0 87 43 0c13,0 24,-4 32,-13 8,-9 12,-19 12,-30 0,-13 -4,-23 -11,-31 -4,-4 -8,-7 -14,-9 -5,-3 -12,-4 -19,-4l-43 0zm0 -43l43 0c27,0 49,9 65,27 15,16 22,36 22,60 0,23 -7,42 -22,59 -16,19 -38,28 -65,28l-65 0c-14,0 -22,-8 -22,-22l0 -261c0,-6 2,-11 7,-16 4,-4 9,-6 15,-6 5,0 11,2 15,6 4,3 7,9 7,16l0 109zm478 -87l-88 0c-12,0 -22,4 -31,12 -4,4 -7,9 -9,14 -2,5 -3,11 -3,17l0 131c0,12 4,22 12,31 5,4 9,7 14,9 6,2 12,3 17,3l44 0c12,0 22,-4 31,-12 8,-8 13,-18 13,-31l0 -174zm0 -44l0 -43c0,-12 -5,-23 -13,-31 -8,-8 -18,-13 -31,-13l-87 0c-7,0 -12,-1 -16,-5 -4,-5 -6,-10 -6,-16 0,-5 2,-10 6,-15 3,-4 9,-7 16,-7l87 0c24,0 45,9 61,26 17,17 26,37 26,61l0 261c0,24 -9,44 -26,61 -17,17 -37,26 -61,26l-44 0c-23,0 -43,-9 -60,-26 -18,-16 -26,-37 -26,-61l0 -131c0,-24 8,-44 25,-61 17,-17 38,-26 62,-26l87 0zm303 218l0 -174 -87 0c-12,0 -22,4 -31,12 -4,4 -7,9 -9,14 -2,5 -3,11 -3,17l0 131c0,12 4,22 12,31 4,4 9,7 14,9 6,2 12,3 17,3l44 0c12,0 22,-4 31,-12 8,-8 12,-18 12,-31zm22 58c-7,8 -17,15 -29,20 -12,6 -24,9 -36,9l-44 0c-23,0 -43,-9 -61,-26 -17,-16 -26,-37 -26,-61l0 -131c0,-24 9,-44 26,-61 17,-17 37,-26 61,-26l109 0c14,0 22,8 22,22l0 195c0,9 2,18 8,27 5,8 12,14 22,19 9,4 13,10 13,19 0,7 -2,12 -6,16 -4,4 -9,7 -15,7 -4,0 -6,-1 -9,-3 -15,-5 -26,-14 -35,-26zm282 -145l0 -109c0,-6 2,-11 7,-16 4,-4 9,-6 15,-6 5,0 10,2 15,6 4,4 6,9 6,16l0 261c0,7 -2,12 -6,16 -4,4 -9,6 -15,6 -6,0 -11,-2 -15,-6 -5,-3 -7,-9 -7,-16l0 -109 -131 0 0 109c0,7 -2,12 -6,16 -4,4 -9,6 -15,6 -6,0 -11,-2 -15,-6 -5,-3 -7,-9 -7,-16l0 -261c0,-6 2,-11 7,-16 4,-4 9,-6 15,-6 5,0 10,2 15,6 4,3 6,9 6,16l0 109 131 0zm347 78c0,26 -9,48 -27,67 -19,19 -42,29 -68,29l-26 0c-26,0 -49,-10 -67,-28 -19,-18 -29,-41 -29,-68l0 -113c0,-25 9,-48 28,-67 19,-19 41,-29 68,-29l26 0c26,0 48,10 67,28 19,19 28,41 28,68l0 113zm-43 0l0 -113c0,-14 -5,-27 -15,-37 -10,-10 -22,-15 -37,-15l-26 0c-15,0 -27,5 -37,15 -10,10 -16,22 -16,37l0 113c0,14 5,27 16,37 10,10 22,15 37,15l26 0c14,0 26,-5 37,-14 10,-10 15,-23 15,-38zm130 -26c0,-6 2,-11 6,-15 5,-4 10,-6 16,-6 4,0 9,2 14,6 5,4 7,9 7,15 0,6 -2,10 -6,15 -4,5 -9,7 -15,7 -7,0 -12,-2 -16,-7 -4,-4 -6,-9 -6,-15zm0 -176c0,-6 2,-11 6,-15 5,-5 10,-7 16,-7 4,0 9,2 14,7 5,4 7,9 7,15 0,5 -2,10 -6,14 -4,5 -9,7 -15,7 -7,0 -12,-2 -16,-6 -4,-5 -6,-10 -6,-15zm434 -94l0 131 65 0c30,0 55,11 77,32 21,21 32,47 32,77l0 43c0,30 -11,55 -32,77 -21,21 -47,32 -77,32l-87 0c-6,0 -12,-2 -16,-7 -3,-4 -5,-9 -5,-15 0,-5 2,-10 5,-15 4,-4 10,-7 16,-7l87 0c18,0 34,-6 46,-18 13,-13 20,-28 20,-47l0 -43c0,-18 -7,-34 -19,-46 -13,-13 -28,-20 -47,-20l-87 0c-14,0 -21,-7 -21,-21l0 -174c0,-15 7,-22 21,-22l174 0c6,0 11,2 15,7 5,4 7,9 7,15 0,5 -2,10 -6,14 -3,5 -9,7 -16,7l-152 0zm694 348l87 0 0 -239c0,-6 2,-11 7,-16 4,-4 9,-6 15,-6 5,0 10,2 15,6 4,3 6,9 6,16l0 261c0,14 -7,22 -21,22l-195 0c-24,0 -44,-9 -61,-26 -17,-16 -26,-37 -26,-61l0 -196c0,-6 2,-11 6,-16 5,-4 10,-6 16,-6 5,0 10,2 14,6 5,4 7,9 7,16l0 196c0,12 4,22 13,31 4,4 9,7 14,9 6,2 11,3 17,3l43 0 0 -239c0,-6 2,-11 7,-16 4,-4 9,-6 15,-6 5,0 10,2 15,6 4,4 6,9 6,16l0 239zm348 -217l-87 0 0 239c0,7 -2,12 -6,16 -4,4 -9,6 -16,6 -6,0 -11,-2 -15,-6 -4,-3 -6,-9 -6,-16l0 -261c0,-14 7,-22 21,-22l195 0c24,0 44,9 61,26 18,17 26,37 26,61l0 196c0,7 -2,12 -6,16 -4,4 -9,6 -15,6 -6,0 -11,-2 -16,-6 -4,-3 -6,-9 -6,-16l0 -196c0,-12 -4,-22 -12,-31 -8,-8 -19,-12 -32,-12l-43 0 0 239c0,7 -2,12 -6,16 -4,4 -9,6 -16,6 -5,0 -10,-2 -15,-6 -4,-3 -6,-9 -6,-16l0 -239z"/>
   <path class="fil7 str15" d="M13552 12897l0 116 87 0c8,0 14,-3 20,-8 6,-5 9,-12 9,-21l0 -58c0,-8 -3,-15 -9,-21 -5,-5 -12,-8 -20,-8l-87 0zm0 -29l86 0c16,0 30,6 41,17 12,11 17,25 17,41l0 58c0,16 -5,29 -17,41 -11,11 -25,17 -40,17l-102 0c-9,0 -14,-5 -14,-15l0 -260c0,-10 5,-15 14,-15l116 0c4,0 7,2 10,5 3,3 5,6 5,10 0,3 -2,6 -4,9 -3,3 -6,5 -11,5l-101 0 0 87zm376 116l0 -174c0,-8 -2,-15 -8,-21 -5,-5 -12,-8 -21,-8l-29 0c-8,0 -15,3 -21,8 -2,3 -4,6 -6,10 -1,3 -2,7 -2,11l0 174c0,8 3,15 8,21 3,2 6,4 10,6 4,1 8,2 11,2l29 0c8,0 15,-3 21,-8 5,-5 8,-12 8,-21zm-145 -116l29 0 0 -58c0,-16 6,-30 17,-41 11,-11 25,-17 41,-17l29 0c16,0 30,6 41,17 11,12 17,25 17,41l0 174c0,16 -6,29 -17,41 -11,11 -25,17 -41,17l-29 0c-16,0 -29,-6 -41,-17 -11,-11 -17,-25 -17,-41l0 -87 -29 0 0 130c0,5 -1,8 -4,11 -3,3 -6,4 -10,4 -4,0 -7,-1 -10,-4 -3,-2 -5,-6 -5,-11l0 -260c0,-4 2,-8 5,-11 3,-3 6,-4 10,-4 3,0 7,1 10,4 3,2 4,6 4,11l0 101zm377 159c0,5 -2,8 -4,11 -3,3 -6,4 -11,4 -3,0 -7,-1 -10,-4 -3,-2 -4,-6 -4,-11l0 -246 -47 0 -70 250c0,3 -2,5 -4,8 -3,2 -6,3 -9,3 -5,0 -8,-1 -11,-4 -3,-2 -4,-6 -4,-10 0,-2 0,-4 1,-4l72 -261c2,-7 7,-11 14,-11l72 0c10,0 15,5 15,15l0 260zm231 0c0,5 -1,8 -4,11 -2,3 -6,4 -10,4 -4,0 -7,-1 -10,-4 -3,-2 -5,-6 -5,-11l0 -246 -47 0 -69 250c-1,3 -2,5 -5,8 -3,2 -6,3 -9,3 -4,0 -8,-1 -10,-4 -3,-2 -5,-6 -5,-10 0,-2 1,-4 1,-4l73 -261c2,-7 6,-11 13,-11l73 0c9,0 14,5 14,15l0 260zm87 -159l72 0c4,0 8,2 11,5 3,3 4,6 4,10 0,3 -1,6 -4,9 -2,3 -6,5 -11,5l-72 0 0 116 101 0c4,0 8,1 11,4 2,3 4,7 4,10 0,4 -1,7 -4,10 -2,3 -6,5 -11,5l-116 0c-9,0 -14,-5 -14,-14l0 -261c0,-10 5,-15 14,-15l116 0c4,0 8,2 11,5 2,3 4,6 4,10 0,3 -1,6 -4,9 -2,3 -6,5 -11,5l-101 0 0 87zm246 -87l-58 0c-5,0 -8,-1 -11,-4 -2,-3 -4,-7 -4,-10 0,-4 2,-7 4,-10 2,-3 6,-5 11,-5l144 0c4,0 8,2 11,5 2,3 4,6 4,10 0,3 -1,6 -4,9 -2,3 -6,5 -11,5l-57 0 0 246c0,5 -2,8 -5,11 -2,3 -6,4 -10,4 -4,0 -7,-1 -10,-4 -3,-2 -4,-6 -4,-11l0 -246zm188 87l72 0c4,0 8,2 11,5 3,3 4,6 4,10 0,3 -1,6 -4,9 -2,3 -6,5 -11,5l-72 0 0 116 101 0c4,0 8,1 11,4 2,3 4,7 4,10 0,4 -1,7 -4,10 -2,3 -6,5 -11,5l-116 0c-9,0 -14,-5 -14,-14l0 -261c0,-10 5,-15 14,-15l116 0c4,0 8,2 11,5 2,3 4,6 4,10 0,3 -1,6 -4,9 -2,3 -6,5 -11,5l-101 0 0 87zm318 0l0 -101c0,-4 2,-8 4,-10 3,-3 7,-5 11,-5 3,0 7,1 10,4 2,2 4,6 4,11l0 260c0,4 -2,8 -5,11 -3,2 -6,4 -10,4 -3,0 -7,-1 -10,-4 -2,-2 -4,-6 -4,-11l0 -130 -116 0 0 130c0,5 -1,8 -4,11 -3,3 -6,4 -10,4 -4,0 -7,-1 -10,-4 -3,-2 -5,-6 -5,-11l0 -260c0,-4 2,-8 5,-11 3,-2 6,-4 10,-4 3,0 7,2 10,4 3,2 4,6 4,11l0 101 116 0zm116 0l72 0c5,0 8,2 11,5 3,3 4,6 4,10 0,3 -1,6 -4,9 -2,3 -6,5 -11,5l-72 0 0 116 101 0c4,0 8,1 11,4 3,3 4,7 4,10 0,4 -1,7 -4,10 -2,3 -6,5 -11,5l-116 0c-9,0 -14,-5 -14,-14l0 -261c0,-10 5,-15 14,-15l116 0c4,0 8,2 11,5 3,3 4,6 4,10 0,3 -1,6 -4,9 -2,3 -6,5 -11,5l-101 0 0 87zm289 -145l-58 0c-4,0 -8,-1 -10,-3 -3,-4 -4,-7 -4,-11 0,-3 1,-6 4,-10 2,-3 5,-4 10,-4l58 0c4,0 8,1 10,4 3,3 5,6 5,10 0,3 -2,7 -4,10 -2,3 -6,4 -11,4zm58 304c0,5 -1,8 -4,11 -3,3 -6,4 -10,4 -4,0 -8,-1 -10,-4 -3,-2 -5,-6 -5,-11l0 -204 -117 211c-2,3 -4,6 -7,7l-3 2c-1,1 -2,1 -4,1 -3,0 -6,-1 -10,-4 -2,-3 -4,-7 -4,-13l0 -260c0,-4 2,-8 5,-11 3,-2 6,-4 10,-4 4,0 7,2 10,4 3,2 4,6 4,11l0 205 118 -212c1,-2 3,-5 6,-7 3,-2 5,-3 8,-3 3,0 6,2 9,5 3,3 4,7 4,12l0 260z"/>
   <path class="fil25 str16" d="M14485 13898l0 146 73 0c33,0 61,12 85,35 24,24 36,52 36,85l0 49c0,32 -12,61 -36,84 -23,24 -52,36 -85,36l-97 0c-7,0 -13,-2 -17,-7 -5,-5 -7,-10 -7,-17 0,-6 2,-11 7,-16 4,-5 10,-8 18,-8l96 0c20,0 37,-7 51,-21 15,-14 22,-31 22,-51l0 -49c0,-20 -7,-37 -21,-51 -14,-14 -31,-21 -52,-21l-96 0c-17,0 -25,-8 -25,-24l0 -193c0,-17 8,-25 24,-25l194 0c6,0 12,3 17,8 4,5 7,10 7,16 0,6 -2,11 -6,17 -4,5 -10,7 -18,7l-170 0z"/>
  </g>
 </g>
</svg>
