<?xml version="1.0" encoding="UTF-8"?>
<!DOCTYPE svg PUBLIC "-//W3C//DTD SVG 1.0//EN" "http://www.w3.org/TR/2001/REC-SVG-20010904/DTD/svg10.dtd">
<!-- Creator: CorelDRAW X7 -->
<svg xmlns="http://www.w3.org/2000/svg" xml:space="preserve" width="200mm" height="200mm" version="1.0" style="shape-rendering:geometricPrecision; text-rendering:geometricPrecision; image-rendering:optimizeQuality; fill-rule:evenodd; clip-rule:evenodd"
viewBox="0 0 20000 20000"
 xmlns:xlink="http://www.w3.org/1999/xlink">
 <defs>
  <style type="text/css">
   <![CDATA[
    .str2 {stroke:#034540;stroke-width:21}
    .str5 {stroke:#CC7587;stroke-width:50}
    .str1 {stroke:#4D8A7D;stroke-width:12.11}
    .str0 {stroke:#034540;stroke-width:115.4;stroke-linecap:round;stroke-linejoin:round}
    .str4 {stroke:#4D8A7D;stroke-width:100.98;stroke-linecap:round;stroke-linejoin:round}
    .str3 {stroke:#034540;stroke-width:132;stroke-linecap:round;stroke-linejoin:round}
    .fil5 {fill:none;fill-rule:nonzero}
    .fil6 {fill:#CC7587}
    .fil2 {fill:#FFF7B3}
    .fil1 {fill:#FFFADB}
    .fil4 {fill:#034540;fill-rule:nonzero}
    .fil3 {fill:#4D8A7D;fill-rule:nonzero}
    .fil0 {fill:url(#id0)}
   ]]>
  </style>
  <radialGradient id="id0" gradientUnits="userSpaceOnUse" gradientTransform="matrix(1.41421 -0 -0 1.41421 -4136 -4151)" cx="9984.77" cy="10022.4" r="10000" fx="9984.77" fy="10022.4">
   <stop offset="0" style="stop-opacity:1; stop-color:#FEFEFE"/>
   <stop offset="0.439216" style="stop-opacity:1; stop-color:#FEFEFE"/>
   <stop offset="1" style="stop-opacity:1; stop-color:#D1E2F2"/>
  </radialGradient>
 </defs>
 <g id="Layer_x0020_1">
  <metadata id="CorelCorpID_0Corel-Layer"/>
  <g id="_623444979344">
   <path class="fil0" d="M-15 22l20000 0 0 20000 -20000 0 0 -20000z"/>
   <g>
    <path class="fil1 str0" d="M13111 5884l0 8293c-2247,0 -3752,0 -5999,0l0 -8293 5999 0z"/>
    <path class="fil2" d="M7112 5884l5999 0 0 3424 -5999 -2850c10,-295 0,-378 0,-574z"/>
    <path class="fil3 str1" d="M8757 9129c0,40 24,85 67,103 -4,7 -7,13 -13,28 0,0 -44,97 -49,110 -5,11 -2,26 15,33 17,6 28,-2 34,-15 5,-13 64,-148 64,-148l70 0 0 140c0,13 8,25 27,25 18,0 26,-12 26,-25l0 -343c0,-14 -8,-26 -26,-26l-107 0c-70,0 -108,45 -108,102l0 16zm106 61c-38,0 -53,-27 -53,-61l0 -16c0,-30 15,-52 54,-52l81 0 0 129 -82 0zm507 209c10,0 21,0 29,-1l-32 55c-3,4 -4,9 -4,14 0,10 10,26 27,26 10,0 17,-6 22,-15l53 -91c2,-4 3,-8 3,-12 0,-18 -12,-25 -24,-25l-23 0 0 -319c0,-13 -8,-25 -26,-25 -19,0 -26,12 -26,25l0 319 -93 0 0 -319c0,-14 -9,-25 -25,-25 -16,0 -24,12 -24,25l0 319 -93 0 0 -319c0,-13 -8,-25 -27,-25 -17,0 -25,12 -25,25l0 343c0,13 8,25 25,25l263 0zm350 -19c0,13 8,25 25,25 19,0 26,-12 26,-25l0 -349c0,-13 -7,-25 -26,-25 -11,0 -18,4 -26,19l-148 264 -1 0c1,-10 2,-24 2,-39l0 -219c0,-13 -7,-25 -25,-25 -19,0 -26,12 -26,25l0 349c0,13 8,25 27,25 10,0 18,-4 26,-19l148 -264 1 0c-2,10 -3,23 -3,38l0 220zm383 -16l-119 -169 113 -147c10,-13 10,-27 -1,-37 -14,-12 -30,-6 -39,6l-117 158 -33 0 0 -144c0,-13 -8,-25 -25,-25 -19,0 -27,12 -27,25l0 349c0,13 8,25 27,25 17,0 25,-12 25,-25l0 -155 34 0 119 169c7,11 21,17 36,7 16,-11 15,-26 7,-37zm535 -122c0,15 2,30 3,40l-1 0 -125 -257c-7,-14 -15,-19 -26,-19 -19,0 -27,12 -27,25l0 349c0,13 8,25 26,25 18,0 25,-12 25,-25l0 -211c0,-15 -2,-31 -3,-41l1 0 125 258c7,13 16,19 26,19 19,0 27,-12 27,-25l0 -349c0,-13 -8,-25 -26,-25 -18,0 -25,12 -25,25l0 211zm140 -119c-17,0 -21,-10 -21,-25l0 -28c0,-15 4,-25 21,-25l8 0c17,0 21,10 21,25l0 28c0,15 -4,25 -21,25l-8 0zm9 37c38,0 56,-26 56,-59l0 -34c0,-34 -18,-59 -56,-59l-10 0c-38,0 -56,25 -56,59l0 34c0,33 18,59 56,59l10 0zm38 65c12,0 20,-5 20,-20 0,-14 -8,-20 -20,-20l-85 0c-12,0 -21,6 -21,20 0,15 9,20 21,20l85 0zm201 -219c-8,0 -15,4 -20,9 -27,30 -57,59 -89,89 -10,9 -14,21 -1,34 12,12 24,8 34,0 20,-17 40,-38 58,-59l0 271 -70 0c-14,0 -25,7 -25,25 0,17 11,24 25,24l180 0c14,0 25,-7 25,-24 0,-18 -11,-25 -25,-25l-58 0 0 -318c0,-15 -5,-26 -24,-26l-10 0z"/>
    <path class="fil4 str2" d="M9522 7761l52 168c7,23 28,37 53,28 24,-9 34,-32 27,-55l-186 -600c-7,-21 -18,-32 -44,-32l-4 0c-26,0 -37,11 -43,32l-187 600c-7,23 3,46 27,55 25,9 46,-5 54,-28l51 -168 200 0zm-114 -289c6,-21 9,-32 14,-55l1 0c4,23 7,34 13,55l63 209 -154 0 63 -209zm741 417l-198 -293 188 -254c16,-22 16,-46 -2,-63 -22,-21 -49,-10 -65,10l-193 273 -55 0 0 -248c0,-23 -13,-44 -43,-44 -31,0 -44,21 -44,44l0 602c0,23 13,44 44,44 30,0 43,-21 43,-44l0 -268 56 0 198 293c12,19 35,29 60,12 26,-19 24,-45 11,-64zm268 71c30,0 43,-21 43,-44l0 -551 135 0c21,0 40,-12 40,-43 0,-28 -19,-43 -40,-43l-356 0c-21,0 -40,15 -40,43 0,31 19,43 40,43l135 0 0 551c0,23 13,44 43,44z"/>
    <g>
     <path class="fil3" d="M7759 8744c-42,0 -76,-31 -76,-71 0,-39 34,-71 76,-71l0 142zm4705 0l-4705 0 0 -142 4705 0 0 142zm0 -142c42,0 76,32 76,71 0,40 -34,71 -76,71l0 -142z"/>
    </g>
    <g>
     <path class="fil3" d="M7813 12752c-36,0 -66,-32 -66,-71 0,-39 30,-71 66,-71l0 142zm2466 0l-2466 0 0 -142 2466 0 0 142zm0 -142c36,0 66,32 66,71 0,39 -30,71 -66,71l0 -142zm-2466 -1086c-36,0 -66,-32 -66,-72 0,-39 30,-71 66,-71l0 143zm3471 0l-3471 0 0 -143 3471 0 0 143zm0 -143c36,0 66,32 66,71 0,40 -30,72 -66,72l0 -143zm-3471 552c-36,0 -66,-32 -66,-71 0,-39 30,-71 66,-71l0 142zm4673 0l-4673 0 0 -142 4673 0 0 142zm0 -142c36,0 65,32 65,71 0,39 -29,71 -65,71l0 -142zm-4673 552c-36,0 -66,-32 -66,-72 0,-39 30,-71 66,-71l0 143zm4673 0l-4673 0 0 -143 4673 0 0 143zm0 -143c36,0 65,32 65,71 0,40 -29,72 -65,72l0 -143z"/>
    </g>
    <path class="fil5 str3" d="M13111 5884l0 8293c-2247,0 -3752,0 -5999,0l0 -8293 5999 0z"/>
    <path class="fil5 str4" d="M11302 12686c-508,1767 -161,765 -397,608 -236,-157 859,-758 787,-275 -72,483 -858,366 -837,468 22,102 329,172 422,-86 93,-257 -42,201 200,122 243,-79 343,-308 304,-179 -39,128 29,107 157,28 129,-78 276,-161 276,-161"/>
    <g>
     <path class="fil3" d="M7759 9390c-42,0 -76,-32 -76,-71 0,-39 34,-71 76,-71l0 142zm642 0l-642 0 0 -142 642 0 0 142zm0 -142c42,0 77,32 77,71 0,39 -35,71 -77,71l0 -142z"/>
    </g>
    <path class="fil6 str5" d="M7822 10561l58 0c8,0 15,3 20,9 6,5 9,12 9,19 0,7 -3,13 -7,20 -5,6 -13,9 -22,9l-58 0 0 87c0,9 -3,16 -8,21 -5,5 -12,7 -21,7 -7,0 -14,-2 -20,-7 -6,-5 -9,-12 -9,-21l0 -87 -174 0c-20,0 -30,-8 -30,-23l1 -7 2 -7 115 -406c2,-5 5,-11 10,-15l6 -3c3,-2 7,-3 11,-3 8,0 15,3 21,9 6,5 9,12 9,20l-1 8 -106 370 136 0 0 -87c0,-8 3,-15 9,-22 6,-5 13,-7 20,-7 7,0 14,2 20,7 6,5 9,12 9,22l0 87zm897 143c0,9 -3,17 -9,22 -5,5 -12,7 -20,7 -8,0 -15,-2 -20,-7 -6,-5 -9,-12 -9,-22l0 -409 -235 424c-3,5 -8,10 -13,13l-6 4c-2,1 -5,2 -9,2 -6,0 -12,-3 -19,-8 -5,-6 -8,-15 -8,-25l0 -521c0,-8 3,-15 9,-22 6,-5 13,-8 20,-8 8,0 14,3 20,8 6,5 9,12 9,22l0 409 235 -423c3,-5 7,-10 12,-14 6,-4 11,-6 16,-6 6,0 12,3 18,9 6,6 9,14 9,24l0 521zm290 -260l-87 0c-9,0 -16,-3 -22,-8 -5,-6 -7,-13 -7,-21 0,-7 2,-13 7,-19 6,-7 13,-10 22,-10l87 0c15,0 29,-5 40,-16 12,-11 17,-25 17,-42l0 -58c0,-16 -5,-30 -16,-41 -11,-12 -25,-17 -41,-17l-58 0c-13,0 -24,3 -34,11 -10,6 -17,16 -21,29 -1,5 -5,10 -10,14 -2,2 -4,4 -7,5l-10 1c-8,0 -15,-2 -21,-8 -6,-5 -9,-12 -9,-21l1 -10c8,-23 22,-42 42,-57 20,-14 43,-22 68,-22l58 0c33,0 60,12 82,34 23,23 34,50 34,82l0 58c0,17 -3,33 -10,48 -7,15 -17,28 -29,39 26,22 39,51 39,87l0 115c0,32 -11,59 -34,82 -22,23 -50,34 -82,34l-58 0c-24,0 -47,-7 -67,-21 -20,-15 -34,-34 -43,-58l-1 -11c0,-7 3,-14 9,-19 5,-6 13,-9 21,-9 12,0 20,6 26,19 4,12 11,22 21,31 12,7 23,11 35,11l58 0c15,0 29,-6 40,-16 12,-11 17,-25 17,-42l0 -116c0,-17 -4,-31 -13,-41 -10,-11 -25,-17 -44,-17zm288 0l0 232 174 0c16,0 30,-6 41,-16 11,-11 17,-25 17,-42l0 -116c0,-17 -5,-30 -16,-41 -11,-12 -25,-17 -42,-17l-174 0zm0 -58l174 0c31,0 58,11 81,34 23,22 35,50 35,82l0 116c0,31 -12,58 -34,81 -23,23 -50,34 -82,34l-203 0c-19,0 -28,-9 -28,-29l0 -521c0,-19 9,-29 28,-29l232 0c8,0 15,3 21,9 5,6 8,13 8,20 0,7 -2,13 -7,19 -5,7 -12,10 -22,10l-203 0 0 174zm753 318c0,9 -3,17 -9,22 -5,5 -12,7 -20,7 -8,0 -15,-2 -20,-7 -6,-5 -9,-12 -9,-22l0 -409 -235 424c-3,5 -7,10 -13,13l-6 4c-2,1 -5,2 -9,2 -5,0 -12,-3 -19,-8 -5,-6 -7,-15 -7,-25l0 -521c0,-8 2,-15 8,-22 6,-5 13,-8 20,-8 8,0 14,3 20,8 6,5 9,12 9,22l0 409 235 -423c3,-5 7,-10 12,-14 6,-4 11,-6 16,-6 6,0 12,3 18,9 6,6 9,14 9,24l0 521zm173 -260l174 0c16,0 30,-6 41,-16 11,-11 17,-25 17,-42l0 -116c0,-17 -5,-30 -16,-41 -11,-12 -25,-17 -42,-17l-174 0 0 232zm0 57l0 203c0,9 -3,17 -8,22 -5,5 -12,7 -21,7 -7,0 -14,-2 -20,-7 -6,-5 -8,-12 -8,-22l0 -521c0,-19 9,-29 28,-29l203 0c32,0 60,12 82,34 22,23 34,50 34,82l0 116c0,31 -12,58 -34,81 -23,23 -50,34 -82,34l-174 0zm449 88l-42 124c-2,7 -5,11 -10,15 -4,3 -9,4 -16,5 -8,0 -14,-2 -20,-8 -7,-5 -10,-12 -10,-20l2 -10 174 -521c6,-17 15,-25 28,-25 12,0 21,8 27,25l173 521 2 10c0,8 -3,14 -9,20 -6,6 -13,8 -20,8 -4,0 -9,-1 -14,-3 -4,-1 -9,-7 -13,-17l-42 -124 -210 0zm191 -60l-85 -255 -86 255 171 0zm258 -317l-116 0c-9,0 -16,-3 -22,-8 -5,-6 -7,-13 -7,-21 0,-7 2,-13 7,-19 5,-7 12,-10 22,-10l289 0c8,0 15,3 20,9 6,6 9,13 9,20 0,7 -2,13 -7,19 -5,7 -12,10 -22,10l-116 0 0 492c0,9 -3,17 -8,22 -5,5 -12,7 -21,7 -7,0 -14,-2 -20,-7 -6,-5 -8,-12 -8,-22l0 -492zm375 174l146 0c8,0 15,3 20,9 6,6 9,13 9,20 0,7 -2,13 -7,19 -5,7 -12,10 -22,10l-146 0 0 232 204 0c8,0 15,3 20,9 6,5 9,12 9,20 0,6 -2,13 -7,19 -5,6 -12,9 -22,9l-232 0c-20,0 -29,-9 -29,-27l0 -523c0,-19 9,-29 29,-29l232 0c8,0 15,3 20,9 6,6 9,13 9,20 0,7 -2,13 -7,19 -5,7 -12,10 -22,10l-204 0 0 174zm696 318c0,9 -3,17 -8,22 -6,5 -12,7 -21,7 -8,0 -14,-2 -20,-7 -6,-5 -9,-12 -9,-22l0 -492 -94 0 -139 500c-1,6 -4,11 -10,15 -5,4 -11,6 -17,6 -9,0 -16,-2 -21,-7 -6,-5 -9,-12 -9,-20 0,-5 1,-7 1,-9l145 -521c4,-15 14,-22 28,-22l145 0c19,0 29,10 29,29l0 521zm404 -260l0 -232 -174 0c-16,0 -30,5 -41,16 -6,6 -10,12 -12,19 -3,7 -5,15 -5,23l0 116c0,16 6,30 17,41 6,5 12,9 19,13 8,2 16,4 22,4l174 0zm-99 57l-137 219c-6,9 -13,13 -23,13 -7,0 -14,-3 -20,-9 -7,-6 -10,-12 -10,-20 0,-6 1,-11 4,-16l117 -187 -5 0c-32,0 -59,-11 -82,-33 -23,-23 -34,-50 -34,-82l0 -116c0,-32 11,-60 34,-82 22,-22 49,-34 82,-34l202 0c19,0 29,10 29,29l0 521c0,9 -3,17 -8,22 -5,5 -12,7 -21,7 -7,0 -14,-2 -20,-7 -6,-5 -9,-12 -9,-22l0 -203 -99 0z"/>
   </g>
  </g>
 </g>
</svg>
