<?xml version="1.0" encoding="UTF-8"?>
<!DOCTYPE svg PUBLIC "-//W3C//DTD SVG 1.0//EN" "http://www.w3.org/TR/2001/REC-SVG-20010904/DTD/svg10.dtd">
<!-- Creator: CorelDRAW X7 -->
<svg xmlns="http://www.w3.org/2000/svg" xml:space="preserve" width="200mm" height="200mm" version="1.0" style="shape-rendering:geometricPrecision; text-rendering:geometricPrecision; image-rendering:optimizeQuality; fill-rule:evenodd; clip-rule:evenodd"
viewBox="0 0 20000 20000"
 xmlns:xlink="http://www.w3.org/1999/xlink">
 <defs>
  <style type="text/css">
   <![CDATA[
    .str0 {stroke:#024541;stroke-width:25}
    .str1 {stroke:#2B2A29;stroke-width:20}
    .str3 {stroke:#2B2A29;stroke-width:20}
    .str2 {stroke:#4D897C;stroke-width:20}
    .fil2 {fill:none}
    .fil3 {fill:#4D897C}
    .fil1 {fill:#024541}
    .fil4 {fill:#2B2926}
    .fil0 {fill:url(#id0)}
   ]]>
  </style>
  <radialGradient id="id0" gradientUnits="userSpaceOnUse" gradientTransform="matrix(1.41421 -0 -0 1.41421 -4143 -4146)" cx="10002.3" cy="10010.5" r="10000" fx="10002.3" fy="10010.5">
   <stop offset="0" style="stop-opacity:1; stop-color:#FEFEFE"/>
   <stop offset="0.431373" style="stop-opacity:1; stop-color:#FEFEFE"/>
   <stop offset="1" style="stop-opacity:1; stop-color:#D1E2F2"/>
  </radialGradient>
 </defs>
 <g id="Layer_x0020_1">
  <metadata id="CorelCorpID_0Corel-Layer"/>
  <path class="fil0" d="M2 10l20000 0 0 20000 -20000 0 0 -20000z"/>
  <g id="_933035585696">
   <g>
    <path class="fil1 str0" d="M3065 3435l-77 0c-6,0 -11,-2 -14,-5 -4,-4 -5,-9 -5,-14 0,-5 1,-9 4,-13 4,-4 8,-6 15,-6l193 0c5,0 10,2 13,6 4,3 6,8 6,13 0,4 -2,9 -5,13 -3,4 -8,6 -14,6l-78 0 0 328c0,7 -1,11 -5,15 -3,3 -8,5 -14,5 -5,0 -9,-2 -13,-5 -4,-3 -6,-8 -6,-15l0 -328zm224 251l-28 84c-2,4 -4,7 -7,9 -3,2 -6,3 -11,4 -5,0 -9,-2 -13,-6 -5,-3 -7,-7 -7,-13l2 -7 116 -347c4,-11 10,-17 18,-17 8,0 14,6 18,17l116 347 1 7c0,5 -2,9 -6,13 -4,4 -9,6 -14,6 -2,0 -5,-1 -9,-2 -3,-1 -6,-5 -9,-11l-27 -84 -140 0zm127 -39l-57 -170 -57 170 114 0zm211 -57l0 154 116 0c11,0 20,-3 28,-10 7,-8 11,-17 11,-28l0 -78c0,-11 -4,-20 -11,-27 -7,-8 -16,-11 -28,-11l-116 0zm0 -39l116 0c21,0 39,8 55,23 15,15 22,33 22,54l0 78c0,21 -7,39 -22,54 -15,15 -33,23 -55,23l-135 0c-13,0 -19,-7 -19,-20l0 -347c0,-13 6,-19 19,-19l155 0c5,0 10,2 13,6 4,3 6,8 6,13 0,4 -2,9 -5,13 -3,4 -8,6 -14,6l-136 0 0 116zm506 212c0,7 -2,11 -5,15 -4,3 -8,5 -14,5 -5,0 -10,-2 -14,-5 -3,-3 -5,-8 -5,-15l0 -328 -63 0 -93 333c0,4 -3,8 -6,11 -4,2 -8,4 -12,4 -6,0 -11,-2 -14,-5 -4,-3 -6,-8 -6,-14 0,-2 1,-4 1,-6l97 -347c2,-10 9,-14 18,-14l97 0c13,0 19,6 19,19l0 347zm329 0c0,7 -2,11 -5,15 -4,3 -9,5 -14,5 -5,0 -10,-2 -14,-5 -4,-3 -5,-8 -5,-15l0 -272 -157 282c-2,4 -5,7 -9,9l-4 3c-1,0 -3,1 -6,1 -3,0 -8,-2 -12,-6 -4,-4 -5,-9 -5,-16l0 -348c0,-5 1,-10 5,-14 4,-3 9,-5 14,-5 5,0 9,2 13,5 4,3 6,8 6,14l0 273 157 -282c1,-3 4,-6 8,-9 3,-3 7,-4 10,-4 5,0 8,2 12,6 4,4 6,9 6,16l0 347zm291 -19l0 -328c0,-5 2,-10 6,-14 4,-4 8,-5 13,-5 5,0 10,1 14,4 4,4 5,9 5,15l0 328 20 0c13,0 19,7 19,20l0 58c0,5 -2,9 -5,13 -4,4 -9,6 -14,6 -4,0 -8,-2 -13,-5 -4,-3 -6,-8 -6,-14l0 -39 -213 0c-12,0 -19,-7 -19,-20l0 -347c0,-5 2,-10 6,-14 4,-4 8,-5 13,-5 5,0 10,1 14,4 3,4 5,9 5,15l0 328 155 0zm243 -58l-28 84c-1,4 -4,7 -7,9 -3,2 -6,3 -11,4 -5,0 -9,-2 -13,-6 -4,-3 -6,-7 -6,-13l1 -7 116 -347c4,-11 10,-17 18,-17 8,0 14,6 18,17l116 347 1 7c0,5 -2,9 -6,13 -4,4 -9,6 -14,6 -2,0 -5,-1 -8,-2 -4,-1 -7,-5 -9,-11l-28 -84 -140 0zm127 -39l-57 -170 -57 170 114 0zm615 116c0,7 -2,11 -5,15 -4,3 -8,5 -14,5 -5,0 -10,-2 -13,-5 -4,-3 -6,-8 -6,-15l0 -328 -155 0 0 328c0,7 -2,11 -5,15 -4,3 -8,5 -14,5 -5,0 -10,-2 -13,-5 -4,-3 -6,-8 -6,-15l0 -347c0,-13 6,-19 19,-19l193 0c13,0 19,6 19,19l0 347zm330 -57c0,21 -8,39 -23,54 -15,15 -33,23 -54,23l-78 0c-20,0 -39,-8 -54,-23 -15,-15 -23,-33 -23,-54l0 -232c0,-22 8,-40 23,-55 15,-15 33,-22 54,-22l78 0c21,0 39,7 54,22 15,15 23,34 23,55l0 232zm-39 0l0 -232c0,-11 -3,-20 -11,-28 -7,-7 -16,-11 -27,-11l-78 0c-10,0 -20,4 -27,11 -4,4 -7,8 -9,13 -1,4 -2,9 -2,15l0 232c0,11 3,20 11,27 4,4 8,6 12,9 6,1 11,2 15,2l78 0c10,0 19,-3 27,-10 8,-8 11,-17 11,-28zm188 38l36 -330c0,-12 7,-17 20,-17l115 0c13,0 20,6 20,19l0 328 19 0c13,0 20,7 20,20l0 38c0,5 -2,10 -6,14 -4,3 -9,5 -14,5 -4,0 -8,-1 -12,-5 -5,-3 -7,-8 -7,-14l0 -19 -193 0 0 19c0,5 -2,10 -6,14 -4,3 -9,5 -14,5 -4,0 -8,-1 -12,-5 -5,-3 -7,-8 -7,-14l0 -38c0,-13 7,-20 20,-20l21 0zm152 0l0 -309 -79 0 -35 309 114 0zm330 39l-97 0c-21,0 -39,-8 -54,-23 -16,-15 -23,-33 -23,-54l0 -232c0,-22 7,-40 22,-55 15,-15 33,-22 55,-22l97 0c5,0 10,2 13,6 4,3 6,8 6,13 0,4 -2,9 -5,13 -3,4 -8,6 -14,6l-97 0c-11,0 -20,4 -28,11 -4,4 -6,8 -8,13 -2,4 -3,9 -3,15l0 232c0,11 4,20 11,27 4,4 8,6 13,9 5,1 10,2 15,2l97 0c5,0 10,2 13,6 4,4 6,9 6,14 0,4 -2,8 -5,12 -3,5 -8,7 -14,7zm310 -193l0 -174c0,-5 2,-10 5,-14 4,-4 9,-5 14,-5 5,0 9,1 13,4 4,4 6,9 6,15l0 347c0,7 -2,11 -5,15 -4,3 -8,5 -14,5 -5,0 -10,-2 -14,-5 -3,-3 -5,-8 -5,-15l0 -135 -116 0c-21,0 -39,-7 -54,-22 -16,-15 -23,-34 -23,-55l0 -135c0,-5 2,-10 5,-14 4,-4 9,-5 14,-5 5,0 9,1 13,4 4,4 6,9 6,15l0 135c0,11 4,20 11,28 4,3 8,6 13,8 5,2 10,3 15,3l116 0zm175 -39l97 0c5,0 10,2 13,6 4,4 6,9 6,14 0,4 -2,8 -5,13 -3,4 -8,6 -14,6l-97 0 0 154 135 0c6,0 10,2 14,6 4,4 6,9 6,14 0,4 -2,9 -5,13 -3,4 -8,6 -15,6l-155 0c-12,0 -19,-6 -19,-18l0 -349c0,-13 7,-19 19,-19l155 0c6,0 10,2 14,6 4,3 6,8 6,13 0,4 -2,9 -5,13 -3,4 -8,6 -15,6l-135 0 0 116zm349 -116l-78 0c-5,0 -10,-2 -14,-5 -3,-4 -5,-9 -5,-14 0,-5 2,-9 5,-13 3,-4 8,-6 14,-6l193 0c6,0 10,2 14,6 4,3 6,8 6,13 0,4 -2,9 -5,13 -3,4 -8,6 -15,6l-77 0 0 328c0,7 -2,11 -5,15 -4,3 -9,5 -14,5 -5,0 -10,-2 -14,-5 -3,-3 -5,-8 -5,-15l0 -328zm223 251l-28 84c-1,4 -4,7 -7,9 -2,2 -6,3 -10,4 -5,0 -10,-2 -14,-6 -4,-3 -6,-7 -6,-13l1 -7 116 -347c4,-11 10,-17 18,-17 9,0 15,6 19,17l115 347 2 7c0,5 -3,9 -7,13 -4,4 -8,6 -13,6 -3,0 -6,-1 -9,-2 -3,-1 -6,-5 -9,-11l-28 -84 -140 0zm127 -39l-57 -170 -57 170 114 0zm558 -212l-135 0 0 328c0,7 -2,11 -6,15 -3,3 -8,5 -14,5 -5,0 -9,-2 -13,-5 -4,-3 -6,-8 -6,-15l0 -347c0,-13 7,-19 19,-19l155 0c5,0 10,2 14,6 3,3 5,8 5,13 0,4 -1,9 -4,13 -4,4 -9,6 -15,6zm329 271c0,21 -8,39 -23,54 -15,15 -33,23 -54,23l-77 0c-21,0 -39,-8 -55,-23 -15,-15 -22,-33 -22,-54l0 -232c0,-22 7,-40 22,-55 15,-15 33,-22 55,-22l77 0c21,0 40,7 54,22 15,15 23,34 23,55l0 232zm-38 0l0 -232c0,-11 -4,-20 -11,-28 -8,-7 -17,-11 -28,-11l-77 0c-11,0 -20,4 -28,11 -4,4 -6,8 -8,13 -2,4 -3,9 -3,15l0 232c0,11 4,20 11,27 4,4 8,6 12,9 6,1 11,2 16,2l77 0c11,0 20,-3 27,-10 8,-8 12,-17 12,-28zm360 57c0,7 -1,11 -5,15 -4,3 -8,5 -14,5 -5,0 -9,-2 -13,-5 -4,-3 -6,-8 -6,-15l0 -328 -63 0 -93 333c0,4 -2,8 -6,11 -4,2 -8,4 -12,4 -6,0 -10,-2 -14,-5 -4,-3 -5,-8 -5,-14 0,-2 0,-4 0,-6l97 -347c3,-10 9,-14 18,-14l97 0c13,0 19,6 19,19l0 347zm329 -57c0,21 -7,39 -22,54 -15,15 -34,23 -55,23l-77 0c-21,0 -39,-8 -54,-23 -16,-15 -23,-33 -23,-54l0 -232c0,-22 7,-40 22,-55 15,-15 33,-22 55,-22l77 0c22,0 40,7 55,22 15,15 22,34 22,55l0 232zm-38 0l0 -232c0,-11 -4,-20 -11,-28 -7,-7 -17,-11 -28,-11l-77 0c-11,0 -20,4 -28,11 -3,4 -6,8 -8,13 -2,4 -3,9 -3,15l0 232c0,11 4,20 11,27 4,4 8,6 13,9 5,1 10,2 15,2l77 0c11,0 20,-3 28,-10 7,-8 11,-17 11,-28zm341 77l-97 0c-21,0 -39,-8 -54,-23 -15,-15 -23,-33 -23,-54l0 -232c0,-22 8,-40 23,-55 15,-15 33,-22 54,-22l97 0c5,0 10,2 14,6 3,3 5,8 5,13 0,4 -1,9 -5,13 -3,4 -8,6 -14,6l-97 0c-11,0 -20,4 -27,11 -4,4 -7,8 -9,13 -2,4 -2,9 -2,15l0 232c0,11 3,20 11,27 3,4 8,6 12,9 6,1 11,2 15,2l97 0c5,0 10,2 14,6 3,4 5,9 5,14 0,4 -1,8 -5,12 -3,5 -8,7 -14,7zm331 -77c0,21 -7,39 -22,54 -16,15 -34,23 -55,23l-77 0c-21,0 -39,-8 -54,-23 -16,-15 -23,-33 -23,-54l0 -232c0,-22 7,-40 22,-55 15,-15 33,-22 55,-22l77 0c21,0 40,7 55,22 15,15 22,34 22,55l0 232zm-38 0l0 -232c0,-11 -4,-20 -11,-28 -7,-7 -17,-11 -28,-11l-77 0c-11,0 -20,4 -28,11 -4,4 -6,8 -8,13 -2,4 -3,9 -3,15l0 232c0,11 4,20 11,27 4,4 8,6 13,9 5,1 10,2 15,2l77 0c11,0 20,-3 27,-10 8,-8 12,-17 12,-28zm362 -144c11,7 20,16 26,28 7,12 10,25 10,38l0 78c0,21 -7,39 -22,54 -15,15 -33,23 -55,23l-135 0c-13,0 -19,-7 -19,-20l0 -347c0,-13 6,-19 19,-19l116 0c22,0 40,7 55,22 15,15 22,34 22,55l0 38c0,9 -1,18 -4,26 -3,8 -7,17 -13,24zm-157 28l0 154 116 0c11,0 20,-3 28,-10 7,-8 11,-17 11,-28l0 -78c0,-11 -4,-20 -11,-27 -7,-8 -16,-11 -28,-11l-116 0zm97 -39c11,0 20,-3 28,-11 7,-7 11,-16 11,-28l0 -38c0,-11 -4,-20 -11,-28 -7,-7 -17,-11 -28,-11l-97 0 0 116 97 0zm-6887 830c0,6 -2,11 -6,15 -3,3 -8,4 -14,4 -5,0 -9,-1 -13,-4 -4,-4 -6,-9 -6,-15l0 -328 -155 0 0 328c0,6 -1,11 -5,15 -3,3 -8,4 -14,4 -5,0 -9,-1 -13,-4 -4,-4 -6,-9 -6,-15l0 -347c0,-13 6,-20 19,-20l193 0c13,0 20,7 20,20l0 347zm165 -77l-28 83c-1,4 -3,7 -7,10 -2,2 -6,3 -10,3 -5,0 -10,-2 -14,-5 -4,-3 -6,-8 -6,-13l1 -7 116 -348c4,-11 10,-16 19,-16 8,0 14,5 18,16l115 348 2 7c0,5 -2,9 -7,13 -4,4 -8,5 -13,5 -3,0 -6,0 -9,-2 -3,-1 -6,-5 -9,-11l-28 -83 -140 0zm127 -40l-56 -170 -57 170 113 0zm309 -57l0 -173c0,-6 1,-10 5,-15 4,-3 9,-5 14,-5 5,0 9,2 13,5 4,3 6,8 6,15l0 347c0,6 -2,11 -6,15 -3,3 -8,4 -13,4 -5,0 -10,-1 -14,-4 -4,-4 -5,-9 -5,-15l0 -135 -116 0c-21,0 -39,-8 -55,-23 -15,-15 -22,-33 -22,-54l0 -135c0,-6 1,-10 5,-15 4,-3 9,-5 14,-5 5,0 9,2 13,5 4,3 6,8 6,15l0 135c0,11 4,20 11,27 4,4 8,6 12,9 6,1 11,2 16,2l116 0zm174 -26l163 -161c4,-4 8,-6 13,-6 5,0 10,2 14,6 4,4 6,9 6,14 0,3 -2,8 -6,13l-115 115 119 209 2 11c0,5 -2,9 -6,13 -4,3 -8,5 -14,5 -6,0 -12,-3 -16,-10l-114 -201 -46 45 0 147c0,6 -1,11 -5,15 -4,3 -8,4 -14,4 -5,0 -9,-1 -13,-4 -4,-4 -6,-9 -6,-15l0 -348c0,-5 2,-9 6,-13 4,-4 8,-6 13,-6 5,0 10,2 14,5 3,3 5,8 5,14l0 148zm359 123l-28 83c-1,4 -3,7 -7,10 -2,2 -6,3 -10,3 -5,0 -10,-2 -14,-5 -4,-3 -6,-8 -6,-13l1 -7 116 -348c4,-11 10,-16 18,-16 9,0 15,5 19,16l115 348 2 7c0,5 -3,9 -7,13 -4,4 -8,5 -13,5 -3,0 -6,0 -9,-2 -3,-1 -6,-5 -9,-11l-28 -83 -140 0zm127 -40l-57 -170 -57 170 114 0zm770 -115c0,17 -6,32 -18,44 -11,9 -24,14 -40,14 -15,0 -28,-4 -39,-14 -12,-11 -18,-25 -18,-44l0 -77c0,-17 6,-32 18,-44 11,-9 24,-14 39,-14 16,0 29,5 40,14 12,11 18,25 18,44l0 77zm-154 232c0,5 -2,10 -6,14 -4,4 -8,5 -13,5 -8,0 -14,-3 -18,-10l-156 -282 0 273c0,6 -2,11 -6,15 -3,3 -8,4 -14,4 -5,0 -9,-1 -13,-4 -4,-4 -6,-9 -6,-15l0 -347c0,-6 2,-10 6,-15 4,-3 8,-5 14,-5 7,0 13,4 17,10l156 283 0 -273c0,-6 2,-10 6,-15 4,-3 8,-5 13,-5 5,0 10,2 14,5 4,3 6,8 6,15l0 347zm116 -232l0 -77c0,-6 -2,-11 -6,-15 -4,-3 -9,-4 -14,-4 -4,0 -9,1 -13,5 -4,3 -6,7 -6,14l0 77c0,7 2,11 5,15 4,3 9,5 14,5 5,0 9,-2 14,-5 4,-3 6,-8 6,-15zm462 232c0,6 -1,11 -5,15 -3,3 -8,4 -14,4 -5,0 -9,-1 -13,-4 -4,-4 -6,-9 -6,-15l0 -301 -44 44c-4,4 -9,6 -13,6 -5,0 -10,-2 -14,-6 -4,-4 -6,-8 -6,-13 0,-5 2,-9 6,-14l77 -77c2,-3 5,-5 8,-6 2,-2 5,-3 9,-3 3,0 7,2 11,6 3,4 4,10 4,16l0 348zm404 52c2,4 2,7 2,10 0,5 -2,9 -6,13 -4,3 -9,5 -14,5 -6,0 -11,-3 -16,-10 -17,-32 -32,-68 -43,-108 -4,-17 -8,-35 -11,-56 -2,-21 -4,-40 -4,-59 0,-78 19,-152 58,-223 1,-3 4,-5 7,-7 3,-2 6,-3 9,-3 6,0 11,2 15,5 4,4 5,8 5,14 0,3 0,6 -2,10 -5,7 -8,15 -12,22 -4,8 -7,15 -10,23 -3,8 -7,17 -9,26 -3,8 -6,17 -9,27 -9,36 -14,71 -14,106 0,73 18,141 54,205zm215 -52c0,6 -1,11 -5,15 -4,3 -8,4 -14,4 -5,0 -9,-1 -13,-4 -4,-4 -6,-9 -6,-15l0 -301 -44 44c-4,4 -9,6 -14,6 -4,0 -9,-2 -13,-6 -4,-4 -6,-8 -6,-13 0,-5 2,-9 6,-14l77 -77c2,-3 5,-5 8,-6 2,-2 5,-3 9,-3 3,0 7,2 11,6 3,4 4,10 4,16l0 348zm292 -66c0,23 -9,43 -25,60 -17,17 -37,25 -60,25l-24 0c-23,0 -42,-8 -59,-24 -17,-17 -26,-37 -26,-61l0 -216c0,-22 9,-42 25,-59 17,-17 37,-26 60,-26l24 0c23,0 42,8 59,25 17,16 26,37 26,60l0 216zm-39 1l0 -217c0,-13 -4,-24 -13,-33 -9,-9 -20,-13 -33,-13l-24 0c-12,0 -23,4 -32,13 -10,9 -14,20 -14,33l0 217c0,12 4,23 13,32 9,9 20,14 33,14l24 0c12,0 23,-4 32,-13 10,-9 14,-20 14,-33zm385 -109l0 155 116 0c11,0 20,-4 28,-11 7,-7 11,-16 11,-28l0 -77c0,-11 -4,-20 -11,-27 -7,-8 -16,-12 -28,-12l-116 0zm0 -38l116 0c21,0 39,7 55,22 15,15 22,34 22,55l0 77c0,21 -7,39 -22,55 -15,15 -33,22 -55,22l-135 0c-13,0 -19,-6 -19,-19l0 -347c0,-13 6,-20 19,-20l155 0c5,0 10,2 13,6 4,4 6,9 6,13 0,5 -2,9 -5,13 -3,5 -8,7 -14,7l-136 0 0 116z"/>
    <path class="fil1 str0" d="M7668 4323l0 -232c0,-11 -4,-20 -11,-27 -8,-8 -17,-11 -28,-11l-39 0c-11,0 -20,3 -28,11 -3,3 -6,8 -8,12 -2,5 -3,10 -3,15l0 232c0,11 4,20 11,28 4,3 8,6 13,8 5,2 10,3 15,3l39 0c11,0 20,-4 27,-11 8,-7 12,-16 12,-28zm-194 -154l39 0 0 -77c0,-22 7,-40 22,-55 15,-15 34,-23 55,-23l39 0c21,0 39,8 54,23 15,15 23,33 23,55l0 231c0,21 -8,39 -23,55 -15,15 -33,22 -54,22l-39 0c-21,0 -39,-7 -54,-22 -15,-15 -23,-33 -23,-55l0 -116 -39 0 0 174c0,6 -2,11 -6,15 -3,3 -8,4 -13,4 -5,0 -10,-1 -14,-4 -4,-4 -5,-9 -5,-15l0 -347c0,-6 1,-10 5,-15 4,-3 9,-5 14,-5 5,0 9,2 13,5 4,3 6,8 6,15l0 135zm523 212c0,6 -2,11 -5,15 -4,3 -9,4 -14,4 -5,0 -10,-1 -14,-4 -3,-4 -5,-9 -5,-15l0 -328 -63 0 -93 333c0,4 -3,7 -6,10 -4,3 -8,4 -12,4 -6,0 -11,-1 -14,-4 -4,-4 -6,-8 -6,-14 0,-3 1,-5 1,-6l97 -347c2,-10 9,-15 18,-15l97 0c13,0 19,7 19,20l0 347zm330 0c0,6 -2,11 -6,15 -3,3 -8,4 -14,4 -5,0 -9,-1 -13,-4 -4,-4 -6,-9 -6,-15l0 -328 -63 0 -92 333c-1,4 -3,7 -7,10 -3,3 -7,4 -12,4 -5,0 -10,-1 -14,-4 -3,-4 -5,-8 -5,-14 0,-3 0,-5 1,-6l96 -347c3,-10 9,-15 19,-15l96 0c13,0 20,7 20,20l0 347zm135 -212l98 0c5,0 9,2 13,6 4,4 6,8 6,13 0,5 -2,9 -5,13 -3,4 -8,6 -14,6l-98 0 0 155 136 0c5,0 10,2 14,6 4,4 5,8 5,13 0,5 -1,9 -4,13 -4,4 -8,6 -15,6l-155 0c-13,0 -19,-6 -19,-18l0 -348c0,-13 6,-20 19,-20l155 0c5,0 10,2 14,6 4,4 5,9 5,13 0,5 -1,9 -4,13 -4,5 -8,7 -15,7l-136 0 0 116zm349 -116l-77 0c-6,0 -10,-2 -14,-6 -3,-4 -5,-8 -5,-14 0,-4 2,-8 5,-12 3,-5 8,-7 14,-7l193 0c5,0 10,2 14,6 3,4 5,9 5,13 0,5 -1,9 -4,13 -4,5 -9,7 -15,7l-77 0 0 328c0,6 -2,11 -6,15 -3,3 -8,4 -13,4 -5,0 -10,-1 -14,-4 -4,-4 -6,-9 -6,-15l0 -328zm272 116l97 0c5,0 10,2 14,6 3,4 5,8 5,13 0,5 -1,9 -5,13 -3,4 -8,6 -14,6l-97 0 0 155 135 0c6,0 10,2 14,6 4,4 6,8 6,13 0,5 -2,9 -5,13 -3,4 -8,6 -14,6l-155 0c-13,0 -20,-6 -20,-18l0 -348c0,-13 7,-20 20,-20l155 0c5,0 9,2 13,6 4,4 6,9 6,13 0,5 -2,9 -5,13 -3,5 -8,7 -15,7l-135 0 0 116zm445 0l0 -136c0,-5 2,-9 6,-13 4,-4 9,-6 14,-6 4,0 9,2 13,5 4,3 6,8 6,15l0 347c0,5 -2,10 -6,14 -5,4 -9,5 -14,5 -4,0 -9,-1 -13,-4 -4,-3 -6,-8 -6,-15l0 -174 -154 0 0 174c0,6 -2,11 -6,15 -3,3 -8,4 -13,4 -6,0 -10,-1 -14,-4 -4,-4 -6,-9 -6,-15l0 -347c0,-5 2,-10 6,-15 4,-3 8,-5 14,-5 4,0 9,2 13,5 4,4 6,8 6,15l0 135 154 0zm175 0l97 0c6,0 10,2 14,6 4,4 6,8 6,13 0,5 -2,9 -5,13 -3,4 -8,6 -15,6l-97 0 0 155 136 0c5,0 10,2 14,6 3,4 5,8 5,13 0,5 -1,9 -5,13 -3,4 -8,6 -14,6l-155 0c-13,0 -19,-6 -19,-18l0 -348c0,-13 6,-20 19,-20l155 0c5,0 10,2 14,6 3,4 5,9 5,13 0,5 -1,9 -5,13 -3,5 -8,7 -14,7l-136 0 0 116zm407 -193l-77 0c-6,0 -11,-2 -14,-5 -4,-5 -5,-9 -5,-14 0,-5 1,-9 5,-13 3,-4 8,-6 14,-6l77 0c5,0 10,1 14,5 4,4 5,9 5,14 0,4 -1,8 -4,13 -4,4 -8,6 -15,6zm77 405c0,6 -2,11 -5,15 -4,3 -8,4 -14,4 -5,0 -10,-1 -13,-4 -4,-4 -6,-9 -6,-15l0 -273 -157 282c-2,4 -5,7 -8,10l-5 2c-1,1 -3,1 -6,2 -3,0 -7,-2 -12,-6 -4,-4 -5,-10 -5,-17l0 -347c0,-5 2,-10 6,-15 3,-3 8,-5 13,-5 5,0 9,2 13,5 4,4 6,8 6,15l0 273 157 -282c2,-3 4,-7 8,-10 4,-2 7,-4 11,-4 4,0 8,3 11,7 4,4 6,9 6,16l0 347zm132 70c-1,3 -3,5 -7,8l-4 1 -5 1c-5,0 -10,-1 -14,-5 -4,-4 -6,-8 -6,-13 0,-3 1,-6 2,-10 17,-30 30,-63 40,-100 9,-36 14,-70 14,-105 0,-20 -1,-38 -3,-54 -2,-16 -5,-33 -10,-51l-8 -25 -3 -12 -5 -13c-6,-15 -14,-32 -25,-49l-2 -10c0,-5 2,-9 6,-13 4,-4 9,-6 14,-6 7,0 12,3 16,10 10,18 18,35 24,51 7,17 13,36 19,58 4,16 8,35 11,55 3,21 4,41 4,59 0,22 -1,42 -3,60 -2,18 -6,37 -11,55 -9,38 -24,74 -44,108z"/>
   </g>
   <g>
    <path class="fil2 str1" d="M3630 16033l0 -10 0 -1870 0 -1869 0 -1870 0 -1869 0 -1870 0 -1869 0 -10"/>
    <path class="fil2 str1" d="M7050 16033l0 -10 0 -935 0 -935 0 -935 0 -934 0 -935 0 -935 0 -934 0 -935 0 -935 0 -935 0 -934 0 -935 0 -10"/>
    <path class="fil2 str1" d="M7051 16033l0 -10 0 -935 0 -935 0 -935 0 -934 0 -935 0 -935 0 -934 0 -935 0 -935 0 -935 0 -934 0 -935 0 -10"/>
    <path class="fil2 str1" d="M8761 16033l0 -10 0 -935 0 -935 0 -935 0 -934 0 -935 0 -935 0 -934 0 -935 0 -935 0 -935 0 -10"/>
    <path class="fil2 str1" d="M10471 16033l0 -10 0 -935 0 -935 0 -935 0 -934 0 -935 0 -935 0 -934 0 -935 0 -935 0 -935 0 -10"/>
    <path class="fil2 str1" d="M12181 16033l0 -10 0 -935 0 -935 0 -935 0 -934 0 -935 0 -935 0 -934 0 -935 0 -935 0 -935 0 -10"/>
    <path class="fil2 str1" d="M13891 16033l0 -10 0 -935 0 -935 0 -935 0 -934 0 -935 0 -935 0 -934 0 -935 0 -935 0 -935 0 -10"/>
    <path class="fil2 str1" d="M15601 16033l0 -10 0 -935 0 -935 0 -935 0 -934 0 -935 0 -935 0 -934 0 -935 0 -935 0 -935 0 -1869 0 -10"/>
    <path class="fil2 str1" d="M3620 16023l10 0 3420 0 1 0 1710 0 1710 0 1710 0 1710 0 1710 0 10 0"/>
    <path class="fil2 str1" d="M7040 15088l10 0 1 0 1710 0 1710 0 1710 0 1710 0 1710 0 10 0"/>
    <path class="fil2 str1" d="M3620 14153l10 0 3420 0 1 0 1710 0 1710 0 1710 0 1710 0 1710 0 10 0"/>
    <path class="fil2 str1" d="M7040 13218l10 0 1 0 1710 0 1710 0 1710 0 1710 0 1710 0 10 0"/>
    <path class="fil2 str1" d="M3620 12284l10 0 3420 0 1 0 1710 0 1710 0 1710 0 1710 0 1710 0 10 0"/>
    <path class="fil2 str1" d="M7040 11349l10 0 1 0 1710 0 1710 0 1710 0 1710 0 1710 0 10 0"/>
    <path class="fil2 str1" d="M3620 10414l10 0 3420 0 1 0 1710 0 1710 0 1710 0 1710 0 1710 0 10 0"/>
    <path class="fil2 str1" d="M7040 9480l10 0 1 0 1710 0 1710 0 1710 0 1710 0 1710 0 10 0"/>
    <path class="fil2 str1" d="M3620 8545l10 0 3420 0 1 0 1710 0 1710 0 1710 0 1710 0 1710 0 10 0"/>
    <path class="fil2 str1" d="M7040 7610l10 0 1 0 1710 0 1710 0 1710 0 1710 0 1710 0 10 0"/>
    <path class="fil2 str1" d="M3620 6675l10 0 3420 0 1 0 1710 0 1710 0 1710 0 1710 0 1710 0 10 0"/>
    <path class="fil2 str1" d="M7040 5741l10 0 1 0 10 0"/>
    <path class="fil2 str1" d="M3620 4806l10 0 3420 0 1 0 8550 0 10 0"/>
   </g>
   <path class="fil3 str2" d="M4312 7581l122 -121c3,-2 6,-4 10,-4 3,0 7,2 10,5 3,3 5,6 5,10 0,3 -2,6 -5,10l-86 86 89 157 2 8c0,4 -2,7 -5,10 -3,3 -6,4 -10,4 -5,0 -9,-3 -13,-8l-85 -151 -34 34 0 111c0,4 -1,8 -4,10 -3,3 -6,4 -11,4 -3,0 -7,-1 -10,-4 -3,-2 -4,-6 -4,-11l0 -260c0,-4 2,-7 5,-10 2,-3 6,-5 9,-5 4,0 8,2 11,4 2,2 4,6 4,10l0 111zm253 93l-21 62c-1,3 -2,6 -5,8 -2,1 -4,2 -8,2 -4,0 -7,-1 -10,-4 -3,-3 -5,-6 -5,-10l1 -5 87 -261c3,-8 8,-12 14,-12 6,0 11,4 14,12l86 261 1 5c0,4 -1,7 -4,10 -3,3 -7,4 -11,4 -1,0 -4,0 -6,-1 -2,-1 -5,-4 -7,-9l-21 -62 -105 0zm96 -30l-43 -127 -43 127 86 0zm259 -72l0 -101c0,-4 1,-7 4,-10 3,-3 6,-5 10,-5 4,0 7,2 10,4 3,2 5,6 5,11l0 260c0,4 -2,8 -5,11 -3,3 -7,4 -10,4 -4,0 -7,-1 -10,-4 -3,-2 -4,-5 -4,-10l0 -131 -116 0 0 131c0,4 -2,8 -4,10 -3,3 -6,4 -11,4 -3,0 -7,-1 -10,-4 -3,-2 -4,-6 -4,-10l0 -261c0,-4 1,-7 4,-11 3,-2 7,-3 10,-3 4,0 7,1 10,3 3,3 5,6 5,11l0 101 116 0zm117 145l27 -248c0,-8 5,-13 15,-13l87 0c9,0 14,5 14,15l0 246 15 0c9,0 14,5 14,15l0 28c0,4 -1,8 -4,11 -3,2 -6,4 -10,4 -3,0 -7,-1 -10,-4 -3,-2 -5,-6 -5,-11l0 -14 -145 0 0 14c0,4 -1,8 -4,11 -3,2 -6,4 -10,4 -3,0 -7,-1 -10,-4 -3,-2 -5,-6 -5,-11l0 -28c0,-10 5,-15 15,-15l16 0zm114 0l0 -232 -59 0 -26 232 85 0zm289 15c0,4 -1,8 -4,10 -2,3 -6,4 -10,4 -4,0 -7,-1 -10,-4 -3,-2 -4,-6 -4,-10l0 -205 -118 212c-1,2 -4,5 -6,7l-3 1c-1,1 -3,1 -5,1 -3,0 -6,-1 -9,-4 -3,-3 -4,-7 -4,-12l0 -261c0,-4 1,-7 4,-11 3,-2 6,-3 10,-3 4,0 7,1 10,3 3,3 5,6 5,11l0 205 117 -212c2,-2 4,-5 6,-7 3,-2 6,-3 8,-3 3,0 6,2 9,5 3,3 4,7 4,12l0 261zm89 -15l27 -248c0,-8 5,-13 15,-13l86 0c10,0 15,5 15,15l0 246 15 0c9,0 14,5 14,15l0 28c0,4 -1,8 -4,11 -3,2 -7,4 -10,4 -4,0 -7,-1 -10,-4 -3,-2 -5,-6 -5,-11l0 -14 -145 0 0 14c0,4 -1,8 -4,11 -3,2 -7,4 -10,4 -4,0 -7,-1 -10,-4 -3,-2 -5,-6 -5,-11l0 -28c0,-10 5,-15 15,-15l16 0zm114 0l0 -232 -59 0 -26 232 85 0zm167 -43l-21 62c-1,3 -3,6 -6,8 -2,1 -4,2 -7,2 -4,0 -8,-1 -11,-4 -3,-3 -4,-6 -4,-10l1 -5 87 -261c3,-8 7,-12 13,-12 7,0 11,4 14,12l87 261 1 5c0,4 -2,7 -5,10 -3,3 -7,4 -10,4 -2,0 -4,0 -7,-1 -2,-1 -4,-4 -7,-9l-20 -62 -105 0zm95 -30l-43 -127 -42 127 85 0zm129 -159l-58 0c-5,0 -8,-1 -11,-4 -2,-3 -4,-6 -4,-10 0,-3 2,-7 4,-10 2,-3 6,-5 11,-5l144 0c4,0 8,2 11,5 3,3 4,6 4,10 0,3 -1,6 -4,10 -2,3 -6,4 -11,4l-57 0 0 247c0,4 -2,8 -5,10 -2,3 -6,4 -10,4 -4,0 -7,-1 -10,-4 -3,-2 -4,-6 -4,-10l0 -247zm360 247c0,4 -1,8 -4,10 -2,3 -6,4 -10,4 -4,0 -7,-1 -10,-4 -3,-2 -5,-6 -5,-10l0 -226 -33 33c-3,3 -6,4 -10,4 -3,0 -7,-1 -10,-4 -3,-3 -4,-6 -4,-10 0,-4 1,-7 4,-10l58 -58c2,-2 4,-4 6,-5 2,-1 4,-2 6,-2 3,0 6,2 9,5 2,3 3,7 3,12l0 261z"/>
   <path class="fil3 str2" d="M5111 5409l0 131 14 0c16,0 30,-6 41,-17 11,-12 17,-25 17,-42l0 -14c0,-16 -6,-29 -17,-41 -11,-12 -25,-17 -41,-17l-14 0zm-29 131l0 -131 -15 0c-15,0 -29,5 -40,17 -12,11 -18,25 -18,41l0 14c0,16 6,30 17,42 12,11 25,17 41,17l15 0zm0 29l-15 0c-24,0 -44,-9 -61,-26 -17,-17 -25,-37 -25,-62l0 -14c0,-24 8,-44 25,-61 17,-18 38,-26 61,-26l15 0 0 -29c0,-4 1,-7 4,-11 3,-2 6,-3 10,-3 4,0 7,1 10,3 3,3 5,6 5,11l0 29 14 0c24,0 45,8 61,25 8,9 14,18 19,28 5,10 7,22 7,34l0 14c0,24 -9,44 -25,62 -17,17 -38,26 -62,26l-14 0 0 43c0,4 -2,8 -4,11 -3,2 -6,3 -11,3 -4,0 -7,-1 -10,-3 -3,-3 -4,-6 -4,-11l0 -43zm362 43c0,4 -2,8 -4,11 -3,2 -6,3 -11,3 -4,0 -7,-1 -10,-3 -3,-3 -4,-7 -4,-11l0 -205 -118 212c-1,3 -3,5 -6,7l-3 1c-1,1 -3,1 -5,2 -2,0 -6,-2 -9,-5 -3,-3 -4,-7 -4,-12l0 -261c0,-4 2,-7 4,-11 3,-2 7,-3 11,-3 3,0 7,1 9,3 3,3 5,6 5,11l0 205 117 -212c2,-2 4,-4 7,-7 2,-2 5,-3 7,-3 4,0 7,2 9,5 3,3 5,7 5,12l0 261zm231 -44c0,16 -5,30 -17,41 -11,11 -25,17 -41,17l-58 0c-15,0 -29,-6 -40,-17 -12,-11 -17,-25 -17,-41l0 -174c0,-16 5,-29 16,-41 12,-11 25,-16 41,-16l58 0c16,0 30,5 41,16 12,12 17,25 17,41l0 174zm-29 0l0 -174c0,-8 -2,-15 -8,-20 -5,-6 -12,-9 -21,-9l-58 0c-8,0 -15,3 -20,9 -3,2 -5,6 -7,9 -1,4 -2,7 -2,11l0 174c0,8 3,15 9,21 3,3 6,5 9,6 4,2 8,2 11,2l58 0c8,0 15,-2 21,-8 6,-5 8,-12 8,-21zm-1305 269l122 -121c3,-3 6,-4 10,-4 4,0 7,1 10,4 3,3 5,7 5,11 0,2 -2,5 -5,9l-86 86 89 158 2 7c0,4 -1,7 -5,10 -2,3 -6,4 -10,4 -5,0 -9,-2 -12,-7l-85 -151 -35 34 0 110c0,4 -1,8 -4,11 -3,2 -6,3 -10,3 -4,0 -7,-1 -10,-3 -3,-3 -5,-6 -5,-11l0 -261c0,-4 2,-7 5,-10 3,-3 6,-4 10,-4 3,0 7,1 10,3 3,3 4,6 4,11l0 111zm254 92l-21 62c-1,3 -3,6 -6,8 -2,1 -4,2 -7,2 -4,0 -8,-1 -11,-4 -3,-2 -4,-6 -4,-10l1 -5 87 -260c3,-9 7,-13 13,-13 7,0 11,4 14,13l87 260 1 5c0,4 -2,7 -5,10 -3,3 -7,4 -10,4 -2,0 -4,0 -7,-1 -2,-1 -4,-4 -7,-9l-20 -62 -105 0zm95 -30l-43 -127 -42 127 85 0zm259 -71l0 -102c0,-4 1,-7 4,-10 3,-3 7,-4 10,-4 4,0 7,1 10,3 3,3 5,6 5,11l0 260c0,5 -2,8 -5,11 -3,3 -7,4 -10,4 -3,0 -7,-1 -10,-3 -3,-3 -4,-6 -4,-11l0 -130 -116 0 0 130c0,4 -1,8 -4,11 -3,2 -6,3 -10,3 -4,0 -8,-1 -10,-3 -3,-3 -5,-6 -5,-11l0 -261c0,-3 2,-7 5,-10 2,-3 6,-4 10,-4 3,0 7,1 10,4 3,2 4,6 4,10l0 102 116 0zm117 144l28 -248c0,-8 4,-12 14,-12l87 0c9,0 14,5 14,14l0 246 15 0c10,0 14,5 14,15l0 29c0,4 -1,7 -4,10 -3,3 -6,4 -10,4 -3,0 -6,-1 -10,-4 -3,-2 -4,-6 -4,-10l0 -15 -146 0 0 15c0,4 -1,7 -4,10 -3,3 -6,4 -10,4 -3,0 -6,-1 -10,-4 -3,-2 -4,-6 -4,-10l0 -29c0,-10 5,-15 14,-15l16 0zm114 0l0 -231 -59 0 -26 231 85 0zm290 15c0,4 -2,8 -4,11 -3,2 -6,3 -11,3 -4,0 -7,-1 -10,-3 -3,-3 -4,-6 -4,-11l0 -205 -118 212c-1,3 -3,5 -6,7l-3 2c-1,0 -3,0 -5,1 -2,0 -6,-2 -9,-5 -3,-3 -4,-7 -4,-12l0 -261c0,-3 2,-7 4,-10 3,-3 7,-4 11,-4 3,0 7,1 9,4 3,2 5,6 5,10l0 205 117 -212c2,-2 4,-4 7,-7 2,-2 5,-3 7,-3 4,0 7,2 9,5 3,3 5,7 5,12l0 261zm88 -15l27 -248c0,-8 5,-12 15,-12l87 0c9,0 14,5 14,14l0 246 15 0c10,0 14,5 14,15l0 29c0,4 -1,7 -4,10 -3,3 -6,4 -10,4 -3,0 -6,-1 -10,-4 -3,-2 -4,-6 -4,-10l0 -15 -146 0 0 15c0,4 -1,7 -4,10 -3,3 -6,4 -10,4 -3,0 -6,-1 -10,-4 -3,-2 -4,-6 -4,-10l0 -29c0,-10 4,-15 14,-15l16 0zm114 0l0 -231 -59 0 -26 231 85 0zm167 -43l-21 62c-1,3 -3,6 -5,8 -2,1 -5,2 -8,2 -4,0 -8,-1 -10,-4 -4,-2 -5,-6 -5,-10l1 -5 87 -260c3,-9 7,-13 14,-13 6,0 10,4 13,13l87 260 1 5c0,4 -2,7 -5,10 -3,3 -6,4 -10,4 -2,0 -4,0 -7,-1 -2,-1 -4,-4 -6,-9l-21 -62 -105 0zm95 -30l-42 -127 -43 127 85 0zm129 -158l-58 0c-4,0 -8,-2 -11,-4 -2,-4 -3,-7 -3,-11 0,-3 1,-6 3,-10 3,-3 6,-4 11,-4l145 0c4,0 7,1 10,4 3,3 4,6 4,10 0,3 -1,7 -3,10 -3,3 -6,5 -11,5l-58 0 0 246c0,4 -2,8 -4,11 -3,2 -6,3 -11,3 -3,0 -7,-1 -10,-3 -3,-3 -4,-6 -4,-11l0 -246zm152 188l-21 62c-1,3 -3,6 -5,8 -2,1 -5,2 -8,2 -4,0 -7,-1 -10,-4 -3,-2 -5,-6 -5,-10l1 -5 87 -260c3,-9 8,-13 14,-13 6,0 10,4 13,13l87 260 1 5c0,4 -2,7 -5,10 -3,3 -6,4 -10,4 -2,0 -4,0 -6,-1 -3,-1 -5,-4 -7,-9l-21 -62 -105 0zm95 -30l-42 -127 -43 127 85 0z"/>
   <path class="fil3 str2" d="M8004 5690l122 -121c3,-3 6,-4 10,-4 4,0 7,1 10,4 3,3 5,7 5,11 0,2 -2,6 -4,10l-87 86 89 157 2 7c0,4 -1,7 -4,10 -3,3 -7,5 -11,5 -5,0 -9,-3 -12,-8l-85 -151 -35 34 0 110c0,5 -1,8 -4,11 -2,2 -6,4 -10,4 -4,0 -7,-2 -10,-4 -3,-3 -5,-6 -5,-11l0 -261c0,-4 2,-7 5,-10 3,-3 6,-4 10,-4 4,0 7,1 10,3 3,3 4,6 4,11l0 111zm362 107c0,15 -6,29 -17,40 -11,12 -25,18 -41,18l-58 0c-16,0 -29,-6 -41,-17 -11,-12 -17,-25 -17,-41l0 -174c0,-16 6,-30 17,-41 11,-11 25,-17 41,-17l58 0c16,0 30,6 41,17 11,11 17,25 17,41l0 174zm-29 0l0 -174c0,-8 -3,-15 -8,-21 -6,-5 -13,-8 -21,-8l-58 0c-8,0 -15,2 -21,8 -2,3 -4,6 -6,9 -1,4 -2,8 -2,12l0 174c0,8 3,15 8,20 3,3 6,5 10,7 4,1 8,2 11,2l58 0c8,0 15,-3 21,-8 5,-6 8,-13 8,-21zm255 43c0,5 -1,8 -4,11 -3,2 -6,4 -10,4 -4,0 -8,-2 -11,-4 -2,-3 -4,-6 -4,-11l0 -246 -47 0 -69 250c-1,3 -2,5 -5,7 -3,2 -6,4 -9,4 -4,0 -8,-2 -11,-4 -2,-2 -4,-6 -4,-10 0,-2 0,-4 1,-5l72 -260c2,-7 7,-11 14,-11l73 0c9,0 14,5 14,14l0 261zm231 0c0,5 -1,8 -4,11 -3,2 -6,4 -10,4 -4,0 -8,-2 -10,-4 -3,-2 -5,-6 -5,-11l0 -205 -117 212c-2,3 -4,5 -7,7l-3 2c-1,0 -2,1 -4,1 -3,0 -6,-1 -10,-4 -2,-3 -4,-7 -4,-13l0 -260c0,-4 2,-8 5,-11 3,-3 6,-4 10,-4 4,0 7,1 10,4 3,2 4,6 4,11l0 204 118 -211c1,-3 3,-5 6,-7 3,-2 5,-3 8,-3 3,0 6,1 9,4 3,3 4,7 4,12l0 261zm203 -130l0 -131c0,-3 1,-7 4,-10 3,-3 6,-4 10,-4 4,0 7,1 10,4 3,2 5,6 5,10l0 261c0,5 -2,8 -5,11 -2,2 -6,4 -10,4 -4,0 -7,-2 -10,-4 -3,-3 -4,-6 -4,-11l0 -101 -87 0c-16,0 -29,-6 -41,-17 -11,-12 -17,-25 -17,-41l0 -102c0,-3 1,-7 4,-10 3,-3 7,-4 10,-4 4,0 7,1 10,4 3,2 5,6 5,10l0 102c0,8 3,15 8,20 3,3 6,5 9,7 4,1 8,2 12,2l87 0zm115 -29l73 0c4,0 7,1 10,4 3,3 5,7 5,10 0,4 -2,7 -4,10 -2,3 -6,5 -11,5l-73 0 0 116 102 0c4,0 7,1 10,4 3,3 5,6 5,10 0,4 -2,7 -4,10 -3,3 -6,5 -11,5l-116 0c-10,0 -15,-5 -15,-14l0 -262c0,-9 5,-14 15,-14l116 0c4,0 7,1 10,4 3,3 5,7 5,10 0,4 -2,7 -4,10 -3,3 -6,5 -11,5l-102 0 0 87zm290 174l-73 0c-15,0 -29,-6 -41,-17 -11,-12 -17,-25 -17,-41l0 -174c0,-16 6,-30 17,-41 11,-11 25,-17 41,-17l73 0c4,0 7,1 10,4 3,3 4,7 4,10 0,4 -1,7 -3,10 -3,3 -6,5 -11,5l-73 0c-8,0 -15,2 -21,8 -2,3 -4,6 -6,9 -1,4 -2,8 -2,12l0 174c0,8 3,15 8,20 3,3 6,5 10,7 4,1 8,2 11,2l73 0c4,0 7,1 10,4 3,3 4,6 4,10 0,3 -1,7 -3,10 -3,3 -6,5 -11,5zm144 -261l-58 0c-4,0 -8,-2 -10,-4 -3,-3 -4,-7 -4,-11 0,-3 1,-6 3,-9 3,-3 7,-5 11,-5l145 0c4,0 7,1 10,4 3,3 4,7 4,10 0,4 -1,7 -3,10 -3,3 -6,5 -11,5l-58 0 0 246c0,5 -1,8 -4,11 -3,2 -6,4 -10,4 -4,0 -8,-2 -10,-4 -3,-3 -5,-6 -5,-11l0 -246zm305 95c9,5 15,12 20,21 5,9 8,19 8,29l0 58c0,15 -6,29 -17,40 -11,12 -25,18 -41,18l-101 0c-10,0 -15,-5 -15,-15l0 -261c0,-9 5,-14 15,-14l87 0c16,0 29,6 41,17 11,11 17,25 17,41l0 29c0,6 -1,13 -4,19 -2,6 -5,12 -10,18zm-117 21l0 116 87 0c8,0 15,-3 21,-8 5,-6 8,-13 8,-21l0 -58c0,-8 -3,-15 -8,-21 -5,-5 -12,-8 -21,-8l-87 0zm73 -29c8,0 15,-3 20,-8 6,-6 9,-13 9,-21l0 -29c0,-8 -3,-15 -8,-21 -6,-5 -13,-8 -21,-8l-73 0 0 87 73 0zm303 116c0,15 -5,29 -16,40 -12,12 -25,18 -41,18l-58 0c-16,0 -30,-6 -41,-17 -11,-12 -17,-25 -17,-41l0 -174c0,-16 6,-30 17,-41 11,-11 25,-17 41,-17l58 0c16,0 29,6 41,17 11,11 16,25 16,41l0 174zm-28 0l0 -174c0,-8 -3,-15 -9,-21 -5,-5 -12,-8 -20,-8l-58 0c-8,0 -15,2 -21,8 -3,3 -5,6 -6,9 -2,4 -2,8 -2,12l0 174c0,8 2,15 8,20 3,3 6,5 9,7 4,1 8,2 12,2l58 0c8,0 14,-3 20,-8 6,-6 9,-13 9,-21zm398 0c0,15 -6,29 -17,40 -12,12 -25,18 -41,18l-58 0c-16,0 -29,-6 -41,-17 -11,-12 -17,-25 -17,-41l0 -174c0,-16 6,-30 17,-41 11,-11 25,-17 41,-17l58 0c16,0 30,6 41,17 11,11 17,25 17,41l0 174zm-29 0l0 -174c0,-8 -3,-15 -8,-21 -6,-5 -13,-8 -21,-8l-58 0c-8,0 -15,2 -21,8 -3,3 -5,6 -6,9 -1,4 -2,8 -2,12l0 174c0,8 3,15 8,20 3,3 6,5 10,7 4,1 7,2 11,2l58 0c8,0 15,-3 20,-8 6,-6 9,-13 9,-21zm167 -203l-57 0c-5,0 -8,-2 -11,-4 -3,-3 -4,-7 -4,-11 0,-3 1,-6 4,-9 2,-3 6,-5 11,-5l144 0c4,0 8,1 10,4 3,3 5,7 5,10 0,4 -2,7 -4,10 -2,3 -6,5 -11,5l-58 0 0 246c0,5 -1,8 -4,11 -2,2 -6,4 -10,4 -4,0 -7,-2 -10,-4 -3,-3 -5,-6 -5,-11l0 -246zm362 246c0,5 -1,8 -4,11 -2,2 -6,4 -10,4 -3,0 -7,-2 -10,-4 -3,-3 -4,-6 -4,-11l0 -207 -60 100c-4,7 -8,10 -13,10 -4,0 -8,-3 -12,-10l-61 -100 0 207c0,5 -1,8 -4,11 -2,2 -6,4 -10,4 -4,0 -7,-2 -10,-4 -3,-2 -4,-6 -4,-11l0 -259c0,-6 1,-10 4,-13 2,-2 5,-4 9,-4 2,0 5,1 7,2 2,2 4,4 6,7l75 124 74 -124c4,-6 8,-9 14,-9 4,0 7,2 10,5 2,3 3,7 3,12l0 259zm87 -159l73 0c4,0 7,1 10,4 3,3 4,7 4,10 0,4 -1,7 -4,10 -2,3 -6,5 -10,5l-73 0 0 116 101 0c5,0 8,1 11,4 3,3 4,6 4,10 0,4 -1,7 -4,10 -2,3 -6,5 -10,5l-117 0c-9,0 -14,-5 -14,-14l0 -262c0,-9 5,-14 14,-14l117 0c4,0 7,1 10,4 3,3 4,7 4,10 0,4 -1,7 -4,10 -2,3 -6,5 -11,5l-101 0 0 87zm246 -87l-58 0c-4,0 -8,-2 -11,-4 -2,-3 -3,-7 -3,-11 0,-3 1,-6 3,-9 3,-3 6,-5 11,-5l145 0c4,0 7,1 10,4 3,3 4,7 4,10 0,4 -1,7 -4,10 -2,3 -6,5 -10,5l-58 0 0 246c0,5 -2,8 -4,11 -3,2 -6,4 -11,4 -3,0 -7,-2 -10,-4 -3,-3 -4,-6 -4,-11l0 -246zm318 203c0,15 -6,29 -17,40 -11,12 -25,18 -41,18l-58 0c-16,0 -29,-6 -41,-17 -11,-12 -17,-25 -17,-41l0 -174c0,-16 6,-30 17,-41 11,-11 25,-17 41,-17l58 0c16,0 30,6 41,17 11,11 17,25 17,41l0 174zm-29 0l0 -174c0,-8 -3,-15 -8,-21 -5,-5 -12,-8 -21,-8l-58 0c-8,0 -15,2 -21,8 -2,3 -4,6 -6,9 -1,4 -2,8 -2,12l0 174c0,8 3,15 8,20 3,3 6,5 10,7 4,1 8,2 11,2l58 0c8,0 15,-3 21,-8 5,-6 8,-13 8,-21zm139 -107l122 -121c3,-3 6,-4 10,-4 3,0 7,1 10,4 3,3 4,7 4,11 0,2 -1,6 -4,10l-86 86 89 157 2 7c0,4 -2,7 -5,10 -3,3 -6,5 -11,5 -4,0 -8,-3 -12,-8l-85 -151 -34 34 0 110c0,5 -2,8 -4,11 -3,2 -6,4 -11,4 -3,0 -7,-2 -10,-4 -3,-3 -4,-6 -4,-11l0 -261c0,-4 1,-7 4,-10 3,-3 7,-4 10,-4 4,0 7,1 10,3 3,3 5,6 5,11l0 111zm491 150c0,5 -2,8 -4,11 -3,2 -7,4 -11,4 -4,0 -7,-2 -10,-4 -3,-2 -4,-6 -4,-11l0 -205 -118 212c-1,3 -3,5 -6,7l-3 2c-1,0 -3,1 -5,1 -2,0 -6,-1 -9,-4 -3,-3 -4,-7 -4,-13l0 -260c0,-4 1,-8 4,-11 3,-3 7,-4 10,-4 4,0 8,1 10,4 3,2 5,6 5,11l0 204 117 -211c2,-3 4,-5 7,-7 2,-2 5,-3 7,-3 4,0 7,1 9,4 3,3 5,7 5,12l0 261zm145 -130l-44 0c-4,0 -8,-2 -11,-4 -2,-3 -3,-7 -3,-11 0,-3 1,-6 4,-9 2,-3 6,-5 10,-5l44 0c8,0 14,-3 20,-8 6,-6 9,-13 9,-21l0 -29c0,-8 -3,-15 -9,-21 -5,-5 -12,-8 -20,-8l-29 0c-7,0 -12,2 -17,5 -5,3 -8,8 -11,15 0,2 -2,5 -4,7 -2,1 -3,2 -4,2l-5 1c-4,0 -8,-1 -11,-4 -3,-3 -4,-6 -4,-11l1 -5c3,-11 10,-21 20,-28 10,-7 22,-11 35,-11l28 0c17,0 30,6 41,17 12,11 17,25 17,41l0 29c0,8 -1,16 -5,24 -3,8 -8,14 -14,19 13,11 19,26 19,44l0 58c0,15 -5,29 -17,40 -11,12 -25,18 -41,18l-28 0c-13,0 -24,-4 -34,-11 -10,-7 -17,-17 -21,-29l-1 -5c0,-4 1,-7 4,-10 3,-3 7,-5 11,-5 6,0 10,3 13,10 2,6 5,11 10,16 6,3 12,5 18,5l29 0c8,0 14,-3 20,-8 6,-6 9,-13 9,-21l0 -58c0,-9 -3,-16 -7,-21 -5,-5 -13,-8 -22,-8zm144 0l0 116 87 0c8,0 15,-3 20,-8 6,-6 9,-13 9,-21l0 -58c0,-8 -3,-15 -8,-21 -6,-5 -13,-8 -21,-8l-87 0zm0 -29l87 0c15,0 29,6 41,17 11,11 17,25 17,41l0 58c0,16 -6,29 -17,40 -12,12 -25,18 -41,18l-101 0c-10,0 -15,-5 -15,-15l0 -261c0,-9 5,-14 15,-14l115 0c4,0 8,1 11,4 2,3 4,7 4,10 0,4 -1,7 -4,10 -2,3 -6,5 -11,5l-101 0 0 87zm376 159c0,5 -1,8 -4,11 -3,2 -6,4 -10,4 -4,0 -7,-2 -10,-4 -3,-2 -5,-6 -5,-11l0 -205 -117 212c-2,3 -4,5 -7,7l-3 2c-1,0 -2,1 -4,1 -3,0 -6,-1 -10,-4 -2,-3 -3,-7 -3,-13l0 -260c0,-4 1,-8 4,-11 3,-3 6,-4 10,-4 4,0 7,1 10,4 3,2 4,6 4,11l0 204 118 -211c1,-3 3,-5 6,-7 3,-2 5,-3 8,-3 3,0 6,1 9,4 3,3 4,7 4,12l0 261zm87 -130l87 0c8,0 15,-3 20,-8 6,-6 9,-13 9,-21l0 -58c0,-8 -3,-15 -8,-21 -6,-5 -13,-8 -21,-8l-87 0 0 116zm0 29l0 101c0,5 -1,8 -4,11 -3,2 -6,4 -11,4 -3,0 -7,-2 -10,-4 -2,-2 -4,-6 -4,-11l0 -261c0,-9 5,-14 15,-14l101 0c16,0 30,6 41,17 11,11 17,25 17,41l0 58c0,16 -6,29 -17,40 -12,12 -25,18 -41,18l-87 0zm224 43l-20 63c-2,3 -3,5 -6,7 -2,1 -4,2 -8,3 -4,0 -7,-2 -10,-5 -3,-2 -5,-5 -5,-10l1 -5 88 -260c2,-8 7,-13 13,-13 6,0 11,5 14,13l86 260 1 5c0,4 -1,8 -4,11 -3,2 -7,4 -10,4 -2,0 -5,-1 -7,-2 -2,-1 -5,-4 -7,-8l-21 -63 -105 0zm96 -30l-43 -127 -43 127 86 0zm129 -158l-58 0c-5,0 -8,-2 -11,-4 -3,-3 -4,-7 -4,-11 0,-3 1,-6 4,-9 2,-3 6,-5 11,-5l144 0c4,0 8,1 11,4 2,3 4,7 4,10 0,4 -1,7 -4,10 -2,3 -6,5 -11,5l-58 0 0 246c0,5 -1,8 -4,11 -2,2 -6,4 -10,4 -4,0 -7,-2 -10,-4 -3,-3 -4,-6 -4,-11l0 -246zm187 87l73 0c4,0 8,1 11,4 2,3 4,7 4,10 0,4 -1,7 -4,10 -2,3 -6,5 -11,5l-73 0 0 116 102 0c4,0 8,1 11,4 2,3 4,6 4,10 0,4 -1,7 -4,10 -2,3 -6,5 -11,5l-116 0c-10,0 -14,-5 -14,-14l0 -262c0,-9 4,-14 14,-14l116 0c4,0 8,1 11,4 2,3 4,7 4,10 0,4 -1,7 -4,10 -2,3 -6,5 -11,5l-102 0 0 87zm348 159c0,5 -1,8 -4,11 -2,2 -6,4 -10,4 -4,0 -7,-2 -10,-4 -3,-3 -5,-6 -5,-11l0 -246 -47 0 -69 250c-1,3 -2,5 -5,7 -3,2 -6,4 -9,4 -4,0 -8,-2 -10,-4 -3,-2 -5,-6 -5,-10 0,-2 1,-4 1,-5l72 -260c3,-7 7,-11 14,-11l73 0c9,0 14,5 14,14l0 261zm87 -159l72 0c4,0 8,1 11,4 2,3 4,7 4,10 0,4 -1,7 -4,10 -2,3 -6,5 -11,5l-72 0 0 116 101 0c4,0 8,1 11,4 2,3 4,6 4,10 0,4 -1,7 -4,10 -2,3 -6,5 -11,5l-116 0c-9,0 -14,-5 -14,-14l0 -262c0,-9 5,-14 14,-14l116 0c4,0 8,1 11,4 2,3 4,7 4,10 0,4 -1,7 -4,10 -2,3 -6,5 -11,5l-101 0 0 87zm289 -145l-58 0c-4,0 -8,-1 -11,-4 -2,-3 -3,-6 -3,-10 0,-4 1,-7 3,-10 3,-3 6,-5 11,-5l58 0c4,0 8,2 10,5 3,3 5,6 5,10 0,3 -2,6 -4,9 -3,4 -6,5 -11,5zm58 304c0,5 -1,8 -4,11 -3,2 -6,4 -11,4 -3,0 -7,-2 -10,-4 -2,-2 -4,-6 -4,-11l0 -205 -117 212c-2,3 -4,5 -7,7l-3 2c-1,0 -2,1 -4,1 -3,0 -6,-1 -10,-4 -2,-3 -4,-7 -4,-13l0 -260c0,-4 2,-8 5,-11 3,-3 6,-4 10,-4 3,0 7,1 10,4 3,2 4,6 4,11l0 204 118 -211c1,-3 3,-5 6,-7 2,-2 5,-3 8,-3 3,0 6,1 9,5 2,3 4,6 4,12l0 260z"/>
   <path class="fil3 str2" d="M4312 9531l122 -121c3,-2 6,-4 10,-4 3,0 7,2 10,5 3,3 5,6 5,10 0,3 -2,6 -5,10l-86 86 89 157 2 8c0,4 -2,7 -5,10 -3,3 -6,4 -10,4 -5,0 -9,-3 -13,-8l-85 -151 -34 34 0 111c0,4 -1,8 -4,10 -3,3 -6,4 -11,4 -3,0 -7,-1 -10,-4 -3,-2 -4,-6 -4,-11l0 -260c0,-4 2,-7 5,-10 2,-3 6,-5 9,-5 4,0 8,2 11,4 2,2 4,6 4,10l0 111zm253 93l-21 62c-1,3 -2,6 -5,8 -2,1 -4,2 -8,2 -4,0 -7,-1 -10,-4 -3,-3 -5,-6 -5,-10l1 -5 87 -261c3,-8 8,-12 14,-12 6,0 11,4 14,12l86 261 1 5c0,4 -1,7 -4,10 -3,3 -7,4 -11,4 -1,0 -4,0 -6,-1 -2,-1 -5,-4 -7,-9l-21 -62 -105 0zm96 -30l-43 -127 -43 127 86 0zm259 -72l0 -101c0,-4 1,-7 4,-10 3,-3 6,-5 10,-5 4,0 7,2 10,4 3,2 5,6 5,11l0 260c0,4 -2,8 -5,11 -3,3 -7,4 -10,4 -4,0 -7,-1 -10,-4 -3,-2 -4,-5 -4,-10l0 -131 -116 0 0 131c0,4 -2,8 -4,10 -3,3 -6,4 -11,4 -3,0 -7,-1 -10,-4 -3,-2 -4,-6 -4,-10l0 -261c0,-4 1,-7 4,-11 3,-2 7,-3 10,-3 4,0 7,1 10,3 3,3 5,6 5,11l0 101 116 0zm117 145l27 -248c0,-8 5,-13 15,-13l87 0c9,0 14,5 14,15l0 246 15 0c9,0 14,5 14,15l0 28c0,4 -1,8 -4,11 -3,2 -6,4 -10,4 -3,0 -7,-1 -10,-4 -3,-2 -5,-6 -5,-11l0 -14 -145 0 0 14c0,4 -1,8 -4,11 -3,2 -6,4 -10,4 -3,0 -7,-1 -10,-4 -3,-2 -5,-6 -5,-11l0 -28c0,-10 5,-15 15,-15l16 0zm114 0l0 -232 -59 0 -26 232 85 0zm289 15c0,4 -1,8 -4,10 -2,3 -6,4 -10,4 -4,0 -7,-1 -10,-4 -3,-2 -4,-6 -4,-10l0 -205 -118 212c-1,2 -4,5 -6,7l-3 1c-1,1 -3,1 -5,1 -3,0 -6,-1 -9,-4 -3,-3 -4,-7 -4,-12l0 -261c0,-4 1,-7 4,-11 3,-2 6,-3 10,-3 4,0 7,1 10,3 3,3 5,6 5,11l0 205 117 -212c2,-2 4,-5 6,-7 3,-2 6,-3 8,-3 3,0 6,2 9,5 3,3 4,7 4,12l0 261zm89 -15l27 -248c0,-8 5,-13 15,-13l86 0c10,0 15,5 15,15l0 246 15 0c9,0 14,5 14,15l0 28c0,4 -1,8 -4,11 -3,2 -7,4 -10,4 -4,0 -7,-1 -10,-4 -3,-2 -5,-6 -5,-11l0 -14 -145 0 0 14c0,4 -1,8 -4,11 -3,2 -7,4 -10,4 -4,0 -7,-1 -10,-4 -3,-2 -5,-6 -5,-11l0 -28c0,-10 5,-15 15,-15l16 0zm114 0l0 -232 -59 0 -26 232 85 0zm167 -43l-21 62c-1,3 -3,6 -6,8 -2,1 -4,2 -7,2 -4,0 -8,-1 -11,-4 -3,-3 -4,-6 -4,-10l1 -5 87 -261c3,-8 7,-12 13,-12 7,0 11,4 14,12l87 261 1 5c0,4 -2,7 -5,10 -3,3 -7,4 -10,4 -2,0 -4,0 -7,-1 -2,-1 -4,-4 -7,-9l-20 -62 -105 0zm95 -30l-43 -127 -42 127 85 0zm129 -159l-58 0c-5,0 -8,-1 -11,-4 -2,-3 -4,-6 -4,-10 0,-3 2,-7 4,-10 2,-3 6,-5 11,-5l144 0c4,0 8,2 11,5 3,3 4,6 4,10 0,3 -1,6 -4,10 -2,3 -6,4 -11,4l-57 0 0 247c0,4 -2,8 -5,10 -2,3 -6,4 -10,4 -4,0 -7,-1 -10,-4 -3,-2 -4,-6 -4,-10l0 -247zm408 83l-94 149 90 0c4,0 7,2 10,5 3,3 4,6 4,10 0,3 -1,6 -3,9 -3,3 -6,5 -11,5l-116 0c-10,0 -16,-4 -16,-12 0,-3 2,-6 4,-10l107 -171c3,-7 5,-15 5,-22 0,-12 -5,-23 -14,-32 -5,-4 -10,-8 -16,-10 -6,-2 -13,-4 -20,-4 -7,0 -14,2 -21,6 -7,4 -12,10 -17,17 -1,1 -3,3 -5,5l-7 1c-3,0 -7,-1 -10,-4 -3,-3 -5,-6 -5,-10 0,-2 1,-5 3,-8 6,-10 15,-19 27,-25 5,-4 11,-6 17,-8 5,-2 11,-3 16,-3 23,0 42,8 57,23 16,15 24,33 24,53 0,12 -3,24 -9,36z"/>
   <path class="fil3 str2" d="M4312 11341l122 -121c3,-2 6,-4 10,-4 3,0 7,2 10,5 3,3 5,6 5,10 0,3 -2,6 -5,10l-86 86 89 157 2 8c0,4 -2,7 -5,10 -3,3 -6,4 -10,4 -5,0 -9,-3 -13,-8l-85 -151 -34 34 0 111c0,4 -1,8 -4,10 -3,3 -6,4 -11,4 -3,0 -7,-1 -10,-4 -3,-2 -4,-6 -4,-11l0 -260c0,-4 2,-7 5,-10 2,-3 6,-5 9,-5 4,0 8,2 11,4 2,2 4,6 4,10l0 111zm253 93l-21 62c-1,3 -2,6 -5,8 -2,1 -4,2 -8,2 -4,0 -7,-1 -10,-4 -3,-3 -5,-6 -5,-10l1 -5 87 -261c3,-8 8,-12 14,-12 6,0 11,4 14,12l86 261 1 5c0,4 -1,7 -4,10 -3,3 -7,4 -11,4 -1,0 -4,0 -6,-1 -2,-1 -5,-4 -7,-9l-21 -62 -105 0zm96 -30l-43 -127 -43 127 86 0zm259 -72l0 -101c0,-4 1,-7 4,-10 3,-3 6,-5 10,-5 4,0 7,2 10,4 3,2 5,6 5,11l0 260c0,4 -2,8 -5,11 -3,3 -7,4 -10,4 -4,0 -7,-1 -10,-4 -3,-2 -4,-5 -4,-10l0 -131 -116 0 0 131c0,4 -2,8 -4,10 -3,3 -6,4 -11,4 -3,0 -7,-1 -10,-4 -3,-2 -4,-6 -4,-10l0 -261c0,-4 1,-7 4,-11 3,-2 7,-3 10,-3 4,0 7,1 10,3 3,3 5,6 5,11l0 101 116 0zm117 145l27 -248c0,-8 5,-13 15,-13l87 0c9,0 14,5 14,15l0 246 15 0c9,0 14,5 14,15l0 28c0,4 -1,8 -4,11 -3,2 -6,4 -10,4 -3,0 -7,-1 -10,-4 -3,-2 -5,-6 -5,-11l0 -14 -145 0 0 14c0,4 -1,8 -4,11 -3,2 -6,4 -10,4 -3,0 -7,-1 -10,-4 -3,-2 -5,-6 -5,-11l0 -28c0,-10 5,-15 15,-15l16 0zm114 0l0 -232 -59 0 -26 232 85 0zm289 15c0,4 -1,8 -4,10 -2,3 -6,4 -10,4 -4,0 -7,-1 -10,-4 -3,-2 -4,-6 -4,-10l0 -205 -118 212c-1,2 -4,5 -6,7l-3 1c-1,1 -3,1 -5,1 -3,0 -6,-1 -9,-4 -3,-3 -4,-7 -4,-12l0 -261c0,-4 1,-7 4,-11 3,-2 6,-3 10,-3 4,0 7,1 10,3 3,3 5,6 5,11l0 205 117 -212c2,-2 4,-5 6,-7 3,-2 6,-3 8,-3 3,0 6,2 9,5 3,3 4,7 4,12l0 261zm89 -15l27 -248c0,-8 5,-13 15,-13l86 0c10,0 15,5 15,15l0 246 15 0c9,0 14,5 14,15l0 28c0,4 -1,8 -4,11 -3,2 -7,4 -10,4 -4,0 -7,-1 -10,-4 -3,-2 -5,-6 -5,-11l0 -14 -145 0 0 14c0,4 -1,8 -4,11 -3,2 -7,4 -10,4 -4,0 -7,-1 -10,-4 -3,-2 -5,-6 -5,-11l0 -28c0,-10 5,-15 15,-15l16 0zm114 0l0 -232 -59 0 -26 232 85 0zm167 -43l-21 62c-1,3 -3,6 -6,8 -2,1 -4,2 -7,2 -4,0 -8,-1 -11,-4 -3,-3 -4,-6 -4,-10l1 -5 87 -261c3,-8 7,-12 13,-12 7,0 11,4 14,12l87 261 1 5c0,4 -2,7 -5,10 -3,3 -7,4 -10,4 -2,0 -4,0 -7,-1 -2,-1 -4,-4 -7,-9l-20 -62 -105 0zm95 -30l-43 -127 -42 127 85 0zm129 -159l-58 0c-5,0 -8,-1 -11,-4 -2,-3 -4,-6 -4,-10 0,-3 2,-7 4,-10 2,-3 6,-5 11,-5l144 0c4,0 8,2 11,5 3,3 4,6 4,10 0,3 -1,6 -4,10 -2,3 -6,4 -11,4l-57 0 0 247c0,4 -2,8 -5,10 -2,3 -6,4 -10,4 -4,0 -7,-1 -10,-4 -3,-2 -4,-6 -4,-10l0 -247zm345 1l-58 0c-5,0 -8,-2 -11,-4 -3,-3 -4,-7 -4,-11 0,-3 1,-6 4,-9 3,-4 6,-5 11,-5l58 0c22,0 40,7 54,22 12,14 18,30 18,50 0,11 -2,22 -7,32 -5,10 -12,19 -21,26 8,7 15,15 20,25 5,10 8,21 8,33l0 29c0,19 -7,36 -21,51 -15,14 -32,21 -51,21l-58 0c-5,0 -8,-1 -11,-4 -3,-3 -4,-7 -4,-10 0,-4 1,-7 4,-10 2,-3 6,-5 11,-5l58 0c12,0 22,-4 30,-13 9,-8 13,-18 13,-30l0 -29c0,-12 -4,-22 -12,-31 -9,-8 -19,-13 -31,-13l-29 0c-5,0 -8,-1 -11,-4 -3,-3 -4,-6 -4,-10 0,-3 1,-7 4,-10 2,-3 6,-5 11,-5l29 0c12,0 23,-4 31,-13 7,-9 11,-19 11,-31 0,-12 -3,-21 -10,-29 -8,-9 -19,-13 -32,-13z"/>
   <path class="fil3 str2" d="M4312 13221l122 -121c3,-2 6,-4 10,-4 3,0 7,2 10,5 3,3 5,6 5,10 0,3 -2,6 -5,10l-86 86 89 157 2 8c0,4 -2,7 -5,10 -3,3 -6,4 -10,4 -5,0 -9,-3 -13,-8l-85 -151 -34 34 0 111c0,4 -1,8 -4,10 -3,3 -6,4 -11,4 -3,0 -7,-1 -10,-4 -3,-2 -4,-6 -4,-11l0 -260c0,-4 2,-7 5,-10 2,-3 6,-5 9,-5 4,0 8,2 11,4 2,2 4,6 4,10l0 111zm253 93l-21 62c-1,3 -2,6 -5,8 -2,1 -4,2 -8,2 -4,0 -7,-1 -10,-4 -3,-3 -5,-6 -5,-10l1 -5 87 -261c3,-8 8,-12 14,-12 6,0 11,4 14,12l86 261 1 5c0,4 -1,7 -4,10 -3,3 -7,4 -11,4 -1,0 -4,0 -6,-1 -2,-1 -5,-4 -7,-9l-21 -62 -105 0zm96 -30l-43 -127 -43 127 86 0zm259 -72l0 -101c0,-4 1,-7 4,-10 3,-3 6,-5 10,-5 4,0 7,2 10,4 3,2 5,6 5,11l0 260c0,4 -2,8 -5,11 -3,3 -7,4 -10,4 -4,0 -7,-1 -10,-4 -3,-2 -4,-5 -4,-10l0 -131 -116 0 0 131c0,4 -2,8 -4,10 -3,3 -6,4 -11,4 -3,0 -7,-1 -10,-4 -3,-2 -4,-6 -4,-10l0 -261c0,-4 1,-7 4,-11 3,-2 7,-3 10,-3 4,0 7,1 10,3 3,3 5,6 5,11l0 101 116 0zm117 145l27 -248c0,-8 5,-13 15,-13l87 0c9,0 14,5 14,15l0 246 15 0c9,0 14,5 14,15l0 28c0,4 -1,8 -4,11 -3,2 -6,4 -10,4 -3,0 -7,-1 -10,-4 -3,-2 -5,-6 -5,-11l0 -14 -145 0 0 14c0,4 -1,8 -4,11 -3,2 -6,4 -10,4 -3,0 -7,-1 -10,-4 -3,-2 -5,-6 -5,-11l0 -28c0,-10 5,-15 15,-15l16 0zm114 0l0 -232 -59 0 -26 232 85 0zm289 15c0,4 -1,8 -4,10 -2,3 -6,4 -10,4 -4,0 -7,-1 -10,-4 -3,-2 -4,-6 -4,-10l0 -205 -118 212c-1,2 -4,5 -6,7l-3 1c-1,1 -3,1 -5,1 -3,0 -6,-1 -9,-4 -3,-3 -4,-7 -4,-12l0 -261c0,-4 1,-7 4,-11 3,-2 6,-3 10,-3 4,0 7,1 10,3 3,3 5,6 5,11l0 205 117 -212c2,-2 4,-5 6,-7 3,-2 6,-3 8,-3 3,0 6,2 9,5 3,3 4,7 4,12l0 261zm89 -15l27 -248c0,-8 5,-13 15,-13l86 0c10,0 15,5 15,15l0 246 15 0c9,0 14,5 14,15l0 28c0,4 -1,8 -4,11 -3,2 -7,4 -10,4 -4,0 -7,-1 -10,-4 -3,-2 -5,-6 -5,-11l0 -14 -145 0 0 14c0,4 -1,8 -4,11 -3,2 -7,4 -10,4 -4,0 -7,-1 -10,-4 -3,-2 -5,-6 -5,-11l0 -28c0,-10 5,-15 15,-15l16 0zm114 0l0 -232 -59 0 -26 232 85 0zm167 -43l-21 62c-1,3 -3,6 -6,8 -2,1 -4,2 -7,2 -4,0 -8,-1 -11,-4 -3,-3 -4,-6 -4,-10l1 -5 87 -261c3,-8 7,-12 13,-12 7,0 11,4 14,12l87 261 1 5c0,4 -2,7 -5,10 -3,3 -7,4 -10,4 -2,0 -4,0 -7,-1 -2,-1 -4,-4 -7,-9l-20 -62 -105 0zm95 -30l-43 -127 -42 127 85 0zm129 -159l-58 0c-5,0 -8,-1 -11,-4 -2,-3 -4,-6 -4,-10 0,-3 2,-7 4,-10 2,-3 6,-5 11,-5l144 0c4,0 8,2 11,5 3,3 4,6 4,10 0,3 -1,6 -4,10 -2,3 -6,4 -11,4l-57 0 0 247c0,4 -2,8 -5,10 -2,3 -6,4 -10,4 -4,0 -7,-1 -10,-4 -3,-2 -4,-6 -4,-10l0 -247zm404 175l29 0c4,0 7,1 10,4 3,3 4,6 4,10 0,3 -1,7 -3,10 -3,3 -6,4 -11,4l-29 0 0 44c0,4 -2,8 -4,10 -3,3 -6,4 -11,4 -3,0 -7,-1 -10,-4 -3,-2 -4,-6 -4,-10l0 -44 -87 0c-10,0 -15,-3 -15,-11l0 -4 1 -3 58 -203c1,-3 3,-6 5,-8l3 -1c1,-1 3,-2 5,-2 5,0 8,2 11,5 3,2 4,6 4,10l0 4 -53 185 68 0 0 -44c0,-4 1,-7 4,-11 3,-2 7,-3 10,-3 4,0 7,1 10,3 3,3 5,6 5,11l0 44z"/>
   <path class="fil3 str2" d="M4312 15051l122 -121c3,-2 6,-4 10,-4 3,0 7,2 10,5 3,3 5,6 5,10 0,3 -2,6 -5,10l-86 86 89 157 2 8c0,4 -2,7 -5,10 -3,3 -6,4 -10,4 -5,0 -9,-3 -13,-8l-85 -151 -34 34 0 111c0,4 -1,8 -4,10 -3,3 -6,4 -11,4 -3,0 -7,-1 -10,-4 -3,-2 -4,-6 -4,-11l0 -260c0,-4 2,-7 5,-10 2,-3 6,-5 9,-5 4,0 8,2 11,4 2,2 4,6 4,10l0 111zm253 93l-21 62c-1,3 -2,6 -5,8 -2,1 -4,2 -8,2 -4,0 -7,-1 -10,-4 -3,-3 -5,-6 -5,-10l1 -5 87 -261c3,-8 8,-12 14,-12 6,0 11,4 14,12l86 261 1 5c0,4 -1,7 -4,10 -3,3 -7,4 -11,4 -1,0 -4,0 -6,-1 -2,-1 -5,-4 -7,-9l-21 -62 -105 0zm96 -30l-43 -127 -43 127 86 0zm259 -72l0 -101c0,-4 1,-7 4,-10 3,-3 6,-5 10,-5 4,0 7,2 10,4 3,2 5,6 5,11l0 260c0,4 -2,8 -5,11 -3,3 -7,4 -10,4 -4,0 -7,-1 -10,-4 -3,-2 -4,-5 -4,-10l0 -131 -116 0 0 131c0,4 -2,8 -4,10 -3,3 -6,4 -11,4 -3,0 -7,-1 -10,-4 -3,-2 -4,-6 -4,-10l0 -261c0,-4 1,-7 4,-11 3,-2 7,-3 10,-3 4,0 7,1 10,3 3,3 5,6 5,11l0 101 116 0zm117 145l27 -248c0,-8 5,-13 15,-13l87 0c9,0 14,5 14,15l0 246 15 0c9,0 14,5 14,15l0 28c0,4 -1,8 -4,11 -3,2 -6,4 -10,4 -3,0 -7,-1 -10,-4 -3,-2 -5,-6 -5,-11l0 -14 -145 0 0 14c0,4 -1,8 -4,11 -3,2 -6,4 -10,4 -3,0 -7,-1 -10,-4 -3,-2 -5,-6 -5,-11l0 -28c0,-10 5,-15 15,-15l16 0zm114 0l0 -232 -59 0 -26 232 85 0zm289 15c0,4 -1,8 -4,10 -2,3 -6,4 -10,4 -4,0 -7,-1 -10,-4 -3,-2 -4,-6 -4,-10l0 -205 -118 212c-1,2 -4,5 -6,7l-3 1c-1,1 -3,1 -5,1 -3,0 -6,-1 -9,-4 -3,-3 -4,-7 -4,-12l0 -261c0,-4 1,-7 4,-11 3,-2 6,-3 10,-3 4,0 7,1 10,3 3,3 5,6 5,11l0 205 117 -212c2,-2 4,-5 6,-7 3,-2 6,-3 8,-3 3,0 6,2 9,5 3,3 4,7 4,12l0 261zm89 -15l27 -248c0,-8 5,-13 15,-13l86 0c10,0 15,5 15,15l0 246 15 0c9,0 14,5 14,15l0 28c0,4 -1,8 -4,11 -3,2 -7,4 -10,4 -4,0 -7,-1 -10,-4 -3,-2 -5,-6 -5,-11l0 -14 -145 0 0 14c0,4 -1,8 -4,11 -3,2 -7,4 -10,4 -4,0 -7,-1 -10,-4 -3,-2 -5,-6 -5,-11l0 -28c0,-10 5,-15 15,-15l16 0zm114 0l0 -232 -59 0 -26 232 85 0zm167 -43l-21 62c-1,3 -3,6 -6,8 -2,1 -4,2 -7,2 -4,0 -8,-1 -11,-4 -3,-3 -4,-6 -4,-10l1 -5 87 -261c3,-8 7,-12 13,-12 7,0 11,4 14,12l87 261 1 5c0,4 -2,7 -5,10 -3,3 -7,4 -10,4 -2,0 -4,0 -7,-1 -2,-1 -4,-4 -7,-9l-20 -62 -105 0zm95 -30l-43 -127 -42 127 85 0zm129 -159l-58 0c-5,0 -8,-1 -11,-4 -2,-3 -4,-6 -4,-10 0,-3 2,-7 4,-10 2,-3 6,-5 11,-5l144 0c4,0 8,2 11,5 3,3 4,6 4,10 0,3 -1,6 -4,10 -2,3 -6,4 -11,4l-57 0 0 247c0,4 -2,8 -5,10 -2,3 -6,4 -10,4 -4,0 -7,-1 -10,-4 -3,-2 -4,-6 -4,-10l0 -247zm302 0l0 87 44 0c19,0 37,7 51,22 14,14 21,31 21,51l0 29c0,19 -7,36 -21,51 -14,14 -31,21 -51,21l-58 0c-4,0 -8,-1 -11,-4 -2,-3 -4,-6 -4,-10 0,-4 2,-7 4,-10 3,-3 6,-5 11,-5l58 0c12,0 22,-4 31,-12 8,-9 12,-19 12,-31l0 -29c0,-12 -4,-23 -12,-31 -8,-9 -19,-13 -31,-13l-58 0c-10,0 -15,-5 -15,-14l0 -116c0,-10 5,-15 15,-15l116 0c4,0 7,2 10,5 3,3 4,6 4,10 0,3 -1,6 -3,10 -3,3 -6,4 -11,4l-102 0z"/>
   <path class="fil3 str2" d="M8575 7521c0,4 -1,8 -4,11 -2,2 -6,3 -10,3 -4,0 -7,-1 -10,-3 -3,-3 -4,-6 -4,-11l0 -226 -34 33c-3,3 -6,5 -10,5 -3,0 -6,-2 -10,-5 -3,-3 -4,-6 -4,-10 0,-3 1,-7 4,-10l58 -58c2,-2 4,-3 6,-5 2,-1 4,-1 7,-1 2,0 5,1 8,4 2,3 3,7 3,12l0 261z"/>
   <path class="fil3 str2" d="M10363 7357l-94 150 90 0c4,0 7,1 10,4 3,3 4,6 4,10 0,3 -1,6 -3,10 -3,3 -6,4 -11,4l-116 0c-10,0 -15,-4 -15,-11 0,-3 1,-7 3,-11l107 -171c4,-7 5,-14 5,-21 0,-13 -4,-23 -14,-33 -5,-4 -10,-7 -16,-10 -6,-2 -13,-3 -20,-3 -7,0 -14,1 -21,5 -7,5 -12,10 -17,17 -1,2 -3,3 -5,5l-7 2c-3,0 -7,-2 -10,-5 -3,-2 -4,-6 -4,-10 0,-1 0,-4 2,-8 7,-10 16,-19 27,-25 5,-3 11,-6 17,-8 5,-1 11,-2 16,-2 23,0 42,7 58,22 15,15 23,33 23,54 0,12 -3,23 -9,35z"/>
   <path class="fil3 str2" d="M12000 7275l-58 0c-5,0 -8,-1 -11,-4 -2,-3 -4,-6 -4,-10 0,-4 2,-7 4,-10 3,-3 6,-5 11,-5l58 0c22,0 40,8 54,22 12,14 18,31 18,50 0,12 -2,23 -7,32 -4,10 -11,19 -21,27 8,6 15,14 20,25 5,10 8,20 8,32l0 29c0,20 -7,37 -21,51 -14,14 -31,21 -51,21l-58 0c-5,0 -8,-1 -11,-4 -2,-3 -4,-6 -4,-10 0,-3 2,-7 4,-10 2,-3 6,-4 11,-4l58 0c12,0 22,-5 31,-13 8,-9 12,-19 12,-31l0 -29c0,-12 -4,-22 -12,-31 -9,-8 -19,-12 -31,-12l-29 0c-5,0 -8,-2 -11,-4 -2,-3 -4,-7 -4,-11 0,-3 1,-6 4,-9 2,-4 6,-5 11,-5l29 0c13,0 23,-5 31,-14 8,-8 11,-19 11,-31 0,-11 -3,-21 -10,-29 -8,-9 -19,-13 -32,-13z"/>
   <path class="fil3 str2" d="M13809 7449l29 0c4,0 7,1 10,4 3,3 4,7 4,10 0,4 -1,7 -3,10 -3,3 -6,5 -11,5l-29 0 0 43c0,4 -1,8 -4,11 -3,2 -6,3 -10,3 -4,0 -8,-1 -11,-3 -2,-3 -4,-6 -4,-11l0 -43 -87 0c-10,0 -15,-4 -15,-12l1 -3 0 -4 58 -203c1,-3 3,-5 5,-8l3 -1c2,-1 3,-1 5,-1 5,0 8,1 11,4 3,3 5,6 5,10l-1 4 -53 185 68 0 0 -44c0,-3 2,-7 4,-10 3,-3 7,-4 11,-4 3,0 7,1 10,4 2,2 4,6 4,10l0 44z"/>
   <path class="fil3 str2" d="M15397 7275l0 87 44 0c20,0 37,7 51,21 14,14 21,31 21,51l0 29c0,20 -7,37 -21,51 -14,14 -31,21 -51,21l-58 0c-4,0 -8,-1 -11,-4 -2,-3 -3,-6 -3,-10 0,-3 1,-7 3,-10 3,-3 7,-4 11,-4l58 0c12,0 22,-5 31,-13 8,-8 13,-18 13,-31l0 -29c0,-12 -5,-22 -13,-31 -8,-8 -19,-12 -31,-12l-58 0c-10,0 -14,-5 -14,-15l0 -116c0,-9 4,-14 14,-14l116 0c4,0 7,1 10,4 3,3 4,7 4,10 0,4 -1,7 -3,10 -3,3 -6,5 -11,5l-102 0z"/>
   <path class="fil3 str2" d="M8518 8331l-1 14 0 73c0,8 3,15 9,20 3,3 6,5 9,7 4,1 8,2 11,2l30 0c8,0 14,-3 20,-9 6,-5 9,-12 9,-20l0 -58c0,-9 -3,-15 -9,-21 -5,-6 -12,-8 -20,-8l-58 0zm5 -29l52 0c16,0 30,5 41,17 12,11 17,25 17,41l0 57c0,16 -5,30 -17,41 -11,12 -25,17 -41,17l-28 0c-16,0 -30,-5 -41,-16 -12,-12 -17,-25 -17,-42l0 -72c0,-27 5,-53 15,-78 7,-17 18,-33 32,-47 14,-14 30,-25 48,-33l6 -1c4,0 8,1 11,4 2,3 3,7 3,11 0,3 0,5 -2,7 -1,2 -3,4 -7,6 -3,1 -7,3 -10,5 -3,1 -6,3 -10,6 -6,4 -12,9 -18,15 -11,11 -20,24 -26,38l-5 12 -3 12z"/>
   <path class="fil3 str2" d="M10257 8215l0 14c0,5 -1,8 -4,11 -2,3 -6,4 -10,4 -4,0 -7,-1 -10,-4 -3,-2 -4,-6 -4,-11l0 -29c0,-9 4,-14 14,-14l116 0c10,0 15,4 15,12l-1 6 -73 261c0,3 -2,5 -4,7 -3,2 -6,3 -9,3 -4,0 -8,-1 -11,-3 -2,-3 -4,-6 -4,-11 0,-2 0,-3 1,-4l67 -242 -83 0z"/>
   <path class="fil3 str2" d="M12016 8302c13,0 24,-5 32,-14 7,-8 11,-18 11,-30 0,-12 -4,-22 -11,-30 -8,-9 -19,-13 -32,-13 -13,0 -24,4 -33,13 -7,9 -11,19 -11,30 0,12 4,22 11,30 8,9 19,14 33,14zm0 29c-19,0 -33,6 -44,18 -10,11 -15,24 -15,40 0,15 5,28 15,39 11,13 25,19 44,19 18,0 32,-6 43,-18 10,-11 15,-25 15,-40 0,-16 -5,-29 -15,-40 -10,-12 -25,-18 -43,-18zm47 -16c13,7 23,17 30,31 6,13 10,27 10,43 0,22 -8,42 -22,59 -16,18 -38,27 -65,27 -28,0 -49,-9 -66,-27 -14,-16 -21,-36 -21,-59 0,-16 3,-30 9,-43 7,-13 17,-24 30,-32 -8,-6 -14,-15 -18,-25 -4,-10 -7,-20 -7,-31 0,-19 6,-36 18,-50 14,-15 32,-22 55,-22 22,0 40,7 54,22 12,14 18,31 18,50 0,11 -2,21 -6,31 -4,10 -10,19 -19,26z"/>
   <path class="fil3 str2" d="M13794 8331l1 -7 0 -8 0 -72c0,-9 -3,-15 -9,-21 -5,-6 -12,-8 -20,-8l-30 0c-8,0 -15,2 -20,8 -3,3 -5,6 -7,9 -1,4 -2,8 -2,12l0 58c0,8 3,15 9,20 3,3 6,5 9,7 4,1 8,2 12,2l57 0zm-5 28l-53 0c-15,0 -29,-5 -40,-16 -12,-12 -17,-25 -17,-41l0 -58c0,-16 5,-30 17,-41 11,-12 25,-17 41,-17l28 0c17,0 30,5 42,17 11,11 16,25 16,41l0 72c0,28 -5,54 -15,78 -8,18 -19,34 -32,48 -14,14 -30,25 -48,32l-7 1c-3,0 -6,-1 -9,-4 -3,-3 -4,-7 -4,-11 0,-2 0,-4 1,-7 2,-2 4,-4 7,-5 8,-3 15,-7 21,-11 6,-4 12,-9 18,-15 11,-11 19,-24 26,-39l4 -11 4 -13z"/>
   <path class="fil3 str2" d="M15315 8461c0,4 -1,8 -4,11 -2,2 -6,3 -10,3 -4,0 -7,-1 -10,-3 -3,-3 -4,-6 -4,-11l0 -226 -34 33c-3,3 -6,5 -10,5 -3,0 -6,-2 -10,-5 -3,-3 -4,-6 -4,-10 0,-3 1,-7 4,-10l58 -58c2,-2 4,-3 6,-5 2,-1 4,-1 7,-1 2,0 5,1 8,4 2,3 3,7 3,12l0 261zm203 -49c0,17 -6,32 -18,44 -13,13 -28,19 -46,19l-17 0c-17,0 -32,-6 -45,-18 -12,-12 -19,-27 -19,-45l0 -162c0,-17 7,-32 19,-45 12,-13 27,-19 45,-19l17 0c18,0 33,6 45,18 13,13 19,28 19,46l0 162zm-29 0l0 -163c0,-9 -3,-17 -10,-24 -6,-7 -15,-10 -25,-10l-17 0c-10,0 -18,3 -25,10 -6,7 -10,15 -10,24l0 163c0,9 3,17 10,24 7,7 15,11 25,11l17 0c10,0 18,-4 25,-10 7,-7 10,-15 10,-25z"/>
   <path class="fil3 str2" d="M8575 9401c0,4 -1,8 -4,11 -2,2 -6,3 -10,3 -4,0 -7,-1 -10,-3 -3,-3 -4,-6 -4,-11l0 -226 -34 33c-3,3 -6,5 -10,5 -3,0 -6,-2 -10,-5 -3,-3 -4,-6 -4,-10 0,-3 1,-7 4,-10l58 -58c2,-2 4,-3 6,-5 2,-1 4,-1 7,-1 2,0 5,1 8,4 2,3 3,7 3,12l0 261z"/>
   <path class="fil3 str2" d="M10363 9237l-94 150 90 0c4,0 7,1 10,4 3,3 4,6 4,10 0,3 -1,6 -3,10 -3,3 -6,4 -11,4l-116 0c-10,0 -15,-4 -15,-11 0,-3 1,-7 3,-11l107 -171c4,-7 5,-14 5,-21 0,-13 -4,-23 -14,-33 -5,-4 -10,-7 -16,-10 -6,-2 -13,-3 -20,-3 -7,0 -14,1 -21,5 -7,5 -12,10 -17,17 -1,2 -3,3 -5,5l-7 2c-3,0 -7,-2 -10,-5 -3,-2 -4,-6 -4,-10 0,-1 0,-4 2,-8 7,-10 16,-19 27,-25 5,-3 11,-6 17,-8 5,-1 11,-2 16,-2 23,0 42,7 58,22 15,15 23,33 23,54 0,12 -3,23 -9,35z"/>
   <path class="fil3 str2" d="M12000 9155l-58 0c-5,0 -8,-1 -11,-4 -2,-3 -4,-6 -4,-10 0,-4 2,-7 4,-10 3,-3 6,-5 11,-5l58 0c22,0 40,8 54,22 12,14 18,31 18,50 0,12 -2,23 -7,32 -4,10 -11,19 -21,27 8,6 15,14 20,25 5,10 8,20 8,32l0 29c0,20 -7,37 -21,51 -14,14 -31,21 -51,21l-58 0c-5,0 -8,-1 -11,-4 -2,-3 -4,-6 -4,-10 0,-3 2,-7 4,-10 2,-3 6,-4 11,-4l58 0c12,0 22,-5 31,-13 8,-9 12,-19 12,-31l0 -29c0,-12 -4,-22 -12,-31 -9,-8 -19,-12 -31,-12l-29 0c-5,0 -8,-2 -11,-4 -2,-3 -4,-7 -4,-11 0,-3 1,-6 4,-9 2,-4 6,-5 11,-5l29 0c13,0 23,-5 31,-14 8,-8 11,-19 11,-31 0,-11 -3,-21 -10,-29 -8,-9 -19,-13 -32,-13z"/>
   <path class="fil3 str2" d="M13809 9329l29 0c4,0 7,1 10,4 3,3 4,7 4,10 0,4 -1,7 -3,10 -3,3 -6,5 -11,5l-29 0 0 43c0,4 -1,8 -4,11 -3,2 -6,3 -10,3 -4,0 -8,-1 -11,-3 -2,-3 -4,-6 -4,-11l0 -43 -87 0c-10,0 -15,-4 -15,-12l1 -3 0 -4 58 -203c1,-3 3,-5 5,-8l3 -1c2,-1 3,-1 5,-1 5,0 8,1 11,4 3,3 5,6 5,10l-1 4 -53 185 68 0 0 -44c0,-3 2,-7 4,-10 3,-3 7,-4 11,-4 3,0 7,1 10,4 2,2 4,6 4,10l0 44z"/>
   <path class="fil3 str2" d="M15397 9155l0 87 44 0c20,0 37,7 51,21 14,14 21,31 21,51l0 29c0,20 -7,37 -21,51 -14,14 -31,21 -51,21l-58 0c-4,0 -8,-1 -11,-4 -2,-3 -3,-6 -3,-10 0,-3 1,-7 3,-10 3,-3 7,-4 11,-4l58 0c12,0 22,-5 31,-13 8,-8 13,-18 13,-31l0 -29c0,-12 -5,-22 -13,-31 -8,-8 -19,-12 -31,-12l-58 0c-10,0 -14,-5 -14,-15l0 -116c0,-9 4,-14 14,-14l116 0c4,0 7,1 10,4 3,3 4,7 4,10 0,4 -1,7 -3,10 -3,3 -6,5 -11,5l-102 0z"/>
   <path class="fil3 str2" d="M8518 10211l-1 14 0 73c0,8 3,15 9,20 3,3 6,5 9,7 4,1 8,2 11,2l30 0c8,0 14,-3 20,-9 6,-5 9,-12 9,-20l0 -58c0,-9 -3,-15 -9,-21 -5,-6 -12,-8 -20,-8l-58 0zm5 -29l52 0c16,0 30,5 41,17 12,11 17,25 17,41l0 57c0,16 -5,30 -17,41 -11,12 -25,17 -41,17l-28 0c-16,0 -30,-5 -41,-16 -12,-12 -17,-25 -17,-42l0 -72c0,-27 5,-53 15,-78 7,-17 18,-33 32,-47 14,-14 30,-25 48,-33l6 -1c4,0 8,1 11,4 2,3 3,7 3,11 0,3 0,5 -2,7 -1,2 -3,4 -7,6 -3,1 -7,3 -10,5 -3,1 -6,3 -10,6 -6,4 -12,9 -18,15 -11,11 -20,24 -26,38l-5 12 -3 12z"/>
   <path class="fil3 str2" d="M10257 10095l0 14c0,5 -1,8 -4,11 -2,3 -6,4 -10,4 -4,0 -7,-1 -10,-4 -3,-2 -4,-6 -4,-11l0 -29c0,-9 4,-14 14,-14l116 0c10,0 15,4 15,12l-1 6 -73 261c0,3 -2,5 -4,7 -3,2 -6,3 -9,3 -4,0 -8,-1 -11,-3 -2,-3 -4,-6 -4,-11 0,-2 0,-3 1,-4l67 -242 -83 0z"/>
   <path class="fil3 str2" d="M12016 10182c13,0 24,-5 32,-14 7,-8 11,-18 11,-30 0,-12 -4,-22 -11,-30 -8,-9 -19,-13 -32,-13 -13,0 -24,4 -33,13 -7,9 -11,19 -11,30 0,12 4,22 11,30 8,9 19,14 33,14zm0 29c-19,0 -33,6 -44,18 -10,11 -15,24 -15,40 0,15 5,28 15,39 11,13 25,19 44,19 18,0 32,-6 43,-18 10,-11 15,-25 15,-40 0,-16 -5,-29 -15,-40 -10,-12 -25,-18 -43,-18zm47 -16c13,7 23,17 30,31 6,13 10,27 10,43 0,22 -8,42 -22,59 -16,18 -38,27 -65,27 -28,0 -49,-9 -66,-27 -14,-16 -21,-36 -21,-59 0,-16 3,-30 9,-43 7,-13 17,-24 30,-32 -8,-6 -14,-15 -18,-25 -4,-10 -7,-20 -7,-31 0,-19 6,-36 18,-50 14,-15 32,-22 55,-22 22,0 40,7 54,22 12,14 18,31 18,50 0,11 -2,21 -6,31 -4,10 -10,19 -19,26z"/>
   <path class="fil3 str2" d="M13794 10211l1 -7 0 -8 0 -72c0,-9 -3,-15 -9,-21 -5,-6 -12,-8 -20,-8l-30 0c-8,0 -15,2 -20,8 -3,3 -5,6 -7,9 -1,4 -2,8 -2,12l0 58c0,8 3,15 9,20 3,3 6,5 9,7 4,1 8,2 12,2l57 0zm-5 28l-53 0c-15,0 -29,-5 -40,-16 -12,-12 -17,-25 -17,-41l0 -58c0,-16 5,-30 17,-41 11,-12 25,-17 41,-17l28 0c17,0 30,5 42,17 11,11 16,25 16,41l0 72c0,28 -5,54 -15,78 -8,18 -19,34 -32,48 -14,14 -30,25 -48,32l-7 1c-3,0 -6,-1 -9,-4 -3,-3 -4,-7 -4,-11 0,-2 0,-4 1,-7 2,-2 4,-4 7,-5 8,-3 15,-7 21,-11 6,-4 12,-9 18,-15 11,-11 19,-24 26,-39l4 -11 4 -13z"/>
   <path class="fil3 str2" d="M15315 10341c0,4 -1,8 -4,11 -2,2 -6,3 -10,3 -4,0 -7,-1 -10,-3 -3,-3 -4,-6 -4,-11l0 -226 -34 33c-3,3 -6,5 -10,5 -3,0 -6,-2 -10,-5 -3,-3 -4,-6 -4,-10 0,-3 1,-7 4,-10l58 -58c2,-2 4,-3 6,-5 2,-1 4,-1 7,-1 2,0 5,1 8,4 2,3 3,7 3,12l0 261zm203 -49c0,17 -6,32 -18,44 -13,13 -28,19 -46,19l-17 0c-17,0 -32,-6 -45,-18 -12,-12 -19,-27 -19,-45l0 -162c0,-17 7,-32 19,-45 12,-13 27,-19 45,-19l17 0c18,0 33,6 45,18 13,13 19,28 19,46l0 162zm-29 0l0 -163c0,-9 -3,-17 -10,-24 -6,-7 -15,-10 -25,-10l-17 0c-10,0 -18,3 -25,10 -6,7 -10,15 -10,24l0 163c0,9 3,17 10,24 7,7 15,11 25,11l17 0c10,0 18,-4 25,-10 7,-7 10,-15 10,-25z"/>
   <path class="fil3 str2" d="M8575 11251c0,4 -1,8 -4,11 -2,2 -6,3 -10,3 -4,0 -7,-1 -10,-3 -3,-3 -4,-6 -4,-11l0 -226 -34 33c-3,3 -6,5 -10,5 -3,0 -6,-2 -10,-5 -3,-3 -4,-6 -4,-10 0,-3 1,-7 4,-10l58 -58c2,-2 4,-3 6,-5 2,-1 4,-1 7,-1 2,0 5,1 8,4 2,3 3,7 3,12l0 261z"/>
   <path class="fil3 str2" d="M10363 11087l-94 150 90 0c4,0 7,1 10,4 3,3 4,6 4,10 0,3 -1,6 -3,10 -3,3 -6,4 -11,4l-116 0c-10,0 -15,-4 -15,-11 0,-3 1,-7 3,-11l107 -171c4,-7 5,-14 5,-21 0,-13 -4,-23 -14,-33 -5,-4 -10,-7 -16,-10 -6,-2 -13,-3 -20,-3 -7,0 -14,1 -21,5 -7,5 -12,10 -17,17 -1,2 -3,3 -5,5l-7 2c-3,0 -7,-2 -10,-5 -3,-2 -4,-6 -4,-10 0,-1 0,-4 2,-8 7,-10 16,-19 27,-25 5,-3 11,-6 17,-8 5,-1 11,-2 16,-2 23,0 42,7 58,22 15,15 23,33 23,54 0,12 -3,23 -9,35z"/>
   <path class="fil3 str2" d="M12000 11005l-58 0c-5,0 -8,-1 -11,-4 -2,-3 -4,-6 -4,-10 0,-4 2,-7 4,-10 3,-3 6,-5 11,-5l58 0c22,0 40,8 54,22 12,14 18,31 18,50 0,12 -2,23 -7,32 -4,10 -11,19 -21,27 8,6 15,14 20,25 5,10 8,20 8,32l0 29c0,20 -7,37 -21,51 -14,14 -31,21 -51,21l-58 0c-5,0 -8,-1 -11,-4 -2,-3 -4,-6 -4,-10 0,-3 2,-7 4,-10 2,-3 6,-4 11,-4l58 0c12,0 22,-5 31,-13 8,-9 12,-19 12,-31l0 -29c0,-12 -4,-22 -12,-31 -9,-8 -19,-12 -31,-12l-29 0c-5,0 -8,-2 -11,-4 -2,-3 -4,-7 -4,-11 0,-3 1,-6 4,-9 2,-4 6,-5 11,-5l29 0c13,0 23,-5 31,-14 8,-8 11,-19 11,-31 0,-11 -3,-21 -10,-29 -8,-9 -19,-13 -32,-13z"/>
   <path class="fil3 str2" d="M13809 11179l29 0c4,0 7,1 10,4 3,3 4,7 4,10 0,4 -1,7 -3,10 -3,3 -6,5 -11,5l-29 0 0 43c0,4 -1,8 -4,11 -3,2 -6,3 -10,3 -4,0 -8,-1 -11,-3 -2,-3 -4,-6 -4,-11l0 -43 -87 0c-10,0 -15,-4 -15,-12l1 -3 0 -4 58 -203c1,-3 3,-5 5,-8l3 -1c2,-1 3,-1 5,-1 5,0 8,1 11,4 3,3 5,6 5,10l-1 4 -53 185 68 0 0 -44c0,-3 2,-7 4,-10 3,-3 7,-4 11,-4 3,0 7,1 10,4 2,2 4,6 4,10l0 44z"/>
   <path class="fil3 str2" d="M15397 11005l0 87 44 0c20,0 37,7 51,21 14,14 21,31 21,51l0 29c0,20 -7,37 -21,51 -14,14 -31,21 -51,21l-58 0c-4,0 -8,-1 -11,-4 -2,-3 -3,-6 -3,-10 0,-3 1,-7 3,-10 3,-3 7,-4 11,-4l58 0c12,0 22,-5 31,-13 8,-8 13,-18 13,-31l0 -29c0,-12 -5,-22 -13,-31 -8,-8 -19,-12 -31,-12l-58 0c-10,0 -14,-5 -14,-15l0 -116c0,-9 4,-14 14,-14l116 0c4,0 7,1 10,4 3,3 4,7 4,10 0,4 -1,7 -3,10 -3,3 -6,5 -11,5l-102 0z"/>
   <path class="fil3 str2" d="M8518 12061l-1 14 0 73c0,8 3,15 9,20 3,3 6,5 9,7 4,1 8,2 11,2l30 0c8,0 14,-3 20,-9 6,-5 9,-12 9,-20l0 -58c0,-9 -3,-15 -9,-21 -5,-6 -12,-8 -20,-8l-58 0zm5 -29l52 0c16,0 30,5 41,17 12,11 17,25 17,41l0 57c0,16 -5,30 -17,41 -11,12 -25,17 -41,17l-28 0c-16,0 -30,-5 -41,-16 -12,-12 -17,-25 -17,-42l0 -72c0,-27 5,-53 15,-78 7,-17 18,-33 32,-47 14,-14 30,-25 48,-33l6 -1c4,0 8,1 11,4 2,3 3,7 3,11 0,3 0,5 -2,7 -1,2 -3,4 -7,6 -3,1 -7,3 -10,5 -3,1 -6,3 -10,6 -6,4 -12,9 -18,15 -11,11 -20,24 -26,38l-5 12 -3 12z"/>
   <path class="fil3 str2" d="M10257 11945l0 14c0,5 -1,8 -4,11 -2,3 -6,4 -10,4 -4,0 -7,-1 -10,-4 -3,-2 -4,-6 -4,-11l0 -29c0,-9 4,-14 14,-14l116 0c10,0 15,4 15,12l-1 6 -73 261c0,3 -2,5 -4,7 -3,2 -6,3 -9,3 -4,0 -8,-1 -11,-3 -2,-3 -4,-6 -4,-11 0,-2 0,-3 1,-4l67 -242 -83 0z"/>
   <path class="fil3 str2" d="M12016 12032c13,0 24,-5 32,-14 7,-8 11,-18 11,-30 0,-12 -4,-22 -11,-30 -8,-9 -19,-13 -32,-13 -13,0 -24,4 -33,13 -7,9 -11,19 -11,30 0,12 4,22 11,30 8,9 19,14 33,14zm0 29c-19,0 -33,6 -44,18 -10,11 -15,24 -15,40 0,15 5,28 15,39 11,13 25,19 44,19 18,0 32,-6 43,-18 10,-11 15,-25 15,-40 0,-16 -5,-29 -15,-40 -10,-12 -25,-18 -43,-18zm47 -16c13,7 23,17 30,31 6,13 10,27 10,43 0,22 -8,42 -22,59 -16,18 -38,27 -65,27 -28,0 -49,-9 -66,-27 -14,-16 -21,-36 -21,-59 0,-16 3,-30 9,-43 7,-13 17,-24 30,-32 -8,-6 -14,-15 -18,-25 -4,-10 -7,-20 -7,-31 0,-19 6,-36 18,-50 14,-15 32,-22 55,-22 22,0 40,7 54,22 12,14 18,31 18,50 0,11 -2,21 -6,31 -4,10 -10,19 -19,26z"/>
   <path class="fil3 str2" d="M13794 12061l1 -7 0 -8 0 -72c0,-9 -3,-15 -9,-21 -5,-6 -12,-8 -20,-8l-30 0c-8,0 -15,2 -20,8 -3,3 -5,6 -7,9 -1,4 -2,8 -2,12l0 58c0,8 3,15 9,20 3,3 6,5 9,7 4,1 8,2 12,2l57 0zm-5 28l-53 0c-15,0 -29,-5 -40,-16 -12,-12 -17,-25 -17,-41l0 -58c0,-16 5,-30 17,-41 11,-12 25,-17 41,-17l28 0c17,0 30,5 42,17 11,11 16,25 16,41l0 72c0,28 -5,54 -15,78 -8,18 -19,34 -32,48 -14,14 -30,25 -48,32l-7 1c-3,0 -6,-1 -9,-4 -3,-3 -4,-7 -4,-11 0,-2 0,-4 1,-7 2,-2 4,-4 7,-5 8,-3 15,-7 21,-11 6,-4 12,-9 18,-15 11,-11 19,-24 26,-39l4 -11 4 -13z"/>
   <path class="fil3 str2" d="M15315 12191c0,4 -1,8 -4,11 -2,2 -6,3 -10,3 -4,0 -7,-1 -10,-3 -3,-3 -4,-6 -4,-11l0 -226 -34 33c-3,3 -6,5 -10,5 -3,0 -6,-2 -10,-5 -3,-3 -4,-6 -4,-10 0,-3 1,-7 4,-10l58 -58c2,-2 4,-3 6,-5 2,-1 4,-1 7,-1 2,0 5,1 8,4 2,3 3,7 3,12l0 261zm203 -49c0,17 -6,32 -18,44 -13,13 -28,19 -46,19l-17 0c-17,0 -32,-6 -45,-18 -12,-12 -19,-27 -19,-45l0 -162c0,-17 7,-32 19,-45 12,-13 27,-19 45,-19l17 0c18,0 33,6 45,18 13,13 19,28 19,46l0 162zm-29 0l0 -163c0,-9 -3,-17 -10,-24 -6,-7 -15,-10 -25,-10l-17 0c-10,0 -18,3 -25,10 -6,7 -10,15 -10,24l0 163c0,9 3,17 10,24 7,7 15,11 25,11l17 0c10,0 18,-4 25,-10 7,-7 10,-15 10,-25z"/>
   <path class="fil3 str2" d="M8575 13141c0,4 -1,8 -4,11 -2,2 -6,3 -10,3 -4,0 -7,-1 -10,-3 -3,-3 -4,-6 -4,-11l0 -226 -34 33c-3,3 -6,5 -10,5 -3,0 -6,-2 -10,-5 -3,-3 -4,-6 -4,-10 0,-3 1,-7 4,-10l58 -58c2,-2 4,-3 6,-5 2,-1 4,-1 7,-1 2,0 5,1 8,4 2,3 3,7 3,12l0 261z"/>
   <path class="fil3 str2" d="M10363 12977l-94 150 90 0c4,0 7,1 10,4 3,3 4,6 4,10 0,3 -1,6 -3,10 -3,3 -6,4 -11,4l-116 0c-10,0 -15,-4 -15,-11 0,-3 1,-7 3,-11l107 -171c4,-7 5,-14 5,-21 0,-13 -4,-23 -14,-33 -5,-4 -10,-7 -16,-10 -6,-2 -13,-3 -20,-3 -7,0 -14,1 -21,5 -7,5 -12,10 -17,17 -1,2 -3,3 -5,5l-7 2c-3,0 -7,-2 -10,-5 -3,-2 -4,-6 -4,-10 0,-1 0,-4 2,-8 7,-10 16,-19 27,-25 5,-3 11,-6 17,-8 5,-1 11,-2 16,-2 23,0 42,7 58,22 15,15 23,33 23,54 0,12 -3,23 -9,35z"/>
   <path class="fil3 str2" d="M12000 12895l-58 0c-5,0 -8,-1 -11,-4 -2,-3 -4,-6 -4,-10 0,-4 2,-7 4,-10 3,-3 6,-5 11,-5l58 0c22,0 40,8 54,22 12,14 18,31 18,50 0,12 -2,23 -7,32 -4,10 -11,19 -21,27 8,6 15,14 20,25 5,10 8,20 8,32l0 29c0,20 -7,37 -21,51 -14,14 -31,21 -51,21l-58 0c-5,0 -8,-1 -11,-4 -2,-3 -4,-6 -4,-10 0,-3 2,-7 4,-10 2,-3 6,-4 11,-4l58 0c12,0 22,-5 31,-13 8,-9 12,-19 12,-31l0 -29c0,-12 -4,-22 -12,-31 -9,-8 -19,-12 -31,-12l-29 0c-5,0 -8,-2 -11,-4 -2,-3 -4,-7 -4,-11 0,-3 1,-6 4,-9 2,-4 6,-5 11,-5l29 0c13,0 23,-5 31,-14 8,-8 11,-19 11,-31 0,-11 -3,-21 -10,-29 -8,-9 -19,-13 -32,-13z"/>
   <path class="fil3 str2" d="M13809 13069l29 0c4,0 7,1 10,4 3,3 4,7 4,10 0,4 -1,7 -3,10 -3,3 -6,5 -11,5l-29 0 0 43c0,4 -1,8 -4,11 -3,2 -6,3 -10,3 -4,0 -8,-1 -11,-3 -2,-3 -4,-6 -4,-11l0 -43 -87 0c-10,0 -15,-4 -15,-12l1 -3 0 -4 58 -203c1,-3 3,-5 5,-8l3 -1c2,-1 3,-1 5,-1 5,0 8,1 11,4 3,3 5,6 5,10l-1 4 -53 185 68 0 0 -44c0,-3 2,-7 4,-10 3,-3 7,-4 11,-4 3,0 7,1 10,4 2,2 4,6 4,10l0 44z"/>
   <path class="fil3 str2" d="M15397 12895l0 87 44 0c20,0 37,7 51,21 14,14 21,31 21,51l0 29c0,20 -7,37 -21,51 -14,14 -31,21 -51,21l-58 0c-4,0 -8,-1 -11,-4 -2,-3 -3,-6 -3,-10 0,-3 1,-7 3,-10 3,-3 7,-4 11,-4l58 0c12,0 22,-5 31,-13 8,-8 13,-18 13,-31l0 -29c0,-12 -5,-22 -13,-31 -8,-8 -19,-12 -31,-12l-58 0c-10,0 -14,-5 -14,-15l0 -116c0,-9 4,-14 14,-14l116 0c4,0 7,1 10,4 3,3 4,7 4,10 0,4 -1,7 -3,10 -3,3 -6,5 -11,5l-102 0z"/>
   <path class="fil3 str2" d="M8518 13951l-1 14 0 73c0,8 3,15 9,20 3,3 6,5 9,7 4,1 8,2 11,2l30 0c8,0 14,-3 20,-9 6,-5 9,-12 9,-20l0 -58c0,-9 -3,-15 -9,-21 -5,-6 -12,-8 -20,-8l-58 0zm5 -29l52 0c16,0 30,5 41,17 12,11 17,25 17,41l0 57c0,16 -5,30 -17,41 -11,12 -25,17 -41,17l-28 0c-16,0 -30,-5 -41,-16 -12,-12 -17,-25 -17,-42l0 -72c0,-27 5,-53 15,-78 7,-17 18,-33 32,-47 14,-14 30,-25 48,-33l6 -1c4,0 8,1 11,4 2,3 3,7 3,11 0,3 0,5 -2,7 -1,2 -3,4 -7,6 -3,1 -7,3 -10,5 -3,1 -6,3 -10,6 -6,4 -12,9 -18,15 -11,11 -20,24 -26,38l-5 12 -3 12z"/>
   <path class="fil3 str2" d="M10257 13835l0 14c0,5 -1,8 -4,11 -2,3 -6,4 -10,4 -4,0 -7,-1 -10,-4 -3,-2 -4,-6 -4,-11l0 -29c0,-9 4,-14 14,-14l116 0c10,0 15,4 15,12l-1 6 -73 261c0,3 -2,5 -4,7 -3,2 -6,3 -9,3 -4,0 -8,-1 -11,-3 -2,-3 -4,-6 -4,-11 0,-2 0,-3 1,-4l67 -242 -83 0z"/>
   <path class="fil3 str2" d="M12016 13922c13,0 24,-5 32,-14 7,-8 11,-18 11,-30 0,-12 -4,-22 -11,-30 -8,-9 -19,-13 -32,-13 -13,0 -24,4 -33,13 -7,9 -11,19 -11,30 0,12 4,22 11,30 8,9 19,14 33,14zm0 29c-19,0 -33,6 -44,18 -10,11 -15,24 -15,40 0,15 5,28 15,39 11,13 25,19 44,19 18,0 32,-6 43,-18 10,-11 15,-25 15,-40 0,-16 -5,-29 -15,-40 -10,-12 -25,-18 -43,-18zm47 -16c13,7 23,17 30,31 6,13 10,27 10,43 0,22 -8,42 -22,59 -16,18 -38,27 -65,27 -28,0 -49,-9 -66,-27 -14,-16 -21,-36 -21,-59 0,-16 3,-30 9,-43 7,-13 17,-24 30,-32 -8,-6 -14,-15 -18,-25 -4,-10 -7,-20 -7,-31 0,-19 6,-36 18,-50 14,-15 32,-22 55,-22 22,0 40,7 54,22 12,14 18,31 18,50 0,11 -2,21 -6,31 -4,10 -10,19 -19,26z"/>
   <path class="fil3 str2" d="M13794 13951l1 -7 0 -8 0 -72c0,-9 -3,-15 -9,-21 -5,-6 -12,-8 -20,-8l-30 0c-8,0 -15,2 -20,8 -3,3 -5,6 -7,9 -1,4 -2,8 -2,12l0 58c0,8 3,15 9,20 3,3 6,5 9,7 4,1 8,2 12,2l57 0zm-5 28l-53 0c-15,0 -29,-5 -40,-16 -12,-12 -17,-25 -17,-41l0 -58c0,-16 5,-30 17,-41 11,-12 25,-17 41,-17l28 0c17,0 30,5 42,17 11,11 16,25 16,41l0 72c0,28 -5,54 -15,78 -8,18 -19,34 -32,48 -14,14 -30,25 -48,32l-7 1c-3,0 -6,-1 -9,-4 -3,-3 -4,-7 -4,-11 0,-2 0,-4 1,-7 2,-2 4,-4 7,-5 8,-3 15,-7 21,-11 6,-4 12,-9 18,-15 11,-11 19,-24 26,-39l4 -11 4 -13z"/>
   <path class="fil3 str2" d="M15315 14081c0,4 -1,8 -4,11 -2,2 -6,3 -10,3 -4,0 -7,-1 -10,-3 -3,-3 -4,-6 -4,-11l0 -226 -34 33c-3,3 -6,5 -10,5 -3,0 -6,-2 -10,-5 -3,-3 -4,-6 -4,-10 0,-3 1,-7 4,-10l58 -58c2,-2 4,-3 6,-5 2,-1 4,-1 7,-1 2,0 5,1 8,4 2,3 3,7 3,12l0 261zm203 -49c0,17 -6,32 -18,44 -13,13 -28,19 -46,19l-17 0c-17,0 -32,-6 -45,-18 -12,-12 -19,-27 -19,-45l0 -162c0,-17 7,-32 19,-45 12,-13 27,-19 45,-19l17 0c18,0 33,6 45,18 13,13 19,28 19,46l0 162zm-29 0l0 -163c0,-9 -3,-17 -10,-24 -6,-7 -15,-10 -25,-10l-17 0c-10,0 -18,3 -25,10 -6,7 -10,15 -10,24l0 163c0,9 3,17 10,24 7,7 15,11 25,11l17 0c10,0 18,-4 25,-10 7,-7 10,-15 10,-25z"/>
   <path class="fil3 str2" d="M8575 15001c0,4 -1,8 -4,11 -2,2 -6,3 -10,3 -4,0 -7,-1 -10,-3 -3,-3 -4,-6 -4,-11l0 -226 -34 33c-3,3 -6,5 -10,5 -3,0 -6,-2 -10,-5 -3,-3 -4,-6 -4,-10 0,-3 1,-7 4,-10l58 -58c2,-2 4,-3 6,-5 2,-1 4,-1 7,-1 2,0 5,1 8,4 2,3 3,7 3,12l0 261z"/>
   <path class="fil3 str2" d="M10363 14837l-94 150 90 0c4,0 7,1 10,4 3,3 4,6 4,10 0,3 -1,6 -3,10 -3,3 -6,4 -11,4l-116 0c-10,0 -15,-4 -15,-11 0,-3 1,-7 3,-11l107 -171c4,-7 5,-14 5,-21 0,-13 -4,-23 -14,-33 -5,-4 -10,-7 -16,-10 -6,-2 -13,-3 -20,-3 -7,0 -14,1 -21,5 -7,5 -12,10 -17,17 -1,2 -3,3 -5,5l-7 2c-3,0 -7,-2 -10,-5 -3,-2 -4,-6 -4,-10 0,-1 0,-4 2,-8 7,-10 16,-19 27,-25 5,-3 11,-6 17,-8 5,-1 11,-2 16,-2 23,0 42,7 58,22 15,15 23,33 23,54 0,12 -3,23 -9,35z"/>
   <path class="fil3 str2" d="M12000 14755l-58 0c-5,0 -8,-1 -11,-4 -2,-3 -4,-6 -4,-10 0,-4 2,-7 4,-10 3,-3 6,-5 11,-5l58 0c22,0 40,8 54,22 12,14 18,31 18,50 0,12 -2,23 -7,32 -4,10 -11,19 -21,27 8,6 15,14 20,25 5,10 8,20 8,32l0 29c0,20 -7,37 -21,51 -14,14 -31,21 -51,21l-58 0c-5,0 -8,-1 -11,-4 -2,-3 -4,-6 -4,-10 0,-3 2,-7 4,-10 2,-3 6,-4 11,-4l58 0c12,0 22,-5 31,-13 8,-9 12,-19 12,-31l0 -29c0,-12 -4,-22 -12,-31 -9,-8 -19,-12 -31,-12l-29 0c-5,0 -8,-2 -11,-4 -2,-3 -4,-7 -4,-11 0,-3 1,-6 4,-9 2,-4 6,-5 11,-5l29 0c13,0 23,-5 31,-14 8,-8 11,-19 11,-31 0,-11 -3,-21 -10,-29 -8,-9 -19,-13 -32,-13z"/>
   <path class="fil3 str2" d="M13809 14929l29 0c4,0 7,1 10,4 3,3 4,7 4,10 0,4 -1,7 -3,10 -3,3 -6,5 -11,5l-29 0 0 43c0,4 -1,8 -4,11 -3,2 -6,3 -10,3 -4,0 -8,-1 -11,-3 -2,-3 -4,-6 -4,-11l0 -43 -87 0c-10,0 -15,-4 -15,-12l1 -3 0 -4 58 -203c1,-3 3,-5 5,-8l3 -1c2,-1 3,-1 5,-1 5,0 8,1 11,4 3,3 5,6 5,10l-1 4 -53 185 68 0 0 -44c0,-3 2,-7 4,-10 3,-3 7,-4 11,-4 3,0 7,1 10,4 2,2 4,6 4,10l0 44z"/>
   <path class="fil3 str2" d="M15397 14755l0 87 44 0c20,0 37,7 51,21 14,14 21,31 21,51l0 29c0,20 -7,37 -21,51 -14,14 -31,21 -51,21l-58 0c-4,0 -8,-1 -11,-4 -2,-3 -3,-6 -3,-10 0,-3 1,-7 3,-10 3,-3 7,-4 11,-4l58 0c12,0 22,-5 31,-13 8,-8 13,-18 13,-31l0 -29c0,-12 -5,-22 -13,-31 -8,-8 -19,-12 -31,-12l-58 0c-10,0 -14,-5 -14,-15l0 -116c0,-9 4,-14 14,-14l116 0c4,0 7,1 10,4 3,3 4,7 4,10 0,4 -1,7 -3,10 -3,3 -6,5 -11,5l-102 0z"/>
   <path class="fil3 str2" d="M8518 15811l-1 14 0 73c0,8 3,15 9,20 3,3 6,5 9,7 4,1 8,2 11,2l30 0c8,0 14,-3 20,-9 6,-5 9,-12 9,-20l0 -58c0,-9 -3,-15 -9,-21 -5,-6 -12,-8 -20,-8l-58 0zm5 -29l52 0c16,0 30,5 41,17 12,11 17,25 17,41l0 57c0,16 -5,30 -17,41 -11,12 -25,17 -41,17l-28 0c-16,0 -30,-5 -41,-16 -12,-12 -17,-25 -17,-42l0 -72c0,-27 5,-53 15,-78 7,-17 18,-33 32,-47 14,-14 30,-25 48,-33l6 -1c4,0 8,1 11,4 2,3 3,7 3,11 0,3 0,5 -2,7 -1,2 -3,4 -7,6 -3,1 -7,3 -10,5 -3,1 -6,3 -10,6 -6,4 -12,9 -18,15 -11,11 -20,24 -26,38l-5 12 -3 12z"/>
   <path class="fil3 str2" d="M10257 15695l0 14c0,5 -1,8 -4,11 -2,3 -6,4 -10,4 -4,0 -7,-1 -10,-4 -3,-2 -4,-6 -4,-11l0 -29c0,-9 4,-14 14,-14l116 0c10,0 15,4 15,12l-1 6 -73 261c0,3 -2,5 -4,7 -3,2 -6,3 -9,3 -4,0 -8,-1 -11,-3 -2,-3 -4,-6 -4,-11 0,-2 0,-3 1,-4l67 -242 -83 0z"/>
   <path class="fil3 str2" d="M12016 15782c13,0 24,-5 32,-14 7,-8 11,-18 11,-30 0,-12 -4,-22 -11,-30 -8,-9 -19,-13 -32,-13 -13,0 -24,4 -33,13 -7,9 -11,19 -11,30 0,12 4,22 11,30 8,9 19,14 33,14zm0 29c-19,0 -33,6 -44,18 -10,11 -15,24 -15,40 0,15 5,28 15,39 11,13 25,19 44,19 18,0 32,-6 43,-18 10,-11 15,-25 15,-40 0,-16 -5,-29 -15,-40 -10,-12 -25,-18 -43,-18zm47 -16c13,7 23,17 30,31 6,13 10,27 10,43 0,22 -8,42 -22,59 -16,18 -38,27 -65,27 -28,0 -49,-9 -66,-27 -14,-16 -21,-36 -21,-59 0,-16 3,-30 9,-43 7,-13 17,-24 30,-32 -8,-6 -14,-15 -18,-25 -4,-10 -7,-20 -7,-31 0,-19 6,-36 18,-50 14,-15 32,-22 55,-22 22,0 40,7 54,22 12,14 18,31 18,50 0,11 -2,21 -6,31 -4,10 -10,19 -19,26z"/>
   <path class="fil3 str2" d="M13794 15811l1 -7 0 -8 0 -72c0,-9 -3,-15 -9,-21 -5,-6 -12,-8 -20,-8l-30 0c-8,0 -15,2 -20,8 -3,3 -5,6 -7,9 -1,4 -2,8 -2,12l0 58c0,8 3,15 9,20 3,3 6,5 9,7 4,1 8,2 12,2l57 0zm-5 28l-53 0c-15,0 -29,-5 -40,-16 -12,-12 -17,-25 -17,-41l0 -58c0,-16 5,-30 17,-41 11,-12 25,-17 41,-17l28 0c17,0 30,5 42,17 11,11 16,25 16,41l0 72c0,28 -5,54 -15,78 -8,18 -19,34 -32,48 -14,14 -30,25 -48,32l-7 1c-3,0 -6,-1 -9,-4 -3,-3 -4,-7 -4,-11 0,-2 0,-4 1,-7 2,-2 4,-4 7,-5 8,-3 15,-7 21,-11 6,-4 12,-9 18,-15 11,-11 19,-24 26,-39l4 -11 4 -13z"/>
   <path class="fil3 str2" d="M15315 15941c0,4 -1,8 -4,11 -2,2 -6,3 -10,3 -4,0 -7,-1 -10,-3 -3,-3 -4,-6 -4,-11l0 -226 -34 33c-3,3 -6,5 -10,5 -3,0 -6,-2 -10,-5 -3,-3 -4,-6 -4,-10 0,-3 1,-7 4,-10l58 -58c2,-2 4,-3 6,-5 2,-1 4,-1 7,-1 2,0 5,1 8,4 2,3 3,7 3,12l0 261zm203 -49c0,17 -6,32 -18,44 -13,13 -28,19 -46,19l-17 0c-17,0 -32,-6 -45,-18 -12,-12 -19,-27 -19,-45l0 -162c0,-17 7,-32 19,-45 12,-13 27,-19 45,-19l17 0c18,0 33,6 45,18 13,13 19,28 19,46l0 162zm-29 0l0 -163c0,-9 -3,-17 -10,-24 -6,-7 -15,-10 -25,-10l-17 0c-10,0 -18,3 -25,10 -6,7 -10,15 -10,24l0 163c0,9 3,17 10,24 7,7 15,11 25,11l17 0c10,0 18,-4 25,-10 7,-7 10,-15 10,-25z"/>
   <path class="fil4 str3" d="M7881 7086l150 -225c2,-4 5,-7 10,-10l6 -2 7 0c7,0 15,2 21,8 6,6 9,13 9,21 0,5 -2,10 -5,16l-162 244 162 244 4 9 1 8c0,7 -3,14 -9,20 -6,6 -13,9 -21,9 -9,0 -17,-5 -23,-14l-150 -223 -149 223c-2,4 -6,7 -11,11l-13 3c-6,0 -12,-3 -20,-9 -6,-6 -9,-13 -9,-21 0,-5 1,-10 5,-16l162 -244 -163 -244 -4 -9 0 -8c0,-7 3,-14 9,-20 5,-6 13,-8 21,-8 9,0 17,4 23,13l149 224z"/>
   <path class="fil4 str3" d="M9581 7086l150 -225c2,-4 5,-7 10,-10l6 -2 7 0c7,0 15,2 21,8 6,6 9,13 9,21 0,5 -2,10 -5,16l-162 244 162 244 4 9 1 8c0,7 -3,14 -9,20 -6,6 -13,9 -21,9 -9,0 -17,-5 -23,-14l-150 -223 -149 223c-2,4 -6,7 -11,11l-13 3c-6,0 -12,-3 -20,-9 -6,-6 -9,-13 -9,-21 0,-5 1,-10 5,-16l162 -244 -163 -244 -4 -9 0 -8c0,-7 3,-14 9,-20 5,-6 13,-8 21,-8 9,0 17,4 23,13l149 224z"/>
   <path class="fil4 str3" d="M7881 8066l150 -225c2,-4 5,-7 10,-10l6 -2 7 0c7,0 15,2 21,8 6,6 9,13 9,21 0,5 -2,10 -5,16l-162 244 162 244 4 9 1 8c0,7 -3,14 -9,20 -6,6 -13,9 -21,9 -9,0 -17,-5 -23,-14l-150 -223 -149 223c-2,4 -6,7 -11,11l-13 3c-6,0 -12,-3 -20,-9 -6,-6 -9,-13 -9,-21 0,-5 1,-10 5,-16l162 -244 -163 -244 -4 -9 0 -8c0,-7 3,-14 9,-20 5,-6 13,-8 21,-8 9,0 17,4 23,13l149 224z"/>
   <path class="fil4 str3" d="M11231 7086l150 -225c2,-4 5,-7 10,-10l6 -2 7 0c7,0 15,2 21,8 6,6 9,13 9,21 0,5 -2,10 -5,16l-162 244 162 244 4 9 1 8c0,7 -3,14 -9,20 -6,6 -13,9 -21,9 -9,0 -17,-5 -23,-14l-150 -223 -149 223c-2,4 -6,7 -11,11l-13 3c-6,0 -12,-3 -20,-9 -6,-6 -9,-13 -9,-21 0,-5 1,-10 5,-16l162 -244 -163 -244 -4 -9 0 -8c0,-7 3,-14 9,-20 5,-6 13,-8 21,-8 9,0 17,4 23,13l149 224z"/>
   <path class="fil4 str3" d="M7881 8976l150 -225c2,-4 5,-7 10,-10l6 -2 7 0c7,0 15,2 21,8 6,6 9,13 9,21 0,5 -2,10 -5,16l-162 244 162 244 4 9 1 8c0,7 -3,14 -9,20 -6,6 -13,9 -21,9 -9,0 -17,-5 -23,-14l-150 -223 -149 223c-2,4 -6,7 -11,11l-13 3c-6,0 -12,-3 -20,-9 -6,-6 -9,-13 -9,-21 0,-5 1,-10 5,-16l162 -244 -163 -244 -4 -9 0 -8c0,-7 3,-14 9,-20 5,-6 13,-8 21,-8 9,0 17,4 23,13l149 224z"/>
   <path class="fil4 str3" d="M9581 8976l150 -225c2,-4 5,-7 10,-10l6 -2 7 0c7,0 15,2 21,8 6,6 9,13 9,21 0,5 -2,10 -5,16l-162 244 162 244 4 9 1 8c0,7 -3,14 -9,20 -6,6 -13,9 -21,9 -9,0 -17,-5 -23,-14l-150 -223 -149 223c-2,4 -6,7 -11,11l-13 3c-6,0 -12,-3 -20,-9 -6,-6 -9,-13 -9,-21 0,-5 1,-10 5,-16l162 -244 -163 -244 -4 -9 0 -8c0,-7 3,-14 9,-20 5,-6 13,-8 21,-8 9,0 17,4 23,13l149 224z"/>
   <path class="fil4 str3" d="M11231 8976l150 -225c2,-4 5,-7 10,-10l6 -2 7 0c7,0 15,2 21,8 6,6 9,13 9,21 0,5 -2,10 -5,16l-162 244 162 244 4 9 1 8c0,7 -3,14 -9,20 -6,6 -13,9 -21,9 -9,0 -17,-5 -23,-14l-150 -223 -149 223c-2,4 -6,7 -11,11l-13 3c-6,0 -12,-3 -20,-9 -6,-6 -9,-13 -9,-21 0,-5 1,-10 5,-16l162 -244 -163 -244 -4 -9 0 -8c0,-7 3,-14 9,-20 5,-6 13,-8 21,-8 9,0 17,4 23,13l149 224z"/>
   <path class="fil4 str3" d="M12991 7086l150 -225c2,-4 5,-7 10,-10l6 -2 7 0c7,0 15,2 21,8 6,6 9,13 9,21 0,5 -2,10 -5,16l-162 244 162 244 4 9 1 8c0,7 -3,14 -9,20 -6,6 -13,9 -21,9 -9,0 -17,-5 -23,-14l-150 -223 -149 223c-2,4 -6,7 -11,11l-13 3c-6,0 -12,-3 -20,-9 -6,-6 -9,-13 -9,-21 0,-5 1,-10 5,-16l162 -244 -163 -244 -4 -9 0 -8c0,-7 3,-14 9,-20 5,-6 13,-8 21,-8 9,0 17,4 23,13l149 224z"/>
   <path class="fil4 str3" d="M14641 7086l150 -225c2,-4 5,-7 10,-10l6 -2 7 0c7,0 15,2 21,8 6,6 9,13 9,21 0,5 -2,10 -5,16l-162 244 162 244 4 9 1 8c0,7 -3,14 -9,20 -6,6 -13,9 -21,9 -9,0 -17,-5 -23,-14l-150 -223 -149 223c-2,4 -6,7 -11,11l-13 3c-6,0 -12,-3 -20,-9 -6,-6 -9,-13 -9,-21 0,-5 1,-10 5,-16l162 -244 -163 -244 -4 -9 0 -8c0,-7 3,-14 9,-20 5,-6 13,-8 21,-8 9,0 17,4 23,13l149 224z"/>
   <path class="fil4 str3" d="M7881 10806l150 -225c2,-4 5,-7 10,-10l6 -2 7 0c7,0 15,2 21,8 6,6 9,13 9,21 0,5 -2,10 -5,16l-162 244 162 244 4 9 1 8c0,7 -3,14 -9,20 -6,6 -13,9 -21,9 -9,0 -17,-5 -23,-14l-150 -223 -149 223c-2,4 -6,7 -11,11l-13 3c-6,0 -12,-3 -20,-9 -6,-6 -9,-13 -9,-21 0,-5 1,-10 5,-16l162 -244 -163 -244 -4 -9 0 -8c0,-7 3,-14 9,-20 5,-6 13,-8 21,-8 9,0 17,4 23,13l149 224z"/>
   <path class="fil4 str3" d="M7841 14580l149 -225c3,-3 6,-7 11,-10l6 -2 7 0c7,0 14,3 21,9 6,6 9,13 9,20 0,5 -2,11 -5,16l-163 244 163 245 4 8 1 8c0,8 -3,14 -9,20 -6,6 -13,9 -22,9 -9,0 -16,-4 -23,-13l-149 -224 -149 224c-2,3 -6,7 -11,10l-13 3c-6,0 -13,-3 -20,-9 -6,-5 -10,-12 -10,-20 0,-5 2,-11 5,-16l163 -245 -163 -244 -5 -8 0 -8c0,-8 3,-14 9,-20 6,-6 13,-9 22,-9 9,0 17,4 23,13l149 224z"/>
   <path class="fil4 str3" d="M9541 14580l149 -225c3,-3 6,-7 11,-10l6 -2 7 0c7,0 14,3 21,9 6,6 9,13 9,20 0,5 -2,11 -5,16l-163 244 163 245 4 8 1 8c0,8 -3,14 -9,20 -6,6 -13,9 -22,9 -9,0 -16,-4 -23,-13l-149 -224 -149 224c-2,3 -6,7 -11,10l-13 3c-6,0 -13,-3 -20,-9 -6,-5 -10,-12 -10,-20 0,-5 2,-11 5,-16l163 -245 -163 -244 -5 -8 0 -8c0,-8 3,-14 9,-20 6,-6 13,-9 22,-9 9,0 17,4 23,13l149 224z"/>
   <path class="fil4 str3" d="M11191 14580l149 -225c3,-3 6,-7 11,-10l6 -2 7 0c7,0 14,3 21,9 6,6 9,13 9,20 0,5 -2,11 -5,16l-163 244 163 245 4 8 1 8c0,8 -3,14 -9,20 -6,6 -13,9 -22,9 -9,0 -16,-4 -23,-13l-149 -224 -149 224c-2,3 -6,7 -11,10l-13 3c-6,0 -13,-3 -20,-9 -6,-5 -10,-12 -10,-20 0,-5 2,-11 5,-16l163 -245 -163 -244 -5 -8 0 -8c0,-8 3,-14 9,-20 6,-6 13,-9 22,-9 9,0 17,4 23,13l149 224z"/>
   <path class="fil4 str3" d="M12951 14580l149 -225c3,-3 6,-7 11,-10l6 -2 7 0c7,0 14,3 21,9 6,6 9,13 9,20 0,5 -2,11 -5,16l-163 244 163 245 4 8 1 8c0,8 -3,14 -9,20 -6,6 -13,9 -22,9 -9,0 -16,-4 -23,-13l-149 -224 -149 224c-2,3 -6,7 -11,10l-13 3c-6,0 -13,-3 -20,-9 -6,-5 -10,-12 -10,-20 0,-5 2,-11 5,-16l163 -245 -163 -244 -5 -8 0 -8c0,-8 3,-14 9,-20 6,-6 13,-9 22,-9 9,0 17,4 23,13l149 224z"/>
  </g>
 </g>
</svg>
