<?xml version="1.0" encoding="UTF-8"?>
<!DOCTYPE svg PUBLIC "-//W3C//DTD SVG 1.0//EN" "http://www.w3.org/TR/2001/REC-SVG-20010904/DTD/svg10.dtd">
<!-- Creator: CorelDRAW X7 -->
<svg xmlns="http://www.w3.org/2000/svg" xml:space="preserve" width="200mm" height="200mm" version="1.0" style="shape-rendering:geometricPrecision; text-rendering:geometricPrecision; image-rendering:optimizeQuality; fill-rule:evenodd; clip-rule:evenodd"
viewBox="0 0 20000 20000"
 xmlns:xlink="http://www.w3.org/1999/xlink">
 <defs>
  <style type="text/css">
   <![CDATA[
    .str0 {stroke:#759996;stroke-width:100;stroke-linecap:round;stroke-linejoin:round;stroke-opacity:0.501961}
    .str4 {stroke:#2E99A3;stroke-width:16.61;stroke-linecap:round;stroke-linejoin:round}
    .str3 {stroke:#737370;stroke-width:73.41;stroke-linecap:round;stroke-linejoin:round}
    .str1 {stroke:#B54F66;stroke-width:73.41;stroke-linecap:round;stroke-linejoin:round}
    .str2 {stroke:#CC5770;stroke-width:116.77;stroke-linecap:round;stroke-linejoin:round;stroke-dasharray:84.660000 253.980000}
    .fil13 {fill:none}
    .fil15 {fill:none;fill-rule:nonzero}
    .fil7 {fill:#ABC9BF}
    .fil3 {fill:#B3B3B3}
    .fil1 {fill:#BDD6D1}
    .fil2 {fill:#C4C7C7}
    .fil6 {fill:#C9E6E8}
    .fil12 {fill:#CC5770}
    .fil4 {fill:#D9D9D9}
    .fil5 {fill:#034540;fill-rule:nonzero}
    .fil10 {fill:#2E99A3;fill-rule:nonzero}
    .fil8 {fill:#5C5C5C;fill-rule:nonzero}
    .fil14 {fill:#B54F66;fill-rule:nonzero}
    .fil9 {fill:#BDD6D1;fill-rule:nonzero}
    .fil11 {fill:white;fill-opacity:0.501961}
    .fil0 {fill:url(#id0)}
   ]]>
  </style>
  <radialGradient id="id0" gradientUnits="userSpaceOnUse" gradientTransform="matrix(1.41421 -0 -0 1.41421 -4142 -4142)" cx="10000" cy="10000" r="10000" fx="10000" fy="10000">
   <stop offset="0" style="stop-opacity:1; stop-color:#FEFEFE"/>
   <stop offset="0.439216" style="stop-opacity:1; stop-color:#FEFEFE"/>
   <stop offset="1" style="stop-opacity:1; stop-color:#D1E2F2"/>
  </radialGradient>
 </defs>
 <g id="Layer_x0020_1">
  <metadata id="CorelCorpID_0Corel-Layer"/>
  <g id="_625136536080">
   <path class="fil0" d="M0 0l20000 0 0 20000 -20000 0 0 -20000z"/>
   <path class="fil1" d="M16980 13684l0 -7114 -1243 1227 0 7114 1243 -1227z"/>
   <path class="fil2" d="M11403 7797l0 -611 4334 0 0 611 -4334 0z"/>
   <path class="fil3" d="M17035 6575l0 -669 -1298 1280 0 670 1298 -1281z"/>
   <g>
    <path class="fil4" d="M12732 5959l4248 0 -1243 1227 -4248 0 1243 -1227z"/>
    <path id="1" class="fil5" d="M16980 6032l-4248 0 0 -146 4248 0 50 126 -50 20zm0 -146c39,0 72,33 72,73 0,41 -33,73 -72,73l0 -146zm-1294 1248l1243 -1227 101 105 -1243 1227 -50 20 -51 -125zm101 105c-28,28 -74,27 -102,-2 -28,-28 -27,-75 1,-103l101 105zm-4298 -126l4248 0 0 146 -4248 0 -50 -125 50 -21zm0 146c-40,0 -72,-32 -72,-73 0,-40 32,-73 72,-73l0 146zm1293 -1247l-1242 1227 -101 -105 1242 -1227 51 -21 50 126zm-101 -105c29,-28 75,-27 103,1 27,29 27,75 -2,104l-101 -105z"/>
   </g>
   <path class="fil6" d="M11489 14911l0 -7114 4248 0 0 7114 -4248 0z"/>
   <path class="fil1" d="M12732 13684l4248 0 -1243 1227 -4248 0 1243 -1227z"/>
   <path class="fil7" d="M15737 13684l0 1227 1243 -1227 -1243 0z"/>
   <g>
    <path class="fil8" d="M12871 6692c-67,0 -121,-57 -121,-128 0,-70 54,-127 121,-127l0 255zm2579 0l-2579 0 0 -255 2579 0 0 255zm0 -255c67,0 121,57 121,127 0,71 -54,128 -121,128l0 -255z"/>
   </g>
   <g>
    <path class="fil9" d="M12805 13684c0,39 -33,71 -73,71 -40,0 -73,-32 -73,-71l146 0zm0 -5705l0 5705 -146 0 0 -5705 146 0zm-146 0c0,-40 33,-72 73,-72 40,0 73,32 73,72l-146 0z"/>
   </g>
   <g>
    <path class="fil10" d="M17053 6634l0 7050 -146 0 0 -7050 21 -52 125 52zm-146 0c0,-40 32,-73 73,-73 40,0 73,33 73,73l-146 0zm-1222 1175l1243 -1227 103 103 -1242 1227 -125 -51 21 -52zm104 103c-29,28 -75,28 -104,0 -28,-29 -28,-74 0,-103l104 103zm-125 6999l0 -7050 146 0 0 7050 -21 51 -125 -51zm146 0c0,40 -33,72 -73,72 -40,0 -73,-32 -73,-72l146 0zm1221 -1176l-1242 1227 -104 -102 1243 -1227 125 51 -22 51zm-103 -102c29,-28 75,-28 103,0 29,28 29,74 0,102l-103 -102z"/>
   </g>
   <path class="fil1" d="M9068 13684l0 -7114 -1242 1227 0 7114 1242 -1227z"/>
   <path class="fil2" d="M3492 7797l0 -611 4334 0 0 611 -4334 0z"/>
   <path class="fil3" d="M9123 6575l0 -669 -1297 1280 0 670 1297 -1281z"/>
   <g>
    <path class="fil4" d="M4820 5959l4248 0 -1243 1227 -4247 0 1242 -1227z"/>
    <path id="1" class="fil5" d="M9068 6032l-4248 0 0 -146 4248 0 51 126 -51 20zm0 -146c40,0 72,33 72,73 0,41 -32,73 -72,73l0 -146zm-1293 1248l1243 -1227 101 105 -1243 1227 -51 20 -50 -125zm101 105c-29,28 -74,27 -102,-2 -28,-28 -28,-75 1,-103l101 105zm-4298 -126l4247 0 0 146 -4247 0 -51 -125 51 -21zm0 146c-40,0 -73,-32 -73,-73 0,-40 33,-73 73,-73l0 146zm1293 -1247l-1243 1227 -101 -105 1243 -1227 50 -21 51 126zm-101 -105c28,-28 74,-27 102,1 28,29 27,75 -1,104l-101 -105z"/>
   </g>
   <path class="fil6" d="M3578 14911l0 -7114 4248 0 0 7114 -4248 0z"/>
   <path class="fil1" d="M4820 13684l4248 0 -1242 1227 -4248 0 1242 -1227z"/>
   <path class="fil7" d="M7826 13684l0 1227 1242 -1227 -1242 0z"/>
   <g>
    <path class="fil8" d="M4959 6692c-66,0 -120,-57 -120,-128 0,-70 54,-127 120,-127l0 255zm2579 0l-2579 0 0 -255 2579 0 0 255zm0 -255c67,0 121,57 121,127 0,71 -54,128 -121,128l0 -255z"/>
   </g>
   <g>
    <path class="fil9" d="M4893 13684c0,39 -32,71 -73,71 -40,0 -73,-32 -73,-71l146 0zm0 -5705l0 5705 -146 0 0 -5705 146 0zm-146 0c0,-40 33,-72 73,-72 41,0 73,32 73,72l-146 0z"/>
   </g>
   <g>
    <path class="fil10" d="M9141 6634l0 7050 -146 0 0 -7050 22 -52 124 52zm-146 0c0,-40 33,-73 73,-73 40,0 73,33 73,73l-146 0zm-1221 1175l1243 -1227 103 103 -1243 1227 -125 -51 22 -52zm103 103c-29,28 -75,28 -103,0 -29,-29 -29,-74 0,-103l103 103zm-125 6999l0 -7050 146 0 0 7050 -21 51 -125 -51zm146 0c0,40 -32,72 -73,72 -40,0 -73,-32 -73,-72l146 0zm1222 -1176l-1243 1227 -103 -102 1243 -1227 124 51 -21 51zm-103 -102c28,-28 74,-28 103,0 28,28 28,74 0,102l-103 -102z"/>
   </g>
   <path class="fil11 str0" d="M6178 10108l2224 0 0 2904 -2224 0 0 -2904z"/>
   <path class="fil11 str0" d="M4271 11617l0 -3059 883 895 0 3059 -883 -895z"/>
   <path class="fil11 str0" d="M5878 10296l2163 2163 -1258 -8 -2163 -2163 1258 8z"/>
   <path class="fil11 str0" d="M6836 11860l0 2224 -2904 0 0 -2224 2904 0z"/>
   <path class="fil11 str0" d="M5444 12942l2163 -2164 -1258 8 -2163 2164 1258 -8z"/>
   <path class="fil11 str0" d="M5196 13642l3059 0 -895 884 -3059 0 895 -884z"/>
   <path class="fil11 str0" d="M16781 10408l-2224 0 0 2904 2224 0 0 -2904z"/>
   <path class="fil11 str0" d="M16179 11617l0 -3059 -883 895 0 3059 883 -895z"/>
   <path class="fil11 str0" d="M14573 10296l-2164 2163 1258 -8 2163 -2163 -1257 8z"/>
   <path class="fil11 str0" d="M11902 10855l0 2224 2903 0 0 -2224 -2903 0z"/>
   <path class="fil11 str0" d="M14270 14360l-2163 -2163 1258 8 2163 2163 -1258 -8z"/>
   <path class="fil11 str0" d="M12894 13035l3059 0 -895 884 -3059 0 895 -884z"/>
   <g>
    <path class="fil10" d="M11562 7797l0 7114 -146 0 0 -7114 73 -71 73 71zm-146 0c0,-39 33,-71 73,-71 41,0 73,32 73,71l-146 0zm4321 71l-4248 0 0 -142 4248 0 73 71 -73 71zm0 -142c41,0 73,32 73,71 0,39 -32,71 -73,71l0 -142zm-73 7185l0 -7114 146 0 0 7114 -73 71 -73 -71zm146 0c0,39 -32,71 -73,71 -40,0 -73,-32 -73,-71l146 0zm-4321 -71l4248 0 0 142 -4248 0 -73 -71 73 -71zm0 142c-40,0 -73,-32 -73,-71 0,-39 33,-71 73,-71l0 142z"/>
   </g>
   <g>
    <path class="fil10" d="M3651 7797l0 7114 -146 0 0 -7114 73 -71 73 71zm-146 0c0,-39 32,-71 73,-71 40,0 73,32 73,71l-146 0zm4321 71l-4248 0 0 -142 4248 0 73 71 -73 71zm0 -142c40,0 73,32 73,71 0,39 -33,71 -73,71l0 -142zm-73 7185l0 -7114 146 0 0 7114 -73 71 -73 -71zm146 0c0,39 -33,71 -73,71 -41,0 -73,-32 -73,-71l146 0zm-4321 -71l4248 0 0 142 -4248 0 -73 -71 73 -71zm0 142c-41,0 -73,-32 -73,-71 0,-39 32,-71 73,-71l0 142z"/>
   </g>
   <g>
    <path class="fil5" d="M9018 6574c28,-28 74,-27 102,2 28,28 27,75 -2,103l-100 -105zm-1188 1171l1188 -1171 100 105 -1187 1171 -51 20 -50 -125zm101 105c-29,28 -75,27 -103,-2 -28,-28 -27,-75 2,-103l101 105zm-4353 -126l4302 0 0 146 -4302 0 0 -146zm0 146c-40,0 -73,-32 -73,-73 0,-40 33,-73 73,-73l0 146z"/>
   </g>
   <g>
    <path class="fil5" d="M16929 6574c29,-28 74,-27 102,2 28,28 28,75 -1,103l-101 -105zm-1188 1171l1188 -1171 101 105 -1188 1171 -50 20 -51 -125zm101 105c-29,28 -74,27 -102,-2 -28,-28 -27,-75 1,-103l101 105zm-4353 -126l4303 0 0 146 -4303 0 0 -146zm0 146c-40,0 -72,-32 -72,-73 0,-40 32,-73 72,-73l0 146z"/>
   </g>
   <path class="fil12" d="M16879 5566l-7 57c24,6 48,12 72,20 31,10 48,43 38,73 -10,31 -44,50 -74,40 -18,-6 -34,-13 -51,-17l-5 31 -269 138 -902 -119 23 -170 27 -204 22 -170 902 119 224 202z"/>
   <path class="fil13 str1" d="M16477 5674c29,-43 19,-101 -23,-130 -42,-30 -100,-20 -130,22"/>
   <path class="fil13 str2" d="M16560 7142c-397,-65 -672,-433 -619,-834"/>
   <path class="fil14" d="M16960 5651c156,57 287,161 379,292 112,159 167,359 140,568l0 0c-26,196 -121,367 -257,491 -139,125 -320,202 -515,208 -32,1 -59,-24 -60,-56 -1,-32 24,-59 56,-60 167,-6 322,-71 440,-178 117,-106 198,-252 220,-420l0 0 0 -1c24,-177 -23,-349 -119,-485 -81,-115 -196,-205 -333,-253l-3 -1c30,10 64,-9 74,-40 8,-25 -2,-51 -22,-65zm-992 397c55,-89 146,-191 301,-366 31,-34 64,-73 92,-104 21,-24 58,-26 82,-5 24,21 27,58 5,82 -38,44 -66,75 -92,104 -158,179 -245,276 -294,361 -28,47 -71,52 -97,34 -23,-15 -34,-47 3,-106zm555 -702c75,-133 142,-289 199,-459 59,-176 106,-368 142,-566 5,-32 35,-53 67,-48 32,6 53,36 47,68 -35,202 -85,399 -146,582 -53,161 -115,310 -185,440l-124 -17z"/>
   <path class="fil15 str3" d="M15922 6058c-22,47 -2,102 45,124 46,22 102,2 124,-45"/>
   <path class="fil15 str3" d="M16754 7054c-51,10 -84,59 -75,110 10,50 59,84 110,74"/>
   <path class="fil12" d="M11274 6621l35 46c21,-14 43,-26 65,-37 29,-15 64,-3 79,25 14,29 3,66 -26,81 -16,8 -32,15 -48,24l19 25 -95 287 -725 549 -104 -137 -124 -164 -103 -137 725 -549 302 -13z"/>
   <path class="fil13 str1" d="M11063 6980c-8,-51 -56,-85 -107,-77 -51,9 -85,57 -77,108"/>
   <path class="fil13 str2" d="M12448 7137c122,383 -81,795 -462,931"/>
   <path class="fil14" d="M11391 6624c151,-68 317,-87 475,-58 192,35 371,139 498,306l0 0c15,20 30,41 43,62 23,38 1,72 -44,72l-64 0c-13,-21 -12,-43 -28,-63l0 0 0 0c-108,-144 -262,-233 -426,-262 -138,-25 -283,-8 -415,53l-3 2c29,-15 40,-52 26,-81 -12,-23 -38,-35 -62,-31zm-170 1349c146,117 331,183 526,177 32,-1 58,-28 57,-60 -1,-33 -28,-58 -60,-57 -167,5 -326,-51 -450,-151 -268,-214 -240,-439 -257,-756 -2,-40 -4,-81 -7,-139 -2,-33 -30,-57 -62,-55 -32,2 -56,29 -55,61 3,42 5,93 8,139 19,361 -3,598 300,841zm-355 -1259c-40,-147 -102,-306 -181,-467 -82,-166 -182,-336 -297,-502 -18,-27 -11,-63 15,-81 27,-19 63,-12 81,15 117,169 220,344 305,517 75,152 135,302 177,443l-100 75z"/>
   <path class="fil15 str3" d="M12249 6963c9,51 57,85 108,76 51,-9 85,-58 76,-108"/>
   <path class="fil15 str3" d="M11736 8185c52,3 96,-35 100,-87 4,-51 -35,-96 -87,-100"/>
   <path class="fil12" d="M8968 5566l-8 57c24,6 49,12 73,20 30,10 47,43 37,73 -10,31 -43,50 -74,40 -17,-6 -34,-13 -51,-17l-4 31 -269 138 -902 -119 22 -170 27 -204 22 -170 902 119 225 202z"/>
   <path class="fil13 str1" d="M8565 5674c30,-42 20,-101 -23,-130 -42,-30 -100,-20 -130,22"/>
   <path class="fil13 str2" d="M8648 7142c-396,-65 -672,-433 -619,-834"/>
   <path class="fil14" d="M9048 5651c156,57 287,161 380,292 112,159 166,359 139,568l0 0c-26,196 -121,367 -257,491 -139,125 -320,202 -515,208 -32,1 -59,-24 -60,-56 -1,-32 24,-59 57,-60 167,-6 321,-71 440,-178 116,-106 197,-252 220,-420l0 0 0 -1c23,-177 -24,-349 -120,-485 -80,-115 -196,-205 -333,-253l-3 -1c31,10 64,-9 74,-40 8,-25 -1,-51 -22,-65zm-992 397c56,-89 146,-191 301,-366 31,-34 65,-73 92,-104 21,-24 58,-26 82,-5 25,21 27,58 6,82 -39,44 -66,75 -93,104 -158,179 -244,276 -294,361 -27,47 -71,52 -97,34 -23,-15 -34,-47 3,-106zm555 -702c76,-133 143,-289 199,-459 59,-176 107,-368 142,-566 5,-32 36,-53 67,-48 32,6 53,36 48,68 -36,202 -85,399 -146,582 -54,161 -116,310 -186,440l-124 -17z"/>
   <path class="fil15 str3" d="M8010 6058c-22,47 -2,102 45,124 47,22 102,2 124,-45"/>
   <path class="fil15 str3" d="M8842 7055c-51,9 -84,58 -74,109 9,50 58,84 109,74"/>
   <path class="fil12" d="M3362 6621l35 46c21,-14 43,-26 66,-37 28,-15 63,-3 78,25 14,29 3,66 -25,81 -17,8 -33,15 -48,24l19 25 -95 287 -726 549 -103 -137 -125 -164 -103 -137 725 -549 302 -13z"/>
   <path class="fil13 str1" d="M3152 6980c-9,-51 -57,-85 -108,-77 -51,9 -85,57 -77,108"/>
   <path class="fil13 str2" d="M4536 7137c122,383 -81,796 -462,931"/>
   <path class="fil14" d="M3479 6624c151,-68 317,-87 475,-58 192,35 372,139 498,306l0 0c16,20 30,41 43,62 23,38 1,72 -44,72l-64 0c-13,-21 -12,-43 -27,-63l0 0 0 0c-109,-144 -262,-233 -426,-262 -138,-25 -284,-8 -415,53l-3 2c28,-15 39,-52 25,-81 -12,-23 -38,-35 -62,-31zm-170 1349c146,117 332,183 526,177 33,-1 58,-28 57,-60 -1,-33 -28,-58 -60,-57 -167,5 -326,-51 -450,-151 -268,-214 -240,-439 -256,-756 -3,-40 -5,-81 -8,-139 -2,-33 -29,-57 -61,-55 -33,2 -57,29 -55,61 2,42 5,93 7,139 19,361 -3,598 300,841zm-355 -1259c-40,-147 -102,-306 -181,-467 -81,-166 -182,-336 -296,-502 -19,-27 -12,-63 15,-81 26,-19 62,-12 81,15 116,169 220,344 305,517 74,152 134,302 176,443l-100 75z"/>
   <path class="fil15 str3" d="M4337 6963c9,51 58,85 109,76 50,-9 84,-58 75,-108"/>
   <path class="fil15 str3" d="M3824 8185c52,3 97,-35 100,-87 4,-51 -35,-96 -86,-100"/>
   <path class="fil10 str4" d="M12630 9848c0,-67 -29,-109 -87,-129 40,-24 60,-56 60,-106l0 -28c0,-92 -53,-139 -156,-139l-96 0c-28,0 -40,18 -40,38l0 500c0,19 12,37 40,37l123 0c104,0 156,-55 156,-147l0 -26zm-242 -83l86 0c57,0 79,33 79,83l0 26c0,50 -22,73 -79,73l-86 0 0 -182zm0 -72l0 -173 59 0c56,0 79,16 79,65l0 28c0,49 -23,80 -79,80l-59 0zm468 -24l-57 0 0 -193c0,-20 -11,-38 -38,-38 -27,0 -39,18 -39,38l0 507c0,19 12,38 38,38l96 0c104,0 152,-55 152,-148l0 -49c0,-90 -48,-155 -152,-155zm-57 74l57 0c57,0 76,31 76,81l0 49c0,50 -19,74 -76,74l-57 0 0 -204zm345 249l0 -516c0,-20 -11,-38 -38,-38 -26,0 -39,18 -39,38l0 516c0,20 11,38 38,38 26,0 39,-18 39,-38zm269 -318l-74 0 0 -154 166 0c19,0 36,-11 36,-37 0,-25 -17,-37 -36,-37l-205 0c-26,0 -38,16 -38,36l0 502c0,19 12,37 39,37l112 0c105,0 152,-55 152,-147l0 -47c0,-91 -47,-153 -152,-153zm77 200c0,50 -20,74 -77,74l-74 0 0 -205 74 0c57,0 77,31 77,81l0 50zm236 -276c0,-51 18,-86 75,-86l25 0c56,0 75,35 75,86l0 271c0,51 -19,87 -75,87l-25 0c-57,0 -75,-36 -75,-87l0 -271zm252 0c0,-90 -48,-160 -152,-160l-25 0c-104,0 -152,70 -152,160l0 271c0,91 48,161 152,161l25 0c104,0 152,-70 152,-161l0 -271zm187 126l0 -205 83 0c57,0 77,25 77,74l0 50c0,50 -20,81 -77,81l-83 0zm83 74c105,0 152,-65 152,-155l0 -50c0,-92 -47,-147 -152,-147l-122 0c-27,0 -38,18 -38,38l0 508c0,20 11,38 39,38 27,0 38,-18 38,-38l0 -194 83 0zm380 -129l-57 0 0 -193c0,-20 -11,-38 -38,-38 -28,0 -39,18 -39,38l0 507c0,19 11,38 38,38l96 0c104,0 152,-55 152,-148l0 -49c0,-90 -48,-155 -152,-155zm-57 74l57 0c57,0 76,31 76,81l0 49c0,50 -19,74 -76,74l-57 0 0 -204zm345 249l0 -516c0,-20 -11,-38 -38,-38 -27,0 -39,18 -39,38l0 516c0,20 11,38 38,38 26,0 39,-18 39,-38z"/>
   <path class="fil10 str4" d="M4718 9848c0,-67 -28,-109 -87,-129 40,-24 60,-56 60,-106l0 -28c0,-92 -52,-139 -156,-139l-96 0c-28,0 -40,18 -40,38l0 500c0,19 12,37 40,37l123 0c105,0 156,-55 156,-147l0 -26zm-241 -83l85 0c57,0 79,33 79,83l0 26c0,50 -22,73 -79,73l-85 0 0 -182zm0 -72l0 -173 58 0c56,0 79,16 79,65l0 28c0,49 -23,80 -79,80l-58 0zm467 -24l-56 0 0 -193c0,-20 -12,-38 -39,-38 -27,0 -39,18 -39,38l0 507c0,19 12,38 38,38l96 0c105,0 152,-55 152,-148l0 -49c0,-90 -47,-155 -152,-155zm-56 74l56 0c57,0 77,31 77,81l0 49c0,50 -20,74 -77,74l-56 0 0 -204zm344 249l0 -516c0,-20 -11,-38 -38,-38 -26,0 -38,18 -38,38l0 516c0,20 10,38 37,38 27,0 39,-18 39,-38zm270 -318l-74 0 0 -154 166 0c18,0 36,-11 36,-37 0,-25 -18,-37 -36,-37l-206 0c-26,0 -38,16 -38,36l0 502c0,19 13,37 39,37l113 0c104,0 152,-55 152,-147l0 -47c0,-91 -48,-153 -152,-153zm76 200c0,50 -20,74 -76,74l-74 0 0 -205 74 0c56,0 76,31 76,81l0 50zm237 -276c0,-51 18,-86 74,-86l25 0c57,0 75,35 75,86l0 271c0,51 -18,87 -75,87l-25 0c-56,0 -74,-36 -74,-87l0 -271zm251 0c0,-90 -48,-160 -152,-160l-25 0c-104,0 -152,70 -152,160l0 271c0,91 48,161 152,161l25 0c104,0 152,-70 152,-161l0 -271zm187 126l0 -205 83 0c57,0 77,25 77,74l0 50c0,50 -20,81 -77,81l-83 0zm83 74c105,0 153,-65 153,-155l0 -50c0,-92 -48,-147 -153,-147l-122 0c-26,0 -38,18 -38,38l0 508c0,20 12,38 39,38 27,0 38,-18 38,-38l0 -194 83 0zm380 -129l-57 0 0 -193c0,-20 -11,-38 -38,-38 -27,0 -39,18 -39,38l0 507c0,19 12,38 38,38l96 0c105,0 152,-55 152,-148l0 -49c0,-90 -47,-155 -152,-155zm-57 74l57 0c57,0 77,31 77,81l0 49c0,50 -20,74 -77,74l-57 0 0 -204zm345 249l0 -516c0,-20 -11,-38 -38,-38 -26,0 -39,18 -39,38l0 516c0,20 11,38 38,38 26,0 39,-18 39,-38z"/>
  </g>
 </g>
</svg>
