<?xml version="1.0" encoding="UTF-8"?>
<!DOCTYPE svg PUBLIC "-//W3C//DTD SVG 1.0//EN" "http://www.w3.org/TR/2001/REC-SVG-20010904/DTD/svg10.dtd">
<!-- Creator: CorelDRAW X7 -->
<svg xmlns="http://www.w3.org/2000/svg" xml:space="preserve" width="200mm" height="200mm" version="1.0" style="shape-rendering:geometricPrecision; text-rendering:geometricPrecision; image-rendering:optimizeQuality; fill-rule:evenodd; clip-rule:evenodd"
viewBox="0 0 20000 20000"
 xmlns:xlink="http://www.w3.org/1999/xlink">
 <defs>
  <style type="text/css">
   <![CDATA[
    .str7 {stroke:#759996;stroke-width:100;stroke-linecap:round;stroke-linejoin:round;stroke-opacity:0.501961}
    .str11 {stroke:#CC7587;stroke-width:38.49}
    .str10 {stroke:#AB8082;stroke-width:43.86}
    .str6 {stroke:#CC7587;stroke-width:14.52}
    .str4 {stroke:#AB8082;stroke-width:66.14}
    .str8 {stroke:#759996;stroke-width:100;stroke-linecap:round;stroke-linejoin:round}
    .str5 {stroke:#57A6B3;stroke-width:8.22;stroke-linecap:round;stroke-linejoin:round}
    .str1 {stroke:#034540;stroke-width:124.03;stroke-linecap:round;stroke-linejoin:round}
    .str0 {stroke:#4D8A7D;stroke-width:124.03;stroke-linecap:round;stroke-linejoin:round}
    .str9 {stroke:#CC7587;stroke-width:88.51;stroke-linecap:round;stroke-linejoin:round}
    .str3 {stroke:#2E99A3;stroke-width:107.29;stroke-linecap:round;stroke-linejoin:round}
    .str12 {stroke:#CC7587;stroke-width:110.9;stroke-linecap:round;stroke-linejoin:round;stroke-dasharray:253.980000 253.980000}
    .str2 {stroke:#CC7587;stroke-width:114.06;stroke-linecap:round;stroke-linejoin:round;stroke-dasharray:253.980000 253.980000}
    .fil2 {fill:none}
    .fil4 {fill:none;fill-rule:nonzero}
    .fil12 {fill:#738287}
    .fil8 {fill:#ABC9BF}
    .fil7 {fill:#BDD6D1}
    .fil6 {fill:#C9E6E8}
    .fil1 {fill:#EBF2D9}
    .fil17 {fill:white}
    .fil10 {fill:#0066A3;fill-rule:nonzero}
    .fil9 {fill:#2E99A3;fill-rule:nonzero}
    .fil3 {fill:#4D8A7D;fill-rule:nonzero}
    .fil14 {fill:#57A6B3;fill-rule:nonzero}
    .fil11 {fill:#738287;fill-rule:nonzero}
    .fil13 {fill:#AB8082;fill-rule:nonzero}
    .fil15 {fill:#BDD6D1;fill-rule:nonzero}
    .fil5 {fill:#CC7587;fill-rule:nonzero}
    .fil16 {fill:white;fill-opacity:0.501961}
    .fil0 {fill:url(#id0)}
   ]]>
  </style>
  <radialGradient id="id0" gradientUnits="userSpaceOnUse" gradientTransform="matrix(1.41421 -0 -0 1.41421 -4142 -4142)" cx="10000" cy="10000" r="10000" fx="10000" fy="10000">
   <stop offset="0" style="stop-opacity:1; stop-color:#FEFEFE"/>
   <stop offset="0.439216" style="stop-opacity:1; stop-color:#FEFEFE"/>
   <stop offset="1" style="stop-opacity:1; stop-color:#D1E2F2"/>
  </radialGradient>
 </defs>
 <g id="Layer_x0020_1">
  <metadata id="CorelCorpID_0Corel-Layer"/>
  <g id="_625136522288">
   <path class="fil0" d="M0 0l20000 0 0 20000 -20000 0 0 -20000z"/>
   <path class="fil1" d="M5142 14507l920 0 1880 0 0 -2930 0 -849 -2800 0 0 3779z"/>
   <path class="fil2 str0" d="M8394 11543l0 -1226 -2800 0"/>
   <path class="fil2 str0" d="M8168 11577c0,-979 0,-75 0,-1054 -653,0 -2147,0 -2800,0"/>
   <path class="fil3" d="M5510 12119l-46 0 0 -96 103 0c12,0 23,-7 23,-23 0,-15 -11,-23 -23,-23l-128 0c-16,0 -23,10 -23,23l0 311c0,13 8,24 24,24l70 0c65,0 95,-34 95,-92l0 -29c0,-57 -30,-95 -95,-95zm48 124c0,31 -13,46 -48,46l-46 0 0 -127 46 0c35,0 48,19 48,50l0 31zm290 -271l-5 0c-68,0 -94,58 -94,114l0 37 -42 0 0 -128c0,-12 -5,-23 -22,-23 -17,0 -23,11 -23,23l0 321c0,13 6,24 23,24 17,0 22,-11 22,-24l0 -147 42 0 0 77c0,56 29,94 94,94l5 0c65,0 95,-44 95,-100l0 -168c0,-57 -30,-100 -95,-100zm47 268c0,32 -11,54 -47,54l-5 0c-35,0 -46,-16 -46,-48l0 -160c0,-32 9,-68 46,-68l5 0c36,0 47,22 47,54l0 168zm179 30c1,-11 17,-247 17,-247l72 0 0 293c0,13 7,24 24,24 17,0 24,-11 24,-24l0 -315c0,-13 -7,-24 -24,-24l-117 0c-16,0 -24,12 -24,24 0,0 -17,252 -17,258 -1,6 -1,15 -4,22 -5,8 -13,14 -25,14 -13,0 -24,8 -24,24 0,18 11,23 24,23 36,0 57,-14 68,-40 3,-9 6,-21 6,-32zm273 0c1,-11 17,-247 17,-247l72 0 0 293c0,13 7,24 24,24 17,0 24,-11 24,-24l0 -315c0,-13 -7,-24 -24,-24l-117 0c-16,0 -24,12 -24,24 0,0 -17,252 -17,258 -1,6 -1,15 -4,22 -5,8 -13,14 -25,14 -13,0 -24,8 -24,24 0,18 11,23 24,23 36,0 57,-14 68,-40 3,-9 6,-21 6,-32zm368 65c11,0 22,-7 22,-23 0,-16 -11,-23 -22,-23l-110 0 0 -115 87 0c12,0 23,-7 23,-23 0,-16 -11,-23 -23,-23l-87 0 0 -105 110 0c11,0 22,-7 22,-23 0,-15 -11,-23 -22,-23l-134 0c-17,0 -24,11 -24,24l0 310c0,13 7,24 24,24l134 0zm130 -19c0,13 7,24 24,24 16,0 24,-11 24,-24l0 -293 59 0c12,0 22,-7 22,-23 0,-15 -10,-23 -22,-23l-166 0c-12,0 -23,8 -23,23 0,16 11,23 23,23l59 0 0 293zm331 19c12,0 22,-7 22,-23 0,-16 -10,-23 -22,-23l-110 0 0 -115 87 0c12,0 23,-7 23,-23 0,-16 -11,-23 -23,-23l-87 0 0 -105 110 0c12,0 22,-7 22,-23 0,-15 -10,-23 -22,-23l-134 0c-17,0 -24,11 -24,24l0 310c0,13 7,24 24,24l134 0zm275 -340c0,-12 -7,-23 -24,-23 -17,0 -24,11 -24,23l0 128 -104 0 0 -128c0,-12 -6,-23 -24,-23 -16,0 -24,11 -24,23l0 321c0,13 8,24 24,24 17,0 24,-11 24,-24l0 -147 104 0 0 147c0,13 7,24 24,24 17,0 24,-11 24,-24l0 -321zm174 121l-52 0 0 -121c0,-12 -7,-23 -24,-23 -17,0 -24,11 -24,23l0 316c0,12 7,23 23,23l77 0c64,0 94,-34 94,-91l0 -31c0,-56 -30,-96 -94,-96zm-52 46l52 0c35,0 47,19 47,50l0 31c0,30 -12,46 -47,46l-52 0 0 -127z"/>
   <path class="fil4 str0" d="M8845 11577l0 -1670 -2800 0"/>
   <path class="fil4 str0" d="M8619 11577c0,-979 0,-486 0,-1465 -653,0 -2147,0 -2800,0"/>
   <path class="fil4 str1" d="M7942 11577l0 -849 -2800 0 0 3779 920 0"/>
   <path class="fil1" d="M9771 14507l919 0 1881 0 0 -2930 0 -849 -2800 0 0 3779z"/>
   <path class="fil2 str0" d="M13022 11543l0 -1226 -2800 0"/>
   <path class="fil2 str0" d="M12796 11577c0,-979 0,-75 0,-1054 -652,0 -2147,0 -2799,0"/>
   <path class="fil3" d="M10139 12119l-46 0 0 -96 103 0c12,0 22,-7 22,-23 0,-15 -10,-23 -22,-23l-128 0c-16,0 -23,10 -23,23l0 311c0,13 7,24 24,24l70 0c64,0 94,-34 94,-92l0 -29c0,-57 -30,-95 -94,-95zm47 124c0,31 -12,46 -47,46l-46 0 0 -127 46 0c35,0 47,19 47,50l0 31zm291 -271l-5 0c-69,0 -95,58 -95,114l0 37 -41 0 0 -128c0,-12 -5,-23 -23,-23 -16,0 -23,11 -23,23l0 321c0,13 7,24 23,24 17,0 23,-11 23,-24l0 -147 41 0 0 77c0,56 30,94 95,94l5 0c65,0 94,-44 94,-100l0 -168c0,-57 -29,-100 -94,-100zm46 268c0,32 -11,54 -46,54l-5 0c-35,0 -47,-16 -47,-48l0 -160c0,-32 10,-68 47,-68l5 0c35,0 46,22 46,54l0 168zm180 30c1,-11 17,-247 17,-247l71 0 0 293c0,13 7,24 25,24 16,0 23,-11 23,-24l0 -315c0,-13 -7,-24 -23,-24l-117 0c-17,0 -24,12 -25,24 0,0 -16,252 -17,258 0,6 -1,15 -4,22 -4,8 -12,14 -25,14 -12,0 -23,8 -23,24 0,18 11,23 23,23 37,0 58,-14 68,-40 4,-9 6,-21 7,-32zm273 0c1,-11 17,-247 17,-247l71 0 0 293c0,13 7,24 25,24 16,0 23,-11 23,-24l0 -315c0,-13 -7,-24 -23,-24l-117 0c-17,0 -24,12 -25,24 0,0 -16,252 -17,258 0,6 -1,15 -4,22 -4,8 -12,14 -25,14 -12,0 -23,8 -23,24 0,18 11,23 23,23 36,0 58,-14 68,-40 4,-9 6,-21 7,-32zm367 65c12,0 23,-7 23,-23 0,-16 -11,-23 -23,-23l-109 0 0 -115 87 0c12,0 22,-7 22,-23 0,-16 -10,-23 -22,-23l-87 0 0 -105 109 0c12,0 23,-7 23,-23 0,-15 -11,-23 -23,-23l-134 0c-16,0 -23,11 -23,24l0 310c0,13 7,24 23,24l134 0zm131 -19c0,13 6,24 23,24 16,0 24,-11 24,-24l0 -293 59 0c12,0 23,-7 23,-23 0,-15 -11,-23 -23,-23l-166 0c-11,0 -22,8 -22,23 0,16 11,23 22,23l60 0 0 293zm330 19c12,0 23,-7 23,-23 0,-16 -11,-23 -23,-23l-109 0 0 -115 87 0c12,0 22,-7 22,-23 0,-16 -10,-23 -22,-23l-87 0 0 -105 109 0c12,0 23,-7 23,-23 0,-15 -11,-23 -23,-23l-134 0c-16,0 -23,11 -23,24l0 310c0,13 7,24 23,24l134 0zm276 -340c0,-12 -8,-23 -24,-23 -17,0 -24,11 -24,23l0 128 -104 0 0 -128c0,-12 -7,-23 -24,-23 -16,0 -24,11 -24,23l0 321c0,13 8,24 24,24 17,0 24,-11 24,-24l0 -147 104 0 0 147c0,13 6,24 24,24 16,0 24,-11 24,-24l0 -321zm173 121l-52 0 0 -121c0,-12 -7,-23 -24,-23 -16,0 -24,11 -24,23l0 316c0,12 8,23 24,23l76 0c65,0 95,-34 95,-91l0 -31c0,-56 -30,-96 -95,-96zm-52 46l52 0c35,0 48,19 48,50l0 31c0,30 -13,46 -48,46l-52 0 0 -127z"/>
   <path class="fil4 str0" d="M13473 11577l0 -1670 -2800 0"/>
   <path class="fil4 str0" d="M13248 11577c0,-979 0,-486 0,-1465 -653,0 -2148,0 -2800,0"/>
   <path class="fil4 str1" d="M12571 11577l0 -849 -2800 0 0 3779 919 0"/>
   <path class="fil5" d="M9541 10110l-96 0 -292 -450 96 -62 292 450 -96 0 96 62zm0 0l-48 74 -48 -74 96 0zm244 -481l48 31 -292 450 -96 -62 292 -450 48 31zm-235 362l0 3 0 2 -1 3 0 3 -1 3 0 3 -1 2 -1 3 -2 2 -1 3 -1 2 -2 2 -1 3 -2 2 -2 2 -2 2 -2 2 -2 2 -2 1 -2 2 -2 1 -3 2 -2 1 -3 1 -2 1 -3 1 -3 1 -2 0 -3 1 -3 0 -3 1 -3 0 -3 0 -3 -1 -3 0 -2 -1 -3 0 -3 -1 -3 -1 -2 -1 -3 -1 -2 -1 -3 -2 -2 -1 -2 -2 -2 -1 -2 -2 -2 -2 -2 -2 -2 -2 -2 -2 -1 -3 -2 -2 -1 -2 -1 -3 -1 -2 -2 -3 0 -2 -1 -3 -1 -3 0 -3 -1 -3 0 -2 0 -3 114 0zm-114 -729l114 0 0 729 -114 0 0 -729zm0 0l0 -3 0 -3 1 -3 0 -3 1 -3 1 -2 0 -3 2 -3 1 -2 1 -3 1 -2 2 -2 1 -3 2 -2 2 -2 2 -2 2 -2 2 -1 2 -2 2 -2 2 -1 3 -2 2 -1 3 -1 2 -1 3 -1 3 -1 3 0 2 -1 3 0 3 0 3 0 3 0 3 0 3 0 3 1 2 0 3 1 3 1 2 1 3 1 2 1 3 2 2 1 2 2 2 2 2 1 2 2 2 2 2 2 2 2 1 3 2 2 1 2 1 3 2 2 1 3 1 3 0 2 1 3 0 3 1 3 0 3 0 3 -114 0z"/>
   <path class="fil4 str2" d="M9493 8759l0 504"/>
   <path class="fil6" d="M1350 7981l0 -2826 790 -781 -1 781 1913 0 0 2826 -2702 0z"/>
   <path class="fil7" d="M4843 7120l0 -2746 -791 781 0 2826 791 -861z"/>
   <path class="fil7" d="M2140 7201l2622 0 -710 780 -2702 0 790 -780z"/>
   <path class="fil8" d="M4052 7201l0 780 710 -780 -710 0z"/>
   <g>
    <path class="fil9" d="M4896 4375l0 2745 -107 0 0 -2745 16 -38 91 38zm-107 0c0,-30 24,-54 54,-54 29,0 53,24 53,54l-107 0zm-775 742l791 -780 76 75 -791 781 -92 -38 16 -38zm76 76c-21,20 -55,20 -76,0 -21,-21 -21,-55 0,-76l76 76zm-92 2788l0 -2826 108 0 0 2826 -14 36 -94 -36zm108 0c0,30 -24,54 -54,54 -30,0 -54,-24 -54,-54l108 0zm776 -825l-790 861 -80 -71 791 -862 93 36 -14 36zm-79 -72c20,-21 54,-23 76,-3 22,19 23,53 3,75l-79 -72z"/>
   </g>
   <path class="fil2 str3" d="M1350 7981l0 -2826 2702 0 0 2826 -2702 0z"/>
   <g>
    <path class="fil10" d="M4843 4428l-2703 0 0 -107 2703 0 37 92 -37 15zm0 -107c29,0 53,24 53,53 0,30 -24,54 -53,54l0 -107zm-828 796l790 -781 75 77 -791 780 -37 16 -37 -92zm74 76c-21,21 -54,21 -75,-1 -20,-21 -20,-55 1,-75l74 76zm-2739 -92l2702 0 0 108 -2702 0 -37 -92 37 -16zm0 108c-30,0 -53,-24 -53,-54 0,-30 23,-54 53,-54l0 108zm827 -796l-790 780 -74 -76 790 -781 37 -15 37 92zm-74 -77c21,-21 55,-20 75,1 21,21 20,55 -1,76l-74 -77z"/>
   </g>
   <path class="fil11" d="M4427 5006c-1,-61 34,-113 78,-115 45,-2 82,46 84,107 13,522 235,837 471,1171l0 -1 1 1c1,2 3,4 4,7 123,175 198,342 184,480 -16,155 -121,252 -355,258l0 -224c134,-3 191,-27 195,-65 6,-60 -50,-166 -139,-294 -2,-1 -3,-3 -4,-4l0 0 0 -1 0 -1 -1 0c-258,-365 -502,-710 -518,-1319z"/>
   <path class="fil12" d="M4594 4890c48,0 86,74 86,166 0,92 -38,167 -86,167 -47,0 -86,-75 -86,-167 0,-92 39,-166 86,-166z"/>
   <path class="fil13 str4" d="M2973 6046c-16,0 -28,8 -37,17 -52,57 -110,114 -171,170 -19,18 -26,40 -1,65 23,23 45,15 64,-1 38,-31 77,-72 110,-110l0 513 -132 0c-26,0 -47,13 -47,47 0,34 21,47 47,47l341 0c27,0 48,-13 48,-47 0,-34 -21,-47 -48,-47l-110 0 0 -604c0,-28 -9,-50 -46,-50l-18 0z"/>
   <path class="fil13" d="M2357 6602c0,18 3,37 4,49l0 0 -154 -315c-8,-17 -19,-23 -32,-23 -23,0 -32,15 -32,31l0 426c0,16 9,31 32,31 21,0 30,-15 30,-31l0 -258c0,-18 -2,-37 -4,-49l1 0 153 315c8,16 19,23 32,23 23,0 33,-15 33,-31l0 -426c0,-16 -9,-31 -32,-31 -22,0 -31,15 -31,31l0 258zm172 -146c-20,0 -26,-12 -26,-31l0 -34c0,-19 6,-30 26,-30l10 0c21,0 26,11 26,30l0 34c0,19 -5,31 -26,31l-10 0zm11 45c47,0 69,-31 69,-72l0 -41c0,-41 -22,-72 -69,-72l-12 0c-47,0 -69,31 -69,72l0 41c0,41 22,72 69,72l12 0zm47 80c14,0 24,-6 24,-24 0,-18 -10,-24 -24,-24l-105 0c-14,0 -25,6 -25,24 0,18 11,24 25,24l105 0z"/>
   <path class="fil14 str5" d="M2214 7275c0,-33 -15,-55 -44,-64 20,-12 30,-28 30,-53l0 -14c0,-45 -26,-69 -77,-69l-48 0c-14,0 -19,9 -19,19l0 248c0,10 5,19 19,19l61 0c52,0 78,-28 78,-73l0 -13zm-120 -42l42 0c28,0 39,17 39,42l0 13c0,24 -11,36 -39,36l-42 0 0 -91zm0 -35l0 -86 29 0c27,0 39,8 39,32l0 14c0,25 -12,40 -39,40l-29 0zm232 -12l-29 0 0 -96c0,-10 -5,-19 -19,-19 -13,0 -19,9 -19,19l0 251c0,10 6,19 19,19l48 0c51,0 75,-27 75,-73l0 -24c0,-45 -24,-77 -75,-77zm-29 36l29 0c28,0 37,16 37,41l0 24c0,25 -9,37 -37,37l-29 0 0 -102zm171 124l0 -256c0,-10 -5,-19 -19,-19 -13,0 -19,9 -19,19l0 256c0,10 6,19 19,19 13,0 19,-9 19,-19zm134 -158l-37 0 0 -76 82 0c10,0 18,-5 18,-18 0,-12 -8,-19 -18,-19l-101 0c-14,0 -19,8 -19,18l0 249c0,10 6,19 19,19l56 0c51,0 75,-28 75,-73l0 -24c0,-45 -24,-76 -75,-76zm38 100c0,24 -10,36 -38,36l-37 0 0 -102 37 0c28,0 38,16 38,41l0 25zm117 -137c0,-25 9,-43 37,-43l12 0c28,0 37,18 37,43l0 134c0,25 -9,43 -37,43l-12 0c-28,0 -37,-18 -37,-43l0 -134zm125 0c0,-45 -24,-80 -76,-80l-12 0c-52,0 -75,35 -75,80l0 134c0,45 23,80 75,80l12 0c52,0 76,-35 76,-80l0 -134zm92 62l0 -101 42 0c28,0 37,12 37,36l0 25c0,25 -9,40 -37,40l-42 0zm42 37c51,0 75,-32 75,-77l0 -25c0,-45 -24,-73 -75,-73l-61 0c-13,0 -19,9 -19,19l0 252c0,10 6,19 19,19 14,0 19,-9 19,-19l0 -96 42 0zm188 -64l-28 0 0 -96c0,-10 -6,-19 -20,-19 -13,0 -19,9 -19,19l0 251c0,10 6,19 19,19l48 0c51,0 75,-27 75,-73l0 -24c0,-45 -24,-77 -75,-77zm-28 36l28 0c28,0 38,16 38,41l0 24c0,25 -10,37 -38,37l-28 0 0 -102zm170 124l0 -256c0,-10 -5,-19 -19,-19 -13,0 -19,9 -19,19l0 256c0,10 6,19 19,19 13,0 19,-9 19,-19z"/>
   <path class="fil7" d="M14480 6143l0 -3042 -1862 1838 0 3042 1862 -1838z"/>
   <path class="fil6" d="M11298 3101l-1862 1838 3182 0 1862 -1838 -3182 0z"/>
   <path class="fil7" d="M11298 6143l3182 0 -1862 1838 -3182 0 1862 -1838z"/>
   <path class="fil8" d="M12618 6143l0 1838 1862 -1838 -1862 0z"/>
   <g>
    <path class="fil15" d="M11357 6143c0,32 -27,57 -59,57 -32,0 -59,-25 -59,-57l118 0zm0 -2950l0 2950 -118 0 0 -2950 118 0zm-118 0c0,-31 27,-57 59,-57 32,0 59,26 59,57l-118 0z"/>
   </g>
   <path class="fil6" d="M5242 7981l0 -2826 791 -781 -2 781 1913 0 0 2826 -2702 0z"/>
   <path class="fil7" d="M8735 7120l0 -2746 -791 781 0 2826 791 -861z"/>
   <path class="fil7" d="M6033 7201l2621 0 -710 780 -2702 0 791 -780z"/>
   <path class="fil8" d="M7944 7201l0 780 710 -780 -710 0z"/>
   <g>
    <path class="fil9" d="M8789 4375l0 2745 -108 0 0 -2745 16 -38 92 38zm-108 0c0,-30 24,-54 54,-54 30,0 54,24 54,54l-108 0zm-775 742l791 -780 76 75 -791 781 -91 -38 15 -38zm76 76c-21,20 -55,20 -76,0 -21,-21 -21,-55 0,-76l76 76zm-91 2788l0 -2826 107 0 0 2826 -14 36 -93 -36zm107 0c0,30 -24,54 -54,54 -29,0 -53,-24 -53,-54l107 0zm777 -825l-791 861 -79 -71 790 -862 94 36 -14 36zm-80 -72c20,-21 54,-23 76,-3 22,19 24,53 4,75l-80 -72z"/>
   </g>
   <path class="fil2 str3" d="M5242 7981l0 -2826 2703 0 0 2826 -2703 0z"/>
   <g>
    <path class="fil10" d="M8735 4428l-2703 0 0 -107 2703 0 37 92 -37 15zm0 -107c29,0 53,24 53,53 0,30 -24,54 -53,54l0 -107zm-828 796l791 -781 74 77 -791 780 -37 16 -37 -92zm74 76c-21,21 -54,21 -75,-1 -20,-21 -20,-55 1,-75l74 76zm-2739 -92l2702 0 0 108 -2702 0 -37 -92 37 -16zm0 108c-29,0 -53,-24 -53,-54 0,-30 24,-54 53,-54l0 108zm828 -796l-791 780 -74 -76 790 -781 37 -15 38 92zm-75 -77c21,-21 55,-20 75,1 21,21 21,55 0,76l-75 -77z"/>
   </g>
   <path class="fil11" d="M8320 5006c-2,-61 33,-113 78,-115 44,-2 81,46 83,107 13,522 236,837 472,1171l0 -1 0 1c2,2 3,4 5,7 123,175 197,342 183,480 -16,155 -121,252 -355,258l0 -224c134,-3 191,-27 195,-65 6,-60 -49,-166 -139,-294 -1,-1 -2,-3 -4,-4l0 0 0 -1 0 -1 0 0c-259,-365 -503,-710 -518,-1319z"/>
   <path class="fil12" d="M8487 4890c47,0 86,74 86,166 0,92 -39,167 -86,167 -48,0 -87,-75 -87,-167 0,-92 39,-166 87,-166z"/>
   <path class="fil5 str6" d="M5026 16851l-76 0 0 -97 133 0c12,0 23,-7 23,-23 0,-16 -11,-24 -23,-24l-157 0c-17,0 -25,12 -25,24l0 316c0,13 8,24 25,24l100 0c67,0 99,-44 99,-101l0 -23c0,-58 -32,-96 -99,-96zm51 124c0,32 -14,49 -50,49l-77 0 0 -129 76 0c35,0 51,18 51,49l0 31zm305 -273c-70,0 -101,59 -101,116l0 37 -47 0 0 -129c0,-13 -5,-24 -23,-24 -16,0 -23,11 -23,24l0 326c0,13 7,24 23,24 17,0 23,-11 23,-24l0 -150 47 0 0 69c0,57 31,105 97,105l27 0c66,0 99,-47 99,-104l0 -166c0,-57 -33,-104 -99,-104l-23 0zm73 270c0,33 -14,57 -50,57l-25 0c-36,0 -50,-24 -50,-57l0 -150c0,-33 14,-73 52,-73l23 0c35,0 50,25 50,54l0 169zm185 34c4,-30 31,-252 31,-252l91 0 0 298c0,13 7,24 25,24 16,0 24,-11 24,-24l0 -321c0,-12 -8,-24 -24,-24l-136 0c-15,0 -23,10 -25,24 -2,15 -30,242 -32,263 -2,12 -3,19 -6,25 -6,9 -14,12 -30,12 -12,0 -23,8 -23,24 0,18 11,24 23,24 46,0 64,-15 75,-41 3,-10 5,-19 7,-32zm322 0c4,-30 31,-252 31,-252l91 0 0 298c0,13 7,24 25,24 17,0 24,-11 24,-24l0 -321c0,-12 -7,-24 -24,-24l-136 0c-15,0 -23,10 -25,24 -1,15 -29,242 -32,263 -1,12 -3,19 -6,25 -5,9 -14,12 -29,12 -13,0 -24,8 -24,24 0,18 11,24 24,24 45,0 64,-15 74,-41 4,-10 6,-19 7,-32zm441 65c12,0 23,-7 23,-23 0,-16 -11,-24 -23,-24l-142 0 0 -117 117 0c12,0 23,-6 23,-23 0,-16 -11,-23 -23,-23l-117 0 0 -107 142 0c12,0 23,-7 23,-23 0,-16 -11,-24 -23,-24l-167 0c-17,0 -24,12 -24,24l0 316c0,13 7,24 24,24l167 0zm174 5c17,0 24,-11 24,-24l0 -298 76 0c12,0 23,-7 23,-23 0,-16 -11,-24 -23,-24l-201 0c-12,0 -22,8 -22,24 0,16 10,23 22,23l76 0 0 298c0,13 8,24 25,24zm360 -5c12,0 23,-7 23,-23 0,-16 -11,-24 -23,-24l-142 0 0 -117 117 0c12,0 23,-6 23,-23 0,-16 -11,-23 -23,-23l-117 0 0 -107 142 0c12,0 23,-7 23,-23 0,-16 -11,-24 -23,-24l-167 0c-17,0 -24,12 -24,24l0 316c0,13 7,24 24,24l167 0zm316 -345c0,-13 -8,-24 -25,-24 -17,0 -24,11 -24,24l0 129 -137 0 0 -129c0,-13 -7,-24 -24,-24 -17,0 -25,11 -25,24l0 326c0,13 8,24 25,24 17,0 24,-11 24,-24l0 -150 137 0 0 150c0,13 6,24 24,24 17,0 25,-11 25,-24l0 -326zm265 326c0,13 7,24 24,24 17,0 24,-11 24,-24l0 -326c0,-13 -7,-24 -25,-24 -10,0 -17,4 -24,18l-139 247 -1 0c1,-9 2,-22 2,-36l0 -205c0,-13 -6,-24 -23,-24 -18,0 -24,11 -24,24l0 326c0,13 7,24 24,24 10,0 17,-3 25,-17l139 -248 0 0c-1,10 -2,22 -2,36l0 205zm109 80c0,17 9,21 19,21 11,0 16,-8 18,-17l16 -82c5,-26 -3,-39 -26,-39 -22,0 -27,14 -27,30l0 87zm437 -80c0,13 7,24 24,24 18,0 24,-11 24,-24l0 -326c0,-13 -7,-24 -25,-24 -10,0 -16,4 -24,18l-139 247 0 0c1,-9 2,-22 2,-36l0 -205c0,-13 -7,-24 -24,-24 -17,0 -24,11 -24,24l0 326c0,13 7,24 25,24 10,0 16,-3 24,-17l139 -248 1 0c-1,10 -3,22 -3,36l0 205zm279 -254c0,31 -22,60 -57,60l-19 0c-12,0 -23,8 -23,23 0,16 11,23 23,23l39 0c36,0 50,28 50,60l0 12c0,32 -12,53 -51,53l-39 0c-20,0 -39,-8 -41,-30 -1,-13 -8,-24 -24,-24 -18,0 -25,11 -25,24 0,49 37,77 90,77l43 0c63,0 95,-43 95,-100l0 -12c0,-43 -20,-81 -60,-90 35,-16 48,-45 48,-76 0,-58 -28,-96 -97,-96l-23 0c-53,0 -89,27 -89,77 0,13 7,24 25,24 17,0 23,-11 24,-24 1,-20 22,-30 44,-30l19 0c35,0 48,14 48,49zm174 111l85 0c36,0 50,23 50,55l0 11c0,32 -14,49 -50,49l-85 0 0 -115zm0 -46l0 -109 63 0c35,0 50,12 50,44l0 12c0,31 -15,53 -50,53l-63 0zm184 101c0,-43 -19,-73 -58,-85 23,-14 35,-37 35,-69l0 -12c0,-59 -33,-91 -98,-91l-87 0c-18,0 -25,12 -25,24l0 316c0,13 7,24 25,24l109 0c66,0 99,-37 99,-96l0 -11zm128 42c4,-30 31,-252 31,-252l91 0 0 298c0,13 7,24 25,24 16,0 24,-11 24,-24l0 -321c0,-12 -8,-24 -24,-24l-136 0c-15,0 -23,10 -25,24 -1,15 -30,242 -32,263 -2,12 -3,19 -6,25 -6,9 -14,12 -29,12 -13,0 -24,8 -24,24 0,18 11,24 24,24 45,0 63,-15 74,-41 3,-10 6,-19 7,-32zm441 65c12,0 23,-7 23,-23 0,-16 -11,-24 -23,-24l-142 0 0 -117 117 0c12,0 23,-6 23,-23 0,-16 -11,-23 -23,-23l-117 0 0 -107 142 0c12,0 23,-7 23,-23 0,-16 -11,-24 -23,-24l-167 0c-17,0 -24,12 -24,24l0 316c0,13 7,24 24,24l167 0zm177 -154l65 0 0 135c0,13 7,24 25,24 16,0 24,-11 24,-24l0 -326c0,-13 -8,-24 -24,-24 -18,0 -25,11 -25,24l0 144c0,0 -52,0 -74,0 -30,0 -46,-20 -46,-45 0,-22 0,-99 0,-99 0,-13 -7,-24 -24,-24 -17,0 -25,11 -25,24l0 94c0,56 25,97 104,97zm384 154c12,0 23,-7 23,-23 0,-16 -11,-24 -23,-24l-142 0 0 -117 117 0c12,0 23,-6 23,-23 0,-16 -11,-23 -23,-23l-117 0 0 -107 142 0c12,0 23,-7 23,-23 0,-16 -11,-24 -23,-24l-167 0c-17,0 -24,12 -24,24l0 316c0,13 7,24 24,24l167 0zm316 -345c0,-13 -8,-24 -25,-24 -17,0 -24,11 -24,24l0 129 -137 0 0 -129c0,-13 -6,-24 -24,-24 -17,0 -25,11 -25,24l0 326c0,13 8,24 25,24 17,0 24,-11 24,-24l0 -150 137 0 0 150c0,13 7,24 24,24 17,0 25,-11 25,-24l0 -326zm313 0c0,-13 -7,-24 -24,-24 -17,0 -25,11 -25,24l0 129 -136 0 0 -129c0,-13 -7,-24 -25,-24 -16,0 -24,11 -24,24l0 326c0,13 8,24 24,24 17,0 25,-11 25,-24l0 -150 136 0 0 150c0,13 7,24 25,24 17,0 24,-11 24,-24l0 -326zm386 326l0 -326c0,-13 -7,-24 -24,-24 -17,0 -25,11 -25,24l0 326c0,13 7,24 24,24 17,0 25,-11 25,-24zm-193 -204l-65 0 0 -122c0,-13 -7,-24 -24,-24 -17,0 -25,11 -25,24l0 321c0,13 8,24 25,24l89 0c67,0 99,-44 99,-101l0 -23c0,-58 -31,-99 -99,-99zm51 127c0,32 -14,49 -50,49l-66 0 0 -129 65 0c36,0 51,18 51,49l0 31zm412 96c12,0 23,-7 23,-23 0,-16 -11,-24 -23,-24l-143 0 0 -117 118 0c12,0 23,-6 23,-23 0,-16 -11,-23 -23,-23l-118 0 0 -107 143 0c12,0 23,-7 23,-23 0,-16 -11,-24 -23,-24l-168 0c-16,0 -23,12 -23,24l0 316c0,13 7,24 23,24l168 0zm407 -19c0,13 7,24 23,24 18,0 25,-11 25,-24l0 -326c0,-13 -8,-24 -25,-24 -10,0 -17,4 -25,18l-138 247 -1 0c1,-9 2,-22 2,-36l0 -205c0,-13 -7,-24 -23,-24 -18,0 -25,11 -25,24l0 326c0,13 8,24 25,24 10,0 17,-3 25,-17l138 -248 1 0c-1,10 -2,22 -2,36l0 205zm278 -254c0,31 -21,60 -57,60l-18 0c-12,0 -23,8 -23,23 0,16 11,23 23,23l38 0c36,0 50,28 50,60l0 12c0,32 -11,53 -50,53l-39 0c-21,0 -40,-8 -42,-30 -1,-13 -7,-24 -24,-24 -18,0 -25,11 -25,24 0,49 37,77 90,77l43 0c63,0 96,-43 96,-100l0 -12c0,-43 -20,-81 -60,-90 35,-16 47,-45 47,-76 0,-58 -28,-96 -97,-96l-23 0c-53,0 -89,27 -89,77 0,13 8,24 25,24 17,0 24,-11 24,-24 1,-20 22,-30 44,-30l19 0c35,0 48,14 48,49zm440 -44l0 298c0,13 6,24 24,24 17,0 25,-11 25,-24l0 -321c0,-12 -8,-24 -25,-24l-175 0c-17,0 -24,12 -24,24l0 321c0,13 7,24 24,24 17,0 24,-11 24,-24l0 -298 127 0zm319 317c12,0 23,-7 23,-23 0,-16 -11,-24 -23,-24l-143 0 0 -117 118 0c12,0 23,-6 23,-23 0,-16 -11,-23 -23,-23l-118 0 0 -107 143 0c12,0 23,-7 23,-23 0,-16 -11,-24 -23,-24l-167 0c-17,0 -24,12 -24,24l0 316c0,13 7,24 24,24l167 0zm130 -188l0 -130 81 0c36,0 51,19 51,50l0 26c0,32 -15,54 -51,54l-81 0zm81 47c67,0 100,-44 100,-101l0 -26c0,-58 -33,-96 -100,-96l-106 0c-17,0 -24,12 -24,24l0 321c0,13 7,24 24,24 18,0 25,-11 25,-24l0 -122 81 0zm352 141c12,0 23,-7 23,-23 0,-16 -11,-24 -23,-24l-142 0 0 -117 117 0c12,0 23,-6 23,-23 0,-16 -11,-23 -23,-23l-117 0 0 -107 142 0c12,0 23,-7 23,-23 0,-16 -11,-24 -23,-24l-167 0c-17,0 -24,12 -24,24l0 316c0,13 7,24 24,24l167 0zm316 -345c0,-13 -8,-24 -25,-24 -17,0 -24,11 -24,24l0 129 -137 0 0 -129c0,-13 -6,-24 -24,-24 -17,0 -25,11 -25,24l0 326c0,13 8,24 25,24 17,0 24,-11 24,-24l0 -150 137 0 0 150c0,13 7,24 24,24 17,0 25,-11 25,-24l0 -326zm123 80c0,-32 14,-57 49,-57l42 0c36,0 50,25 50,57l0 166c0,33 -14,57 -50,57l-42 0c-35,0 -49,-24 -49,-57l0 -166zm190 0c0,-57 -33,-104 -99,-104l-42 0c-66,0 -98,47 -98,104l0 166c0,57 32,104 98,104l42 0c66,0 99,-47 99,-104l0 -166zm167 223c-36,0 -50,-24 -50,-57l0 -166c0,-32 14,-57 50,-57l53 0c23,0 35,9 37,30 1,13 7,24 24,24 17,0 25,-11 25,-24 0,-54 -33,-77 -86,-77l-53 0c-66,0 -99,47 -99,104l0 166c0,57 33,104 99,104l53 0c53,0 86,-23 86,-77 0,-13 -8,-24 -25,-24 -17,0 -23,11 -24,24 -2,22 -14,30 -37,30l-53 0zm434 -303c0,-13 -8,-24 -24,-24 -17,0 -25,11 -25,24l0 129 -136 0 0 -129c0,-13 -7,-24 -25,-24 -16,0 -24,11 -24,24l0 326c0,13 8,24 24,24 17,0 25,-11 25,-24l0 -150 136 0 0 150c0,13 7,24 25,24 16,0 24,-11 24,-24l0 -326zm385 326l0 -326c0,-13 -6,-24 -23,-24 -17,0 -25,11 -25,24l0 326c0,13 7,24 24,24 17,0 24,-11 24,-24zm-192 -204l-65 0 0 -122c0,-13 -7,-24 -24,-24 -17,0 -25,11 -25,24l0 321c0,13 8,24 25,24l89 0c67,0 99,-44 99,-101l0 -23c0,-58 -31,-99 -99,-99zm51 127c0,32 -14,49 -50,49l-66 0 0 -129 65 0c35,0 51,18 51,49l0 31zm319 -139l-66 -120c-7,-12 -18,-18 -33,-10 -15,7 -15,21 -10,31l81 143 -90 161c-5,10 -5,24 10,32 14,7 26,1 32,-11l76 -137 75 137c7,13 18,18 33,11 14,-8 15,-22 10,-32l-91 -161 81 -143c6,-10 5,-24 -10,-31 -14,-8 -25,-2 -32,10l-66 120zm-11794 885c0,13 7,24 23,24 18,0 25,-11 25,-24l0 -326c0,-13 -8,-24 -25,-24 -10,0 -17,4 -25,18l-139 247 0 0c1,-9 2,-22 2,-36l0 -205c0,-13 -7,-24 -23,-24 -18,0 -25,11 -25,24l0 326c0,13 7,24 25,24 10,0 17,-3 25,-17l138 -248 1 0c-1,10 -2,22 -2,36l0 205zm360 -23c-36,0 -50,-24 -50,-57l0 -166c0,-32 14,-57 50,-57l53 0c22,0 34,9 36,30 1,13 7,24 24,24 18,0 25,-11 25,-24 0,-54 -32,-77 -85,-77l-53 0c-67,0 -99,47 -99,104l0 166c0,57 32,104 99,104l53 0c53,0 85,-23 85,-77 0,-13 -7,-24 -25,-24 -17,0 -23,11 -24,24 -2,22 -14,30 -36,30l-53 0zm289 47c17,0 24,-11 24,-24l0 -298 76 0c12,0 23,-7 23,-23 0,-16 -11,-24 -23,-24l-200 0c-12,0 -23,8 -23,24 0,16 11,23 23,23l76 0 0 298c0,13 7,24 24,24zm296 -107l29 91c4,12 16,19 30,15 14,-5 19,-17 15,-30l-105 -325c-3,-12 -10,-18 -24,-18l-3 0c-14,0 -21,6 -24,18l-105 325c-4,13 1,25 15,30 14,4 26,-3 30,-15l29 -91 113 0zm-65 -157c4,-12 6,-17 8,-30l1 0c2,13 4,18 7,30l36 113 -87 0 35 -113zm363 259c9,0 19,0 27,-1l-30 51c-3,4 -4,9 -4,13 0,9 9,24 26,24 9,0 16,-5 21,-13l49 -86c2,-3 3,-7 3,-11 0,-17 -11,-24 -23,-24l-21 0 0 -298c0,-13 -8,-24 -25,-24 -18,0 -24,11 -24,24l0 298 -127 0 0 -298c0,-13 -7,-24 -24,-24 -17,0 -25,11 -25,24l0 321c0,13 8,24 25,24l152 0zm328 -19c0,13 7,24 24,24 17,0 24,-11 24,-24l0 -326c0,-13 -7,-24 -25,-24 -10,0 -17,4 -24,18l-139 247 -1 0c1,-9 2,-22 2,-36l0 -205c0,-13 -6,-24 -23,-24 -18,0 -24,11 -24,24l0 326c0,13 7,24 25,24 9,0 16,-3 24,-17l139 -248 0 0c-1,10 -2,22 -2,36l0 205zm171 -246c0,-32 14,-57 50,-57l41 0c36,0 50,25 50,57l0 166c0,33 -14,57 -50,57l-41 0c-36,0 -50,-24 -50,-57l0 -166zm190 0c0,-57 -33,-104 -99,-104l-41 0c-66,0 -99,47 -99,104l0 166c0,57 33,104 99,104l41 0c66,0 99,-47 99,-104l0 -166zm308 -80c0,-13 -8,-24 -24,-24 -17,0 -25,11 -25,24l0 129 -136 0 0 -129c0,-13 -7,-24 -25,-24 -16,0 -24,11 -24,24l0 326c0,13 8,24 24,24 17,0 25,-11 25,-24l0 -150 136 0 0 150c0,13 7,24 25,24 16,0 24,-11 24,-24l0 -326zm235 243l29 91c4,12 16,19 30,15 13,-5 19,-17 15,-30l-105 -325c-4,-12 -10,-18 -24,-18l-3 0c-15,0 -21,6 -24,18l-105 325c-5,13 1,25 15,30 14,4 26,-3 30,-15l29 -91 113 0zm-65 -157c4,-12 5,-17 8,-30l1 0c2,13 4,18 7,30l36 113 -87 0 35 -113zm235 71l0 -130 81 0c36,0 51,19 51,50l0 26c0,32 -15,54 -51,54l-81 0zm81 47c67,0 100,-44 100,-101l0 -26c0,-58 -33,-96 -100,-96l-106 0c-16,0 -24,12 -24,24l0 321c0,13 8,24 25,24 17,0 24,-11 24,-24l0 -122 81 0zm396 -204c0,-13 -8,-24 -25,-24 -17,0 -24,11 -24,24l0 129 -137 0 0 -129c0,-13 -7,-24 -24,-24 -17,0 -25,11 -25,24l0 326c0,13 8,24 25,24 17,0 24,-11 24,-24l0 -150 137 0 0 150c0,13 7,24 24,24 17,0 25,-11 25,-24l0 -326zm385 326l0 -326c0,-13 -7,-24 -24,-24 -17,0 -24,11 -24,24l0 326c0,13 6,24 24,24 16,0 24,-11 24,-24zm-193 -204l-64 0 0 -122c0,-13 -8,-24 -25,-24 -17,0 -24,11 -24,24l0 321c0,13 7,24 25,24l88 0c67,0 100,-44 100,-101l0 -23c0,-58 -31,-99 -100,-99zm51 127c0,32 -14,49 -50,49l-65 0 0 -129 64 0c36,0 51,18 51,49l0 31zm319 -139l-66 -120c-7,-12 -18,-18 -32,-10 -15,7 -16,21 -10,31l81 143 -91 161c-5,10 -4,24 10,32 15,7 26,1 33,-11l75 -137 76 137c6,13 18,18 32,11 15,-8 15,-22 10,-32l-90 -161 81 -143c5,-10 5,-24 -10,-31 -15,-8 -26,-2 -33,10l-66 120zm299 -19c0,38 22,80 63,97 -4,6 -7,12 -13,26 0,0 -40,92 -46,103 -4,11 -1,25 14,31 16,6 27,-1 32,-13 5,-13 60,-140 60,-140l66 0 0 131c0,13 8,24 25,24 17,0 24,-11 24,-24l0 -321c0,-12 -7,-24 -24,-24l-100 0c-66,0 -101,42 -101,96l0 14zm99 58c-36,0 -50,-25 -50,-58l0 -14c0,-29 15,-49 51,-49l76 0 0 121 -77 0zm475 196c9,0 20,0 27,-1l-30 51c-2,4 -3,9 -3,13 0,9 9,24 25,24 9,0 16,-5 21,-13l49 -86c2,-3 3,-7 3,-11 0,-17 -11,-24 -23,-24l-21 0 0 -298c0,-13 -7,-24 -24,-24 -18,0 -25,11 -25,24l0 298 -87 0 0 -298c0,-13 -8,-24 -24,-24 -14,0 -22,12 -22,24l0 298 -87 0 0 -298c0,-13 -7,-24 -25,-24 -16,0 -24,11 -24,24l0 321c0,13 8,24 24,24l246 0zm329 -19c0,13 6,24 23,24 18,0 24,-11 24,-24l0 -326c0,-13 -7,-24 -25,-24 -9,0 -16,4 -24,18l-139 247 0 0c1,-9 2,-22 2,-36l0 -205c0,-13 -7,-24 -24,-24 -17,0 -24,11 -24,24l0 326c0,13 7,24 25,24 10,0 17,-3 24,-17l139 -248 1 0c-1,10 -2,22 -2,36l0 205zm358 -14l-112 -159 107 -137c9,-12 9,-25 -2,-35 -12,-11 -27,-6 -36,5l-109 149 -31 0 0 -135c0,-13 -8,-24 -24,-24 -18,0 -25,11 -25,24l0 326c0,13 7,24 25,24 16,0 24,-11 24,-24l0 -145 31 0 112 159c7,10 20,16 34,7 15,-11 14,-25 6,-35zm97 -232c0,-32 14,-57 50,-57l42 0c36,0 50,25 50,57l0 166c0,33 -14,57 -50,57l-42 0c-36,0 -50,-24 -50,-57l0 -166zm191 0c0,-57 -33,-104 -99,-104l-42 0c-66,0 -98,47 -98,104l0 166c0,57 32,104 98,104l42 0c66,0 99,-47 99,-104l0 -166z"/>
   <path class="fil5 str6" d="M8776 17578l86 0c35,0 50,23 50,55l0 11c0,32 -15,49 -50,49l-86 0 0 -115zm0 -46l0 -109 63 0c36,0 50,12 50,44l0 12c0,31 -14,53 -50,53l-63 0zm184 101c0,-43 -19,-73 -57,-85 23,-14 35,-37 35,-69l0 -12c0,-59 -33,-91 -99,-91l-87 0c-17,0 -24,12 -24,24l0 316c0,13 7,24 24,24l110 0c66,0 98,-37 98,-96l0 -11zm441 60l-10 0 0 -293c0,-12 -7,-24 -24,-24l-125 0c-17,0 -24,11 -26,24l-47 293 -16 0c-17,0 -24,12 -24,24l0 67c0,13 7,24 24,24 17,0 25,-11 25,-24l0 -44 198 0 0 44c0,13 7,24 25,24 16,0 24,-11 24,-24l0 -67c0,-12 -8,-24 -24,-24zm-179 -36l37 -234 83 0 0 270 -127 0c4,-13 6,-24 7,-36zm337 18c3,-30 30,-252 30,-252l91 0 0 298c0,13 8,24 25,24 17,0 24,-11 24,-24l0 -321c0,-12 -7,-24 -24,-24l-135 0c-15,0 -24,10 -25,24 -2,15 -30,242 -33,263 -1,12 -3,19 -6,25 -5,9 -14,12 -29,12 -12,0 -24,8 -24,24 0,18 12,24 24,24 45,0 64,-15 74,-41 4,-10 6,-19 8,-32zm232 -189c0,38 21,80 62,97 -4,6 -7,12 -13,26 0,0 -40,92 -45,103 -5,11 -2,25 14,31 16,6 26,-1 31,-13 6,-13 61,-140 61,-140l66 0 0 131c0,13 7,24 24,24 17,0 25,-11 25,-24l0 -321c0,-12 -8,-24 -25,-24l-100 0c-66,0 -100,42 -100,96l0 14zm98 58c-36,0 -50,-25 -50,-58l0 -14c0,-29 15,-49 52,-49l76 0 0 121 -78 0zm372 -168c-19,0 -27,12 -27,24l0 321c0,13 8,24 24,24 18,0 25,-11 25,-24l0 -298 139 0c12,0 23,-7 23,-23 0,-16 -11,-24 -20,-24l-164 0zm274 99c0,-32 14,-57 50,-57l41 0c36,0 50,25 50,57l0 166c0,33 -14,57 -50,57l-41 0c-36,0 -50,-24 -50,-57l0 -166zm190 0c0,-57 -33,-104 -99,-104l-41 0c-66,0 -99,47 -99,104l0 166c0,57 33,104 99,104l41 0c66,0 99,-47 99,-104l0 -166zm136 200c4,-30 31,-252 31,-252l91 0 0 298c0,13 7,24 25,24 17,0 24,-11 24,-24l0 -321c0,-12 -7,-24 -24,-24l-136 0c-15,0 -23,10 -25,24 -1,15 -29,242 -32,263 -1,12 -3,19 -6,25 -5,9 -14,12 -29,12 -13,0 -24,8 -24,24 0,18 11,24 24,24 45,0 64,-15 74,-41 4,-10 6,-19 7,-32zm294 -200c0,-32 14,-57 49,-57l42 0c36,0 50,25 50,57l0 166c0,33 -14,57 -50,57l-42 0c-35,0 -49,-24 -49,-57l0 -166zm190 0c0,-57 -33,-104 -99,-104l-42 0c-66,0 -98,47 -98,104l0 166c0,57 32,104 98,104l42 0c66,0 99,-47 99,-104l0 -166zm167 223c-36,0 -50,-24 -50,-57l0 -166c0,-32 14,-57 50,-57l53 0c23,0 35,9 37,30 1,13 7,24 24,24 17,0 24,-11 24,-24 0,-54 -32,-77 -85,-77l-53 0c-66,0 -99,47 -99,104l0 166c0,57 33,104 99,104l53 0c53,0 85,-23 85,-77 0,-13 -7,-24 -24,-24 -17,0 -23,11 -24,24 -2,22 -14,30 -37,30l-53 0zm243 -223c0,-32 15,-57 50,-57l42 0c36,0 50,25 50,57l0 166c0,33 -14,57 -50,57l-42 0c-35,0 -50,-24 -50,-57l0 -166zm191 0c0,-57 -33,-104 -99,-104l-42 0c-66,0 -98,47 -98,104l0 166c0,57 32,104 98,104l42 0c66,0 99,-47 99,-104l0 -166zm122 103l86 0c36,0 50,23 50,55l0 11c0,32 -14,49 -50,49l-86 0 0 -115zm0 -46l0 -109 63 0c36,0 50,12 50,44l0 12c0,31 -14,53 -50,53l-63 0zm184 101c0,-43 -19,-73 -57,-85 23,-14 35,-37 35,-69l0 -12c0,-59 -33,-91 -99,-91l-87 0c-17,0 -24,12 -24,24l0 316c0,13 7,24 24,24l110 0c66,0 98,-37 98,-96l0 -11zm219 5l29 91c5,12 16,19 31,15 13,-5 19,-17 15,-30l-105 -325c-4,-12 -10,-18 -25,-18l-2 0c-15,0 -21,6 -25,18l-105 325c-4,13 2,25 15,30 14,4 26,-3 30,-15l29 -91 113 0zm-64 -157c3,-12 5,-17 8,-30l0 0c3,13 4,18 8,30l35 113 -87 0 36 -113zm420 -86c0,-13 -7,-24 -24,-24 -17,0 -25,11 -25,24l0 129 -136 0 0 -129c0,-13 -7,-24 -25,-24 -16,0 -24,11 -24,24l0 326c0,13 8,24 24,24 17,0 25,-11 25,-24l0 -150 136 0 0 150c0,13 7,24 25,24 17,0 24,-11 24,-24l0 -326zm266 326c0,13 7,24 23,24 18,0 25,-11 25,-24l0 -326c0,-13 -7,-24 -25,-24 -10,0 -17,4 -25,18l-138 247 -1 0c1,-9 2,-22 2,-36l0 -205c0,-13 -7,-24 -23,-24 -18,0 -25,11 -25,24l0 326c0,13 8,24 25,24 10,0 17,-3 25,-17l139 -248 0 0c-1,10 -2,22 -2,36l0 205zm109 -235c0,38 22,80 62,97 -3,6 -6,12 -12,26 0,0 -41,92 -46,103 -4,11 -1,25 14,31 16,6 27,-1 32,-13 5,-13 60,-140 60,-140l66 0 0 131c0,13 8,24 25,24 17,0 24,-11 24,-24l0 -321c0,-12 -7,-24 -24,-24l-100 0c-66,0 -101,42 -101,96l0 14zm99 58c-36,0 -50,-25 -50,-58l0 -14c0,-29 15,-49 51,-49l76 0 0 121 -77 0zm438 154c-36,0 -50,-24 -50,-57l0 -166c0,-32 14,-57 50,-57l53 0c22,0 34,9 36,30 2,13 8,24 24,24 18,0 25,-11 25,-24 0,-54 -32,-77 -85,-77l-53 0c-66,0 -99,47 -99,104l0 166c0,57 33,104 99,104l53 0c53,0 85,-23 85,-77 0,-13 -7,-24 -25,-24 -16,0 -22,11 -24,24 -2,22 -14,30 -36,30l-53 0zm342 -120c-4,-10 -8,-20 -13,-30l-81 -159c-7,-15 -13,-18 -24,-18 -18,0 -24,11 -24,24l0 326c0,13 6,24 24,24 17,0 24,-11 24,-24l0 -200c0,-14 -2,-27 -3,-36l1 0 74 145c4,7 9,12 22,12 12,0 17,-5 21,-12l74 -145 1 0c-1,9 -2,22 -2,36l0 200c0,13 6,24 24,24 17,0 24,-11 24,-24l0 -326c0,-13 -7,-24 -24,-24 -11,0 -18,3 -25,18l-81 159c-5,10 -9,20 -12,30zm412 162c12,0 23,-7 23,-23 0,-16 -11,-24 -23,-24l-143 0 0 -117 118 0c12,0 23,-6 23,-23 0,-16 -11,-23 -23,-23l-118 0 0 -107 143 0c12,0 23,-7 23,-23 0,-16 -11,-24 -23,-24l-168 0c-16,0 -23,12 -23,24l0 316c0,13 7,24 23,24l168 0zm375 -369c-18,0 -25,11 -25,24l0 298 -87 0 0 -298c0,-13 -8,-24 -24,-24 -14,0 -22,12 -22,24l0 298 -87 0 0 -298c0,-13 -7,-24 -25,-24 -16,0 -24,11 -24,24l0 321c0,13 8,24 24,24l270 0c17,0 24,-11 24,-24l0 -321c0,-13 -7,-24 -24,-24zm290 350c0,13 6,24 23,24 18,0 25,-11 25,-24l0 -326c0,-13 -8,-24 -25,-24 -10,0 -17,4 -25,18l-139 247 0 0c1,-9 2,-22 2,-36l0 -205c0,-13 -7,-24 -24,-24 -17,0 -24,11 -24,24l0 326c0,13 7,24 25,24 10,0 17,-3 24,-17l139 -248 1 0c-1,10 -2,22 -2,36l0 205zm175 -143l86 0c35,0 50,23 50,55l0 11c0,32 -15,49 -50,49l-86 0 0 -115zm0 -46l0 -109 63 0c36,0 50,12 50,44l0 12c0,31 -14,53 -50,53l-63 0zm184 101c0,-43 -19,-73 -57,-85 23,-14 35,-37 35,-69l0 -12c0,-59 -33,-91 -99,-91l-87 0c-17,0 -24,12 -24,24l0 316c0,13 7,24 24,24l110 0c66,0 98,-37 98,-96l0 -11zm219 5l29 91c5,12 16,19 30,15 14,-5 20,-17 16,-30l-105 -325c-4,-12 -10,-18 -25,-18l-2 0c-15,0 -21,6 -25,18l-105 325c-4,13 2,25 15,30 14,4 26,-3 30,-15l29 -91 113 0zm-64 -157c3,-12 5,-17 8,-30l0 0c3,13 4,18 8,30l35 113 -87 0 36 -113zm379 -110c-70,0 -101,59 -101,116l0 37 -47 0 0 -129c0,-13 -5,-24 -23,-24 -16,0 -23,11 -23,24l0 326c0,13 7,24 23,24 17,0 23,-11 23,-24l0 -150 47 0 0 69c0,57 31,105 97,105l27 0c66,0 99,-47 99,-104l0 -166c0,-57 -33,-104 -99,-104l-23 0zm73 270c0,33 -14,57 -50,57l-25 0c-36,0 -50,-24 -50,-57l0 -150c0,-33 14,-73 52,-73l23 0c35,0 50,25 50,54l0 169zm200 104c17,0 24,-11 24,-24l0 -298 76 0c12,0 23,-7 23,-23 0,-16 -11,-24 -23,-24l-201 0c-12,0 -23,8 -23,24 0,16 11,23 23,23l76 0 0 298c0,13 7,24 25,24zm249 -47c-36,0 -50,-24 -50,-57l0 -166c0,-32 14,-57 50,-57l53 0c23,0 34,9 37,30 1,13 7,24 23,24 18,0 25,-11 25,-24 0,-54 -32,-77 -85,-77l-53 0c-66,0 -99,47 -99,104l0 166c0,57 33,104 99,104l53 0c53,0 85,-23 85,-77 0,-13 -7,-24 -25,-24 -16,0 -22,11 -23,24 -3,22 -14,30 -37,30l-53 0zm182 -212c0,38 22,80 62,97 -3,6 -6,12 -12,26 0,0 -41,92 -46,103 -4,11 -1,25 14,31 16,6 27,-1 32,-13 5,-13 60,-140 60,-140l66 0 0 131c0,13 8,24 25,24 17,0 24,-11 24,-24l0 -321c0,-12 -7,-24 -24,-24l-100 0c-66,0 -101,42 -101,96l0 14zm99 58c-36,0 -50,-25 -50,-58l0 -14c0,-29 14,-49 51,-49l76 0 0 121 -77 0z"/>
   <path class="fil16 str7" d="M13749 4653l-1421 0 0 1856 1421 0 0 -1856z"/>
   <path class="fil16 str7" d="M13365 5426l0 -1955 -565 572 0 1955 565 -572z"/>
   <path class="fil16 str7" d="M12338 4582l-1383 1382 804 -5 1383 -1382 -804 5z"/>
   <path class="fil16 str7" d="M10631 4939l0 1421 1856 0 0 -1421 -1856 0z"/>
   <path class="fil16 str7" d="M12145 7179l-1383 -1382 804 5 1382 1382 -803 -5z"/>
   <path class="fil16 str7" d="M11265 6784l1955 0 -572 565 -1955 0 572 -565z"/>
   <path class="fil17 str8" d="M12328 4939l0 1570 290 0 0 -1570 -290 0z"/>
   <path class="fil17 str8" d="M11981 4939l-1026 1025 804 -5 859 -859 0 -161 -637 0z"/>
   <path class="fil17 str8" d="M10179 5391l0 1421 1856 0 0 -1421 -1856 0z"/>
   <path class="fil17 str8" d="M11265 6784l1353 0 0 565 -1925 0 572 -565z"/>
   <path class="fil17 str8" d="M12145 7179l-1383 -1382 804 5 1052 1052 0 328 -473 -3z"/>
   <path class="fil14" d="M12832 3889c-27,26 -23,43 11,50 -39,10 -66,22 -86,42l-11 11c-37,36 -17,54 57,54l69 0c20,0 35,-7 43,-15l200 -195c8,-8 7,-15 -13,-15l-89 0c-75,0 -134,22 -171,58l-10 10zm140 32l-61 0c-41,0 -44,-13 -24,-32l11 -10c20,-20 45,-29 86,-29l61 0 -73 71zm-29 29l-69 67 -42 0c-40,0 -50,-6 -30,-25l11 -11c20,-20 48,-31 88,-31l42 0zm-345 9l41 0 -78 75c-7,8 -6,15 13,15 20,0 35,-7 43,-15l203 -198c7,-7 6,-15 -12,-15l-69 0c-75,0 -132,22 -168,58l-20 19c-36,36 -28,61 47,61zm70 -29l-40 0c-41,0 -43,-12 -23,-32l20 -19c20,-19 44,-29 84,-29l41 0 -82 80zm-148 -97l-206 201c-8,8 -7,15 12,15 19,0 35,-7 43,-15l206 -201c8,-8 8,-15 -12,-15 -19,0 -35,7 -43,15zm-320 124l53 0 -62 60 -119 0c-13,0 -30,4 -40,14 -10,10 -3,15 11,15l147 0c19,0 34,-6 42,-14l200 -196c8,-8 6,-15 -12,-15l-81 0c-75,0 -132,22 -168,58l-19 18c-36,36 -27,60 48,60zm25 -78c20,-20 44,-29 84,-29l54 0 -83 80 -53 0c-40,0 -42,-12 -22,-32l20 -19zm-280 107c-21,20 -48,34 -88,34l-18 0c-41,0 -40,-14 -19,-34l108 -105c20,-20 47,-34 88,-34l18 0c41,0 39,14 19,34l-108 105zm-181 0c-36,36 -30,63 45,63l18 0c75,0 137,-27 173,-63l109 -105c36,-36 29,-63 -46,-63l-17 0c-75,0 -137,27 -174,63l-108 105zm-84 -49l-82 80 -60 0c-40,0 -45,-9 -25,-29l20 -19c20,-19 46,-32 87,-32l60 0zm-30 -29c-75,0 -135,26 -172,61l-19 19c-37,36 -25,58 50,58l88 0c19,0 34,-7 42,-15l203 -198c8,-8 7,-15 -12,-15 -20,0 -35,7 -43,15l-78 75 -59 0zm-325 51l41 0 -77 75c-8,8 -7,15 13,15 19,0 35,-7 43,-15l202 -198c8,-7 7,-15 -12,-15l-69 0c-75,0 -131,22 -168,58l-20 19c-36,36 -27,61 47,61zm71 -29l-41 0c-41,0 -42,-12 -22,-32l19 -19c20,-19 44,-29 85,-29l41 0 -82 80zm-148 -97l-206 201c-8,8 -8,15 12,15 19,0 35,-7 43,-15l206 -201c8,-8 7,-15 -12,-15 -19,0 -35,7 -43,15z"/>
   <g>
    <path class="fil9" d="M9394 4899l1862 -1838 84 80 -1862 1838 -42 17 -42 -97zm84 80c-23,22 -60,23 -83,1 -23,-22 -23,-59 -1,-81l84 80zm3140 17l-3182 0 0 -114 3182 0 42 97 -42 17zm0 -114c33,0 59,25 59,57 0,31 -26,57 -59,57l0 -114zm1904 -1741l-1862 1838 -84 -80 1862 -1838 42 -17 42 97zm-84 -80c23,-23 60,-23 83,-1 23,22 23,58 1,81l-84 -80zm-3140 -17l3182 0 0 114 -3182 0 -42 -97 42 -17zm0 114c-33,0 -59,-26 -59,-57 0,-32 26,-57 59,-57l0 114z"/>
   </g>
   <g>
    <path class="fil9" d="M14539 3101l0 3042 -118 0 0 -3042 17 -41 101 41zm-118 0c0,-32 27,-58 59,-58 32,0 59,26 59,58l-118 0zm-1844 1797l1861 -1838 83 82 -1861 1838 -100 -41 17 -41zm83 82c-23,23 -60,23 -83,0 -23,-23 -23,-59 0,-82l83 82zm-100 3001l0 -3042 117 0 0 3042 -17 41 -100 -41zm117 0c0,32 -26,58 -59,58 -32,0 -58,-26 -58,-58l117 0zm1844 -1797l-1861 1838 -83 -82 1861 -1838 101 41 -18 41zm-83 -82c23,-23 61,-23 84,0 22,23 22,60 -1,82l-83 -82z"/>
   </g>
   <g>
    <path class="fil10" d="M12618 8040l-3182 0 0 -117 3182 0 59 58 -59 59zm0 -117c33,0 59,26 59,58 0,33 -26,59 -59,59l0 -117zm59 -2984l0 3042 -117 0 0 -3042 58 -59 59 59zm-117 0c0,-32 26,-59 58,-59 33,0 59,27 59,59l-117 0zm-3124 -59l3182 0 0 118 -3182 0 -58 -59 58 -59zm0 118c-32,0 -58,-27 -58,-59 0,-32 26,-59 58,-59l0 118zm-58 2983l0 -3042 117 0 0 3042 -59 59 -58 -59zm117 0c0,33 -26,59 -59,59 -32,0 -58,-26 -58,-59l117 0z"/>
   </g>
   <path class="fil1 str1" d="M6307 15766l2800 0 0 -3779 -2800 0 0 3779z"/>
   <path class="fil2 str0" d="M9558 15356l0 -3779 -2800 0"/>
   <path class="fil2 str0" d="M9333 15561c0,-979 0,-2800 0,-3779 -653,0 -2147,0 -2800,0"/>
   <path class="fil3" d="M6675 13378l-46 0 0 -96 103 0c12,0 23,-6 23,-23 0,-15 -11,-23 -23,-23l-128 0c-16,0 -23,10 -23,23l0 312c0,12 7,23 24,23l70 0c65,0 94,-34 94,-91l0 -30c0,-56 -29,-95 -94,-95zm47 125c0,30 -12,46 -47,46l-46 0 0 -128 46 0c35,0 47,19 47,50l0 32zm291 -272l-5 0c-68,0 -95,58 -95,114l0 37 -41 0 0 -127c0,-12 -5,-24 -22,-24 -17,0 -23,12 -23,24l0 321c0,12 6,23 23,23 16,0 22,-11 22,-23l0 -148 41 0 0 77c0,56 30,94 95,94l5 0c65,0 95,-43 95,-99l0 -169c0,-56 -30,-100 -95,-100zm47 269c0,31 -12,53 -47,53l-5 0c-35,0 -46,-16 -46,-48l0 -160c0,-31 9,-68 46,-68l5 0c35,0 47,22 47,54l0 169zm179 30c1,-11 17,-248 17,-248l72 0 0 294c0,12 7,23 24,23 16,0 24,-11 24,-23l0 -316c0,-12 -8,-24 -24,-24l-117 0c-16,0 -24,12 -25,24 0,0 -16,252 -16,258 -1,6 -1,16 -4,22 -5,9 -13,15 -26,15 -12,0 -23,7 -23,24 0,17 11,23 23,23 37,0 58,-15 68,-41 4,-9 7,-21 7,-31zm273 0c1,-11 17,-248 17,-248l71 0 0 294c0,12 8,23 25,23 16,0 23,-11 23,-23l0 -316c0,-12 -7,-24 -23,-24l-117 0c-16,0 -24,12 -25,24 0,0 -16,252 -16,258 -1,6 -1,16 -5,22 -4,9 -12,15 -25,15 -12,0 -23,7 -23,24 0,17 11,23 23,23 37,0 58,-15 68,-41 4,-9 7,-21 7,-31zm368 64c11,0 22,-6 22,-23 0,-15 -11,-23 -22,-23l-110 0 0 -115 87 0c12,0 23,-6 23,-23 0,-15 -11,-23 -23,-23l-87 0 0 -105 110 0c11,0 22,-6 22,-23 0,-15 -11,-23 -22,-23l-134 0c-17,0 -24,12 -24,24l0 311c0,12 7,23 24,23l134 0zm130 -18c0,12 7,23 23,23 17,0 24,-11 24,-23l0 -294 60 0c11,0 22,-6 22,-23 0,-15 -11,-23 -22,-23l-166 0c-12,0 -23,8 -23,23 0,17 11,23 23,23l59 0 0 294zm331 18c11,0 22,-6 22,-23 0,-15 -11,-23 -22,-23l-110 0 0 -115 87 0c12,0 23,-6 23,-23 0,-15 -11,-23 -23,-23l-87 0 0 -105 110 0c11,0 22,-6 22,-23 0,-15 -11,-23 -22,-23l-134 0c-17,0 -24,12 -24,24l0 311c0,12 7,23 24,23l134 0zm275 -339c0,-12 -8,-24 -24,-24 -17,0 -24,12 -24,24l0 127 -104 0 0 -127c0,-12 -6,-24 -24,-24 -16,0 -24,12 -24,24l0 321c0,12 8,23 24,23 17,0 24,-11 24,-23l0 -148 104 0 0 148c0,12 7,23 24,23 16,0 24,-11 24,-23l0 -321zm173 120l-51 0 0 -120c0,-12 -7,-24 -24,-24 -17,0 -24,12 -24,24l0 315c0,12 7,24 23,24l76 0c65,0 95,-35 95,-92l0 -31c0,-56 -30,-96 -95,-96zm-51 46l51 0c36,0 48,19 48,50l0 31c0,31 -12,46 -48,46l-51 0 0 -127z"/>
   <path class="fil4 str9" d="M7113 15334c-211,-173 -345,-435 -345,-728 0,-293 134,-555 345,-728m1189 0c210,173 345,435 345,728 0,293 -135,555 -345,728"/>
   <path class="fil13 str10" d="M7498 14073c-11,0 -19,5 -25,11 -34,38 -73,76 -113,113 -13,12 -18,26 -1,43 16,15 30,10 43,-1 25,-21 51,-47 72,-73l0 340 -87 0c-17,0 -31,9 -31,32 0,22 14,31 31,31l227 0c17,0 31,-9 31,-31 0,-23 -14,-32 -31,-32l-74 0 0 -400c0,-18 -5,-33 -30,-33l-12 0zm285 175c0,-69 26,-112 81,-112l24 0c55,0 81,43 81,112l0 153c0,70 -26,112 -81,112l-24 0c-55,0 -81,-42 -81,-112l0 -153zm251 0c0,-107 -49,-175 -146,-175l-24 0c-97,0 -147,68 -147,175l0 153c0,107 50,175 147,175l24 0c97,0 146,-68 146,-175l0 -153z"/>
   <path class="fil5 str11" d="M7696 14884c-21,0 -28,13 -28,29l0 250 -96 0 0 -250c0,-16 -7,-29 -28,-29 -21,0 -28,13 -28,29l0 250 -96 0 0 -250c0,-16 -7,-29 -28,-29 -21,0 -28,13 -28,29l0 275c0,15 8,29 28,29l304 0c20,0 28,-14 28,-29l0 -275c0,-16 -7,-29 -28,-29zm327 6l-208 0c-15,0 -28,6 -28,26 0,20 13,28 28,28l76 0 0 250c0,15 7,29 28,29 20,0 28,-14 28,-29l0 -250 76 0c14,0 28,-8 28,-28 0,-20 -14,-26 -28,-26z"/>
   <path class="fil1 str1" d="M10696 15766l2800 0 0 -3779 -2800 0 0 3779z"/>
   <path class="fil2 str0" d="M13947 15356l0 -3779 -2799 0"/>
   <path class="fil2 str0" d="M13722 15561c0,-979 0,-2800 0,-3779 -653,0 -2147,0 -2800,0"/>
   <path class="fil3" d="M11064 13378l-46 0 0 -96 103 0c12,0 23,-6 23,-23 0,-15 -11,-23 -23,-23l-128 0c-16,0 -23,10 -23,23l0 312c0,12 8,23 24,23l70 0c65,0 94,-34 94,-91l0 -30c0,-56 -29,-95 -94,-95zm47 125c0,30 -12,46 -47,46l-46 0 0 -128 46 0c35,0 47,19 47,50l0 32zm291 -272l-5 0c-68,0 -94,58 -94,114l0 37 -42 0 0 -127c0,-12 -5,-24 -22,-24 -17,0 -23,12 -23,24l0 321c0,12 6,23 23,23 17,0 22,-11 22,-23l0 -148 42 0 0 77c0,56 29,94 94,94l5 0c65,0 95,-43 95,-99l0 -169c0,-56 -30,-100 -95,-100zm47 269c0,31 -11,53 -47,53l-5 0c-35,0 -46,-16 -46,-48l0 -160c0,-31 9,-68 46,-68l5 0c36,0 47,22 47,54l0 169zm179 30c1,-11 17,-248 17,-248l72 0 0 294c0,12 7,23 24,23 17,0 24,-11 24,-23l0 -316c0,-12 -7,-24 -24,-24l-117 0c-16,0 -24,12 -24,24 0,0 -17,252 -17,258 -1,6 -1,16 -4,22 -5,9 -13,15 -25,15 -13,0 -24,7 -24,24 0,17 11,23 24,23 36,0 57,-15 68,-41 3,-9 6,-21 6,-31zm273 0c1,-11 17,-248 17,-248l72 0 0 294c0,12 7,23 24,23 16,0 24,-11 24,-23l0 -316c0,-12 -8,-24 -24,-24l-117 0c-16,0 -24,12 -24,24 0,0 -17,252 -17,258 -1,6 -1,16 -4,22 -5,9 -13,15 -25,15 -13,0 -24,7 -24,24 0,17 11,23 24,23 36,0 57,-15 68,-41 3,-9 6,-21 6,-31zm368 64c11,0 22,-6 22,-23 0,-15 -11,-23 -22,-23l-110 0 0 -115 87 0c12,0 23,-6 23,-23 0,-15 -11,-23 -23,-23l-87 0 0 -105 110 0c11,0 22,-6 22,-23 0,-15 -11,-23 -22,-23l-134 0c-17,0 -24,12 -24,24l0 311c0,12 7,23 24,23l134 0zm130 -18c0,12 7,23 24,23 16,0 24,-11 24,-23l0 -294 59 0c12,0 22,-6 22,-23 0,-15 -10,-23 -22,-23l-166 0c-12,0 -23,8 -23,23 0,17 11,23 23,23l59 0 0 294zm331 18c11,0 22,-6 22,-23 0,-15 -11,-23 -22,-23l-110 0 0 -115 87 0c12,0 23,-6 23,-23 0,-15 -11,-23 -23,-23l-87 0 0 -105 110 0c11,0 22,-6 22,-23 0,-15 -11,-23 -22,-23l-134 0c-17,0 -24,12 -24,24l0 311c0,12 7,23 24,23l134 0zm275 -339c0,-12 -7,-24 -24,-24 -17,0 -24,12 -24,24l0 127 -104 0 0 -127c0,-12 -6,-24 -24,-24 -16,0 -24,12 -24,24l0 321c0,12 8,23 24,23 17,0 24,-11 24,-23l0 -148 104 0 0 148c0,12 7,23 24,23 17,0 24,-11 24,-23l0 -321zm173 120l-51 0 0 -120c0,-12 -7,-24 -24,-24 -17,0 -24,12 -24,24l0 315c0,12 7,24 23,24l76 0c65,0 95,-35 95,-92l0 -31c0,-56 -30,-96 -95,-96zm-51 46l51 0c36,0 48,19 48,50l0 31c0,31 -12,46 -48,46l-51 0 0 -127z"/>
   <path class="fil4 str9" d="M11502 15334c-211,-173 -345,-435 -345,-728 0,-293 134,-555 345,-728m1189 0c211,173 345,435 345,728 0,293 -134,555 -345,728"/>
   <path class="fil13 str10" d="M12101 14573c111,-66 147,-155 147,-264l0 -104c0,-80 -45,-132 -136,-132l-41 0c-91,0 -136,48 -136,129l0 35c0,79 45,135 136,135l106 0c-9,57 -42,104 -111,146 -15,9 -26,27 -13,47 13,20 33,18 48,8zm11 -437c49,0 70,25 70,69l0 104 -111 0c-49,0 -70,-28 -70,-72l0 -35c0,-44 21,-66 70,-66l41 0z"/>
   <path class="fil5 str11" d="M12085 14884c-20,0 -28,13 -28,29l0 250 -95 0 0 -250c0,-16 -8,-29 -29,-29 -20,0 -28,13 -28,29l0 250 -95 0 0 -250c0,-16 -8,-29 -29,-29 -20,0 -28,13 -28,29l0 275c0,15 8,29 28,29l304 0c20,0 29,-14 29,-29l0 -275c0,-16 -8,-29 -29,-29zm327 6l-208 0c-14,0 -28,6 -28,26 0,20 14,28 28,28l76 0 0 250c0,15 8,29 28,29 20,0 29,-14 29,-29l0 -250 75 0c14,0 28,-8 28,-28 0,-20 -14,-26 -28,-26z"/>
   <path class="fil13 str4" d="M7097 6571c0,-87 -36,-155 -114,-179 49,-28 78,-75 78,-143l0 -14c0,-121 -69,-189 -206,-189l-56 0c-108,0 -176,47 -176,158 0,28 14,50 50,50 36,0 50,-22 50,-50 0,-44 30,-63 76,-63l56 0c75,0 107,29 107,94l0 14c0,66 -39,113 -115,113l-60 0c-27,0 -48,13 -48,47 0,34 21,46 48,46l107 0c75,0 104,49 104,116l0 35c0,66 -32,104 -107,104l-113 0c-46,0 -77,-19 -77,-63 0,-27 -13,-50 -49,-50 -36,0 -50,23 -50,50 0,112 68,158 176,158l113 0c137,0 206,-78 206,-199l0 -35z"/>
   <path class="fil13" d="M6250 6602c0,18 2,37 4,49l-1 0 -153 -315c-9,-17 -19,-23 -32,-23 -23,0 -33,15 -33,31l0 426c0,16 9,31 32,31 22,0 31,-15 31,-31l0 -258c0,-18 -3,-37 -4,-49l0 0 154 315c8,16 19,23 31,23 24,0 33,-15 33,-31l0 -426c0,-16 -9,-31 -32,-31 -22,0 -30,15 -30,31l0 258zm171 -146c-20,0 -26,-12 -26,-31l0 -34c0,-19 6,-30 26,-30l10 0c21,0 26,11 26,30l0 34c0,19 -5,31 -26,31l-10 0zm11 45c47,0 69,-31 69,-72l0 -41c0,-41 -22,-72 -69,-72l-11 0c-47,0 -70,31 -70,72l0 41c0,41 23,72 70,72l11 0zm47 80c14,0 24,-6 24,-24 0,-18 -10,-24 -24,-24l-105 0c-14,0 -25,6 -25,24 0,18 11,24 25,24l105 0z"/>
   <path class="fil14 str5" d="M6106 7275c0,-33 -14,-55 -43,-64 20,-12 29,-28 29,-53l0 -14c0,-45 -26,-69 -77,-69l-48 0c-13,0 -19,9 -19,19l0 248c0,10 6,19 19,19l62 0c51,0 77,-28 77,-73l0 -13zm-120 -42l43 0c28,0 39,17 39,42l0 13c0,24 -11,36 -39,36l-43 0 0 -91zm0 -35l0 -86 29 0c28,0 39,8 39,32l0 14c0,25 -11,40 -39,40l-29 0zm232 -12l-28 0 0 -96c0,-10 -6,-19 -19,-19 -14,0 -19,9 -19,19l0 251c0,10 5,19 18,19l48 0c52,0 75,-27 75,-73l0 -24c0,-45 -23,-77 -75,-77zm-28 36l28 0c28,0 38,16 38,41l0 24c0,25 -10,37 -38,37l-28 0 0 -102zm170 124l0 -256c0,-10 -5,-19 -18,-19 -13,0 -19,9 -19,19l0 256c0,10 5,19 18,19 13,0 19,-9 19,-19zm134 -158l-37 0 0 -76 83 0c9,0 18,-5 18,-18 0,-12 -9,-19 -18,-19l-102 0c-13,0 -19,8 -19,18l0 249c0,10 6,19 19,19l56 0c52,0 75,-28 75,-73l0 -24c0,-45 -23,-76 -75,-76zm38 100c0,24 -10,36 -38,36l-37 0 0 -102 37 0c28,0 38,16 38,41l0 25zm117 -137c0,-25 9,-43 37,-43l12 0c29,0 38,18 38,43l0 134c0,25 -9,43 -38,43l-12 0c-28,0 -37,-18 -37,-43l0 -134zm125 0c0,-45 -24,-80 -76,-80l-12 0c-51,0 -75,35 -75,80l0 134c0,45 24,80 75,80l12 0c52,0 76,-35 76,-80l0 -134zm93 62l0 -101 41 0c28,0 38,12 38,36l0 25c0,25 -10,40 -38,40l-41 0zm41 37c52,0 75,-32 75,-77l0 -25c0,-45 -23,-73 -75,-73l-61 0c-13,0 -19,9 -19,19l0 252c0,10 6,19 20,19 13,0 19,-9 19,-19l0 -96 41 0zm188 -64l-28 0 0 -96c0,-10 -6,-19 -19,-19 -14,0 -19,9 -19,19l0 251c0,10 5,19 18,19l48 0c52,0 75,-27 75,-73l0 -24c0,-45 -23,-77 -75,-77zm-28 36l28 0c28,0 38,16 38,41l0 24c0,25 -10,37 -38,37l-28 0 0 -102zm171 124l0 -256c0,-10 -6,-19 -19,-19 -13,0 -19,9 -19,19l0 256c0,10 5,19 18,19 13,0 20,-9 20,-19z"/>
   <path class="fil17" d="M13889 7981l3182 0 0 -3042 -3182 0 0 3042z"/>
   <path class="fil7" d="M18933 6143l0 -3042 -1862 1838 0 3042 1862 -1838z"/>
   <path class="fil6" d="M15751 3101l-1862 1838 3182 0 1862 -1838 -3182 0z"/>
   <path class="fil7" d="M15751 6143l3182 0 -1862 1838 -3182 0 1862 -1838z"/>
   <path class="fil8" d="M17071 6143l0 1838 1862 -1838 -1862 0z"/>
   <g>
    <path class="fil15" d="M15810 6143c0,32 -26,57 -59,57 -32,0 -59,-25 -59,-57l118 0zm0 -2950l0 2950 -118 0 0 -2950 118 0zm-118 0c0,-31 27,-57 59,-57 33,0 59,26 59,57l-118 0z"/>
   </g>
   <path class="fil16 str7" d="M18202 4653l-1421 0 0 1856 1421 0 0 -1856z"/>
   <path class="fil16 str7" d="M17818 5426l0 -1955 -565 572 0 1955 565 -572z"/>
   <path class="fil16 str7" d="M16791 4582l-1382 1382 803 -5 1383 -1382 -804 5z"/>
   <path class="fil16 str7" d="M15084 4939l0 1421 1856 0 0 -1421 -1856 0z"/>
   <path class="fil16 str7" d="M16598 7179l-1383 -1382 804 5 1383 1382 -804 -5z"/>
   <path class="fil16 str7" d="M15718 6784l1955 0 -572 565 -1955 0 572 -565z"/>
   <path class="fil17 str8" d="M16781 4939l0 1570 290 0 0 -1570 -290 0z"/>
   <path class="fil17 str8" d="M16434 4939l-1025 1025 803 -5 859 -859 0 -161 -637 0z"/>
   <path class="fil17 str8" d="M14632 5391l0 1421 1856 0 0 -1421 -1856 0z"/>
   <path class="fil17 str8" d="M15718 6784l1353 0 0 565 -1925 0 572 -565z"/>
   <path class="fil17 str8" d="M16598 7179l-1383 -1382 804 5 1052 1052 0 328 -473 -3z"/>
   <path class="fil14" d="M17285 3889c-27,26 -23,43 11,50 -38,10 -65,22 -85,42l-12 11c-36,36 -17,54 57,54l69 0c20,0 36,-7 43,-15l200 -195c8,-8 7,-15 -13,-15l-89 0c-75,0 -134,22 -171,58l-10 10zm140 32l-61 0c-41,0 -44,-13 -24,-32l11 -10c20,-20 45,-29 86,-29l61 0 -73 71zm-29 29l-69 67 -41 0c-41,0 -51,-6 -31,-25l11 -11c20,-20 48,-31 89,-31l41 0zm-345 9l41 0 -77 75c-8,8 -7,15 12,15 20,0 35,-7 43,-15l203 -198c8,-7 7,-15 -12,-15l-69 0c-75,0 -132,22 -168,58l-20 19c-36,36 -28,61 47,61zm70 -29l-40 0c-41,0 -43,-12 -23,-32l20 -19c20,-19 44,-29 84,-29l41 0 -82 80zm-147 -97l-207 201c-8,8 -7,15 12,15 19,0 35,-7 43,-15l206 -201c8,-8 8,-15 -12,-15 -18,0 -35,7 -42,15zm-321 124l53 0 -61 60 -120 0c-13,0 -30,4 -40,14 -10,10 -3,15 11,15l147 0c19,0 34,-6 42,-14l200 -196c8,-8 7,-15 -12,-15l-81 0c-75,0 -131,22 -168,58l-19 18c-36,36 -27,60 48,60zm25 -78c20,-20 44,-29 85,-29l53 0 -82 80 -54 0c-40,0 -42,-12 -22,-32l20 -19zm-280 107c-21,20 -48,34 -88,34l-18 0c-41,0 -40,-14 -19,-34l108 -105c20,-20 48,-34 88,-34l18 0c41,0 40,14 19,34l-108 105zm-181 0c-36,36 -30,63 45,63l18 0c75,0 137,-27 173,-63l109 -105c36,-36 29,-63 -45,-63l-18 0c-75,0 -137,27 -173,63l-109 105zm-84 -49l-82 80 -59 0c-41,0 -46,-9 -26,-29l20 -19c20,-19 47,-32 87,-32l60 0zm-30 -29c-75,0 -135,26 -171,61l-20 19c-37,36 -25,58 50,58l88 0c19,0 35,-7 42,-15l203 -198c8,-8 7,-15 -12,-15 -20,0 -35,7 -43,15l-78 75 -59 0zm-324 51l40 0 -77 75c-8,8 -7,15 13,15 19,0 35,-7 43,-15l202 -198c8,-7 7,-15 -12,-15l-69 0c-75,0 -131,22 -168,58l-20 19c-36,36 -27,61 48,61zm70 -29l-41 0c-41,0 -42,-12 -22,-32l19 -19c20,-19 44,-29 85,-29l41 0 -82 80zm-148 -97l-206 201c-8,8 -8,15 12,15 19,0 35,-7 43,-15l206 -201c8,-8 7,-15 -12,-15 -19,0 -35,7 -43,15z"/>
   <g>
    <path class="fil9" d="M13847 4899l1862 -1838 84 80 -1862 1838 -42 17 -42 -97zm84 80c-23,22 -60,23 -83,1 -23,-22 -23,-59 -1,-81l84 80zm3140 17l-3182 0 0 -114 3182 0 42 97 -42 17zm0 -114c33,0 59,25 59,57 0,31 -26,57 -59,57l0 -114zm1904 -1741l-1862 1838 -84 -80 1862 -1838 42 -17 42 97zm-84 -80c23,-23 60,-23 83,-1 23,22 24,58 1,81l-84 -80zm-3140 -17l3182 0 0 114 -3182 0 -42 -97 42 -17zm0 114c-32,0 -59,-26 -59,-57 0,-32 27,-57 59,-57l0 114z"/>
   </g>
   <g>
    <path class="fil9" d="M18992 3101l0 3042 -118 0 0 -3042 18 -41 100 41zm-118 0c0,-32 27,-58 59,-58 33,0 59,26 59,58l-118 0zm-1844 1797l1862 -1838 83 82 -1862 1838 -100 -41 17 -41zm83 82c-23,23 -60,23 -83,0 -23,-23 -23,-59 0,-82l83 82zm-100 3001l0 -3042 117 0 0 3042 -17 41 -100 -41zm117 0c0,32 -26,58 -59,58 -32,0 -58,-26 -58,-58l117 0zm1845 -1797l-1862 1838 -83 -82 1862 -1838 100 41 -17 41zm-83 -82c23,-23 60,-23 83,0 23,23 23,60 0,82l-83 -82z"/>
   </g>
   <g>
    <path class="fil10" d="M17072 8040l-3182 0 0 -117 3182 0 58 58 -58 59zm0 -117c32,0 58,26 58,58 0,33 -26,59 -58,59l0 -117zm58 -2984l0 3042 -117 0 0 -3042 59 -59 58 59zm-117 0c0,-32 27,-59 59,-59 32,0 58,27 58,59l-117 0zm-3123 -59l3182 0 0 118 -3182 0 -59 -59 59 -59zm0 118c-32,0 -59,-27 -59,-59 0,-32 27,-59 59,-59l0 118zm-59 2983l0 -3042 117 0 0 3042 -58 59 -59 -59zm117 0c0,33 -26,59 -58,59 -32,0 -59,-26 -59,-59l117 0z"/>
   </g>
   <path class="fil4 str12" d="M2848 8347c0,204 166,370 370,370l3736 0"/>
   <path class="fil4 str12" d="M6785 8347c0,204 166,370 370,370l2352 0"/>
   <path class="fil4 str12" d="M15694 8347c0,204 -167,370 -371,370l-3736 0"/>
   <path class="fil4 str12" d="M11751 8347c0,204 -167,370 -371,370l-1873 0"/>
  </g>
 </g>
</svg>
