<?xml version="1.0" encoding="UTF-8"?>
<!DOCTYPE svg PUBLIC "-//W3C//DTD SVG 1.0//EN" "http://www.w3.org/TR/2001/REC-SVG-20010904/DTD/svg10.dtd">
<!-- Creator: CorelDRAW X7 -->
<svg xmlns="http://www.w3.org/2000/svg" xml:space="preserve" width="200mm" height="200mm" version="1.0" style="shape-rendering:geometricPrecision; text-rendering:geometricPrecision; image-rendering:optimizeQuality; fill-rule:evenodd; clip-rule:evenodd"
viewBox="0 0 20000 20000"
 xmlns:xlink="http://www.w3.org/1999/xlink">
 <defs>
  <style type="text/css">
   <![CDATA[
    .str1 {stroke:#CC7588;stroke-width:25}
    .str0 {stroke:#024541;stroke-width:159.99;stroke-linecap:round;stroke-linejoin:round}
    .str3 {stroke:#4D897C;stroke-width:132.59;stroke-linecap:round;stroke-linejoin:round}
    .str2 {stroke:#4D897C;stroke-width:132.59;stroke-linecap:round;stroke-linejoin:round}
    .str5 {stroke:#4D897C;stroke-width:132.59;stroke-linecap:round;stroke-linejoin:round}
    .str4 {stroke:#4D897C;stroke-width:132.59;stroke-linecap:round;stroke-linejoin:round}
    .fil3 {fill:none}
    .fil5 {fill:none;fill-rule:nonzero}
    .fil4 {fill:#CC7588}
    .fil1 {fill:#EBF2D9}
    .fil2 {fill:#CDDBAC}
    .fil7 {fill:#CC7588;fill-rule:nonzero}
    .fil6 {fill:#4D897C;fill-rule:nonzero}
    .fil0 {fill:url(#id0)}
   ]]>
  </style>
  <radialGradient id="id0" gradientUnits="userSpaceOnUse" gradientTransform="matrix(1.41421 -0 -0 1.41421 -4139 -4138)" cx="9993.06" cy="9989.99" r="10000" fx="9993.06" fy="9989.99">
   <stop offset="0" style="stop-opacity:1; stop-color:#FEFEFE"/>
   <stop offset="0.439216" style="stop-opacity:1; stop-color:#FEFEFE"/>
   <stop offset="1" style="stop-opacity:1; stop-color:#D1E2F2"/>
  </radialGradient>
 </defs>
 <g id="Layer_x0020_1">
  <metadata id="CorelCorpID_0Corel-Layer"/>
  <path class="fil0" d="M-7 -10l20000 0 0 20000 -20000 0 0 -20000z"/>
  <g id="_933159551040">
   <path class="fil1" d="M3415 4751l0 8833c2206,0 3683,0 5888,0l0 -8833 -5888 0z"/>
   <path class="fil2" d="M3309 4739l5889 0 0 3361 -5889 -2798c10,-289 0,-370 0,-563z"/>
   <path class="fil3 str0" d="M3354 4706l0 8833c2205,0 3682,0 5888,0l0 -8833 -5888 0z"/>
   <path class="fil4 str1" d="M5120 15252c0,6 -2,11 -6,15 -3,3 -8,5 -14,5 -5,0 -9,-2 -13,-5 -4,-3 -6,-8 -6,-15l0 -328 -154 0 0 328c0,6 -2,11 -6,15 -3,3 -8,5 -14,5 -5,0 -9,-2 -13,-5 -4,-3 -6,-8 -6,-15l0 -347c0,-13 7,-19 19,-19l193 0c13,0 20,6 20,19l0 347zm165 -77l-27 83c-2,5 -4,8 -8,10 -2,2 -6,3 -10,4 -5,0 -10,-2 -14,-6 -4,-3 -6,-8 -6,-13l1 -7 117 -347c3,-11 9,-17 18,-17 8,0 14,6 18,17l115 347 2 7c0,5 -2,9 -7,13 -4,4 -8,6 -13,6 -3,0 -6,-1 -9,-2 -3,-1 -6,-5 -9,-12l-28 -83 -140 0zm127 -39l-56 -170 -57 170 113 0zm309 -57l0 -174c0,-5 1,-10 5,-14 4,-4 9,-5 14,-5 5,0 9,1 13,4 4,4 6,9 6,15l0 347c0,6 -2,11 -5,15 -4,3 -9,5 -14,5 -5,0 -10,-2 -14,-5 -4,-3 -5,-8 -5,-15l0 -135 -116 0c-21,0 -39,-7 -55,-22 -15,-15 -22,-34 -22,-55l0 -135c0,-5 1,-10 5,-14 4,-4 9,-5 14,-5 5,0 9,1 13,4 4,4 6,9 6,15l0 135c0,11 4,20 11,28 4,3 8,6 12,8 6,2 11,3 16,3l116 0zm174 -27l163 -161c4,-4 8,-5 13,-5 5,0 10,2 14,6 4,4 6,8 6,14 0,3 -2,7 -6,12l-115 115 119 210 2 10c0,5 -2,9 -6,13 -4,4 -8,6 -14,6 -6,0 -12,-4 -16,-10l-113 -202 -47 46 0 146c0,6 -1,11 -5,15 -3,3 -8,5 -14,5 -5,0 -9,-2 -13,-5 -4,-3 -6,-8 -6,-15l0 -348c0,-5 2,-9 6,-13 4,-3 8,-5 13,-5 5,0 10,1 14,4 4,3 5,8 5,14l0 148zm359 123l-28 83c-1,5 -3,8 -7,10 -2,2 -6,3 -10,4 -5,0 -10,-2 -14,-6 -4,-3 -6,-8 -6,-13l1 -7 116 -347c4,-11 10,-17 19,-17 8,0 14,6 18,17l115 347 2 7c0,5 -3,9 -7,13 -4,4 -8,6 -13,6 -3,0 -6,-1 -9,-2 -3,-1 -6,-5 -9,-12l-28 -83 -140 0zm127 -39l-56 -170 -57 170 113 0zm770 -115c0,17 -6,31 -18,43 -11,10 -24,15 -39,15 -16,0 -29,-5 -40,-15 -12,-11 -18,-25 -18,-43l0 -78c0,-17 6,-31 18,-43 11,-10 24,-14 40,-14 15,0 28,4 39,14 12,10 18,25 18,43l0 78zm-154 231c0,5 -2,10 -6,15 -4,3 -8,5 -13,5 -8,0 -14,-4 -18,-10l-156 -282 0 272c0,6 -2,11 -6,15 -3,3 -8,5 -14,5 -5,0 -9,-2 -13,-5 -4,-3 -6,-8 -6,-15l0 -347c0,-5 2,-10 6,-14 4,-4 8,-5 14,-5 7,0 13,3 17,10l156 282 0 -273c0,-5 2,-10 6,-14 4,-4 8,-5 14,-5 4,0 9,1 13,4 4,4 6,9 6,15l0 347zm116 -231l0 -78c0,-5 -2,-10 -6,-15 -4,-2 -9,-4 -13,-4 -5,0 -10,2 -14,5 -4,3 -6,8 -6,14l0 78c0,6 2,11 5,15 4,3 9,4 15,4 4,0 8,-1 13,-5 4,-3 6,-8 6,-14zm463 231c0,6 -2,11 -6,15 -3,3 -8,5 -14,5 -5,0 -9,-2 -13,-5 -4,-3 -6,-8 -6,-15l0 -300 -44 44c-4,4 -8,6 -13,6 -5,0 -10,-2 -14,-6 -4,-4 -6,-9 -6,-14 0,-4 2,-9 6,-13l77 -78c2,-2 5,-4 8,-6 3,-1 6,-2 9,-2 3,0 7,2 11,5 3,5 5,10 5,17l0 347z"/>
   <path class="fil5 str2" d="M9547 5398l0 8509 -5673 0"/>
   <path class="fil5 str3" d="M9857 5788l0 8509 -5673 0"/>
   <path class="fil5 str0" d="M9230 4699l0 8832c-2206,0 -3683,0 -5889,0l0 -8832 5889 0z"/>
   <path class="fil1" d="M11865 4751l0 8833c2206,0 3683,0 5888,0l0 -8833 -5888 0z"/>
   <path class="fil2" d="M11759 4739l5889 0 0 3361 -5889 -2798c10,-289 0,-370 0,-563z"/>
   <path class="fil3 str0" d="M11804 4706l0 8833c2205,0 3682,0 5888,0l0 -8833 -5888 0z"/>
   <path class="fil4 str1" d="M13570 15252c0,6 -2,11 -6,15 -3,3 -8,5 -14,5 -5,0 -9,-2 -13,-5 -4,-3 -6,-8 -6,-15l0 -328 -154 0 0 328c0,6 -2,11 -6,15 -3,3 -8,5 -14,5 -5,0 -9,-2 -13,-5 -4,-3 -6,-8 -6,-15l0 -347c0,-13 7,-19 19,-19l193 0c13,0 20,6 20,19l0 347zm165 -77l-27 83c-2,5 -4,8 -8,10 -2,2 -6,3 -10,4 -5,0 -10,-2 -14,-6 -4,-3 -6,-8 -6,-13l1 -7 117 -347c3,-11 9,-17 18,-17 8,0 14,6 18,17l115 347 2 7c0,5 -2,9 -7,13 -4,4 -8,6 -13,6 -3,0 -6,-1 -9,-2 -3,-1 -6,-5 -9,-12l-28 -83 -140 0zm127 -39l-56 -170 -57 170 113 0zm309 -57l0 -174c0,-5 1,-10 5,-14 4,-4 9,-5 14,-5 5,0 9,1 13,4 4,4 6,9 6,15l0 347c0,6 -2,11 -5,15 -4,3 -9,5 -14,5 -5,0 -10,-2 -14,-5 -4,-3 -5,-8 -5,-15l0 -135 -116 0c-21,0 -39,-7 -55,-22 -15,-15 -22,-34 -22,-55l0 -135c0,-5 1,-10 5,-14 4,-4 9,-5 14,-5 5,0 9,1 13,4 4,4 6,9 6,15l0 135c0,11 4,20 11,28 4,3 8,6 12,8 6,2 11,3 16,3l116 0zm174 -27l163 -161c4,-4 8,-5 13,-5 5,0 10,2 14,6 4,4 6,8 6,14 0,3 -2,7 -6,12l-115 115 119 210 2 10c0,5 -2,9 -6,13 -4,4 -8,6 -14,6 -6,0 -12,-4 -16,-10l-113 -202 -47 46 0 146c0,6 -1,11 -5,15 -3,3 -8,5 -14,5 -5,0 -9,-2 -13,-5 -4,-3 -6,-8 -6,-15l0 -348c0,-5 2,-9 6,-13 4,-3 8,-5 13,-5 5,0 10,1 14,4 4,3 5,8 5,14l0 148zm359 123l-28 83c-1,5 -3,8 -7,10 -2,2 -6,3 -10,4 -5,0 -10,-2 -14,-6 -4,-3 -6,-8 -6,-13l1 -7 116 -347c4,-11 10,-17 19,-17 8,0 14,6 18,17l115 347 2 7c0,5 -3,9 -7,13 -4,4 -8,6 -13,6 -3,0 -6,-1 -9,-2 -3,-1 -6,-5 -9,-12l-28 -83 -140 0zm127 -39l-56 -170 -57 170 113 0zm770 -115c0,17 -6,31 -18,43 -11,10 -24,15 -39,15 -16,0 -29,-5 -40,-15 -12,-11 -18,-25 -18,-43l0 -78c0,-17 6,-31 18,-43 11,-10 24,-14 40,-14 15,0 28,4 39,14 12,10 18,25 18,43l0 78zm-154 231c0,5 -2,10 -6,15 -4,3 -8,5 -13,5 -8,0 -14,-4 -18,-10l-156 -282 0 272c0,6 -2,11 -6,15 -3,3 -8,5 -14,5 -5,0 -9,-2 -13,-5 -4,-3 -6,-8 -6,-15l0 -347c0,-5 2,-10 6,-14 4,-4 8,-5 14,-5 7,0 13,3 17,10l156 282 0 -273c0,-5 2,-10 6,-14 4,-4 8,-5 14,-5 4,0 9,1 13,4 4,4 6,9 6,15l0 347zm116 -231l0 -78c0,-5 -2,-10 -6,-15 -4,-2 -9,-4 -13,-4 -5,0 -10,2 -14,5 -4,3 -6,8 -6,14l0 78c0,6 2,11 5,15 4,3 9,4 15,4 4,0 8,-1 13,-5 4,-3 6,-8 6,-14zm526 13l-125 199 120 0c5,0 10,2 13,6 4,4 6,9 6,14 0,4 -2,8 -5,12 -3,5 -8,7 -14,7l-155 0c-14,0 -21,-5 -21,-16 0,-4 2,-9 5,-14l143 -227c4,-11 7,-20 7,-29 0,-17 -7,-31 -19,-44 -7,-5 -14,-10 -22,-13 -8,-3 -17,-5 -26,-5 -10,0 -19,3 -28,8 -9,6 -16,13 -22,22 -2,2 -4,4 -8,7l-8 2c-5,0 -10,-2 -14,-6 -4,-3 -6,-8 -6,-13 0,-3 1,-6 3,-11 9,-14 21,-25 36,-34 7,-4 15,-7 22,-10 8,-2 15,-3 22,-3 30,0 56,10 77,30 21,20 31,43 31,71 0,16 -4,32 -12,47z"/>
   <path class="fil5 str4" d="M17997 5398l0 8509 -5673 0"/>
   <path class="fil5 str5" d="M18307 5788l0 8509 -5673 0"/>
   <path class="fil5 str0" d="M17680 4699l0 8832c-2206,0 -3683,0 -5889,0l0 -8832 5889 0z"/>
   <g>
    <path class="fil6" d="M4323 5675l-114 0 0 -153 201 0c18,0 35,-11 35,-37 0,-25 -17,-37 -35,-37l-237 0c-27,0 -38,18 -38,38l0 497c0,20 11,38 38,38l150 0c102,0 152,-69 152,-159l0 -37c0,-91 -50,-150 -152,-150zm78 195c0,49 -22,77 -76,77l-116 0 0 -204 114 0c55,0 78,29 78,78l0 49zm495 -430c-105,0 -151,92 -151,182l0 59 -72 0 0 -204c0,-19 -8,-37 -35,-37 -25,0 -35,18 -35,37l0 515c0,19 10,37 35,37 26,0 35,-18 35,-37l0 -237 72 0 0 109c0,90 45,165 145,165l42 0c100,0 149,-74 149,-164l0 -261c0,-91 -49,-164 -149,-164l-36 0zm111 425c0,51 -21,90 -75,90l-38 0c-54,0 -75,-39 -75,-90l0 -237c0,-51 20,-115 77,-115l36 0c53,0 75,41 75,86l0 266zm315 53c5,-47 46,-396 46,-396l138 0 0 470c0,19 11,37 37,37 26,0 37,-18 37,-37l0 -506c0,-20 -11,-38 -37,-38l-205 0c-23,0 -35,16 -38,38 -2,23 -45,381 -48,413 -3,19 -5,31 -10,39 -8,16 -21,20 -44,20 -19,0 -36,12 -36,38 0,28 17,37 36,37 69,0 97,-23 113,-64 5,-15 8,-30 11,-51zm521 0c6,-47 47,-396 47,-396l138 0 0 470c0,19 11,37 37,37 26,0 37,-18 37,-37l0 -506c0,-20 -11,-38 -37,-38l-205 0c-23,0 -35,16 -38,38 -2,23 -45,381 -49,413 -2,19 -4,31 -9,39 -8,16 -21,20 -44,20 -19,0 -36,12 -36,38 0,28 17,37 36,37 68,0 97,-23 112,-64 6,-15 9,-30 11,-51zm702 103c18,0 34,-11 34,-37 0,-24 -16,-37 -34,-37l-216 0 0 -184 178 0c18,0 35,-10 35,-37 0,-24 -17,-37 -35,-37l-178 0 0 -167 216 0c18,0 34,-11 34,-37 0,-25 -16,-37 -34,-37l-254 0c-25,0 -36,18 -36,38l0 497c0,20 11,38 36,38l254 0zm297 8c26,0 37,-18 37,-37l0 -470 114 0c19,0 35,-11 35,-37 0,-25 -16,-37 -35,-37l-303 0c-18,0 -35,12 -35,37 0,26 17,37 35,37l115 0 0 470c0,19 11,37 37,37zm579 -8c18,0 35,-11 35,-37 0,-24 -17,-37 -35,-37l-216 0 0 -184 178 0c18,0 35,-10 35,-37 0,-24 -17,-37 -35,-37l-178 0 0 -167 216 0c18,0 35,-11 35,-37 0,-25 -17,-37 -35,-37l-253 0c-26,0 -37,18 -37,38l0 497c0,20 11,38 37,38l253 0zm512 -544c0,-19 -12,-37 -37,-37 -26,0 -37,18 -37,37l0 204 -207 0 0 -204c0,-19 -11,-37 -37,-37 -26,0 -37,18 -37,37l0 515c0,19 11,37 37,37 26,0 37,-18 37,-37l0 -237 207 0 0 237c0,19 10,37 37,37 25,0 37,-18 37,-37l0 -515zm351 193l-124 0 0 -193c0,-19 -11,-37 -37,-37 -26,0 -37,18 -37,37l0 506c0,20 11,38 38,38l160 0c102,0 152,-69 152,-159l0 -37c0,-91 -48,-155 -152,-155zm78 200c0,49 -22,77 -76,77l-126 0 0 -204 124 0c55,0 78,29 78,78l0 49z"/>
    <path id="1" class="fil6" d="M4209 5662l114 0 0 25 -114 0 -12 -12 12 -13zm0 25l-12 0 0 -12 12 12zm13 -165l0 153 -25 0 0 -153 12 -13 13 13zm-25 0l0 -13 12 0 -12 13zm213 12l-201 0 0 -25 201 0 0 0 0 25zm22 -49l25 0 0 0 0 3 0 3 -1 2 0 3 -1 3 0 2 -1 3 -1 2 -1 3 -1 2 -1 2 -2 2 -1 2 -2 2 -1 2 -2 2 -2 1 -1 1 -2 2 -2 1 -2 1 -2 1 -2 1 -2 1 -2 0 -2 1 -2 0 -2 1 -3 0 -2 0 -2 0 -2 0 0 -25 1 0 2 0 1 0 1 0 1 -1 1 0 1 0 1 0 1 -1 1 0 1 -1 1 0 1 -1 1 0 0 -1 1 0 1 -1 0 -1 1 0 1 -1 0 -1 1 -1 0 -1 1 -1 0 -1 0 -2 1 -1 0 -1 0 -2 0 -1 0 -2 0 -2 0 0zm-22 -24l0 -26 0 0 2 0 2 1 3 0 2 0 2 1 2 0 2 1 2 0 2 1 2 1 2 1 2 1 2 2 2 1 2 1 1 2 2 2 2 1 1 2 1 2 2 2 1 2 1 3 1 2 1 2 1 3 0 2 1 3 0 3 1 2 0 3 0 3 -25 0 0 -2 0 -1 0 -2 0 -1 0 -2 -1 -1 0 -1 0 -1 -1 -1 0 -2 -1 0 0 -1 -1 -1 -1 -1 0 -1 -1 0 -1 -1 -1 -1 0 0 -1 -1 -1 0 -1 -1 -1 0 -1 -1 -1 0 -1 0 -1 -1 -1 0 -1 0 -2 0 -1 0 -1 0 0 0zm-237 -26l237 0 0 26 -237 0 0 0 0 -26zm-25 51l-25 0 0 0 0 -3 0 -2 1 -2 0 -3 0 -2 1 -2 0 -2 1 -3 1 -2 1 -2 1 -2 1 -2 1 -2 1 -2 2 -2 1 -2 2 -2 2 -2 2 -1 2 -2 2 -1 2 -1 2 -2 2 -1 3 -1 3 0 2 -1 3 -1 3 0 2 0 3 -1 3 0 0 26 -2 0 -2 0 -1 0 -2 0 -1 1 -2 0 -1 0 -1 1 -2 0 -1 1 -1 1 -1 0 0 1 -1 1 -1 0 -1 1 0 1 -1 1 -1 1 0 0 -1 1 0 1 -1 1 0 2 0 1 -1 1 0 1 0 1 0 2 0 1 0 1 0 2 0 0zm-25 497l0 -497 25 0 0 497 0 0 -25 0zm50 25l0 26 0 0 -3 0 -3 -1 -2 0 -3 0 -3 -1 -2 -1 -3 0 -3 -1 -2 -1 -2 -2 -2 -1 -2 -1 -2 -2 -2 -1 -2 -2 -2 -2 -1 -2 -2 -2 -1 -2 -1 -2 -1 -2 -1 -2 -1 -2 -1 -2 -1 -3 0 -2 -1 -2 0 -2 0 -3 -1 -2 0 -2 0 -3 25 0 0 2 0 1 0 1 0 2 0 1 0 1 1 1 0 1 0 2 1 1 0 1 1 1 0 0 1 1 1 1 0 1 1 1 1 0 1 1 0 1 1 0 1 1 1 1 2 0 1 1 1 0 2 0 1 1 2 0 1 0 2 0 2 0 0 0zm150 26l-150 0 0 -26 150 0 0 0 0 26zm139 -172l25 0 0 0 0 9 -1 9 -1 8 -1 9 -1 8 -2 8 -2 8 -2 8 -3 8 -3 7 -3 7 -4 7 -4 7 -4 7 -5 6 -5 6 -5 6 -6 5 -6 5 -6 5 -7 4 -7 4 -7 4 -8 4 -7 3 -9 2 -8 2 -9 2 -9 2 -9 1 -10 0 -10 1 0 -26 9 0 9 0 8 -1 8 -2 8 -1 7 -2 7 -2 6 -3 7 -3 6 -3 6 -3 5 -4 5 -4 5 -4 5 -5 4 -4 4 -5 4 -5 4 -6 3 -5 3 -6 3 -6 2 -7 3 -6 2 -7 1 -7 2 -7 1 -7 1 -8 1 -7 0 -8 0 -8 0 0zm25 -37l0 37 -25 0 0 -37 0 0 25 0zm-164 -138l0 -25 0 0 10 0 10 1 9 1 9 1 9 2 8 1 8 3 8 2 7 3 8 4 7 3 6 4 7 5 6 4 5 5 6 6 5 5 4 6 5 6 4 7 4 6 3 7 3 8 3 7 2 8 2 7 2 8 1 9 1 8 1 9 1 8 0 9 -25 0 0 -8 0 -8 -1 -7 -1 -7 -1 -8 -1 -7 -2 -6 -2 -7 -3 -6 -2 -6 -3 -5 -3 -6 -3 -5 -4 -5 -3 -5 -5 -4 -4 -5 -4 -4 -5 -3 -6 -4 -5 -3 -6 -3 -6 -3 -6 -3 -7 -2 -7 -2 -7 -2 -8 -1 -8 -1 -8 -1 -9 0 -9 -1 0 0zm2 273l0 -25 0 0 5 0 4 -1 4 0 4 -1 4 0 3 -1 4 -1 3 -1 3 -1 3 -1 2 -1 2 -2 3 -1 2 -2 2 -2 1 -2 2 -1 2 -2 1 -3 1 -2 2 -2 1 -3 1 -3 1 -3 1 -3 0 -3 1 -3 1 -4 0 -4 0 -3 0 -4 0 -5 25 0 0 5 -1 5 0 5 0 4 -1 5 -1 4 -1 5 -1 4 -1 4 -2 4 -2 4 -1 4 -3 3 -2 4 -2 3 -3 3 -3 3 -3 3 -3 2 -4 3 -3 2 -4 2 -4 2 -4 1 -5 2 -4 1 -5 1 -4 1 -5 0 -5 1 -6 0 -5 0 0 0zm-116 -25l116 0 0 25 -116 0 -12 -13 12 -12zm0 25l-12 0 0 -13 12 13zm13 -217l0 204 -25 0 0 -204 12 -12 13 12zm-25 0l0 -12 12 0 -12 12zm126 13l-114 0 0 -25 114 0 0 0 0 25zm90 65l-25 0 0 0 0 -4 0 -4 0 -4 -1 -3 0 -4 -1 -3 -1 -4 0 -3 -1 -3 -1 -2 -2 -3 -1 -3 -1 -2 -2 -2 -2 -2 -1 -2 -2 -2 -2 -2 -2 -1 -3 -2 -2 -2 -3 -1 -2 -1 -3 -1 -4 -1 -3 -1 -4 -1 -3 -1 -4 0 -5 -1 -4 0 -5 0 0 -25 6 0 5 0 5 1 5 0 5 1 5 1 4 1 4 2 5 1 4 2 3 2 4 2 4 3 3 2 3 3 3 3 3 3 2 4 3 3 2 4 2 3 2 4 1 4 2 4 1 5 1 4 1 5 1 4 0 5 0 4 1 5 0 5 0 0zm-25 49l0 -49 25 0 0 49 0 0 -25 0zm369 -248l-25 0 0 0 1 -9 0 -8 1 -9 1 -9 1 -9 2 -9 2 -8 2 -9 2 -8 3 -8 3 -9 4 -7 4 -8 4 -8 4 -7 5 -7 6 -7 5 -7 6 -6 6 -6 7 -5 7 -6 7 -4 8 -5 8 -4 8 -3 9 -3 9 -2 9 -2 10 -2 10 -1 10 0 0 25 -9 1 -8 0 -9 2 -8 1 -7 2 -8 3 -7 3 -6 3 -7 4 -6 4 -5 4 -6 4 -5 5 -5 6 -5 5 -4 6 -4 6 -4 6 -4 7 -3 7 -3 7 -3 7 -3 7 -2 7 -2 8 -1 8 -2 8 -1 7 -1 8 -1 8 0 8 0 8 0 0zm-25 59l0 -59 25 0 0 59 -12 13 -13 -13zm25 0l0 13 -12 0 12 -13zm-84 -12l72 0 0 25 -72 0 -12 -13 12 -12zm0 25l-12 0 0 -13 12 13zm12 -217l0 204 -24 0 0 -204 0 0 24 0zm-47 -25l0 -25 0 0 3 0 3 0 3 1 3 0 2 1 3 0 2 1 3 1 2 1 2 2 2 1 2 1 2 2 2 2 2 2 1 1 2 2 1 2 1 2 1 2 1 3 1 2 1 2 0 2 1 2 0 2 0 3 1 2 0 2 0 2 0 2 0 2 -24 0 0 -1 0 -1 0 -2 0 -1 -1 -2 0 -1 0 -1 0 -1 -1 -2 0 -1 0 -1 -1 -1 0 0 -1 -1 0 -1 -1 -1 0 -1 -1 0 -1 -1 0 0 -1 -1 -1 0 -1 -1 -1 0 -1 -1 -1 0 -1 -1 -2 0 -1 0 -2 0 -2 0 -2 -1 0 0zm-23 25l-24 0 0 0 0 -2 0 -2 0 -2 0 -3 1 -2 0 -2 1 -2 0 -3 1 -2 1 -2 1 -2 1 -2 1 -2 1 -2 2 -2 1 -2 2 -2 1 -1 2 -2 2 -2 2 -1 2 -1 2 -2 2 -1 3 -1 2 -1 3 0 2 -1 3 0 3 -1 3 0 2 0 0 25 -1 1 -2 0 -2 0 -1 0 -1 0 -2 1 -1 0 -1 1 -1 0 -1 1 -1 0 -1 1 0 0 -1 1 -1 1 0 1 -1 0 -1 1 0 1 -1 1 0 1 -1 1 0 1 0 1 -1 1 0 1 0 2 0 1 -1 1 0 2 0 1 0 1 0 0zm-24 515l0 -515 24 0 0 515 0 0 -24 0zm47 24l0 26 0 0 -2 0 -3 0 -3 -1 -3 0 -2 -1 -3 0 -2 -1 -3 -1 -2 -1 -2 -2 -2 -1 -2 -1 -2 -2 -2 -2 -1 -1 -2 -2 -1 -2 -2 -2 -1 -2 -1 -2 -1 -2 -1 -2 -1 -2 -1 -2 0 -3 -1 -2 0 -2 -1 -2 0 -3 0 -2 0 -2 0 -2 24 0 0 1 0 1 0 2 1 1 0 1 0 1 0 2 1 1 0 1 0 1 1 1 0 1 1 1 0 1 1 1 1 0 0 1 1 1 1 1 0 0 1 1 1 0 1 1 1 0 1 1 1 0 2 1 1 0 1 0 2 0 2 0 1 0 0 0zm23 -24l24 0 0 0 0 2 0 2 0 2 0 2 -1 3 0 2 0 2 -1 2 -1 2 0 2 -1 3 -1 2 -1 2 -1 2 -2 2 -1 2 -2 2 -1 1 -2 2 -2 2 -2 1 -2 1 -2 2 -2 1 -3 1 -2 1 -3 0 -2 1 -3 0 -3 1 -3 0 -3 0 0 -26 2 0 2 0 2 0 1 0 2 0 1 -1 1 0 1 -1 1 0 1 -1 1 0 0 -1 1 0 1 -1 0 -1 1 0 1 -1 0 -1 1 -1 0 -1 0 -1 1 -1 0 -1 1 -1 0 -1 0 -1 0 -2 1 -1 0 -1 0 -2 0 -1 0 -1 0 0zm24 -237l0 237 -24 0 0 -237 12 -13 12 13zm-24 0l0 -13 12 0 -12 13zm84 13l-72 0 0 -26 72 0 12 13 -12 13zm0 -26l12 0 0 13 -12 -13zm-13 122l0 -109 25 0 0 109 0 0 -25 0zm158 152l0 26 0 0 -10 0 -9 -1 -9 -1 -9 -2 -9 -2 -8 -2 -8 -3 -8 -3 -7 -4 -7 -4 -7 -5 -6 -4 -6 -5 -6 -6 -5 -6 -5 -6 -5 -6 -5 -7 -4 -6 -3 -7 -4 -8 -3 -7 -3 -8 -2 -8 -2 -8 -2 -8 -2 -8 -1 -8 -1 -9 -1 -9 0 -8 -1 -9 25 0 0 8 0 8 1 7 1 8 1 7 1 8 2 7 2 7 2 7 3 6 2 7 3 6 3 6 4 5 3 6 4 5 4 5 5 5 5 4 5 5 5 3 5 4 6 3 6 3 7 3 6 3 7 2 8 1 7 2 8 1 9 0 8 0 0 0zm42 26l-42 0 0 -26 42 0 0 0 0 26zm137 -177l25 0 0 0 -1 9 0 9 -1 9 -1 8 -1 9 -2 8 -2 8 -2 8 -3 8 -3 7 -3 8 -4 7 -4 7 -4 7 -5 6 -5 6 -5 6 -6 6 -5 5 -7 5 -6 5 -7 4 -7 4 -8 4 -8 3 -8 3 -8 2 -9 2 -9 2 -9 1 -9 1 -10 0 0 -26 9 0 8 0 8 -1 8 -2 7 -1 7 -2 7 -3 7 -2 6 -3 6 -4 6 -3 5 -4 5 -4 5 -5 5 -4 4 -5 4 -5 4 -6 4 -5 3 -6 3 -6 3 -7 2 -6 3 -7 2 -7 1 -7 2 -7 1 -8 1 -7 1 -8 0 -8 0 -8 0 0zm25 -261l0 261 -25 0 0 -261 0 0 25 0zm-162 -152l0 -25 0 0 10 0 9 1 9 1 9 2 9 2 8 2 8 3 8 3 8 4 7 4 7 4 6 5 7 5 5 5 6 6 5 6 5 6 5 6 4 7 4 7 4 7 3 8 3 7 3 8 2 8 2 8 2 8 1 9 1 8 1 9 0 9 1 9 -25 0 0 -8 0 -8 -1 -8 -1 -7 -1 -8 -2 -7 -1 -7 -2 -7 -3 -7 -2 -6 -3 -7 -3 -6 -3 -6 -4 -5 -4 -6 -4 -5 -4 -5 -5 -4 -5 -5 -5 -4 -5 -4 -6 -3 -6 -4 -6 -3 -7 -2 -7 -3 -7 -2 -7 -1 -8 -2 -8 -1 -8 0 -9 -1 0 0zm-36 -25l36 0 0 25 -36 0 0 0 0 -25zm36 541l0 -25 0 0 4 0 5 -1 4 0 3 -1 4 -1 3 -1 4 -1 3 -1 3 -1 2 -2 3 -2 2 -2 2 -2 3 -2 2 -2 1 -2 2 -3 2 -2 1 -3 2 -3 1 -3 1 -4 2 -3 1 -3 0 -4 1 -4 1 -4 0 -4 1 -4 0 -4 0 -4 0 -5 25 0 0 6 -1 5 0 5 -1 4 0 5 -1 5 -1 5 -1 4 -1 5 -2 4 -1 5 -2 4 -2 4 -2 4 -3 4 -2 3 -3 4 -3 3 -3 3 -4 3 -3 3 -4 3 -4 2 -4 2 -5 2 -4 2 -5 1 -5 1 -5 1 -5 1 -6 0 -5 0 0 0zm-38 -25l38 0 0 25 -38 0 0 0 0 -25zm-88 -78l25 0 0 0 0 5 0 4 0 4 1 4 0 4 1 4 1 4 0 4 1 3 2 3 1 4 1 3 2 3 1 3 2 2 2 3 1 2 2 2 3 2 2 2 2 2 3 2 3 2 2 1 3 1 4 1 3 1 4 1 3 1 4 0 5 1 4 0 0 25 -5 0 -6 0 -5 -1 -5 -1 -5 -1 -5 -1 -4 -2 -5 -2 -4 -2 -4 -2 -4 -3 -3 -3 -4 -3 -3 -3 -3 -3 -3 -4 -2 -3 -3 -4 -2 -4 -2 -4 -2 -4 -1 -5 -2 -4 -1 -5 -1 -4 -1 -5 -1 -5 0 -5 -1 -4 0 -5 0 -5 -1 -6 0 0zm25 -237l0 237 -25 0 0 -237 0 0 25 0zm65 -127l0 25 0 0 -4 0 -4 1 -4 1 -4 0 -4 2 -3 1 -3 2 -3 2 -3 2 -3 2 -3 3 -2 3 -3 3 -2 3 -2 4 -2 3 -2 4 -2 4 -2 4 -1 4 -2 4 -1 5 -1 4 -1 5 -1 4 -1 5 -1 4 0 5 -1 5 0 4 0 5 0 4 -25 0 1 -5 0 -5 0 -5 0 -6 1 -5 1 -5 1 -6 1 -5 1 -5 1 -6 2 -5 2 -5 2 -5 2 -5 2 -5 2 -5 3 -4 3 -5 3 -4 4 -4 3 -4 4 -4 4 -3 4 -3 5 -3 5 -3 5 -2 5 -2 6 -1 5 -1 6 -1 6 0 0 0zm36 25l-36 0 0 -25 36 0 0 0 0 25zm88 73l-25 0 0 0 0 -3 0 -4 0 -4 -1 -4 0 -3 -1 -4 -1 -3 0 -4 -1 -3 -2 -3 -1 -3 -1 -3 -2 -3 -1 -3 -2 -2 -2 -3 -2 -2 -2 -2 -2 -2 -2 -2 -3 -2 -2 -2 -3 -2 -3 -1 -3 -1 -3 -1 -3 -1 -4 -1 -4 -1 -4 0 -4 -1 -4 0 0 -25 5 0 6 0 5 1 5 1 5 1 4 1 5 2 4 2 4 2 4 2 4 3 4 3 3 3 3 3 3 3 3 3 3 4 2 4 2 3 3 4 1 4 2 5 2 4 1 4 1 4 1 5 1 4 0 5 1 4 0 5 1 5 0 4 0 0zm-25 266l0 -266 25 0 0 266 0 0 -25 0zm373 -356l0 25 12 -11 0 1 0 3 -1 5 -1 6 -1 8 -1 10 -1 11 -1 12 -2 13 -2 14 -1 15 -2 15 -2 17 -2 16 -2 17 -2 18 -2 17 -2 18 -2 17 -2 18 -2 16 -2 17 -2 16 -2 15 -1 14 -2 13 -1 13 -2 11 -1 10 -1 8 -1 7 0 5 -24 -3 0 -5 1 -7 1 -8 1 -10 1 -11 2 -13 1 -13 2 -14 2 -15 2 -16 2 -17 2 -17 2 -17 2 -17 2 -18 2 -17 2 -18 2 -17 2 -17 2 -16 2 -15 1 -15 2 -14 1 -14 2 -12 1 -10 1 -10 1 -8 1 -6 0 -5 1 -3 0 -1 12 -11zm-12 11l1 -11 11 0 -12 11zm150 14l-138 0 0 -25 138 0 12 13 -12 12zm0 -25l12 0 0 13 -12 -13zm-12 483l0 -470 24 0 0 470 0 0 -24 0zm49 24l0 26 0 0 -2 0 -3 0 -3 -1 -3 0 -3 -1 -2 0 -3 -1 -2 -1 -3 -1 -2 -1 -2 -2 -2 -1 -2 -2 -2 -1 -2 -2 -1 -2 -2 -2 -1 -2 -2 -2 -1 -2 -1 -2 -1 -2 -1 -2 -1 -2 0 -2 -1 -3 0 -2 -1 -2 0 -3 0 -2 0 -2 0 -2 24 0 0 1 0 1 0 2 0 1 0 1 1 1 0 1 0 2 1 1 0 1 1 1 0 1 1 1 0 1 1 0 1 1 0 1 1 1 1 0 1 1 1 1 1 0 1 1 1 0 1 1 1 0 2 1 1 0 2 0 2 0 2 0 1 0 0 0zm25 -24l24 0 0 0 0 2 0 2 -1 2 0 3 0 2 -1 2 0 2 -1 3 -1 2 -1 2 0 2 -2 2 -1 2 -1 2 -1 2 -2 2 -1 2 -2 2 -2 1 -2 2 -2 1 -2 1 -2 2 -3 1 -2 1 -2 1 -3 0 -2 1 -3 0 -3 1 -3 0 -3 0 0 -26 2 0 2 0 2 0 1 0 1 0 2 -1 1 0 1 -1 1 0 1 -1 1 0 1 -1 1 -1 0 0 1 -1 1 -1 1 0 0 -1 1 -1 0 -1 1 -1 0 -1 1 -1 0 -1 0 -2 1 -1 0 -1 0 -1 0 -1 0 -2 0 -1 1 -1 0 0zm24 -506l0 506 -24 0 0 -506 0 0 24 0zm-49 -25l0 -26 0 0 3 0 3 1 3 0 3 0 2 1 3 1 2 0 2 1 3 2 2 1 2 1 2 1 2 2 2 2 2 1 1 2 2 2 1 2 1 2 1 2 2 2 0 2 1 2 1 2 1 3 0 2 1 2 0 2 0 3 1 2 0 2 0 3 -24 0 -1 -2 0 -1 0 -1 0 -2 0 -1 0 -1 -1 -1 0 -1 0 -2 -1 -1 0 -1 -1 -1 0 -1 -1 0 0 -1 -1 -1 -1 -1 0 -1 -1 0 -1 -1 -1 -1 -1 0 -1 -1 -1 0 -1 -1 -1 0 -2 0 -1 -1 -1 0 -2 0 -2 0 -2 0 0 0zm-205 -26l205 0 0 26 -205 0 0 0 0 -26zm-26 52l-24 -3 0 0 1 -2 0 -3 0 -2 1 -2 1 -3 0 -2 1 -2 1 -3 1 -2 1 -2 1 -2 1 -2 1 -2 2 -2 1 -2 2 -1 2 -2 1 -2 2 -1 2 -1 2 -2 2 -1 2 -1 2 -1 3 -1 2 -1 2 0 3 -1 2 0 3 0 3 -1 2 0 0 26 -1 0 -2 0 -1 0 -2 0 -1 0 -1 1 -2 0 -1 1 -1 0 -1 1 -1 0 -1 1 0 0 -1 1 -1 1 -1 0 -1 1 0 1 -1 1 -1 1 0 1 -1 1 0 1 -1 1 0 2 -1 1 0 1 0 2 -1 1 0 2 0 1 -1 2 0 0zm-24 -3l0 0 0 0 0 0zm-24 417l-24 -4 0 0 0 -4 1 -5 1 -8 1 -9 1 -10 1 -12 2 -12 1 -14 2 -15 2 -16 2 -16 2 -17 2 -17 2 -18 2 -18 2 -18 3 -18 2 -18 2 -18 2 -17 2 -17 2 -16 2 -15 1 -15 2 -13 1 -13 2 -11 1 -10 1 -8 0 -7 1 -5 0 -3 24 3 0 3 0 5 -1 7 -1 8 -1 10 -2 11 -1 13 -2 13 -1 15 -2 15 -2 16 -2 17 -2 17 -2 18 -2 18 -2 18 -3 18 -2 18 -2 18 -2 17 -2 17 -2 16 -2 16 -1 15 -2 14 -2 13 -1 11 -1 11 -1 9 -1 7 -1 6 0 4 0 0zm0 0l0 0 -1 1 1 -1zm-11 43l-22 -12 1 0 0 -1 0 0 0 -1 1 0 0 -1 0 -1 1 0 0 -1 0 -1 0 -1 1 0 0 -1 0 -1 0 -1 1 -1 0 -1 0 -1 0 -2 1 -1 0 -1 0 -1 0 -1 1 -2 0 -1 0 -2 0 -1 0 -1 1 -2 0 -2 0 -1 0 -2 1 -2 24 4 -1 1 0 2 0 2 0 2 -1 1 0 2 0 1 0 2 0 2 -1 1 0 2 0 1 -1 1 0 2 0 1 0 2 -1 1 0 1 0 2 -1 1 0 1 -1 1 0 2 0 1 -1 1 0 1 -1 1 0 1 -1 1 0 2 -1 1 0 1 0 -1zm-22 -12l1 0 0 0 -1 0zm-33 39l0 -26 0 0 2 0 2 0 2 0 2 0 1 0 2 0 1 0 2 0 1 -1 2 0 1 0 1 0 1 -1 1 0 1 0 1 -1 1 0 1 -1 1 0 0 0 1 -1 1 0 0 -1 1 0 1 -1 0 -1 1 0 0 -1 1 -1 0 -1 1 -1 0 -1 22 12 -1 2 -1 2 -1 2 -1 1 -2 2 -1 1 -1 2 -2 1 -1 2 -2 1 -1 1 -2 1 -2 1 -1 1 -2 1 -2 1 -2 0 -1 1 -2 1 -2 0 -2 1 -2 0 -2 0 -2 1 -2 0 -2 0 -2 0 -2 0 -2 0 -2 1 -3 0 -2 0 0 0zm-24 25l-24 0 0 0 0 -3 0 -2 0 -3 1 -3 0 -3 1 -2 1 -3 1 -2 1 -3 1 -2 1 -2 1 -3 2 -2 1 -1 2 -2 2 -2 1 -2 2 -1 2 -1 2 -2 2 -1 2 -1 2 -1 2 -1 3 0 2 -1 2 -1 2 0 2 0 3 -1 2 0 2 0 0 26 -1 0 -2 0 -1 0 -1 0 -1 0 -1 1 -1 0 -2 0 -1 1 -1 0 -1 1 -1 0 0 1 -1 0 -1 1 -1 1 -1 0 0 1 -1 1 -1 1 0 1 -1 1 0 1 -1 1 0 1 -1 2 0 1 0 2 -1 1 0 2 0 2 0 1 0 0zm24 25l0 25 0 0 -2 0 -2 0 -2 0 -2 -1 -3 0 -2 0 -2 -1 -2 0 -2 -1 -2 -1 -2 -1 -2 -1 -2 -1 -2 -1 -2 -1 -2 -2 -2 -2 -1 -1 -2 -2 -1 -2 -2 -2 -1 -2 -1 -3 -1 -2 -1 -3 -1 -2 -1 -3 0 -3 -1 -3 0 -3 0 -3 0 -3 24 0 0 2 0 2 0 2 1 2 0 1 0 2 1 1 0 1 1 1 0 1 1 1 0 1 1 0 0 1 1 1 1 0 0 1 1 1 1 0 1 1 1 0 1 0 1 1 1 0 1 1 1 0 1 0 2 0 1 0 1 1 2 0 1 0 0 0zm101 -56l23 9 0 0 -2 4 -2 4 -1 4 -2 4 -2 4 -3 3 -2 4 -2 3 -3 4 -3 3 -3 3 -3 3 -3 3 -3 3 -4 2 -4 3 -4 2 -4 2 -4 2 -4 2 -5 1 -4 2 -5 1 -5 1 -5 1 -6 1 -5 1 -6 1 -6 0 -6 1 -6 0 -7 0 0 -25 6 0 6 -1 5 0 6 0 5 -1 5 -1 4 0 5 -1 4 -1 4 -1 4 -2 3 -1 4 -1 3 -2 3 -2 3 -1 3 -2 2 -2 3 -2 2 -2 2 -2 2 -2 2 -3 2 -2 2 -3 2 -2 2 -3 1 -3 2 -3 1 -4 2 -3 1 -3 0 0zm23 9l0 0 0 0 0 0zm-12 -58l24 3 0 0 -1 2 0 2 0 2 0 2 -1 2 0 2 0 2 0 2 -1 2 0 1 0 2 -1 2 0 1 0 2 -1 2 0 2 0 1 -1 2 0 1 0 2 -1 2 0 1 -1 2 0 1 -1 2 0 1 0 2 -1 2 0 1 -1 2 0 1 -1 2 -23 -9 1 -1 0 -2 1 -1 0 -1 0 -2 1 -1 0 -1 1 -2 0 -1 0 -2 1 -1 0 -1 0 -2 1 -1 0 -2 0 -1 1 -1 0 -2 0 -1 1 -2 0 -2 0 -1 0 -2 1 -1 0 -2 0 -2 0 -1 1 -2 0 -2 0 -2 0 -2 1 -2 0 0zm0 0l0 0 0 0 0 0zm580 -407l0 25 12 -11 0 1 -1 3 0 5 -1 6 -1 8 -1 10 -1 11 -2 12 -1 13 -2 14 -1 15 -2 15 -2 17 -2 16 -2 17 -2 18 -2 17 -2 18 -2 17 -2 18 -2 16 -2 17 -2 16 -2 15 -2 14 -1 13 -2 13 -1 11 -1 10 -1 8 -1 7 0 5 -25 -3 1 -5 1 -7 1 -8 1 -10 1 -11 2 -13 1 -13 2 -14 2 -15 2 -16 2 -17 2 -17 2 -17 2 -17 2 -18 2 -17 2 -18 2 -17 2 -17 2 -16 1 -15 2 -15 2 -14 1 -14 2 -12 1 -10 1 -10 1 -8 1 -6 0 -5 1 -3 0 -1 12 -11zm-12 11l1 -11 11 0 -12 11zm150 14l-138 0 0 -25 138 0 12 13 -12 12zm0 -25l12 0 0 13 -12 -13zm-13 483l0 -470 25 0 0 470 0 0 -25 0zm50 24l0 26 0 0 -3 0 -3 0 -2 -1 -3 0 -3 -1 -2 0 -3 -1 -2 -1 -3 -1 -2 -1 -2 -2 -2 -1 -2 -2 -2 -1 -2 -2 -2 -2 -1 -2 -2 -2 -1 -2 -1 -2 -1 -2 -1 -2 -1 -2 -1 -2 0 -2 -1 -3 -1 -2 0 -2 0 -3 0 -2 -1 -2 0 -2 25 0 0 1 0 1 0 2 0 1 0 1 1 1 0 1 0 2 1 1 0 1 1 1 0 1 1 1 0 1 1 0 0 1 1 1 1 1 1 0 1 1 0 1 1 0 2 1 1 0 1 1 1 0 2 1 1 0 2 0 2 0 1 0 2 0 0 0zm24 -24l25 0 0 0 0 2 0 2 -1 2 0 3 0 2 -1 2 0 2 -1 3 -1 2 -1 2 -1 2 -1 2 -1 2 -1 2 -1 2 -2 2 -2 2 -1 2 -2 1 -2 2 -2 1 -2 1 -2 2 -3 1 -2 1 -3 1 -2 0 -3 1 -2 0 -3 1 -3 0 -3 0 0 -26 2 0 2 0 1 0 2 0 1 0 2 -1 1 0 1 -1 1 0 1 -1 1 0 1 -1 1 -1 0 0 1 -1 1 -1 0 0 1 -1 1 -1 0 -1 1 -1 0 -1 1 -1 0 -1 0 -1 1 -2 0 -1 0 -1 0 -1 0 -2 0 -1 0 -1 0 0zm25 -506l0 506 -25 0 0 -506 0 0 25 0zm-49 -25l0 -26 0 0 3 0 3 1 3 0 2 0 3 1 2 1 3 0 2 1 3 2 2 1 2 1 2 1 2 2 2 2 1 1 2 2 2 2 1 2 1 2 1 2 1 2 1 2 1 2 1 2 1 3 0 2 1 2 0 2 0 3 1 2 0 2 0 3 -25 0 0 -2 0 -1 0 -1 0 -2 0 -1 0 -1 -1 -1 0 -1 0 -2 -1 -1 0 -1 -1 -1 0 -1 -1 0 -1 -1 0 -1 -1 -1 -1 -1 0 0 -1 -1 -1 -1 -1 0 -1 -1 -1 0 -1 -1 -1 0 -2 0 -1 -1 -2 0 -1 0 -2 0 -2 0 0 0zm-205 -26l205 0 0 26 -205 0 0 0 0 -26zm-26 52l-24 -3 0 0 0 -2 1 -3 0 -2 1 -2 0 -3 1 -2 1 -2 1 -3 1 -2 1 -2 1 -2 1 -2 1 -2 2 -2 1 -2 2 -1 1 -2 2 -2 2 -1 2 -1 2 -2 2 -1 2 -1 2 -1 3 -1 2 -1 2 0 3 -1 2 0 3 0 2 -1 3 0 0 26 -2 0 -1 0 -2 0 -1 0 -1 0 -1 1 -2 0 -1 1 -1 0 -1 1 -1 0 -1 1 -1 0 0 1 -1 1 -1 0 -1 1 0 1 -1 1 -1 1 0 1 -1 1 0 1 -1 1 0 2 -1 1 0 1 -1 2 0 1 0 2 0 1 -1 2 0 0zm-24 -3l0 0 0 0 0 0zm-25 417l-24 -4 0 0 1 -4 1 -5 0 -8 2 -9 1 -10 1 -12 2 -12 1 -14 2 -15 2 -16 2 -16 2 -17 2 -18 2 -17 2 -18 2 -18 2 -18 3 -18 2 -18 2 -17 2 -17 2 -16 1 -15 2 -15 2 -13 1 -13 1 -11 2 -10 0 -8 1 -7 1 -5 0 -3 24 3 0 3 -1 5 0 7 -1 8 -1 10 -2 11 -1 13 -2 13 -1 15 -2 15 -2 16 -2 17 -2 17 -2 18 -2 18 -3 18 -2 18 -2 18 -2 18 -2 17 -2 17 -2 16 -2 16 -2 15 -1 14 -2 13 -1 11 -1 11 -1 9 -1 7 -1 6 -1 4 0 0zm0 0l0 0 0 1 0 -1zm-10 43l-22 -12 1 0 0 -1 0 0 0 -1 1 0 0 -1 0 -1 0 0 1 -1 0 -1 0 -1 1 0 0 -1 0 -1 0 -1 1 -1 0 -1 0 -1 0 -2 0 -1 1 -1 0 -1 0 -1 0 -2 1 -1 0 -2 0 -1 0 -1 1 -2 0 -2 0 -1 0 -2 0 -2 24 4 0 1 0 2 0 2 0 2 -1 1 0 2 0 1 0 2 -1 2 0 1 0 2 0 1 -1 1 0 2 0 1 -1 2 0 1 0 1 -1 2 0 1 0 1 -1 1 0 2 0 1 -1 1 0 1 -1 1 0 1 -1 1 0 2 -1 1 -1 1 1 -1zm-22 -12l0 0 1 0 -1 0zm-33 39l0 -26 0 0 2 0 2 0 2 0 1 0 2 0 2 0 1 0 2 0 1 -1 1 0 2 0 1 0 1 -1 1 0 1 0 1 -1 1 0 1 -1 1 0 0 0 1 -1 1 0 0 -1 1 0 0 -1 1 -1 1 0 0 -1 1 -1 0 -1 1 -1 0 -1 22 12 -1 2 -1 2 -1 2 -2 1 -1 2 -1 1 -1 2 -2 1 -1 2 -2 1 -1 1 -2 1 -2 1 -1 1 -2 1 -2 1 -2 0 -2 1 -1 1 -2 0 -2 1 -2 0 -2 0 -2 1 -2 0 -2 0 -2 0 -2 0 -2 0 -3 1 -2 0 -2 0 0 0zm-24 25l-24 0 0 0 0 -3 0 -2 0 -3 1 -3 0 -3 1 -2 1 -3 1 -2 1 -3 1 -2 1 -2 1 -3 2 -2 1 -1 2 -2 2 -2 1 -2 2 -1 2 -1 2 -2 2 -1 2 -1 2 -1 2 -1 2 0 3 -1 2 -1 2 0 2 0 2 -1 3 0 2 0 0 26 -1 0 -2 0 -1 0 -1 0 -1 0 -1 1 -2 0 -1 0 -1 1 -1 0 -1 1 -1 0 -1 1 0 0 -1 1 -1 1 -1 0 -1 1 0 1 -1 1 0 1 -1 1 -1 1 0 1 0 1 -1 2 0 1 -1 2 0 1 0 2 0 2 0 1 0 0zm24 25l0 25 0 0 -2 0 -2 0 -2 0 -3 -1 -2 0 -2 0 -2 -1 -2 0 -2 -1 -2 -1 -2 -1 -2 -1 -2 -1 -2 -1 -2 -1 -2 -2 -2 -2 -1 -1 -2 -2 -2 -2 -1 -2 -1 -2 -1 -3 -1 -2 -1 -3 -1 -2 -1 -3 0 -3 -1 -3 0 -3 0 -3 0 -3 24 0 0 2 0 2 0 2 0 2 1 1 0 2 1 1 0 1 0 1 1 1 0 1 1 1 1 0 0 1 1 1 0 0 1 1 1 1 1 0 1 1 1 0 1 0 1 1 1 0 1 1 1 0 1 0 1 0 2 0 1 1 2 0 1 0 0 0zm101 -56l23 9 0 0 -2 4 -2 4 -1 4 -2 4 -3 4 -2 3 -2 4 -3 3 -2 4 -3 3 -3 3 -3 3 -3 3 -4 3 -3 2 -4 3 -4 2 -4 2 -4 2 -4 2 -5 1 -4 2 -5 1 -5 1 -5 1 -6 1 -5 1 -6 1 -6 0 -6 1 -7 0 -6 0 0 -25 6 0 6 -1 5 0 6 0 5 -1 5 -1 4 0 5 -1 4 -1 4 -1 4 -2 3 -1 4 -1 3 -2 3 -2 3 -1 3 -2 2 -2 3 -2 2 -2 2 -2 2 -2 2 -3 2 -2 2 -3 2 -2 2 -3 1 -3 2 -3 1 -4 2 -3 1 -3 0 0zm23 9l0 0 0 0 0 0zm-13 -58l25 3 0 0 -1 2 0 2 0 2 0 2 -1 2 0 2 0 2 0 2 -1 2 0 1 0 2 -1 2 0 1 0 2 -1 2 0 2 0 1 -1 2 0 1 0 2 -1 2 0 1 -1 2 0 1 -1 2 0 2 -1 1 0 2 -1 1 0 2 -1 1 0 2 -23 -9 1 -1 0 -2 0 -1 1 -1 0 -2 1 -1 0 -1 1 -2 0 -1 0 -2 1 -1 0 -1 0 -2 1 -1 0 -2 0 -1 1 -1 0 -2 0 -1 0 -2 1 -2 0 -1 0 -2 1 -1 0 -2 0 -2 0 -1 0 -2 1 -2 0 -2 0 -2 0 -2 0 0zm0 0l0 0 0 0 0 0zm736 68l25 0 0 0 -1 3 0 3 0 3 0 3 -1 2 -1 3 0 2 -1 3 -1 2 -1 2 -2 3 -1 2 -1 2 -2 1 -1 2 -2 2 -2 1 -2 2 -1 1 -2 1 -2 1 -2 1 -2 1 -2 1 -2 1 -3 0 -2 1 -2 0 -2 0 -2 0 -2 1 -2 0 0 -26 1 0 1 0 1 0 2 0 1 0 1 -1 1 0 1 0 1 0 1 -1 1 0 1 -1 1 0 0 -1 1 0 1 -1 0 -1 1 0 1 -1 0 -1 1 -1 0 -1 1 -1 0 -1 1 -1 0 -1 0 -2 1 -1 0 -2 0 -1 0 -2 0 -2 0 0zm-22 -24l0 -25 0 0 2 0 2 0 2 0 2 0 3 1 2 0 2 1 2 1 2 1 2 0 2 1 2 2 2 1 2 1 1 2 2 1 2 2 1 2 2 1 1 2 1 2 2 3 1 2 1 2 1 3 0 2 1 3 1 2 0 3 0 3 0 2 1 3 -25 0 0 -2 0 -1 0 -2 0 -1 -1 -2 0 -1 0 -1 -1 -1 0 -1 -1 -1 0 -1 -1 -1 0 -1 -1 -1 -1 0 0 -1 -1 -1 -1 0 -1 -1 -1 -1 0 0 -1 -1 -1 0 -1 0 -1 -1 -1 0 -1 0 -2 -1 -1 0 -1 0 -1 0 -1 0 0 0zm-216 -25l216 0 0 25 -216 0 -12 -13 12 -12zm0 25l-12 0 0 -13 12 13zm12 -197l0 184 -24 0 0 -184 12 -13 12 13zm-24 0l0 -13 12 0 -12 13zm190 13l-178 0 0 -26 178 0 0 0 0 26zm22 -50l25 0 0 0 0 3 0 3 -1 3 0 3 -1 2 0 3 -1 2 -1 3 -1 2 -1 3 -1 2 -2 2 -1 2 -2 2 -1 1 -2 2 -2 2 -1 1 -2 1 -2 1 -2 2 -2 0 -2 1 -2 1 -2 1 -2 0 -2 1 -3 0 -2 0 -2 1 -2 0 -2 0 0 -26 1 0 1 0 2 0 1 0 1 0 1 0 1 -1 1 0 1 0 1 -1 1 0 1 -1 1 0 1 -1 0 0 1 -1 1 -1 0 0 1 -1 0 -1 1 -1 1 -1 0 -1 0 -1 1 -1 0 -1 1 -1 0 -2 0 -1 0 -2 0 -2 0 -2 0 0zm-22 -24l0 -25 0 0 2 0 2 0 3 0 2 1 2 0 2 1 2 0 2 1 2 1 2 1 2 1 2 1 2 1 2 1 2 2 1 1 2 2 2 2 1 2 1 2 2 2 1 2 1 2 1 2 1 3 1 2 0 3 1 2 0 3 1 3 0 2 0 3 -25 0 0 -1 0 -2 0 -2 0 -1 0 -1 -1 -2 0 -1 -1 -1 0 -1 0 -1 -1 -1 -1 -1 0 -1 -1 -1 0 0 -1 -1 -1 -1 -1 0 0 -1 -1 0 -1 -1 -1 0 -1 -1 -1 0 -1 -1 -1 0 -1 0 -1 0 -2 -1 -1 0 -1 0 -1 0 0 0zm-178 -25l178 0 0 25 -178 0 -12 -13 12 -12zm0 25l-12 0 0 -13 12 13zm12 -180l0 167 -24 0 0 -167 12 -13 12 13zm-24 0l0 -13 12 0 -12 13zm228 12l-216 0 0 -25 216 0 0 0 0 25zm22 -49l25 0 0 0 -1 3 0 3 0 2 0 3 -1 3 -1 2 0 3 -1 2 -1 3 -1 2 -2 2 -1 2 -1 2 -2 2 -1 2 -2 2 -2 1 -2 1 -1 2 -2 1 -2 1 -2 1 -2 1 -2 1 -2 0 -3 1 -2 0 -2 1 -2 0 -2 0 -2 0 -2 0 0 -25 1 0 1 0 1 0 2 0 1 -1 1 0 1 0 1 0 1 -1 1 0 1 -1 1 0 1 -1 0 0 1 -1 1 0 0 -1 1 -1 1 0 0 -1 1 -1 0 -1 1 -1 0 -1 1 -1 0 -2 0 -1 1 -1 0 -2 0 -1 0 -2 0 -2 0 0zm-22 -24l0 -26 0 0 2 0 2 1 2 0 2 0 3 1 2 0 2 1 2 0 2 1 2 1 2 1 2 1 2 2 2 1 1 1 2 2 2 2 1 1 2 2 1 2 1 2 2 2 1 3 1 2 1 2 0 3 1 2 1 3 0 3 0 2 0 3 1 3 -25 0 0 -2 0 -1 0 -2 0 -1 -1 -2 0 -1 0 -1 -1 -1 0 -1 -1 -2 0 0 -1 -1 0 -1 -1 -1 -1 -1 0 0 -1 -1 -1 -1 -1 0 -1 -1 0 0 -1 -1 -1 0 -1 -1 -1 0 -1 0 -1 -1 -2 0 -1 0 -1 0 -1 0 -1 0 0 0zm-254 -26l254 0 0 26 -254 0 0 0 0 -26zm-24 51l-24 0 0 0 0 -3 0 -2 0 -2 1 -3 0 -2 1 -2 0 -2 1 -3 1 -2 0 -2 1 -2 1 -2 2 -2 1 -2 1 -2 2 -2 1 -2 2 -1 2 -2 2 -2 2 -1 2 -1 2 -1 2 -2 3 -1 2 0 3 -1 2 -1 3 0 3 0 3 -1 2 0 0 26 -1 0 -2 0 -2 0 -1 0 -2 1 -1 0 -1 0 -1 1 -1 0 -1 1 -1 0 -1 1 -1 1 -1 0 0 1 -1 1 -1 1 0 1 -1 0 0 1 -1 1 0 1 -1 1 0 2 -1 1 0 1 0 1 0 1 0 2 -1 1 0 1 0 2 0 0zm-24 497l0 -497 24 0 0 497 0 0 -24 0zm48 25l0 26 0 0 -2 0 -3 -1 -3 0 -3 0 -2 -1 -3 -1 -2 -1 -3 0 -2 -2 -2 -1 -2 -1 -2 -1 -2 -2 -2 -2 -2 -1 -1 -2 -2 -2 -1 -2 -1 -2 -2 -2 -1 -2 -1 -2 0 -2 -1 -2 -1 -3 0 -2 -1 -2 0 -2 -1 -3 0 -2 0 -2 0 -3 24 0 0 2 0 1 1 1 0 2 0 1 0 1 0 1 1 1 0 2 1 1 0 1 1 1 0 1 1 0 0 1 1 1 1 1 0 1 1 0 1 1 1 1 1 0 1 1 1 0 1 1 1 0 1 0 2 1 1 0 2 0 2 0 1 0 0 0zm254 26l-254 0 0 -26 254 0 0 0 0 26zm321 -42l25 0 0 0 0 2 0 2 -1 2 0 3 0 2 -1 2 0 2 -1 3 -1 2 -1 2 -1 2 -1 2 -1 2 -1 2 -2 2 -1 2 -2 2 -2 2 -1 1 -2 2 -2 1 -3 2 -2 1 -2 1 -2 1 -3 1 -3 0 -2 1 -3 0 -3 1 -3 0 -2 0 0 -26 1 0 2 0 2 0 1 0 2 0 1 -1 2 0 1 -1 1 0 1 -1 1 0 1 -1 1 -1 0 0 1 -1 1 -1 0 -1 1 0 1 -1 0 -1 1 -1 0 -1 1 -1 0 -1 0 -2 1 -1 0 -1 0 -1 0 -1 0 -2 0 -1 0 -1 0 0zm25 -470l0 470 -25 0 0 -470 13 -13 12 13zm-25 0l0 -13 13 0 -13 13zm127 12l-114 0 0 -25 114 0 0 0 0 25zm23 -49l24 0 0 0 0 3 0 3 0 2 -1 3 0 3 -1 2 -1 3 -1 2 -1 3 -1 2 -1 2 -1 2 -2 2 -1 2 -2 2 -1 2 -2 1 -2 1 -2 2 -2 1 -2 1 -2 1 -2 1 -2 1 -2 0 -2 1 -2 0 -2 1 -2 0 -2 0 -2 0 -3 0 0 -25 2 0 1 0 1 0 1 0 1 -1 2 0 1 0 1 0 1 -1 1 0 1 -1 0 0 1 -1 1 0 1 -1 0 0 1 -1 1 -1 0 0 1 -1 0 -1 1 -1 0 -1 1 -1 0 -1 1 -2 0 -1 0 -1 1 -2 0 -1 0 -2 0 -2 0 0zm-23 -24l0 -26 0 0 3 0 2 1 2 0 2 0 2 1 2 0 3 1 2 0 2 1 2 1 2 1 2 1 1 2 2 1 2 1 2 2 1 2 2 1 1 2 2 2 1 2 1 2 1 3 1 2 1 2 1 3 1 2 0 3 1 3 0 2 0 3 0 3 -24 0 0 -2 0 -1 0 -2 -1 -1 0 -2 0 -1 -1 -1 0 -1 0 -1 -1 -2 -1 0 0 -1 -1 -1 0 -1 -1 -1 -1 0 0 -1 -1 -1 -1 0 -1 -1 -1 0 -1 -1 -1 0 -1 -1 -1 0 -1 0 -1 -1 -1 0 -1 0 -1 0 -1 0 -2 0 0 0zm-303 -26l303 0 0 26 -303 0 0 0 0 -26zm-23 50l-24 0 0 0 0 -3 0 -3 0 -2 1 -3 0 -3 1 -2 1 -3 1 -2 1 -2 1 -3 1 -2 1 -2 2 -2 1 -2 2 -1 1 -2 2 -2 2 -1 2 -1 2 -2 2 -1 1 -1 2 -1 3 -1 2 0 2 -1 2 0 2 -1 2 0 2 0 3 -1 2 0 0 26 -1 0 -2 0 -1 0 -1 0 -1 0 -1 1 -1 0 -1 0 -1 1 -1 0 -1 1 -1 0 -1 1 -1 0 0 1 -1 1 -1 0 -1 1 0 1 -1 1 0 1 -1 0 0 2 -1 1 0 1 -1 1 0 1 0 2 0 1 -1 2 0 1 0 2 0 0zm23 24l0 25 0 0 -2 0 -3 0 -2 0 -2 0 -2 -1 -2 0 -2 -1 -2 0 -2 -1 -2 -1 -2 -1 -2 -1 -2 -1 -2 -2 -2 -1 -1 -1 -2 -2 -2 -2 -1 -2 -2 -2 -1 -2 -1 -2 -1 -2 -1 -3 -1 -2 -1 -3 -1 -2 0 -3 -1 -3 0 -2 0 -3 0 -3 24 0 0 2 0 2 1 1 0 2 0 1 0 1 1 2 0 1 1 1 0 1 1 1 0 1 1 1 0 0 1 1 1 1 0 0 1 1 1 0 1 1 1 0 1 1 1 0 0 1 2 0 1 0 1 0 1 1 1 0 1 0 1 0 2 0 0 0zm115 25l-115 0 0 -25 115 0 12 13 -12 12zm0 -25l12 0 0 13 -12 -13zm-13 483l0 -470 25 0 0 470 0 0 -25 0zm50 24l0 26 0 0 -3 0 -3 0 -3 -1 -3 0 -2 -1 -3 0 -2 -1 -3 -1 -2 -1 -2 -2 -2 -1 -3 -1 -1 -2 -2 -1 -2 -2 -2 -2 -1 -2 -2 -2 -1 -2 -1 -2 -1 -2 -1 -2 -1 -2 -1 -2 0 -3 -1 -2 0 -2 -1 -2 0 -3 0 -2 -1 -2 0 -2 25 0 0 1 0 1 0 2 0 1 0 1 1 1 0 1 0 2 1 1 0 1 1 1 0 1 1 1 0 1 1 0 0 1 1 1 1 1 1 0 0 1 1 1 1 0 1 1 1 0 2 1 1 0 1 1 2 0 1 0 2 0 2 0 2 0 0 0zm601 -32l25 0 0 0 0 3 -1 3 0 3 0 3 -1 2 0 3 -1 2 -1 3 -1 2 -1 2 -1 3 -2 2 -1 2 -2 1 -1 2 -2 2 -2 1 -1 2 -2 1 -2 1 -2 1 -2 1 -2 1 -2 1 -2 1 -2 0 -3 1 -2 0 -2 0 -2 0 -2 1 -2 0 0 -26 1 0 1 0 2 0 1 0 1 0 1 -1 1 0 1 0 1 0 1 -1 1 0 1 -1 1 0 0 -1 1 0 1 -1 1 -1 0 0 1 -1 0 -1 1 -1 0 -1 1 -1 0 -1 1 -1 0 -1 1 -2 0 -1 0 -2 0 -1 0 -2 0 -2 0 0zm-22 -24l0 -25 0 0 2 0 2 0 2 0 3 0 2 1 2 0 2 1 2 1 2 1 2 0 2 1 2 2 2 1 2 1 2 2 1 1 2 2 1 2 2 1 1 2 2 2 1 3 1 2 1 2 1 3 1 2 0 3 1 2 0 3 0 3 1 2 0 3 -25 0 0 -2 0 -1 0 -2 0 -1 0 -1 -1 -2 0 -1 -1 -1 0 -1 -1 -1 0 -1 -1 -1 0 -1 -1 -1 -1 0 0 -1 -1 -1 -1 0 -1 -1 0 -1 -1 0 -1 -1 -1 0 -1 0 -1 -1 -1 0 -1 0 -1 -1 -2 0 -1 0 -1 0 -1 0 0 0zm-216 -25l216 0 0 25 -216 0 -12 -13 12 -12zm0 25l-12 0 0 -13 12 13zm12 -197l0 184 -24 0 0 -184 12 -13 12 13zm-24 0l0 -13 12 0 -12 13zm190 13l-178 0 0 -26 178 0 0 0 0 26zm23 -50l24 0 0 0 0 3 0 3 -1 3 0 3 -1 2 0 3 -1 2 -1 3 -1 2 -1 3 -1 2 -1 2 -2 2 -1 2 -2 1 -2 2 -1 2 -2 1 -2 1 -2 1 -2 2 -2 0 -2 1 -2 1 -2 1 -2 0 -2 1 -2 0 -2 0 -3 1 -2 0 -2 0 0 -26 1 0 2 0 1 0 1 0 1 0 1 0 1 -1 1 0 1 0 1 -1 1 0 1 -1 1 0 1 -1 0 0 1 -1 1 -1 0 0 1 -1 1 -1 0 -1 1 -1 0 -1 1 -1 0 -1 0 -1 1 -1 0 -2 0 -1 0 -2 1 -2 0 -2 0 0zm-23 -24l0 -25 0 0 2 0 2 0 3 0 2 1 2 0 2 1 2 0 2 1 2 1 2 1 2 1 2 1 2 1 2 1 2 2 1 1 2 2 2 2 1 2 2 2 1 2 1 2 1 2 1 2 1 3 1 2 0 3 1 2 0 3 1 3 0 2 0 3 -24 0 0 -1 -1 -2 0 -2 0 -1 0 -1 -1 -2 0 -1 0 -1 -1 -1 0 -1 -1 -1 0 -1 -1 -1 -1 -1 0 0 -1 -1 -1 -1 -1 0 0 -1 -1 0 -1 -1 -1 0 -1 -1 -1 0 -1 -1 -1 0 -1 0 -1 0 -1 -1 -1 0 -2 0 -1 0 0 0zm-178 -25l178 0 0 25 -178 0 -12 -13 12 -12zm0 25l-12 0 0 -13 12 13zm12 -180l0 167 -24 0 0 -167 12 -13 12 13zm-24 0l0 -13 12 0 -12 13zm228 12l-216 0 0 -25 216 0 0 0 0 25zm22 -49l25 0 0 0 0 3 -1 3 0 2 0 3 -1 3 0 2 -1 3 -1 2 -1 3 -1 2 -1 2 -2 2 -1 2 -2 2 -1 2 -2 2 -2 1 -1 1 -2 2 -2 1 -2 1 -2 1 -2 1 -2 1 -2 0 -2 1 -3 0 -2 1 -2 0 -2 0 -2 0 -2 0 0 -25 1 0 1 0 2 0 1 0 1 -1 1 0 1 0 1 0 1 -1 1 0 1 -1 1 0 1 -1 0 0 1 -1 1 0 1 -1 0 -1 1 0 0 -1 1 -1 0 -1 1 -1 0 -1 1 -1 0 -2 1 -1 0 -1 0 -2 0 -1 0 -2 0 -2 0 0zm-22 -24l0 -26 0 0 2 0 2 1 2 0 3 0 2 1 2 0 2 1 2 0 2 1 2 1 2 1 2 1 2 2 2 1 2 1 1 2 2 2 1 1 2 2 1 2 2 2 1 2 1 3 1 2 1 2 1 3 0 2 1 3 0 3 0 2 1 3 0 3 -25 0 0 -2 0 -1 0 -2 0 -1 0 -2 -1 -1 0 -1 -1 -1 0 -1 -1 -2 0 0 -1 -1 0 -1 -1 -1 -1 -1 0 0 -1 -1 -1 -1 -1 0 0 -1 -1 0 -1 -1 -1 0 -1 -1 -1 0 -1 0 -1 -1 -1 0 -2 0 -1 0 -1 0 -1 0 0 0zm-253 -26l253 0 0 26 -253 0 0 0 0 -26zm-24 51l-25 0 0 0 0 -3 0 -2 1 -2 0 -3 0 -2 1 -2 0 -2 1 -3 1 -2 1 -2 0 -2 2 -2 1 -2 1 -2 1 -2 2 -2 1 -2 2 -1 2 -2 2 -2 2 -1 2 -1 2 -1 3 -2 2 -1 2 0 3 -1 2 -1 3 0 3 0 3 -1 3 0 0 26 -2 0 -2 0 -2 0 -1 0 -1 1 -2 0 -1 0 -1 1 -1 0 -1 1 -1 0 -1 1 -1 1 0 0 -1 1 -1 1 -1 1 0 1 -1 0 0 1 -1 1 0 1 -1 1 0 2 0 1 -1 1 0 1 0 1 0 2 0 1 0 1 0 2 0 0zm-25 497l0 -497 25 0 0 497 0 0 -25 0zm49 25l0 26 0 0 -3 0 -3 -1 -3 0 -3 0 -2 -1 -3 -1 -2 -1 -2 0 -3 -2 -2 -1 -2 -1 -2 -1 -2 -2 -2 -2 -2 -1 -1 -2 -2 -2 -1 -2 -1 -2 -1 -2 -1 -2 -1 -2 -1 -2 -1 -2 -1 -3 0 -2 -1 -2 0 -2 0 -3 -1 -2 0 -2 0 -3 25 0 0 2 0 1 0 1 0 2 0 1 0 1 1 1 0 1 0 2 1 1 0 1 1 1 0 1 1 0 0 1 1 1 1 1 1 1 0 0 1 1 1 1 1 0 1 1 1 0 1 1 1 0 2 0 1 1 1 0 2 0 2 0 2 0 0 0zm253 26l-253 0 0 -26 253 0 0 0 0 26zm475 -582l0 -25 0 0 2 0 3 0 3 1 3 0 2 1 3 0 2 1 3 1 2 1 2 1 2 2 2 1 2 2 2 1 2 2 1 2 2 2 1 2 2 1 1 3 1 2 1 2 1 2 1 2 0 2 1 3 1 2 0 2 0 2 1 3 0 2 0 2 -25 0 0 -1 0 -1 0 -1 0 -2 0 -1 0 -1 -1 -1 0 -1 -1 -2 0 -1 0 -1 -1 -1 -1 -1 0 -1 -1 0 0 -1 -1 -1 -1 -1 -1 0 -1 -1 -1 -1 -1 0 -1 -1 -1 0 -1 -1 -1 0 -1 -1 -2 0 -1 0 -2 0 -2 0 -1 -1 0 0zm-25 25l-25 0 0 0 0 -2 1 -2 0 -2 0 -3 0 -2 1 -2 1 -3 0 -2 1 -2 1 -2 1 -2 1 -2 1 -2 1 -2 2 -2 1 -2 2 -2 2 -2 2 -1 1 -2 3 -1 2 -2 2 -1 2 -1 3 -1 2 -1 3 0 2 -1 3 0 3 -1 3 0 3 0 0 25 -2 1 -2 0 -2 0 -1 0 -2 0 -1 1 -1 0 -2 1 -1 0 -1 1 -1 0 -1 1 0 1 -1 0 -1 1 -1 1 0 1 -1 0 0 1 -1 1 -1 1 0 1 0 1 -1 1 0 1 0 2 -1 1 0 1 0 1 0 2 0 1 0 1 0 0zm-25 204l0 -204 25 0 0 204 -12 13 -13 -13zm25 0l0 13 -12 0 12 -13zm-219 -12l207 0 0 25 -207 0 -13 -13 13 -12zm0 25l-13 0 0 -13 13 13zm12 -217l0 204 -25 0 0 -204 0 0 25 0zm-49 -25l0 -25 0 0 3 0 3 0 2 1 3 0 3 1 2 0 3 1 2 1 3 1 2 1 2 2 2 1 2 2 2 1 2 2 1 2 2 2 1 2 1 2 2 2 1 2 1 2 0 2 1 2 1 3 0 2 1 2 0 2 0 3 1 2 0 2 0 2 -25 0 0 -1 0 -1 0 -2 0 -1 0 -1 0 -1 -1 -2 0 -1 0 -1 -1 -1 0 -1 -1 -1 0 -1 -1 -1 0 -1 -1 0 -1 -1 0 -1 -1 0 -1 -1 -1 -1 -1 0 -1 -1 -1 0 -1 -1 -1 0 -2 -1 -1 0 -2 0 -2 0 -1 0 -2 -1 0 0zm-25 25l-24 0 0 0 0 -2 0 -2 0 -3 0 -2 1 -2 0 -2 1 -3 0 -2 1 -2 1 -2 1 -2 1 -2 1 -3 2 -1 1 -2 2 -2 1 -2 2 -2 2 -1 2 -2 2 -1 2 -2 2 -1 3 -1 2 -1 3 -1 2 0 3 -1 2 0 3 -1 3 0 3 0 0 25 -2 1 -2 0 -1 0 -2 0 -1 0 -2 1 -1 0 -1 1 -1 0 -1 1 -1 0 -1 1 -1 1 -1 0 -1 1 0 1 -1 1 -1 0 0 1 -1 1 0 1 -1 1 0 1 -1 2 0 1 0 1 -1 1 0 1 0 2 0 1 0 1 0 1 0 0zm-24 515l0 -515 24 0 0 515 0 0 -24 0zm49 24l0 26 0 0 -3 0 -3 0 -3 -1 -2 0 -3 -1 -2 0 -3 -1 -2 -1 -3 -1 -2 -2 -2 -1 -2 -1 -2 -2 -2 -1 -2 -2 -1 -2 -2 -2 -1 -2 -2 -1 -1 -3 -1 -2 -1 -2 -1 -2 -1 -2 0 -2 -1 -3 0 -2 -1 -2 0 -2 0 -3 0 -2 0 -2 24 0 0 1 0 1 0 1 0 2 0 1 1 1 0 1 0 1 1 2 0 1 1 1 0 1 1 1 0 1 1 0 1 1 0 1 1 1 1 0 1 1 1 1 1 0 1 1 1 0 1 1 1 0 2 1 1 0 2 0 1 0 2 0 2 0 0 0zm24 -24l25 0 0 0 0 2 0 2 -1 2 0 3 0 2 -1 2 0 2 -1 3 -1 2 -1 2 -1 2 -1 2 -1 2 -1 2 -2 2 -1 2 -2 2 -1 2 -2 1 -2 2 -2 1 -2 2 -3 1 -2 1 -2 1 -3 1 -2 0 -3 1 -3 0 -3 1 -2 0 -3 0 0 -26 2 0 1 0 2 0 2 0 1 0 1 -1 2 0 1 -1 1 0 1 -1 1 0 1 -1 1 -1 0 0 1 -1 1 -1 1 -1 0 0 1 -1 0 -1 1 -1 0 -1 1 -1 0 -1 0 -2 1 -1 0 -1 0 -1 0 -1 0 -2 0 -1 0 -1 0 0zm25 -237l0 237 -25 0 0 -237 13 -13 12 13zm-25 0l0 -13 13 0 -13 13zm220 13l-207 0 0 -26 207 0 12 13 -12 13zm0 -26l12 0 0 13 -12 -13zm-13 250l0 -237 25 0 0 237 0 0 -25 0zm50 24l0 26 0 0 -3 0 -3 0 -3 -1 -3 0 -3 -1 -2 0 -3 -1 -2 -1 -2 -1 -3 -1 -2 -2 -2 -1 -2 -2 -2 -1 -1 -2 -2 -2 -2 -2 -1 -2 -1 -2 -1 -2 -1 -2 -1 -2 -1 -2 -1 -2 -1 -3 0 -2 -1 -2 0 -2 0 -3 0 -2 -1 -2 0 -2 25 0 0 1 0 1 0 2 0 1 0 1 1 1 0 2 0 1 1 1 0 1 0 1 1 1 0 1 1 1 1 1 0 0 1 1 1 1 0 0 1 1 1 1 1 0 1 1 1 0 1 1 2 0 1 1 1 0 2 0 2 0 2 0 2 0 0 0zm24 -24l25 0 0 0 0 2 0 2 -1 3 0 2 0 2 -1 2 -1 3 0 2 -1 2 -1 2 -1 2 -1 2 -1 3 -2 1 -1 2 -2 2 -1 2 -2 2 -2 1 -2 2 -2 1 -2 1 -2 2 -2 1 -3 1 -2 1 -3 0 -2 1 -3 0 -3 1 -3 0 -2 0 0 -26 1 0 2 0 2 0 1 0 2 0 1 -1 1 0 1 -1 1 0 1 -1 1 0 1 -1 1 -1 1 0 1 -1 1 -1 0 -1 1 0 0 -1 1 -1 1 -1 0 -1 0 -1 1 -2 0 -1 1 -1 0 -1 0 -1 0 -2 0 -1 0 -1 0 -1 0 0zm25 -515l0 515 -25 0 0 -515 0 0 25 0zm215 180l124 0 0 25 -124 0 -12 -12 12 -13zm0 25l-12 0 0 -12 12 12zm12 -205l0 193 -24 0 0 -193 0 0 24 0zm-49 -25l0 -25 0 0 3 0 3 0 3 1 2 0 3 1 3 0 2 1 3 1 2 1 2 1 2 2 2 1 2 2 2 1 2 2 1 2 2 2 1 2 2 2 1 2 1 2 1 2 1 2 1 2 0 2 1 3 0 2 1 2 0 3 0 2 0 2 0 2 -24 0 0 -1 0 -1 0 -2 0 -1 -1 -1 0 -1 0 -2 0 -1 -1 -1 0 -1 -1 -1 0 -1 -1 -1 0 -1 -1 0 -1 -1 0 -1 -1 -1 -1 0 -1 -1 -1 -1 -1 0 -1 -1 -1 0 -1 -1 -1 0 -2 -1 -1 0 -2 0 -1 0 -2 0 -2 -1 0 0zm-25 25l-24 0 0 0 0 -2 0 -2 0 -2 1 -3 0 -2 1 -2 0 -3 1 -2 1 -2 0 -2 1 -2 1 -2 2 -2 1 -2 1 -2 2 -2 2 -2 1 -2 2 -1 2 -2 2 -1 2 -2 3 -1 2 -1 2 -1 3 -1 2 0 3 -1 3 0 2 -1 3 0 3 0 0 25 -2 1 -1 0 -2 0 -2 0 -1 0 -2 1 -1 0 -1 1 -1 0 -1 1 -1 0 -1 1 -1 1 -1 0 0 1 -1 1 -1 1 0 0 -1 1 0 1 -1 1 0 1 -1 1 0 1 -1 1 0 2 0 1 0 1 0 1 -1 2 0 1 0 1 0 0zm-24 506l0 -506 24 0 0 506 0 0 -24 0zm50 25l0 26 0 0 -3 0 -3 -1 -3 0 -2 0 -3 -1 -3 -1 -2 0 -3 -1 -2 -1 -2 -2 -3 -1 -2 -1 -2 -2 -1 -1 -2 -2 -2 -2 -1 -2 -2 -2 -1 -2 -1 -2 -2 -2 -1 -2 0 -2 -1 -2 -1 -3 0 -2 -1 -2 0 -2 -1 -3 0 -2 0 -2 0 -3 24 0 0 2 0 1 1 1 0 2 0 1 0 1 0 1 1 1 0 2 1 1 0 1 1 1 0 0 1 1 0 1 1 1 1 1 0 0 1 1 1 1 1 0 1 1 1 1 1 0 2 1 1 0 1 0 2 1 1 0 2 0 2 0 2 0 0 0zm160 26l-160 0 0 -26 160 0 0 0 0 26zm139 -172l25 0 0 0 0 9 -1 9 -1 8 -1 9 -1 8 -2 8 -2 8 -2 8 -3 8 -3 7 -3 7 -4 7 -4 7 -4 7 -5 6 -5 6 -5 6 -6 5 -6 5 -6 5 -7 4 -7 4 -7 4 -8 4 -7 3 -9 2 -8 2 -9 2 -9 2 -9 1 -10 0 -10 1 0 -26 9 0 9 0 8 -1 8 -2 8 -1 7 -2 7 -2 6 -3 7 -3 6 -3 6 -3 5 -4 5 -4 5 -4 5 -5 4 -4 4 -5 4 -5 4 -6 3 -5 3 -6 3 -6 2 -7 3 -6 2 -7 1 -7 2 -7 1 -7 1 -8 1 -7 0 -8 0 -8 0 0zm25 -37l0 37 -25 0 0 -37 0 0 25 0zm-164 -143l0 -25 0 0 10 0 10 1 10 1 9 1 9 2 8 2 8 3 8 2 8 4 7 3 7 4 7 4 6 5 6 5 5 5 6 6 5 5 4 6 5 7 4 6 3 7 4 7 2 8 3 7 2 8 2 8 2 8 1 8 1 9 1 9 1 8 0 9 -25 0 0 -8 0 -8 -1 -7 -1 -8 -1 -7 -1 -7 -2 -7 -2 -7 -2 -6 -3 -6 -2 -6 -3 -6 -4 -5 -3 -5 -4 -5 -4 -5 -4 -5 -5 -4 -5 -4 -5 -4 -5 -3 -6 -3 -6 -3 -6 -3 -7 -2 -7 -2 -7 -2 -8 -2 -8 -1 -9 -1 -8 0 -10 -1 0 0zm2 278l0 -25 0 0 5 0 4 -1 4 0 4 -1 4 0 3 -1 4 -1 3 -1 3 -1 3 -1 2 -1 2 -2 3 -1 2 -2 2 -2 1 -2 2 -1 2 -2 1 -3 1 -2 2 -2 1 -3 1 -3 1 -3 1 -3 0 -3 1 -3 1 -4 0 -4 0 -3 0 -4 0 -5 25 0 0 5 -1 5 0 5 0 4 -1 5 -1 4 -1 5 -1 4 -1 4 -2 4 -2 4 -1 4 -3 3 -2 4 -2 3 -3 3 -3 3 -3 3 -3 2 -4 3 -3 2 -4 2 -4 2 -4 1 -5 2 -4 1 -5 1 -4 1 -5 0 -5 1 -6 0 -5 0 0 0zm-126 -25l126 0 0 25 -126 0 -12 -13 12 -12zm0 25l-12 0 0 -13 12 13zm12 -217l0 204 -24 0 0 -204 12 -12 12 12zm-24 0l0 -12 12 0 -12 12zm136 13l-124 0 0 -25 124 0 0 0 0 25zm90 65l-25 0 0 0 0 -4 0 -4 0 -4 -1 -3 0 -4 -1 -3 -1 -4 0 -3 -1 -3 -1 -2 -2 -3 -1 -3 -1 -2 -2 -2 -2 -2 -1 -2 -2 -2 -2 -2 -2 -1 -3 -2 -2 -2 -3 -1 -2 -1 -3 -1 -4 -1 -3 -1 -4 -1 -3 -1 -4 0 -5 -1 -4 0 -5 0 0 -25 6 0 5 0 5 1 5 0 5 1 5 1 4 1 4 2 5 1 4 2 3 2 4 2 4 3 3 2 3 3 3 3 3 3 2 4 3 3 2 4 2 3 2 4 1 4 2 4 1 5 1 4 1 5 1 4 0 5 0 4 1 5 0 5 0 0zm-25 49l0 -49 25 0 0 49 0 0 -25 0z"/>
   </g>
   <g>
    <path class="fil6" d="M12863 5675l-114 0 0 -153 201 0c18,0 35,-11 35,-37 0,-25 -17,-37 -35,-37l-237 0c-27,0 -38,18 -38,38l0 497c0,20 11,38 38,38l150 0c102,0 152,-69 152,-159l0 -37c0,-91 -50,-150 -152,-150zm78 195c0,49 -22,77 -76,77l-116 0 0 -204 114 0c55,0 78,29 78,78l0 49zm495 -430c-105,0 -151,92 -151,182l0 59 -72 0 0 -204c0,-19 -8,-37 -35,-37 -25,0 -35,18 -35,37l0 515c0,19 10,37 35,37 26,0 35,-18 35,-37l0 -237 72 0 0 109c0,90 45,165 145,165l42 0c100,0 149,-74 149,-164l0 -261c0,-91 -49,-164 -149,-164l-36 0zm111 425c0,51 -21,90 -75,90l-38 0c-54,0 -75,-39 -75,-90l0 -237c0,-51 20,-115 77,-115l36 0c53,0 75,41 75,86l0 266zm315 53c5,-47 46,-396 46,-396l138 0 0 470c0,19 11,37 37,37 26,0 37,-18 37,-37l0 -506c0,-20 -11,-38 -37,-38l-205 0c-23,0 -35,16 -38,38 -2,23 -45,381 -48,413 -3,19 -5,31 -10,39 -8,16 -21,20 -44,20 -19,0 -36,12 -36,38 0,28 17,37 36,37 69,0 97,-23 113,-64 5,-15 8,-30 11,-51zm521 0c6,-47 47,-396 47,-396l138 0 0 470c0,19 11,37 37,37 26,0 37,-18 37,-37l0 -506c0,-20 -11,-38 -37,-38l-205 0c-23,0 -35,16 -38,38 -2,23 -45,381 -49,413 -2,19 -4,31 -9,39 -8,16 -21,20 -44,20 -19,0 -36,12 -36,38 0,28 17,37 36,37 68,0 97,-23 112,-64 6,-15 9,-30 11,-51zm702 103c18,0 34,-11 34,-37 0,-24 -16,-37 -34,-37l-216 0 0 -184 178 0c18,0 35,-10 35,-37 0,-24 -17,-37 -35,-37l-178 0 0 -167 216 0c18,0 34,-11 34,-37 0,-25 -16,-37 -34,-37l-254 0c-25,0 -36,18 -36,38l0 497c0,20 11,38 36,38l254 0zm297 8c26,0 37,-18 37,-37l0 -470 114 0c19,0 35,-11 35,-37 0,-25 -16,-37 -35,-37l-303 0c-18,0 -35,12 -35,37 0,26 17,37 35,37l115 0 0 470c0,19 11,37 37,37zm579 -8c18,0 35,-11 35,-37 0,-24 -17,-37 -35,-37l-216 0 0 -184 178 0c18,0 35,-10 35,-37 0,-24 -17,-37 -35,-37l-178 0 0 -167 216 0c18,0 35,-11 35,-37 0,-25 -17,-37 -35,-37l-253 0c-26,0 -37,18 -37,38l0 497c0,20 11,38 37,38l253 0zm512 -544c0,-19 -12,-37 -37,-37 -26,0 -37,18 -37,37l0 204 -207 0 0 -204c0,-19 -11,-37 -37,-37 -26,0 -37,18 -37,37l0 515c0,19 11,37 37,37 26,0 37,-18 37,-37l0 -237 207 0 0 237c0,19 10,37 37,37 25,0 37,-18 37,-37l0 -515zm351 193l-124 0 0 -193c0,-19 -11,-37 -37,-37 -26,0 -37,18 -37,37l0 506c0,20 11,38 38,38l160 0c102,0 152,-69 152,-159l0 -37c0,-91 -48,-155 -152,-155zm78 200c0,49 -22,77 -76,77l-126 0 0 -204 124 0c55,0 78,29 78,78l0 49z"/>
    <path id="1" class="fil6" d="M12749 5662l114 0 0 25 -114 0 -12 -12 12 -13zm0 25l-12 0 0 -12 12 12zm13 -165l0 153 -25 0 0 -153 12 -13 13 13zm-25 0l0 -13 12 0 -12 13zm213 12l-201 0 0 -25 201 0 0 0 0 25zm22 -49l25 0 0 0 0 3 0 3 -1 2 0 3 -1 3 0 2 -1 3 -1 2 -1 3 -1 2 -1 2 -2 2 -1 2 -2 2 -1 2 -2 2 -2 1 -1 1 -2 2 -2 1 -2 1 -2 1 -2 1 -2 1 -2 0 -2 1 -2 0 -2 1 -3 0 -2 0 -2 0 -2 0 0 -25 1 0 2 0 1 0 1 0 1 -1 1 0 1 0 1 0 1 -1 1 0 1 -1 1 0 1 -1 1 0 0 -1 1 0 1 -1 0 -1 1 0 1 -1 0 -1 1 -1 0 -1 1 -1 0 -1 0 -2 1 -1 0 -1 0 -2 0 -1 0 -2 0 -2 0 0zm-22 -24l0 -26 0 0 2 0 2 1 3 0 2 0 2 1 2 0 2 1 2 0 2 1 2 1 2 1 2 1 2 2 2 1 2 1 1 2 2 2 2 1 1 2 1 2 2 2 1 2 1 3 1 2 1 2 1 3 0 2 1 3 0 3 1 2 0 3 0 3 -25 0 0 -2 0 -1 0 -2 0 -1 0 -2 -1 -1 0 -1 0 -1 -1 -1 0 -2 -1 0 0 -1 -1 -1 -1 -1 0 -1 -1 0 -1 -1 -1 -1 0 0 -1 -1 -1 0 -1 -1 -1 0 -1 -1 -1 0 -1 0 -1 -1 -1 0 -1 0 -2 0 -1 0 -1 0 0 0zm-237 -26l237 0 0 26 -237 0 0 0 0 -26zm-25 51l-25 0 0 0 0 -3 0 -2 1 -2 0 -3 0 -2 1 -2 0 -2 1 -3 1 -2 1 -2 1 -2 1 -2 1 -2 1 -2 2 -2 1 -2 2 -2 2 -2 2 -1 2 -2 2 -1 2 -1 2 -2 2 -1 3 -1 3 0 2 -1 3 -1 3 0 2 0 3 -1 3 0 0 26 -2 0 -2 0 -1 0 -2 0 -1 1 -2 0 -1 0 -1 1 -2 0 -1 1 -1 1 -1 0 0 1 -1 1 -1 0 -1 1 0 1 -1 1 -1 1 0 0 -1 1 0 1 -1 1 0 2 0 1 -1 1 0 1 0 1 0 2 0 1 0 1 0 2 0 0zm-25 497l0 -497 25 0 0 497 0 0 -25 0zm50 25l0 26 0 0 -3 0 -3 -1 -2 0 -3 0 -3 -1 -2 -1 -3 0 -3 -1 -2 -1 -2 -2 -2 -1 -2 -1 -2 -2 -2 -1 -2 -2 -2 -2 -1 -2 -2 -2 -1 -2 -1 -2 -1 -2 -1 -2 -1 -2 -1 -2 -1 -3 0 -2 -1 -2 0 -2 0 -3 -1 -2 0 -2 0 -3 25 0 0 2 0 1 0 1 0 2 0 1 0 1 1 1 0 1 0 2 1 1 0 1 1 1 0 0 1 1 1 1 0 1 1 1 1 0 1 1 0 1 1 0 1 1 1 1 2 0 1 1 1 0 2 0 1 1 2 0 1 0 2 0 2 0 0 0zm150 26l-150 0 0 -26 150 0 0 0 0 26zm139 -172l25 0 0 0 0 9 -1 9 -1 8 -1 9 -1 8 -2 8 -2 8 -2 8 -3 8 -3 7 -3 7 -4 7 -4 7 -4 7 -5 6 -5 6 -5 6 -6 5 -6 5 -6 5 -7 4 -7 4 -7 4 -8 4 -7 3 -9 2 -8 2 -9 2 -9 2 -9 1 -10 0 -10 1 0 -26 9 0 9 0 8 -1 8 -2 8 -1 7 -2 7 -2 6 -3 7 -3 6 -3 6 -3 5 -4 5 -4 5 -4 5 -5 4 -4 4 -5 4 -5 4 -6 3 -5 3 -6 3 -6 2 -7 3 -6 2 -7 1 -7 2 -7 1 -7 1 -8 1 -7 0 -8 0 -8 0 0zm25 -37l0 37 -25 0 0 -37 0 0 25 0zm-164 -138l0 -25 0 0 10 0 10 1 9 1 9 1 9 2 8 1 8 3 8 2 7 3 8 4 7 3 6 4 7 5 6 4 5 5 6 6 5 5 4 6 5 6 4 7 4 6 3 7 3 8 3 7 2 8 2 7 2 8 1 9 1 8 1 9 1 8 0 9 -25 0 0 -8 0 -8 -1 -7 -1 -7 -1 -8 -1 -7 -2 -6 -2 -7 -3 -6 -2 -6 -3 -5 -3 -6 -3 -5 -4 -5 -3 -5 -5 -4 -4 -5 -4 -4 -5 -3 -6 -4 -5 -3 -6 -3 -6 -3 -6 -3 -7 -2 -7 -2 -7 -2 -8 -1 -8 -1 -8 -1 -9 0 -9 -1 0 0zm2 273l0 -25 0 0 5 0 4 -1 4 0 4 -1 4 0 3 -1 4 -1 3 -1 3 -1 3 -1 2 -1 2 -2 3 -1 2 -2 2 -2 1 -2 2 -1 2 -2 1 -3 1 -2 2 -2 1 -3 1 -3 1 -3 1 -3 0 -3 1 -3 1 -4 0 -4 0 -3 0 -4 0 -5 25 0 0 5 -1 5 0 5 0 4 -1 5 -1 4 -1 5 -1 4 -1 4 -2 4 -2 4 -1 4 -3 3 -2 4 -2 3 -3 3 -3 3 -3 3 -3 2 -4 3 -3 2 -4 2 -4 2 -4 1 -5 2 -4 1 -5 1 -4 1 -5 0 -5 1 -6 0 -5 0 0 0zm-116 -25l116 0 0 25 -116 0 -12 -13 12 -12zm0 25l-12 0 0 -13 12 13zm13 -217l0 204 -25 0 0 -204 12 -12 13 12zm-25 0l0 -12 12 0 -12 12zm126 13l-114 0 0 -25 114 0 0 0 0 25zm90 65l-25 0 0 0 0 -4 0 -4 0 -4 -1 -3 0 -4 -1 -3 -1 -4 0 -3 -1 -3 -1 -2 -2 -3 -1 -3 -1 -2 -2 -2 -2 -2 -1 -2 -2 -2 -2 -2 -2 -1 -3 -2 -2 -2 -3 -1 -2 -1 -3 -1 -4 -1 -3 -1 -4 -1 -3 -1 -4 0 -5 -1 -4 0 -5 0 0 -25 6 0 5 0 5 1 5 0 5 1 5 1 4 1 4 2 5 1 4 2 3 2 4 2 4 3 3 2 3 3 3 3 3 3 2 4 3 3 2 4 2 3 2 4 1 4 2 4 1 5 1 4 1 5 1 4 0 5 0 4 1 5 0 5 0 0zm-25 49l0 -49 25 0 0 49 0 0 -25 0zm369 -248l-25 0 0 0 1 -9 0 -8 1 -9 1 -9 1 -9 2 -9 2 -8 2 -9 2 -8 3 -8 3 -9 4 -7 4 -8 4 -8 4 -7 5 -7 6 -7 5 -7 6 -6 6 -6 7 -5 7 -6 7 -4 8 -5 8 -4 8 -3 9 -3 9 -2 9 -2 10 -2 10 -1 10 0 0 25 -9 1 -8 0 -9 2 -8 1 -7 2 -8 3 -7 3 -6 3 -7 4 -6 4 -5 4 -6 4 -5 5 -5 6 -5 5 -4 6 -4 6 -4 6 -4 7 -3 7 -3 7 -3 7 -3 7 -2 7 -2 8 -1 8 -2 8 -1 7 -1 8 -1 8 0 8 0 8 0 0zm-25 59l0 -59 25 0 0 59 -12 13 -13 -13zm25 0l0 13 -12 0 12 -13zm-84 -12l72 0 0 25 -72 0 -12 -13 12 -12zm0 25l-12 0 0 -13 12 13zm12 -217l0 204 -24 0 0 -204 0 0 24 0zm-47 -25l0 -25 0 0 3 0 3 0 3 1 3 0 2 1 3 0 2 1 3 1 2 1 2 2 2 1 2 1 2 2 2 2 2 2 1 1 2 2 1 2 1 2 1 2 1 3 1 2 1 2 0 2 1 2 0 2 0 3 1 2 0 2 0 2 0 2 0 2 -24 0 0 -1 0 -1 0 -2 0 -1 -1 -2 0 -1 0 -1 0 -1 -1 -2 0 -1 0 -1 -1 -1 0 0 -1 -1 0 -1 -1 -1 0 -1 -1 0 -1 -1 0 0 -1 -1 -1 0 -1 -1 -1 0 -1 -1 -1 0 -1 -1 -2 0 -1 0 -2 0 -2 0 -2 -1 0 0zm-23 25l-24 0 0 0 0 -2 0 -2 0 -2 0 -3 1 -2 0 -2 1 -2 0 -3 1 -2 1 -2 1 -2 1 -2 1 -2 1 -2 2 -2 1 -2 2 -2 1 -1 2 -2 2 -2 2 -1 2 -1 2 -2 2 -1 3 -1 2 -1 3 0 2 -1 3 0 3 -1 3 0 2 0 0 25 -1 1 -2 0 -2 0 -1 0 -1 0 -2 1 -1 0 -1 1 -1 0 -1 1 -1 0 -1 1 0 0 -1 1 -1 1 0 1 -1 0 -1 1 0 1 -1 1 0 1 -1 1 0 1 0 1 -1 1 0 1 0 2 0 1 -1 1 0 2 0 1 0 1 0 0zm-24 515l0 -515 24 0 0 515 0 0 -24 0zm47 24l0 26 0 0 -2 0 -3 0 -3 -1 -3 0 -2 -1 -3 0 -2 -1 -3 -1 -2 -1 -2 -2 -2 -1 -2 -1 -2 -2 -2 -2 -1 -1 -2 -2 -1 -2 -2 -2 -1 -2 -1 -2 -1 -2 -1 -2 -1 -2 -1 -2 0 -3 -1 -2 0 -2 -1 -2 0 -3 0 -2 0 -2 0 -2 24 0 0 1 0 1 0 2 1 1 0 1 0 1 0 2 1 1 0 1 0 1 1 1 0 1 1 1 0 1 1 1 1 0 0 1 1 1 1 1 0 0 1 1 1 0 1 1 1 0 1 1 1 0 2 1 1 0 1 0 2 0 2 0 1 0 0 0zm23 -24l24 0 0 0 0 2 0 2 0 2 0 2 -1 3 0 2 0 2 -1 2 -1 2 0 2 -1 3 -1 2 -1 2 -1 2 -2 2 -1 2 -2 2 -1 1 -2 2 -2 2 -2 1 -2 1 -2 2 -2 1 -3 1 -2 1 -3 0 -2 1 -3 0 -3 1 -3 0 -3 0 0 -26 2 0 2 0 2 0 1 0 2 0 1 -1 1 0 1 -1 1 0 1 -1 1 0 0 -1 1 0 1 -1 0 -1 1 0 1 -1 0 -1 1 -1 0 -1 0 -1 1 -1 0 -1 1 -1 0 -1 0 -1 0 -2 1 -1 0 -1 0 -2 0 -1 0 -1 0 0zm24 -237l0 237 -24 0 0 -237 12 -13 12 13zm-24 0l0 -13 12 0 -12 13zm84 13l-72 0 0 -26 72 0 12 13 -12 13zm0 -26l12 0 0 13 -12 -13zm-13 122l0 -109 25 0 0 109 0 0 -25 0zm158 152l0 26 0 0 -10 0 -9 -1 -9 -1 -9 -2 -9 -2 -8 -2 -8 -3 -8 -3 -7 -4 -7 -4 -7 -5 -6 -4 -6 -5 -6 -6 -5 -6 -5 -6 -5 -6 -5 -7 -4 -6 -3 -7 -4 -8 -3 -7 -3 -8 -2 -8 -2 -8 -2 -8 -2 -8 -1 -8 -1 -9 -1 -9 0 -8 -1 -9 25 0 0 8 0 8 1 7 1 8 1 7 1 8 2 7 2 7 2 7 3 6 2 7 3 6 3 6 4 5 3 6 4 5 4 5 5 5 5 4 5 5 5 3 5 4 6 3 6 3 7 3 6 3 7 2 8 1 7 2 8 1 9 0 8 0 0 0zm42 26l-42 0 0 -26 42 0 0 0 0 26zm137 -177l25 0 0 0 -1 9 0 9 -1 9 -1 8 -1 9 -2 8 -2 8 -2 8 -3 8 -3 7 -3 8 -4 7 -4 7 -4 7 -5 6 -5 6 -5 6 -6 6 -5 5 -7 5 -6 5 -7 4 -7 4 -8 4 -8 3 -8 3 -8 2 -9 2 -9 2 -9 1 -9 1 -10 0 0 -26 9 0 8 0 8 -1 8 -2 7 -1 7 -2 7 -3 7 -2 6 -3 6 -4 6 -3 5 -4 5 -4 5 -5 5 -4 4 -5 4 -5 4 -6 4 -5 3 -6 3 -6 3 -7 2 -6 3 -7 2 -7 1 -7 2 -7 1 -8 1 -7 1 -8 0 -8 0 -8 0 0zm25 -261l0 261 -25 0 0 -261 0 0 25 0zm-162 -152l0 -25 0 0 10 0 9 1 9 1 9 2 9 2 8 2 8 3 8 3 8 4 7 4 7 4 6 5 7 5 5 5 6 6 5 6 5 6 5 6 4 7 4 7 4 7 3 8 3 7 3 8 2 8 2 8 2 8 1 9 1 8 1 9 0 9 1 9 -25 0 0 -8 0 -8 -1 -8 -1 -7 -1 -8 -2 -7 -1 -7 -2 -7 -3 -7 -2 -6 -3 -7 -3 -6 -3 -6 -4 -5 -4 -6 -4 -5 -4 -5 -5 -4 -5 -5 -5 -4 -5 -4 -6 -3 -6 -4 -6 -3 -7 -2 -7 -3 -7 -2 -7 -1 -8 -2 -8 -1 -8 0 -9 -1 0 0zm-36 -25l36 0 0 25 -36 0 0 0 0 -25zm36 541l0 -25 0 0 4 0 5 -1 4 0 3 -1 4 -1 3 -1 4 -1 3 -1 3 -1 2 -2 3 -2 2 -2 2 -2 3 -2 2 -2 1 -2 2 -3 2 -2 1 -3 2 -3 1 -3 1 -4 2 -3 1 -3 0 -4 1 -4 1 -4 0 -4 1 -4 0 -4 0 -4 0 -5 25 0 0 6 -1 5 0 5 -1 4 0 5 -1 5 -1 5 -1 4 -1 5 -2 4 -1 5 -2 4 -2 4 -2 4 -3 4 -2 3 -3 4 -3 3 -3 3 -4 3 -3 3 -4 3 -4 2 -4 2 -5 2 -4 2 -5 1 -5 1 -5 1 -5 1 -6 0 -5 0 0 0zm-38 -25l38 0 0 25 -38 0 0 0 0 -25zm-88 -78l25 0 0 0 0 5 0 4 0 4 1 4 0 4 1 4 1 4 0 4 1 3 2 3 1 4 1 3 2 3 1 3 2 2 2 3 1 2 2 2 3 2 2 2 2 2 3 2 3 2 2 1 3 1 4 1 3 1 4 1 3 1 4 0 5 1 4 0 0 25 -5 0 -6 0 -5 -1 -5 -1 -5 -1 -5 -1 -4 -2 -5 -2 -4 -2 -4 -2 -4 -3 -3 -3 -4 -3 -3 -3 -3 -3 -3 -4 -2 -3 -3 -4 -2 -4 -2 -4 -2 -4 -1 -5 -2 -4 -1 -5 -1 -4 -1 -5 -1 -5 0 -5 -1 -4 0 -5 0 -5 -1 -6 0 0zm25 -237l0 237 -25 0 0 -237 0 0 25 0zm65 -127l0 25 0 0 -4 0 -4 1 -4 1 -4 0 -4 2 -3 1 -3 2 -3 2 -3 2 -3 2 -3 3 -2 3 -3 3 -2 3 -2 4 -2 3 -2 4 -2 4 -2 4 -1 4 -2 4 -1 5 -1 4 -1 5 -1 4 -1 5 -1 4 0 5 -1 5 0 4 0 5 0 4 -25 0 1 -5 0 -5 0 -5 0 -6 1 -5 1 -5 1 -6 1 -5 1 -5 1 -6 2 -5 2 -5 2 -5 2 -5 2 -5 2 -5 3 -4 3 -5 3 -4 4 -4 3 -4 4 -4 4 -3 4 -3 5 -3 5 -3 5 -2 5 -2 6 -1 5 -1 6 -1 6 0 0 0zm36 25l-36 0 0 -25 36 0 0 0 0 25zm88 73l-25 0 0 0 0 -3 0 -4 0 -4 -1 -4 0 -3 -1 -4 -1 -3 0 -4 -1 -3 -2 -3 -1 -3 -1 -3 -2 -3 -1 -3 -2 -2 -2 -3 -2 -2 -2 -2 -2 -2 -2 -2 -3 -2 -2 -2 -3 -2 -3 -1 -3 -1 -3 -1 -3 -1 -4 -1 -4 -1 -4 0 -4 -1 -4 0 0 -25 5 0 6 0 5 1 5 1 5 1 4 1 5 2 4 2 4 2 4 2 4 3 4 3 3 3 3 3 3 3 3 3 3 4 2 4 2 3 3 4 1 4 2 5 2 4 1 4 1 4 1 5 1 4 0 5 1 4 0 5 1 5 0 4 0 0zm-25 266l0 -266 25 0 0 266 0 0 -25 0zm373 -356l0 25 12 -11 0 1 0 3 -1 5 -1 6 -1 8 -1 10 -1 11 -1 12 -2 13 -2 14 -1 15 -2 15 -2 17 -2 16 -2 17 -2 18 -2 17 -2 18 -2 17 -2 18 -2 16 -2 17 -2 16 -2 15 -1 14 -2 13 -1 13 -2 11 -1 10 -1 8 -1 7 0 5 -24 -3 0 -5 1 -7 1 -8 1 -10 1 -11 2 -13 1 -13 2 -14 2 -15 2 -16 2 -17 2 -17 2 -17 2 -17 2 -18 2 -17 2 -18 2 -17 2 -17 2 -16 2 -15 1 -15 2 -14 1 -14 2 -12 1 -10 1 -10 1 -8 1 -6 0 -5 1 -3 0 -1 12 -11zm-12 11l1 -11 11 0 -12 11zm150 14l-138 0 0 -25 138 0 12 13 -12 12zm0 -25l12 0 0 13 -12 -13zm-12 483l0 -470 24 0 0 470 0 0 -24 0zm49 24l0 26 0 0 -2 0 -3 0 -3 -1 -3 0 -3 -1 -2 0 -3 -1 -2 -1 -3 -1 -2 -1 -2 -2 -2 -1 -2 -2 -2 -1 -2 -2 -1 -2 -2 -2 -1 -2 -2 -2 -1 -2 -1 -2 -1 -2 -1 -2 -1 -2 0 -2 -1 -3 0 -2 -1 -2 0 -3 0 -2 0 -2 0 -2 24 0 0 1 0 1 0 2 0 1 0 1 1 1 0 1 0 2 1 1 0 1 1 1 0 1 1 1 0 1 1 0 1 1 0 1 1 1 1 0 1 1 1 1 1 0 1 1 1 0 1 1 1 0 2 1 1 0 2 0 2 0 2 0 1 0 0 0zm25 -24l24 0 0 0 0 2 0 2 -1 2 0 3 0 2 -1 2 0 2 -1 3 -1 2 -1 2 0 2 -2 2 -1 2 -1 2 -1 2 -2 2 -1 2 -2 2 -2 1 -2 2 -2 1 -2 1 -2 2 -3 1 -2 1 -2 1 -3 0 -2 1 -3 0 -3 1 -3 0 -3 0 0 -26 2 0 2 0 2 0 1 0 1 0 2 -1 1 0 1 -1 1 0 1 -1 1 0 1 -1 1 -1 0 0 1 -1 1 -1 1 0 0 -1 1 -1 0 -1 1 -1 0 -1 1 -1 0 -1 0 -2 1 -1 0 -1 0 -1 0 -1 0 -2 0 -1 1 -1 0 0zm24 -506l0 506 -24 0 0 -506 0 0 24 0zm-49 -25l0 -26 0 0 3 0 3 1 3 0 3 0 2 1 3 1 2 0 2 1 3 2 2 1 2 1 2 1 2 2 2 2 2 1 1 2 2 2 1 2 1 2 1 2 2 2 0 2 1 2 1 2 1 3 0 2 1 2 0 2 0 3 1 2 0 2 0 3 -24 0 -1 -2 0 -1 0 -1 0 -2 0 -1 0 -1 -1 -1 0 -1 0 -2 -1 -1 0 -1 -1 -1 0 -1 -1 0 0 -1 -1 -1 -1 -1 0 -1 -1 0 -1 -1 -1 -1 -1 0 -1 -1 -1 0 -1 -1 -1 0 -2 0 -1 -1 -1 0 -2 0 -2 0 -2 0 0 0zm-205 -26l205 0 0 26 -205 0 0 0 0 -26zm-26 52l-24 -3 0 0 1 -2 0 -3 0 -2 1 -2 1 -3 0 -2 1 -2 1 -3 1 -2 1 -2 1 -2 1 -2 1 -2 2 -2 1 -2 2 -1 2 -2 1 -2 2 -1 2 -1 2 -2 2 -1 2 -1 2 -1 3 -1 2 -1 2 0 3 -1 2 0 3 0 3 -1 2 0 0 26 -1 0 -2 0 -1 0 -2 0 -1 0 -1 1 -2 0 -1 1 -1 0 -1 1 -1 0 -1 1 0 0 -1 1 -1 1 -1 0 -1 1 0 1 -1 1 -1 1 0 1 -1 1 0 1 -1 1 0 2 -1 1 0 1 0 2 -1 1 0 2 0 1 -1 2 0 0zm-24 -3l0 0 0 0 0 0zm-24 417l-24 -4 0 0 0 -4 1 -5 1 -8 1 -9 1 -10 1 -12 2 -12 1 -14 2 -15 2 -16 2 -16 2 -17 2 -17 2 -18 2 -18 2 -18 3 -18 2 -18 2 -18 2 -17 2 -17 2 -16 2 -15 1 -15 2 -13 1 -13 2 -11 1 -10 1 -8 0 -7 1 -5 0 -3 24 3 0 3 0 5 -1 7 -1 8 -1 10 -2 11 -1 13 -2 13 -1 15 -2 15 -2 16 -2 17 -2 17 -2 18 -2 18 -2 18 -3 18 -2 18 -2 18 -2 17 -2 17 -2 16 -2 16 -1 15 -2 14 -2 13 -1 11 -1 11 -1 9 -1 7 -1 6 0 4 0 0zm0 0l0 0 -1 1 1 -1zm-11 43l-22 -12 1 0 0 -1 0 0 0 -1 1 0 0 -1 0 -1 1 0 0 -1 0 -1 0 -1 1 0 0 -1 0 -1 0 -1 1 -1 0 -1 0 -1 0 -2 1 -1 0 -1 0 -1 0 -1 1 -2 0 -1 0 -2 0 -1 0 -1 1 -2 0 -2 0 -1 0 -2 1 -2 24 4 -1 1 0 2 0 2 0 2 -1 1 0 2 0 1 0 2 0 2 -1 1 0 2 0 1 -1 1 0 2 0 1 0 2 -1 1 0 1 0 2 -1 1 0 1 -1 1 0 2 0 1 -1 1 0 1 -1 1 0 1 -1 1 0 2 -1 1 0 1 0 -1zm-22 -12l1 0 0 0 -1 0zm-33 39l0 -26 0 0 2 0 2 0 2 0 2 0 1 0 2 0 1 0 2 0 1 -1 2 0 1 0 1 0 1 -1 1 0 1 0 1 -1 1 0 1 -1 1 0 0 0 1 -1 1 0 0 -1 1 0 1 -1 0 -1 1 0 0 -1 1 -1 0 -1 1 -1 0 -1 22 12 -1 2 -1 2 -1 2 -1 1 -2 2 -1 1 -1 2 -2 1 -1 2 -2 1 -1 1 -2 1 -2 1 -1 1 -2 1 -2 1 -2 0 -1 1 -2 1 -2 0 -2 1 -2 0 -2 0 -2 1 -2 0 -2 0 -2 0 -2 0 -2 0 -2 1 -3 0 -2 0 0 0zm-24 25l-24 0 0 0 0 -3 0 -2 0 -3 1 -3 0 -3 1 -2 1 -3 1 -2 1 -3 1 -2 1 -2 1 -3 2 -2 1 -1 2 -2 2 -2 1 -2 2 -1 2 -1 2 -2 2 -1 2 -1 2 -1 2 -1 3 0 2 -1 2 -1 2 0 2 0 3 -1 2 0 2 0 0 26 -1 0 -2 0 -1 0 -1 0 -1 0 -1 1 -1 0 -2 0 -1 1 -1 0 -1 1 -1 0 0 1 -1 0 -1 1 -1 1 -1 0 0 1 -1 1 -1 1 0 1 -1 1 0 1 -1 1 0 1 -1 2 0 1 0 2 -1 1 0 2 0 2 0 1 0 0zm24 25l0 25 0 0 -2 0 -2 0 -2 0 -2 -1 -3 0 -2 0 -2 -1 -2 0 -2 -1 -2 -1 -2 -1 -2 -1 -2 -1 -2 -1 -2 -1 -2 -2 -2 -2 -1 -1 -2 -2 -1 -2 -2 -2 -1 -2 -1 -3 -1 -2 -1 -3 -1 -2 -1 -3 0 -3 -1 -3 0 -3 0 -3 0 -3 24 0 0 2 0 2 0 2 1 2 0 1 0 2 1 1 0 1 1 1 0 1 1 1 0 1 1 0 0 1 1 1 1 0 0 1 1 1 1 0 1 1 1 0 1 0 1 1 1 0 1 1 1 0 1 0 2 0 1 0 1 1 2 0 1 0 0 0zm101 -56l23 9 0 0 -2 4 -2 4 -1 4 -2 4 -2 4 -3 3 -2 4 -2 3 -3 4 -3 3 -3 3 -3 3 -3 3 -3 3 -4 2 -4 3 -4 2 -4 2 -4 2 -4 2 -5 1 -4 2 -5 1 -5 1 -5 1 -6 1 -5 1 -6 1 -6 0 -6 1 -6 0 -7 0 0 -25 6 0 6 -1 5 0 6 0 5 -1 5 -1 4 0 5 -1 4 -1 4 -1 4 -2 3 -1 4 -1 3 -2 3 -2 3 -1 3 -2 2 -2 3 -2 2 -2 2 -2 2 -2 2 -3 2 -2 2 -3 2 -2 2 -3 1 -3 2 -3 1 -4 2 -3 1 -3 0 0zm23 9l0 0 0 0 0 0zm-12 -58l24 3 0 0 -1 2 0 2 0 2 0 2 -1 2 0 2 0 2 0 2 -1 2 0 1 0 2 -1 2 0 1 0 2 -1 2 0 2 0 1 -1 2 0 1 0 2 -1 2 0 1 -1 2 0 1 -1 2 0 1 0 2 -1 2 0 1 -1 2 0 1 -1 2 -23 -9 1 -1 0 -2 1 -1 0 -1 0 -2 1 -1 0 -1 1 -2 0 -1 0 -2 1 -1 0 -1 0 -2 1 -1 0 -2 0 -1 1 -1 0 -2 0 -1 1 -2 0 -2 0 -1 0 -2 1 -1 0 -2 0 -2 0 -1 1 -2 0 -2 0 -2 0 -2 1 -2 0 0zm0 0l0 0 0 0 0 0zm580 -407l0 25 12 -11 0 1 -1 3 0 5 -1 6 -1 8 -1 10 -1 11 -2 12 -1 13 -2 14 -1 15 -2 15 -2 17 -2 16 -2 17 -2 18 -2 17 -2 18 -2 17 -2 18 -2 16 -2 17 -2 16 -2 15 -2 14 -1 13 -2 13 -1 11 -1 10 -1 8 -1 7 0 5 -25 -3 1 -5 1 -7 1 -8 1 -10 1 -11 2 -13 1 -13 2 -14 2 -15 2 -16 2 -17 2 -17 2 -17 2 -17 2 -18 2 -17 2 -18 2 -17 2 -17 2 -16 1 -15 2 -15 2 -14 1 -14 2 -12 1 -10 1 -10 1 -8 1 -6 0 -5 1 -3 0 -1 12 -11zm-12 11l1 -11 11 0 -12 11zm150 14l-138 0 0 -25 138 0 12 13 -12 12zm0 -25l12 0 0 13 -12 -13zm-13 483l0 -470 25 0 0 470 0 0 -25 0zm50 24l0 26 0 0 -3 0 -3 0 -2 -1 -3 0 -3 -1 -2 0 -3 -1 -2 -1 -3 -1 -2 -1 -2 -2 -2 -1 -2 -2 -2 -1 -2 -2 -2 -2 -1 -2 -2 -2 -1 -2 -1 -2 -1 -2 -1 -2 -1 -2 -1 -2 0 -2 -1 -3 -1 -2 0 -2 0 -3 0 -2 -1 -2 0 -2 25 0 0 1 0 1 0 2 0 1 0 1 1 1 0 1 0 2 1 1 0 1 1 1 0 1 1 1 0 1 1 0 0 1 1 1 1 1 1 0 1 1 0 1 1 0 2 1 1 0 1 1 1 0 2 1 1 0 2 0 2 0 1 0 2 0 0 0zm24 -24l25 0 0 0 0 2 0 2 -1 2 0 3 0 2 -1 2 0 2 -1 3 -1 2 -1 2 -1 2 -1 2 -1 2 -1 2 -1 2 -2 2 -2 2 -1 2 -2 1 -2 2 -2 1 -2 1 -2 2 -3 1 -2 1 -3 1 -2 0 -3 1 -2 0 -3 1 -3 0 -3 0 0 -26 2 0 2 0 1 0 2 0 1 0 2 -1 1 0 1 -1 1 0 1 -1 1 0 1 -1 1 -1 0 0 1 -1 1 -1 0 0 1 -1 1 -1 0 -1 1 -1 0 -1 1 -1 0 -1 0 -1 1 -2 0 -1 0 -1 0 -1 0 -2 0 -1 0 -1 0 0zm25 -506l0 506 -25 0 0 -506 0 0 25 0zm-49 -25l0 -26 0 0 3 0 3 1 3 0 2 0 3 1 2 1 3 0 2 1 3 2 2 1 2 1 2 1 2 2 2 2 1 1 2 2 2 2 1 2 1 2 1 2 1 2 1 2 1 2 1 2 1 3 0 2 1 2 0 2 0 3 1 2 0 2 0 3 -25 0 0 -2 0 -1 0 -1 0 -2 0 -1 0 -1 -1 -1 0 -1 0 -2 -1 -1 0 -1 -1 -1 0 -1 -1 0 -1 -1 0 -1 -1 -1 -1 -1 0 0 -1 -1 -1 -1 -1 0 -1 -1 -1 0 -1 -1 -1 0 -2 0 -1 -1 -2 0 -1 0 -2 0 -2 0 0 0zm-205 -26l205 0 0 26 -205 0 0 0 0 -26zm-26 52l-24 -3 0 0 0 -2 1 -3 0 -2 1 -2 0 -3 1 -2 1 -2 1 -3 1 -2 1 -2 1 -2 1 -2 1 -2 2 -2 1 -2 2 -1 1 -2 2 -2 2 -1 2 -1 2 -2 2 -1 2 -1 2 -1 3 -1 2 -1 2 0 3 -1 2 0 3 0 2 -1 3 0 0 26 -2 0 -1 0 -2 0 -1 0 -1 0 -1 1 -2 0 -1 1 -1 0 -1 1 -1 0 -1 1 -1 0 0 1 -1 1 -1 0 -1 1 0 1 -1 1 -1 1 0 1 -1 1 0 1 -1 1 0 2 -1 1 0 1 -1 2 0 1 0 2 0 1 -1 2 0 0zm-24 -3l0 0 0 0 0 0zm-25 417l-24 -4 0 0 1 -4 1 -5 0 -8 2 -9 1 -10 1 -12 2 -12 1 -14 2 -15 2 -16 2 -16 2 -17 2 -18 2 -17 2 -18 2 -18 2 -18 3 -18 2 -18 2 -17 2 -17 2 -16 1 -15 2 -15 2 -13 1 -13 1 -11 2 -10 0 -8 1 -7 1 -5 0 -3 24 3 0 3 -1 5 0 7 -1 8 -1 10 -2 11 -1 13 -2 13 -1 15 -2 15 -2 16 -2 17 -2 17 -2 18 -2 18 -3 18 -2 18 -2 18 -2 18 -2 17 -2 17 -2 16 -2 16 -2 15 -1 14 -2 13 -1 11 -1 11 -1 9 -1 7 -1 6 -1 4 0 0zm0 0l0 0 0 1 0 -1zm-10 43l-22 -12 1 0 0 -1 0 0 0 -1 1 0 0 -1 0 -1 0 0 1 -1 0 -1 0 -1 1 0 0 -1 0 -1 0 -1 1 -1 0 -1 0 -1 0 -2 0 -1 1 -1 0 -1 0 -1 0 -2 1 -1 0 -2 0 -1 0 -1 1 -2 0 -2 0 -1 0 -2 0 -2 24 4 0 1 0 2 0 2 0 2 -1 1 0 2 0 1 0 2 -1 2 0 1 0 2 0 1 -1 1 0 2 0 1 -1 2 0 1 0 1 -1 2 0 1 0 1 -1 1 0 2 0 1 -1 1 0 1 -1 1 0 1 -1 1 0 2 -1 1 -1 1 1 -1zm-22 -12l0 0 1 0 -1 0zm-33 39l0 -26 0 0 2 0 2 0 2 0 1 0 2 0 2 0 1 0 2 0 1 -1 1 0 2 0 1 0 1 -1 1 0 1 0 1 -1 1 0 1 -1 1 0 0 0 1 -1 1 0 0 -1 1 0 0 -1 1 -1 1 0 0 -1 1 -1 0 -1 1 -1 0 -1 22 12 -1 2 -1 2 -1 2 -2 1 -1 2 -1 1 -1 2 -2 1 -1 2 -2 1 -1 1 -2 1 -2 1 -1 1 -2 1 -2 1 -2 0 -2 1 -1 1 -2 0 -2 1 -2 0 -2 0 -2 1 -2 0 -2 0 -2 0 -2 0 -2 0 -3 1 -2 0 -2 0 0 0zm-24 25l-24 0 0 0 0 -3 0 -2 0 -3 1 -3 0 -3 1 -2 1 -3 1 -2 1 -3 1 -2 1 -2 1 -3 2 -2 1 -1 2 -2 2 -2 1 -2 2 -1 2 -1 2 -2 2 -1 2 -1 2 -1 2 -1 2 0 3 -1 2 -1 2 0 2 0 2 -1 3 0 2 0 0 26 -1 0 -2 0 -1 0 -1 0 -1 0 -1 1 -2 0 -1 0 -1 1 -1 0 -1 1 -1 0 -1 1 0 0 -1 1 -1 1 -1 0 -1 1 0 1 -1 1 0 1 -1 1 -1 1 0 1 0 1 -1 2 0 1 -1 2 0 1 0 2 0 2 0 1 0 0zm24 25l0 25 0 0 -2 0 -2 0 -2 0 -3 -1 -2 0 -2 0 -2 -1 -2 0 -2 -1 -2 -1 -2 -1 -2 -1 -2 -1 -2 -1 -2 -1 -2 -2 -2 -2 -1 -1 -2 -2 -2 -2 -1 -2 -1 -2 -1 -3 -1 -2 -1 -3 -1 -2 -1 -3 0 -3 -1 -3 0 -3 0 -3 0 -3 24 0 0 2 0 2 0 2 0 2 1 1 0 2 1 1 0 1 0 1 1 1 0 1 1 1 1 0 0 1 1 1 0 0 1 1 1 1 1 0 1 1 1 0 1 0 1 1 1 0 1 1 1 0 1 0 1 0 2 0 1 1 2 0 1 0 0 0zm101 -56l23 9 0 0 -2 4 -2 4 -1 4 -2 4 -3 4 -2 3 -2 4 -3 3 -2 4 -3 3 -3 3 -3 3 -3 3 -4 3 -3 2 -4 3 -4 2 -4 2 -4 2 -4 2 -5 1 -4 2 -5 1 -5 1 -5 1 -6 1 -5 1 -6 1 -6 0 -6 1 -7 0 -6 0 0 -25 6 0 6 -1 5 0 6 0 5 -1 5 -1 4 0 5 -1 4 -1 4 -1 4 -2 3 -1 4 -1 3 -2 3 -2 3 -1 3 -2 2 -2 3 -2 2 -2 2 -2 2 -2 2 -3 2 -2 2 -3 2 -2 2 -3 1 -3 2 -3 1 -4 2 -3 1 -3 0 0zm23 9l0 0 0 0 0 0zm-13 -58l25 3 0 0 -1 2 0 2 0 2 0 2 -1 2 0 2 0 2 0 2 -1 2 0 1 0 2 -1 2 0 1 0 2 -1 2 0 2 0 1 -1 2 0 1 0 2 -1 2 0 1 -1 2 0 1 -1 2 0 2 -1 1 0 2 -1 1 0 2 -1 1 0 2 -23 -9 1 -1 0 -2 0 -1 1 -1 0 -2 1 -1 0 -1 1 -2 0 -1 0 -2 1 -1 0 -1 0 -2 1 -1 0 -2 0 -1 1 -1 0 -2 0 -1 0 -2 1 -2 0 -1 0 -2 1 -1 0 -2 0 -2 0 -1 0 -2 1 -2 0 -2 0 -2 0 -2 0 0zm0 0l0 0 0 0 0 0zm736 68l25 0 0 0 -1 3 0 3 0 3 0 3 -1 2 -1 3 0 2 -1 3 -1 2 -1 2 -2 3 -1 2 -1 2 -2 1 -1 2 -2 2 -2 1 -2 2 -1 1 -2 1 -2 1 -2 1 -2 1 -2 1 -2 1 -3 0 -2 1 -2 0 -2 0 -2 0 -2 1 -2 0 0 -26 1 0 1 0 1 0 2 0 1 0 1 -1 1 0 1 0 1 0 1 -1 1 0 1 -1 1 0 0 -1 1 0 1 -1 0 -1 1 0 1 -1 0 -1 1 -1 0 -1 1 -1 0 -1 1 -1 0 -1 0 -2 1 -1 0 -2 0 -1 0 -2 0 -2 0 0zm-22 -24l0 -25 0 0 2 0 2 0 2 0 2 0 3 1 2 0 2 1 2 1 2 1 2 0 2 1 2 2 2 1 2 1 1 2 2 1 2 2 1 2 2 1 1 2 1 2 2 3 1 2 1 2 1 3 0 2 1 3 1 2 0 3 0 3 0 2 1 3 -25 0 0 -2 0 -1 0 -2 0 -1 -1 -2 0 -1 0 -1 -1 -1 0 -1 -1 -1 0 -1 -1 -1 0 -1 -1 -1 -1 0 0 -1 -1 -1 -1 0 -1 -1 -1 -1 0 0 -1 -1 -1 0 -1 0 -1 -1 -1 0 -1 0 -2 -1 -1 0 -1 0 -1 0 -1 0 0 0zm-216 -25l216 0 0 25 -216 0 -12 -13 12 -12zm0 25l-12 0 0 -13 12 13zm12 -197l0 184 -24 0 0 -184 12 -13 12 13zm-24 0l0 -13 12 0 -12 13zm190 13l-178 0 0 -26 178 0 0 0 0 26zm22 -50l25 0 0 0 0 3 0 3 -1 3 0 3 -1 2 0 3 -1 2 -1 3 -1 2 -1 3 -1 2 -2 2 -1 2 -2 2 -1 1 -2 2 -2 2 -1 1 -2 1 -2 1 -2 2 -2 0 -2 1 -2 1 -2 1 -2 0 -2 1 -3 0 -2 0 -2 1 -2 0 -2 0 0 -26 1 0 1 0 2 0 1 0 1 0 1 0 1 -1 1 0 1 0 1 -1 1 0 1 -1 1 0 1 -1 0 0 1 -1 1 -1 0 0 1 -1 0 -1 1 -1 1 -1 0 -1 0 -1 1 -1 0 -1 1 -1 0 -2 0 -1 0 -2 0 -2 0 -2 0 0zm-22 -24l0 -25 0 0 2 0 2 0 3 0 2 1 2 0 2 1 2 0 2 1 2 1 2 1 2 1 2 1 2 1 2 1 2 2 1 1 2 2 2 2 1 2 1 2 2 2 1 2 1 2 1 2 1 3 1 2 0 3 1 2 0 3 1 3 0 2 0 3 -25 0 0 -1 0 -2 0 -2 0 -1 0 -1 -1 -2 0 -1 -1 -1 0 -1 0 -1 -1 -1 -1 -1 0 -1 -1 -1 0 0 -1 -1 -1 -1 -1 0 0 -1 -1 0 -1 -1 -1 0 -1 -1 -1 0 -1 -1 -1 0 -1 0 -1 0 -2 -1 -1 0 -1 0 -1 0 0 0zm-178 -25l178 0 0 25 -178 0 -12 -13 12 -12zm0 25l-12 0 0 -13 12 13zm12 -180l0 167 -24 0 0 -167 12 -13 12 13zm-24 0l0 -13 12 0 -12 13zm228 12l-216 0 0 -25 216 0 0 0 0 25zm22 -49l25 0 0 0 -1 3 0 3 0 2 0 3 -1 3 -1 2 0 3 -1 2 -1 3 -1 2 -2 2 -1 2 -1 2 -2 2 -1 2 -2 2 -2 1 -2 1 -1 2 -2 1 -2 1 -2 1 -2 1 -2 1 -2 0 -3 1 -2 0 -2 1 -2 0 -2 0 -2 0 -2 0 0 -25 1 0 1 0 1 0 2 0 1 -1 1 0 1 0 1 0 1 -1 1 0 1 -1 1 0 1 -1 0 0 1 -1 1 0 0 -1 1 -1 1 0 0 -1 1 -1 0 -1 1 -1 0 -1 1 -1 0 -2 0 -1 1 -1 0 -2 0 -1 0 -2 0 -2 0 0zm-22 -24l0 -26 0 0 2 0 2 1 2 0 2 0 3 1 2 0 2 1 2 0 2 1 2 1 2 1 2 1 2 2 2 1 1 1 2 2 2 2 1 1 2 2 1 2 1 2 2 2 1 3 1 2 1 2 0 3 1 2 1 3 0 3 0 2 0 3 1 3 -25 0 0 -2 0 -1 0 -2 0 -1 -1 -2 0 -1 0 -1 -1 -1 0 -1 -1 -2 0 0 -1 -1 0 -1 -1 -1 -1 -1 0 0 -1 -1 -1 -1 -1 0 -1 -1 0 0 -1 -1 -1 0 -1 -1 -1 0 -1 0 -1 -1 -2 0 -1 0 -1 0 -1 0 -1 0 0 0zm-254 -26l254 0 0 26 -254 0 0 0 0 -26zm-24 51l-24 0 0 0 0 -3 0 -2 0 -2 1 -3 0 -2 1 -2 0 -2 1 -3 1 -2 0 -2 1 -2 1 -2 2 -2 1 -2 1 -2 2 -2 1 -2 2 -1 2 -2 2 -2 2 -1 2 -1 2 -1 2 -2 3 -1 2 0 3 -1 2 -1 3 0 3 0 3 -1 2 0 0 26 -1 0 -2 0 -2 0 -1 0 -2 1 -1 0 -1 0 -1 1 -1 0 -1 1 -1 0 -1 1 -1 1 -1 0 0 1 -1 1 -1 1 0 1 -1 0 0 1 -1 1 0 1 -1 1 0 2 -1 1 0 1 0 1 0 1 0 2 -1 1 0 1 0 2 0 0zm-24 497l0 -497 24 0 0 497 0 0 -24 0zm48 25l0 26 0 0 -2 0 -3 -1 -3 0 -3 0 -2 -1 -3 -1 -2 -1 -3 0 -2 -2 -2 -1 -2 -1 -2 -1 -2 -2 -2 -2 -2 -1 -1 -2 -2 -2 -1 -2 -1 -2 -2 -2 -1 -2 -1 -2 0 -2 -1 -2 -1 -3 0 -2 -1 -2 0 -2 -1 -3 0 -2 0 -2 0 -3 24 0 0 2 0 1 1 1 0 2 0 1 0 1 0 1 1 1 0 2 1 1 0 1 1 1 0 1 1 0 0 1 1 1 1 1 0 1 1 0 1 1 1 1 1 0 1 1 1 0 1 1 1 0 1 0 2 1 1 0 2 0 2 0 1 0 0 0zm254 26l-254 0 0 -26 254 0 0 0 0 26zm321 -42l25 0 0 0 0 2 0 2 -1 2 0 3 0 2 -1 2 0 2 -1 3 -1 2 -1 2 -1 2 -1 2 -1 2 -1 2 -2 2 -1 2 -2 2 -2 2 -1 1 -2 2 -2 1 -3 2 -2 1 -2 1 -2 1 -3 1 -3 0 -2 1 -3 0 -3 1 -3 0 -2 0 0 -26 1 0 2 0 2 0 1 0 2 0 1 -1 2 0 1 -1 1 0 1 -1 1 0 1 -1 1 -1 0 0 1 -1 1 -1 0 -1 1 0 1 -1 0 -1 1 -1 0 -1 1 -1 0 -1 0 -2 1 -1 0 -1 0 -1 0 -1 0 -2 0 -1 0 -1 0 0zm25 -470l0 470 -25 0 0 -470 13 -13 12 13zm-25 0l0 -13 13 0 -13 13zm127 12l-114 0 0 -25 114 0 0 0 0 25zm23 -49l24 0 0 0 0 3 0 3 0 2 -1 3 0 3 -1 2 -1 3 -1 2 -1 3 -1 2 -1 2 -1 2 -2 2 -1 2 -2 2 -1 2 -2 1 -2 1 -2 2 -2 1 -2 1 -2 1 -2 1 -2 1 -2 0 -2 1 -2 0 -2 1 -2 0 -2 0 -2 0 -3 0 0 -25 2 0 1 0 1 0 1 0 1 -1 2 0 1 0 1 0 1 -1 1 0 1 -1 0 0 1 -1 1 0 1 -1 0 0 1 -1 1 -1 0 0 1 -1 0 -1 1 -1 0 -1 1 -1 0 -1 1 -2 0 -1 0 -1 1 -2 0 -1 0 -2 0 -2 0 0zm-23 -24l0 -26 0 0 3 0 2 1 2 0 2 0 2 1 2 0 3 1 2 0 2 1 2 1 2 1 2 1 1 2 2 1 2 1 2 2 1 2 2 1 1 2 2 2 1 2 1 2 1 3 1 2 1 2 1 3 1 2 0 3 1 3 0 2 0 3 0 3 -24 0 0 -2 0 -1 0 -2 -1 -1 0 -2 0 -1 -1 -1 0 -1 0 -1 -1 -2 -1 0 0 -1 -1 -1 0 -1 -1 -1 -1 0 0 -1 -1 -1 -1 0 -1 -1 -1 0 -1 -1 -1 0 -1 -1 -1 0 -1 0 -1 -1 -1 0 -1 0 -1 0 -1 0 -2 0 0 0zm-303 -26l303 0 0 26 -303 0 0 0 0 -26zm-23 50l-24 0 0 0 0 -3 0 -3 0 -2 1 -3 0 -3 1 -2 1 -3 1 -2 1 -2 1 -3 1 -2 1 -2 2 -2 1 -2 2 -1 1 -2 2 -2 2 -1 2 -1 2 -2 2 -1 1 -1 2 -1 3 -1 2 0 2 -1 2 0 2 -1 2 0 2 0 3 -1 2 0 0 26 -1 0 -2 0 -1 0 -1 0 -1 0 -1 1 -1 0 -1 0 -1 1 -1 0 -1 1 -1 0 -1 1 -1 0 0 1 -1 1 -1 0 -1 1 0 1 -1 1 0 1 -1 0 0 2 -1 1 0 1 -1 1 0 1 0 2 0 1 -1 2 0 1 0 2 0 0zm23 24l0 25 0 0 -2 0 -3 0 -2 0 -2 0 -2 -1 -2 0 -2 -1 -2 0 -2 -1 -2 -1 -2 -1 -2 -1 -2 -1 -2 -2 -2 -1 -1 -1 -2 -2 -2 -2 -1 -2 -2 -2 -1 -2 -1 -2 -1 -2 -1 -3 -1 -2 -1 -3 -1 -2 0 -3 -1 -3 0 -2 0 -3 0 -3 24 0 0 2 0 2 1 1 0 2 0 1 0 1 1 2 0 1 1 1 0 1 1 1 0 1 1 1 0 0 1 1 1 1 0 0 1 1 1 0 1 1 1 0 1 1 1 0 0 1 2 0 1 0 1 0 1 1 1 0 1 0 1 0 2 0 0 0zm115 25l-115 0 0 -25 115 0 12 13 -12 12zm0 -25l12 0 0 13 -12 -13zm-13 483l0 -470 25 0 0 470 0 0 -25 0zm50 24l0 26 0 0 -3 0 -3 0 -3 -1 -3 0 -2 -1 -3 0 -2 -1 -3 -1 -2 -1 -2 -2 -2 -1 -3 -1 -1 -2 -2 -1 -2 -2 -2 -2 -1 -2 -2 -2 -1 -2 -1 -2 -1 -2 -1 -2 -1 -2 -1 -2 0 -3 -1 -2 0 -2 -1 -2 0 -3 0 -2 -1 -2 0 -2 25 0 0 1 0 1 0 2 0 1 0 1 1 1 0 1 0 2 1 1 0 1 1 1 0 1 1 1 0 1 1 0 0 1 1 1 1 1 1 0 0 1 1 1 1 0 1 1 1 0 2 1 1 0 1 1 2 0 1 0 2 0 2 0 2 0 0 0zm601 -32l25 0 0 0 0 3 -1 3 0 3 0 3 -1 2 0 3 -1 2 -1 3 -1 2 -1 2 -1 3 -2 2 -1 2 -2 1 -1 2 -2 2 -2 1 -1 2 -2 1 -2 1 -2 1 -2 1 -2 1 -2 1 -2 1 -2 0 -3 1 -2 0 -2 0 -2 0 -2 1 -2 0 0 -26 1 0 1 0 2 0 1 0 1 0 1 -1 1 0 1 0 1 0 1 -1 1 0 1 -1 1 0 0 -1 1 0 1 -1 1 -1 0 0 1 -1 0 -1 1 -1 0 -1 1 -1 0 -1 1 -1 0 -1 1 -2 0 -1 0 -2 0 -1 0 -2 0 -2 0 0zm-22 -24l0 -25 0 0 2 0 2 0 2 0 3 0 2 1 2 0 2 1 2 1 2 1 2 0 2 1 2 2 2 1 2 1 2 2 1 1 2 2 1 2 2 1 1 2 2 2 1 3 1 2 1 2 1 3 1 2 0 3 1 2 0 3 0 3 1 2 0 3 -25 0 0 -2 0 -1 0 -2 0 -1 0 -1 -1 -2 0 -1 -1 -1 0 -1 -1 -1 0 -1 -1 -1 0 -1 -1 -1 -1 0 0 -1 -1 -1 -1 0 -1 -1 0 -1 -1 0 -1 -1 -1 0 -1 0 -1 -1 -1 0 -1 0 -1 -1 -2 0 -1 0 -1 0 -1 0 0 0zm-216 -25l216 0 0 25 -216 0 -12 -13 12 -12zm0 25l-12 0 0 -13 12 13zm12 -197l0 184 -24 0 0 -184 12 -13 12 13zm-24 0l0 -13 12 0 -12 13zm190 13l-178 0 0 -26 178 0 0 0 0 26zm23 -50l24 0 0 0 0 3 0 3 -1 3 0 3 -1 2 0 3 -1 2 -1 3 -1 2 -1 3 -1 2 -1 2 -2 2 -1 2 -2 1 -2 2 -1 2 -2 1 -2 1 -2 1 -2 2 -2 0 -2 1 -2 1 -2 1 -2 0 -2 1 -2 0 -2 0 -3 1 -2 0 -2 0 0 -26 1 0 2 0 1 0 1 0 1 0 1 0 1 -1 1 0 1 0 1 -1 1 0 1 -1 1 0 1 -1 0 0 1 -1 1 -1 0 0 1 -1 1 -1 0 -1 1 -1 0 -1 1 -1 0 -1 0 -1 1 -1 0 -2 0 -1 0 -2 1 -2 0 -2 0 0zm-23 -24l0 -25 0 0 2 0 2 0 3 0 2 1 2 0 2 1 2 0 2 1 2 1 2 1 2 1 2 1 2 1 2 1 2 2 1 1 2 2 2 2 1 2 2 2 1 2 1 2 1 2 1 2 1 3 1 2 0 3 1 2 0 3 1 3 0 2 0 3 -24 0 0 -1 -1 -2 0 -2 0 -1 0 -1 -1 -2 0 -1 0 -1 -1 -1 0 -1 -1 -1 0 -1 -1 -1 -1 -1 0 0 -1 -1 -1 -1 -1 0 0 -1 -1 0 -1 -1 -1 0 -1 -1 -1 0 -1 -1 -1 0 -1 0 -1 0 -1 -1 -1 0 -2 0 -1 0 0 0zm-178 -25l178 0 0 25 -178 0 -12 -13 12 -12zm0 25l-12 0 0 -13 12 13zm12 -180l0 167 -24 0 0 -167 12 -13 12 13zm-24 0l0 -13 12 0 -12 13zm228 12l-216 0 0 -25 216 0 0 0 0 25zm22 -49l25 0 0 0 0 3 -1 3 0 2 0 3 -1 3 0 2 -1 3 -1 2 -1 3 -1 2 -1 2 -2 2 -1 2 -2 2 -1 2 -2 2 -2 1 -1 1 -2 2 -2 1 -2 1 -2 1 -2 1 -2 1 -2 0 -2 1 -3 0 -2 1 -2 0 -2 0 -2 0 -2 0 0 -25 1 0 1 0 2 0 1 0 1 -1 1 0 1 0 1 0 1 -1 1 0 1 -1 1 0 1 -1 0 0 1 -1 1 0 1 -1 0 -1 1 0 0 -1 1 -1 0 -1 1 -1 0 -1 1 -1 0 -2 1 -1 0 -1 0 -2 0 -1 0 -2 0 -2 0 0zm-22 -24l0 -26 0 0 2 0 2 1 2 0 3 0 2 1 2 0 2 1 2 0 2 1 2 1 2 1 2 1 2 2 2 1 2 1 1 2 2 2 1 1 2 2 1 2 2 2 1 2 1 3 1 2 1 2 1 3 0 2 1 3 0 3 0 2 1 3 0 3 -25 0 0 -2 0 -1 0 -2 0 -1 0 -2 -1 -1 0 -1 -1 -1 0 -1 -1 -2 0 0 -1 -1 0 -1 -1 -1 -1 -1 0 0 -1 -1 -1 -1 -1 0 0 -1 -1 0 -1 -1 -1 0 -1 -1 -1 0 -1 0 -1 -1 -1 0 -2 0 -1 0 -1 0 -1 0 0 0zm-253 -26l253 0 0 26 -253 0 0 0 0 -26zm-24 51l-25 0 0 0 0 -3 0 -2 1 -2 0 -3 0 -2 1 -2 0 -2 1 -3 1 -2 1 -2 0 -2 2 -2 1 -2 1 -2 1 -2 2 -2 1 -2 2 -1 2 -2 2 -2 2 -1 2 -1 2 -1 3 -2 2 -1 2 0 3 -1 2 -1 3 0 3 0 3 -1 3 0 0 26 -2 0 -2 0 -2 0 -1 0 -1 1 -2 0 -1 0 -1 1 -1 0 -1 1 -1 0 -1 1 -1 1 0 0 -1 1 -1 1 -1 1 0 1 -1 0 0 1 -1 1 0 1 -1 1 0 2 0 1 -1 1 0 1 0 1 0 2 0 1 0 1 0 2 0 0zm-25 497l0 -497 25 0 0 497 0 0 -25 0zm49 25l0 26 0 0 -3 0 -3 -1 -3 0 -3 0 -2 -1 -3 -1 -2 -1 -2 0 -3 -2 -2 -1 -2 -1 -2 -1 -2 -2 -2 -2 -2 -1 -1 -2 -2 -2 -1 -2 -1 -2 -1 -2 -1 -2 -1 -2 -1 -2 -1 -2 -1 -3 0 -2 -1 -2 0 -2 0 -3 -1 -2 0 -2 0 -3 25 0 0 2 0 1 0 1 0 2 0 1 0 1 1 1 0 1 0 2 1 1 0 1 1 1 0 1 1 0 0 1 1 1 1 1 1 1 0 0 1 1 1 1 1 0 1 1 1 0 1 1 1 0 2 0 1 1 1 0 2 0 2 0 2 0 0 0zm253 26l-253 0 0 -26 253 0 0 0 0 26zm475 -582l0 -25 0 0 2 0 3 0 3 1 3 0 2 1 3 0 2 1 3 1 2 1 2 1 2 2 2 1 2 2 2 1 2 2 1 2 2 2 1 2 2 1 1 3 1 2 1 2 1 2 1 2 0 2 1 3 1 2 0 2 0 2 1 3 0 2 0 2 -25 0 0 -1 0 -1 0 -1 0 -2 0 -1 0 -1 -1 -1 0 -1 -1 -2 0 -1 0 -1 -1 -1 -1 -1 0 -1 -1 0 0 -1 -1 -1 -1 -1 -1 0 -1 -1 -1 -1 -1 0 -1 -1 -1 0 -1 -1 -1 0 -1 -1 -2 0 -1 0 -2 0 -2 0 -1 -1 0 0zm-25 25l-25 0 0 0 0 -2 1 -2 0 -2 0 -3 0 -2 1 -2 1 -3 0 -2 1 -2 1 -2 1 -2 1 -2 1 -2 1 -2 2 -2 1 -2 2 -2 2 -2 2 -1 1 -2 3 -1 2 -2 2 -1 2 -1 3 -1 2 -1 3 0 2 -1 3 0 3 -1 3 0 3 0 0 25 -2 1 -2 0 -2 0 -1 0 -2 0 -1 1 -1 0 -2 1 -1 0 -1 1 -1 0 -1 1 0 1 -1 0 -1 1 -1 1 0 1 -1 0 0 1 -1 1 -1 1 0 1 0 1 -1 1 0 1 0 2 -1 1 0 1 0 1 0 2 0 1 0 1 0 0zm-25 204l0 -204 25 0 0 204 -12 13 -13 -13zm25 0l0 13 -12 0 12 -13zm-219 -12l207 0 0 25 -207 0 -13 -13 13 -12zm0 25l-13 0 0 -13 13 13zm12 -217l0 204 -25 0 0 -204 0 0 25 0zm-49 -25l0 -25 0 0 3 0 3 0 2 1 3 0 3 1 2 0 3 1 2 1 3 1 2 1 2 2 2 1 2 2 2 1 2 2 1 2 2 2 1 2 1 2 2 2 1 2 1 2 0 2 1 2 1 3 0 2 1 2 0 2 0 3 1 2 0 2 0 2 -25 0 0 -1 0 -1 0 -2 0 -1 0 -1 0 -1 -1 -2 0 -1 0 -1 -1 -1 0 -1 -1 -1 0 -1 -1 -1 0 -1 -1 0 -1 -1 0 -1 -1 0 -1 -1 -1 -1 -1 0 -1 -1 -1 0 -1 -1 -1 0 -2 -1 -1 0 -2 0 -2 0 -1 0 -2 -1 0 0zm-25 25l-24 0 0 0 0 -2 0 -2 0 -3 0 -2 1 -2 0 -2 1 -3 0 -2 1 -2 1 -2 1 -2 1 -2 1 -3 2 -1 1 -2 2 -2 1 -2 2 -2 2 -1 2 -2 2 -1 2 -2 2 -1 3 -1 2 -1 3 -1 2 0 3 -1 2 0 3 -1 3 0 3 0 0 25 -2 1 -2 0 -1 0 -2 0 -1 0 -2 1 -1 0 -1 1 -1 0 -1 1 -1 0 -1 1 -1 1 -1 0 -1 1 0 1 -1 1 -1 0 0 1 -1 1 0 1 -1 1 0 1 -1 2 0 1 0 1 -1 1 0 1 0 2 0 1 0 1 0 1 0 0zm-24 515l0 -515 24 0 0 515 0 0 -24 0zm49 24l0 26 0 0 -3 0 -3 0 -3 -1 -2 0 -3 -1 -2 0 -3 -1 -2 -1 -3 -1 -2 -2 -2 -1 -2 -1 -2 -2 -2 -1 -2 -2 -1 -2 -2 -2 -1 -2 -2 -1 -1 -3 -1 -2 -1 -2 -1 -2 -1 -2 0 -2 -1 -3 0 -2 -1 -2 0 -2 0 -3 0 -2 0 -2 24 0 0 1 0 1 0 1 0 2 0 1 1 1 0 1 0 1 1 2 0 1 1 1 0 1 1 1 0 1 1 0 1 1 0 1 1 1 1 0 1 1 1 1 1 0 1 1 1 0 1 1 1 0 2 1 1 0 2 0 1 0 2 0 2 0 0 0zm24 -24l25 0 0 0 0 2 0 2 -1 2 0 3 0 2 -1 2 0 2 -1 3 -1 2 -1 2 -1 2 -1 2 -1 2 -1 2 -2 2 -1 2 -2 2 -1 2 -2 1 -2 2 -2 1 -2 2 -3 1 -2 1 -2 1 -3 1 -2 0 -3 1 -3 0 -3 1 -2 0 -3 0 0 -26 2 0 1 0 2 0 2 0 1 0 1 -1 2 0 1 -1 1 0 1 -1 1 0 1 -1 1 -1 0 0 1 -1 1 -1 1 -1 0 0 1 -1 0 -1 1 -1 0 -1 1 -1 0 -1 0 -2 1 -1 0 -1 0 -1 0 -1 0 -2 0 -1 0 -1 0 0zm25 -237l0 237 -25 0 0 -237 13 -13 12 13zm-25 0l0 -13 13 0 -13 13zm220 13l-207 0 0 -26 207 0 12 13 -12 13zm0 -26l12 0 0 13 -12 -13zm-13 250l0 -237 25 0 0 237 0 0 -25 0zm50 24l0 26 0 0 -3 0 -3 0 -3 -1 -3 0 -3 -1 -2 0 -3 -1 -2 -1 -2 -1 -3 -1 -2 -2 -2 -1 -2 -2 -2 -1 -1 -2 -2 -2 -2 -2 -1 -2 -1 -2 -1 -2 -1 -2 -1 -2 -1 -2 -1 -2 -1 -3 0 -2 -1 -2 0 -2 0 -3 0 -2 -1 -2 0 -2 25 0 0 1 0 1 0 2 0 1 0 1 1 1 0 2 0 1 1 1 0 1 0 1 1 1 0 1 1 1 1 1 0 0 1 1 1 1 0 0 1 1 1 1 1 0 1 1 1 0 1 1 2 0 1 1 1 0 2 0 2 0 2 0 2 0 0 0zm24 -24l25 0 0 0 0 2 0 2 -1 3 0 2 0 2 -1 2 -1 3 0 2 -1 2 -1 2 -1 2 -1 2 -1 3 -2 1 -1 2 -2 2 -1 2 -2 2 -2 1 -2 2 -2 1 -2 1 -2 2 -2 1 -3 1 -2 1 -3 0 -2 1 -3 0 -3 1 -3 0 -2 0 0 -26 1 0 2 0 2 0 1 0 2 0 1 -1 1 0 1 -1 1 0 1 -1 1 0 1 -1 1 -1 1 0 1 -1 1 -1 0 -1 1 0 0 -1 1 -1 1 -1 0 -1 0 -1 1 -2 0 -1 1 -1 0 -1 0 -1 0 -2 0 -1 0 -1 0 -1 0 0zm25 -515l0 515 -25 0 0 -515 0 0 25 0zm215 180l124 0 0 25 -124 0 -12 -12 12 -13zm0 25l-12 0 0 -12 12 12zm12 -205l0 193 -24 0 0 -193 0 0 24 0zm-49 -25l0 -25 0 0 3 0 3 0 3 1 2 0 3 1 3 0 2 1 3 1 2 1 2 1 2 2 2 1 2 2 2 1 2 2 1 2 2 2 1 2 2 2 1 2 1 2 1 2 1 2 1 2 0 2 1 3 0 2 1 2 0 3 0 2 0 2 0 2 -24 0 0 -1 0 -1 0 -2 0 -1 -1 -1 0 -1 0 -2 0 -1 -1 -1 0 -1 -1 -1 0 -1 -1 -1 0 -1 -1 0 -1 -1 0 -1 -1 -1 -1 0 -1 -1 -1 -1 -1 0 -1 -1 -1 0 -1 -1 -1 0 -2 -1 -1 0 -2 0 -1 0 -2 0 -2 -1 0 0zm-25 25l-24 0 0 0 0 -2 0 -2 0 -2 1 -3 0 -2 1 -2 0 -3 1 -2 1 -2 0 -2 1 -2 1 -2 2 -2 1 -2 1 -2 2 -2 2 -2 1 -2 2 -1 2 -2 2 -1 2 -2 3 -1 2 -1 2 -1 3 -1 2 0 3 -1 3 0 2 -1 3 0 3 0 0 25 -2 1 -1 0 -2 0 -2 0 -1 0 -2 1 -1 0 -1 1 -1 0 -1 1 -1 0 -1 1 -1 1 -1 0 0 1 -1 1 -1 1 0 0 -1 1 0 1 -1 1 0 1 -1 1 0 1 -1 1 0 2 0 1 0 1 0 1 -1 2 0 1 0 1 0 0zm-24 506l0 -506 24 0 0 506 0 0 -24 0zm50 25l0 26 0 0 -3 0 -3 -1 -3 0 -2 0 -3 -1 -3 -1 -2 0 -3 -1 -2 -1 -2 -2 -3 -1 -2 -1 -2 -2 -1 -1 -2 -2 -2 -2 -1 -2 -2 -2 -1 -2 -1 -2 -2 -2 -1 -2 0 -2 -1 -2 -1 -3 0 -2 -1 -2 0 -2 -1 -3 0 -2 0 -2 0 -3 24 0 0 2 0 1 1 1 0 2 0 1 0 1 0 1 1 1 0 2 1 1 0 1 1 1 0 0 1 1 0 1 1 1 1 1 0 0 1 1 1 1 1 0 1 1 1 1 1 0 2 1 1 0 1 0 2 1 1 0 2 0 2 0 2 0 0 0zm160 26l-160 0 0 -26 160 0 0 0 0 26zm139 -172l25 0 0 0 0 9 -1 9 -1 8 -1 9 -1 8 -2 8 -2 8 -2 8 -3 8 -3 7 -3 7 -4 7 -4 7 -4 7 -5 6 -5 6 -5 6 -6 5 -6 5 -6 5 -7 4 -7 4 -7 4 -8 4 -7 3 -9 2 -8 2 -9 2 -9 2 -9 1 -10 0 -10 1 0 -26 9 0 9 0 8 -1 8 -2 8 -1 7 -2 7 -2 6 -3 7 -3 6 -3 6 -3 5 -4 5 -4 5 -4 5 -5 4 -4 4 -5 4 -5 4 -6 3 -5 3 -6 3 -6 2 -7 3 -6 2 -7 1 -7 2 -7 1 -7 1 -8 1 -7 0 -8 0 -8 0 0zm25 -37l0 37 -25 0 0 -37 0 0 25 0zm-164 -143l0 -25 0 0 10 0 10 1 10 1 9 1 9 2 8 2 8 3 8 2 8 4 7 3 7 4 7 4 6 5 6 5 5 5 6 6 5 5 4 6 5 7 4 6 3 7 4 7 2 8 3 7 2 8 2 8 2 8 1 8 1 9 1 9 1 8 0 9 -25 0 0 -8 0 -8 -1 -7 -1 -8 -1 -7 -1 -7 -2 -7 -2 -7 -2 -6 -3 -6 -2 -6 -3 -6 -4 -5 -3 -5 -4 -5 -4 -5 -4 -5 -5 -4 -5 -4 -5 -4 -5 -3 -6 -3 -6 -3 -6 -3 -7 -2 -7 -2 -7 -2 -8 -2 -8 -1 -9 -1 -8 0 -10 -1 0 0zm2 278l0 -25 0 0 5 0 4 -1 4 0 4 -1 4 0 3 -1 4 -1 3 -1 3 -1 3 -1 2 -1 2 -2 3 -1 2 -2 2 -2 1 -2 2 -1 2 -2 1 -3 1 -2 2 -2 1 -3 1 -3 1 -3 1 -3 0 -3 1 -3 1 -4 0 -4 0 -3 0 -4 0 -5 25 0 0 5 -1 5 0 5 0 4 -1 5 -1 4 -1 5 -1 4 -1 4 -2 4 -2 4 -1 4 -3 3 -2 4 -2 3 -3 3 -3 3 -3 3 -3 2 -4 3 -3 2 -4 2 -4 2 -4 1 -5 2 -4 1 -5 1 -4 1 -5 0 -5 1 -6 0 -5 0 0 0zm-126 -25l126 0 0 25 -126 0 -12 -13 12 -12zm0 25l-12 0 0 -13 12 13zm12 -217l0 204 -24 0 0 -204 12 -12 12 12zm-24 0l0 -12 12 0 -12 12zm136 13l-124 0 0 -25 124 0 0 0 0 25zm90 65l-25 0 0 0 0 -4 0 -4 0 -4 -1 -3 0 -4 -1 -3 -1 -4 0 -3 -1 -3 -1 -2 -2 -3 -1 -3 -1 -2 -2 -2 -2 -2 -1 -2 -2 -2 -2 -2 -2 -1 -3 -2 -2 -2 -3 -1 -2 -1 -3 -1 -4 -1 -3 -1 -4 -1 -3 -1 -4 0 -5 -1 -4 0 -5 0 0 -25 6 0 5 0 5 1 5 0 5 1 5 1 4 1 4 2 5 1 4 2 3 2 4 2 4 3 3 2 3 3 3 3 3 3 2 4 3 3 2 4 2 3 2 4 1 4 2 4 1 5 1 4 1 5 1 4 0 5 0 4 1 5 0 5 0 0zm-25 49l0 -49 25 0 0 49 0 0 -25 0z"/>
   </g>
   <g>
    <path class="fil7" d="M5283 11700c35,29 40,80 12,115 -28,34 -80,40 -114,11l102 -126zm-765 -1272l162 0 0 0 1 48 2 48 3 47 5 47 6 46 7 46 9 46 9 45 11 45 13 44 13 43 15 44 16 42 16 42 18 42 20 41 20 40 21 39 22 39 24 39 24 37 25 37 26 36 28 36 28 34 29 34 30 33 31 32 31 32 33 30 33 30 34 28 -102 126 -38 -31 -37 -33 -35 -33 -35 -35 -34 -35 -33 -36 -32 -38 -31 -38 -30 -39 -28 -39 -28 -41 -27 -41 -26 -42 -24 -43 -23 -43 -23 -45 -21 -45 -19 -45 -19 -46 -17 -47 -16 -48 -15 -48 -14 -48 -12 -49 -11 -50 -9 -50 -8 -51 -7 -51 -5 -51 -3 -52 -3 -52 0 -53 0 0zm0 0c0,-45 36,-81 81,-81 45,0 81,36 81,81l-162 0zm663 -1398l102 126 -34 28 -33 30 -33 30 -31 32 -31 32 -30 33 -29 34 -28 34 -28 36 -26 36 -25 37 -24 37 -24 39 -22 39 -21 39 -20 40 -20 41 -18 42 -16 42 -16 42 -15 44 -13 43 -13 44 -11 45 -9 45 -9 46 -7 46 -6 46 -5 47 -3 47 -2 48 -1 48 -162 0 0 -53 3 -52 3 -52 5 -51 7 -51 8 -51 9 -50 11 -50 12 -49 14 -48 15 -48 16 -48 17 -47 19 -46 19 -45 21 -45 23 -45 23 -43 24 -43 26 -42 27 -41 28 -41 28 -39 30 -39 31 -38 32 -38 33 -36 34 -35 35 -35 35 -33 37 -33 38 -31zm0 0c34,-29 86,-23 114,11 28,35 23,86 -12,115l-102 -126zm2182 126c-35,-29 -40,-80 -12,-115 29,-34 80,-40 115,-11l-103 126zm766 1272l-163 0 0 0 0 -48 -2 -48 -4 -47 -4 -47 -6 -46 -8 -46 -8 -46 -10 -45 -11 -45 -12 -44 -14 -43 -14 -44 -16 -42 -17 -42 -18 -42 -19 -41 -20 -40 -22 -39 -22 -39 -23 -39 -25 -37 -25 -37 -26 -36 -27 -36 -29 -34 -29 -34 -30 -33 -30 -32 -32 -32 -33 -30 -33 -30 -34 -28 103 -126 37 31 37 33 36 33 34 35 34 35 33 36 32 38 31 38 30 39 29 39 28 41 26 41 26 42 24 43 24 43 22 45 21 45 20 45 18 46 18 47 16 48 14 48 14 48 12 49 11 50 9 50 8 51 7 51 5 51 4 52 2 52 1 53 0 0zm0 0c0,45 -37,81 -81,81 -45,0 -82,-36 -82,-81l163 0zm-663 1398l-103 -126 34 -28 33 -30 33 -30 32 -32 30 -32 30 -33 29 -34 29 -34 27 -36 26 -36 25 -37 25 -37 23 -39 22 -39 22 -39 20 -40 19 -41 18 -42 17 -42 16 -42 14 -44 14 -43 12 -44 11 -45 10 -45 8 -46 8 -46 6 -46 4 -47 4 -47 2 -48 0 -48 163 0 -1 53 -2 52 -4 52 -5 51 -7 51 -8 51 -9 50 -11 50 -12 49 -14 48 -14 48 -16 48 -18 47 -18 46 -20 45 -21 45 -22 45 -24 43 -24 43 -26 42 -26 41 -28 41 -29 39 -30 39 -31 38 -32 38 -33 36 -34 35 -34 35 -36 33 -37 33 -37 31zm0 0c-35,29 -86,23 -115,-11 -28,-35 -23,-86 12,-115l103 126z"/>
   </g>
   <path class="fil4 str1" d="M5951 10098c0,14 -4,25 -12,33 -8,7 -18,11 -31,11 -11,0 -21,-4 -30,-11 -9,-7 -13,-18 -13,-33l0 -677 -100 100c-8,8 -18,13 -30,13 -10,0 -20,-5 -30,-13 -9,-9 -14,-20 -14,-31 0,-10 5,-20 14,-30l173 -174c5,-6 12,-11 18,-15 6,-3 13,-5 20,-5 7,0 15,5 25,13 7,9 10,22 10,37l0 782zm655 -148c0,52 -18,97 -55,135 -37,38 -82,57 -136,57l-52 0c-51,0 -96,-19 -134,-56 -38,-36 -57,-82 -57,-136l0 -486c0,-51 19,-95 56,-134 37,-38 82,-57 135,-57l52 0c52,0 97,18 135,55 38,37 56,83 56,136l0 486zm-86 1l0 -487c0,-29 -10,-54 -30,-74 -20,-21 -45,-31 -75,-31l-52 0c-29,0 -53,10 -74,31 -20,20 -31,45 -31,74l0 487c0,28 11,53 31,74 20,20 45,30 74,30l52 0c29,0 53,-10 74,-30 21,-20 31,-44 31,-74zm-439 1494l217 0 0 -739c0,-12 4,-22 13,-32 9,-8 19,-12 30,-12 11,0 21,4 31,11 8,7 12,18 12,33l0 782c0,29 -14,43 -43,43l-607 0c-29,0 -43,-14 -43,-43l0 -782c0,-12 4,-22 13,-32 9,-8 19,-12 30,-12 11,0 21,4 30,11 9,8 13,18 13,33l0 739 218 0 0 -739c0,-12 4,-22 12,-32 9,-8 19,-12 31,-12 11,0 21,4 30,11 8,8 13,18 13,33l0 739zm742 -696l-173 0c-14,0 -24,-4 -33,-12 -7,-9 -11,-20 -11,-31 0,-10 4,-20 11,-29 7,-10 18,-15 33,-15l433 0c13,0 23,5 31,14 9,9 13,19 13,30 0,10 -4,19 -11,29 -7,9 -18,14 -33,14l-173 0 0 739c0,13 -4,24 -13,33 -7,7 -18,10 -31,10 -11,0 -21,-3 -30,-11 -8,-7 -13,-18 -13,-32l0 -739z"/>
   <g>
    <path class="fil7" d="M13763 11700c35,29 40,80 12,115 -28,34 -80,40 -114,11l102 -126zm-765 -1272l162 0 0 0 1 48 2 48 3 47 5 47 6 46 7 46 9 46 9 45 11 45 13 44 13 43 15 44 16 42 16 42 18 42 20 41 20 40 21 39 22 39 24 39 24 37 25 37 26 36 28 36 28 34 29 34 30 33 31 32 31 32 33 30 33 30 34 28 -102 126 -38 -31 -37 -33 -35 -33 -35 -35 -34 -35 -33 -36 -32 -38 -31 -38 -30 -39 -28 -39 -28 -41 -27 -41 -26 -42 -24 -43 -23 -43 -23 -45 -21 -45 -19 -45 -19 -46 -17 -47 -16 -48 -15 -48 -14 -48 -12 -49 -11 -50 -9 -50 -8 -51 -7 -51 -5 -51 -3 -52 -3 -52 0 -53 0 0zm0 0c0,-45 36,-81 81,-81 45,0 81,36 81,81l-162 0zm663 -1398l102 126 -34 28 -33 30 -33 30 -31 32 -31 32 -30 33 -29 34 -28 34 -28 36 -26 36 -25 37 -24 37 -24 39 -22 39 -21 39 -20 40 -20 41 -18 42 -16 42 -16 42 -15 44 -13 43 -13 44 -11 45 -9 45 -9 46 -7 46 -6 46 -5 47 -3 47 -2 48 -1 48 -162 0 0 -53 3 -52 3 -52 5 -51 7 -51 8 -51 9 -50 11 -50 12 -49 14 -48 15 -48 16 -48 17 -47 19 -46 19 -45 21 -45 23 -45 23 -43 24 -43 26 -42 27 -41 28 -41 28 -39 30 -39 31 -38 32 -38 33 -36 34 -35 35 -35 35 -33 37 -33 38 -31zm0 0c34,-29 86,-23 114,11 28,35 23,86 -12,115l-102 -126zm2182 126c-35,-29 -40,-80 -12,-115 29,-34 80,-40 115,-11l-103 126zm766 1272l-163 0 0 0 0 -48 -2 -48 -4 -47 -4 -47 -6 -46 -8 -46 -8 -46 -10 -45 -11 -45 -12 -44 -14 -43 -14 -44 -16 -42 -17 -42 -18 -42 -19 -41 -20 -40 -22 -39 -22 -39 -23 -39 -25 -37 -25 -37 -26 -36 -27 -36 -29 -34 -29 -34 -30 -33 -30 -32 -32 -32 -33 -30 -33 -30 -34 -28 103 -126 37 31 37 33 36 33 34 35 34 35 33 36 32 38 31 38 30 39 29 39 28 41 26 41 26 42 24 43 24 43 22 45 21 45 20 45 18 46 18 47 16 48 14 48 14 48 12 49 11 50 9 50 8 51 7 51 5 51 4 52 2 52 1 53 0 0zm0 0c0,45 -37,81 -81,81 -45,0 -82,-36 -82,-81l163 0zm-663 1398l-103 -126 34 -28 33 -30 33 -30 32 -32 30 -32 30 -33 29 -34 29 -34 27 -36 26 -36 25 -37 25 -37 23 -39 22 -39 22 -39 20 -40 19 -41 18 -42 17 -42 16 -42 14 -44 14 -43 12 -44 11 -45 10 -45 8 -46 8 -46 6 -46 4 -47 4 -47 2 -48 0 -48 163 0 -1 53 -2 52 -4 52 -5 51 -7 51 -8 51 -9 50 -11 50 -12 49 -14 48 -14 48 -16 48 -18 47 -18 46 -20 45 -21 45 -22 45 -24 43 -24 43 -26 42 -26 41 -28 41 -29 39 -30 39 -31 38 -32 38 -33 36 -34 35 -34 35 -36 33 -37 33 -37 31zm0 0c-35,29 -86,23 -115,-11 -28,-35 -23,-86 12,-115l103 126z"/>
   </g>
   <path class="fil4 str1" d="M14431 10098c0,14 -4,25 -12,33 -8,7 -18,11 -31,11 -11,0 -21,-4 -30,-11 -9,-7 -13,-18 -13,-33l0 -677 -100 100c-8,8 -18,13 -30,13 -10,0 -20,-5 -30,-13 -9,-9 -14,-20 -14,-31 0,-10 5,-20 14,-30l173 -174c5,-6 12,-11 18,-15 6,-3 13,-5 20,-5 7,0 15,5 25,13 7,9 10,22 10,37l0 782zm655 -148c0,52 -18,97 -55,135 -37,38 -82,57 -136,57l-52 0c-51,0 -96,-19 -134,-56 -38,-36 -57,-82 -57,-136l0 -486c0,-51 19,-95 56,-134 37,-38 82,-57 135,-57l52 0c52,0 97,18 135,55 38,37 56,83 56,136l0 486zm-86 1l0 -487c0,-29 -10,-54 -30,-74 -20,-21 -45,-31 -75,-31l-52 0c-29,0 -53,10 -74,31 -20,20 -31,45 -31,74l0 487c0,28 11,53 31,74 20,20 45,30 74,30l52 0c29,0 53,-10 74,-30 21,-20 31,-44 31,-74zm-439 1494l217 0 0 -739c0,-12 4,-22 13,-32 9,-8 19,-12 30,-12 11,0 21,4 31,11 8,7 12,18 12,33l0 782c0,29 -14,43 -43,43l-607 0c-29,0 -43,-14 -43,-43l0 -782c0,-12 4,-22 13,-32 9,-8 19,-12 30,-12 11,0 21,4 30,11 9,8 13,18 13,33l0 739 218 0 0 -739c0,-12 4,-22 12,-32 9,-8 19,-12 31,-12 11,0 21,4 30,11 8,8 13,18 13,33l0 739zm742 -696l-173 0c-14,0 -24,-4 -33,-12 -7,-9 -11,-20 -11,-31 0,-10 4,-20 11,-29 7,-10 18,-15 33,-15l433 0c13,0 23,5 31,14 9,9 13,19 13,30 0,10 -4,19 -11,29 -7,9 -18,14 -33,14l-173 0 0 739c0,13 -4,24 -13,33 -7,7 -18,10 -31,10 -11,0 -21,-3 -30,-11 -8,-7 -13,-18 -13,-32l0 -739z"/>
  </g>
 </g>
</svg>
