<?xml version="1.0" encoding="UTF-8"?>
<!DOCTYPE svg PUBLIC "-//W3C//DTD SVG 1.0//EN" "http://www.w3.org/TR/2001/REC-SVG-20010904/DTD/svg10.dtd">
<!-- Creator: CorelDRAW X7 -->
<svg xmlns="http://www.w3.org/2000/svg" xml:space="preserve" width="115mm" height="70.122mm" version="1.0" style="shape-rendering:geometricPrecision; text-rendering:geometricPrecision; image-rendering:optimizeQuality; fill-rule:evenodd; clip-rule:evenodd"
viewBox="0 0 11500 7012"
 xmlns:xlink="http://www.w3.org/1999/xlink">
 <defs>
  <style type="text/css">
   <![CDATA[
    .str1 {stroke:#3696A0;stroke-width:8.76524}
    .str7 {stroke:#843BB6;stroke-width:8.76524}
    .str6 {stroke:#CA3A56;stroke-width:8.76524}
    .str0 {stroke:#5B5B5B;stroke-width:2.67165}
    .str5 {stroke:#2E99A3;stroke-width:5.82363;stroke-linecap:round;stroke-linejoin:round}
    .str4 {stroke:#737370;stroke-width:25.7383;stroke-linecap:round;stroke-linejoin:round}
    .str2 {stroke:#B54F66;stroke-width:25.7383;stroke-linecap:round;stroke-linejoin:round}
    .str3 {stroke:#CC5770;stroke-width:40.9407;stroke-linecap:round;stroke-linejoin:round;stroke-dasharray:29.682622 89.047866}
    .fil22 {fill:none}
    .fil24 {fill:none;fill-rule:nonzero}
    .fil27 {fill:#FEFEFE}
    .fil26 {fill:#E95533}
    .fil25 {fill:#CB3C58}
    .fil1 {fill:#794A96}
    .fil28 {fill:#585356}
    .fil3 {fill:#0050A0}
    .fil4 {fill:#3497A1}
    .fil10 {fill:#3696A0}
    .fil9 {fill:#3C4F59}
    .fil8 {fill:#7C8E97}
    .fil17 {fill:#ABC9BF}
    .fil13 {fill:#B3B3B3}
    .fil7 {fill:#BB8076}
    .fil11 {fill:#BDD6D1}
    .fil12 {fill:#C4C7C7}
    .fil16 {fill:#C9E6E8}
    .fil21 {fill:#CC5770}
    .fil6 {fill:#D4EFFF}
    .fil14 {fill:#D9D9D9}
    .fil5 {fill:#DBBCB6}
    .fil2 {fill:#FEE9D0}
    .fil15 {fill:#034540;fill-rule:nonzero}
    .fil20 {fill:#2E99A3;fill-rule:nonzero}
    .fil18 {fill:#5C5C5C;fill-rule:nonzero}
    .fil23 {fill:#B54F66;fill-rule:nonzero}
    .fil19 {fill:#BDD6D1;fill-rule:nonzero}
    .fil0 {fill:url(#id0)}
   ]]>
  </style>
  <radialGradient id="id0" gradientUnits="userSpaceOnUse" gradientTransform="matrix(1.17124 -0 -0 1.92083 -985 -3229)" cx="5750" cy="3506.1" r="3506.1" fx="5750" fy="3506.1">
   <stop offset="0" style="stop-opacity:1; stop-color:#FEFEFE"/>
   <stop offset="0.439216" style="stop-opacity:1; stop-color:#FEFEFE"/>
   <stop offset="1" style="stop-opacity:1; stop-color:#D1E2F2"/>
  </radialGradient>
 </defs>
 <g id="Layer_x0020_1">
  <metadata id="CorelCorpID_0Corel-Layer"/>
  <path class="fil0" d="M0 0l11500 0 0 7012 -11500 0 0 -7012z"/>
  <path class="fil1" d="M8060 5788l1154 0 -2095 -1015 -752 0 158 712 1795 1474 -260 -1171z"/>
  <g id="_1005933029424">
   <path class="fil2 str0" d="M8013 3039l-1137 0 0 -666 1137 0 0 666z"/>
   <path class="fil3 str0" d="M8095 2380l-1302 0 84 -162 1135 0 83 162z"/>
   <path class="fil2 str0" d="M7116 2386l326 -259 331 259 -657 0z"/>
   <path class="fil3 str0" d="M7122 2394l320 -253 325 253c4,4 11,3 14,-2 4,-4 3,-11 -2,-14l-331 -259c-3,-3 -9,-3 -12,0l-327 259c-4,3 -5,10 -1,14 3,5 10,6 14,2z"/>
   <path class="fil4 str0" d="M7086 2990l-162 0 0 -329 162 0 0 329z"/>
   <path class="fil5 str0" d="M7086 2990l0 -5 -157 0 0 -320 153 0 0 325 4 0 0 -5 0 5 5 0 0 -334 -171 0 0 338 171 0 0 -4 -5 0z"/>
   <path class="fil6 str0" d="M7005 2661l0 333 0 -333z"/>
   <path class="fil5 str0" d="M7001 2661l0 333 9 0 0 -333 -9 0z"/>
   <path class="fil4 str0" d="M7964 2990l-162 0 0 -329 162 0 0 329z"/>
   <path class="fil5 str0" d="M7964 2990l0 -5 -157 0 0 -320 153 0 0 325 4 0 0 -5 0 5 5 0 0 -334 -171 0 0 338 171 0 0 -4 -5 0z"/>
   <path class="fil6 str0" d="M7883 2661l0 333 0 -333z"/>
   <path class="fil5 str0" d="M7879 2661l0 333 9 0 0 -333 -9 0z"/>
   <path class="fil7 str0" d="M7220 3039l-18 0 0 -405 18 0 0 405z"/>
   <path class="fil7 str0" d="M7687 3039l-18 0 0 -405 18 0 0 405z"/>
   <path class="fil3 str0" d="M7723 2641l-557 0 0 -65 557 0 0 65z"/>
   <path class="fil8 str0" d="M7611 3039l-334 0 0 -372 334 0 0 372z"/>
   <path class="fil9 str0" d="M7447 3039l-5 0 0 -372 5 0 0 372z"/>
   <path class="fil9 str0" d="M7429 2866l-15 0c-3,0 -5,-2 -5,-5 0,-3 2,-5 5,-5l15 0c3,0 5,2 5,5 0,3 -2,5 -5,5z"/>
   <path class="fil9 str0" d="M7477 2866l-14 0c-3,0 -6,-2 -6,-5 0,-3 3,-5 6,-5l14 0c3,0 6,2 6,5 0,3 -3,5 -6,5z"/>
   <path class="fil4 str0" d="M7020 2544l-94 0 0 -118 94 0 0 118z"/>
   <path class="fil5 str0" d="M7020 2544l0 -5 -89 0 0 -108 85 0 0 113 4 0 0 -5 0 5 5 0 0 -123 -104 0 0 128 104 0 0 -5 -5 0z"/>
   <path class="fil4 str0" d="M7156 2544l-94 0 0 -118 94 0 0 118z"/>
   <path class="fil5 str0" d="M7156 2544l0 -5 -90 0 0 -108 85 0 0 113 5 0 0 -5 0 5 5 0 0 -123 -104 0 0 128 104 0 0 -5 -5 0z"/>
   <path class="fil4 str0" d="M7291 2544l-94 0 0 -118 94 0 0 118z"/>
   <path class="fil5 str0" d="M7291 2544l0 -5 -89 0 0 -108 84 0 0 113 5 0 0 -5 0 5 5 0 0 -123 -104 0 0 128 104 0 0 -5 -5 0z"/>
   <path class="fil4 str0" d="M7427 2544l-95 0 0 -118 95 0 0 118z"/>
   <path class="fil5 str0" d="M7427 2544l0 -5 -90 0 0 -108 85 0 0 113 5 0 0 -5 0 5 4 0 0 -123 -103 0 0 128 103 0 0 -5 -4 0z"/>
   <path class="fil4 str0" d="M7562 2544l-94 0 0 -118 94 0 0 118z"/>
   <path class="fil5 str0" d="M7562 2544l0 -5 -90 0 0 -108 85 0 0 113 5 0 0 -5 0 5 5 0 0 -123 -104 0 0 128 104 0 0 -5 -5 0z"/>
   <path class="fil4 str0" d="M7697 2544l-94 0 0 -118 94 0 0 118z"/>
   <path class="fil5 str0" d="M7697 2544l0 -5 -89 0 0 -108 85 0 0 113 4 0 0 -5 0 5 5 0 0 -123 -104 0 0 128 104 0 0 -5 -5 0z"/>
   <path class="fil4 str0" d="M7833 2544l-95 0 0 -118 95 0 0 118z"/>
   <path class="fil5 str0" d="M7833 2544l0 -5 -90 0 0 -108 85 0 0 113 5 0 0 -5 0 5 4 0 0 -123 -103 0 0 128 103 0 0 -5 -4 0z"/>
   <path class="fil4 str0" d="M7968 2544l-94 0 0 -118 94 0 0 118z"/>
   <path class="fil5 str0" d="M7968 2544l0 -5 -89 0 0 -108 84 0 0 113 5 0 0 -5 0 5 5 0 0 -123 -104 0 0 128 104 0 0 -5 -5 0z"/>
   <path class="fil10 str1" d="M7271 3119l-40 0c-3,0 -6,0 -8,-2 -2,-2 -3,-5 -3,-8 0,-2 1,-4 3,-6 2,-3 4,-4 8,-4l101 0c3,0 5,1 7,3 2,2 3,5 3,7 0,3 -1,5 -2,7 -2,2 -5,3 -8,3l-41 0 0 173c0,3 -1,6 -2,8 -2,2 -5,2 -8,2 -2,0 -5,0 -7,-2 -2,-2 -3,-4 -3,-8l0 -173zm233 173c0,3 0,6 -2,8 -2,2 -5,2 -8,2 -2,0 -5,0 -7,-2 -2,-2 -3,-4 -3,-8l0 -143 -82 148c-1,2 -3,4 -5,5l-2 1c0,1 -2,1 -3,1 -2,0 -4,-1 -7,-3 -1,-2 -2,-5 -2,-9l0 -182c0,-3 1,-6 3,-8 2,-2 4,-3 7,-3 2,0 5,1 7,3 2,2 3,4 3,8l0 143 82 -148c1,-2 3,-4 5,-5 2,-2 3,-2 5,-2 2,0 4,1 6,3 2,2 3,5 3,8l0 183zm61 -105l86 -85c2,-2 4,-3 7,-3 2,0 5,1 7,3 2,2 3,5 3,8 0,1 -1,4 -3,7l-60 60 62 110 1 5c0,3 -1,5 -3,7 -2,2 -4,3 -7,3 -4,0 -6,-1 -9,-5l-59 -106 -25 24 0 77c0,3 -1,6 -3,8 -1,2 -4,2 -7,2 -2,0 -5,0 -7,-2 -2,-2 -3,-4 -3,-8l0 -183c0,-2 1,-5 3,-7 2,-2 5,-3 7,-3 3,0 5,1 7,3 2,1 3,4 3,7l0 78z"/>
  </g>
  <g id="_1005933023952">
   <path class="fil2 str0" d="M6181 2100l-730 0 0 -666 730 0 0 666z"/>
   <path class="fil3 str0" d="M6230 1441l-829 0 54 -162 722 0 53 162z"/>
   <path class="fil2 str0" d="M5496 1447l326 -259 331 259 -657 0z"/>
   <path class="fil3 str0" d="M5503 1455l320 -253 324 253c5,4 11,3 15,-2 3,-4 2,-11 -2,-14l-331 -259c-4,-3 -9,-3 -13,0l-326 259c-5,3 -5,10 -2,14 4,5 10,6 15,2z"/>
   <path class="fil7 str0" d="M5601 2100l-19 0 0 -405 19 0 0 405z"/>
   <path class="fil7 str0" d="M6067 2100l-18 0 0 -405 18 0 0 405z"/>
   <path class="fil3 str0" d="M6104 1702l-558 0 0 -65 558 0 0 65z"/>
   <path class="fil8 str0" d="M5992 2100l-334 0 0 -372 334 0 0 372z"/>
   <path class="fil9 str0" d="M5827 2100l-4 0 0 -372 4 0 0 372z"/>
   <path class="fil9 str0" d="M5809 1927l-15 0c-3,0 -5,-2 -5,-5 0,-3 2,-5 5,-5l15 0c3,0 5,2 5,5 0,3 -2,5 -5,5z"/>
   <path class="fil9 str0" d="M5858 1927l-15 0c-3,0 -5,-2 -5,-5 0,-3 2,-5 5,-5l15 0c3,0 5,2 5,5 0,3 -2,5 -5,5z"/>
   <path class="fil4 str0" d="M5672 1605l-95 0 0 -118 95 0 0 118z"/>
   <path class="fil5 str0" d="M5672 1605l0 -5 -90 0 0 -108 85 0 0 113 5 0 0 -5 0 5 4 0 0 -123 -103 0 0 128 103 0 0 -5 -4 0z"/>
   <path class="fil4 str0" d="M5807 1605l-94 0 0 -118 94 0 0 118z"/>
   <path class="fil5 str0" d="M5807 1605l0 -5 -89 0 0 -108 84 0 0 113 5 0 0 -5 0 5 5 0 0 -123 -104 0 0 128 104 0 0 -5 -5 0z"/>
   <path class="fil4 str0" d="M5942 1605l-94 0 0 -118 94 0 0 118z"/>
   <path class="fil5 str0" d="M5942 1605l0 -5 -89 0 0 -108 85 0 0 113 4 0 0 -5 0 5 5 0 0 -123 -104 0 0 128 104 0 0 -5 -5 0z"/>
   <path class="fil4 str0" d="M6078 1605l-94 0 0 -118 94 0 0 118z"/>
   <path class="fil5 str0" d="M6078 1605l0 -5 -90 0 0 -108 85 0 0 113 5 0 0 -5 0 5 5 0 0 -123 -104 0 0 128 104 0 0 -5 -5 0z"/>
   <path class="fil10 str1" d="M5690 2264l-61 0c-11,0 -20,-4 -28,-12 -8,-8 -12,-18 -12,-29l0 -71c0,-3 1,-5 3,-8 2,-1 4,-2 7,-2 2,0 5,1 7,2 2,2 3,5 3,8l0 71c0,6 2,11 6,15 2,1 4,3 6,4 3,1 6,1 8,1l61 0 0 -91c0,-3 1,-5 3,-8 2,-1 5,-2 7,-2 3,0 5,1 7,2 2,2 3,5 3,8l0 152c0,11 -4,21 -12,29 -8,8 -17,12 -28,12l-51 0c-3,0 -6,-1 -8,-3 -1,-2 -2,-4 -2,-7 0,-3 1,-5 3,-7 1,-2 4,-3 7,-3l51 0c5,0 10,-2 14,-6 4,-4 6,-9 6,-15l0 -40zm183 71c0,3 -1,6 -3,7 -2,2 -5,3 -7,3 -3,0 -6,-1 -8,-3 -2,-1 -3,-4 -3,-7l0 -144 -82 149c-1,2 -3,3 -4,5l-3 1c0,0 -1,0 -3,1 -2,0 -4,-1 -6,-3 -2,-2 -3,-5 -3,-9l0 -183c0,-3 1,-5 3,-7 2,-2 4,-3 7,-3 3,0 5,1 7,3 2,1 3,4 3,7l0 144 82 -149c1,-1 3,-3 5,-5 2,-1 3,-2 5,-2 3,0 5,1 7,4 2,2 3,4 3,8l0 183zm60 -106l86 -84c2,-2 4,-3 7,-3 2,0 5,1 7,3 2,2 3,4 3,7 0,2 -1,4 -3,7l-60 60 62 111 2 5c0,3 -2,5 -4,7 -2,2 -4,3 -7,3 -3,0 -6,-2 -9,-5l-59 -106 -25 23 0 78c0,3 -1,6 -2,7 -2,2 -5,3 -8,3 -2,0 -5,-1 -7,-3 -2,-1 -3,-4 -3,-7l0 -183c0,-3 1,-5 3,-7 2,-2 5,-3 7,-3 3,0 5,1 7,2 2,2 3,4 3,8l0 77z"/>
  </g>
  <g id="_1005933018864">
   <path class="fil11" d="M4704 1541l0 -1032 -180 178 0 1032 180 -178z"/>
   <path class="fil12" d="M3885 692l0 -89 629 0 0 89 -629 0z"/>
   <path class="fil13" d="M4702 515l0 -97 -188 185 0 98 188 -186z"/>
   <g>
    <path class="fil14" d="M4078 425l616 0 -180 178 -616 0 180 -178z"/>
    <path id="1" class="fil15" d="M4694 436l-616 0 0 -21 616 0 7 18 -7 3zm0 -21c6,0 11,5 11,10 0,6 -5,11 -11,11l0 -21zm-188 181l181 -178 14 15 -180 178 -7 3 -8 -18zm15 15c-4,4 -11,4 -15,0 -4,-4 -4,-11 0,-15l15 15zm-623 -18l616 0 0 21 -616 0 -8 -18 8 -3zm0 21c-6,0 -11,-5 -11,-11 0,-5 5,-10 11,-10l0 21zm187 -181l-180 178 -15 -15 181 -178 7 -3 7 18zm-14 -15c4,-4 10,-4 14,0 5,4 4,11 0,15l-14 -15z"/>
   </g>
   <path class="fil16" d="M3898 1724l0 -1032 616 0 0 1032 -616 0z"/>
   <path class="fil11" d="M4078 1546l616 0 -180 178 -616 0 180 -178z"/>
   <path class="fil17" d="M4514 1546l0 178 180 -178 -180 0z"/>
   <g>
    <path class="fil18" d="M4098 532c-9,0 -17,-9 -17,-19 0,-10 8,-18 17,-18l0 37zm374 0l-374 0 0 -37 374 0 0 37zm0 -37c10,0 18,8 18,18 0,10 -8,19 -18,19l0 -37z"/>
   </g>
   <g>
    <path class="fil19" d="M4089 1546c0,6 -5,10 -11,10 -6,0 -11,-4 -11,-10l22 0zm0 -828l0 828 -22 0 0 -828 22 0zm-22 0c0,-5 5,-10 11,-10 6,0 11,5 11,10l-22 0z"/>
   </g>
   <g>
    <path class="fil20" d="M4705 518l0 1023 -22 0 0 -1023 4 -7 18 7zm-22 0c0,-6 5,-10 11,-10 6,0 11,4 11,10l-22 0zm-177 171l181 -178 15 15 -181 178 -18 -8 3 -7zm15 15c-4,4 -11,4 -15,0 -4,-5 -4,-11 0,-15l15 15zm-18 1015l0 -1023 21 0 0 1023 -3 7 -18 -7zm21 0c0,5 -4,10 -10,10 -6,0 -11,-5 -11,-10l21 0zm178 -171l-181 178 -15 -15 181 -178 18 8 -3 7zm-15 -15c4,-4 10,-4 15,0 4,4 4,11 0,15l-15 -15z"/>
   </g>
   <g>
    <path class="fil20" d="M3908 692l0 1032 -22 0 0 -1032 11 -10 11 10zm-22 0c0,-6 5,-10 11,-10 6,0 11,4 11,10l-22 0zm627 10l-616 0 0 -20 616 0 11 10 -11 10zm0 -20c6,0 11,4 11,10 0,6 -5,10 -11,10l0 -20zm-10 1042l0 -1032 21 0 0 1032 -11 10 -10 -10zm21 0c0,5 -5,10 -11,10 -6,0 -10,-5 -10,-10l21 0zm-627 -10l616 0 0 20 -616 0 -11 -10 11 -10zm0 20c-6,0 -11,-5 -11,-10 0,-6 5,-10 11,-10l0 20z"/>
   </g>
   <g>
    <path class="fil15" d="M4687 515c4,-4 11,-4 15,0 4,4 4,11 -1,15l-14 -15zm-173 169l173 -169 14 15 -172 170 -7 3 -8 -19zm15 16c-4,4 -11,4 -15,-1 -4,-4 -4,-10 0,-15l15 16zm-631 -19l624 0 0 22 -624 0 0 -22zm0 22c-6,0 -11,-5 -11,-11 0,-6 5,-11 11,-11l0 22z"/>
   </g>
   <path class="fil21" d="M4680 368l-2 9c4,1 7,1 11,3 4,1 7,6 5,10 -1,5 -6,7 -10,6 -3,-1 -5,-2 -8,-2l0 4 -39 20 -131 -17 3 -25 4 -29 3 -25 131 17 33 29z"/>
   <path class="fil22 str2" d="M4621 384c4,-6 3,-15 -3,-19 -6,-4 -15,-3 -19,3"/>
   <path class="fil22 str3" d="M4633 597c-57,-9 -97,-63 -90,-121"/>
   <path class="fil23" d="M4691 381c23,8 42,23 55,42 16,23 24,52 20,82l0 0c-3,29 -17,54 -37,72 -20,18 -46,29 -74,30 -5,0 -9,-4 -9,-8 0,-5 3,-9 8,-9 24,-1 47,-10 64,-26 17,-15 29,-36 32,-61l0 0 0 0c3,-26 -4,-50 -18,-70 -11,-17 -28,-30 -48,-37l0 0c4,1 9,-1 10,-6 2,-3 0,-7 -3,-9zm-144 57c8,-13 22,-27 44,-53 4,-5 9,-10 13,-15 3,-3 9,-4 12,-1 4,4 4,9 1,12 -6,7 -10,11 -13,15 -23,26 -36,40 -43,53 -4,7 -10,7 -14,5 -3,-3 -5,-7 0,-16zm81 -101c11,-20 20,-42 29,-67 8,-26 15,-53 20,-82 1,-5 5,-8 10,-7 5,1 8,5 7,10 -5,29 -12,58 -21,84 -8,24 -17,45 -27,64l-18 -2z"/>
   <path class="fil24 str4" d="M4541 440c-4,7 -1,15 6,18 7,3 15,0 18,-7"/>
   <path class="fil24 str4" d="M4661 584c-7,2 -12,9 -10,16 1,8 8,12 15,11"/>
   <path class="fil21" d="M3867 521l5 7c3,-2 6,-4 9,-5 4,-2 9,-1 11,3 3,5 1,10 -3,12 -3,1 -5,2 -7,4l3 3 -14 42 -105 79 -15 -19 -18 -24 -15 -20 105 -80 44 -2z"/>
   <path class="fil22 str2" d="M3836 573c-1,-7 -8,-12 -16,-11 -7,2 -12,9 -11,16"/>
   <path class="fil22 str3" d="M4037 596c17,56 -12,116 -67,135"/>
   <path class="fil23" d="M3883 522c22,-10 47,-13 69,-9 28,5 54,21 73,45l0 0c2,3 4,6 6,9 3,5 0,10 -7,10l-9 0c-2,-3 -2,-6 -4,-9l0 0 0 0c-16,-21 -38,-34 -62,-38 -20,-4 -41,-1 -60,8l0 0c4,-2 6,-7 3,-12 -1,-3 -5,-5 -9,-4zm-24 196c21,16 48,26 76,25 5,0 8,-4 8,-9 0,-4 -4,-8 -8,-8 -25,1 -48,-7 -66,-22 -39,-31 -34,-63 -37,-109 0,-6 0,-12 -1,-21 0,-4 -4,-8 -9,-7 -4,0 -8,4 -8,8 1,6 1,14 1,21 3,52 0,86 44,122zm-52 -183c-5,-21 -14,-44 -26,-68 -12,-24 -26,-49 -43,-73 -3,-3 -2,-9 2,-11 4,-3 9,-2 12,2 17,24 32,50 44,75 11,22 20,44 26,64l-15 11z"/>
   <path class="fil24 str4" d="M4008 571c1,7 8,12 16,11 7,-1 12,-8 11,-16"/>
   <path class="fil24 str4" d="M3934 748c7,1 14,-5 14,-12 1,-8 -5,-14 -13,-15"/>
   <path class="fil20 str5" d="M4063 989c0,-9 -4,-15 -12,-18 5,-4 8,-8 8,-16l0 -4c0,-13 -7,-20 -22,-20l-14 0c-4,0 -6,3 -6,6l0 72c0,3 2,6 6,6l18 0c15,0 22,-8 22,-22l0 -4zm-35 -12l13 0c8,0 11,5 11,12l0 4c0,7 -3,11 -11,11l-13 0 0 -27zm0 -10l0 -25 9 0c8,0 11,2 11,9l0 4c0,8 -3,12 -11,12l-9 0zm68 -4l-8 0 0 -28c0,-2 -2,-5 -6,-5 -4,0 -5,3 -5,5l0 74c0,3 1,6 5,6l14 0c15,0 22,-8 22,-22l0 -7c0,-13 -7,-23 -22,-23zm-8 11l8 0c8,0 11,5 11,12l0 7c0,7 -3,11 -11,11l-8 0 0 -30zm50 36l0 -75c0,-2 -2,-5 -6,-5 -4,0 -5,3 -5,5l0 75c0,3 1,6 5,6 4,0 6,-3 6,-6zm39 -46l-11 0 0 -22 24 0c3,0 5,-2 5,-5 0,-4 -2,-6 -5,-6l-30 0c-3,0 -5,2 -5,5l0 73c0,3 2,6 5,6l17 0c15,0 22,-8 22,-22l0 -7c0,-13 -7,-22 -22,-22zm11 29c0,7 -3,11 -11,11l-11 0 0 -30 11 0c8,0 11,5 11,12l0 7zm34 -40c0,-7 3,-12 11,-12l4 0c8,0 10,5 10,12l0 40c0,7 -2,12 -10,12l-4 0c-8,0 -11,-5 -11,-12l0 -40zm37 0c0,-13 -7,-23 -22,-23l-4 0c-15,0 -22,10 -22,23l0 40c0,13 7,23 22,23l4 0c15,0 22,-10 22,-23l0 -40zm27 18l0 -29 12 0c8,0 11,3 11,11l0 7c0,7 -3,11 -11,11l-12 0zm12 11c15,0 22,-9 22,-22l0 -7c0,-14 -7,-22 -22,-22l-18 0c-4,0 -5,3 -5,6l0 73c0,3 1,6 5,6 4,0 6,-3 6,-6l0 -28 12 0zm55 -19l-8 0 0 -28c0,-2 -2,-5 -6,-5 -4,0 -5,3 -5,5l0 74c0,3 1,6 5,6l14 0c15,0 22,-8 22,-22l0 -7c0,-13 -7,-23 -22,-23zm-8 11l8 0c8,0 11,5 11,12l0 7c0,7 -3,11 -11,11l-8 0 0 -30zm50 36l0 -75c0,-2 -2,-5 -6,-5 -4,0 -5,3 -5,5l0 75c0,3 1,6 5,6 4,0 6,-3 6,-6z"/>
  </g>
  <path class="fil25" d="M6179 4622l629 0 -1580 -765 -405 -18 157 377 1356 1114 -157 -708z"/>
  <path class="fil26" d="M4593 3678l293 13 -1330 -644 1176 966 -139 -335z"/>
  <path class="fil27" d="M7925 5433c0,89 -217,160 -483,160 -267,0 -483,-71 -483,-160 0,-88 216,-160 483,-160 266,0 483,72 483,160z"/>
  <path class="fil1" d="M7787 5433c0,54 -155,98 -345,98 -191,0 -345,-44 -345,-98 0,-54 154,-97 345,-97 190,0 345,43 345,97z"/>
  <path class="fil28" d="M7407 3890l69 0 0 1509c0,19 -15,34 -34,34l0 0c-19,0 -35,-15 -35,-34l0 -1509z"/>
  <path class="fil1" d="M8083 3959l-1283 0c-19,0 -35,-16 -35,-35l0 0c0,-19 16,-34 35,-34l1283 0c19,0 35,15 35,34l0 0c0,19 -16,35 -35,35z"/>
  <path class="fil27" d="M6101 4384c0,61 -150,111 -335,111 -185,0 -336,-50 -336,-111 0,-62 151,-112 336,-112 185,0 335,50 335,112z"/>
  <path class="fil25" d="M6005 4384c0,37 -107,67 -239,67 -132,0 -240,-30 -240,-67 0,-38 108,-68 240,-68 132,0 239,30 239,68z"/>
  <path class="fil28" d="M5731 2840l69 0 0 1509c0,19 -15,35 -34,35l0 0c-19,0 -35,-16 -35,-35l0 -1509z"/>
  <path class="fil25" d="M6408 2909l-1284 0c-19,0 -34,-15 -34,-34l0 0c0,-19 15,-35 34,-35l1284 0c19,0 34,16 34,35l0 0c0,19 -15,34 -34,34z"/>
  <path class="fil27" d="M4348 3455c0,25 -60,45 -134,45 -74,0 -134,-20 -134,-45 0,-24 60,-44 134,-44 74,0 134,20 134,44z"/>
  <path class="fil26" d="M4309 3455c0,15 -42,27 -95,27 -53,0 -96,-12 -96,-27 0,-15 43,-27 96,-27 53,0 95,12 95,27z"/>
  <path class="fil28" d="M4179 1912l69 0 0 1509c0,19 -15,34 -34,34l0 0c-19,0 -35,-15 -35,-34l0 -1509z"/>
  <path class="fil26" d="M4855 1981l-1283 0c-19,0 -34,-16 -34,-35l0 0c0,-19 15,-34 34,-34l1283 0c20,0 35,15 35,34l0 0c0,19 -15,35 -35,35z"/>
  <path class="fil25 str6" d="M5052 2671l-19 0c-5,0 -9,-2 -12,-4 -2,-4 -4,-7 -4,-11 0,-4 2,-7 4,-11 3,-3 7,-4 12,-4l15 0c9,0 17,-4 22,-10 6,-6 8,-13 8,-21 0,-9 -2,-16 -7,-21 -2,-3 -6,-5 -10,-7 -4,-2 -8,-2 -13,-2l-15 0c-14,0 -27,4 -37,12 -3,2 -6,3 -9,3 -3,0 -7,-1 -11,-4 -3,-3 -4,-7 -4,-11 0,-5 2,-9 6,-12 15,-13 34,-19 55,-19l15 0c19,0 34,7 45,19 11,12 16,26 16,42 0,5 -1,9 -1,13 -1,4 -2,8 -4,12 -3,7 -8,14 -14,21 5,5 10,12 14,21l3 12c1,4 2,8 2,13 0,17 -5,30 -16,42 -10,12 -26,19 -45,19l-15 0c-21,0 -39,-7 -55,-19 -4,-3 -6,-7 -6,-12 0,-3 1,-7 4,-10 3,-4 7,-6 11,-6 2,0 6,1 9,4 11,8 23,12 37,12l15 0c9,0 16,-3 22,-9 6,-6 8,-14 8,-22 0,-8 -2,-14 -6,-20 -5,-5 -11,-9 -20,-10zm239 31l0 -122 -61 0c-8,0 -16,2 -22,8 -2,3 -5,6 -6,10 -2,4 -2,8 -2,12l0 92c0,8 3,16 8,22 3,2 7,4 10,6 5,2 9,2 12,2l31 0c8,0 15,-3 21,-8 6,-6 9,-13 9,-22zm15 41c-5,5 -11,10 -20,14 -8,4 -17,6 -25,6l-31 0c-16,0 -30,-6 -42,-18 -13,-12 -19,-26 -19,-43l0 -92c0,-17 6,-31 18,-43 12,-12 26,-18 43,-18l76 0c11,0 16,5 16,15l0 137c0,6 2,13 6,19 3,6 8,10 15,13 6,3 9,7 9,14 0,4 -1,8 -4,11 -3,3 -6,5 -11,5 -2,0 -4,-1 -6,-2 -10,-4 -18,-10 -25,-18zm334 -254l-61 0c-5,0 -8,-2 -11,-5 -3,-3 -4,-6 -4,-10 0,-4 1,-7 4,-11 2,-3 6,-5 11,-5l61 0c24,0 43,8 57,24 13,14 19,32 19,52 0,12 -2,24 -7,34 -5,10 -12,19 -23,28 9,6 16,15 22,26 5,10 8,22 8,34l0 30c0,21 -7,39 -22,54 -15,15 -33,23 -54,23l-61 0c-5,0 -8,-2 -11,-5 -3,-3 -4,-7 -4,-11 0,-3 1,-6 4,-10 2,-3 6,-5 11,-5l61 0c13,0 23,-4 32,-13 9,-9 14,-20 14,-33l0 -30c0,-12 -5,-23 -13,-32 -9,-9 -20,-14 -33,-14l-31 0c-4,0 -8,-1 -11,-4 -2,-3 -4,-7 -4,-11 0,-3 1,-7 4,-10 3,-3 6,-5 11,-5l31 0c13,0 25,-5 33,-15 8,-8 11,-19 11,-32 0,-12 -3,-22 -10,-30 -8,-10 -20,-14 -34,-14zm443 91l-61 0c-9,0 -16,2 -22,8 -3,3 -5,6 -7,10 -1,4 -2,8 -2,12l0 92c0,8 3,16 9,22 3,2 6,4 10,6 4,2 8,2 12,2l30 0c9,0 16,-3 22,-8 6,-6 9,-13 9,-22l0 -122zm0 -31l0 -30c0,-9 -3,-16 -9,-22 -6,-6 -13,-9 -22,-9l-61 0c-4,0 -8,-1 -11,-4 -3,-3 -4,-7 -4,-11 0,-3 1,-7 4,-10 2,-3 6,-5 11,-5l61 0c17,0 32,6 43,18 12,12 18,26 18,43l0 183c0,16 -6,31 -18,43 -12,12 -26,18 -43,18l-30 0c-17,0 -31,-6 -43,-18 -12,-12 -18,-26 -18,-43l0 -92c0,-17 6,-31 18,-43 12,-12 26,-18 43,-18l61 0zm213 92l0 -77c0,-4 1,-7 4,-11 3,-2 7,-4 11,-4 4,0 7,2 10,4 4,3 5,6 5,11l0 183c0,5 -1,9 -4,12 -3,2 -7,4 -11,4 -4,0 -8,-2 -11,-4 -3,-3 -4,-7 -4,-12l0 -76 -92 0 0 76c0,5 -1,9 -4,12 -3,2 -7,4 -11,4 -4,0 -8,-2 -11,-4 -3,-3 -4,-7 -4,-12l0 -183c0,-4 1,-7 4,-11 3,-2 7,-4 11,-4 4,0 7,2 10,4 4,3 5,6 5,11l0 77 92 0zm213 0l0 -61 -61 0c-9,0 -16,3 -23,9 -5,6 -8,13 -8,21 0,8 3,15 8,21 5,7 13,10 23,10l61 0zm-38 30l-56 85c-1,2 -3,3 -6,5l-7 2c-3,0 -6,-2 -10,-5 -3,-3 -5,-7 -5,-11 0,-2 1,-5 2,-8l46 -69c-15,-2 -27,-9 -35,-21 -9,-12 -13,-25 -13,-39 0,-16 5,-30 15,-42 12,-12 27,-19 46,-19l76 0c10,0 15,5 15,15l0 183c0,5 -1,9 -4,12 -3,2 -6,4 -11,4 -4,0 -8,-2 -11,-4 -3,-3 -4,-7 -4,-12l0 -76 -38 0z"/>
  <path class="fil1 str7" d="M6554 3711l-19 0c-5,0 -9,-1 -12,-4 -2,-3 -4,-6 -4,-11 0,-3 2,-7 4,-10 3,-3 7,-5 12,-5l15 0c9,0 17,-3 22,-9 6,-6 8,-13 8,-21 0,-9 -2,-16 -7,-21 -2,-3 -6,-5 -10,-7 -4,-2 -8,-3 -13,-3l-15 0c-14,0 -27,4 -37,13 -3,1 -6,3 -9,3 -3,0 -7,-2 -11,-5 -3,-3 -4,-6 -4,-11 0,-5 2,-9 6,-12 15,-12 34,-18 55,-18l15 0c19,0 34,6 45,19 11,11 16,25 16,42 0,5 -1,9 -1,13 -1,4 -2,8 -4,12 -3,7 -8,14 -14,21 5,5 10,12 14,20l3 12c1,4 2,9 2,14 0,16 -5,30 -16,41 -10,13 -26,19 -45,19l-15 0c-21,0 -39,-6 -55,-18 -4,-3 -6,-7 -6,-12 0,-4 1,-7 4,-11 3,-3 7,-5 11,-5 2,0 6,1 9,4 11,8 23,12 37,12l15 0c9,0 16,-3 22,-9 6,-7 8,-14 8,-22 0,-8 -2,-15 -6,-20 -5,-5 -11,-9 -20,-11zm239 31l0 -122 -61 0c-8,0 -16,3 -22,9 -2,3 -5,6 -6,10 -2,4 -2,8 -2,12l0 91c0,9 3,16 8,22 3,3 7,5 10,7 5,1 9,2 12,2l31 0c8,0 15,-3 21,-9 6,-5 9,-13 9,-22zm15 41c-5,6 -11,11 -20,14 -8,4 -17,6 -25,6l-31 0c-16,0 -30,-6 -42,-17 -13,-12 -19,-27 -19,-44l0 -91c0,-17 6,-31 18,-43 12,-12 26,-18 43,-18l76 0c11,0 16,5 16,15l0 137c0,6 2,12 6,19 3,5 8,10 15,13 6,2 9,7 9,14 0,4 -1,8 -4,11 -3,3 -6,4 -11,4 -2,0 -4,0 -6,-1 -10,-4 -18,-10 -25,-19zm350 5c0,5 -1,9 -4,12 -3,2 -6,3 -11,3 -4,0 -7,-1 -10,-4 -3,-2 -5,-6 -5,-11l0 -237 -35 35c-3,3 -6,4 -10,4 -4,0 -8,-1 -11,-4 -3,-4 -5,-7 -5,-11 0,-4 2,-7 5,-11l61 -61c2,-2 4,-4 6,-5 2,-1 4,-2 7,-2 2,0 5,2 9,5 2,3 3,7 3,13l0 274zm214 -52c0,18 -7,34 -20,47 -13,14 -29,20 -47,20l-19 0c-18,0 -34,-6 -47,-19 -13,-13 -20,-29 -20,-48l0 -170c0,-18 7,-34 20,-47 13,-14 29,-20 47,-20l19 0c18,0 33,6 47,19 13,13 20,29 20,48l0 170zm-31 0l0 -170c0,-11 -3,-19 -10,-26 -7,-8 -16,-11 -26,-11l-19 0c-10,0 -18,3 -26,11 -7,7 -10,15 -10,26l0 170c0,10 3,19 10,26 7,7 16,11 26,11l19 0c10,0 18,-4 25,-11 8,-7 11,-15 11,-26zm229 -25l-122 0c-5,0 -9,-1 -12,-4 -2,-3 -3,-6 -3,-11 0,-3 1,-7 4,-10 2,-3 6,-5 11,-5l122 0c4,0 7,2 10,5 3,3 5,6 5,10 0,4 -2,7 -4,11 -3,3 -6,4 -11,4zm213 1l30 0c4,0 8,2 11,5 3,3 4,7 4,11 0,3 -1,6 -4,10 -2,3 -6,5 -11,5l-30 0 0 45c0,5 -2,9 -5,12 -2,2 -6,3 -11,3 -4,0 -7,-1 -10,-4 -3,-2 -5,-6 -5,-11l0 -45 -91 0c-11,0 -16,-4 -16,-13l0 -3 1 -4 61 -213c1,-3 3,-6 5,-9l3 -1c2,-1 4,-1 6,-1 5,0 8,1 11,4 3,3 5,6 5,11l-1 4 -55 194 71 0 0 -45c0,-4 2,-8 5,-12 3,-2 6,-4 10,-4 4,0 8,2 11,4 3,3 5,7 5,12l0 45zm411 -92l-62 0c-8,0 -15,3 -21,9 -3,3 -6,6 -7,10 -1,4 -2,8 -2,12l0 91c0,9 3,16 9,22 3,3 6,5 9,7 5,1 9,2 12,2l31 0c8,0 16,-3 22,-9 6,-5 9,-13 9,-22l0 -122zm0 -30l0 -31c0,-8 -3,-15 -9,-21 -6,-6 -13,-9 -22,-9l-61 0c-5,0 -8,-1 -11,-4 -3,-3 -4,-7 -4,-11 0,-4 1,-7 4,-10 2,-4 6,-5 11,-5l61 0c17,0 31,6 43,17 12,12 18,27 18,44l0 182c0,17 -6,31 -18,43 -12,12 -26,18 -43,18l-31 0c-16,0 -30,-6 -42,-17 -12,-12 -18,-27 -18,-44l0 -91c0,-17 5,-31 17,-43 12,-12 27,-18 44,-18l61 0zm213 91l0 -76c0,-4 1,-8 4,-11 3,-3 7,-4 11,-4 4,0 7,1 10,4 3,2 5,6 5,11l0 183c0,5 -2,9 -4,12 -3,2 -7,3 -11,3 -4,0 -8,-1 -11,-4 -3,-2 -4,-6 -4,-11l0 -77 -92 0 0 77c0,5 -2,9 -4,12 -3,2 -7,3 -11,3 -4,0 -8,-1 -11,-4 -3,-2 -4,-6 -4,-11l0 -183c0,-4 1,-8 4,-11 3,-3 7,-4 11,-4 4,0 7,1 10,4 3,2 5,6 5,11l0 76 92 0zm213 1l0 -62 -61 0c-9,0 -17,3 -23,9 -5,6 -8,14 -8,22 0,8 3,15 8,21 5,6 13,10 23,10l61 0zm-38 30l-56 84c-1,2 -3,4 -6,6l-7 1c-3,0 -7,-1 -10,-4 -4,-3 -5,-7 -5,-11 0,-3 1,-6 2,-9l46 -68c-15,-2 -27,-9 -35,-21 -9,-12 -13,-25 -13,-39 0,-16 5,-30 15,-42 11,-13 27,-19 46,-19l76 0c10,0 15,5 15,15l0 183c0,5 -1,9 -4,12 -3,2 -7,3 -11,3 -4,0 -8,-1 -11,-4 -3,-2 -4,-6 -4,-11l0 -76 -38 0z"/>
 </g>
</svg>
