<?xml version="1.0" encoding="UTF-8"?>
<!DOCTYPE svg PUBLIC "-//W3C//DTD SVG 1.0//EN" "http://www.w3.org/TR/2001/REC-SVG-20010904/DTD/svg10.dtd">
<!-- Creator: CorelDRAW X7 -->
<svg xmlns="http://www.w3.org/2000/svg" xml:space="preserve" width="115mm" height="70.122mm" version="1.0" style="shape-rendering:geometricPrecision; text-rendering:geometricPrecision; image-rendering:optimizeQuality; fill-rule:evenodd; clip-rule:evenodd"
viewBox="0 0 11500 7012"
 xmlns:xlink="http://www.w3.org/1999/xlink">
 <defs>
  <style type="text/css">
   <![CDATA[
    .str3 {stroke:#2B2A29;stroke-width:17.5305}
    .str2 {stroke:#9B7560;stroke-width:17.5305}
    .str0 {stroke:#024541;stroke-width:5.09085}
    .str4 {stroke:#9B7560;stroke-width:8.76524}
    .str1 {stroke:#024541;stroke-width:88.6867;stroke-linecap:round;stroke-linejoin:round}
    .fil13 {fill:none}
    .fil16 {fill:none;fill-rule:nonzero}
    .fil7 {fill:#FEFEFE}
    .fil6 {fill:#B2B09C}
    .fil11 {fill:#FDEAD2}
    .fil12 {fill:#FCD5A6}
    .fil9 {fill:#CDAB99}
    .fil2 {fill:#B8C8BA}
    .fil15 {fill:#A37C66}
    .fil8 {fill:#A2D9F7}
    .fil5 {fill:#4D897C}
    .fil10 {fill:#024541}
    .fil17 {fill:#9B7560}
    .fil4 {fill:#F9ECE4}
    .fil14 {fill:#AB8082;fill-rule:nonzero}
    .fil3 {fill:#4D897C;fill-rule:nonzero}
    .fil1 {fill:#024541;fill-rule:nonzero}
    .fil0 {fill:url(#id0)}
   ]]>
  </style>
  <radialGradient id="id0" gradientUnits="userSpaceOnUse" gradientTransform="matrix(1.17124 -0 -0 1.92083 -985 -3229)" cx="5750" cy="3506.1" r="3506.1" fx="5750" fy="3506.1">
   <stop offset="0" style="stop-opacity:1; stop-color:#FEFEFE"/>
   <stop offset="0.439216" style="stop-opacity:1; stop-color:#FEFEFE"/>
   <stop offset="1" style="stop-opacity:1; stop-color:#D1E2F2"/>
  </radialGradient>
 </defs>
 <g id="Layer_x0020_1">
  <metadata id="CorelCorpID_0Corel-Layer"/>
  <path class="fil0" d="M0 0l11500 0 0 7012 -11500 0 0 -7012z"/>
  <path class="fil1 str0" d="M3800 754l22 0 0 47c0,5 3,9 9,9 6,0 9,-4 9,-9l0 -114c0,-5 -3,-9 -9,-9 -6,0 -9,4 -9,9l0 50c0,0 -18,0 -25,0 -11,0 -17,-7 -17,-15 0,-8 0,-35 0,-35 0,-5 -2,-9 -8,-9 -6,0 -9,4 -9,9l0 33c0,19 9,34 37,34zm93 31c1,-11 11,-88 11,-88l31 0 0 104c0,5 3,9 9,9 6,0 9,-4 9,-9l0 -112c0,-5 -3,-9 -9,-9l-47 0c-6,0 -9,4 -9,9 -1,5 -10,84 -11,92 -1,4 -1,7 -3,8 -1,4 -4,5 -10,5 -4,0 -8,2 -8,8 0,6 4,8 8,8 16,0 23,-5 26,-14 2,-3 2,-6 3,-11zm154 23c5,0 8,-3 8,-8 0,-6 -3,-9 -8,-9l-50 0 0 -41 42 0c4,0 8,-2 8,-8 0,-5 -4,-8 -8,-8l-42 0 0 -37 50 0c5,0 8,-3 8,-9 0,-5 -3,-8 -8,-8l-58 0c-6,0 -9,4 -9,9l0 110c0,5 3,9 9,9l58 0zm111 -121c0,-5 -3,-9 -9,-9 -6,0 -8,4 -8,9l0 45 -48 0 0 -45c0,-5 -2,-9 -9,-9 -5,0 -8,4 -8,9l0 114c0,5 3,9 8,9 6,0 9,-4 9,-9l0 -52 48 0 0 52c0,5 2,9 8,9 6,0 9,-4 9,-9l0 -114zm135 114l0 -114c0,-5 -2,-9 -8,-9 -6,0 -9,4 -9,9l0 114c0,5 2,9 9,9 5,0 8,-4 8,-9zm-68 -71l-22 0 0 -43c0,-5 -3,-9 -9,-9 -6,0 -8,4 -8,9l0 112c0,5 2,9 8,9l31 0c24,0 35,-16 35,-36l0 -8c0,-20 -10,-34 -35,-34zm18 44c0,11 -5,17 -17,17l-23 0 0 -45 22 0c13,0 18,6 18,17l0 11zm198 -95c-5,-2 -9,2 -10,6 0,0 -9,34 -17,63 -1,0 -7,0 -13,0 -6,0 -10,-5 -11,-8 -2,-10 -14,-55 -14,-55 -1,-5 -5,-8 -10,-6 -6,1 -8,6 -7,10 0,0 11,41 14,53 3,12 9,21 31,21 2,0 6,0 6,0l0 0c-3,11 -6,19 -6,20 -3,6 -10,8 -15,8l-6 0c-5,0 -9,3 -9,9 0,6 4,8 9,8l6 0c13,0 24,-3 30,-18 3,-6 4,-8 6,-16 2,-8 23,-85 23,-85 1,-4 -1,-9 -7,-10zm57 75l23 0 0 47c0,5 3,9 9,9 6,0 9,-4 9,-9l0 -114c0,-5 -3,-9 -9,-9 -6,0 -9,4 -9,9l0 50c0,0 -18,0 -25,0 -11,0 -17,-7 -17,-15 0,-8 0,-35 0,-35 0,-5 -2,-9 -8,-9 -6,0 -9,4 -9,9l0 33c0,19 9,34 36,34zm123 18l10 32c1,4 6,7 11,5 4,-2 6,-6 5,-10l-37 -114c-1,-4 -3,-7 -9,-7l0 0c-6,0 -8,3 -9,7l-37 114c-1,4 1,8 5,10 5,2 10,-1 11,-5l10 -32 40 0zm-23 -55c1,-4 2,-6 3,-11l0 0c1,5 2,7 3,11l12 40 -30 0 12 -40zm98 76c-12,0 -17,-9 -17,-20l0 -58c0,-11 5,-20 17,-20l19 0c8,0 12,3 13,11 0,4 2,8 8,8 6,0 9,-4 9,-8 0,-19 -12,-28 -30,-28l-19 0c-23,0 -34,17 -34,37l0 58c0,20 11,37 34,37l19 0c18,0 30,-9 30,-28 0,-4 -3,-8 -9,-8 -6,0 -8,4 -8,8 -1,8 -5,11 -13,11l-19 0zm102 17c6,0 8,-4 8,-9l0 -104 27 0c4,0 8,-3 8,-9 0,-5 -4,-8 -8,-8l-70 0c-5,0 -8,3 -8,8 0,6 3,9 8,9l26 0 0 104c0,5 3,9 9,9zm140 -14l-39 -55 37 -49c4,-4 4,-9 0,-12 -4,-4 -10,-2 -13,2l-38 52 -11 0 0 -47c0,-5 -3,-9 -8,-9 -7,0 -9,4 -9,9l0 114c0,5 2,9 9,9 5,0 8,-4 8,-9l0 -51 11 0 39 56c3,4 7,6 12,2 5,-3 5,-8 2,-12zm37 -81c0,-11 5,-20 18,-20l14 0c13,0 18,9 18,20l0 58c0,11 -5,20 -18,20l-14 0c-13,0 -18,-9 -18,-20l0 -58zm67 0c0,-20 -12,-37 -35,-37l-14 0c-24,0 -35,17 -35,37l0 58c0,20 11,37 35,37l14 0c23,0 35,-17 35,-37l0 -58zm43 36l30 0c12,0 17,8 17,19l0 4c0,11 -5,17 -17,17l-30 0 0 -40zm0 -16l0 -38 22 0c12,0 17,4 17,15l0 4c0,11 -5,19 -17,19l-22 0zm64 35c0,-15 -6,-25 -20,-30 8,-5 12,-13 12,-24l0 -4c0,-21 -11,-32 -34,-32l-31 0c-6,0 -8,4 -8,9l0 110c0,5 2,9 8,9l39 0c23,0 34,-13 34,-34l0 -4zm38 -55c0,-11 5,-20 17,-20l15 0c12,0 17,9 17,20l0 58c0,11 -5,20 -17,20l-15 0c-12,0 -17,-9 -17,-20l0 -58zm67 0c0,-20 -12,-37 -35,-37l-15 0c-23,0 -34,17 -34,37l0 58c0,20 11,37 34,37l15 0c23,0 35,-17 35,-37l0 -58zm67 -46c17,0 25,-12 25,-25 0,-4 -3,-6 -6,-6 -4,0 -7,2 -7,6 -1,7 -5,12 -12,12 -7,0 -11,-5 -12,-12 0,-4 -3,-6 -7,-6 -3,0 -6,2 -6,6 0,13 8,25 25,25zm24 132c0,5 2,9 8,9 6,0 9,-4 9,-9l0 -114c0,-5 -3,-9 -9,-9 -4,0 -6,2 -9,7l-48 86 -1 0c1,-3 1,-7 1,-12l0 -72c0,-5 -2,-9 -8,-9 -6,0 -9,4 -9,9l0 114c0,5 3,9 9,9 4,0 6,-2 9,-7l48 -86 1 0c-1,3 -1,7 -1,12l0 72zm159 0c0,5 2,9 8,9 6,0 8,-4 8,-9l0 -114c0,-5 -2,-9 -8,-9 -4,0 -6,2 -9,7l-49 86 0 0c1,-3 1,-7 1,-12l0 -72c0,-5 -2,-9 -8,-9 -6,0 -9,4 -9,9l0 114c0,5 3,9 9,9 3,0 6,-2 8,-7l49 -86 0 0c0,3 0,7 0,12l0 72zm97 -89c0,11 -7,21 -20,21l-6 0c-5,0 -8,3 -8,8 0,6 3,8 8,8l13 0c13,0 18,10 18,21l0 4c0,12 -4,19 -18,19l-14 0c-7,0 -14,-3 -14,-11 -1,-4 -3,-8 -9,-8 -6,0 -8,4 -8,8 0,18 13,28 31,28l15 0c22,0 34,-16 34,-36l0 -4c0,-15 -7,-28 -21,-31 12,-6 16,-16 16,-27 0,-20 -9,-34 -34,-34l-8 0c-18,0 -31,10 -31,28 0,4 3,8 9,8 6,0 8,-4 8,-8 1,-8 8,-11 16,-11l6 0c13,0 17,5 17,17zm88 19l-27 0 0 -34 47 0c4,0 8,-3 8,-9 0,-5 -4,-8 -8,-8l-55 0c-6,0 -9,4 -9,9l0 110c0,5 3,9 9,9l35 0c23,0 35,-16 35,-36l0 -8c0,-20 -12,-33 -35,-33zm17 43c0,11 -4,17 -17,17l-27 0 0 -45 27 0c12,0 17,6 17,17l0 11zm105 27c0,5 3,9 8,9 7,0 9,-4 9,-9l0 -114c0,-5 -3,-9 -9,-9 -3,0 -6,2 -8,7l-49 86 0 0c0,-3 1,-7 1,-12l0 -72c0,-5 -3,-9 -9,-9 -6,0 -8,4 -8,9l0 114c0,5 2,9 9,9 3,0 5,-2 8,-7l49 -86 0 0c0,3 -1,7 -1,12l0 72zm62 -59l0 -46 28 0c13,0 18,7 18,18l0 9c0,11 -5,19 -18,19l-28 0zm28 16c24,0 35,-15 35,-35l0 -9c0,-21 -11,-34 -35,-34l-37 0c-6,0 -8,4 -8,9l0 112c0,5 2,9 8,9 6,0 9,-4 9,-9l0 -43 28 0zm111 14l10 32c2,4 6,7 11,5 5,-2 7,-6 5,-10l-36 -114c-2,-4 -4,-7 -9,-7l-1 0c-5,0 -7,3 -9,7l-36 114c-2,4 0,8 5,10 5,2 9,-1 11,-5l10 -32 39 0zm-22 -55c1,-4 1,-6 2,-11l1 0c0,5 1,7 2,11l13 40 -31 0 13 -40zm96 93c6,0 9,-4 9,-9l0 -104 27 0c4,0 8,-3 8,-9 0,-5 -4,-8 -8,-8l-71 0c-4,0 -8,3 -8,8 0,6 4,9 8,9l27 0 0 104c0,5 2,9 8,9zm127 -2c4,0 8,-3 8,-8 0,-6 -4,-9 -8,-9l-50 0 0 -41 41 0c4,0 8,-2 8,-8 0,-5 -4,-8 -8,-8l-41 0 0 -37 50 0c4,0 8,-3 8,-9 0,-5 -4,-8 -8,-8l-59 0c-6,0 -8,4 -8,9l0 110c0,5 2,9 8,9l59 0zm54 -23c1,-11 10,-88 10,-88l32 0 0 104c0,5 3,9 9,9 6,0 8,-4 8,-9l0 -112c0,-5 -2,-9 -8,-9l-47 0c-6,0 -9,4 -9,9 -1,5 -11,84 -12,92 0,4 -1,7 -2,8 -2,4 -5,5 -10,5 -4,0 -8,2 -8,8 0,6 4,8 8,8 16,0 22,-5 26,-14 1,-3 2,-6 3,-11zm133 -55l-29 0 0 -43c0,-5 -2,-9 -8,-9 -6,0 -9,4 -9,9l0 112c0,5 3,9 9,9l37 0c24,0 35,-16 35,-36l0 -8c0,-20 -11,-34 -35,-34zm18 44c0,11 -5,17 -18,17l-29 0 0 -45 29 0c13,0 18,6 18,17l0 11zm120 -87c0,-5 -2,-9 -8,-9 -6,0 -9,4 -9,9l0 45 -48 0 0 -45c0,-5 -2,-9 -8,-9 -6,0 -9,4 -9,9l0 114c0,5 3,9 9,9 6,0 8,-4 8,-9l0 -52 48 0 0 52c0,5 3,9 9,9 6,0 8,-4 8,-9l0 -114zm43 28c0,-11 5,-20 18,-20l15 0c12,0 17,9 17,20l0 58c0,11 -5,20 -17,20l-15 0c-13,0 -18,-9 -18,-20l0 -58zm67 0c0,-20 -11,-37 -34,-37l-15 0c-23,0 -35,17 -35,37l0 58c0,20 12,37 35,37l15 0c23,0 34,-17 34,-37l0 -58zm68 -46c16,0 25,-12 25,-25 0,-4 -3,-6 -7,-6 -4,0 -6,2 -7,6 0,7 -4,12 -11,12 -7,0 -12,-5 -12,-12 -1,-4 -3,-6 -7,-6 -4,0 -7,2 -7,6 0,13 9,25 26,25zm23 132c0,5 3,9 9,9 6,0 8,-4 8,-9l0 -114c0,-5 -2,-9 -9,-9 -3,0 -5,2 -8,7l-49 86 0 0c0,-3 1,-7 1,-12l0 -72c0,-5 -3,-9 -8,-9 -7,0 -9,4 -9,9l0 114c0,5 3,9 9,9 3,0 6,-2 8,-7l49 -86 0 0c0,3 -1,7 -1,12l0 72zm175 -5l-39 -55 37 -49c3,-4 3,-9 0,-12 -5,-4 -10,-2 -13,2l-38 52 -11 0 0 -47c0,-5 -3,-9 -9,-9 -6,0 -8,4 -8,9l0 114c0,5 2,9 8,9 6,0 9,-4 9,-9l0 -51 11 0 39 56c2,4 7,6 12,2 5,-3 5,-8 2,-12zm37 -81c0,-11 5,-20 17,-20l15 0c13,0 17,9 17,20l0 58c0,11 -4,20 -17,20l-15 0c-12,0 -17,-9 -17,-20l0 -58zm67 0c0,-20 -12,-37 -35,-37l-15 0c-23,0 -34,17 -34,37l0 58c0,20 11,37 34,37l15 0c23,0 35,-17 35,-37l0 -58zm75 36c-1,-4 -2,-7 -4,-10l-29 -56c-2,-6 -4,-7 -8,-7 -6,0 -9,4 -9,9l0 114c0,5 3,9 9,9 6,0 8,-4 8,-9l0 -70c0,-5 0,-9 -1,-13l1 0 26 51c1,3 3,4 7,4 5,0 6,-1 8,-4l26 -51 0 0c0,4 -1,8 -1,13l0 70c0,5 3,9 9,9 6,0 8,-4 8,-9l0 -114c0,-5 -2,-9 -8,-9 -4,0 -6,1 -9,7l-28 56c-2,3 -4,6 -5,10zm143 50c0,5 2,9 8,9 6,0 9,-4 9,-9l0 -114c0,-5 -3,-9 -9,-9 -3,0 -6,2 -8,7l-49 86 0 0c0,-3 0,-7 0,-12l0 -72c0,-5 -2,-9 -8,-9 -6,0 -8,4 -8,9l0 114c0,5 2,9 8,9 4,0 6,-2 9,-7l49 -86 0 0c-1,3 -1,7 -1,12l0 72zm77 -8c-12,0 -17,-9 -17,-20l0 -58c0,-11 5,-20 17,-20l19 0c8,0 12,3 13,11 0,4 2,8 8,8 6,0 9,-4 9,-8 0,-19 -11,-28 -30,-28l-19 0c-23,0 -34,17 -34,37l0 58c0,20 11,37 34,37l19 0c19,0 30,-9 30,-28 0,-4 -3,-8 -9,-8 -6,0 -8,4 -8,8 -1,8 -5,11 -13,11l-19 0zm103 0c-12,0 -17,-9 -17,-20l0 -58c0,-11 5,-20 17,-20l19 0c8,0 12,3 13,11 0,4 2,8 8,8 6,0 9,-4 9,-8 0,-19 -12,-28 -30,-28l-19 0c-23,0 -34,17 -34,37l0 58c0,20 11,37 34,37l19 0c18,0 30,-9 30,-28 0,-4 -3,-8 -9,-8 -6,0 -8,4 -8,8 -1,8 -5,11 -13,11l-19 0zm136 8c0,5 2,9 8,9 6,0 8,-4 8,-9l0 -114c0,-5 -2,-9 -8,-9 -4,0 -6,2 -9,7l-49 86 0 0c1,-3 1,-7 1,-12l0 -72c0,-5 -2,-9 -8,-9 -6,0 -9,4 -9,9l0 114c0,5 3,9 9,9 3,0 6,-2 8,-7l49 -86 0 0c0,3 0,7 0,12l0 72zm109 0c0,5 3,9 9,9 6,0 8,-4 8,-9l0 -114c0,-5 -2,-9 -9,-9 -3,0 -5,2 -8,7l-49 86 0 0c0,-3 1,-7 1,-12l0 -72c0,-5 -3,-9 -8,-9 -7,0 -9,4 -9,9l0 114c0,5 3,9 9,9 3,0 6,-2 8,-7l49 -86 0 0c0,3 -1,7 -1,12l0 72z"/>
  <g>
   <path class="fil2" d="M6671 2301l0 -300 0 -45c0,-90 -74,-164 -165,-164l-15 0 -23 0 0 94c-11,-9 -25,-14 -40,-14l0 0c-15,0 -29,5 -40,14l0 -94 -1 0c0,47 -38,85 -85,85l0 0c-47,0 -85,-38 -85,-85l0 94c-11,-9 -25,-14 -40,-14l0 0c-15,0 -29,5 -40,14l0 -94 -39 0c-90,0 -165,74 -165,164l0 345 738 0z"/>
   <path id="1" class="fil3" d="M6696 2001l0 300 -51 0 0 -300 0 0 51 0zm-51 0c0,-13 12,-23 26,-23 14,0 25,10 25,23l-51 0zm51 -45l0 45 -51 0 0 -45 0 0 51 0zm-51 0c0,-12 12,-23 26,-23 14,0 25,11 25,23l-51 0zm-139 -142l0 -45 0 0 10 0 10 1 9 1 10 2 9 2 9 2 9 4 9 3 8 4 9 4 8 5 7 5 8 5 7 6 7 6 6 6 7 6 6 7 5 7 5 8 5 7 5 8 4 8 4 8 3 9 3 8 3 9 2 9 1 9 1 9 1 10 0 9 -51 0 0 -7 -1 -7 -1 -8 -1 -7 -2 -7 -1 -6 -3 -7 -2 -7 -3 -6 -3 -6 -4 -6 -4 -6 -3 -5 -5 -6 -4 -5 -5 -5 -5 -5 -5 -4 -5 -4 -6 -4 -5 -4 -6 -3 -6 -3 -6 -3 -6 -2 -7 -2 -6 -2 -7 -2 -6 -1 -7 -1 -7 0 -7 -1 0 0zm0 0c-14,0 -26,-10 -26,-22 0,-13 12,-23 26,-23l0 45zm-15 -45l15 0 0 45 -15 0 0 0 0 -45zm0 45c-14,0 -26,-10 -26,-22 0,-13 12,-23 26,-23l0 45zm-23 -45l23 0 0 45 -23 0 -26 -22 26 -23zm0 45c-14,0 -26,-10 -26,-22 0,-13 12,-23 26,-23l0 45zm-26 72l0 -94 51 0 0 94 -42 17 -9 -17zm51 0c0,12 -11,22 -25,22 -14,0 -26,-10 -26,-22l51 0zm-65 9l0 -45 0 0 2 0 2 0 2 0 2 0 2 0 2 0 2 1 2 0 1 0 2 1 2 0 2 0 2 1 2 0 2 1 1 1 2 0 2 1 2 1 1 0 2 1 2 1 1 1 2 0 2 1 1 1 2 1 1 1 2 1 1 1 2 1 1 1 -33 35 0 0 -1 -1 -1 0 0 -1 -1 0 -1 -1 0 0 -1 0 -1 -1 -1 0 0 0 -1 -1 -1 0 0 0 -1 0 -1 -1 -1 0 0 0 -1 0 -1 -1 -1 0 0 0 -1 0 -1 0 -1 0 0 0 -1 -1 -1 0 -1 0 -1 0 0 0 -1 0 0 0zm0 0c-14,0 -26,-10 -26,-23 0,-12 12,-22 26,-22l0 45zm0 -23l0 0 0 0 0 0 0 23 0 -23zm0 23c-14,0 -26,-10 -26,-23 0,-12 12,-22 26,-22l0 45zm-66 -9l52 0 -42 -18 1 -1 1 -1 2 -1 1 -1 2 -1 2 -1 1 -1 2 -1 1 0 2 -1 2 -1 1 -1 2 0 2 -1 2 -1 1 0 2 -1 2 -1 2 0 2 -1 2 0 1 0 2 -1 2 0 2 0 2 -1 2 0 2 0 2 0 2 0 2 0 2 0 0 45 -1 0 -1 0 0 0 -1 0 -1 0 -1 1 -1 0 0 0 -1 0 -1 0 -1 0 0 0 -1 1 -1 0 -1 0 0 0 -1 1 -1 0 -1 0 0 0 -1 1 -1 0 0 0 -1 1 -1 0 0 0 -1 1 -1 0 -1 1 0 0 -1 1 -1 0 -42 -17zm42 17c-10,8 -27,7 -36,-3 -9,-9 -7,-24 4,-32l32 35zm10 -111l0 94 -52 0 0 -94 26 -23 26 23zm-52 0c0,-13 12,-23 26,-23 14,0 26,10 26,23l-52 0zm25 -23l1 0 0 45 -1 0 -25 -22 25 -23zm0 45c-14,0 -25,-10 -25,-22 0,-13 11,-23 25,-23l0 45zm-85 86l0 -46 0 0 3 0 3 0 3 -1 2 0 3 -1 3 0 3 -1 2 -1 3 -2 2 -1 3 -1 2 -2 3 -2 2 -1 2 -2 2 -2 2 -2 2 -3 2 -2 2 -3 2 -2 1 -3 1 -3 2 -2 1 -3 1 -3 1 -3 0 -3 1 -4 0 -3 1 -3 0 -3 51 0 0 5 0 5 -1 6 -1 5 -1 5 -2 5 -1 5 -2 5 -2 5 -3 4 -2 5 -3 4 -3 4 -3 4 -4 4 -3 4 -4 4 -4 3 -4 3 -5 4 -4 2 -5 3 -5 3 -5 2 -5 2 -5 2 -5 1 -6 1 -6 1 -5 1 -6 1 -6 0 0 0zm0 0c-14,0 -26,-10 -26,-23 0,-13 12,-23 26,-23l0 46zm0 -23l0 0 0 0 0 0 0 23 0 -23zm0 23c-14,0 -26,-10 -26,-23 0,-13 12,-23 26,-23l0 46zm-60 -108l-51 0 51 0 0 3 1 3 0 3 1 4 0 3 1 3 1 3 1 3 2 2 1 3 2 3 1 2 2 3 2 2 2 3 2 2 2 2 2 2 3 1 2 2 2 2 3 1 2 1 3 2 3 1 2 1 3 0 3 1 3 0 2 1 3 0 3 0 0 46 -6 0 -6 -1 -5 -1 -6 -1 -5 -1 -6 -1 -5 -2 -5 -2 -5 -2 -5 -3 -5 -3 -4 -2 -4 -4 -5 -3 -4 -3 -3 -4 -4 -4 -3 -4 -4 -4 -3 -4 -2 -4 -3 -5 -2 -4 -3 -5 -1 -5 -2 -5 -2 -5 -1 -5 -1 -5 0 -6 -1 -5 0 -5 51 0zm-51 0c0,-13 12,-23 26,-23 14,0 25,10 25,23l-51 0zm0 94l0 -94 51 0 0 94 -42 17 -9 -17zm51 0c0,12 -11,22 -25,22 -14,0 -26,-10 -26,-22l51 0zm-65 9l0 -45 0 0 2 0 2 0 2 0 2 0 2 0 2 0 2 1 2 0 1 0 2 1 2 0 2 0 2 1 2 0 2 1 1 1 2 0 2 1 2 1 1 0 2 1 2 1 1 1 2 0 2 1 1 1 2 1 1 1 2 1 1 1 2 1 1 1 -33 35 0 0 -1 -1 -1 0 0 -1 -1 0 -1 -1 0 0 -1 0 -1 -1 -1 0 0 0 -1 -1 -1 0 0 0 -1 0 -1 -1 -1 0 0 0 -1 0 -1 -1 -1 0 0 0 -1 0 -1 0 -1 0 0 0 -1 -1 -1 0 -1 0 -1 0 0 0 -1 0 0 0zm0 0c-14,0 -26,-10 -26,-23 0,-12 12,-22 26,-22l0 45zm0 -23l0 0 0 0 0 0 0 23 0 -23zm0 23c-14,0 -26,-10 -26,-23 0,-12 12,-22 26,-22l0 45zm-66 -9l52 0 -43 -18 2 -1 1 -1 2 -1 1 -1 2 -1 2 -1 1 -1 2 -1 1 0 2 -1 2 -1 1 -1 2 0 2 -1 2 -1 1 0 2 -1 2 -1 2 0 2 -1 1 0 2 0 2 -1 2 0 2 0 2 -1 2 0 2 0 2 0 2 0 2 0 2 0 0 45 -1 0 -1 0 -1 0 0 0 -1 0 -1 1 -1 0 0 0 -1 0 -1 0 -1 0 0 0 -1 1 -1 0 -1 0 0 0 -1 1 -1 0 -1 0 0 0 -1 1 -1 0 0 0 -1 1 -1 0 -1 0 0 1 -1 0 -1 1 0 0 -1 1 -1 0 -42 -17zm42 17c-10,8 -27,7 -36,-3 -9,-9 -7,-24 3,-32l33 35zm10 -111l0 94 -52 0 0 -94 26 -23 26 23zm-52 0c0,-13 12,-23 26,-23 14,0 26,10 26,23l-52 0zm-13 -23l39 0 0 45 -39 0 0 0 0 -45zm0 45c-14,0 -25,-10 -25,-22 0,-13 11,-23 25,-23l0 45zm-139 142l-51 0 0 0 0 -9 1 -10 1 -9 2 -9 2 -9 2 -9 3 -8 3 -9 4 -8 4 -8 5 -8 5 -7 5 -8 6 -7 5 -7 7 -6 6 -6 7 -6 7 -6 8 -5 7 -5 8 -5 9 -4 8 -4 9 -3 9 -4 9 -2 9 -2 10 -2 9 -1 10 -1 10 0 0 45 -7 1 -7 0 -6 1 -7 1 -7 2 -6 2 -6 2 -7 2 -6 3 -6 3 -6 3 -5 4 -6 4 -5 4 -5 4 -5 5 -5 5 -4 5 -4 6 -4 5 -4 6 -3 6 -4 6 -3 6 -2 7 -2 7 -2 6 -2 7 -1 7 -1 8 -1 7 0 7 0 0zm0 0c0,13 -11,23 -26,23 -14,0 -25,-10 -25,-23l51 0zm-51 345l0 -345 51 0 0 345 -26 23 -25 -23zm51 0c0,13 -11,23 -26,23 -14,0 -25,-10 -25,-23l51 0zm712 23l-738 0 0 -46 738 0 25 23 -25 23zm0 -46c14,0 25,11 25,23 0,13 -11,23 -25,23l0 -46z"/>
  </g>
  <g>
   <path class="fil3" d="M6065 2029c0,-13 12,-23 26,-23 14,0 25,10 25,23l-51 0zm0 272l0 -272 51 0 0 272 -51 0zm51 0c0,13 -11,23 -25,23 -14,0 -26,-10 -26,-23l51 0zm372 -272c0,-13 11,-23 26,-23 14,0 25,10 25,23l-51 0zm0 272l0 -272 51 0 0 272 -51 0zm51 0c0,13 -11,23 -25,23 -15,0 -26,-10 -26,-23l51 0z"/>
  </g>
  <g>
   <path class="fil4" d="M6217 1666l0 126c0,47 38,85 85,85l0 0c47,0 85,-38 85,-85l0 -126c-27,11 -56,18 -85,19 -29,-1 -58,-8 -85,-19z"/>
   <path id="1" class="fil3" d="M6191 1792l0 -126 51 0 0 126 0 0 -51 0zm51 0c0,12 -11,22 -25,22 -14,0 -26,-10 -26,-22l51 0zm60 62l0 46 0 0 -6 0 -6 -1 -5 -1 -6 -1 -5 -1 -6 -1 -5 -2 -5 -2 -5 -2 -5 -3 -5 -3 -4 -2 -4 -4 -5 -3 -4 -3 -3 -4 -4 -4 -3 -4 -4 -4 -3 -4 -2 -4 -3 -5 -2 -4 -3 -5 -1 -5 -2 -5 -2 -5 -1 -5 -1 -5 0 -6 -1 -5 0 -5 51 0 0 3 1 3 0 3 1 4 0 3 1 3 1 3 1 3 2 2 1 3 2 3 1 2 2 3 2 2 2 3 2 2 2 2 2 2 3 1 2 2 2 2 3 1 2 1 3 2 3 1 2 1 3 0 3 1 3 0 2 1 3 0 3 0 0 0zm0 0c14,0 26,10 26,23 0,13 -12,23 -26,23l0 -46zm0 23l0 0 0 0 0 0 0 -23 0 23zm0 -23c14,0 26,10 26,23 0,13 -12,23 -26,23l0 -46zm60 -62l51 0 0 0 0 5 0 5 -1 6 -1 5 -1 5 -2 5 -1 5 -2 5 -2 5 -3 4 -2 5 -3 4 -3 4 -3 4 -4 4 -3 4 -4 4 -4 3 -4 3 -5 4 -4 2 -5 3 -5 3 -5 2 -5 2 -5 2 -5 1 -6 1 -6 1 -5 1 -6 1 -6 0 0 -46 3 0 3 0 3 -1 2 0 3 -1 3 0 3 -1 2 -1 3 -2 2 -1 3 -1 2 -2 3 -2 2 -1 2 -2 2 -2 2 -2 2 -3 2 -2 2 -3 2 -2 1 -3 1 -3 2 -2 1 -3 1 -3 1 -3 0 -3 1 -4 0 -3 1 -3 0 -3 0 0zm0 0c0,-13 11,-23 25,-23 15,0 26,10 26,23l-51 0zm51 -126l0 126 -51 0 0 -126 14 -21 37 21zm-51 0c0,-13 11,-23 25,-23 15,0 26,10 26,23l-51 0zm-60 42l0 -46 0 0 2 0 2 0 3 0 2 0 2 -1 3 0 2 0 2 0 3 -1 2 0 3 0 2 -1 2 0 3 -1 2 0 2 -1 3 0 2 -1 2 0 3 -1 2 -1 2 0 3 -1 2 -1 2 -1 3 0 2 -1 2 -1 2 -1 3 -1 2 -1 2 -1 23 41 -3 1 -3 2 -3 1 -3 1 -2 1 -3 1 -3 1 -3 1 -3 1 -3 1 -3 1 -3 1 -3 0 -3 1 -3 1 -3 1 -3 0 -3 1 -3 1 -3 0 -3 1 -3 0 -3 1 -3 0 -4 0 -3 1 -3 0 -3 0 -3 0 -3 1 -3 0 -4 0 0 0zm0 0c-14,0 -25,-10 -26,-23 0,-12 12,-23 26,-23l0 46zm-60 -42l-51 0 37 -21 2 1 2 1 3 1 2 1 2 1 3 1 2 0 2 1 3 1 2 1 2 0 3 1 2 1 2 0 3 1 2 0 2 1 3 0 2 1 2 0 3 1 2 0 2 0 3 1 2 0 2 0 3 0 2 1 2 0 3 0 2 0 2 0 0 46 -3 0 -4 0 -3 -1 -3 0 -3 0 -3 0 -3 -1 -3 0 -4 0 -3 -1 -3 0 -3 -1 -3 0 -3 -1 -3 -1 -3 0 -3 -1 -3 -1 -3 -1 -3 0 -3 -1 -3 -1 -3 -1 -3 -1 -3 -1 -2 -1 -3 -1 -3 -1 -3 -1 -3 -1 -3 -2 -2 -1 36 -20zm-36 20c-13,-5 -19,-19 -12,-30 6,-12 21,-16 34,-11l-22 41z"/>
  </g>
  <g>
   <path class="fil3" d="M6198 1902c-10,-9 -10,-23 0,-32 10,-9 26,-9 36,-1l-36 33zm104 -7l0 46 0 0 -4 0 -3 0 -4 0 -4 -1 -3 0 -4 0 -4 -1 -3 -1 -4 0 -3 -1 -4 -1 -3 -1 -4 -1 -3 -1 -4 -1 -3 -2 -3 -1 -3 -1 -4 -2 -3 -1 -3 -2 -3 -1 -3 -2 -3 -2 -3 -2 -3 -2 -3 -2 -2 -2 -3 -2 -3 -2 -2 -2 -3 -2 36 -33 2 2 2 1 2 2 1 1 2 2 2 1 2 1 2 1 2 2 2 1 2 1 2 1 2 1 2 1 3 1 2 1 2 0 2 1 2 1 2 1 3 0 2 1 2 0 2 1 3 0 2 0 2 1 3 0 2 0 2 0 3 0 2 0 0 0zm0 0c14,0 26,11 26,23 0,13 -12,23 -26,23l0 -46zm0 46l0 0 0 -46 0 0 0 46zm0 -46c14,0 26,11 26,23 0,13 -12,23 -26,23l0 -46z"/>
  </g>
  <g>
   <path class="fil3" d="M6370 1869c10,-8 26,-8 36,1 10,9 10,23 0,32l-36 -33zm-68 72l0 -46 0 0 2 0 3 0 2 0 3 0 2 0 2 -1 3 0 2 0 2 -1 2 0 3 -1 2 0 2 -1 2 -1 2 -1 2 0 3 -1 2 -1 2 -1 2 -1 2 -1 2 -1 2 -1 2 -2 2 -1 2 -1 2 -1 2 -2 2 -1 1 -2 2 -1 2 -2 36 33 -3 2 -2 2 -3 2 -3 2 -2 2 -3 2 -3 2 -3 2 -3 2 -3 2 -3 1 -3 2 -3 1 -4 2 -3 1 -3 1 -3 2 -4 1 -3 1 -4 1 -3 1 -3 1 -4 1 -4 0 -3 1 -4 1 -3 0 -4 0 -4 1 -3 0 -4 0 -4 0 0 0zm0 0c-14,0 -26,-10 -26,-23 0,-12 12,-23 26,-23l0 46zm0 -46l0 0 0 46 0 0 0 -46zm0 46c-14,0 -26,-10 -26,-23 0,-12 12,-23 26,-23l0 46z"/>
  </g>
  <g>
   <path class="fil3" d="M6362 1886l0 -128 52 0 0 128 -10 17 -42 -17zm52 0c0,12 -12,22 -26,22 -14,0 -26,-10 -26,-22l52 0zm14 -36l0 45 0 0 -1 0 -1 0 0 0 -1 0 -1 0 -1 1 -1 0 0 0 -1 0 -1 0 -1 0 0 0 -1 1 -1 0 -1 0 0 0 -1 1 -1 0 -1 0 0 0 -1 1 -1 0 0 0 -1 1 -1 0 0 0 -1 1 -1 0 -1 1 0 0 -1 1 -1 0 -32 -35 1 -1 1 -1 2 -1 1 -1 2 -1 2 -1 1 -1 2 -1 1 0 2 -1 2 -1 1 -1 2 0 2 -1 2 -1 1 0 2 -1 2 -1 2 0 2 -1 2 0 1 0 2 -1 2 0 2 0 2 -1 2 0 2 0 2 0 2 0 2 0 2 0 0 0zm0 0c14,0 26,10 26,22 0,13 -12,23 -26,23l0 -45zm0 22l0 0 0 0 0 0 0 -22 0 22zm0 -22c14,0 26,10 26,22 0,13 -12,23 -26,23l0 -45zm14 36l51 0 -42 17 0 0 -1 -1 -1 0 0 -1 -1 0 -1 -1 0 0 -1 0 -1 -1 -1 0 0 0 -1 -1 -1 0 0 0 -1 0 -1 -1 -1 0 0 0 -1 0 -1 -1 -1 0 0 0 -1 0 -1 0 -1 0 0 0 -1 -1 -1 0 -1 0 -1 0 0 0 -1 0 0 -45 2 0 2 0 2 0 2 0 2 0 2 0 2 1 2 0 1 0 2 1 2 0 2 0 2 1 2 0 2 1 1 1 2 0 2 1 2 1 1 0 2 1 2 1 1 1 2 0 2 1 1 1 2 1 1 1 2 1 1 1 2 1 1 1 -42 18zm42 -18c11,8 13,23 3,32 -9,10 -25,11 -36,3l33 -35zm9 -110l0 128 -51 0 0 -128 42 -18 9 18zm-51 0c0,-13 12,-23 26,-23 14,0 25,10 25,23l-51 0zm-14 9l0 -45 0 0 2 0 2 0 2 0 2 0 2 0 2 0 2 1 2 0 1 0 2 1 2 0 2 1 2 0 2 1 2 0 1 1 2 0 2 1 2 1 1 0 2 1 2 1 1 1 2 1 2 0 1 1 2 1 1 1 2 1 1 1 2 1 1 1 -33 35 0 0 -1 -1 -1 0 0 0 -1 -1 -1 0 0 -1 -1 0 -1 0 -1 -1 0 0 -1 0 -1 -1 0 0 -1 0 -1 -1 -1 0 0 0 -1 0 -1 0 -1 -1 0 0 -1 0 -1 0 -1 0 0 0 -1 0 -1 0 -1 0 -1 -1 0 0 -1 0 0 0zm0 0c-14,0 -26,-10 -26,-22 0,-13 12,-23 26,-23l0 45zm0 -22l0 0 0 0 0 0 0 22 0 -22zm0 22c-14,0 -26,-10 -26,-22 0,-13 12,-23 26,-23l0 45zm-14 -9l-52 0 10 -18 1 -1 1 -1 2 -1 1 -1 2 -1 2 -1 1 -1 2 0 1 -1 2 -1 2 -1 1 -1 2 0 2 -1 2 -1 1 0 2 -1 2 0 2 -1 2 0 2 -1 1 0 2 -1 2 0 2 0 2 -1 2 0 2 0 2 0 2 0 2 0 2 0 0 45 -1 0 -1 0 0 1 -1 0 -1 0 -1 0 -1 0 0 0 -1 0 -1 0 -1 0 0 1 -1 0 -1 0 -1 0 0 0 -1 1 -1 0 -1 0 0 1 -1 0 -1 0 0 1 -1 0 -1 0 0 1 -1 0 -1 1 -1 0 0 0 -1 1 -1 0 10 -17zm-10 17c-10,8 -27,7 -36,-3 -9,-9 -7,-24 4,-32l32 35zm-293 111l0 -128 52 0 0 128 -10 17 -42 -17zm52 0c0,12 -12,22 -26,22 -14,0 -26,-10 -26,-22l52 0zm14 -36l0 45 0 0 -1 0 -1 0 -1 0 0 0 -1 0 -1 1 -1 0 0 0 -1 0 -1 0 -1 0 0 0 -1 1 -1 0 -1 0 0 0 -1 1 -1 0 -1 0 0 0 -1 1 -1 0 0 0 -1 1 -1 0 -1 0 0 1 -1 0 -1 1 0 0 -1 1 -1 0 -33 -35 2 -1 1 -1 2 -1 1 -1 2 -1 2 -1 1 -1 2 -1 1 0 2 -1 2 -1 1 -1 2 0 2 -1 2 -1 1 0 2 -1 2 -1 2 0 2 -1 1 0 2 0 2 -1 2 0 2 0 2 -1 2 0 2 0 2 0 2 0 2 0 2 0 0 0zm0 0c14,0 26,10 26,22 0,13 -12,23 -26,23l0 -45zm0 22l0 0 0 0 0 0 0 -22 0 22zm0 -22c14,0 26,10 26,22 0,13 -12,23 -26,23l0 -45zm14 36l51 0 -42 17 0 0 -1 -1 -1 0 0 -1 -1 0 -1 -1 0 0 -1 0 -1 -1 -1 0 0 0 -1 -1 -1 0 0 0 -1 0 -1 -1 -1 0 0 0 -1 0 -1 -1 -1 0 0 0 -1 0 -1 0 -1 0 0 0 -1 -1 -1 0 -1 0 -1 0 0 0 -1 0 0 -45 2 0 2 0 2 0 2 0 2 0 2 0 2 1 2 0 1 0 2 1 2 0 2 0 2 1 2 0 2 1 1 1 2 0 2 1 2 1 1 0 2 1 2 1 1 1 2 0 2 1 1 1 2 1 1 1 2 1 1 1 2 1 1 1 -42 18zm42 -18c11,8 12,23 3,32 -9,10 -25,11 -36,3l33 -35zm9 -110l0 128 -51 0 0 -128 42 -18 9 18zm-51 0c0,-13 12,-23 26,-23 14,0 25,10 25,23l-51 0zm-14 9l0 -45 0 0 2 0 2 0 2 0 2 0 2 0 2 0 2 1 2 0 1 0 2 1 2 0 2 1 2 0 2 1 2 0 1 1 2 0 2 1 2 1 1 0 2 1 2 1 1 1 2 1 2 0 1 1 2 1 1 1 2 1 1 1 2 1 1 1 -33 35 0 0 -1 -1 -1 0 0 0 -1 -1 -1 0 0 -1 -1 0 -1 0 -1 -1 0 0 -1 0 -1 -1 0 0 -1 0 -1 -1 -1 0 0 0 -1 0 -1 0 -1 -1 0 0 -1 0 -1 0 -1 0 0 0 -1 0 -1 0 -1 0 -1 -1 0 0 -1 0 0 0zm0 0c-14,0 -26,-10 -26,-22 0,-13 12,-23 26,-23l0 45zm0 -22l0 0 0 0 0 0 0 22 0 -22zm0 22c-14,0 -26,-10 -26,-22 0,-13 12,-23 26,-23l0 45zm-14 -9l-52 0 9 -18 2 -1 1 -1 2 -1 1 -1 2 -1 2 -1 1 -1 2 0 1 -1 2 -1 2 -1 1 -1 2 0 2 -1 2 -1 1 0 2 -1 2 0 2 -1 2 0 2 -1 1 0 2 -1 2 0 2 0 2 -1 2 0 2 0 2 0 2 0 2 0 2 0 0 45 -1 0 -1 0 -1 1 0 0 -1 0 -1 0 -1 0 0 0 -1 0 -1 0 -1 0 0 1 -1 0 -1 0 -1 0 0 0 -1 1 -1 0 -1 0 0 1 -1 0 -1 0 0 1 -1 0 -1 0 -1 1 0 0 -1 1 -1 0 0 0 -1 1 -1 0 10 -17zm-10 17c-10,8 -27,7 -36,-3 -9,-9 -7,-24 3,-32l33 35z"/>
  </g>
  <g>
   <path class="fil3" d="M6561 1332l-51 0 26 -23 4 0 4 1 4 0 4 1 4 1 4 1 4 1 3 1 4 2 3 2 4 1 3 2 3 2 3 3 3 2 3 3 3 2 2 3 2 3 3 3 2 3 2 3 1 3 2 3 1 3 2 4 1 3 1 4 0 4 1 3 0 4 0 4 -51 0 0 -2 0 -1 -1 -2 0 -1 0 -2 -1 -1 0 -2 -1 -1 0 -1 -1 -1 -1 -2 -1 -1 0 -1 -1 -1 -1 -1 -1 -1 -1 -1 -1 -1 -2 -1 -1 0 -1 -1 -1 -1 -1 0 -2 -1 -1 0 -1 -1 -1 0 -2 -1 -1 0 -2 0 -1 0 -1 0 25 -23zm-25 23c-15,0 -26,-10 -26,-23 0,-13 11,-23 26,-23l0 46zm-26 29l0 -52 51 0 0 52 0 0 -51 0zm51 0c0,12 -11,23 -25,23 -15,0 -26,-11 -26,-23l51 0zm-51 51l0 -51 51 0 0 51 -25 23 -26 -23zm51 0c0,13 -11,23 -25,23 -15,0 -26,-10 -26,-23l51 0zm4 -51l51 0 0 0 0 3 0 4 -1 4 0 3 -1 4 -1 4 -2 3 -1 3 -2 4 -1 3 -2 3 -2 3 -3 3 -2 3 -2 2 -3 3 -3 2 -3 3 -3 2 -3 2 -3 2 -4 2 -3 2 -4 1 -3 2 -4 1 -4 1 -4 1 -4 0 -4 1 -4 0 -4 0 0 -45 1 -1 1 0 2 0 1 0 2 0 1 -1 1 0 1 -1 2 0 1 -1 1 0 1 -1 1 -1 2 -1 1 -1 1 0 1 -1 1 -2 1 -1 0 -1 1 -1 1 -1 1 -1 0 -2 1 -1 0 -1 1 -2 0 -1 0 -2 1 -1 0 -2 0 -1 0 0zm0 0c0,-13 11,-23 25,-23 15,0 26,10 26,23l-51 0z"/>
  </g>
  <g>
   <path class="fil4" d="M6535 1489l0 -157c-25,-42 -53,-71 -83,-84 0,76 -182,85 -272,-59 -18,70 -53,120 -111,143l0 157c0,80 113,194 233,196 120,-2 233,-116 233,-196z"/>
   <path id="1" class="fil3" d="M6561 1332l0 157 -51 0 0 -157 48 -11 3 11zm-51 0c0,-12 11,-23 25,-23 15,0 26,11 26,23l-51 0zm-32 -84l-51 0 37 -20 3 1 4 2 3 2 3 2 4 2 3 2 3 2 3 2 4 2 3 3 3 2 3 3 3 3 3 2 3 3 3 3 3 3 2 3 3 3 3 4 3 3 3 3 2 4 3 3 3 4 2 4 3 3 3 4 2 4 3 4 3 4 2 4 -45 22 -2 -4 -3 -3 -2 -4 -2 -3 -3 -4 -2 -3 -2 -3 -2 -3 -3 -3 -2 -3 -2 -3 -3 -3 -2 -2 -2 -3 -3 -2 -2 -3 -2 -2 -2 -2 -3 -2 -2 -2 -2 -2 -2 -2 -3 -2 -2 -1 -2 -2 -2 -1 -2 -2 -3 -1 -2 -1 -2 -1 -2 -1 -2 -1 37 -21zm-37 21c-13,-6 -18,-20 -12,-31 7,-11 22,-16 35,-10l-23 41zm-236 -75l-50 -10 48 -6 7 12 9 11 9 10 9 10 9 8 10 8 9 7 10 7 10 5 10 5 10 5 10 4 10 3 10 2 9 2 9 1 9 1 8 0 9 0 7 -1 7 -1 6 -2 6 -2 5 -2 4 -2 4 -3 2 -2 3 -3 1 -3 2 -3 0 -3 1 -4 51 0 -1 10 -2 10 -4 9 -5 9 -6 7 -8 7 -8 6 -9 5 -10 4 -10 4 -10 2 -11 2 -12 1 -11 1 -12 0 -12 -1 -13 -2 -12 -3 -13 -3 -12 -4 -13 -5 -13 -5 -13 -7 -12 -7 -12 -8 -12 -9 -12 -9 -11 -11 -11 -11 -11 -13 -10 -13 -9 -14 47 -6zm-47 6c-7,-11 -3,-25 10,-31 12,-6 28,-2 35,9l-45 22zm-64 132l-51 0 15 -21 5 -2 4 -2 5 -2 4 -2 4 -2 4 -3 4 -2 3 -3 4 -3 4 -3 3 -3 3 -4 4 -3 3 -4 3 -4 3 -4 3 -4 3 -4 3 -4 2 -5 3 -4 3 -5 2 -5 2 -5 3 -5 2 -6 2 -5 2 -6 2 -5 2 -6 1 -6 2 -6 50 10 -2 7 -2 7 -2 6 -2 7 -2 6 -3 7 -2 6 -3 6 -3 6 -3 6 -3 6 -3 5 -3 6 -4 5 -3 6 -4 5 -4 5 -4 5 -4 5 -5 4 -4 5 -5 4 -5 4 -5 4 -5 4 -6 4 -5 3 -6 4 -6 3 -6 3 -6 3 -6 2 15 -21zm-15 21c-13,5 -28,0 -34,-12 -6,-11 0,-25 13,-30l21 42zm-36 136l0 -157 51 0 0 157 0 0 -51 0zm51 0c0,13 -11,23 -25,23 -15,0 -26,-10 -26,-23l51 0zm208 173l0 46 0 0 -13 -1 -13 -1 -13 -2 -12 -3 -12 -3 -12 -3 -12 -5 -12 -5 -11 -5 -11 -6 -10 -6 -11 -6 -10 -7 -10 -7 -9 -8 -9 -7 -9 -8 -8 -8 -8 -9 -7 -8 -7 -9 -6 -9 -6 -9 -6 -9 -5 -9 -4 -10 -4 -9 -3 -9 -3 -10 -1 -9 -2 -9 0 -10 51 0 1 6 0 7 2 6 1 7 3 7 3 7 3 7 4 7 4 8 5 7 6 7 5 8 7 7 6 7 7 7 7 6 8 7 8 6 8 6 9 6 8 5 9 6 9 4 9 5 10 3 9 4 9 3 10 2 10 2 9 2 10 1 9 0 0 0zm0 0c15,0 26,11 26,23 -1,13 -12,23 -26,23l0 -46zm208 -173l51 0 0 0 0 10 -1 9 -2 9 -3 10 -3 9 -4 9 -4 10 -5 9 -6 9 -6 9 -6 9 -7 9 -7 8 -8 9 -8 8 -9 8 -9 7 -9 8 -10 7 -10 7 -10 6 -11 6 -11 6 -11 5 -12 5 -12 5 -12 3 -12 3 -12 3 -13 2 -13 1 -13 1 0 -46 9 0 10 -1 9 -2 10 -2 10 -2 9 -3 10 -4 9 -3 9 -5 9 -4 9 -6 9 -5 8 -6 8 -6 8 -6 8 -7 7 -6 7 -7 6 -7 7 -7 5 -8 6 -7 5 -7 4 -8 4 -7 3 -7 3 -7 3 -7 1 -7 2 -6 1 -7 0 -6 0 0zm0 0c0,-12 11,-22 25,-22 15,0 26,10 26,22l-51 0z"/>
  </g>
  <g>
   <path class="fil3" d="M6094 1332l-51 0 26 23 -2 0 -1 0 -2 0 -1 0 -1 1 -2 0 -1 1 -1 0 -1 1 -2 0 -1 1 -1 1 -1 0 -1 1 -1 1 -2 1 -1 1 0 1 -1 1 -1 1 -1 1 -1 2 0 1 -1 1 -1 1 0 2 -1 1 0 2 0 1 0 2 -1 1 0 2 -51 0 0 -4 1 -4 0 -3 1 -4 1 -4 1 -3 1 -4 1 -3 2 -3 2 -3 1 -3 3 -3 2 -3 2 -3 3 -3 2 -2 3 -3 3 -2 3 -3 3 -2 3 -2 4 -1 3 -2 4 -2 4 -1 3 -1 4 -1 4 -1 4 -1 4 0 4 -1 5 0 25 23zm-25 -23c14,0 25,10 25,23 0,13 -11,23 -25,23l0 -46zm-26 75l0 -52 51 0 0 52 0 0 -51 0zm51 0c0,12 -11,23 -25,23 -14,0 -26,-11 -26,-23l51 0zm-51 51l0 -51 51 0 0 51 -25 23 -26 -23zm51 0c0,13 -11,23 -25,23 -14,0 -26,-10 -26,-23l51 0zm-106 -51l51 0 0 0 0 1 1 2 0 1 0 2 0 1 1 2 0 1 1 1 1 2 0 1 1 1 1 1 1 1 1 1 0 2 1 1 2 0 1 1 1 1 1 1 1 1 1 0 2 1 1 0 1 1 1 0 2 1 1 0 1 0 2 0 1 0 2 1 0 45 -5 0 -4 0 -4 -1 -4 0 -4 -1 -4 -1 -3 -1 -4 -2 -4 -1 -3 -2 -4 -2 -3 -2 -3 -2 -3 -2 -3 -3 -3 -2 -2 -3 -3 -2 -2 -3 -2 -3 -3 -3 -1 -3 -2 -3 -2 -4 -1 -3 -1 -3 -1 -4 -1 -4 -1 -3 0 -4 -1 -4 0 -3 0 0zm0 0c0,-13 12,-23 26,-23 14,0 25,10 25,23l-51 0z"/>
  </g>
  <g>
   <path class="fil5" d="M6422 1376c-11,0 -19,8 -19,19 0,10 8,18 19,18 10,0 18,-8 18,-18 0,-11 -8,-19 -18,-19zm-239 0c-11,0 -19,8 -19,19 0,10 8,18 19,18 10,0 18,-8 18,-18 0,-11 -8,-19 -18,-19z"/>
   <path id="1" class="fil3" d="M6421 1395l-35 0 0 0 0 -2 0 -2 0 -1 0 -2 1 -1 0 -2 1 -2 0 -1 1 -2 0 -1 1 -1 1 -2 1 -1 1 -1 1 -2 1 -1 2 -1 1 -1 1 -1 2 -1 1 -1 2 -1 1 -1 2 -1 2 0 1 -1 2 0 2 -1 2 0 2 0 2 0 2 -1 0 32 0 0 0 0 0 0 0 0 0 0 0 0 0 0 0 0 0 0 0 0 0 0 0 0 0 0 0 0 0 0 0 0 0 0 -1 0 0 0 0 0 0 0 0 1 0 0 0 0 0 0 0 0 0 0 0 1 0 0 0 0 0 0 0 1 0 0zm0 0c0,8 -8,15 -18,15 -10,0 -17,-7 -17,-15l35 0zm1 3l0 31 0 0 -2 0 -2 0 -2 -1 -2 0 -2 0 -2 -1 -1 0 -2 -1 -2 -1 -1 -1 -2 -1 -1 -1 -2 -1 -1 -1 -1 -1 -2 -1 -1 -1 -1 -1 -1 -2 -1 -1 -1 -1 -1 -2 0 -1 -1 -2 0 -1 -1 -2 0 -1 -1 -2 0 -1 0 -2 0 -2 0 -1 35 0 0 0 0 0 0 0 0 1 0 0 0 0 0 0 0 0 0 1 0 0 0 0 0 0 0 0 0 0 1 0 0 0 0 0 0 1 0 0 0 0 0 0 0 0 0 0 0 0 0 0 0 0 0 0 0 0 0 0 0 0 0 0 0 0 0 0zm0 0c9,0 17,7 17,15 0,9 -8,16 -17,16l0 -31zm1 -3l35 0 0 0 0 1 0 2 -1 2 0 1 0 2 -1 1 0 2 -1 1 -1 2 0 1 -1 2 -1 1 -1 1 -1 2 -1 1 -1 1 -1 1 -2 1 -1 1 -1 1 -2 1 -1 1 -2 1 -2 1 -1 1 -2 0 -2 1 -2 0 -2 0 -2 1 -1 0 -2 0 0 -31 0 0 0 0 -1 0 0 0 0 0 0 0 0 0 0 0 0 0 0 0 0 0 0 0 0 0 1 0 0 -1 0 0 0 0 0 0 0 0 0 0 0 0 0 0 0 0 0 -1 0 0 0 0 1 0 0 0 0 -1 0 0 0 0 0 0 0 0zm0 0c0,-9 8,-16 17,-16 10,0 18,7 18,16l-35 0zm-1 -3l0 -32 0 0 2 1 1 0 2 0 2 0 2 1 2 0 2 1 1 0 2 1 2 1 1 1 2 1 1 1 1 1 2 1 1 1 1 1 1 2 1 1 1 1 1 2 1 1 0 1 1 2 1 1 0 2 1 2 0 1 0 2 1 1 0 2 0 2 -35 0 0 -1 0 0 0 0 0 0 0 -1 -1 0 0 0 0 0 0 0 0 0 0 -1 0 0 0 0 0 0 0 0 0 0 0 0 0 0 -1 0 0 0 0 0 0 0 0 0 0 0 0 0 0 0 0 0 0 0 0 0 1 0 0 0 0 0 0 0zm0 0c-10,0 -18,-7 -18,-16 0,-9 8,-16 18,-16l0 32zm-240 3l-36 0 0 0 1 -2 0 -2 0 -1 0 -2 0 -1 1 -2 0 -2 1 -1 1 -2 0 -1 1 -1 1 -2 1 -1 1 -1 1 -2 1 -1 2 -1 1 -1 1 -1 2 -1 1 -1 2 -1 1 -1 2 -1 2 0 1 -1 2 0 2 -1 2 0 2 0 2 0 2 -1 0 32 0 0 0 0 0 0 0 0 0 0 0 0 0 0 0 0 0 0 0 0 0 0 0 0 0 0 0 0 0 0 0 0 -1 0 0 0 0 0 0 0 0 0 0 1 0 0 0 0 0 0 0 0 0 0 0 1 0 0 0 0 0 0 0 1 0 0zm0 0c0,8 -8,15 -18,15 -10,0 -18,-7 -18,-15l36 0zm1 3l0 31 0 0 -2 0 -2 0 -2 -1 -2 0 -2 0 -2 -1 -2 0 -1 -1 -2 -1 -1 -1 -2 -1 -1 -1 -2 -1 -1 -1 -1 -1 -2 -1 -1 -1 -1 -1 -1 -2 -1 -1 -1 -1 -1 -2 0 -1 -1 -2 -1 -1 0 -2 -1 -1 0 -2 0 -1 0 -2 0 -2 -1 -1 36 0 0 0 0 0 0 0 0 1 0 0 0 0 0 0 0 0 0 1 0 0 0 0 0 0 0 0 0 0 0 0 1 0 0 0 0 1 0 0 0 0 0 0 0 0 0 0 0 0 0 0 0 0 0 0 0 0 0 0 0 0 0 0 0 0 0 0zm0 0c9,0 17,7 17,15 0,9 -8,16 -17,16l0 -31zm1 -3l35 0 0 0 0 1 0 2 -1 2 0 1 0 2 -1 1 0 2 -1 1 -1 2 0 1 -1 2 -1 1 -1 1 -1 2 -1 1 -1 1 -1 1 -2 1 -1 1 -1 1 -2 1 -1 1 -2 1 -2 1 -1 1 -2 0 -2 1 -2 0 -2 0 -2 1 -1 0 -2 0 0 -31 0 0 -1 0 0 0 0 0 0 0 0 0 0 0 0 0 0 0 0 0 0 0 0 0 0 0 0 0 1 0 0 -1 0 0 0 0 0 0 0 0 0 0 0 0 0 0 0 -1 0 0 0 0 0 0 1 0 0 -1 0 0 0 0 0 0 0 0zm0 0c0,-9 7,-16 17,-16 10,0 18,7 18,16l-35 0zm-1 -3l0 -32 0 0 2 1 1 0 2 0 2 0 2 1 2 0 2 1 1 0 2 1 2 1 1 1 2 1 1 1 1 1 2 1 1 1 1 1 1 2 1 1 1 1 1 2 1 1 0 1 1 2 1 1 0 2 1 2 0 1 0 2 1 1 0 2 0 2 -35 0 0 -1 0 0 0 0 0 0 -1 -1 0 0 0 0 0 0 0 0 0 0 0 -1 0 0 0 0 0 0 0 0 0 0 0 0 -1 0 0 0 0 0 0 0 0 0 0 0 0 0 0 0 0 0 0 0 0 0 0 0 0 0 1 0 0 0 0 0zm0 0c-10,0 -18,-7 -18,-16 0,-9 8,-16 18,-16l0 32z"/>
  </g>
  <g>
   <path class="fil3" d="M3333 2324c-15,0 -28,-10 -28,-23 0,-12 13,-23 28,-23l0 46zm4776 0l-4776 0 0 -46 4776 0 0 46zm0 -46c15,0 28,11 28,23 0,13 -13,23 -28,23l0 -46z"/>
  </g>
  <g>
   <path class="fil3" d="M6478 1248c0,13 -11,23 -26,23 -14,0 -25,-10 -25,-23l51 0zm0 -75l0 75 -51 0 0 -75 51 0zm-51 0c0,-12 11,-22 25,-22 15,0 26,10 26,22l-51 0z"/>
  </g>
  <g>
   <path class="fil6" d="M6536 1435c10,0 19,-2 28,-7l0 37c0,19 -13,35 -30,41 1,-6 2,-11 2,-17l0 -54zm-211 -429c-47,0 -91,14 -128,38 -96,-7 -156,91 -156,183l0 112c8,-4 17,-7 28,-7 58,-23 93,-74 111,-143 90,144 272,135 272,59 30,13 58,42 84,84 9,0 17,2 25,6l0 -96c0,-130 -106,-236 -236,-236zm-256 429c-11,0 -20,-2 -28,-7l0 37c-1,19 12,35 29,41 -1,-6 -1,-11 -1,-17l0 -54z"/>
   <path id="1" class="fil3" d="M6589 1428l-51 0 39 19 -1 1 -1 1 -1 0 -1 1 -1 0 -2 1 -1 0 -1 1 -1 0 -2 1 -1 0 -1 1 -1 0 -2 1 -1 0 -1 0 -2 1 -1 0 -1 0 -2 1 -1 0 -1 0 -2 0 -1 0 -2 1 -1 0 -1 0 -2 0 -1 0 -2 0 -1 0 -1 0 0 -46 0 0 1 0 0 0 0 0 1 0 0 0 1 0 0 0 1 0 0 0 1 0 0 0 1 0 0 0 1 0 0 0 1 -1 0 0 0 0 1 0 0 0 1 0 0 0 1 -1 0 0 0 0 1 0 0 0 1 -1 0 0 1 0 0 0 39 19zm-39 -19c12,-7 28,-4 35,7 8,11 4,25 -8,31l-27 -38zm-12 56l0 -37 51 0 0 37 -51 0 0 0zm51 0c0,13 -11,23 -25,23 -15,0 -26,-10 -26,-23l51 0zm-80 38l50 7 -34 -25 1 0 0 -1 1 0 0 0 1 -1 1 0 0 0 1 -1 0 0 1 -1 0 0 1 -1 0 0 1 -1 0 0 1 -1 0 -1 1 0 0 -1 1 -1 0 0 0 -1 1 -1 0 -1 0 -1 0 0 1 -1 0 -1 0 -1 0 -1 0 -1 0 -1 51 0 0 2 0 3 0 3 0 2 -1 3 0 2 -1 3 -1 2 -1 3 -1 2 -1 2 -1 3 -1 2 -1 2 -2 2 -1 2 -2 2 -1 2 -2 2 -2 2 -2 2 -2 1 -2 2 -2 2 -2 1 -2 2 -3 1 -2 1 -2 1 -3 2 -2 1 -3 1 -34 -25zm34 25c-13,4 -28,-2 -33,-14 -5,-12 2,-25 15,-29l18 43zm-33 -39l51 0 0 0 0 1 0 1 0 0 0 1 0 1 0 0 0 1 0 0 0 1 0 1 0 0 0 1 0 1 0 0 0 1 0 1 0 0 0 1 0 0 -1 1 0 1 0 0 0 1 0 1 0 0 0 1 0 1 0 0 0 1 0 0 -1 1 0 1 -50 -7 0 -1 0 0 0 -1 0 0 0 -1 0 0 0 0 0 -1 0 0 0 -1 0 0 0 -1 0 0 0 0 1 -1 0 0 0 -1 0 0 0 0 0 -1 0 0 0 -1 0 0 0 0 0 -1 0 0 0 -1 0 0 0 0 0 -1 0 0 0 -1 0 0zm0 0c0,-12 11,-22 26,-22 14,0 25,10 25,22l-51 0zm51 -54l0 54 -51 0 0 -54 26 -23 25 23zm-51 0c0,-12 11,-23 26,-23 14,0 25,11 25,23l-51 0zm-316 -368l5 -45 -18 4 4 -2 4 -3 4 -2 4 -3 4 -2 4 -2 5 -2 4 -2 4 -2 4 -2 5 -2 4 -1 4 -2 5 -1 4 -2 5 -1 4 -2 5 -1 4 -1 5 -1 5 -1 5 -1 4 -1 5 -1 5 0 5 -1 5 0 4 -1 5 0 5 0 5 -1 5 0 0 46 -4 0 -4 0 -3 0 -4 1 -4 0 -4 0 -4 1 -3 0 -4 1 -4 1 -4 0 -3 1 -4 1 -4 1 -3 1 -4 1 -3 1 -4 1 -3 1 -4 2 -3 1 -4 1 -3 2 -3 1 -4 2 -3 2 -3 1 -4 2 -3 2 -3 2 -3 2 -3 2 -18 4zm18 -4c-12,7 -28,5 -36,-5 -8,-10 -6,-25 5,-32l31 37zm-146 164l-51 0 0 0 0 -9 1 -10 1 -9 1 -10 2 -9 2 -9 2 -9 3 -10 3 -9 3 -8 4 -9 4 -9 5 -8 5 -8 5 -8 6 -8 6 -7 6 -7 6 -7 8 -6 7 -6 8 -5 8 -5 8 -5 9 -4 9 -4 10 -3 10 -2 10 -2 11 -1 10 0 11 1 -5 45 -7 0 -6 0 -7 1 -6 1 -6 1 -6 2 -6 2 -5 3 -6 3 -5 3 -6 4 -5 4 -5 5 -5 5 -5 5 -4 5 -4 6 -4 6 -4 7 -4 6 -3 7 -3 7 -3 8 -3 7 -2 8 -2 7 -2 8 -1 8 -1 8 -1 8 -1 8 0 7 0 0zm0 0c0,13 -11,23 -25,23 -15,0 -26,-10 -26,-23l51 0zm-51 112l0 -112 51 0 0 112 -12 20 -39 -20zm51 0c0,13 -11,23 -25,23 -15,0 -26,-10 -26,-23l51 0zm-8 -28l21 42 -10 2 -1 0 0 0 -1 0 0 0 -1 0 0 0 -1 0 0 0 -1 0 0 0 -1 0 0 0 -1 1 0 0 0 0 -1 0 0 0 -1 0 0 0 -1 0 0 1 -1 0 0 0 0 0 -1 0 0 0 -1 1 0 0 -1 0 0 0 0 0 -1 1 -27 -39 1 -1 1 0 1 -1 1 0 2 -1 1 0 1 -1 1 -1 2 0 1 0 1 -1 1 0 2 -1 1 0 1 -1 2 0 1 0 1 -1 2 0 1 0 1 0 2 -1 1 0 1 0 2 0 1 0 2 0 1 -1 1 0 2 0 1 0 2 0 -11 2zm11 -2c14,0 25,10 25,23 0,13 -11,23 -25,23l0 -46zm134 -131l-45 22 47 -6 -2 7 -2 7 -2 6 -2 7 -2 6 -3 7 -2 6 -3 6 -3 6 -3 6 -3 6 -3 5 -3 6 -4 5 -3 6 -4 5 -4 5 -4 5 -4 5 -5 4 -4 5 -5 4 -5 4 -5 4 -5 4 -6 4 -5 3 -6 4 -6 3 -6 3 -6 2 -6 3 -21 -42 5 -2 4 -2 5 -2 4 -2 4 -2 4 -3 4 -3 3 -2 4 -3 4 -3 3 -4 3 -3 4 -3 3 -4 3 -4 3 -4 3 -4 3 -4 3 -4 2 -5 3 -4 3 -5 2 -5 2 -5 3 -5 2 -6 2 -5 2 -6 2 -5 2 -6 1 -6 2 -6 48 -6zm-48 6c3,-13 17,-20 31,-17 14,3 22,15 19,27l-50 -10zm309 44l-23 41 37 -21 -1 10 -2 10 -4 9 -5 9 -6 7 -8 7 -8 6 -9 5 -10 4 -10 4 -10 2 -11 2 -11 1 -12 1 -12 0 -12 -1 -13 -2 -12 -3 -13 -3 -12 -4 -13 -5 -13 -5 -12 -7 -13 -7 -12 -8 -12 -9 -12 -9 -11 -11 -11 -11 -11 -13 -10 -13 -9 -14 45 -22 8 12 8 11 9 10 9 9 9 9 10 8 9 7 10 7 10 5 10 5 10 5 10 3 10 4 10 2 9 2 9 1 9 1 9 0 8 0 7 -1 7 -1 6 -2 6 -2 5 -2 4 -2 4 -3 3 -2 2 -3 1 -3 2 -3 0 -3 1 -4 37 -20zm-37 20c0,-13 11,-23 25,-23 15,0 26,11 26,23l-51 0zm109 61l0 46 -23 -12 -2 -4 -3 -3 -2 -4 -2 -3 -3 -4 -2 -3 -2 -3 -2 -3 -3 -3 -2 -3 -2 -3 -3 -3 -2 -3 -2 -2 -3 -3 -2 -2 -2 -2 -2 -2 -3 -2 -2 -2 -2 -2 -2 -2 -3 -2 -2 -1 -2 -2 -2 -1 -2 -2 -2 -1 -3 -1 -2 -1 -2 -1 -2 -1 23 -41 3 1 4 2 3 2 3 2 4 2 3 2 3 2 3 2 4 2 3 3 3 2 3 3 3 3 3 2 3 3 3 3 3 3 3 3 2 3 3 3 3 4 3 3 2 4 3 3 3 4 3 3 2 4 3 4 2 4 3 4 3 4 2 4 -22 -12zm22 12c7,11 2,25 -10,31 -13,6 -28,2 -35,-9l45 -22zm-23 17l51 0 -38 20 0 0 0 0 -1 -1 0 0 -1 0 0 0 0 0 -1 0 0 -1 0 0 -1 0 0 0 -1 0 0 0 0 0 -1 0 0 0 -1 0 0 -1 0 0 -1 0 0 0 -1 0 0 0 0 0 -1 0 0 0 -1 0 0 0 -1 0 0 0 0 0 0 -46 1 0 1 0 1 0 2 0 1 0 1 1 1 0 1 0 2 0 1 0 1 0 1 0 2 1 1 0 1 0 1 0 1 1 1 0 2 0 1 1 1 0 1 0 1 1 1 0 1 1 2 0 1 0 1 1 1 0 1 1 1 0 1 1 -38 20zm38 -20c12,6 17,20 10,31 -7,11 -22,15 -35,9l25 -40zm13 -76l0 96 -51 0 0 -96 0 0 51 0zm-51 0c0,-13 11,-23 26,-23 14,0 25,10 25,23l-51 0zm-210 -213l0 -46 0 0 14 1 13 1 13 1 13 3 13 3 13 3 12 4 12 5 11 5 12 6 11 6 10 7 11 8 9 7 10 8 9 9 8 9 9 9 7 10 7 10 7 11 6 10 6 12 5 11 5 12 4 12 3 12 3 12 2 13 2 13 1 13 0 13 -51 0 0 -11 -1 -11 -2 -11 -1 -11 -3 -10 -3 -10 -3 -10 -4 -10 -4 -9 -5 -10 -5 -9 -6 -8 -5 -9 -7 -8 -6 -7 -7 -8 -8 -7 -7 -6 -8 -7 -9 -5 -8 -6 -9 -5 -9 -4 -9 -5 -10 -3 -9 -4 -10 -2 -10 -3 -10 -2 -11 -1 -10 -1 -11 0 0 0zm0 0c-14,0 -25,-10 -25,-23 0,-12 11,-23 25,-23l0 46zm-259 399l-51 0 39 -19 1 0 0 0 0 0 1 1 0 0 1 0 0 0 1 0 0 1 0 0 1 0 0 0 1 0 0 0 1 0 0 1 1 0 0 0 0 0 1 0 0 0 1 0 0 0 1 0 0 0 1 0 0 0 1 0 0 0 1 0 0 0 1 0 0 46 -2 0 -1 0 -2 0 -1 0 -1 0 -2 0 -1 0 -2 -1 -1 0 -1 0 -2 0 -1 0 -1 -1 -2 0 -1 0 -1 -1 -2 0 -1 0 -1 -1 -2 0 -1 -1 -1 0 -1 -1 -2 0 -1 -1 -1 0 -1 -1 -2 0 -1 -1 -1 0 -1 -1 -1 -1 39 -19zm-39 19c-12,-6 -16,-20 -8,-31 7,-11 23,-14 35,-7l-27 38zm-12 18l0 -37 51 0 0 37 0 0 -51 0zm51 0c0,13 -11,23 -25,23 -15,0 -26,-10 -26,-23l51 0zm-21 45l51 -7 -35 25 -2 -1 -3 -1 -2 -2 -3 -1 -2 -1 -3 -1 -2 -2 -2 -1 -2 -2 -2 -2 -2 -1 -2 -2 -2 -2 -1 -2 -2 -2 -2 -2 -1 -2 -1 -2 -2 -2 -1 -2 -1 -3 -1 -2 -1 -2 -1 -3 -1 -2 0 -3 -1 -2 0 -3 -1 -2 0 -3 0 -3 0 -2 51 0 0 1 0 1 0 1 0 1 1 1 0 1 0 0 0 1 1 1 0 1 0 1 1 0 0 1 0 1 1 0 0 1 1 1 0 0 1 1 0 0 1 1 0 0 1 1 1 0 0 1 1 0 0 0 1 1 0 0 1 0 1 1 0 0 -34 25zm34 -25c13,4 20,17 15,29 -5,12 -19,18 -33,14l18 -43zm-36 4l51 0 0 0 0 1 0 0 0 1 0 0 0 0 0 1 0 0 0 1 0 0 0 0 0 1 0 0 1 1 0 0 0 0 0 1 0 0 0 1 0 0 0 0 0 1 0 0 0 1 0 0 0 1 0 0 0 0 0 1 0 0 0 1 0 0 1 1 -51 7 0 -1 0 -1 0 0 -1 -1 0 0 0 -1 0 -1 0 0 0 -1 0 -1 0 0 0 -1 0 0 0 -1 0 -1 -1 0 0 -1 0 -1 0 0 0 -1 0 -1 0 0 0 -1 0 -1 0 0 0 -1 0 0 0 -1 0 -1 0 0 0 -1 0 -1 0 0zm0 0c0,-12 11,-22 26,-22 14,0 25,10 25,22l-51 0zm51 -54l0 54 -51 0 0 -54 26 -23 25 23zm-51 0c0,-12 11,-23 26,-23 14,0 25,11 25,23l-51 0z"/>
  </g>
  <g>
   <path class="fil7" d="M6344 2008l145 0 0 84 -145 0 0 -84z"/>
   <path id="1" class="fil3" d="M6489 2031l-145 0 0 -46 145 0 26 23 -26 23zm0 -46c14,0 26,10 26,23 0,13 -12,23 -26,23l0 -46zm-25 107l0 -84 51 0 0 84 -26 22 -25 -22zm51 0c0,12 -12,22 -26,22 -14,0 -25,-10 -25,-22l51 0zm-171 -23l145 0 0 45 -145 0 -26 -22 26 -23zm0 45c-14,0 -26,-10 -26,-22 0,-13 12,-23 26,-23l0 45zm26 -106l0 84 -52 0 0 -84 26 -23 26 23zm-52 0c0,-13 12,-23 26,-23 14,0 26,10 26,23l-52 0z"/>
  </g>
  <g>
   <path class="fil8" d="M5523 2301l0 -335 0 -67c0,-76 -62,-138 -138,-138l-41 0 -128 0c0,50 -41,92 -92,92l0 0c-50,0 -92,-42 -92,-92l-164 0c-75,0 -137,62 -137,138l0 402 792 0z"/>
   <path id="1" class="fil3" d="M5549 1966l0 335 -52 0 0 -335 0 0 52 0zm-52 0c0,-13 12,-23 26,-23 14,0 26,10 26,23l-52 0zm52 -67l0 67 -52 0 0 -67 0 0 52 0zm-52 0c0,-13 12,-23 26,-23 14,0 26,10 26,23l-52 0zm-112 -115l0 -46 0 0 9 0 8 1 9 1 8 1 8 2 8 3 7 2 8 3 7 3 7 4 7 4 7 4 6 5 6 5 6 5 6 5 5 6 5 6 5 6 5 6 4 6 4 7 3 7 3 7 3 7 3 8 2 7 2 8 1 8 1 7 1 8 0 9 -52 0 0 -6 0 -6 -1 -6 -1 -6 -1 -6 -2 -5 -2 -6 -2 -5 -2 -5 -3 -5 -2 -5 -3 -5 -4 -4 -3 -4 -4 -5 -3 -4 -4 -3 -5 -4 -4 -3 -4 -3 -5 -3 -4 -3 -5 -2 -5 -3 -5 -2 -5 -1 -5 -2 -6 -1 -5 -1 -5 -1 -6 0 -6 0 0 0zm0 0c-14,0 -25,-11 -25,-23 0,-13 11,-23 25,-23l0 46zm-41 -46l41 0 0 46 -41 0 0 0 0 -46zm0 46c-14,0 -26,-11 -26,-23 0,-13 12,-23 26,-23l0 46zm-128 -46l128 0 0 46 -128 0 -26 -23 26 -23zm0 46c-14,0 -26,-11 -26,-23 0,-13 12,-23 26,-23l0 46zm-92 91l0 -45 0 0 3 0 4 -1 3 0 3 0 3 -1 3 -1 3 -1 3 -1 3 -2 2 -1 3 -2 3 -1 2 -2 3 -2 2 -2 3 -3 2 -2 2 -2 2 -3 2 -3 2 -3 2 -2 1 -3 2 -4 1 -3 1 -3 1 -3 1 -4 0 -3 1 -4 0 -3 0 -4 52 0 -1 6 0 5 -1 6 -1 5 -1 6 -1 5 -2 5 -2 6 -3 5 -2 4 -3 5 -3 5 -3 4 -3 5 -4 4 -4 4 -4 4 -4 3 -5 4 -4 3 -5 3 -5 3 -5 3 -5 2 -6 2 -5 2 -6 2 -6 1 -6 1 -6 1 -6 0 -6 0 0 0zm0 0c-14,0 -26,-10 -26,-22 0,-13 12,-23 26,-23l0 45zm0 -22l0 0 0 0 0 0 0 22 0 -22zm0 22c-14,0 -26,-10 -26,-22 0,-13 12,-23 26,-23l0 45zm-92 -91l0 -46 26 23 0 4 0 3 1 4 0 3 1 4 1 3 1 3 2 3 1 4 2 3 1 2 2 3 2 3 2 3 2 2 2 2 3 3 2 2 3 2 2 2 3 1 3 2 3 1 3 2 2 1 3 1 3 1 3 1 4 0 3 0 3 1 3 0 0 45 -6 0 -6 0 -6 -1 -6 -1 -6 -1 -6 -2 -5 -2 -6 -2 -5 -2 -5 -3 -5 -3 -5 -3 -4 -3 -5 -4 -4 -3 -4 -4 -4 -4 -3 -4 -4 -5 -3 -4 -3 -5 -3 -5 -2 -4 -2 -5 -2 -6 -2 -5 -2 -5 -1 -6 -1 -5 -1 -6 0 -5 0 -6 25 23zm-25 -23c0,-13 11,-23 25,-23 15,0 26,10 26,23l-51 0zm-139 -23l164 0 0 46 -164 0 0 0 0 -46zm0 46c-14,0 -25,-11 -25,-23 0,-13 11,-23 25,-23l0 46zm-112 115l-51 0 0 0 0 -9 1 -8 1 -7 1 -8 2 -8 2 -7 3 -8 2 -7 4 -7 3 -7 4 -7 4 -6 5 -6 4 -6 5 -6 6 -6 5 -5 6 -5 6 -5 7 -5 6 -4 7 -4 7 -4 8 -3 7 -3 8 -2 8 -3 8 -2 8 -1 8 -1 9 -1 8 0 0 46 -5 0 -6 0 -5 1 -6 1 -5 1 -5 2 -5 1 -5 2 -5 3 -5 2 -5 3 -4 3 -4 3 -5 3 -4 4 -4 3 -4 4 -3 5 -4 4 -3 4 -3 5 -3 5 -2 5 -3 5 -2 5 -1 6 -2 5 -1 6 -1 6 -1 6 -1 6 0 6 0 0zm0 0c0,12 -11,22 -25,22 -15,0 -26,-10 -26,-22l51 0zm-51 402l0 -402 51 0 0 402 -25 23 -26 -23zm51 0c0,13 -11,23 -25,23 -15,0 -26,-10 -26,-23l51 0zm767 23l-792 0 0 -46 792 0 26 23 -26 23zm0 -46c14,0 26,11 26,23 0,13 -12,23 -26,23l0 -46z"/>
  </g>
  <g>
   <path class="fil3" d="M4885 2008c0,-12 11,-23 25,-23 15,0 26,11 26,23l-51 0zm0 293l0 -293 51 0 0 293 -51 0zm51 0c0,13 -11,23 -26,23 -14,0 -25,-10 -25,-23l51 0zm382 -293c0,-12 11,-23 25,-23 15,0 26,11 26,23l-51 0zm0 293l0 -293 51 0 0 293 -51 0zm51 0c0,13 -11,23 -26,23 -14,0 -25,-10 -25,-23l51 0z"/>
  </g>
  <g>
   <path class="fil3" d="M4944 1761c0,-13 11,-23 25,-23 14,0 26,10 26,23l-51 0zm180 132l0 46 0 0 -9 -1 -10 0 -9 -1 -9 -2 -9 -2 -8 -3 -9 -3 -8 -3 -8 -3 -8 -4 -8 -5 -7 -5 -7 -5 -7 -5 -6 -6 -6 -6 -6 -6 -6 -6 -5 -7 -5 -7 -5 -7 -4 -7 -4 -8 -4 -8 -3 -8 -3 -8 -2 -8 -2 -9 -1 -9 -2 -8 0 -9 0 -9 51 0 0 7 1 7 0 6 2 7 1 6 2 7 2 6 2 6 3 6 3 6 3 5 4 6 3 5 4 5 5 5 4 4 4 4 5 5 5 3 5 4 5 3 6 4 5 2 6 3 6 2 6 2 6 2 6 1 6 2 6 0 7 1 6 0 0 0zm0 0c14,0 26,10 26,23 0,12 -12,23 -26,23l0 -46zm0 46l0 0 0 -46 0 0 0 0 0 46zm0 -46c14,0 26,10 26,23 0,12 -12,23 -26,23l0 -46zm129 -132l52 0 0 9 -1 9 -1 8 -2 9 -2 9 -2 8 -3 8 -3 8 -4 8 -4 8 -4 7 -4 7 -5 7 -6 7 -5 6 -6 6 -6 6 -7 6 -7 5 -7 5 -7 5 -8 5 -8 4 -8 3 -8 3 -8 3 -9 3 -9 2 -9 2 -9 1 -9 0 -10 1 0 -46 7 0 6 -1 6 0 7 -2 6 -1 6 -2 5 -2 6 -2 6 -3 5 -2 6 -4 5 -3 5 -4 5 -3 5 -5 4 -4 5 -4 4 -5 4 -5 4 -5 3 -6 3 -5 3 -6 3 -6 2 -6 2 -6 2 -7 2 -6 1 -7 1 -6 0 -7 0 -7zm0 0c0,-13 12,-23 26,-23 14,0 26,10 26,23l-52 0z"/>
  </g>
  <g>
   <path class="fil4" d="M5032 1657l0 104c0,50 42,92 92,92l0 0c51,0 92,-42 92,-92l0 -102c-28,12 -59,19 -89,19 -33,0 -65,-8 -95,-21z"/>
   <path id="1" class="fil3" d="M5007 1761l0 -104 51 0 0 104 0 0 -51 0zm51 0c0,12 -11,23 -26,23 -14,0 -25,-11 -25,-23l51 0zm66 69l0 45 0 0 -6 0 -6 0 -6 -1 -6 -1 -6 -1 -6 -2 -5 -2 -6 -2 -5 -2 -5 -3 -5 -3 -5 -3 -4 -3 -5 -4 -4 -3 -4 -4 -4 -4 -3 -4 -4 -5 -3 -4 -3 -5 -3 -5 -2 -4 -2 -5 -2 -6 -2 -5 -2 -5 -1 -6 -1 -5 -1 -6 0 -5 0 -6 51 0 0 4 0 3 1 4 0 3 1 4 1 3 1 3 2 3 1 4 2 3 1 2 2 3 2 3 2 3 2 2 2 2 3 3 2 2 3 2 2 2 3 1 3 2 3 1 3 2 2 1 3 1 3 1 3 1 4 0 3 0 3 1 3 0 0 0zm0 0c14,0 26,10 26,23 0,12 -12,22 -26,22l0 -45zm0 23l0 0 0 0 0 0 0 -23 0 23zm0 -23c14,0 26,10 26,23 0,12 -12,22 -26,22l0 -45zm66 -69l52 0 0 0 -1 6 0 5 -1 6 -1 5 -1 6 -1 5 -2 5 -2 6 -3 5 -2 4 -3 5 -3 5 -3 4 -3 5 -4 4 -4 4 -4 4 -4 3 -5 4 -4 3 -5 3 -5 3 -5 3 -5 2 -6 2 -5 2 -6 2 -6 1 -6 1 -6 1 -6 0 -6 0 0 -45 3 0 4 -1 3 0 3 0 3 -1 3 -1 3 -1 3 -1 3 -2 2 -1 3 -2 3 -1 2 -2 3 -2 2 -2 3 -3 2 -2 2 -2 2 -3 2 -3 2 -3 2 -2 1 -3 2 -4 1 -3 1 -3 1 -3 1 -4 0 -3 1 -4 0 -3 0 -4 0 0zm0 0c0,-13 12,-23 26,-23 14,0 26,10 26,23l-52 0zm52 -102l0 102 -52 0 0 -102 15 -21 37 21zm-52 0c0,-13 12,-23 26,-23 14,0 26,10 26,23l-52 0zm-64 42l1 -46 -1 0 3 0 2 0 3 0 2 0 3 0 2 0 3 -1 2 0 3 0 2 -1 3 0 2 0 3 -1 2 0 3 -1 2 0 3 -1 2 -1 2 0 3 -1 2 0 3 -1 2 -1 3 -1 2 0 3 -1 2 -1 2 -1 3 -1 2 -1 3 -1 2 -1 22 41 -3 2 -3 1 -3 1 -3 1 -3 1 -3 1 -3 1 -3 1 -3 1 -3 1 -3 1 -3 1 -3 1 -3 0 -3 1 -3 1 -4 1 -3 0 -3 1 -3 0 -3 1 -3 0 -4 1 -3 0 -3 1 -3 0 -4 0 -3 1 -3 0 -3 0 -3 0 -4 0 -1 0zm1 0c-14,0 -26,-10 -26,-22 0,-13 11,-23 25,-24l1 46zm-69 -44l-51 0 37 -21 2 1 3 1 2 1 3 1 3 1 2 1 3 1 2 1 3 1 2 1 3 1 3 0 2 1 3 1 3 0 2 1 3 1 2 0 3 1 3 0 2 1 3 0 3 1 2 0 3 0 2 0 3 1 3 0 2 0 3 0 3 0 2 0 -1 46 -3 0 -3 0 -4 0 -3 -1 -4 0 -3 0 -4 0 -3 -1 -4 0 -3 -1 -3 0 -4 -1 -3 -1 -3 0 -4 -1 -3 -1 -3 -1 -4 0 -3 -1 -3 -1 -3 -1 -4 -1 -3 -1 -3 -1 -3 -1 -3 -2 -4 -1 -3 -1 -3 -1 -3 -1 -3 -2 -3 -1 37 -20zm-37 20c-13,-6 -18,-19 -12,-31 7,-11 22,-16 35,-10l-23 41z"/>
  </g>
  <g>
   <path class="fil7" d="M5157 2080l145 0 0 83 -145 0 0 -83z"/>
   <path id="1" class="fil3" d="M5302 2103l-145 0 0 -46 145 0 26 23 -26 23zm0 -46c14,0 26,10 26,23 0,12 -12,23 -26,23l0 -46zm-25 106l0 -83 51 0 0 83 -26 23 -25 -23zm51 0c0,13 -12,23 -26,23 -14,0 -25,-10 -25,-23l51 0zm-171 -22l145 0 0 45 -145 0 -26 -23 26 -22zm0 45c-14,0 -26,-10 -26,-23 0,-12 12,-22 26,-22l0 45zm26 -106l0 83 -52 0 0 -83 26 -23 26 23zm-52 0c0,-13 12,-23 26,-23 14,0 26,10 26,23l-52 0z"/>
  </g>
  <g>
   <path class="fil9" d="M4845 1324l561 0 0 -130c0,-139 -104,-253 -239,-269l0 45c-37,-37 -83,-55 -136,-57l0 51c-107,30 -186,112 -186,230l0 130z"/>
   <path id="1" class="fil3" d="M5406 1347l-561 0 0 -45 561 0 26 22 -26 23zm0 -45c15,0 26,10 26,22 0,13 -11,23 -26,23l0 -45zm26 -108l0 130 -51 0 0 -130 0 0 51 0zm-51 0c0,-13 11,-23 25,-23 15,0 26,10 26,23l-51 0zm-188 -269l-52 0 29 -22 14 2 14 2 13 3 13 4 13 4 13 5 12 6 12 6 12 6 11 7 11 7 11 8 10 9 10 8 9 10 9 9 9 10 8 10 8 11 7 11 6 11 6 12 6 12 5 12 5 13 4 12 3 13 3 13 2 14 2 13 1 14 0 14 -51 0 -1 -12 0 -12 -2 -11 -2 -12 -2 -11 -3 -11 -3 -11 -4 -11 -5 -10 -4 -10 -6 -10 -5 -10 -6 -9 -7 -9 -7 -9 -7 -8 -7 -8 -8 -8 -8 -7 -9 -7 -9 -7 -9 -6 -9 -6 -10 -5 -10 -5 -10 -4 -10 -4 -10 -4 -11 -3 -11 -2 -11 -3 -11 -1 29 -23zm-29 23c-14,-2 -24,-13 -22,-26 1,-12 14,-21 28,-19l-6 45zm-23 22l0 -45 52 0 0 45 -45 15 -7 -15zm52 0c0,12 -12,22 -26,22 -14,0 -26,-10 -26,-22l52 0zm-136 -57l-52 0 27 -23 6 1 5 0 5 0 6 1 5 1 6 0 5 1 5 1 5 1 6 2 5 1 5 1 5 2 5 2 5 2 5 1 4 3 5 2 5 2 5 2 4 3 5 3 4 2 5 3 4 3 5 3 4 4 4 3 4 3 4 4 4 4 4 3 -38 31 -3 -3 -3 -3 -3 -3 -4 -2 -3 -3 -3 -3 -3 -2 -4 -2 -3 -2 -4 -2 -3 -2 -4 -2 -3 -2 -4 -2 -3 -2 -4 -1 -3 -1 -4 -2 -4 -1 -4 -1 -4 -1 -3 -1 -4 -1 -4 -1 -4 -1 -4 -1 -5 0 -4 -1 -4 0 -4 -1 -4 0 -5 0 27 -23zm-27 23c-14,-1 -25,-11 -25,-24 1,-12 13,-22 27,-22l-2 46zm-25 28l0 -51 52 0 0 51 -18 21 -34 -21zm52 0c0,12 -12,22 -26,22 -14,0 -26,-10 -26,-22l52 0zm-186 230l-52 0 0 0 1 -12 0 -11 1 -12 2 -11 2 -11 3 -11 3 -10 4 -10 4 -11 4 -9 5 -10 5 -9 6 -9 6 -9 6 -9 7 -8 7 -8 7 -7 8 -8 8 -7 8 -7 8 -6 9 -6 9 -6 10 -6 9 -5 10 -5 10 -4 10 -4 11 -4 11 -4 10 -3 16 43 -9 3 -9 3 -9 3 -8 4 -9 4 -8 4 -8 4 -7 5 -8 4 -7 5 -7 6 -7 5 -6 6 -7 6 -6 6 -5 7 -6 6 -5 7 -5 8 -5 7 -4 8 -4 7 -3 8 -4 9 -3 8 -2 9 -2 9 -2 9 -2 10 -1 9 0 10 0 10 0 0zm0 0c0,13 -12,23 -26,23 -14,0 -26,-10 -26,-23l52 0zm-52 130l0 -130 52 0 0 130 -26 23 -26 -23zm52 0c0,13 -12,23 -26,23 -14,0 -26,-10 -26,-23l52 0z"/>
  </g>
  <g>
   <path class="fil4" d="M5378 1467l0 -150 -45 -104 0 -70 -96 0c6,20 10,42 11,64 -120,-63 -201,-64 -324,-64l-6 0 0 70 -44 104 0 150c0,87 122,209 252,211 129,-2 252,-124 252,-211z"/>
   <path id="1" class="fil3" d="M5403 1317l0 150 -51 0 0 -150 50 -9 1 9zm-51 0c0,-13 12,-23 26,-23 14,0 25,10 25,23l-51 0zm5 -113l45 104 -48 17 -45 -104 -1 -8 49 -9zm-48 17c-5,-12 2,-25 15,-30 13,-4 28,2 33,13l-48 17zm50 -78l0 70 -51 0 0 -70 25 -23 26 23zm-51 0c0,-13 11,-23 25,-23 15,0 26,10 26,23l-51 0zm-71 -23l96 0 0 45 -96 0 -25 -16 25 -29zm0 45c-14,0 -26,-10 -26,-22 0,-13 12,-23 26,-23l0 45zm-2 62l26 -39 -39 20 0 -2 0 -1 0 -2 0 -2 0 -2 0 -2 -1 -2 0 -2 0 -2 0 -2 0 -2 -1 -2 0 -2 0 -1 -1 -2 0 -2 0 -2 -1 -2 0 -2 0 -2 -1 -1 0 -2 0 -2 -1 -2 0 -2 -1 -2 0 -1 -1 -2 0 -2 -1 -2 0 -2 -1 -1 50 -12 0 2 1 2 1 2 0 2 1 2 0 2 1 3 0 2 1 2 0 2 1 2 0 2 1 2 0 3 0 2 1 2 0 2 1 2 0 3 0 2 0 2 1 2 0 2 0 3 1 2 0 2 0 2 0 3 0 2 0 2 1 2 0 2 -39 21zm39 -21c0,13 -11,24 -25,24 -14,1 -26,-9 -27,-22l52 -2zm-350 -41l0 -45 0 0 11 0 11 0 12 0 10 0 11 0 11 0 10 1 11 0 10 0 10 1 10 1 10 1 10 1 10 1 10 1 10 2 10 1 11 2 10 3 10 2 10 3 10 2 11 4 10 3 11 4 10 4 11 4 11 5 11 5 11 5 12 6 11 6 -26 39 -11 -6 -10 -5 -11 -5 -10 -4 -10 -4 -9 -4 -10 -4 -9 -3 -10 -3 -9 -3 -9 -3 -9 -2 -9 -2 -9 -2 -9 -2 -9 -1 -9 -2 -9 -1 -9 -1 -9 -1 -9 -1 -10 0 -9 -1 -10 0 -10 -1 -10 0 -10 0 -10 0 -11 0 -11 0 -11 -1 -11 0 0 0zm0 0c-14,0 -26,-10 -26,-22 0,-13 12,-23 26,-23l0 45zm-6 -45l6 0 0 45 -6 0 -26 -22 26 -23zm0 45c-14,0 -26,-10 -26,-22 0,-13 12,-23 26,-23l0 45zm-26 48l0 -70 52 0 0 70 -2 8 -50 -8zm52 0c0,12 -12,22 -26,22 -14,0 -26,-10 -26,-22l52 0zm-94 95l44 -104 48 17 -44 104 -50 -8 2 -9zm48 17c-5,11 -20,17 -34,13 -13,-5 -19,-18 -14,-30l48 17zm-50 142l0 -150 51 0 0 150 0 0 -51 0zm51 0c0,13 -11,23 -25,23 -15,0 -26,-10 -26,-23l51 0zm226 188l1 46 -1 0 -14 -1 -13 -1 -14 -2 -13 -3 -13 -3 -13 -4 -13 -5 -12 -5 -12 -6 -12 -6 -11 -6 -11 -7 -11 -7 -11 -8 -10 -8 -9 -8 -9 -9 -9 -9 -9 -9 -8 -9 -7 -9 -7 -10 -6 -10 -6 -9 -5 -10 -5 -10 -4 -10 -4 -10 -2 -10 -2 -10 -2 -10 0 -10 51 0 1 7 0 6 2 8 2 7 2 7 4 8 3 8 5 8 4 8 6 8 6 8 6 8 7 8 7 7 7 8 8 7 8 7 9 7 9 7 9 6 9 6 10 5 10 6 10 4 10 4 10 4 11 3 10 3 11 2 10 2 11 1 10 0 -1 0zm1 0c14,1 26,11 25,24 0,12 -12,22 -26,22l1 -46zm226 -188l51 0 0 0 0 10 -1 10 -2 10 -3 10 -3 10 -5 10 -4 10 -6 10 -5 9 -7 10 -7 10 -7 9 -8 9 -8 9 -9 9 -9 9 -10 8 -10 8 -11 8 -10 7 -12 7 -11 6 -12 6 -12 6 -12 5 -13 5 -13 4 -13 3 -13 3 -14 2 -13 1 -14 1 -1 -46 11 0 10 -1 11 -2 10 -2 11 -3 10 -3 10 -4 10 -4 10 -4 10 -6 10 -5 9 -6 9 -6 9 -7 9 -7 8 -7 8 -7 8 -8 7 -7 6 -8 7 -8 6 -8 5 -8 5 -8 4 -8 4 -8 3 -8 2 -7 2 -7 2 -8 1 -6 0 -7 0 0zm0 0c0,-12 12,-23 26,-23 14,0 25,11 25,23l-51 0z"/>
  </g>
  <g>
   <path class="fil9" d="M5378 1467l0 -46c0,47 -47,86 -104,86 -25,0 -48,-7 -66,-19 -23,-16 -25,-18 -54,-18l-57 0c-28,0 -30,2 -54,18 -18,12 -40,19 -65,19 -58,0 -104,-39 -104,-86l0 46c0,87 122,210 252,211 129,-1 252,-124 252,-211z"/>
   <path id="1" class="fil3" d="M5403 1421l0 46 -51 0 0 -46 51 0zm-51 0c0,-13 12,-23 26,-23 14,0 25,10 25,23l-51 0zm-78 109l0 -46 0 0 4 0 4 0 4 -1 4 0 4 -1 3 -1 4 -1 4 -1 3 -2 4 -1 3 -2 3 -1 3 -2 3 -2 3 -2 3 -2 2 -2 3 -3 2 -2 2 -3 2 -2 2 -3 2 -3 1 -2 2 -3 1 -3 1 -3 1 -3 0 -3 1 -3 0 -3 0 -3 51 0 0 5 0 6 -1 6 -1 5 -2 5 -2 6 -2 5 -2 5 -3 5 -3 4 -3 5 -3 4 -4 5 -4 4 -4 4 -4 3 -5 4 -5 3 -4 3 -6 3 -5 3 -5 3 -6 2 -5 2 -6 2 -6 2 -6 1 -7 1 -6 1 -6 1 -7 0 -6 1 0 0zm0 0c-15,0 -26,-11 -26,-23 0,-13 11,-23 26,-23l0 46zm-81 -24l31 -37 0 0 1 1 1 1 1 1 2 1 1 0 1 1 2 1 1 0 2 1 1 1 2 0 1 1 2 0 1 1 2 0 1 1 2 0 2 1 1 0 2 1 2 0 1 0 2 1 2 0 1 0 2 0 2 0 1 1 2 0 2 0 2 0 2 0 0 46 -3 0 -3 -1 -3 0 -3 0 -2 0 -3 0 -3 -1 -3 0 -2 0 -3 -1 -3 0 -3 -1 -2 -1 -3 0 -2 -1 -3 -1 -2 0 -3 -1 -3 -1 -2 -1 -2 -1 -3 -1 -2 -1 -3 -1 -2 -1 -2 -1 -3 -2 -2 -1 -2 -1 -2 -1 -2 -2 -2 -1 0 0zm0 0c-12,-8 -14,-22 -5,-32 8,-10 24,-12 36,-5l-31 37zm-39 -13l0 -46 0 0 3 0 3 0 2 0 3 0 2 0 2 0 3 1 2 0 2 0 3 0 2 1 2 0 2 1 3 0 2 1 2 1 3 0 2 1 2 1 2 1 2 1 2 1 1 1 2 1 2 1 2 2 2 1 1 1 2 1 2 1 2 2 3 1 -31 37 -3 -2 -2 -1 -1 -1 -2 -1 -2 -1 -1 -1 -2 -1 -1 -1 -1 -1 -1 0 -1 -1 0 0 -1 0 -1 -1 0 0 0 0 -1 0 0 0 -1 0 0 0 -1 -1 -1 0 0 0 -1 0 -2 0 -1 0 -2 0 -1 0 -2 0 -2 0 -3 0 -2 0 0 0zm0 0c-14,0 -26,-11 -26,-23 0,-13 12,-23 26,-23l0 46zm-57 -46l57 0 0 46 -57 0 0 -46 0 0zm0 46c-14,0 -25,-11 -25,-23 0,-13 11,-23 25,-23l0 46zm-38 13l-31 -37 0 0 2 -1 2 -2 2 -1 2 -1 2 -1 2 -1 1 -2 2 -1 2 -1 2 -1 2 -1 2 -1 2 -1 2 -1 2 -1 2 0 2 -1 2 -1 3 0 2 -1 2 0 3 -1 2 0 2 0 3 0 2 -1 2 0 3 0 2 0 3 0 2 0 3 0 0 46 -2 0 -2 0 -3 0 -1 0 -2 0 -2 0 -1 0 -1 0 -1 0 -1 0 -1 0 -1 1 0 0 0 0 -1 0 0 0 -1 0 0 0 -1 1 0 0 -1 0 -1 1 -1 0 -1 1 -1 1 -1 1 -2 1 -2 1 -1 1 -2 1 -2 1 -2 2 0 0zm0 0c-12,7 -28,5 -36,-5 -9,-10 -7,-24 5,-32l31 37zm-81 24l0 -46 0 0 1 0 2 0 2 0 2 0 2 -1 1 0 2 0 2 0 1 0 2 -1 2 0 1 0 2 -1 2 0 1 -1 2 0 1 -1 2 0 2 -1 1 0 2 -1 1 0 2 -1 1 -1 1 0 2 -1 1 -1 2 0 1 -1 1 -1 2 -1 1 -1 31 37 -2 1 -3 2 -2 1 -2 1 -2 1 -2 2 -3 1 -2 1 -2 1 -3 1 -2 1 -3 1 -2 1 -3 1 -2 1 -3 0 -2 1 -3 1 -3 0 -2 1 -3 1 -3 0 -2 1 -3 0 -3 0 -2 1 -3 0 -3 0 -3 0 -3 0 -2 1 -3 0 0 0zm0 0c-14,0 -26,-11 -26,-23 0,-13 12,-23 26,-23l0 46zm-79 -109l-51 0 51 0 0 3 1 3 0 3 1 3 1 3 1 3 1 3 1 3 2 2 1 3 2 3 2 2 2 3 3 2 2 3 3 2 2 2 3 2 3 2 3 2 3 1 4 2 3 1 4 2 3 1 4 1 4 1 3 1 4 0 4 1 5 0 4 0 0 46 -7 -1 -6 0 -7 -1 -6 -1 -6 -1 -6 -1 -6 -2 -6 -2 -6 -2 -5 -2 -6 -3 -5 -3 -5 -3 -5 -3 -5 -3 -4 -4 -5 -3 -4 -4 -4 -4 -3 -5 -4 -4 -3 -5 -3 -4 -3 -5 -2 -5 -2 -5 -2 -6 -1 -5 -2 -5 0 -6 -1 -6 0 -5 51 0zm-51 0c0,-13 11,-23 26,-23 14,0 25,10 25,23l-51 0zm0 46l0 -46 51 0 0 46 0 0 -51 0zm51 0c0,13 -11,23 -25,23 -15,0 -26,-10 -26,-23l51 0zm226 188l1 46 -1 0 -14 0 -13 -2 -14 -2 -13 -3 -13 -3 -13 -4 -13 -5 -12 -5 -12 -5 -12 -7 -11 -6 -11 -7 -11 -7 -11 -8 -10 -8 -9 -8 -9 -9 -9 -9 -9 -9 -8 -9 -7 -9 -7 -10 -6 -10 -6 -9 -5 -10 -5 -10 -4 -10 -4 -10 -2 -10 -2 -10 -2 -10 0 -10 51 0 1 7 0 6 2 8 2 7 2 8 4 7 3 8 5 8 4 8 6 8 6 8 6 8 7 8 7 7 7 8 8 7 8 7 9 7 9 7 9 6 9 6 10 5 10 6 10 4 10 4 10 4 11 3 10 3 11 2 10 2 11 1 10 0 -1 0zm1 0c14,1 26,11 25,24 0,12 -12,22 -26,22l1 -46zm226 -188l51 0 0 0 0 10 -1 10 -2 10 -3 10 -3 10 -5 10 -4 10 -6 10 -5 9 -7 10 -7 10 -7 9 -8 9 -8 9 -9 9 -9 9 -10 8 -10 8 -11 8 -10 7 -12 7 -11 6 -12 7 -12 5 -12 5 -13 5 -13 4 -13 3 -13 3 -14 2 -13 2 -14 0 -1 -46 11 0 10 -1 11 -2 10 -2 11 -3 10 -3 10 -4 10 -4 10 -4 10 -6 10 -5 9 -6 9 -6 9 -7 9 -7 8 -7 8 -7 8 -8 7 -7 7 -8 6 -8 6 -8 5 -8 5 -8 4 -8 4 -8 3 -7 2 -8 2 -7 2 -8 1 -6 0 -7 0 0zm0 0c0,-12 12,-23 26,-23 14,0 25,11 25,23l-51 0z"/>
  </g>
  <g>
   <path class="fil3" d="M4918 1165c-14,0 -26,-10 -26,-22 0,-13 12,-23 26,-23l0 45zm304 43l52 -2 -39 21 -11 -6 -11 -5 -10 -5 -10 -4 -10 -5 -10 -4 -10 -3 -10 -4 -9 -3 -9 -3 -10 -2 -9 -3 -9 -2 -9 -2 -9 -1 -9 -2 -9 -1 -9 -1 -10 -1 -9 -1 -9 -1 -10 -1 -10 0 -10 -1 -10 0 -10 0 -10 0 -11 0 -11 0 -11 0 -11 -1 -12 0 0 -45 12 0 11 0 11 0 12 0 11 0 10 0 11 0 11 1 10 0 10 1 11 1 10 0 10 1 11 1 10 2 10 1 10 2 10 2 11 2 10 2 10 3 11 3 10 3 11 4 10 3 11 4 11 5 11 5 11 5 12 5 11 6 12 6 -39 20zm39 -20c12,6 16,20 9,31 -7,11 -23,15 -35,8l26 -39zm-75 -95l43 -24 3 4 2 4 3 4 2 4 2 3 3 4 2 5 2 4 2 4 2 4 1 4 2 4 2 5 1 4 2 4 1 4 1 5 2 4 1 5 1 4 1 4 1 5 1 4 1 5 0 4 1 5 1 4 0 5 1 5 0 4 0 5 1 4 -52 2 0 -4 0 -4 0 -4 -1 -4 0 -3 -1 -4 0 -4 -1 -4 -1 -4 -1 -4 0 -4 -1 -3 -1 -4 -1 -4 -1 -4 -1 -3 -2 -4 -1 -3 -1 -4 -1 -4 -2 -3 -1 -4 -2 -3 -1 -3 -2 -4 -2 -3 -2 -3 -1 -4 -2 -3 -2 -3 -2 -3 -2 -3zm0 0c-8,-11 -4,-25 8,-32 12,-6 28,-3 35,8l-43 24z"/>
  </g>
  <g>
   <path class="fil3" d="M5403 1317l-51 0 26 -23 4 0 4 0 4 1 4 0 4 1 4 1 4 2 4 1 3 1 4 2 3 2 4 2 3 2 3 2 3 3 2 2 3 3 3 3 2 2 2 3 2 3 2 3 2 4 2 3 1 3 1 4 1 3 1 4 1 4 0 3 1 4 0 4 -52 0 0 -2 0 -1 0 -2 0 -1 -1 -2 0 -1 -1 -2 0 -1 -1 -1 0 -2 -1 -1 -1 -1 -1 -1 -1 -1 -1 -1 -1 -1 -1 -1 -1 -1 -1 -1 -1 -1 -1 -1 -2 0 -1 -1 -1 0 -2 -1 -1 0 -1 -1 -2 0 -1 0 -1 0 -2 0 -1 0 25 -23zm-25 23c-14,0 -26,-11 -26,-23 0,-13 12,-23 26,-23l0 46zm-26 29l0 -52 51 0 0 52 0 0 -51 0zm51 0c0,12 -11,23 -25,23 -14,0 -26,-11 -26,-23l51 0zm-51 52l0 -52 51 0 0 52 -25 23 -26 -23zm51 0c0,12 -11,23 -25,23 -14,0 -26,-11 -26,-23l51 0zm4 -52l52 0 0 0 0 3 -1 4 0 4 -1 4 -1 3 -1 4 -1 3 -1 3 -2 4 -2 3 -2 3 -2 3 -2 3 -2 3 -3 3 -3 2 -2 3 -3 2 -3 2 -3 2 -4 2 -3 2 -4 2 -3 2 -4 1 -4 1 -4 1 -4 1 -4 1 -4 0 -4 0 -4 1 0 -46 1 0 2 0 1 0 1 -1 2 0 1 0 1 -1 2 0 1 -1 1 0 2 -1 1 -1 1 -1 1 0 1 -1 1 -1 1 -1 1 -1 1 -1 1 -2 1 -1 1 -1 0 -1 1 -2 0 -1 1 -1 0 -2 1 -1 0 -2 0 -1 0 -2 0 -1 0 0zm0 0c0,-13 12,-23 26,-23 14,0 26,10 26,23l-52 0z"/>
  </g>
  <g>
   <path class="fil10" d="M5241 1336c-11,0 -19,8 -19,19 0,10 8,18 19,18 10,0 18,-8 18,-18 0,-11 -8,-19 -18,-19zm-230 0c10,0 18,8 18,19 0,10 -8,18 -18,18 -11,0 -19,-8 -19,-18 0,-11 8,-19 19,-19z"/>
   <path id="1" class="fil3" d="M5239 1355l-35 0 0 0 0 -2 1 -2 0 -1 0 -2 0 -1 1 -2 0 -2 1 -1 1 -2 0 -1 1 -1 1 -2 1 -1 1 -1 1 -2 1 -1 2 -1 1 -1 1 -1 2 -1 1 -1 2 -1 1 -1 2 -1 2 0 1 -1 2 0 2 -1 2 0 2 0 2 -1 2 0 0 32 0 0 0 0 0 0 0 0 0 0 0 0 0 0 0 0 0 0 0 0 0 0 0 0 0 0 0 0 0 0 -1 0 0 0 0 0 0 0 0 0 0 0 0 1 0 0 0 0 0 0 0 0 0 1 0 0 -1 0 0 0 0 1 0 0 0 0zm0 0c0,8 -7,15 -17,15 -10,0 -18,-7 -18,-15l35 0zm2 3l0 31 0 0 -2 0 -2 0 -2 0 -2 -1 -2 0 -2 -1 -1 0 -2 -1 -2 -1 -1 0 -2 -1 -1 -1 -2 -1 -1 -1 -2 -1 -1 -2 -1 -1 -1 -1 -1 -1 -1 -2 -1 -1 -1 -2 0 -1 -1 -1 -1 -2 0 -2 -1 -1 0 -2 0 -1 0 -2 -1 -2 0 -1 35 0 0 0 0 0 0 1 1 0 0 0 0 0 0 0 0 1 0 0 0 0 0 0 0 0 0 0 0 0 0 1 0 0 1 0 0 0 0 0 0 0 0 0 0 0 0 0 0 0 0 0 0 0 0 0 0 0 0 0 0 0 0 0 0 0 0 0zm0 0c9,0 17,7 17,15 0,9 -8,16 -17,16l0 -31zm1 -3l35 0 0 0 0 1 0 2 0 2 -1 1 0 2 -1 1 0 2 -1 2 0 1 -1 1 -1 2 -1 1 -1 2 -1 1 -1 1 -1 1 -1 2 -2 1 -1 1 -1 1 -2 1 -1 1 -2 0 -2 1 -1 1 -2 0 -2 1 -2 0 -2 1 -1 0 -2 0 -2 0 0 -31 0 0 0 0 0 0 0 0 -1 0 0 0 0 0 0 0 0 0 0 0 0 0 0 0 1 0 0 0 0 0 0 0 0 0 0 -1 0 0 0 0 0 0 0 0 0 0 0 0 1 -1 0 0 0 0 0 0 0 0 0 -1 0 0 0 0 0 0zm0 0c0,-9 8,-16 17,-16 10,0 18,7 18,16l-35 0zm-1 -3l0 -32 0 0 2 0 2 1 1 0 2 0 2 1 2 0 2 1 1 0 2 1 2 1 1 1 2 1 1 1 1 1 2 1 1 1 1 1 1 2 1 1 1 1 1 2 1 1 1 1 0 2 1 1 0 2 1 2 0 1 1 2 0 1 0 2 0 2 -35 0 0 0 0 -1 0 0 0 0 0 0 0 -1 0 0 -1 0 0 0 0 0 0 -1 0 0 0 0 0 0 0 0 0 0 0 0 0 0 0 0 -1 0 0 0 0 0 0 0 0 0 0 0 0 0 0 0 1 0 0 0 0 0 0 0 0 0 0 0zm0 0c-10,0 -18,-7 -18,-16 0,-9 8,-16 18,-16l0 32zm-194 3l-35 0 0 0 0 0 0 -1 0 0 0 0 0 0 0 -1 0 0 -1 0 0 0 0 0 0 -1 0 0 0 0 0 0 0 0 0 0 0 0 0 0 0 0 0 0 -1 0 0 0 0 0 0 0 0 0 0 0 0 0 1 0 0 0 0 0 0 0 0 0 0 -32 2 0 2 1 1 0 2 0 2 1 2 0 2 1 1 0 2 1 2 1 1 1 2 1 1 1 1 1 2 1 1 1 1 1 1 2 1 1 1 1 1 2 1 1 1 1 0 2 1 1 0 2 1 2 0 1 1 2 0 1 0 2 0 2 0 0zm0 0c0,8 -8,15 -18,15 -9,0 -17,-7 -17,-15l35 0zm-36 34l0 -31 0 0 0 0 0 0 0 0 0 0 -1 0 0 0 0 0 0 0 0 0 0 0 0 0 1 0 0 0 0 0 0 0 0 0 0 0 0 -1 0 0 0 0 0 0 0 0 0 0 0 0 1 -1 0 0 0 0 0 0 0 0 0 -1 0 0 0 0 35 0 0 1 0 2 0 2 -1 1 0 2 -1 1 0 2 -1 2 0 1 -1 1 -1 2 -1 1 -1 2 -1 1 -1 1 -1 1 -1 2 -2 1 -1 1 -1 1 -2 1 -1 1 -2 0 -2 1 -1 1 -2 0 -2 1 -2 0 -2 1 -1 0 -2 0 -2 0 0 0zm0 0c-10,0 -18,-7 -18,-16 0,-8 8,-15 18,-15l0 31zm-37 -34l35 0 0 0 0 0 0 0 0 1 1 0 0 0 0 0 0 0 0 1 0 0 0 0 0 0 0 0 0 0 0 0 0 1 0 0 1 0 0 0 0 0 0 0 0 0 0 0 0 0 0 0 0 0 0 0 0 0 0 0 0 0 0 0 0 0 0 0 0 31 -2 0 -2 0 -2 0 -2 -1 -2 0 -2 -1 -1 0 -2 -1 -2 -1 -1 0 -2 -1 -1 -1 -2 -1 -1 -1 -1 -1 -2 -2 -1 -1 -1 -1 -1 -1 -1 -2 -1 -1 -1 -2 0 -1 -1 -1 -1 -2 0 -2 -1 -1 0 -2 0 -1 0 -2 -1 -2 0 -1 0 0zm0 0c0,-9 8,-16 18,-16 10,0 17,7 17,16l-35 0zm37 -35l0 32 0 0 0 0 0 0 0 0 0 0 0 0 0 0 0 0 0 0 0 0 0 0 0 0 0 0 0 0 0 0 0 0 -1 0 0 0 0 0 0 0 0 0 0 0 0 1 0 0 0 0 0 0 0 0 0 1 0 0 -1 0 0 0 0 1 0 0 -35 0 0 -2 1 -2 0 -1 0 -2 0 -1 1 -2 0 -2 1 -1 1 -2 0 -1 1 -1 1 -2 1 -1 1 -1 1 -2 1 -1 2 -1 1 -1 1 -1 2 -1 1 -1 2 -1 1 -1 2 -1 2 0 1 -1 2 0 2 -1 2 0 2 0 2 -1 2 0 0 0zm0 0c9,0 17,7 17,16 0,9 -8,16 -17,16l0 -32z"/>
  </g>
  <g>
   <path class="fil3" d="M5192 1343c0,13 -12,23 -26,23 -14,0 -26,-10 -26,-23l52 0zm0 -15l0 15 -52 0 0 -15 0 0 52 0zm-52 0c0,-13 12,-23 26,-23 14,0 26,10 26,23l-52 0zm57 -54l0 46 0 0 0 0 -1 0 0 0 0 0 0 0 0 0 0 0 0 0 0 0 -1 0 0 1 0 0 0 0 0 0 -1 0 0 0 0 1 0 0 -1 0 0 1 0 0 0 0 0 1 -1 0 0 1 0 0 0 0 0 1 0 0 0 1 0 0 0 1 -52 0 0 -3 1 -2 0 -3 0 -2 1 -3 1 -2 0 -3 1 -2 1 -2 2 -3 1 -2 1 -2 2 -2 1 -2 2 -2 2 -2 2 -2 2 -1 2 -2 2 -2 2 -1 3 -1 2 -2 3 -1 2 -1 3 -1 3 -1 3 0 3 -1 3 0 3 0 3 -1 0 0zm0 0c14,0 25,11 25,23 0,13 -11,23 -25,23l0 -46zm99 46l-99 0 0 -46 99 0 0 0 0 46zm0 -46c15,0 26,11 26,23 0,13 -11,23 -26,23l0 -46zm57 54l-52 0 0 0 0 -1 0 0 0 -1 0 0 0 -1 0 0 0 0 0 -1 -1 0 0 -1 0 0 0 0 0 -1 -1 0 0 0 0 0 0 -1 -1 0 0 0 0 0 0 0 0 -1 -1 0 0 0 0 0 0 0 0 0 0 0 0 0 0 0 -1 0 0 0 0 -46 3 1 3 0 3 0 3 1 3 0 3 1 3 1 2 1 3 1 2 2 3 1 2 1 2 2 2 2 2 1 2 2 2 2 2 2 1 2 2 2 1 2 1 2 2 3 1 2 1 2 0 3 1 2 1 3 0 2 0 3 1 2 0 3 0 0zm0 0c0,13 -12,23 -26,23 -14,0 -26,-10 -26,-23l52 0zm-52 45l0 -45 52 0 0 45 -52 0zm52 0c0,13 -12,23 -26,23 -14,0 -26,-10 -26,-23l52 0zm-187 -68c14,0 26,10 26,23 0,13 -12,23 -26,23l0 -46zm-81 0l81 0 0 46 -81 0 0 -46zm0 46c-14,0 -25,-10 -25,-23 0,-13 11,-23 25,-23l0 46zm26 -8c0,13 -12,23 -26,23 -14,0 -25,-10 -25,-23l51 0zm0 -15l0 15 -51 0 0 -15 0 0 51 0zm-51 0c0,-13 11,-23 25,-23 14,0 26,10 26,23l-51 0zm-5 -8l0 -46 0 0 3 1 3 0 3 0 3 1 2 0 3 1 3 1 3 1 2 1 3 2 2 1 2 1 2 2 3 2 2 1 1 2 2 2 2 2 1 2 2 2 1 2 2 2 1 3 1 2 1 2 1 3 0 2 1 3 0 2 1 3 0 2 0 3 -51 0 0 -1 0 0 -1 -1 0 0 0 -1 0 0 0 0 0 -1 0 0 -1 -1 0 0 0 0 0 -1 0 0 -1 0 0 -1 0 0 0 0 -1 0 0 0 0 0 0 -1 0 0 -1 0 0 0 0 0 0 0 0 0 0 0 0 0 0 0 0 0 0 0zm0 0c-15,0 -26,-10 -26,-23 0,-12 11,-23 26,-23l0 46zm-100 -46l100 0 0 46 -100 0 0 0 0 -46zm0 46c-14,0 -26,-10 -26,-23 0,-12 12,-23 26,-23l0 46zm-5 8l-51 0 0 0 0 -3 0 -2 0 -3 1 -2 0 -3 1 -2 1 -3 1 -2 1 -2 1 -3 1 -2 2 -2 1 -2 2 -2 1 -2 2 -2 2 -2 2 -1 2 -2 2 -2 3 -1 2 -1 2 -2 3 -1 3 -1 2 -1 3 -1 3 0 3 -1 3 0 3 0 3 -1 0 46 0 0 0 0 0 0 0 0 -1 0 0 0 0 0 0 0 0 0 0 0 0 1 -1 0 0 0 0 0 0 0 -1 0 0 1 0 0 0 0 0 1 -1 0 0 0 0 1 0 0 0 1 -1 0 0 0 0 1 0 0 0 1 0 0 0 1 0 0zm0 0c0,13 -12,23 -26,23 -14,0 -25,-10 -25,-23l51 0zm-51 45l0 -45 51 0 0 45 -51 0zm51 0c0,13 -12,23 -26,23 -14,0 -25,-10 -25,-23l51 0z"/>
  </g>
  <g>
   <path class="fil3" d="M5352 1421c0,-13 12,-23 26,-23 14,0 25,10 25,23l-51 0zm-78 109l0 -46 0 0 4 0 4 0 4 -1 4 0 4 -1 3 -1 4 -1 4 -1 3 -2 4 -1 3 -2 3 -1 3 -2 3 -2 3 -2 3 -2 2 -2 3 -3 2 -2 2 -3 2 -2 2 -3 2 -3 1 -2 2 -3 1 -3 1 -3 1 -3 0 -3 1 -3 0 -3 0 -3 51 0 0 5 0 6 -1 5 -1 6 -2 5 -2 6 -2 5 -2 5 -3 4 -3 5 -3 5 -3 4 -4 4 -4 5 -4 3 -4 4 -5 4 -5 3 -4 3 -6 3 -5 3 -5 3 -6 2 -6 2 -5 2 -6 2 -6 1 -7 1 -6 1 -6 1 -7 0 -6 1 0 0zm0 0c-15,0 -26,-11 -26,-23 0,-13 11,-23 26,-23l0 46zm-81 -24l30 -37 0 0 2 1 1 1 1 1 2 0 1 1 1 1 2 1 1 0 2 1 1 1 2 0 1 1 2 0 1 1 2 0 1 1 2 0 2 1 1 0 2 1 1 0 2 0 2 1 2 0 1 0 2 0 2 0 1 1 2 0 2 0 2 0 2 0 0 46 -3 0 -3 -1 -3 0 -3 0 -2 0 -3 0 -3 -1 -3 0 -2 -1 -3 0 -3 0 -3 -1 -2 -1 -3 0 -2 -1 -3 -1 -3 -1 -2 0 -3 -1 -2 -1 -2 -1 -3 -1 -2 -1 -3 -1 -2 -1 -2 -1 -3 -2 -2 -1 -2 -1 -2 -2 -2 -1 -2 -1 0 0zm0 0c-12,-8 -14,-22 -5,-32 8,-10 24,-12 35,-5l-30 37zm-39 -13l0 -46 0 0 3 0 3 0 2 0 3 0 2 0 2 0 3 0 2 1 2 0 3 0 2 1 2 0 2 1 3 0 2 1 2 1 2 0 3 1 2 1 2 1 2 1 2 1 1 1 2 1 2 1 2 1 2 2 1 1 2 1 2 1 2 2 2 1 -30 37 -3 -2 -2 -1 -1 -1 -2 -1 -2 -1 -1 -1 -2 -1 -1 -1 -1 -1 -1 0 -1 -1 0 0 -1 0 -1 -1 0 0 0 0 -1 0 0 0 -1 0 0 0 -1 -1 -1 0 0 0 -1 0 -2 0 -1 0 -2 0 -1 0 -2 0 -2 0 -3 0 -2 0 0 0zm0 0c-14,0 -26,-11 -26,-23 0,-13 12,-23 26,-23l0 46zm-57 -46l57 0 0 46 -57 0 0 -46 0 0zm0 46c-14,0 -25,-11 -25,-23 0,-13 11,-23 25,-23l0 46zm-38 13l-31 -37 0 0 2 -1 2 -2 2 -1 2 -1 2 -1 1 -2 2 -1 2 -1 2 -1 2 -1 2 -1 2 -1 2 -1 2 -1 2 -1 2 0 2 -1 2 -1 3 0 2 -1 2 0 3 -1 2 0 2 0 3 -1 2 0 2 0 3 0 2 0 3 0 2 0 3 0 0 46 -2 0 -2 0 -3 0 -1 0 -2 0 -2 0 -1 0 -1 0 -1 0 -1 0 -1 0 -1 1 0 0 -1 0 0 0 0 0 -1 0 0 0 -1 1 0 0 -1 0 -1 1 -1 0 -1 1 -1 1 -2 1 -1 1 -2 1 -1 1 -2 1 -2 1 -2 2 0 0zm0 0c-12,7 -28,5 -36,-5 -9,-10 -7,-24 5,-32l31 37zm-81 24l0 -46 0 0 1 0 2 0 2 0 2 0 2 -1 1 0 2 0 2 0 1 0 2 -1 2 0 1 0 2 -1 2 0 1 -1 2 0 1 -1 2 0 2 -1 1 0 2 -1 1 0 2 -1 1 -1 1 0 2 -1 1 -1 2 -1 1 0 1 -1 2 -1 1 -1 31 37 -2 1 -3 1 -2 2 -2 1 -2 1 -3 2 -2 1 -2 1 -2 1 -3 1 -2 1 -3 1 -2 1 -3 1 -2 0 -3 1 -2 1 -3 1 -3 0 -2 1 -3 1 -3 0 -2 0 -3 1 -3 0 -2 1 -3 0 -3 0 -3 0 -3 0 -2 1 -3 0 0 0zm0 0c-15,0 -26,-11 -26,-23 0,-13 11,-23 26,-23l0 46zm-130 -109l51 0 0 3 1 3 0 3 1 3 1 3 1 3 1 3 1 3 2 2 1 3 2 3 2 2 2 3 3 2 2 3 3 2 2 2 3 2 3 2 3 2 3 1 4 2 3 1 4 2 3 1 4 1 4 1 3 1 4 0 4 1 5 0 4 0 0 46 -7 -1 -6 0 -7 -1 -6 -1 -6 -1 -6 -1 -6 -2 -6 -2 -6 -2 -6 -2 -5 -3 -5 -3 -5 -3 -5 -3 -5 -3 -4 -4 -5 -4 -4 -3 -4 -5 -3 -4 -4 -4 -3 -5 -3 -5 -3 -4 -2 -5 -2 -5 -2 -6 -1 -5 -2 -6 0 -5 -1 -6 0 -5zm0 0c0,-13 11,-23 26,-23 14,0 25,10 25,23l-51 0z"/>
  </g>
  <g>
   <path class="fil3" d="M4899 1317l-51 0 26 23 -2 0 -1 0 -2 0 -1 0 -2 0 -1 1 -1 0 -1 1 -2 0 -1 1 -1 0 -1 1 -2 1 -1 1 -1 1 -1 1 -1 1 -1 1 -1 1 -1 1 -1 1 0 1 -1 2 -1 1 0 1 -1 2 0 1 0 2 -1 1 0 2 0 1 0 2 -51 0 0 -4 0 -4 0 -3 1 -4 1 -4 1 -3 1 -4 2 -3 1 -3 2 -4 2 -3 2 -3 2 -3 3 -2 2 -3 3 -3 3 -2 3 -3 3 -2 3 -2 3 -2 3 -2 4 -2 4 -1 3 -1 4 -2 4 -1 4 -1 4 0 4 -1 4 0 5 0 25 23zm-25 -23c14,0 25,10 25,23 0,12 -11,23 -25,23l0 -46zm-26 75l0 -52 51 0 0 52 0 0 -51 0zm51 0c0,12 -11,23 -25,23 -15,0 -26,-11 -26,-23l51 0zm-51 52l0 -52 51 0 0 52 -25 23 -26 -23zm51 0c0,12 -11,23 -25,23 -15,0 -26,-11 -26,-23l51 0zm-106 -52l51 0 0 0 0 1 0 2 0 1 1 2 0 1 0 2 1 1 0 1 1 2 1 1 0 1 1 2 1 1 1 1 1 1 1 1 1 1 1 1 1 0 2 1 1 1 1 1 1 0 2 1 1 0 1 1 1 0 2 0 1 1 2 0 1 0 2 0 0 46 -5 -1 -4 0 -4 0 -4 -1 -4 -1 -4 -1 -4 -1 -3 -1 -4 -2 -4 -2 -3 -2 -3 -2 -3 -2 -3 -2 -3 -2 -3 -3 -3 -2 -2 -3 -3 -3 -2 -3 -2 -3 -2 -3 -2 -3 -1 -4 -2 -3 -1 -3 -1 -4 -1 -3 -1 -4 0 -4 0 -4 0 -3 0 0zm0 0c0,-13 11,-23 25,-23 14,0 26,10 26,23l-51 0z"/>
  </g>
  <path class="fil11 str1" d="M3611 3057l4044 0 0 2396 0 322 -4044 0 0 -2718z"/>
  <path class="fil12" d="M3611 3057l4044 0 0 1523 -4044 -1291c6,-119 0,-152 0,-232z"/>
  <path class="fil13 str1" d="M3611 3057l4044 0c0,906 0,1812 0,2718l-4044 0 0 -2718z"/>
  <g>
   <path class="fil14" d="M4272 4161c-3,0 -6,-8 -6,-18 0,-10 3,-18 6,-18l0 36zm449 0l-449 0 0 -36 449 0 0 36zm0 -36c4,0 7,8 7,18 0,10 -3,18 -7,18l0 -36z"/>
  </g>
  <g>
   <path class="fil14" d="M4279 5484c-18,0 -32,-8 -32,-18 0,-10 14,-18 32,-18l0 36zm2208 0l-2208 0 0 -36 2208 0 0 36zm0 -36c18,0 33,8 33,18 0,10 -15,18 -33,18l0 -36zm-2208 168c-18,0 -32,-8 -32,-18 0,-9 14,-17 32,-17l0 35zm791 0l-791 0 0 -35 791 0 0 0 0 35zm0 -35c18,0 32,8 32,17 0,10 -14,18 -32,18l0 -35zm1417 35l-1417 0 0 -35 1417 0 0 35zm0 -35c18,0 33,8 33,17 0,10 -15,18 -33,18l0 -35z"/>
  </g>
  <path class="fil15 str2" d="M4022 3620l-63 0c-14,0 -26,-5 -36,-14 -10,-10 -15,-22 -15,-36l0 -153c0,-14 5,-26 15,-36 10,-9 22,-14 36,-14l63 0c4,0 7,1 9,4 3,2 4,5 4,8 0,3 -1,6 -3,9 -2,2 -6,4 -10,4l-63 0c-8,0 -14,2 -19,7 -2,3 -4,5 -5,8 -1,3 -2,7 -2,10l0 153c0,7 3,13 7,18 3,2 6,4 9,5 3,2 7,2 10,2l63 0c4,0 7,1 9,4 3,3 4,6 4,9 0,3 -1,5 -3,8 -2,3 -6,4 -10,4zm216 -12c0,4 -2,7 -4,9 -2,2 -5,3 -9,3 -3,0 -6,-1 -9,-3 -2,-2 -4,-5 -4,-9l0 -216 -101 0 0 216c0,4 -1,7 -4,9 -2,2 -5,3 -9,3 -3,0 -6,-1 -9,-3 -2,-2 -4,-5 -4,-9l0 -229c0,-8 5,-12 13,-12l127 0c8,0 13,4 13,12l0 229zm203 0c0,4 -2,7 -4,9 -2,2 -5,3 -9,3 -3,0 -6,-1 -9,-3 -2,-2 -4,-5 -4,-9l0 -180 -103 186c-1,2 -3,4 -5,6l-3 2c-1,0 -2,0 -4,1 -2,0 -5,-2 -8,-4 -2,-3 -4,-6 -4,-11l0 -229c0,-3 2,-6 4,-9 3,-2 6,-3 9,-3 3,0 6,1 9,3 2,2 4,5 4,9l0 180 103 -186c1,-2 3,-4 5,-6 2,-2 5,-2 7,-2 3,0 5,1 8,4 2,2 4,6 4,10l0 229zm165 12l-64 0c-14,0 -26,-5 -36,-14 -10,-10 -15,-22 -15,-36l0 -153c0,-14 5,-26 15,-36 10,-9 22,-14 36,-14l64 0c3,0 6,1 9,4 2,2 3,5 3,8 0,3 -1,6 -3,9 -2,2 -5,4 -9,4l-64 0c-7,0 -13,2 -18,7 -3,3 -4,5 -6,8 -1,3 -1,7 -1,10l0 153c0,7 2,13 7,18 2,2 5,4 8,5 4,2 7,2 10,2l64 0c3,0 6,1 9,4 2,3 3,6 3,9 0,3 -1,5 -3,8 -2,3 -5,4 -9,4zm204 -50c0,14 -5,25 -15,35 -10,10 -22,15 -36,15l-51 0c-14,0 -26,-5 -36,-14 -10,-10 -15,-22 -15,-36l0 -153c0,-14 5,-26 15,-36 10,-9 22,-14 36,-14l51 0c14,0 26,5 36,14 10,10 15,22 15,36l0 153zm-26 0l0 -153c0,-7 -2,-13 -7,-18 -5,-5 -11,-7 -18,-7l-51 0c-7,0 -13,2 -18,7 -3,3 -4,5 -6,8 -1,3 -1,7 -1,10l0 153c0,7 2,13 7,18 2,2 5,4 8,5 4,2 7,2 10,2l51 0c7,0 13,-2 18,-7 5,-5 7,-11 7,-18zm122 -94l107 -106c2,-2 5,-3 8,-3 4,0 7,1 9,4 3,2 4,5 4,9 0,2 -1,5 -3,8l-76 76 78 137 2 7c0,3 -2,6 -4,9 -3,2 -6,3 -10,3 -4,0 -7,-2 -10,-6l-75 -133 -30 30 0 97c0,4 -1,7 -4,9 -2,2 -5,3 -9,3 -3,0 -6,-1 -9,-3 -2,-2 -3,-5 -3,-9l0 -229c0,-3 1,-6 4,-9 2,-2 5,-3 8,-3 3,0 6,1 9,3 3,2 4,5 4,9l0 97zm482 132c0,4 -1,7 -4,9 -2,2 -5,3 -9,3 -3,0 -6,-1 -9,-3 -2,-2 -3,-5 -3,-9l0 -180 -103 186c-2,2 -4,4 -6,6l-3 2c-1,0 -2,0 -4,1 -2,0 -5,-2 -8,-4 -2,-3 -3,-6 -3,-11l0 -229c0,-3 1,-6 3,-9 3,-2 6,-3 9,-3 4,0 7,1 9,3 3,2 4,5 4,9l0 180 103 -186c1,-2 3,-4 5,-6 3,-2 5,-2 7,-2 3,0 6,1 8,4 3,2 4,6 4,10l0 229zm127 -114l-38 0c-4,0 -7,-2 -10,-4 -2,-3 -3,-6 -3,-9 0,-3 1,-6 4,-9 2,-2 5,-4 9,-4l38 0c7,0 13,-2 18,-7 5,-5 7,-11 7,-18l0 -26c0,-7 -2,-13 -7,-18 -5,-5 -11,-7 -18,-7l-25 0c-6,0 -11,1 -15,5 -4,2 -7,7 -9,12 -1,3 -2,5 -5,6 -1,1 -2,2 -3,3l-4 0c-4,0 -7,-1 -10,-3 -2,-3 -3,-6 -3,-9l0 -5c4,-10 10,-18 19,-25 8,-6 18,-9 29,-9l26 0c14,0 26,5 36,14 10,10 15,22 15,36l0 26c0,7 -2,14 -5,21 -3,7 -7,12 -13,17 12,9 18,22 18,38l0 51c0,14 -5,25 -15,35 -10,10 -22,15 -36,15l-26 0c-10,0 -20,-3 -29,-9 -9,-6 -15,-15 -19,-25l0 -5c0,-3 1,-6 3,-9 3,-2 6,-4 10,-4 5,0 9,3 11,9 2,5 5,10 9,14 5,3 10,4 16,4l25 0c7,0 13,-2 18,-7 5,-5 7,-11 7,-18l0 -51c0,-8 -2,-13 -6,-18 -4,-5 -10,-7 -19,-7zm126 0l0 101 77 0c7,0 13,-2 18,-7 5,-5 7,-11 7,-18l0 -51c0,-7 -2,-13 -7,-18 -5,-5 -11,-7 -18,-7l-77 0zm0 -26l77 0c13,0 25,5 35,15 10,10 15,22 15,36l0 51c0,14 -5,25 -15,35 -9,10 -21,15 -35,15l-89 0c-9,0 -13,-4 -13,-12l0 -229c0,-8 4,-12 13,-12l101 0c4,0 7,1 9,4 3,2 4,5 4,8 0,3 -1,6 -3,9 -2,2 -5,4 -10,4l-89 0 0 76zm330 140c0,4 -1,7 -3,9 -3,2 -6,3 -9,3 -4,0 -7,-1 -9,-3 -3,-2 -4,-5 -4,-9l0 -180 -103 186c-1,2 -3,4 -6,6l-2 2c-1,0 -2,0 -4,1 -3,0 -5,-2 -9,-4 -2,-3 -3,-6 -3,-11l0 -229c0,-3 1,-6 4,-9 2,-2 5,-3 9,-3 3,0 6,1 8,3 3,2 4,5 4,9l0 180 103 -186c2,-2 3,-4 6,-6 2,-2 4,-2 7,-2 2,0 5,1 7,4 3,2 4,6 4,10l0 229zm76 -114l76 0c8,0 13,-3 18,-8 5,-4 8,-10 8,-18l0 -51c0,-7 -3,-13 -7,-18 -5,-5 -11,-7 -19,-7l-76 0 0 102zm0 25l0 89c0,4 -1,7 -3,9 -3,2 -6,3 -9,3 -4,0 -7,-1 -9,-3 -3,-2 -4,-5 -4,-9l0 -229c0,-8 4,-12 13,-12l88 0c15,0 27,5 36,14 10,10 15,22 15,36l0 51c0,14 -5,26 -15,36 -10,10 -22,15 -36,15l-76 0zm197 38l-18 55c-1,2 -3,5 -5,6 -2,1 -4,2 -7,2 -3,0 -6,-1 -9,-3 -2,-2 -4,-5 -4,-9l1 -4 76 -229c3,-7 7,-11 12,-11 6,0 10,4 12,11l76 229 1 4c0,3 -1,6 -4,9 -3,2 -6,3 -9,3 -2,0 -4,0 -6,-1 -2,-1 -4,-3 -6,-7l-18 -55 -92 0zm84 -26l-38 -112 -37 112 75 0zm113 -139l-51 0c-4,0 -7,-1 -10,-4 -2,-2 -3,-5 -3,-9 0,-3 1,-5 3,-8 2,-3 6,-4 10,-4l127 0c3,0 6,1 9,4 2,2 3,5 3,8 0,3 -1,6 -3,9 -2,2 -5,4 -9,4l-51 0 0 216c0,4 -1,7 -4,9 -2,2 -5,3 -9,3 -3,0 -6,-1 -9,-3 -2,-2 -3,-5 -3,-9l0 -216zm164 76l64 0c4,0 7,2 9,4 3,3 4,6 4,9 0,3 -1,6 -3,8 -3,3 -6,5 -10,5l-64 0 0 101 89 0c4,0 7,1 9,4 3,3 4,6 4,9 0,3 -1,6 -3,8 -2,3 -5,4 -10,4l-101 0c-9,0 -13,-4 -13,-12l0 -229c0,-8 4,-12 13,-12l101 0c4,0 7,1 9,4 3,2 4,5 4,8 0,3 -1,6 -3,9 -2,2 -5,4 -10,4l-89 0 0 76zm305 140c0,4 -1,7 -4,9 -2,2 -5,3 -9,3 -3,0 -6,-1 -8,-3 -3,-2 -4,-5 -4,-9l0 -216 -41 0 -61 219c-1,3 -2,5 -5,7 -2,1 -5,2 -7,2 -4,0 -7,-1 -10,-3 -2,-2 -3,-5 -3,-9 0,-2 0,-3 0,-4l64 -228c2,-6 6,-9 12,-9l63 0c9,0 13,4 13,12l0 229zm76 -140l64 0c3,0 6,2 8,4 3,3 4,6 4,9 0,3 -1,6 -3,8 -2,3 -5,5 -9,5l-64 0 0 101 89 0c3,0 6,1 9,4 2,3 4,6 4,9 0,3 -1,6 -4,8 -2,3 -5,4 -9,4l-102 0c-8,0 -13,-4 -13,-12l0 -229c0,-8 5,-12 13,-12l102 0c3,0 6,1 9,4 2,2 4,5 4,8 0,3 -1,6 -4,9 -2,2 -5,4 -9,4l-89 0 0 76zm254 -127l-51 0c-4,0 -7,-1 -10,-3 -2,-3 -3,-6 -3,-9 0,-3 1,-6 3,-9 2,-2 6,-4 10,-4l51 0c3,0 6,1 8,4 3,3 4,6 4,9 0,3 -1,5 -3,8 -2,3 -5,4 -9,4zm50 267c0,4 -1,7 -3,9 -3,2 -6,3 -9,3 -4,0 -7,-1 -9,-3 -3,-2 -4,-5 -4,-9l0 -180 -103 186c-2,2 -3,4 -6,6l-2 2c-1,0 -3,0 -4,1 -3,0 -6,-2 -9,-4 -2,-3 -3,-6 -3,-11l0 -229c0,-3 1,-6 4,-9 2,-2 5,-3 9,-3 3,0 6,1 8,3 3,2 4,5 4,9l0 180 103 -186c1,-2 3,-4 6,-6 2,-1 4,-2 7,-2 2,0 5,1 7,4 3,2 4,6 4,10l0 229z"/>
  <g>
   <path class="fil14" d="M4278 5419c-18,0 -32,-8 -32,-18 0,-10 14,-18 32,-18l0 36zm2208 0l-2208 0 0 -36 2208 0 0 36zm0 -36c18,0 33,8 33,18 0,10 -15,18 -33,18l0 -36zm-2208 168c-18,0 -32,-8 -32,-18 0,-10 14,-18 32,-18l0 36zm791 0l-791 0 0 -36 791 0 0 0 0 36zm0 -36c18,0 32,8 32,18 0,10 -14,18 -32,18l0 -36zm1417 36l-1417 0 0 -36 1417 0 0 36zm0 -36c18,0 33,8 33,18 0,10 -15,18 -33,18l0 -36z"/>
  </g>
  <g>
   <path class="fil14" d="M4965 4161c-4,0 -7,-8 -7,-18 0,-10 3,-18 7,-18l0 36zm449 0l-449 0 0 -36 449 0 0 36zm0 -36c3,0 6,8 6,18 0,10 -3,18 -6,18l0 -36z"/>
  </g>
  <g>
   <path class="fil14" d="M5658 4161c-4,0 -7,-8 -7,-18 0,-10 3,-18 7,-18l0 36zm448 0l-448 0 0 -36 448 0 0 36zm0 -36c4,0 7,8 7,18 0,10 -3,18 -7,18l0 -36z"/>
  </g>
  <g>
   <path class="fil14" d="M4272 4256c-3,0 -6,-8 -6,-18 0,-10 3,-18 6,-18l0 36zm449 0l-449 0 0 -36 449 0 0 36zm0 -36c4,0 7,8 7,18 0,10 -3,18 -7,18l0 -36z"/>
  </g>
  <g>
   <path class="fil14" d="M4965 4256c-4,0 -7,-8 -7,-18 0,-10 3,-18 7,-18l0 36zm449 0l-449 0 0 -36 449 0 0 36zm0 -36c3,0 6,8 6,18 0,10 -3,18 -6,18l0 -36z"/>
  </g>
  <g>
   <path class="fil14" d="M5658 4256c-4,0 -7,-8 -7,-18 0,-10 3,-18 7,-18l0 36zm448 0l-448 0 0 -36 448 0 0 36zm0 -36c4,0 7,8 7,18 0,10 -3,18 -7,18l0 -36z"/>
  </g>
  <g>
   <path class="fil14" d="M4272 4340c-3,0 -6,-8 -6,-18 0,-10 3,-18 6,-18l0 36zm449 0l-449 0 0 -36 449 0 0 36zm0 -36c4,0 7,8 7,18 0,10 -3,18 -7,18l0 -36z"/>
  </g>
  <g>
   <path class="fil14" d="M4965 4340c-4,0 -7,-8 -7,-18 0,-10 3,-18 7,-18l0 36zm449 0l-449 0 0 -36 449 0 0 36zm0 -36c3,0 6,8 6,18 0,10 -3,18 -6,18l0 -36z"/>
  </g>
  <g>
   <path class="fil14" d="M5658 4340c-4,0 -7,-8 -7,-18 0,-10 3,-18 7,-18l0 36zm448 0l-448 0 0 -36 448 0 0 36zm0 -36c4,0 7,8 7,18 0,10 -3,18 -7,18l0 -36z"/>
  </g>
  <g>
   <path class="fil14" d="M4272 4435c-3,0 -6,-8 -6,-18 0,-9 3,-17 6,-17l0 35zm449 0l-449 0 0 -35 449 0 0 35zm0 -35c4,0 7,8 7,17 0,10 -3,18 -7,18l0 -35z"/>
  </g>
  <g>
   <path class="fil14" d="M4965 4435c-4,0 -7,-8 -7,-18 0,-9 3,-17 7,-17l0 35zm449 0l-449 0 0 -35 449 0 0 35zm0 -35c3,0 6,8 6,17 0,10 -3,18 -6,18l0 -35z"/>
  </g>
  <g>
   <path class="fil14" d="M5658 4435c-4,0 -7,-8 -7,-18 0,-9 3,-17 7,-17l0 35zm448 0l-448 0 0 -35 448 0 0 35zm0 -35c4,0 7,8 7,17 0,10 -3,18 -7,18l0 -35z"/>
  </g>
  <path class="fil16 str3" d="M3787 5004l0 -462 2166 0 450 -297 397 297 754 0 0 462 -3767 0z"/>
  <g>
   <path class="fil14" d="M4272 5132c-3,0 -6,-8 -6,-18 0,-10 3,-18 6,-18l0 36zm449 0l-449 0 0 -36 449 0 0 36zm0 -36c4,0 7,8 7,18 0,10 -3,18 -7,18l0 -36z"/>
  </g>
  <g>
   <path class="fil14" d="M4965 5132c-4,0 -7,-8 -7,-18 0,-10 3,-18 7,-18l0 36zm449 0l-449 0 0 -36 449 0 0 36zm0 -36c3,0 6,8 6,18 0,10 -3,18 -6,18l0 -36z"/>
  </g>
  <g>
   <path class="fil14" d="M5635 5132c-4,0 -7,-8 -7,-18 0,-10 3,-18 7,-18l0 36zm448 0l-448 0 0 -36 448 0 0 36zm0 -36c4,0 7,8 7,18 0,10 -3,18 -7,18l0 -36z"/>
  </g>
  <g>
   <path class="fil14" d="M4272 5227c-3,0 -6,-8 -6,-18 0,-10 3,-18 6,-18l0 36zm449 0l-449 0 0 -36 449 0 0 36zm0 -36c4,0 7,8 7,18 0,10 -3,18 -7,18l0 -36z"/>
  </g>
  <g>
   <path class="fil14" d="M4965 5227c-4,0 -7,-8 -7,-18 0,-10 3,-18 7,-18l0 36zm449 0l-449 0 0 -36 449 0 0 36zm0 -36c3,0 6,8 6,18 0,10 -3,18 -6,18l0 -36z"/>
  </g>
  <g>
   <path class="fil14" d="M5635 5227c-4,0 -7,-8 -7,-18 0,-10 3,-18 7,-18l0 36zm448 0l-448 0 0 -36 448 0 0 36zm0 -36c4,0 7,8 7,18 0,10 -3,18 -7,18l0 -36z"/>
  </g>
  <path class="fil17 str4" d="M4377 4860c0,3 -1,5 -2,7 -2,1 -4,2 -6,2 -3,0 -5,-1 -6,-2 -2,-2 -3,-4 -3,-7l0 -144 -68 0 0 144c0,3 0,5 -2,7 -2,1 -4,2 -6,2 -2,0 -4,-1 -6,-2 -2,-2 -2,-4 -2,-7l0 -152c0,-6 2,-9 8,-9l85 0c5,0 8,3 8,9l0 152zm51 -76l51 0c4,0 8,-1 12,-5 3,-3 5,-7 5,-12l0 -34c0,-5 -2,-9 -5,-12 -3,-3 -7,-5 -12,-5l-51 0 0 68zm0 17l0 59c0,3 -1,5 -3,7 -1,1 -3,2 -6,2 -2,0 -4,-1 -6,-2 -1,-2 -2,-4 -2,-7l0 -152c0,-6 3,-9 8,-9l60 0c9,0 17,4 24,10 6,7 9,15 9,24l0 34c0,9 -3,17 -9,24 -7,7 -15,10 -24,10l-51 0zm220 34c0,9 -4,17 -10,24 -7,6 -15,10 -24,10l-34 0c-9,0 -17,-4 -24,-10 -6,-7 -10,-15 -10,-24l0 -102c0,-9 4,-17 10,-24 7,-6 15,-10 24,-10l34 0c9,0 17,4 24,10 6,7 10,15 10,24l0 102zm-17 0l0 -102c0,-5 -2,-9 -5,-12 -3,-3 -7,-5 -12,-5l-34 0c-5,0 -9,2 -12,5 -2,2 -3,4 -4,6 0,2 -1,4 -1,6l0 102c0,5 2,9 5,12 2,1 3,3 5,4 3,0 5,1 7,1l34 0c5,0 9,-2 12,-5 3,-3 5,-7 5,-12zm140 -119l-59 0 0 144c0,3 -1,5 -2,7 -2,1 -4,2 -6,2 -3,0 -5,-1 -6,-2 -2,-2 -3,-4 -3,-7l0 -152c0,-6 3,-9 9,-9l67 0c3,0 5,1 6,3 2,2 3,4 3,6 0,2 -1,4 -2,6 -2,1 -4,2 -7,2zm136 119c0,9 -4,17 -10,24 -7,6 -15,10 -24,10l-34 0c-9,0 -17,-4 -24,-10 -7,-7 -10,-15 -10,-24l0 -102c0,-9 3,-17 10,-24 6,-6 14,-10 24,-10l34 0c9,0 17,4 24,10 6,7 10,15 10,24l0 102zm-17 0l0 -102c0,-5 -2,-9 -5,-12 -3,-3 -7,-5 -12,-5l-34 0c-5,0 -9,2 -12,5 -2,2 -3,4 -4,6 -1,2 -1,4 -1,6l0 102c0,5 1,9 5,12 1,1 3,3 5,4 3,0 5,1 7,1l34 0c4,0 8,-2 12,-5 3,-3 5,-7 5,-12zm149 25c0,3 -1,5 -3,7 -1,1 -3,2 -6,2 -2,0 -4,-1 -6,-2 -1,-2 -2,-4 -2,-7l0 -144 -28 0 -40 146c-1,2 -1,4 -3,5 -2,1 -3,2 -5,2 -3,0 -5,-1 -6,-2 -2,-2 -3,-4 -3,-6 0,-2 0,-2 0,-3l43 -152c1,-4 4,-7 8,-7l42 0c6,0 9,3 9,9l0 152zm135 -25c0,9 -3,17 -10,24 -7,6 -15,10 -24,10l-34 0c-9,0 -17,-4 -24,-10 -6,-7 -10,-15 -10,-24l0 -102c0,-9 4,-17 10,-24 7,-6 15,-10 24,-10l34 0c9,0 17,4 24,10 7,7 10,15 10,24l0 102zm-17 0l0 -102c0,-5 -2,-9 -5,-12 -3,-3 -7,-5 -12,-5l-34 0c-5,0 -9,2 -12,5 -2,2 -3,4 -4,6 0,2 -1,4 -1,6l0 102c0,5 2,9 5,12 2,1 4,3 5,4 3,0 5,1 7,1l34 0c5,0 9,-2 12,-5 3,-3 5,-7 5,-12zm140 34l-42 0c-9,0 -17,-4 -24,-10 -6,-7 -10,-15 -10,-24l0 -102c0,-9 4,-17 10,-24 7,-6 15,-10 24,-10l42 0c3,0 5,1 6,3 2,2 3,4 3,6 0,2 -1,4 -2,6 -2,1 -4,2 -7,2l-42 0c-5,0 -9,2 -12,5 -2,2 -3,4 -4,6 -1,2 -1,4 -1,6l0 102c0,5 2,9 5,12 2,1 3,3 5,4 3,0 5,1 7,1l42 0c3,0 5,1 6,2 2,2 3,4 3,6 0,2 -1,4 -2,6 -2,2 -4,3 -7,3zm137 -34c0,9 -4,17 -10,24 -7,6 -15,10 -24,10l-34 0c-9,0 -17,-4 -24,-10 -7,-7 -10,-15 -10,-24l0 -102c0,-9 3,-17 10,-24 6,-6 14,-10 24,-10l34 0c9,0 17,4 24,10 6,7 10,15 10,24l0 102zm-17 0l0 -102c0,-5 -2,-9 -5,-12 -3,-3 -7,-5 -12,-5l-34 0c-5,0 -9,2 -12,5 -2,2 -3,4 -4,6 -1,2 -1,4 -1,6l0 102c0,5 1,9 5,12 1,1 3,3 5,4 3,0 5,1 7,1l34 0c4,0 8,-2 12,-5 3,-3 5,-7 5,-12zm149 -63c5,3 9,7 12,12 3,6 4,11 4,17l0 34c0,9 -3,17 -9,24 -7,6 -15,10 -24,10l-60 0c-5,0 -8,-3 -8,-9l0 -152c0,-6 3,-9 8,-9l51 0c10,0 18,4 24,10 7,7 10,15 10,24l0 17c0,4 -1,8 -2,11 -1,4 -3,8 -6,11zm-68 12l0 68 51 0c4,0 8,-2 12,-5 3,-3 5,-7 5,-12l0 -34c0,-5 -2,-9 -5,-12 -3,-3 -7,-5 -12,-5l-51 0zm42 -17c5,0 9,-1 12,-5 4,-3 5,-7 5,-12l0 -17c0,-5 -1,-8 -5,-12 -3,-3 -7,-5 -12,-5l-42 0 0 51 42 0zm97 59l-12 37c0,2 -2,3 -3,4 -1,1 -3,1 -5,2 -2,0 -4,-1 -5,-3 -2,-1 -3,-3 -3,-6l0 -3 51 -152c2,-5 5,-7 8,-7 4,0 6,2 8,7l51 152 0 3c0,3 -1,5 -2,6 -2,2 -4,3 -6,3 -1,0 -3,-1 -4,-1 -1,-1 -3,-2 -4,-5l-12 -37 -62 0zm56 -17l-25 -74 -25 74 50 0zm169 51c0,3 -1,5 -3,7 -1,1 -3,2 -6,2 -2,0 -4,-1 -6,-2 -1,-2 -2,-4 -2,-7l0 -144 -28 0 -40 146c-1,2 -2,4 -3,5 -2,1 -3,2 -5,2 -3,0 -5,-1 -7,-2 -1,-2 -2,-4 -2,-6 0,-2 0,-2 0,-3l43 -152c1,-4 4,-7 8,-7l42 0c6,0 9,3 9,9l0 152zm153 -8l16 -145c0,-5 2,-8 8,-8l51 0c6,0 8,3 8,9l0 144 9 0c6,0 8,3 8,8l0 17c0,2 0,4 -2,6 -2,2 -4,3 -6,3 -2,0 -4,-1 -6,-3 -2,-1 -2,-3 -2,-6l0 -8 -85 0 0 8c0,2 -1,4 -3,6 -2,2 -4,3 -6,3 -2,0 -4,-1 -5,-3 -2,-1 -3,-3 -3,-6l0 -17c0,-5 3,-8 8,-8l10 0zm66 0l0 -136 -34 0 -15 136 49 0zm162 -17c0,9 -3,17 -10,24 -7,6 -15,10 -24,10l-34 0c-9,0 -17,-4 -24,-10 -6,-7 -10,-15 -10,-24l0 -102c0,-9 4,-17 10,-24 7,-6 15,-10 24,-10l34 0c10,0 18,4 24,10 7,7 10,15 10,24l0 102zm-17 0l0 -102c0,-5 -1,-9 -5,-12 -3,-3 -7,-5 -12,-5l-34 0c-4,0 -9,2 -12,5 -1,2 -3,4 -4,6 0,2 -1,4 -1,6l0 102c0,5 2,9 5,12 2,1 4,3 6,4 2,0 4,1 6,1l34 0c5,0 9,-2 12,-5 3,-3 5,-7 5,-12zm141 34l-43 0c-9,0 -17,-4 -24,-10 -6,-7 -10,-15 -10,-24l0 -102c0,-9 4,-17 10,-24 7,-6 15,-10 24,-10l43 0c2,0 4,1 6,3 1,2 2,4 2,6 0,2 -1,4 -2,6 -2,1 -4,2 -6,2l-43 0c-5,0 -9,2 -12,5 -2,2 -3,4 -4,6 0,2 -1,4 -1,6l0 102c0,5 2,9 5,12 2,1 4,3 5,4 3,0 5,1 7,1l43 0c2,0 4,1 6,2 1,2 2,4 2,6 0,2 -1,4 -2,6 -2,2 -4,3 -6,3zm59 -85l50 0c5,0 9,-1 12,-5 4,-3 5,-7 5,-12l0 -34c0,-5 -1,-9 -4,-12 -4,-3 -8,-5 -13,-5l-50 0 0 68zm0 17l0 59c0,3 -1,5 -3,7 -1,1 -3,2 -6,2 -2,0 -4,-1 -6,-2 -1,-2 -2,-4 -2,-7l0 -152c0,-6 3,-9 8,-9l59 0c10,0 18,4 24,10 7,7 10,15 10,24l0 34c0,9 -3,17 -10,24 -6,7 -14,10 -24,10l-50 0zm220 34c0,9 -4,17 -10,24 -7,6 -15,10 -24,10l-34 0c-9,0 -17,-4 -24,-10 -7,-7 -10,-15 -10,-24l0 -102c0,-9 3,-17 10,-24 7,-6 15,-10 24,-10l34 0c9,0 17,4 24,10 6,7 10,15 10,24l0 102zm-17 0l0 -102c0,-5 -2,-9 -5,-12 -3,-3 -7,-5 -12,-5l-34 0c-5,0 -9,2 -12,5 -2,2 -3,4 -4,6 -1,2 -1,4 -1,6l0 102c0,5 2,9 5,12 2,1 3,3 5,4 3,0 5,1 7,1l34 0c5,0 8,-2 12,-5 3,-3 5,-7 5,-12zm149 -51l0 -76c0,-2 0,-4 2,-6 2,-2 4,-3 6,-3 2,0 4,1 6,3 2,1 3,3 3,6l0 152c0,3 -1,5 -3,7 -1,1 -3,2 -6,2 -2,0 -4,-1 -6,-2 -2,-2 -2,-4 -2,-7l0 -59 -51 0c-9,0 -17,-3 -24,-10 -7,-7 -10,-15 -10,-24l0 -59c0,-2 1,-4 3,-6 1,-2 3,-3 5,-3 3,0 5,1 6,3 2,1 3,3 3,6l0 59c0,5 1,9 5,12 1,2 3,3 5,4 3,1 5,1 7,1l51 0zm135 -17l0 -59c0,-2 1,-4 3,-6 1,-2 3,-3 5,-3 3,0 5,1 6,3 2,1 3,3 3,6l0 152c0,2 -1,5 -3,6 -2,2 -4,3 -6,3 -2,0 -4,-1 -6,-2 -1,-2 -2,-4 -2,-7l0 -76 -68 0 0 76c0,3 -1,5 -2,7 -2,1 -4,2 -6,2 -2,0 -4,-1 -6,-2 -2,-2 -3,-4 -3,-7l0 -152c0,-2 1,-4 3,-6 2,-2 4,-2 6,-2 2,0 4,0 6,2 1,1 2,3 2,6l0 59 68 0zm152 68c0,9 -3,17 -10,24 -6,6 -14,10 -24,10l-33 0c-10,0 -18,-4 -24,-10 -7,-7 -10,-15 -10,-24l0 -102c0,-9 3,-17 10,-24 6,-6 14,-10 24,-10l33 0c10,0 18,4 24,10 7,7 10,15 10,24l0 102zm-17 0l0 -102c0,-5 -1,-9 -4,-12 -4,-3 -8,-5 -13,-5l-33 0c-5,0 -9,2 -13,5 -1,2 -2,4 -3,6 -1,2 -1,4 -1,6l0 102c0,5 1,9 4,12 2,1 4,3 6,4 2,0 4,1 7,1l33 0c5,0 9,-2 12,-5 4,-3 5,-7 5,-12z"/>
 </g>
</svg>
