<?xml version="1.0" encoding="UTF-8"?>
<!DOCTYPE svg PUBLIC "-//W3C//DTD SVG 1.0//EN" "http://www.w3.org/TR/2001/REC-SVG-20010904/DTD/svg10.dtd">
<!-- Creator: CorelDRAW X7 -->
<svg xmlns="http://www.w3.org/2000/svg" xml:space="preserve" width="115mm" height="70.122mm" version="1.0" style="shape-rendering:geometricPrecision; text-rendering:geometricPrecision; image-rendering:optimizeQuality; fill-rule:evenodd; clip-rule:evenodd"
viewBox="0 0 11500 7012"
 xmlns:xlink="http://www.w3.org/1999/xlink">
 <defs>
  <style type="text/css">
   <![CDATA[
    .str4 {stroke:#3497A1;stroke-width:8.76524}
    .str1 {stroke:#3696A0;stroke-width:8.76524}
    .str2 {stroke:#2B2A29;stroke-width:3.5061}
    .str0 {stroke:#5B5B5B;stroke-width:2.67165}
    .str3 {stroke:#2E99A3;stroke-width:2.67165}
    .str12 {stroke:#CC7588;stroke-width:52.5915;stroke-linecap:round;stroke-linejoin:round}
    .str5 {stroke:#024541;stroke-width:52.5915;stroke-linecap:round;stroke-linejoin:round}
    .str8 {stroke:#024541;stroke-width:41.6279;stroke-linecap:round;stroke-linejoin:round}
    .str9 {stroke:#CC7588;stroke-width:60.4977;stroke-linecap:round;stroke-linejoin:round}
    .str11 {stroke:#CC7588;stroke-width:52.5915;stroke-linecap:round;stroke-linejoin:round}
    .str7 {stroke:#024541;stroke-width:52.5915;stroke-linecap:round;stroke-linejoin:round}
    .str16 {stroke:#CC7588;stroke-width:52.5915;stroke-linecap:round;stroke-linejoin:round}
    .str10 {stroke:#CC7588;stroke-width:52.5915;stroke-linecap:round;stroke-linejoin:round}
    .str6 {stroke:#024541;stroke-width:52.5915;stroke-linecap:round;stroke-linejoin:round}
    .str14 {stroke:#CC7588;stroke-width:52.5915;stroke-linecap:round;stroke-linejoin:round}
    .str15 {stroke:#B9687A;stroke-width:52.5915;stroke-linecap:round;stroke-linejoin:round}
    .str13 {stroke:#B9687A;stroke-width:52.5915;stroke-linecap:round;stroke-linejoin:round}
    .fil13 {fill:none}
    .fil25 {fill:#FEFEFE}
    .fil19 {fill:#C5C6C6}
    .fil31 {fill:#F9CCC3}
    .fil23 {fill:#A75F4A}
    .fil27 {fill:#CC6F3C}
    .fil15 {fill:#E31E24}
    .fil32 {fill:#B9687A}
    .fil22 {fill:#B7B0A7}
    .fil16 {fill:#444342}
    .fil28 {fill:#024541}
    .fil29 {fill:#00315E}
    .fil2 {fill:#0050A0}
    .fil17 {fill:#0E1111}
    .fil14 {fill:#1884F0}
    .fil18 {fill:#212226}
    .fil3 {fill:#3497A1}
    .fil21 {fill:#3696A0}
    .fil8 {fill:#3C4F59}
    .fil20 {fill:#434244}
    .fil7 {fill:#7C8E97}
    .fil9 {fill:#8A771A}
    .fil6 {fill:#BB8076}
    .fil5 {fill:#D4EFFF}
    .fil4 {fill:#DBBCB6}
    .fil10 {fill:#E9E5D3}
    .fil11 {fill:#FDF3BE}
    .fil1 {fill:#FEE9D0}
    .fil26 {fill:#FFCA9C}
    .fil12 {fill:white}
    .fil30 {fill:#4D897C;fill-rule:nonzero}
    .fil24 {fill:#024541;fill-rule:nonzero}
    .fil0 {fill:url(#id0)}
   ]]>
  </style>
  <radialGradient id="id0" gradientUnits="userSpaceOnUse" gradientTransform="matrix(1.17124 -0 -0 1.92083 -985 -3229)" cx="5750" cy="3506.1" r="3506.1" fx="5750" fy="3506.1">
   <stop offset="0" style="stop-opacity:1; stop-color:#FEFEFE"/>
   <stop offset="0.439216" style="stop-opacity:1; stop-color:#FEFEFE"/>
   <stop offset="1" style="stop-opacity:1; stop-color:#D1E2F2"/>
  </radialGradient>
 </defs>
 <g id="Layer_x0020_1">
  <metadata id="CorelCorpID_0Corel-Layer"/>
  <path class="fil0" d="M0 0l11500 0 0 7012 -11500 0 0 -7012z"/>
  <g id="_1078009647152">
   <g>
    <g>
     <path class="fil1 str0" d="M4188 2181l-1137 0 0 -666 1137 0 0 666z"/>
     <path class="fil2 str0" d="M4270 1522l-1302 0 84 -162 1135 0 83 162z"/>
     <path class="fil1 str0" d="M3291 1528l326 -259 331 259 -657 0z"/>
     <path class="fil2 str0" d="M3297 1536l320 -253 324 253c5,4 11,3 15,-2 3,-4 3,-11 -2,-14l-331 -259c-4,-3 -9,-3 -13,0l-326 259c-4,3 -5,10 -2,14 4,5 11,6 15,2z"/>
     <path class="fil3 str0" d="M3261 2132l-162 0 0 -329 162 0 0 329z"/>
     <path class="fil4 str0" d="M3261 2132l0 -5 -157 0 0 -320 152 0 0 325 5 0 0 -5 0 5 5 0 0 -334 -172 0 0 338 172 0 0 -4 -5 0z"/>
     <path class="fil5 str0" d="M3180 1803l0 333 0 -333z"/>
     <path class="fil4 str0" d="M3175 1803l0 333 10 0 0 -333 -10 0z"/>
     <path class="fil3 str0" d="M4139 2132l-162 0 0 -329 162 0 0 329z"/>
     <path class="fil4 str0" d="M4139 2132l0 -5 -157 0 0 -320 152 0 0 325 5 0 0 -5 0 5 5 0 0 -334 -172 0 0 338 172 0 0 -4 -5 0z"/>
     <path class="fil5 str0" d="M4058 1803l0 333 0 -333z"/>
     <path class="fil4 str0" d="M4053 1803l0 333 10 0 0 -333 -10 0z"/>
     <path class="fil6 str0" d="M3395 2181l-18 0 0 -405 18 0 0 405z"/>
     <path class="fil6 str0" d="M3862 2181l-19 0 0 -405 19 0 0 405z"/>
     <path class="fil2 str0" d="M3898 1783l-558 0 0 -65 558 0 0 65z"/>
     <path class="fil7 str0" d="M3786 2181l-334 0 0 -372 334 0 0 372z"/>
     <path class="fil8 str0" d="M3621 2181l-4 0 0 -372 4 0 0 372z"/>
     <path class="fil8 str0" d="M3603 2008l-14 0c-3,0 -6,-2 -6,-5 0,-3 3,-5 6,-5l14 0c3,0 6,2 6,5 0,3 -3,5 -6,5z"/>
     <path class="fil8 str0" d="M3652 2008l-15 0c-3,0 -5,-2 -5,-5 0,-3 2,-5 5,-5l15 0c3,0 5,2 5,5 0,3 -2,5 -5,5z"/>
     <path class="fil3 str0" d="M3195 1686l-94 0 0 -118 94 0 0 118z"/>
     <path class="fil4 str0" d="M3195 1686l0 -5 -89 0 0 -108 84 0 0 113 5 0 0 -5 0 5 5 0 0 -123 -104 0 0 128 104 0 0 -5 -5 0z"/>
     <path class="fil3 str0" d="M3331 1686l-95 0 0 -118 95 0 0 118z"/>
     <path class="fil4 str0" d="M3331 1686l0 -5 -90 0 0 -108 85 0 0 113 5 0 0 -5 0 5 4 0 0 -123 -104 0 0 128 104 0 0 -5 -4 0z"/>
     <path class="fil3 str0" d="M3466 1686l-94 0 0 -118 94 0 0 118z"/>
     <path class="fil4 str0" d="M3466 1686l0 -5 -90 0 0 -108 85 0 0 113 5 0 0 -5 0 5 5 0 0 -123 -104 0 0 128 104 0 0 -5 -5 0z"/>
     <path class="fil3 str0" d="M3601 1686l-94 0 0 -118 94 0 0 118z"/>
     <path class="fil4 str0" d="M3601 1686l0 -5 -89 0 0 -108 85 0 0 113 4 0 0 -5 0 5 5 0 0 -123 -104 0 0 128 104 0 0 -5 -5 0z"/>
     <path class="fil3 str0" d="M3737 1686l-95 0 0 -118 95 0 0 118z"/>
     <path class="fil4 str0" d="M3737 1686l0 -5 -90 0 0 -108 85 0 0 113 5 0 0 -5 0 5 4 0 0 -123 -103 0 0 128 103 0 0 -5 -4 0z"/>
     <path class="fil3 str0" d="M3872 1686l-94 0 0 -118 94 0 0 118z"/>
     <path class="fil4 str0" d="M3872 1686l0 -5 -89 0 0 -108 84 0 0 113 5 0 0 -5 0 5 5 0 0 -123 -104 0 0 128 104 0 0 -5 -5 0z"/>
     <path class="fil3 str0" d="M4007 1686l-94 0 0 -118 94 0 0 118z"/>
     <path class="fil4 str0" d="M4007 1686l0 -5 -89 0 0 -108 85 0 0 113 4 0 0 -5 0 5 5 0 0 -123 -104 0 0 128 104 0 0 -5 -5 0z"/>
     <path class="fil3 str0" d="M4143 1686l-94 0 0 -118 94 0 0 118z"/>
     <path class="fil4 str0" d="M4143 1686l0 -5 -90 0 0 -108 85 0 0 113 5 0 0 -5 0 5 5 0 0 -123 -104 0 0 128 104 0 0 -5 -5 0z"/>
    </g>
    <path class="fil3 str1" d="M3424 2315l-46 0c-3,0 -6,-1 -8,-3 -2,-2 -3,-5 -3,-8 0,-3 1,-5 3,-8 2,-2 5,-4 8,-4l115 0c3,0 5,2 8,4 2,2 3,5 3,8 0,2 -1,5 -3,7 -2,3 -5,4 -8,4l-46 0 0 195c0,3 -1,6 -3,8 -2,2 -5,3 -9,3 -3,0 -5,-1 -7,-3 -3,-2 -4,-5 -4,-8l0 -195zm263 195c0,3 -1,6 -3,8 -3,2 -5,3 -9,3 -3,0 -5,-1 -8,-3 -2,-2 -3,-5 -3,-8l0 -162 -93 167c-1,2 -3,4 -5,6l-2 1c-1,0 -2,1 -4,1 -2,0 -4,-1 -7,-3 -2,-3 -3,-6 -3,-10l0 -206c0,-3 1,-6 3,-9 2,-1 5,-2 8,-2 3,0 6,1 8,2 2,2 3,5 3,9l0 162 93 -168c1,-1 3,-3 5,-5 2,-2 4,-2 6,-2 3,0 5,1 7,3 3,3 4,6 4,10l0 206zm68 -119l97 -95c2,-3 4,-4 7,-4 3,0 6,2 8,4 3,2 4,5 4,8 0,2 -1,5 -3,8l-68 68 70 124 1 6c0,3 -1,5 -3,8 -3,2 -5,3 -9,3 -3,0 -7,-2 -9,-6l-67 -119 -28 27 0 87c0,3 -1,6 -3,8 -2,2 -5,3 -8,3 -3,0 -6,-1 -8,-3 -2,-2 -4,-5 -4,-8l0 -206c0,-3 2,-6 4,-8 2,-2 5,-4 8,-4 3,0 5,1 8,3 2,2 3,5 3,8l0 88z"/>
   </g>
   <g>
    <path class="fil9" d="M5934 1224l-9 0 0 -232 9 0 0 232z"/>
    <path class="fil10 str0" d="M6815 2190l-1765 0 0 -739 1765 0 0 739z"/>
    <path class="fil10" d="M5406 1515l523 -299 530 299 -1053 0z"/>
    <path class="fil11 str0" d="M5406 1515l5 10 518 -296 486 274 -1009 0 0 12 5 10 -5 -10 0 11 1098 0 -575 -323 -567 323 44 0 0 -11z"/>
    <path class="fil3 str0" d="M6434 2140l-1003 0 0 -606 1003 0 0 606z"/>
    <path class="fil11 str0" d="M6500 1614l-1135 0 0 -93 1135 0 0 93z"/>
    <path class="fil12" d="M5849 1429c31,46 93,58 139,27 46,-30 59,-92 28,-139 -31,-46 -93,-58 -139,-27 -46,30 -59,93 -28,139z"/>
    <path class="fil9" d="M5849 1429l-6 3c21,31 55,48 90,48 20,0 41,-6 59,-18 31,-20 48,-54 48,-89 0,-20 -6,-41 -18,-59 -21,-31 -55,-48 -90,-48 -20,0 -41,6 -59,18 -31,21 -48,55 -48,89 0,21 6,41 18,59l6 -3 6 -4c-11,-16 -16,-34 -16,-52 0,-30 15,-60 42,-78 16,-10 34,-15 51,-15 31,0 60,14 78,41 11,16 16,34 16,52 0,30 -15,60 -42,78 -16,10 -34,15 -51,15 -31,0 -60,-14 -78,-41l-6 4z"/>
    <path class="fil7" d="M5926 1374l5 -3 44 66 -5 3 -44 -66z"/>
    <path class="fil7" d="M5932 1378l-6 -3 39 -69 6 3 -39 69z"/>
    <path class="fil11 str0" d="M5494 2190l-119 0 0 -50 119 0 0 50z"/>
    <path class="fil11 str0" d="M5481 2158l-90 0 7 -547 75 0 8 547z"/>
    <path class="fil11 str0" d="M5479 1605c-6,0 -83,0 -89,0 -14,0 -25,12 -25,26 0,14 11,25 25,25 10,0 18,-5 22,-12l45 0c4,7 12,12 22,12 14,0 25,-11 25,-25 0,-14 -11,-26 -25,-26z"/>
    <path class="fil11 str0" d="M6490 2190l-119 0 0 -50 119 0 0 50z"/>
    <path class="fil11 str0" d="M6477 2158l-91 0 8 -547 75 0 8 547z"/>
    <path class="fil11 str0" d="M6475 1605c-6,0 -83,0 -89,0 -14,0 -25,12 -25,26 0,14 11,25 25,25 10,0 18,-5 22,-12l45 0c4,7 12,12 22,12 14,0 25,-11 25,-25 0,-14 -11,-26 -25,-26z"/>
    <path class="fil11 str0" d="M6158 2190l-119 0 0 -50 119 0 0 50z"/>
    <path class="fil11 str0" d="M6145 2158l-91 0 8 -547 75 0 8 547z"/>
    <path class="fil11 str0" d="M6143 1605c-6,0 -83,0 -89,0 -14,0 -25,12 -25,26 0,14 11,25 25,25 10,0 18,-5 22,-12l45 0c4,7 12,12 22,12 14,0 25,-11 25,-25 0,-14 -11,-26 -25,-26z"/>
    <path class="fil11 str0" d="M5826 2190l-119 0 0 -50 119 0 0 50z"/>
    <path class="fil11 str0" d="M5813 2158l-91 0 8 -547 75 0 8 547z"/>
    <path class="fil11 str0" d="M5811 1605c-6,0 -83,0 -89,0 -14,0 -25,12 -25,26 0,14 11,25 25,25 10,0 18,-5 22,-12l45 0c4,7 12,12 22,12 14,0 25,-11 25,-25 0,-14 -11,-26 -25,-26z"/>
    <path class="fil3" d="M5158 2078l-46 0 0 -422 46 0 0 422z"/>
    <path class="fil3" d="M5246 2078l-45 0 0 -422 45 0 0 422z"/>
    <path class="fil3" d="M5335 2078l-46 0 0 -422 46 0 0 422z"/>
    <path class="fil3" d="M6572 2078l-46 0 0 -422 46 0 0 422z"/>
    <path class="fil3" d="M6660 2078l-45 0 0 -422 45 0 0 422z"/>
    <path class="fil3" d="M6749 2078l-45 0 0 -422 45 0 0 422z"/>
    <path class="fil13 str2" d="M5932 994l232 0 0 45 -232 0 0 -45z"/>
    <path class="fil14 str2" d="M5932 1038l232 0 0 46 -232 0 0 -46z"/>
    <path class="fil15 str2" d="M5932 1083l232 0 0 46 -232 0 0 -46z"/>
   </g>
   <path class="fil3 str1" d="M5718 2477c0,13 -5,24 -14,32 -8,9 -19,14 -32,14l-46 0c-12,0 -23,-4 -32,-13 -9,-9 -13,-20 -13,-33l0 -137c0,-13 4,-23 13,-32 9,-9 20,-14 32,-14l46 0c13,0 24,5 33,14 8,9 13,19 13,32l0 137zm-23 0l0 -137c0,-6 -2,-12 -6,-16 -5,-5 -10,-7 -17,-7l-46 0c-6,0 -11,2 -16,7 -2,2 -4,4 -5,7 -1,3 -1,6 -1,9l0 137c0,7 2,12 6,17 2,2 5,3 7,5 4,1 7,1 9,1l46 0c7,0 12,-2 16,-6 5,-4 7,-10 7,-17zm247 35c0,3 -1,6 -3,8 -2,2 -5,3 -8,3 -3,0 -6,-1 -8,-3 -3,-2 -4,-5 -4,-8l0 -164 -47 79c-3,5 -6,8 -10,8 -3,0 -7,-3 -10,-8l-47 -79 0 164c0,3 -2,6 -4,8 -2,2 -4,3 -8,3 -3,0 -5,-1 -8,-3 -2,-2 -3,-5 -3,-8l0 -205c0,-4 1,-8 3,-10 2,-2 4,-3 7,-3 2,0 4,0 6,1 1,1 3,3 5,6l59 98 59 -98c2,-5 6,-7 11,-7 2,0 5,1 7,3 2,3 3,6 3,10l0 205zm148 11l-57 0c-12,0 -23,-4 -32,-13 -9,-9 -14,-20 -14,-33l0 -137c0,-13 5,-23 14,-32 9,-9 19,-14 32,-14l57 0c3,0 6,2 8,4 3,2 4,5 4,8 0,2 -1,5 -3,7 -2,3 -5,4 -9,4l-57 0c-6,0 -12,2 -16,7 -3,2 -4,4 -5,7 -1,3 -2,6 -2,9l0 137c0,7 2,12 7,17 2,2 4,3 7,5 3,1 6,1 9,1l57 0c3,0 6,1 8,4 3,2 4,5 4,8 0,2 -1,5 -3,7 -2,3 -5,4 -9,4zm172 -92l-69 0c-12,0 -23,-4 -32,-13 -9,-9 -14,-20 -14,-32l0 -80c0,-3 1,-6 4,-9 2,-2 5,-3 8,-3 3,0 5,1 8,3 2,2 3,5 3,9l0 80c0,6 2,12 7,16 2,2 4,4 7,5 3,1 6,2 9,2l69 0 0 -103c0,-3 1,-6 3,-9 2,-2 5,-3 8,-3 3,0 6,1 8,3 2,2 3,5 3,9l0 171c0,13 -4,24 -13,32 -9,9 -20,14 -32,14l-57 0c-4,0 -7,-1 -9,-3 -2,-3 -3,-5 -3,-8 0,-3 1,-6 3,-8 2,-3 5,-4 9,-4l57 0c6,0 11,-2 16,-6 4,-4 7,-10 7,-17l0 -46z"/>
   <path class="fil16" d="M5947 2977c-1,-30 -2,-60 -3,-89 0,-5 0,-9 0,-14 1,34 2,69 3,103zm1 127c0,1 0,2 -1,3 0,1 0,2 0,3 -1,-2 -3,-3 -4,-5 -2,-2 -1,-7 -1,-9 0,-1 0,-3 0,-4 0,4 0,8 1,11 0,3 4,3 5,1zm-9 -107c-1,-13 -1,-26 -1,-39 0,-14 1,-28 1,-42 1,40 2,80 2,120 -1,-13 -2,-26 -2,-39zm-5 44c1,15 1,29 2,43 0,0 0,1 0,1 -1,-14 -2,-29 -2,-44zm49 -192c-7,-17 -14,-35 -22,-52 -5,-14 -9,-29 -14,-44 -1,-4 -7,-2 -7,2 1,1 1,3 1,4 0,0 0,0 0,0 0,1 -1,1 -1,2 0,0 0,1 -1,1 0,0 0,0 -1,0 0,0 0,0 0,-1 0,0 0,0 0,0 2,-4 -3,-7 -5,-3 0,0 0,0 0,0 -1,1 -2,2 -2,3 -3,5 -5,10 -8,15 -6,9 -11,18 -16,27 -9,18 -18,35 -25,54 -2,3 4,5 5,2 1,-1 2,-3 3,-4 0,0 0,0 0,0 -1,1 -1,2 -1,3 -1,3 4,6 6,2 1,-3 3,-5 4,-8 1,0 1,-1 1,-2 2,-2 3,-4 4,-7 0,0 0,1 1,1 0,1 1,1 2,1 0,0 1,0 1,0 3,-1 2,-5 -1,-4 3,-1 8,-16 9,-19 2,-4 3,-7 5,-11 4,-8 8,-16 12,-24 0,8 0,15 -1,22 -9,102 -8,204 1,306 0,3 5,3 5,0 -1,-4 -1,-8 -1,-12 1,10 5,18 14,14 1,0 2,-2 2,-2 1,-107 -2,-213 -8,-319 9,21 18,42 27,63 2,3 6,2 7,0 2,-1 3,-3 2,-5 0,0 0,0 0,-1 2,0 3,-2 2,-4z"/>
   <path class="fil16" d="M4145 3011c-15,-21 -30,-42 -45,-63 -2,-3 -4,-6 -7,-9 18,23 35,48 52,72zm63 91c1,1 1,2 2,3 0,0 0,1 1,1 -2,0 -4,0 -6,0 -2,-1 -4,-5 -5,-7 -1,-1 -1,-2 -2,-3 2,3 4,5 7,8 1,2 4,0 3,-2zm-59 -73c-6,-9 -12,-18 -19,-28 -6,-10 -13,-20 -20,-30 20,28 40,57 60,85 -7,-9 -14,-18 -21,-27zm19 35c7,10 14,20 22,29 0,1 0,1 1,1 -8,-10 -16,-20 -23,-30zm-58 -163c-14,-9 -28,-18 -42,-27 -10,-8 -21,-16 -31,-24 -3,-3 -7,1 -4,4 1,1 1,2 2,3 0,0 0,0 0,0 0,0 0,1 1,1 0,1 0,1 0,2 -1,0 -1,0 -1,0 0,0 -1,0 -1,0 0,0 0,0 0,0 0,-4 -6,-4 -5,0 0,0 0,0 0,0 -1,1 -1,2 0,3 0,5 1,10 1,15 1,9 1,18 3,27 1,17 3,34 7,51 1,3 6,2 5,-1 0,-1 0,-3 0,-4 0,0 0,0 0,0 0,1 0,1 1,2 1,3 6,3 5,-1 0,-3 0,-5 -1,-8 0,0 1,-1 1,-2 -1,-2 -1,-4 -1,-7 0,0 0,1 0,1 1,0 2,0 3,-1 0,0 0,0 0,0 2,-2 -1,-4 -2,-3 1,-2 -3,-15 -3,-18 -1,-3 -1,-7 -2,-10 -1,-8 -2,-15 -2,-23 3,5 6,11 9,16 43,78 93,151 150,220 1,2 5,0 3,-2 -2,-3 -4,-5 -6,-8 6,6 13,10 17,3 1,-1 1,-2 0,-3 -51,-77 -105,-152 -161,-226 17,11 34,22 51,33 2,1 4,-2 4,-4 1,-1 1,-3 0,-4 -1,0 -1,-1 -1,-1 1,-1 1,-3 0,-4z"/>
   <g>
    <path class="fil13 str3" d="M7752 1343l9 10c-7,24 -3,2 -9,14 -11,21 -18,180 -19,209 -1,22 -1,27 -17,48l-9 9c-27,-11 -19,-47 -17,-71 7,-67 3,-110 30,-161 17,-32 0,-35 22,-61 6,-7 3,-4 8,-11 -6,-3 -6,-2 -12,-8 -13,-12 6,16 -8,-11 -25,5 -63,33 -87,46 8,20 -13,50 -18,60 -1,1 -1,2 -2,3 -4,10 -2,5 -4,15 -10,50 4,42 -2,98 -5,47 -17,164 -6,200 15,51 20,12 7,89 -1,9 -3,7 -1,16 7,27 1,8 13,16 -3,-28 0,-54 2,-81 1,-18 10,-61 19,-73 72,32 141,-1 209,-13 4,6 2,1 7,10 4,8 16,66 8,80 -8,16 -11,-13 -21,39 6,7 3,3 7,7l10 8c-13,15 -3,32 0,52 11,-34 28,-18 59,-32 8,7 1,-3 4,13 17,-14 2,-48 17,-94 23,-77 35,-244 9,-288l-20 9c1,1 7,5 7,6 4,9 4,-4 0,7 -30,-16 -36,-66 -26,-88l29 2c-2,-18 -12,-28 -20,-46 -15,-32 8,-20 -42,-48 -19,-11 -8,-10 -28,-16 -13,-3 -17,1 -27,-6 -8,-6 -5,-10 -14,-22 -5,23 8,6 -15,24 -4,3 -11,6 -19,10 -39,22 -30,14 -33,30z"/>
    <path class="fil17" d="M7871 1882c-16,6 -5,3 -15,13l-28 29c-7,7 -3,9 -25,18 -12,4 -13,3 -29,-2 -18,-5 -24,-5 -36,-16 0,0 2,0 2,0l8 0c4,0 14,3 14,3l10 1c1,-1 3,-1 3,-2 15,-6 -2,8 9,-8 -16,-2 -32,-1 -44,-10 17,-4 25,-4 41,-11 -2,-1 -3,-2 -5,-3 -21,-11 -16,-5 -39,-9 11,-8 25,-7 36,-13 -9,-7 11,-1 -15,-7l-64 -3c-33,40 10,-4 -29,28 1,0 3,1 4,1l21 7c-25,1 -33,-7 -44,11l48 7c-14,8 -4,1 -16,2 -21,2 -10,5 -20,6l-4 0c-1,0 -2,-1 -3,-1 0,0 -2,0 -2,-1 -7,-1 2,-1 -8,-2l-3 11c-4,31 29,172 35,219 5,34 18,76 16,109 -3,42 -8,81 9,115l-7 6c-4,5 -1,1 -5,7 -8,17 0,32 -34,50 -25,13 -67,18 -55,46 6,6 33,6 45,5 12,-2 29,-5 42,-7 27,-5 44,-16 77,-20 -6,24 -23,39 -5,57 19,12 61,1 78,-13 6,-6 26,-59 28,-72 5,-39 -22,-18 1,-74 7,-18 17,-66 19,-86 6,-56 -2,-142 -3,-200 -1,-30 9,-56 10,-88 4,-122 -16,-97 45,-122 -3,-16 4,-6 -4,-13 -31,14 -48,-2 -59,32z"/>
    <path class="fil18" d="M7630 1853c0,25 -2,61 8,78l3 -11c10,1 1,1 8,2 0,1 2,1 2,1 1,0 2,1 3,1l4 0c10,-1 -1,-4 20,-6 12,-1 2,6 16,-2l-48 -7c11,-18 19,-10 44,-11l-21 -7c-1,0 -3,-1 -4,-1 39,-32 -4,12 29,-28l64 3c26,6 6,0 15,7 -11,6 -25,5 -36,13 23,4 18,-2 39,9 2,1 3,2 5,3 -16,7 -24,7 -41,11 12,9 28,8 44,10 -11,16 6,2 -9,8 0,1 -2,1 -3,2l-10 -1c0,0 -10,-3 -14,-3l-8 0c0,0 -2,0 -2,0 12,11 18,11 36,16 16,5 17,6 29,2 22,-9 18,-11 25,-18l28 -29c10,-10 -1,-7 15,-13 -3,-20 -13,-37 0,-52l-10 -8c-4,-4 -1,0 -7,-7 10,-52 13,-23 21,-39 8,-14 -4,-72 -8,-80 -5,-9 -3,-4 -7,-10 -68,12 -137,45 -209,13 -9,12 -18,55 -19,73 -2,27 -5,53 -2,81z"/>
    <path class="fil18" d="M7693 1192c20,-9 48,-10 75,-7 40,4 39,-3 45,38 14,-10 1,-11 25,-14 112,-36 -73,-225 -155,-112 -37,51 -1,80 10,95z"/>
    <path class="fil19" d="M7693 1192c15,44 -4,49 20,81 10,12 19,25 17,37 14,27 -5,-1 8,11 6,6 6,5 12,8 -5,7 -2,4 -8,11l10 3c3,-16 -6,-8 33,-30 8,-4 15,-7 19,-10 23,-18 10,-1 15,-24 1,-35 28,-17 19,-70 -24,3 -11,4 -25,14 -6,-41 -5,-34 -45,-38 -27,-3 -55,-2 -75,7z"/>
    <path class="fil18" d="M7752 1343l-10 -3c-22,26 -5,29 -22,61 -27,51 -23,94 -30,161 -2,24 -10,60 17,71l9 -9c16,-21 16,-26 17,-48 1,-29 8,-188 19,-209 6,-12 2,10 9,-14l-9 -10z"/>
    <path class="fil20" d="M7960 1481l-10 -64 -29 -2c-10,22 -4,72 26,88 4,-11 4,2 0,-7 0,-1 -6,-5 -7,-6l20 -9z"/>
   </g>
   <path class="fil16" d="M7419 3011c15,-21 30,-42 45,-63 3,-3 5,-6 7,-9 -18,23 -35,48 -52,72zm-63 91c-1,1 -1,2 -1,3 -1,0 -1,1 -1,1 2,0 3,0 5,0 2,-1 4,-5 5,-7 1,-1 2,-2 2,-3 -2,3 -4,5 -6,8 -2,2 -4,0 -4,-2zm59 -73c6,-9 13,-18 19,-28 7,-10 14,-20 20,-30 -20,28 -40,57 -60,85 7,-9 14,-18 21,-27zm-19 35c-7,10 -14,20 -21,29 -1,1 -1,1 -1,1 8,-10 15,-20 22,-30zm59 -163c13,-9 27,-18 41,-27 11,-8 21,-16 32,-24 3,-3 6,1 4,4 -1,1 -2,2 -3,3 0,0 0,0 0,0 0,0 0,1 0,1 0,1 0,1 0,2 0,0 0,0 1,0 0,0 0,0 0,0 0,0 0,0 0,0 1,-4 6,-4 6,0 0,0 0,0 0,0 0,1 0,2 -1,3 0,5 0,10 -1,15 0,9 -1,18 -2,27 -2,17 -4,34 -8,51 0,3 -5,2 -5,-1 0,-1 0,-3 1,-4 -1,0 -1,0 -1,0 0,1 0,1 0,2 -1,3 -6,3 -6,-1 0,-3 1,-5 1,-8 0,0 0,-1 0,-2 0,-2 0,-4 1,-7 -1,0 -1,1 -1,1 -1,0 -2,0 -2,-1 0,0 -1,0 -1,0 -1,-2 1,-4 3,-3 -2,-2 2,-15 3,-18 0,-3 1,-7 1,-10 1,-8 2,-15 3,-23 -3,5 -7,11 -10,16 -43,78 -93,151 -149,220 -2,2 -6,0 -4,-2 2,-3 4,-5 6,-8 -6,6 -12,10 -17,3 0,-1 0,-2 0,-3 51,-77 105,-152 161,-226 -16,11 -33,22 -50,33 -2,1 -5,-2 -5,-4 -1,-1 -1,-3 1,-4 0,0 0,-1 0,-1 -1,-1 -1,-3 1,-4z"/>
   <g>
    <path class="fil21 str4" d="M4831 6012c0,3 -1,6 -3,8 -2,1 -4,2 -7,2 -3,0 -5,-1 -7,-2 -2,-2 -3,-5 -3,-8l0 -173 -81 0 0 173c0,3 -1,6 -3,8 -2,1 -5,2 -8,2 -2,0 -5,-1 -7,-2 -2,-2 -3,-5 -3,-8l0 -183c0,-7 4,-10 10,-10l102 0c7,0 10,3 10,10l0 183zm61 -91l61 0c5,0 10,-2 14,-6 4,-4 6,-9 6,-15l0 -40c0,-6 -2,-11 -6,-15 -3,-4 -8,-6 -14,-6l-61 0 0 82zm0 20l0 71c0,3 -1,6 -3,8 -2,1 -4,2 -7,2 -3,0 -5,-1 -7,-2 -2,-2 -3,-5 -3,-8l0 -183c0,-7 3,-10 10,-10l71 0c11,0 21,4 29,12 7,8 11,17 11,29l0 40c0,11 -4,21 -12,29 -7,8 -17,12 -28,12l-61 0zm162 -41l51 0c3,0 5,1 7,3 2,2 3,5 3,7 0,3 0,5 -2,7 -2,2 -4,4 -8,4l-51 0 0 81 72 0c2,0 5,1 7,3 2,2 3,4 3,7 0,2 -1,5 -3,7 -2,2 -4,3 -7,3l-82 0c-7,0 -10,-3 -10,-10l0 -183c0,-7 3,-10 10,-10l82 0c2,0 5,1 7,3 2,2 3,5 3,7 0,3 -1,5 -3,7 -2,2 -4,3 -7,3l-72 0 0 61zm143 102l20 -174c0,-6 3,-9 10,-9l61 0c6,0 10,3 10,10l0 173 10 0c7,0 10,3 10,10l0 20c0,3 -1,5 -3,7 -2,2 -4,3 -7,3 -2,0 -4,-1 -7,-2 -2,-2 -3,-4 -3,-8l0 -10 -102 0 0 10c0,3 -1,5 -3,7 -2,2 -4,3 -7,3 -2,0 -4,-1 -7,-2 -2,-2 -3,-4 -3,-8l0 -20c0,-7 3,-10 10,-10l11 0zm81 0l0 -163 -42 0 -18 163 60 0zm162 20l-51 0c-11,0 -21,-4 -29,-12 -8,-8 -12,-17 -12,-29l0 -121c0,-12 4,-21 12,-29 8,-8 18,-12 29,-12l51 0c3,0 5,1 7,3 2,2 3,5 3,7 0,2 -1,5 -3,7 -1,2 -4,3 -7,3l-51 0c-6,0 -11,2 -15,6 -2,2 -3,4 -4,7 -1,2 -1,5 -1,8l0 122c0,5 1,10 5,14 2,2 5,3 7,4 3,1 5,2 8,2l51 0c3,0 5,1 7,3 2,2 3,4 3,7 0,2 -1,5 -3,7 -1,2 -4,3 -7,3zm71 -122l51 0c2,0 5,1 7,3 2,2 3,5 3,7 0,3 -1,5 -3,7 -1,2 -4,4 -7,4l-51 0 0 81 71 0c3,0 5,1 7,3 2,2 3,4 3,7 0,2 -1,5 -2,7 -2,2 -5,3 -8,3l-81 0c-7,0 -11,-3 -11,-10l0 -183c0,-7 4,-10 11,-10l81 0c3,0 5,1 7,3 2,2 3,5 3,7 0,3 -1,5 -2,7 -2,2 -5,3 -8,3l-71 0 0 61zm143 102l19 -174c0,-6 3,-9 10,-9l61 0c7,0 10,3 10,10l0 173 10 0c7,0 11,3 11,10l0 20c0,3 -1,5 -3,7 -3,2 -5,3 -7,3 -3,0 -5,-1 -7,-2 -2,-2 -4,-4 -4,-8l0 -10 -101 0 0 10c0,3 -1,5 -3,7 -3,2 -5,3 -7,3 -3,0 -5,-1 -7,-2 -2,-2 -4,-4 -4,-8l0 -20c0,-7 4,-10 11,-10l11 0zm80 0l0 -163 -42 0 -18 163 60 0zm117 -31l-15 44c-1,2 -2,4 -4,5 -1,1 -3,2 -5,2 -3,0 -5,-1 -7,-3 -3,-2 -4,-4 -4,-7l1 -3 61 -183c2,-6 5,-9 10,-9 4,0 7,3 9,9l61 183 1 3c0,3 -1,5 -4,7 -2,2 -4,3 -7,3 -1,0 -3,0 -4,-1 -2,-1 -4,-3 -5,-6l-15 -44 -73 0zm67 -20l-30 -90 -30 90 60 0zm90 -112l-41 0c-3,0 -5,-1 -7,-3 -2,-2 -3,-4 -3,-7 0,-2 1,-4 3,-7 1,-2 4,-3 7,-3l102 0c2,0 5,1 7,3 2,2 3,5 3,7 0,2 -1,5 -3,7 -1,2 -4,3 -7,3l-41 0 0 173c0,3 -1,6 -3,8 -2,1 -4,2 -7,2 -3,0 -5,-1 -7,-2 -2,-2 -3,-5 -3,-8l0 -173zm132 61l51 0c2,0 5,1 7,3 2,2 3,5 3,7 0,3 -1,5 -3,7 -1,2 -4,4 -7,4l-51 0 0 81 71 0c3,0 5,1 7,3 2,2 3,4 3,7 0,2 -1,5 -2,7 -2,2 -5,3 -8,3l-81 0c-7,0 -11,-3 -11,-10l0 -183c0,-7 4,-10 11,-10l81 0c3,0 5,1 7,3 2,2 3,5 3,7 0,3 -1,5 -2,7 -2,2 -5,3 -8,3l-71 0 0 61zm243 112c0,3 0,6 -2,8 -2,1 -5,2 -8,2 -2,0 -5,-1 -7,-2 -2,-2 -3,-5 -3,-8l0 -173 -33 0 -49 175c0,3 -1,4 -3,6 -2,1 -4,2 -6,2 -3,0 -6,-1 -8,-2 -1,-2 -2,-5 -2,-8 0,-1 0,-2 0,-3l51 -182c1,-5 4,-8 10,-8l50 0c7,0 10,3 10,10l0 183zm61 -91l61 0c6,0 11,2 14,5 4,4 6,9 6,15l0 41c0,5 -2,10 -5,14 -2,2 -5,3 -7,4 -3,1 -5,2 -8,2l-61 0 0 -81zm0 -21l0 -71c0,-3 -1,-5 -3,-7 -2,-2 -5,-3 -7,-3 -2,0 -5,1 -7,3 -2,1 -3,4 -3,7l0 183c0,7 3,10 10,10l71 0c11,0 20,-4 28,-12 8,-8 12,-17 12,-29l0 -40c0,-11 -3,-21 -11,-29 -8,-8 -18,-12 -29,-12l-61 0zm365 41l-61 0c-11,0 -20,-4 -28,-12 -8,-8 -12,-18 -12,-29l0 -71c0,-3 1,-5 3,-7 2,-2 4,-3 7,-3 3,0 5,1 7,3 2,1 3,4 3,7l0 71c0,6 2,11 6,15 2,1 4,3 6,4 3,1 6,2 8,2l61 0 0 -92c0,-3 1,-5 3,-7 2,-2 5,-3 7,-3 3,0 5,1 7,3 3,1 4,4 4,7l0 152c0,12 -4,21 -12,29 -8,8 -18,12 -29,12l-51 0c-3,0 -5,-1 -7,-3 -2,-2 -3,-4 -3,-7 0,-2 1,-5 3,-7 2,-2 4,-3 7,-3l51 0c6,0 11,-2 14,-6 4,-4 6,-8 6,-15l0 -40zm183 71c0,3 -1,6 -3,8 -2,1 -4,2 -7,2 -3,0 -5,-1 -7,-2 -2,-2 -3,-5 -3,-8l0 -144 -83 149c-1,2 -2,4 -4,5l-2 1c-1,0 -2,1 -3,1 -2,0 -5,-1 -7,-3 -2,-2 -3,-5 -3,-9l0 -183c0,-2 1,-5 3,-7 2,-2 5,-3 7,-3 3,0 5,1 7,3 2,1 3,4 3,7l0 144 83 -149c1,-1 2,-3 4,-5 2,-1 4,-2 6,-2 2,0 4,2 6,4 2,2 3,5 3,8l0 183zm61 -105l85 -85c2,-2 5,-3 7,-3 3,0 5,1 7,3 2,2 4,5 4,7 0,2 -1,4 -3,7l-61 61 62 110 2 5c0,3 -1,5 -3,7 -3,2 -5,3 -8,3 -3,0 -6,-2 -8,-5l-60 -106 -24 24 0 77c0,3 -1,6 -3,8 -2,1 -4,2 -7,2 -3,0 -5,-1 -7,-2 -2,-2 -3,-5 -3,-8l0 -183c0,-3 1,-5 3,-7 2,-2 4,-3 7,-3 2,0 5,1 7,2 2,2 3,5 3,8l0 78z"/>
    <path class="fil22 str5" d="M6453 4646l0 272c0,114 -90,204 -201,204l-416 0 0 471 0 0 -956 0 0 -541c0,-113 91,-206 202,-206l162 0 221 529 221 -529 118 0 107 0c48,0 80,22 105,54 34,42 179,-36 179,28l0 -282 258 0z"/>
    <path class="fil22 str6" d="M5465 5417l-152 -155 0 -104 -125 -93 27 -219 29 0 221 529 221 -529 29 0 27 219 -125 93 0 104 -152 155z"/>
    <path class="fil23 str6" d="M5531 5218l-66 157 -67 -160 32 -217 35 0 35 0 31 220z"/>
    <g>
     <path class="fil23" d="M5534 4904l-139 0 34 94 36 0 35 0 34 -94z"/>
     <path id="1" class="fil24" d="M5395 4878l139 0 0 52 -139 0 -24 -18 24 -34zm0 52c-14,0 -26,-12 -26,-26 0,-15 12,-26 26,-26l0 52zm10 77l-34 -95 49 -17 34 94 -25 35 -24 -17zm49 -18c5,14 -2,29 -16,33 -13,5 -28,-2 -33,-15l49 -18zm11 35l-36 0 0 -52 36 0 0 0 0 52zm0 -52c14,0 26,11 26,26 0,14 -12,26 -26,26l0 -52zm35 52l-35 0 0 -52 35 0 25 35 -25 17zm0 -52c15,0 27,11 27,26 0,14 -12,26 -27,26l0 -52zm59 -60l-34 95 -49 -18 34 -94 24 -17 25 34zm-49 -17c5,-14 20,-21 33,-16 14,5 21,20 16,33l-49 -17z"/>
    </g>
    <path class="fil25 str6" d="M5244 4846l133 164 38 -54 -19 -52 -102 -135 -50 77z"/>
    <path class="fil13 str7" d="M5103 5277l0 316"/>
    <path class="fil13 str6" d="M5465 5375l0 218"/>
    <path class="fil26 str7" d="M5465 4757c76,1 342,-107 342,-286l0 -204c-45,-108 -13,-176 -69,-236 -55,23 -113,21 -175,2 -60,130 -286,73 -371,-2 -56,60 -24,128 -70,236l0 204c0,179 267,287 343,286z"/>
    <path class="fil26 str7" d="M5534 4904l47 -61 0 -117c-48,21 -92,32 -116,31 -24,1 -68,-10 -116,-31l0 117 47 61 138 0z"/>
    <path class="fil25 str6" d="M5686 4846l-133 164 -38 -54 19 -52 102 -135 50 77z"/>
    <path class="fil27 str7" d="M5465 3730c-20,-4 -40,-6 -60,-6l0 0c-187,0 -339,153 -339,339l0 228c14,-15 34,-24 56,-24 46,-108 14,-176 70,-236 83,72 311,132 371,2 62,19 120,21 175,-2 56,60 24,128 69,236 23,0 43,9 57,24l0 -228c0,-186 -152,-339 -339,-339l0 0c-20,0 -40,2 -60,6zm-393 660c9,49 30,95 59,135 -6,-17 -9,-35 -9,-54l0 -63c-19,0 -37,-7 -50,-18zm735 18l0 63c0,19 -2,37 -8,54 29,-40 49,-86 59,-135 -13,11 -31,18 -51,18z"/>
    <path class="fil25 str7" d="M5349 4761l0 82 -55 -74 55 -8z"/>
    <path class="fil25 str7" d="M5581 4761l0 82 55 -74 -55 -8z"/>
    <path class="fil25 str7" d="M5539 5368l197 0 0 113 -197 0 0 -113z"/>
    <path class="fil28 str8" d="M5623 4298c-13,0 -24,10 -24,23 0,14 11,24 24,24 13,0 24,-10 24,-24 0,-13 -11,-23 -24,-23zm-316 0c13,0 24,10 24,23 0,14 -11,24 -24,24 -13,0 -24,-10 -24,-24 0,-13 11,-23 24,-23z"/>
    <path class="fil25 str7" d="M5047 4337c0,-39 34,-70 75,-70l0 70 0 71c-41,0 -75,-31 -75,-71zm836 0c0,-39 -34,-70 -76,-70l0 70 0 71c42,0 76,-31 76,-71z"/>
    <path class="fil29 str7" d="M5516 4627c-12,14 -34,24 -58,24 -39,0 -70,-24 -70,-54 0,-11 4,-21 11,-29 29,29 70,50 117,59z"/>
    <path class="fil27 str7" d="M5336 4523c85,-47 168,-41 251,0 0,11 0,22 0,33 0,27 0,4 0,31 -84,0 -168,0 -251,0 0,-38 0,-26 0,-64z"/>
    <path class="fil13 str9" d="M4872 5483l-122 -457"/>
    <g>
     <path class="fil30" d="M4758 5618c-12,0 -22,-11 -22,-25 0,-14 10,-25 22,-25l0 50zm2337 0l-2337 0 0 -50 2337 0 0 50zm0 -50c12,0 23,11 23,25 0,14 -11,25 -23,25l0 -50z"/>
    </g>
    <path class="fil26 str7" d="M4758 5593l343 0c0,-17 0,-40 0,-55 0,-78 -36,-120 -88,-134 -32,-9 -83,-9 -113,9 -21,13 -39,35 -38,52 -36,-43 -105,-3 -105,70 0,10 1,39 1,58z"/>
    <path class="fil31 str10" d="M6177 4315l-38 0c-37,0 -63,-10 -80,-32 -17,-21 -25,-55 -25,-102 0,-34 5,-57 16,-70 12,-12 33,-18 64,-18l40 0c-10,31 -15,60 -15,85 0,47 13,93 38,137zm143 595c-42,25 -110,42 -164,51 -6,-27 -11,-54 -11,-81 0,-53 6,-142 68,-142 46,0 70,-69 70,-208 0,-143 -24,-215 -70,-215l-37 0c-28,-47 -37,-91 -37,-137 0,-28 5,-58 15,-85 51,9 121,26 166,52 22,58 38,119 49,183 11,63 16,129 16,197 0,71 -5,138 -16,202 -11,65 -27,126 -49,183zm-164 51l-51 0c-28,0 -48,-6 -59,-18 -10,-12 -15,-35 -15,-68 0,-46 8,-81 24,-103 16,-23 41,-34 75,-34l50 0c-23,44 -35,91 -35,142 0,29 4,56 11,81z"/>
    <path class="fil31 str11" d="M6635 5163l127 0 0 -57 94 0 0 79 111 179c17,26 27,47 32,64 5,16 8,38 8,65l0 100 -617 0 0 -100c0,-42 14,-85 42,-131l109 -177 0 -79 94 0 0 57z"/>
    <path class="fil32" d="M6814 5268l0 37 -53 0 0 -37 53 0zm-178 126l0 36 -53 0 0 -36 53 0zm88 0l0 36 -52 0 0 -36 52 0zm90 0l0 36 -53 0 0 -36 53 0zm-178 -63l0 37 -53 0 0 -37 53 0zm88 0l0 37 -52 0 0 -37 52 0zm90 0l0 37 -53 0 0 -37 53 0zm-178 -63l0 37 -53 0 0 -37 53 0zm88 0l0 37 -52 0 0 -37 52 0z"/>
    <g>
     <path class="fil26" d="M6346 4347l0 -125c94,-29 111,32 111,78l0 278c0,77 17,120 -81,119 -10,0 -46,0 -56,0 -85,0 -153,1 -153,-117 0,-27 0,-150 0,-151 13,-76 84,-82 179,-82z"/>
     <path id="1" class="fil24" d="M6372 4222l0 125 -53 0 0 -125 19 -24 34 24zm-53 0c0,-14 12,-25 27,-25 14,0 26,11 26,25l-53 0zm164 78l-53 0 0 0 0 -4 0 -4 0 -3 0 -4 -1 -4 0 -3 -1 -4 -1 -3 -1 -4 -1 -3 -1 -3 -1 -2 -1 -3 -2 -2 -1 -2 -2 -2 -1 -1 -2 -2 -2 -1 -2 -1 -2 -1 -3 -1 -3 -1 -3 -1 -4 0 -4 0 -5 0 -5 0 -6 1 -7 1 -7 2 -7 2 -16 -49 9 -3 10 -2 9 -2 9 -1 8 -1 8 0 8 0 8 1 8 1 7 2 7 3 6 3 6 4 6 4 5 4 4 5 5 4 3 6 4 5 2 5 3 6 2 5 2 5 1 6 2 5 1 6 1 5 0 5 1 6 0 5 0 5 0 5 0 0zm0 0c0,14 -11,26 -26,26 -15,0 -27,-12 -27,-26l53 0zm-52 278l-1 -278 53 0 1 278 0 0 -53 0zm53 0c0,15 -12,26 -27,26 -14,0 -26,-11 -26,-26l53 0zm-109 145l1 -52 0 0 8 0 7 0 7 -1 6 0 5 -1 4 -1 4 -1 2 -1 3 -1 1 -1 2 -1 1 -1 0 -1 1 -1 1 -1 1 -1 0 -2 1 -3 0 -3 1 -3 0 -4 1 -4 0 -4 0 -5 0 -6 0 -5 -1 -6 0 -7 0 -6 0 -7 0 -7 0 -8 53 0 0 7 0 7 0 6 0 7 0 6 0 6 1 7 0 6 0 6 -1 5 0 6 -1 6 0 6 -2 6 -1 6 -2 6 -3 5 -3 6 -4 5 -5 6 -5 4 -6 4 -6 4 -6 3 -7 2 -7 2 -7 2 -8 1 -8 1 -9 1 -9 0 -10 0 0 0zm0 0c-14,0 -26,-12 -26,-26 0,-15 12,-26 27,-26l-1 52zm-55 0l0 -52 0 0 1 0 1 0 1 0 2 0 1 0 2 0 2 0 1 0 2 0 2 0 2 0 2 0 2 0 2 0 3 0 2 0 2 0 2 0 2 0 2 0 2 0 2 0 2 0 2 0 2 0 2 0 1 0 2 0 1 0 2 0 1 0 1 0 -1 52 -1 0 -1 0 -1 0 -1 0 -2 0 -2 0 -1 0 -2 0 -2 0 -2 0 -2 0 -2 0 -2 0 -2 0 -2 0 -2 0 -2 0 -3 0 -2 0 -2 0 -2 0 -2 0 -2 0 -2 0 -1 0 -2 0 -2 0 -1 0 -1 0 -2 0 -1 0 -1 0 0 0zm0 0c-14,0 -26,-12 -26,-26 0,-14 11,-26 26,-26l0 52zm-179 -143l53 1 0 0 0 9 0 9 1 8 1 8 2 7 1 6 2 5 2 5 2 4 2 3 3 4 2 2 3 3 3 2 3 2 3 2 4 2 4 1 4 2 5 1 5 1 5 1 6 1 6 1 6 0 7 0 6 1 8 0 7 0 7 0 8 0 8 0 0 52 -8 0 -8 0 -8 0 -7 0 -8 -1 -8 0 -8 0 -7 -1 -8 -1 -7 -1 -8 -1 -7 -2 -7 -2 -8 -2 -7 -3 -7 -3 -7 -4 -6 -4 -6 -5 -6 -6 -6 -6 -5 -7 -4 -7 -4 -8 -3 -8 -3 -9 -3 -9 -2 -9 -1 -10 -1 -11 -1 -11 0 -12 0 0zm0 0c0,-14 12,-25 26,-25 15,0 27,11 27,26l-53 -1zm0 -156l52 9 0 0 1 -3 0 1 0 1 0 3 -1 3 0 3 0 4 0 4 0 5 0 5 0 5 0 6 0 6 0 6 0 6 0 7 0 6 0 7 0 6 0 7 0 6 0 6 0 6 1 6 0 6 0 5 0 5 0 5 0 4 0 4 0 4 0 3 -53 -1 0 -2 0 -4 0 -4 0 -4 0 -5 0 -5 0 -5 0 -6 0 -6 0 -6 0 -6 0 -6 0 -7 0 -6 0 -7 0 -6 0 -7 0 -6 0 -6 0 -6 0 -6 0 -5 0 -5 0 -5 0 -4 0 -4 0 -4 0 -3 0 -2 0 -2 0 -2 0 -4 0 0zm0 0c3,-14 16,-23 31,-21 14,2 24,16 21,30l-52 -9zm178 -77l53 0 -26 26 -9 0 -8 0 -9 0 -8 0 -7 1 -8 0 -8 0 -7 1 -7 1 -6 0 -7 1 -6 1 -6 2 -5 1 -5 1 -5 2 -5 2 -4 1 -4 2 -3 2 -3 3 -3 2 -3 2 -3 3 -2 3 -2 3 -2 3 -2 4 -2 4 -1 5 -2 5 -1 5 -52 -9 2 -8 2 -8 3 -8 3 -7 3 -7 4 -7 5 -6 5 -6 5 -6 5 -5 6 -4 6 -4 7 -4 6 -3 7 -3 7 -3 7 -2 7 -2 8 -2 7 -1 8 -2 8 -1 8 -1 8 -1 8 0 8 -1 8 0 9 0 8 -1 9 0 9 0 9 0 -27 26zm27 -26c14,0 26,11 26,26 0,14 -11,26 -26,26l0 -52z"/>
    </g>
    <path class="fil13 str12" d="M6282 5457c0,-30 24,-54 54,-54 30,0 54,24 54,54"/>
    <path class="fil13 str13" d="M6206 5381c21,-21 55,-21 76,0 21,21 21,55 0,76"/>
    <path class="fil13 str14" d="M6178 5277c29,-8 58,9 66,38 8,29 -9,58 -38,66"/>
    <path class="fil13 str15" d="M6150 5173c29,-8 59,9 66,38 8,29 -9,58 -38,66"/>
    <path class="fil13 str16" d="M6150 5169c29,8 59,-9 66,-38 8,-29 -9,-58 -38,-66"/>
    <path class="fil13 str15" d="M6150 4961c29,-7 59,10 66,38 8,29 -9,59 -38,66"/>
   </g>
  </g>
 </g>
</svg>
