<?xml version="1.0" encoding="UTF-8"?>
<!DOCTYPE svg PUBLIC "-//W3C//DTD SVG 1.0//EN" "http://www.w3.org/TR/2001/REC-SVG-20010904/DTD/svg10.dtd">
<!-- Creator: CorelDRAW X7 -->
<svg xmlns="http://www.w3.org/2000/svg" xml:space="preserve" width="115mm" height="70.122mm" version="1.0" style="shape-rendering:geometricPrecision; text-rendering:geometricPrecision; image-rendering:optimizeQuality; fill-rule:evenodd; clip-rule:evenodd"
viewBox="0 0 11500 7012"
 xmlns:xlink="http://www.w3.org/1999/xlink">
 <defs>
  <style type="text/css">
   <![CDATA[
    .str1 {stroke:#3696A0;stroke-width:8.76524}
    .str0 {stroke:#024541;stroke-width:99.0297;stroke-linecap:round;stroke-linejoin:round}
    .fil3 {fill:none;fill-rule:nonzero}
    .fil1 {fill:#EBF2D9}
    .fil2 {fill:#CDDBAC}
    .fil4 {fill:#3497A1}
    .fil0 {fill:url(#id0)}
   ]]>
  </style>
  <radialGradient id="id0" gradientUnits="userSpaceOnUse" gradientTransform="matrix(1.17124 -0 -0 1.92083 -985 -3229)" cx="5750" cy="3506.1" r="3506.1" fx="5750" fy="3506.1">
   <stop offset="0" style="stop-opacity:1; stop-color:#FEFEFE"/>
   <stop offset="0.439216" style="stop-opacity:1; stop-color:#FEFEFE"/>
   <stop offset="1" style="stop-opacity:1; stop-color:#D1E2F2"/>
  </radialGradient>
 </defs>
 <g id="Layer_x0020_1">
  <metadata id="CorelCorpID_0Corel-Layer"/>
  <path class="fil0" d="M0 0l11500 0 0 7012 -11500 0 0 -7012z"/>
  <g id="_1078009636176">
   <path class="fil1 str0" d="M7572 771l0 5467c-1365,0 -2280,0 -3645,0l0 -5467 3645 0z"/>
   <path class="fil2" d="M3927 771l3645 0 0 2080 -3645 -1732c7,-179 0,-229 0,-348z"/>
   <path class="fil3 str0" d="M7572 771l0 5467c-1365,0 -2280,0 -3645,0l0 -5467 3645 0z"/>
   <path class="fil4 str1" d="M4240 1173c0,8 -3,15 -9,21 -6,6 -13,9 -22,9l-30 0c-8,0 -15,-3 -21,-8 -7,-6 -10,-14 -10,-22l0 -91c0,-9 3,-16 9,-22 6,-6 13,-9 22,-9l30 0c9,0 16,3 22,9 6,6 9,13 9,22l0 91zm-15 0l0 -91c0,-5 -2,-8 -5,-11 -3,-3 -6,-5 -11,-5l-30 0c-4,0 -8,2 -11,5 -1,1 -3,3 -3,5 -1,1 -1,3 -1,6l0 91c0,4 1,8 4,11 2,1 3,2 5,3 2,1 4,1 6,1l30 0c5,0 8,-1 11,-4 3,-3 5,-6 5,-11zm54 -56l64 -64c2,-1 4,-2 6,-2 2,0 3,1 5,3 2,1 2,3 2,5 0,1 0,3 -2,5l-45 45 47 83 1 4c0,2 -1,4 -3,5 -1,2 -3,2 -5,2 -3,0 -5,-1 -7,-4l-45 -79 -18 18 0 58c0,2 0,4 -2,6 -1,1 -3,1 -5,1 -2,0 -4,0 -6,-1 -1,-2 -2,-4 -2,-6l0 -137c0,-2 1,-4 2,-6 2,-1 4,-2 6,-2 2,0 3,1 5,2 2,1 2,3 2,6l0 58zm104 10l46 0c4,0 7,-1 10,-4 3,-3 5,-6 5,-11l0 -30c0,-5 -2,-8 -5,-11 -2,-3 -6,-5 -10,-5l-46 0 0 61zm0 15l0 54c0,2 -1,4 -2,6 -2,1 -4,1 -6,1 -2,0 -4,0 -5,-1 -2,-2 -2,-4 -2,-6l0 -137c0,-5 2,-8 7,-8l53 0c9,0 16,3 22,9 6,6 9,13 9,22l0 30c0,8 -3,15 -9,21 -6,6 -13,9 -22,9l-45 0zm164 0l-45 0c-9,0 -16,-3 -22,-8 -6,-6 -9,-14 -9,-22l0 -53c0,-2 1,-4 2,-6 2,-1 4,-2 6,-2 2,0 3,1 5,2 1,1 2,3 2,6l0 53c0,4 2,8 5,11 1,1 3,2 5,3 2,1 4,1 5,1l46 0 0 -68c0,-2 1,-4 3,-6 1,-1 3,-2 5,-2 2,0 4,1 5,2 2,1 2,3 2,6l0 114c0,8 -3,15 -9,21 -5,6 -13,9 -21,9l-38 0c-2,0 -4,0 -6,-2 -1,-1 -2,-3 -2,-5 0,-2 1,-4 2,-5 2,-2 4,-3 6,-3l38 0c4,0 8,-1 11,-4 3,-3 4,-6 4,-11l0 -31zm96 -31l40 -56c0,-1 1,-2 2,-3 1,-1 3,-1 4,-1 2,0 3,1 5,2 2,2 3,4 3,6 0,1 -1,3 -2,4l-40 57 41 72c0,2 1,3 1,4 0,2 -1,4 -3,5 -1,2 -3,2 -5,2 -3,0 -5,-1 -7,-3l-39 -70 0 66c0,2 -1,4 -2,6 -1,1 -3,1 -5,1 -2,0 -4,0 -6,-1 -1,-2 -2,-4 -2,-6l0 -66 -39 70c-1,0 -2,1 -3,2l-2 1 -2 0c-2,0 -4,0 -5,-2 -2,-1 -2,-3 -2,-5 0,-1 0,-2 1,-4l40 -72 -40 -57c0,0 -1,-2 -1,-4 0,-2 0,-4 2,-5 1,-2 3,-3 5,-3 3,0 5,1 7,4l39 56 0 -52c0,-2 1,-4 2,-6 2,-1 4,-2 6,-2 2,0 3,1 5,2 1,1 2,3 2,6l0 52zm142 1l0 -53c0,-2 0,-4 2,-6 1,-1 3,-2 5,-2 2,0 4,1 5,2 2,1 3,3 3,6l0 137c0,2 -1,4 -3,5 -1,2 -3,2 -5,2 -2,0 -4,0 -5,-1 -2,-2 -2,-4 -2,-6l0 -69 -61 0 0 69c0,2 -1,4 -2,6 -2,1 -4,1 -6,1 -2,0 -4,0 -5,-1 -2,-2 -2,-4 -2,-6l0 -137c0,-2 0,-4 2,-6 1,-1 3,-2 5,-2 2,0 4,1 5,2 2,1 3,3 3,6l0 53 61 0zm54 53l-11 33c-1,2 -2,3 -3,4 -1,1 -2,1 -4,1 -2,0 -4,0 -6,-2 -1,-1 -2,-3 -2,-5l1 -3 45 -137c2,-4 4,-6 7,-6 4,0 6,2 8,6l45 137 1 3c0,2 -1,4 -3,5 -1,2 -3,2 -5,2 -1,0 -2,0 -4,0 -1,-1 -2,-2 -3,-5l-11 -33 -55 0zm50 -15l-23 -67 -22 67 45 0zm118 -23l0 -61 -46 0c-4,0 -8,2 -11,5 -1,1 -2,3 -3,5 -1,1 -1,3 -1,6l0 30c0,4 1,8 4,11 2,1 3,2 5,3 2,1 4,1 6,1l46 0zm-26 15l-36 58c-2,2 -4,3 -6,3 -2,0 -4,0 -6,-2 -1,-1 -2,-3 -2,-5 0,-2 0,-3 1,-4l31 -50 -2 0c-8,0 -15,-3 -21,-8 -6,-6 -9,-14 -9,-22l0 -30c0,-9 3,-16 9,-22 5,-6 13,-9 21,-9l53 0c5,0 8,3 8,8l0 137c0,2 -1,4 -2,6 -2,1 -3,1 -6,1 -2,0 -3,0 -5,-1 -1,-2 -2,-4 -2,-6l0 -54 -26 0zm254 54c0,2 -1,4 -2,6 -1,1 -3,1 -6,1 -2,0 -3,0 -5,-1 -1,-2 -2,-4 -2,-6l0 -108 -62 112c-1,1 -2,2 -3,3l-2 1c0,0 -1,1 -2,1 -2,0 -3,-1 -5,-3 -2,-1 -2,-3 -2,-6l0 -137c0,-2 1,-4 2,-6 2,-1 3,-2 5,-2 2,0 4,1 6,2 1,1 2,3 2,6l0 107 62 -111c0,-1 2,-2 3,-3 1,-2 3,-2 4,-2 2,0 3,1 5,3 1,1 2,3 2,6l0 137zm58 -69l-23 0c-2,0 -4,0 -5,-2 -2,-1 -2,-3 -2,-5 0,-2 0,-4 2,-5 1,-2 3,-3 5,-3l23 0c4,0 8,-1 11,-4 3,-3 4,-7 4,-11l0 -15c0,-5 -1,-8 -4,-11 -3,-3 -7,-5 -11,-5l-15 0c-4,0 -6,1 -9,3 -3,2 -4,4 -6,8 0,1 -1,2 -2,3 -1,1 -1,1 -2,2l-3 0c-2,0 -4,-1 -5,-2 -2,-1 -3,-3 -3,-5l1 -3c2,-6 5,-11 11,-15 5,-4 11,-6 18,-6l15 0c8,0 16,3 22,9 5,6 8,13 8,22l0 15c0,4 0,8 -2,13 -2,4 -5,7 -8,10 7,5 10,13 10,23l0 30c0,8 -3,15 -9,21 -5,6 -13,9 -21,9l-15 0c-7,0 -13,-1 -18,-5 -5,-4 -9,-9 -11,-15l-1 -3c0,-2 1,-4 3,-5 1,-2 3,-3 5,-3 3,0 6,2 7,5 1,3 3,6 6,9 3,1 6,2 9,2l15 0c4,0 8,-1 11,-4 3,-3 4,-6 4,-11l0 -30c0,-5 -1,-8 -3,-11 -3,-3 -7,-5 -12,-5zm58 0l0 61 45 0c5,0 8,-1 11,-4 3,-3 5,-6 5,-11l0 -30c0,-5 -2,-8 -5,-11 -2,-3 -6,-5 -11,-5l-45 0zm0 -15l45 0c9,0 16,3 22,9 6,6 9,13 9,22l0 30c0,8 -3,15 -9,21 -6,6 -13,9 -22,9l-53 0c-5,0 -7,-2 -7,-7l0 -137c0,-5 2,-8 7,-8l61 0c2,0 4,1 5,3 2,1 3,3 3,5 0,1 -1,3 -2,5 -2,1 -3,2 -6,2l-53 0 0 46zm179 84c0,2 0,4 -2,6 -1,1 -3,1 -5,1 -2,0 -4,0 -6,-1 -1,-2 -2,-4 -2,-6l0 -108 -62 112c-1,1 -2,2 -3,3l-2 1c0,0 -1,1 -2,1 -1,0 -3,-1 -5,-3 -1,-1 -2,-3 -2,-6l0 -137c0,-2 1,-4 2,-6 2,-1 4,-2 6,-2 2,0 3,1 5,2 1,1 2,3 2,6l0 107 62 -111c1,-1 2,-2 3,-3 2,-2 3,-2 4,-2 2,0 4,1 5,3 2,1 2,3 2,6l0 137zm28 -69l45 0c5,0 8,-1 11,-4 3,-3 5,-6 5,-11l0 -30c0,-5 -2,-8 -5,-11 -3,-3 -6,-5 -11,-5l-45 0 0 61zm0 15l0 54c0,2 -1,4 -3,6 -1,1 -3,1 -5,1 -2,0 -4,0 -5,-1 -2,-2 -3,-4 -3,-6l0 -137c0,-5 3,-8 8,-8l53 0c9,0 16,3 22,9 6,6 9,13 9,22l0 30c0,8 -3,15 -9,21 -6,6 -13,9 -22,9l-45 0zm99 23l-11 33c0,2 -1,3 -2,4 -1,1 -3,1 -4,1 -2,0 -4,0 -6,-2 -1,-1 -2,-3 -2,-5l0 -3 46 -137c2,-4 4,-6 7,-6 3,0 6,2 7,6l46 137 0 3c0,2 0,4 -2,5 -2,2 -3,2 -5,2 -1,0 -2,0 -4,0 -1,-1 -2,-2 -3,-5l-11 -33 -56 0zm51 -15l-23 -67 -22 67 45 0zm49 -84l-30 0c-3,0 -5,0 -6,-2 -1,-1 -2,-3 -2,-5 0,-2 1,-4 2,-5 1,-2 3,-3 6,-3l76 0c2,0 4,1 5,3 2,1 2,3 2,5 0,1 0,3 -2,5 -1,1 -3,2 -5,2l-31 0 0 130c0,2 0,4 -2,6 -1,1 -3,1 -5,1 -2,0 -4,0 -6,-1 -1,-2 -2,-4 -2,-6l0 -130zm81 46l38 0c2,0 4,1 5,3 2,1 3,3 3,5 0,2 -1,3 -2,5 -2,1 -4,2 -6,2l-38 0 0 61 53 0c2,0 4,1 6,3 1,1 2,3 2,5 0,2 -1,3 -2,5 -1,2 -3,2 -6,2l-61 0c-5,0 -7,-2 -7,-7l0 -137c0,-5 2,-8 7,-8l61 0c2,0 4,1 6,3 1,1 2,3 2,5 0,2 -1,3 -2,5 -1,1 -3,2 -6,2l-53 0 0 46zm164 84c0,2 0,4 -2,6 -1,1 -3,1 -5,1 -2,0 -4,0 -6,-1 -1,-2 -2,-4 -2,-6l0 -130 -25 0 -36 132c0,1 -1,3 -3,4 -1,1 -3,1 -4,1 -3,0 -5,0 -6,-1 -1,-2 -2,-4 -2,-6 0,-1 0,-2 0,-2l38 -137c1,-4 4,-6 8,-6l38 0c5,0 7,3 7,8l0 137zm27 -69l46 0c4,0 8,2 11,5 3,3 4,6 4,11l0 30c0,4 -1,8 -4,11 -1,1 -3,2 -5,3 -2,1 -4,1 -6,1l-46 0 0 -61zm0 -15l0 -53c0,-2 0,-4 -2,-6 -1,-1 -3,-2 -5,-2 -2,0 -4,1 -5,2 -2,1 -3,3 -3,6l0 137c0,5 3,7 8,7l53 0c8,0 15,-2 21,-8 7,-6 10,-13 10,-22l0 -30c0,-9 -3,-16 -9,-22 -6,-6 -13,-9 -22,-9l-46 0zm165 0l0 -53c0,-2 1,-4 2,-6 2,-1 3,-2 5,-2 2,0 4,1 6,2 1,1 2,3 2,6l0 137c0,2 -1,4 -2,5 -2,2 -4,2 -6,2 -2,0 -3,0 -5,-1 -1,-2 -2,-4 -2,-6l0 -69 -61 0 0 69c0,2 -1,4 -2,6 -2,1 -3,1 -6,1 -2,0 -3,0 -5,-1 -2,-2 -2,-4 -2,-6l0 -137c0,-2 0,-4 2,-6 2,-1 3,-2 5,-2 2,0 4,1 6,2 1,1 2,3 2,6l0 53 61 0zm54 53l-11 33c-1,2 -2,3 -3,4 -1,1 -2,1 -4,1 -2,0 -4,0 -5,-2 -2,-1 -3,-3 -3,-5l1 -3 46 -137c1,-4 3,-6 7,-6 3,0 5,2 7,6l45 137 1 3c0,2 -1,4 -3,5 -1,2 -3,2 -5,2 -1,0 -2,0 -3,0 -2,-1 -3,-2 -4,-5l-11 -33 -55 0zm50 -15l-22 -67 -23 67 45 0zm118 -23l0 -61 -46 0c-4,0 -8,2 -11,5 -1,1 -2,3 -3,5 -1,1 -1,3 -1,6l0 30c0,4 2,8 4,11 2,1 4,2 5,3 2,1 5,1 6,1l46 0zm-26 15l-36 58c-2,2 -4,3 -6,3 -2,0 -4,0 -5,-2 -2,-1 -3,-3 -3,-5 0,-2 0,-3 1,-4l31 -50 -2 0c-8,0 -15,-3 -21,-8 -6,-6 -9,-14 -9,-22l0 -30c0,-9 3,-16 9,-22 6,-6 13,-9 21,-9l54 0c5,0 7,3 7,8l0 137c0,2 0,4 -2,6 -1,1 -3,1 -5,1 -2,0 -4,0 -6,-1 -1,-2 -2,-4 -2,-6l0 -54 -26 0zm178 -25l64 -64c2,-1 4,-2 6,-2 1,0 3,1 5,3 1,1 2,3 2,5 0,1 0,3 -2,5l-45 45 46 83 1 4c0,2 0,4 -2,5 -2,2 -3,2 -6,2 -2,0 -4,-1 -6,-4l-45 -79 -18 18 0 58c0,2 -1,4 -2,6 -1,1 -3,1 -5,1 -2,0 -4,0 -6,-1 -1,-2 -2,-4 -2,-6l0 -137c0,-2 1,-4 2,-6 2,-1 4,-2 6,-2 1,0 3,1 5,2 1,1 2,3 2,6l0 58zm172 56c0,8 -3,15 -9,21 -6,6 -13,9 -21,9l-31 0c-8,0 -15,-3 -21,-8 -6,-6 -9,-14 -9,-22l0 -91c0,-9 3,-16 9,-22 6,-6 13,-9 21,-9l31 0c8,0 15,3 21,9 6,6 9,13 9,22l0 91zm-15 0l0 -91c0,-5 -2,-8 -4,-11 -3,-3 -7,-5 -11,-5l-31 0c-4,0 -8,2 -11,5 -1,1 -2,3 -3,5 -1,1 -1,3 -1,6l0 91c0,4 1,8 4,11 2,1 3,2 5,3 2,1 4,1 6,1l31 0c4,0 7,-1 10,-4 3,-3 5,-6 5,-11zm146 23c0,2 -1,4 -2,6 -1,1 -3,1 -6,1 -1,0 -3,0 -5,-1 -1,-2 -2,-4 -2,-6l0 -109 -32 53c-1,3 -4,5 -6,5 -2,0 -5,-2 -7,-5l-31 -53 0 109c0,2 -1,4 -3,6 -1,1 -3,1 -5,1 -2,0 -4,0 -5,-1 -2,-2 -3,-4 -3,-6l0 -136c0,-3 1,-6 3,-7 1,-2 2,-2 4,-2 2,0 3,0 4,1 1,1 2,2 4,4l39 65 39 -65c2,-4 4,-5 7,-5 2,0 4,0 5,2 1,2 2,4 2,7l0 136zm103 0c0,2 0,4 -2,6 -1,1 -3,1 -5,1 -2,0 -4,0 -5,-1 -2,-2 -3,-4 -3,-6l0 -108 -62 112c0,1 -2,2 -3,3l-2 1c0,0 -1,1 -2,1 -1,0 -3,-1 -5,-3 -1,-1 -2,-3 -2,-6l0 -137c0,-2 1,-4 2,-6 2,-1 4,-2 6,-2 2,0 3,1 5,2 1,1 2,3 2,6l0 107 62 -111c1,-1 2,-2 3,-3 2,-2 3,-2 4,-2 2,0 4,1 5,3 2,1 2,3 2,6l0 137zm81 7l-38 0c-8,0 -15,-3 -21,-8 -6,-6 -9,-14 -9,-22l0 -91c0,-9 3,-16 8,-22 6,-6 14,-9 22,-9l38 0c2,0 4,1 6,3 1,1 2,3 2,5 0,1 -1,3 -2,5 -1,1 -3,2 -6,2l-38 0c-4,0 -8,2 -11,5 -1,1 -2,3 -3,5 -1,1 -1,3 -1,6l0 91c0,4 1,8 4,11 2,1 3,2 5,3 2,1 4,1 6,1l38 0c2,0 4,1 6,3 1,1 2,3 2,5 0,2 -1,3 -2,5 -1,2 -3,2 -6,2zm82 0l-39 0c-8,0 -15,-3 -21,-8 -6,-6 -9,-14 -9,-22l0 -91c0,-9 3,-16 9,-22 6,-6 13,-9 21,-9l39 0c2,0 3,1 5,3 1,1 2,3 2,5 0,1 0,3 -2,5 -1,1 -3,2 -5,2l-39 0c-4,0 -8,2 -11,5 -1,1 -2,3 -3,5 0,1 -1,3 -1,6l0 91c0,4 2,8 4,11 2,1 4,2 5,3 3,1 5,1 6,1l39 0c2,0 3,1 5,3 1,1 2,3 2,5 0,2 0,3 -2,5 -1,2 -3,2 -5,2zm111 -7c0,2 -1,4 -3,6 -1,1 -3,1 -5,1 -2,0 -4,0 -5,-1 -2,-2 -3,-4 -3,-6l0 -108 -61 112c-1,1 -2,2 -4,3l-1 1c-1,0 -2,1 -3,1 -1,0 -3,-1 -5,-3 -1,-1 -2,-3 -2,-6l0 -137c0,-2 1,-4 3,-6 1,-1 3,-2 5,-2 2,0 4,1 5,2 2,1 2,3 2,6l0 107 62 -111c1,-1 2,-2 3,-3 2,-2 3,-2 5,-2 1,0 3,1 4,3 2,1 3,3 3,6l0 137zm88 -69l0 -61 -46 0c-4,0 -8,2 -11,5 -1,1 -2,3 -3,5 -1,1 -1,3 -1,6l0 30c0,4 1,8 4,11 2,1 3,2 5,3 2,1 4,1 6,1l46 0zm-26 15l-36 58c-2,2 -4,3 -6,3 -2,0 -4,0 -6,-2 -1,-1 -2,-3 -2,-5 0,-2 0,-3 1,-4l31 -50 -2 0c-8,0 -15,-3 -21,-8 -6,-6 -9,-14 -9,-22l0 -30c0,-9 3,-16 9,-22 6,-6 13,-9 21,-9l53 0c6,0 8,3 8,8l0 137c0,2 -1,4 -2,6 -1,1 -3,1 -6,1 -2,0 -3,0 -5,-1 -1,-2 -2,-4 -2,-6l0 -54 -26 0z"/>
   <path class="fil4 str1" d="M4443 1480c0,3 -1,5 -2,6 -1,1 -3,2 -5,2 -2,0 -4,-1 -6,-2 -1,-1 -2,-3 -2,-6l0 -107 -62 111c-1,2 -2,3 -3,4l-2 1c0,0 -1,0 -2,0 -2,0 -3,-1 -5,-2 -1,-2 -2,-4 -2,-7l0 -137c0,-2 1,-4 2,-5 2,-2 3,-2 5,-2 2,0 4,0 6,2 1,1 2,3 2,5l0 108 62 -111c1,-2 2,-3 3,-4 1,-1 3,-2 4,-2 2,0 3,1 5,3 1,2 2,4 2,6l0 137zm58 -68l-23 0c-2,0 -4,-1 -5,-2 -2,-2 -2,-4 -2,-6 0,-2 0,-3 2,-5 1,-2 3,-2 5,-2l23 0c4,0 8,-2 11,-5 3,-2 4,-6 4,-11l0 -15c0,-4 -1,-8 -4,-11 -3,-3 -6,-4 -11,-4l-15 0c-3,0 -6,1 -9,3 -2,1 -4,4 -5,7 -1,2 -2,3 -3,4 -1,0 -1,1 -2,1l-2 1c-3,0 -4,-1 -6,-2 -2,-2 -2,-4 -2,-6l0 -3c2,-6 6,-11 11,-15 5,-3 11,-5 18,-5l15 0c9,0 16,3 22,9 6,6 9,13 9,21l0 15c0,5 -1,9 -3,13 -2,4 -4,7 -8,10 7,6 11,14 11,23l0 30c0,9 -3,16 -9,22 -6,6 -13,9 -22,9l-15 0c-7,0 -12,-2 -18,-6 -5,-4 -9,-9 -11,-15l0 -3c0,-2 0,-3 2,-5 1,-1 3,-2 6,-2 3,0 5,1 6,5 1,3 3,6 6,8 3,2 6,3 9,3l15 0c4,0 8,-2 11,-4 3,-3 4,-7 4,-11l0 -31c0,-4 -1,-8 -3,-11 -3,-3 -7,-4 -12,-4zm58 0l0 61 46 0c4,0 7,-2 10,-4 3,-3 5,-7 5,-11l0 -31c0,-4 -2,-8 -5,-11 -2,-3 -6,-4 -10,-4l-46 0zm0 -15l45 0c9,0 16,3 22,9 6,5 9,13 9,21l0 31c0,8 -3,15 -9,21 -6,6 -13,9 -21,9l-54 0c-5,0 -7,-3 -7,-8l0 -137c0,-5 2,-7 7,-7l61 0c2,0 4,0 6,2 1,2 2,3 2,5 0,2 -1,4 -2,5 -1,2 -3,3 -6,3l-53 0 0 46zm179 83c0,3 0,5 -2,6 -1,1 -3,2 -5,2 -2,0 -4,-1 -5,-2 -2,-1 -3,-3 -3,-6l0 -107 -61 111c-1,2 -3,3 -4,4l-2 1c0,0 -1,0 -2,0 -1,0 -3,-1 -5,-2 -1,-2 -2,-4 -2,-7l0 -137c0,-2 1,-4 2,-5 2,-2 4,-2 6,-2 2,0 3,0 5,2 2,1 2,3 2,5l0 108 62 -111c1,-2 2,-3 3,-4 2,-1 3,-2 4,-2 2,0 4,1 5,3 2,2 2,4 2,6l0 137zm28 -68l46 0c4,0 7,-2 10,-4 3,-3 5,-7 5,-11l0 -31c0,-4 -2,-8 -5,-11 -2,-3 -6,-4 -10,-4l-46 0 0 61zm0 15l0 53c0,3 -1,5 -2,6 -2,1 -4,2 -6,2 -2,0 -4,-1 -5,-2 -2,-1 -2,-3 -2,-6l0 -137c0,-5 2,-7 7,-7l53 0c9,0 16,3 22,9 6,5 9,13 9,21l0 31c0,8 -3,15 -9,21 -6,6 -13,9 -22,9l-45 0zm100 23l-11 33c-1,1 -2,3 -3,4 -1,0 -3,1 -4,1 -2,0 -4,-1 -6,-2 -1,-2 -2,-3 -2,-5l0 -3 46 -137c2,-5 4,-7 7,-7 4,0 6,2 7,7l46 137 1 3c0,2 -1,3 -3,5 -2,1 -3,2 -5,2 -1,0 -2,0 -4,-1 -1,0 -2,-2 -3,-4l-11 -33 -55 0zm50 -16l-23 -67 -22 67 45 0zm49 -83l-30 0c-3,0 -4,-1 -6,-2 -1,-2 -2,-4 -2,-6 0,-2 1,-3 2,-5 1,-2 3,-2 6,-2l76 0c2,0 4,0 5,2 2,2 2,3 2,5 0,2 0,4 -1,5 -2,2 -4,3 -6,3l-31 0 0 129c0,3 0,5 -2,6 -1,1 -3,2 -5,2 -2,0 -4,-1 -6,-2 -1,-1 -2,-3 -2,-6l0 -129zm81 46l38 0c2,0 4,0 5,2 2,2 3,3 3,5 0,2 -1,4 -2,5 -1,2 -3,3 -6,3l-38 0 0 61 53 0c2,0 4,1 6,2 1,2 2,3 2,5 0,2 -1,4 -2,5 -1,2 -3,3 -6,3l-61 0c-5,0 -7,-2 -7,-7l0 -138c0,-5 2,-7 7,-7l61 0c2,0 4,0 6,2 1,2 2,3 2,5 0,2 -1,4 -2,5 -1,2 -3,3 -6,3l-53 0 0 46zm164 83c0,3 0,5 -2,6 -1,1 -3,2 -5,2 -2,0 -4,-1 -5,-2 -2,-1 -3,-3 -3,-6l0 -129 -24 0 -37 131c0,2 -1,3 -3,4 -1,1 -3,2 -4,2 -3,0 -4,-1 -6,-2 -1,-1 -2,-3 -2,-5 0,-1 0,-2 0,-3l38 -137c2,-3 4,-5 8,-5l38 0c5,0 7,2 7,7l0 137zm28 -68l45 0c5,0 8,1 11,4 3,3 5,7 5,11l0 31c0,4 -2,7 -5,10 -1,2 -3,3 -5,4 -2,0 -4,1 -6,1l-45 0 0 -61zm0 -15l0 -54c0,-2 -1,-4 -3,-5 -1,-2 -3,-2 -5,-2 -2,0 -3,0 -5,2 -2,1 -3,3 -3,5l0 137c0,5 3,8 8,8l53 0c8,0 16,-3 22,-9 6,-6 9,-13 9,-21l0 -31c0,-8 -3,-15 -9,-21 -6,-6 -13,-9 -22,-9l-45 0zm164 0l0 -54c0,-2 1,-4 2,-5 2,-2 4,-2 6,-2 2,0 3,0 5,2 1,1 2,3 2,5l0 137c0,2 -1,4 -2,6 -2,1 -4,2 -6,2 -1,0 -3,-1 -5,-2 -1,-1 -2,-3 -2,-6l0 -68 -61 0 0 68c0,3 -1,5 -2,6 -2,1 -3,2 -6,2 -2,0 -3,-1 -5,-2 -1,-1 -2,-3 -2,-6l0 -137c0,-2 1,-4 2,-5 2,-2 3,-2 5,-2 2,0 4,0 6,2 1,1 2,3 2,5l0 54 61 0zm119 60c0,9 -3,16 -9,22 -6,6 -13,9 -22,9l-30 0c-8,0 -16,-3 -22,-9 -6,-6 -9,-13 -9,-22l0 -91c0,-8 3,-16 9,-21 6,-6 13,-9 22,-9l30 0c9,0 16,3 22,9 6,6 9,13 9,21l0 91zm-15 1l0 -92c0,-4 -2,-8 -5,-11 -3,-3 -6,-4 -11,-4l-30 0c-5,0 -8,1 -11,4 -2,2 -3,3 -3,5 -1,2 -1,4 -1,6l0 92c0,4 1,7 4,10 1,2 3,3 5,4 2,0 4,1 6,1l30 0c4,0 8,-2 11,-4 3,-3 5,-7 5,-11zm108 -107l-54 0 0 129c0,3 -1,5 -2,6 -1,1 -3,2 -5,2 -2,0 -4,-1 -6,-2 -1,-1 -2,-3 -2,-6l0 -137c0,-5 3,-7 8,-7l61 0c2,0 3,0 5,2 1,2 2,3 2,5 0,2 0,4 -2,5 -1,2 -3,3 -5,3zm103 106c0,9 -3,16 -9,22 -6,6 -13,9 -22,9l-30 0c-8,0 -15,-3 -21,-9 -6,-6 -9,-13 -9,-22l0 -91c0,-8 3,-16 8,-21 6,-6 14,-9 22,-9l30 0c9,0 16,3 22,9 6,6 9,13 9,21l0 91zm-15 1l0 -92c0,-4 -2,-8 -5,-11 -2,-3 -6,-4 -11,-4l-30 0c-4,0 -8,1 -11,4 -1,2 -2,3 -3,5 -1,2 -1,4 -1,6l0 92c0,4 1,7 4,10 2,2 3,3 5,4 2,0 4,1 6,1l30 0c5,0 8,-2 11,-4 3,-3 5,-7 5,-11zm240 -1c0,9 -3,16 -9,22 -6,6 -13,9 -21,9l-31 0c-8,0 -15,-3 -21,-9 -6,-6 -9,-13 -9,-22l0 -91c0,-8 3,-16 9,-21 6,-6 13,-9 21,-9l31 0c8,0 15,3 21,9 6,6 9,13 9,21l0 91zm-15 1l0 -92c0,-4 -2,-8 -4,-11 -3,-3 -7,-4 -11,-4l-31 0c-4,0 -8,1 -11,4 -1,2 -2,3 -3,5 -1,2 -1,4 -1,6l0 92c0,4 1,7 4,10 2,2 3,3 5,4 2,0 4,1 6,1l31 0c4,0 7,-2 10,-4 3,-3 5,-7 5,-11zm55 -57l64 -63c1,-2 3,-2 5,-2 2,0 4,0 5,2 2,2 3,3 3,5 0,2 -1,3 -3,6l-45 45 47 83 1 4c0,2 -1,3 -3,5 -1,1 -3,2 -5,2 -3,0 -5,-1 -7,-4l-44 -79 -18 17 0 58c0,3 -1,5 -3,6 -1,1 -3,2 -5,2 -2,0 -4,-1 -5,-2 -2,-1 -3,-3 -3,-6l0 -137c0,-2 1,-4 3,-5 1,-2 3,-2 5,-2 2,0 4,0 5,1 2,2 3,4 3,6l0 58zm103 11l46 0c4,0 8,-2 11,-4 3,-3 4,-7 4,-11l0 -31c0,-4 -1,-8 -4,-11 -3,-3 -7,-4 -11,-4l-46 0 0 61zm0 15l0 53c0,3 -1,5 -2,6 -1,1 -3,2 -5,2 -2,0 -4,-1 -6,-2 -1,-1 -2,-3 -2,-6l0 -137c0,-5 2,-7 8,-7l53 0c8,0 15,3 21,9 6,5 9,13 9,21l0 31c0,8 -3,15 -9,21 -6,6 -13,9 -21,9l-46 0zm165 0l-46 0c-8,0 -16,-3 -22,-9 -6,-6 -9,-13 -9,-21l0 -54c0,-2 1,-4 3,-5 1,-2 3,-2 5,-2 2,0 4,0 5,2 2,1 3,3 3,5l0 54c0,4 1,7 4,10 1,2 3,3 5,4 2,0 4,1 6,1l46 0 0 -69c0,-2 0,-4 2,-5 1,-2 3,-2 5,-2 2,0 4,0 5,2 2,1 3,3 3,5l0 114c0,9 -3,16 -9,22 -6,6 -13,9 -22,9l-38 0c-2,0 -4,-1 -5,-2 -2,-2 -2,-4 -2,-6 0,-1 0,-3 2,-5 1,-1 3,-2 5,-2l38 0c5,0 8,-2 11,-4 3,-3 5,-7 5,-11l0 -31zm95 -76l-53 0 0 129c0,3 -1,5 -2,6 -1,1 -3,2 -6,2 -2,0 -3,-1 -5,-2 -1,-1 -2,-3 -2,-6l0 -137c0,-5 2,-7 8,-7l60 0c3,0 4,0 6,2 1,2 2,3 2,5 0,2 -1,4 -2,5 -1,2 -3,3 -6,3zm15 99l-11 33c-1,1 -1,3 -3,4 -1,0 -2,1 -4,1 -2,0 -4,-1 -5,-2 -2,-2 -3,-3 -3,-5l1 -3 46 -137c1,-5 4,-7 7,-7 3,0 5,2 7,7l45 137 1 3c0,2 -1,3 -2,5 -2,1 -4,2 -6,2 -1,0 -2,0 -3,-1 -1,0 -3,-2 -4,-4l-11 -33 -55 0zm50 -16l-22 -67 -23 67 45 0zm304 -45c0,7 -2,12 -7,17 -5,4 -10,6 -16,6 -6,0 -11,-2 -16,-6 -4,-4 -7,-10 -7,-17l0 -31c0,-6 3,-12 7,-17 5,-3 10,-5 16,-5 6,0 11,2 16,5 5,4 7,10 7,17l0 31zm-61 91c0,2 -1,4 -2,6 -2,1 -4,2 -6,2 -3,0 -5,-1 -6,-4l-62 -111 0 107c0,3 -1,5 -2,6 -2,1 -4,2 -6,2 -2,0 -4,-1 -5,-2 -2,-1 -2,-3 -2,-6l0 -137c0,-2 0,-4 2,-5 1,-2 3,-2 5,-2 3,0 5,1 7,4l62 111 0 -108c0,-2 0,-4 2,-5 2,-2 3,-2 5,-2 2,0 4,0 6,2 1,1 2,3 2,5l0 137zm46 -91l0 -31c0,-2 -1,-4 -3,-5 -1,-2 -3,-2 -5,-2 -2,0 -3,0 -5,2 -2,1 -3,3 -3,5l0 31c0,2 1,4 2,6 2,1 4,2 6,2 2,0 4,-1 5,-2 2,-2 3,-3 3,-6zm182 91c0,3 0,5 -2,6 -1,1 -3,2 -5,2 -2,0 -4,-1 -6,-2 -1,-1 -2,-3 -2,-6l0 -118 -17 17c-2,2 -4,2 -6,2 -1,0 -3,0 -5,-2 -2,-1 -2,-3 -2,-5 0,-2 0,-4 2,-6l30 -30c1,-1 2,-2 3,-3 2,0 3,-1 4,-1 1,0 3,1 4,3 2,1 2,4 2,6l0 137zm58 -83c7,0 13,-3 17,-8 4,-4 6,-9 6,-15 0,-6 -2,-12 -6,-16 -4,-5 -10,-7 -17,-7 -7,0 -12,2 -17,7 -4,4 -6,10 -6,16 0,6 2,11 6,15 4,5 10,8 17,8zm0 15c-9,0 -17,3 -23,9 -5,6 -7,13 -7,21 0,8 2,15 7,21 6,7 14,10 23,10 10,0 17,-3 23,-10 5,-5 8,-12 8,-21 0,-8 -3,-15 -8,-21 -6,-6 -13,-9 -23,-9zm25 -9c7,4 12,10 16,17 3,7 5,14 5,22 0,12 -4,23 -12,32 -8,9 -19,14 -34,14 -14,0 -26,-5 -34,-14 -8,-9 -12,-19 -12,-32 0,-8 2,-15 5,-22 4,-7 9,-13 16,-17 -4,-3 -7,-8 -9,-13 -3,-5 -4,-11 -4,-16 0,-10 3,-19 10,-26 7,-8 16,-12 28,-12 12,0 21,4 29,12 6,7 9,16 9,26 0,5 -1,11 -3,16 -2,5 -5,10 -10,13z"/>
   <path class="fil4 str1" d="M4111 1867c0,2 0,4 -2,5 -1,2 -3,2 -5,2 -2,0 -4,0 -5,-2 -2,-1 -3,-3 -3,-5l0 -119 -17 17c-2,2 -3,3 -5,3 -2,0 -4,-1 -6,-3 -1,-1 -2,-3 -2,-5 0,-2 1,-3 2,-5l31 -31c1,-1 2,-2 3,-2 1,-1 2,-1 3,-1 1,0 3,1 5,2 1,2 1,4 1,7l0 137zm89 -26c0,9 -3,17 -10,23 -6,7 -14,10 -24,10l-9 0c-9,0 -17,-3 -23,-9 -7,-7 -10,-15 -10,-24l0 -85c0,-9 3,-17 9,-24 7,-7 15,-10 24,-10l9 0c9,0 17,3 24,10 6,6 10,14 10,24l0 85zm-15 0l0 -86c0,-5 -2,-9 -6,-12 -3,-4 -8,-6 -13,-6l-9 0c-5,0 -9,2 -13,5 -3,4 -5,8 -5,13l0 86c0,5 2,9 5,13 4,3 8,5 13,5l9 0c5,0 10,-2 13,-5 4,-4 6,-8 6,-13zm27 26c0,-2 1,-4 2,-6 2,-1 3,-2 5,-2 2,0 4,1 5,2 2,2 3,4 3,6 0,2 -1,3 -2,5 -2,1 -3,2 -6,2 -2,0 -4,0 -5,-2 -1,-2 -2,-3 -2,-5zm103 -26c0,9 -3,17 -9,23 -7,7 -15,10 -24,10l-9 0c-9,0 -17,-3 -24,-9 -6,-7 -10,-15 -10,-24l0 -85c0,-9 4,-17 10,-24 7,-7 14,-10 24,-10l9 0c9,0 17,3 23,10 7,6 10,14 10,24l0 85zm-15 0l0 -86c0,-5 -2,-9 -5,-12 -4,-4 -8,-6 -13,-6l-9 0c-5,0 -10,2 -13,5 -4,4 -6,8 -6,13l0 86c0,5 2,9 6,13 3,3 8,5 13,5l9 0c5,0 9,-2 13,-5 3,-4 5,-8 5,-13zm131 26c0,-2 1,-4 2,-6 2,-1 4,-2 6,-2 1,0 3,1 5,2 1,2 2,4 2,6 0,2 -1,3 -2,5 -2,1 -3,2 -5,2 -3,0 -4,0 -6,-2 -1,-2 -2,-3 -2,-5zm98 -86l-49 78 47 0c2,0 4,1 5,2 2,2 3,4 3,6 0,1 -1,3 -2,5 -2,1 -4,2 -6,2l-61 0c-5,0 -8,-2 -8,-6 0,-1 0,-3 2,-5l56 -90c2,-4 3,-8 3,-12 0,-6 -3,-12 -8,-17 -2,-2 -5,-4 -8,-5 -3,-1 -7,-2 -11,-2 -3,0 -7,1 -11,3 -3,2 -6,5 -9,9 0,1 -1,2 -2,3l-4 0c-2,0 -4,0 -5,-2 -2,-1 -3,-3 -3,-5 0,-1 1,-3 2,-4 3,-6 8,-10 14,-14 3,-1 6,-3 9,-4 3,-1 5,-1 8,-1 12,0 22,4 31,12 8,8 12,17 12,28 0,6 -2,12 -5,19zm94 60c0,9 -3,17 -10,23 -6,7 -14,10 -24,10l-9 0c-9,0 -17,-3 -23,-9 -7,-7 -10,-15 -10,-24l0 -85c0,-9 3,-17 9,-24 7,-7 15,-10 24,-10l9 0c9,0 17,3 24,10 7,6 10,14 10,24l0 85zm-15 0l0 -86c0,-5 -2,-9 -6,-12 -3,-4 -8,-6 -13,-6l-9 0c-5,0 -9,2 -13,5 -3,4 -5,8 -5,13l0 86c0,5 2,9 5,13 4,3 8,5 13,5l9 0c5,0 10,-2 13,-5 4,-4 6,-8 6,-13zm73 26c0,2 -1,4 -3,5 -1,2 -3,2 -5,2 -2,0 -4,0 -5,-2 -2,-1 -3,-3 -3,-5l0 -119 -17 17c-2,2 -3,3 -5,3 -2,0 -4,-1 -6,-3 -1,-1 -2,-3 -2,-5 0,-2 1,-3 2,-5l31 -31c1,-1 2,-2 3,-2 1,-1 2,-1 3,-1 2,0 3,1 5,2 1,2 2,4 2,7l0 137zm-308 -84c7,0 13,-2 17,-7 4,-5 6,-10 6,-16 0,-6 -2,-11 -6,-16 -4,-4 -9,-7 -17,-7 -6,0 -12,3 -17,7 -4,5 -6,10 -6,16 0,6 2,12 6,16 4,5 10,7 17,7zm0 15c-9,0 -17,3 -23,10 -5,5 -7,12 -7,21 0,8 2,15 7,21 6,6 14,9 23,9 10,0 18,-3 23,-9 5,-6 8,-13 8,-21 0,-8 -3,-15 -8,-21 -5,-7 -13,-10 -23,-10zm25 -8c7,4 12,9 16,16 3,7 5,15 5,23 0,12 -4,22 -11,31 -9,10 -20,14 -35,14 -14,0 -25,-4 -34,-14 -8,-8 -11,-19 -11,-31 0,-8 1,-16 5,-23 3,-7 8,-12 15,-16 -4,-4 -7,-8 -9,-14 -3,-5 -4,-10 -4,-16 0,-10 3,-19 10,-26 7,-8 16,-12 28,-12 12,0 21,4 29,12 6,7 9,16 9,26 0,6 -1,11 -3,16 -2,6 -5,10 -10,14zm310 8l0 8 0 38c0,4 1,8 4,11 2,1 3,2 5,3 2,1 4,1 6,1l15 0c5,0 8,-1 11,-4 3,-3 5,-7 5,-11l0 -31c0,-4 -2,-8 -5,-10 -2,-3 -6,-5 -11,-5l-30 0zm3 -15l27 0c9,0 16,3 22,9 6,6 9,13 9,21l0 31c0,8 -3,15 -9,21 -6,6 -13,9 -22,9l-15 0c-8,0 -15,-3 -21,-9 -6,-5 -9,-13 -9,-21l0 -38c0,-15 3,-28 8,-41 4,-9 9,-17 17,-25 7,-7 15,-13 25,-17l3 -1c2,0 4,1 6,2 1,2 2,4 2,6 0,1 -1,3 -1,4 -1,1 -2,2 -4,3 -2,1 -4,1 -6,2 -1,1 -3,2 -5,3 -3,3 -6,5 -9,8 -6,6 -11,13 -14,21l-2 6 -2 6z"/>
   <path class="fil4 str1" d="M6902 1745c0,6 -3,12 -8,17 -4,4 -9,6 -15,6 -6,0 -12,-2 -16,-6 -5,-4 -7,-10 -7,-17l0 -31c0,-7 2,-12 7,-17 4,-4 10,-5 16,-5 6,0 11,1 15,5 5,4 8,10 8,17l0 31zm-61 91c0,2 -1,4 -3,6 -1,1 -3,2 -5,2 -3,0 -5,-2 -7,-4l-62 -111 0 107c0,3 0,4 -2,6 -1,1 -3,2 -5,2 -2,0 -4,-1 -6,-2 -1,-1 -2,-3 -2,-6l0 -137c0,-2 1,-4 3,-6 1,-1 3,-1 5,-1 3,0 5,1 7,4l61 111 0 -108c0,-2 1,-4 3,-6 1,-1 3,-1 5,-1 2,0 4,0 5,1 2,2 3,4 3,6l0 137zm45 -91l0 -31c0,-2 0,-4 -2,-6 -2,-1 -3,-1 -5,-1 -2,0 -4,0 -5,2 -2,1 -3,3 -3,5l0 31c0,2 1,4 2,6 2,1 3,2 6,2 1,0 3,-1 5,-2 2,-2 2,-4 2,-6zm152 -38l0 7c0,3 0,5 -2,6 -1,1 -3,2 -5,2 -2,0 -4,-1 -6,-2 -1,-1 -2,-3 -2,-6l0 -15c0,-5 3,-7 8,-7l61 0c5,0 7,2 7,6l0 3 -38 137c0,2 -1,3 -3,4 -1,1 -3,2 -4,2 -2,0 -4,-1 -6,-2 -1,-1 -2,-3 -2,-6 0,-1 0,-1 0,-2l36 -127 -44 0zm172 -51l-84 213c0,2 -1,3 -2,4l-2 1 -3 0c-2,0 -4,0 -5,-2 -2,-1 -3,-3 -3,-5 0,-1 1,-2 1,-3l84 -213c0,-1 1,-3 2,-4l2 -1c1,0 2,0 3,0 2,0 4,0 5,2 2,1 3,3 3,5 0,1 -1,2 -1,3zm66 180c0,3 -1,4 -2,6 -2,1 -4,2 -6,2 -2,0 -4,-1 -5,-2 -2,-1 -2,-3 -2,-6l0 -119 -18 18c-1,1 -3,2 -5,2 -2,0 -4,-1 -5,-2 -2,-2 -3,-3 -3,-5 0,-2 1,-4 3,-6l30 -30c1,-1 2,-2 3,-3 1,0 2,-1 4,-1 1,0 2,1 4,3 1,1 2,3 2,6l0 137zm27 -129l0 7c0,3 -1,5 -2,6 -1,1 -3,2 -5,2 -2,0 -4,-1 -6,-2 -1,-1 -2,-3 -2,-6l0 -15c0,-5 3,-7 8,-7l61 0c5,0 7,2 7,6l0 3 -38 137c0,2 -1,3 -3,4 -1,1 -3,2 -4,2 -3,0 -4,-1 -6,-2 -1,-1 -2,-3 -2,-6 0,-1 0,-1 0,-2l36 -127 -44 0z"/>
   <path class="fil4 str1" d="M5201 2200c0,2 -1,4 -2,5 -2,2 -4,2 -6,2 -2,0 -4,0 -5,-2 -2,-1 -2,-3 -2,-5l0 -130 -61 0 0 130c0,2 -1,4 -3,5 -1,2 -3,2 -5,2 -2,0 -4,0 -5,-2 -2,-1 -2,-3 -2,-5l0 -137c0,-5 2,-8 7,-8l76 0c5,0 8,3 8,8l0 137zm103 -23c0,8 -3,15 -9,21 -6,6 -13,9 -21,9l-31 0c-8,0 -15,-3 -21,-9 -6,-6 -9,-13 -9,-21l0 -92c0,-8 3,-15 9,-21 6,-6 13,-9 21,-9l31 0c8,0 16,3 21,9 6,6 9,13 9,21l0 92zm-15 0l0 -92c0,-4 -1,-8 -4,-10 -3,-3 -7,-5 -11,-5l-31 0c-4,0 -8,2 -11,4 -1,2 -2,4 -3,5 0,2 -1,4 -1,6l0 92c0,4 2,8 4,11 2,1 4,2 5,3 3,1 5,1 6,1l31 0c4,0 8,-1 11,-4 3,-3 4,-7 4,-11zm108 30l-38 0c-8,0 -15,-3 -21,-9 -6,-6 -9,-13 -9,-21l0 -92c0,-8 3,-15 9,-21 5,-6 13,-9 21,-9l38 0c2,0 4,1 6,2 1,2 2,4 2,6 0,1 -1,3 -2,5 -1,1 -3,2 -6,2l-38 0c-4,0 -8,2 -11,4 -1,2 -2,4 -3,5 -1,2 -1,4 -1,6l0 92c0,4 1,8 4,11 2,1 3,2 5,3 2,1 4,1 6,1l38 0c2,0 4,1 6,2 1,2 2,4 2,6 0,1 -1,3 -2,5 -1,1 -3,2 -6,2zm58 -137l-30 0c-3,0 -5,-1 -6,-2 -1,-2 -2,-3 -2,-5 0,-2 1,-4 2,-6 1,-1 3,-2 6,-2l76 0c2,0 3,1 5,2 1,2 2,4 2,6 0,1 0,3 -2,5 -1,1 -3,2 -5,2l-31 0 0 130c0,2 -1,4 -2,5 -1,2 -3,2 -5,2 -2,0 -4,0 -6,-2 -1,-1 -2,-3 -2,-5l0 -130zm62 99l-11 33c-1,2 -2,3 -3,4 -1,1 -3,1 -4,1 -2,0 -4,0 -6,-2 -1,-1 -2,-3 -2,-5l0 -3 46 -137c2,-4 4,-6 7,-6 4,0 6,2 8,6l45 137 1 3c0,2 -1,4 -3,5 -1,2 -3,2 -5,2 -1,0 -2,0 -4,-1 -1,0 -2,-1 -3,-4l-11 -33 -55 0zm50 -15l-23 -67 -22 67 45 0zm118 -38l0 -53c0,-2 1,-4 2,-6 2,-1 3,-2 5,-2 2,0 4,1 6,2 1,1 2,3 2,6l0 136c0,3 -1,5 -2,6 -2,2 -4,2 -6,2 -2,0 -3,0 -5,-2 -1,-1 -2,-3 -2,-5l0 -69 -61 0 0 69c0,2 -1,4 -2,5 -2,2 -4,2 -6,2 -2,0 -4,0 -5,-2 -2,-1 -2,-3 -2,-5l0 -137c0,-2 0,-4 2,-6 1,-1 3,-2 5,-2 2,0 4,1 5,2 2,1 3,3 3,6l0 53 61 0zm118 61c0,8 -3,15 -8,21 -6,6 -14,9 -22,9l-30 0c-9,0 -16,-3 -22,-9 -6,-6 -9,-13 -9,-21l0 -92c0,-8 3,-15 9,-21 6,-6 13,-9 22,-9l30 0c8,0 16,3 22,9 5,6 8,13 8,21l0 92zm-15 0l0 -92c0,-4 -1,-8 -4,-10 -3,-3 -7,-5 -11,-5l-30 0c-5,0 -8,2 -11,4 -2,2 -3,4 -4,5 0,2 -1,4 -1,6l0 92c0,4 2,8 5,11 1,1 3,2 5,3 2,1 4,1 6,1l30 0c4,0 8,-1 11,-4 3,-3 4,-7 4,-11zm117 -57c4,3 7,7 10,11 3,5 4,10 4,15l0 31c0,8 -3,15 -9,21 -6,6 -13,9 -21,9l-54 0c-5,0 -7,-2 -7,-7l0 -137c0,-5 2,-8 7,-8l46 0c9,0 16,3 22,9 6,6 9,13 9,21l0 16c0,3 -1,7 -2,10 -1,3 -3,6 -5,9zm-62 11l0 61 46 0c4,0 7,-1 10,-4 3,-3 5,-7 5,-11l0 -31c0,-4 -2,-8 -4,-10 -3,-3 -7,-5 -11,-5l-46 0zm38 -15c4,0 8,-1 11,-4 3,-3 4,-7 4,-11l0 -16c0,-4 -1,-7 -4,-10 -3,-3 -6,-5 -11,-5l-38 0 0 46 38 0zm126 84c0,2 -1,4 -3,5 -1,2 -3,2 -5,2 -2,0 -4,0 -5,-2 -2,-1 -3,-3 -3,-5l0 -130 -24 0 -37 132c0,1 -1,2 -2,4 -2,1 -4,1 -5,1 -2,0 -4,0 -6,-2 -1,-1 -2,-3 -2,-5 0,-1 0,-2 0,-2l39 -137c1,-4 3,-6 7,-6l38 0c5,0 8,3 8,8l0 137zm27 -84l38 0c2,0 4,1 5,2 2,2 3,4 3,6 0,1 -1,3 -2,5 -2,1 -4,2 -6,2l-38 0 0 61 53 0c2,0 4,1 6,2 1,2 2,4 2,6 0,2 -1,3 -2,5 -1,1 -3,2 -6,2l-61 0c-5,0 -8,-2 -8,-7l0 -137c0,-5 3,-8 8,-8l61 0c2,0 4,1 6,2 1,2 2,4 2,6 0,1 -1,3 -2,5 -1,1 -3,2 -6,2l-53 0 0 46zm149 0l0 -53c0,-2 1,-4 2,-6 2,-1 3,-2 5,-2 2,0 4,1 6,2 1,1 2,3 2,6l0 136c0,3 -1,5 -2,6 -2,2 -4,2 -6,2 -2,0 -3,0 -5,-2 -1,-1 -2,-3 -2,-5l0 -69 -61 0 0 69c0,2 -1,4 -2,5 -2,2 -3,2 -6,2 -2,0 -3,0 -5,-2 -2,-1 -2,-3 -2,-5l0 -137c0,-2 0,-4 2,-6 2,-1 3,-2 5,-2 2,0 4,1 6,2 1,1 2,3 2,6l0 53 61 0zm119 84c0,2 -1,4 -3,5 -1,2 -3,2 -5,2 -2,0 -4,0 -5,-2 -2,-1 -3,-3 -3,-5l0 -108 -61 111c-1,2 -2,3 -4,4l-1 1c-1,0 -2,0 -3,1 -1,0 -3,-1 -5,-3 -1,-1 -2,-3 -2,-6l0 -137c0,-2 1,-4 2,-6 2,-1 4,-2 6,-2 2,0 4,1 5,2 2,1 2,3 2,6l0 107 62 -111c1,-1 2,-2 3,-4 2,-1 3,-1 5,-1 1,0 3,1 4,2 2,2 3,4 3,7l0 137zm27 -84l38 0c2,0 4,1 6,2 1,2 2,4 2,6 0,1 -1,3 -2,5 -1,1 -3,2 -6,2l-38 0 0 61 53 0c2,0 4,1 6,2 1,2 2,4 2,6 0,2 -1,3 -2,5 -1,1 -3,2 -6,2l-61 0c-5,0 -7,-2 -7,-7l0 -137c0,-5 2,-8 7,-8l61 0c2,0 4,1 6,2 1,2 2,4 2,6 0,1 -1,3 -2,5 -1,1 -3,2 -6,2l-53 0 0 46z"/>
   <g>
    <path class="fil4 str1" d="M4677 2702c0,8 -3,15 -9,21 -6,6 -13,9 -21,9l-31 0c-8,0 -15,-3 -21,-9 -6,-5 -9,-13 -9,-21l0 -91c0,-9 3,-16 9,-22 6,-6 13,-9 21,-9l31 0c8,0 16,3 21,9 6,6 9,13 9,22l0 91zm-15 0l0 -92c0,-4 -1,-7 -4,-10 -3,-3 -7,-5 -11,-5l-31 0c-4,0 -7,2 -10,5 -2,1 -3,3 -4,5 0,1 -1,3 -1,5l0 92c0,4 2,8 5,11 1,1 3,2 4,3 3,1 5,1 6,1l31 0c4,0 8,-1 11,-4 3,-3 4,-7 4,-11zm55 -46l0 61 46 0c4,0 7,-1 10,-4 3,-3 5,-7 5,-11l0 -31c0,-4 -2,-7 -4,-10 -3,-3 -7,-5 -11,-5l-46 0zm0 -15l46 0c8,0 15,3 21,9 6,6 9,13 9,21l0 31c0,8 -3,15 -9,21 -6,6 -13,9 -21,9l-54 0c-5,0 -7,-2 -7,-7l0 -137c0,-5 2,-8 7,-8l61 0c2,0 4,1 6,2 1,2 2,4 2,6 0,1 -1,3 -2,5 -1,1 -3,2 -6,2l-53 0 0 46zm274 30l-46 0c-8,0 -15,-3 -21,-9 -6,-5 -9,-13 -9,-21l0 -53c0,-2 0,-4 2,-6 2,-1 3,-2 5,-2 2,0 4,1 6,2 1,1 2,3 2,6l0 53c0,4 1,8 4,11 2,1 3,2 5,3 2,1 4,1 6,1l46 0 0 -68c0,-2 1,-4 2,-6 2,-1 3,-2 5,-2 2,0 4,1 6,2 1,1 2,3 2,6l0 114c0,8 -3,15 -9,21 -6,6 -13,9 -21,9l-38 0c-3,0 -5,0 -6,-2 -1,-1 -2,-3 -2,-5 0,-2 1,-4 2,-5 1,-2 3,-3 6,-3l38 0c4,0 7,-1 10,-4 3,-3 5,-7 5,-11l0 -31zm96 61l-38 0c-9,0 -16,-3 -22,-9 -6,-5 -9,-13 -9,-21l0 -91c0,-9 3,-16 9,-22 6,-6 13,-9 22,-9l38 0c2,0 4,1 5,2 2,2 2,4 2,6 0,1 0,3 -1,5 -2,1 -4,2 -6,2l-38 0c-5,0 -8,2 -11,5 -2,1 -3,3 -4,5 0,1 -1,3 -1,5l0 92c0,4 2,8 5,11 1,1 3,2 5,3 2,1 4,1 6,1l38 0c2,0 4,1 5,3 2,1 2,3 2,5 0,2 0,3 -1,5 -2,2 -4,2 -6,2zm58 -137l-31 0c-2,0 -4,0 -6,-2 -1,-2 -1,-3 -1,-5 0,-2 0,-4 1,-5 2,-2 4,-3 6,-3l76 0c2,0 4,1 6,2 1,2 2,4 2,6 0,1 -1,3 -2,5 -1,1 -3,2 -6,2l-30 0 0 130c0,2 -1,4 -2,5 -2,2 -4,2 -6,2 -2,0 -4,0 -5,-2 -2,-1 -2,-3 -2,-5l0 -130zm61 99l-11 33c0,2 -1,3 -3,4 -1,1 -2,1 -4,1 -2,0 -3,0 -5,-2 -2,-1 -2,-3 -2,-5l0 -3 46 -137c1,-4 4,-6 7,-6 3,0 6,2 7,6l46 137 0 3c0,2 -1,4 -2,5 -2,2 -4,2 -6,2 -1,0 -2,0 -3,0 -1,-1 -2,-2 -4,-5l-11 -33 -55 0zm50 -15l-22 -67 -22 67 44 0zm118 -38l0 -53c0,-2 1,-4 3,-6 1,-1 3,-2 5,-2 2,0 4,1 5,2 2,1 3,3 3,6l0 137c0,2 -1,4 -3,5 -2,2 -3,2 -5,2 -2,0 -4,0 -5,-2 -2,-1 -3,-3 -3,-5l0 -69 -61 0 0 69c0,2 0,4 -2,5 -1,2 -3,2 -5,2 -2,0 -4,0 -5,-2 -2,-1 -3,-3 -3,-5l0 -137c0,-2 1,-4 3,-6 1,-1 3,-2 5,-2 2,0 4,1 5,2 2,1 2,3 2,6l0 53 61 0zm119 61c0,8 -3,15 -9,21 -6,6 -13,9 -21,9l-31 0c-8,0 -15,-3 -21,-9 -6,-5 -9,-13 -9,-21l0 -91c0,-9 3,-16 9,-22 6,-6 13,-9 21,-9l31 0c8,0 15,3 21,9 6,6 9,13 9,22l0 91zm-15 0l0 -92c0,-4 -2,-7 -4,-10 -3,-3 -7,-5 -11,-5l-31 0c-4,0 -8,2 -11,5 -1,1 -2,3 -3,5 -1,1 -1,3 -1,5l0 92c0,4 1,8 4,11 2,1 3,2 5,3 2,1 4,1 6,1l31 0c4,0 7,-1 10,-4 3,-3 5,-7 5,-11zm116 -57c5,3 8,7 11,11 2,5 4,10 4,15l0 31c0,8 -3,15 -9,21 -6,6 -13,9 -22,9l-53 0c-5,0 -8,-2 -8,-7l0 -137c0,-5 3,-8 8,-8l46 0c8,0 15,3 21,9 6,6 9,13 9,22l0 15c0,3 0,7 -2,10 -1,3 -2,6 -5,9zm-61 11l0 61 45 0c5,0 8,-1 11,-4 3,-3 5,-7 5,-11l0 -31c0,-4 -2,-7 -5,-10 -3,-3 -6,-5 -11,-5l-45 0zm38 -15c4,0 8,-1 11,-4 2,-3 4,-7 4,-11l0 -16c0,-4 -1,-7 -4,-10 -3,-3 -7,-5 -11,-5l-38 0 0 46 38 0zm125 84c0,2 -1,4 -2,5 -1,2 -3,2 -5,2 -2,0 -4,0 -6,-2 -1,-1 -2,-3 -2,-5l0 -130 -25 0 -36 132c-1,1 -1,3 -3,4 -1,1 -3,1 -5,1 -2,0 -4,0 -5,-2 -2,-1 -2,-3 -2,-5 0,-1 0,-2 0,-2l38 -137c1,-4 4,-6 7,-6l38 0c6,0 8,3 8,8l0 137zm27 -84l39 0c2,0 3,1 5,2 1,2 2,4 2,6 0,1 0,3 -2,5 -1,1 -3,2 -5,2l-39 0 0 61 54 0c2,0 4,1 5,3 2,1 2,3 2,5 0,2 0,3 -2,5 -1,2 -3,2 -5,2l-61 0c-5,0 -8,-2 -8,-7l0 -137c0,-5 3,-8 8,-8l61 0c2,0 4,1 5,2 2,2 2,4 2,6 0,1 0,3 -2,5 -1,1 -3,2 -5,2l-54 0 0 46zm149 0l0 -53c0,-2 1,-4 3,-6 1,-1 3,-2 5,-2 2,0 4,1 5,2 2,1 3,3 3,6l0 137c0,2 -1,4 -3,5 -2,2 -3,2 -5,2 -2,0 -4,0 -5,-2 -2,-1 -3,-3 -3,-5l0 -69 -61 0 0 69c0,2 0,4 -2,5 -1,2 -3,2 -5,2 -2,0 -4,0 -5,-2 -2,-1 -3,-3 -3,-5l0 -137c0,-2 1,-4 3,-6 1,-1 3,-2 5,-2 2,0 4,1 5,2 2,1 2,3 2,6l0 53 61 0zm119 84c0,2 -1,4 -2,5 -1,2 -3,2 -5,2 -2,0 -4,0 -6,-2 -1,-1 -2,-3 -2,-5l0 -108 -62 111c-1,2 -2,3 -3,4l-2 1c0,0 -1,0 -2,1 -2,0 -3,-1 -5,-3 -2,-1 -2,-3 -2,-6l0 -137c0,-2 1,-4 2,-6 2,-1 3,-2 5,-2 2,0 4,1 6,2 1,1 2,3 2,6l0 107 62 -111c0,-1 2,-2 3,-4 1,-1 3,-1 4,-1 2,0 3,1 5,2 1,2 2,4 2,7l0 137zm104 0c0,2 -1,4 -3,5 -1,2 -3,2 -5,2 -2,0 -4,0 -5,-2 -2,-1 -3,-3 -3,-5l0 -108 -61 111c-1,2 -2,3 -4,4l-1 1c-1,0 -2,0 -3,1 -1,0 -3,-1 -5,-3 -1,-1 -2,-3 -2,-6l0 -137c0,-2 1,-4 3,-6 1,-1 3,-2 5,-2 2,0 4,1 5,2 2,1 2,3 2,6l0 107 62 -111c1,-1 2,-2 3,-4 2,-1 3,-1 5,-1 1,0 3,1 4,2 2,2 3,4 3,7l0 137zm198 -80c4,3 8,7 11,11 2,5 4,10 4,15l0 31c0,8 -3,15 -9,21 -6,6 -13,9 -22,9l-53 0c-5,0 -8,-2 -8,-7l0 -137c0,-5 3,-8 8,-8l46 0c8,0 15,3 21,9 6,6 9,13 9,22l0 15c0,3 0,7 -2,10 -1,3 -2,6 -5,9zm-61 11l0 61 45 0c4,0 8,-1 11,-4 3,-3 5,-7 5,-11l0 -31c0,-4 -2,-7 -5,-10 -3,-3 -6,-5 -11,-5l-45 0zm38 -15c4,0 7,-1 10,-4 3,-3 5,-7 5,-11l0 -16c0,-4 -2,-7 -4,-10 -3,-3 -7,-5 -11,-5l-38 0 0 46 38 0zm65 15l46 0c4,0 8,-1 11,-4 3,-3 4,-7 4,-11l0 -31c0,-4 -1,-7 -4,-10 -3,-3 -7,-5 -11,-5l-46 0 0 61zm0 15l0 54c0,2 -1,4 -2,5 -2,2 -3,2 -6,2 -2,0 -3,0 -5,-2 -1,-1 -2,-3 -2,-5l0 -137c0,-5 2,-8 7,-8l54 0c8,0 15,3 21,9 6,6 9,13 9,21l0 31c0,8 -3,15 -9,21 -6,6 -13,9 -21,9l-46 0zm103 -30l39 0c2,0 4,1 5,2 2,2 2,4 2,6 0,1 0,3 -2,5 -1,1 -3,2 -5,2l-39 0 0 61 54 0c2,0 4,1 5,3 2,1 3,3 3,5 0,2 -1,3 -2,5 -2,2 -3,2 -6,2l-61 0c-5,0 -8,-2 -8,-7l0 -137c0,-5 3,-8 8,-8l61 0c2,0 4,1 5,2 2,2 3,4 3,6 0,1 -1,3 -2,5 -2,1 -3,2 -6,2l-54 0 0 46zm180 84c0,2 0,4 -2,5 -1,2 -3,2 -5,2 -2,0 -4,0 -5,-2 -2,-1 -3,-3 -3,-5l0 -109 -31 53c-2,3 -4,5 -7,5 -2,0 -4,-2 -7,-5l-31 -53 0 109c0,2 -1,4 -2,5 -2,2 -4,2 -6,2 -2,0 -4,0 -5,-2 -2,-1 -2,-3 -2,-5l0 -137c0,-2 0,-5 2,-6 1,-2 3,-2 5,-2 1,0 2,0 3,1 1,0 3,2 4,4l39 65 39 -65c2,-4 4,-5 7,-5 2,0 4,0 5,2 2,2 2,4 2,6l0 137zm27 -84l39 0c2,0 4,1 5,2 2,2 2,4 2,6 0,1 0,3 -2,5 -1,1 -3,2 -5,2l-39 0 0 61 54 0c2,0 4,1 5,3 2,1 3,3 3,5 0,2 -1,3 -2,5 -2,2 -3,2 -6,2l-61 0c-5,0 -8,-2 -8,-7l0 -137c0,-5 3,-8 8,-8l61 0c2,0 4,1 5,2 2,2 3,4 3,6 0,1 -1,3 -2,5 -2,1 -3,2 -6,2l-54 0 0 46zm150 0l0 -53c0,-2 0,-4 2,-6 1,-1 3,-2 5,-2 2,0 4,1 6,2 1,1 2,3 2,6l0 137c0,2 -1,4 -3,5 -1,2 -3,2 -5,2 -2,0 -3,0 -5,-2 -2,-1 -2,-3 -2,-5l0 -69 -61 0 0 69c0,2 -1,4 -2,5 -2,2 -4,2 -6,2 -2,0 -4,0 -5,-2 -2,-1 -2,-3 -2,-5l0 -137c0,-2 0,-4 2,-6 1,-1 3,-2 5,-2 2,0 4,1 5,2 2,1 3,3 3,6l0 53 61 0zm118 84c0,2 0,4 -2,5 -1,2 -3,2 -5,2 -2,0 -4,0 -6,-2 -1,-1 -2,-3 -2,-5l0 -108 -62 111c0,2 -2,3 -3,4l-2 1c0,0 -1,0 -2,1 -1,0 -3,-1 -5,-3 -1,-1 -2,-3 -2,-6l0 -137c0,-2 1,-4 2,-6 2,-1 4,-2 6,-2 2,0 3,1 5,2 1,1 2,3 2,6l0 107 62 -111c1,-1 2,-2 3,-4 2,-1 3,-1 4,-1 2,0 4,1 5,2 2,2 2,4 2,7l0 137zm-2747 243c0,3 0,5 -2,6 -1,1 -3,2 -5,2 -2,0 -4,-1 -5,-2 -2,-1 -3,-3 -3,-6l0 -129 -61 0 0 129c0,3 0,5 -2,6 -1,1 -3,2 -5,2 -2,0 -4,-1 -6,-2 -1,-1 -2,-3 -2,-6l0 -137c0,-5 3,-7 8,-7l76 0c5,0 7,2 7,7l0 137zm28 -68l46 0c4,0 7,-2 10,-4 3,-3 5,-7 5,-11l0 -31c0,-4 -2,-8 -4,-11 -3,-3 -7,-4 -11,-4l-46 0 0 61zm0 15l0 53c0,3 -1,5 -2,6 -2,1 -4,2 -6,2 -2,0 -4,-1 -5,-2 -2,-1 -2,-3 -2,-6l0 -137c0,-5 2,-7 7,-7l54 0c8,0 15,3 21,9 6,6 9,13 9,21l0 31c0,8 -3,15 -9,21 -6,6 -13,9 -21,9l-46 0zm103 -30l39 0c2,0 4,0 5,2 2,2 2,3 2,5 0,2 0,4 -2,5 -1,2 -3,3 -5,3l-39 0 0 61 54 0c2,0 4,1 5,2 2,2 2,3 2,5 0,2 0,4 -1,6 -2,1 -4,2 -6,2l-61 0c-5,0 -8,-2 -8,-7l0 -138c0,-5 3,-7 8,-7l61 0c2,0 4,0 5,2 2,2 2,3 2,5 0,2 0,4 -1,5 -2,2 -4,3 -6,3l-54 0 0 46zm89 76l15 -131c0,-4 2,-6 7,-6l46 0c5,0 8,2 8,7l0 130 7 0c6,0 8,2 8,7l0 16c0,2 -1,3 -2,5 -2,1 -4,2 -5,2 -2,0 -4,-1 -6,-2 -1,-1 -2,-3 -2,-5l0 -8 -76 0 0 8c0,2 -1,3 -3,5 -1,1 -3,2 -5,2 -2,0 -3,-1 -5,-2 -2,-1 -3,-3 -3,-5l0 -16c0,-5 3,-7 8,-7l8 0zm61 0l0 -122 -32 0 -13 122 45 0zm127 -16c0,9 -3,16 -9,22 -6,6 -13,9 -22,9l-30 0c-9,0 -16,-3 -22,-9 -6,-6 -9,-13 -9,-22l0 -91c0,-8 3,-16 9,-21 6,-6 13,-9 22,-9l30 0c9,0 16,3 22,9 6,6 9,13 9,21l0 91zm-16 1l0 -92c0,-4 -1,-8 -4,-11 -3,-3 -6,-4 -11,-4l-30 0c-5,0 -8,1 -11,4 -2,2 -3,3 -4,5 0,2 -1,4 -1,6l0 92c0,4 2,7 5,10 1,2 3,3 5,4 2,0 4,1 6,1l30 0c4,0 8,-2 11,-4 3,-3 4,-7 4,-11zm109 30l-39 0c-8,0 -15,-3 -21,-9 -6,-6 -9,-13 -9,-22l0 -91c0,-8 3,-16 9,-21 6,-6 13,-9 21,-9l39 0c2,0 3,0 5,2 1,2 2,3 2,5 0,2 -1,4 -2,5 -1,2 -3,3 -6,3l-38 0c-4,0 -8,1 -11,4 -1,2 -2,3 -3,5 -1,2 -1,4 -1,6l0 92c0,4 2,7 4,10 2,2 4,3 5,4 3,0 5,1 6,1l38 0c3,0 4,1 6,2 1,2 2,3 2,5 0,2 -1,4 -2,5 -1,2 -3,3 -5,3zm57 -137l-30 0c-2,0 -4,-1 -6,-2 -1,-2 -2,-4 -2,-6 0,-2 1,-3 2,-5 1,-2 3,-2 6,-2l76 0c2,0 4,0 5,2 2,2 2,3 2,5 0,2 0,4 -1,5 -2,2 -4,3 -6,3l-31 0 0 129c0,3 0,5 -2,6 -1,1 -3,2 -5,2 -2,0 -4,-1 -5,-2 -2,-1 -3,-3 -3,-6l0 -129zm62 99l-11 33c-1,1 -2,3 -3,4 -1,0 -2,1 -4,1 -2,0 -4,-1 -5,-2 -2,-2 -3,-3 -3,-5l1 -3 46 -137c1,-4 3,-7 7,-7 3,0 5,3 7,7l45 137 1 3c0,2 -1,3 -3,5 -1,1 -3,2 -5,2 -1,0 -2,0 -3,-1 -2,0 -3,-2 -4,-4l-11 -33 -55 0zm50 -16l-22 -67 -23 67 45 0zm119 -33c4,3 8,6 10,11 3,5 4,10 4,15l0 30c0,9 -3,16 -9,22 -6,6 -13,9 -21,9l-53 0c-6,0 -8,-3 -8,-8l0 -137c0,-5 2,-7 8,-7l45 0c9,0 16,3 22,9 6,6 9,13 9,21l0 15c0,4 -1,7 -2,10 -1,4 -3,7 -5,10zm-62 11l0 61 46 0c4,0 8,-2 11,-4 3,-3 4,-7 4,-11l0 -31c0,-4 -1,-8 -4,-11 -3,-3 -7,-4 -11,-4l-46 0zm38 -15c4,0 8,-2 11,-5 3,-2 5,-6 5,-11l0 -15c0,-4 -2,-8 -5,-11 -3,-3 -6,-4 -11,-4l-38 0 0 46 38 0zm126 83c0,3 -1,5 -3,6 -1,1 -3,2 -5,2 -2,0 -4,-1 -5,-2 -2,-1 -2,-3 -2,-6l0 -129 -25 0 -37 131c0,2 -1,3 -2,4 -2,1 -3,2 -5,2 -2,0 -4,-1 -6,-2 -1,-1 -2,-3 -2,-5 0,-1 0,-2 1,-3l38 -137c1,-3 3,-5 7,-5l38 0c5,0 8,2 8,7l0 137zm27 -83l38 0c2,0 4,0 5,2 2,2 3,3 3,5 0,2 -1,4 -2,5 -1,2 -3,3 -6,3l-38 0 0 61 53 0c2,0 4,1 6,2 1,2 2,3 2,5 0,2 -1,4 -2,6 -1,1 -3,2 -6,2l-61 0c-5,0 -7,-2 -7,-7l0 -138c0,-5 2,-7 7,-7l61 0c2,0 4,0 6,2 1,2 2,3 2,5 0,2 -1,4 -2,5 -1,2 -3,3 -6,3l-53 0 0 46z"/>
    <path class="fil4 str1" d="M5233 2885l0 -54c0,-2 1,-4 2,-5 2,-2 4,-2 6,-2 2,0 3,0 5,2 1,1 2,3 2,5l0 137c0,2 -1,4 -2,6 -2,1 -4,2 -6,2 -1,0 -3,-1 -5,-2 -1,-1 -2,-3 -2,-6l0 -68 -61 0 0 68c0,3 -1,5 -2,6 -1,1 -3,2 -6,2 -2,0 -3,-1 -5,-2 -1,-1 -2,-3 -2,-6l0 -137c0,-2 1,-4 2,-5 2,-2 3,-2 5,-2 2,0 4,0 6,2 1,1 2,3 2,5l0 54 61 0zm119 83c0,3 -1,5 -2,6 -2,1 -4,2 -6,2 -2,0 -4,-1 -5,-2 -2,-1 -2,-3 -2,-6l0 -107 -62 111c-1,2 -2,3 -4,4l-1 1c-1,0 -2,0 -3,0 -1,0 -3,-1 -5,-2 -1,-2 -2,-4 -2,-7l0 -137c0,-2 1,-4 3,-5 1,-2 3,-2 5,-2 2,0 4,0 5,2 2,1 3,3 3,5l0 108 61 -111c1,-2 2,-3 4,-4 1,-1 2,-2 4,-2 1,0 3,1 4,3 2,2 3,4 3,6l0 137zm88 -68l0 -61 -46 0c-4,0 -8,1 -11,4 -1,2 -2,3 -3,5 -1,2 -1,4 -1,6l0 31c0,4 1,7 4,10 2,2 4,3 5,4 2,0 4,1 6,1l46 0zm-26 15l-36 57c-2,3 -4,4 -6,4 -2,0 -4,-1 -6,-2 -1,-2 -2,-4 -2,-6 0,-1 0,-3 1,-4l31 -49 -2 0c-8,0 -15,-3 -21,-9 -6,-6 -9,-13 -9,-21l0 -31c0,-8 3,-16 9,-21 6,-6 13,-9 21,-9l54 0c5,0 7,2 7,7l0 137c0,3 -1,5 -2,6 -1,1 -3,2 -5,2 -2,0 -4,-1 -6,-2 -1,-1 -2,-3 -2,-6l0 -53 -26 0zm209 -15l-23 0c-2,0 -4,-1 -6,-2 -1,-2 -2,-4 -2,-6 0,-2 1,-3 2,-5 2,-2 3,-2 6,-2l23 0c4,0 8,-2 10,-5 3,-2 5,-6 5,-11l0 -15c0,-4 -2,-8 -4,-11 -3,-3 -7,-4 -11,-4l-16 0c-3,0 -6,1 -8,3 -3,1 -5,4 -6,7 0,2 -1,3 -2,4 -1,1 -2,1 -2,1l-3 1c-2,0 -4,-1 -6,-2 -1,-2 -2,-4 -2,-6l1 -3c1,-6 5,-11 10,-15 6,-3 12,-5 18,-5l16 0c8,0 15,3 21,9 6,6 9,13 9,21l0 15c0,5 -1,9 -3,13 -1,4 -4,7 -7,10 7,6 10,14 10,23l0 30c0,9 -3,16 -9,22 -6,6 -13,9 -21,9l-16 0c-6,0 -12,-2 -17,-6 -5,-4 -9,-9 -11,-15l-1 -3c0,-2 1,-3 2,-5 2,-1 4,-2 6,-2 3,0 5,1 7,5 1,3 3,6 5,8 3,2 6,3 9,3l16 0c4,0 8,-2 10,-4 3,-3 5,-7 5,-11l0 -31c0,-4 -1,-8 -4,-11 -2,-3 -6,-4 -11,-4zm61 38l-11 33c0,1 -1,3 -3,4 -1,0 -2,1 -4,1 -2,0 -4,-1 -5,-2 -2,-2 -3,-3 -3,-5l1 -3 46 -137c1,-4 4,-7 7,-7 3,0 6,3 7,7l46 137 0 3c0,2 -1,3 -2,5 -2,1 -4,2 -6,2 -1,0 -2,0 -3,-1 -1,0 -3,-2 -4,-4l-11 -33 -55 0zm50 -16l-22 -67 -23 67 45 0zm57 -22l46 0c4,0 8,-2 11,-4 3,-3 4,-7 4,-11l0 -31c0,-4 -1,-8 -4,-11 -3,-3 -7,-4 -11,-4l-46 0 0 61zm0 15l0 53c0,3 0,5 -2,6 -1,1 -3,2 -5,2 -2,0 -4,-1 -6,-2 -1,-1 -2,-3 -2,-6l0 -137c0,-5 3,-7 8,-7l53 0c8,0 16,3 22,9 5,6 8,13 8,21l0 31c0,8 -3,15 -8,21 -6,6 -14,9 -22,9l-46 0zm104 -30l38 0c2,0 4,0 5,2 2,2 3,3 3,5 0,2 -1,4 -2,5 -1,2 -3,3 -6,3l-38 0 0 61 53 0c2,0 4,1 6,2 1,2 2,3 2,5 0,2 -1,4 -2,6 -1,1 -3,2 -6,2l-61 0c-5,0 -7,-2 -7,-7l0 -138c0,-5 2,-7 7,-7l61 0c2,0 4,0 6,2 1,2 2,3 2,5 0,2 -1,4 -2,5 -1,2 -3,3 -6,3l-53 0 0 46zm141 -46l-53 0 0 129c0,3 -1,5 -2,6 -1,1 -3,2 -6,2 -2,0 -3,-1 -5,-2 -1,-1 -2,-3 -2,-6l0 -137c0,-5 2,-7 8,-7l61 0c2,0 3,0 5,2 1,2 2,3 2,5 0,2 -1,4 -2,5 -1,2 -3,3 -6,3zm111 129c0,3 0,5 -2,6 -1,1 -3,2 -5,2 -2,0 -4,-1 -5,-2 -2,-1 -3,-3 -3,-6l0 -107 -61 111c-1,2 -2,3 -4,4l-1 1c-1,0 -2,0 -3,0 -1,0 -3,-1 -5,-2 -1,-2 -2,-4 -2,-7l0 -137c0,-2 1,-4 2,-5 2,-2 4,-2 6,-2 2,0 3,0 5,2 2,1 2,3 2,5l0 108 62 -111c1,-2 2,-3 3,-4 2,-1 3,-2 5,-2 1,0 3,1 4,3 2,2 2,4 2,6l0 137zm81 8l-38 0c-8,0 -15,-3 -21,-9 -6,-6 -9,-13 -9,-22l0 -91c0,-8 3,-16 9,-21 5,-6 13,-9 21,-9l38 0c2,0 4,0 6,2 1,2 2,3 2,5 0,2 -1,4 -2,5 -1,2 -3,3 -6,3l-38 0c-4,0 -8,1 -11,4 -1,2 -2,3 -3,5 -1,2 -1,4 -1,6l0 92c0,4 1,7 4,10 2,2 3,3 5,4 2,0 4,1 6,1l38 0c2,0 4,1 6,2 1,2 2,3 2,5 0,2 -1,4 -2,5 -1,2 -3,3 -6,3zm58 -137l-30 0c-3,0 -5,-1 -6,-2 -1,-2 -2,-4 -2,-6 0,-2 1,-3 2,-5 1,-2 3,-2 6,-2l76 0c2,0 4,0 5,2 1,2 2,3 2,5 0,2 0,4 -2,5 -1,2 -3,3 -5,3l-31 0 0 129c0,3 -1,5 -2,6 -1,1 -3,2 -5,2 -2,0 -4,-1 -6,-2 -1,-1 -2,-3 -2,-6l0 -129zm81 61l45 0c5,0 8,-2 11,-4 3,-3 5,-7 5,-11l0 -31c0,-4 -2,-8 -5,-11 -3,-3 -6,-4 -11,-4l-45 0 0 61zm0 15l0 53c0,3 -1,5 -3,6 -1,1 -3,2 -5,2 -2,0 -4,-1 -5,-2 -2,-1 -3,-3 -3,-6l0 -137c0,-5 3,-7 8,-7l53 0c9,0 16,3 22,9 6,6 9,13 9,21l0 31c0,8 -3,15 -9,21 -6,6 -13,9 -22,9l-45 0zm179 53c0,3 -1,5 -2,6 -1,1 -3,2 -5,2 -2,0 -4,-1 -6,-2 -1,-1 -2,-3 -2,-6l0 -107 -62 111c-1,2 -2,3 -3,4l-2 1c0,0 -1,0 -2,0 -2,0 -3,-1 -5,-2 -1,-2 -2,-4 -2,-7l0 -137c0,-2 1,-4 2,-5 2,-2 3,-2 5,-2 2,0 4,0 6,2 1,1 2,3 2,5l0 108 62 -111c1,-2 2,-3 3,-4 1,-1 3,-2 4,-2 2,0 3,1 5,3 1,2 2,4 2,6l0 137zm28 -68l45 0c5,0 8,-2 11,-4 3,-3 5,-7 5,-11l0 -31c0,-4 -2,-8 -5,-11 -3,-3 -6,-4 -11,-4l-45 0 0 61zm0 15l0 53c0,3 -1,5 -3,6 -1,1 -3,2 -5,2 -2,0 -4,-1 -5,-2 -2,-1 -3,-3 -3,-6l0 -137c0,-5 3,-7 8,-7l53 0c9,0 16,3 22,9 6,6 9,13 9,21l0 31c0,8 -3,15 -9,21 -6,6 -13,9 -22,9l-45 0zm179 30c0,9 -3,16 -9,22 -6,6 -13,9 -21,9l-31 0c-8,0 -15,-3 -21,-9 -6,-6 -9,-13 -9,-22l0 -91c0,-8 3,-16 9,-21 6,-6 13,-9 21,-9l31 0c8,0 15,3 21,9 6,6 9,13 9,21l0 91zm-15 1l0 -92c0,-4 -1,-8 -4,-11 -3,-3 -7,-4 -11,-4l-31 0c-4,0 -8,1 -11,4 -1,2 -2,3 -3,5 -1,2 -1,4 -1,6l0 92c0,4 1,7 4,10 2,2 4,3 5,4 2,0 4,1 6,1l31 0c4,0 8,-2 11,-4 3,-3 4,-7 4,-11zm116 -57c5,3 8,6 11,11 2,5 4,10 4,15l0 30c0,9 -3,16 -9,22 -6,6 -13,9 -22,9l-53 0c-5,0 -7,-3 -7,-8l0 -137c0,-5 2,-7 7,-7l46 0c8,0 15,3 21,9 6,6 9,13 9,21l0 15c0,4 0,7 -1,10 -1,4 -3,7 -6,10zm-61 11l0 61 45 0c5,0 8,-2 11,-4 3,-3 5,-7 5,-11l0 -31c0,-4 -2,-8 -5,-11 -2,-3 -6,-4 -11,-4l-45 0zm38 -15c4,0 8,-2 11,-5 3,-2 4,-6 4,-11l0 -15c0,-4 -1,-8 -4,-11 -3,-3 -7,-4 -11,-4l-38 0 0 46 38 0zm69 53l-11 33c-1,1 -1,3 -3,4 -1,0 -2,1 -4,1 -2,0 -4,-1 -5,-2 -2,-2 -3,-3 -3,-5l1 -3 46 -137c1,-4 3,-7 7,-7 3,0 5,3 7,7l45 137 1 3c0,2 -1,3 -3,5 -1,1 -3,2 -5,2 -1,0 -2,0 -3,-1 -2,0 -3,-2 -4,-4l-11 -33 -55 0zm50 -16l-22 -67 -23 67 45 0zm118 -37l0 -54c0,-2 1,-4 2,-5 2,-2 4,-2 6,-2 2,0 3,0 5,2 1,1 2,3 2,5l0 137c0,2 -1,4 -2,6 -2,1 -4,2 -5,2 -2,0 -4,-1 -6,-2 -1,-1 -2,-3 -2,-6l0 -68 -61 0 0 68c0,3 -1,5 -2,6 -1,1 -3,2 -5,2 -2,0 -4,-1 -6,-2 -1,-1 -2,-3 -2,-6l0 -137c0,-2 1,-4 2,-5 2,-2 4,-2 6,-2 1,0 3,0 5,2 1,1 2,3 2,5l0 54 61 0zm104 0l0 -54c0,-2 0,-4 2,-5 1,-2 3,-2 5,-2 2,0 4,0 5,2 2,1 3,3 3,5l0 137c0,2 -1,4 -3,6 -1,1 -3,2 -5,2 -2,0 -4,-1 -5,-2 -2,-1 -2,-3 -2,-6l0 -68 -61 0 0 68c0,3 -1,5 -3,6 -1,1 -3,2 -5,2 -2,0 -4,-1 -5,-2 -2,-1 -3,-3 -3,-6l0 -137c0,-2 1,-4 3,-5 1,-2 3,-2 5,-2 2,0 4,0 5,2 2,1 3,3 3,5l0 54 61 0zm134 83c0,3 -1,5 -3,6 -1,1 -3,2 -5,2 -2,0 -4,-1 -5,-2 -2,-1 -3,-3 -3,-6l0 -137c0,-2 1,-4 3,-5 1,-2 3,-2 5,-2 2,0 4,0 5,2 2,1 3,3 3,5l0 137zm-92 -68l0 61 31 0c4,0 8,-2 10,-4 3,-3 5,-7 5,-11l0 -31c0,-4 -1,-8 -4,-11 -3,-3 -7,-4 -11,-4l-31 0zm0 -15l31 0c8,0 15,3 21,9 6,5 9,13 9,21l0 31c0,8 -3,15 -9,21 -6,6 -13,9 -21,9l-38 0c-6,0 -8,-3 -8,-8l0 -137c0,-2 1,-4 2,-5 2,-2 4,-2 6,-2 1,0 3,0 5,2 1,1 2,3 2,5l0 54zm210 83c0,3 0,5 -2,6 -1,1 -3,2 -5,2 -2,0 -4,-1 -5,-2 -2,-1 -3,-3 -3,-6l0 -108 -31 52c-2,4 -4,5 -7,5 -2,0 -4,-1 -7,-5l-31 -52 0 108c0,3 -1,5 -2,6 -2,1 -4,2 -6,2 -2,0 -4,-1 -5,-2 -2,-1 -2,-3 -2,-6l0 -136c0,-3 0,-5 2,-6 1,-2 3,-3 5,-3 1,0 2,1 3,1 1,1 3,2 4,4l39 65 39 -65c2,-3 4,-5 7,-5 2,0 4,1 5,3 2,1 2,3 2,6l0 136zm-2945 165l64 -64c2,-1 3,-2 5,-2 2,0 4,1 6,3 1,1 2,3 2,5 0,1 -1,3 -2,5l-46 45 47 83 1 4c0,2 -1,4 -2,5 -2,2 -4,3 -6,3 -2,0 -4,-2 -6,-4l-45 -80 -18 18 0 58c0,2 -1,4 -2,6 -2,1 -3,2 -6,2 -2,0 -3,-1 -5,-2 -2,-2 -2,-4 -2,-6l0 -137c0,-2 1,-4 2,-6 2,-1 3,-2 5,-2 2,0 4,1 6,2 1,1 2,3 2,6l0 58zm115 48l-11 33c-1,2 -2,3 -3,4 -1,1 -2,1 -4,2 -2,0 -4,-1 -5,-3 -2,-1 -3,-3 -3,-5l1 -3 46 -137c1,-4 3,-6 7,-6 3,0 5,2 7,6l45 137 1 3c0,2 -1,4 -3,5 -1,2 -3,3 -5,3 -1,0 -2,-1 -3,-1 -2,-1 -3,-2 -4,-5l-11 -33 -55 0zm50 -15l-22 -67 -23 67 45 0zm118 -38l0 -53c0,-2 1,-4 2,-5 2,-2 4,-3 6,-3 2,0 3,1 5,2 1,1 2,3 2,6l0 137c0,2 -1,4 -2,5 -2,2 -4,3 -5,3 -2,0 -4,-1 -6,-2 -1,-2 -2,-3 -2,-6l0 -69 -61 0 0 69c0,2 -1,4 -2,6 -1,1 -3,2 -5,2 -2,0 -4,-1 -6,-2 -1,-2 -2,-4 -2,-6l0 -137c0,-2 1,-4 2,-6 2,-1 4,-2 6,-2 1,0 3,1 5,2 1,2 2,3 2,6l0 53 61 0zm43 76l15 -130c0,-5 2,-7 7,-7l46 0c5,0 8,3 8,8l0 129 7 0c5,0 8,3 8,8l0 15c0,2 -1,4 -2,5 -2,2 -4,3 -6,3 -1,0 -3,-1 -5,-2 -1,-1 -2,-3 -2,-6l0 -7 -76 0 0 7c0,2 -1,4 -3,5 -1,2 -3,3 -5,3 -2,0 -3,-1 -5,-2 -2,-1 -3,-3 -3,-6l0 -15c0,-5 3,-8 8,-8l8 0zm61 0l0 -122 -32 0 -13 122 45 0zm133 8c0,2 0,4 -2,6 -1,1 -3,2 -5,2 -2,0 -4,-1 -5,-2 -2,-2 -3,-4 -3,-6l0 -108 -62 112c0,1 -2,2 -3,3l-2 1c0,0 -1,1 -2,1 -1,0 -3,-1 -5,-2 -1,-2 -2,-4 -2,-7l0 -137c0,-2 1,-4 2,-6 2,-1 4,-2 6,-2 2,0 3,1 5,2 1,2 2,3 2,6l0 108 62 -112c1,-1 2,-2 3,-3 2,-1 3,-2 4,-2 2,0 4,1 5,3 2,1 2,3 2,6l0 137zm29 -8l14 -130c0,-5 3,-7 8,-7l45 0c5,0 8,3 8,8l0 129 8 0c5,0 7,3 7,8l0 15c0,2 -1,4 -2,5 -2,2 -3,3 -5,3 -2,0 -4,-1 -5,-2 -2,-1 -3,-3 -3,-6l0 -7 -76 0 0 7c0,2 -1,4 -3,5 -1,2 -3,3 -5,3 -2,0 -3,-1 -5,-2 -2,-1 -2,-3 -2,-6l0 -15c0,-5 2,-8 7,-8l9 0zm60 0l0 -122 -32 0 -13 122 45 0zm69 -23l-11 33c-1,2 -1,3 -3,4 -1,1 -2,1 -4,2 -2,0 -4,-1 -5,-3 -2,-1 -3,-3 -3,-5l1 -3 46 -137c1,-4 3,-6 7,-6 3,0 5,2 7,6l45 137 1 3c0,2 -1,4 -3,5 -1,2 -3,3 -5,3 -1,0 -2,-1 -3,-1 -2,-1 -3,-2 -4,-5l-11 -33 -55 0zm50 -15l-22 -67 -23 67 45 0zm50 -84l-31 0c-2,0 -4,0 -5,-2 -2,-1 -2,-3 -2,-5 0,-2 0,-4 1,-5 2,-2 4,-3 6,-3l76 0c2,0 4,1 6,3 1,1 2,3 2,5 0,2 -1,3 -2,5 -1,2 -3,2 -6,2l-30 0 0 130c0,2 -1,4 -2,6 -2,1 -4,2 -6,2 -2,0 -4,-1 -5,-2 -2,-2 -2,-4 -2,-6l0 -130zm61 99l-11 33c0,2 -1,3 -2,4 -1,1 -3,1 -5,2 -2,0 -3,-1 -5,-3 -2,-1 -2,-3 -2,-5l0 -3 46 -137c1,-4 4,-6 7,-6 3,0 6,2 7,6l46 137 0 3c0,2 -1,4 -2,5 -2,2 -4,3 -5,3 -2,0 -3,-1 -4,-1 -1,-1 -2,-2 -3,-5l-11 -33 -56 0zm50 -15l-22 -67 -22 67 44 0zm149 46c0,2 -1,4 -2,6 -2,1 -3,2 -6,2 -1,0 -3,-1 -5,-2 -1,-2 -2,-4 -2,-6l0 -109 -32 53c-2,3 -4,5 -6,5 -2,0 -5,-2 -7,-5l-32 -53 0 109c0,2 0,4 -2,6 -1,1 -3,2 -5,2 -2,0 -4,-1 -5,-2 -2,-2 -3,-4 -3,-6l0 -136c0,-3 1,-5 2,-7 2,-1 3,-2 5,-2 2,0 3,0 4,1 1,1 2,2 3,4l40 65 39 -65c2,-4 4,-5 7,-5 2,0 3,1 5,2 1,2 2,4 2,7l0 136zm213 0c0,2 -1,4 -2,6 -2,1 -3,2 -6,2 -2,0 -3,-1 -5,-2 -2,-2 -2,-4 -2,-6l0 -130 -61 0 0 130c0,2 -1,4 -2,6 -2,1 -4,2 -6,2 -2,0 -4,-1 -5,-2 -2,-2 -2,-4 -2,-6l0 -137c0,-5 2,-8 7,-8l76 0c5,0 8,3 8,8l0 137z"/>
    <path class="fil4 str1" d="M5833 3189c0,8 -3,16 -9,22 -5,6 -13,9 -21,9l-31 0c-8,0 -15,-3 -21,-9 -6,-6 -9,-13 -9,-22l0 -91c0,-9 3,-16 9,-22 6,-6 13,-9 21,-9l31 0c8,0 16,3 21,9 6,6 9,13 9,22l0 91zm-15 0l0 -91c0,-5 -1,-8 -4,-11 -3,-3 -7,-5 -11,-5l-31 0c-4,0 -7,2 -10,5 -2,1 -3,3 -4,5 0,2 -1,4 -1,6l0 91c0,4 2,8 5,11 1,1 3,2 4,3 3,1 5,1 6,1l31 0c4,0 8,-1 11,-4 3,-3 4,-6 4,-11zm146 23c0,2 0,4 -2,6 -1,1 -3,2 -5,2 -2,0 -4,-1 -5,-2 -2,-2 -3,-4 -3,-6l0 -109 -31 53c-2,3 -4,5 -7,5 -2,0 -4,-2 -6,-5l-32 -53 0 109c0,2 -1,4 -2,6 -2,1 -3,2 -6,2 -2,0 -3,-1 -5,-2 -2,-2 -2,-4 -2,-6l0 -136c0,-3 0,-5 2,-7 1,-1 3,-2 5,-2 1,0 2,0 3,1 1,1 3,2 4,4l39 65 39 -65c2,-4 4,-5 8,-5 1,0 3,1 4,2 2,2 2,4 2,7l0 136zm28 -84l38 0c2,0 4,1 5,3 2,1 2,3 2,5 0,2 0,3 -1,5 -2,2 -4,2 -6,2l-38 0 0 61 53 0c2,0 4,1 5,3 2,1 3,3 3,5 0,2 -1,4 -2,5 -1,2 -3,3 -6,3l-61 0c-5,0 -8,-3 -8,-8l0 -137c0,-5 3,-8 8,-8l61 0c2,0 4,1 5,3 2,1 3,3 3,5 0,2 -1,3 -2,5 -1,2 -3,2 -6,2l-53 0 0 46zm194 92l-7 0 -107 0c-5,0 -7,-3 -7,-8l0 -137c0,-2 0,-4 2,-6 1,-1 3,-2 5,-2 2,0 4,1 5,2 2,1 3,3 3,6l0 129 38 0 0 -129c0,-2 1,-4 2,-6 2,-1 3,-2 5,-2 2,0 4,1 6,2 1,1 2,3 2,6l0 129 38 0 0 -129c0,-2 1,-4 3,-6 1,-1 3,-2 5,-2 2,0 4,1 5,2 2,1 2,3 2,6l0 129 8 0c5,0 8,3 8,8l0 23c0,2 -1,4 -3,5 -1,2 -3,2 -5,2 -2,0 -3,0 -5,-1 -2,-2 -3,-4 -3,-6l0 -15zm43 -92l38 0c2,0 4,1 6,3 1,1 2,3 2,5 0,2 -1,3 -2,5 -1,2 -3,2 -6,2l-38 0 0 61 53 0c3,0 4,1 6,3 1,1 2,3 2,5 0,2 0,4 -2,5 -1,2 -3,3 -5,3l-62 0c-5,0 -7,-3 -7,-8l0 -137c0,-5 2,-8 7,-8l62 0c2,0 3,1 5,3 1,1 2,3 2,5 0,2 0,3 -2,5 -1,2 -3,2 -6,2l-53 0 0 46zm149 0l0 -53c0,-2 1,-4 3,-5 1,-2 3,-3 5,-3 2,0 4,1 5,2 2,1 2,3 2,6l0 137c0,2 0,4 -2,5 -2,2 -4,3 -5,3 -2,0 -4,-1 -6,-2 -1,-2 -2,-3 -2,-6l0 -69 -61 0 0 69c0,2 0,4 -2,6 -1,1 -3,2 -5,2 -2,0 -4,-1 -6,-2 -1,-2 -2,-4 -2,-6l0 -137c0,-2 1,-4 2,-6 2,-1 4,-2 6,-2 2,0 3,1 5,2 1,2 2,3 2,6l0 53 61 0zm119 84c0,2 -1,4 -2,6 -2,1 -3,2 -6,2 -2,0 -3,-1 -5,-2 -2,-2 -2,-4 -2,-6l0 -108 -62 112c-1,1 -2,2 -3,3l-2 1c-1,0 -1,1 -2,1 -2,0 -4,-1 -5,-2 -2,-2 -2,-4 -2,-7l0 -137c0,-2 0,-4 2,-6 1,-1 3,-2 5,-2 2,0 4,1 5,2 2,2 3,3 3,6l0 108 62 -112c0,-1 1,-2 3,-3 1,-1 3,-2 4,-2 2,0 3,1 5,3 1,1 2,3 2,6l0 137zm73 -160l-30 0c-3,0 -5,-1 -6,-2 -1,-2 -2,-3 -2,-5 0,-2 1,-4 2,-6 1,-1 3,-2 6,-2l30 0c2,0 4,1 5,2 2,2 3,4 3,6 0,1 -1,3 -2,5 -2,1 -4,2 -6,2zm30 160c0,2 0,4 -2,6 -1,1 -3,2 -5,2 -2,0 -4,-1 -6,-2 -1,-2 -2,-4 -2,-6l0 -108 -62 112c0,1 -2,2 -3,3l-2 1c0,0 -1,1 -2,1 -1,0 -3,-1 -5,-2 -1,-2 -2,-4 -2,-7l0 -137c0,-2 1,-4 2,-6 2,-1 4,-2 6,-2 2,0 3,1 5,2 1,2 2,3 2,6l0 108 62 -112c1,-1 2,-2 3,-3 2,-1 3,-2 4,-2 2,0 4,1 5,3 2,1 2,3 2,6l0 137zm138 -8l15 -130c0,-5 2,-7 7,-7l46 0c5,0 7,3 7,8l0 129 8 0c5,0 8,3 8,8l0 15c0,2 -1,4 -3,5 -1,2 -3,3 -5,3 -2,0 -3,-1 -5,-2 -2,-1 -2,-3 -2,-6l0 -7 -77 0 0 7c0,2 0,4 -2,5 -2,2 -3,3 -5,3 -2,0 -4,-1 -5,-2 -2,-1 -3,-3 -3,-6l0 -15c0,-5 3,-8 8,-8l8 0zm60 0l0 -122 -31 0 -14 122 45 0zm134 8c0,2 0,4 -2,6 -1,1 -3,2 -5,2 -2,0 -4,-1 -6,-2 -1,-2 -2,-4 -2,-6l0 -130 -25 0 -36 132c0,1 -1,3 -3,4 -1,1 -3,2 -4,2 -3,0 -4,-1 -6,-2 -1,-2 -2,-3 -2,-6 0,-1 0,-2 0,-2l38 -137c1,-4 4,-6 8,-6l38 0c5,0 7,3 7,8l0 137zm88 -69l0 -61 -45 0c-5,0 -8,2 -11,5 -2,1 -3,3 -3,5 -1,2 -2,4 -2,6l0 30c0,4 2,8 5,11 1,1 3,2 5,3 2,1 4,1 6,1l45 0zm-26 16l-36 57c-1,2 -3,4 -6,4 -2,0 -3,-1 -5,-3 -2,-1 -3,-3 -3,-5 0,-2 1,-3 2,-4l30 -49 -1 0c-8,0 -16,-3 -22,-9 -6,-6 -9,-13 -9,-22l0 -30c0,-9 3,-16 9,-22 6,-6 13,-9 22,-9l53 0c5,0 8,3 8,8l0 137c0,2 -1,4 -3,6 -1,1 -3,2 -5,2 -2,0 -4,-1 -5,-2 -2,-2 -3,-4 -3,-6l0 -53 -26 0zm-2254 297c0,2 -1,4 -3,5 -1,2 -3,2 -5,2 -2,0 -4,0 -5,-2 -2,-1 -3,-3 -3,-5l0 -130 -61 0 0 130c0,2 0,4 -2,5 -1,2 -3,2 -5,2 -2,0 -4,0 -5,-2 -2,-1 -3,-3 -3,-5l0 -138c0,-5 3,-7 8,-7l76 0c5,0 8,2 8,7l0 138zm88 -54l-46 0c-8,0 -15,-3 -21,-9 -6,-6 -9,-13 -9,-21l0 -54c0,-2 1,-3 2,-5 2,-1 3,-2 5,-2 2,0 4,1 6,2 1,1 2,3 2,5l0 54c0,4 1,8 4,11 2,1 3,2 5,3 2,1 4,1 6,1l46 0 0 -69c0,-2 1,-3 2,-5 2,-1 3,-2 5,-2 2,0 4,1 6,2 1,1 2,3 2,5l0 115c0,8 -3,15 -9,21 -6,6 -13,9 -21,9l-38 0c-3,0 -5,-1 -6,-2 -1,-2 -2,-3 -2,-5 0,-2 1,-4 2,-6 1,-1 3,-2 6,-2l38 0c4,0 8,-1 10,-4 3,-3 5,-7 5,-11l0 -31zm42 -15l0 61 46 0c4,0 8,-1 11,-4 3,-3 4,-7 4,-11l0 -31c0,-4 -1,-8 -4,-11 -3,-3 -6,-4 -11,-4l-46 0zm0 -15l46 0c8,0 15,3 22,9 6,6 9,13 9,21l0 31c0,8 -3,15 -9,21 -6,6 -13,9 -22,9l-53 0c-5,0 -8,-2 -8,-7l0 -138c0,-5 3,-7 8,-7l61 0c2,0 4,1 5,2 2,2 2,4 2,5 0,2 0,4 -2,6 -1,1 -3,2 -5,2l-54 0 0 46zm173 84c0,2 0,4 -2,5 -1,2 -3,2 -5,2 -2,0 -4,0 -5,-2 -2,-1 -3,-3 -3,-5l0 -130 -25 0 -36 131c0,2 -1,3 -3,4 -1,2 -3,2 -4,2 -3,0 -4,0 -6,-2 -1,-1 -2,-3 -2,-5 0,-1 0,-2 0,-2l38 -137c1,-4 4,-6 8,-6l38 0c5,0 7,2 7,7l0 138zm104 0c0,2 -1,4 -3,5 -1,2 -3,2 -5,2 -2,0 -4,0 -5,-2 -2,-1 -2,-3 -2,-5l0 -108 -62 111c-1,2 -2,3 -4,4l-1 1c-1,0 -2,0 -3,0 -1,0 -3,0 -5,-2 -1,-1 -2,-4 -2,-6l0 -137c0,-2 1,-4 3,-6 1,-1 3,-2 5,-2 2,0 4,1 5,2 2,1 3,3 3,6l0 107 61 -111c1,-1 2,-3 4,-4 1,-1 2,-1 4,-1 1,0 3,1 4,2 2,2 3,4 3,7l0 137zm88 -69l0 -69c0,-2 1,-3 2,-5 2,-1 4,-2 6,-2 1,0 3,1 5,2 1,1 2,3 2,5l0 138c0,2 -1,4 -2,5 -1,2 -3,2 -5,2 -2,0 -4,0 -6,-2 -1,-1 -2,-3 -2,-5l0 -54 -46 0c-8,0 -15,-3 -21,-9 -6,-6 -9,-13 -9,-21l0 -54c0,-2 1,-3 2,-5 2,-1 3,-2 5,-2 2,0 4,1 6,2 1,1 2,3 2,5l0 54c0,4 1,8 4,11 2,1 4,2 5,3 2,1 4,1 6,1l46 0zm103 -15l0 -54c0,-2 1,-3 3,-5 1,-1 3,-2 5,-2 2,0 4,1 5,2 2,1 3,3 3,5l0 137c0,3 -1,4 -3,6 -2,1 -3,2 -5,2 -2,0 -4,0 -5,-2 -2,-1 -3,-3 -3,-5l0 -69 -61 0 0 69c0,2 0,4 -2,5 -1,2 -3,2 -5,2 -2,0 -4,0 -5,-2 -2,-1 -3,-3 -3,-5l0 -137c0,-2 1,-4 3,-6 1,-1 3,-2 5,-2 2,0 4,1 5,2 2,1 2,3 2,6l0 53 61 0zm134 84c0,2 0,4 -2,5 -1,2 -3,2 -5,2 -2,0 -4,0 -5,-2 -2,-1 -3,-3 -3,-5l0 -138c0,-2 1,-3 3,-5 1,-1 3,-2 5,-2 2,0 4,1 5,2 2,1 2,3 2,5l0 138zm-91 -69l0 61 31 0c4,0 7,-1 10,-4 3,-3 5,-7 5,-11l0 -31c0,-4 -2,-8 -4,-11 -3,-3 -7,-4 -11,-4l-31 0zm0 -15l30 0c9,0 16,3 22,9 6,6 9,13 9,21l0 31c0,8 -3,15 -9,21 -6,6 -13,9 -22,9l-38 0c-5,0 -7,-2 -7,-7l0 -138c0,-2 1,-3 2,-5 2,-1 3,-2 5,-2 2,0 4,1 6,2 1,1 2,3 2,5l0 54zm157 1l39 -59c1,-1 2,-2 3,-2l1 -1 2 0c2,0 4,1 6,2 1,2 2,4 2,6 0,1 0,2 -1,4l-43 64 43 64 1 2 0 3c0,2 -1,3 -2,5 -2,1 -4,2 -6,2 -2,0 -4,-1 -6,-3l-39 -59 -39 59c-1,1 -2,2 -3,2l-4 1c-1,0 -3,-1 -5,-2 -2,-2 -2,-3 -2,-6 0,-1 0,-2 1,-4l43 -64 -43 -64 -1 -2 0 -3c0,-1 0,-3 2,-5 1,-1 3,-2 6,-2 2,0 4,1 6,3l39 59zm281 83c0,2 0,4 -2,5 -1,2 -3,2 -5,2 -2,0 -4,0 -5,-2 -2,-1 -3,-3 -3,-5l0 -109 -31 52c-2,4 -4,5 -7,5 -2,0 -4,-1 -6,-5l-32 -52 0 109c0,2 -1,4 -2,5 -2,2 -3,2 -6,2 -2,0 -3,0 -5,-2 -1,-1 -2,-3 -2,-5l0 -137c0,-3 1,-5 2,-6 1,-2 3,-3 5,-3 1,0 2,1 3,2 2,0 3,2 4,3l39 66 39 -66c2,-3 4,-5 8,-5 1,0 3,1 4,3 2,1 2,4 2,6l0 137zm28 -84l38 0c2,0 4,1 5,2 2,2 3,4 3,5 0,2 -1,4 -2,6 -2,1 -4,2 -6,2l-38 0 0 61 53 0c2,0 4,1 6,2 1,2 2,4 2,6 0,1 -1,3 -2,5 -1,1 -3,2 -6,2l-61 0c-5,0 -8,-2 -8,-7l0 -138c0,-5 3,-7 8,-7l61 0c2,0 4,1 6,2 1,2 2,4 2,5 0,2 -1,4 -2,6 -1,1 -3,2 -6,2l-53 0 0 46zm88 15l46 0c4,0 7,-1 10,-4 3,-3 5,-7 5,-11l0 -31c0,-4 -2,-8 -4,-11 -3,-3 -7,-4 -11,-4l-46 0 0 61zm0 15l0 54c0,2 -1,4 -2,5 -2,2 -3,2 -6,2 -2,0 -3,0 -5,-2 -2,-1 -2,-3 -2,-5l0 -138c0,-5 2,-7 7,-7l54 0c8,0 15,3 21,9 6,6 9,13 9,21l0 31c0,8 -3,15 -9,21 -6,6 -13,9 -21,9l-46 0zm180 31c0,8 -3,15 -9,21 -6,6 -14,9 -22,9l-30 0c-9,0 -16,-3 -22,-9 -6,-6 -9,-13 -9,-21l0 -92c0,-8 3,-15 9,-21 6,-6 13,-9 22,-9l30 0c9,0 16,3 22,9 6,6 9,13 9,21l0 92zm-16 0l0 -92c0,-4 -1,-8 -4,-11 -3,-3 -6,-4 -11,-4l-30 0c-5,0 -8,1 -11,4 -2,2 -3,3 -4,5 0,2 -1,4 -1,6l0 92c0,4 2,8 5,11 1,1 3,2 5,3 2,1 4,1 6,1l30 0c4,0 8,-1 11,-4 3,-3 4,-7 4,-11zm131 23c0,2 -1,4 -2,5 -1,2 -3,2 -5,2 -2,0 -4,0 -6,-2 -1,-1 -2,-3 -2,-5l0 -130 -61 0 0 130c0,2 -1,4 -2,5 -1,2 -3,2 -6,2 -2,0 -3,0 -5,-2 -1,-1 -2,-3 -2,-5l0 -138c0,-5 2,-7 7,-7l77 0c5,0 7,2 7,7l0 138zm28 -69l45 0c4,0 8,-1 11,-4 3,-3 5,-7 5,-11l0 -31c0,-4 -2,-8 -5,-11 -3,-3 -6,-4 -11,-4l-45 0 0 61zm0 15l0 54c0,2 -1,4 -3,5 -1,2 -3,2 -5,2 -2,0 -4,0 -5,-2 -2,-1 -3,-3 -3,-5l0 -138c0,-5 3,-7 8,-7l53 0c9,0 16,3 22,9 6,6 9,13 9,21l0 31c0,8 -3,15 -9,21 -6,6 -13,9 -22,9l-45 0zm179 54c0,2 -1,4 -2,5 -1,2 -3,2 -5,2 -2,0 -4,0 -6,-2 -1,-1 -2,-3 -2,-5l0 -108 -62 111c-1,2 -2,3 -3,4l-2 1c0,0 -1,0 -2,0 -2,0 -3,0 -5,-2 -1,-1 -2,-4 -2,-6l0 -137c0,-2 1,-4 2,-6 2,-1 3,-2 5,-2 2,0 4,1 6,2 1,1 2,3 2,6l0 107 62 -111c1,-1 2,-3 3,-4 1,-1 3,-1 4,-1 2,0 3,1 5,2 1,2 2,4 2,7l0 137zm88 -69l0 -61 -45 0c-5,0 -8,1 -11,4 -2,2 -3,3 -3,5 -1,2 -2,4 -2,6l0 31c0,4 2,8 5,11 1,1 3,2 5,3 2,1 4,1 6,1l45 0zm-26 15l-36 58c-1,2 -3,3 -6,3 -2,0 -3,-1 -5,-2 -2,-2 -3,-4 -3,-6 0,-1 1,-2 2,-4l30 -49 -1 0c-8,0 -16,-3 -22,-9 -6,-6 -9,-13 -9,-21l0 -31c0,-8 3,-15 9,-21 6,-6 13,-9 22,-9l53 0c5,0 8,2 8,7l0 138c0,2 -1,4 -3,5 -1,2 -3,2 -5,2 -2,0 -4,0 -5,-2 -2,-1 -3,-3 -3,-5l0 -54 -26 0zm92 -76l-31 0c-2,0 -4,-1 -5,-2 -2,-2 -2,-4 -2,-6 0,-1 0,-3 2,-5 1,-1 3,-2 5,-2l76 0c3,0 4,1 6,2 1,2 2,4 2,5 0,2 -1,4 -2,6 -1,1 -3,2 -6,2l-30 0 0 130c0,2 -1,4 -2,5 -1,2 -3,2 -6,2 -2,0 -3,0 -5,-2 -1,-1 -2,-3 -2,-5l0 -130zm157 130c0,2 -1,4 -3,5 -1,2 -3,2 -5,2 -2,0 -4,0 -5,-2 -2,-1 -3,-3 -3,-5l0 -108 -61 111c-1,2 -2,3 -4,4l-1 1c-1,0 -2,0 -3,0 -1,0 -3,0 -5,-2 -1,-1 -2,-4 -2,-6l0 -137c0,-2 1,-4 3,-6 1,-1 3,-2 5,-2 2,0 4,1 5,2 2,1 2,3 2,6l0 107 62 -111c1,-1 2,-3 3,-4 2,-1 3,-1 5,-1 1,0 3,1 4,2 2,2 3,4 3,7l0 137zm73 -160l-31 0c-2,0 -4,-1 -5,-2 -2,-2 -2,-4 -2,-6 0,-2 0,-3 2,-5 1,-2 3,-2 5,-2l31 0c2,0 4,0 5,2 2,1 2,3 2,5 0,2 0,4 -2,5 -1,2 -3,3 -5,3zm30 160c0,2 -1,4 -2,5 -1,2 -3,2 -6,2 -2,0 -3,0 -5,-2 -1,-1 -2,-3 -2,-5l0 -108 -62 111c-1,2 -2,3 -3,4l-2 1c0,0 -1,0 -2,0 -2,0 -3,0 -5,-2 -2,-1 -2,-4 -2,-6l0 -137c0,-2 1,-4 2,-6 2,-1 3,-2 5,-2 2,0 4,1 6,2 1,1 2,3 2,6l0 107 62 -111c0,-1 2,-2 3,-4 1,-1 3,-1 4,-1 2,0 3,1 5,2 1,2 2,4 2,7l0 137z"/>
    <path class="fil4 str1" d="M4982 3620c5,2 8,6 11,11 2,5 4,10 4,15l0 30c0,9 -3,16 -9,22 -6,6 -13,9 -22,9l-53 0c-5,0 -8,-3 -8,-8l0 -137c0,-5 3,-8 8,-8l46 0c8,0 15,3 21,9 6,6 9,14 9,22l0 15c0,4 0,7 -1,10 -2,4 -3,7 -6,10zm-61 11l0 61 45 0c5,0 8,-2 11,-5 3,-2 5,-6 5,-11l0 -30c0,-4 -2,-8 -5,-11 -3,-3 -6,-4 -11,-4l-45 0zm38 -16c4,0 8,-1 11,-4 3,-3 4,-6 4,-11l0 -15c0,-4 -1,-8 -4,-11 -3,-3 -7,-4 -11,-4l-38 0 0 45 38 0zm228 -23l0 69 7 0c9,0 16,-3 22,-9 6,-6 9,-13 9,-21l0 -8c0,-8 -3,-15 -9,-21 -6,-7 -13,-10 -22,-10l-7 0zm-15 69l0 -69 -8 0c-8,0 -15,3 -21,9 -6,6 -9,13 -9,22l0 8c0,8 3,15 9,21 6,6 13,9 21,9l8 0zm0 15l-8 0c-13,0 -23,-4 -32,-13 -9,-9 -13,-20 -13,-32l0 -8c0,-12 4,-23 13,-32 9,-9 20,-14 32,-14l8 0 0 -15c0,-2 0,-4 2,-6 2,-1 3,-2 5,-2 2,0 4,1 6,2 1,2 2,4 2,6l0 15 7 0c13,0 24,5 33,14 4,4 7,9 9,14 3,6 4,12 4,18l0 8c0,12 -4,23 -13,32 -9,9 -20,13 -33,13l-7 0 0 23c0,3 -1,4 -2,6 -2,1 -3,2 -6,2 -2,0 -3,-1 -5,-2 -2,-1 -2,-3 -2,-6l0 -23zm172 0c0,9 -3,16 -9,22 -6,6 -13,9 -22,9l-30 0c-8,0 -16,-3 -22,-9 -6,-6 -9,-13 -9,-22l0 -91c0,-9 3,-16 9,-22 6,-6 13,-9 22,-9l30 0c9,0 16,3 22,9 6,6 9,14 9,22l0 91zm-15 0l0 -91c0,-4 -2,-8 -5,-11 -3,-3 -6,-4 -11,-4l-30 0c-4,0 -8,1 -11,4 -1,1 -3,3 -3,5 -1,2 -1,4 -1,6l0 91c0,5 1,8 4,11 2,2 3,3 5,4 2,0 4,1 6,1l30 0c5,0 8,-2 11,-5 3,-2 5,-6 5,-11zm54 -45l46 0c4,0 8,-2 11,-5 3,-2 4,-6 4,-11l0 -30c0,-4 -1,-8 -4,-11 -3,-3 -7,-4 -11,-4l-46 0 0 61zm0 15l0 53c0,3 0,4 -2,6 -1,1 -3,2 -5,2 -2,0 -4,-1 -6,-2 -1,-1 -2,-3 -2,-6l0 -137c0,-5 3,-8 8,-8l53 0c8,0 16,3 22,9 5,6 8,14 8,22l0 30c0,9 -3,16 -9,22 -5,6 -13,9 -21,9l-46 0zm195 53c0,3 0,4 -2,6 -1,1 -3,2 -5,2 -2,0 -4,-1 -5,-2 -2,-1 -3,-3 -3,-6l0 -109 -31 53c-2,3 -4,5 -7,5 -2,0 -4,-2 -7,-5l-31 -53 0 109c0,3 -1,4 -2,6 -2,1 -4,2 -6,2 -2,0 -4,-1 -5,-2 -2,-1 -2,-3 -2,-6l0 -136c0,-3 0,-5 2,-7 1,-1 3,-2 5,-2 1,0 2,0 3,1 1,1 3,2 4,4l39 65 39 -65c2,-3 4,-5 7,-5 2,0 4,1 5,2 2,2 2,4 2,7l0 136zm27 -84l39 0c2,0 4,1 5,3 2,1 2,3 2,5 0,2 0,4 -2,5 -1,2 -3,3 -5,3l-39 0 0 61 54 0c2,0 4,0 5,2 2,1 3,3 3,5 0,2 -1,4 -2,5 -2,2 -3,3 -6,3l-61 0c-5,0 -8,-3 -8,-7l0 -138c0,-5 3,-8 8,-8l61 0c2,0 4,1 5,3 2,1 3,3 3,5 0,2 -1,4 -2,5 -2,2 -3,3 -6,3l-54 0 0 45zm252 92l-38 0c-9,0 -16,-3 -22,-9 -6,-6 -9,-13 -9,-22l0 -91c0,-9 3,-16 9,-22 6,-6 13,-9 22,-9l38 0c2,0 4,1 5,3 2,1 2,3 2,5 0,2 0,3 -2,5 -1,2 -3,3 -5,3l-38 0c-5,0 -8,1 -11,4 -2,1 -3,3 -4,5 0,2 -1,4 -1,6l0 91c0,5 2,8 5,11 1,2 3,3 5,4 2,0 4,1 6,1l38 0c2,0 4,0 5,2 2,1 2,3 2,5 0,2 0,4 -2,5 -1,2 -3,3 -5,3zm104 -31c0,9 -3,16 -9,22 -6,6 -13,9 -22,9l-30 0c-8,0 -15,-3 -21,-9 -6,-6 -9,-13 -9,-22l0 -91c0,-9 3,-16 8,-22 6,-6 14,-9 22,-9l30 0c9,0 16,3 22,9 6,6 9,14 9,22l0 91zm-15 0l0 -91c0,-4 -2,-8 -5,-11 -2,-3 -6,-4 -11,-4l-30 0c-4,0 -8,1 -11,4 -1,1 -2,3 -3,5 -1,2 -1,4 -1,6l0 91c0,5 1,8 4,11 2,2 3,3 5,4 2,0 4,1 6,1l30 0c5,0 8,-2 11,-5 3,-2 5,-6 5,-11zm54 -45l0 61 46 0c4,0 8,-2 11,-5 3,-2 4,-6 4,-11l0 -30c0,-4 -1,-8 -4,-11 -3,-3 -6,-4 -11,-4l-46 0zm0 -16l46 0c8,0 15,3 21,9 6,6 9,13 9,22l0 30c0,9 -2,16 -8,22 -6,6 -14,9 -22,9l-53 0c-5,0 -8,-3 -8,-8l0 -137c0,-5 3,-8 8,-8l61 0c2,0 4,1 5,3 2,1 2,3 2,5 0,2 0,3 -2,5 -1,2 -3,3 -5,3l-54 0 0 45zm104 16l46 0c4,0 7,-2 10,-5 3,-2 5,-6 5,-11l0 -30c0,-4 -2,-8 -4,-11 -3,-3 -7,-4 -11,-4l-46 0 0 61zm0 15l0 53c0,3 -1,4 -2,6 -2,1 -4,2 -6,2 -2,0 -4,-1 -5,-2 -2,-1 -2,-3 -2,-6l0 -137c0,-5 2,-8 7,-8l54 0c8,0 15,3 21,9 6,6 9,14 9,22l0 30c0,9 -3,16 -9,22 -6,6 -13,9 -21,9l-46 0zm100 23l-11 33c-1,1 -2,2 -3,3 -1,1 -3,2 -4,2 -2,0 -4,-1 -6,-2 -1,-2 -2,-3 -2,-6l0 -2 46 -137c2,-5 4,-7 7,-7 4,0 6,2 8,7l45 137 1 2c0,2 -1,4 -3,6 -1,1 -3,2 -5,2 -1,0 -2,0 -4,-1 -1,-1 -2,-2 -3,-4l-11 -33 -55 0zm50 -16l-23 -67 -22 67 45 0zm118 -38l0 -53c0,-2 1,-4 2,-5 2,-2 3,-3 5,-3 2,0 4,1 6,2 1,2 2,4 2,6l0 137c0,2 -1,4 -2,6 -2,1 -4,2 -6,2 -2,0 -3,-1 -5,-2 -1,-1 -2,-3 -2,-6l0 -68 -61 0 0 68c0,3 -1,4 -2,6 -2,1 -4,2 -6,2 -2,0 -4,-1 -5,-2 -2,-1 -2,-3 -2,-6l0 -137c0,-2 0,-4 2,-5 1,-2 3,-2 5,-2 2,0 4,0 5,1 2,2 3,4 3,6l0 53 61 0zm118 84c0,3 0,4 -2,6 -1,1 -3,2 -5,2 -2,0 -4,-1 -5,-2 -2,-1 -3,-3 -3,-6l0 -107 -61 111c-1,1 -3,3 -4,4l-2 0c0,1 -1,1 -2,1 -1,0 -3,-1 -5,-2 -1,-2 -2,-4 -2,-7l0 -137c0,-2 1,-4 2,-5 2,-2 4,-2 6,-2 2,0 3,0 5,1 2,2 2,4 2,6l0 108 62 -111c1,-2 2,-3 3,-4 2,-1 3,-2 4,-2 2,0 4,1 5,3 2,1 2,3 2,6l0 137zm89 -68l0 -61 -46 0c-4,0 -8,1 -11,4 -1,1 -2,3 -3,5 -1,2 -1,4 -1,6l0 30c0,5 1,8 4,11 2,2 3,3 5,4 2,0 4,1 6,1l46 0zm-26 15l-36 57c-2,3 -4,4 -6,4 -2,0 -4,-1 -6,-3 -2,-1 -2,-3 -2,-5 0,-1 0,-3 1,-4l31 -49 -2 0c-8,0 -15,-3 -21,-9 -6,-6 -9,-13 -9,-22l0 -30c0,-9 3,-16 8,-22 6,-6 14,-9 22,-9l53 0c5,0 8,3 8,8l0 137c0,3 -1,4 -2,6 -2,1 -3,2 -6,2 -2,0 -3,-1 -5,-2 -1,-1 -2,-3 -2,-6l0 -53 -26 0z"/>
   </g>
   <path class="fil4 str1" d="M4256 5466c0,2 -1,4 -2,5 -2,2 -3,2 -6,2 -2,0 -3,0 -5,-2 -1,-1 -2,-3 -2,-5l0 -130 -61 0 0 130c0,2 -1,4 -2,5 -2,2 -3,2 -6,2 -2,0 -3,0 -5,-2 -2,-1 -2,-3 -2,-5l0 -137c0,-6 2,-8 7,-8l76 0c5,0 8,2 8,8l0 137zm27 -69l46 0c4,0 8,-1 11,-4 3,-3 4,-7 4,-11l0 -31c0,-4 -1,-8 -4,-11 -3,-2 -6,-4 -11,-4l-46 0 0 61zm0 15l0 54c0,2 0,4 -2,5 -1,2 -3,2 -5,2 -2,0 -4,0 -6,-2 -1,-1 -2,-3 -2,-5l0 -137c0,-6 3,-8 8,-8l53 0c9,0 16,3 22,9 6,6 8,13 8,21l0 31c0,8 -2,15 -8,21 -6,6 -14,9 -22,9l-46 0zm104 -30l38 0c2,0 4,1 6,2 1,2 2,4 2,5 0,2 -1,4 -2,6 -1,1 -3,2 -6,2l-38 0 0 61 53 0c2,0 4,1 6,2 1,2 2,4 2,6 0,1 -1,3 -2,5 -1,1 -3,2 -6,2l-61 0c-5,0 -7,-2 -7,-7l0 -137c0,-6 2,-8 7,-8l61 0c2,0 4,1 6,2 1,2 2,4 2,5 0,2 -1,4 -2,6 -1,1 -3,2 -6,2l-53 0 0 46zm89 76l14 -130c0,-5 3,-7 8,-7l46 0c5,0 7,2 7,8l0 129 8 0c5,0 8,3 8,8l0 15c0,2 -1,4 -3,5 -1,2 -3,2 -5,2 -2,0 -3,0 -5,-2 -2,-1 -3,-3 -3,-5l0 -8 -76 0 0 8c0,2 -1,4 -2,5 -2,2 -4,2 -5,2 -2,0 -4,0 -6,-2 -1,-1 -2,-3 -2,-5l0 -15c0,-5 2,-8 8,-8l8 0zm60 0l0 -122 -31 0 -14 122 45 0zm104 15l-39 0c-8,0 -15,-3 -21,-9 -6,-6 -9,-13 -9,-21l0 -92c0,-8 3,-15 9,-21 6,-6 13,-9 21,-9l39 0c2,0 3,1 5,2 1,2 2,4 2,5 0,2 -1,4 -2,6 -1,1 -3,2 -6,2l-38 0c-4,0 -8,1 -11,4 -1,2 -2,3 -3,5 -1,2 -1,4 -1,6l0 92c0,4 2,8 4,11 2,1 4,2 5,3 3,1 5,1 6,1l38 0c3,0 4,1 6,2 1,2 2,4 2,6 0,1 -1,3 -2,5 -1,1 -3,2 -5,2zm34 -91l39 0c2,0 4,1 5,2 2,2 2,4 2,5 0,2 0,4 -2,6 -1,1 -3,2 -5,2l-39 0 0 61 54 0c2,0 4,1 5,2 2,2 2,4 2,6 0,1 0,3 -1,5 -2,1 -4,2 -6,2l-61 0c-5,0 -8,-2 -8,-7l0 -137c0,-6 3,-8 8,-8l61 0c2,0 4,1 5,2 2,2 2,4 2,5 0,2 0,4 -1,6 -2,1 -4,2 -6,2l-54 0 0 46zm89 76l15 -130c0,-5 2,-7 8,-7l45 0c5,0 8,2 8,8l0 129 7 0c6,0 8,3 8,8l0 15c0,2 -1,4 -2,5 -2,2 -4,2 -5,2 -2,0 -4,0 -6,-2 -1,-1 -2,-3 -2,-5l0 -8 -76 0 0 8c0,2 -1,4 -3,5 -1,2 -3,2 -5,2 -2,0 -3,0 -5,-2 -2,-1 -3,-3 -3,-5l0 -15c0,-5 3,-8 8,-8l8 0zm61 0l0 -122 -32 0 -13 122 45 0zm69 -23l-11 33c-1,2 -2,3 -3,4 -1,1 -2,1 -4,1 -2,0 -4,-1 -5,-2 -2,-1 -3,-3 -3,-5l1 -3 45 -137c2,-4 4,-6 8,-6 3,0 5,2 7,6l45 137 1 3c0,2 -1,4 -3,5 -1,1 -3,2 -5,2 -1,0 -2,0 -3,-1 -2,0 -3,-2 -4,-4l-11 -33 -55 0zm50 -15l-22 -67 -23 67 45 0zm50 -84l-31 0c-2,0 -4,-1 -6,-2 -1,-2 -2,-4 -2,-6 0,-1 1,-3 2,-5 2,-1 4,-2 6,-2l76 0c2,0 4,1 5,2 2,2 3,4 3,5 0,2 -1,4 -2,6 -1,1 -3,2 -6,2l-30 0 0 130c0,2 -1,4 -3,5 -1,2 -3,2 -5,2 -2,0 -4,0 -5,-2 -2,-1 -2,-3 -2,-5l0 -130zm80 46l38 0c2,0 4,1 6,2 1,2 2,4 2,5 0,2 -1,4 -2,6 -1,1 -3,2 -6,2l-38 0 0 61 54 0c2,0 3,1 5,2 1,2 2,4 2,6 0,1 0,3 -2,5 -1,1 -3,2 -5,2l-61 0c-6,0 -8,-2 -8,-7l0 -137c0,-6 2,-8 8,-8l61 0c2,0 4,1 5,2 1,2 2,4 2,5 0,2 0,4 -2,6 -1,1 -3,2 -5,2l-54 0 0 46zm165 84c0,2 -1,4 -2,5 -2,2 -4,2 -6,2 -2,0 -4,0 -5,-2 -2,-1 -2,-3 -2,-5l0 -130 -25 0 -37 132c0,1 -1,2 -2,4 -2,1 -3,1 -5,1 -2,0 -4,0 -6,-2 -1,-1 -2,-3 -2,-5 0,-1 0,-2 1,-2l38 -137c1,-4 3,-6 7,-6l38 0c5,0 8,2 8,8l0 137zm27 -69l46 0c4,0 7,2 10,4 3,3 5,7 5,11l0 31c0,4 -2,8 -5,11 -1,1 -3,2 -4,3 -2,1 -4,1 -6,1l-46 0 0 -61zm0 -15l0 -53c0,-2 -1,-4 -3,-6 -1,-1 -3,-2 -5,-2 -1,0 -3,1 -5,2 -2,1 -2,3 -2,6l0 137c0,5 2,7 7,7l54 0c8,0 15,-3 21,-9 6,-6 9,-13 9,-21l0 -31c0,-8 -3,-15 -9,-21 -6,-6 -13,-9 -22,-9l-45 0zm213 5l64 -64c2,-1 3,-2 5,-2 2,0 4,1 6,2 1,2 2,4 2,6 0,1 -1,3 -2,5l-46 45 47 83 1 4c0,2 -1,3 -2,5 -2,1 -4,2 -6,2 -2,0 -4,-1 -6,-4l-45 -79 -18 18 0 58c0,2 -1,4 -2,5 -2,2 -3,2 -6,2 -2,0 -3,0 -5,-2 -2,-1 -2,-3 -2,-5l0 -138c0,-2 1,-3 2,-5 2,-1 3,-2 5,-2 2,0 4,0 6,2 1,1 2,3 2,5l0 59zm172 56c0,8 -3,15 -9,21 -6,6 -13,9 -22,9l-30 0c-8,0 -15,-3 -21,-9 -6,-6 -9,-13 -9,-21l0 -92c0,-8 2,-15 8,-21 6,-6 13,-9 22,-9l30 0c9,0 16,3 22,9 6,6 9,13 9,21l0 92zm-15 0l0 -92c0,-4 -2,-8 -5,-11 -3,-2 -6,-4 -11,-4l-30 0c-4,0 -8,1 -11,4 -1,2 -3,3 -3,5 -1,2 -1,4 -1,6l0 92c0,4 1,8 4,11 2,1 3,2 5,3 2,1 4,1 6,1l30 0c5,0 8,-1 11,-4 3,-3 5,-7 5,-11zm146 23c0,2 -1,4 -2,5 -2,2 -4,2 -6,2 -2,0 -3,0 -5,-2 -2,-1 -2,-3 -2,-5l0 -109 -32 53c-2,3 -4,4 -6,4 -3,0 -5,-1 -7,-4l-32 -53 0 109c0,2 0,4 -2,5 -1,2 -3,2 -5,2 -2,0 -4,0 -6,-2 -1,-1 -2,-3 -2,-5l0 -137c0,-3 1,-5 2,-6 2,-2 3,-3 5,-3 2,0 3,1 4,2 1,0 2,2 3,3l40 66 39 -66c1,-3 4,-5 7,-5 2,0 3,1 5,3 1,2 2,4 2,6l0 137zm103 0c0,2 -1,4 -2,5 -1,2 -3,2 -5,2 -2,0 -4,0 -6,-2 -1,-1 -2,-3 -2,-5l0 -108 -62 111c-1,2 -2,3 -3,4l-2 1c0,0 -1,0 -2,0 -2,0 -3,0 -5,-2 -1,-1 -2,-4 -2,-6l0 -137c0,-2 1,-4 2,-6 2,-1 3,-2 5,-2 2,0 4,1 6,2 1,1 2,3 2,6l0 107 62 -111c1,-1 2,-3 3,-4 1,-1 3,-1 4,-1 2,0 3,1 5,2 1,2 2,4 2,7l0 137zm81 7l-38 0c-8,0 -16,-3 -22,-9 -6,-6 -9,-13 -9,-21l0 -92c0,-8 3,-15 9,-21 6,-6 13,-9 22,-9l38 0c2,0 4,1 5,2 2,2 3,4 3,5 0,2 -1,4 -2,6 -2,1 -4,2 -6,2l-38 0c-5,0 -8,1 -11,4 -2,2 -3,3 -3,5 -1,2 -2,4 -2,6l0 92c0,4 2,8 5,11 1,1 3,2 5,3 2,1 4,1 6,1l38 0c2,0 4,1 5,2 2,2 3,4 3,6 0,1 -1,3 -2,5 -2,1 -4,2 -6,2zm81 0l-38 0c-8,0 -15,-3 -21,-9 -6,-6 -9,-13 -9,-21l0 -92c0,-8 3,-15 9,-21 6,-6 13,-9 21,-9l38 0c2,0 4,1 6,2 1,2 2,4 2,5 0,2 -1,4 -2,6 -1,1 -3,2 -6,2l-38 0c-4,0 -8,1 -11,4 -1,2 -2,3 -3,5 -1,2 -1,4 -1,6l0 92c0,4 1,8 4,11 2,1 3,2 5,3 2,1 4,1 6,1l38 0c2,0 4,1 6,2 1,2 2,4 2,6 0,1 -1,3 -2,5 -1,1 -3,2 -6,2zm111 -7c0,2 0,4 -2,5 -1,2 -3,2 -5,2 -2,0 -4,0 -6,-2 -1,-1 -2,-3 -2,-5l0 -108 -62 111c-1,2 -2,3 -3,4l-2 1c0,0 -1,0 -2,0 -1,0 -3,0 -5,-2 -1,-1 -2,-4 -2,-6l0 -137c0,-2 1,-4 2,-6 2,-1 4,-2 6,-2 2,0 3,1 5,2 1,1 2,3 2,6l0 107 62 -111c1,-1 2,-3 3,-4 2,-1 3,-1 4,-1 2,0 4,1 5,2 2,2 2,4 2,7l0 137zm104 0c0,2 -1,4 -2,5 -2,2 -4,2 -6,2 -2,0 -4,0 -5,-2 -2,-1 -2,-3 -2,-5l0 -108 -62 111c-1,2 -2,3 -4,4l-1 1c-1,0 -1,0 -3,0 -1,0 -3,0 -5,-2 -1,-1 -2,-4 -2,-6l0 -137c0,-2 1,-4 3,-6 1,-1 3,-2 5,-2 2,0 4,1 5,2 2,1 3,3 3,6l0 107 61 -111c1,-1 2,-3 4,-4 1,-1 2,-1 4,-1 1,0 3,1 4,2 2,2 3,4 3,7l0 137z"/>
   <path class="fil4 str1" d="M4233 5832l-38 0c-8,0 -15,-3 -21,-9 -6,-6 -9,-13 -9,-22l0 -91c0,-8 3,-16 9,-22 5,-5 13,-8 21,-8l38 0c2,0 4,0 6,2 1,1 2,3 2,5 0,2 -1,4 -2,5 -1,2 -3,3 -6,3l-38 0c-4,0 -8,1 -11,4 -1,2 -2,3 -3,5 -1,2 -1,4 -1,6l0 91c0,5 1,8 4,11 2,2 3,3 5,4 2,0 4,1 6,1l38 0c2,0 4,1 6,2 1,2 2,3 2,5 0,2 -1,4 -2,5 -1,2 -3,3 -6,3zm35 -91l38 0c3,0 4,0 6,2 1,1 2,3 2,5 0,2 -1,4 -2,5 -1,2 -3,3 -6,3l-38 0 0 61 54 0c2,0 4,1 5,2 2,2 2,3 2,5 0,2 0,4 -2,5 -1,2 -3,3 -5,3l-61 0c-5,0 -8,-3 -8,-7l0 -138c0,-5 3,-7 8,-7l61 0c2,0 4,0 5,2 2,1 2,3 2,5 0,2 0,4 -2,5 -1,2 -3,3 -5,3l-54 0 0 46zm88 4l65 -63c1,-2 3,-2 5,-2 2,0 3,0 5,2 2,1 3,3 3,5 0,2 -1,3 -3,6l-45 45 47 82 1 4c0,2 -1,4 -3,6 -1,1 -3,2 -5,2 -3,0 -5,-1 -7,-4l-44 -80 -19 18 0 58c0,3 0,5 -2,6 -1,1 -3,2 -5,2 -2,0 -4,-1 -5,-2 -2,-1 -3,-3 -3,-6l0 -137c0,-2 1,-4 3,-5 1,-2 3,-2 5,-2 2,0 4,0 5,1 2,2 2,4 2,6l0 58zm104 11l46 0c4,0 7,-2 10,-5 3,-2 5,-6 5,-11l0 -30c0,-4 -2,-8 -4,-11 -3,-3 -7,-4 -11,-4l-46 0 0 61zm0 15l0 53c0,3 -1,5 -2,6 -2,1 -3,2 -6,2 -2,0 -3,-1 -5,-2 -2,-1 -2,-3 -2,-6l0 -137c0,-5 2,-7 7,-7l54 0c8,0 15,3 21,8 6,6 9,14 9,22l0 30c0,9 -3,16 -9,22 -6,6 -13,9 -21,9l-46 0zm103 -30l39 0c2,0 4,0 5,2 2,1 2,3 2,5 0,2 0,4 -2,5 -1,2 -3,3 -5,3l-39 0 0 61 54 0c2,0 4,1 5,2 2,2 3,3 3,5 0,2 -1,4 -2,5 -2,2 -4,3 -6,3l-61 0c-5,0 -8,-3 -8,-7l0 -138c0,-5 3,-7 8,-7l61 0c2,0 4,0 5,2 2,1 3,3 3,5 0,2 -1,4 -2,5 -2,2 -4,3 -6,3l-54 0 0 46zm112 -46l-31 0c-2,0 -4,-1 -6,-2 -1,-2 -2,-4 -2,-6 0,-2 1,-3 2,-5 2,-2 4,-2 6,-2l76 0c2,0 4,0 6,2 1,1 2,3 2,5 0,2 -1,4 -2,5 -1,2 -3,3 -6,3l-30 0 0 129c0,3 -1,5 -2,6 -2,1 -4,2 -6,2 -2,0 -4,-1 -5,-2 -2,-1 -2,-3 -2,-6l0 -129zm61 99l-11 33c0,1 -1,3 -3,4 -1,0 -2,1 -4,1 -2,0 -3,-1 -5,-2 -2,-2 -2,-3 -2,-6l0 -2 46 -137c1,-5 4,-7 7,-7 3,0 6,2 7,7l46 137 0 2c0,2 -1,4 -2,6 -2,1 -4,2 -6,2 -1,0 -2,0 -3,-1 -1,0 -2,-2 -4,-4l-11 -33 -55 0zm50 -16l-22 -67 -23 67 45 0zm57 -22l46 0c4,0 8,-2 11,-5 3,-2 4,-6 4,-11l0 -30c0,-4 -1,-8 -4,-11 -3,-3 -6,-4 -11,-4l-46 0 0 61zm0 15l0 53c0,3 0,5 -2,6 -1,1 -3,2 -5,2 -2,0 -4,-1 -5,-2 -2,-1 -3,-3 -3,-6l0 -137c0,-5 3,-7 8,-7l53 0c9,0 16,3 22,8 6,6 9,14 9,22l0 30c0,9 -3,16 -9,22 -6,6 -14,9 -22,9l-46 0zm104 -15l46 0c4,0 8,1 10,4 3,3 5,7 5,11l0 30c0,5 -2,8 -4,11 -2,2 -4,3 -5,4 -2,0 -4,1 -6,1l-46 0 0 -61zm0 -15l0 -54c0,-2 -1,-4 -2,-5 -2,-2 -4,-2 -6,-2 -1,0 -3,0 -5,1 -1,2 -2,4 -2,6l0 137c0,5 2,8 7,8l54 0c8,0 15,-3 21,-9 6,-6 9,-13 9,-22l0 -30c0,-8 -3,-15 -9,-21 -6,-6 -13,-9 -21,-9l-46 0zm213 4l64 -63c2,-2 3,-2 5,-2 2,0 4,0 6,2 1,1 2,3 2,5 0,2 -1,3 -2,6l-46 45 47 82 1 4c0,2 -1,4 -2,6 -2,1 -4,2 -6,2 -2,0 -4,-1 -6,-4l-45 -80 -18 18 0 58c0,3 -1,5 -2,6 -2,1 -3,2 -6,2 -2,0 -3,-1 -5,-2 -1,-1 -2,-3 -2,-6l0 -137c0,-2 1,-4 2,-5 2,-2 3,-2 5,-2 2,0 4,0 6,1 1,2 2,4 2,6l0 58zm172 56c0,9 -3,16 -9,22 -6,6 -13,9 -22,9l-30 0c-8,0 -15,-3 -21,-9 -6,-6 -9,-13 -9,-22l0 -91c0,-8 3,-16 8,-22 6,-5 14,-8 22,-8l30 0c9,0 16,3 22,8 6,6 9,14 9,22l0 91zm-15 0l0 -91c0,-4 -2,-8 -5,-11 -2,-3 -6,-4 -11,-4l-30 0c-4,0 -8,1 -11,4 -1,2 -2,3 -3,5 -1,2 -1,4 -1,6l0 91c0,5 1,8 4,11 2,2 3,3 5,4 2,0 4,1 6,1l30 0c5,0 8,-2 11,-5 3,-2 5,-6 5,-11zm146 23c0,3 -1,5 -2,6 -2,1 -3,2 -6,2 -1,0 -3,-1 -5,-2 -1,-1 -2,-3 -2,-6l0 -108 -32 52c-2,3 -4,5 -6,5 -3,0 -5,-2 -7,-5l-32 -52 0 108c0,3 0,5 -2,6 -1,1 -3,2 -5,2 -2,0 -4,-1 -6,-2 -1,-1 -2,-3 -2,-6l0 -136c0,-3 1,-5 2,-7 2,-1 3,-2 5,-2 2,0 3,1 4,1 1,1 2,2 3,4l40 65 39 -65c1,-3 4,-5 7,-5 2,0 3,1 5,3 1,1 2,3 2,6l0 136zm103 0c0,3 -1,5 -2,6 -1,1 -3,2 -5,2 -2,0 -4,-1 -6,-2 -1,-1 -2,-3 -2,-6l0 -107 -62 111c-1,2 -2,3 -3,4l-2 1c0,0 -1,0 -2,0 -2,0 -3,-1 -5,-2 -1,-2 -2,-4 -2,-7l0 -137c0,-2 1,-4 2,-5 2,-2 3,-2 5,-2 2,0 4,0 6,2 1,1 2,3 2,5l0 108 62 -111c1,-2 2,-3 3,-4 1,-1 3,-2 4,-2 2,0 3,1 5,3 1,1 2,4 2,6l0 137zm81 8l-38 0c-8,0 -16,-3 -22,-9 -6,-6 -9,-13 -9,-22l0 -91c0,-8 3,-16 9,-22 6,-5 13,-8 22,-8l38 0c2,0 4,0 5,2 2,1 3,3 3,5 0,2 -1,4 -2,5 -2,2 -4,3 -6,3l-38 0c-4,0 -8,1 -11,4 -2,2 -3,3 -3,5 -1,2 -1,4 -1,6l0 91c0,5 1,8 4,11 1,2 3,3 5,4 2,0 4,1 6,1l38 0c2,0 4,1 5,2 2,2 3,3 3,5 0,2 -1,4 -2,5 -2,2 -4,3 -6,3zm81 0l-38 0c-8,0 -15,-3 -21,-9 -6,-6 -9,-13 -9,-22l0 -91c0,-8 3,-16 9,-22 6,-5 13,-8 21,-8l38 0c2,0 4,0 6,2 1,1 2,3 2,5 0,2 -1,4 -2,5 -1,2 -3,3 -6,3l-38 0c-4,0 -8,1 -11,4 -1,2 -2,3 -3,5 -1,2 -1,4 -1,6l0 91c0,5 1,8 4,11 2,2 3,3 5,4 2,0 4,1 6,1l38 0c2,0 4,1 6,2 1,2 2,3 2,5 0,2 -1,4 -2,5 -1,2 -3,3 -6,3zm111 -8c0,3 0,5 -2,6 -1,1 -3,2 -5,2 -2,0 -4,-1 -6,-2 -1,-1 -2,-3 -2,-6l0 -107 -62 111c0,2 -2,3 -3,4l-2 1c0,0 -1,0 -2,0 -1,0 -3,-1 -5,-2 -1,-2 -2,-4 -2,-7l0 -137c0,-2 1,-4 2,-5 2,-2 4,-2 6,-2 2,0 3,0 5,2 1,1 2,3 2,5l0 108 62 -111c1,-2 2,-3 3,-4 2,-1 3,-2 4,-2 2,0 4,1 5,3 2,1 2,4 2,6l0 137zm104 0c0,3 -1,5 -2,6 -2,1 -4,2 -6,2 -2,0 -4,-1 -5,-2 -2,-1 -2,-3 -2,-6l0 -107 -62 111c-1,2 -2,3 -3,4l-2 1c-1,0 -1,0 -2,0 -2,0 -4,-1 -5,-2 -2,-2 -2,-4 -2,-7l0 -137c0,-2 0,-4 2,-5 1,-2 3,-2 5,-2 2,0 4,0 5,2 2,1 3,3 3,5l0 108 61 -111c1,-2 2,-3 4,-4 1,-1 2,-2 4,-2 2,0 3,1 5,3 1,1 2,4 2,6l0 137z"/>
  </g>
 </g>
</svg>
