<?xml version="1.0" encoding="UTF-8"?>
<!DOCTYPE svg PUBLIC "-//W3C//DTD SVG 1.0//EN" "http://www.w3.org/TR/2001/REC-SVG-20010904/DTD/svg10.dtd">
<!-- Creator: CorelDRAW X7 -->
<svg xmlns="http://www.w3.org/2000/svg" xml:space="preserve" width="200mm" height="200mm" version="1.0" style="shape-rendering:geometricPrecision; text-rendering:geometricPrecision; image-rendering:optimizeQuality; fill-rule:evenodd; clip-rule:evenodd"
viewBox="0 0 20000 20000"
 xmlns:xlink="http://www.w3.org/1999/xlink">
 <defs>
  <style type="text/css">
   <![CDATA[
    .str1 {stroke:#2E99A3;stroke-width:25}
    .str0 {stroke:#846573;stroke-width:108.68}
    .fil12 {fill:#FEFEFE}
    .fil9 {fill:#F9C5A1}
    .fil3 {fill:#F6B096}
    .fil7 {fill:#F9D6AA}
    .fil8 {fill:#E9B69A}
    .fil11 {fill:#DBE3E3}
    .fil5 {fill:#DAD9DA}
    .fil14 {fill:#BF2C2E}
    .fil6 {fill:#D4E8F8}
    .fil10 {fill:#71523E}
    .fil4 {fill:#2E99A3}
    .fil1 {fill:#A8D4AF}
    .fil15 {fill:#149288}
    .fil13 {fill:#00897E}
    .fil2 {fill:#97A59A;fill-rule:nonzero}
    .fil0 {fill:url(#id0)}
   ]]>
  </style>
  <radialGradient id="id0" gradientUnits="userSpaceOnUse" gradientTransform="matrix(1.41421 -0 -0 1.41421 -4142 -4142)" cx="10000" cy="10000" r="10000" fx="10000" fy="10000">
   <stop offset="0" style="stop-opacity:1; stop-color:#FEFEFE"/>
   <stop offset="0.439216" style="stop-opacity:1; stop-color:#FEFEFE"/>
   <stop offset="1" style="stop-opacity:1; stop-color:#D1E2F2"/>
  </radialGradient>
 </defs>
 <g id="Layer_x0020_1">
  <metadata id="CorelCorpID_0Corel-Layer"/>
  <g id="_428641073488">
   <path class="fil0" d="M0 0l20000 0 0 20000 -20000 0 0 -20000z"/>
   <path class="fil1" d="M503 5283l19092 0 0 -1364 -19092 0 0 1364z"/>
   <g>
    <path class="fil2" d="M2577 4228c-22,5 -43,-10 -47,-33 -4,-24 10,-46 31,-51l16 84zm7431 -1641l-7431 1641 -16 -84 7431 -1641 16 0 0 84zm-16 -84c22,-5 42,10 47,33 4,23 -10,46 -31,51l-16 -84zm7431 1725l-7431 -1641 16 -84 7431 1641 -16 84zm16 -84c21,5 35,27 31,51 -5,23 -25,38 -47,33l16 -84z"/>
   </g>
   <path class="fil3 str0" d="M10011 2560c44,0 81,36 81,81 0,45 -37,81 -81,81 -45,0 -81,-36 -81,-81 0,-45 36,-81 81,-81z"/>
   <path class="fil4 str1" d="M6418 4580c0,7 -3,14 -7,18 -5,4 -10,6 -17,6 -7,0 -12,-2 -17,-6 -5,-4 -7,-10 -7,-18l0 -341 -196 353c-3,5 -7,8 -11,11l-5 3c-2,1 -4,2 -8,2 -4,0 -10,-2 -16,-7 -4,-5 -6,-12 -6,-21l0 -434c0,-7 3,-13 7,-18 5,-4 11,-6 17,-6 6,0 12,2 17,6 5,4 7,10 7,18l0 341 196 -353c2,-4 6,-8 10,-11 5,-4 9,-5 13,-5 6,0 11,2 15,8 5,4 8,11 8,20l0 434zm337 -265l0 -170c0,-6 3,-12 8,-16 4,-5 10,-8 16,-8 6,0 12,2 17,6 5,4 7,11 7,19l0 433c0,7 -2,13 -7,18 -6,5 -11,7 -17,7 -6,0 -12,-2 -17,-6 -4,-4 -7,-10 -7,-18l0 -217 -193 0 0 217c0,7 -2,14 -7,18 -4,4 -10,6 -17,6 -6,0 -12,-2 -17,-6 -5,-4 -7,-10 -7,-18l0 -434c0,-7 2,-13 7,-18 5,-4 11,-6 17,-6 6,0 12,2 17,6 5,4 7,10 7,18l0 169 193 0zm362 -74l0 219 24 0c26,0 49,-9 68,-28 19,-19 28,-42 28,-69l0 -24c0,-26 -9,-49 -28,-68 -18,-20 -41,-30 -68,-30l-24 0zm-48 219l0 -219 -25 0c-26,0 -48,10 -68,29 -19,19 -28,41 -28,69l0 24c0,27 9,49 28,68 19,20 42,29 68,29l25 0zm0 48l-25 0c-40,0 -74,-14 -102,-42 -28,-28 -42,-63 -42,-103l0 -24c0,-40 14,-74 42,-103 28,-28 63,-43 102,-43l25 0 0 -48c0,-6 2,-12 7,-17 5,-5 10,-7 17,-7 6,0 11,2 16,6 5,4 8,10 8,18l0 48 24 0c39,0 74,15 102,43 13,14 23,29 31,46 7,18 11,36 11,57l0 24c0,39 -14,73 -42,102 -28,29 -62,43 -102,43l-24 0 0 72c0,8 -3,14 -7,18 -5,4 -10,6 -17,6 -7,0 -12,-2 -17,-6 -5,-4 -7,-10 -7,-18l0 -72zm603 -1c0,27 -10,50 -29,69 -18,19 -41,28 -68,28l-96 0c-27,0 -49,-9 -68,-28 -19,-19 -29,-42 -29,-69l0 -289c0,-27 10,-50 28,-68 19,-19 42,-29 69,-29l96 0c27,0 50,10 68,29 19,19 29,41 29,68l0 289zm-48 1l0 -290c0,-14 -5,-25 -14,-35 -9,-9 -21,-14 -35,-14l-96 0c-14,0 -25,5 -35,14 -5,5 -8,10 -10,16 -3,6 -4,12 -4,19l0 290c0,13 5,25 14,34 5,4 10,8 16,11 6,2 13,3 19,3l96 0c14,0 25,-4 34,-13 10,-9 15,-21 15,-35zm231 -145l145 0c13,0 24,-5 34,-14 9,-9 14,-20 14,-35l0 -96c0,-14 -5,-25 -14,-35 -9,-9 -20,-14 -34,-14l-145 0 0 194zm0 48l0 169c0,7 -3,14 -7,18 -5,4 -10,6 -17,6 -7,0 -12,-2 -17,-6 -5,-4 -7,-10 -7,-18l0 -434c0,-17 8,-25 24,-25l169 0c26,0 49,10 68,29 19,18 28,41 28,68l0 96c0,27 -9,49 -28,68 -19,19 -42,29 -69,29l-144 0zm675 169c0,7 -2,14 -6,18 -5,4 -10,6 -18,6 -5,0 -10,-2 -16,-6 -5,-4 -8,-10 -8,-18l0 -345 -99 167c-6,11 -13,16 -21,16 -7,0 -14,-5 -21,-16l-101 -167 0 345c0,7 -2,14 -6,18 -5,4 -10,6 -18,6 -6,0 -12,-2 -16,-6 -5,-4 -8,-10 -8,-18l0 -432c0,-9 3,-16 7,-21 5,-5 10,-7 16,-7 4,0 8,1 11,3 4,3 7,7 11,13l125 206 124 -206c5,-11 13,-16 23,-16 5,0 10,2 15,8 4,5 6,12 6,20l0 432zm181 -97l-35 104c-1,6 -4,10 -9,13 -3,2 -7,3 -13,4 -6,0 -12,-2 -17,-7 -5,-4 -7,-10 -7,-16l1 -9 145 -434c5,-14 13,-21 23,-21 10,0 18,7 23,21l144 434 2 9c0,6 -3,11 -8,16 -5,5 -11,7 -17,7 -3,0 -7,-1 -11,-2 -4,-2 -8,-7 -11,-15l-35 -104 -175 0zm159 -49l-71 -212 -71 212 142 0zm432 122l0 -410c0,-7 2,-13 7,-18 5,-4 11,-7 17,-7 6,0 12,2 16,6 5,5 8,11 8,19l0 410 24 0c16,0 25,8 25,24l0 73c0,6 -3,12 -8,17 -5,4 -10,7 -16,7 -6,0 -11,-2 -17,-6 -5,-4 -7,-10 -7,-19l0 -48 -266 0c-16,0 -24,-8 -24,-24l0 -434c0,-7 2,-13 7,-18 5,-4 10,-7 17,-7 6,0 11,2 16,6 5,5 8,11 8,19l0 410 193 0zm482 24c0,7 -2,14 -7,18 -4,4 -10,6 -17,6 -6,0 -12,-2 -17,-6 -5,-4 -7,-10 -7,-18l0 -341 -196 353c-3,5 -6,8 -11,11l-5 3c-1,1 -4,2 -7,2 -5,0 -10,-2 -16,-7 -4,-5 -6,-12 -6,-21l0 -434c0,-7 2,-13 7,-18 5,-4 10,-6 17,-6 6,0 11,2 16,6 5,4 8,10 8,18l0 341 195 -353c3,-4 6,-8 11,-11 4,-4 8,-5 13,-5 5,0 10,2 15,8 4,4 7,11 7,20l0 434zm386 -73c0,27 -10,50 -29,69 -18,19 -41,28 -68,28l-96 0c-26,0 -49,-9 -68,-28 -19,-19 -29,-42 -29,-69l0 -289c0,-27 10,-50 29,-68 18,-19 41,-29 68,-29l96 0c27,0 50,10 69,29 18,19 28,41 28,68l0 289zm-48 1l0 -290c0,-14 -5,-25 -14,-35 -9,-9 -21,-14 -35,-14l-96 0c-14,0 -25,5 -35,14 -4,5 -8,10 -10,16 -2,6 -4,12 -4,19l0 290c0,13 5,25 14,34 5,4 10,8 16,11 7,2 13,3 19,3l96 0c14,0 25,-4 35,-13 9,-9 14,-21 14,-35zm424 -193l0 -170c0,-6 2,-12 7,-16 5,-5 11,-8 17,-8 6,0 12,2 17,6 5,4 7,11 7,19l0 433c0,7 -2,13 -7,18 -6,5 -12,7 -17,7 -6,0 -12,-2 -17,-6 -5,-4 -7,-10 -7,-18l0 -217 -193 0 0 217c0,7 -2,14 -7,18 -4,4 -10,6 -17,6 -7,0 -12,-2 -17,-6 -5,-4 -7,-10 -7,-18l0 -434c0,-7 2,-13 7,-18 5,-4 10,-6 17,-6 6,0 12,2 16,6 5,4 8,10 8,18l0 169 193 0zm386 0l0 -170c0,-6 2,-12 7,-16 5,-5 11,-8 17,-8 6,0 12,2 17,6 4,4 7,11 7,19l0 433c0,7 -3,13 -8,18 -5,5 -11,7 -16,7 -6,0 -12,-2 -17,-6 -5,-4 -7,-10 -7,-18l0 -217 -193 0 0 217c0,7 -3,14 -7,18 -5,4 -10,6 -17,6 -7,0 -12,-2 -17,-6 -5,-4 -7,-10 -7,-18l0 -434c0,-7 2,-13 7,-18 5,-4 10,-6 17,-6 6,0 11,2 16,6 5,4 8,10 8,18l0 169 193 0zm482 265c0,7 -2,14 -6,18 -5,4 -11,6 -18,6 -6,0 -12,-2 -16,-6 -5,-4 -8,-10 -8,-18l0 -434c0,-7 3,-13 8,-18 4,-4 10,-7 16,-7 6,0 12,2 17,6 5,4 7,11 7,19l0 434zm-290 -217l0 193 97 0c14,0 25,-4 35,-13 9,-9 14,-21 14,-35l0 -97c0,-14 -5,-25 -14,-34 -9,-10 -21,-14 -35,-14l-97 0zm0 -48l97 0c26,0 49,9 68,28 19,19 29,41 29,68l0 97c0,26 -10,49 -28,68 -19,19 -42,28 -69,28l-120 0c-17,0 -25,-8 -25,-24l0 -434c0,-7 3,-13 8,-18 4,-4 10,-7 16,-7 7,0 12,2 17,6 5,5 7,11 7,19l0 169zm579 -242l-96 0c-7,0 -13,-2 -18,-6 -4,-5 -6,-11 -6,-18 0,-5 2,-10 6,-16 4,-5 10,-8 18,-8l96 0c7,0 13,3 18,8 4,5 7,10 7,16 0,6 -2,11 -7,17 -4,5 -10,7 -18,7zm97 507c0,7 -2,14 -7,18 -4,4 -10,6 -17,6 -7,0 -12,-2 -17,-6 -5,-4 -7,-10 -7,-18l0 -341 -196 353c-3,5 -6,8 -11,11l-5 3c-2,1 -4,2 -7,2 -5,0 -10,-2 -16,-7 -4,-5 -7,-12 -7,-21l0 -434c0,-7 3,-13 8,-18 4,-4 10,-6 16,-6 7,0 12,2 17,6 5,4 7,10 7,18l0 341 196 -353c3,-3 6,-7 11,-11 4,-3 8,-5 13,-5 5,0 10,3 14,8 5,5 8,11 8,20l0 434zm603 24l-121 0c-26,0 -49,-9 -68,-28 -19,-19 -28,-42 -28,-69l0 -289c0,-27 9,-50 28,-68 19,-19 41,-29 68,-29l121 0c7,0 12,3 17,8 5,5 7,10 7,16 0,6 -2,11 -6,17 -4,5 -10,7 -18,7l-121 0c-14,0 -25,5 -35,14 -4,5 -8,10 -10,16 -2,6 -3,12 -3,19l0 290c0,13 4,25 13,34 5,4 11,8 16,11 7,2 13,3 19,3l121 0c7,0 12,3 17,7 5,5 7,11 7,17 0,6 -2,11 -6,16 -4,5 -10,8 -18,8zm241 -435l-97 0c-7,0 -13,-2 -17,-6 -5,-5 -7,-11 -7,-18 0,-5 2,-10 6,-16 4,-5 10,-8 18,-8l241 0c7,0 13,3 18,8 4,5 7,10 7,16 0,6 -2,11 -6,17 -4,5 -11,7 -19,7l-96 0 0 411c0,7 -2,14 -7,18 -4,4 -10,6 -17,6 -6,0 -12,-2 -17,-6 -5,-4 -7,-10 -7,-18l0 -411zm313 146l121 0c7,0 13,2 18,7 4,5 7,11 7,17 0,6 -2,11 -6,16 -4,5 -11,8 -19,8l-121 0 0 193 170 0c6,0 12,3 17,7 5,5 7,11 7,17 0,6 -2,11 -6,16 -4,5 -10,8 -18,8l-194 0c-16,0 -24,-8 -24,-23l0 -435c0,-17 8,-25 24,-25l194 0c6,0 12,3 17,8 5,5 7,10 7,16 0,6 -2,12 -6,17 -4,5 -10,7 -18,7l-170 0 0 146zm531 0l0 -170c0,-6 2,-12 7,-16 5,-5 11,-8 17,-8 6,0 12,2 17,6 5,4 7,11 7,19l0 433c0,7 -2,13 -7,18 -6,5 -12,7 -17,7 -6,0 -12,-2 -17,-6 -5,-4 -7,-10 -7,-18l0 -217 -193 0 0 217c0,7 -3,14 -7,18 -4,4 -10,6 -17,6 -7,0 -12,-2 -17,-6 -5,-4 -7,-10 -7,-18l0 -434c0,-7 2,-13 7,-18 5,-4 10,-6 17,-6 6,0 12,2 16,6 5,4 8,10 8,18l0 169 193 0zm195 241l46 -413c0,-15 8,-22 24,-22l145 0c16,0 24,8 24,25l0 410 24 0c16,0 25,8 25,24l0 48c0,7 -3,12 -8,17 -5,5 -10,7 -16,7 -6,0 -11,-2 -17,-6 -5,-4 -7,-10 -7,-18l0 -24 -242 0 0 24c0,7 -3,12 -8,17 -5,5 -10,7 -16,7 -6,0 -11,-2 -17,-6 -5,-4 -7,-10 -7,-18l0 -48c0,-16 8,-24 24,-24l26 0zm191 0l0 -387 -99 0 -44 387 143 0z"/>
   <g id="_428641083280">
    <path class="fil4 str1" d="M1533 5118l-78 0c-20,0 -38,-8 -54,-23 -15,-15 -23,-33 -23,-54l0 -174c0,-5 2,-10 6,-15 4,-3 8,-5 13,-5 5,0 10,2 14,5 4,3 6,8 6,15l0 174c0,11 3,20 11,27 3,4 8,6 12,9 6,1 11,2 15,2l78 0 0 -212c0,-5 2,-10 6,-15 3,-3 8,-5 13,-5 5,0 9,2 13,5 4,3 6,8 6,15l0 289c0,21 -7,39 -22,55 -15,15 -33,22 -55,22l-77 0c-5,0 -10,-1 -15,-5 -3,-4 -5,-9 -5,-14 0,-5 2,-9 5,-13 4,-4 8,-6 15,-6l77 0c11,0 20,-4 28,-11 7,-7 11,-16 11,-28l0 -38zm270 -155l0 -96c0,-6 2,-10 6,-15 3,-3 8,-5 13,-5 5,0 9,2 13,5 4,3 6,8 6,15l0 231c0,6 -2,11 -5,15 -4,3 -8,5 -14,5 -5,0 -10,-2 -13,-5 -4,-3 -6,-8 -6,-15l0 -97 -77 0c-21,0 -39,-7 -55,-22 -15,-15 -23,-33 -23,-55l0 -57c0,-6 2,-10 6,-15 4,-3 8,-5 13,-5 5,0 10,2 14,5 4,3 6,8 6,15l0 58c0,10 3,20 11,27 4,3 8,6 12,8 6,2 11,3 15,3l78 0zm270 78l0 -155 -78 0c-10,0 -20,3 -27,11 -4,4 -7,8 -9,12 -1,5 -2,10 -2,16l0 116c0,11 3,20 11,27 4,4 8,6 12,9 6,1 11,2 15,2l39 0c11,0 20,-3 28,-10 7,-8 11,-17 11,-28zm19 51c-6,7 -15,14 -26,18 -10,5 -21,8 -32,8l-38 0c-21,0 -39,-8 -55,-23 -15,-15 -23,-33 -23,-54l0 -116c0,-22 8,-40 23,-55 15,-15 33,-23 55,-23l96 0c13,0 19,7 19,20l0 173c0,8 3,16 8,24 4,7 11,13 19,16 8,4 12,10 12,18 0,6 -2,10 -5,14 -4,4 -8,6 -14,6 -3,0 -6,-1 -8,-2 -13,-5 -23,-13 -31,-24zm232 26l-58 0c-21,0 -39,-8 -55,-23 -15,-15 -23,-33 -23,-54l0 -116c0,-22 8,-40 23,-55 15,-15 33,-23 55,-23l58 0c5,0 10,2 13,6 4,4 6,9 6,14 0,4 -2,8 -5,12 -3,5 -8,7 -14,7l-58 0c-11,0 -21,3 -28,11 -4,4 -7,8 -8,12 -2,5 -3,10 -3,16l0 116c0,11 3,20 11,27 4,4 8,6 12,9 6,1 11,2 16,2l58 0c5,0 9,2 13,6 4,4 6,9 6,14 0,4 -2,8 -5,12 -3,5 -8,7 -14,7zm212 -232l-78 0 0 212c0,6 -1,11 -5,15 -4,3 -8,5 -14,5 -5,0 -9,-2 -13,-5 -4,-3 -6,-8 -6,-15l0 -231c0,-13 6,-20 19,-20l174 0c21,0 39,8 54,23 15,15 23,33 23,55l0 173c0,6 -2,11 -6,15 -3,3 -8,5 -13,5 -6,0 -10,-2 -14,-5 -4,-3 -6,-8 -6,-15l0 -174c0,-10 -3,-20 -11,-27 -7,-7 -16,-11 -27,-11l-39 0 0 212c0,6 -2,11 -5,15 -4,3 -9,5 -14,5 -5,0 -10,-2 -14,-5 -4,-3 -5,-8 -5,-15l0 -212zm309 105l-43 46 0 61c0,6 -2,11 -6,15 -3,3 -8,5 -14,5 -5,0 -9,-2 -13,-5 -4,-3 -6,-8 -6,-15l0 -231c0,-5 2,-10 6,-14 4,-4 8,-5 13,-5 5,0 10,1 14,4 4,4 6,9 6,15l0 114 122 -128c3,-4 8,-6 12,-6 5,0 9,2 14,6 4,3 6,8 6,14 0,5 -2,10 -7,15l-77 81 79 123c3,5 5,10 5,13 0,5 -2,10 -7,14 -3,3 -8,5 -13,5 -5,0 -10,-2 -14,-7l-77 -120zm366 42c0,23 -9,43 -25,60 -16,16 -37,25 -60,25l-23 0c-23,0 -43,-8 -60,-25 -17,-16 -25,-36 -25,-60l0 -101c0,-22 8,-42 24,-59 17,-17 37,-26 61,-26l23 0c23,0 43,9 59,25 17,16 26,37 26,60l0 101zm-39 0l0 -101c0,-12 -4,-23 -13,-33 -9,-9 -20,-13 -33,-13l-24 0c-12,0 -23,4 -32,13 -9,9 -14,20 -14,33l0 101c0,13 5,24 14,33 9,9 20,13 32,13l24 0c12,0 23,-4 32,-13 10,-9 14,-20 14,-33zm270 8l0 -116c0,-11 -3,-20 -11,-28 -7,-7 -16,-11 -27,-11l-39 0c-11,0 -20,4 -28,11 -3,4 -6,8 -8,13 -2,5 -3,10 -3,15l0 116c0,11 4,20 11,27 4,4 8,6 13,9 5,1 10,2 15,2l39 0c10,0 19,-3 27,-10 8,-8 11,-17 11,-28zm-116 -180l16 -10 23 -16c7,-6 13,-11 16,-15 5,-6 7,-12 7,-19 0,-8 -3,-16 -9,-22 -7,-5 -14,-8 -22,-8 -8,0 -16,3 -22,8 -6,5 -9,13 -9,22l0 60zm78 -12c24,0 43,7 57,22 13,14 20,32 20,54l0 116c0,21 -8,39 -23,54 -15,15 -33,23 -54,23l-39 0c-21,0 -39,-8 -54,-23 -16,-14 -23,-33 -23,-54l0 -240c0,-21 7,-38 21,-52 14,-11 30,-17 48,-17 18,0 34,6 48,18 15,12 22,29 22,51 0,13 -2,22 -6,28 -3,7 -9,13 -17,20zm347 184c0,23 -8,43 -25,60 -16,16 -36,25 -60,25l-23 0c-23,0 -43,-8 -60,-25 -17,-16 -25,-36 -25,-60l0 -101c0,-22 8,-42 25,-59 16,-17 36,-26 60,-26l23 0c23,0 43,9 60,25 16,16 25,37 25,60l0 101zm-39 0l0 -101c0,-12 -4,-23 -13,-33 -9,-9 -20,-13 -33,-13l-23 0c-13,0 -24,4 -33,13 -9,9 -14,20 -14,33l0 101c0,13 5,24 14,33 9,9 20,13 33,13l23 0c12,0 23,-4 33,-13 9,-9 13,-20 13,-33zm251 -263l-77 0c-6,0 -11,-2 -15,-5 -3,-4 -5,-9 -5,-14 0,-5 2,-9 5,-13 4,-4 8,-6 15,-6l77 0c5,0 10,2 14,6 3,3 5,8 5,13 0,4 -1,9 -5,13 -3,4 -8,6 -14,6zm58 328c0,13 -6,20 -19,20l-97 0c-21,0 -39,-8 -54,-23 -15,-15 -23,-33 -23,-54l0 -174c0,-5 2,-10 6,-14 3,-4 8,-5 13,-5 5,0 9,1 13,4 4,4 6,9 6,15l0 174c0,11 4,20 11,27 4,4 8,6 13,9 5,1 10,2 15,2l78 0 0 -212c0,-5 1,-10 5,-14 4,-4 9,-5 14,-5 5,0 9,1 13,4 4,4 6,9 6,15l0 231zm502 0c0,13 -7,20 -20,20l-96 0c-21,0 -39,-8 -54,-23 -16,-15 -24,-33 -24,-54l0 -174c0,-5 2,-10 6,-15 4,-3 9,-5 14,-5 5,0 9,2 13,5 4,3 6,8 6,15l0 174c0,11 4,20 11,27 4,4 8,6 12,9 6,1 11,2 16,2l77 0 0 -212c0,-5 2,-10 6,-15 4,-3 8,-5 13,-5 5,0 10,2 14,5 4,3 6,8 6,15l0 231zm178 -97l-24 0c-6,0 -11,-1 -14,-5 -4,-4 -5,-8 -5,-14 0,-4 1,-9 5,-13 3,-4 8,-6 14,-6l19 0c12,0 22,-4 28,-12 8,-7 11,-16 11,-27 0,-10 -3,-19 -9,-26 -3,-4 -8,-7 -13,-9 -5,-2 -10,-3 -17,-3l-19 0c-18,0 -33,5 -46,16 -4,2 -8,3 -12,4 -4,0 -9,-2 -14,-6 -3,-4 -5,-9 -5,-14 0,-6 2,-11 8,-15 19,-16 43,-24 69,-24l19 0c25,0 44,8 58,24 13,15 19,33 19,54 0,6 0,11 -1,16 -1,5 -2,10 -5,15 -3,9 -9,18 -18,27 7,6 14,15 18,26l5 15c1,5 1,11 1,17 0,21 -6,39 -19,53 -14,16 -33,24 -58,24l-19 0c-26,0 -49,-8 -69,-23 -6,-4 -8,-9 -8,-16 0,-4 2,-8 5,-13 4,-5 9,-7 14,-7 3,0 7,2 12,5 13,10 29,15 46,15l19 0c12,0 21,-4 28,-11 7,-8 11,-18 11,-28 0,-10 -3,-18 -8,-25 -6,-7 -14,-11 -26,-14zm304 40l0 -116c0,-11 -4,-21 -11,-28 -7,-7 -16,-11 -28,-11l-39 0c-10,0 -20,3 -27,11 -4,4 -7,8 -9,12 -1,5 -2,10 -2,16l0 116c0,11 3,20 11,27 4,4 8,6 12,9 6,1 11,2 15,2l39 0c11,0 20,-3 28,-10 7,-8 11,-17 11,-28zm-62 -194l-87 -82c-5,-5 -7,-11 -7,-16 0,-4 2,-8 5,-12 3,-3 9,-5 16,-5l154 0c5,0 10,2 14,6 4,3 5,8 5,13 0,4 -1,9 -4,13 -4,4 -9,6 -15,6l-106 0 102 98 5 6c12,15 18,31 18,51l0 116c0,21 -7,39 -22,54 -15,15 -33,23 -55,23l-38 0c-21,0 -39,-8 -55,-23 -15,-15 -23,-33 -23,-54l0 -116c0,-22 8,-40 23,-55 15,-15 33,-23 54,-23l16 0zm370 251c0,13 -6,20 -19,20l-96 0c-21,0 -39,-8 -55,-23 -15,-15 -23,-33 -23,-54l0 -174c0,-5 2,-10 6,-15 4,-3 9,-5 14,-5 5,0 9,2 13,5 4,3 6,8 6,15l0 174c0,11 3,20 11,27 4,4 8,6 12,9 6,1 11,2 16,2l77 0 0 -212c0,-5 2,-10 6,-15 4,-3 8,-5 13,-5 5,0 10,2 14,5 3,3 5,8 5,15l0 231zm116 -19l77 0c11,0 20,-3 28,-10 7,-8 11,-17 11,-28l0 -116c0,-11 -4,-21 -11,-28 -7,-7 -16,-11 -28,-11l-77 0 0 193zm0 39l0 96c0,6 -2,10 -6,14 -4,4 -8,5 -13,5 -5,0 -9,-1 -13,-4 -4,-4 -6,-8 -6,-15l0 -347c0,-13 6,-20 19,-20l96 0c21,0 39,8 55,23 15,15 23,33 23,55l0 116c0,21 -8,39 -23,54 -15,15 -33,23 -55,23l-77 0zm386 -77l0 -155 -77 0c-11,0 -20,3 -28,11 -4,4 -6,8 -8,12 -2,5 -3,10 -3,16l0 116c0,11 4,20 11,27 4,4 8,6 12,9 6,1 11,2 16,2l38 0c11,0 20,-3 28,-10 7,-8 11,-17 11,-28zm19 51c-6,7 -15,14 -25,18 -11,5 -22,8 -33,8l-38 0c-21,0 -39,-8 -54,-23 -16,-15 -23,-33 -23,-54l0 -116c0,-22 7,-40 22,-55 15,-15 33,-23 55,-23l96 0c13,0 20,7 20,20l0 173c0,8 2,16 7,24 4,7 11,13 19,16 8,4 12,10 12,18 0,6 -1,10 -5,14 -3,4 -8,6 -14,6 -3,0 -5,-1 -8,-2 -12,-5 -23,-13 -31,-24zm212 -206l-77 0 0 212c0,6 -2,11 -5,15 -4,3 -8,5 -14,5 -5,0 -10,-2 -14,-5 -3,-3 -5,-8 -5,-15l0 -231c0,-13 6,-20 19,-20l173 0c21,0 39,8 55,23 15,15 22,33 22,55l0 173c0,6 -1,11 -5,15 -3,3 -8,5 -14,5 -5,0 -9,-2 -13,-5 -4,-3 -6,-8 -6,-15l0 -174c0,-10 -4,-20 -11,-27 -7,-7 -16,-11 -28,-11l-38 0 0 212c0,6 -2,11 -6,15 -3,3 -8,5 -13,5 -6,0 -10,-2 -14,-5 -4,-3 -6,-8 -6,-15l0 -212zm270 78l117 0 0 -39c0,-11 -4,-20 -11,-28 -8,-7 -17,-11 -28,-11l-39 0c-11,0 -20,3 -28,11 -3,4 -6,8 -8,13 -2,4 -3,9 -3,15l0 39zm0 38l0 39c0,11 4,20 11,27 4,4 8,6 13,9 5,1 10,2 15,2l97 0c5,0 10,2 13,6 4,4 6,9 6,14 0,4 -2,8 -5,12 -3,5 -8,7 -14,7l-97 0c-21,0 -39,-8 -54,-23 -15,-15 -23,-33 -23,-54l0 -116c0,-21 7,-39 22,-55 15,-15 33,-23 55,-23l39 0c21,0 39,8 54,23 15,15 23,33 23,55l0 58c0,13 -6,19 -19,19l-136 0zm425 96c0,6 -2,11 -5,15 -4,3 -9,5 -14,5 -5,0 -10,-2 -14,-5 -3,-3 -5,-8 -5,-15l0 -212 -45 0 -72 218c-2,5 -4,8 -7,11 -1,0 -5,1 -11,3 -5,0 -9,-2 -13,-6 -4,-3 -7,-7 -7,-13l2 -7 76 -231c3,-9 9,-14 18,-14l78 0c13,0 19,7 19,20l0 231zm115 -97l0 78 78 0c12,0 21,-4 28,-11 7,-8 11,-17 11,-28 0,-10 -3,-20 -10,-27 -3,-3 -7,-6 -12,-8 -5,-2 -11,-4 -17,-4l-78 0zm0 -38l78 0c24,0 43,8 58,24 13,15 19,32 19,53 0,21 -6,39 -19,53 -14,17 -34,25 -58,25l-97 0c-13,0 -19,-7 -19,-20l0 -231c0,-5 2,-10 6,-15 4,-3 8,-5 13,-5 5,0 10,2 14,5 3,3 5,8 5,15l0 96zm387 0l0 -96c0,-6 2,-10 6,-15 3,-3 8,-5 13,-5 5,0 9,2 13,5 4,3 6,8 6,15l0 231c0,6 -2,11 -5,15 -4,3 -8,5 -14,5 -5,0 -10,-2 -13,-5 -4,-3 -6,-8 -6,-15l0 -97 -116 0 0 97c0,6 -2,11 -6,15 -3,3 -8,5 -14,5 -5,0 -9,-2 -13,-5 -4,-3 -6,-8 -6,-15l0 -231c0,-5 2,-10 6,-15 4,-3 8,-5 13,-5 5,0 10,2 14,5 4,3 6,8 6,15l0 96 116 0zm308 70c0,23 -8,43 -24,60 -17,16 -37,25 -61,25l-23 0c-23,0 -43,-8 -60,-25 -16,-16 -25,-36 -25,-60l0 -101c0,-22 8,-42 25,-59 17,-17 37,-26 60,-26l23 0c23,0 43,9 60,25 17,16 25,37 25,60l0 101zm-38 0l0 -101c0,-12 -5,-23 -14,-33 -9,-9 -20,-13 -33,-13l-23 0c-13,0 -24,4 -33,13 -9,9 -13,20 -13,33l0 101c0,13 4,24 13,33 9,9 20,13 33,13l23 0c13,0 24,-4 33,-13 9,-9 14,-20 14,-33zm250 -263l-77 0c-6,0 -10,-2 -14,-5 -3,-4 -5,-9 -5,-14 0,-5 1,-9 5,-13 3,-4 8,-6 14,-6l77 0c6,0 10,2 14,6 4,3 6,8 6,13 0,4 -2,9 -5,13 -3,4 -8,6 -15,6zm58 328c0,13 -6,20 -19,20l-96 0c-21,0 -39,-8 -55,-23 -15,-15 -23,-33 -23,-54l0 -174c0,-5 2,-10 6,-14 4,-4 8,-5 13,-5 5,0 10,1 14,4 4,4 6,9 6,15l0 174c0,11 3,20 11,27 4,4 8,6 12,9 6,1 11,2 15,2l78 0 0 -212c0,-5 2,-10 6,-14 4,-4 8,-5 13,-5 5,0 10,1 13,4 4,4 6,9 6,15l0 231zm387 -107l-44 46 0 61c0,6 -1,11 -5,15 -4,3 -8,5 -14,5 -5,0 -9,-2 -13,-5 -4,-3 -6,-8 -6,-15l0 -231c0,-5 2,-10 6,-14 4,-4 8,-5 13,-5 5,0 10,1 13,4 4,4 6,9 6,15l0 114 123 -128c3,-4 7,-6 12,-6 4,0 9,2 14,6 4,3 6,8 6,14 0,5 -3,10 -7,15l-77 81 79 123c3,5 5,10 5,13 0,5 -3,10 -7,14 -4,3 -8,5 -13,5 -5,0 -10,-2 -14,-7l-77 -120zm365 42c0,23 -8,43 -24,60 -17,16 -37,25 -61,25l-23 0c-23,0 -43,-8 -59,-25 -17,-16 -26,-36 -26,-60l0 -101c0,-22 9,-42 25,-59 17,-17 37,-26 60,-26l23 0c23,0 43,9 60,25 17,16 25,37 25,60l0 101zm-38 0l0 -101c0,-12 -4,-23 -13,-33 -9,-9 -20,-13 -33,-13l-24 0c-12,0 -23,4 -32,13 -10,9 -14,20 -14,33l0 101c0,13 4,24 13,33 9,9 20,13 33,13l24 0c12,0 23,-4 32,-13 9,-9 14,-20 14,-33zm347 65l0 -231c0,-7 -2,-13 -5,-17 -3,-3 -7,-5 -12,-5 -6,0 -12,3 -18,11l-81 113 -81 -113c-5,-8 -11,-11 -17,-11 -5,0 -9,2 -13,6 -3,4 -5,9 -5,16l0 231c0,6 2,11 6,15 3,3 8,5 14,5 4,0 9,-2 13,-5 4,-4 6,-9 6,-15l0 -171 61 86c6,7 11,10 16,10 5,0 10,-3 16,-10l62 -86 0 171c0,6 1,11 5,15 3,3 8,5 14,5 4,0 9,-2 13,-5 4,-4 6,-9 6,-15zm270 0c0,13 -6,20 -19,20l-97 0c-20,0 -39,-8 -54,-23 -15,-15 -23,-33 -23,-54l0 -174c0,-5 2,-10 6,-15 4,-3 8,-5 13,-5 5,0 10,2 14,5 4,3 5,8 5,15l0 174c0,11 4,20 12,27 3,4 8,6 12,9 6,1 11,2 15,2l78 0 0 -212c0,-5 2,-10 6,-15 3,-3 8,-5 13,-5 5,0 9,2 13,5 4,3 6,8 6,15l0 231z"/>
    <path class="fil4 str1" d="M9364 5118l-58 0c-20,0 -38,-8 -54,-23 -15,-15 -23,-33 -23,-54l0 -116c0,-22 8,-40 23,-55 15,-15 33,-23 54,-23l58 0c6,0 10,2 14,6 4,4 6,9 6,14 0,4 -2,8 -5,12 -3,5 -8,7 -15,7l-58 0c-11,0 -20,3 -27,11 -4,4 -7,8 -9,12 -1,5 -2,10 -2,16l0 116c0,11 3,20 11,27 4,4 8,6 12,9 6,1 11,2 15,2l58 0c6,0 10,2 14,6 4,4 6,9 6,14 0,4 -2,8 -5,12 -3,5 -8,7 -15,7zm232 0l-58 0c-21,0 -39,-8 -54,-23 -16,-15 -23,-33 -23,-54l0 -116c0,-22 7,-40 22,-55 15,-15 34,-23 55,-23l58 0c5,0 10,2 14,6 3,4 5,9 5,14 0,4 -1,8 -5,12 -3,5 -8,7 -14,7l-58 0c-11,0 -20,3 -28,11 -4,4 -6,8 -8,12 -2,5 -3,10 -3,16l0 116c0,11 4,20 11,27 4,4 8,6 13,9 5,1 10,2 15,2l58 0c5,0 10,2 14,6 3,4 5,9 5,14 0,4 -1,8 -5,12 -3,5 -8,7 -14,7zm289 -20c0,13 -6,20 -19,20l-97 0c-20,0 -38,-8 -54,-23 -15,-15 -23,-33 -23,-54l0 -174c0,-5 2,-10 6,-15 4,-3 8,-5 13,-5 5,0 10,2 14,5 4,3 6,8 6,15l0 174c0,11 3,20 11,27 4,4 8,6 12,9 6,1 11,2 15,2l78 0 0 -212c0,-5 2,-10 6,-15 3,-3 8,-5 13,-5 5,0 9,2 13,5 4,3 6,8 6,15l0 231zm270 0c0,13 -6,20 -19,20l-96 0c-21,0 -39,-8 -55,-23 -15,-15 -23,-33 -23,-54l0 -174c0,-5 2,-10 6,-15 4,-3 8,-5 13,-5 5,0 10,2 14,5 4,3 6,8 6,15l0 174c0,11 3,20 11,27 4,4 8,6 12,9 6,1 11,2 15,2l78 0 0 -212c0,-5 2,-10 6,-15 4,-3 8,-5 13,-5 5,0 10,2 13,5 4,3 6,8 6,15l0 231zm502 0c0,13 -6,20 -19,20l-97 0c-21,0 -39,-8 -54,-23 -15,-15 -23,-33 -23,-54l0 -174c0,-5 2,-10 6,-15 3,-3 8,-5 13,-5 5,0 9,2 13,5 4,3 6,8 6,15l0 174c0,11 4,20 11,27 4,4 8,6 13,9 5,1 10,2 15,2l78 0 0 -212c0,-5 1,-10 5,-15 4,-3 9,-5 14,-5 5,0 9,2 13,5 4,3 6,8 6,15l0 231zm179 -97l-25 0c-5,0 -10,-1 -14,-5 -3,-4 -5,-8 -5,-14 0,-4 2,-9 5,-13 4,-4 8,-6 14,-6l20 0c12,0 21,-4 28,-12 7,-7 10,-16 10,-27 0,-10 -3,-19 -9,-26 -3,-4 -7,-7 -12,-9 -5,-2 -11,-3 -17,-3l-20 0c-17,0 -33,5 -46,16 -3,2 -7,3 -12,4 -4,0 -8,-2 -13,-6 -4,-4 -6,-9 -6,-14 0,-6 3,-11 8,-15 20,-16 43,-24 69,-24l20 0c24,0 43,8 58,24 12,15 19,33 19,54 0,6 -1,11 -2,16 0,5 -2,10 -4,15 -4,9 -10,18 -18,27 7,6 13,15 18,26l4 15c1,5 2,11 2,17 0,21 -7,39 -19,53 -14,16 -33,24 -58,24l-20 0c-25,0 -49,-8 -69,-23 -5,-4 -8,-9 -8,-16 0,-4 2,-8 6,-13 4,-5 8,-7 13,-7 4,0 8,2 12,5 14,10 29,15 46,15l20 0c11,0 21,-4 28,-11 7,-8 10,-18 10,-28 0,-10 -2,-18 -8,-25 -5,-7 -14,-11 -25,-14zm303 40l0 -116c0,-11 -3,-21 -10,-28 -8,-7 -17,-11 -28,-11l-39 0c-11,0 -20,3 -28,11 -3,4 -6,8 -8,12 -2,5 -3,10 -3,16l0 116c0,11 4,20 11,27 4,4 8,6 13,9 5,1 10,2 15,2l39 0c10,0 20,-3 27,-10 8,-8 11,-17 11,-28zm-62 -194l-86 -82c-5,-5 -7,-11 -7,-16 0,-4 1,-8 5,-12 3,-3 8,-5 15,-5l155 0c5,0 9,2 13,6 4,3 6,8 6,13 0,4 -2,9 -5,13 -3,4 -8,6 -14,6l-107 0 103 98 4 6c13,15 19,31 19,51l0 116c0,21 -8,39 -23,54 -15,15 -33,23 -54,23l-39 0c-21,0 -39,-8 -54,-23 -16,-15 -23,-33 -23,-54l0 -116c0,-22 7,-40 22,-55 15,-15 34,-23 55,-23l15 0zm371 251c0,13 -7,20 -19,20l-97 0c-21,0 -39,-8 -54,-23 -15,-15 -23,-33 -23,-54l0 -174c0,-5 2,-10 6,-15 3,-3 8,-5 13,-5 5,0 9,2 13,5 4,3 6,8 6,15l0 174c0,11 4,20 11,27 4,4 8,6 13,9 5,1 10,2 15,2l78 0 0 -212c0,-5 1,-10 5,-15 4,-3 9,-5 14,-5 5,0 9,2 13,5 4,3 6,8 6,15l0 231zm115 -19l78 0c11,0 20,-3 27,-10 8,-8 12,-17 12,-28l0 -116c0,-11 -4,-21 -11,-28 -8,-7 -17,-11 -28,-11l-78 0 0 193zm0 39l0 96c0,6 -2,10 -6,14 -3,4 -8,5 -13,5 -4,0 -9,-1 -13,-4 -4,-4 -6,-8 -6,-15l0 -347c0,-13 6,-20 19,-20l97 0c21,0 39,8 54,23 15,15 23,33 23,55l0 116c0,21 -8,39 -23,54 -15,15 -33,23 -54,23l-78 0zm387 -77l0 -155 -78 0c-11,0 -20,3 -28,11 -3,4 -6,8 -8,12 -2,5 -3,10 -3,16l0 116c0,11 4,20 11,27 4,4 8,6 13,9 5,1 11,2 15,2l39 0c11,0 20,-3 27,-10 8,-8 12,-17 12,-28zm19 51c-7,7 -15,14 -26,18 -11,5 -21,8 -32,8l-39 0c-21,0 -39,-8 -54,-23 -15,-15 -23,-33 -23,-54l0 -116c0,-22 8,-40 23,-55 15,-15 33,-23 54,-23l97 0c13,0 19,7 19,20l0 173c0,8 2,16 7,24 5,7 11,13 20,16 8,4 12,10 12,18 0,6 -2,10 -6,14 -3,4 -8,6 -13,6 -3,0 -6,-1 -8,-2 -13,-5 -23,-13 -31,-24zm212 -206l-78 0 0 212c0,6 -1,11 -5,15 -3,3 -8,5 -14,5 -5,0 -9,-2 -13,-5 -4,-3 -6,-8 -6,-15l0 -231c0,-13 6,-20 19,-20l174 0c21,0 39,8 54,23 15,15 23,33 23,55l0 173c0,6 -2,11 -6,15 -3,3 -8,5 -13,5 -5,0 -10,-2 -14,-5 -4,-3 -5,-8 -5,-15l0 -174c0,-10 -4,-20 -11,-27 -8,-7 -17,-11 -28,-11l-39 0 0 212c0,6 -2,11 -5,15 -4,3 -8,5 -14,5 -5,0 -10,-2 -13,-5 -4,-3 -6,-8 -6,-15l0 -212zm270 78l116 0 0 -39c0,-11 -4,-20 -11,-28 -7,-7 -17,-11 -28,-11l-39 0c-10,0 -20,3 -27,11 -4,4 -7,8 -9,13 -1,4 -2,9 -2,15l0 39zm0 38l0 39c0,11 3,20 11,27 4,4 8,6 12,9 6,1 11,2 15,2l97 0c5,0 10,2 14,6 3,4 5,9 5,14 0,4 -1,8 -4,12 -4,5 -9,7 -15,7l-96 0c-21,0 -39,-8 -55,-23 -15,-15 -23,-33 -23,-54l0 -116c0,-21 8,-39 23,-55 15,-15 33,-23 55,-23l38 0c21,0 39,8 54,23 16,15 23,33 23,55l0 58c0,13 -6,19 -19,19l-135 0zm424 96c0,6 -1,11 -5,15 -4,3 -8,5 -14,5 -5,0 -9,-2 -13,-5 -4,-3 -6,-8 -6,-15l0 -212 -44 0 -73 218c-1,5 -3,8 -7,11 -1,0 -4,1 -10,3 -5,0 -10,-2 -14,-6 -4,-3 -6,-7 -6,-13l1 -7 77 -231c2,-9 8,-14 18,-14l77 0c13,0 19,7 19,20l0 231zm116 -97l0 78 77 0c12,0 22,-4 29,-11 7,-8 10,-17 10,-28 0,-10 -3,-20 -9,-27 -3,-3 -8,-6 -13,-8 -4,-2 -10,-4 -17,-4l-77 0zm0 -38l77 0c24,0 44,8 58,24 13,15 20,32 20,53 0,21 -7,39 -19,53 -15,17 -34,25 -59,25l-96 0c-13,0 -20,-7 -20,-20l0 -231c0,-5 2,-10 6,-15 4,-3 9,-5 14,-5 5,0 9,2 13,5 4,3 6,8 6,15l0 96zm386 0l0 -96c0,-6 2,-10 6,-15 4,-3 8,-5 13,-5 5,0 10,2 14,5 4,3 6,8 6,15l0 231c0,6 -2,11 -6,15 -3,3 -8,5 -14,5 -5,0 -9,-2 -13,-5 -4,-3 -6,-8 -6,-15l0 -97 -116 0 0 97c0,6 -2,11 -6,15 -3,3 -8,5 -13,5 -5,0 -10,-2 -14,-5 -4,-3 -5,-8 -5,-15l0 -231c0,-5 1,-10 5,-15 4,-3 9,-5 14,-5 5,0 9,2 13,5 4,3 6,8 6,15l0 96 116 0zm309 70c0,23 -9,43 -25,60 -16,16 -37,25 -60,25l-23 0c-23,0 -43,-8 -60,-25 -17,-16 -25,-36 -25,-60l0 -101c0,-22 8,-42 24,-59 17,-17 37,-26 61,-26l23 0c23,0 43,9 59,25 17,16 26,37 26,60l0 101zm-39 0l0 -101c0,-12 -4,-23 -13,-33 -9,-9 -20,-13 -33,-13l-24 0c-12,0 -23,4 -32,13 -9,9 -14,20 -14,33l0 101c0,13 5,24 14,33 9,9 20,13 32,13l24 0c12,0 23,-4 32,-13 10,-9 14,-20 14,-33zm299 67c-10,6 -23,10 -39,14l-21 3 -22 1 -27 -1 -23 -3c-15,-2 -27,-9 -36,-20 -9,-11 -14,-24 -14,-38 0,-8 2,-16 5,-24 4,-8 9,-16 17,-22l123 -85c4,-3 6,-7 6,-12 0,-8 -7,-14 -20,-19 -13,-4 -28,-7 -43,-7 -13,0 -25,1 -34,4 -10,2 -18,5 -25,11 -3,2 -7,3 -11,4 -5,0 -9,-2 -14,-6 -4,-4 -5,-9 -5,-14 0,-6 2,-11 7,-15 8,-6 20,-11 37,-15 7,-2 15,-4 24,-5 8,-1 16,-1 24,-1 6,0 10,0 15,0 5,0 10,0 16,1 6,1 13,2 21,5 14,4 25,11 34,21 9,11 14,23 14,35 0,16 -8,31 -22,44l-124 85c-5,4 -7,9 -7,15 0,4 2,9 5,13 3,4 7,7 13,8l21 2 23 1c14,0 26,-1 35,-3 4,-1 9,-2 14,-4 5,-2 9,-4 14,-7l4 -2c1,0 4,0 6,0 5,0 10,2 14,6 3,4 5,9 5,14 0,6 -3,12 -10,16zm280 -67c0,23 -8,43 -25,60 -16,16 -36,25 -60,25l-23 0c-23,0 -43,-8 -60,-25 -17,-16 -25,-36 -25,-60l0 -101c0,-22 8,-42 25,-59 16,-17 36,-26 60,-26l23 0c23,0 43,9 60,25 16,16 25,37 25,60l0 101zm-39 0l0 -101c0,-12 -4,-23 -13,-33 -9,-9 -20,-13 -33,-13l-23 0c-13,0 -24,4 -33,13 -9,9 -14,20 -14,33l0 101c0,13 5,24 14,33 9,9 20,13 33,13l23 0c12,0 23,-4 33,-13 9,-9 13,-20 13,-33zm502 85l-77 0c-21,0 -39,-8 -55,-23 -15,-15 -23,-33 -23,-54l0 -174c0,-5 2,-10 6,-15 4,-3 8,-5 14,-5 4,0 9,2 13,5 4,3 6,8 6,15l0 174c0,11 3,20 11,27 4,4 8,6 12,9 6,1 11,2 16,2l77 0 0 -212c0,-5 2,-10 6,-15 4,-3 8,-5 13,-5 5,0 10,2 13,5 4,3 6,8 6,15l0 289c0,21 -7,39 -22,55 -15,15 -33,22 -55,22l-77 0c-5,0 -10,-1 -14,-5 -4,-4 -5,-9 -5,-14 0,-5 1,-9 5,-13 3,-4 8,-6 14,-6l77 0c11,0 20,-4 28,-11 7,-7 11,-16 11,-28l0 -38zm270 -155l0 -96c0,-6 2,-10 6,-15 4,-3 8,-5 13,-5 5,0 10,2 14,5 4,3 5,8 5,15l0 231c0,6 -1,11 -5,15 -3,3 -8,5 -14,5 -5,0 -9,-2 -13,-5 -4,-3 -6,-8 -6,-15l0 -97 -77 0c-21,0 -39,-7 -54,-22 -16,-15 -24,-33 -24,-55l0 -57c0,-6 2,-10 6,-15 4,-3 9,-5 14,-5 5,0 9,2 13,5 4,3 6,8 6,15l0 58c0,10 4,20 11,27 4,3 8,6 12,8 6,2 11,3 16,3l77 0zm270 78l0 -155 -77 0c-11,0 -20,3 -28,11 -4,4 -6,8 -8,12 -2,5 -3,10 -3,16l0 116c0,11 4,20 11,27 4,4 8,6 12,9 6,1 11,2 16,2l38 0c11,0 20,-3 28,-10 7,-8 11,-17 11,-28zm19 51c-6,7 -15,14 -25,18 -11,5 -22,8 -33,8l-38 0c-21,0 -39,-8 -54,-23 -16,-15 -23,-33 -23,-54l0 -116c0,-22 7,-40 22,-55 15,-15 33,-23 55,-23l96 0c13,0 20,7 20,20l0 173c0,8 2,16 7,24 4,7 11,13 19,16 8,4 12,10 12,18 0,6 -2,10 -5,14 -4,4 -8,6 -14,6 -3,0 -5,-1 -8,-2 -12,-5 -23,-13 -31,-24zm232 26l-58 0c-21,0 -39,-8 -54,-23 -16,-15 -23,-33 -23,-54l0 -116c0,-22 7,-40 22,-55 15,-15 34,-23 55,-23l58 0c5,0 10,2 14,6 3,4 5,9 5,14 0,4 -1,8 -5,12 -3,5 -8,7 -14,7l-58 0c-11,0 -20,3 -28,11 -4,4 -6,8 -8,12 -2,5 -3,10 -3,16l0 116c0,11 4,20 11,27 4,4 8,6 13,9 5,1 10,2 15,2l58 0c5,0 10,2 14,6 3,4 5,9 5,14 0,4 -1,8 -5,12 -3,5 -8,7 -14,7zm212 -232l-77 0 0 212c0,6 -2,11 -6,15 -3,3 -8,5 -14,5 -5,0 -9,-2 -13,-5 -4,-3 -6,-8 -6,-15l0 -231c0,-13 7,-20 19,-20l174 0c21,0 39,8 54,23 15,15 23,33 23,55l0 173c0,6 -2,11 -6,15 -3,3 -8,5 -13,5 -5,0 -10,-2 -14,-5 -4,-3 -5,-8 -5,-15l0 -174c0,-10 -4,-20 -11,-27 -8,-7 -17,-11 -28,-11l-39 0 0 212c0,6 -2,11 -5,15 -4,3 -8,5 -14,5 -5,0 -10,-2 -13,-5 -4,-3 -6,-8 -6,-15l0 -212zm309 105l-43 46 0 61c0,6 -2,11 -6,15 -3,3 -8,5 -13,5 -5,0 -10,-2 -14,-5 -4,-3 -6,-8 -6,-15l0 -231c0,-5 2,-10 6,-14 4,-4 9,-5 14,-5 4,0 9,1 13,4 4,4 6,9 6,15l0 114 122 -128c4,-4 8,-6 13,-6 4,0 8,2 13,6 4,3 6,8 6,14 0,5 -2,10 -6,15l-78 81 80 123c3,5 4,10 4,13 0,5 -2,10 -6,14 -4,3 -9,5 -14,5 -5,0 -9,-2 -14,-7l-77 -120zm328 50l0 -155 -78 0c-11,0 -20,3 -28,11 -3,4 -6,8 -8,12 -2,5 -3,10 -3,16l0 116c0,11 4,20 11,27 4,4 8,6 13,9 5,1 10,2 15,2l39 0c10,0 20,-3 27,-10 8,-8 12,-17 12,-28zm18 51c-6,7 -14,14 -25,18 -11,5 -22,8 -32,8l-39 0c-21,0 -39,-8 -54,-23 -15,-15 -23,-33 -23,-54l0 -116c0,-22 7,-40 22,-55 16,-15 34,-23 55,-23l97 0c12,0 19,7 19,20l0 173c0,8 2,16 7,24 5,7 11,13 20,16 8,4 12,10 12,18 0,6 -2,10 -6,14 -3,4 -8,6 -14,6 -2,0 -5,-1 -8,-2 -12,-5 -22,-13 -31,-24zm715 -225c0,17 -6,31 -19,43 -11,10 -24,15 -39,15 -16,0 -29,-5 -40,-15 -12,-11 -18,-25 -18,-43l0 -78c0,-17 6,-31 18,-43 11,-10 24,-14 40,-14 15,0 28,4 39,14 13,10 19,25 19,43l0 78zm-155 231c0,5 -2,10 -6,15 -4,3 -8,5 -13,5 -8,0 -14,-4 -18,-10l-156 -282 0 272c0,6 -2,11 -6,15 -3,3 -8,5 -13,5 -5,0 -10,-2 -14,-5 -4,-3 -6,-8 -6,-15l0 -347c0,-5 2,-10 6,-14 4,-4 9,-5 14,-5 7,0 13,3 17,10l156 282 0 -273c0,-5 2,-10 6,-14 4,-4 9,-5 14,-5 5,0 9,1 13,4 4,4 6,9 6,15l0 347zm116 -231l0 -78c0,-5 -2,-10 -6,-15 -4,-2 -8,-4 -13,-4 -5,0 -9,2 -14,5 -4,3 -6,8 -6,14l0 78c0,6 2,11 5,15 4,3 9,4 15,4 4,0 9,-1 13,-5 4,-3 6,-8 6,-14zm540 310l-231 0 0 -38 231 0 0 38zm232 0l-232 0 0 -38 232 0 0 38zm231 0l-231 0 0 -38 231 0 0 38zm232 0l-232 0 0 -38 232 0 0 38zm231 0l-231 0 0 -38 231 0 0 38zm232 0l-232 0 0 -38 232 0 0 38z"/>
   </g>
   <g id="_428641072624">
    <path class="fil5" d="M7873 10719l-1075 -6 6 -228 1076 6 -7 228z"/>
    <path class="fil5" d="M7861 11132l-1075 -5 6 -228 1076 5 -7 228z"/>
    <path class="fil5" d="M7849 11545l-1076 -5 7 -228 1075 5 -6 228z"/>
    <path class="fil5" d="M12825 10743l-4618 -23 6 -228 4618 23 -6 228z"/>
    <path class="fil5" d="M12812 11156l-4617 -23 6 -227 4618 22 -7 228z"/>
    <path class="fil5" d="M12800 11569l-4618 -22 7 -228 4618 22 -7 228z"/>
    <path class="fil5" d="M7832 12106l-1075 -5 7 -228 1075 5 -7 228z"/>
    <path class="fil5" d="M7820 12519l-1075 -5 6 -228 1076 6 -7 227z"/>
    <path class="fil5" d="M7808 12933l-1076 -5 7 -228 1076 5 -7 228z"/>
    <path class="fil5" d="M12783 12130l-4617 -22 7 -228 4617 22 -7 228z"/>
    <path class="fil5" d="M12771 12543l-4617 -22 7 -228 4617 23 -7 227z"/>
    <path class="fil5" d="M12759 12957l-4617 -22 6 -228 4618 22 -7 228z"/>
    <path class="fil5" d="M9936 8409l-7 228 2862 14 7 -228 -2862 -14z"/>
    <path class="fil5" d="M9923 8822l-6 228 2862 14 7 -228 -2863 -14z"/>
    <path class="fil5" d="M9911 9236l-6 228 2862 13 7 -227 -2863 -14z"/>
    <path class="fil5" d="M9899 9649l-7 228 2863 14 6 -228 -2862 -14z"/>
    <path class="fil6" d="M12448 8087l-2143 -11 27 -906 2143 11 -27 906z"/>
    <path class="fil6" d="M9383 10092l-2432 0 72 -2808 2432 0 -72 2808z"/>
    <path class="fil7" d="M8577 8598c-21,172 -21,404 2,552 14,92 208,262 151,333 -91,110 -473,101 -558,101 -87,0 -397,2 -467,-113 -43,-69 128,-231 130,-321 3,-120 46,-326 18,-505 -16,-108 271,72 341,72 62,-1 395,-224 383,-119z"/>
    <path class="fil7" d="M7813 8482c-1,41 -32,75 -68,75l0 0c-37,0 -54,-14 -50,-171l-20 -101c2,-70 51,17 88,17l20 0c36,0 35,2 34,43l-4 137z"/>
    <path class="fil7" d="M8555 8483c0,41 28,74 65,74l0 0c37,0 54,-14 58,-171l26 -101c1,-70 -52,17 -89,17l-19 0c-38,0 -36,2 -37,43l-4 138z"/>
    <path class="fil8" d="M8579 9150c-23,-148 -22,-380 -2,-552 12,-105 -321,118 -383,119 -70,0 -357,-180 -341,-72 12,75 11,154 6,230l494 780c97,-14 339,-126 377,-172 57,-71 -137,-241 -151,-333z"/>
    <path class="fil7" d="M7875 7920c-88,83 -67,281 -71,418l-6 238c-2,69 -8,149 15,208 42,107 153,212 252,252 40,16 73,-10 118,-11l25 -1135c-99,-2 -263,-34 -333,30z"/>
    <path class="fil9" d="M8602 8338c4,-152 31,-350 -69,-431 -64,-52 -233,-17 -318,-17 -3,-1 -10,-1 -12,0l-25 1135c1,0 7,0 8,0 46,0 130,25 172,8 83,-89 144,-126 217,-238 26,-58 19,-150 21,-219l6 -238z"/>
    <path class="fil10" d="M7728 7889c-7,17 -15,35 -20,52 -23,75 -13,147 11,217 23,67 50,132 51,206 0,38 21,60 45,85 -3,-45 -7,-84 -9,-124 -2,-52 7,-100 43,-137 24,-23 30,-50 27,-83 -2,-16 -4,-33 -5,-49 -6,-76 19,-120 86,-136 46,-10 95,-12 143,-11 108,0 217,4 325,6 11,1 20,0 30,1 46,5 75,36 79,89 1,18 1,39 -4,56 -18,60 -5,110 30,156 27,36 38,81 34,129 -3,34 -7,69 -11,103 2,1 5,2 7,3 10,-23 23,-45 29,-70 13,-54 22,-110 35,-165 21,-97 37,-194 25,-293 -12,-85 -64,-199 -156,-194 3,6 -51,40 -58,24 -19,-47 -82,-62 -131,-75 -93,-22 -187,-6 -283,-10 -242,-9 -313,197 -323,220z"/>
    <path class="fil11" d="M8416 10092l72 -297 102 -431c-14,46 -14,-219 -14,-219 -10,7 -403,284 -413,291 7,6 7,308 4,656l249 0z"/>
    <path class="fil11" d="M7938 10092l238 0c12,-358 24,-671 32,-677 -11,-7 -364,-266 -374,-274 0,0 -22,270 -32,223l79 431 57 297z"/>
    <path class="fil12" d="M8722 9490l-86 123 -26 -14 112 -109z"/>
    <path class="fil13" d="M8391 10092l987 0c-97,-266 -113,-409 -110,-516 1,-33 -345,-73 -571,-306l-122 -147c2,19 -68,466 -68,466l-116 503z"/>
    <path class="fil14" d="M8196 9411l-144 274 147 301 131 -305 -113 -270 -21 0z"/>
    <path class="fil12" d="M7837 9128l173 637 188 -356 -361 -281z"/>
    <path class="fil12" d="M8577 9128l-206 637 -169 -356 375 -281z"/>
    <path class="fil14" d="M8259 10092l-59 -528 -90 528 149 0z"/>
    <path class="fil15" d="M8730 10092l60 -137 -176 -101 229 -192 -133 -381 -136 -157 -189 968 345 0z"/>
    <path class="fil13" d="M7121 10092c-19,-224 -19,-399 -19,-399 -53,151 -101,283 -145,399l164 0z"/>
    <path class="fil13" d="M7967 10092l-60 -478c0,0 -72,-484 -69,-504l-86 118c-323,374 -626,285 -633,374 -2,17 -78,235 -143,490l991 0z"/>
    <path class="fil15" d="M7579 9955l53 137 346 0 -140 -980 -154 197 -143 353 220 193 -182 100z"/>
   </g>
   <g id="_428641072528">
    <path class="fil4 str1" d="M6806 13755l-121 0c-26,0 -48,-9 -68,-28 -19,-19 -28,-41 -28,-68l0 -290c0,-27 9,-50 28,-68 19,-19 41,-28 68,-28l121 0c7,0 12,2 17,7 5,5 7,10 7,17 0,5 -2,10 -6,16 -4,5 -10,8 -18,8l-121 0c-13,0 -25,4 -34,13 -5,5 -8,10 -11,16 -2,6 -3,12 -3,19l0 290c0,13 4,25 14,34 4,5 10,8 15,11 7,2 13,3 19,3l121 0c7,0 12,3 17,8 5,4 7,10 7,16 0,6 -2,11 -6,16 -4,6 -10,8 -18,8zm292 -96l0 -145c0,-13 -5,-25 -14,-34 -9,-9 -20,-14 -34,-14l-49 0c-14,0 -25,4 -34,14 -5,4 -9,9 -11,15 -2,6 -3,12 -3,19l0 145c0,14 4,25 14,34 4,5 10,8 15,11 7,2 13,3 19,3l49 0c13,0 24,-4 34,-13 9,-9 14,-21 14,-35zm-145 -224l19 -13 29 -20c9,-8 16,-14 20,-18 6,-8 9,-16 9,-24 0,-11 -4,-20 -12,-28 -7,-7 -16,-10 -27,-10 -10,0 -19,3 -27,10 -8,6 -11,16 -11,28l0 75zm96 -16c31,0 55,9 73,28 16,17 24,40 24,67l0 145c0,26 -9,49 -28,68 -19,19 -42,28 -69,28l-48 0c-26,0 -48,-9 -68,-28 -19,-18 -28,-41 -28,-68l0 -299c0,-27 9,-49 26,-65 17,-15 37,-22 61,-22 22,0 42,7 60,22 17,15 26,37 26,64 0,16 -2,28 -7,36 -3,8 -11,16 -22,24zm241 144l146 0 0 -49c0,-14 -5,-25 -14,-35 -9,-9 -21,-14 -35,-14l-48 0c-14,0 -25,5 -35,14 -4,5 -8,10 -10,16 -3,6 -4,12 -4,19l0 49zm0 48l0 48c0,13 5,25 14,34 5,5 10,8 16,11 6,2 13,3 19,3l120 0c7,0 13,3 18,8 4,4 7,10 7,16 0,6 -2,11 -6,16 -4,6 -11,8 -19,8l-120 0c-26,0 -49,-9 -68,-28 -19,-19 -29,-41 -29,-68l0 -145c0,-26 10,-49 28,-68 19,-19 42,-29 69,-29l48 0c26,0 49,10 68,28 19,19 29,42 29,69l0 72c0,16 -8,25 -25,25l-169 0zm483 -146l-97 0c-13,0 -25,5 -34,14 -5,5 -8,10 -11,16 -2,6 -3,12 -3,19l0 145c0,13 4,25 14,34 5,5 10,8 15,11 7,2 14,3 19,3l49 0c13,0 25,-4 34,-13 10,-9 14,-21 14,-35l0 -194zm0 -48l0 -48c0,-14 -4,-25 -13,-34 -9,-10 -21,-14 -35,-14l-97 0c-7,0 -13,-3 -18,-7 -4,-5 -6,-11 -6,-17 0,-6 2,-11 6,-17 4,-5 10,-7 18,-7l97 0c27,0 49,9 68,28 19,19 28,41 28,68l0 290c0,26 -9,49 -28,68 -19,19 -42,28 -68,28l-49 0c-26,0 -48,-9 -67,-28 -19,-18 -29,-41 -29,-68l0 -145c0,-27 9,-50 28,-69 19,-18 42,-28 69,-28l96 0zm192 146l146 0 0 -49c0,-14 -5,-25 -14,-35 -9,-9 -21,-14 -35,-14l-48 0c-14,0 -25,5 -35,14 -4,5 -8,10 -10,16 -2,6 -4,12 -4,19l0 49zm0 48l0 48c0,13 5,25 14,34 5,5 10,8 16,11 7,2 13,3 19,3l121 0c6,0 12,3 17,8 4,4 7,10 7,16 0,6 -2,11 -6,16 -4,6 -10,8 -18,8l-121 0c-26,0 -49,-9 -68,-28 -19,-19 -29,-41 -29,-68l0 -145c0,-26 10,-49 28,-68 19,-19 42,-29 69,-29l48 0c26,0 49,10 68,28 19,19 29,42 29,69l0 72c0,16 -8,25 -24,25l-170 0zm483 -49l0 -121c0,-6 3,-12 8,-18 4,-4 10,-6 16,-6 7,0 12,2 17,6 5,4 7,10 7,18l0 290c0,8 -2,14 -6,18 -5,4 -11,6 -18,6 -6,0 -12,-2 -16,-6 -5,-4 -8,-10 -8,-18l0 -121 -145 0 0 121c0,8 -2,14 -7,18 -4,4 -10,6 -17,6 -6,0 -12,-2 -17,-6 -5,-4 -7,-10 -7,-18l0 -290c0,-6 2,-12 7,-18 5,-4 11,-6 17,-6 6,0 12,2 17,6 5,4 7,10 7,18l0 121 145 0zm386 169c0,16 -8,24 -24,24l-121 0c-26,0 -48,-9 -67,-28 -20,-18 -29,-41 -29,-68l0 -218c0,-6 2,-12 7,-18 5,-4 10,-6 17,-6 6,0 11,2 16,6 5,4 8,10 8,18l0 218c0,13 4,25 14,34 4,5 10,8 15,11 7,2 13,3 19,3l97 0 0 -266c0,-6 2,-12 7,-18 5,-4 11,-6 17,-6 6,0 12,2 17,6 5,4 7,10 7,18l0 290zm290 -168l0 -98 -97 0c-14,0 -26,5 -36,15 -9,9 -13,21 -13,34 0,12 5,23 13,33 8,11 20,16 36,16l97 0zm-60 48l-89 133c-2,3 -5,6 -10,9l-10 2c-5,0 -11,-2 -17,-7 -5,-5 -8,-11 -8,-17 0,-4 2,-9 4,-14l72 -108c-23,-3 -42,-14 -55,-33 -14,-19 -21,-40 -21,-62 0,-26 8,-48 24,-66 19,-21 43,-31 73,-31l121 0c16,0 24,8 24,24l0 290c0,8 -3,14 -7,18 -5,4 -10,6 -17,6 -7,0 -12,-2 -17,-6 -5,-4 -7,-10 -7,-18l0 -120 -60 0zm735 38c0,29 -11,54 -31,75 -21,21 -46,31 -76,31l-28 0c-29,0 -54,-10 -75,-30 -21,-21 -32,-46 -32,-76l0 -126c0,-28 11,-53 31,-74 21,-21 46,-32 76,-32l28 0c29,0 54,10 75,31 21,21 32,46 32,75l0 126zm-48 0l0 -126c0,-16 -6,-29 -17,-41 -11,-11 -25,-17 -41,-17l-30 0c-15,0 -29,6 -41,17 -11,11 -17,25 -17,41l0 126c0,16 6,30 17,41 12,11 25,17 41,17l30 0c15,0 29,-5 40,-16 12,-11 18,-25 18,-42zm627 -87l0 -121c0,-6 2,-12 7,-18 5,-4 10,-6 17,-6 6,0 11,2 16,6 5,4 8,10 8,18l0 290c0,8 -3,14 -7,18 -5,4 -10,6 -17,6 -7,0 -12,-2 -17,-6 -5,-4 -7,-10 -7,-18l0 -121 -146 0 0 121c0,8 -2,14 -6,18 -5,4 -11,6 -18,6 -6,0 -12,-2 -16,-6 -5,-4 -8,-10 -8,-18l0 -290c0,-6 3,-12 8,-18 4,-4 10,-6 16,-6 6,0 12,2 17,6 5,4 7,10 7,18l0 121 146 0zm192 1l145 0 0 -49c0,-14 -4,-25 -13,-35 -10,-9 -21,-14 -35,-14l-49 0c-13,0 -25,5 -34,14 -5,5 -8,10 -11,16 -2,6 -3,12 -3,19l0 49zm0 48l0 48c0,13 5,25 14,34 5,5 10,8 15,11 7,2 13,3 19,3l121 0c7,0 12,3 17,8 5,4 7,10 7,16 0,6 -2,11 -6,16 -4,6 -10,8 -18,8l-121 0c-26,0 -48,-9 -67,-28 -20,-19 -29,-41 -29,-68l0 -145c0,-26 9,-49 28,-68 19,-19 41,-29 68,-29l49 0c26,0 49,10 68,28 19,19 28,42 28,69l0 72c0,16 -8,25 -24,25l-169 0zm459 144l-73 0c-26,0 -48,-9 -68,-28 -19,-18 -28,-41 -28,-68l0 -145c0,-27 9,-50 28,-69 19,-18 42,-28 68,-28l73 0c6,0 12,3 17,8 4,4 7,10 7,16 0,6 -2,11 -6,16 -4,6 -10,8 -18,8l-73 0c-14,0 -25,5 -35,14 -4,5 -8,10 -10,16 -2,6 -3,12 -3,19l0 145c0,13 4,25 13,34 5,5 10,8 16,11 7,2 13,3 19,3l73 0c6,0 12,3 17,8 4,4 7,10 7,16 0,6 -2,11 -6,16 -4,6 -10,8 -18,8zm313 -193l0 -121c0,-6 3,-12 7,-18 5,-4 11,-6 17,-6 6,0 12,2 17,6 5,4 7,10 7,18l0 290c0,8 -2,14 -7,18 -4,4 -10,6 -17,6 -6,0 -12,-2 -17,-6 -4,-4 -7,-10 -7,-18l0 -121 -145 0 0 121c0,8 -2,14 -7,18 -4,4 -10,6 -17,6 -6,0 -12,-2 -17,-6 -5,-4 -7,-10 -7,-18l0 -290c0,-6 2,-12 7,-18 5,-4 11,-6 17,-6 6,0 12,2 17,6 4,4 7,10 7,18l0 121 145 0zm338 1l0 -98 -97 0c-14,0 -26,5 -36,15 -8,9 -12,21 -12,34 0,12 4,23 12,33 9,11 21,16 36,16l97 0zm-59 48l-90 133c-2,3 -5,6 -9,9l-11 2c-5,0 -11,-2 -17,-7 -5,-5 -7,-11 -7,-17 0,-4 1,-9 3,-14l73 -108c-24,-3 -43,-14 -56,-33 -14,-19 -20,-40 -20,-62 0,-26 8,-48 24,-66 18,-21 42,-31 72,-31l121 0c16,0 24,8 24,24l0 290c0,8 -2,14 -7,18 -4,4 -10,6 -17,6 -6,0 -12,-2 -17,-6 -5,-4 -7,-10 -7,-18l0 -120 -59 0zm348 -146l-97 0 0 266c0,8 -2,14 -7,18 -4,4 -10,6 -17,6 -6,0 -12,-2 -17,-6 -4,-4 -7,-10 -7,-18l0 -290c0,-16 8,-24 24,-24l217 0c26,0 49,10 68,28 19,19 28,42 28,69l0 217c0,8 -2,14 -6,18 -5,4 -10,6 -18,6 -6,0 -12,-2 -16,-6 -5,-4 -8,-10 -8,-18l0 -217c0,-14 -4,-25 -13,-35 -9,-9 -21,-14 -35,-14l-48 0 0 266c0,8 -2,14 -7,18 -4,4 -10,6 -17,6 -7,0 -12,-2 -17,-6 -5,-4 -7,-10 -7,-18l0 -266zm531 184c0,29 -11,54 -31,75 -21,21 -46,31 -76,31l-29 0c-28,0 -53,-10 -74,-30 -21,-21 -32,-46 -32,-76l0 -126c0,-28 11,-53 31,-74 21,-21 46,-32 75,-32l29 0c29,0 54,10 75,31 21,21 32,46 32,75l0 126zm-48 0l0 -126c0,-16 -6,-29 -17,-41 -11,-11 -25,-17 -42,-17l-29 0c-16,0 -29,6 -41,17 -11,11 -17,25 -17,41l0 126c0,16 6,30 17,41 11,11 25,17 41,17l29 0c16,0 30,-5 41,-16 12,-11 18,-25 18,-42zm313 -328l-97 0c-7,0 -13,-3 -18,-7 -4,-5 -6,-11 -6,-17 0,-6 2,-11 6,-17 4,-5 10,-7 18,-7l97 0c6,0 12,2 17,7 4,5 7,10 7,17 0,5 -2,10 -6,16 -4,5 -10,8 -18,8zm72 410c0,16 -8,24 -24,24l-121 0c-26,0 -48,-9 -67,-28 -20,-18 -29,-41 -29,-68l0 -217c0,-7 2,-13 7,-18 5,-4 10,-6 17,-6 6,0 12,2 16,6 5,4 8,10 8,18l0 217c0,14 4,25 14,34 5,5 10,8 15,11 7,2 13,3 19,3l97 0 0 -265c0,-7 3,-13 7,-18 5,-4 11,-6 17,-6 6,0 12,2 17,6 5,4 7,10 7,18l0 289zm-5222 772c0,16 -8,24 -24,24l-121 0c-26,0 -48,-9 -67,-28 -20,-18 -29,-41 -29,-68l0 -218c0,-6 2,-12 7,-18 5,-4 10,-6 17,-6 6,0 11,2 16,6 5,4 8,10 8,18l0 218c0,13 4,25 14,34 4,5 10,8 15,11 7,2 13,3 19,3l97 0 0 -266c0,-6 2,-12 7,-18 5,-4 11,-6 17,-6 6,0 12,2 17,6 5,4 7,10 7,18l0 290zm579 -169l0 -121c0,-6 2,-12 7,-18 5,-4 11,-6 17,-6 6,0 12,2 17,6 5,4 7,10 7,18l0 290c0,8 -2,14 -7,18 -4,4 -10,6 -17,6 -6,0 -12,-2 -17,-6 -5,-4 -7,-10 -7,-18l0 -121 -145 0 0 121c0,8 -3,14 -7,18 -4,4 -10,6 -17,6 -7,0 -12,-2 -17,-6 -5,-4 -7,-10 -7,-18l0 -290c0,-6 2,-12 7,-18 5,-4 10,-6 17,-6 6,0 12,2 16,6 5,4 8,10 8,18l0 121 145 0zm192 1l146 0 0 -49c0,-14 -5,-25 -14,-35 -9,-9 -21,-14 -35,-14l-48 0c-14,0 -25,5 -35,14 -4,5 -8,10 -10,16 -2,6 -4,12 -4,19l0 49zm0 48l0 48c0,13 5,25 14,34 5,5 10,8 16,11 7,2 13,3 19,3l121 0c6,0 12,3 17,8 4,4 7,10 7,16 0,6 -2,11 -6,16 -4,6 -10,8 -18,8l-121 0c-26,0 -49,-9 -68,-28 -19,-19 -29,-41 -29,-68l0 -145c0,-26 10,-49 28,-68 19,-19 42,-29 69,-29l48 0c26,0 49,10 68,28 19,19 29,42 29,69l0 72c0,16 -8,25 -24,25l-170 0zm531 120c0,8 -2,14 -7,18 -4,4 -10,6 -17,6 -6,0 -12,-2 -17,-6 -4,-4 -7,-10 -7,-18l0 -217c0,-14 -4,-25 -13,-35 -10,-9 -21,-14 -35,-14l-97 0 0 266c0,8 -2,14 -7,18 -4,4 -10,6 -17,6 -6,0 -12,-2 -17,-6 -5,-4 -7,-10 -7,-18l0 -290c0,-16 8,-24 24,-24l121 0c25,0 48,10 67,28 20,18 29,41 29,69l0 217zm338 -82c0,29 -10,54 -31,75 -21,21 -46,31 -75,31l-29 0c-29,0 -54,-10 -75,-30 -21,-21 -31,-46 -31,-76l0 -126c0,-28 10,-53 31,-74 20,-21 45,-32 75,-32l29 0c28,0 53,10 74,31 21,21 32,46 32,75l0 126zm-48 0l0 -126c0,-16 -6,-29 -17,-41 -11,-11 -25,-17 -41,-17l-29 0c-16,0 -30,6 -41,17 -12,11 -17,25 -17,41l0 126c0,16 5,30 16,41 12,11 26,17 42,17l29 0c15,0 29,-5 41,-16 11,-11 17,-25 17,-42zm373 84c-12,7 -29,13 -48,18l-26 4 -29 0 -33 0 -29 -5c-18,-2 -33,-11 -44,-25 -12,-14 -18,-29 -18,-47 0,-10 2,-20 7,-30 4,-10 10,-20 20,-28l154 -105c5,-5 8,-10 8,-15 0,-10 -9,-18 -25,-24 -17,-6 -35,-9 -55,-9 -16,0 -30,2 -42,4 -12,3 -23,8 -30,14 -5,3 -10,5 -15,5 -5,0 -11,-2 -17,-7 -5,-5 -7,-11 -7,-18 0,-7 3,-13 10,-18 10,-8 25,-14 45,-19 10,-3 20,-5 30,-6 11,-1 21,-2 31,-2 6,0 13,0 18,0 6,1 13,1 20,2 8,1 16,3 26,6 18,5 32,14 43,27 12,13 17,28 17,43 0,20 -9,38 -28,55l-154 106c-6,5 -8,11 -8,18 0,6 2,12 5,17 4,5 10,8 17,10l26 3 29 1c18,0 32,-1 44,-4 5,-1 10,-2 17,-5 6,-2 12,-5 18,-8l4 -2c2,-1 5,-2 8,-2 6,0 12,3 17,8 4,5 7,11 7,18 0,8 -5,15 -13,20zm302 -74l0 -194 -97 0c-13,0 -25,5 -34,14 -5,5 -8,10 -11,16 -2,6 -3,12 -3,19l0 145c0,13 4,25 14,34 4,5 10,8 15,11 7,2 13,3 19,3l49 0c13,0 24,-4 34,-13 9,-9 14,-21 14,-35zm24 64c-8,9 -19,17 -32,23 -14,6 -27,9 -40,9l-49 0c-26,0 -48,-9 -67,-28 -20,-18 -29,-41 -29,-68l0 -145c0,-27 9,-50 28,-69 19,-18 42,-28 68,-28l121 0c16,0 24,8 24,24l0 217c0,10 3,20 9,30 6,9 14,16 24,21 10,4 16,11 16,21 0,8 -3,13 -7,18 -5,5 -10,7 -17,7 -4,0 -7,-1 -10,-2 -16,-6 -29,-16 -39,-30zm313 -16l97 0 0 -266c0,-6 2,-12 7,-18 5,-4 10,-6 17,-6 6,0 11,2 16,6 5,4 8,10 8,18l0 290c0,16 -8,24 -24,24l-217 0c-26,0 -49,-9 -68,-28 -19,-18 -29,-41 -29,-68l0 -218c0,-6 3,-12 8,-18 4,-4 10,-6 16,-6 7,0 12,2 17,6 5,4 7,10 7,18l0 218c0,13 5,25 14,34 5,5 10,8 16,11 7,2 13,3 19,3l48 0 0 -266c0,-6 2,-12 7,-18 5,-4 11,-6 17,-6 6,0 12,2 17,6 5,4 7,10 7,18l0 266zm289 -144l146 0 0 -49c0,-14 -5,-25 -14,-35 -9,-9 -21,-14 -35,-14l-48 0c-14,0 -25,5 -35,14 -4,5 -8,10 -10,16 -2,6 -4,12 -4,19l0 49zm0 48l0 48c0,13 5,25 14,34 5,5 10,8 16,11 7,2 13,3 19,3l121 0c6,0 12,3 17,8 4,4 7,10 7,16 0,6 -2,11 -6,16 -4,6 -10,8 -18,8l-121 0c-26,0 -49,-9 -68,-28 -19,-19 -29,-41 -29,-68l0 -145c0,-26 10,-49 28,-68 19,-19 42,-29 69,-29l48 0c26,0 49,10 68,28 19,19 29,42 29,69l0 72c0,16 -8,25 -24,25l-170 0z"/>
    <path class="fil4 str1" d="M10991 14334l0 -121c0,-6 3,-12 8,-18 4,-4 10,-6 16,-6 6,0 12,2 17,6 5,4 7,10 7,18l0 290c0,8 -2,14 -6,18 -5,4 -11,6 -18,6 -6,0 -12,-2 -16,-6 -5,-4 -8,-10 -8,-18l0 -121 -145 0 0 121c0,8 -2,14 -7,18 -4,4 -10,6 -17,6 -6,0 -12,-2 -17,-6 -5,-4 -7,-10 -7,-18l0 -290c0,-6 2,-12 7,-18 5,-4 11,-6 17,-6 6,0 12,2 17,6 5,4 7,10 7,18l0 121 145 0zm338 0l0 -121c0,-6 2,-12 7,-18 5,-4 11,-6 17,-6 6,0 12,2 17,6 5,4 7,10 7,18l0 290c0,8 -2,14 -7,18 -4,4 -10,6 -17,6 -6,0 -12,-2 -17,-6 -5,-4 -7,-10 -7,-18l0 -121 -145 0 0 121c0,8 -3,14 -7,18 -5,4 -10,6 -17,6 -7,0 -12,-2 -17,-6 -5,-4 -7,-10 -7,-18l0 -290c0,-6 2,-12 7,-18 5,-4 10,-6 17,-6 6,0 11,2 16,6 5,4 8,10 8,18l0 121 145 0zm386 87c0,29 -11,54 -31,75 -21,21 -46,31 -76,31l-29 0c-28,0 -53,-10 -74,-30 -21,-21 -32,-46 -32,-76l0 -126c0,-28 11,-53 31,-74 21,-21 46,-32 75,-32l29 0c29,0 54,10 75,31 21,21 32,46 32,75l0 126zm-48 0l0 -126c0,-16 -6,-29 -17,-41 -11,-11 -25,-17 -41,-17l-30 0c-16,0 -29,6 -41,17 -11,11 -17,25 -17,41l0 126c0,16 6,30 17,41 11,11 25,17 41,17l30 0c15,0 29,-5 40,-16 12,-11 18,-25 18,-42zm313 -328l-97 0c-7,0 -13,-3 -18,-7 -4,-5 -6,-11 -6,-17 0,-6 2,-11 6,-17 4,-5 10,-7 18,-7l97 0c6,0 12,2 17,7 5,5 7,10 7,17 0,5 -2,10 -6,16 -4,5 -10,8 -18,8zm72 410c0,16 -8,24 -24,24l-121 0c-26,0 -48,-9 -67,-28 -19,-18 -29,-41 -29,-68l0 -217c0,-7 2,-13 7,-18 5,-4 11,-6 17,-6 6,0 12,2 16,6 5,4 8,10 8,18l0 217c0,14 4,25 14,34 5,5 10,8 15,11 7,2 14,3 19,3l97 0 0 -265c0,-7 3,-13 7,-18 5,-4 11,-6 17,-6 6,0 12,2 17,6 5,4 7,10 7,18l0 289zm-5365 796l-73 0c-26,0 -48,-9 -67,-28 -20,-18 -29,-41 -29,-68l0 -145c0,-27 9,-50 28,-69 19,-18 42,-28 68,-28l73 0c7,0 12,3 17,8 5,4 7,10 7,16 0,6 -2,11 -6,16 -4,6 -10,8 -18,8l-73 0c-13,0 -25,5 -34,14 -5,5 -8,10 -11,16 -2,6 -3,12 -3,19l0 145c0,13 4,25 14,34 5,5 10,8 15,11 7,2 13,3 19,3l73 0c7,0 12,3 17,8 5,4 7,10 7,16 0,6 -2,11 -6,16 -4,6 -10,8 -18,8zm314 0l-97 0c-26,0 -49,-9 -68,-28 -19,-18 -29,-41 -29,-68l0 -218c0,-6 3,-12 7,-18 5,-4 11,-6 17,-6 6,0 12,2 17,6 5,4 7,10 7,18l0 218c0,13 5,25 14,34 5,5 10,8 16,11 7,2 13,3 19,3l97 0 0 -266c0,-6 2,-12 7,-18 5,-4 10,-6 17,-6 6,0 11,2 16,6 5,4 8,10 8,18l0 362c0,27 -10,49 -29,68 -18,19 -41,29 -68,29l-97 0c-5,0 -11,-2 -17,-7 -5,-5 -7,-11 -7,-17 0,-6 2,-12 6,-17 4,-5 10,-7 19,-7l96 0c14,0 25,-5 35,-14 9,-9 14,-20 14,-34l0 -49zm337 -290l-97 0c-13,0 -25,5 -34,14 -5,5 -8,10 -11,16 -2,6 -3,12 -3,19l0 145c0,13 4,25 14,34 5,5 10,8 15,11 7,2 14,3 19,3l49 0c13,0 25,-4 34,-13 9,-9 14,-21 14,-35l0 -194zm0 -48l0 -48c0,-14 -4,-25 -13,-34 -10,-10 -21,-14 -35,-14l-97 0c-7,0 -13,-3 -18,-7 -4,-5 -6,-11 -6,-17 0,-6 2,-11 6,-17 4,-5 10,-7 18,-7l97 0c27,0 49,9 68,28 19,19 28,41 28,68l0 290c0,26 -9,49 -28,68 -19,19 -42,28 -68,28l-49 0c-26,0 -48,-9 -67,-28 -20,-18 -29,-41 -29,-68l0 -145c0,-27 9,-50 28,-69 19,-18 42,-28 69,-28l96 0zm386 314c0,16 -8,24 -24,24l-121 0c-26,0 -49,-9 -68,-28 -19,-18 -29,-41 -29,-68l0 -218c0,-6 3,-12 8,-18 4,-4 10,-6 16,-6 7,0 12,2 17,6 5,4 7,10 7,18l0 218c0,13 5,25 14,34 5,5 10,8 16,11 7,2 13,3 19,3l97 0 0 -266c0,-6 2,-12 7,-18 5,-4 10,-6 17,-6 6,0 12,2 16,6 5,4 8,10 8,18l0 290zm385 0l0 -289c0,-9 -2,-16 -6,-21 -4,-5 -9,-7 -15,-7 -7,0 -15,4 -22,13l-101 142 -101 -142c-7,-9 -14,-13 -23,-13 -5,0 -10,2 -15,7 -4,5 -6,12 -6,21l0 289c0,8 2,14 7,18 4,4 10,6 17,6 6,0 11,-2 16,-6 5,-4 8,-10 8,-18l0 -214 77 108c6,8 13,12 20,12 6,0 13,-4 19,-12l77 -108 0 214c0,8 3,14 7,18 5,4 10,6 17,6 6,0 12,-2 17,-6 5,-4 7,-10 7,-18zm338 -82c0,29 -10,54 -31,75 -20,21 -45,31 -75,31l-29 0c-29,0 -54,-10 -75,-30 -21,-21 -31,-46 -31,-76l0 -126c0,-28 10,-53 31,-74 21,-21 46,-32 75,-32l29 0c29,0 54,10 75,31 21,21 31,46 31,75l0 126zm-48 0l0 -126c0,-16 -5,-29 -17,-41 -11,-11 -25,-17 -41,-17l-29 0c-16,0 -30,6 -41,17 -11,11 -17,25 -17,41l0 126c0,16 6,30 17,41 11,11 25,17 41,17l29 0c16,0 29,-5 41,-16 11,-11 17,-25 17,-42zm313 106l-72 0c-26,0 -49,-9 -68,-28 -19,-18 -29,-41 -29,-68l0 -145c0,-27 10,-50 29,-69 19,-18 41,-28 68,-28l72 0c7,0 13,3 18,8 4,4 7,10 7,16 0,6 -2,11 -6,16 -4,6 -10,8 -19,8l-72 0c-14,0 -25,5 -35,14 -4,5 -8,10 -10,16 -2,6 -4,12 -4,19l0 145c0,13 5,25 14,34 5,5 10,8 16,11 7,2 13,3 19,3l72 0c7,0 13,3 18,8 4,4 7,10 7,16 0,6 -2,11 -6,16 -4,6 -10,8 -19,8zm266 -290l-97 0 0 266c0,8 -2,14 -7,18 -4,4 -10,6 -17,6 -6,0 -12,-2 -17,-6 -5,-4 -7,-10 -7,-18l0 -290c0,-16 8,-24 24,-24l217 0c26,0 49,10 68,28 19,19 28,42 28,69l0 217c0,8 -2,14 -7,18 -4,4 -10,6 -17,6 -6,0 -12,-2 -17,-6 -4,-4 -7,-10 -7,-18l0 -217c0,-14 -4,-25 -13,-35 -10,-9 -21,-14 -35,-14l-48 0 0 266c0,8 -3,14 -7,18 -5,4 -10,6 -17,6 -7,0 -12,-2 -17,-6 -5,-4 -7,-10 -7,-18l0 -266zm530 266c0,16 -8,24 -24,24l-121 0c-26,0 -48,-9 -67,-28 -19,-18 -29,-41 -29,-68l0 -218c0,-6 2,-12 7,-18 5,-4 11,-6 17,-6 6,0 12,2 17,6 4,4 7,10 7,18l0 218c0,13 4,25 14,34 5,5 10,8 15,11 7,2 14,3 19,3l97 0 0 -266c0,-6 3,-12 7,-18 5,-4 11,-6 17,-6 6,0 12,2 17,6 5,4 7,10 7,18l0 290zm483 -134l-54 57 0 77c0,8 -2,14 -7,18 -4,4 -10,6 -17,6 -6,0 -12,-2 -17,-6 -5,-4 -7,-10 -7,-18l0 -289c0,-7 2,-13 7,-18 5,-4 11,-6 17,-6 6,0 12,2 17,6 5,4 7,10 7,18l0 142 153 -160c4,-5 9,-7 16,-7 5,0 10,2 17,7 4,5 7,11 7,18 0,7 -3,13 -8,18l-97 102 99 153c4,7 6,12 6,17 0,7 -3,12 -8,17 -5,5 -11,7 -17,7 -6,0 -12,-3 -17,-9l-97 -150zm409 62l0 -194 -96 0c-14,0 -26,5 -35,14 -5,5 -8,10 -11,16 -2,6 -3,12 -3,19l0 145c0,13 5,25 14,34 5,5 10,8 15,11 7,2 14,3 20,3l48 0c13,0 25,-4 34,-13 10,-9 14,-21 14,-35zm24 64c-8,9 -18,17 -32,23 -13,6 -27,9 -40,9l-48 0c-26,0 -49,-9 -68,-28 -19,-18 -29,-41 -29,-68l0 -145c0,-27 10,-50 28,-69 19,-18 42,-28 69,-28l120 0c16,0 24,8 24,24l0 217c0,10 3,20 10,30 5,9 13,16 24,21 10,4 15,11 15,21 0,8 -3,13 -7,18 -4,5 -10,7 -17,7 -4,0 -7,-1 -10,-2 -16,-6 -29,-16 -39,-30zm314 -161l0 -121c0,-6 2,-12 7,-18 5,-4 11,-6 17,-6 6,0 12,2 17,6 5,4 7,10 7,18l0 290c0,8 -2,14 -7,18 -4,4 -10,6 -17,6 -6,0 -12,-2 -17,-6 -5,-4 -7,-10 -7,-18l0 -121 -145 0 0 121c0,8 -3,14 -7,18 -4,4 -10,6 -17,6 -7,0 -12,-2 -17,-6 -5,-4 -7,-10 -7,-18l0 -290c0,-6 2,-12 7,-18 5,-4 10,-6 17,-6 6,0 11,2 16,6 5,4 8,10 8,18l0 121 145 0zm338 -97l-97 0c-14,0 -25,5 -35,14 -4,5 -8,10 -10,16 -3,6 -4,12 -4,19l0 145c0,13 5,25 14,34 5,5 10,8 16,11 7,2 13,3 19,3l48 0c14,0 25,-4 34,-13 10,-9 15,-21 15,-35l0 -194zm0 -48l0 -48c0,-14 -5,-25 -14,-34 -9,-10 -21,-14 -35,-14l-96 0c-8,0 -14,-3 -18,-7 -4,-5 -7,-11 -7,-17 0,-6 2,-11 6,-17 5,-5 11,-7 19,-7l96 0c27,0 50,9 69,28 18,19 28,41 28,68l0 290c0,26 -10,49 -29,68 -19,19 -41,28 -68,28l-48 0c-26,0 -49,-9 -68,-28 -19,-18 -29,-41 -29,-68l0 -145c0,-27 10,-50 29,-69 18,-18 41,-28 68,-28l97 0zm385 314c0,16 -8,24 -24,24l-121 0c-26,0 -48,-9 -67,-28 -19,-18 -29,-41 -29,-68l0 -218c0,-6 2,-12 7,-18 5,-4 11,-6 17,-6 6,0 12,2 16,6 5,4 8,10 8,18l0 218c0,13 4,25 14,34 5,5 10,8 15,11 7,2 14,3 19,3l97 0 0 -266c0,-6 3,-12 7,-18 5,-4 11,-6 17,-6 6,0 12,2 17,6 5,4 7,10 7,18l0 290zm290 -266l-97 0c-14,0 -25,5 -35,14 -4,5 -8,10 -10,16 -2,6 -3,12 -3,19l0 145c0,13 4,25 13,34 5,5 10,8 16,11 7,2 13,3 19,3l48 0c14,0 25,-4 35,-13 9,-9 14,-21 14,-35l0 -194zm0 -48l0 -48c0,-14 -5,-25 -14,-34 -9,-10 -20,-14 -34,-14l-97 0c-8,0 -14,-3 -18,-7 -4,-5 -6,-11 -6,-17 0,-6 2,-11 6,-17 4,-5 10,-7 18,-7l96 0c27,0 50,9 69,28 18,19 28,41 28,68l0 290c0,26 -10,49 -28,68 -19,19 -42,28 -69,28l-48 0c-26,0 -48,-9 -68,-28 -19,-18 -28,-41 -28,-68l0 -145c0,-27 9,-50 28,-69 19,-18 42,-28 68,-28l97 0zm337 242l0 -194 -96 0c-14,0 -26,5 -35,14 -5,5 -8,10 -10,16 -3,6 -4,12 -4,19l0 145c0,13 5,25 14,34 5,5 10,8 16,11 6,2 13,3 19,3l48 0c13,0 25,-4 34,-13 10,-9 14,-21 14,-35zm24 64c-8,9 -18,17 -32,23 -13,6 -27,9 -40,9l-48 0c-26,0 -49,-9 -68,-28 -19,-18 -29,-41 -29,-68l0 -145c0,-27 10,-50 28,-69 19,-18 42,-28 69,-28l120 0c16,0 24,8 24,24l0 217c0,10 4,20 10,30 5,9 13,16 24,21 10,4 15,11 15,21 0,8 -2,13 -7,18 -4,5 -10,7 -17,7 -4,0 -7,-1 -10,-2 -16,-6 -29,-16 -39,-30zm265 -258l-96 0 0 266c0,8 -3,14 -7,18 -4,4 -10,6 -17,6 -7,0 -12,-2 -17,-6 -5,-4 -7,-10 -7,-18l0 -290c0,-16 8,-24 24,-24l217 0c26,0 48,10 67,28 19,19 29,42 29,69l0 217c0,8 -2,14 -7,18 -4,4 -10,6 -17,6 -6,0 -12,-2 -17,-6 -5,-4 -7,-10 -7,-18l0 -217c0,-14 -5,-25 -14,-35 -9,-9 -20,-14 -34,-14l-49 0 0 266c0,8 -2,14 -6,18 -5,4 -11,6 -18,6 -6,0 -12,-2 -16,-6 -5,-4 -8,-10 -8,-18l0 -266zm483 194l0 -194 -97 0c-13,0 -25,5 -34,14 -5,5 -8,10 -11,16 -2,6 -3,12 -3,19l0 145c0,13 4,25 14,34 4,5 10,8 15,11 7,2 13,3 19,3l49 0c13,0 24,-4 34,-13 9,-9 14,-21 14,-35zm24 64c-8,9 -19,17 -32,23 -14,6 -27,9 -40,9l-49 0c-26,0 -48,-9 -67,-28 -20,-18 -29,-41 -29,-68l0 -145c0,-27 9,-50 28,-69 19,-18 42,-28 68,-28l121 0c16,0 24,8 24,24l0 217c0,10 3,20 9,30 6,9 14,16 24,21 10,4 16,11 16,21 0,8 -3,13 -7,18 -5,5 -10,7 -17,7 -4,0 -7,-1 -10,-2 -16,-6 -29,-16 -39,-30z"/>
   </g>
  </g>
 </g>
</svg>
