<?xml version="1.0" encoding="UTF-8"?>
<!DOCTYPE svg PUBLIC "-//W3C//DTD SVG 1.0//EN" "http://www.w3.org/TR/2001/REC-SVG-20010904/DTD/svg10.dtd">
<!-- Creator: CorelDRAW X7 -->
<svg xmlns="http://www.w3.org/2000/svg" xml:space="preserve" width="200mm" height="200mm" version="1.0" style="shape-rendering:geometricPrecision; text-rendering:geometricPrecision; image-rendering:optimizeQuality; fill-rule:evenodd; clip-rule:evenodd"
viewBox="0 0 20000 20000"
 xmlns:xlink="http://www.w3.org/1999/xlink">
 <defs>
  <style type="text/css">
   <![CDATA[
    .str1 {stroke:#4D897C;stroke-width:100}
    .str2 {stroke:#F9ECE4;stroke-width:150}
    .str4 {stroke:#004743;stroke-width:25}
    .str0 {stroke:#4E897C;stroke-width:25}
    .str3 {stroke:#034540;stroke-width:122.85;stroke-linecap:round;stroke-linejoin:round}
    .fil22 {fill:none}
    .fil25 {fill:#FEFEFE}
    .fil7 {fill:#FCDFCA}
    .fil17 {fill:#F9D5BB}
    .fil10 {fill:#F9EFE8}
    .fil12 {fill:#F7D0B4}
    .fil26 {fill:#F7E9E2}
    .fil20 {fill:#F4CBAF}
    .fil23 {fill:#F4B704}
    .fil18 {fill:#F0AFA8}
    .fil27 {fill:#F3C9AC}
    .fil21 {fill:#F2C5A5}
    .fil31 {fill:#F3BC64}
    .fil28 {fill:#F0C09E}
    .fil1 {fill:#EBECEC}
    .fil24 {fill:#E6A016}
    .fil2 {fill:#B83633}
    .fil15 {fill:#C68667}
    .fil16 {fill:#B87055}
    .fil30 {fill:#AF642C}
    .fil19 {fill:#B06549}
    .fil29 {fill:#975729}
    .fil32 {fill:#7D4525}
    .fil33 {fill:#764024}
    .fil35 {fill:#6F3F26}
    .fil34 {fill:#673A25}
    .fil11 {fill:#58423E}
    .fil8 {fill:#7AB4CD}
    .fil5 {fill:#5C4745}
    .fil13 {fill:#4D897C}
    .fil9 {fill:#5FA5BC}
    .fil40 {fill:#001B37}
    .fil37 {fill:#004641}
    .fil39 {fill:#141414}
    .fil41 {fill:#2955A9}
    .fil4 {fill:#4D8A7D}
    .fil47 {fill:#5A5A5A}
    .fil51 {fill:#898989}
    .fil44 {fill:#960911}
    .fil50 {fill:#999999}
    .fil48 {fill:#AAAAAA}
    .fil36 {fill:#AFAFC7}
    .fil46 {fill:#BDBDBD}
    .fil45 {fill:#D22819}
    .fil38 {fill:#D9D9D9}
    .fil49 {fill:#E9E9E8}
    .fil52 {fill:#EE2918}
    .fil6 {fill:#F9ECE4}
    .fil42 {fill:#FAE649}
    .fil43 {fill:#FDFDFD}
    .fil14 {fill:#4D897C;fill-rule:nonzero}
    .fil3 {fill:#4D8A7D;fill-rule:nonzero}
    .fil0 {fill:url(#id0)}
   ]]>
  </style>
  <radialGradient id="id0" gradientUnits="userSpaceOnUse" gradientTransform="matrix(1.41421 -0 -0 1.41421 -4142 -4140)" cx="9999.37" cy="9994.13" r="10000" fx="9999.37" fy="9994.13">
   <stop offset="0" style="stop-opacity:1; stop-color:#FEFEFE"/>
   <stop offset="0.439216" style="stop-opacity:1; stop-color:#FEFEFE"/>
   <stop offset="1" style="stop-opacity:1; stop-color:#D1E2F2"/>
  </radialGradient>
 </defs>
 <g id="Layer_x0020_1">
  <metadata id="CorelCorpID_0Corel-Layer"/>
  <path class="fil0" d="M-1 -6l20000 0 0 20000 -20000 0 0 -20000z"/>
  <path class="fil1" d="M35875 19153l0 0 0 -5 0 5zm-172 0l0 0 0 -5 0 5z"/>
  <path class="fil2" d="M35875 19153l-172 0 0 -5 172 0 0 5z"/>
  <g id="_804683307968">
   <g>
    <path class="fil3" d="M3917 6727c-36,0 -65,-22 -65,-49 0,-27 29,-49 65,-49l0 98zm12165 0l-12165 0 0 -98 12165 0 0 98zm0 -98c36,0 65,22 65,49 0,27 -29,49 -65,49l0 -98z"/>
   </g>
   <g id="_804683348736">
    <path class="fil4 str0" d="M1977 2471l0 -261c0,-8 3,-15 9,-21 5,-5 12,-8 20,-8 7,0 14,3 20,8 6,4 9,12 9,21l0 522c0,9 -3,16 -9,21 -5,5 -12,7 -20,7 -8,0 -15,-2 -20,-7 -6,-5 -9,-12 -9,-22l0 -203 -174 0c-31,0 -58,-11 -81,-33 -23,-23 -35,-50 -35,-82l0 -203c0,-8 3,-15 9,-21 6,-5 13,-8 20,-8 8,0 14,3 20,8 6,4 9,12 9,21l0 203c0,16 6,30 17,41 5,5 12,9 18,13 8,2 16,4 23,4l174 0zm521 261c0,9 -2,16 -8,21 -5,5 -12,7 -20,7 -8,0 -15,-2 -21,-7 -5,-5 -8,-12 -8,-21l0 -493 -94 0 -139 500c-1,6 -4,11 -10,15 -6,4 -11,6 -18,6 -8,0 -15,-2 -21,-7 -5,-5 -8,-11 -8,-20 0,-4 0,-7 1,-9l145 -521c4,-14 13,-22 28,-22l145 0c19,0 28,10 28,29l0 522zm173 -319l146 0c8,0 14,3 20,9 6,6 9,13 9,20 0,7 -3,14 -8,20 -4,6 -12,9 -21,9l-146 0 0 232 203 0c9,0 15,3 21,9 6,6 9,12 9,20 0,7 -3,13 -8,19 -5,6 -12,9 -21,9l-233 0c-19,0 -29,-9 -29,-27l0 -523c0,-19 10,-29 29,-29l233 0c8,0 14,3 20,9 6,6 9,13 9,20 0,7 -3,14 -8,20 -5,6 -12,9 -22,9l-203 0 0 174zm637 0l0 -203c0,-8 3,-14 9,-20 6,-6 12,-9 20,-9 7,0 14,3 20,8 6,4 9,12 9,21l0 521c0,8 -3,15 -9,22 -7,5 -14,7 -21,7 -7,0 -13,-2 -20,-7 -5,-4 -8,-11 -8,-21l0 -261 -232 0 0 261c0,9 -3,16 -8,21 -5,5 -12,7 -21,7 -7,0 -14,-2 -20,-7 -6,-5 -8,-12 -8,-21l0 -521c0,-8 2,-15 8,-22 6,-5 13,-7 20,-7 8,0 14,2 20,7 6,5 9,12 9,22l0 202 232 0zm579 319c0,9 -3,16 -8,21 -5,5 -12,7 -21,7 -7,0 -14,-2 -20,-7 -6,-5 -8,-12 -8,-21l0 -522c0,-8 2,-15 8,-21 6,-5 13,-8 20,-8 8,0 14,3 21,7 5,5 8,13 8,22l0 522zm-348 -261l0 232 116 0c16,0 30,-5 41,-16 12,-11 18,-25 18,-42l0 -116c0,-16 -6,-30 -17,-41 -11,-11 -25,-17 -42,-17l-116 0zm0 -58l116 0c32,0 59,12 82,34 23,22 34,50 34,82l0 116c0,31 -11,59 -34,81 -22,23 -50,34 -82,34l-145 0c-19,0 -28,-9 -28,-28l0 -522c0,-8 2,-15 8,-21 6,-5 13,-8 20,-8 8,0 14,3 20,8 6,4 9,12 9,21l0 203zm1158 232c0,31 -11,59 -34,81 -23,23 -50,34 -82,34l-116 0c-31,0 -58,-11 -81,-33 -23,-23 -34,-50 -34,-82l0 -348c0,-32 11,-60 33,-82 23,-22 50,-34 82,-34l116 0c32,0 60,12 82,34 23,23 34,50 34,82l0 348zm-58 0l0 -348c0,-16 -5,-30 -16,-41 -11,-11 -25,-17 -42,-17l-116 0c-16,0 -30,5 -41,16 -6,6 -10,12 -13,19 -2,7 -4,15 -4,23l0 348c0,16 6,30 17,41 6,5 12,9 19,13 8,2 15,4 22,4l116 0c16,0 30,-5 41,-16 12,-11 17,-25 17,-42zm278 -214l244 -242c5,-5 12,-8 19,-8 8,0 14,3 20,9 7,6 10,13 10,21 0,5 -3,12 -9,20l-172 171 178 315 4 15c0,8 -4,14 -10,20 -6,5 -13,8 -21,8 -9,0 -18,-5 -24,-15l-170 -302 -69 68 0 221c0,9 -3,16 -9,21 -5,5 -12,7 -20,7 -8,0 -15,-2 -20,-7 -6,-5 -9,-12 -9,-22l0 -521c0,-8 3,-15 9,-20 6,-6 12,-9 20,-9 7,0 14,3 20,7 6,5 9,12 9,21l0 222zm463 40l174 0c16,0 29,-5 41,-16 11,-11 16,-25 16,-42l0 -116c0,-16 -5,-30 -16,-41 -11,-11 -25,-17 -41,-17l-174 0 0 232zm0 57l0 203c0,10 -3,17 -9,22 -5,5 -12,7 -20,7 -8,0 -15,-2 -20,-7 -6,-5 -9,-12 -9,-21l0 -522c0,-19 10,-29 29,-29l202 0c33,0 60,12 82,34 23,23 34,50 34,82l0 116c0,32 -11,59 -34,81 -23,23 -50,34 -82,34l-173 0zm694 0l-173 0c-32,0 -59,-11 -82,-33 -23,-23 -34,-50 -34,-82l0 -203c0,-8 3,-15 9,-21 5,-5 12,-8 20,-8 7,0 14,3 20,8 6,4 9,12 9,21l0 203c0,16 5,30 16,41 6,5 12,9 19,13 8,2 16,4 22,4l174 0 0 -261c0,-8 3,-15 9,-21 6,-5 13,-8 20,-8 8,0 14,3 20,8 6,4 9,12 9,21l0 435c0,31 -11,59 -34,81 -22,23 -50,34 -82,34l-144 0c-9,0 -16,-2 -22,-8 -5,-6 -7,-12 -7,-20 0,-7 2,-14 7,-20 6,-6 13,-9 22,-9l145 0c16,0 29,-5 41,-16 11,-11 16,-25 16,-42l0 -117zm435 -121l150 -213c2,-3 5,-6 9,-9 5,-2 9,-4 14,-4 7,0 14,3 21,9 6,6 9,13 9,21 0,5 -2,11 -6,16l-152 216 154 274c2,6 4,11 4,16 0,6 -3,13 -9,19 -6,5 -13,8 -22,8 -9,0 -17,-4 -24,-15l-148 -265 0 251c0,10 -3,17 -8,22 -6,5 -13,7 -21,7 -8,0 -14,-2 -20,-7 -6,-5 -9,-12 -9,-21l0 -251 -148 265c-3,3 -6,6 -11,10l-7 3 -7 1c-8,0 -15,-2 -21,-8 -6,-5 -9,-12 -9,-20 0,-3 1,-8 4,-15l153 -273 -151 -216c-3,-3 -4,-9 -6,-18 0,-7 3,-14 9,-20 6,-6 13,-9 21,-9 8,0 15,5 23,13l150 214 0 -198c0,-7 3,-15 9,-21 6,-5 12,-8 20,-8 7,0 14,3 20,8 6,4 9,12 9,21l0 197zm607 6l0 -203c0,-8 3,-14 9,-20 6,-6 12,-9 20,-9 7,0 14,3 20,8 6,4 9,12 9,21l0 521c0,8 -3,15 -9,22 -7,5 -14,7 -20,7 -7,0 -14,-2 -20,-7 -6,-4 -9,-11 -9,-21l0 -261 -232 0 0 261c0,9 -2,16 -8,21 -5,5 -12,7 -20,7 -8,0 -15,-2 -21,-7 -5,-5 -8,-12 -8,-21l0 -521c0,-8 3,-15 8,-22 6,-5 13,-7 21,-7 7,0 14,2 19,7 6,5 9,12 9,22l0 202 232 0zm521 232c0,31 -11,59 -34,81 -23,23 -50,34 -82,34l-116 0c-31,0 -58,-11 -81,-33 -23,-23 -34,-50 -34,-82l0 -348c0,-32 11,-60 33,-82 23,-22 50,-34 82,-34l116 0c32,0 60,12 82,34 23,23 34,50 34,82l0 348zm-58 0l0 -348c0,-16 -5,-30 -16,-41 -11,-11 -25,-17 -42,-17l-116 0c-16,0 -30,5 -41,16 -6,6 -10,12 -13,19 -2,7 -4,15 -4,23l0 348c0,16 6,30 17,41 6,5 12,9 19,13 8,2 15,4 22,4l116 0c16,0 30,-5 41,-16 12,-11 17,-25 17,-42zm452 -521l-116 0c-9,0 -16,-3 -22,-8 -5,-6 -7,-13 -7,-21 0,-7 2,-13 7,-19 5,-7 12,-10 22,-10l116 0c7,0 14,3 20,9 6,6 9,13 9,20 0,7 -3,13 -8,19 -5,7 -12,10 -21,10zm115 608c0,9 -3,16 -8,21 -5,5 -12,7 -21,7 -7,0 -14,-2 -20,-7 -6,-5 -8,-12 -8,-21l0 -410 -235 424c-4,5 -8,10 -13,14l-6 3c-2,1 -5,2 -9,2 -6,0 -12,-3 -20,-8 -4,-6 -7,-14 -7,-25l0 -521c0,-8 3,-15 9,-22 5,-5 12,-7 20,-7 7,0 14,2 20,7 6,5 9,12 9,22l0 409 235 -423c2,-5 6,-9 12,-14 5,-4 10,-6 16,-6 6,0 12,3 17,10 6,5 9,13 9,24l0 521zm810 0c0,9 -2,16 -8,21 -5,5 -12,7 -20,7 -8,0 -15,-2 -21,-7 -5,-5 -8,-12 -8,-21l0 -410 -235 424c-3,5 -8,10 -13,14l-6 3c-2,1 -5,2 -9,2 -6,0 -12,-3 -19,-8 -5,-6 -8,-14 -8,-25l0 -521c0,-8 3,-15 9,-22 6,-5 12,-7 20,-7 7,0 14,2 20,7 6,5 9,12 9,22l0 409 235 -423c3,-5 7,-10 12,-14 5,-4 11,-6 16,-6 6,0 12,3 18,9 5,6 8,14 8,24l0 522zm290 -261l-86 0c-9,0 -16,-3 -22,-8 -5,-6 -7,-13 -7,-21 0,-7 2,-13 7,-19 5,-7 12,-10 22,-10l86 0c16,0 30,-5 41,-16 12,-11 17,-25 17,-42l0 -58c0,-16 -5,-30 -16,-41 -11,-11 -25,-17 -42,-17l-58 0c-12,0 -23,3 -33,11 -10,6 -17,16 -21,29 -2,5 -5,10 -10,14 -2,2 -5,4 -8,5l-9 1c-8,0 -15,-2 -22,-8 -5,-5 -8,-12 -8,-21l1 -10c8,-23 22,-42 42,-57 20,-14 43,-22 68,-22l58 0c32,0 60,12 82,34 23,23 34,50 34,82l0 58c0,17 -4,33 -10,48 -7,16 -17,29 -29,39 26,22 39,51 39,87l0 116c0,31 -11,59 -34,81 -23,23 -50,34 -82,34l-58 0c-25,0 -47,-7 -67,-21 -20,-15 -34,-34 -43,-58l-1 -10c0,-8 3,-15 8,-20 6,-6 14,-9 22,-9 12,0 20,6 26,20 4,11 11,21 21,30 11,7 23,11 34,11l58 0c16,0 30,-5 41,-16 12,-11 17,-25 17,-42l0 -116c0,-17 -4,-31 -13,-41 -10,-11 -25,-17 -45,-17zm289 0l0 232 174 0c16,0 30,-5 41,-16 11,-11 17,-25 17,-42l0 -116c0,-16 -6,-30 -16,-41 -11,-11 -25,-17 -42,-17l-174 0zm0 -58l174 0c31,0 58,12 81,34 23,22 35,50 35,82l0 116c0,31 -12,59 -34,81 -23,23 -50,34 -82,34l-203 0c-19,0 -29,-9 -29,-28l0 -522c0,-19 10,-29 29,-29l232 0c8,0 15,3 20,9 6,6 9,13 9,20 0,7 -3,13 -8,19 -4,7 -12,10 -21,10l-203 0 0 174zm753 319c0,9 -3,16 -9,21 -5,5 -12,7 -20,7 -8,0 -15,-2 -20,-7 -6,-5 -9,-12 -9,-21l0 -410 -235 424c-3,5 -8,10 -13,14l-6 3c-2,1 -5,2 -9,2 -6,0 -12,-3 -19,-8 -5,-6 -8,-14 -8,-25l0 -521c0,-8 3,-15 9,-22 6,-5 13,-7 20,-7 8,0 14,2 20,7 6,5 9,12 9,22l0 409 235 -423c3,-5 7,-10 12,-14 6,-4 11,-6 16,-6 6,0 12,3 18,9 6,6 9,14 9,24l0 522zm173 -261l174 0c16,0 30,-5 41,-16 11,-11 17,-25 17,-42l0 -116c0,-16 -6,-30 -16,-41 -11,-11 -25,-17 -42,-17l-174 0 0 232zm0 57l0 203c0,10 -3,17 -8,22 -5,5 -12,7 -21,7 -7,0 -14,-2 -20,-7 -6,-5 -9,-12 -9,-21l0 -522c0,-19 10,-29 29,-29l203 0c32,0 59,12 82,34 22,23 34,50 34,82l0 116c0,32 -12,59 -34,81 -23,23 -50,34 -82,34l-174 0zm449 88l-42 125c-2,6 -5,11 -10,15 -4,2 -10,4 -16,4 -8,0 -15,-2 -20,-8 -7,-5 -10,-11 -10,-20l2 -10 174 -521c6,-16 15,-25 28,-25 12,0 21,9 27,25l173 521 2 10c0,8 -3,14 -9,21 -6,5 -13,7 -21,7 -4,0 -8,-1 -13,-3 -5,-1 -9,-7 -13,-16l-42 -125 -210 0zm191 -60l-85 -254 -86 254 171 0zm257 -317l-115 0c-9,0 -16,-3 -22,-8 -5,-6 -7,-13 -7,-21 0,-7 2,-13 7,-19 5,-7 12,-10 22,-10l289 0c8,0 15,3 20,9 6,6 9,13 9,20 0,7 -3,13 -7,19 -5,7 -13,10 -22,10l-116 0 0 493c0,9 -3,16 -8,21 -5,5 -12,7 -21,7 -7,0 -14,-2 -20,-7 -6,-5 -9,-12 -9,-21l0 -493zm376 174l146 0c8,0 15,3 20,9 6,6 9,13 9,20 0,7 -2,14 -7,20 -5,6 -13,9 -22,9l-146 0 0 232 204 0c8,0 15,3 20,9 6,6 9,12 9,20 0,7 -3,13 -7,19 -5,6 -13,9 -22,9l-232 0c-20,0 -29,-9 -29,-27l0 -523c0,-19 9,-29 29,-29l232 0c8,0 15,3 20,9 6,6 9,13 9,20 0,7 -3,14 -8,20 -4,6 -12,9 -21,9l-204 0 0 174zm696 319c0,9 -3,16 -8,21 -6,5 -13,7 -21,7 -8,0 -14,-2 -20,-7 -6,-5 -9,-12 -9,-21l0 -493 -94 0 -139 500c-1,6 -4,11 -10,15 -5,4 -11,6 -17,6 -9,0 -16,-2 -22,-7 -5,-5 -8,-11 -8,-20 0,-4 0,-7 1,-9l145 -521c4,-14 14,-22 28,-22l145 0c19,0 29,10 29,29l0 522zm172 -261l174 0c17,0 30,6 42,16 11,11 16,25 16,42l0 116c0,16 -5,30 -16,41 -6,6 -12,10 -19,13 -7,2 -15,4 -23,4l-174 0 0 -232zm0 -58l0 -203c0,-7 -3,-14 -9,-20 -5,-6 -12,-9 -19,-9 -7,0 -13,3 -20,8 -6,4 -9,12 -9,21l0 522c0,19 9,28 29,28l202 0c31,0 58,-11 81,-33 23,-22 35,-50 35,-82l0 -116c0,-31 -11,-59 -34,-82 -22,-22 -50,-34 -82,-34l-174 0zm695 0l0 -203c0,-8 3,-14 9,-20 6,-6 12,-9 20,-9 7,0 14,3 20,8 6,4 9,12 9,21l0 521c0,8 -3,15 -9,22 -7,5 -14,7 -20,7 -7,0 -14,-2 -21,-7 -5,-4 -8,-11 -8,-21l0 -261 -232 0 0 261c0,9 -2,16 -8,21 -5,5 -12,7 -20,7 -8,0 -15,-2 -21,-7 -5,-5 -8,-12 -8,-21l0 -521c0,-8 3,-15 8,-22 6,-5 13,-7 21,-7 7,0 14,2 19,7 6,5 9,12 9,22l0 202 232 0zm521 232c0,31 -11,59 -34,81 -23,23 -50,34 -82,34l-116 0c-31,0 -58,-11 -81,-33 -23,-23 -34,-50 -34,-82l0 -348c0,-32 11,-60 33,-82 23,-22 50,-34 82,-34l116 0c32,0 60,12 82,34 23,23 34,50 34,82l0 348zm-58 0l0 -348c0,-16 -5,-30 -16,-41 -11,-11 -25,-17 -42,-17l-116 0c-16,0 -30,5 -41,16 -6,6 -10,12 -13,19 -2,7 -4,15 -4,23l0 348c0,16 6,30 17,41 6,5 12,9 19,13 8,2 15,4 22,4l116 0c16,0 30,-5 41,-16 12,-11 17,-25 17,-42zm452 -521l-116 0c-9,0 -16,-3 -22,-8 -5,-6 -7,-13 -7,-21 0,-7 2,-13 7,-19 5,-7 12,-10 22,-10l116 0c7,0 14,3 20,9 6,6 9,13 9,20 0,7 -3,13 -8,19 -5,7 -12,10 -21,10zm115 608c0,9 -3,16 -8,21 -5,5 -12,7 -21,7 -7,0 -14,-2 -20,-7 -6,-5 -8,-12 -8,-21l0 -410 -235 424c-4,5 -8,10 -13,14l-6 3c-2,1 -5,2 -9,2 -6,0 -12,-3 -20,-8 -4,-6 -7,-14 -7,-25l0 -521c0,-8 3,-15 9,-22 5,-5 12,-7 20,-7 7,0 14,2 20,7 6,5 9,12 9,22l0 409 235 -423c2,-5 6,-9 12,-14 5,-4 10,-6 16,-6 6,0 12,3 17,10 6,5 9,13 9,24l0 521zm521 -301l244 -242c6,-5 12,-8 20,-8 7,0 14,3 20,9 6,6 9,13 9,21 0,5 -3,12 -9,20l-172 171 178 315 4 15c0,8 -3,14 -10,20 -5,5 -12,8 -21,8 -9,0 -17,-5 -24,-15l-170 -302 -69 68 0 221c0,9 -3,16 -8,21 -6,5 -12,7 -21,7 -8,0 -14,-2 -20,-7 -6,-5 -9,-12 -9,-22l0 -521c0,-8 3,-15 9,-20 6,-6 13,-9 20,-9 7,0 14,3 20,7 6,5 9,12 9,21l0 222zm723 214c0,31 -11,59 -34,81 -22,23 -50,34 -82,34l-115 0c-32,0 -59,-11 -82,-33 -23,-23 -34,-50 -34,-82l0 -348c0,-32 11,-60 34,-82 22,-22 49,-34 82,-34l115 0c33,0 60,12 82,34 23,23 34,50 34,82l0 348zm-58 0l0 -348c0,-16 -5,-30 -16,-41 -11,-11 -25,-17 -42,-17l-116 0c-16,0 -30,5 -41,16 -6,6 -10,12 -12,19 -3,7 -5,15 -5,23l0 348c0,16 6,30 17,41 6,5 12,9 19,13 8,2 16,4 22,4l116 0c17,0 30,-5 42,-16 11,-11 16,-25 16,-42zm626 87c0,9 -3,16 -8,21 -6,5 -13,7 -21,7 -7,0 -13,-2 -19,-7 -7,-5 -10,-12 -10,-21l0 -414 -119 200c-8,13 -16,19 -26,19 -8,0 -16,-6 -25,-19l-120 -200 0 414c0,9 -3,16 -8,21 -6,5 -13,7 -21,7 -8,0 -14,-2 -20,-7 -6,-5 -9,-12 -9,-21l0 -519c0,-11 3,-19 9,-25 4,-5 11,-8 18,-8 5,0 10,1 14,4 4,3 8,7 13,14l149 248 149 -248c7,-12 16,-18 28,-18 6,0 12,3 18,9 5,6 8,14 8,24l0 519z"/>
    <path class="fil4 str0" d="M16601 2732c0,9 -3,16 -8,21 -5,5 -12,7 -21,7 -7,0 -14,-2 -20,-7 -6,-5 -8,-12 -8,-21l0 -410 -235 424c-4,5 -8,10 -13,14l-6 3c-2,1 -5,2 -9,2 -6,0 -12,-3 -19,-8 -5,-6 -8,-14 -8,-25l0 -521c0,-8 3,-15 9,-22 5,-5 12,-7 20,-7 7,0 14,2 20,7 6,5 9,12 9,22l0 409 235 -423c2,-5 6,-10 12,-14 5,-4 10,-6 16,-6 6,0 12,3 17,9 6,6 9,14 9,24l0 522zm377 28l-145 0c-32,0 -59,-11 -82,-33 -23,-23 -34,-50 -34,-82l0 -348c0,-32 11,-60 34,-82 22,-22 50,-34 82,-34l145 0c8,0 15,3 20,9 6,6 9,13 9,20 0,7 -3,13 -7,19 -5,7 -13,10 -22,10l-145 0c-17,0 -30,5 -42,16 -5,6 -9,12 -12,19 -3,7 -4,15 -4,23l0 348c0,16 5,30 16,41 6,5 12,9 19,13 8,2 16,4 23,4l145 0c8,0 15,3 20,9 6,6 9,12 9,20 0,6 -3,13 -7,19 -5,6 -13,9 -22,9zm379 0l-145 0c-32,0 -59,-11 -82,-33 -23,-23 -34,-50 -34,-82l0 -348c0,-32 11,-60 34,-82 22,-22 50,-34 82,-34l145 0c8,0 15,3 20,9 6,6 9,13 9,20 0,7 -3,13 -7,19 -5,7 -13,10 -22,10l-145 0c-17,0 -30,5 -42,16 -5,6 -9,12 -12,19 -3,7 -4,15 -4,23l0 348c0,16 5,30 16,41 6,5 12,9 19,13 8,2 16,4 23,4l145 0c8,0 15,3 20,9 6,6 9,12 9,20 0,6 -3,13 -7,19 -5,6 -13,9 -22,9zm491 -28c0,9 -2,16 -8,21 -5,5 -12,7 -20,7 -8,0 -15,-2 -21,-7 -5,-5 -8,-12 -8,-21l0 -410 -235 424c-4,5 -8,10 -13,14l-6 3c-2,1 -5,2 -9,2 -6,0 -12,-3 -19,-8 -5,-6 -8,-14 -8,-25l0 -521c0,-8 3,-15 9,-22 6,-5 12,-7 20,-7 7,0 14,2 20,7 6,5 9,12 9,22l0 409 235 -423c3,-5 7,-10 12,-14 5,-4 11,-6 16,-6 6,0 12,3 18,9 5,6 8,14 8,24l0 522zm463 0c0,9 -2,16 -8,21 -5,5 -12,7 -20,7 -8,0 -15,-2 -21,-7 -5,-5 -8,-12 -8,-21l0 -410 -235 424c-4,5 -8,10 -13,14l-6 3c-2,1 -5,2 -9,2 -6,0 -12,-3 -19,-8 -5,-6 -8,-14 -8,-25l0 -521c0,-8 3,-15 9,-22 6,-5 12,-7 20,-7 7,0 14,2 20,7 6,5 9,12 9,22l0 409 235 -423c3,-5 7,-10 12,-14 5,-4 11,-6 16,-6 6,0 12,3 18,9 5,6 8,14 8,24l0 522z"/>
   </g>
   <g id="_804683318912">
    <g>
     <path class="fil5 str1" d="M6128 5220c-157,-88 -376,-143 -618,-143 -248,0 -471,57 -628,148 -28,-117 -61,-232 -95,-347 -73,-248 -153,-490 -127,-754 14,-145 58,-337 158,-448 57,-64 144,-103 233,-118l1 -2c5,-13 12,-25 19,-38 209,-350 761,-264 1017,-24 160,150 250,365 272,583 25,264 -54,505 -128,754 -38,128 -75,258 -104,389z"/>
     <path class="fil6" d="M6790 6032c-53,-163 -119,-227 -287,-263l-484 -125c-90,-20 -156,-96 -162,-188l-69 -626 -295 0 -295 0 -69 626c-5,92 -71,168 -161,188l-485 125c-167,36 -234,100 -287,263l-53 611 1350 0 1350 0 -53 -611z"/>
     <path class="fil6 str1" d="M5436 3603c-138,13 -329,80 -415,208 -87,129 -129,329 -108,486l131 553c2,6 3,13 4,19l1 4c11,64 50,121 103,159l218 158c37,31 58,48 104,48l16 0 3 0 0 -1638c-19,0 -38,1 -57,3z"/>
     <path class="fil6 str1" d="M5551 3603c137,13 329,80 414,208 87,129 129,329 108,486l-133 562 -1 2c-9,69 -48,131 -105,171l-218 158c-36,31 -58,48 -104,48l-16 0 -3 0 0 -1638c19,0 39,1 58,3z"/>
     <path class="fil7" d="M6117 4296c10,1 20,3 26,9 5,4 7,10 9,16 13,33 16,69 10,104 -34,49 -73,98 -96,153 -7,16 -21,47 -41,50 -23,2 -30,-27 -31,-43 -7,-84 5,-168 17,-251 1,-6 2,-13 6,-18 4,-5 11,-7 17,-9 27,-9 55,-13 83,-11z"/>
     <path class="fil6" d="M6022 4628c-12,0 -19,-9 -23,-19 -3,-8 -4,-17 -5,-24 -1,-16 -2,-33 -2,-50 0,-67 10,-134 19,-201 1,-6 2,-13 6,-18 4,-5 11,-7 17,-9 22,-8 45,-11 68,-11 5,0 10,0 15,0 10,1 20,3 26,9 5,4 7,10 9,16 9,22 13,45 13,69 0,11 -1,23 -3,35 -34,49 -73,98 -96,153 -7,16 -21,47 -41,50 -1,0 -2,0 -3,0z"/>
     <path class="fil6" d="M4866 4296c-9,1 -19,3 -26,9 -4,4 -7,10 -9,16 -12,33 -16,69 -9,104 33,49 73,98 96,153 6,16 20,47 41,50 22,2 29,-27 30,-43 7,-84 -5,-168 -17,-251 -1,-6 -2,-13 -6,-18 -4,-5 -10,-7 -17,-9 -26,-9 -55,-13 -83,-11z"/>
     <path class="fil8 str1" d="M6790 6032c-53,-163 -119,-227 -287,-263l-484 -125c-90,-20 -156,-96 -162,-188l-28 -209c-79,46 -200,76 -336,76 -136,0 -257,-30 -336,-76l-28 209c-5,92 -71,168 -161,188l-485 125c-167,36 -234,100 -287,263l-53 611 1350 0 1350 0 -53 -611z"/>
     <path class="fil9 str1" d="M5776 5657c-29,19 -58,38 -89,53 -56,26 -119,35 -180,35 -39,0 -78,-4 -115,-19 -27,-11 -51,-29 -78,-42 -56,-28 -118,-35 -179,-47 -30,-6 -65,-17 -78,-48 -17,-38 8,-81 20,-121 20,-66 4,-90 10,-159 1,-20 6,-39 7,-59 2,-13 8,-28 20,-29 19,-2 56,22 75,30 31,15 61,31 95,39 44,10 90,5 135,9 23,2 45,7 68,10 107,12 216,-23 313,-77 18,-10 28,-26 49,-27 8,0 17,-1 24,4 24,15 19,82 19,108 2,85 2,127 32,205 8,19 16,41 6,58 -4,8 -11,13 -18,17 -32,21 -74,25 -109,44 -9,6 -18,11 -27,16z"/>
     <path class="fil10" d="M6018 5644c0,0 0,-1 0,-1 0,0 0,1 0,1z"/>
     <path class="fil10" d="M6018 5643c0,0 -1,0 -1,0 0,0 1,0 1,0z"/>
     <path class="fil10" d="M6017 5643c0,0 0,0 0,0 0,0 0,0 0,0z"/>
     <path class="fil10" d="M6017 5643c-37,-8 -71,-26 -97,-51 0,0 0,0 0,0 26,25 60,43 97,51z"/>
     <path class="fil10" d="M5935 5563c0,-14 -6,-28 -11,-41 -30,-78 -30,-120 -32,-205 0,-1 0,-3 0,-4 0,1 0,3 0,4 2,85 2,127 32,205 5,13 11,27 11,41zm-105 -352l-11 -103 11 103z"/>
     <path class="fil11" d="M5819 5108l0 0 -7 -60 7 60zm-646 -47l0 0 1 -13 -1 13z"/>
     <path class="fil6 str1" d="M5531 5311c-15,0 -30,-1 -44,-2 -23,-3 -45,-8 -68,-10 -29,-3 -236,-64 -265,-66l19 -172 1 -13 196 142c36,31 58,48 103,48 1,0 1,0 1,0l16 0 3 0 3 0 16 0c46,0 68,-17 104,-48l196 -142 7 60 11 103c-10,5 -19,14 -30,21 -83,47 -176,79 -269,79z"/>
     <path class="fil12" d="M5473 5238c-45,0 -67,-17 -103,-48 36,31 58,48 103,48z"/>
     <path class="fil10" d="M5893 5289c0,-26 -2,-57 -13,-73 11,16 13,47 13,73zm-21 -80c0,0 0,0 0,-1 0,1 0,1 0,1zm0 -1c0,0 0,0 0,0 0,0 0,0 0,0zm-24 -3c0,0 0,0 0,0 0,0 0,0 0,0zm1 0c0,0 0,0 0,0 0,0 0,0 0,0zm1 0c2,0 4,0 6,0 -2,0 -4,0 -6,0zm6 0c0,0 0,0 0,0l0 0c0,0 0,0 0,0z"/>
     <path class="fil5" d="M4870 3783c20,-32 43,-64 73,-88 30,-24 69,-38 107,-31 19,4 36,13 52,24 21,15 39,35 52,58 46,79 29,180 -10,262 -40,82 -99,153 -142,233 -76,141 -96,311 -56,465 -57,-21 -100,-68 -134,-119 -78,-118 -114,-264 -99,-405 14,-144 78,-278 157,-399z"/>
     <path class="fil5" d="M5587 3487c-157,-18 -320,36 -441,138 -14,12 -27,24 -37,40 -20,33 -20,75 -11,113 34,154 175,261 320,322 145,61 303,91 442,165 4,-46 -7,-93 -31,-132 69,71 111,166 117,264 22,-54 29,-94 31,-134 86,153 100,346 87,521 88,-73 151,-174 189,-283 38,-108 53,-223 58,-337 2,-30 3,-59 -4,-88 -5,-24 -15,-46 -25,-69 -56,-127 -117,-259 -227,-343 -67,-50 -146,-80 -225,-108 -79,-30 -159,-59 -243,-69z"/>
     <path class="fil6" d="M5456 5198c-4,0 -53,-251 -57,-255 -7,-7 -1,-122 -7,-127 -8,-7 0,-135 -9,-139l6 -423 12 -126c70,-45 157,42 173,53l-7 189 3 252c-2,14 -5,36 -8,52 68,189 42,622 -106,524z"/>
     <g>
      <path class="fil13" d="M5263 4469c-19,0 -34,15 -34,33 0,19 15,34 34,34 18,0 33,-15 33,-34 0,-18 -15,-33 -33,-33zm440 0c-19,0 -34,15 -34,33 0,19 15,34 34,34 18,0 33,-15 33,-34 0,-18 -15,-33 -33,-33z"/>
      <path id="1" class="fil14" d="M5263 4502l-67 0 0 0 0 -3 0 -3 1 -3 0 -3 1 -3 1 -2 1 -3 1 -3 1 -3 1 -2 2 -3 1 -3 2 -2 2 -2 2 -3 2 -2 2 -2 3 -2 2 -2 3 -2 3 -2 2 -1 3 -2 3 -1 4 -2 3 -1 3 -1 4 0 3 -1 4 0 3 -1 4 0 0 60 0 0 0 0 0 0 0 0 1 0 0 0 0 0 0 0 0 0 0 -1 0 0 0 0 0 1 0 -1 0 1 0 0 0 0 0 0 0 0 0 0 0 0 -1 1 0 0 0 0 0 0 0 0 0 1 0 0 0 0 0 1 0 0 0 0 0 0zm0 0c0,17 -15,30 -34,30 -18,0 -33,-13 -33,-30l67 0zm0 4l0 60 0 0 -4 0 -3 -1 -4 0 -3 -1 -4 0 -3 -1 -3 -1 -4 -2 -3 -1 -3 -2 -2 -1 -3 -2 -3 -2 -2 -2 -3 -2 -2 -2 -2 -2 -2 -3 -2 -2 -2 -2 -1 -3 -2 -3 -1 -2 -1 -3 -1 -3 -1 -3 -1 -2 -1 -3 0 -3 -1 -3 0 -3 0 -4 67 0 0 1 0 0 0 1 0 0 0 0 0 0 0 1 0 0 0 0 1 0 0 1 0 0 0 0 0 0 0 0 0 0 0 0 0 0 0 1 0 0 0 0 0 0 0 -1 0 0 0 0 0 0 0 0 -1 0 0 0 0 0 0 0 0 0 0 0zm0 0c18,0 33,14 33,30 0,16 -15,30 -33,30l0 -60zm0 -4l67 0 0 0 0 4 -1 3 0 3 0 3 -1 3 -1 2 -1 3 -1 3 -1 3 -2 2 -1 3 -2 3 -1 2 -2 2 -2 3 -3 2 -2 2 -2 2 -3 2 -2 2 -3 2 -3 1 -3 2 -3 1 -3 2 -3 1 -3 1 -4 0 -3 1 -4 0 -4 1 -3 0 0 -60 0 0 -1 0 0 0 0 0 0 0 0 0 0 0 -1 0 0 0 0 1 0 0 0 0 0 0 0 -1 0 0 0 0 1 0 0 0 0 0 0 0 0 0 0 -1 0 0 0 0 0 0 1 -1 0 0 0 0 0 0 0 -1 0 0 0 -1 0 0zm0 0c0,-16 15,-29 33,-29 19,0 34,13 34,29l-67 0zm0 -3l0 -60 0 0 3 0 4 1 4 0 3 1 4 0 3 1 3 1 3 2 3 1 3 2 3 1 3 2 2 2 3 2 2 2 2 2 3 2 2 3 2 2 1 2 2 3 1 3 2 2 1 3 1 3 1 3 1 2 1 3 0 3 0 3 1 3 0 3 -67 0 0 0 0 0 0 -1 0 0 0 0 0 -1 -1 0 0 0 0 0 0 0 0 -1 0 0 0 0 0 0 0 0 -1 0 0 0 0 -1 0 1 0 -1 0 0 0 0 0 1 0 0 1 0 0 0 0 0 0 0 0 0 0 0 1 0 0 0 0 0zm0 0c-19,0 -34,-14 -34,-30 0,-16 15,-30 34,-30l0 60zm440 3l-67 0 0 0 0 -3 0 -3 0 -3 1 -3 1 -3 0 -2 1 -3 2 -3 1 -3 1 -2 2 -3 1 -3 2 -2 2 -2 2 -3 2 -2 2 -2 3 -2 2 -2 3 -2 2 -2 3 -1 3 -2 3 -1 3 -2 4 -1 3 -1 4 0 3 -1 3 0 4 -1 4 0 0 60 0 0 0 0 0 0 0 0 1 0 0 0 0 0 0 0 0 0 0 -1 0 0 0 0 0 1 0 -1 0 1 0 0 0 0 0 0 0 0 0 0 -1 0 0 1 0 0 0 0 0 0 0 0 0 1 0 0 0 0 0 1 0 0 0 0 0 0zm0 0c0,17 -15,30 -34,30 -18,0 -33,-13 -33,-30l67 0zm0 4l0 60 0 0 -4 0 -4 -1 -3 0 -3 -1 -4 0 -3 -1 -4 -1 -3 -2 -3 -1 -3 -2 -3 -1 -2 -2 -3 -2 -2 -2 -3 -2 -2 -2 -2 -2 -2 -3 -2 -2 -2 -2 -1 -3 -2 -3 -1 -2 -1 -3 -2 -3 -1 -3 0 -2 -1 -3 -1 -3 0 -3 0 -3 0 -4 67 0 0 1 0 0 0 1 0 0 0 0 0 0 0 1 0 0 0 0 0 0 0 1 1 0 0 0 0 0 0 0 0 0 0 0 0 0 0 1 0 0 0 0 0 0 0 -1 0 0 0 0 0 0 0 0 -1 0 0 0 0 0 0 0 0 0 0 0zm0 0c18,0 33,14 33,30 0,16 -15,30 -33,30l0 -60zm0 -4l67 0 0 0 0 4 -1 3 0 3 -1 3 0 2 -1 3 -1 3 -1 3 -1 3 -2 2 -1 3 -2 3 -2 2 -1 2 -3 3 -2 2 -2 2 -2 2 -3 2 -2 2 -3 2 -3 1 -3 2 -3 1 -3 2 -3 1 -4 1 -3 0 -4 1 -3 0 -4 1 -3 0 0 -60 0 0 -1 0 0 0 0 0 0 0 0 0 0 0 -1 0 0 0 0 1 0 0 0 0 0 0 0 -1 0 0 0 0 0 0 0 0 1 0 0 0 0 0 0 0 0 -1 0 0 0 0 0 -1 0 0 1 0 0 0 0 -1 0 0 0 -1 0 0zm0 0c0,-16 15,-29 33,-29 19,0 34,13 34,29l-67 0zm0 -3l0 -60 0 0 3 0 4 1 3 0 4 1 3 0 4 1 3 1 3 2 3 1 3 2 3 1 3 2 2 2 3 2 2 2 2 2 2 2 3 3 1 2 2 2 2 3 1 3 2 2 1 3 1 3 1 3 1 3 0 2 1 3 0 3 1 3 0 3 -67 0 0 0 0 0 0 -1 0 0 -1 0 0 -1 0 0 0 0 0 0 0 -1 0 0 0 0 0 0 -1 0 0 0 0 0 0 0 0 -1 0 0 0 0 0 0 0 0 0 1 0 0 1 0 0 0 0 0 0 0 0 0 0 0 1 0 0 0 0 0zm0 0c-19,0 -34,-14 -34,-30 0,-16 15,-30 34,-30l0 60z"/>
     </g>
    </g>
    <g id="_804683337856">
     <path class="fil15 str1" d="M11097 6202c-54,65 -41,166 -8,245 33,80 119,128 130,214 -52,-69 -159,-97 -238,-129 -49,-19 -101,-31 -147,-57 -87,-49 -143,-169 -96,-260 15,-30 40,-55 53,-86 68,-176 -213,-254 -307,-332 -167,-139 -196,-414 -82,-601 58,-97 148,-172 196,-275 82,-174 19,-321 -25,-491 -56,-218 -29,-455 62,-659 72,-163 230,-333 420,-294 14,3 29,7 42,13 55,22 97,70 121,126 46,112 15,274 -45,376 -54,92 -156,146 -203,241 -62,128 -9,264 69,367 75,97 147,223 100,337 -41,101 -157,142 -233,219 -122,123 -116,355 12,472 95,87 241,114 307,226 51,86 33,208 -40,275 -28,25 -63,43 -88,73z"/>
     <path class="fil16" d="M11574 4895l510 0 0 804 -510 0 0 -804z"/>
     <path class="fil6 str1" d="M12709 6049c-53,-162 -119,-227 -287,-262l-484 -126c-90,-19 -156,-96 -162,-187l-69 -627 -295 0 -295 0 -69 627c-5,91 -71,168 -161,187l-485 126c-167,35 -234,100 -287,262l-53 612 1350 0 1350 0 -53 -612z"/>
     <path class="fil6" d="M11470 3621c137,13 329,80 414,207 87,130 129,329 108,487l-133 562 0 2c-10,69 -49,130 -106,171l-218 158c-36,31 -58,47 -104,47l-16 0 -3 0 0 -1637c19,0 39,1 58,3z"/>
     <path class="fil7" d="M12036 4314c10,1 20,2 27,9 4,4 6,10 9,15 12,33 15,70 9,104 -34,50 -73,99 -96,154 -7,16 -21,47 -41,49 -23,3 -30,-26 -31,-42 -7,-84 5,-168 18,-252 0,-6 1,-12 5,-17 4,-5 11,-8 17,-10 27,-9 55,-12 83,-10z"/>
     <path class="fil17" d="M11941 4645c-11,0 -19,-8 -23,-19l74 -311c10,-1 19,-2 29,-2 5,0 10,1 15,1 10,1 20,2 27,9 4,4 6,10 9,15 8,22 12,46 12,69 0,12 -1,24 -3,35 -34,50 -73,99 -96,154 -7,16 -21,47 -41,49 -1,0 -2,0 -3,0z"/>
     <path class="fil18 str1" d="M12350 6442c0,-258 91,-484 192,-616 -33,-17 -72,-29 -120,-39l-76 -27c-209,197 -549,325 -934,325 -384,0 -725,-128 -934,-325l-76 27c-47,10 -86,22 -120,39 102,132 192,358 192,616 0,76 -5,150 -16,219l954 0 955 0c-11,-69 -17,-143 -17,-219z"/>
     <path class="fil10" d="M12709 6049c0,0 0,0 0,0 0,0 0,0 0,0zm0 -1c0,0 -1,0 -1,0 0,0 1,0 1,0zm-1 -1c0,0 0,0 0,0 0,0 0,0 0,0z"/>
     <path class="fil10" d="M12340 5765l-2 0c4,-3 7,-5 8,-5 0,0 0,0 0,0 -2,2 -4,4 -6,5z"/>
     <path class="fil19" d="M11937 5661c0,0 0,0 0,0 0,0 0,0 0,0zm0 0c0,0 0,0 0,0 0,0 0,0 0,0zm-1 0c0,0 0,0 0,0 0,0 0,0 0,0zm0 0c0,0 0,0 0,0 0,0 0,0 0,0zm-1 0c0,0 0,0 0,0 0,0 0,0 0,0zm0 0c0,0 -1,0 -1,0 0,0 1,0 1,0zm-1 -1c0,0 0,0 0,0 0,0 0,0 0,0zm0 0c0,0 -1,0 -1,0 0,0 1,0 1,0zm-1 0c0,0 0,0 0,0 0,0 0,0 0,0zm0 0c-1,0 -1,0 -1,0 0,0 0,0 1,0zm-1 0c0,0 0,0 0,0 0,0 0,0 0,0zm0 0c-1,0 -1,0 -1,0 0,0 0,0 1,0zm-1 0c0,0 -1,0 -1,-1 0,1 1,1 1,1zm-1 -1c0,0 0,0 0,0 0,0 0,0 0,0zm0 0c-1,0 -1,0 -1,0 0,0 0,0 1,0zm-1 0c-69,-18 -123,-70 -144,-136l0 0c21,66 75,118 144,136z"/>
     <path class="fil10" d="M12424 5787c0,0 0,0 0,0 0,0 0,0 0,0 0,0 0,0 0,0z"/>
     <path class="fil12" d="M12424 5787c0,0 0,0 0,0 0,0 0,0 0,0 0,0 0,0 0,0z"/>
     <path class="fil10" d="M12424 5787c0,0 0,0 0,0l0 0c0,0 0,0 0,0zm-1 0c0,0 0,0 -1,0 1,0 1,0 1,0z"/>
     <path class="fil12" d="M12424 5787c-1,0 -1,0 -2,0l0 0c1,0 1,0 1,0 0,0 0,0 1,0l0 0z"/>
     <path class="fil19" d="M11796 5522l1 0c0,0 -1,0 -1,0zm-33 -172l0 0c4,0 8,-1 8,-1 0,0 0,0 0,0l-8 1z"/>
     <path class="fil6" d="M11355 3621c-138,13 -329,80 -415,207 -87,130 -129,329 -108,487l131 552c2,7 3,13 4,20l1 3c11,65 50,121 103,160l218 158c37,31 58,47 105,47l15 0 3 0 0 -1637c-19,0 -38,1 -57,3z"/>
     <path class="fil20" d="M11918 4626l0 0c-3,-8 -4,-16 -5,-23 -1,-17 -2,-34 -2,-50 0,-68 10,-135 20,-202 0,-6 1,-12 5,-17 4,-5 11,-8 17,-10 13,-4 26,-7 39,-9l-74 311z"/>
     <path class="fil21" d="M11431 5255l-16 0 -3 0 3 0 16 0c46,0 68,-16 104,-47l0 0 196 -142 -196 142c-36,31 -58,47 -104,47z"/>
     <path class="fil15 str1" d="M11725 6202c54,65 41,166 8,245 -33,80 -119,128 -130,214 52,-69 159,-97 238,-129 49,-19 101,-31 147,-57 87,-49 143,-169 96,-260 -15,-30 -40,-55 -53,-86 -68,-176 213,-254 307,-332 167,-139 196,-414 82,-601 -58,-97 -148,-172 -196,-275 -82,-174 -19,-321 25,-491 67,-258 16,-541 -118,-768 -64,-108 -148,-205 -253,-270 -233,-145 -658,-127 -759,187 -39,122 4,267 101,345 108,87 255,89 390,112 134,24 284,95 310,234 22,121 -63,233 -137,330 -75,97 -147,223 -101,337 42,101 158,142 234,219 122,123 116,355 -12,472 -95,87 -241,114 -307,226 -51,86 -33,208 40,275 28,25 63,43 88,73z"/>
     <path class="fil15 str1" d="M11071 5050c-53,-39 -92,-95 -103,-160l-1 -3c-1,-7 -2,-13 -4,-20 -6,-29 -13,-57 -20,-86 -20,-36 -37,-75 -48,-118 -60,-234 -30,-511 144,-689 35,-37 75,-69 105,-110 41,-57 66,-375 -47,-374 -50,0 -54,-40 -98,-19 -103,-20 -338,157 -364,300 -131,47 -109,826 2,945 -5,43 -39,186 -39,205 0,91 -236,266 -235,357 -213,731 212,353 449,403l75 -20c90,-19 156,-96 161,-187l45 -408 -22 -16z"/>
     <g>
      <path class="fil13" d="M11139 4319c-18,0 -33,15 -33,34 0,18 15,33 33,33 19,0 34,-15 34,-33 0,-19 -15,-34 -34,-34zm440 0c-18,0 -33,15 -33,34 0,18 15,33 33,33 19,0 34,-15 34,-33 0,-19 -15,-34 -34,-34z"/>
      <path id="1" class="fil14" d="M11139 4353l-67 0 0 0 0 -3 1 -3 0 -3 1 -3 0 -3 1 -3 1 -3 1 -3 1 -2 2 -3 1 -3 2 -2 2 -3 1 -2 2 -2 3 -3 2 -2 2 -2 3 -2 2 -2 3 -1 3 -2 3 -1 3 -2 3 -1 3 -1 4 -1 3 -1 3 0 4 -1 4 0 3 0 0 59 0 0 1 0 0 0 0 0 0 0 0 0 0 0 1 0 0 0 0 0 0 0 0 0 0 0 0 0 0 0 0 0 0 0 -1 0 0 0 0 1 0 0 0 0 0 0 0 0 0 1 0 0 -1 0 0 0 0 1 0 0 0 1 0 0 0 0zm0 0c0,16 -15,30 -33,30 -19,0 -34,-14 -34,-30l67 0zm0 4l0 59 0 0 -3 0 -4 0 -4 -1 -3 0 -3 -1 -4 -1 -3 -1 -3 -1 -3 -2 -3 -1 -3 -2 -3 -2 -2 -1 -3 -2 -2 -2 -2 -3 -3 -2 -2 -2 -1 -3 -2 -2 -2 -2 -1 -3 -2 -3 -1 -3 -1 -2 -1 -3 -1 -3 0 -3 -1 -3 0 -3 -1 -3 0 -3 67 0 0 0 0 1 0 0 0 0 0 1 1 0 0 0 0 0 0 1 0 0 0 0 0 0 0 0 0 1 0 0 1 0 0 0 0 0 0 0 0 0 0 0 0 0 0 0 0 0 -1 0 0 0 0 0 0 0 0 0 0 0 -1 0 0 0 0 0zm0 0c19,0 34,13 34,29 0,17 -15,30 -34,30l0 -59zm0 -4l67 0 0 0 0 3 0 3 0 3 -1 3 -1 3 -1 3 0 3 -2 2 -1 3 -1 3 -2 3 -1 2 -2 2 -2 3 -2 2 -2 2 -2 3 -3 2 -2 2 -3 1 -2 2 -3 2 -3 1 -3 2 -4 1 -3 1 -3 1 -4 1 -3 0 -3 1 -4 0 -4 0 0 -59 0 0 0 0 0 0 0 0 -1 0 0 0 0 0 0 0 0 0 0 0 0 0 0 0 0 0 0 0 0 0 0 0 0 0 0 0 0 -1 0 0 0 0 1 0 0 0 0 -1 0 0 0 0 0 0 0 -1 0 0 0 0 0 -1 0 0 0 0zm0 0c0,-16 15,-30 34,-30 18,0 33,14 33,30l-67 0zm0 -4l0 -59 0 0 4 0 4 0 3 1 3 0 4 1 3 1 3 1 4 1 3 2 3 1 3 2 2 1 3 2 2 2 3 2 2 2 2 3 2 2 2 2 2 3 1 2 2 3 1 3 1 2 2 3 0 3 1 3 1 3 1 3 0 3 0 3 0 3 -67 0 0 0 0 -1 0 0 0 -1 0 0 0 0 0 0 0 -1 0 0 0 0 -1 0 0 0 0 -1 0 0 0 0 0 0 0 0 0 0 0 0 0 0 0 0 0 0 0 0 0 0 0 0 0 0 0 0 1 0 0 0 0 0 0 0 0 0 0 0zm0 0c-18,0 -33,-13 -33,-30 0,-16 15,-29 33,-29l0 59zm440 4l-67 0 0 0 0 -3 0 -3 1 -3 0 -3 1 -3 1 -3 1 -3 1 -3 1 -2 2 -3 1 -3 2 -2 1 -3 2 -2 2 -2 2 -3 3 -2 2 -2 3 -2 2 -2 3 -1 3 -2 3 -1 3 -2 3 -1 3 -1 3 -1 4 -1 3 0 4 -1 4 0 3 0 0 59 0 0 1 0 0 0 0 0 0 0 0 0 0 0 0 0 1 0 0 0 0 0 0 0 0 0 0 0 0 0 -1 0 0 0 0 0 0 0 0 1 0 0 0 0 0 0 0 0 -1 1 0 0 0 0 0 0 0 1 0 0 0 1 0 0 0 0zm0 0c0,16 -15,30 -33,30 -19,0 -34,-14 -34,-30l67 0zm0 4l0 59 0 0 -3 0 -4 0 -4 -1 -3 0 -4 -1 -3 -1 -3 -1 -3 -1 -3 -2 -3 -1 -3 -2 -3 -2 -2 -1 -3 -2 -2 -2 -3 -3 -2 -2 -2 -2 -2 -3 -1 -2 -2 -2 -1 -3 -2 -3 -1 -3 -1 -2 -1 -3 -1 -3 -1 -3 0 -3 -1 -3 0 -3 0 -3 67 0 0 0 0 1 0 0 0 0 0 1 0 0 0 0 1 0 0 1 0 0 0 0 0 0 0 0 0 1 0 0 0 0 1 0 0 0 0 0 0 0 0 0 0 0 0 0 -1 0 0 0 0 0 0 0 0 0 0 0 0 0 -1 0 0 0 0 0zm0 0c19,0 34,13 34,29 0,17 -15,30 -34,30l0 -59zm0 -4l67 0 0 0 0 3 0 3 -1 3 0 3 -1 3 -1 3 -1 3 -1 2 -1 3 -1 3 -2 3 -1 2 -2 2 -2 3 -2 2 -2 2 -3 3 -2 2 -2 2 -3 1 -3 2 -2 2 -3 1 -3 2 -4 1 -3 1 -3 1 -4 1 -3 0 -4 1 -3 0 -4 0 0 -59 0 0 0 0 0 0 -1 0 0 0 0 0 0 0 0 0 0 0 0 0 0 0 0 0 0 0 0 0 0 0 0 0 0 0 0 0 0 0 0 -1 0 0 0 0 0 0 1 -1 0 0 0 0 0 0 0 -1 0 0 0 0 0 -1 0 0 0 0zm0 0c0,-16 15,-30 34,-30 18,0 33,14 33,30l-67 0zm0 -4l0 -59 0 0 4 0 3 0 4 1 3 0 4 1 3 1 3 1 4 1 3 2 3 1 2 2 3 1 3 2 2 2 2 2 3 2 2 3 2 2 2 2 2 3 1 2 2 3 1 3 1 2 1 3 1 3 1 3 1 3 0 3 1 3 0 3 0 3 -67 0 0 0 0 -1 0 0 0 -1 0 0 0 0 0 0 0 -1 0 0 -1 0 0 0 0 0 0 -1 0 0 0 0 0 0 0 0 0 0 0 0 0 0 0 0 0 0 0 0 0 0 0 0 0 0 0 0 0 0 1 0 0 0 0 0 0 0 0 0zm0 0c-18,0 -33,-13 -33,-30 0,-16 15,-29 33,-29l0 59z"/>
     </g>
     <path class="fil22 str1" d="M11045 5039l1 -13 197 142c36,30 57,47 103,47 0,0 0,0 1,0l15 0 3 0 4 0 15 0c46,0 68,-16 104,-47l197 -142"/>
    </g>
    <g>
     <path class="fil6 str1" d="M9832 5896c-82,-289 -466,-289 -686,-345 -26,-7 -53,-14 -79,-21 -25,-8 -52,-16 -74,-31 -91,-62 -94,-222 -107,-320 -13,-101 -21,-204 -22,-307 0,-36 1,-73 3,-110 -94,36 -150,107 -251,110 -8,0 -51,0 -91,0 -37,0 -72,0 -72,0 0,0 -35,0 -72,0 -41,0 -84,0 -91,0 -101,-3 -157,-74 -251,-110 2,37 3,74 2,110 0,103 -8,206 -21,307 -13,98 -16,258 -107,320 -23,15 -49,23 -75,31 -26,7 -52,14 -78,21 -220,56 -605,56 -686,345l-121 757 1500 0 1500 0 -121 -757z"/>
     <path class="fil7" d="M9127 4169c10,0 20,2 26,8 5,5 7,10 9,16 13,33 16,69 10,104 -34,50 -73,98 -96,154 -7,15 -21,47 -41,49 -23,3 -30,-26 -31,-42 -7,-84 5,-169 17,-252 1,-6 2,-13 6,-18 4,-5 11,-7 17,-9 27,-9 55,-12 83,-10z"/>
     <path class="fil6 str1" d="M9032 4500c-20,0 -27,-27 -28,-42 -1,-17 -2,-34 -2,-51 0,-67 10,-134 19,-201 1,-6 2,-13 6,-18 4,-5 11,-7 17,-9 22,-7 45,-11 68,-11 5,0 10,0 15,1 10,0 20,2 26,8 5,5 7,10 9,16 9,22 13,46 13,69 0,12 -1,23 -3,35 -34,50 -73,98 -96,154 -7,15 -21,47 -41,49 -1,0 -2,0 -3,0z"/>
     <path class="fil6 str1" d="M9080 4036l-61 591c-7,47 -26,92 -55,131l-281 280c-5,5 -10,10 -14,15 -38,44 -93,70 -152,70l-64 0 0 -1722c348,1 682,255 627,635z"/>
     <path class="fil6 str1" d="M7781 4169c-9,0 -20,2 -26,8 -5,5 -7,10 -9,16 -13,33 -16,69 -10,104 34,50 73,98 97,154 6,15 20,47 40,49 23,3 30,-26 31,-42 7,-84 -5,-169 -17,-252 -1,-6 -2,-13 -6,-18 -4,-5 -11,-7 -17,-9 -27,-9 -55,-12 -83,-10z"/>
     <path class="fil6 str1" d="M7826 4036l61 591c6,47 26,92 55,131l281 280c5,5 9,10 14,15 38,44 93,70 151,70l65 0 0 -1722c-348,1 -682,255 -627,635z"/>
     <path class="fil23" d="M9832 5896c-82,-289 -466,-289 -686,-345 -26,-7 -53,-14 -79,-21 -25,-8 -52,-16 -74,-31 -91,-62 -94,-222 -107,-320 -1,-9 -2,-18 -3,-27 -119,47 -268,75 -430,75 -162,0 -311,-28 -430,-75 -1,9 -2,18 -3,27 -13,98 -16,258 -107,320 -23,15 -49,23 -75,31 -26,7 -52,14 -78,21 -220,56 -605,56 -686,345l-121 757 1500 0 1500 0 -121 -757z"/>
     <path class="fil24 str1" d="M8915 5151c23,12 12,51 13,72 1,37 6,74 13,111 2,10 4,20 7,29 15,38 48,82 32,126 -3,9 -11,15 -19,22 -47,37 -97,74 -153,96 -33,12 -68,20 -102,27 -98,20 -198,38 -297,28 -58,-6 -116,-22 -173,-38 -31,-8 -62,-17 -93,-26 -61,-18 -124,-39 -170,-82 -42,-39 -23,-87 -16,-138 3,-25 7,-49 10,-74 7,-51 11,-196 90,-189 18,2 35,10 51,17 133,59 281,91 428,83 62,-3 122,-16 182,-24 27,-4 53,-9 80,-16 27,-7 90,-38 117,-24z"/>
     <path class="fil25" d="M7193 6421l79 0 -40 71 -39 -71z"/>
     <path class="fil25" d="M7579 6421l80 0 -40 71 -40 -71z"/>
     <path class="fil5 str1" d="M7764 3524c32,-68 78,-129 140,-170 -33,-33 -72,-60 -114,-80 176,-53 367,-106 541,-45 -35,-35 -69,-70 -104,-106 117,0 235,0 350,21 123,22 239,72 333,155 46,40 61,73 66,133 107,2 188,162 208,251 18,75 16,152 11,229 -7,-24 -15,-48 -23,-72 -8,143 -58,284 -141,401 14,-89 27,-177 41,-265 -9,14 -24,25 -40,30 10,-77 -8,-158 -49,-225 -38,-61 -207,-37 -293,-34 104,-187 -318,17 -361,51 1,-28 3,-56 5,-84 -144,52 -271,148 -360,272 -9,-21 -12,-44 -10,-67 -54,87 -87,187 -94,288 -37,-48 -75,-98 -101,-154 -25,-56 -37,-120 -21,-180 -19,0 -39,0 -58,0 9,-96 18,-194 49,-286 7,-21 15,-42 25,-63z"/>
     <path class="fil25" d="M7966 6421l80 0 -40 71 -40 -71z"/>
     <path class="fil25" d="M8353 6421l79 0 -39 71 -40 -71z"/>
     <path class="fil25" d="M8739 6421l80 0 -40 71 -40 -71z"/>
     <path class="fil25" d="M9126 6421l80 0 -40 71 -40 -71z"/>
     <path class="fil25" d="M9513 6421l80 0 -40 71 -40 -71z"/>
     <path class="fil25" d="M7089 6264l112 -138c15,-19 46,-19 62,0l112 138c12,15 30,23 49,23 19,0 37,-8 49,-23l112 -138c8,-10 19,-15 31,-15 12,0 23,5 31,15l112 138c12,15 30,23 49,23 19,0 37,-8 49,-23l113 -138c15,-19 46,-19 61,0l113 138c12,15 30,23 49,23 19,0 37,-8 49,-23l112 -138c8,-10 19,-15 31,-15l0 0c12,0 23,5 31,15l112 138c12,15 30,23 49,23l0 0c19,0 37,-8 49,-23l112 -138c15,-19 47,-19 62,0l112 138c12,15 30,23 49,23l0 0c19,0 37,-8 49,-23l113 -138c15,-19 46,-19 61,0l113 138c12,15 29,23 49,23 19,0 37,-8 49,-23l112 -138c15,-19 46,-19 62,0l112 138c12,15 30,23 49,23l0 0c19,0 37,-8 49,-23l94 -115c-2,-11 -4,-21 -5,-31l-107 131c-8,9 -19,14 -31,14l0 0c-12,0 -23,-5 -31,-14l-112 -138c-12,-15 -30,-24 -49,-24 -19,0 -37,9 -49,24l-113 138c-15,18 -46,18 -61,0l-113 -138c-12,-15 -30,-24 -49,-24l0 0c-19,0 -37,9 -49,24l-112 138c-8,9 -19,14 -31,14l0 0c-12,0 -23,-5 -30,-14l-113 -138c-12,-15 -30,-24 -49,-24 -19,0 -37,9 -49,24l-112 138c-15,18 -47,18 -62,0l-112 -138c-12,-15 -30,-24 -49,-24l0 0c-19,0 -37,9 -49,24l-113 138c-15,18 -46,18 -61,0l-112 -138c-13,-15 -30,-24 -50,-24 -19,0 -37,9 -49,24l-112 138c-15,18 -46,18 -61,0l-113 -138c-12,-15 -30,-24 -49,-24l0 0c-19,0 -37,9 -49,24l-112 138c-15,18 -47,18 -62,0l-112 -138c-12,-15 -30,-24 -49,-24 -19,0 -37,9 -49,24l-112 138c-13,16 -38,18 -55,6 -1,9 -2,17 -4,26 9,4 18,6 28,6 19,0 37,-8 49,-23z"/>
     <path class="fil25" d="M7089 6350l112 -138c15,-18 47,-18 62,0l112 138c12,15 30,24 49,24l0 0c19,0 37,-9 49,-24l112 -138c16,-18 47,-18 62,0l112 138c12,15 30,24 49,24 19,0 37,-9 49,-24l113 -138c7,-9 18,-14 30,-14l0 0c12,0 24,5 31,14l113 138c12,15 30,24 49,24 19,0 37,-9 49,-24l112 -138c15,-18 46,-18 62,0l112 138c12,15 30,24 49,24 19,0 37,-9 49,-24l112 -138c15,-18 47,-18 62,0l112 138c12,15 30,24 49,24l0 0c19,0 37,-9 49,-24l113 -138c7,-9 18,-14 30,-14l0 0c12,0 24,5 31,14l113 138c12,15 29,24 49,24l0 0c19,0 37,-9 49,-24l112 -138c8,-9 19,-14 31,-14 12,0 23,5 31,14l112 138c12,15 30,24 49,24l0 0c19,0 37,-9 49,-24l105 -129c-2,-10 -3,-20 -5,-30 -2,2 -4,4 -6,6l-112 138c-15,19 -47,19 -62,0l-112 -138c-12,-14 -30,-23 -49,-23l0 0c-19,0 -37,9 -49,23l-113 138c-7,10 -18,15 -30,15l0 0c-12,0 -24,-5 -31,-15l-113 -138c-12,-14 -29,-23 -49,-23l0 0c-19,0 -37,9 -49,23l-112 138c-8,10 -19,15 -31,15l0 0c-12,0 -23,-5 -30,-15l-113 -138c-12,-14 -30,-23 -49,-23 -19,0 -37,9 -49,23l-112 138c-15,19 -47,19 -62,0l-112 -138c-12,-14 -30,-23 -49,-23 -19,0 -37,9 -49,23l-113 138c-15,19 -46,19 -61,0l-112 -138c-13,-14 -30,-23 -50,-23l0 0c-19,0 -37,9 -49,23l-112 138c-15,19 -46,19 -61,0l-113 -138c-12,-14 -30,-23 -49,-23 -19,0 -37,9 -49,23l-112 138c-8,10 -19,15 -31,15l0 0c-12,0 -23,-5 -31,-15l-112 -138c-12,-14 -30,-23 -49,-23 -19,0 -37,9 -49,23l-112 138c-16,19 -47,19 -62,0l-5 -5c-1,10 -3,20 -4,29 11,9 25,15 40,15 19,0 37,-9 49,-24z"/>
     <path class="fil26" d="M9166 6492l-40 -71 80 0 -40 71z"/>
     <path class="fil26" d="M9553 6492l-40 -71 80 0 -40 71z"/>
     <path class="fil26" d="M8993 5499c-4,-3 -9,-7 -13,-10 0,0 0,0 0,0 0,0 0,0 0,0 4,3 9,7 13,10zm-44 -136c-1,0 -1,0 -1,0 0,0 0,0 1,0zm-1 -2c-4,-8 -5,-18 -7,-27 -7,-37 -12,-74 -13,-111 0,-1 0,-2 0,-3 0,1 0,2 0,3 1,37 6,74 13,111 2,9 3,19 7,27zm-18 -175c0,-9 -1,-18 -5,-25 4,7 5,16 5,25zm-48 -37c-11,-91 -17,-182 -18,-273 1,91 8,182 18,272 0,0 0,1 0,1zm-18 -273c0,0 0,-1 0,-2 0,1 0,2 0,2zm0 -4c0,-5 0,-10 0,-15l0 0c0,5 0,10 0,15z"/>
     <path class="fil27" d="M8453 5123l-65 0c-57,0 -111,-25 -149,-67 38,42 92,67 149,67l65 0zm-230 -85l-169 -169 169 169z"/>
     <path class="fil26" d="M9730 6287l0 0c-19,0 -37,-8 -49,-23l-112 -138c-8,-10 -20,-14 -31,-14 -12,0 -23,4 -31,14l-112 138c-12,15 -30,23 -49,23 -20,0 -37,-8 -49,-23l-113 -138c-7,-10 -19,-14 -31,-14 -11,0 -23,4 -30,14l-113 138c-12,15 -30,23 -49,23l0 0c-19,0 -37,-8 -49,-23l-112 -138c-8,-10 -19,-14 -31,-14 -11,0 -23,4 -31,14l-14 18 -12 -23 8 -10c12,-15 30,-24 49,-24 19,0 37,9 49,24l113 138c7,9 18,14 30,14l0 0c12,0 23,-5 31,-14l112 -138c12,-15 30,-24 49,-24l0 0c19,0 37,9 49,24l113 138c7,9 19,14 31,14 11,0 23,-5 30,-14l113 -138c12,-15 30,-24 49,-24 19,0 37,9 49,24l112 138c8,9 19,14 31,14l0 0c12,0 23,-5 31,-14l107 -131 5 31 -94 115c-12,15 -30,23 -49,23z"/>
     <path class="fil26" d="M9730 6374l0 0c-19,0 -37,-9 -49,-24l-112 -138c-8,-9 -19,-14 -31,-14 -12,0 -23,5 -31,14l-112 138c-12,15 -30,24 -49,24l0 0c-20,0 -37,-9 -49,-24l-113 -138c-7,-9 -19,-14 -31,-14l0 0c-12,0 -23,5 -30,14l-113 138c-12,15 -30,24 -49,24l0 0c-19,0 -37,-9 -49,-24l-112 -138c-8,-9 -19,-14 -31,-14 -5,0 -10,1 -15,3l-11 -21c8,-4 17,-6 26,-6 19,0 37,9 49,23l113 138c7,10 18,15 30,15l0 0c12,0 23,-5 31,-15l112 -138c12,-14 30,-23 49,-23l0 0c20,0 37,9 49,23l113 138c7,10 19,15 31,15l0 0c12,0 23,-5 30,-15l113 -138c12,-14 30,-23 49,-23l0 0c19,0 37,9 49,23l112 138c8,10 19,14 31,14 12,0 23,-4 31,-14l112 -138c2,-2 4,-4 6,-6l5 31 -105 128c-12,15 -30,24 -49,24z"/>
     <path class="fil22 str2" d="M8452 5090l0 -1325"/>
     <path class="fil28" d="M8517 5123l-64 0 64 0c38,0 75,-11 107,-31 -32,20 -69,31 -107,31zm166 -85l181 -181c0,0 0,0 0,0l-181 181z"/>
     <g>
      <path class="fil13" d="M8227 4148c-18,0 -33,15 -33,33 0,18 15,33 33,33 19,0 34,-15 34,-33 0,-18 -15,-33 -34,-33zm440 0c-18,0 -33,15 -33,33 0,18 15,33 33,33 18,0 33,-15 33,-33 0,-18 -15,-33 -33,-33z"/>
      <path id="1" class="fil14" d="M8227 4181l-67 0 0 0 0 -3 1 -3 0 -3 0 -3 1 -3 1 -3 1 -3 1 -3 1 -2 2 -3 1 -3 2 -2 1 -3 2 -2 2 -2 2 -2 3 -3 2 -2 3 -2 2 -2 3 -1 3 -2 3 -1 3 -2 3 -1 3 -1 3 -1 4 -1 3 0 4 -1 4 0 3 0 0 59 0 0 1 0 0 0 0 0 0 0 0 0 0 0 0 0 1 0 0 0 0 0 0 0 0 0 0 0 0 0 -1 0 0 0 0 0 0 1 0 0 0 0 0 0 0 0 0 0 0 1 -1 0 0 0 0 1 0 0 0 0 0 1 0 0 0 0zm0 0c0,16 -15,30 -33,30 -19,0 -34,-14 -34,-30l67 0zm0 4l0 59 0 0 -3 0 -4 0 -4 -1 -3 0 -4 -1 -3 -1 -3 -1 -3 -1 -3 -2 -3 -1 -3 -2 -3 -2 -2 -1 -3 -2 -2 -2 -3 -3 -2 -2 -2 -2 -2 -2 -1 -3 -2 -2 -1 -3 -2 -3 -1 -2 -1 -3 -1 -3 -1 -3 -1 -3 0 -3 0 -3 -1 -3 0 -3 67 0 0 0 0 1 0 0 0 0 0 1 0 0 1 0 0 1 0 0 0 0 0 0 0 0 0 0 0 1 0 0 0 0 1 0 0 0 0 0 0 0 0 0 0 0 0 0 -1 0 0 0 0 0 0 0 0 0 0 0 0 0 -1 0 0 0 0 0zm0 0c19,0 34,13 34,29 0,17 -15,30 -34,30l0 -59zm0 -4l67 0 0 0 0 3 0 3 -1 3 0 3 -1 3 -1 3 -1 3 -1 3 -1 2 -1 3 -2 3 -1 2 -2 3 -2 2 -2 2 -2 2 -2 3 -3 2 -2 2 -3 1 -3 2 -2 2 -3 1 -3 2 -4 1 -3 1 -3 1 -4 1 -3 0 -4 1 -3 0 -4 0 0 -59 0 0 0 0 0 0 -1 0 0 0 0 0 0 0 0 0 0 0 0 0 0 0 0 0 0 0 0 0 0 0 0 0 0 0 0 0 0 -1 0 0 0 0 0 0 1 0 0 0 0 -1 0 0 0 0 0 -1 0 0 0 0 0 -1 0 0 0 0zm0 0c0,-16 15,-30 34,-30 18,0 33,14 33,30l-67 0zm0 -4l0 -59 0 0 4 0 3 0 4 1 3 0 4 1 3 1 3 1 4 1 3 2 3 1 2 2 3 1 3 2 2 2 3 2 2 3 2 2 2 2 2 2 2 3 1 2 2 3 1 3 1 2 1 3 1 3 1 3 1 3 0 3 1 3 0 3 0 3 -67 0 0 0 0 -1 0 0 0 0 0 -1 0 0 0 0 0 -1 0 0 -1 0 0 0 0 0 0 0 0 -1 0 0 0 0 0 0 0 0 0 0 0 0 0 0 0 0 0 0 0 0 0 0 0 0 0 0 0 0 1 0 0 0 0 0 0 0 0 0zm0 0c-18,0 -33,-13 -33,-29 0,-17 15,-30 33,-30l0 59zm440 4l-67 0 0 0 0 -3 0 -3 1 -3 0 -3 1 -3 1 -3 1 -3 1 -3 1 -2 1 -3 2 -3 2 -2 1 -3 2 -2 2 -2 2 -2 3 -3 2 -2 2 -2 3 -2 3 -1 3 -2 3 -1 3 -2 3 -1 3 -1 3 -1 4 -1 3 0 4 -1 3 0 4 0 0 59 0 0 0 0 1 0 0 0 0 0 0 0 0 0 0 0 0 0 1 0 0 0 -1 0 1 0 -1 0 0 0 0 0 0 0 0 0 0 0 0 1 0 0 0 0 0 0 -1 0 0 1 0 0 0 0 0 1 0 0 0 0 0 1 0 0 0 0zm0 0c0,16 -15,30 -33,30 -19,0 -34,-14 -34,-30l67 0zm0 4l0 59 0 0 -4 0 -3 0 -4 -1 -3 0 -4 -1 -3 -1 -3 -1 -3 -1 -3 -2 -3 -1 -3 -2 -3 -2 -3 -1 -2 -2 -2 -2 -3 -3 -2 -2 -2 -2 -2 -3 -1 -2 -2 -2 -2 -3 -1 -3 -1 -2 -1 -3 -1 -3 -1 -3 -1 -3 0 -3 -1 -3 0 -3 0 -3 67 0 0 0 0 1 0 0 0 0 0 1 0 0 0 0 0 1 1 0 0 0 0 0 0 0 0 1 0 0 0 0 0 0 0 0 0 0 1 0 -1 0 1 0 0 0 -1 0 0 0 0 0 0 0 0 0 0 0 0 0 -1 0 0 0 0 0 0 0zm0 0c18,0 33,13 33,29 0,17 -15,30 -33,30l0 -59zm0 -4l67 0 0 0 0 3 0 3 -1 3 0 3 -1 3 -1 3 -1 3 -1 3 -1 2 -1 3 -2 3 -2 2 -1 2 -2 3 -2 2 -2 2 -3 3 -2 2 -2 2 -3 1 -3 2 -3 2 -3 1 -3 2 -3 1 -3 1 -3 1 -4 1 -3 0 -4 1 -3 0 -4 0 0 -59 0 0 0 0 -1 0 0 0 0 0 0 0 0 0 0 0 0 0 -1 0 0 0 0 0 0 0 0 0 1 0 0 0 0 0 0 0 0 0 0 -1 0 0 0 0 0 0 1 0 0 -1 0 0 0 0 0 -1 0 0 0 0 0 -1 0 0 0 0zm0 0c0,-16 15,-30 33,-30 19,0 34,14 34,30l-67 0zm0 -4l0 -59 0 0 4 0 3 0 4 1 3 0 4 1 3 1 3 1 3 1 3 2 3 1 3 2 3 1 3 2 2 2 2 2 3 3 2 2 2 2 2 2 1 3 2 2 2 3 1 3 1 2 1 3 1 3 1 3 1 3 0 3 1 3 0 3 0 3 -67 0 0 0 0 -1 0 0 0 0 0 -1 0 0 0 0 0 -1 -1 0 0 0 0 0 0 0 0 -1 0 0 0 0 0 0 0 0 -1 0 0 0 0 0 0 0 0 0 1 0 0 0 0 0 0 0 0 0 0 0 0 0 1 0 0 0 0 0 0 0zm0 0c-18,0 -33,-13 -33,-29 0,-17 15,-30 33,-30l0 59z"/>
     </g>
    </g>
    <g>
     <path class="fil6 str1" d="M15735 5899c-82,-289 -466,-289 -686,-345 -27,-6 -53,-13 -79,-21 -26,-7 -52,-16 -74,-31 -92,-62 -95,-222 -107,-319 -14,-102 -22,-205 -22,-308 0,-36 0,-73 2,-109 -93,35 -150,107 -251,110 -7,0 -50,0 -90,0 -38,-1 -72,-1 -72,0 0,-1 -35,-1 -73,0 -40,0 -83,0 -90,0 -101,-3 -158,-75 -251,-110 2,36 2,73 2,109 0,103 -8,206 -22,308 -12,97 -15,257 -107,319 -22,15 -48,24 -74,31 -26,8 -52,15 -79,21 -220,56 -604,56 -686,345l-120 757 1500 0 1499 0 -120 -757z"/>
     <path class="fil25" d="M15735 5899c-82,-289 -466,-289 -686,-345 -27,-6 -53,-13 -79,-21 -11,-3 -22,-7 -33,-11 -146,128 -352,207 -581,207 -230,0 -436,-79 -582,-207 -11,4 -22,8 -33,11 -26,8 -52,15 -79,21 -220,56 -604,56 -686,345l-120 757 1500 0 1499 0 -120 -757z"/>
     <path class="fil25 str1" d="M14813 5301l251 308 -469 432 -172 -433 390 -307z"/>
     <path class="fil25 str1" d="M13898 5301l-251 308 469 432 172 -433 -390 -307z"/>
     <path class="fil29 str1" d="M15099 5522l365 124c0,0 272,51 293,395l98 615 -791 0 35 -1134z"/>
     <path class="fil30 str1" d="M14850 5345l25 -20 224 173 0 1158 -453 0 204 -1311z"/>
     <path class="fil29 str1" d="M13612 5522l-365 124c0,0 -272,51 -293,395l-98 615 791 0 -35 -1134z"/>
     <path class="fil30 str1" d="M13861 5345l-25 -20 -224 173 0 1158 453 0 -204 -1311z"/>
     <path class="fil7" d="M15030 4172c9,1 19,2 26,9 4,4 7,10 9,15 12,33 16,70 9,104 -33,50 -73,99 -96,154 -6,16 -20,47 -41,49 -22,3 -29,-26 -30,-42 -7,-84 5,-168 17,-252 1,-6 2,-12 6,-17 4,-5 10,-8 17,-10 26,-9 55,-12 83,-10z"/>
     <path class="fil6 str1" d="M14935 4503c-21,0 -27,-27 -28,-42 -2,-17 -2,-34 -2,-50 0,-68 9,-135 19,-202 1,-6 2,-12 6,-17 4,-5 10,-8 17,-10 22,-7 45,-11 68,-11 5,0 10,0 15,1 9,1 19,2 26,9 4,4 7,10 9,15 8,22 12,46 12,69 0,12 -1,24 -3,35 -33,50 -73,99 -96,154 -6,16 -20,47 -41,49 0,0 -1,0 -2,0z"/>
     <path class="fil6 str1" d="M14983 4040l-61 590c-7,48 -26,93 -56,131l-281 280c-5,5 -9,10 -14,15 -37,44 -93,70 -151,70l-64 0 0 -1721c348,0 682,254 627,635z"/>
     <path class="fil6 str1" d="M13684 4172c-10,1 -20,2 -27,9 -4,4 -7,10 -9,15 -12,33 -15,70 -9,104 33,50 73,99 96,154 7,16 21,47 41,49 22,3 29,-26 31,-42 7,-84 -6,-168 -18,-252 -1,-6 -2,-12 -6,-17 -4,-5 -10,-8 -16,-10 -27,-9 -55,-12 -83,-10z"/>
     <path class="fil6 str1" d="M13728 4040l61 590c7,48 26,93 56,131l281 280c5,5 9,10 14,15 37,44 93,70 151,70l65 0 0 -1721c-349,0 -683,254 -628,635z"/>
     <path class="fil31 str1" d="M14976 3565c-35,-78 -84,-149 -148,-210 -193,-181 -498,-217 -745,-139 -57,18 -112,46 -157,86 -46,41 -60,74 -66,133 -89,2 -139,97 -164,169 -79,225 25,568 25,568l80 37c-17,-7 8,-159 10,-174 15,-103 45,-238 123,-314 75,67 178,88 276,105 110,18 224,20 335,5 -40,-23 -76,-57 -102,-96 97,53 202,102 312,91 -13,-18 -26,-35 -39,-53 21,29 80,34 109,52 47,28 76,89 90,140 11,42 15,86 16,130 1,13 15,108 5,114l66 -38c58,-196 57,-419 -26,-606z"/>
     <path class="fil32" d="M14715 5969c-2,24 -6,49 -22,66 -17,19 -45,23 -71,21 -69,-4 -131,-40 -189,-76 -69,-42 -138,-87 -187,-151 109,-84 231,-150 360,-195 34,-12 77,-21 103,5 18,19 19,47 19,73 0,86 -4,172 -13,257z"/>
     <path class="fil32 str1" d="M13996 5969c2,24 6,49 22,66 17,19 45,23 71,21 69,-4 131,-40 189,-76 69,-42 138,-87 187,-151 -109,-84 -231,-150 -360,-195 -34,-12 -77,-21 -103,5 -18,19 -19,47 -19,73 0,86 4,172 13,257z"/>
     <path class="fil26" d="M15855 6656l0 -1c0,0 0,0 0,1zm0 -1l0 0c0,0 0,0 0,0zm0 -1l-98 -613c0,-5 0,-10 -1,-15 1,5 1,10 1,15l8 47c34,214 86,538 90,566zm-116 -726c0,0 0,0 0,0l-4 -28c1,4 2,13 4,28zm-889 -583l0 0 25 -20 -25 20zm-17 -20l-20 -24 20 24zm-29 -17c-6,-40 -10,-79 -14,-113 4,34 8,73 14,113l0 0zm-14 -113c0,0 0,0 0,0 0,0 0,0 0,0zm-23 -320c0,-5 0,-10 0,-15l0 0c0,5 0,10 0,15z"/>
     <path class="fil27" d="M14356 5126l-65 0c-58,0 -114,-26 -151,-70 -5,-5 -9,-10 -14,-15 5,5 9,10 14,15 37,44 93,70 151,70l65 0zm-230 -85l-169 -169 0 0 169 169z"/>
     <path class="fil28" d="M14420 5126l-64 0 64 0c53,0 104,-21 141,-58 -37,37 -88,58 -141,58zm154 -72c4,-5 7,-9 11,-13 -4,4 -7,8 -11,13z"/>
     <path class="fil33 str1" d="M14631 6057c-3,0 -6,-1 -9,-1 -17,-1 -33,-3 -49,-8l-144 -99c2,-2 34,-118 36,-120 -4,-3 -8,-5 -11,-8l0 -44c0,-28 -23,-50 -51,-50l-2 0c19,-11 38,-21 57,-31l0 0c48,-23 97,-44 148,-62 18,-6 38,-12 57,-12 17,0 34,5 46,17 18,19 19,47 19,73 0,71 -3,143 -9,214 -1,15 -2,29 -4,43 -2,24 -6,49 -22,66 -15,16 -39,22 -62,22z"/>
     <path class="fil33" d="M14459 5836l-5 -11 0 -4c3,3 7,5 11,8 -2,2 -4,5 -6,7z"/>
     <path class="fil34" d="M14454 5825l-53 -98 0 0 2 0c28,0 51,22 51,50l0 44 0 4z"/>
     <path class="fil35 str1" d="M14403 5952l-95 0c-28,0 -51,-22 -51,-50l0 -125c0,-28 23,-50 51,-50l95 0c28,0 51,22 51,50l0 125c0,28 -23,50 -51,50z"/>
     <path class="fil22 str2" d="M14355 5096l0 -1214"/>
     <g>
      <path class="fil13" d="M14122 4151c-18,0 -33,15 -33,34 0,18 15,33 33,33 19,0 34,-15 34,-33 0,-19 -15,-34 -34,-34zm440 0c-18,0 -33,15 -33,34 0,18 15,33 33,33 19,0 34,-15 34,-33 0,-19 -15,-34 -34,-34z"/>
      <path id="1" class="fil14" d="M14122 4185l-66 0 0 0 0 -3 0 -4 0 -3 1 -2 0 -3 1 -3 1 -3 1 -3 2 -3 1 -2 1 -3 2 -2 2 -3 2 -2 2 -3 2 -2 2 -2 2 -2 3 -2 3 -2 2 -2 3 -1 3 -2 3 -1 3 -1 3 -1 4 -1 3 -1 4 -1 3 0 4 -1 3 0 0 60 1 0 0 0 0 0 0 0 0 0 1 0 0 0 0 0 0 0 0 0 0 0 0 0 0 0 0 0 0 0 0 0 0 0 0 0 -1 0 0 0 0 0 0 1 0 0 0 0 0 0 0 1 0 0 0 0 0 1 -1 0 0 0 0 1 0 0zm0 0c0,16 -15,29 -33,29 -19,0 -33,-13 -33,-29l66 0zm0 3l0 60 0 0 -3 0 -4 0 -3 -1 -4 -1 -3 0 -4 -1 -3 -1 -3 -2 -3 -1 -3 -2 -3 -1 -2 -2 -3 -2 -3 -2 -2 -2 -2 -2 -2 -2 -2 -2 -2 -3 -2 -2 -2 -3 -1 -2 -1 -3 -2 -3 -1 -3 -1 -2 -1 -3 0 -3 -1 -3 0 -3 0 -3 0 -3 66 0 0 0 0 0 1 1 0 0 0 0 0 1 0 0 0 0 0 0 0 1 0 0 0 0 0 0 1 0 0 0 0 0 0 1 0 0 0 0 0 0 0 0 0 0 0 0 0 0 0 -1 0 0 -1 0 0 0 0 0 0 0 0 0 -1 0 0 0zm0 0c19,0 34,14 34,30 0,17 -15,30 -34,30l0 -60zm0 -3l67 0 0 0 0 3 0 3 0 3 -1 3 0 3 -1 3 -1 2 -1 3 -2 3 -1 3 -1 2 -2 3 -2 2 -2 3 -2 2 -2 2 -2 2 -2 2 -3 2 -3 2 -2 2 -3 1 -3 2 -3 1 -3 2 -4 1 -3 1 -3 0 -4 1 -3 1 -4 0 -4 0 0 -60 0 0 0 0 0 0 0 0 -1 0 0 0 0 0 0 1 0 0 0 0 0 0 0 0 0 0 0 0 0 0 0 -1 0 0 0 0 0 0 1 0 0 0 0 0 0 -1 0 0 0 0 0 0 0 -1 0 0 0 0 0 -1 0 0 0 0 0 0zm0 0c0,-17 15,-30 34,-30 18,0 33,13 33,30l-67 0zm0 -4l0 -60 0 0 4 0 4 1 3 0 4 1 3 1 3 1 4 1 3 1 3 1 3 2 3 1 2 2 3 2 3 2 2 2 2 2 2 2 2 3 2 2 2 3 2 2 1 3 1 2 2 3 1 3 1 3 1 3 0 3 1 2 0 3 0 4 0 3 -67 0 0 -1 0 0 0 0 0 -1 0 0 0 0 0 -1 0 0 0 0 0 0 0 -1 0 0 -1 0 0 0 0 0 0 0 0 0 0 0 0 0 0 0 0 0 0 0 0 0 0 0 0 0 0 0 0 0 1 0 0 0 0 0 0 0 0 0 0 0zm0 0c-18,0 -33,-13 -33,-30 0,-16 15,-30 33,-30l0 60zm440 4l-67 0 0 0 0 -3 1 -4 0 -3 1 -2 0 -3 1 -3 1 -3 1 -3 1 -3 2 -2 1 -3 2 -2 2 -3 2 -2 2 -3 2 -2 2 -2 2 -2 3 -2 2 -2 3 -2 3 -1 3 -2 3 -1 3 -1 3 -1 4 -1 3 -1 4 -1 3 0 4 -1 3 0 0 60 0 0 1 0 0 0 0 0 0 0 0 0 0 0 1 0 0 0 0 0 0 0 0 0 0 0 0 0 0 0 0 0 0 0 -1 0 0 0 0 0 0 0 0 1 0 0 0 0 0 0 0 1 -1 0 0 0 0 1 0 0 0 0 0 1 0 0zm0 0c0,16 -15,29 -33,29 -19,0 -34,-13 -34,-29l67 0zm0 3l0 60 0 0 -3 0 -4 0 -3 -1 -4 -1 -3 0 -4 -1 -3 -1 -3 -2 -3 -1 -3 -2 -3 -1 -3 -2 -2 -2 -3 -2 -2 -2 -2 -2 -2 -2 -2 -2 -2 -3 -2 -2 -2 -3 -1 -2 -2 -3 -1 -3 -1 -3 -1 -2 -1 -3 0 -3 -1 -3 0 -3 -1 -3 0 -3 67 0 0 0 0 0 0 1 0 0 0 0 1 1 0 0 0 0 0 0 0 1 0 0 0 0 0 0 0 0 0 0 1 0 0 1 0 0 0 0 0 0 0 0 0 0 0 0 0 0 -1 -1 0 0 0 0 0 0 0 0 0 0 -1 0 0 0 0 0zm0 0c19,0 34,14 34,30 0,17 -15,30 -34,30l0 -60zm0 -3l67 0 0 0 0 3 0 3 0 3 -1 3 -1 3 0 3 -1 2 -2 3 -1 3 -1 3 -2 2 -1 3 -2 2 -2 3 -2 2 -2 2 -2 2 -3 2 -2 2 -3 2 -2 2 -3 1 -3 2 -3 1 -4 2 -3 1 -3 1 -4 0 -3 1 -3 1 -4 0 -4 0 0 -60 0 0 0 0 0 0 0 0 -1 0 0 0 0 0 0 1 0 0 0 0 0 0 0 0 0 0 0 0 0 0 0 -1 0 0 0 0 0 0 0 0 0 0 1 0 0 -1 0 0 0 0 0 0 0 -1 0 0 0 0 0 -1 0 0 0 0 0 0zm0 0c0,-17 15,-30 34,-30 18,0 33,13 33,30l-67 0zm0 -4l0 -60 0 0 4 0 4 1 3 0 3 1 4 1 3 1 3 1 4 1 3 1 3 2 3 1 2 2 3 2 2 2 3 2 2 2 2 2 2 3 2 2 2 3 1 2 2 3 1 2 1 3 2 3 1 3 0 3 1 3 1 2 0 3 0 4 0 3 -67 0 0 -1 0 0 0 0 0 -1 0 0 0 0 0 -1 0 0 0 0 0 0 -1 -1 0 0 0 0 0 0 0 0 0 0 0 0 0 0 0 0 0 0 0 0 0 0 0 0 0 0 0 0 0 0 0 0 1 0 0 0 0 0 0 0 0 0 0 0zm0 0c-18,0 -33,-13 -33,-30 0,-16 15,-30 33,-30l0 60z"/>
     </g>
    </g>
   </g>
   <g>
    <path class="fil36 str3" d="M12296 9002l0 6364c-1210,0 -3383,0 -4593,0l0 -6364 4593 0z"/>
    <g>
     <path class="fil37 str4" d="M7982 11798l49 0 0 320 215 -320 53 0 0 404 -49 0 0 -319 -214 319 -54 0 0 -404zm464 272l0 -39c20,0 35,-1 42,-3 8,-1 15,-6 22,-13 7,-7 10,-16 10,-27 0,-14 -4,-24 -13,-32 -9,-8 -21,-12 -35,-12 -28,0 -47,16 -59,49l-47 -8c15,-55 50,-82 106,-82 32,0 56,9 74,26 18,17 27,37 27,61 0,23 -12,42 -35,56 15,8 26,18 33,31 7,12 11,26 11,43 0,26 -9,48 -29,64 -19,16 -45,25 -80,25 -67,0 -105,-30 -116,-89l47 -10c4,18 13,33 26,43 13,10 27,15 44,15 17,0 31,-4 42,-14 11,-9 16,-21 16,-36 0,-11 -3,-21 -10,-30 -7,-8 -14,-13 -22,-15 -8,-3 -22,-4 -43,-4 -2,0 -6,1 -11,1zm401 -281l44 0c-2,20 -7,34 -14,41 -6,8 -15,13 -25,15 -11,2 -32,3 -62,3 -41,0 -69,4 -84,12 -15,8 -25,21 -32,38 -6,18 -10,40 -11,67 13,-18 27,-32 44,-42 17,-9 36,-14 57,-14 38,0 70,14 95,40 25,26 38,62 38,107 0,34 -7,62 -19,84 -13,22 -28,39 -45,51 -18,12 -41,18 -71,18 -35,0 -62,-8 -81,-24 -20,-16 -34,-36 -45,-61 -10,-25 -15,-68 -15,-130 0,-77 13,-129 39,-156 26,-26 66,-40 120,-40 34,0 53,0 58,-1 4,-2 7,-4 9,-8zm-2 266c0,-31 -7,-56 -22,-75 -14,-20 -35,-29 -61,-29 -27,0 -48,10 -63,30 -15,21 -22,48 -22,83 0,34 8,60 24,77 17,18 37,27 61,27 25,0 45,-10 60,-31 15,-21 23,-48 23,-82zm111 -146l50 0 0 224 138 -224 54 0 0 293 -50 0 0 -222 -138 222 -54 0 0 -293zm316 406l0 -406 45 0 0 39c11,-15 23,-26 36,-34 13,-7 30,-11 49,-11 25,0 47,7 66,19 19,13 33,31 43,55 10,23 15,49 15,77 0,30 -6,56 -16,80 -11,24 -27,43 -47,55 -21,13 -42,20 -65,20 -16,0 -31,-4 -44,-11 -13,-7 -24,-16 -33,-26l0 143 -49 0zm45 -257c0,37 8,65 23,83 15,18 33,27 55,27 22,0 41,-9 56,-28 16,-19 24,-47 24,-86 0,-38 -8,-66 -23,-84 -15,-19 -34,-28 -55,-28 -21,0 -39,10 -56,30 -16,19 -24,48 -24,86zm460 108c-18,15 -36,26 -53,33 -17,6 -35,10 -55,10 -32,0 -57,-8 -74,-24 -18,-16 -26,-36 -26,-60 0,-14 3,-27 10,-39 6,-12 15,-21 25,-29 11,-7 23,-12 36,-16 10,-2 25,-5 44,-7 40,-5 70,-11 89,-17 0,-7 0,-11 0,-13 0,-20 -5,-35 -14,-43 -13,-11 -32,-17 -57,-17 -23,0 -40,5 -51,13 -12,8 -20,22 -25,43l-49 -6c5,-21 12,-38 22,-51 10,-13 25,-22 44,-29 19,-7 42,-11 67,-11 25,0 45,3 61,9 15,6 27,13 34,22 8,9 13,20 16,34 2,9 2,24 2,46l0 66c0,46 1,75 3,87 2,12 7,24 13,35l-52 0c-5,-10 -9,-22 -10,-36zm-4 -110c-18,7 -45,13 -81,18 -21,3 -35,6 -44,10 -8,4 -15,9 -19,16 -5,7 -7,15 -7,24 0,13 5,24 15,32 10,9 25,14 44,14 19,0 36,-5 51,-13 15,-8 26,-20 33,-34 5,-11 8,-28 8,-49l0 -18zm88 -147l237 0 0 42 -93 0 0 251 -50 0 0 -251 -94 0 0 -42zm478 199l52 6c-8,30 -23,53 -45,70 -22,16 -50,25 -84,25 -42,0 -76,-14 -101,-40 -25,-26 -38,-63 -38,-111 0,-49 13,-87 38,-114 25,-27 58,-41 98,-41 40,0 71,13 96,40 25,27 37,64 37,112 0,3 0,8 0,14l-218 0c2,32 11,56 27,73 16,17 37,26 61,26 18,0 34,-5 47,-14 13,-10 23,-25 30,-46zm-162 -80l163 0c-2,-25 -9,-43 -19,-55 -16,-20 -36,-29 -61,-29 -23,0 -42,7 -58,23 -15,15 -24,35 -25,61zm282 -119l231 0 0 293 -50 0 0 -251 -131 0 0 145c0,34 -2,57 -4,68 -2,10 -8,20 -18,28 -10,8 -24,12 -43,12 -11,0 -25,-1 -40,-2l0 -41 22 0c10,0 17,-1 22,-4 4,-2 7,-5 9,-10 1,-4 2,-19 2,-45l0 -193zm304 0l50 0 0 115 62 0c41,0 73,8 95,24 22,16 33,38 33,66 0,24 -9,45 -27,62 -19,18 -48,26 -89,26l-124 0 0 -293zm50 253l52 0c31,0 54,-4 67,-12 14,-8 21,-20 21,-36 0,-13 -5,-24 -15,-34 -10,-10 -32,-15 -67,-15l-58 0 0 97zm245 -253l50 0 0 122 137 0 0 -122 50 0 0 293 -50 0 0 -129 -137 0 0 129 -50 0 0 -293zm591 0l49 0 0 293 -49 0 0 -293zm-278 0l50 0 0 115 63 0c41,0 72,8 94,24 22,16 33,38 33,66 0,24 -9,45 -27,62 -19,18 -48,26 -89,26l-124 0 0 -293zm50 253l52 0c32,0 54,-4 67,-12 14,-8 21,-20 21,-36 0,-13 -5,-24 -15,-34 -10,-10 -32,-15 -66,-15l-59 0 0 97zm354 -253l50 0 0 224 138 -224 53 0 0 293 -49 0 0 -222 -138 222 -54 0 0 -293zm172 -108l34 0c-3,23 -11,41 -25,54 -14,12 -33,18 -57,18 -23,0 -42,-6 -56,-18 -14,-13 -22,-31 -25,-54l34 0c2,13 7,22 15,28 8,7 18,10 31,10 15,0 26,-3 34,-9 7,-6 13,-16 15,-29zm-2781 739l49 0 0 126c16,0 27,-3 34,-9 6,-6 15,-23 28,-53 9,-23 17,-38 23,-45 6,-8 13,-13 21,-15 8,-3 21,-4 38,-4l10 0 0 41 -14 0c-13,0 -21,2 -25,5 -3,5 -9,17 -17,37 -8,19 -15,32 -21,39 -6,8 -16,14 -29,21 21,5 42,25 63,59l55 91 -55 0 -54 -91c-10,-18 -20,-30 -28,-36 -8,-6 -18,-9 -29,-9l0 136 -49 0 0 -293zm235 146c0,-54 15,-94 45,-120 25,-21 56,-32 92,-32 40,0 73,13 99,39 25,27 38,63 38,109 0,38 -6,67 -17,89 -11,22 -28,38 -49,50 -22,12 -45,18 -71,18 -41,0 -74,-13 -99,-39 -26,-26 -38,-64 -38,-114zm51 1c0,37 8,65 24,84 17,18 37,28 62,28 25,0 45,-10 62,-29 16,-18 24,-47 24,-85 0,-36 -8,-64 -24,-82 -17,-19 -37,-28 -62,-28 -25,0 -45,9 -62,28 -16,18 -24,46 -24,84zm308 -147l204 0 0 252 32 0 0 124 -41 0 0 -83 -231 0 0 83 -40 0 0 -124 26 0c35,-47 51,-131 50,-252zm41 41c-4,95 -18,166 -44,211l157 0 0 -211 -113 0zm449 157l51 7c-8,30 -23,53 -44,69 -22,17 -50,25 -84,25 -43,0 -77,-13 -102,-39 -25,-27 -37,-64 -37,-111 0,-49 12,-87 38,-114 25,-28 58,-41 98,-41 39,0 71,13 96,40 25,26 37,64 37,112 0,3 0,7 0,13l-218 0c2,32 11,57 27,74 16,17 37,26 61,26 18,0 34,-5 46,-15 13,-9 23,-25 31,-46zm-163 -79l164 0c-3,-25 -9,-44 -19,-56 -16,-19 -36,-29 -61,-29 -23,0 -42,8 -58,23 -15,16 -24,36 -26,62zm277 -119l49 0 0 126c16,0 27,-3 34,-9 6,-6 15,-23 28,-53 9,-23 17,-38 23,-45 6,-8 13,-13 21,-15 8,-3 21,-4 38,-4l10 0 0 41 -14 0c-13,0 -21,2 -25,5 -3,5 -9,17 -17,37 -8,19 -15,32 -21,39 -6,8 -16,14 -29,21 21,5 42,25 63,59l55 91 -55 0 -54 -91c-10,-18 -20,-30 -28,-36 -8,-6 -18,-9 -29,-9l0 136 -49 0 0 -293zm445 186l48 6c-5,34 -19,60 -41,79 -21,19 -48,28 -80,28 -40,0 -73,-13 -97,-39 -24,-26 -36,-64 -36,-112 0,-32 5,-60 15,-83 11,-24 27,-42 48,-53 22,-12 45,-18 70,-18 32,0 58,8 78,24 20,16 33,39 39,68l-48 8c-5,-20 -13,-35 -25,-45 -11,-10 -25,-15 -42,-15 -25,0 -45,9 -61,27 -16,18 -24,46 -24,85 0,40 8,68 23,86 15,18 35,27 59,27 20,0 36,-6 49,-18 13,-12 21,-31 25,-55zm-2607 738l156 -210 -138 -195 64 0 74 104c15,21 26,38 32,49 9,-14 20,-29 32,-45l81 -108 58 0 -140 192 151 213 -66 0 -102 -145c-6,-8 -11,-16 -16,-24 -9,13 -16,23 -20,28l-102 141 -64 0zm602 -37c-18,16 -36,27 -53,33 -17,7 -35,10 -55,10 -32,0 -57,-8 -74,-24 -17,-15 -26,-35 -26,-60 0,-14 3,-27 10,-39 6,-12 15,-21 25,-28 11,-8 23,-13 36,-17 10,-2 25,-5 44,-7 40,-5 70,-11 89,-17 0,-7 0,-11 0,-13 0,-20 -4,-34 -14,-43 -12,-11 -31,-16 -56,-16 -24,0 -41,4 -52,12 -11,8 -20,23 -25,43l-49 -6c5,-21 12,-38 22,-51 10,-13 25,-22 44,-29 19,-7 42,-11 67,-11 25,0 45,3 61,9 16,6 27,13 35,22 7,9 12,21 15,34 2,9 3,24 3,46l0 66c0,46 1,75 3,87 2,12 6,24 12,36l-52 0c-5,-11 -8,-23 -10,-37zm-4 -110c-18,7 -45,13 -81,18 -20,3 -35,7 -43,10 -9,4 -15,9 -20,16 -5,7 -7,15 -7,24 0,13 5,24 15,33 10,8 25,13 44,13 19,0 36,-4 51,-13 15,-8 26,-19 33,-34 5,-11 8,-27 8,-49l0 -18zm340 -267l44 0c-2,20 -6,34 -13,41 -7,8 -15,13 -26,15 -10,2 -31,4 -62,4 -40,0 -68,4 -83,11 -15,8 -26,21 -32,38 -7,18 -10,40 -11,67 13,-18 27,-32 44,-42 17,-9 35,-13 56,-13 39,0 70,13 96,39 25,26 37,62 37,107 0,34 -6,62 -19,84 -12,22 -27,39 -45,51 -17,12 -41,18 -71,18 -34,0 -61,-8 -81,-24 -19,-16 -34,-36 -44,-61 -10,-25 -16,-68 -16,-129 0,-78 13,-130 40,-156 26,-27 66,-41 120,-41 34,0 53,0 57,-1 5,-1 8,-4 9,-8zm-1 266c0,-31 -8,-56 -22,-75 -15,-20 -35,-29 -61,-29 -27,0 -49,10 -63,31 -15,20 -23,48 -23,82 0,34 8,60 25,78 16,18 37,27 61,27 24,0 44,-11 60,-32 15,-20 23,-48 23,-82zm290 111c-19,16 -37,27 -54,33 -17,7 -35,10 -55,10 -32,0 -56,-8 -74,-24 -17,-15 -26,-35 -26,-60 0,-14 4,-27 10,-39 7,-12 15,-21 26,-28 10,-8 22,-13 35,-17 10,-2 25,-5 45,-7 40,-5 69,-11 88,-17 0,-7 1,-11 1,-13 0,-20 -5,-34 -15,-43 -12,-11 -31,-16 -56,-16 -24,0 -41,4 -52,12 -11,8 -19,23 -25,43l-48 -6c4,-21 11,-38 22,-51 10,-13 24,-22 44,-29 19,-7 41,-11 66,-11 25,0 46,3 61,9 16,6 28,13 35,22 7,9 12,21 15,34 2,9 3,24 3,46l0 66c0,46 1,75 3,87 2,12 6,24 12,36l-52 0c-5,-11 -8,-23 -9,-37zm-4 -110c-18,7 -46,13 -82,18 -20,3 -35,7 -43,10 -9,4 -15,9 -20,16 -4,7 -7,15 -7,24 0,13 5,24 15,33 10,8 25,13 44,13 19,0 37,-4 51,-13 15,-8 26,-19 33,-34 6,-11 8,-27 8,-49l1 -18zm126 259l0 -405 45 0 0 38c11,-15 23,-26 36,-33 14,-8 30,-12 49,-12 25,0 47,7 66,20 19,12 34,31 44,54 9,23 14,49 14,77 0,30 -5,57 -16,81 -11,23 -26,42 -47,55 -20,12 -42,19 -64,19 -17,0 -32,-4 -45,-11 -13,-7 -24,-15 -32,-26l0 143 -50 0zm45 -257c0,37 8,65 23,83 15,18 34,27 55,27 22,0 41,-9 57,-28 15,-18 23,-47 23,-86 0,-38 -7,-65 -23,-84 -15,-18 -33,-28 -54,-28 -22,0 -40,10 -56,30 -17,20 -25,48 -25,86zm250 -2c0,-54 15,-94 46,-120 25,-22 56,-33 92,-33 40,0 73,14 98,40 26,26 39,63 39,109 0,38 -6,67 -17,89 -12,21 -28,38 -50,50 -21,12 -45,18 -70,18 -41,0 -74,-13 -100,-40 -25,-26 -38,-64 -38,-113zm51 0c0,38 8,66 25,84 16,19 37,28 62,28 24,0 45,-9 61,-28 17,-19 25,-47 25,-85 0,-37 -8,-64 -25,-82 -16,-19 -37,-28 -61,-28 -25,0 -46,9 -62,27 -17,19 -25,47 -25,84zm282 -146l114 0c28,0 49,2 63,7 14,4 25,13 35,25 10,13 15,28 15,45 0,14 -3,27 -9,37 -6,11 -14,19 -26,26 14,5 25,13 34,26 9,12 14,27 14,45 -2,27 -12,48 -30,61 -18,14 -44,21 -78,21l-132 0 0 -293zm50 123l52 0c21,0 36,-1 44,-3 7,-2 15,-7 21,-14 6,-6 9,-14 9,-24 0,-15 -5,-26 -16,-32 -11,-6 -30,-9 -56,-9l-54 0 0 82zm0 129l65 0c28,0 47,-3 58,-10 10,-6 15,-18 16,-34 0,-9 -3,-18 -9,-26 -6,-8 -14,-13 -24,-15 -9,-2 -25,-3 -46,-3l-60 0 0 88zm435 -67l48 7c-5,33 -18,59 -40,78 -22,19 -49,29 -81,29 -40,0 -72,-13 -97,-40 -24,-26 -36,-63 -36,-112 0,-31 5,-59 16,-83 10,-23 26,-41 47,-53 22,-12 45,-18 70,-18 32,0 58,8 78,24 20,17 33,39 39,69l-48 7c-5,-19 -13,-34 -25,-44 -11,-10 -25,-15 -42,-15 -25,0 -45,9 -61,27 -16,18 -23,46 -23,85 0,39 7,68 22,85 15,18 35,27 59,27 20,0 36,-6 49,-18 13,-12 21,-30 25,-55zm90 -185l50 0 0 126c16,0 27,-3 33,-9 6,-6 16,-24 28,-53 10,-23 18,-38 24,-46 6,-7 13,-12 21,-15 8,-2 21,-3 38,-3l10 0 0 40 -14 0c-13,0 -21,2 -25,6 -4,4 -10,16 -18,36 -7,19 -14,33 -20,40 -7,7 -16,14 -29,20 21,6 42,26 63,60l54 91 -54 0 -54 -91c-11,-18 -20,-30 -28,-36 -8,-6 -18,-9 -29,-9l0 136 -50 0 0 -293zm235 146c0,-54 15,-94 46,-120 25,-22 56,-33 92,-33 40,0 73,14 98,40 26,26 39,63 39,109 0,38 -6,67 -17,89 -12,21 -28,38 -50,50 -21,12 -45,18 -70,18 -41,0 -74,-13 -100,-40 -25,-26 -38,-64 -38,-113zm51 0c0,38 8,66 25,84 16,19 37,28 62,28 24,0 45,-9 61,-28 17,-19 25,-47 25,-85 0,-37 -8,-64 -25,-82 -16,-19 -37,-28 -61,-28 -25,0 -46,9 -62,27 -17,19 -25,47 -25,84zm282 -146l169 0 0 41 -119 0 0 252 -50 0 0 -293zm175 146c0,-54 15,-94 45,-120 25,-22 56,-33 92,-33 40,0 73,14 99,40 25,26 38,63 38,109 0,38 -6,67 -17,89 -11,21 -28,38 -49,50 -22,12 -45,18 -71,18 -41,0 -74,-13 -99,-40 -26,-26 -38,-64 -38,-113zm51 0c0,38 8,66 24,84 17,19 37,28 62,28 25,0 45,-9 62,-28 16,-19 24,-47 24,-85 0,-37 -8,-64 -25,-82 -16,-19 -36,-28 -61,-28 -25,0 -45,9 -62,27 -16,19 -24,47 -24,84zm-2106 484l50 0 0 127c16,0 27,-3 33,-10 6,-6 16,-23 28,-52 10,-24 18,-39 24,-46 6,-7 13,-12 21,-15 8,-3 20,-4 38,-4l10 0 0 41 -14 0c-13,0 -21,2 -25,6 -4,4 -10,16 -18,36 -7,19 -14,32 -20,40 -7,7 -16,14 -29,20 21,5 42,25 63,59l54 91 -54 0 -54 -90c-11,-19 -20,-31 -28,-37 -8,-5 -18,-8 -29,-8l0 135 -50 0 0 -293zm248 405l0 -405 45 0 0 39c10,-15 22,-26 36,-34 13,-7 30,-11 49,-11 25,0 47,6 66,19 19,13 33,31 43,55 10,23 15,49 15,76 0,30 -6,57 -17,81 -10,24 -26,42 -46,55 -21,13 -42,19 -65,19 -16,0 -31,-3 -44,-10 -14,-7 -24,-16 -33,-26l0 142 -49 0zm45 -257c0,38 7,66 23,84 15,18 33,27 55,27 22,0 41,-10 56,-28 16,-19 24,-48 24,-87 0,-37 -8,-65 -23,-83 -16,-19 -34,-28 -55,-28 -21,0 -40,10 -56,29 -16,20 -24,49 -24,86z"/>
     <path class="fil37 str4" d="M10195 14057c-19,16 -36,27 -53,34 -17,6 -36,9 -55,9 -32,0 -57,-8 -74,-23 -18,-16 -26,-36 -26,-60 0,-15 3,-28 9,-39 7,-12 16,-22 26,-29 11,-7 23,-12 36,-16 10,-3 24,-5 44,-8 40,-4 70,-10 89,-17 0,-6 0,-11 0,-12 0,-21 -5,-35 -14,-43 -13,-11 -32,-17 -57,-17 -23,0 -41,4 -52,12 -11,9 -19,23 -24,44l-49 -7c4,-21 12,-37 22,-50 10,-13 25,-23 44,-30 19,-7 41,-10 66,-10 26,0 46,3 62,9 15,6 27,13 34,22 8,9 13,20 16,34 1,8 2,24 2,45l0 66c0,46 1,75 3,88 2,12 6,24 12,35l-52 0c-5,-10 -8,-23 -9,-37zm-4 -110c-18,8 -45,14 -81,19 -21,3 -35,6 -44,10 -8,4 -15,9 -19,16 -5,7 -7,15 -7,23 0,13 5,24 15,33 10,9 24,13 44,13 19,0 36,-4 51,-12 15,-8 26,-20 33,-34 5,-11 8,-28 8,-50l0 -18zm357 -146l0 293 -49 0 0 -114 -29 0c-17,0 -30,2 -39,7 -8,5 -21,19 -37,43l-44 64 -62 0 54 -79c16,-24 33,-37 49,-40 -28,-4 -49,-14 -63,-31 -14,-17 -21,-36 -21,-57 0,-26 9,-46 27,-62 18,-16 44,-24 78,-24l136 0zm-49 41l-71 0c-29,0 -49,5 -57,14 -9,9 -13,20 -13,33 0,17 6,30 19,38 12,8 35,12 67,12l55 0 0 -97z"/>
    </g>
    <g>
     <path class="fil38" d="M10163 11137l-13 43c-1,1 -3,0 -3,1l-21 8c-2,2 -4,5 -5,7 -1,1 -3,4 -5,7l-22 -13 -13 26 -27 -36 -10 27c-10,-11 -17,-17 -32,-29l-102 -4c-27,2 -28,11 -49,22l8 -49c-4,4 -4,6 -16,13 -1,1 -19,10 -23,12l10 -40c3,1 2,1 2,1l-27 11 15 -80c-101,-40 -121,-117 -209,-126 -9,-18 19,2 -25,-29 -27,-20 -2,-17 -35,-47l28 0c-42,-43 -7,-14 -28,-71 -12,-34 -23,-68 -27,-107 25,10 47,40 64,60 52,62 164,136 265,103l-87 -13c-40,-4 -41,-1 -74,-22l-204 -193c-39,-53 -52,-37 -59,-63 -6,-21 1,-22 2,-24 1,-1 9,-14 11,-17 -28,5 -18,8 -37,-1 18,-13 22,-15 35,-26l-13 -31c10,-13 17,-18 28,-29 39,-45 -12,-16 29,-49 73,-58 138,-230 377,-335l40 -26c-39,-47 -38,-27 -86,-36 -3,-1 -22,-8 -23,-8 -51,-30 -24,-51 -23,-69 -12,14 -15,11 -40,12 -78,4 -83,-19 -73,-71l36 -15 11 38c74,6 126,13 196,23 -22,-84 -119,-24 -162,-39l-9 -50c-9,-28 -14,-30 -24,-55l8 -5c25,-14 274,-38 290,-38 -13,-31 -21,-32 -16,-70 44,-27 71,-31 124,2 -10,25 -15,46 -30,73 67,-2 7,-88 98,-89 52,0 106,52 130,73 -2,2 -6,1 -7,4l-56 43c-19,11 -9,1 -28,16 36,68 97,101 112,106 -3,2 -6,2 -8,6 -6,25 -6,-3 -20,19l49 27c-3,10 -2,5 -7,13 -5,10 -3,1 -6,13l55 27c-15,9 -19,6 -22,9 -23,14 -7,-3 -26,20l105 50c0,-2 -4,-3 -5,0 -4,12 -4,0 -29,17l41 11 -30 23c22,20 25,4 34,31 0,0 0,2 0,3l53 155c25,64 51,200 89,243 -20,15 2,-1 -22,5 -1,0 -4,0 -5,1 -1,0 -4,1 -5,1l16 59 -47 -24 13 42c2,-1 -1,-2 -1,0 -5,18 6,-3 -18,5 -1,1 -4,2 -6,3l16 34 -32 -15c6,24 2,12 14,36 -30,-11 -22,-23 -59,16l26 -4c-12,73 -52,139 -32,183 0,0 28,-4 -17,23l32 13c-55,30 -22,9 -22,25l-12 26c0,0 -1,2 -1,3 -72,3 -114,74 -246,116 -39,13 -76,15 -41,59zm-152 217c31,-81 101,-105 213,-105 537,0 521,28 521,-420 0,-417 9,-843 0,-1259l-1478 4c-3,421 -3,843 -4,1264 -1,448 -33,412 530,412 52,0 95,7 134,29 45,24 54,52 84,75z"/>
     <path class="fil39" d="M9900 10856c-1,-1 -4,-2 -5,-6 -1,-3 -3,-3 -5,-5 45,17 87,65 104,96 44,-26 37,-61 86,-94 -123,206 -61,59 -232,207 36,-58 90,-83 145,-108l-93 -90zm-4 -32c19,-28 4,-28 31,-46 32,13 45,7 13,36 -14,13 -21,12 -44,10zm95 -74l39 -14 4 21 11 25c9,27 14,28 26,47 -49,-5 -34,-14 -64,-21 -15,-18 -23,22 -14,-21l-2 -37zm-74 30c8,-46 13,-37 -7,-77 83,34 -1,17 57,41l-9 12c-14,21 -1,20 -41,24zm143 -77c-6,8 -10,18 -21,24 -37,18 -29,-5 -31,-8l52 -16zm-76 -635c27,-25 -27,22 16,-11 19,5 20,5 35,20l10 -21 52 17c-25,21 31,24 -41,7 15,47 6,15 -6,27 -73,-36 2,27 -84,-20l18 -19zm131 140l88 6 2 345 -6 23 -1 26c54,-96 49,-158 68,-188l21 -23c-4,68 -21,136 -41,191 -21,57 -10,30 -48,48 -28,14 -22,27 -62,15 -38,26 -99,-5 -146,51 -74,-53 -47,-29 -117,-40l-38 -13c-73,47 -176,-224 -138,-292 -4,45 19,205 61,226 20,10 3,16 17,-2 -9,-9 -7,16 -10,-22l4 -349 131 -3c-23,-42 -44,-75 -63,-130 40,27 61,47 111,65 74,27 188,-79 404,-86 -70,49 -195,83 -237,152zm55 -186c16,11 9,4 19,14l13 19c-92,27 -36,-26 -36,-26 0,-4 3,-5 4,-7zm76 14c0,-2 -2,4 -4,7 -31,-11 -31,-11 -50,-45l50 9c-11,-3 -6,-2 -14,-26 88,16 45,5 76,-3 14,18 6,5 16,23 -21,14 -17,9 -44,2l11 23 -50 -4c16,5 9,14 9,14zm-445 -117c4,-2 5,-12 42,-7 30,4 24,5 39,17 -36,5 -48,7 -81,-10zm194 -144c-16,22 -15,19 -44,31l-17 -29c17,-7 4,-15 20,13 38,-29 -14,-35 41,-15zm157 -54c2,-47 36,-40 73,-30 -32,49 -47,41 -73,30zm-243 171c-10,29 3,10 -17,25l-113 -12c-1,18 -28,39 23,69 1,0 20,7 23,8 48,9 47,-11 86,36l-40 26c-239,105 -304,277 -377,335 -41,33 10,4 -29,49 -11,11 -18,16 -28,29l13 31c-13,11 -17,13 -35,26 19,9 9,6 37,1 -2,3 -10,16 -11,17 -1,2 -8,3 -2,24 7,26 20,10 59,63l204 193c33,21 34,18 74,22l87 13c-101,33 -213,-41 -265,-103 -17,-20 -39,-50 -64,-60 4,39 15,73 27,107 21,57 -14,28 28,71l-28 0c33,30 8,27 35,47 44,31 16,11 25,29 88,9 108,86 209,126 8,9 7,-5 22,31 22,51 -22,-5 9,19l13 7c1,-3 6,3 8,5 -6,8 3,17 -13,21l-8 49c21,-11 22,-20 49,-22l102 4 -4 -24c32,16 72,14 96,5l12 -5c2,-2 4,-4 6,-5l41 -12c-35,-44 2,-46 41,-59 132,-42 174,-113 246,-116 0,-1 1,-3 1,-3l12 -26c0,-16 -33,5 22,-25l-32 -13c45,-27 17,-23 17,-23 -20,-44 20,-110 32,-183l-26 4c37,-39 29,-27 59,-16 -12,-24 -8,-12 -14,-36l32 15 -16 -34c2,-1 5,-2 6,-3 24,-8 13,13 18,-5 0,-2 3,-1 1,0l-13 -42 47 24 -16 -59c1,0 4,-1 5,-1 1,-1 4,-1 5,-1 24,-6 2,10 22,-5 -38,-43 -64,-179 -89,-243l-53 -155c0,-1 0,-3 0,-3 -9,-27 -12,-11 -34,-31l30 -23 -41 -11c25,-17 25,-5 29,-17 1,-3 5,-2 5,0l-105 -50c19,-23 3,-6 26,-20 3,-3 7,0 22,-9l-55 -27c3,-12 1,-3 6,-13 5,-8 4,-3 7,-13l-49 -27c14,-22 14,6 20,-19 2,-4 5,-4 8,-6 -15,-5 -76,-38 -112,-106 19,-15 9,-5 28,-16l56 -43c1,-3 5,-2 7,-4 -24,-21 -78,-73 -130,-73 -91,1 -31,87 -98,89 15,-27 20,-48 30,-73 -53,-33 -80,-29 -124,-2 -5,38 3,39 16,70 -16,0 -265,24 -290,38l-8 5c10,25 15,27 24,55l9 50c43,15 140,-45 162,39z"/>
     <path class="fil40" d="M10011 11354c-30,-23 -39,-51 -84,-75 -39,-22 -82,-29 -134,-29 -563,0 -531,36 -530,-412 1,-421 1,-843 4,-1264l1478 -4c9,416 0,842 0,1259 0,448 16,420 -521,420 -112,0 -182,24 -213,105zm-786 -1723l0 1396c0,354 361,237 602,262 132,14 101,116 172,116 87,0 32,-101 172,-116 246,-25 603,96 603,-271l0 -1387c0,-45 -8,-40 -9,-81 -42,-3 -45,-18 -90,-18l-1351 0c-71,0 -99,28 -99,99z"/>
     <path class="fil41" d="M9789 10570l-14 11c-14,18 3,12 -17,2 -42,-21 -65,-181 -61,-226 -38,68 65,339 138,292 23,-16 62,-47 81,-66 31,-34 37,-49 74,-70 72,53 126,123 146,138 40,12 34,-1 62,-15 38,-18 27,9 48,-48 20,-55 37,-123 41,-191l-21 23c-19,30 -14,92 -68,188l1 -26 -9 -11c-26,-13 -54,-43 -76,-64 -30,-30 -32,-46 -70,-74l2 -216c-37,-11 -81,-11 -119,-1l1 217 -139 137z"/>
     <path class="fil42" d="M9789 10570l139 -137 -1 -217 -157 -1 2 272c-1,100 -4,72 17,83z"/>
     <path class="fil42" d="M10190 10571c17,-24 7,-249 7,-300l0 -51 -151 -3 -2 216c38,28 40,44 70,74 22,21 50,51 76,64z"/>
     <path class="fil43" d="M9900 10207l215 1c42,-69 167,-103 237,-152 -216,7 -330,113 -404,86 -50,-18 -71,-38 -111,-65 19,55 40,88 63,130z"/>
     <path class="fil42" d="M9894 10621c35,-19 68,-11 87,-33 36,26 32,26 87,13l3 40c-51,-22 -24,-9 -48,-1 -43,15 -108,8 -129,-19zm-59 28l38 13c70,11 43,-13 117,40 47,-56 108,-25 146,-51 -20,-15 -74,-85 -146,-138 -37,21 -43,36 -74,70 -19,19 -58,50 -81,66z"/>
     <path class="fil44" d="M9697 9856c7,21 7,17 14,36l56 -4c-29,11 -70,9 -77,-10 -13,-34 4,-17 7,-22zm82 49l113 12c20,-15 7,4 17,-25 -70,-10 -122,-17 -196,-23l-11 -38 -36 15c-10,52 -5,75 73,71 25,-1 28,2 40,-12z"/>
     <path class="fil45" d="M9894 10621c21,27 86,34 129,19 24,-8 -3,-21 48,1l-3 -40c-55,13 -51,13 -87,-13 -19,22 -52,14 -87,33z"/>
     <path class="fil46" d="M9993 10946c-55,25 -109,50 -145,108 171,-148 109,-1 232,-207 -49,33 -42,68 -86,94 -17,-31 -59,-79 -104,-96 2,2 4,2 5,5 1,4 4,5 5,6l93 90z"/>
     <path class="fil47" d="M10012 11178c15,12 22,18 32,29l10 -27 27 36 13 -26 22 13c2,-3 4,-6 5,-7 1,-2 3,-5 5,-7l21 -8c0,-1 2,0 3,-1l13 -43 -41 12c-2,1 -4,3 -6,5l-12 5c-24,9 -64,11 -96,-5l4 24z"/>
     <path class="fil48" d="M10228 9981c8,24 3,23 14,26l-50 -9c19,34 19,34 50,45 2,-3 4,-9 4,-7 0,0 7,-9 -9,-14l50 4 -11 -23c27,7 23,12 44,-2 -10,-18 -2,-5 -16,-23 -31,8 12,19 -76,3z"/>
     <path class="fil48" d="M9966 10087c86,47 11,-16 84,20 12,-12 21,20 6,-27 72,17 16,14 41,-7l-52 -17 -10 21c-15,-15 -16,-15 -35,-20 -43,33 11,-14 -16,11l-18 19z"/>
     <path class="fil47" d="M9869 11147c16,-4 7,-13 13,-21 -2,-2 -7,-8 -8,-5l-13 -7c-31,-24 13,32 -9,-19 -15,-36 -14,-22 -22,-31l-15 80 27 -11c0,0 1,0 -2,-1l-10 40c4,-2 22,-11 23,-12 12,-7 12,-9 16,-13z"/>
     <path class="fil49" d="M10152 9721c26,11 41,19 73,-30 -37,-10 -71,-17 -73,30z"/>
     <path class="fil46" d="M9917 10780c40,-4 27,-3 41,-24l9 -12c-58,-24 26,-7 -57,-41 20,40 15,31 7,77z"/>
     <path class="fil48" d="M9896 10824c23,2 30,3 44,-10 32,-29 19,-23 -13,-36 -27,18 -12,18 -31,46z"/>
     <path class="fil50" d="M10007 10808c30,7 15,16 64,21 -12,-19 -17,-20 -26,-47 -37,-4 17,-14 -19,-1 -2,1 -5,2 -7,3 -35,19 1,-11 -12,24z"/>
     <path class="fil47" d="M10007 10808c13,-35 -23,-5 12,-24 2,-1 5,-2 7,-3 36,-13 -18,-3 19,1l-11 -25c-2,25 3,12 -8,23l-17 -20c0,-2 0,-3 -1,-5l-17 -5 2 37c-9,43 -1,3 14,21z"/>
     <path class="fil51" d="M10202 10055l-13 -19c-10,-10 -3,-3 -19,-14 -1,2 -4,3 -4,7 0,0 -56,53 36,26z"/>
     <path class="fil49" d="M9801 9919c33,17 45,15 81,10 -15,-12 -9,-13 -39,-17 -37,-5 -38,5 -42,7z"/>
     <path class="fil50" d="M9934 9777l17 29c29,-12 28,-9 44,-31 -55,-20 -3,-14 -41,15 -16,-28 -3,-20 -20,-13z"/>
     <path class="fil46" d="M9991 10750l17 5c1,2 1,3 1,5l17 20c11,-11 6,2 8,-23l-4 -21 -39 14z"/>
     <path class="fil46" d="M10008 10719c2,3 -6,26 31,8 11,-6 15,-16 21,-24l-52 16z"/>
     <path class="fil52" d="M9767 9888l-56 4c-7,-19 -7,-15 -14,-36 -3,5 -20,-12 -7,22 7,19 48,21 77,10z"/>
    </g>
   </g>
  </g>
 </g>
</svg>
