<?xml version="1.0" encoding="UTF-8"?>
<!DOCTYPE svg PUBLIC "-//W3C//DTD SVG 1.0//EN" "http://www.w3.org/TR/2001/REC-SVG-20010904/DTD/svg10.dtd">
<!-- Creator: CorelDRAW X7 -->
<svg xmlns="http://www.w3.org/2000/svg" xml:space="preserve" width="200mm" height="200mm" version="1.0" style="shape-rendering:geometricPrecision; text-rendering:geometricPrecision; image-rendering:optimizeQuality; fill-rule:evenodd; clip-rule:evenodd"
viewBox="0 0 20000 20000"
 xmlns:xlink="http://www.w3.org/1999/xlink">
 <defs>
  <style type="text/css">
   <![CDATA[
    .str3 {stroke:#4D897C;stroke-width:46.39}
    .str4 {stroke:#4D897C;stroke-width:50}
    .str2 {stroke:#004743;stroke-width:25}
    .str1 {stroke:#4E897C;stroke-width:25}
    .str0 {stroke:#034540;stroke-width:122.85;stroke-linecap:round;stroke-linejoin:round}
    .fil25 {fill:#4D897C}
    .fil8 {fill:#001B37}
    .fil5 {fill:#004641}
    .fil41 {fill:#121112}
    .fil29 {fill:#131414}
    .fil7 {fill:#141414}
    .fil9 {fill:#2955A9}
    .fil30 {fill:#2D2C2B}
    .fil4 {fill:#4D8A7D}
    .fil27 {fill:#542D1E}
    .fil40 {fill:#545251}
    .fil15 {fill:#5A5A5A}
    .fil34 {fill:#684532}
    .fil24 {fill:#72491D}
    .fil28 {fill:#774637}
    .fil19 {fill:#898989}
    .fil35 {fill:#8BA06D}
    .fil12 {fill:#960911}
    .fil18 {fill:#999999}
    .fil16 {fill:#AAAAAA}
    .fil2 {fill:#AFAFC7}
    .fil39 {fill:#B7650B}
    .fil14 {fill:#BDBDBD}
    .fil36 {fill:#D1CFC9}
    .fil13 {fill:#D22819}
    .fil6 {fill:#D9D9D9}
    .fil33 {fill:#DD5285}
    .fil38 {fill:#DD7D14}
    .fil17 {fill:#E9E9E8}
    .fil23 {fill:#EA2C18}
    .fil37 {fill:#ED8F20}
    .fil20 {fill:#EE2918}
    .fil32 {fill:#F289AA}
    .fil31 {fill:#F4BA92}
    .fil22 {fill:#F7523C}
    .fil21 {fill:#F9ECE4}
    .fil10 {fill:#FAE649}
    .fil11 {fill:#FDFDFD}
    .fil26 {fill:#4D897C;fill-rule:nonzero}
    .fil3 {fill:#4D8A7D;fill-rule:nonzero}
    .fil0 {fill:url(#id0)}
    .fil1 {fill:url(#id1)}
   ]]>
  </style>
  <radialGradient id="id0" gradientUnits="userSpaceOnUse" gradientTransform="matrix(1.41421 -0 -0 1.41421 -4142 -4140)" cx="9999.37" cy="9994.13" r="10000" fx="9999.37" fy="9994.13">
   <stop offset="0" style="stop-opacity:1; stop-color:#FEFEFE"/>
   <stop offset="0.439216" style="stop-opacity:1; stop-color:#FEFEFE"/>
   <stop offset="1" style="stop-opacity:1; stop-color:#D1E2F2"/>
  </radialGradient>
  <radialGradient id="id1" gradientUnits="userSpaceOnUse" gradientTransform="matrix(1.41421 -0 -0 1.41421 -3993 -4129)" xlink:href="#id0" cx="9640.15" cy="9969.4" r="10000" fx="9640.15" fy="9969.4">
  </radialGradient>
 </defs>
 <g id="Layer_x0020_1">
  <metadata id="CorelCorpID_0Corel-Layer"/>
  <path class="fil0" d="M-1 -6l20000 0 0 20000 -20000 0 0 -20000z"/>
  <path class="fil1" d="M-360 -31l20000 0 0 20000 -20000 0 0 -20000z"/>
  <g id="_521731530352">
   <path class="fil2 str0" d="M11937 9002l0 6364c-1210,0 -3384,0 -4593,0l0 -6364 4593 0z"/>
   <g>
    <path class="fil3" d="M3552 7117c-36,0 -65,-22 -65,-49 0,-27 29,-49 65,-49l0 98zm12165 0l-12165 0 0 -98 12165 0 0 98zm0 -98c36,0 65,22 65,49 0,27 -29,49 -65,49l0 -98z"/>
   </g>
   <g id="_521703243264">
    <path class="fil4 str1" d="M4107 1690l0 -261c0,-7 3,-14 8,-21 6,-5 13,-7 21,-7 7,0 14,2 20,7 5,5 8,12 8,21l0 522c0,9 -2,16 -8,22 -5,4 -12,7 -20,7 -8,0 -15,-3 -21,-8 -5,-4 -8,-12 -8,-21l0 -203 -174 0c-31,0 -58,-12 -81,-34 -23,-22 -35,-50 -35,-82l0 -203c0,-7 3,-14 9,-21 6,-5 12,-7 20,-7 7,0 14,2 20,7 6,5 9,12 9,21l0 203c0,16 5,30 16,42 6,5 12,9 19,12 8,3 16,4 23,4l174 0zm521 261c0,9 -2,16 -8,22 -5,4 -12,7 -21,7 -7,0 -14,-3 -20,-8 -6,-4 -8,-12 -8,-21l0 -493 -94 0 -140 500c0,6 -4,11 -9,15 -6,5 -12,7 -18,7 -9,0 -16,-3 -21,-8 -6,-4 -8,-11 -8,-20 0,-4 0,-7 1,-9l145 -521c4,-14 13,-21 27,-21l145 0c20,0 29,9 29,28l0 522zm173 -318l145 0c8,0 15,2 21,8 6,6 9,13 9,20 0,7 -3,14 -8,20 -5,6 -12,9 -22,9l-145 0 0 232 203 0c8,0 15,3 21,9 6,6 8,13 8,20 0,7 -2,13 -7,19 -5,7 -12,10 -22,10l-232 0c-19,0 -29,-10 -29,-28l0 -523c0,-19 10,-28 29,-28l232 0c8,0 15,3 21,8 6,6 8,13 8,20 0,7 -2,14 -7,20 -5,6 -12,9 -22,9l-203 0 0 175zm637 0l0 -204c0,-7 3,-14 9,-20 5,-6 12,-8 20,-8 7,0 14,2 20,7 6,5 9,12 9,21l0 521c0,8 -3,16 -10,22 -6,5 -13,8 -20,8 -7,0 -14,-3 -20,-7 -5,-5 -8,-12 -8,-22l0 -261 -232 0 0 261c0,9 -3,16 -8,22 -5,4 -12,7 -21,7 -7,0 -14,-3 -20,-8 -6,-4 -9,-12 -9,-21l0 -521c0,-8 3,-15 9,-22 6,-5 13,-7 20,-7 7,0 14,2 20,7 6,5 9,12 9,22l0 203 232 0zm579 318c0,9 -3,16 -8,22 -5,4 -12,7 -21,7 -7,0 -14,-3 -20,-8 -6,-4 -9,-12 -9,-21l0 -522c0,-7 3,-14 9,-21 6,-5 13,-7 20,-7 7,0 14,2 20,7 6,5 9,12 9,21l0 522zm-348 -261l0 232 116 0c16,0 30,-5 41,-16 12,-11 17,-25 17,-42l0 -116c0,-16 -5,-30 -16,-41 -11,-11 -25,-17 -42,-17l-116 0zm0 -57l116 0c31,0 59,11 81,33 23,23 35,50 35,82l0 116c0,32 -11,59 -34,82 -23,22 -50,34 -82,34l-145 0c-19,0 -29,-10 -29,-29l0 -522c0,-7 3,-14 9,-21 6,-5 13,-7 20,-7 7,0 14,2 20,7 6,5 9,12 9,21l0 204zm1158 318c0,9 -3,16 -9,22 -5,4 -12,7 -20,7 -8,0 -15,-3 -20,-8 -6,-4 -9,-12 -9,-21l0 -409 -235 423c-3,6 -8,10 -13,14l-6 3c-2,1 -5,2 -9,3 -5,-1 -12,-3 -19,-9 -5,-6 -8,-14 -8,-25l0 -521c0,-8 3,-15 9,-22 6,-5 13,-7 20,-7 8,0 14,2 20,7 6,5 9,12 9,22l0 409 235 -423c3,-5 7,-9 12,-14 6,-4 11,-6 16,-6 6,0 12,3 18,10 6,5 9,13 9,24l0 521zm290 -261l-87 0c-9,0 -16,-3 -22,-8 -5,-6 -7,-13 -7,-21 0,-7 2,-13 8,-19 5,-6 12,-9 21,-9l87 0c16,0 29,-6 41,-17 11,-10 16,-24 16,-42l0 -58c0,-16 -5,-30 -16,-41 -11,-11 -25,-17 -41,-17l-58 0c-13,0 -24,4 -34,11 -10,6 -17,16 -21,29 -1,5 -5,10 -9,14 -3,2 -5,4 -8,5l-10 2c-8,0 -15,-3 -21,-8 -6,-6 -9,-13 -9,-21l2 -10c7,-23 21,-42 41,-57 20,-15 43,-22 68,-22l58 0c33,0 60,11 82,33 23,23 34,50 34,82l0 58c0,17 -3,33 -10,49 -7,15 -16,28 -29,38 26,22 39,51 39,87l0 116c0,32 -11,59 -34,82 -22,22 -50,34 -82,34l-58 0c-24,0 -47,-8 -67,-22 -20,-14 -34,-34 -42,-58l-2 -10c0,-8 3,-14 9,-20 5,-6 13,-9 21,-9 12,0 20,7 26,20 4,11 11,21 21,31 12,7 23,10 35,10l58 0c16,0 29,-5 41,-16 11,-11 16,-25 16,-42l0 -116c0,-17 -4,-31 -13,-41 -10,-11 -25,-17 -44,-17zm288 0l0 232 174 0c16,0 30,-5 41,-16 12,-11 17,-25 17,-42l0 -116c0,-16 -5,-30 -16,-41 -11,-11 -25,-17 -42,-17l-174 0zm0 -57l174 0c31,0 58,11 81,33 23,23 35,50 35,82l0 116c0,32 -12,59 -34,82 -23,22 -50,34 -82,34l-202 0c-20,0 -29,-10 -29,-29l0 -522c0,-19 9,-28 29,-28l231 0c8,0 15,3 21,8 5,6 8,13 8,20 0,7 -2,13 -7,20 -5,6 -12,9 -22,9l-203 0 0 175zm753 318c0,9 -3,16 -8,22 -6,4 -13,7 -21,7 -8,0 -14,-3 -20,-8 -6,-4 -9,-12 -9,-21l0 -409 -235 423c-3,6 -7,10 -13,14l-6 3c-2,1 -5,2 -9,3 -5,-1 -12,-3 -19,-9 -5,-6 -7,-14 -7,-25l0 -521c0,-8 2,-15 8,-22 6,-5 13,-7 20,-7 8,0 14,2 20,7 6,5 9,12 9,22l0 409 235 -423c3,-5 7,-9 13,-14 5,-4 10,-6 15,-6 7,0 12,3 18,10 6,5 9,13 9,24l0 521zm173 -261l174 0c16,0 30,-5 41,-16 11,-11 17,-25 17,-42l0 -116c0,-16 -5,-30 -16,-41 -11,-11 -25,-17 -42,-17l-174 0 0 232zm0 58l0 203c0,9 -3,16 -8,22 -5,4 -12,7 -21,7 -7,0 -14,-3 -20,-8 -6,-4 -8,-12 -8,-21l0 -522c0,-19 9,-28 29,-28l202 0c32,0 60,11 82,33 22,23 34,50 34,82l0 116c0,32 -12,59 -34,82 -23,22 -50,34 -82,34l-174 0zm449 87l-41 125c-3,6 -6,11 -11,15 -4,2 -9,4 -16,5 -8,0 -14,-3 -20,-9 -7,-5 -10,-11 -10,-19l2 -11 174 -521c6,-16 15,-25 28,-25 12,0 21,9 27,25l173 521 2 11c0,7 -3,14 -9,20 -6,5 -13,8 -20,8 -4,0 -9,-1 -14,-3 -4,-2 -9,-8 -13,-17l-42 -125 -210 0zm191 -59l-85 -255 -86 255 171 0zm258 -318l-116 0c-9,0 -16,-2 -22,-8 -5,-6 -7,-13 -7,-21 0,-6 2,-13 7,-19 5,-6 12,-9 22,-9l289 0c8,0 15,3 21,8 5,6 8,13 8,20 0,7 -2,13 -7,20 -5,6 -12,9 -22,9l-116 0 0 493c0,9 -2,16 -8,22 -5,4 -12,7 -21,7 -7,0 -14,-3 -20,-8 -6,-4 -8,-12 -8,-21l0 -493zm375 175l146 0c8,0 15,2 20,8 6,6 9,13 9,20 0,7 -2,14 -7,20 -5,6 -12,9 -22,9l-146 0 0 232 204 0c8,0 15,3 20,9 6,6 9,13 9,20 0,7 -2,13 -7,19 -5,7 -12,10 -22,10l-232 0c-20,0 -29,-10 -29,-28l0 -523c0,-19 9,-28 29,-28l232 0c8,0 15,3 20,8 6,6 9,13 9,20 0,7 -2,14 -7,20 -5,6 -12,9 -22,9l-204 0 0 175zm696 318c0,9 -3,16 -8,22 -5,4 -12,7 -21,7 -7,0 -14,-3 -20,-8 -6,-4 -9,-12 -9,-21l0 -493 -94 0 -139 500c-1,6 -4,11 -9,15 -6,5 -12,7 -18,7 -9,0 -16,-3 -21,-8 -6,-4 -9,-11 -9,-20 0,-4 1,-7 2,-9l144 -521c5,-14 14,-21 28,-21l145 0c19,0 29,9 29,28l0 522zm173 -261l174 0c16,0 30,6 41,17 11,10 17,24 17,41l0 116c0,16 -6,30 -17,42 -6,5 -12,9 -19,12 -7,3 -14,4 -22,4l-174 0 0 -232zm0 -58l0 -203c0,-7 -3,-14 -9,-20 -6,-5 -13,-8 -20,-8 -7,0 -13,2 -20,7 -6,5 -9,12 -9,21l0 522c0,19 10,29 29,29l202 0c32,0 59,-11 82,-34 23,-22 34,-50 34,-82l0 -116c0,-31 -11,-58 -34,-81 -22,-23 -49,-35 -82,-35l-173 0zm694 1l0 -204c0,-7 3,-14 9,-20 6,-6 13,-8 20,-8 8,0 14,2 20,7 6,5 9,12 9,21l0 521c0,8 -3,16 -9,22 -7,5 -14,8 -20,8 -7,0 -14,-3 -20,-7 -6,-5 -9,-12 -9,-22l0 -261 -231 0 0 261c0,9 -3,16 -9,22 -5,4 -12,7 -20,7 -8,0 -15,-3 -20,-8 -6,-4 -9,-12 -9,-21l0 -521c0,-8 3,-15 9,-22 5,-5 12,-7 20,-7 7,0 14,2 20,7 6,5 9,12 9,22l0 203 231 0zm521 231c0,32 -11,59 -34,82 -22,22 -50,34 -82,34l-115 0c-32,0 -59,-12 -82,-34 -23,-22 -34,-50 -34,-82l0 -348c0,-32 11,-59 34,-82 22,-22 49,-33 82,-33l115 0c33,0 60,11 82,33 23,23 34,50 34,82l0 348zm-58 0l0 -348c0,-16 -5,-30 -16,-41 -11,-11 -25,-17 -42,-17l-116 0c-16,0 -30,6 -41,17 -5,5 -10,11 -12,19 -3,7 -4,14 -4,22l0 348c0,16 5,30 16,42 6,5 12,9 19,12 8,3 16,4 22,4l116 0c17,0 30,-5 42,-16 11,-11 16,-25 16,-42zm452 -521l-116 0c-9,0 -16,-3 -22,-8 -4,-6 -7,-13 -7,-21 0,-6 2,-13 7,-19 5,-6 12,-10 22,-10l116 0c8,0 15,3 20,9 6,6 9,13 9,20 0,7 -3,13 -8,20 -4,6 -12,9 -21,9zm115 608c0,9 -2,16 -8,22 -5,4 -12,7 -20,7 -8,0 -15,-3 -21,-8 -5,-4 -8,-12 -8,-21l0 -409 -235 423c-4,6 -8,10 -13,14l-6 3c-2,1 -5,2 -9,3 -6,-1 -12,-3 -19,-9 -5,-6 -8,-14 -8,-25l0 -521c0,-8 3,-15 9,-22 6,-5 12,-7 20,-7 7,0 14,2 20,7 6,5 9,12 9,22l0 409 235 -423c3,-4 7,-9 12,-14 5,-4 11,-6 16,-6 6,0 12,4 18,10 5,6 8,14 8,24l0 521zm521 -301l244 -242c6,-5 12,-7 20,-7 7,0 14,3 20,8 6,6 9,13 9,21 0,5 -3,12 -8,20l-173 172 178 314 4 16c0,7 -3,13 -9,19 -6,6 -13,9 -22,9 -9,0 -17,-5 -24,-16l-170 -301 -69 67 0 221c0,9 -3,16 -8,22 -5,4 -12,7 -21,7 -7,0 -14,-3 -20,-8 -6,-4 -9,-12 -9,-21l0 -522c0,-8 3,-14 9,-20 6,-6 13,-8 20,-8 8,0 14,2 20,6 6,5 9,12 9,22l0 221zm723 214c0,32 -11,59 -34,82 -22,22 -50,34 -81,34l-116 0c-32,0 -59,-12 -82,-34 -22,-22 -34,-50 -34,-82l0 -348c0,-32 11,-59 34,-82 22,-22 50,-33 82,-33l116 0c32,0 59,11 82,33 22,23 33,50 33,82l0 348zm-57 0l0 -348c0,-16 -6,-30 -17,-41 -11,-11 -25,-17 -41,-17l-116 0c-17,0 -30,6 -42,17 -5,5 -9,11 -12,19 -3,7 -4,14 -4,22l0 348c0,16 5,30 16,42 6,5 12,9 19,12 8,3 16,4 23,4l116 0c16,0 29,-5 41,-16 11,-11 17,-25 17,-42zm625 87c0,9 -3,16 -8,22 -5,4 -12,7 -21,7 -6,0 -13,-3 -19,-8 -7,-4 -10,-12 -10,-21l0 -414 -119 201c-7,12 -16,18 -26,18 -8,0 -16,-6 -25,-18l-120 -201 0 414c0,9 -3,16 -8,22 -5,4 -12,7 -21,7 -7,0 -14,-3 -20,-8 -6,-4 -9,-12 -9,-21l0 -519c0,-11 3,-19 9,-24 5,-6 11,-9 18,-9 5,0 10,1 14,4 4,3 8,8 13,14l149 249 149 -249c7,-12 16,-18 28,-18 6,0 13,3 18,9 5,6 8,14 8,24l0 519zm462 0c0,9 -2,16 -8,22 -5,4 -12,7 -20,7 -8,0 -15,-3 -21,-8 -5,-4 -8,-12 -8,-21l0 -409 -235 423c-4,6 -8,10 -13,14l-6 3c-2,1 -5,2 -9,3 -6,-1 -12,-3 -19,-9 -5,-6 -8,-14 -8,-25l0 -521c0,-8 3,-15 9,-22 6,-5 12,-7 20,-7 7,0 14,2 20,7 6,5 9,12 9,22l0 409 235 -423c3,-5 7,-9 12,-14 5,-4 11,-6 16,-6 6,0 12,3 18,10 5,5 8,13 8,24l0 521zm377 29l-145 0c-31,0 -59,-12 -82,-34 -22,-22 -34,-50 -34,-82l0 -348c0,-32 11,-59 34,-82 22,-22 50,-33 82,-33l145 0c8,0 15,3 20,8 6,6 9,13 9,20 0,7 -2,13 -7,20 -5,6 -12,9 -22,9l-145 0c-16,0 -30,6 -42,17 -5,5 -9,11 -12,19 -3,7 -4,14 -4,22l0 348c0,16 5,30 16,42 6,5 12,9 19,12 8,3 16,4 23,4l145 0c8,0 15,3 20,9 6,6 9,13 9,20 0,7 -2,13 -7,19 -5,7 -12,10 -22,10zm379 0l-145 0c-31,0 -58,-12 -81,-34 -23,-22 -35,-50 -35,-82l0 -348c0,-32 12,-59 34,-82 22,-22 50,-33 82,-33l145 0c8,0 15,3 20,8 6,6 9,13 9,20 0,7 -2,13 -7,20 -5,6 -12,9 -22,9l-145 0c-16,0 -30,6 -42,17 -5,5 -9,11 -12,19 -3,7 -4,14 -4,22l0 348c0,16 5,30 16,42 6,5 12,9 19,12 8,3 16,4 23,4l145 0c8,0 15,3 20,9 6,6 9,13 9,20 0,7 -2,13 -7,19 -5,7 -12,10 -22,10zm491 -29c0,9 -2,16 -8,22 -5,4 -12,7 -20,7 -8,0 -15,-3 -20,-8 -6,-4 -9,-12 -9,-21l0 -409 -235 423c-3,6 -8,10 -13,14l-6 3c-2,1 -5,2 -9,3 -6,-1 -12,-3 -19,-9 -5,-6 -8,-14 -8,-25l0 -521c0,-8 3,-15 9,-22 6,-5 13,-7 20,-7 7,0 14,2 20,7 6,5 9,12 9,22l0 409 235 -423c3,-5 7,-9 12,-14 6,-4 11,-6 16,-6 6,0 12,3 18,10 6,5 8,13 8,24l0 521zm463 0c0,9 -2,16 -8,22 -5,4 -12,7 -20,7 -8,0 -15,-3 -20,-8 -6,-4 -9,-12 -9,-21l0 -409 -235 423c-3,6 -8,10 -13,14l-6 3c-2,1 -5,2 -9,3 -6,-1 -12,-3 -19,-9 -5,-6 -8,-14 -8,-25l0 -521c0,-8 3,-15 9,-22 6,-5 13,-7 20,-7 7,0 14,2 20,7 6,5 9,12 9,22l0 409 235 -423c3,-5 7,-9 12,-14 6,-4 11,-6 16,-6 6,0 12,3 18,10 6,5 8,13 8,24l0 521zm-11800 926c0,9 -3,17 -8,22 -5,5 -13,7 -21,7 -7,0 -13,-2 -19,-7 -7,-5 -10,-12 -10,-22l0 -413 -119 200c-8,12 -16,19 -26,19 -8,0 -16,-7 -25,-19l-120 -200 0 413c0,9 -3,17 -8,22 -6,5 -13,7 -21,7 -8,0 -14,-2 -20,-7 -6,-5 -9,-12 -9,-22l0 -518c0,-11 3,-19 9,-25 5,-6 11,-9 18,-9 5,0 10,2 14,4 4,3 8,8 13,15l149 248 149 -248c7,-13 16,-19 28,-19 6,0 13,3 18,9 5,7 8,15 8,25l0 518zm405 -203l-174 0c-32,0 -59,-11 -82,-34 -22,-22 -34,-49 -34,-82l0 -202c0,-8 3,-15 9,-22 5,-5 12,-7 20,-7 7,0 14,2 20,7 6,5 9,12 9,22l0 203c0,16 5,30 16,41 6,5 12,9 19,12 8,3 16,5 23,5l174 0 0 -261c0,-8 2,-15 8,-22 6,-5 13,-7 20,-7 8,0 15,2 20,7 6,5 9,12 9,22l0 434c0,32 -11,59 -34,82 -22,23 -49,34 -81,34l-145 0c-9,0 -16,-3 -22,-8 -5,-6 -7,-13 -7,-21 0,-7 2,-13 8,-19 5,-6 12,-10 21,-10l145 0c16,0 29,-5 41,-16 11,-10 17,-24 17,-42l0 -116zm463 -115l0 -203c0,-8 2,-15 8,-20 6,-6 13,-9 20,-9 8,0 15,2 20,7 6,5 9,12 9,22l0 520c0,9 -3,16 -9,22 -7,5 -13,8 -20,8 -7,0 -14,-2 -20,-7 -6,-5 -8,-12 -8,-22l0 -260 -232 0 0 260c0,9 -3,17 -9,22 -5,5 -12,7 -20,7 -8,0 -15,-2 -20,-7 -6,-5 -9,-12 -9,-22l0 -521c0,-7 3,-15 9,-21 5,-5 12,-8 20,-8 7,0 14,3 20,8 6,4 9,12 9,21l0 203 232 0z"/>
    <path class="fil4 str1" d="M5769 2877c0,9 -2,17 -8,22 -5,5 -12,7 -21,7 -7,0 -14,-2 -20,-7 -6,-5 -8,-12 -8,-22l0 -409 -235 423c-4,6 -8,11 -13,14l-6 4c-2,1 -5,1 -9,2 -6,0 -12,-3 -19,-9 -5,-6 -8,-14 -8,-25l0 -521c0,-7 3,-15 9,-21 5,-5 12,-8 20,-8 7,0 14,3 20,8 6,4 9,12 9,21l0 410 235 -424c2,-4 6,-9 12,-14 5,-4 10,-6 16,-6 6,0 12,4 17,10 6,6 9,14 9,24l0 521zm406 -29l0 -492c0,-8 2,-15 8,-22 6,-5 13,-7 20,-7 8,0 15,2 20,7 6,5 9,12 9,22l0 492 29 0c20,0 30,10 30,29l0 87c0,8 -3,15 -9,21 -6,5 -13,8 -20,8 -7,0 -13,-2 -20,-7 -6,-5 -9,-12 -9,-22l0 -58 -319 0c-19,0 -29,-10 -29,-29l0 -521c0,-8 3,-15 9,-22 5,-5 12,-7 20,-7 7,0 14,2 20,7 6,5 9,12 9,22l0 492 232 0zm578 29c0,9 -3,17 -8,22 -5,5 -12,7 -21,7 -7,0 -14,-2 -20,-7 -6,-5 -9,-12 -9,-22l0 -409 -235 423c-3,6 -7,11 -12,14l-7 4c-2,1 -4,1 -9,2 -5,0 -11,-3 -19,-9 -5,-6 -7,-14 -7,-25l0 -521c0,-7 3,-15 8,-21 6,-5 13,-8 21,-8 7,0 14,3 20,8 5,4 8,12 8,21l0 410 235 -424c3,-4 7,-9 13,-14 5,-4 10,-6 15,-6 7,0 13,4 18,10 6,6 9,14 9,24l0 521zm463 0c0,9 -3,17 -8,22 -5,5 -12,7 -21,7 -7,0 -14,-2 -20,-7 -6,-5 -9,-12 -9,-22l0 -492 -232 0 0 492c0,9 -2,17 -8,22 -5,5 -12,7 -20,7 -8,0 -15,-2 -21,-7 -5,-5 -8,-12 -8,-22l0 -521c0,-19 9,-29 29,-29l289 0c19,0 29,10 29,29l0 521zm217 -116l-41 125c-3,6 -6,11 -11,15 -4,3 -9,4 -16,5 -7,0 -14,-3 -20,-8 -6,-5 -9,-12 -9,-20l2 -10 174 -521c5,-17 14,-25 27,-25 12,0 21,8 27,25l173 521 3 10c0,7 -4,14 -10,20 -6,5 -13,8 -20,8 -4,0 -8,-1 -13,-3 -5,-2 -10,-7 -14,-17l-42 -125 -210 0zm191 -59l-85 -255 -86 255 171 0zm577 175c0,9 -3,17 -8,22 -6,5 -13,7 -21,7 -8,0 -14,-2 -20,-7 -6,-5 -9,-12 -9,-22l0 -492 -94 0 -139 499c-1,6 -4,11 -10,16 -5,4 -11,6 -18,6 -8,0 -15,-2 -21,-7 -5,-5 -8,-12 -8,-21 0,-4 0,-7 1,-8l145 -522c4,-14 13,-21 28,-21l145 0c19,0 29,10 29,29l0 521zm172 -260l174 0c17,0 30,5 41,16 12,11 17,25 17,42l0 115c0,17 -5,31 -16,42 -6,5 -12,10 -19,12 -7,3 -15,4 -23,4l-174 0 0 -231zm0 -58l0 -203c0,-8 -3,-15 -9,-20 -5,-6 -12,-9 -20,-9 -6,0 -12,2 -19,7 -6,5 -9,12 -9,22l0 521c0,19 9,29 29,29l202 0c31,0 58,-11 81,-33 23,-23 35,-50 35,-83l0 -115c0,-32 -11,-59 -34,-82 -22,-23 -50,-34 -82,-34l-174 0zm695 0l0 -203c0,-8 3,-15 9,-20 6,-6 12,-9 20,-9 7,0 14,2 20,7 6,5 9,12 9,22l0 520c0,9 -3,16 -9,22 -7,5 -14,8 -20,8 -7,0 -14,-2 -21,-7 -5,-5 -8,-12 -8,-22l0 -260 -232 0 0 260c0,9 -2,17 -8,22 -5,5 -12,7 -21,7 -7,0 -14,-2 -20,-7 -5,-5 -8,-12 -8,-22l0 -521c0,-7 3,-15 8,-21 6,-5 13,-8 20,-8 8,0 15,3 20,8 6,4 9,12 9,21l0 203 232 0zm521 231c0,32 -11,59 -34,82 -23,23 -50,34 -82,34l-116 0c-31,0 -58,-11 -81,-34 -23,-22 -34,-49 -34,-82l0 -347c0,-33 11,-60 33,-82 23,-23 50,-34 82,-34l116 0c32,0 60,11 82,34 23,23 34,50 34,82l0 347zm-58 0l0 -347c0,-17 -5,-31 -16,-42 -11,-11 -25,-16 -42,-16l-116 0c-16,0 -30,5 -41,16 -6,6 -10,12 -13,19 -2,7 -4,14 -4,23l0 347c0,17 6,31 17,42 6,5 12,9 19,12 8,3 15,4 22,4l116 0c16,0 30,-5 41,-16 12,-10 17,-24 17,-42zm481 -405l-203 0 0 492c0,9 -3,17 -9,22 -5,5 -12,7 -20,7 -8,0 -15,-2 -20,-7 -6,-5 -9,-12 -9,-22l0 -521c0,-19 10,-29 29,-29l232 0c8,0 15,3 20,9 6,6 9,12 9,20 0,6 -3,13 -8,19 -4,6 -12,10 -21,10zm462 405c0,32 -11,59 -34,82 -23,23 -50,34 -82,34l-116 0c-31,0 -58,-11 -81,-34 -23,-22 -34,-49 -34,-82l0 -347c0,-33 11,-60 33,-82 23,-23 50,-34 82,-34l116 0c32,0 60,11 82,34 23,23 34,50 34,82l0 347zm-58 0l0 -347c0,-17 -5,-31 -16,-42 -11,-11 -25,-16 -42,-16l-116 0c-16,0 -30,5 -41,16 -6,6 -10,12 -13,19 -2,7 -4,14 -4,23l0 347c0,17 6,31 17,42 6,5 12,9 19,12 8,3 15,4 22,4l116 0c16,0 30,-5 41,-16 12,-10 17,-24 17,-42zm914 0c0,32 -11,59 -33,82 -23,23 -50,34 -82,34l-116 0c-31,0 -59,-11 -81,-34 -23,-22 -35,-49 -35,-82l0 -347c0,-33 12,-60 34,-82 22,-23 50,-34 82,-34l116 0c32,0 59,11 82,34 22,23 33,50 33,82l0 347zm-57 0l0 -347c0,-17 -6,-31 -17,-42 -10,-11 -24,-16 -41,-16l-116 0c-16,0 -30,5 -42,16 -5,6 -9,12 -12,19 -3,7 -4,14 -4,23l0 347c0,17 5,31 16,42 6,5 12,9 19,12 8,3 16,4 23,4l116 0c16,0 29,-5 41,-16 11,-10 17,-24 17,-42zm277 -173l0 231 174 0c16,0 30,-5 41,-16 11,-10 17,-24 17,-42l0 -115c0,-17 -5,-31 -16,-42 -11,-11 -25,-16 -42,-16l-174 0zm0 -58l174 0c31,0 58,11 81,34 23,22 35,49 35,82l0 115c0,32 -12,59 -34,82 -23,23 -50,34 -82,34l-203 0c-19,0 -28,-10 -28,-29l0 -521c0,-19 9,-29 28,-29l232 0c8,0 15,3 21,9 5,6 8,12 8,20 0,6 -2,13 -7,19 -5,6 -12,10 -22,10l-203 0 0 174zm463 58l174 0c16,0 30,-6 41,-17 11,-10 17,-24 17,-41l0 -116c0,-17 -5,-31 -16,-42 -11,-11 -25,-16 -42,-16l-174 0 0 232zm0 57l0 203c0,9 -3,17 -8,22 -5,5 -12,7 -21,7 -7,0 -14,-2 -20,-7 -6,-5 -8,-12 -8,-22l0 -521c0,-19 9,-29 28,-29l203 0c32,0 60,11 82,34 22,22 34,50 34,82l0 115c0,32 -12,59 -34,82 -23,23 -50,34 -82,34l-174 0zm449 87l-42 125c-2,6 -5,11 -10,15 -4,3 -9,4 -16,5 -8,0 -14,-3 -20,-8 -7,-5 -10,-12 -10,-20l2 -10 174 -521c6,-17 15,-25 28,-25 12,0 21,8 27,25l173 521 2 10c0,7 -3,14 -9,20 -6,5 -13,8 -20,8 -4,0 -9,-1 -14,-3 -4,-2 -9,-7 -13,-17l-42 -125 -210 0zm191 -59l-85 -255 -86 255 171 0zm403 -85l-87 0c-9,0 -16,-3 -22,-9 -5,-5 -7,-12 -7,-20 0,-7 2,-14 8,-20 5,-6 12,-9 21,-9l87 0c16,0 29,-5 41,-16 11,-11 16,-25 16,-42l0 -58c0,-17 -5,-30 -16,-42 -11,-11 -25,-16 -41,-16l-58 0c-13,0 -24,3 -34,10 -10,7 -17,17 -21,30 -1,5 -4,9 -9,13 -3,2 -5,4 -8,6l-9 1c-9,0 -16,-3 -22,-8 -6,-5 -9,-13 -9,-21l2 -10c7,-23 21,-42 41,-57 20,-15 43,-22 69,-22l57 0c33,0 60,11 82,34 23,23 34,50 34,82l0 58c0,16 -3,33 -10,48 -7,15 -16,28 -29,39 26,22 39,51 39,86l0 116c0,32 -11,59 -34,82 -22,23 -50,34 -82,34l-57 0c-25,0 -48,-7 -68,-22 -20,-14 -34,-33 -42,-58l-2 -10c0,-7 3,-14 9,-20 5,-6 13,-8 22,-8 11,0 19,6 25,19 4,12 11,22 21,31 12,7 23,10 35,10l58 0c16,0 29,-5 41,-16 11,-10 16,-24 16,-42l0 -115c0,-18 -4,-31 -13,-41 -10,-12 -25,-17 -44,-17zm578 173c0,32 -12,59 -34,82 -23,23 -50,34 -82,34l-116 0c-31,0 -58,-11 -81,-34 -23,-22 -34,-49 -34,-82l0 -347c0,-33 11,-60 33,-82 23,-23 50,-34 82,-34l116 0c32,0 60,11 82,34 22,23 34,50 34,82l0 347zm-58 0l0 -347c0,-17 -5,-31 -16,-42 -11,-11 -25,-16 -42,-16l-116 0c-16,0 -30,5 -41,16 -6,6 -10,12 -13,19 -2,7 -4,14 -4,23l0 347c0,17 6,31 17,42 6,5 12,9 18,12 9,3 16,4 23,4l116 0c16,0 30,-5 41,-16 12,-10 17,-24 17,-42zm512 -214c16,10 30,23 40,41 10,18 15,37 15,58l0 115c0,32 -11,59 -34,82 -22,23 -50,34 -82,34l-202 0c-19,0 -29,-10 -29,-29l0 -521c0,-19 10,-29 29,-29l174 0c32,0 59,11 82,34 22,23 33,50 33,82l0 58c0,13 -2,26 -6,38 -4,13 -11,25 -20,37zm-235 41l0 231 174 0c17,0 30,-5 42,-16 11,-10 16,-24 16,-42l0 -115c0,-17 -5,-31 -16,-42 -11,-11 -25,-16 -42,-16l-174 0zm146 -58c16,0 29,-6 41,-16 11,-11 17,-25 17,-42l0 -58c0,-17 -6,-30 -17,-42 -11,-11 -25,-16 -41,-16l-146 0 0 174 146 0zm332 202l-42 125c-2,6 -5,11 -10,15 -4,3 -10,4 -16,5 -8,0 -15,-3 -20,-8 -7,-5 -10,-12 -10,-20l2 -10 174 -521c6,-17 15,-25 28,-25 12,0 21,8 27,25l173 521 2 10c0,7 -3,14 -9,20 -6,5 -13,8 -21,8 -4,0 -8,-1 -13,-3 -5,-2 -9,-7 -13,-17l-42 -125 -210 0zm191 -59l-85 -255 -86 255 171 0zm518 -143l0 -203c0,-8 3,-15 9,-20 5,-6 12,-9 20,-9 7,0 14,2 20,7 6,5 9,12 9,22l0 520c0,9 -3,16 -10,22 -6,5 -13,8 -20,8 -7,0 -14,-2 -20,-7 -5,-5 -8,-12 -8,-22l0 -260 -232 0 0 260c0,9 -3,17 -8,22 -5,5 -12,7 -21,7 -7,0 -14,-2 -20,-7 -6,-5 -9,-12 -9,-22l0 -521c0,-7 3,-15 9,-21 6,-5 13,-8 20,-8 8,0 14,3 20,8 6,4 9,12 9,21l0 203 232 0zm521 318c0,9 -3,17 -9,22 -5,5 -12,7 -20,7 -8,0 -15,-2 -20,-7 -6,-5 -9,-12 -9,-22l0 -409 -235 423c-3,6 -8,11 -13,14l-6 4c-2,1 -5,1 -9,2 -6,0 -12,-3 -19,-9 -5,-6 -8,-14 -8,-25l0 -521c0,-7 3,-15 9,-21 6,-5 13,-8 20,-8 8,0 14,3 20,8 6,4 9,12 9,21l0 410 235 -424c3,-4 7,-9 12,-14 6,-4 11,-6 16,-6 6,0 12,4 18,10 6,6 9,14 9,24l0 521zm405 -260l0 -232 -174 0c-16,0 -30,5 -42,16 -5,6 -9,12 -12,19 -3,7 -4,14 -4,23l0 116c0,16 5,30 16,41 6,5 13,9 19,12 8,3 16,5 23,5l174 0zm-100 57l-136 218c-6,10 -14,14 -23,14 -8,0 -15,-3 -21,-9 -6,-6 -10,-13 -10,-20 0,-6 2,-11 5,-16l117 -187 -6 0c-31,0 -58,-11 -81,-34 -23,-22 -35,-49 -35,-82l0 -115c0,-33 12,-60 34,-82 23,-23 50,-34 82,-34l203 0c19,0 29,10 29,29l0 521c0,9 -3,17 -9,22 -5,5 -12,7 -20,7 -8,0 -15,-2 -20,-7 -6,-5 -9,-12 -9,-22l0 -203 -100 0z"/>
   </g>
   <g id="_521703243328">
    <path class="fil5 str2" d="M7623 11798l49 0 0 320 215 -320 53 0 0 404 -49 0 0 -319 -214 319 -54 0 0 -404zm463 272l0 -39c21,0 36,-1 43,-3 8,-1 15,-6 22,-13 6,-7 10,-16 10,-27 0,-14 -5,-24 -14,-32 -8,-8 -20,-12 -34,-12 -28,0 -48,16 -59,49l-47 -8c14,-55 50,-82 106,-82 31,0 56,9 74,26 18,17 26,37 26,61 0,23 -11,42 -34,56 14,8 26,18 33,31 7,12 11,26 11,43 0,26 -10,48 -29,64 -19,16 -46,25 -80,25 -67,0 -106,-30 -116,-89l47 -10c4,18 12,33 25,43 13,10 28,15 45,15 17,0 31,-4 42,-14 11,-9 16,-21 16,-36 0,-11 -3,-21 -10,-30 -7,-8 -15,-13 -22,-15 -8,-3 -23,-4 -43,-4 -2,0 -6,1 -12,1zm401 -281l44 0c-2,20 -6,34 -13,41 -6,8 -15,13 -26,15 -10,2 -31,3 -62,3 -40,0 -68,4 -83,12 -15,8 -26,21 -32,38 -7,18 -10,40 -11,67 13,-18 27,-32 44,-42 17,-9 36,-14 56,-14 39,0 71,14 96,40 25,26 38,62 38,107 0,34 -7,62 -19,84 -13,22 -28,39 -46,51 -17,12 -41,18 -71,18 -34,0 -61,-8 -81,-24 -19,-16 -34,-36 -44,-61 -10,-25 -15,-68 -15,-130 0,-77 13,-129 39,-156 26,-26 66,-40 120,-40 34,0 53,0 58,-1 4,-2 7,-4 8,-8zm-1 266c0,-31 -8,-56 -22,-75 -14,-20 -35,-29 -61,-29 -27,0 -48,10 -63,30 -15,21 -23,48 -23,83 0,34 9,60 25,77 16,18 37,27 61,27 24,0 44,-10 60,-31 15,-21 23,-48 23,-82zm111 -146l50 0 0 224 138 -224 53 0 0 293 -49 0 0 -222 -138 222 -54 0 0 -293zm316 406l0 -406 45 0 0 39c10,-15 22,-26 36,-34 13,-7 30,-11 49,-11 25,0 47,7 66,19 19,13 33,31 43,55 10,23 15,49 15,77 0,30 -6,56 -16,80 -11,24 -27,43 -47,55 -21,13 -42,20 -65,20 -16,0 -31,-4 -44,-11 -14,-7 -24,-16 -33,-26l0 143 -49 0zm45 -257c0,37 7,65 23,83 15,18 33,27 55,27 22,0 41,-9 56,-28 16,-19 24,-47 24,-86 0,-38 -8,-66 -23,-84 -15,-19 -34,-28 -55,-28 -21,0 -40,10 -56,30 -16,19 -24,48 -24,86zm460 108c-19,15 -36,26 -53,33 -17,6 -36,10 -55,10 -32,0 -57,-8 -74,-24 -18,-16 -26,-36 -26,-60 0,-14 3,-27 9,-39 7,-12 16,-21 26,-29 11,-7 23,-12 36,-16 10,-2 24,-5 44,-7 40,-5 70,-11 89,-17 0,-7 0,-11 0,-13 0,-20 -5,-35 -14,-43 -13,-11 -32,-17 -57,-17 -23,0 -41,5 -52,13 -11,8 -19,22 -24,43l-49 -6c4,-21 12,-38 22,-51 10,-13 25,-22 44,-29 19,-7 41,-11 67,-11 25,0 45,3 61,9 15,6 27,13 34,22 8,9 13,20 16,34 1,9 2,24 2,46l0 66c0,46 1,75 3,87 2,12 6,24 12,35l-52 0c-5,-10 -8,-22 -9,-36zm-4 -110c-18,7 -45,13 -81,18 -21,3 -35,6 -44,10 -8,4 -15,9 -19,16 -5,7 -7,15 -7,24 0,13 5,24 15,32 10,9 24,14 44,14 19,0 36,-5 51,-13 15,-8 26,-20 33,-34 5,-11 8,-28 8,-49l0 -18zm88 -147l237 0 0 42 -94 0 0 251 -49 0 0 -251 -94 0 0 -42zm478 199l51 6c-8,30 -23,53 -44,70 -22,16 -50,25 -84,25 -43,0 -77,-14 -102,-40 -25,-26 -37,-63 -37,-111 0,-49 12,-87 38,-114 25,-27 58,-41 98,-41 39,0 71,13 96,40 25,27 37,64 37,112 0,3 0,8 0,14l-218 0c2,32 11,56 27,73 16,17 37,26 61,26 18,0 34,-5 46,-14 13,-10 24,-25 31,-46zm-163 -80l164 0c-3,-25 -9,-43 -19,-55 -16,-20 -36,-29 -61,-29 -23,0 -42,7 -58,23 -15,15 -24,35 -26,61zm283 -119l231 0 0 293 -50 0 0 -251 -132 0 0 145c0,34 -1,57 -3,68 -2,10 -8,20 -18,28 -10,8 -24,12 -43,12 -12,0 -25,-1 -40,-2l0 -41 22 0c10,0 17,-1 22,-4 4,-2 7,-5 9,-10 1,-4 2,-19 2,-45l0 -193zm304 0l49 0 0 115 63 0c41,0 73,8 95,24 22,16 33,38 33,66 0,24 -9,45 -28,62 -18,18 -48,26 -88,26l-124 0 0 -293zm49 253l53 0c31,0 54,-4 67,-12 14,-8 20,-20 20,-36 0,-13 -5,-24 -15,-34 -10,-10 -32,-15 -66,-15l-59 0 0 97zm246 -253l50 0 0 122 137 0 0 -122 50 0 0 293 -50 0 0 -129 -137 0 0 129 -50 0 0 -293zm590 0l50 0 0 293 -50 0 0 -293zm-277 0l50 0 0 115 63 0c40,0 72,8 94,24 22,16 33,38 33,66 0,24 -9,45 -28,62 -18,18 -47,26 -88,26l-124 0 0 -293zm50 253l52 0c31,0 54,-4 67,-12 14,-8 20,-20 20,-36 0,-13 -5,-24 -15,-34 -10,-10 -31,-15 -65,-15l-59 0 0 97zm354 -253l50 0 0 224 138 -224 53 0 0 293 -49 0 0 -222 -138 222 -54 0 0 -293zm172 -108l34 0c-3,23 -11,41 -26,54 -14,12 -32,18 -56,18 -23,0 -42,-6 -56,-18 -14,-13 -23,-31 -25,-54l33 0c3,13 8,22 16,28 7,7 18,10 31,10 15,0 26,-3 34,-9 7,-6 12,-16 15,-29zm-2782 739l50 0 0 126c16,0 27,-3 33,-9 7,-6 16,-23 28,-53 10,-23 18,-38 24,-45 6,-8 13,-13 21,-15 8,-3 21,-4 38,-4l10 0 0 41 -14 0c-13,0 -21,2 -25,5 -4,5 -10,17 -18,37 -7,19 -14,32 -20,39 -6,8 -16,14 -29,21 21,5 42,25 63,59l54 91 -54 0 -54 -91c-11,-18 -20,-30 -28,-36 -8,-6 -18,-9 -29,-9l0 136 -50 0 0 -293zm236 146c0,-54 15,-94 45,-120 25,-21 56,-32 92,-32 40,0 73,13 99,39 25,27 38,63 38,109 0,38 -6,67 -17,89 -11,22 -28,38 -49,50 -22,12 -46,18 -71,18 -41,0 -74,-13 -100,-39 -25,-26 -37,-64 -37,-114zm50 1c0,37 8,65 25,84 16,18 37,28 62,28 25,0 45,-10 61,-29 17,-18 25,-47 25,-85 0,-36 -8,-64 -25,-82 -16,-19 -37,-28 -61,-28 -25,0 -46,9 -62,28 -17,18 -25,46 -25,84zm309 -147l204 0 0 252 32 0 0 124 -41 0 0 -83 -231 0 0 83 -41 0 0 -124 26 0c35,-47 52,-131 51,-252zm41 41c-4,95 -19,166 -44,211l157 0 0 -211 -113 0zm449 157l51 7c-8,30 -23,53 -45,69 -21,17 -49,25 -83,25 -43,0 -77,-13 -102,-39 -25,-27 -37,-64 -37,-111 0,-49 12,-87 38,-114 25,-28 58,-41 98,-41 39,0 71,13 96,40 24,26 37,64 37,112 0,3 0,7 0,13l-219 0c2,32 11,57 28,74 16,17 36,26 61,26 18,0 33,-5 46,-15 13,-9 23,-25 31,-46zm-163 -79l163 0c-2,-25 -8,-44 -18,-56 -16,-19 -37,-29 -62,-29 -22,0 -42,8 -57,23 -16,16 -24,36 -26,62zm276 -119l50 0 0 126c16,0 27,-3 33,-9 7,-6 16,-23 28,-53 10,-23 18,-38 24,-45 6,-8 13,-13 21,-15 8,-3 21,-4 38,-4l10 0 0 41 -14 0c-13,0 -21,2 -25,5 -4,5 -10,17 -18,37 -7,19 -14,32 -20,39 -6,8 -16,14 -29,21 21,5 42,25 63,59l54 91 -54 0 -54 -91c-11,-18 -20,-30 -28,-36 -8,-6 -18,-9 -29,-9l0 136 -50 0 0 -293zm445 186l49 6c-5,34 -19,60 -41,79 -22,19 -49,28 -81,28 -40,0 -72,-13 -96,-39 -24,-26 -37,-64 -37,-112 0,-32 6,-60 16,-83 11,-24 27,-42 48,-53 21,-12 45,-18 70,-18 31,0 58,8 78,24 20,16 33,39 39,68l-48 8c-5,-20 -13,-35 -25,-45 -12,-10 -26,-15 -42,-15 -25,0 -46,9 -61,27 -16,18 -24,46 -24,85 0,40 8,68 23,86 15,18 35,27 59,27 19,0 36,-6 49,-18 13,-12 21,-31 24,-55zm-2607 738l157 -210 -138 -195 64 0 73 104c16,21 26,38 32,49 10,-14 20,-29 33,-45l80 -108 59 0 -140 192 151 213 -66 0 -102 -145c-6,-8 -11,-16 -17,-24 -9,13 -15,23 -19,28l-102 141 -65 0zm603 -37c-18,16 -36,27 -53,33 -17,7 -35,10 -55,10 -32,0 -57,-8 -74,-24 -18,-15 -26,-35 -26,-60 0,-14 3,-27 10,-39 6,-12 15,-21 25,-28 11,-8 23,-13 36,-17 10,-2 25,-5 44,-7 40,-5 70,-11 89,-17 0,-7 0,-11 0,-13 0,-20 -5,-34 -14,-43 -13,-11 -32,-16 -57,-16 -23,0 -40,4 -51,12 -12,8 -20,23 -25,43l-49 -6c5,-21 12,-38 22,-51 10,-13 25,-22 44,-29 19,-7 41,-11 67,-11 25,0 45,3 61,9 15,6 27,13 34,22 8,9 13,21 16,34 1,9 2,24 2,46l0 66c0,46 1,75 3,87 2,12 7,24 13,36l-52 0c-5,-11 -9,-23 -10,-37zm-4 -110c-18,7 -45,13 -81,18 -21,3 -35,7 -44,10 -8,4 -15,9 -19,16 -5,7 -7,15 -7,24 0,13 5,24 15,33 10,8 25,13 44,13 19,0 36,-4 51,-13 15,-8 26,-19 33,-34 5,-11 8,-27 8,-49l0 -18zm340 -267l44 0c-2,20 -6,34 -13,41 -7,8 -15,13 -26,15 -10,2 -31,4 -62,4 -41,0 -69,4 -83,11 -15,8 -26,21 -32,38 -7,18 -10,40 -11,67 12,-18 27,-32 44,-42 16,-9 35,-13 56,-13 38,0 70,13 95,39 26,26 38,62 38,107 0,34 -6,62 -19,84 -12,22 -28,39 -45,51 -17,12 -41,18 -71,18 -35,0 -62,-8 -81,-24 -19,-16 -34,-36 -44,-61 -11,-25 -16,-68 -16,-129 0,-78 13,-130 39,-156 26,-27 67,-41 121,-41 34,0 53,0 57,-1 5,-1 8,-4 9,-8zm-2 266c0,-31 -7,-56 -21,-75 -15,-20 -35,-29 -61,-29 -28,0 -49,10 -64,31 -14,20 -22,48 -22,82 0,34 8,60 25,78 16,18 36,27 60,27 25,0 45,-11 60,-32 16,-20 23,-48 23,-82zm290 111c-18,16 -36,27 -53,33 -17,7 -35,10 -55,10 -32,0 -57,-8 -74,-24 -17,-15 -26,-35 -26,-60 0,-14 3,-27 10,-39 6,-12 15,-21 26,-28 10,-8 22,-13 35,-17 10,-2 25,-5 44,-7 41,-5 70,-11 89,-17 0,-7 0,-11 0,-13 0,-20 -4,-34 -14,-43 -12,-11 -31,-16 -56,-16 -24,0 -41,4 -52,12 -11,8 -20,23 -25,43l-48 -6c4,-21 11,-38 21,-51 10,-13 25,-22 44,-29 19,-7 42,-11 67,-11 25,0 45,3 61,9 16,6 27,13 35,22 7,9 12,21 15,34 2,9 3,24 3,46l0 66c0,46 1,75 3,87 2,12 6,24 12,36l-52 0c-5,-11 -8,-23 -10,-37zm-4 -110c-18,7 -45,13 -81,18 -20,3 -35,7 -43,10 -9,4 -15,9 -20,16 -5,7 -7,15 -7,24 0,13 5,24 15,33 10,8 25,13 44,13 19,0 36,-4 51,-13 15,-8 26,-19 33,-34 5,-11 8,-27 8,-49l0 -18zm127 259l0 -405 45 0 0 38c11,-15 23,-26 36,-33 14,-8 30,-12 49,-12 25,0 47,7 66,20 19,12 34,31 43,54 10,23 15,49 15,77 0,30 -5,57 -16,81 -11,23 -27,42 -47,55 -20,12 -42,19 -65,19 -16,0 -31,-4 -44,-11 -13,-7 -24,-15 -32,-26l0 143 -50 0zm45 -257c0,37 8,65 23,83 15,18 33,27 55,27 22,0 41,-9 57,-28 15,-18 23,-47 23,-86 0,-38 -8,-65 -23,-84 -15,-18 -33,-28 -55,-28 -21,0 -39,10 -56,30 -16,20 -24,48 -24,86zm250 -2c0,-54 15,-94 45,-120 26,-22 56,-33 93,-33 40,0 73,14 98,40 26,26 38,63 38,109 0,38 -5,67 -16,89 -12,21 -28,38 -50,50 -21,12 -45,18 -70,18 -41,0 -75,-13 -100,-40 -25,-26 -38,-64 -38,-113zm51 0c0,38 8,66 25,84 16,19 37,28 62,28 24,0 45,-9 61,-28 17,-19 25,-47 25,-85 0,-37 -9,-64 -25,-82 -17,-19 -37,-28 -61,-28 -25,0 -46,9 -62,27 -17,19 -25,47 -25,84zm282 -146l114 0c28,0 49,2 63,7 13,4 25,13 35,25 10,13 15,28 15,45 0,14 -3,27 -9,37 -6,11 -15,19 -26,26 14,5 25,13 34,26 9,12 14,27 14,45 -2,27 -12,48 -30,61 -18,14 -44,21 -78,21l-132 0 0 -293zm49 123l53 0c21,0 36,-1 43,-3 8,-2 15,-7 22,-14 6,-6 9,-14 9,-24 0,-15 -6,-26 -16,-32 -11,-6 -30,-9 -56,-9l-55 0 0 82zm0 129l66 0c28,0 47,-3 57,-10 11,-6 16,-18 17,-34 0,-9 -3,-18 -9,-26 -6,-8 -14,-13 -24,-15 -10,-2 -25,-3 -47,-3l-60 0 0 88zm436 -67l48 7c-5,33 -19,59 -41,78 -22,19 -49,29 -80,29 -40,0 -73,-13 -97,-40 -24,-26 -36,-63 -36,-112 0,-31 5,-59 15,-83 11,-23 27,-41 48,-53 22,-12 45,-18 70,-18 32,0 58,8 78,24 20,17 33,39 39,69l-48 7c-5,-19 -13,-34 -25,-44 -11,-10 -26,-15 -42,-15 -25,0 -45,9 -61,27 -16,18 -24,46 -24,85 0,39 8,68 23,85 15,18 35,27 59,27 20,0 36,-6 49,-18 13,-12 21,-30 25,-55zm90 -185l50 0 0 126c15,0 27,-3 33,-9 6,-6 16,-24 28,-53 10,-23 18,-38 24,-46 6,-7 13,-12 21,-15 8,-2 20,-3 38,-3l10 0 0 40 -14 0c-13,0 -22,2 -25,6 -4,4 -10,16 -18,36 -7,19 -14,33 -21,40 -6,7 -15,14 -29,20 22,6 43,26 64,60l54 91 -55 0 -53 -91c-11,-18 -20,-30 -28,-36 -9,-6 -18,-9 -29,-9l0 136 -50 0 0 -293zm235 146c0,-54 15,-94 45,-120 26,-22 56,-33 93,-33 40,0 73,14 98,40 26,26 38,63 38,109 0,38 -5,67 -16,89 -12,21 -28,38 -50,50 -21,12 -45,18 -70,18 -41,0 -75,-13 -100,-40 -25,-26 -38,-64 -38,-113zm51 0c0,38 8,66 25,84 16,19 37,28 62,28 24,0 45,-9 61,-28 17,-19 25,-47 25,-85 0,-37 -9,-64 -25,-82 -17,-19 -37,-28 -61,-28 -25,0 -46,9 -62,27 -17,19 -25,47 -25,84zm282 -146l168 0 0 41 -119 0 0 252 -49 0 0 -293zm175 146c0,-54 15,-94 45,-120 25,-22 56,-33 92,-33 40,0 73,14 99,40 25,26 38,63 38,109 0,38 -6,67 -17,89 -11,21 -28,38 -50,50 -21,12 -45,18 -70,18 -41,0 -74,-13 -100,-40 -25,-26 -37,-64 -37,-113zm50 0c0,38 8,66 25,84 16,19 37,28 62,28 24,0 45,-9 61,-28 17,-19 25,-47 25,-85 0,-37 -8,-64 -25,-82 -16,-19 -37,-28 -61,-28 -25,0 -46,9 -62,27 -17,19 -25,47 -25,84zm-2105 484l50 0 0 127c15,0 26,-3 33,-10 6,-6 15,-23 28,-52 10,-24 18,-39 24,-46 6,-7 13,-12 21,-15 8,-3 20,-4 38,-4l10 0 0 41 -14 0c-13,0 -22,2 -25,6 -4,4 -10,16 -18,36 -8,19 -14,32 -21,40 -6,7 -16,14 -29,20 22,5 43,25 63,59l55 91 -55 0 -53 -90c-11,-19 -21,-31 -29,-37 -8,-5 -17,-8 -28,-8l0 135 -50 0 0 -293zm247 405l0 -405 46 0 0 39c10,-15 22,-26 36,-34 13,-7 29,-11 48,-11 25,0 47,6 67,19 19,13 33,31 43,55 9,23 14,49 14,76 0,30 -5,57 -16,81 -10,24 -26,42 -47,55 -20,13 -42,19 -64,19 -17,0 -32,-3 -45,-10 -13,-7 -23,-16 -32,-26l0 142 -50 0zm46 -257c0,38 7,66 22,84 16,18 34,27 56,27 22,0 40,-10 56,-28 16,-19 24,-48 24,-87 0,-37 -8,-65 -23,-83 -16,-19 -34,-28 -55,-28 -21,0 -40,10 -56,29 -16,20 -24,49 -24,86z"/>
    <path class="fil5 str2" d="M9836 14057c-19,16 -37,27 -54,34 -17,6 -35,9 -54,9 -33,0 -57,-8 -75,-23 -17,-16 -26,-36 -26,-60 0,-15 4,-28 10,-39 7,-12 15,-22 26,-29 10,-7 22,-12 36,-16 9,-3 24,-5 44,-8 40,-4 69,-10 88,-17 1,-6 1,-11 1,-12 0,-21 -5,-35 -14,-43 -13,-11 -32,-17 -57,-17 -23,0 -41,4 -52,12 -11,9 -19,23 -25,44l-48 -7c4,-21 11,-37 22,-50 10,-13 24,-23 44,-30 19,-7 41,-10 66,-10 25,0 46,3 61,9 16,6 28,13 35,22 7,9 12,20 15,34 2,8 3,24 3,45l0 66c0,46 1,75 3,88 2,12 6,24 12,35l-52 0c-5,-10 -8,-23 -9,-37zm-4 -110c-18,8 -45,14 -82,19 -20,3 -35,6 -43,10 -9,4 -15,9 -20,16 -4,7 -7,15 -7,23 0,13 5,24 15,33 11,9 25,13 44,13 20,0 37,-4 52,-12 14,-8 25,-20 32,-34 6,-11 8,-28 8,-50l1 -18zm357 -146l0 293 -50 0 0 -114 -28 0c-18,0 -31,2 -39,7 -9,5 -21,19 -38,43l-43 64 -62 0 54 -79c16,-24 32,-37 49,-40 -29,-4 -50,-14 -63,-31 -14,-17 -21,-36 -21,-57 0,-26 9,-46 27,-62 18,-16 44,-24 78,-24l136 0zm-50 41l-70 0c-30,0 -49,5 -57,14 -9,9 -13,20 -13,33 0,17 6,30 19,38 12,8 35,12 67,12l54 0 0 -97z"/>
   </g>
   <g id="_521703232192">
    <path class="fil6" d="M9804 11137l-13 43c-1,1 -3,0 -3,1l-22 8c-1,2 -3,5 -4,7 -2,1 -3,4 -5,7l-22 -13 -13 26 -27 -36 -10 27c-11,-11 -17,-17 -32,-29l-102 -4c-27,2 -28,11 -49,22l8 -49c-5,4 -4,6 -16,13 -1,1 -19,10 -24,12l11 -40c3,1 2,1 2,1l-27 11 15 -80c-102,-40 -121,-117 -209,-126 -9,-18 19,2 -25,-29 -28,-20 -2,-17 -35,-47l28 0c-42,-43 -7,-14 -28,-71 -12,-34 -23,-68 -28,-107 26,10 48,40 65,60 52,62 164,136 265,103l-87 -13c-40,-4 -42,-1 -74,-22l-204 -193c-40,-53 -52,-37 -59,-63 -7,-21 1,-22 2,-24 0,-1 9,-14 10,-17 -27,5 -17,8 -36,-1 17,-13 22,-15 35,-26l-13 -31c10,-13 17,-18 27,-29 40,-45 -11,-16 30,-49 73,-58 138,-230 377,-335l40 -26c-40,-47 -38,-27 -86,-36 -3,-1 -23,-8 -23,-8 -51,-30 -24,-51 -23,-69 -12,14 -15,11 -40,12 -78,4 -84,-19 -73,-71l36 -15 11 38c73,6 126,13 196,23 -23,-84 -119,-24 -162,-39l-10 -50c-8,-28 -14,-30 -23,-55l8 -5c25,-14 274,-38 289,-38 -13,-31 -20,-32 -15,-70 44,-27 70,-31 123,2 -10,25 -15,46 -29,73 67,-2 7,-88 98,-89 52,0 106,52 130,73 -3,2 -6,1 -7,4l-56 43c-19,11 -10,1 -29,16 37,68 98,101 112,106 -2,2 -6,2 -7,6 -6,25 -6,-3 -20,19l49 27c-3,10 -2,5 -7,13 -5,10 -3,1 -6,13l54 27c-14,9 -18,6 -21,9 -24,14 -8,-3 -26,20l105 50c0,-2 -4,-3 -5,0 -4,12 -5,0 -30,17l42 11 -30 23c21,20 25,4 33,31 1,0 1,2 1,3l53 155c25,64 51,200 89,243 -20,15 2,-1 -22,5 -1,0 -4,0 -5,1 -2,0 -4,1 -6,1l17 59 -47 -24 13 42c1,-1 -1,-2 -1,0 -5,18 5,-3 -18,5 -1,1 -4,2 -6,3l16 34 -32 -15c6,24 2,12 14,36 -30,-11 -22,-23 -60,16l26 -4c-11,73 -52,139 -31,183 0,0 27,-4 -17,23l32 13c-55,30 -22,9 -22,25l-12 26c0,0 -1,2 -2,3 -71,3 -114,74 -245,116 -39,13 -76,15 -41,59zm-152 217c31,-81 101,-105 213,-105 537,0 521,28 521,-420 0,-417 9,-843 0,-1259l-1478 4c-4,421 -3,843 -4,1264 -1,448 -33,412 529,412 53,0 95,7 135,29 45,24 54,52 84,75z"/>
    <path class="fil7" d="M9541 10856c-1,-1 -4,-2 -5,-6 -1,-3 -3,-3 -5,-5 44,17 87,65 104,96 43,-26 37,-61 86,-94 -123,206 -61,59 -232,207 36,-58 90,-83 145,-108l-93 -90zm-4 -32c18,-28 4,-28 31,-46 32,13 45,7 13,36 -15,13 -21,12 -44,10zm95 -74l39 -14 4 21 11 25c9,27 13,28 26,47 -49,-5 -34,-14 -64,-21 -15,-18 -24,22 -14,-21l-2 -37zm-74 30c7,-46 13,-37 -8,-77 84,34 0,17 58,41l-9 12c-14,21 -2,20 -41,24zm142 -77c-6,8 -10,18 -21,24 -36,18 -28,-5 -30,-8l51 -16zm-75 -635c27,-25 -28,22 15,-11 20,5 21,5 36,20l10 -21 52 17c-25,21 31,24 -42,7 15,47 6,15 -5,27 -73,-36 1,27 -84,-20l18 -19zm130 140l89 6 1 345 -6 23 -1 26c55,-96 50,-158 69,-188l21 -23c-4,68 -21,136 -41,191 -21,57 -10,30 -48,48 -28,14 -22,27 -62,15 -38,26 -99,-5 -146,51 -74,-53 -47,-29 -117,-40l-39 -13c-72,47 -175,-224 -137,-292 -4,45 18,205 61,226 20,10 3,16 17,-2 -9,-9 -7,16 -11,-22l5 -349 131 -3c-24,-42 -45,-75 -63,-130 40,27 61,47 111,65 74,27 188,-79 404,-86 -70,49 -195,83 -238,152zm56 -186c16,11 9,4 19,14l12 19c-91,27 -36,-26 -36,-26 1,-4 4,-5 5,-7zm75 14c1,-2 -2,4 -3,7 -31,-11 -32,-11 -51,-45l51 9c-11,-3 -7,-2 -14,-26 87,16 44,5 76,-3 14,18 6,5 16,23 -21,14 -17,9 -44,2l11 23 -50 -4c16,5 8,14 8,14zm-444 -117c4,-2 5,-12 42,-7 30,4 24,5 38,17 -36,5 -47,7 -80,-10zm194 -144c-17,22 -15,19 -44,31l-17 -29c17,-7 4,-15 20,13 38,-29 -15,-35 41,-15zm157 -54c1,-47 36,-40 73,-30 -32,49 -48,41 -73,30zm-243 171c-10,29 3,10 -18,25l-112 -12c-1,18 -28,39 23,69 0,0 20,7 23,8 48,9 46,-11 86,36l-40 26c-239,105 -304,277 -377,335 -41,33 10,4 -30,49 -10,11 -17,16 -27,29l13 31c-13,11 -18,13 -35,26 19,9 9,6 36,1 -1,3 -10,16 -10,17 -1,2 -9,3 -2,24 7,26 19,10 59,63l204 193c32,21 34,18 74,22l87 13c-101,33 -213,-41 -265,-103 -17,-20 -39,-50 -65,-60 5,39 16,73 28,107 21,57 -14,28 28,71l-28 0c33,30 7,27 35,47 44,31 16,11 25,29 88,9 107,86 209,126 7,9 7,-5 22,31 21,51 -22,-5 9,19l13 7c1,-3 5,3 8,5 -6,8 3,17 -13,21l-8 49c21,-11 22,-20 49,-22l102 4 -4 -24c32,16 72,14 96,5l12 -5c2,-2 4,-4 6,-5l41 -12c-35,-44 2,-46 41,-59 131,-42 174,-113 245,-116 1,-1 2,-3 2,-3l12 -26c0,-16 -33,5 22,-25l-32 -13c44,-27 17,-23 17,-23 -21,-44 20,-110 31,-183l-26 4c38,-39 30,-27 60,-16 -12,-24 -8,-12 -14,-36l32 15 -16 -34c2,-1 5,-2 6,-3 23,-8 13,13 18,-5 0,-2 2,-1 1,0l-13 -42 47 24 -17 -59c2,0 4,-1 6,-1 1,-1 4,-1 5,-1 24,-6 2,10 22,-5 -38,-43 -64,-179 -89,-243l-53 -155c0,-1 0,-3 -1,-3 -8,-27 -12,-11 -33,-31l30 -23 -42 -11c25,-17 26,-5 30,-17 1,-3 5,-2 5,0l-105 -50c18,-23 2,-6 26,-20 3,-3 7,0 21,-9l-54 -27c3,-12 1,-3 6,-13 5,-8 4,-3 7,-13l-49 -27c14,-22 14,6 20,-19 1,-4 5,-4 7,-6 -14,-5 -75,-38 -112,-106 19,-15 10,-5 29,-16l56 -43c1,-3 4,-2 7,-4 -24,-21 -78,-73 -130,-73 -91,1 -31,87 -98,89 14,-27 19,-48 29,-73 -53,-33 -79,-29 -123,-2 -5,38 2,39 15,70 -15,0 -264,24 -289,38l-8 5c9,25 15,27 23,55l10 50c43,15 139,-45 162,39z"/>
    <path class="fil8" d="M9652 11354c-30,-23 -39,-51 -84,-75 -40,-22 -82,-29 -135,-29 -562,0 -530,36 -529,-412 1,-421 0,-843 4,-1264l1478 -4c9,416 0,842 0,1259 0,448 16,420 -521,420 -112,0 -182,24 -213,105zm-786 -1723l0 1396c0,354 361,237 602,262 132,14 101,116 172,116 87,0 32,-101 172,-116 245,-25 603,96 603,-271l0 -1387c0,-45 -9,-40 -9,-81 -43,-3 -45,-18 -91,-18l-1350 0c-71,0 -99,28 -99,99z"/>
    <path class="fil9" d="M9430 10570l-14 11c-14,18 3,12 -17,2 -43,-21 -65,-181 -61,-226 -38,68 65,339 137,292 24,-16 63,-47 81,-66 32,-34 37,-49 75,-70 71,53 126,123 146,138 40,12 34,-1 62,-15 38,-18 27,9 48,-48 20,-55 37,-123 41,-191l-21 23c-19,30 -14,92 -69,188l1 -26 -8 -11c-26,-13 -55,-43 -76,-64 -30,-30 -32,-46 -70,-74l2 -216c-37,-11 -81,-11 -119,-1l1 217 -139 137z"/>
    <path class="fil10" d="M9430 10570l139 -137 -1 -217 -157 -1 2 272c-1,100 -4,72 17,83z"/>
    <path class="fil10" d="M9831 10571c17,-24 7,-249 6,-300l1 -51 -151 -3 -2 216c38,28 40,44 70,74 21,21 50,51 76,64z"/>
    <path class="fil11" d="M9541 10207l214 1c43,-69 168,-103 238,-152 -216,7 -330,113 -404,86 -50,-18 -71,-38 -111,-65 18,55 39,88 63,130z"/>
    <path class="fil10" d="M9534 10621c36,-19 69,-11 88,-33 36,26 32,26 87,13l3 40c-51,-22 -24,-9 -48,-1 -44,15 -108,8 -130,-19zm-59 28l39 13c70,11 43,-13 117,40 47,-56 108,-25 146,-51 -20,-15 -75,-85 -146,-138 -38,21 -43,36 -75,70 -18,19 -57,50 -81,66z"/>
    <path class="fil12" d="M9338 9856c7,21 7,17 14,36l56 -4c-29,11 -71,9 -77,-10 -13,-34 3,-17 7,-22zm82 49l112 12c21,-15 8,4 18,-25 -70,-10 -123,-17 -196,-23l-11 -38 -36 15c-11,52 -5,75 73,71 25,-1 28,2 40,-12z"/>
    <path class="fil13" d="M9534 10621c22,27 86,34 130,19 24,-8 -3,-21 48,1l-3 -40c-55,13 -51,13 -87,-13 -19,22 -52,14 -88,33z"/>
    <path class="fil14" d="M9634 10946c-55,25 -109,50 -145,108 171,-148 109,-1 232,-207 -49,33 -43,68 -86,94 -17,-31 -60,-79 -104,-96 2,2 4,2 5,5 1,4 4,5 5,6l93 90z"/>
    <path class="fil15" d="M9653 11178c15,12 21,18 32,29l10 -27 27 36 13 -26 22 13c2,-3 3,-6 5,-7 1,-2 3,-5 4,-7l22 -8c0,-1 2,0 3,-1l13 -43 -41 12c-2,1 -4,3 -6,5l-12 5c-24,9 -64,11 -96,-5l4 24z"/>
    <path class="fil16" d="M9869 9981c7,24 3,23 14,26l-51 -9c19,34 20,34 51,45 1,-3 4,-9 3,-7 0,0 8,-9 -8,-14l50 4 -11 -23c27,7 23,12 44,-2 -10,-18 -2,-5 -16,-23 -32,8 11,19 -76,3z"/>
    <path class="fil16" d="M9607 10087c85,47 11,-16 84,20 11,-12 20,20 5,-27 73,17 17,14 42,-7l-52 -17 -10 21c-15,-15 -16,-15 -36,-20 -43,33 12,-14 -15,11l-18 19z"/>
    <path class="fil15" d="M9510 11147c16,-4 7,-13 13,-21 -3,-2 -7,-8 -8,-5l-13 -7c-31,-24 12,32 -9,-19 -15,-36 -15,-22 -22,-31l-15 80 27 -11c0,0 1,0 -2,-1l-11 40c5,-2 23,-11 24,-12 12,-7 11,-9 16,-13z"/>
    <path class="fil17" d="M9793 9721c25,11 41,19 73,-30 -37,-10 -72,-17 -73,30z"/>
    <path class="fil14" d="M9558 10780c39,-4 27,-3 41,-24l9 -12c-58,-24 26,-7 -58,-41 21,40 15,31 8,77z"/>
    <path class="fil16" d="M9537 10824c23,2 29,3 44,-10 32,-29 19,-23 -13,-36 -27,18 -13,18 -31,46z"/>
    <path class="fil18" d="M9648 10808c30,7 15,16 64,21 -13,-19 -17,-20 -26,-47 -38,-4 17,-14 -19,-1 -2,1 -5,2 -7,3 -35,19 1,-11 -12,24z"/>
    <path class="fil15" d="M9648 10808c13,-35 -23,-5 12,-24 2,-1 5,-2 7,-3 36,-13 -19,-3 19,1l-11 -25c-2,25 2,12 -8,23l-17 -20c0,-2 0,-3 -1,-5l-17 -5 2 37c-10,43 -1,3 14,21z"/>
    <path class="fil19" d="M9842 10055l-12 -19c-10,-10 -3,-3 -19,-14 -1,2 -4,3 -5,7 0,0 -55,53 36,26z"/>
    <path class="fil17" d="M9442 9919c33,17 44,15 80,10 -14,-12 -8,-13 -38,-17 -37,-5 -38,5 -42,7z"/>
    <path class="fil18" d="M9575 9777l17 29c29,-12 27,-9 44,-31 -56,-20 -3,-14 -41,15 -16,-28 -3,-20 -20,-13z"/>
    <path class="fil14" d="M9632 10750l17 5c1,2 1,3 1,5l17 20c10,-11 6,2 8,-23l-4 -21 -39 14z"/>
    <path class="fil14" d="M9649 10719c2,3 -6,26 30,8 11,-6 15,-16 21,-24l-51 16z"/>
    <path class="fil20" d="M9408 9888l-56 4c-7,-19 -7,-15 -14,-36 -4,5 -20,-12 -7,22 6,19 48,21 77,10z"/>
   </g>
   <g id="_521703230752">
    <path class="fil21 str3" d="M9193 6262c-127,-70 -656,-254 -658,-255 -123,-200 -174,-786 -174,-786l-358 0 -359 0c0,0 -50,585 -173,786 -1,0 -532,185 -659,255 -127,71 -211,151 -211,292 0,98 10,219 10,306l2783 0c0,-107 11,-208 11,-306 0,-141 -85,-221 -212,-292z"/>
    <path class="fil22 str3" d="M9193 6262c-127,-70 -657,-255 -659,-255 0,0 -83,365 -531,647 -449,-282 -532,-647 -532,-647 -1,0 -532,185 -659,255 -127,71 -211,151 -211,292 0,98 10,389 10,476l1392 0 1391 0c0,-87 11,-378 11,-476 0,-141 -85,-221 -212,-292z"/>
    <path class="fil23 str3" d="M8690 6062c-90,-32 -155,-55 -156,-55 0,0 -83,365 -531,647 -449,-282 -532,-647 -532,-647 0,0 -66,23 -156,55 0,0 140,580 687,797l0 1c0,0 1,0 1,-1 0,1 0,1 0,1l0 -1c547,-217 687,-797 687,-797z"/>
    <path class="fil21 str3" d="M8770 4603c-30,-66 -73,-14 -90,24 12,-450 -156,-923 -681,-932l0 0c-2,0 -5,0 -7,0 -3,0 -6,0 -8,0l0 0c-528,9 -689,479 -676,933 -22,-37 -67,-95 -99,-25 -39,87 73,371 131,312 17,87 39,170 65,243 162,448 503,565 579,579l15 0c76,-14 417,-131 579,-579 26,-72 48,-153 64,-240 60,45 166,-230 128,-315z"/>
    <path class="fil24 str3" d="M7308 4628c0,0 677,-64 1103,-372 0,0 144,299 269,371 0,0 36,-71 79,-42 42,29 -3,226 -41,277 -38,51 -52,69 -76,56 0,0 -42,306 -243,556 0,0 15,261 235,379 220,117 535,95 720,-116 0,0 -393,0 -383,-442 8,-312 228,-1865 -943,-1704l-68 0c-1172,-161 -952,1392 -943,1704 11,413 -383,442 -383,442 185,211 500,233 720,116 220,-118 235,-379 235,-379 -201,-250 -244,-556 -244,-556 0,0 -60,14 -104,-96 -43,-110 -67,-324 67,-194z"/>
    <g>
     <path class="fil25" d="M7665 4751c-27,0 -50,23 -50,50 0,28 23,50 50,50 28,0 50,-22 50,-50 0,-27 -22,-50 -50,-50zm657 0c-27,0 -50,23 -50,50 0,28 23,50 50,50 28,0 50,-22 50,-50 0,-27 -22,-50 -50,-50z"/>
     <path id="1" class="fil26" d="M7665 4801l-100 0 0 0 1 -4 0 -5 0 -4 1 -5 1 -4 2 -5 1 -4 2 -4 1 -4 2 -4 3 -4 2 -4 3 -3 3 -4 3 -3 3 -4 3 -3 4 -3 3 -3 4 -3 4 -2 5 -3 4 -2 5 -2 4 -2 5 -2 5 -1 5 -1 5 -1 6 -1 5 0 5 0 0 89 1 0 0 0 0 0 1 0 0 -1 0 0 0 0 0 0 1 0 0 0 0 0 0 0 0 0 0 0 0 0 0 0 -1 1 0 0 0 0 0 0 0 0 0 1 -1 0 0 0 0 1 0 0 0 1 0 0 0 1 0 0 -1 1 0 0 0 0zm0 0c0,25 -22,45 -50,45 -27,0 -50,-20 -50,-45l100 0zm0 6l0 89 0 0 -5 0 -5 -1 -6 -1 -5 0 -5 -2 -5 -1 -5 -2 -5 -2 -4 -2 -4 -2 -5 -2 -4 -3 -4 -3 -3 -3 -4 -3 -3 -3 -3 -3 -3 -4 -3 -3 -3 -4 -2 -4 -3 -4 -2 -4 -1 -4 -2 -4 -1 -4 -2 -4 -1 -5 -1 -4 0 -5 0 -4 -1 -5 100 0 0 1 1 0 0 1 0 0 0 1 0 0 0 1 0 0 0 0 1 1 0 0 0 0 0 0 0 1 0 0 0 0 1 0 0 0 0 0 0 0 0 0 0 0 0 0 0 0 -1 0 0 0 0 0 -1 0 0 0 0 0 0 0 -1 0 0 0zm0 0c28,0 50,20 50,44 0,25 -22,45 -50,45l0 -89zm0 -6l100 0 0 0 0 5 0 4 -1 5 0 4 -1 5 -2 4 -1 4 -2 4 -2 4 -2 4 -2 4 -2 4 -3 4 -3 3 -3 4 -3 3 -3 3 -4 3 -3 3 -4 3 -4 3 -5 2 -4 2 -5 2 -4 2 -5 2 -5 1 -5 2 -5 0 -6 1 -5 1 -6 0 0 -89 0 0 0 0 0 0 -1 0 0 0 0 0 0 0 -1 0 0 0 0 0 0 0 0 0 0 0 0 0 0 0 0 0 1 0 0 0 0 -1 0 0 0 0 0 0 1 -1 0 0 0 0 0 -1 0 0 0 -1 0 0 0 -1 0 0 0 -1 0 0zm0 0c0,-24 23,-44 50,-44 28,0 50,20 50,44l-100 0zm0 -5l0 -89 0 0 6 0 5 0 6 1 5 1 5 1 5 1 5 2 4 2 5 2 4 2 5 3 4 2 4 3 3 3 4 3 3 3 3 4 3 3 3 4 3 3 2 4 2 4 2 4 2 4 2 4 1 4 2 5 1 4 0 5 1 4 0 5 0 4 -100 0 0 0 0 -1 0 0 0 -1 0 0 0 -1 0 0 0 -1 0 0 -1 0 0 -1 0 0 0 0 0 0 0 0 -1 -1 0 0 0 0 0 0 0 0 0 0 0 0 0 0 1 0 0 0 0 0 0 0 0 1 1 0 0 0 0 0 0 0 0 0zm0 0c-27,0 -50,-20 -50,-45 0,-24 23,-44 50,-44l0 89zm657 5l-100 0 0 0 1 -4 0 -5 1 -4 0 -5 1 -4 2 -5 1 -4 2 -4 1 -4 2 -4 3 -4 2 -4 3 -3 3 -4 3 -3 3 -4 3 -3 4 -3 3 -3 4 -3 4 -2 5 -3 4 -2 5 -2 4 -2 5 -2 5 -1 5 -1 5 -1 6 -1 5 0 5 0 0 89 1 0 0 0 0 0 1 0 0 -1 0 0 0 0 0 0 1 0 0 0 0 0 0 0 0 0 0 0 0 0 0 0 -1 1 0 0 0 0 0 0 0 0 0 1 -1 0 0 0 0 1 0 0 0 1 0 0 0 1 0 0 -1 1 0 0 0 0zm0 0c0,25 -22,45 -50,45 -27,0 -50,-20 -50,-45l100 0zm0 6l0 89 0 0 -5 0 -5 -1 -6 -1 -5 0 -5 -2 -5 -1 -5 -2 -4 -2 -5 -2 -4 -2 -5 -2 -4 -3 -4 -3 -3 -3 -4 -3 -3 -3 -3 -3 -3 -4 -3 -3 -3 -4 -2 -4 -3 -4 -2 -4 -1 -4 -2 -4 -1 -4 -2 -4 -1 -5 0 -4 -1 -5 0 -4 -1 -5 100 0 0 1 1 0 0 1 0 0 0 1 0 0 0 1 0 0 0 0 1 1 0 0 0 0 0 0 0 1 0 0 0 0 1 0 0 0 0 0 0 0 0 0 0 0 0 0 -1 0 0 0 0 0 0 0 -1 0 0 0 0 0 0 0 -1 0 0 0zm0 0c28,0 50,20 50,44 0,25 -22,45 -50,45l0 -89zm0 -6l100 0 0 0 0 5 0 4 -1 5 0 4 -1 5 -2 4 -1 4 -2 4 -2 4 -2 4 -2 4 -2 4 -3 4 -3 3 -3 4 -3 3 -3 3 -4 3 -3 3 -4 3 -4 3 -5 2 -4 2 -5 2 -4 2 -5 2 -5 1 -5 2 -5 0 -6 1 -5 1 -6 0 0 -89 0 0 0 0 0 0 -1 0 0 0 0 0 0 0 -1 0 0 0 0 0 0 0 0 0 0 0 0 0 0 0 0 0 1 0 0 0 0 -1 0 0 0 0 0 0 1 -1 0 0 0 0 0 -1 0 0 0 -1 0 0 0 -1 0 0 0 -1 0 0zm0 0c0,-24 23,-44 50,-44 28,0 50,20 50,44l-100 0zm0 -5l0 -89 0 0 6 0 5 0 6 1 5 1 5 1 5 1 5 2 4 2 5 2 4 2 5 3 4 2 4 3 3 3 4 3 3 3 3 4 3 3 3 4 3 3 2 4 2 4 2 4 2 4 2 4 1 4 2 5 1 4 0 5 1 4 0 5 0 4 -100 0 0 0 0 -1 0 0 0 -1 0 0 0 -1 0 0 0 -1 0 0 -1 0 0 -1 0 0 0 0 0 0 0 0 -1 -1 0 0 0 0 0 0 0 0 0 0 0 0 0 0 1 0 0 0 0 0 0 0 0 1 1 0 0 0 0 0 0 0 0 0zm0 0c-27,0 -50,-20 -50,-45 0,-24 23,-44 50,-44l0 89z"/>
    </g>
   </g>
   <path class="fil21 str4" d="M6101 6503c-413,-61 -677,-372 -677,-372 -131,-177 -107,-775 -107,-775l-417 0 -418 0c0,0 24,598 -107,775 0,0 -264,311 -677,372 0,0 -57,14 74,229 65,106 594,160 1128,161 533,-1 1062,-55 1127,-161 131,-215 74,-229 74,-229z"/>
   <path class="fil27 str4" d="M6263 6998c0,-103 -9,-259 -9,-354 0,-136 -82,-213 -204,-281 -123,-68 -637,-247 -637,-247 0,412 -513,455 -513,455 0,0 -514,-43 -514,-455 0,0 -514,179 -636,247 -123,68 -205,145 -205,281 0,95 -9,270 -9,354l2727 0z"/>
   <path class="fil28 str4" d="M4231 6327l-2 -3 -20 -35 -33 0 -23 35 -1 1 -199 298 0 126 237 -360 219 360 0 -126 -178 -296z"/>
   <path class="fil28 str4" d="M3545 6677l189 -288 219 360 0 -126 -167 -279c-14,7 -27,13 -36,19 -123,68 -205,145 -205,281 0,11 0,22 0,33z"/>
   <path class="fil28 str4" d="M5597 6327l-2 -3 -20 -35 -33 0 -23 35 -1 1 -198 298 0 126 236 -360 219 360 0 -126 -178 -296z"/>
   <path class="fil28 str4" d="M4899 6571l-35 52 0 126 127 -193c-54,12 -91,15 -91,15l-1 0zm266 -77l155 255 0 -126 -98 -162c-19,12 -38,23 -57,33z"/>
   <path class="fil28 str4" d="M4536 6431l-127 192 0 126 183 -279c-19,-11 -38,-24 -56,-39zm198 104l130 214 0 -126 -38 -63c-26,-6 -58,-14 -92,-25z"/>
   <path class="fil28 str4" d="M6250 6594l-19 29 0 126 24 -37c-1,-25 -1,-48 -1,-68 0,-17 -1,-34 -4,-50z"/>
   <path class="fil28 str4" d="M5973 6326l-198 297 0 126 236 -360 220 360 0 -126 -144 -238c-12,-8 -24,-15 -37,-22 -19,-10 -45,-23 -77,-37z"/>
   <path class="fil28 str4" d="M4231 6611l-2 -3 -20 -35 -33 0 -23 35 -1 1 -199 298 0 91 23 0 214 -325 198 325 21 0 0 -91 -178 -296z"/>
   <path class="fil28 str4" d="M3775 6611l-1 -3 -21 -35 -33 0 -23 35 -1 1 -156 235c-2,48 -3,94 -4,130l198 -301 198 325 21 0 0 -91 -178 -296z"/>
   <path class="fil28 str4" d="M5597 6611l-2 -3 -20 -35 -33 0 -23 35 -1 1 -198 298 0 91 23 0 213 -325 198 325 21 0 0 -91 -178 -296z"/>
   <path class="fil28 str4" d="M5141 6611l-1 -3 -21 -35 -33 0 -23 35 -1 1 -198 298 0 91 23 0 214 -325 197 325 22 0 0 -91 -179 -296z"/>
   <path class="fil28 str4" d="M4686 6611l-2 -3 -20 -35 -33 0 -23 35 -1 1 -198 298 0 91 23 0 213 -325 198 325 21 0 0 -91 -178 -296z"/>
   <path class="fil28 str4" d="M6260 6863l-29 44 0 91 23 0 9 -14c0,-37 -2,-78 -3,-121z"/>
   <path class="fil28 str4" d="M6052 6611l-1 -3 -21 -35 -33 0 -23 35 -1 1 -198 298 0 91 23 0 213 -325 198 325 22 0 0 -91 -179 -296z"/>
   <path class="fil29 str4" d="M5413 6116c-20,420 -513,455 -513,455 0,0 -494,-35 -514,-455l-138 49c0,0 53,547 652,547 598,0 652,-547 652,-547l-139 -49z"/>
   <path class="fil21 str4" d="M5680 4704c-46,-14 -84,19 -103,37 0,-6 0,-13 1,-19 12,-453 -156,-928 -684,-937l0 0c-3,0 -5,0 -8,0 -2,0 -5,0 -7,0l0 0c-531,9 -693,482 -679,937 0,6 0,12 0,18 -19,-17 -57,-50 -103,-36 -97,29 -57,384 153,441 13,94 32,211 45,248 25,66 239,307 330,348 91,42 262,38 262,38 0,0 170,4 261,-38 91,-41 306,-282 330,-348 13,-37 32,-153 45,-247l1 0c214,-53 241,-417 156,-442z"/>
   <path class="fil30 str4" d="M4205 4730c0,0 -99,-634 44,-678 0,0 -48,-133 28,-238 65,-88 83,-182 83,-182 0,0 5,44 0,100 0,0 88,-122 171,-155 0,0 -55,72 -44,105 0,0 57,-146 237,-177 0,0 -72,61 -66,89 0,0 44,-68 124,-89 0,0 -26,28 -25,39 0,0 58,-32 109,-47 0,0 -36,28 -28,30 6,2 94,-9 105,-48 0,0 6,26 -11,39 0,0 73,-7 94,-33 0,0 -3,24 -26,37 0,0 91,-21 128,-50 0,0 -30,37 -58,51 0,0 120,13 164,-5 0,0 -18,34 -43,37 0,0 35,7 51,-3 0,0 -27,49 -11,55 21,8 32,-16 31,-30 0,0 14,33 34,30 21,-3 -3,-49 -3,-49 0,0 86,23 134,96 49,73 100,229 100,229 0,0 98,197 100,277 3,80 -47,639 -78,703 0,0 -15,-248 -104,-309 -21,-15 80,-234 17,-333 -90,-141 -207,-113 -385,-54 -240,81 -447,-67 -517,-64 -343,11 -206,411 -238,467 -74,126 -65,210 -110,293l-7 -133z"/>
   <g>
    <path class="fil25" d="M4563 4732c-27,0 -50,22 -50,50 0,27 23,50 50,50 28,0 50,-23 50,-50 0,-28 -22,-50 -50,-50zm657 0c-27,0 -50,22 -50,50 0,27 23,50 50,50 28,0 50,-23 50,-50 0,-28 -22,-50 -50,-50z"/>
    <path id="1" class="fil26" d="M4538 4782l-50 0 0 0 0 -4 1 -3 0 -4 1 -3 0 -4 1 -3 1 -3 2 -4 1 -3 2 -3 1 -3 2 -3 2 -3 2 -2 3 -3 2 -2 3 -3 2 -2 3 -2 3 -2 3 -2 3 -2 4 -2 3 -1 4 -2 3 -1 4 -1 4 -1 3 -1 4 0 4 0 4 -1 0 45 -1 0 -1 0 -1 0 -1 0 -1 1 -1 0 -1 0 -2 1 -1 0 -1 1 -1 0 -1 1 -1 1 -1 0 -1 1 0 1 -1 1 -1 1 -1 1 -1 1 -1 1 0 2 -1 1 0 1 -1 1 0 2 -1 1 0 2 0 1 -1 2 0 1 0 2 0 0zm0 0c0,12 -11,22 -25,22 -14,0 -25,-10 -25,-22l50 0zm25 27l0 45 0 0 -4 0 -4 0 -4 -1 -3 -1 -4 0 -4 -2 -3 -1 -4 -1 -3 -2 -4 -1 -3 -2 -3 -2 -3 -2 -3 -2 -2 -3 -3 -2 -2 -3 -3 -2 -2 -3 -2 -3 -2 -3 -1 -3 -2 -3 -1 -3 -2 -3 -1 -4 -1 -3 0 -3 -1 -4 0 -3 -1 -4 0 -3 50 0 0 1 0 2 1 1 0 2 0 1 1 2 0 1 1 1 0 2 1 1 0 1 1 1 1 1 1 1 1 1 1 1 0 1 1 1 1 1 1 0 1 1 1 1 1 0 2 1 1 0 1 0 1 1 1 0 1 0 1 0 1 0 1 0 0 0zm0 0c14,0 25,10 25,23 0,12 -11,22 -25,22l0 -45zm25 -27l50 0 0 0 0 3 0 4 -1 3 0 4 -1 3 -1 3 -1 4 -1 3 -2 3 -1 3 -2 3 -2 3 -2 3 -2 3 -2 2 -3 3 -2 2 -3 3 -3 2 -3 2 -3 2 -3 2 -3 1 -4 2 -3 1 -4 1 -3 2 -4 0 -4 1 -4 1 -4 0 -4 0 0 -45 1 0 2 0 1 0 1 0 1 0 1 -1 1 0 1 0 1 -1 1 0 1 -1 1 -1 1 0 1 -1 1 -1 1 -1 1 -1 1 -1 1 -1 0 -1 1 -1 1 -1 0 -1 1 -2 0 -1 1 -1 0 -2 1 -1 0 -2 0 -1 0 -2 0 -1 0 0zm0 0c0,-13 11,-23 25,-23 14,0 25,10 25,23l-50 0zm-25 -28l0 -45 0 0 4 1 4 0 4 0 4 1 4 1 3 1 4 1 3 2 4 1 3 2 3 2 3 2 3 2 3 2 3 2 2 3 3 2 2 3 2 2 2 3 2 3 2 3 1 3 2 3 1 4 1 3 1 3 1 4 0 3 1 4 0 3 0 4 -50 0 0 -2 0 -1 0 -2 0 -1 -1 -2 0 -1 -1 -2 0 -1 -1 -1 0 -1 -1 -2 -1 -1 0 -1 -1 -1 -1 -1 -1 -1 -1 -1 -1 -1 -1 0 -1 -1 -1 -1 -1 0 -1 -1 -1 0 -1 -1 -1 0 -1 0 -1 -1 -1 0 -1 0 -2 0 -1 0 0 0zm0 0c-14,0 -25,-10 -25,-22 0,-13 11,-23 25,-23l0 45zm632 28l-50 0 0 0 0 -4 1 -3 0 -4 1 -3 0 -4 1 -3 1 -3 2 -4 1 -3 2 -3 1 -3 2 -3 2 -3 3 -2 2 -3 2 -2 3 -3 2 -2 3 -2 3 -2 3 -2 3 -2 4 -2 3 -1 4 -2 3 -1 4 -1 4 -1 3 -1 4 0 4 0 4 -1 0 45 -1 0 -1 0 -1 0 -1 0 -1 1 -1 0 -1 0 -2 1 -1 0 -1 1 -1 0 -1 1 -1 1 -1 0 -1 1 0 1 -1 1 -1 1 -1 1 -1 1 -1 1 0 2 -1 1 0 1 -1 1 0 2 -1 1 0 2 0 1 -1 2 0 1 0 2 0 0zm0 0c0,12 -11,22 -25,22 -14,0 -25,-10 -25,-22l50 0zm25 27l0 45 0 0 -4 0 -4 0 -4 -1 -3 -1 -4 0 -4 -2 -3 -1 -4 -1 -3 -2 -4 -1 -3 -2 -3 -2 -3 -2 -3 -2 -2 -3 -3 -2 -2 -3 -2 -2 -3 -3 -2 -3 -2 -3 -1 -3 -2 -3 -1 -3 -2 -3 -1 -4 -1 -3 0 -3 -1 -4 0 -3 -1 -4 0 -3 50 0 0 1 0 2 1 1 0 2 0 1 1 2 0 1 1 1 0 2 1 1 0 1 1 1 1 1 1 1 1 1 1 1 0 1 1 1 1 1 1 0 1 1 1 1 1 0 2 1 1 0 1 0 1 1 1 0 1 0 1 0 1 0 1 0 0 0zm0 0c14,0 25,10 25,23 0,12 -11,22 -25,22l0 -45zm25 -27l50 0 0 0 0 3 0 4 -1 3 0 4 -1 3 -1 3 -1 4 -1 3 -2 3 -1 3 -2 3 -2 3 -2 3 -2 3 -2 2 -3 3 -2 2 -3 3 -3 2 -3 2 -3 2 -3 2 -3 1 -4 2 -3 1 -4 1 -3 2 -4 0 -4 1 -4 1 -4 0 -4 0 0 -45 1 0 2 0 1 0 1 0 1 0 1 -1 1 0 1 0 1 -1 1 0 1 -1 1 -1 1 0 1 -1 1 -1 1 -1 1 -1 1 -1 1 -1 0 -1 1 -1 1 -1 0 -1 1 -2 0 -1 1 -1 0 -2 1 -1 0 -2 0 -1 0 -2 0 -1 0 0zm0 0c0,-13 11,-23 25,-23 14,0 25,10 25,23l-50 0zm-25 -28l0 -45 0 0 4 1 4 0 4 0 4 1 4 1 3 1 4 1 3 2 4 1 3 2 3 2 3 2 3 2 3 2 3 2 2 3 3 2 2 3 2 2 2 3 2 3 2 3 1 3 2 3 1 4 1 3 1 3 1 4 0 3 1 4 0 3 0 4 -50 0 0 -2 0 -1 0 -2 0 -1 -1 -2 0 -1 -1 -2 0 -1 -1 -1 0 -1 -1 -2 -1 -1 0 -1 -1 -1 -1 -1 -1 -1 -1 -1 -1 -1 -1 0 -1 -1 -1 -1 -1 0 -1 -1 -1 0 -1 -1 -1 0 -1 0 -1 -1 -1 0 -1 0 -2 0 -1 0 0 0zm0 0c-14,0 -25,-10 -25,-22 0,-13 11,-23 25,-23l0 45z"/>
   </g>
   <path class="fil31 str4" d="M15479 6359c-134,-74 -692,-268 -695,-269 -129,-211 -104,-829 -104,-829l-456 0 -456 0c0,0 24,618 -105,829 -1,0 -561,195 -694,269 -134,75 -223,159 -223,308 0,103 11,230 11,322l2933 0c0,-113 12,-219 12,-322 0,-149 -89,-233 -223,-308z"/>
   <path class="fil21 str4" d="M15032 4610c-31,-69 -77,-15 -95,26 13,-476 -163,-974 -717,-984l0 0c-3,0 -5,0 -8,0 -3,0 -5,0 -8,0l0 0c-557,10 -727,506 -712,984 -24,-39 -71,-100 -105,-26 -42,91 77,391 138,329 18,92 41,179 69,256 170,472 530,596 610,610l16 0c79,-14 439,-138 610,-610 27,-76 51,-162 68,-253 62,47 175,-243 134,-332z"/>
   <path class="fil32 str4" d="M15747 6997c0,-115 11,-224 11,-329 0,-152 -91,-238 -228,-314 -136,-76 -709,-275 -709,-275 0,305 -573,334 -573,334 0,0 -602,-29 -602,-319 0,0 -543,184 -680,260 -136,76 -227,162 -227,314 0,105 11,235 11,329l2997 0z"/>
   <path class="fil32 str4" d="M14248 6413c0,0 550,-28 572,-317 -1,-1 -1,-2 -1,-2 0,0 35,-580 -132,-501 0,0 -214,209 -454,209 -240,0 -455,-209 -455,-209 -167,-79 -132,501 -132,501 0,290 602,319 602,319z"/>
   <path class="fil33 str4" d="M13694 6222c-10,-327 7,-450 26,-534 12,-49 41,-74 68,-85 7,6 16,14 29,24 -19,3 -54,17 -66,69 -20,84 -36,210 -24,559 -12,-10 -23,-21 -33,-33z"/>
   <path class="fil33 str4" d="M13852 6329c-11,-336 6,-462 26,-546 9,-39 29,-63 51,-77 11,6 22,12 33,18 -19,7 -44,24 -54,66 -19,84 -36,209 -24,551 -11,-4 -22,-8 -32,-12z"/>
   <path class="fil33 str4" d="M14025 6382c-10,-329 6,-452 26,-536 7,-31 21,-53 38,-67 13,4 27,7 41,11 -18,7 -40,25 -49,63 -19,82 -35,205 -25,535 -10,-2 -21,-4 -31,-6z"/>
   <path class="fil33 str4" d="M14772 6218c9,-324 -7,-446 -27,-530 -11,-49 -40,-74 -68,-85 -6,5 -16,14 -28,24 18,3 54,17 66,69 19,84 36,210 24,556 12,-10 23,-22 33,-34z"/>
   <path class="fil33 str4" d="M14614 6330c10,-337 -6,-462 -26,-547 -9,-39 -30,-63 -52,-77 -10,6 -21,12 -33,18 19,7 44,24 54,66 20,84 36,209 25,554 10,-4 21,-9 32,-14z"/>
   <path class="fil33 str4" d="M14441 6385c10,-331 -7,-455 -26,-539 -7,-31 -22,-53 -39,-67 -13,4 -27,7 -40,10 18,8 39,26 48,64 19,83 36,206 25,539 10,-2 21,-4 32,-7z"/>
   <path class="fil33 str4" d="M14217 6411l0 -610c5,0 10,1 16,1 5,0 10,-1 15,-1l0 612 0 0c0,0 -11,0 -31,-2z"/>
   <path class="fil33 str4" d="M14249 6512c-591,0 -721,-291 -745,-369l30 -10c22,66 147,348 715,348 593,0 676,-306 686,-362l30 11c-17,73 -123,382 -716,382z"/>
   <path class="fil33 str4" d="M14253 6641c-670,0 -880,-290 -942,-429 13,-5 26,-9 40,-14 61,128 266,402 902,402 648,0 824,-282 870,-413 13,5 25,9 37,14 -54,142 -246,440 -907,440z"/>
   <path class="fil34 str4" d="M14647 3587c0,238 -193,431 -432,431 -238,0 -431,-193 -431,-431 0,-239 193,-432 431,-432 239,0 432,193 432,432z"/>
   <path class="fil30 str4" d="M14876 4780c-12,50 -59,208 -245,231 -133,17 -224,-40 -288,-183 -58,-129 -29,-192 15,-233 43,-42 131,-73 249,-73 106,0 213,24 234,40 69,51 48,168 35,218zm-783 48c-64,143 -155,200 -288,183 -186,-23 -234,-181 -246,-231 -12,-50 -33,-167 35,-218 22,-16 129,-40 234,-40 119,0 207,31 250,73 43,41 73,104 15,233zm779 -293c-35,-8 -151,-29 -259,-30 -128,0 -213,34 -253,65 -39,31 -39,58 -79,58 -25,0 -45,-1 -57,-1l-12 0c-12,0 -32,1 -57,1 -40,0 -40,-27 -80,-58 -39,-31 -124,-65 -252,-65 -108,1 -224,22 -260,30 -35,8 -73,12 -73,12l0 110 45 6c1,190 78,279 165,329 86,50 244,59 337,-48 94,-106 103,-255 109,-271 4,-12 45,-12 66,-10l12 0c21,-2 62,-2 66,10 6,16 15,165 108,271 93,107 251,98 338,48 86,-50 163,-139 165,-329l44 -6 0 -110c0,0 -38,-4 -73,-12z"/>
   <path class="fil30" d="M14124 4723l13 0c5,-27 7,-45 9,-50 1,-4 7,-7 14,-8l0 -14 -44 0c8,20 11,43 8,72z"/>
   <path class="fil30 str4" d="M14945 4636l0 -89c0,0 -38,-4 -73,-12 -35,-8 -151,-29 -259,-30 -128,0 -213,34 -253,65 -39,31 -39,58 -79,58 -25,0 -45,-1 -57,-1l-12 0c-12,0 -32,1 -57,1 -40,0 -40,-27 -80,-58 -39,-31 -124,-65 -252,-65 -108,1 -224,22 -260,30 -35,8 -73,12 -73,12l0 110 31 4 26 5c3,-38 16,-80 47,-104 22,-16 129,-40 234,-40 119,0 207,31 250,73 18,17 34,39 42,68 3,0 6,1 8,2 5,0 9,1 13,1 11,1 16,-1 16,-1l0 0c14,-4 40,-3 55,-2l12 0c16,-1 43,-2 57,3l34 0c7,-30 23,-53 43,-71 43,-42 131,-73 249,-73 106,0 213,24 234,40 33,25 45,64 48,101 0,0 12,1 12,0l44 -6 0 -21z"/>
   <path class="fil30" d="M14319 4651l-42 0 0 14c7,1 12,4 13,8 2,5 4,23 9,50l13 0c-3,-29 0,-52 7,-72z"/>
   <path class="fil34 str4" d="M13416 4577c0,0 -101,-960 813,-990 915,-29 773,991 773,991 0,0 -47,12 -60,71l-1156 -425 -291 431c0,0 -16,-71 -79,-78z"/>
   <g>
    <path class="fil25" d="M13883 4683c-28,0 -50,23 -50,50 0,28 22,50 50,50 27,0 50,-22 50,-50 0,-27 -23,-50 -50,-50zm657 0c-28,0 -50,23 -50,50 0,28 22,50 50,50 27,0 50,-22 50,-50 0,-27 -23,-50 -50,-50z"/>
    <path id="1" class="fil26" d="M13883 4733l-100 0 0 0 0 -4 0 -5 1 -4 0 -5 1 -4 2 -5 1 -4 2 -4 1 -4 3 -4 2 -4 2 -4 3 -3 3 -4 3 -3 3 -4 3 -3 4 -3 3 -3 4 -3 4 -2 5 -3 4 -2 5 -2 4 -2 5 -2 5 -1 5 -1 5 -1 6 -1 5 0 6 0 0 89 0 0 0 0 0 0 1 0 0 -1 0 0 0 0 0 0 1 0 0 0 0 0 0 0 0 0 0 0 0 0 0 0 -1 1 0 0 0 0 0 0 0 0 0 1 -1 0 0 0 0 1 0 0 0 1 0 0 0 1 0 0 0 1 0 0 0 0zm0 0c0,25 -23,45 -50,45 -28,0 -50,-20 -50,-45l100 0zm0 6l0 89 0 0 -6 0 -5 -1 -6 -1 -5 0 -5 -2 -5 -1 -5 -2 -4 -2 -5 -2 -4 -2 -5 -2 -4 -3 -4 -3 -3 -3 -4 -3 -3 -3 -3 -3 -3 -4 -3 -3 -3 -4 -2 -4 -2 -4 -3 -4 -1 -4 -2 -4 -1 -4 -2 -4 -1 -5 0 -4 -1 -5 0 -4 0 -5 100 0 0 1 0 0 0 1 0 0 0 1 0 0 0 1 0 0 0 0 1 1 0 0 0 0 0 0 0 1 0 0 1 0 0 0 0 0 0 0 0 0 0 0 0 0 0 0 0 0 -1 0 0 0 0 0 0 0 -1 0 0 0 0 0 0 0 0 0zm0 0c27,0 50,20 50,44 0,25 -23,45 -50,45l0 -89zm0 -6l100 0 0 0 -1 5 0 4 -1 5 0 4 -1 5 -2 4 -1 4 -2 4 -1 4 -3 4 -2 4 -2 4 -3 4 -3 3 -3 4 -3 3 -3 3 -4 3 -3 3 -4 3 -4 3 -5 2 -4 2 -5 2 -4 2 -5 2 -5 1 -5 2 -5 0 -6 1 -5 1 -5 0 0 -89 -1 0 0 0 0 0 0 0 -1 0 0 0 0 0 0 0 -1 0 0 0 0 0 0 0 0 0 0 0 0 0 1 0 0 0 0 0 0 -1 0 0 0 0 0 0 1 -1 0 0 0 0 0 -1 0 0 0 -1 0 0 0 -1 1 0 0 -1 0 0zm0 0c0,-24 22,-44 50,-44 27,0 50,20 50,44l-100 0zm0 -5l0 -89 0 0 5 0 5 0 6 1 5 1 5 1 5 1 5 2 4 2 5 2 4 2 5 3 4 2 4 3 3 3 4 3 3 3 3 4 3 3 3 4 3 3 2 4 2 4 3 4 1 4 2 4 1 4 2 5 1 4 0 5 1 4 0 5 1 4 -100 0 0 0 -1 -1 0 0 0 -1 0 0 0 -1 0 0 0 -1 0 0 -1 0 0 -1 0 0 0 0 0 0 0 0 -1 -1 0 0 0 0 0 0 0 0 0 0 0 0 0 0 1 0 0 0 0 0 0 0 0 1 1 0 0 0 0 0 1 0 0 0zm0 0c-28,0 -50,-20 -50,-45 0,-24 22,-44 50,-44l0 89zm657 5l-100 0 0 0 0 -4 0 -5 1 -4 0 -5 1 -4 2 -5 1 -4 2 -4 2 -4 2 -4 2 -4 2 -4 3 -3 3 -4 3 -3 3 -4 3 -3 4 -3 3 -3 4 -3 4 -2 5 -3 4 -2 5 -2 4 -2 5 -2 5 -1 5 -1 5 -1 6 -1 5 0 6 0 0 89 0 0 0 0 0 0 1 0 0 -1 0 0 0 0 0 0 1 0 0 0 0 0 0 0 0 0 0 0 0 0 0 0 -1 1 0 0 0 0 0 0 0 0 0 1 -1 0 0 0 0 1 0 0 0 1 0 0 0 1 0 0 0 1 0 0 0 0zm0 0c0,25 -23,45 -50,45 -28,0 -50,-20 -50,-45l100 0zm0 6l0 89 0 0 -6 0 -5 -1 -6 -1 -5 0 -5 -2 -5 -1 -5 -2 -4 -2 -5 -2 -4 -2 -5 -2 -4 -3 -4 -3 -3 -3 -4 -3 -3 -3 -3 -3 -3 -4 -3 -3 -3 -4 -2 -4 -2 -4 -2 -4 -2 -4 -2 -4 -1 -4 -2 -4 -1 -5 0 -4 -1 -5 0 -4 0 -5 100 0 0 1 0 0 0 1 0 0 0 1 0 0 0 1 0 0 0 0 1 1 0 0 0 0 0 0 0 1 0 0 1 0 0 0 0 0 0 0 0 0 0 0 0 0 0 0 0 0 -1 0 0 0 0 0 0 0 -1 0 0 0 0 0 0 0 0 0zm0 0c27,0 50,20 50,44 0,25 -23,45 -50,45l0 -89zm0 -6l100 0 0 0 -1 5 0 4 -1 5 0 4 -1 5 -2 4 -1 4 -2 4 -1 4 -3 4 -2 4 -2 4 -3 4 -3 3 -3 4 -3 3 -3 3 -4 3 -3 3 -4 3 -4 3 -5 2 -4 2 -5 2 -4 2 -5 2 -5 1 -5 2 -5 0 -6 1 -5 1 -5 0 0 -89 -1 0 0 0 0 0 -1 0 0 0 0 0 0 0 0 0 -1 0 0 0 0 0 0 0 0 0 0 0 0 0 1 0 0 0 0 0 0 -1 0 0 0 0 0 0 1 -1 0 0 0 0 0 -1 0 0 0 -1 0 0 0 -1 0 0 1 -1 0 0zm0 0c0,-24 22,-44 50,-44 27,0 50,20 50,44l-100 0zm0 -5l0 -89 0 0 5 0 5 0 6 1 5 1 5 1 5 1 5 2 4 2 5 2 4 2 5 3 4 2 4 3 3 3 4 3 3 3 3 4 3 3 3 4 3 3 2 4 2 4 3 4 1 4 2 4 1 4 2 5 1 4 0 5 1 4 0 5 1 4 -100 0 -1 0 0 -1 0 0 0 -1 0 0 0 -1 0 0 0 -1 0 0 -1 0 0 -1 0 0 0 0 0 0 0 0 -1 -1 0 0 0 0 0 0 0 0 0 0 0 0 0 0 1 0 0 0 0 0 0 0 0 1 1 0 0 0 0 0 1 0 0 0zm0 0c-28,0 -50,-20 -50,-45 0,-24 22,-44 50,-44l0 89z"/>
   </g>
   <path class="fil35 str4" d="M10380 4604c9,5 18,12 27,20 0,1 0,1 0,2 -7,-7 -16,-15 -27,-22z"/>
   <path class="fil21 str4" d="M9798 6506c439,-64 720,-395 720,-395 139,-188 113,-824 113,-824l444 0 444 0c0,0 -26,636 113,824 0,0 281,331 720,395 0,0 60,15 -79,243 -69,113 -632,170 -1198,171 -566,-1 -1129,-58 -1198,-171 -139,-228 -79,-243 -79,-243z"/>
   <path class="fil36 str4" d="M11049 6695c0,19 15,34 33,34 18,0 33,-15 33,-34 0,-19 -15,-34 -33,-34 -18,0 -33,15 -33,34z"/>
   <path class="fil21 str4" d="M10241 4586c49,-15 89,21 110,40 0,-7 0,-14 -1,-21 -12,-484 167,-991 731,-1001l0 0c3,0 5,0 8,0 3,0 6,0 8,0l0 0c567,10 740,515 725,1001 0,7 0,13 0,20 21,-19 61,-54 110,-39 104,31 62,410 -163,471 -14,101 -34,225 -48,265 -26,70 -256,328 -353,372 -98,45 -279,40 -279,40 0,0 -182,5 -279,-40 -98,-44 -327,-302 -353,-372 -14,-40 -34,-163 -49,-264l0 0c-228,-56 -258,-446 -167,-472z"/>
   <path class="fil37 str4" d="M12463 7001c0,-117 10,-228 10,-336 0,-155 -84,-243 -210,-321 -126,-77 -655,-281 -655,-281 -122,231 -529,230 -529,230 0,0 -407,1 -529,-230 0,0 -529,204 -655,281 -126,78 -210,166 -210,321 0,108 10,241 10,336l2768 0z"/>
   <path class="fil38 str4" d="M10484 6089c-14,10 -30,17 -47,18 17,-6 33,-12 47,-18z"/>
   <path class="fil38 str4" d="M9848 6375c-11,46 -47,79 -91,81 25,-29 56,-56 91,-81z"/>
   <path class="fil38 str4" d="M10301 6349c0,59 -44,107 -97,107 -54,0 -98,-48 -98,-107 0,-60 44,-108 98,-108 53,0 97,48 97,108z"/>
   <path class="fil38 str4" d="M10751 6349c0,59 -43,107 -97,107 -54,0 -98,-48 -98,-107 0,-60 44,-108 98,-108 54,0 97,48 97,108z"/>
   <path class="fil38 str4" d="M11202 6349c0,59 -44,107 -98,107 -54,0 -98,-48 -98,-107 0,-22 6,-42 16,-59 35,3 57,3 57,3 0,0 42,0 104,-8 12,18 19,40 19,64z"/>
   <path class="fil38 str4" d="M11652 6349c0,59 -44,107 -98,107 -54,0 -97,-48 -97,-107 0,-60 43,-108 97,-108 54,0 98,48 98,108z"/>
   <path class="fil38 str4" d="M12102 6349c0,59 -44,107 -98,107 -54,0 -97,-48 -97,-107 0,-60 43,-108 97,-108 54,0 98,48 98,108z"/>
   <path class="fil38 str4" d="M10076 6697c0,60 -44,108 -98,108 -53,0 -97,-48 -97,-108 0,-59 44,-108 97,-108 54,0 98,49 98,108z"/>
   <path class="fil38 str4" d="M10526 6697c0,60 -43,108 -97,108 -54,0 -98,-48 -98,-108 0,-59 44,-108 98,-108 54,0 97,49 97,108z"/>
   <path class="fil38 str4" d="M10976 6697c0,60 -43,108 -97,108 -54,0 -98,-48 -98,-108 0,-59 44,-108 98,-108 54,0 97,49 97,108z"/>
   <path class="fil38 str4" d="M11427 6697c0,60 -44,108 -98,108 -54,0 -98,-48 -98,-108 0,-59 44,-108 98,-108 54,0 98,49 98,108z"/>
   <path class="fil38 str4" d="M11877 6697c0,60 -44,108 -98,108 -54,0 -97,-48 -97,-108 0,-59 43,-108 97,-108 54,0 98,49 98,108z"/>
   <path class="fil38 str4" d="M12327 6697c0,60 -44,108 -98,108 -53,0 -97,-48 -97,-108 0,-59 43,-108 97,-108 54,0 98,49 98,108z"/>
   <path class="fil38 str4" d="M9695 6959c16,-13 36,-21 58,-21 40,0 74,26 89,63l-147 0c0,-13 0,-27 0,-42z"/>
   <path class="fil38 str4" d="M10115 7001c15,-37 49,-63 89,-63 39,0 73,26 89,63l-178 0z"/>
   <path class="fil38 str4" d="M10565 7001c15,-37 49,-63 89,-63 39,0 73,26 89,63l-178 0z"/>
   <path class="fil38 str4" d="M11015 7001c15,-37 49,-63 89,-63 40,0 74,26 89,63l-178 0z"/>
   <path class="fil38 str4" d="M11465 7001c16,-37 50,-63 89,-63 40,0 74,26 89,63l-178 0z"/>
   <path class="fil38 str4" d="M11915 7001c16,-37 50,-63 89,-63 40,0 74,26 89,63l-178 0z"/>
   <path class="fil38 str4" d="M12366 7001c15,-37 49,-63 89,-63 3,0 6,0 9,0 -1,21 -1,42 -1,63l-97 0z"/>
   <path class="fil39 str4" d="M11607 6060c-165,228 -528,233 -528,233 0,0 -363,-5 -529,-233l-193 78c0,0 133,365 722,365 589,0 722,-365 722,-365l-194 -78z"/>
   <path class="fil40 str4" d="M11661 5317c-35,52 -291,79 -329,105 -38,25 -111,92 -243,94 -131,-2 -204,-69 -242,-94 -38,-26 -295,-53 -329,-105 -34,-52 -108,-260 -108,-260 14,104 34,232 49,273 26,72 258,338 357,383 86,40 237,42 273,42 37,0 188,-2 274,-42 99,-45 331,-311 357,-383 15,-41 35,-169 49,-273 0,0 -74,208 -108,260z"/>
   <path class="fil40 str4" d="M10241 4586c0,0 -42,-724 125,-685 0,0 -13,-159 120,-236 133,-77 214,-185 214,-185 0,0 15,88 -77,147 0,0 113,-53 196,-166 0,0 -21,97 -85,144 0,0 146,-130 335,-158 0,0 -90,21 -150,111 0,0 193,-65 232,-128 0,0 -39,100 -129,124 0,0 184,-72 343,-82 0,0 -108,30 -172,73 0,0 173,-55 232,-77 0,0 287,129 416,437 128,309 91,681 91,681 0,0 -57,15 -104,58 0,0 -62,-131 -65,-183 -4,-74 -57,-285 -104,-356 -47,-71 -154,-182 -261,-156 -108,25 -291,38 -449,16 -159,-21 -305,-2 -342,63 0,0 -121,340 -156,400 -34,60 -52,126 -78,216 0,0 -83,-84 -132,-58z"/>
   <path class="fil41 str4" d="M11686 4823c-24,85 -74,108 -153,119 -80,11 -171,2 -216,-24 -46,-27 -86,-115 -83,-190 3,-75 46,-92 126,-108 79,-17 190,-21 262,-18 72,3 86,30 89,60 4,31 -1,76 -25,161zm-805 95c-45,26 -137,35 -216,24 -79,-11 -129,-34 -153,-119 -25,-85 -29,-130 -26,-161 3,-30 18,-57 90,-60 71,-3 183,1 262,18 80,16 123,33 126,108 3,75 -38,163 -83,190zm705 -373c-145,0 -221,21 -286,35 -64,14 -137,39 -197,40 -61,-1 -134,-26 -198,-40 -65,-14 -141,-35 -286,-35 -176,0 -264,18 -264,18l10 76c42,11 43,27 53,61 10,33 34,111 47,155 10,33 35,114 195,134 155,19 233,-7 274,-42 47,-40 92,-165 103,-214 11,-48 29,-41 29,-41l35 0 3 0 35 0c0,0 18,-7 29,41 11,49 56,174 103,214 41,35 119,61 274,42 160,-20 185,-101 195,-134 13,-44 37,-122 47,-155 10,-34 11,-50 54,-61l9 -76c0,0 -88,-18 -264,-18z"/>
   <path class="fil40 str4" d="M11495 5273c-107,6 -226,-67 -294,-86 -69,-19 -98,19 -98,19 0,0 -30,-38 -98,-19 -69,19 -188,92 -294,86 0,0 206,110 392,10 185,100 392,-10 392,-10z"/>
   <g>
    <path class="fil25" d="M10765 4732c-28,0 -50,23 -50,50 0,28 22,50 50,50 28,0 50,-22 50,-50 0,-27 -22,-50 -50,-50zm657 0c-28,0 -50,23 -50,50 0,28 22,50 50,50 28,0 50,-22 50,-50 0,-27 -22,-50 -50,-50z"/>
    <path id="1" class="fil26" d="M10765 4782l-100 0 0 0 0 -4 0 -5 1 -4 1 -5 1 -4 1 -4 1 -5 2 -4 2 -4 2 -4 2 -4 3 -4 2 -3 3 -4 3 -3 3 -4 4 -3 3 -3 4 -3 4 -3 4 -2 4 -3 4 -2 5 -2 5 -2 5 -1 5 -2 5 -1 5 -1 5 -1 5 0 6 0 0 89 0 0 0 0 1 0 0 0 0 0 1 0 0 -1 0 0 0 0 0 0 0 0 0 0 0 0 0 0 0 0 0 0 0 1 0 0 -1 0 0 0 0 0 0 1 0 0 0 1 -1 0 0 0 0 1 0 0 0 1 0 0 0 1 0 0 0 0zm0 0c0,25 -22,45 -50,45 -28,0 -50,-20 -50,-45l100 0zm0 6l0 89 0 0 -6 0 -5 -1 -5 0 -5 -1 -5 -2 -5 -1 -5 -2 -5 -1 -5 -3 -4 -2 -4 -2 -4 -3 -4 -3 -4 -2 -3 -4 -4 -3 -3 -3 -3 -4 -3 -3 -2 -4 -3 -4 -2 -4 -2 -3 -2 -5 -2 -4 -1 -4 -1 -4 -1 -5 -1 -4 -1 -5 0 -4 0 -5 100 0 0 1 0 0 0 1 0 0 0 1 0 0 0 1 1 0 0 0 0 1 0 0 0 0 0 1 1 0 0 0 0 0 0 0 0 0 0 0 0 0 0 0 0 0 0 0 0 0 0 0 0 0 -1 0 0 0 0 0 -1 0 0 0 0 0 0 0zm0 0c28,0 50,20 50,44 0,25 -22,45 -50,45l0 -89zm0 -6l100 0 0 0 0 5 -1 4 0 5 -1 4 -1 5 -1 4 -2 4 -1 4 -2 5 -2 3 -2 4 -3 4 -2 4 -3 3 -3 4 -3 3 -4 3 -3 4 -4 2 -4 3 -4 3 -4 2 -5 2 -4 3 -5 1 -5 2 -5 1 -5 2 -5 1 -5 0 -6 1 -5 0 0 -89 0 0 -1 0 0 0 0 0 0 0 -1 0 0 0 0 0 0 0 0 0 0 0 0 0 0 0 0 0 0 0 0 0 0 0 0 0 0 0 1 -1 0 0 0 0 0 -1 0 0 0 0 0 -1 1 0 0 -1 0 0 0 -1 0 0 0 -1 0 0zm0 0c0,-24 22,-44 50,-44 28,0 50,20 50,44l-100 0zm0 -5l0 -89 0 0 5 0 6 0 5 1 5 1 5 1 5 2 5 1 5 2 4 2 5 2 4 3 4 2 4 3 4 3 3 3 4 3 3 4 3 3 3 4 2 3 3 4 2 4 2 4 2 4 1 4 2 5 1 4 1 4 1 5 0 4 1 5 0 4 -100 0 0 0 0 -1 0 0 0 -1 0 0 -1 -1 0 0 0 -1 0 0 0 0 0 -1 0 0 -1 0 0 0 0 0 0 -1 0 0 0 0 0 0 0 0 0 0 0 0 0 0 0 0 0 0 0 1 1 0 0 0 0 0 0 0 1 0 0 0 0 0zm0 0c-28,0 -50,-20 -50,-45 0,-24 22,-44 50,-44l0 89zm657 5l-100 0 0 0 0 -4 0 -5 1 -4 1 -5 1 -4 1 -4 1 -5 2 -4 2 -4 2 -4 2 -4 3 -4 2 -3 3 -4 3 -3 3 -4 4 -3 3 -3 4 -3 4 -3 4 -2 4 -3 4 -2 5 -2 5 -2 5 -1 5 -2 5 -1 5 -1 5 -1 5 0 6 0 0 89 0 0 0 0 1 0 0 0 0 0 1 0 0 -1 0 0 0 0 0 0 0 0 0 0 0 0 0 0 0 0 0 0 0 1 0 0 -1 0 0 0 0 0 0 1 0 0 0 1 -1 0 0 0 0 1 0 0 0 1 0 0 0 1 0 0 0 0zm0 0c0,25 -22,45 -50,45 -28,0 -50,-20 -50,-45l100 0zm0 6l0 89 0 0 -6 0 -5 -1 -5 0 -5 -1 -5 -2 -5 -1 -5 -2 -5 -1 -5 -3 -4 -2 -4 -2 -4 -3 -4 -3 -4 -2 -3 -4 -4 -3 -3 -3 -3 -4 -3 -3 -2 -4 -3 -4 -2 -4 -2 -3 -2 -5 -2 -4 -1 -4 -1 -4 -1 -5 -1 -4 -1 -5 0 -4 0 -5 100 0 0 1 0 0 0 1 0 0 0 1 0 0 0 1 1 0 0 0 0 1 0 0 0 0 0 1 1 0 0 0 0 0 0 0 0 0 0 0 0 0 0 0 0 0 0 0 0 0 0 0 0 0 -1 0 0 0 0 0 -1 0 0 0 0 0 0 0zm0 0c28,0 50,20 50,44 0,25 -22,45 -50,45l0 -89zm0 -6l100 0 0 0 0 5 -1 4 0 5 -1 4 -1 5 -1 4 -2 4 -1 4 -2 5 -2 3 -2 4 -3 4 -2 4 -3 3 -3 4 -3 3 -4 3 -3 4 -4 2 -4 3 -4 3 -4 2 -5 2 -4 3 -5 1 -5 2 -5 1 -5 2 -5 1 -5 0 -6 1 -5 0 0 -89 0 0 -1 0 0 0 0 0 0 0 -1 0 0 0 0 0 0 0 0 0 0 0 0 0 0 0 0 0 0 0 0 0 0 0 0 0 0 0 1 -1 0 0 0 0 0 -1 0 0 0 0 0 -1 1 0 0 -1 0 0 0 -1 0 0 0 -1 0 0zm0 0c0,-24 22,-44 50,-44 28,0 50,20 50,44l-100 0zm0 -5l0 -89 0 0 5 0 6 0 5 1 5 1 5 1 5 2 5 1 5 2 4 2 5 2 4 3 4 2 4 3 4 3 3 3 4 3 3 4 3 3 3 4 2 3 3 4 2 4 2 4 2 4 1 4 2 5 1 4 1 4 1 5 0 4 1 5 0 4 -100 0 0 0 0 -1 0 0 0 -1 0 0 -1 -1 0 0 0 0 0 -1 0 0 0 -1 0 0 -1 0 0 0 0 0 0 -1 0 0 0 0 0 0 0 0 0 0 0 0 0 0 0 0 0 0 0 1 1 0 0 0 0 0 0 0 1 0 0 0 0 0zm0 0c-28,0 -50,-20 -50,-45 0,-24 22,-44 50,-44l0 89z"/>
   </g>
  </g>
 </g>
</svg>
