<?xml version="1.0" encoding="UTF-8"?>
<!DOCTYPE svg PUBLIC "-//W3C//DTD SVG 1.0//EN" "http://www.w3.org/TR/2001/REC-SVG-20010904/DTD/svg10.dtd">
<!-- Creator: CorelDRAW X7 -->
<svg xmlns="http://www.w3.org/2000/svg" xml:space="preserve" width="200mm" height="200mm" version="1.0" style="shape-rendering:geometricPrecision; text-rendering:geometricPrecision; image-rendering:optimizeQuality; fill-rule:evenodd; clip-rule:evenodd"
viewBox="0 0 20000 20000"
 xmlns:xlink="http://www.w3.org/1999/xlink">
 <defs>
  <style type="text/css">
   <![CDATA[
    .str1 {stroke:#3696A0;stroke-width:25}
    .str0 {stroke:#2B2A29;stroke-width:10}
    .fil5 {fill:none}
    .fil8 {fill:#FEFEFE}
    .fil7 {fill:#252626}
    .fil6 {fill:#3696A0}
    .fil2 {fill:#4A0595}
    .fil3 {fill:#4D1AB9}
    .fil4 {fill:#634195}
    .fil1 {fill:#7049AB}
    .fil0 {fill:url(#id0)}
   ]]>
  </style>
  <radialGradient id="id0" gradientUnits="userSpaceOnUse" gradientTransform="matrix(1.41421 -0 -0 1.41421 -4155 -4129)" cx="10030.6" cy="9969.4" r="10000" fx="10030.6" fy="9969.4">
   <stop offset="0" style="stop-opacity:1; stop-color:#FEFEFE"/>
   <stop offset="0.439216" style="stop-opacity:1; stop-color:#FEFEFE"/>
   <stop offset="1" style="stop-opacity:1; stop-color:#D1E2F2"/>
  </radialGradient>
 </defs>
 <g id="Layer_x0020_1">
  <metadata id="CorelCorpID_0Corel-Layer"/>
  <g id="_70886973056">
   <path class="fil0" d="M31 -31l20000 0 0 20000 -20000 0 0 -20000z"/>
   <g>
    <path class="fil1" d="M9057 10020c-3,3 -4,7 -5,10l-16 124c-7,36 -11,81 -17,125 -125,91 -463,435 -566,538 -95,94 -185,177 -279,270 -38,38 -251,254 -283,267 2,-96 17,-219 4,-309 -12,-7 -26,-15 -38,-21 -9,10 -27,0 0,14 23,37 18,35 18,86 0,27 -1,54 -1,81 2,301 -81,91 -93,406 -75,33 -54,28 -71,118 -27,134 -128,81 -73,259 21,66 86,97 49,166l-111 142c-23,21 -31,22 -30,63 52,23 68,37 95,84 241,16 199,-89 424,-67 63,7 112,62 144,114 27,44 33,31 63,62 18,19 29,44 43,63 280,-18 181,-73 357,-164 49,-25 26,-28 74,-62 97,-67 146,-64 158,-213 6,-69 9,-57 35,-106 11,-21 12,-33 23,-46l118 -81c37,-10 71,-8 101,-23 63,-30 89,-85 115,-144 27,-60 85,-63 122,-130 153,-6 122,0 230,53 153,76 100,146 175,226 97,104 -80,47 153,248 170,147 -73,277 -121,309 -70,47 -109,18 -188,75 -39,28 -41,27 -107,34 -58,6 -56,-1 -104,17 -12,93 113,132 136,190 21,60 -11,82 -44,119 -47,53 -3,54 -62,111 -42,42 -31,58 -43,123 -19,99 -41,35 -66,108 -19,56 -6,87 -44,130 -57,64 -103,123 -141,200 -29,57 -51,53 -70,97 14,31 31,40 49,83 17,39 19,59 19,111 1,96 -2,165 -12,252 -7,61 -24,50 -18,107 10,95 12,172 68,238l34 33c87,50 255,6 348,53 124,62 203,118 310,204 38,31 12,31 54,72 25,25 42,42 68,70 41,45 72,57 105,89 37,37 31,89 108,76 51,-9 72,-35 91,-76 8,-16 0,3 11,-23 6,-18 6,-22 13,-44 48,-161 225,-73 385,-112 36,-9 37,-17 64,-36 2,-2 4,-4 6,-5 3,-2 6,-4 8,-5 20,-10 81,-19 106,-22 155,-23 181,36 225,159 13,37 25,49 55,61 43,-28 54,-52 96,-70 43,-19 22,-2 62,-29 66,-47 126,-34 208,-47 105,-16 127,-187 290,-212 77,-13 75,8 129,-39 46,-40 52,-39 130,-35 21,8 53,59 66,75 49,63 43,248 60,332 8,36 15,79 33,103 8,11 44,54 57,68 33,36 36,17 60,67 15,32 19,57 37,88 25,43 45,39 44,93 -1,26 -16,71 -25,103 -33,115 -1,109 24,196 11,39 10,79 28,109 18,31 34,27 56,69 47,92 76,99 106,153l28 0 24 -114c-47,-28 -53,-32 -55,-102 -9,-291 68,-209 161,-314l80 -80c129,-97 211,110 362,7 84,-58 197,-3 265,-55l145 -95c60,-56 107,-176 92,-268 -12,-73 -41,-165 -27,-247 11,-63 71,-49 129,-81 100,-53 159,-30 140,-308 -67,-36 -87,-30 -172,-16 -138,21 -64,63 -260,-24 -53,-23 -35,-16 -70,-45 -59,-47 -101,-21 -102,-132 -2,-148 34,-136 121,-229 28,-30 37,-21 50,-61 10,-34 7,-62 23,-93 23,-42 77,-85 116,-115 23,-17 39,-35 55,-56 69,-1 90,9 127,45 32,31 -6,11 46,30 52,20 100,56 145,87 108,75 79,38 180,128 50,44 38,25 44,102 4,55 58,96 108,75 0,0 23,-12 23,-12 14,-8 14,-8 24,-16 -2,-38 -14,-57 -25,-85 -73,-189 -9,-417 -9,-613 -1,-35 -18,-133 -26,-175 -17,-91 -31,-69 -69,-121 -12,-16 -19,-50 -27,-75 -13,-34 -20,-38 -34,-58 -54,-76 -101,-224 -128,-275 -19,-36 -25,-31 -43,-61 -13,-20 -17,-37 -28,-61 -44,-97 -159,-185 -235,-257l-357 -330c-72,-49 -52,-56 -102,-102 -25,-23 -30,-22 -56,-48 -103,-104 -42,-73 -105,-181l-115 -182c-51,-66 -74,-129 -95,-206 -48,-183 -78,-144 -94,-197 -22,-78 8,-197 -10,-287 -46,-224 -225,-113 -338,-248l-82 -114c-78,-90 -411,-21 -399,-174l99 -31 20 -121c-118,-56 -90,-17 -171,-8 -63,7 -173,7 -239,7 -520,0 -130,-104 -606,-107 -122,-1 -165,-2 -278,139 -50,62 -101,79 -165,119 -6,69 32,76 104,155 79,87 44,59 81,174 32,102 60,94 -7,184 -17,25 -13,29 -32,51 -42,-12 -50,-50 -115,-63 -30,38 -28,73 -57,114 -26,35 -48,63 -76,96 -27,33 -57,59 -97,77 -64,29 -69,51 -106,16 -67,-50 0,-216 -28,-298l-172 20c-5,66 41,121 2,184 -8,15 -85,89 -106,102 -43,6 -80,-1 -113,-17 -82,-40 -56,-189 -118,-236 -34,-25 -46,-13 -71,-51 -27,-42 -4,-28 -52,-64 -123,-92 -125,-43 -291,65 -26,17 -34,33 -62,53 -33,23 -47,21 -76,39 -30,18 -30,39 -76,51 -36,9 -74,3 -111,6 -138,11 -226,71 -236,-87 -24,-356 91,-343 91,-480 0,-66 6,-157 17,-225z"/>
    <path class="fil2" d="M12679 15995c-30,-54 -59,-61 -106,-153 -22,-42 -38,-38 -56,-69 -18,-30 -17,-70 -28,-109 -25,-87 -57,-81 -24,-196 9,-32 24,-77 25,-103 1,-54 -19,-50 -44,-93 -18,-31 -22,-56 -37,-88 -24,-50 -27,-31 -60,-67 -13,-14 -49,-57 -57,-68 -18,-24 -25,-67 -33,-103 -17,-84 -11,-269 -60,-332 -13,-16 -45,-67 -66,-75 -78,-4 -84,-5 -130,35 -54,47 -52,26 -129,39 -163,25 -185,196 -290,212 -82,13 -142,0 -208,47 -40,27 -19,10 -62,29 -42,18 -53,42 -96,70 -30,-12 -42,-24 -55,-61 -44,-123 -70,-182 -225,-159 -25,3 -86,12 -106,22 -2,1 -5,3 -8,5 -2,1 -4,3 -6,5 -27,19 -28,27 -64,36 -160,39 -337,-49 -385,112 -7,22 -7,26 -13,44 -11,26 -3,7 -11,23 -19,41 -40,67 -91,76 -77,13 -71,-39 -108,-76 -33,-32 -64,-44 -105,-89 -26,-28 -43,-45 -68,-70 -42,-41 -16,-41 -54,-72 -107,-86 -186,-142 -310,-204 -93,-47 -261,-3 -348,-53l-34 -33c-56,-66 -58,-143 -68,-238 -6,-57 11,-46 18,-107 10,-87 13,-156 12,-252 0,-52 -2,-72 -19,-111 -18,-43 -35,-52 -49,-83 19,-44 41,-40 70,-97 38,-77 84,-136 141,-200 38,-43 25,-74 44,-130 25,-73 47,-8 66,-108 12,-65 1,-81 43,-123 59,-57 15,-58 62,-111 33,-37 65,-59 44,-119 -23,-58 -148,-97 -136,-190 48,-18 46,-11 104,-17 66,-6 68,-6 107,-34 79,-57 118,-28 188,-75 48,-32 291,-162 121,-309 -233,-201 -56,-144 -153,-248 -75,-80 -22,-150 -175,-226 -108,-53 -77,-59 -230,-53 -37,67 -95,70 -122,130 -26,59 -52,114 -115,144 -30,15 -64,13 -101,23l-118 81c-11,13 -12,25 -23,46 -26,49 -29,37 -35,106 -12,149 -61,146 -158,213 -48,34 -25,37 -74,62 -176,91 -77,146 -357,164 -14,-19 -25,-44 -43,-63 -30,-31 -36,-18 -63,-62 -32,-52 -81,-107 -144,-114 -225,-22 -183,83 -424,67 -27,-47 -43,-61 -95,-84 -1,-41 7,-42 30,-63l111 -142c37,-69 -28,-100 -49,-166 -55,-178 46,-125 73,-259 17,-90 -4,-85 71,-118 12,-315 95,-105 93,-406 0,-27 1,-54 1,-81 0,-51 5,-49 -18,-86 -38,-26 -17,-36 -132,-81 -243,-95 -192,-69 -417,122 -97,83 -95,21 -136,83 -69,105 -81,210 -305,239 -77,10 -72,3 -93,-13 65,-109 113,-8 30,-208 -18,-41 -44,-63 -57,-112 -14,-51 -18,-91 -34,-135 -25,-69 -47,-49 -56,-117 21,-39 33,-29 55,-58 19,-26 17,-42 30,-77 26,-71 14,16 49,-65 12,-30 10,-68 8,-106 -38,-29 -26,-21 -57,-54 -33,-34 -122,-38 -246,-88 -131,-53 -242,-31 -132,-234 52,-96 25,-270 -46,-341 -69,-69 -262,21 -243,-200 58,-34 87,-13 84,-102 -8,-204 -44,-151 -71,-281 -14,-65 -14,-84 -14,-155 1,-157 -23,-79 -12,-332 7,-144 1,-156 110,-233 39,-27 77,-31 122,-60l237 -106c47,-15 89,-19 136,-36 49,-18 54,-38 103,-68 51,-30 47,-52 55,-117 25,-218 -92,-300 184,-352 139,-26 164,-86 258,-166 100,-84 26,-70 65,-140 7,-94 -10,-132 40,-202 176,-248 15,-257 -39,-362 -22,-41 -4,-36 -35,-79l-192 -278c-46,-38 -92,-64 -134,-94 -246,-178 -111,-314 -70,-483 48,-200 164,-217 20,-528 -41,-90 -61,-41 -68,-160 -3,-69 -24,-119 -50,-179 -40,-93 -62,-12 -49,-172 107,-81 238,-112 405,-48 192,73 61,32 399,-45 54,-12 133,-68 161,-104 27,-33 20,-64 45,-94l57 -68c35,-43 145,-33 202,-58 248,-111 211,64 216,-339 47,3 74,-13 131,-22 69,-12 46,-31 139,-104 144,-114 76,-17 167,-73 42,-26 38,-35 114,-33 81,4 72,3 121,33 58,35 77,2 131,31l184 123c119,94 138,46 135,180 -1,61 9,93 11,149 4,88 -30,223 -5,304 13,45 99,139 128,179 83,8 74,-12 130,-37 62,-28 48,-19 98,-53 78,-53 119,-58 225,-47 108,10 194,-1 298,0 80,2 65,3 104,40 22,22 55,42 81,60 4,64 -17,72 -63,97 -204,112 -59,228 -88,315 -78,28 -188,-20 -265,18l-128 149c-134,171 -137,111 -229,181 -35,27 -40,35 -81,57l-172 115 -121 155c-84,154 -79,177 -112,300 -10,37 -25,58 -36,101 -3,93 0,171 20,251 117,452 -105,418 -31,673 17,58 51,127 73,201 22,72 58,123 31,212 -19,67 -33,152 -37,227 -4,70 13,202 -2,261 -15,62 -74,90 -78,197 -12,315 79,407 83,709 1,96 -4,177 -11,265 -8,92 -104,628 -128,654 -11,68 -17,159 -17,225 0,137 -115,124 -91,480 10,158 98,98 236,87 37,-3 75,3 111,-6 46,-12 46,-33 76,-51 29,-18 43,-16 76,-39 28,-20 36,-36 62,-53 166,-108 168,-157 291,-65 48,36 25,22 52,64 25,38 37,26 71,51 62,47 36,196 118,236 33,16 70,23 113,17 21,-13 98,-87 106,-102 39,-63 -7,-118 -2,-184l172 -20c28,82 -39,248 28,298 37,35 42,13 106,-16 40,-18 70,-44 97,-77 28,-33 50,-61 76,-96 29,-41 27,-76 57,-114 65,13 73,51 115,63 19,-22 15,-26 32,-51 67,-90 39,-82 7,-184 -37,-115 -2,-87 -81,-174 -72,-79 -110,-86 -104,-155 64,-40 115,-57 165,-119 113,-141 156,-140 278,-139 476,3 86,107 606,107 66,0 176,0 239,-7 81,-9 53,-48 171,8l-20 121 -99 31c-12,153 321,84 399,174l82 114c113,135 292,24 338,248 18,90 -12,209 10,287 16,53 46,14 94,197 21,77 44,140 95,206l115 182c63,108 2,77 105,181 26,26 31,25 56,48 50,46 30,53 102,102l357 330c76,72 191,160 235,257 11,24 15,41 28,61 18,30 24,25 43,61 27,51 74,199 128,275 14,20 21,24 34,58 8,25 15,59 27,75 38,52 52,30 69,121 8,42 25,140 26,175 0,196 -64,424 9,613 11,28 23,47 25,85 -10,8 -10,8 -24,16 0,0 -23,12 -23,12 -50,21 -104,-20 -108,-75 -6,-77 6,-58 -44,-102 -101,-90 -72,-53 -180,-128 -45,-31 -93,-67 -145,-87 -52,-19 -14,1 -46,-30 -37,-36 -58,-46 -127,-45 -16,21 -32,39 -55,56 -39,30 -93,73 -116,115 -16,31 -13,59 -23,93 -13,40 -22,31 -50,61 -87,93 -123,81 -121,229 1,111 43,85 102,132 35,29 17,22 70,45 196,87 122,45 260,24 85,-14 105,-20 172,16 19,278 -40,255 -140,308 -58,32 -118,18 -129,81 -14,82 15,174 27,247 15,92 -32,212 -92,268l-145 95c-68,52 -181,-3 -265,55 -151,103 -233,-104 -362,-7l-80 80c-93,105 -170,23 -161,314 2,70 8,74 55,102l-24 114c1,0 26,-6 32,-11 1,-50 11,-62 11,-126 -98,-26 -54,-235 -9,-283 13,-14 33,-34 47,-45 27,-22 39,-19 62,-41 29,-29 56,-74 103,-92 108,-42 174,95 326,29 57,-25 61,-42 147,-47 63,-4 103,2 154,-40 55,-46 100,-55 143,-98 1,-2 4,-4 5,-6 104,-104 62,-300 47,-426 -8,-67 -1,-90 63,-116 52,-21 82,-39 133,-61 69,-29 51,-55 62,-132 9,-60 9,-110 9,-185 -63,-15 -57,-34 -155,-19 -41,6 -126,29 -151,27 -18,-1 -113,-35 -136,-46l-82 -55c-105,-69 -99,-179 -10,-258 139,-123 74,-137 141,-226l42 -49c120,-132 141,-93 219,-42 36,23 91,43 173,101 67,47 163,82 206,160 34,63 -8,81 53,130 66,54 79,8 146,2 0,-281 -75,-97 -23,-698 5,-53 -9,-126 -17,-176 -11,-59 -18,-108 -48,-146l-68 -126c-18,-35 -21,-26 -38,-55 -14,-25 -14,-46 -29,-73l-208 -375 -359 -362c-28,-30 0,-5 -30,-27 -27,-20 -24,-13 -52,-40 -47,-46 -118,-88 -159,-138 -137,-168 -112,-56 -241,-342 -80,-176 -128,-140 -191,-392 -17,-68 -40,-74 -58,-136 -34,-116 29,-288 -63,-372l-38 -30c-115,-98 -180,-4 -299,-170 -73,-103 -57,-85 -171,-115 -33,-8 -48,-16 -82,-21 -67,-11 -115,-4 -147,-47 20,-73 80,-23 80,-218 -84,-19 -125,-26 -209,-14 -108,15 -354,23 -449,-2 -74,-19 -92,-59 -166,-74 -67,-14 -146,-12 -228,-13 -190,0 -140,14 -249,105l-63 64c-33,38 -101,65 -145,94l0 80c133,90 157,162 205,311 8,24 15,31 9,62 -1,1 -14,30 -15,31 -53,63 -89,8 -176,8 -2,81 -58,137 -98,188 -53,68 -90,109 -188,109 -46,-96 4,-171 -23,-286 -89,0 -140,12 -217,12 0,147 50,156 -48,249 -161,153 -181,-159 -260,-227 -125,-107 -176,-222 -352,-87 -35,26 -64,39 -96,63 -46,34 -138,107 -195,126 -45,15 -247,35 -280,9 -51,-39 -44,-204 -30,-274 34,-174 68,-46 95,-385 11,-140 65,-261 80,-400 5,-49 12,-95 22,-138 55,-226 70,-508 24,-732l-50 -270c-46,-269 64,-305 73,-404 12,-147 -8,-300 33,-447 18,-65 20,-143 -8,-207 -30,-69 -88,-230 -100,-301 -23,-137 112,-201 61,-541 -32,-216 -71,-174 -5,-398 16,-55 13,-82 36,-135 46,-105 94,-220 176,-304 68,-70 296,-195 386,-254 45,-29 68,-65 102,-104 2,-2 4,-4 5,-6l16 -19c84,-99 98,-144 246,-142 42,0 125,14 144,-17 42,-68 -69,-170 14,-260 75,-80 140,-25 140,-192 -229,-121 31,-104 -412,-103 -102,1 -131,-19 -231,-2 -101,17 -257,194 -347,89 -116,-135 -74,-268 -73,-419 0,-87 -12,-151 -12,-251l-126 -80c-14,-9 -12,-8 -26,-20l-158 -105c-48,-35 -94,-20 -154,-52 -20,-11 -28,-15 -38,-17l-173 0c-51,3 -18,2 -65,26 -101,49 -90,-8 -199,109 -64,70 -129,82 -239,82 0,78 21,216 -15,271 -26,40 -281,97 -338,107 -85,14 -41,13 -85,64 -31,37 -44,44 -61,87 -21,51 -26,52 -67,82 -89,65 -115,53 -216,82 -91,26 -110,80 -229,32 -127,-50 -298,-70 -423,13 -21,14 -33,18 -52,28l0 171c105,28 80,241 125,310 186,283 95,336 22,569 -10,32 -22,55 -33,82 -27,67 -57,215 -29,292l67 93c18,26 36,30 65,49 16,11 17,14 33,25 53,37 78,42 125,92 52,56 83,142 128,204 20,28 30,30 50,64l38 76c1,2 3,5 5,7 0,0 15,13 18,16 166,154 20,228 -23,336 -27,66 4,213 -52,280 -13,15 -16,15 -29,28 -12,12 -15,17 -27,30 -24,22 -94,78 -125,92l-126 34c-108,34 -138,32 -157,129 -33,161 98,336 -217,423 -34,10 -60,13 -91,24l-296 138c-121,56 -151,129 -157,226l0 177c0,493 61,392 89,575 14,92 -9,130 -78,146 0,79 -4,164 78,196 82,32 140,4 192,82 35,52 57,149 40,214 -18,70 -75,137 -56,226 15,75 101,75 174,100 117,41 237,61 279,133 26,44 17,67 -8,102 -30,40 -38,90 -75,131 -27,30 -15,4 -41,39 0,107 25,82 56,150 22,50 27,140 44,173l42 62c35,66 68,177 -50,187l0 57c106,2 177,39 341,-71 42,-28 72,-71 100,-117 81,-136 102,-56 239,-207 107,-119 165,-100 302,-50 145,55 165,139 149,295 -8,75 -40,98 -67,150 -36,66 -15,128 -59,182 -35,42 -35,106 -56,150 -21,45 -22,30 -44,58 -73,93 20,241 28,267 19,63 -30,103 -59,149 -50,81 -74,23 -74,154 50,4 81,39 92,80 82,0 162,11 221,-18 244,-122 272,-9 401,117 28,26 36,41 52,73 320,0 188,-52 389,-160 41,-22 64,-56 103,-80 112,-67 117,-89 144,-222 18,-90 46,-120 109,-166 65,-47 96,-38 160,-69l76 -61c17,-19 21,-32 33,-58 30,-63 131,-161 206,-152 73,9 156,65 203,117 44,50 41,100 78,150 39,54 43,65 43,152 40,27 48,30 82,67 26,29 58,48 75,86 50,117 -99,201 -188,240 -67,29 -91,24 -172,67 -56,31 -134,28 -197,43 0,109 12,100 73,166 18,20 33,27 52,40 0,96 -21,76 -65,174 -19,42 -31,33 -49,66 -20,40 -15,97 -42,141l-30 38c-2,2 -4,5 -5,7l-24 79c-12,37 -22,55 -45,81l-52 73c-28,38 -22,17 -48,67 -14,26 -29,59 -45,81 -21,31 -42,35 -50,66 -25,96 119,40 37,515 -15,84 4,241 58,299l61 54c54,23 153,20 211,28 84,11 116,22 193,58 85,40 140,104 215,151 46,29 33,37 65,73 1,2 4,4 5,6 1,1 14,12 18,16l89 95c60,60 70,54 121,130 61,0 139,6 174,-54l43 -106c70,-159 249,-8 451,-132 85,-52 225,-45 274,59l64 130c89,0 101,-45 173,-78 45,-22 59,-45 117,-55 184,-30 108,32 221,-87 148,-155 91,-101 275,-148 52,-14 35,-24 72,-44 183,-97 187,322 207,410 31,135 108,140 162,262 17,40 16,34 35,68 46,84 -33,165 -13,264l52 166 120 200c25,32 31,40 74,48z"/>
    <path class="fil3" d="M9721 9947c0,299 -34,274 251,274 46,0 149,-61 149,-103 0,-224 -108,-328 -339,-258 -39,12 -61,41 -61,87z"/>
    <path class="fil4" d="M9789 10188c439,64 293,-267 208,-296 -79,-27 -210,-33 -238,33 -14,33 -8,110 -8,148 0,122 6,51 38,115z"/>
   </g>
   <path class="fil5 str0" d="M5122 3466c1847,0 3344,1497 3344,3344 0,1847 -1497,3344 -3344,3344 -1847,0 -3344,-1497 -3344,-3344 0,-1847 1497,-3344 3344,-3344z"/>
   <path class="fil5 str0" d="M14682 6920c2114,0 3828,1714 3828,3827 0,2114 -1714,3828 -3828,3828 -2114,0 -3827,-1714 -3827,-3828 0,-2113 1713,-3827 3827,-3827z"/>
   <path class="fil6 str1" d="M2726 2440c0,32 -12,59 -34,82 -23,22 -50,34 -82,34l-116 0c-31,0 -58,-11 -81,-34 -23,-22 -34,-50 -34,-82l0 -347c0,-33 11,-60 33,-83 23,-22 50,-33 82,-33l116 0c32,0 60,11 82,34 22,22 34,50 34,82l0 347zm-58 0l0 -348c0,-16 -5,-30 -16,-41 -11,-11 -25,-17 -42,-17l-116 0c-16,0 -30,6 -41,17 -6,5 -10,12 -13,19 -2,7 -4,14 -4,22l0 348c0,17 6,30 17,42 6,5 12,9 18,12 9,3 16,4 23,4l116 0c16,0 30,-5 41,-16 11,-11 17,-25 17,-42zm452 -232l-116 0c-17,0 -31,5 -42,17 -5,5 -10,11 -13,18 -2,7 -4,15 -4,23l0 174c0,17 6,30 17,42 6,5 12,9 19,12 8,3 16,4 23,4l58 0c16,0 29,-5 41,-16 11,-11 17,-25 17,-42l0 -232zm0 -58l0 -58c0,-16 -6,-30 -17,-41 -10,-11 -24,-17 -41,-17l-116 0c-9,0 -16,-2 -22,-7 -5,-7 -7,-14 -7,-21 0,-7 2,-13 7,-20 5,-6 12,-9 22,-9l116 0c32,0 59,11 82,34 22,22 33,50 33,82l0 347c0,32 -11,59 -33,82 -23,22 -50,34 -82,34l-58 0c-32,0 -59,-11 -82,-34 -23,-22 -34,-49 -34,-82l0 -174c0,-32 11,-59 34,-82 22,-22 50,-34 82,-34l116 0zm405 174l0 -145c0,-8 3,-15 9,-21 5,-5 12,-8 20,-8 7,0 14,3 20,8 6,4 9,12 9,21l0 348c0,9 -3,16 -9,22 -5,4 -12,7 -20,7 -8,0 -15,-3 -20,-7 -6,-5 -9,-12 -9,-22l0 -146 -174 0 0 146c0,9 -3,16 -9,22 -5,4 -12,7 -20,7 -8,0 -15,-3 -20,-7 -6,-5 -9,-12 -9,-22l0 -348c0,-7 3,-15 9,-21 5,-5 12,-8 20,-8 7,0 14,3 20,8 6,4 9,12 9,21l0 145 174 0zm463 104c0,35 -13,65 -37,90 -25,25 -55,38 -91,38l-34 0c-35,0 -65,-12 -90,-37 -25,-25 -38,-55 -38,-91l0 -150c0,-34 13,-64 37,-89 25,-26 55,-39 91,-39l34 0c35,0 65,13 90,37 25,25 38,55 38,91l0 150zm-58 1l0 -151c0,-19 -7,-36 -20,-50 -14,-13 -30,-20 -50,-20l-35 0c-19,0 -35,7 -49,20 -13,14 -20,30 -20,50l0 151c0,19 6,35 20,49 14,13 30,20 49,20l35 0c19,0 36,-6 49,-20 14,-13 21,-30 21,-49zm520 98l0 -347c0,-11 -2,-19 -7,-25 -5,-6 -11,-9 -18,-9 -9,0 -18,6 -27,17l-121 169 -121 -169c-8,-11 -17,-17 -27,-17 -7,0 -13,3 -19,9 -4,6 -7,14 -7,25l0 347c0,9 3,16 8,22 6,4 13,7 21,7 7,0 13,-3 19,-8 7,-5 10,-12 10,-21l0 -257 92 129c8,10 16,15 24,15 7,0 15,-5 23,-15l93 -129 0 257c0,9 2,16 8,22 5,4 12,7 21,7 6,0 13,-3 19,-8 6,-5 9,-12 9,-21zm348 -87l0 -232 -116 0c-16,0 -30,5 -42,17 -5,5 -9,11 -12,18 -3,7 -4,15 -4,23l0 174c0,17 5,30 16,42 6,5 12,9 19,12 8,3 16,4 23,4l58 0c16,0 30,-5 41,-16 12,-11 17,-25 17,-42zm29 78c-10,10 -23,20 -39,27 -16,7 -32,11 -48,11l-58 0c-31,0 -58,-11 -81,-34 -23,-22 -35,-49 -35,-82l0 -174c0,-32 11,-59 34,-82 23,-22 50,-34 82,-34l145 0c19,0 29,10 29,29l0 260c0,12 3,24 11,36 7,11 16,19 29,25 12,5 18,14 18,26 0,9 -3,16 -8,21 -5,6 -12,9 -21,9 -4,0 -8,-1 -12,-3 -19,-7 -34,-19 -46,-35zm376 -194l0 -145c0,-8 3,-15 9,-21 6,-5 12,-8 20,-8 7,0 14,3 20,8 6,4 9,12 9,21l0 348c0,9 -3,16 -8,22 -6,4 -12,7 -21,7 -8,0 -14,-3 -20,-7 -6,-5 -9,-12 -9,-22l0 -146 -174 0 0 146c0,9 -3,16 -8,22 -6,4 -12,7 -21,7 -8,0 -14,-3 -20,-7 -6,-5 -9,-12 -9,-22l0 -348c0,-7 3,-15 9,-21 6,-5 12,-8 20,-8 7,0 14,3 20,8 6,4 9,12 9,21l0 145 174 0zm405 -116l-116 0c-16,0 -30,5 -41,17 -6,5 -10,11 -13,18 -3,7 -4,15 -4,23l0 174c0,17 6,30 17,42 5,5 12,9 18,12 9,3 16,4 23,4l58 0c16,0 30,-5 41,-16 12,-11 17,-25 17,-42l0 -232zm0 -58l0 -58c0,-16 -5,-30 -16,-41 -11,-11 -25,-17 -42,-17l-116 0c-8,0 -16,-2 -21,-7 -5,-7 -8,-14 -8,-21 0,-7 3,-13 8,-20 5,-6 12,-9 21,-9l116 0c32,0 60,11 82,34 23,22 34,50 34,82l0 347c0,32 -11,59 -34,82 -23,22 -50,34 -82,34l-58 0c-31,0 -58,-11 -81,-34 -23,-22 -35,-49 -35,-82l0 -174c0,-32 12,-59 34,-82 23,-22 50,-34 82,-34l116 0zm406 290l0 -232 -117 0c-16,0 -30,5 -41,17 -6,5 -10,11 -13,18 -2,7 -4,15 -4,23l0 174c0,17 6,30 17,42 6,5 12,9 18,12 9,3 16,4 23,4l58 0c17,0 30,-5 41,-16 12,-11 18,-25 18,-42zm28 78c-9,10 -22,20 -38,27 -17,7 -33,11 -49,11l-58 0c-31,0 -58,-11 -81,-34 -23,-22 -34,-49 -34,-82l0 -174c0,-32 11,-59 33,-82 23,-22 50,-34 82,-34l145 0c20,0 29,10 29,29l0 260c0,12 4,24 11,36 7,11 17,19 29,25 12,5 18,14 18,26 0,9 -3,16 -8,21 -5,6 -12,9 -21,9 -4,0 -8,-1 -11,-3 -19,-7 -35,-19 -47,-35zm318 -310l-116 0 0 319c0,9 -2,16 -8,22 -5,4 -12,7 -20,7 -8,0 -15,-3 -21,-7 -5,-5 -8,-12 -8,-22l0 -348c0,-19 9,-29 29,-29l260 0c31,0 58,12 81,34 23,22 34,50 34,82l0 261c0,9 -2,16 -8,22 -5,4 -12,7 -20,7 -8,0 -15,-3 -21,-7 -5,-5 -8,-12 -8,-22l0 -261c0,-16 -6,-30 -17,-41 -10,-11 -24,-17 -41,-17l-58 0 0 319c0,9 -3,16 -8,22 -6,4 -12,7 -21,7 -8,0 -14,-3 -20,-7 -6,-5 -9,-12 -9,-22l0 -319zm580 116l0 -145c0,-8 2,-15 8,-21 6,-5 13,-8 20,-8 8,0 14,3 20,8 6,4 9,12 9,21l0 348c0,9 -3,16 -8,22 -5,4 -12,7 -21,7 -7,0 -14,-3 -20,-7 -6,-5 -8,-12 -8,-22l0 -146 -175 0 0 146c0,9 -3,16 -8,22 -5,4 -12,7 -21,7 -7,0 -14,-3 -20,-7 -6,-5 -8,-12 -8,-22l0 -348c0,-7 2,-15 8,-21 6,-5 13,-8 20,-8 8,0 14,3 20,8 6,4 9,12 9,21l0 145 175 0zm520 203c0,9 -3,16 -8,22 -6,4 -13,7 -21,7 -8,0 -14,-3 -20,-7 -6,-5 -9,-12 -9,-22l0 -348c0,-7 3,-15 9,-21 6,-5 12,-8 20,-8 7,0 14,3 20,8 6,4 9,12 9,21l0 348zm-290 -146l0 117 58 0c18,0 32,-6 42,-17 11,-12 16,-26 16,-41 0,-16 -4,-30 -14,-41 -5,-5 -11,-9 -18,-13 -8,-3 -16,-5 -26,-5l-58 0zm0 -57l58 0c37,0 65,12 87,36 19,22 29,48 29,80 0,30 -10,57 -29,79 -21,25 -50,37 -87,37l-86 0c-20,0 -29,-10 -29,-29l0 -348c0,-7 3,-15 8,-21 6,-5 13,-8 20,-8 8,0 15,3 20,8 6,4 9,12 9,21l0 145zm608 -290l-116 0c-8,0 -15,-2 -21,-7 -5,-7 -7,-14 -7,-21 0,-7 2,-13 7,-20 5,-6 12,-9 21,-9l116 0c8,0 15,3 21,9 5,5 8,12 8,20 0,6 -2,13 -7,19 -5,6 -12,9 -22,9zm87 493c0,19 -9,29 -29,29l-144 0c-32,0 -59,-11 -82,-34 -23,-22 -34,-49 -34,-82l0 -260c0,-8 2,-15 8,-22 6,-5 13,-7 20,-7 8,0 15,2 20,7 6,5 9,12 9,22l0 260c0,17 6,30 17,42 6,5 12,9 19,12 8,3 15,4 22,4l117 0 0 -318c0,-8 2,-15 8,-22 6,-5 13,-7 20,-7 8,0 15,2 20,7 6,5 9,12 9,22l0 347zm-3409 485c0,35 -12,64 -37,90 -24,25 -54,37 -90,37l-35 0c-34,0 -64,-12 -89,-36 -26,-25 -38,-55 -38,-91l0 -151c0,-33 12,-63 37,-89 25,-25 55,-38 90,-38l35 0c34,0 64,12 90,37 25,25 37,55 37,90l0 151zm-57 0l0 -151c0,-19 -7,-35 -20,-49 -14,-14 -30,-20 -50,-20l-35 0c-19,0 -35,6 -49,20 -14,13 -21,30 -21,49l0 151c0,19 7,36 21,49 13,14 30,21 49,21l35 0c19,0 35,-7 49,-20 14,-13 21,-30 21,-50zm290 -62l-65 68 0 93c0,9 -3,16 -9,21 -5,5 -12,7 -20,7 -8,0 -15,-2 -20,-7 -6,-4 -9,-12 -9,-21l0 -348c0,-7 3,-15 9,-21 5,-5 12,-8 20,-8 7,0 14,3 20,8 6,4 9,12 9,21l0 171 183 -192c5,-6 12,-9 19,-9 6,0 13,3 20,9 6,5 9,13 9,22 0,8 -3,15 -10,21l-116 123 119 184c5,8 7,14 7,19 0,8 -3,15 -10,21 -5,6 -12,8 -20,8 -7,0 -14,-3 -20,-11l-116 -179zm346 132l116 0c16,0 30,-5 41,-16 11,-11 17,-25 17,-42l0 -174c0,-17 -5,-31 -16,-42 -11,-11 -25,-16 -42,-16l-116 0 0 290zm0 57l0 145c0,8 -3,15 -9,21 -6,5 -13,8 -20,8 -7,0 -13,-2 -19,-7 -7,-5 -10,-12 -10,-22l0 -521c0,-19 10,-29 29,-29l145 0c31,0 58,11 81,34 23,22 35,49 35,82l0 174c0,31 -12,59 -34,81 -23,23 -50,34 -82,34l-116 0zm579 0l-116 0c-31,0 -58,-11 -81,-33 -23,-22 -35,-50 -35,-82l0 -261c0,-8 3,-15 9,-22 6,-5 12,-7 20,-7 7,0 14,2 20,7 6,5 9,12 9,22l0 261c0,16 5,30 16,41 6,5 12,9 19,13 8,3 16,4 23,4l116 0 0 -319c0,-8 3,-15 9,-22 6,-5 12,-7 20,-7 7,0 14,2 20,7 6,5 9,12 9,22l0 434c0,32 -11,59 -34,82 -22,23 -50,34 -82,34l-116 0c-7,0 -14,-3 -21,-9 -5,-5 -8,-12 -8,-20 0,-7 3,-14 8,-20 4,-6 11,-9 21,-9l116 0c16,0 30,-5 41,-16 12,-11 17,-25 17,-42l0 -58zm448 -26c-15,8 -34,15 -58,21l-31 5 -34 0 -41 0 -34 -5c-22,-4 -40,-14 -53,-30 -14,-17 -21,-36 -21,-57 0,-12 2,-24 7,-37 5,-12 14,-23 25,-32l185 -127c6,-5 9,-11 9,-18 0,-12 -10,-22 -30,-29 -20,-7 -42,-10 -65,-10 -19,0 -37,2 -51,5 -15,3 -27,8 -37,16 -5,4 -10,6 -17,7 -6,0 -13,-3 -20,-9 -6,-6 -9,-13 -9,-21 0,-9 4,-17 12,-23 12,-9 30,-17 54,-23 12,-2 24,-5 36,-6 13,-2 25,-3 37,-3 8,0 15,0 23,1 6,0 14,1 23,2 9,1 20,3 32,7 21,6 38,16 51,32 14,16 20,33 20,52 0,24 -11,46 -33,65l-185 128c-7,6 -10,14 -10,22 0,7 2,14 7,21 4,5 11,9 20,11l31 3 34 2c22,0 39,-2 53,-4 6,-2 13,-4 20,-6 8,-3 15,-7 22,-11l6 -3c2,0 5,-1 9,-1 7,0 14,3 20,9 6,6 8,14 8,22 0,9 -5,17 -15,24z"/>
   <path class="fil6 str1" d="M12136 5845c0,9 -3,16 -8,21 -5,5 -12,8 -21,8 -6,0 -13,-3 -19,-8 -6,-5 -10,-12 -10,-21l0 -414 -119 200c-7,13 -16,19 -25,19 -9,0 -17,-6 -25,-19l-121 -200 0 414c0,9 -3,16 -8,21 -5,5 -12,8 -21,8 -7,0 -14,-3 -20,-8 -6,-4 -9,-12 -9,-21l0 -519c0,-11 3,-19 9,-25 5,-5 11,-8 18,-8 5,0 10,1 14,4 4,3 9,7 13,14l150 248 148 -248c7,-12 16,-18 28,-18 7,0 13,3 19,9 4,6 7,14 7,24l0 519zm347 -203l0 -145c0,-8 3,-15 9,-22 6,-4 12,-7 20,-7 7,0 14,2 20,7 6,5 9,12 9,22l0 348c0,9 -3,16 -8,21 -6,5 -12,8 -21,8 -8,0 -14,-3 -20,-8 -6,-5 -9,-12 -9,-22l0 -145 -174 0 0 145c0,10 -3,17 -8,22 -6,5 -12,8 -21,8 -8,0 -14,-3 -20,-8 -6,-5 -9,-12 -9,-21l0 -348c0,-8 3,-15 9,-22 6,-4 12,-7 20,-7 7,0 14,2 20,7 6,5 9,12 9,22l0 145 174 0zm463 104c0,35 -12,64 -37,90 -25,25 -55,38 -90,38l-35 0c-35,0 -64,-13 -90,-37 -25,-25 -38,-55 -38,-91l0 -151c0,-33 13,-63 38,-89 25,-25 55,-38 90,-38l35 0c34,0 64,12 89,37 25,25 38,55 38,90l0 151zm-58 0l0 -151c0,-19 -6,-35 -20,-49 -13,-14 -30,-20 -49,-20l-35 0c-19,0 -36,6 -49,20 -14,13 -21,30 -21,49l0 151c0,19 7,36 20,49 14,14 30,21 50,21l35 0c19,0 35,-7 49,-20 14,-13 20,-30 20,-50zm448 101c-15,8 -34,15 -58,21l-31 5 -34 1 -40 -1 -35 -5c-22,-4 -39,-14 -53,-30 -14,-17 -21,-36 -21,-57 0,-12 3,-24 8,-37 5,-12 13,-23 24,-32l185 -127c6,-5 9,-11 9,-18 0,-12 -10,-22 -30,-29 -20,-7 -41,-10 -65,-10 -19,0 -36,2 -51,5 -15,3 -27,8 -36,16 -5,4 -11,6 -18,7 -6,0 -13,-3 -20,-9 -6,-6 -8,-13 -8,-21 0,-9 3,-17 11,-23 12,-9 30,-17 54,-23 12,-2 24,-5 36,-6 13,-2 25,-3 38,-3 7,0 15,1 22,1 7,0 15,1 23,2 9,1 20,3 32,7 21,6 38,16 51,32 14,16 20,33 20,52 0,24 -11,46 -33,65l-185 128c-7,6 -10,14 -10,22 0,7 2,14 7,21 5,5 11,9 20,11l31 3 35 2c21,0 39,-2 52,-4 6,-2 13,-4 20,-6 8,-3 15,-7 22,-11l6 -2c2,-1 5,-2 9,-2 8,0 14,3 21,9 5,6 7,14 7,22 0,9 -5,18 -15,24zm420 -101c0,35 -12,64 -37,90 -24,25 -55,38 -90,38l-35 0c-34,0 -64,-13 -89,-37 -26,-25 -38,-55 -38,-91l0 -151c0,-33 12,-63 37,-89 25,-25 55,-38 90,-38l35 0c34,0 64,12 89,37 26,25 38,55 38,90l0 151zm-57 0l0 -151c0,-19 -7,-35 -20,-49 -14,-14 -30,-20 -50,-20l-35 0c-19,0 -35,6 -49,20 -14,13 -21,30 -21,49l0 151c0,19 7,36 21,49 13,14 30,21 49,21l35 0c19,0 35,-7 49,-20 14,-13 21,-30 21,-50zm520 99l0 -348c0,-11 -3,-19 -8,-25 -4,-5 -11,-8 -18,-8 -8,0 -17,5 -27,16l-121 170 -121 -170c-7,-11 -16,-16 -26,-16 -7,0 -13,3 -19,9 -5,6 -7,14 -7,24l0 348c0,9 3,16 8,21 5,5 12,8 21,8 7,0 13,-3 19,-8 6,-5 9,-12 9,-21l0 -258 93 130c7,10 15,15 23,15 8,0 16,-5 24,-15l92 -130 0 258c0,9 3,16 9,21 5,5 12,8 20,8 7,0 14,-3 20,-8 6,-5 9,-12 9,-21zm348 -87l0 -232 -116 0c-17,0 -31,5 -42,16 -5,6 -10,12 -13,19 -2,7 -4,15 -4,23l0 174c0,16 6,30 17,41 6,5 12,9 19,13 8,3 16,4 23,4l58 0c16,0 29,-5 41,-16 11,-11 17,-25 17,-42zm28 77c-9,11 -22,20 -38,28 -16,7 -32,11 -48,11l-58 0c-32,0 -59,-12 -82,-34 -23,-22 -34,-50 -34,-82l0 -174c0,-32 11,-59 34,-82 22,-23 50,-34 82,-34l144 0c20,0 29,10 29,29l0 260c0,12 4,23 12,36 6,10 16,19 28,25 12,5 19,13 19,26 0,8 -3,15 -9,21 -5,6 -12,9 -20,9 -4,0 -8,-1 -12,-3 -19,-8 -35,-19 -47,-36zm377 -193l0 -145c0,-8 3,-15 9,-22 5,-4 12,-7 20,-7 7,0 14,2 20,7 6,5 9,12 9,22l0 348c0,9 -3,16 -9,21 -5,5 -12,8 -20,8 -8,0 -15,-3 -20,-8 -6,-5 -9,-12 -9,-22l0 -145 -174 0 0 145c0,10 -3,17 -9,22 -5,5 -12,8 -20,8 -8,0 -15,-3 -20,-8 -6,-5 -9,-12 -9,-21l0 -348c0,-8 3,-15 9,-22 5,-4 12,-7 20,-7 7,0 14,2 20,7 6,5 9,12 9,22l0 145 174 0zm405 -116l-116 0c-17,0 -30,5 -42,16 -5,6 -9,12 -12,19 -3,7 -4,15 -4,23l0 174c0,16 5,30 16,41 6,5 12,9 19,13 8,3 16,4 23,4l58 0c16,0 30,-5 41,-16 11,-11 17,-25 17,-42l0 -232zm0 -58l0 -58c0,-16 -5,-30 -16,-41 -11,-11 -25,-17 -42,-17l-116 0c-9,0 -16,-3 -22,-8 -4,-6 -7,-13 -7,-21 0,-6 2,-13 7,-19 5,-6 12,-10 22,-10l116 0c32,0 59,12 82,34 22,23 34,50 34,82l0 348c0,31 -12,59 -34,81 -23,23 -50,35 -82,35l-58 0c-31,0 -58,-12 -81,-34 -23,-22 -35,-50 -35,-82l0 -174c0,-32 11,-59 34,-82 23,-23 50,-34 82,-34l116 0zm405 290l0 -232 -116 0c-16,0 -30,5 -42,16 -5,6 -9,12 -12,19 -3,7 -4,15 -4,23l0 174c0,16 5,30 16,41 6,5 12,9 19,13 8,3 16,4 23,4l58 0c16,0 30,-5 41,-16 12,-11 17,-25 17,-42zm29 77c-10,11 -23,20 -39,28 -16,7 -32,11 -48,11l-58 0c-31,0 -58,-12 -81,-34 -23,-22 -35,-50 -35,-82l0 -174c0,-32 12,-59 34,-82 23,-23 50,-34 82,-34l145 0c19,0 29,10 29,29l0 260c0,12 3,23 11,36 7,10 16,19 29,25 12,5 18,13 18,26 0,8 -3,15 -8,21 -5,6 -12,9 -21,9 -4,0 -8,-1 -12,-3 -19,-8 -34,-19 -46,-36zm318 -309l-116 0 0 318c0,10 -3,17 -8,22 -5,5 -12,8 -21,8 -7,0 -14,-3 -20,-8 -6,-5 -9,-12 -9,-21l0 -348c0,-19 10,-29 29,-29l260 0c32,0 59,11 82,34 23,22 34,50 34,82l0 261c0,9 -3,16 -8,21 -5,5 -12,8 -21,8 -7,0 -14,-3 -20,-8 -6,-5 -9,-12 -9,-22l0 -260c0,-17 -5,-31 -16,-42 -11,-11 -25,-16 -42,-16l-58 0 0 318c0,10 -2,17 -8,22 -5,5 -12,8 -20,8 -8,0 -15,-3 -20,-8 -6,-5 -9,-12 -9,-22l0 -318zm579 116l0 -145c0,-8 3,-15 9,-22 6,-4 12,-7 20,-7 7,0 14,2 20,7 6,5 9,12 9,22l0 348c0,9 -3,16 -8,21 -6,5 -13,8 -21,8 -8,0 -14,-3 -20,-8 -6,-5 -9,-12 -9,-22l0 -145 -174 0 0 145c0,10 -3,17 -8,22 -6,5 -13,8 -21,8 -8,0 -14,-3 -20,-8 -6,-5 -9,-12 -9,-21l0 -348c0,-8 3,-15 9,-22 6,-4 12,-7 20,-7 7,0 14,2 20,7 6,5 9,12 9,22l0 145 174 0zm520 203c0,9 -2,16 -8,21 -5,5 -12,8 -20,8 -8,0 -15,-3 -21,-8 -5,-5 -8,-12 -8,-21l0 -348c0,-8 3,-15 8,-22 6,-4 13,-7 21,-7 7,0 14,2 20,7 5,5 8,12 8,22l0 348zm-289 -146l0 117 58 0c18,0 32,-6 42,-18 11,-12 16,-25 16,-40 0,-17 -5,-30 -14,-41 -5,-5 -11,-10 -18,-13 -8,-3 -16,-5 -26,-5l-58 0zm0 -57l58 0c36,0 65,12 87,36 19,21 28,48 28,80 0,30 -9,57 -28,79 -22,24 -51,37 -87,37l-87 0c-19,0 -29,-10 -29,-29l0 -348c0,-8 3,-15 9,-22 6,-4 12,-7 20,-7 7,0 14,2 20,7 6,5 9,12 9,22l0 145zm608 -290l-116 0c-9,0 -16,-3 -21,-8 -5,-6 -8,-13 -8,-21 0,-6 3,-13 7,-19 5,-6 12,-10 22,-10l116 0c8,0 15,3 20,9 6,6 9,13 9,20 0,7 -3,13 -7,20 -5,6 -12,9 -22,9zm87 493c0,19 -10,29 -29,29l-145 0c-31,0 -58,-12 -81,-34 -23,-22 -35,-50 -35,-82l0 -261c0,-7 3,-15 9,-21 6,-5 12,-8 20,-8 7,0 14,3 20,8 6,4 9,12 9,21l0 261c0,16 5,30 17,41 5,5 12,9 18,13 8,3 16,4 23,4l116 0 0 -319c0,-7 3,-14 9,-21 6,-5 12,-8 20,-8 7,0 14,3 20,8 6,4 9,12 9,21l0 348zm-3617 485c0,34 -13,64 -37,89 -25,26 -55,38 -91,38l-34 0c-35,0 -65,-12 -90,-37 -25,-24 -38,-54 -38,-90l0 -151c0,-34 13,-64 37,-89 25,-26 55,-38 91,-38l34 0c35,0 65,12 90,37 25,24 38,54 38,90l0 151zm-58 0l0 -151c0,-19 -7,-36 -20,-49 -13,-14 -30,-21 -50,-21l-35 0c-19,0 -35,7 -49,20 -13,14 -20,31 -20,50l0 151c0,19 6,35 20,49 14,14 30,21 49,21l35 0c19,0 36,-7 49,-20 14,-14 21,-30 21,-50zm290 -62l-65 68 0 92c0,9 -3,17 -8,22 -6,5 -12,7 -21,7 -8,0 -14,-2 -20,-7 -6,-5 -9,-12 -9,-22l0 -347c0,-8 3,-15 9,-21 6,-6 12,-8 20,-8 7,0 14,2 20,7 6,5 9,12 9,22l0 171 184 -193c5,-5 11,-8 18,-8 6,0 13,3 21,8 5,6 8,13 8,22 0,8 -3,16 -9,22l-116 122 119 184c4,8 6,15 6,20 0,8 -3,15 -9,20 -6,6 -13,9 -20,9 -8,0 -15,-4 -21,-11l-116 -179zm346 132l116 0c16,0 30,-6 41,-17 12,-10 17,-24 17,-42l0 -174c0,-16 -5,-30 -16,-41 -11,-11 -25,-17 -42,-17l-116 0 0 291zm0 57l0 145c0,8 -3,15 -9,20 -6,6 -12,9 -20,9 -6,0 -13,-3 -19,-7 -7,-5 -10,-13 -10,-22l0 -521c0,-20 10,-29 29,-29l145 0c32,0 59,11 82,33 23,23 34,50 34,82l0 174c0,32 -11,59 -34,82 -23,23 -50,34 -82,34l-116 0zm580 0l-116 0c-32,0 -59,-11 -82,-33 -23,-23 -34,-50 -34,-83l0 -260c0,-8 2,-15 8,-22 6,-5 13,-7 20,-7 8,0 14,2 20,7 6,5 9,12 9,22l0 261c0,16 6,30 17,41 6,5 12,9 18,12 9,3 16,5 23,5l117 0 0 -319c0,-8 2,-15 8,-22 6,-5 13,-7 20,-7 8,0 14,2 20,7 6,5 9,12 9,22l0 434c0,31 -11,58 -34,81 -22,23 -49,35 -82,35l-116 0c-7,0 -14,-3 -21,-9 -5,-6 -8,-12 -8,-20 0,-8 3,-14 8,-20 5,-6 12,-9 22,-9l116 0c16,0 30,-5 41,-16 11,-11 17,-25 17,-42l0 -58zm447 -26c-15,8 -34,15 -58,21l-31 4 -34 1 -40 -1 -35 -5c-22,-3 -39,-13 -53,-30 -14,-16 -21,-35 -21,-57 0,-12 3,-24 8,-36 5,-12 13,-23 24,-33l185 -127c6,-5 9,-11 9,-17 0,-12 -10,-22 -30,-29 -20,-7 -41,-10 -65,-10 -19,0 -36,1 -51,4 -15,4 -27,9 -36,17 -5,3 -11,5 -18,6 -6,0 -13,-3 -20,-8 -6,-6 -8,-13 -8,-22 0,-9 3,-16 11,-22 12,-9 30,-17 54,-23 12,-3 24,-5 37,-6 12,-2 25,-3 37,-3 7,0 15,0 22,0 7,1 15,1 24,2 8,1 19,4 31,7 21,6 38,17 51,33 14,16 21,33 21,52 0,24 -11,46 -34,65l-185 128c-7,6 -10,13 -10,22 0,7 2,14 7,20 5,6 11,10 20,11l31 4 35 1c21,0 39,-1 52,-4 6,-1 13,-3 20,-6 8,-3 15,-6 22,-10l6 -3c2,-1 5,-1 9,-1 8,0 15,3 21,9 5,6 7,13 7,21 0,10 -5,18 -15,25z"/>
   <path class="fil7" d="M4247 6547c0,-1 1,-2 1,-3 1,4 1,6 1,6 0,0 0,-2 -2,-3zm1053 865c-13,-69 -547,-357 -547,-366 0,-10 -29,-20 -32,-33 -34,-115 25,-277 25,-277 0,0 -1,2 15,0 15,-2 54,-152 52,-182 -2,-26 -24,-29 -31,-29 3,-26 14,-152 14,-167 0,-17 0,-34 0,-34 0,0 -10,-23 -11,-34 -1,-10 -3,-88 -14,-115 -10,-26 -66,-47 -66,-47l0 0c-15,-16 -33,-30 -53,-42 0,0 0,0 0,0 -24,-23 -65,-23 -80,-29 -14,-6 -6,-18 -6,-18 0,0 -9,3 -20,5 -11,2 -12,-14 -12,-14 -54,9 -97,22 -130,34 0,0 0,0 0,0 -7,2 -64,21 -64,21 0,0 -18,-1 -26,0 -8,2 -29,14 -37,35 -8,20 -33,18 -48,42 -8,14 -1,35 7,50 -2,25 5,60 -4,69 -12,13 -25,27 -25,27l2 17c0,0 -5,20 0,25 6,6 8,17 1,49 -5,25 17,109 27,144 -6,-1 -13,-1 -25,3 -31,10 29,119 39,188 7,52 45,24 45,24 0,0 46,195 -11,265 -2,2 -12,0 -12,0 0,0 -441,280 -550,346 -108,66 -91,338 -91,338l1685 0c0,0 -3,-226 -17,-295z"/>
   <path class="fil8" d="M4418 7713l-127 -684 0 -16 235 129 200 -121 30 18 -115 668 -223 6z"/>
   <path class="fil7" d="M4526 7142l-76 124 36 41 -40 400 180 0 -57 -400 34 -37 -77 -128z"/>
   <path class="fil7" d="M13983 9616c1,-1 1,-2 2,-2 0,3 1,5 1,5 0,0 -1,-2 -3,-3zm1054 865c-13,-68 -547,-357 -547,-366 0,-10 -29,-19 -33,-33 -33,-115 26,-277 26,-277 0,0 -1,2 14,0 16,-2 54,-151 52,-182 -1,-26 -23,-28 -30,-29 2,-26 14,-152 14,-167 0,-17 0,-34 0,-34 0,0 -10,-23 -11,-34 -1,-10 -4,-88 -14,-115 -11,-26 -66,-46 -66,-46l0 0c-15,-17 -33,-31 -54,-43 0,0 0,0 0,0 -23,-22 -64,-23 -79,-29 -15,-6 -6,-17 -6,-17 0,0 -9,2 -21,4 -11,2 -11,-14 -11,-14 -54,9 -98,22 -130,34 0,0 0,0 0,0 -7,2 -64,21 -64,21 0,0 -19,-1 -27,0 -8,2 -28,14 -36,35 -8,21 -33,19 -48,42 -8,14 -1,35 7,50 -2,25 5,60 -4,70 -12,12 -25,26 -25,26l2 17c0,0 -5,20 0,26 5,5 8,16 1,48 -6,25 17,109 27,144 -6,-1 -14,-1 -25,3 -32,10 29,120 39,189 7,51 45,23 45,23 0,0 46,195 -12,265 -2,2 -11,0 -11,0 0,0 -441,280 -550,346 -109,66 -91,338 -91,338l1684 0c0,0 -3,-226 -16,-295z"/>
   <path class="fil8" d="M14155 10783l-127 -685 0 -16 234 129 200 -121 30 18 -114 668 -223 7z"/>
   <path class="fil7" d="M14262 10211l-75 124 35 41 -39 400 180 0 -57 -400 33 -37 -77 -128z"/>
   <path class="fil7" d="M16030 11027c0,-1 0,-2 1,-2 0,3 1,5 1,5 0,0 -1,-2 -2,-3zm1053 865c-13,-68 -547,-357 -547,-366 0,-10 -29,-19 -33,-33 -33,-115 26,-277 26,-277 0,0 -1,2 14,0 16,-2 54,-151 53,-182 -2,-26 -24,-28 -31,-28 2,-26 14,-153 14,-168 0,-17 0,-34 0,-34 0,0 -10,-23 -11,-33 -1,-11 -3,-89 -14,-115 -11,-27 -66,-47 -66,-47l0 0c-15,-17 -33,-31 -54,-43 0,0 0,0 0,0 -23,-22 -64,-23 -79,-29 -15,-6 -6,-17 -6,-17 0,0 -9,2 -20,4 -12,2 -12,-14 -12,-14 -54,9 -97,22 -130,34 0,0 0,0 0,0 -7,3 -64,22 -64,22 0,0 -19,-2 -27,0 -8,1 -28,13 -36,34 -8,21 -33,19 -48,43 -8,13 -1,34 7,49 -2,26 5,60 -4,70 -12,12 -25,26 -25,26l2 17c0,0 -5,20 0,26 5,5 8,17 1,48 -6,26 17,110 27,144 -6,-1 -14,0 -25,3 -31,10 29,120 39,189 7,51 45,24 45,24 0,0 46,194 -12,264 -1,2 -11,0 -11,0 0,0 -441,281 -550,346 -109,66 -91,338 -91,338l1684 0c0,0 -3,-226 -16,-295z"/>
   <path class="fil8" d="M16201 12194l-127 -685 0 -16 234 130 201 -122 29 18 -114 668 -223 7z"/>
   <path class="fil7" d="M16308 11623l-75 123 36 41 -40 400 180 0 -57 -400 33 -37 -77 -127z"/>
  </g>
 </g>
</svg>
