<?xml version="1.0" encoding="UTF-8"?>
<!DOCTYPE svg PUBLIC "-//W3C//DTD SVG 1.0//EN" "http://www.w3.org/TR/2001/REC-SVG-20010904/DTD/svg10.dtd">
<!-- Creator: CorelDRAW X7 -->
<svg xmlns="http://www.w3.org/2000/svg" xml:space="preserve" width="200mm" height="200mm" version="1.0" style="shape-rendering:geometricPrecision; text-rendering:geometricPrecision; image-rendering:optimizeQuality; fill-rule:evenodd; clip-rule:evenodd"
viewBox="0 0 20000 20000"
 xmlns:xlink="http://www.w3.org/1999/xlink">
 <defs>
  <style type="text/css">
   <![CDATA[
    .str0 {stroke:#38959F;stroke-width:25}
    .fil10 {fill:#FEFEFE}
    .fil53 {fill:#FCFBFB}
    .fil7 {fill:#F19321}
    .fil12 {fill:#FAFBFB}
    .fil54 {fill:#F6F8F9}
    .fil13 {fill:#F6F5F6}
    .fil55 {fill:#F3F3F3}
    .fil87 {fill:#EFF1F3}
    .fil14 {fill:#EFEFF0}
    .fil56 {fill:#EDEDEF}
    .fil2 {fill:#EBECEC}
    .fil15 {fill:#EBEAEC}
    .fil57 {fill:#E9E9EC}
    .fil16 {fill:#E7E5E7}
    .fil85 {fill:#E4E4E8}
    .fil8 {fill:#E3E1E0}
    .fil17 {fill:#E0E0E3}
    .fil58 {fill:#DFDEDF}
    .fil18 {fill:#DCDBDE}
    .fil59 {fill:#DAD9DB}
    .fil19 {fill:#D8D6D9}
    .fil20 {fill:#D4D3D4}
    .fil60 {fill:#D4D1D3}
    .fil3 {fill:#B83633}
    .fil83 {fill:#D0D2D5}
    .fil90 {fill:#D0D0D3}
    .fil21 {fill:#CDCED0}
    .fil22 {fill:#C9C9CB}
    .fil61 {fill:#C8C6C8}
    .fil23 {fill:#C5C3C5}
    .fil92 {fill:#C5DDA6}
    .fil62 {fill:#C1C1C4}
    .fil24 {fill:#C1BFC1}
    .fil63 {fill:#BEBCBF}
    .fil84 {fill:#BDBDC1}
    .fil25 {fill:#BDBCBD}
    .fil26 {fill:#B6B6BA}
    .fil64 {fill:#B4B4B7}
    .fil27 {fill:#B2B0B4}
    .fil65 {fill:#ADACB1}
    .fil28 {fill:#ADACB0}
    .fil66 {fill:#A9A9AD}
    .fil29 {fill:#A7A5A9}
    .fil67 {fill:#A7A5A8}
    .fil30 {fill:#A5A3A7}
    .fil68 {fill:#A2A1A4}
    .fil31 {fill:#A19EA2}
    .fil69 {fill:#9B9A9D}
    .fil32 {fill:#99989C}
    .fil70 {fill:#99989A}
    .fil33 {fill:#979598}
    .fil88 {fill:#94979C}
    .fil71 {fill:#949396}
    .fil5 {fill:#89CCC6}
    .fil34 {fill:#929093}
    .fil72 {fill:#918F92}
    .fil35 {fill:#8F8B8F}
    .fil73 {fill:#8F8B8D}
    .fil36 {fill:#89878B}
    .fil74 {fill:#898789}
    .fil37 {fill:#858386}
    .fil75 {fill:#827E81}
    .fil38 {fill:#807D80}
    .fil93 {fill:#7F7B7F}
    .fil76 {fill:#7F7B7E}
    .fil39 {fill:#7D787B}
    .fil9 {fill:#252626}
    .fil77 {fill:#79777A}
    .fil40 {fill:#777477}
    .fil41 {fill:#716F72}
    .fil78 {fill:#706D70}
    .fil42 {fill:#6D6B6F}
    .fil79 {fill:#6C686B}
    .fil89 {fill:#6A676A}
    .fil43 {fill:#6A666A}
    .fil94 {fill:#696567}
    .fil95 {fill:#686467}
    .fil80 {fill:#686466}
    .fil44 {fill:#676365}
    .fil96 {fill:#656265}
    .fil97 {fill:#646264}
    .fil81 {fill:#625F62}
    .fil45 {fill:#625E60}
    .fil82 {fill:#615E5F}
    .fil46 {fill:#5C595B}
    .fil47 {fill:#5A5556}
    .fil48 {fill:#545052}
    .fil49 {fill:#504C4E}
    .fil50 {fill:#4B484A}
    .fil51 {fill:#484444}
    .fil91 {fill:#4A484B}
    .fil52 {fill:#444141}
    .fil86 {fill:#312C2C}
    .fil4 {fill:#23364B}
    .fil11 {fill:#3696A0}
    .fil6 {fill:#FEFEFE}
    .fil0 {fill:url(#id0)}
    .fil1 {fill:url(#id1)}
   ]]>
  </style>
  <radialGradient id="id0" gradientUnits="userSpaceOnUse" gradientTransform="matrix(1.41421 -0 -0 1.41421 -4142 -4140)" cx="9999.37" cy="9994.13" r="10000" fx="9999.37" fy="9994.13">
   <stop offset="0" style="stop-opacity:1; stop-color:#FEFEFE"/>
   <stop offset="0.439216" style="stop-opacity:1; stop-color:#FEFEFE"/>
   <stop offset="1" style="stop-opacity:1; stop-color:#D1E2F2"/>
  </radialGradient>
  <radialGradient id="id1" gradientUnits="userSpaceOnUse" gradientTransform="matrix(1.41421 -0 -0 1.41421 -3993 -4129)" xlink:href="#id0" cx="9640.15" cy="9969.4" r="10000" fx="9640.15" fy="9969.4">
  </radialGradient>
 </defs>
 <g id="Layer_x0020_1">
  <metadata id="CorelCorpID_0Corel-Layer"/>
  <path class="fil0" d="M-1 -6l20000 0 0 20000 -20000 0 0 -20000z"/>
  <path class="fil1" d="M-360 -31l20000 0 0 20000 -20000 0 0 -20000z"/>
  <path class="fil2" d="M40755 15326l0 0 -1 -5 1 5zm-173 0l0 0 1 -5 -1 5z"/>
  <path class="fil3" d="M40755 15326l-173 0 1 -5 171 0 1 5z"/>
  <path class="fil4" d="M5994 16630c-32,188 -210,314 -398,283l0 0c-188,-32 -315,-210 -283,-398l79 -623c32,-188 210,-161 398,-129l0 0c188,32 448,109 416,297l-212 570z"/>
  <path class="fil4" d="M13286 16630c32,188 210,314 398,283l0 0c188,-32 315,-210 283,-398l-79 -623c-32,-188 -209,-161 -398,-129l0 0c-188,32 -447,109 -416,297l212 570z"/>
  <path class="fil4" d="M9222 10496c0,519 -421,940 -940,940 -519,0 -941,-421 -941,-940 0,-519 422,-940 941,-940 519,0 940,421 940,940z"/>
  <path class="fil4" d="M14952 15065c0,674 -547,1220 -1220,1220l-8183 0c-674,0 -1220,-546 -1220,-1220l0 -3906c0,-673 546,-1220 1220,-1220l8183 0c673,0 1220,547 1220,1220l0 3906z"/>
  <path class="fil5" d="M11424 10689l-5183 0c-674,0 -1220,547 -1220,1220l0 2723c0,379 173,718 444,942l6826 -4522c-221,-224 -528,-363 -867,-363z"/>
  <path class="fil6" d="M5465 15574c211,174 481,278 776,278l5183 0c674,0 1220,-546 1220,-1220l0 -2723c0,-334 -135,-637 -353,-857l-6826 4522z"/>
  <path class="fil7" d="M13311 11836c0,102 -82,184 -184,184 -102,0 -184,-82 -184,-184 0,-101 82,-184 184,-184 102,0 184,83 184,184z"/>
  <path class="fil7" d="M13947 11836c0,102 -82,184 -184,184 -102,0 -184,-82 -184,-184 0,-101 82,-184 184,-184 102,0 184,83 184,184z"/>
  <path class="fil7" d="M14583 11836c0,102 -82,184 -184,184 -101,0 -184,-82 -184,-184 0,-101 83,-184 184,-184 102,0 184,83 184,184z"/>
  <path class="fil8" d="M14618 12566l-1675 0 0 -267 1675 0 0 267z"/>
  <path class="fil8" d="M14618 13172l-1675 0 0 -267 1675 0 0 267z"/>
  <path class="fil8" d="M14618 13778l-1675 0 0 -267 1675 0 0 267z"/>
  <path class="fil8" d="M14618 14383l-1675 0 0 -266 1675 0 0 266z"/>
  <g id="_286475106048">
   <path class="fil9" d="M8434 12877c1,-2 1,-3 2,-5 2,7 3,11 3,11 0,0 -2,-3 -5,-6zm2208 1814c-28,-144 -1147,-748 -1147,-768 0,-20 -60,-41 -68,-68 -69,-242 53,-581 53,-581 0,0 -1,3 31,-1 32,-4 113,-317 109,-381 -3,-55 -50,-60 -64,-60 5,-55 29,-320 29,-352 0,-35 0,-70 0,-70 0,0 -20,-49 -22,-71 -2,-22 -8,-185 -30,-241 -22,-56 -138,-98 -138,-98l0 0c-32,-35 -69,-65 -113,-89 0,0 0,0 0,0 -49,-48 -135,-49 -166,-61 -31,-13 -12,-37 -12,-37 0,0 -20,6 -43,10 -24,4 -24,-29 -24,-29 -113,19 -205,46 -273,70 0,0 0,0 0,0 -15,6 -135,45 -135,45 0,0 -39,-3 -55,0 -17,3 -60,29 -77,73 -17,43 -69,39 -100,89 -18,28 -2,72 14,104 -4,53 11,126 -8,146 -25,25 -53,55 -53,55l5 35c0,0 -11,43 0,54 11,11 17,35 2,102 -12,53 36,229 56,301 -12,-2 -28,-1 -52,7 -66,21 61,251 81,395 16,109 96,50 96,50 0,0 96,408 -25,555 -4,4 -24,0 -24,0 0,0 -924,588 -1153,726 -228,138 -192,708 -192,708l3532 0c0,0 -6,-474 -34,-618z"/>
   <path class="fil10" d="M8793 15323l-267 -1435 1 -34 491 271 420 -254 62 37 -239 1401 -468 14z"/>
   <path class="fil9" d="M9018 14125l-157 260 74 85 -84 839 379 0 -121 -839 71 -78 -162 -267z"/>
   <path class="fil11 str0" d="M7546 11298l185 -184c4,-4 9,-6 15,-6 6,0 11,2 15,7 5,4 8,10 8,16 0,4 -3,8 -7,15l-131 130 135 239 3 12c0,6 -2,10 -7,15 -4,4 -10,6 -16,6 -7,0 -13,-4 -19,-11l-129 -230 -52 52 0 167c0,7 -2,13 -7,17 -4,4 -9,5 -15,5 -6,0 -11,-1 -16,-5 -4,-4 -6,-9 -6,-17l0 -396c0,-6 2,-11 7,-15 4,-5 9,-7 15,-7 5,0 10,2 15,5 4,4 7,9 7,17l0 168zm385 140l-32 95c-2,5 -4,9 -8,12 -3,1 -7,3 -12,3 -6,0 -11,-2 -15,-6 -5,-4 -7,-9 -7,-15l1 -8 132 -396c5,-12 12,-19 21,-19 9,0 16,7 21,19l131 396 2 8c0,6 -2,11 -7,15 -5,4 -10,6 -16,6 -3,0 -6,0 -10,-2 -3,-1 -7,-6 -10,-13l-31 -95 -160 0zm145 -45l-65 -193 -65 193 130 0zm394 -109l0 -154c0,-6 2,-11 6,-15 5,-5 10,-7 16,-7 5,0 10,2 15,6 4,3 6,9 6,16l0 396c0,6 -2,12 -6,16 -6,4 -11,6 -16,6 -5,0 -10,-1 -15,-5 -4,-4 -6,-9 -6,-16l0 -199 -177 0 0 198c0,7 -2,13 -6,17 -4,4 -9,5 -16,5 -5,0 -10,-1 -15,-5 -4,-4 -6,-9 -6,-17l0 -396c0,-5 2,-11 6,-16 5,-4 10,-6 15,-6 6,0 11,2 16,6 4,4 6,9 6,16l0 154 177 0zm178 221l41 -377c0,-13 8,-20 22,-20l132 0c15,0 22,7 22,22l0 375 23 0c14,0 22,7 22,21l0 44c0,6 -3,11 -7,16 -4,4 -10,6 -15,6 -5,0 -10,-2 -15,-5 -5,-4 -7,-10 -7,-17l0 -22 -221 0 0 22c0,6 -2,11 -7,16 -4,4 -9,6 -15,6 -5,0 -10,-2 -14,-5 -5,-4 -8,-10 -8,-17l0 -44c0,-14 8,-21 22,-21l25 0zm174 0l0 -353 -91 0 -39 353 130 0zm439 21c0,7 -2,13 -6,17 -4,4 -9,5 -16,5 -5,0 -11,-1 -15,-5 -4,-4 -7,-9 -7,-17l0 -311 -178 322c-3,4 -6,8 -10,11l-5 2c-1,1 -3,2 -6,2 -5,0 -9,-2 -15,-7 -4,-4 -6,-10 -6,-18l0 -397c0,-5 2,-11 7,-16 4,-4 9,-6 15,-6 6,0 11,2 15,6 5,4 7,9 7,16l0 312 179 -322c2,-4 5,-7 9,-11 4,-3 8,-4 12,-4 5,0 9,2 14,7 4,4 6,11 6,18l0 396zm134 -21l42 -377c0,-13 7,-20 22,-20l132 0c15,0 22,7 22,22l0 375 22 0c15,0 23,7 23,21l0 44c0,6 -3,11 -7,16 -5,4 -10,6 -15,6 -5,0 -10,-2 -15,-5 -5,-4 -7,-10 -7,-17l0 -22 -221 0 0 22c0,6 -2,11 -7,16 -4,4 -9,6 -15,6 -5,0 -10,-2 -15,-5 -4,-4 -7,-10 -7,-17l0 -44c0,-14 8,-21 22,-21l24 0zm174 0l0 -353 -90 0 -40 353 130 0zm253 -67l-31 95c-2,5 -5,9 -9,12 -2,1 -7,3 -11,3 -6,0 -12,-2 -16,-6 -5,-4 -7,-9 -7,-15l1 -8 133 -396c4,-12 11,-19 20,-19 10,0 17,7 21,19l132 396 1 8c0,6 -2,11 -7,15 -4,4 -10,6 -15,6 -3,0 -6,0 -10,-2 -4,-1 -7,-6 -10,-13l-32 -95 -160 0zm145 -45l-65 -193 -65 193 130 0zm196 -241l-88 0c-7,0 -12,-2 -16,-6 -4,-5 -6,-10 -6,-16 0,-5 2,-10 6,-15 3,-4 9,-7 16,-7l220 0c6,0 11,2 15,7 5,4 7,9 7,15 0,5 -2,10 -6,15 -3,5 -9,7 -16,7l-88 0 0 374c0,7 -2,13 -6,17 -4,4 -10,5 -16,5 -6,0 -11,-1 -15,-5 -5,-4 -7,-9 -7,-17l0 -374z"/>
  </g>
  <g id="_286419451408">
   <path class="fil10" d="M12249 8302c-178,0 -348,-3 -505,-9l0 -3c156,6 327,10 505,10 738,0 1335,-61 1335,-135 0,-34 -127,-65 -337,-89 1,-1 1,-3 1,-4 226,25 364,57 364,93 0,76 -610,137 -1363,137z"/>
   <path class="fil12" d="M12249 8300c-178,0 -349,-4 -505,-10l0 -3c156,6 326,10 505,10 722,0 1307,-59 1307,-132 0,-32 -117,-62 -310,-85 0,-1 1,-3 1,-4 210,24 337,55 337,89 0,74 -597,135 -1335,135z"/>
   <path class="fil13" d="M12249 8297c-179,0 -349,-4 -505,-10l0 -3c155,6 326,10 505,10 707,0 1279,-57 1279,-129 0,-30 -106,-58 -283,-80 0,-2 1,-3 1,-5 193,23 310,53 310,85 0,73 -585,132 -1307,132z"/>
   <path class="fil14" d="M12249 8294c-179,0 -350,-4 -505,-10l0 -4c155,7 326,11 505,11 691,0 1251,-56 1251,-126 0,-28 -96,-55 -257,-76 1,-2 1,-3 2,-4 177,22 283,50 283,80 0,72 -572,129 -1279,129z"/>
   <path class="fil15" d="M12249 8291c-179,0 -350,-4 -505,-11l0 -2c154,7 325,11 505,11 676,0 1223,-56 1223,-124 0,-27 -85,-51 -231,-72 1,-1 2,-3 2,-4 161,21 257,48 257,76 0,70 -560,126 -1251,126z"/>
   <path class="fil16" d="M12249 8289c-180,0 -351,-4 -505,-11l0 -4c154,8 325,12 505,12 660,0 1195,-54 1195,-121 0,-25 -75,-48 -205,-67 1,-2 2,-3 2,-5 146,21 231,45 231,72 0,68 -547,124 -1223,124z"/>
   <path class="fil17" d="M12249 8286c-180,0 -351,-4 -505,-11l0 -4c153,8 324,12 505,12 645,0 1167,-53 1167,-118 0,-23 -66,-44 -179,-62 1,-2 2,-3 2,-5 130,19 205,42 205,67 0,67 -535,121 -1195,121z"/>
   <path class="fil18" d="M12249 8283c-181,0 -352,-4 -505,-12l0 -3c153,8 324,12 505,12 629,0 1139,-51 1139,-115 0,-21 -56,-40 -154,-57 1,-2 2,-4 3,-5 113,18 179,39 179,62 0,65 -522,118 -1167,118z"/>
   <path class="fil19" d="M12249 8280c-181,0 -352,-4 -505,-12l0 -3c152,8 324,12 505,12 614,0 1111,-50 1111,-112 0,-19 -47,-36 -129,-52 1,-2 2,-3 3,-5 98,17 154,36 154,57 0,64 -510,115 -1139,115z"/>
   <path class="fil20" d="M12249 8277c-181,0 -353,-4 -505,-12l0 -3c151,8 323,12 505,12 598,0 1083,-49 1083,-109 0,-16 -37,-32 -104,-46 1,-2 2,-4 3,-6 82,16 129,33 129,52 0,62 -497,112 -1111,112z"/>
   <path class="fil21" d="M12249 8274c-182,0 -354,-4 -505,-12l0 -3c150,8 322,13 505,13 583,0 1055,-48 1055,-107 0,-14 -29,-28 -81,-41 2,-1 3,-3 5,-5 67,14 104,30 104,46 0,60 -485,109 -1083,109z"/>
   <path class="fil22" d="M12249 8272c-183,0 -355,-5 -505,-13l0 -4c150,9 322,14 505,14 567,0 1027,-47 1027,-104 0,-12 -20,-23 -58,-34 2,-2 3,-4 5,-7 52,13 81,27 81,41 0,59 -472,107 -1055,107z"/>
   <path class="fil23" d="M12249 8269c-183,0 -356,-5 -505,-14l0 -3c149,9 321,14 505,14 552,0 999,-45 999,-101 0,-9 -13,-18 -37,-27 2,-2 5,-5 7,-7 38,11 58,22 58,34 0,57 -460,104 -1027,104z"/>
   <path class="fil24" d="M12249 8266c-184,0 -356,-5 -505,-14l0 -3c147,9 320,14 505,14 536,0 971,-44 971,-98 0,-6 -6,-13 -19,-19 4,-2 7,-5 10,-8 24,9 37,18 37,27 0,56 -447,101 -999,101z"/>
   <path class="fil25" d="M12249 8263c-185,0 -358,-5 -505,-14l0 -4c146,10 320,15 505,15 521,0 943,-42 943,-95 0,-3 -2,-6 -5,-9 5,-3 10,-6 14,-10 13,6 19,13 19,19 0,54 -435,98 -971,98z"/>
   <path class="fil26" d="M12249 8260c-185,0 -359,-5 -505,-15l0 -3c145,10 319,16 505,16 500,0 905,-41 915,-91 8,-3 16,-7 23,-11 3,3 5,6 5,9 0,53 -422,95 -943,95z"/>
   <path class="fil27" d="M12249 8258c-186,0 -360,-6 -505,-16l0 -3c144,10 318,16 505,16 460,0 839,-36 883,-81 11,-1 22,-3 32,-7 -10,50 -415,91 -915,91z"/>
   <path class="fil28" d="M12249 8255c-187,0 -361,-6 -505,-16l0 -4c142,11 317,17 505,17 443,0 807,-34 854,-77l16 0c5,0 9,0 13,-1 -44,45 -423,81 -883,81z"/>
   <path class="fil29" d="M12249 8252c-188,0 -363,-6 -505,-17l0 -3c140,10 315,17 505,17 427,0 779,-32 826,-74l28 0c-47,43 -411,77 -854,77z"/>
   <path class="fil30" d="M12249 8249c-190,0 -365,-7 -505,-17l0 -4c138,12 314,18 505,18 412,0 751,-31 797,-71l9 0 20 0c-47,42 -399,74 -826,74z"/>
   <path class="fil31" d="M12249 8246c-191,0 -367,-6 -505,-18l0 -3c136,11 312,18 505,18 396,0 723,-30 769,-68l28 0c-46,40 -385,71 -797,71z"/>
   <path class="fil32" d="M12249 8243c-193,0 -369,-7 -505,-18l0 -4c133,12 311,20 505,20 381,0 695,-29 741,-66l28 0c-46,38 -373,68 -769,68z"/>
   <path class="fil33" d="M12249 8241c-194,0 -372,-8 -505,-20l0 -4c130,13 309,21 505,21 365,0 667,-28 713,-63l28 0c-46,37 -360,66 -741,66z"/>
   <path class="fil34" d="M12249 8238c-196,0 -375,-8 -505,-21l0 -4c126,13 306,22 505,22 350,0 639,-26 684,-60l29 0c-46,35 -348,63 -713,63z"/>
   <path class="fil35" d="M12249 8235c-199,0 -379,-9 -505,-22l0 -4c122,14 303,23 505,23 335,0 611,-25 656,-57l28 0c-45,34 -334,60 -684,60z"/>
   <path class="fil36" d="M12249 8232c-202,0 -383,-9 -505,-23l0 -5c116,15 299,25 505,25 319,0 583,-23 628,-54l28 0c-45,32 -321,57 -656,57z"/>
   <path class="fil37" d="M12249 8229c-206,0 -389,-10 -505,-25l0 -5c109,17 295,27 505,27 303,0 555,-22 600,-51l28 0c-45,31 -309,54 -628,54z"/>
   <path class="fil38" d="M12249 8226c-210,0 -396,-10 -505,-27l0 -5c99,18 288,30 505,30 288,0 526,-22 571,-49l29 0c-45,29 -297,51 -600,51z"/>
   <path class="fil39" d="M12249 8224c-217,0 -406,-12 -505,-30l0 -7c85,20 279,34 505,34 273,0 499,-20 543,-46l28 0c-45,27 -283,49 -571,49z"/>
   <path class="fil40" d="M12249 8221c-226,0 -420,-14 -505,-34l0 -8c60,22 263,39 505,39 257,0 470,-19 514,-43l29 0c-44,26 -270,46 -543,46z"/>
   <path class="fil41" d="M12249 8218c-242,0 -445,-17 -505,-39l0 -4 20 0c43,23 244,40 485,40 241,0 442,-17 486,-40l28 0c-44,24 -257,43 -514,43z"/>
   <path class="fil42" d="M12249 8215c-241,0 -442,-17 -485,-40l28 0c43,21 232,37 457,37 226,0 414,-16 458,-37l28 0c-44,23 -245,40 -486,40z"/>
   <path class="fil43" d="M12249 8212c-225,0 -414,-16 -457,-37l29 0c43,19 218,34 428,34 210,0 386,-15 429,-34l29 0c-44,21 -232,37 -458,37z"/>
   <path class="fil44" d="M12249 8209c-210,0 -385,-15 -428,-34l29 0c42,18 205,32 399,32 195,0 358,-14 400,-32l29 0c-43,19 -219,34 -429,34z"/>
   <path class="fil45" d="M12249 8207c-194,0 -357,-14 -399,-32l28 0c42,17 192,29 371,29 179,0 330,-12 371,-29l29 0c-42,18 -205,32 -400,32z"/>
   <path class="fil46" d="M12249 8204c-179,0 -329,-12 -371,-29l29 0c42,15 179,26 342,26 163,0 301,-11 342,-26l29 0c-41,17 -192,29 -371,29z"/>
   <path class="fil47" d="M12249 8201c-163,0 -300,-11 -342,-26l30 0c40,13 165,23 312,23 148,0 273,-10 313,-23l29 0c-41,15 -179,26 -342,26z"/>
   <path class="fil48" d="M12249 8198c-147,0 -272,-10 -312,-23l29 0c39,12 151,20 283,20 133,0 245,-8 284,-20l29 0c-40,13 -165,23 -313,23z"/>
   <path class="fil49" d="M12249 8195c-132,0 -244,-8 -283,-20l29 0c38,10 138,17 254,17 117,0 216,-7 254,-17l30 0c-39,12 -151,20 -284,20z"/>
   <path class="fil50" d="M12249 8192c-116,0 -216,-7 -254,-17l31 0c36,9 123,15 223,15 101,0 187,-6 224,-15l30 0c-38,10 -137,17 -254,17z"/>
   <path class="fil51" d="M12249 8190c-100,0 -187,-6 -223,-15l30 0c35,7 108,12 193,12 85,0 159,-5 193,-12l31 0c-37,9 -123,15 -224,15z"/>
   <path class="fil52" d="M12249 8187c-85,0 -158,-5 -193,-12l386 0c-34,7 -108,12 -193,12z"/>
   <path class="fil10" d="M9434 8189c-1269,0 -2298,-42 -2298,-93 0,-52 1029,-93 2298,-93 409,0 792,4 1125,11l0 3c-331,-8 -715,-12 -1125,-12 -1243,0 -2251,40 -2251,91 0,50 1008,91 2251,91 410,0 794,-4 1125,-12l0 2c-333,8 -716,12 -1125,12z"/>
   <path class="fil53" d="M9434 8187c-1243,0 -2251,-41 -2251,-91 0,-51 1008,-91 2251,-91 410,0 794,4 1125,12l0 2c-329,-8 -714,-12 -1125,-12 -1217,0 -2204,39 -2204,89 0,49 987,89 2204,89 411,0 796,-5 1125,-13l0 3c-331,8 -715,12 -1125,12z"/>
   <path class="fil54" d="M9434 8185c-1217,0 -2204,-40 -2204,-89 0,-50 987,-89 2204,-89 411,0 796,4 1125,12l0 2c-328,-8 -713,-13 -1125,-13 -1191,0 -2156,39 -2156,88 0,48 965,87 2156,87 412,0 797,-5 1125,-13l0 2c-329,8 -714,13 -1125,13z"/>
   <path class="fil55" d="M9434 8183c-1191,0 -2156,-39 -2156,-87 0,-49 965,-88 2156,-88 412,0 797,5 1125,13l0 2c-326,-8 -712,-13 -1125,-13 -1165,0 -2109,38 -2109,86 0,47 944,85 2109,85 413,0 799,-5 1125,-13l0 2c-328,8 -713,13 -1125,13z"/>
   <path class="fil56" d="M9434 8181c-1165,0 -2109,-38 -2109,-85 0,-48 944,-86 2109,-86 413,0 799,5 1125,13l0 3c-324,-9 -710,-14 -1125,-14 -1139,0 -2062,38 -2062,84 0,46 923,83 2062,83 415,0 801,-5 1125,-13l0 2c-326,8 -712,13 -1125,13z"/>
   <path class="fil57" d="M9434 8179c-1139,0 -2062,-37 -2062,-83 0,-46 923,-84 2062,-84 415,0 801,5 1125,14l0 2c-321,-9 -709,-14 -1125,-14 -1113,0 -2015,37 -2015,82 0,45 902,81 2015,81 416,0 804,-5 1125,-14l0 3c-324,8 -710,13 -1125,13z"/>
   <path class="fil16" d="M9434 8177c-1113,0 -2015,-36 -2015,-81 0,-45 902,-82 2015,-82 416,0 804,5 1125,14l0 2c-319,-9 -707,-14 -1125,-14 -1087,0 -1967,36 -1967,80 0,44 880,79 1967,79 418,0 806,-5 1125,-14l0 2c-321,9 -709,14 -1125,14z"/>
   <path class="fil17" d="M9434 8175c-1087,0 -1967,-35 -1967,-79 0,-44 880,-80 1967,-80 418,0 806,5 1125,14l0 3c-316,-9 -705,-15 -1125,-15 -1060,0 -1920,35 -1920,78 0,43 860,78 1920,78 420,0 809,-6 1125,-15l0 2c-319,9 -707,14 -1125,14z"/>
   <path class="fil58" d="M9434 8174c-1060,0 -1920,-35 -1920,-78 0,-43 860,-78 1920,-78 420,0 809,6 1125,15l0 2c-313,-9 -703,-15 -1125,-15 -1034,0 -1873,34 -1873,76 0,42 839,75 1873,75 422,0 812,-5 1125,-15l0 3c-316,9 -705,15 -1125,15z"/>
   <path class="fil59" d="M9434 8171c-1034,0 -1873,-33 -1873,-75 0,-42 839,-76 1873,-76 422,0 812,6 1125,15l0 2c-310,-9 -701,-15 -1125,-15 -1008,0 -1826,33 -1826,74 0,41 818,74 1826,74 424,0 815,-6 1125,-16l0 2c-313,10 -703,15 -1125,15z"/>
   <path class="fil19" d="M9434 8170c-1008,0 -1826,-33 -1826,-74 0,-41 818,-74 1826,-74 424,0 815,6 1125,15l0 3c-307,-10 -698,-16 -1125,-16 -982,0 -1779,32 -1779,72 0,40 797,72 1779,72 427,0 818,-6 1125,-16l0 2c-310,10 -701,16 -1125,16z"/>
   <path class="fil60" d="M9434 8168c-982,0 -1779,-32 -1779,-72 0,-40 797,-72 1779,-72 427,0 818,6 1125,16l0 3c-303,-11 -696,-17 -1125,-17 -956,0 -1731,31 -1731,70 0,39 775,70 1731,70 429,0 822,-6 1125,-17l0 3c-307,10 -698,16 -1125,16z"/>
   <path class="fil21" d="M9434 8166c-956,0 -1731,-31 -1731,-70 0,-39 775,-70 1731,-70 429,0 822,6 1125,17l0 2c-298,-11 -693,-17 -1125,-17 -930,0 -1684,30 -1684,68 0,37 754,68 1684,68 432,0 827,-7 1125,-17l0 2c-303,11 -696,17 -1125,17z"/>
   <path class="fil22" d="M9434 8164c-930,0 -1684,-31 -1684,-68 0,-38 754,-68 1684,-68 432,0 827,6 1125,17l0 2c-293,-11 -689,-18 -1125,-18 -904,0 -1637,30 -1637,67 0,36 733,66 1637,66 436,0 832,-7 1125,-18l0 3c-298,10 -693,17 -1125,17z"/>
   <path class="fil61" d="M9434 8162c-904,0 -1637,-30 -1637,-66 0,-37 733,-67 1637,-67 436,0 832,7 1125,18l0 3c-288,-11 -686,-19 -1125,-19 -878,0 -1589,29 -1589,65 0,35 711,64 1589,64 439,0 837,-7 1125,-19l0 3c-293,11 -689,18 -1125,18z"/>
   <path class="fil62" d="M9434 8160c-878,0 -1589,-29 -1589,-64 0,-36 711,-65 1589,-65 439,0 837,8 1125,19l0 3c-282,-12 -681,-20 -1125,-20 -852,0 -1542,28 -1542,63 0,34 690,62 1542,62 444,0 843,-7 1125,-20l0 3c-288,12 -686,19 -1125,19z"/>
   <path class="fil63" d="M9434 8158c-852,0 -1542,-28 -1542,-62 0,-35 690,-63 1542,-63 444,0 843,8 1125,20l0 3c-274,-13 -676,-21 -1125,-21 -826,0 -1495,27 -1495,61 0,33 669,60 1495,60 449,0 851,-8 1125,-20l0 2c-282,13 -681,20 -1125,20z"/>
   <path class="fil25" d="M9434 8156c-826,0 -1495,-27 -1495,-60 0,-34 669,-61 1495,-61 449,0 851,8 1125,21l0 3c-266,-13 -671,-22 -1125,-22 -800,0 -1448,26 -1448,59 0,32 648,58 1448,58 454,0 859,-8 1125,-21l0 3c-274,12 -676,20 -1125,20z"/>
   <path class="fil26" d="M9434 8154c-800,0 -1448,-26 -1448,-58 0,-33 648,-59 1448,-59 454,0 859,9 1125,22l0 3c-255,-14 -664,-23 -1125,-23 -774,0 -1401,25 -1401,57 0,31 627,57 1401,57 461,0 870,-9 1125,-23l0 3c-266,13 -671,21 -1125,21z"/>
   <path class="fil64" d="M9434 8153c-774,0 -1401,-26 -1401,-57 0,-32 627,-57 1401,-57 461,0 870,9 1125,23l0 3c-243,-14 -656,-24 -1125,-24 -747,0 -1353,24 -1353,55 0,30 606,54 1353,54 469,0 882,-9 1125,-24l0 4c-255,14 -664,23 -1125,23z"/>
   <path class="fil65" d="M9434 8150c-747,0 -1353,-24 -1353,-54 0,-31 606,-55 1353,-55 469,0 882,10 1125,24l0 4c-228,-16 -646,-26 -1125,-26 -721,0 -1306,24 -1306,53 0,29 585,53 1306,53 479,0 897,-11 1125,-26l0 3c-243,15 -656,24 -1125,24z"/>
   <path class="fil66" d="M9434 8149c-721,0 -1306,-24 -1306,-53 0,-29 585,-53 1306,-53 479,0 897,10 1125,26l0 4c-207,-17 -633,-28 -1125,-28 -695,0 -1259,23 -1259,51 0,28 564,51 1259,51 492,0 918,-12 1125,-28l0 4c-228,15 -646,26 -1125,26z"/>
   <path class="fil67" d="M9434 8147c-695,0 -1259,-23 -1259,-51 0,-28 564,-51 1259,-51 492,0 918,11 1125,28l0 5c-179,-18 -615,-31 -1125,-31 -669,0 -1211,22 -1211,49 0,27 542,49 1211,49 510,0 946,-13 1125,-31l0 5c-207,16 -633,28 -1125,28z"/>
   <path class="fil68" d="M9434 8145c-669,0 -1211,-22 -1211,-49 0,-27 542,-49 1211,-49 510,0 946,13 1125,31l0 6c-133,-21 -586,-36 -1125,-36 -643,0 -1164,22 -1164,48 0,26 521,47 1164,47 539,0 992,-15 1125,-35l0 6c-179,18 -615,31 -1125,31z"/>
   <path class="fil31" d="M9434 8143c-643,0 -1164,-21 -1164,-47 0,-26 521,-48 1164,-48 539,0 992,15 1125,36l0 24c-133,20 -586,35 -1125,35zm0 -92c-617,0 -1117,20 -1117,45 0,25 500,45 1117,45 617,0 1117,-20 1117,-45 0,-25 -500,-45 -1117,-45z"/>
   <path class="fil69" d="M9434 8141c-617,0 -1117,-20 -1117,-45 0,-25 500,-45 1117,-45 617,0 1117,20 1117,45 0,25 -500,45 -1117,45zm0 -89c-591,0 -1070,20 -1070,44 0,24 479,43 1070,43 591,0 1070,-19 1070,-43 0,-24 -479,-44 -1070,-44z"/>
   <path class="fil70" d="M9434 8139c-591,0 -1070,-19 -1070,-43 0,-24 479,-44 1070,-44 591,0 1070,20 1070,44 0,24 -479,43 -1070,43zm0 -85c-565,0 -1023,19 -1023,42 0,23 458,41 1023,41 565,0 1023,-18 1023,-41 0,-23 -458,-42 -1023,-42z"/>
   <path class="fil71" d="M9434 8137c-565,0 -1023,-18 -1023,-41 0,-23 458,-42 1023,-42 565,0 1023,19 1023,42 0,23 -458,41 -1023,41zm0 -81c-539,0 -975,18 -975,40 0,22 436,39 975,39 539,0 975,-17 975,-39 0,-22 -436,-40 -975,-40z"/>
   <path class="fil72" d="M9434 8135c-539,0 -975,-17 -975,-39 0,-22 436,-40 975,-40 539,0 975,18 975,40 0,22 -436,39 -975,39zm0 -77c-513,0 -928,17 -928,38 0,20 415,37 928,37 513,0 928,-17 928,-37 0,-21 -415,-38 -928,-38z"/>
   <path class="fil73" d="M9434 8133c-513,0 -928,-17 -928,-37 0,-21 415,-38 928,-38 513,0 928,17 928,38 0,20 -415,37 -928,37zm0 -73c-487,0 -881,16 -881,36 0,19 394,35 881,35 487,0 881,-16 881,-35 0,-20 -394,-36 -881,-36z"/>
   <path class="fil74" d="M9434 8131c-487,0 -881,-16 -881,-35 0,-20 394,-36 881,-36 487,0 881,16 881,36 0,19 -394,35 -881,35zm0 -69c-460,0 -834,15 -834,34 0,18 374,34 834,34 460,0 834,-16 834,-34 0,-19 -374,-34 -834,-34z"/>
   <path class="fil37" d="M9434 8130c-460,0 -834,-16 -834,-34 0,-19 374,-34 834,-34 460,0 834,15 834,34 0,18 -374,34 -834,34zm0 -66c-434,0 -787,14 -787,32 0,17 353,32 787,32 434,0 786,-15 786,-32 0,-18 -352,-32 -786,-32z"/>
   <path class="fil75" d="M9434 8128c-434,0 -787,-15 -787,-32 0,-18 353,-32 787,-32 434,0 786,14 786,32 0,17 -352,32 -786,32zm0 -62c-408,0 -739,13 -739,30 0,16 331,30 739,30 408,0 739,-14 739,-30 0,-17 -331,-30 -739,-30z"/>
   <path class="fil76" d="M9434 8126c-408,0 -739,-14 -739,-30 0,-17 331,-30 739,-30 408,0 739,13 739,30 0,16 -331,30 -739,30zm0 -58c-382,0 -692,12 -692,28 0,15 310,28 692,28 382,0 692,-13 692,-28 0,-16 -310,-28 -692,-28z"/>
   <path class="fil77" d="M9434 8124c-382,0 -692,-13 -692,-28 0,-16 310,-28 692,-28 382,0 692,12 692,28 0,15 -310,28 -692,28zm0 -55c-356,0 -645,12 -645,27 0,14 289,26 645,26 356,0 645,-12 645,-26 0,-15 -289,-27 -645,-27z"/>
   <path class="fil40" d="M9434 8122c-356,0 -645,-12 -645,-26 0,-15 289,-27 645,-27 356,0 645,12 645,27 0,14 -289,26 -645,26zm0 -50c-330,0 -597,10 -597,24 0,13 267,24 597,24 330,0 598,-11 598,-24 0,-14 -268,-24 -598,-24z"/>
   <path class="fil41" d="M9434 8120c-330,0 -597,-11 -597,-24 0,-14 267,-24 597,-24 330,0 598,10 598,24 0,13 -268,24 -598,24zm0 -47c-304,0 -550,11 -550,23 0,12 246,22 550,22 304,0 550,-10 550,-22 0,-12 -246,-23 -550,-23z"/>
   <path class="fil78" d="M9434 8118c-304,0 -550,-10 -550,-22 0,-12 246,-23 550,-23 304,0 550,11 550,23 0,12 -246,22 -550,22zm0 -43c-278,0 -503,9 -503,21 0,11 225,20 503,20 278,0 503,-9 503,-20 0,-12 -225,-21 -503,-21z"/>
   <path class="fil79" d="M9434 8116c-278,0 -503,-9 -503,-20 0,-12 225,-21 503,-21 278,0 503,9 503,21 0,11 -225,20 -503,20zm0 -39c-252,0 -456,8 -456,19 0,10 204,18 456,18 252,0 456,-8 456,-18 0,-11 -204,-19 -456,-19z"/>
   <path class="fil80" d="M9434 8114c-252,0 -456,-8 -456,-18 0,-11 204,-19 456,-19 252,0 456,8 456,19 0,10 -204,18 -456,18zm0 -35c-226,0 -409,7 -409,17 0,9 183,17 409,17 226,0 408,-8 408,-17 0,-10 -182,-17 -408,-17z"/>
   <path class="fil81" d="M9434 8113c-226,0 -409,-8 -409,-17 0,-10 183,-17 409,-17 226,0 408,7 408,17 0,9 -182,17 -408,17zm0 -32c-200,0 -361,7 -361,15 0,8 161,14 361,14 199,0 361,-6 361,-14 0,-8 -162,-15 -361,-15z"/>
   <path class="fil82" d="M9434 8110c-200,0 -361,-6 -361,-14 0,-8 161,-15 361,-15 199,0 361,7 361,15 0,8 -162,14 -361,14z"/>
   <path class="fil83" d="M10188 7961l-1599 0 231 -1079 1137 0 231 1079z"/>
   <path class="fil84" d="M10088 7492l-131 -610 -1137 0 -131 610 1399 0z"/>
   <path class="fil85" d="M10523 8085l-2269 0c-121,0 -139,-159 -139,-159l2547 0c0,0 -19,159 -139,159z"/>
   <path class="fil86" d="M12390 6666c0,147 -119,265 -265,265l-5473 0c-147,0 -265,-118 -265,-265l0 -3180c0,-146 118,-265 265,-265l5473 0c146,0 265,119 265,265l0 3180z"/>
   <path class="fil85" d="M6387 6595l0 521c0,146 118,265 265,265l5473 0c146,0 265,-119 265,-265l0 -521 -6003 0z"/>
   <path class="fil87" d="M12196 6357l-5615 0 0 -2885 5615 0 0 2885z"/>
   <path class="fil88" d="M9580 6974c0,106 -86,192 -192,192 -106,0 -191,-86 -191,-192 0,-106 85,-192 191,-192 106,0 192,86 192,192z"/>
   <path class="fil89" d="M11210 6595l-850 0 -144 -238 994 0 0 238zm1180 -1343l-194 0 0 -1780 -3721 0 -149 -247 3799 0c146,0 265,119 265,265l0 1762z"/>
   <path class="fil56" d="M10559 6924l-199 -329 850 0 0 161 -534 0 -4 0c-47,0 -87,28 -106,68l2 3c-6,14 -9,30 -9,46l0 51z"/>
   <path class="fil90" d="M10000 5998l-34 -56 34 0 0 56z"/>
   <path class="fil86" d="M11342 8175c-74,0 -132,-59 -132,-132l0 -2659c0,-73 58,-132 132,-132l1777 0c74,0 132,59 132,132l0 2659c0,73 -58,132 -132,132l-1777 0z"/>
   <path class="fil87" d="M11349 7890l0 -2354 1763 0 0 2354 -1763 0z"/>
   <path class="fil91" d="M12368 8040c0,27 -22,49 -48,49l-152 0c-27,0 -49,-22 -49,-49 0,-27 22,-48 49,-48l152 0c26,0 48,21 48,48z"/>
   <path class="fil92" d="M11335 5252c2,0 4,0 7,0 -3,0 -5,0 -7,0z"/>
   <path class="fil89" d="M13119 8175l-44 0 -20 0 -172 -285 229 0 0 -2354 -1650 0 -167 -275c13,-5 26,-8 40,-9 2,0 4,0 7,0l0 0 1777 0c74,0 132,59 132,132l0 2659c0,73 -58,132 -132,132z"/>
   <path class="fil86" d="M11744 8693c0,65 -52,117 -117,117l-951 0c-65,0 -117,-52 -117,-117l0 -1820c0,-64 52,-117 117,-117l951 0c65,0 117,53 117,117l0 1820z"/>
   <path class="fil87" d="M11671 8522l-1039 0 0 -1508 1039 0 0 1508z"/>
   <path class="fil91" d="M11195 6899c0,24 -19,44 -43,44 -25,0 -44,-20 -44,-44 0,-24 19,-43 44,-43 24,0 43,19 43,43z"/>
   <path class="fil91" d="M11275 8667c0,27 -21,48 -48,48l-151 0c-26,0 -48,-21 -48,-48 0,-26 22,-48 48,-48l151 0c27,0 48,22 48,48z"/>
   <path class="fil55" d="M10568 6827l-2 -3c19,-40 59,-68 106,-68l4 0c-48,0 -90,30 -108,71z"/>
   <path class="fil89" d="M11733 8733c-5,-1 -10,-1 -15,-1l-127 -210 80 0 0 -1508 -990 0 -113 -187c18,-41 60,-71 108,-71l947 0c65,0 117,53 117,117l0 1820c0,14 -2,27 -7,40zm-581 -1877c-25,0 -44,19 -44,43 0,24 19,44 44,44 24,0 43,-20 43,-44 0,-24 -19,-43 -43,-43z"/>
   <path class="fil13" d="M11671 8522l-80 0 -40 -66 71 0 0 -523 -386 0 -36 -60 422 0 0 -379 -651 0 -37 -62 688 0 0 -167 -790 0 -30 -51 820 0 0 -151 -912 0 -29 -49 990 0 0 1508z"/>
   <path class="fil93" d="M11152 6943c-25,0 -44,-20 -44,-44 0,-24 19,-43 44,-43 24,0 43,19 43,43 0,24 -19,44 -43,44z"/>
   <path class="fil10" d="M11145 8903c-544,0 -985,-42 -985,-95 0,-31 160,-59 405,-76 1,1 1,2 1,2 -234,17 -385,44 -385,74 0,52 431,93 964,93 532,0 964,-41 964,-93 0,-29 -146,-56 -372,-73 0,0 0,-1 0,-2 238,17 392,45 392,75 0,53 -441,95 -984,95z"/>
   <path class="fil86" d="M11737 8735c-2,0 -3,0 -5,0 1,-1 1,-2 1,-2 2,0 3,0 4,0 0,1 0,2 0,2zm-1171 -1c0,0 0,-1 -1,-2 143,-10 315,-16 501,-18 3,1 6,1 10,1l151 0c4,0 7,0 10,-1 179,2 343,8 481,18l2 2c-161,-11 -360,-18 -575,-18 -217,0 -418,7 -579,18z"/>
   <path class="fil91" d="M11227 8715l-151 0c-4,0 -7,0 -10,-1 26,0 52,0 79,0 31,0 62,0 92,0 -3,1 -6,1 -10,1z"/>
   <path class="fil89" d="M11732 8735c-4,0 -8,-1 -12,-1l-2 -2c5,0 10,0 15,1 0,0 0,1 -1,2z"/>
   <path class="fil12" d="M11145 8901c-533,0 -964,-41 -964,-93 0,-30 151,-57 385,-74 1,1 1,2 1,3 -223,16 -366,42 -366,71 0,51 423,91 944,91 521,0 944,-40 944,-91 0,-28 -138,-54 -353,-70 0,-1 0,-2 1,-3 226,17 372,44 372,73 0,52 -432,93 -964,93z"/>
   <path class="fil86" d="M11736 8738c-2,0 -3,0 -5,0 1,-1 1,-2 1,-3 2,0 3,0 5,0 -1,1 -1,2 -1,3zm-1169 -1c0,-1 0,-2 -1,-3 161,-11 362,-18 579,-18 215,0 414,7 575,18l1 3c-159,-12 -359,-19 -576,-19 -218,0 -418,7 -578,19z"/>
   <path class="fil94" d="M11731 8738c-3,-1 -6,-1 -10,-1l-1 -3c4,0 8,1 12,1 0,1 0,2 -1,3z"/>
   <path class="fil13" d="M11145 8899c-521,0 -944,-40 -944,-91 0,-29 143,-55 366,-71 1,1 1,1 1,2 -211,16 -347,41 -347,69 0,50 413,89 924,89 510,0 923,-39 923,-89 0,-27 -129,-52 -333,-68 0,-1 0,-1 1,-2 215,16 353,42 353,70 0,51 -423,91 -944,91z"/>
   <path class="fil86" d="M11735 8740c-2,0 -3,0 -5,0 1,-1 1,-2 1,-2 2,0 3,0 5,0 -1,1 -1,1 -1,2zm-12 -1c-159,-12 -360,-19 -578,-19 -218,0 -419,7 -577,19 0,-1 0,-1 -1,-2 160,-12 360,-19 578,-19 217,0 417,7 576,19l2 2z"/>
   <path class="fil95" d="M11730 8740c-2,0 -5,-1 -7,-1l-2 -2c4,0 7,0 10,1 0,0 0,1 -1,2z"/>
   <path class="fil14" d="M11145 8897c-511,0 -924,-39 -924,-89 0,-28 136,-53 347,-69 1,1 1,2 1,3 -200,16 -328,40 -328,66 0,48 405,87 904,87 499,0 903,-39 903,-87 0,-26 -122,-49 -315,-65 1,-1 1,-2 2,-3 204,16 333,41 333,68 0,50 -413,89 -923,89z"/>
   <path class="fil86" d="M11733 8743c-1,0 -3,0 -4,-1 0,0 1,-1 1,-2 2,0 3,0 5,0 -1,1 -1,2 -2,3zm-9 -1c-157,-13 -359,-20 -579,-20 -219,0 -419,7 -576,20 0,-1 0,-2 -1,-3 158,-12 359,-19 577,-19 218,0 419,7 578,19l1 3z"/>
   <path class="fil96" d="M11729 8742c-2,0 -3,0 -5,0l-1 -3c2,0 5,1 7,1 0,1 -1,2 -1,2z"/>
   <path class="fil15" d="M11145 8895c-499,0 -904,-39 -904,-87 0,-26 128,-50 328,-66 1,0 1,1 2,2 -190,16 -309,39 -309,64 0,47 395,85 883,85 487,0 883,-38 883,-85 0,-25 -114,-47 -296,-63 1,-1 1,-1 1,-2 193,16 315,39 315,65 0,48 -404,87 -903,87z"/>
   <path class="fil86" d="M11732 8745c-1,0 -3,0 -4,0 0,-1 1,-2 1,-3 1,1 3,1 4,1 0,1 0,1 -1,2zm-6 0c-155,-13 -359,-21 -581,-21 -220,0 -420,7 -574,20 -1,-1 -1,-2 -2,-2 157,-13 357,-20 576,-20 220,0 422,7 579,20l2 3z"/>
   <path class="fil96" d="M11728 8745c-1,0 -1,0 -2,0l-2 -3c2,0 3,0 5,0 0,1 -1,2 -1,3z"/>
   <path class="fil16" d="M11145 8893c-488,0 -883,-38 -883,-85 0,-25 119,-48 309,-64 0,1 0,2 1,2 -178,16 -290,38 -290,62 0,46 386,83 863,83 476,0 863,-37 863,-83 0,-24 -107,-45 -277,-60 0,-1 1,-2 1,-3 182,16 296,38 296,63 0,47 -396,85 -883,85z"/>
   <path class="fil86" d="M11731 8748c-154,-14 -360,-22 -586,-22 -220,0 -421,7 -573,20 -1,0 -1,-1 -1,-2 154,-13 354,-20 574,-20 222,0 426,8 581,21l1 2c0,-1 1,-2 1,-2 1,0 3,0 4,0 0,1 -1,2 -1,3z"/>
   <path class="fil97" d="M11727 8747l-1 -2c1,0 1,0 2,0 0,0 -1,1 -1,2z"/>
   <path class="fil17" d="M11145 8891c-477,0 -863,-37 -863,-83 0,-24 112,-46 290,-62 0,1 1,2 1,3 -167,15 -271,36 -271,59 0,45 377,81 843,81 465,0 842,-36 842,-81 0,-22 -98,-43 -258,-58 1,-1 1,-1 2,-2 170,15 277,36 277,60 0,46 -387,83 -863,83z"/>
   <path class="fil86" d="M11729 8750c-151,-14 -357,-22 -584,-22 -221,0 -422,8 -572,21 0,-1 -1,-2 -1,-3 152,-13 353,-20 573,-20 226,0 432,8 586,22 -1,1 -1,1 -2,2z"/>
   <path class="fil18" d="M11145 8889c-466,0 -843,-36 -843,-81 0,-23 104,-44 271,-59 1,1 1,2 2,3 -156,14 -253,34 -253,56 0,44 369,80 823,80 454,0 822,-36 822,-80 0,-21 -91,-41 -239,-55 0,-1 1,-2 1,-3 160,15 258,36 258,58 0,45 -377,81 -842,81z"/>
   <path class="fil86" d="M11728 8753c-149,-15 -355,-23 -583,-23 -222,0 -423,8 -570,22 -1,-1 -1,-2 -2,-3 150,-13 351,-21 572,-21 227,0 433,8 584,22 0,1 -1,2 -1,3z"/>
   <path class="fil19" d="M11145 8888c-454,0 -823,-36 -823,-80 0,-22 97,-42 253,-56 0,0 1,1 1,2 -144,14 -233,33 -233,54 0,43 359,77 802,77 443,0 802,-34 802,-77 0,-20 -84,-39 -221,-53 1,0 1,-1 2,-2 148,14 239,34 239,55 0,44 -368,80 -822,80z"/>
   <path class="fil86" d="M11726 8755c-146,-14 -352,-24 -581,-24 -222,0 -424,9 -569,23 0,-1 -1,-2 -1,-2 147,-14 348,-22 570,-22 228,0 434,8 583,23 -1,1 -1,2 -2,2z"/>
   <path class="fil20" d="M11145 8885c-443,0 -802,-34 -802,-77 0,-21 89,-40 233,-54 1,1 1,2 2,3 -133,13 -215,31 -215,51 0,42 350,76 782,76 432,0 782,-34 782,-76 0,-19 -77,-37 -202,-50 0,-1 1,-2 1,-3 137,14 221,33 221,53 0,43 -359,77 -802,77z"/>
   <path class="fil86" d="M11725 8758c-143,-15 -350,-25 -580,-25 -223,0 -425,9 -567,24 -1,-1 -1,-2 -2,-3 145,-14 346,-23 569,-23 229,0 435,10 581,24 0,1 -1,2 -1,3z"/>
   <path class="fil21" d="M11145 8884c-432,0 -782,-34 -782,-76 0,-20 82,-38 215,-51 0,1 1,2 2,2 -123,13 -197,31 -197,49 0,41 341,73 762,73 420,0 761,-32 761,-73 0,-18 -69,-34 -183,-47 0,-1 1,-2 2,-3 125,13 202,31 202,50 0,42 -350,76 -782,76z"/>
   <path class="fil86" d="M11723 8761c-140,-16 -347,-26 -578,-26 -224,0 -426,10 -565,24 -1,0 -2,-1 -2,-2 142,-15 344,-24 567,-24 230,0 437,10 580,25 -1,1 -2,2 -2,3z"/>
   <path class="fil22" d="M11145 8881c-421,0 -762,-32 -762,-73 0,-18 74,-36 197,-49 0,1 1,2 2,3 -112,13 -179,29 -179,46 0,40 332,72 742,72 409,0 741,-32 741,-72 0,-17 -62,-32 -165,-44 0,-1 1,-2 2,-3 114,13 183,29 183,47 0,41 -341,73 -761,73z"/>
   <path class="fil86" d="M11721 8764c-136,-16 -344,-27 -576,-27 -226,0 -427,10 -563,25 -1,-1 -2,-2 -2,-3 139,-14 341,-24 565,-24 231,0 438,10 578,26 -1,1 -2,2 -2,3z"/>
   <path class="fil23" d="M11145 8880c-410,0 -742,-32 -742,-72 0,-17 67,-33 179,-46 0,1 1,2 2,3 -100,12 -160,27 -160,43 0,39 323,70 721,70 398,0 721,-31 721,-70 0,-15 -55,-30 -148,-41 1,-1 2,-2 3,-3 103,12 165,27 165,44 0,40 -332,72 -741,72z"/>
   <path class="fil86" d="M11718 8767c-131,-17 -339,-28 -573,-28 -227,0 -429,10 -561,26 -1,-1 -2,-2 -2,-3 136,-15 337,-25 563,-25 232,0 440,11 576,27 -1,1 -2,2 -3,3z"/>
   <path class="fil24" d="M11145 8878c-398,0 -721,-31 -721,-70 0,-16 60,-31 160,-43 0,1 1,2 2,3 -89,11 -143,25 -143,40 1,38 314,68 702,68 387,0 701,-30 701,-68 0,-14 -48,-28 -130,-39 1,-1 2,-1 2,-2 93,11 148,26 148,41 0,39 -323,70 -721,70z"/>
   <path class="fil86" d="M11716 8769c-127,-17 -336,-28 -571,-28 -228,0 -431,11 -559,27 -1,-1 -2,-2 -2,-3 132,-16 334,-26 561,-26 234,0 442,11 573,28 0,1 -1,1 -2,2z"/>
   <path class="fil25" d="M11145 8876c-388,0 -702,-30 -702,-68 1,-15 54,-29 143,-40 1,1 2,2 3,3 -79,10 -125,23 -125,37 0,37 305,66 681,66 376,0 680,-29 680,-66 0,-13 -41,-25 -112,-35 1,-1 2,-2 3,-4 82,11 130,25 130,39 0,38 -314,68 -701,68z"/>
   <path class="fil86" d="M11713 8773c-122,-18 -331,-30 -568,-30 -230,0 -433,11 -556,28 -1,-1 -2,-2 -3,-3 128,-16 331,-27 559,-27 235,0 444,11 571,28 -1,2 -2,3 -3,4z"/>
   <path class="fil26" d="M11145 8874c-376,0 -681,-29 -681,-66 0,-14 46,-27 125,-37 0,1 1,2 2,3 -68,10 -107,22 -107,34 0,35 296,64 661,64 365,0 660,-29 660,-64 0,-12 -35,-23 -95,-32 1,-1 2,-2 3,-3 71,10 112,22 112,35 0,37 -304,66 -680,66z"/>
   <path class="fil86" d="M11710 8776c-116,-19 -325,-31 -565,-31 -232,0 -436,12 -554,29 -1,-1 -2,-2 -2,-3 123,-17 326,-28 556,-28 237,0 446,12 568,30 -1,1 -2,2 -3,3z"/>
   <path class="fil27" d="M11145 8872c-365,0 -661,-29 -661,-64 0,-12 39,-24 107,-34 1,1 2,2 3,3 -57,9 -90,20 -90,31 0,34 287,62 641,62 353,0 640,-28 640,-62 0,-10 -28,-20 -78,-29 1,-1 2,-2 3,-3 60,9 95,20 95,32 0,35 -295,64 -660,64z"/>
   <path class="fil86" d="M11707 8779c-109,-19 -320,-32 -562,-32 -234,0 -439,12 -551,30 -1,-1 -2,-2 -3,-3 118,-17 322,-29 554,-29 240,0 449,12 565,31 -1,1 -2,2 -3,3z"/>
   <path class="fil28" d="M11145 8870c-354,0 -641,-28 -641,-62 0,-11 33,-22 90,-31 2,1 3,2 4,3 -47,9 -73,18 -73,28 0,33 277,60 620,60 342,0 620,-27 620,-60 0,-9 -23,-18 -62,-25 1,-2 2,-3 4,-4 50,9 78,19 78,29 0,34 -287,62 -640,62z"/>
   <path class="fil86" d="M11703 8783c-101,-20 -313,-34 -558,-34 -237,0 -442,13 -547,31 -1,-1 -2,-2 -4,-3 112,-18 317,-30 551,-30 242,0 453,13 562,32 -2,1 -3,2 -4,4z"/>
   <path class="fil29" d="M11145 8868c-343,0 -620,-27 -620,-60 0,-10 26,-19 73,-28 1,2 3,3 4,4 -37,7 -57,16 -57,24 0,32 268,58 600,58 331,0 599,-26 599,-58 0,-8 -16,-15 -46,-22 2,-1 3,-2 5,-3 39,7 62,16 62,25 0,33 -278,60 -620,60z"/>
   <path class="fil86" d="M11698 8786c-91,-21 -304,-35 -553,-35 -240,0 -447,13 -543,33 -1,-1 -3,-2 -4,-4 105,-18 310,-31 547,-31 245,0 457,14 558,34 -2,1 -3,2 -5,3z"/>
   <path class="fil30" d="M11145 8866c-332,0 -600,-26 -600,-58 0,-8 20,-17 57,-24 2,1 3,2 5,4 -27,6 -42,13 -42,20 0,31 260,56 580,56 320,0 579,-25 579,-56 0,-6 -11,-12 -32,-18 2,-1 4,-3 6,-4 30,7 46,14 46,22 0,32 -268,58 -599,58z"/>
   <path class="fil86" d="M11692 8790c-78,-22 -294,-37 -547,-37 -244,0 -452,14 -538,35 -2,-2 -3,-3 -5,-4 96,-20 303,-33 543,-33 249,0 462,14 553,35 -2,1 -4,3 -6,4z"/>
   <path class="fil31" d="M11145 8864c-320,0 -580,-25 -580,-56 0,-7 15,-14 42,-20 2,1 4,2 6,4 -18,5 -28,10 -28,16 0,30 251,54 560,54 309,0 559,-24 559,-54 0,-4 -6,-9 -19,-14 3,-1 5,-2 7,-4 21,6 32,12 32,18 0,31 -259,56 -579,56z"/>
   <path class="fil86" d="M11685 8794c-63,-22 -281,-39 -540,-39 -248,0 -459,15 -532,37 -2,-2 -4,-3 -6,-4 86,-21 294,-35 538,-35 253,0 469,15 547,37 -2,2 -4,3 -7,4z"/>
   <path class="fil32" d="M11145 8862c-309,0 -560,-24 -560,-54 0,-6 10,-11 28,-16 3,1 5,3 8,4 -10,4 -15,8 -15,12 0,29 241,52 539,52 297,0 539,-23 539,-52 0,-3 -3,-6 -8,-9 3,-1 6,-3 9,-5 13,5 19,10 19,14 0,30 -250,54 -559,54z"/>
   <path class="fil86" d="M11676 8799c-45,-24 -266,-42 -531,-42 -254,0 -467,16 -524,39 -3,-1 -5,-3 -8,-4 73,-22 284,-37 532,-37 259,0 477,17 540,39 -3,2 -6,4 -9,5z"/>
   <path class="fil33" d="M11145 8860c-298,0 -539,-23 -539,-52 0,-4 5,-8 15,-12 3,2 7,4 10,5 -3,2 -5,5 -5,7 0,28 232,50 519,50 286,0 519,-22 519,-50 0,-1 -1,-2 -2,-3 5,-2 9,-4 14,-6 5,3 8,6 8,9 0,29 -242,52 -539,52z"/>
   <path class="fil86" d="M11662 8805c-20,-26 -244,-46 -517,-46 -261,0 -477,18 -514,42 -3,-1 -7,-3 -10,-5 57,-23 270,-39 524,-39 265,0 486,18 531,42 -5,2 -9,4 -14,6z"/>
   <path class="fil34" d="M11145 8858c-287,0 -519,-22 -519,-50 0,-2 2,-5 5,-7 5,2 10,4 16,5 -1,1 -1,2 -1,2 0,27 223,48 499,48 274,0 497,-21 498,-47 7,-1 13,-3 19,-4 1,1 2,2 2,3 0,28 -233,50 -519,50z"/>
   <path class="fil86" d="M11643 8809c0,0 1,-1 1,-1 0,-26 -224,-47 -499,-47 -268,0 -486,20 -498,45 -6,-1 -11,-3 -16,-5 37,-24 253,-42 514,-42 273,0 497,20 517,46 -6,1 -12,3 -19,4z"/>
   <path class="fil35" d="M11145 8856c-276,0 -499,-21 -499,-48 0,0 0,-1 1,-2 6,2 13,3 19,3 6,25 218,45 479,45 259,0 470,-20 478,-44l4 0c6,0 11,-1 16,-1 -1,26 -224,47 -498,47z"/>
   <path class="fil86" d="M11627 8810l-4 0c0,-1 0,-1 0,-2 0,-25 -214,-46 -478,-46 -265,0 -479,21 -479,46 0,1 0,1 0,1 -6,0 -13,-1 -19,-3 12,-25 230,-45 498,-45 275,0 499,21 499,47 0,0 -1,1 -1,1 -5,0 -10,1 -16,1z"/>
   <path class="fil36" d="M11145 8854c-261,0 -473,-20 -479,-45 4,1 7,1 10,1l11 0c8,23 210,42 458,42 248,0 450,-19 458,-42l20 0c-8,24 -219,44 -478,44z"/>
   <path class="fil86" d="M11623 8810l-20 0c0,-1 0,-1 0,-2 0,-24 -205,-43 -458,-43 -253,0 -458,19 -458,43 0,1 0,1 0,2l-11 0c-3,0 -7,0 -10,-1 0,0 0,0 0,-1 0,-25 214,-46 479,-46 264,0 478,21 478,46 0,1 0,1 0,2z"/>
   <path class="fil37" d="M11145 8852c-248,0 -450,-19 -458,-42l20 0c8,23 201,41 438,41 237,0 430,-18 437,-41l21 0c-8,23 -210,42 -458,42z"/>
   <path class="fil86" d="M11603 8810l-21 0c1,-1 1,-1 1,-2 0,-23 -196,-42 -438,-42 -242,0 -438,19 -438,42 0,1 0,1 0,2l-20 0c0,-1 0,-1 0,-2 0,-24 205,-43 458,-43 253,0 458,19 458,43 0,1 0,1 0,2z"/>
   <path class="fil38" d="M11145 8851c-237,0 -430,-18 -438,-41l20 0c8,22 192,38 418,38 226,0 409,-16 417,-38l20 0c-7,23 -200,41 -437,41z"/>
   <path class="fil86" d="M11582 8810l-20 0c0,-1 0,-1 0,-2 0,-22 -186,-39 -417,-39 -231,0 -418,17 -418,39 0,1 0,1 0,2l-20 0c0,-1 0,-1 0,-2 0,-23 196,-42 438,-42 242,0 438,19 438,42 0,1 0,1 -1,2z"/>
   <path class="fil39" d="M11145 8848c-226,0 -410,-16 -418,-38l21 0c7,20 182,37 397,37 214,0 389,-17 397,-37l20 0c-8,22 -191,38 -417,38z"/>
   <path class="fil86" d="M11562 8810l-20 0c0,-1 0,-1 0,-2 0,-21 -178,-38 -397,-38 -220,0 -398,17 -398,38 0,1 0,1 1,2l-21 0c0,-1 0,-1 0,-2 0,-22 187,-39 418,-39 231,0 417,17 417,39 0,1 0,1 0,2z"/>
   <path class="fil40" d="M11145 8847c-215,0 -390,-17 -397,-37l20 0c8,19 173,35 377,35 203,0 369,-16 377,-35l20 0c-8,20 -183,37 -397,37z"/>
   <path class="fil86" d="M11542 8810l-20 0c0,-1 0,-1 0,-2 0,-20 -169,-36 -377,-36 -209,0 -377,16 -377,36 0,1 0,1 0,2l-20 0c-1,-1 -1,-1 -1,-2 0,-21 178,-38 398,-38 219,0 397,17 397,38 0,1 0,1 0,2z"/>
   <path class="fil41" d="M11145 8845c-204,0 -369,-16 -377,-35l20 0c8,18 165,33 357,33 192,0 349,-15 356,-33l21 0c-8,19 -174,35 -377,35z"/>
   <path class="fil42" d="M11145 8843c-192,0 -349,-15 -357,-33l20 0c8,17 155,31 337,31 181,0 328,-14 336,-31l20 0c-7,18 -164,33 -356,33z"/>
   <path class="fil86" d="M11501 8810l-20 0c0,-1 0,-1 0,-2 0,-17 -150,-32 -336,-32 -186,0 -337,15 -337,32 0,1 0,1 0,2l-20 0c0,-1 0,-1 0,-2 0,-18 160,-34 357,-34 197,0 357,16 357,34 0,1 0,1 -1,2z"/>
   <path class="fil43" d="M11145 8841c-182,0 -329,-14 -337,-31l20 0c8,16 147,29 317,29 169,0 308,-13 316,-29l20 0c-8,17 -155,31 -336,31z"/>
   <path class="fil86" d="M11481 8810l-20 0c0,-1 0,-1 0,-2 0,-16 -142,-30 -316,-30 -175,0 -317,14 -317,30 0,1 0,1 0,2l-20 0c0,-1 0,-1 0,-2 0,-17 151,-32 337,-32 186,0 336,15 336,32 0,1 0,1 0,2z"/>
   <g>
    <path class="fil9" d="M11040 7689c0,0 0,-1 0,-1 1,1 1,2 1,2 0,0 0,0 -1,-1zm520 427c-7,-34 -270,-176 -270,-181 0,-5 -15,-9 -16,-16 -17,-57 12,-137 12,-137 0,0 0,1 7,0 8,-1 27,-74 26,-90 -1,-12 -12,-14 -15,-14 1,-12 7,-75 7,-82 0,-9 0,-17 0,-17 0,0 -5,-11 -6,-17 0,-5 -1,-43 -7,-56 -5,-13 -32,-23 -32,-23l0 0c-8,-9 -16,-16 -27,-21 0,0 0,0 0,0 -11,-12 -31,-12 -39,-15 -7,-3 -3,-8 -3,-8 0,0 -4,1 -10,2 -5,1 -5,-7 -5,-7 -27,4 -49,11 -65,17 0,0 0,0 0,0 -3,1 -31,10 -31,10 0,0 -9,0 -13,0 -4,1 -14,7 -18,17 -4,10 -17,9 -24,21 -4,7 0,17 3,25 -1,12 3,29 -1,34 -6,6 -13,13 -13,13l1 8c0,0 -2,10 0,13 3,3 4,8 1,24 -3,12 8,54 13,71 -3,0 -7,0 -12,2 -16,4 14,58 19,93 3,25 22,11 22,11 0,0 23,96 -6,131 -1,1 -5,0 -5,0 0,0 -218,138 -272,171 -53,32 -45,166 -45,166l832 0c0,0 -2,-111 -8,-145z"/>
    <path class="fil10" d="M11124 8265l-63 -338 1 -8 115 64 99 -60 15 9 -57 329 -110 4z"/>
    <path class="fil9" d="M11177 7983l-37 61 18 20 -20 197 89 0 -28 -197 16 -18 -38 -63z"/>
    <path class="fil11 str0" d="M10831 7317l43 -43c1,-1 2,-1 4,-1 1,0 2,0 3,1 2,1 2,3 2,4 0,1 0,2 -1,3l-31 31 32 56 0 3c0,2 0,3 -1,4 -1,1 -3,1 -4,1 -2,0 -3,-1 -5,-2l-30 -54 -12 12 0 39c0,2 -1,3 -2,4 -1,1 -2,1 -4,1 -1,0 -2,0 -3,-1 -1,-1 -2,-2 -2,-4l0 -93c0,-2 1,-3 2,-4 1,-1 2,-1 3,-1 2,0 3,0 4,1 1,1 2,2 2,4l0 39zm90 33l-7 23c-1,1 -1,2 -2,2 -1,1 -2,1 -3,1 -1,0 -2,0 -3,-1 -2,-1 -2,-2 -2,-4l0 -2 31 -93c1,-3 3,-4 5,-4 2,0 4,1 5,4l31 93 0 2c0,2 0,3 -1,4 -1,1 -3,1 -4,1 -1,0 -1,0 -2,0 -1,-1 -2,-2 -3,-3l-7 -23 -38 0zm34 -10l-15 -46 -15 46 30 0zm93 -26l0 -36c0,-2 1,-3 2,-4 1,-1 2,-1 3,-1 2,0 3,0 4,1 1,1 1,2 1,4l0 93c0,1 0,3 -1,4 -1,1 -3,1 -4,1 -1,0 -2,0 -3,-1 -1,-1 -2,-2 -2,-4l0 -47 -41 0 0 47c0,2 -1,3 -2,4 -1,1 -2,1 -4,1 -1,0 -2,0 -3,-1 -1,-1 -2,-2 -2,-4l0 -93c0,-1 1,-3 2,-4 1,-1 2,-1 3,-1 2,0 3,0 4,1 1,1 2,2 2,4l0 36 41 0zm42 52l10 -89c0,-3 2,-4 5,-4l31 0c4,0 5,1 5,5l0 88 5 0c4,0 6,2 6,5l0 10c0,2 -1,3 -2,4 -1,1 -2,2 -3,2 -2,0 -3,-1 -4,-2 -1,-1 -2,-2 -2,-4l0 -5 -52 0 0 5c0,2 0,3 -1,4 -1,1 -2,2 -4,2 -1,0 -2,-1 -3,-2 -1,-1 -2,-2 -2,-4l0 -10c0,-3 2,-5 5,-5l6 0zm41 0l0 -83 -21 0 -10 83 31 0zm103 5c0,2 0,3 -1,4 -1,1 -2,1 -4,1 -1,0 -2,0 -3,-1 -1,-1 -2,-2 -2,-4l0 -73 -42 76c-1,1 -1,1 -2,2l-1 1c-1,0 -1,0 -2,0 -1,0 -2,0 -3,-1 -1,-1 -2,-3 -2,-5l0 -93c0,-1 1,-3 2,-4 1,-1 2,-1 3,-1 2,0 3,0 4,1 1,1 2,2 2,4l0 73 42 -76c0,0 1,-1 2,-2 1,-1 2,-1 3,-1 1,0 2,0 3,2 1,1 1,2 1,4l0 93zm32 -5l10 -89c0,-3 2,-4 5,-4l31 0c4,0 5,1 5,5l0 88 5 0c4,0 6,2 6,5l0 10c0,2 -1,3 -2,4 -1,1 -2,2 -3,2 -2,0 -3,-1 -4,-2 -1,-1 -2,-2 -2,-4l0 -5 -52 0 0 5c0,2 0,3 -1,4 -1,1 -2,2 -4,2 -1,0 -2,-1 -3,-2 -1,-1 -2,-2 -2,-4l0 -10c0,-3 2,-5 5,-5l6 0zm41 0l0 -83 -21 0 -10 83 31 0zm59 -16l-7 23c0,1 -1,2 -2,2 -1,1 -2,1 -3,1 -1,0 -2,0 -3,-1 -1,-1 -2,-2 -2,-4l0 -2 31 -93c1,-3 3,-4 5,-4 3,0 4,1 5,4l31 93 1 2c0,2 -1,3 -2,4 -1,1 -2,1 -4,1 0,0 -1,0 -2,0 -1,-1 -2,-2 -2,-3l-8 -23 -38 0zm35 -10l-16 -46 -15 46 31 0zm46 -57l-21 0c-2,0 -3,0 -4,-1 -1,-2 -1,-3 -1,-4 0,-1 0,-2 1,-4 1,-1 2,-1 4,-1l52 0c1,0 2,0 3,1 1,1 2,3 2,4 0,1 -1,2 -1,3 -1,1 -3,2 -4,2l-21 0 0 88c0,2 -1,3 -1,4 -1,1 -3,1 -4,1 -2,0 -3,0 -4,-1 -1,-1 -1,-2 -1,-4l0 -88z"/>
   </g>
   <g>
    <path class="fil9" d="M9227 4718c1,0 1,-1 1,-2 1,3 2,5 2,5 0,0 -1,-1 -3,-3zm1054 866c-14,-69 -548,-357 -548,-367 0,-9 -28,-19 -32,-32 -33,-115 25,-277 25,-277 0,0 0,1 15,0 15,-2 54,-152 52,-182 -1,-26 -24,-29 -30,-29 2,-26 13,-153 13,-168 0,-17 0,-33 0,-33 0,0 -9,-23 -10,-34 -1,-11 -4,-88 -14,-115 -11,-27 -66,-47 -66,-47l0 0c-16,-16 -33,-31 -54,-42 0,0 0,0 0,0 -24,-23 -65,-24 -79,-29 -15,-6 -6,-18 -6,-18 0,0 -10,3 -21,5 -11,2 -11,-14 -11,-14 -54,9 -98,22 -130,34 0,0 0,0 0,0 -7,2 -65,21 -65,21 0,0 -18,-1 -26,0 -8,1 -29,14 -37,35 -8,20 -33,18 -47,42 -9,14 -1,34 6,50 -1,25 6,60 -3,69 -12,12 -26,27 -26,27l3 17c0,0 -6,20 0,25 5,5 8,17 1,49 -6,25 17,109 26,143 -5,0 -13,0 -24,4 -32,10 29,119 38,188 8,52 46,24 46,24 0,0 46,195 -12,264 -2,3 -11,0 -11,0 0,0 -441,281 -550,347 -109,66 -92,338 -92,338l1685 0c0,0 -3,-227 -16,-295z"/>
    <path class="fil10" d="M9398 5885l-127 -684 1 -16 234 129 200 -121 30 17 -114 669 -224 6z"/>
    <path class="fil9" d="M9506 5314l-75 124 35 41 -40 400 181 0 -58 -400 34 -38 -77 -127z"/>
    <path class="fil11 str0" d="M8804 3965l88 -87c2,-2 5,-3 7,-3 3,0 5,1 7,3 3,2 4,5 4,8 0,1 -1,4 -3,7l-63 62 65 114 1 6c0,2 -1,5 -3,7 -2,2 -5,3 -8,3 -3,0 -6,-2 -9,-6l-61 -109 -25 24 0 80c0,4 -1,6 -3,8 -2,2 -5,3 -8,3 -3,0 -5,-1 -7,-3 -2,-2 -3,-4 -3,-8l0 -189c0,-3 1,-5 3,-7 2,-2 4,-3 7,-3 3,0 5,1 7,2 3,2 4,5 4,8l0 80zm183 67l-15 46c-1,2 -2,4 -4,5 -1,1 -3,2 -5,2 -3,0 -6,-1 -8,-3 -2,-2 -3,-4 -3,-7l1 -4 63 -189c2,-6 5,-9 10,-9 4,0 7,3 9,9l63 189 1 4c0,2 -1,5 -3,7 -3,2 -5,3 -8,3 -1,0 -3,-1 -5,-1 -1,-1 -3,-3 -4,-6l-16 -46 -76 0zm69 -21l-30 -93 -31 93 61 0zm188 -52l0 -74c0,-2 1,-5 3,-7 3,-2 5,-3 8,-3 2,0 5,1 7,3 2,1 3,4 3,7l0 189c0,3 -1,6 -3,8 -3,2 -5,3 -7,3 -3,0 -5,-1 -8,-3 -2,-1 -3,-4 -3,-8l0 -94 -84 0 0 94c0,4 -1,6 -3,8 -2,2 -4,3 -7,3 -3,0 -5,-1 -8,-3 -2,-2 -3,-4 -3,-8l0 -188c0,-3 1,-6 3,-8 3,-2 5,-3 8,-3 2,0 5,1 7,3 2,1 3,4 3,8l0 73 84 0zm85 105l20 -180c0,-6 4,-9 11,-9l63 0c7,0 10,3 10,10l0 179 11 0c7,0 10,3 10,10l0 21c0,3 -1,6 -3,8 -2,2 -5,3 -7,3 -3,0 -5,-1 -7,-3 -3,-2 -4,-4 -4,-8l0 -10 -105 0 0 10c0,3 -1,6 -3,8 -2,2 -5,3 -7,3 -3,0 -5,-1 -7,-3 -3,-2 -4,-4 -4,-8l0 -21c0,-7 4,-10 11,-10l11 0zm83 0l0 -168 -43 0 -19 168 62 0zm210 10c0,4 -1,6 -3,8 -2,2 -5,3 -8,3 -2,0 -5,-1 -7,-3 -2,-2 -3,-4 -3,-8l0 -148 -85 153c-1,3 -3,4 -5,6l-2 1c-1,0 -2,0 -3,1 -2,0 -5,-1 -7,-4 -2,-2 -3,-5 -3,-9l0 -188c0,-3 1,-6 3,-8 2,-2 5,-3 7,-3 3,0 6,1 8,3 2,1 3,4 3,8l0 148 85 -154c1,-1 3,-3 5,-5 1,-1 3,-2 5,-2 3,0 5,1 7,4 2,2 3,5 3,8l0 189zm64 -10l20 -180c0,-6 3,-9 10,-9l63 0c7,0 11,3 11,10l0 179 10 0c7,0 11,3 11,10l0 21c0,3 -1,6 -3,8 -2,2 -5,3 -8,3 -2,0 -4,-1 -7,-3 -2,-2 -3,-4 -3,-8l0 -10 -105 0 0 10c0,3 -1,6 -4,8 -2,2 -4,3 -7,3 -2,0 -4,-1 -7,-3 -2,-2 -3,-4 -3,-8l0 -21c0,-7 3,-10 10,-10l12 0zm83 0l0 -168 -43 0 -19 168 62 0zm120 -32l-15 46c-1,2 -2,4 -4,5 -1,1 -3,2 -5,2 -3,0 -6,-1 -8,-3 -2,-2 -3,-4 -3,-7l1 -4 63 -189c2,-6 5,-9 10,-9 4,0 7,3 10,9l62 189 1 4c0,2 -1,5 -3,7 -3,2 -5,3 -8,3 -1,0 -3,-1 -4,-1 -2,-1 -4,-3 -5,-6l-15 -46 -77 0zm70 -21l-31 -93 -31 93 62 0zm93 -115l-42 0c-3,0 -6,-1 -8,-3 -2,-2 -3,-5 -3,-8 0,-2 1,-4 3,-7 2,-2 4,-3 8,-3l105 0c3,0 5,1 7,3 2,2 3,5 3,7 0,3 -1,5 -2,7 -2,3 -5,4 -8,4l-42 0 0 178c0,4 -1,6 -3,8 -2,2 -5,3 -8,3 -2,0 -5,-1 -7,-3 -2,-2 -3,-4 -3,-8l0 -178z"/>
   </g>
   <g>
    <path class="fil9" d="M12127 6610c0,-1 1,-1 1,-2 0,3 1,4 1,4 0,0 -1,-1 -2,-2zm679 558c-8,-45 -353,-230 -353,-237 0,-6 -18,-12 -20,-20 -22,-75 16,-179 16,-179 0,0 -1,1 9,0 10,-2 35,-98 34,-117 -1,-17 -16,-19 -20,-19 2,-17 9,-98 9,-108 0,-11 0,-22 0,-22 0,0 -6,-15 -7,-21 0,-7 -2,-57 -9,-75 -7,-17 -42,-30 -42,-30l0 0c-10,-10 -22,-20 -35,-27 0,0 0,0 0,0 -15,-15 -42,-15 -51,-19 -10,-4 -4,-11 -4,-11 0,0 -6,2 -13,3 -7,1 -7,-9 -7,-9 -35,6 -63,14 -84,22 0,0 0,0 0,0 -5,1 -42,13 -42,13 0,0 -12,0 -17,0 -5,1 -18,9 -23,23 -6,13 -22,12 -31,27 -6,9 -1,22 4,32 -1,16 4,39 -2,45 -8,8 -17,17 -17,17l2 11c0,0 -3,13 0,16 3,4 5,11 1,32 -4,16 10,70 17,92 -4,0 -9,0 -16,2 -20,7 19,77 25,122 4,33 29,15 29,15 0,0 30,126 -8,171 -1,1 -7,0 -7,0 0,0 -284,180 -354,223 -70,42 -59,218 -59,218l1086 0c0,0 -2,-146 -11,-190z"/>
    <path class="fil10" d="M12237 7362l-81 -441 0 -11 151 84 129 -79 19 12 -74 431 -144 4z"/>
    <path class="fil9" d="M12307 6994l-49 80 23 26 -26 258 117 0 -37 -258 21 -24 -49 -82z"/>
    <path class="fil11 str0" d="M11854 6125l57 -57c1,-1 3,-2 5,-2 1,0 3,1 4,2 2,2 3,3 3,5 0,1 -1,3 -2,5l-41 40 42 73 1 4c0,2 -1,3 -2,4 -2,2 -3,2 -5,2 -3,0 -4,-1 -6,-3l-40 -71 -16 16 0 52c0,2 -1,4 -2,5 -1,1 -3,1 -5,1 -1,0 -3,0 -4,-1 -2,-1 -2,-3 -2,-5l0 -122c0,-2 0,-4 2,-5 1,-1 3,-2 4,-2 2,0 4,1 5,2 1,1 2,3 2,5l0 52zm119 43l-10 29c-1,1 -2,2 -3,3 -1,1 -2,1 -3,1 -2,0 -4,0 -5,-1 -2,-2 -2,-3 -2,-5l0 -3 41 -121c1,-4 3,-6 6,-6 3,0 5,2 7,6l40 121 0 3c0,2 0,3 -2,5 -1,1 -3,1 -4,1 -1,0 -2,0 -4,0 -1,-1 -2,-2 -3,-4l-9 -29 -49 0zm44 -14l-20 -60 -20 60 40 0zm121 -34l0 -47c0,-2 1,-3 2,-5 1,-1 3,-2 5,-2 2,0 3,1 5,2 1,1 2,3 2,5l0 122c0,1 -1,3 -3,5 -1,1 -3,1 -4,1 -2,0 -3,0 -5,-1 -1,-1 -2,-3 -2,-5l0 -61 -54 0 0 61c0,2 -1,4 -2,5 -1,1 -3,1 -5,1 -2,0 -3,0 -5,-1 -1,-1 -2,-3 -2,-5l0 -122c0,-2 1,-3 2,-5 2,-1 3,-2 5,-2 2,0 3,1 5,2 1,1 2,3 2,5l0 47 54 0zm55 68l13 -116c0,-4 2,-6 6,-6l41 0c5,0 7,2 7,7l0 115 7 0c4,0 6,2 6,7l0 13c0,2 0,4 -2,5 -1,1 -3,2 -4,2 -2,0 -3,-1 -5,-2 -1,-1 -2,-3 -2,-5l0 -7 -68 0 0 7c0,2 -1,4 -2,5 -1,1 -3,2 -5,2 -1,0 -3,-1 -4,-2 -2,-1 -2,-3 -2,-5l0 -13c0,-5 2,-7 6,-7l8 0zm53 0l0 -108 -27 0 -13 108 40 0zm135 7c0,2 0,4 -1,5 -2,1 -3,1 -5,1 -2,0 -4,0 -5,-1 -1,-1 -2,-3 -2,-5l0 -96 -55 99c-1,1 -2,2 -3,3l-1 1c-1,0 -2,0 -2,1 -2,0 -3,-1 -5,-2 -1,-2 -2,-4 -2,-6l0 -122c0,-2 1,-3 2,-5 2,-1 3,-2 5,-2 2,0 3,1 5,2 1,1 2,3 2,5l0 96 55 -99c0,-1 1,-2 3,-4 1,0 2,-1 3,-1 2,0 3,1 4,2 2,2 2,4 2,6l0 122zm42 -7l13 -116c0,-4 2,-6 6,-6l41 0c4,0 7,2 7,7l0 115 6 0c5,0 7,2 7,7l0 13c0,2 0,4 -2,5 -1,1 -3,2 -4,2 -2,0 -3,-1 -5,-2 -1,-1 -2,-3 -2,-5l0 -7 -68 0 0 7c0,2 -1,4 -2,5 -1,1 -3,2 -5,2 -1,0 -3,-1 -4,-2 -2,-1 -2,-3 -2,-5l0 -13c0,-5 2,-7 6,-7l8 0zm53 0l0 -108 -28 0 -12 108 40 0zm78 -20l-10 29c0,1 -1,2 -2,3 -1,1 -2,1 -4,1 -2,0 -3,0 -5,-1 -1,-2 -2,-3 -2,-5l1 -3 40 -121c2,-4 4,-6 7,-6 2,0 5,2 6,6l40 121 1 3c0,2 -1,3 -2,5 -2,1 -3,1 -5,1 -1,0 -2,0 -3,0 -1,-1 -2,-2 -3,-4l-10 -29 -49 0zm44 -14l-19 -60 -20 60 39 0zm61 -74l-27 0c-2,0 -4,-1 -5,-2 -2,-2 -2,-3 -2,-5 0,-2 0,-3 2,-5 1,-1 2,-2 5,-2l67 0c2,0 4,1 5,2 1,2 2,3 2,5 0,1 -1,3 -2,4 -1,2 -3,3 -5,3l-27 0 0 115c0,2 -1,4 -2,5 -1,1 -3,1 -5,1 -1,0 -3,0 -4,-1 -2,-1 -2,-3 -2,-5l0 -115z"/>
   </g>
  </g>
 </g>
</svg>
