<?xml version="1.0" encoding="UTF-8"?>
<!DOCTYPE svg PUBLIC "-//W3C//DTD SVG 1.1//EN" "http://www.w3.org/Graphics/SVG/1.1/DTD/svg11.dtd">
<svg version="1.2" width="115.71mm" height="70.56mm" viewBox="0 0 11571 7056" preserveAspectRatio="xMidYMid" fill-rule="evenodd" stroke-width="28.222" stroke-linejoin="round" xmlns="http://www.w3.org/2000/svg" xmlns:ooo="http://xml.openoffice.org/svg/export" xmlns:xlink="http://www.w3.org/1999/xlink" xmlns:presentation="http://sun.com/xmlns/staroffice/presentation" xmlns:smil="http://www.w3.org/2001/SMIL20/" xmlns:anim="urn:oasis:names:tc:opendocument:xmlns:animation:1.0" xml:space="preserve">
 <defs class="ClipPathGroup">
  <clipPath id="presentation_clip_path" clipPathUnits="userSpaceOnUse">
   <rect x="0" y="0" width="11571" height="7056"/>
  </clipPath>
  <clipPath id="presentation_clip_path_shrink" clipPathUnits="userSpaceOnUse">
   <rect x="11" y="7" width="11548" height="7042"/>
  </clipPath>
 </defs>
 <defs class="TextShapeIndex">
  <g ooo:slide="id1" ooo:id-list="id3 id4 id5 id6 id7 id8 id9 id10 id11 id12 id13 id14 id15 id16 id17 id18 id19 id20 id21 id22 id23 id24 id25 id26 id27 id28 id29 id30"/>
 </defs>
 <defs class="EmbeddedBulletChars">
  <g id="bullet-char-template(57356)" transform="scale(0.00048828125,-0.00048828125)">
   <path d="M 580,1141 L 1163,571 580,0 -4,571 580,1141 Z"/>
  </g>
  <g id="bullet-char-template(57354)" transform="scale(0.00048828125,-0.00048828125)">
   <path d="M 8,1128 L 1137,1128 1137,0 8,0 8,1128 Z"/>
  </g>
  <g id="bullet-char-template(10146)" transform="scale(0.00048828125,-0.00048828125)">
   <path d="M 174,0 L 602,739 174,1481 1456,739 174,0 Z M 1358,739 L 309,1346 659,739 1358,739 Z"/>
  </g>
  <g id="bullet-char-template(10132)" transform="scale(0.00048828125,-0.00048828125)">
   <path d="M 2015,739 L 1276,0 717,0 1260,543 174,543 174,936 1260,936 717,1481 1274,1481 2015,739 Z"/>
  </g>
  <g id="bullet-char-template(10007)" transform="scale(0.00048828125,-0.00048828125)">
   <path d="M 0,-2 C -7,14 -16,27 -25,37 L 356,567 C 262,823 215,952 215,954 215,979 228,992 255,992 264,992 276,990 289,987 310,991 331,999 354,1012 L 381,999 492,748 772,1049 836,1024 860,1049 C 881,1039 901,1025 922,1006 886,937 835,863 770,784 769,783 710,716 594,584 L 774,223 C 774,196 753,168 711,139 L 727,119 C 717,90 699,76 672,76 641,76 570,178 457,381 L 164,-76 C 142,-110 111,-127 72,-127 30,-127 9,-110 8,-76 1,-67 -2,-52 -2,-32 -2,-23 -1,-13 0,-2 Z"/>
  </g>
  <g id="bullet-char-template(10004)" transform="scale(0.00048828125,-0.00048828125)">
   <path d="M 285,-33 C 182,-33 111,30 74,156 52,228 41,333 41,471 41,549 55,616 82,672 116,743 169,778 240,778 293,778 328,747 346,684 L 369,508 C 377,444 397,411 428,410 L 1163,1116 C 1174,1127 1196,1133 1229,1133 1271,1133 1292,1118 1292,1087 L 1292,965 C 1292,929 1282,901 1262,881 L 442,47 C 390,-6 338,-33 285,-33 Z"/>
  </g>
  <g id="bullet-char-template(9679)" transform="scale(0.00048828125,-0.00048828125)">
   <path d="M 813,0 C 632,0 489,54 383,161 276,268 223,411 223,592 223,773 276,916 383,1023 489,1130 632,1184 813,1184 992,1184 1136,1130 1245,1023 1353,916 1407,772 1407,592 1407,412 1353,268 1245,161 1136,54 992,0 813,0 Z"/>
  </g>
  <g id="bullet-char-template(8226)" transform="scale(0.00048828125,-0.00048828125)">
   <path d="M 346,457 C 273,457 209,483 155,535 101,586 74,649 74,723 74,796 101,859 155,911 209,963 273,989 346,989 419,989 480,963 531,910 582,859 608,796 608,723 608,648 583,586 532,535 482,483 420,457 346,457 Z"/>
  </g>
  <g id="bullet-char-template(8211)" transform="scale(0.00048828125,-0.00048828125)">
   <path d="M -4,459 L 1135,459 1135,606 -4,606 -4,459 Z"/>
  </g>
  <g id="bullet-char-template(61548)" transform="scale(0.00048828125,-0.00048828125)">
   <path d="M 173,740 C 173,903 231,1043 346,1159 462,1274 601,1332 765,1332 928,1332 1067,1274 1183,1159 1299,1043 1357,903 1357,740 1357,577 1299,437 1183,322 1067,206 928,148 765,148 601,148 462,206 346,322 231,437 173,577 173,740 Z"/>
  </g>
 </defs>
 <defs class="TextEmbeddedBitmaps"/>
 <g>
  <g id="id2" class="Master_Slide">
   <g id="bg-id2" class="Background"/>
   <g id="bo-id2" class="BackgroundObjects"/>
  </g>
 </g>
 <g class="SlideGroup">
  <g>
   <g id="container-id1">
    <g id="id1" class="Slide" clip-path="url(#presentation_clip_path)">
     <g class="Page">
      <g class="Group">
       <g class="com.sun.star.drawing.PolyPolygonShape">
        <g id="id3">
         <rect class="BoundingBox" stroke="none" fill="none" x="0" y="0" width="11573" height="7058"/>
         <g>
          <defs>
           <linearGradient id="gradient1" x1="0" y1="3528" x2="11573" y2="3528" gradientUnits="userSpaceOnUse">
            <stop offset="0" style="stop-color:rgb(255,255,255)"/>
            <stop offset="1" style="stop-color:rgb(209,226,242)"/>
           </linearGradient>
          </defs>
          <path style="fill:url(#gradient1)" d="M 0,0 L 11572,0 11572,7057 0,7057 0,0 Z"/>
         </g>
        </g>
       </g>
       <g class="Group">
        <g class="com.sun.star.drawing.ClosedBezierShape">
         <g id="id4">
          <rect class="BoundingBox" stroke="none" fill="none" x="2602" y="586" width="6369" height="3943"/>
          <path fill="rgb(255,255,255)" stroke="none" d="M 8939,2292 C 8939,3748 6266,4255 4401,3816 L 4401,4497 3579,3531 C 3010,3252 2633,2840 2633,2292 2633,59 8939,59 8939,2292 Z"/>
          <path fill="none" stroke="rgb(69,136,119)" stroke-width="62" stroke-linejoin="round" stroke-linecap="round" d="M 8939,2292 C 8939,3748 6266,4255 4401,3816 L 4401,4497 3579,3531 C 3010,3252 2633,2840 2633,2292 2633,59 8939,59 8939,2292 Z"/>
         </g>
        </g>
        <g class="com.sun.star.drawing.ClosedBezierShape">
         <g id="id5">
          <rect class="BoundingBox" stroke="none" fill="none" x="3259" y="2047" width="5062" height="620"/>
          <path fill="rgb(203,113,134)" stroke="none" d="M 3445,2062 C 3432,2062 3423,2068 3416,2076 3376,2120 3331,2164 3283,2209 3269,2223 3263,2240 3282,2260 3300,2278 3317,2271 3332,2259 3362,2234 3392,2202 3418,2172 L 3418,2573 3315,2573 C 3294,2573 3278,2584 3278,2610 3278,2637 3294,2647 3315,2647 L 3581,2647 C 3601,2647 3618,2637 3618,2610 3618,2584 3601,2573 3581,2573 L 3495,2573 3495,2101 C 3495,2080 3488,2062 3459,2062 L 3445,2062 Z M 3445,2062 L 3445,2062 Z M 3936,2494 C 3917,2505 3910,2523 3922,2545 3936,2568 3955,2567 3972,2556 L 4250,2386 C 4259,2380 4265,2374 4265,2359 4265,2345 4259,2338 4250,2333 L 3972,2162 C 3955,2151 3936,2150 3922,2173 3910,2195 3917,2213 3936,2223 L 4106,2328 C 4128,2341 4150,2352 4169,2359 4150,2365 4128,2377 4106,2390 L 3936,2494 Z M 3936,2494 L 3936,2494 Z M 4876,2312 C 4897,2312 4912,2302 4912,2277 4912,2251 4897,2242 4876,2242 L 4583,2242 C 4563,2242 4547,2251 4547,2277 4547,2302 4563,2312 4583,2312 L 4876,2312 Z M 4876,2312 L 4876,2312 Z M 4876,2476 C 4897,2476 4912,2466 4912,2441 4912,2416 4897,2406 4876,2406 L 4583,2406 C 4563,2406 4547,2416 4547,2441 4547,2466 4563,2476 4583,2476 L 4876,2476 Z M 4876,2476 L 4876,2476 Z M 5579,2472 C 5579,2404 5551,2352 5490,2333 5529,2310 5551,2274 5551,2221 L 5551,2210 C 5551,2115 5498,2062 5391,2062 L 5348,2062 C 5263,2062 5210,2099 5210,2186 5210,2208 5221,2225 5249,2225 5277,2225 5288,2208 5288,2186 5288,2151 5311,2136 5348,2136 L 5391,2136 C 5449,2136 5474,2158 5474,2210 L 5474,2221 C 5474,2273 5444,2310 5384,2310 L 5338,2310 C 5317,2310 5301,2320 5301,2346 5301,2372 5317,2382 5338,2382 L 5421,2382 C 5480,2382 5502,2420 5502,2472 L 5502,2499 C 5502,2552 5477,2582 5419,2582 L 5331,2582 C 5295,2582 5271,2567 5271,2532 5271,2511 5261,2493 5233,2493 5205,2493 5194,2511 5194,2532 5194,2619 5247,2655 5331,2655 L 5419,2655 C 5526,2655 5579,2595 5579,2499 L 5579,2472 Z M 5579,2472 L 5579,2472 Z M 6108,2179 C 6108,2158 6098,2143 6073,2143 6048,2143 6037,2158 6037,2179 L 6037,2324 5902,2324 C 5881,2324 5865,2333 5865,2359 5865,2384 5881,2394 5902,2394 L 6037,2394 6037,2540 C 6037,2560 6047,2576 6072,2576 6098,2576 6108,2560 6108,2540 L 6108,2394 6244,2394 C 6264,2394 6280,2384 6280,2359 6280,2333 6264,2324 6244,2324 L 6108,2324 6108,2179 Z M 6108,2179 L 6108,2179 Z M 6625,2071 C 6604,2071 6588,2081 6588,2108 L 6588,2329 C 6588,2356 6604,2366 6625,2366 L 6780,2366 C 6838,2366 6863,2396 6863,2448 L 6863,2499 C 6863,2552 6838,2582 6780,2582 L 6707,2582 C 6671,2582 6647,2567 6647,2532 6647,2511 6636,2493 6608,2493 6580,2493 6570,2511 6570,2532 6570,2619 6622,2655 6707,2655 L 6780,2655 C 6887,2655 6940,2595 6940,2499 L 6940,2448 C 6940,2353 6887,2292 6780,2292 L 6665,2292 6665,2144 6877,2144 C 6897,2144 6914,2134 6914,2108 6914,2081 6897,2071 6877,2071 L 6625,2071 Z M 6625,2071 L 6625,2071 Z M 7472,2179 C 7472,2158 7462,2143 7438,2143 7412,2143 7401,2158 7401,2179 L 7401,2324 7266,2324 C 7245,2324 7230,2333 7230,2359 7230,2384 7245,2394 7266,2394 L 7401,2394 7401,2540 C 7401,2560 7411,2576 7437,2576 7462,2576 7472,2560 7472,2540 L 7472,2394 7608,2394 C 7629,2394 7644,2384 7644,2359 7644,2333 7629,2324 7608,2324 L 7472,2324 7472,2179 Z M 7472,2179 L 7472,2179 Z M 8113,2066 C 7983,2144 7941,2249 7941,2378 L 7941,2499 C 7941,2595 7994,2655 8101,2655 L 8148,2655 C 8255,2655 8308,2599 8308,2503 L 8308,2462 C 8308,2369 8255,2303 8148,2303 L 8024,2303 C 8035,2236 8073,2181 8155,2131 8172,2120 8185,2099 8170,2076 8155,2054 8131,2055 8113,2066 Z M 8113,2066 L 8113,2066 Z M 8101,2582 C 8042,2582 8018,2552 8018,2499 L 8018,2377 8148,2377 C 8207,2377 8231,2410 8231,2462 L 8231,2503 C 8231,2556 8207,2582 8148,2582 L 8101,2582 Z"/>
          <path fill="none" stroke="rgb(203,113,134)" stroke-width="22" stroke-linejoin="miter" d="M 3445,2062 C 3432,2062 3423,2068 3416,2076 3376,2120 3331,2164 3283,2209 3269,2223 3263,2240 3282,2260 3300,2278 3317,2271 3332,2259 3362,2234 3392,2202 3418,2172 L 3418,2573 3315,2573 C 3294,2573 3278,2584 3278,2610 3278,2637 3294,2647 3315,2647 L 3581,2647 C 3601,2647 3618,2637 3618,2610 3618,2584 3601,2573 3581,2573 L 3495,2573 3495,2101 C 3495,2080 3488,2062 3459,2062 L 3445,2062 Z"/>
          <path fill="none" stroke="rgb(203,113,134)" stroke-width="22" stroke-linejoin="miter" d="M 3936,2494 C 3917,2505 3910,2523 3922,2545 3936,2568 3955,2567 3972,2556 L 4250,2386 C 4259,2380 4265,2374 4265,2359 4265,2345 4259,2338 4250,2333 L 3972,2162 C 3955,2151 3936,2150 3922,2173 3910,2195 3917,2213 3936,2223 L 4106,2328 C 4128,2341 4150,2352 4169,2359 4150,2365 4128,2377 4106,2390 L 3936,2494 Z"/>
          <path fill="none" stroke="rgb(203,113,134)" stroke-width="22" stroke-linejoin="miter" d="M 4876,2312 C 4897,2312 4912,2302 4912,2277 4912,2251 4897,2242 4876,2242 L 4583,2242 C 4563,2242 4547,2251 4547,2277 4547,2302 4563,2312 4583,2312 L 4876,2312 Z"/>
          <path fill="none" stroke="rgb(203,113,134)" stroke-width="22" stroke-linejoin="miter" d="M 4876,2476 C 4897,2476 4912,2466 4912,2441 4912,2416 4897,2406 4876,2406 L 4583,2406 C 4563,2406 4547,2416 4547,2441 4547,2466 4563,2476 4583,2476 L 4876,2476 Z"/>
          <path fill="none" stroke="rgb(203,113,134)" stroke-width="22" stroke-linejoin="miter" d="M 5579,2472 C 5579,2404 5551,2352 5490,2333 5529,2310 5551,2274 5551,2221 L 5551,2210 C 5551,2115 5498,2062 5391,2062 L 5348,2062 C 5263,2062 5210,2099 5210,2186 5210,2208 5221,2225 5249,2225 5277,2225 5288,2208 5288,2186 5288,2151 5311,2136 5348,2136 L 5391,2136 C 5449,2136 5474,2158 5474,2210 L 5474,2221 C 5474,2273 5444,2310 5384,2310 L 5338,2310 C 5317,2310 5301,2320 5301,2346 5301,2372 5317,2382 5338,2382 L 5421,2382 C 5480,2382 5502,2420 5502,2472 L 5502,2499 C 5502,2552 5477,2582 5419,2582 L 5331,2582 C 5295,2582 5271,2567 5271,2532 5271,2511 5261,2493 5233,2493 5205,2493 5194,2511 5194,2532 5194,2619 5247,2655 5331,2655 L 5419,2655 C 5526,2655 5579,2595 5579,2499 L 5579,2472 Z"/>
          <path fill="none" stroke="rgb(203,113,134)" stroke-width="22" stroke-linejoin="miter" d="M 6108,2179 C 6108,2158 6098,2143 6073,2143 6048,2143 6037,2158 6037,2179 L 6037,2324 5902,2324 C 5881,2324 5865,2333 5865,2359 5865,2384 5881,2394 5902,2394 L 6037,2394 6037,2540 C 6037,2560 6047,2576 6072,2576 6098,2576 6108,2560 6108,2540 L 6108,2394 6244,2394 C 6264,2394 6280,2384 6280,2359 6280,2333 6264,2324 6244,2324 L 6108,2324 6108,2179 Z"/>
          <path fill="none" stroke="rgb(203,113,134)" stroke-width="22" stroke-linejoin="miter" d="M 6625,2071 C 6604,2071 6588,2081 6588,2108 L 6588,2329 C 6588,2356 6604,2366 6625,2366 L 6780,2366 C 6838,2366 6863,2396 6863,2448 L 6863,2499 C 6863,2552 6838,2582 6780,2582 L 6707,2582 C 6671,2582 6647,2567 6647,2532 6647,2511 6636,2493 6608,2493 6580,2493 6570,2511 6570,2532 6570,2619 6622,2655 6707,2655 L 6780,2655 C 6887,2655 6940,2595 6940,2499 L 6940,2448 C 6940,2353 6887,2292 6780,2292 L 6665,2292 6665,2144 6877,2144 C 6897,2144 6914,2134 6914,2108 6914,2081 6897,2071 6877,2071 L 6625,2071 Z"/>
          <path fill="none" stroke="rgb(203,113,134)" stroke-width="22" stroke-linejoin="miter" d="M 7472,2179 C 7472,2158 7462,2143 7438,2143 7412,2143 7401,2158 7401,2179 L 7401,2324 7266,2324 C 7245,2324 7230,2333 7230,2359 7230,2384 7245,2394 7266,2394 L 7401,2394 7401,2540 C 7401,2560 7411,2576 7437,2576 7462,2576 7472,2560 7472,2540 L 7472,2394 7608,2394 C 7629,2394 7644,2384 7644,2359 7644,2333 7629,2324 7608,2324 L 7472,2324 7472,2179 Z"/>
          <path fill="none" stroke="rgb(203,113,134)" stroke-width="22" stroke-linejoin="miter" d="M 8113,2066 C 7983,2144 7941,2249 7941,2378 L 7941,2499 C 7941,2595 7994,2655 8101,2655 L 8148,2655 C 8255,2655 8308,2599 8308,2503 L 8308,2462 C 8308,2369 8255,2303 8148,2303 L 8024,2303 C 8035,2236 8073,2181 8155,2131 8172,2120 8185,2099 8170,2076 8155,2054 8131,2055 8113,2066 Z"/>
          <path fill="none" stroke="rgb(203,113,134)" stroke-width="22" stroke-linejoin="miter" d="M 8101,2582 C 8042,2582 8018,2552 8018,2499 L 8018,2377 8148,2377 C 8207,2377 8231,2410 8231,2462 L 8231,2503 C 8231,2556 8207,2582 8148,2582 L 8101,2582 Z"/>
         </g>
        </g>
        <g class="com.sun.star.drawing.ClosedBezierShape">
         <g id="id6">
          <rect class="BoundingBox" stroke="none" fill="none" x="5005" y="4620" width="2206" height="1851"/>
          <path fill="rgb(181,175,164)" stroke="none" d="M 6287,6439 L 6287,5778 6991,5778 7177,4930 C 7210,4779 6904,4552 6869,4698 L 6701,5416 6291,5416 6082,5416 5779,6142 5475,5416 5310,5416 C 5159,5416 5035,5543 5035,5699 L 5035,6439 6287,6439 Z"/>
          <path fill="none" stroke="rgb(0,65,57)" stroke-width="60" stroke-linejoin="round" stroke-linecap="round" d="M 6287,6439 L 6287,5778 6991,5778 7177,4930 C 7210,4779 6904,4552 6869,4698 L 6701,5416 6291,5416 6082,5416 5779,6142 5475,5416 5310,5416 C 5159,5416 5035,5543 5035,5699 L 5035,6439 6287,6439 Z"/>
         </g>
        </g>
        <g class="com.sun.star.drawing.PolyPolygonShape">
         <g id="id7">
          <rect class="BoundingBox" stroke="none" fill="none" x="5369" y="5387" width="821" height="845"/>
          <path fill="rgb(181,175,164)" stroke="none" d="M 5779,6200 L 5570,5987 5570,5845 5399,5717 5436,5417 5475,5417 5779,6143 6083,5417 6122,5417 6159,5717 5988,5845 5988,5987 5779,6200 Z"/>
          <path fill="none" stroke="rgb(0,65,57)" stroke-width="60" stroke-linejoin="round" stroke-linecap="round" d="M 5779,6200 L 5570,5987 5570,5845 5399,5717 5436,5417 5475,5417 5779,6143 6083,5417 6122,5417 6159,5717 5988,5845 5988,5987 5779,6200 Z"/>
         </g>
        </g>
        <g class="com.sun.star.drawing.PolyPolygonShape">
         <g id="id8">
          <rect class="BoundingBox" stroke="none" fill="none" x="5657" y="5594" width="244" height="578"/>
          <path fill="rgb(166,91,69)" stroke="none" d="M 5870,5925 L 5779,6141 5687,5921 5730,5624 5779,5624 5829,5624 5870,5925 Z"/>
          <path fill="none" stroke="rgb(0,65,57)" stroke-width="60" stroke-linejoin="round" stroke-linecap="round" d="M 5870,5925 L 5779,6141 5687,5921 5730,5624 5779,5624 5829,5624 5870,5925 Z"/>
         </g>
        </g>
        <g class="com.sun.star.drawing.PolyPolygonShape">
         <g id="id9">
          <rect class="BoundingBox" stroke="none" fill="none" x="5642" y="5453" width="276" height="215"/>
          <path fill="rgb(166,91,69)" stroke="none" d="M 5875,5495 L 5684,5495 5730,5625 5780,5625 5828,5625 5875,5495 Z"/>
          <path fill="none" stroke="rgb(0,65,57)" stroke-width="83" stroke-linejoin="round" stroke-linecap="round" d="M 5875,5495 L 5684,5495 5730,5625 5780,5625 5828,5625 5875,5495 Z"/>
         </g>
        </g>
        <g class="com.sun.star.drawing.PolyPolygonShape">
         <g id="id10">
          <rect class="BoundingBox" stroke="none" fill="none" x="5445" y="5281" width="296" height="392"/>
          <path fill="rgb(255,255,255)" stroke="none" d="M 5475,5417 L 5659,5642 5710,5569 5684,5495 5544,5311 5475,5417 Z"/>
          <path fill="none" stroke="rgb(0,65,57)" stroke-width="60" stroke-linejoin="round" stroke-linecap="round" d="M 5475,5417 L 5659,5642 5710,5569 5684,5495 5544,5311 5475,5417 Z"/>
         </g>
        </g>
        <g class="com.sun.star.drawing.LineShape">
         <g id="id11">
          <rect class="BoundingBox" stroke="none" fill="none" x="5311" y="6049" width="61" height="420"/>
          <path fill="none" stroke="rgb(0,65,57)" stroke-width="60" stroke-linejoin="round" stroke-linecap="round" d="M 5341,6079 L 5341,6438"/>
         </g>
        </g>
        <g class="com.sun.star.drawing.LineShape">
         <g id="id12">
          <rect class="BoundingBox" stroke="none" fill="none" x="5736" y="6099" width="85" height="382"/>
          <path fill="none" stroke="rgb(0,65,57)" stroke-width="83" stroke-linejoin="round" stroke-linecap="round" d="M 5778,6141 L 5778,6438"/>
         </g>
        </g>
        <g class="com.sun.star.drawing.ClosedBezierShape">
         <g id="id13">
          <rect class="BoundingBox" stroke="none" fill="none" x="5280" y="4271" width="999" height="1057"/>
          <path fill="rgb(255,202,156)" stroke="none" d="M 5778,5296 C 5883,5297 6248,5150 6248,4904 L 6248,4624 C 6186,4476 6229,4383 6152,4301 6078,4332 5998,4329 5914,4303 5831,4482 5521,4404 5405,4301 5329,4383 5372,4476 5310,4624 L 5310,4904 C 5310,5150 5674,5297 5778,5296 Z"/>
          <path fill="none" stroke="rgb(0,65,57)" stroke-width="60" stroke-linejoin="round" stroke-linecap="round" d="M 5778,5296 C 5883,5297 6248,5150 6248,4904 L 6248,4624 C 6186,4476 6229,4383 6152,4301 6078,4332 5998,4329 5914,4303 5831,4482 5521,4404 5405,4301 5329,4383 5372,4476 5310,4624 L 5310,4904 C 5310,5150 5674,5297 5778,5296 Z"/>
         </g>
        </g>
        <g class="com.sun.star.drawing.ClosedBezierShape">
         <g id="id14">
          <rect class="BoundingBox" stroke="none" fill="none" x="5590" y="5223" width="378" height="306"/>
          <path fill="rgb(255,202,156)" stroke="none" d="M 5874,5497 L 5937,5413 5937,5253 C 5871,5281 5812,5295 5779,5295 5745,5295 5685,5281 5620,5253 L 5620,5413 5683,5497 5874,5497 Z"/>
          <path fill="none" stroke="rgb(0,65,57)" stroke-width="60" stroke-linejoin="round" stroke-linecap="round" d="M 5874,5497 L 5937,5413 5937,5253 C 5871,5281 5812,5295 5779,5295 5745,5295 5685,5281 5620,5253 L 5620,5413 5683,5497 5874,5497 Z"/>
         </g>
        </g>
        <g class="com.sun.star.drawing.PolyPolygonShape">
         <g id="id15">
          <rect class="BoundingBox" stroke="none" fill="none" x="5817" y="5281" width="296" height="392"/>
          <path fill="rgb(255,255,255)" stroke="none" d="M 6082,5417 L 5898,5642 5847,5569 5873,5495 6013,5311 6082,5417 Z"/>
          <path fill="none" stroke="rgb(0,65,57)" stroke-width="60" stroke-linejoin="round" stroke-linecap="round" d="M 6082,5417 L 5898,5642 5847,5569 5873,5495 6013,5311 6082,5417 Z"/>
         </g>
        </g>
        <g class="com.sun.star.drawing.ClosedBezierShape">
         <g id="id16">
          <rect class="BoundingBox" stroke="none" fill="none" x="5202" y="3852" width="1155" height="1157"/>
          <path fill="rgb(203,108,54)" stroke="none" d="M 5779,3889 C 5751,3884 5723,3882 5695,3882 L 5695,3882 C 5440,3882 5232,4090 5232,4346 L 5232,4658 C 5250,4637 5278,4625 5309,4625 5371,4478 5328,4384 5404,4302 5518,4401 5831,4483 5913,4304 5997,4331 6077,4334 6152,4302 6228,4384 6185,4478 6247,4625 6278,4625 6306,4637 6325,4658 L 6325,4346 C 6325,4090 6116,3882 5861,3882 L 5861,3882 C 5833,3882 5805,3884 5779,3889 Z M 5779,3889 L 5779,3889 Z M 5240,4794 C 5253,4862 5281,4924 5320,4978 5313,4955 5309,4931 5309,4906 L 5309,4819 C 5282,4819 5258,4810 5240,4794 Z M 5240,4794 L 5240,4794 Z M 6247,4819 L 6247,4906 C 6247,4931 6243,4955 6236,4978 6275,4924 6303,4862 6316,4794 6298,4810 6274,4819 6247,4819 Z"/>
          <path fill="none" stroke="rgb(0,65,57)" stroke-width="60" stroke-linejoin="round" stroke-linecap="round" d="M 5779,3889 C 5751,3884 5723,3882 5695,3882 L 5695,3882 C 5440,3882 5232,4090 5232,4346 L 5232,4658 C 5250,4637 5278,4625 5309,4625 5371,4478 5328,4384 5404,4302 5518,4401 5831,4483 5913,4304 5997,4331 6077,4334 6152,4302 6228,4384 6185,4478 6247,4625 6278,4625 6306,4637 6325,4658 L 6325,4346 C 6325,4090 6116,3882 5861,3882 L 5861,3882 C 5833,3882 5805,3884 5779,3889 Z"/>
          <path fill="none" stroke="rgb(0,65,57)" stroke-width="60" stroke-linejoin="round" stroke-linecap="round" d="M 5240,4794 C 5253,4862 5281,4924 5320,4978 5313,4955 5309,4931 5309,4906 L 5309,4819 C 5282,4819 5258,4810 5240,4794 Z"/>
          <path fill="none" stroke="rgb(0,65,57)" stroke-width="60" stroke-linejoin="round" stroke-linecap="round" d="M 6247,4819 L 6247,4906 C 6247,4931 6243,4955 6236,4978 6275,4924 6303,4862 6316,4794 6298,4810 6274,4819 6247,4819 Z"/>
         </g>
        </g>
        <g class="com.sun.star.drawing.PolyPolygonShape">
         <g id="id17">
          <rect class="BoundingBox" stroke="none" fill="none" x="5514" y="5269" width="138" height="174"/>
          <path fill="rgb(255,255,255)" stroke="none" d="M 5621,5299 L 5621,5412 5544,5310 5621,5299 Z"/>
          <path fill="none" stroke="rgb(0,65,57)" stroke-width="60" stroke-linejoin="round" stroke-linecap="round" d="M 5621,5299 L 5621,5412 5544,5310 5621,5299 Z"/>
         </g>
        </g>
        <g class="com.sun.star.drawing.PolyPolygonShape">
         <g id="id18">
          <rect class="BoundingBox" stroke="none" fill="none" x="5906" y="5269" width="138" height="174"/>
          <path fill="rgb(255,255,255)" stroke="none" d="M 5936,5299 L 5936,5412 6013,5310 5936,5299 Z"/>
          <path fill="none" stroke="rgb(0,65,57)" stroke-width="60" stroke-linejoin="round" stroke-linecap="round" d="M 5936,5299 L 5936,5412 6013,5310 5936,5299 Z"/>
         </g>
        </g>
        <g class="com.sun.star.drawing.OpenBezierShape">
         <g id="id19">
          <rect class="BoundingBox" stroke="none" fill="none" x="5281" y="4014" width="350" height="332"/>
          <path fill="none" stroke="rgb(0,65,57)" stroke-width="83" stroke-linejoin="round" stroke-linecap="round" d="M 5404,4303 C 5360,4263 5331,4213 5323,4171 5458,4154 5483,4072 5588,4056"/>
         </g>
        </g>
        <g class="com.sun.star.drawing.PolyPolygonShape">
         <g id="id20">
          <rect class="BoundingBox" stroke="none" fill="none" x="5850" y="6101" width="332" height="217"/>
          <path fill="rgb(255,255,255)" stroke="none" d="M 5880,6131 L 6151,6131 6151,6287 5880,6287 5880,6131 Z"/>
          <path fill="none" stroke="rgb(0,65,57)" stroke-width="60" stroke-linejoin="round" stroke-linecap="round" d="M 5880,6131 L 6151,6131 6151,6287 5880,6287 5880,6131 Z"/>
         </g>
        </g>
        <g class="com.sun.star.drawing.ClosedBezierShape">
         <g id="id21">
          <rect class="BoundingBox" stroke="none" fill="none" x="5499" y="4636" width="560" height="127"/>
          <path fill="rgb(0,65,57)" stroke="none" d="M 5996,4666 C 5978,4666 5963,4680 5963,4698 5963,4717 5978,4732 5996,4732 6014,4732 6028,4717 6028,4698 6028,4680 6014,4666 5996,4666 Z M 5996,4666 L 5996,4666 Z M 5561,4666 C 5579,4666 5594,4680 5594,4698 5594,4717 5579,4732 5561,4732 5543,4732 5529,4717 5529,4698 5529,4680 5543,4666 5561,4666 Z"/>
          <path fill="none" stroke="rgb(0,65,57)" stroke-width="60" stroke-linejoin="round" stroke-linecap="round" d="M 5996,4666 C 5978,4666 5963,4680 5963,4698 5963,4717 5978,4732 5996,4732 6014,4732 6028,4717 6028,4698 6028,4680 6014,4666 5996,4666 Z"/>
          <path fill="none" stroke="rgb(0,65,57)" stroke-width="60" stroke-linejoin="round" stroke-linecap="round" d="M 5561,4666 C 5579,4666 5594,4680 5594,4698 5594,4717 5579,4732 5561,4732 5543,4732 5529,4717 5529,4698 5529,4680 5543,4666 5561,4666 Z"/>
         </g>
        </g>
        <g class="com.sun.star.drawing.ClosedBezierShape">
         <g id="id22">
          <rect class="BoundingBox" stroke="none" fill="none" x="5177" y="4594" width="1205" height="256"/>
          <path fill="rgb(255,255,255)" stroke="none" d="M 5207,4721 C 5207,4667 5253,4624 5309,4624 L 5309,4721 5309,4819 C 5253,4819 5207,4776 5207,4721 Z M 5207,4721 L 5207,4721 Z M 6351,4721 C 6351,4667 6305,4624 6249,4624 L 6249,4721 6249,4819 C 6305,4819 6351,4776 6351,4721 Z"/>
          <path fill="none" stroke="rgb(0,65,57)" stroke-width="60" stroke-linejoin="round" stroke-linecap="round" d="M 5207,4721 C 5207,4667 5253,4624 5309,4624 L 5309,4721 5309,4819 C 5253,4819 5207,4776 5207,4721 Z"/>
          <path fill="none" stroke="rgb(0,65,57)" stroke-width="60" stroke-linejoin="round" stroke-linecap="round" d="M 6351,4721 C 6351,4667 6305,4624 6249,4624 L 6249,4721 6249,4819 C 6305,4819 6351,4776 6351,4721 Z"/>
         </g>
        </g>
        <g class="com.sun.star.drawing.ClosedBezierShape">
         <g id="id23">
          <rect class="BoundingBox" stroke="none" fill="none" x="5643" y="5006" width="238" height="176"/>
          <path fill="rgb(0,49,94)" stroke="none" d="M 5850,5118 C 5833,5138 5803,5151 5769,5151 5715,5151 5673,5117 5673,5077 5673,5061 5678,5047 5688,5036 5728,5077 5784,5106 5850,5118 Z"/>
          <path fill="none" stroke="rgb(0,65,57)" stroke-width="60" stroke-linejoin="round" stroke-linecap="round" d="M 5850,5118 C 5833,5138 5803,5151 5769,5151 5715,5151 5673,5117 5673,5077 5673,5061 5678,5047 5688,5036 5728,5077 5784,5106 5850,5118 Z"/>
         </g>
        </g>
        <g class="com.sun.star.drawing.ClosedBezierShape">
         <g id="id24">
          <rect class="BoundingBox" stroke="none" fill="none" x="5571" y="4899" width="405" height="194"/>
          <path fill="rgb(203,108,54)" stroke="none" d="M 5601,4974 C 5717,4910 5832,4919 5945,4974 5945,4989 5945,5005 5945,5020 5945,5056 5945,5025 5945,5062 5830,5062 5715,5062 5601,5062 5601,5010 5601,5026 5601,4974 Z"/>
          <path fill="none" stroke="rgb(0,65,57)" stroke-width="60" stroke-linejoin="round" stroke-linecap="round" d="M 5601,4974 C 5717,4910 5832,4919 5945,4974 5945,4989 5945,5005 5945,5020 5945,5056 5945,5025 5945,5062 5830,5062 5715,5062 5601,5062 5601,5010 5601,5026 5601,4974 Z"/>
         </g>
        </g>
        <g class="com.sun.star.drawing.LineShape">
         <g id="id25">
          <rect class="BoundingBox" stroke="none" fill="none" x="4815" y="5620" width="254" height="711"/>
          <path fill="none" stroke="rgb(69,136,119)" stroke-width="83" stroke-linejoin="round" stroke-linecap="round" d="M 5026,6288 L 4857,5662"/>
         </g>
        </g>
        <g class="com.sun.star.drawing.LineShape">
         <g id="id26">
          <rect class="BoundingBox" stroke="none" fill="none" x="3172" y="6396" width="5228" height="85"/>
          <path fill="none" stroke="rgb(69,136,119)" stroke-width="84" stroke-linejoin="round" stroke-linecap="round" d="M 3214,6438 L 8357,6438"/>
         </g>
        </g>
        <g class="com.sun.star.drawing.ClosedBezierShape">
         <g id="id27">
          <rect class="BoundingBox" stroke="none" fill="none" x="4837" y="6141" width="532" height="330"/>
          <path fill="rgb(255,202,156)" stroke="none" d="M 4868,6439 L 5338,6439 C 5338,6416 5338,6385 5338,6363 5338,6257 5289,6198 5218,6178 5174,6167 5104,6167 5062,6191 5033,6209 5009,6240 5010,6263 4961,6203 4867,6259 4867,6359 4867,6374 4868,6414 4868,6439 Z"/>
          <path fill="none" stroke="rgb(0,65,57)" stroke-width="60" stroke-linejoin="round" stroke-linecap="round" d="M 4868,6439 L 5338,6439 C 5338,6416 5338,6385 5338,6363 5338,6257 5289,6198 5218,6178 5174,6167 5104,6167 5062,6191 5033,6209 5009,6240 5010,6263 4961,6203 4867,6259 4867,6359 4867,6374 4868,6414 4868,6439 Z"/>
         </g>
        </g>
        <g class="com.sun.star.drawing.ClosedBezierShape">
         <g id="id28">
          <rect class="BoundingBox" stroke="none" fill="none" x="6726" y="4030" width="549" height="915"/>
          <path fill="rgb(255,202,156)" stroke="none" d="M 6944,4457 L 6944,4203 C 6944,4139 6939,4060 6856,4060 6767,4060 6759,4135 6759,4204 L 6758,4710 C 6758,4842 6732,4916 6894,4913 6911,4913 6971,4913 6987,4913 7130,4913 7244,4915 7244,4714 7244,4666 7244,4601 7244,4598 7221,4467 7103,4458 6944,4457 Z"/>
          <path fill="none" stroke="rgb(0,65,57)" stroke-width="60" stroke-linejoin="round" stroke-linecap="round" d="M 6944,4457 L 6944,4203 C 6944,4139 6939,4060 6856,4060 6767,4060 6759,4135 6759,4204 L 6758,4710 C 6758,4842 6732,4916 6894,4913 6911,4913 6971,4913 6987,4913 7130,4913 7244,4915 7244,4714 7244,4666 7244,4601 7244,4598 7221,4467 7103,4458 6944,4457 Z"/>
         </g>
        </g>
        <g class="com.sun.star.drawing.OpenBezierShape">
         <g id="id29">
          <rect class="BoundingBox" stroke="none" fill="none" x="6739" y="4427" width="330" height="461"/>
          <path fill="none" stroke="rgb(0,65,57)" stroke-width="60" stroke-linejoin="round" stroke-linecap="round" d="M 6803,4857 C 6880,4842 6985,4629 7030,4561 7049,4533 7029,4476 6997,4458 L 6769,4577"/>
         </g>
        </g>
        <g class="com.sun.star.drawing.LineShape">
         <g id="id30">
          <rect class="BoundingBox" stroke="none" fill="none" x="6912" y="4702" width="361" height="61"/>
          <path fill="none" stroke="rgb(0,65,57)" stroke-width="60" stroke-linejoin="round" stroke-linecap="round" d="M 6942,4732 L 7242,4732"/>
         </g>
        </g>
       </g>
      </g>
     </g>
    </g>
   </g>
  </g>
 </g>
</svg>