<?xml version="1.0" encoding="UTF-8"?>
<!DOCTYPE svg PUBLIC "-//W3C//DTD SVG 1.0//EN" "http://www.w3.org/TR/2001/REC-SVG-20010904/DTD/svg10.dtd">
<!-- Creator: CorelDRAW X7 -->
<svg xmlns="http://www.w3.org/2000/svg" xml:space="preserve" width="115mm" height="70.122mm" version="1.0" style="shape-rendering:geometricPrecision; text-rendering:geometricPrecision; image-rendering:optimizeQuality; fill-rule:evenodd; clip-rule:evenodd"
viewBox="0 0 11500 7012"
 xmlns:xlink="http://www.w3.org/1999/xlink">
 <defs>
  <style type="text/css">
   <![CDATA[
    .str1 {stroke:#4D897C;stroke-width:35.061}
    .str2 {stroke:#F9ECE4;stroke-width:52.5915}
    .str4 {stroke:#004743;stroke-width:8.76524}
    .str0 {stroke:#4E897C;stroke-width:8.76524}
    .str3 {stroke:#034540;stroke-width:43.0724;stroke-linecap:round;stroke-linejoin:round}
    .fil20 {fill:none}
    .fil23 {fill:#FEFEFE}
    .fil5 {fill:#FCDFCA}
    .fil15 {fill:#F9D5BB}
    .fil8 {fill:#F9EFE8}
    .fil10 {fill:#F7D0B4}
    .fil24 {fill:#F7E9E2}
    .fil18 {fill:#F4CBAF}
    .fil21 {fill:#F4B704}
    .fil16 {fill:#F0AFA8}
    .fil25 {fill:#F3C9AC}
    .fil19 {fill:#F2C5A5}
    .fil29 {fill:#F3BC64}
    .fil26 {fill:#F0C09E}
    .fil22 {fill:#E6A016}
    .fil13 {fill:#C68667}
    .fil14 {fill:#B87055}
    .fil28 {fill:#AF642C}
    .fil17 {fill:#B06549}
    .fil27 {fill:#975729}
    .fil30 {fill:#7D4525}
    .fil31 {fill:#764024}
    .fil33 {fill:#6F3F26}
    .fil32 {fill:#673A25}
    .fil9 {fill:#58423E}
    .fil6 {fill:#7AB4CD}
    .fil3 {fill:#5C4745}
    .fil11 {fill:#4D897C}
    .fil7 {fill:#5FA5BC}
    .fil38 {fill:#001B37}
    .fil35 {fill:#004641}
    .fil37 {fill:#141414}
    .fil39 {fill:#2955A9}
    .fil2 {fill:#4D8A7D}
    .fil45 {fill:#5A5A5A}
    .fil49 {fill:#898989}
    .fil42 {fill:#960911}
    .fil48 {fill:#999999}
    .fil46 {fill:#AAAAAA}
    .fil34 {fill:#AFAFC7}
    .fil44 {fill:#BDBDBD}
    .fil43 {fill:#D22819}
    .fil36 {fill:#D9D9D9}
    .fil47 {fill:#E9E9E8}
    .fil50 {fill:#EE2918}
    .fil4 {fill:#F9ECE4}
    .fil40 {fill:#FAE649}
    .fil41 {fill:#FDFDFD}
    .fil12 {fill:#4D897C;fill-rule:nonzero}
    .fil1 {fill:#4D8A7D;fill-rule:nonzero}
    .fil0 {fill:url(#id0)}
   ]]>
  </style>
  <radialGradient id="id0" gradientUnits="userSpaceOnUse" gradientTransform="matrix(1.17124 -0 -0 1.92083 -985 -3229)" cx="5750" cy="3506.1" r="3506.1" fx="5750" fy="3506.1">
   <stop offset="0" style="stop-opacity:1; stop-color:#FEFEFE"/>
   <stop offset="0.439216" style="stop-opacity:1; stop-color:#FEFEFE"/>
   <stop offset="1" style="stop-opacity:1; stop-color:#D1E2F2"/>
  </radialGradient>
 </defs>
 <g id="Layer_x0020_1">
  <metadata id="CorelCorpID_0Corel-Layer"/>
  <path class="fil0" d="M0 0l11500 0 0 7012 -11500 0 0 -7012z"/>
  <g id="_804683333760">
   <g>
    <path class="fil1" d="M3617 2359c-12,0 -23,-8 -23,-18 0,-9 11,-17 23,-17l0 35zm4265 0l-4265 0 0 -35 4265 0 0 35zm0 -35c13,0 23,8 23,17 0,10 -10,18 -23,18l0 -35z"/>
   </g>
   <g id="_804522979696">
    <path class="fil2 str0" d="M2937 866l0 -91c0,-3 1,-5 3,-8 2,-1 4,-2 7,-2 3,0 5,1 7,2 2,2 3,5 3,8l0 183c0,3 -1,5 -3,7 -1,2 -4,3 -7,3 -3,0 -5,-1 -7,-3 -2,-1 -3,-4 -3,-7l0 -71 -61 0c-11,0 -20,-4 -28,-12 -8,-8 -12,-18 -12,-29l0 -71c0,-3 1,-5 3,-8 2,-1 4,-2 7,-2 2,0 5,1 7,2 2,2 3,5 3,8l0 71c0,6 2,11 6,15 2,1 4,3 6,4 3,1 6,1 8,1l61 0zm183 92c0,3 -1,5 -3,7 -2,2 -4,3 -7,3 -3,0 -5,-1 -7,-3 -2,-1 -3,-4 -3,-7l0 -173 -33 0 -49 175c0,2 -2,4 -3,6 -2,1 -4,2 -7,2 -3,0 -5,-1 -7,-3 -2,-1 -3,-4 -3,-7 0,-1 0,-2 0,-3l51 -183c2,-5 5,-7 10,-7l51 0c7,0 10,3 10,10l0 183zm60 -112l51 0c3,0 6,1 8,3 2,2 3,5 3,7 0,3 -1,5 -3,7 -2,2 -4,3 -8,3l-51 0 0 82 72 0c3,0 5,1 7,3 2,2 3,4 3,7 0,2 -1,4 -3,7 -1,2 -4,3 -7,3l-82 0c-6,0 -10,-3 -10,-10l0 -183c0,-7 4,-10 10,-10l82 0c3,0 5,1 7,3 2,2 3,4 3,7 0,2 -1,5 -3,7 -1,2 -4,3 -7,3l-72 0 0 61zm224 0l0 -71c0,-3 1,-5 3,-7 2,-2 4,-3 7,-3 2,0 5,1 7,2 2,2 3,5 3,8l0 182c0,3 -1,6 -3,8 -3,2 -5,3 -7,3 -3,0 -5,-1 -7,-3 -2,-1 -3,-4 -3,-7l0 -92 -82 0 0 92c0,3 -1,5 -2,7 -2,2 -5,3 -8,3 -2,0 -5,-1 -7,-3 -2,-1 -3,-4 -3,-7l0 -183c0,-3 1,-5 3,-7 2,-2 5,-3 7,-3 3,0 5,1 7,2 2,2 3,5 3,8l0 71 82 0zm203 112c0,3 -1,5 -3,7 -2,2 -4,3 -7,3 -3,0 -5,-1 -7,-3 -2,-1 -3,-4 -3,-7l0 -183c0,-3 1,-5 3,-8 2,-1 4,-2 7,-2 2,0 5,1 7,2 2,2 3,5 3,8l0 183zm-122 -92l0 82 41 0c5,0 10,-2 14,-6 4,-4 6,-9 6,-15l0 -40c0,-6 -2,-11 -6,-15 -4,-4 -9,-6 -14,-6l-41 0zm0 -20l40 0c11,0 21,4 29,12 8,8 12,17 12,29l0 40c0,11 -4,21 -12,29 -8,8 -17,12 -29,12l-50 0c-7,0 -10,-4 -10,-10l0 -183c0,-3 1,-5 3,-8 2,-1 4,-2 7,-2 2,0 5,1 7,2 2,2 3,5 3,8l0 71zm406 81c0,11 -4,21 -12,29 -8,8 -18,12 -29,12l-40 0c-12,0 -21,-4 -29,-12 -8,-8 -12,-17 -12,-29l0 -122c0,-11 4,-21 12,-28 8,-8 17,-12 29,-12l40 0c11,0 21,4 29,12 8,8 12,17 12,28l0 122zm-21 0l0 -122c0,-5 -1,-10 -5,-14 -4,-4 -9,-6 -15,-6l-41 0c-5,0 -10,2 -14,6 -2,2 -3,4 -4,6 -1,3 -2,5 -2,8l0 122c0,6 2,11 6,15 2,2 4,3 6,4 3,1 6,2 8,2l41 0c6,0 11,-2 15,-6 3,-4 5,-9 5,-15zm98 -75l85 -84c2,-2 5,-3 7,-3 3,0 5,1 7,3 2,2 4,4 4,7 0,2 -2,4 -4,7l-60 60 62 111 2 5c0,3 -1,5 -4,7 -2,2 -4,3 -7,3 -3,0 -6,-2 -9,-6l-59 -105 -24 23 0 78c0,3 -1,5 -3,7 -2,2 -4,3 -7,3 -3,0 -5,-1 -7,-3 -3,-1 -4,-4 -4,-7l0 -183c0,-3 2,-5 4,-7 2,-2 4,-3 7,-3 2,0 5,1 7,2 2,2 3,4 3,8l0 77zm162 14l61 0c6,0 10,-2 14,-5 4,-4 6,-9 6,-15l0 -41c0,-5 -2,-10 -5,-14 -4,-4 -9,-6 -15,-6l-61 0 0 81zm0 21l0 71c0,3 -1,5 -3,7 -2,2 -4,3 -7,3 -3,0 -5,-1 -7,-3 -2,-1 -3,-4 -3,-7l0 -183c0,-7 3,-10 10,-10l71 0c11,0 21,4 29,12 8,8 12,17 12,28l0 41c0,11 -4,21 -12,29 -8,7 -18,12 -29,12l-61 0zm244 0l-61 0c-11,0 -21,-4 -29,-12 -8,-8 -12,-18 -12,-29l0 -71c0,-3 1,-5 3,-8 2,-1 5,-2 7,-2 3,0 5,1 7,2 2,2 3,5 3,8l0 71c0,6 2,11 6,15 2,1 4,3 7,4 3,1 5,1 8,1l61 0 0 -91c0,-3 1,-5 3,-8 2,-1 4,-2 7,-2 2,0 5,1 7,2 2,2 3,5 3,8l0 152c0,11 -4,21 -12,29 -8,8 -17,12 -29,12l-50 0c-3,0 -6,-1 -8,-3 -2,-2 -3,-4 -3,-7 0,-3 1,-5 3,-7 2,-2 4,-3 8,-3l50 0c6,0 11,-2 15,-6 4,-4 6,-9 6,-15l0 -40zm152 -43l52 -75c1,-1 2,-2 4,-3 1,-1 3,-1 5,-1 2,0 5,1 7,3 2,2 3,4 3,7 0,2 -1,4 -2,6l-53 76 54 96c1,2 1,3 1,5 0,2 -1,5 -3,7 -2,2 -5,3 -8,3 -3,0 -6,-2 -8,-5l-52 -93 0 88c0,3 -1,5 -3,7 -2,2 -4,3 -7,3 -3,0 -5,-1 -7,-3 -2,-1 -3,-4 -3,-7l0 -88 -52 93c-1,1 -2,2 -4,3l-2 1 -3 1c-3,0 -5,-1 -7,-3 -2,-2 -4,-4 -4,-7 0,-1 1,-3 2,-5l54 -96 -53 -76c-1,-1 -2,-3 -3,-6 0,-3 2,-5 4,-7 2,-2 4,-3 7,-3 3,0 5,1 8,4l53 75 0 -69c0,-3 1,-5 3,-8 2,-1 4,-2 7,-2 2,0 5,1 7,2 2,2 3,5 3,8l0 69zm213 2l0 -71c0,-3 1,-5 3,-7 2,-2 4,-3 7,-3 3,0 5,1 7,2 2,2 3,5 3,8l0 182c0,3 -1,6 -3,8 -2,2 -5,3 -7,3 -3,0 -5,-1 -7,-3 -2,-1 -3,-4 -3,-7l0 -92 -81 0 0 92c0,3 -1,5 -3,7 -2,2 -5,3 -7,3 -3,0 -6,-1 -8,-3 -2,-1 -3,-4 -3,-7l0 -183c0,-3 1,-5 3,-7 2,-2 5,-3 8,-3 2,0 4,1 6,2 3,2 4,5 4,8l0 71 81 0zm182 81c0,11 -3,21 -11,29 -8,8 -18,12 -29,12l-41 0c-11,0 -20,-4 -28,-12 -8,-8 -12,-17 -12,-29l0 -122c0,-11 4,-21 12,-28 7,-8 17,-12 28,-12l41 0c11,0 21,4 29,12 8,8 11,17 11,28l0 122zm-20 0l0 -122c0,-5 -2,-10 -5,-14 -4,-4 -9,-6 -15,-6l-41 0c-5,0 -10,2 -14,6 -2,2 -4,4 -5,6 -1,3 -1,5 -1,8l0 122c0,6 2,11 6,15 2,2 4,3 6,4 3,1 6,2 8,2l41 0c6,0 10,-2 14,-6 4,-4 6,-9 6,-15zm159 -182l-41 0c-3,0 -6,-1 -8,-3 -1,-2 -2,-5 -2,-7 0,-3 1,-5 2,-7 2,-2 5,-4 8,-4l41 0c2,0 5,1 7,4 2,2 3,4 3,7 0,2 -1,4 -3,6 -2,3 -4,4 -7,4zm40 213c0,3 -1,5 -3,7 -2,2 -4,3 -7,3 -3,0 -5,-1 -7,-3 -2,-1 -3,-4 -3,-7l0 -144 -83 149c-1,2 -2,3 -4,5l-2 1c-1,0 -2,0 -3,1 -2,0 -5,-1 -7,-3 -2,-3 -3,-5 -3,-9l0 -183c0,-3 1,-5 3,-7 2,-2 5,-3 7,-3 3,0 5,1 7,2 2,2 3,5 3,8l0 144 83 -149c1,-1 2,-3 4,-5 2,-1 4,-2 6,-2 2,0 4,1 6,4 2,2 3,4 3,8l0 183zm284 0c0,3 -1,5 -3,7 -2,2 -4,3 -7,3 -3,0 -5,-1 -7,-3 -2,-1 -3,-4 -3,-7l0 -144 -82 149c-2,2 -3,3 -5,5l-2 1c-1,0 -2,0 -3,1 -2,0 -4,-1 -7,-3 -2,-3 -3,-5 -3,-9l0 -183c0,-3 1,-5 3,-7 2,-2 5,-3 7,-3 3,0 5,1 7,2 3,2 4,5 4,8l0 144 82 -149c1,-1 2,-3 4,-5 2,-1 4,-2 6,-2 2,0 4,1 6,4 2,2 3,4 3,8l0 183zm102 -92l-31 0c-3,0 -5,-1 -7,-3 -2,-2 -3,-4 -3,-7 0,-2 1,-4 3,-7 2,-2 4,-3 7,-3l31 0c5,0 10,-2 14,-6 4,-3 6,-8 6,-14l0 -21c0,-5 -2,-10 -6,-14 -3,-4 -8,-6 -14,-6l-21 0c-4,0 -8,1 -11,4 -4,2 -6,5 -8,10 0,2 -1,3 -3,5 -1,1 -2,1 -3,2l-3 0c-3,0 -5,-1 -8,-3 -2,-2 -3,-4 -3,-7l1 -3c2,-9 7,-15 14,-20 8,-6 16,-8 24,-8l21 0c11,0 21,4 28,12 8,8 12,17 12,28l0 21c0,6 -1,11 -3,17 -3,5 -6,10 -10,13 9,8 13,18 13,31l0 40c0,11 -4,21 -12,29 -8,8 -17,12 -28,12l-21 0c-8,0 -16,-3 -23,-8 -7,-5 -12,-12 -15,-20l-1 -4c0,-2 1,-5 3,-7 2,-2 5,-3 8,-3 4,0 7,3 9,7 1,4 4,8 7,11 4,2 8,4 12,4l21 0c5,0 10,-2 14,-6 4,-4 6,-9 6,-15l0 -40c0,-6 -1,-11 -5,-15 -3,-4 -8,-6 -15,-6zm101 0l0 82 61 0c6,0 10,-2 14,-6 4,-4 6,-9 6,-15l0 -40c0,-6 -2,-11 -5,-15 -4,-4 -9,-6 -15,-6l-61 0zm0 -20l61 0c11,0 20,4 28,12 8,8 12,17 12,29l0 40c0,11 -3,21 -11,29 -8,8 -18,12 -29,12l-71 0c-7,0 -10,-4 -10,-10l0 -183c0,-7 3,-10 10,-10l81 0c3,0 5,1 7,3 2,2 3,4 3,7 0,2 -1,4 -2,7 -2,2 -5,3 -8,3l-71 0 0 61zm264 112c0,3 -1,5 -3,7 -2,2 -4,3 -7,3 -3,0 -5,-1 -7,-3 -2,-1 -3,-4 -3,-7l0 -144 -83 149c-1,2 -2,3 -4,5l-2 1c-1,0 -2,0 -4,1 -2,0 -4,-1 -6,-3 -2,-3 -3,-5 -3,-9l0 -183c0,-3 1,-5 3,-7 2,-2 5,-3 7,-3 3,0 5,1 7,2 2,2 3,5 3,8l0 144 83 -149c1,-1 2,-3 4,-5 2,-1 4,-2 6,-2 2,0 4,1 6,4 2,2 3,4 3,8l0 183zm61 -92l61 0c5,0 10,-2 14,-5 4,-4 6,-9 6,-15l0 -41c0,-5 -2,-10 -6,-14 -4,-4 -8,-6 -14,-6l-61 0 0 81zm0 21l0 71c0,3 -1,5 -3,7 -2,2 -5,3 -7,3 -3,0 -6,-1 -8,-3 -2,-1 -3,-4 -3,-7l0 -183c0,-7 4,-10 11,-10l71 0c11,0 20,4 28,12 8,8 12,17 12,28l0 41c0,11 -4,21 -12,29 -8,7 -17,12 -28,12l-61 0zm157 30l-15 44c0,2 -2,4 -3,5 -2,1 -4,2 -6,2 -3,0 -5,-1 -7,-3 -2,-2 -3,-4 -3,-7l0 -4 62 -182c2,-6 5,-9 9,-9 4,0 8,3 10,9l60 182 1 4c0,3 -1,5 -3,7 -2,2 -5,3 -7,3 -2,0 -3,-1 -5,-1 -2,-1 -3,-3 -5,-6l-14 -44 -74 0zm67 -21l-30 -89 -30 89 60 0zm90 -111l-40 0c-3,0 -6,-1 -8,-3 -2,-2 -2,-4 -2,-7 0,-2 0,-5 2,-7 2,-2 4,-3 8,-3l101 0c3,0 5,1 7,3 2,2 3,4 3,7 0,2 -1,4 -2,7 -2,2 -5,3 -8,3l-41 0 0 173c0,3 0,5 -2,7 -2,2 -5,3 -8,3 -2,0 -5,-1 -7,-3 -2,-1 -3,-4 -3,-7l0 -173zm132 61l51 0c3,0 5,1 7,3 2,2 3,5 3,7 0,3 -1,5 -2,7 -2,2 -5,3 -8,3l-51 0 0 82 71 0c3,0 6,1 8,3 2,2 3,4 3,7 0,2 -1,4 -3,7 -2,2 -4,3 -8,3l-81 0c-7,0 -10,-3 -10,-10l0 -183c0,-7 3,-10 10,-10l81 0c3,0 6,1 8,3 2,2 3,4 3,7 0,2 -1,5 -3,7 -2,2 -4,3 -8,3l-71 0 0 61zm244 112c0,3 -1,5 -3,7 -2,2 -4,3 -7,3 -3,0 -5,-1 -7,-3 -2,-1 -3,-4 -3,-7l0 -173 -33 0 -49 175c0,2 -2,4 -3,6 -2,1 -4,2 -7,2 -3,0 -5,-1 -7,-3 -2,-1 -3,-4 -3,-7 0,-1 0,-2 0,-3l51 -183c2,-5 5,-7 10,-7l51 0c7,0 10,3 10,10l0 183zm60 -92l61 0c6,0 11,2 15,6 4,4 6,9 6,15l0 40c0,6 -2,11 -6,15 -2,2 -4,3 -7,4 -2,1 -5,2 -8,2l-61 0 0 -82zm0 -20l0 -71c0,-3 -1,-5 -3,-7 -2,-2 -4,-3 -7,-3 -2,0 -4,1 -6,2 -3,2 -4,5 -4,8l0 183c0,6 4,10 10,10l71 0c11,0 21,-4 29,-12 8,-8 12,-17 12,-29l0 -40c0,-11 -4,-21 -12,-29 -8,-8 -17,-12 -29,-12l-61 0zm244 0l0 -71c0,-3 1,-5 3,-7 2,-2 4,-3 7,-3 3,0 5,1 7,2 2,2 3,5 3,8l0 182c0,3 -1,6 -3,8 -2,2 -5,3 -7,3 -2,0 -5,-1 -7,-3 -2,-1 -3,-4 -3,-7l0 -92 -81 0 0 92c0,3 -1,5 -3,7 -2,2 -4,3 -7,3 -3,0 -5,-1 -7,-3 -2,-1 -3,-4 -3,-7l0 -183c0,-3 1,-5 3,-7 2,-2 4,-3 7,-3 2,0 5,1 7,2 2,2 3,5 3,8l0 71 81 0zm183 81c0,11 -4,21 -12,29 -8,8 -18,12 -29,12l-41 0c-11,0 -20,-4 -28,-12 -8,-8 -12,-17 -12,-29l0 -122c0,-11 4,-21 12,-28 8,-8 17,-12 28,-12l41 0c11,0 21,4 29,12 8,8 12,17 12,28l0 122zm-21 0l0 -122c0,-5 -2,-10 -5,-14 -4,-4 -9,-6 -15,-6l-41 0c-5,0 -10,2 -14,6 -2,2 -4,4 -5,6 0,3 -1,5 -1,8l0 122c0,6 2,11 6,15 2,2 4,3 6,4 3,1 6,2 8,2l41 0c6,0 10,-2 14,-6 4,-4 6,-9 6,-15zm159 -182l-41 0c-3,0 -6,-1 -8,-3 -1,-2 -2,-5 -2,-7 0,-3 1,-5 2,-7 2,-2 5,-4 8,-4l41 0c2,0 5,1 7,4 2,2 3,4 3,7 0,2 -1,4 -3,6 -1,3 -4,4 -7,4zm40 213c0,3 -1,5 -3,7 -2,2 -4,3 -7,3 -3,0 -5,-1 -7,-3 -2,-1 -3,-4 -3,-7l0 -144 -82 149c-2,2 -3,3 -5,5l-2 1c-1,0 -2,0 -3,1 -2,0 -4,-1 -7,-3 -2,-3 -3,-5 -3,-9l0 -183c0,-3 1,-5 3,-7 2,-2 5,-3 8,-3 2,0 4,1 6,2 3,2 4,5 4,8l0 144 82 -149c1,-1 2,-3 4,-5 2,-1 4,-2 6,-2 2,0 4,1 6,4 2,2 3,4 3,8l0 183zm183 -106l85 -84c2,-2 5,-3 7,-3 3,0 5,1 7,3 2,2 4,4 4,7 0,2 -1,4 -4,7l-60 60 62 111 2 5c0,3 -1,5 -4,7 -2,2 -4,3 -7,3 -3,0 -6,-2 -8,-6l-60 -105 -24 23 0 78c0,3 -1,5 -3,7 -2,2 -4,3 -7,3 -3,0 -5,-1 -7,-3 -2,-1 -3,-4 -3,-7l0 -183c0,-3 1,-5 3,-7 2,-2 4,-3 7,-3 2,0 5,1 7,2 2,2 3,4 3,8l0 77zm253 75c0,11 -4,21 -12,29 -8,8 -17,12 -28,12l-41 0c-11,0 -20,-4 -28,-12 -8,-8 -12,-17 -12,-29l0 -122c0,-11 4,-21 11,-28 8,-8 18,-12 29,-12l41 0c11,0 21,4 28,12 8,8 12,17 12,28l0 122zm-20 0l0 -122c0,-5 -2,-10 -6,-14 -3,-4 -8,-6 -14,-6l-41 0c-6,0 -10,2 -14,6 -2,2 -4,4 -5,6 -1,3 -1,5 -1,8l0 122c0,6 2,11 6,15 2,2 4,3 6,4 3,1 6,2 8,2l41 0c5,0 10,-2 14,-6 4,-4 6,-9 6,-15zm219 31c0,3 -1,5 -2,7 -2,2 -5,3 -8,3 -2,0 -4,-1 -7,-3 -2,-1 -3,-4 -3,-7l0 -145 -42 70c-2,4 -5,6 -9,6 -3,0 -6,-2 -8,-6l-43 -70 0 145c0,3 -1,5 -3,7 -1,2 -4,3 -7,3 -2,0 -5,-1 -7,-3 -2,-1 -3,-4 -3,-7l0 -182c0,-4 1,-7 3,-9 2,-2 4,-3 6,-3 2,0 4,1 5,2 2,1 3,2 5,5l52 87 52 -87c3,-5 6,-7 10,-7 2,0 5,1 7,3 1,3 2,5 2,9l0 182z"/>
    <path class="fil2 str0" d="M8064 958c0,3 -1,5 -2,7 -2,2 -5,3 -8,3 -2,0 -5,-1 -7,-3 -2,-1 -3,-4 -3,-7l0 -144 -82 149c-1,2 -3,3 -5,5l-2 1c-1,0 -2,0 -3,1 -2,0 -4,-1 -7,-3 -1,-3 -2,-5 -2,-9l0 -183c0,-3 1,-5 3,-7 2,-2 4,-3 7,-3 2,0 5,1 7,2 2,2 3,5 3,8l0 144 82 -149c1,-1 3,-3 5,-5 1,-1 3,-2 5,-2 2,0 4,1 6,4 2,2 3,4 3,8l0 183zm132 10l-50 0c-11,0 -21,-4 -29,-12 -8,-8 -12,-17 -12,-29l0 -122c0,-11 4,-21 12,-28 8,-8 17,-12 29,-12l50 0c3,0 6,1 8,3 2,2 3,4 3,7 0,2 -1,4 -3,7 -2,2 -4,3 -8,3l-50 0c-6,0 -11,2 -15,6 -2,2 -3,4 -4,6 -1,3 -2,5 -2,8l0 122c0,6 2,11 6,15 2,2 4,3 7,4 2,1 5,2 8,2l50 0c3,0 6,1 8,3 2,2 3,4 3,7 0,2 -1,4 -3,7 -2,2 -4,3 -8,3zm133 0l-50 0c-11,0 -21,-4 -29,-12 -8,-8 -12,-17 -12,-29l0 -122c0,-11 4,-21 12,-28 8,-8 17,-12 29,-12l50 0c3,0 6,1 8,3 2,2 3,4 3,7 0,2 -1,4 -3,7 -2,2 -4,3 -8,3l-51 0c-5,0 -10,2 -14,6 -2,2 -3,4 -4,6 -1,3 -2,5 -2,8l0 122c0,6 2,11 6,15 2,2 4,3 6,4 3,1 6,2 8,2l51 0c3,0 6,1 8,3 2,2 3,4 3,7 0,2 -1,4 -3,7 -2,2 -4,3 -8,3zm173 -10c0,3 -1,5 -3,7 -2,2 -4,3 -7,3 -3,0 -5,-1 -7,-3 -3,-1 -3,-4 -3,-7l0 -144 -83 149c-1,2 -3,3 -4,5l-3 1c0,0 -1,0 -3,1 -2,0 -4,-1 -6,-3 -2,-3 -3,-5 -3,-9l0 -183c0,-3 1,-5 3,-7 2,-2 4,-3 7,-3 3,0 5,1 7,2 2,2 3,5 3,8l0 144 83 -149c1,-1 2,-3 4,-5 2,-1 4,-2 5,-2 3,0 5,1 7,4 2,2 3,4 3,8l0 183zm162 0c0,3 -1,5 -3,7 -2,2 -4,3 -7,3 -3,0 -5,-1 -7,-3 -2,-1 -3,-4 -3,-7l0 -144 -83 149c-1,2 -2,3 -4,5l-2 1c-1,0 -2,0 -3,1 -2,0 -5,-1 -7,-3 -2,-3 -3,-5 -3,-9l0 -183c0,-3 1,-5 3,-7 2,-2 5,-3 7,-3 3,0 5,1 7,2 2,2 3,5 3,8l0 144 83 -149c1,-1 2,-3 4,-5 2,-1 4,-2 6,-2 2,0 4,1 6,4 2,2 3,4 3,8l0 183z"/>
   </g>
   <g id="_804523022704">
    <g>
     <path class="fil3 str1" d="M4392 1830c-54,-31 -131,-50 -216,-50 -87,0 -165,20 -220,52 -10,-41 -22,-81 -34,-122 -25,-87 -53,-172 -44,-264 5,-51 20,-118 55,-157 20,-23 51,-36 82,-42l0 0c2,-5 4,-9 7,-14 73,-122 266,-92 356,-8 57,53 88,128 96,204 9,93 -19,178 -45,265 -13,45 -26,90 -37,136z"/>
     <path class="fil4" d="M4625 2115c-19,-57 -42,-80 -101,-92l-170 -44c-31,-7 -55,-34 -57,-66l-24 -220 -103 0 -104 0 -24 220c-2,32 -25,59 -56,66l-170 44c-59,12 -82,35 -101,92l-18 214 473 0 473 0 -18 -214z"/>
     <path class="fil4 str1" d="M4150 1263c-49,5 -116,28 -146,73 -30,45 -45,115 -37,171l45 193c1,3 1,5 2,7l0 1c4,23 18,43 36,56l77 56c13,11 20,16 36,16l6 0 1 0 0 -574c-7,0 -14,1 -20,1z"/>
     <path class="fil4 str1" d="M4190 1263c48,5 115,28 145,73 31,45 46,115 38,171l-47 197 0 0c-3,25 -17,46 -37,60l-76 56c-13,11 -20,16 -37,16l-5 0 -1 0 0 -574c7,0 13,1 20,1z"/>
     <path class="fil5" d="M4389 1506c3,1 6,1 9,3 1,2 2,4 3,6 4,11 5,24 3,36 -11,18 -25,35 -33,54 -3,6 -8,17 -15,17 -8,1 -10,-9 -11,-14 -2,-30 2,-59 7,-89 0,-2 0,-4 2,-6 1,-2 3,-2 5,-3 10,-3 20,-4 30,-4z"/>
     <path class="fil4" d="M4355 1623c-4,0 -6,-4 -8,-7 -1,-3 -1,-6 -2,-8 0,-6 0,-12 0,-18 0,-24 3,-47 7,-71 0,-2 0,-4 2,-6 1,-2 3,-2 5,-3 8,-3 16,-4 24,-4 2,0 4,0 6,0 3,1 6,1 9,3 1,2 2,4 3,6 3,8 4,16 4,24 0,4 0,8 -1,12 -11,18 -25,35 -33,54 -3,6 -8,17 -15,17 0,1 0,1 -1,1z"/>
     <path class="fil4" d="M3950 1506c-3,1 -7,1 -9,3 -2,2 -3,4 -3,6 -5,11 -6,24 -4,36 12,18 26,35 34,54 2,6 7,17 14,17 8,1 11,-9 11,-14 3,-30 -2,-59 -6,-89 0,-2 -1,-4 -2,-6 -1,-2 -4,-2 -6,-3 -9,-3 -19,-4 -29,-4z"/>
     <path class="fil6 str1" d="M4625 2115c-19,-57 -42,-80 -101,-92l-170 -44c-31,-7 -55,-34 -57,-66l-9 -73c-28,16 -70,26 -118,26 -48,0 -90,-10 -118,-26l-10 73c-2,32 -25,59 -56,66l-170 44c-59,12 -82,35 -101,92l-18 214 473 0 473 0 -18 -214z"/>
     <path class="fil7 str1" d="M4269 1984c-10,6 -20,13 -31,18 -20,9 -42,12 -63,12 -14,0 -28,-1 -40,-6 -10,-4 -19,-11 -28,-15 -20,-10 -41,-12 -63,-17 -10,-2 -22,-6 -27,-16 -6,-14 3,-29 7,-43 7,-23 1,-31 3,-56 1,-7 2,-13 3,-20 1,-5 3,-10 7,-11 7,0 20,8 26,11 11,5 22,11 34,14 15,3 31,1 47,3 8,1 16,2 24,3 37,5 75,-8 109,-27 7,-3 10,-9 18,-9 2,0 5,0 8,1 8,6 7,29 7,38 0,30 0,45 11,72 3,7 6,15 2,21 -1,2 -4,4 -6,5 -12,8 -26,9 -38,16 -4,2 -7,4 -10,6z"/>
     <path class="fil8" d="M4354 1979c0,0 0,0 0,0 0,0 0,0 0,0z"/>
     <path class="fil8" d="M4354 1979c0,0 0,0 0,0 0,0 0,0 0,0z"/>
     <path class="fil8" d="M4354 1979c0,0 0,0 -1,0 1,0 1,0 1,0z"/>
     <path class="fil8" d="M4353 1979c-13,-3 -24,-10 -33,-19 0,0 0,0 0,0 9,9 20,16 33,19z"/>
     <path class="fil8" d="M4325 1950c0,-4 -2,-9 -4,-14 -11,-27 -11,-42 -11,-72 0,0 0,-1 0,-1 0,0 0,1 0,1 0,30 0,45 11,72 2,5 4,10 4,14zm-37 -123l-4 -36 4 36z"/>
     <path class="fil9" d="M4284 1791l0 0 -2 -21 2 21zm-227 -17l0 0 1 -4 -1 4z"/>
     <path class="fil4 str1" d="M4183 1862c-5,0 -10,0 -15,-1 -8,-1 -16,-2 -24,-3 -10,-1 -83,-23 -93,-23l6 -61 1 -4 69 50c12,10 20,16 36,16 0,0 0,0 0,0l6 0 1 0 1 0 5 0c17,0 24,-5 37,-16l69 -50 2 21 4 36c-4,2 -7,5 -11,7 -29,17 -61,28 -94,28z"/>
     <path class="fil10" d="M4163 1836c-16,0 -24,-6 -36,-16 12,10 20,16 36,16z"/>
     <path class="fil8" d="M4310 1854c0,-9 -1,-20 -5,-25 4,5 5,16 5,25zm-7 -28c0,0 0,0 0,0 0,0 0,0 0,0zm0 0c0,0 0,0 0,0 0,0 0,0 0,0zm-9 -1c0,0 0,0 0,0 0,0 0,0 0,0zm1 0c0,0 0,0 0,0 0,0 0,0 0,0zm0 0c1,0 1,0 2,0 -1,0 -1,0 -2,0zm2 0c0,0 0,0 0,0l0 0c0,0 0,0 0,0z"/>
     <path class="fil3" d="M3951 1326c8,-11 15,-22 26,-31 10,-8 24,-13 37,-10 7,1 13,4 19,8 7,5 13,12 18,20 16,28 10,64 -4,92 -14,29 -34,54 -49,82 -27,49 -34,109 -20,163 -20,-7 -35,-24 -47,-42 -27,-41 -40,-92 -35,-142 5,-50 28,-97 55,-140z"/>
     <path class="fil3" d="M4203 1223c-55,-7 -113,12 -155,48 -5,4 -9,8 -13,14 -7,12 -7,26 -4,40 12,54 62,91 113,112 50,22 106,32 154,58 2,-16 -2,-32 -10,-46 24,25 39,58 41,93 7,-19 10,-33 10,-47 31,53 36,121 31,182 31,-25 53,-61 66,-99 13,-38 19,-78 21,-118 0,-10 1,-21 -2,-31 -2,-8 -5,-16 -9,-24 -19,-44 -41,-91 -79,-120 -24,-18 -51,-28 -79,-38 -28,-11 -56,-21 -85,-24z"/>
     <path class="fil4" d="M4157 1822c-2,0 -19,-88 -20,-89 -2,-2 0,-43 -3,-44 -3,-3 0,-48 -3,-49l2 -148 4 -45c25,-15 55,15 61,19l-2 66 1 89c-1,5 -2,12 -3,18 24,66 15,218 -37,183z"/>
     <g>
      <path class="fil11" d="M4089 1567c-6,0 -12,5 -12,12 0,6 6,11 12,11 7,0 12,-5 12,-11 0,-7 -5,-12 -12,-12zm154 0c-6,0 -11,5 -11,12 0,6 5,11 11,11 7,0 12,-5 12,-11 0,-7 -5,-12 -12,-12z"/>
      <path id="1" class="fil12" d="M4089 1579l-23 0 0 0 0 -1 0 -2 0 -1 0 -1 0 -1 1 -1 0 -1 0 -1 1 -1 0 -1 1 0 0 -1 1 -1 1 -1 0 -1 1 -1 1 0 1 -1 1 -1 0 0 1 -1 1 -1 1 0 1 -1 2 0 1 0 1 -1 1 0 1 0 2 0 1 -1 1 0 0 21 0 0 0 0 0 0 0 0 0 0 0 0 1 0 0 0 0 0 0 0 0 0 0 0 0 0 0 0 0 0 0 0 0 0 -1 0 0 0 0 0 0 1 0 0 0 0 0 0 0 0 0 0 0 0 0 0 0 0 0 0 0 0 0 1 0 0zm0 0c0,5 -5,10 -12,10 -6,0 -11,-5 -11,-10l23 0zm0 1l0 21 0 0 -1 0 -1 0 -2 0 -1 -1 -1 0 -1 0 -1 -1 -2 0 -1 -1 -1 0 -1 -1 -1 0 0 -1 -1 -1 -1 0 -1 -1 -1 -1 0 -1 -1 -1 -1 0 0 -1 -1 -1 0 -1 -1 -1 0 -1 0 -1 -1 -1 0 -1 0 -1 0 -1 0 -1 0 -1 23 0 0 0 0 0 0 0 0 0 0 0 0 0 0 0 0 1 0 0 0 0 0 0 0 0 0 0 0 0 1 0 0 0 0 0 0 0 0 0 0 0 0 0 0 0 0 0 0 0 0 0 -1 0 0 0 0 0 0 0 0 0 0 0 0 0 0 0zm0 0c7,0 12,5 12,10 0,6 -5,11 -12,11l0 -21zm0 -1l24 0 0 0 0 1 -1 1 0 1 0 1 0 1 0 1 -1 1 0 1 -1 1 0 1 -1 1 0 1 -1 0 0 1 -1 1 -1 1 -1 1 0 0 -1 1 -1 1 -1 0 -1 1 -1 0 -1 1 -1 0 -2 1 -1 0 -1 0 -1 1 -1 0 -2 0 -1 0 0 -21 0 0 0 0 0 0 0 0 0 0 0 0 0 0 0 0 0 0 0 0 0 0 0 0 0 0 0 0 0 0 0 0 0 0 0 0 0 0 0 0 0 0 0 0 0 0 0 0 0 -1 0 0 0 0 0 0 0 0 0 0 0 0 0 0 0 0zm0 0c0,-6 5,-11 12,-11 6,0 12,5 12,11l-24 0zm0 -2l0 -21 0 0 1 0 2 1 1 0 1 0 1 0 1 1 2 0 1 0 1 1 1 0 1 1 1 1 1 0 1 1 0 1 1 0 1 1 1 1 0 1 1 1 0 1 1 0 0 1 1 1 0 1 1 1 0 1 0 1 0 1 0 1 1 2 0 1 -24 0 0 -1 0 0 0 0 0 0 0 0 0 0 0 0 0 0 0 0 0 0 0 0 0 -1 0 0 0 0 0 0 0 0 0 0 0 0 0 0 0 0 0 0 0 0 0 0 0 0 0 0 0 0 0 0 0 0 0 0 0 0 0 0 0 0 0 0zm0 0c-6,0 -12,-4 -12,-10 0,-6 6,-11 12,-11l0 21zm154 2l-23 0 0 0 0 -1 0 -2 0 -1 0 -1 1 -1 0 -1 0 -1 1 -1 0 -1 0 -1 1 0 1 -1 0 -1 1 -1 0 -1 1 -1 1 0 1 -1 1 -1 1 0 1 -1 1 -1 1 0 1 -1 1 0 1 0 1 -1 1 0 2 0 1 0 1 -1 1 0 0 21 0 0 0 0 1 0 0 0 0 0 0 0 0 0 0 0 0 0 0 0 0 0 0 0 0 0 0 0 0 0 0 0 0 0 0 0 0 0 0 0 0 1 0 0 0 0 -1 0 0 0 0 0 0 0 0 0 0 0 0 0 0 0 0 1 0 0zm0 0c0,5 -5,10 -11,10 -7,0 -12,-5 -12,-10l23 0zm0 1l0 21 0 0 -1 0 -1 0 -1 0 -2 -1 -1 0 -1 0 -1 -1 -1 0 -1 -1 -1 0 -1 -1 -1 0 -1 -1 -1 -1 -1 0 -1 -1 0 -1 -1 -1 -1 -1 0 0 -1 -1 -1 -1 0 -1 0 -1 -1 -1 0 -1 0 -1 -1 -1 0 -1 0 -1 0 -1 0 -1 23 0 0 0 0 0 0 0 0 0 0 0 0 0 0 0 0 1 1 0 0 0 0 0 0 0 0 0 0 0 0 0 0 0 0 0 0 0 0 0 0 0 0 0 0 0 0 0 0 0 0 0 0 0 0 0 0 0 0 0 -1 0 0 0 0 0 0 0zm0 0c7,0 12,5 12,10 0,6 -5,11 -12,11l0 -21zm0 -1l24 0 0 0 0 1 0 1 0 1 -1 1 0 1 0 1 -1 1 0 1 0 1 -1 1 0 1 -1 1 -1 0 0 1 -1 1 -1 1 0 1 -1 0 -1 1 -1 1 -1 0 -1 1 -1 0 -1 1 -1 0 -1 1 -1 0 -2 0 -1 1 -1 0 -1 0 -2 0 0 -21 0 0 0 0 0 0 0 0 0 0 0 0 0 0 0 0 0 0 0 0 0 0 0 0 0 0 0 0 0 0 0 0 0 0 0 0 0 0 0 0 0 0 0 0 0 0 0 0 0 -1 0 0 0 0 0 0 0 0 0 0 0 0 0 0 0 0zm0 0c0,-6 6,-11 12,-11 7,0 12,5 12,11l-24 0zm0 -2l0 -21 0 0 2 0 1 1 1 0 1 0 2 0 1 1 1 0 1 0 1 1 1 0 1 1 1 1 1 0 1 1 1 1 0 0 1 1 1 1 0 1 1 1 1 1 0 0 1 1 0 1 0 1 1 1 0 1 0 1 1 1 0 1 0 2 0 1 -24 0 0 -1 0 0 0 0 0 0 0 0 0 0 0 0 0 0 0 0 0 0 0 -1 0 0 0 0 0 0 0 0 0 0 0 0 0 0 0 0 0 0 0 0 0 0 0 0 0 0 0 0 0 0 0 0 0 0 0 0 0 0 0 0 0 0 0 0zm0 0c-6,0 -11,-4 -11,-10 0,-6 5,-11 11,-11l0 21z"/>
     </g>
    </g>
    <g id="_804523035472">
     <path class="fil13 str1" d="M6135 2174c-19,23 -15,59 -3,86 11,28 42,45 45,75 -18,-24 -55,-34 -83,-45 -17,-7 -35,-11 -52,-20 -30,-17 -50,-59 -33,-91 5,-11 14,-19 18,-30 24,-62 -74,-89 -107,-117 -59,-48 -69,-145 -29,-210 20,-34 52,-61 69,-97 28,-61 6,-112 -9,-172 -20,-76 -10,-159 22,-231 25,-57 80,-117 147,-103 5,1 10,2 15,4 19,8 34,25 42,45 16,39 5,96 -16,132 -19,32 -54,51 -71,84 -22,45 -3,93 24,129 26,34 52,78 36,118 -15,35 -56,50 -82,77 -43,43 -41,124 4,165 33,31 84,40 108,80 17,30 11,72 -15,96 -9,9 -22,15 -30,25z"/>
     <path class="fil14" d="M6302 1716l179 0 0 282 -179 0 0 -282z"/>
     <path class="fil4 str1" d="M6700 2121c-19,-57 -42,-80 -101,-92l-170 -44c-31,-7 -54,-34 -56,-66l-24 -219 -104 0 -103 0 -25 219c-1,32 -25,59 -56,66l-170 44c-59,12 -82,35 -101,92l-18 214 473 0 473 0 -18 -214z"/>
     <path class="fil4" d="M6265 1269c49,5 116,29 146,73 30,46 45,116 37,171l-46 197 0 0c-4,25 -17,46 -37,61l-77 55c-13,11 -20,17 -36,17l-6 0 -1 0 0 -575c7,1 14,1 20,1z"/>
     <path class="fil5" d="M6464 1512c3,1 7,1 9,4 2,1 3,3 3,5 5,12 6,24 4,36 -12,18 -26,35 -34,54 -3,6 -7,17 -14,18 -8,1 -11,-10 -11,-15 -3,-30 2,-59 6,-88 0,-3 1,-5 2,-7 1,-1 4,-2 6,-3 9,-3 19,-4 29,-4z"/>
     <path class="fil15" d="M6431 1629c-4,0 -7,-3 -8,-7l25 -109c4,0 7,-1 11,-1 1,0 3,0 5,0 3,1 7,1 9,4 2,1 3,3 3,5 3,8 5,16 5,24 0,4 -1,8 -1,12 -12,18 -26,35 -34,54 -3,6 -7,17 -14,18 -1,0 -1,0 -1,0z"/>
     <path class="fil16 str1" d="M6574 2258c0,-90 32,-169 67,-215 -11,-6 -25,-11 -42,-14l-26 -10c-74,70 -193,115 -328,115 -135,0 -254,-45 -327,-115l-27 10c-17,3 -30,8 -42,14 36,46 67,125 67,215 0,27 -2,53 -6,77l335 0 335 0c-4,-24 -6,-50 -6,-77z"/>
     <path class="fil8" d="M6700 2121c0,0 0,0 0,0 0,0 0,0 0,0zm0 0c0,0 0,-1 0,-1 0,0 0,1 0,1zm0 -1c0,0 0,0 0,0 0,0 0,0 0,0z"/>
     <path class="fil8" d="M6570 2021l0 0c1,-1 2,-2 2,-2 0,0 1,0 1,0 -1,1 -2,2 -3,2z"/>
     <path class="fil17" d="M6429 1985c0,0 0,0 0,0 0,0 0,0 0,0zm0 0c0,0 0,0 0,0 0,0 0,0 0,0zm0 0c0,0 0,0 0,0 0,0 0,0 0,0zm0 0c0,0 0,0 0,0 0,0 0,0 0,0zm-1 0c0,0 0,0 0,0 0,0 0,0 0,0zm0 0c0,0 0,0 0,0 0,0 0,0 0,0zm0 0c0,0 0,0 0,0 0,0 0,0 0,0zm0 0c0,0 0,0 0,0 0,0 0,0 0,0zm0 0c0,0 0,0 0,-1 0,1 0,1 0,1zm0 -1c0,0 -1,0 -1,0 0,0 1,0 1,0zm-1 0c0,0 0,0 0,0 0,0 0,0 0,0zm0 0c0,0 0,0 0,0 0,0 0,0 0,0zm0 0c0,0 0,0 0,0 0,0 0,0 0,0zm0 0c0,0 0,0 0,0 0,0 0,0 0,0zm0 0c-1,0 -1,0 -1,0 0,0 0,0 1,0zm-1 0c-24,-6 -43,-24 -50,-48l0 0c7,24 26,42 50,48z"/>
     <path class="fil8" d="M6600 2029c0,0 0,0 0,0 0,0 0,0 0,0 0,0 0,0 0,0z"/>
     <path class="fil10" d="M6600 2029c0,0 0,0 0,0 0,0 0,0 0,0 0,0 0,0 0,0z"/>
     <path class="fil8" d="M6600 2029c0,0 0,0 0,0l0 0c0,0 0,0 0,0zm0 0c0,0 -1,0 -1,0 0,0 1,0 1,0z"/>
     <path class="fil10" d="M6600 2029c0,0 -1,0 -1,0l0 0c0,0 1,0 1,0 0,0 0,0 0,0l0 0z"/>
     <path class="fil17" d="M6380 1936l0 0c0,0 0,0 0,0zm-12 -60l0 0c2,0 3,-1 3,-1 0,0 0,0 0,0l-3 1z"/>
     <path class="fil4" d="M6225 1269c-48,5 -115,29 -145,73 -31,46 -46,116 -38,171l46 193c0,3 1,5 1,7l0 2c4,22 18,42 36,56l77 55c13,11 20,17 37,17l5 0 1 0 0 -575c-7,1 -13,1 -20,1z"/>
     <path class="fil18" d="M6423 1622l0 0c-2,-3 -2,-6 -2,-8 -1,-6 -1,-12 -1,-18 0,-23 3,-47 7,-70 0,-3 1,-5 2,-7 1,-1 4,-2 6,-3 4,-1 9,-2 13,-3l-25 109z"/>
     <path class="fil19" d="M6252 1843l-6 0 -1 0 1 0 6 0c16,0 23,-6 36,-17l0 0 69 -50 -69 50c-13,11 -20,17 -36,17z"/>
     <path class="fil13 str1" d="M6355 2174c19,23 14,59 3,86 -12,28 -42,45 -46,75 18,-24 56,-34 83,-45 18,-7 36,-11 52,-20 31,-17 50,-59 34,-91 -6,-11 -14,-19 -19,-30 -24,-62 75,-89 108,-117 58,-48 69,-145 29,-210 -21,-34 -52,-61 -69,-97 -29,-61 -7,-112 9,-172 23,-90 5,-189 -42,-269 -22,-38 -52,-72 -89,-95 -81,-50 -230,-44 -266,66 -13,42 2,93 36,121 38,30 89,31 136,39 47,8 100,33 109,82 8,43 -22,82 -48,116 -26,34 -51,78 -35,118 14,35 55,50 82,77 43,43 40,124 -5,165 -33,31 -84,40 -107,80 -18,30 -12,72 14,96 10,9 22,15 31,25z"/>
     <path class="fil13 str1" d="M6125 1771c-18,-14 -32,-34 -36,-56l0 -2c0,-2 -1,-4 -1,-7 -3,-10 -5,-20 -7,-30 -8,-12 -13,-26 -17,-41 -21,-82 -11,-179 50,-242 12,-13 27,-24 37,-38 15,-20 23,-132 -16,-132 -18,1 -19,-14 -35,-6 -36,-7 -118,55 -127,105 -46,17 -38,290 0,332 -2,15 -13,65 -13,71 0,32 -83,94 -83,126 -75,256 75,123 158,141l26 -7c31,-7 55,-34 56,-66l16 -143 -8 -5z"/>
     <g>
      <path class="fil11" d="M6149 1514c-6,0 -11,6 -11,12 0,7 5,12 11,12 7,0 12,-5 12,-12 0,-6 -5,-12 -12,-12zm155 0c-7,0 -12,6 -12,12 0,7 5,12 12,12 6,0 11,-5 11,-12 0,-6 -5,-12 -11,-12z"/>
      <path id="1" class="fil12" d="M6149 1526l-23 0 0 0 0 -1 0 -1 0 -1 0 -1 1 -1 0 -1 0 -1 1 -1 0 -1 1 -1 0 -1 1 -1 0 -1 1 0 1 -1 0 -1 1 -1 1 -1 1 0 1 -1 1 0 1 -1 1 -1 1 0 1 -1 1 0 1 0 1 0 2 -1 1 0 1 0 1 0 0 21 0 0 1 0 0 0 0 0 0 0 0 0 0 0 0 0 0 0 0 0 0 0 0 0 0 0 0 0 0 0 0 0 0 0 0 0 0 0 0 0 0 0 0 0 0 0 0 0 0 0 0 0 -1 1 0 0 0 0 0 0 0 0 0 0 0 0zm0 0c0,6 -5,11 -11,11 -7,0 -12,-5 -12,-11l23 0zm0 1l0 21 0 0 -1 0 -1 0 -1 0 -2 0 -1 0 -1 -1 -1 0 -1 -1 -1 0 -1 -1 -1 0 -1 -1 -1 0 -1 -1 -1 -1 -1 -1 0 0 -1 -1 -1 -1 0 -1 -1 -1 0 -1 -1 -1 0 -1 -1 -1 0 -1 0 -1 -1 -1 0 -1 0 -1 0 -1 0 -1 23 0 0 0 0 0 0 1 0 0 0 0 1 0 0 0 0 0 0 0 0 0 0 0 0 0 0 0 0 0 0 0 0 1 0 0 0 0 0 0 0 0 0 0 0 0 0 0 0 0 0 0 0 0 0 0 0 0 0 -1 0 0 -1 0 0 0 0 0zm0 0c7,0 12,5 12,11 0,6 -5,10 -12,10l0 -21zm0 -1l24 0 0 0 0 1 0 1 0 1 -1 1 0 1 0 1 0 1 -1 1 0 1 -1 1 0 1 -1 1 0 1 -1 1 -1 1 -1 0 0 1 -1 1 -1 1 -1 0 -1 1 -1 0 -1 1 -1 0 -1 1 -1 0 -1 1 -2 0 -1 0 -1 0 -1 0 -2 0 0 -21 0 0 0 0 0 0 0 1 0 0 0 0 0 0 0 0 0 0 0 0 0 0 0 0 0 0 0 0 0 0 0 0 0 -1 0 0 0 0 0 0 0 0 0 0 0 0 0 0 0 0 0 0 0 0 0 0 0 0 0 -1 0 0 0 0 0 0zm0 0c0,-6 6,-10 12,-10 7,0 12,4 12,10l-24 0zm0 -1l0 -21 0 0 2 0 1 0 1 0 1 1 2 0 1 0 1 0 1 1 1 0 1 1 1 1 1 0 1 1 1 0 1 1 0 1 1 1 1 1 1 0 0 1 1 1 0 1 1 1 0 1 1 1 0 1 0 1 0 1 1 1 0 1 0 1 0 1 -24 0 0 0 0 0 0 0 0 0 0 0 0 -1 0 0 0 0 0 0 0 0 0 0 0 0 0 0 0 0 0 0 0 0 0 0 0 0 0 0 0 0 0 0 0 0 0 0 0 0 0 0 0 0 0 0 0 0 0 0 0 0 0 0 0 0 0 0zm0 0c-6,0 -11,-5 -11,-11 0,-5 5,-10 11,-10l0 21zm155 1l-24 0 0 0 0 -1 0 -1 0 -1 1 -1 0 -1 0 -1 0 -1 1 -1 0 -1 1 -1 0 -1 1 -1 0 -1 1 0 1 -1 1 -1 0 -1 1 -1 1 0 1 -1 1 0 1 -1 1 -1 1 0 1 -1 1 0 1 0 2 0 1 -1 1 0 1 0 2 0 0 21 0 0 0 0 0 0 0 0 0 0 0 0 0 0 0 0 0 0 0 0 0 0 0 0 0 0 0 0 0 0 0 0 0 0 0 0 0 0 0 0 0 0 0 0 0 0 0 0 0 0 0 0 0 1 0 0 0 0 0 0 0 0 0 0 0 0zm0 0c0,6 -6,11 -12,11 -7,0 -12,-5 -12,-11l24 0zm0 1l0 21 0 0 -2 0 -1 0 -1 0 -1 0 -2 0 -1 -1 -1 0 -1 -1 -1 0 -1 -1 -1 0 -1 -1 -1 0 -1 -1 -1 -1 0 -1 -1 0 -1 -1 -1 -1 0 -1 -1 -1 0 -1 -1 -1 0 -1 -1 -1 0 -1 0 -1 0 -1 -1 -1 0 -1 0 -1 0 -1 24 0 0 0 0 0 0 1 0 0 0 0 0 0 0 0 0 0 0 0 0 0 0 0 0 0 0 0 0 0 0 0 0 1 0 0 0 0 0 0 0 0 0 0 0 0 0 0 0 0 0 0 0 0 0 0 0 0 0 -1 0 0 0 0 0 0 0 0zm0 0c6,0 11,5 11,11 0,6 -5,10 -11,10l0 -21zm0 -1l23 0 0 0 0 1 0 1 0 1 0 1 -1 1 0 1 0 1 -1 1 0 1 0 1 -1 1 -1 1 0 1 -1 1 -1 1 0 0 -1 1 -1 1 -1 1 -1 0 -1 1 -1 0 -1 1 -1 0 -1 1 -1 0 -1 1 -1 0 -2 0 -1 0 -1 0 -1 0 0 -21 0 0 -1 0 0 0 0 1 0 0 0 0 0 0 0 0 0 0 0 0 0 0 0 0 0 0 0 0 0 0 0 0 0 -1 0 0 0 0 0 0 0 0 0 0 0 0 0 0 1 0 0 0 0 0 0 0 0 0 0 -1 0 0 0 0 0 0zm0 0c0,-6 5,-10 11,-10 7,0 12,4 12,10l-23 0zm0 -1l0 -21 0 0 1 0 1 0 1 0 2 1 1 0 1 0 1 0 1 1 1 0 1 1 1 1 1 0 1 1 1 0 1 1 1 1 0 1 1 1 1 0 0 1 1 1 1 1 0 1 0 1 1 1 0 1 0 1 1 1 0 1 0 1 0 1 0 1 -23 0 0 0 0 0 0 0 0 0 0 0 0 -1 0 0 -1 0 0 0 0 0 0 0 0 0 0 0 0 0 0 0 0 0 0 0 0 0 0 0 0 0 0 0 0 0 0 0 0 0 0 0 0 0 0 0 0 0 0 0 0 0 1 0 0 0 0 0zm0 0c-7,0 -12,-5 -12,-11 0,-5 5,-10 12,-10l0 21z"/>
     </g>
     <path class="fil20 str1" d="M6116 1767l1 -5 69 50c12,11 20,16 36,17 0,0 0,0 0,0l6 0 1 0 1 0 5 0c16,0 24,-6 37,-17l69 -50"/>
    </g>
    <g>
     <path class="fil4 str1" d="M5691 2067c-29,-101 -163,-101 -240,-121 -10,-2 -19,-5 -28,-7 -9,-3 -18,-6 -26,-11 -32,-22 -33,-78 -38,-112 -4,-36 -7,-72 -7,-108 0,-13 0,-25 1,-38 -33,12 -53,37 -88,38 -3,0 -18,0 -32,0 -13,0 -25,0 -25,0 0,0 -13,0 -26,0 -14,0 -29,0 -31,0 -36,-1 -56,-26 -88,-38 0,13 0,25 0,38 0,36 -3,72 -7,108 -5,34 -6,90 -38,112 -8,5 -17,8 -26,11 -9,2 -18,5 -27,7 -78,20 -212,20 -241,121l-42 266 526 0 525 0 -42 -266z"/>
     <path class="fil5" d="M5444 1462c3,0 7,0 9,3 2,1 3,3 3,5 5,12 6,24 4,37 -12,17 -26,34 -34,53 -2,6 -7,17 -14,18 -8,1 -11,-9 -11,-15 -3,-30 2,-59 6,-88 0,-2 1,-5 2,-6 1,-2 4,-3 6,-4 9,-3 19,-4 29,-3z"/>
     <path class="fil4 str1" d="M5411 1578c-7,0 -10,-10 -10,-15 -1,-6 -1,-12 -1,-18 0,-23 3,-47 7,-70 0,-2 1,-5 2,-6 1,-2 4,-3 6,-4 7,-2 16,-4 24,-4 1,0 3,0 5,1 3,0 7,0 9,3 2,1 3,3 3,5 3,8 5,16 5,24 0,4 -1,8 -1,13 -12,17 -26,34 -34,53 -2,6 -7,17 -14,18 -1,0 -1,0 -1,0z"/>
     <path class="fil4 str1" d="M5427 1415l-21 207c-2,17 -9,33 -19,46l-99 98c-2,2 -3,4 -5,6 -13,15 -32,24 -53,24l-22 0 0 -603c122,0 239,89 219,222z"/>
     <path class="fil4 str1" d="M4972 1462c-3,0 -7,0 -9,3 -2,1 -3,3 -3,5 -5,12 -6,24 -4,37 12,17 26,34 34,53 2,6 7,17 14,18 8,1 11,-9 11,-15 3,-30 -2,-59 -6,-88 0,-2 -1,-5 -2,-6 -1,-2 -4,-3 -6,-4 -9,-3 -19,-4 -29,-3z"/>
     <path class="fil4 str1" d="M4988 1415l21 207c2,17 9,33 20,46l98 98c2,2 3,4 5,6 13,15 33,24 53,24l23 0 0 -603c-123,0 -240,89 -220,222z"/>
     <path class="fil21" d="M5691 2067c-29,-101 -163,-101 -240,-121 -10,-2 -19,-5 -28,-7 -9,-3 -18,-6 -26,-11 -32,-22 -33,-78 -38,-112 0,-3 0,-6 -1,-10 -41,17 -94,27 -150,27 -57,0 -109,-10 -151,-27 -1,4 -1,7 -1,10 -5,34 -6,90 -38,112 -8,5 -17,8 -26,11 -9,2 -18,5 -27,7 -78,20 -212,20 -241,121l-42 266 526 0 525 0 -42 -266z"/>
     <path class="fil22 str1" d="M5369 1806c9,4 5,18 5,25 1,13 2,26 5,39 0,4 1,7 2,10 5,14 17,29 11,44 -1,4 -4,6 -6,8 -17,13 -34,26 -54,34 -11,4 -24,7 -36,9 -34,7 -69,14 -104,10 -20,-2 -40,-8 -60,-13 -11,-3 -22,-6 -33,-9 -22,-6 -44,-14 -60,-29 -14,-14 -8,-31 -5,-48 1,-9 2,-18 3,-26 3,-18 4,-69 32,-67 6,1 12,4 18,6 46,21 98,32 150,30 21,-2 42,-6 64,-9 9,-1 18,-3 27,-6 10,-2 32,-13 41,-8z"/>
     <path class="fil23" d="M4766 2251l28 0 -14 25 -14 -25z"/>
     <path class="fil23" d="M4901 2251l28 0 -14 25 -14 -25z"/>
     <path class="fil3 str1" d="M4966 1236c11,-24 27,-46 49,-60 -11,-12 -25,-21 -40,-28 62,-19 129,-37 190,-16 -12,-12 -24,-25 -37,-37 42,0 83,0 123,7 43,8 84,26 117,54 16,15 21,26 23,47 38,1 66,57 73,88 6,26 5,54 4,81 -3,-9 -5,-17 -8,-25 -3,50 -21,99 -50,140 5,-31 10,-62 15,-93 -4,5 -9,9 -15,11 4,-28 -2,-56 -17,-79 -13,-22 -72,-13 -102,-12 36,-66 -112,6 -127,18 1,-10 1,-20 2,-30 -51,18 -95,52 -126,96 -3,-8 -5,-16 -4,-24 -19,31 -30,66 -33,101 -13,-17 -26,-34 -35,-54 -9,-20 -13,-42 -8,-63 -6,0 -13,0 -20,0 3,-34 7,-68 17,-100 3,-8 6,-15 9,-22z"/>
     <path class="fil23" d="M5037 2251l28 0 -14 25 -14 -25z"/>
     <path class="fil23" d="M5172 2251l28 0 -14 25 -14 -25z"/>
     <path class="fil23" d="M5308 2251l28 0 -14 25 -14 -25z"/>
     <path class="fil23" d="M5444 2251l28 0 -14 25 -14 -25z"/>
     <path class="fil23" d="M5579 2251l28 0 -14 25 -14 -25z"/>
     <path class="fil23" d="M4729 2196l40 -48c5,-7 16,-7 21,0l40 48c4,5 10,8 17,8 7,0 13,-3 17,-8l39 -48c3,-4 7,-5 11,-5 4,0 8,1 11,5l39 48c5,5 11,8 18,8 6,0 13,-3 17,-8l39 -48c5,-7 16,-7 22,0l39 48c4,5 11,8 17,8 7,0 13,-3 18,-8l39 -48c3,-4 6,-5 11,-5l0 0c4,0 8,1 10,5l40 48c4,5 10,8 17,8l0 0c7,0 13,-3 17,-8l40 -48c5,-7 16,-7 21,0l40 48c4,5 10,8 17,8l0 0c6,0 13,-3 17,-8l39 -48c6,-7 17,-7 22,0l39 48c5,5 11,8 18,8 6,0 13,-3 17,-8l39 -48c5,-7 16,-7 22,0l39 48c4,5 11,8 17,8l0 0c7,0 13,-3 18,-8l32 -40c0,-4 -1,-7 -1,-11l-38 46c-3,3 -6,5 -11,5l0 0c-4,0 -8,-2 -10,-5l-40 -49c-4,-5 -10,-8 -17,-8 -7,0 -13,3 -17,8l-40 49c-5,6 -16,6 -21,0l-40 -49c-4,-5 -10,-8 -17,-8l0 0c-7,0 -13,3 -17,8l-39 49c-3,3 -7,5 -11,5l0 0c-4,0 -8,-2 -11,-5l-39 -49c-5,-5 -11,-8 -18,-8 -6,0 -13,3 -17,8l-39 49c-5,6 -16,6 -22,0l-39 -49c-4,-5 -11,-8 -17,-8l0 0c-7,0 -13,3 -18,8l-39 49c-5,6 -16,6 -21,0l-40 -49c-4,-5 -10,-8 -17,-8 -7,0 -13,3 -17,8l-40 49c-5,6 -16,6 -21,0l-40 -49c-4,-5 -10,-8 -17,-8l0 0c-7,0 -13,3 -17,8l-39 49c-6,6 -17,6 -22,0l-39 -49c-5,-5 -11,-8 -18,-8 -6,0 -13,3 -17,8l-39 49c-5,5 -13,6 -19,2 -1,3 -1,6 -2,9 3,2 7,2 10,2 7,0 13,-3 17,-8z"/>
     <path class="fil23" d="M4729 2226l40 -48c5,-6 16,-6 21,0l40 48c4,6 10,9 17,9l0 0c7,0 13,-3 17,-9l39 -48c6,-6 17,-6 22,0l39 48c5,6 11,9 18,9 6,0 13,-3 17,-9l39 -48c3,-3 7,-5 11,-5l0 0c4,0 8,2 11,5l39 48c4,6 11,9 17,9 7,0 13,-3 18,-9l39 -48c5,-6 16,-6 21,0l40 48c4,6 10,9 17,9 7,0 13,-3 17,-9l40 -48c5,-6 16,-6 21,0l40 48c4,6 10,9 17,9l0 0c6,0 13,-3 17,-9l39 -48c3,-3 7,-5 11,-5l0 0c4,0 8,2 11,5l39 48c5,6 11,9 18,9l0 0c6,0 13,-3 17,-8l39 -49c3,-3 7,-5 11,-5 4,0 8,2 11,5l39 49c4,5 11,8 17,8l0 0c7,0 13,-3 18,-8l36 -46c0,-3 -1,-7 -1,-10 -1,0 -2,1 -2,2l-40 48c-5,7 -16,7 -21,0l-40 -48c-4,-5 -10,-8 -17,-8l0 0c-7,0 -13,3 -17,8l-40 48c-2,4 -6,5 -10,5l0 0c-5,0 -9,-1 -11,-5l-40 -48c-4,-5 -10,-8 -17,-8l0 0c-7,0 -13,3 -17,8l-39 48c-3,4 -7,5 -11,5l0 0c-4,0 -8,-1 -11,-5l-39 -48c-5,-5 -11,-8 -18,-8 -6,0 -13,3 -17,8l-39 48c-5,7 -16,7 -22,0l-39 -48c-4,-5 -11,-8 -17,-8 -7,0 -13,3 -18,8l-39 48c-5,7 -16,7 -21,0l-40 -48c-4,-5 -10,-8 -17,-8l0 0c-7,0 -13,3 -17,8l-40 48c-5,7 -16,7 -21,0l-40 -48c-4,-5 -10,-8 -17,-8 -7,0 -13,3 -17,8l-39 48c-3,4 -7,5 -11,5l0 0c-4,0 -8,-1 -11,-5l-39 -48c-5,-5 -11,-8 -18,-8 -6,0 -13,3 -17,8l-39 48c-5,7 -16,7 -22,0l-1 -2c-1,4 -1,7 -2,11 4,3 9,5 14,5 7,0 13,-3 17,-9z"/>
     <path class="fil24" d="M5458 2276l-14 -25 28 0 -14 25z"/>
     <path class="fil24" d="M5593 2276l-14 -25 28 0 -14 25z"/>
     <path class="fil24" d="M5397 1928c-2,-1 -3,-2 -5,-4 0,0 0,0 0,0 0,0 0,0 0,0 2,2 3,3 5,4zm-16 -48c0,0 0,0 0,0 0,0 0,0 0,0zm0 0c-1,-3 -2,-7 -2,-10 -3,-13 -4,-26 -5,-39 0,0 0,0 0,-1 0,1 0,1 0,1 1,13 2,26 5,39 0,3 1,7 2,10zm-6 -62c0,-3 -1,-6 -2,-8 1,2 2,5 2,8zm-17 -13c-4,-32 -6,-63 -6,-95 0,32 2,63 6,95 0,0 0,0 0,0zm-6 -95c0,-1 0,-1 0,-1 0,0 0,0 0,1zm0 -2c0,-2 0,-3 0,-5l0 0c0,2 0,3 0,5z"/>
     <path class="fil25" d="M5208 1796l-23 0c-20,0 -39,-9 -52,-23 13,14 32,23 52,23l23 0zm-81 -30l-59 -59 59 59z"/>
     <path class="fil24" d="M5655 2204l0 0c-6,0 -13,-3 -17,-8l-39 -48c-3,-4 -7,-5 -11,-5 -4,0 -8,1 -11,5l-39 48c-4,5 -11,8 -17,8 -7,0 -13,-3 -18,-8l-39 -48c-3,-4 -7,-5 -11,-5 -4,0 -8,1 -11,5l-39 48c-4,5 -11,8 -17,8l0 0c-7,0 -13,-3 -17,-8l-40 -48c-2,-4 -6,-5 -11,-5 -4,0 -8,1 -10,5l-5 6 -5 -8 3 -4c4,-5 11,-8 17,-8 7,0 13,3 18,8l39 49c3,3 7,5 11,5l0 0c4,0 8,-2 11,-5l39 -49c4,-5 10,-8 17,-8l0 0c7,0 13,3 17,8l40 49c2,3 6,5 11,5 4,0 8,-2 10,-5l40 -49c4,-5 10,-8 17,-8 7,0 13,3 17,8l40 49c2,3 6,5 10,5l0 0c5,0 8,-2 11,-5l38 -46 1 11 -32 40c-5,5 -11,8 -18,8z"/>
     <path class="fil24" d="M5655 2235l0 0c-6,0 -13,-3 -17,-8l-39 -49c-3,-3 -7,-5 -11,-5 -4,0 -8,2 -11,5l-39 49c-4,5 -11,8 -17,8l0 0c-7,0 -13,-3 -18,-9l-39 -48c-3,-3 -7,-5 -11,-5l0 0c-4,0 -8,2 -11,5l-39 48c-4,6 -11,9 -17,9l0 0c-7,0 -13,-3 -17,-9l-40 -48c-2,-3 -6,-5 -11,-5 -1,0 -3,1 -5,1l-4 -7c3,-2 6,-2 9,-2 7,0 13,3 18,8l39 48c3,4 7,5 11,5l0 0c4,0 8,-1 11,-5l39 -48c4,-5 10,-8 17,-8l0 0c7,0 13,3 17,8l40 48c2,4 6,5 11,5l0 0c4,0 8,-1 10,-5l40 -48c4,-5 10,-8 17,-8l0 0c7,0 13,3 17,8l40 48c2,4 6,5 10,5 4,0 8,-1 11,-5l40 -48c0,-1 1,-2 2,-2l1 10 -36 46c-5,5 -11,8 -18,8z"/>
     <path class="fil20 str2" d="M5207 1785l0 -465"/>
     <path class="fil26" d="M5230 1796l-22 0 22 0c14,0 26,-4 37,-11 -11,7 -23,11 -37,11zm58 -30l64 -63c0,0 0,0 0,0l-64 63z"/>
     <g>
      <path class="fil11" d="M5128 1454c-6,0 -11,5 -11,12 0,6 5,12 11,12 7,0 12,-6 12,-12 0,-7 -5,-12 -12,-12zm155 0c-7,0 -12,5 -12,12 0,6 5,12 12,12 6,0 11,-6 11,-12 0,-7 -5,-12 -11,-12z"/>
      <path id="1" class="fil12" d="M5128 1466l-23 0 0 0 0 -1 0 -1 0 -1 0 -1 1 -1 0 -1 0 -1 1 -1 0 -1 1 -1 0 -1 1 -1 0 -1 1 -1 1 -1 0 0 1 -1 1 -1 1 -1 1 0 1 -1 1 0 1 -1 1 0 1 -1 1 0 1 -1 1 0 2 0 1 0 1 0 1 0 0 21 0 0 1 0 0 0 0 0 0 0 0 0 0 0 0 0 0 0 0 -1 0 0 0 0 0 0 0 0 0 1 0 0 0 0 0 0 0 0 0 0 0 0 0 0 0 0 0 0 0 0 0 0 -1 0 0 0 0 1 0 0 0 0 0 0 0 0zm0 0c0,6 -5,10 -11,10 -7,0 -12,-4 -12,-10l23 0zm0 1l0 21 0 0 -1 0 -1 0 -1 0 -2 0 -1 -1 -1 0 -1 0 -1 -1 -1 0 -1 -1 -1 0 -1 -1 -1 -1 -1 0 -1 -1 -1 -1 0 -1 -1 0 -1 -1 0 -1 -1 -1 0 -1 -1 -1 0 -1 -1 -1 0 -1 0 -1 -1 -1 0 -1 0 -1 0 -1 0 -1 23 0 0 0 0 0 0 0 0 0 0 0 1 1 0 0 0 0 0 0 0 0 0 0 0 0 0 0 0 0 0 0 0 0 0 0 0 0 0 0 0 0 0 0 0 0 0 0 0 0 0 0 0 0 0 0 0 0 0 0 0 0 -1 0 0 0 0 0zm0 0c7,0 12,5 12,11 0,5 -5,10 -12,10l0 -21zm0 -1l24 0 0 0 0 1 0 1 0 1 -1 1 0 1 0 1 0 1 -1 1 0 1 -1 1 0 1 -1 1 0 1 -1 1 -1 0 -1 1 0 1 -1 1 -1 0 -1 1 -1 1 -1 0 -1 1 -1 0 -1 1 -1 0 -1 0 -2 1 -1 0 -1 0 -1 0 -2 0 0 -21 0 0 0 0 0 0 0 0 0 0 0 0 0 0 0 0 0 0 0 0 0 0 0 0 0 0 0 0 0 0 0 0 0 0 0 0 0 0 0 0 0 0 0 0 0 0 0 0 0 0 0 0 0 -1 0 0 0 0 0 0 0 0 0 0 0 0zm0 0c0,-6 6,-11 12,-11 7,0 12,5 12,11l-24 0zm0 -1l0 -21 0 0 2 0 1 0 1 0 1 0 2 0 1 1 1 0 1 1 1 0 1 1 1 0 1 1 1 0 1 1 1 1 0 1 1 0 1 1 1 1 0 1 1 1 0 1 1 1 0 1 1 1 0 1 0 1 0 1 1 1 0 1 0 1 0 1 -24 0 0 0 0 0 0 0 0 -1 0 0 0 0 0 0 0 0 0 0 0 0 0 0 0 0 0 0 0 0 0 0 0 0 0 0 0 -1 0 0 0 0 0 0 0 0 0 1 0 0 0 0 0 0 0 0 0 0 0 0 0 0 0 0 0 0 0 0zm0 0c-6,0 -11,-5 -11,-11 0,-6 5,-10 11,-10l0 21zm155 1l-24 0 0 0 0 -1 0 -1 0 -1 1 -1 0 -1 0 -1 0 -1 1 -1 0 -1 1 -1 0 -1 1 -1 0 -1 1 -1 1 -1 1 0 0 -1 1 -1 1 -1 1 0 1 -1 1 0 1 -1 1 0 1 -1 1 0 1 -1 2 0 1 0 1 0 1 0 2 0 0 21 0 0 0 0 0 0 0 0 0 0 0 0 0 0 0 0 0 -1 0 0 0 0 0 0 0 0 0 0 0 1 0 0 0 0 0 0 0 0 0 0 0 0 0 0 0 0 0 0 0 0 0 0 0 0 0 0 0 1 0 0 0 0 0 0 0 0zm0 0c0,6 -6,10 -12,10 -7,0 -12,-4 -12,-10l24 0zm0 1l0 21 0 0 -2 0 -1 0 -1 0 -1 0 -2 -1 -1 0 -1 0 -1 -1 -1 0 -1 -1 -1 0 -1 -1 -1 -1 -1 0 -1 -1 0 -1 -1 -1 -1 0 -1 -1 0 -1 -1 -1 0 -1 -1 -1 0 -1 -1 -1 0 -1 0 -1 0 -1 -1 -1 0 -1 0 -1 0 -1 24 0 0 0 0 0 0 0 0 0 0 0 0 1 0 0 0 0 0 0 0 0 0 0 0 0 0 0 0 0 0 0 0 0 0 0 0 0 0 0 0 0 0 0 0 0 0 0 0 0 0 0 0 0 0 0 0 0 0 0 0 0 0 0 0 0 0 0zm0 0c6,0 11,5 11,11 0,5 -5,10 -11,10l0 -21zm0 -1l23 0 0 0 0 1 0 1 0 1 0 1 -1 1 0 1 0 1 -1 1 0 1 0 1 -1 1 -1 1 0 1 -1 1 -1 0 0 1 -1 1 -1 1 -1 0 -1 1 -1 1 -1 0 -1 1 -1 0 -1 1 -1 0 -1 0 -1 1 -2 0 -1 0 -1 0 -1 0 0 -21 0 0 -1 0 0 0 0 0 0 0 0 0 0 0 0 0 0 0 0 0 0 0 0 0 0 0 0 0 0 0 0 0 0 0 0 0 0 0 0 0 0 0 0 0 0 0 0 0 0 0 1 0 0 -1 0 0 0 0 0 0 0 0 0 0 0 0zm0 0c0,-6 5,-11 11,-11 7,0 12,5 12,11l-23 0zm0 -1l0 -21 0 0 1 0 1 0 1 0 2 0 1 0 1 1 1 0 1 1 1 0 1 1 1 0 1 1 1 0 1 1 1 1 1 1 0 0 1 1 1 1 0 1 1 1 1 1 0 1 0 1 1 1 0 1 0 1 1 1 0 1 0 1 0 1 0 1 -23 0 0 0 0 0 0 0 0 -1 0 0 0 0 -1 0 0 0 0 0 0 0 0 0 0 0 0 0 0 0 0 0 0 0 0 0 0 -1 0 0 0 0 0 0 0 0 0 0 0 1 0 0 0 0 0 0 0 0 0 0 0 0 1 0 0 0 0 0zm0 0c-7,0 -12,-5 -12,-11 0,-6 5,-10 12,-10l0 21z"/>
     </g>
    </g>
    <g>
     <path class="fil4 str1" d="M7761 2068c-29,-101 -164,-101 -241,-121 -9,-2 -18,-4 -27,-7 -10,-3 -19,-6 -26,-11 -33,-22 -34,-78 -38,-112 -5,-36 -7,-72 -8,-108 0,-12 1,-25 1,-38 -33,12 -52,37 -88,38 -2,0 -17,0 -31,0 -14,0 -26,0 -26,0 0,0 -12,0 -25,0 -14,0 -29,0 -32,0 -35,-1 -55,-26 -88,-38 1,13 1,26 1,38 0,36 -3,72 -8,108 -4,34 -5,90 -37,112 -8,5 -17,8 -26,11 -9,3 -19,5 -28,7 -77,20 -212,20 -241,121l-42 266 526 0 526 0 -42 -266z"/>
     <path class="fil23" d="M7761 2068c-29,-101 -164,-101 -241,-121 -9,-2 -18,-4 -27,-7 -4,-1 -8,-2 -12,-4 -51,45 -124,73 -204,73 -80,0 -153,-28 -204,-73 -4,2 -7,3 -11,4 -9,3 -19,5 -28,7 -77,20 -212,20 -241,121l-42 266 526 0 526 0 -42 -266z"/>
     <path class="fil23 str1" d="M7438 1859l87 108 -164 151 -60 -152 137 -107z"/>
     <path class="fil23 str1" d="M7117 1859l-88 108 164 151 60 -152 -136 -107z"/>
     <path class="fil27 str1" d="M7538 1936l128 44c0,0 95,17 103,138l34 216 -278 0 13 -398z"/>
     <path class="fil28 str1" d="M7450 1874l9 -7 79 61 0 406 -159 0 71 -460z"/>
     <path class="fil27 str1" d="M7016 1936l-128 44c0,0 -95,17 -102,138l-35 216 278 0 -13 -398z"/>
     <path class="fil28 str1" d="M7104 1874l-9 -7 -79 61 0 406 159 0 -71 -460z"/>
     <path class="fil5" d="M7513 1463c4,0 7,0 10,3 1,1 2,3 3,5 4,12 5,25 3,37 -12,17 -25,34 -34,54 -2,5 -7,16 -14,17 -8,1 -10,-9 -11,-15 -2,-29 2,-59 6,-88 1,-2 1,-5 2,-6 2,-2 4,-3 6,-4 10,-3 20,-4 29,-3z"/>
     <path class="fil4 str1" d="M7480 1579c-7,0 -9,-10 -10,-15 0,-6 0,-12 0,-18 0,-23 3,-47 6,-70 1,-2 1,-5 2,-6 2,-2 4,-3 6,-4 8,-2 16,-4 24,-4 2,0 4,1 5,1 4,0 7,0 10,3 1,1 2,3 3,5 3,8 4,16 4,24 0,5 0,9 -1,13 -12,17 -25,34 -34,54 -2,5 -7,16 -14,17 0,0 -1,0 -1,0z"/>
     <path class="fil4 str1" d="M7497 1416l-21 207c-3,17 -9,33 -20,46l-98 99c-2,1 -4,3 -5,5 -13,15 -33,24 -53,24l-23 0 0 -603c122,0 239,89 220,222z"/>
     <path class="fil4 str1" d="M7042 1463c-4,0 -7,0 -10,3 -1,1 -2,3 -3,5 -4,12 -5,25 -3,37 12,17 25,34 34,54 2,5 7,16 14,17 8,1 10,-9 11,-15 2,-29 -2,-59 -6,-88 -1,-2 -1,-5 -2,-6 -2,-2 -4,-3 -6,-4 -10,-3 -20,-4 -29,-3z"/>
     <path class="fil4 str1" d="M7057 1416l22 207c2,17 9,33 19,46l99 99c1,1 3,3 4,5 14,15 33,24 53,24l23 0 0 -603c-122,0 -239,89 -220,222z"/>
     <path class="fil29 str1" d="M7495 1250c-13,-27 -30,-52 -52,-74 -68,-63 -175,-76 -261,-49 -20,7 -40,17 -56,31 -16,14 -21,26 -23,46 -31,1 -48,34 -57,60 -28,78 9,199 9,199l28 13c-6,-3 2,-56 3,-61 5,-36 16,-84 43,-110 26,23 63,31 97,36 39,7 79,8 118,2 -15,-8 -27,-20 -36,-33 34,18 71,35 109,31 -5,-6 -9,-12 -14,-18 8,10 28,12 39,18 16,10 26,31 31,49 4,15 5,30 6,46 0,4 5,38 1,40l24 -14c20,-68 20,-146 -9,-212z"/>
     <path class="fil30" d="M7403 2093c-1,8 -2,17 -8,23 -6,6 -16,8 -24,7 -25,-1 -46,-14 -67,-26 -24,-15 -48,-31 -65,-53 38,-30 81,-53 126,-69 12,-4 27,-7 36,2 6,7 7,17 7,26 0,30 -2,60 -5,90z"/>
     <path class="fil30 str1" d="M7151 2093c1,8 2,17 8,23 6,6 16,8 25,7 24,-1 46,-14 66,-26 24,-15 48,-31 65,-53 -38,-30 -80,-53 -126,-69 -12,-4 -27,-7 -36,2 -6,7 -7,17 -7,26 0,30 2,60 5,90z"/>
     <path class="fil24" d="M7803 2334l0 -1c0,0 0,0 0,1zm0 -1l0 0c0,0 0,0 0,0zm0 0l-34 -215c-1,-2 -1,-3 -1,-5 0,2 0,3 1,5l2 17c12,75 30,188 32,198zm-41 -255c0,0 0,0 0,0l-1 -9c0,1 0,4 1,9zm-312 -204l0 0 9 -7 -9 7zm-6 -7l-6 -8 6 8zm-10 -6c-2,-14 -3,-28 -4,-39 1,11 2,25 4,39l0 0zm-5 -40c0,0 0,0 0,0 0,0 0,0 0,0zm-8 -112c0,-1 0,-3 0,-5l0 0c0,2 0,4 0,5z"/>
     <path class="fil25" d="M7277 1797l-23 0c-20,0 -39,-9 -53,-24 -1,-2 -3,-4 -4,-5 1,1 3,3 4,5 14,15 33,24 53,24l23 0zm-80 -29l-60 -60 0 0 60 60z"/>
     <path class="fil26" d="M7300 1797l-23 0 23 0c18,0 36,-7 49,-20 -13,13 -31,20 -49,20zm54 -25c1,-2 2,-3 4,-4 -2,1 -3,2 -4,4z"/>
     <path class="fil31 str1" d="M7374 2123c-1,0 -2,0 -3,0 -6,0 -12,-1 -18,-2l-50 -35c0,-1 12,-41 12,-42 -1,-1 -2,-2 -3,-3l0 -15c0,-10 -8,-18 -18,-18l-1 0c7,-4 13,-7 20,-11l0 0c17,-8 34,-15 52,-22 6,-2 13,-4 20,-4 6,0 12,2 16,6 6,7 7,17 7,26 0,25 -1,50 -3,75 -1,5 -1,10 -2,15 -1,8 -2,17 -8,23 -5,6 -13,7 -21,7z"/>
     <path class="fil31" d="M7314 2046l-2 -4 0 -1c1,1 2,2 3,3 0,1 -1,1 -1,2z"/>
     <path class="fil32" d="M7312 2042l-19 -34 0 0 1 0c10,0 18,8 18,18l0 15 0 1z"/>
     <path class="fil33 str1" d="M7294 2087l-34 0c-9,0 -17,-8 -17,-18l0 -43c0,-10 8,-18 17,-18l34 0c10,0 18,8 18,18l0 43c0,10 -8,18 -18,18z"/>
     <path class="fil20 str2" d="M7277 1787l0 -426"/>
     <g>
      <path class="fil11" d="M7195 1455c-6,0 -11,6 -11,12 0,7 5,12 11,12 7,0 12,-5 12,-12 0,-6 -5,-12 -12,-12zm155 0c-7,0 -12,6 -12,12 0,7 5,12 12,12 6,0 11,-5 11,-12 0,-6 -5,-12 -11,-12z"/>
      <path id="1" class="fil12" d="M7195 1467l-23 0 0 0 0 -1 0 -1 0 -1 0 -1 1 -1 0 -1 0 -1 1 -1 0 -1 0 -1 1 -1 1 -1 0 -1 1 0 1 -1 0 -1 1 -1 1 -1 1 0 1 -1 1 0 1 -1 1 -1 1 0 1 -1 1 0 1 0 1 -1 2 0 1 0 1 0 1 0 0 21 0 0 1 0 0 0 0 0 0 0 0 0 0 0 0 0 0 0 0 0 0 0 0 0 0 0 0 0 0 0 0 0 0 0 0 0 0 0 0 0 0 0 0 0 0 0 0 0 0 0 -1 0 0 1 0 0 0 0 0 0 0 0 0 0 0 0zm0 0c0,6 -5,11 -11,11 -7,0 -12,-5 -12,-11l23 0zm0 1l0 21 0 0 -1 0 -1 0 -1 0 -2 0 -1 0 -1 -1 -1 0 -1 -1 -1 0 -1 -1 -1 0 -1 -1 -1 0 -1 -1 -1 -1 -1 -1 0 0 -1 -1 -1 -1 0 -1 -1 -1 -1 -1 0 -1 0 -1 -1 -1 0 -1 0 -1 -1 -1 0 -1 0 -1 0 -1 0 -1 23 0 0 0 0 0 0 1 0 0 0 0 0 0 1 0 0 0 0 0 0 0 0 0 0 0 0 0 0 0 0 0 0 1 0 0 0 0 0 0 0 0 0 0 0 0 0 0 0 0 0 0 0 0 0 0 0 -1 0 0 0 0 -1 0 0 0 0 0zm0 0c7,0 12,5 12,11 0,6 -5,10 -12,10l0 -21zm0 -1l24 0 0 0 0 1 0 1 0 1 -1 1 0 1 0 1 0 1 -1 1 0 1 -1 1 0 1 -1 1 0 1 -1 1 -1 1 -1 0 0 1 -1 1 -1 1 -1 0 -1 1 -1 0 -1 1 -1 0 -1 1 -1 0 -1 1 -2 0 -1 0 -1 0 -1 0 -2 0 0 -21 0 0 0 0 0 0 0 0 0 1 0 0 0 0 0 0 0 0 0 0 0 0 0 0 0 0 0 0 0 0 0 0 0 -1 0 0 0 0 0 0 0 0 0 0 0 0 0 0 0 0 0 0 0 0 0 0 0 0 0 -1 0 0 0 0 0 0zm0 0c0,-6 6,-10 12,-10 7,0 12,4 12,10l-24 0zm0 -1l0 -21 0 0 2 0 1 0 1 0 1 0 2 1 1 0 1 0 1 1 1 0 1 1 1 1 1 0 1 1 1 0 1 1 0 1 1 1 1 1 1 0 0 1 1 1 0 1 1 1 0 1 1 1 0 1 0 1 0 1 1 1 0 1 0 1 0 1 -24 0 0 0 0 0 0 0 0 0 0 0 0 -1 0 0 0 0 0 0 0 0 0 0 0 0 0 0 0 0 0 0 0 0 0 0 0 0 0 0 0 0 0 0 0 0 0 0 0 0 0 0 0 0 0 0 0 0 0 0 0 0 0 0 0 0 0 0zm0 0c-6,0 -11,-5 -11,-11 0,-5 5,-10 11,-10l0 21zm155 1l-24 0 0 0 0 -1 0 -1 0 -1 1 -1 0 -1 0 -1 0 -1 1 -1 0 -1 1 -1 0 -1 1 -1 0 -1 1 0 1 -1 1 -1 0 -1 1 -1 1 0 1 -1 1 0 1 -1 1 -1 1 0 1 -1 1 0 1 0 2 -1 1 0 1 0 1 0 2 0 0 21 0 0 0 0 0 0 0 0 0 0 0 0 0 0 0 0 0 0 0 0 0 0 0 0 0 0 0 0 0 0 0 0 0 0 0 0 0 0 0 0 0 0 0 0 0 0 0 0 0 0 0 0 0 1 0 0 0 0 0 0 0 0 0 0 0 0zm0 0c0,6 -6,11 -12,11 -7,0 -12,-5 -12,-11l24 0zm0 1l0 21 0 0 -2 0 -1 0 -1 0 -1 0 -2 0 -1 -1 -1 0 -1 -1 -1 0 -1 -1 -1 0 -1 -1 -1 0 -1 -1 -1 -1 0 -1 -1 0 -1 -1 -1 -1 0 -1 -1 -1 0 -1 -1 -1 0 -1 -1 -1 0 -1 0 -1 0 -1 -1 -1 0 -1 0 -1 0 -1 24 0 0 0 0 0 0 1 0 0 0 0 0 0 0 0 0 0 0 0 0 0 0 0 0 0 0 0 0 0 0 0 0 1 0 0 0 0 0 0 0 0 0 0 0 0 0 0 0 0 0 0 0 0 0 0 0 -1 0 0 0 0 0 0 0 0 0 0zm0 0c6,0 11,5 11,11 0,6 -5,10 -11,10l0 -21zm0 -1l23 0 0 0 0 1 0 1 0 1 0 1 -1 1 0 1 0 1 -1 1 0 1 -1 1 0 1 -1 1 0 1 -1 1 -1 1 0 0 -1 1 -1 1 -1 1 -1 0 -1 1 -1 0 -1 1 -1 0 -1 1 -1 0 -1 1 -1 0 -2 0 -1 0 -1 0 -1 0 0 -21 0 0 -1 0 0 0 0 0 0 1 0 0 0 0 0 0 0 0 0 0 0 0 0 0 0 0 0 0 0 0 0 0 0 -1 0 0 0 0 0 0 0 0 0 0 0 0 0 0 0 0 0 0 1 0 0 0 0 0 0 -1 0 0 0 0 0 0zm0 0c0,-6 5,-10 11,-10 7,0 12,4 12,10l-23 0zm0 -1l0 -21 0 0 1 0 1 0 1 0 2 0 1 1 1 0 1 0 1 1 1 0 1 1 1 1 1 0 1 1 1 0 1 1 1 1 0 1 1 1 1 0 0 1 1 1 0 1 1 1 0 1 1 1 0 1 0 1 1 1 0 1 0 1 0 1 0 1 -23 0 0 0 0 0 0 0 0 0 0 0 -1 -1 0 0 0 0 0 0 0 0 0 0 0 0 0 0 0 0 0 0 0 0 0 0 0 0 0 0 0 0 0 0 0 0 0 0 0 0 0 0 0 0 0 0 0 0 0 0 0 0 1 0 0 0 0 0zm0 0c-7,0 -12,-5 -12,-11 0,-5 5,-10 12,-10l0 21z"/>
     </g>
    </g>
   </g>
   <g>
    <path class="fil34 str3" d="M6555 3156l0 2232c-424,0 -1186,0 -1610,0l0 -2232 1610 0z"/>
    <g>
     <path class="fil35 str4" d="M5043 4137l17 0 0 112 75 -112 19 0 0 141 -17 0 0 -112 -76 112 -18 0 0 -141zm162 95l0 -14c7,0 12,0 15,-1 3,0 5,-2 8,-4 2,-3 3,-6 3,-10 0,-5 -1,-8 -5,-11 -3,-3 -7,-4 -12,-4 -9,0 -16,5 -20,17l-17 -3c5,-19 18,-29 37,-29 11,0 20,3 26,9 6,6 10,13 10,22 0,8 -5,15 -13,20 6,2 9,6 12,10 3,4 4,10 4,15 0,10 -3,17 -10,23 -7,6 -16,8 -28,8 -24,0 -37,-10 -41,-31l16 -3c2,6 5,11 9,15 5,4 10,5 16,5 6,0 11,-1 15,-5 4,-3 5,-7 5,-12 0,-4 -1,-8 -3,-11 -3,-3 -5,-4 -8,-5 -3,-1 -8,-1 -15,-1 -1,0 -2,0 -4,0zm141 -99l15 0c-1,7 -2,12 -5,15 -2,3 -5,4 -9,5 -3,1 -11,1 -21,1 -15,0 -24,2 -30,4 -5,3 -9,8 -11,14 -2,6 -3,14 -4,23 5,-6 10,-11 16,-15 6,-3 12,-4 20,-4 13,0 24,4 33,13 9,10 13,22 13,38 0,12 -2,22 -6,29 -5,8 -10,14 -16,18 -6,4 -15,6 -25,6 -12,0 -22,-2 -29,-8 -6,-5 -12,-13 -15,-21 -4,-9 -6,-24 -6,-46 0,-27 5,-45 14,-54 9,-10 23,-14 42,-14 12,0 19,-1 21,-1 1,0 2,-1 3,-3zm-1 93c0,-10 -3,-19 -8,-26 -5,-7 -12,-10 -21,-10 -10,0 -17,4 -22,11 -5,7 -8,17 -8,29 0,12 3,21 9,27 5,6 13,9 21,9 9,0 16,-3 21,-11 5,-7 8,-17 8,-29zm39 -50l18 0 0 78 48 -78 19 0 0 102 -18 0 0 -78 -48 78 -19 0 0 -102zm111 142l0 -142 16 0 0 13c3,-5 7,-9 12,-12 5,-2 11,-4 17,-4 9,0 17,3 23,7 7,5 12,11 16,19 3,8 5,17 5,27 0,11 -2,20 -6,28 -4,9 -9,15 -16,20 -7,4 -15,6 -23,6 -6,0 -11,-1 -16,-3 -4,-3 -8,-6 -11,-9l0 50 -17 0zm16 -90c0,13 2,22 8,29 5,6 11,9 19,9 8,0 14,-3 20,-10 5,-6 8,-16 8,-30 0,-13 -3,-23 -8,-29 -5,-7 -12,-10 -19,-10 -8,0 -14,3 -20,10 -6,7 -8,17 -8,31zm161 37c-7,6 -13,10 -19,12 -6,2 -12,3 -19,3 -11,0 -20,-2 -26,-8 -6,-5 -9,-12 -9,-21 0,-5 1,-9 3,-14 3,-4 6,-7 9,-10 4,-2 8,-4 13,-5 3,-1 8,-2 15,-3 14,-2 25,-4 31,-6 0,-2 0,-4 0,-4 0,-7 -1,-12 -4,-15 -5,-4 -12,-6 -20,-6 -9,0 -15,1 -19,4 -3,3 -6,8 -8,15l-17 -2c1,-7 4,-13 7,-18 4,-4 9,-8 16,-10 7,-2 14,-4 23,-4 9,0 16,1 22,3 5,3 9,5 12,8 2,3 4,7 5,12 1,3 1,8 1,16l0 23c0,16 0,27 1,31 1,4 2,8 4,12l-18 0c-2,-3 -3,-8 -3,-13zm-2 -38c-6,2 -15,5 -28,6 -7,1 -12,3 -15,4 -3,1 -6,3 -7,5 -2,3 -3,6 -3,9 0,4 2,8 6,11 3,3 8,5 15,5 7,0 13,-2 18,-5 5,-3 9,-6 12,-12 1,-3 2,-9 2,-17l0 -6zm31 -51l83 0 0 14 -32 0 0 88 -18 0 0 -88 -33 0 0 -14zm168 69l18 2c-3,11 -8,19 -16,25 -7,6 -17,8 -29,8 -15,0 -27,-4 -36,-13 -8,-10 -13,-23 -13,-39 0,-17 5,-31 13,-40 9,-10 21,-15 35,-15 14,0 25,5 34,14 8,10 13,23 13,40 0,1 0,2 -1,4l-76 0c1,12 4,20 10,26 5,6 12,9 21,9 6,0 12,-1 16,-5 5,-3 8,-9 11,-16zm-57 -28l57 0c-1,-9 -3,-15 -6,-19 -6,-7 -13,-10 -22,-10 -8,0 -15,2 -20,8 -5,5 -8,12 -9,21zm99 -41l81 0 0 102 -18 0 0 -88 -46 0 0 51c0,12 0,20 -1,24 -1,3 -3,7 -6,10 -4,2 -9,4 -15,4 -4,0 -9,0 -14,-1l0 -14 7 0c4,0 6,-1 8,-2 2,0 3,-1 3,-3 1,-2 1,-7 1,-16l0 -67zm106 0l18 0 0 40 22 0c14,0 25,2 33,8 8,6 12,13 12,23 0,9 -3,16 -10,22 -6,6 -17,9 -31,9l-44 0 0 -102zm18 88l18 0c11,0 19,-1 24,-4 5,-3 7,-7 7,-13 0,-4 -2,-8 -5,-12 -4,-3 -11,-5 -23,-5l-21 0 0 34zm86 -88l17 0 0 42 49 0 0 -42 17 0 0 102 -17 0 0 -45 -49 0 0 45 -17 0 0 -102zm207 0l17 0 0 102 -17 0 0 -102zm-97 0l17 0 0 40 22 0c15,0 26,2 33,8 8,6 12,13 12,23 0,9 -3,16 -10,22 -6,6 -17,9 -31,9l-43 0 0 -102zm17 88l19 0c11,0 18,-1 23,-4 5,-3 7,-7 7,-13 0,-4 -2,-8 -5,-12 -4,-3 -11,-5 -23,-5l-21 0 0 34zm124 -88l18 0 0 78 48 -78 19 0 0 102 -17 0 0 -78 -49 78 -19 0 0 -102zm61 -38l12 0c-1,8 -4,14 -9,18 -5,5 -12,7 -20,7 -8,0 -15,-2 -20,-7 -5,-4 -8,-10 -9,-18l12 0c1,4 3,7 6,10 2,2 6,3 10,3 6,0 10,-1 12,-3 3,-2 5,-6 6,-10zm-976 259l18 0 0 44c5,0 9,-1 12,-3 2,-2 5,-9 9,-19 4,-8 7,-13 9,-16 2,-2 4,-4 7,-5 3,-1 7,-1 13,-1l4 0 0 14 -5 0c-5,0 -7,1 -9,2 -1,1 -3,6 -6,13 -3,6 -5,11 -7,14 -2,2 -6,4 -10,7 7,2 14,9 22,21l19 31 -19 0 -19 -31c-4,-7 -7,-11 -10,-13 -3,-2 -6,-3 -10,-3l0 47 -18 0 0 -102zm83 51c0,-19 5,-33 16,-42 9,-8 19,-12 32,-12 14,0 26,5 35,14 9,10 13,22 13,39 0,13 -2,23 -6,31 -4,7 -10,13 -17,17 -8,4 -16,7 -25,7 -14,0 -26,-5 -35,-14 -9,-9 -13,-23 -13,-40zm18 0c0,13 3,23 8,29 6,7 13,10 22,10 9,0 16,-3 22,-10 5,-6 8,-16 8,-30 0,-12 -3,-22 -8,-28 -6,-7 -13,-10 -22,-10 -9,0 -16,3 -22,10 -5,6 -8,16 -8,29zm108 -51l71 0 0 88 12 0 0 43 -15 0 0 -29 -81 0 0 29 -14 0 0 -43 9 0c12,-17 18,-46 18,-88zm14 14c-1,33 -6,58 -15,74l55 0 0 -74 -40 0zm158 55l18 2c-3,11 -8,19 -16,25 -8,6 -17,9 -29,9 -15,0 -27,-5 -36,-14 -9,-10 -13,-22 -13,-39 0,-17 4,-31 13,-40 9,-10 21,-15 35,-15 13,0 25,5 33,14 9,10 13,23 13,40 0,1 0,2 0,4l-76 0c0,12 4,20 9,26 6,6 13,9 22,9 6,0 11,-1 16,-5 4,-3 8,-9 11,-16zm-57 -28l57 0c-1,-8 -3,-15 -7,-19 -5,-7 -12,-10 -21,-10 -8,0 -15,2 -20,8 -6,5 -9,12 -9,21zm96 -41l18 0 0 44c5,0 9,-1 12,-3 2,-2 5,-9 9,-19 4,-8 7,-13 9,-16 2,-2 4,-4 7,-5 3,-1 7,-1 13,-1l4 0 0 14 -5 0c-5,0 -7,1 -9,2 -1,1 -3,6 -6,13 -3,6 -5,11 -7,14 -2,2 -6,4 -10,7 7,2 15,9 22,21l19 31 -19 0 -19 -31c-4,-7 -7,-11 -10,-13 -3,-2 -6,-3 -10,-3l0 47 -18 0 0 -102zm157 65l17 2c-2,12 -7,21 -15,28 -7,6 -17,10 -28,10 -14,0 -25,-5 -34,-14 -8,-9 -13,-23 -13,-40 0,-11 2,-20 6,-29 3,-8 9,-14 17,-18 7,-4 15,-7 24,-7 11,0 20,3 27,9 7,6 12,14 14,24l-17 2c-1,-6 -4,-12 -8,-15 -5,-4 -9,-5 -15,-5 -9,0 -16,3 -22,9 -5,6 -8,16 -8,30 0,14 3,24 8,30 5,6 12,9 21,9 7,0 12,-2 17,-6 4,-4 7,-11 9,-19zm-915 258l55 -73 -48 -68 22 0 26 36c6,8 9,13 11,17 4,-5 7,-10 12,-16l28 -37 21 0 -50 67 53 74 -23 0 -35 -50c-3,-3 -4,-6 -6,-9 -3,5 -6,8 -7,10l-36 49 -23 0zm212 -12c-7,5 -13,9 -19,11 -6,2 -12,4 -19,4 -11,0 -20,-3 -26,-9 -6,-5 -9,-12 -9,-21 0,-5 1,-9 3,-13 2,-5 5,-8 9,-10 4,-3 8,-5 13,-6 3,-1 8,-2 15,-3 14,-1 25,-3 31,-6 0,-2 0,-4 0,-4 0,-7 -1,-12 -5,-15 -4,-4 -11,-6 -19,-6 -9,0 -15,1 -19,4 -4,3 -6,8 -8,16l-17 -3c1,-7 4,-13 7,-17 4,-5 9,-8 16,-11 6,-2 14,-3 23,-3 9,0 16,1 22,3 5,2 9,4 12,7 2,4 4,8 5,12 1,3 1,9 1,16l0 23c0,17 0,27 1,31 1,4 2,8 4,12l-18 0c-2,-3 -3,-8 -3,-12zm-2 -39c-6,3 -15,5 -28,7 -7,1 -12,2 -15,3 -3,1 -6,3 -7,6 -2,2 -3,5 -3,8 0,4 2,8 6,11 3,3 8,5 15,5 7,0 13,-1 18,-4 5,-3 9,-7 11,-12 2,-4 3,-10 3,-18l0 -6zm120 -94l15 1c-1,6 -2,11 -5,14 -2,3 -5,4 -9,5 -3,1 -11,1 -21,1 -15,0 -24,2 -30,5 -5,2 -9,7 -11,13 -2,6 -3,14 -4,23 5,-6 10,-11 16,-14 6,-4 12,-5 19,-5 14,0 25,4 34,14 9,9 13,21 13,37 0,12 -2,22 -7,30 -4,7 -9,13 -15,17 -6,5 -15,7 -25,7 -12,0 -22,-3 -29,-9 -6,-5 -12,-12 -15,-21 -4,-9 -6,-24 -6,-45 0,-28 5,-46 14,-55 9,-10 23,-14 42,-14 12,0 19,0 20,-1 2,0 3,-1 4,-3zm-1 94c0,-11 -3,-20 -8,-27 -5,-6 -12,-10 -21,-10 -10,0 -17,4 -22,11 -5,7 -8,17 -8,29 0,12 3,21 9,27 5,6 12,10 21,10 9,0 16,-4 21,-11 5,-8 8,-17 8,-29zm102 39c-7,5 -13,9 -19,11 -6,2 -12,4 -19,4 -12,0 -20,-3 -26,-9 -6,-5 -9,-12 -9,-21 0,-5 1,-9 3,-13 2,-5 5,-8 9,-10 4,-3 8,-5 13,-6 3,-1 8,-2 15,-3 14,-1 25,-3 31,-6 0,-2 0,-4 0,-4 0,-7 -1,-12 -5,-15 -4,-4 -11,-6 -20,-6 -8,0 -14,1 -18,4 -4,3 -7,8 -8,16l-17 -3c1,-7 4,-13 7,-17 4,-5 9,-8 16,-11 6,-2 14,-3 23,-3 9,0 16,1 21,3 6,2 10,4 13,7 2,4 4,8 5,12 1,3 1,9 1,16l0 23c0,17 0,27 1,31 1,4 2,8 4,12l-18 0c-2,-3 -3,-8 -3,-12zm-2 -39c-6,3 -16,5 -28,7 -7,1 -13,2 -15,3 -3,1 -6,3 -7,6 -2,2 -3,5 -3,8 0,4 2,8 5,11 4,3 9,5 16,5 7,0 13,-1 18,-4 5,-3 9,-7 11,-12 2,-4 3,-10 3,-18l0 -6zm45 91l0 -142 15 0 0 13c4,-5 8,-9 13,-12 5,-2 11,-3 17,-3 9,0 17,2 23,6 7,5 12,11 16,19 3,9 5,18 5,27 0,11 -2,20 -6,29 -4,8 -9,14 -16,19 -8,4 -15,7 -23,7 -6,0 -11,-2 -16,-4 -4,-2 -8,-6 -11,-9l0 50 -17 0zm15 -90c0,13 3,23 8,29 6,6 12,9 20,9 8,0 14,-3 20,-9 5,-7 8,-17 8,-31 0,-13 -3,-23 -8,-29 -6,-7 -12,-10 -19,-10 -8,0 -14,4 -20,11 -6,6 -9,17 -9,30zm88 -1c0,-19 5,-33 16,-42 9,-8 20,-11 32,-11 14,0 26,4 35,13 9,10 13,22 13,39 0,13 -2,23 -6,31 -4,7 -9,13 -17,17 -7,5 -16,7 -25,7 -14,0 -26,-5 -35,-14 -8,-9 -13,-23 -13,-40zm18 0c0,13 3,23 9,30 5,6 13,9 21,9 9,0 16,-3 22,-9 6,-7 9,-17 9,-30 0,-13 -3,-23 -9,-29 -6,-7 -13,-10 -22,-10 -8,0 -16,3 -21,10 -6,6 -9,16 -9,29zm99 -51l40 0c10,0 17,1 22,2 5,2 9,5 12,9 4,5 5,10 5,16 0,5 -1,9 -3,13 -2,4 -5,7 -9,9 5,2 9,5 12,9 3,4 5,10 5,16 -1,9 -4,17 -11,21 -6,5 -15,7 -27,7l-46 0 0 -102zm17 43l19 0c7,0 12,0 15,-1 3,-1 5,-2 7,-5 2,-2 3,-5 3,-8 0,-6 -1,-9 -5,-12 -4,-2 -11,-3 -20,-3l-19 0 0 29zm0 45l23 0c10,0 17,-1 20,-3 4,-3 6,-6 6,-12 0,-3 -1,-6 -3,-9 -2,-3 -5,-5 -8,-6 -4,0 -9,-1 -17,-1l-21 0 0 31zm153 -23l17 2c-2,12 -7,21 -15,28 -7,6 -17,10 -28,10 -14,0 -25,-5 -34,-14 -8,-9 -12,-22 -12,-40 0,-11 1,-20 5,-29 4,-8 9,-14 17,-18 7,-4 15,-6 24,-6 11,0 21,2 28,8 7,6 11,14 13,24l-17 3c-1,-7 -4,-12 -8,-16 -4,-3 -9,-5 -15,-5 -9,0 -16,3 -21,9 -6,7 -9,16 -9,30 0,14 3,24 8,30 6,6 12,9 21,9 7,0 13,-2 17,-6 5,-4 8,-10 9,-19zm31 -65l18 0 0 44c5,0 9,-1 12,-3 2,-2 5,-8 9,-19 4,-8 7,-13 9,-16 2,-2 4,-4 7,-5 3,-1 7,-1 13,-1l4 0 0 14 -5 0c-5,0 -7,1 -9,2 -1,1 -3,6 -6,13 -3,6 -5,11 -7,14 -2,2 -6,5 -10,7 7,2 14,9 22,21l19 31 -19 0 -19 -31c-4,-7 -7,-11 -10,-13 -3,-2 -6,-3 -10,-3l0 47 -18 0 0 -102zm83 51c0,-19 5,-33 16,-42 9,-8 19,-11 32,-11 14,0 26,4 35,13 9,10 13,22 13,39 0,13 -2,23 -6,31 -4,7 -10,13 -17,17 -8,5 -16,7 -25,7 -14,0 -26,-5 -35,-14 -9,-9 -13,-23 -13,-40zm18 0c0,13 3,23 8,30 6,6 13,9 22,9 9,0 16,-3 22,-9 5,-7 8,-17 8,-30 0,-13 -3,-23 -8,-29 -6,-7 -13,-10 -22,-10 -9,0 -16,3 -22,10 -5,6 -8,16 -8,29zm98 -51l60 0 0 14 -42 0 0 88 -18 0 0 -102zm62 51c0,-19 5,-33 16,-42 8,-8 19,-11 32,-11 14,0 26,4 35,13 8,10 13,22 13,39 0,13 -2,23 -6,31 -4,7 -10,13 -17,17 -8,5 -16,7 -25,7 -14,0 -26,-5 -35,-14 -9,-9 -13,-23 -13,-40zm18 0c0,13 2,23 8,30 6,6 13,9 22,9 9,0 16,-3 22,-9 5,-7 8,-17 8,-30 0,-13 -3,-23 -9,-29 -5,-7 -13,-10 -21,-10 -9,0 -16,3 -22,10 -6,6 -8,16 -8,29zm-739 170l18 0 0 44c5,0 9,-1 11,-3 3,-2 6,-8 10,-19 4,-8 7,-13 9,-16 2,-2 4,-4 7,-5 3,-1 7,-1 13,-1l4 0 0 14 -5 0c-5,0 -8,1 -9,2 -1,2 -3,6 -6,13 -3,7 -5,11 -7,14 -2,2 -6,5 -10,7 7,2 14,9 22,21l19 32 -19 0 -19 -32c-4,-7 -7,-11 -10,-13 -3,-2 -6,-3 -10,-3l0 48 -18 0 0 -103zm87 142l0 -142 16 0 0 13c4,-5 8,-9 13,-11 4,-3 10,-4 17,-4 9,0 16,2 23,6 7,5 12,11 15,19 4,9 5,18 5,27 0,11 -2,20 -5,29 -4,8 -10,15 -17,19 -7,4 -15,7 -22,7 -6,0 -11,-2 -16,-4 -5,-2 -8,-5 -11,-9l0 50 -18 0zm16 -90c0,13 3,23 8,29 5,6 12,9 19,9 8,0 15,-3 20,-9 6,-7 8,-17 8,-31 0,-13 -2,-22 -8,-29 -5,-6 -11,-10 -19,-10 -7,0 -14,4 -19,11 -6,7 -9,17 -9,30z"/>
     <path class="fil35 str4" d="M5818 4929c-6,5 -12,9 -18,11 -6,3 -13,4 -20,4 -11,0 -20,-3 -26,-9 -6,-5 -9,-12 -9,-21 0,-5 1,-9 4,-13 2,-4 5,-8 9,-10 3,-3 8,-5 12,-6 4,-1 9,-2 16,-3 14,-1 24,-3 31,-6 0,-2 0,-3 0,-4 0,-7 -2,-12 -5,-15 -4,-4 -11,-6 -20,-6 -8,0 -14,2 -18,4 -4,3 -7,8 -9,16l-17 -3c2,-7 4,-13 8,-17 3,-5 9,-8 15,-11 7,-2 15,-3 24,-3 8,0 16,1 21,3 6,2 10,4 12,8 3,3 5,7 6,11 0,3 1,9 1,16l0 23c0,17 0,27 1,31 0,4 2,9 4,13l-18 0c-2,-4 -3,-8 -4,-13zm-1 -39c-6,3 -16,5 -29,7 -7,1 -12,2 -15,3 -3,1 -5,3 -7,6 -1,2 -2,5 -2,8 0,5 2,8 5,11 4,3 9,5 16,5 6,0 12,-1 18,-4 5,-3 9,-7 11,-12 2,-4 3,-10 3,-18l0 -6zm125 -51l0 103 -17 0 0 -40 -10 0c-6,0 -11,0 -14,2 -3,2 -7,7 -13,15l-15 23 -22 0 19 -28c6,-8 11,-13 17,-14 -10,-2 -17,-5 -22,-11 -5,-6 -7,-13 -7,-20 0,-9 3,-16 9,-22 6,-5 16,-8 28,-8l47 0zm-17 14l-25 0c-10,0 -17,2 -20,5 -3,3 -4,7 -4,11 0,7 2,11 6,14 5,3 12,4 24,4l19 0 0 -34z"/>
    </g>
    <g>
     <path class="fil36" d="M5807 3905l-4 15c-1,0 -1,0 -2,0l-7 3c0,1 -1,2 -2,2 0,1 -1,2 -1,3l-8 -5 -5 9 -9 -12 -3 9c-4,-4 -6,-6 -12,-10l-36 -1c-9,0 -9,4 -17,7l3 -17c-1,2 -1,2 -5,5 -1,0 -7,3 -9,4l4 -14c1,0 1,0 1,0l-10 4 5 -28c-35,-14 -42,-41 -73,-44 -3,-6 7,1 -9,-10 -9,-7 0,-6 -12,-17l10 0c-15,-15 -3,-4 -10,-25 -4,-11 -8,-23 -9,-37 9,4 16,14 22,21 18,22 58,48 93,36l-31 -4c-14,-2 -14,-1 -26,-8l-71 -68c-14,-19 -18,-13 -21,-22 -2,-7 1,-8 1,-8 0,-1 3,-5 4,-6 -10,1 -6,2 -13,-1 6,-4 8,-5 12,-9l-4 -11c3,-4 6,-6 9,-10 14,-16 -4,-5 11,-17 25,-20 48,-81 132,-118l14 -8c-14,-17 -14,-10 -30,-13 -1,0 -8,-3 -8,-3 -18,-11 -9,-18 -8,-24 -5,5 -6,4 -14,4 -28,1 -30,-6 -26,-25l13 -5 3 13c26,2 45,5 69,8 -8,-29 -42,-8 -57,-14l-3 -17c-3,-10 -5,-10 -8,-19l3 -2c8,-5 96,-13 101,-13 -4,-11 -7,-12 -5,-25 15,-9 24,-11 43,1 -4,9 -5,16 -10,26 23,-1 2,-31 34,-32 18,0 37,19 45,26 0,0 -2,0 -2,1l-20 15c-6,4 -3,1 -10,6 13,24 35,35 40,37 -1,1 -2,1 -3,2 -2,9 -2,-1 -7,7l17 9c-1,4 -1,2 -2,5 -2,3 -1,0 -2,4l19 10c-5,3 -7,2 -8,3 -8,5 -2,-1 -9,7l37 18c0,-1 -1,-2 -2,0 -1,4 -1,-1 -10,5l14 4 -10 8c7,7 9,2 12,11 0,0 0,1 0,1l18 55c9,22 18,70 32,85 -7,5 0,0 -8,2 0,0 -1,0 -2,0 0,0 -1,0 -2,0l6 21 -16 -8 4 14c1,0 0,0 0,0 -2,7 2,-1 -7,2 0,0 -1,1 -2,1l6 12 -11 -5c2,8 0,4 5,12 -11,-3 -8,-7 -21,6l9 -1c-4,25 -18,48 -11,64 0,0 9,-2 -6,8l11 5c-19,10 -8,3 -8,8l-4 9c0,0 0,1 0,1 -25,1 -40,26 -87,41 -13,4 -26,5 -14,21zm-53 76c11,-29 35,-37 75,-37 188,0 182,10 182,-147 0,-146 3,-296 0,-442l-518 2c-1,147 -1,295 -1,443 -1,157 -12,144 185,144 19,0 34,3 47,10 16,9 19,19 30,27z"/>
     <path class="fil37" d="M5715 3806c0,0 -2,-1 -2,-2 0,-1 -1,-1 -1,-2 15,6 30,23 36,34 15,-9 13,-21 30,-33 -43,72 -21,21 -81,73 12,-21 31,-30 51,-38l-33 -32zm-1 -11c6,-10 1,-10 11,-16 11,4 15,2 4,12 -5,5 -7,5 -15,4zm33 -26l13 -5 2 7 4 9c3,10 5,10 9,17 -17,-2 -12,-5 -23,-8 -5,-6 -8,8 -5,-7l0 -13zm-26 10c3,-16 4,-12 -3,-26 30,11 0,5 20,14l-3 4c-5,8 0,7 -14,8zm50 -26c-2,3 -4,6 -7,8 -13,6 -10,-2 -11,-3l18 -5zm-27 -223c10,-9 -9,8 6,-4 7,2 7,2 12,7l4 -7 18 6c-9,7 11,8 -15,2 6,17 3,5 -1,10 -26,-13 0,9 -30,-7l6 -7zm46 49l31 2 1 121 -2 8 -1 9c19,-34 18,-55 24,-66l8 -8c-2,24 -8,48 -15,67 -7,20 -3,11 -17,17 -9,5 -7,10 -21,5 -14,9 -35,-2 -51,18 -26,-19 -17,-10 -41,-14l-14 -4c-26,16 -62,-79 -48,-103 -1,16 6,72 21,79 7,4 1,6 6,0 -3,-3 -2,5 -4,-8l2 -122 46 -1c-8,-15 -16,-27 -22,-46 14,9 21,17 39,23 26,9 66,-28 142,-30 -25,17 -69,29 -84,53zm20 -65c5,4 3,1 6,5l5 6c-32,10 -13,-9 -13,-9 0,-1 1,-1 2,-2zm26 5c0,-1 -1,1 -1,2 -11,-4 -11,-4 -18,-16l18 4c-4,-2 -2,-1 -5,-10 31,6 16,2 27,-1 5,7 2,2 5,8 -7,5 -6,3 -15,1l4 8 -18 -1c6,2 3,5 3,5zm-156 -41c2,-1 2,-5 15,-3 11,2 8,2 13,6 -12,2 -16,3 -28,-3zm68 -51c-5,8 -5,7 -15,11l-6 -10c6,-3 1,-5 7,4 13,-10 -5,-12 14,-5zm55 -19c1,-16 13,-14 26,-10 -11,17 -17,14 -26,10zm-85 60c-3,11 1,4 -6,9l-39 -4c-1,6 -10,13 8,24 0,0 7,3 8,3 16,3 16,-4 30,13l-14 8c-84,37 -107,98 -132,118 -15,12 3,1 -11,17 -3,4 -6,6 -9,10l4 11c-4,4 -6,5 -12,9 7,3 3,2 13,1 -1,1 -4,5 -4,6 0,0 -3,1 -1,8 3,9 7,3 21,22l71 68c12,7 12,6 26,8l31 4c-35,12 -75,-14 -93,-36 -6,-7 -13,-17 -22,-21 1,14 5,26 9,37 7,21 -5,10 10,25l-10 0c12,11 3,10 12,17 16,11 6,4 9,10 31,3 38,30 73,44 3,3 3,-2 8,11 8,18 -8,-2 3,7l5 2c0,-1 2,1 3,2 -2,3 1,6 -5,7l-3 17c8,-3 8,-7 17,-7l36 1 -1 -8c11,5 25,5 33,2l5 -2c0,-1 1,-2 2,-2l14 -4c-12,-16 1,-17 14,-21 47,-15 62,-40 87,-41 0,0 0,-1 0,-1l4 -9c0,-5 -11,2 8,-8l-11 -5c15,-10 6,-8 6,-8 -7,-16 7,-39 11,-64l-9 1c13,-13 10,-9 21,-6 -5,-8 -3,-4 -5,-12l11 5 -6 -12c1,0 2,-1 2,-1 9,-3 5,5 7,-2 0,0 1,0 0,0l-4 -14 16 8 -6 -21c1,0 2,0 2,0 1,0 2,0 2,0 8,-2 1,3 8,-2 -14,-15 -23,-63 -32,-85l-18 -55c0,0 0,-1 0,-1 -3,-9 -5,-4 -12,-11l10 -8 -14 -4c9,-6 9,-1 10,-5 1,-2 2,-1 2,0l-37 -18c7,-8 1,-2 9,-7 1,-1 3,0 8,-3l-19 -10c1,-4 0,-1 2,-4 1,-3 1,-1 2,-5l-17 -9c5,-8 5,2 7,-7 1,-1 2,-1 3,-2 -5,-2 -27,-13 -40,-37 7,-5 4,-2 10,-6l20 -15c0,-1 2,-1 2,-1 -8,-7 -27,-26 -45,-26 -32,1 -11,31 -34,32 5,-10 6,-17 10,-26 -19,-12 -28,-10 -43,-1 -2,13 1,14 5,25 -5,0 -93,8 -101,13l-3 2c3,9 5,9 8,19l3 17c15,6 49,-15 57,14z"/>
     <path class="fil38" d="M5754 3981c-11,-8 -14,-18 -30,-27 -13,-7 -28,-10 -47,-10 -197,0 -186,13 -185,-144 0,-148 0,-296 1,-443l518 -2c3,146 0,296 0,442 0,157 6,147 -182,147 -40,0 -64,8 -75,37zm-276 -604l0 489c0,124 127,83 211,92 47,5 36,41 61,41 30,0 11,-36 60,-41 86,-9 211,34 211,-95l0 -486c0,-16 -3,-14 -3,-29 -15,-1 -15,-6 -31,-6l-474 0c-25,0 -35,10 -35,35z"/>
     <path class="fil39" d="M5676 3706l-5 4c-5,6 1,4 -6,0 -15,-7 -22,-63 -21,-79 -14,24 22,119 48,103 8,-6 22,-17 28,-24 11,-11 13,-17 27,-24 25,18 44,43 51,48 14,5 12,0 21,-5 14,-6 10,3 17,-17 7,-19 13,-43 15,-67l-8 8c-6,11 -5,32 -24,66l1 -9 -3 -4c-10,-4 -19,-15 -27,-22 -11,-11 -11,-16 -24,-26l0 -76c-13,-4 -28,-4 -42,0l1 76 -49 48z"/>
     <path class="fil40" d="M5676 3706l49 -48 -1 -76 -55 0 1 95c0,35 -1,25 6,29z"/>
     <path class="fil40" d="M5817 3706c6,-8 2,-87 2,-105l0 -18 -53 -1 0 76c13,10 13,15 24,26 8,7 17,18 27,22z"/>
     <path class="fil41" d="M5715 3579l75 0c15,-24 59,-36 84,-53 -76,2 -116,39 -142,30 -18,-6 -25,-14 -39,-23 6,19 14,31 22,46z"/>
     <path class="fil40" d="M5713 3724c12,-7 24,-4 30,-12 13,9 12,9 31,5l1 14c-18,-8 -9,-3 -17,0 -15,5 -38,2 -45,-7zm-21 10l14 4c24,4 15,-5 41,14 16,-20 37,-9 51,-18 -7,-5 -26,-30 -51,-48 -14,7 -16,13 -27,24 -6,7 -20,18 -28,24z"/>
     <path class="fil42" d="M5644 3456c2,7 2,6 5,12l19 -1c-10,4 -24,3 -27,-4 -4,-12 2,-6 3,-7zm29 17l39 4c7,-5 3,2 6,-9 -24,-3 -43,-6 -69,-8l-3 -13 -13 5c-4,19 -2,26 26,25 8,0 9,1 14,-4z"/>
     <path class="fil43" d="M5713 3724c7,9 30,12 45,7 8,-3 -1,-8 17,0l-1 -14c-19,4 -18,4 -31,-5 -6,8 -18,5 -30,12z"/>
     <path class="fil44" d="M5748 3838c-20,8 -39,17 -51,38 60,-52 38,-1 81,-73 -17,12 -15,24 -30,33 -6,-11 -21,-28 -36,-34 0,1 1,1 1,2 0,1 2,2 2,2l33 32z"/>
     <path class="fil45" d="M5754 3919c6,4 8,6 12,10l3 -9 9 12 5 -9 8 5c0,-1 1,-2 1,-3 1,0 2,-1 2,-2l7 -3c1,0 1,0 2,0l4 -15 -14 4c-1,0 -2,1 -2,2l-5 2c-8,3 -22,3 -33,-2l1 8z"/>
     <path class="fil46" d="M5830 3499c3,9 1,8 5,10l-18 -4c7,12 7,12 18,16 0,-1 1,-3 1,-2 0,0 3,-3 -3,-5l18 1 -4 -8c9,2 8,4 15,-1 -3,-6 0,-1 -5,-8 -11,3 4,7 -27,1z"/>
     <path class="fil46" d="M5738 3537c30,16 4,-6 30,7 4,-5 7,7 1,-10 26,6 6,5 15,-2l-18 -6 -4 7c-5,-5 -5,-5 -12,-7 -15,12 4,-5 -6,4l-6 7z"/>
     <path class="fil45" d="M5704 3908c6,-1 3,-4 5,-7 -1,-1 -3,-3 -3,-2l-5 -2c-11,-9 5,11 -3,-7 -5,-13 -5,-8 -8,-11l-5 28 10 -4c0,0 0,0 -1,0l-4 14c2,-1 8,-4 9,-4 4,-3 4,-3 5,-5z"/>
     <path class="fil47" d="M5803 3408c9,4 15,7 26,-10 -13,-4 -25,-6 -26,10z"/>
     <path class="fil44" d="M5721 3779c14,-1 9,0 14,-8l3 -4c-20,-9 10,-3 -20,-14 7,14 6,10 3,26z"/>
     <path class="fil46" d="M5714 3795c8,1 10,1 15,-4 11,-10 7,-8 -4,-12 -10,6 -5,6 -11,16z"/>
     <path class="fil48" d="M5752 3789c11,3 6,6 23,8 -4,-7 -6,-7 -9,-17 -13,-1 6,-5 -7,0 -1,0 -2,0 -2,1 -13,7 0,-4 -5,8z"/>
     <path class="fil45" d="M5752 3789c5,-12 -8,-1 5,-8 0,-1 1,-1 2,-1 13,-5 -6,-1 7,0l-4 -9c-1,9 1,5 -3,9l-6 -7c0,-1 0,-2 0,-2l-6 -2 0 13c-3,15 0,1 5,7z"/>
     <path class="fil49" d="M5821 3525l-5 -6c-3,-4 -1,-1 -6,-5 -1,1 -2,1 -2,2 0,0 -19,19 13,9z"/>
     <path class="fil47" d="M5680 3478c12,6 16,5 28,3 -5,-4 -2,-4 -13,-6 -13,-2 -13,2 -15,3z"/>
     <path class="fil48" d="M5727 3428l6 10c10,-4 10,-3 15,-11 -19,-7 -1,-5 -14,5 -6,-9 -1,-7 -7,-4z"/>
     <path class="fil44" d="M5747 3769l6 2c0,0 0,1 0,2l6 7c4,-4 2,0 3,-9l-2 -7 -13 5z"/>
     <path class="fil44" d="M5753 3758c1,1 -2,9 11,3 3,-2 5,-5 7,-8l-18 5z"/>
     <path class="fil50" d="M5668 3467l-19 1c-3,-6 -3,-5 -5,-12 -1,1 -7,-5 -3,7 3,7 17,8 27,4z"/>
    </g>
   </g>
  </g>
 </g>
</svg>
