<?xml version="1.0" encoding="UTF-8"?>
<!DOCTYPE svg PUBLIC "-//W3C//DTD SVG 1.0//EN" "http://www.w3.org/TR/2001/REC-SVG-20010904/DTD/svg10.dtd">
<!-- Creator: CorelDRAW X7 -->
<svg xmlns="http://www.w3.org/2000/svg" xml:space="preserve" width="115mm" height="70.122mm" version="1.0" style="shape-rendering:geometricPrecision; text-rendering:geometricPrecision; image-rendering:optimizeQuality; fill-rule:evenodd; clip-rule:evenodd"
viewBox="0 0 11500 7012"
 xmlns:xlink="http://www.w3.org/1999/xlink">
 <defs>
  <style type="text/css">
   <![CDATA[
    .str0 {stroke:#4D897C;stroke-width:35.061}
    .str1 {stroke:#F9ECE4;stroke-width:52.5915}
    .str2 {stroke:#38959F;stroke-width:8.76524}
    .fil13 {fill:none}
    .fil23 {fill:#FEFEFE}
    .fil3 {fill:#FCDFCA}
    .fil16 {fill:#F9D5BB}
    .fil6 {fill:#F9EFE8}
    .fil8 {fill:#F7D0B4}
    .fil24 {fill:#F7E9E2}
    .fil19 {fill:#F4CBAF}
    .fil21 {fill:#F4B704}
    .fil17 {fill:#F0AFA8}
    .fil25 {fill:#F3C9AC}
    .fil20 {fill:#F2C5A5}
    .fil28 {fill:#F3BC64}
    .fil26 {fill:#F0C09E}
    .fil22 {fill:#E6A016}
    .fil41 {fill:#DEB391}
    .fil40 {fill:#D9AB85}
    .fil14 {fill:#C68667}
    .fil15 {fill:#B87055}
    .fil11 {fill:#AF642C}
    .fil18 {fill:#B06549}
    .fil27 {fill:#975729}
    .fil12 {fill:#AE5877}
    .fil29 {fill:#7D4525}
    .fil30 {fill:#764024}
    .fil32 {fill:#6F3F26}
    .fil31 {fill:#673A25}
    .fil7 {fill:#58423E}
    .fil4 {fill:#7AB4CD}
    .fil1 {fill:#5C4745}
    .fil9 {fill:#4D897C}
    .fil5 {fill:#5FA5BC}
    .fil39 {fill:#62A1B5}
    .fil43 {fill:#444342}
    .fil34 {fill:#2D78A2}
    .fil37 {fill:#346B89}
    .fil33 {fill:#28648C}
    .fil36 {fill:#2E5977}
    .fil38 {fill:#2D4B63}
    .fil35 {fill:#275173}
    .fil42 {fill:#3696A0}
    .fil2 {fill:#F9ECE4}
    .fil10 {fill:#4D897C;fill-rule:nonzero}
    .fil0 {fill:url(#id0)}
   ]]>
  </style>
  <radialGradient id="id0" gradientUnits="userSpaceOnUse" gradientTransform="matrix(1.17124 -0 -0 1.92083 -985 -3229)" cx="5750" cy="3506.1" r="3506.1" fx="5750" fy="3506.1">
   <stop offset="0" style="stop-opacity:1; stop-color:#FEFEFE"/>
   <stop offset="0.439216" style="stop-opacity:1; stop-color:#FEFEFE"/>
   <stop offset="1" style="stop-opacity:1; stop-color:#D1E2F2"/>
  </radialGradient>
 </defs>
 <g id="Layer_x0020_1">
  <metadata id="CorelCorpID_0Corel-Layer"/>
  <path class="fil0" d="M0 0l11500 0 0 7012 -11500 0 0 -7012z"/>
  <g id="_987174500656">
   <g>
    <g>
     <path class="fil1 str0" d="M6309 2520c-51,-29 -122,-47 -202,-47 -80,0 -153,19 -205,49 -9,-39 -19,-76 -31,-114 -23,-81 -50,-160 -41,-246 5,-47 19,-110 52,-147 18,-20 47,-33 76,-38l0 0c2,-5 4,-9 6,-13 68,-114 249,-86 332,-8 53,49 82,119 89,191 8,86 -18,165 -42,246 -12,42 -24,84 -34,127z"/>
     <path class="fil2" d="M6526 2785c-18,-53 -39,-74 -94,-86l-158 -41c-30,-6 -51,-31 -53,-61l-23 -205 -96 0 -96 0 -23 205c-2,30 -23,55 -53,61l-158 41c-54,12 -76,33 -93,86l-18 200 441 0 441 0 -17 -200z"/>
     <path class="fil2 str0" d="M6083 1992c-45,4 -107,26 -135,68 -28,42 -42,107 -35,158l42 181c1,2 1,4 2,6l0 1c4,22 16,40 34,53l71 51c12,10 19,16 34,16l5 0 1 0 0 -535c-6,0 -12,0 -19,1z"/>
     <path class="fil2 str0" d="M6121 1992c45,4 107,26 135,68 29,42 42,107 35,158l-43 184 0 1c-3,22 -16,42 -35,56l-71 51c-12,10 -19,16 -34,16l-5 0 -1 0 0 -535c6,0 13,0 19,1z"/>
     <path class="fil3" d="M6306 2218c3,0 6,1 8,3 2,1 3,3 3,5 4,11 5,23 3,34 -10,16 -23,32 -31,50 -2,6 -7,16 -13,16 -8,1 -10,-8 -10,-13 -3,-28 1,-55 5,-83 1,-2 1,-4 2,-5 2,-2 4,-3 6,-3 8,-3 18,-4 27,-4z"/>
     <path class="fil2" d="M6275 2326c-4,0 -6,-2 -8,-6 -1,-2 -1,-5 -1,-7 -1,-6 -1,-11 -1,-17 0,-22 3,-44 6,-66 1,-2 1,-4 2,-5 2,-2 4,-3 6,-3 7,-3 14,-4 22,-4 2,0 3,0 5,0 3,0 6,1 8,3 2,1 3,3 3,5 3,7 4,15 4,23 0,4 0,7 -1,11 -10,16 -23,32 -31,50 -2,6 -7,16 -13,16 -1,0 -1,0 -1,0z"/>
     <path class="fil2" d="M5897 2218c-3,0 -6,1 -8,3 -2,1 -3,3 -3,5 -4,11 -5,23 -3,34 11,16 24,32 31,50 2,6 7,16 13,16 8,1 10,-8 11,-13 2,-28 -2,-55 -6,-83 0,-2 -1,-4 -2,-5 -1,-2 -3,-3 -6,-3 -8,-3 -18,-4 -27,-4z"/>
     <path class="fil4 str0" d="M6526 2785c-18,-53 -39,-74 -94,-86l-158 -41c-30,-6 -51,-31 -53,-61l-9 -68c-26,15 -65,25 -110,25 -44,0 -84,-10 -110,-25l-9 68c-2,30 -23,55 -53,61l-158 41c-54,12 -76,33 -93,86l-18 200 441 0 441 0 -17 -200z"/>
     <path class="fil5 str0" d="M6195 2663c-10,6 -19,12 -30,17 -18,8 -38,11 -58,11 -13,0 -26,-1 -38,-6 -9,-4 -17,-9 -25,-14 -19,-9 -39,-11 -59,-15 -10,-2 -21,-5 -25,-16 -6,-12 2,-26 6,-39 7,-22 1,-30 3,-52 1,-7 2,-13 3,-19 0,-5 2,-9 6,-10 7,0 19,7 25,10 10,5 20,10 31,13 14,3 29,1 44,3 7,0 15,2 22,3 35,4 71,-8 102,-25 6,-4 10,-9 16,-9 3,0 6,0 8,1 8,5 6,27 6,36 1,27 1,41 11,67 2,6 5,13 2,19 -2,2 -4,4 -6,5 -11,7 -24,8 -36,15 -3,1 -5,3 -8,5z"/>
     <path class="fil6" d="M6274 2658c-1,0 -1,0 -1,0 0,0 0,0 1,0z"/>
     <path class="fil6" d="M6273 2658c0,0 0,0 0,0 0,0 0,0 0,0z"/>
     <path class="fil6" d="M6273 2658c0,0 0,0 0,0 0,0 0,0 0,0z"/>
     <path class="fil6" d="M6273 2658c-12,-3 -23,-9 -31,-17 0,0 0,0 0,0 8,8 19,14 31,17z"/>
     <path class="fil6" d="M6246 2632c0,-5 -2,-9 -3,-13 -10,-26 -10,-40 -11,-67 0,-1 0,-1 0,-2 0,1 0,1 0,2 1,27 1,41 11,67 1,4 3,8 3,13zm-34 -115l-4 -34 4 34z"/>
     <path class="fil7" d="M6208 2483l0 0 -2 -19 2 19zm-211 -15l0 0 1 -4 -1 4z"/>
     <path class="fil2 str0" d="M6115 2550c-5,0 -10,-1 -15,-1 -7,-1 -15,-3 -22,-3 -10,-1 -77,-21 -87,-22l6 -56 1 -4 64 46c12,10 19,16 34,16 0,0 0,0 0,0l5 0 1 0 1 0 5 0c15,0 22,-6 34,-16l64 -46 2 19 4 34c-3,2 -6,5 -10,7 -27,15 -57,26 -87,26z"/>
     <path class="fil8" d="M6096 2526c-15,0 -22,-6 -34,-16 12,10 19,16 34,16z"/>
     <path class="fil6" d="M6233 2542c0,-8 -1,-18 -5,-24 4,6 5,16 5,24zm-7 -26c0,0 0,0 0,0 0,0 0,0 0,0zm0 0c0,0 0,0 0,0 0,0 0,0 0,0zm-8 -1c0,0 0,0 0,0 0,0 0,0 0,0zm0 0c0,0 0,0 0,0 0,0 0,0 0,0zm1 0c0,0 1,0 1,0 0,0 -1,0 -1,0zm1 0c0,0 0,0 0,0l0 0c0,0 0,0 0,0z"/>
     <path class="fil1" d="M5898 2050c7,-10 15,-20 24,-28 10,-8 23,-13 35,-10 6,1 12,4 17,8 7,5 13,11 17,19 15,25 10,58 -3,85 -13,27 -32,50 -46,76 -25,46 -32,102 -18,152 -19,-7 -33,-22 -44,-39 -26,-39 -38,-86 -33,-132 5,-47 26,-91 51,-131z"/>
     <path class="fil1" d="M6133 1954c-52,-6 -105,12 -144,45 -5,4 -9,8 -12,13 -7,11 -7,25 -4,37 11,50 57,85 105,105 47,20 98,30 144,54 1,-15 -2,-30 -10,-43 22,23 36,54 38,86 7,-18 9,-31 10,-44 28,50 33,113 29,171 28,-24 49,-57 61,-93 13,-35 17,-73 19,-110 1,-10 1,-19 -1,-29 -2,-7 -5,-15 -8,-22 -19,-42 -39,-85 -75,-112 -21,-17 -47,-26 -73,-36 -26,-9 -52,-19 -79,-22z"/>
     <path class="fil2" d="M6090 2513c-1,0 -17,-82 -19,-84 -2,-2 0,-39 -2,-41 -3,-2 0,-44 -3,-46l2 -138 4 -41c23,-14 51,14 57,18l-3 61 1 83c-1,4 -1,11 -2,17 22,61 13,203 -35,171z"/>
     <g>
      <path class="fil9" d="M6027 2275c-6,0 -11,5 -11,11 0,6 5,10 11,10 6,0 11,-4 11,-10 0,-6 -5,-11 -11,-11zm144 0c-7,0 -11,5 -11,11 0,6 4,10 11,10 6,0 10,-4 10,-10 0,-6 -4,-11 -10,-11z"/>
      <path id="1" class="fil10" d="M6027 2286l-22 0 0 0 0 -1 0 -1 0 -1 0 -1 1 -1 0 -1 0 -1 1 -1 0 -1 0 -1 1 -1 0 -1 1 0 1 -1 0 -1 1 -1 1 0 0 -1 1 -1 1 0 1 -1 1 0 1 -1 1 0 1 -1 1 0 1 0 1 -1 1 0 1 0 2 0 1 0 0 19 0 0 0 0 0 0 0 0 0 0 0 0 0 0 0 0 0 0 0 0 0 0 0 0 0 0 0 0 0 0 0 0 0 0 0 0 0 0 0 0 0 1 0 0 0 0 0 0 0 0 0 0 0 0 0 0 0 0 0 0 0 0 0 1 0 0zm0 0c0,5 -5,9 -11,9 -6,0 -11,-4 -11,-9l22 0zm0 1l0 19 0 0 -1 0 -2 0 -1 0 -1 0 -1 -1 -1 0 -1 0 -1 -1 -1 0 -1 -1 -1 0 -1 -1 -1 0 -1 -1 0 -1 -1 0 -1 -1 0 -1 -1 -1 -1 0 0 -1 -1 -1 0 -1 0 -1 -1 -1 0 -1 0 -1 -1 -1 0 0 0 -1 0 -1 0 -1 22 0 0 0 0 0 0 0 0 0 0 0 0 0 0 0 0 0 0 0 0 1 0 0 0 0 0 0 0 0 0 0 0 0 0 0 0 0 0 0 0 0 0 0 0 0 0 0 0 0 0 0 0 0 0 0 0 0 0 0 0 0 0 0 0 0 0 0zm0 0c6,0 11,4 11,9 0,6 -5,10 -11,10l0 -19zm0 -1l22 0 0 0 0 1 0 1 -1 1 0 0 0 1 0 1 0 1 -1 1 0 1 -1 1 0 1 -1 1 0 0 -1 1 -1 1 0 1 -1 0 -1 1 -1 1 0 0 -1 1 -1 0 -1 1 -1 0 -1 1 -1 0 -1 0 -2 1 -1 0 -1 0 -1 0 -1 0 0 -19 0 0 0 0 0 0 0 0 0 0 0 0 -1 0 0 0 0 0 0 0 0 0 0 0 0 0 0 0 0 0 0 0 0 0 0 0 1 0 0 0 0 0 0 0 0 -1 0 0 0 0 0 0 0 0 0 0 0 0 0 0 0 0 0 0 0 0zm0 0c0,-6 5,-10 11,-10 6,0 11,4 11,10l-22 0zm0 -2l0 -19 0 0 1 0 1 0 1 0 1 0 2 1 1 0 1 0 1 1 1 0 1 1 1 0 1 1 0 0 1 1 1 1 1 0 0 1 1 1 1 1 0 0 1 1 0 1 1 1 0 1 1 1 0 1 0 1 0 1 0 1 1 1 0 1 0 1 -22 0 0 -1 0 0 0 0 0 0 0 0 0 0 0 0 0 0 0 0 0 0 0 0 0 -1 0 0 -1 0 0 0 0 0 0 0 0 0 0 0 0 0 0 0 0 0 0 0 0 0 0 0 1 0 0 0 0 0 0 0 0 0 0 0 0 0 0 0zm0 0c-6,0 -11,-4 -11,-9 0,-6 5,-10 11,-10l0 19zm144 2l-22 0 0 0 0 -1 0 -1 0 -1 0 -1 0 -1 1 -1 0 -1 0 -1 1 -1 0 -1 1 -1 0 -1 1 0 0 -1 1 -1 1 -1 0 0 1 -1 1 -1 1 0 1 -1 1 0 1 -1 1 0 1 -1 1 0 1 0 1 -1 1 0 1 0 1 0 2 0 0 19 0 0 0 0 0 0 0 0 0 0 0 0 0 0 0 0 0 0 0 0 0 0 0 0 0 0 0 0 0 0 0 0 0 0 0 0 0 0 0 0 0 1 0 0 0 0 0 0 0 0 0 0 0 0 0 0 0 0 0 0 0 0 0 1 0 0zm0 0c0,5 -5,9 -11,9 -6,0 -11,-4 -11,-9l22 0zm0 1l0 19 0 0 -2 0 -1 0 -1 0 -1 0 -1 -1 -1 0 -1 0 -1 -1 -1 0 -1 -1 -1 0 -1 -1 -1 0 -1 -1 -1 -1 0 0 -1 -1 -1 -1 0 -1 -1 0 0 -1 -1 -1 0 -1 -1 -1 0 -1 0 -1 -1 -1 0 -1 0 0 0 -1 0 -1 0 -1 22 0 0 0 0 0 0 0 0 0 0 0 0 0 0 0 0 0 0 0 0 1 0 0 0 0 0 0 0 0 0 0 0 0 0 0 0 0 0 0 0 0 0 0 0 0 0 0 0 0 0 0 0 0 0 0 0 0 0 0 0 0 0 0 0 0 0 0zm0 0c6,0 10,4 10,9 0,6 -4,10 -10,10l0 -19zm0 -1l21 0 0 0 0 1 0 1 0 1 0 0 0 1 -1 1 0 1 0 1 -1 1 0 1 -1 1 0 1 -1 0 0 1 -1 1 -1 1 0 0 -1 1 -1 1 -1 0 -1 1 -1 0 -1 1 -1 0 -1 1 -1 0 -1 0 -1 1 -1 0 -1 0 -1 0 -1 0 0 -19 -1 0 0 0 0 0 0 0 0 0 0 0 0 0 0 0 0 0 0 0 0 0 0 0 0 0 0 0 0 0 0 0 0 0 0 0 0 0 0 0 0 0 0 0 0 -1 0 0 0 0 0 0 0 0 0 0 0 0 0 0 0 0 1 0 0 0zm0 0c0,-6 4,-10 10,-10 6,0 11,4 11,10l-21 0zm0 -2l0 -19 0 0 1 0 1 0 1 0 1 0 1 1 1 0 1 0 1 1 1 0 1 1 1 0 1 1 1 0 1 1 1 1 0 0 1 1 1 1 0 1 1 0 0 1 1 1 0 1 1 1 0 1 0 1 1 1 0 1 0 1 0 1 0 1 0 1 -21 0 -1 -1 0 0 0 0 0 0 0 0 0 0 0 0 0 0 0 0 0 0 0 0 0 -1 0 0 0 0 0 0 0 0 0 0 0 0 0 0 0 0 0 0 0 0 0 0 0 0 0 0 0 0 0 0 0 0 0 0 0 0 0 0 1 0 0 0zm0 0c-7,0 -11,-4 -11,-9 0,-6 4,-10 11,-10l0 19z"/>
     </g>
    </g>
    <g>
     <path class="fil11 str0" d="M3554 2102c-21,-69 -67,-133 -132,-172 -38,-22 -88,-36 -139,-38 -42,-2 -20,481 -20,541l0 0c3,5 6,11 8,17 113,1 163,28 163,28 124,-115 134,-254 135,-271 0,-35 -4,-70 -15,-105z"/>
     <path class="fil11 str0" d="M2972 2102c22,-69 67,-133 133,-172 38,-22 88,-36 139,-38 134,-26 33,476 19,541l0 0c-3,5 -5,11 -8,17 -112,1 -162,28 -162,28 -124,-115 -135,-254 -136,-271 0,-35 4,-70 15,-105z"/>
     <path class="fil2 str0" d="M3687 2788c-18,-53 -39,-74 -94,-86l-158 -41c-30,-6 -51,-31 -53,-61l-22 -204 -97 0 -96 0 -23 204c-2,30 -23,55 -52,61l-159 41c-54,12 -76,33 -93,86l-18 200 441 0 441 0 -17 -200z"/>
     <path class="fil2 str0" d="M3244 1995c-45,4 -107,26 -135,68 -28,42 -42,107 -35,159l43 180c0,2 0,4 1,6l0 2c4,21 16,39 34,52l71 51c12,10 19,16 34,16l5 0 1 0 0 -535c-6,0 -12,0 -19,1z"/>
     <path class="fil2 str0" d="M3282 1995c45,4 107,26 135,68 29,42 42,107 36,159l-44 183 0 1c-3,22 -16,42 -34,56l-72 51c-12,10 -19,16 -34,16l-5 0 -1 0 0 -535c6,0 13,0 19,1z"/>
     <path class="fil3" d="M3467 2221c3,0 6,1 9,3 1,2 2,3 2,5 4,11 6,23 4,34 -11,16 -24,32 -32,50 -2,6 -7,16 -13,17 -8,0 -10,-9 -10,-14 -3,-28 1,-55 5,-82 1,-2 1,-5 2,-6 2,-2 4,-3 6,-3 9,-3 18,-4 27,-4z"/>
     <path class="fil2" d="M3436 2330c-4,0 -6,-3 -8,-7 -1,-2 -1,-5 -1,-7 -1,-6 -1,-11 -1,-17 0,-22 3,-44 6,-65 1,-2 1,-5 2,-6 2,-2 4,-3 6,-3 7,-3 14,-4 22,-4 2,0 3,0 5,0 3,0 6,1 9,3 1,2 2,3 2,5 3,7 5,15 5,23 0,4 -1,7 -1,11 -11,16 -24,32 -32,50 -2,6 -7,16 -13,17 -1,0 -1,0 -1,0z"/>
     <path class="fil2" d="M3058 2221c-3,0 -6,1 -8,3 -2,2 -2,3 -3,5 -4,11 -5,23 -3,34 11,16 24,32 31,50 2,6 7,16 14,17 7,0 9,-9 10,-14 2,-28 -2,-55 -6,-82 0,-2 -1,-5 -2,-6 -1,-2 -3,-3 -5,-3 -9,-3 -18,-4 -28,-4z"/>
     <path class="fil12 str0" d="M3708 2787c-8,-76 -51,-100 -100,-95 -10,1 -20,3 -29,7l-128 -33c-16,54 -94,95 -188,95 -94,0 -172,-41 -188,-95l-117 30c-12,-6 -25,-10 -39,-12 -50,-5 -93,19 -101,96 -3,35 4,208 4,208l441 0 441 0c0,0 8,-166 4,-201z"/>
     <path class="fil6" d="M3382 2600l-15 -133 15 133z"/>
     <path class="fil8" d="M3257 2529c-15,0 -22,-6 -34,-16 12,10 19,16 34,16zm-34 -16l-64 -46 64 46z"/>
     <path class="fil8" d="M3579 2699l-128 -33 80 20 48 13z"/>
     <path class="fil11 str0" d="M3389 1986c-25,-13 -55,-16 -84,-19 -23,-2 -46,-4 -68,1 -20,4 -39,14 -57,24 -33,19 -70,40 -82,76 -2,6 -4,12 -3,18 0,7 3,14 6,20 16,29 42,50 71,65 29,14 61,22 93,28 -5,-6 -10,-12 -15,-19 43,22 91,35 140,39 -7,-3 -14,-8 -20,-13 54,9 102,45 127,93 4,-59 6,-118 6,-177 0,-8 0,-16 -2,-23 -3,-9 -10,-17 -17,-24 -12,-13 -25,-26 -37,-39 -17,-19 -35,-38 -58,-50z"/>
     <path class="fil11 str0" d="M3144 2035c17,100 -28,207 -111,267 -34,-102 -9,-240 111,-267z"/>
     <path class="fil13 str1" d="M3263 2516l0 -303"/>
     <g>
      <path class="fil9" d="M3187 2240c-6,0 -11,4 -11,10 0,6 5,11 11,11 6,0 11,-5 11,-11 0,-6 -5,-10 -11,-10zm144 0c-6,0 -11,4 -11,10 0,6 5,11 11,11 6,0 11,-5 11,-11 0,-6 -5,-10 -11,-10z"/>
      <path id="1" class="fil10" d="M3187 2250l-22 0 0 0 0 -1 1 -1 0 -1 0 -1 0 0 0 -1 1 -1 0 -1 0 -1 1 -1 0 -1 1 -1 0 0 1 -1 1 -1 0 -1 1 0 1 -1 1 -1 1 0 0 -1 1 0 1 -1 1 0 1 -1 1 0 2 0 1 -1 1 0 1 0 1 0 1 0 0 19 0 0 0 0 0 0 1 0 0 0 0 0 0 0 0 0 0 0 0 0 0 0 0 0 0 0 0 0 0 0 0 0 0 0 0 0 0 0 0 0 0 0 0 0 -1 1 0 0 0 0 0 0 0 0 0 0 0 0 0 0 0 0 0 0 0 0zm0 0c0,6 -5,10 -11,10 -6,0 -11,-4 -11,-10l22 0zm0 2l0 19 0 0 -1 0 -1 0 -1 0 -1 0 -1 -1 -2 0 -1 0 -1 -1 -1 0 -1 -1 -1 0 0 -1 -1 0 -1 -1 -1 -1 -1 0 0 -1 -1 -1 -1 -1 0 0 -1 -1 0 -1 -1 -1 0 -1 0 -1 -1 -1 0 -1 0 -1 0 -1 0 -1 -1 -1 0 -1 22 0 0 1 0 0 0 0 0 0 0 0 0 0 0 0 0 0 0 0 1 0 0 0 0 1 0 0 0 0 0 0 0 0 0 0 0 0 0 0 0 0 0 0 0 0 0 0 0 0 0 0 0 0 0 0 0 0 -1 0 0 0 0 0 0 0 0 0zm0 0c6,0 11,4 11,9 0,6 -5,10 -11,10l0 -19zm0 -2l22 0 0 0 0 1 0 1 0 1 0 1 0 1 -1 1 0 1 0 1 -1 1 0 1 -1 1 0 1 -1 0 0 1 -1 1 -1 1 -1 0 0 1 -1 1 -1 0 -1 1 -1 0 -1 1 -1 0 -1 1 -1 0 -1 0 -1 1 -1 0 -1 0 -2 0 -1 0 0 -19 0 0 0 0 0 0 0 0 0 0 0 0 0 0 0 0 0 0 0 0 0 0 0 0 0 0 0 0 0 0 0 0 0 0 0 0 0 0 0 0 0 -1 0 0 0 0 0 0 0 0 0 0 0 0 0 0 0 0 0 0 0 0 0 -1 0 0zm0 0c0,-5 5,-9 11,-9 6,0 11,4 11,9l-22 0zm0 -1l0 -19 0 0 1 0 2 0 1 0 1 0 1 1 1 0 1 0 1 1 1 0 1 1 1 0 1 1 1 0 1 1 0 1 1 0 1 1 1 1 0 1 1 0 0 1 1 1 0 1 1 1 0 1 0 1 1 1 0 0 0 1 0 1 0 1 0 1 -22 0 0 0 0 0 0 0 0 0 0 0 0 0 0 0 0 0 0 0 0 -1 0 0 0 0 0 0 0 0 0 0 0 0 0 0 0 0 0 0 0 0 0 0 0 0 0 0 0 0 0 0 0 0 0 0 0 0 0 0 0 0 0 0 0 0 0 0zm0 0c-6,0 -11,-4 -11,-9 0,-6 5,-10 11,-10l0 19zm144 1l-22 0 0 0 0 -1 0 -1 0 -1 0 -1 1 0 0 -1 0 -1 1 -1 0 -1 0 -1 1 -1 1 -1 0 0 1 -1 0 -1 1 -1 1 0 1 -1 0 -1 1 0 1 -1 1 0 1 -1 1 0 1 -1 1 0 1 0 1 -1 1 0 2 0 1 0 1 0 0 19 0 0 0 0 0 0 0 0 0 0 0 0 0 0 0 0 0 0 0 0 0 0 0 0 0 0 0 0 0 0 0 0 0 0 0 0 0 0 0 0 0 0 0 0 0 1 0 0 0 0 0 0 0 0 0 0 0 0 0 0 0 0 0 0 0 0zm0 0c0,6 -5,10 -11,10 -6,0 -11,-4 -11,-10l22 0zm0 2l0 19 0 0 -1 0 -1 0 -2 0 -1 0 -1 -1 -1 0 -1 0 -1 -1 -1 0 -1 -1 -1 0 -1 -1 -1 0 0 -1 -1 -1 -1 0 -1 -1 0 -1 -1 -1 0 0 -1 -1 -1 -1 0 -1 0 -1 -1 -1 0 -1 0 -1 -1 -1 0 -1 0 -1 0 -1 0 -1 22 0 0 1 0 0 0 0 0 0 0 0 0 0 0 0 0 0 0 0 0 0 0 0 0 1 0 0 0 0 0 0 0 0 0 0 0 0 0 0 0 0 0 0 0 0 0 0 0 0 0 0 0 0 0 0 0 0 0 0 0 0 0 0 0 0 0 0zm0 0c6,0 11,4 11,9 0,6 -5,10 -11,10l0 -19zm0 -2l22 0 0 0 0 1 0 1 0 1 -1 1 0 1 0 1 0 1 -1 1 0 1 -1 1 0 1 -1 1 0 0 -1 1 0 1 -1 1 -1 0 -1 1 0 1 -1 0 -1 1 -1 0 -1 1 -1 0 -1 1 -1 0 -1 0 -1 1 -2 0 -1 0 -1 0 -1 0 0 -19 0 0 0 0 0 0 0 0 0 0 0 0 0 0 0 0 -1 0 0 0 0 0 0 0 0 0 0 0 0 0 1 0 0 0 0 0 0 0 0 0 0 -1 0 0 0 0 0 0 0 0 0 0 0 0 0 0 0 0 0 0 0 0 0 -1 0 0zm0 0c0,-5 5,-9 11,-9 6,0 11,4 11,9l-22 0zm0 -1l0 -19 0 0 1 0 1 0 1 0 2 0 1 1 1 0 1 0 1 1 1 0 1 1 1 0 1 1 1 0 0 1 1 1 1 0 1 1 0 1 1 1 0 0 1 1 0 1 1 1 0 1 1 1 0 1 0 1 0 0 1 1 0 1 0 1 0 1 -22 0 0 0 0 0 0 0 0 0 0 0 0 0 0 0 0 0 0 0 0 -1 0 0 0 0 0 0 0 0 0 0 0 0 -1 0 0 0 0 0 0 0 0 0 0 0 0 0 1 0 0 0 0 0 0 0 0 0 0 0 0 0 0 0 0 0 0 0zm0 0c-6,0 -11,-4 -11,-9 0,-6 5,-10 11,-10l0 19z"/>
     </g>
    </g>
    <g id="_987176423936">
     <path class="fil14 str0" d="M4075 2837c-18,21 -14,54 -3,80 11,26 39,42 43,70 -17,-23 -52,-32 -78,-42 -16,-7 -33,-10 -48,-19 -29,-16 -47,-55 -32,-85 6,-10 14,-18 18,-28 22,-57 -70,-83 -100,-108 -55,-46 -64,-135 -27,-197 19,-31 48,-56 64,-89 27,-57 6,-105 -8,-161 -19,-71 -10,-148 20,-215 24,-53 75,-109 137,-96 5,1 9,2 14,4 18,7 32,23 39,41 15,37 5,90 -14,123 -18,30 -51,48 -67,79 -20,42 -3,86 23,120 24,31 48,72 33,110 -14,33 -52,46 -77,71 -39,41 -37,116 4,154 32,29 79,38 101,74 16,28 10,68 -13,90 -10,8 -21,14 -29,24z"/>
     <path class="fil15" d="M4231 2410l166 0 0 263 -166 0 0 -263z"/>
     <path class="fil2 str0" d="M4601 2787c-17,-53 -39,-74 -93,-86l-159 -41c-29,-6 -51,-31 -52,-61l-23 -205 -96 0 -97 0 -22 205c-2,30 -24,55 -53,61l-158 41c-55,12 -76,33 -94,86l-17 200 441 0 441 0 -18 -200z"/>
     <path class="fil2" d="M4197 1994c44,4 107,26 135,68 28,42 42,107 35,158l-43 184 0 1c-4,22 -16,42 -35,56l-71 51c-12,10 -19,16 -34,16l-5 0 -1 0 0 -535c6,0 12,0 19,1z"/>
     <path class="fil3" d="M4382 2220c3,0 6,1 8,3 2,1 2,3 3,5 4,11 5,23 3,34 -11,16 -24,32 -31,50 -2,6 -7,16 -14,16 -7,1 -9,-8 -10,-13 -2,-28 2,-55 6,-82 0,-3 1,-5 2,-6 1,-2 3,-3 5,-3 9,-3 18,-4 28,-4z"/>
     <path class="fil16" d="M4351 2329c-4,0 -7,-3 -8,-7l24 -101c3,-1 6,-1 10,-1 1,0 3,0 5,0 3,0 6,1 8,3 2,1 2,3 3,5 3,7 4,15 4,23 0,4 0,7 -1,11 -11,16 -24,32 -31,50 -2,6 -7,16 -14,16 0,0 0,1 0,1z"/>
     <path class="fil17 str0" d="M4484 2915c0,-84 30,-158 63,-201 -11,-5 -24,-9 -39,-13l-25 -9c-68,65 -180,107 -305,107 -126,0 -237,-42 -305,-107l-25 9c-16,4 -28,8 -39,13 33,43 63,117 63,201 0,25 -2,49 -6,72l312 0 312 0c-4,-23 -6,-47 -6,-72z"/>
     <path class="fil6" d="M4601 2787c0,0 0,0 0,0 0,0 0,0 0,0zm0 0c0,0 0,0 0,-1 0,1 0,1 0,1zm0 -1c0,0 0,0 0,0 0,0 0,0 0,0z"/>
     <path class="fil6" d="M4481 2694l-1 0c1,-1 2,-2 3,-2 0,0 0,0 0,0 -1,1 -2,2 -2,2z"/>
     <path class="fil18" d="M4349 2660c0,0 0,0 0,0 0,0 0,0 0,0zm0 0c0,0 0,0 0,0 0,0 0,0 0,0zm0 0c0,0 0,0 0,0 0,0 0,0 0,0zm0 0c0,0 0,0 0,0 0,0 0,0 0,0zm0 0c0,0 -1,0 -1,0 0,0 1,0 1,0zm-1 0c0,0 0,0 0,0 0,0 0,0 0,0zm0 0c0,0 0,0 0,0 0,0 0,0 0,0zm0 0c0,0 0,0 0,0 0,0 0,0 0,0zm0 0c0,0 0,0 0,0 0,0 0,0 0,0zm0 0c0,0 0,0 0,0 0,0 0,0 0,0zm0 0c0,0 -1,0 -1,0 0,0 1,0 1,0zm-1 0c0,0 0,0 0,0 0,0 0,0 0,0zm0 0c0,0 0,0 0,0 0,0 0,0 0,0zm0 0c0,0 0,0 0,0 0,0 0,0 0,0zm0 0c0,0 0,0 0,0 0,0 0,0 0,0zm0 0c-23,-6 -41,-23 -47,-45l0 0c6,22 24,39 47,45z"/>
     <path class="fil6" d="M4508 2701c0,0 0,0 0,0 0,0 0,0 0,0 0,0 0,0 0,0z"/>
     <path class="fil8" d="M4508 2701c0,0 0,0 0,0 0,0 0,0 0,0 0,0 0,0 0,0z"/>
     <path class="fil6" d="M4508 2701c0,0 0,0 0,0l0 0c0,0 0,0 0,0zm0 0c0,0 0,0 0,0 0,0 0,0 0,0z"/>
     <path class="fil8" d="M4508 2701c0,0 0,0 0,0l0 0c0,0 0,0 0,0 0,0 0,0 0,0l0 0z"/>
     <path class="fil18" d="M4303 2615l0 0c0,0 0,0 0,0zm-11 -56l0 0c2,-1 3,-1 3,-1 0,0 0,0 0,0l-3 1z"/>
     <path class="fil2" d="M4159 1994c-45,4 -107,26 -135,68 -29,42 -42,107 -36,158l43 181c1,2 1,4 1,6l1 2c3,21 16,39 33,52l72 51c12,10 19,16 34,16l5 0 1 0 0 -535c-6,0 -13,0 -19,1z"/>
     <path class="fil19" d="M4343 2322l0 0c-1,-2 -1,-5 -2,-7 0,-6 0,-11 0,-17 0,-22 3,-44 6,-65 0,-3 1,-5 2,-6 1,-2 3,-3 5,-3 5,-2 9,-3 13,-3l-24 101z"/>
     <path class="fil20" d="M4184 2528l-5 0 -1 0 1 0 5 0c15,0 22,-6 34,-16l0 0 64 -46 -64 46c-12,10 -19,16 -34,16z"/>
     <path class="fil14 str0" d="M4280 2837c18,21 13,54 3,80 -11,26 -39,42 -43,70 17,-23 52,-32 78,-42 16,-7 33,-10 48,-19 28,-16 47,-55 31,-85 -5,-10 -13,-18 -17,-28 -23,-57 69,-83 100,-108 55,-46 64,-135 27,-197 -19,-31 -48,-56 -64,-89 -27,-57 -6,-105 8,-161 22,-84 5,-176 -38,-251 -21,-35 -49,-66 -83,-88 -76,-47 -215,-41 -248,61 -13,40 1,87 33,113 35,28 83,29 127,37 44,7 93,31 101,76 8,40 -20,76 -44,108 -24,31 -48,72 -33,110 14,33 52,46 76,71 40,41 38,116 -4,154 -31,29 -78,38 -100,74 -16,28 -11,68 13,90 9,8 21,14 29,24z"/>
     <path class="fil14 str0" d="M4066 2461c-17,-13 -30,-31 -33,-52l-1 -2c0,-2 0,-4 -1,-6 -2,-9 -4,-19 -6,-28 -7,-12 -13,-25 -16,-39 -20,-76 -10,-166 47,-225 11,-12 24,-22 34,-36 14,-18 22,-122 -15,-122 -16,0 -18,-13 -32,-6 -34,-7 -110,51 -119,98 -43,15 -36,270 1,309 -2,14 -13,60 -13,67 0,29 -77,86 -77,116 -70,239 69,115 147,132l24 -7c29,-6 51,-31 53,-61l15 -133 -8 -5z"/>
     <g>
      <path class="fil9" d="M4089 2222c-6,0 -11,5 -11,11 0,6 5,11 11,11 6,0 11,-5 11,-11 0,-6 -5,-11 -11,-11zm143 0c-6,0 -11,5 -11,11 0,6 5,11 11,11 6,0 11,-5 11,-11 0,-6 -5,-11 -11,-11z"/>
      <path id="1" class="fil10" d="M4089 2233l-22 0 0 0 0 -1 0 -1 0 -1 0 -1 0 -1 1 -1 0 -1 0 -1 1 -1 0 0 1 -1 0 -1 1 -1 0 -1 1 0 1 -1 0 -1 1 -1 1 0 1 -1 1 0 1 -1 1 0 1 -1 1 0 1 -1 1 0 1 0 1 0 1 -1 1 0 2 0 0 20 0 0 0 0 0 0 0 0 0 0 0 0 0 0 0 0 0 0 0 0 0 0 0 0 0 0 0 0 0 0 0 0 0 0 0 0 0 0 0 0 0 0 0 0 0 0 0 0 0 0 0 0 0 0 0 1 0 0 0 0 0 0 0 0 0 0zm0 0c0,5 -5,10 -11,10 -6,0 -11,-5 -11,-10l22 0zm0 1l0 20 0 0 -2 0 -1 0 -1 -1 -1 0 -1 0 -1 0 -1 -1 -1 0 -1 -1 -1 0 -1 -1 -1 0 -1 -1 -1 0 -1 -1 0 -1 -1 -1 -1 0 0 -1 -1 -1 0 -1 -1 -1 0 0 -1 -1 0 -1 0 -1 -1 -1 0 -1 0 -1 0 -1 0 -1 0 -1 22 0 0 0 0 0 0 0 0 0 0 1 0 0 0 0 0 0 0 0 0 0 0 0 0 0 0 0 0 0 0 0 0 0 0 0 0 0 0 0 0 0 0 0 0 0 0 0 0 0 0 0 0 0 0 0 0 0 0 0 0 0 0 0 0 0 0 0zm0 0c6,0 11,5 11,10 0,5 -5,10 -11,10l0 -20zm0 -1l21 0 0 0 0 1 0 1 0 1 0 1 0 1 0 1 -1 1 0 1 0 1 -1 0 0 1 -1 1 -1 1 0 1 -1 0 0 1 -1 1 -1 1 -1 0 -1 1 -1 0 0 1 -1 0 -1 1 -1 0 -2 1 -1 0 -1 0 -1 0 -1 1 -1 0 -1 0 0 -20 0 0 0 0 -1 0 0 0 0 0 0 0 0 0 0 0 0 0 0 0 0 0 0 0 0 0 0 0 0 0 0 0 0 0 0 0 0 0 0 0 0 0 0 0 0 0 0 0 1 0 0 0 0 0 0 -1 0 0 0 0 0 0 0 0 0 0zm0 0c0,-5 5,-10 11,-10 6,0 10,5 10,10l-21 0zm0 -1l0 -20 0 0 1 0 1 0 1 1 1 0 1 0 1 0 2 1 1 0 1 1 1 0 0 1 1 0 1 1 1 0 1 1 1 1 0 1 1 0 0 1 1 1 1 1 0 1 1 0 0 1 0 1 1 1 0 1 0 1 0 1 0 1 0 1 0 1 -21 0 0 0 0 0 0 0 0 0 0 -1 0 0 0 0 -1 0 0 0 0 0 0 0 0 0 0 0 0 0 0 0 0 0 0 0 0 0 0 0 0 0 0 0 0 0 0 0 0 0 0 0 0 0 0 0 0 0 0 0 1 0 0 0 0 0 0 0zm0 0c-6,0 -11,-5 -11,-10 0,-5 5,-10 11,-10l0 20zm143 1l-22 0 0 0 0 -1 1 -1 0 -1 0 -1 0 -1 0 -1 1 -1 0 -1 0 -1 1 0 0 -1 1 -1 0 -1 1 -1 1 0 0 -1 1 -1 1 -1 1 0 1 -1 0 0 1 -1 1 0 1 -1 1 0 1 -1 2 0 1 0 1 0 1 -1 1 0 1 0 0 20 0 0 0 0 0 0 1 0 0 0 0 0 0 0 0 0 0 0 0 0 0 0 0 0 0 0 0 0 0 0 0 0 0 0 0 0 0 0 0 0 0 0 0 0 -1 0 0 0 0 0 0 0 0 0 0 1 0 0 0 0 0 0 0 0 0 0zm0 0c0,5 -5,10 -11,10 -6,0 -11,-5 -11,-10l22 0zm0 1l0 20 0 0 -1 0 -1 0 -1 -1 -1 0 -1 0 -2 0 -1 -1 -1 0 -1 -1 -1 0 -1 -1 0 0 -1 -1 -1 0 -1 -1 -1 -1 0 -1 -1 0 -1 -1 0 -1 -1 -1 0 -1 -1 0 0 -1 0 -1 -1 -1 0 -1 0 -1 0 -1 0 -1 -1 -1 0 -1 22 0 0 0 0 0 0 0 0 0 0 1 0 0 0 0 0 0 0 0 1 0 0 0 0 0 0 0 0 0 0 0 0 0 0 0 0 0 0 0 0 0 0 0 0 0 0 0 0 0 0 0 0 0 0 0 0 0 -1 0 0 0 0 0 0 0 0 0zm0 0c6,0 11,5 11,10 0,5 -5,10 -11,10l0 -20zm0 -1l22 0 0 0 0 1 0 1 0 1 0 1 0 1 -1 1 0 1 0 1 -1 1 0 0 -1 1 0 1 -1 1 0 1 -1 0 -1 1 -1 1 0 1 -1 0 -1 1 -1 0 -1 1 -1 0 -1 1 -1 0 -1 1 -1 0 -1 0 -1 0 -1 1 -2 0 -1 0 0 -20 0 0 0 0 0 0 0 0 0 0 0 0 0 0 0 0 0 0 0 0 0 0 0 0 0 0 0 0 0 0 0 0 0 0 0 0 0 0 0 0 0 0 0 0 0 0 0 0 0 0 0 0 0 0 0 -1 0 0 0 0 0 0 0 0 0 0zm0 0c0,-5 5,-10 11,-10 6,0 11,5 11,10l-22 0zm0 -1l0 -20 0 0 1 0 2 0 1 1 1 0 1 0 1 0 1 1 1 0 1 1 1 0 1 1 1 0 1 1 1 0 0 1 1 1 1 1 1 0 0 1 1 1 0 1 1 1 0 0 1 1 0 1 0 1 1 1 0 1 0 1 0 1 0 1 0 1 -22 0 0 0 0 0 0 0 0 0 0 -1 0 0 0 0 0 0 0 0 0 0 0 0 0 0 0 0 0 0 0 0 0 0 0 0 0 0 0 0 0 0 0 0 0 0 0 0 0 0 0 0 0 0 0 0 0 0 0 0 0 0 0 0 0 0 0 0zm0 0c-6,0 -11,-5 -11,-10 0,-5 5,-10 11,-10l0 20z"/>
     </g>
     <path class="fil13 str0" d="M4058 2457l0 -4 64 46c12,10 19,16 34,16 0,0 0,0 0,0l5 0 1 0 2 0 5 0c15,0 22,-6 34,-16l64 -46"/>
    </g>
    <g>
     <path class="fil2 str0" d="M7514 2737c-27,-95 -152,-95 -224,-113 -8,-2 -17,-4 -26,-7 -8,-2 -16,-5 -24,-10 -30,-20 -31,-72 -35,-104 -4,-33 -7,-67 -7,-101 0,-11 0,-23 1,-35 -31,11 -49,35 -82,36 -2,0 -17,0 -30,0 -12,-1 -23,-1 -23,-1 0,0 -12,0 -24,1 -13,0 -27,0 -29,0 -33,-1 -52,-25 -82,-36 0,12 0,24 0,35 0,34 -2,68 -7,101 -4,32 -5,84 -35,104 -7,5 -15,8 -24,10 -8,3 -17,5 -26,7 -71,18 -197,18 -224,113l-39 247 490 0 490 0 -40 -247z"/>
     <path class="fil3" d="M7284 2173c3,0 6,0 9,3 1,1 2,3 3,5 4,10 5,22 3,34 -11,16 -24,32 -32,50 -2,5 -7,15 -13,16 -7,1 -10,-9 -10,-14 -2,-27 2,-55 5,-82 1,-2 1,-4 2,-6 2,-1 4,-2 6,-3 9,-3 18,-4 27,-3z"/>
     <path class="fil2 str0" d="M7253 2281c-7,0 -9,-9 -9,-14 -1,-5 -1,-11 -1,-16 0,-22 3,-44 6,-66 1,-2 1,-4 2,-6 2,-1 4,-2 6,-3 7,-2 14,-3 22,-3 2,0 3,0 5,0 3,0 6,0 9,3 1,1 2,3 3,5 2,7 4,15 4,22 0,4 -1,8 -1,12 -11,16 -24,32 -32,50 -2,5 -7,15 -13,16 0,0 -1,0 -1,0z"/>
     <path class="fil2 str0" d="M7269 2130l-20 192c-3,16 -9,31 -18,43l-92 92c-2,1 -3,3 -5,5 -12,14 -30,22 -49,22l-21 0 0 -562c114,0 223,83 205,208z"/>
     <path class="fil2 str0" d="M6844 2173c-3,0 -6,0 -8,3 -2,1 -2,3 -3,5 -4,10 -5,22 -3,34 11,16 24,32 31,50 2,5 7,15 14,16 7,1 9,-9 10,-14 2,-27 -2,-55 -6,-82 0,-2 -1,-4 -2,-6 -1,-1 -3,-2 -5,-3 -9,-3 -18,-4 -28,-3z"/>
     <path class="fil2 str0" d="M6859 2130l20 192c2,16 8,31 18,43l92 92c1,1 3,3 4,5 13,14 31,22 50,22l21 0 0 -562c-114,0 -223,83 -205,208z"/>
     <path class="fil21" d="M7514 2737c-27,-95 -152,-95 -224,-113 -8,-2 -17,-4 -26,-7 -8,-2 -16,-5 -24,-10 -30,-20 -31,-72 -35,-104 0,-3 0,-6 -1,-9 -39,15 -87,24 -140,24 -53,0 -102,-9 -141,-24 0,3 0,6 -1,9 -4,32 -5,84 -35,104 -7,5 -15,8 -24,10 -8,3 -17,5 -26,7 -71,18 -197,18 -224,113l-39 247 490 0 490 0 -40 -247z"/>
     <path class="fil22 str0" d="M7215 2493c7,4 4,17 4,24 0,12 2,24 4,36 1,4 1,7 3,10 4,12 15,27 10,41 -1,3 -4,5 -6,7 -16,12 -32,24 -50,31 -11,5 -22,7 -34,9 -32,7 -64,13 -96,9 -20,-2 -38,-7 -57,-12 -10,-3 -20,-5 -31,-8 -19,-6 -40,-13 -55,-27 -14,-13 -7,-29 -5,-45 1,-8 2,-16 3,-25 2,-16 4,-64 30,-61 5,0 11,3 16,5 44,20 92,30 140,28 20,-1 40,-6 59,-8 9,-2 18,-3 26,-6 9,-2 30,-12 39,-8z"/>
     <path class="fil23" d="M6652 2908l26 0 -13 24 -13 -24z"/>
     <path class="fil23" d="M6778 2908l27 0 -14 24 -13 -24z"/>
     <path class="fil1 str0" d="M6839 1962c10,-22 25,-42 46,-55 -11,-11 -24,-20 -38,-27 58,-17 120,-34 177,-14 -11,-12 -23,-23 -34,-35 38,0 77,0 114,7 40,7 78,24 109,51 15,13 20,24 22,43 35,1 61,53 68,82 5,24 5,50 3,75 -2,-8 -5,-16 -7,-23 -3,46 -19,92 -47,130 5,-29 10,-57 14,-86 -3,4 -8,8 -13,10 3,-26 -3,-52 -16,-74 -13,-20 -68,-12 -96,-11 34,-61 -104,5 -118,17 1,-9 1,-18 2,-28 -47,17 -89,49 -118,89 -2,-7 -4,-14 -3,-22 -18,29 -28,61 -30,94 -13,-16 -25,-32 -33,-50 -9,-18 -13,-39 -7,-59 -7,0 -13,0 -19,0 3,-31 6,-63 16,-93 2,-7 5,-14 8,-21z"/>
     <path class="fil23" d="M6905 2908l26 0 -13 24 -13 -24z"/>
     <path class="fil23" d="M7031 2908l26 0 -13 24 -13 -24z"/>
     <path class="fil23" d="M7157 2908l26 0 -13 24 -13 -24z"/>
     <path class="fil23" d="M7284 2908l26 0 -13 24 -13 -24z"/>
     <path class="fil23" d="M7410 2908l26 0 -13 24 -13 -24z"/>
     <path class="fil23" d="M6618 2857l37 -45c5,-6 15,-6 20,0l37 45c4,5 10,8 16,8 6,0 12,-3 16,-8l36 -45c3,-3 7,-5 11,-5 3,0 7,2 10,5l36 45c4,5 10,8 16,8 7,0 12,-3 16,-8l37 -45c5,-6 15,-6 20,0l37 45c4,5 10,8 16,8 6,0 12,-3 16,-8l37 -45c2,-3 6,-5 10,-5l0 0c3,0 7,2 10,5l36 45c4,5 10,8 16,8l0 0c7,0 12,-3 16,-8l37 -45c5,-6 15,-6 20,0l37 45c4,5 10,8 16,8l0 0c6,0 12,-3 16,-8l37 -45c4,-6 15,-6 20,0l36 45c4,5 10,8 16,8 7,0 12,-3 16,-8l37 -45c5,-6 15,-6 20,0l37 45c4,5 10,8 16,8l0 0c6,0 12,-3 16,-8l30 -38c0,-3 -1,-6 -1,-10l-35 43c-3,3 -6,5 -10,5l0 0c-4,0 -8,-2 -10,-5l-37 -45c-4,-5 -10,-8 -16,-8 -6,0 -12,3 -16,8l-37 45c-5,6 -15,6 -20,0l-36 -45c-4,-5 -10,-8 -16,-8l0 0c-7,0 -13,3 -16,8l-37 45c-3,3 -6,5 -10,5l0 0c-4,0 -8,-2 -10,-5l-37 -45c-4,-5 -10,-8 -16,-8 -6,0 -12,3 -16,8l-37 45c-5,6 -15,6 -20,0l-36 -45c-4,-5 -10,-8 -16,-8l0 0c-7,0 -13,3 -16,8l-37 45c-5,6 -15,6 -20,0l-37 -45c-4,-5 -10,-8 -16,-8 -6,0 -12,3 -16,8l-37 45c-5,6 -15,6 -20,0l-36 -45c-4,-5 -10,-8 -16,-8l0 0c-7,0 -13,3 -17,8l-36 45c-5,6 -15,6 -20,0l-37 -45c-4,-5 -10,-8 -16,-8 -6,0 -12,3 -16,8l-37 45c-4,5 -12,6 -17,2 -1,3 -1,6 -2,8 3,2 6,3 9,3 7,0 12,-3 16,-8z"/>
     <path class="fil23" d="M6618 2885l37 -45c5,-6 15,-6 20,0l37 45c4,5 10,8 16,8l0 0c6,0 12,-3 16,-8l36 -45c5,-6 16,-6 21,0l36 45c4,5 10,8 16,8 7,0 12,-3 16,-8l37 -45c2,-3 6,-5 10,-5l0 0c4,0 8,2 10,5l37 45c4,5 10,8 16,8 6,0 12,-3 16,-8l37 -45c4,-6 15,-6 20,0l36 45c4,5 10,8 16,8 7,0 12,-3 16,-8l37 -45c5,-6 15,-6 20,0l37 45c4,5 10,8 16,8l0 0c6,0 12,-3 16,-8l37 -45c2,-3 6,-5 10,-5l0 0c3,0 7,2 10,5l36 45c4,5 10,8 16,8l0 0c7,0 12,-3 16,-8l37 -45c3,-3 6,-5 10,-5 4,0 8,2 10,5l37 45c4,5 10,8 16,8l0 0c6,0 12,-3 16,-8l34 -42c0,-3 -1,-6 -1,-10 -1,1 -2,2 -2,2l-37 45c-5,6 -15,6 -20,0l-37 -45c-4,-5 -10,-7 -16,-7l0 0c-6,0 -12,2 -16,7l-37 45c-2,3 -6,5 -10,5l0 0c-4,0 -7,-2 -10,-5l-36 -45c-4,-5 -10,-7 -16,-7l0 0c-7,0 -13,2 -16,7l-37 45c-3,3 -6,5 -10,5l0 0c-4,0 -8,-2 -10,-5l-37 -45c-4,-5 -10,-7 -16,-7 -6,0 -12,2 -16,7l-37 45c-5,6 -15,6 -20,0l-36 -45c-4,-5 -10,-7 -16,-7 -7,0 -13,2 -16,7l-37 45c-5,6 -15,6 -20,0l-37 -45c-4,-5 -10,-7 -16,-7l0 0c-6,0 -12,2 -16,7l-37 45c-5,6 -15,6 -20,0l-36 -45c-4,-5 -10,-7 -16,-7 -7,0 -13,2 -17,7l-36 45c-3,3 -6,5 -10,5l0 0c-4,0 -8,-2 -10,-5l-37 -45c-4,-5 -10,-7 -16,-7 -6,0 -12,2 -16,7l-37 45c-5,6 -15,6 -20,0l-1 -1c-1,3 -1,6 -2,9 4,3 8,5 13,5 7,0 12,-3 16,-8z"/>
     <path class="fil24" d="M7297 2932l-13 -24 26 0 -13 24z"/>
     <path class="fil24" d="M7423 2932l-13 -24 26 0 -13 24z"/>
     <path class="fil24" d="M7240 2607c-1,-1 -3,-2 -4,-3 0,0 0,0 0,0 0,0 0,0 0,0 1,1 3,2 4,3zm-14 -44c0,0 0,0 0,0 0,0 0,0 0,0zm-1 -1c-1,-3 -1,-6 -2,-9 -2,-12 -4,-24 -4,-36 0,0 0,-1 0,-1 0,0 0,1 0,1 0,12 2,24 4,36 1,3 1,6 2,9zm-6 -57c0,-3 0,-6 -1,-8 1,2 1,5 1,8zm-15 -12c-4,-30 -6,-59 -6,-89 0,30 3,59 6,89 0,0 0,0 0,0zm-6 -89c0,0 0,-1 0,-1 0,0 0,1 0,1zm0 -2c0,-1 0,-3 0,-5l0 0c0,2 0,4 0,5z"/>
     <path class="fil25" d="M7064 2484l-21 0c-19,0 -37,-8 -49,-22 12,14 30,22 49,22l21 0zm-75 -27l-56 -56 56 56z"/>
     <path class="fil24" d="M7481 2865l0 0c-6,0 -12,-3 -16,-8l-37 -45c-2,-3 -6,-5 -10,-5 -4,0 -7,2 -10,5l-37 45c-4,5 -9,8 -16,8 -6,0 -12,-3 -16,-8l-36 -45c-3,-3 -7,-5 -10,-5 -4,0 -8,2 -10,5l-37 45c-4,5 -10,8 -16,8l0 0c-6,0 -12,-3 -16,-8l-37 -45c-2,-3 -6,-5 -10,-5 -4,0 -8,2 -10,5l-5 6 -4 -8 3 -3c4,-5 10,-8 16,-8 6,0 12,3 16,8l37 45c2,3 6,5 10,5l0 0c4,0 7,-2 10,-5l37 -45c3,-5 9,-8 16,-8l0 0c6,0 12,3 16,8l36 45c3,3 7,5 10,5 4,0 8,-2 10,-5l37 -45c4,-5 10,-8 16,-8 6,0 12,3 16,8l37 45c2,3 6,5 10,5l0 0c4,0 7,-2 10,-5l35 -43 1 10 -30 38c-4,5 -10,8 -16,8z"/>
     <path class="fil24" d="M7481 2893l0 0c-6,0 -12,-3 -16,-8l-37 -45c-2,-3 -6,-5 -10,-5 -4,0 -7,2 -10,5l-37 45c-4,5 -9,8 -16,8l0 0c-6,0 -12,-3 -16,-8l-36 -45c-3,-3 -7,-5 -10,-5l0 0c-4,0 -8,2 -10,5l-37 45c-4,5 -10,8 -16,8l0 0c-6,0 -12,-3 -16,-8l-37 -45c-2,-3 -6,-4 -10,-4 -2,0 -3,0 -5,0l-3 -7c2,-1 5,-1 8,-1 6,0 12,2 16,7l37 45c2,3 6,5 10,5l0 0c4,0 7,-2 10,-5l37 -45c3,-5 9,-7 16,-7l0 0c6,0 12,2 16,7l36 45c3,3 6,5 10,5l0 0c4,0 8,-2 10,-5l37 -45c4,-5 10,-7 16,-7l0 0c6,0 12,2 16,7l37 45c2,3 6,5 10,5 4,0 7,-2 10,-5l37 -45c0,0 1,-1 2,-2l1 10 -34 42c-4,5 -10,8 -16,8z"/>
     <path class="fil13 str1" d="M7064 2474l0 -433"/>
     <path class="fil26" d="M7085 2484l-21 0 21 0c12,0 24,-3 35,-10 -11,7 -23,10 -35,10zm54 -27l59 -60c0,0 0,0 0,0l-59 60z"/>
     <g>
      <path class="fil9" d="M6990 2166c-6,0 -11,5 -11,11 0,6 5,11 11,11 6,0 11,-5 11,-11 0,-6 -5,-11 -11,-11zm144 0c-6,0 -11,5 -11,11 0,6 5,11 11,11 6,0 11,-5 11,-11 0,-6 -5,-11 -11,-11z"/>
      <path id="1" class="fil10" d="M6990 2177l-22 0 0 0 0 -1 0 -1 0 -1 1 -1 0 -1 0 -1 0 -1 1 -1 0 -1 1 -1 0 -1 1 0 0 -1 1 -1 0 -1 1 0 1 -1 1 -1 0 0 1 -1 1 -1 1 0 1 -1 1 0 1 -1 1 0 1 0 1 0 2 -1 1 0 1 0 1 0 0 20 0 0 0 0 0 0 0 0 0 0 0 -1 0 0 1 0 0 0 0 0 0 0 0 0 0 0 0 0 0 0 -1 0 0 1 0 0 0 0 0 0 0 0 0 0 0 0 0 0 0 0 0 0 0 0 0 0 0 0 0 1 0 0 0 0 0 0zm0 0c0,5 -5,9 -11,9 -6,0 -11,-4 -11,-9l22 0zm0 1l0 19 0 0 -1 0 -1 0 -1 0 -2 0 -1 0 -1 -1 -1 0 -1 0 -1 -1 -1 0 -1 -1 -1 0 -1 -1 0 -1 -1 0 -1 -1 -1 -1 0 -1 -1 0 0 -1 -1 -1 0 -1 -1 -1 0 -1 -1 0 0 -1 0 -1 0 -1 -1 -1 0 -1 0 -1 0 -1 22 0 0 0 0 0 0 0 0 0 0 0 0 0 0 0 0 1 0 0 0 0 0 0 0 0 0 0 0 0 0 0 0 0 1 0 0 0 0 0 0 0 0 0 0 0 0 0 -1 0 0 0 0 0 0 0 0 0 0 0 0 0 0 0 0 0 0 0zm0 0c6,0 11,4 11,10 0,5 -5,9 -11,9l0 -19zm0 -1l22 0 0 0 0 1 0 1 0 1 0 1 -1 1 0 1 0 1 -1 0 0 1 0 1 -1 1 -1 1 0 1 -1 0 0 1 -1 1 -1 1 -1 0 0 1 -1 1 -1 0 -1 1 -1 0 -1 1 -1 0 -1 0 -1 1 -1 0 -1 0 -2 0 -1 0 -1 0 0 -19 0 0 0 0 0 0 0 0 0 0 0 0 0 0 0 0 0 0 0 0 0 0 0 0 0 0 0 0 0 0 0 0 0 0 0 0 0 0 0 0 0 0 0 0 0 0 0 0 0 -1 0 0 0 0 0 0 0 0 0 0 0 0 0 0 0 0zm0 0c0,-6 5,-10 11,-10 6,0 11,4 11,10l-22 0zm0 -1l0 -20 0 0 1 0 1 0 2 0 1 1 1 0 1 0 1 0 1 1 1 0 1 1 1 0 1 1 1 1 0 0 1 1 1 1 1 0 0 1 1 1 0 1 1 0 1 1 0 1 0 1 1 1 0 1 0 1 1 1 0 1 0 1 0 1 0 1 -22 0 0 0 0 0 0 -1 0 0 0 0 0 0 0 0 0 0 0 0 0 0 0 0 0 0 0 0 0 0 0 0 0 -1 0 0 0 0 0 0 0 0 0 0 0 0 0 0 0 0 0 0 0 0 0 1 0 0 0 0 0 0 0 0 0 0 0 0zm0 0c-6,0 -11,-5 -11,-10 0,-6 5,-10 11,-10l0 20zm144 1l-22 0 0 0 0 -1 0 -1 0 -1 0 -1 0 -1 1 -1 0 -1 0 -1 1 -1 0 -1 1 -1 0 0 1 -1 0 -1 1 -1 1 0 1 -1 0 -1 1 0 1 -1 1 -1 1 0 1 -1 1 0 1 -1 1 0 1 0 1 0 1 -1 1 0 2 0 1 0 0 20 0 0 0 0 0 0 0 0 0 0 0 -1 0 0 0 0 0 0 0 0 0 0 0 0 0 0 0 0 0 0 0 0 0 1 0 0 0 0 0 0 0 0 0 0 0 0 0 0 0 0 0 0 0 0 0 0 0 0 0 1 0 0 0 0 0 0zm0 0c0,5 -5,9 -11,9 -6,0 -11,-4 -11,-9l22 0zm0 1l0 19 0 0 -1 0 -2 0 -1 0 -1 0 -1 0 -1 -1 -1 0 -1 0 -1 -1 -1 0 -1 -1 -1 0 -1 -1 -1 -1 0 0 -1 -1 -1 -1 -1 -1 0 0 -1 -1 0 -1 -1 -1 0 -1 -1 -1 0 0 0 -1 -1 -1 0 -1 0 -1 0 -1 0 -1 0 -1 22 0 0 0 0 0 0 0 0 0 0 0 0 0 0 0 0 1 0 0 0 0 0 0 0 0 0 0 0 0 0 0 0 0 0 0 0 0 0 0 0 0 0 0 0 0 0 0 0 0 0 0 0 0 0 0 0 0 0 0 0 0 0 0 0 0 0 0zm0 0c6,0 11,4 11,10 0,5 -5,9 -11,9l0 -19zm0 -1l22 0 0 0 0 1 -1 1 0 1 0 1 0 1 0 1 -1 1 0 0 0 1 -1 1 0 1 -1 1 0 1 -1 0 -1 1 0 1 -1 1 -1 0 -1 1 -1 1 0 0 -1 1 -1 0 -1 1 -1 0 -1 0 -2 1 -1 0 -1 0 -1 0 -1 0 -1 0 0 -19 0 0 0 0 0 0 -1 0 0 0 0 0 0 0 0 0 0 0 0 0 0 0 0 0 0 0 0 0 0 0 0 0 0 0 0 0 0 0 0 0 0 0 0 0 1 0 0 0 0 -1 0 0 0 0 0 0 0 0 0 0 0 0 0 0 0 0zm0 0c0,-6 5,-10 11,-10 6,0 11,4 11,10l-22 0zm0 -1l0 -20 0 0 1 0 1 0 1 0 1 1 1 0 2 0 1 0 1 1 1 0 1 1 1 0 0 1 1 1 1 0 1 1 1 1 0 0 1 1 1 1 0 1 1 0 0 1 1 1 0 1 0 1 1 1 0 1 0 1 0 1 0 1 1 1 0 1 -22 0 0 0 0 0 0 -1 0 0 0 0 0 0 0 0 0 0 0 0 -1 0 0 0 0 0 0 0 0 0 0 0 0 -1 0 0 0 0 0 0 0 0 0 0 0 0 0 0 0 0 0 0 0 0 0 1 0 0 1 0 0 0 0 0 0 0 0 0zm0 0c-6,0 -11,-5 -11,-10 0,-6 5,-10 11,-10l0 20z"/>
     </g>
    </g>
    <g>
     <path class="fil2 str0" d="M5581 2737c-27,-94 -152,-94 -224,-113 -9,-2 -17,-4 -26,-7 -8,-2 -17,-5 -24,-10 -30,-20 -31,-72 -35,-104 -4,-33 -7,-67 -7,-100 0,-12 0,-24 1,-36 -31,11 -49,35 -82,36 -2,0 -17,0 -30,0 -12,0 -23,0 -23,0 0,0 -12,0 -24,0 -13,0 -27,0 -29,0 -33,-1 -52,-25 -82,-36 0,12 0,24 0,36 0,33 -2,67 -7,100 -4,32 -5,84 -35,104 -7,5 -16,8 -24,10 -8,3 -17,5 -26,7 -71,19 -197,19 -224,113l-39 247 490 0 490 0 -40 -247z"/>
     <path class="fil23" d="M5581 2737c-27,-94 -152,-94 -224,-113 -9,-2 -17,-4 -26,-7 -3,-1 -7,-2 -10,-3 -48,41 -115,67 -190,67 -75,0 -142,-26 -190,-67 -4,1 -7,2 -11,3 -8,3 -17,5 -26,7 -71,19 -197,19 -224,113l-39 247 490 0 490 0 -40 -247z"/>
     <path class="fil23 str0" d="M5280 2542l82 100 -153 141 -56 -141 127 -100z"/>
     <path class="fil23 str0" d="M4981 2542l-82 100 154 141 56 -141 -128 -100z"/>
     <path class="fil27 str0" d="M5374 2614l119 40c0,0 89,17 96,129l32 201 -259 0 12 -370z"/>
     <path class="fil11 str0" d="M5292 2556l8 -7 74 57 0 378 -148 0 66 -428z"/>
     <path class="fil27 str0" d="M4888 2614l-119 40c0,0 -89,17 -96,129l-32 201 258 0 -11 -370z"/>
     <path class="fil11 str0" d="M4969 2556l-8 -7 -73 57 0 378 148 0 -67 -428z"/>
     <path class="fil3" d="M5351 2173c3,0 6,1 9,3 1,1 2,3 2,5 4,11 6,22 4,34 -11,16 -24,32 -32,50 -2,5 -7,15 -13,16 -8,1 -10,-8 -10,-14 -3,-27 1,-55 5,-82 1,-2 1,-4 2,-6 2,-1 4,-2 6,-3 9,-3 18,-4 27,-3z"/>
     <path class="fil2 str0" d="M5320 2281c-7,0 -9,-9 -9,-14 -1,-5 -1,-11 -1,-16 0,-22 3,-44 6,-66 1,-2 1,-4 2,-6 2,-1 4,-2 6,-3 7,-2 14,-3 22,-3 2,0 3,0 5,0 3,0 6,1 9,3 1,1 2,3 2,5 3,7 5,15 5,22 0,4 -1,8 -1,12 -11,16 -24,32 -32,50 -2,5 -7,15 -13,16 -1,0 -1,0 -1,0z"/>
     <path class="fil2 str0" d="M5336 2130l-20 192c-3,16 -9,31 -18,43l-92 92c-2,1 -3,3 -5,5 -12,14 -30,22 -49,22l-21 0 0 -562c114,0 223,83 205,208z"/>
     <path class="fil2 str0" d="M4911 2173c-3,0 -6,1 -8,3 -2,1 -3,3 -3,5 -4,11 -5,22 -3,34 11,16 24,32 31,50 2,5 7,15 13,16 8,1 10,-8 11,-14 2,-27 -2,-55 -6,-82 0,-2 -1,-4 -2,-6 -1,-1 -3,-2 -6,-3 -8,-3 -18,-4 -27,-3z"/>
     <path class="fil2 str0" d="M4926 2130l20 192c2,16 8,31 18,43l92 92c1,1 3,3 4,5 13,14 31,22 50,22l21 0 0 -562c-114,0 -223,83 -205,208z"/>
     <path class="fil28 str0" d="M5333 1975c-11,-26 -27,-49 -48,-69 -63,-59 -163,-71 -243,-45 -19,5 -37,15 -52,28 -15,13 -19,24 -21,43 -29,1 -45,32 -54,56 -25,73 9,185 9,185l26 12c-6,-2 2,-52 3,-57 5,-34 15,-78 40,-102 24,22 58,28 90,34 36,6 73,6 110,2 -14,-8 -25,-19 -34,-32 32,17 66,33 102,30 -4,-6 -8,-12 -13,-17 7,9 26,11 36,17 15,9 25,29 29,45 4,14 5,28 6,43 0,4 5,35 1,37l22 -12c19,-64 19,-137 -9,-198z"/>
     <path class="fil29" d="M5248 2760c-1,8 -2,16 -7,21 -6,6 -15,8 -23,7 -23,-1 -43,-13 -62,-25 -22,-13 -45,-28 -61,-49 35,-27 75,-49 118,-64 11,-4 25,-6 33,2 6,6 7,15 7,24 0,28 -2,56 -5,84z"/>
     <path class="fil29 str0" d="M5013 2760c1,8 2,16 7,21 6,6 15,8 24,7 22,-1 42,-13 62,-25 22,-13 44,-28 60,-49 -35,-27 -75,-49 -117,-64 -11,-4 -25,-6 -34,2 -6,6 -6,15 -6,24 0,28 1,56 4,84z"/>
     <path class="fil24" d="M5621 2984l0 0c0,0 0,0 0,0zm0 0l-1 0c1,0 1,0 1,0zm-1 0l-31 -201c-1,-1 -1,-3 -1,-5 0,2 0,4 1,5l2 16c11,70 28,175 29,185zm-37 -238c0,0 0,0 0,0l-2 -9c0,1 1,5 2,9zm-291 -190l0 0 8 -7 -8 7zm-5 -7l-7 -7 7 7zm-10 -5c-2,-13 -3,-26 -4,-37 1,11 2,24 4,37l0 0zm-4 -37c0,0 0,0 0,0 0,0 0,0 0,0zm-8 -104c0,-2 0,-4 0,-5l0 0c0,1 0,3 0,5z"/>
     <path class="fil25" d="M5131 2484l-21 0c-19,0 -37,-8 -50,-22 -1,-2 -3,-4 -4,-5 1,1 3,3 4,5 13,14 31,22 50,22l21 0zm-75 -27l-56 -55 0 0 56 55z"/>
     <path class="fil26" d="M5152 2484l-21 0 21 0c17,0 34,-6 46,-19 -12,13 -29,19 -46,19zm50 -23c1,-2 2,-3 4,-4 -2,1 -3,2 -4,4z"/>
     <path class="fil30 str0" d="M5221 2788c-1,0 -2,0 -3,0 -6,0 -11,-1 -16,-2l-47 -33c0,-1 11,-38 11,-39 -1,-1 -2,-2 -3,-3l0 -14c0,-9 -8,-16 -17,-16l0 0c6,-4 12,-7 18,-10l0 0c16,-8 32,-15 49,-21 5,-2 12,-3 18,-3 6,0 11,1 15,5 6,6 7,15 7,24 0,23 -1,47 -3,70 -1,4 -1,9 -2,14 -1,8 -2,16 -7,21 -5,6 -13,7 -20,7z"/>
     <path class="fil30" d="M5165 2716l-2 -3 0 -2c1,1 2,2 3,3 0,1 -1,2 -1,2z"/>
     <path class="fil31" d="M5163 2713l-17 -32 0 0 0 0c9,0 17,7 17,16l0 14 0 2z"/>
     <path class="fil32 str0" d="M5146 2754l-31 0c-9,0 -16,-7 -16,-16l0 -41c0,-9 7,-16 16,-16l31 0c9,0 17,7 17,16l0 41c0,9 -8,16 -17,16z"/>
     <path class="fil13 str1" d="M5131 2475l0 -397"/>
     <g>
      <path class="fil9" d="M5055 2166c-6,0 -11,5 -11,11 0,6 5,11 11,11 6,0 11,-5 11,-11 0,-6 -5,-11 -11,-11zm143 0c-6,0 -11,5 -11,11 0,6 5,11 11,11 6,0 11,-5 11,-11 0,-6 -5,-11 -11,-11z"/>
      <path id="1" class="fil10" d="M5055 2177l-22 0 0 0 0 -1 0 -1 0 -1 0 -1 0 -1 1 -1 0 -1 0 -1 1 -1 0 0 1 -1 0 -1 1 -1 0 -1 1 0 1 -1 0 -1 1 -1 1 0 1 -1 1 0 1 -1 1 0 1 -1 1 0 1 -1 1 0 1 0 1 0 1 -1 1 0 2 0 0 20 0 0 0 0 0 0 0 0 0 0 0 0 0 0 0 0 0 0 0 0 0 0 0 0 0 0 0 0 0 0 0 0 0 0 0 0 0 0 0 0 0 0 0 0 0 0 0 0 0 0 0 0 0 0 0 1 0 0 0 0 0 0 0 0 0 0zm0 0c0,5 -5,10 -11,10 -6,0 -11,-5 -11,-10l22 0zm0 1l0 20 0 0 -2 0 -1 0 -1 -1 -1 0 -1 0 -1 0 -1 -1 -1 0 -1 -1 -1 0 -1 -1 -1 0 -1 -1 -1 0 -1 -1 0 -1 -1 -1 -1 0 0 -1 -1 -1 0 -1 -1 -1 0 0 -1 -1 0 -1 0 -1 -1 -1 0 -1 0 -1 0 -1 0 -1 0 -1 22 0 0 0 0 0 0 0 0 0 0 1 0 0 0 0 0 0 0 0 0 0 0 0 0 0 0 0 0 0 0 0 0 0 0 0 0 0 0 0 0 0 0 0 0 0 0 0 0 0 0 0 0 0 0 0 0 0 0 0 0 0 0 0 0 0 0 0zm0 0c6,0 11,5 11,10 0,5 -5,10 -11,10l0 -20zm0 -1l22 0 0 0 -1 1 0 1 0 1 0 1 0 1 0 1 -1 1 0 1 0 1 -1 0 0 1 -1 1 0 1 -1 1 -1 0 0 1 -1 1 -1 1 -1 0 -1 1 -1 0 0 1 -1 0 -1 1 -1 0 -2 1 -1 0 -1 0 -1 0 -1 1 -1 0 -1 0 0 -20 0 0 0 0 -1 0 0 0 0 0 0 0 0 0 0 0 0 0 0 0 0 0 0 0 0 0 0 0 0 0 0 0 0 0 0 0 0 0 0 0 0 0 0 0 0 0 0 0 1 0 0 0 0 0 0 -1 0 0 0 0 0 0 0 0 0 0zm0 0c0,-5 5,-10 11,-10 6,0 11,5 11,10l-22 0zm0 -1l0 -20 0 0 1 0 1 0 1 1 1 0 1 0 1 0 2 1 1 0 1 1 1 0 0 1 1 0 1 1 1 0 1 1 1 1 0 1 1 0 1 1 0 1 1 1 0 1 1 0 0 1 0 1 1 1 0 1 0 1 0 1 0 1 0 1 1 1 -22 0 0 0 0 0 0 0 0 0 0 -1 0 0 0 0 -1 0 0 0 0 0 0 0 0 0 0 0 0 0 0 0 0 0 0 0 0 0 0 0 0 0 0 0 0 0 0 0 0 0 0 0 0 0 0 0 0 0 0 0 1 0 0 0 0 0 0 0zm0 0c-6,0 -11,-5 -11,-10 0,-5 5,-10 11,-10l0 20zm143 1l-22 0 0 0 0 -1 1 -1 0 -1 0 -1 0 -1 0 -1 1 -1 0 -1 0 -1 1 0 0 -1 1 -1 0 -1 1 -1 1 0 0 -1 1 -1 1 -1 1 0 1 -1 0 0 1 -1 1 0 1 -1 1 0 1 -1 2 0 1 0 1 0 1 -1 1 0 1 0 0 20 0 0 0 0 0 0 1 0 0 0 0 0 0 0 0 0 0 0 0 0 0 0 0 0 0 0 0 0 0 0 0 0 0 0 0 0 0 0 0 0 0 0 0 0 -1 0 0 0 0 0 0 0 0 0 0 1 0 0 0 0 0 0 0 0 0 0zm0 0c0,5 -5,10 -11,10 -6,0 -11,-5 -11,-10l22 0zm0 1l0 20 0 0 -1 0 -1 0 -1 -1 -1 0 -1 0 -2 0 -1 -1 -1 0 -1 -1 -1 0 -1 -1 0 0 -1 -1 -1 0 -1 -1 -1 -1 0 -1 -1 0 -1 -1 0 -1 -1 -1 0 -1 -1 0 0 -1 0 -1 -1 -1 0 -1 0 -1 0 -1 0 -1 -1 -1 0 -1 22 0 0 0 0 0 0 0 0 0 0 1 0 0 0 0 0 0 0 0 1 0 0 0 0 0 0 0 0 0 0 0 0 0 0 0 0 0 0 0 0 0 0 0 0 0 0 0 0 0 0 0 0 0 0 0 0 0 -1 0 0 0 0 0 0 0 0 0zm0 0c6,0 11,5 11,10 0,5 -5,10 -11,10l0 -20zm0 -1l22 0 0 0 0 1 0 1 0 1 0 1 0 1 -1 1 0 1 0 1 -1 1 0 0 -1 1 0 1 -1 1 0 1 -1 0 -1 1 -1 1 0 1 -1 0 -1 1 -1 0 -1 1 -1 0 -1 1 -1 0 -1 1 -1 0 -1 0 -1 0 -1 1 -2 0 -1 0 0 -20 0 0 0 0 0 0 0 0 0 0 0 0 0 0 0 0 0 0 0 0 0 0 0 0 0 0 0 0 0 0 0 0 0 0 0 0 0 0 0 0 0 0 0 0 0 0 0 0 0 0 0 0 0 0 0 -1 0 0 0 0 0 0 0 0 0 0zm0 0c0,-5 5,-10 11,-10 6,0 11,5 11,10l-22 0zm0 -1l0 -20 0 0 1 0 2 0 1 1 1 0 1 0 1 0 1 1 1 0 1 1 1 0 1 1 1 0 1 1 1 0 0 1 1 1 1 1 1 0 0 1 1 1 0 1 1 1 0 0 1 1 0 1 0 1 1 1 0 1 0 1 0 1 0 1 0 1 -22 0 0 0 0 0 0 0 0 0 0 -1 0 0 0 0 0 0 0 0 0 0 0 0 0 0 0 0 0 0 0 0 0 0 0 0 0 0 0 0 0 0 0 0 0 0 0 0 0 0 0 0 0 0 0 0 0 0 0 0 0 0 0 0 0 0 0 0zm0 0c-6,0 -11,-5 -11,-10 0,-5 5,-10 11,-10l0 20z"/>
     </g>
    </g>
    <g>
     <path class="fil2 str0" d="M8550 2733c-27,-95 -152,-95 -225,-113 -8,-2 -17,-5 -25,-7 -9,-3 -17,-5 -25,-10 -30,-21 -30,-73 -35,-105 -4,-33 -7,-67 -7,-101 0,-11 0,-23 1,-35 -31,11 -49,35 -82,36 -3,0 -17,0 -30,0 -12,0 -24,-1 -24,0 0,-1 -11,0 -23,0 -13,0 -28,0 -30,0 -33,-1 -52,-25 -82,-36 0,12 1,24 1,35 -1,34 -3,68 -7,101 -5,32 -6,84 -36,105 -7,5 -15,7 -24,10 -8,2 -17,5 -26,7 -72,18 -198,18 -224,113l-40 248 491 0 492 0 -40 -248z"/>
     <path class="fil33" d="M8550 2733c-27,-95 -152,-95 -225,-113 -8,-2 -17,-5 -25,-7 -4,-1 -8,-25 -11,-27 -48,42 -191,137 -191,137 0,0 -142,-95 -190,-137 -4,2 -7,26 -11,27 -8,2 -17,5 -26,7 -72,18 -198,18 -224,113l-40 248 491 0 492 0 -40 -248z"/>
     <path class="fil34" d="M8248 2537l82 101 -153 141 -56 -142 127 -100z"/>
     <path class="fil35" d="M8121 2637l-23 86 45 -28 -22 -58z"/>
     <path class="fil34 str0" d="M7948 2537l-82 101 154 141 56 -142 -128 -100z"/>
     <path class="fil35" d="M8076 2637l22 86 -45 -28 23 -58z"/>
     <path class="fil24" d="M8590 2981l0 0 -40 -248c0,0 0,-1 0,-1 0,0 0,1 0,1l0 1c1,6 6,36 12,73 1,6 2,12 3,19 1,3 1,7 2,11 11,68 23,144 23,144zm-262 -360c0,0 0,0 0,0 0,-1 0,0 0,0zm-1 -1c0,0 0,0 0,0 0,0 0,0 0,0zm0 0c0,0 0,0 0,0 0,0 0,0 0,0zm0 0c0,0 -1,0 -1,0 0,0 1,0 1,0zm-1 0c0,0 0,0 0,0 0,0 0,0 0,0zm0 0c0,0 0,0 0,0 0,0 0,0 0,0zm0 0c0,0 0,0 -1,0 1,0 1,0 1,0zm-1 0c-4,-1 -8,-2 -12,-3l-10 -13 10 13c4,1 8,2 12,3zm-36 -34l0 0 0 0c0,0 0,0 0,0zm0 0c0,0 0,0 0,0 0,0 0,0 0,0zm0 0c0,0 0,0 0,0 0,0 0,0 0,0zm0 0c0,0 0,0 0,0 0,0 0,0 0,0zm0 0c0,0 0,0 0,0 0,0 0,0 0,0zm0 0c0,0 0,0 0,0 0,0 0,0 0,0zm0 0c0,0 0,0 0,0 0,0 0,0 0,0zm0 0c0,0 0,0 0,0 0,0 0,0 0,0zm-44 -47c-2,-13 -3,-26 -4,-37 1,11 2,24 4,37l2 -1 -2 1zm-4 -37c0,0 0,0 0,0 0,0 0,0 0,0zm-3 -26c-3,-25 -5,-50 -5,-75 0,24 2,48 4,72 0,1 1,2 1,3zm-5 -75c0,0 0,0 0,-1 0,1 0,1 0,1zm0 -1c0,0 0,0 0,0 0,0 0,0 0,0zm0 -1c0,0 0,0 0,0 0,0 0,0 0,0zm0 -1c0,0 0,0 0,0 0,0 0,0 0,0zm0 -1l0 0c0,-1 0,-3 0,-5l0 0c0,2 0,4 0,5l0 0z"/>
     <path class="fil36" d="M8590 2981l-248 0 -12 0 -53 0 -149 -277 15 -9 0 -2 34 86 153 -141 -17 -21c4,1 8,2 12,3l0 0c1,0 1,0 1,0 0,0 0,0 0,0 0,0 0,0 0,0 0,0 0,0 0,0 0,0 0,0 0,0 0,0 0,0 0,0 0,0 1,0 1,0 0,0 0,0 0,0 0,0 0,0 0,0 0,0 0,0 0,0 0,0 0,0 0,0 0,0 1,0 1,1 0,0 0,0 0,0 52,12 132,16 182,54 2,1 4,3 6,5l1 0c2,2 3,4 5,5l1 1c2,2 3,4 5,6l1 1c2,2 3,3 4,5l2 2c1,2 2,3 3,5 1,1 1,2 1,2 2,2 2,4 3,6 1,1 1,2 2,2 1,2 1,4 2,6 1,1 1,2 1,3 1,3 2,5 3,8 0,0 0,1 0,1l40 248zm-299 -392l-2 -3c0,0 0,0 0,0l0 0c0,0 0,0 0,0 0,0 0,0 0,0 0,0 0,0 0,0 0,0 0,0 0,0 0,0 0,0 0,0 0,0 0,0 0,0 0,0 0,0 0,0 0,0 0,0 0,0 0,0 0,0 0,0 0,0 0,0 0,0 0,0 0,0 0,0 1,1 1,2 2,3z"/>
     <path class="fil37 str0" d="M8177 2779l-34 -86 -22 -56 124 -98 2 -1 1 -1 0 0 10 12 2 2 29 35 0 0 2 3c0,0 0,0 0,0l12 15 10 13 17 21 -153 141z"/>
     <path class="fil38" d="M8128 2704l-17 -31 10 -36 22 56 0 2 -15 9z"/>
     <path class="fil35" d="M8084 2706l14 17 0 258 -14 0 0 -275z"/>
     <path class="fil35" d="M8132 2746c0,8 -6,14 -13,14 -8,0 -14,-6 -14,-14 0,-7 6,-13 14,-13 7,0 13,6 13,13z"/>
     <path class="fil35" d="M8132 2927c0,8 -6,14 -13,14 -8,0 -14,-6 -14,-14 0,-7 6,-13 14,-13 7,0 13,6 13,13z"/>
     <path class="fil39 str0" d="M8131 2664l-33 0 -32 0 -24 59 25 29 31 0 32 0 25 -29 -24 -59z"/>
     <path class="fil4 str0" d="M8130 2752l-32 0 -31 0 -33 229 64 0 64 0 -32 -229z"/>
     <path class="fil2" d="M7893 2124l20 193c2,16 8,31 18,43l92 92c2,1 3,3 5,5 12,14 30,23 49,23l21 0 0 -564c-114,0 -223,83 -205,208z"/>
     <path class="fil3" d="M8304 2124l-20 193c-2,16 -9,31 -18,43l-92 92c-2,1 -3,3 -5,5 -12,14 -30,23 -49,23l-22 0 0 -564c115,0 224,83 206,208z"/>
     <path class="fil2" d="M8120 2480l-22 0 0 -564c106,0 208,71 208,181 0,9 -1,18 -2,27l-5 44c-2,1 -5,2 -7,2 -2,1 -4,2 -5,4 -2,1 -2,3 -2,5 -4,22 -7,44 -7,66 0,6 1,11 1,17 0,5 3,14 9,14 0,0 0,0 0,0l-4 41c-2,16 -9,31 -18,43l-33 32 -59 60c-2,1 -3,2 -4,4 0,0 0,0 -1,1 -12,14 -30,23 -49,23z"/>
     <path class="fil3" d="M8319 2167c3,0 7,1 9,3 1,1 2,3 3,5 4,11 5,23 3,34 -11,16 -24,32 -32,50 -2,6 -6,16 -13,17 -7,0 -10,-9 -10,-14 -2,-28 2,-55 6,-83 0,-2 0,-4 2,-5 1,-2 3,-3 5,-4 9,-2 18,-4 27,-3z"/>
     <path class="fil16 str0" d="M8288 2276c-6,0 -9,-9 -9,-14 0,-6 -1,-11 -1,-17 0,-22 3,-44 7,-66 0,-2 0,-4 2,-5 1,-2 3,-3 5,-4 7,-2 15,-3 22,-3 2,0 4,0 5,0 3,0 7,1 9,3 1,1 2,3 3,5 3,7 4,15 4,23 0,3 0,7 -1,11 -11,16 -24,32 -32,50 -2,6 -6,16 -13,17 0,0 -1,0 -1,0z"/>
     <path class="fil3 str0" d="M7878 2167c-3,0 -6,1 -8,3 -2,1 -3,3 -3,5 -4,11 -5,23 -3,34 11,16 24,32 31,50 2,6 7,16 14,17 7,0 9,-9 10,-14 2,-28 -2,-55 -6,-83 0,-2 -1,-4 -2,-5 -1,-2 -3,-3 -5,-4 -9,-2 -18,-4 -28,-3z"/>
     <path class="fil40 str0" d="M8304 1968c-13,-41 -36,-86 -76,-99 -8,-3 -16,-2 -25,-2 -22,2 -44,3 -65,-5 -16,-6 -30,-17 -46,-25 -29,-13 -62,-13 -91,-1 -39,16 -61,50 -64,91 -29,0 -46,31 -54,55 -26,74 8,186 8,186l26 12c-1,-18 6,-84 12,-104 24,-75 109,-115 181,-77 31,16 114,101 143,38 1,-1 22,44 23,48 11,30 15,63 13,95l22 -12c5,-3 7,-30 8,-36 3,-14 4,-29 4,-44 1,-28 -2,-57 -9,-84 -2,-11 -5,-23 -10,-36z"/>
     <path class="fil41 str0" d="M8169 2457c2,-2 3,-4 5,-5l92 -92c9,-12 18,-48 20,-64l-32 6c0,0 21,1 -52,52 -72,51 -81,10 -81,10l-23 0 0 116 22 0c19,0 37,-9 49,-23z"/>
     <path class="fil41 str0" d="M8028 2457c-2,-2 -3,-4 -5,-5l-92 -92c-10,-12 -16,-27 -18,-43l6 -55c0,0 3,41 76,92 72,51 81,10 81,10l22 0 0 116 -21 0c-19,0 -37,-9 -49,-23z"/>
     <path class="fil41 str0" d="M8175 2298c-6,-4 -13,-6 -19,-5l-115 0c-7,-1 -14,1 -19,5l-73 53 52 47 35 -64c5,-9 15,-15 25,-15l37 0 38 0c10,0 20,6 25,15l35 64 52 -47 -73 -53z"/>
     <g>
      <path class="fil9" d="M8025 2142c-6,0 -11,5 -11,11 0,6 5,11 11,11 6,0 11,-5 11,-11 0,-6 -5,-11 -11,-11zm144 0c-6,0 -11,5 -11,11 0,6 5,11 11,11 6,0 11,-5 11,-11 0,-6 -5,-11 -11,-11z"/>
      <path id="1" class="fil10" d="M8025 2153l-22 0 0 0 0 -1 0 -1 0 -1 0 -1 1 -1 0 -1 0 -1 1 0 0 -1 0 -1 1 -1 0 -1 1 -1 1 -1 0 0 1 -1 1 -1 1 0 0 -1 1 -1 1 0 1 -1 1 0 1 -1 1 0 1 0 1 -1 1 0 1 0 2 0 1 0 1 -1 0 20 0 0 0 0 0 0 0 0 0 0 0 0 0 0 0 0 0 0 0 0 0 0 0 0 0 0 0 0 0 0 0 0 0 0 0 0 0 0 0 0 0 0 0 0 0 0 0 0 0 0 0 1 0 0 0 0 0 0 0 0 0 0 0 0 0 0zm0 0c0,6 -5,10 -11,10 -6,0 -11,-4 -11,-10l22 0zm0 1l0 20 0 0 -1 0 -1 0 -2 0 -1 -1 -1 0 -1 0 -1 0 -1 -1 -1 0 -1 -1 -1 0 -1 -1 -1 -1 0 0 -1 -1 -1 -1 -1 0 0 -1 -1 -1 -1 -1 0 0 -1 -1 0 -1 0 -1 -1 -1 0 -1 0 -1 -1 -1 0 -1 0 -1 0 -1 0 -1 22 0 0 0 0 0 0 1 0 0 0 0 0 0 0 0 0 0 0 0 0 0 0 0 0 0 0 0 0 0 0 0 0 0 0 1 0 0 0 0 0 0 0 0 0 0 0 0 0 0 0 -1 0 0 0 0 0 0 0 0 0 0 0 0 0 0 0 0zm0 0c6,0 11,5 11,10 0,6 -5,10 -11,10l0 -20zm0 -1l22 0 0 0 0 1 0 1 0 1 -1 1 0 1 0 1 0 1 -1 1 0 1 -1 1 0 1 -1 0 0 1 -1 1 0 1 -1 0 -1 1 -1 1 0 0 -1 1 -1 1 -1 0 -1 1 -1 0 -1 1 -1 0 -1 0 -1 0 -2 1 -1 0 -1 0 -1 0 0 -20 0 0 0 0 0 0 0 0 0 0 0 0 0 0 -1 1 0 0 0 0 0 0 0 0 0 0 0 0 0 -1 1 0 0 0 0 0 0 0 0 0 0 0 0 0 0 0 0 0 0 0 0 0 0 0 0 0 0 0 0 -1 0 0 0 0 0 0zm0 0c0,-5 5,-10 11,-10 6,0 11,5 11,10l-22 0zm0 -1l0 -20 0 0 1 1 1 0 1 0 2 0 1 0 1 1 1 0 1 0 1 1 1 0 1 1 1 0 1 1 0 1 1 0 1 1 1 1 0 0 1 1 0 1 1 1 0 1 1 1 0 0 1 1 0 1 0 1 0 1 1 1 0 1 0 1 0 1 -22 0 0 0 0 0 0 0 0 0 0 0 0 0 0 -1 0 0 0 0 0 0 0 0 0 0 0 0 0 0 0 0 0 0 -1 0 0 0 0 0 0 0 0 0 0 0 0 0 0 0 1 0 0 0 0 0 0 0 0 0 0 0 0 0 0 0 0 0zm0 0c-6,0 -11,-4 -11,-10 0,-5 5,-10 11,-10l0 20zm144 1l-22 0 0 0 0 -1 0 -1 0 -1 0 -1 1 -1 0 -1 0 -1 1 -1 0 0 0 -1 1 -1 1 -1 0 -1 1 -1 0 0 1 -1 1 -1 1 0 0 -1 1 -1 1 0 1 -1 1 0 1 -1 1 0 1 0 1 -1 1 0 1 0 2 0 1 0 1 -1 0 20 0 0 0 0 0 0 0 0 0 0 0 0 0 0 0 0 0 0 0 0 0 0 1 0 0 0 -1 0 0 0 0 0 0 0 0 0 0 0 0 0 0 0 0 0 0 0 0 0 0 0 0 1 0 0 0 0 0 0 0 0 0 0 0 0 0 0zm0 0c0,6 -5,10 -11,10 -6,0 -11,-4 -11,-10l22 0zm0 1l0 20 0 0 -1 0 -1 0 -2 0 -1 -1 -1 0 -1 0 -1 0 -1 -1 -1 0 -1 -1 -1 0 -1 -1 -1 -1 0 0 -1 -1 -1 -1 -1 0 0 -1 -1 -1 0 -1 -1 0 -1 -1 0 -1 0 -1 -1 -1 0 -1 0 -1 -1 -1 0 -1 0 -1 0 -1 0 -1 22 0 0 0 0 0 0 1 0 0 0 0 0 0 0 0 0 0 0 0 0 0 0 0 0 0 0 0 0 0 0 0 0 0 0 0 0 1 1 0 0 0 -1 0 0 0 0 0 0 0 0 -1 0 0 0 0 0 0 0 0 0 0 0 0 0 0 0 0zm0 0c6,0 11,5 11,10 0,6 -5,10 -11,10l0 -20zm0 -1l22 0 0 0 0 1 0 1 0 1 0 1 -1 1 0 1 0 1 -1 1 0 1 0 1 -1 1 0 0 -1 1 -1 1 0 1 -1 0 -1 1 -1 1 0 0 -1 1 -1 1 -1 0 -1 1 -1 0 -1 1 -1 0 -1 0 -1 0 -1 1 -2 0 -1 0 -1 0 0 -20 0 0 0 0 0 0 0 0 0 0 0 0 0 0 0 1 0 0 0 0 0 0 0 0 0 0 0 0 0 0 0 -1 0 0 0 0 0 0 0 0 0 0 0 0 0 0 0 0 0 0 0 0 0 0 0 0 0 0 0 -1 0 0 0 0 0 0zm0 0c0,-5 5,-10 11,-10 6,0 11,5 11,10l-22 0zm0 -1l0 -20 0 0 1 1 1 0 2 0 1 0 1 0 1 1 1 0 1 0 1 1 1 0 1 1 1 0 1 1 0 1 1 0 1 1 1 1 0 0 1 1 1 1 0 1 1 1 0 1 0 1 1 0 0 1 0 1 1 1 0 1 0 1 0 1 0 1 -22 0 0 0 0 0 0 0 0 0 0 0 0 0 0 -1 0 0 0 0 0 0 0 0 0 0 0 0 0 0 0 0 0 0 0 0 0 0 0 0 0 0 0 0 0 0 0 0 0 0 0 0 0 0 0 0 0 0 0 0 0 0 0 0 0 0 0 0zm0 0c-6,0 -11,-4 -11,-10 0,-5 5,-10 11,-10l0 20z"/>
     </g>
    </g>
   </g>
   <g>
    <path class="fil2 str0" d="M6193 5750c-27,-95 -153,-95 -225,-113 -9,-3 -17,-5 -26,-7 -8,-3 -17,-6 -24,-10 -30,-21 -31,-73 -35,-105 -5,-33 -7,-67 -7,-101 0,-12 0,-24 0,-36 -30,12 -49,35 -82,36 -2,0 -16,0 -29,0 -13,0 -24,0 -24,0 0,0 -12,0 -24,0 -13,0 -27,0 -29,0 -33,-1 -52,-24 -83,-36 1,12 1,24 1,36 0,34 -3,68 -7,101 -4,32 -5,84 -35,105 -7,4 -16,7 -24,10 -9,2 -17,4 -26,7 -72,18 -198,18 -225,113l-39 248 491 0 491 0 -39 -248z"/>
    <path class="fil33" d="M6193 5750c-27,-95 -153,-95 -225,-113 -9,-3 -17,-5 -26,-7 -3,-1 -7,-26 -11,-27 -47,42 -190,137 -190,137 0,0 -143,-95 -191,-137 -3,1 -7,26 -10,27 -9,2 -17,4 -26,7 -72,18 -198,18 -225,113l-39 248 491 0 491 0 -39 -248z"/>
    <path class="fil34" d="M5891 5554l82 101 -154 141 -56 -142 128 -100z"/>
    <path class="fil35" d="M5763 5654l-22 86 45 -28 -23 -58z"/>
    <path class="fil34 str0" d="M5591 5554l-82 101 154 141 56 -142 -128 -100z"/>
    <path class="fil35" d="M5719 5654l22 86 -45 -28 23 -58z"/>
    <path class="fil24" d="M6232 5998l0 0 -39 -248c0,-1 0,-1 0,-1 0,0 0,0 0,1l0 1c1,5 6,35 12,73 1,6 2,12 3,18 0,4 1,8 1,12 11,68 23,144 23,144zm-262 -361c0,0 0,0 0,0 0,0 0,0 0,0zm0 0c0,0 0,0 0,0 0,0 0,0 0,0zm-1 0c0,0 0,0 0,0 0,0 0,0 0,0zm0 0c0,0 0,0 0,0 0,0 0,0 0,0zm0 0c0,0 0,0 0,0 0,0 0,0 0,0zm-1 0c0,0 0,0 0,0 0,0 0,0 0,0zm0 0c0,0 0,0 0,0 0,0 0,0 0,0zm0 0c-4,-1 -8,-2 -12,-3l-11 -14 11 13c4,1 8,3 12,4zm-37 -34l0 0 0 0c0,0 0,0 0,0zm1 0c-1,0 -1,0 -1,0 0,0 0,0 1,0zm-1 0c0,0 0,0 0,0 0,0 0,0 0,0zm0 0c0,0 0,0 0,0 0,0 0,0 0,0zm0 0c0,0 0,0 0,0 0,0 0,0 0,0zm0 0c0,0 0,0 0,0 0,0 0,0 0,0zm0 0c0,0 0,0 0,0 0,0 0,0 0,0zm0 0c0,0 0,0 0,0 0,0 0,0 0,0zm-43 -47c-2,-13 -3,-26 -5,-37 2,11 3,24 5,37l2 -2 -2 2zm-5 -37c0,0 0,0 0,0 0,0 0,0 0,0zm-3 -26c-2,-25 -4,-50 -4,-75 0,24 1,48 4,72 0,1 0,2 0,3zm-4 -75c0,0 0,-1 0,-1 0,0 0,1 0,1zm0 -1c0,0 0,0 0,-1 0,1 0,1 0,1zm0 -1c0,0 0,0 0,0 0,0 0,0 0,0zm0 -1c0,0 0,0 0,0 0,0 0,0 0,0zm0 -1l0 0c0,-1 0,-3 0,-5l0 0c0,2 0,3 0,5l0 0z"/>
    <path class="fil36" d="M6232 5998l-248 0 -11 0 -54 0 -148 -277 15 -9 -1 -2 34 86 154 -141 -17 -21c4,1 8,2 12,3l0 0c0,0 0,0 0,0 0,0 0,0 0,0 0,0 0,0 0,0 1,0 1,0 1,0 0,0 0,0 0,0 0,0 0,0 0,0 0,0 0,0 0,0 0,0 0,0 0,0 0,0 0,0 0,0 0,0 1,0 1,0 0,0 0,0 0,0 0,0 0,0 0,0 0,0 0,0 0,0 53,13 132,17 182,54 2,2 4,4 7,5l0 1c2,2 4,3 6,5l1 1c1,2 3,4 5,5l1 2c1,1 2,3 4,5l1 2c1,1 2,3 4,5 0,1 1,1 1,2 1,2 2,4 3,6 0,0 1,1 1,2 1,2 2,4 3,6 0,1 0,2 1,3 1,2 2,5 3,8 0,0 0,0 0,1l39 248zm-299 -392l-2 -3c0,0 0,0 0,0l0 0c0,0 0,0 0,0 0,0 0,0 0,0 0,0 0,0 0,0 0,0 0,0 0,0 0,0 0,0 0,0 0,0 0,0 0,0 0,0 0,0 0,0 0,0 0,0 0,0 0,0 0,0 0,0 0,0 0,0 0,0 0,0 0,0 1,0 0,0 1,1 1,3z"/>
    <path class="fil37 str0" d="M5819 5796l-34 -86 -22 -56 125 -98 2 -2 0 0 1 0 10 12 2 2 28 35 0 0 2 3c0,0 0,0 0,0l12 14 11 14 17 21 -154 141z"/>
    <path class="fil38" d="M5771 5721l-17 -31 9 -36 22 56 1 2 -15 9z"/>
    <path class="fil35" d="M5727 5722l14 18 0 258 -14 0 0 -276z"/>
    <path class="fil35" d="M5775 5763c0,8 -6,14 -14,14 -7,0 -13,-6 -13,-14 0,-7 6,-13 13,-13 8,0 14,6 14,13z"/>
    <path class="fil35" d="M5775 5944c0,7 -6,14 -14,14 -7,0 -13,-7 -13,-14 0,-7 6,-14 13,-14 8,0 14,7 14,14z"/>
    <path class="fil39 str0" d="M5774 5680l-33 0 -33 0 -23 60 24 28 32 0 31 0 25 -28 -23 -60z"/>
    <path class="fil4 str0" d="M5772 5768l-31 0 -32 0 -32 230 64 0 64 0 -33 -230z"/>
    <path class="fil2" d="M5535 5141l20 193c3,15 9,30 19,43l92 92c1,1 3,3 4,5 13,14 31,22 50,22l21 0 0 -564c-114,1 -224,84 -206,209z"/>
    <path class="fil3" d="M5946 5141l-20 193c-2,15 -8,30 -18,43l-92 92c-1,1 -3,3 -4,5 -13,14 -31,22 -50,22l-21 0 0 -564c114,1 223,84 205,209z"/>
    <path class="fil2" d="M5762 5496l-21 0 0 -564c106,1 207,72 207,182 0,8 0,17 -2,27l-4 44c-3,1 -5,1 -7,2 -2,1 -5,2 -6,3 -1,2 -2,4 -2,6 -3,22 -6,44 -6,66 0,5 0,11 0,16 1,6 3,14 10,14 0,0 0,0 0,0l-5 42c-2,15 -8,30 -18,43l-32 32 -60 60c-1,1 -2,2 -3,3 -1,1 -1,1 -1,2 -13,14 -31,22 -50,22z"/>
    <path class="fil3" d="M5962 5184c3,0 6,1 8,3 2,1 3,3 3,5 4,11 5,22 3,34 -11,16 -24,32 -31,50 -2,5 -7,16 -13,16 -8,1 -10,-8 -11,-14 -2,-27 2,-55 6,-82 0,-2 1,-4 2,-6 1,-1 4,-2 6,-3 8,-3 18,-4 27,-3z"/>
    <path class="fil16 str0" d="M5931 5292c-7,0 -9,-8 -10,-14 0,-5 0,-11 0,-16 0,-22 3,-44 6,-66 0,-2 1,-4 2,-6 1,-1 4,-2 6,-3 7,-2 14,-3 22,-3 1,0 3,0 5,0 3,0 6,1 8,3 2,1 3,3 3,5 3,7 4,15 4,22 0,4 0,8 -1,12 -11,16 -24,32 -31,50 -2,5 -7,16 -13,16 -1,0 -1,0 -1,0z"/>
    <path class="fil3 str0" d="M5521 5184c-3,0 -7,1 -9,3 -1,1 -2,3 -3,5 -4,11 -5,22 -3,34 11,16 24,32 32,50 2,5 6,16 13,16 7,1 10,-8 10,-14 2,-27 -2,-55 -6,-82 0,-2 0,-4 -1,-6 -2,-1 -4,-2 -6,-3 -9,-3 -18,-4 -27,-3z"/>
    <path class="fil40 str0" d="M5947 4985c-14,-41 -37,-86 -77,-100 -8,-2 -16,-1 -24,-1 -22,2 -45,3 -65,-5 -17,-6 -31,-17 -47,-25 -28,-13 -62,-14 -90,-2 -39,17 -61,50 -65,91 -29,1 -45,32 -54,56 -25,73 9,186 9,186l26 12c-1,-19 6,-84 12,-104 24,-75 109,-115 181,-77 31,16 113,100 142,38 1,-1 23,44 24,48 10,30 15,63 13,95l21 -13c5,-2 8,-29 9,-35 2,-15 4,-29 4,-44 1,-28 -2,-57 -9,-85 -3,-10 -6,-23 -10,-35z"/>
    <path class="fil41 str0" d="M5812 5474c1,-2 3,-4 4,-5l92 -92c10,-13 18,-48 21,-64l-33 6c0,0 21,0 -51,52 -73,51 -82,10 -82,10l-22 0 0 115 21 0c19,0 37,-8 50,-22z"/>
    <path class="fil41 str0" d="M5670 5474c-1,-2 -3,-4 -4,-5l-92 -92c-10,-13 -16,-28 -19,-43l6 -56c0,0 4,41 76,93 73,51 82,10 82,10l22 0 0 115 -21 0c-19,0 -37,-8 -50,-22z"/>
    <path class="fil41 str0" d="M5818 5315c-6,-4 -13,-6 -20,-5l-114 0c-7,-1 -14,1 -20,5l-73 53 52 46 35 -63c5,-9 15,-15 26,-15l37 0 37 0c11,0 21,6 26,15l34 63 53 -46 -73 -53z"/>
    <g>
     <path class="fil9" d="M5667 5159c-6,0 -11,5 -11,11 0,6 5,11 11,11 6,0 11,-5 11,-11 0,-6 -5,-11 -11,-11zm145 0c-7,0 -11,5 -11,11 0,6 4,11 11,11 6,0 10,-5 10,-11 0,-6 -4,-11 -10,-11z"/>
     <path id="1" class="fil10" d="M5667 5170l-22 0 0 0 1 -1 0 -1 0 -1 0 -1 0 -1 0 -1 1 -1 0 -1 0 -1 1 -1 0 0 1 -1 1 -1 0 -1 1 -1 0 0 1 -1 1 -1 1 0 1 -1 1 -1 0 0 1 -1 1 0 1 0 2 -1 1 0 1 0 1 -1 1 0 1 0 1 0 0 20 0 0 1 0 0 0 0 0 0 0 0 0 0 0 0 0 0 0 0 0 0 0 0 0 0 0 0 0 0 0 0 0 0 0 0 0 0 0 0 0 0 0 0 0 0 0 0 0 0 0 0 0 -1 0 0 0 0 1 0 0 0 0 0 0 0 0zm0 0c0,5 -4,10 -11,10 -6,0 -11,-5 -11,-10l22 0zm0 1l0 20 0 0 -1 0 -1 0 -1 -1 -1 0 -1 0 -1 0 -2 -1 -1 0 -1 -1 -1 0 0 -1 -1 0 -1 -1 -1 0 -1 -1 -1 -1 0 -1 -1 0 0 -1 -1 -1 -1 -1 0 -1 -1 0 0 -1 0 -1 -1 -1 0 -1 0 -1 0 -1 0 -1 0 -1 -1 -1 22 0 0 0 0 0 0 0 0 0 0 0 1 1 0 0 0 0 0 0 0 0 0 0 0 0 0 0 0 0 0 0 0 0 0 0 0 0 0 0 0 0 0 0 0 0 0 0 0 0 0 0 0 0 0 0 0 0 0 0 0 0 -1 0 0 0 0 0zm0 0c6,0 11,5 11,10 0,5 -5,10 -11,10l0 -20zm0 -1l22 0 0 0 0 1 0 1 0 1 0 1 0 1 -1 1 0 1 0 1 -1 1 0 0 -1 1 0 1 -1 1 0 1 -1 0 -1 1 0 1 -1 1 -1 0 -1 1 -1 0 -1 1 -1 0 -1 1 -1 0 -1 1 -1 0 -1 0 -1 0 -1 1 -1 0 -2 0 0 -20 0 0 0 0 0 0 0 0 0 0 0 0 0 0 0 0 0 0 0 0 0 0 0 0 0 0 0 0 0 0 0 0 0 0 0 0 0 0 0 0 0 0 0 0 0 0 0 0 0 0 0 0 0 -1 0 0 0 0 0 0 0 0 0 0 0 0zm0 0c0,-5 5,-10 11,-10 6,0 11,5 11,10l-22 0zm0 -1l0 -20 0 0 2 0 1 0 1 0 1 1 1 0 1 0 1 1 1 0 1 0 1 1 1 0 1 1 1 1 1 0 1 1 0 1 1 0 1 1 0 1 1 1 0 1 1 0 0 1 1 1 0 1 0 1 1 1 0 1 0 1 0 1 0 1 0 1 -22 0 0 0 0 0 0 0 0 -1 0 0 0 0 0 0 0 0 0 0 0 0 0 0 0 0 0 0 0 0 0 0 0 0 0 0 0 0 0 0 0 0 0 0 0 0 0 0 0 0 0 0 0 0 0 0 0 0 0 0 0 0 0 0 0 0 0 0zm0 0c-6,0 -11,-5 -11,-10 0,-5 5,-10 11,-10l0 20zm144 1l-21 0 0 0 0 -1 0 -1 0 -1 0 -1 0 -1 0 -1 1 -1 0 -1 1 -1 0 -1 0 0 1 -1 1 -1 0 -1 1 -1 1 0 0 -1 1 -1 1 0 1 -1 1 -1 1 0 1 -1 1 0 1 0 1 -1 1 0 1 0 1 -1 1 0 1 0 2 0 0 20 0 0 0 0 0 0 0 0 0 0 0 0 0 0 0 0 0 0 0 0 0 0 0 0 0 0 0 0 0 0 0 0 0 0 0 0 0 0 0 0 0 0 0 0 0 0 0 0 0 0 0 0 0 0 0 0 0 1 0 0 0 0 -1 0 0 0zm0 0c0,5 -4,10 -10,10 -7,0 -11,-5 -11,-10l21 0zm1 1l0 20 0 0 -2 0 -1 0 -1 -1 -1 0 -1 0 -1 0 -1 -1 -1 0 -1 -1 -1 0 -1 -1 -1 0 -1 -1 -1 0 -1 -1 0 -1 -1 -1 -1 0 0 -1 -1 -1 -1 -1 0 -1 0 0 -1 -1 0 -1 -1 -1 0 -1 0 -1 0 -1 0 -1 0 -1 0 -1 21 0 1 0 0 0 0 0 0 0 0 0 0 1 0 0 0 0 0 0 0 0 0 0 0 0 0 0 0 0 0 0 0 0 0 0 0 0 0 0 0 0 0 0 0 0 0 0 0 0 0 0 0 0 0 0 0 0 0 0 0 0 0 0 0 0 0 0zm0 0c6,0 10,5 10,10 0,5 -4,10 -10,10l0 -20zm0 -1l21 0 0 0 0 1 0 1 0 1 0 1 0 1 0 1 -1 1 0 1 -1 1 0 0 0 1 -1 1 -1 1 0 1 -1 0 -1 1 0 1 -1 1 -1 0 -1 1 -1 0 -1 1 -1 0 -1 1 -1 0 -1 1 -1 0 -1 0 -1 0 -1 1 -1 0 -1 0 0 -20 -1 0 0 0 0 0 0 0 0 0 0 0 0 0 0 0 0 0 0 0 0 0 0 0 0 0 0 0 0 0 0 0 0 0 0 0 0 0 0 0 0 0 0 0 0 0 0 0 0 0 0 0 0 -1 0 0 0 0 0 0 0 0 1 0 0 0zm0 0c0,-5 4,-10 10,-10 7,0 11,5 11,10l-21 0zm0 -1l0 -20 0 0 1 0 1 0 1 0 1 1 1 0 1 0 1 1 1 0 1 0 1 1 1 0 1 1 1 1 1 0 1 1 0 1 1 0 1 1 0 1 1 1 1 1 0 0 0 1 1 1 0 1 1 1 0 1 0 1 0 1 0 1 0 1 0 1 -21 0 -1 0 0 0 0 0 0 -1 0 0 0 0 0 0 0 0 0 0 0 0 0 0 0 0 0 0 0 0 0 0 0 0 0 0 0 0 0 0 0 0 0 0 0 0 0 0 0 0 0 0 0 0 0 0 0 0 0 0 0 0 0 0 1 0 0 0zm0 0c-7,0 -11,-5 -11,-10 0,-5 4,-10 11,-10l0 20z"/>
    </g>
   </g>
   <path class="fil42 str2" d="M4631 4732c0,3 -1,6 -3,8 -1,2 -4,2 -7,2 -3,0 -5,0 -7,-2 -2,-2 -3,-4 -3,-8l0 -173 -81 0 0 173c0,3 -1,6 -3,8 -2,2 -4,2 -7,2 -3,0 -5,0 -7,-2 -2,-2 -3,-4 -3,-8l0 -183c0,-6 3,-10 10,-10l101 0c7,0 10,4 10,10l0 183zm61 -91l61 0c6,0 10,-2 14,-6 4,-4 6,-9 6,-14l0 -41c0,-6 -2,-11 -5,-15 -4,-4 -9,-6 -15,-6l-61 0 0 82zm0 20l0 71c0,3 -1,6 -3,8 -2,2 -4,2 -7,2 -3,0 -5,0 -7,-2 -2,-2 -3,-4 -3,-8l0 -183c0,-6 3,-10 10,-10l71 0c11,0 21,4 29,12 8,8 12,18 12,29l0 40c0,12 -4,21 -12,29 -8,8 -18,12 -29,12l-61 0zm162 -40l51 0c3,0 6,1 8,3 2,2 3,4 3,7 0,2 -1,4 -3,7 -2,2 -4,3 -8,3l-51 0 0 81 72 0c3,0 5,1 7,3 2,2 3,5 3,7 0,3 -1,5 -3,7 -1,2 -4,3 -7,3l-82 0c-6,0 -10,-3 -10,-9l0 -184c0,-6 4,-10 10,-10l82 0c3,0 5,1 7,3 2,2 3,5 3,7 0,3 -1,5 -3,7 -1,2 -4,3 -7,3l-72 0 0 62zm144 101l19 -174c0,-6 3,-9 10,-9l61 0c7,0 10,4 10,10l0 173 10 0c7,0 10,4 10,10l0 20c0,3 -1,6 -3,8 -2,2 -4,3 -7,3 -2,0 -4,-1 -6,-3 -3,-2 -4,-4 -4,-8l0 -10 -102 0 0 10c0,3 -1,6 -3,8 -2,2 -4,3 -7,3 -2,0 -4,-1 -6,-3 -3,-2 -4,-4 -4,-8l0 -20c0,-6 4,-10 10,-10l12 0zm80 0l0 -163 -42 0 -18 163 60 0zm162 20l-51 0c-11,0 -20,-4 -28,-11 -8,-8 -12,-18 -12,-29l0 -122c0,-11 4,-21 11,-29 8,-8 18,-12 29,-12l51 0c3,0 5,1 7,3 2,2 3,5 3,7 0,3 -1,5 -2,7 -2,2 -5,3 -8,3l-51 0c-6,0 -10,2 -14,6 -2,2 -4,4 -5,7 -1,2 -1,5 -1,8l0 122c0,6 2,10 6,14 2,2 4,4 6,5 3,1 6,1 8,1l51 0c3,0 5,1 7,3 2,2 3,5 3,7 0,3 -1,5 -2,7 -2,2 -5,3 -8,3zm71 -121l51 0c3,0 5,1 7,3 2,2 3,4 3,7 0,2 -1,4 -3,7 -1,2 -4,3 -7,3l-51 0 0 81 71 0c3,0 5,1 7,3 2,2 3,5 3,7 0,3 -1,5 -2,7 -2,2 -4,3 -8,3l-81 0c-7,0 -10,-3 -10,-9l0 -184c0,-6 3,-10 10,-10l81 0c3,0 5,1 7,3 2,2 3,5 3,7 0,3 -1,5 -2,7 -2,2 -4,3 -8,3l-71 0 0 62zm143 101l19 -174c0,-6 4,-9 10,-9l61 0c7,0 10,4 10,10l0 173 11 0c6,0 10,4 10,10l0 20c0,3 -1,6 -3,8 -2,2 -5,3 -7,3 -3,0 -5,-1 -7,-3 -2,-2 -3,-4 -3,-8l0 -10 -102 0 0 10c0,3 -1,6 -3,8 -2,2 -5,3 -7,3 -3,0 -5,-1 -7,-3 -2,-2 -3,-4 -3,-8l0 -20c0,-6 3,-10 10,-10l11 0zm80 0l0 -163 -41 0 -19 163 60 0zm117 -30l-15 43c-1,3 -2,4 -4,6 -1,0 -3,1 -5,1 -3,0 -5,-1 -7,-3 -2,-1 -3,-4 -3,-6l0 -4 61 -183c2,-6 5,-8 10,-8 4,0 7,2 9,8l61 183 1 4c0,2 -1,4 -3,7 -3,1 -5,2 -8,2 -1,0 -2,0 -4,-1 -2,0 -3,-2 -5,-6l-14 -43 -74 0zm67 -21l-30 -90 -30 90 60 0zm90 -112l-41 0c-3,0 -5,0 -7,-2 -2,-2 -3,-5 -3,-8 0,-2 1,-4 3,-6 2,-3 4,-4 7,-4l102 0c3,0 5,1 7,3 2,2 3,5 3,7 0,3 -1,5 -2,7 -2,2 -5,3 -8,3l-41 0 0 173c0,3 -1,6 -3,8 -1,2 -4,2 -7,2 -3,0 -5,0 -7,-2 -2,-2 -3,-4 -3,-8l0 -173zm132 62l51 0c3,0 5,1 7,3 2,2 3,4 3,7 0,2 -1,4 -2,7 -2,2 -5,3 -8,3l-51 0 0 81 71 0c3,0 5,1 7,3 2,2 3,5 3,7 0,3 0,5 -2,7 -2,2 -4,3 -8,3l-81 0c-7,0 -10,-3 -10,-9l0 -184c0,-6 3,-10 10,-10l81 0c3,0 5,1 7,3 2,2 3,5 3,7 0,3 0,5 -2,7 -2,2 -4,3 -8,3l-71 0 0 62zm244 111c0,3 -1,6 -3,8 -2,2 -4,2 -7,2 -3,0 -5,0 -7,-2 -3,-2 -3,-4 -3,-8l0 -173 -33 0 -49 176c-1,2 -2,4 -4,5 -2,2 -4,2 -6,2 -3,0 -5,0 -7,-2 -2,-2 -3,-4 -3,-7 0,-2 0,-3 0,-3l51 -183c1,-5 5,-8 10,-8l51 0c6,0 10,4 10,10l0 183zm60 -91l61 0c6,0 11,2 15,6 4,3 6,8 6,14l0 41c0,6 -2,10 -6,14 -2,2 -4,4 -7,5 -2,1 -5,1 -8,1l-61 0 0 -81zm0 -20l0 -72c0,-2 -1,-5 -3,-7 -2,-2 -4,-3 -7,-3 -2,0 -4,1 -7,3 -2,2 -3,4 -3,7l0 183c0,7 3,10 10,10l71 0c11,0 21,-4 29,-11 8,-8 12,-18 12,-29l0 -41c0,-11 -4,-20 -12,-28 -8,-8 -18,-12 -29,-12l-61 0zm386 81c0,11 -4,20 -12,28 -8,8 -18,12 -29,12l-40 0c-11,0 -21,-4 -29,-11 -8,-8 -12,-18 -12,-29l0 -122c0,-11 4,-21 12,-29 8,-8 17,-12 29,-12l40 0c12,0 21,4 29,12 8,8 12,18 12,29l0 122zm-20 0l0 -122c0,-6 -2,-11 -6,-15 -4,-4 -9,-6 -15,-6l-40 0c-6,0 -11,2 -15,6 -2,2 -3,4 -4,7 -1,2 -2,5 -2,8l0 122c0,6 2,10 6,14 2,2 4,4 7,5 3,1 5,1 8,1l40 0c6,0 11,-2 15,-6 4,-3 6,-8 6,-14zm198 30c0,3 -1,6 -3,8 -1,2 -4,2 -7,2 -2,0 -5,0 -7,-2 -2,-2 -3,-4 -3,-8l0 -143 -82 148c-1,2 -3,4 -5,5l-2 1c-1,1 -2,1 -3,1 -2,0 -4,-1 -7,-3 -1,-2 -2,-5 -2,-9l0 -182c0,-3 1,-6 3,-8 2,-2 4,-3 7,-3 2,0 5,1 7,3 2,2 3,4 3,8l0 143 82 -148c1,-2 3,-4 5,-5 1,-2 3,-2 5,-2 2,0 4,1 6,3 2,2 3,5 3,9l0 182zm61 -105l86 -85c2,-2 4,-3 7,-3 2,0 5,1 7,3 2,3 3,5 3,8 0,1 -1,4 -3,7l-60 60 62 110 1 6c0,2 -1,4 -3,6 -2,2 -5,3 -7,3 -4,0 -7,-1 -9,-5l-60 -106 -24 24 0 77c0,3 -1,6 -3,8 -2,2 -4,2 -7,2 -3,0 -5,0 -7,-2 -2,-2 -3,-4 -3,-8l0 -183c0,-2 1,-5 3,-7 2,-2 5,-3 7,-3 3,0 5,1 7,3 2,1 3,4 3,7l0 78z"/>
   <path class="fil43" d="M5735 3653c-1,62 -2,124 -3,187 0,9 -1,18 -1,27 1,-71 3,-143 4,-214zm8 -265c0,-3 0,-6 1,-7 0,-2 0,-4 0,-5 1,3 3,6 4,9 1,5 0,15 0,20 0,3 0,5 0,8 0,-8 0,-16 0,-24 0,-5 -4,-5 -5,-1zm2 224c-1,27 -2,54 -3,81 -1,30 -2,59 -3,88 2,-83 4,-167 6,-250 0,27 0,54 0,81zm7 -92c1,-30 1,-59 2,-89 0,-1 0,-2 0,-3 -1,31 -1,61 -2,92zm-62 394c6,38 12,75 19,112 3,31 7,62 11,93 1,9 7,7 6,-2 0,-3 0,-5 0,-8 0,0 0,-1 0,-1 0,-1 1,-2 1,-3 0,-1 0,-2 1,-3 0,0 0,0 1,1 0,0 0,1 0,1 0,0 0,0 0,1 -2,7 3,15 5,7 0,0 0,0 0,-1 1,-1 2,-3 2,-6 3,-9 6,-19 9,-29 6,-18 12,-36 18,-55 10,-35 21,-70 29,-107 1,-7 -4,-13 -6,-7 -1,3 -1,6 -2,9 0,0 0,0 0,0 0,-2 0,-4 1,-6 1,-7 -4,-13 -6,-6 -2,5 -3,11 -5,17 0,0 -1,1 -1,2 -2,5 -3,10 -5,15 0,0 0,-1 0,-1 0,-2 -1,-3 -2,-3 -1,0 -1,0 -1,0 -3,1 -2,9 0,9 -3,1 -8,32 -10,38 -2,7 -4,14 -6,22 -4,16 -9,31 -14,47 1,-15 2,-30 3,-45 17,-211 23,-424 21,-638 0,-6 -5,-8 -5,-1 0,8 0,16 0,24 -1,-20 -4,-37 -14,-30 -1,0 -1,3 -1,4 -9,222 -13,445 -15,668 -7,-46 -15,-91 -22,-137 -1,-6 -6,-5 -7,0 -2,1 -3,4 -3,9 0,0 1,1 1,2 -2,0 -4,3 -3,8z"/>
   <g>
    <path class="fil42 str2" d="M2891 1176l0 -92c0,-3 1,-5 3,-7 2,-2 4,-3 7,-3 3,0 5,1 7,3 2,1 3,4 3,7l0 183c0,3 -1,6 -3,8 -2,1 -4,2 -7,2 -3,0 -5,-1 -7,-2 -2,-2 -3,-5 -3,-8l0 -71 -61 0c-11,0 -21,-4 -29,-12 -8,-8 -12,-18 -12,-29l0 -71c0,-3 1,-5 3,-7 2,-2 5,-3 7,-3 3,0 5,1 7,3 2,1 4,4 4,7l0 71c0,6 1,11 5,15 2,1 5,3 7,4 3,1 5,2 8,2l61 0zm183 91c0,3 -1,6 -3,8 -2,1 -4,2 -7,2 -3,0 -5,-1 -8,-2 -2,-2 -3,-5 -3,-8l0 -173 -33 0 -48 176c-1,2 -2,3 -4,5 -2,1 -4,2 -6,2 -3,0 -5,-1 -7,-2 -2,-2 -3,-5 -3,-8 0,-1 0,-2 0,-3l51 -182c1,-5 5,-8 10,-8l51 0c6,0 10,3 10,10l0 183zm60 -112l51 0c3,0 5,1 7,3 2,3 3,5 3,7 0,3 0,5 -2,7 -2,2 -4,4 -8,4l-51 0 0 81 72 0c2,0 5,1 7,3 2,2 3,4 3,7 0,2 -1,5 -3,7 -2,2 -4,3 -7,3l-82 0c-7,0 -10,-3 -10,-10l0 -183c0,-7 3,-10 10,-10l82 0c2,0 5,1 7,3 2,2 3,5 3,7 0,3 -1,5 -3,7 -2,2 -4,3 -7,3l-72 0 0 61zm224 0l0 -71c0,-3 1,-5 3,-7 2,-2 4,-3 7,-3 2,0 5,1 7,3 2,1 3,4 3,7l0 183c0,3 -1,5 -3,7 -3,2 -5,3 -8,3 -2,0 -4,-1 -7,-2 -2,-2 -2,-5 -2,-8l0 -91 -82 0 0 91c0,3 -1,6 -3,8 -1,1 -4,2 -7,2 -3,0 -5,-1 -7,-2 -2,-2 -3,-5 -3,-8l0 -183c0,-2 1,-5 3,-7 2,-2 4,-3 7,-3 3,0 5,1 7,3 2,1 3,4 3,7l0 71 82 0zm203 112c0,3 -1,6 -3,8 -2,1 -5,2 -8,2 -2,0 -5,-1 -7,-2 -2,-2 -3,-5 -3,-8l0 -183c0,-3 1,-5 3,-7 2,-2 5,-3 7,-3 3,0 5,1 8,3 2,1 3,4 3,7l0 183zm-122 -91l0 81 40 0c6,0 11,-2 15,-6 4,-4 6,-8 6,-14l0 -41c0,-6 -2,-11 -6,-15 -4,-3 -9,-5 -15,-5l-40 0zm0 -21l40 0c11,0 21,4 29,12 8,8 12,18 12,29l0 41c0,11 -4,20 -12,28 -8,8 -18,12 -29,12l-51 0c-6,0 -10,-3 -10,-10l0 -183c0,-3 1,-5 3,-7 2,-2 5,-3 7,-3 3,0 5,1 7,3 3,1 4,4 4,7l0 71zm405 81c0,12 -4,21 -11,29 -8,8 -18,12 -29,12l-41 0c-11,0 -20,-4 -28,-12 -8,-8 -12,-17 -12,-29l0 -121c0,-12 4,-21 12,-29 7,-8 17,-12 28,-12l41 0c11,0 21,4 29,12 7,8 11,17 11,29l0 121zm-20 1l0 -122c0,-6 -2,-11 -5,-15 -4,-4 -9,-6 -15,-6l-41 0c-5,0 -10,2 -14,6 -2,2 -4,4 -5,7 -1,2 -1,5 -1,8l0 122c0,5 2,10 6,14 2,2 4,3 6,4 3,1 6,2 8,2l41 0c6,0 10,-2 14,-6 4,-4 6,-8 6,-14zm97 -75l86 -85c2,-2 4,-3 7,-3 3,0 5,1 7,3 2,2 3,5 3,7 0,2 -1,4 -3,7l-60 61 62 110 2 5c0,3 -2,5 -4,7 -2,2 -4,3 -7,3 -3,0 -6,-2 -9,-5l-59 -106 -25 24 0 77c0,3 0,6 -2,8 -2,1 -5,2 -8,2 -2,0 -5,-1 -7,-2 -2,-2 -3,-5 -3,-8l0 -183c0,-3 1,-5 3,-7 2,-2 5,-3 7,-3 3,0 5,1 7,2 2,2 3,5 3,8l0 78zm163 14l61 0c5,0 10,-2 14,-6 4,-4 6,-9 6,-15l0 -40c0,-6 -2,-11 -6,-15 -3,-4 -8,-6 -14,-6l-61 0 0 82zm0 20l0 71c0,3 -1,6 -3,8 -2,1 -4,2 -7,2 -3,0 -5,-1 -7,-2 -2,-2 -3,-5 -3,-8l0 -183c0,-7 3,-10 10,-10l71 0c11,0 21,4 28,12 8,8 12,17 12,29l0 40c0,11 -4,21 -12,29 -8,8 -17,12 -28,12l-61 0zm243 0l-60 0c-11,0 -21,-4 -29,-12 -8,-8 -12,-18 -12,-29l0 -71c0,-3 1,-5 3,-7 2,-2 4,-3 7,-3 3,0 5,1 7,3 2,1 3,4 3,7l0 71c0,6 2,11 6,15 2,1 4,3 6,4 3,1 6,2 8,2l61 0 0 -92c0,-3 1,-5 3,-7 3,-2 5,-3 8,-3 2,0 5,1 7,3 2,1 3,4 3,7l0 152c0,12 -4,21 -12,29 -8,8 -18,12 -29,12l-51 0c-3,0 -5,-1 -7,-3 -2,-2 -3,-4 -3,-7 0,-2 1,-5 3,-7 2,-2 4,-3 7,-3l51 0c6,0 11,-2 15,-6 3,-4 5,-8 5,-14l0 -41zm153 -43l52 -74c1,-2 2,-3 4,-4 1,-1 3,-1 4,-1 3,0 5,1 8,3 2,2 3,5 3,7 0,2 -1,4 -2,6l-53 76 54 96c0,2 1,4 1,5 0,3 -1,5 -3,7 -2,2 -5,3 -8,3 -3,0 -6,-2 -8,-5l-52 -93 0 88c0,3 -1,6 -3,8 -2,1 -4,2 -7,2 -3,0 -5,-1 -7,-2 -2,-2 -3,-5 -3,-8l0 -88 -52 93c-1,1 -3,2 -4,4l-3 1 -2 0c-3,0 -6,-1 -8,-3 -2,-2 -3,-4 -3,-7 0,-1 1,-3 2,-5l53 -96 -53 -76c0,-1 -1,-3 -2,-6 0,-2 1,-5 3,-7 2,-2 5,-3 8,-3 3,0 5,2 8,5l53 74 0 -69c0,-2 1,-5 3,-7 2,-2 4,-3 7,-3 2,0 5,1 7,3 2,1 3,4 3,7l0 69zm213 2l0 -71c0,-3 1,-5 3,-7 2,-2 4,-3 7,-3 2,0 5,1 7,3 2,1 3,4 3,7l0 183c0,3 -1,5 -3,7 -3,2 -5,3 -7,3 -3,0 -5,-1 -7,-2 -2,-2 -3,-5 -3,-8l0 -91 -82 0 0 91c0,3 -1,6 -2,8 -2,1 -5,2 -8,2 -2,0 -5,-1 -7,-2 -2,-2 -3,-5 -3,-8l0 -183c0,-2 1,-5 3,-7 2,-2 5,-3 7,-3 3,0 5,1 7,3 2,1 3,4 3,7l0 71 82 0zm182 81c0,12 -4,21 -12,29 -8,8 -17,12 -28,12l-41 0c-11,0 -20,-4 -28,-12 -8,-8 -12,-17 -12,-29l0 -121c0,-12 4,-21 11,-29 8,-8 18,-12 29,-12l41 0c11,0 21,4 28,12 8,8 12,17 12,29l0 121zm-20 1l0 -122c0,-6 -2,-11 -6,-15 -3,-4 -8,-6 -14,-6l-41 0c-6,0 -10,2 -14,6 -2,2 -4,4 -5,7 -1,2 -1,5 -1,8l0 122c0,5 2,10 6,14 2,2 4,3 6,4 3,1 6,2 8,2l41 0c5,0 10,-2 14,-6 4,-4 6,-8 6,-14zm158 -183l-40 0c-3,0 -6,-1 -8,-3 -2,-2 -2,-5 -2,-7 0,-3 0,-5 2,-7 2,-2 4,-3 8,-3l40 0c3,0 5,1 7,3 2,2 3,4 3,7 0,2 0,4 -2,7 -2,2 -4,3 -8,3zm41 213c0,3 -1,6 -3,8 -2,1 -4,2 -7,2 -3,0 -5,-1 -7,-2 -2,-2 -3,-5 -3,-8l0 -144 -83 149c-1,2 -2,4 -4,5l-2 1c-1,0 -2,1 -4,1 -2,0 -4,-1 -6,-3 -2,-2 -3,-5 -3,-9l0 -183c0,-2 1,-5 3,-7 2,-2 5,-3 7,-3 3,0 5,1 7,3 2,1 3,4 3,7l0 144 83 -148c1,-2 2,-4 4,-5 2,-2 4,-2 6,-2 2,0 4,1 6,3 2,2 3,5 3,8l0 183zm284 0c0,3 -1,6 -3,8 -2,1 -4,2 -7,2 -3,0 -5,-1 -7,-2 -2,-2 -3,-5 -3,-8l0 -144 -83 149c-1,2 -2,4 -4,5l-2 1c-1,0 -2,1 -4,1 -1,0 -4,-1 -6,-3 -2,-2 -3,-5 -3,-9l0 -183c0,-2 1,-5 3,-7 2,-2 5,-3 7,-3 3,0 5,1 7,3 2,1 3,4 3,7l0 144 83 -149c1,-1 2,-3 4,-4 2,-2 4,-3 6,-3 2,0 4,2 6,4 2,2 3,5 3,8l0 183zm102 -91l-31 0c-3,0 -6,-1 -7,-3 -2,-2 -3,-5 -3,-8 0,-2 1,-4 3,-6 1,-3 4,-4 7,-4l31 0c5,0 10,-2 14,-5 4,-4 6,-9 6,-15l0 -20c0,-6 -2,-11 -6,-15 -4,-4 -9,-6 -14,-6l-21 0c-4,0 -8,1 -11,4 -4,2 -6,6 -8,10 0,2 -1,4 -3,5 -1,1 -2,1 -3,2l-3 0c-3,0 -6,-1 -8,-2 -2,-2 -3,-5 -3,-8l1 -3c2,-8 7,-15 14,-20 7,-5 15,-8 24,-8l20 0c12,0 21,4 29,12 8,8 12,17 12,29l0 20c0,6 -1,11 -4,17 -2,5 -5,10 -10,13 9,8 14,18 14,31l0 40c0,12 -4,21 -12,29 -8,8 -17,12 -29,12l-20 0c-9,0 -16,-2 -23,-7 -7,-6 -12,-12 -15,-21l-1 -3c0,-3 1,-5 3,-7 2,-2 5,-3 8,-3 4,0 7,2 9,6 1,4 4,8 7,11 4,3 8,4 12,4l21 0c5,0 10,-2 14,-6 4,-4 6,-8 6,-14l0 -41c0,-6 -2,-11 -5,-14 -3,-4 -9,-6 -15,-6zm101 0l0 81 61 0c5,0 10,-2 14,-6 4,-4 6,-8 6,-14l0 -41c0,-6 -2,-11 -6,-15 -3,-3 -8,-5 -14,-5l-61 0zm0 -21l61 0c11,0 20,4 28,12 8,8 12,18 12,29l0 41c0,11 -4,20 -12,28 -8,8 -17,12 -28,12l-71 0c-7,0 -10,-3 -10,-10l0 -183c0,-7 3,-10 10,-10l81 0c3,0 5,1 7,3 2,2 3,5 3,7 0,2 -1,5 -3,7 -1,2 -4,3 -7,3l-71 0 0 61zm264 112c0,3 -1,6 -3,8 -2,1 -5,2 -7,2 -3,0 -6,-1 -8,-2 -2,-2 -3,-5 -3,-8l0 -144 -82 149c-1,2 -3,4 -4,5l-3 1c0,0 -1,1 -3,1 -2,0 -4,-1 -6,-3 -2,-2 -3,-5 -3,-9l0 -183c0,-2 1,-5 3,-7 2,-2 4,-3 7,-3 3,0 5,1 7,3 2,1 3,4 3,7l0 144 82 -149c1,-1 3,-3 5,-4 2,-2 3,-3 5,-3 3,0 5,2 7,4 2,2 3,5 3,8l0 183zm60 -91l61 0c6,0 11,-2 15,-6 4,-4 6,-9 6,-15l0 -40c0,-6 -2,-11 -6,-15 -4,-4 -9,-6 -15,-6l-61 0 0 82zm0 20l0 71c0,3 -1,6 -2,8 -2,1 -5,2 -8,2 -2,0 -5,-1 -7,-2 -2,-2 -3,-5 -3,-8l0 -183c0,-7 4,-10 10,-10l71 0c12,0 21,4 29,12 8,8 12,17 12,29l0 40c0,11 -4,21 -12,29 -8,8 -17,12 -29,12l-61 0zm158 30l-15 44c-1,2 -2,4 -4,5 -1,1 -3,2 -5,2 -3,0 -5,-1 -7,-3 -2,-2 -3,-4 -3,-7l0 -3 61 -183c2,-6 5,-9 10,-9 4,0 7,3 9,9l61 183 1 3c0,3 -1,5 -3,7 -3,2 -5,3 -8,3 -1,0 -2,0 -4,-1 -2,-1 -3,-3 -5,-6l-14 -44 -74 0zm67 -20l-30 -90 -30 90 60 0zm90 -112l-41 0c-3,0 -5,-1 -7,-3 -2,-2 -3,-4 -3,-7 0,-2 1,-4 3,-7 2,-2 4,-3 7,-3l102 0c3,0 5,1 7,3 2,2 3,5 3,7 0,2 -1,5 -3,7 -1,2 -4,3 -7,3l-41 0 0 173c0,3 -1,6 -3,8 -1,1 -4,2 -7,2 -3,0 -5,-1 -7,-2 -2,-2 -3,-5 -3,-8l0 -173zm132 61l51 0c3,0 5,1 7,3 2,3 3,5 3,7 0,3 -1,5 -3,7 -1,2 -4,4 -7,4l-51 0 0 81 71 0c3,0 5,1 7,3 2,2 3,4 3,7 0,2 0,5 -2,7 -2,2 -4,3 -8,3l-81 0c-7,0 -10,-3 -10,-10l0 -183c0,-7 3,-10 10,-10l81 0c3,0 5,1 7,3 2,2 3,5 3,7 0,3 0,5 -2,7 -2,2 -4,3 -8,3l-71 0 0 61zm244 112c0,3 -1,6 -3,8 -2,1 -4,2 -7,2 -3,0 -5,-1 -7,-2 -3,-2 -4,-5 -4,-8l0 -173 -33 0 -48 176c-1,2 -2,3 -4,5 -2,1 -4,2 -6,2 -3,0 -5,-1 -7,-2 -2,-2 -3,-5 -3,-8 0,-1 0,-2 0,-3l51 -182c1,-5 5,-8 10,-8l51 0c6,0 10,3 10,10l0 183zm60 -91l61 0c6,0 11,2 15,5 4,4 6,9 6,15l0 41c0,5 -2,10 -6,14 -2,2 -4,3 -7,4 -2,1 -5,2 -8,2l-61 0 0 -81zm0 -21l0 -71c0,-2 -1,-5 -3,-7 -2,-2 -4,-3 -7,-3 -2,0 -4,1 -7,3 -2,1 -3,4 -3,7l0 183c0,7 3,10 10,10l71 0c11,0 21,-4 29,-12 8,-8 12,-17 12,-28l0 -41c0,-11 -4,-21 -12,-29 -8,-8 -18,-12 -29,-12l-61 0zm244 0l0 -71c0,-3 1,-5 3,-7 2,-2 4,-3 7,-3 3,0 5,1 7,3 2,1 3,4 3,7l0 183c0,3 -1,5 -3,7 -3,2 -5,3 -7,3 -3,0 -5,-1 -7,-2 -2,-2 -3,-5 -3,-8l0 -91 -81 0 0 91c0,3 -1,6 -3,8 -2,1 -5,2 -8,2 -2,0 -5,-1 -7,-2 -2,-2 -3,-5 -3,-8l0 -183c0,-2 1,-5 3,-7 2,-2 5,-3 7,-3 3,0 5,1 7,3 2,1 4,4 4,7l0 71 81 0zm182 81c0,12 -4,21 -12,29 -7,8 -17,12 -28,12l-41 0c-11,0 -20,-4 -28,-12 -8,-8 -12,-17 -12,-29l0 -121c0,-12 4,-21 11,-29 8,-8 18,-12 29,-12l41 0c11,0 21,4 29,12 7,8 11,17 11,29l0 121zm-20 1l0 -122c0,-6 -2,-11 -6,-15 -3,-4 -8,-6 -14,-6l-41 0c-6,0 -10,2 -14,6 -2,2 -4,4 -5,7 -1,2 -1,5 -1,8l0 122c0,5 2,10 6,14 2,2 4,3 6,4 3,1 6,2 8,2l41 0c5,0 10,-2 14,-6 4,-4 6,-8 6,-14zm158 -183l-40 0c-3,0 -6,-1 -8,-3 -1,-2 -2,-5 -2,-7 0,-3 0,-5 2,-7 2,-2 4,-3 8,-3l40 0c3,0 6,1 8,3 2,2 3,4 3,7 0,2 -1,4 -3,7 -2,2 -4,3 -8,3zm41 213c0,3 -1,6 -3,8 -2,1 -4,2 -7,2 -3,0 -5,-1 -7,-2 -2,-2 -3,-5 -3,-8l0 -144 -83 149c-1,2 -2,4 -4,5l-2 1c-1,0 -2,1 -3,1 -2,0 -5,-1 -7,-3 -2,-2 -3,-5 -3,-9l0 -183c0,-2 1,-5 3,-7 2,-2 5,-3 7,-3 3,0 5,1 7,3 2,1 3,4 3,7l0 144 83 -148c1,-2 2,-4 4,-5 2,-2 4,-2 6,-2 2,0 4,1 6,3 2,2 3,5 3,8l0 183zm182 -105l86 -85c2,-2 4,-3 7,-3 3,0 5,1 7,3 2,2 3,5 3,7 0,2 -1,4 -3,7l-60 61 62 110 2 5c0,3 -1,5 -4,7 -2,2 -4,3 -7,3 -3,0 -6,-2 -9,-5l-59 -106 -25 24 0 77c0,3 0,6 -2,8 -2,1 -5,2 -8,2 -2,0 -5,-1 -7,-2 -2,-2 -3,-5 -3,-8l0 -183c0,-3 1,-5 3,-7 2,-2 5,-3 7,-3 3,0 5,1 7,2 2,2 3,5 3,8l0 78zm254 74c0,12 -4,21 -12,29 -8,8 -17,12 -29,12l-40 0c-11,0 -21,-4 -29,-12 -8,-8 -12,-17 -12,-29l0 -121c0,-12 4,-21 12,-29 8,-8 18,-12 29,-12l40 0c12,0 21,4 29,12 8,8 12,17 12,29l0 121zm-20 1l0 -122c0,-6 -2,-11 -6,-15 -4,-4 -9,-6 -14,-6l-41 0c-6,0 -11,2 -15,6 -2,2 -3,4 -4,7 -1,2 -1,5 -1,8l0 122c0,5 1,10 5,14 2,2 5,3 7,4 3,1 5,2 8,2l41 0c5,0 10,-2 14,-6 4,-4 6,-8 6,-14zm219 30c0,3 -1,6 -3,8 -2,1 -4,2 -7,2 -2,0 -5,-1 -7,-2 -2,-2 -3,-5 -3,-8l0 -145 -42 70c-3,5 -6,7 -9,7 -3,0 -6,-2 -9,-7l-42 -70 0 145c0,3 -1,6 -3,8 -2,1 -4,2 -7,2 -3,0 -5,-1 -7,-2 -2,-2 -3,-5 -3,-8l0 -182c0,-4 1,-7 3,-8 2,-3 4,-4 6,-4 2,0 4,1 5,2 2,1 3,3 5,5l52 87 52 -87c3,-4 6,-7 10,-7 2,0 4,1 6,4 2,2 3,5 3,8l0 182z"/>
    <path class="fil42 str2" d="M8018 1267c0,3 -1,6 -3,8 -1,1 -4,2 -7,2 -3,0 -5,-1 -7,-2 -2,-2 -3,-5 -3,-8l0 -144 -82 149c-2,2 -3,4 -5,5l-2 1c-1,0 -2,1 -3,1 -2,0 -4,-1 -7,-3 -2,-2 -2,-5 -2,-9l0 -183c0,-2 0,-5 3,-7 2,-2 4,-3 7,-3 2,0 5,1 7,3 2,1 3,4 3,7l0 144 82 -149c1,-1 2,-3 4,-4 2,-2 4,-3 6,-3 2,0 4,2 6,4 2,2 3,5 3,8l0 183zm132 10l-51 0c-11,0 -20,-4 -28,-12 -8,-8 -12,-17 -12,-29l0 -121c0,-12 4,-21 12,-29 8,-8 17,-12 28,-12l51 0c3,0 5,1 7,3 2,2 3,5 3,7 0,2 0,5 -2,7 -2,2 -4,3 -8,3l-51 0c-5,0 -10,2 -14,6 -2,2 -4,4 -5,7 0,2 -1,5 -1,8l0 122c0,5 2,10 6,14 2,2 4,3 6,4 3,1 6,2 8,2l51 0c3,0 5,1 7,3 2,2 3,4 3,7 0,2 0,5 -2,7 -2,2 -4,3 -8,3zm133 0l-51 0c-11,0 -20,-4 -28,-12 -8,-8 -12,-17 -12,-29l0 -121c0,-12 4,-21 12,-29 7,-8 17,-12 28,-12l51 0c3,0 5,1 7,3 2,2 3,5 3,7 0,2 -1,5 -2,7 -2,2 -4,3 -8,3l-51 0c-5,0 -10,2 -14,6 -2,2 -4,4 -5,7 -1,2 -1,5 -1,8l0 122c0,5 2,10 6,14 2,2 4,3 6,4 3,1 6,2 8,2l51 0c3,0 5,1 7,3 2,2 3,4 3,7 0,2 -1,5 -2,7 -2,2 -4,3 -8,3zm172 -10c0,3 0,6 -2,8 -2,1 -5,2 -8,2 -2,0 -5,-1 -7,-2 -2,-2 -3,-5 -3,-8l0 -144 -82 149c-1,2 -3,4 -5,5l-2 1c0,0 -1,1 -3,1 -2,0 -4,-1 -7,-3 -1,-2 -2,-5 -2,-9l0 -183c0,-2 1,-5 3,-7 2,-2 4,-3 7,-3 2,0 5,1 7,3 2,1 3,4 3,7l0 144 82 -149c1,-1 3,-3 5,-4 2,-2 3,-3 5,-3 2,0 4,2 6,4 2,2 3,5 3,8l0 183zm163 0c0,3 -1,6 -3,8 -2,1 -4,2 -7,2 -3,0 -5,-1 -7,-2 -2,-2 -3,-5 -3,-8l0 -144 -83 149c-1,2 -2,4 -4,5l-2 1c-1,0 -2,1 -4,1 -2,0 -4,-1 -6,-3 -2,-2 -3,-5 -3,-9l0 -183c0,-2 1,-5 3,-7 2,-2 5,-3 7,-3 3,0 5,1 7,3 2,1 3,4 3,7l0 144 83 -149c1,-1 2,-3 4,-4 2,-2 4,-3 6,-3 2,0 4,2 6,4 2,2 3,5 3,8l0 183zm-4813 335l-51 0c-11,0 -21,-4 -29,-12 -8,-8 -12,-17 -12,-29l0 -122c0,-11 4,-20 12,-28 8,-8 17,-12 29,-12l51 0c2,0 5,1 7,3 2,2 3,4 3,7 0,2 -1,4 -3,7 -2,2 -4,3 -7,3l-51 0c-6,0 -11,2 -15,6 -2,2 -3,4 -4,6 -1,3 -2,6 -2,8l0 122c0,6 2,11 6,15 2,2 4,3 7,4 3,1 5,2 8,2l51 0c2,0 5,1 7,3 2,2 3,4 3,7 0,2 -1,4 -3,7 -2,2 -4,3 -7,3zm294 -10c0,3 -1,5 -3,7 -2,2 -4,3 -7,3 -3,0 -5,-1 -8,-3 -2,-1 -3,-4 -3,-7l0 -173 -81 0 0 173c0,3 -1,5 -3,7 -2,2 -4,3 -7,3 -3,0 -5,-1 -7,-3 -2,-1 -3,-4 -3,-7l0 -183c0,-7 3,-10 10,-10l102 0c6,0 10,3 10,10l0 183zm60 -92l61 0c6,0 11,-2 15,-5 4,-4 6,-9 6,-15l0 -41c0,-5 -2,-10 -6,-14 -4,-4 -9,-6 -15,-6l-61 0 0 81zm0 21l0 71c0,3 0,5 -2,7 -2,2 -5,3 -8,3 -2,0 -5,-1 -7,-3 -2,-1 -3,-4 -3,-7l0 -183c0,-7 4,-10 10,-10l71 0c12,0 21,4 29,12 8,8 12,17 12,28l0 41c0,11 -4,21 -12,29 -8,8 -17,12 -29,12l-61 0zm158 30l-15 44c-1,2 -2,4 -3,5 -2,1 -4,2 -6,2 -3,0 -5,-1 -7,-3 -2,-2 -3,-4 -3,-7l0 -4 61 -182c2,-6 6,-9 10,-9 4,0 7,3 9,9l61 182 1 4c0,3 -1,5 -3,7 -3,2 -5,3 -8,3 -1,0 -2,0 -4,-1 -2,-1 -3,-3 -5,-6l-14 -44 -74 0zm67 -21l-30 -89 -30 89 60 0zm182 -44c6,4 11,8 14,15 4,6 6,13 6,20l0 40c0,11 -4,21 -12,29 -8,8 -18,12 -29,12l-71 0c-7,0 -10,-3 -10,-10l0 -183c0,-7 3,-10 10,-10l61 0c11,0 21,4 29,12 8,8 12,17 12,28l0 21c0,4 -1,9 -3,13 -1,5 -3,9 -7,13zm-82 14l0 82 61 0c6,0 10,-2 15,-6 3,-4 5,-9 5,-15l0 -40c0,-6 -1,-11 -5,-15 -4,-4 -9,-6 -15,-6l-61 0zm51 -20c6,0 10,-2 14,-6 4,-3 6,-8 6,-14l0 -21c0,-5 -2,-10 -5,-14 -4,-4 -9,-6 -15,-6l-51 0 0 61 51 0zm213 81c0,11 -4,21 -12,29 -8,8 -17,12 -29,12l-40 0c-11,0 -21,-4 -29,-12 -8,-8 -12,-17 -12,-29l0 -122c0,-11 4,-20 12,-28 8,-8 18,-12 29,-12l40 0c12,0 21,4 29,12 8,8 12,17 12,28l0 122zm-20 0l0 -122c0,-5 -2,-10 -6,-14 -4,-4 -9,-6 -15,-6l-40 0c-6,0 -11,2 -15,6 -2,2 -3,4 -4,6 -1,3 -2,6 -2,8l0 122c0,6 2,11 6,15 2,2 4,3 7,4 3,1 5,2 8,2l40 0c6,0 11,-2 15,-6 4,-4 6,-9 6,-15zm219 31c0,3 -1,5 -3,7 -2,2 -4,3 -7,3 -2,0 -5,-1 -7,-3 -2,-1 -3,-4 -3,-7l0 -145 -42 70c-3,4 -6,7 -9,7 -3,0 -6,-3 -9,-7l-42 -70 0 145c0,3 -1,5 -3,7 -2,2 -4,3 -7,3 -3,0 -5,-1 -7,-3 -2,-1 -3,-4 -3,-7l0 -182c0,-4 1,-7 3,-9 1,-2 4,-3 6,-3 2,0 4,1 5,2 1,1 3,2 5,5l52 87 52 -87c2,-5 6,-7 10,-7 2,0 4,1 6,3 2,3 3,6 3,9l0 182zm182 -92l61 0c6,0 11,-2 15,-5 4,-4 6,-9 6,-15l0 -41c0,-5 -2,-10 -6,-14 -4,-4 -9,-6 -15,-6l-61 0 0 81zm0 21l0 71c0,3 -1,5 -3,7 -1,2 -4,3 -7,3 -2,0 -5,-1 -7,-3 -2,-1 -3,-4 -3,-7l0 -183c0,-7 4,-10 10,-10l71 0c12,0 21,4 29,12 8,8 12,17 12,28l0 41c0,11 -4,21 -12,29 -8,8 -18,12 -29,12l-61 0zm163 -41l51 0c3,0 5,1 7,3 2,2 3,5 3,7 0,3 -1,5 -3,7 -1,2 -4,3 -7,3l-51 0 0 82 71 0c3,0 5,1 7,3 2,2 3,4 3,7 0,2 -1,4 -2,7 -2,2 -5,3 -8,3l-81 0c-7,0 -10,-3 -10,-10l0 -183c0,-7 3,-10 10,-10l81 0c3,0 5,1 7,3 2,2 3,4 3,7 0,2 -1,5 -2,7 -2,2 -5,3 -8,3l-71 0 0 61zm213 102l50 0 0 -173c0,-3 1,-5 3,-8 2,-1 5,-2 8,-2 2,0 4,1 7,2 2,2 3,5 3,8l0 183c0,7 -4,10 -11,10l-141 0c-7,0 -10,-3 -10,-10l0 -183c0,-3 1,-5 3,-8 2,-1 4,-2 7,-2 2,0 5,1 7,2 2,2 3,5 3,8l0 173 50 0 0 -173c0,-3 1,-5 4,-8 2,-1 4,-2 7,-2 2,0 5,1 7,2 2,2 3,5 3,8l0 173zm147 -31l-15 44c0,2 -2,4 -3,5 -2,1 -4,2 -6,2 -3,0 -5,-1 -7,-3 -2,-2 -3,-4 -3,-7l0 -4 62 -182c2,-6 5,-9 9,-9 4,0 8,3 10,9l60 182 1 4c0,3 -1,5 -3,7 -2,2 -5,3 -7,3 -2,0 -3,0 -5,-1 -2,-1 -3,-3 -5,-6l-14 -44 -74 0zm67 -21l-30 -89 -30 89 60 0zm202 31l0 -122c0,-5 -2,-10 -6,-14 -3,-4 -8,-6 -14,-6l-21 0c-5,0 -10,2 -14,6 -2,2 -4,4 -5,6 -1,3 -1,6 -1,8l0 122c0,6 2,11 6,15 2,2 4,3 6,4 3,1 6,2 8,2l21 0c5,0 10,-2 14,-6 4,-4 6,-9 6,-15zm-102 -81l21 0 0 -40c0,-12 4,-21 12,-29 7,-8 17,-12 28,-12l21 0c11,0 21,4 28,12 8,8 12,17 12,28l0 122c0,11 -4,21 -12,29 -8,8 -17,12 -28,12l-21 0c-11,0 -20,-4 -28,-12 -8,-8 -12,-17 -12,-29l0 -61 -21 0 0 92c0,3 -1,5 -3,7 -1,2 -4,3 -7,3 -2,0 -5,-1 -7,-3 -2,-1 -3,-4 -3,-7l0 -183c0,-3 1,-5 3,-8 2,-1 5,-2 7,-2 3,0 5,1 7,2 2,2 3,5 3,8l0 71zm325 122l-10 0 -142 0c-7,0 -10,-3 -10,-10l0 -183c0,-3 1,-5 3,-8 2,-1 4,-2 7,-2 2,0 5,1 7,2 2,2 3,5 3,8l0 173 51 0 0 -173c0,-3 1,-5 3,-8 2,-1 4,-2 7,-2 2,0 5,1 7,2 2,2 3,5 3,8l0 173 51 0 0 -173c0,-3 1,-5 3,-8 2,-1 4,-2 7,-2 3,0 5,1 7,2 2,2 3,5 3,8l0 173 10 0c7,0 10,3 10,10l0 30c0,3 -1,6 -3,7 -2,2 -4,3 -7,3 -2,0 -4,0 -7,-2 -2,-2 -3,-4 -3,-8l0 -20zm81 -122l51 0c3,0 5,1 7,3 2,2 3,5 3,7 0,3 0,5 -2,7 -2,2 -4,3 -8,3l-51 0 0 82 71 0c3,0 6,1 8,3 2,2 3,4 3,7 0,2 -1,4 -3,7 -2,2 -4,3 -7,3l-82 0c-7,0 -10,-3 -10,-10l0 -183c0,-7 3,-10 10,-10l82 0c2,0 5,1 7,3 2,2 3,4 3,7 0,2 -1,5 -3,7 -2,2 -4,3 -8,3l-71 0 0 61zm213 -61l-71 0 0 173c0,3 -1,5 -3,7 -2,2 -4,3 -7,3 -3,0 -5,-1 -7,-3 -2,-1 -3,-4 -3,-7l0 -183c0,-7 3,-10 10,-10l81 0c3,0 6,1 8,3 2,2 3,4 3,7 0,2 -1,4 -3,7 -2,2 -4,3 -8,3zm162 142c0,11 -4,21 -11,29 -8,8 -18,12 -29,12l-41 0c-11,0 -20,-4 -28,-12 -8,-8 -12,-17 -12,-29l0 -122c0,-11 4,-20 12,-28 7,-8 17,-12 28,-12l41 0c11,0 21,4 29,12 7,8 11,17 11,28l0 122zm-20 0l0 -122c0,-5 -2,-10 -5,-14 -4,-4 -9,-6 -15,-6l-41 0c-5,0 -10,2 -14,6 -2,2 -4,4 -5,6 -1,3 -1,6 -1,8l0 122c0,6 2,11 6,15 2,2 4,3 6,4 3,1 6,2 8,2l41 0c6,0 10,-2 14,-6 4,-4 6,-9 6,-15zm290 -142l-71 0 0 173c0,3 -1,5 -3,7 -1,2 -4,3 -7,3 -3,0 -5,-1 -7,-3 -2,-1 -3,-4 -3,-7l0 -183c0,-7 3,-10 10,-10l81 0c3,0 6,1 8,3 2,2 3,4 3,7 0,2 -1,4 -3,7 -2,2 -4,3 -8,3zm163 142c0,11 -4,21 -12,29 -8,8 -18,12 -29,12l-41 0c-11,0 -20,-4 -28,-12 -8,-8 -12,-17 -12,-29l0 -122c0,-11 4,-20 12,-28 8,-8 17,-12 28,-12l41 0c11,0 21,4 29,12 8,8 12,17 12,28l0 122zm-21 0l0 -122c0,-5 -2,-10 -5,-14 -4,-4 -9,-6 -15,-6l-41 0c-5,0 -10,2 -14,6 -2,2 -4,4 -5,6 -1,3 -1,6 -1,8l0 122c0,6 2,11 6,15 2,2 4,3 6,4 3,1 6,2 8,2l41 0c6,0 10,-2 14,-6 4,-4 6,-9 6,-15zm179 31c0,3 -1,5 -3,7 -2,2 -4,3 -7,3 -3,0 -5,-1 -7,-3 -2,-1 -3,-4 -3,-7l0 -173 -33 0 -49 175c0,2 -1,4 -3,6 -2,1 -4,2 -6,2 -3,0 -6,-1 -8,-3 -2,-1 -3,-4 -3,-7 0,-1 0,-2 1,-3l50 -183c2,-5 5,-7 10,-7l51 0c7,0 10,3 10,10l0 183zm162 -31c0,11 -4,21 -12,29 -8,8 -17,12 -28,12l-41 0c-11,0 -21,-4 -29,-12 -8,-8 -12,-17 -12,-29l0 -122c0,-11 4,-20 12,-28 8,-8 18,-12 29,-12l41 0c11,0 20,4 28,12 8,8 12,17 12,28l0 122zm-20 0l0 -122c0,-5 -2,-10 -6,-14 -4,-4 -9,-6 -14,-6l-41 0c-6,0 -11,2 -15,6 -2,2 -3,4 -4,6 -1,3 -1,6 -1,8l0 122c0,6 2,11 5,15 2,2 5,3 7,4 3,1 6,2 8,2l41 0c5,0 10,-2 14,-6 4,-4 6,-9 6,-15zm168 41l-50 0c-11,0 -21,-4 -29,-12 -8,-8 -12,-17 -12,-29l0 -122c0,-11 4,-20 12,-28 8,-8 17,-12 29,-12l50 0c3,0 6,1 8,3 2,2 3,4 3,7 0,2 -1,4 -3,7 -2,2 -4,3 -8,3l-51 0c-5,0 -10,2 -14,6 -2,2 -3,4 -4,6 -1,3 -2,6 -2,8l0 122c0,6 2,11 6,15 2,2 4,3 7,4 2,1 5,2 7,2l51 0c3,0 6,1 8,3 2,2 3,4 3,7 0,2 -1,4 -3,7 -2,2 -4,3 -8,3zm87 -51l-15 44c-1,2 -2,4 -4,5 -1,1 -3,2 -5,2 -3,0 -5,-1 -7,-3 -3,-2 -4,-4 -4,-7l1 -4 61 -182c2,-6 5,-9 10,-9 4,0 7,3 9,9l61 182 1 4c0,3 -2,5 -4,7 -2,2 -4,3 -7,3 -1,0 -3,0 -4,-1 -2,-1 -4,-3 -5,-6l-15 -44 -73 0zm66 -21l-29 -89 -30 89 59 0z"/>
   </g>
  </g>
 </g>
</svg>
