<?xml version="1.0" encoding="UTF-8"?>
<!DOCTYPE svg PUBLIC "-//W3C//DTD SVG 1.0//EN" "http://www.w3.org/TR/2001/REC-SVG-20010904/DTD/svg10.dtd">
<!-- Creator: CorelDRAW X7 -->
<svg xmlns="http://www.w3.org/2000/svg" xml:space="preserve" width="115mm" height="70.122mm" version="1.0" style="shape-rendering:geometricPrecision; text-rendering:geometricPrecision; image-rendering:optimizeQuality; fill-rule:evenodd; clip-rule:evenodd"
viewBox="0 0 11500 7012"
 xmlns:xlink="http://www.w3.org/1999/xlink">
 <defs>
  <style type="text/css">
   <![CDATA[
    .str0 {stroke:#4D897C;stroke-width:35.061}
    .str1 {stroke:#F9ECE4;stroke-width:52.5915}
    .str2 {stroke:#3A949E;stroke-width:8.76524}
    .fil13 {fill:none}
    .fil14 {fill:#FEFEFE}
    .fil3 {fill:#FCDFCA}
    .fil31 {fill:#F9D5BB}
    .fil6 {fill:#F9EFE8}
    .fil8 {fill:#F7D0B4}
    .fil18 {fill:#F7E9E2}
    .fil19 {fill:#F3C9AC}
    .fil16 {fill:#F3BC64}
    .fil20 {fill:#F0C09E}
    .fil33 {fill:#DEB391}
    .fil32 {fill:#D9AB85}
    .fil11 {fill:#AF642C}
    .fil15 {fill:#975729}
    .fil12 {fill:#AE5877}
    .fil17 {fill:#7D4525}
    .fil21 {fill:#764024}
    .fil23 {fill:#6F3F26}
    .fil22 {fill:#673A25}
    .fil7 {fill:#58423E}
    .fil4 {fill:#7AB4CD}
    .fil1 {fill:#5C4745}
    .fil9 {fill:#4D897C}
    .fil5 {fill:#5FA5BC}
    .fil30 {fill:#62A1B5}
    .fil25 {fill:#2D78A2}
    .fil28 {fill:#346B89}
    .fil24 {fill:#28648C}
    .fil27 {fill:#2E5977}
    .fil29 {fill:#2D4B63}
    .fil26 {fill:#275173}
    .fil35 {fill:#38959F}
    .fil2 {fill:#F9ECE4}
    .fil10 {fill:#4D897C;fill-rule:nonzero}
    .fil34 {fill:#4D8A7D;fill-rule:nonzero}
    .fil0 {fill:url(#id0)}
   ]]>
  </style>
  <radialGradient id="id0" gradientUnits="userSpaceOnUse" gradientTransform="matrix(1.17124 -0 -0 1.92083 -985 -3229)" cx="5750" cy="3506.1" r="3506.1" fx="5750" fy="3506.1">
   <stop offset="0" style="stop-opacity:1; stop-color:#FEFEFE"/>
   <stop offset="0.439216" style="stop-opacity:1; stop-color:#FEFEFE"/>
   <stop offset="1" style="stop-opacity:1; stop-color:#D1E2F2"/>
  </radialGradient>
 </defs>
 <g id="Layer_x0020_1">
  <metadata id="CorelCorpID_0Corel-Layer"/>
  <path class="fil0" d="M0 0l11500 0 0 7012 -11500 0 0 -7012z"/>
  <g id="_804522993936">
   <g>
    <g>
     <g>
      <path class="fil1 str0" d="M6380 3599c-51,-29 -122,-46 -202,-46 -81,0 -153,18 -205,48 -9,-38 -20,-76 -31,-113 -24,-81 -50,-160 -41,-246 4,-48 19,-111 51,-147 19,-21 47,-34 77,-39l0 0c1,-4 4,-8 6,-13 68,-114 248,-86 332,-7 52,49 82,119 89,190 8,86 -18,165 -42,246 -12,42 -24,84 -34,127z"/>
      <path class="fil2" d="M6596 3864c-17,-53 -39,-74 -93,-85l-158 -41c-30,-7 -51,-32 -53,-62l-23 -204 -96 0 -96 0 -23 204c-2,30 -23,55 -53,62l-158 41c-55,11 -76,32 -94,85l-17 200 441 0 441 0 -18 -200z"/>
      <path class="fil2 str0" d="M6154 3071c-45,5 -107,27 -135,68 -29,42 -42,108 -36,159l43 180c1,2 1,5 2,7l0 1c4,21 16,39 33,52l72 52c12,10 19,15 34,15l5 0 1 0 0 -535c-6,0 -13,1 -19,1z"/>
      <path class="fil2 str0" d="M6192 3071c45,5 107,27 135,68 28,42 42,108 35,159l-43 184 0 0c-3,23 -16,43 -35,56l-71 52c-12,10 -19,15 -34,15l-5 0 -1 0 0 -535c6,0 12,1 19,1z"/>
      <path class="fil3" d="M6377 3298c3,0 6,0 8,3 2,1 3,3 3,5 4,10 5,22 3,34 -11,16 -24,32 -31,50 -2,5 -7,15 -13,16 -8,1 -10,-9 -11,-14 -2,-27 2,-55 6,-82 0,-2 1,-4 2,-6 1,-2 4,-2 6,-3 8,-3 18,-4 27,-3z"/>
      <path class="fil2" d="M6346 3406c-4,0 -6,-3 -8,-6 -1,-3 -1,-6 -2,-8 0,-5 0,-11 0,-16 0,-22 3,-44 6,-66 0,-2 1,-4 2,-6 1,-2 4,-2 6,-3 7,-2 14,-4 22,-4 1,0 3,1 5,1 3,0 6,0 8,3 2,1 3,3 3,5 3,7 4,14 4,22 0,4 0,8 -1,12 -11,16 -24,32 -31,50 -2,5 -7,15 -13,16 -1,0 -1,0 -1,0z"/>
      <path class="fil2" d="M5968 3298c-3,0 -6,0 -8,3 -2,1 -3,3 -3,5 -4,10 -5,22 -3,34 10,16 23,32 31,50 2,5 7,15 13,16 8,1 10,-9 10,-14 3,-27 -1,-55 -5,-82 -1,-2 -1,-4 -2,-6 -2,-2 -4,-2 -6,-3 -8,-3 -18,-4 -27,-3z"/>
      <path class="fil4 str0" d="M6596 3864c-17,-53 -39,-74 -93,-85l-158 -41c-30,-7 -51,-32 -53,-62l-9 -68c-26,15 -66,25 -110,25 -45,0 -84,-10 -110,-25l-9 68c-2,30 -23,55 -53,62l-158 41c-55,11 -76,32 -94,85l-17 200 441 0 441 0 -18 -200z"/>
      <path class="fil5 str0" d="M6265 3742c-9,6 -19,12 -29,17 -18,9 -39,12 -59,12 -12,0 -25,-1 -37,-6 -9,-4 -17,-10 -26,-14 -18,-9 -38,-11 -58,-15 -10,-2 -21,-6 -26,-16 -5,-13 3,-27 7,-40 6,-21 1,-29 3,-52 1,-6 2,-12 3,-19 0,-4 2,-9 6,-9 6,-1 18,7 25,10 10,4 20,10 31,12 14,4 29,2 44,3 7,1 14,2 22,3 35,4 70,-7 102,-25 6,-3 9,-8 16,-9 3,0 6,0 8,2 8,5 6,27 6,35 1,28 1,41 11,67 2,6 5,13 2,19 -2,2 -4,4 -6,6 -11,6 -24,8 -36,14 -3,2 -6,3 -9,5z"/>
      <path class="fil6" d="M6344 3738c0,0 0,0 0,0 0,0 0,0 0,0z"/>
      <path class="fil6" d="M6344 3738c0,0 0,0 0,0 0,0 0,0 0,0z"/>
      <path class="fil6" d="M6344 3738c0,0 0,0 0,0 0,0 0,0 0,0z"/>
      <path class="fil6" d="M6344 3738c-12,-3 -23,-9 -32,-17 0,0 0,0 0,0 9,8 20,14 32,17z"/>
      <path class="fil6" d="M6317 3711c0,-4 -2,-9 -3,-13 -10,-26 -10,-39 -11,-67 0,0 0,-1 0,-1 0,0 0,1 0,1 1,28 1,41 11,67 1,4 3,9 3,13zm-34 -115l-4 -33 4 33z"/>
      <path class="fil7" d="M6279 3563l0 0 -2 -20 2 20zm-211 -16l0 0 1 -4 -1 4z"/>
      <path class="fil2 str0" d="M6185 3629c-5,0 -9,0 -14,-1 -8,-1 -15,-2 -22,-3 -10,-1 -77,-21 -87,-21l6 -57 1 -4 64 47c12,10 19,15 33,15 1,0 1,0 1,0l5 0 1 0 1 0 5 0c15,0 22,-5 34,-15l64 -47 2 20 4 33c-3,2 -6,5 -10,7 -27,15 -57,26 -88,26z"/>
      <path class="fil8" d="M6166 3605c-14,0 -21,-5 -33,-15 12,10 19,15 33,15z"/>
      <path class="fil6" d="M6303 3622c0,-9 0,-19 -4,-24 4,5 4,15 4,24zm-6 -26c0,0 0,0 0,0 0,0 0,0 0,0zm0 -1c0,0 0,0 0,0 0,0 0,0 0,0zm-8 -1c0,0 0,0 0,0 0,0 0,0 0,0zm0 0c0,0 0,0 0,0 0,0 0,0 0,0zm0 0c1,0 2,0 2,0 0,0 -1,0 -2,0zm2 0c0,0 0,0 0,0l0 0c0,0 0,0 0,0z"/>
      <path class="fil1" d="M5969 3130c7,-11 14,-21 24,-29 10,-7 23,-12 35,-10 6,1 12,4 17,8 7,5 13,12 17,19 15,26 10,59 -3,86 -13,26 -33,49 -47,76 -24,46 -31,101 -18,152 -18,-7 -33,-23 -44,-39 -25,-39 -37,-87 -32,-133 5,-47 26,-91 51,-130z"/>
      <path class="fil1" d="M6203 3033c-51,-6 -104,12 -144,45 -4,4 -8,8 -12,13 -6,11 -6,25 -3,38 11,50 57,85 104,104 48,20 99,30 145,54 1,-15 -3,-30 -11,-43 23,23 37,55 39,87 7,-18 9,-31 10,-44 28,50 33,113 28,170 29,-24 49,-57 62,-92 12,-36 17,-73 19,-111 1,-9 1,-19 -1,-28 -2,-8 -5,-15 -8,-23 -19,-41 -39,-84 -75,-112 -21,-16 -47,-26 -73,-35 -26,-10 -52,-19 -80,-23z"/>
      <path class="fil2" d="M6161 3592c-2,0 -18,-82 -19,-83 -2,-2 0,-40 -2,-42 -3,-2 0,-44 -3,-45l2 -138 4 -41c23,-15 51,13 56,17l-2 62 1 82c-1,5 -2,12 -3,17 23,62 14,203 -34,171z"/>
      <g>
       <path class="fil9" d="M6098 3354c-6,0 -11,5 -11,11 0,6 5,11 11,11 6,0 11,-5 11,-11 0,-6 -5,-11 -11,-11zm143 0c-6,0 -11,5 -11,11 0,6 5,11 11,11 6,0 11,-5 11,-11 0,-6 -5,-11 -11,-11z"/>
       <path id="1" class="fil10" d="M6098 3365l-22 0 0 0 0 -1 0 -1 0 -1 0 -1 0 -1 1 -1 0 -1 0 -1 1 -1 0 0 1 -1 0 -1 1 -1 0 -1 1 0 1 -1 1 -1 0 -1 1 0 1 -1 1 0 1 -1 1 0 1 -1 1 0 1 -1 1 0 1 0 1 0 1 -1 2 0 1 0 0 20 0 0 0 0 0 0 0 0 0 0 0 0 0 0 0 0 0 0 0 0 0 0 0 0 0 0 0 0 0 0 0 0 0 0 0 0 0 0 0 0 0 0 0 0 0 0 0 0 0 0 0 0 0 0 0 1 0 0 0 0 0 0 0 0 0 0zm0 0c0,5 -5,10 -11,10 -6,0 -11,-5 -11,-10l22 0zm0 1l0 20 0 0 -1 0 -2 0 -1 -1 -1 0 -1 0 -1 0 -1 -1 -1 0 -1 -1 -1 0 -1 -1 -1 0 -1 -1 -1 0 0 -1 -1 -1 -1 -1 -1 0 0 -1 -1 -1 0 -1 -1 -1 0 0 -1 -1 0 -1 0 -1 -1 -1 0 -1 0 -1 0 -1 0 -1 0 -1 22 0 0 0 0 0 0 0 0 0 0 1 0 0 0 0 0 0 0 0 0 0 0 0 0 0 0 0 0 0 0 0 0 0 0 0 0 0 0 0 0 0 0 0 0 0 0 0 0 0 0 0 0 0 0 0 0 0 0 0 0 0 0 0 0 0 0 0zm0 0c6,0 11,5 11,10 0,5 -5,10 -11,10l0 -20zm0 -1l22 0 0 0 0 1 -1 1 0 1 0 1 0 1 0 1 -1 1 0 1 0 1 -1 0 0 1 -1 1 0 1 -1 1 -1 0 0 1 -1 1 -1 1 -1 0 -1 1 0 0 -1 1 -1 0 -1 1 -1 0 -1 1 -2 0 -1 0 -1 0 -1 1 -1 0 -1 0 0 -20 0 0 0 0 0 0 -1 0 0 0 0 0 0 0 0 0 0 0 0 0 0 0 0 0 0 0 0 0 0 0 0 0 0 0 0 0 0 0 0 0 0 0 0 0 0 0 1 0 0 0 0 0 0 0 0 -1 0 0 0 0 0 0 0 0 0 0zm0 0c0,-5 5,-10 11,-10 6,0 11,5 11,10l-22 0zm0 -1l0 -20 0 0 1 0 1 0 1 1 1 0 1 0 2 0 1 1 1 0 1 1 1 0 0 1 1 0 1 1 1 0 1 1 1 1 0 0 1 1 1 1 0 1 1 1 0 1 1 0 0 1 0 1 1 1 0 1 0 1 0 1 0 1 1 1 0 1 -22 0 0 0 0 0 0 0 0 0 0 -1 0 0 0 0 0 0 -1 0 0 0 0 0 0 0 0 0 0 0 0 0 0 0 0 0 0 0 0 0 0 0 0 0 0 0 0 0 0 0 0 0 0 0 0 0 0 0 1 0 0 0 0 0 0 0 0 0zm0 0c-6,0 -11,-5 -11,-10 0,-5 5,-10 11,-10l0 20zm143 1l-22 0 0 0 0 -1 1 -1 0 -1 0 -1 0 -1 0 -1 1 -1 0 -1 0 -1 1 0 0 -1 1 -1 0 -1 1 -1 1 0 0 -1 1 -1 1 -1 1 0 1 -1 0 0 1 -1 1 0 1 -1 1 0 1 -1 2 0 1 0 1 0 1 -1 1 0 1 0 0 20 0 0 0 0 0 0 1 0 0 0 0 0 0 0 0 0 0 0 0 0 0 0 0 0 0 0 0 0 0 0 0 0 0 0 0 0 0 0 0 0 0 0 0 0 0 0 -1 0 0 0 0 0 0 0 0 1 0 0 0 0 0 0 0 0 0 0zm0 0c0,5 -5,10 -11,10 -6,0 -11,-5 -11,-10l22 0zm0 1l0 20 0 0 -1 0 -1 0 -1 -1 -1 0 -1 0 -2 0 -1 -1 -1 0 -1 -1 -1 0 -1 -1 0 0 -1 -1 -1 0 -1 -1 -1 -1 0 -1 -1 0 -1 -1 0 -1 -1 -1 0 -1 -1 0 0 -1 0 -1 -1 -1 0 -1 0 -1 0 -1 0 -1 -1 -1 0 -1 22 0 0 0 0 0 0 0 0 0 0 1 0 0 0 0 0 0 1 0 0 0 0 0 0 0 0 0 0 0 0 0 0 0 0 0 0 0 0 0 0 0 0 0 0 0 0 0 0 0 0 0 0 0 0 0 0 0 -1 0 0 0 0 0 0 0 0 0zm0 0c6,0 11,5 11,10 0,5 -5,10 -11,10l0 -20zm0 -1l22 0 0 0 0 1 0 1 0 1 0 1 0 1 -1 1 0 1 0 1 -1 1 0 0 -1 1 0 1 -1 1 0 1 -1 0 -1 1 -1 1 0 1 -1 0 -1 1 -1 0 -1 1 -1 0 -1 1 -1 0 -1 1 -1 0 -1 0 -1 0 -1 1 -2 0 -1 0 0 -20 0 0 0 0 0 0 0 0 0 0 0 0 0 0 0 0 0 0 0 0 0 0 0 0 0 0 0 0 0 0 0 0 0 0 0 0 0 0 0 0 0 0 0 0 0 0 0 0 0 0 0 0 0 0 0 -1 0 0 0 0 0 0 0 0 0 0zm0 0c0,-5 5,-10 11,-10 6,0 11,5 11,10l-22 0zm0 -1l0 -20 0 0 1 0 2 0 1 1 1 0 1 0 1 0 1 1 1 0 1 1 1 0 1 1 1 0 1 1 1 0 0 1 1 1 1 1 1 0 0 1 1 1 0 1 1 1 0 0 1 1 0 1 0 1 1 1 0 1 0 1 0 1 0 1 0 1 -22 0 0 0 0 0 0 0 0 0 0 -1 0 0 0 0 0 0 0 0 0 0 0 0 0 0 0 0 0 0 0 0 0 0 0 0 0 0 0 0 0 0 0 0 0 0 0 0 0 0 0 0 0 0 0 0 0 0 0 0 0 0 0 0 0 0 0 0zm0 0c-6,0 -11,-5 -11,-10 0,-5 5,-10 11,-10l0 20z"/>
      </g>
     </g>
     <g>
      <path class="fil11 str0" d="M4178 3178c-21,-69 -66,-133 -132,-171 -38,-23 -88,-36 -139,-39 -42,-2 -19,481 -19,541l0 0c2,6 5,11 8,17 112,1 162,29 162,29 124,-116 135,-255 136,-272 -1,-35 -5,-70 -16,-105z"/>
      <path class="fil11 str0" d="M3597 3178c21,-69 66,-133 132,-171 38,-23 88,-36 139,-39 134,-26 34,476 20,541l0 0c-3,6 -6,11 -8,17 -113,1 -163,29 -163,29 -124,-116 -135,-255 -136,-272 1,-35 5,-70 16,-105z"/>
      <path class="fil2 str0" d="M4311 3864c-17,-53 -39,-74 -93,-85l-159 -41c-29,-7 -51,-32 -53,-62l-22 -204 -96 0 -97 0 -22 204c-2,30 -24,55 -53,62l-158 41c-55,11 -77,32 -94,85l-17 200 441 0 440 0 -17 -200z"/>
      <path class="fil2 str0" d="M3869 3071c-45,5 -108,27 -136,68 -28,42 -42,108 -35,159l43 180c0,2 1,5 1,7l0 1c4,21 17,39 34,52l71 52c12,10 19,15 34,15l6 0 1 0 0 -535c-7,0 -13,1 -19,1z"/>
      <path class="fil2 str0" d="M3906 3071c45,5 108,27 136,68 28,42 42,108 35,159l-44 184 0 0c-3,23 -16,43 -34,56l-71 52c-12,10 -19,15 -34,15l-5 0 -1 0 0 -535c6,0 12,1 18,1z"/>
      <path class="fil3" d="M4091 3298c3,0 7,0 9,3 1,1 2,3 3,5 4,10 5,22 3,34 -11,16 -24,32 -31,50 -3,5 -7,15 -14,16 -7,1 -9,-9 -10,-14 -2,-27 2,-55 6,-82 0,-2 0,-4 2,-6 1,-2 3,-2 5,-3 9,-3 18,-4 27,-3z"/>
      <path class="fil2" d="M4060 3406c-3,0 -6,-3 -7,-6 -1,-3 -2,-6 -2,-8 0,-5 -1,-11 -1,-16 0,-22 4,-44 7,-66 0,-2 0,-4 2,-6 1,-2 3,-2 5,-3 7,-2 15,-4 22,-4 2,0 4,1 5,1 3,0 7,0 9,3 1,1 2,3 3,5 3,7 4,14 4,22 0,4 0,8 -1,12 -11,16 -24,32 -31,50 -3,5 -7,15 -14,16 0,0 0,0 -1,0z"/>
      <path class="fil2" d="M3683 3298c-3,0 -7,0 -9,3 -1,1 -2,3 -3,5 -4,10 -5,22 -3,34 11,16 24,32 32,50 2,5 6,15 13,16 7,1 10,-9 10,-14 2,-27 -2,-55 -6,-82 0,-2 0,-4 -2,-6 -1,-2 -3,-2 -5,-3 -9,-3 -18,-4 -27,-3z"/>
      <path class="fil12 str0" d="M4332 3864c-7,-77 -50,-101 -100,-96 -10,1 -19,4 -28,7l-128 -33c-17,54 -95,95 -188,95 -94,0 -172,-41 -188,-95l-118 30c-11,-6 -25,-10 -39,-11 -50,-5 -92,18 -100,95 -4,36 4,208 4,208l441 0 440 0c0,0 8,-165 4,-200z"/>
      <path class="fil6" d="M4006 3676l-14 -133 14 133z"/>
      <path class="fil8" d="M3881 3605c-15,0 -22,-5 -34,-15 12,10 19,15 34,15zm-34 -15l-64 -47 64 47z"/>
      <path class="fil8" d="M4204 3775l-128 -33 79 20 49 13z"/>
      <path class="fil11 str0" d="M4014 3063c-26,-14 -56,-17 -85,-20 -22,-2 -45,-4 -67,1 -21,5 -39,15 -58,25 -33,18 -69,39 -82,75 -2,6 -3,13 -3,19 1,7 4,13 7,20 15,28 42,50 71,64 29,14 61,22 93,28 -6,-6 -11,-12 -16,-18 44,21 92,34 140,38 -7,-3 -14,-8 -19,-13 53,10 102,45 127,94 3,-60 5,-119 6,-178 0,-8 0,-15 -3,-22 -3,-10 -10,-17 -17,-25 -12,-13 -24,-26 -36,-39 -18,-18 -36,-37 -58,-49z"/>
      <path class="fil11 str0" d="M3769 3111c17,100 -28,207 -112,267 -34,-101 -9,-240 112,-267z"/>
      <path class="fil13 str1" d="M3888 3592l0 -303"/>
      <g>
       <path class="fil9" d="M3812 3316c-6,0 -11,5 -11,11 0,6 5,11 11,11 6,0 11,-5 11,-11 0,-6 -5,-11 -11,-11zm143 0c-6,0 -11,5 -11,11 0,6 5,11 11,11 6,0 11,-5 11,-11 0,-6 -5,-11 -11,-11z"/>
       <path id="1" class="fil10" d="M3812 3327l-22 0 0 0 0 -1 0 -1 0 -1 0 -1 0 -1 1 -1 0 -1 0 -1 1 -1 0 -1 1 -1 0 0 1 -1 0 -1 1 -1 1 0 1 -1 0 -1 1 0 1 -1 1 -1 1 0 1 -1 1 0 1 0 1 -1 1 0 1 0 1 -1 1 0 2 0 1 0 0 20 0 0 0 0 0 0 0 0 0 0 0 0 0 0 0 0 0 0 0 -1 0 0 0 0 0 0 0 0 0 1 0 0 0 0 0 0 0 0 0 0 0 0 0 0 0 0 0 0 0 0 0 0 0 0 0 0 0 0 0 1 0 0 0 0 0 0zm0 0c0,5 -5,10 -11,10 -6,0 -11,-5 -11,-10l22 0zm0 1l0 19 0 0 -1 0 -2 0 -1 0 -1 0 -1 0 -1 -1 -1 0 -1 0 -1 -1 -1 0 -1 -1 -1 0 -1 -1 -1 -1 0 0 -1 -1 -1 -1 -1 -1 0 0 -1 -1 0 -1 -1 -1 0 -1 -1 -1 0 0 0 -1 -1 -1 0 -1 0 -1 0 -1 0 -1 0 -1 22 0 0 0 0 0 0 0 0 0 0 0 0 0 0 1 0 0 0 0 0 0 0 0 0 0 0 0 0 0 0 0 0 0 0 0 0 0 0 0 0 0 0 0 0 0 0 0 0 0 0 0 0 0 0 0 0 0 0 0 0 0 0 0 0 0 0 0zm0 0c6,0 11,4 11,10 0,5 -5,9 -11,9l0 -19zm0 -1l22 0 0 0 0 1 -1 1 0 1 0 1 0 1 0 1 -1 1 0 0 0 1 -1 1 0 1 -1 1 0 1 -1 1 -1 0 0 1 -1 1 -1 0 -1 1 -1 1 0 0 -1 1 -1 0 -1 1 -1 0 -1 0 -2 1 -1 0 -1 0 -1 0 -1 0 -1 0 0 -19 0 0 0 0 0 0 -1 0 0 0 0 0 0 0 0 0 0 0 0 0 0 0 0 0 0 0 0 0 0 0 0 0 0 0 0 0 0 0 0 0 0 0 0 0 1 0 0 0 0 0 0 -1 0 0 0 0 0 0 0 0 0 0 0 0 0 0zm0 0c0,-6 5,-10 11,-10 6,0 11,4 11,10l-22 0zm0 -1l0 -20 0 0 1 0 1 0 1 0 1 1 1 0 2 0 1 1 1 0 1 0 1 1 1 0 0 1 1 1 1 0 1 1 1 1 0 0 1 1 1 1 0 1 1 0 0 1 1 1 0 1 0 1 1 1 0 1 0 1 0 1 0 1 1 1 0 1 -22 0 0 0 0 0 0 -1 0 0 0 0 0 0 0 0 0 0 0 0 -1 0 0 0 0 0 0 0 0 0 0 0 0 0 0 0 0 -1 0 0 0 0 0 0 0 0 0 0 0 1 0 0 0 0 0 0 0 0 1 0 0 0 0 0 0 0 0 0zm0 0c-6,0 -11,-5 -11,-10 0,-6 5,-10 11,-10l0 20zm143 1l-22 0 0 0 1 -1 0 -1 0 -1 0 -1 0 -1 0 -1 1 -1 0 -1 0 -1 1 -1 0 -1 1 0 0 -1 1 -1 1 -1 0 0 1 -1 1 -1 1 0 1 -1 1 -1 0 0 1 -1 1 0 1 0 2 -1 1 0 1 0 1 -1 1 0 1 0 1 0 0 20 0 0 0 0 1 0 0 0 0 0 0 0 0 0 0 0 0 -1 0 0 0 0 0 0 0 0 0 0 0 1 0 0 0 0 0 0 0 0 0 0 0 0 0 0 0 0 0 0 -1 0 0 0 0 0 0 0 0 0 0 1 0 0 0 0 0 0zm0 0c0,5 -5,10 -11,10 -6,0 -11,-5 -11,-10l22 0zm0 1l0 19 0 0 -1 0 -1 0 -1 0 -1 0 -1 0 -1 -1 -2 0 -1 0 -1 -1 -1 0 0 -1 -1 0 -1 -1 -1 -1 -1 0 -1 -1 0 -1 -1 0 -1 -1 0 -1 -1 -1 0 -1 -1 -1 0 -1 0 0 -1 -1 0 -1 0 -1 0 -1 0 -1 0 -1 -1 -1 22 0 0 0 0 0 0 0 0 0 0 0 0 0 0 1 1 0 0 0 0 0 0 0 0 0 0 0 0 0 0 0 0 0 0 0 0 0 0 0 0 0 0 0 0 0 0 0 0 0 0 0 0 0 0 0 0 0 0 0 -1 0 0 0 0 0 0 0zm0 0c6,0 11,4 11,10 0,5 -5,9 -11,9l0 -19zm0 -1l22 0 0 0 0 1 0 1 0 1 0 1 0 1 -1 1 0 1 0 0 -1 1 0 1 -1 1 0 1 -1 1 0 1 -1 0 -1 1 0 1 -1 0 -1 1 -1 1 -1 0 -1 1 -1 0 -1 1 -1 0 -1 0 -1 1 -1 0 -1 0 -1 0 -1 0 -2 0 0 -19 0 0 0 0 0 0 0 0 0 0 0 0 0 0 0 0 0 0 0 0 0 0 0 0 0 0 0 0 0 0 0 0 0 0 0 0 0 0 0 0 0 0 0 0 0 0 0 0 0 0 0 -1 0 0 0 0 0 0 0 0 0 0 0 0 0 0zm0 0c0,-6 5,-10 11,-10 6,0 11,4 11,10l-22 0zm0 -1l0 -20 0 0 2 0 1 0 1 0 1 1 1 0 1 0 1 1 1 0 1 0 1 1 1 0 1 1 1 1 1 0 1 1 0 1 1 0 1 1 0 1 1 1 0 0 1 1 0 1 1 1 0 1 0 1 1 1 0 1 0 1 0 1 0 1 0 1 -22 0 0 0 0 0 0 -1 0 0 0 0 0 0 0 0 0 0 0 0 0 0 0 0 0 0 0 0 0 0 0 0 0 0 0 0 0 -1 0 0 0 0 0 0 0 0 0 0 0 1 0 0 0 0 0 0 0 0 0 0 0 0 0 0 0 0 0 0zm0 0c-6,0 -11,-5 -11,-10 0,-6 5,-10 11,-10l0 20z"/>
      </g>
     </g>
     <g>
      <path class="fil2 str0" d="M5483 3817c-27,-94 -152,-95 -224,-113 -9,-2 -17,-4 -26,-7 -8,-2 -17,-5 -24,-10 -30,-20 -31,-72 -35,-104 -4,-33 -7,-67 -7,-101 0,-11 0,-23 1,-35 -31,11 -49,35 -82,36 -3,0 -17,0 -30,0 -12,0 -23,-1 -23,0 0,-1 -12,0 -24,0 -13,0 -27,0 -29,0 -33,-1 -52,-25 -82,-36 0,12 0,24 0,35 0,34 -2,68 -7,101 -4,32 -5,84 -35,104 -7,5 -16,8 -24,10 -8,3 -17,5 -26,7 -72,18 -197,19 -224,113l-39 247 490 0 490 0 -40 -247z"/>
      <path class="fil14" d="M5483 3817c-27,-94 -152,-95 -224,-113 -9,-2 -17,-4 -26,-7 -3,-1 -7,-2 -10,-3 -48,41 -115,67 -190,67 -75,0 -142,-26 -190,-67 -4,1 -7,2 -11,3 -8,3 -17,5 -26,7 -72,18 -197,19 -224,113l-39 247 490 0 490 0 -40 -247z"/>
      <path class="fil14 str0" d="M5182 3621l82 101 -153 141 -56 -141 127 -101z"/>
      <path class="fil14 str0" d="M4883 3621l-82 101 154 141 56 -141 -128 -101z"/>
      <path class="fil15 str0" d="M5275 3694l120 40c0,0 89,17 96,129l32 201 -259 0 11 -370z"/>
      <path class="fil11 str0" d="M5194 3636l8 -7 73 57 0 378 -147 0 66 -428z"/>
      <path class="fil15 str0" d="M4790 3694l-119 40c0,0 -89,17 -96,129l-32 201 258 0 -11 -370z"/>
      <path class="fil11 str0" d="M4871 3636l-8 -7 -73 57 0 378 148 0 -67 -428z"/>
      <path class="fil3" d="M5253 3253c3,0 6,0 9,3 1,1 2,3 2,5 4,10 6,22 3,34 -10,16 -23,32 -31,50 -2,5 -7,15 -13,16 -8,1 -10,-9 -10,-14 -3,-27 1,-55 5,-82 1,-2 1,-4 2,-6 2,-1 4,-2 6,-3 8,-3 18,-4 27,-3z"/>
      <path class="fil2 str0" d="M5222 3361c-7,0 -9,-9 -9,-14 -1,-5 -1,-11 -1,-16 0,-22 3,-44 6,-66 1,-2 1,-4 2,-6 2,-1 4,-2 6,-3 7,-2 14,-3 22,-3 2,0 3,0 5,0 3,0 6,0 9,3 1,1 2,3 2,5 3,7 4,15 4,22 0,4 0,8 -1,12 -10,16 -23,32 -31,50 -2,5 -7,15 -13,16 -1,0 -1,0 -1,0z"/>
      <path class="fil2 str0" d="M5238 3210l-20 192c-3,16 -9,31 -19,43l-91 92c-2,1 -3,3 -5,5 -12,14 -30,22 -49,22l-21 0 0 -562c113,0 223,83 205,208z"/>
      <path class="fil2 str0" d="M4813 3253c-3,0 -6,0 -8,3 -2,1 -3,3 -3,5 -4,10 -5,22 -3,34 11,16 24,32 31,50 2,5 7,15 13,16 8,1 10,-9 11,-14 2,-27 -2,-55 -6,-82 -1,-2 -1,-4 -2,-6 -1,-1 -4,-2 -6,-3 -8,-3 -18,-4 -27,-3z"/>
      <path class="fil2 str0" d="M4828 3210l20 192c2,16 8,31 18,43l92 92c1,1 3,3 4,5 13,14 31,22 50,22l21 0 0 -562c-114,0 -223,83 -205,208z"/>
      <path class="fil16 str0" d="M5235 3055c-11,-26 -27,-49 -48,-69 -63,-59 -163,-71 -243,-46 -19,6 -37,15 -52,29 -15,13 -19,24 -21,43 -29,1 -45,32 -54,55 -26,74 9,186 9,186l26 12c-6,-3 2,-52 3,-57 5,-34 15,-78 40,-102 24,21 58,28 90,34 36,6 73,6 110,1 -14,-7 -25,-18 -34,-31 32,17 66,33 102,30 -4,-6 -8,-12 -13,-17 7,9 26,11 36,16 15,10 25,30 29,46 4,14 5,28 6,43 0,4 5,35 1,37l22 -12c19,-64 18,-137 -9,-198z"/>
      <path class="fil17" d="M5150 3840c-1,7 -2,16 -7,21 -6,6 -15,8 -23,7 -23,-1 -43,-13 -62,-25 -22,-14 -45,-28 -61,-49 35,-27 75,-49 118,-64 11,-4 25,-6 33,2 6,6 7,15 7,24 -1,28 -2,56 -5,84z"/>
      <path class="fil17 str0" d="M4915 3840c1,7 2,16 7,21 6,6 15,8 24,7 22,-1 42,-13 62,-25 22,-14 44,-28 60,-49 -35,-27 -75,-49 -117,-64 -11,-4 -25,-6 -34,2 -6,6 -6,15 -6,24 0,28 1,56 4,84z"/>
      <path class="fil18" d="M5523 4064l-1 0c0,0 0,0 1,0zm-1 0l0 0c0,0 0,0 0,0zm0 -1l-31 -200c-1,-1 -1,-3 -1,-5 0,2 0,4 1,5l2 16c11,69 28,175 29,184zm-37 -237c0,0 0,0 0,0l-2 -9c0,1 1,4 2,9zm-291 -190l0 0 8 -7 -8 7zm-5 -7l-7 -8 7 8zm-10 -5c-2,-13 -3,-26 -4,-37 1,11 2,24 4,37l0 0zm-4 -37c0,0 0,0 0,0 0,0 0,0 0,0zm-8 -105c0,-1 0,-3 0,-5l0 0c0,2 0,4 0,5z"/>
      <path class="fil19" d="M5033 3564l-21 0c-19,0 -37,-8 -50,-22 -1,-2 -3,-4 -4,-5 1,1 3,3 4,5 13,14 31,22 50,22l21 0zm-75 -27l-56 -55 0 0 56 55z"/>
      <path class="fil20" d="M5054 3564l-21 0 21 0c17,0 34,-7 46,-19 -12,12 -29,19 -46,19zm50 -23c1,-2 2,-3 4,-4 -2,1 -3,2 -4,4z"/>
      <path class="fil21 str0" d="M5123 3868c-1,0 -2,0 -3,0 -6,0 -11,-1 -16,-2l-47 -33c0,-1 11,-38 11,-39 -1,-1 -2,-2 -3,-3l0 -14c0,-9 -8,-17 -17,-17l0 0c6,-3 12,-6 18,-9l0 0c16,-8 32,-15 49,-21 5,-2 12,-4 18,-4 6,0 11,2 15,6 6,6 7,15 7,24 -1,23 -2,46 -3,70 -1,4 -1,9 -2,14 -1,7 -2,16 -7,21 -5,6 -13,7 -20,7z"/>
      <path class="fil21" d="M5067 3796l-2 -3 0 -2c1,1 2,2 3,3 0,1 -1,1 -1,2z"/>
      <path class="fil22" d="M5065 3793l-17 -33 0 0 0 0c9,0 17,8 17,17l0 14 0 2z"/>
      <path class="fil23 str0" d="M5048 3834l-31 0c-9,0 -16,-7 -16,-16l0 -41c0,-9 7,-17 16,-17l31 0c9,0 17,8 17,17l0 41c0,9 -8,16 -17,16z"/>
      <path class="fil13 str1" d="M5033 3555l0 -397"/>
      <g>
       <path class="fil9" d="M4957 3246c-6,0 -11,5 -11,11 0,6 5,11 11,11 6,0 11,-5 11,-11 0,-6 -5,-11 -11,-11zm143 0c-6,0 -11,5 -11,11 0,6 5,11 11,11 6,0 11,-5 11,-11 0,-6 -5,-11 -11,-11z"/>
       <path id="1" class="fil10" d="M4957 3257l-22 0 0 0 0 -1 0 -1 0 -1 0 -1 0 -1 1 -1 0 -1 0 -1 1 -1 0 -1 1 0 0 -1 1 -1 0 -1 1 -1 1 0 0 -1 1 -1 1 0 1 -1 1 0 1 -1 1 -1 1 0 1 0 1 -1 1 0 1 0 1 -1 1 0 1 0 2 0 0 20 0 0 0 0 0 0 0 0 0 0 0 0 0 0 0 0 0 0 0 0 0 0 0 0 0 0 0 0 0 0 0 0 0 0 0 0 0 0 0 0 0 0 0 0 0 0 0 0 0 0 0 0 0 0 0 0 0 1 0 0 0 0 0 0 0 0zm0 0c0,5 -5,10 -11,10 -6,0 -11,-5 -11,-10l22 0zm0 1l0 20 0 0 -2 0 -1 -1 -1 0 -1 0 -1 0 -1 0 -1 -1 -1 0 -1 -1 -1 0 -1 -1 -1 0 -1 -1 -1 -1 -1 0 0 -1 -1 -1 -1 0 0 -1 -1 -1 0 -1 -1 -1 0 -1 -1 0 0 -1 0 -1 -1 -1 0 -1 0 -1 0 -1 0 -1 0 -1 22 0 0 0 0 0 0 0 0 0 0 0 0 1 0 0 0 0 0 0 0 0 0 0 0 0 0 0 0 0 0 0 0 0 0 0 0 0 0 0 0 0 0 0 0 0 0 0 0 0 0 0 0 0 0 0 0 0 0 0 0 0 0 0 0 0 0 0zm0 0c6,0 11,4 11,10 0,5 -5,10 -11,10l0 -20zm0 -1l21 0 0 0 0 1 0 1 0 1 0 1 0 1 0 1 -1 1 0 1 0 0 -1 1 0 1 -1 1 -1 1 0 1 -1 0 -1 1 0 1 -1 0 -1 1 -1 1 -1 0 0 1 -1 0 -1 1 -1 0 -2 1 -1 0 -1 0 -1 0 -1 0 -1 1 -1 0 0 -20 0 0 -1 0 0 0 0 0 0 0 0 0 0 0 0 0 0 0 0 0 0 0 0 0 0 0 0 0 0 0 0 0 0 0 0 0 0 0 0 0 0 0 0 0 0 0 0 0 0 0 1 0 0 -1 0 0 0 0 0 0 0 0 0 0 0 0zm0 0c0,-5 4,-10 11,-10 6,0 10,5 10,10l-21 0zm0 -1l0 -20 0 0 1 0 1 0 1 0 1 1 1 0 1 0 2 1 1 0 1 0 1 1 0 1 1 0 1 1 1 0 1 1 0 1 1 0 1 1 0 1 1 1 1 1 0 0 1 1 0 1 0 1 1 1 0 1 0 1 0 1 0 1 0 1 0 1 -21 0 0 0 0 0 0 0 0 -1 0 0 0 0 -1 0 0 0 0 0 0 0 0 0 0 0 0 0 0 0 0 0 0 0 0 0 0 0 0 0 0 0 0 0 0 0 0 0 0 0 0 0 0 0 0 0 0 0 0 0 0 0 1 0 0 0 0 0zm0 0c-6,0 -11,-5 -11,-10 0,-5 5,-10 11,-10l0 20zm143 1l-22 0 0 0 0 -1 0 -1 1 -1 0 -1 0 -1 0 -1 1 -1 0 -1 0 -1 1 -1 0 0 1 -1 0 -1 1 -1 1 -1 0 0 1 -1 1 -1 1 0 1 -1 0 0 1 -1 1 -1 1 0 1 0 1 -1 1 0 2 0 1 -1 1 0 1 0 1 0 0 20 0 0 0 0 0 0 0 0 1 0 0 0 0 0 0 0 0 0 0 0 0 0 0 0 0 0 0 0 0 0 0 0 0 0 0 0 0 0 0 0 0 0 -1 0 0 0 0 0 0 0 0 0 0 0 0 0 0 1 0 0 0 0 0 0 0 0zm0 0c0,5 -5,10 -11,10 -6,0 -11,-5 -11,-10l22 0zm0 1l0 20 0 0 -1 0 -1 -1 -1 0 -1 0 -2 0 -1 0 -1 -1 -1 0 -1 -1 -1 0 -1 -1 0 0 -1 -1 -1 -1 -1 0 -1 -1 0 -1 -1 0 -1 -1 0 -1 -1 -1 0 -1 -1 -1 0 0 0 -1 -1 -1 0 -1 0 -1 0 -1 -1 -1 0 -1 0 -1 22 0 0 0 0 0 0 0 0 0 0 0 0 1 0 0 0 0 0 0 0 0 1 0 0 0 0 0 0 0 0 0 0 0 0 0 0 0 0 0 0 0 0 0 0 0 0 0 0 0 0 0 0 0 0 0 -1 0 0 0 0 0 0 0 0 0 0 0zm0 0c6,0 11,4 11,10 0,5 -5,10 -11,10l0 -20zm0 -1l22 0 0 0 0 1 0 1 0 1 0 1 -1 1 0 1 0 1 0 1 -1 0 0 1 -1 1 0 1 -1 1 -1 1 0 0 -1 1 -1 1 0 0 -1 1 -1 1 -1 0 -1 1 -1 0 -1 1 -1 0 -1 1 -1 0 -1 0 -1 0 -1 0 -2 1 -1 0 0 -20 0 0 0 0 0 0 0 0 0 0 0 0 0 0 0 0 0 0 0 0 0 0 0 0 0 0 0 0 0 0 0 0 0 0 0 0 0 0 0 0 0 0 0 0 0 0 0 0 0 0 0 0 0 -1 0 0 0 0 0 0 0 0 0 0 0 0zm0 0c0,-5 5,-10 11,-10 6,0 11,5 11,10l-22 0zm0 -1l0 -20 0 0 1 0 2 0 1 0 1 1 1 0 1 0 1 1 1 0 1 0 1 1 1 1 1 0 1 1 1 0 0 1 1 1 1 0 0 1 1 1 1 1 0 1 1 0 0 1 1 1 0 1 0 1 0 1 1 1 0 1 0 1 0 1 0 1 -22 0 0 0 0 0 0 0 0 -1 0 0 0 0 0 0 0 0 0 0 0 0 0 0 0 0 0 0 0 0 0 0 0 0 0 0 0 0 0 0 0 0 0 0 0 0 0 0 0 0 0 0 0 0 0 0 0 0 0 0 0 0 0 0 0 0 0 0zm0 0c-6,0 -11,-5 -11,-10 0,-5 5,-10 11,-10l0 20z"/>
      </g>
     </g>
     <g id="_804522994224">
      <path class="fil2 str0" d="M7766 3816c-26,-95 -152,-95 -224,-113 -9,-2 -18,-4 -26,-7 -9,-2 -17,-5 -24,-10 -30,-20 -31,-73 -36,-105 -4,-33 -6,-67 -7,-100 0,-12 0,-24 1,-36 -31,11 -49,35 -82,36 -3,0 -17,0 -30,0 -12,0 -23,0 -23,0 0,0 -12,0 -24,0 -13,0 -27,0 -30,0 -33,-1 -51,-25 -82,-36 1,12 1,24 1,36 0,33 -3,67 -7,100 -5,32 -5,85 -35,105 -8,5 -16,8 -25,10 -8,3 -17,5 -25,7 -73,18 -198,18 -225,113l-40 248 492 0 491 0 -40 -248z"/>
      <path class="fil24" d="M7766 3816c-26,-95 -152,-95 -224,-113 -9,-2 -18,-4 -26,-7 -4,-1 -7,-25 -11,-27 -48,42 -190,137 -190,137 0,0 -143,-95 -191,-137 -3,2 -7,26 -11,27 -8,3 -17,5 -25,7 -73,18 -198,18 -225,113l-40 248 492 0 491 0 -40 -248z"/>
      <path class="fil25" d="M7465 3620l82 101 -154 142 -56 -142 128 -101z"/>
      <path class="fil26" d="M7337 3721l-22 85 45 -28 -23 -57z"/>
      <path class="fil25 str0" d="M7165 3620l-82 101 153 142 56 -142 -127 -101z"/>
      <path class="fil26" d="M7292 3721l23 85 -45 -28 22 -57z"/>
      <path class="fil18" d="M7806 4064l0 0 -40 -248c0,0 0,0 0,-1 0,1 0,1 0,1l1 1c0,6 5,36 11,74 1,5 2,12 3,18 1,4 1,7 2,11 11,68 23,144 23,144zm-262 -360c0,0 0,0 0,0 0,0 0,0 0,0zm-1 0c0,0 0,0 0,0 0,0 0,0 0,0zm0 0c0,0 0,-1 0,-1 0,0 0,1 0,1zm0 -1c0,0 0,0 0,0 0,0 0,0 0,0zm-1 0c0,0 0,0 0,0 0,0 0,0 0,0zm0 0c0,0 0,0 0,0 0,0 0,0 0,0zm0 0c0,0 0,0 0,0 0,0 0,0 0,0zm0 0c-4,-1 -8,-2 -13,-3l-10 -13 10 13c4,1 8,2 13,3zm-37 -33l0 0 0 -1c0,0 0,1 0,1zm0 0c0,0 0,0 0,0 0,0 0,0 0,0zm0 -1c0,0 0,0 0,0 0,0 0,0 0,0zm0 0c0,0 0,0 0,0 0,0 0,0 0,0zm0 0c0,0 0,0 0,0 0,0 0,0 0,0zm0 0c0,0 0,0 0,0 0,0 0,0 0,0zm0 0c0,0 0,0 0,0 0,0 0,0 0,0zm0 0c0,0 0,0 0,0 0,0 0,0 0,0zm-44 -46c-2,-14 -3,-27 -4,-37 1,10 2,23 4,37l3 -2 -3 2zm-4 -38c0,0 0,0 0,0 0,0 0,0 0,0zm-3 -25c-3,-25 -4,-51 -5,-76 1,24 2,48 5,72 0,1 0,3 0,4zm-5 -76c0,0 0,0 0,0 0,0 0,0 0,0zm0 0c0,-1 0,-1 0,-1 0,0 0,0 0,1zm0 -2c0,0 0,0 0,0 0,0 0,0 0,0zm0 0c0,0 0,0 0,-1 0,1 0,1 0,1zm0 -1l0 0c0,-2 0,-4 0,-5l0 0c0,1 0,3 0,5l0 0z"/>
      <path class="fil27" d="M7806 4064l-248 0 -11 0 -54 0 -149 -276 16 -10 -1 -2 34 87 154 -142 -18 -21c5,1 9,2 13,3l0 0c0,0 0,0 0,0 0,0 0,0 0,0 0,0 0,0 0,0 0,0 0,0 0,0 0,0 0,0 0,0 0,0 1,0 1,0 0,0 0,0 0,0 0,0 0,0 0,0 0,0 0,1 0,1 0,0 0,0 0,0 0,0 0,0 0,0 1,0 1,0 1,0 0,0 0,0 0,0 53,13 132,17 182,54 2,1 4,3 6,5l1 1c2,1 4,3 5,5l1 1c2,1 4,3 5,5l1 1c2,2 3,4 4,5l2 2c1,2 2,4 3,5 1,1 1,2 2,3 1,1 2,3 3,5 0,1 0,2 1,3 1,2 2,4 2,6 1,0 1,1 1,2 1,3 2,6 3,8 0,1 0,1 0,1l40 248zm-299 -392l-2 -2c0,0 0,-1 0,-1l0 0c0,0 0,0 0,0 0,0 0,0 0,0 0,0 0,0 0,0 0,0 0,0 0,0 0,0 0,0 0,0 0,0 0,0 0,0 0,0 0,0 0,0 0,0 0,0 0,0 0,0 0,0 0,0 0,1 0,1 0,1 0,0 0,0 0,0 1,0 1,1 2,2z"/>
      <path class="fil28 str0" d="M7393 3863l-34 -87 -22 -55 124 -98 3 -2 0 0 1 -1 10 12 1 3 29 35 0 0 2 2c0,0 0,0 0,0l12 15 10 13 18 21 -154 142z"/>
      <path class="fil29" d="M7344 3788l-16 -32 9 -35 22 55 1 2 -16 10z"/>
      <path class="fil26" d="M7300 3789l15 17 0 258 -15 0 0 -275z"/>
      <path class="fil26" d="M7348 3830c0,7 -6,13 -13,13 -8,0 -14,-6 -14,-13 0,-8 6,-14 14,-14 7,0 13,6 13,14z"/>
      <path class="fil26" d="M7348 4010c0,8 -6,14 -13,14 -8,0 -14,-6 -14,-14 0,-7 6,-13 14,-13 7,0 13,6 13,13z"/>
      <path class="fil30 str0" d="M7347 3747l-32 0 -33 0 -24 59 25 29 32 0 31 0 25 -29 -24 -59z"/>
      <path class="fil4 str0" d="M7346 3835l-31 0 -32 0 -32 229 64 0 64 0 -33 -229z"/>
      <path class="fil2" d="M7109 3207l20 193c2,16 9,31 18,43l92 92c2,2 3,3 5,5 12,14 30,23 49,23l22 0 0 -564c-115,0 -224,83 -206,208z"/>
      <path class="fil3" d="M7520 3207l-20 193c-2,16 -8,31 -18,43l-92 92c-2,2 -3,3 -5,5 -12,14 -30,23 -49,23l-21 0 0 -564c114,0 223,83 205,208z"/>
      <path class="fil2" d="M7336 3563l-21 0 0 -564c105,0 207,72 207,181 0,9 -1,18 -2,27l-5 45c-2,0 -4,1 -7,2 -2,0 -4,1 -5,3 -2,1 -2,4 -2,6 -3,21 -7,43 -7,65 0,6 1,11 1,17 1,5 3,14 9,14 0,0 0,0 0,0l-4 41c-2,16 -8,31 -18,43l-33 33 -59 59c-1,1 -3,3 -4,4 0,0 0,1 -1,1 -12,14 -30,23 -49,23z"/>
      <path class="fil3" d="M7535 3250c4,0 7,1 9,3 1,2 2,3 3,5 4,11 5,23 3,34 -11,17 -24,33 -31,51 -3,5 -7,15 -14,16 -7,1 -9,-9 -10,-14 -2,-28 2,-55 6,-82 0,-2 0,-5 2,-6 1,-2 3,-3 5,-3 9,-3 18,-4 27,-4z"/>
      <path class="fil31 str0" d="M7504 3359c-6,0 -9,-9 -9,-14 0,-6 -1,-11 -1,-17 0,-22 4,-44 7,-65 0,-2 0,-5 2,-6 1,-2 3,-3 5,-3 7,-3 15,-4 22,-4 2,0 4,0 5,0 4,0 7,1 9,3 1,2 2,3 3,5 3,7 4,15 4,23 0,4 0,8 -1,11 -11,17 -24,33 -31,51 -3,5 -7,15 -14,16 0,0 0,0 -1,0z"/>
      <path class="fil3 str0" d="M7094 3250c-3,0 -6,1 -8,3 -2,2 -2,3 -3,5 -4,11 -5,23 -3,34 11,17 24,33 31,51 3,5 7,15 14,16 7,1 9,-9 10,-14 2,-28 -2,-55 -6,-82 0,-2 -1,-5 -2,-6 -1,-2 -3,-3 -5,-3 -9,-3 -18,-4 -28,-4z"/>
      <path class="fil32 str0" d="M7521 3052c-14,-42 -37,-87 -77,-100 -8,-3 -16,-2 -25,-1 -21,2 -44,2 -65,-5 -16,-7 -30,-18 -46,-25 -28,-14 -62,-14 -91,-2 -38,16 -60,50 -64,91 -29,0 -46,31 -54,55 -26,74 8,186 8,186l26 12c-1,-18 6,-84 13,-103 24,-75 109,-116 180,-78 31,16 114,101 143,38 1,-1 22,44 24,48 10,31 14,64 12,95l22 -12c5,-3 7,-29 8,-35 3,-15 4,-30 5,-44 0,-29 -3,-57 -9,-85 -3,-11 -6,-23 -10,-35z"/>
      <path class="fil33 str0" d="M7385 3540c2,-2 3,-3 5,-5l92 -92c10,-12 18,-48 20,-63l-32 5c0,0 21,1 -52,52 -72,51 -81,11 -81,11l-22 0 0 115 21 0c19,0 37,-9 49,-23z"/>
      <path class="fil33 str0" d="M7244 3540c-2,-2 -3,-3 -5,-5l-92 -92c-9,-12 -16,-27 -18,-43l6 -55c0,0 3,41 76,92 72,51 81,11 81,11l23 0 0 115 -22 0c-19,0 -37,-9 -49,-23z"/>
      <path class="fil33 str0" d="M7391 3381c-5,-4 -12,-6 -19,-5l-115 0c-7,-1 -13,1 -19,5l-73 53 52 47 35 -64c5,-9 15,-15 25,-15l38 0 37 0c10,0 20,6 25,15l35 64 52 -47 -73 -53z"/>
      <g>
       <path class="fil9" d="M7241 3225c-6,0 -11,5 -11,11 0,6 5,11 11,11 6,0 11,-5 11,-11 0,-6 -5,-11 -11,-11zm144 0c-6,0 -11,5 -11,11 0,6 5,11 11,11 6,0 11,-5 11,-11 0,-6 -5,-11 -11,-11z"/>
       <path id="1" class="fil10" d="M7241 3236l-22 0 0 0 0 -1 0 -1 0 -1 1 -1 0 0 0 -1 0 -1 1 -1 0 -1 1 -1 0 -1 1 -1 0 -1 1 0 0 -1 1 -1 1 0 1 -1 0 -1 1 0 1 -1 1 -1 1 0 1 0 1 -1 1 0 1 -1 1 0 2 0 1 0 1 0 1 0 0 19 0 0 0 0 0 0 0 0 0 0 0 0 0 0 1 0 0 0 0 0 0 0 0 0 0 0 0 0 0 0 -1 0 0 0 0 0 0 0 0 0 0 0 0 0 0 1 0 0 0 0 0 0 0 0 0 0 0 0 0 0 0 0 0 0 0 0zm0 0c0,6 -5,10 -11,10 -6,0 -11,-4 -11,-10l22 0zm0 2l0 19 0 0 -1 0 -1 0 -1 0 -2 0 -1 -1 -1 0 -1 0 -1 -1 -1 0 -1 -1 -1 0 -1 -1 -1 0 0 -1 -1 -1 -1 0 -1 -1 0 -1 -1 -1 0 0 -1 -1 0 -1 -1 -1 0 -1 -1 -1 0 -1 0 -1 0 -1 -1 -1 0 -1 0 -1 0 -1 22 0 0 1 0 0 0 0 0 0 0 0 0 0 0 0 0 0 0 0 0 0 0 0 0 1 0 0 0 0 0 0 0 0 1 0 0 0 0 0 0 0 0 0 0 0 0 0 0 0 -1 0 0 0 0 0 0 0 0 0 0 0 0 0 0 0 0 0zm0 0c6,0 11,4 11,9 0,6 -5,10 -11,10l0 -19zm0 -2l22 0 0 0 0 1 0 1 0 1 0 1 -1 1 0 1 0 1 -1 1 0 1 0 1 -1 1 0 1 -1 0 -1 1 0 1 -1 1 -1 0 -1 1 0 1 -1 0 -1 1 -1 0 -1 1 -1 0 -1 1 -1 0 -1 0 -1 1 -1 0 -2 0 -1 0 -1 0 0 -19 0 0 0 0 0 0 0 0 0 0 0 0 0 0 0 0 0 0 0 0 0 0 0 0 0 0 0 0 0 0 0 0 0 0 0 0 0 0 0 0 0 -1 0 0 0 0 0 0 0 0 0 0 0 0 0 0 0 0 0 0 0 0 0 -1 0 0zm0 0c0,-5 5,-9 11,-9 6,0 11,4 11,9l-22 0zm0 -1l0 -19 0 0 1 0 1 0 2 0 1 0 1 0 1 1 1 0 1 1 1 0 1 0 1 1 1 1 1 0 0 1 1 0 1 1 1 1 0 1 1 0 1 1 0 1 1 1 0 1 0 1 1 1 0 1 0 1 1 0 0 1 0 1 0 1 0 1 -22 0 0 0 0 0 0 0 0 0 0 0 0 0 0 0 0 0 0 0 0 -1 0 0 0 0 0 0 0 0 0 0 0 0 0 0 0 0 0 0 0 0 0 0 0 0 0 0 0 0 0 0 0 0 0 0 0 0 0 0 0 0 0 0 0 0 0 0zm0 0c-6,0 -11,-4 -11,-10 0,-5 5,-9 11,-9l0 19zm144 1l-22 0 0 0 0 -1 0 -1 0 -1 1 -1 0 0 0 -1 0 -1 1 -1 0 -1 1 -1 0 -1 1 -1 0 -1 1 0 1 -1 0 -1 1 -1 1 0 1 -1 0 0 1 -1 1 -1 1 0 1 0 1 -1 1 0 1 -1 1 0 2 0 1 0 1 0 1 0 0 19 0 0 0 0 0 0 0 0 0 0 0 0 1 0 0 0 0 0 0 0 0 0 0 0 0 0 0 0 0 0 0 0 0 0 0 0 -1 0 0 0 0 0 0 0 0 1 0 0 0 0 0 0 0 0 0 0 0 0 0 0 0 0 0 0 0 0zm0 0c0,6 -5,10 -11,10 -6,0 -11,-4 -11,-10l22 0zm0 2l0 19 0 0 -1 0 -1 0 -1 0 -2 0 -1 -1 -1 0 -1 0 -1 -1 -1 0 -1 -1 -1 0 -1 -1 0 0 -1 -1 -1 -1 -1 0 -1 -1 0 -1 -1 -1 0 0 -1 -1 0 -1 -1 -1 0 -1 -1 -1 0 -1 0 -1 0 -1 -1 -1 0 -1 0 -1 0 -1 22 0 0 1 0 0 0 0 0 0 0 0 0 0 0 0 0 0 0 0 0 0 0 0 0 1 0 0 1 0 0 0 0 0 0 0 0 0 0 0 0 0 0 0 0 0 0 0 0 0 0 0 -1 0 0 0 0 0 0 0 0 0 0 0 0 0 0 0zm0 0c6,0 11,4 11,9 0,6 -5,10 -11,10l0 -19zm0 -2l22 0 0 0 0 1 0 1 0 1 0 1 -1 1 0 1 0 1 0 1 -1 1 0 1 -1 1 0 1 -1 0 -1 1 0 1 -1 1 -1 0 0 1 -1 1 -1 0 -1 1 -1 0 -1 1 -1 0 -1 1 -1 0 -1 0 -1 1 -1 0 -1 0 -2 0 -1 0 0 -19 0 0 0 0 0 0 0 0 0 0 0 0 0 0 0 0 0 0 0 0 0 0 0 0 0 0 0 0 0 0 0 0 0 0 0 0 0 0 0 0 0 -1 0 0 0 0 0 0 0 0 0 0 0 0 0 0 0 0 0 0 0 0 0 -1 0 0zm0 0c0,-5 5,-9 11,-9 6,0 11,4 11,9l-22 0zm0 -1l0 -19 0 0 1 0 2 0 1 0 1 0 1 0 1 1 1 0 1 1 1 0 1 0 1 1 1 1 1 0 1 1 0 1 1 0 1 1 0 1 1 0 1 1 0 1 1 1 0 1 1 1 0 1 0 1 0 1 1 0 0 1 0 1 0 1 0 1 -22 0 0 0 0 0 0 0 0 0 0 0 0 0 0 0 0 0 0 0 0 -1 0 0 0 0 0 0 0 0 0 0 0 0 0 0 0 0 0 0 0 0 0 0 0 0 0 0 0 0 0 0 0 0 0 0 0 0 0 0 0 0 0 0 0 0 0 0zm0 0c-6,0 -11,-4 -11,-10 0,-5 5,-9 11,-9l0 19z"/>
      </g>
     </g>
    </g>
    <g>
     <path class="fil34" d="M3254 4098c-14,0 -25,-8 -25,-17 0,-10 11,-18 25,-18l0 35zm4739 0l-4739 0 0 -35 4739 0 0 35zm0 -35c14,0 26,8 26,18 0,9 -12,17 -26,17l0 -35z"/>
    </g>
   </g>
   <g>
    <path class="fil35 str2" d="M2811 2366l0 -91c0,-3 1,-6 3,-8 2,-2 5,-2 7,-2 3,0 5,0 7,2 2,2 3,4 3,8l0 182c0,4 -1,6 -3,8 -1,2 -4,3 -7,3 -2,0 -5,-1 -7,-3 -2,-2 -3,-4 -3,-8l0 -71 -61 0c-11,0 -20,-4 -28,-12 -8,-7 -12,-17 -12,-28l0 -71c0,-3 1,-6 3,-8 2,-2 4,-2 7,-2 2,0 5,0 7,2 2,2 3,4 3,8l0 71c0,5 2,10 6,14 2,2 4,3 6,5 3,1 6,1 8,1l61 0zm183 91c0,4 -1,6 -3,8 -2,2 -4,3 -7,3 -3,0 -5,-1 -7,-3 -2,-2 -3,-4 -3,-8l0 -172 -33 0 -49 175c0,2 -1,4 -3,5 -2,2 -4,3 -7,3 -3,0 -5,-1 -7,-3 -2,-2 -3,-4 -3,-7 0,-2 0,-3 0,-3l51 -183c2,-5 5,-7 10,-7l51 0c7,0 10,3 10,10l0 182zm60 -111l51 0c3,0 6,1 8,3 2,2 3,4 3,7 0,2 -1,5 -3,7 -2,2 -4,3 -8,3l-51 0 0 81 72 0c3,0 5,1 7,3 2,3 3,5 3,7 0,3 -1,5 -3,7 -1,2 -4,4 -7,4l-82 0c-6,0 -10,-4 -10,-10l0 -183c0,-7 4,-10 10,-10l82 0c3,0 5,1 7,3 2,2 3,4 3,7 0,2 -1,4 -3,6 -1,3 -4,4 -7,4l-72 0 0 61zm224 0l0 -71c0,-3 1,-5 3,-7 2,-2 4,-3 7,-3 2,0 5,0 7,2 2,2 3,4 3,8l0 182c0,3 -1,6 -3,8 -3,2 -5,3 -7,3 -3,0 -5,-1 -7,-3 -2,-2 -3,-4 -3,-7l0 -92 -82 0 0 91c0,4 0,6 -2,8 -2,2 -5,3 -8,3 -2,0 -5,-1 -7,-3 -2,-2 -3,-4 -3,-8l0 -182c0,-3 1,-5 3,-8 2,-1 5,-2 7,-2 3,0 5,1 7,2 2,2 3,4 3,8l0 71 82 0zm203 111c0,4 -1,6 -3,8 -2,2 -4,3 -7,3 -3,0 -5,-1 -7,-3 -2,-2 -3,-4 -3,-8l0 -182c0,-3 1,-6 3,-8 2,-2 4,-2 7,-2 2,0 5,0 7,2 2,2 3,4 3,8l0 182zm-122 -91l0 81 41 0c5,0 10,-2 14,-5 4,-4 6,-9 6,-15l0 -41c0,-5 -2,-10 -6,-14 -4,-4 -8,-6 -14,-6l-41 0zm0 -20l40 0c12,0 21,4 29,12 8,8 12,17 12,28l0 41c0,11 -4,21 -12,29 -8,8 -17,12 -28,12l-51 0c-7,0 -10,-4 -10,-11l0 -182c0,-3 1,-6 3,-8 2,-2 4,-2 7,-2 2,0 5,0 7,2 2,2 3,4 3,8l0 71zm406 81c0,11 -4,21 -12,29 -8,8 -18,12 -29,12l-40 0c-11,0 -21,-4 -29,-12 -8,-8 -12,-18 -12,-29l0 -122c0,-11 4,-21 12,-29 8,-8 17,-11 29,-11l40 0c11,0 21,3 29,11 8,8 12,18 12,29l0 122zm-20 0l0 -122c0,-6 -2,-11 -6,-14 -4,-4 -9,-6 -15,-6l-40 0c-6,0 -11,2 -15,5 -2,2 -3,5 -4,7 -1,3 -2,5 -2,8l0 122c0,6 2,11 6,15 2,1 4,3 7,4 2,1 5,1 8,1l40 0c6,0 11,-2 15,-5 4,-4 6,-9 6,-15zm97 -75l85 -85c2,-2 5,-2 7,-2 3,0 5,1 7,3 3,2 4,4 4,7 0,2 -1,4 -3,7l-61 60 62 110 2 6c0,2 -1,5 -3,6 -3,3 -5,4 -8,4 -3,0 -6,-2 -8,-6l-60 -106 -24 24 0 77c0,4 -1,6 -3,8 -2,2 -4,3 -7,3 -3,0 -5,-1 -7,-3 -2,-2 -3,-4 -3,-8l0 -183c0,-2 1,-5 3,-7 2,-1 4,-2 7,-2 2,0 5,0 7,2 2,2 3,4 3,7l0 78zm162 14l61 0c6,0 10,-2 14,-6 4,-3 6,-8 6,-14l0 -41c0,-6 -2,-11 -5,-14 -4,-4 -9,-6 -15,-6l-61 0 0 81zm0 20l0 71c0,4 -1,6 -3,8 -2,2 -4,3 -7,3 -3,0 -5,-1 -7,-3 -2,-2 -3,-4 -3,-8l0 -182c0,-7 3,-10 10,-10l71 0c11,0 21,3 29,11 8,8 12,18 12,29l0 41c0,11 -4,20 -12,28 -8,8 -18,12 -29,12l-61 0zm244 0l-61 0c-11,0 -21,-4 -29,-12 -8,-7 -12,-17 -12,-28l0 -71c0,-3 1,-6 3,-8 2,-2 5,-2 7,-2 3,0 5,0 7,2 2,2 3,4 3,8l0 71c0,5 2,10 6,14 2,2 4,3 7,5 3,1 5,1 8,1l61 0 0 -91c0,-3 1,-6 3,-8 2,-2 4,-2 7,-2 2,0 5,0 7,2 2,2 3,4 3,8l0 152c0,11 -4,21 -12,29 -8,8 -17,12 -29,12l-50 0c-3,0 -6,-1 -8,-3 -2,-2 -3,-5 -3,-8 0,-2 1,-4 3,-6 2,-3 4,-4 8,-4l50 0c6,0 11,-2 15,-5 4,-4 6,-9 6,-15l0 -41zm152 -42l53 -75c0,-1 1,-2 3,-3 2,-1 3,-1 5,-1 2,0 5,1 7,3 2,2 3,4 3,7 0,2 0,4 -2,6l-53 75 54 96c1,2 1,4 1,6 0,2 -1,4 -3,6 -2,3 -5,4 -8,4 -3,0 -5,-2 -8,-6l-52 -93 0 88c0,4 -1,6 -3,8 -2,2 -4,3 -7,3 -3,0 -5,-1 -7,-3 -2,-2 -3,-4 -3,-8l0 -87 -52 92c-1,2 -2,3 -4,4l-2 1 -3 1c-3,0 -5,-1 -7,-3 -2,-2 -3,-5 -3,-7 0,-2 0,-3 1,-6l54 -95 -53 -76c-1,-1 -2,-3 -2,-6 0,-3 1,-5 3,-7 2,-2 4,-3 7,-3 3,0 6,1 8,4l53 75 0 -69c0,-3 1,-6 3,-8 2,-2 4,-2 7,-2 2,0 5,0 7,2 2,2 3,4 3,8l0 69zm213 2l0 -71c0,-3 1,-5 3,-7 2,-2 4,-3 7,-3 3,0 5,0 7,2 2,2 3,4 3,8l0 182c0,3 -1,6 -3,8 -2,2 -5,3 -7,3 -3,0 -5,-1 -7,-3 -2,-2 -3,-4 -3,-7l0 -92 -81 0 0 91c0,4 -1,6 -3,8 -2,2 -4,3 -7,3 -3,0 -5,-1 -7,-3 -3,-2 -4,-4 -4,-8l0 -182c0,-3 1,-5 4,-8 2,-1 4,-2 7,-2 2,0 5,1 7,2 2,2 3,4 3,8l0 71 81 0zm183 81c0,11 -4,21 -12,29 -8,8 -18,12 -29,12l-41 0c-11,0 -20,-4 -28,-12 -8,-8 -12,-18 -12,-29l0 -122c0,-11 4,-21 12,-29 8,-8 17,-11 28,-11l41 0c11,0 21,3 29,11 8,8 12,18 12,29l0 122zm-21 0l0 -122c0,-6 -2,-11 -5,-14 -4,-4 -9,-6 -15,-6l-41 0c-5,0 -10,2 -14,5 -2,2 -4,5 -5,7 -1,3 -1,5 -1,8l0 122c0,6 2,11 6,15 2,1 4,3 6,4 3,1 6,1 8,1l41 0c6,0 10,-2 14,-5 4,-4 6,-9 6,-15zm159 -183l-41 0c-3,0 -6,-1 -8,-2 -1,-3 -2,-5 -2,-8 0,-2 1,-4 2,-7 2,-2 5,-3 8,-3l41 0c2,0 5,1 7,3 2,2 3,5 3,7 0,3 -1,5 -3,7 -2,2 -4,3 -7,3zm40 213c0,4 -1,6 -3,8 -2,2 -4,3 -7,3 -3,0 -5,-1 -7,-3 -2,-2 -3,-4 -3,-8l0 -143 -82 148c-2,2 -3,4 -5,5l-2 1c-1,1 -2,1 -3,1 -2,0 -4,-1 -7,-3 -2,-2 -3,-5 -3,-8l0 -183c0,-3 1,-5 3,-8 2,-1 5,-2 7,-2 3,0 5,1 7,2 3,2 4,4 4,8l0 143 82 -148c1,-2 2,-3 4,-5 2,-1 4,-2 6,-2 2,0 4,1 6,3 2,2 3,5 3,9l0 182zm284 0c0,4 -1,6 -3,8 -2,2 -4,3 -7,3 -3,0 -5,-1 -7,-3 -2,-2 -3,-4 -3,-8l0 -143 -82 148c-2,2 -3,4 -5,5l-2 1c-1,1 -2,1 -3,1 -2,0 -4,-1 -7,-3 -2,-2 -3,-5 -3,-8l0 -183c0,-3 1,-5 3,-8 3,-1 5,-2 8,-2 2,0 4,1 7,2 2,2 3,4 3,8l0 143 82 -148c1,-2 2,-3 4,-5 2,-1 4,-2 6,-2 2,0 4,1 6,3 2,2 3,5 3,9l0 182zm102 -91l-31 0c-3,0 -5,-1 -7,-3 -2,-2 -3,-4 -3,-7 0,-2 1,-5 3,-7 2,-2 4,-3 7,-3l31 0c5,0 10,-2 14,-6 4,-4 6,-8 6,-15l0 -20c0,-6 -2,-10 -6,-14 -3,-4 -8,-6 -14,-6l-20 0c-5,0 -9,1 -12,3 -4,3 -6,6 -8,11 0,2 -1,3 -3,5 -1,0 -2,1 -3,1l-3 1c-3,0 -5,-1 -8,-3 -2,-2 -3,-4 -3,-7l1 -4c3,-8 7,-15 15,-20 7,-5 15,-7 23,-7l21 0c11,0 21,3 28,11 8,8 12,18 12,29l0 20c0,6 -1,12 -3,17 -3,6 -6,10 -10,14 9,8 13,18 13,30l0 41c0,11 -4,21 -12,29 -7,8 -17,12 -28,12l-21 0c-8,0 -16,-3 -23,-8 -7,-5 -12,-12 -15,-20l-1 -4c0,-3 1,-5 3,-7 2,-2 5,-3 8,-3 4,0 7,2 9,7 1,4 4,7 7,11 4,2 8,3 13,3l20 0c5,0 10,-2 14,-5 4,-4 6,-9 6,-15l0 -41c0,-6 -1,-10 -5,-14 -3,-4 -8,-6 -15,-6zm101 0l0 81 61 0c6,0 10,-2 14,-5 4,-4 6,-9 6,-15l0 -41c0,-5 -2,-10 -5,-14 -4,-4 -9,-6 -15,-6l-61 0zm0 -20l61 0c11,0 20,4 29,12 8,8 12,17 12,28l0 41c0,11 -4,21 -12,29 -8,8 -18,12 -29,12l-71 0c-7,0 -10,-4 -10,-11l0 -182c0,-7 3,-10 10,-10l81 0c3,0 5,1 7,3 2,2 3,4 3,7 0,2 -1,4 -2,6 -2,3 -4,4 -8,4l-71 0 0 61zm264 111c0,4 -1,6 -3,8 -2,2 -4,3 -7,3 -3,0 -5,-1 -7,-3 -2,-2 -3,-4 -3,-8l0 -143 -83 148c-1,2 -2,4 -4,5l-2 1c-1,1 -2,1 -4,1 -1,0 -4,-1 -6,-3 -2,-2 -3,-5 -3,-8l0 -183c0,-3 1,-5 3,-8 2,-1 5,-2 7,-2 3,0 5,1 7,2 2,2 3,4 3,8l0 143 83 -148c1,-2 2,-3 4,-5 2,-1 4,-2 6,-2 2,0 4,1 6,3 2,2 3,5 3,9l0 182zm61 -91l61 0c5,0 10,-2 14,-6 4,-3 6,-8 6,-14l0 -41c0,-6 -2,-11 -6,-14 -4,-4 -8,-6 -14,-6l-61 0 0 81zm0 20l0 71c0,4 -1,6 -3,8 -2,2 -4,3 -7,3 -3,0 -5,-1 -7,-3 -3,-2 -4,-4 -4,-8l0 -182c0,-7 4,-10 11,-10l71 0c11,0 21,3 28,11 8,8 12,18 12,29l0 41c0,11 -4,20 -12,28 -8,8 -17,12 -28,12l-61 0zm157 31l-14 44c-1,2 -3,3 -4,5 -2,1 -3,1 -6,2 -2,0 -5,-1 -7,-3 -2,-2 -3,-4 -3,-7l1 -4 61 -183c2,-5 5,-8 9,-8 4,0 8,3 10,8l60 183 1 4c0,2 -1,5 -3,7 -2,2 -5,3 -7,3 -2,0 -3,-1 -5,-1 -2,-1 -3,-3 -5,-6l-14 -44 -74 0zm67 -21l-30 -89 -30 89 60 0zm90 -111l-40 0c-3,0 -6,-1 -8,-3 -2,-2 -2,-5 -2,-7 0,-3 0,-5 2,-7 2,-2 4,-3 8,-3l101 0c3,0 5,1 7,3 2,2 3,4 3,7 0,2 -1,4 -2,6 -2,3 -4,4 -8,4l-40 0 0 172c0,4 -1,6 -3,8 -2,2 -5,3 -8,3 -2,0 -5,-1 -7,-3 -2,-2 -3,-4 -3,-8l0 -172zm132 61l51 0c3,0 5,1 7,3 2,2 3,4 3,7 0,2 -1,5 -2,7 -2,2 -4,3 -8,3l-51 0 0 81 71 0c3,0 6,1 8,3 2,3 3,5 3,7 0,3 -1,5 -3,7 -2,2 -4,4 -8,4l-81 0c-7,0 -10,-4 -10,-10l0 -183c0,-7 3,-10 10,-10l81 0c3,0 6,1 8,3 2,2 3,4 3,7 0,2 -1,4 -3,6 -2,3 -4,4 -8,4l-71 0 0 61zm244 111c0,4 -1,6 -3,8 -2,2 -4,3 -7,3 -3,0 -5,-1 -7,-3 -2,-2 -3,-4 -3,-8l0 -172 -33 0 -49 175c0,2 -1,4 -3,5 -2,2 -4,3 -7,3 -3,0 -5,-1 -7,-3 -2,-2 -3,-4 -3,-7 0,-2 0,-3 0,-3l51 -183c2,-5 5,-7 10,-7l51 0c7,0 10,3 10,10l0 182zm60 -91l61 0c6,0 11,2 15,6 4,4 6,9 6,14l0 41c0,6 -2,11 -6,15 -2,2 -4,3 -7,4 -2,1 -5,1 -8,1l-61 0 0 -81zm0 -20l0 -71c0,-3 -1,-5 -3,-7 -2,-2 -4,-3 -7,-3 -2,0 -4,0 -6,2 -3,2 -4,4 -4,8l0 182c0,7 4,11 10,11l71 0c11,0 21,-4 29,-12 8,-8 12,-18 12,-29l0 -41c0,-11 -4,-20 -12,-28 -8,-8 -17,-12 -29,-12l-61 0zm244 0l0 -71c0,-3 1,-5 3,-7 2,-2 5,-3 7,-3 3,0 5,0 7,2 2,2 3,4 3,8l0 182c0,3 -1,6 -3,8 -2,2 -5,3 -7,3 -2,0 -5,-1 -7,-3 -2,-2 -3,-4 -3,-7l0 -92 -81 0 0 91c0,4 -1,6 -3,8 -2,2 -4,3 -7,3 -3,0 -5,-1 -7,-3 -2,-2 -3,-4 -3,-8l0 -182c0,-3 1,-5 3,-8 2,-1 4,-2 7,-2 2,0 5,1 7,2 2,2 3,4 3,8l0 71 81 0zm183 81c0,11 -4,21 -12,29 -8,8 -18,12 -29,12l-41 0c-11,0 -20,-4 -28,-12 -8,-8 -12,-18 -12,-29l0 -122c0,-11 4,-21 12,-29 8,-8 17,-11 28,-11l41 0c11,0 21,3 29,11 8,8 12,18 12,29l0 122zm-21 0l0 -122c0,-6 -1,-11 -5,-14 -4,-4 -9,-6 -15,-6l-41 0c-5,0 -10,2 -14,5 -2,2 -3,5 -4,7 -1,3 -2,5 -2,8l0 122c0,6 2,11 6,15 2,1 4,3 6,4 3,1 6,1 8,1l41 0c6,0 11,-2 15,-5 3,-4 5,-9 5,-15zm159 -183l-41 0c-3,0 -6,-1 -7,-2 -2,-3 -3,-5 -3,-8 0,-2 1,-4 2,-7 2,-2 5,-3 8,-3l41 0c2,0 5,1 7,3 2,2 3,5 3,7 0,3 -1,5 -3,7 -1,2 -4,3 -7,3zm40 213c0,4 -1,6 -3,8 -2,2 -4,3 -7,3 -3,0 -5,-1 -7,-3 -2,-2 -3,-4 -3,-8l0 -143 -82 148c-2,2 -3,4 -5,5l-2 1c-1,1 -2,1 -3,1 -2,0 -4,-1 -7,-3 -2,-2 -3,-5 -3,-8l0 -183c0,-3 1,-5 3,-8 3,-1 5,-2 8,-2 2,0 5,1 7,2 2,2 3,4 3,8l0 143 82 -148c1,-2 2,-3 4,-5 2,-1 4,-2 6,-2 2,0 4,1 6,3 2,2 3,5 3,9l0 182zm183 -105l85 -85c2,-2 5,-2 7,-2 3,0 5,1 7,3 3,2 4,4 4,7 0,2 -1,4 -3,7l-61 60 62 110 2 6c0,2 -1,5 -3,6 -2,3 -5,4 -8,4 -3,0 -6,-2 -8,-6l-60 -106 -24 24 0 77c0,4 -1,6 -3,8 -2,2 -4,3 -7,3 -3,0 -5,-1 -7,-3 -2,-2 -3,-4 -3,-8l0 -183c0,-2 1,-5 3,-7 2,-1 4,-2 7,-2 2,0 5,0 7,2 2,2 3,4 3,7l0 78zm253 75c0,11 -4,21 -12,29 -7,8 -17,12 -28,12l-41 0c-11,0 -20,-4 -28,-12 -8,-8 -12,-18 -12,-29l0 -122c0,-11 4,-21 11,-29 8,-8 18,-11 29,-11l41 0c11,0 21,3 28,11 8,8 12,18 12,29l0 122zm-20 0l0 -122c0,-6 -2,-11 -6,-14 -3,-4 -8,-6 -14,-6l-41 0c-6,0 -10,2 -14,5 -2,2 -4,5 -5,7 -1,3 -1,5 -1,8l0 122c0,6 2,11 6,15 2,1 4,3 6,4 3,1 6,1 8,1l41 0c5,0 10,-2 14,-5 4,-4 6,-9 6,-15zm219 30c0,4 -1,6 -2,8 -2,2 -5,3 -8,3 -2,0 -4,-1 -7,-3 -2,-2 -3,-4 -3,-8l0 -144 -42 70c-2,4 -5,6 -9,6 -3,0 -5,-2 -8,-6l-43 -70 0 144c0,4 -1,6 -3,8 -1,2 -4,3 -7,3 -2,0 -5,-1 -7,-3 -2,-2 -3,-4 -3,-8l0 -181c0,-4 1,-7 3,-9 2,-2 4,-3 6,-3 2,0 4,0 5,1 2,1 3,3 5,5l52 87 53 -87c2,-4 5,-6 9,-6 3,0 5,1 7,3 1,2 2,5 2,9l0 181z"/>
    <path class="fil35 str2" d="M7938 2457c0,4 0,6 -2,8 -2,2 -5,3 -8,3 -2,0 -5,-1 -7,-3 -2,-2 -3,-4 -3,-8l0 -143 -82 148c-1,2 -3,4 -5,5l-2 1c0,1 -1,1 -3,1 -2,0 -4,-1 -7,-3 -1,-2 -2,-5 -2,-8l0 -183c0,-3 1,-5 3,-8 2,-1 4,-2 7,-2 2,0 5,1 7,2 2,2 3,4 3,8l0 143 82 -148c1,-2 3,-3 5,-5 2,-1 3,-2 5,-2 2,0 4,1 6,3 2,2 3,5 3,9l0 182zm133 11l-51 0c-11,0 -21,-4 -29,-12 -8,-8 -12,-18 -12,-29l0 -122c0,-11 4,-21 12,-29 8,-8 17,-11 29,-11l51 0c2,0 5,1 7,3 2,2 3,4 3,7 0,2 -1,4 -3,6 -2,3 -4,4 -8,4l-50 0c-6,0 -11,2 -15,5 -2,2 -3,5 -4,7 -1,3 -2,5 -2,8l0 122c0,6 2,11 6,15 2,1 4,3 7,4 3,1 5,1 8,1l50 0c3,0 6,1 8,3 2,3 3,5 3,7 0,3 -1,5 -3,7 -2,2 -4,4 -7,4zm132 0l-50 0c-11,0 -21,-4 -29,-12 -8,-8 -12,-18 -12,-29l0 -122c0,-11 4,-21 12,-29 8,-8 17,-11 29,-11l50 0c3,0 6,1 8,3 2,2 3,4 3,7 0,2 -1,4 -3,6 -2,3 -4,4 -8,4l-50 0c-6,0 -11,2 -15,5 -2,2 -3,5 -4,7 -1,3 -2,5 -2,8l0 122c0,6 2,11 6,15 2,1 4,3 7,4 2,1 5,1 8,1l50 0c3,0 6,1 8,3 2,3 3,5 3,7 0,3 -1,5 -3,7 -2,2 -4,4 -8,4zm173 -11c0,4 -1,6 -3,8 -2,2 -4,3 -7,3 -3,0 -5,-1 -7,-3 -2,-2 -3,-4 -3,-8l0 -143 -83 148c-1,2 -2,4 -4,5l-2 1c-1,1 -2,1 -4,1 -2,0 -4,-1 -6,-3 -2,-2 -3,-5 -3,-8l0 -183c0,-3 1,-5 3,-8 2,-1 4,-2 7,-2 3,0 5,1 7,2 2,2 3,4 3,8l0 143 83 -148c1,-2 2,-3 4,-5 2,-1 4,-2 5,-2 3,0 5,1 7,3 2,2 3,5 3,9l0 182zm162 0c0,4 -1,6 -3,8 -2,2 -4,3 -7,3 -3,0 -5,-1 -7,-3 -2,-2 -3,-4 -3,-8l0 -143 -82 148c-2,2 -3,4 -5,5l-2 1c-1,1 -2,1 -3,1 -2,0 -4,-1 -7,-3 -2,-2 -3,-5 -3,-8l0 -183c0,-3 1,-5 3,-8 2,-1 5,-2 7,-2 3,0 5,1 7,2 3,2 4,4 4,8l0 143 82 -148c1,-2 2,-3 4,-5 2,-1 4,-2 6,-2 2,0 4,1 6,3 2,2 3,5 3,9l0 182z"/>
   </g>
   <path class="fil35 str2" d="M3724 4855l-51 0c-11,0 -20,-4 -28,-12 -8,-8 -12,-18 -12,-29l0 -122c0,-11 4,-21 11,-28 8,-8 18,-12 29,-12l51 0c3,0 5,1 7,3 2,2 3,4 3,7 0,2 -1,4 -2,7 -2,2 -5,3 -8,3l-51 0c-6,0 -10,2 -14,6 -2,2 -4,4 -5,6 -1,3 -1,5 -1,8l0 122c0,6 2,11 6,15 2,1 4,3 6,4 3,1 6,2 8,2l51 0c3,0 5,1 7,3 2,2 3,4 3,7 0,2 -1,4 -2,6 -2,3 -5,4 -8,4zm294 -10c0,3 -1,5 -3,7 -2,2 -4,3 -7,3 -3,0 -5,-1 -7,-3 -2,-2 -3,-4 -3,-7l0 -173 -81 0 0 173c0,3 -1,5 -3,7 -2,2 -5,3 -8,3 -2,0 -5,-1 -7,-3 -2,-1 -3,-4 -3,-7l0 -183c0,-7 4,-10 11,-10l101 0c7,0 10,3 10,10l0 183zm61 -92l61 0c6,0 10,-2 14,-5 4,-4 6,-9 6,-15l0 -41c0,-6 -2,-10 -5,-14 -4,-4 -9,-6 -15,-6l-61 0 0 81zm0 20l0 72c0,3 -1,5 -3,7 -2,2 -4,3 -7,3 -3,0 -5,-1 -7,-3 -2,-1 -3,-4 -3,-7l0 -183c0,-7 3,-10 10,-10l71 0c11,0 21,4 29,12 7,7 11,17 11,28l0 41c0,11 -4,20 -11,28 -8,8 -18,12 -29,12l-61 0zm157 31l-14 44c-1,2 -2,4 -4,5 -1,1 -3,1 -6,2 -2,0 -5,-1 -7,-3 -2,-2 -3,-4 -3,-7l1 -4 61 -182c2,-6 5,-9 9,-9 5,0 8,3 10,9l61 182 0 4c0,3 -1,5 -3,7 -2,2 -4,3 -7,3 -1,0 -3,-1 -5,-1 -1,-1 -3,-3 -4,-6l-15 -44 -74 0zm67 -21l-30 -89 -30 89 60 0zm183 -44c6,3 10,8 14,15 3,6 5,12 5,20l0 40c0,11 -4,21 -12,29 -8,8 -17,12 -28,12l-71 0c-7,0 -11,-4 -11,-10l0 -183c0,-7 4,-10 11,-10l60 0c12,0 21,4 29,12 8,8 12,17 12,28l0 21c0,4 -1,9 -2,13 -2,4 -4,9 -7,13zm-82 14l0 82 61 0c5,0 10,-2 14,-6 4,-4 6,-9 6,-15l0 -40c0,-6 -2,-11 -6,-15 -4,-4 -9,-6 -14,-6l-61 0zm50 -20c6,0 11,-2 15,-6 4,-3 6,-8 6,-14l0 -21c0,-5 -2,-10 -6,-14 -4,-4 -9,-6 -15,-6l-50 0 0 61 50 0zm213 81c0,11 -4,21 -11,29 -8,8 -18,12 -29,12l-41 0c-11,0 -20,-4 -28,-12 -8,-8 -12,-18 -12,-29l0 -122c0,-11 4,-21 12,-28 7,-8 17,-12 28,-12l41 0c11,0 21,4 29,12 7,8 11,17 11,28l0 122zm-20 0l0 -122c0,-6 -2,-10 -6,-14 -3,-4 -8,-6 -14,-6l-41 0c-5,0 -10,2 -14,6 -2,2 -4,4 -5,6 -1,3 -1,5 -1,8l0 122c0,6 2,11 6,15 2,1 4,3 6,4 3,1 6,2 8,2l41 0c6,0 10,-2 14,-6 4,-4 6,-9 6,-15zm219 31c0,3 0,5 -2,7 -2,2 -5,3 -8,3 -2,0 -4,-1 -6,-3 -3,-2 -4,-4 -4,-7l0 -145 -42 70c-2,4 -5,6 -9,6 -2,0 -5,-2 -8,-6l-43 -70 0 145c0,3 0,5 -2,7 -2,2 -5,3 -8,3 -2,0 -5,-1 -7,-3 -2,-1 -3,-4 -3,-7l0 -182c0,-4 1,-7 3,-9 2,-2 4,-3 7,-3 1,0 3,1 4,2 2,1 3,2 5,5l52 87 53 -87c2,-5 5,-7 9,-7 3,0 5,1 7,3 2,2 2,5 2,9l0 182zm183 -92l61 0c5,0 10,-2 14,-5 4,-4 6,-9 6,-15l0 -41c0,-6 -2,-10 -6,-14 -3,-4 -8,-6 -14,-6l-61 0 0 81zm0 20l0 72c0,3 -1,5 -3,7 -2,2 -4,3 -7,3 -3,0 -5,-1 -7,-3 -2,-1 -3,-4 -3,-7l0 -183c0,-7 3,-10 10,-10l71 0c11,0 21,4 29,12 7,7 11,17 11,28l0 41c0,11 -4,20 -12,28 -8,8 -17,12 -28,12l-61 0zm162 -40l51 0c3,0 5,1 7,3 2,2 3,5 3,7 0,3 0,5 -2,7 -2,2 -4,3 -8,3l-51 0 0 82 71 0c3,0 6,1 8,3 2,2 3,4 3,7 0,2 -1,4 -3,6 -2,3 -4,4 -7,4l-82 0c-7,0 -10,-3 -10,-10l0 -183c0,-7 3,-10 10,-10l82 0c2,0 5,1 7,3 2,2 3,4 3,7 0,2 -1,4 -3,7 -2,2 -4,3 -8,3l-71 0 0 61zm213 102l51 0 0 -173c0,-3 1,-5 3,-8 2,-1 4,-2 7,-2 3,0 5,1 7,2 2,2 3,4 3,8l0 183c0,6 -3,10 -10,10l-142 0c-7,0 -10,-4 -10,-10l0 -183c0,-3 1,-5 3,-8 2,-1 4,-2 7,-2 3,0 5,1 7,2 2,2 3,4 3,8l0 173 51 0 0 -173c0,-3 1,-5 3,-8 2,-1 4,-2 7,-2 3,0 5,1 7,2 2,2 3,4 3,8l0 173zm148 -31l-15 44c-1,2 -2,4 -4,5 -1,1 -3,1 -5,2 -3,0 -5,-1 -7,-3 -3,-2 -4,-4 -4,-7l1 -4 61 -182c2,-6 5,-9 10,-9 4,0 7,3 9,9l61 182 1 4c0,3 -2,5 -4,7 -2,2 -4,3 -7,3 -1,0 -3,-1 -4,-1 -2,-1 -4,-3 -5,-6l-15 -44 -73 0zm66 -21l-29 -89 -30 89 59 0zm203 31l0 -122c0,-6 -2,-10 -6,-14 -4,-4 -9,-6 -15,-6l-20 0c-6,0 -11,2 -15,6 -2,2 -3,4 -4,6 -1,3 -2,5 -2,8l0 122c0,6 2,11 6,15 2,1 4,3 7,4 3,1 5,2 8,2l20 0c6,0 11,-2 15,-6 4,-4 6,-9 6,-15zm-102 -81l20 0 0 -41c0,-11 4,-21 12,-28 8,-8 18,-12 29,-12l20 0c11,0 21,4 29,12 8,8 12,17 12,28l0 122c0,11 -4,21 -12,29 -8,8 -18,12 -29,12l-20 0c-11,0 -21,-4 -29,-12 -8,-8 -12,-18 -12,-29l0 -61 -20 0 0 92c0,3 -1,5 -3,7 -2,2 -4,3 -7,3 -3,0 -5,-1 -7,-3 -2,-1 -3,-4 -3,-7l0 -183c0,-3 1,-5 3,-8 2,-1 4,-2 7,-2 2,0 5,1 7,2 2,2 3,4 3,8l0 71zm325 122l-11 0 -142 0c-6,0 -10,-4 -10,-10l0 -183c0,-3 1,-5 3,-8 2,-1 5,-2 7,-2 3,0 5,1 7,2 2,2 3,4 3,8l0 173 51 0 0 -173c0,-3 1,-5 3,-8 2,-1 5,-2 7,-2 3,0 5,1 7,2 2,2 3,4 3,8l0 173 51 0 0 -173c0,-3 1,-5 3,-8 2,-1 5,-2 7,-2 3,0 5,1 8,2 2,2 3,4 3,8l0 173 10 0c6,0 10,3 10,10l0 30c0,3 -1,5 -3,7 -2,2 -5,3 -7,3 -3,0 -5,-1 -7,-2 -2,-2 -3,-4 -3,-8l0 -20zm81 -122l51 0c2,0 5,1 7,3 2,2 3,5 3,7 0,3 -1,5 -3,7 -1,2 -4,3 -7,3l-51 0 0 82 71 0c3,0 5,1 7,3 2,2 3,4 3,7 0,2 -1,4 -2,6 -2,3 -5,4 -8,4l-81 0c-7,0 -11,-3 -11,-10l0 -183c0,-7 4,-10 11,-10l81 0c3,0 5,1 7,3 2,2 3,4 3,7 0,2 -1,4 -2,7 -2,2 -5,3 -8,3l-71 0 0 61zm213 -61l-71 0 0 173c0,3 -1,5 -3,7 -2,2 -4,3 -7,3 -3,0 -6,-1 -8,-3 -2,-1 -3,-4 -3,-7l0 -183c0,-7 4,-10 11,-10l81 0c3,0 5,1 7,3 2,2 3,4 3,7 0,2 -1,4 -3,7 -1,2 -4,3 -7,3zm162 142c0,11 -4,21 -12,29 -8,8 -17,12 -29,12l-40 0c-11,0 -21,-4 -29,-12 -8,-8 -12,-18 -12,-29l0 -122c0,-11 4,-21 12,-28 8,-8 17,-12 29,-12l40 0c12,0 21,4 29,12 8,8 12,17 12,28l0 122zm-20 0l0 -122c0,-6 -2,-10 -6,-14 -4,-4 -9,-6 -15,-6l-40 0c-6,0 -11,2 -15,6 -2,2 -3,4 -4,6 -1,3 -2,5 -2,8l0 122c0,6 2,11 6,15 2,1 4,3 7,4 3,1 5,2 8,2l40 0c6,0 11,-2 15,-6 4,-4 6,-9 6,-15zm290 -142l-71 0 0 173c0,3 -1,5 -3,7 -2,2 -4,3 -7,3 -3,0 -5,-1 -7,-3 -2,-1 -3,-4 -3,-7l0 -183c0,-7 3,-10 10,-10l81 0c3,0 5,1 7,3 2,2 3,4 3,7 0,2 -1,4 -2,7 -2,2 -5,3 -8,3zm162 142c0,11 -4,21 -12,29 -8,8 -17,12 -29,12l-40 0c-11,0 -21,-4 -29,-12 -8,-8 -12,-18 -12,-29l0 -122c0,-11 4,-21 12,-28 8,-8 18,-12 29,-12l40 0c12,0 21,4 29,12 8,8 12,17 12,28l0 122zm-20 0l0 -122c0,-6 -2,-10 -6,-14 -4,-4 -9,-6 -15,-6l-40 0c-6,0 -11,2 -15,6 -2,2 -3,4 -4,6 -1,3 -2,5 -2,8l0 122c0,6 2,11 6,15 2,1 4,3 7,4 3,1 5,2 8,2l40 0c6,0 11,-2 15,-6 4,-4 6,-9 6,-15zm179 31c0,3 -1,5 -3,7 -2,2 -5,3 -8,3 -2,0 -5,-1 -7,-3 -2,-2 -3,-4 -3,-7l0 -173 -33 0 -48 175c-1,2 -2,4 -4,5 -2,2 -4,3 -6,3 -3,0 -6,-1 -7,-3 -2,-1 -3,-4 -3,-7 0,-1 0,-2 0,-3l51 -183c1,-5 5,-7 10,-7l50 0c7,0 11,3 11,10l0 183zm162 -31c0,11 -4,21 -12,29 -8,8 -18,12 -29,12l-41 0c-11,0 -20,-4 -28,-12 -8,-8 -12,-18 -12,-29l0 -122c0,-11 4,-21 12,-28 8,-8 17,-12 28,-12l41 0c11,0 21,4 29,12 8,8 12,17 12,28l0 122zm-21 0l0 -122c0,-6 -2,-10 -5,-14 -4,-4 -9,-6 -15,-6l-41 0c-5,0 -10,2 -14,6 -2,2 -4,4 -5,6 0,3 -1,5 -1,8l0 122c0,6 2,11 6,15 2,1 4,3 6,4 3,1 6,2 8,2l41 0c6,0 10,-2 14,-6 4,-4 6,-9 6,-15zm169 41l-51 0c-11,0 -21,-4 -29,-12 -8,-8 -12,-18 -12,-29l0 -122c0,-11 4,-21 12,-28 8,-8 18,-12 29,-12l51 0c3,0 5,1 7,3 2,2 3,4 3,7 0,2 -1,4 -3,7 -1,2 -4,3 -7,3l-51 0c-6,0 -11,2 -15,6 -2,2 -3,4 -4,6 -1,3 -1,5 -1,8l0 122c0,6 2,11 5,15 2,1 5,3 7,4 3,1 6,2 8,2l51 0c3,0 5,1 7,3 2,2 3,4 3,7 0,2 -1,4 -3,6 -1,3 -4,4 -7,4zm86 -51l-15 44c0,2 -2,4 -3,5 -2,1 -4,1 -6,2 -3,0 -5,-1 -7,-3 -2,-2 -3,-4 -3,-7l0 -4 61 -182c3,-6 6,-9 10,-9 4,0 8,3 10,9l60 182 1 4c0,3 -1,5 -3,7 -2,2 -5,3 -7,3 -2,0 -3,-1 -5,-1 -2,-1 -3,-3 -5,-6l-14 -44 -74 0zm67 -21l-30 -89 -30 89 60 0z"/>
  </g>
 </g>
</svg>
