<?xml version="1.0" encoding="UTF-8"?>
<!DOCTYPE svg PUBLIC "-//W3C//DTD SVG 1.0//EN" "http://www.w3.org/TR/2001/REC-SVG-20010904/DTD/svg10.dtd">
<!-- Creator: CorelDRAW X7 -->
<svg xmlns="http://www.w3.org/2000/svg" xml:space="preserve" width="200mm" height="200mm" version="1.0" style="shape-rendering:geometricPrecision; text-rendering:geometricPrecision; image-rendering:optimizeQuality; fill-rule:evenodd; clip-rule:evenodd"
viewBox="0 0 20000 20000"
 xmlns:xlink="http://www.w3.org/1999/xlink">
 <defs>
  <style type="text/css">
   <![CDATA[
    .str6 {stroke:#3497A1;stroke-width:25}
    .str0 {stroke:#3696A0;stroke-width:25}
    .str1 {stroke:#38959F;stroke-width:25}
    .str3 {stroke:#D0758A;stroke-width:25}
    .str5 {stroke:#2E99A3;stroke-width:16.61;stroke-linecap:round;stroke-linejoin:round}
    .str2 {stroke:#024541;stroke-width:155.02;stroke-linecap:round;stroke-linejoin:round}
    .str4 {stroke:#737370;stroke-width:73.41;stroke-linecap:round;stroke-linejoin:round}
    .fil24 {fill:none}
    .fil39 {fill:none;fill-rule:nonzero}
    .fil5 {fill:#FEFEFE}
    .fil25 {fill:#CC7588}
    .fil10 {fill:#E9458C}
    .fil60 {fill:#F3F7FC}
    .fil61 {fill:#F3F5FB}
    .fil63 {fill:#F2F6FC}
    .fil62 {fill:#F2F4FB}
    .fil14 {fill:#E27664}
    .fil44 {fill:#EBF4FB}
    .fil20 {fill:#E7EBF1}
    .fil16 {fill:#DFDCDB}
    .fil45 {fill:#D9D3EA}
    .fil2 {fill:#DAE0CF}
    .fil46 {fill:#D6D1E9}
    .fil18 {fill:#C6695A}
    .fil13 {fill:#C1483C}
    .fil12 {fill:#C5C9D4}
    .fil17 {fill:#AB4339}
    .fil47 {fill:#AB9A2A}
    .fil15 {fill:#ABB3BD}
    .fil19 {fill:#A8B0BE}
    .fil69 {fill:#A07877}
    .fil42 {fill:#A7A5A5}
    .fil64 {fill:#856659}
    .fil65 {fill:#856559}
    .fil9 {fill:#9E4A95}
    .fil8 {fill:#9CC656}
    .fil67 {fill:#81635A}
    .fil66 {fill:#816359}
    .fil48 {fill:#81625A}
    .fil68 {fill:#81625A}
    .fil50 {fill:#81615B}
    .fil49 {fill:#81615A}
    .fil28 {fill:#4F292D}
    .fil51 {fill:#80615B}
    .fil27 {fill:#8A8281}
    .fil53 {fill:#7A595F}
    .fil52 {fill:#7A595E}
    .fil54 {fill:#695249}
    .fil56 {fill:#68524A}
    .fil55 {fill:#685249}
    .fil58 {fill:#68504A}
    .fil57 {fill:#685049}
    .fil59 {fill:#68504A}
    .fil6 {fill:#76C5E7}
    .fil40 {fill:#819233}
    .fil41 {fill:#63605F}
    .fil43 {fill:#514E4D}
    .fil26 {fill:#303230}
    .fil7 {fill:#1097D4}
    .fil11 {fill:#437BA7}
    .fil22 {fill:#024541}
    .fil70 {fill:#3198A2}
    .fil1 {fill:#3497A1}
    .fil3 {fill:#3696A0}
    .fil4 {fill:#38959F}
    .fil35 {fill:#ABC9BF}
    .fil31 {fill:#B3B3B3}
    .fil29 {fill:#BDD6D1}
    .fil30 {fill:#C4C7C7}
    .fil34 {fill:#C9E6E8}
    .fil32 {fill:#D9D9D9}
    .fil23 {fill:#B8C8BA;fill-rule:nonzero}
    .fil21 {fill:#4D897C;fill-rule:nonzero}
    .fil33 {fill:#034540;fill-rule:nonzero}
    .fil38 {fill:#2E99A3;fill-rule:nonzero}
    .fil36 {fill:#5C5C5C;fill-rule:nonzero}
    .fil37 {fill:#BDD6D1;fill-rule:nonzero}
    .fil0 {fill:url(#id0)}
   ]]>
  </style>
  <radialGradient id="id0" gradientUnits="userSpaceOnUse" gradientTransform="matrix(1.41421 -0 -0 1.41421 -4142 -4140)" cx="9999.37" cy="9994.13" r="10000" fx="9999.37" fy="9994.13">
   <stop offset="0" style="stop-opacity:1; stop-color:#FEFEFE"/>
   <stop offset="0.439216" style="stop-opacity:1; stop-color:#FEFEFE"/>
   <stop offset="1" style="stop-opacity:1; stop-color:#D1E2F2"/>
  </radialGradient>
 </defs>
 <g id="Layer_x0020_1">
  <metadata id="CorelCorpID_0Corel-Layer"/>
  <path class="fil0" d="M-1 -6l20000 0 0 20000 -20000 0 0 -20000z"/>
  <g id="_601997103760">
   <path class="fil1 str0" d="M7495 1819c0,29 -11,54 -31,75 -21,21 -46,31 -76,31l-29 0c-28,0 -53,-10 -74,-30 -21,-21 -32,-46 -32,-76l0 -125c0,-29 11,-53 31,-75 21,-21 46,-32 75,-32l29 0c29,0 54,11 75,31 21,21 32,46 32,76l0 125zm-48 0l0 -125c0,-16 -6,-30 -17,-41 -11,-12 -25,-18 -41,-18l-30 0c-16,0 -29,6 -41,17 -11,12 -17,25 -17,42l0 125c0,16 6,30 17,41 12,12 25,17 41,17l30 0c15,0 29,-5 40,-16 12,-11 18,-25 18,-42zm241 -51l-54 56 0 77c0,8 -2,14 -7,19 -4,3 -10,5 -17,5 -6,0 -12,-2 -17,-6 -5,-4 -7,-10 -7,-18l0 -289c0,-7 2,-13 7,-18 5,-4 11,-6 17,-6 6,0 12,2 17,6 4,4 7,10 7,18l0 142 153 -160c4,-5 9,-7 16,-7 5,0 10,2 17,7 4,5 7,11 7,18 0,7 -3,13 -8,18l-97 102 99 154c4,6 6,12 6,16 0,7 -3,12 -8,17 -5,5 -11,7 -17,7 -6,0 -12,-3 -17,-9l-97 -149zm457 51c0,29 -10,54 -30,75 -21,21 -46,31 -76,31l-29 0c-28,0 -53,-10 -74,-30 -21,-21 -32,-46 -32,-76l0 -125c0,-29 10,-53 31,-75 21,-21 46,-32 75,-32l29 0c29,0 54,11 75,31 21,21 31,46 31,76l0 125zm-48 0l0 -125c0,-16 -5,-30 -16,-41 -12,-12 -25,-18 -42,-18l-29 0c-16,0 -29,6 -41,17 -11,12 -17,25 -17,42l0 125c0,16 6,30 17,41 11,12 25,17 41,17l29 0c16,0 30,-5 41,-16 12,-11 17,-25 17,-42zm338 -87l0 -120c0,-7 2,-13 7,-18 5,-4 11,-7 17,-7 6,0 12,2 17,6 5,5 7,11 7,19l0 289c0,8 -2,14 -7,19 -4,3 -10,5 -17,5 -6,0 -12,-2 -17,-6 -5,-4 -7,-10 -7,-18l0 -121 -145 0 0 121c0,8 -3,14 -7,19 -5,3 -10,5 -17,5 -7,0 -12,-2 -17,-6 -5,-4 -7,-10 -7,-18l0 -289c0,-7 2,-13 7,-18 5,-4 10,-7 17,-7 6,0 11,2 16,6 5,4 8,11 8,19l0 120 145 0zm338 0l0 -120c0,-7 2,-13 7,-18 5,-4 10,-7 17,-7 6,0 11,2 16,6 5,5 8,11 8,19l0 289c0,8 -3,14 -7,19 -5,3 -10,5 -17,5 -7,0 -12,-2 -17,-6 -5,-4 -7,-10 -7,-18l0 -121 -97 0c-26,0 -49,-9 -68,-28 -19,-18 -29,-41 -29,-68l0 -72c0,-7 3,-13 7,-18 5,-4 11,-7 17,-7 6,0 12,2 17,6 5,4 7,11 7,19l0 72c0,13 5,25 14,34 5,4 10,8 16,11 7,2 13,3 19,3l97 0zm337 97l0 -194 -97 0c-13,0 -25,5 -34,14 -5,5 -8,10 -11,16 -2,6 -3,12 -3,19l0 145c0,14 4,25 14,35 5,4 10,7 15,10 7,2 14,3 19,3l49 0c13,0 25,-4 34,-13 10,-9 14,-21 14,-35zm24 65c-8,9 -19,16 -32,22 -14,6 -27,9 -40,9l-49 0c-26,0 -48,-9 -67,-28 -19,-18 -29,-41 -29,-68l0 -145c0,-27 9,-49 28,-68 19,-19 42,-29 68,-29l121 0c16,0 24,8 24,25l0 216c0,10 3,20 9,30 6,9 14,16 24,21 11,4 16,11 16,22 0,7 -3,13 -7,17 -4,5 -10,7 -17,7 -4,0 -7,0 -10,-2 -16,-6 -29,-16 -39,-29zm314 -162l0 -120c0,-7 2,-13 7,-18 5,-4 10,-7 17,-7 6,0 12,2 16,6 5,5 8,11 8,19l0 289c0,8 -2,14 -7,19 -4,3 -10,5 -17,5 -7,0 -12,-2 -17,-6 -5,-4 -7,-10 -7,-18l0 -121 -146 0 0 121c0,8 -2,14 -6,19 -5,3 -10,5 -18,5 -6,0 -12,-2 -16,-6 -5,-4 -7,-10 -7,-18l0 -289c0,-7 2,-13 7,-18 4,-4 10,-7 16,-7 7,0 12,2 17,6 5,4 7,11 7,19l0 120 146 0zm385 169c0,16 -8,24 -24,24l-120 0c-26,0 -49,-9 -68,-28 -19,-18 -29,-41 -29,-68l0 -217c0,-7 2,-13 7,-18 5,-4 11,-7 17,-7 6,0 12,2 17,6 5,5 7,11 7,19l0 217c0,14 5,25 14,35 5,4 10,7 15,10 7,2 14,3 20,3l96 0 0 -265c0,-7 3,-13 8,-18 4,-4 10,-7 16,-7 7,0 12,2 17,6 5,5 7,11 7,19l0 289zm145 -168l145 0 0 -49c0,-14 -5,-25 -14,-34 -9,-10 -20,-15 -34,-15l-49 0c-13,0 -25,5 -34,14 -5,5 -9,10 -11,16 -2,6 -3,12 -3,19l0 49zm0 48l0 48c0,14 4,25 13,35 5,4 11,7 16,10 7,2 13,3 19,3l121 0c7,0 12,3 17,8 5,5 7,10 7,16 0,6 -2,11 -6,17 -4,5 -10,7 -18,7l-121 0c-26,0 -49,-9 -68,-28 -19,-18 -28,-41 -28,-68l0 -145c0,-26 9,-49 28,-68 18,-19 41,-29 68,-29l48 0c27,0 49,10 68,29 19,18 29,41 29,68l0 73c0,16 -8,24 -24,24l-169 0zm-2483 604l-54 57 0 77c0,7 -2,14 -7,18 -4,4 -10,6 -17,6 -6,0 -12,-2 -17,-6 -5,-4 -7,-10 -7,-18l0 -289c0,-7 2,-13 7,-18 5,-5 11,-7 17,-7 6,0 12,2 17,6 5,4 7,11 7,19l0 142 153 -160c4,-5 10,-8 16,-8 5,0 10,3 17,8 4,4 7,10 7,18 0,6 -3,13 -8,18l-97 102 99 153c4,7 6,12 6,17 0,6 -3,12 -8,17 -5,4 -10,7 -17,7 -6,0 -12,-3 -17,-10l-97 -149zm409 62l0 -194 -96 0c-14,0 -26,5 -35,14 -5,5 -8,10 -10,16 -3,5 -4,12 -4,18l0 146c0,13 5,25 14,34 5,4 10,8 16,11 6,2 13,3 19,3l48 0c13,0 25,-4 34,-13 10,-9 14,-21 14,-35zm24 64c-8,9 -18,17 -32,23 -13,6 -27,9 -40,9l-48 0c-26,0 -49,-9 -68,-28 -19,-19 -29,-41 -29,-69l0 -144c0,-27 10,-50 28,-69 19,-19 42,-28 69,-28l120 0c16,0 24,8 24,24l0 217c0,10 4,19 10,30 5,8 13,16 24,20 10,5 15,12 15,22 0,7 -2,13 -7,18 -4,5 -10,7 -17,7 -4,0 -7,-1 -10,-2 -16,-7 -29,-16 -39,-30zm410 8l0 -290c0,-9 -2,-15 -6,-20 -4,-5 -9,-7 -15,-7 -7,0 -15,4 -23,13l-101 142 -100 -142c-7,-9 -14,-13 -23,-13 -5,0 -11,2 -15,7 -4,5 -6,12 -6,20l0 290c0,7 2,14 7,18 4,4 10,6 17,6 6,0 11,-2 16,-6 5,-5 8,-11 8,-18l0 -214 77 107c6,9 13,13 19,13 7,0 13,-4 20,-13l77 -107 0 214c0,7 2,14 7,18 4,4 10,6 17,6 6,0 11,-2 16,-6 5,-5 8,-11 8,-18zm338 0c0,7 -2,14 -7,18 -4,4 -10,6 -17,6 -6,0 -12,-2 -17,-6 -5,-4 -7,-10 -7,-18l0 -218c0,-13 -5,-25 -14,-34 -9,-9 -20,-14 -35,-14l-96 0 0 266c0,7 -3,14 -7,18 -5,4 -10,6 -17,6 -7,0 -12,-2 -17,-6 -5,-4 -7,-10 -7,-18l0 -290c0,-16 8,-24 24,-24l120 0c26,0 49,9 68,28 19,18 29,41 29,69l0 217zm290 -72l0 -194 -97 0c-14,0 -26,5 -35,14 -5,5 -8,10 -10,16 -3,5 -4,12 -4,18l0 146c0,13 5,25 14,34 5,4 10,8 16,11 7,2 13,3 19,3l48 0c13,0 25,-4 34,-13 10,-9 15,-21 15,-35zm23 64c-8,9 -18,17 -32,23 -13,6 -27,9 -40,9l-48 0c-26,0 -49,-9 -68,-28 -19,-19 -29,-41 -29,-69l0 -144c0,-27 10,-50 28,-69 19,-19 42,-28 69,-28l120 0c16,0 24,8 24,24l0 217c0,10 4,19 10,30 5,8 13,16 24,20 10,5 15,12 15,22 0,7 -2,13 -7,18 -4,5 -10,7 -17,7 -4,0 -7,-1 -10,-2 -16,-7 -29,-16 -39,-30zm314 -161l0 -121c0,-6 2,-12 7,-18 5,-4 11,-6 17,-6 6,0 12,2 17,6 5,4 7,10 7,18l0 290c0,7 -2,14 -7,18 -4,4 -10,6 -17,6 -6,0 -12,-2 -17,-6 -5,-4 -7,-10 -7,-18l0 -121 -145 0 0 121c0,7 -2,14 -7,18 -4,4 -10,6 -17,6 -7,0 -12,-2 -17,-6 -5,-4 -7,-10 -7,-18l0 -290c0,-6 2,-12 7,-18 5,-4 10,-6 17,-6 6,0 12,2 16,6 5,4 8,10 8,18l0 121 145 0zm386 169c0,16 -8,24 -24,24l-121 0c-26,0 -49,-9 -68,-28 -19,-19 -29,-41 -29,-69l0 -217c0,-6 3,-12 8,-18 4,-4 10,-6 16,-6 7,0 12,2 17,6 5,4 7,10 7,18l0 218c0,13 5,25 14,34 5,4 10,8 16,11 7,2 13,3 19,3l97 0 0 -266c0,-6 2,-12 7,-18 5,-4 10,-6 17,-6 6,0 11,2 16,6 5,4 8,10 8,18l0 290zm337 0c0,16 -8,24 -24,24l-120 0c-26,0 -49,-9 -68,-28 -19,-19 -29,-41 -29,-69l0 -217c0,-6 2,-12 7,-18 5,-4 11,-6 17,-6 6,0 12,2 17,6 5,4 7,10 7,18l0 218c0,13 5,25 14,34 5,4 10,8 15,11 7,2 14,3 19,3l97 0 0 -266c0,-6 3,-12 8,-18 4,-4 10,-6 16,-6 6,0 12,2 17,6 5,4 7,10 7,18l0 290z"/>
   <path class="fil2" d="M6978 2728l-3 1 0 -3 3 2z"/>
   <path class="fil2" d="M6724 2887l-3 2 0 -3 3 1z"/>
   <path class="fil3 str1" d="M12774 6890l0 -194 -97 0c-14,0 -25,5 -35,14 -4,5 -8,10 -10,16 -2,6 -4,12 -4,19l0 145c0,14 5,25 14,35 5,4 10,7 16,10 7,2 13,3 19,3l48 0c14,0 25,-4 35,-13 9,-9 14,-21 14,-35zm23 65c-7,9 -18,16 -31,22 -14,6 -27,9 -41,9l-48 0c-26,0 -49,-9 -68,-28 -19,-18 -28,-41 -28,-68l0 -145c0,-27 9,-49 28,-68 19,-19 41,-29 68,-29l121 0c16,0 24,8 24,25l0 216c0,10 3,20 9,30 6,9 14,16 24,21 10,4 15,11 15,22 0,7 -2,13 -7,17 -4,5 -9,7 -17,7 -3,0 -7,0 -10,-2 -15,-6 -28,-16 -39,-29zm350 10c-13,6 -29,12 -48,17l-26 4 -29 0 -33 0 -29 -4c-18,-3 -33,-11 -44,-25 -12,-14 -18,-30 -18,-48 0,-10 2,-20 6,-30 5,-10 11,-19 21,-27l154 -106c5,-4 8,-9 8,-15 0,-10 -9,-18 -25,-24 -17,-6 -35,-8 -55,-8 -16,0 -30,1 -42,3 -13,3 -23,8 -31,14 -4,3 -9,5 -14,5 -5,0 -11,-2 -17,-7 -5,-5 -7,-11 -7,-17 0,-8 3,-14 10,-19 10,-8 25,-14 45,-19 10,-2 20,-4 30,-6 10,-1 21,-2 31,-2 6,0 13,0 18,1 6,0 13,0 20,1 8,1 16,3 26,6 18,5 32,14 43,27 11,13 17,28 17,44 0,20 -9,38 -28,54l-154 106c-6,5 -8,12 -8,19 0,5 2,11 5,17 4,4 10,8 17,9l26 3 29 1c18,0 32,-1 44,-3 5,-1 10,-3 16,-5 7,-3 13,-6 18,-9l5 -2c2,-1 5,-1 8,-1 6,0 12,2 17,7 4,5 7,11 7,18 0,8 -5,15 -13,21zm350 -3c0,16 -8,24 -24,24l-121 0c-26,0 -48,-9 -67,-28 -20,-18 -29,-41 -29,-68l0 -217c0,-7 2,-13 7,-18 5,-4 10,-7 17,-7 6,0 11,2 16,6 5,5 8,11 8,19l0 217c0,14 4,25 14,35 4,4 10,7 15,10 7,2 13,3 19,3l97 0 0 -265c0,-7 2,-13 7,-18 5,-4 11,-7 17,-7 6,0 12,2 17,6 5,5 7,11 7,19l0 289zm241 -266l-97 0 0 266c0,8 -2,14 -6,19 -5,3 -11,5 -18,5 -6,0 -12,-2 -16,-6 -5,-4 -8,-10 -8,-18l0 -289c0,-17 8,-25 24,-25l217 0c26,0 49,10 68,29 19,18 29,41 29,68l0 217c0,8 -3,14 -7,19 -5,3 -10,5 -17,5 -7,0 -12,-2 -17,-6 -5,-4 -7,-10 -7,-18l0 -217c0,-14 -5,-25 -14,-35 -9,-9 -21,-14 -35,-14l-48 0 0 266c0,8 -2,14 -7,19 -4,3 -10,5 -17,5 -6,0 -12,-2 -17,-6 -5,-4 -7,-10 -7,-18l0 -266zm483 194l0 -194 -97 0c-14,0 -25,5 -35,14 -4,5 -8,10 -10,16 -2,6 -4,12 -4,19l0 145c0,14 5,25 14,35 5,4 10,7 16,10 7,2 13,3 19,3l48 0c14,0 25,-4 34,-13 10,-9 15,-21 15,-35zm23 65c-7,9 -18,16 -32,22 -13,6 -26,9 -40,9l-48 0c-26,0 -49,-9 -68,-28 -19,-18 -29,-41 -29,-68l0 -145c0,-27 10,-49 29,-68 19,-19 41,-29 68,-29l121 0c16,0 24,8 24,25l0 216c0,10 3,20 9,30 6,9 13,16 24,21 10,4 15,11 15,22 0,7 -2,13 -7,17 -4,5 -10,7 -17,7 -3,0 -7,0 -10,-2 -16,-6 -29,-16 -39,-29zm314 -17l0 -265c0,-7 3,-13 7,-18 5,-4 11,-7 17,-7 6,0 12,2 17,6 5,5 7,11 7,19l0 265 24 0c16,0 24,8 24,25l0 43c0,7 -2,12 -7,17 -5,5 -11,7 -17,7 -5,0 -11,-2 -16,-6 -5,-4 -8,-10 -8,-18l0 -20 -144 0c-27,0 -49,-9 -68,-28 -19,-18 -29,-41 -29,-68l0 -217c0,-7 2,-13 7,-18 5,-4 11,-7 17,-7 6,0 12,2 17,6 5,5 7,11 7,19l0 217c0,14 5,25 14,35 5,4 10,7 15,10 7,2 14,3 19,3l97 0zm386 24c0,16 -8,24 -24,24l-121 0c-26,0 -48,-9 -68,-28 -19,-18 -28,-41 -28,-68l0 -217c0,-7 2,-13 7,-18 5,-4 10,-7 17,-7 6,0 11,2 16,6 5,5 8,11 8,19l0 217c0,14 4,25 13,35 5,4 10,7 16,10 7,2 13,3 19,3l97 0 0 -265c0,-7 2,-13 7,-18 5,-4 11,-7 17,-7 6,0 12,2 16,6 5,5 8,11 8,19l0 289zm338 -82c0,29 -11,54 -31,75 -21,21 -46,31 -76,31l-29 0c-28,0 -53,-10 -74,-30 -21,-21 -32,-46 -32,-76l0 -125c0,-29 11,-53 31,-75 21,-21 46,-32 75,-32l29 0c29,0 54,11 75,31 21,21 32,46 32,76l0 125zm-48 0l0 -126c0,-15 -6,-29 -17,-40 -11,-12 -25,-18 -42,-18l-29 0c-16,0 -29,6 -41,17 -11,12 -17,25 -17,41l0 126c0,16 6,30 17,41 11,12 25,17 41,17l29 0c16,0 30,-5 41,-16 12,-11 18,-25 18,-42zm337 -87l0 -120c0,-7 2,-13 7,-18 5,-4 11,-7 17,-7 6,0 12,2 17,6 5,5 7,11 7,19l0 289c0,8 -2,14 -7,19 -4,3 -10,5 -17,5 -6,0 -12,-2 -17,-6 -5,-4 -7,-10 -7,-18l0 -121 -145 0 0 121c0,8 -2,14 -7,19 -4,3 -10,5 -17,5 -7,0 -12,-2 -17,-6 -5,-4 -7,-10 -7,-18l0 -289c0,-7 2,-13 7,-18 5,-4 10,-7 17,-7 6,0 12,2 16,6 5,4 8,11 8,19l0 120 145 0zm338 0l0 -120c0,-7 2,-13 7,-18 5,-4 10,-7 17,-7 6,0 12,2 16,6 5,5 8,11 8,19l0 289c0,8 -2,14 -7,19 -4,3 -10,5 -17,5 -7,0 -12,-2 -17,-6 -5,-4 -7,-10 -7,-18l0 -121 -146 0 0 121c0,8 -2,14 -6,19 -5,3 -11,5 -18,5 -6,0 -12,-2 -16,-6 -5,-4 -8,-10 -8,-18l0 -289c0,-7 3,-13 8,-18 4,-4 10,-7 16,-7 7,0 12,2 17,6 5,4 7,11 7,19l0 120 146 0zm433 169c0,8 -2,14 -6,19 -5,3 -11,5 -18,5 -6,0 -12,-2 -16,-6 -5,-4 -8,-10 -8,-18l0 -289c0,-7 3,-13 8,-18 4,-4 10,-7 16,-7 6,0 12,2 17,6 5,5 7,11 7,19l0 289zm-241 -121l0 97 48 0c15,0 27,-5 36,-14 8,-10 13,-22 13,-34 0,-14 -4,-25 -12,-34 -4,-4 -9,-8 -15,-11 -6,-3 -14,-4 -22,-4l-48 0zm0 -48l48 0c31,0 55,10 73,30 16,18 24,40 24,67 0,25 -8,47 -24,66 -18,20 -42,30 -73,30l-72 0c-16,0 -24,-8 -24,-24l0 -289c0,-7 2,-13 7,-18 5,-4 11,-7 17,-7 6,0 12,2 17,6 5,4 7,11 7,19l0 120zm507 -241l-97 0c-7,0 -13,-2 -18,-7 -4,-5 -6,-11 -6,-17 0,-6 2,-11 6,-16 4,-6 10,-8 18,-8l97 0c6,0 12,2 17,7 4,5 7,11 7,17 0,5 -2,11 -6,16 -4,5 -10,8 -18,8zm72 410c0,16 -8,24 -24,24l-121 0c-26,0 -48,-9 -67,-27 -19,-19 -29,-42 -29,-69l0 -217c0,-7 2,-13 7,-18 5,-4 11,-6 17,-6 6,0 12,2 16,6 5,4 8,10 8,18l0 217c0,14 4,25 14,35 5,4 10,7 15,10 7,2 14,3 19,3l97 0 0 -265c0,-7 3,-12 7,-18 5,-4 11,-6 17,-6 6,0 12,2 17,6 5,4 7,10 7,18l0 289zm-2773 618c0,7 -2,14 -7,18 -4,4 -10,6 -17,6 -6,0 -12,-2 -17,-6 -5,-4 -7,-10 -7,-18l0 -218c0,-13 -5,-25 -14,-34 -9,-9 -20,-14 -34,-14l-97 0 0 266c0,7 -3,14 -7,18 -5,4 -10,6 -17,6 -7,0 -12,-2 -17,-6 -5,-4 -7,-10 -7,-18l0 -290c0,-16 8,-24 24,-24l120 0c26,0 49,9 68,28 19,18 29,41 29,69l0 217zm144 -169l146 0 0 -48c0,-14 -5,-25 -14,-35 -9,-9 -21,-14 -35,-14l-48 0c-14,0 -25,5 -35,14 -4,5 -8,10 -10,16 -3,6 -4,12 -4,19l0 48zm0 48l0 49c0,13 5,25 14,34 5,4 10,8 16,11 6,2 13,3 19,3l120 0c7,0 13,2 18,7 4,5 7,11 7,17 0,6 -2,11 -6,16 -4,5 -11,8 -19,8l-120 0c-26,0 -49,-9 -68,-28 -19,-19 -29,-42 -29,-69l0 -144c0,-26 10,-49 28,-68 19,-19 42,-29 69,-29l48 0c26,0 49,9 68,28 19,19 29,42 29,69l0 72c0,16 -8,24 -25,24l-169 0zm338 97l97 0c13,0 25,-4 34,-14 10,-8 14,-20 14,-34l0 -146c0,-13 -4,-25 -13,-34 -10,-9 -21,-14 -35,-14l-97 0 0 242zm0 48l0 121c0,6 -3,12 -8,17 -4,4 -10,7 -16,7 -6,0 -11,-2 -16,-6 -6,-4 -8,-10 -8,-18l0 -435c0,-16 8,-24 24,-24l121 0c26,0 48,9 68,28 19,19 28,42 28,69l0 144c0,27 -9,50 -28,69 -19,18 -42,28 -68,28l-97 0zm531 -24c0,16 -8,24 -24,24l-121 0c-26,0 -49,-9 -68,-28 -19,-19 -29,-41 -29,-69l0 -217c0,-6 3,-12 8,-18 4,-4 10,-6 16,-6 7,0 12,2 17,6 5,4 7,10 7,18l0 218c0,13 5,25 14,34 5,4 10,8 16,11 7,2 13,3 19,3l97 0 0 -266c0,-6 2,-12 7,-18 5,-4 10,-6 17,-6 6,0 12,2 16,6 5,4 8,10 8,18l0 290zm337 -82c0,28 -10,53 -30,74 -21,22 -46,32 -76,32l-29 0c-28,0 -53,-10 -74,-31 -21,-20 -32,-45 -32,-75l0 -126c0,-28 10,-53 31,-74 21,-21 46,-32 75,-32l29 0c29,0 54,10 75,31 21,20 31,46 31,75l0 126zm-48 0l0 -126c0,-16 -5,-29 -16,-41 -12,-11 -25,-17 -42,-17l-29 0c-16,0 -29,6 -41,17 -11,11 -17,25 -17,41l0 126c0,16 6,29 17,41 11,11 25,17 41,17l29 0c16,0 30,-6 41,-17 12,-11 17,-25 17,-41zm338 -184l-97 0c-14,0 -25,5 -34,14 -5,4 -9,10 -11,16 -2,5 -3,12 -3,18l0 146c0,13 4,25 14,34 4,4 10,8 15,11 7,2 13,3 19,3l49 0c13,0 24,-4 34,-14 9,-8 14,-20 14,-34l0 -194zm0 -48l0 -48c0,-14 -5,-25 -14,-35 -9,-9 -20,-14 -34,-14l-97 0c-7,0 -13,-2 -18,-6 -4,-5 -6,-11 -6,-18 0,-5 2,-10 6,-16 4,-5 10,-8 18,-8l96 0c27,0 50,10 69,29 19,19 28,41 28,68l0 289c0,27 -9,50 -28,69 -19,18 -42,28 -69,28l-48 0c-26,0 -48,-9 -67,-28 -20,-19 -29,-41 -29,-69l0 -144c0,-27 9,-50 28,-69 19,-19 42,-28 68,-28l97 0z"/>
   <path class="fil4 str1" d="M6347 11614l0 -121c0,-6 3,-12 7,-18 5,-4 11,-6 17,-6 6,0 12,2 17,6 5,4 7,10 7,18l0 290c0,7 -2,13 -7,18 -4,4 -10,6 -17,6 -6,0 -12,-2 -17,-6 -4,-4 -7,-10 -7,-18l0 -122 -145 0 0 122c0,7 -2,13 -7,18 -4,4 -10,6 -17,6 -6,0 -12,-2 -17,-6 -5,-4 -7,-10 -7,-18l0 -290c0,-6 2,-12 7,-18 5,-4 11,-6 17,-6 6,0 12,2 17,6 4,4 7,10 7,18l0 121 145 0zm338 96l0 -193 -97 0c-14,0 -25,4 -35,14 -4,4 -8,9 -10,15 -2,6 -3,13 -3,19l0 145c0,14 4,26 13,35 5,4 10,8 16,10 7,3 13,4 19,4l48 0c14,0 25,-5 35,-14 9,-9 14,-20 14,-35zm24 65c-8,9 -19,17 -32,23 -14,6 -27,9 -41,9l-48 0c-26,0 -48,-9 -68,-28 -19,-19 -28,-42 -28,-69l0 -145c0,-26 9,-49 28,-68 19,-19 41,-28 68,-28l121 0c16,0 24,8 24,24l0 217c0,9 3,19 9,29 6,9 14,16 24,21 10,5 15,12 15,22 0,7 -2,13 -7,18 -4,4 -9,7 -17,7 -3,0 -6,-1 -10,-3 -15,-6 -28,-15 -38,-29zm314 -161l0 -121c0,-6 2,-12 7,-18 5,-4 10,-6 17,-6 6,0 11,2 16,6 5,4 8,10 8,18l0 290c0,7 -3,13 -7,18 -5,4 -10,6 -17,6 -7,0 -12,-2 -17,-6 -5,-4 -7,-10 -7,-18l0 -122 -97 0c-26,0 -49,-9 -68,-27 -19,-19 -29,-42 -29,-69l0 -72c0,-6 3,-12 7,-18 5,-4 11,-6 17,-6 6,0 12,2 17,6 5,4 7,10 7,18l0 72c0,14 5,25 14,35 5,4 10,7 16,10 7,2 13,4 19,4l97 0zm337 96l0 -193 -97 0c-13,0 -25,4 -34,14 -5,4 -8,9 -11,15 -2,6 -3,13 -3,19l0 145c0,14 4,26 14,35 4,4 10,8 15,10 7,3 13,4 19,4l49 0c13,0 25,-5 34,-14 9,-9 14,-20 14,-35zm24 65c-8,9 -19,17 -32,23 -14,6 -27,9 -40,9l-49 0c-26,0 -48,-9 -67,-28 -20,-19 -29,-42 -29,-69l0 -145c0,-26 9,-49 28,-68 19,-19 42,-28 68,-28l121 0c16,0 24,8 24,24l0 217c0,9 3,19 9,29 6,9 14,16 24,21 11,5 16,12 16,22 0,7 -3,13 -7,18 -4,4 -10,7 -17,7 -4,0 -7,-1 -10,-3 -16,-6 -29,-15 -39,-29zm362 8c0,7 -3,13 -7,18 -4,4 -10,6 -17,6 -7,0 -12,-2 -17,-6 -5,-4 -7,-10 -7,-18l0 -266 -56 0 -90 273c-2,6 -5,10 -9,13 -1,1 -6,2 -13,4 -7,0 -12,-3 -17,-7 -5,-4 -8,-10 -8,-16l2 -9 95 -290c4,-11 11,-16 23,-16l97 0c16,0 24,8 24,24l0 290zm337 -82c0,28 -10,53 -30,74 -21,21 -46,32 -76,32l-29 0c-28,0 -53,-10 -74,-31 -22,-20 -32,-45 -32,-75l0 -126c0,-28 10,-53 31,-74 21,-22 46,-32 75,-32l29 0c29,0 54,10 75,31 21,20 31,45 31,75l0 126zm-48 0l0 -126c0,-16 -5,-30 -16,-41 -12,-11 -25,-17 -42,-17l-29 0c-16,0 -29,6 -41,17 -11,11 -17,25 -17,41l0 126c0,16 6,29 17,41 11,11 25,17 41,17l29 0c16,0 30,-6 41,-17 12,-11 17,-25 17,-41zm-2133 566l-54 56 0 77c0,8 -3,14 -7,19 -5,3 -10,5 -17,5 -7,0 -12,-2 -17,-6 -5,-4 -7,-10 -7,-18l0 -289c0,-7 2,-13 7,-18 5,-4 10,-6 17,-6 6,0 11,2 16,6 5,4 8,10 8,18l0 142 153 -160c4,-5 9,-7 15,-7 5,0 11,2 17,7 5,5 7,11 7,18 0,7 -2,13 -8,18l-96 102 99 154c4,6 5,12 5,16 0,7 -2,12 -8,17 -4,5 -10,7 -16,7 -7,0 -13,-3 -18,-9l-96 -149zm409 61l0 -194 -97 0c-14,0 -25,5 -35,14 -4,5 -8,10 -10,16 -2,6 -3,12 -3,19l0 145c0,14 4,25 13,35 5,4 10,7 16,10 7,2 13,3 19,3l49 0c13,0 24,-4 34,-13 9,-9 14,-21 14,-35zm24 65c-8,9 -19,16 -32,22 -14,6 -27,9 -40,9l-49 0c-26,0 -48,-9 -68,-28 -19,-18 -28,-41 -28,-68l0 -145c0,-27 9,-49 28,-68 19,-19 41,-29 68,-29l121 0c16,0 24,8 24,25l0 216c0,10 3,20 9,30 6,9 14,16 24,21 10,4 15,11 15,22 0,7 -2,13 -7,17 -4,5 -9,7 -17,7 -3,0 -6,0 -10,-2 -15,-6 -28,-16 -38,-29zm410 7l0 -289c0,-9 -3,-16 -7,-21 -4,-5 -9,-7 -15,-7 -7,0 -14,5 -22,14l-101 141 -101 -141c-6,-9 -14,-14 -22,-14 -6,0 -11,2 -16,7 -4,6 -6,12 -6,21l0 289c0,8 2,14 7,19 4,3 10,5 17,5 6,0 11,-2 16,-6 6,-4 8,-10 8,-18l0 -214 77 108c7,8 13,13 20,13 6,0 13,-5 20,-13l77 -108 0 214c0,8 2,14 6,19 5,3 10,5 18,5 5,0 11,-2 16,-6 5,-4 8,-10 8,-18zm337 0c0,8 -2,14 -6,19 -5,3 -11,5 -18,5 -6,0 -12,-2 -16,-6 -5,-4 -8,-10 -8,-18l0 -217c0,-14 -4,-25 -13,-35 -9,-9 -21,-14 -35,-14l-97 0 0 266c0,8 -2,14 -7,19 -4,3 -10,5 -17,5 -6,0 -12,-2 -17,-6 -5,-4 -7,-10 -7,-18l0 -289c0,-17 8,-25 24,-25l121 0c26,0 48,10 67,28 20,19 29,42 29,69l0 217zm290 -72l0 -194 -97 0c-14,0 -25,5 -34,14 -5,5 -9,10 -11,16 -2,6 -3,12 -3,19l0 145c0,14 4,25 14,35 4,4 10,7 15,10 7,2 13,3 19,3l49 0c13,0 24,-4 34,-13 9,-9 14,-21 14,-35zm24 65c-8,9 -19,16 -32,22 -14,6 -27,9 -40,9l-49 0c-26,0 -48,-9 -68,-28 -19,-18 -28,-41 -28,-68l0 -145c0,-27 9,-49 28,-68 19,-19 42,-29 68,-29l121 0c16,0 24,8 24,25l0 216c0,10 3,20 9,30 6,9 14,16 24,21 10,4 15,11 15,22 0,7 -2,13 -7,17 -4,5 -9,7 -17,7 -3,0 -6,0 -10,-2 -15,-6 -28,-16 -38,-29zm314 -162l0 -120c0,-7 2,-13 7,-18 5,-4 10,-7 17,-7 6,0 11,2 16,6 5,5 8,11 8,19l0 289c0,8 -3,14 -7,19 -5,3 -10,5 -17,5 -7,0 -12,-2 -17,-6 -5,-4 -7,-10 -7,-18l0 -121 -146 0 0 121c0,8 -2,14 -7,19 -4,3 -10,5 -17,5 -6,0 -12,-2 -17,-6 -4,-4 -7,-10 -7,-18l0 -289c0,-7 3,-13 7,-18 5,-4 11,-7 17,-7 6,0 12,2 17,6 5,4 7,11 7,19l0 120 146 0zm385 169c0,16 -8,24 -24,24l-121 0c-26,0 -48,-9 -67,-28 -19,-18 -29,-41 -29,-68l0 -217c0,-7 2,-13 7,-18 5,-4 11,-7 17,-7 6,0 12,2 16,6 5,5 8,11 8,19l0 217c0,14 4,25 14,35 5,4 10,7 15,10 7,2 14,3 19,3l97 0 0 -265c0,-7 3,-13 7,-18 5,-4 11,-7 17,-7 6,0 12,2 17,6 5,5 7,11 7,19l0 289zm338 0c0,16 -8,24 -24,24l-121 0c-26,0 -49,-9 -68,-28 -19,-18 -28,-41 -28,-68l0 -217c0,-7 2,-13 7,-18 5,-4 10,-7 17,-7 6,0 11,2 16,6 5,5 7,11 7,19l0 217c0,14 5,25 14,35 5,4 10,7 16,10 7,2 13,3 19,3l97 0 0 -265c0,-7 2,-13 7,-18 5,-4 10,-7 17,-7 6,0 12,2 16,6 5,5 8,11 8,19l0 289z"/>
   <path class="fil5" d="M2035 8755l1816 0 0 1091 -1816 0 0 -1091z"/>
   <path class="fil1 str0" d="M1478 4670c0,8 -3,14 -7,19 -5,3 -10,5 -17,5 -7,0 -12,-2 -17,-6 -5,-4 -7,-10 -7,-18l0 -217c0,-14 -5,-25 -14,-35 -9,-9 -21,-14 -35,-14l-97 0 0 266c0,8 -2,14 -7,19 -4,3 -10,5 -17,5 -6,0 -12,-2 -17,-6 -4,-4 -7,-10 -7,-18l0 -289c0,-16 8,-24 24,-24l121 0c26,0 48,9 68,27 19,19 29,42 29,69l0 217zm144 -24l97 0c13,0 24,-4 34,-13 9,-9 14,-21 14,-35l0 -145c0,-14 -4,-25 -14,-35 -9,-9 -20,-14 -34,-14l-97 0 0 242zm0 48l0 121c0,7 -3,12 -8,17 -4,5 -10,7 -16,7 -6,0 -11,-2 -16,-6 -6,-4 -8,-10 -8,-18l0 -434c0,-16 8,-24 24,-24l121 0c26,0 48,9 68,28 19,18 28,41 28,68l0 145c0,26 -9,49 -28,68 -19,19 -42,28 -69,28l-96 0zm337 -192l146 0 0 -49c0,-13 -5,-25 -14,-34 -9,-10 -21,-15 -35,-15l-48 0c-14,0 -25,5 -35,14 -4,5 -8,10 -10,16 -2,6 -4,12 -4,19l0 49zm0 48l0 48c0,14 5,25 14,35 5,4 10,7 16,10 7,2 13,3 19,3l121 0c6,0 12,3 17,8 4,5 7,10 7,16 0,6 -2,11 -6,17 -4,5 -10,7 -18,7l-121 0c-26,0 -49,-9 -68,-28 -19,-18 -29,-41 -29,-68l0 -145c0,-26 10,-49 28,-68 19,-19 42,-28 69,-28l48 0c26,0 49,9 68,28 19,18 29,41 29,68l0 73c0,16 -8,24 -24,24l-170 0zm483 -146l-97 0c-13,0 -25,5 -34,14 -5,5 -8,10 -11,16 -2,6 -3,12 -3,19l0 145c0,14 5,25 14,35 5,4 10,7 15,10 7,2 14,3 19,3l49 0c13,0 25,-4 34,-13 10,-9 14,-21 14,-35l0 -194zm0 -47l0 -49c0,-13 -4,-25 -13,-34 -9,-9 -21,-14 -35,-14l-97 0c-7,0 -13,-2 -18,-7 -4,-5 -6,-11 -6,-17 0,-6 2,-11 6,-16 4,-6 10,-8 18,-8l97 0c27,0 50,9 68,28 19,19 28,42 28,68l0 290c0,26 -9,49 -28,68 -19,19 -42,28 -68,28l-48 0c-26,0 -49,-9 -68,-28 -19,-18 -29,-41 -29,-68l0 -145c0,-27 9,-49 28,-68 19,-19 42,-28 69,-28l96 0zm337 289l97 0 0 -265c0,-7 2,-13 7,-18 5,-4 11,-6 17,-6 6,0 11,2 17,5 5,5 7,11 7,19l0 289c0,16 -8,24 -24,24l-217 0c-26,0 -49,-9 -68,-28 -19,-18 -28,-41 -28,-68l0 -217c0,-7 2,-13 7,-18 5,-4 10,-6 17,-6 6,0 11,2 16,6 5,4 8,10 8,18l0 217c0,14 4,25 13,35 5,4 10,7 16,10 7,2 13,3 19,3l48 0 0 -265c0,-7 3,-13 7,-18 5,-4 11,-6 17,-6 6,0 12,2 17,6 5,4 7,10 7,18l0 265zm290 -144l145 0 0 -49c0,-13 -5,-25 -14,-34 -9,-10 -20,-15 -34,-15l-49 0c-14,0 -25,5 -35,14 -4,5 -8,10 -10,16 -2,6 -3,12 -3,19l0 49zm0 48l0 48c0,14 4,25 13,35 5,4 10,7 16,10 7,2 13,3 19,3l121 0c6,0 12,3 17,8 5,5 7,10 7,16 0,6 -2,11 -6,17 -4,5 -10,7 -18,7l-121 0c-26,0 -49,-9 -68,-28 -19,-18 -28,-41 -28,-68l0 -145c0,-26 9,-49 28,-68 18,-19 41,-28 68,-28l48 0c27,0 49,9 68,28 19,18 29,41 29,68l0 73c0,16 -8,24 -24,24l-169 0zm458 144l-72 0c-26,0 -49,-9 -68,-28 -19,-18 -29,-41 -29,-68l0 -145c0,-27 10,-49 29,-68 18,-19 41,-28 68,-28l72 0c7,0 13,2 17,7 5,5 7,10 7,16 0,6 -2,11 -6,17 -4,5 -10,7 -18,7l-72 0c-14,0 -26,5 -35,14 -5,5 -8,10 -10,16 -3,6 -4,12 -4,19l0 145c0,14 5,25 14,35 5,4 10,7 16,10 7,2 13,3 19,3l72 0c7,0 13,3 17,8 5,5 7,10 7,16 0,6 -2,11 -6,17 -4,5 -10,7 -18,7zm265 -290l-96 0 0 266c0,8 -3,14 -7,19 -5,3 -10,5 -17,5 -7,0 -12,-2 -17,-6 -5,-4 -7,-10 -7,-18l0 -289c0,-16 8,-24 24,-24l217 0c26,0 48,9 67,28 19,18 29,41 29,68l0 217c0,8 -2,14 -7,19 -4,3 -10,5 -17,5 -6,0 -12,-2 -17,-6 -5,-4 -7,-10 -7,-18l0 -217c0,-14 -5,-25 -14,-35 -9,-9 -20,-14 -34,-14l-49 0 0 266c0,8 -2,14 -7,19 -4,3 -10,5 -17,5 -6,0 -12,-2 -17,-6 -4,-4 -7,-10 -7,-18l0 -266zm483 194l0 -145c0,-13 -5,-25 -14,-34 -9,-9 -20,-14 -34,-14l-49 0c-14,0 -25,5 -35,14 -4,4 -8,10 -10,16 -2,5 -3,12 -3,18l0 145c0,14 4,25 13,35 5,4 10,7 16,10 7,2 13,3 19,3l49 0c13,0 24,-4 34,-13 9,-9 14,-20 14,-35zm-145 -224l19 -13 29 -20c9,-7 16,-13 20,-18 6,-8 9,-16 9,-24 0,-11 -4,-20 -12,-28 -7,-6 -16,-10 -27,-10 -10,0 -19,4 -27,10 -8,6 -11,16 -11,28l0 75zm96 -16c31,0 55,9 73,28 16,17 24,40 24,67l0 145c0,26 -9,49 -28,68 -19,19 -42,28 -69,28l-48 0c-26,0 -48,-9 -68,-27 -19,-19 -28,-42 -28,-69l0 -299c0,-27 9,-49 26,-65 17,-15 37,-22 61,-22 22,0 42,7 60,23 17,15 26,36 26,64 0,15 -2,27 -7,35 -3,8 -11,16 -22,24zm387 336l-97 0c-26,0 -49,-9 -68,-28 -19,-18 -29,-41 -29,-68l0 -217c0,-7 3,-13 7,-18 5,-4 11,-6 17,-6 6,0 12,2 17,6 5,4 7,10 7,18l0 217c0,14 5,25 14,35 5,4 10,7 16,10 7,2 13,3 19,3l97 0 0 -265c0,-7 2,-13 7,-18 5,-4 10,-6 17,-6 6,0 11,2 16,6 5,4 8,10 8,18l0 362c0,26 -10,48 -29,68 -18,19 -41,28 -68,28l-97 0c-5,0 -11,-2 -17,-7 -5,-5 -7,-11 -7,-17 0,-6 2,-12 6,-17 4,-5 10,-7 19,-7l96 0c14,0 25,-4 35,-14 9,-9 14,-20 14,-34l0 -49zm385 -81l0 -175c0,-9 -3,-16 -10,-23 -6,-7 -14,-11 -24,-11l-29 0c-8,0 -16,4 -23,10 -7,7 -11,15 -11,24l0 175c0,9 4,17 10,24 4,3 7,5 12,7 4,2 9,2 12,2l29 0c10,0 18,-3 24,-9 7,-7 10,-15 10,-24zm-193 -111l49 0 0 -63c0,-23 7,-42 23,-58 16,-16 36,-24 58,-24l29 0c22,0 42,7 58,23 16,16 24,35 24,59l0 173c0,23 -8,42 -24,58 -16,16 -35,24 -58,24l-29 0c-22,0 -41,-8 -57,-24 -16,-15 -24,-35 -24,-57l0 -63 -49 0 0 120c0,8 -2,14 -7,19 -4,3 -10,5 -17,5 -7,0 -12,-2 -17,-6 -5,-4 -7,-10 -7,-18l0 -289c0,-7 2,-13 7,-18 5,-4 10,-6 17,-6 6,0 12,2 16,6 5,4 8,10 8,18l0 121zm530 144l98 0 0 -265c0,-7 2,-13 7,-18 5,-4 10,-6 17,-6 6,0 11,2 16,5 5,5 8,11 8,19l0 265 24 0c16,0 24,8 24,24l0 48c0,7 -3,13 -8,17 -5,5 -10,7 -16,7 -6,0 -11,-2 -17,-6 -5,-4 -7,-10 -7,-18l0 -24 -39 0 -203 0c-26,0 -49,-9 -68,-28 -19,-18 -28,-41 -28,-68l0 -217c0,-7 2,-13 7,-18 5,-4 10,-6 17,-6 6,0 11,2 16,6 5,4 8,10 8,18l0 217c0,14 4,25 13,35 5,4 10,7 16,10 7,2 13,3 19,3l48 0 0 -265c0,-7 3,-13 7,-18 5,-4 11,-6 17,-6 6,0 12,2 17,6 5,4 7,10 7,18l0 265zm480 24c0,16 -8,24 -24,24l-121 0c-26,0 -49,-9 -68,-28 -19,-18 -29,-41 -29,-68l0 -217c0,-7 3,-13 8,-18 4,-4 10,-6 16,-6 6,0 12,2 17,6 5,4 7,10 7,18l0 217c0,14 5,25 14,35 5,4 10,7 16,10 7,2 13,3 19,3l97 0 0 -265c0,-7 2,-13 7,-18 5,-4 10,-6 17,-6 6,0 11,2 16,6 5,4 8,10 8,18l0 289zm265 -410l-97 0c-7,0 -13,-2 -18,-7 -4,-5 -6,-11 -6,-17 0,-6 2,-11 6,-16 4,-6 10,-8 18,-8l97 0c6,0 12,2 17,7 5,5 7,11 7,17 0,5 -2,11 -6,16 -4,5 -10,8 -18,8zm72 410c0,16 -8,24 -24,24l-120 0c-26,0 -49,-9 -68,-27 -19,-19 -29,-42 -29,-69l0 -217c0,-6 2,-12 7,-18 5,-4 11,-6 17,-6 6,0 12,2 17,6 4,4 7,10 7,18l0 217c0,14 5,25 14,35 5,4 10,7 15,10 7,2 14,3 19,3l97 0 0 -265c0,-6 3,-12 7,-18 5,-4 11,-6 17,-6 6,0 12,2 17,6 5,4 7,10 7,18l0 289zm-2891 352l-97 0c-14,0 -26,5 -35,14 -5,5 -8,10 -10,16 -3,5 -4,12 -4,19l0 145c0,13 5,25 14,34 5,4 10,8 16,11 7,2 13,3 19,3l48 0c13,0 25,-4 34,-13 10,-9 15,-21 15,-35l0 -194zm0 -48l0 -48c0,-14 -5,-25 -14,-35 -9,-9 -21,-14 -35,-14l-96 0c-8,0 -14,-2 -18,-6 -5,-5 -7,-11 -7,-18 0,-5 2,-10 6,-16 4,-5 10,-8 18,-8l97 0c27,0 50,10 68,29 19,19 28,41 28,68l0 290c0,26 -9,49 -28,68 -19,19 -41,28 -68,28l-48 0c-26,0 -49,-9 -68,-28 -19,-19 -29,-41 -29,-68l0 -145c0,-27 10,-50 29,-69 18,-19 41,-28 68,-28l97 0zm192 145l145 0 0 -48c0,-14 -4,-25 -14,-35 -9,-9 -20,-14 -34,-14l-49 0c-13,0 -25,5 -34,14 -5,5 -8,10 -11,16 -2,6 -3,12 -3,19l0 48zm0 48l0 49c0,13 4,25 14,34 4,4 10,8 15,11 7,2 13,3 19,3l121 0c7,0 12,3 17,7 5,5 7,11 7,17 0,6 -2,11 -6,16 -4,5 -10,8 -18,8l-121 0c-26,0 -48,-9 -68,-28 -19,-19 -28,-42 -28,-68l0 -145c0,-26 9,-49 28,-68 18,-19 41,-29 68,-29l49 0c26,0 48,9 68,28 19,19 28,42 28,69l0 72c0,16 -8,24 -24,24l-169 0zm483 -48l0 -121c0,-6 2,-12 7,-18 5,-4 10,-6 17,-6 6,0 11,2 16,6 5,4 8,10 8,18l0 290c0,7 -3,14 -7,18 -4,4 -10,6 -17,6 -7,0 -12,-2 -17,-6 -5,-4 -7,-10 -7,-18l0 -121 -146 0 0 121c0,7 -2,14 -6,18 -5,4 -11,6 -18,6 -6,0 -12,-2 -16,-6 -5,-4 -8,-10 -8,-18l0 -290c0,-6 3,-12 8,-18 4,-4 10,-6 16,-6 7,0 12,2 17,6 5,4 7,10 7,18l0 121 146 0zm192 48l0 97 97 0c15,0 26,-5 35,-15 9,-10 13,-21 13,-34 0,-13 -4,-25 -11,-33 -4,-5 -9,-8 -16,-11 -6,-3 -13,-4 -21,-4l-97 0zm0 -48l97 0c30,0 54,10 72,30 16,18 24,40 24,66 0,26 -8,48 -23,67 -19,20 -43,30 -73,30l-121 0c-16,0 -24,-8 -24,-24l0 -290c0,-6 2,-12 7,-18 5,-4 11,-6 17,-6 6,0 12,2 17,6 5,4 7,10 7,18l0 121z"/>
   <path class="fil6" d="M16436 12786c-54,-984 -550,-1861 -1475,-2607 -1370,-1105 -3975,-1571 -5876,-1911 -1025,-183 -1994,-356 -2113,-548 -21,-33 -16,-51 -14,-60 71,-247 1037,-524 1676,-707 692,-198 1088,-317 1179,-463 26,-42 31,-92 15,-138 -73,-203 -714,-293 -2219,-430 -344,-31 -697,-63 -884,-93 72,-19 168,-39 287,-59l0 -229c-25,3 -51,6 -78,9 -1391,160 -1528,139 -1543,277 -11,105 88,152 130,172 137,64 628,123 1197,192 509,61 1079,130 1322,201 -193,71 -633,157 -944,218 -169,33 -328,64 -460,94 -835,186 -1654,416 -1981,833 -101,126 -135,287 -96,441 119,459 877,843 2254,1140 3780,815 4694,1702 5089,2462 416,801 -396,1480 -5684,5895l-544 454c-500,418 -1027,859 -1571,1316l8600 0c519,-710 1000,-1360 1428,-1936 1098,-1483 1824,-2462 1979,-2841l12 -31c98,-237 358,-865 314,-1651z"/>
   <path class="fil5" d="M6252 5747c0,0 -24,6 -59,19 -17,6 -38,14 -58,26 -10,6 -21,13 -30,23 -9,9 -15,24 -8,38 5,13 16,21 26,29 10,8 20,15 31,20 10,6 20,10 30,14 10,4 20,8 28,11 36,10 59,17 59,17l0 3c0,0 -24,-7 -60,-17 -8,-3 -18,-7 -28,-11 -9,-4 -20,-8 -30,-14 -11,-6 -21,-13 -32,-20 -10,-9 -21,-17 -26,-31 -7,-15 -1,-33 9,-42 9,-10 19,-17 30,-23 21,-12 41,-20 58,-26 35,-12 59,-19 59,-19l1 3z"/>
   <path class="fil5" d="M6549 5971l388 53 -1 4 -387 -53 0 -4z"/>
   <path class="fil5" d="M7323 6072l386 48 0 7 -386 -50 0 -5z"/>
   <path class="fil5" d="M8095 6173l386 61 -1 7 -385 -62 0 -6z"/>
   <path class="fil5" d="M8862 6325c0,0 24,8 58,24 17,9 38,19 55,39 9,10 15,30 7,45 -7,14 -18,22 -29,30 -43,30 -91,44 -126,56 -36,11 -59,18 -59,18l-2 -9c0,0 24,-6 59,-17 35,-12 83,-27 125,-55 10,-7 20,-16 26,-27 6,-12 2,-25 -6,-35 -15,-18 -36,-28 -52,-37 -34,-16 -58,-24 -58,-24l2 -8z"/>
   <path class="fil5" d="M8387 6638l-379 102 -2 -10 380 -102 1 10z"/>
   <path class="fil5" d="M7629 6847l-377 114 -2 -11 377 -114 2 11z"/>
   <path class="fil5" d="M6877 7086l-371 141 -3 -12 372 -140 2 11z"/>
   <path class="fil5" d="M6142 7395c0,0 -22,12 -55,31 -17,9 -36,19 -57,32 -20,12 -42,26 -63,39 -22,13 -42,30 -62,43 -10,7 -19,14 -28,21 -10,6 -17,14 -25,20 -29,26 -49,43 -49,43l-7 -12c0,0 20,-17 50,-43 8,-6 15,-14 25,-20 9,-7 18,-14 28,-21 20,-14 41,-30 63,-43 22,-14 43,-27 64,-40 20,-13 40,-22 56,-32 34,-18 56,-31 56,-31l4 13z"/>
   <path class="fil5" d="M5764 8006c0,0 20,17 49,43 15,13 35,23 54,37 10,7 20,13 31,20 11,6 22,12 33,18 22,12 44,24 65,34 22,9 42,18 59,26 34,15 57,24 57,24l-4 15c0,0 -23,-9 -57,-25 -17,-7 -38,-16 -59,-26 -21,-10 -44,-22 -66,-34 -11,-6 -22,-12 -33,-18 -11,-7 -22,-14 -32,-21 -20,-14 -40,-25 -55,-38 -29,-26 -49,-43 -49,-43l7 -12z"/>
   <path class="fil5" d="M6486 8335l379 107 -3 17 -379 -108 3 -16z"/>
   <path class="fil5" d="M7245 8541l380 95 -3 18 -380 -96 3 -17z"/>
   <path class="fil5" d="M8006 8730l380 95 -3 19 -380 -95 3 -19z"/>
   <path class="fil5" d="M8767 8920l380 98 -4 21 -380 -99 4 -20z"/>
   <path class="fil5" d="M9526 9118l379 105 -4 26 -379 -107 4 -24z"/>
   <path class="fil5" d="M10284 9333l377 115 -6 30 -377 -118 6 -27z"/>
   <path class="fil5" d="M11037 9571l374 131 -8 33 -373 -133 7 -31z"/>
   <path class="fil5" d="M11783 9844l368 153 -10 37 -368 -156 10 -34z"/>
   <path class="fil5" d="M12516 10167l357 190 -13 39 -357 -191 13 -38z"/>
   <path class="fil5" d="M13222 10574c0,0 84,61 168,121 42,33 83,66 113,91 31,25 52,42 52,42l-22 38c0,0 -20,-17 -50,-41 -30,-25 -70,-58 -111,-90 -84,-61 -168,-122 -168,-122l18 -39z"/>
   <path class="fil5" d="M13858 11136c0,0 17,22 42,55 13,16 28,34 42,57 15,22 31,46 47,69 8,12 15,25 22,37 7,12 14,25 21,36 14,23 25,46 35,66 19,40 31,66 31,66l-35 24c0,0 -13,-25 -31,-64 -9,-19 -20,-41 -33,-63 -7,-12 -13,-23 -20,-35 -7,-12 -14,-25 -21,-36 -15,-23 -31,-45 -45,-67 -13,-22 -29,-40 -41,-57 -25,-33 -42,-54 -42,-54l28 -34z"/>
   <path class="fil5" d="M14207 11995c0,0 -1,31 -1,76 -1,11 -1,23 -1,36 -1,14 -3,28 -4,42 -4,29 -5,61 -11,91 -6,30 -11,60 -17,89 -2,14 -7,27 -10,39 -3,13 -7,25 -10,36 -6,21 -11,40 -14,52 -4,13 -6,20 -6,20l-41 -21c0,0 2,-7 6,-19 3,-12 8,-29 14,-50 3,-11 6,-22 10,-34 3,-12 7,-25 9,-38 6,-27 11,-56 17,-84 6,-29 6,-58 10,-85 2,-13 3,-26 4,-39 1,-13 1,-25 1,-36 1,-45 1,-76 1,-76l43 1z"/>
   <path class="fil5" d="M13959 12912c0,0 -51,104 -101,207 -54,101 -108,202 -108,202l-39 -33c0,0 53,-100 107,-199 51,-103 102,-206 102,-206l39 29z"/>
   <path class="fil5" d="M13518 13712l-245 375 -39 -39 246 -374 38 38z"/>
   <path class="fil5" d="M13017 14453l-263 355 -41 -46 266 -353 38 44z"/>
   <path class="fil5" d="M12483 15157l-275 342 -42 -54 277 -339 40 51z"/>
   <path class="fil5" d="M11928 15835l-283 331 -45 -60 285 -328 43 57z"/>
   <path class="fil5" d="M11358 16493l-289 323 -48 -67 291 -320 46 64z"/>
   <path class="fil5" d="M10777 17135l-294 316 -51 -74 296 -313 49 71z"/>
   <path class="fil5" d="M10186 17764l-298 309 -53 -80 299 -307 52 78z"/>
   <path class="fil7" d="M5352 8008l0 -2357 -3316 0 0 574 3281 0 0 -57 -3210 0 0 -460 3175 0 0 2300 70 0z"/>
   <path class="fil7" d="M5299 7990c-231,0 -335,75 -335,98 0,22 104,97 335,97 231,0 336,-75 336,-97 0,-23 -105,-98 -336,-98zm0 283c-195,0 -406,-58 -406,-185 0,-128 211,-186 406,-186 196,0 406,58 406,186 0,127 -210,185 -406,185z"/>
   <path class="fil7" d="M5498 8088c0,41 -89,75 -199,75 -109,0 -198,-34 -198,-75 0,-42 89,-76 198,-76 110,0 199,34 199,76z"/>
   <path class="fil8" d="M7127 6015l-2 -2883 3175 0 0 554 -3211 0 0 69 3281 0 0 -692 -3316 0 3 2952 70 0z"/>
   <path class="fil8" d="M7107 5855c-231,0 -335,75 -335,97 0,23 104,98 335,98 231,0 335,-75 335,-98 0,-22 -104,-97 -335,-97zm0 283c-196,0 -406,-58 -406,-186 0,-127 210,-185 406,-185 196,0 406,58 406,185 0,128 -210,186 -406,186z"/>
   <path class="fil8" d="M7283 5961c0,41 -89,75 -198,75 -110,0 -199,-34 -199,-75 0,-42 89,-76 199,-76 109,0 198,34 198,76z"/>
   <path class="fil9" d="M13045 11311l-2 -3210 3175 0 0 351 -3210 0 0 44 3280 0 0 -439 -3316 0 3 3254 70 0z"/>
   <path class="fil9" d="M13025 11194c-231,0 -335,75 -335,98 0,23 104,98 335,98 231,0 336,-75 336,-98 0,-23 -105,-98 -336,-98zm0 284c-195,0 -406,-58 -406,-186 0,-127 211,-185 406,-185 196,0 406,58 406,185 0,128 -210,186 -406,186z"/>
   <path class="fil9" d="M13224 11292c0,42 -89,76 -199,76 -109,0 -198,-34 -198,-76 0,-42 89,-76 198,-76 110,0 199,34 199,76z"/>
   <path class="fil10" d="M8757 17208c-231,0 -336,75 -336,98 0,23 105,98 336,98 230,0 335,-75 335,-98 0,-23 -105,-98 -335,-98zm0 284c-196,0 -406,-58 -406,-186 0,-127 210,-185 406,-185 195,0 406,58 406,185 0,128 -211,186 -406,186z"/>
   <path class="fil10" d="M8955 17306c0,42 -89,76 -198,76 -110,0 -199,-34 -199,-76 0,-42 89,-76 199,-76 109,0 198,34 198,76z"/>
   <path class="fil10" d="M8774 17314l0 -4573 -3316 0 0 565 3281 0 0 -57 -3210 0 0 -451 3175 0 0 4516 70 0z"/>
   <g>
    <path class="fil11" d="M12558 15170l-2596 -251 -212 58 -84 3436 3000 -107 -108 -3136z"/>
    <path class="fil12" d="M9962 14919l-208 55 129 3249 209 -55 -130 -3249z"/>
    <path class="fil5" d="M10092 18168l2846 -77 -364 -2935 -2612 -237 130 3249z"/>
    <path class="fil13" d="M10277 15236c339,4 678,8 1018,12 339,4 679,7 1018,11 16,152 32,303 47,455 -343,-1 -686,-2 -1030,-3 -342,0 -686,-1 -1029,-2 -8,-157 -16,-315 -24,-473z"/>
    <path class="fil14" d="M10321 16086c90,0 180,-1 270,-1 -6,-97 -11,-195 -17,-292 -90,0 -179,0 -268,0 5,98 10,195 15,293z"/>
    <path class="fil14" d="M10622 16085c90,-1 180,-1 270,-2 -6,-96 -12,-193 -19,-290 -90,0 -179,0 -269,0 6,97 12,195 18,292z"/>
    <path class="fil14" d="M10923 16083c90,0 180,-1 270,-1 -7,-96 -14,-192 -21,-288 -90,-1 -179,-1 -268,0 6,96 13,193 19,289z"/>
    <path class="fil14" d="M11224 16082c90,-1 180,-1 270,-2 -7,-95 -15,-191 -23,-286 -90,0 -179,0 -268,0 7,96 14,192 21,288z"/>
    <path class="fil14" d="M11525 16080c90,0 180,-1 270,-1 -8,-95 -17,-190 -25,-285 -89,0 -179,0 -268,0 8,95 15,191 23,286z"/>
    <path class="fil14" d="M11826 16079c90,-1 180,-1 270,-1 -9,-95 -18,-190 -27,-284 -89,0 -179,0 -268,0 8,95 17,190 25,285z"/>
    <path class="fil14" d="M12127 16077c90,0 180,-1 271,-1 -10,-94 -20,-188 -29,-282 -90,0 -180,0 -269,0 9,94 18,189 27,283z"/>
    <path class="fil12" d="M11553 16428c91,-1 182,-2 273,-3 -9,-95 -17,-190 -25,-285 -91,1 -181,1 -271,2 8,95 16,191 23,286z"/>
    <path class="fil12" d="M11857 16425c91,-1 182,-2 273,-3 -10,-95 -19,-189 -28,-284 -90,1 -180,1 -271,2 9,95 17,190 26,285z"/>
    <path class="fil12" d="M12160 16421c91,-1 182,-2 273,-3 -10,-94 -19,-188 -29,-282 -91,1 -181,2 -271,2 9,95 18,189 27,283z"/>
    <path class="fil12" d="M10358 16798c91,-1 183,-3 274,-5 -5,-97 -11,-194 -17,-291 -91,1 -182,2 -272,3 5,98 10,196 15,293z"/>
    <path class="fil12" d="M10664 16793c91,-2 183,-3 275,-5 -7,-97 -13,-193 -19,-290 -92,1 -183,2 -274,3 6,98 12,195 18,292z"/>
    <path class="fil12" d="M10970 16787c91,-1 183,-3 274,-5 -7,-96 -14,-192 -21,-288 -91,1 -182,2 -272,3 6,97 12,194 19,290z"/>
    <path class="fil12" d="M11276 16782c91,-2 183,-4 274,-5 -7,-96 -15,-191 -23,-287 -91,1 -182,2 -272,4 7,96 14,192 21,288z"/>
    <path class="fil12" d="M11582 16776c91,-1 183,-3 274,-5 -8,-95 -16,-190 -25,-285 -91,1 -182,3 -273,4 8,95 16,191 24,286z"/>
    <path class="fil12" d="M11888 16771c91,-2 183,-3 274,-5 -8,-95 -18,-189 -27,-284 -91,2 -182,3 -273,4 9,95 17,190 26,285z"/>
    <path class="fil12" d="M12194 16765c91,-1 183,-3 275,-5 -10,-94 -20,-187 -30,-282 -91,2 -182,3 -273,4 9,94 19,189 28,283z"/>
    <path class="fil12" d="M10376 17154c92,-2 185,-4 277,-6 -6,-98 -11,-195 -17,-292 -92,1 -183,3 -275,5 5,98 10,195 15,293z"/>
    <path class="fil12" d="M10685 17147c92,-2 184,-5 277,-7 -7,-97 -13,-193 -20,-290 -91,2 -183,3 -275,5 6,97 12,195 18,292z"/>
    <path class="fil12" d="M10993 17140c92,-3 185,-5 277,-7 -7,-97 -14,-193 -21,-289 -92,2 -184,4 -275,5 6,97 13,194 19,291z"/>
    <path class="fil12" d="M11302 17132c92,-2 184,-5 276,-7 -7,-95 -15,-191 -23,-287 -91,2 -183,4 -275,5 7,96 15,193 22,289z"/>
    <path class="fil12" d="M11610 17124c92,-2 185,-4 277,-7 -8,-94 -17,-190 -25,-285 -92,2 -184,4 -275,6 8,95 15,191 23,286z"/>
    <path class="fil12" d="M11919 17117c92,-2 184,-5 277,-7 -10,-94 -19,-189 -28,-283 -91,1 -183,3 -275,5 9,95 17,190 26,285z"/>
    <path class="fil12" d="M12227 17109c92,-2 185,-4 277,-7 -10,-93 -19,-188 -29,-281 -92,1 -184,3 -276,5 10,94 19,189 28,283z"/>
    <path class="fil12" d="M10395 17510c93,-2 186,-5 279,-8 -6,-97 -11,-195 -17,-292 -93,2 -185,5 -277,7 5,98 10,196 15,293z"/>
    <path class="fil12" d="M10706 17501c93,-3 186,-6 279,-8 -6,-97 -13,-194 -19,-291 -93,3 -185,5 -277,7 5,97 11,195 17,292z"/>
    <path class="fil12" d="M11017 17491c93,-2 186,-5 279,-8 -7,-96 -14,-192 -21,-289 -93,3 -185,5 -278,7 7,97 13,194 20,290z"/>
    <path class="fil12" d="M11328 17482c93,-3 186,-6 279,-9 -8,-95 -16,-191 -23,-287 -93,3 -186,5 -278,7 7,96 15,193 22,289z"/>
    <path class="fil12" d="M11639 17473c93,-3 186,-6 279,-9 -9,-95 -17,-190 -26,-286 -92,3 -184,5 -277,8 8,95 16,191 24,287z"/>
    <path class="fil12" d="M11949 17463c94,-3 187,-6 280,-9 -10,-94 -19,-189 -28,-283 -92,2 -184,4 -277,7 8,95 17,190 25,285z"/>
    <path class="fil12" d="M12260 17453c93,-3 187,-5 280,-8 -10,-94 -20,-188 -30,-282 -92,2 -185,4 -277,7 9,94 18,189 27,283z"/>
    <path class="fil12" d="M10414 17866c93,-3 187,-7 281,-10 -6,-97 -12,-194 -18,-292 -93,3 -186,6 -279,9 5,98 10,196 16,293z"/>
    <path class="fil12" d="M10727 17855c93,-4 187,-7 281,-11 -6,-96 -13,-193 -19,-290 -93,3 -186,6 -280,9 6,98 12,195 18,292z"/>
    <path class="fil12" d="M11040 17843c94,-3 187,-7 281,-10 -7,-96 -14,-192 -21,-288 -93,2 -186,5 -279,9 6,96 13,193 19,289z"/>
    <path class="fil12" d="M11354 17832c93,-4 187,-7 281,-11 -8,-95 -16,-191 -23,-286 -94,3 -187,6 -280,9 7,96 14,192 22,288z"/>
    <path class="fil12" d="M11667 17820c94,-3 187,-7 281,-10 -8,-95 -17,-190 -25,-285 -93,3 -186,6 -280,9 8,95 16,191 24,286z"/>
    <path class="fil12" d="M11980 17809c94,-4 188,-7 282,-11 -9,-94 -18,-189 -28,-283 -93,3 -186,6 -279,9 8,95 17,190 25,285z"/>
    <path class="fil12" d="M9883 18223l2892 -82 163 -50 -2846 77 -209 55z"/>
    <path class="fil15" d="M9964 14965c-1,-15 -2,-30 -2,-45l2 45z"/>
    <path class="fil16" d="M12705 16272l-299 -116c-1,-6 -1,-13 -2,-20 -16,0 -33,0 -49,1l-155 -60c66,-1 132,-1 198,-1 -10,-94 -20,-188 -29,-282 -30,0 -60,0 -90,0 -60,0 -119,0 -179,0 8,85 16,169 24,254l-32 -13c-7,-80 -15,-161 -23,-241 -59,0 -119,0 -179,0 -30,0 -59,0 -89,0 4,44 8,89 12,133l-32 -12c-4,-40 -7,-81 -11,-121 -89,0 -179,0 -268,0 0,4 1,9 1,14l-32 -12c0,-1 0,-2 0,-2 -1,0 -3,0 -5,0l-213 -83c26,0 51,0 77,0 344,1 687,2 1030,3l0 0c-15,-152 -31,-303 -47,-455 -339,-4 -679,-7 -1018,-11 -340,-4 -679,-8 -1018,-12 2,34 3,67 5,101l-99 -38c-130,-50 -206,-162 -219,-334l-2 -45c0,-1 0,-1 0,-1l487 44 407 40c1,-1 2,-2 2,-2l1716 155 124 999c-3,-1 -5,-1 -7,-2l14 119z"/>
    <path class="fil17" d="M12360 15714c-343,-1 -686,-2 -1030,-3 -26,0 -51,0 -77,0l-971 -374c-2,-34 -3,-67 -5,-101 339,4 678,8 1018,12 339,4 679,7 1018,11 16,152 32,303 47,455z"/>
    <path class="fil18" d="M11471 15796l-5 -2c2,0 4,0 5,0 0,0 0,1 0,2z"/>
    <path class="fil18" d="M11781 15915l-278 -107c0,-5 -1,-10 -1,-14 89,0 179,0 268,0 4,40 7,81 11,121z"/>
    <path class="fil18" d="M12092 16035l-279 -108c-4,-44 -8,-89 -12,-133 30,0 59,0 89,0 60,0 120,0 179,0 8,80 16,161 23,241z"/>
    <path class="fil18" d="M12200 16077l-76 -29c-8,-85 -16,-169 -24,-254 60,0 119,0 179,0 30,0 60,0 90,0 9,94 19,188 29,282 -66,0 -132,0 -198,1z"/>
    <path class="fil15" d="M12406 16156l-51 -19c16,-1 33,-1 49,-1 1,7 1,14 2,20z"/>
    <path class="fil19" d="M9962 14919c6,156 87,301 243,349 106,32 599,169 776,82 131,-64 125,-181 175,-322l-1194 -109z"/>
    <path class="fil20" d="M12873 16215l-2671 -948c106,33 249,20 427,-67 541,-265 439,-1190 1517,-1800l2058 1546c-223,46 -580,233 -892,527 -159,150 7,635 -439,742z"/>
   </g>
   <g>
    <path class="fil21" d="M2503 7660c-35,0 -63,-25 -63,-56 0,-31 28,-56 63,-56l0 112zm244 0l-244 0 0 -112 244 0 0 112zm0 -112c35,0 63,25 63,56 0,31 -28,56 -63,56l0 -112z"/>
   </g>
   <g>
    <path class="fil21" d="M3588 6739c0,31 -29,56 -63,56 -35,0 -64,-25 -64,-56l127 0zm0 -244l0 244 -127 0 0 -244 127 0zm-127 0c0,-31 29,-57 64,-57 34,0 63,26 63,57l-127 0z"/>
   </g>
   <g>
    <path class="fil21" d="M3765 6739c0,31 -29,56 -64,56 -35,0 -63,-25 -63,-56l127 0zm0 -244l0 244 -127 0 0 -244 127 0zm-127 0c0,-31 28,-57 63,-57 35,0 64,26 64,57l-127 0z"/>
   </g>
   <g>
    <path class="fil21" d="M4479 7660c-35,0 -64,-25 -64,-56 0,-31 29,-56 64,-56l0 112zm243 0l-243 0 0 -112 243 0 0 112zm0 -112c35,0 64,25 64,56 0,31 -29,56 -64,56l0 -112z"/>
   </g>
   <g>
    <path class="fil21" d="M3676 8714c0,31 -28,56 -63,56 -35,0 -63,-25 -63,-56l126 0zm0 -244l0 244 -126 0 0 -244 126 0zm-126 0c0,-31 28,-56 63,-56 35,0 63,25 63,56l-126 0z"/>
   </g>
   <path class="fil22" d="M3661 7817l-96 0 -63 0 79 -1208 63 0 80 1208 -63 0z"/>
   <path class="fil22" d="M3665 7758l-97 1 -63 1 74 -781 63 0 86 779 -63 0z"/>
   <g>
    <path class="fil23" d="M3160 6697c16,28 4,62 -27,76 -31,14 -69,3 -85,-24l112 -52zm-46 -79l46 79 -112 52 -46 -80 112 -51zm-112 51c-16,-28 -4,-62 27,-76 31,-14 69,-3 85,25l-112 51zm1109 -51c16,-28 54,-39 86,-25 31,14 43,48 27,76l-113 -51zm-46 79l46 -79 113 51 -46 80 -113 -52zm113 52c-16,27 -54,38 -85,24 -31,-14 -43,-48 -28,-76l113 52zm361 253c30,-17 69,-9 88,17 19,26 10,61 -19,78l-69 -95zm-79 46l79 -46 69 95 -79 46 -69 -95zm69 95c-30,16 -69,9 -88,-17 -19,-26 -10,-61 19,-78l69 95zm79 969c29,17 38,51 19,78 -19,26 -58,33 -88,16l69 -94zm-79 -46l79 46 -69 94 -79 -46 69 -94zm-69 94c-29,-17 -38,-52 -19,-78 19,-26 58,-33 88,-16l-69 94zm-236 379c16,28 4,62 -27,76 -32,14 -70,3 -86,-24l113 -52zm-46 -79l46 79 -113 52 -46 -80 113 -51zm-113 51c-15,-27 -3,-61 28,-76 31,-14 69,-3 85,25l-113 51zm-1017 -51c16,-28 54,-39 85,-25 31,15 43,49 27,76l-112 -51zm-46 79l46 -79 112 51 -46 80 -112 -52zm112 52c-16,27 -54,38 -85,24 -31,-14 -43,-48 -27,-76l112 52zm-417 -525c29,-17 69,-10 88,16 19,26 10,61 -19,78l-69 -94zm-79 46l79 -46 69 94 -80 46 -68 -94zm68 94c-29,17 -68,10 -87,-16 -19,-27 -11,-61 19,-78l68 94zm80 -1158c29,17 38,52 19,78 -19,26 -59,33 -88,17l69 -95zm-80 -46l80 46 -69 95 -79 -46 68 -95zm-68 95c-30,-17 -38,-52 -19,-78 19,-26 58,-34 87,-17l-68 95z"/>
   </g>
   <path class="fil24 str2" d="M3555 6430c650,0 1176,527 1176,1176 0,649 -526,1176 -1176,1176 -649,0 -1175,-527 -1175,-1176 0,-649 526,-1176 1175,-1176z"/>
   <path class="fil25 str3" d="M3214 8058c0,-40 4,-72 12,-96 8,-25 20,-43 37,-56 16,-13 36,-20 60,-20 18,0 34,4 48,11 13,7 25,18 33,31 9,14 16,31 21,50 5,20 8,47 8,80 0,39 -4,71 -12,96 -8,24 -21,43 -37,56 -16,13 -36,19 -61,19 -32,0 -57,-11 -76,-34 -22,-28 -33,-74 -33,-137zm42 0c0,55 7,92 19,110 13,19 29,28 48,28 19,0 35,-10 48,-28 13,-18 19,-55 19,-110 0,-55 -6,-92 -19,-110 -13,-19 -29,-28 -48,-28 -19,0 -34,8 -46,24 -14,21 -21,59 -21,114zm242 -31l0 -47 47 0 0 47 -47 0zm0 197l0 -47 47 0 0 47 -47 0zm108 -166c0,-40 4,-72 12,-96 8,-25 20,-43 36,-56 16,-13 37,-20 61,-20 18,0 34,4 48,11 13,7 24,18 33,31 9,14 16,31 21,50 5,20 7,47 7,80 0,39 -4,71 -12,96 -8,24 -20,43 -36,56 -16,13 -36,19 -61,19 -32,0 -58,-11 -76,-34 -22,-28 -33,-74 -33,-137zm42 0c0,55 6,92 19,110 13,19 29,28 48,28 19,0 35,-10 48,-28 13,-18 19,-55 19,-110 0,-55 -6,-92 -19,-110 -13,-19 -29,-28 -48,-28 -19,0 -35,8 -46,24 -14,21 -21,59 -21,114zm219 0c0,-40 4,-72 12,-96 8,-25 20,-43 37,-56 16,-13 36,-20 60,-20 18,0 34,4 48,11 13,7 25,18 33,31 9,14 16,31 21,50 5,20 8,47 8,80 0,39 -4,71 -12,96 -8,24 -21,43 -37,56 -16,13 -36,19 -61,19 -32,0 -57,-11 -76,-34 -22,-28 -33,-74 -33,-137zm42 0c0,55 7,92 19,110 13,19 29,28 48,28 19,0 35,-10 48,-28 13,-18 19,-55 19,-110 0,-55 -6,-92 -19,-110 -13,-19 -29,-28 -48,-28 -19,0 -34,8 -46,24 -14,21 -21,59 -21,114z"/>
   <g>
    <path class="fil26" d="M11228 5723c0,-1 0,-1 0,-2 -1,0 -2,0 -2,0 1,1 2,1 2,2z"/>
    <path class="fil27" d="M11240 4849l1 0 -1 -1 0 1z"/>
    <path class="fil27" d="M11240 4850l0 -1 0 0 0 1z"/>
    <path class="fil27" d="M11160 5034c0,-1 0,-1 1,-1 -2,0 -4,-1 -5,-1 1,1 3,1 4,2z"/>
    <path class="fil27" d="M11036 5128l26 -17 -24 15c-1,0 -1,1 -2,2z"/>
    <path class="fil28" d="M10582 6796c0,0 0,1 0,1 -1,0 -1,-1 0,-1z"/>
    <path class="fil28" d="M10576 6779c4,-3 7,-5 11,-7 -4,2 -7,4 -11,7z"/>
    <path class="fil28" d="M10594 6767c0,0 0,1 0,1 -2,1 -4,2 -6,3 2,-1 4,-2 6,-4z"/>
    <g>
     <path class="fil21" d="M11530 3649c4,15 -6,30 -23,34 -18,4 -35,-6 -39,-21l62 -13zm-89 -332l89 332 -62 13 -88 -332 61 -13zm-61 13c-5,-15 6,-31 23,-34 17,-4 34,6 38,21l-61 13z"/>
    </g>
    <path class="fil29" d="M11725 5955l0 -2712 -474 468 0 2712 474 -468z"/>
    <path class="fil30" d="M9572 3724l0 -233 1652 0 0 233 -1652 0z"/>
    <path class="fil31" d="M11719 3258l0 -255 -495 488 0 256 495 -489z"/>
    <g>
     <path class="fil32" d="M10078 3023l1620 0 -474 468 -1619 0 473 -468z"/>
     <path id="1" class="fil33" d="M11698 3051l-1620 0 0 -55 1620 0 19 47 -19 8zm0 -55c15,0 28,12 28,27 0,16 -13,28 -28,28l0 -55zm-493 475l474 -467 38 39 -474 468 -19 8 -19 -48zm38 40c-10,11 -28,11 -39,0 -10,-11 -10,-29 1,-40l38 40zm-1638 -48l1619 0 0 56 -1619 0 -20 -48 20 -8zm0 56c-16,0 -28,-12 -28,-28 0,-15 12,-28 28,-28l0 56zm493 -476l-474 468 -39 -40 474 -467 19 -8 20 47zm-39 -39c11,-11 28,-11 39,0 11,11 11,29 0,39l-39 -39z"/>
    </g>
    <path class="fil34" d="M9605 6436l0 -2712 1619 0 0 2712 -1619 0z"/>
    <path class="fil29" d="M10078 5984l1620 0 -474 468 -1619 0 473 -468z"/>
    <path class="fil35" d="M11193 5984l0 468 474 -468 -474 0z"/>
    <g>
     <path class="fil36" d="M10131 3303c-25,0 -46,-22 -46,-49 0,-27 21,-48 46,-48l0 97zm984 0l-984 0 0 -97 984 0 0 97zm0 -97c25,0 46,21 46,48 0,27 -21,49 -46,49l0 -97z"/>
    </g>
    <g>
     <path class="fil37" d="M10106 5969c0,15 -12,27 -28,27 -15,0 -27,-12 -27,-27l55 0zm0 -2176l0 2176 -55 0 0 -2176 55 0zm-55 0c0,-15 12,-27 27,-27 16,0 28,12 28,27l-55 0z"/>
    </g>
    <g>
     <path class="fil38" d="M11726 3276l0 2688 -56 0 0 -2688 8 -20 48 20zm-56 0c0,-15 13,-28 28,-28 15,0 28,13 28,28l-56 0zm-465 448l473 -468 40 39 -474 468 -48 -19 9 -20zm39 39c-11,11 -29,11 -40,0 -10,-11 -10,-28 1,-39l39 39zm-48 2669l0 -2688 56 0 0 2688 -8 19 -48 -19zm56 0c0,15 -12,27 -28,27 -15,0 -28,-12 -28,-27l56 0zm466 -449l-474 468 -39 -39 473 -468 48 20 -8 19zm-40 -39c11,-10 29,-10 40,0 11,11 11,29 0,39l-40 -39z"/>
    </g>
    <g>
     <path class="fil38" d="M9630 3724l0 2712 -55 0 0 -2712 28 -27 27 27zm-55 0c0,-15 12,-27 28,-27 15,0 27,12 27,27l-55 0zm1647 27l-1619 0 0 -54 1619 0 28 27 -28 27zm0 -54c16,0 28,12 28,27 0,15 -12,27 -28,27l0 -54zm-28 2739l0 -2712 56 0 0 2712 -28 27 -28 -27zm56 0c0,15 -12,27 -28,27 -15,0 -28,-12 -28,-27l56 0zm-1647 -27l1619 0 0 54 -1619 0 -28 -27 28 -27zm0 54c-16,0 -28,-12 -28,-27 0,-14 12,-27 28,-27l0 54z"/>
    </g>
    <g>
     <path class="fil33" d="M11679 3258c11,-11 28,-11 39,0 10,11 10,29 -1,40l-38 -40zm-453 446l453 -446 38 40 -453 446 -19 8 -19 -48zm38 40c-11,11 -28,11 -39,0 -10,-11 -10,-29 1,-40l38 40zm-1659 -48l1640 0 0 56 -1640 0 0 -56zm0 56c-16,0 -28,-12 -28,-28 0,-15 12,-28 28,-28l0 56z"/>
    </g>
    <path class="fil39 str4" d="M11295 3061c-9,18 -1,39 17,47 18,9 39,1 47,-17"/>
    <path class="fil39 str4" d="M11612 3441c-20,4 -32,22 -28,42 3,19 22,32 41,28"/>
    <path class="fil39 str4" d="M9894 3406c4,20 22,33 42,29 19,-3 32,-22 28,-41"/>
    <path class="fil39 str4" d="M9699 3872c19,1 36,-13 38,-33 1,-20 -14,-37 -33,-38"/>
    <path class="fil38 str5" d="M10040 4506c0,-25 -11,-42 -34,-49 16,-9 23,-21 23,-41l0 -10c0,-35 -20,-53 -59,-53l-37 0c-11,0 -15,7 -15,14l0 191c0,7 4,14 15,14l47 0c40,0 60,-21 60,-56l0 -10zm-93 -32l33 0c22,0 30,13 30,32l0 10c0,19 -8,28 -30,28l-33 0 0 -70zm0 -27l0 -66 23 0c21,0 30,6 30,25l0 10c0,19 -9,31 -30,31l-23 0zm179 -9l-22 0 0 -74c0,-7 -4,-14 -15,-14 -10,0 -14,7 -14,14l0 193c0,8 4,15 14,15l37 0c40,0 58,-21 58,-56l0 -19c0,-34 -18,-59 -58,-59zm-22 28l22 0c21,0 29,12 29,31l0 19c0,19 -8,28 -29,28l-22 0 0 -78zm131 95l0 -197c0,-7 -4,-14 -14,-14 -10,0 -15,7 -15,14l0 197c0,7 4,14 15,14 10,0 14,-7 14,-14zm103 -121l-28 0 0 -59 63 0c7,0 14,-4 14,-14 0,-9 -7,-14 -14,-14l-78 0c-10,0 -14,6 -14,14l0 191c0,7 4,14 14,14l43 0c40,0 58,-21 58,-56l0 -18c0,-35 -18,-58 -58,-58zm29 76c0,19 -7,28 -29,28l-28 0 0 -78 28 0c22,0 29,12 29,31l0 19zm91 -105c0,-20 6,-33 28,-33l9 0c22,0 29,13 29,33l0 103c0,20 -7,33 -29,33l-9 0c-22,0 -28,-13 -28,-33l0 -103zm95 0c0,-35 -18,-61 -58,-61l-9 0c-40,0 -58,26 -58,61l0 103c0,35 18,61 58,61l9 0c40,0 58,-26 58,-61l0 -103zm72 48l0 -78 32 0c21,0 29,9 29,28l0 19c0,19 -8,31 -29,31l-32 0zm32 28c39,0 58,-25 58,-59l0 -19c0,-35 -19,-56 -58,-56l-47 0c-10,0 -15,7 -15,14l0 194c0,7 5,14 15,14 11,0 15,-7 15,-14l0 -74 32 0zm144 -49l-21 0 0 -74c0,-7 -5,-14 -15,-14 -10,0 -15,7 -15,14l0 193c0,8 5,15 15,15l36 0c40,0 58,-21 58,-56l0 -19c0,-34 -18,-59 -58,-59zm-21 28l21 0c22,0 29,12 29,31l0 19c0,19 -7,28 -29,28l-21 0 0 -78zm131 95l0 -197c0,-7 -4,-14 -14,-14 -10,0 -15,7 -15,14l0 197c0,7 4,14 14,14 10,0 15,-7 15,-14z"/>
   </g>
   <g>
    <path class="fil40" d="M15754 11678l2351 0 160 127 -2351 0 -160 -127z"/>
    <path class="fil41" d="M15974 7899l1963 0c64,0 117,47 117,103l0 2622c0,57 -53,103 -117,103l-1963 0c-64,0 -116,-46 -116,-103l0 -2622c0,-56 52,-103 116,-103z"/>
    <path class="fil42" d="M16244 7965l1647 0c53,0 97,44 97,97l0 2494c0,54 -44,98 -97,98l-1647 0c-53,0 -97,-44 -97,-98l0 -2494c0,-53 44,-97 97,-97z"/>
    <path class="fil43" d="M16618 11727l796 0 0 -1000 -796 0 0 1000z"/>
    <path class="fil44" d="M16238 8101l1544 0c51,0 92,42 92,92l0 2368c0,51 -41,93 -92,93l-1544 0c-50,0 -91,-42 -91,-93l0 -2368c0,-50 41,-92 91,-92z"/>
    <path class="fil41" d="M16874 11727l540 0 0 -840 -540 0 0 840z"/>
    <path class="fil45" d="M15858 9156l0 1 -2 0 2 -1z"/>
    <path class="fil46" d="M15858 8195l0 3 -9 0 9 -3z"/>
    <path class="fil47" d="M15847 11752l2351 0 67 53 0 0 -2351 0 -67 -53z"/>
    <path class="fil47" d="M15776 11696l842 0 0 31 256 0 540 0 0 -31 713 0 71 56 -2351 0 -71 -56z"/>
    <path class="fil47" d="M18127 11696l-713 0 0 -18 691 0 22 18zm-1509 0l-842 0 -22 -18 864 0 0 18z"/>
    <path class="fil48" d="M16400 10680l1379 0 0 47 -1049 0 -330 0 0 -47z"/>
    <path class="fil48" d="M16171 10624l0 0c17,18 41,30 67,30l1544 0 109 0c27,0 52,-12 70,-30l6 0c-17,23 -45,38 -76,38l-112 0 0 18 -1379 0 0 -26 -156 0 -6 0c-26,0 -50,-12 -67,-30zm-313 0l0 0 0 0 0 0z"/>
    <path class="fil48" d="M16147 10568l0 0c1,21 10,41 24,56l0 0c-14,-15 -23,-35 -24,-56zm1840 0l1 0c-1,21 -8,40 -21,56l-6 0c14,-15 24,-35 26,-56zm-2129 56l0 -56 0 56z"/>
    <path class="fil49" d="M17988 10568l-1 0c1,-4 1,-8 1,-12l0 -45 0 53 0 4zm-1841 0l0 0c0,-3 0,-5 0,-7l0 0c0,2 0,4 0,7zm-289 0l0 -57 0 57z"/>
    <path class="fil50" d="M17988 10511l0 -56 0 56zm-2130 0l0 -56 0 56z"/>
    <path class="fil51" d="M17988 10455l0 -57 0 57zm-2130 0l0 -57 0 57z"/>
    <path class="fil52" d="M17988 8255l0 -57 0 57zm-2130 0l0 -57 0 57z"/>
    <path class="fil52" d="M17988 8198l0 -56 0 56zm-2130 0l0 -56 0 56z"/>
    <path class="fil52" d="M17988 8142l0 -57 0 57zm-2130 0l0 -57 0 57z"/>
    <path class="fil52" d="M17988 8085l0 -23 0 23zm-2130 0l0 -8 0 -48 0 56z"/>
    <path class="fil53" d="M15858 8029l0 -27c0,-10 2,-20 5,-30 -3,10 -5,20 -5,30l0 27zm2191 -57c2,8 4,16 4,24 0,-8 -2,-16 -4,-24z"/>
    <path class="fil54" d="M16618 11696l256 0 0 31 -256 0 0 -31z"/>
    <path class="fil54" d="M16618 11639l256 0 0 57 -256 0 0 -18 0 -39z"/>
    <path class="fil54" d="M16618 11583l256 0 0 56 -256 0 0 -56z"/>
    <path class="fil54" d="M16618 11527l256 0 0 56 -256 0 0 -56z"/>
    <path class="fil54" d="M16618 11470l256 0 0 57 -256 0 0 -57z"/>
    <path class="fil55" d="M16618 11414l256 0 0 56 -256 0 0 -1 0 -55z"/>
    <path class="fil55" d="M16618 11357l256 0 0 57 -256 0 0 -57z"/>
    <path class="fil55" d="M16618 11301l256 0 0 56 -256 0 0 -56z"/>
    <path class="fil55" d="M16618 11245l256 0 0 56 -256 0 0 -56z"/>
    <path class="fil56" d="M16618 11188l256 0 0 57 -256 0 0 -57z"/>
    <path class="fil56" d="M16618 11132l256 0 0 56 -256 0 0 -56z"/>
    <path class="fil56" d="M16618 11075l256 0 0 57 -256 0 0 -57z"/>
    <path class="fil56" d="M16618 11019l256 0 0 56 -256 0 0 -56z"/>
    <path class="fil57" d="M16618 10962l256 0 0 57 -256 0 0 -57z"/>
    <path class="fil57" d="M16618 10906l256 0 0 56 -256 0 0 -56z"/>
    <path class="fil58" d="M16618 10850l795 0 0 37 -539 0 0 19 -256 0 0 -56z"/>
    <path class="fil58" d="M16618 10793l795 0 0 57 -795 0 0 -57z"/>
    <path class="fil59" d="M16618 10737l795 0 0 56 -795 0 0 -56z"/>
    <path class="fil59" d="M17413 10727l0 10 -795 0 0 -10 112 0 683 0z"/>
    <path class="fil60" d="M16171 10624l1678 0c-16,18 -40,30 -67,30l0 0 -1544 0c-26,0 -50,-12 -67,-30z"/>
    <path class="fil60" d="M16147 10568l1727 0c-2,21 -11,41 -25,56l-1678 0c-14,-15 -23,-35 -24,-56z"/>
    <path class="fil60" d="M16147 10511l1727 0 0 56 0 1 -1727 0c0,-3 0,-5 0,-7l0 -5 0 -45z"/>
    <path class="fil60" d="M16147 10455l1727 0 0 56 -1727 0 0 -56z"/>
    <path class="fil60" d="M16147 10398l1727 0 0 57 -1727 0 0 -57z"/>
    <path class="fil60" d="M16147 10342l1727 0 0 56 -1727 0 0 -42 0 -14z"/>
    <path class="fil60" d="M16147 10285l1727 0 0 57 -1727 0 0 -57z"/>
    <path class="fil60" d="M16147 10229l1727 0 0 56 -1727 0 0 -56z"/>
    <path class="fil60" d="M16147 10173l1727 0 0 56 -1727 0 0 -56z"/>
    <path class="fil60" d="M16147 10116l1727 0 0 57 -1727 0 0 -57z"/>
    <path class="fil60" d="M16147 10060l1727 0 0 56 -1727 0 0 -56z"/>
    <path class="fil60" d="M16147 10003l1727 0 0 57 -1727 0 0 -57z"/>
    <path class="fil60" d="M16147 9947l1727 0 0 56 -1727 0 0 -56z"/>
    <path class="fil60" d="M16147 9891l1727 0 0 56 -1727 0 0 -56z"/>
    <path class="fil60" d="M16147 9834l1727 0 0 57 -1727 0 0 -57z"/>
    <path class="fil60" d="M16147 9778l1727 0 0 56 -1727 0 0 -56z"/>
    <path class="fil60" d="M16147 9721l1727 0 0 57 -1727 0 0 -57z"/>
    <path class="fil60" d="M16147 9665l1727 0 0 56 -1727 0 0 -56z"/>
    <path class="fil60" d="M16147 9608l1727 0 0 57 -1727 0 0 -57z"/>
    <path class="fil60" d="M16147 9552l1727 0 0 56 -1727 0 0 -24 0 -32z"/>
    <path class="fil60" d="M16147 9496l1727 0 0 56 -1727 0 0 -56z"/>
    <path class="fil60" d="M16147 9439l1727 0 0 57 -1727 0 0 -9 0 -48z"/>
    <path class="fil60" d="M16147 9383l1727 0 0 56 -1727 0 0 -56z"/>
    <path class="fil60" d="M16147 9326l1727 0 0 57 -1727 0 0 -6 0 -51z"/>
    <path class="fil60" d="M16147 9270l1727 0 0 56 -1727 0 0 -56z"/>
    <path class="fil60" d="M16147 9214l1727 0 0 56 -1727 0 0 -56z"/>
    <path class="fil60" d="M16147 9157l1727 0 0 57 -1727 0 0 -57z"/>
    <path class="fil60" d="M16147 9101l1727 0 0 56 -1727 0 0 -56z"/>
    <path class="fil60" d="M16147 9044l1727 0 0 57 -1727 0 0 -57z"/>
    <path class="fil60" d="M16147 8988l1727 0 0 56 -1727 0 0 -56z"/>
    <path class="fil60" d="M16147 8931l1727 0 0 57 -1727 0 0 -57z"/>
    <path class="fil60" d="M16147 8875l1727 0 0 56 -1727 0 0 -56z"/>
    <path class="fil60" d="M16147 8819l1727 0 0 56 -1727 0 0 -56z"/>
    <path class="fil60" d="M16147 8762l1727 0 0 57 -1727 0 0 -57z"/>
    <path class="fil60" d="M16147 8706l1727 0 0 56 -1727 0 0 -21 0 -35z"/>
    <path class="fil61" d="M16147 8649l1727 0 0 57 -1727 0 0 -57z"/>
    <path class="fil61" d="M16147 8593l1727 0 0 56 -1727 0 0 -56z"/>
    <path class="fil61" d="M16147 8537l1727 0 0 56 -1727 0 0 -56z"/>
    <path class="fil61" d="M16147 8480l1727 0 0 57 -1727 0 0 -57z"/>
    <path class="fil62" d="M16147 8424l1727 0 0 56 -1727 0 0 -56z"/>
    <path class="fil62" d="M16147 8367l1727 0 0 57 -1727 0 0 -57z"/>
    <path class="fil62" d="M16147 8311l1727 0 0 56 -1727 0 0 -56z"/>
    <path class="fil62" d="M16147 8255l1727 0 0 56 -1727 0 0 -41 0 -15z"/>
    <path class="fil63" d="M16147 8198l1727 0 0 57 -1727 0 0 -57z"/>
    <path class="fil63" d="M16162 8142l1696 0c9,13 15,29 16,46l0 10 -1727 0 0 -5c0,-19 6,-37 15,-51z"/>
    <path class="fil63" d="M17858 8142l-1696 0c17,-25 45,-41 76,-41l1544 0c32,0 60,16 76,41z"/>
    <path class="fil64" d="M16874 11696l539 0 0 31 -539 0 0 -31z"/>
    <path class="fil65" d="M16874 11639l539 0 0 57 -539 0 0 -57z"/>
    <path class="fil65" d="M16874 11583l539 0 0 56 -539 0 0 -56z"/>
    <path class="fil65" d="M16874 11527l539 0 0 56 -539 0 0 -56z"/>
    <path class="fil65" d="M16874 11470l539 0 0 57 -539 0 0 -57z"/>
    <path class="fil66" d="M16874 11414l539 0 0 56 -539 0 0 -56z"/>
    <path class="fil66" d="M16874 11357l539 0 0 57 -539 0 0 -57z"/>
    <path class="fil66" d="M16874 11301l539 0 0 56 -539 0 0 -56z"/>
    <path class="fil66" d="M16874 11245l539 0 0 56 -539 0 0 -56z"/>
    <path class="fil66" d="M16874 11188l539 0 0 57 -539 0 0 -57z"/>
    <path class="fil67" d="M16874 11132l539 0 0 56 -539 0 0 -56z"/>
    <path class="fil68" d="M16874 11075l539 0 0 57 -539 0 0 -57z"/>
    <path class="fil48" d="M16874 11019l539 0 0 56 -539 0 0 -56z"/>
    <path class="fil48" d="M16874 10962l539 0 0 57 -539 0 0 -57z"/>
    <path class="fil48" d="M16874 10906l539 0 0 56 -539 0 0 -56z"/>
    <path class="fil48" d="M17413 10887l0 19 -539 0 0 -19 539 0z"/>
    <path class="fil69" d="M15858 9496l17 0 -17 7 0 -7z"/>
    <path class="fil70 str6" d="M16342 10210l-7 -195c0,-4 2,-8 5,-11 2,-3 6,-5 11,-5 5,0 9,1 12,4 2,2 4,6 5,11l5 138 200 47 8 5c3,2 5,6 4,11 1,5 -1,9 -4,12 -4,4 -9,5 -16,4l-191 -45 1 55 92 85c4,3 6,7 6,12 0,4 -1,8 -5,11 -3,3 -6,5 -10,6 -5,0 -9,-1 -13,-5l-218 -201c-3,-3 -4,-7 -4,-12 0,-4 1,-8 4,-11 3,-3 6,-5 10,-6 5,0 9,1 13,5l92 85zm272 -140l36 65c2,4 3,7 2,11 0,2 -1,5 -3,8 -3,3 -7,5 -12,5 -4,1 -8,0 -12,-3l-3 -5 -150 -274c-5,-8 -5,-15 0,-21 4,-5 11,-5 21,-1l284 128 5 3c3,3 4,7 4,12 0,5 -1,8 -4,11 -2,2 -4,3 -6,5 -3,1 -7,1 -13,-1l-68 -31 -81 88zm49 -103l-139 -62 73 134 66 -72zm140 -271l-85 -78c-3,-3 -5,-7 -5,-12 0,-4 1,-8 4,-11 3,-3 7,-5 11,-6 4,0 9,1 13,5l217 200c3,4 5,8 5,13 0,4 -2,8 -4,11 -3,3 -7,5 -11,6 -4,0 -8,-1 -12,-5l-109 -101 -89 97 108 100c4,4 6,8 6,12 0,4 -1,8 -5,12 -3,3 -6,5 -10,5 -5,1 -9,-1 -13,-5l-217 -200c-3,-3 -5,-7 -6,-12 0,-4 2,-8 5,-11 3,-3 6,-5 11,-6 4,0 8,1 12,5l85 78 89 -97zm211 14l-186 -214c-7,-7 -7,-14 1,-22l67 -72c7,-8 15,-9 23,-1l205 190 12 -13c7,-8 15,-8 23,-1l24 22c3,3 5,7 5,12 0,5 -1,8 -4,12 -3,2 -6,4 -11,5 -4,1 -8,-1 -12,-5l-12 -11 -112 121 12 12c3,3 5,6 5,11 0,5 -1,9 -4,12 -3,2 -6,4 -11,5 -4,1 -8,-1 -12,-4l-24 -23c-8,-7 -9,-15 -1,-23l12 -13zm88 -95l-193 -179 -46 49 173 201 66 -71zm235 -231c4,4 6,8 6,12 0,4 -2,8 -5,11 -3,4 -7,6 -11,6 -4,1 -8,-1 -12,-5l-171 -157 86 261c1,3 2,7 1,10l-1 4c0,2 -1,3 -2,5 -3,2 -6,4 -11,5 -5,-1 -9,-3 -14,-7l-217 -201c-3,-3 -5,-6 -6,-11 0,-5 2,-9 5,-12 3,-3 6,-5 11,-5 4,-1 8,1 12,4l171 158 -86 -261c-1,-3 -1,-6 -1,-11 0,-3 1,-6 3,-8 3,-3 6,-4 11,-4 5,0 9,2 14,6l217 200zm56 -84l-186 -214c-7,-7 -7,-14 1,-22l67 -73c7,-8 15,-8 23,-1l205 190 12 -12c7,-8 15,-9 23,-1l24 22c3,3 5,7 5,12 0,4 -1,8 -4,11 -3,3 -6,5 -11,5 -4,1 -8,0 -12,-4l-12 -11 -112 121 12 11c3,3 5,7 5,12 0,4 -1,8 -4,11 -3,3 -6,5 -11,6 -4,0 -8,-1 -12,-5l-24 -22c-8,-7 -9,-15 -1,-23l12 -13zm88 -96l-193 -179 -46 50 173 200 66 -71zm92 -172l36 65c2,3 2,7 2,10 0,3 -2,6 -4,9 -3,3 -7,5 -11,5 -5,1 -9,0 -12,-4l-3 -4 -151 -274c-4,-8 -4,-15 0,-21 5,-5 12,-5 21,-1l284 128 5 3c4,3 5,7 5,12 0,4 -1,8 -4,11 -2,2 -4,3 -7,5 -2,1 -6,1 -12,-1l-68 -31 -81 88zm49 -103l-139 -62 73 134 66 -72zm-33 -229l-45 48c-3,3 -7,5 -11,6 -5,-1 -9,-2 -12,-5 -3,-3 -5,-6 -5,-11 -1,-4 0,-8 4,-12l111 -121c4,-3 7,-5 12,-5 5,0 9,1 12,4 2,3 4,6 5,10 1,5 -1,9 -5,13l-44 48 205 190c4,4 6,8 6,12 0,4 -1,8 -5,11 -3,4 -6,6 -10,6 -5,1 -9,-1 -13,-5l-205 -189z"/>
   </g>
  </g>
 </g>
</svg>
