<?xml version="1.0" encoding="UTF-8"?>
<!DOCTYPE svg PUBLIC "-//W3C//DTD SVG 1.0//EN" "http://www.w3.org/TR/2001/REC-SVG-20010904/DTD/svg10.dtd">
<!-- Creator: CorelDRAW X7 -->
<svg xmlns="http://www.w3.org/2000/svg" xml:space="preserve" width="200mm" height="200mm" version="1.0" style="shape-rendering:geometricPrecision; text-rendering:geometricPrecision; image-rendering:optimizeQuality; fill-rule:evenodd; clip-rule:evenodd"
viewBox="0 0 20000 20000"
 xmlns:xlink="http://www.w3.org/1999/xlink">
 <defs>
  <style type="text/css">
   <![CDATA[
    .str1 {stroke:#4D897C;stroke-width:100}
    .str2 {stroke:#F9ECE4;stroke-width:150}
    .str0 {stroke:#4E897C;stroke-width:25}
    .str3 {stroke:#034540;stroke-width:122.85;stroke-linecap:round;stroke-linejoin:round}
    .fil20 {fill:none}
    .fil23 {fill:#FEFEFE}
    .fil5 {fill:#FCDFCA}
    .fil15 {fill:#F9D5BB}
    .fil8 {fill:#F9EFE8}
    .fil10 {fill:#F7D0B4}
    .fil24 {fill:#F7E9E2}
    .fil18 {fill:#F4CBAF}
    .fil21 {fill:#F4B704}
    .fil16 {fill:#F0AFA8}
    .fil25 {fill:#F3C9AC}
    .fil19 {fill:#F2C5A5}
    .fil29 {fill:#F3BC64}
    .fil26 {fill:#F0C09E}
    .fil22 {fill:#E6A016}
    .fil13 {fill:#C68667}
    .fil14 {fill:#B87055}
    .fil28 {fill:#AF642C}
    .fil17 {fill:#B06549}
    .fil27 {fill:#975729}
    .fil30 {fill:#7D4525}
    .fil31 {fill:#764024}
    .fil33 {fill:#6F3F26}
    .fil32 {fill:#673A25}
    .fil9 {fill:#58423E}
    .fil6 {fill:#7AB4CD}
    .fil3 {fill:#5C4745}
    .fil11 {fill:#4D897C}
    .fil7 {fill:#5FA5BC}
    .fil2 {fill:#4D8A7D}
    .fil34 {fill:#AFAFC7}
    .fil35 {fill:#D8C650}
    .fil4 {fill:#F9ECE4}
    .fil12 {fill:#4D897C;fill-rule:nonzero}
    .fil1 {fill:#4D8A7D;fill-rule:nonzero}
    .fil0 {fill:url(#id0)}
   ]]>
  </style>
  <radialGradient id="id0" gradientUnits="userSpaceOnUse" gradientTransform="matrix(1.41421 -0 -0 1.41421 -4131 -4154)" cx="9974.09" cy="10029.4" r="10000" fx="9974.09" fy="10029.4">
   <stop offset="0" style="stop-opacity:1; stop-color:#FEFEFE"/>
   <stop offset="0.439216" style="stop-opacity:1; stop-color:#FEFEFE"/>
   <stop offset="1" style="stop-opacity:1; stop-color:#D1E2F2"/>
  </radialGradient>
 </defs>
 <g id="Layer_x0020_1">
  <metadata id="CorelCorpID_0Corel-Layer"/>
  <path class="fil0" d="M-26 29l20000 0 0 20000 -20000 0 0 -20000z"/>
  <g id="_286331863760">
   <g>
    <path class="fil1" d="M3658 8255c-36,0 -66,-22 -66,-49 0,-27 30,-49 66,-49l0 98zm12164 0l-12164 0 0 -98 12164 0 0 98zm0 -98c37,0 66,22 66,49 0,27 -29,49 -66,49l0 -98z"/>
   </g>
   <g id="_286482753424">
    <path class="fil2 str0" d="M1952 3999l0 -261c0,-8 3,-15 8,-21 6,-5 13,-8 21,-8 7,0 14,3 19,7 6,5 9,12 9,22l0 521c0,9 -2,17 -8,22 -5,5 -12,7 -20,7 -8,0 -15,-2 -21,-7 -5,-5 -8,-12 -8,-22l0 -203 -174 0c-31,0 -59,-11 -82,-33 -22,-23 -34,-50 -34,-82l0 -203c0,-8 3,-15 9,-21 6,-5 12,-8 20,-8 7,0 14,3 20,7 6,5 9,12 9,22l0 203c0,16 5,30 16,41 6,5 12,9 19,13 8,2 16,4 23,4l174 0zm521 260c0,9 -3,17 -8,22 -5,5 -12,7 -21,7 -7,0 -14,-2 -20,-7 -6,-5 -8,-12 -8,-22l0 -492 -95 0 -139 500c-1,6 -4,11 -9,15 -6,4 -12,6 -18,6 -9,0 -16,-2 -21,-7 -6,-5 -9,-12 -9,-20 0,-5 1,-7 2,-9l145 -521c4,-15 13,-22 27,-22l145 0c20,0 29,10 29,29l0 521zm173 -318l145 0c8,0 15,3 21,9 6,6 8,13 8,20 0,7 -2,13 -7,19 -5,7 -12,10 -22,10l-145 0 0 232 203 0c8,0 15,3 21,9 5,5 8,12 8,19 0,7 -2,14 -7,20 -5,6 -12,9 -22,9l-232 0c-19,0 -29,-9 -29,-27l0 -523c0,-19 10,-29 29,-29l232 0c8,0 15,3 21,9 5,6 8,13 8,20 0,7 -2,13 -7,19 -5,7 -12,10 -22,10l-203 0 0 174zm637 0l0 -203c0,-8 3,-14 8,-20 6,-6 13,-9 21,-9 7,0 14,3 20,7 5,5 8,12 8,22l0 520c0,9 -3,16 -9,22 -7,6 -13,8 -20,8 -7,0 -14,-2 -20,-7 -5,-4 -8,-12 -8,-21l0 -261 -232 0 0 260c0,9 -3,17 -8,22 -6,5 -12,7 -21,7 -8,0 -14,-2 -20,-7 -6,-5 -9,-12 -9,-22l0 -521c0,-7 3,-14 9,-21 6,-5 12,-8 20,-8 7,0 14,3 20,8 6,5 9,12 9,21l0 203 232 0zm579 318c0,9 -3,17 -8,22 -6,5 -12,7 -21,7 -8,0 -14,-2 -20,-7 -6,-5 -9,-12 -9,-22l0 -521c0,-8 3,-15 9,-21 6,-5 12,-8 20,-8 7,0 14,3 20,7 6,5 9,12 9,22l0 521zm-348 -260l0 232 116 0c16,0 30,-6 41,-17 12,-10 17,-24 17,-41l0 -116c0,-17 -5,-30 -16,-42 -11,-11 -25,-16 -42,-16l-116 0zm0 -58l116 0c31,0 59,11 81,34 23,22 35,50 35,82l0 116c0,31 -11,58 -34,81 -23,23 -50,34 -82,34l-145 0c-19,0 -29,-9 -29,-29l0 -521c0,-8 3,-15 9,-21 6,-5 12,-8 20,-8 7,0 14,3 20,7 6,5 9,12 9,22l0 203zm1158 231c0,32 -12,59 -34,82 -23,23 -50,34 -82,34l-116 0c-31,0 -58,-11 -81,-33 -23,-23 -35,-50 -35,-83l0 -347c0,-32 12,-60 34,-82 23,-23 50,-34 82,-34l116 0c32,0 59,11 82,34 22,23 34,50 34,82l0 347zm-58 1l0 -348c0,-17 -6,-30 -16,-41 -11,-12 -25,-17 -42,-17l-116 0c-16,0 -30,5 -42,16 -5,6 -9,12 -12,19 -3,7 -4,15 -4,23l0 348c0,16 5,30 16,41 6,5 13,9 19,13 8,2 16,4 23,4l116 0c16,0 30,-6 41,-17 11,-10 17,-24 17,-41zm277 -214l244 -242c6,-5 13,-8 20,-8 7,0 14,3 20,9 7,6 10,13 10,21 0,5 -3,11 -9,19l-173 172 178 315 4 15c0,8 -3,14 -9,20 -6,5 -13,8 -21,8 -10,0 -18,-5 -25,-15l-170 -302 -69 68 0 220c0,9 -2,17 -8,22 -5,5 -12,7 -21,7 -7,0 -14,-2 -20,-7 -6,-5 -8,-12 -8,-22l0 -522c0,-7 3,-14 9,-19 5,-6 12,-9 19,-9 8,0 15,2 21,7 5,5 8,12 8,21l0 222zm463 40l174 0c16,0 30,-6 41,-17 12,-10 17,-24 17,-41l0 -116c0,-17 -5,-30 -16,-41 -11,-12 -25,-17 -42,-17l-174 0 0 232zm0 57l0 203c0,9 -2,17 -8,22 -5,5 -12,7 -21,7 -7,0 -14,-2 -20,-7 -6,-5 -8,-12 -8,-22l0 -521c0,-19 9,-29 29,-29l202 0c32,0 60,11 82,34 23,23 34,50 34,82l0 116c0,31 -11,58 -34,81 -23,23 -50,34 -82,34l-174 0zm695 0l-173 0c-32,0 -59,-11 -82,-33 -23,-23 -34,-50 -34,-82l0 -203c0,-8 2,-15 8,-21 6,-5 13,-8 20,-8 8,0 15,3 20,7 6,5 9,12 9,22l0 203c0,16 6,30 17,41 6,5 12,9 19,13 8,2 15,4 22,4l174 0 0 -261c0,-8 3,-15 9,-21 6,-5 12,-8 20,-8 7,0 14,3 20,7 6,5 9,12 9,22l0 434c0,32 -12,59 -34,82 -23,23 -50,34 -82,34l-145 0c-8,0 -16,-2 -21,-8 -5,-6 -7,-13 -7,-21 0,-6 2,-13 7,-19 5,-6 12,-9 21,-9l145 0c16,0 30,-6 41,-17 12,-10 17,-24 17,-41l0 -117zm434 -121l150 -213c2,-3 6,-6 10,-9 5,-3 9,-4 13,-4 8,0 15,3 22,9 6,6 9,13 9,20 0,6 -2,12 -6,17l-152 216 154 274c2,6 4,11 4,15 0,7 -3,13 -9,19 -6,6 -13,9 -22,9 -9,0 -17,-5 -24,-15l-149 -265 0 251c0,9 -2,17 -8,22 -5,5 -12,7 -20,7 -8,0 -15,-2 -21,-7 -5,-5 -8,-12 -8,-22l0 -250 -148 264c-3,4 -6,7 -11,11l-7 3 -8 1c-8,0 -15,-2 -20,-8 -6,-5 -9,-12 -9,-20 0,-3 1,-8 3,-15l154 -273 -152 -217c-2,-2 -4,-8 -5,-17 0,-7 3,-14 9,-20 5,-6 12,-9 20,-9 8,0 16,4 24,13l150 214 0 -198c0,-8 3,-15 8,-21 6,-5 13,-8 21,-8 7,0 14,3 20,7 5,5 8,12 8,22l0 197zm608 6l0 -203c0,-8 3,-14 9,-20 5,-6 12,-9 20,-9 7,0 14,3 20,7 6,5 9,12 9,22l0 520c0,9 -3,16 -9,22 -7,6 -14,8 -21,8 -7,0 -13,-2 -20,-7 -5,-4 -8,-12 -8,-21l0 -261 -232 0 0 260c0,9 -3,17 -8,22 -5,5 -12,7 -21,7 -7,0 -14,-2 -20,-7 -6,-5 -9,-12 -9,-22l0 -521c0,-7 3,-14 9,-21 6,-5 13,-8 20,-8 8,0 14,3 20,8 6,5 9,12 9,21l0 203 232 0zm521 231c0,32 -12,59 -34,82 -23,23 -50,34 -82,34l-116 0c-31,0 -58,-11 -81,-33 -23,-23 -35,-50 -35,-83l0 -347c0,-32 12,-60 34,-82 23,-23 50,-34 82,-34l116 0c32,0 59,11 82,34 22,23 34,50 34,82l0 347zm-58 1l0 -348c0,-17 -5,-30 -16,-41 -11,-12 -25,-17 -42,-17l-116 0c-16,0 -30,5 -41,16 -6,6 -10,12 -13,19 -3,7 -4,15 -4,23l0 348c0,16 6,30 17,41 5,5 12,9 18,13 9,2 16,4 23,4l116 0c16,0 30,-6 41,-17 11,-10 17,-24 17,-41zm451 -521l-116 0c-8,0 -15,-3 -21,-8 -5,-7 -7,-14 -7,-21 0,-7 2,-13 7,-20 5,-6 12,-9 21,-9l116 0c8,0 15,3 21,9 5,6 8,12 8,20 0,6 -2,13 -7,19 -5,6 -12,10 -22,10zm116 607c0,9 -3,17 -8,22 -6,5 -12,7 -21,7 -8,0 -14,-2 -20,-7 -6,-5 -9,-12 -9,-22l0 -409 -235 423c-3,6 -7,11 -12,14l-7 4c-2,1 -5,1 -9,2 -5,0 -12,-3 -19,-9 -5,-5 -7,-14 -7,-24l0 -522c0,-7 3,-14 8,-21 6,-5 13,-8 21,-8 7,0 14,3 19,8 6,5 9,12 9,21l0 410 235 -423c3,-5 7,-10 13,-14 5,-4 10,-6 15,-6 7,0 13,3 18,10 6,5 9,13 9,23l0 521zm810 0c0,9 -3,17 -8,22 -5,5 -12,7 -21,7 -7,0 -14,-2 -20,-7 -6,-5 -8,-12 -8,-22l0 -409 -235 423c-4,6 -8,11 -13,14l-6 4c-2,1 -5,1 -9,2 -6,0 -12,-3 -20,-9 -4,-5 -7,-14 -7,-24l0 -522c0,-7 3,-14 9,-21 5,-5 12,-8 20,-8 7,0 14,3 20,8 6,5 9,12 9,21l0 410 235 -423c2,-5 6,-10 12,-14 5,-4 10,-6 16,-6 6,0 12,3 17,9 6,6 9,14 9,24l0 521zm290 -260l-87 0c-9,0 -16,-3 -21,-8 -5,-6 -8,-13 -8,-21 0,-7 3,-13 8,-20 5,-6 12,-9 21,-9l87 0c16,0 30,-5 41,-16 11,-11 17,-25 17,-42l0 -58c0,-17 -6,-30 -16,-41 -11,-12 -25,-17 -42,-17l-58 0c-13,0 -24,3 -33,10 -10,7 -17,17 -21,30 -2,5 -5,10 -10,13 -2,3 -5,4 -8,6l-9 1c-8,0 -16,-3 -22,-8 -6,-5 -8,-12 -8,-21l1 -10c8,-23 21,-42 42,-57 20,-15 43,-22 68,-22l58 0c32,0 59,11 82,34 22,23 34,50 34,82l0 58c0,17 -4,33 -11,48 -6,15 -16,28 -29,39 27,22 40,51 40,87l0 115c0,32 -12,59 -34,82 -23,23 -50,34 -82,34l-58 0c-25,0 -47,-7 -67,-21 -20,-15 -34,-34 -43,-58l-1 -11c0,-7 2,-14 8,-20 6,-5 13,-8 22,-8 11,0 20,6 26,19 4,12 11,22 21,31 11,7 23,11 34,11l58 0c16,0 30,-6 41,-17 11,-10 17,-24 17,-41l0 -116c0,-17 -4,-31 -13,-41 -10,-12 -25,-17 -45,-17zm289 0l0 232 174 0c16,0 29,-6 41,-17 11,-10 17,-24 17,-41l0 -116c0,-17 -6,-30 -17,-42 -11,-11 -25,-16 -41,-16l-174 0zm0 -58l173 0c32,0 59,11 82,34 23,22 34,50 34,82l0 116c0,31 -11,58 -34,81 -22,23 -50,34 -81,34l-203 0c-19,0 -29,-9 -29,-29l0 -521c0,-19 10,-29 29,-29l232 0c8,0 14,3 20,9 6,6 9,13 9,20 0,7 -3,13 -8,19 -5,7 -12,10 -22,10l-202 0 0 174zm752 318c0,9 -2,17 -8,22 -5,5 -12,7 -21,7 -7,0 -14,-2 -20,-7 -5,-5 -8,-12 -8,-22l0 -409 -235 423c-4,6 -8,11 -13,14l-6 4c-2,1 -5,1 -9,2 -6,0 -12,-3 -19,-9 -5,-5 -8,-14 -8,-24l0 -522c0,-7 3,-14 9,-21 6,-5 12,-8 20,-8 7,0 14,3 20,8 6,5 9,12 9,21l0 410 235 -423c2,-5 7,-10 12,-14 5,-4 11,-6 16,-6 6,0 12,3 18,9 5,6 8,14 8,24l0 521zm174 -260l174 0c16,0 29,-6 41,-17 11,-10 17,-24 17,-41l0 -116c0,-17 -6,-30 -17,-41 -11,-12 -25,-17 -41,-17l-174 0 0 232zm0 57l0 203c0,9 -3,17 -9,22 -5,5 -12,7 -20,7 -8,0 -14,-2 -20,-7 -6,-5 -9,-12 -9,-22l0 -521c0,-19 10,-29 29,-29l203 0c32,0 59,11 82,34 22,23 33,50 33,82l0 116c0,31 -11,58 -34,81 -22,23 -50,34 -82,34l-173 0zm449 87l-42 125c-2,6 -6,11 -11,15 -3,3 -9,4 -15,5 -8,0 -15,-3 -21,-8 -6,-5 -9,-12 -9,-20l2 -10 174 -521c6,-17 15,-25 27,-25 13,0 22,8 27,25l174 521 2 10c0,8 -3,14 -10,20 -6,6 -13,8 -20,8 -4,0 -8,-1 -13,-3 -5,-2 -9,-7 -13,-17l-42 -125 -210 0zm190 -59l-85 -255 -85 255 170 0zm258 -317l-116 0c-8,0 -16,-3 -21,-8 -5,-6 -8,-13 -8,-21 0,-7 3,-13 8,-19 4,-7 12,-10 21,-10l290 0c8,0 14,3 20,9 6,6 9,13 9,20 0,7 -3,13 -8,19 -4,7 -12,10 -21,10l-116 0 0 492c0,9 -3,17 -8,22 -6,5 -13,7 -21,7 -8,0 -14,-2 -20,-7 -6,-5 -9,-12 -9,-22l0 -492zm376 174l146 0c8,0 14,3 20,9 6,6 9,13 9,20 0,7 -3,13 -8,19 -5,7 -12,10 -21,10l-146 0 0 232 203 0c8,0 15,3 21,9 6,5 8,12 8,19 0,7 -2,14 -7,20 -5,6 -12,9 -21,9l-233 0c-19,0 -29,-9 -29,-27l0 -523c0,-19 10,-29 29,-29l233 0c7,0 14,3 20,9 6,6 8,13 8,20 0,7 -2,13 -7,19 -5,7 -12,10 -22,10l-203 0 0 174zm695 318c0,9 -2,17 -8,22 -5,5 -12,7 -20,7 -8,0 -15,-2 -20,-7 -6,-5 -9,-12 -9,-22l0 -492 -94 0 -139 500c-1,6 -4,11 -10,15 -5,4 -11,6 -18,6 -8,0 -15,-2 -21,-7 -5,-5 -8,-12 -8,-20 0,-5 0,-7 1,-9l145 -521c4,-15 13,-22 28,-22l145 0c19,0 28,10 28,29l0 521zm173 -260l174 0c16,0 30,5 41,16 11,11 17,25 17,42l0 116c0,16 -5,30 -16,41 -6,6 -12,10 -19,13 -7,2 -15,4 -23,4l-174 0 0 -232zm0 -58l0 -203c0,-8 -3,-14 -9,-20 -6,-6 -12,-9 -20,-9 -6,0 -13,3 -19,7 -6,5 -10,12 -10,22l0 521c0,20 10,29 29,29l203 0c31,0 58,-11 81,-33 23,-23 35,-50 35,-82l0 -116c0,-32 -12,-59 -34,-82 -23,-23 -50,-34 -82,-34l-174 0zm695 0l0 -203c0,-8 3,-14 9,-20 5,-6 12,-9 20,-9 7,0 14,3 20,7 6,5 9,12 9,22l0 520c0,9 -3,16 -9,22 -7,6 -14,8 -21,8 -7,0 -13,-2 -20,-7 -5,-4 -8,-12 -8,-21l0 -261 -232 0 0 260c0,9 -3,17 -8,22 -5,5 -12,7 -21,7 -7,0 -14,-2 -20,-7 -6,-5 -9,-12 -9,-22l0 -521c0,-7 3,-14 9,-21 6,-5 13,-8 20,-8 8,0 14,3 20,8 6,5 9,12 9,21l0 203 232 0zm521 231c0,32 -12,59 -34,82 -23,23 -50,34 -82,34l-116 0c-31,0 -58,-11 -81,-33 -23,-23 -35,-50 -35,-83l0 -347c0,-32 12,-60 34,-82 23,-23 50,-34 82,-34l116 0c32,0 59,11 82,34 22,23 34,50 34,82l0 347zm-58 1l0 -348c0,-17 -5,-30 -16,-41 -11,-12 -25,-17 -42,-17l-116 0c-16,0 -30,5 -41,16 -6,6 -10,12 -13,19 -3,7 -4,15 -4,23l0 348c0,16 6,30 17,41 5,5 12,9 18,13 8,2 16,4 23,4l116 0c16,0 30,-6 41,-17 11,-10 17,-24 17,-41zm451 -521l-116 0c-8,0 -16,-3 -21,-8 -5,-7 -7,-14 -7,-21 0,-7 2,-13 7,-20 5,-6 12,-9 21,-9l116 0c8,0 15,3 21,9 5,6 8,12 8,20 0,6 -2,13 -7,19 -5,6 -12,10 -22,10zm116 607c0,9 -3,17 -8,22 -6,5 -12,7 -21,7 -8,0 -14,-2 -20,-7 -6,-5 -9,-12 -9,-22l0 -409 -235 423c-3,6 -7,11 -13,14l-6 4c-2,1 -5,1 -9,2 -5,0 -12,-3 -19,-9 -5,-5 -7,-14 -7,-24l0 -522c0,-7 3,-14 8,-21 6,-5 13,-8 21,-8 7,0 14,3 19,8 6,5 9,12 9,21l0 410 235 -423c3,-5 7,-10 13,-14 5,-4 10,-6 15,-6 7,0 13,3 18,10 6,5 9,13 9,23l0 521zm521 -300l244 -242c5,-5 12,-8 19,-8 8,0 14,3 20,9 7,6 10,13 10,21 0,5 -3,11 -9,19l-172 172 178 315 4 15c0,8 -3,14 -10,20 -6,5 -13,8 -21,8 -9,0 -17,-5 -24,-15l-170 -302 -69 68 0 220c0,9 -3,17 -9,22 -5,5 -12,7 -20,7 -8,0 -15,-2 -20,-7 -6,-5 -9,-12 -9,-22l0 -522c0,-7 3,-14 9,-19 6,-6 12,-9 20,-9 7,0 14,2 20,7 6,5 9,12 9,21l0 222zm723 213c0,32 -12,59 -34,82 -23,23 -50,34 -82,34l-116 0c-31,0 -58,-11 -81,-33 -23,-23 -34,-50 -34,-83l0 -347c0,-32 11,-60 33,-82 23,-23 50,-34 82,-34l116 0c32,0 60,11 82,34 22,23 34,50 34,82l0 347zm-58 1l0 -348c0,-17 -5,-30 -16,-41 -11,-12 -25,-17 -42,-17l-116 0c-16,0 -30,5 -41,16 -6,6 -10,12 -13,19 -2,7 -4,15 -4,23l0 348c0,16 6,30 17,41 6,5 12,9 18,13 9,2 16,4 23,4l116 0c16,0 30,-6 41,-17 12,-10 17,-24 17,-41zm625 86c0,9 -2,17 -7,22 -6,5 -13,7 -21,7 -7,0 -13,-2 -20,-7 -6,-5 -9,-12 -9,-22l0 -413 -120 200c-7,13 -15,19 -25,19 -8,0 -17,-6 -25,-19l-121 -200 0 413c0,9 -2,17 -8,22 -5,5 -12,7 -20,7 -8,0 -15,-2 -20,-7 -6,-5 -9,-12 -9,-22l0 -518c0,-11 3,-19 8,-25 5,-6 11,-9 18,-9 6,0 10,2 14,5 4,2 9,7 14,14l149 248 149 -248c6,-12 16,-19 27,-19 7,0 13,3 19,9 5,7 7,15 7,25l0 518z"/>
    <path class="fil2 str0" d="M16576 4259c0,9 -3,17 -8,22 -6,5 -12,7 -21,7 -8,0 -14,-2 -20,-7 -6,-5 -9,-12 -9,-22l0 -409 -235 423c-3,6 -7,11 -12,14l-7 4c-2,1 -5,1 -9,2 -5,0 -12,-3 -19,-9 -5,-5 -7,-14 -7,-24l0 -522c0,-7 3,-14 8,-21 6,-5 13,-8 21,-8 7,0 14,3 19,8 6,5 9,12 9,21l0 410 235 -423c3,-5 7,-10 13,-14 5,-4 10,-6 15,-6 7,0 13,3 18,9 6,6 9,14 9,24l0 521zm377 29l-145 0c-32,0 -59,-11 -82,-33 -23,-23 -34,-50 -34,-83l0 -347c0,-32 11,-60 33,-82 23,-23 50,-34 83,-34l145 0c7,0 14,3 20,9 6,6 8,13 8,20 0,7 -2,13 -7,19 -5,7 -12,10 -22,10l-145 0c-16,0 -30,5 -41,16 -6,6 -10,12 -13,19 -2,7 -4,15 -4,23l0 348c0,16 6,30 17,41 6,5 12,9 19,13 8,2 15,4 22,4l145 0c8,0 15,3 21,9 6,5 8,12 8,19 0,7 -2,13 -7,20 -5,6 -12,9 -21,9zm379 0l-145 0c-32,0 -59,-11 -82,-33 -23,-23 -34,-50 -34,-83l0 -347c0,-32 11,-60 33,-82 23,-23 50,-34 83,-34l145 0c7,0 14,3 20,9 6,6 8,13 8,20 0,7 -2,13 -7,19 -5,7 -12,10 -22,10l-145 0c-16,0 -30,5 -41,16 -6,6 -10,12 -13,19 -2,7 -4,15 -4,23l0 348c0,16 6,30 17,41 6,5 12,9 19,13 8,2 15,4 22,4l145 0c8,0 15,3 21,9 6,5 8,12 8,19 0,7 -2,13 -7,20 -5,6 -12,9 -21,9zm491 -29c0,9 -3,17 -8,22 -5,5 -12,7 -21,7 -7,0 -14,-2 -20,-7 -6,-5 -9,-12 -9,-22l0 -409 -235 423c-3,6 -7,11 -12,14l-7 4c-2,1 -4,1 -9,2 -5,0 -11,-3 -19,-9 -5,-5 -7,-14 -7,-24l0 -522c0,-7 3,-14 8,-21 6,-5 13,-8 21,-8 7,0 14,3 20,8 5,5 8,12 8,21l0 410 235 -423c3,-5 7,-10 13,-14 5,-4 10,-6 15,-6 7,0 13,3 18,9 6,6 9,14 9,24l0 521zm463 0c0,9 -3,17 -8,22 -5,5 -12,7 -21,7 -7,0 -14,-2 -20,-7 -6,-5 -9,-12 -9,-22l0 -409 -235 423c-3,6 -7,11 -12,14l-7 4c-2,1 -5,1 -9,2 -5,0 -11,-3 -19,-9 -5,-5 -7,-14 -7,-24l0 -522c0,-7 3,-14 8,-21 6,-5 13,-8 21,-8 7,0 14,3 20,8 5,5 8,12 8,21l0 410 235 -423c3,-5 7,-10 13,-14 5,-4 10,-6 15,-6 7,0 13,3 18,9 6,6 9,14 9,24l0 521z"/>
   </g>
   <g id="_286331873072">
    <g>
     <path class="fil3 str1" d="M6103 6747c-157,-88 -376,-142 -619,-142 -247,0 -470,57 -627,148 -28,-117 -61,-232 -95,-347 -74,-248 -153,-490 -127,-754 14,-145 58,-337 157,-449 57,-63 144,-102 234,-118l0 -1c6,-13 12,-26 20,-38 209,-350 760,-264 1017,-24 160,149 250,365 271,583 26,263 -54,505 -127,754 -38,128 -75,258 -104,388z"/>
     <path class="fil4" d="M6765 7560c-53,-163 -120,-227 -287,-263l-485 -126c-90,-19 -156,-95 -161,-187l-69 -626 -295 0 -295 0 -69 626c-6,92 -72,168 -162,187l-484 126c-168,36 -234,100 -287,263l-53 611 1350 0 1350 0 -53 -611z"/>
     <path class="fil4 str1" d="M5410 5131c-137,13 -329,80 -414,208 -87,129 -129,329 -108,486l131 552c2,7 3,14 4,20l0 4c12,64 50,121 103,159l219 158c36,31 58,48 104,48l16 0 3 0 0 -1638c-19,0 -39,1 -58,3z"/>
     <path class="fil4 str1" d="M5525 5131c138,13 329,80 415,208 87,129 129,329 108,486l-134 562 0 2c-9,69 -49,130 -105,171l-218 158c-37,31 -58,48 -104,48l-16 0 -3 0 0 -1638c19,0 38,1 57,3z"/>
     <path class="fil5" d="M6092 5824c9,1 19,2 26,9 5,4 7,10 9,16 12,32 16,69 9,103 -33,50 -73,99 -96,154 -6,16 -20,47 -40,49 -23,3 -30,-26 -31,-42 -7,-84 5,-168 17,-251 1,-7 2,-13 6,-18 4,-5 11,-8 17,-10 26,-8 55,-12 83,-10z"/>
     <path class="fil4" d="M5997 6156c-12,0 -19,-9 -23,-20 -3,-8 -5,-16 -5,-23 -2,-17 -2,-33 -2,-50 0,-67 9,-135 19,-201 1,-7 2,-13 6,-18 4,-5 11,-8 17,-10 22,-7 45,-10 68,-10 5,0 10,0 15,0 9,1 19,2 26,9 5,4 7,10 9,16 8,22 12,45 12,69 1,11 -1,23 -3,34 -33,50 -73,99 -96,154 -6,16 -20,47 -40,49 -1,1 -2,1 -3,1z"/>
     <path class="fil4" d="M4841 5824c-9,1 -20,2 -26,9 -5,4 -7,10 -9,16 -13,32 -16,69 -10,103 34,50 73,99 97,154 6,16 20,47 40,49 23,3 30,-26 31,-42 7,-84 -5,-168 -17,-251 -1,-7 -2,-13 -6,-18 -4,-5 -11,-8 -17,-10 -27,-8 -55,-12 -83,-10z"/>
     <path class="fil6 str1" d="M6765 7560c-53,-163 -120,-227 -287,-263l-485 -126c-90,-19 -156,-95 -161,-187l-28 -209c-79,46 -200,76 -336,76 -136,0 -257,-30 -336,-76l-28 209c-6,92 -72,168 -162,187l-484 126c-168,36 -234,100 -287,263l-53 611 1350 0 1350 0 -53 -611z"/>
     <path class="fil7 str1" d="M5751 7185c-29,18 -58,38 -89,52 -57,27 -119,36 -180,36 -39,0 -79,-4 -115,-19 -27,-12 -52,-29 -78,-42 -56,-28 -119,-35 -179,-47 -31,-6 -65,-17 -78,-48 -17,-38 8,-81 20,-121 19,-66 4,-90 9,-159 2,-20 6,-39 8,-59 1,-13 8,-28 20,-29 19,-2 56,21 75,30 31,15 61,31 95,39 44,10 90,5 135,9 23,2 45,7 67,9 108,13 217,-22 314,-76 17,-10 28,-26 49,-27 8,-1 16,-1 23,4 25,15 20,82 20,108 2,85 2,126 32,205 7,19 16,41 6,58 -4,8 -11,13 -18,17 -33,21 -74,25 -109,44 -9,5 -18,11 -27,16z"/>
     <path class="fil8" d="M5993 7171c0,0 0,0 0,0 0,0 0,0 0,0z"/>
     <path class="fil8" d="M5992 7171c0,0 0,0 0,0 0,0 0,0 0,0z"/>
     <path class="fil8" d="M5992 7171c0,0 0,0 0,0 0,0 0,0 0,0z"/>
     <path class="fil8" d="M5992 7171c-38,-8 -71,-26 -97,-52 0,0 0,0 0,0 26,25 59,44 97,52z"/>
     <path class="fil8" d="M5910 7090c0,-13 -6,-27 -11,-40 -30,-79 -30,-120 -32,-205 0,-2 0,-3 0,-4 0,1 0,2 0,4 2,85 2,126 32,205 5,13 11,27 11,40zm-105 -352l-11 -102 11 102z"/>
     <path class="fil9" d="M5794 6636l0 0 -7 -60 7 60zm-647 -47l0 0 2 -13 -2 13z"/>
     <path class="fil4 str1" d="M5506 6839c-15,0 -30,-1 -45,-3 -22,-2 -44,-7 -67,-9 -29,-3 -236,-65 -266,-66l19 -172 2 -13 196 142c36,31 58,47 103,48 1,0 1,0 1,0l16 0 3 0 3 0 16 0c46,0 67,-17 104,-48l196 -142 7 60 11 102c-10,6 -19,15 -30,22 -84,46 -176,79 -269,79z"/>
     <path class="fil10" d="M5448 6766c-45,-1 -67,-17 -103,-48 36,31 58,47 103,48z"/>
     <path class="fil8" d="M5867 6817c0,-26 -1,-57 -13,-73 12,16 13,47 13,73zm-20 -81c0,0 0,0 0,0 0,0 0,0 0,0zm0 0c0,0 -1,0 -1,0 0,0 1,0 1,0zm-24 -3c0,0 0,0 0,0 0,0 0,0 0,0zm0 0c0,0 0,0 1,0 -1,0 -1,0 -1,0zm1 0c2,0 4,0 6,0 -2,0 -4,0 -6,0zm6 0c0,0 0,0 0,0l0 0c0,0 0,0 0,0z"/>
     <path class="fil3" d="M4844 5311c21,-33 43,-65 73,-88 30,-24 70,-39 107,-31 19,3 37,12 53,24 21,15 39,35 52,58 46,79 29,180 -11,262 -39,82 -99,153 -142,233 -75,141 -95,310 -55,465 -57,-21 -101,-68 -134,-119 -78,-119 -114,-264 -100,-406 15,-143 79,-277 157,-398z"/>
     <path class="fil3" d="M5562 5015c-158,-18 -321,35 -441,138 -14,12 -28,24 -37,39 -21,34 -20,76 -11,114 34,154 175,260 320,322 145,61 303,91 441,165 5,-46 -6,-93 -31,-132 69,70 112,166 118,264 22,-55 29,-94 31,-134 85,153 100,346 87,521 88,-73 150,-175 188,-283 38,-108 54,-223 59,-338 2,-29 2,-58 -4,-87 -5,-24 -15,-47 -25,-69 -57,-127 -117,-259 -228,-343 -66,-51 -146,-80 -224,-109 -79,-29 -160,-58 -243,-68z"/>
     <path class="fil4" d="M5431 6725c-4,0 -54,-250 -58,-255 -6,-6 0,-121 -6,-126 -9,-7 -1,-135 -9,-139l5 -423 13 -126c70,-45 156,42 173,53l-7 188 3 253c-3,14 -5,36 -8,52 68,188 41,622 -106,523z"/>
     <g>
      <path class="fil11" d="M5238 5997c-19,0 -34,15 -34,33 0,19 15,34 34,34 18,0 33,-15 33,-34 0,-18 -15,-33 -33,-33zm439 0c-18,0 -33,15 -33,33 0,19 15,34 33,34 19,0 34,-15 34,-34 0,-18 -15,-33 -34,-33z"/>
      <path id="1" class="fil12" d="M5238 6030l-67 0 0 0 0 -3 0 -3 0 -3 1 -3 0 -3 1 -3 1 -2 1 -3 2 -3 1 -3 1 -2 2 -3 2 -2 2 -3 2 -2 2 -2 2 -2 2 -2 3 -2 3 -2 2 -2 3 -2 3 -1 3 -1 3 -2 4 -1 3 -1 3 -1 4 0 3 -1 4 0 4 0 0 60 0 0 0 0 0 0 0 0 1 -1 0 0 0 0 0 0 0 0 0 0 0 0 0 0 0 0 0 0 0 0 0 0 0 1 0 0 0 0 -1 0 0 0 0 0 0 1 0 0 0 0 0 0 0 1 0 0 0 0 0 1 0 0 0 0 0 0zm0 0c0,17 -15,30 -34,30 -18,0 -33,-13 -33,-30l67 0zm0 4l0 60 0 0 -4 -1 -4 0 -3 0 -4 -1 -3 -1 -3 -1 -4 -1 -3 -1 -3 -1 -3 -2 -3 -1 -2 -2 -3 -2 -3 -2 -2 -2 -2 -2 -2 -2 -2 -3 -2 -2 -2 -3 -2 -2 -1 -3 -1 -2 -2 -3 -1 -3 -1 -3 -1 -3 0 -3 -1 -3 0 -3 0 -3 0 -3 67 0 0 1 0 0 0 0 0 1 0 0 0 0 0 1 0 0 0 0 0 0 0 0 0 1 1 0 0 0 0 0 0 0 0 0 0 0 0 0 0 0 0 0 0 0 0 0 0 0 0 0 0 0 0 0 -1 0 0 0 0 0 0 0 0 0 0 0zm0 0c18,0 33,13 33,30 0,16 -15,30 -33,30l0 -60zm0 -4l66 0 0 0 0 3 0 3 0 3 -1 3 0 3 -1 3 -1 3 -1 3 -2 3 -1 2 -1 3 -2 2 -2 3 -2 2 -2 3 -2 2 -2 2 -2 2 -3 2 -3 2 -2 2 -3 1 -3 2 -3 1 -3 1 -3 1 -4 1 -3 1 -4 1 -3 0 -4 0 -3 1 0 -60 -1 0 0 0 0 0 0 0 0 0 -1 0 0 0 0 0 0 0 0 0 0 0 0 0 0 0 0 0 0 0 0 0 0 0 0 0 1 0 0 0 0 -1 0 0 0 0 0 0 0 0 0 -1 0 0 0 0 0 -1 1 0 0 0 0 -1 0 0zm0 0c0,-16 15,-29 33,-29 19,0 33,13 33,29l-66 0zm0 -3l0 -60 0 0 3 0 4 0 3 1 4 0 3 1 4 1 3 1 3 2 3 1 3 1 3 2 2 2 3 2 3 2 2 2 2 2 2 2 2 2 2 3 2 2 2 3 1 2 1 3 2 3 1 3 1 2 1 3 0 3 1 3 0 3 0 3 0 3 -66 0 0 0 0 0 -1 -1 0 0 0 0 0 -1 0 0 0 0 0 0 0 -1 0 0 0 0 0 0 -1 0 0 0 0 -1 0 0 0 0 0 0 0 0 0 0 0 0 0 0 0 0 0 0 0 0 1 0 0 1 0 0 0 0 0 0 1 0 0 0zm0 0c-19,0 -34,-14 -34,-30 0,-17 15,-30 34,-30l0 60zm439 3l-67 0 0 0 1 -3 0 -3 0 -3 1 -3 0 -3 1 -3 1 -2 1 -3 1 -3 2 -3 1 -2 2 -3 2 -2 2 -3 2 -2 2 -2 2 -2 2 -2 3 -2 2 -2 3 -2 3 -2 3 -1 3 -1 3 -2 3 -1 4 -1 3 -1 4 0 3 -1 4 0 3 0 0 60 1 0 0 0 0 0 0 0 0 -1 0 0 1 0 0 0 0 0 0 0 0 0 0 0 0 0 0 0 0 0 0 0 0 1 0 0 -1 0 0 0 0 0 0 0 0 1 0 0 0 0 0 0 0 1 0 0 -1 0 0 1 0 0 0 0 0 0zm0 0c0,17 -15,30 -33,30 -19,0 -34,-13 -34,-30l67 0zm0 4l0 60 0 0 -3 -1 -4 0 -3 0 -4 -1 -3 -1 -4 -1 -3 -1 -3 -1 -3 -1 -3 -2 -3 -1 -3 -2 -2 -2 -3 -2 -2 -2 -2 -2 -2 -2 -2 -3 -2 -2 -2 -3 -2 -2 -1 -3 -2 -2 -1 -3 -1 -3 -1 -3 -1 -3 0 -3 -1 -3 0 -3 0 -3 -1 -3 67 0 0 1 0 0 0 0 1 1 0 0 0 0 0 1 0 0 0 0 0 0 0 0 0 1 0 0 1 0 0 0 0 0 0 0 0 0 0 0 0 0 0 0 0 0 0 0 0 0 0 0 -1 0 0 0 0 0 0 0 0 0 0 0 -1 0 0 0zm0 0c19,0 34,13 34,30 0,16 -15,30 -34,30l0 -60zm0 -4l67 0 0 0 0 3 0 3 0 3 -1 3 -1 3 0 3 -1 3 -1 3 -2 3 -1 2 -2 3 -1 2 -2 3 -2 2 -2 3 -2 2 -2 2 -3 2 -2 2 -3 2 -2 2 -3 1 -3 2 -3 1 -3 1 -4 1 -3 1 -3 1 -4 1 -3 0 -4 0 -4 1 0 -60 0 0 0 0 0 0 0 0 -1 0 0 0 0 0 0 0 0 0 0 0 0 0 0 0 0 0 0 0 0 0 0 0 0 0 0 0 0 0 0 0 1 0 0 -1 0 0 0 0 0 0 0 -1 0 0 0 0 0 -1 0 0 0 0 0 -1 0 0zm0 0c0,-16 15,-29 34,-29 18,0 33,13 33,29l-67 0zm0 -3l0 -60 0 0 4 0 4 0 3 1 4 0 3 1 3 1 4 1 3 2 3 1 3 1 3 2 2 2 3 2 2 2 3 2 2 2 2 2 2 2 2 3 2 2 1 3 2 2 1 3 2 3 1 3 1 2 0 3 1 3 1 3 0 3 0 3 0 3 -67 0 0 0 0 0 0 -1 0 0 0 0 0 -1 0 0 0 0 0 0 0 -1 0 0 -1 0 0 0 0 0 0 0 0 -1 0 0 0 0 0 0 0 0 0 0 0 0 0 0 0 0 0 0 0 0 0 0 1 1 0 0 0 0 0 0 0 0 0 0zm0 0c-18,0 -33,-14 -33,-30 0,-17 15,-30 33,-30l0 60z"/>
     </g>
    </g>
    <g id="_286482741040">
     <path class="fil13 str1" d="M11072 7730c-55,65 -41,166 -8,245 33,79 119,128 130,214 -52,-69 -160,-97 -238,-129 -49,-20 -101,-31 -147,-57 -88,-49 -144,-169 -97,-260 16,-31 41,-55 53,-87 69,-175 -212,-253 -306,-331 -167,-139 -197,-414 -83,-601 59,-97 149,-172 197,-275 82,-174 18,-321 -25,-491 -57,-218 -29,-455 62,-659 72,-163 229,-333 420,-294 14,3 28,7 42,12 54,23 97,71 120,127 47,112 16,274 -44,376 -54,91 -156,146 -203,241 -62,128 -10,264 69,366 74,97 147,224 100,338 -41,101 -158,141 -233,218 -122,124 -116,356 12,473 95,87 241,114 307,226 50,86 33,208 -40,275 -29,25 -64,43 -88,73z"/>
     <path class="fil14" d="M11549 6422l510 0 0 805 -510 0 0 -805z"/>
     <path class="fil4 str1" d="M12684 7577c-53,-162 -120,-227 -287,-262l-485 -126c-89,-19 -155,-96 -161,-187l-69 -627 -295 0 -295 0 -69 627c-6,91 -72,168 -162,187l-484 126c-168,35 -234,100 -287,262l-53 612 1350 0 1350 0 -53 -612z"/>
     <path class="fil4" d="M11445 5149c137,13 328,80 414,207 87,130 129,329 108,486l-134 563 0 1c-9,69 -48,131 -105,172l-218 158c-37,31 -58,47 -104,47l-16 0 -3 0 0 -1637c19,0 38,1 58,3z"/>
     <path class="fil5" d="M12011 5842c9,0 19,2 26,9 5,4 7,9 9,15 12,33 16,69 10,104 -34,50 -74,98 -97,154 -6,16 -20,47 -40,49 -23,3 -30,-26 -31,-42 -7,-84 5,-168 17,-252 1,-6 2,-12 6,-17 4,-6 11,-8 17,-10 27,-9 55,-12 83,-10z"/>
     <path class="fil15" d="M11916 6173c-12,0 -19,-9 -23,-19l74 -311c9,-1 19,-2 29,-2 5,0 10,0 15,1 9,0 19,2 26,9 5,4 7,9 9,15 8,22 13,46 13,69 0,12 -1,24 -3,35 -34,50 -74,98 -97,154 -6,16 -20,47 -40,49 -1,0 -2,0 -3,0z"/>
     <path class="fil16 str1" d="M12325 7969c0,-257 90,-483 192,-616 -33,-16 -72,-28 -120,-38l-76 -27c-209,197 -549,325 -934,325 -385,0 -725,-128 -934,-325l-76 27c-48,10 -87,22 -120,38 102,133 192,359 192,616 0,77 -6,150 -17,220l955 0 955 0c-11,-70 -17,-143 -17,-220z"/>
     <path class="fil8" d="M12684 7577c0,0 0,0 -1,-1 1,1 1,1 1,1zm-1 -1c0,0 0,0 0,0 0,0 0,0 0,0zm0 -1c0,0 0,0 0,0 0,0 0,0 0,0z"/>
     <path class="fil8" d="M12315 7293l-2 0c3,-3 6,-5 8,-5 0,0 0,0 0,0 -2,2 -4,3 -6,5z"/>
     <path class="fil17" d="M11912 7189c0,0 0,0 0,0 0,0 0,0 0,0zm-1 0c0,0 0,0 0,0 0,0 0,0 0,0zm0 0c0,0 0,0 0,0 0,0 0,0 0,0zm-1 0c0,0 0,0 0,0 0,0 0,0 0,0zm0 -1c0,0 0,0 0,0 0,0 0,0 0,0zm-1 0c0,0 0,0 0,0 0,0 0,0 0,0zm0 0c0,0 0,0 0,0 0,0 0,0 0,0zm-1 0c0,0 0,0 0,0 0,0 0,0 0,0zm0 0c0,0 0,0 -1,0 1,0 1,0 1,0zm-1 0c0,0 0,0 0,0 0,0 0,0 0,0zm0 0c0,0 0,0 -1,0 1,0 1,0 1,0zm-1 0c0,0 0,0 0,0 0,0 0,0 0,0zm0 0c0,-1 -1,-1 -1,-1 0,0 1,0 1,1zm-1 -1c0,0 -1,0 -1,0 0,0 1,0 1,0zm-1 0c0,0 0,0 0,0 0,0 0,0 0,0zm0 0c-69,-18 -123,-70 -144,-137l0 0c21,67 75,119 144,137z"/>
     <path class="fil8" d="M12399 7315c0,0 0,0 0,0 0,0 0,0 0,0 0,0 0,0 0,0z"/>
     <path class="fil10" d="M12399 7315c0,0 0,0 0,0 0,0 0,0 0,0 0,0 0,0 0,0z"/>
     <path class="fil8" d="M12398 7315c0,0 0,0 0,0l0 0c0,0 0,0 0,0zm0 0c0,0 0,0 -1,0 1,0 1,0 1,0z"/>
     <path class="fil10" d="M12398 7315c0,0 0,0 -1,0l0 0c1,0 1,0 1,0 0,0 0,0 0,0l0 0z"/>
     <path class="fil17" d="M11771 7050l0 0c0,0 0,0 0,0zm-34 -172l0 0c5,-1 8,-1 9,-1 0,0 0,0 0,0l-9 1z"/>
     <path class="fil4" d="M11329 5149c-137,13 -329,80 -414,207 -87,130 -129,329 -108,486l131 553c2,6 3,13 4,20l0 3c12,65 50,121 103,160l219 158c37,31 58,47 104,47l16 0 3 0 0 -1637c-19,0 -38,1 -58,3z"/>
     <path class="fil18" d="M11893 6154l0 0c-3,-8 -5,-17 -5,-23 -2,-17 -2,-34 -2,-51 0,-67 10,-134 19,-201 1,-6 2,-12 6,-17 4,-6 11,-8 17,-10 12,-4 26,-7 39,-9l-74 311z"/>
     <path class="fil19" d="M11406 6783l-16 0 -3 0 3 0 16 0c46,0 67,-16 104,-47l0 0 196 -142 -196 142c-37,31 -58,47 -104,47z"/>
     <path class="fil13 str1" d="M11700 7730c54,65 41,166 8,245 -33,79 -120,128 -131,214 53,-69 160,-97 239,-129 49,-20 101,-31 147,-57 87,-49 143,-169 96,-260 -16,-31 -41,-55 -53,-87 -69,-175 213,-253 307,-331 167,-139 196,-414 82,-601 -59,-97 -148,-172 -197,-275 -81,-174 -18,-321 26,-491 66,-258 16,-541 -118,-768 -64,-108 -148,-205 -253,-270 -233,-145 -658,-127 -759,187 -39,121 3,266 101,345 108,87 255,89 389,112 135,23 285,95 310,234 22,121 -62,233 -137,329 -74,97 -146,224 -100,338 42,101 158,141 234,218 122,124 116,356 -12,473 -96,87 -241,114 -307,226 -51,86 -33,208 40,275 28,25 63,43 88,73z"/>
     <path class="fil13 str1" d="M11045 6578c-53,-39 -91,-95 -103,-160l0 -3c-1,-7 -2,-14 -4,-20 -7,-29 -14,-57 -20,-86 -21,-36 -38,-75 -49,-118 -59,-234 -30,-511 144,-690 36,-36 76,-68 105,-109 42,-57 67,-375 -46,-375 -50,1 -55,-40 -99,-18 -102,-20 -337,157 -363,300 -131,47 -109,826 2,945 -6,43 -39,186 -39,205 0,91 -236,266 -236,357 -213,731 213,353 450,402l74 -19c90,-19 156,-96 162,-187l45 -408 -23 -16z"/>
     <g>
      <path class="fil11" d="M11114 5847c-19,0 -34,15 -34,34 0,18 15,33 34,33 18,0 33,-15 33,-33 0,-19 -15,-34 -33,-34zm440 0c-19,0 -34,15 -34,34 0,18 15,33 34,33 18,0 33,-15 33,-33 0,-19 -15,-34 -33,-34z"/>
      <path id="1" class="fil12" d="M11114 5881l-67 0 0 0 0 -3 0 -3 1 -3 0 -3 1 -3 1 -3 1 -3 1 -3 1 -3 1 -2 2 -3 2 -2 1 -3 2 -2 2 -2 2 -3 3 -2 2 -2 2 -2 3 -2 3 -1 3 -2 3 -2 3 -1 3 -1 3 -1 3 -1 4 -1 3 -1 4 0 3 0 4 -1 0 60 0 0 0 0 1 0 0 0 0 0 0 0 0 0 0 0 0 0 0 0 1 0 -1 0 0 0 0 0 0 0 0 0 0 0 0 0 0 0 0 0 0 1 0 0 0 0 -1 0 0 0 0 1 0 0 0 0 0 1 0 0 0 0 0 1 0 0zm0 0c0,16 -15,30 -34,30 -18,0 -33,-14 -33,-30l67 0zm0 3l0 60 0 0 -4 0 -3 0 -4 -1 -3 0 -4 -1 -3 -1 -3 -1 -3 -1 -3 -2 -3 -1 -3 -2 -3 -2 -3 -2 -2 -2 -2 -2 -3 -2 -2 -2 -2 -2 -2 -3 -1 -2 -2 -3 -2 -2 -1 -3 -1 -3 -1 -3 -1 -2 -1 -3 -1 -3 0 -3 -1 -3 0 -3 0 -3 67 0 0 0 0 0 0 1 0 0 0 0 0 1 0 0 0 0 1 1 0 0 0 0 0 0 0 0 0 0 0 1 0 0 0 0 0 0 0 0 0 0 1 0 -1 0 0 0 0 0 0 0 0 0 0 0 0 0 0 -1 -1 0 0 0 0 0 0 0zm0 0c18,0 33,14 33,30 0,17 -15,30 -33,30l0 -60zm0 -3l67 0 0 0 0 3 0 3 -1 3 0 3 -1 3 -1 3 -1 2 -1 3 -1 3 -1 3 -2 2 -2 3 -1 2 -2 3 -2 2 -2 2 -3 2 -2 2 -2 2 -3 2 -3 2 -3 2 -3 1 -3 2 -3 1 -3 1 -3 1 -4 1 -3 0 -4 1 -3 0 -4 0 0 -60 0 0 0 0 -1 0 0 1 0 0 0 0 0 0 0 0 0 0 -1 0 0 0 0 0 0 0 0 0 1 0 0 0 0 0 0 -1 0 0 0 0 0 0 0 0 0 0 1 -1 0 0 0 0 0 -1 0 0 0 0 0 -1 0 0 0 0 0 0zm0 0c0,-17 15,-30 33,-30 19,0 34,13 34,30l-67 0zm0 -4l0 -60 0 0 4 1 3 0 4 0 3 1 4 1 3 1 3 1 3 1 3 1 3 2 3 2 3 1 3 2 2 2 2 2 3 2 2 3 2 2 2 2 1 3 2 2 2 3 1 2 1 3 1 3 1 3 1 3 1 3 0 3 1 3 0 3 0 3 -67 0 0 -1 0 0 0 0 0 -1 0 0 0 0 0 -1 0 0 -1 0 0 0 0 0 0 -1 0 0 0 0 0 0 0 0 0 0 -1 0 0 0 0 0 0 0 0 0 1 0 0 0 0 0 0 0 0 0 0 0 0 0 1 0 0 0 0 0 0 0zm0 0c-19,0 -33,-13 -33,-30 0,-16 14,-30 33,-30l0 60zm440 4l-67 0 0 0 0 -3 0 -3 1 -3 0 -3 1 -3 1 -3 1 -3 1 -3 1 -3 1 -2 2 -3 1 -2 2 -3 2 -2 2 -2 2 -3 2 -2 3 -2 2 -2 3 -2 3 -1 2 -2 3 -2 3 -1 4 -1 3 -1 3 -1 4 -1 3 -1 4 0 3 0 4 -1 0 60 0 0 0 0 0 0 0 0 1 0 0 0 0 0 0 0 0 0 0 0 0 0 0 0 0 0 0 0 0 0 0 0 0 0 0 0 0 0 0 0 0 1 0 0 -1 0 0 0 0 0 0 1 0 0 0 0 0 1 0 0 0 0 0 1 0 0zm0 0c0,16 -15,30 -34,30 -18,0 -33,-14 -33,-30l67 0zm0 3l0 60 0 0 -4 0 -3 0 -4 -1 -3 0 -4 -1 -3 -1 -3 -1 -4 -1 -3 -2 -3 -1 -2 -2 -3 -2 -3 -2 -2 -2 -3 -2 -2 -2 -2 -2 -2 -2 -2 -3 -2 -2 -1 -3 -2 -2 -1 -3 -1 -3 -1 -3 -1 -2 -1 -3 -1 -3 0 -3 -1 -3 0 -3 0 -3 67 0 0 0 0 0 0 1 0 0 0 0 0 1 0 0 0 0 0 1 1 0 0 0 0 0 0 0 0 0 0 1 0 0 0 0 0 0 0 0 0 0 0 0 0 0 0 0 0 0 0 0 0 0 0 0 -1 0 0 -1 0 0 0 0 0 0 0 0zm0 0c18,0 33,14 33,30 0,17 -15,30 -33,30l0 -60zm0 -3l67 0 0 0 0 3 -1 3 0 3 0 3 -1 3 -1 3 -1 2 -1 3 -1 3 -2 3 -1 2 -2 3 -1 2 -2 3 -2 2 -3 2 -2 2 -2 2 -3 2 -2 2 -3 2 -3 2 -3 1 -3 2 -3 1 -3 1 -3 1 -4 1 -3 0 -4 1 -4 0 -3 0 0 -60 0 0 -1 0 0 0 0 1 0 0 0 0 0 0 -1 0 0 0 0 0 0 0 0 0 0 0 0 0 0 0 0 0 1 0 0 -1 0 0 0 0 0 0 0 0 0 0 0 -1 0 0 1 0 0 -1 0 0 0 0 0 -1 0 0 0 0 0 0zm0 0c0,-17 15,-30 33,-30 19,0 34,13 34,30l-67 0zm0 -4l0 -60 0 0 3 1 4 0 4 0 3 1 4 1 3 1 3 1 3 1 3 1 3 2 3 2 3 1 2 2 3 2 2 2 2 2 3 3 2 2 2 2 1 3 2 2 1 3 2 2 1 3 1 3 1 3 1 3 1 3 0 3 0 3 1 3 0 3 -67 0 0 -1 0 0 0 0 0 -1 0 0 0 0 -1 -1 0 0 0 0 0 0 0 0 0 -1 0 0 0 0 0 0 -1 0 0 0 0 0 0 0 0 0 0 0 0 0 0 0 0 0 1 0 0 0 0 0 0 0 0 0 0 0 1 0 0 0 0 0zm0 0c-19,0 -34,-13 -34,-30 0,-16 15,-30 34,-30l0 60z"/>
     </g>
     <path class="fil20 str1" d="M11020 6566l1 -12 196 142c36,30 58,47 103,47 1,0 1,0 1,0l16 0 3 0 3 0 16 0c46,0 67,-17 104,-47l196 -142"/>
    </g>
    <g>
     <path class="fil4 str1" d="M9807 7424c-82,-289 -466,-289 -686,-345 -27,-7 -53,-14 -79,-21 -26,-8 -52,-16 -74,-31 -92,-62 -94,-223 -107,-320 -14,-102 -21,-204 -22,-307 0,-37 1,-73 2,-110 -93,35 -150,107 -251,110 -7,0 -50,0 -90,0 -38,0 -72,0 -72,0 0,0 -35,0 -73,0 -40,0 -83,0 -90,0 -101,-3 -158,-75 -251,-110 2,37 2,73 2,110 0,103 -8,205 -22,307 -12,97 -15,258 -107,320 -22,15 -48,23 -74,31 -26,7 -52,14 -78,21 -221,56 -605,56 -687,345l-120 757 1500 0 1499 0 -120 -757z"/>
     <path class="fil5" d="M9102 5696c9,1 19,3 26,9 5,4 7,10 9,16 12,33 16,69 9,104 -33,49 -73,98 -96,153 -6,16 -20,47 -40,50 -23,2 -30,-26 -31,-43 -7,-84 5,-168 17,-251 1,-6 2,-13 6,-18 4,-5 11,-7 17,-9 26,-9 55,-13 83,-11z"/>
     <path class="fil4 str1" d="M9007 6028c-20,0 -27,-27 -28,-43 -2,-16 -2,-33 -2,-50 0,-67 9,-134 19,-201 1,-6 2,-13 6,-18 4,-5 11,-7 17,-9 22,-8 45,-11 68,-11 5,0 10,0 15,0 9,1 19,3 26,9 5,4 7,10 9,16 8,22 12,45 13,69 0,11 -1,23 -4,35 -33,49 -73,98 -96,153 -6,16 -20,47 -40,50 -1,0 -2,0 -3,0z"/>
     <path class="fil4 str1" d="M9055 5564l-61 590c-7,48 -26,93 -56,131l-281 281c-4,5 -9,10 -13,15 -38,44 -94,69 -152,69l-64 0 0 -1721c348,1 682,255 627,635z"/>
     <path class="fil4 str1" d="M7756 5696c-10,1 -20,3 -27,9 -4,4 -6,10 -9,16 -12,33 -15,69 -9,104 33,49 73,98 96,153 7,16 21,47 41,50 22,2 30,-26 31,-43 7,-84 -5,-168 -18,-251 -1,-6 -2,-13 -5,-18 -4,-5 -11,-7 -17,-9 -27,-9 -55,-13 -83,-11z"/>
     <path class="fil4 str1" d="M7800 5564l61 590c7,48 26,93 56,131l281 281c5,5 9,10 14,15 38,44 93,69 151,69l65 0 0 -1721c-349,1 -683,255 -628,635z"/>
     <path class="fil21" d="M9807 7424c-82,-289 -466,-289 -686,-345 -27,-7 -53,-14 -79,-21 -26,-8 -52,-16 -74,-31 -92,-62 -94,-223 -107,-320 -1,-9 -2,-18 -3,-27 -120,47 -269,75 -430,75 -162,0 -311,-28 -430,-75 -1,9 -2,18 -4,27 -12,97 -15,258 -107,320 -22,15 -48,23 -74,31 -26,7 -52,14 -78,21 -221,56 -605,56 -687,345l-120 757 1500 0 1499 0 -120 -757z"/>
     <path class="fil22 str1" d="M8889 6678c24,13 13,52 14,73 1,37 6,74 13,111 1,10 3,20 7,29 15,37 48,82 32,125 -3,10 -11,16 -19,22 -48,38 -97,75 -153,96 -33,13 -68,21 -103,28 -97,20 -197,38 -296,27 -59,-6 -116,-21 -173,-37 -31,-8 -63,-17 -94,-26 -61,-18 -123,-39 -169,-82 -42,-39 -23,-87 -16,-138 3,-25 6,-50 10,-74 7,-51 10,-197 90,-189 18,2 34,9 51,17 133,59 281,91 428,83 61,-3 121,-16 182,-24 27,-4 53,-9 79,-16 27,-7 91,-38 117,-25z"/>
     <path class="fil23" d="M7167 7949l80 0 -40 71 -40 -71z"/>
     <path class="fil23" d="M7554 7949l80 0 -40 71 -40 -71z"/>
     <path class="fil3 str1" d="M7739 5052c31,-68 77,-129 140,-170 -33,-33 -72,-61 -114,-81 176,-52 367,-105 541,-44 -35,-35 -70,-71 -104,-106 117,0 235,-1 350,20 122,23 239,73 332,155 47,41 61,74 67,134 107,1 188,162 208,251 17,74 16,152 11,229 -8,-24 -15,-48 -23,-72 -9,143 -58,283 -142,400 14,-88 28,-176 42,-265 -9,15 -24,26 -41,31 11,-78 -7,-159 -49,-225 -38,-62 -206,-37 -292,-34 104,-187 -318,16 -362,51 2,-28 4,-56 6,-84 -144,52 -272,148 -360,272 -9,-21 -12,-44 -10,-67 -54,87 -87,187 -94,288 -38,-49 -76,-98 -101,-154 -25,-56 -37,-121 -21,-180 -20,0 -39,0 -59,0 10,-97 19,-194 50,-286 7,-21 15,-42 25,-63z"/>
     <path class="fil23" d="M7941 7949l79 0 -39 71 -40 -71z"/>
     <path class="fil23" d="M8327 7949l80 0 -40 71 -40 -71z"/>
     <path class="fil23" d="M8714 7949l80 0 -40 71 -40 -71z"/>
     <path class="fil23" d="M9101 7949l80 0 -40 71 -40 -71z"/>
     <path class="fil23" d="M9488 7949l79 0 -39 71 -40 -71z"/>
     <path class="fil23" d="M7064 7792l112 -139c15,-18 46,-18 61,0l113 139c12,14 30,23 49,23 19,0 37,-9 49,-23l112 -139c8,-9 19,-14 31,-14 12,0 23,5 31,14l112 139c12,14 30,23 49,23 19,0 37,-9 49,-23l112 -139c16,-18 47,-18 62,0l112 139c12,14 30,23 49,23 19,0 37,-9 49,-23l113 -139c7,-9 19,-14 31,-14l0 0c12,0 23,5 30,14l113 139c12,14 30,23 49,23l0 0c19,0 37,-9 49,-23l112 -139c15,-18 46,-18 62,0l112 139c12,14 30,23 49,23l0 0c19,0 37,-9 49,-23l112 -139c15,-18 47,-18 62,0l112 139c12,14 30,23 49,23 19,0 37,-9 49,-23l113 -139c15,-18 46,-18 61,0l113 139c12,14 30,23 49,23l0 0c19,0 37,-9 49,-23l93 -115c-1,-11 -3,-21 -5,-31l-107 131c-7,9 -18,14 -30,14l0 0c-12,0 -23,-5 -31,-14l-112 -138c-12,-15 -30,-24 -49,-24 -20,0 -37,9 -49,24l-113 138c-15,18 -46,18 -61,0l-113 -138c-12,-15 -30,-24 -49,-24l0 0c-19,0 -37,9 -49,24l-112 138c-8,9 -19,14 -31,14l0 0c-12,0 -23,-5 -31,-14l-112 -138c-12,-15 -30,-24 -49,-24 -19,0 -37,9 -49,24l-113 138c-15,18 -46,18 -61,0l-112 -138c-12,-15 -30,-24 -49,-24l0 0c-20,0 -37,9 -50,24l-112 138c-15,18 -46,18 -61,0l-113 -138c-12,-15 -30,-24 -49,-24 -19,0 -37,9 -49,24l-112 138c-15,18 -47,18 -62,0l-112 -138c-12,-15 -30,-24 -49,-24l0 0c-19,0 -37,9 -49,24l-113 138c-15,18 -46,18 -61,0l-112 -138c-12,-15 -30,-24 -49,-24 -20,0 -37,9 -49,24l-113 138c-13,16 -38,18 -54,6 -1,9 -3,17 -4,26 8,4 18,6 28,6 19,0 36,-9 49,-23z"/>
     <path class="fil23" d="M7064 7878l112 -138c15,-19 46,-18 61,0l113 138c12,15 30,23 49,24l0 0c19,0 37,-9 49,-24l112 -138c15,-18 46,-18 62,0l112 138c12,15 30,23 49,23 19,0 37,-8 49,-23l112 -138c8,-9 19,-15 31,-15l0 0c12,0 23,6 31,15l112 138c12,15 30,24 49,24 19,0 37,-9 49,-24l113 -138c15,-19 46,-19 61,0l113 138c12,15 30,23 49,23 19,0 37,-8 49,-23l112 -138c15,-18 46,-18 62,0l112 138c12,15 30,23 49,23l0 0c19,0 37,-8 49,-23l112 -138c8,-9 19,-15 31,-15l0 0c12,0 23,6 31,15l112 138c12,15 30,23 49,24l0 0c19,0 37,-9 49,-24l113 -138c7,-9 19,-15 31,-15 12,0 23,6 30,15l113 138c12,15 30,24 49,24l0 0c19,0 37,-9 49,-24l105 -129c-2,-10 -3,-20 -5,-30 -2,2 -4,4 -6,6l-113 138c-15,19 -46,19 -61,0l-112 -138c-12,-15 -30,-23 -49,-23l0 0c-20,0 -37,8 -49,23l-113 138c-8,10 -19,15 -31,15l0 0c-12,0 -23,-5 -30,-15l-113 -138c-12,-15 -30,-23 -49,-23l0 0c-19,0 -37,8 -49,23l-112 138c-8,10 -19,15 -31,15l0 0c-12,0 -23,-5 -31,-15l-112 -138c-12,-15 -30,-23 -49,-23 -19,0 -37,8 -49,23l-113 138c-15,19 -46,19 -61,0l-112 -138c-12,-15 -30,-23 -49,-23 -20,0 -37,8 -50,23l-112 138c-15,19 -46,19 -61,0l-113 -138c-12,-15 -30,-23 -49,-23l0 0c-19,0 -37,8 -49,23l-112 138c-15,19 -47,19 -62,0l-112 -138c-12,-15 -30,-23 -49,-23 -19,0 -37,8 -49,23l-113 138c-7,10 -18,15 -30,15l0 0c-12,0 -23,-5 -31,-15l-112 -138c-12,-15 -30,-23 -49,-23 -20,0 -37,8 -49,23l-113 138c-15,19 -46,19 -61,0l-5 -5c-1,10 -3,19 -5,29 12,9 26,14 41,14 19,0 36,-8 49,-23z"/>
     <path class="fil24" d="M9141 8020l-40 -71 80 0 -40 71z"/>
     <path class="fil24" d="M9528 8020l-40 -71 79 0 -39 71z"/>
     <path class="fil24" d="M8968 7027c-5,-3 -9,-7 -13,-10 0,0 0,0 0,-1 0,0 0,0 0,0 4,4 8,8 13,11zm-45 -136c0,0 0,0 0,0 0,0 0,0 0,0zm-1 -2c-3,-9 -5,-18 -6,-27 -7,-37 -12,-74 -13,-111 0,-1 -1,-2 -1,-3 0,1 1,2 1,3 1,37 6,74 13,111 1,9 3,18 6,27zm-18 -175c0,-9 -1,-18 -4,-25 3,7 4,16 4,25zm-47 -38c-11,-90 -17,-181 -18,-272 1,91 7,182 18,272 0,0 0,0 0,0zm-18 -272c0,-1 0,-1 0,-2 0,1 0,1 0,2zm0 -4c0,-5 0,-10 0,-16l0 0c0,6 0,11 0,16z"/>
     <path class="fil25" d="M8428 6650l-65 0c-57,0 -111,-24 -149,-66 38,42 92,66 149,66l65 0zm-230 -84l-169 -169 169 169z"/>
     <path class="fil24" d="M9705 7815l0 0c-19,0 -37,-9 -49,-23l-113 -139c-7,-9 -19,-14 -30,-14 -12,0 -24,5 -31,14l-113 139c-12,14 -30,23 -49,23 -19,0 -37,-9 -49,-23l-112 -139c-8,-9 -19,-13 -31,-13 -11,0 -23,4 -31,13l-112 139c-12,14 -30,23 -49,23l0 0c-19,0 -37,-9 -49,-23l-112 -139c-8,-9 -20,-13 -31,-13 -12,0 -23,4 -31,13l-15 18 -12 -22 9 -10c12,-15 30,-24 49,-24 19,0 37,9 49,24l112 138c8,9 19,14 31,14l0 0c12,0 23,-5 31,-14l112 -138c12,-15 30,-24 49,-24l0 0c19,0 37,9 49,24l113 138c7,9 19,14 30,14 12,0 23,-5 31,-14l113 -138c12,-15 29,-24 49,-24 19,0 37,9 49,24l112 138c8,9 19,14 31,14l0 0c12,0 23,-5 30,-14l107 -131 5 31 -93 115c-12,14 -30,23 -49,23z"/>
     <path class="fil24" d="M9705 7902l0 0c-19,0 -37,-9 -49,-24l-113 -138c-7,-9 -18,-15 -30,-15 -12,0 -24,6 -31,15l-113 138c-12,15 -30,24 -49,24l0 0c-19,-1 -37,-9 -49,-24l-112 -138c-8,-9 -19,-15 -31,-15l0 0c-12,0 -23,6 -31,15l-112 138c-12,15 -30,23 -49,23l0 0c-19,0 -37,-8 -49,-23l-112 -138c-8,-9 -20,-14 -31,-14 -5,0 -10,1 -15,3l-11 -22c8,-3 17,-5 26,-5 19,0 37,8 49,23l112 138c8,10 19,15 31,15l0 0c12,0 23,-5 31,-15l112 -138c12,-15 30,-23 49,-23l0 0c19,0 37,8 49,23l113 138c7,10 18,15 30,15l0 0c12,0 23,-5 31,-15l113 -138c12,-15 29,-23 49,-23l0 0c19,0 37,8 49,23l112 138c8,10 19,14 31,14 11,0 23,-4 30,-14l113 -138c2,-2 4,-4 6,-6l5 30 -105 129c-12,15 -30,24 -49,24z"/>
     <path class="fil20 str2" d="M8427 6618l0 -1325"/>
     <path class="fil26" d="M8492 6650l-64 0 64 0c38,0 75,-10 106,-30 -31,20 -68,30 -106,30zm165 -84l182 -182c0,0 0,0 0,0l-182 182z"/>
     <g>
      <path class="fil11" d="M8202 5675c-19,0 -34,15 -34,34 0,18 15,33 34,33 18,0 33,-15 33,-33 0,-19 -15,-34 -33,-34zm440 0c-19,0 -34,15 -34,34 0,18 15,33 34,33 18,0 33,-15 33,-33 0,-19 -15,-34 -33,-34z"/>
      <path id="1" class="fil12" d="M8202 5709l-67 0 0 0 0 -3 0 -3 1 -3 0 -3 1 -3 1 -3 1 -3 1 -3 1 -2 1 -3 2 -3 1 -2 2 -3 2 -2 2 -2 2 -3 2 -2 3 -2 2 -2 3 -2 3 -1 2 -2 3 -2 3 -1 4 -1 3 -1 3 -1 4 -1 3 -1 4 0 3 0 4 0 0 59 0 0 0 0 0 0 1 0 0 0 0 0 0 0 0 0 0 0 0 0 0 0 0 0 0 0 0 0 0 0 0 0 0 0 0 0 0 0 0 0 0 1 0 0 -1 0 0 0 0 0 0 1 0 0 0 0 0 1 0 0 0 0 0 1 0 0zm0 0c0,16 -15,30 -34,30 -18,0 -33,-14 -33,-30l67 0zm0 3l0 60 0 0 -4 0 -3 0 -4 -1 -3 0 -4 -1 -3 -1 -3 -1 -4 -1 -3 -2 -3 -1 -2 -2 -3 -2 -3 -2 -2 -2 -3 -2 -2 -2 -2 -2 -2 -2 -2 -3 -2 -2 -1 -3 -2 -2 -1 -3 -1 -3 -1 -3 -1 -2 -1 -3 -1 -3 0 -3 -1 -3 0 -3 0 -3 67 0 0 0 0 0 0 1 0 0 0 0 0 1 0 0 0 0 0 1 1 0 0 0 0 0 0 0 0 0 0 1 0 0 0 0 0 0 0 0 0 0 0 0 0 0 0 0 0 0 0 0 0 0 0 0 0 0 -1 0 0 0 0 -1 0 0 0 0zm0 0c18,0 33,14 33,30 0,17 -15,30 -33,30l0 -60zm0 -3l67 0 0 0 0 3 0 3 -1 3 0 3 -1 3 -1 3 -1 2 -1 3 -1 3 -2 3 -1 2 -2 3 -1 2 -2 3 -2 2 -2 2 -3 2 -2 2 -3 2 -2 2 -3 2 -3 2 -3 1 -3 2 -3 1 -3 1 -3 1 -4 1 -3 0 -4 1 -4 0 -3 0 0 -60 0 0 -1 1 0 0 0 0 0 0 0 0 0 0 0 0 -1 0 0 0 0 0 0 0 0 0 0 0 0 0 1 0 0 0 0 -1 0 0 0 0 0 0 0 0 0 0 0 -1 0 0 1 0 0 -1 0 0 0 0 0 -1 0 0 0 0 0 0zm0 0c0,-17 15,-30 33,-30 19,0 34,13 34,30l-67 0zm0 -4l0 -59 0 0 3 0 4 0 4 0 3 1 4 1 3 1 3 1 3 1 3 1 3 2 3 2 3 1 2 2 3 2 2 2 3 2 2 3 2 2 2 2 1 3 2 2 1 3 2 3 1 2 1 3 1 3 1 3 1 3 0 3 1 3 0 3 0 3 -67 0 0 -1 0 0 0 0 0 -1 0 0 0 0 -1 -1 0 0 0 0 0 0 0 0 0 -1 0 0 0 0 0 0 0 0 -1 0 0 0 0 0 0 0 0 0 0 0 0 0 1 0 0 0 0 0 0 0 0 0 0 0 0 0 1 0 0 0 0 0zm0 0c-19,0 -34,-13 -34,-30 0,-16 15,-29 34,-29l0 59zm440 4l-67 0 0 0 0 -3 0 -3 0 -3 1 -3 1 -3 0 -3 1 -3 2 -3 1 -2 1 -3 2 -3 1 -2 2 -3 2 -2 2 -2 2 -3 2 -2 3 -2 2 -2 3 -2 2 -1 3 -2 3 -2 3 -1 4 -1 3 -1 3 -1 4 -1 3 -1 3 0 4 0 4 0 0 59 0 0 0 0 0 0 0 0 1 0 0 0 0 0 0 0 0 0 0 0 0 0 0 0 0 0 0 0 0 0 0 0 0 0 0 0 0 0 0 0 0 1 -1 0 0 0 0 0 0 0 0 1 0 0 0 0 0 1 0 0 0 0 0 1 0 0zm0 0c0,16 -15,30 -34,30 -18,0 -33,-14 -33,-30l67 0zm0 3l0 60 0 0 -4 0 -4 0 -3 -1 -3 0 -4 -1 -3 -1 -3 -1 -4 -1 -3 -2 -3 -1 -3 -2 -2 -2 -3 -2 -2 -2 -3 -2 -2 -2 -2 -2 -2 -2 -2 -3 -2 -2 -1 -3 -2 -2 -1 -3 -1 -3 -2 -3 -1 -2 0 -3 -1 -3 -1 -3 0 -3 0 -3 0 -3 67 0 0 0 0 0 0 1 0 0 0 0 0 1 0 0 0 0 0 1 0 0 1 0 0 0 0 0 0 0 0 1 0 0 0 0 0 0 0 0 0 0 0 0 0 0 0 0 0 0 0 0 0 0 0 0 -1 0 0 0 0 0 0 -1 0 0 0 0zm0 0c18,0 33,14 33,30 0,17 -15,30 -33,30l0 -60zm0 -3l67 0 0 0 0 3 -1 3 0 3 -1 3 0 3 -1 3 -1 2 -1 3 -1 3 -2 3 -1 2 -2 3 -2 2 -2 3 -2 2 -2 2 -2 2 -2 2 -3 2 -2 2 -3 2 -3 2 -3 1 -3 2 -3 1 -3 1 -4 1 -3 1 -4 0 -3 1 -4 0 -3 0 0 -60 0 0 -1 1 0 0 0 0 0 0 0 0 0 0 -1 0 0 0 0 0 0 0 0 0 0 0 0 0 0 0 0 0 1 -1 0 0 0 0 0 0 0 0 0 0 0 0 0 -1 0 0 0 0 1 -1 0 0 0 0 0 -1 0 0 0 0 0 0zm0 0c0,-17 15,-30 33,-30 19,0 34,13 34,30l-67 0zm0 -4l0 -59 0 0 3 0 4 0 3 0 4 1 3 1 4 1 3 1 3 1 3 1 3 2 3 2 3 1 2 2 3 2 2 2 2 2 2 3 2 2 2 2 2 3 2 2 1 3 2 3 1 2 1 3 1 3 1 3 0 3 1 3 0 3 1 3 0 3 -67 0 0 -1 0 0 0 0 0 -1 0 0 -1 0 0 -1 0 0 0 0 0 0 0 0 0 -1 0 0 0 0 -1 0 0 0 0 0 0 0 0 0 0 0 0 0 0 0 0 0 0 0 1 0 0 0 0 0 0 0 0 0 0 0 1 0 0 0 0 0zm0 0c-19,0 -34,-13 -34,-30 0,-16 15,-29 34,-29l0 59z"/>
     </g>
    </g>
    <g>
     <path class="fil4 str1" d="M15710 7427c-82,-289 -467,-289 -687,-345 -26,-6 -52,-13 -78,-21 -26,-8 -52,-16 -74,-31 -92,-62 -95,-222 -108,-320 -13,-101 -21,-204 -21,-307 -1,-36 0,-73 2,-109 -93,35 -150,106 -251,109 -7,1 -50,0 -90,0 -38,0 -73,0 -73,0 0,0 -35,0 -72,0 -40,0 -83,1 -90,0 -102,-3 -158,-74 -251,-109 1,36 2,73 2,109 -1,103 -9,206 -22,307 -13,98 -16,258 -107,320 -22,15 -48,23 -74,31 -26,8 -53,15 -79,21 -220,56 -604,56 -686,345l-121 757 1500 0 1500 0 -120 -757z"/>
     <path class="fil23" d="M15710 7427c-82,-289 -467,-289 -687,-345 -26,-6 -52,-13 -78,-21 -11,-3 -23,-7 -33,-11 -146,127 -353,207 -582,207 -229,0 -435,-80 -581,-207 -11,4 -22,8 -33,11 -26,8 -53,15 -79,21 -220,56 -604,56 -686,345l-121 757 1500 0 1500 0 -120 -757z"/>
     <path class="fil23 str1" d="M14788 6829l251 308 -470 432 -171 -433 390 -307z"/>
     <path class="fil23 str1" d="M13872 6829l-250 308 469 432 172 -433 -391 -307z"/>
     <path class="fil27 str1" d="M15074 7050l365 124c0,0 272,51 293,395l98 615 -791 0 35 -1134z"/>
     <path class="fil28 str1" d="M14824 6873l25 -21 225 174 0 1158 -453 0 203 -1311z"/>
     <path class="fil27 str1" d="M13587 7050l-365 124c0,0 -272,51 -294,395l-98 615 792 0 -35 -1134z"/>
     <path class="fil28 str1" d="M13836 6873l-25 -21 -224 174 0 1158 453 0 -204 -1311z"/>
     <path class="fil5" d="M15005 5700c9,0 19,2 26,8 4,5 7,10 9,16 12,33 15,69 9,104 -33,50 -73,98 -96,154 -7,16 -21,47 -41,49 -22,3 -29,-26 -31,-42 -7,-84 6,-168 18,-252 1,-6 2,-12 6,-17 4,-6 10,-8 16,-10 27,-9 56,-12 84,-10z"/>
     <path class="fil4 str1" d="M14909 6031c-20,0 -26,-27 -28,-42 -1,-17 -2,-34 -2,-51 0,-67 10,-134 20,-201 1,-6 2,-12 6,-17 4,-6 10,-8 16,-10 22,-7 45,-11 68,-11 5,0 10,0 16,1 9,0 19,2 26,8 4,5 7,10 9,16 8,22 12,46 12,69 0,12 -1,23 -3,35 -33,50 -73,98 -96,154 -7,16 -21,47 -41,49 -1,0 -2,0 -3,0z"/>
     <path class="fil4 str1" d="M14957 5568l-60 590c-7,47 -27,93 -56,131l-281 280c-5,5 -9,10 -14,15 -38,44 -93,70 -151,70l-65 0 0 -1721c349,0 682,254 627,635z"/>
     <path class="fil4 str1" d="M13658 5700c-9,0 -19,2 -26,8 -4,5 -7,10 -9,16 -12,33 -15,69 -9,104 33,50 73,98 96,154 7,16 20,47 41,49 22,3 29,-26 31,-42 6,-84 -6,-168 -18,-252 -1,-6 -2,-12 -6,-17 -4,-6 -10,-8 -17,-10 -26,-9 -55,-12 -83,-10z"/>
     <path class="fil4 str1" d="M13703 5568l61 590c7,47 26,93 56,131l280 280c5,5 10,10 14,15 38,44 93,70 152,70l64 0 0 -1721c-348,0 -682,254 -627,635z"/>
     <path class="fil29 str1" d="M14950 5093c-34,-78 -83,-150 -148,-210 -193,-181 -498,-217 -744,-140 -57,18 -113,47 -158,87 -46,41 -60,74 -65,133 -89,1 -139,96 -165,169 -78,225 26,568 26,568l79 37c-16,-8 8,-159 11,-174 15,-103 45,-238 123,-314 74,67 177,88 275,104 111,19 225,21 336,6 -41,-24 -76,-57 -102,-96 97,52 202,102 311,91 -13,-18 -26,-35 -39,-53 21,28 80,34 110,52 47,28 76,89 90,140 11,42 15,86 16,130 1,13 15,108 4,114l67 -38c58,-196 57,-419 -27,-606z"/>
     <path class="fil30" d="M14690 7497c-2,24 -6,49 -22,66 -18,18 -46,23 -71,21 -69,-4 -131,-40 -190,-76 -68,-42 -137,-87 -186,-151 108,-84 230,-150 360,-195 34,-12 77,-21 103,5 18,18 19,47 19,73 0,86 -4,172 -13,257z"/>
     <path class="fil30 str1" d="M13971 7497c2,24 5,49 22,66 17,18 45,23 71,21 68,-4 131,-40 189,-76 68,-42 137,-87 186,-151 -108,-84 -230,-150 -359,-195 -35,-12 -77,-21 -103,5 -18,18 -20,47 -20,73 0,86 5,172 14,257z"/>
     <path class="fil24" d="M15830 8183l0 0c0,0 0,0 0,0zm0 0l0 -1c0,1 0,1 0,1zm0 -1l-98 -613c0,-5 -1,-10 -1,-15 0,5 1,10 1,15l8 47c34,214 85,538 90,566zm-116 -726c0,0 0,-1 0,-1l-4 -27c0,4 2,13 4,28zm-890 -583l0 0 25 -21 -25 21zm-17 -21l-19 -23 19 23zm-28 -16c-7,-40 -10,-79 -14,-113 4,34 7,73 14,113l0 0zm-14 -113c0,0 0,0 0,-1 0,1 0,1 0,1zm-23 -320c0,-5 0,-10 0,-15l0 0c0,5 0,10 0,15z"/>
     <path class="fil25" d="M14330 6654l-64 0c-59,0 -114,-26 -152,-70 -4,-5 -9,-10 -14,-15 5,5 10,10 14,15 38,44 93,70 152,70l64 0zm-230 -85l-169 -169 0 0 169 169z"/>
     <path class="fil26" d="M14395 6654l-65 0 65 0c53,0 103,-21 141,-58 -38,37 -88,58 -141,58zm154 -73c3,-4 7,-8 11,-12 -4,4 -8,8 -11,12z"/>
     <path class="fil31 str1" d="M14606 7584c-3,0 -6,0 -9,0 -17,-1 -33,-4 -49,-8l-144 -99c2,-3 34,-118 35,-120 -3,-3 -7,-6 -11,-8l0 -44c0,-28 -22,-51 -50,-51l-2 0c19,-10 38,-20 57,-30l0 0c48,-24 97,-44 148,-62 18,-6 38,-12 57,-12 17,0 33,5 46,17 18,18 19,47 19,73 0,71 -3,143 -9,214 -1,14 -3,29 -4,43 -2,24 -6,49 -22,66 -15,16 -39,21 -62,21z"/>
     <path class="fil31" d="M14434 7364l-6 -11 0 -4c4,2 8,5 11,8 -1,2 -3,4 -5,7z"/>
     <path class="fil32" d="M14428 7353l-52 -99 0 0 2 0c28,0 50,23 50,51l0 44 0 4z"/>
     <path class="fil33 str1" d="M14378 7480l-95 0c-28,0 -51,-22 -51,-50l0 -125c0,-28 23,-51 51,-51l95 0c28,0 50,23 50,51l0 125c0,28 -22,50 -50,50z"/>
     <path class="fil20 str2" d="M14330 6624l0 -1215"/>
     <g>
      <path class="fil11" d="M14097 5679c-18,0 -33,15 -33,33 0,19 15,34 33,34 19,0 34,-15 34,-34 0,-18 -15,-33 -34,-33zm440 0c-18,0 -33,15 -33,33 0,19 15,34 33,34 18,0 33,-15 33,-34 0,-18 -15,-33 -33,-33z"/>
      <path id="1" class="fil12" d="M14097 5712l-67 0 0 0 0 -3 1 -3 0 -3 0 -3 1 -3 1 -3 1 -2 1 -3 1 -3 2 -3 1 -2 2 -3 2 -2 1 -3 2 -2 3 -2 2 -2 2 -2 3 -2 2 -2 3 -2 3 -1 3 -2 3 -1 3 -2 3 -1 3 -1 4 0 3 -1 4 0 4 -1 3 0 0 60 0 0 1 0 0 0 0 0 0 0 0 0 0 0 1 -1 0 0 0 0 0 0 0 0 0 0 0 0 0 0 0 1 -1 0 0 0 0 0 0 0 0 0 0 0 0 1 0 0 0 0 -1 0 0 1 0 0 0 0 0 1 0 0 0 0 0 0zm0 0c0,17 -15,30 -33,30 -19,0 -34,-13 -34,-30l67 0zm0 4l0 60 0 0 -3 0 -4 -1 -4 0 -3 -1 -4 -1 -3 -1 -3 -1 -3 -1 -3 -1 -3 -2 -3 -1 -3 -2 -2 -2 -3 -2 -2 -2 -2 -2 -3 -2 -2 -3 -2 -2 -1 -3 -2 -2 -1 -3 -2 -2 -1 -3 -1 -3 -1 -3 -1 -3 -1 -3 0 -2 0 -3 -1 -4 0 -3 67 0 0 1 0 0 0 0 0 1 0 0 0 0 1 1 0 0 0 0 0 0 0 1 0 0 0 0 0 0 0 0 1 0 0 0 0 0 0 0 0 0 0 0 0 0 0 0 0 0 -1 0 0 0 0 0 0 0 0 0 0 0 -1 0 0 0 0 0zm0 0c19,0 34,13 34,30 0,16 -15,30 -34,30l0 -60zm0 -4l67 0 0 0 0 3 0 4 -1 3 0 2 -1 3 -1 3 -1 3 -1 3 -1 3 -1 2 -2 3 -1 2 -2 3 -2 2 -2 3 -2 2 -2 2 -3 2 -2 2 -3 2 -3 2 -2 1 -3 2 -3 1 -4 1 -3 1 -3 1 -4 1 -3 1 -4 0 -3 1 -4 0 0 -60 0 0 0 0 0 0 0 0 -1 0 0 0 0 0 0 0 0 0 0 0 0 0 0 0 0 0 0 0 0 0 0 0 0 0 0 0 0 0 0 0 0 0 0 -1 1 0 0 0 0 0 0 -1 0 0 0 0 0 -1 0 0 0 0 0 -1 0 0zm0 0c0,-16 15,-29 34,-29 18,0 33,13 33,29l-67 0zm0 -3l0 -60 0 0 4 0 3 1 4 0 3 1 4 0 3 1 3 1 4 2 3 1 3 2 2 1 3 2 3 2 2 2 3 2 2 2 2 2 2 2 2 3 2 2 1 3 2 2 1 3 1 3 1 3 1 2 1 3 1 3 0 3 1 3 0 3 0 3 -67 0 0 0 0 0 0 -1 0 0 0 0 0 -1 0 0 0 0 0 0 -1 -1 0 0 0 0 0 0 0 0 0 0 0 0 0 -1 0 0 0 0 0 0 0 0 0 0 0 0 0 0 0 1 0 0 0 0 1 0 0 0 0 0 0 0 0 0 0 0zm0 0c-18,0 -33,-14 -33,-30 0,-17 15,-30 33,-30l0 60zm440 3l-67 0 0 0 0 -3 0 -3 1 -3 0 -3 1 -3 1 -3 1 -2 1 -3 1 -3 1 -3 2 -2 2 -3 1 -2 2 -3 2 -2 2 -2 3 -2 2 -2 2 -2 3 -2 3 -2 3 -1 3 -2 3 -1 3 -2 3 -1 3 -1 4 0 3 -1 4 0 3 -1 4 0 0 60 0 0 0 0 1 0 0 0 0 0 0 0 0 0 0 -1 0 0 1 0 0 0 0 0 0 0 0 0 -1 0 0 1 0 0 0 0 0 0 0 0 0 0 0 0 0 1 -1 0 0 0 0 0 0 1 0 0 0 0 0 1 0 0 0 0 0 0zm0 0c0,17 -15,30 -33,30 -19,0 -34,-13 -34,-30l67 0zm0 4l0 60 0 0 -4 0 -3 -1 -4 0 -3 -1 -4 -1 -3 0 -3 -2 -3 -1 -3 -1 -3 -2 -3 -1 -3 -2 -3 -2 -2 -2 -2 -2 -3 -2 -2 -2 -2 -3 -2 -2 -1 -3 -2 -2 -2 -3 -1 -2 -1 -3 -1 -3 -1 -3 -1 -3 -1 -3 0 -2 -1 -3 0 -4 0 -3 67 0 0 1 0 0 0 0 0 1 0 0 0 0 0 1 0 0 1 0 0 0 0 1 0 0 0 0 0 0 0 0 0 0 0 0 1 0 0 0 0 0 0 0 0 0 -1 0 0 0 0 0 0 0 0 0 0 0 0 0 -1 0 0 0 0 0 0 0zm0 0c18,0 33,13 33,30 0,16 -15,30 -33,30l0 -60zm0 -4l67 0 0 0 0 3 0 4 -1 3 0 2 -1 3 -1 3 -1 3 -1 3 -1 3 -1 2 -2 3 -2 2 -1 3 -2 2 -2 3 -2 2 -3 2 -2 2 -2 2 -3 2 -3 2 -3 1 -3 2 -3 1 -3 1 -3 2 -3 0 -4 1 -3 1 -4 0 -3 1 -4 0 0 -60 0 0 0 0 -1 0 0 0 0 0 0 0 0 0 0 0 0 0 -1 0 0 0 1 0 -1 0 1 0 0 0 0 0 0 0 0 0 0 0 0 0 0 0 0 -1 0 0 1 0 0 0 0 -1 0 0 0 0 0 -1 0 0 0 0 0 -1 0 0zm0 0c0,-16 15,-29 33,-29 19,0 34,13 34,29l-67 0zm0 -3l0 -60 0 0 4 0 3 1 4 0 3 1 4 0 3 1 3 1 3 2 3 1 3 2 3 1 3 2 3 2 2 2 2 2 3 2 2 2 2 2 2 3 1 2 2 3 2 2 1 3 1 3 1 3 1 2 1 3 1 3 0 3 1 3 0 3 0 3 -67 0 0 0 0 0 0 -1 0 0 0 0 0 -1 0 0 0 0 -1 0 0 -1 0 0 0 0 0 0 0 0 0 0 0 0 0 0 0 -1 -1 0 1 0 -1 0 0 0 1 0 0 0 0 1 0 0 0 0 0 0 0 0 1 0 0 0 0 0 0 0zm0 0c-18,0 -33,-14 -33,-30 0,-17 15,-30 33,-30l0 60z"/>
     </g>
    </g>
   </g>
   <g>
    <path class="fil34 str3" d="M12260 10196l0 6352c-1207,0 -3376,0 -4584,0l0 -6352 4584 0z"/>
    <g>
     <path class="fil35" d="M10296 13878c90,79 21,120 -46,117 6,-52 16,-8 18,-69 -11,-2 -23,-2 -34,-4l-27 -3c-21,-1 -43,7 -56,12 16,76 36,-1 36,72 -26,-3 -8,-2 -18,-7 -2,-1 -4,-2 -6,-3l-44 -20c-20,-9 -33,-20 -57,-22 -28,-24 -11,-22 -37,-24 -65,-5 -25,0 -17,23 15,25 59,31 88,46 -7,27 -12,25 -31,44 7,59 5,-6 22,45 -35,29 -52,77 -89,109 -57,19 -48,-51 -118,-97 8,-44 -23,-8 29,-37 -96,-8 -49,-59 -27,-74l27 -17c-12,-31 23,-24 -28,-18 -58,75 -70,2 -81,-26 -62,-6 -49,11 -49,11l-5 -29c-32,11 -5,9 -49,19l-15 16c12,33 3,5 14,22 10,14 8,3 14,23 -50,31 13,12 -60,28 -49,11 0,-13 -15,5 -11,21 6,16 -11,18 33,1 41,15 65,33 28,20 30,19 42,55 -37,-16 -68,0 -107,8 38,-2 39,-9 89,-6l-12 10c-26,23 -19,9 -21,23 42,0 23,-26 100,-18 38,3 66,13 69,61 3,41 -7,37 -16,59 -15,36 5,-19 6,29 1,38 -39,50 -75,40 13,29 16,17 17,49 -42,20 -53,25 -97,3 -2,-1 -34,-20 -35,-21 -68,-56 34,-45 24,-96l-142 -118c-69,-37 -35,-47 -84,-88l-77 -86c-29,-42 -24,-15 -36,-51l-9 13 4 83 -52 -5c10,84 -10,15 -24,66 -9,34 9,31 20,55 -9,7 -22,14 -38,22 13,40 20,39 51,63 -2,2 -5,3 -6,4 -1,1 -4,3 -5,4 -23,25 -7,-17 -18,32 47,56 52,29 50,63l-48 5 -12 19c25,10 43,21 46,54 -26,17 -44,16 -60,37 -7,10 -26,61 -30,72 156,47 23,15 185,23 -6,39 -11,33 -22,65 47,-9 46,-28 104,-29l-7 48c0,2 1,5 2,7 0,1 1,5 2,7 64,-24 6,-27 63,-42 38,25 20,26 20,26l7 13c19,-10 14,-9 27,-19 18,-14 0,-6 27,-21 35,16 15,18 42,26 32,-40 -5,-90 125,-62l-3 90c-158,15 -113,79 -111,111l-15 4c3,48 26,9 58,48 -40,30 -144,96 -183,53l-39 -1c-2,-1 -4,-7 -5,-6l-68 -73c-1,-2 -4,-4 -5,-5 -2,-2 -4,-4 -6,-5 8,29 16,37 6,66l44 32c0,1 -64,53 23,88 44,18 20,-15 48,25 16,24 4,36 17,58l37 -4c-15,-48 -24,-15 -45,-73 17,-33 -1,-6 23,-30 11,-10 19,-15 32,-22 77,-41 90,-37 155,-53 55,-13 36,-18 44,-64l49 2c-25,-21 -54,-17 -31,-62 14,-29 49,-27 89,-26 13,26 32,39 20,78 -11,35 -25,45 -50,59l22 19c2,1 4,4 5,5 1,1 4,3 5,4 -76,14 -103,48 -150,88 -81,68 -46,-34 -78,-5 -28,25 6,62 9,71l-28 13 -13 18c-9,22 -7,15 -9,41 35,19 18,25 49,29 97,11 4,-2 62,25 23,11 30,5 51,3 82,-8 24,13 86,24 26,5 42,-2 62,1 31,4 13,8 46,19 71,-55 51,2 118,-30l16 -11c9,-10 0,-4 10,-17 15,15 64,23 92,13 17,-6 29,-20 40,-25 55,-20 9,5 53,1 11,-19 18,-27 19,-59l-43 -35 16 -67c-13,-11 -9,19 -13,-25 -2,2 -3,2 -4,6l-10 18c-2,4 -8,17 -10,22 -58,-6 -70,-54 -192,-111 -2,-1 -6,-2 -7,-3 -2,-1 -5,-3 -8,-4 1,-2 3,-9 3,-7 1,1 2,-6 3,-8 4,-11 3,-8 6,-22 -13,-7 -31,-17 -45,-26 -4,-97 51,-124 118,-81l-6 47 -16 20c52,10 30,6 50,56l44 7c60,30 124,45 185,72 44,20 33,43 85,40 31,-2 71,-25 102,-34 30,-74 36,-78 24,-114 -9,-28 -10,-37 -32,-51 -23,-15 -40,-8 -48,-26 -127,0 -129,97 -144,124 -37,-1 -98,-23 -122,-36 8,-33 5,-20 18,-39 18,-25 -3,-6 24,-21 -32,-29 -12,-36 -16,-71 -6,-44 -31,-24 -67,-53l-53 -3c11,21 3,34 58,37 -32,-12 -19,10 -66,-19 -2,-1 -7,-5 -10,-6l-37 34c-5,-25 -6,-53 -65,-40 -33,8 -45,29 -66,32 -23,3 -45,-44 -73,19 -10,-58 -5,-36 5,-54 -100,8 -73,-7 -119,3 16,-54 9,-43 8,-88 -2,-56 12,-21 -2,-47l-22 -35 -64 0 21 -21c36,-45 -26,41 8,-11l29 -3c1,-1 2,-4 3,-6 7,-19 -3,23 7,-20 1,3 2,19 3,19 9,31 -12,3 12,26l9 -98c95,2 300,-16 356,-1 5,-2 13,-4 21,-11 22,-22 14,6 16,-30 -39,3 -49,7 -74,-13 12,-43 7,-19 40,-47l-59 -34c-2,-136 110,-92 115,-92l13 -39c17,-29 20,-14 62,-37 39,-20 12,-2 32,-22 8,-46 2,-7 -19,-48 25,-12 52,-18 76,-30 -8,-59 -72,-82 -5,-124 39,-12 5,1 22,-15 -60,-22 -97,-17 -110,54z"/>
     <path class="fil35" d="M10224 14648l-56 -8 0 -92c50,-6 52,3 101,8 0,31 -6,29 10,50l-9 -33c44,15 29,15 31,1 -22,-6 -5,-3 -19,-11 -49,-31 -48,-3 -48,-80 21,13 26,-14 36,44 9,-15 4,-15 -2,-41 25,7 24,20 18,-10 -5,-23 -2,-32 -16,-49l-23 53c-16,-32 31,21 -16,-5 -32,-18 -13,-31 -24,-59 -2,2 -5,4 -6,5 -19,19 -13,10 -17,37l-5 17c-30,-15 -27,-6 -29,-47 -1,-39 4,-43 16,-55l0 -7c-56,-15 -261,3 -356,1l-9 98c-24,-23 -3,5 -12,-26 -1,0 -2,-16 -3,-19 -10,43 0,1 -7,20 -1,2 -2,5 -3,6l-29 3c-34,52 28,-34 -8,11l-21 21 64 0 22 35c14,26 0,-9 2,47 1,45 8,34 -8,88 46,-10 19,5 119,-3 -10,18 -15,-4 -5,54 28,-63 50,-16 73,-19 21,-3 33,-24 66,-32 59,-13 60,15 65,40l37 -34c3,1 8,5 10,6 47,29 34,7 66,19 -55,-3 -47,-16 -58,-37l53 3z"/>
     <path class="fil35" d="M10197 14387c-16,7 -4,-27 -16,8l0 16c104,29 141,11 188,-53 -29,-16 11,11 -12,-14l-19 -19c-16,-13 -11,10 -32,-31 91,-3 94,-18 112,-64 58,-1 26,11 61,-13l61 -31c-5,31 -14,14 -9,33l62 4 -6 19c-21,29 -7,7 -11,7l41 9c-11,16 -23,6 -50,49 24,12 36,-13 64,5l-55 45c-7,3 -19,7 -27,9 4,3 15,15 17,22 0,0 23,-6 -21,44 31,-2 30,1 63,1l-9 33c-3,6 -20,12 -27,53 -57,-2 -45,-38 -78,-10 -36,29 -8,31 -67,46 -34,8 11,-43 -19,7 -10,11 -7,21 6,65 39,1 -5,4 36,-28l90 39c2,-2 4,-8 4,-7l16 -36 84 18c-21,-102 -25,-45 54,-76 -24,-33 -27,-4 -39,-45 32,-39 38,-16 64,-45 -24,-24 -22,-14 -57,-27 9,-23 -16,-9 65,-46 -21,-25 -14,-14 -56,-26 5,-25 4,-28 44,-63 -26,-13 -10,0 -26,-5 -2,-1 -5,-2 -7,-3 -2,-1 -5,-2 -7,-3l-14 -7c10,-14 64,-87 68,-91l-57 -18c9,-24 1,-5 18,-19 15,-13 5,13 22,-21 5,-10 10,-62 12,-77l-27 3 -5 -44c-27,11 -15,17 -49,17 -3,-33 8,-55 -7,-83 -13,7 -70,87 -78,101 -30,47 -126,101 -147,123 -11,12 -22,38 -37,55 -34,38 -66,44 -96,81 20,45 31,31 49,63 -33,36 -66,56 -134,30z"/>
     <path class="fil35" d="M10197 14387l-31 -14c-12,12 -17,16 -16,55 2,41 -1,32 29,47l5 -17c4,-27 -2,-18 17,-37 1,-1 4,-3 6,-5 11,28 -8,41 24,59 47,26 0,-27 16,5l23 -53c14,17 11,26 16,49 6,30 7,17 -18,10 6,26 11,26 2,41 -10,-58 -15,-31 -36,-44 0,77 -1,49 48,80 14,8 -3,5 19,11 -2,14 13,14 -31,-1l9 33 26 26c31,-23 12,-27 46,-53 32,15 25,27 63,48 -13,-44 -16,-54 -6,-65 30,-50 -15,1 19,-7 59,-15 31,-17 67,-46 33,-28 21,8 78,10 7,-41 24,-47 27,-53l9 -33c-33,0 -32,-3 -63,-1 44,-50 21,-44 21,-44 -2,-7 -13,-19 -17,-22 8,-2 20,-6 27,-9l55 -45c-28,-18 -40,7 -64,-5 27,-43 39,-33 50,-49l-41 -9c4,0 -10,22 11,-7l6 -19 -62 -4c-5,-19 4,-2 9,-33l-61 31c-35,24 -3,12 -61,13 -18,46 -21,61 -112,64 21,41 16,18 32,31l19 19c23,25 -17,-2 12,14 -47,64 -84,82 -188,53l0 -16c12,-35 0,-1 16,-8z"/>
     <path class="fil35" d="M9881 13951c51,-6 16,-13 28,18l-27 17c26,-3 33,-4 53,-17l31 -27c2,-1 4,-4 6,-5 31,8 10,-1 36,13 -8,-23 -48,-28 17,-23 26,2 9,0 37,24 -10,-102 28,-57 25,-154l-40 -21c-21,-9 -31,-10 -60,-13 -4,-43 22,-41 -4,-64 -37,-34 -19,27 -19,33 -1,35 -12,36 -44,49 -122,51 -45,74 -39,170z"/>
     <path class="fil35" d="M10070 14834c17,-17 2,6 11,-18 1,-2 6,-24 8,-27 14,-26 7,-14 48,-15l6 -47c-67,-43 -122,-16 -118,81 14,9 32,19 45,26z"/>
     <path class="fil35" d="M10439 13841l23 8c-19,83 -23,71 24,122 14,-4 13,-6 19,-9 48,-24 32,-7 61,-20l-44 -18c-17,-72 22,-69 -18,-98l-65 15z"/>
     <path class="fil35" d="M10171 15034c26,-56 -55,-91 -88,-129 -32,-35 -11,-28 -65,-34 20,49 30,33 72,98 22,33 21,91 81,65z"/>
     <path class="fil35" d="M9782 15037c55,-1 47,-33 107,-114 16,-22 21,-14 33,-44 -52,2 -59,27 -98,61 -30,25 -59,55 -42,97z"/>
    </g>
    <path class="fil2 str0" d="M9217 11180l164 -162c3,-4 8,-6 13,-6 5,0 9,2 13,6 5,4 7,9 7,14 0,4 -2,8 -6,13l-116 116 119 211 3 10c0,5 -2,10 -6,13 -4,4 -9,6 -14,6 -7,0 -12,-3 -17,-10l-114 -203 -46 46 0 148c0,6 -2,11 -6,14 -3,3 -8,5 -14,5 -5,0 -9,-2 -13,-5 -4,-3 -6,-8 -6,-14l0 -351c0,-5 2,-9 6,-13 4,-4 8,-6 13,-6 5,0 10,2 14,5 4,3 6,8 6,14l0 149zm457 143c0,22 -7,40 -22,55 -16,15 -34,23 -55,23l-78 0c-21,0 -39,-7 -55,-23 -15,-15 -23,-33 -23,-55l0 -233c0,-22 8,-40 23,-55 15,-15 33,-23 55,-23l78 0c21,0 40,8 55,23 15,15 22,34 22,55l0 233zm-38 1l0 -234c0,-11 -4,-20 -11,-28 -8,-7 -17,-11 -28,-11l-78 0c-11,0 -20,4 -28,11 -4,4 -6,8 -8,13 -2,4 -3,9 -3,15l0 234c0,10 4,20 11,27 4,4 8,6 13,9 5,2 10,2 15,2l78 0c11,0 20,-3 27,-10 8,-8 12,-17 12,-28zm140 38l36 -333c0,-11 7,-17 20,-17l116 0c13,0 20,7 20,20l0 330 19 0c13,0 20,7 20,20l0 38c0,6 -2,10 -6,14 -4,4 -8,6 -13,6 -5,0 -9,-2 -13,-5 -5,-3 -7,-8 -7,-15l0 -19 -195 0 0 19c0,6 -2,10 -6,14 -4,4 -8,6 -13,6 -4,0 -9,-2 -13,-5 -4,-3 -6,-8 -6,-15l0 -38c0,-13 6,-20 19,-20l22 0zm153 0l0 -311 -80 0 -35 311 115 0zm166 -194l98 0c5,0 10,2 14,6 4,4 5,8 5,13 0,5 -1,9 -4,13 -4,5 -9,7 -15,7l-98 0 0 155 137 0c5,0 10,2 14,6 3,4 5,9 5,14 0,4 -1,9 -5,13 -3,4 -8,6 -14,6l-156 0c-13,0 -20,-6 -20,-18l0 -351c0,-13 7,-20 20,-20l156 0c5,0 10,2 14,6 3,4 5,9 5,14 0,4 -1,9 -5,13 -3,4 -8,6 -14,6l-137 0 0 117zm244 12l164 -162c4,-4 8,-6 13,-6 5,0 10,2 14,6 4,4 6,9 6,14 0,4 -2,8 -6,13l-115 116 119 211 3 10c0,5 -2,10 -7,13 -4,4 -8,6 -14,6 -6,0 -12,-3 -16,-10l-114 -203 -47 46 0 148c0,6 -2,11 -5,14 -4,3 -8,5 -14,5 -5,0 -10,-2 -14,-5 -4,-3 -5,-8 -5,-14l0 -351c0,-5 2,-9 5,-13 4,-4 9,-6 14,-6 5,0 9,2 13,5 4,3 6,8 6,14l0 149zm400 221l-97 0c-22,0 -40,-7 -55,-23 -16,-15 -23,-33 -23,-55l0 -233c0,-22 7,-40 22,-55 15,-15 34,-23 56,-23l97 0c5,0 10,2 14,6 3,4 5,9 5,14 0,4 -1,8 -5,13 -3,4 -8,6 -14,6l-98 0c-11,0 -20,4 -28,11 -3,4 -6,8 -8,13 -2,4 -3,9 -3,15l0 234c0,10 4,20 11,27 4,4 9,6 13,9 6,2 11,2 15,2l98 0c5,0 10,2 14,6 3,4 5,9 5,14 0,4 -1,8 -5,13 -3,4 -8,6 -14,6z"/>
    <g>
     <path class="fil2 str0" d="M9933 11999c0,18 -6,33 -19,46 -12,12 -28,19 -45,19l-65 0c-18,0 -33,-7 -46,-19 -13,-13 -19,-28 -19,-46l0 -194c0,-19 6,-34 19,-46 12,-13 28,-19 46,-19l65 0c18,0 33,6 45,19 13,12 19,28 19,46l0 194zm-32 0l0 -195c0,-9 -3,-16 -9,-23 -6,-6 -14,-9 -23,-9l-65 0c-9,0 -17,3 -24,9 -3,3 -5,7 -6,11 -2,4 -3,8 -3,12l0 195c0,9 3,17 9,23 4,3 7,5 11,7 5,2 9,3 13,3l65 0c9,0 16,-3 23,-10 6,-6 9,-13 9,-23zm132 -97l0 130 97 0c9,0 17,-3 23,-10 7,-6 10,-13 10,-23l0 -65c0,-9 -3,-17 -9,-23 -7,-6 -14,-9 -24,-9l-97 0zm0 -32l97 0c18,0 33,6 46,18 13,13 19,28 19,46l0 65c0,18 -6,33 -19,46 -13,12 -28,19 -46,19l-113 0c-11,0 -16,-6 -16,-16l0 -292c0,-11 5,-16 16,-16l129 0c5,0 9,1 12,5 3,3 5,7 5,11 0,4 -2,7 -4,11 -3,3 -7,5 -13,5l-113 0 0 98zm-1907 631l-23 70c-2,3 -3,6 -6,8 -2,2 -5,3 -9,3 -4,0 -8,-1 -11,-4 -4,-3 -6,-7 -6,-12l1 -5 98 -292c3,-9 8,-14 15,-14 7,0 12,5 15,14l97 292 1 5c0,5 -1,8 -5,12 -3,3 -7,4 -11,4 -2,0 -5,0 -8,-1 -2,-2 -5,-5 -7,-10l-23 -70 -118 0zm107 -33l-48 -143 -48 143 96 0zm138 82l31 -278c0,-9 6,-14 16,-14l97 0c11,0 17,5 17,16l0 276 16 0c11,0 16,5 16,16l0 32c0,5 -1,8 -5,12 -3,3 -7,4 -11,4 -3,0 -7,-1 -11,-4 -3,-2 -5,-6 -5,-12l0 -16 -162 0 0 16c0,5 -2,8 -5,12 -4,3 -7,4 -11,4 -4,0 -8,-1 -11,-4 -4,-2 -6,-6 -6,-12l0 -32c0,-11 6,-16 17,-16l17 0zm128 0l0 -260 -66 0 -29 260 95 0zm333 16c0,5 -1,9 -4,12 -3,3 -7,4 -12,4 -3,0 -7,-1 -10,-4 -4,-3 -6,-7 -6,-12l0 -231 -67 112c-4,7 -8,10 -14,10 -4,0 -9,-3 -14,-10l-67 -112 0 231c0,5 -2,9 -5,12 -3,3 -7,4 -11,4 -5,0 -8,-1 -12,-4 -3,-3 -4,-7 -4,-12l0 -290c0,-6 1,-11 4,-14 3,-3 6,-5 10,-5 3,0 6,1 8,2 2,2 5,5 8,9l83 138 83 -138c4,-7 9,-11 16,-11 4,0 7,2 10,5 3,4 4,8 4,14l0 290zm236 0c0,5 -2,9 -5,12 -3,3 -6,4 -11,4 -4,0 -8,-1 -11,-4 -4,-3 -5,-7 -5,-12l0 -229 -132 237c-2,3 -4,6 -7,8l-3 2c-2,0 -3,1 -5,1 -4,0 -7,-2 -11,-5 -3,-3 -4,-8 -4,-14l0 -291c0,-5 1,-9 4,-13 4,-2 8,-4 12,-4 4,0 8,2 11,4 3,3 5,7 5,13l0 229 131 -237c2,-3 4,-6 7,-8 3,-2 6,-3 9,-3 4,0 7,1 10,5 3,3 5,8 5,13l0 292zm203 -178l0 -114c0,-4 2,-8 5,-11 4,-3 7,-5 12,-5 4,0 7,1 11,4 3,3 5,7 5,12l0 292c0,4 -2,8 -5,12 -4,3 -8,4 -12,4 -4,0 -7,-1 -11,-4 -3,-2 -5,-6 -5,-12l0 -146 -129 0 0 146c0,5 -2,9 -5,12 -3,3 -7,4 -11,4 -5,0 -9,-1 -12,-4 -3,-3 -5,-7 -5,-12l0 -292c0,-4 2,-8 5,-12 3,-2 7,-4 12,-4 4,0 7,2 11,4 3,3 5,7 5,13l0 113 129 0zm268 178c0,5 -1,9 -4,12 -3,3 -7,4 -12,4 -4,0 -8,-1 -11,-4 -3,-3 -5,-7 -5,-12l0 -229 -131 237c-2,3 -5,6 -7,8l-4 2c-1,0 -3,1 -5,1 -3,0 -7,-2 -11,-5 -2,-3 -4,-8 -4,-14l0 -291c0,-5 2,-9 5,-13 3,-2 7,-4 11,-4 4,0 8,2 11,4 4,3 5,7 5,13l0 229 132 -237c1,-3 4,-6 7,-8 3,-2 6,-3 9,-3 3,0 6,1 10,5 3,3 4,8 4,13l0 292zm188 16l-81 0c-18,0 -33,-6 -46,-19 -13,-12 -19,-28 -19,-46l0 -194c0,-18 6,-33 19,-46 12,-13 28,-19 46,-19l81 0c4,0 8,2 11,5 4,3 5,7 5,11 0,4 -1,7 -4,11 -3,4 -7,5 -12,5l-81 0c-9,0 -17,3 -24,10 -3,3 -5,6 -7,10 -1,4 -2,8 -2,13l0 195c0,9 3,16 9,23 4,2 7,5 11,7 4,1 9,2 13,2l81 0c4,0 8,2 11,5 4,3 5,7 5,11 0,4 -1,7 -4,11 -3,3 -7,5 -12,5zm138 -292l-64 0c-5,0 -9,-1 -12,-4 -3,-4 -5,-8 -5,-12 0,-4 2,-7 4,-11 3,-3 7,-5 13,-5l161 0c5,0 9,2 12,5 3,3 5,7 5,11 0,4 -2,7 -4,11 -3,4 -7,5 -13,5l-64 0 0 276c0,5 -2,9 -5,12 -3,3 -7,4 -12,4 -4,0 -8,-1 -11,-4 -3,-3 -5,-7 -5,-12l0 -276zm187 130l98 0c9,0 16,-3 23,-9 6,-6 9,-14 9,-23l0 -65c0,-9 -3,-17 -9,-23 -6,-7 -14,-10 -23,-10l-98 0 0 130zm0 32l0 114c0,5 -1,9 -4,12 -3,3 -7,4 -12,4 -4,0 -8,-1 -11,-4 -3,-3 -5,-7 -5,-12l0 -292c0,-11 5,-16 16,-16l114 0c18,0 33,6 45,19 13,13 19,28 19,46l0 65c0,17 -6,33 -19,45 -12,13 -28,19 -45,19l-98 0zm228 49l-23 70c-1,3 -3,6 -6,8 -2,2 -5,3 -9,3 -4,0 -8,-1 -11,-4 -4,-3 -5,-7 -5,-12l1 -5 97 -292c3,-9 8,-14 15,-14 7,0 12,5 16,14l97 292 1 5c0,5 -2,8 -6,12 -3,3 -7,4 -11,4 -2,0 -5,0 -7,-1 -3,-2 -5,-5 -8,-10l-23 -70 -118 0zm107 -33l-48 -143 -48 143 96 0zm121 -178l-65 0c-5,0 -9,-1 -12,-4 -3,-4 -4,-8 -4,-12 0,-4 1,-7 4,-11 3,-3 7,-5 12,-5l162 0c4,0 8,2 11,5 4,3 5,7 5,11 0,4 -1,7 -4,11 -3,4 -7,5 -12,5l-65 0 0 276c0,5 -1,9 -4,12 -3,3 -7,4 -12,4 -4,0 -8,-1 -11,-4 -4,-3 -5,-7 -5,-12l0 -276zm349 276c0,5 -2,9 -5,12 -3,3 -6,4 -11,4 -4,0 -8,-1 -12,-4 -3,-3 -4,-7 -4,-12l0 -229 -132 237c-2,3 -4,6 -7,8l-3 2c-2,0 -3,1 -6,1 -3,0 -6,-2 -10,-5 -3,-3 -4,-8 -4,-14l0 -291c0,-5 1,-9 4,-13 4,-2 7,-4 12,-4 4,0 8,2 11,4 3,3 5,7 5,13l0 229 131 -237c2,-3 4,-6 7,-8 3,-2 6,-3 9,-3 4,0 7,1 10,5 3,3 5,8 5,13l0 292zm205 -169c9,6 16,14 22,24 6,10 9,20 9,32l0 64c0,18 -7,33 -19,46 -13,13 -28,19 -46,19l-113 0c-11,0 -17,-5 -17,-16l0 -292c0,-11 6,-16 17,-16l97 0c18,0 33,6 46,19 12,13 19,28 19,46l0 32c0,8 -2,15 -4,22 -2,7 -6,14 -11,20zm-131 23l0 130 97 0c9,0 17,-3 23,-9 6,-6 9,-14 9,-23l0 -65c0,-10 -3,-17 -9,-23 -6,-7 -14,-10 -23,-10l-97 0zm81 -32c9,0 16,-3 23,-9 6,-6 9,-14 9,-24l0 -32c0,-9 -3,-17 -9,-23 -6,-7 -14,-10 -23,-10l-81 0 0 98 81 0zm284 0l0 -114c0,-4 2,-8 5,-11 3,-3 7,-5 11,-5 4,0 8,1 11,4 4,3 5,7 5,12l0 292c0,4 -1,8 -5,12 -4,3 -7,4 -11,4 -4,0 -8,-1 -11,-4 -3,-2 -5,-6 -5,-12l0 -146 -130 0 0 146c0,5 -1,9 -4,12 -3,3 -7,4 -12,4 -4,0 -8,-1 -11,-4 -3,-3 -5,-7 -5,-12l0 -292c0,-4 2,-8 5,-12 3,-2 7,-4 11,-4 4,0 8,2 11,4 4,3 5,7 5,13l0 113 130 0zm301 178c0,5 -2,9 -5,12 -3,3 -6,4 -11,4 -5,0 -8,-1 -12,-4 -3,-3 -4,-7 -4,-12l0 -292c0,-4 1,-8 4,-12 4,-2 7,-4 12,-4 4,0 8,1 11,4 3,3 5,7 5,12l0 292zm-195 -146l0 130 65 0c9,0 17,-3 23,-9 7,-6 10,-14 10,-23l0 -65c0,-10 -3,-17 -9,-23 -7,-7 -14,-10 -24,-10l-65 0zm0 -32l65 0c18,0 33,6 46,19 13,12 19,28 19,46l0 64c0,18 -6,33 -19,46 -13,13 -28,19 -46,19l-81 0c-11,0 -16,-5 -16,-16l0 -292c0,-4 2,-8 5,-12 3,-2 7,-4 11,-4 4,0 8,1 11,4 3,3 5,7 5,12l0 114zm350 3l83 -126c1,-2 3,-4 6,-5l3 -2 4 0c4,0 8,2 12,5 3,3 5,7 5,12 0,2 -1,5 -3,9l-91 136 91 137 2 5 1 4c0,4 -2,8 -5,11 -3,4 -7,5 -12,5 -5,0 -10,-2 -13,-7l-83 -125 -84 125c-1,2 -3,4 -6,6l-7 1c-4,0 -7,-1 -12,-5 -3,-3 -5,-7 -5,-11 0,-3 1,-6 3,-9l91 -137 -92 -136 -2 -5 0 -5c0,-4 2,-8 5,-11 3,-3 7,-5 12,-5 5,0 10,3 13,8l84 125zm-3400 693c0,5 -1,10 -4,13 -3,2 -7,4 -12,4 -4,0 -8,-2 -11,-4 -3,-3 -5,-7 -5,-13l0 -275 -130 0 0 275c0,5 -1,10 -4,13 -3,2 -7,4 -12,4 -4,0 -8,-2 -11,-4 -3,-3 -5,-7 -5,-13l0 -291c0,-11 5,-16 16,-16l162 0c11,0 16,5 16,16l0 291zm74 -145l97 0c9,0 17,-3 23,-10 7,-6 10,-13 10,-23l0 -65c0,-9 -3,-17 -9,-23 -6,-6 -14,-9 -24,-9l-97 0 0 130zm0 32l0 113c0,5 -2,10 -5,13 -3,2 -6,4 -11,4 -4,0 -8,-2 -11,-4 -4,-3 -5,-7 -5,-13l0 -291c0,-11 5,-16 16,-16l113 0c18,0 34,6 46,18 13,13 19,28 19,46l0 65c0,18 -6,33 -19,46 -13,12 -28,19 -46,19l-97 0zm228 49l-23 69c-2,4 -4,7 -6,9 -3,1 -6,2 -9,3 -5,0 -8,-2 -12,-5 -3,-3 -5,-7 -5,-11l1 -6 98 -291c3,-10 8,-14 15,-14 7,0 12,4 15,14l97 291 1 6c0,4 -1,8 -5,11 -3,3 -7,5 -11,5 -3,0 -5,-1 -8,-2 -2,-1 -5,-4 -7,-10l-24 -69 -117 0zm107 -34l-48 -142 -48 142 96 0zm268 -70c9,5 16,13 22,23 6,10 9,21 9,32l0 65c0,18 -7,33 -19,45 -13,13 -28,20 -46,20l-114 0c-10,0 -16,-6 -16,-17l0 -291c0,-11 6,-16 16,-16l98 0c18,0 33,6 46,18 12,13 18,28 18,46l0 33c0,7 -1,14 -3,21 -2,7 -6,14 -11,21zm-132 23l0 129 98 0c9,0 16,-3 23,-9 6,-6 9,-14 9,-23l0 -65c0,-9 -3,-17 -9,-23 -6,-6 -14,-9 -23,-9l-98 0zm82 -33c9,0 16,-3 23,-9 6,-6 9,-14 9,-23l0 -33c0,-9 -3,-17 -9,-23 -6,-6 -14,-9 -23,-9l-82 0 0 97 82 0zm316 130c0,18 -6,33 -19,45 -12,13 -28,20 -45,20l-65 0c-18,0 -33,-7 -46,-19 -13,-13 -19,-28 -19,-46l0 -195c0,-18 6,-33 19,-46 12,-12 28,-18 46,-18l65 0c18,0 33,6 45,18 13,13 19,28 19,46l0 195zm-32 0l0 -195c0,-9 -3,-17 -9,-23 -6,-6 -14,-9 -23,-9l-65 0c-9,0 -17,3 -24,9 -3,3 -5,7 -6,11 -2,3 -3,8 -3,12l0 195c0,9 3,17 9,23 4,3 7,5 11,7 5,2 9,2 13,2l65 0c9,0 16,-3 23,-9 6,-6 9,-14 9,-23zm262 -130l0 -113c0,-5 1,-8 5,-12 3,-3 7,-4 11,-4 4,0 8,1 11,4 3,2 5,6 5,12l0 291c0,5 -2,9 -5,12 -4,3 -8,5 -11,5 -4,0 -8,-2 -12,-4 -3,-3 -4,-7 -4,-12l0 -146 -130 0 0 145c0,5 -2,10 -5,13 -3,2 -6,4 -11,4 -4,0 -8,-2 -12,-4 -3,-3 -4,-7 -4,-13l0 -291c0,-4 1,-8 4,-12 4,-3 8,-4 12,-4 4,0 8,1 11,4 3,2 5,6 5,12l0 113 130 0zm130 114l-23 69c-1,4 -3,7 -6,9 -2,1 -5,2 -9,3 -4,0 -8,-2 -11,-5 -4,-3 -6,-7 -6,-11l2 -6 97 -291c3,-10 8,-14 15,-14 7,0 12,4 16,14l96 291 2 6c0,4 -2,8 -6,11 -3,3 -7,5 -11,5 -2,0 -5,-1 -7,-2 -3,-1 -6,-4 -8,-10l-23 -69 -118 0zm107 -34l-48 -142 -48 142 96 0zm137 -47l97 0c9,0 17,-3 23,-10 6,-6 10,-13 10,-23l0 -65c0,-9 -3,-17 -10,-23 -6,-6 -13,-9 -23,-9l-97 0 0 130zm0 32l0 113c0,5 -2,10 -5,13 -3,2 -7,4 -11,4 -5,0 -8,-2 -12,-4 -3,-3 -4,-7 -4,-13l0 -291c0,-11 5,-16 16,-16l113 0c18,0 33,6 46,18 13,13 19,28 19,46l0 65c0,18 -6,33 -19,46 -13,12 -28,19 -46,19l-97 0zm365 0l-97 0c-17,0 -33,-7 -45,-19 -13,-13 -20,-28 -20,-46l0 -113c0,-5 2,-9 5,-12 3,-3 7,-4 11,-4 5,0 8,1 12,4 3,2 5,6 5,12l0 113c0,9 3,17 9,23 3,3 7,5 10,7 5,2 9,3 13,3l97 0 0 -146c0,-5 2,-9 5,-12 3,-3 7,-4 11,-4 5,0 8,1 12,4 3,2 5,6 5,12l0 243c0,18 -7,33 -19,45 -13,13 -28,20 -46,20l-81 0c-5,0 -9,-2 -12,-5 -3,-3 -4,-7 -4,-12 0,-3 1,-7 4,-10 3,-4 7,-6 12,-6l81 0c9,0 17,-3 23,-9 6,-6 9,-14 9,-23l0 -65zm220 97l81 0 0 -275c0,-5 1,-9 4,-12 4,-3 7,-4 12,-4 4,0 7,1 11,3 3,3 5,7 5,13l0 291c0,11 -6,17 -16,17l-227 0c-11,0 -16,-6 -16,-17l0 -291c0,-5 2,-9 5,-12 3,-3 7,-4 11,-4 4,0 8,1 11,4 4,2 5,6 5,12l0 275 81 0 0 -275c0,-5 2,-9 5,-12 3,-3 7,-4 11,-4 5,0 8,1 12,4 3,2 5,6 5,12l0 275zm187 -162l81 0c5,0 9,2 12,5 3,4 5,7 5,11 0,4 -2,8 -4,11 -3,4 -7,6 -13,6l-81 0 0 129 114 0c4,0 8,2 11,5 3,4 5,7 5,11 0,4 -1,8 -4,11 -3,4 -7,6 -12,6l-130 0c-11,0 -16,-6 -16,-16l0 -292c0,-11 5,-16 16,-16l130 0c4,0 8,1 11,4 3,4 5,8 5,12 0,3 -1,7 -4,11 -3,3 -7,5 -12,5l-114 0 0 97zm333 0l0 -113c0,-5 2,-8 5,-12 3,-3 7,-4 11,-4 4,0 8,1 11,4 4,2 5,6 5,12l0 291c0,5 -1,9 -5,12 -4,3 -7,5 -11,5 -4,0 -8,-2 -11,-4 -3,-3 -5,-7 -5,-12l0 -146 -130 0 0 145c0,5 -1,10 -4,13 -3,2 -7,4 -12,4 -4,0 -8,-2 -11,-4 -3,-3 -5,-7 -5,-13l0 -291c0,-4 2,-8 5,-12 3,-3 7,-4 11,-4 4,0 8,1 11,4 4,2 5,6 5,12l0 113 130 0zm268 178c0,5 -1,10 -4,13 -3,2 -7,4 -12,4 -4,0 -8,-2 -11,-4 -4,-3 -5,-7 -5,-13l0 -229 -132 237c-1,4 -4,6 -7,8l-3 2c-1,1 -3,1 -5,1 -3,0 -7,-1 -11,-5 -3,-3 -4,-7 -4,-13l0 -292c0,-4 1,-8 5,-12 3,-3 7,-4 11,-4 4,0 8,1 11,4 3,2 5,6 5,12l0 229 132 -237c1,-2 3,-5 6,-8 3,-2 6,-3 9,-3 4,0 7,2 10,5 3,4 5,8 5,14l0 291zm204 -145l0 -130 -98 0c-9,0 -17,3 -23,9 -3,3 -5,7 -7,11 -1,3 -2,8 -2,12l0 65c0,9 3,17 9,23 3,3 7,5 11,7 4,2 8,3 12,3l98 0zm-56 32l-77 122c-3,5 -7,8 -13,8 -4,0 -7,-2 -11,-6 -4,-3 -5,-6 -5,-11 0,-3 0,-6 2,-9l66 -104 -4 0c-17,0 -32,-7 -45,-19 -13,-13 -19,-28 -19,-46l0 -65c0,-18 6,-33 18,-46 13,-12 28,-18 46,-18l114 0c10,0 16,5 16,16l0 291c0,5 -2,10 -5,13 -3,2 -7,4 -11,4 -5,0 -8,-2 -12,-4 -3,-3 -4,-7 -4,-13l0 -113 -56 0z"/>
     <path class="fil2 str0" d="M11663 12909l83 -126c2,-2 4,-4 6,-5l4 -1 3 0c5,0 9,1 12,4 4,4 5,8 5,12 0,3 -1,6 -2,9l-92 137 92 136 2 5 0 4c0,5 -1,8 -5,12 -3,3 -7,5 -12,5 -5,0 -9,-3 -13,-8l-83 -125 -84 125c-1,2 -3,4 -6,6l-7 2c-3,0 -7,-2 -11,-5 -4,-3 -6,-7 -6,-12 0,-3 1,-6 3,-9l91 -136 -91 -137 -3 -5 0 -4c0,-4 2,-8 5,-12 4,-3 8,-4 12,-4 6,0 10,2 13,7l84 125z"/>
    </g>
   </g>
  </g>
 </g>
</svg>
